<?xml version="1.0" standalone="no"?>
<!DOCTYPE svg PUBLIC "-//W3C//DTD SVG 20010904//EN"
 "http://www.w3.org/TR/2001/REC-SVG-20010904/DTD/svg10.dtd">
<svg version="1.0" xmlns="http://www.w3.org/2000/svg"
 width="96.000000pt" height="68.000000pt" viewBox="0 0 96.000000 68.000000"
 preserveAspectRatio="xMidYMid meet">
<metadata>
Created by potrace 1.16, written by Peter Selinger 2001-2019
</metadata>
<g transform="translate(0.000000,68.000000) scale(0.100000,-0.100000)"
fill="#000000" stroke="none">
<path d="M505 583 c5 -10 10 -46 13 -80 l4 -61 -46 -7 c-61 -10 -69 -25 -12
-25 25 0 47 -4 50 -8 3 -5 3 -25 0 -44 -6 -35 -7 -36 -68 -42 -102 -12 -136
-18 -131 -26 9 -15 66 -19 120 -8 31 6 58 8 61 5 14 -13 -49 -104 -94 -135
-94 -67 -91 -64 -52 -56 71 14 151 86 185 167 14 35 15 35 92 42 181 14 205
22 141 44 -29 10 -89 5 -186 -15 -22 -4 -23 -2 -20 38 l3 43 69 12 c76 14 81
16 71 34 -7 11 -59 8 -113 -7 -23 -7 -23 -5 -21 58 3 77 -3 88 -43 88 -25 0
-29 -3 -23 -17z"/>
</g>
</svg>
