<?xml version="1.0" standalone="no"?>
<!DOCTYPE svg PUBLIC "-//W3C//DTD SVG 20010904//EN"
 "http://www.w3.org/TR/2001/REC-SVG-20010904/DTD/svg10.dtd">
<svg version="1.0" xmlns="http://www.w3.org/2000/svg"
 width="90.000000pt" height="92.000000pt" viewBox="0 0 90.000000 92.000000"
 preserveAspectRatio="xMidYMid meet">
<metadata>
Created by potrace 1.16, written by Peter Selinger 2001-2019
</metadata>
<g transform="translate(0.000000,92.000000) scale(0.100000,-0.100000)"
fill="#000000" stroke="none">
<path d="M490 842 c0 -5 13 -27 29 -49 l30 -41 -82 -11 c-146 -21 -138 -17
-121 -57 29 -70 -16 -387 -75 -520 -12 -26 -19 -49 -17 -51 7 -8 66 85 82 129
9 24 24 79 33 123 13 57 22 79 32 77 24 -6 41 -5 184 12 77 9 167 17 199 18
67 3 82 19 36 38 -26 11 -48 10 -133 -4 -148 -23 -287 -39 -292 -34 -9 9 17
213 28 220 14 9 176 32 182 26 3 -2 8 -19 11 -36 6 -28 4 -32 -22 -37 -16 -4
-37 -9 -46 -12 -14 -3 -18 2 -18 26 0 21 -6 32 -21 36 -28 9 -32 3 -19 -30 13
-33 2 -44 -45 -45 -29 -1 -29 -1 -11 -15 11 -8 30 -15 42 -15 18 0 23 -7 28
-45 4 -25 11 -45 17 -45 5 0 9 5 9 10 0 6 17 10 38 10 67 0 82 9 82 45 0 39
12 50 62 59 70 13 56 52 -14 41 -32 -4 -36 -3 -31 11 4 11 -2 23 -18 35 l-24
19 68 0 c53 0 67 3 67 15 0 27 -45 39 -105 28 -54 -9 -55 -9 -55 13 0 14 -10
30 -22 38 -29 18 -88 30 -88 18z m122 -257 c-5 -29 -6 -30 -49 -40 -32 -6 -33
-5 -33 24 0 27 3 30 38 34 20 2 40 4 43 5 3 1 4 -9 1 -23z"/>
<path d="M165 829 c-4 -5 -3 -14 1 -21 4 -7 10 -58 13 -115 l6 -103 -50 -9
c-27 -6 -60 -11 -73 -13 -12 -2 -23 -7 -22 -13 1 -16 43 -23 93 -15 26 4 48 3
49 -1 2 -5 1 -34 0 -64 l-4 -55 -86 -47 c-48 -25 -88 -47 -90 -48 -8 -6 13
-34 34 -45 22 -13 27 -11 62 21 20 19 48 44 61 54 l24 20 -7 -104 c-3 -57 -11
-110 -17 -117 -8 -10 -18 -10 -50 1 l-40 15 45 -53 c25 -28 46 -55 46 -59 0
-15 19 -8 40 14 18 20 20 35 20 179 l0 157 45 36 c58 48 58 65 -1 31 l-45 -26
3 52 3 52 49 14 c45 13 47 16 33 30 -9 9 -31 16 -49 15 l-34 -1 7 67 c4 37 11
77 14 90 4 12 2 28 -4 36 -17 20 -69 37 -76 25z"/>
<path d="M635 420 c-38 -10 -100 -19 -137 -19 -66 -1 -78 -7 -58 -27 5 -5 14
-42 20 -83 6 -40 12 -77 15 -80 2 -4 37 -3 77 2 40 5 96 6 125 4 l52 -5 20 53
c11 30 23 66 27 80 3 14 10 28 15 31 19 11 8 31 -26 47 -42 20 -40 20 -130 -3z
m85 -49 c0 -28 -1 -28 -56 -28 -42 0 -54 3 -50 13 3 7 0 17 -7 21 -12 8 32 19
86 22 23 1 27 -3 27 -28z m-155 -12 c9 -27 -10 -40 -50 -37 -22 2 -31 9 -33
25 -3 21 1 23 65 32 6 0 15 -9 18 -20z m145 -51 c-1 -43 -11 -53 -56 -53 -41
0 -44 2 -44 27 0 23 5 27 33 31 61 7 67 7 67 -5z m-142 -35 c-3 -24 -8 -28
-40 -31 -35 -3 -38 -1 -38 22 0 20 6 25 33 29 17 2 36 5 40 5 5 1 7 -10 5 -25z"/>
<path d="M495 159 c-4 -13 -30 -47 -58 -76 -44 -47 -47 -53 -23 -43 26 10 82
46 136 89 28 22 22 35 -22 46 -21 6 -27 3 -33 -16z"/>
<path d="M650 176 c0 -10 91 -120 107 -129 7 -4 18 -5 23 -2 16 10 11 61 -7
77 -31 27 -123 67 -123 54z"/>
</g>
</svg>
