<?xml version="1.0" standalone="no"?>
<!DOCTYPE svg PUBLIC "-//W3C//DTD SVG 20010904//EN"
 "http://www.w3.org/TR/2001/REC-SVG-20010904/DTD/svg10.dtd">
<svg version="1.0" xmlns="http://www.w3.org/2000/svg"
 width="90.000000pt" height="92.000000pt" viewBox="0 0 90.000000 92.000000"
 preserveAspectRatio="xMidYMid meet">
<metadata>
Created by potrace 1.16, written by Peter Selinger 2001-2019
</metadata>
<g transform="translate(0.000000,92.000000) scale(0.100000,-0.100000)"
fill="#000000" stroke="none">
<path d="M396 883 c4 -10 10 -52 12 -95 l3 -76 -28 -6 c-15 -3 -57 -8 -92 -12
-58 -6 -63 -5 -57 11 3 9 9 34 12 55 5 32 3 40 -17 54 -13 9 -27 16 -30 16 -4
0 -7 -24 -7 -53 0 -30 -6 -66 -16 -84 -15 -29 -14 -33 3 -54 18 -22 19 -23 72
-6 65 20 197 43 300 53 72 6 76 5 82 -15 5 -22 31 -28 43 -10 3 6 15 43 25 83
18 70 18 71 -3 89 -20 17 -49 22 -61 11 -3 -3 -1 -17 4 -31 5 -14 7 -40 3 -58
l-6 -33 -86 -4 c-48 -3 -89 -4 -91 -2 -2 2 0 39 6 81 12 88 4 103 -50 103 -24
0 -28 -3 -21 -17z"/>
<path d="M585 594 c-41 -9 -69 -10 -89 -4 -40 14 -46 6 -29 -42 12 -34 14 -71
9 -173 -6 -141 -16 -195 -46 -258 -26 -53 -25 -55 6 -26 35 32 59 82 74 151
l13 57 46 6 c25 3 57 7 70 9 23 4 23 3 19 -80 -2 -46 -7 -87 -11 -90 -3 -4
-24 -2 -47 4 -22 5 -40 9 -40 8 0 -2 21 -26 48 -54 85 -94 95 -74 103 208 3
118 9 225 13 237 7 18 2 26 -25 42 -38 23 -33 23 -114 5z m69 -50 c3 -9 6 -28
6 -43 0 -25 -3 -27 -65 -37 l-65 -9 0 47 c0 52 4 55 76 57 30 1 44 -4 48 -15z
m6 -148 l0 -43 -45 -6 c-25 -4 -56 -9 -70 -13 -25 -6 -25 -5 -20 37 3 23 8 45
11 48 3 3 29 8 57 12 29 3 55 7 60 8 4 0 7 -19 7 -43z"/>
<path d="M285 568 c-46 -15 -67 -17 -92 -10 -37 11 -49 2 -33 -27 13 -25 13
-115 0 -205 -9 -58 -25 -109 -67 -205 -4 -9 -1 -12 8 -9 21 6 77 94 89 138 10
37 13 39 58 45 26 3 60 10 76 15 l29 9 -6 -76 c-7 -90 -14 -100 -58 -84 -18 6
-34 9 -37 6 -3 -2 12 -21 32 -42 20 -21 36 -41 36 -45 0 -4 9 -8 20 -8 12 0
26 12 36 32 13 25 16 61 15 198 -1 92 3 189 9 216 10 42 9 50 -6 61 -23 16
-36 15 -109 -9z m63 -129 l3 -96 -48 -6 c-26 -4 -59 -10 -72 -13 -23 -7 -24
-6 -17 32 5 21 9 40 10 41 1 2 27 6 57 10 38 6 54 13 54 23 0 16 -18 17 -77 5
l-38 -7 0 40 c0 53 28 72 100 68 25 -1 25 -2 28 -97z"/>
</g>
</svg>
