<?xml version="1.0" standalone="no"?>
<!DOCTYPE svg PUBLIC "-//W3C//DTD SVG 20010904//EN"
 "http://www.w3.org/TR/2001/REC-SVG-20010904/DTD/svg10.dtd">
<svg version="1.0" xmlns="http://www.w3.org/2000/svg"
 width="96.000000pt" height="68.000000pt" viewBox="0 0 96.000000 68.000000"
 preserveAspectRatio="xMidYMid meet">
<metadata>
Created by potrace 1.16, written by Peter Selinger 2001-2019
</metadata>
<g transform="translate(0.000000,68.000000) scale(0.100000,-0.100000)"
fill="#000000" stroke="none">
<path d="M270 226 l0 -34 -87 -12 c-65 -10 -82 -15 -69 -22 16 -9 75 -5 134 9
22 5 22 4 16 -49 -8 -65 8 -107 32 -87 9 8 14 32 14 74 0 71 4 75 92 75 26 0
50 4 53 10 9 15 -41 23 -96 16 l-49 -7 0 31 c0 23 -4 30 -20 30 -16 0 -20 -7
-20 -34z"/>
</g>
</svg>
