<?xml version="1.0" standalone="no"?>
<!DOCTYPE svg PUBLIC "-//W3C//DTD SVG 20010904//EN"
 "http://www.w3.org/TR/2001/REC-SVG-20010904/DTD/svg10.dtd">
<svg version="1.0" xmlns="http://www.w3.org/2000/svg"
 width="96.000000pt" height="68.000000pt" viewBox="0 0 96.000000 68.000000"
 preserveAspectRatio="xMidYMid meet">
<metadata>
Created by potrace 1.16, written by Peter Selinger 2001-2019
</metadata>
<g transform="translate(0.000000,68.000000) scale(0.100000,-0.100000)"
fill="#000000" stroke="none">
<path d="M264 574 c3 -9 9 -33 12 -53 l6 -38 -52 -7 c-61 -8 -60 -17 2 -20 38
-1 43 -4 48 -28 6 -31 23 -26 34 9 7 22 13 25 69 37 41 10 21 29 -25 24 l-40
-4 5 33 c6 37 -12 63 -45 63 -14 0 -18 -5 -14 -16z"/>
</g>
</svg>
