<?xml version="1.0" standalone="no"?>
<!DOCTYPE svg PUBLIC "-//W3C//DTD SVG 20010904//EN"
 "http://www.w3.org/TR/2001/REC-SVG-20010904/DTD/svg10.dtd">
<svg version="1.0" xmlns="http://www.w3.org/2000/svg"
 width="96.000000pt" height="68.000000pt" viewBox="0 0 96.000000 68.000000"
 preserveAspectRatio="xMidYMid meet">
<metadata>
Created by potrace 1.16, written by Peter Selinger 2001-2019
</metadata>
<g transform="translate(0.000000,68.000000) scale(0.100000,-0.100000)"
fill="#000000" stroke="none">
<path d="M625 540 c-16 -4 -49 -8 -72 -9 -41 -1 -42 -2 -33 -27 6 -14 10 -53
10 -88 l0 -62 81 1 80 2 29 84 c26 77 27 85 12 97 -17 13 -60 14 -107 2z m42
-18 c6 -4 9 -19 6 -33 -4 -22 -11 -28 -46 -32 -51 -7 -65 4 -49 37 7 15 21 26
39 29 15 2 30 5 33 5 3 1 10 -2 17 -6z m3 -99 c0 -30 -13 -40 -57 -47 -42 -6
-43 -6 -43 23 0 33 9 39 63 40 29 1 37 -3 37 -16z"/>
</g>
</svg>
