<?xml version="1.0" standalone="no"?>
<!DOCTYPE svg PUBLIC "-//W3C//DTD SVG 20010904//EN"
 "http://www.w3.org/TR/2001/REC-SVG-20010904/DTD/svg10.dtd">
<svg version="1.0" xmlns="http://www.w3.org/2000/svg"
 width="96.000000pt" height="68.000000pt" viewBox="0 0 96.000000 68.000000"
 preserveAspectRatio="xMidYMid meet">
<metadata>
Created by potrace 1.16, written by Peter Selinger 2001-2019
</metadata>
<g transform="translate(0.000000,68.000000) scale(0.100000,-0.100000)"
fill="#000000" stroke="none">
<path d="M575 510 c-27 -5 -81 -9 -118 -9 l-68 -1 21 -27 c25 -32 15 -42 -45
-43 -36 -1 -38 -2 -16 -11 14 -5 37 -7 53 -4 25 6 29 4 34 -24 l6 -31 62 4
c33 2 82 4 109 5 44 1 49 4 64 36 16 34 18 35 79 35 61 0 90 12 58 24 -9 3
-39 6 -67 6 -39 0 -48 3 -39 12 19 19 -6 38 -47 37 -20 -1 -58 -5 -86 -9z m82
-25 c7 -20 6 -21 -44 -30 -39 -6 -43 -5 -43 13 0 30 76 44 87 17z m-127 -19
c0 -16 -21 -26 -56 -26 -17 0 -24 6 -24 20 0 17 7 20 40 20 28 0 40 -4 40 -14z
m110 -46 c0 -16 -7 -20 -35 -20 -40 0 -50 26 -12 33 42 8 47 7 47 -13z m-110
-10 c0 -16 -7 -20 -35 -20 -43 0 -49 27 -7 33 15 2 30 5 35 6 4 0 7 -8 7 -19z"/>
</g>
</svg>
