<?xml version="1.0" standalone="no"?>
<!DOCTYPE svg PUBLIC "-//W3C//DTD SVG 20010904//EN"
 "http://www.w3.org/TR/2001/REC-SVG-20010904/DTD/svg10.dtd">
<svg version="1.0" xmlns="http://www.w3.org/2000/svg"
 width="96.000000pt" height="68.000000pt" viewBox="0 0 96.000000 68.000000"
 preserveAspectRatio="xMidYMid meet">
<metadata>
Created by potrace 1.16, written by Peter Selinger 2001-2019
</metadata>
<g transform="translate(0.000000,68.000000) scale(0.100000,-0.100000)"
fill="#000000" stroke="none">
<path d="M558 601 c-1 -3 -2 -42 -2 -86 l-1 -80 -48 -3 c-60 -4 -52 -22 9 -22
l46 0 -7 -42 c-4 -24 -9 -45 -11 -47 -1 -2 -25 -5 -51 -8 -26 -2 -59 -7 -73
-10 l-25 -5 25 -10 c14 -5 46 -6 72 -3 37 5 48 4 48 -7 0 -27 -43 -94 -88
-136 -46 -43 -45 -51 5 -30 40 18 85 72 108 131 l21 52 114 6 c172 9 159 7
136 24 -11 9 -41 15 -68 15 -26 0 -48 2 -48 5 0 2 10 25 22 49 18 37 19 47 8
60 -15 20 -43 20 -95 2 -22 -8 -44 -12 -48 -9 -5 3 -5 38 -2 78 7 72 7 72 -19
77 -14 3 -27 2 -28 -1z m132 -193 c0 -60 -9 -76 -47 -83 -20 -3 -39 -3 -44 2
-4 4 -5 29 -2 55 5 45 7 47 42 51 20 2 39 4 44 5 4 1 7 -13 7 -30z"/>
<path d="M250 581 c0 -5 8 -23 18 -40 12 -22 25 -31 42 -31 35 0 37 33 3 60
-27 21 -63 27 -63 11z"/>
<path d="M210 482 c-69 -10 -125 -21 -124 -27 1 -25 55 -29 162 -12 59 9 129
19 155 23 29 4 46 11 44 18 -6 17 -98 16 -237 -2z"/>
<path d="M248 398 c-54 -11 -67 -34 -15 -24 17 3 51 8 75 12 23 4 42 10 42 15
0 11 -40 10 -102 -3z"/>
<path d="M252 328 c-23 -5 -40 -13 -37 -19 8 -12 23 -11 86 2 36 8 47 14 38
20 -17 10 -30 10 -87 -3z"/>
<path d="M295 260 c-11 -5 -46 -9 -77 -9 -57 -1 -58 -1 -39 -20 11 -11 23 -37
27 -58 9 -52 22 -67 41 -48 9 9 34 15 64 15 46 0 49 2 49 25 0 15 7 39 15 55
14 27 14 30 -4 40 -23 12 -48 12 -76 0z m25 -60 c0 -37 -2 -39 -35 -46 -20 -3
-38 -5 -40 -3 -2 2 -6 21 -10 41 -6 33 -5 37 17 41 63 12 68 10 68 -33z"/>
<path d="M660 222 c0 -4 29 -36 64 -71 44 -43 69 -62 80 -58 9 4 16 13 16 21
0 26 -49 74 -88 87 -20 6 -41 15 -46 20 -12 11 -26 12 -26 1z"/>
</g>
</svg>
