<?xml version="1.0" standalone="no"?>
<!DOCTYPE svg PUBLIC "-//W3C//DTD SVG 20010904//EN"
 "http://www.w3.org/TR/2001/REC-SVG-20010904/DTD/svg10.dtd">
<svg version="1.0" xmlns="http://www.w3.org/2000/svg"
 width="90.000000pt" height="92.000000pt" viewBox="0 0 90.000000 92.000000"
 preserveAspectRatio="xMidYMid meet">
<metadata>
Created by potrace 1.16, written by Peter Selinger 2001-2019
</metadata>
<g transform="translate(0.000000,92.000000) scale(0.100000,-0.100000)"
fill="#000000" stroke="none">
<path d="M598 751 l3 -118 -32 -7 c-73 -14 -73 -14 -66 69 6 82 -2 95 -57 95
-27 0 -33 -9 -17 -26 5 -5 13 -41 16 -80 l7 -71 -32 -7 c-18 -3 -44 -6 -57 -6
-22 0 -24 -2 -13 -15 8 -9 30 -15 56 -15 41 0 44 -2 44 -27 0 -16 -3 -44 -6
-64 l-6 -37 -64 -7 c-35 -4 -64 -10 -64 -14 0 -17 62 -42 90 -36 23 5 30 3 30
-8 0 -36 -43 -147 -75 -194 -42 -63 -31 -69 26 -12 45 45 64 82 88 174 l17 60
54 7 c30 3 56 6 57 4 1 -1 4 -82 7 -180 4 -166 8 -197 21 -184 13 13 25 132
25 246 l0 122 95 0 c77 0 95 3 95 15 0 32 -45 47 -120 40 l-70 -7 0 60 c0 67
-2 65 78 77 26 4 42 12 42 21 0 17 -42 28 -80 21 -36 -8 -37 -1 -28 113 7 92
0 110 -46 110 -20 0 -21 -4 -18 -119z m3 -208 c1 -36 -1 -77 -4 -79 -1 -1 -26
-4 -54 -8 l-53 -7 0 60 c0 66 2 68 73 70 36 1 37 0 38 -36z"/>
<path d="M190 760 c-25 -11 -62 -19 -82 -19 -43 -1 -42 0 -27 -38 14 -37 13
-320 -3 -455 -9 -83 -9 -114 0 -134 18 -38 36 -24 43 32 8 55 19 331 19 471
l0 91 41 7 c22 4 43 5 46 2 3 -3 -5 -31 -16 -62 l-21 -56 25 -33 c14 -18 28
-47 31 -64 6 -30 5 -31 -34 -34 l-40 -3 49 -34 c48 -33 50 -33 69 -16 31 28
25 67 -21 125 -49 62 -47 75 15 146 46 52 47 63 9 83 -28 15 -49 13 -103 -9z"/>
</g>
</svg>
