<?xml version="1.0" standalone="no"?>
<!DOCTYPE svg PUBLIC "-//W3C//DTD SVG 20010904//EN"
 "http://www.w3.org/TR/2001/REC-SVG-20010904/DTD/svg10.dtd">
<svg version="1.0" xmlns="http://www.w3.org/2000/svg"
 width="90.000000pt" height="92.000000pt" viewBox="0 0 90.000000 92.000000"
 preserveAspectRatio="xMidYMid meet">
<metadata>
Created by potrace 1.16, written by Peter Selinger 2001-2019
</metadata>
<g transform="translate(0.000000,92.000000) scale(0.100000,-0.100000)"
fill="#000000" stroke="none">
<path d="M525 830 c-4 -6 -2 -17 5 -25 6 -7 10 -33 8 -57 l-3 -43 -74 -9 c-69
-8 -73 -10 -55 -23 14 -10 34 -12 77 -8 56 7 57 6 57 -18 0 -22 -5 -25 -50
-31 -27 -4 -52 -11 -55 -16 -8 -13 40 -24 76 -16 28 5 30 4 27 -22 -3 -26 -5
-27 -96 -39 -51 -6 -96 -14 -99 -17 -3 -3 6 -10 20 -17 20 -9 51 -8 144 5 65
10 165 20 222 24 108 7 130 18 86 42 -21 11 -41 11 -125 -2 l-101 -15 3 26 c3
23 8 27 56 32 29 4 56 10 60 14 14 13 -25 26 -70 22 -44 -4 -48 -2 -48 17 0
19 9 23 71 33 76 12 85 16 74 34 -6 8 -27 10 -72 5 l-65 -7 3 47 c3 36 -1 49
-16 60 -22 17 -51 18 -60 4z"/>
<path d="M259 762 c-20 -15 -67 -43 -105 -62 -38 -19 -71 -36 -73 -38 -2 -1
-2 -5 2 -8 3 -3 31 2 62 11 32 9 59 14 62 11 3 -2 7 -31 10 -64 6 -68 16 -62
-124 -83 -46 -7 -83 -16 -83 -21 0 -5 12 -14 26 -20 20 -9 41 -9 99 3 67 14
73 14 67 0 -13 -39 -98 -159 -149 -213 -55 -57 -56 -58 -22 -46 33 11 138 108
172 158 17 24 17 23 12 -55 -3 -44 -10 -113 -16 -152 -9 -57 -9 -79 1 -103 7
-16 16 -30 21 -30 24 0 28 44 39 365 1 16 8 12 39 -24 40 -45 71 -51 71 -13 0
24 -25 47 -73 67 -31 13 -37 20 -37 45 0 28 2 29 60 36 33 4 60 10 60 15 0 17
-43 31 -78 24 l-35 -6 7 55 c5 49 4 57 -15 70 -21 14 -20 15 21 26 23 6 54 16
68 21 l25 10 -23 24 c-30 32 -46 31 -91 -3z"/>
<path d="M575 464 c-34 -8 -81 -12 -108 -9 -47 6 -48 5 -40 -17 10 -28 9 -140
-1 -188 -6 -26 -3 -40 9 -55 11 -14 18 -16 21 -7 7 16 24 16 24 -1 0 -16 -50
-70 -104 -115 -22 -17 -37 -34 -35 -37 8 -7 113 50 173 93 48 35 48 36 28 53
-21 16 -21 17 16 23 64 10 115 7 133 -10 16 -14 18 -14 27 3 5 10 12 73 14
140 4 120 4 122 -19 132 -30 14 -61 12 -138 -5z m95 -50 c0 -22 -3 -25 -23
-20 -13 3 -56 -1 -95 -8 -72 -14 -72 -14 -72 9 0 18 8 24 43 32 23 6 66 11 95
12 50 1 52 0 52 -25z m3 -70 c4 -23 2 -25 -20 -21 -14 2 -41 1 -61 -3 -20 -4
-54 -10 -74 -13 -35 -5 -38 -4 -38 19 0 22 4 24 43 25 34 0 81 6 138 18 4 0 9
-11 12 -25z m0 -71 c-4 -22 -10 -28 -31 -28 -15 -1 -60 -5 -100 -9 -74 -8 -74
-8 -70 15 3 22 9 25 83 31 44 4 87 9 95 12 8 2 18 4 21 5 3 0 4 -11 2 -26z"/>
<path d="M651 123 c86 -93 104 -102 115 -57 9 34 -25 68 -93 94 -30 11 -59 20
-65 20 -6 0 13 -26 43 -57z"/>
</g>
</svg>
