<?xml version="1.0" standalone="no"?>
<!DOCTYPE svg PUBLIC "-//W3C//DTD SVG 20010904//EN"
 "http://www.w3.org/TR/2001/REC-SVG-20010904/DTD/svg10.dtd">
<svg version="1.0" xmlns="http://www.w3.org/2000/svg"
 width="96.000000pt" height="68.000000pt" viewBox="0 0 96.000000 68.000000"
 preserveAspectRatio="xMidYMid meet">
<metadata>
Created by potrace 1.16, written by Peter Selinger 2001-2019
</metadata>
<g transform="translate(0.000000,68.000000) scale(0.100000,-0.100000)"
fill="#000000" stroke="none">
<path d="M713 405 c-17 -19 -16 -23 5 -28 16 -4 16 -5 0 -6 -11 -1 -18 -9 -18
-22 0 -11 -4 -17 -10 -14 -5 3 -10 -4 -10 -16 0 -17 3 -19 14 -10 11 9 20 5
42 -19 31 -32 79 -45 53 -13 -8 9 -29 22 -46 30 -40 16 -40 23 -6 63 21 26 24
33 12 41 -18 11 -22 11 -36 -6z"/>
<path d="M652 290 c-7 -12 -8 -20 -2 -20 5 0 10 5 10 11 0 5 4 7 10 4 6 -3 7
1 4 9 -8 20 -7 20 -22 -4z"/>
</g>
</svg>
