<?xml version="1.0" standalone="no"?>
<!DOCTYPE svg PUBLIC "-//W3C//DTD SVG 20010904//EN"
 "http://www.w3.org/TR/2001/REC-SVG-20010904/DTD/svg10.dtd">
<svg version="1.0" xmlns="http://www.w3.org/2000/svg"
 width="96.000000pt" height="68.000000pt" viewBox="0 0 96.000000 68.000000"
 preserveAspectRatio="xMidYMid meet">
<metadata>
Created by potrace 1.16, written by Peter Selinger 2001-2019
</metadata>
<g transform="translate(0.000000,68.000000) scale(0.100000,-0.100000)"
fill="#000000" stroke="none">
<path d="M197 263 c-10 -3 -16 -10 -14 -16 4 -12 13 -12 90 0 l37 5 0 -43 c0
-24 -8 -60 -18 -79 -18 -36 -33 -41 -82 -26 -25 8 -25 8 4 -23 57 -60 102 -31
134 89 15 53 17 78 10 87 -10 13 -120 17 -161 6z"/>
</g>
</svg>
