<?xml version="1.0" standalone="no"?>
<!DOCTYPE svg PUBLIC "-//W3C//DTD SVG 20010904//EN"
 "http://www.w3.org/TR/2001/REC-SVG-20010904/DTD/svg10.dtd">
<svg version="1.0" xmlns="http://www.w3.org/2000/svg"
 width="96.000000pt" height="68.000000pt" viewBox="0 0 96.000000 68.000000"
 preserveAspectRatio="xMidYMid meet">
<metadata>
Created by potrace 1.16, written by Peter Selinger 2001-2019
</metadata>
<g transform="translate(0.000000,68.000000) scale(0.100000,-0.100000)"
fill="#000000" stroke="none">
<path d="M199 521 c39 -54 101 -68 101 -23 0 28 -20 41 -75 49 l-49 6 23 -32z"/>
<path d="M515 529 c-38 -10 -96 -21 -128 -25 -61 -7 -71 -20 -12 -16 34 3 35
1 35 -31 0 -49 -47 -186 -78 -227 -14 -19 -37 -45 -51 -57 -40 -35 -18 -37 25
-2 21 17 54 55 72 85 19 30 40 54 47 54 17 0 116 -101 112 -114 -5 -14 -111
-68 -172 -88 -38 -12 -44 -16 -24 -17 32 -1 141 32 189 58 l35 19 54 -50 c53
-48 54 -49 105 -43 120 14 134 25 59 45 -64 17 -144 50 -165 68 -15 13 -14 18
19 70 20 32 47 69 60 83 l24 27 -32 11 c-18 6 -48 8 -66 5 -42 -8 -42 3 -2 74
25 45 28 57 17 67 -23 22 -51 23 -123 4z m50 -61 c-4 -18 -13 -49 -19 -68 -10
-33 -13 -35 -63 -38 l-52 -3 16 58 c8 32 17 64 19 71 2 7 22 12 54 12 l52 0
-7 -32z m60 -140 c-12 -39 -48 -98 -60 -98 -6 0 -33 22 -59 49 l-49 49 49 7
c27 4 54 8 59 10 6 2 23 4 38 4 25 1 28 -2 22 -21z"/>
<path d="M100 415 c0 -17 66 -75 86 -75 24 0 32 22 16 47 -13 21 -102 45 -102
28z"/>
<path d="M244 280 c-42 -46 -83 -86 -124 -118 -24 -20 -25 -20 -7 -56 24 -52
41 -47 77 24 30 59 55 91 65 82 5 -4 5 -2 1 5 -3 6 3 27 15 47 32 55 17 64
-27 16z"/>
</g>
</svg>
