<?xml version="1.0" standalone="no"?>
<!DOCTYPE svg PUBLIC "-//W3C//DTD SVG 20010904//EN"
 "http://www.w3.org/TR/2001/REC-SVG-20010904/DTD/svg10.dtd">
<svg version="1.0" xmlns="http://www.w3.org/2000/svg"
 width="96.000000pt" height="68.000000pt" viewBox="0 0 96.000000 68.000000"
 preserveAspectRatio="xMidYMid meet">
<metadata>
Created by potrace 1.16, written by Peter Selinger 2001-2019
</metadata>
<g transform="translate(0.000000,68.000000) scale(0.100000,-0.100000)"
fill="#000000" stroke="none">
<path d="M474 553 l1 -48 -63 -10 c-72 -11 -72 -25 0 -25 26 0 48 -2 48 -5 0
-4 -6 -18 -14 -33 -19 -36 -62 -75 -116 -106 -56 -32 -32 -34 35 -2 55 25 120
84 130 116 3 11 10 20 14 20 4 0 49 -31 100 -70 97 -74 116 -80 196 -60 34 8
34 8 -70 41 -38 12 -98 40 -133 61 -34 21 -68 38 -75 39 -24 1 29 17 81 24 64
8 72 26 12 27 -3 1 -24 -2 -48 -6 l-43 -6 7 36 c7 39 -4 54 -42 54 -18 0 -20
-6 -20 -47z"/>
</g>
</svg>
