<?xml version="1.0" standalone="no"?>
<!DOCTYPE svg PUBLIC "-//W3C//DTD SVG 20010904//EN"
 "http://www.w3.org/TR/2001/REC-SVG-20010904/DTD/svg10.dtd">
<svg version="1.0" xmlns="http://www.w3.org/2000/svg"
 width="90.000000pt" height="92.000000pt" viewBox="0 0 90.000000 92.000000"
 preserveAspectRatio="xMidYMid meet">
<metadata>
Created by potrace 1.16, written by Peter Selinger 2001-2019
</metadata>
<g transform="translate(0.000000,92.000000) scale(0.100000,-0.100000)"
fill="#000000" stroke="none">
<path d="M245 806 c6 -39 -9 -183 -20 -194 -3 -3 -43 -10 -90 -15 -47 -6 -85
-14 -85 -19 0 -13 49 -21 111 -16 l60 4 -7 -55 c-3 -31 -10 -60 -14 -64 -4 -5
-33 -11 -64 -14 -53 -5 -56 -7 -41 -23 9 -10 20 -49 26 -86 5 -38 15 -80 20
-94 10 -23 12 -23 23 -7 9 12 28 17 62 18 72 1 141 13 127 22 -14 9 17 99 45
130 16 18 15 20 -12 44 -25 21 -34 23 -82 17 l-53 -6 6 38 c13 84 16 88 64 96
95 16 110 26 69 48 -14 8 -32 8 -57 1 -20 -6 -39 -8 -41 -6 -7 6 19 128 29
140 19 20 9 54 -21 70 -51 27 -62 21 -55 -29z m71 -440 c-9 -81 -10 -83 -78
-90 -78 -8 -79 -6 -82 106 -1 26 26 35 113 37 l54 1 -7 -54z"/>
<path d="M620 764 c-53 -16 -88 -21 -119 -17 -41 5 -44 4 -36 -13 5 -11 11
-84 13 -164 5 -216 -25 -335 -113 -438 -43 -50 -34 -54 24 -12 52 38 97 107
118 182 14 49 18 55 30 42 8 -8 19 -14 25 -14 6 0 42 28 80 62 l70 61 -4 -140
c-2 -78 -6 -145 -10 -149 -4 -4 -32 0 -63 9 -30 8 -55 14 -55 12 0 -12 126
-122 136 -118 7 2 20 20 28 38 13 27 16 78 16 302 0 147 5 288 11 313 9 38 8
46 -7 57 -24 18 -56 15 -144 -13z m91 -36 c0 -2 3 -43 6 -93 l5 -90 -24 22
c-13 13 -54 30 -91 39 -65 16 -67 18 -67 48 0 42 9 52 50 64 31 9 119 16 121
10z m-127 -163 c52 -40 105 -58 123 -44 13 11 14 9 11 -16 -2 -24 -14 -35 -73
-66 -120 -63 -115 -65 -115 35 0 78 5 116 17 116 2 0 19 -11 37 -25z"/>
</g>
</svg>
