<?xml version="1.0" standalone="no"?>
<!DOCTYPE svg PUBLIC "-//W3C//DTD SVG 20010904//EN"
 "http://www.w3.org/TR/2001/REC-SVG-20010904/DTD/svg10.dtd">
<svg version="1.0" xmlns="http://www.w3.org/2000/svg"
 width="96.000000pt" height="68.000000pt" viewBox="0 0 96.000000 68.000000"
 preserveAspectRatio="xMidYMid meet">
<metadata>
Created by potrace 1.16, written by Peter Selinger 2001-2019
</metadata>
<g transform="translate(0.000000,68.000000) scale(0.100000,-0.100000)"
fill="#000000" stroke="none">
<path d="M570 516 c-74 -21 -78 -26 -17 -23 67 4 70 -2 27 -61 l-30 -42 -32
20 c-37 22 -89 29 -54 7 10 -7 29 -20 43 -31 l24 -19 -38 -39 c-21 -21 -67
-58 -102 -80 -35 -23 -58 -44 -52 -46 19 -6 115 47 170 95 36 31 55 42 64 36
6 -5 38 -31 70 -56 54 -43 63 -47 110 -46 29 1 66 4 82 8 27 7 22 10 -57 35
-47 16 -112 43 -143 61 l-57 32 51 61 c28 34 51 66 51 72 0 10 -43 31 -58 29
-4 0 -27 -6 -52 -13z"/>
</g>
</svg>
