<?xml version="1.0" standalone="no"?>
<!DOCTYPE svg PUBLIC "-//W3C//DTD SVG 20010904//EN"
 "http://www.w3.org/TR/2001/REC-SVG-20010904/DTD/svg10.dtd">
<svg version="1.0" xmlns="http://www.w3.org/2000/svg"
 width="96.000000pt" height="68.000000pt" viewBox="0 0 96.000000 68.000000"
 preserveAspectRatio="xMidYMid meet">
<metadata>
Created by potrace 1.16, written by Peter Selinger 2001-2019
</metadata>
<g transform="translate(0.000000,68.000000) scale(0.100000,-0.100000)"
fill="#000000" stroke="none">
<path d="M558 566 c-92 -13 -126 -26 -65 -26 31 0 38 -4 43 -25 11 -45 0 -54
-56 -49 -41 4 -50 2 -43 -8 4 -7 15 -33 23 -58 12 -35 20 -45 35 -43 11 1 72
4 135 7 l114 5 32 47 c30 44 31 49 16 61 -9 7 -40 13 -69 13 l-52 0 2 35 c2
31 5 35 29 35 15 0 30 5 33 10 8 13 -63 11 -177 -4z m70 -53 c-2 -27 -8 -39
-22 -41 -27 -6 -39 12 -31 47 5 25 12 31 31 31 23 0 25 -3 22 -37z m112 -59
c0 -34 -20 -54 -56 -54 -32 0 -34 2 -28 28 10 40 12 42 50 42 24 0 34 -4 34
-16z m-122 -31 c-2 -27 -8 -39 -20 -41 -14 -3 -18 4 -18 31 0 37 6 47 27 47
10 0 13 -11 11 -37z m-75 13 c10 -26 0 -51 -21 -54 -13 -2 -22 2 -22 10 0 7
-3 23 -6 36 -5 18 -2 22 19 22 14 0 27 -6 30 -14z"/>
<path d="M302 555 c-23 -7 -61 -11 -84 -7 -40 5 -41 4 -34 -19 30 -92 12 -272
-34 -362 -16 -31 -25 -57 -19 -57 21 0 75 67 88 109 9 33 16 41 28 36 11 -4
30 7 55 32 l39 38 -3 -85 -3 -85 -42 1 c-24 0 -43 -2 -43 -5 1 -9 86 -71 98
-71 6 0 18 10 26 22 13 18 16 55 16 200 0 98 5 189 10 204 19 48 -27 71 -98
49z m38 -81 c0 -38 -3 -45 -17 -40 -10 3 -30 8 -45 12 -20 4 -28 12 -28 28 0
31 19 46 57 46 33 0 33 -1 33 -46z m-37 -79 c20 -10 37 -24 37 -30 0 -12 -70
-55 -89 -55 -6 0 -11 15 -11 33 0 39 10 79 19 75 3 -2 23 -12 44 -23z"/>
<path d="M598 325 c-102 -13 -125 -25 -47 -25 73 0 159 11 159 20 0 15 -25 16
-112 5z"/>
<path d="M565 254 c-60 -7 -116 -13 -122 -13 -7 -1 -13 -6 -13 -12 0 -9 22
-10 75 -6 84 8 95 0 95 -67 0 -42 -21 -66 -52 -58 l-22 5 23 -31 c27 -39 62
-42 80 -9 8 15 11 52 9 100 l-3 77 87 0 c48 0 89 4 92 9 15 24 -75 26 -249 5z"/>
<path d="M480 165 c0 -8 -14 -30 -31 -50 -35 -40 -29 -44 21 -14 46 28 62 50
48 66 -14 18 -38 16 -38 -2z"/>
<path d="M721 151 c46 -62 102 -77 84 -21 -7 21 -28 33 -82 46 l-26 7 24 -32z"/>
</g>
</svg>
