<?xml version="1.0" standalone="no"?>
<!DOCTYPE svg PUBLIC "-//W3C//DTD SVG 20010904//EN"
 "http://www.w3.org/TR/2001/REC-SVG-20010904/DTD/svg10.dtd">
<svg version="1.0" xmlns="http://www.w3.org/2000/svg"
 width="96.000000pt" height="68.000000pt" viewBox="0 0 96.000000 68.000000"
 preserveAspectRatio="xMidYMid meet">
<metadata>
Created by potrace 1.16, written by Peter Selinger 2001-2019
</metadata>
<g transform="translate(0.000000,68.000000) scale(0.100000,-0.100000)"
fill="#000000" stroke="none">
<path d="M510 577 c0 -46 -10 -56 -62 -63 -39 -5 -47 -9 -33 -16 9 -6 30 -8
45 -5 24 5 27 3 23 -14 -3 -11 -28 -45 -55 -75 -28 -30 -46 -54 -40 -54 18 0
101 81 123 119 19 34 27 39 67 45 24 3 62 6 83 6 44 0 52 15 13 24 -24 6 -60
3 -107 -10 -14 -5 -17 0 -15 28 3 28 -1 34 -19 36 -19 3 -23 -1 -23 -21z"/>
</g>
</svg>
