<?xml version="1.0" standalone="no"?>
<!DOCTYPE svg PUBLIC "-//W3C//DTD SVG 20010904//EN"
 "http://www.w3.org/TR/2001/REC-SVG-20010904/DTD/svg10.dtd">
<svg version="1.0" xmlns="http://www.w3.org/2000/svg"
 width="96.000000pt" height="68.000000pt" viewBox="0 0 96.000000 68.000000"
 preserveAspectRatio="xMidYMid meet">
<metadata>
Created by potrace 1.16, written by Peter Selinger 2001-2019
</metadata>
<g transform="translate(0.000000,68.000000) scale(0.100000,-0.100000)"
fill="#000000" stroke="none">
<path d="M425 558 c-8 -34 -49 -113 -73 -137 -25 -25 -3 -24 28 3 39 32 48 32
60 2 18 -48 8 -60 -58 -70 -81 -12 -80 -29 1 -25 l62 4 3 -74 c3 -81 -2 -91
-52 -91 -29 0 -29 0 -23 49 6 48 -1 61 -31 61 -12 0 -8 -163 4 -167 5 -2 59
15 120 38 108 40 161 65 119 55 -11 -2 -39 -7 -62 -11 -37 -6 -41 -4 -38 12 2
10 4 28 4 41 1 16 7 22 25 22 39 0 86 12 86 22 0 6 -17 7 -42 3 -24 -4 -47 -8
-53 -9 -5 0 -10 15 -10 34 l0 35 58 3 c76 4 74 28 -3 26 l-52 -2 6 29 c3 16 1
31 -6 35 -16 10 17 22 60 23 17 1 32 6 32 11 0 14 -68 12 -113 -4 -44 -16 -56
-5 -27 26 28 30 37 68 19 79 -25 16 -37 9 -44 -23z"/>
<path d="M210 454 c-23 -10 -50 -14 -77 -10 -33 4 -43 2 -43 -9 0 -7 4 -16 9
-19 5 -4 12 -25 16 -49 9 -59 25 -107 35 -107 5 0 14 9 20 20 9 16 21 20 63
20 l52 0 2 46 c1 26 6 51 12 57 16 16 13 54 -5 61 -24 9 -46 7 -84 -10z m30
-61 c0 -47 -8 -59 -43 -65 -29 -6 -32 0 -39 61 -2 19 3 27 22 32 53 15 60 12
60 -28z"/>
<path d="M740 439 c-19 -5 -49 -7 -67 -4 l-32 6 -1 -205 c0 -129 3 -207 10
-211 19 -12 28 40 35 208 8 182 6 178 67 181 l33 1 -2 -54 c-3 -62 -15 -81
-45 -73 l-22 5 23 -31 c12 -18 26 -32 31 -32 18 0 40 32 50 73 6 23 14 57 19
75 18 64 -12 83 -99 61z"/>
</g>
</svg>
