<?xml version="1.0" standalone="no"?>
<!DOCTYPE svg PUBLIC "-//W3C//DTD SVG 20010904//EN"
 "http://www.w3.org/TR/2001/REC-SVG-20010904/DTD/svg10.dtd">
<svg version="1.0" xmlns="http://www.w3.org/2000/svg"
 width="96.000000pt" height="68.000000pt" viewBox="0 0 96.000000 68.000000"
 preserveAspectRatio="xMidYMid meet">
<metadata>
Created by potrace 1.16, written by Peter Selinger 2001-2019
</metadata>
<g transform="translate(0.000000,68.000000) scale(0.100000,-0.100000)"
fill="#000000" stroke="none">
<path d="M447 196 l6 -36 -54 -1 c-57 -1 -124 -15 -99 -20 8 -1 47 -3 85 -3
66 -1 70 -2 73 -25 2 -13 0 -27 -5 -31 -4 -5 -64 -11 -133 -15 -69 -4 -127 -9
-129 -11 -2 -2 9 -9 23 -16 22 -9 50 -9 135 0 59 7 180 12 269 12 160 0 187 6
140 31 -15 8 -57 10 -140 5 l-119 -7 3 33 3 33 80 10 c95 12 86 28 -13 23 -65
-3 -67 -2 -67 22 0 21 -5 26 -32 28 -31 3 -32 3 -26 -32z"/>
</g>
</svg>
