<?xml version="1.0" standalone="no"?>
<!DOCTYPE svg PUBLIC "-//W3C//DTD SVG 20010904//EN"
 "http://www.w3.org/TR/2001/REC-SVG-20010904/DTD/svg10.dtd">
<svg version="1.0" xmlns="http://www.w3.org/2000/svg"
 width="96.000000pt" height="68.000000pt" viewBox="0 0 96.000000 68.000000"
 preserveAspectRatio="xMidYMid meet">
<metadata>
Created by potrace 1.16, written by Peter Selinger 2001-2019
</metadata>
<g transform="translate(0.000000,68.000000) scale(0.100000,-0.100000)"
fill="#000000" stroke="none">
<path d="M525 160 c-19 -8 -19 -9 2 -9 12 -1 25 4 28 9 7 12 -2 12 -30 0z"/>
<path d="M579 163 c-1 -5 0 -25 1 -47 1 -28 -2 -36 -11 -30 -9 5 -11 2 -6 -9
4 -11 -2 -19 -21 -25 -26 -9 -25 -10 10 -8 21 0 38 5 38 9 0 5 9 22 20 37 13
18 17 31 10 35 -12 7 -4 25 11 25 6 0 7 -4 4 -10 -3 -5 -1 -10 4 -10 18 0 12
19 -8 30 -23 12 -51 13 -52 3z"/>
<path d="M371 148 c-19 -5 -43 -7 -53 -5 -10 3 -18 1 -18 -4 0 -5 5 -9 11 -9
5 0 7 -4 4 -10 -3 -5 -1 -10 5 -10 6 0 8 -5 5 -10 -8 -13 14 -80 26 -80 5 0 9
7 9 16 0 9 -5 12 -12 8 -7 -5 -9 -2 -5 9 3 9 2 29 -3 46 l-8 30 61 15 c34 8
51 14 37 14 -14 0 -40 -4 -59 -10z"/>
<path d="M433 53 c-79 -5 -83 -19 -5 -17 80 3 82 3 82 14 0 6 -3 9 -7 8 -5 -1
-36 -3 -70 -5z"/>
</g>
</svg>
