<?xml version="1.0" standalone="no"?>
<!DOCTYPE svg PUBLIC "-//W3C//DTD SVG 20010904//EN"
 "http://www.w3.org/TR/2001/REC-SVG-20010904/DTD/svg10.dtd">
<svg version="1.0" xmlns="http://www.w3.org/2000/svg"
 width="90.000000pt" height="92.000000pt" viewBox="0 0 90.000000 92.000000"
 preserveAspectRatio="xMidYMid meet">
<metadata>
Created by potrace 1.16, written by Peter Selinger 2001-2019
</metadata>
<g transform="translate(0.000000,92.000000) scale(0.100000,-0.100000)"
fill="#000000" stroke="none">
<path d="M600 836 c-14 -14 -52 -41 -84 -60 -48 -29 -55 -36 -35 -36 14 0 63
14 110 30 46 17 91 33 99 36 12 4 9 11 -13 30 -35 30 -46 30 -77 0z"/>
<path d="M155 821 c-3 -10 -19 -37 -35 -60 -24 -32 -37 -41 -60 -41 -31 0 -37
-9 -20 -26 5 -5 16 -51 23 -100 15 -99 22 -118 40 -107 20 13 181 31 193 21
17 -13 31 10 52 89 11 39 25 80 32 92 13 26 8 37 -31 56 -25 13 -33 14 -56 2
-16 -8 -41 -17 -57 -21 -18 -4 -25 -11 -20 -16 6 -6 24 -5 48 1 45 12 57 4 49
-33 -4 -20 -11 -28 -27 -28 -32 0 -66 -11 -66 -21 0 -5 20 -9 45 -9 44 0 45
-1 39 -27 -4 -16 -9 -30 -11 -33 -3 -3 -44 -12 -93 -21 l-88 -16 -4 38 c-3 36
-2 38 29 44 32 6 50 21 39 32 -3 4 -22 2 -41 -4 l-35 -11 0 42 c0 41 2 43 71
88 l70 46 -27 21 c-33 26 -51 27 -59 2z"/>
<path d="M720 759 c0 -7 -16 -34 -36 -61 -19 -28 -31 -49 -26 -47 5 2 34 18
65 34 60 32 72 56 38 75 -26 13 -41 13 -41 -1z"/>
<path d="M550 735 c0 -19 37 -65 52 -65 21 0 25 32 6 48 -17 13 -58 25 -58 17z"/>
<path d="M420 708 c0 -6 12 -27 26 -45 23 -31 28 -33 41 -20 11 11 12 19 4 35
-12 23 -71 48 -71 30z"/>
<path d="M536 646 c-3 -14 -26 -39 -51 -57 -46 -33 -53 -47 -34 -66 7 -7 21
-6 47 3 20 7 43 13 51 14 19 0 -43 -46 -91 -68 -42 -19 -43 -20 -23 -46 13
-17 16 -17 61 -2 63 21 66 21 62 -11 -3 -26 -7 -28 -81 -39 -85 -13 -100 -20
-77 -34 18 -12 51 -12 107 -1 l42 8 -16 -31 c-20 -41 -52 -75 -85 -92 -25 -13
-30 -12 -49 7 -34 34 -49 84 -49 162 0 76 -9 97 -43 97 -13 0 -17 -5 -13 -18
3 -10 10 -53 16 -97 18 -139 63 -205 176 -257 43 -20 65 -23 179 -23 106 0
136 3 163 18 38 21 50 43 35 66 -6 9 -14 36 -18 59 -9 55 -21 61 -29 13 -13
-81 -105 -116 -247 -92 -67 11 -119 29 -119 40 1 3 20 15 43 26 32 16 48 33
67 70 14 28 29 53 34 56 4 4 53 10 107 14 55 3 99 11 99 16 0 5 -11 16 -24 24
-22 14 -32 15 -100 2 l-75 -14 2 28 c2 24 8 31 37 39 46 13 56 13 80 -2 17
-11 22 -10 30 2 16 25 7 44 -32 65 -41 22 -60 15 -35 -13 16 -18 13 -19 -79
-31 -53 -7 -98 -10 -101 -7 -3 2 40 28 96 56 91 45 100 52 91 70 -18 33 -32
34 -56 2 -20 -25 -34 -32 -80 -38 -30 -3 -57 -4 -60 -1 -3 3 14 15 38 28 67
33 71 39 52 60 -23 26 -41 24 -48 -5z"/>
<path d="M167 484 c-3 -4 -1 -16 5 -27 7 -13 9 -76 7 -176 -5 -184 0 -191 73
-103 26 31 45 58 43 60 -2 2 -17 -5 -33 -17 -17 -12 -33 -21 -36 -21 -3 0 -6
20 -6 45 0 45 0 45 40 51 22 4 40 10 40 14 0 13 -30 20 -56 14 -21 -6 -24 -3
-24 24 0 28 4 32 35 38 44 8 40 30 -4 27 -30 -1 -32 1 -27 22 8 30 -38 68 -57
49z"/>
<path d="M48 349 c3 -67 0 -127 -7 -150 -11 -38 -2 -80 17 -79 6 1 65 75 86
109 5 8 -4 5 -22 -7 -35 -25 -44 -18 -40 32 2 31 5 35 41 40 47 8 46 32 -2 28
-28 -2 -31 0 -31 28 0 26 4 30 28 30 15 0 34 4 42 10 12 8 12 10 -3 16 -10 3
-28 4 -41 2 -18 -4 -23 -1 -18 10 5 15 -22 42 -43 42 -7 0 -9 -36 -7 -111z"/>
<path d="M666 275 c63 -58 90 -73 106 -57 16 16 -1 51 -34 68 -25 13 -113 44
-127 44 -2 0 22 -25 55 -55z"/>
</g>
</svg>
