<?xml version="1.0" standalone="no"?>
<!DOCTYPE svg PUBLIC "-//W3C//DTD SVG 20010904//EN"
 "http://www.w3.org/TR/2001/REC-SVG-20010904/DTD/svg10.dtd">
<svg version="1.0" xmlns="http://www.w3.org/2000/svg"
 width="96.000000pt" height="68.000000pt" viewBox="0 0 96.000000 68.000000"
 preserveAspectRatio="xMidYMid meet">
<metadata>
Created by potrace 1.16, written by Peter Selinger 2001-2019
</metadata>
<g transform="translate(0.000000,68.000000) scale(0.100000,-0.100000)"
fill="#000000" stroke="none">
<path d="M160 521 c0 -3 13 -21 28 -38 41 -49 104 -42 64 6 -16 20 -92 47 -92
32z"/>
<path d="M130 345 c37 -38 72 -44 78 -13 4 20 -45 48 -84 48 l-28 0 34 -35z"/>
<path d="M246 255 c-15 -25 -48 -65 -72 -90 -45 -44 -56 -79 -32 -103 21 -21
36 -13 49 26 7 20 30 72 51 115 45 89 47 119 4 52z"/>
</g>
</svg>
