<?xml version="1.0" standalone="no"?>
<!DOCTYPE svg PUBLIC "-//W3C//DTD SVG 20010904//EN"
 "http://www.w3.org/TR/2001/REC-SVG-20010904/DTD/svg10.dtd">
<svg version="1.0" xmlns="http://www.w3.org/2000/svg"
 width="90.000000pt" height="92.000000pt" viewBox="0 0 90.000000 92.000000"
 preserveAspectRatio="xMidYMid meet">
<metadata>
Created by potrace 1.16, written by Peter Selinger 2001-2019
</metadata>
<g transform="translate(0.000000,92.000000) scale(0.100000,-0.100000)"
fill="#000000" stroke="none">
<path d="M410 895 c0 -4 7 -20 16 -36 8 -17 13 -33 11 -36 -5 -4 -224 -32
-260 -33 -16 0 -16 -2 -2 -30 41 -79 -8 -365 -91 -533 -18 -38 -42 -80 -52
-95 -34 -50 -36 -55 -16 -44 22 12 62 55 91 97 55 80 102 248 127 448 8 65 16
121 19 123 8 8 236 33 307 34 36 1 85 5 109 8 43 7 43 7 23 26 -24 21 -42 22
-136 11 -50 -5 -67 -5 -62 4 10 15 -38 61 -64 61 -11 0 -20 -2 -20 -5z"/>
<path d="M560 736 l7 -45 -39 -6 c-21 -4 -38 -11 -38 -15 0 -12 37 -22 58 -16
15 5 17 -3 17 -87 0 -75 3 -92 15 -92 12 0 16 19 20 95 l5 95 44 7 c24 4 46
10 49 13 12 11 -12 20 -52 19 -40 -1 -42 1 -38 23 5 27 -13 53 -38 53 -14 0
-16 -6 -10 -44z"/>
<path d="M334 742 c3 -5 8 -22 11 -39 5 -30 4 -31 -40 -37 -58 -9 -58 -26 0
-26 l46 0 -6 -82 c-4 -51 -2 -89 5 -98 19 -27 30 10 30 101 l0 86 40 7 c22 3
40 11 40 16 0 13 -46 24 -66 16 -12 -4 -15 0 -13 17 4 29 -8 47 -32 47 -11 0
-18 -4 -15 -8z"/>
<path d="M638 578 c-5 -76 10 -108 50 -108 37 0 56 14 48 35 -5 13 -14 16 -36
11 -26 -5 -30 -3 -30 17 0 12 4 38 10 57 7 25 7 36 -3 42 -28 18 -35 7 -39
-54z"/>
<path d="M509 623 c-1 -4 -1 -12 0 -17 1 -5 -1 -27 -4 -47 -6 -37 -8 -38 -38
-32 -41 7 -38 4 -27 43 7 25 6 36 -3 42 -23 15 -27 8 -27 -53 l0 -61 40 4 c45
4 44 5 29 -25 l-12 -22 23 20 c25 22 59 90 60 117 0 17 -39 46 -41 31z"/>
<path d="M280 573 c0 -21 -10 -58 -21 -83 l-20 -44 25 23 c14 13 35 44 46 69
21 44 21 46 4 59 -28 20 -34 16 -34 -24z"/>
<path d="M515 449 c-4 -5 -3 -15 2 -21 4 -7 8 -97 8 -200 0 -102 4 -190 8
-194 13 -13 24 14 31 76 4 35 12 60 20 63 8 3 57 9 110 13 53 4 99 11 102 16
3 4 -9 14 -26 22 -27 11 -42 11 -94 0 -95 -21 -106 -19 -106 15 0 28 0 28 80
35 83 8 104 18 71 35 -13 7 -36 8 -72 1 -74 -14 -79 -13 -75 13 3 12 5 25 5
29 1 3 29 9 64 13 91 10 101 13 85 32 -9 12 -24 14 -64 9 -29 -3 -59 -9 -68
-12 -12 -5 -16 0 -16 19 0 19 -7 28 -30 35 -18 7 -32 7 -35 1z"/>
<path d="M375 441 c-3 -6 -1 -19 5 -30 12 -24 13 -34 1 -27 -8 5 -46 0 -139
-20 -13 -3 -20 -9 -16 -16 5 -7 32 -9 85 -4 l79 6 0 -26 c0 -19 -4 -25 -15
-20 -14 5 -124 -12 -135 -21 -14 -12 33 -21 87 -16 59 6 63 5 63 -15 0 -16 -9
-24 -37 -31 -88 -23 -139 -32 -160 -26 -30 7 -29 -6 1 -34 l25 -23 77 31 c42
17 78 30 80 28 8 -8 -40 -93 -68 -119 -31 -29 -31 -30 -8 -23 41 12 86 51 104
90 19 38 33 122 37 215 3 52 1 55 -28 73 -20 11 -34 14 -38 8z"/>
</g>
</svg>
