<?xml version="1.0" standalone="no"?>
<!DOCTYPE svg PUBLIC "-//W3C//DTD SVG 20010904//EN"
 "http://www.w3.org/TR/2001/REC-SVG-20010904/DTD/svg10.dtd">
<svg version="1.0" xmlns="http://www.w3.org/2000/svg"
 width="96.000000pt" height="68.000000pt" viewBox="0 0 96.000000 68.000000"
 preserveAspectRatio="xMidYMid meet">
<metadata>
Created by potrace 1.16, written by Peter Selinger 2001-2019
</metadata>
<g transform="translate(0.000000,68.000000) scale(0.100000,-0.100000)"
fill="#000000" stroke="none">
<path d="M475 600 c17 -33 36 -38 54 -16 10 11 7 17 -11 30 -12 9 -31 16 -40
16 -17 0 -17 -2 -3 -30z"/>
<path d="M495 559 c-93 -10 -192 -18 -220 -19 -48 -1 -49 -2 -28 -17 58 -40 5
-267 -98 -420 -27 -40 -45 -73 -40 -73 4 0 30 22 57 48 78 77 117 174 145 358
l12 82 36 6 c20 3 86 8 146 11 157 8 219 16 209 25 -19 17 -54 17 -219 -1z"/>
</g>
</svg>
