<?xml version="1.0" standalone="no"?>
<!DOCTYPE svg PUBLIC "-//W3C//DTD SVG 20010904//EN"
 "http://www.w3.org/TR/2001/REC-SVG-20010904/DTD/svg10.dtd">
<svg version="1.0" xmlns="http://www.w3.org/2000/svg"
 width="96.000000pt" height="68.000000pt" viewBox="0 0 96.000000 68.000000"
 preserveAspectRatio="xMidYMid meet">
<metadata>
Created by potrace 1.16, written by Peter Selinger 2001-2019
</metadata>
<g transform="translate(0.000000,68.000000) scale(0.100000,-0.100000)"
fill="#000000" stroke="none">
<path d="M410 622 c0 -5 9 -17 20 -27 11 -10 20 -21 20 -25 0 -4 -59 -13 -130
-20 -72 -7 -133 -16 -135 -21 -10 -15 21 -23 87 -21 38 1 68 -2 68 -6 0 -18
-36 -56 -78 -83 -47 -29 -45 -37 4 -19 34 13 50 0 75 -57 10 -24 23 -43 29
-43 49 0 -61 -84 -172 -132 -103 -43 -67 -42 56 3 l79 29 -6 -81 c-4 -64 -2
-81 9 -86 12 -4 154 80 154 92 0 2 -21 -2 -47 -10 -27 -8 -51 -15 -55 -15 -5
0 -8 23 -8 50 0 28 -4 50 -10 50 -22 0 -8 19 36 48 27 17 42 32 35 36 -26 17
-7 26 54 26 39 0 68 5 74 13 68 81 66 78 46 93 -24 17 -35 17 -175 -1 -69 -9
-118 -11 -123 -6 -6 6 7 20 32 36 42 28 49 43 30 62 -7 7 11 12 62 17 77 8 89
3 89 -41 0 -17 9 -25 38 -33 46 -14 144 -9 149 7 3 9 -18 13 -74 15 -76 3 -78
4 -78 28 0 21 6 26 40 32 22 4 61 7 87 7 58 1 69 15 28 36 -26 13 -43 14 -106
5 -109 -15 -112 -14 -116 17 -3 24 -8 28 -45 31 -24 2 -43 -1 -43 -6z m143
-254 c-5 -25 -9 -26 -86 -33 -71 -7 -82 -5 -94 11 -26 35 -16 42 80 51 50 5
95 6 99 3 3 -3 4 -17 1 -32z"/>
<path d="M616 282 c-4 -11 -17 -29 -31 -42 l-24 -22 -44 21 c-24 11 -46 21
-50 21 -14 0 -6 -19 11 -24 9 -3 33 -21 52 -39 19 -18 60 -52 90 -76 54 -43
54 -43 126 -39 110 5 116 22 14 39 -62 10 -161 51 -180 74 -7 8 6 20 45 40 30
15 55 30 55 33 0 8 -34 31 -47 32 -6 0 -14 -8 -17 -18z"/>
</g>
</svg>
