<?xml version="1.0" standalone="no"?>
<!DOCTYPE svg PUBLIC "-//W3C//DTD SVG 20010904//EN"
 "http://www.w3.org/TR/2001/REC-SVG-20010904/DTD/svg10.dtd">
<svg version="1.0" xmlns="http://www.w3.org/2000/svg"
 width="90.000000pt" height="92.000000pt" viewBox="0 0 90.000000 92.000000"
 preserveAspectRatio="xMidYMid meet">
<metadata>
Created by potrace 1.16, written by Peter Selinger 2001-2019
</metadata>
<g transform="translate(0.000000,92.000000) scale(0.100000,-0.100000)"
fill="#000000" stroke="none">
<path d="M364 843 c4 -16 20 -49 35 -74 l29 -47 -111 -7 c-95 -6 -111 -5 -119
9 -15 27 -25 18 -48 -44 -12 -33 -27 -63 -31 -66 -14 -8 -10 -50 5 -63 20 -17
50 18 67 75 11 37 17 44 39 44 14 0 88 9 165 19 190 26 295 33 295 21 0 -6
-11 -28 -25 -50 -14 -22 -25 -42 -25 -44 0 -3 19 1 43 9 23 8 61 19 85 25 23
6 42 17 42 24 0 21 -78 86 -103 86 -12 0 -67 -7 -122 -15 -121 -18 -118 -18
-110 -4 4 6 4 26 1 44 -5 27 -16 40 -50 60 -56 33 -70 32 -62 -2z"/>
<path d="M505 630 c-3 -6 -3 -29 0 -53 13 -85 -43 -232 -115 -302 l-39 -38
-20 34 c-12 19 -26 52 -31 74 -19 75 -25 90 -43 93 -15 3 -16 0 -7 -24 6 -14
15 -47 21 -71 5 -25 18 -63 29 -86 14 -28 17 -44 10 -53 -12 -13 -174 -94
-190 -94 -5 0 -10 -4 -10 -10 0 -13 -7 -14 80 11 41 11 95 31 119 45 l43 24
29 -25 c39 -32 89 -45 179 -45 59 0 86 5 120 23 61 30 64 55 10 91 -23 15 -60
44 -82 64 -29 26 -39 31 -33 17 37 -90 40 -106 25 -115 -21 -13 -105 -23 -132
-15 -13 3 -35 11 -50 17 l-28 10 46 51 c25 28 55 69 66 91 24 46 89 214 91
235 1 8 -13 25 -32 38 -38 26 -47 28 -56 13z"/>
<path d="M310 550 c0 -14 44 -82 64 -99 23 -19 46 -6 46 27 0 33 -21 54 -69
71 -41 13 -41 13 -41 1z"/>
<path d="M650 399 c44 -62 120 -129 146 -129 21 0 24 4 24 38 0 20 -6 44 -13
53 -18 24 -89 58 -138 65 l-43 7 24 -34z"/>
<path d="M126 342 c-42 -86 -45 -125 -9 -130 24 -4 42 23 63 95 12 40 7 113
-8 113 -5 0 -25 -35 -46 -78z"/>
</g>
</svg>
