<?xml version="1.0" standalone="no"?>
<!DOCTYPE svg PUBLIC "-//W3C//DTD SVG 20010904//EN"
 "http://www.w3.org/TR/2001/REC-SVG-20010904/DTD/svg10.dtd">
<svg version="1.0" xmlns="http://www.w3.org/2000/svg"
 width="96.000000pt" height="68.000000pt" viewBox="0 0 96.000000 68.000000"
 preserveAspectRatio="xMidYMid meet">
<metadata>
Created by potrace 1.16, written by Peter Selinger 2001-2019
</metadata>
<g transform="translate(0.000000,68.000000) scale(0.100000,-0.100000)"
fill="#000000" stroke="none">
<path d="M355 439 c29 -51 75 -76 75 -40 0 23 -16 37 -54 47 -23 5 -27 4 -21
-7z"/>
<path d="M395 341 c-3 -5 -19 -12 -35 -16 -43 -9 -50 -27 -9 -23 33 3 34 2 31
-29 -2 -18 1 -33 6 -33 10 0 32 -44 32 -64 0 -9 -19 -16 -50 -20 -27 -4 -50
-11 -50 -16 0 -12 9 -13 76 -10 37 1 85 -9 163 -34 129 -42 146 -43 226 -12
l59 23 -63 6 c-35 4 -87 7 -115 7 -28 0 -91 7 -139 16 l-88 16 6 29 c5 23 1
34 -21 54 l-27 25 29 31 c28 30 28 31 10 45 -23 16 -33 18 -41 5z"/>
</g>
</svg>
