<?xml version="1.0" standalone="no"?>
<!DOCTYPE svg PUBLIC "-//W3C//DTD SVG 20010904//EN"
 "http://www.w3.org/TR/2001/REC-SVG-20010904/DTD/svg10.dtd">
<svg version="1.0" xmlns="http://www.w3.org/2000/svg"
 width="96.000000pt" height="68.000000pt" viewBox="0 0 96.000000 68.000000"
 preserveAspectRatio="xMidYMid meet">
<metadata>
Created by potrace 1.16, written by Peter Selinger 2001-2019
</metadata>
<g transform="translate(0.000000,68.000000) scale(0.100000,-0.100000)"
fill="#000000" stroke="none">
<path d="M639 476 c-4 -4 -64 -11 -190 -22 l-66 -7 19 -38 c10 -21 18 -42 18
-47 0 -5 28 -7 63 -5 34 2 88 5 120 6 56 3 61 5 95 46 34 42 35 44 17 57 -17
13 -66 19 -76 10z m21 -37 c0 -31 -22 -49 -60 -49 -38 0 -40 2 -40 30 0 29 1
30 50 30 29 0 50 -5 50 -11z m-140 -29 c0 -28 -2 -30 -39 -30 -32 0 -41 4 -46
21 -9 26 8 39 53 39 29 0 32 -3 32 -30z"/>
</g>
</svg>
