<?xml version="1.0" standalone="no"?>
<!DOCTYPE svg PUBLIC "-//W3C//DTD SVG 20010904//EN"
 "http://www.w3.org/TR/2001/REC-SVG-20010904/DTD/svg10.dtd">
<svg version="1.0" xmlns="http://www.w3.org/2000/svg"
 width="96.000000pt" height="68.000000pt" viewBox="0 0 96.000000 68.000000"
 preserveAspectRatio="xMidYMid meet">
<metadata>
Created by potrace 1.16, written by Peter Selinger 2001-2019
</metadata>
<g transform="translate(0.000000,68.000000) scale(0.100000,-0.100000)"
fill="#000000" stroke="none">
<path d="M312 568 l3 -72 -59 -18 c-82 -25 -83 -32 -3 -24 55 5 67 4 67 -8 0
-15 -12 -20 -72 -31 -56 -9 -46 -25 16 -25 47 0 56 -3 61 -21 4 -11 4 -23 2
-26 -3 -3 -50 -11 -103 -19 -54 -8 -100 -17 -102 -19 -2 -2 5 -8 16 -14 14 -7
35 -8 69 -1 26 6 64 13 83 17 l35 6 -55 -53 c-30 -28 -75 -64 -99 -78 -24 -14
-40 -27 -34 -29 18 -6 81 24 134 63 48 35 49 35 48 12 0 -12 -4 -45 -8 -72 -9
-51 2 -116 20 -116 18 0 29 52 29 142 l0 90 34 -26 c38 -29 66 -34 66 -11 0 8
-21 22 -50 32 -75 27 -68 48 21 63 51 9 68 15 60 23 -8 8 -25 8 -61 1 -58 -12
-71 -7 -63 24 4 16 17 25 49 33 24 6 44 15 44 20 0 12 -46 22 -70 16 -15 -4
-20 0 -20 13 0 20 11 25 78 35 49 8 56 29 16 47 -21 10 -31 9 -55 -4 l-28 -16
-3 46 c-3 41 -6 47 -36 59 l-32 13 2 -72z"/>
<path d="M685 500 c-22 -5 -68 -9 -103 -9 l-62 -1 7 -27 c5 -16 7 -77 5 -138
-2 -60 -4 -137 -5 -170 -2 -50 1 -60 16 -63 13 -3 17 3 17 26 l0 30 119 7 120
7 -1 29 c-1 15 6 39 15 53 23 34 21 42 -11 55 -21 9 -45 9 -93 2 -35 -6 -81
-11 -102 -11 -37 0 -38 1 -35 33 l3 32 98 9 c84 7 97 11 97 27 0 10 8 34 17
54 11 23 13 39 7 45 -15 15 -65 19 -109 10z m40 -57 c-4 -21 -8 -40 -10 -41
-7 -7 -81 -22 -112 -22 -31 0 -33 2 -33 33 0 55 13 62 119 66 l43 1 -7 -37z
m22 -204 c-3 -22 -7 -42 -9 -44 -2 -2 -42 -7 -88 -10 l-85 -7 3 45 4 46 51 4
c29 2 69 4 91 5 l39 2 -6 -41z"/>
</g>
</svg>
