<?xml version="1.0" standalone="no"?>
<!DOCTYPE svg PUBLIC "-//W3C//DTD SVG 20010904//EN"
 "http://www.w3.org/TR/2001/REC-SVG-20010904/DTD/svg10.dtd">
<svg version="1.0" xmlns="http://www.w3.org/2000/svg"
 width="96.000000pt" height="68.000000pt" viewBox="0 0 96.000000 68.000000"
 preserveAspectRatio="xMidYMid meet">
<metadata>
Created by potrace 1.16, written by Peter Selinger 2001-2019
</metadata>
<g transform="translate(0.000000,68.000000) scale(0.100000,-0.100000)"
fill="#000000" stroke="none">
<path d="M611 583 l-63 -4 6 -31 c3 -17 6 -57 6 -90 0 -53 2 -59 17 -53 10 3
47 9 82 12 l64 6 -5 -167 c-3 -93 -10 -172 -16 -178 -7 -7 -17 -6 -32 2 -35
19 -35 4 2 -29 77 -70 86 -44 89 268 3 276 4 272 -56 269 -16 -1 -59 -3 -94
-5z m99 -43 c0 -28 -3 -30 -37 -30 -21 0 -48 -3 -60 -6 -20 -6 -23 -3 -23 24
0 27 4 31 33 35 83 10 87 9 87 -23z m0 -69 c0 -19 -34 -31 -91 -31 -22 0 -29
5 -29 19 0 21 18 27 83 30 30 1 37 -3 37 -18z"/>
<path d="M325 560 c-16 -4 -52 -8 -78 -9 l-48 -1 7 -37 c13 -64 9 -284 -5
-350 -15 -67 -9 -113 14 -113 8 0 16 1 16 3 1 1 7 74 13 162 l11 160 65 5 65
5 15 57 c8 31 18 60 23 64 16 16 6 45 -19 54 -28 11 -36 11 -79 0z m35 -49 c0
-14 -11 -21 -50 -28 -49 -10 -51 -9 -48 11 4 28 16 36 61 36 30 0 37 -4 37
-19z m-8 -76 c-4 -22 -9 -25 -48 -25 -37 0 -44 3 -44 19 0 19 16 25 76 30 17
1 20 -3 16 -24z"/>
<path d="M575 380 c-11 -5 -34 -9 -51 -9 -30 -1 -31 -2 -21 -33 10 -32 12 -33
57 -30 41 3 48 7 58 34 17 46 3 58 -43 38z m15 -29 c0 -12 -9 -20 -27 -24 -32
-6 -43 -1 -43 18 0 12 18 19 58 24 6 0 12 -7 12 -18z"/>
<path d="M408 375 c-2 -3 -23 -6 -45 -7 -40 -1 -40 -1 -27 -27 8 -14 14 -32
14 -40 0 -8 6 -11 16 -7 9 3 30 6 48 6 26 0 34 5 43 31 7 18 10 36 7 40 -6 10
-47 12 -56 4z m22 -28 c0 -18 -21 -37 -41 -37 -22 0 -33 16 -25 35 7 19 66 20
66 2z"/>
<path d="M485 280 c-27 -5 -72 -9 -98 -9 -46 -1 -47 -2 -36 -23 7 -13 15 -36
19 -53 5 -27 10 -30 44 -30 22 0 41 -5 43 -11 4 -13 -41 -24 -96 -24 -20 0
-42 -4 -49 -9 -25 -15 13 -21 75 -11 32 6 61 10 66 10 4 0 7 -18 7 -39 0 -73
23 -59 32 19 3 25 5 25 91 25 63 0 87 3 87 13 0 9 -25 12 -92 12 -66 0 -89 3
-81 11 6 6 30 11 54 12 41 2 43 4 62 50 17 41 18 50 6 58 -16 10 -63 10 -134
-1z m91 -32 c-3 -13 -6 -28 -6 -34 0 -7 -16 -14 -35 -16 -24 -3 -35 0 -35 9 0
8 12 13 30 13 17 0 30 5 30 10 0 6 -13 10 -30 10 -20 0 -30 5 -30 15 0 11 11
15 41 15 38 0 41 -2 35 -22z m-116 -2 c0 -16 -60 -30 -73 -17 -16 16 3 31 39
31 22 0 34 -5 34 -14z m0 -46 c0 -5 -6 -10 -12 -10 -7 0 -23 -3 -35 -6 -17 -5
-23 -2 -23 10 0 12 9 16 35 16 19 0 35 -4 35 -10z"/>
</g>
</svg>
