<?xml version="1.0" standalone="no"?>
<!DOCTYPE svg PUBLIC "-//W3C//DTD SVG 20010904//EN"
 "http://www.w3.org/TR/2001/REC-SVG-20010904/DTD/svg10.dtd">
<svg version="1.0" xmlns="http://www.w3.org/2000/svg"
 width="90.000000pt" height="92.000000pt" viewBox="0 0 90.000000 92.000000"
 preserveAspectRatio="xMidYMid meet">
<metadata>
Created by potrace 1.16, written by Peter Selinger 2001-2019
</metadata>
<g transform="translate(0.000000,92.000000) scale(0.100000,-0.100000)"
fill="#000000" stroke="none">
<path d="M197 833 c-4 -3 -7 -22 -7 -40 0 -52 -54 -172 -126 -280 -36 -52 -62
-98 -59 -102 4 -3 32 21 64 54 53 55 61 60 92 55 31 -5 34 -8 37 -42 3 -35 1
-37 -35 -47 -21 -6 -46 -11 -56 -11 -11 0 -17 -5 -14 -12 3 -9 22 -13 55 -12
50 2 52 1 57 -30 4 -17 5 -56 3 -86 l-3 -54 -65 -17 c-36 -10 -80 -15 -97 -12
-37 6 -41 -4 -16 -34 35 -39 52 -42 97 -17 34 19 243 114 251 114 1 0 0 -13
-3 -29 -4 -32 24 -95 38 -86 6 4 10 12 10 19 0 8 43 16 148 24 134 12 148 11
157 -4 21 -34 47 -64 56 -64 5 0 18 15 29 33 19 30 20 44 14 257 -3 135 -2
245 4 275 12 58 4 78 -37 100 -25 13 -35 13 -78 1 -90 -26 -246 -48 -297 -41
-47 6 -48 5 -41 -17 11 -31 18 -318 10 -395 -5 -48 -10 -61 -21 -56 -8 3 -32
-2 -54 -11 -22 -9 -45 -16 -50 -16 -12 0 -13 139 -2 156 4 6 26 15 49 19 73
12 64 39 -12 37 l-42 0 6 36 c5 30 12 38 39 46 33 9 43 30 18 39 -8 3 -42 -3
-76 -14 -102 -32 -102 -32 -51 75 l46 93 48 -46 c39 -38 49 -43 57 -31 19 29
6 55 -40 78 -29 14 -45 29 -45 41 0 18 -31 61 -45 61 -4 0 -10 -3 -13 -7z
m570 -338 c2 -132 -1 -246 -5 -253 -7 -10 -14 -11 -34 -2 -19 9 -48 8 -125 -4
-55 -9 -120 -16 -143 -16 -42 0 -42 0 -36 31 3 17 6 125 6 239 l0 208 33 8
c72 16 205 32 252 31 l50 -2 2 -240z"/>
<path d="M568 641 c4 -54 3 -59 -19 -64 -13 -4 -36 -7 -51 -7 -16 0 -28 -4
-28 -9 0 -12 26 -21 61 -21 28 0 29 -1 29 -50 l0 -50 -41 0 c-35 0 -40 -3 -34
-17 3 -10 11 -40 16 -68 15 -75 18 -80 31 -67 7 7 26 12 44 12 54 0 96 12 90
25 -2 7 8 34 24 59 l29 45 -26 21 c-15 11 -34 18 -45 15 -10 -3 -26 -7 -37
-10 -17 -5 -18 -2 -10 37 4 24 8 46 9 50 0 4 20 10 43 13 24 4 50 11 58 16 24
15 -10 31 -53 24 -42 -6 -49 7 -27 47 10 18 8 25 -11 40 -12 10 -30 18 -39 18
-15 0 -17 -8 -13 -59z m68 -253 c-4 -23 -8 -44 -10 -45 -1 -2 -24 -6 -49 -9
l-47 -7 0 42 c0 47 17 59 79 60 l34 1 -7 -42z"/>
<path d="M314 373 c-3 -10 -12 -33 -20 -50 -17 -40 -9 -41 36 -3 29 24 33 32
24 46 -15 25 -33 29 -40 7z"/>
<path d="M102 309 c25 -45 43 -58 60 -41 16 16 -1 51 -32 67 -46 24 -53 18
-28 -26z"/>
</g>
</svg>
