<?xml version="1.0" standalone="no"?>
<!DOCTYPE svg PUBLIC "-//W3C//DTD SVG 20010904//EN"
 "http://www.w3.org/TR/2001/REC-SVG-20010904/DTD/svg10.dtd">
<svg version="1.0" xmlns="http://www.w3.org/2000/svg"
 width="96.000000pt" height="68.000000pt" viewBox="0 0 96.000000 68.000000"
 preserveAspectRatio="xMidYMid meet">
<metadata>
Created by potrace 1.16, written by Peter Selinger 2001-2019
</metadata>
<g transform="translate(0.000000,68.000000) scale(0.100000,-0.100000)"
fill="#000000" stroke="none">
<path d="M264 530 c-8 -50 -59 -136 -126 -213 -28 -32 -48 -61 -44 -64 3 -4
33 15 67 41 68 53 111 60 117 19 3 -23 -7 -28 -67 -35 -14 -2 -26 -9 -29 -15
-2 -9 11 -13 47 -13 l51 0 0 -55 c0 -51 -2 -56 -27 -66 -16 -6 -53 -12 -83
-13 -60 -3 -73 -16 -38 -40 31 -22 39 -21 152 23 143 55 151 56 153 25 2 -35
18 -51 36 -36 7 6 67 15 133 20 l119 9 31 -29 c34 -32 59 -30 70 5 4 12 8 113
8 224 l1 202 -23 11 c-18 8 -62 5 -175 -10 -84 -12 -161 -20 -172 -18 -19 4
-20 0 -18 -143 2 -171 -1 -187 -30 -185 -12 1 -26 -1 -32 -4 -5 -4 -20 -10
-33 -13 -22 -5 -23 -3 -20 51 l3 56 43 9 c23 4 42 12 42 17 0 13 -30 20 -56
14 -20 -5 -24 -3 -24 18 0 19 7 27 31 34 17 5 30 14 30 19 -2 12 -47 12 -114
1 l-49 -9 39 62 c21 33 42 59 48 57 5 -2 9 -10 7 -17 -2 -8 0 -11 4 -6 4 4 15
0 25 -9 22 -19 53 -15 57 9 3 13 -9 23 -42 38 -26 11 -44 24 -41 29 8 12 -23
40 -46 40 -14 0 -20 -9 -25 -40z m520 -76 c8 -60 8 -208 0 -267 l-7 -45 -46 1
c-25 1 -92 -2 -148 -7 l-103 -9 5 119 c3 66 5 144 5 175 l0 57 83 10 c45 5
110 10 143 11 l61 1 7 -46z"/>
<path d="M605 428 c0 -43 0 -43 -37 -46 -48 -4 -50 -22 -3 -22 33 0 35 -2 35
-34 0 -28 -4 -35 -25 -40 -14 -4 -30 -4 -35 -1 -13 8 -13 -10 -1 -33 6 -9 13
-30 16 -46 5 -23 10 -27 28 -22 12 3 44 6 70 6 27 0 46 4 43 8 -3 5 4 23 15
41 27 45 19 61 -31 61 -40 0 -41 1 -38 32 3 29 7 33 46 41 53 10 55 27 2 27
-39 0 -39 1 -28 25 13 30 11 33 -28 41 -28 5 -29 5 -29 -38z m65 -170 c0 -36
-12 -45 -55 -44 -36 1 -40 4 -43 28 -3 29 7 35 66 37 27 1 32 -3 32 -21z"/>
<path d="M366 214 c-9 -20 -15 -39 -12 -42 3 -2 22 7 41 22 29 22 34 31 24 42
-19 23 -34 16 -53 -22z"/>
<path d="M195 185 c28 -36 46 -41 56 -15 10 22 -20 50 -53 50 l-29 0 26 -35z"/>
</g>
</svg>
