<?xml version="1.0" standalone="no"?>
<!DOCTYPE svg PUBLIC "-//W3C//DTD SVG 20010904//EN"
 "http://www.w3.org/TR/2001/REC-SVG-20010904/DTD/svg10.dtd">
<svg version="1.0" xmlns="http://www.w3.org/2000/svg"
 width="96.000000pt" height="68.000000pt" viewBox="0 0 96.000000 68.000000"
 preserveAspectRatio="xMidYMid meet">
<metadata>
Created by potrace 1.16, written by Peter Selinger 2001-2019
</metadata>
<g transform="translate(0.000000,68.000000) scale(0.100000,-0.100000)"
fill="#000000" stroke="none">
<path d="M585 367 c0 -23 4 -47 8 -54 4 -6 4 -18 1 -27 -3 -9 -1 -16 6 -16 6
0 4 -7 -6 -17 -18 -19 -22 -20 -66 -22 -16 0 -28 -5 -28 -10 0 -6 12 -6 29 -1
16 4 32 6 35 3 3 -3 13 -2 23 2 10 5 22 9 27 9 5 1 10 24 10 51 1 47 2 50 27
48 16 -1 26 4 26 12 0 10 -9 12 -27 8 -25 -5 -27 -3 -23 29 2 24 1 28 -5 14
-8 -18 -9 -18 -15 -3 -11 30 -22 18 -22 -26z m22 -39 c-3 -8 -6 -5 -6 6 -1 11
2 17 5 13 3 -3 4 -12 1 -19z"/>
<path d="M555 330 c3 -5 8 -10 11 -10 2 0 4 5 4 10 0 6 -5 10 -11 10 -5 0 -7
-4 -4 -10z"/>
<path d="M518 323 c7 -3 16 -2 19 1 4 3 -2 6 -13 5 -11 0 -14 -3 -6 -6z"/>
<path d="M687 250 c-57 -11 -53 -17 13 -17 32 0 57 4 54 8 -2 5 -12 5 -21 2
-11 -4 -14 -3 -9 5 4 7 6 11 4 11 -2 -1 -20 -5 -41 -9z"/>
</g>
</svg>
