<?xml version="1.0" standalone="no"?>
<!DOCTYPE svg PUBLIC "-//W3C//DTD SVG 20010904//EN"
 "http://www.w3.org/TR/2001/REC-SVG-20010904/DTD/svg10.dtd">
<svg version="1.0" xmlns="http://www.w3.org/2000/svg"
 width="96.000000pt" height="68.000000pt" viewBox="0 0 96.000000 68.000000"
 preserveAspectRatio="xMidYMid meet">
<metadata>
Created by potrace 1.16, written by Peter Selinger 2001-2019
</metadata>
<g transform="translate(0.000000,68.000000) scale(0.100000,-0.100000)"
fill="#000000" stroke="none">
<path d="M580 590 c0 -22 -41 -108 -72 -153 -25 -35 -20 -42 13 -19 47 33 195
54 205 28 6 -17 -23 -145 -37 -163 -7 -8 -21 -10 -37 -6 l-26 6 23 -32 c15
-20 29 -30 38 -27 8 3 16 6 19 6 10 0 43 81 54 134 7 33 17 68 24 79 17 28
-18 50 -69 43 -22 -4 -62 -9 -89 -13 l-50 -6 20 34 c11 19 27 44 35 56 12 20
11 24 -6 37 -28 21 -45 20 -45 -4z"/>
</g>
</svg>
