<?xml version="1.0" standalone="no"?>
<!DOCTYPE svg PUBLIC "-//W3C//DTD SVG 20010904//EN"
 "http://www.w3.org/TR/2001/REC-SVG-20010904/DTD/svg10.dtd">
<svg version="1.0" xmlns="http://www.w3.org/2000/svg"
 width="96.000000pt" height="68.000000pt" viewBox="0 0 96.000000 68.000000"
 preserveAspectRatio="xMidYMid meet">
<metadata>
Created by potrace 1.16, written by Peter Selinger 2001-2019
</metadata>
<g transform="translate(0.000000,68.000000) scale(0.100000,-0.100000)"
fill="#000000" stroke="none">
<path d="M500 345 c-36 -8 -105 -17 -154 -20 -56 -5 -84 -10 -75 -15 8 -5 77
-4 152 2 75 6 140 9 143 6 3 -4 2 -26 -1 -51 l-7 -44 -121 -12 c-229 -23 -224
-37 9 -26 154 7 154 7 154 31 0 13 10 45 21 70 13 27 18 49 13 54 -17 17 -67
18 -134 5z"/>
</g>
</svg>
