<?xml version="1.0" standalone="no"?>
<!DOCTYPE svg PUBLIC "-//W3C//DTD SVG 20010904//EN"
 "http://www.w3.org/TR/2001/REC-SVG-20010904/DTD/svg10.dtd">
<svg version="1.0" xmlns="http://www.w3.org/2000/svg"
 width="96.000000pt" height="68.000000pt" viewBox="0 0 96.000000 68.000000"
 preserveAspectRatio="xMidYMid meet">
<metadata>
Created by potrace 1.16, written by Peter Selinger 2001-2019
</metadata>
<g transform="translate(0.000000,68.000000) scale(0.100000,-0.100000)"
fill="#000000" stroke="none">
<path d="M532 582 c-6 -21 -28 -57 -48 -80 -49 -57 -39 -71 21 -29 41 28 64
35 120 41 114 11 128 15 113 33 -10 12 -25 14 -71 8 -32 -3 -66 -9 -75 -13
-15 -5 -15 -4 1 12 22 23 22 32 -5 50 -34 24 -44 20 -56 -22z"/>
<path d="M280 546 c-11 -25 -39 -60 -61 -79 -21 -19 -39 -37 -39 -41 0 -15 30
-3 74 28 38 27 58 34 99 35 62 1 109 13 114 28 6 16 -40 24 -78 13 -49 -14
-53 -13 -35 15 15 23 15 25 -3 35 -34 18 -49 11 -71 -34z"/>
<path d="M560 484 c0 -8 5 -14 11 -14 5 0 8 -4 5 -9 -6 -10 37 -31 64 -31 23
0 26 22 5 40 -8 6 -30 16 -50 20 -27 6 -35 5 -35 -6z"/>
<path d="M320 462 c0 -12 44 -52 57 -52 20 0 25 34 7 47 -20 14 -64 18 -64 5z"/>
<path d="M557 423 c-4 -3 -7 -19 -7 -34 0 -23 -5 -30 -27 -35 -47 -10 -49 -12
-14 -13 30 -1 33 -3 29 -26 -3 -14 -1 -25 3 -25 5 0 16 11 25 25 14 22 24 25
70 25 30 0 54 4 54 10 0 13 -45 24 -71 17 -18 -5 -20 -2 -14 20 8 33 -26 58
-48 36z"/>
<path d="M325 392 c20 -49 19 -50 -41 -58 -53 -6 -56 -8 -38 -21 18 -13 48
-13 86 2 13 5 20 0 28 -20 12 -32 34 -23 26 11 -5 20 -1 25 26 33 l33 9 -32 1
c-26 1 -33 5 -33 20 0 22 -9 30 -41 36 -16 3 -19 1 -14 -13z"/>
<path d="M420 277 c0 -49 -17 -56 -143 -63 -70 -4 -114 -11 -109 -16 12 -12
61 -13 147 -4 l70 8 -37 -36 c-20 -20 -69 -54 -110 -76 -107 -58 -56 -48 80
17 18 9 34 14 36 12 2 -2 10 -26 18 -54 l14 -50 82 4 c45 1 90 4 99 6 10 2 22
4 26 4 5 1 6 5 3 10 -3 5 5 25 19 45 14 20 25 41 25 47 0 20 -50 28 -122 19
-40 -5 -91 -10 -113 -10 l-40 0 36 36 35 35 174 4 c95 3 175 6 177 8 2 2 -4
10 -12 17 -13 10 -40 11 -143 1 -164 -15 -179 -14 -164 1 19 19 14 34 -13 46
-34 16 -35 16 -35 -11z m145 -185 c-7 -44 -24 -52 -110 -52 -45 0 -55 10 -55
55 0 21 6 24 53 29 84 9 112 12 115 9 2 -1 1 -19 -3 -41z"/>
</g>
</svg>
