<?xml version="1.0" standalone="no"?>
<!DOCTYPE svg PUBLIC "-//W3C//DTD SVG 20010904//EN"
 "http://www.w3.org/TR/2001/REC-SVG-20010904/DTD/svg10.dtd">
<svg version="1.0" xmlns="http://www.w3.org/2000/svg"
 width="90.000000pt" height="92.000000pt" viewBox="0 0 90.000000 92.000000"
 preserveAspectRatio="xMidYMid meet">
<metadata>
Created by potrace 1.16, written by Peter Selinger 2001-2019
</metadata>
<g transform="translate(0.000000,92.000000) scale(0.100000,-0.100000)"
fill="#000000" stroke="none">
<path d="M527 894 c-2 -3 -1 -24 4 -47 4 -23 8 -70 9 -103 l0 -61 -92 -12
c-51 -7 -94 -14 -96 -16 -2 -2 6 -9 18 -15 20 -11 104 -8 150 5 13 4 15 -9 12
-83 -3 -92 7 -127 29 -105 8 8 15 50 17 102 5 103 2 101 114 101 67 0 91 11
69 33 -13 13 -68 15 -135 4 l-49 -9 5 96 5 95 -28 10 c-15 5 -29 7 -32 5z"/>
<path d="M669 808 c-12 -24 -28 -51 -37 -60 -8 -10 -12 -18 -9 -18 13 0 127
63 127 70 0 7 -27 32 -47 44 -8 4 -20 -9 -34 -36z"/>
<path d="M400 785 c0 -12 23 -50 43 -72 15 -17 23 -20 34 -12 20 17 16 47 -9
63 -28 17 -68 30 -68 21z"/>
<path d="M225 734 c-27 -7 -78 -17 -113 -20 -71 -8 -80 -27 -13 -32 l42 -3 -7
-37 c-9 -52 -57 -166 -99 -236 -46 -75 -40 -93 11 -38 22 23 43 42 46 42 3 0
9 -21 13 -46 11 -75 14 -87 25 -98 8 -8 13 -7 20 3 5 9 31 16 68 19 55 4 59 6
54 27 -2 13 6 44 17 70 27 62 26 73 -6 86 -19 7 -38 6 -71 -6 -25 -8 -58 -15
-73 -15 l-28 0 41 88 c23 48 42 102 42 120 0 27 4 32 24 32 36 0 112 21 112
31 0 8 -46 32 -53 28 -1 0 -24 -7 -52 -15z m15 -331 c0 -55 -11 -72 -47 -79
-18 -3 -36 -4 -38 -2 -3 3 -8 25 -11 50 -7 51 -3 54 64 57 29 1 32 -2 32 -26z"/>
<path d="M625 612 c35 -35 121 -102 131 -102 17 0 26 28 14 50 -10 19 -62 43
-120 55 -23 5 -32 4 -25 -3z"/>
<path d="M431 576 c-12 -19 -37 -46 -57 -61 -46 -35 -37 -43 19 -16 54 26 102
74 94 95 -10 26 -34 18 -56 -18z"/>
<path d="M674 466 c8 -49 0 -56 -63 -56 -36 0 -36 -1 -36 -38 0 -21 -7 -57
-14 -79 -18 -56 -10 -76 29 -69 16 3 44 9 60 12 l30 6 0 -96 c0 -52 4 -97 9
-100 12 -8 31 81 31 144 l0 50 64 0 c70 0 92 14 60 37 -14 10 -34 13 -71 8
l-53 -6 0 55 0 55 45 7 c25 3 48 10 50 15 9 14 -33 30 -60 23 -23 -6 -25 -3
-25 24 0 25 -6 32 -31 41 l-31 11 6 -44z m6 -141 l0 -55 -41 0 c-39 0 -41 1
-35 26 4 15 10 39 13 55 4 24 11 29 34 29 28 0 29 -1 29 -55z"/>
<path d="M377 453 c-2 -5 -7 -24 -11 -43 -3 -19 -24 -59 -47 -89 -22 -29 -39
-55 -37 -57 2 -2 20 8 40 21 l36 24 27 -35 26 -34 -36 -50 c-20 -27 -50 -59
-66 -71 -41 -29 -30 -35 19 -10 50 26 123 106 168 187 20 35 40 67 45 70 12 7
-5 30 -32 44 -12 7 -29 5 -53 -5 -36 -15 -46 -10 -23 14 10 10 8 15 -7 27 -22
15 -42 18 -49 7z m93 -87 c0 -6 -30 -76 -33 -76 -2 0 -19 8 -39 18 -29 15 -33
21 -24 34 6 9 20 18 31 21 25 6 65 8 65 3z"/>
</g>
</svg>
