<?xml version="1.0" standalone="no"?>
<!DOCTYPE svg PUBLIC "-//W3C//DTD SVG 20010904//EN"
 "http://www.w3.org/TR/2001/REC-SVG-20010904/DTD/svg10.dtd">
<svg version="1.0" xmlns="http://www.w3.org/2000/svg"
 width="90.000000pt" height="92.000000pt" viewBox="0 0 90.000000 92.000000"
 preserveAspectRatio="xMidYMid meet">
<metadata>
Created by potrace 1.16, written by Peter Selinger 2001-2019
</metadata>
<g transform="translate(0.000000,92.000000) scale(0.100000,-0.100000)"
fill="#000000" stroke="none">
<path d="M361 811 c-12 -32 -28 -64 -36 -71 -35 -29 -8 -58 38 -41 35 14 34 7
-9 -46 -34 -41 -41 -82 -11 -69 55 22 91 29 95 18 2 -7 10 -12 18 -12 21 0 17
48 -5 60 -28 14 -44 12 -37 -5 3 -10 -3 -17 -20 -21 -14 -4 -27 -5 -29 -2 -2
2 18 32 45 65 54 66 56 73 38 91 -9 9 -15 5 -24 -18 -10 -22 -20 -30 -39 -30
-28 0 -31 7 -12 35 49 71 49 70 29 89 -18 16 -20 14 -41 -43z"/>
<path d="M210 828 c0 -24 -29 -89 -54 -123 -24 -32 -6 -50 35 -36 18 6 34 9
36 7 2 -2 -14 -26 -37 -54 -59 -75 -52 -95 20 -60 34 17 46 19 61 10 26 -17
29 -15 29 13 0 14 -8 29 -19 35 -29 15 -40 12 -34 -9 3 -14 -2 -20 -24 -24
-15 -3 -29 -4 -30 -3 -1 1 21 30 49 65 46 56 50 64 36 78 -14 14 -17 13 -23
-6 -5 -15 -15 -21 -36 -21 l-30 0 30 54 c35 60 38 81 15 90 -23 9 -24 8 -24
-16z"/>
<path d="M694 789 c-10 -12 -40 -39 -67 -60 -43 -34 -50 -37 -78 -27 -16 6
-32 8 -35 5 -3 -3 0 -25 7 -48 25 -95 -8 -318 -66 -432 -19 -39 -33 -72 -31
-74 2 -2 22 17 44 42 45 51 74 127 94 242 l12 71 40 5 c23 2 43 2 46 0 3 -3 6
-113 8 -244 3 -179 6 -239 15 -236 21 6 35 108 36 257 1 80 6 161 11 180 8 29
7 37 -6 47 -15 11 -14 13 7 18 14 3 47 9 74 13 55 8 62 20 22 40 -22 11 -39 9
-128 -18 -125 -37 -129 -37 -129 -2 0 85 7 96 83 130 40 17 84 36 100 41 34
13 34 24 1 50 -33 26 -36 26 -60 0z"/>
<path d="M55 763 c21 -54 21 -443 0 -548 -4 -18 -1 -37 7 -48 13 -17 15 -17
53 -1 29 13 77 19 178 22 75 2 137 7 137 11 0 12 -15 28 -37 40 -18 9 -48 7
-144 -9 -67 -12 -127 -19 -133 -17 -7 3 -11 18 -10 33 1 16 3 77 3 135 l1 107
45 4 c25 2 45 1 45 -1 0 -11 -55 -101 -62 -101 -5 0 -4 -9 2 -21 7 -11 17 -18
23 -16 50 21 50 21 39 1 -6 -10 -22 -31 -36 -46 -46 -49 -29 -67 35 -39 40 18
45 19 61 4 16 -14 18 -14 24 1 9 24 -2 45 -31 56 -31 12 -31 20 0 50 28 26 31
40 13 58 -9 9 -15 5 -24 -18 -10 -22 -20 -30 -39 -30 -14 0 -25 2 -25 4 0 2
14 20 30 41 17 21 29 44 26 51 -5 12 5 16 86 30 34 5 37 4 33 -14 -4 -25 -23
-62 -42 -83 -18 -21 -6 -53 16 -43 52 21 55 17 17 -30 -47 -57 -39 -74 22 -49
39 15 43 15 60 0 25 -23 32 -21 32 7 0 14 -10 32 -22 40 -29 21 -40 20 -36 -1
2 -12 -4 -19 -19 -21 -13 -2 -23 0 -23 3 0 4 20 31 45 59 44 52 55 79 35 91
-5 3 -17 -10 -27 -29 -13 -29 -22 -36 -45 -36 -32 0 -31 3 9 57 15 19 20 34
14 38 -22 13 -10 25 23 25 19 0 38 4 41 10 13 21 -49 21 -162 1 -65 -12 -132
-21 -150 -21 l-32 0 6 123 6 124 -24 6 c-41 11 -52 9 -44 -10z m183 -458 c-1
-2 -17 -7 -33 -11 l-30 -7 24 27 c22 23 26 24 34 10 5 -8 7 -17 5 -19z"/>
</g>
</svg>
