<?xml version="1.0" standalone="no"?>
<!DOCTYPE svg PUBLIC "-//W3C//DTD SVG 20010904//EN"
 "http://www.w3.org/TR/2001/REC-SVG-20010904/DTD/svg10.dtd">
<svg version="1.0" xmlns="http://www.w3.org/2000/svg"
 width="96.000000pt" height="68.000000pt" viewBox="0 0 96.000000 68.000000"
 preserveAspectRatio="xMidYMid meet">
<metadata>
Created by potrace 1.16, written by Peter Selinger 2001-2019
</metadata>
<g transform="translate(0.000000,68.000000) scale(0.100000,-0.100000)"
fill="#000000" stroke="none">
<path d="M560 270 l0 -40 -40 0 c-22 0 -40 -4 -40 -10 0 -5 18 -10 40 -10 39
0 40 -1 40 -34 l0 -33 -100 -8 c-65 -4 -98 -10 -94 -17 6 -9 141 -5 239 7 11
1 72 3 135 4 91 1 111 3 101 14 -9 8 -46 11 -127 10 l-114 -3 0 35 c0 34 1 35
43 36 23 0 51 4 61 8 34 13 -1 23 -54 16 l-50 -7 0 36 c0 29 -4 36 -20 36 -17
0 -20 -7 -20 -40z"/>
</g>
</svg>
