<?xml version="1.0" standalone="no"?>
<!DOCTYPE svg PUBLIC "-//W3C//DTD SVG 20010904//EN"
 "http://www.w3.org/TR/2001/REC-SVG-20010904/DTD/svg10.dtd">
<svg version="1.0" xmlns="http://www.w3.org/2000/svg"
 width="96.000000pt" height="68.000000pt" viewBox="0 0 96.000000 68.000000"
 preserveAspectRatio="xMidYMid meet">
<metadata>
Created by potrace 1.16, written by Peter Selinger 2001-2019
</metadata>
<g transform="translate(0.000000,68.000000) scale(0.100000,-0.100000)"
fill="#000000" stroke="none">
<path d="M566 548 c10 -13 25 -27 32 -31 24 -16 1 -26 -78 -33 -44 -3 -83 -11
-86 -15 -5 -9 15 -13 51 -11 14 1 27 -11 43 -39 13 -22 22 -43 19 -45 -21 -21
-127 -4 -127 21 0 15 -22 25 -52 25 -16 0 -19 -5 -14 -25 5 -21 2 -25 -29 -31
-20 -3 -38 -4 -40 -2 -3 3 6 38 20 78 14 40 25 77 25 82 0 7 -59 38 -73 38 -3
0 -6 -45 -9 -100 -3 -55 -8 -103 -11 -106 -3 -3 -32 -7 -64 -9 -32 -2 -60 -4
-62 -4 -2 -1 4 -10 15 -22 15 -17 27 -20 57 -16 33 5 38 3 32 -11 -18 -43 -16
-49 19 -66 52 -24 48 -37 -28 -85 -49 -30 -49 -31 -19 -31 17 0 49 13 74 30
52 35 56 36 89 10 32 -25 56 -25 63 0 5 19 -24 52 -54 62 -7 2 -5 15 5 33 9
17 22 47 31 68 16 41 42 58 57 36 5 -8 7 -64 4 -134 -4 -72 -2 -126 4 -135 20
-30 30 14 30 137 0 67 4 124 9 127 5 4 30 9 55 12 l46 7 0 -32 c0 -29 -2 -31
-35 -31 -19 0 -35 -5 -35 -11 0 -7 14 -10 35 -7 34 4 36 2 33 -21 -3 -22 -9
-27 -42 -31 -34 -4 -37 -7 -24 -18 9 -7 19 -28 22 -47 6 -31 10 -34 34 -30 15
2 44 7 65 10 27 4 37 11 37 24 0 10 7 24 15 31 34 29 3 57 -49 44 -18 -4 -26
-2 -26 7 0 25 15 37 53 44 52 10 48 29 -5 20 -34 -6 -40 -5 -35 8 3 8 0 20 -6
26 -6 6 -9 11 -6 12 41 7 98 9 116 4 l25 -6 -4 -129 c-2 -70 -6 -132 -10 -135
-4 -4 -21 -3 -37 3 -39 14 -39 3 -1 -31 34 -31 65 -35 78 -9 5 9 12 85 15 169
7 182 6 183 -81 165 -30 -6 -58 -10 -60 -7 -3 2 10 21 27 41 25 28 30 39 20
50 -10 12 -3 14 39 14 54 0 77 14 41 25 -20 7 -84 1 -138 -12 -16 -4 -22 -2
-17 5 11 18 -39 62 -70 62 -27 0 -27 0 -8 -22z m104 -84 c0 -9 -7 -31 -16 -50
-13 -27 -22 -34 -45 -34 -23 0 -29 5 -29 21 0 18 -28 58 -37 52 -2 -2 -3 0 -3
5 -1 8 49 19 98 21 23 1 32 -3 32 -15z m-320 -136 c0 -7 -9 -32 -20 -55 -18
-41 -20 -42 -49 -32 -32 11 -35 18 -25 56 4 14 18 25 42 31 51 14 52 14 52 0z
m320 -128 c0 -40 -83 -57 -95 -19 -9 27 8 39 58 39 30 0 37 -4 37 -20z"/>
</g>
</svg>
