<?xml version="1.0" standalone="no"?>
<!DOCTYPE svg PUBLIC "-//W3C//DTD SVG 20010904//EN"
 "http://www.w3.org/TR/2001/REC-SVG-20010904/DTD/svg10.dtd">
<svg version="1.0" xmlns="http://www.w3.org/2000/svg"
 width="96.000000pt" height="68.000000pt" viewBox="0 0 96.000000 68.000000"
 preserveAspectRatio="xMidYMid meet">
<metadata>
Created by potrace 1.16, written by Peter Selinger 2001-2019
</metadata>
<g transform="translate(0.000000,68.000000) scale(0.100000,-0.100000)"
fill="#000000" stroke="none">
<path d="M738 395 c-10 -10 -251 -35 -276 -28 -23 5 -23 4 -12 -18 9 -17 11
-56 6 -145 -4 -87 -3 -125 5 -130 21 -12 27 18 28 140 1 66 5 124 10 129 10
10 236 31 255 24 13 -5 16 -26 16 -119 0 -152 -3 -161 -49 -154 l-36 6 35 -30
c39 -34 65 -38 78 -12 5 9 12 86 15 170 4 140 3 153 -13 162 -20 11 -53 13
-62 5z"/>
</g>
</svg>
