<?xml version="1.0" standalone="no"?>
<!DOCTYPE svg PUBLIC "-//W3C//DTD SVG 20010904//EN"
 "http://www.w3.org/TR/2001/REC-SVG-20010904/DTD/svg10.dtd">
<svg version="1.0" xmlns="http://www.w3.org/2000/svg"
 width="96.000000pt" height="68.000000pt" viewBox="0 0 96.000000 68.000000"
 preserveAspectRatio="xMidYMid meet">
<metadata>
Created by potrace 1.16, written by Peter Selinger 2001-2019
</metadata>
<g transform="translate(0.000000,68.000000) scale(0.100000,-0.100000)"
fill="#000000" stroke="none">
<path d="M605 573 c-9 -38 -44 -93 -58 -93 -9 0 -12 -35 -12 -118 l0 -117 30
3 c17 2 72 5 123 8 l92 6 0 -44 c0 -107 -30 -169 -71 -147 -31 16 -36 2 -9
-26 29 -31 51 -32 77 -3 26 29 33 50 43 123 5 33 12 70 16 82 10 37 -32 47
-143 34 -118 -14 -130 -14 -130 3 0 10 20 16 66 20 99 10 115 29 18 21 -72 -5
-78 -4 -75 12 3 15 15 19 71 21 l68 3 18 42 c33 78 34 83 5 95 -20 10 -36 9
-80 -4 -31 -9 -57 -14 -60 -11 -2 2 16 24 41 48 41 40 44 45 28 57 -28 20 -50
14 -58 -15z m93 -110 c-2 -13 -18 -20 -62 -26 -63 -9 -75 -5 -57 17 13 16 37
23 89 25 27 1 33 -2 30 -16z m-14 -66 c-4 -11 -18 -17 -38 -17 -17 0 -42 -3
-54 -7 -20 -5 -23 -3 -20 17 2 20 10 24 48 27 25 3 47 6 49 9 10 9 21 -13 15
-29z"/>
<path d="M227 496 c3 -5 -15 -6 -41 -2 l-47 7 7 -48 c19 -112 2 -267 -38 -346
-21 -41 -10 -49 22 -15 28 30 46 65 55 108 13 68 14 70 52 70 34 0 35 -1 29
-31 -3 -17 -6 -47 -6 -65 0 -33 -2 -34 -37 -34 l-38 -1 35 -29 c33 -28 70 -39
70 -22 0 5 14 30 31 56 17 25 37 68 43 93 11 45 14 47 49 51 l38 3 -3 -73 -3
-73 -29 2 -30 2 32 -32 c30 -30 33 -31 49 -14 15 15 19 44 24 200 3 117 2 187
-5 195 -7 10 -21 12 -45 7 -20 -3 -51 -7 -69 -8 l-34 -2 6 -60 c6 -73 -8 -237
-23 -262 -9 -14 -11 23 -9 149 3 184 4 181 -59 182 -17 1 -29 -3 -26 -8z m223
-61 c0 -38 -3 -45 -19 -45 -11 0 -26 -3 -35 -6 -13 -5 -16 2 -16 45 l0 51 35
0 c35 0 35 0 35 -45z m-190 -10 c0 -43 -1 -45 -30 -45 -24 0 -30 4 -30 23 0
46 12 67 36 67 22 0 24 -4 24 -45z m194 -90 c0 -27 -3 -29 -34 -30 -37 0 -40
2 -40 39 0 20 5 23 37 22 34 -1 37 -3 37 -31z m-186 -7 c3 -26 1 -28 -32 -28
-31 0 -36 3 -36 24 0 45 63 48 68 4z"/>
<path d="M706 213 c7 -19 32 -43 46 -43 10 0 10 21 0 36 -4 6 -17 14 -29 18
-19 6 -22 4 -17 -11z"/>
<path d="M652 185 c6 -14 17 -25 25 -25 18 0 16 37 -3 44 -28 11 -34 6 -22
-19z"/>
<path d="M522 175 c-14 -30 -16 -75 -4 -75 18 0 32 26 32 62 0 44 -12 49 -28
13z"/>
<path d="M580 192 c0 -15 28 -47 35 -40 11 11 -5 48 -21 48 -8 0 -14 -4 -14
-8z"/>
</g>
</svg>
