<?xml version="1.0" standalone="no"?>
<!DOCTYPE svg PUBLIC "-//W3C//DTD SVG 20010904//EN"
 "http://www.w3.org/TR/2001/REC-SVG-20010904/DTD/svg10.dtd">
<svg version="1.0" xmlns="http://www.w3.org/2000/svg"
 width="96.000000pt" height="68.000000pt" viewBox="0 0 96.000000 68.000000"
 preserveAspectRatio="xMidYMid meet">
<metadata>
Created by potrace 1.16, written by Peter Selinger 2001-2019
</metadata>
<g transform="translate(0.000000,68.000000) scale(0.100000,-0.100000)"
fill="#000000" stroke="none">
<path d="M595 564 c-60 -8 -125 -13 -142 -11 -37 3 -39 0 -18 -27 8 -10 19
-43 25 -72 l11 -54 37 5 c114 14 210 15 214 3 8 -23 34 8 68 80 29 62 30 67
14 79 -21 16 -65 15 -209 -3z m155 -34 c0 -17 -7 -20 -45 -21 -25 -1 -51 -2
-57 -3 -7 -1 -14 9 -16 22 -3 21 0 22 57 22 54 0 61 -2 61 -20z m-166 -6 c10
-26 -3 -34 -53 -34 -40 0 -50 4 -54 19 -7 27 0 31 54 31 34 0 49 -4 53 -16z
m152 -50 c-3 -9 -6 -20 -6 -25 0 -5 -22 -9 -50 -9 -43 0 -50 3 -50 19 0 20 18
26 84 30 22 1 27 -2 22 -15z m-148 -21 c-2 -14 -15 -19 -51 -21 -42 -3 -47 -1
-47 17 0 18 6 21 51 21 43 0 50 -3 47 -17z"/>
</g>
</svg>
