<?xml version="1.0" standalone="no"?>
<!DOCTYPE svg PUBLIC "-//W3C//DTD SVG 20010904//EN"
 "http://www.w3.org/TR/2001/REC-SVG-20010904/DTD/svg10.dtd">
<svg version="1.0" xmlns="http://www.w3.org/2000/svg"
 width="96.000000pt" height="68.000000pt" viewBox="0 0 96.000000 68.000000"
 preserveAspectRatio="xMidYMid meet">
<metadata>
Created by potrace 1.16, written by Peter Selinger 2001-2019
</metadata>
<g transform="translate(0.000000,68.000000) scale(0.100000,-0.100000)"
fill="#000000" stroke="none">
<path d="M258 472 c-7 -122 -14 -132 -88 -132 -45 0 -60 -3 -60 -14 0 -20 34
-29 75 -22 34 7 34 6 29 -26 -5 -30 -2 -35 35 -58 22 -14 41 -28 41 -31 0 -11
-36 -39 -91 -69 -30 -16 -46 -30 -36 -30 26 0 86 27 124 56 l34 26 26 -26 c14
-14 32 -26 39 -26 23 0 15 40 -12 64 -23 19 -25 25 -15 42 7 10 20 42 30 69
14 36 25 51 40 53 21 3 30 22 11 22 -5 0 -19 9 -30 20 -29 29 -54 26 -48 -4 4
-22 1 -25 -34 -31 -22 -4 -42 -4 -46 -1 -3 4 6 42 21 85 15 43 27 83 27 88 0
9 -42 33 -59 33 -5 0 -10 -40 -13 -88z m82 -211 c-11 -23 -22 -41 -24 -41 -2
0 -20 7 -41 16 -33 13 -36 18 -30 42 9 37 15 41 66 50 54 10 61 -6 29 -67z"/>
</g>
</svg>
