<?xml version="1.0" standalone="no"?>
<!DOCTYPE svg PUBLIC "-//W3C//DTD SVG 20010904//EN"
 "http://www.w3.org/TR/2001/REC-SVG-20010904/DTD/svg10.dtd">
<svg version="1.0" xmlns="http://www.w3.org/2000/svg"
 width="90.000000pt" height="92.000000pt" viewBox="0 0 90.000000 92.000000"
 preserveAspectRatio="xMidYMid meet">
<metadata>
Created by potrace 1.16, written by Peter Selinger 2001-2019
</metadata>
<g transform="translate(0.000000,92.000000) scale(0.100000,-0.100000)"
fill="#000000" stroke="none">
<path d="M395 899 c-4 -6 -2 -31 5 -55 7 -25 11 -46 9 -48 -4 -4 -145 -18
-307 -32 -67 -6 -72 -17 -18 -39 26 -11 42 -11 96 0 36 8 102 17 148 21 l83 7
-3 -34 c-3 -32 -5 -34 -53 -42 -27 -4 -71 -5 -97 -2 -45 5 -66 -6 -34 -18 8
-3 20 -30 27 -61 15 -69 23 -83 41 -69 7 6 38 13 68 15 l56 4 -4 -32 -4 -32
-94 -7 c-52 -4 -97 -11 -99 -15 -10 -16 37 -22 117 -15 l80 7 -4 -28 c-3 -28
-5 -29 -73 -35 -38 -4 -106 -7 -150 -8 -100 -2 -123 -13 -73 -36 33 -16 43
-16 146 -1 154 22 152 23 152 -18 0 -33 -1 -33 -52 -40 -29 -3 -70 -6 -90 -6
-20 0 -40 -5 -43 -10 -11 -18 45 -30 113 -24 l67 6 -3 -48 c-5 -65 -14 -73
-65 -66 l-42 5 50 -54 c67 -74 70 -75 94 -35 17 26 21 50 21 114 0 94 -2 92
109 92 82 0 98 5 80 26 -8 10 -8 23 1 49 l12 35 89 0 c74 0 89 3 89 16 0 24
-58 43 -114 37 -46 -6 -48 -5 -37 15 18 34 13 49 -23 66 -27 13 -44 14 -83 7
-126 -25 -123 -25 -123 7 0 27 3 30 46 36 26 3 67 6 91 6 39 0 44 2 38 19 -4
13 4 28 25 49 16 17 30 34 30 39 0 5 -17 19 -38 31 -31 17 -45 20 -70 13 -41
-12 -106 -17 -109 -8 -2 4 -3 18 -3 32 l0 25 169 0 c93 0 176 3 185 6 27 10
18 24 -26 43 -39 17 -50 17 -128 5 -47 -7 -108 -13 -137 -13 l-52 -1 6 34 c5
32 3 36 -35 55 -48 24 -49 24 -57 10z m191 -261 c-3 -17 -7 -33 -9 -34 -1 -1
-28 -5 -59 -9 l-58 -7 0 35 c0 41 7 45 79 46 l54 1 -7 -32z m-173 -49 c-1 -4
-26 -9 -54 -13 -56 -8 -69 0 -69 40 0 19 8 23 58 30 l57 9 6 -30 c3 -16 4 -33
2 -36z m207 -153 c0 -20 -6 -24 -46 -30 -26 -3 -62 -6 -80 -6 -31 0 -34 3 -34
30 l0 30 80 0 c77 0 80 -1 80 -24z m-20 -79 c0 -32 -27 -50 -84 -55 l-56 -4 0
30 c0 33 10 37 98 41 29 1 42 -3 42 -12z"/>
</g>
</svg>
