<?xml version="1.0" standalone="no"?>
<!DOCTYPE svg PUBLIC "-//W3C//DTD SVG 20010904//EN"
 "http://www.w3.org/TR/2001/REC-SVG-20010904/DTD/svg10.dtd">
<svg version="1.0" xmlns="http://www.w3.org/2000/svg"
 width="90.000000pt" height="92.000000pt" viewBox="0 0 90.000000 92.000000"
 preserveAspectRatio="xMidYMid meet">
<metadata>
Created by potrace 1.16, written by Peter Selinger 2001-2019
</metadata>
<g transform="translate(0.000000,92.000000) scale(0.100000,-0.100000)"
fill="#000000" stroke="none">
<path d="M485 854 c-60 -8 -161 -16 -222 -17 -62 -1 -113 -5 -113 -8 0 -4 6
-12 14 -18 8 -6 19 -41 26 -76 7 -35 18 -70 26 -76 11 -9 14 -9 14 0 0 7 4 10
9 7 5 -3 79 1 166 9 86 9 172 13 190 9 33 -6 34 -5 64 54 17 33 35 63 41 67
19 12 10 34 -20 50 -34 17 -47 17 -195 -1z m135 -35 c0 -5 -5 -29 -11 -52
l-10 -42 -60 -2 c-32 -1 -59 1 -59 4 0 3 9 20 20 39 13 21 17 35 10 39 -6 3
-8 11 -5 16 8 13 115 12 115 -2z m-160 -23 c0 -13 -3 -38 -6 -55 -6 -27 -10
-31 -40 -31 -33 0 -34 1 -34 39 0 22 -3 46 -6 55 -5 13 2 16 40 16 42 0 46 -2
46 -24z m-123 -40 c7 -28 11 -51 10 -52 -1 -1 -25 -4 -54 -6 l-52 -5 -10 49
c-6 27 -11 51 -11 53 0 6 43 13 75 11 27 -1 31 -5 42 -50z"/>
<path d="M445 628 c-12 -54 -54 -136 -106 -204 -27 -35 -46 -64 -41 -64 5 0
30 18 55 40 25 22 48 40 51 40 13 0 6 -218 -9 -273 -13 -52 -13 -62 0 -94 19
-46 37 -33 45 34 4 41 8 47 30 48 14 1 86 5 160 9 161 8 200 14 200 27 0 21
-63 37 -115 29 -94 -16 -95 -16 -95 34 0 48 10 56 82 56 20 0 40 5 44 11 12
20 -20 30 -73 24 l-53 -5 0 29 c0 29 2 30 60 37 33 4 63 11 66 15 9 15 -45 29
-87 23 l-39 -7 0 35 0 35 66 11 c37 6 69 14 73 17 9 10 -31 36 -48 31 -64 -19
-68 -19 -74 12 -4 22 -14 33 -38 41 -18 6 -35 9 -38 5 -3 -3 5 -23 17 -45 21
-36 21 -39 5 -40 -10 0 -42 -4 -70 -8 -29 -4 -53 -6 -53 -4 0 2 11 21 25 43
31 48 31 55 3 74 -31 22 -35 20 -43 -16z m125 -164 c0 -37 -3 -40 -67 -47 -42
-5 -43 -4 -43 23 0 16 -4 32 -10 35 -23 14 -6 21 55 23 l65 2 0 -36z m1 -86
c11 -18 -2 -46 -24 -52 -12 -3 -39 -6 -59 -6 -36 0 -38 2 -38 33 l0 32 57 2
c32 1 61 -3 64 -9z m3 -130 c-4 -24 -8 -44 -8 -45 -1 -1 -28 -5 -59 -9 l-57
-7 0 52 0 51 65 0 65 0 -6 -42z"/>
<path d="M196 603 c13 -42 9 -359 -5 -426 -18 -83 13 -170 38 -104 5 12 10
109 13 214 2 106 7 196 11 199 4 4 18 -5 31 -19 27 -29 41 -33 51 -17 13 21
-7 47 -43 58 -36 11 -37 13 -34 51 3 31 0 42 -19 55 -37 25 -53 21 -43 -11z"/>
<path d="M91 432 c-23 -48 -31 -76 -26 -91 17 -55 75 18 75 94 0 71 -14 70
-49 -3z"/>
</g>
</svg>
