<?xml version="1.0" standalone="no"?>
<!DOCTYPE svg PUBLIC "-//W3C//DTD SVG 20010904//EN"
 "http://www.w3.org/TR/2001/REC-SVG-20010904/DTD/svg10.dtd">
<svg version="1.0" xmlns="http://www.w3.org/2000/svg"
 width="90.000000pt" height="92.000000pt" viewBox="0 0 90.000000 92.000000"
 preserveAspectRatio="xMidYMid meet">
<metadata>
Created by potrace 1.16, written by Peter Selinger 2001-2019
</metadata>
<g transform="translate(0.000000,92.000000) scale(0.100000,-0.100000)"
fill="#000000" stroke="none">
<path d="M545 835 c-33 -8 -131 -22 -217 -32 -87 -9 -158 -21 -158 -26 0 -4
14 -13 31 -19 31 -11 31 -12 25 -62 -3 -28 -19 -78 -36 -110 l-31 -60 21 -20
c19 -19 21 -20 67 -3 39 13 155 37 186 37 18 0 3 -24 -59 -95 -63 -73 -132
-128 -258 -208 -57 -37 -59 -39 -26 -33 19 3 73 25 120 48 71 34 100 57 178
136 l92 94 0 -113 c0 -63 -3 -138 -7 -167 l-6 -54 -56 7 -56 7 55 -56 c30 -31
62 -56 72 -56 10 0 25 15 35 32 16 29 18 59 16 251 l-2 217 120 0 c102 0 121
2 126 16 13 34 -25 46 -123 40 -50 -3 -98 -8 -108 -12 -16 -6 -18 1 -14 89 l3
96 45 7 c55 8 90 21 90 32 0 9 -45 33 -58 31 -4 -1 -34 -7 -67 -14z m-80 -97
c3 -18 6 -60 8 -92 l2 -59 -110 -18 c-60 -10 -112 -16 -114 -13 -3 3 7 41 22
86 19 58 23 86 16 99 -8 16 -3 18 53 22 35 2 75 4 90 5 23 2 28 -3 33 -30z"/>
</g>
</svg>
