<?xml version="1.0" standalone="no"?>
<!DOCTYPE svg PUBLIC "-//W3C//DTD SVG 20010904//EN"
 "http://www.w3.org/TR/2001/REC-SVG-20010904/DTD/svg10.dtd">
<svg version="1.0" xmlns="http://www.w3.org/2000/svg"
 width="96.000000pt" height="68.000000pt" viewBox="0 0 96.000000 68.000000"
 preserveAspectRatio="xMidYMid meet">
<metadata>
Created by potrace 1.16, written by Peter Selinger 2001-2019
</metadata>
<g transform="translate(0.000000,68.000000) scale(0.100000,-0.100000)"
fill="#000000" stroke="none">
<path d="M570 269 c-25 -4 -70 -8 -100 -8 l-55 -1 1 -103 c1 -110 7 -135 29
-117 7 6 56 13 108 17 84 5 97 4 103 -11 8 -21 31 -21 38 2 2 9 6 62 8 116 3
91 1 100 -17 107 -24 9 -56 9 -115 -2z m80 -44 c0 -14 0 -28 0 -32 1 -5 -37
-13 -82 -20 -124 -17 -118 -18 -118 21 0 33 3 35 43 44 23 6 68 10 100 11 54
1 57 0 57 -24z m0 -102 c0 -36 -2 -38 -32 -38 -18 -1 -62 -3 -98 -5 l-65 -5 0
35 c0 35 0 35 50 38 28 2 55 5 60 7 6 2 27 4 48 4 36 1 37 0 37 -36z"/>
</g>
</svg>
