<?xml version="1.0" standalone="no"?>
<!DOCTYPE svg PUBLIC "-//W3C//DTD SVG 20010904//EN"
 "http://www.w3.org/TR/2001/REC-SVG-20010904/DTD/svg10.dtd">
<svg version="1.0" xmlns="http://www.w3.org/2000/svg"
 width="90.000000pt" height="92.000000pt" viewBox="0 0 90.000000 92.000000"
 preserveAspectRatio="xMidYMid meet">
<metadata>
Created by potrace 1.16, written by Peter Selinger 2001-2019
</metadata>
<g transform="translate(0.000000,92.000000) scale(0.100000,-0.100000)"
fill="#000000" stroke="none">
<path d="M197 823 c-3 -10 -8 -36 -12 -57 -8 -50 -79 -192 -140 -280 -25 -38
-44 -71 -40 -74 3 -4 38 27 77 68 l71 75 -6 -155 c-2 -85 -10 -176 -17 -201
-10 -38 -9 -52 4 -82 16 -40 30 -46 42 -19 4 9 10 116 14 237 5 175 4 225 -7
242 -12 21 -9 32 34 115 26 51 49 96 51 100 4 9 -39 48 -54 48 -7 0 -15 -8
-17 -17z"/>
<path d="M660 761 c-8 -6 -39 -16 -68 -22 -46 -11 -51 -14 -38 -27 12 -12 22
-13 66 -2 28 7 53 10 56 7 3 -2 2 -28 -2 -56 -7 -55 -10 -57 -116 -76 -37 -6
-48 -18 -28 -30 14 -9 200 15 200 25 0 5 -5 10 -11 12 -14 5 3 66 32 114 16
27 17 33 5 43 -20 17 -78 24 -96 12z"/>
<path d="M400 734 c-17 -10 -40 -13 -74 -9 -47 6 -48 5 -42 -17 20 -74 16
-301 -10 -533 -4 -36 -1 -56 9 -70 23 -31 31 -12 37 87 l5 90 65 5 c81 5 102
16 71 33 -18 9 -34 9 -66 1 -63 -16 -65 -15 -65 33 l0 43 55 6 c29 3 62 10 71
15 16 9 15 11 -5 22 -18 9 -32 8 -68 -4 -26 -9 -48 -16 -50 -16 -2 0 -3 27 -3
60 l0 60 34 0 c50 0 96 11 90 21 -7 11 23 105 43 136 13 19 12 23 -9 37 -27
19 -54 19 -88 0z m26 -81 c-8 -68 -11 -72 -59 -80 l-37 -6 0 60 0 59 38 11
c66 19 65 19 58 -44z"/>
<path d="M670 490 c-8 -5 -46 -14 -85 -21 -38 -7 -72 -13 -74 -15 -1 -1 10
-20 27 -41 16 -21 40 -57 52 -80 22 -40 22 -43 6 -68 -21 -32 -87 -81 -151
-111 -49 -23 -49 -24 -18 -24 43 0 130 39 176 80 21 18 39 31 41 29 1 -2 13
-22 26 -44 41 -70 59 -85 105 -85 43 0 105 17 105 29 0 3 -30 21 -67 38 -38
17 -87 47 -109 67 l-42 35 44 88 c24 48 44 93 44 100 0 8 -52 35 -64 33 -1 0
-8 -5 -16 -10z m0 -46 c0 -17 -32 -114 -38 -114 -7 0 -62 83 -62 93 0 7 56 25
83 26 9 1 17 -2 17 -5z"/>
</g>
</svg>
