<?xml version="1.0" standalone="no"?>
<!DOCTYPE svg PUBLIC "-//W3C//DTD SVG 20010904//EN"
 "http://www.w3.org/TR/2001/REC-SVG-20010904/DTD/svg10.dtd">
<svg version="1.0" xmlns="http://www.w3.org/2000/svg"
 width="96.000000pt" height="68.000000pt" viewBox="0 0 96.000000 68.000000"
 preserveAspectRatio="xMidYMid meet">
<metadata>
Created by potrace 1.16, written by Peter Selinger 2001-2019
</metadata>
<g transform="translate(0.000000,68.000000) scale(0.100000,-0.100000)"
fill="#000000" stroke="none">
<path d="M526 605 c6 -24 4 -25 -39 -25 -25 0 -49 -5 -53 -12 -5 -8 7 -10 44
-5 40 5 52 3 52 -7 0 -16 -61 -27 -104 -19 -29 6 -30 5 -14 -10 9 -10 20 -26
23 -37 5 -16 15 -20 51 -20 30 0 44 -4 44 -14 0 -17 -135 -22 -155 -6 -10 8
-15 6 -20 -12 -4 -12 -14 -28 -21 -36 -8 -7 -14 -20 -14 -28 0 -25 30 -15 48
16 15 26 22 30 62 30 25 0 107 5 182 12 131 11 170 8 138 -12 -24 -15 -4 -22
40 -13 50 10 53 22 12 46 -29 17 -40 18 -122 7 -50 -7 -98 -9 -106 -6 -29 11
-3 26 44 26 39 0 52 5 75 29 34 37 25 44 -59 42 -35 -1 -64 3 -64 8 0 9 48 21
86 21 12 0 26 5 30 12 5 8 -9 9 -54 5 -57 -6 -62 -5 -62 13 0 15 -7 20 -25 20
-22 0 -25 -3 -19 -25z m124 -95 c-8 -5 -32 -10 -52 -10 -50 0 -41 28 10 32 43
4 64 -8 42 -22z m-120 -6 c0 -11 -9 -14 -37 -12 -47 4 -55 25 -11 30 40 4 48
1 48 -18z"/>
<path d="M215 448 c-10 -6 -44 -13 -75 -14 -39 -2 -54 -7 -52 -16 2 -7 7 -15
12 -18 4 -3 11 -21 14 -40 10 -49 27 -90 37 -90 5 0 9 4 9 10 0 5 25 10 56 12
l56 3 3 35 c1 19 10 48 19 65 12 23 13 32 3 42 -19 18 -60 24 -82 11z m15 -66
c0 -41 -14 -62 -41 -62 -22 0 -25 5 -33 52 -6 36 -6 37 26 41 18 2 36 5 41 5
4 1 7 -15 7 -36z"/>
<path d="M625 409 c-21 -5 -45 -7 -52 -5 -17 7 -16 -8 3 -45 10 -20 20 -29 30
-25 9 3 28 6 42 6 20 0 32 9 45 31 10 18 16 33 15 34 -11 10 -49 11 -83 4z
m39 -34 c-4 -9 -19 -15 -40 -15 -24 0 -34 5 -34 15 0 11 11 15 40 15 31 0 38
-3 34 -15z"/>
<path d="M443 393 c-24 -2 -43 -5 -43 -7 0 -2 5 -17 11 -34 9 -25 15 -30 37
-27 15 2 34 4 43 4 15 1 39 39 39 61 0 10 -6 10 -87 3z m47 -33 c0 -16 -7 -20
-30 -20 -23 0 -30 4 -30 20 0 16 7 20 30 20 23 0 30 -4 30 -20z"/>
<path d="M573 306 c8 -19 -49 -27 -64 -9 -15 17 -50 17 -43 0 3 -9 -7 -18 -28
-24 l-33 -11 33 -1 c37 -1 44 -21 8 -21 -14 0 -28 -4 -31 -10 -4 -6 8 -10 29
-10 44 0 52 -29 9 -31 -16 -1 -35 -3 -43 -4 -8 -1 -33 -3 -55 -4 -32 -2 -36
-4 -20 -11 11 -5 46 -6 78 -3 31 3 57 2 57 -2 0 -10 -42 -43 -104 -82 -61 -39
-56 -42 16 -8 l53 25 3 -45 c2 -25 7 -45 12 -45 10 0 110 61 110 68 0 4 -36
-3 -63 -14 -10 -4 -16 4 -19 26 -4 25 0 35 19 47 13 9 22 22 19 29 -4 9 29 14
135 19 121 7 138 9 127 22 -10 12 -28 14 -90 8 -48 -4 -78 -3 -78 3 0 11 34
22 68 22 14 0 21 4 16 11 -4 7 -21 9 -46 5 -58 -10 -44 15 16 29 52 11 52 29
0 19 -18 -3 -34 -1 -38 5 -11 17 -59 14 -53 -3z m7 -46 c0 -13 -45 -24 -66
-16 -8 3 -12 10 -9 16 8 13 75 13 75 0z m-2 -47 c2 -9 -9 -13 -37 -13 -32 0
-39 3 -34 16 7 18 64 16 71 -3z"/>
<path d="M664 155 c-11 -29 -41 -37 -69 -19 -14 9 -29 13 -33 9 -4 -4 -1 -10
6 -12 7 -3 25 -15 40 -28 85 -71 144 -90 206 -66 15 6 9 10 -30 20 -64 17
-105 32 -128 47 -17 11 -15 14 23 24 44 12 51 33 13 38 -13 2 -25 -3 -28 -13z"/>
</g>
</svg>
