<?xml version="1.0" standalone="no"?>
<!DOCTYPE svg PUBLIC "-//W3C//DTD SVG 20010904//EN"
 "http://www.w3.org/TR/2001/REC-SVG-20010904/DTD/svg10.dtd">
<svg version="1.0" xmlns="http://www.w3.org/2000/svg"
 width="96.000000pt" height="68.000000pt" viewBox="0 0 96.000000 68.000000"
 preserveAspectRatio="xMidYMid meet">
<metadata>
Created by potrace 1.16, written by Peter Selinger 2001-2019
</metadata>
<g transform="translate(0.000000,68.000000) scale(0.100000,-0.100000)"
fill="#000000" stroke="none">
<path d="M614 574 c-47 -41 -79 -54 -115 -47 -29 6 -31 4 -23 -13 5 -10 8 -53
8 -95 -2 -101 -23 -169 -72 -237 -30 -39 -15 -43 20 -5 46 51 71 96 83 146 13
57 3 53 148 63 86 6 97 9 92 24 -3 11 5 30 21 49 26 31 26 32 8 46 -24 18 -56
19 -98 1 -18 -7 -61 -17 -96 -21 -104 -12 -69 19 84 74 24 9 27 13 16 26 -18
22 -43 18 -76 -11z m101 -121 c-3 -16 -9 -31 -13 -35 -4 -3 -44 -10 -89 -14
l-83 -7 0 30 c0 28 3 30 58 40 31 6 74 11 96 12 37 1 38 0 31 -26z"/>
<path d="M300 583 c0 -5 5 -37 11 -72 12 -76 11 -76 -73 -86 -83 -10 -71 -30
16 -28 l66 1 0 -40 0 -39 -84 -40 c-46 -21 -89 -39 -95 -39 -16 0 -13 -11 7
-26 27 -21 59 -16 104 16 22 17 45 30 50 30 9 0 11 -83 2 -116 -5 -19 -11 -21
-46 -16 l-40 5 51 -48 52 -49 22 23 c20 20 22 29 19 134 l-3 112 40 25 c61 37
52 56 -11 24 -31 -16 -31 -16 -25 8 4 12 7 28 7 34 0 7 16 15 36 18 43 9 40
30 -5 34 -36 4 -36 3 -15 93 4 20 1 27 -21 37 -29 13 -65 16 -65 5z"/>
<path d="M675 339 c-16 -5 -54 -10 -83 -11 l-54 -2 5 -30 c6 -45 -10 -163 -28
-199 -29 -59 8 -43 40 17 16 30 23 34 49 30 23 -4 43 3 76 25 l45 31 3 -41 c5
-60 -3 -73 -38 -65 -17 3 -30 4 -30 2 0 -1 18 -17 41 -36 38 -30 42 -31 57
-16 13 13 17 38 18 114 0 53 4 113 8 134 7 31 5 38 -12 47 -24 13 -55 13 -97
0z m49 -35 c3 -9 6 -33 6 -54 0 -37 -2 -39 -47 -53 -27 -9 -61 -18 -77 -22
-26 -5 -28 -4 -22 17 3 13 6 36 6 52 0 28 1 28 23 12 46 -34 68 -41 77 -26 13
21 -6 37 -51 45 -48 8 -52 32 -6 38 69 8 85 7 91 -9z"/>
</g>
</svg>
