<?xml version="1.0" standalone="no"?>
<!DOCTYPE svg PUBLIC "-//W3C//DTD SVG 20010904//EN"
 "http://www.w3.org/TR/2001/REC-SVG-20010904/DTD/svg10.dtd">
<svg version="1.0" xmlns="http://www.w3.org/2000/svg"
 width="96.000000pt" height="68.000000pt" viewBox="0 0 96.000000 68.000000"
 preserveAspectRatio="xMidYMid meet">
<metadata>
Created by potrace 1.16, written by Peter Selinger 2001-2019
</metadata>
<g transform="translate(0.000000,68.000000) scale(0.100000,-0.100000)"
fill="#000000" stroke="none">
<path d="M340 320 c-14 -4 -41 -8 -61 -9 -46 -1 -51 -15 -34 -82 15 -57 29
-77 39 -60 4 6 26 11 49 11 51 0 89 9 82 20 -3 4 5 31 17 60 18 44 19 53 7 61
-17 10 -64 10 -99 -1z m40 -52 c0 -45 -11 -58 -53 -65 -33 -5 -38 -3 -47 21
-22 60 -12 71 68 75 30 1 32 -1 32 -31z"/>
</g>
</svg>
