<?xml version="1.0" standalone="no"?>
<!DOCTYPE svg PUBLIC "-//W3C//DTD SVG 20010904//EN"
 "http://www.w3.org/TR/2001/REC-SVG-20010904/DTD/svg10.dtd">
<svg version="1.0" xmlns="http://www.w3.org/2000/svg"
 width="96.000000pt" height="68.000000pt" viewBox="0 0 96.000000 68.000000"
 preserveAspectRatio="xMidYMid meet">
<metadata>
Created by potrace 1.16, written by Peter Selinger 2001-2019
</metadata>
<g transform="translate(0.000000,68.000000) scale(0.100000,-0.100000)"
fill="#000000" stroke="none">
<path d="M590 616 c0 -14 -4 -36 -10 -50 -8 -21 -16 -26 -45 -26 -19 0 -35 -4
-35 -10 0 -5 16 -10 35 -10 33 0 34 -1 25 -26 -16 -41 -11 -41 23 -1 32 37 36
38 110 44 42 3 77 9 77 13 0 14 -51 21 -96 14 -48 -7 -50 -4 -31 27 10 17 9
22 -7 35 -29 21 -46 17 -46 -10z"/>
<path d="M309 566 c26 -41 19 -46 -70 -46 -64 0 -75 -11 -31 -29 19 -8 37 -8
62 -1 56 16 76 13 89 -16 14 -31 26 -24 26 14 0 19 6 28 20 30 38 7 40 22 2
22 -32 0 -37 3 -37 24 0 26 -16 36 -57 36 l-25 0 21 -34z"/>
</g>
</svg>
