<?xml version="1.0" standalone="no"?>
<!DOCTYPE svg PUBLIC "-//W3C//DTD SVG 20010904//EN"
 "http://www.w3.org/TR/2001/REC-SVG-20010904/DTD/svg10.dtd">
<svg version="1.0" xmlns="http://www.w3.org/2000/svg"
 width="96.000000pt" height="68.000000pt" viewBox="0 0 96.000000 68.000000"
 preserveAspectRatio="xMidYMid meet">
<metadata>
Created by potrace 1.16, written by Peter Selinger 2001-2019
</metadata>
<g transform="translate(0.000000,68.000000) scale(0.100000,-0.100000)"
fill="#000000" stroke="none">
<path d="M450 378 c-72 -39 -73 -40 -34 -34 39 5 54 -3 54 -29 0 -2 -21 -7
-47 -10 -91 -12 -107 -16 -92 -26 8 -5 44 -6 82 -3 67 7 67 7 67 -19 0 -14 -4
-28 -8 -31 -5 -3 -65 -8 -135 -12 -122 -7 -155 -16 -101 -30 23 -6 72 -3 197
13 l47 6 0 -49 c0 -66 -10 -79 -51 -70 l-34 6 37 -36 c58 -58 88 -29 88 86 0
43 4 59 16 64 9 3 65 6 125 6 110 0 136 10 77 29 -23 7 -59 8 -118 1 -47 -5
-88 -10 -92 -10 -5 0 -8 13 -8 29 0 27 2 29 60 35 101 12 86 33 -19 27 -28 -2
-47 2 -52 11 -17 26 -8 38 31 44 42 7 47 13 28 32 -18 18 -36 14 -118 -30z"/>
</g>
</svg>
