<?xml version="1.0" standalone="no"?>
<!DOCTYPE svg PUBLIC "-//W3C//DTD SVG 20010904//EN"
 "http://www.w3.org/TR/2001/REC-SVG-20010904/DTD/svg10.dtd">
<svg version="1.0" xmlns="http://www.w3.org/2000/svg"
 width="96.000000pt" height="68.000000pt" viewBox="0 0 96.000000 68.000000"
 preserveAspectRatio="xMidYMid meet">
<metadata>
Created by potrace 1.16, written by Peter Selinger 2001-2019
</metadata>
<g transform="translate(0.000000,68.000000) scale(0.100000,-0.100000)"
fill="#000000" stroke="none">
<path d="M229 543 c24 -42 49 -65 66 -62 28 6 29 26 1 54 -30 30 -83 36 -67 8z"/>
<path d="M305 455 c-44 -7 -106 -15 -137 -19 -32 -4 -58 -12 -58 -17 0 -20 57
-20 158 0 59 11 121 21 137 21 29 1 29 1 11 15 -11 8 -22 14 -25 14 -3 -1 -42
-7 -86 -14z"/>
</g>
</svg>
