<?xml version="1.0" standalone="no"?>
<!DOCTYPE svg PUBLIC "-//W3C//DTD SVG 20010904//EN"
 "http://www.w3.org/TR/2001/REC-SVG-20010904/DTD/svg10.dtd">
<svg version="1.0" xmlns="http://www.w3.org/2000/svg"
 width="96.000000pt" height="68.000000pt" viewBox="0 0 96.000000 68.000000"
 preserveAspectRatio="xMidYMid meet">
<metadata>
Created by potrace 1.16, written by Peter Selinger 2001-2019
</metadata>
<g transform="translate(0.000000,68.000000) scale(0.100000,-0.100000)"
fill="#000000" stroke="none">
<path d="M445 613 c16 -37 33 -89 39 -119 8 -38 15 -35 -171 -60 -73 -9 -133
-20 -133 -24 0 -18 63 -17 168 1 63 10 122 19 131 19 12 0 22 -18 35 -67 37
-139 105 -239 200 -293 28 -17 64 -30 80 -30 27 0 28 1 21 38 -5 20 -11 55
-14 77 l-7 40 -12 -48 c-7 -26 -15 -47 -18 -47 -19 0 -69 37 -112 85 -36 40
-59 78 -82 136 -17 45 -30 89 -28 98 3 12 17 17 68 19 36 2 69 7 74 12 16 16
-45 31 -99 25 -49 -7 -53 -5 -58 17 -4 12 -7 44 -7 70 0 50 -16 68 -60 68 -17
0 -20 -4 -15 -17z"/>
</g>
</svg>
