<?xml version="1.0" standalone="no"?>
<!DOCTYPE svg PUBLIC "-//W3C//DTD SVG 20010904//EN"
 "http://www.w3.org/TR/2001/REC-SVG-20010904/DTD/svg10.dtd">
<svg version="1.0" xmlns="http://www.w3.org/2000/svg"
 width="90.000000pt" height="92.000000pt" viewBox="0 0 90.000000 92.000000"
 preserveAspectRatio="xMidYMid meet">
<metadata>
Created by potrace 1.16, written by Peter Selinger 2001-2019
</metadata>
<g transform="translate(0.000000,92.000000) scale(0.100000,-0.100000)"
fill="#000000" stroke="none">
<path d="M427 809 c-4 -31 -21 -78 -43 -118 -45 -83 -161 -237 -215 -286 -22
-20 -39 -38 -37 -40 11 -12 84 40 153 110 58 58 95 107 135 178 l55 98 40 -43
c22 -24 74 -87 115 -141 41 -53 86 -101 100 -106 27 -11 154 7 155 22 0 4 -32
22 -71 40 -99 45 -135 71 -237 170 -75 73 -87 89 -82 110 5 19 1 29 -16 41
-37 25 -46 19 -52 -35z"/>
<path d="M151 683 c-19 -8 -59 -15 -88 -15 -29 0 -53 -2 -53 -3 0 -2 6 -15 14
-30 8 -15 17 -59 21 -99 7 -73 18 -106 35 -106 6 0 10 7 10 15 0 10 10 15 28
15 15 0 43 3 63 6 31 5 35 9 36 38 1 18 13 62 27 97 l26 64 -21 18 c-25 20
-52 21 -98 0z m35 -80 c-14 -99 -15 -101 -53 -108 -19 -3 -37 -4 -40 -2 -2 3
-7 36 -10 75 l-6 70 29 5 c16 2 42 5 58 6 28 1 28 1 22 -46z"/>
<path d="M452 601 c-90 -27 -43 -53 51 -28 27 7 48 17 47 22 -1 19 -45 21 -98
6z"/>
<path d="M549 520 c-14 -8 -174 -40 -200 -40 -18 0 -8 -21 14 -31 18 -8 43 -5
106 11 46 11 85 19 88 16 6 -5 -61 -111 -76 -120 -6 -4 -11 -12 -11 -17 0 -21
61 24 114 83 52 59 55 64 38 79 -23 23 -53 30 -73 19z"/>
<path d="M676 318 c66 -62 81 -71 94 -63 17 10 11 51 -9 69 -19 17 -100 46
-128 46 -8 0 11 -24 43 -52z"/>
<path d="M440 316 c0 -7 17 -33 38 -56 41 -47 72 -50 72 -8 0 35 -13 48 -63
63 -39 12 -47 12 -47 1z"/>
<path d="M250 300 c0 -8 -16 -40 -35 -70 -38 -59 -42 -77 -22 -104 11 -15 18
-16 34 -8 25 14 53 80 53 125 0 33 -29 88 -30 57z"/>
<path d="M330 304 c0 -25 34 -113 55 -145 49 -74 187 -108 289 -72 68 25 80
47 41 79 -16 13 -50 41 -74 61 -24 20 -41 30 -38 23 37 -94 34 -104 -34 -115
-82 -14 -178 41 -200 116 -11 36 -39 74 -39 53z"/>
</g>
</svg>
