<?xml version="1.0" standalone="no"?>
<!DOCTYPE svg PUBLIC "-//W3C//DTD SVG 20010904//EN"
 "http://www.w3.org/TR/2001/REC-SVG-20010904/DTD/svg10.dtd">
<svg version="1.0" xmlns="http://www.w3.org/2000/svg"
 width="96.000000pt" height="68.000000pt" viewBox="0 0 96.000000 68.000000"
 preserveAspectRatio="xMidYMid meet">
<metadata>
Created by potrace 1.16, written by Peter Selinger 2001-2019
</metadata>
<g transform="translate(0.000000,68.000000) scale(0.100000,-0.100000)"
fill="#000000" stroke="none">
<path d="M677 221 c58 -45 83 -52 83 -20 0 21 -35 40 -100 54 l-35 8 52 -42z"/>
<path d="M470 222 c0 -14 55 -62 72 -62 20 0 25 34 7 46 -17 10 -79 23 -79 16z"/>
<path d="M281 168 c-34 -46 -39 -75 -15 -85 24 -9 55 29 61 74 7 57 -10 61
-46 11z"/>
<path d="M384 183 c16 -67 80 -118 161 -128 82 -11 185 9 185 35 0 4 -27 27
-61 49 -41 27 -59 35 -54 23 25 -59 16 -72 -54 -72 -66 0 -124 32 -146 80 -21
46 -40 54 -31 13z"/>
</g>
</svg>
