<?xml version="1.0" standalone="no"?>
<!DOCTYPE svg PUBLIC "-//W3C//DTD SVG 20010904//EN"
 "http://www.w3.org/TR/2001/REC-SVG-20010904/DTD/svg10.dtd">
<svg version="1.0" xmlns="http://www.w3.org/2000/svg"
 width="96.000000pt" height="68.000000pt" viewBox="0 0 96.000000 68.000000"
 preserveAspectRatio="xMidYMid meet">
<metadata>
Created by potrace 1.16, written by Peter Selinger 2001-2019
</metadata>
<g transform="translate(0.000000,68.000000) scale(0.100000,-0.100000)"
fill="#000000" stroke="none">
<path d="M467 603 c-4 -3 -7 -19 -7 -34 0 -31 -54 -115 -119 -184 -51 -56 -70
-49 -46 16 30 81 30 86 -2 93 -16 4 -57 -1 -91 -9 -34 -9 -71 -13 -82 -10 -30
10 -44 -4 -25 -25 9 -9 22 -46 29 -81 12 -59 30 -84 45 -61 3 6 31 14 61 17
l55 6 -40 -35 c-68 -60 -17 -41 84 32 21 14 57 56 137 155 8 9 14 21 14 26 0
5 7 11 15 14 9 4 49 -30 111 -93 l98 -100 73 0 c40 0 73 4 73 9 0 4 -34 21
-76 36 -43 16 -97 45 -126 69 -28 22 -71 56 -94 73 -30 22 -42 38 -37 48 3 9
-2 22 -13 30 -22 16 -28 18 -37 8z m-227 -188 c0 -40 -3 -47 -26 -55 -37 -14
-43 -13 -49 13 -14 60 -11 71 20 78 54 12 55 12 55 -36z"/>
<path d="M473 423 c-18 -2 -33 -9 -33 -15 0 -7 16 -9 46 -4 26 3 53 6 60 6 8
0 14 5 14 10 0 10 -24 11 -87 3z"/>
<path d="M525 355 c-27 -7 -69 -14 -92 -14 -25 -1 -43 -6 -43 -12 0 -12 129
-7 164 7 25 10 19 -12 -15 -51 -18 -20 -29 -38 -25 -42 6 -7 118 78 123 94 3
9 -40 34 -55 32 -4 -1 -29 -7 -57 -14z"/>
<path d="M641 253 c1 -12 88 -73 104 -73 18 0 20 34 3 47 -12 9 -87 33 -102
33 -3 0 -6 -3 -5 -7z"/>
<path d="M470 223 c1 -22 53 -63 79 -63 18 0 12 39 -6 48 -28 14 -73 23 -73
15z"/>
<path d="M281 166 c-34 -50 -39 -74 -15 -83 24 -9 55 29 61 74 8 58 -11 61
-46 9z"/>
<path d="M380 200 c0 -29 32 -80 69 -109 37 -29 50 -33 119 -38 80 -5 152 10
159 34 4 10 -95 83 -112 83 -3 0 1 -13 9 -29 22 -42 3 -55 -73 -49 -72 5 -126
38 -142 86 -10 30 -29 44 -29 22z"/>
</g>
</svg>
