<?xml version="1.0" standalone="no"?>
<!DOCTYPE svg PUBLIC "-//W3C//DTD SVG 20010904//EN"
 "http://www.w3.org/TR/2001/REC-SVG-20010904/DTD/svg10.dtd">
<svg version="1.0" xmlns="http://www.w3.org/2000/svg"
 width="96.000000pt" height="68.000000pt" viewBox="0 0 96.000000 68.000000"
 preserveAspectRatio="xMidYMid meet">
<metadata>
Created by potrace 1.16, written by Peter Selinger 2001-2019
</metadata>
<g transform="translate(0.000000,68.000000) scale(0.100000,-0.100000)"
fill="#000000" stroke="none">
<path d="M457 571 c-7 -54 -54 -120 -159 -223 -49 -49 -86 -88 -82 -88 4 0 30
13 58 29 58 34 125 100 181 181 21 30 40 57 42 59 2 3 50 -41 106 -97 l102
-102 73 0 c39 0 72 4 72 9 0 5 -33 21 -74 36 -85 31 -263 163 -258 191 3 16
-24 43 -44 44 -6 0 -14 -18 -17 -39z"/>
</g>
</svg>
