<?xml version="1.0" standalone="no"?>
<!DOCTYPE svg PUBLIC "-//W3C//DTD SVG 20010904//EN"
 "http://www.w3.org/TR/2001/REC-SVG-20010904/DTD/svg10.dtd">
<svg version="1.0" xmlns="http://www.w3.org/2000/svg"
 width="96.000000pt" height="68.000000pt" viewBox="0 0 96.000000 68.000000"
 preserveAspectRatio="xMidYMid meet">
<metadata>
Created by potrace 1.16, written by Peter Selinger 2001-2019
</metadata>
<g transform="translate(0.000000,68.000000) scale(0.100000,-0.100000)"
fill="#000000" stroke="none">
<path d="M444 512 c-22 -34 -38 -48 -57 -50 -32 -4 -31 -1 -13 -43 7 -19 17
-60 20 -91 7 -58 22 -81 36 -58 13 21 31 1 24 -28 -12 -51 -67 -122 -135 -176
l-24 -18 29 6 c16 4 43 18 61 31 60 47 136 157 115 170 -20 12 -10 25 19 25
36 0 41 -12 39 -103 -1 -79 12 -110 57 -132 62 -29 169 -14 204 29 12 14 11
23 -5 64 l-18 47 -6 -37 c-10 -58 -24 -68 -94 -68 -90 0 -101 11 -92 91 4 35
9 74 9 86 2 22 27 43 27 23 0 -6 8 -10 18 -10 14 0 24 18 41 73 13 39 30 84
37 100 14 26 13 28 -20 43 -30 15 -41 15 -95 3 -34 -7 -61 -17 -61 -21 0 -4
24 -6 53 -5 50 2 52 1 49 -23 -3 -30 -18 -40 -59 -40 -17 0 -35 -4 -38 -10 -4
-6 12 -10 39 -10 49 0 53 -7 39 -58 -5 -19 -11 -23 -32 -19 -14 3 -54 2 -88
-2 -80 -9 -105 0 -101 36 2 16 9 29 16 29 6 1 23 2 37 3 14 0 25 6 25 12 0 6
-17 9 -42 7 -41 -3 -43 -2 -46 27 -3 27 4 36 58 75 64 46 69 54 44 64 -29 11
-39 5 -70 -42z"/>
<path d="M257 493 c-4 -3 -37 -9 -75 -12 -53 -5 -66 -9 -62 -21 3 -8 5 -81 5
-162 0 -112 3 -150 14 -160 11 -10 14 -10 18 0 3 7 23 12 48 12 34 0 47 -5 55
-20 13 -25 36 -26 49 -2 5 9 10 84 10 166 1 82 4 152 6 156 12 19 -52 60 -68
43z m13 -78 c0 -40 -3 -45 -22 -45 -13 0 -33 -3 -45 -6 -21 -6 -23 -3 -23 39
0 49 6 55 58 56 31 1 32 0 32 -44z m0 -105 c0 -17 -5 -30 -12 -30 -7 0 -30 -3
-50 -6 -37 -6 -38 -6 -38 24 0 33 10 39 68 41 29 1 32 -2 32 -29z m2 -82 c8
-46 0 -55 -55 -61 -29 -3 -53 -4 -55 -2 -2 2 0 19 3 38 6 32 11 36 44 40 20 2
41 4 47 5 7 1 13 -8 16 -20z"/>
</g>
</svg>
