<?xml version="1.0" standalone="no"?>
<!DOCTYPE svg PUBLIC "-//W3C//DTD SVG 20010904//EN"
 "http://www.w3.org/TR/2001/REC-SVG-20010904/DTD/svg10.dtd">
<svg version="1.0" xmlns="http://www.w3.org/2000/svg"
 width="96.000000pt" height="68.000000pt" viewBox="0 0 96.000000 68.000000"
 preserveAspectRatio="xMidYMid meet">
<metadata>
Created by potrace 1.16, written by Peter Selinger 2001-2019
</metadata>
<g transform="translate(0.000000,68.000000) scale(0.100000,-0.100000)"
fill="#000000" stroke="none">
<path d="M320 253 c0 -5 9 -19 20 -33 25 -33 48 -16 24 18 -14 21 -44 31 -44
15z"/>
<path d="M105 216 c-18 -43 -19 -62 -3 -72 16 -10 38 25 38 62 0 47 -18 52
-35 10z"/>
<path d="M180 236 c0 -23 18 -56 30 -56 17 0 11 36 -10 55 -19 17 -20 17 -20
1z"/>
<path d="M255 220 c16 -31 29 -37 40 -20 10 16 -14 50 -36 50 -19 0 -19 -2 -4
-30z"/>
</g>
</svg>
