<?xml version="1.0" standalone="no"?>
<!DOCTYPE svg PUBLIC "-//W3C//DTD SVG 20010904//EN"
 "http://www.w3.org/TR/2001/REC-SVG-20010904/DTD/svg10.dtd">
<svg version="1.0" xmlns="http://www.w3.org/2000/svg"
 width="90.000000pt" height="92.000000pt" viewBox="0 0 90.000000 92.000000"
 preserveAspectRatio="xMidYMid meet">
<metadata>
Created by potrace 1.16, written by Peter Selinger 2001-2019
</metadata>
<g transform="translate(0.000000,92.000000) scale(0.100000,-0.100000)"
fill="#000000" stroke="none">
<path d="M130 793 c0 -29 -42 -123 -80 -180 -32 -49 -8 -40 48 17 30 30 62 52
81 56 39 8 39 0 2 -75 -32 -63 -47 -71 -132 -71 -39 0 -39 -1 -25 -22 8 -13
17 -45 21 -73 12 -88 25 -128 38 -116 17 14 150 30 163 20 12 -10 34 8 34 29
0 8 9 46 20 83 l21 69 39 0 c38 0 39 -1 30 -24 -15 -41 -56 -119 -84 -158 -14
-21 -21 -38 -16 -38 15 0 78 68 100 108 l21 37 -6 -95 c-4 -52 -11 -115 -16
-139 -10 -44 3 -111 21 -111 18 0 25 44 30 198 l5 164 33 -47 c23 -32 37 -44
44 -37 21 21 4 55 -39 76 -35 17 -42 26 -40 46 2 20 11 27 50 38 26 7 47 17
47 22 0 16 -35 29 -51 19 -30 -19 -42 -11 -35 25 5 28 3 37 -13 48 -19 13 -17
16 35 41 59 29 63 43 22 66 -24 14 -27 12 -74 -36 -27 -27 -62 -59 -79 -72
l-30 -22 27 5 c14 3 33 8 41 12 11 4 17 -5 22 -35 4 -22 4 -44 1 -49 -11 -18
-78 -22 -108 -6 -28 15 -51 14 -94 -3 -21 -8 32 69 77 113 36 35 36 48 0 64
-24 9 -34 9 -59 -4 -46 -24 -55 -20 -37 15 15 29 15 32 -1 50 -26 29 -54 25
-54 -8z m130 -286 c0 -32 -1 -32 -37 -29 -34 3 -38 7 -39 33 -1 27 1 29 37 29
37 0 39 -1 39 -33z m-115 -7 c9 -28 -2 -40 -36 -40 -18 0 -29 5 -29 14 0 8 -3
21 -6 30 -5 13 1 16 29 16 27 0 37 -5 42 -20z m105 -72 c0 -32 -11 -43 -42
-43 -24 -1 -28 3 -28 25 0 34 7 40 42 40 22 0 28 -4 28 -22z m-102 -22 c-2
-25 -8 -32 -30 -34 -22 -3 -28 1 -28 17 0 10 -2 26 -5 33 -4 10 4 14 30 14 34
0 36 -2 33 -30z"/>
<path d="M605 740 c-3 -5 -1 -19 5 -30 12 -23 15 -248 4 -310 -10 -53 -72
-166 -111 -200 -36 -32 -24 -41 17 -13 53 35 84 70 110 126 l28 58 48 -92 c62
-119 74 -132 122 -123 20 3 41 10 45 14 4 4 -18 26 -49 50 -67 50 -154 178
-154 225 0 31 7 37 103 87 44 24 47 41 10 65 -25 17 -27 17 -37 -1 -6 -10 -24
-37 -41 -60 -36 -50 -39 -41 -27 76 4 47 6 91 4 97 -3 10 -53 41 -66 41 -3 0
-8 -4 -11 -10z"/>
<path d="M520 516 c0 -16 45 -76 54 -73 19 6 19 50 0 64 -17 12 -54 18 -54 9z"/>
<path d="M250 296 c0 -2 12 -25 26 -50 28 -51 47 -55 52 -13 3 21 -4 31 -30
47 -31 19 -48 25 -48 16z"/>
<path d="M21 241 c-23 -49 -25 -91 -4 -98 18 -6 43 50 43 96 0 57 -13 58 -39
2z"/>
<path d="M186 253 c9 -21 18 -44 21 -51 8 -19 28 -9 31 16 2 13 -7 32 -22 47
-37 37 -49 32 -30 -12z"/>
<path d="M90 276 c0 -21 43 -97 53 -93 17 6 11 56 -9 78 -15 17 -44 26 -44 15z"/>
</g>
</svg>
