<?xml version="1.0" standalone="no"?>
<!DOCTYPE svg PUBLIC "-//W3C//DTD SVG 20010904//EN"
 "http://www.w3.org/TR/2001/REC-SVG-20010904/DTD/svg10.dtd">
<svg version="1.0" xmlns="http://www.w3.org/2000/svg"
 width="96.000000pt" height="68.000000pt" viewBox="0 0 96.000000 68.000000"
 preserveAspectRatio="xMidYMid meet">
<metadata>
Created by potrace 1.16, written by Peter Selinger 2001-2019
</metadata>
<g transform="translate(0.000000,68.000000) scale(0.100000,-0.100000)"
fill="#000000" stroke="none">
<path d="M240 483 c-27 -8 -64 -12 -92 -9 -51 5 -56 2 -34 -23 7 -9 21 -49 31
-88 11 -47 22 -73 31 -73 8 0 14 4 14 9 0 6 31 13 69 17 54 5 68 10 64 21 -3
7 5 41 17 75 21 59 22 62 4 75 -22 16 -46 15 -104 -4z m43 -73 c-2 -30 -6 -57
-10 -61 -5 -3 -25 -10 -45 -13 l-37 -7 -17 56 c-9 31 -14 58 -12 59 6 6 103
24 113 21 6 -1 9 -26 8 -55z"/>
</g>
</svg>
