<?xml version="1.0" standalone="no"?>
<!DOCTYPE svg PUBLIC "-//W3C//DTD SVG 20010904//EN"
 "http://www.w3.org/TR/2001/REC-SVG-20010904/DTD/svg10.dtd">
<svg version="1.0" xmlns="http://www.w3.org/2000/svg"
 width="96.000000pt" height="68.000000pt" viewBox="0 0 96.000000 68.000000"
 preserveAspectRatio="xMidYMid meet">
<metadata>
Created by potrace 1.16, written by Peter Selinger 2001-2019
</metadata>
<g transform="translate(0.000000,68.000000) scale(0.100000,-0.100000)"
fill="#000000" stroke="none">
<path d="M605 224 c-33 -7 -76 -11 -95 -7 -29 5 -33 4 -24 -8 6 -8 17 -31 23
-51 11 -35 31 -52 31 -28 0 6 24 10 53 10 66 0 97 9 91 24 -3 7 2 19 11 26 16
14 21 40 6 40 -5 0 -15 2 -23 4 -7 2 -40 -3 -73 -10z m55 -28 c0 -22 -22 -34
-72 -37 -46 -4 -58 3 -58 31 0 9 34 16 93 19 25 1 37 -3 37 -13z"/>
</g>
</svg>
