<?xml version="1.0" standalone="no"?>
<!DOCTYPE svg PUBLIC "-//W3C//DTD SVG 20010904//EN"
 "http://www.w3.org/TR/2001/REC-SVG-20010904/DTD/svg10.dtd">
<svg version="1.0" xmlns="http://www.w3.org/2000/svg"
 width="96.000000pt" height="68.000000pt" viewBox="0 0 96.000000 68.000000"
 preserveAspectRatio="xMidYMid meet">
<metadata>
Created by potrace 1.16, written by Peter Selinger 2001-2019
</metadata>
<g transform="translate(0.000000,68.000000) scale(0.100000,-0.100000)"
fill="#000000" stroke="none">
<path d="M470 459 c-19 -5 -46 -6 -58 -3 -22 4 -23 3 -16 -28 4 -18 7 -51 8
-73 1 -44 -4 -42 95 -37 l38 2 17 64 c10 36 15 70 11 75 -7 13 -45 13 -95 0z
m50 -28 c0 -24 -4 -26 -52 -35 -31 -6 -36 -4 -33 11 2 10 4 21 4 25 1 4 11 9
24 11 47 9 57 7 57 -12z m0 -66 c0 -21 -5 -25 -30 -26 -16 -1 -36 -2 -42 -3
-7 -1 -13 8 -13 19 0 19 3 21 78 34 4 0 7 -10 7 -24z"/>
</g>
</svg>
