<?xml version="1.0" standalone="no"?>
<!DOCTYPE svg PUBLIC "-//W3C//DTD SVG 20010904//EN"
 "http://www.w3.org/TR/2001/REC-SVG-20010904/DTD/svg10.dtd">
<svg version="1.0" xmlns="http://www.w3.org/2000/svg"
 width="90.000000pt" height="92.000000pt" viewBox="0 0 90.000000 92.000000"
 preserveAspectRatio="xMidYMid meet">
<metadata>
Created by potrace 1.16, written by Peter Selinger 2001-2019
</metadata>
<g transform="translate(0.000000,92.000000) scale(0.100000,-0.100000)"
fill="#000000" stroke="none">
<path d="M410 854 c-102 -13 -197 -22 -212 -19 -32 5 -44 -8 -23 -25 8 -7 22
-38 31 -69 24 -81 31 -93 52 -81 29 16 313 42 328 29 22 -18 50 -1 69 41 10
22 27 47 37 57 40 36 41 51 6 73 -40 24 -53 24 -288 -6z m210 -38 c0 -12 -5
-36 -10 -52 -10 -27 -13 -29 -70 -30 l-59 0 20 33 c13 20 18 40 14 53 -6 18
-2 20 49 20 52 0 56 -2 56 -24z m-150 -3 c0 -10 -5 -35 -11 -55 -8 -33 -14
-38 -39 -38 -27 0 -28 3 -32 50 -3 53 0 57 55 59 19 1 27 -4 27 -16z m-121
-40 c16 -58 14 -63 -23 -63 -19 0 -41 -3 -49 -6 -10 -4 -17 7 -26 40 -14 57
-15 54 12 59 65 12 76 9 86 -30z"/>
<path d="M545 649 c-58 -17 -200 -39 -247 -39 -45 0 -69 -12 -48 -25 13 -8 13
-159 -1 -208 -14 -51 -4 -81 24 -73 94 25 212 45 299 51 132 9 135 7 120 -102
-8 -60 -16 -81 -36 -102 -24 -24 -28 -24 -68 -14 -24 6 -44 10 -46 8 -8 -8 74
-104 90 -104 26 -1 74 45 91 88 9 21 19 67 23 102 3 35 13 79 20 98 8 18 14
34 14 36 0 1 -18 10 -39 20 -36 16 -51 16 -148 6 -140 -14 -135 -15 -131 12 3
19 11 23 61 28 68 8 94 24 53 35 -15 3 -47 4 -72 1 -38 -4 -44 -2 -44 14 0 13
10 20 38 24 78 13 92 17 92 26 0 14 -46 22 -85 15 -30 -6 -35 -4 -35 13 0 11
-6 21 -12 24 -7 2 7 7 32 11 83 14 131 28 127 39 -5 17 -40 24 -72 16z m-144
-90 c14 -27 5 -35 -55 -44 -43 -6 -48 -5 -42 10 3 9 6 25 6 36 0 29 75 27 91
-2z m9 -89 c0 -12 -7 -20 -17 -20 -10 0 -35 -3 -55 -6 -34 -6 -38 -4 -38 14 0
17 7 22 43 25 23 2 48 4 55 5 6 1 12 -7 12 -18z m0 -74 c0 -27 -8 -31 -75 -41
l-47 -8 4 29 c3 27 6 29 58 35 30 3 56 6 58 7 1 1 2 -9 2 -22z"/>
<path d="M142 245 c-25 -52 -30 -69 -22 -90 11 -30 21 -31 42 -7 25 28 38 87
27 127 -6 19 -11 35 -12 35 -2 0 -17 -29 -35 -65z"/>
<path d="M521 283 c59 -79 99 -96 99 -42 0 25 -6 32 -35 45 -19 7 -44 14 -56
14 -19 0 -20 -2 -8 -17z"/>
<path d="M390 273 c0 -18 41 -73 54 -73 33 0 26 60 -10 74 -22 8 -44 8 -44 -1z"/>
<path d="M260 259 c0 -6 10 -29 22 -50 25 -45 51 -48 56 -7 3 22 -3 32 -30 48
-38 23 -48 25 -48 9z"/>
</g>
</svg>
