<?xml version="1.0" standalone="no"?>
<!DOCTYPE svg PUBLIC "-//W3C//DTD SVG 20010904//EN"
 "http://www.w3.org/TR/2001/REC-SVG-20010904/DTD/svg10.dtd">
<svg version="1.0" xmlns="http://www.w3.org/2000/svg"
 width="90.000000pt" height="92.000000pt" viewBox="0 0 90.000000 92.000000"
 preserveAspectRatio="xMidYMid meet">
<metadata>
Created by potrace 1.16, written by Peter Selinger 2001-2019
</metadata>
<g transform="translate(0.000000,92.000000) scale(0.100000,-0.100000)"
fill="#000000" stroke="none">
<path d="M564 750 c-27 -22 -77 -55 -111 -73 -35 -17 -63 -35 -63 -40 0 -8 37
-1 79 15 32 12 41 -3 41 -68 l0 -52 -65 -7 c-36 -3 -67 -10 -70 -15 -10 -17
51 -31 92 -22 l41 10 4 -60 c2 -33 1 -64 -2 -69 -3 -4 -43 -11 -88 -15 -45 -4
-82 -11 -82 -16 0 -5 15 -15 33 -22 27 -12 42 -12 97 0 36 7 115 14 177 14
112 0 143 5 143 21 0 5 -15 17 -34 26 -30 14 -44 15 -105 5 -38 -7 -75 -12
-80 -12 -12 0 -14 45 -5 103 l7 37 61 1 c33 0 69 4 79 8 17 6 17 8 -1 24 -23
21 -40 23 -101 12 l-43 -8 3 55 c3 34 -1 61 -8 70 -11 13 -4 18 47 33 68 21
77 40 31 68 -29 17 -29 17 -77 -23z"/>
<path d="M170 734 c-36 -13 -75 -24 -88 -24 -14 0 -21 -4 -16 -11 4 -8 30 -9
80 -4 41 4 74 3 74 0 0 -16 -60 -112 -84 -134 -27 -25 -32 -46 -17 -69 7 -11
16 -11 55 2 26 9 51 16 56 16 16 0 11 -45 -12 -105 -16 -43 -25 -54 -37 -49
-44 19 -90 26 -124 20 -43 -8 -50 -26 -9 -26 16 0 52 -7 81 -15 l52 -16 -23
-32 c-12 -18 -48 -58 -80 -90 -32 -31 -55 -57 -51 -57 23 0 116 65 151 106
l42 46 157 -90 c220 -125 221 -125 263 -119 39 5 209 64 223 77 5 4 -40 11
-100 14 -193 11 -295 37 -456 116 -77 38 -75 26 -21 153 l32 78 -21 14 c-18
11 -31 11 -69 3 -27 -6 -51 -9 -54 -5 -7 7 73 122 105 151 29 26 26 43 -9 61
-16 8 -30 15 -32 14 -2 -1 -32 -12 -68 -25z"/>
</g>
</svg>
