<?xml version="1.0" standalone="no"?>
<!DOCTYPE svg PUBLIC "-//W3C//DTD SVG 20010904//EN"
 "http://www.w3.org/TR/2001/REC-SVG-20010904/DTD/svg10.dtd">
<svg version="1.0" xmlns="http://www.w3.org/2000/svg"
 width="96.000000pt" height="68.000000pt" viewBox="0 0 96.000000 68.000000"
 preserveAspectRatio="xMidYMid meet">
<metadata>
Created by potrace 1.16, written by Peter Selinger 2001-2019
</metadata>
<g transform="translate(0.000000,68.000000) scale(0.100000,-0.100000)"
fill="#000000" stroke="none">
<path d="M440 394 c-74 -7 -142 -13 -150 -13 -10 -1 -11 -4 -3 -12 8 -8 35 -9
80 -5 37 3 115 9 172 12 l103 7 -7 -34 c-4 -19 -14 -44 -22 -57 -12 -19 -20
-22 -46 -16 l-32 7 26 -34 c14 -18 30 -34 36 -36 21 -7 62 39 79 90 9 28 22
58 27 66 18 22 -20 41 -77 40 -28 -1 -112 -7 -186 -15z"/>
</g>
</svg>
