<?xml version="1.0" standalone="no"?>
<!DOCTYPE svg PUBLIC "-//W3C//DTD SVG 20010904//EN"
 "http://www.w3.org/TR/2001/REC-SVG-20010904/DTD/svg10.dtd">
<svg version="1.0" xmlns="http://www.w3.org/2000/svg"
 width="96.000000pt" height="68.000000pt" viewBox="0 0 96.000000 68.000000"
 preserveAspectRatio="xMidYMid meet">
<metadata>
Created by potrace 1.16, written by Peter Selinger 2001-2019
</metadata>
<g transform="translate(0.000000,68.000000) scale(0.100000,-0.100000)"
fill="#000000" stroke="none">
<path d="M515 185 c-49 -7 -119 -14 -154 -14 -51 -1 -61 -4 -53 -14 7 -7 17
-38 23 -68 15 -72 27 -93 43 -80 7 6 72 14 144 17 111 6 132 10 132 23 0 9 12
39 25 66 l25 50 -21 15 c-25 20 -52 21 -164 5z m98 -64 c-1 -24 -7 -49 -12
-54 -11 -11 -220 -26 -226 -17 -2 3 -6 26 -10 52 l-7 46 89 7 c48 3 93 8 98 9
6 2 24 2 40 2 29 -1 30 -2 28 -45z"/>
</g>
</svg>
