<?xml version="1.0" standalone="no"?>
<!DOCTYPE svg PUBLIC "-//W3C//DTD SVG 20010904//EN"
 "http://www.w3.org/TR/2001/REC-SVG-20010904/DTD/svg10.dtd">
<svg version="1.0" xmlns="http://www.w3.org/2000/svg"
 width="96.000000pt" height="68.000000pt" viewBox="0 0 96.000000 68.000000"
 preserveAspectRatio="xMidYMid meet">
<metadata>
Created by potrace 1.16, written by Peter Selinger 2001-2019
</metadata>
<g transform="translate(0.000000,68.000000) scale(0.100000,-0.100000)"
fill="#000000" stroke="none">
<path d="M446 243 c-3 -3 -1 -14 4 -24 7 -12 6 -20 -1 -25 -9 -5 -6 -11 6 -21
11 -7 14 -13 8 -13 -6 0 -10 -27 -10 -70 1 -38 5 -70 9 -70 12 0 21 46 16 80
-3 17 0 30 6 30 6 0 4 5 -4 10 -12 7 -12 10 -1 10 7 0 11 6 8 14 -3 7 -1 18 5
24 6 6 6 12 -1 16 -5 4 -8 13 -5 20 5 13 -30 29 -40 19z"/>
<path d="M700 211 c0 -4 -21 -7 -47 -7 -79 0 -133 -7 -133 -17 0 -5 12 -6 27
-2 16 4 72 6 125 6 54 -1 100 3 103 9 7 11 5 12 -42 16 -18 1 -33 -1 -33 -5z"/>
<path d="M165 170 c-29 -6 -29 -6 -7 -14 24 -8 113 1 147 15 23 9 -92 8 -140
-1z"/>
</g>
</svg>
