<?xml version="1.0" standalone="no"?>
<!DOCTYPE svg PUBLIC "-//W3C//DTD SVG 20010904//EN"
 "http://www.w3.org/TR/2001/REC-SVG-20010904/DTD/svg10.dtd">
<svg version="1.0" xmlns="http://www.w3.org/2000/svg"
 width="96.000000pt" height="68.000000pt" viewBox="0 0 96.000000 68.000000"
 preserveAspectRatio="xMidYMid meet">
<metadata>
Created by potrace 1.16, written by Peter Selinger 2001-2019
</metadata>
<g transform="translate(0.000000,68.000000) scale(0.100000,-0.100000)"
fill="#000000" stroke="none">
<path d="M274 585 c7 -19 20 -115 15 -115 -2 0 -22 -7 -44 -15 l-40 -14 43 -1
c38 0 42 -2 42 -24 0 -22 -6 -26 -45 -32 -54 -8 -50 -24 6 -24 21 0 39 -4 39
-10 0 -17 29 -11 39 9 6 10 27 22 48 26 32 6 35 8 19 17 -9 5 -28 7 -42 4 -21
-6 -24 -3 -24 23 0 26 5 30 45 40 49 12 56 24 24 42 -15 8 -24 8 -32 0 -22
-22 -33 -11 -29 26 3 27 0 40 -14 50 -25 18 -58 17 -50 -2z"/>
</g>
</svg>
