<?xml version="1.0" standalone="no"?>
<!DOCTYPE svg PUBLIC "-//W3C//DTD SVG 20010904//EN"
 "http://www.w3.org/TR/2001/REC-SVG-20010904/DTD/svg10.dtd">
<svg version="1.0" xmlns="http://www.w3.org/2000/svg"
 width="90.000000pt" height="92.000000pt" viewBox="0 0 90.000000 92.000000"
 preserveAspectRatio="xMidYMid meet">
<metadata>
Created by potrace 1.16, written by Peter Selinger 2001-2019
</metadata>
<g transform="translate(0.000000,92.000000) scale(0.100000,-0.100000)"
fill="#000000" stroke="none">
<path d="M587 829 c-3 -35 -11 -65 -19 -70 -7 -5 -32 -9 -55 -9 -23 0 -44 -4
-48 -9 -9 -16 35 -34 66 -27 34 7 35 2 9 -64 -11 -28 -20 -55 -20 -61 0 -16
45 41 68 87 l21 42 75 4 c42 2 81 9 87 15 19 19 -44 41 -98 35 l-44 -5 17 43
c17 43 17 43 -5 62 -39 30 -48 23 -54 -43z"/>
<path d="M230 853 c0 -5 9 -32 20 -62 12 -29 19 -55 16 -58 -2 -2 -39 -7 -81
-10 l-77 -6 31 -31 31 -31 50 18 c28 10 54 16 59 13 5 -3 12 -21 15 -40 4 -19
13 -39 21 -46 17 -14 18 -12 19 64 1 46 3 49 35 60 19 6 36 17 39 24 4 14 -12
15 -55 3 -29 -8 -31 -7 -37 21 -3 17 -6 41 -6 53 0 15 -8 25 -22 29 -32 8 -58
7 -58 -1z"/>
<path d="M385 650 c-3 -5 -1 -18 5 -29 5 -11 10 -83 10 -164 l0 -144 -31 -7
c-46 -9 -79 -7 -116 6 -41 15 -51 5 -30 -31 9 -15 21 -69 28 -119 11 -90 31
-132 48 -104 5 8 65 16 167 23 187 13 191 14 174 34 -14 16 7 94 42 154 23 42
18 58 -25 76 -29 12 -42 11 -107 -6 -40 -10 -80 -19 -87 -19 -10 0 -13 19 -13
74 l0 73 90 7 c99 7 145 20 135 37 -15 23 -50 25 -124 8 -42 -10 -80 -18 -86
-19 -6 0 -9 27 -7 69 l4 69 -33 11 c-39 13 -36 13 -44 1z m219 -359 c6 -10
-12 -122 -23 -139 -6 -11 -267 -50 -275 -41 -2 2 -7 39 -11 82 l-7 77 44 1
c23 0 86 6 138 13 120 17 128 18 134 7z"/>
</g>
</svg>
