<?xml version="1.0" standalone="no"?>
<!DOCTYPE svg PUBLIC "-//W3C//DTD SVG 20010904//EN"
 "http://www.w3.org/TR/2001/REC-SVG-20010904/DTD/svg10.dtd">
<svg version="1.0" xmlns="http://www.w3.org/2000/svg"
 width="90.000000pt" height="92.000000pt" viewBox="0 0 90.000000 92.000000"
 preserveAspectRatio="xMidYMid meet">
<metadata>
Created by potrace 1.16, written by Peter Selinger 2001-2019
</metadata>
<g transform="translate(0.000000,92.000000) scale(0.100000,-0.100000)"
fill="#000000" stroke="none">
<path d="M615 852 c-94 -23 -93 -23 -69 -34 15 -7 44 -6 93 2 72 12 95 25 70
41 -17 10 -18 10 -94 -9z"/>
<path d="M353 827 c-56 -11 -66 -21 -32 -32 24 -8 149 13 149 25 0 21 -35 23
-117 7z"/>
<path d="M660 774 c-25 -8 -66 -15 -92 -15 l-48 -1 15 -28 c8 -16 15 -46 15
-68 0 -21 7 -47 15 -58 13 -17 14 -13 15 52 0 81 3 84 88 84 47 0 47 0 21 -86
-16 -52 11 -89 30 -41 5 12 19 49 32 81 l23 59 -23 18 c-27 22 -31 22 -91 3z"/>
<path d="M410 745 c-19 -7 -57 -14 -83 -14 -36 -1 -46 -4 -40 -13 4 -7 12 -42
18 -77 15 -89 35 -93 35 -7 l0 65 40 11 c22 6 45 8 51 4 6 -3 9 -33 7 -69 -4
-107 19 -102 46 10 16 69 16 70 -5 88 -25 20 -23 20 -69 2z"/>
<path d="M155 713 c-29 -10 -46 -11 -63 -4 -39 18 -45 14 -37 -26 9 -50 6
-276 -5 -333 -6 -33 -4 -54 6 -80 l15 -35 17 21 c9 12 33 25 53 28 34 6 37 4
49 -24 14 -35 33 -38 53 -10 11 17 13 61 11 233 -4 201 -5 213 -25 230 -24 19
-21 19 -74 0z m45 -113 c0 -79 0 -80 -26 -80 -14 0 -34 -5 -45 -10 -18 -10
-19 -7 -19 73 0 46 3 87 7 90 3 4 24 7 45 7 l38 0 0 -80z m0 -194 c0 -79 -1
-84 -20 -79 -11 3 -33 0 -50 -5 l-30 -11 0 47 c0 26 3 64 6 84 6 34 10 37 43
41 20 2 39 4 44 5 4 1 7 -36 7 -82z"/>
<path d="M600 693 c0 -16 31 -53 44 -53 17 0 27 23 17 38 -8 13 -61 27 -61 15z"/>
<path d="M368 639 c10 -17 22 -30 26 -30 3 1 11 1 16 1 6 0 10 9 10 20 0 20
-27 40 -55 40 -15 0 -15 -3 3 -31z"/>
<path d="M480 601 c0 -5 7 -14 15 -21 8 -7 15 -16 15 -20 0 -4 -39 -12 -87
-19 -116 -16 -118 -17 -99 -37 48 -48 -19 -294 -109 -398 -34 -39 -31 -43 8
-14 49 38 94 103 113 163 10 30 21 55 25 55 15 0 22 -72 16 -156 -8 -116 2
-121 87 -47 67 58 74 78 17 49 -49 -26 -61 -21 -61 22 l0 38 46 2 c47 2 64 7
64 22 0 16 -31 19 -70 5 l-40 -14 6 25 c3 13 1 30 -5 38 -9 11 2 15 60 20 55
6 74 4 80 -6 5 -7 9 -54 9 -105 0 -124 20 -143 149 -143 55 0 75 4 102 23 19
13 32 30 30 38 -2 8 -9 34 -16 58 -13 47 -18 46 -30 -7 -10 -46 -58 -66 -132
-57 -60 7 -81 31 -69 79 5 22 12 26 44 26 46 1 111 15 124 28 7 7 3 14 -10 21
-15 8 -34 6 -78 -9 -31 -11 -61 -20 -66 -20 -5 0 -6 16 -2 35 5 28 3 36 -12
42 -13 5 3 10 46 13 61 5 65 6 65 30 0 14 8 40 18 58 18 33 18 34 0 48 -13 10
-33 13 -68 10 -50 -6 -50 -5 -50 24 0 27 3 29 48 35 26 4 47 11 47 16 0 20
-48 31 -96 23 -43 -8 -50 -7 -71 13 -22 23 -63 32 -63 14z m90 -111 c0 -30
-15 -40 -57 -40 -22 0 -25 4 -21 25 3 14 0 29 -6 33 -11 7 62 21 77 14 4 -2 7
-16 7 -32z m-126 4 c12 -31 6 -52 -16 -58 -39 -10 -48 -7 -48 17 0 26 10 42
30 50 24 9 28 8 34 -9z m236 -71 c-1 -29 -25 -53 -54 -53 -22 0 -26 4 -26 28
0 37 6 42 47 42 25 0 33 -4 33 -17z m-118 -29 c-4 -32 -17 -44 -49 -44 -19 0
-23 5 -23 34 0 30 4 35 28 39 42 6 47 2 44 -29z m-112 -18 c0 -33 -2 -34 -42
-38 -24 -3 -43 -4 -44 -4 -1 1 1 18 4 39 4 36 6 37 43 37 38 0 39 -1 39 -34z"/>
</g>
</svg>
