<?xml version="1.0" standalone="no"?>
<!DOCTYPE svg PUBLIC "-//W3C//DTD SVG 20010904//EN"
 "http://www.w3.org/TR/2001/REC-SVG-20010904/DTD/svg10.dtd">
<svg version="1.0" xmlns="http://www.w3.org/2000/svg"
 width="96.000000pt" height="68.000000pt" viewBox="0 0 96.000000 68.000000"
 preserveAspectRatio="xMidYMid meet">
<metadata>
Created by potrace 1.16, written by Peter Selinger 2001-2019
</metadata>
<g transform="translate(0.000000,68.000000) scale(0.100000,-0.100000)"
fill="#000000" stroke="none">
<path d="M495 462 l-111 -15 4 -71 c2 -39 7 -74 11 -78 4 -4 58 -3 121 2 63 6
127 8 142 5 36 -8 48 16 48 94 0 89 -8 91 -215 63z m153 -63 c3 -56 3 -56 -29
-63 -18 -3 -70 -9 -116 -13 l-84 -6 3 59 3 59 90 11 c134 17 129 19 133 -47z"/>
</g>
</svg>
