<?xml version="1.0" standalone="no"?>
<!DOCTYPE svg PUBLIC "-//W3C//DTD SVG 20010904//EN"
 "http://www.w3.org/TR/2001/REC-SVG-20010904/DTD/svg10.dtd">
<svg version="1.0" xmlns="http://www.w3.org/2000/svg"
 width="96.000000pt" height="68.000000pt" viewBox="0 0 96.000000 68.000000"
 preserveAspectRatio="xMidYMid meet">
<metadata>
Created by potrace 1.16, written by Peter Selinger 2001-2019
</metadata>
<g transform="translate(0.000000,68.000000) scale(0.100000,-0.100000)"
fill="#000000" stroke="none">
<path d="M587 589 c-10 -18 -16 -34 -14 -36 3 -2 24 6 47 18 39 21 41 23 24
36 -27 19 -37 16 -57 -18z"/>
<path d="M420 565 c25 -27 45 -32 56 -13 9 15 -24 38 -55 38 l-24 0 23 -25z"/>
<path d="M523 526 c-105 -11 -195 -24 -199 -28 -10 -11 41 -10 166 2 58 5 145
13 194 16 82 6 100 15 51 27 -11 2 -106 -5 -212 -17z"/>
</g>
</svg>
