<?xml version="1.0" standalone="no"?>
<!DOCTYPE svg PUBLIC "-//W3C//DTD SVG 20010904//EN"
 "http://www.w3.org/TR/2001/REC-SVG-20010904/DTD/svg10.dtd">
<svg version="1.0" xmlns="http://www.w3.org/2000/svg"
 width="96.000000pt" height="68.000000pt" viewBox="0 0 96.000000 68.000000"
 preserveAspectRatio="xMidYMid meet">
<metadata>
Created by potrace 1.16, written by Peter Selinger 2001-2019
</metadata>
<g transform="translate(0.000000,68.000000) scale(0.100000,-0.100000)"
fill="#000000" stroke="none">
<path d="M544 573 c2 -10 8 -46 11 -80 4 -35 11 -63 16 -63 30 0 43 143 13
154 -29 11 -46 7 -40 -11z"/>
<path d="M663 514 c-18 -24 -30 -44 -27 -44 3 0 30 12 61 27 l55 27 -22 18
c-12 10 -25 18 -29 17 -3 0 -21 -20 -38 -45z"/>
<path d="M446 508 c15 -27 38 -48 51 -48 20 0 16 38 -6 50 -28 14 -54 13 -45
-2z"/>
</g>
</svg>
