<?xml version="1.0" standalone="no"?>
<!DOCTYPE svg PUBLIC "-//W3C//DTD SVG 20010904//EN"
 "http://www.w3.org/TR/2001/REC-SVG-20010904/DTD/svg10.dtd">
<svg version="1.0" xmlns="http://www.w3.org/2000/svg"
 width="96.000000pt" height="68.000000pt" viewBox="0 0 96.000000 68.000000"
 preserveAspectRatio="xMidYMid meet">
<metadata>
Created by potrace 1.16, written by Peter Selinger 2001-2019
</metadata>
<g transform="translate(0.000000,68.000000) scale(0.100000,-0.100000)"
fill="#000000" stroke="none">
<path d="M256 531 c4 -22 1 -70 -6 -106 l-12 -65 -64 0 c-35 0 -64 -4 -64 -10
0 -19 41 -32 81 -25 l40 7 -15 -37 c-9 -21 -16 -39 -16 -41 0 -1 18 -13 40
-25 22 -13 40 -26 40 -30 0 -12 -32 -41 -79 -71 -25 -15 -39 -28 -33 -28 21 0
84 29 118 55 l31 24 23 -24 c13 -14 32 -25 42 -25 27 0 22 35 -8 58 l-27 19
25 64 c14 35 28 72 31 82 4 9 13 17 22 17 8 0 15 2 15 5 0 12 -42 45 -64 51
-21 5 -25 2 -28 -23 -2 -24 -8 -28 -35 -31 -40 -4 -40 0 -11 90 25 78 19 101
-26 106 -26 3 -26 2 -20 -37z m79 -241 c-9 -27 -20 -52 -25 -55 -13 -8 -70 16
-70 29 0 7 5 27 11 44 9 26 18 33 52 40 23 4 43 4 45 0 2 -4 -4 -30 -13 -58z"/>
</g>
</svg>
