<?xml version="1.0" standalone="no"?>
<!DOCTYPE svg PUBLIC "-//W3C//DTD SVG 20010904//EN"
 "http://www.w3.org/TR/2001/REC-SVG-20010904/DTD/svg10.dtd">
<svg version="1.0" xmlns="http://www.w3.org/2000/svg"
 width="90.000000pt" height="92.000000pt" viewBox="0 0 90.000000 92.000000"
 preserveAspectRatio="xMidYMid meet">
<metadata>
Created by potrace 1.16, written by Peter Selinger 2001-2019
</metadata>
<g transform="translate(0.000000,92.000000) scale(0.100000,-0.100000)"
fill="#000000" stroke="none">
<path d="M520 833 c0 -10 15 -43 34 -74 l34 -57 -45 -6 c-78 -10 -111 -7 -122
11 -5 10 -11 16 -13 13 -12 -15 -49 -170 -43 -179 19 -32 47 2 60 73 6 28 12
36 29 36 11 0 55 9 96 20 100 26 200 37 200 21 0 -6 -9 -30 -21 -52 -11 -23
-19 -43 -17 -45 8 -7 123 45 133 60 7 11 2 23 -20 46 -39 40 -52 43 -126 25
-81 -19 -78 -19 -72 5 9 33 -16 76 -56 98 -47 27 -51 27 -51 5z"/>
<path d="M160 797 c0 -8 13 -39 30 -70 21 -39 26 -57 17 -60 -7 -3 -54 -11
-105 -18 -98 -14 -115 -27 -62 -49 25 -10 40 -10 88 3 31 9 97 23 146 32 49 8
91 17 93 19 11 11 -35 30 -68 29 -38 -2 -39 -1 -39 31 0 41 -16 61 -62 81 -31
13 -38 13 -38 2z"/>
<path d="M587 606 c-13 -20 -83 -76 -153 -124 -17 -11 -16 -12 11 -9 17 2 38
8 48 12 15 6 17 1 17 -38 0 -50 5 -46 -87 -67 -60 -14 -66 -23 -24 -38 21 -8
40 -7 68 3 l38 13 11 -78 c15 -99 36 -135 91 -156 82 -32 236 -2 256 49 3 7
-5 43 -18 80 l-22 66 -12 -53 c-7 -30 -21 -62 -32 -72 -26 -23 -127 -31 -170
-14 -38 16 -49 44 -49 125 0 75 -5 71 132 88 54 6 98 16 98 21 0 15 -34 35
-60 36 -14 0 -56 -9 -93 -20 l-69 -19 7 39 c5 32 3 41 -9 46 -27 10 -18 22 38
48 30 14 57 30 61 35 5 9 -40 51 -55 51 -4 0 -15 -11 -23 -24z"/>
<path d="M178 541 c-31 -9 -60 -19 -63 -23 -15 -15 49 -20 108 -8 70 15 89 26
67 40 -20 13 -44 11 -112 -9z"/>
<path d="M218 455 c-3 -3 -25 -9 -48 -13 -60 -10 -65 -32 -8 -32 50 1 126 14
136 24 3 4 0 11 -8 16 -16 10 -63 13 -72 5z"/>
<path d="M215 344 c-22 -9 -61 -15 -87 -15 -52 0 -56 -3 -34 -25 8 -8 20 -38
26 -68 10 -49 39 -107 40 -79 0 6 19 14 43 18 92 14 99 16 87 30 -9 10 -5 28
16 71 26 55 26 58 9 71 -23 16 -49 16 -100 -3z m39 -42 c-1 -6 -2 -27 -2 -46
-2 -30 -6 -35 -42 -44 -38 -9 -40 -9 -45 14 -3 13 -7 35 -10 48 -4 21 0 25 33
34 46 12 67 11 66 -6z"/>
</g>
</svg>
