<?xml version="1.0" standalone="no"?>
<!DOCTYPE svg PUBLIC "-//W3C//DTD SVG 20010904//EN"
 "http://www.w3.org/TR/2001/REC-SVG-20010904/DTD/svg10.dtd">
<svg version="1.0" xmlns="http://www.w3.org/2000/svg"
 width="96.000000pt" height="68.000000pt" viewBox="0 0 96.000000 68.000000"
 preserveAspectRatio="xMidYMid meet">
<metadata>
Created by potrace 1.16, written by Peter Selinger 2001-2019
</metadata>
<g transform="translate(0.000000,68.000000) scale(0.100000,-0.100000)"
fill="#000000" stroke="none">
<path d="M210 552 c0 -18 52 -82 68 -83 38 -1 -25 -18 -110 -29 -64 -9 -85
-15 -82 -25 3 -7 15 -15 26 -18 19 -5 275 32 288 41 3 2 -4 10 -15 18 -12 9
-31 12 -52 8 -32 -6 -33 -5 -27 23 5 25 1 34 -21 52 -27 20 -75 29 -75 13z"/>
<path d="M645 504 c-22 -20 -53 -43 -70 -52 -23 -12 -26 -17 -13 -20 9 -2 26
1 36 7 11 6 22 7 26 4 3 -3 6 -53 6 -110 l0 -103 -26 0 c-25 0 -26 1 -22 58 3
51 1 57 -18 60 -19 3 -20 -1 -16 -63 4 -62 3 -67 -19 -72 l-23 -6 22 -8 c12
-5 47 -4 79 1 32 5 88 12 126 15 37 4 67 10 67 15 0 13 -41 19 -87 13 l-43 -6
0 51 0 51 45 7 c25 3 48 10 50 14 9 14 -33 22 -54 11 -29 -16 -31 -15 -31 33
0 31 -5 46 -16 50 -22 8 -9 23 26 31 36 8 46 21 30 40 -19 22 -32 18 -75 -21z"/>
<path d="M423 423 c-41 -16 -43 -31 -3 -25 39 6 38 -5 -4 -59 -39 -48 -38 -63
4 -54 31 7 42 -9 33 -45 -5 -18 -11 -21 -34 -16 -16 3 -29 1 -29 -4 0 -6 3
-10 8 -10 4 0 13 -4 21 -9 12 -8 7 -19 -24 -60 -22 -28 -43 -51 -47 -51 -4 0
-8 -4 -8 -10 0 -23 27 -7 76 45 l52 55 120 -60 121 -59 57 15 c106 27 101 39
-20 48 -106 7 -266 57 -266 83 0 8 7 28 16 44 23 45 13 60 -36 54 -22 -3 -40
-2 -40 3 0 4 12 21 28 38 70 79 66 71 35 81 -20 7 -37 6 -60 -4z"/>
<path d="M230 357 c-36 -9 -40 -12 -21 -15 36 -6 131 8 131 19 0 12 -52 10
-110 -4z"/>
<path d="M237 290 c-52 -10 -58 -20 -11 -20 56 0 114 11 114 21 0 10 -48 10
-103 -1z"/>
<path d="M275 220 c-11 -5 -44 -9 -74 -9 -52 -1 -53 -2 -38 -19 9 -10 20 -33
23 -50 9 -45 21 -51 87 -39 40 8 57 16 57 27 0 8 7 28 15 44 24 46 -12 71 -70
46z m23 -52 c-2 -27 -9 -34 -36 -42 -38 -11 -40 -9 -48 31 -7 34 2 39 59 42
26 1 28 -2 25 -31z"/>
</g>
</svg>
