<?xml version="1.0" standalone="no"?>
<!DOCTYPE svg PUBLIC "-//W3C//DTD SVG 20010904//EN"
 "http://www.w3.org/TR/2001/REC-SVG-20010904/DTD/svg10.dtd">
<svg version="1.0" xmlns="http://www.w3.org/2000/svg"
 width="96.000000pt" height="68.000000pt" viewBox="0 0 96.000000 68.000000"
 preserveAspectRatio="xMidYMid meet">
<metadata>
Created by potrace 1.16, written by Peter Selinger 2001-2019
</metadata>
<g transform="translate(0.000000,68.000000) scale(0.100000,-0.100000)"
fill="#000000" stroke="none">
<path d="M410 610 c0 -27 -76 -99 -150 -141 -95 -55 -76 -68 27 -20 35 17 65
26 68 20 4 -5 19 -9 36 -9 43 0 40 -30 -3 -31 -18 0 -42 -4 -53 -8 -19 -8 -19
-8 2 -15 13 -4 37 -8 53 -8 27 -1 31 -4 28 -27 -3 -29 -37 -43 -34 -15 0 11
-9 20 -26 25 -34 9 -43 1 -22 -22 15 -17 13 -18 -35 -25 -51 -7 -64 -17 -36
-28 35 -13 -3 -73 -82 -127 -54 -37 -50 -48 6 -20 43 22 81 27 81 11 0 -5 0
-13 0 -17 0 -5 -15 -13 -33 -20 l-32 -11 38 -1 c34 -1 37 -3 37 -31 0 -36 -27
-50 -96 -50 -50 0 -57 -12 -16 -29 19 -8 36 -9 53 -2 14 5 57 17 95 26 83 21
108 38 41 29 l-47 -7 0 36 c0 32 3 36 38 45 37 10 37 10 6 11 -17 1 -33 4 -37
7 -13 13 7 34 31 34 19 0 23 3 15 11 -8 8 -25 8 -59 1 -27 -6 -51 -9 -53 -6
-2 2 14 20 38 40 29 25 40 42 36 54 -5 15 6 18 101 24 58 4 108 5 112 2 12
-13 -21 -58 -72 -98 -59 -45 -66 -59 -19 -35 39 20 103 11 103 -14 0 -14 -7
-19 -27 -19 -16 0 -35 -5 -43 -10 -11 -7 -4 -10 28 -10 l42 0 0 -39 c0 -45
-11 -51 -100 -51 -36 0 -51 -3 -44 -10 6 -6 75 -8 193 -3 162 5 182 8 165 21
-14 10 -38 13 -97 8 l-78 -5 3 42 c3 36 6 42 28 45 49 6 56 16 15 21 -53 8
-54 32 -1 43 30 6 43 5 56 -7 11 -10 37 -15 74 -15 65 0 67 14 4 24 -52 8
-172 75 -176 99 -3 13 4 17 32 17 38 0 57 17 35 31 -8 5 -36 9 -64 10 -27 0
-44 3 -37 6 17 7 15 32 -4 40 -9 3 -28 -7 -50 -28 l-34 -33 0 31 c0 29 3 31
45 37 24 4 47 11 50 16 7 11 -50 23 -75 15 -14 -5 -20 -2 -20 9 0 9 8 16 18
16 9 0 29 6 44 14 24 13 30 12 65 -13 32 -22 48 -26 106 -25 37 0 72 5 78 11
13 13 8 14 -91 37 -90 20 -220 83 -220 106 0 18 -19 30 -46 30 -8 0 -14 -9
-14 -20z m87 -75 c23 -14 43 -27 43 -28 0 -1 -17 -2 -37 -2 -21 0 -60 -4 -88
-8 l-50 -7 39 35 c22 19 42 35 44 35 3 0 25 -11 49 -25z m119 -287 l28 -23
-29 -6 c-17 -4 -49 -7 -73 -8 l-42 -1 32 30 c40 36 47 36 84 8z"/>
<path d="M330 265 c0 -12 42 -45 56 -45 19 0 26 16 11 28 -16 14 -67 26 -67
17z"/>
<path d="M350 100 c-11 -21 -4 -25 24 -14 8 3 12 12 9 20 -7 20 -20 17 -33 -6z"/>
<path d="M640 107 c0 -9 -6 -17 -12 -20 -25 -9 -1 -16 28 -8 34 9 39 35 7 39
-15 2 -23 -2 -23 -11z"/>
<path d="M202 80 c7 -11 18 -20 25 -20 18 0 16 27 -3 34 -28 11 -34 6 -22 -14z"/>
<path d="M470 91 c0 -14 28 -33 39 -27 16 10 1 36 -20 36 -10 0 -19 -4 -19 -9z"/>
</g>
</svg>
