<?xml version="1.0" standalone="no"?>
<!DOCTYPE svg PUBLIC "-//W3C//DTD SVG 20010904//EN"
 "http://www.w3.org/TR/2001/REC-SVG-20010904/DTD/svg10.dtd">
<svg version="1.0" xmlns="http://www.w3.org/2000/svg"
 width="96.000000pt" height="68.000000pt" viewBox="0 0 96.000000 68.000000"
 preserveAspectRatio="xMidYMid meet">
<metadata>
Created by potrace 1.16, written by Peter Selinger 2001-2019
</metadata>
<g transform="translate(0.000000,68.000000) scale(0.100000,-0.100000)"
fill="#000000" stroke="none">
<path d="M397 603 c-4 -3 -2 -12 3 -18 6 -7 13 -33 16 -59 8 -56 0 -65 -61
-67 -62 -2 -144 -24 -122 -33 24 -11 23 -90 -3 -191 -19 -74 -30 -99 -76 -171
-18 -29 -18 -29 1 -14 54 41 82 83 109 168 10 28 20 52 23 52 8 0 98 -66 133
-97 24 -21 27 -29 18 -40 -16 -20 -79 -51 -147 -73 -47 -16 -51 -19 -25 -19
32 -1 113 24 176 54 l36 18 44 -36 c73 -60 90 -63 241 -41 20 3 37 9 37 13 0
4 -39 15 -87 25 -84 17 -193 58 -193 72 0 3 23 37 50 75 28 38 50 75 50 83 0
21 -62 31 -102 17 -43 -15 -51 -4 -43 62 l7 56 53 6 c30 4 58 6 64 4 5 -2 2
-20 -9 -41 -10 -21 -14 -38 -8 -38 21 0 128 65 128 78 0 14 -57 41 -92 44 -13
0 -49 -3 -82 -7 l-58 -8 5 34 c3 19 8 43 12 55 5 16 0 23 -20 32 -28 13 -68
16 -78 5z m23 -237 l0 -63 -61 -7 c-34 -4 -63 -5 -66 -2 -3 3 -2 32 2 65 7 65
9 67 88 70 l37 1 0 -64z m115 -98 c-10 -33 -47 -98 -56 -98 -12 0 -92 56 -113
78 -18 20 -17 21 31 27 26 4 53 8 58 10 6 2 27 4 48 4 35 1 38 -1 32 -21z"/>
</g>
</svg>
