<?xml version="1.0" standalone="no"?>
<!DOCTYPE svg PUBLIC "-//W3C//DTD SVG 20010904//EN"
 "http://www.w3.org/TR/2001/REC-SVG-20010904/DTD/svg10.dtd">
<svg version="1.0" xmlns="http://www.w3.org/2000/svg"
 width="96.000000pt" height="68.000000pt" viewBox="0 0 96.000000 68.000000"
 preserveAspectRatio="xMidYMid meet">
<metadata>
Created by potrace 1.16, written by Peter Selinger 2001-2019
</metadata>
<g transform="translate(0.000000,68.000000) scale(0.100000,-0.100000)"
fill="#000000" stroke="none">
<path d="M470 315 c-36 -7 -91 -16 -122 -20 -66 -7 -74 -22 -25 -48 17 -10 54
-38 80 -64 l48 -46 -32 -21 c-18 -11 -66 -33 -108 -48 l-76 -29 51 5 c28 3 83
19 122 36 l71 32 43 -35 c68 -55 83 -60 157 -53 131 13 158 28 74 41 -61 9
-193 51 -216 69 -17 13 -15 19 37 92 31 44 52 82 47 87 -15 15 -84 16 -151 2z
m65 -47 c-11 -36 -48 -98 -58 -98 -5 0 -36 21 -69 48 l-61 47 59 11 c32 7 76
12 97 13 35 1 38 -1 32 -21z"/>
</g>
</svg>
