<?xml version="1.0" standalone="no"?>
<!DOCTYPE svg PUBLIC "-//W3C//DTD SVG 20010904//EN"
 "http://www.w3.org/TR/2001/REC-SVG-20010904/DTD/svg10.dtd">
<svg version="1.0" xmlns="http://www.w3.org/2000/svg"
 width="96.000000pt" height="68.000000pt" viewBox="0 0 96.000000 68.000000"
 preserveAspectRatio="xMidYMid meet">
<metadata>
Created by potrace 1.16, written by Peter Selinger 2001-2019
</metadata>
<g transform="translate(0.000000,68.000000) scale(0.100000,-0.100000)"
fill="#000000" stroke="none">
<path d="M519 563 c-7 -21 -27 -58 -46 -82 -37 -48 -37 -59 -1 -40 12 7 28 12
33 10 6 -1 7 1 3 4 -16 17 41 45 90 45 78 0 142 11 142 25 0 20 -41 25 -106
15 -32 -6 -60 -10 -62 -10 -2 0 4 7 12 16 30 29 14 54 -34 54 -12 0 -22 -12
-31 -37z"/>
<path d="M271 555 c-11 -32 -91 -140 -116 -157 -5 -5 -1 -8 10 -8 11 0 43 20
70 43 48 42 54 44 129 50 43 3 83 10 88 15 15 15 -26 34 -57 27 -14 -3 -37 -8
-52 -11 l-28 -6 24 25 23 25 -30 16 c-43 22 -46 21 -61 -19z"/>
<path d="M550 461 c0 -13 66 -61 85 -61 27 0 31 31 6 52 -23 18 -91 25 -91 9z"/>
<path d="M286 451 c-5 -8 25 -40 51 -55 29 -16 57 20 31 41 -18 14 -76 24 -82
14z"/>
<path d="M411 397 c-13 -35 -88 -117 -108 -117 -7 0 -13 -4 -13 -8 0 -5 -10
-14 -22 -20 -109 -57 -151 -81 -138 -81 52 -1 211 91 292 168 l38 35 42 -34
c24 -18 50 -40 58 -47 104 -94 130 -106 207 -98 73 8 73 20 2 36 -78 18 -274
125 -296 162 -4 8 -18 19 -30 25 -19 11 -22 8 -32 -21z"/>
<path d="M460 255 c-36 -7 -83 -13 -105 -14 -29 -1 -36 -4 -25 -11 14 -9 63
-7 178 6 36 4 52 10 52 20 0 16 -10 16 -100 -1z"/>
<path d="M430 169 c-36 -5 -84 -7 -107 -4 -41 6 -60 -6 -29 -18 7 -3 19 -28
26 -56 12 -52 39 -88 47 -63 3 9 36 12 119 12 69 0 114 4 114 10 0 6 -4 10
-10 10 -14 0 0 31 27 60 30 32 29 36 -8 49 -36 13 -85 12 -179 0z m117 -50
c-3 -23 -9 -45 -14 -49 -4 -5 -44 -10 -88 -12 l-79 -3 -9 38 c-5 21 -7 40 -5
42 4 4 109 19 167 23 l34 3 -6 -42z"/>
</g>
</svg>
