<?xml version="1.0" standalone="no"?>
<!DOCTYPE svg PUBLIC "-//W3C//DTD SVG 20010904//EN"
 "http://www.w3.org/TR/2001/REC-SVG-20010904/DTD/svg10.dtd">
<svg version="1.0" xmlns="http://www.w3.org/2000/svg"
 width="96.000000pt" height="68.000000pt" viewBox="0 0 96.000000 68.000000"
 preserveAspectRatio="xMidYMid meet">
<metadata>
Created by potrace 1.16, written by Peter Selinger 2001-2019
</metadata>
<g transform="translate(0.000000,68.000000) scale(0.100000,-0.100000)"
fill="#000000" stroke="none">
<path d="M435 169 c-38 -5 -92 -7 -120 -3 -49 5 -50 5 -29 -13 12 -10 29 -44
38 -75 17 -60 32 -79 42 -54 5 13 26 16 120 16 63 0 114 4 114 9 0 5 -6 11
-12 14 -9 3 -2 18 21 46 18 23 31 44 30 45 -32 27 -79 30 -204 15z m112 -50
c-3 -23 -9 -45 -14 -49 -4 -5 -44 -10 -88 -12 l-79 -3 -9 38 c-5 21 -7 40 -5
42 5 5 127 22 172 24 28 1 29 0 23 -40z"/>
</g>
</svg>
