<?xml version="1.0" standalone="no"?>
<!DOCTYPE svg PUBLIC "-//W3C//DTD SVG 20010904//EN"
 "http://www.w3.org/TR/2001/REC-SVG-20010904/DTD/svg10.dtd">
<svg version="1.0" xmlns="http://www.w3.org/2000/svg"
 width="90.000000pt" height="92.000000pt" viewBox="0 0 90.000000 92.000000"
 preserveAspectRatio="xMidYMid meet">
<metadata>
Created by potrace 1.16, written by Peter Selinger 2001-2019
</metadata>
<g transform="translate(0.000000,92.000000) scale(0.100000,-0.100000)"
fill="#000000" stroke="none">
<path d="M590 854 c-6 -14 -10 -28 -10 -32 0 -4 -12 -25 -26 -46 l-26 -38 57
-54 c59 -56 72 -63 81 -41 9 26 -16 67 -51 84 -19 9 -35 20 -35 24 0 4 16 21
35 38 39 34 43 51 17 74 -25 23 -31 21 -42 -9z"/>
<path d="M254 843 c-3 -10 -16 -41 -29 -68 -14 -28 -25 -55 -24 -60 2 -19 99
-99 109 -89 18 18 -5 67 -38 83 -41 20 -40 33 3 65 38 30 43 46 19 70 -20 21
-33 20 -40 -1z"/>
<path d="M424 838 c-3 -13 -19 -42 -34 -64 l-28 -42 55 -47 c43 -38 57 -45 64
-34 5 8 9 18 9 22 0 14 -49 57 -65 57 -27 0 -16 29 20 52 36 24 44 45 23 66
-18 18 -36 14 -44 -10z"/>
<path d="M420 619 c-52 -10 -119 -18 -148 -18 -52 -1 -52 -1 -38 -23 8 -13 17
-42 21 -65 7 -43 22 -64 34 -46 3 5 68 16 144 23 106 11 137 17 133 27 -3 7 8
28 25 47 l29 34 -26 21 c-31 25 -47 25 -174 0z m100 -48 c0 -26 -4 -30 -47
-40 -27 -6 -78 -15 -115 -19 l-68 -8 0 27 c0 15 5 31 10 34 18 11 134 33 178
34 40 1 42 0 42 -28z"/>
<path d="M558 475 c-3 -3 -76 -17 -162 -30 -111 -18 -163 -22 -176 -15 -10 6
-20 10 -23 10 -2 0 -1 -64 1 -142 5 -168 9 -178 90 -216 51 -24 71 -27 193
-30 144 -4 231 10 293 46 47 28 52 43 28 94 -12 24 -22 52 -22 61 0 32 -18 26
-25 -9 -10 -57 -26 -82 -61 -99 -73 -35 -288 -42 -396 -14 -44 11 -58 33 -58
87 0 46 -8 44 205 63 152 13 163 15 147 31 -11 11 3 42 41 85 23 26 14 44 -34
69 -31 16 -33 16 -41 9z m-13 -92 c-4 -27 -8 -48 -8 -49 -1 -1 -30 -5 -65 -11
l-62 -10 2 51 c3 58 11 63 92 65 l48 1 -7 -47z m-175 -23 c0 -56 0 -56 -77
-64 -52 -5 -53 -5 -53 22 0 55 10 69 53 80 76 18 77 18 77 -38z"/>
</g>
</svg>
