<?xml version="1.0" standalone="no"?>
<!DOCTYPE svg PUBLIC "-//W3C//DTD SVG 20010904//EN"
 "http://www.w3.org/TR/2001/REC-SVG-20010904/DTD/svg10.dtd">
<svg version="1.0" xmlns="http://www.w3.org/2000/svg"
 width="96.000000pt" height="68.000000pt" viewBox="0 0 96.000000 68.000000"
 preserveAspectRatio="xMidYMid meet">
<metadata>
Created by potrace 1.16, written by Peter Selinger 2001-2019
</metadata>
<g transform="translate(0.000000,68.000000) scale(0.100000,-0.100000)"
fill="#000000" stroke="none">
<path d="M250 607 c0 -8 -13 -32 -29 -55 -33 -45 -35 -40 36 -90 39 -27 53
-28 53 -4 0 21 -24 45 -55 56 -19 8 -19 8 -1 19 52 33 59 42 47 65 -13 24 -51
30 -51 9z"/>
<path d="M547 603 c-3 -10 -15 -32 -27 -49 l-21 -32 48 -35 c27 -20 52 -32 57
-27 14 14 -1 39 -31 52 -15 7 -30 14 -33 16 -3 2 11 16 30 32 29 24 32 30 21
44 -18 21 -37 20 -44 -1z"/>
<path d="M387 569 c-15 -22 -27 -44 -27 -49 0 -7 74 -60 85 -60 3 0 5 9 5 19
0 12 -13 24 -37 34 l-37 14 42 28 c33 22 40 31 31 41 -19 23 -34 16 -62 -27z"/>
<path d="M385 438 c-66 -10 -130 -16 -142 -13 l-21 5 24 -49 c23 -48 24 -49
56 -41 18 5 77 11 131 15 69 5 97 11 97 20 0 7 10 19 22 27 12 8 18 19 15 25
-16 26 -63 29 -182 11z m103 -30 c-3 -21 -12 -24 -102 -37 -83 -11 -100 -11
-107 0 -5 8 -9 17 -9 21 0 10 121 33 193 37 24 1 28 -2 25 -21z"/>
<path d="M405 319 c-77 -10 -155 -18 -174 -16 l-34 2 2 -75 c4 -131 15 -152
95 -175 119 -36 333 -27 417 16 44 22 43 19 15 94 l-15 40 -16 -39 c-23 -54
-33 -62 -97 -76 -68 -15 -303 -9 -335 8 -18 10 -23 22 -23 51 l0 38 68 7 c37
3 106 9 155 12 69 5 87 10 87 22 0 9 12 29 28 45 l27 29 -24 19 c-13 10 -26
19 -30 18 -3 0 -69 -9 -146 -20z m110 -19 c3 -5 0 -22 -7 -37 -11 -23 -22 -29
-63 -35 -27 -4 -51 -5 -53 -4 -10 10 12 75 27 79 32 9 90 7 96 -3z m-164 -22
c5 -54 -8 -68 -69 -68 -43 0 -43 0 -40 32 2 25 9 34 28 39 41 12 80 10 81 -3z"/>
</g>
</svg>
