<?xml version="1.0" standalone="no"?>
<!DOCTYPE svg PUBLIC "-//W3C//DTD SVG 20010904//EN"
 "http://www.w3.org/TR/2001/REC-SVG-20010904/DTD/svg10.dtd">
<svg version="1.0" xmlns="http://www.w3.org/2000/svg"
 width="96.000000pt" height="68.000000pt" viewBox="0 0 96.000000 68.000000"
 preserveAspectRatio="xMidYMid meet">
<metadata>
Created by potrace 1.16, written by Peter Selinger 2001-2019
</metadata>
<g transform="translate(0.000000,68.000000) scale(0.100000,-0.100000)"
fill="#000000" stroke="none">
<path d="M578 515 l5 -85 -39 0 c-47 0 -75 -14 -49 -24 9 -3 34 -6 56 -6 39 0
39 0 39 -39 l0 -39 -52 -7 c-29 -3 -66 -9 -82 -12 -26 -5 -27 -7 -11 -15 12
-7 50 -7 119 1 55 6 143 14 194 17 50 4 92 10 92 15 0 16 -45 21 -131 14 l-89
-7 0 40 c0 44 -8 39 90 58 17 3 30 9 30 14 0 13 -38 18 -75 10 -20 -4 -38 -4
-41 1 -3 5 -4 37 -3 71 2 53 0 63 -17 69 -39 15 -41 12 -36 -76z"/>
</g>
</svg>
