<?xml version="1.0" standalone="no"?>
<!DOCTYPE svg PUBLIC "-//W3C//DTD SVG 20010904//EN"
 "http://www.w3.org/TR/2001/REC-SVG-20010904/DTD/svg10.dtd">
<svg version="1.0" xmlns="http://www.w3.org/2000/svg"
 width="96.000000pt" height="68.000000pt" viewBox="0 0 96.000000 68.000000"
 preserveAspectRatio="xMidYMid meet">
<metadata>
Created by potrace 1.16, written by Peter Selinger 2001-2019
</metadata>
<g transform="translate(0.000000,68.000000) scale(0.100000,-0.100000)"
fill="#000000" stroke="none">
<path d="M578 515 l5 -85 -34 -1 c-19 0 -43 -4 -54 -9 -17 -6 -14 -9 17 -15
20 -4 42 -4 48 0 16 10 30 -13 30 -52 0 -35 4 -33 -113 -48 -30 -4 -45 -10
-41 -17 4 -7 32 -8 81 -4 70 7 74 6 64 -11 -5 -10 -37 -47 -71 -81 -60 -62
-61 -64 -44 -83 11 -12 24 -17 33 -13 9 4 61 19 116 35 l100 28 31 -36 c33
-40 54 -38 54 4 0 27 -21 50 -78 85 -40 24 -51 18 -28 -16 16 -25 15 -26 -6
-30 -91 -18 -151 -26 -156 -21 -3 3 20 32 51 63 38 39 56 64 52 74 -5 13 10
16 104 23 61 3 111 11 111 15 0 17 -44 22 -131 15 l-89 -7 0 40 c0 44 -8 39
90 58 52 10 34 26 -25 22 -64 -4 -68 2 -64 82 3 56 4 55 -32 63 l-25 6 4 -84z"/>
<path d="M247 472 c-101 -17 -123 -35 -49 -40 34 -3 42 -7 42 -23 0 -30 -37
-97 -97 -174 -30 -38 -49 -71 -43 -73 6 -2 30 12 55 32 24 20 45 36 48 36 3 0
8 -11 11 -25 14 -54 27 -80 35 -66 5 7 35 15 68 18 58 5 60 7 61 34 0 15 5 37
11 48 6 11 11 29 11 40 0 17 -6 21 -32 21 -18 0 -54 -7 -80 -15 -59 -17 -60
-10 -13 65 37 58 42 76 23 83 -7 2 12 7 42 11 68 8 92 21 70 36 -19 12 -41 11
-163 -8z m94 -243 c-1 -24 -4 -45 -4 -45 -1 -1 -21 -5 -44 -9 l-42 -7 -8 44
-9 43 45 11 c26 7 50 11 56 10 5 -1 8 -22 6 -47z"/>
</g>
</svg>
