<?xml version="1.0" standalone="no"?>
<!DOCTYPE svg PUBLIC "-//W3C//DTD SVG 20010904//EN"
 "http://www.w3.org/TR/2001/REC-SVG-20010904/DTD/svg10.dtd">
<svg version="1.0" xmlns="http://www.w3.org/2000/svg"
 width="90.000000pt" height="92.000000pt" viewBox="0 0 90.000000 92.000000"
 preserveAspectRatio="xMidYMid meet">
<metadata>
Created by potrace 1.16, written by Peter Selinger 2001-2019
</metadata>
<g transform="translate(0.000000,92.000000) scale(0.100000,-0.100000)"
fill="#000000" stroke="none">
<path d="M124 828 c11 -38 25 -150 26 -205 l0 -52 -57 -6 c-32 -4 -65 -11 -73
-16 -25 -13 38 -31 82 -24 21 4 38 4 38 1 0 -24 -67 -173 -101 -225 -22 -34
-38 -65 -36 -68 9 -8 76 67 108 120 l30 52 -6 -65 c-3 -36 -11 -97 -17 -135
-8 -59 -7 -77 5 -108 37 -88 57 -26 57 178 0 91 3 165 7 165 4 0 21 -16 39
-36 34 -36 54 -38 54 -4 0 22 -31 45 -72 55 -22 6 -28 13 -28 34 0 39 10 48
63 61 26 7 47 16 47 21 0 17 -42 30 -72 24 l-31 -7 7 78 c4 44 9 93 12 111 5
28 2 34 -27 52 -45 28 -63 27 -55 -1z"/>
<path d="M406 752 c-25 -31 -62 -68 -81 -82 -54 -39 -43 -55 16 -24 17 8 33
14 35 11 2 -2 6 -29 8 -60 l4 -55 -69 -17 c-38 -10 -69 -21 -69 -26 0 -21 50
-33 83 -21 17 6 33 10 35 7 11 -11 -62 -186 -108 -261 -21 -33 -21 -35 -4 -26
32 17 61 54 93 117 l30 60 0 -75 c0 -41 -4 -95 -10 -119 -9 -43 4 -111 23
-111 23 0 31 53 30 195 l-2 150 34 -40 c27 -31 37 -37 46 -28 22 21 3 60 -40
80 -34 15 -40 23 -40 50 0 29 4 33 43 44 75 20 71 18 56 35 -9 11 -22 14 -52
8 l-40 -6 7 61 c5 40 3 61 -4 61 -23 0 -7 17 35 38 48 23 55 40 28 64 -35 29
-41 27 -87 -30z"/>
<path d="M595 773 c18 -46 26 -148 20 -248 -10 -180 -39 -267 -117 -351 -44
-48 -33 -59 23 -21 46 31 94 96 110 151 7 25 16 46 19 46 4 0 26 -47 49 -105
24 -57 50 -110 57 -116 13 -11 100 -6 112 6 2 2 -27 35 -65 72 -66 64 -143
180 -143 215 0 8 34 41 75 73 41 33 75 64 75 70 0 12 -23 35 -47 49 -7 4 -20
-13 -36 -46 -13 -29 -33 -63 -43 -76 -19 -23 -19 -22 -14 110 3 73 8 138 13
145 10 16 -31 43 -66 43 -24 0 -28 -3 -22 -17z"/>
<path d="M500 506 c0 -17 46 -86 57 -86 19 0 28 49 12 65 -15 15 -69 31 -69
21z"/>
</g>
</svg>
