<?xml version="1.0" standalone="no"?>
<!DOCTYPE svg PUBLIC "-//W3C//DTD SVG 20010904//EN"
 "http://www.w3.org/TR/2001/REC-SVG-20010904/DTD/svg10.dtd">
<svg version="1.0" xmlns="http://www.w3.org/2000/svg"
 width="90.000000pt" height="92.000000pt" viewBox="0 0 90.000000 92.000000"
 preserveAspectRatio="xMidYMid meet">
<metadata>
Created by potrace 1.16, written by Peter Selinger 2001-2019
</metadata>
<g transform="translate(0.000000,92.000000) scale(0.100000,-0.100000)"
fill="#000000" stroke="none">
<path d="M460 821 c0 -4 16 -29 35 -54 l34 -45 -117 -17 c-153 -22 -144 -18
-129 -54 17 -41 5 -178 -23 -262 -26 -77 -80 -168 -133 -226 -22 -24 -35 -43
-29 -43 22 0 111 81 140 128 31 51 82 181 82 210 0 14 8 17 46 13 l47 -3 -8
-132 c-11 -187 -11 -214 2 -227 8 -8 14 -5 24 12 9 17 12 70 10 191 l-2 167
28 6 c48 11 54 14 48 25 -3 5 -20 10 -37 10 l-31 0 7 49 c6 47 5 49 -24 61
-36 15 -46 9 -31 -18 6 -12 11 -38 11 -60 0 -42 -11 -52 -57 -52 -23 0 -25 3
-19 33 4 17 10 53 13 78 l5 46 98 17 c54 8 143 19 199 22 56 4 104 11 107 15
2 5 -7 16 -21 25 -25 16 -70 16 -140 -2 -21 -5 -25 -3 -25 17 0 34 -11 46 -53
64 -41 17 -57 19 -57 6z"/>
<path d="M637 606 l5 -63 -42 -6 c-23 -3 -45 -8 -48 -12 -12 -12 23 -26 56
-21 l32 5 0 -134 c0 -74 -5 -157 -11 -184 -11 -52 1 -121 21 -121 24 0 30 50
30 244 l0 205 49 7 c27 3 55 10 62 15 25 16 -12 30 -60 24 l-44 -5 6 43 c7 49
-4 67 -39 67 -21 0 -21 -3 -17 -64z"/>
<path d="M159 640 c-29 -17 -94 -27 -118 -18 -32 11 -34 7 -17 -33 8 -19 18
-67 21 -107 8 -80 28 -119 45 -90 6 10 30 18 67 23 l58 6 2 57 c0 31 8 76 16
99 15 41 15 43 -6 58 -24 17 -45 19 -68 5z m12 -106 c-1 -38 -5 -72 -9 -75 -4
-4 -21 -10 -38 -13 -31 -7 -31 -6 -38 40 -12 93 -10 101 32 112 20 5 41 9 46
8 5 -1 8 -33 7 -72z"/>
<path d="M726 330 c1 -145 8 -163 68 -174 40 -8 86 8 86 28 0 19 -22 26 -63
19 -53 -8 -61 15 -48 140 12 105 9 116 -29 117 -13 0 -15 -21 -14 -130z"/>
<path d="M556 433 c12 -30 16 -86 7 -128 -7 -34 -13 -40 -37 -43 -27 -3 -28
-3 -22 37 3 23 9 59 12 81 4 25 2 41 -5 42 -6 0 -16 1 -22 2 -7 1 -11 -33 -12
-92 -1 -98 5 -112 46 -112 18 0 18 -2 -2 -36 -28 -48 -22 -52 17 -13 38 39 60
100 68 195 6 69 6 71 -17 77 -37 10 -42 8 -33 -10z"/>
<path d="M330 377 c0 -46 -34 -136 -69 -186 -12 -17 -18 -31 -14 -31 20 0 74
69 98 125 14 33 30 67 35 76 10 19 -5 43 -32 52 -15 5 -18 0 -18 -36z"/>
</g>
</svg>
