<?xml version="1.0" standalone="no"?>
<!DOCTYPE svg PUBLIC "-//W3C//DTD SVG 20010904//EN"
 "http://www.w3.org/TR/2001/REC-SVG-20010904/DTD/svg10.dtd">
<svg version="1.0" xmlns="http://www.w3.org/2000/svg"
 width="96.000000pt" height="68.000000pt" viewBox="0 0 96.000000 68.000000"
 preserveAspectRatio="xMidYMid meet">
<metadata>
Created by potrace 1.16, written by Peter Selinger 2001-2019
</metadata>
<g transform="translate(0.000000,68.000000) scale(0.100000,-0.100000)"
fill="#000000" stroke="none">
<path d="M640 304 c0 -20 -45 -98 -87 -151 -19 -24 -31 -43 -28 -43 17 0 68
45 93 83 30 43 51 127 32 127 -5 0 -10 -7 -10 -16z"/>
<path d="M690 304 c0 -32 66 -170 85 -178 24 -9 65 -7 65 3 0 5 -20 25 -45 46
-26 21 -58 61 -75 93 -19 38 -29 50 -30 36z"/>
</g>
</svg>
