<?xml version="1.0" standalone="no"?>
<!DOCTYPE svg PUBLIC "-//W3C//DTD SVG 20010904//EN"
 "http://www.w3.org/TR/2001/REC-SVG-20010904/DTD/svg10.dtd">
<svg version="1.0" xmlns="http://www.w3.org/2000/svg"
 width="96.000000pt" height="68.000000pt" viewBox="0 0 96.000000 68.000000"
 preserveAspectRatio="xMidYMid meet">
<metadata>
Created by potrace 1.16, written by Peter Selinger 2001-2019
</metadata>
<g transform="translate(0.000000,68.000000) scale(0.100000,-0.100000)"
fill="#000000" stroke="none">
<path d="M639 385 c-1 -3 -2 -8 -3 -12 -2 -5 -11 -28 -21 -53 -11 -25 -18 -51
-17 -59 2 -7 -1 -10 -7 -6 -6 3 -11 -1 -11 -9 0 -9 -3 -15 -7 -14 -11 4 -53
-39 -46 -46 4 -3 1 -6 -6 -6 -6 0 -17 -5 -24 -10 -7 -6 -27 -22 -46 -35 -19
-14 -30 -25 -24 -25 6 0 16 7 23 15 7 8 18 15 24 15 12 1 86 54 89 65 1 4 17
23 35 42 24 26 31 41 27 57 -4 14 -3 17 3 8 7 -11 15 -6 35 19 23 30 24 34 9
46 -18 13 -31 16 -33 8z"/>
</g>
</svg>
