<?xml version="1.0" standalone="no"?>
<!DOCTYPE svg PUBLIC "-//W3C//DTD SVG 20010904//EN"
 "http://www.w3.org/TR/2001/REC-SVG-20010904/DTD/svg10.dtd">
<svg version="1.0" xmlns="http://www.w3.org/2000/svg"
 width="96.000000pt" height="68.000000pt" viewBox="0 0 96.000000 68.000000"
 preserveAspectRatio="xMidYMid meet">
<metadata>
Created by potrace 1.16, written by Peter Selinger 2001-2019
</metadata>
<g transform="translate(0.000000,68.000000) scale(0.100000,-0.100000)"
fill="#000000" stroke="none">
<path d="M237 604 c-3 -3 -2 -16 2 -28 4 -11 9 -47 10 -78 3 -63 8 -59 -81
-73 -59 -9 -45 -25 22 -25 l60 0 0 -47 0 -48 -65 -27 c-35 -16 -69 -28 -75
-28 -29 0 8 -49 38 -50 7 0 30 12 52 26 22 15 43 24 46 21 4 -3 3 -32 -1 -63
l-7 -56 -41 6 -42 7 45 -46 c24 -25 50 -45 57 -45 30 0 43 43 43 142 l0 98 40
26 c22 15 40 31 40 35 0 12 -5 11 -45 -5 l-35 -15 0 39 c0 37 1 38 41 45 49 8
47 29 -3 33 l-36 3 5 42 c3 23 9 46 14 52 16 17 9 34 -21 50 -31 16 -53 19
-63 9z"/>
<path d="M530 574 c0 -11 23 -49 34 -56 21 -14 -5 -21 -74 -22 -38 -1 -70 -5
-70 -10 0 -5 -6 -17 -14 -25 -8 -9 -16 -27 -18 -41 -5 -38 23 -31 51 13 17 25
32 37 48 37 13 0 23 -4 23 -9 0 -21 -22 -67 -42 -88 -42 -44 4 -23 48 22 49
50 52 59 27 74 -14 8 -9 10 25 11 l42 0 0 -46 c0 -42 2 -46 35 -60 39 -16 83
-18 104 -5 24 15 2 32 -34 25 -58 -11 -76 1 -73 49 3 41 4 42 43 48 46 8 64
-3 45 -26 -17 -20 -7 -29 17 -16 10 6 32 16 48 22 l30 11 -24 19 c-25 21 -88
25 -153 10 -34 -8 -38 -7 -38 10 0 25 -35 59 -60 59 -11 0 -20 -3 -20 -6z"/>
<path d="M575 321 c-11 -5 -44 -12 -72 -16 -29 -4 -53 -11 -53 -16 0 -12 62
-11 95 1 45 17 48 0 8 -41 -87 -89 -93 -149 -18 -176 76 -28 305 0 305 36 0 4
-10 27 -22 52 l-21 44 -9 -33 c-14 -52 -57 -72 -155 -72 -100 0 -113 4 -113
40 0 21 14 41 60 83 33 31 69 58 80 62 11 3 20 12 20 20 0 22 -65 32 -105 16z"/>
</g>
</svg>
