<?xml version="1.0" standalone="no"?>
<!DOCTYPE svg PUBLIC "-//W3C//DTD SVG 20010904//EN"
 "http://www.w3.org/TR/2001/REC-SVG-20010904/DTD/svg10.dtd">
<svg version="1.0" xmlns="http://www.w3.org/2000/svg"
 width="96.000000pt" height="68.000000pt" viewBox="0 0 96.000000 68.000000"
 preserveAspectRatio="xMidYMid meet">
<metadata>
Created by potrace 1.16, written by Peter Selinger 2001-2019
</metadata>
<g transform="translate(0.000000,68.000000) scale(0.100000,-0.100000)"
fill="#000000" stroke="none">
<path d="M285 580 c-3 -11 -36 -47 -73 -80 -60 -54 -64 -60 -37 -54 43 10 64
22 118 66 51 43 58 62 28 78 -26 14 -29 13 -36 -10z"/>
<path d="M450 562 c0 -10 -15 -44 -34 -75 -37 -60 -35 -73 4 -32 28 30 41 31
65 5 22 -24 35 -26 35 -5 0 9 -11 21 -25 27 -29 13 -29 14 -10 48 9 18 10 29
3 37 -15 19 -38 16 -38 -5z"/>
<path d="M636 549 c-3 -17 -19 -47 -36 -67 -33 -40 -32 -56 3 -25 38 35 47 36
82 9 37 -29 55 -33 55 -13 0 8 -18 22 -40 32 -22 10 -40 20 -40 22 0 2 8 15
17 29 14 22 14 27 2 35 -25 16 -36 10 -43 -22z"/>
<path d="M310 480 c0 -19 -77 -100 -134 -142 -49 -35 -20 -39 32 -3 59 40 66
35 59 -41 -5 -50 -3 -69 8 -80 20 -20 26 -5 30 78 3 50 1 74 -8 80 -8 5 0 19
28 48 38 39 38 40 19 55 -23 17 -34 19 -34 5z"/>
<path d="M538 365 l4 -65 -26 10 c-57 21 -68 30 -56 46 7 7 10 21 6 29 -11 31
-35 14 -62 -45 -15 -33 -33 -65 -40 -71 -8 -6 -14 -16 -14 -22 0 -6 19 8 43
31 49 48 58 50 97 22 16 -11 59 -34 95 -52 62 -28 73 -30 142 -25 97 7 114 22
36 31 -32 4 -86 12 -120 18 -63 10 -63 10 -63 44 0 32 2 34 38 35 20 1 48 4
62 8 42 12 5 24 -50 16 l-50 -7 0 31 c0 26 -4 31 -23 31 -22 0 -23 -3 -19 -65z"/>
<path d="M460 211 c0 -13 62 -71 77 -71 7 0 13 11 13 24 0 17 -9 28 -34 40
-38 18 -56 20 -56 7z"/>
<path d="M345 154 c27 -65 59 -96 124 -119 79 -27 266 -11 266 23 0 16 -103
83 -110 71 -4 -5 -1 -9 4 -9 17 0 13 -47 -5 -54 -26 -10 -124 -7 -166 6 -37
11 -63 37 -94 92 -21 38 -36 30 -19 -10z"/>
<path d="M700 155 c50 -51 95 -60 83 -16 -5 19 -67 51 -100 51 -13 0 -8 -9 17
-35z"/>
<path d="M208 129 c-32 -45 -35 -67 -12 -76 23 -9 53 34 54 74 0 46 -11 46
-42 2z"/>
</g>
</svg>
