<?xml version="1.0" standalone="no"?>
<!DOCTYPE svg PUBLIC "-//W3C//DTD SVG 20010904//EN"
 "http://www.w3.org/TR/2001/REC-SVG-20010904/DTD/svg10.dtd">
<svg version="1.0" xmlns="http://www.w3.org/2000/svg"
 width="96.000000pt" height="68.000000pt" viewBox="0 0 96.000000 68.000000"
 preserveAspectRatio="xMidYMid meet">
<metadata>
Created by potrace 1.16, written by Peter Selinger 2001-2019
</metadata>
<g transform="translate(0.000000,68.000000) scale(0.100000,-0.100000)"
fill="#000000" stroke="none">
<path d="M386 188 c12 -22 47 -58 56 -58 4 0 8 11 8 25 0 18 -7 28 -26 35 -34
13 -47 13 -38 -2z"/>
<path d="M111 145 c-13 -24 -21 -51 -18 -60 11 -26 37 -16 53 20 17 42 17 47
2 68 -12 15 -16 12 -37 -28z"/>
<path d="M290 185 c0 -18 33 -65 45 -65 21 0 18 27 -5 50 -19 19 -40 27 -40
15z"/>
<path d="M200 171 c0 -24 24 -71 36 -71 20 0 18 50 -3 66 -21 16 -33 18 -33 5z"/>
</g>
</svg>
