<?xml version="1.0" standalone="no"?>
<!DOCTYPE svg PUBLIC "-//W3C//DTD SVG 20010904//EN"
 "http://www.w3.org/TR/2001/REC-SVG-20010904/DTD/svg10.dtd">
<svg version="1.0" xmlns="http://www.w3.org/2000/svg"
 width="96.000000pt" height="68.000000pt" viewBox="0 0 96.000000 68.000000"
 preserveAspectRatio="xMidYMid meet">
<metadata>
Created by potrace 1.16, written by Peter Selinger 2001-2019
</metadata>
<g transform="translate(0.000000,68.000000) scale(0.100000,-0.100000)"
fill="#000000" stroke="none">
<path d="M574 214 c-3 -19 -4 -53 -1 -75 4 -32 2 -42 -11 -46 -26 -10 -32 -25
-16 -40 18 -19 54 0 54 28 0 11 4 18 8 15 5 -3 9 20 9 52 0 42 -1 46 -4 17 -2
-22 -8 -43 -11 -47 -4 -4 -6 12 -4 35 2 23 8 46 13 52 16 17 10 45 -11 45 -14
0 -21 -9 -26 -36z"/>
<path d="M452 168 c5 -15 28 -23 28 -10 0 5 -7 13 -16 16 -10 4 -14 1 -12 -6z"/>
<path d="M751 136 c23 -25 49 -46 58 -46 14 0 14 2 1 10 -10 7 -11 10 -2 10 9
0 10 4 0 19 -6 11 -18 17 -26 13 -9 -3 -13 -1 -9 5 4 6 -1 13 -11 16 -9 2 -25
8 -35 12 -10 4 1 -13 24 -39z"/>
<path d="M429 148 c-1 -7 -1 -16 0 -20 0 -5 -5 -8 -12 -8 -7 0 -18 -9 -25 -21
-13 -21 -13 -21 18 -3 16 10 28 24 26 31 -3 8 1 10 11 6 10 -4 14 -2 11 7 -6
19 -28 25 -29 8z"/>
</g>
</svg>
