<?xml version="1.0" standalone="no"?>
<!DOCTYPE svg PUBLIC "-//W3C//DTD SVG 20010904//EN"
 "http://www.w3.org/TR/2001/REC-SVG-20010904/DTD/svg10.dtd">
<svg version="1.0" xmlns="http://www.w3.org/2000/svg"
 width="96.000000pt" height="68.000000pt" viewBox="0 0 96.000000 68.000000"
 preserveAspectRatio="xMidYMid meet">
<metadata>
Created by potrace 1.16, written by Peter Selinger 2001-2019
</metadata>
<g transform="translate(0.000000,68.000000) scale(0.100000,-0.100000)"
fill="#000000" stroke="none">
<path d="M660 394 c-11 -32 -14 -38 -49 -85 -25 -32 -20 -32 29 2 25 17 26 16
65 -12 22 -17 41 -25 43 -19 7 21 -7 38 -37 45 -36 8 -38 15 -11 40 21 19 27
45 11 45 -5 0 -16 3 -25 6 -11 4 -19 -3 -26 -22z"/>
</g>
</svg>
