<?xml version="1.0" standalone="no"?>
<!DOCTYPE svg PUBLIC "-//W3C//DTD SVG 20010904//EN"
 "http://www.w3.org/TR/2001/REC-SVG-20010904/DTD/svg10.dtd">
<svg version="1.0" xmlns="http://www.w3.org/2000/svg"
 width="90.000000pt" height="92.000000pt" viewBox="0 0 90.000000 92.000000"
 preserveAspectRatio="xMidYMid meet">
<metadata>
Created by potrace 1.16, written by Peter Selinger 2001-2019
</metadata>
<g transform="translate(0.000000,92.000000) scale(0.100000,-0.100000)"
fill="#000000" stroke="none">
<path d="M374 868 c3 -18 8 -67 12 -109 6 -74 6 -76 -17 -82 -13 -4 -54 -7
-91 -7 -39 0 -68 -4 -68 -10 0 -5 4 -10 9 -10 12 0 28 -51 36 -115 8 -64 24
-115 36 -115 5 0 9 5 9 10 0 6 20 10 45 10 46 0 48 -2 59 -51 l5 -25 -113 -12
c-62 -7 -132 -12 -155 -12 -49 0 -53 -13 -10 -35 28 -15 39 -15 121 -1 51 9
107 16 126 16 l35 0 -7 -127 c-6 -101 -4 -132 6 -146 13 -18 15 -18 29 -1 10
12 15 53 17 151 l4 133 163 0 c169 0 193 6 161 38 -19 20 -86 22 -233 8 l-93
-9 0 30 c0 16 -5 34 -12 41 -17 17 85 16 113 0 27 -17 39 0 78 108 49 134 48
131 8 150 -31 15 -45 16 -106 6 -108 -18 -107 -18 -103 28 l4 40 47 0 c52 1
128 14 139 24 3 4 0 12 -8 17 -14 10 -61 7 -144 -7 l-38 -7 7 41 c6 39 5 43
-20 52 -48 18 -58 14 -51 -22z m216 -241 l0 -42 -42 3 c-24 2 -88 -4 -143 -11
-55 -8 -103 -13 -107 -10 -5 2 -8 19 -8 38 0 33 1 34 53 40 28 3 81 10 117 14
36 5 80 9 98 10 31 1 32 0 32 -42z m-11 -79 c-4 -57 -10 -60 -104 -65 -177
-11 -170 -11 -173 20 -3 20 1 27 15 28 10 0 68 6 128 13 61 8 116 14 123 15 6
0 12 -5 11 -11z"/>
<path d="M274 234 c-9 -19 -46 -62 -83 -95 -68 -63 -62 -70 23 -27 51 26 136
106 130 122 -3 8 -16 18 -29 24 -22 10 -26 8 -41 -24z"/>
<path d="M581 210 c120 -141 139 -154 139 -96 0 56 -81 131 -165 152 -28 7
-26 4 26 -56z"/>
</g>
</svg>
