<?xml version="1.0" standalone="no"?>
<!DOCTYPE svg PUBLIC "-//W3C//DTD SVG 20010904//EN"
 "http://www.w3.org/TR/2001/REC-SVG-20010904/DTD/svg10.dtd">
<svg version="1.0" xmlns="http://www.w3.org/2000/svg"
 width="96.000000pt" height="68.000000pt" viewBox="0 0 96.000000 68.000000"
 preserveAspectRatio="xMidYMid meet">
<metadata>
Created by potrace 1.16, written by Peter Selinger 2001-2019
</metadata>
<g transform="translate(0.000000,68.000000) scale(0.100000,-0.100000)"
fill="#000000" stroke="none">
<path d="M297 613 c-3 -2 -1 -20 3 -39 8 -36 8 -36 -53 -46 -35 -6 -21 -23 21
-26 27 -2 42 -8 42 -17 0 -9 -22 -15 -77 -20 -92 -8 -106 -11 -98 -25 3 -5 33
-10 65 -10 48 0 61 -4 70 -19 14 -27 13 -31 -10 -31 -11 0 -20 -5 -20 -11 0
-7 14 -10 35 -7 24 3 36 -1 40 -10 8 -21 4 -23 -59 -29 -31 -3 -59 -10 -63
-16 -4 -7 15 -8 55 -4 l62 5 0 -28 c0 -16 5 -32 11 -36 14 -8 29 14 29 42 0
26 17 34 71 34 21 0 39 5 39 10 0 6 -25 10 -55 10 -41 0 -55 4 -55 14 0 9 15
17 40 21 42 7 55 25 19 25 -13 0 -19 5 -15 13 3 6 9 20 12 30 4 11 17 17 36
17 19 0 28 4 25 13 -3 8 -22 11 -62 9 -69 -4 -74 18 -7 32 55 12 57 36 3 36
-36 0 -40 3 -43 27 -2 19 -10 29 -30 34 -15 4 -29 5 -31 2z m73 -174 c0 -44
-62 -69 -75 -29 -3 11 -12 21 -18 21 -13 2 47 16 76 18 9 0 17 -4 17 -10z"/>
<path d="M556 545 l7 -55 -32 0 c-17 0 -31 -4 -31 -10 0 -5 11 -10 25 -10 21
0 25 -5 25 -31 0 -27 -3 -31 -21 -26 -20 5 -20 5 -4 -13 17 -19 16 -21 -9 -55
-31 -41 -13 -49 23 -11 20 21 27 23 52 14 41 -14 47 -3 17 30 -21 21 -25 34
-21 57 8 42 21 55 54 55 32 0 33 -5 19 -68 -13 -54 2 -115 33 -137 21 -15 127
-22 127 -8 0 15 -34 83 -42 83 -4 0 -8 -11 -8 -25 0 -14 -7 -28 -15 -31 -23
-9 -63 22 -67 53 -4 31 17 99 39 124 17 21 17 26 -6 38 -13 8 -32 7 -64 -3
-25 -8 -48 -11 -51 -8 -4 3 -6 25 -6 49 0 39 -2 43 -25 43 -25 0 -25 -1 -19
-55z"/>
<path d="M434 256 c5 -21 2 -24 -32 -30 -20 -3 -59 -6 -86 -6 -47 0 -48 -1
-33 -18 9 -10 23 -35 32 -56 12 -29 20 -36 33 -31 9 4 34 8 55 10 34 4 37 2
37 -20 0 -14 0 -28 0 -32 0 -10 -10 -11 -122 -15 -48 -2 -88 -6 -88 -10 0 -4
11 -15 25 -24 25 -16 74 -10 337 42 21 4 32 -1 50 -21 36 -42 55 -49 68 -24
15 27 -7 53 -67 80 -53 24 -81 26 -63 4 16 -20 14 -21 -43 -29 l-48 -7 3 33
c3 29 6 33 33 34 82 1 106 5 100 14 -3 5 3 20 14 32 42 44 18 61 -81 59 -44
-1 -58 2 -58 13 0 15 -21 26 -52 26 -16 0 -19 -5 -14 -24z m156 -50 c0 -36
-12 -46 -56 -46 -39 0 -44 2 -44 23 0 33 7 37 57 37 30 0 43 -4 43 -14z m-150
-26 c0 -26 -3 -30 -29 -30 -16 0 -36 -3 -45 -6 -11 -4 -19 3 -26 22 -13 34 -1
44 58 44 40 0 42 -1 42 -30z"/>
</g>
</svg>
