<?xml version="1.0" standalone="no"?>
<!DOCTYPE svg PUBLIC "-//W3C//DTD SVG 20010904//EN"
 "http://www.w3.org/TR/2001/REC-SVG-20010904/DTD/svg10.dtd">
<svg version="1.0" xmlns="http://www.w3.org/2000/svg"
 width="96.000000pt" height="68.000000pt" viewBox="0 0 96.000000 68.000000"
 preserveAspectRatio="xMidYMid meet">
<metadata>
Created by potrace 1.16, written by Peter Selinger 2001-2019
</metadata>
<g transform="translate(0.000000,68.000000) scale(0.100000,-0.100000)"
fill="#000000" stroke="none">
<path d="M629 549 c5 -73 -6 -115 -41 -154 -44 -50 -9 -46 42 5 l39 39 25 -29
c30 -36 59 -40 54 -7 -2 15 -14 25 -38 33 -19 7 -35 17 -35 24 0 7 24 22 53
33 52 20 64 39 26 45 -11 2 -30 -8 -44 -23 -34 -37 -43 -32 -35 21 7 48 -2 63
-35 64 -12 0 -14 -11 -11 -51z"/>
<path d="M561 486 c15 -33 42 -35 37 -3 -2 14 -11 23 -26 25 -20 3 -21 1 -11
-22z"/>
</g>
</svg>
