<?xml version="1.0" standalone="no"?>
<!DOCTYPE svg PUBLIC "-//W3C//DTD SVG 20010904//EN"
 "http://www.w3.org/TR/2001/REC-SVG-20010904/DTD/svg10.dtd">
<svg version="1.0" xmlns="http://www.w3.org/2000/svg"
 width="96.000000pt" height="68.000000pt" viewBox="0 0 96.000000 68.000000"
 preserveAspectRatio="xMidYMid meet">
<metadata>
Created by potrace 1.16, written by Peter Selinger 2001-2019
</metadata>
<g transform="translate(0.000000,68.000000) scale(0.100000,-0.100000)"
fill="#000000" stroke="none">
<path d="M425 488 c0 -60 -5 -92 -18 -115 -22 -41 -6 -43 25 -3 l24 31 24 -21
c26 -22 45 -22 45 1 0 8 -14 18 -32 23 l-32 10 2 75 c1 68 -1 76 -18 79 -18 2
-20 -4 -20 -80z"/>
<path d="M486 475 c-10 -15 -16 -28 -14 -30 8 -8 68 29 65 39 -7 21 -34 17
-51 -9z"/>
<path d="M357 463 c14 -42 43 -58 43 -25 0 21 -18 42 -37 42 -7 0 -10 -7 -6
-17z"/>
</g>
</svg>
