<?xml version="1.0" standalone="no"?>
<!DOCTYPE svg PUBLIC "-//W3C//DTD SVG 20010904//EN"
 "http://www.w3.org/TR/2001/REC-SVG-20010904/DTD/svg10.dtd">
<svg version="1.0" xmlns="http://www.w3.org/2000/svg"
 width="96.000000pt" height="68.000000pt" viewBox="0 0 96.000000 68.000000"
 preserveAspectRatio="xMidYMid meet">
<metadata>
Created by potrace 1.16, written by Peter Selinger 2001-2019
</metadata>
<g transform="translate(0.000000,68.000000) scale(0.100000,-0.100000)"
fill="#000000" stroke="none">
<path d="M471 189 c31 -40 69 -51 69 -21 0 25 -19 40 -61 49 l-34 6 26 -34z"/>
<path d="M316 163 c20 -48 59 -90 104 -111 46 -21 273 -24 308 -4 13 7 22 18
20 23 -2 5 -32 25 -66 45 l-64 35 18 -30 c10 -17 15 -34 10 -38 -13 -13 -149
-16 -192 -4 -54 14 -91 44 -109 87 -8 19 -21 34 -29 34 -13 0 -13 -4 0 -37z"/>
<path d="M725 176 c49 -44 74 -58 85 -51 33 20 -9 59 -75 70 l-40 7 30 -26z"/>
<path d="M194 130 c-28 -42 -26 -70 4 -70 26 0 57 65 46 95 -10 24 -22 18 -50
-25z"/>
</g>
</svg>
