<?xml version="1.0" standalone="no"?>
<!DOCTYPE svg PUBLIC "-//W3C//DTD SVG 20010904//EN"
 "http://www.w3.org/TR/2001/REC-SVG-20010904/DTD/svg10.dtd">
<svg version="1.0" xmlns="http://www.w3.org/2000/svg"
 width="96.000000pt" height="68.000000pt" viewBox="0 0 96.000000 68.000000"
 preserveAspectRatio="xMidYMid meet">
<metadata>
Created by potrace 1.16, written by Peter Selinger 2001-2019
</metadata>
<g transform="translate(0.000000,68.000000) scale(0.100000,-0.100000)"
fill="#000000" stroke="none">
<path d="M760 562 c-5 -96 3 -519 9 -525 22 -22 32 42 37 216 2 100 6 208 8
239 4 55 3 57 -25 67 -16 5 -29 7 -29 3z"/>
<path d="M355 544 c-38 -7 -86 -11 -106 -8 l-37 5 6 -89 c3 -56 0 -102 -8
-126 -18 -56 -4 -68 63 -51 29 7 76 15 105 18 l52 4 0 -51 c0 -61 -15 -119
-35 -136 -11 -9 -22 -9 -45 -2 -16 6 -30 9 -30 8 0 -2 13 -18 30 -36 53 -57
88 -24 115 110 9 46 19 89 22 96 7 18 -31 35 -78 36 -34 0 -39 3 -39 23 0 19
7 23 53 30 46 6 49 8 28 16 -14 6 -38 7 -54 3 -26 -5 -28 -4 -25 18 2 19 10
24 41 26 47 4 49 22 2 22 -31 0 -35 3 -35 25 0 21 6 26 39 31 47 8 66 18 57
33 -9 13 -29 12 -121 -5z m-23 -68 c5 -26 -7 -36 -43 -36 -14 0 -19 7 -19 30
0 26 3 30 29 30 22 0 30 -5 33 -24z m2 -62 c9 -23 -2 -34 -35 -34 -24 0 -29 4
-29 25 0 21 5 25 29 25 17 0 31 -6 35 -16z m6 -74 c0 -17 -26 -30 -62 -30 -12
0 -18 8 -18 23 0 31 4 34 45 29 25 -3 35 -9 35 -22z"/>
<path d="M538 363 c3 -100 2 -112 -22 -158 -30 -59 -25 -70 13 -30 36 40 49
78 57 179 6 80 6 84 -17 100 -13 9 -26 16 -29 16 -3 0 -4 -48 -2 -107z"/>
<path d="M644 325 c0 -109 3 -145 12 -149 8 -3 17 0 20 6 13 20 18 278 6 278
-6 0 -16 2 -24 5 -10 4 -13 -23 -14 -140z"/>
<path d="M350 242 c0 -5 10 -18 21 -31 16 -17 24 -20 33 -11 8 9 5 16 -13 31
-24 20 -41 24 -41 11z"/>
<path d="M138 209 c-24 -41 -23 -69 2 -69 21 0 40 50 32 83 -6 24 -15 21 -34
-14z"/>
<path d="M200 235 c0 -14 32 -65 40 -65 16 0 12 37 -6 54 -15 16 -34 21 -34
11z"/>
<path d="M280 231 c0 -5 9 -19 20 -32 l19 -24 1 26 c0 16 -7 29 -16 33 -21 8
-24 8 -24 -3z"/>
</g>
</svg>
