<?xml version="1.0" standalone="no"?>
<!DOCTYPE svg PUBLIC "-//W3C//DTD SVG 20010904//EN"
 "http://www.w3.org/TR/2001/REC-SVG-20010904/DTD/svg10.dtd">
<svg version="1.0" xmlns="http://www.w3.org/2000/svg"
 width="96.000000pt" height="68.000000pt" viewBox="0 0 96.000000 68.000000"
 preserveAspectRatio="xMidYMid meet">
<metadata>
Created by potrace 1.16, written by Peter Selinger 2001-2019
</metadata>
<g transform="translate(0.000000,68.000000) scale(0.100000,-0.100000)"
fill="#000000" stroke="none">
<path d="M491 558 c-7 -24 -30 -78 -51 -120 -22 -43 -36 -78 -32 -78 3 0 22
15 42 34 33 32 42 35 149 50 63 9 116 14 119 11 2 -2 -4 -22 -15 -45 -11 -22
-19 -40 -17 -40 3 0 21 10 42 23 20 12 46 27 56 33 32 17 30 33 -8 51 -34 16
-42 16 -151 -1 -64 -10 -118 -17 -120 -14 -2 2 12 28 32 58 34 50 35 54 17 67
-32 24 -50 16 -63 -29z"/>
</g>
</svg>
