<?xml version="1.0" standalone="no"?>
<!DOCTYPE svg PUBLIC "-//W3C//DTD SVG 20010904//EN"
 "http://www.w3.org/TR/2001/REC-SVG-20010904/DTD/svg10.dtd">
<svg version="1.0" xmlns="http://www.w3.org/2000/svg"
 width="96.000000pt" height="68.000000pt" viewBox="0 0 96.000000 68.000000"
 preserveAspectRatio="xMidYMid meet">
<metadata>
Created by potrace 1.16, written by Peter Selinger 2001-2019
</metadata>
<g transform="translate(0.000000,68.000000) scale(0.100000,-0.100000)"
fill="#000000" stroke="none">
<path d="M450 624 c0 -3 11 -20 25 -36 14 -17 25 -32 23 -33 -2 -2 -57 -9
-123 -15 -66 -6 -122 -14 -125 -17 -3 -2 6 -13 20 -23 24 -18 24 -19 12 -96
-15 -96 -67 -206 -129 -272 -24 -25 -40 -48 -34 -50 12 -4 87 46 118 79 36 39
73 132 95 238 l21 99 36 6 c20 4 107 11 195 16 87 5 161 12 165 15 3 4 -3 13
-14 22 -16 11 -37 13 -97 8 -75 -6 -78 -6 -78 15 0 15 -11 25 -35 36 -35 14
-75 19 -75 8z"/>
<path d="M623 493 c-3 -10 -17 -30 -31 -45 -34 -37 -19 -35 47 6 50 31 53 34
33 45 -29 15 -42 14 -49 -6z"/>
<path d="M446 458 c31 -38 64 -52 64 -28 0 16 -43 50 -63 50 -20 0 -20 0 -1
-22z"/>
<path d="M505 394 c-60 -7 -111 -13 -112 -13 -2 -1 -3 -6 -3 -12 0 -8 20 -9
65 -4 l65 7 0 -30 c0 -26 -4 -30 -37 -36 -21 -3 -50 -6 -65 -6 -16 0 -28 -4
-28 -10 0 -6 28 -10 65 -10 65 0 65 0 65 -29 0 -35 -22 -41 -146 -41 -47 0
-84 -4 -84 -10 0 -17 65 -22 144 -11 43 6 79 11 81 11 1 0 5 -38 6 -84 6 -132
31 -131 43 2 3 41 9 78 12 81 3 3 62 6 130 6 68 -1 124 3 124 7 0 22 -46 29
-150 22 l-110 -7 0 30 c0 30 1 31 65 38 89 9 93 25 5 25 l-71 0 3 28 c3 25 7
28 66 35 34 5 62 13 62 18 0 12 -58 10 -195 -7z"/>
</g>
</svg>
