<?xml version="1.0" standalone="no"?>
<!DOCTYPE svg PUBLIC "-//W3C//DTD SVG 20010904//EN"
 "http://www.w3.org/TR/2001/REC-SVG-20010904/DTD/svg10.dtd">
<svg version="1.0" xmlns="http://www.w3.org/2000/svg"
 width="90.000000pt" height="92.000000pt" viewBox="0 0 90.000000 92.000000"
 preserveAspectRatio="xMidYMid meet">
<metadata>
Created by potrace 1.16, written by Peter Selinger 2001-2019
</metadata>
<g transform="translate(0.000000,92.000000) scale(0.100000,-0.100000)"
fill="#000000" stroke="none">
<path d="M580 759 c-47 -10 -122 -22 -168 -25 -45 -4 -85 -11 -88 -15 -7 -12
16 -23 61 -29 45 -6 52 -20 54 -116 l1 -51 -42 -8 c-24 -5 -58 -7 -75 -6 -38
3 -38 5 -17 -66 10 -33 14 -71 10 -93 -8 -51 11 -67 53 -46 60 32 71 20 71
-78 l0 -63 -52 -7 c-29 -3 -77 -6 -105 -6 -61 0 -68 -13 -19 -36 29 -14 42
-15 97 -4 35 6 154 14 264 16 110 3 210 7 223 10 34 7 26 23 -20 43 -37 16
-52 17 -115 8 -40 -6 -75 -8 -78 -5 -3 3 -2 37 1 76 l7 71 66 7 66 6 1 42 c1
23 11 58 24 80 l24 39 -29 25 c-26 22 -35 24 -85 19 -31 -4 -64 -9 -73 -13
-22 -8 -23 30 -3 106 9 35 11 59 5 66 -7 8 5 13 41 18 58 8 67 28 19 45 -18 6
-32 10 -33 10 -1 -1 -39 -10 -86 -20z m0 -129 c0 -38 -4 -80 -10 -94 -11 -30
12 -61 39 -50 36 15 103 26 112 17 4 -4 5 -34 2 -65 l-6 -57 -49 -10 c-27 -6
-57 -11 -66 -11 -16 0 -18 -10 -14 -95 l4 -95 -54 0 -54 0 7 82 c9 98 2 113
-51 105 -19 -3 -45 -9 -57 -13 -22 -6 -23 -4 -23 59 l0 66 43 9 c23 5 47 5 53
0 20 -15 24 4 24 113 l0 108 43 3 c23 2 45 2 50 0 4 -2 7 -34 7 -72z"/>
<path d="M155 609 c-27 -10 -71 -18 -97 -19 l-47 0 18 -32 c11 -18 24 -67 31
-108 12 -81 33 -119 45 -81 5 16 15 21 43 22 73 3 87 10 90 53 2 22 12 62 23
90 24 65 24 70 -6 84 -32 15 -37 14 -100 -9z m44 -76 c-2 -79 -10 -96 -52
-106 -21 -5 -40 -8 -41 -6 -2 2 -7 34 -11 71 l-6 67 33 10 c18 5 43 10 56 10
20 1 22 -3 21 -46z"/>
</g>
</svg>
