<?xml version="1.0" standalone="no"?>
<!DOCTYPE svg PUBLIC "-//W3C//DTD SVG 20010904//EN"
 "http://www.w3.org/TR/2001/REC-SVG-20010904/DTD/svg10.dtd">
<svg version="1.0" xmlns="http://www.w3.org/2000/svg"
 width="90.000000pt" height="92.000000pt" viewBox="0 0 90.000000 92.000000"
 preserveAspectRatio="xMidYMid meet">
<metadata>
Created by potrace 1.16, written by Peter Selinger 2001-2019
</metadata>
<g transform="translate(0.000000,92.000000) scale(0.100000,-0.100000)"
fill="#000000" stroke="none">
<path d="M598 841 c-19 -34 -123 -119 -155 -127 -13 -4 -23 -10 -23 -15 0 -31
101 9 190 73 62 45 71 63 43 84 -26 20 -36 17 -55 -15z"/>
<path d="M205 813 c-10 -49 -54 -126 -99 -175 -24 -27 -40 -48 -35 -48 15 0
61 31 99 66 23 21 50 34 78 39 44 7 44 7 31 -16 -7 -13 -28 -45 -48 -71 -37
-50 -54 -56 -143 -50 -33 2 -32 4 -14 -39 12 -30 33 -154 25 -154 -1 0 3 -11
11 -24 11 -21 14 -22 24 -10 7 10 41 19 98 25 73 8 89 7 93 -5 10 -27 31 9 57
99 14 47 27 91 29 99 2 8 -11 24 -29 37 -32 22 -34 22 -78 7 -25 -8 -47 -13
-50 -11 -2 3 29 37 70 75 40 39 71 75 67 81 -14 23 -55 30 -83 16 -16 -8 -40
-19 -54 -24 l-26 -10 22 35 c23 38 19 54 -21 76 -15 8 -19 5 -24 -18z m145
-288 l0 -35 -50 0 c-50 0 -50 0 -44 28 9 34 20 42 62 42 30 0 32 -2 32 -35z
m-140 -14 c0 -30 -14 -41 -56 -41 -20 0 -24 5 -24 29 0 30 3 32 68 40 7 0 12
-11 12 -28z m126 -73 c-3 -13 -6 -27 -6 -33 0 -5 -18 -10 -40 -10 -37 -1 -40
1 -40 26 0 29 12 36 64 38 25 1 28 -2 22 -21z m-123 -10 c8 -27 -6 -46 -36
-51 -18 -2 -32 -4 -33 -3 -1 0 -4 16 -7 34 -6 32 -6 32 32 32 23 0 41 -5 44
-12z"/>
<path d="M591 720 c-12 -35 -104 -137 -132 -145 -22 -7 -23 -14 -4 -39 15 -19
17 -19 130 10 23 6 -59 -73 -117 -113 -42 -29 -45 -35 -22 -57 19 -20 23 -20
67 -1 76 32 77 30 77 -105 l0 -120 -42 6 -42 7 45 -52 44 -52 23 26 c20 24 22
37 24 163 0 75 1 144 2 152 1 8 16 19 35 24 31 9 36 7 58 -20 22 -27 25 -28
37 -11 7 9 11 28 8 43 -7 37 -102 97 -102 65 0 -6 5 -13 10 -16 6 -3 10 -12
10 -19 0 -9 -30 -17 -90 -26 -50 -7 -92 -11 -95 -9 -2 2 46 38 106 79 60 40
109 75 109 76 0 13 -25 54 -35 58 -7 2 -23 -12 -36 -32 -23 -35 -27 -37 -87
-40 -34 -2 -62 1 -62 6 0 4 32 32 70 62 39 29 73 57 76 62 7 11 -25 48 -42 48
-6 0 -17 -14 -23 -30z"/>
<path d="M465 290 c-6 -29 -69 -121 -87 -128 -4 -2 -8 -8 -8 -13 0 -19 77 30
118 75 48 52 49 57 24 79 -27 25 -40 21 -47 -13z"/>
<path d="M700 305 c0 -2 21 -36 46 -75 31 -48 51 -70 62 -68 24 5 27 59 5 85
-31 36 -113 78 -113 58z"/>
<path d="M310 296 c0 -9 52 -96 61 -102 14 -8 28 38 18 58 -12 21 -79 59 -79
44z"/>
<path d="M42 231 c-26 -52 -27 -106 -2 -106 23 0 52 65 46 104 -8 53 -19 53
-44 2z"/>
<path d="M239 242 c26 -51 49 -70 57 -48 10 27 -4 62 -31 74 -42 19 -47 14
-26 -26z"/>
<path d="M146 233 c9 -21 18 -44 21 -50 7 -17 30 -16 36 1 10 25 -5 57 -34 71
-40 21 -41 20 -23 -22z"/>
</g>
</svg>
