<?xml version="1.0" standalone="no"?>
<!DOCTYPE svg PUBLIC "-//W3C//DTD SVG 20010904//EN"
 "http://www.w3.org/TR/2001/REC-SVG-20010904/DTD/svg10.dtd">
<svg version="1.0" xmlns="http://www.w3.org/2000/svg"
 width="96.000000pt" height="68.000000pt" viewBox="0 0 96.000000 68.000000"
 preserveAspectRatio="xMidYMid meet">
<metadata>
Created by potrace 1.16, written by Peter Selinger 2001-2019
</metadata>
<g transform="translate(0.000000,68.000000) scale(0.100000,-0.100000)"
fill="#000000" stroke="none">
<path d="M396 145 c30 -39 39 -43 49 -18 7 21 -27 53 -57 53 -17 0 -17 -3 8
-35z"/>
<path d="M138 139 c-22 -38 -24 -79 -3 -79 20 0 35 32 35 74 0 44 -10 45 -32
5z"/>
<path d="M315 140 c16 -30 45 -41 45 -17 0 17 -32 47 -49 47 -8 0 -7 -9 4 -30z"/>
<path d="M220 154 c0 -12 35 -64 42 -64 18 0 19 32 3 50 -17 19 -45 27 -45 14z"/>
</g>
</svg>
