<?xml version="1.0" standalone="no"?>
<!DOCTYPE svg PUBLIC "-//W3C//DTD SVG 20010904//EN"
 "http://www.w3.org/TR/2001/REC-SVG-20010904/DTD/svg10.dtd">
<svg version="1.0" xmlns="http://www.w3.org/2000/svg"
 width="96.000000pt" height="68.000000pt" viewBox="0 0 96.000000 68.000000"
 preserveAspectRatio="xMidYMid meet">
<metadata>
Created by potrace 1.16, written by Peter Selinger 2001-2019
</metadata>
<g transform="translate(0.000000,68.000000) scale(0.100000,-0.100000)"
fill="#000000" stroke="none">
<path d="M385 416 c-63 -7 -95 -14 -87 -20 8 -4 22 -28 33 -53 14 -34 23 -43
36 -39 10 3 64 8 121 12 71 4 102 10 102 19 0 7 10 25 22 40 21 27 21 28 3 41
-22 16 -86 16 -230 0z m172 -27 c2 -8 -1 -19 -5 -26 -9 -14 -173 -36 -184 -25
-4 4 -9 19 -10 32 -3 25 -2 25 87 31 108 6 109 6 112 -12z"/>
</g>
</svg>
