<?xml version="1.0" standalone="no"?>
<!DOCTYPE svg PUBLIC "-//W3C//DTD SVG 20010904//EN"
 "http://www.w3.org/TR/2001/REC-SVG-20010904/DTD/svg10.dtd">
<svg version="1.0" xmlns="http://www.w3.org/2000/svg"
 width="96.000000pt" height="68.000000pt" viewBox="0 0 96.000000 68.000000"
 preserveAspectRatio="xMidYMid meet">
<metadata>
Created by potrace 1.16, written by Peter Selinger 2001-2019
</metadata>
<g transform="translate(0.000000,68.000000) scale(0.100000,-0.100000)"
fill="#000000" stroke="none">
<path d="M465 585 c-110 -12 -202 -23 -204 -24 -2 0 4 -10 14 -21 15 -17 17
-30 11 -92 -11 -126 -67 -268 -136 -347 -28 -31 -40 -57 -22 -49 108 53 176
175 209 374 l19 109 30 3 c24 2 33 -2 44 -22 16 -32 11 -38 -34 -39 -20 -1
-36 -4 -36 -8 0 -13 39 -21 69 -14 24 5 30 2 36 -14 9 -30 23 -26 27 7 2 15 8
27 15 27 6 0 15 3 19 8 4 4 -5 7 -19 7 -20 0 -27 5 -27 19 0 12 -11 23 -27 29
-24 9 -18 11 38 11 36 1 87 4 112 7 l45 6 -7 -33 c-5 -27 -13 -35 -36 -40 -28
-6 -17 -14 13 -10 9 2 11 -6 6 -23 -8 -33 8 -34 25 -2 10 18 25 25 62 30 53 7
58 26 7 26 -22 0 -29 4 -24 15 3 8 -2 18 -11 23 -11 7 3 11 46 16 66 8 75 16
36 34 -33 15 -58 14 -300 -13z"/>
<path d="M595 409 c-27 -5 -91 -10 -142 -11 -88 -3 -91 -4 -73 -20 11 -10 24
-37 30 -61 18 -71 16 -69 68 -65 41 3 47 1 47 -17 0 -17 -9 -21 -68 -28 -55
-6 -71 -4 -83 8 -21 20 -35 19 -41 -4 -3 -12 -11 -17 -23 -14 -10 3 -21 0 -24
-6 -4 -6 -2 -12 3 -12 6 -1 16 -3 21 -4 6 -1 17 -3 25 -4 11 -1 15 -14 15 -54
0 -52 21 -100 36 -84 5 4 7 39 6 76 l-2 68 47 7 c85 11 95 9 91 -21 -3 -26 -6
-28 -63 -33 l-60 -5 27 -18 c26 -18 29 -18 117 6 76 21 92 23 102 11 14 -18
39 -18 39 -1 0 31 -54 68 -63 43 -3 -7 -17 -16 -31 -18 -23 -5 -26 -2 -26 22
0 27 1 27 79 34 106 9 111 6 111 -59 0 -61 -15 -79 -55 -69 -24 6 -26 5 -17
-12 6 -11 19 -28 31 -38 19 -18 22 -18 46 -2 29 19 45 53 45 96 0 16 5 41 12
55 11 24 9 29 -12 46 -26 21 -29 21 -185 3 -52 -6 -55 -5 -55 15 0 17 6 21 38
22 20 1 46 2 57 3 13 1 29 21 52 65 30 60 31 65 15 77 -19 15 -63 16 -137 3z
m83 -34 c-2 -14 -6 -25 -10 -25 -5 0 -27 0 -51 0 -35 0 -43 3 -44 19 -1 17 6
21 45 24 26 2 51 4 55 5 5 1 7 -9 5 -23z m-158 -15 c0 -14 -9 -21 -34 -26 -41
-7 -56 0 -56 27 0 16 7 19 45 19 38 0 45 -3 45 -20z m150 -34 c0 -25 -16 -36
-56 -36 -48 0 -64 25 -21 33 31 6 77 8 77 3z m-147 -26 c3 -11 0 -20 -6 -21
-7 0 -19 -2 -28 -4 -24 -4 -43 11 -36 29 10 24 63 21 70 -4z"/>
</g>
</svg>
