<?xml version="1.0" standalone="no"?>
<!DOCTYPE svg PUBLIC "-//W3C//DTD SVG 20010904//EN"
 "http://www.w3.org/TR/2001/REC-SVG-20010904/DTD/svg10.dtd">
<svg version="1.0" xmlns="http://www.w3.org/2000/svg"
 width="90.000000pt" height="92.000000pt" viewBox="0 0 90.000000 92.000000"
 preserveAspectRatio="xMidYMid meet">
<metadata>
Created by potrace 1.16, written by Peter Selinger 2001-2019
</metadata>
<g transform="translate(0.000000,92.000000) scale(0.100000,-0.100000)"
fill="#000000" stroke="none">
<path d="M375 860 c-3 -5 1 -22 9 -38 16 -31 40 -151 32 -159 -7 -7 -127 -28
-214 -38 -40 -5 -62 -11 -59 -19 5 -16 98 -19 196 -6 95 13 96 12 106 -55 4
-22 23 -88 42 -148 42 -126 48 -109 -82 -215 -78 -63 -76 -72 10 -30 22 11 61
38 87 59 l46 39 36 -49 c61 -82 162 -151 223 -151 25 0 26 1 19 53 -3 28 -6
76 -6 105 0 62 -13 61 -29 -1 -15 -60 -28 -70 -69 -50 -32 15 -132 116 -132
133 0 10 50 96 92 157 15 23 28 46 28 52 0 12 -58 51 -76 51 -6 0 -10 -21 -10
-48 0 -33 -9 -63 -29 -100 -15 -28 -31 -52 -35 -52 -16 0 -69 149 -84 236 l-5
32 77 18 c79 20 91 31 53 50 -17 9 -33 8 -68 -2 -75 -23 -74 -23 -73 59 1 39
1 78 1 85 -1 7 -17 20 -36 28 -41 17 -42 17 -50 4z"/>
<path d="M607 760 c51 -54 68 -61 78 -31 9 30 -4 48 -46 65 -76 31 -84 21 -32
-34z"/>
<path d="M291 518 c-24 -11 -70 -23 -102 -25 -56 -6 -57 -6 -44 -27 7 -11 16
-39 19 -61 4 -22 11 -53 18 -69 10 -25 13 -27 23 -12 8 10 41 20 88 28 72 11
76 13 71 34 -3 12 3 43 15 69 12 26 21 49 21 51 0 4 -57 34 -62 33 -2 0 -23
-10 -47 -21z m35 -59 c-3 -17 -6 -38 -6 -45 0 -13 -99 -49 -108 -39 -2 2 -7
24 -9 47 l-5 44 43 10 c24 6 55 12 68 13 21 1 23 -2 17 -30z"/>
<path d="M290 267 c-79 -28 -131 -40 -167 -40 -29 0 -53 -2 -53 -4 0 -16 25
-45 48 -57 23 -12 30 -12 46 -1 10 8 74 37 142 66 73 30 124 57 124 65 0 19
-7 17 -140 -29z"/>
</g>
</svg>
