<?xml version="1.0" standalone="no"?>
<!DOCTYPE svg PUBLIC "-//W3C//DTD SVG 20010904//EN"
 "http://www.w3.org/TR/2001/REC-SVG-20010904/DTD/svg10.dtd">
<svg version="1.0" xmlns="http://www.w3.org/2000/svg"
 width="96.000000pt" height="68.000000pt" viewBox="0 0 96.000000 68.000000"
 preserveAspectRatio="xMidYMid meet">
<metadata>
Created by potrace 1.16, written by Peter Selinger 2001-2019
</metadata>
<g transform="translate(0.000000,68.000000) scale(0.100000,-0.100000)"
fill="#000000" stroke="none">
<path d="M315 365 c-22 -8 -62 -14 -89 -14 -46 -1 -48 -2 -34 -18 9 -10 21
-36 28 -58 18 -56 17 -55 48 -39 15 7 41 14 57 14 48 0 74 10 68 26 -3 8 4 30
16 49 20 34 20 35 1 45 -23 13 -44 11 -95 -5z m45 -45 c0 -33 -26 -50 -80 -50
-22 0 -29 6 -34 26 -8 32 -6 35 41 44 69 14 73 13 73 -20z"/>
</g>
</svg>
