<?xml version="1.0" standalone="no"?>
<!DOCTYPE svg PUBLIC "-//W3C//DTD SVG 20010904//EN"
 "http://www.w3.org/TR/2001/REC-SVG-20010904/DTD/svg10.dtd">
<svg version="1.0" xmlns="http://www.w3.org/2000/svg"
 width="96.000000pt" height="68.000000pt" viewBox="0 0 96.000000 68.000000"
 preserveAspectRatio="xMidYMid meet">
<metadata>
Created by potrace 1.16, written by Peter Selinger 2001-2019
</metadata>
<g transform="translate(0.000000,68.000000) scale(0.100000,-0.100000)"
fill="#000000" stroke="none">
<path d="M505 346 l7 -33 -48 -7 c-26 -3 -64 -6 -85 -6 -22 0 -39 -5 -39 -11
0 -8 26 -10 85 -7 l85 4 1 -125 c2 -151 1 -151 14 -151 15 -2 23 45 28 163 2
59 7 111 11 114 4 4 47 9 96 11 50 3 90 8 90 12 0 15 -54 20 -123 12 -65 -8
-68 -8 -65 12 4 30 -10 46 -38 46 -23 0 -24 -3 -19 -34z"/>
</g>
</svg>
