<?xml version="1.0" standalone="no"?>
<!DOCTYPE svg PUBLIC "-//W3C//DTD SVG 20010904//EN"
 "http://www.w3.org/TR/2001/REC-SVG-20010904/DTD/svg10.dtd">
<svg version="1.0" xmlns="http://www.w3.org/2000/svg"
 width="96.000000pt" height="68.000000pt" viewBox="0 0 96.000000 68.000000"
 preserveAspectRatio="xMidYMid meet">
<metadata>
Created by potrace 1.16, written by Peter Selinger 2001-2019
</metadata>
<g transform="translate(0.000000,68.000000) scale(0.100000,-0.100000)"
fill="#000000" stroke="none">
<path d="M370 390 c0 -15 -96 -137 -117 -149 -10 -5 -14 -15 -9 -26 7 -18 11
-18 95 7 35 10 45 10 48 1 3 -7 11 -13 19 -13 17 0 19 41 2 58 -17 17 -49 15
-42 -3 4 -9 -3 -16 -20 -21 -47 -11 -45 1 10 61 30 33 53 67 51 75 -3 18 -37
27 -37 10z"/>
</g>
</svg>
