<?xml version="1.0" standalone="no"?>
<!DOCTYPE svg PUBLIC "-//W3C//DTD SVG 20010904//EN"
 "http://www.w3.org/TR/2001/REC-SVG-20010904/DTD/svg10.dtd">
<svg version="1.0" xmlns="http://www.w3.org/2000/svg"
 width="96.000000pt" height="68.000000pt" viewBox="0 0 96.000000 68.000000"
 preserveAspectRatio="xMidYMid meet">
<metadata>
Created by potrace 1.16, written by Peter Selinger 2001-2019
</metadata>
<g transform="translate(0.000000,68.000000) scale(0.100000,-0.100000)"
fill="#000000" stroke="none">
<path d="M460 590 c0 -6 7 -21 15 -34 16 -24 16 -24 -32 -30 -26 -3 -78 -8
-115 -12 -38 -3 -68 -9 -68 -13 0 -4 9 -14 20 -24 18 -15 20 -25 14 -70 -14
-119 -62 -226 -139 -311 -25 -27 -43 -51 -40 -54 9 -9 76 41 116 86 37 42 63
88 89 157 5 14 14 25 20 25 16 0 107 67 142 105 l33 36 40 -28 c22 -15 45 -33
50 -39 6 -7 32 -28 58 -48 40 -29 57 -36 95 -36 99 0 101 11 9 41 -49 16 -116
48 -159 76 -125 82 -125 79 -1 87 59 4 112 11 117 16 17 17 -42 29 -113 23
-61 -5 -71 -4 -71 10 0 19 -37 47 -62 47 -10 0 -18 -5 -18 -10z m10 -116 c0
-19 -18 -44 -65 -91 -36 -36 -68 -63 -71 -60 -7 6 15 125 27 149 6 11 25 18
52 21 23 2 45 4 50 5 4 1 7 -10 7 -24z"/>
<path d="M142 423 c24 -51 34 -63 49 -68 44 -14 52 23 13 54 -25 20 -70 29
-62 14z"/>
<path d="M484 374 c-17 -14 -17 -15 -1 -10 10 3 34 6 53 6 19 0 34 5 34 10 0
16 -64 12 -86 -6z"/>
<path d="M555 330 c-16 -4 -61 -8 -99 -9 -61 -1 -67 -3 -61 -18 24 -57 -9
-147 -74 -206 -24 -22 -35 -37 -26 -37 16 0 110 87 116 108 5 15 34 20 127 23
59 1 64 4 74 28 6 14 14 34 19 43 14 28 11 65 -7 72 -18 7 -28 6 -69 -4z m35
-38 c0 -12 -8 -17 -27 -17 -16 -1 -50 -4 -76 -9 -44 -7 -48 -6 -45 11 2 14 18
20 68 29 72 12 80 10 80 -14z m-10 -56 c0 -10 -17 -17 -57 -21 -32 -4 -66 -9
-75 -11 -13 -4 -18 0 -18 15 0 23 16 28 93 30 43 1 57 -2 57 -13z"/>
<path d="M200 300 c-19 -11 -52 -24 -73 -30 -41 -12 -44 -25 -10 -47 19 -13
25 -10 74 29 75 62 80 87 9 48z"/>
<path d="M490 148 c-41 -6 -76 -11 -77 -12 -1 0 4 -23 11 -51 9 -35 18 -50 30
-49 9 0 54 1 101 2 82 2 85 3 85 25 0 13 9 33 20 45 20 21 20 21 -2 36 -25 18
-56 18 -168 4z m113 -43 c-1 -15 -5 -30 -8 -34 -4 -3 -36 -6 -72 -6 -64 0 -66
1 -70 27 -4 29 4 32 97 41 51 5 55 3 53 -28z"/>
</g>
</svg>
