<?xml version="1.0" standalone="no"?>
<!DOCTYPE svg PUBLIC "-//W3C//DTD SVG 20010904//EN"
 "http://www.w3.org/TR/2001/REC-SVG-20010904/DTD/svg10.dtd">
<svg version="1.0" xmlns="http://www.w3.org/2000/svg"
 width="96.000000pt" height="68.000000pt" viewBox="0 0 96.000000 68.000000"
 preserveAspectRatio="xMidYMid meet">
<metadata>
Created by potrace 1.16, written by Peter Selinger 2001-2019
</metadata>
<g transform="translate(0.000000,68.000000) scale(0.100000,-0.100000)"
fill="#000000" stroke="none">
<path d="M269 593 c-6 -16 -27 -45 -47 -65 -40 -42 -27 -50 26 -18 29 18 92
28 92 15 0 -3 -11 -17 -23 -31 -20 -21 -33 -25 -78 -25 l-54 0 3 -57 c2 -33
-3 -74 -11 -97 -8 -22 -18 -49 -22 -60 -5 -14 2 -10 24 13 17 18 31 38 31 46
0 9 21 15 68 19 111 11 122 10 122 -14 0 -18 -5 -21 -30 -17 -16 3 -30 2 -30
-1 0 -10 44 -47 63 -54 9 -3 17 -13 17 -22 0 -12 -15 -15 -81 -15 -71 0 -79
-2 -66 -15 9 -8 18 -28 22 -45 4 -16 10 -31 13 -34 4 -2 33 0 65 3 l57 7 0
-32 0 -31 -67 -6 c-38 -4 -91 -7 -120 -7 -40 0 -51 -3 -47 -14 8 -22 46 -33
89 -25 384 66 336 65 397 6 22 -21 34 -22 42 -1 9 24 -11 52 -54 74 -47 24
-72 26 -64 5 4 -10 0 -15 -14 -15 -10 0 -40 -3 -66 -6 l-46 -7 0 32 0 31 71 0
c57 0 70 3 66 14 -3 8 3 22 14 32 44 40 7 61 -87 50 -45 -5 -54 -4 -54 9 0 9
-12 18 -30 21 -24 5 -29 11 -26 28 3 11 7 58 11 103 5 78 4 82 -17 89 -13 4
-35 7 -50 6 -16 0 -28 1 -28 4 0 2 18 16 40 30 59 39 54 58 -14 52 -42 -4 -53
-2 -49 9 6 16 -14 43 -33 43 -8 0 -19 -12 -25 -27z m66 -123 c-5 -8 31 -15 58
-11 4 0 7 -9 7 -21 0 -19 -6 -23 -33 -24 -25 0 -36 5 -44 22 -7 16 -7 26 0 33
14 14 20 14 12 1z m-47 -45 c2 -17 -3 -21 -25 -20 -22 0 -29 5 -31 23 -3 20 0
23 25 20 19 -2 29 -9 31 -23z m120 -47 c3 -15 -4 -18 -42 -18 -32 0 -46 4 -46
13 0 22 12 28 50 25 24 -2 36 -9 38 -20z m-115 -8 c4 -17 0 -20 -34 -20 -26 0
-39 4 -39 13 0 20 10 27 41 27 18 0 28 -6 32 -20z m287 -184 c0 -27 -16 -36
-66 -36 -29 0 -34 3 -34 24 0 19 6 26 28 29 65 10 72 8 72 -17z m-150 -16 c0
-29 -1 -30 -49 -30 -35 0 -51 4 -55 16 -11 28 -6 33 37 37 23 2 48 4 55 5 7 1
12 -10 12 -28z"/>
<path d="M615 573 c-16 -1 -55 -6 -85 -9 -43 -5 -50 -8 -36 -16 10 -5 29 -8
42 -5 47 9 15 -47 -51 -91 -18 -12 -17 -12 9 -7 37 8 105 60 116 90 7 17 14
20 44 17 26 -3 36 -9 36 -22 0 -26 -25 -43 -51 -35 l-22 7 22 -31 c12 -17 26
-31 30 -31 33 0 81 101 60 126 -11 13 -46 15 -114 7z"/>
<path d="M598 423 c-4 -34 -38 -46 -38 -14 0 35 -33 24 -57 -19 -30 -50 -29
-56 3 -31 36 28 104 29 104 2 0 -27 -6 -29 -78 -33 -36 -1 -61 -7 -59 -13 3
-6 30 -9 65 -7 60 3 60 3 67 -27 9 -42 23 -48 31 -14 3 15 7 34 10 41 2 8 27
12 79 12 41 0 75 4 75 9 0 16 -37 22 -95 16 -55 -7 -57 -6 -53 16 2 19 10 25
38 27 55 5 61 22 7 22 -34 0 -47 4 -47 14 0 13 -20 26 -40 26 -5 0 -10 -12
-12 -27z"/>
</g>
</svg>
