<?xml version="1.0" standalone="no"?>
<!DOCTYPE svg PUBLIC "-//W3C//DTD SVG 20010904//EN"
 "http://www.w3.org/TR/2001/REC-SVG-20010904/DTD/svg10.dtd">
<svg version="1.0" xmlns="http://www.w3.org/2000/svg"
 width="96.000000pt" height="68.000000pt" viewBox="0 0 96.000000 68.000000"
 preserveAspectRatio="xMidYMid meet">
<metadata>
Created by potrace 1.16, written by Peter Selinger 2001-2019
</metadata>
<g transform="translate(0.000000,68.000000) scale(0.100000,-0.100000)"
fill="#000000" stroke="none">
<path d="M386 328 c-3 -7 -7 -25 -10 -39 -5 -23 -12 -27 -58 -33 -29 -3 -88
-6 -130 -6 -78 0 -111 -14 -63 -26 27 -7 159 2 204 13 21 5 23 3 17 -13 -20
-49 -19 -54 10 -54 40 0 74 -10 74 -22 0 -12 -72 -44 -141 -62 l-54 -15 46 0
c48 -1 128 19 176 44 39 20 40 20 131 -25 84 -42 106 -47 118 -28 11 18 -44
56 -106 74 -61 18 -81 31 -64 42 5 4 20 22 33 40 l22 32 125 0 c116 0 143 6
112 27 -7 4 -67 8 -133 8 -66 1 -130 5 -142 9 -18 6 -23 5 -23 -7 0 -11 -14
-16 -52 -19 -29 -2 -54 -3 -56 -2 -2 1 3 12 10 24 11 18 11 23 -6 36 -24 17
-35 18 -40 2z m134 -92 c-1 -6 -11 -23 -23 -38 -21 -26 -26 -27 -75 -21 -55 6
-64 19 -34 46 27 24 132 35 132 13z"/>
</g>
</svg>
