<?xml version="1.0" standalone="no"?>
<!DOCTYPE svg PUBLIC "-//W3C//DTD SVG 20010904//EN"
 "http://www.w3.org/TR/2001/REC-SVG-20010904/DTD/svg10.dtd">
<svg version="1.0" xmlns="http://www.w3.org/2000/svg"
 width="96.000000pt" height="68.000000pt" viewBox="0 0 96.000000 68.000000"
 preserveAspectRatio="xMidYMid meet">
<metadata>
Created by potrace 1.16, written by Peter Selinger 2001-2019
</metadata>
<g transform="translate(0.000000,68.000000) scale(0.100000,-0.100000)"
fill="#000000" stroke="none">
<path d="M497 285 c-27 -30 -53 -55 -59 -55 -5 0 -23 11 -40 25 -28 24 -68 34
-68 17 0 -4 13 -15 28 -24 16 -9 57 -44 93 -76 120 -111 129 -117 173 -116 60
1 136 14 136 23 0 4 -33 15 -74 25 -80 19 -203 73 -224 99 -12 14 -5 20 62 51
42 20 76 40 76 45 0 9 -39 41 -50 41 -3 0 -27 -25 -53 -55z"/>
<path d="M216 304 c-3 -9 -6 -50 -6 -92 0 -43 -4 -92 -10 -111 -10 -36 1 -71
23 -71 7 0 42 25 77 55 36 30 68 55 73 55 4 0 7 5 7 10 0 6 -27 -3 -60 -20
l-60 -30 0 110 c0 101 -2 110 -19 110 -10 0 -22 -7 -25 -16z"/>
</g>
</svg>
