<?xml version="1.0" standalone="no"?>
<!DOCTYPE svg PUBLIC "-//W3C//DTD SVG 20010904//EN"
 "http://www.w3.org/TR/2001/REC-SVG-20010904/DTD/svg10.dtd">
<svg version="1.0" xmlns="http://www.w3.org/2000/svg"
 width="96.000000pt" height="68.000000pt" viewBox="0 0 96.000000 68.000000"
 preserveAspectRatio="xMidYMid meet">
<metadata>
Created by potrace 1.16, written by Peter Selinger 2001-2019
</metadata>
<g transform="translate(0.000000,68.000000) scale(0.100000,-0.100000)"
fill="#000000" stroke="none">
<path d="M297 573 c5 -16 8 -62 8 -103 l0 -75 -52 -8 c-69 -11 -68 -27 2 -27
l55 0 0 -39 c0 -22 -6 -46 -14 -53 -7 -8 -54 -27 -102 -43 -49 -17 -91 -31
-94 -33 -9 -6 33 -32 53 -32 10 0 46 16 79 35 33 20 63 34 65 31 3 -3 0 -32
-5 -66 -12 -66 -3 -110 22 -110 21 0 26 23 26 119 l0 86 45 25 c54 29 51 39
-5 16 l-40 -16 0 45 c0 44 0 45 39 51 76 12 83 39 10 36 l-42 -2 6 85 c6 85 6
86 -19 95 -39 15 -45 13 -37 -17z"/>
</g>
</svg>
