<?xml version="1.0" standalone="no"?>
<!DOCTYPE svg PUBLIC "-//W3C//DTD SVG 20010904//EN"
 "http://www.w3.org/TR/2001/REC-SVG-20010904/DTD/svg10.dtd">
<svg version="1.0" xmlns="http://www.w3.org/2000/svg"
 width="90.000000pt" height="92.000000pt" viewBox="0 0 90.000000 92.000000"
 preserveAspectRatio="xMidYMid meet">
<metadata>
Created by potrace 1.16, written by Peter Selinger 2001-2019
</metadata>
<g transform="translate(0.000000,92.000000) scale(0.100000,-0.100000)"
fill="#000000" stroke="none">
<path d="M186 851 c-3 -5 -2 -22 3 -37 5 -16 12 -66 14 -111 l5 -82 -49 -10
c-28 -6 -63 -11 -79 -11 -17 0 -30 -5 -30 -10 0 -15 47 -31 73 -26 12 3 36 7
54 10 l32 5 -4 -61 c-3 -33 -6 -62 -7 -63 -13 -12 -171 -85 -183 -85 -29 0
-15 -39 20 -58 18 -9 31 -2 90 44 l70 54 3 -59 c2 -32 -1 -80 -5 -107 l-9 -49
-45 3 -46 3 53 -56 c31 -32 58 -53 65 -49 22 13 40 77 39 138 -1 33 -1 95 -1
136 l1 76 52 39 c56 41 53 60 -3 26 -19 -12 -37 -21 -41 -21 -5 0 -8 22 -8 48
l0 48 42 10 c23 5 43 15 46 22 5 17 -38 31 -65 21 -21 -8 -23 -6 -23 24 0 18
6 57 14 87 17 65 14 74 -29 94 -38 19 -42 19 -49 7z"/>
<path d="M575 684 c-77 -13 -158 -28 -180 -32 l-40 -9 27 -12 c20 -10 42 -11
95 -3 37 5 70 8 73 5 2 -2 -8 -28 -23 -56 -35 -68 -152 -203 -211 -246 -26
-18 -45 -35 -42 -38 13 -14 121 54 188 117 40 39 74 70 76 70 7 0 0 -246 -9
-291 -9 -45 -8 -62 5 -92 35 -85 55 -20 54 176 -1 81 2 150 5 154 6 5 57 -34
179 -138 41 -35 58 -32 58 11 0 34 -47 71 -164 126 -74 35 -113 73 -100 97 4
7 20 28 35 48 19 24 25 40 19 49 -15 24 -1 30 75 30 77 0 105 6 105 22 0 9
-63 39 -77 37 -4 -1 -71 -12 -148 -25z"/>
</g>
</svg>
