<?xml version="1.0" standalone="no"?>
<!DOCTYPE svg PUBLIC "-//W3C//DTD SVG 20010904//EN"
 "http://www.w3.org/TR/2001/REC-SVG-20010904/DTD/svg10.dtd">
<svg version="1.0" xmlns="http://www.w3.org/2000/svg"
 width="96.000000pt" height="68.000000pt" viewBox="0 0 96.000000 68.000000"
 preserveAspectRatio="xMidYMid meet">
<metadata>
Created by potrace 1.16, written by Peter Selinger 2001-2019
</metadata>
<g transform="translate(0.000000,68.000000) scale(0.100000,-0.100000)"
fill="#000000" stroke="none">
<path d="M264 578 c4 -18 10 -56 13 -84 l6 -51 -67 -7 c-36 -4 -66 -11 -66
-16 0 -15 40 -22 86 -15 l44 6 0 -43 0 -43 -100 -45 c-55 -25 -98 -49 -97 -55
2 -5 16 -16 30 -23 25 -12 31 -10 85 27 32 23 61 41 65 41 5 0 7 -26 5 -57
l-3 -58 -45 3 -45 2 49 -45 c26 -25 54 -45 62 -45 25 0 34 38 34 139 l0 101
40 26 c59 39 51 61 -10 29 -29 -15 -30 -15 -30 7 0 35 11 45 58 53 54 9 50 29
-6 33 -47 4 -51 14 -30 85 11 35 10 41 -7 53 -10 8 -32 14 -48 14 -28 0 -29
-2 -23 -32z"/>
<path d="M560 572 c-111 -16 -121 -19 -103 -30 7 -4 18 -25 25 -47 11 -31 18
-39 33 -37 11 2 56 6 100 10 58 5 79 11 77 20 -1 7 7 25 18 39 11 14 20 29 20
33 0 8 -47 31 -58 29 -4 -1 -54 -9 -112 -17z m100 -34 c0 -37 -12 -45 -81 -52
-63 -6 -67 -5 -73 16 -13 49 -6 53 107 56 43 2 47 0 47 -20z"/>
<path d="M575 424 c-55 -7 -117 -14 -138 -15 -40 -1 -62 -18 -28 -20 12 -1 27
-2 34 -3 22 -2 27 -20 27 -108 l0 -88 -50 0 c-27 0 -50 -4 -50 -10 0 -16 69
-23 113 -11 23 7 69 11 102 9 l60 -3 3 -70 c1 -38 5 -77 8 -85 10 -28 25 18
31 96 l6 74 86 0 c78 1 84 2 67 15 -13 10 -44 15 -89 15 l-69 0 4 95 c3 89 4
95 24 95 12 0 36 3 55 7 28 5 30 7 14 14 -28 11 -95 9 -210 -7z m70 -45 c9
-29 -1 -35 -66 -43 l-57 -6 -4 30 c-5 32 3 36 79 39 34 1 43 -3 48 -20z m5
-66 c-1 -23 -22 -34 -78 -39 -58 -6 -62 -6 -62 14 0 13 8 22 23 25 39 8 117 7
117 0z m-3 -82 c2 -15 -6 -20 -44 -25 -82 -11 -93 -9 -93 19 0 23 4 24 63 27
71 3 70 4 74 -21z"/>
</g>
</svg>
