<?xml version="1.0" standalone="no"?>
<!DOCTYPE svg PUBLIC "-//W3C//DTD SVG 20010904//EN"
 "http://www.w3.org/TR/2001/REC-SVG-20010904/DTD/svg10.dtd">
<svg version="1.0" xmlns="http://www.w3.org/2000/svg"
 width="90.000000pt" height="92.000000pt" viewBox="0 0 90.000000 92.000000"
 preserveAspectRatio="xMidYMid meet">
<metadata>
Created by potrace 1.16, written by Peter Selinger 2001-2019
</metadata>
<g transform="translate(0.000000,92.000000) scale(0.100000,-0.100000)"
fill="#000000" stroke="none">
<path d="M526 898 c-3 -7 -10 -30 -16 -51 -7 -21 -31 -67 -55 -103 -48 -71
-33 -73 40 -4 38 35 45 38 122 44 115 9 139 21 92 47 -17 8 -35 7 -81 -6 -67
-18 -80 -15 -53 15 15 16 16 22 5 35 -22 26 -50 38 -54 23z"/>
<path d="M250 863 c0 -30 -49 -116 -94 -166 -24 -26 -40 -47 -34 -47 16 0 95
58 117 85 17 23 28 26 93 29 89 4 113 12 97 32 -15 18 -44 18 -102 0 -49 -15
-51 -11 -18 27 15 18 14 20 -8 38 -29 24 -51 24 -51 2z"/>
<path d="M568 712 c35 -48 82 -55 82 -12 0 24 -7 28 -60 36 l-44 7 22 -31z"/>
<path d="M265 719 c15 -27 49 -59 61 -59 18 0 26 32 12 47 -7 7 -29 16 -47 19
-28 6 -33 4 -26 -7z"/>
<path d="M486 671 c-3 -5 1 -22 9 -39 9 -16 16 -54 18 -83 l2 -53 -85 -13
c-47 -8 -147 -21 -223 -31 -76 -9 -139 -21 -140 -27 -3 -21 47 -34 92 -24 52
12 71 7 71 -19 0 -14 -13 -21 -60 -31 -77 -17 -69 -36 11 -27 55 7 59 6 59
-14 0 -15 -6 -20 -27 -20 -43 0 -104 -20 -97 -31 4 -7 28 -8 65 -4 55 7 59 6
59 -14 0 -12 -5 -19 -12 -16 -7 3 -35 -1 -63 -8 -81 -21 -43 -43 43 -24 30 6
32 5 32 -22 0 -27 -3 -30 -52 -36 -29 -5 -72 -8 -95 -7 -48 0 -54 -11 -21 -39
28 -25 33 -24 147 11 53 16 134 40 180 52 47 13 86 29 89 37 4 11 -2 12 -24 7
-92 -20 -94 -20 -94 6 0 22 6 26 55 34 70 11 68 30 -2 26 -46 -2 -53 0 -53 17
0 15 10 19 51 24 59 7 68 12 51 29 -9 9 -22 9 -52 1 -38 -10 -40 -9 -40 12 0
20 6 23 50 27 50 5 69 13 57 24 -9 9 -48 8 -81 -1 -21 -6 -27 -5 -22 4 4 7 3
18 -4 26 -9 11 -5 15 22 20 18 4 55 7 82 8 l48 2 23 -92 c13 -51 26 -97 29
-101 7 -12 -66 -81 -139 -132 -35 -25 -50 -39 -35 -35 51 15 106 43 151 77
l46 35 27 -43 c39 -62 121 -132 162 -140 19 -3 38 -4 41 0 3 3 1 30 -5 58 -6
29 -15 71 -20 93 l-9 40 -7 -52 c-6 -41 -12 -53 -26 -53 -21 0 -95 72 -116
112 -14 27 -13 31 26 88 22 32 40 64 40 71 0 17 -31 38 -56 39 -17 0 -20 -5
-17 -23 3 -13 -3 -41 -12 -63 l-17 -39 -14 38 c-7 21 -17 60 -22 87 l-9 50 41
0 c22 0 47 4 55 9 25 16 1 31 -50 31 l-49 0 0 70 c0 67 -1 70 -30 85 -33 17
-47 19 -54 6z m-154 -336 c4 -185 6 -170 -24 -173 l-27 -3 -3 131 c-2 73 -1
134 1 136 2 2 15 4 28 4 22 0 23 -3 25 -95z"/>
<path d="M370 638 c0 -12 -16 -50 -35 -85 -19 -35 -32 -63 -28 -63 4 0 22 14
40 32 l33 32 28 -27 c34 -32 52 -34 52 -6 0 14 -11 25 -35 35 l-36 15 22 31
c22 30 22 31 4 44 -27 20 -45 17 -45 -8z"/>
<path d="M197 612 c-3 -15 -26 -56 -51 -90 -25 -34 -42 -62 -37 -62 4 0 29 16
55 36 l47 36 20 -26 c25 -31 49 -34 49 -5 0 14 -10 24 -30 32 -35 13 -36 18
-10 42 27 25 25 44 -6 55 -33 13 -31 14 -37 -18z"/>
<path d="M658 582 c48 -60 92 -68 92 -17 0 28 -21 42 -81 51 l-43 7 32 -41z"/>
</g>
</svg>
