<?xml version="1.0" standalone="no"?>
<!DOCTYPE svg PUBLIC "-//W3C//DTD SVG 20010904//EN"
 "http://www.w3.org/TR/2001/REC-SVG-20010904/DTD/svg10.dtd">
<svg version="1.0" xmlns="http://www.w3.org/2000/svg"
 width="90.000000pt" height="92.000000pt" viewBox="0 0 90.000000 92.000000"
 preserveAspectRatio="xMidYMid meet">
<metadata>
Created by potrace 1.16, written by Peter Selinger 2001-2019
</metadata>
<g transform="translate(0.000000,92.000000) scale(0.100000,-0.100000)"
fill="#000000" stroke="none">
<path d="M491 875 c-5 -20 -26 -58 -45 -85 -20 -28 -33 -50 -28 -50 12 0 82
50 82 59 0 4 45 11 100 14 105 6 125 11 114 29 -7 11 -112 5 -164 -9 -22 -6
-24 -5 -11 10 16 20 9 42 -18 56 -18 10 -21 7 -30 -24z"/>
<path d="M240 875 c0 -27 -40 -95 -82 -141 -61 -66 -16 -51 59 19 22 20 45 31
70 34 90 7 124 15 120 26 -4 13 -54 15 -106 4 -34 -7 -34 -7 -16 13 17 19 17
21 0 40 -22 24 -45 26 -45 5z"/>
<path d="M550 782 c0 -18 59 -64 74 -59 21 8 20 34 -1 45 -29 15 -73 23 -73
14z"/>
<path d="M270 762 c0 -16 48 -54 59 -47 19 11 12 42 -11 49 -32 8 -48 7 -48
-2z"/>
<path d="M440 718 c-41 -10 -101 -18 -133 -19 l-59 -2 8 -31 c4 -17 8 -62 10
-100 2 -38 7 -73 11 -77 4 -4 26 -4 48 0 71 15 185 22 185 11 0 -13 27 -13 35
0 3 5 12 44 20 87 7 43 16 86 20 95 5 13 -3 21 -32 36 -37 18 -40 18 -113 0z
m72 -40 c4 -21 1 -23 -46 -23 -28 0 -77 -4 -108 -9 -50 -7 -58 -6 -58 8 0 9 6
16 13 16 6 1 50 7 97 14 47 8 88 14 91 15 4 1 9 -9 11 -21z m-2 -61 c0 -20 -5
-22 -47 -22 -27 0 -74 -4 -105 -9 -49 -7 -58 -6 -58 7 0 11 15 17 58 23 54 6
144 20 150 23 1 0 2 -9 2 -22z m0 -63 c0 -23 -3 -25 -25 -20 -13 3 -57 1 -96
-5 -58 -9 -73 -8 -80 2 -4 7 -7 15 -5 17 2 1 48 9 102 16 55 8 100 14 102 15
1 0 2 -11 2 -25z"/>
<path d="M300 461 c0 -15 -11 -19 -61 -25 -34 -3 -77 -6 -95 -6 -42 0 -44 -15
-3 -29 22 -7 45 -7 80 0 28 6 53 9 55 6 14 -13 -126 -127 -240 -194 -38 -23
-39 -24 -11 -18 74 16 178 78 255 152 53 49 85 73 97 71 15 -4 10 -12 -25 -47
-51 -49 -50 -71 4 -71 31 0 35 -2 24 -14 -6 -8 -31 -23 -56 -32 -48 -18 -50
-22 -31 -47 10 -14 18 -15 47 -7 58 17 60 15 60 -45 l0 -55 -35 0 -36 0 34
-30 c19 -16 40 -30 45 -30 22 0 34 43 30 110 -3 62 -1 70 17 74 37 10 72 6 85
-9 7 -8 21 -15 32 -15 16 0 19 5 14 23 -3 12 -6 25 -6 28 0 8 -74 39 -91 39
-8 0 -7 -5 1 -15 7 -9 11 -17 9 -20 -10 -9 -162 -18 -156 -8 3 5 44 27 91 47
88 39 102 57 64 77 -19 10 -25 7 -53 -26 -30 -37 -32 -37 -60 -23 l-29 16 35
17 c45 23 45 22 25 44 -17 18 -16 19 14 26 37 8 51 0 179 -108 l94 -80 68 6
c114 10 115 20 5 55 -57 17 -130 50 -177 78 l-81 49 97 3 c101 3 117 13 62 40
-19 9 -42 10 -89 3 -35 -5 -102 -12 -149 -16 -71 -5 -88 -4 -98 9 -18 22 -41
20 -41 -3z"/>
<path d="M250 167 c0 -7 -14 -33 -32 -56 -31 -43 -31 -43 -7 -36 33 10 89 53
89 69 0 16 -20 36 -37 36 -7 0 -13 -6 -13 -13z"/>
<path d="M500 174 c0 -12 104 -114 116 -114 14 0 25 36 17 57 -10 25 -133 77
-133 57z"/>
</g>
</svg>
