<?xml version="1.0" standalone="no"?>
<!DOCTYPE svg PUBLIC "-//W3C//DTD SVG 20010904//EN"
 "http://www.w3.org/TR/2001/REC-SVG-20010904/DTD/svg10.dtd">
<svg version="1.0" xmlns="http://www.w3.org/2000/svg"
 width="90.000000pt" height="92.000000pt" viewBox="0 0 90.000000 92.000000"
 preserveAspectRatio="xMidYMid meet">
<metadata>
Created by potrace 1.16, written by Peter Selinger 2001-2019
</metadata>
<g transform="translate(0.000000,92.000000) scale(0.100000,-0.100000)"
fill="#000000" stroke="none">
<path d="M509 808 c0 -2 -2 -12 -4 -23 -2 -11 -9 -45 -16 -77 -13 -62 -3 -56
-118 -74 -42 -6 -44 -7 -25 -21 14 -10 33 -12 67 -7 l49 6 -17 -33 c-10 -19
-29 -49 -43 -68 -24 -32 -24 -36 -10 -60 8 -14 21 -24 29 -22 8 2 60 15 117
29 l103 26 23 -29 c27 -33 46 -27 46 16 0 36 -34 73 -86 95 -45 19 -52 13 -25
-22 11 -14 19 -30 16 -34 -6 -9 -155 -34 -162 -26 -3 3 7 34 22 70 32 74 29
73 173 83 56 3 105 10 108 14 2 5 -7 16 -22 25 -24 17 -31 17 -112 1 -47 -9
-87 -15 -89 -14 -1 2 7 27 19 55 21 50 21 52 3 72 -15 16 -43 27 -46 18z"/>
<path d="M220 728 c-30 -11 -79 -22 -109 -26 -59 -8 -78 -27 -36 -38 18 -4 54
2 101 16 41 13 77 21 80 17 13 -12 -65 -117 -86 -117 -22 0 -24 -4 -11 -28 4
-9 11 -81 15 -158 l7 -141 -38 -10 -38 -10 3 101 c4 87 2 102 -14 113 -10 7
-26 13 -37 13 -15 0 -18 -5 -13 -23 3 -12 8 -66 12 -119 l7 -96 -32 -7 c-38
-8 -39 -32 -1 -53 23 -13 36 -9 174 57 82 40 146 74 143 77 -3 3 -29 -2 -58
-10 -29 -9 -56 -16 -61 -16 -4 0 -8 35 -8 79 l0 79 53 6 c67 9 84 18 62 36
-14 12 -35 11 -93 -6 -22 -6 -23 -5 -19 55 3 60 5 64 48 98 24 19 56 41 71 49
35 18 28 39 -23 64 -21 11 -40 19 -41 19 -2 -1 -28 -10 -58 -21z"/>
<path d="M639 403 c0 -5 0 -62 1 -128 2 -135 10 -158 65 -181 35 -14 111 -19
139 -8 19 7 21 40 4 47 -7 2 -36 2 -65 -1 -46 -4 -54 -2 -78 22 -26 26 -26 30
-20 104 3 42 8 89 11 103 4 20 -1 28 -21 37 -30 14 -35 15 -36 5z"/>
<path d="M497 383 c-3 -3 -1 -17 5 -32 6 -16 8 -68 4 -137 -5 -90 -4 -113 8
-123 24 -20 29 3 32 131 2 65 6 123 9 127 8 15 -46 46 -58 34z"/>
<path d="M370 351 c29 -55 2 -146 -64 -219 l-51 -56 55 30 c44 25 60 42 83 85
15 30 31 78 36 107 9 57 -1 72 -49 72 -17 0 -19 -3 -10 -19z"/>
</g>
</svg>
