<?xml version="1.0" standalone="no"?>
<!DOCTYPE svg PUBLIC "-//W3C//DTD SVG 20010904//EN"
 "http://www.w3.org/TR/2001/REC-SVG-20010904/DTD/svg10.dtd">
<svg version="1.0" xmlns="http://www.w3.org/2000/svg"
 width="96.000000pt" height="68.000000pt" viewBox="0 0 96.000000 68.000000"
 preserveAspectRatio="xMidYMid meet">
<metadata>
Created by potrace 1.16, written by Peter Selinger 2001-2019
</metadata>
<g transform="translate(0.000000,68.000000) scale(0.100000,-0.100000)"
fill="#000000" stroke="none">
<path d="M440 225 c0 -11 -13 -15 -52 -16 -29 -1 -64 -4 -78 -8 -42 -12 -5
-23 63 -19 50 2 62 0 65 -13 3 -19 -34 -29 -104 -29 -24 0 -44 -4 -44 -10 0
-6 32 -10 75 -10 68 0 75 -2 75 -20 0 -28 38 -27 42 2 2 14 11 22 28 24 109
11 140 17 140 25 0 5 -38 9 -85 9 -66 0 -85 3 -85 14 0 16 29 25 85 27 22 0
51 4 65 8 47 13 2 23 -71 16 -48 -5 -69 -4 -69 4 0 6 -11 11 -25 11 -16 0 -25
-6 -25 -15z"/>
</g>
</svg>
