<?xml version="1.0" standalone="no"?>
<!DOCTYPE svg PUBLIC "-//W3C//DTD SVG 20010904//EN"
 "http://www.w3.org/TR/2001/REC-SVG-20010904/DTD/svg10.dtd">
<svg version="1.0" xmlns="http://www.w3.org/2000/svg"
 width="96.000000pt" height="68.000000pt" viewBox="0 0 96.000000 68.000000"
 preserveAspectRatio="xMidYMid meet">
<metadata>
Created by potrace 1.16, written by Peter Selinger 2001-2019
</metadata>
<g transform="translate(0.000000,68.000000) scale(0.100000,-0.100000)"
fill="#000000" stroke="none">
<path d="M550 201 c0 -16 -10 -20 -65 -26 -36 -3 -65 -11 -65 -17 0 -7 22 -9
64 -5 l63 6 6 -66 c4 -36 9 -68 12 -72 12 -11 25 25 26 72 1 26 2 53 3 60 1 8
27 13 86 15 47 2 87 6 90 8 14 15 -33 24 -97 19 -62 -5 -73 -3 -73 10 0 9 -9
15 -25 15 -18 0 -25 -5 -25 -19z"/>
</g>
</svg>
