<?xml version="1.0" standalone="no"?>
<!DOCTYPE svg PUBLIC "-//W3C//DTD SVG 20010904//EN"
 "http://www.w3.org/TR/2001/REC-SVG-20010904/DTD/svg10.dtd">
<svg version="1.0" xmlns="http://www.w3.org/2000/svg"
 width="96.000000pt" height="68.000000pt" viewBox="0 0 96.000000 68.000000"
 preserveAspectRatio="xMidYMid meet">
<metadata>
Created by potrace 1.16, written by Peter Selinger 2001-2019
</metadata>
<g transform="translate(0.000000,68.000000) scale(0.100000,-0.100000)"
fill="#000000" stroke="none">
<path d="M241 568 c18 -65 14 -76 -37 -84 -51 -7 -42 -24 14 -24 27 0 32 -3
32 -25 0 -18 5 -25 20 -25 16 0 20 7 20 30 0 24 5 31 25 35 84 17 81 16 62 26
-10 6 -32 9 -50 7 -30 -3 -32 -1 -30 29 2 23 -3 36 -19 47 -37 26 -48 21 -37
-16z"/>
</g>
</svg>
