<?xml version="1.0" standalone="no"?>
<!DOCTYPE svg PUBLIC "-//W3C//DTD SVG 20010904//EN"
 "http://www.w3.org/TR/2001/REC-SVG-20010904/DTD/svg10.dtd">
<svg version="1.0" xmlns="http://www.w3.org/2000/svg"
 width="96.000000pt" height="68.000000pt" viewBox="0 0 96.000000 68.000000"
 preserveAspectRatio="xMidYMid meet">
<metadata>
Created by potrace 1.16, written by Peter Selinger 2001-2019
</metadata>
<g transform="translate(0.000000,68.000000) scale(0.100000,-0.100000)"
fill="#000000" stroke="none">
<path d="M530 595 c0 -40 -3 -45 -22 -45 -13 0 -29 -4 -37 -9 -11 -7 -9 -11 8
-20 12 -7 26 -9 31 -6 5 3 4 -8 -2 -25 -14 -41 -1 -51 23 -20 49 61 46 60 111
60 35 0 70 5 78 10 27 18 -9 31 -72 27 -32 -2 -58 -2 -58 1 0 2 5 13 11 24 9
18 8 24 -7 35 -10 7 -28 13 -41 13 -21 0 -23 -5 -23 -45z"/>
<path d="M284 595 c-4 -9 -2 -21 5 -28 27 -27 12 -37 -53 -37 -72 0 -85 -9
-56 -35 19 -18 31 -17 112 1 23 5 29 2 39 -20 18 -38 41 -34 37 6 -3 29 0 33
26 38 38 6 31 25 -9 25 -25 0 -30 4 -33 28 -2 15 -9 27 -17 27 -7 0 -20 3 -29
6 -10 4 -18 0 -22 -11z"/>
<path d="M440 421 c0 -5 9 -12 20 -16 11 -3 61 -36 112 -73 83 -60 98 -67 138
-66 57 1 120 13 120 22 0 4 -39 15 -87 24 -64 12 -115 30 -188 67 -104 53
-115 57 -115 42z"/>
<path d="M316 387 c-15 -37 -74 -88 -149 -132 -68 -39 -51 -42 24 -4 84 41
189 116 189 134 0 13 -29 35 -44 35 -3 0 -12 -15 -20 -33z"/>
<path d="M422 284 c-34 -7 -78 -15 -97 -17 -20 -2 -34 -8 -33 -13 2 -5 20 -8
41 -6 37 3 38 2 31 -20 -12 -37 -65 -97 -118 -131 -33 -22 -43 -33 -32 -35 55
-11 234 159 194 184 -17 11 18 22 71 23 l44 1 -6 -47 c-3 -27 -12 -66 -19 -88
-12 -36 -17 -40 -46 -39 -38 2 -39 -2 -9 -40 43 -53 90 -10 114 107 8 39 19
80 25 91 8 15 7 22 -8 33 -22 16 -69 15 -152 -3z"/>
</g>
</svg>
