<?xml version="1.0" standalone="no"?>
<!DOCTYPE svg PUBLIC "-//W3C//DTD SVG 20010904//EN"
 "http://www.w3.org/TR/2001/REC-SVG-20010904/DTD/svg10.dtd">
<svg version="1.0" xmlns="http://www.w3.org/2000/svg"
 width="96.000000pt" height="68.000000pt" viewBox="0 0 96.000000 68.000000"
 preserveAspectRatio="xMidYMid meet">
<metadata>
Created by potrace 1.16, written by Peter Selinger 2001-2019
</metadata>
<g transform="translate(0.000000,68.000000) scale(0.100000,-0.100000)"
fill="#000000" stroke="none">
<path d="M455 442 c0 -160 1 -167 20 -167 19 0 20 9 26 155 3 85 3 158 0 161
-3 4 -15 9 -26 13 -19 6 -20 1 -20 -162z"/>
<path d="M670 435 c63 -64 95 -79 106 -51 14 36 -42 80 -130 105 l-40 10 64
-64z"/>
<path d="M287 443 c-3 -16 -26 -52 -52 -82 -25 -29 -44 -56 -41 -58 15 -16
166 105 166 133 0 15 -30 34 -53 34 -8 0 -17 -12 -20 -27z"/>
</g>
</svg>
