<?xml version="1.0" standalone="no"?>
<!DOCTYPE svg PUBLIC "-//W3C//DTD SVG 20010904//EN"
 "http://www.w3.org/TR/2001/REC-SVG-20010904/DTD/svg10.dtd">
<svg version="1.0" xmlns="http://www.w3.org/2000/svg"
 width="96.000000pt" height="68.000000pt" viewBox="0 0 96.000000 68.000000"
 preserveAspectRatio="xMidYMid meet">
<metadata>
Created by potrace 1.16, written by Peter Selinger 2001-2019
</metadata>
<g transform="translate(0.000000,68.000000) scale(0.100000,-0.100000)"
fill="#000000" stroke="none">
<path d="M600 425 l0 -53 -56 -7 c-31 -4 -57 -5 -58 -3 -1 2 -7 19 -12 38 -8
28 -15 36 -38 38 -28 3 -28 3 -12 -19 9 -13 16 -34 16 -46 0 -21 -4 -23 -55
-23 -30 0 -55 -4 -55 -10 0 -6 26 -10 59 -10 l59 0 7 -55 c6 -52 24 -83 33
-57 2 7 25 12 57 12 68 0 85 7 85 35 0 12 3 36 6 53 6 29 8 30 82 37 71 7 74
8 52 20 -16 9 -42 11 -74 8 -44 -6 -49 -4 -43 11 11 27 20 66 16 66 -2 0 -19
4 -37 9 l-32 10 0 -54z m0 -89 c0 -7 -3 -27 -6 -44 -6 -28 -11 -32 -51 -38
-24 -3 -46 -5 -48 -2 -2 2 -7 22 -11 45 l-6 42 43 4 c24 2 52 4 62 5 9 1 17
-4 17 -12z"/>
</g>
</svg>
