<?xml version="1.0" standalone="no"?>
<!DOCTYPE svg PUBLIC "-//W3C//DTD SVG 20010904//EN"
 "http://www.w3.org/TR/2001/REC-SVG-20010904/DTD/svg10.dtd">
<svg version="1.0" xmlns="http://www.w3.org/2000/svg"
 width="96.000000pt" height="68.000000pt" viewBox="0 0 96.000000 68.000000"
 preserveAspectRatio="xMidYMid meet">
<metadata>
Created by potrace 1.16, written by Peter Selinger 2001-2019
</metadata>
<g transform="translate(0.000000,68.000000) scale(0.100000,-0.100000)"
fill="#000000" stroke="none">
<path d="M593 563 c-6 -26 -14 -56 -18 -65 -11 -28 10 -21 25 7 12 23 19 25
81 25 37 0 71 5 74 10 8 13 -16 16 -85 9 -27 -3 -34 0 -31 11 8 34 5 45 -15
48 -18 3 -23 -4 -31 -45z"/>
<path d="M434 575 c3 -8 9 -21 12 -29 4 -12 -8 -16 -55 -22 -35 -4 -58 -11
-55 -16 4 -6 29 -7 61 -3 46 6 57 4 68 -12 20 -27 25 -13 18 45 -5 47 -8 52
-30 52 -18 0 -23 -4 -19 -15z"/>
<path d="M197 574 c-3 -4 -1 -16 5 -27 11 -21 5 -338 -8 -452 -4 -37 -2 -55
10 -70 15 -19 17 -19 30 -2 10 13 16 70 21 203 l7 185 23 -21 c26 -24 45 -20
45 10 0 12 -12 23 -35 31 -39 14 -39 15 -24 78 8 37 7 45 -8 57 -19 14 -55 18
-66 8z"/>
<path d="M535 460 c-72 -10 -141 -16 -155 -13 -24 6 -24 5 -9 -13 9 -10 20
-34 24 -53 l7 -33 77 7 c42 4 104 8 138 9 61 2 63 3 92 43 50 68 16 79 -174
53z m133 -15 c2 -1 0 -14 -4 -29 -5 -23 -11 -26 -46 -26 -21 0 -37 4 -34 9 3
4 10 20 16 36 9 23 14 26 38 20 15 -4 28 -8 30 -10z m-98 -14 c0 -11 -3 -26
-6 -35 -8 -20 -54 -21 -54 -2 0 8 -3 21 -6 29 -3 10 2 17 13 20 39 10 53 7 53
-12z m-85 -22 c9 -27 -2 -39 -34 -39 -24 0 -29 5 -33 30 -4 23 0 30 16 32 30
5 44 -1 51 -23z"/>
<path d="M115 361 c-29 -58 -32 -86 -9 -95 22 -9 22 -9 39 24 17 32 20 106 5
115 -5 3 -21 -17 -35 -44z"/>
<path d="M542 322 c-149 -13 -185 -13 -192 -3 -4 7 -10 9 -12 5 -11 -21 -30
-105 -25 -111 13 -12 38 8 43 37 6 27 14 34 35 32 4 -1 63 5 130 13 138 16
229 19 229 7 0 -4 -5 -13 -12 -20 -19 -19 -4 -23 51 -11 58 12 64 27 22 52
-33 19 -23 19 -269 -1z"/>
<path d="M585 270 c-16 -4 -59 -8 -95 -9 l-65 -1 1 -115 c0 -118 6 -142 28
-112 11 13 28 17 88 17 67 0 77 -3 91 -23 12 -18 17 -20 29 -9 9 9 13 45 13
127 0 109 -1 115 -23 125 -25 11 -24 11 -67 0z m48 -41 c6 -24 3 -26 -90 -33
-72 -6 -73 -6 -73 18 0 21 5 25 38 29 98 10 119 8 125 -14z m-5 -83 c-2 -2
-38 -6 -80 -9 -78 -7 -78 -7 -78 18 0 23 3 24 78 27 68 3 77 1 80 -15 2 -10 2
-20 0 -21z m8 -43 c-1 -21 -43 -32 -125 -32 -44 -1 -52 2 -47 15 3 9 6 20 6
25 0 5 38 9 84 9 74 0 84 -2 82 -17z"/>
</g>
</svg>
