<?xml version="1.0" standalone="no"?>
<!DOCTYPE svg PUBLIC "-//W3C//DTD SVG 20010904//EN"
 "http://www.w3.org/TR/2001/REC-SVG-20010904/DTD/svg10.dtd">
<svg version="1.0" xmlns="http://www.w3.org/2000/svg"
 width="96.000000pt" height="68.000000pt" viewBox="0 0 96.000000 68.000000"
 preserveAspectRatio="xMidYMid meet">
<metadata>
Created by potrace 1.16, written by Peter Selinger 2001-2019
</metadata>
<g transform="translate(0.000000,68.000000) scale(0.100000,-0.100000)"
fill="#000000" stroke="none">
<path d="M367 428 c-13 -48 -29 -58 -121 -70 -66 -8 -84 -13 -71 -21 9 -5 44
-7 76 -5 l59 4 -23 -24 c-12 -13 -56 -49 -97 -80 -100 -75 -98 -73 -64 -63 48
14 135 70 194 126 53 50 58 53 122 58 l67 6 101 -84 101 -85 57 0 c84 0 96 14
31 35 -68 22 -156 66 -208 103 l-40 29 46 7 c25 3 61 6 79 6 19 0 34 4 34 10
0 20 -64 25 -153 13 -125 -16 -164 -16 -149 -1 17 17 15 45 -4 52 -26 10 -32
7 -37 -16z"/>
</g>
</svg>
