<?xml version="1.0" standalone="no"?>
<!DOCTYPE svg PUBLIC "-//W3C//DTD SVG 20010904//EN"
 "http://www.w3.org/TR/2001/REC-SVG-20010904/DTD/svg10.dtd">
<svg version="1.0" xmlns="http://www.w3.org/2000/svg"
 width="90.000000pt" height="92.000000pt" viewBox="0 0 90.000000 92.000000"
 preserveAspectRatio="xMidYMid meet">
<metadata>
Created by potrace 1.16, written by Peter Selinger 2001-2019
</metadata>
<g transform="translate(0.000000,92.000000) scale(0.100000,-0.100000)"
fill="#000000" stroke="none">
<path d="M495 833 c-60 -13 -155 -26 -210 -28 -55 -2 -102 -5 -104 -5 -3 0 5
-10 16 -22 21 -24 34 -69 53 -195 12 -73 34 -111 46 -79 4 10 18 16 40 16 34
0 34 0 34 -48 0 -72 -10 -80 -120 -89 l-95 -8 28 -19 c25 -17 36 -18 93 -9 35
5 64 8 64 6 0 -2 -9 -22 -21 -45 -27 -53 -110 -141 -174 -184 -65 -44 -34 -45
47 -2 76 40 132 96 181 181 l39 66 61 6 c34 4 80 5 102 3 l40 -3 -3 -57 c-2
-64 -37 -167 -58 -175 -12 -5 -34 1 -88 23 -13 5 -6 -10 22 -45 23 -29 42 -57
42 -62 0 -20 48 -7 72 18 34 35 42 58 63 169 9 49 23 99 31 112 18 27 8 44
-37 68 -24 12 -37 12 -99 -1 -39 -8 -85 -15 -102 -15 -25 0 -29 3 -23 18 20
47 17 57 -22 77 l-38 19 90 8 c76 8 91 7 101 -6 29 -40 51 -8 89 129 15 55 34
109 41 121 12 18 12 23 -4 37 -10 9 -33 22 -52 30 -31 12 -47 11 -145 -10z
m105 -80 l0 -48 -70 0 -70 0 0 42 c0 47 5 50 88 52 l52 1 0 -47z m-196 5 c15
-56 9 -66 -41 -73 -27 -3 -55 -8 -65 -9 -17 -4 -28 20 -28 66 0 23 5 27 33 31
81 10 94 8 101 -15z m186 -95 c0 -10 -5 -34 -10 -53 -10 -34 -11 -35 -65 -36
l-55 -1 0 43 c0 47 -7 43 90 57 14 3 28 5 33 6 4 0 7 -7 7 -16z m-180 -57 l0
-43 -52 -6 c-29 -2 -54 -4 -55 -3 -1 1 -5 20 -9 43 l-6 42 38 4 c90 9 84 11
84 -37z"/>
</g>
</svg>
