<?xml version="1.0" standalone="no"?>
<!DOCTYPE svg PUBLIC "-//W3C//DTD SVG 20010904//EN"
 "http://www.w3.org/TR/2001/REC-SVG-20010904/DTD/svg10.dtd">
<svg version="1.0" xmlns="http://www.w3.org/2000/svg"
 width="96.000000pt" height="68.000000pt" viewBox="0 0 96.000000 68.000000"
 preserveAspectRatio="xMidYMid meet">
<metadata>
Created by potrace 1.16, written by Peter Selinger 2001-2019
</metadata>
<g transform="translate(0.000000,68.000000) scale(0.100000,-0.100000)"
fill="#000000" stroke="none">
<path d="M593 303 c-19 -2 -33 -10 -33 -18 0 -9 10 -12 38 -8 51 7 63 -9 51
-69 -18 -98 -52 -128 -110 -98 -27 15 -24 6 12 -35 39 -44 69 -45 103 -5 23
28 46 86 46 118 0 8 7 30 16 49 15 31 15 36 2 49 -16 17 -74 24 -125 17z"/>
</g>
</svg>
