<?xml version="1.0" standalone="no"?>
<!DOCTYPE svg PUBLIC "-//W3C//DTD SVG 20010904//EN"
 "http://www.w3.org/TR/2001/REC-SVG-20010904/DTD/svg10.dtd">
<svg version="1.0" xmlns="http://www.w3.org/2000/svg"
 width="96.000000pt" height="68.000000pt" viewBox="0 0 96.000000 68.000000"
 preserveAspectRatio="xMidYMid meet">
<metadata>
Created by potrace 1.16, written by Peter Selinger 2001-2019
</metadata>
<g transform="translate(0.000000,68.000000) scale(0.100000,-0.100000)"
fill="#000000" stroke="none">
<path d="M515 595 c-38 -8 -112 -14 -162 -14 -51 -1 -93 -4 -93 -8 0 -4 8 -16
19 -27 10 -12 26 -55 36 -96 21 -84 38 -111 57 -92 7 7 25 12 40 12 25 0 28
-4 28 -32 0 -18 -4 -38 -8 -44 -4 -7 -45 -15 -90 -19 -100 -9 -99 -29 2 -23
36 1 66 2 66 0 0 -2 -6 -15 -14 -30 -18 -35 -70 -82 -129 -116 -65 -39 -68
-50 -6 -26 78 31 82 34 155 113 l69 74 74 7 c86 8 103 -1 95 -47 -9 -52 -26
-101 -40 -114 -16 -16 -56 -17 -72 -1 -6 6 -14 9 -17 6 -11 -11 60 -78 82 -78
32 0 72 59 93 137 10 37 21 76 25 85 4 11 -1 22 -20 34 -23 15 -34 16 -116 4
-49 -7 -92 -10 -96 -7 -3 4 0 14 8 23 11 14 10 19 -8 34 -12 10 -19 20 -16 24
11 11 129 6 141 -6 18 -18 36 4 67 84 16 40 35 83 43 96 14 21 13 25 -1 40
-22 21 -121 25 -212 7z m125 -54 c0 -29 -1 -29 -60 -33 -59 -3 -60 -3 -60 24
0 31 10 36 73 37 45 1 47 0 47 -28z m-180 -21 c0 -30 -1 -30 -55 -30 -41 0
-55 4 -55 14 0 8 -3 21 -6 30 -5 14 3 16 55 16 l61 0 0 -30z m165 -62 c-10
-32 -14 -35 -62 -42 -42 -6 -43 -6 -43 23 0 26 4 30 33 34 76 9 79 9 72 -15z
m-162 -20 c9 -32 1 -38 -49 -38 -40 0 -44 2 -44 24 0 25 13 33 61 35 19 1 28
-5 32 -21z"/>
</g>
</svg>
