<?xml version="1.0" standalone="no"?>
<!DOCTYPE svg PUBLIC "-//W3C//DTD SVG 20010904//EN"
 "http://www.w3.org/TR/2001/REC-SVG-20010904/DTD/svg10.dtd">
<svg version="1.0" xmlns="http://www.w3.org/2000/svg"
 width="96.000000pt" height="68.000000pt" viewBox="0 0 96.000000 68.000000"
 preserveAspectRatio="xMidYMid meet">
<metadata>
Created by potrace 1.16, written by Peter Selinger 2001-2019
</metadata>
<g transform="translate(0.000000,68.000000) scale(0.100000,-0.100000)"
fill="#000000" stroke="none">
<path d="M660 534 c-36 -7 -101 -14 -145 -15 l-80 -1 0 -142 c0 -157 -11 -196
-75 -269 -37 -42 -31 -48 14 -13 75 57 102 132 109 299 2 57 8 92 16 97 14 8
131 23 196 24 l40 1 3 -209 2 -209 -37 6 -38 6 43 -41 44 -41 21 22 c21 21 22
30 22 224 0 111 4 212 9 224 7 18 3 24 -23 37 -34 18 -34 18 -121 0z"/>
</g>
</svg>
