<?xml version="1.0" standalone="no"?>
<!DOCTYPE svg PUBLIC "-//W3C//DTD SVG 20010904//EN"
 "http://www.w3.org/TR/2001/REC-SVG-20010904/DTD/svg10.dtd">
<svg version="1.0" xmlns="http://www.w3.org/2000/svg"
 width="96.000000pt" height="68.000000pt" viewBox="0 0 96.000000 68.000000"
 preserveAspectRatio="xMidYMid meet">
<metadata>
Created by potrace 1.16, written by Peter Selinger 2001-2019
</metadata>
<g transform="translate(0.000000,68.000000) scale(0.100000,-0.100000)"
fill="#000000" stroke="none">
<path d="M325 241 c-5 -9 32 -51 45 -51 16 0 22 20 11 34 -14 17 -49 27 -56
17z"/>
<path d="M250 185 c25 -27 50 -33 50 -12 0 20 -22 37 -49 37 l-24 0 23 -25z"/>
<path d="M126 178 c21 -38 57 -78 69 -78 42 0 20 55 -30 76 -42 17 -48 17 -39
2z"/>
</g>
</svg>
