<?xml version="1.0" standalone="no"?>
<!DOCTYPE svg PUBLIC "-//W3C//DTD SVG 20010904//EN"
 "http://www.w3.org/TR/2001/REC-SVG-20010904/DTD/svg10.dtd">
<svg version="1.0" xmlns="http://www.w3.org/2000/svg"
 width="96.000000pt" height="68.000000pt" viewBox="0 0 96.000000 68.000000"
 preserveAspectRatio="xMidYMid meet">
<metadata>
Created by potrace 1.16, written by Peter Selinger 2001-2019
</metadata>
<g transform="translate(0.000000,68.000000) scale(0.100000,-0.100000)"
fill="#000000" stroke="none">
<path d="M515 349 c-44 -9 -84 -18 -90 -18 -5 -1 -3 -6 6 -11 10 -6 38 -5 77
2 34 6 65 8 69 5 3 -4 -4 -18 -17 -32 -13 -14 -19 -25 -14 -25 17 0 134 54
134 63 0 8 -64 38 -77 36 -4 -1 -44 -10 -88 -20z"/>
</g>
</svg>
