<?xml version="1.0" standalone="no"?>
<!DOCTYPE svg PUBLIC "-//W3C//DTD SVG 20010904//EN"
 "http://www.w3.org/TR/2001/REC-SVG-20010904/DTD/svg10.dtd">
<svg version="1.0" xmlns="http://www.w3.org/2000/svg"
 width="90.000000pt" height="92.000000pt" viewBox="0 0 90.000000 92.000000"
 preserveAspectRatio="xMidYMid meet">
<metadata>
Created by potrace 1.16, written by Peter Selinger 2001-2019
</metadata>
<g transform="translate(0.000000,92.000000) scale(0.100000,-0.100000)"
fill="#000000" stroke="none">
<path d="M376 883 c-88 -13 -162 -25 -164 -27 -2 -3 2 -14 8 -27 17 -31 7
-159 -17 -230 -25 -75 -77 -160 -135 -220 -26 -27 -44 -49 -41 -49 18 0 107
67 132 99 32 41 72 118 90 174 14 40 22 45 41 22 8 -10 11 -47 10 -112 -3
-122 -3 -123 13 -123 17 0 169 124 157 128 -5 2 -31 -8 -59 -22 -28 -14 -55
-26 -61 -26 -8 0 -10 27 -8 84 l3 83 92 12 c107 13 153 14 153 3 0 -14 -51
-83 -58 -78 -12 7 -112 35 -112 31 0 -2 15 -12 33 -24 17 -11 72 -51 122 -90
98 -78 132 -90 120 -43 -9 36 -41 69 -94 96 l-43 22 46 18 c49 19 58 39 26 56
-30 16 -15 30 31 30 44 0 51 15 14 32 -22 10 -172 -5 -374 -38 -33 -5 -34 -5
-27 27 3 17 6 35 6 39 0 5 9 6 20 3 24 -7 244 24 279 38 20 8 22 12 10 20 -20
13 -73 11 -164 -6 -44 -8 -92 -17 -107 -20 -24 -4 -28 -1 -28 18 1 51 27 59
225 73 58 4 108 10 110 15 8 13 -37 39 -65 38 -14 -1 -97 -13 -184 -26z"/>
<path d="M508 444 c-4 -3 -2 -19 3 -37 5 -17 8 -32 6 -33 -6 -5 -263 -34 -307
-34 -57 0 -64 -12 -19 -36 29 -15 37 -15 97 1 37 9 103 19 149 22 l83 6 0 -94
c0 -52 -4 -100 -9 -108 -6 -10 -20 -11 -52 -6 l-43 7 45 -50 c24 -28 49 -51
55 -52 6 0 19 9 30 21 16 18 19 40 22 155 l4 134 104 0 c87 0 104 2 104 16 0
26 -63 46 -112 34 -24 -5 -55 -10 -70 -10 -24 0 -28 4 -28 29 0 21 -6 30 -22
35 -29 7 -33 7 -40 0z"/>
<path d="M290 275 c0 -3 14 -27 31 -51 34 -50 62 -55 67 -12 2 19 -3 31 -20
42 -27 17 -78 31 -78 21z"/>
</g>
</svg>
