<?xml version="1.0" standalone="no"?>
<!DOCTYPE svg PUBLIC "-//W3C//DTD SVG 20010904//EN"
 "http://www.w3.org/TR/2001/REC-SVG-20010904/DTD/svg10.dtd">
<svg version="1.0" xmlns="http://www.w3.org/2000/svg"
 width="96.000000pt" height="68.000000pt" viewBox="0 0 96.000000 68.000000"
 preserveAspectRatio="xMidYMid meet">
<metadata>
Created by potrace 1.16, written by Peter Selinger 2001-2019
</metadata>
<g transform="translate(0.000000,68.000000) scale(0.100000,-0.100000)"
fill="#000000" stroke="none">
<path d="M405 628 c-22 -5 -59 -7 -82 -4 l-43 6 6 -63 c7 -71 15 -84 36 -63 8
8 37 17 64 21 79 12 88 26 12 19 -46 -4 -68 -3 -68 4 0 6 27 14 60 18 33 4 60
10 60 15 0 5 -27 6 -60 2 -39 -4 -60 -2 -60 5 0 14 25 22 68 22 53 0 87 11 70
21 -7 5 -15 8 -18 8 -3 -1 -23 -5 -45 -11z"/>
</g>
</svg>
