<?xml version="1.0" standalone="no"?>
<!DOCTYPE svg PUBLIC "-//W3C//DTD SVG 20010904//EN"
 "http://www.w3.org/TR/2001/REC-SVG-20010904/DTD/svg10.dtd">
<svg version="1.0" xmlns="http://www.w3.org/2000/svg"
 width="96.000000pt" height="68.000000pt" viewBox="0 0 96.000000 68.000000"
 preserveAspectRatio="xMidYMid meet">
<metadata>
Created by potrace 1.16, written by Peter Selinger 2001-2019
</metadata>
<g transform="translate(0.000000,68.000000) scale(0.100000,-0.100000)"
fill="#000000" stroke="none">
<path d="M490 605 c-30 -8 -92 -14 -138 -15 l-82 0 14 -22 c8 -13 21 -49 30
-81 8 -33 16 -61 18 -62 2 -2 24 1 48 6 25 6 82 9 127 7 l82 -4 22 55 c13 31
29 65 36 77 11 18 11 23 -2 34 -23 19 -93 21 -155 5z m90 -38 c0 -22 -5 -23
-117 -35 -92 -9 -119 -9 -125 1 -18 28 -5 34 90 44 157 16 152 16 152 -10z
m-10 -59 c-1 -31 -19 -38 -118 -44 -98 -7 -102 -6 -102 13 0 18 10 22 73 30
107 15 147 15 147 1z"/>
</g>
</svg>
