<?xml version="1.0" standalone="no"?>
<!DOCTYPE svg PUBLIC "-//W3C//DTD SVG 20010904//EN"
 "http://www.w3.org/TR/2001/REC-SVG-20010904/DTD/svg10.dtd">
<svg version="1.0" xmlns="http://www.w3.org/2000/svg"
 width="90.000000pt" height="92.000000pt" viewBox="0 0 90.000000 92.000000"
 preserveAspectRatio="xMidYMid meet">
<metadata>
Created by potrace 1.16, written by Peter Selinger 2001-2019
</metadata>
<g transform="translate(0.000000,92.000000) scale(0.100000,-0.100000)"
fill="#000000" stroke="none">
<path d="M380 901 c0 -6 10 -26 21 -46 12 -20 18 -39 14 -43 -3 -4 -60 -7
-124 -7 l-118 0 -15 -40 c-9 -22 -22 -55 -29 -72 -12 -29 -11 -35 2 -49 15
-14 18 -13 38 12 12 15 24 44 27 66 5 30 11 38 28 38 11 0 38 3 59 6 34 6 37
5 37 -16 0 -13 -18 -40 -44 -66 -24 -24 -39 -44 -34 -44 20 0 75 34 110 68 35
34 37 37 21 54 -15 17 -14 18 14 18 17 0 45 3 62 6 29 6 31 5 31 -22 0 -70 26
-94 100 -94 47 0 70 8 70 25 0 17 -20 24 -53 18 -15 -3 -38 -2 -53 1 -23 6
-26 10 -20 38 3 18 12 36 19 40 17 11 147 10 147 -1 0 -5 -7 -25 -16 -46 -11
-28 -12 -36 -2 -32 7 3 37 13 66 22 61 19 65 34 20 76 -36 32 -38 33 -140 20
-40 -5 -91 -12 -113 -14 l-41 -5 4 33 c3 25 -1 36 -15 43 -30 15 -73 23 -73
13z"/>
<path d="M425 670 c-10 -11 -42 -32 -72 -46 -29 -15 -53 -28 -53 -30 0 -3 24
-3 53 -2 l52 3 0 -45 0 -45 -110 -12 c-60 -6 -117 -12 -125 -13 -11 0 -8 -7
10 -21 19 -16 32 -19 60 -14 19 4 58 10 85 15 l50 8 -40 -35 c-22 -19 -74 -55
-115 -80 -63 -38 -69 -44 -40 -38 55 11 119 42 179 87 l54 41 -6 -57 c-7 -70
6 -114 28 -96 10 8 15 38 17 98 l3 87 123 3 c68 1 122 7 122 12 0 5 -11 17
-24 26 -22 13 -37 14 -113 5 -124 -15 -117 -17 -109 30 4 24 2 46 -4 54 -8 9
-3 16 20 25 34 14 38 27 13 46 -25 18 -37 17 -58 -6z"/>
<path d="M522 581 l-31 -50 55 27 c57 28 61 37 28 59 -19 12 -23 10 -52 -36z"/>
<path d="M270 540 c24 -33 47 -39 57 -14 8 21 -21 44 -55 44 l-23 0 21 -30z"/>
<path d="M490 446 c0 -8 197 -136 209 -136 15 0 24 40 11 55 -14 17 -220 93
-220 81z"/>
<path d="M260 260 c0 -5 9 -35 21 -65 44 -117 113 -160 259 -160 69 0 93 5
128 23 49 26 53 45 15 68 -16 9 -47 30 -71 45 -23 16 -45 29 -47 29 -3 0 3
-16 12 -35 22 -46 10 -57 -66 -63 -103 -7 -176 32 -206 113 -15 39 -45 69 -45
45z"/>
<path d="M410 260 c0 -6 10 -26 23 -45 28 -44 57 -47 57 -5 0 23 -7 33 -30 45
-34 17 -50 19 -50 5z"/>
<path d="M660 264 c0 -9 92 -119 107 -128 32 -18 44 39 16 73 -17 20 -123 68
-123 55z"/>
<path d="M148 187 c-29 -68 -28 -107 2 -107 32 0 62 107 44 154 -10 26 -18 19
-46 -47z"/>
</g>
</svg>
