<?xml version="1.0" standalone="no"?>
<!DOCTYPE svg PUBLIC "-//W3C//DTD SVG 20010904//EN"
 "http://www.w3.org/TR/2001/REC-SVG-20010904/DTD/svg10.dtd">
<svg version="1.0" xmlns="http://www.w3.org/2000/svg"
 width="96.000000pt" height="68.000000pt" viewBox="0 0 96.000000 68.000000"
 preserveAspectRatio="xMidYMid meet">
<metadata>
Created by potrace 1.16, written by Peter Selinger 2001-2019
</metadata>
<g transform="translate(0.000000,68.000000) scale(0.100000,-0.100000)"
fill="#000000" stroke="none">
<path d="M400 620 c0 -8 7 -22 17 -32 9 -10 13 -21 9 -25 -3 -4 -52 -8 -108
-9 l-102 -3 -23 -45 c-23 -45 -22 -76 2 -76 17 0 42 31 50 63 7 25 11 27 56
27 59 0 65 -17 18 -50 -46 -33 -26 -36 28 -5 49 29 65 44 58 56 -5 8 76 20 87
13 4 -3 8 -16 8 -29 0 -32 27 -45 89 -45 39 0 51 4 51 15 0 12 -13 15 -56 15
-52 0 -55 1 -52 23 3 19 11 23 66 30 35 5 66 6 69 3 4 -3 1 -17 -5 -31 -15
-32 -7 -35 56 -17 59 16 64 31 25 62 -26 20 -35 21 -123 15 -52 -3 -103 -9
-112 -11 -13 -4 -18 0 -18 14 0 25 -19 40 -58 48 -23 5 -32 3 -32 -6z"/>
<path d="M411 439 l-55 -29 37 0 c35 0 37 -1 37 -35 0 -38 0 -38 -135 -50 -38
-3 -72 -8 -74 -11 -11 -10 25 -24 49 -19 14 3 48 8 75 11 46 6 49 5 34 -10 -8
-9 -49 -34 -90 -56 -101 -54 -64 -50 49 5 l92 44 0 -48 c0 -53 7 -66 27 -50 8
7 13 33 13 69 l0 57 53 7 c28 3 76 6 105 6 37 0 51 3 46 11 -5 8 -37 10 -104
6 l-98 -5 -4 40 c-3 35 -1 41 22 50 24 9 24 10 6 24 -24 17 -18 18 -85 -17z"/>
<path d="M540 400 c-24 -34 -24 -34 19 -19 33 12 41 33 16 42 -9 4 -22 -5 -35
-23z"/>
<path d="M306 383 c-8 -9 14 -33 30 -33 8 0 14 4 14 10 0 12 -35 31 -44 23z"/>
<path d="M520 283 c8 -3 45 -24 82 -45 68 -40 103 -44 96 -11 -3 17 -132 63
-173 62 -14 0 -16 -2 -5 -6z"/>
<path d="M430 163 c0 -15 40 -53 55 -53 18 0 20 24 3 38 -19 14 -58 25 -58 15z"/>
<path d="M660 160 c0 -14 91 -91 100 -85 14 9 12 41 -3 53 -18 15 -97 41 -97
32z"/>
<path d="M312 125 c24 -77 132 -131 249 -123 67 5 119 24 126 45 3 9 -85 63
-103 63 -2 0 -2 -12 -1 -27 2 -28 2 -28 -68 -31 -90 -4 -136 15 -171 68 -33
49 -46 51 -32 5z"/>
<path d="M201 114 c-26 -44 -27 -74 -3 -74 22 0 42 39 42 80 0 40 -13 38 -39
-6z"/>
</g>
</svg>
