<?xml version="1.0" standalone="no"?>
<!DOCTYPE svg PUBLIC "-//W3C//DTD SVG 20010904//EN"
 "http://www.w3.org/TR/2001/REC-SVG-20010904/DTD/svg10.dtd">
<svg version="1.0" xmlns="http://www.w3.org/2000/svg"
 width="96.000000pt" height="68.000000pt" viewBox="0 0 96.000000 68.000000"
 preserveAspectRatio="xMidYMid meet">
<metadata>
Created by potrace 1.16, written by Peter Selinger 2001-2019
</metadata>
<g transform="translate(0.000000,68.000000) scale(0.100000,-0.100000)"
fill="#000000" stroke="none">
<path d="M547 643 c-4 -3 -7 -25 -7 -49 0 -42 0 -42 -41 -49 -29 -5 -38 -10
-28 -16 8 -5 24 -9 37 -9 19 0 21 -3 12 -19 -22 -42 -8 -44 29 -3 38 41 41 42
101 42 45 0 60 3 57 13 -3 8 -23 11 -61 10 -51 -2 -57 0 -51 15 17 41 16 48
-10 60 -30 14 -30 14 -38 5z"/>
<path d="M280 610 c0 -6 7 -22 16 -35 9 -13 13 -29 9 -35 -3 -5 -35 -10 -71
-10 -67 0 -79 -10 -41 -34 20 -14 28 -14 71 -1 63 19 61 19 74 -11 14 -30 35
-23 26 10 -4 19 0 24 28 33 l33 11 -36 1 c-34 1 -37 4 -43 35 -5 23 -13 36
-29 40 -31 8 -37 7 -37 -4z"/>
</g>
</svg>
