<?xml version="1.0" standalone="no"?>
<!DOCTYPE svg PUBLIC "-//W3C//DTD SVG 20010904//EN"
 "http://www.w3.org/TR/2001/REC-SVG-20010904/DTD/svg10.dtd">
<svg version="1.0" xmlns="http://www.w3.org/2000/svg"
 width="96.000000pt" height="68.000000pt" viewBox="0 0 96.000000 68.000000"
 preserveAspectRatio="xMidYMid meet">
<metadata>
Created by potrace 1.16, written by Peter Selinger 2001-2019
</metadata>
<g transform="translate(0.000000,68.000000) scale(0.100000,-0.100000)"
fill="#000000" stroke="none">
<path d="M465 499 c-83 -12 -167 -17 -205 -14 -64 5 -65 5 -42 -13 12 -9 27
-33 32 -52 17 -59 15 -58 135 -48 61 5 138 10 172 11 62 2 63 2 108 54 l45 52
-22 15 c-27 19 -44 19 -223 -5z m155 -19 c0 -6 -6 -23 -14 -38 -14 -27 -19
-28 -138 -40 -168 -17 -164 -17 -178 18 -7 17 -11 33 -8 35 5 5 240 32 296 34
23 0 42 -4 42 -9z"/>
</g>
</svg>
