<?xml version="1.0" standalone="no"?>
<!DOCTYPE svg PUBLIC "-//W3C//DTD SVG 20010904//EN"
 "http://www.w3.org/TR/2001/REC-SVG-20010904/DTD/svg10.dtd">
<svg version="1.0" xmlns="http://www.w3.org/2000/svg"
 width="96.000000pt" height="68.000000pt" viewBox="0 0 96.000000 68.000000"
 preserveAspectRatio="xMidYMid meet">
<metadata>
Created by potrace 1.16, written by Peter Selinger 2001-2019
</metadata>
<g transform="translate(0.000000,68.000000) scale(0.100000,-0.100000)"
fill="#000000" stroke="none">
<path d="M280 249 c-14 -6 -51 -11 -82 -12 -57 -2 -57 -2 -38 -22 10 -11 22
-33 26 -50 10 -43 22 -56 42 -45 10 5 38 12 65 15 26 4 45 10 42 15 -3 5 3 27
15 49 20 40 20 40 1 51 -24 12 -38 12 -71 -1z m20 -49 c0 -48 -72 -72 -84 -27
-12 46 -5 52 62 56 18 1 22 -4 22 -29z"/>
</g>
</svg>
