<?xml version="1.0" standalone="no"?>
<!DOCTYPE svg PUBLIC "-//W3C//DTD SVG 20010904//EN"
 "http://www.w3.org/TR/2001/REC-SVG-20010904/DTD/svg10.dtd">
<svg version="1.0" xmlns="http://www.w3.org/2000/svg"
 width="96.000000pt" height="68.000000pt" viewBox="0 0 96.000000 68.000000"
 preserveAspectRatio="xMidYMid meet">
<metadata>
Created by potrace 1.16, written by Peter Selinger 2001-2019
</metadata>
<g transform="translate(0.000000,68.000000) scale(0.100000,-0.100000)"
fill="#000000" stroke="none">
<path d="M563 440 c1 -64 4 -80 16 -80 15 0 168 75 185 91 13 11 -12 39 -35
39 -11 0 -19 -5 -19 -10 0 -12 -79 -100 -89 -100 -4 0 -4 28 0 62 4 35 5 66 3
70 -3 5 -18 8 -33 8 l-29 0 1 -80z"/>
<path d="M440 444 c0 -17 43 -74 56 -74 23 0 16 37 -12 59 -27 21 -44 27 -44
15z"/>
</g>
</svg>
