<?xml version="1.0" standalone="no"?>
<!DOCTYPE svg PUBLIC "-//W3C//DTD SVG 20010904//EN"
 "http://www.w3.org/TR/2001/REC-SVG-20010904/DTD/svg10.dtd">
<svg version="1.0" xmlns="http://www.w3.org/2000/svg"
 width="96.000000pt" height="68.000000pt" viewBox="0 0 96.000000 68.000000"
 preserveAspectRatio="xMidYMid meet">
<metadata>
Created by potrace 1.16, written by Peter Selinger 2001-2019
</metadata>
<g transform="translate(0.000000,68.000000) scale(0.100000,-0.100000)"
fill="#000000" stroke="none">
<path d="M522 603 c24 -50 33 -63 42 -63 28 -1 -23 -20 -54 -21 -19 0 -44 -4
-55 -9 -19 -8 -18 -9 5 -11 62 -5 260 18 260 31 0 12 -38 19 -74 13 -29 -4
-34 -2 -39 19 -4 14 -18 30 -32 36 -29 13 -59 16 -53 5z"/>
</g>
</svg>
