<?xml version="1.0" standalone="no"?>
<!DOCTYPE svg PUBLIC "-//W3C//DTD SVG 20010904//EN"
 "http://www.w3.org/TR/2001/REC-SVG-20010904/DTD/svg10.dtd">
<svg version="1.0" xmlns="http://www.w3.org/2000/svg"
 width="96.000000pt" height="68.000000pt" viewBox="0 0 96.000000 68.000000"
 preserveAspectRatio="xMidYMid meet">
<metadata>
Created by potrace 1.16, written by Peter Selinger 2001-2019
</metadata>
<g transform="translate(0.000000,68.000000) scale(0.100000,-0.100000)"
fill="#000000" stroke="none">
<path d="M440 558 c5 -61 2 -68 -35 -68 -19 0 -35 -5 -35 -11 0 -7 14 -10 35
-7 31 4 35 1 35 -19 0 -21 -4 -23 -50 -23 -54 0 -56 -3 -35 -40 8 -14 14 -37
15 -52 0 -29 15 -45 25 -28 3 5 15 10 26 10 15 0 20 -6 17 -22 -2 -18 -11 -24
-38 -26 -53 -5 -62 -22 -12 -22 26 0 43 -5 44 -12 0 -7 2 -17 3 -23 2 -5 3
-16 4 -22 0 -7 8 -13 16 -13 8 0 16 6 16 13 8 71 2 64 57 70 55 5 55 22 0 22
-42 0 -62 11 -51 28 3 4 21 7 40 5 34 -3 35 -2 59 56 29 71 23 80 -48 71 -43
-5 -48 -4 -48 14 0 15 9 21 40 26 45 8 55 27 13 25 -47 -3 -50 -1 -45 26 3 16
-1 30 -9 35 -25 15 -41 10 -39 -13z m98 -144 c-2 -8 -6 -15 -10 -15 -5 1 -17
1 -28 1 -11 0 -20 7 -20 15 0 10 10 15 31 15 22 0 30 -4 27 -16z m-98 -4 c0
-5 0 -13 1 -17 0 -5 -10 -11 -23 -15 l-23 -6 23 -1 c14 -1 22 -7 22 -20 0 -14
-6 -17 -25 -13 -18 3 -25 11 -25 28 0 12 -5 26 -12 30 -8 5 -6 10 8 15 28 11
54 11 54 -1z m100 -34 c0 -19 -16 -36 -34 -36 -29 0 -39 10 -25 27 10 12 59
19 59 9z"/>
<path d="M671 515 c-7 -19 -24 -49 -38 -65 -32 -38 -25 -64 13 -50 40 16 43 2
4 -28 -18 -15 -41 -33 -49 -39 -14 -11 -14 -14 -1 -23 8 -5 24 -7 35 -3 65 21
111 30 119 22 15 -14 36 -11 36 4 0 17 -32 47 -49 47 -7 0 -11 -6 -8 -14 4
-11 -5 -16 -34 -21 -22 -4 -42 -5 -45 -3 -2 3 16 19 41 37 25 18 45 36 45 42
0 5 6 9 14 9 23 0 30 20 13 38 -13 13 -19 13 -31 2 -9 -7 -16 -19 -16 -26 0
-9 -11 -14 -30 -14 -26 0 -29 3 -21 18 5 9 19 27 30 39 25 26 27 49 5 57 -9 3
-17 6 -18 6 -1 0 -8 -16 -15 -35z"/>
<path d="M200 500 c-6 -22 -25 -56 -41 -75 -18 -20 -29 -41 -25 -50 6 -17 39
-20 67 -5 30 16 23 0 -18 -42 -50 -52 -36 -67 39 -42 53 18 53 18 21 24 l-33
5 55 59 c43 46 53 62 44 72 -17 21 -29 17 -42 -13 -7 -16 -17 -29 -22 -29 -6
-1 -21 -5 -33 -9 -23 -7 -22 -4 13 50 39 62 42 88 8 93 -18 3 -24 -4 -33 -38z"/>
<path d="M285 328 c2 -23 29 -47 41 -36 3 4 4 19 0 33 -8 32 -43 35 -41 3z"/>
<path d="M757 258 c22 -39 53 -50 53 -19 0 25 -26 51 -52 51 -20 0 -20 0 -1
-32z"/>
<path d="M670 265 c0 -17 39 -60 47 -52 9 10 -8 47 -28 57 -15 8 -19 7 -19 -5z"/>
<path d="M280 252 c0 -12 44 -52 58 -52 19 0 14 17 -10 40 -22 20 -48 27 -48
12z"/>
<path d="M590 242 c0 -13 30 -52 41 -52 16 0 10 47 -7 54 -21 8 -34 8 -34 -2z"/>
<path d="M220 234 c0 -16 22 -44 35 -44 25 0 -3 49 -27 50 -5 0 -8 -3 -8 -6z"/>
<path d="M140 220 c0 -20 24 -60 37 -60 16 0 17 42 1 58 -14 14 -38 16 -38 2z"/>
<path d="M465 164 c-66 -8 -137 -12 -157 -10 -35 4 -50 -5 -30 -18 5 -3 17
-35 27 -71 9 -36 21 -65 26 -65 5 0 9 4 9 9 0 5 65 12 144 16 112 6 143 10
140 20 -3 7 7 32 22 56 25 40 26 43 8 56 -10 7 -23 13 -30 13 -7 0 -18 2 -26
4 -7 2 -67 -3 -133 -10z m119 -57 c-1 -21 -4 -40 -6 -43 -10 -9 -238 -17 -239
-8 0 5 -2 23 -5 41 l-4 31 63 6 c81 8 158 13 177 11 11 0 15 -11 14 -38z"/>
</g>
</svg>
