<?xml version="1.0" standalone="no"?>
<!DOCTYPE svg PUBLIC "-//W3C//DTD SVG 20010904//EN"
 "http://www.w3.org/TR/2001/REC-SVG-20010904/DTD/svg10.dtd">
<svg version="1.0" xmlns="http://www.w3.org/2000/svg"
 width="96.000000pt" height="68.000000pt" viewBox="0 0 96.000000 68.000000"
 preserveAspectRatio="xMidYMid meet">
<metadata>
Created by potrace 1.16, written by Peter Selinger 2001-2019
</metadata>
<g transform="translate(0.000000,68.000000) scale(0.100000,-0.100000)"
fill="#000000" stroke="none">
<path d="M600 418 c0 -62 6 -73 43 -87 37 -14 134 -14 143 0 11 18 -18 30 -56
24 -20 -4 -49 -1 -64 5 -27 10 -28 12 -22 60 6 49 6 50 -19 50 -24 0 -25 -3
-25 -52z"/>
<path d="M480 440 c0 -32 -25 -74 -65 -109 -48 -42 -19 -40 38 4 48 37 92 98
82 115 -3 5 -17 10 -31 10 -18 0 -24 -5 -24 -20z"/>
</g>
</svg>
