<?xml version="1.0" standalone="no"?>
<!DOCTYPE svg PUBLIC "-//W3C//DTD SVG 20010904//EN"
 "http://www.w3.org/TR/2001/REC-SVG-20010904/DTD/svg10.dtd">
<svg version="1.0" xmlns="http://www.w3.org/2000/svg"
 width="90.000000pt" height="92.000000pt" viewBox="0 0 90.000000 92.000000"
 preserveAspectRatio="xMidYMid meet">
<metadata>
Created by potrace 1.16, written by Peter Selinger 2001-2019
</metadata>
<g transform="translate(0.000000,92.000000) scale(0.100000,-0.100000)"
fill="#000000" stroke="none">
<path d="M385 745 c25 -36 42 -65 38 -65 -4 0 -63 -9 -132 -20 -69 -11 -141
-21 -160 -22 -48 -4 -48 -20 -2 -46 38 -22 42 -22 77 -7 75 31 263 58 414 59
121 1 145 3 145 16 0 8 -18 24 -40 36 -38 21 -43 21 -115 8 -117 -21 -131 -19
-128 14 1 15 -2 34 -6 41 -11 17 -85 50 -113 51 -20 0 -19 -5 22 -65z"/>
<path d="M441 514 c-70 -27 -111 -32 -155 -19 -27 7 -29 7 -21 -16 26 -81 12
-181 -36 -258 -25 -42 -55 -72 -114 -116 -37 -27 7 -17 61 15 93 53 148 145
161 271 3 33 9 61 12 64 4 2 35 7 70 11 l64 7 -7 -114 c-8 -151 8 -202 74
-239 60 -33 171 -34 244 -2 47 21 48 23 41 54 -4 18 -13 57 -19 87 l-12 53
-19 -61 c-24 -80 -40 -91 -132 -91 -62 0 -76 3 -100 24 -27 24 -28 28 -28 118
1 74 5 103 23 142 l22 49 -22 24 c-26 27 -25 27 -107 -3z"/>
</g>
</svg>
