<?xml version="1.0" standalone="no"?>
<!DOCTYPE svg PUBLIC "-//W3C//DTD SVG 20010904//EN"
 "http://www.w3.org/TR/2001/REC-SVG-20010904/DTD/svg10.dtd">
<svg version="1.0" xmlns="http://www.w3.org/2000/svg"
 width="96.000000pt" height="68.000000pt" viewBox="0 0 96.000000 68.000000"
 preserveAspectRatio="xMidYMid meet">
<metadata>
Created by potrace 1.16, written by Peter Selinger 2001-2019
</metadata>
<g transform="translate(0.000000,68.000000) scale(0.100000,-0.100000)"
fill="#000000" stroke="none">
<path d="M390 564 c0 -3 16 -22 35 -42 19 -20 35 -40 35 -43 0 -7 -110 -24
-222 -35 -72 -7 -84 -17 -43 -36 19 -9 41 -7 97 6 109 25 209 35 346 36 100 0
122 3 122 15 0 24 -69 36 -146 25 -100 -14 -102 -14 -106 17 -2 18 -12 32 -28
39 -30 14 -90 26 -90 18z"/>
</g>
</svg>
