<?xml version="1.0" standalone="no"?>
<!DOCTYPE svg PUBLIC "-//W3C//DTD SVG 20010904//EN"
 "http://www.w3.org/TR/2001/REC-SVG-20010904/DTD/svg10.dtd">
<svg version="1.0" xmlns="http://www.w3.org/2000/svg"
 width="96.000000pt" height="68.000000pt" viewBox="0 0 96.000000 68.000000"
 preserveAspectRatio="xMidYMid meet">
<metadata>
Created by potrace 1.16, written by Peter Selinger 2001-2019
</metadata>
<g transform="translate(0.000000,68.000000) scale(0.100000,-0.100000)"
fill="#000000" stroke="none">
<path d="M588 123 c-6 -16 -29 -43 -51 -60 -50 -42 -39 -43 19 -2 26 17 42 35
38 41 -5 8 -1 9 12 4 15 -5 16 -4 7 5 -6 6 -9 18 -6 25 3 8 2 14 -2 14 -4 0
-11 -12 -17 -27z"/>
<path d="M615 130 c-3 -5 1 -10 9 -10 8 0 18 5 21 10 3 6 -1 10 -9 10 -8 0
-18 -4 -21 -10z"/>
<path d="M746 111 c-8 -13 55 -81 74 -81 23 0 5 45 -25 60 -16 8 -33 19 -36
24 -4 4 -10 3 -13 -3z"/>
</g>
</svg>
