<?xml version="1.0" standalone="no"?>
<!DOCTYPE svg PUBLIC "-//W3C//DTD SVG 20010904//EN"
 "http://www.w3.org/TR/2001/REC-SVG-20010904/DTD/svg10.dtd">
<svg version="1.0" xmlns="http://www.w3.org/2000/svg"
 width="96.000000pt" height="68.000000pt" viewBox="0 0 96.000000 68.000000"
 preserveAspectRatio="xMidYMid meet">
<metadata>
Created by potrace 1.16, written by Peter Selinger 2001-2019
</metadata>
<g transform="translate(0.000000,68.000000) scale(0.100000,-0.100000)"
fill="#000000" stroke="none">
<path d="M460 254 c-36 -7 -100 -13 -142 -14 l-77 0 19 -32 c10 -18 21 -54 25
-79 9 -59 19 -76 37 -62 7 6 70 14 140 18 115 7 127 9 118 24 -6 12 0 32 21
71 16 29 29 55 29 56 0 2 -13 10 -30 19 -34 17 -52 17 -140 -1z m69 -23 c9 -6
11 -20 7 -47 -11 -64 -15 -66 -118 -72 l-94 -5 -11 49 c-6 27 -10 51 -7 53 2
2 47 9 101 16 54 7 100 13 103 14 3 0 11 -3 19 -8z"/>
</g>
</svg>
