<?xml version="1.0" standalone="no"?>
<!DOCTYPE svg PUBLIC "-//W3C//DTD SVG 20010904//EN"
 "http://www.w3.org/TR/2001/REC-SVG-20010904/DTD/svg10.dtd">
<svg version="1.0" xmlns="http://www.w3.org/2000/svg"
 width="96.000000pt" height="68.000000pt" viewBox="0 0 96.000000 68.000000"
 preserveAspectRatio="xMidYMid meet">
<metadata>
Created by potrace 1.16, written by Peter Selinger 2001-2019
</metadata>
<g transform="translate(0.000000,68.000000) scale(0.100000,-0.100000)"
fill="#000000" stroke="none">
<path d="M410 186 c0 -24 -12 -27 -152 -33 -73 -3 -135 -8 -138 -10 -2 -2 2
-9 10 -14 14 -10 53 -8 195 7 60 7 60 7 42 -13 -16 -19 -16 -21 -2 -27 9 -3
27 -6 40 -6 75 0 2 -41 -118 -66 l-62 -13 75 4 c41 2 103 13 137 25 l63 22 61
-31 c34 -17 73 -31 86 -31 43 0 8 37 -57 61 -33 12 -60 23 -60 25 0 2 15 17
33 33 32 31 33 31 145 31 84 0 113 3 110 12 -7 21 -61 28 -142 18 -60 -7 -89
-7 -115 3 -27 9 -35 9 -38 0 -3 -7 -18 -13 -34 -13 -18 0 -28 5 -26 13 1 7
-10 13 -25 15 -20 2 -28 -1 -28 -12z m110 -44 c0 -21 -43 -53 -64 -48 -11 3
-31 6 -43 6 -31 0 -29 16 3 33 29 15 104 22 104 9z"/>
</g>
</svg>
