<?xml version="1.0" standalone="no"?>
<!DOCTYPE svg PUBLIC "-//W3C//DTD SVG 20010904//EN"
 "http://www.w3.org/TR/2001/REC-SVG-20010904/DTD/svg10.dtd">
<svg version="1.0" xmlns="http://www.w3.org/2000/svg"
 width="96.000000pt" height="68.000000pt" viewBox="0 0 96.000000 68.000000"
 preserveAspectRatio="xMidYMid meet">
<metadata>
Created by potrace 1.16, written by Peter Selinger 2001-2019
</metadata>
<g transform="translate(0.000000,68.000000) scale(0.100000,-0.100000)"
fill="#000000" stroke="none">
<path d="M555 575 c-22 -8 -64 -14 -94 -14 -50 -1 -53 -2 -47 -23 3 -13 6 -51
6 -86 l0 -62 102 3 102 4 23 69 c13 38 26 76 29 84 4 11 -5 19 -29 28 -39 14
-40 14 -92 -3z m55 -44 c0 -28 -1 -29 -71 -35 -39 -4 -73 -5 -76 -2 -3 2 -2
13 1 24 5 14 21 22 59 29 85 17 87 16 87 -16z m-15 -80 c-5 -25 -12 -31 -33
-31 -15 0 -44 -3 -64 -6 -37 -6 -38 -6 -38 25 0 29 2 31 38 32 20 1 51 4 67 8
38 9 38 9 30 -28z"/>
</g>
</svg>
