<?xml version="1.0" standalone="no"?>
<!DOCTYPE svg PUBLIC "-//W3C//DTD SVG 20010904//EN"
 "http://www.w3.org/TR/2001/REC-SVG-20010904/DTD/svg10.dtd">
<svg version="1.0" xmlns="http://www.w3.org/2000/svg"
 width="90.000000pt" height="92.000000pt" viewBox="0 0 90.000000 92.000000"
 preserveAspectRatio="xMidYMid meet">
<metadata>
Created by potrace 1.16, written by Peter Selinger 2001-2019
</metadata>
<g transform="translate(0.000000,92.000000) scale(0.100000,-0.100000)"
fill="#000000" stroke="none">
<path d="M547 827 l6 -74 -33 -6 c-18 -4 -44 -7 -57 -7 -45 0 -18 -25 30 -28
26 -2 47 -6 47 -11 0 -16 -63 -104 -105 -146 -24 -25 -38 -45 -31 -45 18 0 98
62 126 97 l21 28 -4 -49 c-5 -48 8 -96 24 -96 18 0 30 45 27 101 -1 32 -1 59
1 59 2 0 28 -23 58 -50 60 -55 86 -60 91 -18 4 32 -23 53 -102 79 -64 22 -76
53 -24 64 62 13 108 28 108 36 0 5 -9 13 -21 19 -15 9 -31 8 -65 -4 -50 -17
-47 -20 -44 63 2 45 -9 61 -42 61 -14 0 -16 -9 -11 -73z"/>
<path d="M271 818 c16 -109 19 -104 -68 -118 -71 -11 -76 -13 -58 -27 14 -10
33 -12 68 -8 27 4 47 3 47 -3 0 -9 -40 -65 -82 -114 -12 -16 -38 -39 -57 -53
-19 -14 -29 -25 -22 -25 24 0 75 33 125 80 l51 48 0 -63 c0 -35 4 -67 8 -72
18 -17 37 32 37 95 l0 64 36 -31 c36 -33 54 -33 54 -2 0 23 -17 37 -55 47 -41
9 -45 12 -38 29 3 9 25 20 49 26 53 14 62 24 34 39 -15 8 -30 8 -50 1 l-29
-10 -3 72 c-3 69 -4 72 -29 75 -25 3 -26 3 -18 -50z"/>
<path d="M555 469 c-16 -5 -106 -21 -200 -35 -93 -15 -172 -28 -174 -30 -3 -3
1 -10 7 -16 11 -11 47 -8 207 16 8 1 27 -191 19 -202 -1 -2 -27 9 -59 23 l-57
25 16 25 c22 34 20 42 -14 60 -42 22 -53 19 -46 -10 12 -47 -61 -160 -140
-217 -24 -17 -42 -33 -40 -35 2 -3 27 5 55 18 33 14 70 42 105 80 l54 58 93
-55 c149 -87 250 -134 287 -134 37 0 195 40 188 48 -3 2 -60 12 -128 22 -68
10 -155 29 -193 42 l-70 25 -3 45 -3 46 63 7 c35 4 74 12 88 17 l25 10 -24 12
c-19 10 -34 10 -80 0 -31 -8 -59 -14 -62 -14 -4 0 -6 26 -5 59 l1 59 50 6 c65
8 115 8 115 0 0 -4 -9 -22 -20 -40 l-21 -33 71 32 c38 17 70 37 70 44 0 19
-74 53 -112 52 -18 0 -46 -5 -63 -10z"/>
</g>
</svg>
