<?xml version="1.0" standalone="no"?>
<!DOCTYPE svg PUBLIC "-//W3C//DTD SVG 20010904//EN"
 "http://www.w3.org/TR/2001/REC-SVG-20010904/DTD/svg10.dtd">
<svg version="1.0" xmlns="http://www.w3.org/2000/svg"
 width="96.000000pt" height="68.000000pt" viewBox="0 0 96.000000 68.000000"
 preserveAspectRatio="xMidYMid meet">
<metadata>
Created by potrace 1.16, written by Peter Selinger 2001-2019
</metadata>
<g transform="translate(0.000000,68.000000) scale(0.100000,-0.100000)"
fill="#000000" stroke="none">
<path d="M260 464 c-19 -7 -58 -13 -87 -13 l-51 -1 18 -37 c10 -21 21 -58 25
-83 4 -25 12 -56 17 -70 9 -23 10 -24 22 -7 7 9 25 17 38 17 14 0 39 3 56 6
27 6 30 10 36 57 4 28 13 65 21 84 24 57 -16 77 -95 47z m35 -91 c-4 -38 -8
-69 -9 -70 -1 -1 -19 -3 -40 -5 l-39 -3 -18 65 c-10 36 -18 66 -19 67 0 3 54
10 93 12 l39 1 -7 -67z"/>
</g>
</svg>
