<?xml version="1.0" standalone="no"?>
<!DOCTYPE svg PUBLIC "-//W3C//DTD SVG 20010904//EN"
 "http://www.w3.org/TR/2001/REC-SVG-20010904/DTD/svg10.dtd">
<svg version="1.0" xmlns="http://www.w3.org/2000/svg"
 width="96.000000pt" height="68.000000pt" viewBox="0 0 96.000000 68.000000"
 preserveAspectRatio="xMidYMid meet">
<metadata>
Created by potrace 1.16, written by Peter Selinger 2001-2019
</metadata>
<g transform="translate(0.000000,68.000000) scale(0.100000,-0.100000)"
fill="#000000" stroke="none">
<path d="M350 577 c0 -48 -111 -183 -215 -261 -17 -13 -17 -15 -4 -16 33 0
142 85 202 157 33 40 63 73 67 73 5 0 28 -11 51 -25 55 -31 71 -32 67 -3 -2
18 -14 26 -54 36 -34 9 -53 21 -60 35 -5 12 -19 23 -31 25 -18 3 -23 -1 -23
-21z"/>
</g>
</svg>
