<?xml version="1.0" standalone="no"?>
<!DOCTYPE svg PUBLIC "-//W3C//DTD SVG 20010904//EN"
 "http://www.w3.org/TR/2001/REC-SVG-20010904/DTD/svg10.dtd">
<svg version="1.0" xmlns="http://www.w3.org/2000/svg"
 width="96.000000pt" height="68.000000pt" viewBox="0 0 96.000000 68.000000"
 preserveAspectRatio="xMidYMid meet">
<metadata>
Created by potrace 1.16, written by Peter Selinger 2001-2019
</metadata>
<g transform="translate(0.000000,68.000000) scale(0.100000,-0.100000)"
fill="#000000" stroke="none">
<path d="M520 168 c1 -13 2 -43 1 -67 -1 -43 -1 -43 -33 -37 l-32 6 29 -30
c53 -55 78 -32 80 76 1 72 1 74 -23 74 -18 0 -23 -5 -22 -22z"/>
<path d="M669 110 c45 -42 73 -48 79 -18 4 19 -35 42 -88 52 l-35 7 44 -41z"/>
<path d="M372 93 c-35 -36 -39 -43 -20 -38 55 18 113 59 103 74 -12 21 -40 9
-83 -36z"/>
</g>
</svg>
