<?xml version="1.0" standalone="no"?>
<!DOCTYPE svg PUBLIC "-//W3C//DTD SVG 20010904//EN"
 "http://www.w3.org/TR/2001/REC-SVG-20010904/DTD/svg10.dtd">
<svg version="1.0" xmlns="http://www.w3.org/2000/svg"
 width="90.000000pt" height="92.000000pt" viewBox="0 0 90.000000 92.000000"
 preserveAspectRatio="xMidYMid meet">
<metadata>
Created by potrace 1.16, written by Peter Selinger 2001-2019
</metadata>
<g transform="translate(0.000000,92.000000) scale(0.100000,-0.100000)"
fill="#000000" stroke="none">
<path d="M221 771 c-16 -62 -72 -157 -112 -193 -25 -21 -30 -32 -25 -52 8 -31
16 -32 89 -7 32 11 57 17 57 14 0 -10 -101 -133 -117 -142 -10 -5 -13 -15 -9
-29 9 -27 35 -36 55 -18 9 8 47 29 84 47 l68 32 15 -22 c19 -26 31 -27 39 -1
10 31 -3 59 -35 75 -41 21 -53 20 -40 -6 7 -11 10 -22 8 -24 -9 -9 -122 -55
-125 -51 -4 4 134 175 169 209 22 22 22 26 -2 57 -22 29 -29 24 -50 -33 -17
-45 -39 -61 -102 -72 -29 -6 -38 -4 -38 6 0 8 34 59 75 113 41 55 75 102 75
106 0 12 -36 40 -51 40 -10 0 -20 -18 -28 -49z"/>
<path d="M540 777 c0 -7 16 -39 35 -71 22 -37 30 -58 22 -61 -7 -2 -41 -8 -77
-14 -127 -22 -124 -21 -108 -38 17 -17 37 -18 96 -8 l43 8 -6 -39 c-12 -71
-89 -215 -155 -287 -34 -37 -57 -67 -52 -67 5 0 32 15 58 33 57 38 110 105
153 194 17 34 32 63 34 63 1 0 25 -9 52 -19 l50 -19 -2 -59 c-1 -69 -40 -191
-66 -207 -14 -9 -26 -6 -57 11 -30 16 -40 18 -40 8 0 -8 5 -17 10 -20 6 -4 22
-29 35 -56 14 -27 29 -49 34 -49 18 0 63 44 81 81 11 21 32 80 46 131 15 51
33 106 41 122 14 27 13 30 -13 57 -21 22 -37 29 -64 29 -21 0 -51 5 -68 11
-30 10 -31 12 -17 32 19 27 19 32 1 50 -17 16 0 20 162 33 90 7 104 20 49 46
-30 14 -41 15 -93 2 -32 -7 -61 -14 -65 -14 -3 0 -5 16 -6 35 -1 40 -14 60
-54 81 -35 18 -59 18 -59 1z"/>
<path d="M297 329 c37 -63 73 -75 73 -23 0 19 -8 28 -35 40 -51 21 -58 18 -38
-17z"/>
<path d="M180 297 c0 -18 59 -87 75 -87 16 0 28 31 19 53 -3 8 -23 23 -45 31
-48 19 -49 19 -49 3z"/>
<path d="M50 252 c0 -22 78 -117 98 -120 19 -3 22 1 22 32 0 39 -19 62 -67 82
-37 16 -53 18 -53 6z"/>
</g>
</svg>
