<?xml version="1.0" standalone="no"?>
<!DOCTYPE svg PUBLIC "-//W3C//DTD SVG 20010904//EN"
 "http://www.w3.org/TR/2001/REC-SVG-20010904/DTD/svg10.dtd">
<svg version="1.0" xmlns="http://www.w3.org/2000/svg"
 width="96.000000pt" height="68.000000pt" viewBox="0 0 96.000000 68.000000"
 preserveAspectRatio="xMidYMid meet">
<metadata>
Created by potrace 1.16, written by Peter Selinger 2001-2019
</metadata>
<g transform="translate(0.000000,68.000000) scale(0.100000,-0.100000)"
fill="#000000" stroke="none">
<path d="M457 416 c5 -30 3 -36 -13 -37 -11 0 -37 -7 -59 -14 l-40 -14 58 3
c54 3 59 1 68 -20 11 -30 44 -38 130 -32 74 6 85 10 74 28 -5 7 -33 9 -89 4
-71 -6 -84 -4 -89 9 -7 19 -3 22 43 32 56 11 70 16 70 26 0 12 -52 12 -85 -1
-25 -9 -26 -8 -23 17 3 24 -1 28 -24 31 -26 3 -27 2 -21 -32z"/>
</g>
</svg>
