<?xml version="1.0" standalone="no"?>
<!DOCTYPE svg PUBLIC "-//W3C//DTD SVG 20010904//EN"
 "http://www.w3.org/TR/2001/REC-SVG-20010904/DTD/svg10.dtd">
<svg version="1.0" xmlns="http://www.w3.org/2000/svg"
 width="96.000000pt" height="68.000000pt" viewBox="0 0 96.000000 68.000000"
 preserveAspectRatio="xMidYMid meet">
<metadata>
Created by potrace 1.16, written by Peter Selinger 2001-2019
</metadata>
<g transform="translate(0.000000,68.000000) scale(0.100000,-0.100000)"
fill="#000000" stroke="none">
<path d="M455 593 c4 -10 10 -42 13 -70 3 -42 8 -53 22 -53 11 0 20 10 23 29
6 27 9 28 72 33 36 3 69 9 73 12 11 11 -21 27 -43 21 -11 -3 -37 -8 -57 -11
-34 -6 -37 -5 -40 22 -3 25 -8 29 -37 32 -29 3 -33 1 -26 -15z"/>
</g>
</svg>
