<?xml version="1.0" standalone="no"?>
<!DOCTYPE svg PUBLIC "-//W3C//DTD SVG 20010904//EN"
 "http://www.w3.org/TR/2001/REC-SVG-20010904/DTD/svg10.dtd">
<svg version="1.0" xmlns="http://www.w3.org/2000/svg"
 width="90.000000pt" height="92.000000pt" viewBox="0 0 90.000000 92.000000"
 preserveAspectRatio="xMidYMid meet">
<metadata>
Created by potrace 1.16, written by Peter Selinger 2001-2019
</metadata>
<g transform="translate(0.000000,92.000000) scale(0.100000,-0.100000)"
fill="#000000" stroke="none">
<path d="M560 809 c-36 -10 -93 -18 -128 -18 -62 -1 -62 -1 -48 -23 7 -13 17
-45 21 -72 16 -117 46 -125 34 -9 -4 38 -6 69 -5 70 6 7 187 25 193 19 4 -3 1
-39 -5 -78 -12 -70 -7 -98 17 -84 6 4 20 37 31 73 11 37 25 72 30 78 7 8 4 17
-8 27 -18 16 -58 39 -64 37 -2 -1 -32 -10 -68 -20z"/>
<path d="M187 746 c-19 -58 -86 -169 -112 -183 -14 -8 -14 -14 -4 -36 14 -30
23 -32 59 -12 14 8 33 14 43 15 17 0 17 -3 -4 -31 -12 -17 -39 -50 -61 -72
-43 -45 -43 -46 -24 -72 13 -18 17 -17 94 23 86 45 109 50 118 27 4 -8 13 -15
21 -15 10 0 13 10 11 37 -2 30 -9 41 -36 56 -34 20 -55 16 -34 -5 7 -7 12 -16
12 -20 0 -8 -60 -37 -109 -53 l-24 -7 21 28 c11 16 52 67 91 114 39 47 71 92
71 101 0 15 -37 56 -43 48 -2 -2 -11 -26 -21 -52 -21 -56 -52 -80 -96 -75
l-32 3 66 90 c36 49 66 94 66 101 0 13 -32 44 -46 44 -6 0 -18 -24 -27 -54z"/>
<path d="M515 730 c-11 -5 -29 -11 -40 -15 -19 -6 -19 -7 -2 -17 13 -7 32 -6
63 2 46 13 55 24 28 34 -19 7 -24 7 -49 -4z"/>
<path d="M502 652 c-33 -10 -23 -27 15 -26 41 1 66 11 58 24 -7 11 -37 12 -73
2z"/>
<path d="M605 589 c-62 -14 -173 -26 -273 -29 -1 0 4 -10 12 -22 8 -13 17 -41
21 -63 3 -22 9 -45 13 -51 5 -7 49 -6 141 4 102 11 138 12 152 3 10 -6 21 -11
24 -11 7 0 65 127 65 141 0 9 -60 50 -70 48 -3 0 -41 -9 -85 -20z m85 -51 c0
-56 -9 -65 -61 -67 -53 -1 -55 2 -35 38 8 14 12 31 9 38 -4 10 7 13 41 13 41
0 46 -2 46 -22z m-130 -10 c0 -47 -12 -68 -36 -68 -21 0 -24 5 -24 39 0 39 8
49 43 50 11 1 17 -6 17 -21z m-103 0 c6 -7 13 -28 16 -46 7 -33 7 -33 -31 -30
-36 3 -37 4 -40 46 -3 39 -1 42 21 42 14 0 29 -6 34 -12z"/>
<path d="M565 389 c-16 -5 -65 -12 -108 -15 -43 -4 -80 -11 -83 -15 -2 -4 8
-15 24 -23 16 -8 52 -42 81 -75 l51 -59 -29 -21 c-39 -28 -132 -71 -153 -71
-10 0 -18 -5 -18 -10 0 -21 141 19 199 57 22 14 25 13 60 -20 63 -60 102 -69
199 -46 60 15 72 26 36 34 -57 13 -158 47 -195 66 l-38 19 22 34 c12 18 30 47
39 62 10 16 23 37 30 47 26 37 -43 59 -117 36z m45 -41 c-1 -20 -37 -95 -50
-103 -8 -5 -31 11 -63 43 l-50 50 59 7 c32 4 64 8 69 10 21 7 35 4 35 -7z"/>
<path d="M250 355 c0 -12 51 -85 60 -85 33 0 21 62 -15 78 -28 13 -45 15 -45
7z"/>
<path d="M160 314 c0 -17 45 -84 57 -84 14 0 18 38 5 56 -13 19 -62 42 -62 28z"/>
<path d="M50 283 c1 -17 56 -108 65 -108 6 0 11 16 13 36 3 30 -2 41 -24 58
-27 21 -54 28 -54 14z"/>
</g>
</svg>
