<?xml version="1.0" standalone="no"?>
<!DOCTYPE svg PUBLIC "-//W3C//DTD SVG 20010904//EN"
 "http://www.w3.org/TR/2001/REC-SVG-20010904/DTD/svg10.dtd">
<svg version="1.0" xmlns="http://www.w3.org/2000/svg"
 width="96.000000pt" height="68.000000pt" viewBox="0 0 96.000000 68.000000"
 preserveAspectRatio="xMidYMid meet">
<metadata>
Created by potrace 1.16, written by Peter Selinger 2001-2019
</metadata>
<g transform="translate(0.000000,68.000000) scale(0.100000,-0.100000)"
fill="#000000" stroke="none">
<path d="M620 399 c-19 -4 -83 -11 -141 -15 l-106 -7 13 -26 c8 -14 19 -39 24
-55 8 -21 14 -26 23 -18 7 6 71 12 142 14 l130 4 22 40 c28 49 28 48 -2 62
-29 14 -54 14 -105 1z m65 -46 c-4 -16 -8 -29 -9 -30 -1 -1 -57 -5 -124 -9
-107 -6 -122 -5 -122 9 0 8 -3 22 -6 31 -6 16 20 19 200 24 l68 2 -7 -27z"/>
</g>
</svg>
