<?xml version="1.0" standalone="no"?>
<!DOCTYPE svg PUBLIC "-//W3C//DTD SVG 20010904//EN"
 "http://www.w3.org/TR/2001/REC-SVG-20010904/DTD/svg10.dtd">
<svg version="1.0" xmlns="http://www.w3.org/2000/svg"
 width="96.000000pt" height="68.000000pt" viewBox="0 0 96.000000 68.000000"
 preserveAspectRatio="xMidYMid meet">
<metadata>
Created by potrace 1.16, written by Peter Selinger 2001-2019
</metadata>
<g transform="translate(0.000000,68.000000) scale(0.100000,-0.100000)"
fill="#000000" stroke="none">
<path d="M333 406 c-67 -14 -78 -26 -24 -26 l42 0 -3 -52 -3 -53 -43 -3 c-44
-3 -51 -16 -20 -36 12 -7 38 0 104 29 48 21 82 41 75 43 -6 2 -25 -1 -42 -7
l-30 -10 3 47 c3 43 5 47 36 56 17 5 32 13 32 17 0 12 -62 9 -127 -5z"/>
</g>
</svg>
