<?xml version="1.0" standalone="no"?>
<!DOCTYPE svg PUBLIC "-//W3C//DTD SVG 20010904//EN"
 "http://www.w3.org/TR/2001/REC-SVG-20010904/DTD/svg10.dtd">
<svg version="1.0" xmlns="http://www.w3.org/2000/svg"
 width="90.000000pt" height="92.000000pt" viewBox="0 0 90.000000 92.000000"
 preserveAspectRatio="xMidYMid meet">
<metadata>
Created by potrace 1.16, written by Peter Selinger 2001-2019
</metadata>
<g transform="translate(0.000000,92.000000) scale(0.100000,-0.100000)"
fill="#000000" stroke="none">
<path d="M215 823 c12 -31 24 -144 25 -229 l0 -82 -115 -17 c-63 -10 -115 -22
-115 -27 0 -4 11 -13 24 -19 18 -8 41 -7 94 5 114 26 106 35 99 -106 -4 -68
-11 -147 -17 -176 -8 -42 -6 -60 7 -93 14 -37 17 -39 32 -24 13 13 16 48 19
218 2 139 7 204 15 209 6 4 40 10 74 14 35 3 63 10 63 15 0 20 -37 27 -89 17
-29 -5 -54 -8 -56 -6 -5 5 13 242 20 259 7 20 -38 59 -67 59 -15 0 -18 -4 -13
-17z"/>
<path d="M342 648 c-17 -34 -30 -63 -29 -64 4 -5 116 71 116 79 1 9 -37 47
-48 47 -4 0 -22 -28 -39 -62z"/>
<path d="M605 673 c-27 -8 -76 -15 -108 -15 -58 0 -59 0 -52 -27 4 -14 12
-117 19 -228 l11 -201 -29 -6 c-16 -3 -46 -6 -67 -6 -44 0 -50 -12 -16 -35 19
-12 33 -13 73 -5 27 6 136 13 242 17 150 4 192 9 192 19 0 25 -57 46 -106 38
-39 -5 -44 -4 -44 12 1 101 23 371 32 387 9 18 7 24 -16 44 -31 26 -58 27
-131 6z m65 -97 l0 -64 -37 1 c-21 0 -57 -3 -80 -7 l-43 -9 0 61 0 61 38 6
c20 4 44 8 52 10 8 1 27 3 43 4 27 1 27 0 27 -63z m0 -143 l0 -58 -42 0 c-24
-1 -60 -4 -80 -9 l-38 -8 0 56 0 56 48 1 c37 1 93 10 110 18 1 0 2 -25 2 -56z
m-2 -150 l-3 -68 -70 -6 c-38 -4 -70 -6 -71 -5 -1 0 -4 28 -7 62 l-6 61 67 10
c37 5 73 11 80 11 10 2 12 -15 10 -65z"/>
<path d="M96 652 c-9 -14 46 -93 63 -90 20 4 27 44 11 63 -14 17 -68 36 -74
27z"/>
<path d="M138 361 c-15 -31 -50 -82 -78 -113 -56 -62 -48 -76 16 -29 48 35 74
63 108 119 28 44 27 56 -2 71 -14 7 -22 -2 -44 -48z"/>
<path d="M300 405 c0 -3 18 -30 40 -60 45 -61 70 -71 70 -27 0 31 -17 51 -67
76 -34 17 -43 19 -43 11z"/>
</g>
</svg>
