<?xml version="1.0" standalone="no"?>
<!DOCTYPE svg PUBLIC "-//W3C//DTD SVG 20010904//EN"
 "http://www.w3.org/TR/2001/REC-SVG-20010904/DTD/svg10.dtd">
<svg version="1.0" xmlns="http://www.w3.org/2000/svg"
 width="96.000000pt" height="68.000000pt" viewBox="0 0 96.000000 68.000000"
 preserveAspectRatio="xMidYMid meet">
<metadata>
Created by potrace 1.16, written by Peter Selinger 2001-2019
</metadata>
<g transform="translate(0.000000,68.000000) scale(0.100000,-0.100000)"
fill="#000000" stroke="none">
<path d="M580 596 c0 -45 -10 -56 -52 -56 -48 0 -48 -23 0 -28 29 -3 30 -5 20
-28 -18 -38 1 -42 33 -6 25 28 35 32 81 32 29 0 59 4 67 9 25 16 1 31 -50 31
-46 0 -48 1 -37 19 15 25 -4 51 -38 51 -19 0 -24 -5 -24 -24z"/>
<path d="M300 590 c0 -6 7 -22 16 -35 18 -27 18 -27 -70 -29 -38 -1 -44 -20
-12 -41 24 -16 46 -16 90 1 10 4 19 -3 27 -20 17 -38 39 -33 39 8 0 29 4 34
30 40 41 8 38 26 -5 26 -27 0 -35 4 -35 18 0 10 -5 23 -12 30 -15 15 -68 16
-68 2z"/>
<path d="M430 430 c-25 -16 -50 -30 -56 -30 -6 0 -18 -8 -25 -17 -12 -14 -12
-16 1 -11 9 3 50 13 93 23 84 19 99 29 71 50 -26 19 -32 18 -84 -15z"/>
<path d="M594 368 c-9 -18 -22 -36 -28 -40 -6 -4 -8 -9 -5 -12 7 -8 99 38 99
50 0 14 -21 34 -37 34 -7 0 -20 -15 -29 -32z"/>
<path d="M420 357 c0 -16 32 -47 48 -47 21 0 13 27 -13 44 -30 19 -35 20 -35
3z"/>
<path d="M267 333 c10 -30 34 -52 49 -46 21 8 17 30 -8 47 -30 21 -49 20 -41
-1z"/>
<path d="M396 261 l-6 -39 -107 -7 c-130 -8 -136 -9 -98 -25 28 -11 53 -10
143 6 38 7 43 -9 10 -35 -26 -22 -16 -41 22 -41 33 0 80 -16 80 -27 0 -11 -50
-33 -125 -55 l-60 -18 62 4 c39 2 83 14 118 31 62 29 68 28 156 -16 63 -32 84
-36 92 -15 9 22 -88 78 -138 81 -15 0 -12 16 13 64 l24 43 99 -4 c54 -3 101
-2 104 0 3 3 -2 13 -10 22 -13 15 -29 17 -103 12 -73 -4 -90 -2 -101 12 -18
21 -28 20 -34 -3 -3 -14 -16 -20 -47 -23 -48 -4 -59 5 -35 32 16 17 15 19 -4
29 -36 19 -48 13 -55 -28z m134 -63 c0 -7 -14 -28 -31 -46 -23 -25 -37 -32
-53 -28 -11 3 -33 6 -48 6 -32 0 -35 16 -10 46 22 26 35 30 95 33 32 1 47 -3
47 -11z"/>
</g>
</svg>
