<?xml version="1.0" standalone="no"?>
<!DOCTYPE svg PUBLIC "-//W3C//DTD SVG 20010904//EN"
 "http://www.w3.org/TR/2001/REC-SVG-20010904/DTD/svg10.dtd">
<svg version="1.0" xmlns="http://www.w3.org/2000/svg"
 width="96.000000pt" height="68.000000pt" viewBox="0 0 96.000000 68.000000"
 preserveAspectRatio="xMidYMid meet">
<metadata>
Created by potrace 1.16, written by Peter Selinger 2001-2019
</metadata>
<g transform="translate(0.000000,68.000000) scale(0.100000,-0.100000)"
fill="#000000" stroke="none">
<path d="M290 573 c0 -48 -70 -161 -154 -252 -39 -41 -40 -43 -11 -28 17 8 50
34 74 56 24 23 46 41 48 41 13 0 -4 -223 -22 -280 -8 -24 31 -70 43 -52 16 23
25 331 12 347 -10 12 -4 28 29 81 45 71 49 89 25 98 -28 11 -44 6 -44 -11z"/>
</g>
</svg>
