<?xml version="1.0" standalone="no"?>
<!DOCTYPE svg PUBLIC "-//W3C//DTD SVG 20010904//EN"
 "http://www.w3.org/TR/2001/REC-SVG-20010904/DTD/svg10.dtd">
<svg version="1.0" xmlns="http://www.w3.org/2000/svg"
 width="96.000000pt" height="68.000000pt" viewBox="0 0 96.000000 68.000000"
 preserveAspectRatio="xMidYMid meet">
<metadata>
Created by potrace 1.16, written by Peter Selinger 2001-2019
</metadata>
<g transform="translate(0.000000,68.000000) scale(0.100000,-0.100000)"
fill="#000000" stroke="none">
<path d="M730 299 c-14 -6 -37 -9 -52 -6 -27 3 -37 -6 -19 -17 5 -4 12 -23 16
-44 8 -52 20 -69 37 -55 7 6 26 13 42 15 25 3 31 10 44 51 13 42 13 50 1 58
-18 11 -37 10 -69 -2z m30 -53 c0 -26 -5 -36 -21 -41 -25 -8 -37 2 -39 35 -3
38 -2 40 30 40 28 0 30 -3 30 -34z"/>
</g>
</svg>
