<?xml version="1.0" standalone="no"?>
<!DOCTYPE svg PUBLIC "-//W3C//DTD SVG 20010904//EN"
 "http://www.w3.org/TR/2001/REC-SVG-20010904/DTD/svg10.dtd">
<svg version="1.0" xmlns="http://www.w3.org/2000/svg"
 width="96.000000pt" height="68.000000pt" viewBox="0 0 96.000000 68.000000"
 preserveAspectRatio="xMidYMid meet">
<metadata>
Created by potrace 1.16, written by Peter Selinger 2001-2019
</metadata>
<g transform="translate(0.000000,68.000000) scale(0.100000,-0.100000)"
fill="#000000" stroke="none">
<path d="M364 275 c-5 -21 -12 -25 -43 -25 -20 0 -43 -5 -51 -10 -11 -7 -5
-10 23 -10 50 0 48 -16 -12 -78 -28 -29 -44 -52 -37 -52 18 0 102 65 109 84
10 25 30 20 155 -43 153 -77 162 -78 253 -44 l74 28 -80 7 c-119 10 -191 26
-275 61 -92 38 -95 40 -80 67 10 18 9 24 -1 31 -22 14 -28 11 -35 -16z"/>
</g>
</svg>
