<?xml version="1.0" standalone="no"?>
<!DOCTYPE svg PUBLIC "-//W3C//DTD SVG 20010904//EN"
 "http://www.w3.org/TR/2001/REC-SVG-20010904/DTD/svg10.dtd">
<svg version="1.0" xmlns="http://www.w3.org/2000/svg"
 width="96.000000pt" height="68.000000pt" viewBox="0 0 96.000000 68.000000"
 preserveAspectRatio="xMidYMid meet">
<metadata>
Created by potrace 1.16, written by Peter Selinger 2001-2019
</metadata>
<g transform="translate(0.000000,68.000000) scale(0.100000,-0.100000)"
fill="#000000" stroke="none">
<path d="M725 399 c-22 -4 -59 -8 -82 -8 -24 -1 -43 -5 -43 -10 0 -16 42 -17
108 -3 86 19 89 15 74 -92 -11 -75 -35 -156 -46 -156 -3 0 -16 4 -30 10 -29
11 -33 5 -11 -16 8 -8 19 -23 24 -32 8 -13 14 -15 28 -6 31 19 53 69 69 156 8
45 20 96 26 112 20 50 -21 65 -117 45z"/>
</g>
</svg>
