<?xml version="1.0" standalone="no"?>
<!DOCTYPE svg PUBLIC "-//W3C//DTD SVG 20010904//EN"
 "http://www.w3.org/TR/2001/REC-SVG-20010904/DTD/svg10.dtd">
<svg version="1.0" xmlns="http://www.w3.org/2000/svg"
 width="90.000000pt" height="92.000000pt" viewBox="0 0 90.000000 92.000000"
 preserveAspectRatio="xMidYMid meet">
<metadata>
Created by potrace 1.16, written by Peter Selinger 2001-2019
</metadata>
<g transform="translate(0.000000,92.000000) scale(0.100000,-0.100000)"
fill="#000000" stroke="none">
<path d="M196 818 c4 -24 8 -56 8 -73 1 -28 -2 -30 -47 -37 -27 -3 -51 -9 -54
-12 -11 -10 52 -27 80 -22 26 5 27 4 27 -34 0 -39 -1 -40 -37 -42 -41 -2 -93
-6 -106 -7 -4 -1 -1 -13 7 -28 7 -16 17 -57 21 -93 4 -36 11 -75 16 -87 8 -21
10 -21 36 -8 44 23 53 19 53 -24 l0 -39 -90 -13 c-93 -13 -120 -22 -107 -35
10 -10 68 -10 138 0 l56 8 -10 -72 c-10 -80 -4 -132 18 -150 23 -19 35 27 35
134 l0 93 46 7 c26 3 64 6 85 6 47 0 57 14 24 36 -24 16 -37 16 -128 -2 -28
-6 -28 -5 -25 33 3 35 6 38 36 41 18 2 32 -1 32 -7 0 -6 6 -11 14 -11 15 0 27
27 52 115 9 33 20 64 25 70 17 18 9 35 -28 53 -26 13 -46 16 -63 11 -52 -15
-62 -11 -58 23 3 29 7 32 56 43 29 7 55 15 58 18 13 12 -40 28 -73 22 l-35 -6
6 45 c7 44 6 46 -26 66 -46 28 -51 26 -42 -22z m134 -261 c0 -32 -1 -32 -40
-29 -34 3 -40 8 -40 26 0 30 7 36 47 36 31 0 33 -2 33 -33z m-120 -6 c0 -21
-6 -30 -22 -35 -47 -12 -58 -7 -58 23 0 26 4 30 33 34 17 2 35 5 40 5 4 1 7
-11 7 -27z m114 -78 c-10 -41 -12 -43 -50 -43 -29 0 -34 3 -34 25 0 28 23 44
63 45 25 0 27 -2 21 -27z m-116 -48 c-2 -1 -18 -6 -35 -10 -32 -6 -33 -6 -33
29 0 32 3 35 33 38 29 3 32 0 35 -25 2 -16 2 -30 0 -32z"/>
<path d="M510 781 c0 -5 15 -32 34 -59 39 -58 41 -55 -67 -68 -66 -8 -80 -20
-41 -34 21 -8 64 -6 173 11 80 12 150 25 156 31 20 18 -20 29 -87 23 -57 -4
-67 -3 -62 10 11 27 -6 64 -36 80 -32 17 -70 20 -70 6z"/>
<path d="M630 591 c0 -5 25 -34 55 -65 61 -62 95 -73 95 -30 0 42 -17 62 -75
83 -62 23 -75 25 -75 12z"/>
<path d="M480 564 c0 -9 -18 -43 -40 -75 -53 -78 -30 -78 52 1 60 58 62 61 44
75 -26 20 -56 19 -56 -1z"/>
<path d="M634 451 c0 -49 -29 -141 -44 -141 -5 0 -18 16 -30 35 -29 48 -70 79
-84 65 -8 -8 -5 -16 9 -28 11 -9 35 -36 53 -59 27 -34 31 -46 23 -62 -21 -38
-99 -89 -196 -128 -15 -5 -8 -8 29 -11 57 -4 134 29 180 77 l29 30 43 -59 c63
-86 85 -94 183 -64 58 17 57 25 -4 44 -58 18 -125 54 -165 88 -28 24 -32 32
-23 44 7 7 25 49 42 92 l30 78 -26 24 c-39 36 -49 31 -49 -25z"/>
</g>
</svg>
