<?xml version="1.0" standalone="no"?>
<!DOCTYPE svg PUBLIC "-//W3C//DTD SVG 20010904//EN"
 "http://www.w3.org/TR/2001/REC-SVG-20010904/DTD/svg10.dtd">
<svg version="1.0" xmlns="http://www.w3.org/2000/svg"
 width="96.000000pt" height="68.000000pt" viewBox="0 0 96.000000 68.000000"
 preserveAspectRatio="xMidYMid meet">
<metadata>
Created by potrace 1.16, written by Peter Selinger 2001-2019
</metadata>
<g transform="translate(0.000000,68.000000) scale(0.100000,-0.100000)"
fill="#000000" stroke="none">
<path d="M625 450 c-16 -4 -54 -8 -82 -9 -50 -1 -69 -13 -39 -24 7 -3 17 -23
21 -44 10 -57 23 -75 43 -64 10 5 41 9 70 8 29 0 56 4 61 9 5 5 17 31 27 58
17 47 17 49 -1 62 -20 15 -52 16 -100 4z m55 -29 c0 -15 -11 -20 -52 -27 -73
-11 -72 -11 -76 8 -2 12 8 19 40 26 70 16 88 14 88 -7z m0 -48 c-1 -21 -20
-31 -65 -34 -40 -3 -50 -1 -53 13 -2 13 6 18 35 21 71 7 83 7 83 0z"/>
</g>
</svg>
