<?xml version="1.0" standalone="no"?>
<!DOCTYPE svg PUBLIC "-//W3C//DTD SVG 20010904//EN"
 "http://www.w3.org/TR/2001/REC-SVG-20010904/DTD/svg10.dtd">
<svg version="1.0" xmlns="http://www.w3.org/2000/svg"
 width="96.000000pt" height="68.000000pt" viewBox="0 0 96.000000 68.000000"
 preserveAspectRatio="xMidYMid meet">
<metadata>
Created by potrace 1.16, written by Peter Selinger 2001-2019
</metadata>
<g transform="translate(0.000000,68.000000) scale(0.100000,-0.100000)"
fill="#000000" stroke="none">
<path d="M655 574 c-115 -21 -245 -29 -245 -15 0 26 -18 7 -38 -41 -16 -39
-19 -55 -10 -65 15 -18 44 8 53 48 6 26 11 29 48 29 23 1 71 7 107 15 83 18
140 19 140 2 0 -7 -7 -23 -16 -36 -16 -22 -16 -23 2 -17 11 3 38 10 62 15 55
12 59 16 38 40 -29 32 -65 38 -141 25z"/>
</g>
</svg>
