<?xml version="1.0" standalone="no"?>
<!DOCTYPE svg PUBLIC "-//W3C//DTD SVG 20010904//EN"
 "http://www.w3.org/TR/2001/REC-SVG-20010904/DTD/svg10.dtd">
<svg version="1.0" xmlns="http://www.w3.org/2000/svg"
 width="96.000000pt" height="68.000000pt" viewBox="0 0 96.000000 68.000000"
 preserveAspectRatio="xMidYMid meet">
<metadata>
Created by potrace 1.16, written by Peter Selinger 2001-2019
</metadata>
<g transform="translate(0.000000,68.000000) scale(0.100000,-0.100000)"
fill="#000000" stroke="none">
<path d="M593 298 c13 -10 14 -17 6 -28 -9 -13 -10 -12 -5 3 3 9 1 17 -3 17
-12 0 -19 -100 -8 -107 5 -3 7 -13 4 -23 -6 -23 19 -60 39 -60 8 0 14 -5 14
-11 0 -13 132 -4 161 11 23 13 23 9 4 54 -15 35 -29 49 -23 23 2 -7 -6 -24
-17 -37 -19 -24 -38 -28 -106 -22 -30 3 -58 37 -52 62 4 15 2 21 -5 16 -12 -7
-2 37 17 72 9 18 8 23 -8 32 -27 14 -38 13 -18 -2z m32 -186 c-3 -3 -11 0 -18
7 -9 10 -8 11 6 5 10 -3 15 -9 12 -12z"/>
</g>
</svg>
