<?xml version="1.0" standalone="no"?>
<!DOCTYPE svg PUBLIC "-//W3C//DTD SVG 20010904//EN"
 "http://www.w3.org/TR/2001/REC-SVG-20010904/DTD/svg10.dtd">
<svg version="1.0" xmlns="http://www.w3.org/2000/svg"
 width="96.000000pt" height="68.000000pt" viewBox="0 0 96.000000 68.000000"
 preserveAspectRatio="xMidYMid meet">
<metadata>
Created by potrace 1.16, written by Peter Selinger 2001-2019
</metadata>
<g transform="translate(0.000000,68.000000) scale(0.100000,-0.100000)"
fill="#000000" stroke="none">
<path d="M448 568 l-3 -33 -130 -12 c-72 -6 -143 -12 -160 -13 -30 -1 -30 -2
-7 -13 18 -8 57 -7 159 4 l135 14 -4 -27 c-6 -41 28 -39 37 2 l7 30 169 0 c94
0 169 4 169 9 0 22 -62 30 -163 21 -56 -5 -117 -9 -134 -10 -31 0 -32 2 -26
30 5 27 3 30 -20 30 -22 0 -26 -5 -29 -32z"/>
</g>
</svg>
