<?xml version="1.0" standalone="no"?>
<!DOCTYPE svg PUBLIC "-//W3C//DTD SVG 20010904//EN"
 "http://www.w3.org/TR/2001/REC-SVG-20010904/DTD/svg10.dtd">
<svg version="1.0" xmlns="http://www.w3.org/2000/svg"
 width="90.000000pt" height="92.000000pt" viewBox="0 0 90.000000 92.000000"
 preserveAspectRatio="xMidYMid meet">
<metadata>
Created by potrace 1.16, written by Peter Selinger 2001-2019
</metadata>
<g transform="translate(0.000000,92.000000) scale(0.100000,-0.100000)"
fill="#000000" stroke="none">
<path d="M360 861 c0 -4 4 -21 10 -37 5 -16 11 -66 12 -110 l3 -82 -90 -12
c-136 -17 -155 -21 -149 -32 15 -23 57 -28 139 -14 47 7 85 10 85 6 0 -15 -80
-127 -133 -185 -30 -33 -93 -89 -141 -124 -47 -35 -86 -65 -86 -67 0 -6 69 18
120 43 54 26 182 143 228 208 l21 30 1 -102 0 -101 -64 -7 c-34 -4 -69 -11
-76 -15 -27 -16 3 -30 66 -30 l66 0 -7 -42 c-4 -24 -8 -45 -8 -48 -1 -3 2 -21
6 -41 20 -99 72 -51 72 66 0 38 5 73 10 77 6 4 24 8 42 8 38 0 83 16 83 29 0
14 -39 24 -92 23 l-48 -1 0 115 c0 63 2 114 5 114 2 0 40 -49 85 -109 44 -60
99 -125 121 -146 l42 -38 76 7 c82 6 121 14 121 25 0 4 -30 20 -67 35 -38 16
-98 47 -136 68 -74 43 -244 198 -234 215 3 5 54 13 113 17 113 7 128 11 118
28 -15 24 -69 36 -119 27 -28 -5 -65 -11 -82 -14 l-33 -6 0 58 c0 32 4 73 9
91 6 18 8 39 5 46 -10 25 -94 50 -94 27z"/>
</g>
</svg>
