<?xml version="1.0" standalone="no"?>
<!DOCTYPE svg PUBLIC "-//W3C//DTD SVG 20010904//EN"
 "http://www.w3.org/TR/2001/REC-SVG-20010904/DTD/svg10.dtd">
<svg version="1.0" xmlns="http://www.w3.org/2000/svg"
 width="96.000000pt" height="68.000000pt" viewBox="0 0 96.000000 68.000000"
 preserveAspectRatio="xMidYMid meet">
<metadata>
Created by potrace 1.16, written by Peter Selinger 2001-2019
</metadata>
<g transform="translate(0.000000,68.000000) scale(0.100000,-0.100000)"
fill="#000000" stroke="none">
<path d="M470 541 c0 -6 11 -11 25 -11 14 0 25 -2 25 -5 0 -25 -72 -137 -112
-176 -28 -27 -47 -49 -41 -49 25 0 107 68 145 120 24 33 46 59 49 59 4 1 33
-31 65 -70 33 -39 69 -75 82 -80 27 -10 86 -12 120 -2 20 5 13 10 -47 35 -49
21 -95 52 -155 104 -61 53 -96 77 -121 81 -23 4 -35 2 -35 -6z"/>
</g>
</svg>
