<?xml version="1.0" standalone="no"?>
<!DOCTYPE svg PUBLIC "-//W3C//DTD SVG 20010904//EN"
 "http://www.w3.org/TR/2001/REC-SVG-20010904/DTD/svg10.dtd">
<svg version="1.0" xmlns="http://www.w3.org/2000/svg"
 width="96.000000pt" height="68.000000pt" viewBox="0 0 96.000000 68.000000"
 preserveAspectRatio="xMidYMid meet">
<metadata>
Created by potrace 1.16, written by Peter Selinger 2001-2019
</metadata>
<g transform="translate(0.000000,68.000000) scale(0.100000,-0.100000)"
fill="#000000" stroke="none">
<path d="M295 235 c-5 -2 -43 -9 -82 -15 -82 -13 -97 -30 -28 -30 44 0 45 -1
34 -22 -6 -13 -30 -42 -52 -65 -45 -47 -39 -57 12 -19 38 28 101 99 101 114 0
6 12 12 27 14 30 3 45 28 16 27 -10 0 -22 -2 -28 -4z"/>
</g>
</svg>
