<?xml version="1.0" standalone="no"?>
<!DOCTYPE svg PUBLIC "-//W3C//DTD SVG 20010904//EN"
 "http://www.w3.org/TR/2001/REC-SVG-20010904/DTD/svg10.dtd">
<svg version="1.0" xmlns="http://www.w3.org/2000/svg"
 width="96.000000pt" height="68.000000pt" viewBox="0 0 96.000000 68.000000"
 preserveAspectRatio="xMidYMid meet">
<metadata>
Created by potrace 1.16, written by Peter Selinger 2001-2019
</metadata>
<g transform="translate(0.000000,68.000000) scale(0.100000,-0.100000)"
fill="#000000" stroke="none">
<path d="M270 516 c-19 -7 -53 -11 -74 -8 -36 5 -39 3 -32 -14 15 -35 19 -188
7 -262 -6 -41 -23 -97 -37 -125 l-26 -52 27 25 c31 28 64 94 65 128 0 14 6 22
18 22 9 0 34 14 55 31 l37 30 0 -88 c0 -104 -6 -117 -46 -107 l-29 6 36 -36
c71 -74 87 -33 90 238 3 184 2 199 -16 212 -22 17 -29 16 -75 0z m40 -77 c0
-43 -2 -50 -17 -45 -10 3 -30 8 -45 12 -24 5 -28 11 -28 39 0 36 9 43 58 44
32 1 32 1 32 -50z m-16 -86 c12 5 16 0 16 -18 0 -19 -10 -30 -40 -45 -21 -11
-44 -20 -50 -20 -11 0 -13 61 -4 97 l6 22 28 -21 c16 -11 36 -18 44 -15z"/>
</g>
</svg>
