<?xml version="1.0" standalone="no"?>
<!DOCTYPE svg PUBLIC "-//W3C//DTD SVG 20010904//EN"
 "http://www.w3.org/TR/2001/REC-SVG-20010904/DTD/svg10.dtd">
<svg version="1.0" xmlns="http://www.w3.org/2000/svg"
 width="96.000000pt" height="68.000000pt" viewBox="0 0 96.000000 68.000000"
 preserveAspectRatio="xMidYMid meet">
<metadata>
Created by potrace 1.16, written by Peter Selinger 2001-2019
</metadata>
<g transform="translate(0.000000,68.000000) scale(0.100000,-0.100000)"
fill="#000000" stroke="none">
<path d="M450 309 c-14 -6 -43 -9 -64 -7 l-40 3 3 -57 c1 -31 -3 -84 -10 -118
-8 -44 -9 -64 -1 -72 12 -12 25 12 36 64 5 23 13 28 50 33 55 9 65 3 58 -32
-7 -41 -22 -55 -51 -48 l-26 5 28 -25 c63 -56 85 -21 87 136 1 99 -2 118 -15
123 -20 7 -24 7 -55 -5z m30 -39 c0 -14 -11 -22 -37 -29 -55 -15 -63 -14 -63
12 0 33 7 37 57 37 36 0 43 -3 43 -20z m7 -56 c8 -23 -7 -33 -60 -40 -46 -7
-47 -6 -47 19 0 23 4 26 43 30 23 2 46 4 50 5 4 1 10 -5 14 -14z"/>
</g>
</svg>
