<?xml version="1.0" standalone="no"?>
<!DOCTYPE svg PUBLIC "-//W3C//DTD SVG 20010904//EN"
 "http://www.w3.org/TR/2001/REC-SVG-20010904/DTD/svg10.dtd">
<svg version="1.0" xmlns="http://www.w3.org/2000/svg"
 width="96.000000pt" height="68.000000pt" viewBox="0 0 96.000000 68.000000"
 preserveAspectRatio="xMidYMid meet">
<metadata>
Created by potrace 1.16, written by Peter Selinger 2001-2019
</metadata>
<g transform="translate(0.000000,68.000000) scale(0.100000,-0.100000)"
fill="#000000" stroke="none">
<path d="M481 564 c-7 -19 -32 -55 -55 -80 -24 -24 -41 -44 -38 -44 3 0 27 16
53 35 40 29 58 35 99 35 42 0 50 -3 50 -18 0 -34 -33 -53 -81 -48 -43 6 -43 5
-11 -6 17 -6 32 -14 32 -17 -1 -9 -95 -71 -108 -71 -6 0 -14 -5 -17 -10 -8
-14 73 18 107 42 35 24 49 23 111 -12 45 -25 64 -30 118 -29 35 1 75 4 89 8
20 7 13 9 -35 15 -74 9 -215 46 -215 56 0 4 14 18 31 31 22 17 29 29 26 46 -4
19 1 22 37 25 33 3 37 5 22 12 -11 6 -52 5 -100 -1 -45 -5 -83 -9 -85 -7 -1 1
4 13 13 25 11 17 13 26 4 36 -18 22 -33 15 -47 -23z"/>
<path d="M275 548 c-11 -53 -60 -130 -131 -207 -37 -40 -64 -74 -61 -77 6 -6
82 40 92 56 3 6 11 7 17 4 6 -4 8 -2 5 3 -4 6 0 16 8 23 13 11 15 2 15 -72 0
-47 -6 -105 -13 -129 -14 -45 -7 -84 17 -101 25 -17 34 18 41 158 6 123 5 147
-8 162 -14 16 -11 23 39 92 30 41 54 77 54 80 -1 14 -18 29 -42 35 -23 6 -27
3 -33 -27z"/>
<path d="M314 383 c3 -8 6 -53 6 -99 0 -68 3 -84 15 -84 12 0 15 17 15 94 0
86 -2 94 -21 99 -15 4 -19 2 -15 -10z"/>
<path d="M653 307 c-57 -13 -55 -28 2 -20 l46 6 -3 -109 -3 -109 -33 2 -34 1
28 -29 c56 -59 78 -31 80 107 2 57 6 113 9 125 12 37 -15 45 -92 26z"/>
<path d="M440 284 l-45 -14 51 5 c63 7 65 3 60 -104 -3 -88 -10 -104 -37 -96
-24 8 -25 -7 -1 -28 48 -44 69 -3 74 138 l3 110 -30 1 c-16 1 -50 -4 -75 -12z"/>
<path d="M417 219 c11 -12 26 -20 33 -17 17 5 -16 38 -38 38 -14 0 -13 -3 5
-21z"/>
<path d="M612 220 c13 -20 38 -28 38 -12 0 12 -23 32 -37 32 -11 0 -11 -4 -1
-20z"/>
<path d="M435 160 c-22 -11 -46 -19 -52 -20 -17 0 -16 -15 2 -30 11 -9 22 -4
57 29 49 46 48 48 -7 21z"/>
<path d="M602 153 c-39 -14 -41 -16 -25 -28 18 -13 29 -10 66 18 18 15 23 28
10 26 -5 0 -27 -7 -51 -16z"/>
</g>
</svg>
