<?xml version="1.0" standalone="no"?>
<!DOCTYPE svg PUBLIC "-//W3C//DTD SVG 20010904//EN"
 "http://www.w3.org/TR/2001/REC-SVG-20010904/DTD/svg10.dtd">
<svg version="1.0" xmlns="http://www.w3.org/2000/svg"
 width="96.000000pt" height="68.000000pt" viewBox="0 0 96.000000 68.000000"
 preserveAspectRatio="xMidYMid meet">
<metadata>
Created by potrace 1.16, written by Peter Selinger 2001-2019
</metadata>
<g transform="translate(0.000000,68.000000) scale(0.100000,-0.100000)"
fill="#000000" stroke="none">
<path d="M411 403 c34 -45 69 -57 69 -23 0 22 -28 40 -61 40 -19 0 -20 -2 -8
-17z"/>
<path d="M370 313 c0 -18 49 -56 64 -50 32 12 12 40 -37 52 -15 4 -27 3 -27
-2z"/>
<path d="M427 190 c-26 -21 -53 -40 -59 -42 -15 -5 -2 -58 15 -58 12 0 103
128 96 135 -2 2 -25 -14 -52 -35z"/>
</g>
</svg>
