<?xml version="1.0" standalone="no"?>
<!DOCTYPE svg PUBLIC "-//W3C//DTD SVG 20010904//EN"
 "http://www.w3.org/TR/2001/REC-SVG-20010904/DTD/svg10.dtd">
<svg version="1.0" xmlns="http://www.w3.org/2000/svg"
 width="90.000000pt" height="92.000000pt" viewBox="0 0 90.000000 92.000000"
 preserveAspectRatio="xMidYMid meet">
<metadata>
Created by potrace 1.16, written by Peter Selinger 2001-2019
</metadata>
<g transform="translate(0.000000,92.000000) scale(0.100000,-0.100000)"
fill="#000000" stroke="none">
<path d="M286 773 c4 -10 9 -59 12 -110 l4 -91 -46 -7 c-73 -11 -77 -38 -6
-40 22 0 42 -4 45 -7 4 -3 2 -65 -4 -136 -12 -136 -9 -163 18 -161 17 1 156
148 147 156 -2 3 -25 -9 -50 -26 -24 -17 -49 -31 -54 -31 -6 0 -10 42 -8 107
l2 107 54 16 c59 17 72 33 40 50 -16 8 -30 9 -52 1 -17 -6 -33 -11 -36 -11 -2
0 -2 38 -1 83 4 93 -6 117 -48 117 -20 0 -24 -3 -17 -17z"/>
<path d="M100 772 c0 -5 16 -27 36 -50 48 -57 95 -55 80 2 -8 32 -116 76 -116
48z"/>
<path d="M710 679 c-14 -6 -68 -19 -120 -30 -52 -11 -96 -22 -98 -24 -8 -8 49
-37 62 -32 25 10 27 -23 7 -108 -34 -140 -84 -231 -174 -317 -38 -37 -14 -36
44 1 80 50 158 184 204 350 17 58 17 63 1 80 -20 22 -14 26 58 36 38 6 47 4
52 -10 10 -25 -14 -236 -37 -330 -24 -99 -36 -112 -84 -98 -19 6 -35 9 -35 7
0 -9 72 -104 79 -104 13 0 50 40 66 70 21 41 41 136 55 260 6 58 19 129 27
159 l17 54 -28 23 c-29 26 -56 29 -96 13z"/>
<path d="M26 581 c-3 -4 14 -30 38 -57 38 -43 45 -47 60 -35 17 15 21 38 7 59
-10 16 -99 44 -105 33z"/>
<path d="M150 388 c-19 -33 -55 -81 -79 -105 l-43 -44 17 -44 c20 -55 39 -57
56 -7 6 20 29 78 49 127 21 50 41 100 45 113 12 41 -10 22 -45 -40z"/>
</g>
</svg>
