<?xml version="1.0" standalone="no"?>
<!DOCTYPE svg PUBLIC "-//W3C//DTD SVG 20010904//EN"
 "http://www.w3.org/TR/2001/REC-SVG-20010904/DTD/svg10.dtd">
<svg version="1.0" xmlns="http://www.w3.org/2000/svg"
 width="90.000000pt" height="92.000000pt" viewBox="0 0 90.000000 92.000000"
 preserveAspectRatio="xMidYMid meet">
<metadata>
Created by potrace 1.16, written by Peter Selinger 2001-2019
</metadata>
<g transform="translate(0.000000,92.000000) scale(0.100000,-0.100000)"
fill="#000000" stroke="none">
<path d="M195 718 c0 -57 -4 -120 -8 -140 -7 -33 -12 -38 -45 -45 -20 -4 -58
-7 -84 -6 -57 1 -62 -13 -17 -51 29 -25 31 -25 67 -10 20 9 43 18 50 21 9 4 7
-10 -7 -47 -11 -29 -18 -57 -15 -62 3 -4 23 -17 45 -29 22 -11 43 -27 46 -35
8 -21 -48 -77 -120 -121 -31 -20 -57 -38 -57 -40 0 -3 15 -2 33 2 44 9 110 49
153 92 l36 35 42 -41 c50 -50 76 -54 76 -12 0 28 -25 57 -75 86 -17 10 -17 13
-2 35 8 14 28 66 43 116 23 80 30 92 55 101 33 13 39 33 9 33 -11 0 -20 7 -20
15 0 16 -58 50 -68 40 -4 -4 -7 -23 -7 -43 0 -34 -2 -36 -50 -48 -27 -7 -51
-11 -53 -9 -2 1 11 52 28 111 l31 109 -26 22 c-14 13 -34 23 -43 23 -15 0 -17
-13 -17 -102z m135 -182 c0 -12 -51 -162 -59 -175 -7 -11 -14 -11 -45 0 -21 7
-41 18 -46 24 -4 5 0 35 9 65 16 53 17 55 71 71 62 19 70 21 70 15z"/>
<path d="M640 670 c-25 -10 -76 -24 -115 -30 -38 -7 -74 -15 -78 -17 -5 -3 3
-17 17 -32 15 -15 47 -76 72 -135 l45 -107 -20 -28 c-29 -41 -91 -94 -147
-127 -46 -27 -47 -29 -22 -32 35 -4 119 39 173 89 l44 41 29 -59 c45 -89 55
-94 152 -91 47 2 85 8 87 14 2 5 -14 20 -36 32 -60 34 -160 112 -177 138 -14
21 -13 30 20 121 20 54 46 122 58 152 l21 54 -22 19 c-28 22 -42 21 -101 -2z
m25 -77 c-8 -57 -43 -170 -53 -177 -8 -4 -108 173 -101 178 9 5 135 44 148 45
10 1 12 -9 6 -46z"/>
</g>
</svg>
