<?xml version="1.0" standalone="no"?>
<!DOCTYPE svg PUBLIC "-//W3C//DTD SVG 20010904//EN"
 "http://www.w3.org/TR/2001/REC-SVG-20010904/DTD/svg10.dtd">
<svg version="1.0" xmlns="http://www.w3.org/2000/svg"
 width="90.000000pt" height="92.000000pt" viewBox="0 0 90.000000 92.000000"
 preserveAspectRatio="xMidYMid meet">
<metadata>
Created by potrace 1.16, written by Peter Selinger 2001-2019
</metadata>
<g transform="translate(0.000000,92.000000) scale(0.100000,-0.100000)"
fill="#000000" stroke="none">
<path d="M236 788 c4 -24 8 -77 9 -118 l0 -74 -50 -8 c-127 -20 -122 -18 -100
-35 15 -11 36 -13 89 -7 l69 6 -6 -169 c-4 -94 -10 -178 -13 -188 -6 -14 -15
-16 -51 -12 -23 2 -43 3 -43 2 0 -6 104 -105 111 -105 4 0 15 10 23 22 13 19
16 59 16 239 l0 217 28 6 c112 28 121 34 78 54 -17 7 -35 8 -58 1 -18 -5 -35
-9 -37 -9 -5 0 6 116 15 152 5 23 1 30 -27 47 -53 33 -63 28 -53 -21z"/>
<path d="M560 786 c0 -37 -48 -182 -82 -251 -29 -57 -29 -59 -7 -40 13 11 29
27 36 35 14 19 100 21 107 3 6 -15 -10 -160 -20 -186 -6 -16 -12 -12 -49 27
-25 27 -51 46 -63 46 -29 0 -28 -14 3 -34 14 -9 37 -34 51 -56 l26 -39 -22
-28 c-29 -37 -105 -90 -141 -98 -34 -8 -49 -25 -21 -25 41 0 124 32 168 66
l46 35 16 -23 c9 -13 34 -42 56 -66 l39 -43 85 3 c57 2 87 7 90 16 2 6 -3 12
-10 12 -29 0 -184 83 -219 116 l-36 35 18 52 c9 29 24 81 32 117 13 57 13 67
0 82 -13 15 -10 17 37 27 28 6 60 11 70 11 31 0 24 19 -12 34 -28 12 -39 11
-97 -9 -36 -12 -78 -25 -92 -28 l-27 -7 38 78 c54 109 57 126 29 146 -33 23
-49 20 -49 -8z"/>
<path d="M380 731 c0 -20 66 -85 78 -77 20 12 14 45 -10 60 -34 21 -68 29 -68
17z"/>
<path d="M372 490 c-6 -17 -21 -44 -32 -60 -28 -39 -16 -37 43 6 51 37 54 49
20 71 -19 13 -22 12 -31 -17z"/>
<path d="M90 472 c0 -5 18 -26 41 -46 32 -30 43 -35 55 -25 19 16 18 46 -4 58
-28 15 -92 24 -92 13z"/>
<path d="M145 324 c-33 -19 -77 -37 -97 -40 -23 -4 -38 -12 -38 -20 0 -15 35
-54 48 -54 12 0 158 137 152 143 -3 2 -32 -11 -65 -29z"/>
<path d="M320 345 c0 -2 21 -24 46 -47 54 -49 79 -55 79 -18 0 19 -9 29 -35
41 -39 19 -90 32 -90 24z"/>
</g>
</svg>
