<?xml version="1.0" standalone="no"?>
<!DOCTYPE svg PUBLIC "-//W3C//DTD SVG 20010904//EN"
 "http://www.w3.org/TR/2001/REC-SVG-20010904/DTD/svg10.dtd">
<svg version="1.0" xmlns="http://www.w3.org/2000/svg"
 width="90.000000pt" height="92.000000pt" viewBox="0 0 90.000000 92.000000"
 preserveAspectRatio="xMidYMid meet">
<metadata>
Created by potrace 1.16, written by Peter Selinger 2001-2019
</metadata>
<g transform="translate(0.000000,92.000000) scale(0.100000,-0.100000)"
fill="#000000" stroke="none">
<path d="M535 769 c-27 -4 -140 -17 -250 -29 -233 -24 -237 -25 -207 -46 22
-15 22 -20 22 -244 -1 -139 3 -237 9 -248 15 -28 74 -53 155 -64 118 -17 483
5 526 32 7 4 10 15 7 24 -12 30 -50 36 -138 19 -115 -21 -430 -24 -478 -4
l-34 15 6 165 c5 151 20 276 36 292 3 4 32 9 63 13 52 6 58 4 69 -16 16 -29
12 -130 -7 -199 -9 -31 -33 -79 -55 -108 -42 -56 -42 -58 1 -36 61 32 115 145
125 262 2 34 6 66 7 72 2 5 -6 17 -17 25 -19 14 -16 15 36 16 43 0 58 -4 63
-16 3 -9 6 -80 6 -158 0 -162 3 -170 77 -182 48 -7 136 11 154 32 10 12 8 19
-9 37 -21 21 -23 21 -69 4 -27 -9 -62 -17 -80 -17 l-32 0 5 88 c3 48 10 107
15 132 14 64 14 64 -12 77 -21 11 -11 13 71 13 112 0 137 10 101 40 -25 22
-76 24 -166 9z"/>
</g>
</svg>
