<?xml version="1.0" standalone="no"?>
<!DOCTYPE svg PUBLIC "-//W3C//DTD SVG 20010904//EN"
 "http://www.w3.org/TR/2001/REC-SVG-20010904/DTD/svg10.dtd">
<svg version="1.0" xmlns="http://www.w3.org/2000/svg"
 width="96.000000pt" height="68.000000pt" viewBox="0 0 96.000000 68.000000"
 preserveAspectRatio="xMidYMid meet">
<metadata>
Created by potrace 1.16, written by Peter Selinger 2001-2019
</metadata>
<g transform="translate(0.000000,68.000000) scale(0.100000,-0.100000)"
fill="#000000" stroke="none">
<path d="M430 552 c0 -13 45 -42 65 -42 23 0 18 28 -7 35 -13 4 -31 9 -40 11
-10 3 -18 1 -18 -4z"/>
<path d="M413 455 c32 -28 57 -32 57 -10 0 16 -38 35 -68 35 -13 -1 -10 -6 11
-25z"/>
<path d="M465 385 c-27 -19 -56 -34 -62 -35 -18 0 -16 -39 2 -47 15 -5 60 39
103 99 18 24 15 23 -43 -17z"/>
</g>
</svg>
