<?xml version="1.0" standalone="no"?>
<!DOCTYPE svg PUBLIC "-//W3C//DTD SVG 20010904//EN"
 "http://www.w3.org/TR/2001/REC-SVG-20010904/DTD/svg10.dtd">
<svg version="1.0" xmlns="http://www.w3.org/2000/svg"
 width="90.000000pt" height="92.000000pt" viewBox="0 0 90.000000 92.000000"
 preserveAspectRatio="xMidYMid meet">
<metadata>
Created by potrace 1.16, written by Peter Selinger 2001-2019
</metadata>
<g transform="translate(0.000000,92.000000) scale(0.100000,-0.100000)"
fill="#000000" stroke="none">
<path d="M240 812 c0 -63 -126 -277 -209 -356 -17 -17 -31 -34 -31 -38 0 -16
44 15 101 69 l57 54 6 -28 c9 -32 0 -198 -16 -303 -9 -65 -9 -80 6 -108 9 -17
19 -32 22 -32 15 0 23 65 25 210 1 90 6 183 9 207 6 34 3 49 -10 66 -17 20
-16 23 15 71 17 28 47 79 66 114 l34 63 -24 20 c-33 27 -51 24 -51 -9z"/>
<path d="M520 765 c-54 -15 -99 -21 -122 -18 l-38 6 6 -44 c7 -60 21 -382 17
-391 -2 -5 -35 -8 -74 -8 -74 0 -86 -10 -39 -35 26 -14 38 -14 116 0 47 8 169
18 270 21 191 7 221 16 152 45 -33 14 -51 14 -107 4 l-33 -6 6 168 c4 92 12
183 18 202 9 28 7 36 -8 52 -29 28 -71 29 -164 4z m94 -41 c3 -9 6 -29 6 -45
0 -26 -3 -29 -32 -27 -18 1 -59 -4 -91 -11 -32 -7 -60 -11 -61 -9 -9 10 -14
55 -7 66 4 7 39 19 77 26 92 19 101 19 108 0z m6 -137 l0 -43 -42 1 c-24 0
-67 -4 -95 -9 l-53 -8 0 34 0 34 88 16 c48 9 90 16 95 17 4 0 7 -18 7 -42z m0
-104 c0 -37 -1 -38 -37 -38 -21 -1 -64 -4 -95 -9 l-58 -8 0 34 0 35 73 10
c122 17 117 18 117 -24z m0 -103 c0 -45 0 -46 -117 -54 l-73 -5 0 38 0 38 83
10 c45 6 88 11 95 12 8 0 12 -13 12 -39z"/>
<path d="M580 256 c0 -18 145 -176 161 -176 42 0 32 72 -15 112 -35 29 -146
77 -146 64z"/>
<path d="M401 228 c-11 -27 -49 -69 -110 -120 -25 -22 -38 -38 -29 -38 29 0
110 49 228 138 9 7 -42 42 -61 42 -11 0 -24 -10 -28 -22z"/>
</g>
</svg>
