<?xml version="1.0" standalone="no"?>
<!DOCTYPE svg PUBLIC "-//W3C//DTD SVG 20010904//EN"
 "http://www.w3.org/TR/2001/REC-SVG-20010904/DTD/svg10.dtd">
<svg version="1.0" xmlns="http://www.w3.org/2000/svg"
 width="96.000000pt" height="68.000000pt" viewBox="0 0 96.000000 68.000000"
 preserveAspectRatio="xMidYMid meet">
<metadata>
Created by potrace 1.16, written by Peter Selinger 2001-2019
</metadata>
<g transform="translate(0.000000,68.000000) scale(0.100000,-0.100000)"
fill="#000000" stroke="none">
<path d="M570 544 c-30 -8 -77 -13 -103 -12 l-48 3 5 -35 c3 -19 8 -90 12
-158 5 -106 8 -123 23 -120 12 3 17 18 19 71 l3 67 33 0 c18 0 54 3 80 6 l46
7 0 -67 c0 -63 1 -66 24 -66 21 0 24 6 30 52 3 29 6 78 6 108 0 30 5 71 10 90
9 31 8 37 -11 53 -25 20 -53 20 -129 1z m70 -49 c0 -31 -3 -34 -27 -33 -16 1
-52 -2 -80 -7 l-53 -8 0 30 c0 28 2 30 63 40 101 16 97 17 97 -22z m0 -74 c0
-28 -2 -29 -67 -36 -36 -4 -72 -9 -80 -12 -9 -4 -13 4 -13 24 0 29 1 30 73 40
39 5 75 10 80 11 4 1 7 -11 7 -27z"/>
</g>
</svg>
