<?xml version="1.0" standalone="no"?>
<!DOCTYPE svg PUBLIC "-//W3C//DTD SVG 20010904//EN"
 "http://www.w3.org/TR/2001/REC-SVG-20010904/DTD/svg10.dtd">
<svg version="1.0" xmlns="http://www.w3.org/2000/svg"
 width="96.000000pt" height="68.000000pt" viewBox="0 0 96.000000 68.000000"
 preserveAspectRatio="xMidYMid meet">
<metadata>
Created by potrace 1.16, written by Peter Selinger 2001-2019
</metadata>
<g transform="translate(0.000000,68.000000) scale(0.100000,-0.100000)"
fill="#000000" stroke="none">
<path d="M301 561 c-17 -59 -85 -154 -154 -216 -34 -30 -56 -55 -49 -55 22 0
75 31 110 63 l32 31 0 -91 c0 -50 -5 -114 -12 -142 -13 -56 -1 -101 27 -101
20 0 23 21 32 187 6 105 5 147 -4 159 -10 13 -2 28 43 89 30 41 54 76 54 79 0
12 -33 36 -49 36 -12 0 -22 -13 -30 -39z"/>
<path d="M580 545 c-30 -7 -79 -14 -108 -14 -46 -1 -53 -3 -48 -18 2 -10 8
-80 11 -155 l7 -138 -61 0 c-34 0 -61 -4 -61 -10 0 -18 48 -22 137 -11 49 6
155 11 236 12 81 1 147 5 147 10 0 18 -44 31 -93 27 l-52 -3 1 40 c1 95 8 192
16 215 7 19 5 28 -14 42 -26 20 -41 20 -118 3z m60 -50 c0 -31 -3 -35 -27 -35
-16 0 -52 -3 -80 -6 l-53 -7 0 30 c0 28 2 30 63 40 101 16 97 17 97 -22z m0
-74 c0 -27 -2 -28 -65 -35 -36 -4 -72 -9 -80 -12 -11 -5 -15 1 -15 23 0 30 1
30 78 40 42 5 78 11 80 11 1 1 2 -11 2 -27z m0 -75 c0 -22 -5 -25 -47 -31 -27
-3 -63 -8 -80 -11 -31 -5 -33 -3 -33 25 0 33 -10 30 133 39 22 2 27 -2 27 -22z
m0 -75 c0 -34 -17 -41 -103 -41 -58 0 -58 0 -55 28 3 26 6 27 73 33 39 3 73 6
78 7 4 1 7 -11 7 -27z"/>
<path d="M460 166 c0 -15 -65 -77 -100 -96 -12 -6 -19 -14 -17 -17 8 -7 187
88 187 99 0 8 -43 28 -61 28 -5 0 -9 -6 -9 -14z"/>
<path d="M675 120 c60 -61 88 -73 99 -43 10 24 -29 60 -91 83 -30 11 -57 20
-61 20 -3 0 20 -27 53 -60z"/>
</g>
</svg>
