<?xml version="1.0" standalone="no"?>
<!DOCTYPE svg PUBLIC "-//W3C//DTD SVG 20010904//EN"
 "http://www.w3.org/TR/2001/REC-SVG-20010904/DTD/svg10.dtd">
<svg version="1.0" xmlns="http://www.w3.org/2000/svg"
 width="96.000000pt" height="68.000000pt" viewBox="0 0 96.000000 68.000000"
 preserveAspectRatio="xMidYMid meet">
<metadata>
Created by potrace 1.16, written by Peter Selinger 2001-2019
</metadata>
<g transform="translate(0.000000,68.000000) scale(0.100000,-0.100000)"
fill="#000000" stroke="none">
<path d="M425 210 c-16 -4 -56 -8 -89 -9 -52 -1 -57 -3 -50 -18 4 -10 10 -45
12 -78 4 -65 15 -86 34 -67 16 16 130 16 146 0 20 -20 29 3 34 83 4 66 2 78
-13 88 -21 12 -30 12 -74 1z m43 -47 c3 -21 -1 -23 -36 -23 -22 0 -54 -3 -72
-6 -29 -6 -31 -5 -28 17 4 27 33 38 93 36 33 -2 41 -6 43 -24z m0 -78 c-2 -2
-31 -7 -66 -11 -58 -6 -62 -5 -62 14 0 16 8 22 33 26 76 13 92 12 95 -7 2 -10
2 -20 0 -22z"/>
</g>
</svg>
