<?xml version="1.0" standalone="no"?>
<!DOCTYPE svg PUBLIC "-//W3C//DTD SVG 20010904//EN"
 "http://www.w3.org/TR/2001/REC-SVG-20010904/DTD/svg10.dtd">
<svg version="1.0" xmlns="http://www.w3.org/2000/svg"
 width="96.000000pt" height="68.000000pt" viewBox="0 0 96.000000 68.000000"
 preserveAspectRatio="xMidYMid meet">
<metadata>
Created by potrace 1.16, written by Peter Selinger 2001-2019
</metadata>
<g transform="translate(0.000000,68.000000) scale(0.100000,-0.100000)"
fill="#000000" stroke="none">
<path d="M425 594 c-182 -26 -178 -25 -166 -37 6 -6 40 -10 78 -9 41 1 63 -2
55 -7 -8 -4 -13 -11 -12 -15 1 -4 0 -19 -3 -35 -7 -31 5 -28 -160 -47 -80 -10
-44 -27 44 -21 54 3 79 2 79 -6 0 -21 -107 -114 -169 -148 -74 -39 -67 -50 11
-18 78 33 163 100 199 157 17 27 27 32 59 32 33 0 51 -10 115 -62 128 -105
134 -108 190 -107 27 1 64 5 80 9 34 8 30 11 -55 35 -62 18 -202 85 -240 115
l-25 20 70 1 c39 1 84 5 100 8 l30 8 -28 13 c-24 11 -47 12 -135 2 -58 -6
-107 -10 -109 -9 -1 2 3 18 10 36 9 26 9 33 -1 40 -16 10 41 21 106 21 23 0
42 5 42 10 0 11 -43 31 -63 29 -7 -1 -52 -7 -102 -15z"/>
<path d="M406 328 c11 -47 7 -219 -5 -231 -7 -7 -18 -7 -36 1 -34 16 -31 2 8
-36 35 -34 62 -35 71 -4 8 29 10 277 2 290 -4 6 -16 12 -27 12 -18 0 -20 -4
-13 -32z"/>
<path d="M260 219 c0 -7 -16 -34 -35 -60 -19 -27 -35 -52 -35 -55 0 -14 84 44
107 74 21 28 23 36 12 43 -20 12 -49 11 -49 -2z"/>
<path d="M600 221 c0 -5 3 -11 8 -13 4 -1 22 -22 40 -45 35 -44 72 -57 72 -25
-1 24 -29 55 -69 75 -38 19 -51 21 -51 8z"/>
<path d="M480 215 c0 -3 4 -11 10 -18 5 -7 21 -27 36 -44 32 -41 44 -42 44 -3
0 23 -7 35 -32 50 -32 19 -58 26 -58 15z"/>
</g>
</svg>
