<?xml version="1.0" standalone="no"?>
<!DOCTYPE svg PUBLIC "-//W3C//DTD SVG 20010904//EN"
 "http://www.w3.org/TR/2001/REC-SVG-20010904/DTD/svg10.dtd">
<svg version="1.0" xmlns="http://www.w3.org/2000/svg"
 width="90.000000pt" height="92.000000pt" viewBox="0 0 90.000000 92.000000"
 preserveAspectRatio="xMidYMid meet">
<metadata>
Created by potrace 1.16, written by Peter Selinger 2001-2019
</metadata>
<g transform="translate(0.000000,92.000000) scale(0.100000,-0.100000)"
fill="#000000" stroke="none">
<path d="M500 814 c-30 -7 -97 -19 -148 -25 -108 -15 -118 -33 -20 -37 72 -3
78 -9 78 -79 0 -28 -4 -33 -32 -38 -36 -6 -206 -25 -225 -25 -24 0 -13 -17 18
-30 24 -10 48 -10 112 -1 134 18 127 21 127 -50 l0 -62 -40 6 c-22 3 -40 2
-40 -1 1 -13 78 -92 89 -92 23 0 41 59 41 138 l0 79 61 7 c34 3 90 6 125 6 34
0 65 4 69 9 3 5 -7 19 -22 31 -24 19 -36 21 -78 16 -27 -4 -74 -10 -103 -13
l-54 -6 3 44 c2 25 0 50 -4 56 -5 8 5 14 30 18 75 13 114 26 111 37 -7 20 -43
25 -98 12z"/>
<path d="M609 396 c-6 -6 -367 -46 -417 -46 -43 0 -54 -12 -27 -28 17 -9 50
-153 41 -177 -4 -11 -23 -15 -80 -15 -41 0 -77 -4 -80 -9 -3 -5 10 -16 29 -26
33 -15 42 -15 138 0 63 11 198 19 356 23 272 7 303 14 222 51 -32 14 -52 16
-89 10 -75 -12 -73 -14 -56 33 8 23 26 62 40 86 28 48 24 61 -27 88 -29 14
-42 17 -50 10z m-7 -86 c-2 -20 -9 -60 -15 -90 l-12 -55 -52 -3 -51 -3 24 76
c27 86 29 101 12 109 -7 3 12 4 42 3 l55 -2 -3 -35z m-144 -55 c-2 -47 -7 -87
-9 -90 -3 -3 -19 -8 -37 -11 l-31 -6 -3 96 -3 96 44 0 44 0 -5 -85z m-123 -2
c9 -43 18 -84 20 -90 3 -8 -5 -13 -19 -13 -13 0 -37 -3 -53 -6 l-30 -6 -6 69
c-4 37 -8 77 -9 88 -3 18 19 29 69 34 7 1 18 -31 28 -76z"/>
</g>
</svg>
