<?xml version="1.0" standalone="no"?>
<!DOCTYPE svg PUBLIC "-//W3C//DTD SVG 20010904//EN"
 "http://www.w3.org/TR/2001/REC-SVG-20010904/DTD/svg10.dtd">
<svg version="1.0" xmlns="http://www.w3.org/2000/svg"
 width="96.000000pt" height="68.000000pt" viewBox="0 0 96.000000 68.000000"
 preserveAspectRatio="xMidYMid meet">
<metadata>
Created by potrace 1.16, written by Peter Selinger 2001-2019
</metadata>
<g transform="translate(0.000000,68.000000) scale(0.100000,-0.100000)"
fill="#000000" stroke="none">
<path d="M555 590 c-6 -37 -10 -40 -46 -46 -44 -7 -43 -24 1 -24 28 0 29 -2
20 -27 l-10 -28 30 33 c25 27 37 32 77 33 27 1 59 4 73 9 l25 7 -27 11 c-15 6
-43 8 -62 5 -39 -6 -42 -3 -26 28 9 16 7 21 -15 29 -15 6 -28 10 -30 10 -2 0
-6 -18 -10 -40z"/>
<path d="M300 598 c0 -5 5 -19 11 -30 15 -28 -2 -38 -70 -38 -48 0 -52 -2 -40
-16 11 -13 25 -15 76 -10 51 5 63 4 63 -7 0 -8 6 -20 14 -26 12 -10 15 -7 18
21 2 24 9 34 23 36 37 7 42 24 6 20 -30 -3 -36 0 -41 21 -6 24 -60 51 -60 29z"/>
</g>
</svg>
