<?xml version="1.0" standalone="no"?>
<!DOCTYPE svg PUBLIC "-//W3C//DTD SVG 20010904//EN"
 "http://www.w3.org/TR/2001/REC-SVG-20010904/DTD/svg10.dtd">
<svg version="1.0" xmlns="http://www.w3.org/2000/svg"
 width="90.000000pt" height="92.000000pt" viewBox="0 0 90.000000 92.000000"
 preserveAspectRatio="xMidYMid meet">
<metadata>
Created by potrace 1.16, written by Peter Selinger 2001-2019
</metadata>
<g transform="translate(0.000000,92.000000) scale(0.100000,-0.100000)"
fill="#000000" stroke="none">
<path d="M165 763 c9 -21 24 -50 35 -65 11 -15 16 -29 12 -32 -4 -2 -51 -10
-105 -17 -102 -14 -120 -27 -68 -49 25 -10 44 -8 113 9 46 11 110 23 141 27
32 4 60 10 62 14 10 16 -26 32 -63 28 -33 -3 -38 -1 -34 14 12 47 -39 108 -91
108 -16 0 -16 -3 -2 -37z"/>
<path d="M620 730 c-47 -10 -121 -24 -165 -32 -77 -14 -79 -15 -52 -28 l27
-13 0 -239 0 -238 -34 0 c-43 0 -55 -16 -23 -31 18 -8 60 -8 157 0 73 6 174
11 224 11 110 0 129 8 90 39 -32 25 -17 24 -179 6 -71 -8 -145 -15 -162 -15
l-33 0 0 59 0 59 135 17 c74 10 135 21 135 24 0 4 -5 12 -11 18 -8 8 -3 29 16
74 41 98 41 104 6 119 -31 13 -37 12 -126 -13 -27 -8 -71 -17 -97 -20 l-48 -7
0 69 c0 68 1 70 28 75 71 15 162 26 209 26 28 0 54 4 58 9 6 10 -21 41 -35 41
-5 0 -14 2 -22 4 -7 2 -51 -5 -98 -14z m74 -219 c3 -4 1 -36 -5 -69 l-11 -60
-46 -11 c-26 -6 -73 -15 -104 -19 l-58 -9 0 61 c0 34 4 66 8 72 4 7 45 18 92
27 105 18 117 19 124 8z"/>
<path d="M185 542 c-72 -19 -72 -19 -57 -34 9 -9 30 -9 89 1 103 17 111 21 87
38 -22 16 -41 15 -119 -5z"/>
<path d="M178 436 c-100 -23 -40 -47 67 -26 71 14 82 19 64 31 -18 11 -72 9
-131 -5z"/>
<path d="M225 338 c-33 -13 -64 -18 -93 -15 -46 5 -60 -4 -37 -23 7 -6 19 -37
26 -68 15 -73 27 -96 42 -83 7 5 42 15 78 21 63 11 66 13 66 39 0 16 9 48 21
72 l22 44 -21 18 c-26 21 -40 20 -104 -5z m45 -75 c-5 -46 -7 -49 -48 -62 -24
-7 -46 -11 -49 -8 -3 3 -8 26 -10 51 -5 44 -5 45 28 54 19 6 45 11 59 11 25 1
26 -1 20 -46z"/>
</g>
</svg>
