<?xml version="1.0" standalone="no"?>
<!DOCTYPE svg PUBLIC "-//W3C//DTD SVG 20010904//EN"
 "http://www.w3.org/TR/2001/REC-SVG-20010904/DTD/svg10.dtd">
<svg version="1.0" xmlns="http://www.w3.org/2000/svg"
 width="96.000000pt" height="68.000000pt" viewBox="0 0 96.000000 68.000000"
 preserveAspectRatio="xMidYMid meet">
<metadata>
Created by potrace 1.16, written by Peter Selinger 2001-2019
</metadata>
<g transform="translate(0.000000,68.000000) scale(0.100000,-0.100000)"
fill="#000000" stroke="none">
<path d="M600 484 c-47 -7 -105 -16 -130 -19 -37 -6 -42 -9 -28 -19 13 -9 17
-42 23 -177 l7 -166 -38 -8 c-32 -5 -35 -8 -21 -16 11 -7 86 -6 210 0 105 6
201 11 212 11 18 0 18 1 2 17 -15 16 -30 16 -169 5 -83 -6 -156 -8 -161 -5 -5
3 -7 34 -3 72 3 36 6 109 6 162 0 112 -8 104 121 114 41 3 90 8 109 11 33 5
34 7 15 20 -22 16 -39 16 -155 -2z"/>
</g>
</svg>
