<?xml version="1.0" standalone="no"?>
<!DOCTYPE svg PUBLIC "-//W3C//DTD SVG 20010904//EN"
 "http://www.w3.org/TR/2001/REC-SVG-20010904/DTD/svg10.dtd">
<svg version="1.0" xmlns="http://www.w3.org/2000/svg"
 width="96.000000pt" height="68.000000pt" viewBox="0 0 96.000000 68.000000"
 preserveAspectRatio="xMidYMid meet">
<metadata>
Created by potrace 1.16, written by Peter Selinger 2001-2019
</metadata>
<g transform="translate(0.000000,68.000000) scale(0.100000,-0.100000)"
fill="#000000" stroke="none">
<path d="M537 543 c-4 -3 -7 -18 -7 -33 0 -33 -49 -110 -71 -110 -9 0 -42 11
-73 25 -57 25 -98 34 -61 13 11 -6 42 -27 69 -46 l48 -36 -78 -74 c-62 -58
-71 -71 -44 -57 19 10 61 37 93 61 65 50 76 52 102 24 20 -22 98 -70 114 -70
6 0 11 11 11 25 0 21 -13 34 -65 66 -54 34 -63 44 -54 58 5 9 25 41 43 71 l34
54 -21 18 c-22 19 -30 22 -40 11z"/>
<path d="M705 391 c4 -18 4 -67 0 -110 l-7 -77 -166 -13 c-92 -6 -197 -15
-234 -18 l-68 -6 0 86 c0 93 -8 107 -61 107 -17 0 -20 -4 -16 -22 28 -112 29
-122 18 -158 -25 -83 -4 -98 90 -70 47 15 369 60 424 60 3 0 5 -18 5 -40 0
-33 3 -40 20 -40 10 0 23 8 29 18 15 28 52 285 43 294 -5 5 -26 11 -46 15
l-38 6 7 -32z"/>
</g>
</svg>
