<?xml version="1.0" standalone="no"?>
<!DOCTYPE svg PUBLIC "-//W3C//DTD SVG 20010904//EN"
 "http://www.w3.org/TR/2001/REC-SVG-20010904/DTD/svg10.dtd">
<svg version="1.0" xmlns="http://www.w3.org/2000/svg"
 width="96.000000pt" height="68.000000pt" viewBox="0 0 96.000000 68.000000"
 preserveAspectRatio="xMidYMid meet">
<metadata>
Created by potrace 1.16, written by Peter Selinger 2001-2019
</metadata>
<g transform="translate(0.000000,68.000000) scale(0.100000,-0.100000)"
fill="#000000" stroke="none">
<path d="M705 317 c0 -58 -3 -108 -6 -111 -7 -7 -349 -36 -421 -36 l-48 0 0
78 c0 42 -4 82 -8 88 -9 15 -72 29 -72 16 0 -5 7 -26 15 -45 18 -43 20 -116 3
-152 -10 -21 -9 -29 5 -42 15 -16 23 -15 104 5 85 21 309 52 384 52 35 0 36
-1 35 -37 -1 -27 3 -38 16 -41 21 -4 32 31 53 165 8 56 18 108 21 116 6 18
-15 35 -52 43 l-29 6 0 -105z"/>
</g>
</svg>
