<?xml version="1.0" standalone="no"?>
<!DOCTYPE svg PUBLIC "-//W3C//DTD SVG 20010904//EN"
 "http://www.w3.org/TR/2001/REC-SVG-20010904/DTD/svg10.dtd">
<svg version="1.0" xmlns="http://www.w3.org/2000/svg"
 width="96.000000pt" height="68.000000pt" viewBox="0 0 96.000000 68.000000"
 preserveAspectRatio="xMidYMid meet">
<metadata>
Created by potrace 1.16, written by Peter Selinger 2001-2019
</metadata>
<g transform="translate(0.000000,68.000000) scale(0.100000,-0.100000)"
fill="#000000" stroke="none">
<path d="M530 517 c0 -21 -12 -51 -31 -80 -34 -51 -25 -51 -133 -3 -33 14 -61
24 -63 22 -3 -2 28 -25 67 -50 l71 -46 -71 -70 c-40 -39 -68 -70 -63 -70 15 0
105 60 138 90 l30 29 65 -49 c73 -56 100 -63 100 -26 0 18 -12 32 -45 53 -93
57 -91 49 -38 127 l47 69 -23 18 c-35 29 -51 24 -51 -14z"/>
</g>
</svg>
