<?xml version="1.0" standalone="no"?>
<!DOCTYPE svg PUBLIC "-//W3C//DTD SVG 20010904//EN"
 "http://www.w3.org/TR/2001/REC-SVG-20010904/DTD/svg10.dtd">
<svg version="1.0" xmlns="http://www.w3.org/2000/svg"
 width="96.000000pt" height="68.000000pt" viewBox="0 0 96.000000 68.000000"
 preserveAspectRatio="xMidYMid meet">
<metadata>
Created by potrace 1.16, written by Peter Selinger 2001-2019
</metadata>
<g transform="translate(0.000000,68.000000) scale(0.100000,-0.100000)"
fill="#000000" stroke="none">
<path d="M604 463 l1 -38 -47 -3 c-64 -4 -62 -22 2 -22 49 0 50 -1 50 -30 0
-29 -1 -30 -49 -30 -28 0 -53 -5 -57 -11 -5 -9 26 -10 122 -5 71 5 133 10 137
13 21 13 -12 20 -60 14 l-53 -7 0 32 c0 31 1 31 60 38 33 4 60 12 60 18 0 7
-18 9 -54 5 l-55 -5 -3 31 c-2 26 -8 33 -29 35 -25 3 -26 0 -25 -35z"/>
</g>
</svg>
