<?xml version="1.0" standalone="no"?>
<!DOCTYPE svg PUBLIC "-//W3C//DTD SVG 20010904//EN"
 "http://www.w3.org/TR/2001/REC-SVG-20010904/DTD/svg10.dtd">
<svg version="1.0" xmlns="http://www.w3.org/2000/svg"
 width="96.000000pt" height="68.000000pt" viewBox="0 0 96.000000 68.000000"
 preserveAspectRatio="xMidYMid meet">
<metadata>
Created by potrace 1.16, written by Peter Selinger 2001-2019
</metadata>
<g transform="translate(0.000000,68.000000) scale(0.100000,-0.100000)"
fill="#000000" stroke="none">
<path d="M515 470 c21 -23 45 -26 45 -6 0 15 -21 26 -47 26 -14 0 -14 -3 2
-20z"/>
<path d="M636 477 c8 -22 53 -42 65 -30 12 12 -5 28 -43 37 -21 5 -26 3 -22
-7z"/>
<path d="M403 438 c-25 -27 -30 -58 -10 -58 17 0 40 42 35 65 -3 14 -6 14 -25
-7z"/>
<path d="M460 444 c1 -15 23 -40 47 -52 28 -15 138 -15 165 -1 21 11 20 12
-13 30 -43 23 -51 23 -47 2 5 -29 -96 -23 -128 8 -13 12 -24 18 -24 13z"/>
</g>
</svg>
