<?xml version="1.0" standalone="no"?>
<!DOCTYPE svg PUBLIC "-//W3C//DTD SVG 20010904//EN"
 "http://www.w3.org/TR/2001/REC-SVG-20010904/DTD/svg10.dtd">
<svg version="1.0" xmlns="http://www.w3.org/2000/svg"
 width="96.000000pt" height="68.000000pt" viewBox="0 0 96.000000 68.000000"
 preserveAspectRatio="xMidYMid meet">
<metadata>
Created by potrace 1.16, written by Peter Selinger 2001-2019
</metadata>
<g transform="translate(0.000000,68.000000) scale(0.100000,-0.100000)"
fill="#000000" stroke="none">
<path d="M495 588 l0 -53 -53 -3 c-66 -4 -59 -22 9 -22 45 0 49 -2 49 -24 0
-23 -5 -25 -65 -31 -35 -4 -71 -5 -80 -1 -19 7 -19 -1 -1 -20 8 -7 21 -43 29
-80 17 -72 24 -85 36 -65 12 19 75 10 79 -12 7 -35 -17 -47 -92 -48 -89 0
-159 -13 -134 -23 24 -11 81 -11 161 -2 l67 9 0 -91 c0 -84 9 -118 25 -92 4 6
10 50 13 98 l7 87 133 3 c132 3 160 12 105 33 -17 6 -65 8 -128 3 -55 -4 -102
-6 -105 -5 -3 0 -5 13 -5 29 0 26 2 27 54 27 60 0 68 7 106 108 16 42 16 50 4
58 -19 12 -101 11 -133 -1 -24 -9 -26 -7 -26 19 0 27 3 29 55 36 72 9 72 28 0
23 l-55 -3 0 41 c0 40 -12 53 -50 54 -3 0 -6 -24 -5 -52z m153 -155 c-3 -26
-6 -28 -52 -28 -40 0 -50 3 -52 18 -3 21 26 35 74 36 31 1 33 -1 30 -26z
m-150 -15 c-3 -20 -10 -23 -50 -26 -41 -3 -48 -1 -48 16 0 27 8 32 57 32 40 0
44 -2 41 -22z m138 -50 c-3 -13 -6 -27 -6 -31 0 -5 -19 -7 -42 -5 -35 2 -43 7
-43 23 0 15 9 22 35 26 61 11 63 11 56 -13z m-138 -20 c-2 -18 -10 -24 -39
-26 -32 -3 -37 0 -41 22 -5 25 -3 26 39 26 40 0 44 -2 41 -22z"/>
<path d="M225 542 c-16 -8 -44 -15 -61 -14 -32 1 -32 1 -23 -28 7 -19 8 -82 1
-187 -9 -157 -4 -209 21 -201 9 3 13 55 17 191 3 102 8 187 10 189 12 9 63 28
66 25 2 -2 -2 -17 -8 -34 -10 -26 -8 -34 10 -61 29 -40 29 -72 0 -72 l-23 -1
24 -19 c31 -26 60 -25 70 2 7 18 1 31 -25 64 -19 23 -34 45 -34 51 0 5 19 27
41 48 39 36 41 39 23 52 -23 17 -71 15 -109 -5z"/>
</g>
</svg>
