<?xml version="1.0" standalone="no"?>
<!DOCTYPE svg PUBLIC "-//W3C//DTD SVG 20010904//EN"
 "http://www.w3.org/TR/2001/REC-SVG-20010904/DTD/svg10.dtd">
<svg version="1.0" xmlns="http://www.w3.org/2000/svg"
 width="96.000000pt" height="68.000000pt" viewBox="0 0 96.000000 68.000000"
 preserveAspectRatio="xMidYMid meet">
<metadata>
Created by potrace 1.16, written by Peter Selinger 2001-2019
</metadata>
<g transform="translate(0.000000,68.000000) scale(0.100000,-0.100000)"
fill="#000000" stroke="none">
<path d="M459 563 c10 -27 24 -77 31 -111 15 -75 16 -75 -78 -92 -45 -9 -60
-16 -53 -23 8 -8 32 -8 82 1 40 7 73 11 74 10 1 -2 11 -25 23 -53 l22 -50 -43
-37 c-23 -21 -64 -49 -92 -62 -48 -24 -49 -25 -19 -25 18 -1 63 15 103 35 l71
37 53 -55 c70 -73 171 -123 202 -100 12 8 7 142 -5 142 -5 0 -14 -16 -21 -35
-10 -28 -18 -35 -40 -35 -30 0 -107 55 -133 94 -17 26 -17 27 31 70 41 38 46
46 34 60 -21 25 -39 19 -63 -19 -32 -48 -45 -50 -63 -9 -28 68 -29 67 73 89
50 10 92 23 92 27 0 20 -58 20 -124 0 -39 -11 -73 -18 -75 -16 -3 3 -7 47 -9
99 -5 100 -7 104 -69 105 -21 0 -21 0 -4 -47z"/>
<path d="M610 552 c0 -17 61 -63 79 -60 23 5 26 35 4 46 -30 16 -83 25 -83 14z"/>
<path d="M294 514 c-8 -43 -72 -132 -148 -203 -31 -29 -55 -56 -52 -58 8 -8
84 34 125 68 l36 30 3 -54 c2 -29 -3 -83 -11 -120 -11 -54 -11 -72 -1 -97 15
-36 29 -38 45 -8 18 32 27 286 12 307 -9 14 -4 26 33 70 49 59 53 75 25 91
-39 20 -60 12 -67 -26z"/>
</g>
</svg>
