<?xml version="1.0" standalone="no"?>
<!DOCTYPE svg PUBLIC "-//W3C//DTD SVG 20010904//EN"
 "http://www.w3.org/TR/2001/REC-SVG-20010904/DTD/svg10.dtd">
<svg version="1.0" xmlns="http://www.w3.org/2000/svg"
 width="90.000000pt" height="92.000000pt" viewBox="0 0 90.000000 92.000000"
 preserveAspectRatio="xMidYMid meet">
<metadata>
Created by potrace 1.16, written by Peter Selinger 2001-2019
</metadata>
<g transform="translate(0.000000,92.000000) scale(0.100000,-0.100000)"
fill="#000000" stroke="none">
<path d="M245 858 c4 -13 9 -55 12 -94 l5 -71 -32 -7 c-18 -3 -45 -6 -61 -6
-15 0 -30 -4 -34 -9 -10 -17 37 -33 81 -28 l44 5 0 -49 c0 -56 5 -53 -135 -69
-55 -7 -102 -13 -103 -15 -8 -7 50 -37 71 -37 12 0 72 9 132 21 61 11 150 25
199 31 49 5 91 11 93 14 3 2 -6 12 -20 21 -21 13 -35 14 -88 5 -95 -15 -99
-14 -99 18 0 59 8 68 71 81 37 7 59 17 59 25 0 18 -43 28 -87 20 l-36 -7 5 72
c5 65 3 73 -16 86 -11 8 -31 15 -44 15 -21 0 -23 -3 -17 -22z"/>
<path d="M557 843 c10 -36 9 -457 -1 -633 -7 -113 -5 -138 7 -155 13 -16 17
-17 31 -6 14 12 16 46 16 263 l0 249 28 -19 c15 -11 56 -45 91 -76 71 -62 111
-73 111 -32 0 43 -57 90 -147 122 -95 33 -90 18 -70 182 13 100 13 104 -7 118
-11 8 -31 14 -43 14 -21 0 -22 -3 -16 -27z"/>
<path d="M256 432 l7 -60 -67 -7 c-55 -6 -64 -10 -55 -21 7 -9 32 -14 65 -14
l54 0 0 -55 0 -54 -42 -12 c-24 -7 -69 -12 -100 -12 -67 0 -74 -12 -27 -51 37
-32 40 -32 103 -2 28 13 101 41 161 61 122 43 141 53 126 68 -7 7 -34 3 -86
-13 -41 -13 -77 -21 -80 -18 -3 3 -2 27 2 54 l8 49 50 8 c56 9 75 21 58 38
-13 13 -39 14 -82 5 l-34 -8 7 35 c7 38 -3 51 -47 62 l-27 7 6 -60z"/>
</g>
</svg>
