<?xml version="1.0" standalone="no"?>
<!DOCTYPE svg PUBLIC "-//W3C//DTD SVG 20010904//EN"
 "http://www.w3.org/TR/2001/REC-SVG-20010904/DTD/svg10.dtd">
<svg version="1.0" xmlns="http://www.w3.org/2000/svg"
 width="96.000000pt" height="68.000000pt" viewBox="0 0 96.000000 68.000000"
 preserveAspectRatio="xMidYMid meet">
<metadata>
Created by potrace 1.16, written by Peter Selinger 2001-2019
</metadata>
<g transform="translate(0.000000,68.000000) scale(0.100000,-0.100000)"
fill="#000000" stroke="none">
<path d="M306 613 c4 -10 8 -40 9 -68 l0 -50 -45 -3 c-69 -5 -74 -22 -7 -22
l57 0 0 -39 0 -39 -77 -6 c-102 -9 -134 -16 -127 -27 8 -13 91 -11 197 5 50 8
122 17 160 21 37 4 67 10 67 15 0 10 -44 21 -62 16 -7 -2 -34 -7 -60 -10 l-48
-6 0 34 c0 34 1 35 55 46 30 6 55 15 55 20 0 12 -38 19 -77 13 l-36 -6 7 53
c8 59 1 70 -48 70 -23 0 -27 -3 -20 -17z"/>
</g>
</svg>
