<?xml version="1.0" standalone="no"?>
<!DOCTYPE svg PUBLIC "-//W3C//DTD SVG 20010904//EN"
 "http://www.w3.org/TR/2001/REC-SVG-20010904/DTD/svg10.dtd">
<svg version="1.0" xmlns="http://www.w3.org/2000/svg"
 width="96.000000pt" height="68.000000pt" viewBox="0 0 96.000000 68.000000"
 preserveAspectRatio="xMidYMid meet">
<metadata>
Created by potrace 1.16, written by Peter Selinger 2001-2019
</metadata>
<g transform="translate(0.000000,68.000000) scale(0.100000,-0.100000)"
fill="#000000" stroke="none">
<path d="M629 346 c-11 -11 -301 -37 -351 -32 -32 3 -58 4 -58 1 0 -2 9 -19
19 -37 10 -18 22 -51 26 -73 23 -133 33 -154 59 -121 8 10 48 16 142 21 l131
7 13 -31 c14 -36 18 -37 48 -15 32 22 41 45 52 126 5 40 12 83 16 95 5 18 -1
26 -27 42 -32 20 -60 26 -70 17z m19 -76 l3 -35 -43 3 c-24 2 -99 -3 -168 -11
-69 -8 -128 -12 -132 -8 -4 3 -10 18 -13 32 -7 26 -6 27 57 34 132 16 214 23
253 21 38 -1 40 -3 43 -36z m2 -82 c0 -46 -13 -62 -40 -53 -13 4 -81 1 -151
-6 -71 -7 -131 -10 -134 -7 -3 2 -7 18 -11 34 l-6 30 154 16 c84 8 161 16 171
17 13 1 17 -7 17 -31z"/>
</g>
</svg>
