<?xml version="1.0" standalone="no"?>
<!DOCTYPE svg PUBLIC "-//W3C//DTD SVG 20010904//EN"
 "http://www.w3.org/TR/2001/REC-SVG-20010904/DTD/svg10.dtd">
<svg version="1.0" xmlns="http://www.w3.org/2000/svg"
 width="96.000000pt" height="68.000000pt" viewBox="0 0 96.000000 68.000000"
 preserveAspectRatio="xMidYMid meet">
<metadata>
Created by potrace 1.16, written by Peter Selinger 2001-2019
</metadata>
<g transform="translate(0.000000,68.000000) scale(0.100000,-0.100000)"
fill="#000000" stroke="none">
<path d="M290 547 c0 -42 -51 -126 -123 -203 -54 -58 -64 -73 -42 -61 17 8 47
29 68 45 42 34 79 32 85 -5 2 -17 -5 -22 -40 -28 l-43 -9 45 -5 45 -6 3 -56 3
-55 -51 -12 c-28 -7 -67 -12 -86 -12 -40 0 -44 -11 -10 -30 22 -11 39 -8 143
25 131 41 166 61 91 51 l-48 -6 0 54 0 54 40 7 c46 8 44 25 -3 25 -25 0 -33 5
-34 19 -1 14 7 21 33 25 19 4 34 11 34 15 0 18 -31 19 -85 4 -30 -9 -58 -14
-60 -11 -3 3 13 33 36 67 l41 61 36 -30 c42 -35 62 -38 62 -11 0 13 -13 25
-40 37 -25 11 -40 25 -40 36 0 17 -27 38 -49 38 -6 0 -11 -10 -11 -23z"/>
<path d="M367 234 c-19 -39 -17 -40 23 -19 35 18 38 30 12 44 -16 8 -21 4 -35
-25z"/>
<path d="M190 222 c0 -12 34 -42 48 -42 16 0 15 23 0 38 -14 14 -48 16 -48 4z"/>
</g>
</svg>
