<?xml version="1.0" standalone="no"?>
<!DOCTYPE svg PUBLIC "-//W3C//DTD SVG 20010904//EN"
 "http://www.w3.org/TR/2001/REC-SVG-20010904/DTD/svg10.dtd">
<svg version="1.0" xmlns="http://www.w3.org/2000/svg"
 width="96.000000pt" height="68.000000pt" viewBox="0 0 96.000000 68.000000"
 preserveAspectRatio="xMidYMid meet">
<metadata>
Created by potrace 1.16, written by Peter Selinger 2001-2019
</metadata>
<g transform="translate(0.000000,68.000000) scale(0.100000,-0.100000)"
fill="#000000" stroke="none">
<path d="M520 599 c20 -36 6 -47 -69 -55 -39 -3 -71 -11 -71 -17 0 -6 27 -8
75 -4 74 7 75 6 75 -17 0 -21 -6 -24 -52 -30 -37 -5 -48 -10 -38 -16 13 -7 81
-2 210 17 30 4 32 6 16 15 -10 6 -36 7 -57 4 -34 -5 -39 -4 -39 13 0 21 34 31
111 31 49 0 64 12 32 24 -10 4 -46 4 -81 0 -59 -6 -63 -5 -61 12 5 28 -9 44
-37 44 -22 0 -23 -2 -14 -21z"/>
</g>
</svg>
