<?xml version="1.0" standalone="no"?>
<!DOCTYPE svg PUBLIC "-//W3C//DTD SVG 20010904//EN"
 "http://www.w3.org/TR/2001/REC-SVG-20010904/DTD/svg10.dtd">
<svg version="1.0" xmlns="http://www.w3.org/2000/svg"
 width="90.000000pt" height="92.000000pt" viewBox="0 0 90.000000 92.000000"
 preserveAspectRatio="xMidYMid meet">
<metadata>
Created by potrace 1.16, written by Peter Selinger 2001-2019
</metadata>
<g transform="translate(0.000000,92.000000) scale(0.100000,-0.100000)"
fill="#000000" stroke="none">
<path d="M504 845 c4 -14 9 -45 12 -69 7 -50 12 -48 -103 -66 -40 -7 -73 -16
-73 -20 0 -22 74 -23 158 -3 21 5 22 2 22 -55 0 -67 10 -58 -90 -78 -16 -3
-30 -9 -30 -14 0 -15 56 -21 101 -11 87 20 95 17 106 -39 6 -27 9 -50 7 -50
-23 0 -330 -42 -333 -46 -10 -9 24 -24 54 -24 17 1 75 7 130 15 55 8 112 15
128 15 l27 0 0 -94 c0 -51 -3 -108 -6 -126 -7 -32 -7 -32 -56 -27 l-50 6 43
-47 c23 -26 45 -51 49 -55 11 -13 40 4 55 34 11 21 15 65 15 174 l0 145 79 0
c115 0 144 17 77 45 -26 11 -47 12 -92 5 -33 -6 -60 -10 -61 -10 -2 0 -3 18
-3 40 0 36 -3 40 -32 49 -30 8 -28 9 25 10 61 1 71 11 33 36 -19 13 -32 14
-67 6 -24 -6 -48 -11 -53 -11 -9 0 -4 106 6 115 3 3 45 9 93 13 94 7 115 21
65 42 -29 12 -81 10 -139 -6 -24 -7 -24 -7 -18 49 6 63 -4 77 -58 77 -24 0
-26 -3 -21 -25z"/>
<path d="M239 848 c0 -2 -3 -14 -5 -28 -8 -41 -54 -112 -117 -177 -66 -69 -65
-78 4 -35 58 38 95 74 149 146 l44 58 -23 19 c-20 16 -49 25 -52 17z"/>
<path d="M249 648 c0 -2 -2 -13 -5 -26 -12 -66 -80 -162 -183 -259 -36 -35
-61 -63 -55 -63 17 0 106 59 145 97 l36 35 7 -37 c8 -41 1 -125 -16 -197 -10
-41 -9 -53 6 -84 28 -60 39 -30 47 131 4 79 10 148 13 153 3 6 -3 21 -15 36
l-20 26 33 42 c18 24 44 55 57 70 l25 28 -24 25 c-19 21 -48 33 -51 23z"/>
<path d="M400 335 c0 -10 48 -80 63 -94 20 -16 37 -6 37 22 0 32 -11 44 -53
62 -39 16 -47 18 -47 10z"/>
</g>
</svg>
