<?xml version="1.0" standalone="no"?>
<!DOCTYPE svg PUBLIC "-//W3C//DTD SVG 20010904//EN"
 "http://www.w3.org/TR/2001/REC-SVG-20010904/DTD/svg10.dtd">
<svg version="1.0" xmlns="http://www.w3.org/2000/svg"
 width="96.000000pt" height="68.000000pt" viewBox="0 0 96.000000 68.000000"
 preserveAspectRatio="xMidYMid meet">
<metadata>
Created by potrace 1.16, written by Peter Selinger 2001-2019
</metadata>
<g transform="translate(0.000000,68.000000) scale(0.100000,-0.100000)"
fill="#000000" stroke="none">
<path d="M230 530 c0 -17 -5 -41 -11 -52 -8 -16 -8 -24 3 -35 12 -12 18 -12
44 2 16 8 44 18 62 21 17 3 32 10 32 15 0 8 -22 6 -72 -7 -14 -4 -17 3 -20 38
-2 31 -8 44 -20 46 -14 3 -18 -3 -18 -28z"/>
</g>
</svg>
