<?xml version="1.0" standalone="no"?>
<!DOCTYPE svg PUBLIC "-//W3C//DTD SVG 20010904//EN"
 "http://www.w3.org/TR/2001/REC-SVG-20010904/DTD/svg10.dtd">
<svg version="1.0" xmlns="http://www.w3.org/2000/svg"
 width="96.000000pt" height="68.000000pt" viewBox="0 0 96.000000 68.000000"
 preserveAspectRatio="xMidYMid meet">
<metadata>
Created by potrace 1.16, written by Peter Selinger 2001-2019
</metadata>
<g transform="translate(0.000000,68.000000) scale(0.100000,-0.100000)"
fill="#000000" stroke="none">
<path d="M610 485 c-36 -7 -105 -13 -154 -14 -80 -1 -87 -3 -81 -18 12 -27 35
-115 35 -133 0 -8 5 -22 10 -30 8 -13 11 -13 19 -1 7 10 40 14 135 15 l126 1
20 53 c11 29 20 59 20 67 0 8 5 17 10 20 20 12 9 33 -21 44 -36 12 -31 13
-119 -4z m76 -65 c-4 -28 -9 -56 -12 -64 -6 -16 -212 -42 -225 -29 -5 5 -11
34 -15 65 l-7 56 89 7 c49 3 94 8 99 10 6 2 25 4 44 4 l34 1 -7 -50z"/>
</g>
</svg>
