<?xml version="1.0" standalone="no"?>
<!DOCTYPE svg PUBLIC "-//W3C//DTD SVG 20010904//EN"
 "http://www.w3.org/TR/2001/REC-SVG-20010904/DTD/svg10.dtd">
<svg version="1.0" xmlns="http://www.w3.org/2000/svg"
 width="96.000000pt" height="68.000000pt" viewBox="0 0 96.000000 68.000000"
 preserveAspectRatio="xMidYMid meet">
<metadata>
Created by potrace 1.16, written by Peter Selinger 2001-2019
</metadata>
<g transform="translate(0.000000,68.000000) scale(0.100000,-0.100000)"
fill="#000000" stroke="none">
<path d="M347 347 c-43 -9 -48 -13 -43 -32 8 -31 -20 -131 -46 -169 -20 -28
-20 -30 -3 -16 34 25 55 54 65 92 10 34 14 37 58 43 62 9 74 13 67 25 -3 5 1
20 10 33 8 13 12 27 8 30 -9 9 -57 7 -116 -6z m65 -32 c-5 -24 -19 -35 -49
-35 -28 0 -32 34 -5 49 28 17 58 9 54 -14z"/>
</g>
</svg>
