<?xml version="1.0" standalone="no"?>
<!DOCTYPE svg PUBLIC "-//W3C//DTD SVG 20010904//EN"
 "http://www.w3.org/TR/2001/REC-SVG-20010904/DTD/svg10.dtd">
<svg version="1.0" xmlns="http://www.w3.org/2000/svg"
 width="96.000000pt" height="68.000000pt" viewBox="0 0 96.000000 68.000000"
 preserveAspectRatio="xMidYMid meet">
<metadata>
Created by potrace 1.16, written by Peter Selinger 2001-2019
</metadata>
<g transform="translate(0.000000,68.000000) scale(0.100000,-0.100000)"
fill="#000000" stroke="none">
<path d="M557 565 c-32 -38 -79 -65 -114 -65 -20 0 -22 -4 -17 -25 16 -64 -31
-208 -88 -272 -20 -22 -20 -22 1 -16 12 3 32 18 45 34 14 16 27 29 30 29 3 0
6 -30 6 -67 0 -98 32 -136 34 -41 1 42 2 43 36 43 33 0 35 -2 38 -38 4 -49 26
-44 30 6 3 32 7 37 28 37 21 0 24 -4 24 -39 0 -22 4 -42 9 -46 10 -5 15 6 26
62 6 29 10 32 56 38 28 4 53 5 56 2 3 -3 1 -23 -4 -44 -9 -36 -11 -38 -46 -37
l-36 1 26 -33 c51 -68 91 -34 104 88 5 46 11 88 13 95 3 6 -4 19 -14 28 -18
16 -29 17 -107 7 -49 -6 -128 -14 -177 -18 -82 -6 -89 -6 -83 10 4 10 10 28
13 41 5 21 11 23 134 30 124 6 128 7 134 31 4 13 15 28 26 34 26 14 25 24 -4
44 -22 14 -35 14 -128 1 -123 -18 -128 -18 -128 -5 0 5 37 28 81 51 79 39 87
51 44 62 -14 4 -28 -4 -48 -28z m115 -124 c-1 -14 -5 -27 -7 -29 -7 -7 -194
-27 -199 -21 -11 11 8 49 27 55 33 11 119 22 152 20 26 -1 30 -5 27 -25z m86
-186 l3 -30 -56 0 c-45 0 -55 3 -55 17 0 40 11 49 59 46 43 -3 46 -5 49 -33z
m-148 -10 c0 -31 -3 -35 -25 -35 -22 0 -25 4 -25 35 0 31 3 35 25 35 22 0 25
-4 25 -35z m-88 -5 c3 -16 1 -30 -2 -30 -4 0 -22 -3 -39 -6 -29 -6 -31 -5 -31
24 0 21 6 32 18 35 41 11 50 7 54 -23z"/>
<path d="M303 547 c-13 -46 -91 -158 -150 -213 -53 -50 -33 -53 37 -5 l62 41
-5 -93 c-3 -50 -8 -106 -12 -122 -5 -23 -1 -37 13 -55 l19 -24 12 22 c18 34
29 280 14 302 -9 12 -10 21 -3 25 6 3 29 34 52 67 l41 61 -23 19 c-33 27 -45
22 -57 -25z"/>
</g>
</svg>
