<?xml version="1.0" standalone="no"?>
<!DOCTYPE svg PUBLIC "-//W3C//DTD SVG 20010904//EN"
 "http://www.w3.org/TR/2001/REC-SVG-20010904/DTD/svg10.dtd">
<svg version="1.0" xmlns="http://www.w3.org/2000/svg"
 width="90.000000pt" height="92.000000pt" viewBox="0 0 90.000000 92.000000"
 preserveAspectRatio="xMidYMid meet">
<metadata>
Created by potrace 1.16, written by Peter Selinger 2001-2019
</metadata>
<g transform="translate(0.000000,92.000000) scale(0.100000,-0.100000)"
fill="#000000" stroke="none">
<path d="M376 891 c-4 -5 -2 -21 4 -36 5 -14 10 -57 10 -95 l0 -69 -35 -6
c-19 -3 -50 -7 -69 -10 -43 -7 -48 1 -34 53 9 36 8 45 -7 62 -10 11 -27 20
-37 20 -16 0 -18 -4 -12 -22 11 -33 6 -75 -12 -110 -14 -27 -14 -32 1 -55 11
-16 23 -23 33 -19 10 3 47 14 85 25 l67 20 0 -25 c0 -57 -139 -204 -279 -296
-93 -61 -64 -64 51 -6 66 34 104 64 186 145 l103 101 34 -29 c18 -16 69 -66
112 -110 105 -108 115 -113 209 -98 41 6 77 15 79 19 3 4 -30 20 -73 35 -110
40 -157 65 -239 128 -39 30 -80 60 -92 66 -12 7 -18 17 -14 27 3 8 -2 23 -11
33 -16 17 -14 19 36 25 29 4 71 10 92 13 28 4 37 3 32 -5 -4 -6 -2 -22 5 -34
l12 -22 18 23 c11 13 19 31 19 40 0 9 6 40 14 69 13 51 12 54 -8 67 -11 7 -30
15 -41 17 -18 3 -20 -2 -17 -58 l4 -61 -47 -7 c-27 -3 -64 -6 -83 -6 l-35 0 7
89 7 89 -32 11 c-38 13 -36 13 -43 2z"/>
<path d="M390 424 c-19 -7 -45 -13 -57 -13 -32 -1 -38 -20 -10 -30 18 -7 48
-4 102 9 84 21 90 23 80 39 -8 15 -71 12 -115 -5z"/>
<path d="M455 325 c-33 -7 -89 -17 -125 -20 -92 -9 -104 -13 -89 -31 15 -19
53 -17 177 5 l103 19 -6 -22 c-4 -11 -26 -63 -51 -115 -24 -52 -43 -96 -40
-98 10 -10 78 63 135 148 56 80 61 93 48 106 -20 21 -82 24 -152 8z"/>
</g>
</svg>
