<?xml version="1.0" standalone="no"?>
<!DOCTYPE svg PUBLIC "-//W3C//DTD SVG 20010904//EN"
 "http://www.w3.org/TR/2001/REC-SVG-20010904/DTD/svg10.dtd">
<svg version="1.0" xmlns="http://www.w3.org/2000/svg"
 width="90.000000pt" height="92.000000pt" viewBox="0 0 90.000000 92.000000"
 preserveAspectRatio="xMidYMid meet">
<metadata>
Created by potrace 1.16, written by Peter Selinger 2001-2019
</metadata>
<g transform="translate(0.000000,92.000000) scale(0.100000,-0.100000)"
fill="#000000" stroke="none">
<path d="M500 813 c-36 -7 -113 -15 -173 -16 -91 -2 -106 -4 -100 -17 14 -29
15 -225 0 -286 -16 -72 -6 -109 27 -100 129 34 402 65 441 49 16 -5 17 -18 12
-103 -8 -145 -50 -217 -111 -189 -39 18 -40 7 -6 -50 36 -58 54 -63 98 -26 39
33 59 85 72 192 6 48 18 110 26 136 9 27 14 50 12 52 -2 2 -23 12 -46 23 -33
15 -54 17 -104 11 -35 -3 -91 -9 -125 -13 l-63 -6 0 35 c0 19 3 35 8 35 61 4
156 20 165 29 19 19 -42 33 -112 25 -64 -7 -64 -7 -58 17 4 13 7 27 7 30 0 4
31 10 68 14 38 4 75 11 83 16 27 18 -13 30 -83 26 l-68 -4 2 38 c1 27 6 39 16
39 31 0 139 22 153 31 12 8 12 10 -1 19 -20 13 -60 11 -140 -7z m-96 -69 c3
-9 6 -26 6 -39 0 -18 -7 -24 -37 -29 -77 -12 -83 -10 -83 32 0 21 3 42 7 45 3
4 28 7 54 7 33 0 49 -4 53 -16z m6 -136 c0 -32 -4 -34 -77 -42 l-53 -5 0 37 0
37 65 1 65 1 0 -29z m0 -112 l0 -34 -60 -7 c-33 -4 -63 -7 -67 -6 -12 0 -16
29 -9 57 6 22 11 24 71 24 l65 0 0 -34z"/>
<path d="M513 356 c10 -24 48 -71 70 -85 14 -9 22 -9 33 0 35 29 -8 82 -75 95
-30 6 -34 5 -28 -10z"/>
<path d="M120 346 c0 -7 -11 -39 -25 -69 -27 -58 -26 -103 2 -114 34 -13 72
108 52 165 -11 32 -29 44 -29 18z"/>
<path d="M392 309 c27 -49 43 -63 63 -55 16 6 20 43 7 63 -8 13 -55 33 -78 33
-12 0 -11 -8 8 -41z"/>
<path d="M230 330 c0 -20 61 -101 73 -97 7 2 13 18 15 35 2 23 -2 34 -20 45
-34 22 -68 30 -68 17z"/>
</g>
</svg>
