<?xml version="1.0" standalone="no"?>
<!DOCTYPE svg PUBLIC "-//W3C//DTD SVG 20010904//EN"
 "http://www.w3.org/TR/2001/REC-SVG-20010904/DTD/svg10.dtd">
<svg version="1.0" xmlns="http://www.w3.org/2000/svg"
 width="96.000000pt" height="68.000000pt" viewBox="0 0 96.000000 68.000000"
 preserveAspectRatio="xMidYMid meet">
<metadata>
Created by potrace 1.16, written by Peter Selinger 2001-2019
</metadata>
<g transform="translate(0.000000,68.000000) scale(0.100000,-0.100000)"
fill="#000000" stroke="none">
<path d="M324 555 c-16 -14 -56 -39 -89 -55 -44 -23 -52 -29 -29 -25 26 5 35
1 51 -21 13 -18 26 -25 36 -21 22 8 12 33 -16 41 -18 6 -11 12 46 38 47 22 67
36 65 47 -5 25 -32 24 -64 -4z"/>
<path d="M357 465 c-19 -26 -139 -109 -182 -125 -14 -5 -25 -12 -25 -14 0 -14
138 48 227 103 47 29 59 41 51 49 -19 19 -52 13 -71 -13z"/>
<path d="M175 420 c16 -31 45 -41 45 -16 0 14 -36 46 -52 46 -5 0 -2 -13 7
-30z"/>
</g>
</svg>
