<?xml version="1.0" standalone="no"?>
<!DOCTYPE svg PUBLIC "-//W3C//DTD SVG 20010904//EN"
 "http://www.w3.org/TR/2001/REC-SVG-20010904/DTD/svg10.dtd">
<svg version="1.0" xmlns="http://www.w3.org/2000/svg"
 width="96.000000pt" height="68.000000pt" viewBox="0 0 96.000000 68.000000"
 preserveAspectRatio="xMidYMid meet">
<metadata>
Created by potrace 1.16, written by Peter Selinger 2001-2019
</metadata>
<g transform="translate(0.000000,68.000000) scale(0.100000,-0.100000)"
fill="#000000" stroke="none">
<path d="M540 584 c-52 -8 -112 -13 -132 -11 -40 3 -45 -2 -27 -20 6 -6 19
-45 29 -85 15 -62 20 -72 36 -69 11 2 64 5 118 6 l99 2 39 84 c36 78 38 85 22
96 -21 15 -58 15 -184 -3z m125 -15 c4 -5 4 -21 1 -35 -6 -21 -12 -24 -50 -24
-41 0 -44 2 -48 30 -4 25 -1 30 21 33 50 8 70 7 76 -4z m-155 -38 c0 -24 -5
-29 -31 -35 -39 -7 -49 -1 -49 29 0 26 11 33 53 34 23 1 27 -3 27 -28z m140
-47 c0 -32 -19 -50 -55 -52 -34 -3 -36 -1 -33 25 2 22 10 29 33 34 49 11 55
10 55 -7z m-130 -28 c0 -19 -7 -26 -31 -31 -36 -8 -35 -8 -44 28 -7 26 -6 27
34 27 37 0 41 -3 41 -24z"/>
</g>
</svg>
