<?xml version="1.0" standalone="no"?>
<!DOCTYPE svg PUBLIC "-//W3C//DTD SVG 20010904//EN"
 "http://www.w3.org/TR/2001/REC-SVG-20010904/DTD/svg10.dtd">
<svg version="1.0" xmlns="http://www.w3.org/2000/svg"
 width="96.000000pt" height="68.000000pt" viewBox="0 0 96.000000 68.000000"
 preserveAspectRatio="xMidYMid meet">
<metadata>
Created by potrace 1.16, written by Peter Selinger 2001-2019
</metadata>
<g transform="translate(0.000000,68.000000) scale(0.100000,-0.100000)"
fill="#000000" stroke="none">
<path d="M582 560 c-39 -47 -30 -50 40 -14 48 25 51 27 33 40 -28 21 -37 18
-73 -26z"/>
<path d="M440 545 c26 -27 60 -33 60 -10 0 17 -30 35 -61 35 l-22 0 23 -25z"/>
<path d="M513 502 c-62 -8 -113 -19 -113 -24 0 -24 269 5 278 30 5 15 -17 14
-165 -6z"/>
</g>
</svg>
