<?xml version="1.0" standalone="no"?>
<!DOCTYPE svg PUBLIC "-//W3C//DTD SVG 20010904//EN"
 "http://www.w3.org/TR/2001/REC-SVG-20010904/DTD/svg10.dtd">
<svg version="1.0" xmlns="http://www.w3.org/2000/svg"
 width="96.000000pt" height="68.000000pt" viewBox="0 0 96.000000 68.000000"
 preserveAspectRatio="xMidYMid meet">
<metadata>
Created by potrace 1.16, written by Peter Selinger 2001-2019
</metadata>
<g transform="translate(0.000000,68.000000) scale(0.100000,-0.100000)"
fill="#000000" stroke="none">
<path d="M565 525 c-49 -7 -118 -14 -153 -14 l-62 -1 16 -25 c9 -13 21 -46 28
-72 12 -46 14 -48 47 -47 19 1 81 4 139 6 l105 5 37 64 c20 35 37 67 37 70 1
11 -50 29 -77 28 -15 -1 -67 -7 -117 -14z m125 -30 c0 -8 -7 -32 -16 -54 l-15
-39 -102 -8 c-56 -4 -106 -8 -111 -8 -5 -1 -17 22 -26 49 l-17 50 101 11 c152
17 186 17 186 -1z"/>
</g>
</svg>
