<?xml version="1.0" standalone="no"?>
<!DOCTYPE svg PUBLIC "-//W3C//DTD SVG 20010904//EN"
 "http://www.w3.org/TR/2001/REC-SVG-20010904/DTD/svg10.dtd">
<svg version="1.0" xmlns="http://www.w3.org/2000/svg"
 width="90.000000pt" height="92.000000pt" viewBox="0 0 90.000000 92.000000"
 preserveAspectRatio="xMidYMid meet">
<metadata>
Created by potrace 1.16, written by Peter Selinger 2001-2019
</metadata>
<g transform="translate(0.000000,92.000000) scale(0.100000,-0.100000)"
fill="#000000" stroke="none">
<path d="M370 830 c-19 -5 -95 -19 -169 -31 -130 -22 -132 -23 -110 -39 22
-17 22 -20 16 -146 -8 -144 -30 -258 -76 -383 -17 -47 -31 -90 -31 -95 0 -30
74 98 94 164 21 64 31 120 62 318 4 28 7 31 24 22 14 -7 26 -8 39 0 27 14 27
14 42 -22 l13 -33 4 41 c2 33 8 44 25 49 l22 8 -22 4 c-13 2 -23 11 -23 18 0
15 -30 35 -51 35 -11 0 -9 -16 6 -52 6 -15 1 -18 -34 -18 -36 0 -41 3 -41 23
0 54 10 64 68 76 32 6 93 13 137 17 44 3 91 8 105 10 l25 6 -24 19 c-25 20
-45 22 -101 9z"/>
<path d="M639 773 c-1 -5 0 -26 1 -47 1 -21 -1 -70 -5 -107 -7 -74 -5 -71 -80
-84 -38 -6 -39 -8 -20 -22 12 -9 32 -13 51 -10 l32 5 -14 -61 c-21 -91 -51
-187 -74 -232 l-20 -40 5 63 c3 35 9 71 15 82 8 15 5 22 -19 39 -28 20 -32 21
-87 6 -80 -21 -84 -20 -84 16 0 31 0 31 47 27 l47 -3 28 80 c15 44 29 84 31
89 1 5 -10 16 -24 24 -24 14 -34 14 -116 -6 -49 -12 -112 -22 -141 -22 -47 0
-70 -12 -41 -22 6 -2 19 -40 28 -83 12 -57 21 -79 31 -77 70 16 70 16 70 -15
0 -26 -5 -31 -31 -37 -51 -10 -66 -7 -72 14 -4 14 -14 20 -33 20 -22 0 -25 -3
-16 -12 19 -19 14 -37 -13 -44 -31 -8 -28 -28 4 -32 23 -4 23 -6 17 -80 -6
-75 2 -111 21 -99 6 4 13 47 15 97 3 50 8 93 10 95 3 3 26 8 51 11 l47 7 0
-42 0 -41 -40 0 c-45 0 -49 -8 -20 -35 19 -17 21 -17 67 5 86 40 92 41 103 20
16 -29 30 -24 30 9 0 21 -8 36 -29 50 -36 26 -45 26 -32 2 8 -15 7 -20 -5 -25
-34 -13 -44 -6 -44 28 0 39 14 46 94 46 l49 0 -5 -79 c-5 -90 -18 -115 -59
-109 l-27 4 25 -38 c30 -44 36 -46 65 -15 85 92 147 214 183 363 15 66 19 72
46 78 49 9 59 -1 59 -58 0 -68 -27 -228 -45 -273 -15 -35 -16 -36 -59 -30
l-45 6 37 -49 c20 -28 42 -50 49 -50 21 0 63 61 77 113 8 29 20 95 27 147 6
52 18 118 25 147 18 65 19 58 -17 81 -29 18 -35 18 -77 6 -25 -8 -47 -13 -49
-11 -1 2 4 38 12 81 20 103 20 103 -15 121 -33 17 -40 18 -41 8z m-209 -221
c0 -27 -2 -29 -45 -29 -34 0 -45 4 -41 13 3 8 0 17 -7 21 -12 8 26 19 71 22
18 1 22 -4 22 -27z m-136 -19 c9 -23 -6 -35 -40 -31 -21 2 -30 9 -32 26 -3 19
1 22 31 22 23 0 37 -6 41 -17z m126 -47 c0 -33 -13 -46 -46 -46 -29 0 -34 3
-34 24 0 24 6 27 68 35 6 0 12 -5 12 -13z m-122 -30 c1 -19 -4 -25 -26 -29
-15 -3 -28 -5 -28 -4 -1 1 -5 12 -8 24 -6 19 -3 22 26 26 18 2 33 5 33 5 0 1
2 -9 3 -22z"/>
<path d="M370 730 c0 -22 -3 -40 -7 -40 -5 0 -8 -21 -9 -46 l-1 -47 18 24 c10
13 19 30 19 37 0 8 16 12 48 12 26 0 53 4 61 9 22 14 -21 32 -59 25 -29 -6
-31 -5 -25 19 5 19 2 28 -13 36 -30 16 -32 15 -32 -29z"/>
</g>
</svg>
