<?xml version="1.0" standalone="no"?>
<!DOCTYPE svg PUBLIC "-//W3C//DTD SVG 20010904//EN"
 "http://www.w3.org/TR/2001/REC-SVG-20010904/DTD/svg10.dtd">
<svg version="1.0" xmlns="http://www.w3.org/2000/svg"
 width="96.000000pt" height="68.000000pt" viewBox="0 0 96.000000 68.000000"
 preserveAspectRatio="xMidYMid meet">
<metadata>
Created by potrace 1.16, written by Peter Selinger 2001-2019
</metadata>
<g transform="translate(0.000000,68.000000) scale(0.100000,-0.100000)"
fill="#000000" stroke="none">
<path d="M600 608 c0 -47 -9 -55 -64 -63 -45 -7 -48 -9 -31 -21 10 -8 32 -14
47 -14 l28 0 -15 -36 c-8 -20 -15 -41 -15 -47 0 -15 49 33 66 64 12 24 20 27
83 31 39 2 73 7 78 11 13 14 -20 27 -69 27 -47 0 -47 0 -42 29 5 23 2 32 -14
40 -37 20 -52 14 -52 -21z"/>
<path d="M297 613 c-4 -3 2 -21 14 -39 l20 -33 -67 -3 c-41 -2 -69 -8 -71 -15
-5 -15 53 -46 75 -39 67 18 72 17 82 -9 13 -35 40 -33 40 4 0 29 14 41 51 41
10 0 19 5 19 10 0 6 -16 10 -35 10 -30 0 -36 4 -41 28 -4 15 -11 33 -17 40
-10 13 -59 17 -70 5z"/>
<path d="M330 431 c-5 -11 -10 -26 -10 -34 0 -8 -9 -25 -21 -38 -12 -13 -29
-33 -38 -44 -9 -11 -42 -42 -74 -68 -33 -26 -55 -47 -51 -47 4 0 36 16 71 35
35 19 66 35 68 35 9 0 5 -76 -6 -134 -13 -63 -1 -110 25 -100 11 4 15 33 18
122 2 64 0 119 -4 120 -15 7 -8 23 37 78 46 57 48 66 15 84 -15 8 -21 6 -30
-9z"/>
<path d="M622 438 c-5 -5 -5 -24 2 -48 7 -28 7 -43 0 -50 -6 -6 -63 -16 -127
-22 -64 -6 -117 -15 -117 -19 0 -17 53 -21 142 -10 51 6 96 7 101 2 5 -5 7
-51 5 -102 l-3 -94 -42 1 c-24 0 -43 -2 -42 -5 0 -3 18 -21 40 -40 35 -30 43
-33 64 -23 25 11 25 13 25 141 l0 129 69 4 c39 2 73 7 78 11 14 15 -22 27 -80
27 l-58 0 2 38 c2 21 0 43 -4 49 -10 15 -44 22 -55 11z"/>
<path d="M440 242 c0 -16 68 -74 79 -68 17 11 13 44 -6 54 -28 15 -73 23 -73
14z"/>
</g>
</svg>
