<?xml version="1.0" standalone="no"?>
<!DOCTYPE svg PUBLIC "-//W3C//DTD SVG 20010904//EN"
 "http://www.w3.org/TR/2001/REC-SVG-20010904/DTD/svg10.dtd">
<svg version="1.0" xmlns="http://www.w3.org/2000/svg"
 width="96.000000pt" height="68.000000pt" viewBox="0 0 96.000000 68.000000"
 preserveAspectRatio="xMidYMid meet">
<metadata>
Created by potrace 1.16, written by Peter Selinger 2001-2019
</metadata>
<g transform="translate(0.000000,68.000000) scale(0.100000,-0.100000)"
fill="#000000" stroke="none">
<path d="M400 587 c0 -8 18 -21 39 -29 21 -9 47 -29 57 -44 10 -16 24 -33 30
-39 6 -5 36 -44 67 -86 31 -42 64 -79 72 -83 26 -9 175 -7 175 3 0 5 -30 21
-67 35 -66 26 -178 94 -169 103 2 2 -6 14 -18 26 -11 12 -36 39 -54 60 -18 21
-45 45 -60 53 -34 18 -72 18 -72 1z"/>
<path d="M284 483 c-19 -60 -35 -83 -106 -156 -43 -44 -76 -82 -73 -85 3 -3
26 6 52 19 49 24 203 174 203 196 0 14 -39 43 -58 43 -7 0 -15 -8 -18 -17z"/>
<path d="M400 322 c0 -22 -34 -66 -117 -151 -55 -56 -60 -65 -50 -83 14 -23
26 -22 215 17 l134 28 22 -28 c13 -16 30 -29 39 -31 27 -4 21 50 -9 86 -22 26
-90 70 -109 70 -11 0 -4 -17 16 -39 32 -34 19 -47 -58 -54 -37 -3 -89 -9 -115
-13 -35 -5 -48 -3 -48 6 0 7 32 45 70 84 70 73 80 92 58 114 -18 18 -48 15
-48 -6z"/>
</g>
</svg>
