<?xml version="1.0" standalone="no"?>
<!DOCTYPE svg PUBLIC "-//W3C//DTD SVG 20010904//EN"
 "http://www.w3.org/TR/2001/REC-SVG-20010904/DTD/svg10.dtd">
<svg version="1.0" xmlns="http://www.w3.org/2000/svg"
 width="96.000000pt" height="68.000000pt" viewBox="0 0 96.000000 68.000000"
 preserveAspectRatio="xMidYMid meet">
<metadata>
Created by potrace 1.16, written by Peter Selinger 2001-2019
</metadata>
<g transform="translate(0.000000,68.000000) scale(0.100000,-0.100000)"
fill="#000000" stroke="none">
<path d="M600 129 l-35 -6 43 -2 c29 -1 45 -6 49 -17 9 -23 -15 -60 -40 -60
-97 -1 -147 -5 -147 -13 0 -5 28 -6 63 -4 34 3 74 6 90 6 15 0 27 4 27 10 0 5
7 4 15 -3 12 -10 15 -10 15 0 0 7 11 28 26 47 24 32 25 33 4 33 -12 0 -19 4
-16 9 7 10 -40 10 -94 0z"/>
<path d="M410 80 c11 -21 16 -40 13 -44 -3 -3 2 -8 11 -12 25 -10 30 2 12 28
-24 34 -20 43 22 55 37 10 37 10 -20 10 l-57 0 19 -37z"/>
</g>
</svg>
