<?xml version="1.0" standalone="no"?>
<!DOCTYPE svg PUBLIC "-//W3C//DTD SVG 20010904//EN"
 "http://www.w3.org/TR/2001/REC-SVG-20010904/DTD/svg10.dtd">
<svg version="1.0" xmlns="http://www.w3.org/2000/svg"
 width="96.000000pt" height="68.000000pt" viewBox="0 0 96.000000 68.000000"
 preserveAspectRatio="xMidYMid meet">
<metadata>
Created by potrace 1.16, written by Peter Selinger 2001-2019
</metadata>
<g transform="translate(0.000000,68.000000) scale(0.100000,-0.100000)"
fill="#000000" stroke="none">
<path d="M645 384 l-30 -14 36 4 c38 4 69 -7 51 -18 -6 -3 -12 -1 -14 6 -2 6
-10 8 -17 4 -9 -6 -9 -11 0 -22 7 -8 7 -14 1 -14 -16 0 -22 -28 -7 -34 10 -3
12 0 8 12 -3 9 -3 14 2 10 4 -4 17 7 30 25 l22 32 -21 12 c-26 15 -25 15 -61
-3z"/>
<path d="M550 361 c0 -4 11 -6 25 -3 14 2 25 6 25 8 0 2 -11 4 -25 4 -14 0
-25 -4 -25 -9z"/>
<path d="M589 289 c-10 -6 -4 -9 19 -9 17 0 32 2 32 4 0 9 -39 13 -51 5z"/>
<path d="M536 279 c4 -7 8 -29 9 -50 2 -32 0 -37 -11 -28 -11 9 -14 8 -14 -5
0 -17 25 -22 34 -7 3 5 16 7 29 4 13 -4 19 -2 14 3 -5 5 -14 9 -20 9 -7 0 -12
15 -12 35 1 33 -9 49 -28 50 -5 0 -5 -5 -1 -11z"/>
<path d="M685 223 c-11 -3 -24 -9 -30 -15 -7 -6 -1 -7 16 -3 16 4 30 2 34 -4
11 -19 14 -141 3 -141 -5 0 -6 6 -2 13 5 9 4 9 -6 0 -11 -10 -11 -15 0 -28 7
-9 8 -15 2 -15 -6 0 -12 5 -14 11 -2 6 -17 9 -33 7 l-30 -3 34 -19 35 -19 23
27 c21 25 29 54 25 99 -1 10 5 31 13 47 14 28 14 28 -17 39 -17 6 -31 10 -32
10 -1 -1 -10 -3 -21 -6z"/>
</g>
</svg>
