<?xml version="1.0" standalone="no"?>
<!DOCTYPE svg PUBLIC "-//W3C//DTD SVG 20010904//EN"
 "http://www.w3.org/TR/2001/REC-SVG-20010904/DTD/svg10.dtd">
<svg version="1.0" xmlns="http://www.w3.org/2000/svg"
 width="96.000000pt" height="68.000000pt" viewBox="0 0 96.000000 68.000000"
 preserveAspectRatio="xMidYMid meet">
<metadata>
Created by potrace 1.16, written by Peter Selinger 2001-2019
</metadata>
<g transform="translate(0.000000,68.000000) scale(0.100000,-0.100000)"
fill="#000000" stroke="none">
<path d="M410 622 c0 -6 11 -24 25 -40 14 -17 25 -33 25 -36 0 -3 -43 -6 -95
-6 -57 0 -95 4 -95 10 0 27 -29 4 -52 -42 -22 -43 -25 -55 -14 -66 17 -17 38
-8 57 27 14 24 24 29 70 34 30 2 55 4 57 2 8 -7 -51 -64 -73 -69 -14 -4 -25
-11 -25 -16 0 -16 100 27 124 52 11 12 21 26 21 29 0 12 8 16 48 23 l37 7 0
-39 c0 -32 5 -41 25 -50 31 -14 134 -16 155 -2 22 13 -5 21 -82 23 l-63 2 3
30 c4 38 16 45 76 45 l48 0 -17 -26 c-21 -33 -16 -38 31 -26 22 6 51 13 66 16
35 8 28 28 -17 55 -34 20 -66 19 -202 -4 -28 -5 -33 -3 -33 14 0 11 -10 27
-22 35 -31 20 -78 31 -78 18z"/>
<path d="M325 377 c-18 -27 -26 -31 -53 -29 -30 3 -32 1 -28 -20 3 -13 7 -52
8 -88 l3 -65 -45 -5 c-44 -5 -45 -5 -22 -21 21 -15 27 -15 80 3 61 20 132 34
132 25 0 -10 -132 -90 -187 -113 -50 -20 -54 -24 -28 -24 32 0 123 39 193 84
l42 26 0 -45 c0 -43 -1 -45 -30 -45 l-29 0 25 -25 c48 -48 73 -21 74 77 0 45
5 71 15 82 19 19 19 32 -1 40 -14 5 -16 16 -11 66 7 68 -3 77 -63 60 -53 -15
-69 -12 -37 8 30 19 31 36 1 39 -12 2 -26 -9 -39 -30z m98 -52 c7 -16 -46 -35
-96 -35 -22 0 -28 4 -25 18 2 11 16 19 43 23 66 10 73 10 78 -6z m5 -57 c-5
-14 -43 -25 -95 -27 -25 -1 -33 3 -33 17 0 15 11 18 66 20 51 3 65 0 62 -10z
m2 -48 c0 -5 -12 -12 -27 -16 -16 -3 -43 -10 -62 -15 -37 -9 -51 -5 -51 16 0
14 27 21 98 24 23 0 42 -3 42 -9z"/>
<path d="M630 391 c-8 -5 -39 -12 -69 -16 -44 -6 -51 -9 -36 -18 12 -7 33 -6
67 2 66 15 68 15 68 -12 0 -30 -18 -47 -51 -47 -14 0 -40 -3 -57 -6 -27 -6
-29 -8 -19 -25 10 -16 9 -25 -5 -49 -14 -25 -14 -31 -2 -40 10 -9 25 -8 61 4
25 9 64 16 85 16 l38 0 0 -45 c0 -49 -15 -91 -36 -99 -8 -3 -26 -1 -40 4 -40
16 -41 12 -5 -20 63 -55 103 -34 120 65 6 33 14 72 17 87 6 24 3 27 -29 33
-19 4 -52 2 -73 -4 -37 -10 -104 -15 -104 -7 0 1 5 17 11 35 9 27 16 31 47 33
21 0 43 2 50 2 18 2 62 83 56 101 -7 17 -69 20 -94 6z"/>
</g>
</svg>
