<?xml version="1.0" standalone="no"?>
<!DOCTYPE svg PUBLIC "-//W3C//DTD SVG 20010904//EN"
 "http://www.w3.org/TR/2001/REC-SVG-20010904/DTD/svg10.dtd">
<svg version="1.0" xmlns="http://www.w3.org/2000/svg"
 width="96.000000pt" height="68.000000pt" viewBox="0 0 96.000000 68.000000"
 preserveAspectRatio="xMidYMid meet">
<metadata>
Created by potrace 1.16, written by Peter Selinger 2001-2019
</metadata>
<g transform="translate(0.000000,68.000000) scale(0.100000,-0.100000)"
fill="#000000" stroke="none">
<path d="M557 623 c-4 -3 -7 -14 -7 -24 0 -20 -19 -29 -63 -30 -31 0 -31 -1
-8 -10 13 -5 32 -7 42 -4 14 5 19 1 19 -14 0 -27 16 -27 30 -1 9 17 21 20 70
20 32 0 61 4 64 9 9 13 -46 23 -79 15 -23 -6 -27 -4 -22 8 9 25 -27 50 -46 31z"/>
<path d="M322 590 c18 -28 -2 -40 -67 -40 -46 0 -48 -1 -32 -17 15 -15 22 -15
68 -4 46 12 53 12 61 -3 12 -22 28 -20 28 3 0 12 12 22 33 29 l32 12 -37 -6
c-35 -5 -38 -3 -38 21 0 21 -5 25 -30 25 -28 0 -29 -2 -18 -20z"/>
</g>
</svg>
