<?xml version="1.0" standalone="no"?>
<!DOCTYPE svg PUBLIC "-//W3C//DTD SVG 20010904//EN"
 "http://www.w3.org/TR/2001/REC-SVG-20010904/DTD/svg10.dtd">
<svg version="1.0" xmlns="http://www.w3.org/2000/svg"
 width="96.000000pt" height="68.000000pt" viewBox="0 0 96.000000 68.000000"
 preserveAspectRatio="xMidYMid meet">
<metadata>
Created by potrace 1.16, written by Peter Selinger 2001-2019
</metadata>
<g transform="translate(0.000000,68.000000) scale(0.100000,-0.100000)"
fill="#000000" stroke="none">
<path d="M735 408 c-27 -5 -107 -9 -177 -11 l-126 -2 -13 -37 c-21 -64 9 -96
32 -34 12 34 13 34 103 45 154 20 216 24 216 15 0 -5 -8 -20 -17 -34 -15 -21
-15 -23 -1 -17 9 3 33 9 52 13 45 8 53 20 31 44 -22 24 -41 28 -100 18z"/>
</g>
</svg>
