<?xml version="1.0" standalone="no"?>
<!DOCTYPE svg PUBLIC "-//W3C//DTD SVG 20010904//EN"
 "http://www.w3.org/TR/2001/REC-SVG-20010904/DTD/svg10.dtd">
<svg version="1.0" xmlns="http://www.w3.org/2000/svg"
 width="96.000000pt" height="68.000000pt" viewBox="0 0 96.000000 68.000000"
 preserveAspectRatio="xMidYMid meet">
<metadata>
Created by potrace 1.16, written by Peter Selinger 2001-2019
</metadata>
<g transform="translate(0.000000,68.000000) scale(0.100000,-0.100000)"
fill="#000000" stroke="none">
<path d="M276 563 c-3 -4 -6 -18 -6 -32 0 -40 -67 -147 -140 -223 -83 -86 -54
-93 48 -11 48 39 85 41 90 6 3 -18 -3 -23 -35 -28 -55 -9 -65 -14 -58 -25 3
-5 26 -10 51 -10 l44 0 0 -59 0 -58 -46 -7 c-26 -3 -60 -6 -75 -6 -16 0 -29
-4 -29 -10 0 -18 49 -42 77 -37 54 9 228 76 232 88 4 12 -14 11 -83 -7 l-27
-6 3 58 c3 58 3 59 36 64 43 7 46 24 5 28 -28 3 -33 7 -33 28 0 14 6 26 13 28
53 16 53 17 33 28 -18 10 -65 7 -114 -8 -20 -6 -19 0 19 56 l41 62 32 -31 c32
-31 60 -39 71 -21 13 21 -7 47 -45 60 -26 9 -40 19 -40 30 0 25 -49 58 -64 43z"/>
<path d="M578 480 l4 -90 -49 -1 c-26 0 -56 -2 -65 -4 -10 -2 -18 1 -18 6 0 5
-4 9 -10 9 -9 0 -30 -61 -30 -87 0 -25 32 -13 43 16 10 27 15 29 96 40 189 23
221 25 221 9 0 -8 -5 -19 -12 -26 -19 -19 -5 -22 42 -8 51 15 56 31 20 57 -21
15 -34 16 -75 9 -27 -5 -67 -9 -89 -9 l-38 -1 3 83 c4 81 4 82 -21 85 l-25 3
3 -91z"/>
<path d="M708 477 c-15 -23 -25 -43 -23 -45 2 -2 27 9 56 24 l53 26 -23 19
c-13 11 -26 19 -30 19 -3 -1 -18 -20 -33 -43z"/>
<path d="M460 472 c0 -16 48 -54 59 -47 19 11 12 35 -15 45 -31 12 -44 13 -44
2z"/>
<path d="M608 325 c-3 -3 -31 -7 -61 -8 -31 -2 -59 -6 -63 -10 -4 -4 -3 -7 3
-7 6 0 16 -20 22 -45 10 -41 14 -45 35 -39 18 4 25 1 30 -18 9 -37 8 -38 -33
-38 -22 0 -43 -4 -46 -10 -4 -6 11 -10 39 -10 45 0 57 -10 49 -41 -5 -18 -60
-29 -139 -29 -24 0 -44 -4 -44 -9 0 -16 52 -21 115 -12 33 5 118 9 190 10 71
1 131 4 134 7 14 13 -22 19 -115 17 -111 -3 -118 1 -94 48 8 14 21 19 50 19
21 0 42 5 45 10 4 6 -13 10 -44 10 -44 0 -51 3 -51 20 0 11 -4 20 -10 20 -5 0
-10 5 -10 10 0 6 18 10 40 10 31 0 40 4 40 17 0 9 7 24 16 34 28 31 11 49 -44
49 -27 0 -51 -2 -54 -5z m50 -39 c5 -23 -10 -32 -66 -41 -47 -7 -62 2 -62 37
0 12 11 18 38 21 65 7 87 3 90 -17z"/>
<path d="M355 193 c-8 -20 -14 -38 -12 -39 2 -2 20 8 40 21 38 26 41 55 6 55
-12 0 -24 -13 -34 -37z"/>
<path d="M170 203 c0 -19 41 -73 55 -73 23 0 18 47 -7 64 -24 17 -48 21 -48 9z"/>
</g>
</svg>
