<?xml version="1.0" standalone="no"?>
<!DOCTYPE svg PUBLIC "-//W3C//DTD SVG 20010904//EN"
 "http://www.w3.org/TR/2001/REC-SVG-20010904/DTD/svg10.dtd">
<svg version="1.0" xmlns="http://www.w3.org/2000/svg"
 width="96.000000pt" height="68.000000pt" viewBox="0 0 96.000000 68.000000"
 preserveAspectRatio="xMidYMid meet">
<metadata>
Created by potrace 1.16, written by Peter Selinger 2001-2019
</metadata>
<g transform="translate(0.000000,68.000000) scale(0.100000,-0.100000)"
fill="#000000" stroke="none">
<path d="M310 270 c-14 -4 -46 -8 -73 -9 -47 -1 -47 -1 -33 -23 8 -13 20 -42
27 -65 12 -43 22 -52 34 -33 3 6 32 10 63 10 l57 0 1 35 c0 19 8 43 17 53 32
35 -24 54 -93 32z m40 -41 c0 -39 -19 -59 -55 -59 -29 0 -34 4 -40 31 -8 37
-5 40 42 49 46 8 53 5 53 -21z"/>
</g>
</svg>
