<?xml version="1.0" standalone="no"?>
<!DOCTYPE svg PUBLIC "-//W3C//DTD SVG 20010904//EN"
 "http://www.w3.org/TR/2001/REC-SVG-20010904/DTD/svg10.dtd">
<svg version="1.0" xmlns="http://www.w3.org/2000/svg"
 width="96.000000pt" height="68.000000pt" viewBox="0 0 96.000000 68.000000"
 preserveAspectRatio="xMidYMid meet">
<metadata>
Created by potrace 1.16, written by Peter Selinger 2001-2019
</metadata>
<g transform="translate(0.000000,68.000000) scale(0.100000,-0.100000)"
fill="#000000" stroke="none">
<path d="M245 454 c-27 -8 -65 -12 -82 -9 -32 6 -41 -2 -24 -20 4 -6 14 -32
20 -60 14 -54 30 -82 40 -66 4 5 34 11 67 12 57 2 62 4 62 25 0 12 10 43 22
69 12 25 20 48 17 51 -12 12 -76 11 -122 -2z m47 -59 c-4 -45 -23 -65 -63 -65
-23 0 -28 6 -37 42 -6 23 -9 44 -7 46 7 8 70 20 90 19 17 -2 20 -8 17 -42z"/>
</g>
</svg>
