<?xml version="1.0" standalone="no"?>
<!DOCTYPE svg PUBLIC "-//W3C//DTD SVG 20010904//EN"
 "http://www.w3.org/TR/2001/REC-SVG-20010904/DTD/svg10.dtd">
<svg version="1.0" xmlns="http://www.w3.org/2000/svg"
 width="90.000000pt" height="92.000000pt" viewBox="0 0 90.000000 92.000000"
 preserveAspectRatio="xMidYMid meet">
<metadata>
Created by potrace 1.16, written by Peter Selinger 2001-2019
</metadata>
<g transform="translate(0.000000,92.000000) scale(0.100000,-0.100000)"
fill="#000000" stroke="none">
<path d="M348 757 l4 -103 -123 -12 c-67 -7 -125 -15 -128 -18 -17 -17 35 -25
137 -20 l112 4 0 -118 0 -118 -70 -13 c-39 -7 -72 -10 -75 -7 -3 2 5 33 17 68
l21 63 -28 24 c-28 25 -53 26 -46 2 10 -37 1 -102 -18 -135 -25 -42 -27 -71
-5 -96 16 -17 18 -17 49 2 31 19 117 50 140 50 6 0 16 -30 22 -67 19 -106 60
-148 166 -164 81 -13 198 0 254 28 43 21 44 29 23 146 -13 68 -30 90 -30 40
-1 -40 -34 -109 -63 -128 -34 -22 -150 -29 -211 -13 -62 16 -85 47 -93 120
l-6 56 65 11 c88 15 88 15 88 -18 0 -33 16 -49 33 -32 6 6 18 59 28 118 18
108 18 108 -3 126 -20 17 -49 22 -60 11 -3 -3 -1 -17 5 -33 5 -15 7 -47 3 -73
-8 -51 -5 -50 -108 -64 l-48 -6 0 39 c0 22 3 74 6 115 l7 75 93 12 c156 21
197 39 137 62 -19 7 -47 6 -101 -6 -41 -8 -88 -15 -104 -15 -27 0 -29 2 -24
28 3 15 8 50 11 78 6 46 4 53 -16 68 -13 9 -33 16 -44 16 -20 0 -20 -5 -17
-103z"/>
</g>
</svg>
