<?xml version="1.0" standalone="no"?>
<!DOCTYPE svg PUBLIC "-//W3C//DTD SVG 20010904//EN"
 "http://www.w3.org/TR/2001/REC-SVG-20010904/DTD/svg10.dtd">
<svg version="1.0" xmlns="http://www.w3.org/2000/svg"
 width="90.000000pt" height="92.000000pt" viewBox="0 0 90.000000 92.000000"
 preserveAspectRatio="xMidYMid meet">
<metadata>
Created by potrace 1.16, written by Peter Selinger 2001-2019
</metadata>
<g transform="translate(0.000000,92.000000) scale(0.100000,-0.100000)"
fill="#000000" stroke="none">
<path d="M301 818 c-18 -12 -61 -32 -95 -45 l-61 -23 60 2 c58 3 60 2 63 -23
3 -26 2 -26 -95 -38 -129 -16 -145 -20 -137 -32 13 -22 51 -27 110 -13 98 23
104 20 59 -27 -22 -23 -67 -59 -99 -80 -33 -22 -53 -39 -45 -39 30 0 120 50
164 91 l47 43 -6 -44 c-4 -25 -2 -51 3 -59 16 -24 31 -1 31 50 0 27 3 49 6 49
3 0 26 -18 51 -40 53 -47 83 -52 83 -15 0 29 -36 51 -99 61 -25 4 -41 12 -41
21 0 17 9 20 93 28 60 6 66 9 55 22 -10 12 -26 14 -78 9 l-66 -6 4 35 c4 30 8
35 38 41 39 7 42 14 16 37 -23 21 -20 21 -61 -5z"/>
<path d="M555 763 c18 -42 24 -107 25 -245 l0 -146 -40 -7 c-21 -4 -44 -4 -50
0 -20 12 -29 -5 -15 -32 7 -14 17 -60 21 -102 3 -42 11 -87 16 -101 8 -22 11
-23 21 -9 9 12 43 19 127 28 117 12 133 17 112 30 -9 5 -7 24 9 77 28 94 28
104 -1 125 -23 17 -31 18 -87 7 -35 -6 -65 -9 -68 -6 -7 7 6 157 14 155 10 -2
118 13 135 19 13 5 14 9 5 20 -15 18 -42 18 -101 -1 l-48 -14 0 47 c0 26 5 67
11 92 9 41 8 46 -12 62 -11 10 -35 18 -51 18 -25 0 -29 -3 -23 -17z m171 -470
c-12 -102 -9 -99 -116 -109 l-68 -7 -7 73 c-4 39 -3 76 1 80 11 10 57 16 138
18 l58 2 -6 -57z"/>
<path d="M220 479 c-26 -43 -107 -118 -177 -164 -73 -47 -47 -57 38 -14 19 10
70 49 111 88 42 39 82 71 89 71 8 0 39 -16 69 -35 65 -42 90 -45 90 -10 0 29
-18 40 -88 53 -36 6 -58 17 -68 31 -22 30 -36 26 -64 -20z"/>
<path d="M258 267 l5 -150 -37 6 -37 6 31 -39 c40 -51 44 -53 63 -32 13 15 16
46 17 172 1 85 1 160 1 166 -1 7 -11 14 -24 16 l-23 4 4 -149z"/>
<path d="M338 320 c-32 -45 -25 -49 35 -19 53 27 52 26 37 44 -20 25 -43 17
-72 -25z"/>
<path d="M140 322 c0 -15 46 -52 63 -52 28 0 21 39 -9 50 -31 12 -54 13 -54 2z"/>
<path d="M320 243 c0 -5 20 -29 45 -53 38 -37 47 -42 55 -30 6 8 9 22 7 29 -4
24 -107 75 -107 54z"/>
<path d="M165 219 c-27 -10 -62 -18 -77 -19 -34 0 -35 -10 -3 -40 l24 -23 56
38 c95 66 95 79 0 44z"/>
</g>
</svg>
