<?xml version="1.0" standalone="no"?>
<!DOCTYPE svg PUBLIC "-//W3C//DTD SVG 20010904//EN"
 "http://www.w3.org/TR/2001/REC-SVG-20010904/DTD/svg10.dtd">
<svg version="1.0" xmlns="http://www.w3.org/2000/svg"
 width="90.000000pt" height="92.000000pt" viewBox="0 0 90.000000 92.000000"
 preserveAspectRatio="xMidYMid meet">
<metadata>
Created by potrace 1.16, written by Peter Selinger 2001-2019
</metadata>
<g transform="translate(0.000000,92.000000) scale(0.100000,-0.100000)"
fill="#000000" stroke="none">
<path d="M506 828 c3 -25 0 -60 -8 -83 -13 -40 -13 -40 -81 -50 -55 -8 -66
-12 -56 -22 7 -7 35 -13 61 -13 26 0 48 -3 48 -7 0 -10 -60 -114 -82 -143 -11
-14 -37 -44 -60 -67 -45 -49 -36 -55 23 -16 48 32 106 102 145 177 17 34 35
55 43 54 8 -2 56 -50 106 -108 50 -58 100 -107 110 -109 24 -4 125 18 125 28
0 4 -21 15 -47 24 -27 10 -69 30 -95 45 -50 29 -158 119 -158 132 0 4 19 10
43 13 24 3 56 11 71 17 23 9 26 13 16 25 -15 18 -45 19 -106 4 -25 -6 -47 -10
-49 -7 -3 2 4 28 15 56 l20 52 -32 20 c-50 30 -58 27 -52 -22z"/>
<path d="M174 818 c3 -18 9 -71 12 -117 8 -97 8 -97 -79 -107 -31 -4 -60 -10
-63 -15 -11 -18 39 -31 93 -24 l54 7 -3 -67 -3 -67 -92 -51 c-94 -53 -107 -69
-76 -93 29 -22 43 -17 99 36 29 28 57 50 62 50 9 0 6 -120 -4 -168 -4 -21 -8
-23 -52 -16 l-47 6 60 -61 c33 -34 61 -61 63 -61 1 0 11 19 21 41 17 36 18 59
14 172 l-6 130 49 43 c56 48 54 69 -3 30 l-38 -26 -3 41 c-5 58 1 67 53 80 25
6 45 15 45 20 0 15 -41 31 -66 26 -23 -4 -24 -1 -24 42 1 25 7 64 15 86 8 22
15 43 15 48 0 11 -63 47 -84 47 -15 0 -17 -5 -12 -32z"/>
<path d="M530 494 c-25 -7 -58 -13 -74 -13 -46 -1 -13 -31 35 -31 48 0 139 19
139 29 0 7 -47 33 -53 30 -1 -1 -22 -7 -47 -15z"/>
<path d="M535 382 c-197 -29 -196 -29 -170 -48 15 -12 35 -14 83 -9 l63 7 -2
-124 c-1 -119 4 -158 21 -158 19 0 25 31 30 152 3 70 8 130 12 133 3 4 46 10
95 13 66 5 88 10 88 21 0 8 -13 20 -30 26 -24 9 -62 6 -190 -13z"/>
<path d="M380 267 c0 -15 -36 -88 -64 -130 -18 -27 -18 -27 1 -20 33 14 59 37
92 83 l32 45 -21 17 c-26 21 -40 23 -40 5z"/>
<path d="M658 228 c87 -121 122 -143 122 -77 0 45 -15 66 -73 99 -80 46 -94
40 -49 -22z"/>
</g>
</svg>
