<?xml version="1.0" standalone="no"?>
<!DOCTYPE svg PUBLIC "-//W3C//DTD SVG 20010904//EN"
 "http://www.w3.org/TR/2001/REC-SVG-20010904/DTD/svg10.dtd">
<svg version="1.0" xmlns="http://www.w3.org/2000/svg"
 width="90.000000pt" height="92.000000pt" viewBox="0 0 90.000000 92.000000"
 preserveAspectRatio="xMidYMid meet">
<metadata>
Created by potrace 1.16, written by Peter Selinger 2001-2019
</metadata>
<g transform="translate(0.000000,92.000000) scale(0.100000,-0.100000)"
fill="#000000" stroke="none">
<path d="M500 835 c0 -29 -40 -128 -74 -187 -20 -32 -31 -58 -27 -58 5 0 33
26 62 58 l52 57 83 12 c100 15 131 28 113 49 -16 19 -45 18 -114 -6 -32 -11
-60 -20 -62 -20 -2 0 3 13 12 30 20 39 19 57 -4 70 -27 14 -41 13 -41 -5z"/>
<path d="M205 813 c-10 -49 -54 -126 -99 -175 -24 -27 -40 -48 -35 -48 15 0
61 31 99 66 23 21 50 34 78 39 44 7 44 7 30 -16 -7 -13 -28 -45 -47 -71 -36
-50 -53 -56 -143 -50 -33 2 -32 4 -14 -39 7 -19 17 -61 21 -93 10 -82 21 -111
39 -97 7 6 50 16 95 23 70 9 84 9 91 -3 15 -23 30 2 51 87 12 43 25 87 31 98
9 16 6 24 -17 44 -29 24 -41 25 -115 7 -19 -5 -7 11 51 68 42 41 74 80 70 85
-14 23 -55 30 -83 16 -16 -8 -40 -19 -54 -24 l-26 -10 22 35 c23 38 19 54 -21
76 -15 8 -19 5 -24 -18z m135 -288 c0 -35 0 -35 -44 -35 -43 0 -45 1 -43 28 1
20 9 29 27 33 54 14 60 11 60 -26z m-130 -14 c0 -30 -14 -41 -56 -41 -20 0
-24 5 -24 29 0 30 3 32 68 40 7 0 12 -11 12 -28z m118 -83 c-3 -29 -6 -32 -40
-35 -36 -2 -38 0 -38 27 0 31 10 38 53 39 26 1 28 -2 25 -31z m-118 -17 c0
-25 -5 -31 -31 -36 -36 -8 -34 -9 -42 33 -6 32 -6 32 33 32 38 0 40 -2 40 -29z"/>
<path d="M570 654 c-30 -8 -64 -12 -76 -9 -19 4 -20 1 -16 -88 5 -100 14 -129
37 -121 19 8 19 -7 1 -51 -17 -41 -20 -41 -53 -15 -26 20 -53 27 -53 13 0 -5
16 -21 36 -38 l35 -30 -36 -43 c-41 -47 -29 -55 23 -15 l35 26 29 -32 28 -32
-30 -25 c-16 -14 -60 -41 -98 -60 l-67 -35 45 6 c42 6 125 40 160 66 12 9 25
1 66 -40 48 -48 54 -51 102 -51 63 0 157 19 145 30 -4 4 -46 19 -93 34 -47 15
-104 38 -127 52 l-42 25 31 52 c17 28 41 62 52 75 17 20 18 24 6 33 -28 17
-60 21 -91 10 -45 -15 -51 -14 -39 10 9 15 8 24 -2 36 -11 14 -6 15 50 11 78
-5 80 -2 83 112 3 114 -14 126 -141 94z m78 -26 c7 -7 12 -22 12 -34 0 -17 -6
-21 -27 -20 -16 0 -47 -3 -70 -8 -43 -8 -43 -8 -43 22 0 27 3 30 53 39 28 6
54 11 58 12 3 0 10 -4 17 -11z m12 -111 c0 -33 0 -33 -48 -34 -27 0 -59 -4
-70 -7 -19 -6 -22 -4 -22 22 0 29 2 30 68 39 37 6 68 11 70 12 1 0 2 -14 2
-32z m-20 -175 c0 -9 -12 -35 -26 -56 l-26 -38 -34 33 c-25 24 -31 36 -23 45
9 11 59 27 102 33 4 1 7 -7 7 -17z"/>
<path d="M322 253 c35 -82 58 -93 58 -28 0 26 -7 38 -29 54 -45 32 -52 25 -29
-26z"/>
<path d="M220 280 c0 -23 41 -90 55 -90 26 0 18 56 -11 79 -29 23 -44 27 -44
11z"/>
<path d="M42 232 c-39 -79 -15 -150 28 -80 20 33 26 81 14 112 -10 25 -17 19
-42 -32z"/>
<path d="M136 258 c13 -44 35 -79 47 -75 23 7 19 46 -7 72 -32 32 -50 33 -40
3z"/>
</g>
</svg>
