<?xml version="1.0" standalone="no"?>
<!DOCTYPE svg PUBLIC "-//W3C//DTD SVG 20010904//EN"
 "http://www.w3.org/TR/2001/REC-SVG-20010904/DTD/svg10.dtd">
<svg version="1.0" xmlns="http://www.w3.org/2000/svg"
 width="96.000000pt" height="68.000000pt" viewBox="0 0 96.000000 68.000000"
 preserveAspectRatio="xMidYMid meet">
<metadata>
Created by potrace 1.16, written by Peter Selinger 2001-2019
</metadata>
<g transform="translate(0.000000,68.000000) scale(0.100000,-0.100000)"
fill="#000000" stroke="none">
<path d="M210 533 l-55 -4 0 -162 c0 -172 -7 -208 -52 -279 -13 -21 -19 -38
-14 -38 21 0 70 76 86 132 13 47 20 58 32 53 11 -3 29 6 50 27 l34 33 -3 -90
-3 -90 -29 -3 -28 -4 28 -29 c61 -64 72 -30 76 244 l3 217 -35 -2 c-19 -1 -60
-3 -90 -5z m80 -79 c0 -48 -2 -55 -17 -51 -10 3 -30 8 -45 11 -29 7 -35 25
-22 74 5 18 13 22 45 22 l39 0 0 -56z m0 -121 c0 -22 -14 -34 -64 -53 l-26
-10 0 65 0 64 45 -22 c33 -16 45 -28 45 -44z"/>
</g>
</svg>
