<?xml version="1.0" standalone="no"?>
<!DOCTYPE svg PUBLIC "-//W3C//DTD SVG 20010904//EN"
 "http://www.w3.org/TR/2001/REC-SVG-20010904/DTD/svg10.dtd">
<svg version="1.0" xmlns="http://www.w3.org/2000/svg"
 width="90.000000pt" height="92.000000pt" viewBox="0 0 90.000000 92.000000"
 preserveAspectRatio="xMidYMid meet">
<metadata>
Created by potrace 1.16, written by Peter Selinger 2001-2019
</metadata>
<g transform="translate(0.000000,92.000000) scale(0.100000,-0.100000)"
fill="#000000" stroke="none">
<path d="M340 824 c-14 -13 -59 -42 -101 -64 -69 -36 -79 -38 -107 -28 -39 15
-47 7 -33 -33 14 -40 14 -221 0 -344 -10 -97 -4 -135 24 -135 16 0 173 157
165 165 -3 4 -28 -8 -56 -24 -27 -17 -54 -31 -61 -31 -7 0 -11 30 -11 94 l0
93 38 6 c20 4 49 9 64 13 25 6 27 3 43 -52 25 -87 58 -145 109 -192 74 -68 82
-59 57 64 -17 87 -18 88 -23 46 -4 -24 -9 -47 -13 -50 -14 -14 -76 73 -94 132
-10 34 -17 64 -15 67 2 4 21 10 41 13 106 18 114 25 63 46 -28 11 -53 10 -96
-7 -16 -6 -17 -1 -11 60 4 39 2 69 -4 72 -16 11 -1 22 48 35 27 7 56 17 66 22
18 9 18 11 -4 34 -28 30 -57 30 -89 -2z m-76 -111 c3 -10 8 -44 11 -75 l7 -57
-53 -15 c-29 -9 -56 -16 -61 -16 -9 0 -10 69 -2 121 6 35 23 46 86 58 4 0 9
-7 12 -16z"/>
<path d="M660 779 c-55 -19 -81 -24 -98 -18 -28 11 -46 3 -38 -18 3 -8 6 -156
6 -329 1 -306 4 -374 20 -374 17 0 22 59 29 350 5 168 11 312 15 321 10 23
126 54 126 34 0 -3 -12 -41 -26 -85 l-26 -80 30 -34 c33 -38 55 -94 50 -128
-3 -25 -14 -27 -82 -15 l-39 6 44 -31 c24 -17 56 -43 71 -56 23 -21 30 -23 42
-12 26 21 36 77 24 134 -8 42 -20 60 -63 102 l-52 52 51 67 c28 38 55 74 60
81 13 16 -7 40 -42 51 -20 7 -46 2 -102 -18z"/>
<path d="M253 225 c-45 -11 -85 -24 -89 -28 -4 -3 5 -11 19 -18 19 -9 39 -8
89 5 35 9 80 16 99 16 51 0 66 14 38 34 -29 20 -53 19 -156 -9z"/>
</g>
</svg>
