<?xml version="1.0" standalone="no"?>
<!DOCTYPE svg PUBLIC "-//W3C//DTD SVG 20010904//EN"
 "http://www.w3.org/TR/2001/REC-SVG-20010904/DTD/svg10.dtd">
<svg version="1.0" xmlns="http://www.w3.org/2000/svg"
 width="96.000000pt" height="68.000000pt" viewBox="0 0 96.000000 68.000000"
 preserveAspectRatio="xMidYMid meet">
<metadata>
Created by potrace 1.16, written by Peter Selinger 2001-2019
</metadata>
<g transform="translate(0.000000,68.000000) scale(0.100000,-0.100000)"
fill="#000000" stroke="none">
<path d="M398 516 l4 -55 -38 -4 -39 -4 36 -1 c31 -2 37 -6 42 -28 6 -31 -9
-38 -63 -31 -39 5 -40 4 -34 -21 4 -15 13 -42 20 -60 12 -29 15 -31 33 -20 58
36 23 -49 -47 -113 -24 -23 -41 -43 -38 -46 6 -7 66 37 102 75 l25 27 -7 -91
c-5 -68 -3 -93 6 -99 21 -13 30 17 30 108 0 91 6 101 40 67 25 -25 53 -26 48
-3 -2 11 -21 24 -46 33 -52 18 -59 49 -12 51 17 1 35 2 42 3 12 1 36 58 37 90
1 16 -5 18 -49 14 -28 -3 -53 -1 -56 4 -8 12 6 49 16 43 13 -8 60 5 60 17 0 6
-16 8 -35 6 l-35 -4 0 43 c0 24 -4 43 -9 43 -5 0 -16 2 -24 5 -11 5 -13 -5 -9
-49z m90 -153 c-2 -22 -9 -29 -30 -31 -25 -3 -28 0 -28 27 0 28 3 31 31 31 27
0 30 -3 27 -27z m-88 -13 c0 -25 -4 -30 -24 -30 -16 0 -27 7 -31 20 -9 27 1
40 31 40 20 0 24 -5 24 -30z"/>
<path d="M655 538 c-91 -13 -111 -21 -57 -26 23 -2 42 -7 42 -11 0 -4 -14 -27
-30 -49 -17 -23 -27 -42 -22 -42 16 0 93 83 88 95 -6 16 15 25 55 25 23 0 29
-4 29 -22 0 -50 -12 -70 -36 -65 -13 2 -24 1 -24 -2 1 -12 27 -41 37 -41 18 0
43 36 57 82 21 71 10 76 -139 56z"/>
<path d="M175 532 c-11 -11 -4 -19 40 -51 25 -18 52 -30 60 -27 18 7 19 40 2
54 -16 13 -94 32 -102 24z"/>
<path d="M140 359 c36 -49 90 -61 90 -20 0 25 -42 51 -80 51 l-31 0 21 -31z"/>
<path d="M665 379 c-27 -5 -59 -7 -70 -4 -19 4 -20 -1 -20 -106 0 -82 4 -112
14 -118 11 -7 3 -21 -34 -60 -26 -28 -45 -51 -41 -51 11 0 89 52 118 79 25 22
26 25 10 37 -15 12 -9 13 39 14 30 0 60 -5 67 -12 24 -24 36 10 42 113 6 127
3 130 -125 108z m75 -30 c7 -11 10 -22 8 -24 -2 -1 -33 -6 -70 -10 -68 -7 -68
-7 -68 19 0 21 5 25 38 29 76 8 81 7 92 -14z m7 -104 l-1 -55 -72 0 c-66 0
-72 2 -67 19 4 15 18 21 64 26 32 4 59 11 59 16 0 6 -24 7 -60 3 -56 -6 -60
-5 -60 14 0 22 17 27 101 30 l37 2 -1 -55z"/>
<path d="M222 238 c-29 -30 -63 -61 -77 -68 -29 -15 -32 -36 -9 -68 20 -30 40
-28 57 6 7 15 31 57 51 94 21 37 36 73 34 79 -2 7 -27 -13 -56 -43z"/>
<path d="M742 85 c44 -47 68 -57 68 -27 0 27 -13 40 -53 57 -57 24 -60 18 -15
-30z"/>
</g>
</svg>
