<?xml version="1.0" standalone="no"?>
<!DOCTYPE svg PUBLIC "-//W3C//DTD SVG 20010904//EN"
 "http://www.w3.org/TR/2001/REC-SVG-20010904/DTD/svg10.dtd">
<svg version="1.0" xmlns="http://www.w3.org/2000/svg"
 width="96.000000pt" height="68.000000pt" viewBox="0 0 96.000000 68.000000"
 preserveAspectRatio="xMidYMid meet">
<metadata>
Created by potrace 1.16, written by Peter Selinger 2001-2019
</metadata>
<g transform="translate(0.000000,68.000000) scale(0.100000,-0.100000)"
fill="#000000" stroke="none">
<path d="M275 409 c13 -23 38 -49 45 -49 12 0 19 25 11 38 -3 6 -19 14 -35 18
-23 5 -27 4 -21 -7z"/>
<path d="M350 340 c-44 -10 -138 -19 -207 -20 -58 0 -66 -9 -29 -30 21 -11 45
-9 163 15 141 28 194 45 138 44 -16 -1 -46 -5 -65 -9z"/>
</g>
</svg>
