<?xml version="1.0" standalone="no"?>
<!DOCTYPE svg PUBLIC "-//W3C//DTD SVG 20010904//EN"
 "http://www.w3.org/TR/2001/REC-SVG-20010904/DTD/svg10.dtd">
<svg version="1.0" xmlns="http://www.w3.org/2000/svg"
 width="96.000000pt" height="68.000000pt" viewBox="0 0 96.000000 68.000000"
 preserveAspectRatio="xMidYMid meet">
<metadata>
Created by potrace 1.16, written by Peter Selinger 2001-2019
</metadata>
<g transform="translate(0.000000,68.000000) scale(0.100000,-0.100000)"
fill="#000000" stroke="none">
<path d="M442 355 c-41 -6 -85 -10 -99 -7 -23 4 -25 2 -18 -14 4 -10 13 -43
19 -73 10 -49 36 -83 36 -48 0 11 21 16 89 21 72 6 89 10 84 22 -3 7 4 29 15
48 19 33 19 35 3 50 -20 18 -28 18 -129 1z m68 -42 c0 -44 -11 -51 -75 -55
l-60 -3 -3 37 c-3 37 -3 37 40 41 101 9 98 9 98 -20z"/>
</g>
</svg>
