<?xml version="1.0" standalone="no"?>
<!DOCTYPE svg PUBLIC "-//W3C//DTD SVG 20010904//EN"
 "http://www.w3.org/TR/2001/REC-SVG-20010904/DTD/svg10.dtd">
<svg version="1.0" xmlns="http://www.w3.org/2000/svg"
 width="96.000000pt" height="68.000000pt" viewBox="0 0 96.000000 68.000000"
 preserveAspectRatio="xMidYMid meet">
<metadata>
Created by potrace 1.16, written by Peter Selinger 2001-2019
</metadata>
<g transform="translate(0.000000,68.000000) scale(0.100000,-0.100000)"
fill="#000000" stroke="none">
<path d="M420 519 c-14 -6 -40 -8 -59 -5 -30 5 -33 3 -27 -17 4 -12 9 -43 13
-69 7 -54 3 -52 88 -36 47 8 62 15 58 25 -3 8 3 32 13 54 15 35 16 42 3 50
-18 11 -57 10 -89 -2z m40 -43 c0 -41 -22 -66 -56 -66 -23 0 -25 3 -22 42 3
44 7 47 71 57 4 0 7 -14 7 -33z"/>
</g>
</svg>
