<?xml version="1.0" standalone="no"?>
<!DOCTYPE svg PUBLIC "-//W3C//DTD SVG 20010904//EN"
 "http://www.w3.org/TR/2001/REC-SVG-20010904/DTD/svg10.dtd">
<svg version="1.0" xmlns="http://www.w3.org/2000/svg"
 width="90.000000pt" height="92.000000pt" viewBox="0 0 90.000000 92.000000"
 preserveAspectRatio="xMidYMid meet">
<metadata>
Created by potrace 1.16, written by Peter Selinger 2001-2019
</metadata>
<g transform="translate(0.000000,92.000000) scale(0.100000,-0.100000)"
fill="#000000" stroke="none">
<path d="M516 862 c-3 -6 -1 -23 4 -38 6 -18 7 -64 3 -119 l-8 -90 -50 -6
c-27 -4 -69 -9 -93 -12 l-43 -5 2 85 c3 92 -2 103 -55 103 -26 0 -28 -2 -22
-27 4 -16 10 -58 14 -95 9 -75 6 -78 -70 -78 -21 0 -38 -5 -38 -10 0 -14 44
-30 84 -30 32 0 34 -2 40 -46 3 -26 6 -61 6 -79 0 -31 -1 -32 -52 -39 -29 -3
-81 -6 -115 -6 -64 0 -83 -9 -59 -29 25 -21 79 -23 186 -7 61 10 207 19 348
23 198 5 242 9 242 20 0 8 -20 23 -44 33 -36 17 -52 18 -97 11 -30 -5 -78 -12
-107 -16 l-54 -6 6 28 c3 15 8 53 12 84 l6 56 65 11 c36 6 68 14 72 17 13 14
-36 35 -82 35 -41 0 -48 3 -43 18 3 9 10 42 15 72 6 30 14 67 17 82 5 20 1 29
-18 41 -33 21 -65 29 -72 19z m-10 -333 c-3 -17 -6 -48 -6 -68 0 -20 -4 -42
-8 -48 -4 -7 -40 -15 -80 -19 l-72 -7 0 81 0 81 48 4 c128 10 125 10 118 -24z"/>
<path d="M287 271 c-7 -32 -85 -121 -146 -166 -94 -69 -6 -42 99 30 81 57 140
108 140 124 0 11 -57 41 -78 41 -5 0 -12 -13 -15 -29z"/>
<path d="M500 272 c0 -5 10 -17 21 -28 12 -10 49 -54 82 -97 84 -108 117 -123
117 -51 0 64 -35 105 -132 155 -58 29 -88 36 -88 21z"/>
</g>
</svg>
