<?xml version="1.0" standalone="no"?>
<!DOCTYPE svg PUBLIC "-//W3C//DTD SVG 20010904//EN"
 "http://www.w3.org/TR/2001/REC-SVG-20010904/DTD/svg10.dtd">
<svg version="1.0" xmlns="http://www.w3.org/2000/svg"
 width="90.000000pt" height="92.000000pt" viewBox="0 0 90.000000 92.000000"
 preserveAspectRatio="xMidYMid meet">
<metadata>
Created by potrace 1.16, written by Peter Selinger 2001-2019
</metadata>
<g transform="translate(0.000000,92.000000) scale(0.100000,-0.100000)"
fill="#000000" stroke="none">
<path d="M436 802 c-8 -52 -48 -141 -94 -210 -54 -81 -54 -82 -43 -82 5 0 32
22 58 48 53 53 62 55 248 56 l80 1 3 -105 c4 -124 -14 -293 -34 -332 -17 -32
-38 -35 -91 -13 -20 8 -38 13 -40 11 -8 -8 92 -126 108 -126 22 0 63 48 82 98
10 26 21 100 27 190 6 81 15 175 21 209 13 74 10 87 -30 108 -28 14 -42 14
-160 -2 -72 -9 -133 -14 -136 -11 -3 3 13 36 35 74 22 38 40 74 40 81 0 13
-38 43 -56 43 -6 0 -14 -17 -18 -38z"/>
<path d="M220 774 c-15 -71 -76 -189 -143 -278 -28 -38 -58 -77 -66 -88 -9
-12 -10 -18 -2 -18 7 0 45 33 86 74 l73 73 6 -41 c7 -50 -8 -227 -24 -281 -9
-33 -9 -46 5 -78 9 -21 21 -37 27 -35 20 7 27 54 36 243 8 170 8 181 -10 206
l-19 26 56 104 57 103 -27 23 c-14 13 -30 23 -35 23 -5 0 -14 -25 -20 -56z"/>
<path d="M455 473 c-18 -10 -52 -16 -87 -16 -54 1 -56 0 -49 -21 5 -11 12 -50
15 -86 4 -36 10 -73 12 -82 6 -21 24 -24 24 -4 0 9 22 15 76 19 73 5 103 15
77 24 -19 7 -15 32 12 88 32 64 31 71 -6 84 -39 14 -38 14 -74 -6z m27 -38 c3
-3 0 -29 -6 -58 -12 -53 -25 -63 -83 -66 -21 -1 -23 3 -23 53 l0 55 43 9 c54
12 62 13 69 7z"/>
</g>
</svg>
