<?xml version="1.0" standalone="no"?>
<!DOCTYPE svg PUBLIC "-//W3C//DTD SVG 20010904//EN"
 "http://www.w3.org/TR/2001/REC-SVG-20010904/DTD/svg10.dtd">
<svg version="1.0" xmlns="http://www.w3.org/2000/svg"
 width="96.000000pt" height="68.000000pt" viewBox="0 0 96.000000 68.000000"
 preserveAspectRatio="xMidYMid meet">
<metadata>
Created by potrace 1.16, written by Peter Selinger 2001-2019
</metadata>
<g transform="translate(0.000000,68.000000) scale(0.100000,-0.100000)"
fill="#000000" stroke="none">
<path d="M520 598 c0 -25 -58 -134 -94 -177 -20 -24 -34 -46 -32 -49 3 -3 26
12 51 32 l45 37 123 6 c101 5 125 3 129 -8 9 -25 -11 -258 -26 -294 -17 -39
-42 -45 -86 -20 -45 26 -45 16 0 -30 52 -53 78 -57 113 -15 30 35 34 51 47
197 6 62 15 124 20 138 14 38 13 41 -21 55 -25 11 -55 11 -151 1 -67 -6 -123
-9 -125 -7 -3 3 11 26 31 52 41 53 44 69 17 84 -26 13 -41 13 -41 -2z"/>
</g>
</svg>
