<?xml version="1.0" standalone="no"?>
<!DOCTYPE svg PUBLIC "-//W3C//DTD SVG 20010904//EN"
 "http://www.w3.org/TR/2001/REC-SVG-20010904/DTD/svg10.dtd">
<svg version="1.0" xmlns="http://www.w3.org/2000/svg"
 width="96.000000pt" height="68.000000pt" viewBox="0 0 96.000000 68.000000"
 preserveAspectRatio="xMidYMid meet">
<metadata>
Created by potrace 1.16, written by Peter Selinger 2001-2019
</metadata>
<g transform="translate(0.000000,68.000000) scale(0.100000,-0.100000)"
fill="#000000" stroke="none">
<path d="M519 582 c-31 -82 -77 -157 -112 -184 -12 -9 -19 -19 -16 -23 4 -3
28 11 54 30 l47 37 126 5 125 5 -6 -133 c-3 -74 -11 -151 -18 -172 -13 -38
-14 -39 -50 -33 -21 3 -45 9 -55 13 -15 6 -14 3 4 -17 12 -13 22 -26 22 -30 0
-3 14 -14 31 -24 l30 -18 34 36 c38 41 40 49 56 211 6 66 15 128 21 139 9 16
6 23 -12 38 -26 21 -45 22 -180 7 -56 -6 -104 -8 -107 -5 -3 3 11 28 31 55 37
53 38 75 5 84 -15 4 -23 -1 -30 -21z"/>
<path d="M326 588 c-3 -7 -7 -24 -10 -38 -8 -37 -75 -136 -140 -205 -85 -90
-39 -85 61 8 l43 40 0 -74 c0 -41 -7 -101 -14 -133 -16 -66 -6 -106 25 -106
24 0 28 18 38 175 7 105 6 133 -5 146 -20 22 -19 23 31 93 25 35 45 66 45 69
0 3 -7 13 -16 21 -19 19 -53 21 -58 4z"/>
<path d="M510 338 c-19 -5 -50 -7 -68 -4 -32 5 -34 4 -28 -19 4 -14 9 -45 13
-70 6 -49 17 -63 36 -46 7 5 37 11 67 13 40 2 55 7 56 18 1 8 2 23 2 33 1 9
11 25 22 34 26 23 25 39 -2 47 -30 8 -56 6 -98 -6z m45 -55 c-4 -21 -9 -41
-11 -45 -7 -11 -84 -10 -84 1 0 5 -3 22 -6 39 -7 33 2 38 75 41 33 1 33 1 26
-36z"/>
</g>
</svg>
