<?xml version="1.0" standalone="no"?>
<!DOCTYPE svg PUBLIC "-//W3C//DTD SVG 20010904//EN"
 "http://www.w3.org/TR/2001/REC-SVG-20010904/DTD/svg10.dtd">
<svg version="1.0" xmlns="http://www.w3.org/2000/svg"
 width="96.000000pt" height="68.000000pt" viewBox="0 0 96.000000 68.000000"
 preserveAspectRatio="xMidYMid meet">
<metadata>
Created by potrace 1.16, written by Peter Selinger 2001-2019
</metadata>
<g transform="translate(0.000000,68.000000) scale(0.100000,-0.100000)"
fill="#000000" stroke="none">
<path d="M451 179 c31 -40 69 -51 69 -21 0 25 -19 40 -61 49 l-34 6 26 -34z"/>
<path d="M721 165 c46 -47 69 -52 69 -15 0 24 -34 48 -81 56 l-34 6 46 -47z"/>
<path d="M300 180 c0 -25 42 -86 74 -108 48 -33 90 -42 194 -42 90 0 162 17
162 38 0 5 -27 25 -59 44 -55 33 -59 33 -49 12 6 -12 8 -30 4 -39 -5 -15 -20
-16 -105 -13 -110 3 -135 15 -179 79 -25 36 -42 48 -42 29z"/>
<path d="M181 149 c-28 -44 -36 -78 -23 -91 19 -19 39 -1 51 45 9 31 10 51 3
63 -9 16 -12 14 -31 -17z"/>
</g>
</svg>
