<?xml version="1.0" standalone="no"?>
<!DOCTYPE svg PUBLIC "-//W3C//DTD SVG 20010904//EN"
 "http://www.w3.org/TR/2001/REC-SVG-20010904/DTD/svg10.dtd">
<svg version="1.0" xmlns="http://www.w3.org/2000/svg"
 width="90.000000pt" height="92.000000pt" viewBox="0 0 90.000000 92.000000"
 preserveAspectRatio="xMidYMid meet">
<metadata>
Created by potrace 1.16, written by Peter Selinger 2001-2019
</metadata>
<g transform="translate(0.000000,92.000000) scale(0.100000,-0.100000)"
fill="#000000" stroke="none">
<path d="M455 855 c-38 -7 -96 -16 -128 -20 -49 -5 -56 -9 -46 -21 7 -9 31
-14 64 -14 52 0 54 -1 60 -31 4 -17 3 -34 -1 -39 -5 -4 -57 -10 -116 -13 -102
-6 -108 -5 -119 15 -10 19 -14 14 -42 -52 -22 -54 -27 -77 -20 -89 16 -26 26
-19 54 36 15 29 29 50 31 47 3 -2 51 2 106 11 56 8 105 15 108 15 4 0 4 -40 1
-88 -5 -66 -3 -93 7 -107 21 -29 31 -1 33 104 1 52 4 95 6 97 7 7 247 16 247
9 0 -4 -10 -24 -22 -43 l-22 -35 25 7 c13 3 45 12 72 18 58 14 62 36 12 74
l-36 27 -102 -12 c-56 -7 -118 -15 -138 -18 -37 -5 -37 -5 -41 35 l-3 40 58 7
c32 3 68 10 79 14 21 8 21 8 -3 24 -26 19 -27 19 -124 2z"/>
<path d="M550 682 c0 -5 -14 -23 -31 -40 -34 -35 -26 -40 32 -21 19 6 40 13
48 15 11 3 8 10 -9 29 -24 25 -40 32 -40 17z"/>
<path d="M245 640 c-5 -9 63 -50 85 -50 18 0 11 39 -9 50 -25 13 -68 13 -76 0z"/>
<path d="M502 574 c-9 -4 -2 -14 22 -30 58 -39 105 -34 74 9 -13 18 -73 31
-96 21z"/>
<path d="M285 552 c-33 -9 -62 -17 -64 -19 -7 -5 31 -43 44 -43 6 0 29 18 50
40 21 22 37 39 35 39 -3 -1 -32 -9 -65 -17z"/>
<path d="M479 503 c-1 -4 0 -12 1 -18 1 -5 2 -75 1 -155 -2 -158 7 -300 19
-300 10 0 30 80 30 119 0 35 6 37 158 47 106 6 122 16 70 41 -20 10 -42 10
-114 -2 -121 -20 -114 -22 -114 29 l0 43 86 6 c93 5 123 19 83 37 -18 8 -42 7
-94 -4 -38 -8 -70 -14 -71 -13 -1 1 1 18 3 38 l5 37 78 6 c84 8 127 27 100 46
-21 14 -47 12 -104 -5 -66 -20 -79 -19 -71 4 3 10 0 23 -7 28 -19 15 -58 26
-59 16z"/>
<path d="M307 484 c-3 -3 1 -17 9 -29 l15 -23 -91 -13 c-118 -16 -116 -35 4
-32 l86 2 0 -27 c0 -19 -5 -28 -17 -29 -89 -6 -153 -18 -153 -28 0 -20 21 -23
95 -15 39 4 72 6 74 4 2 -2 1 -14 -3 -27 -5 -21 -18 -28 -85 -46 -46 -13 -91
-19 -105 -15 -36 9 -35 -18 1 -44 l27 -20 69 35 c38 19 72 32 75 28 11 -11
-40 -94 -80 -130 -46 -42 -43 -43 23 -10 88 45 119 120 132 317 4 53 1 70 -12
81 -20 18 -55 29 -64 21z"/>
</g>
</svg>
