<?xml version="1.0" standalone="no"?>
<!DOCTYPE svg PUBLIC "-//W3C//DTD SVG 20010904//EN"
 "http://www.w3.org/TR/2001/REC-SVG-20010904/DTD/svg10.dtd">
<svg version="1.0" xmlns="http://www.w3.org/2000/svg"
 width="96.000000pt" height="68.000000pt" viewBox="0 0 96.000000 68.000000"
 preserveAspectRatio="xMidYMid meet">
<metadata>
Created by potrace 1.16, written by Peter Selinger 2001-2019
</metadata>
<g transform="translate(0.000000,68.000000) scale(0.100000,-0.100000)"
fill="#000000" stroke="none">
<path d="M334 563 c-12 -49 -75 -136 -147 -205 -39 -38 -68 -68 -64 -68 15 0
62 28 107 64 39 31 46 33 51 18 8 -22 1 -142 -12 -204 -11 -50 0 -88 26 -88
18 0 22 31 30 192 3 86 2 129 -6 133 -15 10 -7 24 48 95 46 59 47 62 28 76
-30 22 -54 17 -61 -13z"/>
</g>
</svg>
