<?xml version="1.0" standalone="no"?>
<!DOCTYPE svg PUBLIC "-//W3C//DTD SVG 20010904//EN"
 "http://www.w3.org/TR/2001/REC-SVG-20010904/DTD/svg10.dtd">
<svg version="1.0" xmlns="http://www.w3.org/2000/svg"
 width="90.000000pt" height="92.000000pt" viewBox="0 0 90.000000 92.000000"
 preserveAspectRatio="xMidYMid meet">
<metadata>
Created by potrace 1.16, written by Peter Selinger 2001-2019
</metadata>
<g transform="translate(0.000000,92.000000) scale(0.100000,-0.100000)"
fill="#000000" stroke="none">
<path d="M530 876 l0 -45 -45 -7 c-25 -3 -45 -10 -45 -14 0 -11 26 -20 56 -20
21 0 24 -4 19 -20 -9 -28 5 -25 31 7 18 23 30 27 94 32 78 6 97 20 55 39 -24
11 -44 10 -98 -5 -16 -4 -17 -2 -7 17 9 18 8 25 -6 41 -9 10 -25 19 -36 19
-15 0 -18 -8 -18 -44z"/>
<path d="M248 894 c-4 -3 1 -23 12 -44 l19 -38 -31 -6 c-17 -3 -50 -6 -74 -6
-50 0 -56 -12 -19 -36 23 -15 30 -15 80 -1 l55 16 17 -37 17 -37 4 42 c3 37 6
42 32 48 46 10 46 25 1 25 -23 0 -41 3 -42 8 -1 16 -10 56 -12 58 -7 8 -54 14
-59 8z"/>
<path d="M453 711 c-23 -11 -74 -29 -114 -40 -39 -11 -74 -23 -78 -27 -5 -5
66 0 124 9 5 1 11 -7 13 -18 3 -19 -5 -22 -106 -33 -59 -7 -129 -12 -155 -12
-55 0 -61 -15 -14 -35 29 -12 43 -12 94 0 33 8 90 17 127 21 66 7 66 7 66 -19
0 -32 -14 -37 -115 -38 l-84 -1 14 -31 c8 -18 19 -52 26 -76 l11 -44 74 6 c74
7 74 7 74 -18 0 -23 -4 -25 -47 -26 -27 -1 -59 -4 -73 -8 -39 -11 -5 -25 57
-24 45 1 53 -1 53 -17 0 -22 -20 -27 -143 -36 -53 -4 -97 -11 -97 -16 0 -20
65 -37 106 -28 60 14 343 32 399 26 28 -4 57 -2 65 4 13 9 11 14 -10 31 -26
22 -55 23 -224 3 -48 -6 -56 -4 -56 10 0 21 30 33 103 41 31 4 57 11 57 16 0
18 -46 27 -91 18 -60 -11 -59 -11 -59 11 0 24 50 35 119 27 l47 -6 34 67 c19
37 36 70 38 74 2 4 -11 14 -29 24 -32 16 -44 16 -156 -2 -41 -6 -43 -6 -43 19
l0 27 168 2 c140 3 167 5 167 18 0 31 -53 44 -134 32 -184 -27 -188 -27 -193
1 -5 27 11 37 63 37 35 0 42 10 22 32 -21 23 -47 23 -100 -1z m157 -210 c0
-10 -5 -31 -10 -47 -10 -28 -13 -29 -80 -31 l-70 -1 0 43 c0 49 2 50 113 53
40 2 47 -1 47 -17z m-200 -45 l0 -43 -56 -7 c-30 -3 -60 -4 -65 -1 -5 4 -9 24
-9 45 0 42 4 44 98 48 31 2 32 1 32 -42z"/>
<path d="M498 469 c-15 -22 -25 -39 -23 -39 13 0 85 41 85 48 0 4 -8 12 -17
18 -15 9 -22 5 -45 -27z"/>
<path d="M310 472 c0 -10 43 -52 53 -52 16 0 6 40 -12 50 -24 12 -41 13 -41 2z"/>
<path d="M640 183 c87 -145 113 -169 123 -116 8 42 -8 71 -60 103 -54 35 -79
40 -63 13z"/>
<path d="M141 139 c-33 -54 -36 -99 -6 -99 35 0 65 86 46 133 -6 16 -12 10
-40 -34z"/>
<path d="M470 170 c0 -15 40 -87 55 -100 29 -24 47 19 25 61 -6 10 -24 26 -40
34 -34 18 -40 18 -40 5z"/>
<path d="M310 158 c1 -22 44 -103 55 -103 6 0 11 16 13 36 3 30 -2 41 -24 58
-30 24 -44 27 -44 9z"/>
</g>
</svg>
