<?xml version="1.0" standalone="no"?>
<!DOCTYPE svg PUBLIC "-//W3C//DTD SVG 20010904//EN"
 "http://www.w3.org/TR/2001/REC-SVG-20010904/DTD/svg10.dtd">
<svg version="1.0" xmlns="http://www.w3.org/2000/svg"
 width="96.000000pt" height="68.000000pt" viewBox="0 0 96.000000 68.000000"
 preserveAspectRatio="xMidYMid meet">
<metadata>
Created by potrace 1.16, written by Peter Selinger 2001-2019
</metadata>
<g transform="translate(0.000000,68.000000) scale(0.100000,-0.100000)"
fill="#000000" stroke="none">
<path d="M300 579 c0 -38 -63 -140 -132 -214 -37 -40 -68 -75 -68 -78 0 -11
46 8 66 27 32 31 74 66 79 66 10 0 4 -127 -10 -190 -11 -55 -11 -68 1 -92 18
-34 32 -36 43 -6 13 36 23 318 11 318 -19 0 -10 21 35 84 50 71 51 72 31 92
-23 22 -56 18 -56 -7z"/>
<path d="M560 520 c-58 -10 -120 -19 -138 -19 -22 -1 -32 -5 -29 -13 3 -9 27
-13 73 -13 l69 0 3 -52 3 -52 -93 1 c-75 0 -92 -2 -88 -13 7 -21 6 -109 -2
-155 -6 -29 -4 -46 6 -60 8 -10 17 -16 21 -13 3 4 8 52 12 108 3 56 9 103 12
105 3 2 35 7 70 11 l64 7 -7 -109 c-6 -91 -4 -112 8 -122 16 -13 19 -6 28 54
2 12 21 29 51 44 42 22 50 23 72 11 29 -16 39 -9 31 18 -7 21 -94 68 -105 56
-3 -4 0 -9 7 -11 20 -8 14 -40 -13 -57 -13 -9 -27 -16 -30 -16 -3 0 -5 29 -5
65 l0 64 33 6 c17 3 59 5 92 3 l60 -3 3 -58 c4 -73 -14 -163 -34 -171 -8 -3
-25 -1 -39 4 -25 10 -25 9 -11 -18 24 -46 43 -57 70 -43 37 20 54 60 65 156 6
50 14 101 17 116 9 39 -29 52 -135 42 -47 -4 -93 -7 -101 -8 -11 0 -16 15 -20
53 -3 29 -4 55 -1 58 2 2 34 4 70 5 36 1 77 4 91 9 l25 7 -28 12 c-35 14 -46
13 -177 -9z"/>
<path d="M450 281 c0 -11 -7 -26 -15 -35 -25 -24 -17 -29 13 -7 19 13 33 17
43 10 20 -13 29 -11 29 6 0 8 -13 21 -30 30 -37 19 -40 19 -40 -4z"/>
</g>
</svg>
