<?xml version="1.0" standalone="no"?>
<!DOCTYPE svg PUBLIC "-//W3C//DTD SVG 20010904//EN"
 "http://www.w3.org/TR/2001/REC-SVG-20010904/DTD/svg10.dtd">
<svg version="1.0" xmlns="http://www.w3.org/2000/svg"
 width="90.000000pt" height="92.000000pt" viewBox="0 0 90.000000 92.000000"
 preserveAspectRatio="xMidYMid meet">
<metadata>
Created by potrace 1.16, written by Peter Selinger 2001-2019
</metadata>
<g transform="translate(0.000000,92.000000) scale(0.100000,-0.100000)"
fill="#000000" stroke="none">
<path d="M555 840 c-27 -5 -112 -12 -188 -16 -113 -6 -140 -5 -147 7 -12 18
-14 15 -48 -71 -21 -54 -27 -80 -21 -92 21 -39 55 -12 79 65 6 20 15 37 18 37
4 0 38 5 76 10 78 12 86 7 86 -46 0 -36 -13 -44 -70 -44 -37 0 -59 -14 -46
-28 4 -3 32 -6 62 -5 l55 1 -3 -31 c-3 -31 -4 -32 -63 -38 -33 -3 -71 -2 -84
3 -31 11 -37 4 -22 -25 6 -12 18 -60 25 -105 7 -46 18 -88 23 -93 5 -5 22 -5
43 1 64 18 80 14 80 -23 l0 -33 -142 -12 c-79 -7 -158 -12 -175 -12 -42 0 -42
-15 -2 -36 27 -14 40 -14 94 -4 34 6 99 15 144 19 l81 7 0 -123 c0 -111 8
-150 25 -123 3 5 11 64 17 130 l11 120 171 0 c170 0 202 5 188 27 -16 26 -75
41 -128 33 -27 -5 -92 -11 -143 -15 l-92 -8 3 34 c3 32 6 34 42 37 22 2 50 -2
63 -9 13 -7 26 -9 30 -5 6 6 65 159 80 209 4 13 -6 22 -41 38 -44 19 -49 19
-100 5 -72 -21 -76 -21 -76 13 0 27 3 29 53 35 29 4 59 11 67 16 26 17 -9 32
-62 26 l-46 -5 -4 42 c-3 23 -4 42 -4 43 1 1 43 4 94 7 82 6 92 5 92 -10 0 -9
-7 -25 -17 -35 -9 -10 -14 -21 -11 -24 10 -10 141 21 146 34 2 7 -13 28 -34
47 -41 38 -69 42 -179 25z m35 -282 l0 -33 -65 -1 c-64 0 -65 0 -65 27 0 29
10 33 98 37 30 2 32 0 32 -30z m-180 -17 c0 -24 -5 -29 -31 -35 -65 -13 -79
-9 -79 23 0 28 2 30 48 34 26 2 50 4 55 5 4 1 7 -11 7 -27z m162 -91 c-8 -20
-16 -24 -60 -24 -50 -1 -52 0 -52 26 0 23 5 28 33 32 88 15 96 11 79 -34z
m-164 -7 c-3 -26 -7 -28 -50 -31 -47 -3 -48 -3 -48 27 0 30 1 31 51 31 49 0
50 -1 47 -27z"/>
</g>
</svg>
