<?xml version="1.0" standalone="no"?>
<!DOCTYPE svg PUBLIC "-//W3C//DTD SVG 20010904//EN"
 "http://www.w3.org/TR/2001/REC-SVG-20010904/DTD/svg10.dtd">
<svg version="1.0" xmlns="http://www.w3.org/2000/svg"
 width="96.000000pt" height="68.000000pt" viewBox="0 0 96.000000 68.000000"
 preserveAspectRatio="xMidYMid meet">
<metadata>
Created by potrace 1.16, written by Peter Selinger 2001-2019
</metadata>
<g transform="translate(0.000000,68.000000) scale(0.100000,-0.100000)"
fill="#000000" stroke="none">
<path d="M334 583 c-14 -32 -43 -79 -65 -105 -47 -56 -32 -63 32 -14 44 33 46
33 208 46 138 11 164 11 172 -1 12 -20 11 -326 -2 -372 l-10 -38 -46 7 c-43 6
-45 6 -35 -13 6 -11 25 -35 42 -53 30 -32 31 -32 56 -15 46 30 62 87 69 235 3
74 8 167 11 206 l5 71 -31 13 c-33 13 -82 11 -252 -11 -54 -7 -101 -10 -104
-6 -4 4 2 17 14 30 29 31 28 44 -8 62 l-30 16 -26 -58z"/>
<path d="M493 465 c32 -28 55 -32 64 -10 8 21 3 24 -48 31 l-44 5 28 -26z"/>
<path d="M360 454 c18 -48 14 -52 -57 -59 -62 -6 -110 -12 -123 -14 -3 -1 3
-6 12 -11 11 -7 40 -7 85 0 95 13 93 14 93 -20 l0 -30 -67 0 -68 0 0 -104 c0
-57 4 -108 8 -112 11 -12 27 16 27 49 0 26 2 27 49 27 l50 0 3 -45 c4 -61 21
-61 33 0 l11 50 47 3 c44 3 47 1 47 -21 0 -32 -9 -38 -32 -26 -31 17 -31 5 -1
-30 54 -61 79 -28 86 112 4 93 3 99 -18 113 -17 11 -32 12 -75 4 -29 -5 -54
-10 -56 -10 -8 0 -4 49 5 54 4 3 47 6 95 7 84 1 111 12 61 25 -14 3 -55 3 -90
-1 -65 -7 -65 -7 -65 19 0 25 -24 46 -54 46 -13 0 -14 -5 -6 -26z m151 -144
c2 -13 2 -31 0 -72 -1 -33 -2 -33 -48 -32 -40 1 -48 5 -48 20 0 15 9 20 43 22
56 4 54 22 -3 22 -37 0 -45 3 -45 18 0 10 3 22 7 25 10 11 93 8 94 -3z m-143
-27 c-2 -21 -9 -26 -38 -30 -46 -5 -60 2 -53 26 3 12 15 21 32 23 64 7 62 8
59 -19z m2 -62 c0 -27 -80 -45 -95 -21 -15 24 5 40 50 40 37 0 45 -3 45 -19z"/>
</g>
</svg>
