<?xml version="1.0" standalone="no"?>
<!DOCTYPE svg PUBLIC "-//W3C//DTD SVG 20010904//EN"
 "http://www.w3.org/TR/2001/REC-SVG-20010904/DTD/svg10.dtd">
<svg version="1.0" xmlns="http://www.w3.org/2000/svg"
 width="96.000000pt" height="68.000000pt" viewBox="0 0 96.000000 68.000000"
 preserveAspectRatio="xMidYMid meet">
<metadata>
Created by potrace 1.16, written by Peter Selinger 2001-2019
</metadata>
<g transform="translate(0.000000,68.000000) scale(0.100000,-0.100000)"
fill="#000000" stroke="none">
<path d="M350 615 c0 -26 -38 -93 -77 -136 -20 -22 -34 -42 -31 -45 3 -2 29
13 57 35 47 35 59 39 115 40 34 0 103 5 154 10 106 11 120 8 128 -26 10 -40
-2 -335 -16 -371 -13 -35 -10 -35 -79 -15 -23 6 -22 2 14 -40 42 -51 55 -56
80 -31 41 42 49 75 56 259 4 99 10 192 14 207 6 23 2 29 -26 44 -31 15 -41 15
-153 1 -241 -32 -234 -32 -196 16 25 32 25 44 1 57 -28 14 -41 13 -41 -5z"/>
</g>
</svg>
