<?xml version="1.0" standalone="no"?>
<!DOCTYPE svg PUBLIC "-//W3C//DTD SVG 20010904//EN"
 "http://www.w3.org/TR/2001/REC-SVG-20010904/DTD/svg10.dtd">
<svg version="1.0" xmlns="http://www.w3.org/2000/svg"
 width="96.000000pt" height="68.000000pt" viewBox="0 0 96.000000 68.000000"
 preserveAspectRatio="xMidYMid meet">
<metadata>
Created by potrace 1.16, written by Peter Selinger 2001-2019
</metadata>
<g transform="translate(0.000000,68.000000) scale(0.100000,-0.100000)"
fill="#000000" stroke="none">
<path d="M535 544 c-103 -56 -88 -57 120 -2 l40 10 -24 19 c-32 26 -44 24
-136 -27z"/>
<path d="M686 479 c-46 -45 -40 -48 35 -17 68 27 68 27 45 44 -27 19 -35 17
-80 -27z"/>
<path d="M547 470 c18 -31 53 -41 53 -16 0 17 -37 46 -58 46 -10 0 -9 -7 5
-30z"/>
<path d="M420 470 c0 -15 42 -60 56 -60 17 0 19 34 2 47 -18 14 -58 23 -58 13z"/>
</g>
</svg>
