<?xml version="1.0" standalone="no"?>
<!DOCTYPE svg PUBLIC "-//W3C//DTD SVG 20010904//EN"
 "http://www.w3.org/TR/2001/REC-SVG-20010904/DTD/svg10.dtd">
<svg version="1.0" xmlns="http://www.w3.org/2000/svg"
 width="96.000000pt" height="68.000000pt" viewBox="0 0 96.000000 68.000000"
 preserveAspectRatio="xMidYMid meet">
<metadata>
Created by potrace 1.16, written by Peter Selinger 2001-2019
</metadata>
<g transform="translate(0.000000,68.000000) scale(0.100000,-0.100000)"
fill="#000000" stroke="none">
<path d="M570 569 c-25 -5 -86 -10 -137 -12 -91 -2 -91 -2 -73 -22 10 -11 21
-35 25 -52 3 -18 10 -35 13 -37 4 -2 59 2 122 10 63 7 125 11 136 8 17 -4 27
4 52 45 30 48 31 51 12 61 -22 12 -87 11 -150 -1z m100 -26 c0 -38 -18 -48
-112 -60 -136 -17 -134 -18 -147 19 -6 17 -10 32 -9 33 3 2 193 21 241 23 20
2 27 -3 27 -15z"/>
</g>
</svg>
