<?xml version="1.0" standalone="no"?>
<!DOCTYPE svg PUBLIC "-//W3C//DTD SVG 20010904//EN"
 "http://www.w3.org/TR/2001/REC-SVG-20010904/DTD/svg10.dtd">
<svg version="1.0" xmlns="http://www.w3.org/2000/svg"
 width="90.000000pt" height="92.000000pt" viewBox="0 0 90.000000 92.000000"
 preserveAspectRatio="xMidYMid meet">
<metadata>
Created by potrace 1.16, written by Peter Selinger 2001-2019
</metadata>
<g transform="translate(0.000000,92.000000) scale(0.100000,-0.100000)"
fill="#000000" stroke="none">
<path d="M560 764 c-85 -18 -159 -33 -165 -34 -5 0 -1 -8 10 -16 20 -15 52
-14 114 3 24 6 24 5 18 -40 -8 -56 -36 -113 -78 -161 -22 -26 -29 -41 -24 -57
8 -23 19 -23 95 6 25 10 72 18 105 19 l60 1 -1 -75 c-1 -88 -26 -179 -59 -218
l-23 -27 -47 23 c-26 12 -45 19 -43 14 16 -41 66 -123 77 -127 24 -9 87 41
109 87 12 24 31 93 42 153 12 61 28 121 37 133 13 22 13 26 -7 47 -40 43 -69
48 -162 31 -47 -9 -90 -16 -97 -16 -13 0 34 90 77 148 24 31 24 33 7 52 -10
11 -16 20 -14 21 2 0 48 4 102 8 111 8 136 21 89 45 -39 20 -36 20 -222 -20z"/>
<path d="M195 719 c-44 -9 -92 -18 -107 -18 -16 -1 -28 -6 -28 -11 0 -16 52
-32 82 -26 24 5 29 2 36 -27 5 -18 10 -76 11 -129 l2 -97 -85 -27 c-77 -24
-85 -28 -75 -45 5 -10 23 -26 40 -34 30 -16 31 -15 107 32 42 27 110 68 149
92 40 24 70 47 68 52 -3 4 -16 4 -28 0 -12 -5 -46 -19 -76 -30 l-54 -22 5 116
c4 76 2 118 -5 122 -6 4 18 12 52 19 75 16 82 21 57 40 -24 17 -48 16 -151 -7z"/>
</g>
</svg>
