<?xml version="1.0" standalone="no"?>
<!DOCTYPE svg PUBLIC "-//W3C//DTD SVG 20010904//EN"
 "http://www.w3.org/TR/2001/REC-SVG-20010904/DTD/svg10.dtd">
<svg version="1.0" xmlns="http://www.w3.org/2000/svg"
 width="96.000000pt" height="68.000000pt" viewBox="0 0 96.000000 68.000000"
 preserveAspectRatio="xMidYMid meet">
<metadata>
Created by potrace 1.16, written by Peter Selinger 2001-2019
</metadata>
<g transform="translate(0.000000,68.000000) scale(0.100000,-0.100000)"
fill="#000000" stroke="none">
<path d="M603 503 c-7 -2 -13 -13 -13 -24 0 -28 -33 -90 -64 -118 -50 -47 -30
-68 46 -47 29 8 66 16 82 18 16 2 32 9 34 17 4 11 -7 13 -57 7 -33 -4 -61 -4
-61 -1 0 4 21 34 46 68 44 57 45 61 28 74 -19 14 -22 14 -41 6z"/>
</g>
</svg>
