<?xml version="1.0" standalone="no"?>
<!DOCTYPE svg PUBLIC "-//W3C//DTD SVG 20010904//EN"
 "http://www.w3.org/TR/2001/REC-SVG-20010904/DTD/svg10.dtd">
<svg version="1.0" xmlns="http://www.w3.org/2000/svg"
 width="90.000000pt" height="92.000000pt" viewBox="0 0 90.000000 92.000000"
 preserveAspectRatio="xMidYMid meet">
<metadata>
Created by potrace 1.16, written by Peter Selinger 2001-2019
</metadata>
<g transform="translate(0.000000,92.000000) scale(0.100000,-0.100000)"
fill="#000000" stroke="none">
<path d="M370 853 c0 -5 9 -23 20 -41 11 -18 20 -35 20 -37 0 -3 -15 -5 -32
-6 -18 -1 -44 -4 -58 -9 l-25 -7 25 -10 c37 -15 220 8 220 28 0 16 -43 27 -68
18 -31 -12 -30 -12 -25 15 4 17 -2 28 -18 40 -24 17 -59 22 -59 9z"/>
<path d="M600 856 c0 -4 5 -16 11 -28 6 -11 11 -64 11 -118 -1 -139 -23 -212
-85 -277 -17 -18 -28 -35 -25 -38 10 -10 92 54 113 90 25 40 19 42 83 -29 40
-44 62 -47 62 -7 0 31 -27 56 -86 80 -30 12 -30 12 -20 61 8 42 14 51 45 65
20 9 47 25 61 35 l25 20 -25 20 c-14 11 -27 19 -30 19 -3 0 -18 -19 -35 -42
-25 -35 -30 -39 -33 -21 -1 11 1 47 7 80 7 43 6 62 -2 71 -14 14 -77 29 -77
19z"/>
<path d="M155 793 c14 -37 17 -175 6 -249 -15 -90 -33 -136 -73 -186 -16 -21
-26 -38 -21 -38 22 0 88 69 108 112 l23 49 32 -41 c35 -45 46 -49 55 -21 9 29
-5 50 -47 72 -37 19 -40 23 -34 51 3 17 6 40 6 52 0 15 15 29 50 48 56 31 60
40 28 62 -20 14 -23 14 -39 -13 -28 -46 -39 -47 -39 -2 0 22 5 52 11 68 8 23
7 30 -7 40 -10 7 -29 13 -42 13 -19 0 -23 -4 -17 -17z"/>
<path d="M390 690 c-42 -13 -51 -19 -37 -25 10 -4 43 -2 74 4 73 14 82 22 38
34 -11 3 -45 -3 -75 -13z"/>
<path d="M510 651 c0 -15 45 -75 55 -73 21 3 16 50 -7 66 -24 17 -48 21 -48 7z"/>
<path d="M40 635 c0 -17 43 -87 56 -92 38 -14 39 48 2 80 -19 16 -58 24 -58
12z"/>
<path d="M396 614 c-57 -15 -65 -21 -42 -30 20 -8 136 15 136 26 0 8 -27 21
-38 19 -4 -1 -29 -7 -56 -15z"/>
<path d="M425 545 c-22 -7 -55 -14 -74 -14 -27 -1 -32 -4 -26 -18 4 -10 13
-40 19 -68 6 -27 15 -50 19 -49 4 0 39 7 78 13 52 10 67 16 60 25 -7 8 -3 26
10 56 11 24 16 47 12 51 -16 15 -59 17 -98 4z m35 -59 c0 -30 -4 -36 -35 -46
-43 -14 -52 -9 -57 34 -4 33 -2 35 27 39 66 8 65 9 65 -27z"/>
<path d="M440 355 c-36 -7 -91 -16 -122 -20 -61 -7 -74 -20 -35 -34 12 -5 46
-28 76 -51 l53 -42 -43 -29 c-49 -33 -174 -84 -231 -94 -64 -12 -45 -28 25
-21 92 10 134 23 214 66 l72 38 62 -50 c72 -58 95 -68 150 -68 50 0 179 29
179 40 0 4 -30 13 -67 20 -82 15 -205 54 -251 78 l-34 18 61 62 c34 34 61 64
61 67 0 10 -60 35 -82 34 -13 -1 -52 -7 -88 -14z m53 -65 c-39 -55 -55 -58
-104 -18 l-41 33 53 11 c30 7 69 12 87 13 l33 1 -28 -40z"/>
</g>
</svg>
