<?xml version="1.0" standalone="no"?>
<!DOCTYPE svg PUBLIC "-//W3C//DTD SVG 20010904//EN"
 "http://www.w3.org/TR/2001/REC-SVG-20010904/DTD/svg10.dtd">
<svg version="1.0" xmlns="http://www.w3.org/2000/svg"
 width="96.000000pt" height="68.000000pt" viewBox="0 0 96.000000 68.000000"
 preserveAspectRatio="xMidYMid meet">
<metadata>
Created by potrace 1.16, written by Peter Selinger 2001-2019
</metadata>
<g transform="translate(0.000000,68.000000) scale(0.100000,-0.100000)"
fill="#000000" stroke="none">
<path d="M277 541 c7 -101 17 -88 -82 -108 -39 -8 -38 -8 23 -11 l62 -3 0 -52
0 -52 -90 -35 c-50 -19 -89 -39 -87 -45 2 -5 15 -14 28 -19 20 -7 36 -1 83 29
32 20 60 34 63 31 3 -3 2 -35 -2 -72 l-7 -66 -34 4 c-19 2 -34 2 -34 -2 0 -9
78 -70 89 -70 22 0 31 42 31 139 l0 101 40 25 c50 31 51 40 4 20 -20 -8 -38
-15 -40 -15 -2 0 -4 20 -4 44 0 43 0 44 40 50 49 8 53 26 5 26 -34 0 -35 1
-35 40 0 21 5 51 12 65 14 30 0 50 -44 60 l-27 7 6 -91z"/>
</g>
</svg>
