<?xml version="1.0" standalone="no"?>
<!DOCTYPE svg PUBLIC "-//W3C//DTD SVG 20010904//EN"
 "http://www.w3.org/TR/2001/REC-SVG-20010904/DTD/svg10.dtd">
<svg version="1.0" xmlns="http://www.w3.org/2000/svg"
 width="96.000000pt" height="68.000000pt" viewBox="0 0 96.000000 68.000000"
 preserveAspectRatio="xMidYMid meet">
<metadata>
Created by potrace 1.16, written by Peter Selinger 2001-2019
</metadata>
<g transform="translate(0.000000,68.000000) scale(0.100000,-0.100000)"
fill="#000000" stroke="none">
<path d="M515 603 c5 -10 10 -46 13 -79 l4 -62 -51 -7 c-61 -8 -58 -25 5 -25
42 0 44 -1 44 -29 0 -52 -8 -61 -59 -62 -25 -1 -57 -4 -71 -9 l-25 -7 28 -8
c15 -4 47 -4 72 -1 25 4 45 5 45 2 0 -3 -11 -29 -23 -58 -25 -56 -73 -109
-122 -136 -23 -12 -26 -17 -13 -20 23 -4 87 30 120 65 27 28 78 127 78 151 0
8 20 12 63 13 34 0 82 4 107 8 l45 8 -30 12 c-28 12 -109 9 -157 -5 -15 -5
-18 2 -18 39 0 48 11 57 72 57 34 0 58 9 58 22 0 7 -22 9 -60 5 l-60 -5 0 64
c0 52 -3 65 -19 74 -32 16 -54 13 -46 -7z"/>
</g>
</svg>
