<?xml version="1.0" standalone="no"?>
<!DOCTYPE svg PUBLIC "-//W3C//DTD SVG 20010904//EN"
 "http://www.w3.org/TR/2001/REC-SVG-20010904/DTD/svg10.dtd">
<svg version="1.0" xmlns="http://www.w3.org/2000/svg"
 width="96.000000pt" height="68.000000pt" viewBox="0 0 96.000000 68.000000"
 preserveAspectRatio="xMidYMid meet">
<metadata>
Created by potrace 1.16, written by Peter Selinger 2001-2019
</metadata>
<g transform="translate(0.000000,68.000000) scale(0.100000,-0.100000)"
fill="#000000" stroke="none">
<path d="M580 567 c0 -24 -6 -65 -14 -90 -7 -25 -12 -48 -9 -51 3 -2 -20 -7
-51 -11 -67 -9 -74 -25 -12 -25 44 0 44 0 37 -28 -21 -71 -60 -131 -148 -225
-51 -54 -51 -71 -1 -36 69 47 126 117 169 207 l42 89 66 7 c36 3 83 6 104 6
27 0 37 4 34 13 -3 9 -31 11 -101 10 -53 -1 -96 -1 -96 1 0 1 9 29 20 61 24
70 25 101 4 109 -36 14 -44 7 -44 -37z"/>
<path d="M230 514 c0 -5 11 -29 24 -54 l23 -45 -66 -10 c-64 -10 -84 -26 -41
-33 23 -4 28 -15 55 -106 10 -35 13 -62 8 -67 -6 -6 -33 -11 -61 -12 -57 -2
-61 -6 -34 -30 20 -19 53 -22 68 -8 5 6 43 21 84 35 106 35 140 49 140 58 0 8
-22 6 -69 -8 -21 -6 -22 -5 -13 13 19 35 44 107 43 126 0 10 7 21 15 24 21 8
17 30 -6 36 -12 3 -33 2 -49 -3 -25 -7 -27 -5 -24 14 3 13 -4 29 -19 43 -24
23 -78 41 -78 27z m106 -195 c-9 -79 -20 -105 -45 -112 -12 -3 -21 -2 -22 1
-7 64 -13 91 -29 123 l-20 38 23 4 c12 2 39 5 61 6 l39 1 -7 -61z"/>
<path d="M600 268 c-19 -39 -54 -92 -77 -118 l-42 -47 20 -21 c16 -18 23 -20
47 -11 40 16 152 49 187 54 26 5 33 1 49 -25 10 -17 23 -29 29 -27 17 5 20 42
7 67 -12 22 -90 83 -98 76 -2 -3 4 -18 14 -35 10 -17 16 -33 13 -35 -8 -8
-146 -28 -168 -24 -17 3 -12 14 41 93 44 67 57 94 50 105 -19 31 -37 18 -72
-52z"/>
</g>
</svg>
