<?xml version="1.0" standalone="no"?>
<!DOCTYPE svg PUBLIC "-//W3C//DTD SVG 20010904//EN"
 "http://www.w3.org/TR/2001/REC-SVG-20010904/DTD/svg10.dtd">
<svg version="1.0" xmlns="http://www.w3.org/2000/svg"
 width="96.000000pt" height="68.000000pt" viewBox="0 0 96.000000 68.000000"
 preserveAspectRatio="xMidYMid meet">
<metadata>
Created by potrace 1.16, written by Peter Selinger 2001-2019
</metadata>
<g transform="translate(0.000000,68.000000) scale(0.100000,-0.100000)"
fill="#000000" stroke="none">
<path d="M254 471 c14 -28 26 -52 26 -55 0 -3 -21 -8 -47 -11 -27 -4 -57 -9
-68 -12 -18 -6 -17 -7 7 -14 30 -8 228 17 241 30 13 13 -29 24 -63 16 -28 -6
-30 -5 -30 24 0 32 -21 52 -68 66 l-23 7 25 -51z"/>
</g>
</svg>
