<?xml version="1.0" standalone="no"?>
<!DOCTYPE svg PUBLIC "-//W3C//DTD SVG 20010904//EN"
 "http://www.w3.org/TR/2001/REC-SVG-20010904/DTD/svg10.dtd">
<svg version="1.0" xmlns="http://www.w3.org/2000/svg"
 width="96.000000pt" height="68.000000pt" viewBox="0 0 96.000000 68.000000"
 preserveAspectRatio="xMidYMid meet">
<metadata>
Created by potrace 1.16, written by Peter Selinger 2001-2019
</metadata>
<g transform="translate(0.000000,68.000000) scale(0.100000,-0.100000)"
fill="#000000" stroke="none">
<path d="M320 344 c-21 -9 -52 -14 -75 -11 l-41 4 23 -45 c13 -25 23 -56 23
-68 0 -27 17 -41 33 -25 6 6 25 11 42 11 41 0 47 7 69 69 17 53 17 55 0 68
-22 16 -31 16 -74 -3z m30 -58 c0 -37 -4 -45 -22 -50 -39 -10 -46 -7 -57 25
-16 45 -15 47 22 58 54 16 57 14 57 -33z"/>
</g>
</svg>
