<?xml version="1.0" standalone="no"?>
<!DOCTYPE svg PUBLIC "-//W3C//DTD SVG 20010904//EN"
 "http://www.w3.org/TR/2001/REC-SVG-20010904/DTD/svg10.dtd">
<svg version="1.0" xmlns="http://www.w3.org/2000/svg"
 width="96.000000pt" height="68.000000pt" viewBox="0 0 96.000000 68.000000"
 preserveAspectRatio="xMidYMid meet">
<metadata>
Created by potrace 1.16, written by Peter Selinger 2001-2019
</metadata>
<g transform="translate(0.000000,68.000000) scale(0.100000,-0.100000)"
fill="#000000" stroke="none">
<path d="M478 188 c3 -82 6 -96 28 -118 21 -22 33 -25 123 -28 98 -4 147 4
183 32 16 12 16 16 -6 70 l-24 58 -7 -41 c-11 -64 -40 -81 -140 -81 -105 0
-121 13 -111 92 3 29 7 64 8 78 3 21 -2 25 -27 28 l-30 3 3 -93z"/>
</g>
</svg>
