<?xml version="1.0" standalone="no"?>
<!DOCTYPE svg PUBLIC "-//W3C//DTD SVG 20010904//EN"
 "http://www.w3.org/TR/2001/REC-SVG-20010904/DTD/svg10.dtd">
<svg version="1.0" xmlns="http://www.w3.org/2000/svg"
 width="96.000000pt" height="68.000000pt" viewBox="0 0 96.000000 68.000000"
 preserveAspectRatio="xMidYMid meet">
<metadata>
Created by potrace 1.16, written by Peter Selinger 2001-2019
</metadata>
<g transform="translate(0.000000,68.000000) scale(0.100000,-0.100000)"
fill="#000000" stroke="none">
<path d="M557 490 l6 -39 -42 -7 c-52 -8 -53 -24 -1 -24 39 0 40 -1 40 -34 0
-30 -4 -34 -31 -40 -17 -3 -43 -6 -57 -6 -20 0 -23 -3 -14 -12 9 -9 43 -8 143
2 116 11 130 15 114 26 -13 10 -34 12 -67 8 l-48 -7 0 36 c0 37 12 47 55 47
13 0 27 5 30 10 4 6 -11 10 -37 10 l-44 0 4 35 c4 33 3 35 -26 35 -29 0 -30
-1 -25 -40z"/>
</g>
</svg>
