<?xml version="1.0" standalone="no"?>
<!DOCTYPE svg PUBLIC "-//W3C//DTD SVG 20010904//EN"
 "http://www.w3.org/TR/2001/REC-SVG-20010904/DTD/svg10.dtd">
<svg version="1.0" xmlns="http://www.w3.org/2000/svg"
 width="90.000000pt" height="92.000000pt" viewBox="0 0 90.000000 92.000000"
 preserveAspectRatio="xMidYMid meet">
<metadata>
Created by potrace 1.16, written by Peter Selinger 2001-2019
</metadata>
<g transform="translate(0.000000,92.000000) scale(0.100000,-0.100000)"
fill="#000000" stroke="none">
<path d="M580 793 c-41 -13 -97 -27 -125 -30 -73 -7 -80 -10 -65 -28 17 -21
43 -19 133 10 43 14 89 25 103 25 l26 0 -19 -28 c-10 -16 -29 -43 -43 -61 -24
-29 -28 -31 -57 -20 -61 21 -70 8 -24 -37 l41 -42 -31 -6 c-17 -3 -57 -6 -88
-6 l-56 0 -1 -138 c0 -77 -6 -156 -13 -181 -10 -34 -10 -50 0 -72 13 -33 25
-37 33 -11 4 15 26 130 26 139 0 2 27 3 60 3 l60 0 1 -72 c1 -40 2 -77 4 -83
1 -5 3 -17 3 -24 1 -10 5 -12 12 -5 12 12 33 160 25 173 -9 15 10 22 86 30
l72 7 -7 -65 c-3 -35 -10 -69 -15 -74 -6 -6 -24 -6 -50 1 l-41 10 51 -59 c42
-49 54 -57 66 -47 37 30 43 64 43 237 0 93 4 181 10 195 12 33 6 48 -29 69
-27 16 -34 16 -96 2 -37 -9 -69 -15 -70 -13 -2 2 -6 14 -9 28 -5 21 2 31 42
61 26 19 62 44 80 54 41 24 40 38 -2 64 -40 25 -42 25 -136 -6z m151 -250 c1
-10 3 -28 4 -40 2 -19 -3 -23 -25 -23 -15 0 -48 -3 -73 -6 l-47 -7 2 47 2 46
68 0 c58 0 68 -3 69 -17z m-191 -43 c0 -43 0 -43 -84 -54 l-39 -5 6 40 c3 22
8 43 11 47 8 7 88 20 99 15 4 -3 7 -22 7 -43z m198 -125 c-2 -1 -36 -5 -75 -9
l-73 -6 0 34 0 35 58 6 c31 3 64 7 72 8 10 2 16 -8 18 -31 2 -19 2 -35 0 -37z
m-198 11 c0 -31 -3 -34 -37 -40 -76 -12 -83 -9 -83 28 0 33 2 35 38 39 85 9
82 10 82 -27z"/>
<path d="M160 797 c0 -8 13 -39 30 -70 21 -39 26 -57 17 -60 -7 -3 -54 -11
-105 -18 -98 -14 -115 -27 -62 -49 25 -10 40 -10 88 3 31 9 97 23 146 32 49 8
91 17 93 19 11 11 -35 30 -68 29 -38 -2 -39 -1 -39 31 0 41 -16 61 -62 81 -31
13 -38 13 -38 2z"/>
<path d="M178 541 c-31 -9 -60 -19 -63 -23 -15 -15 49 -20 108 -8 70 15 89 26
67 40 -20 13 -44 11 -112 -9z"/>
<path d="M218 455 c-3 -3 -25 -9 -48 -13 -60 -10 -65 -32 -8 -32 50 1 126 14
136 24 3 4 0 11 -8 16 -16 10 -63 13 -72 5z"/>
<path d="M215 344 c-22 -9 -61 -15 -86 -15 l-46 0 18 -37 c11 -20 19 -44 19
-54 0 -30 30 -94 38 -81 4 6 25 14 47 18 94 15 97 16 85 30 -9 10 -5 28 16 71
26 55 26 58 9 71 -23 16 -49 16 -100 -3z m37 -36 c2 -7 2 -29 -2 -48 -4 -29
-11 -37 -40 -46 -40 -13 -44 -10 -53 48 -5 35 -4 37 31 46 52 14 59 14 64 0z"/>
</g>
</svg>
