<?xml version="1.0" standalone="no"?>
<!DOCTYPE svg PUBLIC "-//W3C//DTD SVG 20010904//EN"
 "http://www.w3.org/TR/2001/REC-SVG-20010904/DTD/svg10.dtd">
<svg version="1.0" xmlns="http://www.w3.org/2000/svg"
 width="96.000000pt" height="68.000000pt" viewBox="0 0 96.000000 68.000000"
 preserveAspectRatio="xMidYMid meet">
<metadata>
Created by potrace 1.16, written by Peter Selinger 2001-2019
</metadata>
<g transform="translate(0.000000,68.000000) scale(0.100000,-0.100000)"
fill="#000000" stroke="none">
<path d="M510 277 c0 -28 -19 -34 -142 -44 -43 -3 -78 -10 -78 -14 0 -17 55
-22 117 -9 35 7 66 10 68 8 8 -8 -79 -89 -138 -129 -38 -25 -52 -39 -40 -39
26 0 130 64 176 108 l37 36 0 -75 c0 -85 18 -130 38 -93 6 11 9 46 9 78 -1 32
1 60 4 62 4 2 37 -23 73 -56 69 -63 96 -71 166 -51 22 6 16 10 -47 35 -64 24
-202 111 -203 127 0 10 86 19 181 19 50 0 89 4 89 10 0 17 -65 28 -122 19 -30
-5 -74 -10 -97 -12 -37 -3 -41 -1 -39 17 2 16 -3 22 -24 24 -24 3 -28 0 -28
-21z"/>
</g>
</svg>
