<?xml version="1.0" standalone="no"?>
<!DOCTYPE svg PUBLIC "-//W3C//DTD SVG 20010904//EN"
 "http://www.w3.org/TR/2001/REC-SVG-20010904/DTD/svg10.dtd">
<svg version="1.0" xmlns="http://www.w3.org/2000/svg"
 width="96.000000pt" height="68.000000pt" viewBox="0 0 96.000000 68.000000"
 preserveAspectRatio="xMidYMid meet">
<metadata>
Created by potrace 1.16, written by Peter Selinger 2001-2019
</metadata>
<g transform="translate(0.000000,68.000000) scale(0.100000,-0.100000)"
fill="#000000" stroke="none">
<path d="M270 269 c-25 -4 -56 -6 -70 -3 l-25 4 1 -103 c1 -111 7 -135 29
-117 19 16 175 26 175 11 0 -15 27 -14 37 1 4 7 10 53 13 103 4 73 2 92 -10
102 -17 14 -82 15 -150 2z m110 -59 c0 -13 -17 -18 -80 -26 l-80 -9 0 32 c0
34 -8 31 110 46 27 3 50 -17 50 -43z m-5 -79 l0 -33 -77 -5 -78 -4 0 35 0 35
63 4 c93 5 92 6 92 -32z"/>
</g>
</svg>
