<?xml version="1.0" standalone="no"?>
<!DOCTYPE svg PUBLIC "-//W3C//DTD SVG 20010904//EN"
 "http://www.w3.org/TR/2001/REC-SVG-20010904/DTD/svg10.dtd">
<svg version="1.0" xmlns="http://www.w3.org/2000/svg"
 width="90.000000pt" height="92.000000pt" viewBox="0 0 90.000000 92.000000"
 preserveAspectRatio="xMidYMid meet">
<metadata>
Created by potrace 1.16, written by Peter Selinger 2001-2019
</metadata>
<g transform="translate(0.000000,92.000000) scale(0.100000,-0.100000)"
fill="#000000" stroke="none">
<path d="M490 880 c0 -26 -28 -96 -57 -142 -30 -50 -14 -48 42 3 30 28 50 39
61 35 20 -8 185 13 198 25 5 4 -2 13 -17 20 -21 9 -42 9 -104 -4 -43 -8 -80
-13 -82 -11 -2 2 3 14 12 27 15 23 14 26 -7 46 -28 26 -46 27 -46 1z"/>
<path d="M205 848 c-10 -45 -47 -116 -89 -171 -20 -26 -32 -47 -27 -47 12 0
69 47 98 81 20 23 31 27 114 32 96 6 110 10 92 28 -14 14 -42 15 -112 4 l-55
-8 22 31 c28 38 27 47 0 66 -31 22 -35 20 -43 -16z"/>
<path d="M530 733 c0 -19 79 -86 94 -80 23 9 19 44 -6 61 -29 18 -88 31 -88
19z"/>
<path d="M220 693 c0 -15 55 -63 72 -63 30 0 24 48 -8 60 -29 12 -64 13 -64 3z"/>
<path d="M405 660 c-3 -5 -37 -28 -75 -51 -61 -36 -74 -40 -109 -34 l-40 7 6
-69 c10 -125 -36 -253 -131 -367 -31 -38 -35 -46 -17 -36 43 22 108 89 132
135 13 25 27 45 30 45 9 0 22 -147 15 -159 -4 -5 -1 -21 6 -36 11 -25 13 -25
25 -9 7 10 13 39 13 66 l0 48 51 0 c48 0 51 -2 46 -22 -7 -25 10 -61 24 -53 5
4 9 21 9 39 0 29 4 34 31 40 60 12 71 8 69 -22 -7 -105 20 -127 32 -27 4 32 9
59 10 60 2 1 31 5 66 8 l62 5 0 -31 c0 -18 -3 -43 -7 -56 -5 -21 -10 -22 -44
-17 l-38 6 31 -50 c32 -52 36 -54 63 -44 28 11 45 61 54 161 5 54 11 105 15
113 3 8 2 20 -2 25 -14 20 -64 55 -72 50 -11 -7 -355 -45 -407 -45 -42 0 -42
0 -32 29 10 27 14 29 87 36 42 4 122 10 177 14 93 6 100 7 101 27 1 12 11 35
23 52 28 40 27 49 -10 67 -25 13 -40 14 -82 6 -29 -6 -88 -15 -132 -21 -44 -6
-93 -13 -109 -16 -55 -11 -17 13 71 45 147 54 138 49 118 71 -19 21 -50 26
-60 10z m145 -155 c0 -32 -18 -39 -145 -54 -55 -6 -115 -14 -132 -16 -29 -3
-33 -1 -33 18 0 12 4 28 8 34 12 19 129 38 245 41 55 2 57 1 57 -23z m-71
-256 c-8 -5 -31 -9 -51 -9 -38 0 -38 1 -38 39 0 40 0 40 43 43 40 3 42 2 51
-31 6 -25 5 -35 -5 -42z m179 44 l3 -31 -66 -4 -67 -3 6 27 c4 19 0 30 -12 38
-12 7 3 9 58 7 l75 -2 3 -32z m-306 -22 l3 -39 -47 -4 c-49 -3 -60 4 -53 38 2
11 4 22 4 26 1 8 27 15 62 17 24 1 27 -3 31 -38z"/>
</g>
</svg>
