<?xml version="1.0" standalone="no"?>
<!DOCTYPE svg PUBLIC "-//W3C//DTD SVG 20010904//EN"
 "http://www.w3.org/TR/2001/REC-SVG-20010904/DTD/svg10.dtd">
<svg version="1.0" xmlns="http://www.w3.org/2000/svg"
 width="96.000000pt" height="68.000000pt" viewBox="0 0 96.000000 68.000000"
 preserveAspectRatio="xMidYMid meet">
<metadata>
Created by potrace 1.16, written by Peter Selinger 2001-2019
</metadata>
<g transform="translate(0.000000,68.000000) scale(0.100000,-0.100000)"
fill="#000000" stroke="none">
<path d="M505 232 c-93 -8 -173 -19 -176 -25 -4 -5 -2 -23 3 -39 6 -16 8 -45
5 -64 -7 -42 0 -64 19 -64 11 0 14 18 14 79 l0 79 64 7 c36 4 115 8 178 9
l113 1 3 -35 c2 -19 1 -54 -3 -78 -6 -42 -7 -43 -36 -37 -16 4 -29 4 -29 0 0
-13 45 -65 56 -65 25 0 52 50 58 107 4 32 9 72 12 89 5 25 1 32 -21 42 -31 14
-38 14 -260 -6z"/>
</g>
</svg>
