<?xml version="1.0" standalone="no"?>
<!DOCTYPE svg PUBLIC "-//W3C//DTD SVG 20010904//EN"
 "http://www.w3.org/TR/2001/REC-SVG-20010904/DTD/svg10.dtd">
<svg version="1.0" xmlns="http://www.w3.org/2000/svg"
 width="96.000000pt" height="68.000000pt" viewBox="0 0 96.000000 68.000000"
 preserveAspectRatio="xMidYMid meet">
<metadata>
Created by potrace 1.16, written by Peter Selinger 2001-2019
</metadata>
<g transform="translate(0.000000,68.000000) scale(0.100000,-0.100000)"
fill="#000000" stroke="none">
<path d="M605 594 c-11 -9 -50 -31 -87 -50 -52 -26 -74 -32 -99 -27 -31 6 -32
5 -26 -23 12 -64 -34 -281 -64 -300 -5 -3 -9 -10 -9 -16 0 -6 11 -1 24 11 35
33 74 127 87 212 6 41 13 79 14 85 2 5 53 25 114 44 62 18 115 38 118 43 6 11
-24 37 -41 37 -6 0 -20 -8 -31 -16z"/>
</g>
</svg>
