<?xml version="1.0" standalone="no"?>
<!DOCTYPE svg PUBLIC "-//W3C//DTD SVG 20010904//EN"
 "http://www.w3.org/TR/2001/REC-SVG-20010904/DTD/svg10.dtd">
<svg version="1.0" xmlns="http://www.w3.org/2000/svg"
 width="96.000000pt" height="68.000000pt" viewBox="0 0 96.000000 68.000000"
 preserveAspectRatio="xMidYMid meet">
<metadata>
Created by potrace 1.16, written by Peter Selinger 2001-2019
</metadata>
<g transform="translate(0.000000,68.000000) scale(0.100000,-0.100000)"
fill="#000000" stroke="none">
<path d="M630 539 c-19 -5 -60 -10 -90 -10 l-55 -2 0 -103 c0 -90 2 -104 17
-104 9 0 18 4 20 8 4 13 148 23 148 11 0 -5 9 -9 20 -9 18 0 20 7 20 69 0 38
3 82 6 98 5 24 2 31 -21 41 -14 7 -27 12 -28 11 -1 -1 -18 -5 -37 -10z m34
-35 c16 -41 7 -49 -59 -62 -87 -16 -85 -17 -85 21 0 30 4 35 38 44 58 16 99
15 106 -3z m6 -103 c0 -27 -2 -29 -61 -35 -33 -4 -67 -10 -75 -13 -10 -4 -14
3 -14 25 0 28 2 30 63 39 34 6 68 11 75 12 7 0 12 -11 12 -28z"/>
</g>
</svg>
