<?xml version="1.0" standalone="no"?>
<!DOCTYPE svg PUBLIC "-//W3C//DTD SVG 20010904//EN"
 "http://www.w3.org/TR/2001/REC-SVG-20010904/DTD/svg10.dtd">
<svg version="1.0" xmlns="http://www.w3.org/2000/svg"
 width="96.000000pt" height="68.000000pt" viewBox="0 0 96.000000 68.000000"
 preserveAspectRatio="xMidYMid meet">
<metadata>
Created by potrace 1.16, written by Peter Selinger 2001-2019
</metadata>
<g transform="translate(0.000000,68.000000) scale(0.100000,-0.100000)"
fill="#000000" stroke="none">
<path d="M405 588 c-104 -10 -192 -22 -195 -24 -3 -3 4 -12 15 -20 17 -12 20
-25 18 -74 -3 -113 -56 -246 -133 -332 -36 -42 -39 -48 -21 -48 29 0 115 90
146 154 14 30 36 102 48 160 12 58 24 106 28 106 3 0 10 -17 15 -37 5 -21 15
-38 22 -37 6 1 38 2 71 3 l58 1 13 45 c7 25 10 48 6 52 -8 9 -77 5 -132 -7
-47 -11 -70 -6 -45 9 17 11 92 19 254 27 129 7 154 14 118 33 -25 14 -57 13
-286 -11z m45 -77 c0 -4 -19 -13 -42 -18 l-43 -11 43 -1 c49 -1 56 -16 11 -25
-56 -11 -66 -8 -72 21 -3 16 -3 31 0 35 6 11 103 10 103 -1z"/>
<path d="M582 483 c3 -58 3 -58 -27 -61 -46 -5 -55 -22 -12 -22 49 0 48 -18
-4 -75 -27 -30 -36 -45 -26 -45 22 0 77 48 88 77 5 12 12 23 17 23 5 0 32 -27
61 -60 52 -60 53 -60 107 -60 30 0 54 5 54 10 0 6 -7 10 -15 10 -39 0 -201
102 -190 120 2 4 23 10 45 14 57 9 51 28 -7 25 l-48 -3 0 52 c1 48 -1 52 -22
52 -22 0 -23 -3 -21 -57z"/>
<path d="M670 502 c0 -12 34 -42 48 -42 18 0 25 20 12 35 -13 16 -60 21 -60 7z"/>
<path d="M393 417 l-63 -11 0 -42 c0 -23 -3 -56 -6 -73 -5 -24 -3 -31 10 -31
9 0 16 8 16 19 0 25 5 27 63 36 32 5 47 4 47 -4 0 -6 -7 -11 -16 -11 -19 0
-14 -20 9 -34 24 -16 31 -1 37 76 5 59 3 71 -12 79 -9 5 -18 8 -20 7 -2 0 -31
-6 -65 -11z m62 -18 c9 -14 7 -15 -47 -23 -39 -6 -48 -4 -48 8 0 9 12 16 33
19 17 2 37 5 44 5 6 1 15 -3 18 -9z m3 -51 c-5 -15 -98 -24 -98 -10 0 12 23
19 68 21 23 1 32 -3 30 -11z"/>
<path d="M480 254 c-47 -7 -94 -13 -104 -14 -32 0 -5 -18 32 -22 31 -3 32 -4
18 -23 -12 -17 -26 -20 -84 -20 l-71 0 19 -30 c10 -16 21 -52 25 -78 7 -43 10
-48 29 -43 11 3 82 8 157 12 134 7 137 6 144 -15 7 -22 21 -26 43 -12 7 4 22
43 33 87 l20 79 -22 18 c-15 12 -32 16 -53 12 -65 -11 -210 -24 -215 -20 -9
10 39 45 62 45 43 0 137 22 131 31 -7 12 -62 10 -164 -7z m188 -131 c2 -29 -1
-53 -5 -54 -79 -5 -99 -5 -103 2 -3 4 -4 28 -2 53 4 49 13 55 72 53 35 -2 35
-2 38 -54z m-150 35 c-5 -15 -78 -24 -78 -9 0 12 18 19 53 20 19 1 27 -3 25
-11z m-100 -55 l3 -53 -35 0 c-40 0 -41 1 -51 57 -7 45 2 53 55 50 23 -2 25
-6 28 -54z m102 13 c0 -8 -14 -15 -35 -18 -37 -4 -51 16 -17 25 34 9 52 7 52
-7z m0 -46 c0 -5 -16 -10 -35 -10 -19 0 -35 5 -35 10 0 6 16 10 35 10 19 0 35
-4 35 -10z"/>
</g>
</svg>
