<?xml version="1.0" standalone="no"?>
<!DOCTYPE svg PUBLIC "-//W3C//DTD SVG 20010904//EN"
 "http://www.w3.org/TR/2001/REC-SVG-20010904/DTD/svg10.dtd">
<svg version="1.0" xmlns="http://www.w3.org/2000/svg"
 width="96.000000pt" height="68.000000pt" viewBox="0 0 96.000000 68.000000"
 preserveAspectRatio="xMidYMid meet">
<metadata>
Created by potrace 1.16, written by Peter Selinger 2001-2019
</metadata>
<g transform="translate(0.000000,68.000000) scale(0.100000,-0.100000)"
fill="#000000" stroke="none">
<path d="M585 494 c-24 -9 -59 -14 -87 -11 l-48 4 0 -80 0 -79 88 7 c104 8
134 14 126 26 -3 5 6 35 21 66 24 54 25 58 9 70 -23 17 -59 15 -109 -3z m40
-71 c-4 -27 -8 -50 -10 -51 -2 -2 -31 -6 -65 -9 l-61 -6 3 49 c3 47 4 49 38
55 19 4 50 7 69 8 l33 1 -7 -47z"/>
</g>
</svg>
