<?xml version="1.0" standalone="no"?>
<!DOCTYPE svg PUBLIC "-//W3C//DTD SVG 20010904//EN"
 "http://www.w3.org/TR/2001/REC-SVG-20010904/DTD/svg10.dtd">
<svg version="1.0" xmlns="http://www.w3.org/2000/svg"
 width="96.000000pt" height="68.000000pt" viewBox="0 0 96.000000 68.000000"
 preserveAspectRatio="xMidYMid meet">
<metadata>
Created by potrace 1.16, written by Peter Selinger 2001-2019
</metadata>
<g transform="translate(0.000000,68.000000) scale(0.100000,-0.100000)"
fill="#000000" stroke="none">
<path d="M245 558 c-22 -5 -55 -7 -73 -4 -31 5 -32 3 -25 -17 4 -12 7 -77 5
-145 -3 -87 0 -127 9 -138 17 -21 29 0 29 54 0 33 4 42 18 42 9 0 41 3 70 7
l54 6 -3 -46 c-3 -54 13 -80 35 -57 21 22 25 288 5 301 -18 11 -72 10 -124 -3z
m73 -20 c7 -7 12 -24 12 -38 0 -24 -4 -27 -66 -36 -36 -5 -67 -8 -70 -5 -2 2
-4 19 -4 37 0 27 5 35 23 38 12 3 31 7 42 9 37 8 51 7 63 -5z m12 -123 c0 -30
-3 -35 -24 -35 -13 0 -44 -3 -70 -6 l-46 -7 0 36 0 36 53 4 c28 2 60 4 70 5
13 2 17 -6 17 -33z"/>
</g>
</svg>
