<?xml version="1.0" standalone="no"?>
<!DOCTYPE svg PUBLIC "-//W3C//DTD SVG 20010904//EN"
 "http://www.w3.org/TR/2001/REC-SVG-20010904/DTD/svg10.dtd">
<svg version="1.0" xmlns="http://www.w3.org/2000/svg"
 width="96.000000pt" height="68.000000pt" viewBox="0 0 96.000000 68.000000"
 preserveAspectRatio="xMidYMid meet">
<metadata>
Created by potrace 1.16, written by Peter Selinger 2001-2019
</metadata>
<g transform="translate(0.000000,68.000000) scale(0.100000,-0.100000)"
fill="#000000" stroke="none">
<path d="M560 458 c-36 -6 -93 -11 -127 -12 -35 0 -63 -2 -63 -3 0 -1 9 -17
19 -35 11 -18 23 -50 26 -70 5 -24 13 -38 22 -38 13 0 15 9 10 43 -3 24 -9 50
-12 59 -7 18 13 23 127 34 43 4 78 3 81 -3 3 -5 1 -30 -5 -57 -5 -26 -8 -50
-5 -53 8 -8 47 7 47 18 0 6 11 27 25 47 31 46 31 56 0 70 -29 14 -53 13 -145
0z"/>
</g>
</svg>
