<?xml version="1.0" standalone="no"?>
<!DOCTYPE svg PUBLIC "-//W3C//DTD SVG 20010904//EN"
 "http://www.w3.org/TR/2001/REC-SVG-20010904/DTD/svg10.dtd">
<svg version="1.0" xmlns="http://www.w3.org/2000/svg"
 width="96.000000pt" height="68.000000pt" viewBox="0 0 96.000000 68.000000"
 preserveAspectRatio="xMidYMid meet">
<metadata>
Created by potrace 1.16, written by Peter Selinger 2001-2019
</metadata>
<g transform="translate(0.000000,68.000000) scale(0.100000,-0.100000)"
fill="#000000" stroke="none">
<path d="M215 499 c-16 -5 -43 -7 -60 -4 l-30 5 1 -156 c1 -104 5 -159 13
-167 9 -9 14 -9 19 0 4 7 26 15 49 19 39 6 43 4 54 -20 15 -32 24 -33 43 -3
21 32 25 315 5 328 -17 11 -55 10 -94 -2z m65 -80 l0 -59 -32 0 c-18 0 -43 -3
-55 -6 -22 -6 -23 -4 -23 55 0 58 1 61 28 67 15 3 32 7 37 8 6 2 18 1 28 -2
14 -3 17 -16 17 -63z m0 -134 c0 -61 1 -60 -72 -70 -48 -6 -48 -6 -48 23 0 85
11 97 88 101 l32 1 0 -55z"/>
</g>
</svg>
