<?xml version="1.0" standalone="no"?>
<!DOCTYPE svg PUBLIC "-//W3C//DTD SVG 20010904//EN"
 "http://www.w3.org/TR/2001/REC-SVG-20010904/DTD/svg10.dtd">
<svg version="1.0" xmlns="http://www.w3.org/2000/svg"
 width="96.000000pt" height="68.000000pt" viewBox="0 0 96.000000 68.000000"
 preserveAspectRatio="xMidYMid meet">
<metadata>
Created by potrace 1.16, written by Peter Selinger 2001-2019
</metadata>
<g transform="translate(0.000000,68.000000) scale(0.100000,-0.100000)"
fill="#000000" stroke="none">
<path d="M776 125 c9 -14 20 -25 25 -25 5 0 8 -6 7 -12 -2 -7 2 -12 9 -11 7 2
10 -4 7 -12 -4 -8 -2 -15 4 -15 16 0 20 35 7 53 -7 9 -15 14 -18 10 -4 -3 -7
-2 -7 4 0 5 -11 15 -25 21 -25 12 -25 12 -9 -13z"/>
<path d="M374 100 c-31 -47 -27 -85 6 -55 22 20 46 80 28 69 -8 -5 -9 -2 -5 9
11 29 -2 19 -29 -23z"/>
<path d="M641 118 c15 -30 24 -38 16 -15 -4 11 -3 16 3 12 6 -3 10 -12 10 -20
0 -8 4 -17 10 -20 16 -10 7 39 -10 52 -26 22 -42 16 -29 -9z"/>
<path d="M517 124 c-11 -11 -8 -26 4 -19 6 4 9 0 7 -11 -2 -12 4 -19 17 -22
15 -2 17 -1 6 6 -8 6 -11 17 -8 27 4 9 3 14 -2 10 -5 -3 -11 0 -13 6 -2 5 -7
7 -11 3z"/>
</g>
</svg>
