<?xml version="1.0" standalone="no"?>
<!DOCTYPE svg PUBLIC "-//W3C//DTD SVG 20010904//EN"
 "http://www.w3.org/TR/2001/REC-SVG-20010904/DTD/svg10.dtd">
<svg version="1.0" xmlns="http://www.w3.org/2000/svg"
 width="90.000000pt" height="92.000000pt" viewBox="0 0 90.000000 92.000000"
 preserveAspectRatio="xMidYMid meet">
<metadata>
Created by potrace 1.16, written by Peter Selinger 2001-2019
</metadata>
<g transform="translate(0.000000,92.000000) scale(0.100000,-0.100000)"
fill="#000000" stroke="none">
<path d="M576 843 c4 -10 9 -55 12 -99 l4 -81 -58 -8 c-31 -4 -67 -10 -78 -15
-20 -7 -20 -8 6 -20 21 -10 37 -10 74 -1 25 7 48 10 50 8 3 -2 0 -34 -5 -71
-10 -68 -2 -116 19 -116 18 0 30 49 30 126 l0 74 58 1 c31 0 66 4 77 8 18 7
18 9 -8 26 -23 15 -35 16 -79 7 l-51 -10 6 85 c6 83 6 84 -19 93 -37 15 -47
12 -38 -7z"/>
<path d="M700 802 c-7 -20 -21 -49 -32 -64 -26 -37 -15 -35 48 8 45 31 52 40
43 55 -5 10 -18 23 -27 28 -16 8 -21 4 -32 -27z"/>
<path d="M215 789 c5 -8 19 -30 31 -50 l23 -36 -102 -15 c-81 -11 -101 -17
-97 -28 10 -29 3 -246 -9 -305 -7 -33 -24 -95 -37 -138 -31 -94 -27 -117 10
-54 29 48 59 138 71 206 l6 38 81 7 c61 5 83 4 90 -6 5 -7 7 -68 6 -135 -2
-123 2 -145 26 -128 45 34 125 100 122 102 -1 1 -26 -6 -54 -17 l-52 -20 0 54
c0 47 3 54 23 60 27 7 52 8 45 1 -3 -3 12 -25 33 -48 22 -23 39 -45 39 -49 0
-4 -28 -37 -61 -73 -64 -67 -67 -75 -21 -51 46 24 104 92 153 178 25 45 51 84
57 86 16 5 14 -44 -3 -92 -8 -22 -11 -44 -8 -49 3 -5 32 -6 64 -2 l59 7 0
-103 c0 -80 3 -100 12 -91 7 7 14 51 16 102 l4 90 54 0 c58 0 78 15 48 37 -13
9 -31 12 -56 8 l-38 -7 0 51 c0 49 0 50 35 57 19 3 35 10 35 15 0 14 -38 29
-56 22 -14 -5 -16 -2 -11 19 7 27 -2 39 -37 52 -17 6 -18 3 -13 -38 6 -39 4
-44 -16 -50 -37 -10 -102 -7 -114 5 -9 9 -23 9 -52 2 -32 -9 -38 -8 -34 3 6
17 -14 44 -33 44 -8 0 -14 -8 -14 -19 0 -10 -5 -31 -10 -47 -9 -26 -15 -29
-55 -30 -43 -1 -45 0 -45 27 0 16 -7 32 -17 38 -14 8 -8 10 29 11 37 0 48 4
53 19 3 10 19 21 36 25 16 3 51 26 76 50 41 38 45 46 34 60 -19 23 -34 20 -48
-11 -14 -31 -73 -97 -80 -90 -2 3 3 22 11 42 20 47 21 42 -11 58 -18 9 -36 11
-48 6 -34 -13 -37 -10 -31 24 5 29 3 36 -16 45 -20 9 -17 11 27 12 28 1 59 5
70 9 18 7 18 9 -8 26 -20 13 -38 16 -67 11 -39 -6 -40 -5 -34 18 6 27 -18 49
-70 62 -23 6 -27 4 -21 -7z m69 -141 c8 -32 7 -78 -1 -78 -5 0 -18 -3 -30 -6
-20 -5 -22 -2 -25 37 -3 38 -6 45 -28 49 -19 3 -15 6 20 11 25 3 48 7 51 7 4
1 9 -8 13 -20z m-105 -29 c19 -54 15 -69 -19 -69 -26 0 -30 4 -30 28 0 72 30
96 49 41z m193 -99 c-4 -52 -8 -58 -37 -52 -25 4 -26 7 -20 41 7 38 21 53 45
48 11 -2 14 -13 12 -37z m-92 -20 c0 -22 -4 -40 -9 -40 -5 0 -16 -3 -25 -6
-13 -5 -16 1 -16 33 0 44 5 53 32 53 14 0 18 -8 18 -40z m-90 -51 c-3 -4 -20
-9 -37 -12 l-33 -6 0 44 c0 42 1 44 33 47 30 3 32 1 37 -32 3 -19 3 -38 0 -41z
m325 -135 c-18 -47 -26 -52 -44 -30 -7 8 -23 17 -38 21 l-26 6 28 29 c27 28
86 45 94 27 2 -5 -4 -28 -14 -53z m190 -4 c0 -44 0 -45 -36 -48 l-36 -3 10 51
c9 47 12 51 36 48 24 -3 26 -7 26 -48z"/>
<path d="M460 763 c0 -14 52 -73 64 -73 16 0 27 24 20 44 -9 22 -84 49 -84 29z"/>
<path d="M684 559 c27 -24 62 -52 77 -62 25 -17 30 -17 35 -4 3 9 4 24 2 34
-3 20 -75 59 -128 69 l-35 7 49 -44z"/>
<path d="M135 298 c0 -57 -3 -110 -8 -118 -4 -9 -2 -24 7 -35 13 -18 16 -17
79 30 37 28 66 53 67 57 0 3 -21 0 -47 -8 -56 -17 -67 -9 -58 40 7 32 10 36
39 36 17 0 38 5 46 10 13 9 13 11 0 20 -14 9 -29 7 -69 -8 -11 -4 -13 1 -8 25
6 32 -6 53 -32 53 -13 0 -16 -17 -16 -102z"/>
</g>
</svg>
