<?xml version="1.0" standalone="no"?>
<!DOCTYPE svg PUBLIC "-//W3C//DTD SVG 20010904//EN"
 "http://www.w3.org/TR/2001/REC-SVG-20010904/DTD/svg10.dtd">
<svg version="1.0" xmlns="http://www.w3.org/2000/svg"
 width="96.000000pt" height="68.000000pt" viewBox="0 0 96.000000 68.000000"
 preserveAspectRatio="xMidYMid meet">
<metadata>
Created by potrace 1.16, written by Peter Selinger 2001-2019
</metadata>
<g transform="translate(0.000000,68.000000) scale(0.100000,-0.100000)"
fill="#000000" stroke="none">
<path d="M282 538 c30 -39 58 -48 58 -19 0 23 -35 51 -64 51 -17 0 -17 -3 6
-32z"/>
<path d="M285 479 c-77 -9 -141 -17 -143 -18 -2 -1 4 -9 13 -18 31 -30 6 -205
-46 -320 -30 -69 -24 -82 15 -31 37 50 64 131 82 249 l16 106 52 7 c28 3 74 6
101 7 28 1 61 4 74 8 l24 6 -24 11 c-17 7 -63 5 -164 -7z"/>
</g>
</svg>
