<?xml version="1.0" standalone="no"?>
<!DOCTYPE svg PUBLIC "-//W3C//DTD SVG 20010904//EN"
 "http://www.w3.org/TR/2001/REC-SVG-20010904/DTD/svg10.dtd">
<svg version="1.0" xmlns="http://www.w3.org/2000/svg"
 width="96.000000pt" height="68.000000pt" viewBox="0 0 96.000000 68.000000"
 preserveAspectRatio="xMidYMid meet">
<metadata>
Created by potrace 1.16, written by Peter Selinger 2001-2019
</metadata>
<g transform="translate(0.000000,68.000000) scale(0.100000,-0.100000)"
fill="#000000" stroke="none">
<path d="M544 463 c-9 -30 -23 -57 -41 -83 -18 -25 -18 -25 19 3 l38 28 30
-23 c22 -15 33 -19 41 -11 8 8 4 15 -12 27 -13 9 -29 16 -36 16 -16 0 -17 12
-2 27 6 6 8 16 5 22 -11 17 -36 13 -42 -6z"/>
</g>
</svg>
