<?xml version="1.0" standalone="no"?>
<!DOCTYPE svg PUBLIC "-//W3C//DTD SVG 20010904//EN"
 "http://www.w3.org/TR/2001/REC-SVG-20010904/DTD/svg10.dtd">
<svg version="1.0" xmlns="http://www.w3.org/2000/svg"
 width="90.000000pt" height="92.000000pt" viewBox="0 0 90.000000 92.000000"
 preserveAspectRatio="xMidYMid meet">
<metadata>
Created by potrace 1.16, written by Peter Selinger 2001-2019
</metadata>
<g transform="translate(0.000000,92.000000) scale(0.100000,-0.100000)"
fill="#000000" stroke="none">
<path d="M256 902 c-2 -4 0 -27 4 -52 5 -25 9 -62 10 -82 l0 -38 -55 0 c-43 0
-57 4 -62 17 -5 12 -13 2 -30 -37 -26 -58 -29 -85 -11 -96 13 -9 37 21 44 57
5 24 11 26 122 42 161 23 156 24 137 -13 -10 -19 -11 -30 -5 -30 23 0 100 23
100 29 0 4 -13 20 -29 35 -31 30 -37 30 -138 10 -32 -6 -33 -6 -33 28 l0 35
60 7 c41 5 60 11 60 21 0 20 -30 26 -70 15 -49 -14 -51 -13 -44 15 5 20 1 26
-21 35 -32 12 -33 12 -39 2z"/>
<path d="M660 699 c-14 -6 -61 -17 -104 -25 -44 -8 -82 -17 -85 -20 -3 -3 4
-13 17 -22 13 -8 43 -42 68 -74 43 -58 45 -61 28 -79 -10 -11 -49 -35 -87 -54
-67 -33 -68 -35 -35 -35 20 0 64 14 102 33 l65 33 38 -38 c31 -32 44 -38 78
-38 46 0 115 17 115 29 0 4 -26 15 -57 25 -55 18 -133 52 -133 60 0 2 18 37
40 77 55 102 54 99 39 114 -20 20 -60 26 -89 14z m10 -56 c0 -10 -10 -40 -23
-67 l-23 -49 -42 48 c-23 26 -40 50 -38 52 5 5 96 31 114 32 6 1 12 -7 12 -16z"/>
<path d="M258 668 c-74 -16 -60 -32 22 -25 74 6 94 13 85 28 -7 11 -44 10
-107 -3z"/>
<path d="M372 584 c37 -37 58 -38 58 -3 0 21 -34 39 -73 39 -20 0 -18 -4 15
-36z"/>
<path d="M175 569 c-16 -22 -37 -45 -48 -50 -10 -6 -16 -13 -14 -16 8 -7 103
46 124 69 15 17 15 20 3 28 -26 16 -36 11 -65 -31z"/>
<path d="M255 544 c-24 -45 -124 -137 -190 -175 -38 -22 -45 -29 -27 -29 31 0
89 25 129 56 l33 25 9 -23 c4 -13 11 -40 15 -61 5 -26 11 -37 21 -34 7 3 41
11 74 18 50 9 60 15 56 28 -3 9 4 34 14 54 l19 38 -22 14 c-18 12 -27 12 -61
1 -22 -7 -58 -17 -80 -20 l-40 -7 52 52 51 52 65 -40 c47 -30 68 -38 76 -30
27 27 6 43 -84 66 -22 6 -46 20 -53 31 -18 29 -35 25 -57 -16z m95 -126 c-1
-35 -15 -58 -42 -67 -47 -17 -55 -14 -62 21 -7 37 -7 38 36 48 50 12 68 11 68
-2z"/>
<path d="M405 343 c4 -10 9 -32 12 -49 l5 -31 -71 -7 c-103 -10 -92 -36 15
-36 l54 0 0 -39 c0 -22 -4 -42 -8 -45 -4 -2 -64 -7 -132 -11 -139 -7 -170 -11
-170 -24 0 -5 14 -14 31 -22 26 -10 50 -10 128 0 53 7 192 15 309 18 188 5
213 8 210 22 -7 35 -54 44 -160 32 -54 -6 -112 -11 -128 -11 -29 0 -30 2 -30
44 l0 44 70 12 c39 6 70 16 70 21 0 21 -47 31 -95 21 l-47 -10 5 34 c6 37 -11
54 -53 54 -17 0 -21 -4 -15 -17z"/>
</g>
</svg>
