<?xml version="1.0" standalone="no"?>
<!DOCTYPE svg PUBLIC "-//W3C//DTD SVG 20010904//EN"
 "http://www.w3.org/TR/2001/REC-SVG-20010904/DTD/svg10.dtd">
<svg version="1.0" xmlns="http://www.w3.org/2000/svg"
 width="96.000000pt" height="68.000000pt" viewBox="0 0 96.000000 68.000000"
 preserveAspectRatio="xMidYMid meet">
<metadata>
Created by potrace 1.16, written by Peter Selinger 2001-2019
</metadata>
<g transform="translate(0.000000,68.000000) scale(0.100000,-0.100000)"
fill="#000000" stroke="none">
<path d="M320 344 c-25 -7 -54 -14 -64 -14 -11 0 -27 -7 -37 -16 -15 -14 -16
-20 -4 -66 8 -27 15 -52 17 -53 2 -2 21 0 43 5 22 5 56 10 75 10 32 0 35 3 37
30 1 17 10 44 20 60 28 47 -12 68 -87 44z m30 -48 c0 -57 -8 -66 -55 -66 -41
0 -43 1 -50 36 -3 20 -4 38 -2 40 3 4 67 18 100 23 4 1 7 -14 7 -33z"/>
</g>
</svg>
