<?xml version="1.0" standalone="no"?>
<!DOCTYPE svg PUBLIC "-//W3C//DTD SVG 20010904//EN"
 "http://www.w3.org/TR/2001/REC-SVG-20010904/DTD/svg10.dtd">
<svg version="1.0" xmlns="http://www.w3.org/2000/svg"
 width="96.000000pt" height="68.000000pt" viewBox="0 0 96.000000 68.000000"
 preserveAspectRatio="xMidYMid meet">
<metadata>
Created by potrace 1.16, written by Peter Selinger 2001-2019
</metadata>
<g transform="translate(0.000000,68.000000) scale(0.100000,-0.100000)"
fill="#000000" stroke="none">
<path d="M247 551 c-3 -16 -32 -56 -63 -90 -59 -64 -56 -77 11 -36 114 70 152
71 92 3 -41 -47 -43 -48 -105 -50 -48 -2 -60 -5 -48 -13 8 -6 22 -43 32 -83
14 -60 19 -70 32 -60 8 7 51 13 100 14 95 2 96 3 123 92 6 23 16 42 20 42 11
0 39 -41 39 -57 0 -6 5 -24 10 -38 8 -21 13 -25 24 -16 17 14 46 4 46 -16 0
-42 -73 -127 -140 -163 -41 -22 -5 -23 37 -1 47 23 109 89 131 140 l17 36 3
-70 c3 -97 8 -112 42 -130 55 -29 181 -10 188 28 5 24 -18 78 -29 71 -5 -3 -9
-14 -9 -25 0 -35 -25 -49 -83 -49 -63 0 -82 15 -73 57 14 73 16 107 5 119 -9
11 -7 14 12 14 45 0 67 12 74 38 3 14 15 32 26 40 49 34 3 65 -84 57 l-62 -6
39 33 c94 79 92 77 76 88 -8 6 -26 8 -40 5 -95 -20 -93 -20 -80 5 11 20 10 25
-6 37 -25 18 -31 17 -38 -14 -8 -29 -55 -101 -80 -122 -9 -8 -16 -18 -16 -23
0 -5 7 -2 16 6 8 9 18 16 22 16 4 0 22 14 41 30 31 28 87 41 103 24 4 -3 -13
-26 -37 -51 -40 -44 -46 -47 -103 -51 -39 -3 -70 1 -89 10 -15 7 -35 13 -43
12 -8 0 -25 -2 -38 -2 -13 -1 -21 -6 -18 -10 3 -5 -1 -9 -8 -9 -25 0 -6 24 55
67 32 24 59 46 59 50 0 27 -63 40 -102 19 -25 -13 -35 -5 -18 16 16 20 -3 45
-35 45 -17 0 -24 -7 -28 -29z m134 -198 c-6 -21 -13 -26 -39 -27 -17 -1 -34 4
-36 11 -8 19 22 43 54 43 26 0 28 -2 21 -27z m333 10 c-16 -49 -27 -61 -61
-65 -34 -4 -35 -3 -29 25 3 16 6 36 6 43 0 10 13 14 45 14 38 0 44 -3 39 -17z
m-444 -24 c0 -10 -6 -19 -12 -20 -7 0 -25 -3 -40 -5 -16 -3 -28 0 -28 5 0 5
-3 16 -6 25 -4 11 3 15 33 18 47 4 53 2 53 -23z m308 -6 c-3 -34 -6 -38 -34
-41 -28 -3 -32 0 -38 29 -7 37 4 49 47 49 26 0 28 -2 25 -37z m-208 -49 c0
-23 -3 -25 -32 -22 -37 3 -51 33 -21 41 42 11 53 7 53 -19z m-102 -6 c-2 -18
-11 -24 -35 -26 -30 -3 -33 -1 -33 22 0 23 4 26 36 26 31 0 35 -3 32 -22z"/>
<path d="M360 195 c0 -15 48 -71 58 -67 20 6 13 39 -13 56 -23 15 -45 21 -45
11z"/>
<path d="M121 156 c-23 -37 -27 -61 -10 -72 16 -10 49 35 49 68 0 40 -16 42
-39 4z"/>
<path d="M290 175 c0 -15 27 -45 41 -45 20 0 8 37 -16 48 -20 9 -25 9 -25 -3z"/>
<path d="M210 175 c0 -4 7 -20 16 -37 11 -22 19 -27 27 -19 14 14 -7 61 -28
61 -8 0 -15 -2 -15 -5z"/>
</g>
</svg>
