<?xml version="1.0" standalone="no"?>
<!DOCTYPE svg PUBLIC "-//W3C//DTD SVG 20010904//EN"
 "http://www.w3.org/TR/2001/REC-SVG-20010904/DTD/svg10.dtd">
<svg version="1.0" xmlns="http://www.w3.org/2000/svg"
 width="90.000000pt" height="92.000000pt" viewBox="0 0 90.000000 92.000000"
 preserveAspectRatio="xMidYMid meet">
<metadata>
Created by potrace 1.16, written by Peter Selinger 2001-2019
</metadata>
<g transform="translate(0.000000,92.000000) scale(0.100000,-0.100000)"
fill="#000000" stroke="none">
<path d="M160 797 c0 -8 13 -39 30 -70 21 -39 26 -57 17 -60 -7 -3 -54 -11
-105 -18 -98 -14 -115 -27 -62 -49 25 -10 40 -10 88 3 31 9 97 23 146 32 49 8
91 17 93 19 11 11 -35 30 -68 29 -38 -2 -39 -1 -39 31 0 41 -16 61 -62 81 -31
13 -38 13 -38 2z"/>
<path d="M665 754 c-21 -8 -91 -24 -154 -36 l-114 -21 24 -20 c23 -18 52 -19
91 -3 15 7 16 4 6 -31 -16 -59 -52 -124 -98 -175 -43 -49 -40 -59 10 -33 60
31 155 185 148 239 -3 18 4 22 49 30 77 13 87 6 79 -56 -8 -57 -31 -118 -48
-129 -6 -4 -22 -3 -35 2 -41 15 -42 11 -10 -41 35 -55 42 -58 76 -34 29 20 47
63 66 155 8 39 20 80 26 92 10 18 7 25 -20 49 -35 32 -40 32 -96 12z"/>
<path d="M178 541 c-31 -9 -60 -19 -63 -23 -15 -15 49 -20 108 -8 70 15 89 26
67 40 -20 13 -44 11 -112 -9z"/>
<path d="M218 455 c-3 -3 -25 -9 -48 -13 -60 -10 -65 -32 -8 -32 50 1 126 14
136 24 3 4 0 11 -8 16 -16 10 -63 13 -72 5z"/>
<path d="M630 383 c-30 -7 -95 -16 -145 -18 -49 -2 -92 -4 -94 -4 -2 -1 3 -9
12 -19 9 -10 23 -51 32 -92 24 -121 25 -122 40 -116 8 3 72 10 142 16 70 7
130 14 132 16 2 2 -1 10 -8 17 -12 15 9 103 35 144 12 20 11 24 -17 47 -34 29
-50 30 -129 9z m56 -100 c-4 -38 -10 -71 -14 -75 -6 -6 -173 -28 -179 -24 -1
1 -5 34 -9 73 l-7 70 64 10 c35 6 84 11 108 12 l44 1 -7 -67z"/>
<path d="M215 344 c-22 -9 -61 -15 -87 -15 -47 0 -47 -1 -33 -22 8 -12 19 -45
25 -74 12 -55 39 -104 40 -70 0 13 9 17 39 17 21 0 53 3 70 6 25 5 29 9 20 20
-9 11 -5 27 16 71 27 54 27 57 10 70 -23 16 -49 16 -100 -3z m36 -36 c6 -68
-14 -98 -63 -98 -24 0 -28 4 -28 29 0 16 -3 36 -6 44 -4 11 6 18 33 25 53 14
63 14 64 0z"/>
</g>
</svg>
