<?xml version="1.0" standalone="no"?>
<!DOCTYPE svg PUBLIC "-//W3C//DTD SVG 20010904//EN"
 "http://www.w3.org/TR/2001/REC-SVG-20010904/DTD/svg10.dtd">
<svg version="1.0" xmlns="http://www.w3.org/2000/svg"
 width="96.000000pt" height="68.000000pt" viewBox="0 0 96.000000 68.000000"
 preserveAspectRatio="xMidYMid meet">
<metadata>
Created by potrace 1.16, written by Peter Selinger 2001-2019
</metadata>
<g transform="translate(0.000000,68.000000) scale(0.100000,-0.100000)"
fill="#000000" stroke="none">
<path d="M305 213 c-25 -9 -55 -12 -79 -8 -36 5 -38 4 -25 -11 8 -9 21 -35 30
-58 16 -45 15 -44 111 -31 34 4 46 10 42 20 -3 7 2 30 12 50 15 31 15 38 3 46
-19 12 -46 10 -94 -8z m45 -35 c0 -33 -11 -45 -46 -52 -29 -6 -33 -4 -43 25
-6 18 -11 33 -11 35 0 2 39 8 83 12 11 1 17 -5 17 -20z"/>
</g>
</svg>
