<?xml version="1.0" standalone="no"?>
<!DOCTYPE svg PUBLIC "-//W3C//DTD SVG 20010904//EN"
 "http://www.w3.org/TR/2001/REC-SVG-20010904/DTD/svg10.dtd">
<svg version="1.0" xmlns="http://www.w3.org/2000/svg"
 width="90.000000pt" height="92.000000pt" viewBox="0 0 90.000000 92.000000"
 preserveAspectRatio="xMidYMid meet">
<metadata>
Created by potrace 1.16, written by Peter Selinger 2001-2019
</metadata>
<g transform="translate(0.000000,92.000000) scale(0.100000,-0.100000)"
fill="#000000" stroke="none">
<path d="M498 832 c-10 -21 -43 -64 -75 -96 -43 -45 -50 -57 -32 -51 13 4 41
21 63 38 26 20 56 33 93 39 31 5 57 7 59 6 1 -2 -12 -26 -29 -54 l-31 -52 -75
-11 c-137 -21 -135 -20 -117 -40 32 -35 13 -260 -33 -392 -10 -31 -31 -81 -45
-110 -14 -29 -23 -55 -21 -57 8 -8 76 96 96 148 11 30 28 92 36 138 14 73 18
82 34 77 11 -4 63 0 117 9 53 8 136 17 185 21 48 4 87 11 87 16 0 5 -11 16
-25 25 -20 13 -32 14 -75 5 -74 -16 -87 -14 -94 13 -4 15 -16 26 -32 30 -35 9
-38 4 -20 -32 15 -29 15 -30 -7 -35 -12 -3 -51 -9 -86 -13 l-64 -7 6 54 c4 30
7 66 7 80 0 23 6 28 36 34 20 3 38 4 41 1 5 -5 -14 -42 -52 -99 -27 -42 -9
-32 56 30 43 41 56 59 49 68 -8 10 -1 14 26 19 43 9 44 8 50 -36 3 -18 13 -39
21 -45 40 -31 138 -26 138 7 0 11 -16 16 -60 20 -57 5 -60 6 -57 30 3 31 18
40 69 40 53 0 63 15 24 35 -26 13 -38 13 -98 1 -37 -8 -69 -13 -70 -12 -2 2
24 29 58 61 34 33 58 63 55 71 -10 25 -54 27 -106 5 -63 -27 -69 -26 -40 4 23
25 23 25 4 40 -31 23 -48 17 -66 -23z"/>
<path d="M168 854 c-3 -3 -2 -22 3 -42 4 -20 9 -72 10 -116 2 -90 0 -92 -78
-102 -29 -3 -53 -10 -53 -15 0 -13 45 -22 90 -17 41 4 42 2 42 -42 0 -99 2
-95 -64 -138 -35 -22 -75 -46 -91 -53 -32 -14 -31 -25 6 -53 l27 -20 53 52
c29 29 56 52 60 52 9 0 8 -99 -1 -160 l-7 -45 -44 3 -43 4 51 -54 52 -53 19
24 c18 21 20 39 20 174 l0 151 47 48 c47 48 44 66 -4 28 -14 -11 -30 -20 -35
-20 -5 0 -8 25 -6 56 l3 57 48 14 c26 7 47 18 47 23 0 17 -39 31 -66 24 l-27
-7 6 69 c4 38 9 81 13 96 5 23 1 30 -27 47 -36 22 -43 24 -51 15z"/>
<path d="M565 378 c-85 -14 -91 -16 -77 -30 9 -9 36 -9 114 1 110 14 128 19
107 32 -17 10 -64 9 -144 -3z"/>
<path d="M605 305 c-5 -2 -36 -6 -67 -10 -60 -7 -75 -19 -35 -28 31 -8 207 16
210 28 2 10 -87 18 -108 10z"/>
<path d="M620 224 c-41 -7 -99 -14 -127 -15 -57 -1 -60 -3 -39 -24 8 -8 17
-37 21 -64 6 -48 19 -69 40 -66 6 1 54 5 108 9 86 7 97 10 92 25 -3 11 7 35
25 59 16 23 30 44 30 47 0 6 -63 45 -70 44 -3 -1 -39 -8 -80 -15z m60 -56 c0
-18 -4 -38 -8 -45 -8 -12 -139 -39 -149 -30 -3 3 -7 22 -10 41 -5 41 -2 43 73
56 90 15 94 14 94 -22z"/>
</g>
</svg>
