<?xml version="1.0" standalone="no"?>
<!DOCTYPE svg PUBLIC "-//W3C//DTD SVG 20010904//EN"
 "http://www.w3.org/TR/2001/REC-SVG-20010904/DTD/svg10.dtd">
<svg version="1.0" xmlns="http://www.w3.org/2000/svg"
 width="96.000000pt" height="68.000000pt" viewBox="0 0 96.000000 68.000000"
 preserveAspectRatio="xMidYMid meet">
<metadata>
Created by potrace 1.16, written by Peter Selinger 2001-2019
</metadata>
<g transform="translate(0.000000,68.000000) scale(0.100000,-0.100000)"
fill="#000000" stroke="none">
<path d="M451 377 c-133 -15 -179 -17 -193 -8 -25 16 -48 14 -48 -4 0 -10 -10
-15 -31 -15 -17 0 -28 -4 -24 -10 3 -5 19 -10 35 -10 33 0 38 -11 42 -90 2
-32 7 -45 18 -45 12 0 15 14 15 70 l0 70 100 12 c55 6 142 12 193 12 l92 1 0
-52 c0 -67 -9 -82 -48 -76 -26 4 -29 2 -22 -11 20 -34 38 -51 53 -51 22 0 57
48 57 77 0 13 5 45 12 70 10 43 10 47 -12 65 -26 21 -13 21 -239 -5z"/>
</g>
</svg>
