<?xml version="1.0" standalone="no"?>
<!DOCTYPE svg PUBLIC "-//W3C//DTD SVG 20010904//EN"
 "http://www.w3.org/TR/2001/REC-SVG-20010904/DTD/svg10.dtd">
<svg version="1.0" xmlns="http://www.w3.org/2000/svg"
 width="96.000000pt" height="68.000000pt" viewBox="0 0 96.000000 68.000000"
 preserveAspectRatio="xMidYMid meet">
<metadata>
Created by potrace 1.16, written by Peter Selinger 2001-2019
</metadata>
<g transform="translate(0.000000,68.000000) scale(0.100000,-0.100000)"
fill="#000000" stroke="none">
<path d="M333 593 c-7 -3 -13 -14 -13 -26 0 -29 -54 -122 -82 -141 -13 -9 -22
-19 -20 -22 2 -3 -24 -31 -58 -61 -91 -83 -59 -87 50 -7 l60 44 0 -65 c0 -35
-5 -96 -12 -134 -9 -53 -9 -76 0 -95 14 -32 29 -33 42 -3 12 28 28 297 18 303
-18 12 -5 48 37 102 25 31 45 63 45 69 0 15 -50 42 -67 36z"/>
<path d="M535 560 c-3 -5 12 -27 33 -49 29 -31 43 -39 60 -34 27 7 28 34 3 57
-23 20 -89 38 -96 26z"/>
<path d="M533 448 c-97 -12 -160 -25 -157 -30 4 -6 41 -7 95 -3 86 7 89 6 86
-14 -5 -34 -77 -129 -140 -187 -33 -30 -56 -54 -51 -54 31 0 166 110 205 166
13 20 18 21 61 11 26 -7 50 -18 53 -25 7 -20 -41 -152 -64 -176 -18 -17 -25
-18 -58 -8 -43 13 -52 9 -29 -13 9 -9 21 -25 26 -36 13 -23 48 -25 78 -3 24
17 61 84 82 149 7 22 20 50 28 63 14 21 13 25 -5 43 -17 18 -51 26 -120 28 -7
1 -13 12 -13 26 0 13 -8 29 -17 34 -22 12 -28 11 127 20 66 3 115 10 115 16 0
17 -132 14 -302 -7z"/>
</g>
</svg>
