<?xml version="1.0" standalone="no"?>
<!DOCTYPE svg PUBLIC "-//W3C//DTD SVG 20010904//EN"
 "http://www.w3.org/TR/2001/REC-SVG-20010904/DTD/svg10.dtd">
<svg version="1.0" xmlns="http://www.w3.org/2000/svg"
 width="90.000000pt" height="92.000000pt" viewBox="0 0 90.000000 92.000000"
 preserveAspectRatio="xMidYMid meet">
<metadata>
Created by potrace 1.16, written by Peter Selinger 2001-2019
</metadata>
<g transform="translate(0.000000,92.000000) scale(0.100000,-0.100000)"
fill="#000000" stroke="none">
<path d="M315 811 c-9 -55 -63 -164 -119 -238 -25 -35 -43 -63 -40 -63 16 0
77 45 106 79 30 34 37 37 74 33 37 -3 43 -7 48 -35 3 -17 3 -52 0 -78 -7 -55
2 -52 -187 -70 -70 -7 -127 -16 -127 -21 0 -5 16 -16 36 -24 34 -14 45 -14
146 6 60 12 111 21 113 19 2 -2 -11 -36 -29 -74 -39 -82 -127 -178 -205 -221
-60 -34 -65 -49 -13 -39 59 11 124 43 166 83 58 57 86 104 130 226 5 15 23 -5
90 -105 47 -68 103 -144 125 -168 l41 -44 77 6 c43 3 89 10 103 15 23 9 19 12
-53 45 -115 53 -208 119 -282 200 -36 39 -65 75 -65 79 0 4 73 9 163 10 131 2
162 6 162 17 0 8 -16 22 -36 33 -34 17 -42 18 -125 4 -49 -8 -110 -16 -135
-19 l-46 -4 8 42 c4 23 11 53 14 67 4 15 2 29 -4 32 -22 14 -10 26 27 27 54 1
143 22 144 34 0 6 -10 15 -23 22 -18 8 -39 8 -89 -2 -36 -8 -95 -18 -131 -22
l-65 -9 32 53 c18 30 38 61 45 69 11 14 9 20 -19 45 -18 16 -36 29 -41 29 -5
0 -12 -18 -16 -39z"/>
</g>
</svg>
