<?xml version="1.0" standalone="no"?>
<!DOCTYPE svg PUBLIC "-//W3C//DTD SVG 20010904//EN"
 "http://www.w3.org/TR/2001/REC-SVG-20010904/DTD/svg10.dtd">
<svg version="1.0" xmlns="http://www.w3.org/2000/svg"
 width="96.000000pt" height="68.000000pt" viewBox="0 0 96.000000 68.000000"
 preserveAspectRatio="xMidYMid meet">
<metadata>
Created by potrace 1.16, written by Peter Selinger 2001-2019
</metadata>
<g transform="translate(0.000000,68.000000) scale(0.100000,-0.100000)"
fill="#000000" stroke="none">
<path d="M655 231 c3 -11 1 -22 -5 -26 -5 -3 -10 -11 -10 -17 0 -6 7 -5 18 3
15 13 16 12 3 -3 -7 -10 -17 -16 -21 -13 -4 3 -14 -3 -21 -12 -12 -15 -12 -16
4 -10 11 4 16 3 12 -3 -8 -12 -56 -10 -74 4 -12 9 -12 7 -1 -14 7 -14 11 -27
9 -29 -2 -3 9 -8 25 -12 16 -4 37 -17 48 -28 21 -23 34 -26 43 -10 4 6 13 8
21 5 7 -3 16 -1 19 3 3 5 -9 8 -25 7 -23 -2 -29 1 -25 12 3 8 0 12 -7 9 -7 -2
-19 3 -26 12 -8 9 -11 10 -7 4 3 -7 1 -13 -4 -13 -21 0 -10 23 34 69 41 43 55
69 34 64 -5 -2 -9 2 -9 7 0 6 -9 10 -21 10 -15 0 -19 -4 -14 -19z m42 -17 c-3
-3 -12 -4 -19 -1 -8 3 -5 6 6 6 11 1 17 -2 13 -5z"/>
<path d="M485 210 c-16 -7 -16 -9 -4 -9 9 -1 20 -8 23 -17 3 -8 10 -13 15 -9
6 3 8 12 5 19 -3 8 2 16 13 19 13 3 11 5 -7 5 -14 0 -34 -3 -45 -8z"/>
<path d="M512 90 c-40 -22 -55 -36 -27 -26 11 4 29 9 41 10 28 4 46 15 39 27
-8 12 -14 11 -53 -11z"/>
<path d="M737 64 c-3 -4 -16 -7 -27 -8 -11 0 -19 -5 -18 -11 3 -11 117 -14
124 -3 6 9 -5 14 -41 22 -17 4 -34 4 -38 0z"/>
</g>
</svg>
