<?xml version="1.0" standalone="no"?>
<!DOCTYPE svg PUBLIC "-//W3C//DTD SVG 20010904//EN"
 "http://www.w3.org/TR/2001/REC-SVG-20010904/DTD/svg10.dtd">
<svg version="1.0" xmlns="http://www.w3.org/2000/svg"
 width="96.000000pt" height="68.000000pt" viewBox="0 0 96.000000 68.000000"
 preserveAspectRatio="xMidYMid meet">
<metadata>
Created by potrace 1.16, written by Peter Selinger 2001-2019
</metadata>
<g transform="translate(0.000000,68.000000) scale(0.100000,-0.100000)"
fill="#000000" stroke="none">
<path d="M480 423 c-41 -8 -97 -12 -124 -9 -46 5 -48 4 -33 -12 9 -10 23 -34
31 -54 15 -35 16 -35 58 -27 24 4 73 8 110 9 56 0 66 3 62 15 -4 8 2 27 11 42
17 25 17 27 -1 40 -20 15 -14 15 -114 -4z m70 -33 c0 -25 -24 -35 -103 -44
-54 -6 -58 -5 -66 16 -5 13 -8 24 -6 26 5 6 93 20 133 21 36 1 42 -2 42 -19z"/>
</g>
</svg>
