<?xml version="1.0" standalone="no"?>
<!DOCTYPE svg PUBLIC "-//W3C//DTD SVG 20010904//EN"
 "http://www.w3.org/TR/2001/REC-SVG-20010904/DTD/svg10.dtd">
<svg version="1.0" xmlns="http://www.w3.org/2000/svg"
 width="96.000000pt" height="68.000000pt" viewBox="0 0 96.000000 68.000000"
 preserveAspectRatio="xMidYMid meet">
<metadata>
Created by potrace 1.16, written by Peter Selinger 2001-2019
</metadata>
<g transform="translate(0.000000,68.000000) scale(0.100000,-0.100000)"
fill="#000000" stroke="none">
<path d="M580 395 c-41 -8 -94 -14 -118 -14 l-43 -1 20 -26 c11 -14 23 -41 27
-60 3 -19 9 -36 13 -38 6 -3 127 9 189 19 18 3 30 10 27 15 -3 5 4 28 17 50
23 40 23 41 4 55 -23 17 -35 17 -136 0z m80 -50 c0 -41 -14 -49 -102 -60 l-55
-7 -12 33 c-6 18 -8 36 -3 41 11 11 85 25 135 27 36 1 37 0 37 -34z"/>
</g>
</svg>
