<?xml version="1.0" standalone="no"?>
<!DOCTYPE svg PUBLIC "-//W3C//DTD SVG 20010904//EN"
 "http://www.w3.org/TR/2001/REC-SVG-20010904/DTD/svg10.dtd">
<svg version="1.0" xmlns="http://www.w3.org/2000/svg"
 width="96.000000pt" height="68.000000pt" viewBox="0 0 96.000000 68.000000"
 preserveAspectRatio="xMidYMid meet">
<metadata>
Created by potrace 1.16, written by Peter Selinger 2001-2019
</metadata>
<g transform="translate(0.000000,68.000000) scale(0.100000,-0.100000)"
fill="#000000" stroke="none">
<path d="M544 573 c10 -52 16 -143 8 -144 -4 0 -19 -3 -34 -5 -30 -5 -38 12
-15 35 10 10 8 15 -7 27 -31 22 -43 17 -51 -23 -4 -20 -16 -54 -26 -76 -19
-37 -19 -38 -1 -28 10 5 24 17 32 25 8 11 29 16 61 16 47 0 49 -1 47 -27 -3
-44 -13 -50 -93 -58 -42 -4 -75 -11 -75 -17 0 -7 22 -9 65 -5 40 4 65 2 65 -4
0 -11 -75 -88 -140 -143 -36 -30 -40 -37 -20 -31 41 12 92 46 143 94 52 50 52
51 35 -65 -9 -65 -9 -88 0 -110 12 -26 13 -26 32 -9 18 16 20 32 20 139 l1
121 22 -26 c12 -14 42 -51 67 -82 43 -53 47 -56 92 -57 25 0 53 3 62 6 18 7
22 24 6 24 -50 0 -230 122 -230 155 0 9 24 13 82 14 87 2 98 5 81 22 -14 14
-42 15 -121 5 l-63 -7 3 33 c3 30 6 33 60 46 71 17 67 37 -5 29 l-50 -6 6 66
c7 74 -1 93 -40 93 -22 0 -24 -3 -19 -27z"/>
<path d="M194 549 c-2 -5 0 -17 6 -28 5 -11 10 -38 10 -60 0 -47 -17 -57 -80
-46 -41 7 -52 -3 -27 -24 8 -6 19 -36 26 -66 l13 -56 34 7 34 6 0 -41 c0 -48
-11 -55 -77 -56 -47 0 -51 -12 -11 -34 22 -13 30 -12 69 6 86 40 151 57 171
44 27 -17 38 -13 38 12 0 17 -10 28 -35 40 -45 21 -48 21 -41 -1 5 -13 -1 -22
-18 -30 -30 -13 -36 -7 -36 34 0 30 2 32 45 39 25 3 43 10 40 15 -7 12 13 51
34 67 14 11 14 14 -6 34 -17 17 -32 22 -67 21 -51 -2 -54 3 -35 57 8 22 8 36
1 43 -14 14 -81 27 -88 17z m126 -165 c0 -24 -19 -54 -35 -54 -15 0 -22 50 -8
63 13 13 43 7 43 -9z m-110 -39 c0 -42 -25 -48 -40 -9 -15 38 -13 44 15 44 22
0 25 -4 25 -35z"/>
</g>
</svg>
