<?xml version="1.0" standalone="no"?>
<!DOCTYPE svg PUBLIC "-//W3C//DTD SVG 20010904//EN"
 "http://www.w3.org/TR/2001/REC-SVG-20010904/DTD/svg10.dtd">
<svg version="1.0" xmlns="http://www.w3.org/2000/svg"
 width="90.000000pt" height="92.000000pt" viewBox="0 0 90.000000 92.000000"
 preserveAspectRatio="xMidYMid meet">
<metadata>
Created by potrace 1.16, written by Peter Selinger 2001-2019
</metadata>
<g transform="translate(0.000000,92.000000) scale(0.100000,-0.100000)"
fill="#000000" stroke="none">
<path d="M685 818 c4 -18 11 -58 15 -88 8 -61 3 -475 -6 -529 l-5 -33 -52 6
-52 7 65 -65 c35 -37 66 -66 67 -66 1 0 10 15 20 33 15 28 17 58 14 237 -2
213 12 424 30 447 6 7 9 20 5 28 -7 19 -65 55 -90 55 -16 0 -17 -5 -11 -32z"/>
<path d="M200 820 c0 -11 -6 -36 -14 -55 -18 -42 -99 -166 -120 -184 -9 -7
-16 -18 -16 -23 0 -12 44 15 80 48 17 16 33 21 47 18 12 -3 46 3 76 14 30 12
72 22 93 24 l39 3 -2 -80 c0 -45 -6 -100 -13 -124 -11 -41 -12 -42 -43 -35
-31 6 -31 6 -16 -17 9 -13 21 -34 28 -47 9 -18 16 -20 30 -12 26 13 48 73 66
182 8 51 18 105 21 119 4 20 0 29 -21 43 -26 17 -30 17 -118 -7 -51 -14 -104
-28 -120 -31 l-27 -6 37 52 c20 29 46 64 57 76 l21 24 -24 19 c-31 25 -61 25
-61 -1z"/>
<path d="M546 658 c5 -13 9 -79 9 -148 0 -124 8 -170 26 -170 20 0 29 56 29
184 0 133 0 133 -25 144 -39 18 -49 15 -39 -10z"/>
<path d="M208 538 c-29 -15 -42 -17 -57 -9 -45 24 -46 20 -43 -141 3 -106 8
-160 18 -179 37 -73 144 -110 261 -91 66 11 139 49 150 78 5 13 -6 60 -35 144
-3 8 -10 -12 -16 -44 -8 -44 -18 -64 -37 -78 -49 -37 -169 -49 -239 -25 -43
15 -60 47 -60 113 l0 52 57 8 c57 9 57 9 58 45 1 19 9 50 18 69 23 45 21 55
-8 68 -14 7 -27 11 -28 11 -1 -1 -19 -10 -39 -21z m27 -67 c-11 -62 -14 -67
-50 -78 -32 -10 -35 -10 -35 10 0 51 20 95 48 105 37 13 45 6 37 -37z"/>
</g>
</svg>
