<?xml version="1.0" standalone="no"?>
<!DOCTYPE svg PUBLIC "-//W3C//DTD SVG 20010904//EN"
 "http://www.w3.org/TR/2001/REC-SVG-20010904/DTD/svg10.dtd">
<svg version="1.0" xmlns="http://www.w3.org/2000/svg"
 width="96.000000pt" height="68.000000pt" viewBox="0 0 96.000000 68.000000"
 preserveAspectRatio="xMidYMid meet">
<metadata>
Created by potrace 1.16, written by Peter Selinger 2001-2019
</metadata>
<g transform="translate(0.000000,68.000000) scale(0.100000,-0.100000)"
fill="#000000" stroke="none">
<path d="M258 562 c-15 -32 -48 -80 -73 -107 -25 -26 -44 -49 -41 -52 5 -6 63
24 71 37 3 5 21 10 38 10 18 0 57 7 87 15 88 24 100 21 100 -21 0 -51 -21
-125 -37 -131 -7 -3 -20 0 -28 7 -21 17 -19 3 6 -36 11 -19 27 -34 35 -34 27
0 52 38 64 97 6 32 17 77 25 100 22 70 -6 79 -149 49 -44 -9 -81 -15 -83 -12
-2 2 14 23 36 47 47 52 50 66 15 79 -37 14 -37 15 -66 -48z"/>
<path d="M710 579 c13 -43 13 -400 1 -432 -8 -20 -15 -23 -41 -19 l-31 4 42
-41 c48 -46 51 -48 70 -24 11 12 15 72 20 244 4 170 9 231 19 244 18 22 -4 44
-53 52 l-36 6 9 -34z"/>
<path d="M587 468 c4 -13 7 -58 6 -101 -3 -83 10 -128 30 -108 6 6 13 54 15
106 5 101 -3 125 -40 125 -16 0 -18 -4 -11 -22z"/>
<path d="M281 389 c-13 -5 -38 -7 -55 -4 l-31 6 3 -107 c4 -128 17 -153 89
-178 65 -22 177 -21 229 3 53 24 66 45 48 80 -8 14 -14 34 -14 44 0 9 -4 17
-10 17 -5 0 -10 -11 -10 -24 0 -14 -11 -38 -24 -53 -23 -26 -30 -28 -116 -32
-121 -4 -147 7 -156 64 -3 24 -3 48 0 53 3 5 28 12 55 16 39 5 49 10 44 21 -3
8 3 27 12 41 11 18 12 24 4 18 -12 -7 -12 -5 -1 9 27 32 -13 48 -67 26z m29
-43 c0 -30 -20 -54 -52 -62 -23 -5 -28 -3 -27 12 2 43 16 69 39 75 32 8 40 3
40 -25z"/>
</g>
</svg>
