<?xml version="1.0" standalone="no"?>
<!DOCTYPE svg PUBLIC "-//W3C//DTD SVG 20010904//EN"
 "http://www.w3.org/TR/2001/REC-SVG-20010904/DTD/svg10.dtd">
<svg version="1.0" xmlns="http://www.w3.org/2000/svg"
 width="96.000000pt" height="68.000000pt" viewBox="0 0 96.000000 68.000000"
 preserveAspectRatio="xMidYMid meet">
<metadata>
Created by potrace 1.16, written by Peter Selinger 2001-2019
</metadata>
<g transform="translate(0.000000,68.000000) scale(0.100000,-0.100000)"
fill="#000000" stroke="none">
<path d="M267 567 c-10 -24 -40 -69 -68 -100 -55 -62 -54 -71 4 -31 21 14 44
23 52 21 7 -3 39 1 70 9 31 8 71 14 88 12 31 -3 32 -4 29 -48 -2 -25 -8 -62
-13 -84 -9 -33 -13 -37 -35 -33 -28 5 -29 4 -8 -28 37 -56 73 -18 98 102 8 37
18 76 21 85 13 33 -31 41 -124 24 -130 -25 -131 -25 -77 38 44 52 45 56 27 65
-34 18 -45 12 -64 -32z"/>
</g>
</svg>
