<?xml version="1.0" standalone="no"?>
<!DOCTYPE svg PUBLIC "-//W3C//DTD SVG 20010904//EN"
 "http://www.w3.org/TR/2001/REC-SVG-20010904/DTD/svg10.dtd">
<svg version="1.0" xmlns="http://www.w3.org/2000/svg"
 width="96.000000pt" height="68.000000pt" viewBox="0 0 96.000000 68.000000"
 preserveAspectRatio="xMidYMid meet">
<metadata>
Created by potrace 1.16, written by Peter Selinger 2001-2019
</metadata>
<g transform="translate(0.000000,68.000000) scale(0.100000,-0.100000)"
fill="#000000" stroke="none">
<path d="M198 286 c3 -73 9 -119 18 -133 23 -36 73 -56 154 -61 86 -5 148 9
186 41 26 23 26 24 10 55 -9 17 -16 39 -16 49 -1 10 -11 -2 -23 -27 -12 -25
-33 -50 -47 -57 -14 -7 -63 -13 -111 -13 -73 0 -90 3 -114 22 -27 21 -27 23
-22 102 2 45 7 88 11 97 5 12 0 19 -21 26 l-28 10 3 -111z"/>
</g>
</svg>
