<?xml version="1.0" standalone="no"?>
<!DOCTYPE svg PUBLIC "-//W3C//DTD SVG 20010904//EN"
 "http://www.w3.org/TR/2001/REC-SVG-20010904/DTD/svg10.dtd">
<svg version="1.0" xmlns="http://www.w3.org/2000/svg"
 width="90.000000pt" height="92.000000pt" viewBox="0 0 90.000000 92.000000"
 preserveAspectRatio="xMidYMid meet">
<metadata>
Created by potrace 1.16, written by Peter Selinger 2001-2019
</metadata>
<g transform="translate(0.000000,92.000000) scale(0.100000,-0.100000)"
fill="#000000" stroke="none">
<path d="M725 830 c-3 -5 -1 -19 6 -31 6 -12 13 -74 16 -138 7 -134 -5 -462
-17 -481 -6 -10 -17 -11 -49 -3 -23 6 -41 8 -41 4 0 -4 26 -33 58 -64 90 -89
91 -85 96 303 2 240 5 291 19 324 19 44 14 57 -34 82 -33 17 -46 18 -54 4z"/>
<path d="M350 768 c-42 -11 -114 -20 -163 -21 -83 -2 -88 -3 -81 -22 3 -11 9
-72 11 -136 l5 -116 -32 -7 c-18 -3 -45 -6 -61 -6 -22 0 -29 -5 -29 -19 0 -23
35 -34 79 -25 28 6 31 4 31 -17 0 -13 -8 -61 -17 -105 -16 -78 -16 -83 1 -109
13 -19 21 -24 29 -16 14 14 25 96 26 187 1 75 7 84 52 84 18 0 19 -6 13 -100
-5 -76 -4 -103 7 -116 26 -31 39 10 39 122 0 97 1 102 23 108 41 11 42 9 39
-101 -3 -119 7 -153 34 -118 13 17 14 38 9 128 l-7 107 28 0 c16 0 39 3 51 6
l23 6 -6 -123 c-3 -68 -10 -128 -14 -132 -4 -5 -17 -4 -28 2 -11 6 -23 11 -26
11 -7 0 62 -98 74 -105 5 -3 17 9 27 27 15 28 17 55 15 175 l-2 142 37 6 c21
4 44 7 52 8 11 2 11 6 -4 21 -13 13 -27 17 -52 13 l-33 -6 0 83 c0 46 5 98 11
116 11 30 10 34 -12 51 -29 23 -53 22 -149 -3z m100 -137 c3 -71 1 -115 -5
-116 -5 -2 -28 -6 -49 -9 l-39 -5 7 116 c7 124 12 135 56 131 25 -3 25 -4 30
-117z m-132 -18 l-3 -118 -28 -3 -28 -3 2 109 c1 61 -2 115 -5 121 -5 7 5 11
29 11 l36 0 -3 -117z m-101 -20 l6 -110 -36 -5 c-32 -3 -36 -2 -32 17 2 11 4
64 4 117 1 83 3 97 19 101 9 2 20 1 25 -3 4 -3 10 -56 14 -117z"/>
<path d="M625 518 c7 -146 11 -178 24 -178 14 0 21 57 21 180 0 98 -3 119 -16
124 -33 13 -35 6 -29 -126z"/>
</g>
</svg>
