<?xml version="1.0" standalone="no"?>
<!DOCTYPE svg PUBLIC "-//W3C//DTD SVG 20010904//EN"
 "http://www.w3.org/TR/2001/REC-SVG-20010904/DTD/svg10.dtd">
<svg version="1.0" xmlns="http://www.w3.org/2000/svg"
 width="96.000000pt" height="68.000000pt" viewBox="0 0 96.000000 68.000000"
 preserveAspectRatio="xMidYMid meet">
<metadata>
Created by potrace 1.16, written by Peter Selinger 2001-2019
</metadata>
<g transform="translate(0.000000,68.000000) scale(0.100000,-0.100000)"
fill="#000000" stroke="none">
<path d="M756 583 c9 -20 14 -342 7 -411 l-5 -43 -42 6 -41 7 50 -45 c76 -70
79 -64 86 207 4 142 11 231 19 245 10 19 9 25 -7 37 -10 7 -31 14 -47 14 -23
0 -27 -3 -20 -17z"/>
<path d="M440 564 c-30 -8 -96 -15 -146 -17 l-92 -2 6 -101 5 -101 -57 -7
c-67 -9 -65 -26 3 -26 l48 0 -9 -47 c-21 -118 -21 -118 -4 -133 30 -24 45 6
52 103 l7 87 28 0 c23 0 27 -4 24 -21 -9 -47 -8 -110 2 -120 23 -23 34 3 32
72 -1 38 0 71 2 73 2 3 17 8 33 12 l29 7 -6 -71 c-8 -76 -3 -102 19 -102 10 0
14 22 16 88 l3 87 33 3 32 3 0 -91 c0 -88 -1 -90 -21 -80 -11 6 -24 10 -29 8
-12 -4 52 -87 67 -88 27 0 43 57 43 160 l0 100 35 0 c19 0 35 4 35 9 0 12 -48
23 -62 15 -8 -5 -9 18 -5 83 7 89 6 90 -19 101 -30 14 -33 14 -104 -4z m58
-106 l-3 -83 -32 -3 -33 -3 0 54 c0 30 3 69 6 86 6 26 11 31 36 31 l29 0 -3
-82z m-103 49 c4 -13 5 -50 3 -82 -3 -57 -4 -60 -31 -63 l-28 -3 2 85 c3 82 4
86 26 86 15 0 24 -7 28 -23z m-94 -53 c8 -80 2 -104 -26 -104 -22 0 -22 3 -18
73 5 86 9 100 26 95 7 -3 15 -30 18 -64z"/>
<path d="M664 393 c3 -42 6 -89 6 -105 0 -18 5 -28 15 -28 12 0 15 18 15 105
0 101 -1 105 -21 105 -21 0 -22 -3 -15 -77z"/>
</g>
</svg>
