<?xml version="1.0" standalone="no"?>
<!DOCTYPE svg PUBLIC "-//W3C//DTD SVG 20010904//EN"
 "http://www.w3.org/TR/2001/REC-SVG-20010904/DTD/svg10.dtd">
<svg version="1.0" xmlns="http://www.w3.org/2000/svg"
 width="96.000000pt" height="68.000000pt" viewBox="0 0 96.000000 68.000000"
 preserveAspectRatio="xMidYMid meet">
<metadata>
Created by potrace 1.16, written by Peter Selinger 2001-2019
</metadata>
<g transform="translate(0.000000,68.000000) scale(0.100000,-0.100000)"
fill="#000000" stroke="none">
<path d="M509 633 c-1 -5 -2 -28 -3 -53 l-1 -45 -68 -7 c-90 -9 -97 -18 -15
-18 71 0 78 -3 71 -29 -3 -13 -20 -21 -56 -28 l-52 -10 43 -2 c23 0 42 -5 42
-11 0 -14 27 -12 53 4 12 8 48 17 80 21 36 4 55 10 51 17 -4 6 -28 8 -64 4
-55 -6 -58 -6 -53 13 6 23 16 27 90 36 29 4 55 10 58 15 9 14 -38 19 -83 9
-51 -11 -58 -8 -43 19 17 32 13 48 -14 60 -30 14 -35 15 -36 5z"/>
</g>
</svg>
