<?xml version="1.0" standalone="no"?>
<!DOCTYPE svg PUBLIC "-//W3C//DTD SVG 20010904//EN"
 "http://www.w3.org/TR/2001/REC-SVG-20010904/DTD/svg10.dtd">
<svg version="1.0" xmlns="http://www.w3.org/2000/svg"
 width="90.000000pt" height="92.000000pt" viewBox="0 0 90.000000 92.000000"
 preserveAspectRatio="xMidYMid meet">
<metadata>
Created by potrace 1.16, written by Peter Selinger 2001-2019
</metadata>
<g transform="translate(0.000000,92.000000) scale(0.100000,-0.100000)"
fill="#000000" stroke="none">
<path d="M436 808 c9 -18 23 -41 32 -50 8 -10 13 -18 11 -18 -23 0 -284 -42
-288 -46 -3 -3 2 -10 11 -15 25 -14 31 -63 18 -164 -19 -161 -76 -320 -146
-412 -37 -48 -15 -40 38 14 84 86 133 216 162 432 9 63 18 116 20 118 9 9 173
33 264 38 171 10 192 19 130 51 -26 14 -40 14 -86 5 -76 -15 -82 -14 -82 12 0
30 -11 44 -43 56 -51 20 -60 15 -41 -21z"/>
<path d="M386 653 c-3 -3 -6 -15 -6 -25 0 -31 -38 -130 -70 -180 -16 -27 -25
-48 -21 -48 11 0 76 71 91 99 6 12 15 19 20 16 8 -5 206 27 258 41 22 6 12 22
-20 33 -27 9 -47 6 -113 -14 -44 -14 -88 -25 -98 -25 -16 0 -16 2 -2 31 9 17
14 37 11 44 -6 17 -41 36 -50 28z"/>
<path d="M60 561 c44 -78 90 -94 90 -32 0 35 -26 57 -80 67 l-33 7 23 -42z"/>
<path d="M465 439 c-38 -10 -80 -19 -92 -19 -30 0 -29 -18 1 -30 16 -6 42 -4
77 6 30 7 58 14 62 14 5 0 -12 -24 -38 -52 -75 -83 -98 -123 -98 -170 0 -80
75 -113 234 -106 76 4 107 10 145 29 63 32 75 51 47 81 -12 13 -27 43 -34 67
l-13 44 -11 -51 c-21 -91 -58 -112 -192 -112 -102 0 -133 14 -133 59 0 47 99
158 178 200 30 16 28 27 -8 46 -35 18 -37 18 -125 -6z"/>
<path d="M106 410 c-32 -21 -69 -41 -83 -45 -28 -7 -29 -41 -1 -59 14 -8 24
-4 54 24 43 42 98 109 93 115 -2 2 -30 -14 -63 -35z"/>
</g>
</svg>
