<?xml version="1.0" standalone="no"?>
<!DOCTYPE svg PUBLIC "-//W3C//DTD SVG 20010904//EN"
 "http://www.w3.org/TR/2001/REC-SVG-20010904/DTD/svg10.dtd">
<svg version="1.0" xmlns="http://www.w3.org/2000/svg"
 width="96.000000pt" height="68.000000pt" viewBox="0 0 96.000000 68.000000"
 preserveAspectRatio="xMidYMid meet">
<metadata>
Created by potrace 1.16, written by Peter Selinger 2001-2019
</metadata>
<g transform="translate(0.000000,68.000000) scale(0.100000,-0.100000)"
fill="#000000" stroke="none">
<path d="M588 324 c-2 -2 -39 -9 -81 -15 -84 -12 -106 -31 -37 -31 3 0 28 3
55 6 l50 7 -63 -62 c-57 -56 -63 -66 -60 -98 5 -54 46 -71 173 -71 105 0 151
9 192 35 24 16 24 17 6 37 -10 11 -23 32 -29 46 l-11 27 -16 -37 c-21 -50 -49
-65 -133 -73 -109 -11 -170 16 -144 64 14 28 85 88 130 111 22 11 40 25 40 30
0 6 -1 10 -3 10 -1 0 -16 4 -34 9 -17 5 -33 7 -35 5z"/>
</g>
</svg>
