<?xml version="1.0" standalone="no"?>
<!DOCTYPE svg PUBLIC "-//W3C//DTD SVG 20010904//EN"
 "http://www.w3.org/TR/2001/REC-SVG-20010904/DTD/svg10.dtd">
<svg version="1.0" xmlns="http://www.w3.org/2000/svg"
 width="96.000000pt" height="68.000000pt" viewBox="0 0 96.000000 68.000000"
 preserveAspectRatio="xMidYMid meet">
<metadata>
Created by potrace 1.16, written by Peter Selinger 2001-2019
</metadata>
<g transform="translate(0.000000,68.000000) scale(0.100000,-0.100000)"
fill="#000000" stroke="none">
<path d="M530 563 c1 -29 35 -67 54 -60 22 9 20 33 -4 57 -25 25 -50 26 -50 3z"/>
<path d="M228 420 c5 -184 -10 -245 -86 -338 -23 -28 -30 -42 -20 -42 23 0
104 75 118 110 16 38 29 38 65 0 36 -38 65 -40 65 -4 0 21 -8 29 -50 47 -40
17 -49 25 -45 41 2 12 7 42 10 67 6 45 7 47 57 66 61 23 68 36 34 58 -24 16
-26 16 -55 -17 l-30 -33 -1 45 c0 25 4 61 10 80 11 40 7 46 -40 55 l-35 6 3
-141z"/>
<path d="M590 490 c-25 -5 -71 -11 -102 -15 -32 -3 -58 -11 -58 -16 0 -5 8 -9
19 -9 14 0 21 -10 26 -37 4 -21 11 -44 17 -50 6 -7 7 -13 4 -13 -4 0 -2 -9 4
-20 6 -11 16 -20 22 -20 17 0 1 78 -23 111 l-20 29 28 0 c15 0 52 3 82 7 l53
6 -7 -44 c-3 -24 -12 -58 -17 -76 -13 -35 -19 -37 -185 -49 -53 -4 -90 -11
-87 -16 14 -22 53 -25 134 -12 47 8 148 17 224 21 136 6 139 7 117 24 -19 16
-34 17 -102 12 -43 -3 -79 -3 -79 1 0 3 11 23 24 44 29 47 41 82 27 82 -6 0
-11 5 -11 10 0 6 9 10 20 10 11 0 20 7 20 15 0 17 -52 19 -130 5z"/>
<path d="M100 360 c0 -24 52 -91 68 -88 24 4 27 50 5 70 -23 19 -73 32 -73 18z"/>
<path d="M615 220 c-16 -4 -60 -8 -97 -9 -62 -1 -91 -12 -69 -25 5 -3 15 -38
22 -77 11 -64 14 -70 33 -64 12 3 62 9 112 12 l90 6 1 33 c1 18 8 47 17 65 21
42 21 44 -9 57 -28 13 -54 14 -100 2z m45 -69 c0 -46 -2 -50 -31 -60 -18 -6
-51 -11 -74 -11 -48 0 -55 9 -55 70 0 43 0 43 123 48 l37 2 0 -49z"/>
</g>
</svg>
