<?xml version="1.0" standalone="no"?>
<!DOCTYPE svg PUBLIC "-//W3C//DTD SVG 20010904//EN"
 "http://www.w3.org/TR/2001/REC-SVG-20010904/DTD/svg10.dtd">
<svg version="1.0" xmlns="http://www.w3.org/2000/svg"
 width="96.000000pt" height="68.000000pt" viewBox="0 0 96.000000 68.000000"
 preserveAspectRatio="xMidYMid meet">
<metadata>
Created by potrace 1.16, written by Peter Selinger 2001-2019
</metadata>
<g transform="translate(0.000000,68.000000) scale(0.100000,-0.100000)"
fill="#000000" stroke="none">
<path d="M580 577 c0 -41 -15 -57 -54 -57 -40 0 -65 -15 -41 -24 9 -3 30 -6
45 -6 l29 0 -15 -35 c-21 -50 5 -47 41 5 27 40 28 40 91 40 34 0 65 4 69 9 8
15 -29 31 -69 31 -35 0 -47 12 -25 26 15 9 -28 43 -53 44 -14 0 -18 -8 -18
-33z"/>
<path d="M300 578 c0 -8 7 -24 16 -36 9 -13 13 -26 10 -30 -4 -3 -33 -8 -66
-10 -33 -2 -60 -8 -60 -12 0 -4 9 -15 20 -25 19 -17 31 -17 101 0 22 6 27 3
33 -19 10 -39 36 -33 36 8 0 30 4 35 30 41 41 9 38 25 -4 25 -32 0 -35 3 -38
33 -3 29 -6 32 -40 35 -27 2 -38 -1 -38 -10z"/>
<path d="M491 409 c-13 -5 -57 -12 -98 -16 -40 -3 -73 -10 -73 -15 0 -18 30
-19 101 -4 41 8 78 11 82 7 10 -10 -30 -51 -50 -51 -15 0 -17 -16 -3 -25 11
-7 13 -96 4 -132 -5 -19 -11 -22 -33 -17 l-26 7 29 -32 c57 -60 73 -31 63 109
l-7 88 55 22 c30 12 55 27 55 32 0 7 -62 40 -72 37 -2 0 -14 -5 -27 -10z"/>
<path d="M582 303 c-35 -52 -35 -53 13 -37 46 16 55 30 33 52 -17 17 -24 15
-46 -15z"/>
<path d="M322 278 c19 -28 58 -37 58 -13 0 8 -12 20 -26 25 -40 15 -48 12 -32
-12z"/>
<path d="M694 228 c0 -35 -4 -79 -8 -100 l-7 -36 -127 -6 c-70 -4 -167 -7
-217 -9 l-90 -2 -3 98 c-1 53 -6 97 -10 98 -4 0 -19 3 -34 5 -29 5 -36 -4 -17
-23 17 -17 24 -155 9 -183 -10 -18 -9 -25 4 -38 14 -14 24 -15 88 -4 40 7 138
18 218 23 79 6 149 11 155 12 5 1 11 -10 13 -25 7 -59 45 -16 61 67 7 33 17
84 23 114 11 58 4 71 -38 71 -18 0 -20 -6 -20 -62z"/>
<path d="M400 218 c0 -6 -3 -9 -6 -6 -8 9 -103 -25 -104 -37 -1 -5 5 -14 13
-19 10 -7 28 1 61 24 40 29 57 50 41 50 -3 0 -5 -5 -5 -12z"/>
<path d="M579 190 c42 -42 65 -50 74 -26 7 18 -8 31 -56 51 -57 24 -62 18 -18
-25z"/>
</g>
</svg>
