<?xml version="1.0" standalone="no"?>
<!DOCTYPE svg PUBLIC "-//W3C//DTD SVG 20010904//EN"
 "http://www.w3.org/TR/2001/REC-SVG-20010904/DTD/svg10.dtd">
<svg version="1.0" xmlns="http://www.w3.org/2000/svg"
 width="96.000000pt" height="68.000000pt" viewBox="0 0 96.000000 68.000000"
 preserveAspectRatio="xMidYMid meet">
<metadata>
Created by potrace 1.16, written by Peter Selinger 2001-2019
</metadata>
<g transform="translate(0.000000,68.000000) scale(0.100000,-0.100000)"
fill="#000000" stroke="none">
<path d="M665 509 c-22 -4 -86 -11 -143 -15 -78 -5 -99 -9 -88 -18 8 -6 23
-40 34 -76 15 -54 22 -64 38 -61 10 2 60 4 109 6 l90 3 38 68 c20 37 34 71 30
74 -19 17 -71 26 -108 19z m33 -55 c-2 -14 -13 -18 -43 -19 -34 0 -40 3 -43
22 -3 19 2 22 35 25 44 4 56 -3 51 -28z m-133 -9 c0 -16 -8 -21 -37 -23 -21
-2 -38 1 -38 7 0 5 -3 17 -6 26 -6 14 0 16 37 13 36 -2 44 -7 44 -23z m116
-47 c-11 -31 -71 -39 -71 -9 0 22 12 29 52 30 24 1 26 -2 19 -21z m-111 -13
c0 -21 -5 -25 -30 -25 -16 0 -30 4 -30 9 0 5 -3 16 -6 25 -5 13 1 16 30 16 32
0 36 -3 36 -25z"/>
</g>
</svg>
