<?xml version="1.0" standalone="no"?>
<!DOCTYPE svg PUBLIC "-//W3C//DTD SVG 20010904//EN"
 "http://www.w3.org/TR/2001/REC-SVG-20010904/DTD/svg10.dtd">
<svg version="1.0" xmlns="http://www.w3.org/2000/svg"
 width="96.000000pt" height="68.000000pt" viewBox="0 0 96.000000 68.000000"
 preserveAspectRatio="xMidYMid meet">
<metadata>
Created by potrace 1.16, written by Peter Selinger 2001-2019
</metadata>
<g transform="translate(0.000000,68.000000) scale(0.100000,-0.100000)"
fill="#000000" stroke="none">
<path d="M597 521 l6 -69 -69 -7 c-91 -9 -105 -13 -81 -27 17 -9 84 -5 130 8
16 5 17 -8 17 -173 0 -183 9 -233 30 -178 7 17 12 98 13 190 2 131 5 161 17
167 8 4 49 7 90 7 88 1 115 12 73 30 -20 8 -45 8 -88 1 -94 -16 -90 -17 -87
45 4 51 2 55 -23 65 -14 5 -28 10 -30 10 -2 0 -1 -31 2 -69z"/>
</g>
</svg>
