<?xml version="1.0" standalone="no"?>
<!DOCTYPE svg PUBLIC "-//W3C//DTD SVG 20010904//EN"
 "http://www.w3.org/TR/2001/REC-SVG-20010904/DTD/svg10.dtd">
<svg version="1.0" xmlns="http://www.w3.org/2000/svg"
 width="96.000000pt" height="68.000000pt" viewBox="0 0 96.000000 68.000000"
 preserveAspectRatio="xMidYMid meet">
<metadata>
Created by potrace 1.16, written by Peter Selinger 2001-2019
</metadata>
<g transform="translate(0.000000,68.000000) scale(0.100000,-0.100000)"
fill="#000000" stroke="none">
<path d="M374 601 c-138 -15 -150 -17 -132 -31 11 -9 27 -45 38 -88 10 -41 21
-76 23 -79 3 -2 16 1 28 8 13 6 69 13 128 14 l106 2 33 64 c19 35 40 71 48 80
13 15 11 18 -20 33 -39 19 -50 18 -252 -3z m186 -39 c0 -17 -11 -20 -92 -25
-51 -4 -107 -9 -124 -13 -28 -5 -32 -3 -36 20 -5 24 -3 25 56 29 171 9 196 8
196 -11z m-19 -64 c-7 -20 -19 -24 -106 -35 -54 -7 -99 -12 -101 -10 -1 1 -5
12 -8 25 -7 21 -5 22 56 23 51 1 156 12 165 18 1 0 -1 -9 -6 -21z"/>
<path d="M331 376 c-18 -21 -93 -44 -116 -36 -19 7 -20 3 -19 -89 1 -83 3 -96
18 -99 16 -3 166 65 166 76 0 2 -21 1 -47 -3 -87 -12 -87 -12 -86 13 0 12 1
38 2 57 1 30 5 35 24 35 13 0 45 7 71 16 38 13 45 19 35 30 -15 18 -33 18 -48
0z"/>
<path d="M610 378 c-25 -5 -69 -6 -99 -3 -52 5 -53 5 -47 -17 3 -13 6 -94 6
-180 0 -147 7 -184 25 -141 5 10 11 81 14 158 l6 140 35 12 c19 7 57 12 84 12
l49 1 -6 -58 c-9 -87 -14 -95 -53 -89 l-34 6 18 -24 c46 -65 90 -30 115 89 12
59 14 83 6 93 -13 15 -53 15 -119 1z"/>
</g>
</svg>
