<?xml version="1.0" standalone="no"?>
<!DOCTYPE svg PUBLIC "-//W3C//DTD SVG 20010904//EN"
 "http://www.w3.org/TR/2001/REC-SVG-20010904/DTD/svg10.dtd">
<svg version="1.0" xmlns="http://www.w3.org/2000/svg"
 width="96.000000pt" height="68.000000pt" viewBox="0 0 96.000000 68.000000"
 preserveAspectRatio="xMidYMid meet">
<metadata>
Created by potrace 1.16, written by Peter Selinger 2001-2019
</metadata>
<g transform="translate(0.000000,68.000000) scale(0.100000,-0.100000)"
fill="#000000" stroke="none">
<path d="M578 583 c-2 -39 -7 -48 -23 -51 -11 -1 -31 -5 -45 -8 l-25 -6 24 -9
c14 -6 31 -7 39 -4 12 4 14 -2 9 -32 l-6 -38 23 27 c13 15 26 32 28 39 2 7 39
17 84 24 70 10 76 13 53 22 -15 7 -42 8 -70 3 -24 -5 -46 -7 -48 -4 -2 2 4 15
13 28 14 23 14 26 0 40 -8 9 -24 16 -34 16 -15 0 -19 -9 -22 -47z"/>
<path d="M290 594 c0 -3 8 -19 17 -35 9 -15 14 -31 11 -35 -4 -3 -34 -8 -67
-11 -64 -6 -75 -15 -41 -33 15 -8 33 -7 72 5 28 8 53 15 54 15 1 0 7 -13 13
-30 14 -43 35 -39 28 5 -5 33 -4 36 24 42 16 3 32 10 36 16 4 6 -7 7 -31 3
-34 -7 -37 -5 -42 23 -4 18 -14 31 -28 35 -27 7 -46 7 -46 0z"/>
</g>
</svg>
