<?xml version="1.0" standalone="no"?>
<!DOCTYPE svg PUBLIC "-//W3C//DTD SVG 20010904//EN"
 "http://www.w3.org/TR/2001/REC-SVG-20010904/DTD/svg10.dtd">
<svg version="1.0" xmlns="http://www.w3.org/2000/svg"
 width="96.000000pt" height="68.000000pt" viewBox="0 0 96.000000 68.000000"
 preserveAspectRatio="xMidYMid meet">
<metadata>
Created by potrace 1.16, written by Peter Selinger 2001-2019
</metadata>
<g transform="translate(0.000000,68.000000) scale(0.100000,-0.100000)"
fill="#000000" stroke="none">
<path d="M400 592 c0 -64 -113 -197 -237 -280 -45 -30 -52 -38 -36 -40 27 -4
115 40 168 83 22 18 67 60 100 94 32 33 62 61 66 61 4 0 50 -43 104 -95 53
-52 108 -98 121 -101 32 -8 152 5 159 17 4 5 1 9 -6 9 -6 0 -52 16 -102 36
-111 44 -256 147 -257 181 0 24 -34 53 -62 53 -11 0 -18 -7 -18 -18z"/>
<path d="M465 324 c-44 -7 -97 -13 -117 -13 -57 -1 -58 -21 -1 -21 26 0 53 -4
60 -8 6 -4 13 -36 15 -72 l3 -65 -30 -6 c-16 -4 -69 -7 -117 -8 -91 -1 -119
-14 -71 -32 20 -8 43 -7 83 1 30 6 146 14 258 17 111 3 202 10 202 15 0 5 -15
15 -32 22 -26 11 -54 12 -135 3 -57 -6 -105 -9 -107 -6 -9 9 8 141 18 144 6 2
33 6 60 10 47 6 52 18 11 27 -11 3 -56 -1 -100 -8z"/>
</g>
</svg>
