<?xml version="1.0" standalone="no"?>
<!DOCTYPE svg PUBLIC "-//W3C//DTD SVG 20010904//EN"
 "http://www.w3.org/TR/2001/REC-SVG-20010904/DTD/svg10.dtd">
<svg version="1.0" xmlns="http://www.w3.org/2000/svg"
 width="96.000000pt" height="68.000000pt" viewBox="0 0 96.000000 68.000000"
 preserveAspectRatio="xMidYMid meet">
<metadata>
Created by potrace 1.16, written by Peter Selinger 2001-2019
</metadata>
<g transform="translate(0.000000,68.000000) scale(0.100000,-0.100000)"
fill="#000000" stroke="none">
<path d="M403 568 c4 -13 9 -54 13 -91 8 -78 2 -86 -56 -87 -19 0 -42 -5 -50
-10 -11 -7 2 -10 43 -10 31 0 57 -2 57 -5 0 -20 -50 -97 -93 -142 -27 -29 -46
-53 -41 -53 17 0 66 38 101 76 l35 39 -7 -85 c-11 -118 -10 -137 6 -156 12
-14 14 -14 26 2 9 12 13 54 13 131 0 110 8 135 29 94 12 -22 41 -35 53 -23 13
13 -20 50 -52 57 -26 6 -30 11 -30 40 0 34 16 45 68 45 12 0 22 4 22 9 0 16
-38 23 -61 10 l-22 -11 6 85 6 85 -31 11 c-41 14 -41 14 -35 -11z"/>
<path d="M180 501 c0 -16 72 -72 88 -69 10 2 18 13 20 26 3 18 -4 26 -32 37
-40 17 -76 20 -76 6z"/>
<path d="M680 460 c-14 -4 -47 -8 -74 -9 -41 -1 -47 -3 -36 -16 8 -10 11 -57
8 -164 -3 -154 4 -188 34 -163 7 5 35 12 62 13 41 3 51 0 64 -19 8 -12 20 -22
27 -22 29 0 35 29 36 199 2 139 0 175 -12 182 -17 10 -74 10 -109 -1z m70 -63
c0 -42 -1 -44 -32 -44 -18 0 -48 -3 -66 -8 l-33 -8 3 44 c3 48 16 56 91 58
l37 1 0 -43z m0 -152 l0 -95 -65 0 -65 0 0 35 c0 39 2 40 73 50 71 9 60 28
-13 20 l-60 -7 0 34 c0 34 1 35 58 45 31 6 60 11 65 12 4 0 7 -42 7 -94z"/>
<path d="M126 355 c3 -8 22 -24 41 -36 33 -20 36 -21 51 -5 16 16 15 19 -7 37
-28 23 -93 27 -85 4z"/>
<path d="M222 231 c-17 -26 -44 -58 -61 -70 -17 -12 -31 -30 -31 -39 0 -23 28
-62 43 -62 10 0 71 131 94 203 11 35 -16 16 -45 -32z"/>
</g>
</svg>
