<?xml version="1.0" standalone="no"?>
<!DOCTYPE svg PUBLIC "-//W3C//DTD SVG 20010904//EN"
 "http://www.w3.org/TR/2001/REC-SVG-20010904/DTD/svg10.dtd">
<svg version="1.0" xmlns="http://www.w3.org/2000/svg"
 width="96.000000pt" height="68.000000pt" viewBox="0 0 96.000000 68.000000"
 preserveAspectRatio="xMidYMid meet">
<metadata>
Created by potrace 1.16, written by Peter Selinger 2001-2019
</metadata>
<g transform="translate(0.000000,68.000000) scale(0.100000,-0.100000)"
fill="#000000" stroke="none">
<path d="M289 618 c0 -2 -2 -17 -3 -34 -4 -37 -43 -94 -65 -94 -13 0 -16 -16
-16 -98 -1 -113 -20 -182 -71 -255 -19 -26 -30 -47 -25 -47 16 0 88 86 106
127 19 43 41 53 123 53 28 0 32 -3 28 -23 -16 -87 -37 -121 -68 -111 -21 6
-22 1 -8 -27 14 -25 46 -24 67 1 10 11 27 53 39 95 27 95 22 102 -69 86 -85
-15 -87 -15 -87 13 0 20 6 24 46 30 26 3 61 6 79 6 30 0 32 3 55 71 19 59 21
72 9 80 -29 19 -58 20 -109 5 l-52 -16 46 50 c49 53 52 60 34 78 -10 10 -57
18 -59 10z m86 -193 c-8 -50 -21 -60 -86 -67 -29 -2 -34 0 -37 19 -3 20 2 23
48 29 28 4 53 11 57 17 4 6 -14 7 -51 3 -55 -7 -56 -7 -54 18 2 22 8 26 48 31
25 4 50 8 55 10 20 5 26 -14 20 -60z"/>
<path d="M567 539 c-10 -6 -33 -8 -50 -5 l-32 6 3 -70 c3 -53 0 -77 -12 -95
-16 -24 -12 -32 10 -17 24 16 44 59 44 92 0 44 8 56 44 70 45 17 56 7 56 -47
0 -60 20 -90 65 -99 45 -8 95 4 95 23 0 12 -11 14 -57 11 l-58 -3 -3 48 c-2
27 1 54 7 61 17 20 -8 36 -53 36 -23 0 -49 -5 -59 -11z"/>
<path d="M600 324 c-25 -7 -66 -16 -92 -19 -49 -6 -62 -19 -30 -29 10 -4 35
-24 57 -46 33 -34 36 -41 25 -55 -15 -18 -74 -50 -129 -70 -20 -8 -28 -14 -18
-14 29 -1 118 27 152 47 l30 19 49 -44 c40 -36 55 -43 90 -43 55 0 116 11 116
20 0 4 -30 15 -67 24 -59 15 -153 59 -153 71 0 2 18 33 40 67 36 57 38 64 23
76 -20 15 -35 14 -93 -4z m14 -76 l-20 -41 -39 35 -39 36 49 14 c64 19 74 9
49 -44z"/>
</g>
</svg>
