<?xml version="1.0" standalone="no"?>
<!DOCTYPE svg PUBLIC "-//W3C//DTD SVG 20010904//EN"
 "http://www.w3.org/TR/2001/REC-SVG-20010904/DTD/svg10.dtd">
<svg version="1.0" xmlns="http://www.w3.org/2000/svg"
 width="96.000000pt" height="68.000000pt" viewBox="0 0 96.000000 68.000000"
 preserveAspectRatio="xMidYMid meet">
<metadata>
Created by potrace 1.16, written by Peter Selinger 2001-2019
</metadata>
<g transform="translate(0.000000,68.000000) scale(0.100000,-0.100000)"
fill="#000000" stroke="none">
<path d="M460 584 c0 -4 10 -22 21 -41 12 -19 20 -35 18 -37 -2 -1 -60 -8
-128 -14 -68 -6 -126 -14 -130 -17 -3 -4 2 -11 12 -16 13 -8 17 -23 17 -67 0
-105 -46 -241 -113 -336 -19 -27 -19 -28 -1 -18 68 37 128 157 155 310 10 59
19 108 19 108 1 6 178 24 283 30 70 3 127 10 127 15 0 23 -42 29 -122 19 -45
-5 -83 -10 -84 -10 -1 0 1 10 3 23 3 13 -1 28 -9 34 -16 13 -68 26 -68 17z"/>
<path d="M136 398 c16 -30 49 -58 66 -58 30 0 22 37 -12 55 -36 18 -64 20 -54
3z"/>
<path d="M155 259 c-61 -30 -76 -52 -39 -57 14 -2 38 13 70 42 57 53 51 55
-31 15z"/>
</g>
</svg>
