<?xml version="1.0" standalone="no"?>
<!DOCTYPE svg PUBLIC "-//W3C//DTD SVG 20010904//EN"
 "http://www.w3.org/TR/2001/REC-SVG-20010904/DTD/svg10.dtd">
<svg version="1.0" xmlns="http://www.w3.org/2000/svg"
 width="96.000000pt" height="68.000000pt" viewBox="0 0 96.000000 68.000000"
 preserveAspectRatio="xMidYMid meet">
<metadata>
Created by potrace 1.16, written by Peter Selinger 2001-2019
</metadata>
<g transform="translate(0.000000,68.000000) scale(0.100000,-0.100000)"
fill="#000000" stroke="none">
<path d="M510 342 c0 -4 40 -34 89 -65 82 -53 92 -57 147 -57 94 0 98 15 10
35 -42 9 -113 35 -157 56 -87 42 -89 43 -89 31z"/>
<path d="M319 314 c-13 -14 -64 -46 -114 -70 -49 -24 -88 -44 -85 -44 17 -1
143 41 180 60 79 40 92 51 79 66 -17 20 -33 17 -60 -12z"/>
</g>
</svg>
