<?xml version="1.0" standalone="no"?>
<!DOCTYPE svg PUBLIC "-//W3C//DTD SVG 20010904//EN"
 "http://www.w3.org/TR/2001/REC-SVG-20010904/DTD/svg10.dtd">
<svg version="1.0" xmlns="http://www.w3.org/2000/svg"
 width="96.000000pt" height="68.000000pt" viewBox="0 0 96.000000 68.000000"
 preserveAspectRatio="xMidYMid meet">
<metadata>
Created by potrace 1.16, written by Peter Selinger 2001-2019
</metadata>
<g transform="translate(0.000000,68.000000) scale(0.100000,-0.100000)"
fill="#000000" stroke="none">
<path d="M406 601 c-3 -5 14 -27 39 -49 25 -22 45 -42 45 -44 0 -3 -24 -10
-52 -17 -112 -25 -90 -43 25 -20 55 11 56 11 104 -24 71 -51 148 -87 202 -94
54 -6 73 8 47 35 -8 10 -22 33 -30 52 -14 32 -15 33 -16 10 -1 -45 -14 -55
-55 -43 -41 13 -145 73 -145 84 0 4 14 12 32 18 45 16 24 33 -27 21 -36 -9
-42 -7 -55 13 -29 43 -59 67 -84 67 -14 0 -27 -4 -30 -9z"/>
</g>
</svg>
