<?xml version="1.0" standalone="no"?>
<!DOCTYPE svg PUBLIC "-//W3C//DTD SVG 20010904//EN"
 "http://www.w3.org/TR/2001/REC-SVG-20010904/DTD/svg10.dtd">
<svg version="1.0" xmlns="http://www.w3.org/2000/svg"
 width="90.000000pt" height="92.000000pt" viewBox="0 0 90.000000 92.000000"
 preserveAspectRatio="xMidYMid meet">
<metadata>
Created by potrace 1.16, written by Peter Selinger 2001-2019
</metadata>
<g transform="translate(0.000000,92.000000) scale(0.100000,-0.100000)"
fill="#000000" stroke="none">
<path d="M570 799 c-52 -10 -111 -16 -130 -13 l-35 5 -1 -128 c0 -165 -34
-309 -103 -448 -49 -96 -52 -114 -14 -72 56 60 99 152 132 283 11 40 13 41 59
47 26 4 85 11 132 17 130 17 130 17 130 -88 0 -102 -16 -212 -33 -229 -9 -9
-23 -10 -52 -3 -22 5 -41 7 -43 6 -4 -4 79 -116 85 -116 16 0 44 25 61 52 22
37 28 66 42 223 6 61 13 124 16 141 5 27 2 33 -30 52 l-36 22 -113 -19 c-61
-10 -133 -22 -158 -25 l-46 -7 10 60 c5 33 13 59 16 57 3 -2 58 2 121 9 63 8
122 14 130 15 11 0 11 3 2 12 -9 9 -4 25 20 71 l32 59 -23 19 c-28 23 -46 22
-171 -2z m104 -61 c-4 -24 -12 -48 -18 -54 -10 -11 -131 -34 -175 -34 -18 0
-21 6 -21 49 l0 49 73 12 c39 6 79 13 87 15 56 11 61 7 54 -37z"/>
<path d="M211 754 c-18 -8 -62 -18 -96 -21 -62 -6 -63 -6 -50 -27 8 -11 17
-49 21 -83 6 -61 25 -96 39 -73 11 18 42 11 49 -12 3 -13 6 -76 6 -140 0 -88
-3 -118 -12 -118 -7 0 -24 -3 -37 -7 l-23 -6 3 94 4 94 -34 3 c-29 3 -33 1
-26 -15 4 -10 9 -38 11 -63 3 -25 6 -62 8 -82 l4 -38 -39 0 c-47 0 -52 -19
-12 -50 31 -24 27 -25 153 29 163 71 164 71 152 83 -7 7 -24 6 -56 -5 l-46
-16 0 63 0 63 50 7 c52 7 70 20 51 39 -7 7 -24 7 -56 0 l-45 -10 2 53 c3 47 6
53 28 57 21 5 25 12 27 42 1 20 11 55 22 78 l21 42 -21 18 c-25 20 -52 21 -98
1z m35 -71 c-3 -21 -6 -45 -6 -55 0 -11 -15 -20 -51 -28 -27 -7 -53 -10 -56
-6 -3 3 -8 28 -11 55 -4 48 -4 50 24 56 16 4 34 8 39 10 6 2 23 4 39 4 28 1
28 0 22 -36z"/>
<path d="M530 404 c-30 -8 -67 -11 -82 -8 -29 6 -36 -4 -18 -22 6 -6 15 -39
21 -75 10 -60 29 -104 29 -66 0 14 11 17 70 17 64 0 70 2 70 21 0 11 10 43 22
71 21 49 21 51 3 64 -22 17 -42 16 -115 -2z m60 -56 c0 -47 -9 -55 -62 -63
l-48 -7 -1 31 c-1 17 -2 37 -3 44 -1 7 16 14 39 18 76 11 75 12 75 -23z"/>
</g>
</svg>
