<?xml version="1.0" standalone="no"?>
<!DOCTYPE svg PUBLIC "-//W3C//DTD SVG 20010904//EN"
 "http://www.w3.org/TR/2001/REC-SVG-20010904/DTD/svg10.dtd">
<svg version="1.0" xmlns="http://www.w3.org/2000/svg"
 width="96.000000pt" height="68.000000pt" viewBox="0 0 96.000000 68.000000"
 preserveAspectRatio="xMidYMid meet">
<metadata>
Created by potrace 1.16, written by Peter Selinger 2001-2019
</metadata>
<g transform="translate(0.000000,68.000000) scale(0.100000,-0.100000)"
fill="#000000" stroke="none">
<path d="M316 587 c-15 -36 -69 -96 -126 -140 -50 -38 -24 -33 40 7 l55 35 3
-29 c2 -16 -1 -37 -6 -47 -12 -22 3 -66 20 -61 16 6 28 118 15 136 -8 9 1 25
33 57 24 25 42 46 39 48 -7 7 -47 27 -53 27 -3 0 -12 -15 -20 -33z"/>
</g>
</svg>
