<?xml version="1.0" standalone="no"?>
<!DOCTYPE svg PUBLIC "-//W3C//DTD SVG 20010904//EN"
 "http://www.w3.org/TR/2001/REC-SVG-20010904/DTD/svg10.dtd">
<svg version="1.0" xmlns="http://www.w3.org/2000/svg"
 width="96.000000pt" height="68.000000pt" viewBox="0 0 96.000000 68.000000"
 preserveAspectRatio="xMidYMid meet">
<metadata>
Created by potrace 1.16, written by Peter Selinger 2001-2019
</metadata>
<g transform="translate(0.000000,68.000000) scale(0.100000,-0.100000)"
fill="#000000" stroke="none">
<path d="M480 589 c-127 -16 -150 -20 -150 -30 0 -5 26 -9 59 -9 52 0 59 -2
65 -22 3 -13 2 -26 -3 -31 -8 -8 -181 -13 -210 -6 -18 5 -63 -72 -52 -89 15
-25 56 11 48 43 -2 9 201 35 212 28 3 -2 5 -34 5 -71 1 -53 4 -67 16 -67 12 0
16 16 18 72 l3 71 92 7 c51 4 103 5 116 4 l23 -4 -23 -29 c-21 -27 -21 -29 -4
-22 10 4 38 10 62 13 27 4 43 11 43 20 0 17 -60 54 -80 49 -8 -3 -63 -8 -122
-11 l-106 -7 1 25 c2 24 7 27 57 32 81 9 89 13 66 31 -22 15 -38 16 -136 3z"/>
<path d="M550 435 c-28 -28 -24 -30 32 -13 21 6 37 16 35 22 -7 20 -42 15 -67
-9z"/>
<path d="M310 435 c0 -11 63 -36 77 -30 14 5 14 7 -3 20 -18 13 -74 21 -74 10z"/>
<path d="M540 383 c0 -9 28 -26 62 -37 19 -6 35 11 22 24 -14 13 -84 24 -84
13z"/>
<path d="M322 363 c-20 -3 -32 -9 -29 -16 6 -20 40 -18 67 3 26 20 24 20 -38
13z"/>
<path d="M595 305 c-44 -6 -86 -10 -95 -8 -13 3 -15 -14 -14 -127 1 -72 4
-134 7 -137 3 -3 20 0 38 6 18 6 61 11 95 11 50 0 64 -3 64 -15 0 -24 29 -17
34 8 3 12 7 74 9 139 4 115 4 116 -20 127 -13 6 -27 10 -31 10 -4 -1 -43 -7
-87 -14z m88 -37 c8 -31 4 -34 -55 -42 -29 -3 -63 -9 -75 -12 -21 -6 -23 -3
-23 29 0 39 6 42 106 45 35 2 43 -1 47 -20z m5 -84 c3 -18 -4 -22 -44 -28 -26
-3 -62 -6 -80 -6 -29 0 -34 3 -34 25 0 22 4 24 58 28 89 6 97 4 100 -19z m2
-77 l0 -34 -82 1 c-81 1 -83 1 -83 26 0 23 4 25 60 31 113 11 105 13 105 -24z"/>
<path d="M322 281 c5 -32 5 -32 -111 -47 -76 -10 -38 -29 41 -20 56 5 58 5 46
-13 -15 -21 -100 -96 -126 -110 -9 -5 -15 -12 -12 -15 9 -8 66 23 108 60 22
19 44 34 49 34 5 0 5 -26 -1 -60 -7 -43 -7 -63 1 -71 21 -21 31 0 38 77 l7 76
32 -31 c29 -28 56 -40 56 -25 0 19 -26 46 -55 59 -49 20 -44 33 15 41 28 4 50
10 50 15 0 5 -22 9 -50 9 -42 0 -50 3 -50 19 0 16 -18 31 -37 31 -3 0 -3 -13
-1 -29z"/>
</g>
</svg>
