<?xml version="1.0" standalone="no"?>
<!DOCTYPE svg PUBLIC "-//W3C//DTD SVG 20010904//EN"
 "http://www.w3.org/TR/2001/REC-SVG-20010904/DTD/svg10.dtd">
<svg version="1.0" xmlns="http://www.w3.org/2000/svg"
 width="96.000000pt" height="68.000000pt" viewBox="0 0 96.000000 68.000000"
 preserveAspectRatio="xMidYMid meet">
<metadata>
Created by potrace 1.16, written by Peter Selinger 2001-2019
</metadata>
<g transform="translate(0.000000,68.000000) scale(0.100000,-0.100000)"
fill="#000000" stroke="none">
<path d="M318 280 c5 -33 2 -34 -103 -45 -47 -6 -55 -9 -41 -17 10 -6 43 -8
72 -5 30 3 54 2 54 -3 0 -10 -120 -120 -132 -120 -4 0 -8 -5 -8 -10 0 -14 52
13 114 58 l49 36 -7 -49 c-10 -65 -9 -86 4 -99 17 -17 27 8 34 85 4 38 11 69
15 69 4 0 18 -11 31 -25 28 -30 50 -32 50 -6 0 13 -15 26 -45 41 -25 12 -45
26 -45 31 0 4 23 11 50 15 28 4 50 10 50 15 0 5 -22 9 -50 9 -42 0 -50 3 -50
19 0 17 -18 31 -39 31 -4 0 -6 -13 -3 -30z"/>
</g>
</svg>
