<?xml version="1.0" standalone="no"?>
<!DOCTYPE svg PUBLIC "-//W3C//DTD SVG 20010904//EN"
 "http://www.w3.org/TR/2001/REC-SVG-20010904/DTD/svg10.dtd">
<svg version="1.0" xmlns="http://www.w3.org/2000/svg"
 width="90.000000pt" height="92.000000pt" viewBox="0 0 90.000000 92.000000"
 preserveAspectRatio="xMidYMid meet">
<metadata>
Created by potrace 1.16, written by Peter Selinger 2001-2019
</metadata>
<g transform="translate(0.000000,92.000000) scale(0.100000,-0.100000)"
fill="#000000" stroke="none">
<path d="M500 829 c-63 -11 -163 -20 -222 -22 -60 -1 -108 -4 -108 -6 0 -3 6
-12 14 -20 8 -9 22 -45 31 -81 20 -77 32 -95 51 -79 7 6 40 13 74 16 l60 6 0
-35 c0 -41 -2 -41 -140 -54 -41 -4 -84 -10 -95 -14 -18 -7 -18 -8 5 -20 20
-11 41 -11 117 0 52 7 96 11 98 8 3 -3 2 -19 -1 -36 -7 -35 -38 -48 -80 -32
-41 16 -55 7 -44 -27 8 -24 31 -304 26 -310 -1 -1 -46 -5 -99 -9 -53 -4 -97
-11 -97 -15 0 -5 14 -16 31 -24 28 -15 38 -15 127 1 63 11 182 19 337 23 204
5 240 8 240 21 0 8 -16 23 -36 33 -30 14 -44 15 -89 7 -29 -5 -68 -10 -86 -10
-34 0 -34 1 -30 38 3 20 8 79 11 131 3 52 10 102 15 112 7 13 5 22 -7 34 -19
20 -61 37 -73 30 -4 -2 -35 -11 -68 -19 l-61 -14 19 38 c23 44 29 46 208 56
67 4 122 11 122 15 0 5 -11 16 -25 25 -23 15 -33 15 -134 0 -135 -20 -130 -20
-124 3 3 12 -3 24 -16 34 -20 13 -16 15 59 21 44 4 88 5 99 1 15 -5 26 8 60
70 23 42 41 81 41 86 0 12 -55 39 -77 38 -10 -1 -70 -10 -133 -20z m115 -65
c-10 -69 -10 -69 -75 -71 l-60 -1 21 41 c20 38 20 41 4 53 -15 11 -11 13 26
17 101 9 92 12 84 -39z m-154 -39 c-6 -36 -9 -40 -39 -43 l-34 -3 3 43 c2 24
0 49 -4 55 -5 8 5 13 30 15 45 4 54 -9 44 -67z m-111 13 c6 -24 13 -48 15 -55
2 -7 -14 -12 -45 -15 -47 -3 -49 -2 -54 26 -14 70 -7 84 46 85 24 1 29 -4 38
-41z m188 -326 c3 -31 2 -32 -23 -26 -14 3 -62 1 -106 -6 -44 -7 -82 -10 -86
-7 -3 3 -3 17 1 30 5 21 14 25 78 34 40 6 87 10 103 9 26 -1 30 -5 33 -34z m2
-77 c0 -32 -2 -35 -24 -29 -21 5 -66 -1 -162 -21 -19 -4 -22 1 -26 30 -3 30
-2 34 17 30 15 -4 179 17 193 24 1 0 2 -15 2 -34z m0 -84 c0 -28 -2 -29 -42
-30 -24 0 -67 -5 -97 -10 -72 -15 -71 -15 -71 19 0 29 2 30 43 31 23 0 60 4
82 8 76 16 85 14 85 -18z m0 -86 c0 -21 -5 -25 -28 -25 -16 0 -63 -3 -105 -6
l-77 -7 0 26 c0 17 5 25 13 22 6 -2 37 0 67 4 30 5 72 9 93 10 33 1 37 -2 37
-24z"/>
</g>
</svg>
