<?xml version="1.0" standalone="no"?>
<!DOCTYPE svg PUBLIC "-//W3C//DTD SVG 20010904//EN"
 "http://www.w3.org/TR/2001/REC-SVG-20010904/DTD/svg10.dtd">
<svg version="1.0" xmlns="http://www.w3.org/2000/svg"
 width="96.000000pt" height="68.000000pt" viewBox="0 0 96.000000 68.000000"
 preserveAspectRatio="xMidYMid meet">
<metadata>
Created by potrace 1.16, written by Peter Selinger 2001-2019
</metadata>
<g transform="translate(0.000000,68.000000) scale(0.100000,-0.100000)"
fill="#000000" stroke="none">
<path d="M275 514 c41 -36 67 -41 73 -12 4 21 -45 48 -85 48 l-28 -1 40 -35z"/>
<path d="M179 406 c38 -39 71 -48 71 -17 0 25 -18 38 -65 46 l-40 7 34 -36z"/>
<path d="M261 277 c-16 -24 -46 -57 -66 -73 -34 -28 -35 -31 -24 -61 6 -18 17
-33 25 -33 8 0 21 15 28 33 8 17 28 63 45 101 17 38 29 71 27 73 -2 3 -18 -16
-35 -40z"/>
</g>
</svg>
