<?xml version="1.0" standalone="no"?>
<!DOCTYPE svg PUBLIC "-//W3C//DTD SVG 20010904//EN"
 "http://www.w3.org/TR/2001/REC-SVG-20010904/DTD/svg10.dtd">
<svg version="1.0" xmlns="http://www.w3.org/2000/svg"
 width="90.000000pt" height="92.000000pt" viewBox="0 0 90.000000 92.000000"
 preserveAspectRatio="xMidYMid meet">
<metadata>
Created by potrace 1.16, written by Peter Selinger 2001-2019
</metadata>
<g transform="translate(0.000000,92.000000) scale(0.100000,-0.100000)"
fill="#000000" stroke="none">
<path d="M417 864 c-2 -3 8 -29 24 -59 l30 -53 -38 -6 c-21 -3 -78 -11 -128
-16 -115 -14 -125 -17 -104 -33 26 -19 30 -63 19 -169 -18 -163 -76 -332 -147
-425 -36 -48 -14 -40 39 15 81 83 126 202 158 417 11 72 20 135 20 141 0 13
191 40 353 50 59 4 110 11 113 15 2 4 -7 16 -21 25 -26 17 -37 17 -181 -2
l-50 -6 4 35 c3 28 0 38 -16 46 -34 18 -70 30 -75 25z"/>
<path d="M377 574 c-3 -48 -8 -89 -11 -91 -3 -3 -26 -8 -51 -10 -38 -5 -43 -8
-33 -20 7 -9 24 -13 43 -11 l32 4 -12 -46 c-21 -75 -53 -148 -93 -208 -20 -31
-41 -63 -45 -69 -18 -29 16 -10 58 31 51 52 88 120 124 231 23 72 29 80 51 80
24 0 25 -2 24 -65 -1 -77 -21 -192 -38 -215 -9 -13 -17 -14 -39 -6 -32 12 -33
8 -9 -27 10 -15 22 -35 25 -45 5 -14 11 -16 27 -7 33 18 57 79 74 190 9 58 22
122 28 144 11 36 10 40 -12 58 -18 15 -32 18 -62 13 -39 -7 -39 -7 -33 22 4
15 12 43 17 62 10 31 8 37 -12 53 -40 32 -47 24 -53 -68z"/>
<path d="M46 588 c21 -35 59 -80 77 -89 15 -8 23 -7 35 5 23 22 1 63 -43 82
-43 18 -79 19 -69 2z"/>
<path d="M690 484 c-30 -8 -72 -12 -93 -10 -36 4 -38 3 -32 -17 10 -30 23
-116 32 -206 5 -45 13 -76 21 -79 6 -2 12 3 12 11 0 12 19 17 85 22 80 7 99
15 74 31 -13 8 -7 66 17 163 l16 64 -23 18 c-28 21 -35 22 -109 3z m53 -84
c-4 -87 -14 -144 -26 -152 -7 -4 -29 -8 -50 -8 l-38 0 3 102 c3 99 4 102 28
109 14 4 39 7 55 6 30 -2 30 -2 28 -57z"/>
<path d="M125 419 c-22 -16 -59 -36 -82 -45 -48 -19 -57 -46 -22 -65 19 -10
28 -5 76 43 51 49 79 86 71 92 -2 2 -21 -10 -43 -25z"/>
</g>
</svg>
