<?xml version="1.0" standalone="no"?>
<!DOCTYPE svg PUBLIC "-//W3C//DTD SVG 20010904//EN"
 "http://www.w3.org/TR/2001/REC-SVG-20010904/DTD/svg10.dtd">
<svg version="1.0" xmlns="http://www.w3.org/2000/svg"
 width="96.000000pt" height="68.000000pt" viewBox="0 0 96.000000 68.000000"
 preserveAspectRatio="xMidYMid meet">
<metadata>
Created by potrace 1.16, written by Peter Selinger 2001-2019
</metadata>
<g transform="translate(0.000000,68.000000) scale(0.100000,-0.100000)"
fill="#000000" stroke="none">
<path d="M530 569 c-8 -22 -29 -62 -47 -87 -18 -25 -31 -48 -29 -50 8 -7 62
27 90 57 27 28 35 31 95 31 81 0 111 8 111 28 0 12 -11 14 -63 9 -34 -3 -71
-9 -82 -13 -20 -7 -20 -7 0 15 19 22 19 23 0 37 -36 26 -61 18 -75 -27z"/>
<path d="M281 554 c-7 -19 -35 -64 -61 -100 -27 -35 -43 -64 -36 -64 17 0 91
58 112 88 13 18 25 22 72 22 69 0 104 9 99 24 -3 7 -26 10 -62 9 -44 -2 -55 1
-47 9 17 17 15 23 -13 36 -40 18 -50 15 -64 -24z"/>
<path d="M566 481 c-8 -12 46 -51 72 -51 21 0 38 28 25 41 -14 12 -91 21 -97
10z"/>
<path d="M310 462 c0 -17 49 -54 64 -49 24 10 19 44 -6 51 -32 8 -58 7 -58 -2z"/>
<path d="M437 394 c-3 -3 3 -21 14 -40 28 -51 25 -62 -26 -75 -25 -6 -45 -15
-45 -20 0 -11 24 -11 72 0 37 9 38 8 62 -35 18 -32 21 -46 13 -52 -11 -9 -82
-42 -117 -55 -44 -16 39 -4 90 13 l60 20 63 -50 c68 -53 143 -90 183 -90 24 0
24 1 18 67 -4 38 -8 70 -10 72 -2 2 -10 -12 -18 -31 -9 -20 -22 -38 -31 -42
-21 -7 -79 22 -130 67 l-40 34 40 21 c68 36 70 38 56 56 -19 23 -32 20 -68
-14 -18 -17 -36 -30 -41 -30 -6 0 -19 15 -30 34 -23 39 -20 45 41 67 20 7 37
17 37 22 0 9 -59 5 -97 -8 -20 -6 -23 -4 -23 18 0 13 -6 29 -12 35 -18 14 -53
23 -61 16z"/>
<path d="M625 392 c-5 -6 34 -36 56 -44 25 -10 45 7 31 25 -12 14 -78 28 -87
19z"/>
<path d="M314 382 c-6 -4 -16 -20 -23 -37 -16 -41 -46 -73 -114 -124 -32 -24
-56 -46 -53 -48 6 -6 61 23 110 59 l41 30 3 -59 c2 -32 -2 -75 -8 -95 -16 -56
15 -105 39 -60 11 21 19 212 9 212 -18 0 -6 40 17 58 14 11 25 27 25 36 0 18
-32 38 -46 28z"/>
</g>
</svg>
