<?xml version="1.0" standalone="no"?>
<!DOCTYPE svg PUBLIC "-//W3C//DTD SVG 20010904//EN"
 "http://www.w3.org/TR/2001/REC-SVG-20010904/DTD/svg10.dtd">
<svg version="1.0" xmlns="http://www.w3.org/2000/svg"
 width="90.000000pt" height="92.000000pt" viewBox="0 0 90.000000 92.000000"
 preserveAspectRatio="xMidYMid meet">
<metadata>
Created by potrace 1.16, written by Peter Selinger 2001-2019
</metadata>
<g transform="translate(0.000000,92.000000) scale(0.100000,-0.100000)"
fill="#000000" stroke="none">
<path d="M485 830 c-99 -23 -249 -40 -293 -33 -33 5 -42 -6 -19 -26 17 -14 32
-64 47 -161 7 -41 17 -84 22 -94 9 -17 12 -18 22 -4 6 8 35 18 69 21 l57 7 0
-39 c0 -45 -9 -51 -80 -51 -46 0 -71 -13 -55 -28 3 -4 34 -7 68 -6 65 0 77 -7
77 -42 0 -24 -15 -28 -153 -40 -83 -7 -100 -16 -66 -35 17 -9 48 -8 133 1 61
7 170 15 243 19 73 4 135 10 139 14 5 4 0 15 -9 24 -19 19 -57 21 -169 9 l-78
-8 0 30 c0 34 5 37 93 47 38 4 57 11 57 20 0 20 -34 27 -95 20 l-55 -7 0 35
c0 28 5 36 23 41 36 10 97 7 97 -5 0 -6 10 -9 23 -7 18 2 29 22 65 123 24 66
45 127 48 135 7 20 -63 60 -102 59 -16 0 -65 -9 -109 -19z m111 -88 c-4 -32
-12 -80 -19 -107 l-12 -49 -62 0 -62 -1 -3 98 c-3 91 -2 98 17 102 29 6 75 12
114 14 l34 1 -7 -58z m-221 6 c2 -13 6 -57 7 -98 l3 -75 -55 -3 -55 -3 -18 84
c-9 47 -17 89 -17 95 0 12 27 19 87 21 37 1 43 -2 48 -21z"/>
<path d="M492 684 l-33 -65 28 16 c83 49 100 80 55 104 -16 8 -22 2 -50 -55z"/>
<path d="M270 701 c0 -5 14 -26 31 -46 25 -28 34 -33 45 -24 19 15 18 33 -3
52 -23 20 -73 33 -73 18z"/>
<path d="M456 262 c-2 -4 8 -37 23 -72 20 -49 32 -65 46 -65 17 0 20 7 19 42
0 23 -7 49 -14 58 -18 22 -68 47 -74 37z"/>
<path d="M630 254 c0 -6 66 -89 109 -136 19 -21 28 -25 38 -17 22 19 16 67
-12 95 -36 36 -135 79 -135 58z"/>
<path d="M88 189 c-40 -64 -48 -106 -23 -115 44 -17 105 116 73 158 -12 16
-17 12 -50 -43z"/>
<path d="M284 223 c27 -109 37 -129 60 -120 11 5 16 19 16 50 0 34 -6 50 -26
71 -36 35 -58 35 -50 -1z"/>
</g>
</svg>
