<?xml version="1.0" standalone="no"?>
<!DOCTYPE svg PUBLIC "-//W3C//DTD SVG 20010904//EN"
 "http://www.w3.org/TR/2001/REC-SVG-20010904/DTD/svg10.dtd">
<svg version="1.0" xmlns="http://www.w3.org/2000/svg"
 width="90.000000pt" height="92.000000pt" viewBox="0 0 90.000000 92.000000"
 preserveAspectRatio="xMidYMid meet">
<metadata>
Created by potrace 1.16, written by Peter Selinger 2001-2019
</metadata>
<g transform="translate(0.000000,92.000000) scale(0.100000,-0.100000)"
fill="#000000" stroke="none">
<path d="M586 861 c-4 -5 -1 -22 4 -37 17 -43 15 -275 -2 -285 -7 -5 -42 -9
-76 -9 l-64 0 3 87 c3 86 3 88 -23 103 -15 8 -29 12 -32 10 -2 -3 -1 -43 3
-90 11 -120 12 -118 -72 -122 -40 -2 -72 -3 -73 -3 -1 0 2 43 5 95 6 89 5 96
-16 118 -12 12 -33 22 -47 22 -25 0 -25 -1 -10 -35 8 -21 14 -68 14 -118 l0
-84 -38 -7 c-20 -3 -63 -6 -94 -6 -67 0 -75 -14 -22 -36 28 -12 46 -13 91 -4
31 5 59 10 61 10 8 0 -11 -106 -29 -167 -11 -33 -35 -84 -54 -112 -20 -28 -31
-51 -25 -51 5 0 32 21 59 48 56 54 87 126 97 226 l7 65 73 3 74 3 0 -41 c0
-22 -5 -65 -11 -96 -9 -46 -9 -60 5 -86 33 -64 43 -42 52 113 l7 115 73 0 72
0 4 -210 c2 -137 7 -213 14 -220 24 -24 37 52 42 243 l4 187 88 0 c91 0 120 5
120 22 0 12 -85 49 -102 44 -7 -2 -34 -7 -60 -10 l-48 -6 0 113 c0 61 4 129 9
150 7 30 6 39 -8 46 -29 15 -70 21 -75 12z"/>
</g>
</svg>
