<?xml version="1.0" standalone="no"?>
<!DOCTYPE svg PUBLIC "-//W3C//DTD SVG 20010904//EN"
 "http://www.w3.org/TR/2001/REC-SVG-20010904/DTD/svg10.dtd">
<svg version="1.0" xmlns="http://www.w3.org/2000/svg"
 width="96.000000pt" height="68.000000pt" viewBox="0 0 96.000000 68.000000"
 preserveAspectRatio="xMidYMid meet">
<metadata>
Created by potrace 1.16, written by Peter Selinger 2001-2019
</metadata>
<g transform="translate(0.000000,68.000000) scale(0.100000,-0.100000)"
fill="#000000" stroke="none">
<path d="M395 543 c4 -10 9 -43 12 -74 5 -53 4 -56 -18 -62 -13 -4 -34 -7 -47
-7 -13 0 -20 -4 -17 -10 3 -5 22 -10 41 -10 19 0 34 -2 34 -5 0 -14 -52 -106
-82 -146 -52 -68 -55 -73 -27 -59 22 13 58 50 92 99 18 26 18 25 13 -84 -4
-66 -3 -116 3 -125 21 -31 32 8 38 130 l6 123 19 -27 c21 -28 48 -35 48 -13 0
16 -27 41 -52 50 -26 9 -25 67 1 67 26 0 51 10 51 21 0 5 -13 9 -30 9 -30 0
-30 0 -30 58 0 61 -11 82 -43 82 -14 0 -17 -5 -12 -17z"/>
</g>
</svg>
