<?xml version="1.0" standalone="no"?>
<!DOCTYPE svg PUBLIC "-//W3C//DTD SVG 20010904//EN"
 "http://www.w3.org/TR/2001/REC-SVG-20010904/DTD/svg10.dtd">
<svg version="1.0" xmlns="http://www.w3.org/2000/svg"
 width="96.000000pt" height="68.000000pt" viewBox="0 0 96.000000 68.000000"
 preserveAspectRatio="xMidYMid meet">
<metadata>
Created by potrace 1.16, written by Peter Selinger 2001-2019
</metadata>
<g transform="translate(0.000000,68.000000) scale(0.100000,-0.100000)"
fill="#000000" stroke="none">
<path d="M590 304 c-52 -8 -104 -13 -115 -11 -19 3 -20 -2 -20 -82 0 -47 -3
-95 -8 -107 -8 -22 16 -65 29 -52 4 4 11 56 16 115 6 60 12 110 14 112 2 2 51
6 109 9 l105 5 0 -113 0 -113 -42 6 -42 6 39 -34 c22 -19 45 -34 50 -35 25 -1
38 47 40 146 2 56 6 111 9 122 5 15 1 24 -13 31 -24 13 -47 12 -171 -5z"/>
</g>
</svg>
