<?xml version="1.0" standalone="no"?>
<!DOCTYPE svg PUBLIC "-//W3C//DTD SVG 20010904//EN"
 "http://www.w3.org/TR/2001/REC-SVG-20010904/DTD/svg10.dtd">
<svg version="1.0" xmlns="http://www.w3.org/2000/svg"
 width="96.000000pt" height="68.000000pt" viewBox="0 0 96.000000 68.000000"
 preserveAspectRatio="xMidYMid meet">
<metadata>
Created by potrace 1.16, written by Peter Selinger 2001-2019
</metadata>
<g transform="translate(0.000000,68.000000) scale(0.100000,-0.100000)"
fill="#000000" stroke="none">
<path d="M559 612 c-1 -4 -1 -46 1 -93 l2 -86 -68 -8 c-52 -5 -64 -9 -50 -17
10 -5 39 -7 68 -3 l51 7 -7 -133 c-4 -74 -9 -147 -12 -164 -7 -39 18 -76 38
-57 10 10 13 55 13 182 0 92 2 171 5 174 3 3 43 8 89 12 75 6 82 9 65 21 -18
14 -64 12 -133 -4 -23 -6 -23 -6 -20 77 4 78 3 83 -18 91 -13 5 -24 5 -24 1z"/>
</g>
</svg>
