<?xml version="1.0" standalone="no"?>
<!DOCTYPE svg PUBLIC "-//W3C//DTD SVG 20010904//EN"
 "http://www.w3.org/TR/2001/REC-SVG-20010904/DTD/svg10.dtd">
<svg version="1.0" xmlns="http://www.w3.org/2000/svg"
 width="96.000000pt" height="68.000000pt" viewBox="0 0 96.000000 68.000000"
 preserveAspectRatio="xMidYMid meet">
<metadata>
Created by potrace 1.16, written by Peter Selinger 2001-2019
</metadata>
<g transform="translate(0.000000,68.000000) scale(0.100000,-0.100000)"
fill="#000000" stroke="none">
<path d="M236 405 c-4 -14 -38 -59 -78 -100 -39 -41 -66 -75 -61 -75 5 0 31
16 58 34 27 19 52 33 57 30 11 -7 10 -74 -3 -135 -12 -55 0 -104 24 -96 19 6
29 238 11 253 -11 9 -6 18 26 49 30 30 37 42 29 52 -20 23 -56 16 -63 -12z"/>
</g>
</svg>
