<?xml version="1.0" standalone="no"?>
<!DOCTYPE svg PUBLIC "-//W3C//DTD SVG 20010904//EN"
 "http://www.w3.org/TR/2001/REC-SVG-20010904/DTD/svg10.dtd">
<svg version="1.0" xmlns="http://www.w3.org/2000/svg"
 width="96.000000pt" height="68.000000pt" viewBox="0 0 96.000000 68.000000"
 preserveAspectRatio="xMidYMid meet">
<metadata>
Created by potrace 1.16, written by Peter Selinger 2001-2019
</metadata>
<g transform="translate(0.000000,68.000000) scale(0.100000,-0.100000)"
fill="#000000" stroke="none">
<path d="M697 364 c-3 -4 -4 -11 0 -17 3 -5 6 -54 6 -108 0 -55 4 -99 9 -99 4
0 8 -5 8 -11 0 -5 -5 -7 -10 -4 -6 4 -10 3 -9 -2 6 -34 -33 -60 -61 -40 -8 6
-1 -4 17 -21 38 -38 48 -39 67 -9 21 33 17 311 -5 315 -8 1 -18 0 -22 -4z m28
-293 c-8 -14 -25 -14 -25 0 0 5 5 7 10 4 6 -3 10 -1 10 6 0 7 3 10 6 6 3 -3 3
-10 -1 -16z"/>
</g>
</svg>
