<?xml version="1.0" standalone="no"?>
<!DOCTYPE svg PUBLIC "-//W3C//DTD SVG 20010904//EN"
 "http://www.w3.org/TR/2001/REC-SVG-20010904/DTD/svg10.dtd">
<svg version="1.0" xmlns="http://www.w3.org/2000/svg"
 width="96.000000pt" height="68.000000pt" viewBox="0 0 96.000000 68.000000"
 preserveAspectRatio="xMidYMid meet">
<metadata>
Created by potrace 1.16, written by Peter Selinger 2001-2019
</metadata>
<g transform="translate(0.000000,68.000000) scale(0.100000,-0.100000)"
fill="#000000" stroke="none">
<path d="M546 593 c-3 -10 -17 -31 -31 -47 -14 -16 -25 -32 -25 -37 0 -4 -25
-9 -55 -11 -52 -3 -68 3 -45 17 15 9 12 23 -10 45 -19 19 -80 28 -80 12 0 -4
16 -24 36 -45 l36 -37 -46 0 c-34 0 -46 -4 -46 -15 0 -12 14 -15 65 -15 53 0
66 -3 74 -19 14 -25 5 -31 -48 -32 -25 0 -55 -4 -65 -8 -33 -13 0 -23 62 -19
55 3 57 2 60 -23 l3 -26 -100 -7 c-56 -4 -101 -12 -101 -17 0 -5 18 -9 40 -9
34 0 42 -4 55 -30 28 -54 24 -57 -92 -67 -100 -8 -106 -10 -81 -22 22 -11 44
-12 120 -2 51 7 185 15 298 17 113 3 216 7 230 10 25 6 25 6 5 21 -16 12 -41
14 -134 9 l-114 -5 24 25 c20 21 21 28 11 44 -11 19 -9 20 30 20 24 0 49 4 57
9 27 17 -11 24 -106 17 l-94 -7 3 28 c3 25 7 28 43 31 60 4 87 11 80 23 -4 5
-32 9 -62 7 -51 -3 -56 -1 -58 18 -1 20 5 23 72 29 77 7 92 15 68 35 -10 8
-30 10 -62 6 l-48 -7 50 27 c68 36 74 43 51 60 -27 19 -63 18 -70 -3z m-2
-310 c-10 -56 -20 -63 -90 -63 -63 0 -65 1 -75 29 -6 16 -18 33 -27 37 -22 10
39 21 130 23 l67 1 -5 -27z"/>
<path d="M435 158 c-44 -5 -99 -6 -122 -4 -24 3 -43 2 -43 -3 0 -5 4 -11 10
-13 5 -1 20 -30 33 -62 l23 -60 118 3 c123 3 150 7 140 22 -5 9 33 71 48 77
19 8 6 31 -23 41 -36 12 -69 12 -184 -1z m125 -37 c0 -11 -4 -31 -9 -44 -9
-22 -16 -24 -97 -30 -49 -4 -92 -3 -96 1 -4 4 -9 23 -10 42 l-3 35 60 6 c130
12 155 11 155 -10z"/>
</g>
</svg>
