<?xml version="1.0" standalone="no"?>
<!DOCTYPE svg PUBLIC "-//W3C//DTD SVG 20010904//EN"
 "http://www.w3.org/TR/2001/REC-SVG-20010904/DTD/svg10.dtd">
<svg version="1.0" xmlns="http://www.w3.org/2000/svg"
 width="90.000000pt" height="92.000000pt" viewBox="0 0 90.000000 92.000000"
 preserveAspectRatio="xMidYMid meet">
<metadata>
Created by potrace 1.16, written by Peter Selinger 2001-2019
</metadata>
<g transform="translate(0.000000,92.000000) scale(0.100000,-0.100000)"
fill="#000000" stroke="none">
<path d="M569 888 c-1 -7 -1 -17 0 -22 1 -5 -1 -27 -4 -48 -7 -37 -8 -38 -50
-38 -24 0 -46 -4 -50 -9 -7 -13 27 -31 59 -31 l25 0 -20 -57 c-10 -31 -19 -58
-19 -61 0 -14 36 30 62 75 l30 53 61 0 c34 0 69 5 77 10 27 17 -7 35 -65 35
-60 0 -61 1 -43 41 11 23 10 28 -11 45 -27 22 -50 25 -52 7z"/>
<path d="M270 867 c0 -8 7 -34 15 -57 8 -24 13 -45 11 -47 -2 -3 -36 -5 -75
-6 -79 -2 -88 -14 -39 -50 27 -20 29 -20 63 -4 51 24 60 22 74 -23 16 -55 31
-50 31 9 0 48 1 50 35 61 19 6 35 16 35 22 0 6 -15 8 -35 6 -19 -2 -35 -4 -35
-3 -1 0 -3 18 -6 40 -7 47 -10 51 -46 60 -21 5 -28 3 -28 -8z"/>
<path d="M267 653 c-4 -3 -7 -15 -7 -26 0 -28 -65 -112 -118 -152 -25 -19 -40
-35 -33 -35 28 0 110 52 152 97 73 78 75 80 54 103 -18 20 -36 25 -48 13z"/>
<path d="M552 591 c-139 -23 -105 -56 42 -39 103 12 132 23 116 43 -15 18 -34
17 -158 -4z"/>
<path d="M297 523 c-4 -3 -7 -16 -7 -29 0 -39 -115 -170 -200 -227 -13 -9 -19
-17 -12 -17 16 0 112 48 134 67 14 13 17 11 23 -17 8 -36 -2 -136 -16 -162
-10 -18 11 -90 28 -95 28 -10 51 259 24 291 -11 13 -5 24 38 74 28 32 51 63
51 69 0 10 -42 53 -51 53 -3 0 -9 -3 -12 -7z"/>
<path d="M600 450 c-63 -9 -141 -20 -172 -24 -32 -4 -58 -11 -58 -16 0 -20 59
-28 139 -17 69 9 84 8 92 -4 5 -8 8 -70 7 -139 l-3 -125 -50 3 -49 2 44 -47
c56 -59 60 -62 76 -56 30 11 42 66 37 178 -3 62 -1 126 5 147 8 28 7 40 -1 45
-16 10 33 20 101 22 54 1 66 13 35 37 -23 17 -61 16 -203 -6z"/>
</g>
</svg>
