<?xml version="1.0" standalone="no"?>
<!DOCTYPE svg PUBLIC "-//W3C//DTD SVG 20010904//EN"
 "http://www.w3.org/TR/2001/REC-SVG-20010904/DTD/svg10.dtd">
<svg version="1.0" xmlns="http://www.w3.org/2000/svg"
 width="96.000000pt" height="68.000000pt" viewBox="0 0 96.000000 68.000000"
 preserveAspectRatio="xMidYMid meet">
<metadata>
Created by potrace 1.16, written by Peter Selinger 2001-2019
</metadata>
<g transform="translate(0.000000,68.000000) scale(0.100000,-0.100000)"
fill="#000000" stroke="none">
<path d="M214 467 c-1 -45 -7 -94 -13 -109 -9 -25 -16 -28 -56 -28 -25 0 -45
-4 -45 -8 0 -17 25 -32 52 -32 27 0 29 -2 23 -33 -6 -29 -3 -34 29 -51 20 -11
36 -22 36 -26 0 -9 -74 -71 -105 -88 -11 -6 -14 -12 -7 -12 23 0 76 26 110 55
l33 28 23 -22 c26 -24 56 -28 56 -7 0 8 -13 24 -29 35 l-29 21 24 57 c13 32
24 66 24 75 0 9 12 21 28 26 17 7 21 11 10 11 -10 1 -18 5 -18 10 0 13 -58 32
-65 20 -4 -5 -3 -14 1 -20 8 -14 -14 -29 -43 -29 -28 0 -28 -6 -1 97 22 83 22
85 3 99 -35 26 -40 17 -41 -69z m86 -154 c-1 -30 -38 -103 -53 -103 -7 0 -22
6 -32 14 -16 11 -17 19 -9 47 7 26 18 37 44 46 47 16 50 16 50 -4z"/>
</g>
</svg>
