<?xml version="1.0" standalone="no"?>
<!DOCTYPE svg PUBLIC "-//W3C//DTD SVG 20010904//EN"
 "http://www.w3.org/TR/2001/REC-SVG-20010904/DTD/svg10.dtd">
<svg version="1.0" xmlns="http://www.w3.org/2000/svg"
 width="96.000000pt" height="68.000000pt" viewBox="0 0 96.000000 68.000000"
 preserveAspectRatio="xMidYMid meet">
<metadata>
Created by potrace 1.16, written by Peter Selinger 2001-2019
</metadata>
<g transform="translate(0.000000,68.000000) scale(0.100000,-0.100000)"
fill="#000000" stroke="none">
<path d="M230 534 c6 -14 10 -50 10 -79 0 -50 -2 -55 -25 -60 -77 -16 -81 -20
-29 -23 57 -3 64 -12 64 -79 0 -37 -11 -45 -90 -63 -71 -16 -75 -19 -53 -36
30 -22 56 -16 174 41 100 49 110 61 32 39 -22 -6 -23 -4 -23 49 l0 55 45 6
c25 4 45 11 45 16 0 13 -28 20 -60 13 -28 -5 -30 -3 -30 23 0 16 5 45 10 64
12 41 -5 60 -52 60 -25 0 -27 -2 -18 -26z"/>
</g>
</svg>
