<?xml version="1.0" standalone="no"?>
<!DOCTYPE svg PUBLIC "-//W3C//DTD SVG 20010904//EN"
 "http://www.w3.org/TR/2001/REC-SVG-20010904/DTD/svg10.dtd">
<svg version="1.0" xmlns="http://www.w3.org/2000/svg"
 width="96.000000pt" height="68.000000pt" viewBox="0 0 96.000000 68.000000"
 preserveAspectRatio="xMidYMid meet">
<metadata>
Created by potrace 1.16, written by Peter Selinger 2001-2019
</metadata>
<g transform="translate(0.000000,68.000000) scale(0.100000,-0.100000)"
fill="#000000" stroke="none">
<path d="M636 496 c4 -17 7 -54 6 -81 -1 -28 3 -57 8 -65 5 -8 10 -13 10 -10
20 175 19 185 -8 186 -21 1 -22 -2 -16 -30z m21 -48 c-3 -8 -6 -5 -6 6 -1 11
2 17 5 13 3 -3 4 -12 1 -19z"/>
<path d="M714 341 c4 -5 3 -11 -1 -14 -5 -2 -1 -2 7 1 8 2 21 5 28 5 24 1 12
17 -14 17 -14 0 -23 -4 -20 -9z"/>
<path d="M628 332 c-10 -2 -18 -8 -18 -13 0 -6 4 -8 9 -5 20 13 32 -31 18 -64
-6 -13 -12 -48 -16 -98 0 -7 -5 -11 -10 -8 -4 3 -14 -7 -20 -22 -12 -26 -11
-26 18 6 17 18 32 44 33 58 0 13 1 30 2 37 1 6 9 21 18 31 12 13 15 23 8 31
-12 14 -2 48 11 39 5 -3 9 0 9 5 0 10 -23 11 -62 3z"/>
<path d="M680 257 c0 -3 10 -26 22 -49 13 -24 23 -47 24 -53 1 -5 12 -27 24
-47 22 -37 37 -44 73 -30 15 6 13 10 -13 25 -16 10 -34 27 -40 37 -7 12 -16
17 -27 13 -10 -4 -14 -2 -9 5 3 6 -7 32 -24 58 -16 26 -30 45 -30 41z"/>
</g>
</svg>
