<?xml version="1.0" standalone="no"?>
<!DOCTYPE svg PUBLIC "-//W3C//DTD SVG 20010904//EN"
 "http://www.w3.org/TR/2001/REC-SVG-20010904/DTD/svg10.dtd">
<svg version="1.0" xmlns="http://www.w3.org/2000/svg"
 width="96.000000pt" height="68.000000pt" viewBox="0 0 96.000000 68.000000"
 preserveAspectRatio="xMidYMid meet">
<metadata>
Created by potrace 1.16, written by Peter Selinger 2001-2019
</metadata>
<g transform="translate(0.000000,68.000000) scale(0.100000,-0.100000)"
fill="#000000" stroke="none">
<path d="M290 400 c0 -3 11 -17 25 -30 19 -18 28 -21 37 -12 8 8 8 15 -1 25
-12 16 -61 29 -61 17z"/>
<path d="M320 319 c-52 -10 -123 -18 -157 -18 -68 -1 -78 -11 -38 -37 23 -15
30 -15 102 4 43 11 113 28 155 37 78 16 113 36 61 34 -15 -1 -71 -10 -123 -20z"/>
</g>
</svg>
