<?xml version="1.0" standalone="no"?>
<!DOCTYPE svg PUBLIC "-//W3C//DTD SVG 20010904//EN"
 "http://www.w3.org/TR/2001/REC-SVG-20010904/DTD/svg10.dtd">
<svg version="1.0" xmlns="http://www.w3.org/2000/svg"
 width="96.000000pt" height="68.000000pt" viewBox="0 0 96.000000 68.000000"
 preserveAspectRatio="xMidYMid meet">
<metadata>
Created by potrace 1.16, written by Peter Selinger 2001-2019
</metadata>
<g transform="translate(0.000000,68.000000) scale(0.100000,-0.100000)"
fill="#000000" stroke="none">
<path d="M619 453 c-1 -5 -2 -17 -3 -28 -1 -15 -11 -21 -45 -27 -59 -10 -64
-18 -11 -18 42 0 42 0 28 -22 -8 -13 -34 -38 -57 -55 -53 -41 -29 -43 30 -3
24 16 48 30 53 30 5 0 6 -19 3 -41 -6 -48 -1 -69 19 -69 10 0 14 15 14 60 0
33 2 60 5 60 3 0 24 -13 47 -30 44 -32 78 -39 78 -15 0 15 -56 48 -102 59 -31
7 -37 30 -12 40 9 3 31 6 50 6 23 0 33 4 29 11 -4 6 -26 9 -49 7 -27 -2 -41 2
-42 10 -1 6 -2 17 -3 22 -1 12 -30 14 -32 3z"/>
</g>
</svg>
