<?xml version="1.0" standalone="no"?>
<!DOCTYPE svg PUBLIC "-//W3C//DTD SVG 20010904//EN"
 "http://www.w3.org/TR/2001/REC-SVG-20010904/DTD/svg10.dtd">
<svg version="1.0" xmlns="http://www.w3.org/2000/svg"
 width="90.000000pt" height="92.000000pt" viewBox="0 0 90.000000 92.000000"
 preserveAspectRatio="xMidYMid meet">
<metadata>
Created by potrace 1.16, written by Peter Selinger 2001-2019
</metadata>
<g transform="translate(0.000000,92.000000) scale(0.100000,-0.100000)"
fill="#000000" stroke="none">
<path d="M390 859 c0 -37 -42 -108 -103 -175 -32 -35 -56 -64 -52 -64 15 0 69
34 103 64 33 30 45 34 110 38 39 3 72 3 72 1 0 -2 -18 -30 -40 -62 -43 -65
-42 -64 -185 -82 -55 -7 -102 -14 -104 -15 -1 -1 4 -13 13 -26 18 -26 20 -92
5 -157 -19 -82 -60 -153 -134 -228 -40 -40 -69 -73 -66 -73 3 0 29 13 56 29
105 60 166 160 205 332 l22 97 71 11 c40 6 138 16 220 23 150 13 172 21 122
48 -21 11 -41 12 -116 1 -50 -7 -92 -11 -95 -8 -4 4 71 77 119 114 36 28 34
41 -8 59 -31 13 -39 12 -82 -5 -59 -22 -113 -33 -113 -22 0 4 11 18 25 31 32
30 31 43 -1 69 -34 27 -44 26 -44 0z"/>
<path d="M476 472 c-52 -12 -78 -13 -107 -5 -21 5 -40 9 -41 7 -2 -1 0 -67 3
-146 6 -169 16 -195 84 -228 96 -46 276 -47 380 -1 46 20 47 22 40 53 -4 18
-12 60 -19 93 l-12 60 -20 -59 c-23 -66 -49 -92 -110 -106 -100 -24 -248 -1
-279 43 -16 23 -20 119 -8 191 5 32 12 41 40 53 19 7 58 15 86 16 l52 2 -3
-45 c-2 -25 -10 -55 -18 -68 -13 -19 -20 -22 -51 -16 l-36 7 33 -47 c18 -25
37 -46 42 -46 20 0 57 50 68 91 7 24 18 64 26 89 13 42 12 46 -7 63 -25 20
-50 20 -143 -1z"/>
</g>
</svg>
