<?xml version="1.0" standalone="no"?>
<!DOCTYPE svg PUBLIC "-//W3C//DTD SVG 20010904//EN"
 "http://www.w3.org/TR/2001/REC-SVG-20010904/DTD/svg10.dtd">
<svg version="1.0" xmlns="http://www.w3.org/2000/svg"
 width="96.000000pt" height="68.000000pt" viewBox="0 0 96.000000 68.000000"
 preserveAspectRatio="xMidYMid meet">
<metadata>
Created by potrace 1.16, written by Peter Selinger 2001-2019
</metadata>
<g transform="translate(0.000000,68.000000) scale(0.100000,-0.100000)"
fill="#000000" stroke="none">
<path d="M432 588 c-14 -36 -38 -66 -95 -115 -50 -44 -20 -45 47 -2 35 22 63
31 102 33 30 2 54 -1 54 -6 0 -5 -14 -25 -31 -43 -30 -31 -38 -34 -136 -46
-69 -9 -100 -16 -93 -23 16 -16 11 -117 -8 -157 -22 -46 -69 -100 -123 -138
-60 -44 -23 -38 47 7 71 46 115 109 140 202 9 36 22 70 28 76 6 7 85 17 191
24 99 6 182 14 185 17 3 2 -4 11 -15 19 -20 15 -81 12 -154 -6 -33 -9 -33 -9
-15 11 9 10 42 35 72 55 29 20 50 40 45 44 -20 19 -79 27 -113 14 -19 -7 -48
-13 -65 -13 l-30 -1 25 20 c20 16 23 22 14 37 -6 10 -22 19 -35 21 -20 2 -27
-4 -37 -30z"/>
<path d="M515 329 c-27 -5 -66 -7 -85 -4 l-36 5 4 -103 c2 -59 9 -111 17 -122
40 -64 327 -82 413 -26 11 7 11 18 1 65 -8 31 -16 56 -19 56 -3 0 -14 -19 -25
-42 -16 -34 -28 -44 -65 -56 -56 -18 -214 -13 -248 9 -36 22 -45 77 -27 165 4
18 16 24 70 33 36 7 71 9 76 5 13 -8 5 -70 -12 -90 -7 -8 -20 -12 -35 -8 -28
7 -30 1 -7 -26 34 -40 85 -17 98 45 4 17 11 40 17 52 24 49 -22 62 -137 42z"/>
</g>
</svg>
