<?xml version="1.0" standalone="no"?>
<!DOCTYPE svg PUBLIC "-//W3C//DTD SVG 20010904//EN"
 "http://www.w3.org/TR/2001/REC-SVG-20010904/DTD/svg10.dtd">
<svg version="1.0" xmlns="http://www.w3.org/2000/svg"
 width="96.000000pt" height="68.000000pt" viewBox="0 0 96.000000 68.000000"
 preserveAspectRatio="xMidYMid meet">
<metadata>
Created by potrace 1.16, written by Peter Selinger 2001-2019
</metadata>
<g transform="translate(0.000000,68.000000) scale(0.100000,-0.100000)"
fill="#000000" stroke="none">
<path d="M469 331 c-11 -15 -39 -38 -60 -51 -26 -14 -39 -28 -37 -38 5 -22 27
-20 158 11 104 25 105 25 126 6 27 -25 46 -24 42 2 -4 26 -41 55 -83 65 -30 7
-30 7 -12 -13 18 -21 17 -21 -46 -32 -102 -18 -108 -15 -63 23 22 19 36 38 32
45 -12 19 -35 12 -57 -18z"/>
</g>
</svg>
