<?xml version="1.0" standalone="no"?>
<!DOCTYPE svg PUBLIC "-//W3C//DTD SVG 20010904//EN"
 "http://www.w3.org/TR/2001/REC-SVG-20010904/DTD/svg10.dtd">
<svg version="1.0" xmlns="http://www.w3.org/2000/svg"
 width="96.000000pt" height="68.000000pt" viewBox="0 0 96.000000 68.000000"
 preserveAspectRatio="xMidYMid meet">
<metadata>
Created by potrace 1.16, written by Peter Selinger 2001-2019
</metadata>
<g transform="translate(0.000000,68.000000) scale(0.100000,-0.100000)"
fill="#000000" stroke="none">
<path d="M295 550 c-11 -5 -42 -9 -69 -9 -48 -1 -48 -1 -43 -30 3 -15 9 -51
13 -80 4 -33 11 -51 20 -51 11 0 14 17 14 69 l0 69 50 11 c76 16 74 19 66 -59
-5 -58 -4 -70 9 -70 8 0 19 17 25 43 6 23 15 54 20 68 5 17 4 31 -3 38 -13 13
-73 13 -102 1z"/>
</g>
</svg>
