<?xml version="1.0" standalone="no"?>
<!DOCTYPE svg PUBLIC "-//W3C//DTD SVG 20010904//EN"
 "http://www.w3.org/TR/2001/REC-SVG-20010904/DTD/svg10.dtd">
<svg version="1.0" xmlns="http://www.w3.org/2000/svg"
 width="96.000000pt" height="68.000000pt" viewBox="0 0 96.000000 68.000000"
 preserveAspectRatio="xMidYMid meet">
<metadata>
Created by potrace 1.16, written by Peter Selinger 2001-2019
</metadata>
<g transform="translate(0.000000,68.000000) scale(0.100000,-0.100000)"
fill="#000000" stroke="none">
<path d="M595 509 c-22 -4 -64 -8 -94 -8 -52 -1 -53 -2 -38 -19 26 -29 20 -40
-20 -44 l-38 -4 41 -8 c29 -6 45 -15 52 -30 10 -22 14 -22 78 -14 38 4 77 5
86 2 12 -3 22 4 33 25 8 17 22 32 30 32 8 1 20 3 25 4 6 1 24 3 41 4 45 2 25
21 -23 21 -31 0 -39 3 -34 15 12 31 -52 43 -139 24z m75 -29 c0 -16 -7 -20
-30 -20 -32 0 -33 1 -24 24 9 24 54 21 54 -4z m-100 -10 c0 -16 -7 -20 -30
-20 -23 0 -30 4 -30 20 0 16 7 20 30 20 23 0 30 -4 30 -20z m98 -42 c-7 -20
-58 -23 -58 -4 0 11 10 16 31 16 20 0 29 -4 27 -12z m-98 -13 c0 -9 -9 -15
-25 -15 -16 0 -25 6 -25 15 0 9 9 15 25 15 16 0 25 -6 25 -15z"/>
</g>
</svg>
