<?xml version="1.0" standalone="no"?>
<!DOCTYPE svg PUBLIC "-//W3C//DTD SVG 20010904//EN"
 "http://www.w3.org/TR/2001/REC-SVG-20010904/DTD/svg10.dtd">
<svg version="1.0" xmlns="http://www.w3.org/2000/svg"
 width="96.000000pt" height="68.000000pt" viewBox="0 0 96.000000 68.000000"
 preserveAspectRatio="xMidYMid meet">
<metadata>
Created by potrace 1.16, written by Peter Selinger 2001-2019
</metadata>
<g transform="translate(0.000000,68.000000) scale(0.100000,-0.100000)"
fill="#000000" stroke="none">
<path d="M593 213 c-23 -8 -14 -19 15 -19 25 1 27 -2 28 -39 1 -47 -23 -95
-48 -95 -10 0 -18 -5 -18 -11 0 -5 -4 -7 -10 -4 -6 3 -7 -1 -4 -9 9 -23 41
-29 64 -13 11 7 17 17 13 20 -3 4 -1 7 5 7 10 0 24 29 28 55 6 41 18 75 27 75
6 0 4 7 -5 16 -16 16 -71 26 -95 17z"/>
</g>
</svg>
