<?xml version="1.0" standalone="no"?>
<!DOCTYPE svg PUBLIC "-//W3C//DTD SVG 20010904//EN"
 "http://www.w3.org/TR/2001/REC-SVG-20010904/DTD/svg10.dtd">
<svg version="1.0" xmlns="http://www.w3.org/2000/svg"
 width="96.000000pt" height="68.000000pt" viewBox="0 0 96.000000 68.000000"
 preserveAspectRatio="xMidYMid meet">
<metadata>
Created by potrace 1.16, written by Peter Selinger 2001-2019
</metadata>
<g transform="translate(0.000000,68.000000) scale(0.100000,-0.100000)"
fill="#000000" stroke="none">
<path d="M577 577 l5 -44 -53 -7 c-38 -5 -49 -10 -39 -16 8 -6 27 -10 43 -10
15 0 27 -4 27 -8 0 -10 -42 -48 -86 -78 -31 -21 -31 -21 -26 -1 6 24 -21 47
-56 47 -38 0 -20 25 21 28 58 5 44 36 -15 34 -30 -1 -30 0 -23 44 l6 44 -31 0
-32 0 7 -49 6 -48 -38 -6 c-21 -4 -53 -7 -70 -7 -35 0 -44 -14 -17 -24 9 -3
33 -6 55 -6 36 0 39 -2 29 -19 -5 -11 -38 -41 -72 -67 -34 -26 -57 -49 -51
-51 17 -6 104 41 136 72 20 20 27 23 27 12 0 -9 -4 -18 -9 -21 -9 -6 1 -72 13
-83 3 -3 12 -3 21 0 11 5 15 21 15 62 0 30 3 55 8 55 4 -1 18 -10 31 -21 21
-17 22 -22 10 -30 -11 -7 -10 -8 6 -6 26 4 81 33 124 66 l34 26 -6 -51 c-4
-35 -2 -58 7 -69 22 -30 36 -8 36 56 l0 60 48 -33 c26 -18 50 -37 53 -42 10
-13 39 1 39 18 0 19 -29 38 -92 61 -62 23 -62 41 2 50 34 5 50 12 50 21 0 12
-11 14 -47 12 l-48 -3 0 35 c-1 30 -5 35 -27 38 -25 3 -26 2 -21 -41z"/>
<path d="M455 310 c-16 -4 -47 -8 -67 -9 -20 0 -40 -6 -44 -13 -5 -8 19 -10
97 -5 112 8 149 14 149 28 0 11 -92 10 -135 -1z"/>
<path d="M550 245 c-8 -2 -97 -9 -197 -16 -101 -7 -183 -16 -183 -20 0 -17 53
-21 157 -11 60 6 112 7 116 3 4 -4 7 -35 5 -67 -3 -55 -5 -59 -28 -61 -14 0
-28 -1 -33 -2 -11 -2 45 -61 58 -61 26 0 45 37 45 87 0 28 3 64 6 81 l6 30
129 7 c120 6 151 14 113 29 -16 6 -165 6 -194 1z"/>
<path d="M590 155 c0 -3 21 -26 46 -51 50 -48 77 -53 82 -16 3 18 -5 26 -40
41 -56 24 -88 34 -88 26z"/>
<path d="M270 111 c-20 -20 -44 -42 -55 -48 -18 -11 -17 -12 10 -6 41 9 125
62 125 79 0 26 -44 12 -80 -25z"/>
</g>
</svg>
