<?xml version="1.0" standalone="no"?>
<!DOCTYPE svg PUBLIC "-//W3C//DTD SVG 20010904//EN"
 "http://www.w3.org/TR/2001/REC-SVG-20010904/DTD/svg10.dtd">
<svg version="1.0" xmlns="http://www.w3.org/2000/svg"
 width="96.000000pt" height="68.000000pt" viewBox="0 0 96.000000 68.000000"
 preserveAspectRatio="xMidYMid meet">
<metadata>
Created by potrace 1.16, written by Peter Selinger 2001-2019
</metadata>
<g transform="translate(0.000000,68.000000) scale(0.100000,-0.100000)"
fill="#000000" stroke="none">
<path d="M316 578 c-20 -64 -29 -85 -60 -131 -20 -30 -63 -80 -96 -111 -33
-32 -60 -59 -60 -62 0 -10 81 38 114 66 18 17 36 30 40 30 10 0 7 -153 -5
-194 -8 -28 -7 -46 1 -67 14 -32 22 -36 38 -16 12 14 19 283 8 308 -4 10 11
38 45 83 43 57 49 70 38 81 -22 21 -59 28 -63 13z"/>
</g>
</svg>
