<?xml version="1.0" standalone="no"?>
<!DOCTYPE svg PUBLIC "-//W3C//DTD SVG 20010904//EN"
 "http://www.w3.org/TR/2001/REC-SVG-20010904/DTD/svg10.dtd">
<svg version="1.0" xmlns="http://www.w3.org/2000/svg"
 width="96.000000pt" height="68.000000pt" viewBox="0 0 96.000000 68.000000"
 preserveAspectRatio="xMidYMid meet">
<metadata>
Created by potrace 1.16, written by Peter Selinger 2001-2019
</metadata>
<g transform="translate(0.000000,68.000000) scale(0.100000,-0.100000)"
fill="#000000" stroke="none">
<path d="M527 634 c-3 -3 -3 -11 -1 -18 11 -29 -14 -63 -51 -70 -41 -8 -38
-26 5 -26 27 0 28 -2 20 -30 -12 -42 9 -39 38 4 22 32 27 34 92 38 38 2 72 7
77 11 15 16 -23 28 -74 24 -47 -3 -51 -2 -42 14 14 27 11 35 -16 47 -29 13
-39 15 -48 6z"/>
<path d="M260 605 c0 -3 7 -19 15 -35 18 -34 9 -40 -67 -40 -55 0 -61 -15 -16
-38 19 -9 34 -9 53 -2 42 16 61 12 73 -15 16 -34 32 -31 32 6 0 24 6 32 30 40
41 15 39 33 -4 25 -31 -6 -34 -4 -42 26 -8 27 -15 34 -42 36 -18 2 -32 1 -32
-3z"/>
<path d="M400 450 c0 -5 5 -10 11 -10 5 0 8 -4 5 -9 -4 -5 0 -11 6 -14 29 -10
-6 -18 -121 -29 -66 -6 -121 -14 -121 -18 0 -11 54 -20 79 -13 19 5 21 1 21
-36 0 -53 9 -55 205 -46 115 5 155 10 155 20 0 17 -44 24 -88 14 -20 -5 -81
-9 -134 -9 l-98 0 0 34 0 34 73 6 c39 3 118 9 175 12 97 6 128 17 80 29 -13 3
-59 4 -103 3 -63 -2 -80 0 -80 11 0 8 -9 17 -20 22 -28 11 -45 11 -45 -1z"/>
<path d="M268 206 c6 -47 -24 -103 -71 -134 -47 -31 -32 -42 21 -14 66 34 120
135 88 167 -26 26 -42 18 -38 -19z"/>
<path d="M419 232 c-5 -32 5 -169 12 -176 18 -19 27 9 30 88 3 74 2 79 -19 87
-12 5 -22 5 -23 1z"/>
<path d="M563 160 c4 -53 12 -89 21 -99 30 -29 216 -26 216 4 0 20 -35 27 -77
16 -21 -6 -55 -11 -75 -11 -32 0 -39 4 -44 24 -3 14 -1 48 5 77 6 29 10 53 9
55 -2 1 -16 6 -32 10 l-29 7 6 -83z"/>
</g>
</svg>
