<?xml version="1.0" standalone="no"?>
<!DOCTYPE svg PUBLIC "-//W3C//DTD SVG 20010904//EN"
 "http://www.w3.org/TR/2001/REC-SVG-20010904/DTD/svg10.dtd">
<svg version="1.0" xmlns="http://www.w3.org/2000/svg"
 width="96.000000pt" height="68.000000pt" viewBox="0 0 96.000000 68.000000"
 preserveAspectRatio="xMidYMid meet">
<metadata>
Created by potrace 1.16, written by Peter Selinger 2001-2019
</metadata>
<g transform="translate(0.000000,68.000000) scale(0.100000,-0.100000)"
fill="#000000" stroke="none">
<path d="M400 455 c0 -3 7 -16 15 -29 15 -23 15 -23 -32 -29 -26 -4 -83 -9
-125 -13 -43 -4 -78 -10 -78 -14 0 -17 50 -19 145 -5 55 8 157 17 228 20 70 4
127 11 127 15 0 17 -44 22 -126 15 -72 -6 -84 -5 -84 9 0 8 -9 20 -19 26 -21
11 -51 14 -51 5z"/>
</g>
</svg>
