<?xml version="1.0" standalone="no"?>
<!DOCTYPE svg PUBLIC "-//W3C//DTD SVG 20010904//EN"
 "http://www.w3.org/TR/2001/REC-SVG-20010904/DTD/svg10.dtd">
<svg version="1.0" xmlns="http://www.w3.org/2000/svg"
 width="96.000000pt" height="68.000000pt" viewBox="0 0 96.000000 68.000000"
 preserveAspectRatio="xMidYMid meet">
<metadata>
Created by potrace 1.16, written by Peter Selinger 2001-2019
</metadata>
<g transform="translate(0.000000,68.000000) scale(0.100000,-0.100000)"
fill="#000000" stroke="none">
<path d="M370 583 c-20 -7 -55 -10 -80 -7 l-45 5 0 -63 c-1 -72 -24 -124 -82
-188 -54 -61 -19 -48 43 15 30 31 57 70 62 88 8 32 9 32 90 41 67 8 82 12 77
24 -3 8 2 26 11 39 30 46 -9 70 -76 46z m18 -50 c-3 -24 -9 -29 -46 -37 -49
-10 -57 -6 -48 28 6 25 21 33 69 35 25 1 28 -2 25 -26z"/>
</g>
</svg>
