<?xml version="1.0" standalone="no"?>
<!DOCTYPE svg PUBLIC "-//W3C//DTD SVG 20010904//EN"
 "http://www.w3.org/TR/2001/REC-SVG-20010904/DTD/svg10.dtd">
<svg version="1.0" xmlns="http://www.w3.org/2000/svg"
 width="90.000000pt" height="92.000000pt" viewBox="0 0 90.000000 92.000000"
 preserveAspectRatio="xMidYMid meet">
<metadata>
Created by potrace 1.16, written by Peter Selinger 2001-2019
</metadata>
<g transform="translate(0.000000,92.000000) scale(0.100000,-0.100000)"
fill="#000000" stroke="none">
<path d="M444 843 c-10 -42 -49 -116 -73 -137 -24 -22 -27 -48 -8 -64 9 -8 32
-5 80 8 37 10 67 17 67 14 0 -3 -6 -18 -14 -33 -14 -26 -21 -28 -115 -40 -56
-7 -101 -17 -101 -22 0 -23 49 -32 111 -20 33 7 63 10 66 7 8 -8 -59 -63 -124
-102 -35 -20 -63 -39 -63 -41 0 -7 38 6 108 34 48 20 66 23 74 15 17 -17 -71
-99 -156 -147 -36 -20 -66 -38 -66 -40 0 -2 21 2 48 9 59 16 116 45 166 85 45
36 51 37 60 14 10 -26 -114 -139 -215 -195 -91 -52 -92 -57 -8 -32 74 22 126
49 181 95 26 21 49 39 52 39 11 0 6 -67 -10 -119 l-16 -54 -46 7 -46 6 48 -49
c56 -57 72 -56 100 3 26 54 36 126 27 192 -5 32 -7 61 -5 63 2 3 40 -31 84
-73 77 -76 81 -78 117 -71 49 9 113 35 113 46 0 9 -6 10 -93 29 -67 14 -113
35 -174 77 -29 20 -53 38 -53 39 0 1 34 21 75 44 41 23 75 45 75 50 0 5 -12
18 -27 30 l-28 22 -15 -24 c-8 -13 -32 -42 -54 -65 l-38 -43 -42 43 c-46 45
-45 57 4 77 30 12 42 40 18 40 -9 0 -9 3 1 9 8 5 62 12 120 16 130 8 138 10
120 31 -25 30 -52 32 -153 13 -54 -11 -100 -18 -102 -16 -2 1 32 41 76 88 45
49 75 90 71 97 -15 25 -54 29 -103 10 -57 -21 -88 -24 -70 -6 18 18 14 46 -7
58 -28 14 -30 13 -37 -17z m116 -89 c0 -3 -7 -18 -16 -34 -14 -23 -26 -29 -72
-34 -30 -4 -57 -4 -60 -1 -11 11 36 60 64 66 39 9 84 10 84 3z"/>
<path d="M125 639 c-31 -11 -62 -16 -83 -12 -35 6 -39 -2 -17 -31 8 -10 17
-39 21 -65 9 -70 24 -121 34 -121 6 0 10 4 10 9 0 5 29 12 66 16 51 5 63 9 55
19 -12 14 10 103 35 141 33 50 -37 76 -121 44z m51 -60 c-3 -17 -6 -42 -6 -55
0 -29 -25 -54 -56 -54 -20 0 -24 5 -24 28 0 15 -3 44 -6 64 -6 34 -5 37 22 41
74 11 77 10 70 -24z"/>
</g>
</svg>
