<?xml version="1.0" standalone="no"?>
<!DOCTYPE svg PUBLIC "-//W3C//DTD SVG 20010904//EN"
 "http://www.w3.org/TR/2001/REC-SVG-20010904/DTD/svg10.dtd">
<svg version="1.0" xmlns="http://www.w3.org/2000/svg"
 width="90.000000pt" height="92.000000pt" viewBox="0 0 90.000000 92.000000"
 preserveAspectRatio="xMidYMid meet">
<metadata>
Created by potrace 1.16, written by Peter Selinger 2001-2019
</metadata>
<g transform="translate(0.000000,92.000000) scale(0.100000,-0.100000)"
fill="#000000" stroke="none">
<path d="M515 828 c-41 -11 -85 -17 -106 -14 -44 7 -52 0 -34 -28 8 -12 19
-58 25 -101 14 -98 26 -131 43 -117 19 15 115 24 136 13 25 -14 33 -2 61 89
12 41 29 87 36 101 15 30 9 41 -33 63 -38 19 -38 19 -128 -6z m85 -66 c0 -38
0 -38 -42 -38 -24 0 -60 -3 -80 -8 l-38 -8 0 36 c0 29 4 37 23 40 12 3 31 7
42 9 11 3 37 5 58 6 36 1 37 0 37 -37z m-16 -99 c-4 -21 -7 -39 -8 -39 0 -1
-29 -4 -63 -8 l-63 -7 0 34 c0 34 1 35 58 45 88 15 84 16 76 -25z"/>
<path d="M150 779 c0 -6 16 -31 37 -55 43 -54 78 -58 78 -10 0 23 -7 34 -30
47 -41 23 -85 32 -85 18z"/>
<path d="M80 561 c15 -29 76 -91 88 -91 20 0 34 38 22 61 -12 22 -67 49 -100
49 -17 0 -19 -3 -10 -19z"/>
<path d="M685 539 c-27 -5 -131 -18 -230 -29 -214 -25 -220 -26 -182 -47 21
-10 43 -13 79 -8 46 7 49 6 40 -11 -6 -11 -39 -47 -75 -81 -36 -35 -60 -63
-54 -63 6 0 37 16 69 35 42 27 64 34 83 29 14 -3 25 -11 25 -17 0 -5 -38 -48
-84 -93 -76 -75 -81 -82 -49 -69 45 19 93 55 155 116 36 34 44 49 36 57 -15
15 -11 18 35 25 26 4 37 2 37 -7 0 -27 -67 -115 -151 -198 -79 -78 -85 -87
-52 -73 60 25 130 85 204 174 54 66 67 86 58 97 -15 18 11 29 46 20 17 -4 25
-13 25 -29 0 -39 -28 -155 -46 -193 -17 -36 -18 -36 -65 -31 l-47 6 36 -50
c41 -54 47 -56 80 -33 34 24 60 84 77 179 8 48 22 102 31 120 9 19 13 38 10
43 -9 15 -75 44 -85 38 -12 -8 -262 -48 -267 -43 -3 2 7 12 21 21 14 9 25 23
25 30 0 19 23 23 210 36 91 7 167 14 170 17 3 3 -6 13 -19 24 -25 20 -62 22
-146 8z"/>
<path d="M180 344 c-30 -41 -67 -82 -82 -90 -32 -17 -34 -29 -12 -84 20 -50
39 -51 55 -2 7 20 32 79 56 131 24 52 43 100 41 107 -2 8 -28 -20 -58 -62z"/>
</g>
</svg>
