<?xml version="1.0" standalone="no"?>
<!DOCTYPE svg PUBLIC "-//W3C//DTD SVG 20010904//EN"
 "http://www.w3.org/TR/2001/REC-SVG-20010904/DTD/svg10.dtd">
<svg version="1.0" xmlns="http://www.w3.org/2000/svg"
 width="96.000000pt" height="68.000000pt" viewBox="0 0 96.000000 68.000000"
 preserveAspectRatio="xMidYMid meet">
<metadata>
Created by potrace 1.16, written by Peter Selinger 2001-2019
</metadata>
<g transform="translate(0.000000,68.000000) scale(0.100000,-0.100000)"
fill="#000000" stroke="none">
<path d="M535 534 l0 -86 -40 -34 c-34 -29 -37 -33 -15 -27 14 3 40 19 57 36
l33 31 37 -27 c37 -27 53 -27 53 -2 0 9 -18 19 -45 26 -26 7 -45 17 -45 25 0
8 3 14 8 14 4 0 7 27 7 59 1 59 -6 70 -45 71 -3 0 -5 -39 -5 -86z"/>
<path d="M305 593 c14 -34 18 -103 6 -103 -6 0 -11 5 -11 10 0 6 -12 15 -27
21 -34 13 -49 -1 -32 -29 14 -23 56 -35 63 -18 2 6 5 1 5 -11 1 -12 -13 -38
-30 -58 -30 -34 -30 -35 -9 -35 13 0 37 15 55 34 l32 34 21 -20 c12 -13 27
-18 37 -14 24 9 14 29 -23 46 -32 15 -33 16 -30 75 3 70 -4 85 -39 85 -20 0
-24 -4 -18 -17z"/>
<path d="M397 539 c-10 -18 -16 -34 -13 -36 2 -2 23 5 46 17 34 17 39 24 30
36 -20 23 -44 16 -63 -17z"/>
<path d="M622 541 c-12 -14 -17 -27 -13 -29 15 -5 83 27 77 37 -13 21 -43 17
-64 -8z"/>
<path d="M465 500 c21 -23 45 -26 45 -6 0 15 -21 26 -47 26 -14 0 -14 -3 2
-20z"/>
<path d="M600 379 c-283 -27 -377 -32 -384 -20 -4 6 -11 11 -16 11 -14 0 -52
-89 -46 -106 9 -24 29 -12 49 28 l18 36 104 7 c57 4 109 4 114 0 6 -3 11 -19
11 -35 0 -29 -15 -40 -56 -40 -25 0 -33 15 -12 22 17 6 0 28 -22 28 -10 0 -22
-9 -25 -20 -4 -11 -18 -34 -32 -50 -29 -35 -25 -37 16 -12 19 12 46 17 78 16
45 -2 48 -3 51 -31 2 -19 -2 -30 -10 -30 -93 -4 -218 -18 -218 -24 0 -18 54
-21 138 -7 48 8 88 14 89 14 1 -1 3 -34 4 -74 2 -67 11 -93 27 -78 3 4 8 39
11 79 l6 72 118 3 c85 2 117 6 115 14 -7 21 -60 27 -141 16 -84 -11 -100 -6
-90 32 3 13 19 20 53 24 50 7 71 20 46 29 -7 3 -33 3 -56 0 -36 -5 -42 -4 -37
9 3 9 -1 25 -9 37 -14 19 -13 21 3 22 10 0 56 4 103 8 105 10 116 7 94 -27
l-16 -25 38 6 c22 4 49 7 62 7 32 0 28 32 -7 53 -31 18 -41 19 -171 6z"/>
</g>
</svg>
