<?xml version="1.0" standalone="no"?>
<!DOCTYPE svg PUBLIC "-//W3C//DTD SVG 20010904//EN"
 "http://www.w3.org/TR/2001/REC-SVG-20010904/DTD/svg10.dtd">
<svg version="1.0" xmlns="http://www.w3.org/2000/svg"
 width="90.000000pt" height="92.000000pt" viewBox="0 0 90.000000 92.000000"
 preserveAspectRatio="xMidYMid meet">
<metadata>
Created by potrace 1.16, written by Peter Selinger 2001-2019
</metadata>
<g transform="translate(0.000000,92.000000) scale(0.100000,-0.100000)"
fill="#000000" stroke="none">
<path d="M610 839 c-77 -14 -434 -39 -474 -32 l-38 6 8 -34 c10 -37 12 -369 4
-540 -4 -83 -2 -109 9 -123 13 -15 16 -16 26 -3 8 12 60 16 272 22 l261 7 16
-31 c19 -36 36 -39 62 -10 18 20 19 41 19 343 0 176 3 330 5 340 4 14 -5 26
-29 43 -36 24 -65 27 -141 12z m89 -76 c14 -55 24 -358 16 -472 l-7 -98 -156
-6 c-87 -4 -211 -10 -277 -13 l-120 -7 2 134 c2 74 6 207 9 296 l6 161 52 8
c132 18 289 32 373 33 l92 1 10 -37z"/>
<path d="M387 753 c-4 -3 -7 -16 -7 -28 0 -33 -69 -133 -133 -192 -59 -56 -57
-68 4 -30 49 30 97 73 138 125 19 23 38 42 44 42 5 0 48 -29 95 -65 91 -68
106 -75 115 -51 11 27 -31 63 -117 101 -61 27 -86 43 -88 58 -3 22 -41 51 -51
40z"/>
<path d="M425 560 c-16 -4 -43 -11 -58 -14 -17 -4 -25 -11 -21 -18 4 -7 28 -9
68 -5 72 7 98 15 93 31 -5 14 -43 17 -82 6z"/>
<path d="M569 496 c-10 -10 -302 -47 -321 -40 -18 5 -20 3 -13 -17 4 -13 10
-62 14 -109 7 -91 17 -122 32 -99 5 8 9 33 9 57 0 41 1 42 34 42 33 0 35 -2
38 -37 4 -51 22 -48 26 5 3 39 5 42 33 42 28 0 29 -2 29 -44 0 -25 4 -47 9
-50 11 -7 21 27 21 70 0 30 2 32 48 37 26 3 49 4 50 2 2 -2 1 -18 -3 -35 -6
-28 -10 -31 -36 -28 l-28 4 21 -35 c33 -55 36 -57 60 -34 17 17 24 44 34 125
l13 103 -27 22 c-27 23 -35 26 -43 19z m-131 -117 c-30 -20 -48 -10 -48 25 0
30 3 35 28 38 23 3 27 -1 30 -26 2 -16 -2 -33 -10 -37z m140 36 c3 -29 2 -30
-43 -30 -45 0 -45 0 -43 33 2 32 3 33 43 30 36 -3 40 -6 43 -33z m-224 -11 c9
-34 -4 -46 -40 -42 -23 2 -30 9 -32 30 -2 19 2 28 15 31 40 10 51 7 57 -19z"/>
</g>
</svg>
