<?xml version="1.0" standalone="no"?>
<!DOCTYPE svg PUBLIC "-//W3C//DTD SVG 20010904//EN"
 "http://www.w3.org/TR/2001/REC-SVG-20010904/DTD/svg10.dtd">
<svg version="1.0" xmlns="http://www.w3.org/2000/svg"
 width="96.000000pt" height="68.000000pt" viewBox="0 0 96.000000 68.000000"
 preserveAspectRatio="xMidYMid meet">
<metadata>
Created by potrace 1.16, written by Peter Selinger 2001-2019
</metadata>
<g transform="translate(0.000000,68.000000) scale(0.100000,-0.100000)"
fill="#000000" stroke="none">
<path d="M586 476 c6 -42 6 -43 -26 -50 -18 -3 -43 -6 -57 -6 -15 0 -22 -4
-17 -11 4 -7 24 -9 56 -6 l49 6 -3 -32 c-3 -31 -5 -32 -53 -35 -70 -4 -83 -22
-16 -22 79 0 241 22 241 33 0 5 -28 8 -65 5 l-66 -4 3 30 c2 18 9 32 18 33
105 13 113 15 99 24 -8 5 -37 6 -65 3 l-50 -6 4 35 c3 29 0 35 -20 40 -37 10
-38 9 -32 -37z"/>
</g>
</svg>
