<?xml version="1.0" standalone="no"?>
<!DOCTYPE svg PUBLIC "-//W3C//DTD SVG 20010904//EN"
 "http://www.w3.org/TR/2001/REC-SVG-20010904/DTD/svg10.dtd">
<svg version="1.0" xmlns="http://www.w3.org/2000/svg"
 width="96.000000pt" height="68.000000pt" viewBox="0 0 96.000000 68.000000"
 preserveAspectRatio="xMidYMid meet">
<metadata>
Created by potrace 1.16, written by Peter Selinger 2001-2019
</metadata>
<g transform="translate(0.000000,68.000000) scale(0.100000,-0.100000)"
fill="#000000" stroke="none">
<path d="M261 526 c-12 -50 -78 -152 -138 -215 -24 -24 -41 -46 -39 -49 10 -9
49 12 91 48 50 43 85 45 85 4 0 -19 -7 -24 -37 -29 -59 -10 -68 -14 -56 -26 6
-6 30 -10 52 -7 l41 4 0 -57 0 -57 -60 -10 c-34 -6 -67 -9 -74 -6 -8 3 -17 0
-22 -7 -9 -14 30 -49 55 -49 9 0 70 20 136 44 145 54 173 90 38 50 -21 -6 -23
-3 -23 37 0 56 7 66 53 74 20 4 37 11 37 15 0 11 -26 20 -57 20 -20 0 -24 4
-21 22 2 16 12 24 32 28 32 6 46 27 23 36 -8 3 -41 -2 -73 -10 -32 -8 -60 -14
-62 -12 -5 6 69 116 78 116 3 0 17 -11 30 -25 25 -26 45 -32 55 -15 12 20 -7
49 -41 62 -18 6 -34 18 -34 25 0 12 -30 33 -48 33 -5 0 -15 -20 -21 -44z"/>
<path d="M550 490 c0 -87 1 -86 -63 -93 -60 -8 -56 -17 6 -17 l57 0 0 -74 0
-74 -32 -5 c-44 -6 -49 -2 -36 35 9 26 8 33 -7 45 -27 19 -38 16 -32 -9 3 -11
0 -36 -8 -55 -14 -33 -11 -63 6 -63 5 0 26 7 46 15 51 22 63 19 63 -12 0 -40
31 -96 60 -110 32 -16 181 -17 215 -1 29 13 29 16 13 72 -16 56 -24 63 -32 25
-11 -55 -31 -69 -98 -69 -58 0 -95 12 -110 34 -4 6 -8 29 -8 51 0 35 3 41 23
42 12 1 32 5 45 8 15 4 24 0 28 -10 11 -28 30 -15 42 30 16 60 15 82 -4 89
-29 11 -34 6 -34 -38 0 -47 -11 -56 -72 -56 -27 0 -28 2 -28 48 0 83 4 89 71
96 32 4 59 11 59 15 0 15 -45 21 -81 11 -19 -6 -36 -10 -38 -10 -2 0 0 29 4
65 7 71 -2 95 -36 95 -17 0 -19 -8 -19 -80z"/>
<path d="M350 218 c-11 -23 -19 -43 -17 -44 6 -6 69 31 74 43 6 14 -13 43 -28
43 -5 0 -18 -19 -29 -42z"/>
<path d="M160 223 c0 -2 7 -17 15 -32 18 -35 39 -45 56 -25 9 11 8 18 -5 33
-15 17 -66 35 -66 24z"/>
</g>
</svg>
