<?xml version="1.0" standalone="no"?>
<!DOCTYPE svg PUBLIC "-//W3C//DTD SVG 20010904//EN"
 "http://www.w3.org/TR/2001/REC-SVG-20010904/DTD/svg10.dtd">
<svg version="1.0" xmlns="http://www.w3.org/2000/svg"
 width="96.000000pt" height="68.000000pt" viewBox="0 0 96.000000 68.000000"
 preserveAspectRatio="xMidYMid meet">
<metadata>
Created by potrace 1.16, written by Peter Selinger 2001-2019
</metadata>
<g transform="translate(0.000000,68.000000) scale(0.100000,-0.100000)"
fill="#000000" stroke="none">
<path d="M615 329 c-22 -4 -63 -8 -90 -8 l-51 -1 4 -65 c3 -42 -1 -82 -11
-113 -17 -51 -13 -92 8 -92 14 0 31 44 37 90 3 24 7 25 83 31 44 3 82 5 85 3
3 -1 4 -23 2 -48 l-4 -46 -42 0 -41 0 25 -20 c52 -40 69 -45 88 -26 14 13 18
42 22 149 7 165 2 171 -115 146z m65 -44 c0 -21 -5 -25 -27 -25 -16 0 -52 -3
-81 -7 -52 -6 -54 -5 -50 18 4 27 29 37 106 38 49 1 52 0 52 -24z m0 -64 c0
-15 -12 -20 -80 -27 -79 -10 -80 -9 -80 13 0 19 6 22 48 26 109 8 112 8 112
-12z"/>
</g>
</svg>
