<?xml version="1.0" standalone="no"?>
<!DOCTYPE svg PUBLIC "-//W3C//DTD SVG 20010904//EN"
 "http://www.w3.org/TR/2001/REC-SVG-20010904/DTD/svg10.dtd">
<svg version="1.0" xmlns="http://www.w3.org/2000/svg"
 width="96.000000pt" height="68.000000pt" viewBox="0 0 96.000000 68.000000"
 preserveAspectRatio="xMidYMid meet">
<metadata>
Created by potrace 1.16, written by Peter Selinger 2001-2019
</metadata>
<g transform="translate(0.000000,68.000000) scale(0.100000,-0.100000)"
fill="#000000" stroke="none">
<path d="M622 517 c-1 -45 3 -94 9 -109 15 -36 57 -51 129 -46 73 5 100 25 83
60 -7 13 -14 30 -16 38 -3 10 -9 5 -16 -15 -16 -38 -27 -45 -78 -45 -59 0 -73
8 -73 41 0 24 5 30 38 38 20 6 40 11 43 11 4 0 23 7 44 15 30 13 35 18 25 30
-18 22 -35 18 -82 -15 -60 -44 -72 -41 -63 16 5 34 3 49 -7 55 -28 18 -33 7
-36 -74z"/>
</g>
</svg>
