<?xml version="1.0" standalone="no"?>
<!DOCTYPE svg PUBLIC "-//W3C//DTD SVG 20010904//EN"
 "http://www.w3.org/TR/2001/REC-SVG-20010904/DTD/svg10.dtd">
<svg version="1.0" xmlns="http://www.w3.org/2000/svg"
 width="90.000000pt" height="92.000000pt" viewBox="0 0 90.000000 92.000000"
 preserveAspectRatio="xMidYMid meet">
<metadata>
Created by potrace 1.16, written by Peter Selinger 2001-2019
</metadata>
<g transform="translate(0.000000,92.000000) scale(0.100000,-0.100000)"
fill="#000000" stroke="none">
<path d="M500 850 c-19 -5 -82 -14 -140 -20 -58 -6 -121 -14 -140 -16 -33 -5
-34 -7 -15 -20 10 -8 36 -14 56 -14 41 0 45 -6 51 -69 3 -31 0 -35 -27 -43
-16 -5 -52 -7 -78 -4 l-49 5 8 -27 c5 -15 9 -49 9 -77 0 -72 5 -76 70 -58 74
21 85 15 85 -45 l0 -49 -47 -6 c-27 -4 -89 -9 -140 -13 -96 -7 -106 -15 -47
-40 25 -11 44 -12 81 -4 86 18 200 27 202 15 1 -5 4 -31 7 -56 l6 -46 -48 -7
c-26 -3 -62 -6 -80 -6 -34 0 -44 -12 -22 -26 6 -4 42 -7 79 -6 l67 2 4 -45 c2
-28 -1 -46 -8 -49 -7 -3 -71 -8 -143 -12 -72 -4 -131 -11 -131 -16 0 -5 15
-15 34 -23 27 -11 47 -12 97 -4 35 6 168 14 294 17 143 5 230 11 229 17 -1 6
-15 18 -31 28 -27 16 -41 16 -156 5 -70 -6 -130 -9 -133 -5 -4 3 -3 26 0 50
l7 44 89 13 c96 13 114 22 79 41 -21 11 -86 7 -147 -8 -23 -5 -24 -3 -20 38 3
38 0 45 -22 56 -21 11 5 13 165 13 225 0 260 12 171 54 -29 14 -46 15 -108 6
-40 -6 -89 -12 -108 -15 l-36 -5 4 38 c7 81 5 79 83 86 52 6 68 10 61 19 -10
12 3 51 30 90 11 16 9 21 -12 39 -21 17 -34 19 -81 14 -31 -3 -63 -8 -72 -12
-20 -7 -23 25 -6 57 7 15 7 24 -1 34 -14 17 -6 21 57 30 59 8 73 19 44 34 -23
13 -70 13 -121 1z m-36 -92 c3 -24 4 -56 3 -73 -2 -34 0 -34 102 -20 l54 8 -7
-39 c-4 -21 -11 -43 -16 -48 -4 -4 -37 -10 -72 -13 l-65 -5 5 -73 4 -73 -51
-3 -51 -4 6 35 c3 19 8 47 10 62 9 47 -40 57 -143 31 -21 -5 -23 -1 -23 30 0
44 12 53 80 61 l55 7 -1 72 -1 72 41 6 c22 3 46 7 53 7 7 1 14 -16 17 -40z"/>
</g>
</svg>
