<?xml version="1.0" standalone="no"?>
<!DOCTYPE svg PUBLIC "-//W3C//DTD SVG 20010904//EN"
 "http://www.w3.org/TR/2001/REC-SVG-20010904/DTD/svg10.dtd">
<svg version="1.0" xmlns="http://www.w3.org/2000/svg"
 width="96.000000pt" height="68.000000pt" viewBox="0 0 96.000000 68.000000"
 preserveAspectRatio="xMidYMid meet">
<metadata>
Created by potrace 1.16, written by Peter Selinger 2001-2019
</metadata>
<g transform="translate(0.000000,68.000000) scale(0.100000,-0.100000)"
fill="#000000" stroke="none">
<path d="M584 498 l1 -43 -63 -3 -63 -3 7 27 c8 30 -7 44 -45 44 -24 0 -25
-13 -5 -64 5 -13 -1 -16 -25 -16 -17 0 -31 -4 -31 -10 0 -5 13 -10 29 -10 30
0 41 -14 41 -56 0 -23 -3 -24 -64 -24 -46 0 -65 -4 -69 -14 -9 -22 27 -25 121
-10 50 8 158 14 255 14 107 0 167 4 167 10 0 21 -52 30 -140 23 -50 -3 -90 -4
-90 -1 0 3 5 19 11 36 10 28 16 32 60 38 27 4 49 10 49 14 0 9 -36 20 -69 20
-20 0 -22 2 -11 16 16 19 -1 39 -41 49 -25 6 -26 5 -25 -37z m-4 -82 c0 -8 -4
-26 -10 -40 -8 -23 -15 -26 -55 -26 -45 0 -45 0 -45 34 0 34 1 35 43 39 23 2
48 4 55 5 6 1 12 -4 12 -12z"/>
</g>
</svg>
