<?xml version="1.0" standalone="no"?>
<!DOCTYPE svg PUBLIC "-//W3C//DTD SVG 20010904//EN"
 "http://www.w3.org/TR/2001/REC-SVG-20010904/DTD/svg10.dtd">
<svg version="1.0" xmlns="http://www.w3.org/2000/svg"
 width="90.000000pt" height="92.000000pt" viewBox="0 0 90.000000 92.000000"
 preserveAspectRatio="xMidYMid meet">
<metadata>
Created by potrace 1.16, written by Peter Selinger 2001-2019
</metadata>
<g transform="translate(0.000000,92.000000) scale(0.100000,-0.100000)"
fill="#000000" stroke="none">
<path d="M460 841 c0 -37 -116 -174 -204 -239 -45 -34 -5 -28 67 10 56 30 217
170 217 189 0 12 -53 59 -67 59 -7 0 -13 -9 -13 -19z"/>
<path d="M503 627 c-39 -80 -184 -219 -294 -282 -38 -21 -41 -25 -19 -25 31 0
115 38 175 80 l44 30 7 -36 c8 -43 -2 -171 -18 -214 -8 -25 -7 -40 7 -76 35
-92 50 -49 58 160 4 113 2 164 -6 178 -11 17 -3 28 66 94 l78 75 -30 29 c-16
17 -33 30 -38 30 -5 0 -18 -19 -30 -43z"/>
</g>
</svg>
