<?xml version="1.0" standalone="no"?>
<!DOCTYPE svg PUBLIC "-//W3C//DTD SVG 20010904//EN"
 "http://www.w3.org/TR/2001/REC-SVG-20010904/DTD/svg10.dtd">
<svg version="1.0" xmlns="http://www.w3.org/2000/svg"
 width="90.000000pt" height="92.000000pt" viewBox="0 0 90.000000 92.000000"
 preserveAspectRatio="xMidYMid meet">
<metadata>
Created by potrace 1.16, written by Peter Selinger 2001-2019
</metadata>
<g transform="translate(0.000000,92.000000) scale(0.100000,-0.100000)"
fill="#000000" stroke="none">
<path d="M428 870 c-26 -16 -77 -40 -114 -53 -79 -28 -72 -40 16 -26 70 11 80
6 80 -42 0 -31 -15 -35 -165 -44 -142 -10 -166 -20 -105 -45 24 -10 46 -9 121
5 50 9 94 13 97 10 15 -15 -120 -119 -243 -187 -56 -31 -52 -34 16 -14 74 23
161 71 216 120 28 25 53 46 55 46 2 0 3 -36 3 -79 l0 -79 -35 -6 c-19 -3 -49
-6 -67 -6 -42 0 -51 -17 -18 -32 25 -11 55 -7 188 29 25 7 20 -17 -12 -55 -22
-26 -34 -32 -50 -27 -25 8 -26 2 -5 -30 15 -23 15 -24 -8 -29 -26 -5 -224 -26
-282 -29 -52 -3 -56 -21 -9 -40 35 -13 46 -13 123 3 47 10 109 20 139 23 l53
4 -4 -79 c-3 -43 -9 -83 -15 -89 -7 -7 -22 -7 -47 -1 -20 6 -36 8 -36 5 0 -2
21 -27 47 -54 45 -48 47 -49 65 -31 24 23 41 131 33 198 l-6 52 107 7 c58 4
130 5 160 2 96 -10 126 16 57 48 -34 16 -47 17 -123 7 -184 -25 -192 -26 -201
-11 -5 8 -9 17 -9 21 0 7 80 57 123 75 35 16 34 29 -5 54 -33 20 -75 21 -123
4 -16 -7 -18 -6 -7 6 7 8 12 41 12 82 l0 69 38 -23 c20 -12 79 -49 130 -82 95
-61 122 -66 122 -24 0 29 -64 65 -202 117 -49 18 -88 37 -88 41 0 5 65 9 145
9 80 0 145 4 145 8 0 12 -30 37 -54 46 -10 3 -66 -1 -124 -9 -57 -9 -107 -14
-109 -11 -2 2 -1 24 2 49 l7 45 49 7 c27 4 49 12 49 18 0 13 -60 57 -76 56 -5
0 -30 -13 -56 -29z"/>
</g>
</svg>
