<?xml version="1.0" standalone="no"?>
<!DOCTYPE svg PUBLIC "-//W3C//DTD SVG 20010904//EN"
 "http://www.w3.org/TR/2001/REC-SVG-20010904/DTD/svg10.dtd">
<svg version="1.0" xmlns="http://www.w3.org/2000/svg"
 width="96.000000pt" height="68.000000pt" viewBox="0 0 96.000000 68.000000"
 preserveAspectRatio="xMidYMid meet">
<metadata>
Created by potrace 1.16, written by Peter Selinger 2001-2019
</metadata>
<g transform="translate(0.000000,68.000000) scale(0.100000,-0.100000)"
fill="#000000" stroke="none">
<path d="M570 589 c0 -23 -34 -86 -72 -131 -45 -56 -37 -69 19 -28 22 16 44
26 48 22 5 -4 5 -2 2 4 -12 21 17 32 111 39 84 6 114 16 98 32 -8 9 -54 8
-116 0 -53 -8 -54 -8 -37 11 24 26 21 41 -9 52 -33 13 -44 13 -44 -1z"/>
<path d="M311 547 c-8 -18 -39 -58 -70 -89 -30 -32 -49 -58 -41 -58 17 0 76
34 105 61 15 13 39 19 95 21 59 2 75 6 75 18 0 12 -12 15 -52 13 -50 -2 -52
-1 -41 17 14 23 5 35 -32 43 -22 5 -28 1 -39 -26z"/>
<path d="M599 453 c24 -47 101 -72 101 -33 0 23 -21 35 -74 45 -36 7 -37 6
-27 -12z"/>
<path d="M340 419 c37 -32 63 -34 68 -6 4 19 -33 37 -76 37 l-27 -1 35 -30z"/>
<path d="M591 389 c1 -8 1 -33 0 -55 l-1 -41 -52 -7 c-44 -6 -50 -9 -35 -18
11 -5 32 -7 49 -4 27 5 29 4 22 -17 -9 -32 -63 -139 -78 -157 -27 -32 -30 -43
-8 -31 30 16 65 65 106 148 32 65 39 73 71 79 67 12 77 -6 51 -101 -22 -85
-33 -98 -72 -92 -36 6 -40 3 -24 -16 6 -7 17 -21 24 -32 12 -16 19 -18 42 -10
35 13 58 54 79 146 10 41 22 78 26 84 17 18 9 33 -22 44 -17 6 -42 9 -55 6
-13 -3 -36 -7 -50 -11 -26 -5 -27 -4 -20 34 5 32 3 41 -12 46 -9 3 -23 9 -30
12 -8 4 -13 0 -11 -7z"/>
<path d="M387 354 c-13 -14 -87 -23 -110 -15 l-25 10 -4 -92 c-4 -98 -19 -142
-63 -190 -14 -15 -21 -27 -16 -27 20 0 71 52 87 89 14 32 23 40 53 45 87 14
104 6 93 -50 -6 -36 -19 -45 -52 -37 l-25 6 30 -32 c35 -37 64 -37 82 -1 13
28 21 270 9 288 -7 12 -48 16 -59 6z m13 -53 c0 -25 -4 -29 -37 -35 -67 -11
-73 -9 -73 23 0 31 10 36 83 40 23 1 27 -3 27 -28z m7 -66 c6 -21 -14 -33 -70
-39 -57 -7 -59 -7 -55 16 2 19 11 24 48 29 57 8 73 7 77 -6z"/>
</g>
</svg>
