<?xml version="1.0" standalone="no"?>
<!DOCTYPE svg PUBLIC "-//W3C//DTD SVG 20010904//EN"
 "http://www.w3.org/TR/2001/REC-SVG-20010904/DTD/svg10.dtd">
<svg version="1.0" xmlns="http://www.w3.org/2000/svg"
 width="96.000000pt" height="68.000000pt" viewBox="0 0 96.000000 68.000000"
 preserveAspectRatio="xMidYMid meet">
<metadata>
Created by potrace 1.16, written by Peter Selinger 2001-2019
</metadata>
<g transform="translate(0.000000,68.000000) scale(0.100000,-0.100000)"
fill="#000000" stroke="none">
<path d="M577 503 c-4 -3 -7 -14 -7 -23 0 -9 -13 -37 -30 -63 -30 -48 -21 -66
15 -27 24 26 28 26 82 -11 31 -22 48 -28 55 -21 19 19 -1 42 -47 54 -50 14
-55 25 -23 52 21 18 21 19 3 32 -21 15 -38 18 -48 7z"/>
</g>
</svg>
