<?xml version="1.0" standalone="no"?>
<!DOCTYPE svg PUBLIC "-//W3C//DTD SVG 20010904//EN"
 "http://www.w3.org/TR/2001/REC-SVG-20010904/DTD/svg10.dtd">
<svg version="1.0" xmlns="http://www.w3.org/2000/svg"
 width="96.000000pt" height="68.000000pt" viewBox="0 0 96.000000 68.000000"
 preserveAspectRatio="xMidYMid meet">
<metadata>
Created by potrace 1.16, written by Peter Selinger 2001-2019
</metadata>
<g transform="translate(0.000000,68.000000) scale(0.100000,-0.100000)"
fill="#000000" stroke="none">
<path d="M310 580 c0 -19 61 -71 79 -68 23 5 26 45 4 56 -33 18 -83 25 -83 12z"/>
<path d="M301 449 c-13 -5 -53 -13 -88 -17 -35 -4 -65 -11 -66 -17 -3 -17 60
-17 117 -1 30 9 60 16 67 16 22 0 -140 -163 -212 -212 l-24 -17 34 9 c18 5 58
26 87 46 30 21 57 34 61 31 3 -4 1 -51 -6 -105 -12 -105 -8 -135 18 -130 13 3
17 23 22 113 4 61 7 112 8 114 0 1 17 -11 36 -28 41 -36 55 -39 55 -11 0 12
-13 26 -36 38 l-36 19 31 13 c39 16 45 24 27 39 -11 10 -20 5 -45 -21 -25 -27
-33 -30 -43 -20 -11 11 -3 23 45 67 31 30 57 58 57 63 0 22 -66 28 -109 11z"/>
</g>
</svg>
