<?xml version="1.0" standalone="no"?>
<!DOCTYPE svg PUBLIC "-//W3C//DTD SVG 20010904//EN"
 "http://www.w3.org/TR/2001/REC-SVG-20010904/DTD/svg10.dtd">
<svg version="1.0" xmlns="http://www.w3.org/2000/svg"
 width="96.000000pt" height="68.000000pt" viewBox="0 0 96.000000 68.000000"
 preserveAspectRatio="xMidYMid meet">
<metadata>
Created by potrace 1.16, written by Peter Selinger 2001-2019
</metadata>
<g transform="translate(0.000000,68.000000) scale(0.100000,-0.100000)"
fill="#000000" stroke="none">
<path d="M610 555 c0 -36 -3 -45 -17 -45 -10 0 -28 -3 -40 -6 -18 -5 -22 -1
-25 23 -2 20 -9 29 -25 31 -20 3 -23 -1 -23 -32 0 -34 -2 -36 -32 -36 -36 0
-28 -16 12 -22 31 -4 41 -38 11 -38 -12 0 -21 -4 -21 -10 0 -5 13 -10 30 -10
60 0 235 22 245 31 9 9 2 10 -50 13 -29 1 -33 36 -3 36 13 1 37 7 53 14 l30
13 -25 7 c-14 3 -34 5 -45 3 -17 -2 -19 3 -16 36 2 35 1 37 -28 37 -30 0 -31
-1 -31 -45z m-2 -92 c-4 -19 -75 -37 -84 -21 -14 22 7 38 46 38 34 0 41 -3 38
-17z"/>
</g>
</svg>
