<?xml version="1.0" standalone="no"?>
<!DOCTYPE svg PUBLIC "-//W3C//DTD SVG 20010904//EN"
 "http://www.w3.org/TR/2001/REC-SVG-20010904/DTD/svg10.dtd">
<svg version="1.0" xmlns="http://www.w3.org/2000/svg"
 width="90.000000pt" height="92.000000pt" viewBox="0 0 90.000000 92.000000"
 preserveAspectRatio="xMidYMid meet">
<metadata>
Created by potrace 1.16, written by Peter Selinger 2001-2019
</metadata>
<g transform="translate(0.000000,92.000000) scale(0.100000,-0.100000)"
fill="#000000" stroke="none">
<path d="M175 823 c4 -16 9 -78 12 -139 l5 -112 -64 -11 c-36 -6 -74 -11 -86
-11 -14 0 -22 -6 -22 -16 0 -14 11 -16 84 -12 l84 4 -11 -25 c-25 -57 -81
-144 -128 -201 -27 -32 -49 -62 -49 -65 0 -3 13 1 28 9 34 17 98 86 131 139
13 21 25 36 27 34 2 -2 -2 -57 -8 -123 -17 -168 -16 -220 4 -240 15 -15 17
-15 26 2 5 11 12 95 15 187 2 92 7 170 10 173 3 3 15 -8 28 -25 29 -39 51 -41
47 -3 -2 19 -13 32 -40 47 -35 18 -38 24 -38 62 0 40 1 41 39 48 22 3 47 12
57 19 17 13 16 14 -4 25 -13 7 -37 9 -58 5 l-36 -7 6 64 c4 35 9 85 12 110 5
42 3 49 -22 68 -39 30 -58 28 -49 -6z"/>
<path d="M506 660 c-72 -15 -132 -32 -134 -38 -5 -16 42 -26 88 -18 47 7 60
-9 60 -78 0 -43 -2 -45 -33 -51 -39 -8 -116 -10 -137 -4 -8 2 -14 -2 -12 -9
11 -58 22 -160 22 -222 0 -74 11 -112 27 -96 4 4 7 70 5 145 l-4 138 58 11
c31 7 59 10 62 8 10 -10 -32 -108 -64 -150 -48 -63 -22 -58 42 8 l53 54 51
-44 c41 -35 55 -42 66 -33 27 22 16 49 -28 69 -24 11 -51 20 -60 20 -25 0 -28
12 -16 52 l11 36 71 4 c39 3 77 2 85 0 10 -4 12 -32 9 -138 -4 -163 -9 -172
-81 -150 l-47 14 20 -26 c61 -83 76 -95 98 -83 43 23 57 70 72 236 5 61 12
120 15 132 9 29 -56 76 -89 64 -11 -5 -50 -12 -85 -16 l-64 -7 6 57 c5 52 4
58 -14 62 -36 10 0 21 88 28 46 4 86 11 88 16 9 14 -38 39 -70 38 -16 -1 -88
-14 -159 -29z"/>
</g>
</svg>
