<?xml version="1.0" standalone="no"?>
<!DOCTYPE svg PUBLIC "-//W3C//DTD SVG 20010904//EN"
 "http://www.w3.org/TR/2001/REC-SVG-20010904/DTD/svg10.dtd">
<svg version="1.0" xmlns="http://www.w3.org/2000/svg"
 width="90.000000pt" height="92.000000pt" viewBox="0 0 90.000000 92.000000"
 preserveAspectRatio="xMidYMid meet">
<metadata>
Created by potrace 1.16, written by Peter Selinger 2001-2019
</metadata>
<g transform="translate(0.000000,92.000000) scale(0.100000,-0.100000)"
fill="#000000" stroke="none">
<path d="M395 880 c-3 -5 -1 -18 5 -29 5 -11 10 -36 10 -55 0 -39 1 -38 -124
-51 -33 -3 -62 -8 -65 -11 -15 -15 33 -25 107 -21 l82 3 0 -37 c0 -36 -2 -38
-35 -44 -19 -3 -51 -8 -71 -11 -45 -7 -31 -27 18 -28 67 0 308 28 308 35 0 21
-46 31 -107 25 l-63 -7 0 36 c0 39 -5 36 118 53 84 12 95 18 67 39 -13 9 -32
12 -55 9 -19 -4 -55 -9 -78 -13 l-44 -6 3 49 c3 43 1 50 -21 61 -30 15 -47 16
-55 3z"/>
<path d="M620 569 c-63 -9 -193 -23 -288 -30 -161 -12 -173 -12 -185 5 -11 15
-17 9 -46 -58 -33 -75 -35 -106 -7 -106 19 0 53 44 61 79 6 28 9 29 81 36 42
4 77 5 79 3 2 -2 7 -24 10 -50 8 -55 4 -58 -76 -65 -60 -6 -60 -6 -52 -32 4
-14 8 -49 8 -78 0 -69 9 -76 68 -56 26 9 51 13 54 9 4 -3 8 -30 11 -59 l4 -54
-62 -6 c-35 -4 -84 -7 -109 -7 -69 0 -82 -13 -40 -39 20 -13 43 -19 56 -16 92
22 422 45 536 37 57 -4 67 -2 67 12 0 8 -11 23 -25 32 -21 13 -41 15 -131 9
l-107 -8 7 48 c3 27 8 50 11 53 2 2 26 6 52 9 81 7 96 12 84 27 -8 9 -4 27 16
66 l26 53 -24 20 c-21 17 -33 18 -96 13 -40 -4 -73 -3 -73 1 0 4 5 25 11 46 9
33 8 41 -7 51 -15 11 -11 14 31 19 58 8 165 9 165 2 0 -3 -9 -24 -21 -47 -19
-38 -20 -40 -2 -34 10 4 38 12 63 19 60 15 72 24 60 48 -10 18 -79 70 -90 68
-3 -1 -57 -10 -120 -20z m-134 -75 c4 -14 4 -45 2 -69 -7 -62 0 -70 55 -56 25
6 58 11 72 11 26 0 27 -1 20 -42 -4 -24 -10 -46 -14 -51 -4 -4 -37 -10 -73
-14 l-65 -6 5 -73 5 -74 -57 0 c-51 0 -56 2 -56 23 0 12 5 39 11 60 9 33 8 41
-8 53 -17 14 -37 13 -105 -2 -27 -6 -28 -5 -28 40 0 49 -3 47 80 60 l36 6 2
72 c2 81 7 88 69 88 37 0 43 -3 49 -26z"/>
</g>
</svg>
