<?xml version="1.0" standalone="no"?>
<!DOCTYPE svg PUBLIC "-//W3C//DTD SVG 20010904//EN"
 "http://www.w3.org/TR/2001/REC-SVG-20010904/DTD/svg10.dtd">
<svg version="1.0" xmlns="http://www.w3.org/2000/svg"
 width="96.000000pt" height="68.000000pt" viewBox="0 0 96.000000 68.000000"
 preserveAspectRatio="xMidYMid meet">
<metadata>
Created by potrace 1.16, written by Peter Selinger 2001-2019
</metadata>
<g transform="translate(0.000000,68.000000) scale(0.100000,-0.100000)"
fill="#000000" stroke="none">
<path d="M455 369 c-159 -13 -235 -16 -247 -9 -25 14 -25 15 -48 -36 -25 -58
-25 -74 -1 -74 13 0 25 13 36 38 l17 38 144 13 c80 7 157 14 172 16 15 2 62 6
105 10 83 6 89 3 60 -42 -17 -25 -16 -25 4 -19 11 4 40 10 64 14 54 9 59 24
16 51 -40 24 -23 24 -322 0z"/>
</g>
</svg>
