<?xml version="1.0" standalone="no"?>
<!DOCTYPE svg PUBLIC "-//W3C//DTD SVG 20010904//EN"
 "http://www.w3.org/TR/2001/REC-SVG-20010904/DTD/svg10.dtd">
<svg version="1.0" xmlns="http://www.w3.org/2000/svg"
 width="96.000000pt" height="68.000000pt" viewBox="0 0 96.000000 68.000000"
 preserveAspectRatio="xMidYMid meet">
<metadata>
Created by potrace 1.16, written by Peter Selinger 2001-2019
</metadata>
<g transform="translate(0.000000,68.000000) scale(0.100000,-0.100000)"
fill="#000000" stroke="none">
<path d="M450 631 c0 -18 42 -61 60 -61 43 0 34 43 -12 59 -37 13 -48 14 -48
2z"/>
<path d="M655 574 c-9 -3 -380 -44 -408 -44 -7 0 -4 -5 6 -11 13 -8 17 -24 17
-72 0 -109 -44 -235 -111 -319 -40 -51 -24 -48 30 5 66 63 110 170 126 310 6
49 11 60 31 67 20 8 297 30 374 30 21 0 22 2 10 14 -16 15 -59 26 -75 20z"/>
</g>
</svg>
