<?xml version="1.0" standalone="no"?>
<!DOCTYPE svg PUBLIC "-//W3C//DTD SVG 20010904//EN"
 "http://www.w3.org/TR/2001/REC-SVG-20010904/DTD/svg10.dtd">
<svg version="1.0" xmlns="http://www.w3.org/2000/svg"
 width="96.000000pt" height="68.000000pt" viewBox="0 0 96.000000 68.000000"
 preserveAspectRatio="xMidYMid meet">
<metadata>
Created by potrace 1.16, written by Peter Selinger 2001-2019
</metadata>
<g transform="translate(0.000000,68.000000) scale(0.100000,-0.100000)"
fill="#000000" stroke="none">
<path d="M486 303 c12 -49 28 -58 111 -58 52 0 78 4 80 13 4 9 -12 12 -57 12
-73 0 -104 13 -95 41 5 15 2 19 -20 19 -23 0 -25 -3 -19 -27z"/>
<path d="M308 304 c-7 -8 -33 -35 -58 -60 -27 -27 -37 -42 -25 -38 33 12 125
78 125 90 0 19 -29 24 -42 8z"/>
</g>
</svg>
