<?xml version="1.0" standalone="no"?>
<!DOCTYPE svg PUBLIC "-//W3C//DTD SVG 20010904//EN"
 "http://www.w3.org/TR/2001/REC-SVG-20010904/DTD/svg10.dtd">
<svg version="1.0" xmlns="http://www.w3.org/2000/svg"
 width="96.000000pt" height="68.000000pt" viewBox="0 0 96.000000 68.000000"
 preserveAspectRatio="xMidYMid meet">
<metadata>
Created by potrace 1.16, written by Peter Selinger 2001-2019
</metadata>
<g transform="translate(0.000000,68.000000) scale(0.100000,-0.100000)"
fill="#000000" stroke="none">
<path d="M396 451 c6 -26 3 -28 -33 -34 -21 -4 -51 -7 -68 -7 -23 0 -27 -3
-15 -10 8 -5 39 -10 68 -10 45 0 52 -3 52 -19 0 -23 -17 -27 -147 -37 -51 -3
-90 -10 -87 -15 7 -12 86 -11 210 0 55 6 152 13 217 16 64 4 117 11 117 16 0
16 -64 25 -125 17 -158 -20 -145 -20 -145 6 0 22 6 25 53 31 71 9 88 15 81 27
-4 6 -29 7 -65 3 -55 -6 -59 -5 -59 13 0 19 -18 32 -46 32 -10 0 -12 -8 -8
-29z"/>
</g>
</svg>
