<?xml version="1.0" standalone="no"?>
<!DOCTYPE svg PUBLIC "-//W3C//DTD SVG 20010904//EN"
 "http://www.w3.org/TR/2001/REC-SVG-20010904/DTD/svg10.dtd">
<svg version="1.0" xmlns="http://www.w3.org/2000/svg"
 width="96.000000pt" height="68.000000pt" viewBox="0 0 96.000000 68.000000"
 preserveAspectRatio="xMidYMid meet">
<metadata>
Created by potrace 1.16, written by Peter Selinger 2001-2019
</metadata>
<g transform="translate(0.000000,68.000000) scale(0.100000,-0.100000)"
fill="#000000" stroke="none">
<path d="M560 514 l0 -74 -29 0 c-27 0 -30 3 -33 37 -2 27 -8 39 -21 41 -15 3
-17 -3 -15 -40 3 -42 2 -43 -32 -48 -64 -10 -5 -20 75 -13 l75 6 0 -25 c0 -24
-4 -26 -67 -33 -114 -11 -108 -6 -109 -88 0 -54 -6 -84 -24 -122 -13 -27 -26
-54 -28 -60 -3 -5 5 -1 18 10 25 22 56 86 65 138 6 32 8 33 43 28 35 -6 37 -8
40 -49 4 -54 20 -54 24 1 2 32 8 44 26 52 34 15 26 28 -13 21 -115 -20 -105
-21 -105 7 0 29 8 33 90 42 l55 7 13 -34 c8 -18 23 -58 34 -88 l21 -54 -54
-49 -54 -49 40 17 c22 9 50 26 63 38 l24 22 21 -29 c41 -56 87 -96 112 -96 28
0 29 6 12 74 -13 48 -13 48 -25 22 -15 -34 -26 -33 -62 7 -36 40 -37 47 -4
103 28 48 26 74 -6 74 -15 0 -20 -7 -20 -28 0 -16 -6 -37 -14 -47 -13 -18 -15
-17 -30 18 -8 21 -18 53 -22 72 l-6 35 48 0 c46 1 48 2 29 16 -12 9 -34 14
-52 12 -29 -4 -33 -1 -33 19 0 21 5 23 48 24 26 0 56 4 67 9 19 7 19 8 2 15
-10 4 -47 5 -83 2 -63 -6 -64 -6 -64 18 0 21 5 25 29 25 45 0 91 11 91 23 0
10 -69 4 -103 -9 -14 -5 -17 0 -17 29 0 26 -5 36 -20 40 -19 5 -20 0 -20 -69z"/>
<path d="M285 546 c-27 -18 -72 -41 -100 -52 l-50 -19 33 -3 c19 -2 46 1 62 6
25 9 29 8 34 -11 3 -12 6 -34 6 -48 0 -25 -3 -26 -85 -38 -47 -7 -82 -17 -79
-22 7 -11 57 -11 107 0 30 7 37 6 37 -6 0 -22 -65 -107 -113 -148 -22 -19 -35
-35 -27 -35 21 0 74 37 114 80 21 23 40 39 42 37 3 -2 0 -44 -6 -93 -15 -132
-14 -154 9 -154 27 0 30 14 32 142 0 62 3 117 6 121 3 4 16 -4 30 -18 29 -28
43 -32 43 -11 0 18 -24 43 -50 51 -12 4 -20 15 -20 30 0 19 7 24 45 29 59 9
60 30 1 24 l-44 -5 6 39 c3 28 1 43 -9 48 -15 10 -18 8 54 30 38 12 46 27 25
48 -19 19 -50 13 -103 -22z"/>
<path d="M720 414 c0 -11 42 -44 57 -44 22 0 15 37 -9 44 -30 8 -48 8 -48 0z"/>
<path d="M455 209 c-9 -17 -14 -33 -12 -35 6 -6 47 45 47 57 0 20 -21 7 -35
-22z"/>
<path d="M580 223 c0 -23 -55 -83 -103 -112 -50 -31 -41 -38 12 -10 76 39 140
124 104 137 -7 2 -13 -4 -13 -15z"/>
</g>
</svg>
