<?xml version="1.0" standalone="no"?>
<!DOCTYPE svg PUBLIC "-//W3C//DTD SVG 20010904//EN"
 "http://www.w3.org/TR/2001/REC-SVG-20010904/DTD/svg10.dtd">
<svg version="1.0" xmlns="http://www.w3.org/2000/svg"
 width="96.000000pt" height="68.000000pt" viewBox="0 0 96.000000 68.000000"
 preserveAspectRatio="xMidYMid meet">
<metadata>
Created by potrace 1.16, written by Peter Selinger 2001-2019
</metadata>
<g transform="translate(0.000000,68.000000) scale(0.100000,-0.100000)"
fill="#000000" stroke="none">
<path d="M702 503 c-5 -16 -30 -51 -56 -79 -38 -43 -53 -53 -88 -57 -24 -3
-85 -11 -137 -18 -90 -12 -93 -13 -66 -27 25 -12 38 -12 109 2 45 9 85 16 90
16 19 0 -31 -42 -120 -102 -51 -34 -91 -64 -89 -66 10 -10 140 60 212 115 l83
63 102 0 c97 0 101 1 85 18 -14 13 -32 16 -82 15 -36 -2 -65 0 -65 4 0 4 21
29 48 56 l47 48 -24 20 c-31 25 -37 24 -49 -8z"/>
</g>
</svg>
