<?xml version="1.0" standalone="no"?>
<!DOCTYPE svg PUBLIC "-//W3C//DTD SVG 20010904//EN"
 "http://www.w3.org/TR/2001/REC-SVG-20010904/DTD/svg10.dtd">
<svg version="1.0" xmlns="http://www.w3.org/2000/svg"
 width="96.000000pt" height="68.000000pt" viewBox="0 0 96.000000 68.000000"
 preserveAspectRatio="xMidYMid meet">
<metadata>
Created by potrace 1.16, written by Peter Selinger 2001-2019
</metadata>
<g transform="translate(0.000000,68.000000) scale(0.100000,-0.100000)"
fill="#000000" stroke="none">
<path d="M290 494 c-19 -7 -61 -13 -92 -13 -53 -1 -72 -11 -49 -25 5 -3 14
-36 21 -73 7 -38 17 -77 23 -87 9 -18 11 -18 22 -3 7 10 34 18 76 23 64 6 64
6 65 39 0 17 10 51 22 74 28 54 28 57 -9 70 -37 13 -33 13 -79 -5z m34 -32 c2
-4 -1 -33 -7 -63 -12 -54 -13 -54 -55 -60 -24 -3 -44 -3 -46 0 -2 3 -7 32 -10
63 -7 56 -7 57 21 61 51 7 92 7 97 -1z"/>
</g>
</svg>
