<?xml version="1.0" standalone="no"?>
<!DOCTYPE svg PUBLIC "-//W3C//DTD SVG 20010904//EN"
 "http://www.w3.org/TR/2001/REC-SVG-20010904/DTD/svg10.dtd">
<svg version="1.0" xmlns="http://www.w3.org/2000/svg"
 width="96.000000pt" height="68.000000pt" viewBox="0 0 96.000000 68.000000"
 preserveAspectRatio="xMidYMid meet">
<metadata>
Created by potrace 1.16, written by Peter Selinger 2001-2019
</metadata>
<g transform="translate(0.000000,68.000000) scale(0.100000,-0.100000)"
fill="#000000" stroke="none">
<path d="M316 575 c-46 -30 -80 -45 -102 -45 -25 0 -31 -4 -29 -17 2 -10 6
-78 9 -150 6 -130 6 -133 -15 -133 -28 0 -19 -23 14 -34 20 -7 49 -2 129 24
110 35 114 37 106 45 -3 3 -37 -1 -77 -10 -115 -24 -112 -25 -109 48 l3 62 60
8 c133 18 131 18 111 29 -11 6 -40 8 -70 4 -110 -14 -101 -17 -99 38 1 27 6
53 10 56 5 4 49 20 98 35 50 15 94 31 98 35 8 7 -43 50 -60 50 -4 0 -39 -21
-77 -45z"/>
<path d="M655 498 c-22 -5 -66 -8 -97 -6 l-57 4 -1 -213 c0 -207 4 -263 20
-263 18 0 23 44 29 232 3 108 9 199 13 203 3 4 36 12 72 18 87 15 92 10 78
-83 -13 -89 -24 -104 -71 -95 l-36 6 37 -37 c57 -58 85 -33 116 106 11 47 22
92 26 101 5 11 -1 19 -19 27 -30 14 -54 14 -110 0z"/>
</g>
</svg>
