<?xml version="1.0" standalone="no"?>
<!DOCTYPE svg PUBLIC "-//W3C//DTD SVG 20010904//EN"
 "http://www.w3.org/TR/2001/REC-SVG-20010904/DTD/svg10.dtd">
<svg version="1.0" xmlns="http://www.w3.org/2000/svg"
 width="96.000000pt" height="68.000000pt" viewBox="0 0 96.000000 68.000000"
 preserveAspectRatio="xMidYMid meet">
<metadata>
Created by potrace 1.16, written by Peter Selinger 2001-2019
</metadata>
<g transform="translate(0.000000,68.000000) scale(0.100000,-0.100000)"
fill="#000000" stroke="none">
<path d="M628 497 c-47 -6 -68 -14 -68 -23 0 -11 9 -13 43 -7 23 4 58 8 77 8
l35 0 -3 -65 c-2 -36 -9 -76 -15 -90 -11 -21 -18 -24 -52 -22 l-40 3 37 -37
c57 -58 85 -34 116 106 11 47 22 92 26 101 5 11 -1 19 -19 27 -29 13 -42 13
-137 -1z"/>
</g>
</svg>
