<?xml version="1.0" standalone="no"?>
<!DOCTYPE svg PUBLIC "-//W3C//DTD SVG 20010904//EN"
 "http://www.w3.org/TR/2001/REC-SVG-20010904/DTD/svg10.dtd">
<svg version="1.0" xmlns="http://www.w3.org/2000/svg"
 width="96.000000pt" height="68.000000pt" viewBox="0 0 96.000000 68.000000"
 preserveAspectRatio="xMidYMid meet">
<metadata>
Created by potrace 1.16, written by Peter Selinger 2001-2019
</metadata>
<g transform="translate(0.000000,68.000000) scale(0.100000,-0.100000)"
fill="#000000" stroke="none">
<path d="M525 583 c3 -10 9 -30 12 -44 4 -23 1 -27 -27 -33 -18 -3 -50 -6 -71
-6 -21 0 -41 -5 -44 -11 -5 -7 16 -10 66 -8 73 2 74 2 77 -24 3 -23 0 -27 -25
-28 -15 -1 -39 -5 -53 -10 -16 -5 21 -7 100 -4 68 3 129 10 134 15 11 11 -13
14 -77 11 -34 -3 -37 -1 -34 21 3 20 12 24 58 31 96 15 105 17 88 28 -7 5 -42
6 -76 2 l-63 -6 0 36 c0 36 -12 47 -52 47 -15 0 -18 -4 -13 -17z"/>
<path d="M287 573 c-4 -3 -7 -15 -7 -25 0 -38 -60 -135 -130 -210 -39 -43 -65
-78 -57 -78 16 0 85 48 106 73 7 9 17 17 22 17 13 0 11 -139 -3 -221 -12 -75
-2 -119 27 -119 23 0 25 10 34 185 7 138 6 162 -7 178 -16 18 -16 17 75 146
23 31 -33 82 -60 54z"/>
<path d="M595 385 c-5 -2 -44 -6 -87 -10 l-76 -7 14 -35 c9 -19 13 -42 10 -50
-3 -8 2 -25 10 -39 9 -13 14 -27 11 -30 -3 -4 -45 -9 -92 -12 -55 -3 -83 -8
-76 -15 6 -6 57 -5 142 2 72 6 192 11 265 11 134 0 164 9 102 29 -23 7 -52 8
-92 1 -33 -5 -62 -7 -64 -5 -3 3 3 14 13 25 13 15 16 23 8 31 -14 14 -7 36 19
66 20 21 20 21 0 32 -19 10 -84 14 -107 6z m48 -28 c10 -26 -8 -35 -82 -42
-57 -6 -75 -4 -82 6 -19 31 -9 38 59 42 37 2 74 4 83 5 9 1 19 -4 22 -11z m1
-84 c-10 -44 -23 -53 -71 -53 -37 0 -50 5 -73 31 -32 33 -29 36 40 42 115 9
111 10 104 -20z"/>
<path d="M520 149 c-36 -4 -77 -6 -92 -3 -29 6 -39 -10 -14 -19 8 -3 17 -21
21 -39 14 -68 14 -68 53 -63 20 2 76 7 125 11 71 5 87 9 87 22 0 9 12 29 28
45 26 28 27 29 8 43 -22 15 -107 17 -216 3z m150 -23 c0 -1 -5 -17 -11 -33
-10 -30 -12 -31 -92 -38 -71 -6 -83 -5 -94 11 -22 30 -16 52 15 57 35 5 182 8
182 3z"/>
</g>
</svg>
