<?xml version="1.0" standalone="no"?>
<!DOCTYPE svg PUBLIC "-//W3C//DTD SVG 20010904//EN"
 "http://www.w3.org/TR/2001/REC-SVG-20010904/DTD/svg10.dtd">
<svg version="1.0" xmlns="http://www.w3.org/2000/svg"
 width="96.000000pt" height="68.000000pt" viewBox="0 0 96.000000 68.000000"
 preserveAspectRatio="xMidYMid meet">
<metadata>
Created by potrace 1.16, written by Peter Selinger 2001-2019
</metadata>
<g transform="translate(0.000000,68.000000) scale(0.100000,-0.100000)"
fill="#000000" stroke="none">
<path d="M291 375 c-14 -40 -89 -126 -145 -167 -59 -43 -16 -33 50 11 l59 40
3 -57 c2 -31 -2 -77 -8 -101 -9 -36 -8 -47 6 -68 10 -17 19 -22 26 -15 15 15
24 247 9 256 -7 5 2 23 29 55 44 52 48 66 24 75 -30 11 -40 6 -53 -29z"/>
</g>
</svg>
