<?xml version="1.0" standalone="no"?>
<!DOCTYPE svg PUBLIC "-//W3C//DTD SVG 20010904//EN"
 "http://www.w3.org/TR/2001/REC-SVG-20010904/DTD/svg10.dtd">
<svg version="1.0" xmlns="http://www.w3.org/2000/svg"
 width="96.000000pt" height="68.000000pt" viewBox="0 0 96.000000 68.000000"
 preserveAspectRatio="xMidYMid meet">
<metadata>
Created by potrace 1.16, written by Peter Selinger 2001-2019
</metadata>
<g transform="translate(0.000000,68.000000) scale(0.100000,-0.100000)"
fill="#000000" stroke="none">
<path d="M560 169 c-25 -4 -71 -8 -104 -8 -50 -1 -57 -3 -46 -16 6 -8 17 -36
24 -62 7 -26 17 -48 22 -48 154 7 242 19 237 31 -3 8 5 31 17 51 21 35 21 38
4 50 -19 14 -83 15 -154 2z m74 -15 c19 -7 22 -73 4 -79 -7 -2 -48 -6 -90 -10
l-77 -6 -10 38 c-6 20 -9 38 -8 40 2 1 39 6 82 11 44 5 81 10 82 11 1 0 8 -2
17 -5z"/>
</g>
</svg>
