<?xml version="1.0" standalone="no"?>
<!DOCTYPE svg PUBLIC "-//W3C//DTD SVG 20010904//EN"
 "http://www.w3.org/TR/2001/REC-SVG-20010904/DTD/svg10.dtd">
<svg version="1.0" xmlns="http://www.w3.org/2000/svg"
 width="96.000000pt" height="68.000000pt" viewBox="0 0 96.000000 68.000000"
 preserveAspectRatio="xMidYMid meet">
<metadata>
Created by potrace 1.16, written by Peter Selinger 2001-2019
</metadata>
<g transform="translate(0.000000,68.000000) scale(0.100000,-0.100000)"
fill="#000000" stroke="none">
<path d="M505 529 c-52 -13 -98 -18 -132 -14 -51 5 -63 0 -44 -21 5 -5 11 -57
14 -116 l6 -107 -55 -7 c-30 -3 -65 -4 -79 -2 -32 7 -32 -7 0 -28 29 -19 43
-18 219 20 65 14 125 26 135 26 14 0 16 -13 13 -101 l-3 -101 -45 5 c-24 2
-44 4 -44 3 0 -1 20 -18 44 -39 84 -69 94 -41 98 260 3 225 2 232 -17 237 -11
3 -22 5 -25 5 -3 -1 -41 -10 -85 -20z m85 -42 c0 -22 -6 -25 -77 -35 -113 -17
-123 -16 -123 12 0 22 6 25 63 34 34 5 79 10 100 11 32 1 37 -2 37 -22z m0
-76 c0 -28 0 -28 -77 -35 -43 -3 -88 -9 -100 -12 -20 -6 -23 -3 -23 25 0 30 1
31 48 32 39 1 140 13 150 18 1 0 2 -12 2 -28z m-2 -78 c-3 -27 -7 -29 -78 -40
-116 -18 -120 -18 -120 16 0 29 1 29 73 39 126 16 129 16 125 -15z"/>
</g>
</svg>
