<?xml version="1.0" standalone="no"?>
<!DOCTYPE svg PUBLIC "-//W3C//DTD SVG 20010904//EN"
 "http://www.w3.org/TR/2001/REC-SVG-20010904/DTD/svg10.dtd">
<svg version="1.0" xmlns="http://www.w3.org/2000/svg"
 width="90.000000pt" height="92.000000pt" viewBox="0 0 90.000000 92.000000"
 preserveAspectRatio="xMidYMid meet">
<metadata>
Created by potrace 1.16, written by Peter Selinger 2001-2019
</metadata>
<g transform="translate(0.000000,92.000000) scale(0.100000,-0.100000)"
fill="#000000" stroke="none">
<path d="M500 839 c-58 -10 -156 -20 -217 -21 -62 -2 -113 -5 -113 -6 0 -2 8
-15 19 -28 10 -13 22 -43 25 -68 8 -49 31 -87 43 -70 5 6 60 14 131 18 137 8
136 8 102 -59 -11 -22 -20 -41 -20 -42 0 -6 44 20 79 46 l33 25 -22 18 -22 18
31 0 c17 0 31 -4 31 -10 0 -5 5 -10 11 -10 8 0 36 52 87 162 4 7 -72 49 -85
47 -4 -1 -55 -10 -113 -20z m120 -45 c0 -9 -5 -33 -11 -54 l-11 -37 -52 5
c-28 2 -52 6 -54 7 -2 2 4 17 13 35 13 25 14 35 4 46 -10 12 -2 14 50 14 50 0
61 -3 61 -16z m-150 -6 c0 -7 -3 -30 -6 -50 -6 -35 -9 -38 -40 -38 -32 0 -34
2 -34 34 0 19 -3 41 -6 50 -5 13 2 16 40 16 30 0 46 -4 46 -12z m-133 -10 c6
-7 13 -26 17 -42 9 -35 -4 -46 -55 -46 -34 0 -37 2 -43 38 -10 61 -9 62 33 62
21 0 43 -6 48 -12z"/>
<path d="M286 628 c47 -80 55 -89 70 -78 8 7 14 23 14 37 0 18 -9 28 -35 39
-42 17 -59 18 -49 2z"/>
<path d="M515 555 c-85 -19 -269 -36 -305 -29 -34 7 -36 3 -16 -29 8 -12 18
-44 21 -70 7 -43 44 -110 45 -80 0 6 8 12 18 12 9 -1 93 2 186 5 l170 5 37 78
c21 43 38 79 39 81 0 1 -15 11 -32 22 -37 23 -77 24 -163 5z m105 -52 c0 -16
-4 -44 -10 -63 l-10 -35 -80 0 -80 0 0 53 c0 59 7 65 65 60 l36 -3 -25 -48
-25 -47 50 26 51 25 -21 23 c-25 26 -19 36 21 36 24 0 28 -4 28 -27z m-222
-43 c4 -56 -13 -70 -85 -70 -49 0 -53 2 -53 24 0 13 -3 37 -6 54 l-6 31 58 4
c91 5 89 7 92 -43z"/>
<path d="M290 471 c0 -19 47 -64 58 -57 19 11 14 33 -10 50 -25 18 -48 21 -48
7z"/>
<path d="M430 324 c-30 -8 -77 -12 -103 -10 l-48 5 8 -32 c8 -31 9 -97 2 -169
-4 -44 16 -74 38 -56 8 6 50 13 93 16 78 4 80 4 89 -21 14 -37 28 -41 48 -11
14 22 17 48 16 147 -1 115 -2 121 -24 133 -29 16 -48 16 -119 -2z m90 -70 c0
-33 -2 -36 -25 -32 -13 3 -54 0 -90 -7 l-65 -13 0 39 c0 43 5 45 118 48 l62 1
0 -36z m0 -98 l0 -33 -91 -8 c-50 -3 -92 -5 -94 -3 -2 2 -1 15 2 30 5 24 11
27 67 36 112 17 116 17 116 -22z"/>
</g>
</svg>
