<?xml version="1.0" standalone="no"?>
<!DOCTYPE svg PUBLIC "-//W3C//DTD SVG 20010904//EN"
 "http://www.w3.org/TR/2001/REC-SVG-20010904/DTD/svg10.dtd">
<svg version="1.0" xmlns="http://www.w3.org/2000/svg"
 width="90.000000pt" height="92.000000pt" viewBox="0 0 90.000000 92.000000"
 preserveAspectRatio="xMidYMid meet">
<metadata>
Created by potrace 1.16, written by Peter Selinger 2001-2019
</metadata>
<g transform="translate(0.000000,92.000000) scale(0.100000,-0.100000)"
fill="#000000" stroke="none">
<path d="M496 868 c-3 -7 -7 -26 -10 -41 -4 -15 -17 -52 -31 -82 -23 -54 -25
-55 -64 -55 l-41 0 19 -37 c11 -21 22 -65 26 -98 8 -72 22 -102 38 -86 6 6 21
11 34 11 33 0 44 -56 41 -212 l-3 -133 -44 3 -44 3 44 -48 c24 -26 46 -49 50
-51 4 -2 16 9 28 24 18 23 21 40 21 138 l0 111 42 -50 c93 -110 112 -125 159
-125 53 0 125 19 113 29 -5 4 -40 20 -79 36 -77 31 -160 81 -187 112 -17 19
-16 20 57 48 41 15 75 34 75 41 0 8 -11 21 -25 30 -25 16 -26 16 -73 -35 -71
-75 -88 -69 -82 28 1 18 -4 37 -10 41 -8 5 -1 10 20 15 22 5 35 3 40 -5 14
-23 37 -3 55 47 10 26 28 72 41 102 13 29 24 55 24 57 0 2 -19 13 -42 25 -40
20 -43 21 -102 5 -34 -8 -78 -18 -99 -22 l-38 -6 56 73 c30 41 55 80 55 87 0
7 -12 17 -26 22 -32 13 -34 13 -38 -2z m144 -221 l0 -33 -67 -2 c-38 -2 -86
-4 -108 -5 -36 -2 -40 0 -43 24 -3 25 0 26 65 36 37 5 87 11 111 11 41 2 42 1
42 -31z m-10 -66 c0 -5 -4 -21 -9 -34 -9 -23 -17 -25 -91 -32 -45 -4 -83 -6
-85 -4 -2 2 -6 16 -10 30 l-7 27 94 9 c51 6 96 11 101 12 4 0 7 -3 7 -8z"/>
<path d="M196 788 c-26 -91 -71 -182 -106 -213 -23 -21 -26 -48 -7 -63 9 -8
24 -7 52 3 82 29 80 10 -9 -78 l-54 -53 19 -23 20 -24 80 38 c60 28 83 35 92
26 19 -19 37 -12 37 14 0 25 -34 65 -57 65 -16 0 -16 -5 -3 -30 9 -17 4 -21
-42 -35 -28 -8 -54 -13 -56 -10 -3 3 4 15 14 28 101 113 144 165 144 174 0 5
-11 19 -24 32 l-23 22 -17 -46 c-19 -48 -38 -59 -95 -53 l-32 3 65 94 c55 79
64 97 53 110 -25 32 -45 40 -51 19z"/>
<path d="M420 400 c-8 -5 -36 -12 -63 -15 -29 -4 -47 -11 -44 -19 5 -15 52
-20 77 -6 64 34 -21 -96 -108 -165 -70 -56 -68 -69 5 -31 48 24 84 58 160 152
39 48 41 53 25 66 -27 24 -37 27 -52 18z"/>
<path d="M220 332 c0 -17 51 -72 66 -72 18 0 19 44 1 58 -19 16 -67 26 -67 14z"/>
<path d="M130 292 c0 -10 38 -63 54 -74 25 -17 38 40 13 60 -18 15 -67 26 -67
14z"/>
<path d="M20 273 c0 -5 15 -35 33 -68 39 -73 67 -85 67 -28 0 22 -6 46 -12 55
-28 33 -89 62 -88 41z"/>
</g>
</svg>
