<?xml version="1.0" standalone="no"?>
<!DOCTYPE svg PUBLIC "-//W3C//DTD SVG 20010904//EN"
 "http://www.w3.org/TR/2001/REC-SVG-20010904/DTD/svg10.dtd">
<svg version="1.0" xmlns="http://www.w3.org/2000/svg"
 width="90.000000pt" height="92.000000pt" viewBox="0 0 90.000000 92.000000"
 preserveAspectRatio="xMidYMid meet">
<metadata>
Created by potrace 1.16, written by Peter Selinger 2001-2019
</metadata>
<g transform="translate(0.000000,92.000000) scale(0.100000,-0.100000)"
fill="#000000" stroke="none">
<path d="M325 804 c-8 -20 -15 -40 -15 -43 0 -4 -14 -29 -30 -55 -34 -54 -30
-52 58 17 66 52 72 65 45 89 -36 30 -42 30 -58 -8z"/>
<path d="M100 769 c0 -19 70 -99 86 -99 19 0 28 24 20 54 -4 18 -18 28 -53 40
-56 19 -53 19 -53 5z"/>
<path d="M599 744 c-18 -19 -55 -51 -81 -70 -41 -31 -52 -34 -84 -28 -34 6
-36 5 -29 -12 15 -33 18 -264 4 -352 -11 -73 -10 -85 3 -98 14 -14 24 -7 101
73 47 48 84 89 82 91 -2 2 -30 -15 -63 -37 -33 -23 -62 -41 -66 -41 -3 0 -6
45 -6 101 0 100 0 101 23 96 12 -4 40 -2 62 3 22 5 41 7 43 6 1 -2 14 -33 27
-70 47 -130 135 -260 197 -292 48 -25 59 -14 42 42 -8 26 -14 67 -14 91 0 51
-15 50 -24 -2 -4 -19 -11 -37 -17 -40 -26 -17 -141 162 -164 256 -7 27 -6 27
64 34 77 8 94 25 41 44 -22 7 -42 7 -75 -3 -24 -8 -46 -11 -49 -8 -4 3 -6 28
-6 55 0 31 -6 57 -15 67 -14 16 -11 19 45 43 64 28 74 46 38 71 -32 23 -40 20
-79 -20z m-36 -181 l16 -52 -50 -10 c-71 -15 -71 -16 -64 27 14 87 16 91 43
100 31 11 34 8 55 -65z"/>
<path d="M262 630 c-35 -10 -87 -22 -117 -25 -35 -5 -55 -12 -55 -20 0 -17 52
-29 81 -20 25 8 39 -8 39 -46 0 -29 -15 -39 -58 -39 -15 0 -34 -5 -42 -10 -25
-17 8 -32 58 -27 l43 5 -3 -41 -3 -41 -65 -13 c-103 -20 -111 -23 -104 -34 14
-23 53 -28 95 -14 52 19 59 19 59 0 0 -28 -61 -136 -101 -179 -47 -52 -49 -62
-7 -40 65 34 125 116 157 216 11 33 17 38 62 47 28 6 59 11 69 11 26 0 25 16
0 30 -14 8 -31 8 -58 0 -51 -14 -52 -13 -52 14 0 43 10 55 56 62 27 4 44 11
44 20 0 15 -63 30 -80 19 -8 -5 -11 4 -8 31 3 37 5 40 52 54 58 18 67 32 31
48 -14 7 -27 11 -28 11 -1 -1 -30 -9 -65 -19z"/>
<path d="M538 141 c-88 -18 -101 -27 -66 -40 33 -12 218 9 218 25 0 12 -43 35
-63 33 -7 -1 -47 -9 -89 -18z"/>
</g>
</svg>
