<?xml version="1.0" standalone="no"?>
<!DOCTYPE svg PUBLIC "-//W3C//DTD SVG 20010904//EN"
 "http://www.w3.org/TR/2001/REC-SVG-20010904/DTD/svg10.dtd">
<svg version="1.0" xmlns="http://www.w3.org/2000/svg"
 width="96.000000pt" height="68.000000pt" viewBox="0 0 96.000000 68.000000"
 preserveAspectRatio="xMidYMid meet">
<metadata>
Created by potrace 1.16, written by Peter Selinger 2001-2019
</metadata>
<g transform="translate(0.000000,68.000000) scale(0.100000,-0.100000)"
fill="#000000" stroke="none">
<path d="M360 558 c-7 -18 -24 -48 -37 -65 -13 -18 -19 -33 -13 -33 11 0 130
77 130 85 0 9 -44 45 -56 45 -6 0 -17 -15 -24 -32z"/>
<path d="M170 534 c0 -21 45 -64 66 -64 35 0 43 29 15 52 -21 17 -81 26 -81
12z"/>
<path d="M600 509 c-50 -43 -109 -71 -134 -65 -21 5 -21 4 -18 -101 3 -66 0
-127 -9 -160 -11 -46 -10 -56 2 -63 9 -6 23 -3 39 7 37 24 121 96 117 100 -2
2 -25 -8 -51 -22 -26 -14 -51 -23 -54 -21 -4 2 -5 56 -2 120 4 89 9 119 20
126 31 20 48 11 63 -35 l15 -44 -44 -7 c-24 -3 -44 -11 -44 -16 0 -7 18 -8 50
-4 l49 7 21 -48 c36 -80 101 -169 144 -197 43 -28 73 -30 68 -5 -2 8 -6 38 -9
68 l-6 54 -19 -37 c-10 -20 -22 -36 -26 -36 -27 0 -132 155 -132 193 0 13 10
17 38 18 20 1 48 4 62 9 l25 7 -28 8 c-15 4 -47 4 -71 1 l-43 -7 -7 40 c-3 21
-8 45 -11 53 -4 9 12 21 47 36 50 22 52 24 34 37 -29 22 -47 18 -86 -16z"/>
<path d="M290 435 c-30 -7 -69 -14 -87 -14 -81 -3 -74 -31 9 -31 39 0 48 -4
54 -22 8 -28 -18 -48 -64 -48 -21 0 -31 -4 -27 -11 4 -6 24 -9 47 -6 44 5 57
-8 39 -41 -8 -14 -26 -22 -63 -27 -71 -9 -89 -15 -83 -26 8 -12 67 -12 101 1
15 6 29 8 32 6 10 -11 -43 -100 -82 -138 l-41 -40 41 20 c49 25 89 70 111 124
18 45 30 53 96 62 26 4 45 12 41 17 -3 5 -26 7 -55 3 -48 -6 -49 -6 -49 20 0
20 6 27 28 32 63 13 69 21 25 28 -36 7 -43 12 -43 31 0 19 7 24 45 29 48 8 66
23 44 37 -18 11 -50 9 -119 -6z"/>
<path d="M565 85 c-5 -2 -28 -6 -50 -10 -37 -7 -38 -8 -16 -16 27 -11 181 9
181 23 0 8 -94 10 -115 3z"/>
</g>
</svg>
