<?xml version="1.0" standalone="no"?>
<!DOCTYPE svg PUBLIC "-//W3C//DTD SVG 20010904//EN"
 "http://www.w3.org/TR/2001/REC-SVG-20010904/DTD/svg10.dtd">
<svg version="1.0" xmlns="http://www.w3.org/2000/svg"
 width="96.000000pt" height="68.000000pt" viewBox="0 0 96.000000 68.000000"
 preserveAspectRatio="xMidYMid meet">
<metadata>
Created by potrace 1.16, written by Peter Selinger 2001-2019
</metadata>
<g transform="translate(0.000000,68.000000) scale(0.100000,-0.100000)"
fill="#000000" stroke="none">
<path d="M560 560 c-19 -5 -53 -10 -75 -11 -53 -2 -57 -6 -41 -32 8 -12 17
-45 21 -72 9 -70 15 -78 50 -65 16 6 51 10 79 8 l49 -3 25 83 c14 45 22 85 19
88 -11 11 -91 13 -127 4z m60 -40 c0 -26 -4 -30 -27 -30 -16 0 -45 -3 -65 -6
-36 -6 -38 -5 -38 19 0 21 6 27 36 34 20 4 49 9 65 10 26 2 29 -1 29 -27z m0
-54 c0 -3 -4 -15 -9 -29 -8 -20 -17 -24 -60 -26 -48 -2 -51 -1 -51 23 0 18 6
26 23 29 31 6 97 8 97 3z"/>
<path d="M290 529 c-14 -6 -46 -8 -71 -5 l-46 6 5 -110 c6 -156 -13 -243 -74
-328 -25 -34 1 -27 45 13 26 24 43 52 55 89 15 45 20 53 37 49 13 -4 30 4 50
23 l29 28 0 -60 c0 -32 -3 -70 -7 -83 -5 -21 -10 -22 -47 -17 l-41 7 40 -40
c44 -46 68 -51 87 -18 17 28 28 438 13 449 -14 10 -45 9 -75 -3z m30 -74 l0
-46 -37 7 c-48 8 -57 17 -49 48 6 23 14 27 74 35 8 1 12 -14 12 -44z m-14
-105 c28 0 13 -27 -24 -43 -21 -9 -42 -17 -45 -17 -4 0 -7 25 -7 56 l0 56 31
-26 c17 -14 37 -26 45 -26z"/>
<path d="M545 350 c-185 -21 -165 -18 -165 -29 0 -6 21 -11 48 -13 l47 -3 -42
-44 c-24 -24 -43 -46 -43 -49 0 -2 16 5 36 17 74 44 88 12 19 -45 -24 -21 -43
-40 -41 -42 14 -13 146 82 146 106 0 7 9 12 20 12 51 0 0 -80 -103 -162 -61
-48 -39 -50 33 -2 77 50 150 129 143 154 -4 16 0 20 21 20 15 0 29 -6 32 -14
7 -20 -33 -129 -57 -155 -24 -25 -28 -26 -57 -5 -29 20 -28 7 4 -39 l25 -38
32 18 c24 14 45 45 85 123 l52 105 -22 18 c-16 12 -33 16 -58 12 -19 -3 -73
-8 -119 -11 l-83 -7 16 25 c16 24 21 25 163 32 150 8 175 12 152 27 -20 12
-100 9 -284 -11z"/>
</g>
</svg>
