<?xml version="1.0" standalone="no"?>
<!DOCTYPE svg PUBLIC "-//W3C//DTD SVG 20010904//EN"
 "http://www.w3.org/TR/2001/REC-SVG-20010904/DTD/svg10.dtd">
<svg version="1.0" xmlns="http://www.w3.org/2000/svg"
 width="96.000000pt" height="68.000000pt" viewBox="0 0 96.000000 68.000000"
 preserveAspectRatio="xMidYMid meet">
<metadata>
Created by potrace 1.16, written by Peter Selinger 2001-2019
</metadata>
<g transform="translate(0.000000,68.000000) scale(0.100000,-0.100000)"
fill="#000000" stroke="none">
<path d="M250 553 c0 -23 -25 -61 -78 -117 -59 -63 -13 -59 63 5 11 9 38 20
59 24 l40 7 -38 -44 c-56 -63 -61 -65 -116 -64 -42 2 -49 -1 -44 -14 13 -31
24 -66 35 -108 8 -34 13 -41 23 -33 7 6 53 12 101 14 l89 3 22 70 c30 91 15
109 -76 90 l-35 -8 30 27 c17 14 47 37 68 51 40 26 40 39 1 54 -16 6 -37 5
-66 -6 -30 -10 -39 -11 -30 -2 18 18 15 46 -7 58 -28 15 -41 12 -41 -7z m127
-199 c5 -17 -12 -32 -42 -35 -22 -3 -30 0 -33 14 -7 36 64 56 75 21z m-129
-45 c-7 -5 -25 -9 -40 -9 -23 0 -28 4 -28 24 0 21 5 25 38 28 30 2 38 -1 40
-16 2 -10 -2 -23 -10 -27z m118 -31 c-2 -18 -11 -24 -34 -26 -26 -3 -32 0 -32
17 0 21 12 29 47 30 18 1 22 -4 19 -21z m-106 -12 c0 -19 -6 -25 -30 -28 -16
-3 -30 -2 -30 1 0 3 -3 16 -6 29 -6 20 -3 22 30 22 31 0 36 -3 36 -24z"/>
<path d="M510 556 c0 -19 -26 -74 -55 -118 -33 -49 -16 -49 32 1 34 34 45 39
101 45 76 7 112 16 112 26 0 16 -42 18 -93 4 -67 -18 -70 -18 -57 5 17 33 12
51 -15 51 -15 0 -25 -6 -25 -14z"/>
<path d="M567 437 l-77 -10 4 -36 c3 -20 5 -53 5 -73 1 -29 5 -37 21 -40 20
-3 20 -3 -1 -45 -11 -23 -35 -56 -52 -73 -34 -33 -26 -40 13 -10 31 24 43 25
63 2 29 -32 24 -38 -86 -88 -21 -9 -36 -19 -33 -21 6 -6 97 22 135 42 32 16
32 16 72 -19 37 -34 43 -36 107 -35 37 0 76 4 87 9 11 5 14 9 6 9 -27 2 -177
52 -195 66 -18 13 -17 15 5 47 13 18 33 41 44 50 30 26 3 40 -62 33 -47 -5
-51 -4 -46 15 3 13 0 20 -8 21 -8 1 4 5 26 9 23 5 48 4 58 -2 26 -14 31 -5 38
70 5 54 3 69 -9 80 -9 6 -21 11 -26 10 -6 0 -46 -6 -89 -11z m80 -32 c8 -21 6
-22 -59 -30 -54 -7 -58 -6 -58 13 0 22 17 28 78 31 21 1 35 -4 39 -14z m3 -64
c0 -14 -10 -20 -37 -25 -66 -10 -83 -8 -83 13 0 16 8 21 43 24 23 2 50 4 60 5
11 1 17 -5 17 -17z m-35 -160 c-19 -37 -34 -39 -64 -7 -26 27 -19 36 39 46 42
7 46 1 25 -39z"/>
<path d="M350 168 c0 -7 11 -26 24 -43 22 -27 25 -28 31 -12 5 12 0 26 -15 43
-26 26 -40 31 -40 12z"/>
<path d="M280 157 c0 -7 6 -22 14 -33 11 -14 17 -16 26 -7 14 13 7 29 -21 43
-14 8 -19 7 -19 -3z"/>
<path d="M117 131 c-20 -35 -22 -71 -3 -71 21 0 38 26 39 61 2 42 -14 46 -36
10z"/>
<path d="M200 155 c0 -16 25 -55 34 -52 14 5 8 39 -7 49 -14 9 -27 10 -27 3z"/>
</g>
</svg>
