<?xml version="1.0" standalone="no"?>
<!DOCTYPE svg PUBLIC "-//W3C//DTD SVG 20010904//EN"
 "http://www.w3.org/TR/2001/REC-SVG-20010904/DTD/svg10.dtd">
<svg version="1.0" xmlns="http://www.w3.org/2000/svg"
 width="90.000000pt" height="92.000000pt" viewBox="0 0 90.000000 92.000000"
 preserveAspectRatio="xMidYMid meet">
<metadata>
Created by potrace 1.16, written by Peter Selinger 2001-2019
</metadata>
<g transform="translate(0.000000,92.000000) scale(0.100000,-0.100000)"
fill="#000000" stroke="none">
<path d="M520 870 c0 -16 -22 -72 -49 -124 -51 -101 -45 -111 23 -36 36 40 40
41 109 46 126 8 176 28 130 52 -13 7 -42 5 -98 -9 -43 -10 -81 -17 -82 -15 -2
2 5 19 16 37 l20 33 -21 23 c-30 32 -48 29 -48 -7z"/>
<path d="M244 843 c-12 -48 -50 -117 -100 -177 -45 -56 -45 -57 -16 -42 17 9
50 34 73 56 34 32 50 40 79 40 49 0 142 18 154 30 6 6 0 13 -16 20 -19 9 -36
8 -78 -4 -79 -23 -85 -21 -54 19 28 37 25 53 -17 76 -15 8 -20 5 -25 -18z"/>
<path d="M558 684 c34 -64 94 -93 100 -48 4 27 -27 54 -73 61 -34 6 -36 4 -27
-13z"/>
<path d="M236 683 c-10 -11 47 -83 66 -83 16 0 19 6 16 32 -2 26 -9 33 -40 44
-20 7 -39 10 -42 7z"/>
<path d="M355 611 c-3 -6 2 -14 11 -19 13 -7 14 -13 5 -30 -18 -33 -130 -130
-226 -194 -50 -33 -92 -62 -94 -64 -10 -9 107 30 139 46 60 30 155 106 195
154 21 25 45 48 53 51 9 3 47 -25 99 -72 159 -147 167 -153 195 -153 34 0 131
20 141 29 4 4 -37 22 -92 40 -99 33 -180 80 -285 165 -60 50 -125 71 -141 47z"/>
<path d="M435 399 c-49 -10 -105 -18 -123 -19 -59 0 -31 -25 31 -28 l57 -3 0
-43 0 -43 -67 -9 c-38 -5 -68 -13 -68 -19 0 -5 33 -11 73 -13 l72 -3 0 -48 0
-48 -52 -6 c-29 -4 -92 -10 -140 -13 -49 -4 -88 -10 -88 -14 0 -4 14 -13 31
-20 24 -10 50 -11 126 -1 53 6 181 14 285 18 197 6 215 12 147 45 -27 13 -45
15 -89 8 -30 -4 -83 -11 -118 -14 l-63 -6 3 52 c3 58 4 59 103 75 28 4 49 12
48 18 -3 17 -60 26 -103 16 l-41 -9 2 41 c3 43 15 55 56 56 12 1 34 6 50 12
27 10 27 11 9 25 -24 17 -27 17 -141 -7z"/>
</g>
</svg>
