<?xml version="1.0" standalone="no"?>
<!DOCTYPE svg PUBLIC "-//W3C//DTD SVG 20010904//EN"
 "http://www.w3.org/TR/2001/REC-SVG-20010904/DTD/svg10.dtd">
<svg version="1.0" xmlns="http://www.w3.org/2000/svg"
 width="96.000000pt" height="68.000000pt" viewBox="0 0 96.000000 68.000000"
 preserveAspectRatio="xMidYMid meet">
<metadata>
Created by potrace 1.16, written by Peter Selinger 2001-2019
</metadata>
<g transform="translate(0.000000,68.000000) scale(0.100000,-0.100000)"
fill="#000000" stroke="none">
<path d="M390 618 c0 -7 9 -24 20 -38 11 -14 20 -28 20 -31 0 -3 -37 -9 -82
-13 -127 -10 -178 -18 -178 -27 0 -16 66 -20 155 -10 50 6 158 14 240 17 172
8 199 15 141 39 -33 14 -51 15 -125 6 -113 -14 -113 -14 -107 7 7 23 -4 39
-37 51 -37 14 -47 14 -47 -1z"/>
<path d="M480 484 c-52 -7 -123 -13 -158 -13 -56 -1 -63 -3 -58 -18 3 -10 10
-40 17 -68 19 -80 23 -85 63 -74 18 5 89 11 156 13 l123 4 29 62 c34 77 35 88
2 100 -31 12 -53 11 -174 -6z m132 -19 c2 -3 0 -30 -5 -60 l-10 -55 -47 0
c-26 0 -87 -3 -137 -6 l-90 -7 -7 53 c-4 29 -5 54 -3 56 10 10 289 28 299 19z"/>
<path d="M417 433 l-48 -4 6 -32 c4 -18 8 -32 9 -33 0 -1 29 1 64 4 44 3 62 8
62 19 0 7 7 16 15 19 8 4 15 12 15 20 0 14 -15 15 -123 7z m57 -40 c-24 -18
-69 -13 -69 7 0 10 13 17 40 20 45 6 57 -6 29 -27z"/>
<path d="M430 284 c-41 -13 -83 -24 -92 -24 -9 0 -19 -4 -22 -9 -4 -5 20 -7
55 -4 60 6 61 6 57 -18 -3 -23 -7 -24 -132 -34 -112 -9 -127 -12 -113 -24 17
-13 32 -13 160 5 30 4 47 3 47 -4 0 -14 -82 -63 -153 -91 -32 -13 -55 -26 -53
-29 10 -9 99 19 167 53 38 19 71 35 73 35 3 0 6 -28 8 -62 2 -48 7 -63 18 -63
12 0 16 17 18 78 2 42 6 77 10 77 4 0 30 -18 57 -40 72 -58 122 -80 180 -79
88 1 94 13 14 32 -73 18 -229 85 -229 99 0 5 54 8 121 8 89 0 120 3 117 12 -7
20 -60 28 -117 18 -30 -6 -74 -10 -99 -10 -41 0 -43 1 -40 28 3 23 8 27 38 30
57 5 66 10 44 27 -25 19 -45 17 -134 -11z"/>
</g>
</svg>
