<?xml version="1.0" standalone="no"?>
<!DOCTYPE svg PUBLIC "-//W3C//DTD SVG 20010904//EN"
 "http://www.w3.org/TR/2001/REC-SVG-20010904/DTD/svg10.dtd">
<svg version="1.0" xmlns="http://www.w3.org/2000/svg"
 width="96.000000pt" height="68.000000pt" viewBox="0 0 96.000000 68.000000"
 preserveAspectRatio="xMidYMid meet">
<metadata>
Created by potrace 1.16, written by Peter Selinger 2001-2019
</metadata>
<g transform="translate(0.000000,68.000000) scale(0.100000,-0.100000)"
fill="#000000" stroke="none">
<path d="M548 600 c-15 -22 -26 -40 -23 -40 2 0 29 12 60 27 59 29 66 47 19
50 -24 2 -34 -4 -56 -37z"/>
<path d="M340 619 c0 -18 57 -72 68 -65 16 9 15 41 0 53 -17 14 -68 22 -68 12z"/>
<path d="M407 537 c-178 -14 -266 -24 -264 -31 5 -15 73 -13 307 7 107 9 235
17 284 17 77 0 87 2 76 15 -16 19 -56 18 -403 -8z"/>
</g>
</svg>
