<?xml version="1.0" standalone="no"?>
<!DOCTYPE svg PUBLIC "-//W3C//DTD SVG 20010904//EN"
 "http://www.w3.org/TR/2001/REC-SVG-20010904/DTD/svg10.dtd">
<svg version="1.0" xmlns="http://www.w3.org/2000/svg"
 width="90.000000pt" height="92.000000pt" viewBox="0 0 90.000000 92.000000"
 preserveAspectRatio="xMidYMid meet">
<metadata>
Created by potrace 1.16, written by Peter Selinger 2001-2019
</metadata>
<g transform="translate(0.000000,92.000000) scale(0.100000,-0.100000)"
fill="#000000" stroke="none">
<path d="M510 810 c0 -63 -79 -230 -147 -311 -32 -38 -24 -48 16 -20 46 33 96
96 136 173 44 83 36 86 146 -63 47 -62 83 -102 98 -106 29 -7 113 8 117 22 2
6 -27 23 -64 40 -50 22 -89 51 -155 115 -77 73 -88 88 -83 111 4 19 -1 32 -18
48 -31 29 -46 26 -46 -9z"/>
<path d="M137 804 c-3 -4 -3 -14 2 -23 5 -9 12 -62 15 -118 8 -116 9 -115 -85
-115 l-47 0 5 -73 c3 -41 0 -123 -6 -183 -11 -94 -10 -114 2 -138 14 -26 15
-27 21 -7 6 19 17 22 113 28 69 5 108 4 110 -2 2 -6 10 -19 18 -29 15 -19 15
-18 33 2 17 20 18 40 16 220 -3 178 -5 200 -21 212 -17 13 -58 12 -95 -3 -16
-6 -18 -1 -18 44 l0 51 43 1 c53 1 89 11 94 26 7 20 -40 25 -86 8 -24 -8 -46
-15 -49 -15 -2 0 -2 22 2 49 6 43 4 51 -13 60 -22 12 -45 14 -54 5z m49 -321
c-4 -32 -10 -61 -14 -65 -4 -4 -24 4 -45 17 -46 32 -48 19 -3 -24 l35 -34 -19
-37 c-10 -21 -31 -51 -45 -69 -43 -50 -8 -36 45 19 l50 51 29 -33 c22 -25 33
-30 41 -22 15 14 -9 66 -41 87 -18 13 -19 18 -9 38 l13 23 19 -27 c11 -15 26
-27 35 -27 11 0 14 -14 12 -72 -3 -93 -4 -95 -39 -90 -21 3 -30 10 -30 23 0
19 -46 56 -56 46 -3 -3 2 -19 12 -36 10 -17 16 -33 13 -35 -3 -3 -34 -8 -70
-12 l-65 -6 3 38 c2 22 6 59 9 84 l6 44 19 -24 c16 -21 20 -23 29 -10 14 21 8
33 -24 48 -26 13 -27 17 -24 75 l3 62 50 12 c28 6 54 12 59 12 5 1 6 -24 2
-56z m102 -4 l3 -56 -34 10 c-33 11 -34 12 -25 45 7 24 6 38 -3 48 -11 13 -8
15 22 12 34 -3 34 -3 37 -59z"/>
<path d="M100 502 c0 -16 48 -54 59 -47 17 10 13 33 -8 45 -24 12 -51 13 -51
2z"/>
<path d="M505 540 c-56 -16 -59 -17 -37 -29 22 -12 82 -5 156 16 19 5 19 6 1
19 -23 17 -44 16 -120 -6z"/>
<path d="M670 460 c-8 -5 -38 -12 -67 -16 -51 -6 -61 -12 -45 -28 4 -4 12 -29
17 -54 9 -41 14 -47 34 -44 22 2 23 -1 17 -30 -8 -41 -40 -102 -78 -150 -46
-58 -11 -46 47 16 l50 54 59 -54 c63 -59 89 -65 94 -22 3 22 -3 32 -30 48 -18
11 -50 25 -70 32 -42 12 -46 22 -22 49 20 22 12 46 -18 59 -19 7 -16 9 21 9
34 1 41 4 33 14 -8 9 -5 24 13 54 17 31 20 44 12 51 -21 16 -51 22 -67 12z
m10 -52 c0 -32 -11 -45 -43 -53 -26 -7 -27 -5 -27 28 0 31 3 36 28 40 15 2 30
5 35 6 4 0 7 -9 7 -21z"/>
<path d="M450 430 c-8 -5 -32 -10 -54 -10 -30 0 -36 -3 -28 -12 6 -7 13 -31
17 -53 9 -48 21 -66 41 -58 38 14 0 -77 -65 -156 l-36 -44 32 16 c17 9 45 33
61 53 l30 36 35 -38 c30 -33 37 -36 42 -21 11 26 -2 47 -35 58 -36 13 -36 13
-9 47 l20 27 -20 16 c-20 16 -20 17 9 23 21 4 28 10 24 20 -3 8 0 32 6 52 10
30 10 38 -1 45 -18 12 -50 11 -69 -1z m28 -50 c4 -24 -20 -50 -45 -50 -21 0
-17 68 5 73 28 7 37 2 40 -23z"/>
</g>
</svg>
