<?xml version="1.0" standalone="no"?>
<!DOCTYPE svg PUBLIC "-//W3C//DTD SVG 20010904//EN"
 "http://www.w3.org/TR/2001/REC-SVG-20010904/DTD/svg10.dtd">
<svg version="1.0" xmlns="http://www.w3.org/2000/svg"
 width="96.000000pt" height="68.000000pt" viewBox="0 0 96.000000 68.000000"
 preserveAspectRatio="xMidYMid meet">
<metadata>
Created by potrace 1.16, written by Peter Selinger 2001-2019
</metadata>
<g transform="translate(0.000000,68.000000) scale(0.100000,-0.100000)"
fill="#000000" stroke="none">
<path d="M260 475 c-19 -7 -59 -14 -89 -14 -42 -1 -51 -4 -43 -14 9 -11 19
-43 37 -129 5 -26 35 -41 35 -18 0 6 17 10 38 11 62 2 77 10 80 47 1 18 11 49
22 69 15 28 17 39 7 44 -28 15 -54 16 -87 4z m25 -42 c-2 -10 -7 -35 -10 -55
-5 -31 -10 -38 -36 -43 -39 -9 -47 0 -55 57 -7 51 -4 53 73 57 25 1 30 -3 28
-16z"/>
</g>
</svg>
