<?xml version="1.0" standalone="no"?>
<!DOCTYPE svg PUBLIC "-//W3C//DTD SVG 20010904//EN"
 "http://www.w3.org/TR/2001/REC-SVG-20010904/DTD/svg10.dtd">
<svg version="1.0" xmlns="http://www.w3.org/2000/svg"
 width="96.000000pt" height="68.000000pt" viewBox="0 0 96.000000 68.000000"
 preserveAspectRatio="xMidYMid meet">
<metadata>
Created by potrace 1.16, written by Peter Selinger 2001-2019
</metadata>
<g transform="translate(0.000000,68.000000) scale(0.100000,-0.100000)"
fill="#000000" stroke="none">
<path d="M267 501 l6 -89 -57 -7 c-72 -9 -73 -25 -1 -25 l55 0 0 -49 0 -49
-57 -32 c-32 -17 -68 -33 -80 -37 -30 -7 -29 -21 2 -35 29 -13 50 -5 103 38
l32 27 -1 -39 c0 -22 -3 -57 -7 -79 -8 -41 -15 -45 -60 -31 -17 6 -11 -4 23
-35 l47 -44 19 24 c16 19 19 40 19 130 l1 106 34 25 c42 31 46 46 5 25 -41
-21 -42 -20 -38 27 2 34 7 43 23 46 76 11 84 32 13 32 l-41 0 6 38 c4 20 9 51
13 68 5 26 2 32 -21 42 -14 7 -30 12 -35 12 -5 0 -6 -40 -3 -89z"/>
</g>
</svg>
