<?xml version="1.0" standalone="no"?>
<!DOCTYPE svg PUBLIC "-//W3C//DTD SVG 20010904//EN"
 "http://www.w3.org/TR/2001/REC-SVG-20010904/DTD/svg10.dtd">
<svg version="1.0" xmlns="http://www.w3.org/2000/svg"
 width="96.000000pt" height="68.000000pt" viewBox="0 0 96.000000 68.000000"
 preserveAspectRatio="xMidYMid meet">
<metadata>
Created by potrace 1.16, written by Peter Selinger 2001-2019
</metadata>
<g transform="translate(0.000000,68.000000) scale(0.100000,-0.100000)"
fill="#000000" stroke="none">
<path d="M626 533 c-3 -21 -22 -69 -41 -107 -37 -72 -41 -90 -10 -56 12 13 31
20 57 20 l38 0 0 -49 c0 -26 -5 -63 -11 -81 l-12 -32 -33 36 c-18 20 -38 36
-43 36 -17 0 -13 -8 14 -38 28 -29 41 -65 30 -82 -3 -5 -27 -22 -53 -36 l-47
-25 40 5 c21 3 51 14 66 25 l26 20 37 -35 c33 -32 41 -34 102 -34 36 0 63 4
60 9 -3 4 -27 16 -53 26 -70 27 -114 57 -109 75 38 125 45 175 24 183 -7 2 8
8 35 12 26 4 50 11 53 16 10 18 -50 21 -104 6 -31 -8 -60 -13 -64 -11 -4 3 6
26 22 53 29 47 39 91 21 91 -5 0 -16 2 -24 6 -10 4 -16 -5 -21 -33z"/>
<path d="M460 540 c-14 -4 -42 -8 -62 -9 -47 -1 -59 -19 -16 -23 30 -3 33 -6
31 -36 0 -18 -3 -35 -5 -37 -1 -1 -23 -5 -48 -8 -25 -3 -46 -6 -47 -6 -7 -2
-2 -21 5 -20 30 5 32 -3 32 -111 0 -109 0 -110 -25 -116 -28 -7 -32 -19 -9
-28 26 -10 47 -6 99 18 l50 24 5 -72 c4 -54 9 -71 20 -71 13 0 15 28 18 179 3
185 7 206 44 206 12 0 16 4 12 11 -4 8 -26 10 -61 6 l-54 -6 3 37 c3 34 6 37
36 40 20 2 32 8 29 15 -5 15 -25 18 -57 7z m12 -155 c-2 -16 -5 -31 -6 -32 -6
-6 -75 -7 -76 0 -2 58 6 67 60 64 22 -2 25 -6 22 -32z m-4 -100 c-2 -1 -22 -6
-46 -10 -43 -7 -44 -7 -40 21 3 26 8 30 43 34 36 5 40 3 43 -18 2 -13 2 -25 0
-27z m5 -44 c7 -29 -5 -39 -51 -47 -42 -7 -42 -6 -42 24 0 32 10 39 61 41 18
1 28 -5 32 -18z"/>
<path d="M185 500 c-11 -5 -37 -9 -59 -9 -37 -1 -38 -2 -30 -28 5 -16 9 -89
10 -163 0 -74 1 -141 2 -147 2 -15 32 -18 32 -3 0 6 18 10 39 10 31 0 41 -4
46 -20 8 -26 31 -26 45 0 14 26 19 347 6 360 -12 12 -63 12 -91 0z m49 -46 c3
-9 6 -27 6 -40 0 -21 -5 -24 -35 -24 -19 0 -38 0 -42 0 -10 -1 -16 47 -9 66 8
20 72 19 80 -2z m6 -122 c0 -26 -5 -30 -45 -39 l-45 -10 0 33 c0 34 8 39 68
43 18 1 22 -4 22 -27z m0 -101 c0 -38 0 -38 -50 -48 -47 -10 -50 -9 -50 11 0
52 11 65 54 69 22 2 42 4 44 5 1 1 2 -15 2 -37z"/>
</g>
</svg>
