<?xml version="1.0" standalone="no"?>
<!DOCTYPE svg PUBLIC "-//W3C//DTD SVG 20010904//EN"
 "http://www.w3.org/TR/2001/REC-SVG-20010904/DTD/svg10.dtd">
<svg version="1.0" xmlns="http://www.w3.org/2000/svg"
 width="96.000000pt" height="68.000000pt" viewBox="0 0 96.000000 68.000000"
 preserveAspectRatio="xMidYMid meet">
<metadata>
Created by potrace 1.16, written by Peter Selinger 2001-2019
</metadata>
<g transform="translate(0.000000,68.000000) scale(0.100000,-0.100000)"
fill="#000000" stroke="none">
<path d="M299 493 c-14 -3 -15 -11 -8 -50 5 -25 7 -49 4 -53 -3 -4 -35 -11
-72 -15 -88 -9 -114 -15 -107 -26 7 -11 77 -11 127 0 20 5 37 7 37 4 0 -18
-51 -81 -107 -133 -36 -33 -63 -60 -59 -60 24 0 102 49 137 87 l42 46 -8 -89
c-11 -118 -10 -143 4 -157 10 -9 16 -8 27 7 10 15 14 52 14 145 l0 125 28 -27
c34 -32 52 -34 52 -6 0 13 -11 25 -35 35 -42 17 -47 44 -7 44 39 0 73 11 66
21 -3 5 -26 9 -50 9 l-46 0 7 39 c5 32 3 41 -12 48 -10 5 -25 8 -34 6z"/>
</g>
</svg>
