<?xml version="1.0" standalone="no"?>
<!DOCTYPE svg PUBLIC "-//W3C//DTD SVG 20010904//EN"
 "http://www.w3.org/TR/2001/REC-SVG-20010904/DTD/svg10.dtd">
<svg version="1.0" xmlns="http://www.w3.org/2000/svg"
 width="90.000000pt" height="92.000000pt" viewBox="0 0 90.000000 92.000000"
 preserveAspectRatio="xMidYMid meet">
<metadata>
Created by potrace 1.16, written by Peter Selinger 2001-2019
</metadata>
<g transform="translate(0.000000,92.000000) scale(0.100000,-0.100000)"
fill="#000000" stroke="none">
<path d="M500 868 c0 -26 -49 -135 -81 -179 -36 -51 2 -33 57 27 41 44 57 54
73 49 19 -6 167 10 197 22 8 3 14 9 14 14 0 19 -58 21 -134 6 -44 -10 -81 -16
-83 -14 -2 2 7 17 19 32 l22 28 -23 18 c-33 27 -61 25 -61 -3z"/>
<path d="M230 843 c0 -25 -46 -96 -104 -160 -26 -29 -44 -53 -38 -53 13 0 81
46 117 80 26 24 41 28 110 34 43 3 84 11 89 16 17 17 -15 31 -54 24 -19 -3
-48 -8 -65 -11 l-30 -5 23 17 c36 26 26 54 -25 69 -18 6 -23 3 -23 -11z"/>
<path d="M540 722 c0 -11 81 -92 92 -92 4 0 12 9 18 20 16 31 -3 56 -54 69
-54 13 -56 13 -56 3z"/>
<path d="M258 671 c36 -35 57 -39 66 -14 9 23 -5 34 -55 40 l-44 5 33 -31z"/>
<path d="M235 594 c8 -45 -3 -54 -63 -54 -31 0 -42 -4 -39 -12 2 -8 23 -13 56
-13 41 0 52 -4 57 -19 10 -29 -10 -39 -85 -40 -39 0 -71 -3 -71 -6 0 -3 7 -13
15 -23 7 -11 16 -38 20 -60 9 -60 25 -107 36 -107 5 0 9 5 9 10 0 6 16 10 35
10 32 0 35 -3 35 -29 0 -28 -3 -29 -62 -40 -35 -6 -84 -14 -110 -17 -54 -7
-60 -19 -23 -36 20 -9 41 -8 98 5 40 10 76 17 80 17 4 0 5 -21 2 -47 -4 -28
-2 -61 5 -77 17 -45 34 -17 40 67 l5 72 75 11 c41 7 77 12 79 13 2 0 -3 8 -10
17 -13 16 -55 15 -124 -2 -23 -6 -25 -3 -25 25 0 33 12 38 82 33 24 -2 28 4
49 66 12 37 26 72 30 78 6 7 2 17 -9 26 -33 29 -55 36 -86 27 -45 -13 -56 -11
-56 10 0 20 9 25 73 36 55 9 42 30 -17 28 -37 -1 -46 2 -42 12 5 14 -37 55
-56 55 -6 0 -7 -15 -3 -36z m135 -167 c0 -21 -4 -23 -47 -20 -27 1 -49 2 -51
2 -1 1 2 10 8 21 8 15 21 20 50 20 35 0 40 -3 40 -23z m-120 -6 c0 -24 -5 -27
-53 -36 -35 -7 -37 -6 -37 18 0 22 5 26 38 30 20 2 40 4 45 5 4 1 7 -7 7 -17z
m110 -50 c0 -30 -14 -41 -51 -41 -32 0 -39 4 -39 19 0 11 8 22 18 24 31 8 72
7 72 -2z m-122 -33 c-2 -18 -10 -24 -35 -26 -29 -3 -33 0 -33 20 0 20 6 24 36
26 32 2 35 0 32 -20z"/>
<path d="M581 553 c-52 -13 -67 -13 -87 -2 -13 7 -25 10 -26 8 -2 -2 -1 -90 2
-196 6 -216 10 -230 86 -268 56 -29 193 -28 249 1 45 24 47 32 25 144 l-13 65
-18 -65 c-10 -37 -26 -72 -38 -81 -47 -38 -183 -32 -225 11 -19 19 -21 32 -20
133 0 62 4 133 8 158 l7 46 54 12 c30 7 59 10 65 6 13 -8 13 -55 -1 -110 -14
-56 -28 -69 -63 -55 -14 5 -26 7 -26 5 0 -17 53 -85 65 -85 24 0 53 36 63 77
45 182 44 177 21 196 -25 20 -42 20 -128 0z"/>
</g>
</svg>
