<?xml version="1.0" standalone="no"?>
<!DOCTYPE svg PUBLIC "-//W3C//DTD SVG 20010904//EN"
 "http://www.w3.org/TR/2001/REC-SVG-20010904/DTD/svg10.dtd">
<svg version="1.0" xmlns="http://www.w3.org/2000/svg"
 width="90.000000pt" height="92.000000pt" viewBox="0 0 90.000000 92.000000"
 preserveAspectRatio="xMidYMid meet">
<metadata>
Created by potrace 1.16, written by Peter Selinger 2001-2019
</metadata>
<g transform="translate(0.000000,92.000000) scale(0.100000,-0.100000)"
fill="#000000" stroke="none">
<path d="M714 803 c-10 -51 -35 -111 -50 -123 -20 -17 -18 -27 13 -53 15 -12
44 -37 65 -56 42 -37 62 -33 56 10 -2 18 -17 31 -55 49 -29 14 -53 28 -53 33
0 4 17 26 38 50 67 75 67 75 47 97 -26 29 -53 26 -61 -7z"/>
<path d="M566 812 c-3 -5 -10 -31 -16 -57 -6 -27 -18 -64 -26 -82 -9 -18 -14
-36 -12 -41 6 -18 101 -93 112 -89 6 2 12 15 14 29 3 22 -4 28 -48 47 -34 15
-48 26 -43 34 4 7 24 36 45 66 30 43 35 57 26 68 -17 21 -46 34 -52 25z"/>
<path d="M432 793 c-5 -10 -13 -36 -16 -58 -4 -22 -16 -55 -27 -73 -10 -18
-19 -39 -18 -45 1 -18 87 -90 99 -82 23 14 9 45 -30 65 -22 11 -40 23 -40 26
0 3 18 32 40 64 52 76 54 84 35 104 -21 21 -32 20 -43 -1z"/>
<path d="M235 773 c-22 -8 -64 -15 -93 -15 -50 0 -52 -1 -45 -21 4 -12 8 -101
8 -197 0 -197 -9 -247 -62 -355 l-35 -70 37 35 c43 40 82 116 91 177 6 42 16
53 29 33 12 -20 32 -9 73 41 l42 52 0 -106 c0 -58 -5 -118 -10 -132 -10 -26
-13 -27 -58 -20 l-47 6 52 -52 c51 -52 52 -53 73 -34 34 30 39 78 41 374 2
233 -1 285 -12 292 -19 12 -37 10 -84 -8z m45 -114 c0 -64 -2 -70 -17 -64 -10
4 -37 10 -60 12 -42 5 -43 7 -43 42 0 74 6 81 66 81 l54 0 0 -71z m-24 -123
c22 -1 25 -5 22 -35 -3 -31 -10 -38 -60 -65 -31 -17 -59 -28 -62 -25 -4 3 -3
45 0 93 l7 86 34 -26 c19 -14 46 -27 59 -28z"/>
<path d="M506 527 c-3 -13 -19 -42 -36 -65 -29 -40 -32 -42 -70 -36 -44 7 -44
7 -30 -32 6 -15 15 -84 20 -153 7 -83 15 -130 24 -139 12 -12 15 -11 21 7 6
19 14 21 78 21 40 0 95 3 122 6 l51 6 18 -41 c21 -45 27 -48 50 -25 30 29 37
54 46 162 5 59 12 126 16 148 6 39 4 42 -29 63 l-35 21 -118 -20 c-161 -27
-169 -26 -111 11 51 34 57 47 29 72 -25 23 -39 21 -46 -6z m228 -123 c8 -20 8
-208 0 -228 -5 -12 -10 -13 -26 -5 -14 8 -52 8 -132 0 -62 -6 -117 -11 -124
-11 -9 0 -12 32 -12 114 l0 114 88 12 c48 6 94 13 102 15 48 9 98 4 104 -11z"/>
<path d="M606 365 c-19 -44 -34 -50 -81 -30 -50 20 -54 14 -9 -20 l36 -27 -48
-49 c-57 -58 -47 -63 26 -14 29 19 54 35 57 35 3 0 23 -14 45 -32 32 -25 42
-28 49 -17 17 28 9 49 -27 67 l-36 18 31 30 c36 34 39 49 12 64 -31 16 -40 12
-55 -25z"/>
</g>
</svg>
