<?xml version="1.0" standalone="no"?>
<!DOCTYPE svg PUBLIC "-//W3C//DTD SVG 20010904//EN"
 "http://www.w3.org/TR/2001/REC-SVG-20010904/DTD/svg10.dtd">
<svg version="1.0" xmlns="http://www.w3.org/2000/svg"
 width="96.000000pt" height="68.000000pt" viewBox="0 0 96.000000 68.000000"
 preserveAspectRatio="xMidYMid meet">
<metadata>
Created by potrace 1.16, written by Peter Selinger 2001-2019
</metadata>
<g transform="translate(0.000000,68.000000) scale(0.100000,-0.100000)"
fill="#000000" stroke="none">
<path d="M540 578 c0 -45 -9 -55 -54 -63 -31 -6 -35 -10 -22 -17 9 -5 25 -6
36 -3 22 7 25 -2 10 -40 -9 -23 -8 -25 9 -15 11 5 23 19 26 31 9 26 43 39 106
39 27 0 49 4 49 10 0 15 -46 23 -85 16 -35 -7 -35 -7 -23 19 13 28 6 39 -29
50 -21 6 -23 3 -23 -27z"/>
<path d="M270 575 c0 -3 7 -17 16 -31 9 -13 14 -27 10 -31 -3 -4 -36 -9 -74
-12 l-67 -6 27 -19 c23 -15 33 -16 59 -7 49 17 69 14 79 -14 13 -35 28 -31 26
8 -1 29 2 32 32 35 17 2 32 8 32 14 0 6 -13 8 -34 4 -33 -6 -35 -5 -38 26 -3
29 -7 33 -35 36 -18 2 -33 1 -33 -3z"/>
</g>
</svg>
