<?xml version="1.0" standalone="no"?>
<!DOCTYPE svg PUBLIC "-//W3C//DTD SVG 20010904//EN"
 "http://www.w3.org/TR/2001/REC-SVG-20010904/DTD/svg10.dtd">
<svg version="1.0" xmlns="http://www.w3.org/2000/svg"
 width="96.000000pt" height="68.000000pt" viewBox="0 0 96.000000 68.000000"
 preserveAspectRatio="xMidYMid meet">
<metadata>
Created by potrace 1.16, written by Peter Selinger 2001-2019
</metadata>
<g transform="translate(0.000000,68.000000) scale(0.100000,-0.100000)"
fill="#000000" stroke="none">
<path d="M588 478 c2 -51 6 -95 8 -97 2 -2 10 1 17 8 9 6 17 42 21 88 7 79 2
92 -35 93 -13 0 -15 -14 -11 -92z"/>
<path d="M719 498 c-6 -13 -21 -33 -33 -46 l-21 -23 28 10 c80 31 109 61 71
75 -26 10 -33 7 -45 -16z"/>
<path d="M480 481 c0 -13 40 -61 51 -61 17 0 9 49 -10 60 -24 12 -41 13 -41 1z"/>
</g>
</svg>
