<?xml version="1.0" standalone="no"?>
<!DOCTYPE svg PUBLIC "-//W3C//DTD SVG 20010904//EN"
 "http://www.w3.org/TR/2001/REC-SVG-20010904/DTD/svg10.dtd">
<svg version="1.0" xmlns="http://www.w3.org/2000/svg"
 width="96.000000pt" height="68.000000pt" viewBox="0 0 96.000000 68.000000"
 preserveAspectRatio="xMidYMid meet">
<metadata>
Created by potrace 1.16, written by Peter Selinger 2001-2019
</metadata>
<g transform="translate(0.000000,68.000000) scale(0.100000,-0.100000)"
fill="#000000" stroke="none">
<path d="M196 255 c-4 -19 -27 -64 -51 -100 -25 -36 -40 -65 -34 -65 6 0 37
27 68 60 l58 61 171 -85 c93 -47 186 -88 207 -92 38 -7 225 14 225 25 0 4 -62
15 -137 25 -140 19 -192 33 -365 101 -89 36 -96 40 -86 59 8 15 7 22 -8 33
-29 21 -41 15 -48 -22z"/>
</g>
</svg>
