<?xml version="1.0" standalone="no"?>
<!DOCTYPE svg PUBLIC "-//W3C//DTD SVG 20010904//EN"
 "http://www.w3.org/TR/2001/REC-SVG-20010904/DTD/svg10.dtd">
<svg version="1.0" xmlns="http://www.w3.org/2000/svg"
 width="96.000000pt" height="68.000000pt" viewBox="0 0 96.000000 68.000000"
 preserveAspectRatio="xMidYMid meet">
<metadata>
Created by potrace 1.16, written by Peter Selinger 2001-2019
</metadata>
<g transform="translate(0.000000,68.000000) scale(0.100000,-0.100000)"
fill="#000000" stroke="none">
<path d="M463 344 c-13 -28 -41 -53 -107 -96 -48 -32 -95 -58 -104 -58 -8 0
-13 -3 -9 -6 8 -8 104 24 147 49 19 11 51 33 70 49 19 15 42 28 52 28 9 0 59
-25 110 -55 95 -57 132 -65 198 -46 24 7 23 9 -15 19 -22 6 -56 14 -75 17 -19
4 -67 23 -107 41 -40 19 -76 34 -82 34 -5 0 -13 9 -16 20 -3 11 -15 25 -26 30
-16 9 -21 6 -36 -26z"/>
</g>
</svg>
