<?xml version="1.0" standalone="no"?>
<!DOCTYPE svg PUBLIC "-//W3C//DTD SVG 20010904//EN"
 "http://www.w3.org/TR/2001/REC-SVG-20010904/DTD/svg10.dtd">
<svg version="1.0" xmlns="http://www.w3.org/2000/svg"
 width="90.000000pt" height="92.000000pt" viewBox="0 0 90.000000 92.000000"
 preserveAspectRatio="xMidYMid meet">
<metadata>
Created by potrace 1.16, written by Peter Selinger 2001-2019
</metadata>
<g transform="translate(0.000000,92.000000) scale(0.100000,-0.100000)"
fill="#000000" stroke="none">
<path d="M360 849 c0 -8 19 -39 40 -69 l40 -55 -62 -6 c-224 -23 -298 -33
-298 -41 0 -5 15 -15 34 -23 30 -13 43 -12 113 4 43 11 97 22 120 24 l41 5
-13 -46 c-17 -56 -76 -143 -123 -182 -35 -29 -35 -29 -18 -55 14 -21 23 -25
39 -20 52 15 172 43 175 40 8 -7 -173 -163 -251 -216 -104 -69 -87 -79 32 -18
127 65 225 155 339 312 46 61 46 84 2 107 -28 15 -36 7 -43 -40 -6 -49 -43
-107 -72 -114 -55 -13 -155 -18 -155 -8 0 6 36 52 80 102 71 81 78 93 67 110
-6 11 -16 21 -22 21 -43 6 108 18 226 18 80 1 149 4 152 8 12 12 -25 42 -58
49 -18 3 -57 1 -86 -5 -30 -5 -80 -13 -111 -17 -52 -6 -56 -5 -52 13 13 47
-29 89 -108 108 -20 5 -28 3 -28 -6z"/>
<path d="M607 473 c-4 -3 -7 -18 -7 -32 0 -14 -10 -42 -21 -61 -33 -54 -155
-166 -247 -227 -46 -31 -81 -57 -79 -60 10 -9 131 48 193 91 36 25 67 46 70
46 3 0 41 -34 85 -76 44 -41 85 -74 92 -72 6 3 13 21 15 41 3 32 -1 39 -39 67
-23 16 -45 30 -49 30 -4 0 -24 7 -44 15 l-37 16 71 82 c38 45 70 87 70 94 0
12 -46 53 -60 53 -4 0 -10 -3 -13 -7z"/>
</g>
</svg>
