<?xml version="1.0" standalone="no"?>
<!DOCTYPE svg PUBLIC "-//W3C//DTD SVG 20010904//EN"
 "http://www.w3.org/TR/2001/REC-SVG-20010904/DTD/svg10.dtd">
<svg version="1.0" xmlns="http://www.w3.org/2000/svg"
 width="96.000000pt" height="68.000000pt" viewBox="0 0 96.000000 68.000000"
 preserveAspectRatio="xMidYMid meet">
<metadata>
Created by potrace 1.16, written by Peter Selinger 2001-2019
</metadata>
<g transform="translate(0.000000,68.000000) scale(0.100000,-0.100000)"
fill="#000000" stroke="none">
<path d="M380 606 c0 -4 13 -21 30 -39 l30 -32 -92 -8 c-78 -7 -93 -6 -100 7
-5 9 -13 16 -17 16 -14 0 -64 -108 -58 -124 11 -27 36 -17 62 24 22 36 30 40
64 40 22 0 46 3 55 6 50 19 -15 -55 -72 -82 -20 -9 -31 -19 -24 -22 23 -7 138
59 156 89 13 22 25 29 47 29 26 0 29 -3 29 -35 0 -46 22 -57 113 -53 95 4 94
23 -1 23 l-74 0 6 34 c3 18 7 35 9 37 1 2 30 6 62 10 l59 7 -18 -27 c-9 -15
-16 -30 -13 -32 2 -3 30 1 62 8 49 11 59 17 60 36 1 12 -1 20 -3 17 -3 -3 -17
2 -30 11 -23 15 -36 15 -126 5 -71 -9 -101 -10 -104 -2 -9 28 -41 52 -74 58
-21 3 -38 3 -38 -1z"/>
<path d="M535 379 c-16 -5 -45 -8 -63 -7 l-33 3 -2 -105 c-2 -104 -2 -105 21
-102 58 8 1 -71 -88 -122 -52 -30 -34 -34 25 -7 49 22 111 80 125 115 6 17 14
24 25 20 11 -5 15 -21 15 -60 0 -62 21 -90 78 -100 68 -13 192 12 192 38 0 4
-10 23 -21 43 l-22 36 -18 -41 -18 -41 -73 3 -73 3 1 58 c1 32 4 60 7 63 3 3
14 0 26 -7 11 -7 24 -10 28 -5 4 4 10 51 13 104 5 79 3 99 -9 110 -17 14 -92
15 -136 1z m81 -23 c18 -14 18 -15 -8 -25 -15 -6 -50 -13 -78 -17 -46 -6 -50
-5 -50 14 0 17 8 22 38 27 20 4 42 8 47 10 20 7 32 5 51 -9z m14 -77 c0 -16
-8 -19 -50 -21 -102 -4 -105 -3 -105 12 0 11 19 18 70 26 79 12 85 11 85 -17z
m0 -59 c0 -16 -7 -20 -34 -20 -18 0 -54 -3 -80 -6 -42 -6 -46 -5 -46 14 0 22
18 27 113 30 41 2 47 -1 47 -18z"/>
<path d="M280 340 c10 -35 9 -35 -60 -49 l-45 -9 53 -1 c48 -1 52 -3 52 -25 0
-28 -8 -32 -86 -41 -32 -4 -66 -11 -74 -15 -28 -15 40 -23 93 -11 27 6 52 10
54 7 8 -8 -51 -94 -78 -112 -42 -28 -46 -48 -6 -28 34 18 87 67 104 98 10 18
13 17 43 -17 35 -40 48 -45 57 -21 6 17 -24 50 -53 56 -11 2 -20 13 -22 26 -3
20 1 22 40 22 51 0 83 15 55 26 -9 3 -33 3 -53 0 -33 -7 -35 -6 -32 16 2 17
12 25 41 32 46 12 48 26 3 26 -28 0 -35 4 -38 23 -2 15 -11 23 -30 25 -26 3
-27 2 -18 -28z"/>
</g>
</svg>
