<?xml version="1.0" standalone="no"?>
<!DOCTYPE svg PUBLIC "-//W3C//DTD SVG 20010904//EN"
 "http://www.w3.org/TR/2001/REC-SVG-20010904/DTD/svg10.dtd">
<svg version="1.0" xmlns="http://www.w3.org/2000/svg"
 width="96.000000pt" height="68.000000pt" viewBox="0 0 96.000000 68.000000"
 preserveAspectRatio="xMidYMid meet">
<metadata>
Created by potrace 1.16, written by Peter Selinger 2001-2019
</metadata>
<g transform="translate(0.000000,68.000000) scale(0.100000,-0.100000)"
fill="#000000" stroke="none">
<path d="M244 548 c4 -29 9 -69 12 -90 6 -41 4 -42 -83 -53 -29 -4 -53 -10
-53 -15 0 -13 47 -21 88 -14 36 6 40 4 43 -17 9 -52 0 -63 -75 -96 -41 -18
-79 -33 -85 -33 -18 0 -12 -18 11 -34 32 -23 42 -20 98 20 l50 36 0 -54 c0
-72 -8 -82 -56 -74 l-39 8 47 -46 c26 -25 51 -46 56 -46 5 0 16 8 25 18 14 15
17 40 17 125 l0 106 30 18 c44 26 36 47 -9 23 -16 -8 -18 -5 -17 23 1 29 5 33
44 41 23 6 42 16 42 23 0 13 -14 16 -61 13 -25 -1 -25 0 -18 47 4 26 11 60 14
74 6 23 3 28 -26 38 -58 20 -62 17 -55 -41z"/>
<path d="M496 578 c-2 -7 -10 -35 -16 -61 -7 -26 -28 -72 -46 -102 -37 -63
-32 -71 15 -20 17 19 39 35 49 35 9 0 68 10 130 22 107 20 112 22 88 35 -23
12 -38 11 -116 -8 -50 -12 -92 -20 -95 -17 -3 3 6 25 20 50 14 26 23 53 19 62
-7 19 -43 22 -48 4z"/>
<path d="M538 356 c4 -50 3 -54 -21 -60 -14 -3 -33 -9 -43 -13 -14 -5 -16 -2
-10 20 5 20 2 29 -13 37 -30 15 -32 13 -27 -30 5 -43 -4 -55 -47 -65 -46 -12
-43 -27 4 -24 l43 4 -2 -45 c-6 -84 53 -115 214 -114 110 1 184 16 209 44 15
17 15 21 -3 60 -20 44 -25 44 -36 -2 -11 -47 -55 -61 -186 -61 -63 0 -127 5
-142 11 -26 11 -28 16 -28 66 0 35 5 58 15 66 8 7 15 10 15 6 0 -4 14 0 30 9
l30 16 0 -45 c0 -46 15 -70 24 -39 2 10 7 36 11 59 6 36 10 42 50 56 25 9 47
13 50 9 2 -5 -2 -30 -10 -57 -8 -26 -12 -50 -9 -53 12 -12 99 123 89 139 -9
15 -87 11 -109 -5 -11 -8 -29 -15 -39 -15 -16 0 -19 5 -14 30 5 23 2 32 -13
40 -32 17 -37 12 -32 -44z"/>
</g>
</svg>
