<?xml version="1.0" standalone="no"?>
<!DOCTYPE svg PUBLIC "-//W3C//DTD SVG 20010904//EN"
 "http://www.w3.org/TR/2001/REC-SVG-20010904/DTD/svg10.dtd">
<svg version="1.0" xmlns="http://www.w3.org/2000/svg"
 width="90.000000pt" height="92.000000pt" viewBox="0 0 90.000000 92.000000"
 preserveAspectRatio="xMidYMid meet">
<metadata>
Created by potrace 1.16, written by Peter Selinger 2001-2019
</metadata>
<g transform="translate(0.000000,92.000000) scale(0.100000,-0.100000)"
fill="#000000" stroke="none">
<path d="M205 838 c-2 -7 -6 -30 -10 -51 -9 -53 -76 -180 -141 -266 -30 -41
-53 -76 -50 -78 7 -7 71 47 107 89 17 21 36 38 41 38 14 0 4 -265 -13 -335
-10 -43 -9 -56 5 -90 16 -36 18 -38 30 -22 13 17 24 148 28 348 1 73 -2 103
-14 120 -14 22 -12 28 25 99 22 41 47 83 56 93 15 18 14 21 -12 43 -31 27 -46
30 -52 12z"/>
<path d="M615 815 c-60 -13 -125 -24 -142 -24 -18 -1 -33 -6 -33 -11 0 -19 47
-29 84 -19 20 6 40 7 45 4 11 -6 1 -47 -23 -93 -15 -29 -18 -30 -41 -20 -33
15 -37 9 -24 -38 7 -25 9 -73 4 -134 -11 -150 -11 -169 8 -187 16 -16 17 -16
17 0 0 9 5 17 10 17 20 0 9 -38 -20 -76 -17 -22 -52 -58 -78 -82 -38 -35 -42
-42 -22 -36 32 9 103 57 165 111 40 36 46 45 35 58 -7 8 -20 16 -29 16 -26 2
60 18 100 18 27 1 40 -5 51 -21 13 -19 18 -21 31 -10 13 11 16 43 19 170 2 86
7 165 12 174 6 14 0 21 -28 35 -34 16 -40 16 -108 0 -93 -22 -92 -22 -61 11
46 49 57 70 44 86 -12 14 -6 16 143 28 38 4 43 21 11 36 -32 15 -36 15 -170
-13z m95 -217 l0 -43 -42 0 c-24 -1 -64 -4 -90 -9 l-48 -8 0 39 c0 39 1 40 48
50 26 6 66 11 90 12 l42 1 0 -42z m0 -77 c0 -5 3 -21 6 -37 l6 -29 -59 0 c-32
0 -75 -4 -95 -8 l-38 -8 0 34 0 34 68 10 c92 14 112 14 112 4z m8 -103 c0 -57
-5 -63 -50 -63 -24 0 -67 -4 -96 -9 l-53 -8 2 41 c2 32 6 40 18 37 13 -4 70 4
173 23 4 0 7 -9 6 -21z"/>
<path d="M274 658 c15 -53 17 -119 6 -203 -14 -113 -14 -123 1 -141 11 -13 23
-4 86 58 40 40 73 76 73 80 0 5 -25 -6 -55 -23 l-55 -31 0 79 0 79 52 10 c28
5 53 14 55 20 7 20 -27 24 -64 9 -19 -8 -37 -15 -39 -15 -1 0 0 15 3 34 4 27
1 36 -18 50 -34 23 -53 21 -45 -6z"/>
<path d="M723 193 c35 -43 70 -78 78 -78 9 0 15 13 17 37 3 31 -2 40 -30 62
-34 25 -98 56 -118 56 -6 0 18 -35 53 -77z"/>
</g>
</svg>
