<?xml version="1.0" standalone="no"?>
<!DOCTYPE svg PUBLIC "-//W3C//DTD SVG 20010904//EN"
 "http://www.w3.org/TR/2001/REC-SVG-20010904/DTD/svg10.dtd">
<svg version="1.0" xmlns="http://www.w3.org/2000/svg"
 width="96.000000pt" height="68.000000pt" viewBox="0 0 96.000000 68.000000"
 preserveAspectRatio="xMidYMid meet">
<metadata>
Created by potrace 1.16, written by Peter Selinger 2001-2019
</metadata>
<g transform="translate(0.000000,68.000000) scale(0.100000,-0.100000)"
fill="#000000" stroke="none">
<path d="M533 437 c-68 -13 -70 -32 -3 -24 27 3 51 3 54 -1 2 -4 -9 -22 -24
-39 -29 -32 -29 -32 -65 -17 -48 20 -69 12 -27 -10 17 -9 32 -21 32 -26 0 -14
-76 -67 -153 -108 -53 -28 -57 -32 -27 -27 48 9 112 38 167 75 25 17 52 29 60
26 7 -3 40 -24 73 -46 55 -37 63 -40 127 -39 113 1 119 12 23 38 -89 24 -200
69 -200 81 0 4 23 29 51 55 48 45 50 49 33 62 -20 15 -46 15 -121 0z"/>
</g>
</svg>
