<?xml version="1.0" standalone="no"?>
<!DOCTYPE svg PUBLIC "-//W3C//DTD SVG 20010904//EN"
 "http://www.w3.org/TR/2001/REC-SVG-20010904/DTD/svg10.dtd">
<svg version="1.0" xmlns="http://www.w3.org/2000/svg"
 width="96.000000pt" height="68.000000pt" viewBox="0 0 96.000000 68.000000"
 preserveAspectRatio="xMidYMid meet">
<metadata>
Created by potrace 1.16, written by Peter Selinger 2001-2019
</metadata>
<g transform="translate(0.000000,68.000000) scale(0.100000,-0.100000)"
fill="#000000" stroke="none">
<path d="M216 563 c-3 -3 -1 -16 5 -30 5 -13 9 -46 9 -73 0 -48 -1 -49 -35
-56 -19 -3 -49 -4 -65 -2 -33 5 -36 1 -15 -25 7 -10 19 -41 25 -68 7 -30 17
-49 26 -49 8 0 14 5 14 10 0 6 11 10 25 10 23 0 25 -3 25 -49 0 -44 2 -49 20
-44 16 4 20 14 20 49 0 47 1 48 63 59 21 3 35 10 32 16 -4 5 3 24 14 43 12 18
21 40 21 49 0 19 -41 30 -87 21 l-35 -7 4 69 3 68 -32 7 c-18 3 -34 4 -37 2z
m116 -198 c-5 -37 -19 -55 -43 -55 -15 0 -19 7 -19 38 0 46 6 54 40 50 21 -3
25 -7 22 -33z m-102 -19 c0 -39 -3 -44 -25 -48 -21 -4 -26 -1 -31 21 -3 14 -7
32 -10 39 -2 7 6 17 19 22 41 16 47 12 47 -34z"/>
</g>
</svg>
