<?xml version="1.0" standalone="no"?>
<!DOCTYPE svg PUBLIC "-//W3C//DTD SVG 20010904//EN"
 "http://www.w3.org/TR/2001/REC-SVG-20010904/DTD/svg10.dtd">
<svg version="1.0" xmlns="http://www.w3.org/2000/svg"
 width="96.000000pt" height="68.000000pt" viewBox="0 0 96.000000 68.000000"
 preserveAspectRatio="xMidYMid meet">
<metadata>
Created by potrace 1.16, written by Peter Selinger 2001-2019
</metadata>
<g transform="translate(0.000000,68.000000) scale(0.100000,-0.100000)"
fill="#000000" stroke="none">
<path d="M511 455 c-63 -21 -64 -27 -1 -23 l55 3 3 -47 c4 -59 27 -78 93 -78
58 0 79 7 79 27 0 12 -13 14 -67 12 -65 -4 -68 -3 -71 19 -2 13 4 35 13 49 10
14 13 29 8 34 -16 16 -68 18 -112 4z"/>
</g>
</svg>
