<?xml version="1.0" standalone="no"?>
<!DOCTYPE svg PUBLIC "-//W3C//DTD SVG 20010904//EN"
 "http://www.w3.org/TR/2001/REC-SVG-20010904/DTD/svg10.dtd">
<svg version="1.0" xmlns="http://www.w3.org/2000/svg"
 width="90.000000pt" height="92.000000pt" viewBox="0 0 90.000000 92.000000"
 preserveAspectRatio="xMidYMid meet">
<metadata>
Created by potrace 1.16, written by Peter Selinger 2001-2019
</metadata>
<g transform="translate(0.000000,92.000000) scale(0.100000,-0.100000)"
fill="#000000" stroke="none">
<path d="M498 806 l5 -75 -62 -7 c-77 -8 -76 -28 1 -32 53 -3 56 -4 60 -32 3
-16 2 -34 -2 -40 -7 -11 -124 -30 -192 -30 -56 0 -62 -15 -15 -35 23 -9 45
-11 69 -6 l36 9 30 -74 30 -74 -37 -1 c-20 0 -45 -4 -56 -9 -18 -7 -18 -9 9
-19 17 -7 47 -9 73 -5 34 5 43 3 43 -9 0 -8 3 -28 6 -44 l6 -30 -76 -12 c-42
-6 -93 -11 -112 -11 -45 0 -41 -20 5 -36 25 -8 47 -8 90 2 96 23 91 29 91 -95
0 -61 4 -112 9 -115 12 -8 31 72 31 127 0 25 3 59 6 76 l7 31 118 0 c95 0 119
3 119 14 0 7 -16 21 -36 31 -29 14 -43 15 -85 6 -27 -6 -68 -11 -89 -11 l-39
0 11 30 c7 23 7 34 -2 45 -11 13 -8 15 18 15 45 0 132 20 132 30 0 21 -40 31
-78 20 -55 -15 -55 -14 -12 43 43 56 46 67 28 85 -9 9 12 12 95 12 88 0 107 3
107 15 0 8 -14 22 -31 31 -28 14 -43 14 -113 5 -45 -7 -96 -14 -114 -16 l-33
-4 3 42 4 42 62 13 c66 15 76 26 39 43 -17 8 -35 8 -62 0 l-38 -10 6 58 c7 65
-2 81 -43 81 l-27 0 5 -74z m82 -257 c0 -17 -10 -53 -21 -80 -17 -39 -26 -49
-45 -49 -19 0 -24 5 -24 25 0 35 -25 82 -51 96 -11 6 -18 14 -14 17 5 6 62 14
138 21 13 1 17 -7 17 -30z"/>
<path d="M226 804 c-3 -9 -6 -26 -6 -39 0 -39 -79 -180 -152 -271 -38 -47 -67
-89 -64 -91 8 -8 80 52 124 103 22 24 43 44 47 44 11 0 -2 -308 -15 -355 -9
-32 -8 -47 5 -77 37 -89 53 -22 57 234 2 172 0 199 -14 215 -16 18 -14 24 38
113 l55 95 -26 22 c-31 27 -41 28 -49 7z"/>
</g>
</svg>
