<?xml version="1.0" standalone="no"?>
<!DOCTYPE svg PUBLIC "-//W3C//DTD SVG 20010904//EN"
 "http://www.w3.org/TR/2001/REC-SVG-20010904/DTD/svg10.dtd">
<svg version="1.0" xmlns="http://www.w3.org/2000/svg"
 width="96.000000pt" height="68.000000pt" viewBox="0 0 96.000000 68.000000"
 preserveAspectRatio="xMidYMid meet">
<metadata>
Created by potrace 1.16, written by Peter Selinger 2001-2019
</metadata>
<g transform="translate(0.000000,68.000000) scale(0.100000,-0.100000)"
fill="#000000" stroke="none">
<path d="M457 541 l6 -78 -99 -2 c-93 -2 -125 -8 -96 -18 15 -6 16 -93 1 -163
-18 -82 -56 -169 -100 -228 -47 -62 -30 -59 37 8 58 58 105 179 120 310 6 58
7 58 43 64 20 4 49 9 64 12 27 6 28 4 25 -27 -2 -27 -9 -35 -33 -43 -66 -19
-71 -26 -17 -23 46 4 54 1 64 -17 6 -12 16 -24 22 -28 17 -12 131 -9 163 3 25
9 26 11 10 21 -13 7 -38 7 -79 -1 -42 -7 -66 -7 -80 0 -31 17 -16 32 45 47 31
8 57 18 57 23 0 12 -77 11 -85 -1 -4 -6 -10 -8 -15 -5 -13 8 -9 62 4 62 6 0
47 4 90 8 85 8 81 11 60 -41 -6 -13 -1 -14 32 -8 22 4 49 11 62 15 20 8 21 11
10 22 -33 33 -60 39 -144 32 -46 -4 -87 -8 -91 -8 -5 -1 -9 8 -11 20 -3 19 3
22 61 28 72 8 93 17 82 35 -8 13 -80 9 -117 -5 -15 -6 -18 -2 -18 23 0 31 -14
42 -55 42 -23 0 -23 -1 -18 -79z"/>
<path d="M546 241 c4 -16 7 -62 8 -103 l1 -73 -34 -3 -33 -3 3 98 c4 95 3 98
-18 101 -22 3 -23 0 -23 -52 l0 -56 -34 0 c-34 0 -35 1 -29 36 4 25 2 39 -8
45 -23 15 -29 10 -29 -22 0 -17 -4 -39 -10 -49 -15 -28 -2 -53 24 -45 11 3 38
9 59 12 l37 6 0 -37 c0 -29 -4 -36 -20 -37 -11 -1 -24 -3 -30 -4 -5 -1 -41 -3
-80 -4 -38 0 -70 -5 -70 -10 0 -19 41 -22 137 -11 54 6 171 11 260 11 162 -1
203 8 146 30 -18 7 -60 9 -115 5 l-88 -7 0 36 c0 33 2 35 33 35 43 0 78 10 71
21 -3 5 0 26 5 46 9 32 8 40 -6 51 -28 20 -33 14 -32 -31 3 -55 -2 -62 -40
-65 l-31 -2 0 55 c0 54 0 55 -30 55 -27 0 -29 -2 -24 -29z"/>
</g>
</svg>
