<?xml version="1.0" standalone="no"?>
<!DOCTYPE svg PUBLIC "-//W3C//DTD SVG 20010904//EN"
 "http://www.w3.org/TR/2001/REC-SVG-20010904/DTD/svg10.dtd">
<svg version="1.0" xmlns="http://www.w3.org/2000/svg"
 width="90.000000pt" height="92.000000pt" viewBox="0 0 90.000000 92.000000"
 preserveAspectRatio="xMidYMid meet">
<metadata>
Created by potrace 1.16, written by Peter Selinger 2001-2019
</metadata>
<g transform="translate(0.000000,92.000000) scale(0.100000,-0.100000)"
fill="#000000" stroke="none">
<path d="M346 808 c9 -18 23 -40 31 -49 13 -15 8 -18 -52 -29 -74 -14 -85 -22
-50 -38 14 -7 25 -18 25 -26 0 -8 9 -35 20 -60 l19 -46 -37 -1 c-20 0 -45 -4
-55 -8 -17 -6 -17 -8 -3 -20 21 -18 45 -17 151 3 158 31 143 25 120 42 -13 10
-31 13 -54 9 -18 -4 -31 -3 -29 2 44 91 49 108 33 119 -13 10 -10 12 17 18 42
8 23 29 -27 30 -31 1 -35 4 -35 28 0 20 -8 32 -30 43 -16 8 -36 15 -45 15 -14
0 -14 -3 1 -32z m73 -140 c-1 -64 -12 -93 -35 -96 -17 -2 -21 3 -22 29 0 18
-10 45 -22 60 l-20 29 27 6 c16 3 33 7 38 9 29 10 35 3 34 -37z"/>
<path d="M538 835 c-3 -3 1 -22 8 -43 16 -46 18 -133 2 -167 -9 -21 -9 -29 3
-40 13 -13 21 -12 67 5 70 27 82 26 82 -7 0 -16 -4 -33 -8 -40 -10 -15 -96
-37 -126 -31 l-23 5 -7 -183 c-8 -199 -5 -213 44 -239 44 -23 193 -20 248 5
23 10 42 24 42 31 0 6 -8 33 -17 60 l-17 48 -16 -42 c-20 -54 -65 -72 -159
-63 -70 6 -91 18 -91 51 0 19 6 22 48 23 84 3 143 13 139 26 -4 12 -68 14
-139 4 -48 -8 -48 -8 -48 21 0 29 0 29 80 36 80 7 105 19 79 36 -13 9 -31 8
-121 -7 -37 -6 -38 -6 -38 24 l0 30 75 7 c75 7 100 19 74 36 -13 9 -35 7 -112
-8 -27 -6 -28 -4 -25 28 3 32 5 34 53 41 114 18 113 18 108 37 -3 10 5 37 17
61 27 53 15 74 -39 67 -20 -3 -57 -9 -83 -13 -48 -7 -48 -6 -48 22 0 44 10 50
82 58 75 7 98 14 98 27 0 16 -50 21 -95 10 -72 -18 -76 -17 -69 29 6 36 4 40
-20 50 -31 11 -40 12 -48 5z"/>
<path d="M110 709 c-27 -11 -56 -16 -74 -12 -26 5 -28 3 -20 -13 5 -11 9 -119
10 -242 1 -194 3 -225 17 -240 16 -15 17 -15 17 1 0 11 8 17 23 17 12 0 32 3
43 6 17 5 24 0 32 -25 12 -35 33 -34 49 2 5 13 8 125 7 262 -3 214 -5 241 -21
252 -21 16 -27 15 -83 -8z m54 -45 c3 -9 6 -51 6 -95 0 -71 -2 -79 -19 -79
-10 0 -33 -3 -50 -6 l-31 -6 0 89 c0 56 4 93 12 101 18 18 75 15 82 -4z m5
-281 c-1 -92 -8 -118 -31 -119 -10 -1 -29 -5 -43 -8 l-25 -6 0 99 0 100 33 4
c72 9 67 14 66 -70z"/>
<path d="M400 483 c-19 -9 -57 -16 -83 -16 -39 -1 -47 -4 -41 -16 29 -74 8
-265 -38 -338 -28 -44 -29 -46 -6 -31 29 19 67 74 74 107 11 52 13 54 30 36
16 -15 20 -13 60 26 l44 43 0 -69 c0 -87 -8 -100 -50 -91 l-32 6 38 -43 c46
-51 47 -52 65 -31 10 12 16 63 20 188 3 94 8 180 10 190 3 13 -5 25 -26 36
-27 16 -33 16 -65 3z m35 -107 c0 -67 -1 -71 -30 -87 -16 -10 -42 -21 -57 -24
l-28 -7 0 56 c0 61 9 69 34 31 21 -33 59 -34 54 -2 -2 14 -16 29 -40 40 -24
12 -38 26 -38 37 0 23 15 29 65 27 l40 -2 0 -69z"/>
</g>
</svg>
