<?xml version="1.0" standalone="no"?>
<!DOCTYPE svg PUBLIC "-//W3C//DTD SVG 20010904//EN"
 "http://www.w3.org/TR/2001/REC-SVG-20010904/DTD/svg10.dtd">
<svg version="1.0" xmlns="http://www.w3.org/2000/svg"
 width="96.000000pt" height="68.000000pt" viewBox="0 0 96.000000 68.000000"
 preserveAspectRatio="xMidYMid meet">
<metadata>
Created by potrace 1.16, written by Peter Selinger 2001-2019
</metadata>
<g transform="translate(0.000000,68.000000) scale(0.100000,-0.100000)"
fill="#000000" stroke="none">
<path d="M575 269 c-22 -4 -79 -9 -128 -9 l-87 -1 19 -25 c10 -13 24 -46 31
-74 11 -45 40 -90 40 -61 0 6 18 11 43 11 79 0 199 13 187 20 -13 8 10 72 37
102 15 17 15 19 -3 33 -21 16 -76 17 -139 4z m70 -56 c-11 -59 -22 -73 -58
-73 -18 0 -55 -3 -83 -6 l-51 -6 -7 46 c-4 25 -7 49 -7 53 1 9 73 19 155 21
l58 2 -7 -37z"/>
</g>
</svg>
