<?xml version="1.0" standalone="no"?>
<!DOCTYPE svg PUBLIC "-//W3C//DTD SVG 20010904//EN"
 "http://www.w3.org/TR/2001/REC-SVG-20010904/DTD/svg10.dtd">
<svg version="1.0" xmlns="http://www.w3.org/2000/svg"
 width="96.000000pt" height="68.000000pt" viewBox="0 0 96.000000 68.000000"
 preserveAspectRatio="xMidYMid meet">
<metadata>
Created by potrace 1.16, written by Peter Selinger 2001-2019
</metadata>
<g transform="translate(0.000000,68.000000) scale(0.100000,-0.100000)"
fill="#000000" stroke="none">
<path d="M290 550 c0 -46 -74 -164 -152 -240 -28 -27 -45 -50 -39 -50 15 0 92
52 110 74 8 9 26 16 42 16 22 0 30 -6 35 -24 8 -34 -2 -46 -39 -46 -18 0 -39
-5 -47 -10 -11 -7 0 -10 38 -10 l52 0 0 -60 c0 -56 -2 -61 -26 -70 -14 -6 -50
-10 -80 -10 -60 0 -69 -15 -23 -37 21 -10 43 -6 152 30 70 23 127 45 127 50 0
5 -10 6 -22 3 -13 -4 -38 -9 -56 -13 l-33 -6 3 64 3 63 44 9 c37 7 42 11 27
19 -9 5 -28 7 -42 4 -21 -6 -24 -3 -24 23 0 24 5 29 30 35 34 6 41 26 9 26
-11 0 -40 -5 -64 -11 -24 -6 -48 -9 -54 -8 -11 4 59 119 72 119 5 0 20 -9 34
-20 30 -23 63 -26 63 -5 0 16 -49 45 -76 45 -11 0 -14 5 -10 16 8 21 -11 44
-35 44 -12 0 -19 -7 -19 -20z"/>
<path d="M375 220 c-19 -36 -4 -40 35 -10 21 17 23 21 10 30 -23 15 -28 13
-45 -20z"/>
<path d="M190 213 c1 -13 38 -53 49 -53 19 0 12 39 -8 50 -23 12 -41 13 -41 3z"/>
</g>
</svg>
