<?xml version="1.0" standalone="no"?>
<!DOCTYPE svg PUBLIC "-//W3C//DTD SVG 20010904//EN"
 "http://www.w3.org/TR/2001/REC-SVG-20010904/DTD/svg10.dtd">
<svg version="1.0" xmlns="http://www.w3.org/2000/svg"
 width="90.000000pt" height="92.000000pt" viewBox="0 0 90.000000 92.000000"
 preserveAspectRatio="xMidYMid meet">
<metadata>
Created by potrace 1.16, written by Peter Selinger 2001-2019
</metadata>
<g transform="translate(0.000000,92.000000) scale(0.100000,-0.100000)"
fill="#000000" stroke="none">
<path d="M569 786 c-10 -10 -326 -54 -351 -49 -33 6 -34 1 -9 -35 11 -15 25
-54 31 -87 6 -33 16 -74 21 -92 9 -29 13 -32 41 -26 30 6 31 5 24 -23 -22 -90
-129 -231 -227 -300 -31 -21 -38 -30 -25 -32 31 -6 120 46 178 105 72 73 153
215 138 242 -8 17 -5 19 28 23 21 3 40 0 44 -6 4 -6 7 -67 6 -136 -3 -139 7
-182 50 -222 40 -37 94 -52 173 -45 67 6 134 31 158 61 10 12 8 28 -10 88 -29
94 -35 99 -42 43 -9 -60 -32 -104 -63 -115 -38 -15 -141 -12 -173 5 -16 8 -34
28 -40 46 -16 45 -14 135 4 204 9 32 14 64 11 71 -6 14 15 24 51 24 21 0 24 2
13 15 -10 12 -7 25 15 70 15 30 38 64 51 76 13 13 24 28 24 35 0 24 -105 76
-121 60z m-4 -55 c6 -11 -21 -129 -35 -151 -5 -8 -45 -19 -97 -26 -140 -20
-128 -24 -147 58 -9 39 -13 75 -9 79 7 7 111 29 193 42 49 8 89 7 95 -2z"/>
</g>
</svg>
