<?xml version="1.0" standalone="no"?>
<!DOCTYPE svg PUBLIC "-//W3C//DTD SVG 20010904//EN"
 "http://www.w3.org/TR/2001/REC-SVG-20010904/DTD/svg10.dtd">
<svg version="1.0" xmlns="http://www.w3.org/2000/svg"
 width="96.000000pt" height="68.000000pt" viewBox="0 0 96.000000 68.000000"
 preserveAspectRatio="xMidYMid meet">
<metadata>
Created by potrace 1.16, written by Peter Selinger 2001-2019
</metadata>
<g transform="translate(0.000000,68.000000) scale(0.100000,-0.100000)"
fill="#000000" stroke="none">
<path d="M244 547 c4 -12 9 -50 13 -84 l6 -61 -49 -7 c-78 -10 -84 -19 -16
-23 l63 -3 -3 -42 c-3 -42 -3 -42 -86 -82 -76 -37 -81 -41 -62 -52 29 -19 42
-16 86 17 54 41 63 39 58 -13 -13 -116 -12 -115 -66 -92 -10 4 -1 -12 20 -34
65 -71 82 -50 82 103 0 101 1 105 26 125 16 13 21 21 12 21 -8 0 -19 -5 -26
-12 -9 -9 -12 -3 -12 29 0 42 11 53 51 53 30 0 22 20 -11 27 -33 6 -38 29 -21
90 10 36 8 40 -40 53 -29 9 -31 8 -25 -13z"/>
</g>
</svg>
