<?xml version="1.0" standalone="no"?>
<!DOCTYPE svg PUBLIC "-//W3C//DTD SVG 20010904//EN"
 "http://www.w3.org/TR/2001/REC-SVG-20010904/DTD/svg10.dtd">
<svg version="1.0" xmlns="http://www.w3.org/2000/svg"
 width="96.000000pt" height="68.000000pt" viewBox="0 0 96.000000 68.000000"
 preserveAspectRatio="xMidYMid meet">
<metadata>
Created by potrace 1.16, written by Peter Selinger 2001-2019
</metadata>
<g transform="translate(0.000000,68.000000) scale(0.100000,-0.100000)"
fill="#000000" stroke="none">
<path d="M635 553 c15 -36 17 -163 6 -332 -11 -157 -10 -176 4 -190 15 -15 18
-14 31 4 12 16 15 44 13 130 -1 61 -2 136 -1 167 l2 57 59 -35 c35 -21 69 -34
83 -32 l23 3 -25 25 c-16 16 -47 31 -84 39 l-59 13 6 78 c7 83 3 90 -45 90
-15 0 -18 -4 -13 -17z"/>
</g>
</svg>
