<?xml version="1.0" standalone="no"?>
<!DOCTYPE svg PUBLIC "-//W3C//DTD SVG 20010904//EN"
 "http://www.w3.org/TR/2001/REC-SVG-20010904/DTD/svg10.dtd">
<svg version="1.0" xmlns="http://www.w3.org/2000/svg"
 width="96.000000pt" height="68.000000pt" viewBox="0 0 96.000000 68.000000"
 preserveAspectRatio="xMidYMid meet">
<metadata>
Created by potrace 1.16, written by Peter Selinger 2001-2019
</metadata>
<g transform="translate(0.000000,68.000000) scale(0.100000,-0.100000)"
fill="#000000" stroke="none">
<path d="M460 306 c0 -24 -16 -36 -51 -36 -10 0 -19 -4 -19 -10 0 -5 18 -10
40 -10 37 0 40 -2 40 -29 0 -24 -5 -29 -31 -35 -17 -3 -49 -6 -70 -6 -44 0
-50 -11 -16 -29 21 -11 40 -8 140 24 65 20 117 39 117 42 0 6 -69 -3 -94 -13
-12 -5 -16 1 -16 24 0 31 17 42 68 42 13 0 20 4 17 10 -3 6 -19 10 -36 10 -16
0 -38 9 -49 20 -27 27 -40 25 -40 -4z"/>
</g>
</svg>
