<?xml version="1.0" standalone="no"?>
<!DOCTYPE svg PUBLIC "-//W3C//DTD SVG 20010904//EN"
 "http://www.w3.org/TR/2001/REC-SVG-20010904/DTD/svg10.dtd">
<svg version="1.0" xmlns="http://www.w3.org/2000/svg"
 width="96.000000pt" height="68.000000pt" viewBox="0 0 96.000000 68.000000"
 preserveAspectRatio="xMidYMid meet">
<metadata>
Created by potrace 1.16, written by Peter Selinger 2001-2019
</metadata>
<g transform="translate(0.000000,68.000000) scale(0.100000,-0.100000)"
fill="#000000" stroke="none">
<path d="M655 601 c-3 -11 -17 -36 -30 -55 -32 -47 -19 -45 44 5 55 44 60 53
35 63 -28 11 -42 7 -49 -13z"/>
<path d="M257 594 c-3 -3 -2 -17 4 -31 14 -37 11 -133 -3 -138 -7 -2 -39 -6
-71 -10 -77 -9 -72 -30 7 -29 31 1 56 0 56 -3 0 -19 -59 -111 -99 -154 -28
-30 -46 -55 -41 -57 17 -6 78 37 121 86 l41 47 -8 -65 c-14 -110 -11 -171 9
-184 28 -17 37 8 38 109 0 50 4 101 8 114 6 21 8 22 20 7 16 -19 37 -21 43 -3
8 20 -2 37 -33 52 -35 19 -42 65 -10 65 11 0 32 5 47 10 36 14 18 34 -29 32
l-34 -1 5 67 c4 66 4 68 -22 80 -30 13 -40 15 -49 6z"/>
<path d="M450 572 c0 -11 60 -72 71 -72 11 0 12 31 1 46 -15 23 -72 44 -72 26z"/>
<path d="M645 493 c-22 -8 -75 -17 -117 -20 -89 -7 -105 -23 -24 -23 50 0 54
-2 59 -26 6 -31 -21 -44 -93 -44 l-49 0 6 -35 c4 -26 1 -41 -12 -55 -32 -36 8
-52 73 -29 64 22 67 7 10 -49 -30 -29 -72 -64 -93 -78 -35 -22 -36 -25 -13
-20 47 10 72 23 121 60 26 20 49 36 52 36 2 0 1 -37 -2 -83 -5 -69 -3 -85 11
-96 9 -8 19 -12 21 -9 2 2 8 61 11 130 6 117 9 127 28 132 35 9 124 7 131 -4
3 -5 3 -25 -1 -44 -7 -40 -28 -51 -68 -36 -26 9 -25 8 11 -35 l37 -45 25 25
c14 14 33 46 42 73 9 26 19 55 24 65 11 27 -47 48 -105 37 -25 -5 -62 -9 -82
-10 -35 0 -38 2 -38 30 0 31 9 35 94 42 23 2 31 9 37 32 4 15 16 37 26 48 17
19 17 20 -2 34 -23 17 -67 16 -120 -3z m55 -35 c-1 -45 -13 -58 -51 -58 -35 0
-39 3 -39 25 0 14 -6 25 -12 25 -9 0 -8 4 2 10 22 15 100 13 100 -2z m-130
-116 c0 -29 -14 -41 -58 -48 -39 -6 -42 -5 -42 17 0 36 11 47 50 51 43 4 50 1
50 -20z"/>
</g>
</svg>
