<?xml version="1.0" standalone="no"?>
<!DOCTYPE svg PUBLIC "-//W3C//DTD SVG 20010904//EN"
 "http://www.w3.org/TR/2001/REC-SVG-20010904/DTD/svg10.dtd">
<svg version="1.0" xmlns="http://www.w3.org/2000/svg"
 width="90.000000pt" height="92.000000pt" viewBox="0 0 90.000000 92.000000"
 preserveAspectRatio="xMidYMid meet">
<metadata>
Created by potrace 1.16, written by Peter Selinger 2001-2019
</metadata>
<g transform="translate(0.000000,92.000000) scale(0.100000,-0.100000)"
fill="#000000" stroke="none">
<path d="M534 805 c-20 -32 -33 -44 -44 -39 -25 11 -60 17 -60 10 0 -3 18 -22
40 -42 21 -19 74 -88 117 -151 95 -141 125 -173 163 -173 43 0 130 20 130 30
0 5 -40 30 -89 55 -78 42 -201 142 -201 165 0 4 32 18 70 30 39 12 70 26 70
30 0 8 -44 50 -53 50 -4 0 -25 -20 -48 -45 -46 -50 -57 -54 -79 -27 -45 54
-45 49 9 76 27 14 52 30 55 35 6 9 -30 41 -45 41 -3 0 -19 -20 -35 -45z"/>
<path d="M258 772 c-76 -21 -75 -36 2 -29 40 3 60 1 60 -6 0 -6 -14 -41 -32
-79 -30 -67 -32 -68 -49 -49 -18 19 -76 38 -86 27 -3 -3 13 -24 35 -47 l42
-41 -45 -58 c-25 -32 -64 -74 -87 -94 -50 -43 -30 -47 33 -8 64 41 139 129
198 235 29 51 57 100 64 110 10 15 8 21 -12 38 -27 22 -45 22 -123 1z"/>
<path d="M458 575 c-3 -3 -35 -11 -72 -18 -37 -7 -67 -17 -66 -22 0 -6 33 -9
78 -9 80 2 142 18 126 34 -12 12 -58 23 -66 15z"/>
<path d="M375 452 c-66 -8 -121 -16 -123 -18 -2 -1 3 -13 11 -26 9 -12 19 -41
23 -63 11 -65 23 -89 37 -77 6 5 51 13 100 17 l87 7 0 -31 c0 -41 -30 -101
-51 -101 -9 0 -31 -3 -48 -6 -27 -6 -31 -4 -31 15 0 12 -5 31 -10 42 -11 20
-68 54 -77 46 -2 -3 5 -27 16 -52 12 -26 21 -51 21 -55 0 -5 -43 -11 -95 -15
-52 -4 -95 -11 -95 -15 0 -4 12 -15 26 -25 25 -16 32 -16 128 0 55 10 181 20
279 23 98 2 180 8 182 13 3 4 -7 17 -22 29 -25 20 -35 21 -108 15 -44 -3 -89
-9 -99 -12 -14 -4 -8 8 22 43 l42 49 -25 23 c-20 17 -22 22 -9 22 13 0 14 3 4
15 -9 11 -6 24 16 66 l28 51 -23 19 c-27 22 -42 22 -206 1z m140 -69 c-4 -27
-8 -48 -8 -49 -5 -3 -148 -24 -161 -24 -10 0 -17 15 -22 45 -3 25 -4 49 0 52
10 10 77 21 140 22 l58 1 -7 -47z"/>
</g>
</svg>
