<?xml version="1.0" standalone="no"?>
<!DOCTYPE svg PUBLIC "-//W3C//DTD SVG 20010904//EN"
 "http://www.w3.org/TR/2001/REC-SVG-20010904/DTD/svg10.dtd">
<svg version="1.0" xmlns="http://www.w3.org/2000/svg"
 width="90.000000pt" height="92.000000pt" viewBox="0 0 90.000000 92.000000"
 preserveAspectRatio="xMidYMid meet">
<metadata>
Created by potrace 1.16, written by Peter Selinger 2001-2019
</metadata>
<g transform="translate(0.000000,92.000000) scale(0.100000,-0.100000)"
fill="#000000" stroke="none">
<path d="M440 808 c-1 -34 -53 -151 -92 -206 -19 -26 -37 -53 -42 -59 -15 -26
11 -12 52 27 22 22 44 40 47 40 9 0 5 -225 -5 -283 -9 -44 -8 -63 4 -91 l14
-34 -66 18 c-37 10 -79 20 -93 24 -25 5 -26 9 -21 51 4 42 2 47 -31 78 l-36
32 45 49 c24 27 44 55 44 62 0 7 -12 20 -26 27 -25 13 -33 11 -95 -17 -38 -17
-69 -35 -69 -40 0 -5 25 -6 56 -3 50 5 55 4 49 -11 -28 -67 -28 -66 -2 -106
26 -37 45 -101 34 -112 -3 -3 -39 -8 -81 -11 -42 -3 -76 -9 -76 -13 0 -4 9
-15 20 -25 17 -15 25 -16 71 -5 76 19 127 8 328 -66 l183 -68 72 22 c39 11 94
31 121 43 l50 22 -180 12 c-176 12 -250 21 -270 34 -7 4 -7 19 0 46 9 35 14
40 40 42 17 1 89 5 162 9 145 8 170 15 138 40 -16 12 -34 14 -87 9 l-68 -7 0
35 c0 39 11 47 68 47 20 0 44 5 52 10 26 17 -8 31 -68 28 l-53 -3 3 30 c3 28
6 30 56 36 29 4 56 10 60 14 12 12 -23 25 -70 25 -47 0 -48 1 -48 30 0 24 5
31 28 36 78 17 102 26 102 35 0 17 -48 29 -76 19 -38 -15 -44 -13 -44 18 0 31
-21 55 -58 67 -22 6 -23 5 -17 -17 4 -12 14 -36 22 -51 8 -16 13 -31 10 -33
-6 -7 -108 -24 -143 -24 l-33 0 35 57 c48 80 51 93 24 115 -29 24 -40 23 -40
-4z m138 -231 c4 -31 0 -33 -75 -42 l-53 -6 2 41 1 41 61 -3 c58 -3 61 -4 64
-31z m2 -97 c0 -34 -3 -36 -77 -44 l-53 -5 0 34 0 34 58 4 c31 2 60 4 65 5 4
1 7 -12 7 -28z m0 -110 c0 -43 -1 -44 -87 -53 l-41 -5 -4 44 -3 43 60 4 c33 2
63 4 68 5 4 1 7 -16 7 -38z"/>
<path d="M140 722 c45 -57 77 -77 96 -61 22 18 17 57 -11 75 -14 9 -46 19 -72
22 l-46 5 33 -41z"/>
</g>
</svg>
