<?xml version="1.0" standalone="no"?>
<!DOCTYPE svg PUBLIC "-//W3C//DTD SVG 20010904//EN"
 "http://www.w3.org/TR/2001/REC-SVG-20010904/DTD/svg10.dtd">
<svg version="1.0" xmlns="http://www.w3.org/2000/svg"
 width="96.000000pt" height="68.000000pt" viewBox="0 0 96.000000 68.000000"
 preserveAspectRatio="xMidYMid meet">
<metadata>
Created by potrace 1.16, written by Peter Selinger 2001-2019
</metadata>
<g transform="translate(0.000000,68.000000) scale(0.100000,-0.100000)"
fill="#000000" stroke="none">
<path d="M485 330 c-59 -12 -183 -25 -237 -25 l-48 0 0 -57 0 -58 37 0 c20 0
99 5 175 12 125 10 138 13 138 30 0 10 11 29 25 42 14 13 25 26 25 29 0 8 -56
37 -67 36 -4 -1 -26 -5 -48 -9z m25 -54 c0 -30 -4 -35 -30 -40 -16 -3 -44 -9
-61 -12 -31 -6 -31 -6 -27 33 3 42 16 50 81 52 36 1 37 0 37 -33z m-158 2 c2
-6 2 -23 0 -37 -3 -24 -8 -26 -58 -29 l-55 -3 3 32 c2 26 9 35 28 40 40 11 78
10 82 -3z"/>
</g>
</svg>
