<?xml version="1.0" standalone="no"?>
<!DOCTYPE svg PUBLIC "-//W3C//DTD SVG 20010904//EN"
 "http://www.w3.org/TR/2001/REC-SVG-20010904/DTD/svg10.dtd">
<svg version="1.0" xmlns="http://www.w3.org/2000/svg"
 width="96.000000pt" height="68.000000pt" viewBox="0 0 96.000000 68.000000"
 preserveAspectRatio="xMidYMid meet">
<metadata>
Created by potrace 1.16, written by Peter Selinger 2001-2019
</metadata>
<g transform="translate(0.000000,68.000000) scale(0.100000,-0.100000)"
fill="#000000" stroke="none">
<path d="M536 565 c-4 -19 -22 -57 -42 -86 -19 -29 -37 -56 -40 -61 -3 -4 2
-8 11 -8 8 0 36 20 60 44 28 27 55 44 69 44 14 0 59 3 100 7 59 5 76 10 76 22
0 14 -12 15 -91 10 -81 -6 -89 -5 -75 8 19 19 11 41 -17 49 -38 10 -45 7 -51
-29z"/>
<path d="M290 545 c-7 -20 -36 -62 -66 -95 -30 -32 -51 -61 -46 -64 10 -6 65
28 109 68 27 25 40 29 104 33 40 2 77 7 83 13 15 15 -37 29 -78 20 -34 -7 -36
-7 -30 15 4 17 0 26 -14 34 -35 19 -50 12 -62 -24z"/>
<path d="M590 462 c0 -5 9 -17 20 -27 11 -10 18 -20 16 -24 -2 -3 11 -7 30 -8
30 -3 34 0 34 21 0 18 -8 27 -31 35 -38 13 -69 14 -69 3z"/>
<path d="M316 437 c33 -44 84 -58 84 -22 0 17 -23 30 -69 40 l-34 7 19 -25z"/>
<path d="M530 400 c-7 -4 -10 -14 -7 -22 3 -8 -5 -32 -17 -54 -19 -33 -27 -39
-51 -36 -28 3 -28 3 -21 -44 3 -26 6 -77 6 -113 0 -77 13 -106 34 -78 10 13
29 17 90 17 57 0 76 -3 76 -13 0 -8 8 -21 18 -30 17 -16 20 -16 39 2 23 22 39
84 47 183 5 67 5 68 -24 83 -24 12 -41 13 -109 3 -45 -6 -84 -8 -87 -5 -4 3
10 21 30 40 20 19 36 37 36 40 0 12 -48 35 -60 27z m144 -136 c3 -9 6 -27 6
-40 0 -21 -4 -24 -32 -22 -18 0 -63 -2 -100 -7 l-68 -8 0 41 c0 41 0 41 43 45
107 9 145 7 151 -9z m5 -128 l-2 -43 -99 -2 -98 -1 0 39 0 40 68 4 c37 2 82 4
100 5 32 2 32 2 31 -42z"/>
<path d="M240 354 c0 -13 55 -54 69 -52 22 4 24 26 4 36 -26 13 -73 24 -73 16z"/>
<path d="M195 235 c45 -39 53 -42 62 -19 8 22 -15 41 -62 48 l-40 6 40 -35z"/>
<path d="M291 161 c-67 -67 -73 -77 -65 -100 13 -37 41 -39 55 -4 12 32 26 59
64 126 15 26 26 49 24 51 -2 1 -37 -32 -78 -73z"/>
</g>
</svg>
