<?xml version="1.0" standalone="no"?>
<!DOCTYPE svg PUBLIC "-//W3C//DTD SVG 20010904//EN"
 "http://www.w3.org/TR/2001/REC-SVG-20010904/DTD/svg10.dtd">
<svg version="1.0" xmlns="http://www.w3.org/2000/svg"
 width="90.000000pt" height="92.000000pt" viewBox="0 0 90.000000 92.000000"
 preserveAspectRatio="xMidYMid meet">
<metadata>
Created by potrace 1.16, written by Peter Selinger 2001-2019
</metadata>
<g transform="translate(0.000000,92.000000) scale(0.100000,-0.100000)"
fill="#000000" stroke="none">
<path d="M485 839 c-44 -10 -122 -22 -172 -25 -88 -7 -111 -15 -79 -27 18 -7
42 -83 51 -161 7 -54 44 -124 45 -85 0 14 17 18 96 24 82 6 97 5 107 -10 25
-33 46 -6 78 99 16 55 34 111 40 124 5 13 9 26 9 31 0 9 -74 52 -86 50 -5 -1
-45 -10 -89 -20z m73 -76 l3 -43 -31 6 c-17 4 -64 -1 -105 -11 -93 -21 -107
-19 -116 23 -8 40 -12 38 106 56 133 21 139 20 143 -31z m-8 -77 c0 -7 -3 -27
-6 -43 -6 -28 -7 -29 -102 -40 -53 -7 -100 -9 -104 -7 -4 3 -8 18 -8 34 0 25
5 30 33 35 17 3 64 12 102 19 39 8 73 15 78 15 4 1 7 -5 7 -13z"/>
<path d="M414 513 c4 -16 9 -35 11 -43 8 -28 -12 -43 -66 -48 l-53 -5 18 28
c19 29 19 29 -8 52 -33 28 -46 29 -46 5 0 -29 -55 -133 -95 -180 -57 -65 -11
-47 68 27 36 34 41 36 112 37 l75 1 0 -47 0 -47 -72 -7 c-77 -7 -83 -9 -73
-25 3 -6 37 -11 76 -11 l69 0 0 -48 0 -48 -122 -12 c-68 -7 -149 -12 -181 -12
-63 0 -72 -13 -26 -38 25 -13 62 -12 224 8 44 6 176 12 294 15 118 3 216 7
219 10 8 8 -17 32 -49 45 -23 10 -52 10 -130 1 -124 -14 -176 -14 -181 0 -2 5
-2 28 0 49 l4 39 56 6 c72 8 92 14 92 25 0 14 -44 22 -100 18 l-50 -3 0 45 0
46 87 11 c96 13 117 25 83 43 -21 11 -45 10 -138 -6 l-33 -6 7 41 c6 37 4 41
-20 51 -47 17 -59 13 -52 -17z"/>
</g>
</svg>
