<?xml version="1.0" standalone="no"?>
<!DOCTYPE svg PUBLIC "-//W3C//DTD SVG 20010904//EN"
 "http://www.w3.org/TR/2001/REC-SVG-20010904/DTD/svg10.dtd">
<svg version="1.0" xmlns="http://www.w3.org/2000/svg"
 width="96.000000pt" height="68.000000pt" viewBox="0 0 96.000000 68.000000"
 preserveAspectRatio="xMidYMid meet">
<metadata>
Created by potrace 1.16, written by Peter Selinger 2001-2019
</metadata>
<g transform="translate(0.000000,68.000000) scale(0.100000,-0.100000)"
fill="#000000" stroke="none">
<path d="M485 594 c-33 -7 -97 -14 -142 -15 -46 -1 -83 -5 -83 -8 0 -4 8 -14
19 -23 10 -8 24 -40 31 -69 15 -67 37 -104 53 -91 19 16 177 26 177 12 0 -6
10 -10 21 -8 31 4 97 175 76 196 -20 20 -83 22 -152 6z m75 -29 c22 -26 4 -51
-38 -51 -20 0 -69 -4 -108 -8 -69 -8 -71 -8 -77 15 -3 13 -4 25 -2 27 4 4 160
28 196 31 9 1 22 -6 29 -14z m-6 -92 c-3 -16 -8 -31 -12 -34 -4 -4 -44 -10
-90 -14 -80 -6 -82 -6 -91 17 -5 13 -7 24 -6 26 4 4 153 29 182 31 18 1 21 -3
17 -26z"/>
</g>
</svg>
