<?xml version="1.0" standalone="no"?>
<!DOCTYPE svg PUBLIC "-//W3C//DTD SVG 20010904//EN"
 "http://www.w3.org/TR/2001/REC-SVG-20010904/DTD/svg10.dtd">
<svg version="1.0" xmlns="http://www.w3.org/2000/svg"
 width="96.000000pt" height="68.000000pt" viewBox="0 0 96.000000 68.000000"
 preserveAspectRatio="xMidYMid meet">
<metadata>
Created by potrace 1.16, written by Peter Selinger 2001-2019
</metadata>
<g transform="translate(0.000000,68.000000) scale(0.100000,-0.100000)"
fill="#000000" stroke="none">
<path d="M402 276 c-11 -42 -13 -43 -58 -50 -26 -3 -82 -6 -125 -6 -80 0 -102
-12 -54 -30 16 -6 44 -6 76 0 99 19 141 11 104 -20 -25 -21 -18 -28 40 -41 30
-7 55 -16 55 -20 0 -11 -54 -39 -120 -61 l-55 -19 60 5 c38 2 80 14 116 31
l57 28 72 -36 c76 -39 110 -46 110 -23 0 20 -46 54 -89 66 -63 17 -65 22 -35
68 l28 42 113 0 c114 0 141 10 86 31 -17 7 -59 8 -108 4 -64 -5 -84 -3 -100 9
-25 19 -45 20 -45 2 0 -17 -22 -26 -66 -26 l-34 0 20 32 c14 24 16 35 8 45
-22 26 -43 14 -56 -31z m111 -98 c-16 -27 -26 -34 -59 -36 -22 -2 -50 1 -62 5
l-23 9 21 27 c19 24 28 27 82 27 l60 0 -19 -32z"/>
</g>
</svg>
