<?xml version="1.0" standalone="no"?>
<!DOCTYPE svg PUBLIC "-//W3C//DTD SVG 20010904//EN"
 "http://www.w3.org/TR/2001/REC-SVG-20010904/DTD/svg10.dtd">
<svg version="1.0" xmlns="http://www.w3.org/2000/svg"
 width="96.000000pt" height="68.000000pt" viewBox="0 0 96.000000 68.000000"
 preserveAspectRatio="xMidYMid meet">
<metadata>
Created by potrace 1.16, written by Peter Selinger 2001-2019
</metadata>
<g transform="translate(0.000000,68.000000) scale(0.100000,-0.100000)"
fill="#000000" stroke="none">
<path d="M523 579 c3 -12 3 -35 0 -50 -5 -28 -8 -29 -62 -30 -75 -2 -120 -12
-103 -23 8 -5 45 -5 83 -2 62 7 69 5 69 -11 0 -34 -16 -45 -61 -42 -30 2 -43
-1 -42 -9 2 -6 6 -64 9 -127 l7 -115 -66 0 c-37 0 -67 -4 -67 -10 0 -18 49
-22 112 -10 35 6 145 14 246 17 139 4 182 9 182 19 0 18 -54 27 -117 19 l-55
-7 6 54 c3 29 8 83 11 119 l6 66 -29 6 c-17 3 -47 3 -67 0 -34 -6 -37 -4 -33
18 2 20 10 25 48 31 25 3 69 7 98 7 28 1 52 5 52 11 0 16 -63 22 -113 10 -59
-13 -69 -8 -56 27 12 32 -3 53 -38 53 -21 0 -24 -4 -20 -21z m97 -177 c0 -14
-14 -20 -70 -30 -92 -16 -92 -16 -88 11 2 18 11 23 53 28 95 11 105 10 105 -9z
m0 -61 c0 -15 -10 -20 -51 -25 -29 -4 -65 -10 -80 -13 -24 -5 -29 -2 -29 15 0
18 8 21 58 27 31 3 64 8 72 9 8 2 18 4 23 5 4 0 7 -7 7 -18z m0 -60 c0 -14
-10 -20 -46 -25 -77 -10 -114 -8 -114 8 0 10 17 16 58 21 31 3 64 8 72 9 8 2
18 4 23 5 4 0 7 -7 7 -18z m0 -66 c0 -23 -4 -25 -42 -25 -24 0 -60 -3 -80 -6
-36 -6 -38 -5 -38 19 0 25 3 26 58 30 31 2 67 4 80 5 17 2 22 -3 22 -23z"/>
<path d="M220 434 c-25 -7 -62 -10 -83 -8 -40 6 -45 0 -22 -30 8 -10 17 -38
21 -62 9 -65 21 -75 69 -64 22 5 54 10 71 10 27 0 31 3 31 30 0 16 8 48 18 71
19 40 19 42 0 55 -22 16 -44 16 -105 -2z m38 -71 c-3 -45 -5 -48 -32 -51 -35
-4 -43 3 -51 50 -7 36 -6 37 27 41 18 2 39 5 46 5 10 2 12 -11 10 -45z"/>
<path d="M610 142 c0 -4 8 -15 18 -23 9 -9 34 -35 56 -58 39 -43 68 -50 74
-18 4 22 -53 74 -90 82 -15 4 -30 11 -33 16 -7 11 -25 12 -25 1z"/>
<path d="M425 110 c-11 -17 -35 -42 -52 -56 -18 -14 -33 -29 -33 -34 0 -11 83
33 129 67 32 25 33 27 16 40 -27 19 -38 16 -60 -17z"/>
</g>
</svg>
