<?xml version="1.0" standalone="no"?>
<!DOCTYPE svg PUBLIC "-//W3C//DTD SVG 20010904//EN"
 "http://www.w3.org/TR/2001/REC-SVG-20010904/DTD/svg10.dtd">
<svg version="1.0" xmlns="http://www.w3.org/2000/svg"
 width="96.000000pt" height="68.000000pt" viewBox="0 0 96.000000 68.000000"
 preserveAspectRatio="xMidYMid meet">
<metadata>
Created by potrace 1.16, written by Peter Selinger 2001-2019
</metadata>
<g transform="translate(0.000000,68.000000) scale(0.100000,-0.100000)"
fill="#000000" stroke="none">
<path d="M260 556 c-16 -51 -68 -124 -101 -143 -32 -19 -39 -57 -13 -67 10 -4
37 1 61 10 24 9 47 14 51 10 4 -5 -19 -32 -51 -62 -85 -79 -62 -93 70 -43 52
20 66 22 83 11 44 -27 54 -5 15 33 -27 28 -67 36 -45 10 10 -12 8 -16 -13 -24
-33 -13 -97 -25 -97 -18 0 3 36 40 80 83 44 42 80 83 80 90 0 7 -9 18 -20 24
-18 10 -22 7 -31 -20 -13 -36 -28 -45 -89 -55 -52 -9 -52 -9 37 87 57 60 61
71 39 94 -24 23 -44 16 -56 -20z"/>
<path d="M645 424 c-27 -7 -81 -16 -120 -20 -93 -9 -104 -18 -30 -24 l60 -5 3
-96 c3 -110 4 -108 -93 -109 -63 0 -87 -13 -57 -29 16 -9 42 -8 108 4 48 8
138 15 200 15 112 0 136 8 94 30 -12 7 -54 8 -115 4 -67 -5 -95 -4 -95 4 0 6
5 45 11 87 9 58 9 79 0 88 -9 9 4 14 56 22 37 6 67 14 66 20 -3 18 -39 22 -88
9z"/>
<path d="M320 231 c0 -13 36 -51 49 -51 15 0 14 25 -1 37 -20 15 -48 23 -48
14z"/>
<path d="M245 170 c17 -33 45 -40 45 -12 0 11 -11 24 -25 30 -36 17 -37 16
-20 -18z"/>
<path d="M120 154 c49 -65 80 -83 80 -46 0 24 -27 49 -65 58 -28 7 -29 6 -15
-12z"/>
</g>
</svg>
