<?xml version="1.0" standalone="no"?>
<!DOCTYPE svg PUBLIC "-//W3C//DTD SVG 20010904//EN"
 "http://www.w3.org/TR/2001/REC-SVG-20010904/DTD/svg10.dtd">
<svg version="1.0" xmlns="http://www.w3.org/2000/svg"
 width="96.000000pt" height="68.000000pt" viewBox="0 0 96.000000 68.000000"
 preserveAspectRatio="xMidYMid meet">
<metadata>
Created by potrace 1.16, written by Peter Selinger 2001-2019
</metadata>
<g transform="translate(0.000000,68.000000) scale(0.100000,-0.100000)"
fill="#000000" stroke="none">
<path d="M370 394 c22 -25 51 -37 63 -25 16 16 -11 41 -45 41 -26 0 -29 -2
-18 -16z"/>
<path d="M388 298 c-32 -11 -38 -33 -7 -25 18 5 20 2 14 -24 -4 -19 -1 -36 9
-51 9 -12 16 -33 16 -45 0 -21 -4 -23 -56 -23 -40 0 -54 -3 -51 -12 2 -9 27
-13 73 -14 42 -1 96 -10 139 -24 39 -12 89 -28 113 -36 23 -8 51 -14 60 -14
26 0 142 40 142 50 0 4 -62 10 -137 13 -76 4 -165 12 -198 20 -58 12 -60 14
-63 47 -2 19 -11 43 -19 53 -15 16 -14 20 13 48 24 25 26 31 14 39 -18 12 -27
11 -62 -2z"/>
</g>
</svg>
