<?xml version="1.0" standalone="no"?>
<!DOCTYPE svg PUBLIC "-//W3C//DTD SVG 20010904//EN"
 "http://www.w3.org/TR/2001/REC-SVG-20010904/DTD/svg10.dtd">
<svg version="1.0" xmlns="http://www.w3.org/2000/svg"
 width="96.000000pt" height="68.000000pt" viewBox="0 0 96.000000 68.000000"
 preserveAspectRatio="xMidYMid meet">
<metadata>
Created by potrace 1.16, written by Peter Selinger 2001-2019
</metadata>
<g transform="translate(0.000000,68.000000) scale(0.100000,-0.100000)"
fill="#000000" stroke="none">
<path d="M397 456 c5 -23 2 -24 -68 -31 -87 -9 -72 -28 19 -23 52 3 57 1 60
-18 3 -24 -26 -34 -107 -35 -25 0 -64 -3 -86 -7 l-40 -7 30 -13 c22 -9 45 -9
90 -2 33 6 133 13 223 17 89 3 162 10 162 14 0 16 -53 22 -141 15 l-89 -7 0
31 c0 28 2 30 39 30 21 0 53 3 71 6 53 11 12 25 -52 18 -54 -6 -57 -6 -51 15
5 18 1 21 -29 21 -32 0 -35 -2 -31 -24z"/>
</g>
</svg>
