<?xml version="1.0" standalone="no"?>
<!DOCTYPE svg PUBLIC "-//W3C//DTD SVG 20010904//EN"
 "http://www.w3.org/TR/2001/REC-SVG-20010904/DTD/svg10.dtd">
<svg version="1.0" xmlns="http://www.w3.org/2000/svg"
 width="96.000000pt" height="68.000000pt" viewBox="0 0 96.000000 68.000000"
 preserveAspectRatio="xMidYMid meet">
<metadata>
Created by potrace 1.16, written by Peter Selinger 2001-2019
</metadata>
<g transform="translate(0.000000,68.000000) scale(0.100000,-0.100000)"
fill="#000000" stroke="none">
<path d="M473 188 c-6 -7 -14 -29 -18 -48 -4 -19 -14 -43 -23 -53 -24 -27 -8
-30 23 -3 17 15 26 30 22 40 -3 8 -1 18 5 22 7 4 8 3 4 -4 -4 -7 -3 -12 2 -12
6 0 12 7 16 15 3 8 0 15 -6 15 -7 0 -6 5 2 15 7 9 10 18 6 22 -3 3 -6 0 -6 -8
0 -11 -2 -11 -9 -1 -6 11 -10 11 -18 0z"/>
<path d="M680 160 c-8 -5 -39 -7 -67 -3 -30 3 -53 2 -53 -3 0 -5 41 -11 91
-12 62 -2 89 0 84 7 -9 15 8 14 23 -1 6 -6 15 -8 19 -4 21 21 -67 35 -97 16z"/>
<path d="M390 139 c10 -6 -2 -7 -39 -3 -40 5 -52 4 -47 -5 8 -13 91 -14 121
-1 22 10 22 10 -20 15 -22 3 -26 2 -15 -6z"/>
<path d="M605 79 c16 -13 33 -23 37 -22 5 2 17 -6 28 -17 24 -24 37 -26 37 -5
0 8 -4 15 -9 15 -5 0 -7 4 -3 10 3 5 -14 14 -37 20 -24 6 -52 14 -63 17 -15 4
-12 -1 10 -18z"/>
<path d="M370 40 c-19 -11 -28 -19 -20 -20 9 0 25 7 36 15 12 8 25 11 29 7 5
-4 5 -1 1 6 -4 6 -8 12 -9 12 -1 -1 -18 -9 -37 -20z"/>
</g>
</svg>
