<?xml version="1.0" standalone="no"?>
<!DOCTYPE svg PUBLIC "-//W3C//DTD SVG 20010904//EN"
 "http://www.w3.org/TR/2001/REC-SVG-20010904/DTD/svg10.dtd">
<svg version="1.0" xmlns="http://www.w3.org/2000/svg"
 width="96.000000pt" height="68.000000pt" viewBox="0 0 96.000000 68.000000"
 preserveAspectRatio="xMidYMid meet">
<metadata>
Created by potrace 1.16, written by Peter Selinger 2001-2019
</metadata>
<g transform="translate(0.000000,68.000000) scale(0.100000,-0.100000)"
fill="#000000" stroke="none">
<path d="M523 462 c-1 -32 -8 -75 -17 -96 -18 -44 -21 -82 -6 -91 6 -4 34 3
63 14 29 11 71 25 95 31 50 13 59 36 10 26 -70 -14 -118 -18 -118 -10 1 5 7
38 15 74 8 36 14 70 15 76 0 8 -40 34 -54 34 -1 0 -3 -26 -3 -58z"/>
</g>
</svg>
