<?xml version="1.0" standalone="no"?>
<!DOCTYPE svg PUBLIC "-//W3C//DTD SVG 20010904//EN"
 "http://www.w3.org/TR/2001/REC-SVG-20010904/DTD/svg10.dtd">
<svg version="1.0" xmlns="http://www.w3.org/2000/svg"
 width="90.000000pt" height="92.000000pt" viewBox="0 0 90.000000 92.000000"
 preserveAspectRatio="xMidYMid meet">
<metadata>
Created by potrace 1.16, written by Peter Selinger 2001-2019
</metadata>
<g transform="translate(0.000000,92.000000) scale(0.100000,-0.100000)"
fill="#000000" stroke="none">
<path d="M390 855 c6 -15 17 -37 25 -48 8 -12 15 -24 15 -28 0 -3 -62 -12
-137 -18 -181 -16 -179 -16 -153 -48 24 -31 26 -80 5 -213 -19 -127 -59 -238
-120 -338 l-27 -44 26 17 c92 61 164 254 191 511 l7 62 43 5 c43 6 237 22 398
33 94 6 111 20 57 46 -25 12 -44 13 -127 2 -54 -7 -101 -13 -105 -14 -5 0 -8
13 -8 29 0 31 -27 55 -74 67 -25 6 -26 5 -16 -21z"/>
<path d="M658 665 c-3 -3 1 -29 9 -58 11 -40 13 -94 9 -237 -2 -102 -8 -194
-12 -204 -6 -15 -14 -17 -52 -11 l-46 7 54 -56 c30 -31 58 -56 62 -56 4 0 14
13 23 30 12 23 15 70 15 227 1 180 5 236 25 300 6 18 1 26 -26 42 -34 21 -51
25 -61 16z"/>
<path d="M350 615 c-30 -7 -66 -10 -79 -7 -22 4 -23 3 -16 -19 11 -30 11 -123
1 -214 -6 -56 -4 -74 8 -90 11 -13 18 -16 23 -9 5 6 38 14 75 18 62 6 68 5 79
-15 9 -18 13 -19 24 -8 9 10 14 62 17 175 6 200 6 200 -132 169z m80 -60 c0
-33 -2 -35 -34 -35 -18 0 -48 -3 -65 -6 -30 -6 -31 -5 -31 29 0 39 7 43 88 46
42 1 42 1 42 -34z m10 -105 c0 -24 -3 -25 -70 -27 l-70 -1 0 27 c0 27 3 29 63
37 67 10 77 6 77 -36z m0 -79 c0 -39 0 -40 -38 -39 -21 0 -53 -3 -70 -7 -31
-6 -32 -6 -32 28 l0 34 68 10 c37 5 68 11 70 11 1 1 2 -16 2 -37z"/>
<path d="M555 445 c7 -204 36 -212 43 -11 3 93 1 120 -9 127 -36 22 -39 12
-34 -116z"/>
<path d="M299 248 c-7 -17 -35 -58 -62 -91 -27 -32 -47 -61 -44 -63 6 -7 93
60 144 110 39 38 41 42 26 58 -25 27 -49 22 -64 -14z"/>
<path d="M400 245 c0 -15 75 -115 85 -115 17 0 26 39 14 61 -5 10 -18 23 -29
29 -29 16 -70 30 -70 25z"/>
</g>
</svg>
