<?xml version="1.0" standalone="no"?>
<!DOCTYPE svg PUBLIC "-//W3C//DTD SVG 20010904//EN"
 "http://www.w3.org/TR/2001/REC-SVG-20010904/DTD/svg10.dtd">
<svg version="1.0" xmlns="http://www.w3.org/2000/svg"
 width="96.000000pt" height="68.000000pt" viewBox="0 0 96.000000 68.000000"
 preserveAspectRatio="xMidYMid meet">
<metadata>
Created by potrace 1.16, written by Peter Selinger 2001-2019
</metadata>
<g transform="translate(0.000000,68.000000) scale(0.100000,-0.100000)"
fill="#000000" stroke="none">
<path d="M480 591 c0 -4 9 -20 20 -34 l20 -25 -33 -5 c-17 -3 -68 -9 -112 -12
-44 -3 -93 -9 -109 -12 -24 -4 -27 -7 -13 -15 22 -12 23 -111 2 -191 -17 -66
-68 -172 -98 -204 -36 -40 -12 -35 36 7 57 50 100 149 123 281 9 52 17 96 19
97 4 4 172 17 348 27 64 4 117 11 117 15 0 21 -70 31 -145 21 -98 -14 -95 -14
-95 8 0 11 -10 27 -22 35 -24 17 -58 21 -58 7z"/>
</g>
</svg>
