<?xml version="1.0" standalone="no"?>
<!DOCTYPE svg PUBLIC "-//W3C//DTD SVG 20010904//EN"
 "http://www.w3.org/TR/2001/REC-SVG-20010904/DTD/svg10.dtd">
<svg version="1.0" xmlns="http://www.w3.org/2000/svg"
 width="96.000000pt" height="68.000000pt" viewBox="0 0 96.000000 68.000000"
 preserveAspectRatio="xMidYMid meet">
<metadata>
Created by potrace 1.16, written by Peter Selinger 2001-2019
</metadata>
<g transform="translate(0.000000,68.000000) scale(0.100000,-0.100000)"
fill="#000000" stroke="none">
<path d="M675 254 c-44 -8 -127 -16 -185 -19 -79 -3 -104 -8 -101 -17 3 -7 6
-40 7 -73 1 -33 3 -64 3 -68 1 -5 7 -7 14 -5 7 3 14 30 17 68 5 62 6 64 35 67
17 2 57 8 90 13 33 5 94 11 135 12 l75 3 3 -49 c2 -27 1 -61 -3 -74 -5 -22
-10 -23 -42 -17 l-35 6 22 -30 c24 -34 50 -39 74 -15 17 16 20 25 36 119 10
56 9 61 -12 77 -26 20 -25 20 -133 2z"/>
</g>
</svg>
