<?xml version="1.0" standalone="no"?>
<!DOCTYPE svg PUBLIC "-//W3C//DTD SVG 20010904//EN"
 "http://www.w3.org/TR/2001/REC-SVG-20010904/DTD/svg10.dtd">
<svg version="1.0" xmlns="http://www.w3.org/2000/svg"
 width="96.000000pt" height="68.000000pt" viewBox="0 0 96.000000 68.000000"
 preserveAspectRatio="xMidYMid meet">
<metadata>
Created by potrace 1.16, written by Peter Selinger 2001-2019
</metadata>
<g transform="translate(0.000000,68.000000) scale(0.100000,-0.100000)"
fill="#000000" stroke="none">
<path d="M226 524 c4 -16 8 -49 8 -74 l1 -45 -67 2 -67 1 19 -26 c10 -15 24
-46 30 -70 10 -39 13 -42 38 -36 15 4 32 7 37 8 6 0 11 -18 13 -42 2 -23 6
-42 10 -42 19 1 31 18 34 50 3 33 5 35 46 38 29 2 42 8 42 18 0 8 12 33 27 55
33 50 23 61 -52 57 -45 -2 -50 0 -53 21 -2 12 1 35 6 51 12 34 3 44 -47 55
-33 7 -34 7 -25 -21z m127 -130 c3 -3 1 -20 -5 -37 -13 -38 -9 -33 -35 -41
-22 -7 -23 -4 -23 38 0 44 1 46 28 46 16 0 31 -3 35 -6z m-113 -44 c0 -37 -2
-40 -29 -40 -21 0 -30 6 -35 23 -10 38 -7 46 22 50 15 2 30 5 35 6 4 0 7 -17
7 -39z"/>
</g>
</svg>
