<?xml version="1.0" standalone="no"?>
<!DOCTYPE svg PUBLIC "-//W3C//DTD SVG 20010904//EN"
 "http://www.w3.org/TR/2001/REC-SVG-20010904/DTD/svg10.dtd">
<svg version="1.0" xmlns="http://www.w3.org/2000/svg"
 width="96.000000pt" height="68.000000pt" viewBox="0 0 96.000000 68.000000"
 preserveAspectRatio="xMidYMid meet">
<metadata>
Created by potrace 1.16, written by Peter Selinger 2001-2019
</metadata>
<g transform="translate(0.000000,68.000000) scale(0.100000,-0.100000)"
fill="#000000" stroke="none">
<path d="M620 480 c-30 -4 -91 -9 -135 -9 -54 -1 -75 -4 -65 -11 8 -5 22 -30
31 -57 l15 -47 90 4 c49 3 110 4 135 4 41 -1 48 2 70 34 13 20 30 42 38 49 10
11 11 17 3 25 -15 15 -110 19 -182 8z m105 -42 c-4 -13 -8 -30 -11 -38 -3 -12
-26 -16 -113 -18 l-109 -3 -11 32 c-6 17 -11 33 -11 35 0 4 88 10 183 12 77 2
78 2 72 -20z"/>
</g>
</svg>
