<?xml version="1.0" standalone="no"?>
<!DOCTYPE svg PUBLIC "-//W3C//DTD SVG 20010904//EN"
 "http://www.w3.org/TR/2001/REC-SVG-20010904/DTD/svg10.dtd">
<svg version="1.0" xmlns="http://www.w3.org/2000/svg"
 width="96.000000pt" height="68.000000pt" viewBox="0 0 96.000000 68.000000"
 preserveAspectRatio="xMidYMid meet">
<metadata>
Created by potrace 1.16, written by Peter Selinger 2001-2019
</metadata>
<g transform="translate(0.000000,68.000000) scale(0.100000,-0.100000)"
fill="#000000" stroke="none">
<path d="M540 551 c0 -4 11 -25 25 -45 28 -42 30 -48 13 -45 -7 2 -46 -3 -86
-10 -51 -9 -71 -16 -64 -23 8 -8 30 -7 72 1 34 7 64 10 67 7 12 -12 -22 -69
-65 -106 -31 -27 -42 -45 -38 -56 4 -12 13 -14 29 -9 12 3 42 9 67 12 l45 5
-27 -26 c-15 -14 -55 -44 -90 -66 -71 -45 -55 -55 27 -16 65 30 218 176 213
202 -5 30 -24 22 -56 -22 -31 -43 -59 -54 -131 -54 l-36 1 59 56 c50 47 57 58
48 73 -9 15 -6 19 20 24 17 3 60 6 97 6 79 0 110 13 68 29 -19 7 -42 8 -70 2
-104 -24 -107 -23 -107 9 0 23 -7 33 -30 45 -33 17 -50 19 -50 6z"/>
<path d="M290 509 c-19 -5 -55 -8 -80 -7 -35 1 -44 -2 -40 -13 3 -8 4 -71 2
-140 -3 -103 0 -128 12 -138 8 -7 20 -10 26 -6 5 3 10 -2 10 -13 0 -11 -21
-43 -46 -71 -26 -29 -45 -54 -42 -56 5 -6 74 44 117 84 34 32 40 51 14 51 -9
0 -13 3 -10 6 12 12 91 13 98 2 4 -6 14 -8 22 -5 18 7 27 72 27 199 0 97 -1
99 -26 108 -29 11 -36 11 -84 -1z m48 -64 c2 -33 1 -35 -26 -35 -16 0 -44 -3
-61 -6 -29 -6 -31 -5 -31 25 0 36 21 49 80 50 34 1 36 -1 38 -34z m2 -90 c0
-19 -5 -25 -22 -25 -13 0 -40 -3 -60 -6 -36 -6 -38 -5 -38 19 0 22 5 26 38 30
83 8 82 9 82 -18z m4 -81 c4 -15 6 -28 4 -29 -2 -2 -33 -6 -70 -10 -62 -7 -68
-6 -68 11 0 38 19 48 101 53 21 1 28 -5 33 -25z"/>
<path d="M722 274 c-22 -39 -121 -128 -181 -161 -36 -20 -60 -38 -53 -41 18
-6 81 17 131 49 25 16 50 29 55 29 6 -1 29 -23 50 -50 43 -55 66 -64 66 -26 0
25 -44 69 -80 81 -29 9 -25 19 27 64 46 39 47 41 28 55 -26 20 -32 20 -43 0z"/>
<path d="M320 173 c0 -11 62 -93 71 -93 23 0 20 33 -6 60 -24 25 -65 46 -65
33z"/>
</g>
</svg>
