<?xml version="1.0" standalone="no"?>
<!DOCTYPE svg PUBLIC "-//W3C//DTD SVG 20010904//EN"
 "http://www.w3.org/TR/2001/REC-SVG-20010904/DTD/svg10.dtd">
<svg version="1.0" xmlns="http://www.w3.org/2000/svg"
 width="96.000000pt" height="68.000000pt" viewBox="0 0 96.000000 68.000000"
 preserveAspectRatio="xMidYMid meet">
<metadata>
Created by potrace 1.16, written by Peter Selinger 2001-2019
</metadata>
<g transform="translate(0.000000,68.000000) scale(0.100000,-0.100000)"
fill="#000000" stroke="none">
<path d="M517 583 c-3 -16 -22 -54 -41 -85 -39 -66 -33 -73 21 -24 35 30 45
34 121 39 89 7 106 12 96 29 -6 10 -87 5 -142 -9 l-24 -6 18 28 c17 27 17 28
-1 41 -28 21 -42 17 -48 -13z"/>
<path d="M275 563 c-8 -33 -66 -115 -97 -136 -13 -9 -18 -16 -12 -16 6 -1 35
16 66 38 48 33 64 39 125 43 80 6 109 17 76 29 -12 4 -46 2 -77 -5 -31 -8 -56
-11 -56 -8 0 3 10 16 22 29 21 23 21 23 2 38 -28 21 -41 18 -49 -12z"/>
<path d="M556 458 c17 -31 39 -48 61 -48 29 0 30 24 1 44 -27 20 -72 22 -62 4z"/>
<path d="M290 430 c22 -31 60 -41 60 -16 0 18 -38 46 -63 46 -17 0 -17 -2 3
-30z"/>
</g>
</svg>
