<?xml version="1.0" standalone="no"?>
<!DOCTYPE svg PUBLIC "-//W3C//DTD SVG 20010904//EN"
 "http://www.w3.org/TR/2001/REC-SVG-20010904/DTD/svg10.dtd">
<svg version="1.0" xmlns="http://www.w3.org/2000/svg"
 width="96.000000pt" height="68.000000pt" viewBox="0 0 96.000000 68.000000"
 preserveAspectRatio="xMidYMid meet">
<metadata>
Created by potrace 1.16, written by Peter Selinger 2001-2019
</metadata>
<g transform="translate(0.000000,68.000000) scale(0.100000,-0.100000)"
fill="#000000" stroke="none">
<path d="M381 538 c6 -13 22 -37 35 -55 29 -38 29 -39 -98 -49 -49 -3 -88 -10
-88 -14 0 -17 52 -20 185 -9 165 13 267 30 272 46 6 16 -56 24 -102 13 -22 -5
-54 -10 -72 -10 -27 0 -32 4 -35 27 -3 30 -57 73 -90 73 -16 0 -17 -3 -7 -22z"/>
</g>
</svg>
