<?xml version="1.0" standalone="no"?>
<!DOCTYPE svg PUBLIC "-//W3C//DTD SVG 20010904//EN"
 "http://www.w3.org/TR/2001/REC-SVG-20010904/DTD/svg10.dtd">
<svg version="1.0" xmlns="http://www.w3.org/2000/svg"
 width="96.000000pt" height="68.000000pt" viewBox="0 0 96.000000 68.000000"
 preserveAspectRatio="xMidYMid meet">
<metadata>
Created by potrace 1.16, written by Peter Selinger 2001-2019
</metadata>
<g transform="translate(0.000000,68.000000) scale(0.100000,-0.100000)"
fill="#000000" stroke="none">
<path d="M600 595 c-30 -8 -84 -14 -119 -15 -54 0 -62 -2 -51 -15 6 -8 20 -40
29 -72 l17 -58 97 1 98 1 34 72 35 72 -35 15 c-40 16 -34 16 -105 -1z m66 -45
c1 -24 -2 -25 -63 -27 -36 0 -75 -4 -88 -7 -18 -5 -27 -1 -35 15 -7 11 -10 23
-7 25 7 7 120 22 157 21 30 -2 35 -6 36 -27z m-16 -58 c0 -14 -14 -20 -71 -31
-74 -13 -97 -7 -86 23 4 10 24 16 64 19 32 2 66 4 76 5 10 1 17 -5 17 -16z"/>
<path d="M257 561 c-10 -21 -41 -58 -72 -82 -51 -41 -64 -66 -27 -52 30 12
116 69 156 105 l39 35 -24 16 c-36 25 -52 20 -72 -22z"/>
<path d="M283 422 c-23 -50 -106 -141 -154 -169 -16 -10 -29 -21 -29 -25 0
-12 69 25 114 61 22 17 41 29 43 27 9 -8 4 -133 -6 -159 -13 -33 -4 -77 14
-77 18 0 22 18 30 136 4 69 3 104 -4 109 -17 10 -13 19 29 68 l40 46 -22 15
c-12 9 -25 16 -28 16 -3 0 -15 -21 -27 -48z"/>
<path d="M640 395 c-8 -2 -56 -9 -107 -16 -108 -14 -118 -35 -12 -26 62 5 69
4 75 -15 3 -11 2 -24 -3 -28 -4 -5 -63 -14 -130 -21 -68 -6 -123 -15 -123 -19
0 -14 36 -17 96 -10 32 5 82 11 110 14 l51 6 6 -52 c3 -29 3 -69 -2 -88 -7
-32 -10 -35 -39 -32 -18 1 -32 0 -32 -3 0 -11 61 -65 74 -65 36 0 46 28 46
134 l0 103 46 7 c26 3 68 6 95 6 26 0 51 4 54 10 10 16 -42 23 -120 15 -63 -6
-75 -4 -75 8 0 9 -3 22 -6 31 -5 13 2 16 35 16 23 0 41 5 41 10 0 6 -6 10 -12
10 -7 0 -22 2 -33 4 -11 2 -27 3 -35 1z"/>
<path d="M445 229 c26 -45 75 -68 75 -35 0 18 -19 33 -54 42 -23 5 -27 4 -21
-7z"/>
</g>
</svg>
