<?xml version="1.0" standalone="no"?>
<!DOCTYPE svg PUBLIC "-//W3C//DTD SVG 20010904//EN"
 "http://www.w3.org/TR/2001/REC-SVG-20010904/DTD/svg10.dtd">
<svg version="1.0" xmlns="http://www.w3.org/2000/svg"
 width="96.000000pt" height="68.000000pt" viewBox="0 0 96.000000 68.000000"
 preserveAspectRatio="xMidYMid meet">
<metadata>
Created by potrace 1.16, written by Peter Selinger 2001-2019
</metadata>
<g transform="translate(0.000000,68.000000) scale(0.100000,-0.100000)"
fill="#000000" stroke="none">
<path d="M411 651 c-10 -6 -11 -13 -2 -29 6 -11 11 -41 11 -65 0 -50 -10 -57
-83 -57 -36 0 -37 1 -31 28 4 15 7 31 8 36 0 5 -14 15 -31 22 l-33 14 0 -41
c0 -22 -5 -49 -11 -60 -15 -29 -2 -59 26 -59 13 0 51 7 85 16 34 8 64 14 66
11 2 -2 -9 -24 -26 -48 -30 -45 -118 -114 -225 -175 -33 -19 -49 -32 -35 -29
39 10 182 82 212 107 86 72 108 88 121 88 11 0 105 -68 200 -146 19 -15 152
-20 161 -6 3 5 -27 19 -67 31 -100 32 -264 126 -283 162 -14 28 -14 29 9 29
13 0 45 3 71 6 38 6 46 4 46 -10 0 -19 33 -22 48 -3 5 6 15 35 20 62 12 56 1
75 -47 75 -25 0 -26 -2 -23 -45 l4 -45 -62 0 -62 0 4 55 c3 33 0 59 -6 64 -19
15 -51 21 -65 12z"/>
<path d="M440 314 c-19 -7 -45 -13 -57 -13 -12 -1 -25 -6 -29 -12 -7 -12 41
-9 139 7 35 6 53 24 23 24 -8 0 -20 2 -28 4 -7 2 -29 -2 -48 -10z"/>
<path d="M472 240 c-19 -4 -67 -11 -108 -15 -41 -4 -72 -11 -68 -16 7 -12 52
-11 151 3 45 7 85 9 88 6 8 -8 -29 -82 -62 -125 -13 -18 -21 -33 -18 -33 23 0
122 94 155 146 13 22 13 26 0 34 -18 11 -91 11 -138 0z"/>
</g>
</svg>
