<?xml version="1.0" standalone="no"?>
<!DOCTYPE svg PUBLIC "-//W3C//DTD SVG 20010904//EN"
 "http://www.w3.org/TR/2001/REC-SVG-20010904/DTD/svg10.dtd">
<svg version="1.0" xmlns="http://www.w3.org/2000/svg"
 width="96.000000pt" height="68.000000pt" viewBox="0 0 96.000000 68.000000"
 preserveAspectRatio="xMidYMid meet">
<metadata>
Created by potrace 1.16, written by Peter Selinger 2001-2019
</metadata>
<g transform="translate(0.000000,68.000000) scale(0.100000,-0.100000)"
fill="#000000" stroke="none">
<path d="M386 393 c25 -71 30 -65 -120 -126 l-58 -24 23 -17 c31 -22 36 -21
99 19 30 19 57 35 60 35 7 0 2 -95 -5 -118 -3 -8 -14 -10 -32 -6 l-28 7 35
-37 c30 -32 36 -34 49 -22 16 17 30 87 30 161 1 49 2 51 46 75 55 30 60 46 8
24 -55 -22 -58 -22 -61 11 -4 36 -19 55 -42 55 -16 0 -16 -3 -4 -37z"/>
</g>
</svg>
