<?xml version="1.0" standalone="no"?>
<!DOCTYPE svg PUBLIC "-//W3C//DTD SVG 20010904//EN"
 "http://www.w3.org/TR/2001/REC-SVG-20010904/DTD/svg10.dtd">
<svg version="1.0" xmlns="http://www.w3.org/2000/svg"
 width="96.000000pt" height="68.000000pt" viewBox="0 0 96.000000 68.000000"
 preserveAspectRatio="xMidYMid meet">
<metadata>
Created by potrace 1.16, written by Peter Selinger 2001-2019
</metadata>
<g transform="translate(0.000000,68.000000) scale(0.100000,-0.100000)"
fill="#000000" stroke="none">
<path d="M625 505 c-44 -7 -115 -16 -159 -20 -49 -4 -75 -10 -69 -16 6 -6 59
-4 142 6 171 19 181 19 181 -3 0 -42 -21 -52 -145 -67 -65 -8 -143 -15 -171
-15 l-52 0 5 -38 c4 -28 1 -43 -12 -55 -25 -25 -12 -51 23 -43 146 32 366 53
391 37 10 -6 12 -19 7 -44 -8 -45 -26 -60 -62 -51 l-27 7 29 -37 c16 -20 32
-36 35 -36 19 0 49 41 64 87 9 29 21 55 26 58 5 4 9 12 9 20 0 29 -53 32 -249
13 -107 -10 -196 -16 -198 -14 -2 2 -1 20 2 39 7 34 8 34 68 41 34 3 112 9
174 13 62 3 110 10 107 15 -3 5 6 29 20 54 l25 45 -25 9 c-29 12 -33 11 -139
-5z"/>
</g>
</svg>
