<?xml version="1.0" standalone="no"?>
<!DOCTYPE svg PUBLIC "-//W3C//DTD SVG 20010904//EN"
 "http://www.w3.org/TR/2001/REC-SVG-20010904/DTD/svg10.dtd">
<svg version="1.0" xmlns="http://www.w3.org/2000/svg"
 width="96.000000pt" height="68.000000pt" viewBox="0 0 96.000000 68.000000"
 preserveAspectRatio="xMidYMid meet">
<metadata>
Created by potrace 1.16, written by Peter Selinger 2001-2019
</metadata>
<g transform="translate(0.000000,68.000000) scale(0.100000,-0.100000)"
fill="#000000" stroke="none">
<path d="M290 568 c-18 -61 -50 -113 -120 -191 -33 -37 -60 -70 -60 -73 0 -11
47 22 92 64 36 33 49 41 53 30 3 -8 1 -66 -6 -129 -14 -145 -14 -168 0 -182
26 -26 36 13 42 171 5 120 3 160 -7 171 -10 11 -4 26 33 82 38 57 44 71 33 84
-23 28 -46 18 -60 -27z"/>
</g>
</svg>
