<?xml version="1.0" standalone="no"?>
<!DOCTYPE svg PUBLIC "-//W3C//DTD SVG 20010904//EN"
 "http://www.w3.org/TR/2001/REC-SVG-20010904/DTD/svg10.dtd">
<svg version="1.0" xmlns="http://www.w3.org/2000/svg"
 width="96.000000pt" height="68.000000pt" viewBox="0 0 96.000000 68.000000"
 preserveAspectRatio="xMidYMid meet">
<metadata>
Created by potrace 1.16, written by Peter Selinger 2001-2019
</metadata>
<g transform="translate(0.000000,68.000000) scale(0.100000,-0.100000)"
fill="#000000" stroke="none">
<path d="M310 573 c0 -74 -6 -81 -71 -88 -70 -8 -69 -25 2 -25 46 0 49 -2 49
-26 0 -36 34 -29 38 8 3 24 9 28 55 35 58 9 62 29 5 25 -42 -3 -45 3 -24 52
16 39 7 56 -31 56 -20 0 -23 -5 -23 -37z"/>
</g>
</svg>
