<?xml version="1.0" standalone="no"?>
<!DOCTYPE svg PUBLIC "-//W3C//DTD SVG 20010904//EN"
 "http://www.w3.org/TR/2001/REC-SVG-20010904/DTD/svg10.dtd">
<svg version="1.0" xmlns="http://www.w3.org/2000/svg"
 width="96.000000pt" height="68.000000pt" viewBox="0 0 96.000000 68.000000"
 preserveAspectRatio="xMidYMid meet">
<metadata>
Created by potrace 1.16, written by Peter Selinger 2001-2019
</metadata>
<g transform="translate(0.000000,68.000000) scale(0.100000,-0.100000)"
fill="#000000" stroke="none">
<path d="M646 534 c-10 -26 -34 -66 -52 -90 -40 -52 -36 -55 16 -14 21 17 41
30 45 30 3 0 21 -11 39 -25 32 -24 66 -33 66 -17 -1 17 -18 32 -53 47 -20 8
-37 18 -37 21 0 3 12 20 26 37 24 29 25 32 8 44 -29 21 -38 16 -58 -33z"/>
</g>
</svg>
