<?xml version="1.0" standalone="no"?>
<!DOCTYPE svg PUBLIC "-//W3C//DTD SVG 20010904//EN"
 "http://www.w3.org/TR/2001/REC-SVG-20010904/DTD/svg10.dtd">
<svg version="1.0" xmlns="http://www.w3.org/2000/svg"
 width="96.000000pt" height="68.000000pt" viewBox="0 0 96.000000 68.000000"
 preserveAspectRatio="xMidYMid meet">
<metadata>
Created by potrace 1.16, written by Peter Selinger 2001-2019
</metadata>
<g transform="translate(0.000000,68.000000) scale(0.100000,-0.100000)"
fill="#000000" stroke="none">
<path d="M545 568 l0 -53 -47 -3 c-61 -4 -63 -22 -3 -22 26 0 45 -5 45 -11 0
-6 -28 -38 -61 -70 -81 -78 -41 -78 44 0 l28 26 -6 -41 c-5 -30 -3 -43 9 -53
23 -19 30 -8 36 55 l5 54 35 -30 c49 -42 100 -52 100 -19 0 15 -60 47 -102 54
-28 5 -38 12 -38 25 0 13 11 19 46 25 60 9 75 15 68 27 -4 6 -28 7 -61 3 l-55
-7 4 44 c3 40 1 43 -22 46 -25 3 -26 1 -25 -50z"/>
</g>
</svg>
