<?xml version="1.0" standalone="no"?>
<!DOCTYPE svg PUBLIC "-//W3C//DTD SVG 20010904//EN"
 "http://www.w3.org/TR/2001/REC-SVG-20010904/DTD/svg10.dtd">
<svg version="1.0" xmlns="http://www.w3.org/2000/svg"
 width="96.000000pt" height="68.000000pt" viewBox="0 0 96.000000 68.000000"
 preserveAspectRatio="xMidYMid meet">
<metadata>
Created by potrace 1.16, written by Peter Selinger 2001-2019
</metadata>
<g transform="translate(0.000000,68.000000) scale(0.100000,-0.100000)"
fill="#000000" stroke="none">
<path d="M534 578 c4 -13 10 -46 13 -74 l5 -51 -47 -6 c-26 -4 -65 -7 -86 -7
-21 0 -41 -4 -44 -10 -10 -17 44 -23 103 -11 41 8 58 8 63 0 4 -6 7 -82 7
-169 0 -171 6 -200 30 -154 12 21 17 70 20 187 l4 157 77 1 c42 0 94 4 116 8
l40 7 -35 12 c-26 9 -56 9 -110 2 -41 -5 -78 -10 -82 -10 -4 0 -8 30 -10 68
l-3 67 -34 3 c-31 3 -33 2 -27 -20z"/>
</g>
</svg>
