<?xml version="1.0" standalone="no"?>
<!DOCTYPE svg PUBLIC "-//W3C//DTD SVG 20010904//EN"
 "http://www.w3.org/TR/2001/REC-SVG-20010904/DTD/svg10.dtd">
<svg version="1.0" xmlns="http://www.w3.org/2000/svg"
 width="96.000000pt" height="68.000000pt" viewBox="0 0 96.000000 68.000000"
 preserveAspectRatio="xMidYMid meet">
<metadata>
Created by potrace 1.16, written by Peter Selinger 2001-2019
</metadata>
<g transform="translate(0.000000,68.000000) scale(0.100000,-0.100000)"
fill="#000000" stroke="none">
<path d="M525 615 c-6 -8 -36 -30 -69 -49 -43 -26 -66 -34 -86 -29 -28 5 -28
5 -23 -40 7 -55 -21 -196 -49 -251 -22 -44 -73 -113 -98 -133 -13 -11 -13 -12
0 -13 26 0 104 83 132 140 14 30 32 78 39 106 l12 52 96 7 c53 4 112 9 131 11
19 1 48 3 64 3 20 1 27 5 23 15 -3 8 6 27 20 42 l25 27 -23 19 c-18 14 -34 17
-64 13 -211 -29 -281 -31 -205 -6 30 10 82 30 115 45 56 26 58 29 40 42 -25
18 -67 18 -80 -1z m135 -130 c0 -33 -20 -41 -125 -49 -49 -4 -102 -9 -117 -12
-24 -5 -28 -2 -28 19 0 37 18 46 121 55 154 15 149 15 149 -13z"/>
<path d="M580 365 c-36 -7 -89 -13 -119 -14 -47 -1 -52 -3 -41 -16 20 -25 5
-159 -25 -220 -13 -27 -22 -52 -19 -55 8 -7 64 61 64 77 0 16 3 16 33 2 20 -9
35 -5 96 27 39 20 71 40 71 44 0 5 -34 -3 -75 -16 -111 -35 -107 -37 -99 49 3
39 10 76 15 82 5 5 44 9 87 10 l77 0 0 -120 0 -120 -32 1 c-18 1 -33 0 -33 -2
0 -9 66 -63 77 -64 26 0 38 45 38 155 0 61 4 124 9 141 7 29 6 32 -25 43 -17
6 -32 10 -33 10 -1 -1 -30 -7 -66 -14z"/>
<path d="M484 273 c12 -20 95 -56 112 -49 18 7 17 9 -9 32 -20 17 -40 24 -68
24 -22 0 -38 -3 -35 -7z"/>
</g>
</svg>
