<?xml version="1.0" standalone="no"?>
<!DOCTYPE svg PUBLIC "-//W3C//DTD SVG 20010904//EN"
 "http://www.w3.org/TR/2001/REC-SVG-20010904/DTD/svg10.dtd">
<svg version="1.0" xmlns="http://www.w3.org/2000/svg"
 width="96.000000pt" height="68.000000pt" viewBox="0 0 96.000000 68.000000"
 preserveAspectRatio="xMidYMid meet">
<metadata>
Created by potrace 1.16, written by Peter Selinger 2001-2019
</metadata>
<g transform="translate(0.000000,68.000000) scale(0.100000,-0.100000)"
fill="#000000" stroke="none">
<path d="M346 493 c12 -104 -42 -261 -120 -350 -21 -24 -36 -46 -34 -49 3 -2
27 14 55 35 55 44 104 130 124 218 l12 50 158 13 c113 9 156 16 153 24 -3 7 7
25 22 41 l26 28 -23 19 c-17 13 -34 17 -59 13 -19 -2 -83 -10 -142 -16 -95
-10 -109 -9 -123 5 -9 9 -25 16 -35 16 -17 0 -18 -6 -14 -47z m314 0 c-1 -43
-8 -45 -217 -67 -51 -5 -53 -4 -53 19 0 34 25 44 127 54 140 13 143 13 143 -6z"/>
</g>
</svg>
