<?xml version="1.0" standalone="no"?>
<!DOCTYPE svg PUBLIC "-//W3C//DTD SVG 20010904//EN"
 "http://www.w3.org/TR/2001/REC-SVG-20010904/DTD/svg10.dtd">
<svg version="1.0" xmlns="http://www.w3.org/2000/svg"
 width="96.000000pt" height="68.000000pt" viewBox="0 0 96.000000 68.000000"
 preserveAspectRatio="xMidYMid meet">
<metadata>
Created by potrace 1.16, written by Peter Selinger 2001-2019
</metadata>
<g transform="translate(0.000000,68.000000) scale(0.100000,-0.100000)"
fill="#000000" stroke="none">
<path d="M260 598 c0 -22 56 -70 77 -66 25 4 29 44 6 56 -36 19 -83 25 -83 10z"/>
<path d="M568 516 l4 -84 -51 -7 c-65 -9 -66 -25 -2 -25 54 0 60 -8 53 -62 -4
-26 -7 -27 -83 -34 -102 -9 -105 -28 -4 -22 59 3 75 0 75 -11 0 -7 -31 -44
-69 -81 -50 -49 -66 -71 -58 -79 15 -15 28 -14 156 15 l113 25 33 -38 33 -38
10 25 c13 34 -8 73 -58 107 -46 30 -60 25 -36 -13 10 -14 16 -27 14 -29 -4 -5
-165 -25 -193 -25 -15 1 -5 14 44 59 42 39 62 64 58 74 -4 12 9 16 71 21 128
11 172 17 172 26 0 17 -69 22 -133 11 -90 -16 -97 -15 -97 12 0 53 10 65 59
72 26 3 53 10 61 15 24 15 -14 23 -66 15 l-46 -7 4 76 c3 68 2 75 -17 80 -49
13 -50 11 -47 -78z"/>
<path d="M295 474 c-22 -8 -66 -17 -97 -21 -60 -6 -75 -18 -34 -29 20 -5 85 9
139 31 36 15 15 -26 -55 -107 -40 -46 -80 -88 -88 -94 -45 -35 -62 -54 -48
-54 16 0 87 48 130 88 15 14 31 23 34 19 3 -3 1 -51 -5 -106 -9 -77 -9 -105 0
-122 11 -22 12 -22 25 -4 10 13 14 49 14 111 0 51 4 95 10 99 5 3 18 0 29 -7
16 -10 23 -10 32 -1 9 9 5 15 -17 24 -76 30 -77 35 -15 100 28 29 51 56 51 59
0 7 -46 30 -58 29 -4 0 -25 -7 -47 -15z"/>
</g>
</svg>
