<?xml version="1.0" standalone="no"?>
<!DOCTYPE svg PUBLIC "-//W3C//DTD SVG 20010904//EN"
 "http://www.w3.org/TR/2001/REC-SVG-20010904/DTD/svg10.dtd">
<svg version="1.0" xmlns="http://www.w3.org/2000/svg"
 width="96.000000pt" height="68.000000pt" viewBox="0 0 96.000000 68.000000"
 preserveAspectRatio="xMidYMid meet">
<metadata>
Created by potrace 1.16, written by Peter Selinger 2001-2019
</metadata>
<g transform="translate(0.000000,68.000000) scale(0.100000,-0.100000)"
fill="#000000" stroke="none">
<path d="M562 268 c-32 -42 -117 -125 -132 -130 -13 -4 -13 -7 -1 -21 18 -22
26 -22 161 9 l114 26 29 -36 c31 -39 47 -39 47 0 0 38 -16 61 -61 90 -47 29
-59 26 -35 -12 10 -14 16 -27 14 -30 -4 -4 -173 -24 -198 -24 -8 1 14 27 49
60 43 40 62 64 58 74 -9 22 -24 20 -45 -6z"/>
</g>
</svg>
