<?xml version="1.0" standalone="no"?>
<!DOCTYPE svg PUBLIC "-//W3C//DTD SVG 20010904//EN"
 "http://www.w3.org/TR/2001/REC-SVG-20010904/DTD/svg10.dtd">
<svg version="1.0" xmlns="http://www.w3.org/2000/svg"
 width="96.000000pt" height="68.000000pt" viewBox="0 0 96.000000 68.000000"
 preserveAspectRatio="xMidYMid meet">
<metadata>
Created by potrace 1.16, written by Peter Selinger 2001-2019
</metadata>
<g transform="translate(0.000000,68.000000) scale(0.100000,-0.100000)"
fill="#000000" stroke="none">
<path d="M562 433 l3 -38 -45 -5 c-29 -3 -40 -8 -32 -13 7 -5 27 -7 45 -5 26
2 33 -1 35 -18 2 -17 -4 -23 -29 -28 -17 -3 -44 -6 -60 -6 -16 0 -29 -4 -29
-10 0 -6 27 -10 60 -10 33 0 60 -4 60 -9 0 -28 -15 -41 -45 -41 -63 0 -74 -15
-15 -20 48 -4 55 -8 58 -27 5 -32 30 -29 34 5 3 26 6 27 66 30 52 2 63 6 58
18 -3 9 -3 26 0 40 5 19 13 24 39 24 18 0 47 3 65 6 43 9 19 24 -39 24 -37 0
-42 2 -36 18 21 50 -16 70 -91 47 -46 -14 -48 -13 -44 19 2 21 -16 36 -43 36
-15 0 -18 -7 -15 -37z m138 -68 c0 -15 -6 -25 -14 -25 -7 0 -28 -3 -45 -6 -28
-6 -31 -4 -31 18 0 33 7 38 52 38 34 0 38 -3 38 -25z m-10 -59 c0 -22 -29 -46
-56 -46 -19 0 -24 5 -24 24 0 24 6 27 68 35 6 0 12 -5 12 -13z"/>
</g>
</svg>
