<?xml version="1.0" standalone="no"?>
<!DOCTYPE svg PUBLIC "-//W3C//DTD SVG 20010904//EN"
 "http://www.w3.org/TR/2001/REC-SVG-20010904/DTD/svg10.dtd">
<svg version="1.0" xmlns="http://www.w3.org/2000/svg"
 width="96.000000pt" height="68.000000pt" viewBox="0 0 96.000000 68.000000"
 preserveAspectRatio="xMidYMid meet">
<metadata>
Created by potrace 1.16, written by Peter Selinger 2001-2019
</metadata>
<g transform="translate(0.000000,68.000000) scale(0.100000,-0.100000)"
fill="#000000" stroke="none">
<path d="M590 560 c-14 -4 -44 -8 -67 -9 -41 -1 -42 -2 -37 -29 7 -34 -12
-109 -32 -129 -23 -24 -16 -35 12 -17 31 21 64 83 64 123 0 28 3 30 44 36 25
4 49 4 55 0 6 -3 11 -34 11 -69 0 -58 2 -64 25 -74 31 -14 141 -16 150 -3 10
17 -19 26 -80 26 l-60 0 3 45 c2 25 7 49 12 54 39 39 -27 69 -100 46z"/>
<path d="M285 523 c-26 -9 -57 -13 -87 -9 -43 5 -62 -4 -39 -18 4 -3 16 -33
25 -66 l17 -61 34 7 33 6 -1 -104 -2 -103 -27 -3 c-29 -3 -34 9 -40 98 -3 28
-8 36 -27 38 -18 3 -22 0 -18 -11 3 -9 9 -43 13 -76 l7 -61 -37 0 c-40 0 -45
-6 -18 -26 22 -17 53 -17 99 0 21 8 71 24 110 36 40 12 70 26 68 30 -3 5 -20
4 -38 -1 -48 -14 -48 -13 -45 38 3 47 4 48 41 54 42 7 60 18 31 20 -66 3 -64
2 -64 44 0 20 6 27 30 32 24 4 29 10 25 24 -3 10 4 37 15 60 13 25 18 45 12
51 -16 16 -76 17 -117 1z m40 -60 c-8 -44 -18 -53 -62 -53 -27 0 -32 4 -38 31
-8 37 -1 46 45 52 19 2 41 5 49 5 10 2 12 -7 6 -35z"/>
<path d="M558 364 c-4 -3 -2 -19 2 -35 5 -16 5 -31 2 -33 -4 -2 -42 -7 -85
-11 -91 -9 -93 -29 -2 -29 30 0 55 -2 55 -6 0 -10 -94 -95 -139 -125 -24 -16
-39 -31 -33 -33 16 -5 71 26 139 79 35 27 65 49 68 49 3 0 2 -36 -1 -80 -5
-60 -4 -84 7 -96 22 -27 39 10 39 88 0 79 1 79 74 11 45 -44 64 -49 125 -37
31 6 34 24 4 24 -26 0 -155 67 -186 95 -15 14 -25 30 -22 36 4 5 49 9 101 9
52 0 94 4 94 9 0 16 -37 22 -112 20 l-73 -2 -3 29 c-5 36 -35 58 -54 38z"/>
</g>
</svg>
