<?xml version="1.0" standalone="no"?>
<!DOCTYPE svg PUBLIC "-//W3C//DTD SVG 20010904//EN"
 "http://www.w3.org/TR/2001/REC-SVG-20010904/DTD/svg10.dtd">
<svg version="1.0" xmlns="http://www.w3.org/2000/svg"
 width="96.000000pt" height="68.000000pt" viewBox="0 0 96.000000 68.000000"
 preserveAspectRatio="xMidYMid meet">
<metadata>
Created by potrace 1.16, written by Peter Selinger 2001-2019
</metadata>
<g transform="translate(0.000000,68.000000) scale(0.100000,-0.100000)"
fill="#000000" stroke="none">
<path d="M510 188 c0 -5 7 -11 15 -14 11 -5 10 -12 -10 -42 -13 -21 -25 -44
-27 -51 -2 -8 -14 -25 -27 -38 -13 -13 -19 -23 -13 -23 15 0 112 101 112 117
0 7 4 13 9 13 5 0 12 7 15 16 3 8 2 13 -3 10 -5 -3 -11 1 -15 9 -5 15 -56 18
-56 3z"/>
<path d="M435 170 c-14 -7 -8 -8 20 -3 22 3 42 7 44 9 9 8 -45 2 -64 -6z"/>
<path d="M310 158 c0 -7 24 -12 43 -9 4 1 19 2 32 3 40 4 17 13 -31 13 -24 0
-44 -3 -44 -7z"/>
</g>
</svg>
