<?xml version="1.0" standalone="no"?>
<!DOCTYPE svg PUBLIC "-//W3C//DTD SVG 20010904//EN"
 "http://www.w3.org/TR/2001/REC-SVG-20010904/DTD/svg10.dtd">
<svg version="1.0" xmlns="http://www.w3.org/2000/svg"
 width="90.000000pt" height="92.000000pt" viewBox="0 0 90.000000 92.000000"
 preserveAspectRatio="xMidYMid meet">
<metadata>
Created by potrace 1.16, written by Peter Selinger 2001-2019
</metadata>
<g transform="translate(0.000000,92.000000) scale(0.100000,-0.100000)"
fill="#000000" stroke="none">
<path d="M525 827 c-55 -11 -101 -21 -103 -22 -1 -1 4 -15 13 -31 8 -16 15
-36 15 -44 0 -8 5 -32 11 -53 8 -30 13 -36 23 -28 7 6 50 16 95 23 65 9 81 14
76 26 -3 8 6 35 21 61 l25 46 -26 22 c-30 26 -20 26 -150 0z m93 -64 l-3 -47
-58 -14 c-32 -8 -61 -12 -64 -8 -3 3 -7 25 -7 48 -1 43 -1 43 44 55 25 6 55
12 68 12 21 1 23 -3 20 -46z"/>
<path d="M205 739 c-33 -13 -65 -17 -93 -14 -23 2 -42 3 -42 1 0 -1 6 -16 14
-32 8 -16 17 -54 20 -84 8 -63 21 -92 34 -73 4 7 17 10 29 7 25 -7 31 -41 29
-183 l-1 -95 -29 -7 c-17 -5 -32 -7 -34 -4 -2 2 -5 42 -7 89 -2 47 -6 90 -10
95 -7 12 -55 15 -55 4 0 -5 4 -24 9 -43 5 -19 12 -63 16 -97 l6 -63 -46 0
c-54 0 -59 -16 -15 -48 l30 -23 118 46 c162 63 162 63 162 76 0 11 -20 9 -79
-7 -20 -6 -23 -4 -18 10 4 10 7 40 7 66 0 49 0 49 38 56 20 4 44 10 52 15 25
13 -34 31 -65 19 l-26 -10 2 60 c2 59 3 60 30 60 16 0 29 5 29 10 0 6 -4 10
-9 10 -11 0 15 99 30 115 17 18 9 45 -17 55 -33 13 -49 11 -109 -11z m55 -76
c0 -27 -4 -53 -8 -59 -4 -6 -28 -16 -54 -21 -43 -10 -47 -9 -52 11 -3 11 -6
38 -6 58 0 33 3 38 28 44 15 3 32 7 37 9 6 2 20 4 33 4 20 1 22 -4 22 -46z"/>
<path d="M675 630 c-33 -10 -73 -15 -90 -12 -29 5 -29 4 -14 -14 9 -10 25 -46
34 -79 10 -33 20 -54 22 -47 3 6 17 12 31 12 54 0 103 13 98 25 -2 7 7 31 20
55 14 24 23 44 22 45 -37 25 -53 35 -58 34 -3 -1 -32 -9 -65 -19z m45 -59 c0
-32 -4 -40 -22 -45 -56 -15 -77 -1 -78 50 0 15 39 32 73 33 25 1 27 -2 27 -38z"/>
<path d="M411 605 c-30 -8 -59 -11 -63 -9 -12 7 -10 0 7 -32 8 -16 15 -41 15
-55 0 -24 29 -76 30 -53 0 7 25 15 55 19 48 6 55 9 50 25 -3 10 2 34 11 53 14
30 15 39 4 52 -15 18 -35 18 -109 0z m65 -37 c-3 -13 -6 -30 -6 -40 0 -13 -57
-44 -66 -36 -1 2 -5 20 -9 40 -6 34 -5 39 16 47 13 5 35 10 48 10 19 1 22 -3
17 -21z"/>
<path d="M528 464 c-3 -3 -2 -20 2 -39 9 -38 8 -38 -128 -51 -79 -7 -94 -15
-59 -31 21 -10 67 -6 171 12 l29 5 -5 -140 c-4 -109 -2 -144 8 -157 13 -17 15
-17 29 1 12 15 15 50 15 157 0 160 -10 149 130 149 93 0 124 10 102 32 -15 15
-101 17 -181 4 l-54 -8 7 25 c5 20 1 29 -13 37 -22 11 -45 13 -53 4z"/>
<path d="M383 252 c-13 -26 -39 -64 -58 -86 -19 -21 -35 -40 -35 -42 0 -13 81
33 113 64 58 56 64 72 37 94 -12 10 -25 18 -29 18 -3 -1 -16 -22 -28 -48z"/>
<path d="M712 210 c33 -49 67 -90 74 -90 24 0 28 47 7 82 -19 33 -106 98 -130
98 -7 0 15 -40 49 -90z"/>
</g>
</svg>
