<?xml version="1.0" standalone="no"?>
<!DOCTYPE svg PUBLIC "-//W3C//DTD SVG 20010904//EN"
 "http://www.w3.org/TR/2001/REC-SVG-20010904/DTD/svg10.dtd">
<svg version="1.0" xmlns="http://www.w3.org/2000/svg"
 width="96.000000pt" height="68.000000pt" viewBox="0 0 96.000000 68.000000"
 preserveAspectRatio="xMidYMid meet">
<metadata>
Created by potrace 1.16, written by Peter Selinger 2001-2019
</metadata>
<g transform="translate(0.000000,68.000000) scale(0.100000,-0.100000)"
fill="#000000" stroke="none">
<path d="M488 425 c-2 -3 -25 -5 -51 -6 -32 -2 -44 -6 -38 -13 5 -6 14 -28 20
-48 13 -39 15 -40 96 -22 25 5 57 68 41 84 -10 10 -59 14 -68 5z m32 -40 c0
-18 -7 -28 -26 -35 -37 -15 -43 -13 -50 16 -8 30 7 44 49 44 22 0 27 -4 27
-25z"/>
</g>
</svg>
