<?xml version="1.0" standalone="no"?>
<!DOCTYPE svg PUBLIC "-//W3C//DTD SVG 20010904//EN"
 "http://www.w3.org/TR/2001/REC-SVG-20010904/DTD/svg10.dtd">
<svg version="1.0" xmlns="http://www.w3.org/2000/svg"
 width="96.000000pt" height="68.000000pt" viewBox="0 0 96.000000 68.000000"
 preserveAspectRatio="xMidYMid meet">
<metadata>
Created by potrace 1.16, written by Peter Selinger 2001-2019
</metadata>
<g transform="translate(0.000000,68.000000) scale(0.100000,-0.100000)"
fill="#000000" stroke="none">
<path d="M378 257 l4 -34 -113 -7 c-62 -4 -115 -9 -118 -11 -20 -20 90 -27
186 -12 l52 9 3 -53 c4 -72 32 -92 133 -97 76 -4 215 14 215 28 0 17 -56 31
-84 20 -29 -11 -184 -14 -210 -4 -12 5 -16 20 -16 60 l0 54 108 0 c170 0 274
10 261 26 -17 21 -62 26 -150 15 -207 -25 -209 -25 -209 2 0 25 -16 37 -49 37
-13 0 -16 -7 -13 -33z"/>
</g>
</svg>
