<?xml version="1.0" standalone="no"?>
<!DOCTYPE svg PUBLIC "-//W3C//DTD SVG 20010904//EN"
 "http://www.w3.org/TR/2001/REC-SVG-20010904/DTD/svg10.dtd">
<svg version="1.0" xmlns="http://www.w3.org/2000/svg"
 width="96.000000pt" height="68.000000pt" viewBox="0 0 96.000000 68.000000"
 preserveAspectRatio="xMidYMid meet">
<metadata>
Created by potrace 1.16, written by Peter Selinger 2001-2019
</metadata>
<g transform="translate(0.000000,68.000000) scale(0.100000,-0.100000)"
fill="#000000" stroke="none">
<path d="M330 252 c0 -12 34 -42 48 -42 19 0 14 18 -10 34 -25 18 -38 20 -38
8z"/>
<path d="M260 232 c0 -12 34 -42 48 -42 19 0 14 28 -7 40 -24 12 -41 13 -41 2z"/>
<path d="M121 190 c-13 -43 -9 -60 14 -60 16 0 31 61 21 85 -10 26 -22 17 -35
-25z"/>
<path d="M205 200 c9 -16 20 -30 25 -30 16 0 11 47 -6 54 -30 11 -34 6 -19
-24z"/>
</g>
</svg>
