<?xml version="1.0" standalone="no"?>
<!DOCTYPE svg PUBLIC "-//W3C//DTD SVG 20010904//EN"
 "http://www.w3.org/TR/2001/REC-SVG-20010904/DTD/svg10.dtd">
<svg version="1.0" xmlns="http://www.w3.org/2000/svg"
 width="90.000000pt" height="92.000000pt" viewBox="0 0 90.000000 92.000000"
 preserveAspectRatio="xMidYMid meet">
<metadata>
Created by potrace 1.16, written by Peter Selinger 2001-2019
</metadata>
<g transform="translate(0.000000,92.000000) scale(0.100000,-0.100000)"
fill="#000000" stroke="none">
<path d="M476 842 c-3 -6 -2 -21 3 -35 5 -13 11 -53 12 -87 3 -73 3 -73 -99
-85 -52 -6 -61 -9 -51 -21 8 -10 34 -14 80 -14 l69 0 0 -62 c-1 -178 -55 -288
-200 -407 -34 -27 -7 -28 45 0 79 41 148 131 170 222 10 36 21 34 35 -7 14
-43 122 -198 156 -225 28 -22 68 -26 137 -15 20 4 37 10 37 13 0 4 -33 23 -73
43 -83 41 -171 117 -232 199 l-41 55 10 97 c8 87 12 98 30 102 12 2 47 9 78
15 67 13 79 25 43 42 -20 9 -39 9 -83 0 -30 -6 -56 -11 -57 -9 -1 1 1 36 5 77
5 49 3 79 -4 87 -16 17 -63 27 -70 15z"/>
<path d="M246 759 c-3 -18 -15 -47 -27 -65 l-20 -33 -51 39 c-80 64 -95 51
-23 -18 25 -24 45 -46 45 -50 0 -10 -58 -71 -110 -116 -36 -30 -40 -37 -20
-31 31 9 85 41 123 72 36 29 47 22 47 -26 0 -49 -75 -158 -155 -226 -30 -26
-54 -50 -51 -52 5 -6 84 34 116 59 14 11 41 40 62 64 20 24 38 39 40 33 7 -21
-11 -198 -22 -219 -11 -20 -17 -22 -60 -16 l-47 6 48 -52 c56 -60 68 -59 103
8 38 71 33 368 -8 464 -4 10 12 38 45 80 l52 64 -27 23 c-37 31 -52 29 -60 -8z"/>
<path d="M640 546 c0 -13 -17 -58 -38 -100 -21 -42 -35 -76 -31 -76 5 0 24 14
44 32 l36 31 37 -36 c41 -40 57 -45 66 -22 11 30 -18 57 -83 77 -10 3 -6 12
13 35 31 36 32 51 9 69 -29 22 -53 17 -53 -10z"/>
<path d="M360 527 c0 -12 -16 -55 -35 -95 -19 -40 -31 -72 -28 -72 4 0 21 14
39 31 l31 30 32 -32 c24 -23 35 -29 43 -21 17 17 -6 60 -38 72 -25 10 -26 11
-10 33 26 36 29 46 16 62 -20 24 -50 19 -50 -8z"/>
</g>
</svg>
