<?xml version="1.0" standalone="no"?>
<!DOCTYPE svg PUBLIC "-//W3C//DTD SVG 20010904//EN"
 "http://www.w3.org/TR/2001/REC-SVG-20010904/DTD/svg10.dtd">
<svg version="1.0" xmlns="http://www.w3.org/2000/svg"
 width="96.000000pt" height="68.000000pt" viewBox="0 0 96.000000 68.000000"
 preserveAspectRatio="xMidYMid meet">
<metadata>
Created by potrace 1.16, written by Peter Selinger 2001-2019
</metadata>
<g transform="translate(0.000000,68.000000) scale(0.100000,-0.100000)"
fill="#000000" stroke="none">
<path d="M656 370 c-8 -16 -11 -30 -6 -30 20 0 40 13 40 27 0 9 5 11 13 7 8
-5 8 -2 -2 9 -19 24 -27 21 -45 -13z"/>
<path d="M634 321 c4 -5 0 -12 -6 -14 -9 -4 -10 -6 -1 -6 6 -1 14 3 18 9 7 11
55 -8 55 -23 0 -5 7 -7 15 -3 8 3 15 1 15 -4 0 -6 5 -10 12 -10 6 0 3 9 -7 20
-10 11 -20 18 -23 15 -3 -2 -14 2 -26 10 -22 16 -61 20 -52 6z"/>
</g>
</svg>
