<?xml version="1.0" standalone="no"?>
<!DOCTYPE svg PUBLIC "-//W3C//DTD SVG 20010904//EN"
 "http://www.w3.org/TR/2001/REC-SVG-20010904/DTD/svg10.dtd">
<svg version="1.0" xmlns="http://www.w3.org/2000/svg"
 width="96.000000pt" height="68.000000pt" viewBox="0 0 96.000000 68.000000"
 preserveAspectRatio="xMidYMid meet">
<metadata>
Created by potrace 1.16, written by Peter Selinger 2001-2019
</metadata>
<g transform="translate(0.000000,68.000000) scale(0.100000,-0.100000)"
fill="#000000" stroke="none">
<path d="M586 548 c-8 -38 -54 -113 -96 -153 -43 -42 -37 -50 18 -21 45 23
122 38 207 40 l40 1 3 -118 c4 -173 -14 -220 -74 -196 -15 5 -28 8 -30 6 -8
-8 59 -77 75 -77 47 0 81 81 82 197 0 48 4 111 9 138 14 84 -20 103 -131 74
-41 -11 -84 -18 -97 -17 -21 3 -20 6 23 58 25 30 45 60 45 65 0 18 -23 35 -46
35 -16 0 -23 -8 -28 -32z"/>
</g>
</svg>
