<?xml version="1.0" standalone="no"?>
<!DOCTYPE svg PUBLIC "-//W3C//DTD SVG 20010904//EN"
 "http://www.w3.org/TR/2001/REC-SVG-20010904/DTD/svg10.dtd">
<svg version="1.0" xmlns="http://www.w3.org/2000/svg"
 width="96.000000pt" height="68.000000pt" viewBox="0 0 96.000000 68.000000"
 preserveAspectRatio="xMidYMid meet">
<metadata>
Created by potrace 1.16, written by Peter Selinger 2001-2019
</metadata>
<g transform="translate(0.000000,68.000000) scale(0.100000,-0.100000)"
fill="#000000" stroke="none">
<path d="M286 568 c-25 -97 -63 -161 -153 -258 -32 -35 -49 -60 -39 -56 44 16
127 96 177 169 29 42 57 77 63 77 6 0 25 -9 41 -20 32 -21 65 -26 65 -10 0 13
-38 36 -72 44 -17 4 -28 13 -28 23 0 15 -27 42 -43 43 -4 0 -9 -6 -11 -12z"/>
</g>
</svg>
