<?xml version="1.0" standalone="no"?>
<!DOCTYPE svg PUBLIC "-//W3C//DTD SVG 20010904//EN"
 "http://www.w3.org/TR/2001/REC-SVG-20010904/DTD/svg10.dtd">
<svg version="1.0" xmlns="http://www.w3.org/2000/svg"
 width="96.000000pt" height="68.000000pt" viewBox="0 0 96.000000 68.000000"
 preserveAspectRatio="xMidYMid meet">
<metadata>
Created by potrace 1.16, written by Peter Selinger 2001-2019
</metadata>
<g transform="translate(0.000000,68.000000) scale(0.100000,-0.100000)"
fill="#000000" stroke="none">
<path d="M507 583 c-4 -3 -7 -16 -7 -27 0 -32 -38 -124 -71 -172 -16 -23 -29
-45 -29 -49 0 -10 34 12 61 39 19 19 47 29 112 42 48 9 90 14 94 10 4 -3 -1
-22 -10 -41 l-17 -35 65 32 c35 18 65 38 65 44 0 6 -19 19 -43 28 -41 15 -47
15 -122 -4 -43 -11 -82 -20 -87 -20 -5 0 5 26 22 58 35 67 37 78 11 92 -23 12
-35 13 -44 3z"/>
<path d="M228 564 c-4 -3 -2 -19 4 -36 6 -18 9 -78 6 -147 -4 -99 -9 -124 -32
-173 -15 -31 -44 -72 -66 -92 -25 -22 -34 -36 -25 -36 46 0 122 69 151 138
l19 43 39 -50 c39 -53 59 -63 70 -35 10 26 -21 69 -63 89 -70 31 -52 77 52
137 53 31 59 53 21 70 -24 11 -28 10 -45 -14 -11 -15 -28 -37 -39 -50 l-19
-23 -1 47 c0 26 4 58 10 72 10 27 -8 56 -35 56 -7 0 -20 2 -27 5 -8 3 -17 3
-20 -1z"/>
<path d="M116 398 c4 -13 18 -40 31 -61 30 -48 59 -47 56 2 -1 39 -26 66 -66
75 -26 6 -28 5 -21 -16z"/>
<path d="M508 301 c6 -78 -43 -154 -128 -196 -19 -10 -29 -20 -22 -22 16 -6
89 30 123 59 14 13 37 40 51 61 l25 38 40 -53 c22 -29 55 -68 73 -85 31 -30
39 -33 97 -33 35 0 63 4 63 9 0 4 -35 23 -77 42 -54 23 -94 50 -135 90 -57 54
-58 57 -46 84 11 24 10 29 -7 41 -10 8 -28 14 -39 14 -19 0 -21 -5 -18 -49z"/>
</g>
</svg>
