<?xml version="1.0" standalone="no"?>
<!DOCTYPE svg PUBLIC "-//W3C//DTD SVG 20010904//EN"
 "http://www.w3.org/TR/2001/REC-SVG-20010904/DTD/svg10.dtd">
<svg version="1.0" xmlns="http://www.w3.org/2000/svg"
 width="96.000000pt" height="68.000000pt" viewBox="0 0 96.000000 68.000000"
 preserveAspectRatio="xMidYMid meet">
<metadata>
Created by potrace 1.16, written by Peter Selinger 2001-2019
</metadata>
<g transform="translate(0.000000,68.000000) scale(0.100000,-0.100000)"
fill="#000000" stroke="none">
<path d="M260 224 c-19 -7 -54 -13 -78 -13 l-43 -1 20 -26 c12 -15 21 -30 21
-35 0 -4 5 -20 10 -35 8 -21 14 -24 22 -16 7 7 31 12 55 12 41 0 43 2 63 47
11 26 19 52 16 59 -7 18 -48 22 -86 8z m25 -55 c0 -31 -3 -34 -33 -37 -27 -3
-34 1 -42 24 -12 31 -6 40 30 47 39 7 45 3 45 -34z"/>
</g>
</svg>
