<?xml version="1.0" standalone="no"?>
<!DOCTYPE svg PUBLIC "-//W3C//DTD SVG 20010904//EN"
 "http://www.w3.org/TR/2001/REC-SVG-20010904/DTD/svg10.dtd">
<svg version="1.0" xmlns="http://www.w3.org/2000/svg"
 width="96.000000pt" height="68.000000pt" viewBox="0 0 96.000000 68.000000"
 preserveAspectRatio="xMidYMid meet">
<metadata>
Created by potrace 1.16, written by Peter Selinger 2001-2019
</metadata>
<g transform="translate(0.000000,68.000000) scale(0.100000,-0.100000)"
fill="#000000" stroke="none">
<path d="M487 603 c-2 -5 -10 -26 -17 -48 -7 -22 -30 -66 -52 -99 -41 -60 -38
-62 22 -15 30 23 54 29 160 44 68 9 126 18 129 20 2 3 -8 9 -23 14 -19 8 -50
6 -118 -8 -51 -11 -94 -18 -96 -16 -2 2 9 22 24 44 26 40 26 42 8 56 -22 16
-31 18 -37 8z"/>
</g>
</svg>
