<?xml version="1.0" standalone="no"?>
<!DOCTYPE svg PUBLIC "-//W3C//DTD SVG 20010904//EN"
 "http://www.w3.org/TR/2001/REC-SVG-20010904/DTD/svg10.dtd">
<svg version="1.0" xmlns="http://www.w3.org/2000/svg"
 width="96.000000pt" height="68.000000pt" viewBox="0 0 96.000000 68.000000"
 preserveAspectRatio="xMidYMid meet">
<metadata>
Created by potrace 1.16, written by Peter Selinger 2001-2019
</metadata>
<g transform="translate(0.000000,68.000000) scale(0.100000,-0.100000)"
fill="#000000" stroke="none">
<path d="M430 634 c0 -3 7 -18 15 -34 8 -16 12 -31 7 -33 -4 -3 -62 -10 -129
-17 -68 -7 -123 -16 -123 -20 0 -4 7 -13 15 -20 46 -39 -16 -284 -102 -398
-43 -58 -19 -59 38 -2 67 67 102 148 127 292 14 83 20 102 37 108 19 7 191 24
337 33 64 4 78 11 59 30 -12 12 -117 14 -171 2 -24 -5 -28 -4 -24 12 4 13 -2
23 -18 30 -27 13 -68 23 -68 17z"/>
<path d="M560 505 c-62 -15 -59 -17 20 -19 l55 -1 0 -55 c0 -47 -3 -55 -22
-60 l-21 -5 19 -24 c32 -39 53 -18 60 60 3 35 9 72 13 81 5 11 1 20 -13 27
-23 13 -38 12 -111 -4z"/>
<path d="M363 493 c-62 -6 -53 -23 11 -23 60 0 65 -6 58 -67 -3 -25 -9 -33
-24 -33 -19 0 -19 -2 -6 -22 20 -29 43 -34 53 -11 5 10 11 46 14 79 7 67 -2
85 -41 82 -13 -1 -42 -3 -65 -5z"/>
<path d="M540 462 c0 -5 7 -15 15 -22 12 -10 19 -10 27 -2 14 14 11 17 -19 26
-13 4 -23 3 -23 -2z"/>
<path d="M330 440 c0 -16 38 -32 46 -19 7 12 -12 29 -33 29 -7 0 -13 -4 -13
-10z"/>
<path d="M580 415 c-14 -8 -33 -14 -42 -15 -10 0 -18 -7 -18 -15 0 -24 32 -17
70 15 37 31 32 39 -10 15z"/>
<path d="M355 389 c-60 -25 -63 -28 -45 -39 9 -6 28 1 57 21 24 17 43 32 43
34 0 6 3 7 -55 -16z"/>
<path d="M479 343 c-13 -35 -98 -106 -161 -136 -67 -31 -59 -40 11 -12 60 23
137 71 160 99 8 9 21 16 31 16 16 0 112 -66 118 -82 2 -4 10 -8 18 -8 8 0 14
-4 14 -9 0 -24 137 -42 168 -23 12 8 -11 18 -88 38 -41 10 -204 95 -213 110
-4 7 -17 19 -28 24 -17 10 -21 7 -30 -17z"/>
<path d="M500 271 c0 -18 -52 -71 -86 -87 -28 -14 -46 -34 -30 -34 9 0 123 69
147 89 20 18 22 22 9 31 -19 12 -40 13 -40 1z"/>
<path d="M520 195 c-8 -14 -39 -42 -69 -61 -74 -47 -26 -33 67 19 74 42 85 60
41 65 -18 2 -29 -4 -39 -23z"/>
<path d="M557 135 c-26 -24 -81 -61 -122 -81 -41 -20 -73 -39 -70 -42 14 -14
290 122 279 139 -3 5 -13 13 -22 18 -13 7 -28 -1 -65 -34z"/>
</g>
</svg>
