<?xml version="1.0" standalone="no"?>
<!DOCTYPE svg PUBLIC "-//W3C//DTD SVG 20010904//EN"
 "http://www.w3.org/TR/2001/REC-SVG-20010904/DTD/svg10.dtd">
<svg version="1.0" xmlns="http://www.w3.org/2000/svg"
 width="90.000000pt" height="92.000000pt" viewBox="0 0 90.000000 92.000000"
 preserveAspectRatio="xMidYMid meet">
<metadata>
Created by potrace 1.16, written by Peter Selinger 2001-2019
</metadata>
<g transform="translate(0.000000,92.000000) scale(0.100000,-0.100000)"
fill="#000000" stroke="none">
<path d="M616 823 c-3 -21 -19 -64 -35 -95 -16 -32 -25 -58 -20 -58 5 0 42 32
81 71 70 69 71 71 52 89 -10 10 -31 22 -45 25 -24 6 -27 3 -33 -32z"/>
<path d="M221 787 c-21 -94 -86 -205 -203 -349 -46 -58 -6 -37 66 33 65 64 76
71 80 54 9 -34 7 -154 -6 -268 -10 -97 -10 -112 6 -144 32 -67 41 -30 47 205
5 196 4 219 -12 240 -17 22 -16 25 23 95 23 39 49 84 59 99 22 32 16 54 -21
73 l-27 14 -12 -52z"/>
<path d="M370 790 c0 -16 51 -104 68 -118 27 -21 48 8 36 50 -13 44 -104 105
-104 68z"/>
<path d="M610 654 c-30 -7 -112 -21 -183 -30 -104 -14 -125 -19 -116 -30 6 -8
23 -14 38 -14 41 0 51 -18 51 -86 l0 -62 -70 -7 c-39 -4 -72 -11 -75 -15 -9
-15 55 -33 100 -28 44 5 45 5 45 -23 0 -55 -41 -142 -90 -192 -33 -33 -41 -46
-26 -41 83 27 151 116 162 217 7 56 7 57 39 57 18 0 47 3 64 6 l31 7 0 -181
c0 -103 4 -183 9 -187 19 -11 34 72 38 216 l5 147 30 6 c17 3 59 6 94 6 70 0
83 9 53 36 -22 20 -64 23 -136 11 -40 -7 -43 -6 -43 15 0 13 5 39 10 58 9 30
8 37 -9 51 -20 16 -19 17 19 23 21 3 51 11 65 16 23 9 25 13 15 25 -15 18 -45
18 -120 -1z m-36 -91 c3 -21 6 -55 6 -75 0 -30 -4 -38 -19 -38 -10 0 -39 -3
-65 -6 l-47 -7 7 65 c5 50 3 67 -7 74 -13 8 13 14 102 22 12 2 18 -9 23 -35z"/>
</g>
</svg>
