<?xml version="1.0" standalone="no"?>
<!DOCTYPE svg PUBLIC "-//W3C//DTD SVG 20010904//EN"
 "http://www.w3.org/TR/2001/REC-SVG-20010904/DTD/svg10.dtd">
<svg version="1.0" xmlns="http://www.w3.org/2000/svg"
 width="96.000000pt" height="68.000000pt" viewBox="0 0 96.000000 68.000000"
 preserveAspectRatio="xMidYMid meet">
<metadata>
Created by potrace 1.16, written by Peter Selinger 2001-2019
</metadata>
<g transform="translate(0.000000,68.000000) scale(0.100000,-0.100000)"
fill="#000000" stroke="none">
<path d="M528 536 l4 -55 -52 -7 c-58 -8 -50 -24 13 -24 34 0 37 -2 37 -29 0
-24 -5 -29 -31 -35 -17 -3 -48 -6 -68 -7 -20 0 -45 -4 -56 -9 -36 -14 27 -23
87 -12 29 6 105 14 168 17 131 7 162 13 154 27 -4 7 -44 8 -110 3 l-104 -7 0
31 c0 23 5 31 18 31 9 0 35 5 57 11 34 10 37 13 20 20 -11 4 -35 5 -52 2 -24
-4 -33 -1 -34 8 0 8 -1 30 -2 49 -2 30 -6 35 -28 38 -25 3 -26 2 -21 -52z"/>
</g>
</svg>
