<?xml version="1.0" standalone="no"?>
<!DOCTYPE svg PUBLIC "-//W3C//DTD SVG 20010904//EN"
 "http://www.w3.org/TR/2001/REC-SVG-20010904/DTD/svg10.dtd">
<svg version="1.0" xmlns="http://www.w3.org/2000/svg"
 width="96.000000pt" height="68.000000pt" viewBox="0 0 96.000000 68.000000"
 preserveAspectRatio="xMidYMid meet">
<metadata>
Created by potrace 1.16, written by Peter Selinger 2001-2019
</metadata>
<g transform="translate(0.000000,68.000000) scale(0.100000,-0.100000)"
fill="#000000" stroke="none">
<path d="M605 564 c-33 -7 -77 -13 -98 -14 -23 0 -36 -4 -32 -10 3 -5 28 -10
56 -10 41 0 49 -3 49 -18 0 -10 -5 -23 -12 -30 -16 -16 -125 -16 -131 1 -3 6
-14 -9 -26 -36 -21 -44 -21 -67 -2 -67 5 0 16 16 25 35 17 34 18 35 76 35 l59
0 3 -62 c2 -48 7 -63 18 -63 12 0 16 15 18 66 3 59 5 68 25 73 28 7 137 8 137
1 0 -3 -7 -17 -16 -30 -9 -14 -12 -25 -7 -25 20 0 103 32 103 40 0 5 -12 18
-27 30 -20 16 -36 20 -63 16 -19 -3 -61 -8 -92 -12 l-58 -6 0 29 c0 29 2 31
51 36 58 7 70 14 49 27 -19 12 -30 11 -105 -6z"/>
<path d="M228 554 c-8 -7 81 -84 97 -84 41 1 45 48 5 67 -34 16 -94 26 -102
17z"/>
<path d="M280 429 c-14 -6 -47 -15 -75 -20 -108 -21 -102 -19 -81 -35 26 -18
60 -18 97 2 17 8 37 14 46 12 20 -4 -40 -81 -126 -160 -75 -70 -55 -80 33 -18
31 22 59 40 61 40 9 0 5 -74 -6 -119 -8 -35 -7 -48 7 -68 25 -40 38 -13 44 88
l5 91 27 -21 c33 -27 58 -27 58 -1 0 13 -9 22 -25 26 -32 8 -32 18 1 33 29 13
28 34 -2 39 -12 2 -28 -8 -42 -28 -20 -27 -42 -33 -42 -11 0 4 23 32 50 61 28
29 50 58 50 65 0 9 -43 37 -53 34 -1 0 -13 -5 -27 -10z"/>
<path d="M663 425 c-20 -22 -15 -27 20 -20 40 9 45 14 27 25 -20 13 -33 12
-47 -5z"/>
<path d="M470 413 c0 -14 59 -33 66 -21 8 12 5 14 -33 23 -18 3 -33 3 -33 -2z"/>
<path d="M678 347 c33 -17 45 -18 54 -9 18 18 -7 32 -57 31 l-40 0 43 -22z"/>
<path d="M486 351 c-33 -7 -48 -31 -19 -31 10 0 32 9 48 20 30 20 24 23 -29
11z"/>
<path d="M650 300 c-14 -4 -48 -8 -76 -9 -28 -1 -67 -4 -85 -8 l-34 -8 39 -5
c45 -6 54 -20 30 -45 -14 -14 -28 -16 -72 -11 -44 5 -53 4 -45 -6 6 -7 13 -43
15 -80 4 -71 9 -84 28 -73 8 5 9 27 5 70 l-7 62 31 5 c41 6 51 -7 51 -64 0
-36 4 -48 15 -48 12 0 15 13 15 59 0 56 1 59 27 64 16 3 31 3 35 0 5 -2 8 -35
8 -74 0 -97 25 -93 29 6 1 22 4 47 7 57 6 19 47 32 75 23 17 -6 20 -14 17 -68
-3 -62 -3 -62 -31 -59 -30 3 -30 -4 1 -40 40 -47 74 -4 86 107 6 58 6 61 -21
76 -19 11 -38 14 -60 9 -57 -13 -173 -21 -173 -13 1 28 31 42 101 50 41 4 74
13 74 18 0 13 -52 16 -85 5z"/>
</g>
</svg>
