<?xml version="1.0" standalone="no"?>
<!DOCTYPE svg PUBLIC "-//W3C//DTD SVG 20010904//EN"
 "http://www.w3.org/TR/2001/REC-SVG-20010904/DTD/svg10.dtd">
<svg version="1.0" xmlns="http://www.w3.org/2000/svg"
 width="96.000000pt" height="68.000000pt" viewBox="0 0 96.000000 68.000000"
 preserveAspectRatio="xMidYMid meet">
<metadata>
Created by potrace 1.16, written by Peter Selinger 2001-2019
</metadata>
<g transform="translate(0.000000,68.000000) scale(0.100000,-0.100000)"
fill="#000000" stroke="none">
<path d="M297 530 c-7 -51 -61 -132 -146 -217 -34 -35 -61 -67 -58 -69 7 -8
56 19 102 56 l40 32 3 -98 c1 -53 -2 -110 -7 -125 -5 -15 -7 -36 -4 -47 6 -25
31 -19 101 25 54 34 76 40 87 23 11 -18 26 -10 23 12 -2 12 -18 30 -36 41
l-32 19 2 -22 c3 -18 -6 -25 -45 -41 -55 -22 -60 -17 -55 47 l3 39 70 1 70 1
23 68 c29 85 21 100 -53 92 -27 -3 -62 -8 -77 -11 -34 -8 -45 9 -22 35 12 13
31 19 63 20 25 0 55 4 66 8 20 8 20 8 0 14 -11 4 -36 3 -55 -3 -18 -5 -36 -7
-39 -4 -6 6 29 74 38 74 4 0 24 -9 46 -20 51 -26 67 -26 63 3 -2 16 -14 26
-47 36 -24 8 -52 22 -62 32 -33 33 -56 24 -62 -21z m103 -205 c0 -22 -4 -25
-37 -25 -21 0 -49 -3 -61 -7 -21 -5 -23 -3 -20 18 2 19 11 25 38 30 71 13 80
11 80 -16z m-3 -79 c-3 -7 -25 -13 -52 -14 -26 -1 -51 -5 -56 -8 -5 -3 -9 -1
-9 5 0 5 -3 16 -6 24 -4 12 8 17 58 24 64 8 78 2 65 -31z"/>
<path d="M665 445 c-5 -2 -49 -9 -97 -15 -49 -7 -88 -16 -88 -21 0 -4 26 -9
58 -11 l57 -3 3 -57 3 -58 -33 0 c-52 0 -108 -12 -108 -22 0 -6 31 -8 73 -6
l72 3 3 -56 c3 -56 3 -56 -29 -63 -17 -3 -47 -6 -66 -6 -23 0 -33 -4 -30 -12
4 -14 17 -14 209 -3 106 7 126 10 117 22 -8 9 -35 13 -84 13 l-72 0 1 52 c1
62 8 65 126 67 70 2 74 3 55 17 -16 13 -36 15 -97 10 l-78 -6 0 54 c0 34 -5
56 -12 59 -7 2 22 7 65 11 74 7 94 17 61 30 -16 6 -92 7 -109 1z"/>
</g>
</svg>
