<?xml version="1.0" standalone="no"?>
<!DOCTYPE svg PUBLIC "-//W3C//DTD SVG 20010904//EN"
 "http://www.w3.org/TR/2001/REC-SVG-20010904/DTD/svg10.dtd">
<svg version="1.0" xmlns="http://www.w3.org/2000/svg"
 width="96.000000pt" height="68.000000pt" viewBox="0 0 96.000000 68.000000"
 preserveAspectRatio="xMidYMid meet">
<metadata>
Created by potrace 1.16, written by Peter Selinger 2001-2019
</metadata>
<g transform="translate(0.000000,68.000000) scale(0.100000,-0.100000)"
fill="#000000" stroke="none">
<path d="M361 613 c-21 -39 -65 -89 -121 -137 -64 -54 3 -41 81 16 31 22 55
30 107 35 l67 6 -20 -23 c-35 -39 -135 -102 -219 -136 -55 -23 -73 -34 -55
-34 41 0 157 39 217 73 55 31 55 31 86 12 152 -89 176 -99 176 -70 0 8 -8 23
-19 34 -22 22 -146 65 -161 56 -5 -3 -10 -2 -10 4 0 6 23 27 50 48 28 20 50
43 50 49 0 6 -14 17 -31 24 -24 10 -41 10 -85 1 -64 -15 -75 -11 -39 13 31 20
32 43 3 51 -13 4 -31 9 -40 11 -12 4 -23 -6 -37 -33z"/>
<path d="M400 360 c29 -53 -7 -156 -74 -213 -18 -15 -113 -64 -156 -80 -12 -4
-11 -6 3 -6 60 -3 234 90 251 135 10 25 30 15 91 -46 86 -86 111 -100 181
-100 115 0 116 10 8 49 -98 35 -234 107 -234 123 0 5 8 11 18 14 49 15 152 69
149 79 -2 5 -16 14 -31 20 -24 8 -30 5 -57 -28 -27 -33 -86 -74 -94 -65 -1 2
2 29 8 60 6 32 8 60 5 63 -3 3 -22 9 -43 12 -36 6 -37 5 -25 -17z"/>
<path d="M240 299 c0 -18 52 -79 67 -79 22 0 27 29 8 50 -21 23 -75 44 -75 29z"/>
</g>
</svg>
