<?xml version="1.0" standalone="no"?>
<!DOCTYPE svg PUBLIC "-//W3C//DTD SVG 20010904//EN"
 "http://www.w3.org/TR/2001/REC-SVG-20010904/DTD/svg10.dtd">
<svg version="1.0" xmlns="http://www.w3.org/2000/svg"
 width="96.000000pt" height="68.000000pt" viewBox="0 0 96.000000 68.000000"
 preserveAspectRatio="xMidYMid meet">
<metadata>
Created by potrace 1.16, written by Peter Selinger 2001-2019
</metadata>
<g transform="translate(0.000000,68.000000) scale(0.100000,-0.100000)"
fill="#000000" stroke="none">
<path d="M296 416 c6 -26 9 -24 -91 -42 -33 -5 -37 -8 -20 -15 11 -4 40 -5 64
-2 41 5 43 4 36 -16 -5 -16 -2 -21 13 -21 13 0 22 9 26 25 6 23 11 25 66 25
33 0 60 4 60 9 0 13 -26 21 -67 21 -20 0 -33 3 -30 7 12 11 -14 33 -39 33 -21
0 -23 -4 -18 -24z"/>
</g>
</svg>
