<?xml version="1.0" standalone="no"?>
<!DOCTYPE svg PUBLIC "-//W3C//DTD SVG 20010904//EN"
 "http://www.w3.org/TR/2001/REC-SVG-20010904/DTD/svg10.dtd">
<svg version="1.0" xmlns="http://www.w3.org/2000/svg"
 width="96.000000pt" height="68.000000pt" viewBox="0 0 96.000000 68.000000"
 preserveAspectRatio="xMidYMid meet">
<metadata>
Created by potrace 1.16, written by Peter Selinger 2001-2019
</metadata>
<g transform="translate(0.000000,68.000000) scale(0.100000,-0.100000)"
fill="#000000" stroke="none">
<path d="M620 591 c0 -4 -11 -25 -25 -46 -15 -20 -24 -39 -22 -41 2 -2 29 13
62 33 53 33 56 37 39 50 -20 15 -54 18 -54 4z"/>
<path d="M440 555 c0 -14 45 -65 57 -65 19 0 16 34 -5 53 -17 16 -52 23 -52
12z"/>
<path d="M648 495 c-2 -3 -59 -12 -126 -21 -146 -20 -166 -40 -29 -30 129 11
230 29 235 44 2 8 -9 12 -35 12 -22 0 -42 -2 -45 -5z"/>
</g>
</svg>
