<?xml version="1.0" standalone="no"?>
<!DOCTYPE svg PUBLIC "-//W3C//DTD SVG 20010904//EN"
 "http://www.w3.org/TR/2001/REC-SVG-20010904/DTD/svg10.dtd">
<svg version="1.0" xmlns="http://www.w3.org/2000/svg"
 width="96.000000pt" height="68.000000pt" viewBox="0 0 96.000000 68.000000"
 preserveAspectRatio="xMidYMid meet">
<metadata>
Created by potrace 1.16, written by Peter Selinger 2001-2019
</metadata>
<g transform="translate(0.000000,68.000000) scale(0.100000,-0.100000)"
fill="#000000" stroke="none">
<path d="M650 205 c67 -76 114 -119 118 -107 2 6 10 8 18 5 8 -3 22 -2 32 2
14 5 11 9 -17 21 -19 8 -41 12 -48 9 -8 -2 -12 -1 -9 4 5 8 -23 25 -33 21 -1
-1 -24 17 -49 41 l-47 44 35 -40z"/>
<path d="M396 164 c-33 -36 -49 -60 -38 -53 12 8 22 17 22 21 0 5 7 8 15 8 8
0 15 7 15 16 0 8 4 13 9 10 10 -6 35 20 44 47 11 31 -7 18 -67 -49z"/>
</g>
</svg>
