<?xml version="1.0" standalone="no"?>
<!DOCTYPE svg PUBLIC "-//W3C//DTD SVG 20010904//EN"
 "http://www.w3.org/TR/2001/REC-SVG-20010904/DTD/svg10.dtd">
<svg version="1.0" xmlns="http://www.w3.org/2000/svg"
 width="90.000000pt" height="92.000000pt" viewBox="0 0 90.000000 92.000000"
 preserveAspectRatio="xMidYMid meet">
<metadata>
Created by potrace 1.16, written by Peter Selinger 2001-2019
</metadata>
<g transform="translate(0.000000,92.000000) scale(0.100000,-0.100000)"
fill="#000000" stroke="none">
<path d="M585 830 c-22 -4 -119 -18 -215 -29 -96 -12 -189 -24 -207 -27 l-32
-5 16 -35 c15 -31 16 -48 6 -149 -15 -150 -45 -256 -104 -373 -37 -73 -44 -91
-27 -76 105 89 166 257 193 536 7 65 8 66 39 72 76 13 210 27 325 34 77 4 126
11 128 18 4 11 -56 45 -74 43 -4 -1 -26 -5 -48 -9z"/>
<path d="M590 727 c0 -32 -44 -186 -63 -224 -25 -48 -21 -51 18 -13 19 18 37
31 41 28 3 -4 24 0 46 8 64 22 71 20 64 -22 -4 -19 -10 -43 -13 -52 -4 -9 19
4 50 28 31 25 57 47 57 51 0 10 -34 38 -59 47 -17 6 -39 3 -73 -10 -26 -10
-52 -18 -58 -18 -5 0 4 32 21 71 35 86 35 93 7 113 -30 21 -38 20 -38 -7z"/>
<path d="M400 686 c0 -18 -7 -57 -16 -84 -17 -51 -17 -51 -73 -62 -80 -16 -91
-20 -91 -32 0 -7 18 -9 50 -6 49 5 50 5 61 -29 6 -19 8 -54 4 -82 -6 -44 -9
-49 -37 -55 -17 -3 -33 -4 -36 -2 -2 3 2 22 8 42 12 35 11 39 -10 56 -33 27
-42 22 -34 -16 4 -23 1 -46 -10 -67 -20 -40 -20 -53 -1 -69 12 -10 22 -9 49 4
32 15 56 20 56 12 0 -23 -52 -108 -89 -147 -49 -51 -50 -59 -2 -35 43 23 95
87 121 149 13 31 28 57 34 57 6 0 22 3 35 7 20 5 23 3 18 -10 -7 -19 10 -34
23 -21 5 5 15 40 23 77 14 68 14 69 -10 84 -13 9 -26 13 -30 10 -3 -4 -6 -30
-7 -59 -1 -51 -2 -53 -30 -56 l-29 -4 6 76 c4 52 2 76 -5 76 -27 0 8 16 55 25
35 7 52 15 52 25 0 11 -10 14 -43 12 l-43 -2 27 47 c15 27 32 54 37 61 12 16
-18 52 -45 52 -14 0 -18 -8 -18 -34z"/>
<path d="M256 663 c-9 -9 36 -83 50 -83 39 0 26 64 -15 78 -16 6 -32 8 -35 5z"/>
<path d="M578 406 c8 -102 -48 -218 -134 -275 -57 -37 -38 -41 33 -6 52 26 92
70 123 133 l17 35 38 -63 c21 -35 52 -78 68 -97 25 -29 35 -33 76 -33 42 0 82
13 71 23 -3 3 -27 16 -55 30 -63 32 -122 83 -160 136 -27 40 -28 44 -17 93 11
45 10 52 -5 64 -10 7 -27 14 -39 14 -19 0 -20 -4 -16 -54z"/>
</g>
</svg>
