<?xml version="1.0" standalone="no"?>
<!DOCTYPE svg PUBLIC "-//W3C//DTD SVG 20010904//EN"
 "http://www.w3.org/TR/2001/REC-SVG-20010904/DTD/svg10.dtd">
<svg version="1.0" xmlns="http://www.w3.org/2000/svg"
 width="90.000000pt" height="92.000000pt" viewBox="0 0 90.000000 92.000000"
 preserveAspectRatio="xMidYMid meet">
<metadata>
Created by potrace 1.16, written by Peter Selinger 2001-2019
</metadata>
<g transform="translate(0.000000,92.000000) scale(0.100000,-0.100000)"
fill="#000000" stroke="none">
<path d="M186 831 c-3 -4 -1 -23 4 -42 6 -19 10 -64 10 -101 l0 -66 -50 -11
c-28 -6 -60 -11 -70 -11 -11 0 -20 -4 -20 -10 0 -15 46 -23 96 -17 l44 5 0
-69 0 -69 -77 -50 c-42 -28 -87 -53 -100 -56 -12 -4 -23 -9 -23 -13 0 -13 46
-51 61 -51 8 0 39 25 69 55 30 30 59 55 64 55 9 0 0 -185 -11 -203 -3 -5 -24
-6 -47 -3 l-41 7 53 -53 53 -53 20 24 c17 21 19 39 19 175 l0 152 47 42 c49
45 53 67 6 35 -54 -38 -53 -38 -53 26 l0 59 40 7 c22 4 43 11 46 17 10 16 -14
32 -49 31 l-33 -1 7 57 c4 31 11 66 14 77 10 33 -62 83 -79 55z"/>
<path d="M480 829 c0 -14 29 -70 47 -90 16 -19 15 -20 -109 -40 -43 -7 -78
-17 -78 -21 0 -5 11 -14 25 -20 20 -9 41 -8 101 6 41 10 122 23 179 29 57 7
106 15 110 19 4 3 -5 14 -19 23 -26 17 -51 17 -133 0 -28 -6 -31 -5 -27 11 7
31 -19 66 -58 80 -23 8 -38 9 -38 3z"/>
<path d="M540 619 c-41 -10 -87 -18 -102 -19 -26 0 -26 -1 -12 -27 7 -16 14
-38 14 -50 0 -33 20 -79 28 -66 4 6 44 14 90 18 67 6 82 11 77 22 -3 8 8 34
24 58 30 45 29 55 -6 74 -26 13 -19 14 -113 -10z m65 -19 c3 -5 3 -25 -1 -44
-5 -32 -10 -36 -55 -45 -73 -16 -76 -15 -81 27 -3 20 -4 38 -4 39 3 4 110 32
123 32 6 1 15 -3 18 -9z"/>
<path d="M729 455 c-11 -11 -359 -54 -389 -48 -30 5 -33 4 -26 -13 14 -36 28
-148 23 -185 -3 -24 0 -45 9 -56 25 -32 35 4 32 114 l-3 101 105 16 c58 8 137
18 176 21 95 9 99 4 91 -123 -7 -131 -9 -135 -64 -127 l-43 6 37 -50 c21 -28
43 -51 50 -51 27 0 62 60 68 117 13 125 23 199 30 215 10 24 -78 82 -96 63z"/>
<path d="M555 333 c-33 -7 -73 -11 -88 -8 -16 3 -27 1 -25 -3 20 -40 28 -63
33 -94 3 -21 10 -38 15 -38 6 0 10 5 10 10 0 6 29 10 66 10 53 0 65 3 61 14
-3 8 5 31 19 51 13 20 24 38 24 40 0 3 -12 10 -27 18 -23 11 -38 11 -88 0z
m43 -50 c2 -25 -1 -32 -20 -37 -41 -11 -78 -7 -78 8 0 8 -3 21 -6 29 -4 12 5
18 38 25 57 13 62 11 66 -25z"/>
</g>
</svg>
