<?xml version="1.0" standalone="no"?>
<!DOCTYPE svg PUBLIC "-//W3C//DTD SVG 20010904//EN"
 "http://www.w3.org/TR/2001/REC-SVG-20010904/DTD/svg10.dtd">
<svg version="1.0" xmlns="http://www.w3.org/2000/svg"
 width="96.000000pt" height="68.000000pt" viewBox="0 0 96.000000 68.000000"
 preserveAspectRatio="xMidYMid meet">
<metadata>
Created by potrace 1.16, written by Peter Selinger 2001-2019
</metadata>
<g transform="translate(0.000000,68.000000) scale(0.100000,-0.100000)"
fill="#000000" stroke="none">
<path d="M749 305 c-10 -10 -276 -37 -322 -32 -46 4 -48 3 -42 -17 4 -12 9
-52 12 -91 3 -38 9 -74 14 -80 18 -18 26 15 21 85 -5 80 -16 72 128 89 116 14
184 16 198 7 9 -5 11 -26 7 -69 -10 -106 -11 -107 -52 -107 l-37 0 29 -30 c57
-59 93 -26 106 98 5 42 11 86 14 98 5 17 0 24 -28 37 -38 18 -41 19 -48 12z"/>
</g>
</svg>
