<?xml version="1.0" standalone="no"?>
<!DOCTYPE svg PUBLIC "-//W3C//DTD SVG 20010904//EN"
 "http://www.w3.org/TR/2001/REC-SVG-20010904/DTD/svg10.dtd">
<svg version="1.0" xmlns="http://www.w3.org/2000/svg"
 width="96.000000pt" height="68.000000pt" viewBox="0 0 96.000000 68.000000"
 preserveAspectRatio="xMidYMid meet">
<metadata>
Created by potrace 1.16, written by Peter Selinger 2001-2019
</metadata>
<g transform="translate(0.000000,68.000000) scale(0.100000,-0.100000)"
fill="#000000" stroke="none">
<path d="M255 603 c5 -10 10 -48 13 -84 4 -63 3 -66 -19 -72 -13 -4 -41 -7
-61 -7 -20 0 -40 -4 -43 -10 -4 -6 18 -10 59 -10 l66 0 0 -45 0 -46 -67 -30
c-38 -17 -79 -35 -92 -40 -19 -8 -21 -12 -11 -24 20 -24 51 -18 107 20 29 19
55 35 59 35 8 0 -3 -117 -12 -131 -3 -5 -22 -7 -41 -3 l-35 7 47 -44 47 -44
19 24 c16 19 19 40 19 122 0 99 0 99 33 130 l32 30 -32 -16 -33 -16 0 40 c0
39 0 40 45 47 68 10 57 30 -14 24 -22 -2 -23 1 -18 47 2 26 8 57 11 69 6 16 2
23 -19 32 -40 18 -69 16 -60 -5z"/>
</g>
</svg>
