<?xml version="1.0" standalone="no"?>
<!DOCTYPE svg PUBLIC "-//W3C//DTD SVG 20010904//EN"
 "http://www.w3.org/TR/2001/REC-SVG-20010904/DTD/svg10.dtd">
<svg version="1.0" xmlns="http://www.w3.org/2000/svg"
 width="96.000000pt" height="68.000000pt" viewBox="0 0 96.000000 68.000000"
 preserveAspectRatio="xMidYMid meet">
<metadata>
Created by potrace 1.16, written by Peter Selinger 2001-2019
</metadata>
<g transform="translate(0.000000,68.000000) scale(0.100000,-0.100000)"
fill="#000000" stroke="none">
<path d="M552 243 c4 -17 -14 -103 -20 -99 -4 2 -15 -9 -24 -25 -23 -40 -9
-36 27 7 17 20 35 42 42 49 7 7 9 15 6 19 -3 3 0 12 6 20 10 12 8 17 -8 25
-23 13 -32 14 -29 4z"/>
<path d="M605 160 c3 -5 8 -10 11 -10 2 0 4 5 4 10 0 6 -5 10 -11 10 -5 0 -7
-4 -4 -10z"/>
<path d="M655 126 c17 -15 44 -34 62 -42 39 -17 97 -19 87 -3 -4 8 1 9 17 4
13 -4 21 -4 17 0 -4 5 -27 11 -50 15 -24 4 -52 11 -63 16 -18 7 -19 6 -5 -11
14 -17 14 -17 -7 -5 -12 8 -20 17 -17 21 2 4 -4 9 -14 12 -9 2 -26 8 -37 12
-14 5 -11 0 10 -19z"/>
</g>
</svg>
