<?xml version="1.0" standalone="no"?>
<!DOCTYPE svg PUBLIC "-//W3C//DTD SVG 20010904//EN"
 "http://www.w3.org/TR/2001/REC-SVG-20010904/DTD/svg10.dtd">
<svg version="1.0" xmlns="http://www.w3.org/2000/svg"
 width="96.000000pt" height="68.000000pt" viewBox="0 0 96.000000 68.000000"
 preserveAspectRatio="xMidYMid meet">
<metadata>
Created by potrace 1.16, written by Peter Selinger 2001-2019
</metadata>
<g transform="translate(0.000000,68.000000) scale(0.100000,-0.100000)"
fill="#000000" stroke="none">
<path d="M360 480 c0 -63 2 -71 25 -86 19 -12 41 -15 85 -12 33 2 63 8 67 12
14 14 -22 26 -57 19 -69 -13 -85 -10 -85 17 0 22 5 26 48 32 27 4 52 9 55 13
13 13 -22 22 -52 14 -45 -13 -46 -12 -46 26 0 28 -4 35 -20 35 -18 0 -20 -7
-20 -70z"/>
</g>
</svg>
