<?xml version="1.0" standalone="no"?>
<!DOCTYPE svg PUBLIC "-//W3C//DTD SVG 20010904//EN"
 "http://www.w3.org/TR/2001/REC-SVG-20010904/DTD/svg10.dtd">
<svg version="1.0" xmlns="http://www.w3.org/2000/svg"
 width="96.000000pt" height="68.000000pt" viewBox="0 0 96.000000 68.000000"
 preserveAspectRatio="xMidYMid meet">
<metadata>
Created by potrace 1.16, written by Peter Selinger 2001-2019
</metadata>
<g transform="translate(0.000000,68.000000) scale(0.100000,-0.100000)"
fill="#000000" stroke="none">
<path d="M410 623 c0 -4 10 -17 22 -30 12 -13 20 -25 17 -27 -2 -2 -45 -6 -95
-9 -75 -6 -94 -4 -104 9 -11 13 -16 9 -37 -27 -12 -22 -23 -45 -23 -50 0 -18
38 -8 53 14 13 21 28 25 124 35 59 7 155 15 213 18 87 5 103 4 93 -7 -22 -22
-15 -27 35 -22 62 7 69 16 35 43 -23 18 -36 21 -73 16 -25 -3 -75 -8 -112 -12
-64 -6 -68 -6 -68 14 0 14 -10 24 -31 31 -37 13 -49 14 -49 4z"/>
</g>
</svg>
