<?xml version="1.0" standalone="no"?>
<!DOCTYPE svg PUBLIC "-//W3C//DTD SVG 20010904//EN"
 "http://www.w3.org/TR/2001/REC-SVG-20010904/DTD/svg10.dtd">
<svg version="1.0" xmlns="http://www.w3.org/2000/svg"
 width="96.000000pt" height="68.000000pt" viewBox="0 0 96.000000 68.000000"
 preserveAspectRatio="xMidYMid meet">
<metadata>
Created by potrace 1.16, written by Peter Selinger 2001-2019
</metadata>
<g transform="translate(0.000000,68.000000) scale(0.100000,-0.100000)"
fill="#000000" stroke="none">
<path d="M555 583 c4 -10 10 -48 12 -84 l5 -66 -32 -7 c-18 -3 -63 -6 -101 -6
l-69 0 0 59 c0 52 -3 59 -22 64 -33 9 -36 2 -31 -66 l5 -64 -62 -6 c-35 -4
-80 -7 -101 -7 -22 0 -39 -4 -39 -10 0 -17 65 -28 116 -19 91 15 83 26 86
-128 3 -124 5 -138 21 -141 12 -3 20 4 24 17 4 16 13 21 42 21 20 0 59 3 87 6
49 6 51 6 64 -25 7 -17 18 -31 24 -31 31 0 36 25 36 167 l0 143 100 0 c77 0
100 3 100 13 0 21 -63 35 -132 30 l-64 -5 4 71 c4 69 4 71 -23 81 -41 16 -58
13 -50 -7z m15 -295 l0 -113 -100 -3 -100 -3 0 110 0 110 63 4 c34 2 79 4 100
5 l37 2 0 -112z"/>
</g>
</svg>
