<?xml version="1.0" standalone="no"?>
<!DOCTYPE svg PUBLIC "-//W3C//DTD SVG 20010904//EN"
 "http://www.w3.org/TR/2001/REC-SVG-20010904/DTD/svg10.dtd">
<svg version="1.0" xmlns="http://www.w3.org/2000/svg"
 width="96.000000pt" height="68.000000pt" viewBox="0 0 96.000000 68.000000"
 preserveAspectRatio="xMidYMid meet">
<metadata>
Created by potrace 1.16, written by Peter Selinger 2001-2019
</metadata>
<g transform="translate(0.000000,68.000000) scale(0.100000,-0.100000)"
fill="#000000" stroke="none">
<path d="M655 499 c-22 -4 -64 -8 -92 -8 -29 -1 -53 -3 -53 -5 0 -2 7 -17 15
-32 8 -16 15 -37 15 -47 0 -32 20 -60 34 -48 7 6 22 10 32 10 53 -5 125 2 119
11 -4 6 5 31 20 56 15 25 25 47 23 48 -1 2 -13 8 -25 15 -24 12 -31 12 -88 0z
m35 -58 c0 -44 -10 -51 -75 -51 -40 0 -43 2 -49 32 -7 38 -6 39 41 48 79 16
83 14 83 -29z"/>
</g>
</svg>
