<?xml version="1.0" standalone="no"?>
<!DOCTYPE svg PUBLIC "-//W3C//DTD SVG 20010904//EN"
 "http://www.w3.org/TR/2001/REC-SVG-20010904/DTD/svg10.dtd">
<svg version="1.0" xmlns="http://www.w3.org/2000/svg"
 width="96.000000pt" height="68.000000pt" viewBox="0 0 96.000000 68.000000"
 preserveAspectRatio="xMidYMid meet">
<metadata>
Created by potrace 1.16, written by Peter Selinger 2001-2019
</metadata>
<g transform="translate(0.000000,68.000000) scale(0.100000,-0.100000)"
fill="#000000" stroke="none">
<path d="M420 454 c1 -19 57 -77 68 -70 16 10 15 41 -1 54 -17 14 -67 26 -67
16z"/>
<path d="M719 356 c36 -25 70 -46 77 -46 14 0 27 28 18 41 -10 17 -59 36 -109
43 l-50 7 64 -45z"/>
<path d="M395 300 c46 -131 104 -170 252 -170 71 0 94 4 122 21 29 17 32 22
20 34 -17 17 -129 85 -129 79 0 -3 7 -19 16 -36 21 -40 9 -50 -60 -56 -94 -8
-171 44 -193 128 -5 20 -17 36 -26 38 -15 3 -15 0 -2 -38z"/>
<path d="M300 291 c-23 -46 -25 -67 -8 -77 17 -11 48 34 48 72 0 48 -16 50
-40 5z"/>
</g>
</svg>
