<?xml version="1.0" standalone="no"?>
<!DOCTYPE svg PUBLIC "-//W3C//DTD SVG 20010904//EN"
 "http://www.w3.org/TR/2001/REC-SVG-20010904/DTD/svg10.dtd">
<svg version="1.0" xmlns="http://www.w3.org/2000/svg"
 width="96.000000pt" height="68.000000pt" viewBox="0 0 96.000000 68.000000"
 preserveAspectRatio="xMidYMid meet">
<metadata>
Created by potrace 1.16, written by Peter Selinger 2001-2019
</metadata>
<g transform="translate(0.000000,68.000000) scale(0.100000,-0.100000)"
fill="#000000" stroke="none">
<path d="M410 410 c0 -12 -10 -24 -22 -30 -13 -5 -17 -9 -10 -9 6 -1 12 -10
12 -21 0 -11 7 -20 15 -20 8 0 15 7 15 15 0 15 37 35 66 35 8 0 14 -9 14 -20
0 -26 22 -26 38 0 20 33 5 43 -52 35 -28 -3 -47 -3 -43 1 8 8 -11 34 -24 34
-5 0 -9 -9 -9 -20z"/>
</g>
</svg>
