<?xml version="1.0" standalone="no"?>
<!DOCTYPE svg PUBLIC "-//W3C//DTD SVG 20010904//EN"
 "http://www.w3.org/TR/2001/REC-SVG-20010904/DTD/svg10.dtd">
<svg version="1.0" xmlns="http://www.w3.org/2000/svg"
 width="96.000000pt" height="68.000000pt" viewBox="0 0 96.000000 68.000000"
 preserveAspectRatio="xMidYMid meet">
<metadata>
Created by potrace 1.16, written by Peter Selinger 2001-2019
</metadata>
<g transform="translate(0.000000,68.000000) scale(0.100000,-0.100000)"
fill="#000000" stroke="none">
<path d="M282 549 l3 -52 -50 -13 -50 -12 53 -1 c51 -1 52 -2 52 -31 0 -23 5
-30 19 -30 15 0 21 8 23 33 3 30 6 32 48 37 56 6 54 25 -1 24 -41 -1 -41 -1
-36 32 6 35 -3 47 -41 59 -22 6 -23 5 -20 -46z"/>
</g>
</svg>
