<?xml version="1.0" standalone="no"?>
<!DOCTYPE svg PUBLIC "-//W3C//DTD SVG 20010904//EN"
 "http://www.w3.org/TR/2001/REC-SVG-20010904/DTD/svg10.dtd">
<svg version="1.0" xmlns="http://www.w3.org/2000/svg"
 width="96.000000pt" height="68.000000pt" viewBox="0 0 96.000000 68.000000"
 preserveAspectRatio="xMidYMid meet">
<metadata>
Created by potrace 1.16, written by Peter Selinger 2001-2019
</metadata>
<g transform="translate(0.000000,68.000000) scale(0.100000,-0.100000)"
fill="#000000" stroke="none">
<path d="M265 274 c-38 -7 -83 -11 -100 -7 -29 5 -29 5 -13 -13 9 -11 22 -41
29 -69 14 -59 23 -72 41 -58 7 6 48 14 91 18 47 4 75 11 71 17 -3 5 2 30 11
54 30 78 13 85 -130 58z m85 -46 c0 -48 -10 -57 -72 -64 l-57 -7 -6 37 c-4 19
-7 39 -6 43 0 9 55 19 109 22 30 1 32 -1 32 -31z"/>
</g>
</svg>
