<?xml version="1.0" standalone="no"?>
<!DOCTYPE svg PUBLIC "-//W3C//DTD SVG 20010904//EN"
 "http://www.w3.org/TR/2001/REC-SVG-20010904/DTD/svg10.dtd">
<svg version="1.0" xmlns="http://www.w3.org/2000/svg"
 width="96.000000pt" height="68.000000pt" viewBox="0 0 96.000000 68.000000"
 preserveAspectRatio="xMidYMid meet">
<metadata>
Created by potrace 1.16, written by Peter Selinger 2001-2019
</metadata>
<g transform="translate(0.000000,68.000000) scale(0.100000,-0.100000)"
fill="#000000" stroke="none">
<path d="M280 560 c-101 -16 -113 -26 -40 -32 l35 -3 -20 -20 c-11 -11 -36
-33 -55 -48 -35 -28 -35 -28 -5 -16 17 7 51 26 77 43 35 21 45 32 38 41 -8 10
5 14 55 20 36 3 65 11 65 16 0 5 -4 9 -9 9 -5 0 -15 2 -23 4 -7 2 -60 -5 -118
-14z"/>
</g>
</svg>
