<?xml version="1.0" standalone="no"?>
<!DOCTYPE svg PUBLIC "-//W3C//DTD SVG 20010904//EN"
 "http://www.w3.org/TR/2001/REC-SVG-20010904/DTD/svg10.dtd">
<svg version="1.0" xmlns="http://www.w3.org/2000/svg"
 width="90.000000pt" height="92.000000pt" viewBox="0 0 90.000000 92.000000"
 preserveAspectRatio="xMidYMid meet">
<metadata>
Created by potrace 1.16, written by Peter Selinger 2001-2019
</metadata>
<g transform="translate(0.000000,92.000000) scale(0.100000,-0.100000)"
fill="#000000" stroke="none">
<path d="M375 869 c4 -13 10 -63 12 -111 l5 -86 -59 -9 c-32 -4 -86 -7 -120
-6 -35 0 -63 0 -63 -2 0 -1 8 -22 19 -46 10 -24 22 -69 25 -99 9 -74 25 -120
41 -120 7 0 15 4 17 9 2 5 33 12 69 16 l67 7 3 -170 c3 -117 8 -175 16 -183
22 -22 35 40 40 202 l6 156 75 7 c41 3 92 6 114 6 38 0 46 7 29 26 -12 11 30
106 65 147 24 29 24 30 7 50 -28 31 -76 48 -109 38 -16 -4 -64 -11 -107 -15
l-77 -8 0 54 c0 29 4 70 9 90 10 44 0 56 -55 65 -36 6 -37 5 -29 -18z m262
-256 c-4 -27 -11 -64 -17 -84 -10 -35 -12 -37 -68 -44 -31 -3 -67 -9 -79 -12
-23 -5 -23 -3 -23 85 l0 91 58 4 c31 2 75 4 96 5 l39 2 -6 -47z m-242 -60 l0
-88 -70 -5 c-38 -3 -71 -5 -73 -5 -1 1 -3 37 -5 81 l-2 79 60 11 c97 19 90 25
90 -73z"/>
</g>
</svg>
