<?xml version="1.0" standalone="no"?>
<!DOCTYPE svg PUBLIC "-//W3C//DTD SVG 20010904//EN"
 "http://www.w3.org/TR/2001/REC-SVG-20010904/DTD/svg10.dtd">
<svg version="1.0" xmlns="http://www.w3.org/2000/svg"
 width="96.000000pt" height="68.000000pt" viewBox="0 0 96.000000 68.000000"
 preserveAspectRatio="xMidYMid meet">
<metadata>
Created by potrace 1.16, written by Peter Selinger 2001-2019
</metadata>
<g transform="translate(0.000000,68.000000) scale(0.100000,-0.100000)"
fill="#000000" stroke="none">
<path d="M411 598 c5 -18 9 -52 9 -75 0 -52 -8 -55 -136 -56 l-94 0 19 -21
c11 -12 26 -50 34 -84 17 -72 30 -93 49 -74 7 7 38 12 69 12 l57 0 4 -124 c2
-69 6 -128 11 -132 19 -19 32 24 38 134 4 64 8 120 8 125 1 4 44 7 97 7 88 0
95 1 90 18 -4 12 8 39 34 76 22 31 40 59 40 61 0 3 -14 12 -31 21 -31 15 -114
14 -202 -3 l-29 -5 4 73 3 74 -42 3 -42 3 10 -33z m229 -152 c0 -42 -22 -87
-47 -97 -13 -5 -44 -9 -69 -9 l-44 0 0 59 c0 68 -1 67 103 70 54 1 57 0 57
-23z m-220 -51 l0 -65 -63 0 -64 0 -11 51 c-7 29 -11 53 -10 54 2 2 32 7 68
13 36 5 68 10 73 11 4 0 7 -28 7 -64z"/>
</g>
</svg>
