<?xml version="1.0" standalone="no"?>
<!DOCTYPE svg PUBLIC "-//W3C//DTD SVG 20010904//EN"
 "http://www.w3.org/TR/2001/REC-SVG-20010904/DTD/svg10.dtd">
<svg version="1.0" xmlns="http://www.w3.org/2000/svg"
 width="96.000000pt" height="68.000000pt" viewBox="0 0 96.000000 68.000000"
 preserveAspectRatio="xMidYMid meet">
<metadata>
Created by potrace 1.16, written by Peter Selinger 2001-2019
</metadata>
<g transform="translate(0.000000,68.000000) scale(0.100000,-0.100000)"
fill="#000000" stroke="none">
<path d="M246 573 c4 -10 9 -52 12 -94 l4 -76 -66 -8 c-42 -4 -64 -10 -60 -17
4 -7 29 -8 65 -4 l59 6 0 -51 0 -50 -85 -41 c-47 -22 -85 -44 -85 -48 0 -4 12
-12 26 -19 23 -10 31 -8 72 22 78 56 75 58 67 -19 -4 -38 -11 -73 -15 -78 -5
-5 -23 -4 -42 3 l-33 12 48 -48 48 -48 20 24 c16 20 19 39 19 130 l0 106 36
28 c38 31 40 50 2 23 -33 -23 -38 -20 -38 24 0 38 1 40 33 40 35 0 66 15 54
26 -4 4 -25 7 -47 6 -39 -2 -40 -1 -40 31 1 17 7 49 14 70 13 35 12 38 -7 52
-12 8 -32 15 -45 15 -19 0 -23 -4 -16 -17z"/>
</g>
</svg>
