<?xml version="1.0" standalone="no"?>
<!DOCTYPE svg PUBLIC "-//W3C//DTD SVG 20010904//EN"
 "http://www.w3.org/TR/2001/REC-SVG-20010904/DTD/svg10.dtd">
<svg version="1.0" xmlns="http://www.w3.org/2000/svg"
 width="96.000000pt" height="68.000000pt" viewBox="0 0 96.000000 68.000000"
 preserveAspectRatio="xMidYMid meet">
<metadata>
Created by potrace 1.16, written by Peter Selinger 2001-2019
</metadata>
<g transform="translate(0.000000,68.000000) scale(0.100000,-0.100000)"
fill="#000000" stroke="none">
<path d="M275 543 c2 -15 6 -49 9 -75 l5 -47 -45 -7 c-25 -3 -47 -4 -51 -1 -3
3 -1 19 5 36 11 31 5 41 -29 54 -14 4 -17 -1 -17 -31 0 -20 -3 -50 -7 -66 -11
-40 8 -47 69 -26 28 10 81 21 117 25 55 6 67 4 72 -9 12 -31 35 -4 47 56 11
51 11 61 -1 69 -34 21 -44 11 -41 -41 l4 -50 -46 0 -46 0 2 68 c3 66 3 67 -24
70 -25 3 -27 1 -23 -25z"/>
</g>
</svg>
