<?xml version="1.0" standalone="no"?>
<!DOCTYPE svg PUBLIC "-//W3C//DTD SVG 20010904//EN"
 "http://www.w3.org/TR/2001/REC-SVG-20010904/DTD/svg10.dtd">
<svg version="1.0" xmlns="http://www.w3.org/2000/svg"
 width="96.000000pt" height="68.000000pt" viewBox="0 0 96.000000 68.000000"
 preserveAspectRatio="xMidYMid meet">
<metadata>
Created by potrace 1.16, written by Peter Selinger 2001-2019
</metadata>
<g transform="translate(0.000000,68.000000) scale(0.100000,-0.100000)"
fill="#000000" stroke="none">
<path d="M470 577 c0 -12 -16 -47 -35 -76 -20 -30 -34 -56 -32 -58 3 -2 17 7
33 20 24 19 49 25 144 36 150 16 143 24 138 -174 -5 -177 -12 -200 -64 -190
-19 3 -34 3 -34 0 0 -4 15 -22 33 -41 40 -43 59 -38 86 19 15 33 21 73 25 187
4 80 9 161 12 181 5 33 3 37 -26 49 -26 11 -46 10 -124 -3 -51 -10 -102 -17
-115 -17 l-22 0 21 30 c18 25 19 34 10 45 -20 24 -50 19 -50 -8z"/>
<path d="M265 549 c-29 -12 -61 -18 -77 -15 -26 5 -26 4 -16 -25 7 -20 8 -79
4 -167 -12 -245 -13 -236 5 -240 9 -2 19 3 22 11 3 8 8 100 12 205 6 142 11
192 20 192 7 0 27 3 46 7 l33 6 -23 -36 -23 -37 21 -34 c12 -18 21 -43 21 -56
0 -19 -4 -21 -27 -15 -24 5 -26 4 -13 -7 8 -8 27 -20 42 -26 24 -10 29 -9 38
8 16 30 12 44 -20 75 -16 16 -30 34 -30 41 0 7 20 30 45 52 52 45 55 59 19 72
-34 13 -40 12 -99 -11z"/>
<path d="M430 424 c0 -9 -9 -29 -21 -45 -17 -25 -18 -29 -4 -29 8 0 18 7 21
15 8 21 30 19 54 -5 32 -32 16 -50 -46 -50 -32 0 -54 -4 -54 -11 0 -6 22 -9
58 -8 l57 3 3 -42 c3 -42 3 -42 -32 -42 -24 0 -34 4 -31 13 7 18 -11 41 -26
35 -21 -8 -19 -94 1 -89 8 2 53 11 100 21 78 16 86 16 97 1 18 -25 35 0 31 45
-2 27 -8 40 -20 42 -14 3 -18 -3 -18 -27 0 -27 -3 -31 -28 -31 -37 0 -39 3
-34 45 4 34 5 35 51 36 25 1 57 4 71 8 l25 7 -23 8 c-12 4 -44 6 -70 5 -45 -3
-47 -2 -50 24 -3 22 1 27 20 27 13 0 30 4 38 10 29 18 -2 23 -66 11 -63 -13
-93 -9 -65 8 18 11 5 31 -20 31 -11 0 -19 -7 -19 -16z"/>
</g>
</svg>
