<?xml version="1.0" standalone="no"?>
<!DOCTYPE svg PUBLIC "-//W3C//DTD SVG 20010904//EN"
 "http://www.w3.org/TR/2001/REC-SVG-20010904/DTD/svg10.dtd">
<svg version="1.0" xmlns="http://www.w3.org/2000/svg"
 width="90.000000pt" height="92.000000pt" viewBox="0 0 90.000000 92.000000"
 preserveAspectRatio="xMidYMid meet">
<metadata>
Created by potrace 1.16, written by Peter Selinger 2001-2019
</metadata>
<g transform="translate(0.000000,92.000000) scale(0.100000,-0.100000)"
fill="#000000" stroke="none">
<path d="M636 863 c-3 -3 -6 -31 -6 -60 0 -51 -2 -55 -32 -67 -31 -14 -31 -14
-9 -26 19 -10 22 -17 16 -43 -4 -18 -7 -37 -8 -44 0 -11 -119 -33 -182 -33
-33 0 -46 -12 -26 -25 5 -3 15 -31 21 -63 6 -31 15 -73 20 -93 10 -36 11 -37
45 -29 39 9 45 5 45 -25 0 -25 -35 -35 -127 -35 -59 0 -67 -12 -25 -34 22 -11
38 -12 80 -4 29 6 55 8 58 5 9 -8 -23 -62 -57 -96 -17 -18 -52 -43 -78 -56
-42 -22 -44 -24 -18 -25 70 -1 148 58 187 139 l22 48 61 7 c33 3 98 6 143 6
90 0 104 9 53 36 -27 14 -42 14 -106 5 -41 -6 -88 -11 -106 -11 -29 0 -33 3
-31 28 1 26 3 27 55 27 l54 0 30 87 c17 47 33 90 38 94 12 12 8 19 -24 38 -23
14 -41 16 -75 11 -24 -3 -44 -4 -44 -1 0 9 44 81 55 88 5 4 33 8 60 8 28 0 57
5 65 10 13 9 12 12 -4 25 -23 17 -39 18 -83 6 l-33 -10 15 36 c12 28 12 39 3
50 -16 19 -44 34 -52 26z m34 -302 c0 -27 -2 -28 -62 -34 -35 -4 -84 -9 -109
-13 -42 -6 -47 -4 -52 17 -3 13 -4 25 -1 28 7 7 142 29 187 30 34 1 37 -1 37
-28z m-10 -86 c0 -14 -6 -28 -12 -30 -16 -6 -182 -34 -184 -32 -1 1 -4 16 -6
32 l-3 30 80 11 c124 18 125 18 125 -11z"/>
<path d="M410 812 c0 -4 9 -26 20 -47 l20 -40 -55 -3 c-58 -3 -65 -10 -38 -37
11 -11 24 -15 42 -10 56 14 64 11 73 -22 13 -49 31 -41 26 12 -3 39 0 45 19
50 13 3 23 10 23 15 0 6 -11 8 -24 4 -22 -5 -25 -2 -32 33 -4 21 -12 41 -18
45 -15 10 -56 10 -56 0z"/>
<path d="M150 790 c0 -15 39 -91 56 -111 13 -15 9 -17 -43 -27 -32 -6 -82 -14
-110 -18 -29 -4 -53 -10 -53 -15 0 -5 13 -15 30 -24 27 -14 36 -14 108 4 43
11 103 23 134 27 67 8 90 19 68 34 -8 5 -32 10 -52 10 -36 0 -37 1 -40 42 -2
35 -9 46 -37 65 -36 25 -61 30 -61 13z"/>
<path d="M163 531 c-97 -29 -47 -52 58 -26 69 17 83 27 53 39 -23 9 -53 6
-111 -13z"/>
<path d="M162 437 c-46 -13 -58 -30 -26 -36 33 -6 155 20 151 32 -5 16 -73 18
-125 4z"/>
<path d="M195 339 c-27 -11 -65 -17 -82 -15 -37 5 -50 -6 -28 -24 8 -6 20 -38
26 -71 6 -32 17 -62 23 -67 17 -13 159 21 146 34 -8 8 -6 23 5 55 30 80 30 88
0 99 -31 12 -27 12 -90 -11z m42 -74 c-5 -52 -2 -49 -43 -63 -31 -10 -32 -9
-38 20 -15 74 -8 84 57 87 28 1 29 0 24 -44z"/>
<path d="M674 175 c46 -47 91 -85 100 -85 23 0 21 52 -5 83 -20 27 -134 87
-163 87 -9 0 19 -36 68 -85z"/>
</g>
</svg>
