<?xml version="1.0" standalone="no"?>
<!DOCTYPE svg PUBLIC "-//W3C//DTD SVG 20010904//EN"
 "http://www.w3.org/TR/2001/REC-SVG-20010904/DTD/svg10.dtd">
<svg version="1.0" xmlns="http://www.w3.org/2000/svg"
 width="90.000000pt" height="92.000000pt" viewBox="0 0 90.000000 92.000000"
 preserveAspectRatio="xMidYMid meet">
<metadata>
Created by potrace 1.16, written by Peter Selinger 2001-2019
</metadata>
<g transform="translate(0.000000,92.000000) scale(0.100000,-0.100000)"
fill="#000000" stroke="none">
<path d="M123 793 c15 -51 14 -351 -3 -533 -10 -117 -10 -151 0 -169 11 -22
13 -22 28 -7 15 14 17 51 20 269 2 139 6 254 8 256 2 3 15 -6 28 -18 24 -23
46 -21 46 3 0 14 -41 36 -66 36 -10 0 -13 7 -10 23 3 12 7 49 11 83 6 66 0 77
-47 89 l-27 7 12 -39z"/>
<path d="M357 752 c5 -77 5 -79 -18 -85 -13 -4 -36 -7 -51 -7 -31 0 -37 -14
-12 -24 9 -3 33 -6 55 -6 38 0 39 -1 39 -34 0 -43 -9 -49 -82 -50 -32 0 -58
-1 -58 -2 0 0 6 -14 14 -30 8 -16 17 -54 21 -84 9 -71 23 -99 39 -79 6 8 21
15 34 16 19 2 22 -2 22 -31 0 -37 -4 -40 -97 -52 -29 -3 -53 -10 -53 -14 0
-13 58 -32 79 -26 12 3 30 9 42 12 20 6 21 4 14 -69 -5 -52 -3 -81 5 -97 12
-23 13 -23 26 -5 9 12 14 47 14 101 l0 82 31 6 c17 3 44 6 60 6 18 0 29 5 29
14 0 20 -24 26 -75 19 -45 -6 -45 -6 -45 25 0 26 5 33 27 38 15 4 34 2 45 -5
11 -7 22 -10 25 -8 2 3 15 49 29 103 24 94 24 99 7 112 -11 8 -29 11 -48 7
-16 -4 -40 -9 -52 -12 -21 -5 -23 -1 -23 30 0 34 2 35 50 47 54 13 62 23 31
40 -13 7 -28 7 -46 0 -14 -5 -28 -10 -29 -10 -2 0 -1 28 1 63 5 60 4 63 -21
75 -15 7 -29 12 -31 12 -1 0 -1 -35 2 -78z m123 -232 c0 -29 -2 -30 -45 -30
-38 0 -45 3 -45 20 0 23 25 39 63 40 23 0 27 -4 27 -30z m-114 -15 c0 -14 -5
-25 -10 -25 -6 0 -21 -3 -33 -6 -20 -5 -23 -2 -23 19 0 24 8 29 56 36 5 0 10
-10 10 -24z m104 -69 c0 -21 -5 -24 -40 -24 -32 -1 -40 3 -40 18 0 21 13 28
53 29 22 1 27 -3 27 -23z m-110 -12 c0 -14 -8 -25 -21 -29 -24 -8 -24 -8 -32
25 -5 22 -3 25 23 26 25 1 30 -3 30 -22z"/>
<path d="M700 766 c0 -8 -18 -38 -41 -66 -39 -49 -43 -52 -76 -45 -34 6 -35 5
-29 -17 16 -50 18 -119 7 -203 -13 -97 -37 -168 -76 -227 -33 -50 -25 -61 16
-22 43 40 84 129 99 217 l14 75 40 5 c22 3 43 3 46 1 3 -3 7 -104 8 -225 2
-120 7 -219 12 -219 17 0 23 41 35 235 11 175 10 202 -3 212 -12 10 -5 13 37
19 56 7 64 18 26 36 -20 9 -39 7 -99 -10 -77 -23 -111 -27 -102 -14 2 4 6 32
7 62 l3 54 76 50 c41 27 77 51 80 54 9 7 -42 42 -61 42 -10 0 -19 -6 -19 -14z"/>
<path d="M37 507 c-31 -70 -33 -89 -13 -106 12 -10 18 -8 30 11 24 39 37 103
26 132 -5 14 -11 26 -12 26 -2 0 -15 -29 -31 -63z"/>
</g>
</svg>
