<?xml version="1.0" standalone="no"?>
<!DOCTYPE svg PUBLIC "-//W3C//DTD SVG 20010904//EN"
 "http://www.w3.org/TR/2001/REC-SVG-20010904/DTD/svg10.dtd">
<svg version="1.0" xmlns="http://www.w3.org/2000/svg"
 width="90.000000pt" height="92.000000pt" viewBox="0 0 90.000000 92.000000"
 preserveAspectRatio="xMidYMid meet">
<metadata>
Created by potrace 1.16, written by Peter Selinger 2001-2019
</metadata>
<g transform="translate(0.000000,92.000000) scale(0.100000,-0.100000)"
fill="#000000" stroke="none">
<path d="M524 853 c15 -65 38 -285 30 -293 -5 -5 -36 -12 -68 -15 l-59 -8 6
31 c7 32 -4 47 -37 53 -14 3 -6 11 32 32 29 16 52 34 52 41 0 8 -12 22 -27 31
-26 18 -27 18 -42 -6 -8 -13 -41 -50 -74 -81 -59 -59 -61 -71 -6 -42 17 8 33
14 35 11 2 -2 5 -21 7 -43 l2 -38 -62 -11 c-34 -5 -64 -13 -68 -16 -11 -12 50
-29 92 -26 23 1 42 -1 43 -5 0 -5 0 -30 0 -57 0 -54 9 -47 -112 -91 -46 -16
-47 -17 -32 -38 20 -29 40 -28 94 8 l45 30 3 -47 c2 -26 1 -57 -3 -70 -5 -21
-9 -23 -42 -17 l-37 7 34 -44 c18 -24 36 -47 40 -52 4 -4 19 4 33 17 26 24 27
29 27 134 l0 108 46 33 c55 38 52 51 -5 21 l-41 -20 0 54 0 54 43 7 c23 3 54
8 69 11 22 5 28 1 32 -18 3 -13 14 -59 25 -103 l19 -80 -21 -24 c-12 -13 -44
-39 -72 -58 -58 -40 -32 -38 56 6 l55 28 31 -57 c17 -31 54 -79 82 -108 68
-71 110 -69 89 3 -4 16 -8 53 -8 82 0 65 -13 75 -29 23 -7 -23 -18 -40 -26
-40 -17 0 -66 64 -85 109 -11 29 -10 33 34 91 25 33 46 65 46 70 0 10 -52 40
-70 40 -5 0 -10 -18 -10 -39 0 -23 -8 -48 -18 -61 l-19 -23 -16 66 c-27 107
-29 104 57 109 41 2 78 7 83 12 4 4 -3 17 -17 28 -25 20 -34 20 -117 3 -31 -7
-32 -7 -38 37 -7 48 -2 156 10 200 6 24 3 29 -34 47 -54 28 -65 27 -57 -6z"/>
<path d="M207 770 c-9 -72 -70 -186 -172 -322 -19 -27 -30 -48 -25 -48 6 0 41
29 78 65 36 36 68 65 70 65 10 0 -7 -299 -19 -342 -11 -42 -11 -52 4 -83 17
-37 31 -43 44 -22 4 6 11 109 14 227 6 179 5 219 -8 240 -13 24 -11 30 32 105
60 106 62 115 35 137 -34 27 -47 22 -53 -22z"/>
<path d="M650 722 c0 -11 47 -74 62 -84 32 -20 56 10 43 51 -8 27 -105 58
-105 33z"/>
</g>
</svg>
