<?xml version="1.0" standalone="no"?>
<!DOCTYPE svg PUBLIC "-//W3C//DTD SVG 20010904//EN"
 "http://www.w3.org/TR/2001/REC-SVG-20010904/DTD/svg10.dtd">
<svg version="1.0" xmlns="http://www.w3.org/2000/svg"
 width="96.000000pt" height="68.000000pt" viewBox="0 0 96.000000 68.000000"
 preserveAspectRatio="xMidYMid meet">
<metadata>
Created by potrace 1.16, written by Peter Selinger 2001-2019
</metadata>
<g transform="translate(0.000000,68.000000) scale(0.100000,-0.100000)"
fill="#000000" stroke="none">
<path d="M608 577 c-63 -11 -78 -27 -25 -26 55 1 110 13 115 27 4 14 -8 14
-90 -1z"/>
<path d="M388 561 c-63 -9 -72 -21 -16 -21 65 0 113 11 96 21 -7 5 -17 8 -23
8 -5 -1 -31 -5 -57 -8z"/>
<path d="M160 550 c0 -5 9 -19 20 -30 11 -11 17 -20 13 -20 -13 -1 26 -21 48
-25 11 -2 22 2 25 10 10 24 -15 54 -54 65 -46 12 -52 12 -52 0z"/>
<path d="M645 520 c-22 -5 -57 -9 -79 -9 -28 -1 -37 -5 -33 -15 3 -8 11 -32
18 -55 16 -55 33 -53 25 3 -7 43 -6 43 25 50 17 3 45 6 61 6 l30 0 -7 -51 c-6
-41 -4 -50 6 -47 8 3 19 15 26 29 30 64 36 79 31 84 -10 10 -65 13 -103 5z"/>
<path d="M415 500 c-16 -4 -49 -8 -71 -9 l-42 -1 21 -55 c11 -30 24 -55 29
-55 5 0 8 21 6 47 l-3 48 41 5 c23 3 46 4 51 3 6 -2 8 -25 5 -53 -6 -68 12
-65 35 6 15 48 15 57 3 65 -17 10 -32 10 -75 -1z"/>
<path d="M600 462 c0 -14 23 -32 42 -32 21 0 20 22 -2 32 -21 9 -40 9 -40 0z"/>
<path d="M376 435 c7 -16 42 -30 52 -20 8 8 -26 35 -45 35 -7 0 -10 -6 -7 -15z"/>
<path d="M122 398 c8 -22 77 -71 92 -65 23 9 19 43 -6 61 -27 19 -92 22 -86 4z"/>
<path d="M495 400 c-3 -5 -1 -11 5 -15 22 -14 -3 -23 -80 -30 -44 -4 -80 -11
-80 -16 0 -5 5 -9 11 -9 8 0 10 -18 6 -59 -6 -70 -43 -150 -95 -205 -20 -21
-30 -35 -22 -31 45 25 74 55 102 103 16 29 35 51 42 49 7 -2 11 -33 11 -85 0
-44 3 -84 7 -88 6 -5 78 34 117 63 14 10 -11 12 -32 2 -37 -17 -59 -6 -48 23
9 24 11 25 61 27 17 0 30 6 30 12 0 8 -14 9 -44 5 -41 -6 -44 -5 -48 19 -6 27
-9 26 82 29 l55 1 5 -66 c3 -36 11 -73 19 -82 20 -25 87 -39 145 -32 86 12
102 30 71 85 l-13 25 -7 -28 c-9 -36 -32 -47 -99 -47 -58 0 -86 16 -86 49 0
14 17 22 80 36 44 10 80 22 80 25 0 15 -41 18 -68 5 -15 -8 -39 -17 -53 -20
-25 -6 -27 -4 -31 29 l-4 35 46 3 c32 2 44 7 42 17 -1 7 4 24 12 36 21 32 0
48 -56 43 -41 -3 -43 -2 -46 26 -2 18 0 26 7 22 6 -4 27 -4 47 0 54 10 21 25
-47 22 -31 -2 -62 2 -70 8 -22 17 -48 24 -54 14z m73 -83 c3 -25 0 -27 -32
-27 -33 0 -36 2 -36 31 0 28 2 30 33 26 26 -3 33 -8 35 -30z m-110 -10 c3 -25
1 -27 -33 -27 -33 0 -36 2 -29 23 14 45 57 49 62 4z m207 -41 c0 -14 -10 -22
-34 -28 -40 -11 -44 -8 -32 24 12 32 66 35 66 4z m-100 -25 c-4 -15 -15 -21
-36 -21 -24 0 -29 4 -29 24 0 19 6 25 28 28 35 5 46 -5 37 -31z m-95 0 c0 -21
-19 -31 -61 -31 -21 0 -29 5 -29 18 0 27 9 32 52 32 31 0 38 -4 38 -19z"/>
<path d="M224 258 c-33 -47 -52 -66 -102 -104 -12 -9 -12 -15 2 -47 8 -20 21
-37 29 -37 12 0 127 211 127 233 0 20 -22 2 -56 -45z"/>
</g>
</svg>
