<?xml version="1.0" standalone="no"?>
<!DOCTYPE svg PUBLIC "-//W3C//DTD SVG 20010904//EN"
 "http://www.w3.org/TR/2001/REC-SVG-20010904/DTD/svg10.dtd">
<svg version="1.0" xmlns="http://www.w3.org/2000/svg"
 width="96.000000pt" height="68.000000pt" viewBox="0 0 96.000000 68.000000"
 preserveAspectRatio="xMidYMid meet">
<metadata>
Created by potrace 1.16, written by Peter Selinger 2001-2019
</metadata>
<g transform="translate(0.000000,68.000000) scale(0.100000,-0.100000)"
fill="#000000" stroke="none">
<path d="M555 211 c6 -20 -16 -30 -70 -31 -16 0 -37 -5 -45 -10 -10 -7 5 -10
53 -10 65 0 68 -1 65 -22 -2 -17 -11 -24 -33 -26 -63 -5 -95 -13 -95 -24 0
-11 324 -3 365 9 18 6 17 8 -10 19 -20 8 -57 11 -112 7 -56 -4 -83 -2 -83 5 0
28 14 42 44 42 52 0 106 12 100 22 -3 5 -34 8 -67 7 -51 -2 -63 0 -65 14 -2
11 -13 17 -28 17 -20 0 -24 -4 -19 -19z"/>
</g>
</svg>
