<?xml version="1.0" standalone="no"?>
<!DOCTYPE svg PUBLIC "-//W3C//DTD SVG 20010904//EN"
 "http://www.w3.org/TR/2001/REC-SVG-20010904/DTD/svg10.dtd">
<svg version="1.0" xmlns="http://www.w3.org/2000/svg"
 width="96.000000pt" height="68.000000pt" viewBox="0 0 96.000000 68.000000"
 preserveAspectRatio="xMidYMid meet">
<metadata>
Created by potrace 1.16, written by Peter Selinger 2001-2019
</metadata>
<g transform="translate(0.000000,68.000000) scale(0.100000,-0.100000)"
fill="#000000" stroke="none">
<path d="M583 202 l-21 -28 43 20 c43 20 50 37 17 35 -9 0 -27 -12 -39 -27z"/>
<path d="M491 177 c28 -21 59 -36 59 -29 0 5 -11 14 -25 20 -24 11 -44 16 -34
9z"/>
<path d="M345 151 c-3 -6 0 -11 7 -11 9 0 9 -3 2 -8 -6 -4 -10 -18 -9 -32 1
-14 -2 -33 -7 -43 -7 -13 -5 -17 9 -17 15 0 16 -2 3 -10 -8 -5 -11 -12 -8 -16
8 -7 68 33 68 45 0 5 -12 6 -27 3 -25 -5 -26 -3 -15 10 10 13 10 17 0 21 -8 4
-9 8 -3 14 14 11 13 45 -2 50 -6 2 -14 -1 -18 -6z"/>
<path d="M566 139 c2 -4 1 -9 -3 -12 -5 -2 -3 -3 4 -1 6 1 13 -7 16 -18 4 -14
11 -19 22 -14 9 3 13 2 10 -3 -3 -5 -2 -12 3 -15 4 -2 13 3 19 13 9 14 4 20
-33 37 -23 11 -41 17 -38 13z"/>
<path d="M645 89 c-13 -20 23 -39 52 -28 14 5 33 7 42 4 9 -2 23 0 31 5 12 8
10 10 -10 11 -26 1 -39 3 -81 14 -17 4 -30 2 -34 -6z"/>
</g>
</svg>
