<?xml version="1.0" standalone="no"?>
<!DOCTYPE svg PUBLIC "-//W3C//DTD SVG 20010904//EN"
 "http://www.w3.org/TR/2001/REC-SVG-20010904/DTD/svg10.dtd">
<svg version="1.0" xmlns="http://www.w3.org/2000/svg"
 width="96.000000pt" height="68.000000pt" viewBox="0 0 96.000000 68.000000"
 preserveAspectRatio="xMidYMid meet">
<metadata>
Created by potrace 1.16, written by Peter Selinger 2001-2019
</metadata>
<g transform="translate(0.000000,68.000000) scale(0.100000,-0.100000)"
fill="#000000" stroke="none">
<path d="M757 558 c13 -52 9 -426 -5 -440 -10 -10 -20 -10 -44 0 -32 12 -32
12 12 -33 48 -49 64 -54 76 -27 4 9 11 116 14 237 4 146 10 227 18 242 10 19
9 24 -10 37 -12 9 -33 16 -46 16 -22 0 -23 -3 -15 -32z"/>
</g>
</svg>
