<?xml version="1.0" standalone="no"?>
<!DOCTYPE svg PUBLIC "-//W3C//DTD SVG 20010904//EN"
 "http://www.w3.org/TR/2001/REC-SVG-20010904/DTD/svg10.dtd">
<svg version="1.0" xmlns="http://www.w3.org/2000/svg"
 width="96.000000pt" height="68.000000pt" viewBox="0 0 96.000000 68.000000"
 preserveAspectRatio="xMidYMid meet">
<metadata>
Created by potrace 1.16, written by Peter Selinger 2001-2019
</metadata>
<g transform="translate(0.000000,68.000000) scale(0.100000,-0.100000)"
fill="#000000" stroke="none">
<path d="M580 205 c0 -12 -16 -15 -82 -15 -46 0 -100 -3 -120 -6 -31 -5 -38
-4 -38 10 0 9 -8 16 -20 16 -12 0 -20 -7 -20 -17 0 -35 13 -42 60 -33 72 14
228 12 233 -2 6 -21 37 11 37 38 0 19 -5 24 -25 24 -16 0 -25 -6 -25 -15z"/>
</g>
</svg>
