<?xml version="1.0" standalone="no"?>
<!DOCTYPE svg PUBLIC "-//W3C//DTD SVG 20010904//EN"
 "http://www.w3.org/TR/2001/REC-SVG-20010904/DTD/svg10.dtd">
<svg version="1.0" xmlns="http://www.w3.org/2000/svg"
 width="96.000000pt" height="68.000000pt" viewBox="0 0 96.000000 68.000000"
 preserveAspectRatio="xMidYMid meet">
<metadata>
Created by potrace 1.16, written by Peter Selinger 2001-2019
</metadata>
<g transform="translate(0.000000,68.000000) scale(0.100000,-0.100000)"
fill="#000000" stroke="none">
<path d="M370 640 c-10 -6 -11 -10 -2 -10 8 0 12 -16 12 -44 l0 -44 -67 -7
c-38 -3 -79 -8 -93 -11 -24 -5 -24 -6 -5 -17 11 -6 48 -11 83 -10 l62 2 -17
-31 c-26 -44 -84 -86 -166 -120 -40 -17 -74 -33 -77 -36 -3 -2 18 -2 47 1 96
11 210 84 258 164 22 37 56 46 87 25 20 -14 135 -112 176 -149 21 -20 172 -14
172 7 0 4 -38 19 -84 34 -49 16 -112 47 -152 74 l-69 47 73 8 c76 9 90 21 45
38 -20 8 -51 8 -108 0 -112 -15 -108 -16 -90 19 20 39 20 39 -20 56 -40 17
-45 17 -65 4z"/>
<path d="M423 426 c5 -32 3 -38 -16 -45 -12 -5 -25 -7 -30 -4 -4 2 -17 1 -30
-4 -18 -6 -12 -9 28 -13 48 -5 50 -6 53 -37 4 -44 30 -44 34 -1 3 31 7 34 51
43 60 13 61 31 2 28 -44 -3 -45 -2 -45 27 0 17 -4 30 -9 30 -5 0 -17 3 -27 7
-15 6 -16 2 -11 -31z"/>
<path d="M530 301 c0 -37 -2 -39 -37 -45 -21 -3 -59 -6 -85 -6 -45 0 -47 1
-50 33 -3 27 -7 33 -32 35 -21 3 -26 0 -20 -10 14 -22 15 -51 2 -60 -7 -4 -46
-8 -85 -8 -41 0 -73 -4 -73 -10 0 -15 46 -23 101 -18 27 3 52 2 54 -3 8 -12
-47 -97 -72 -110 -12 -6 -24 -18 -27 -25 -4 -10 5 -9 33 5 43 22 96 78 106
113 4 13 13 26 19 30 17 12 178 10 171 -2 -8 -13 6 -190 15 -190 13 0 20 29
26 116 l7 84 71 0 c39 0 77 4 85 9 24 16 -22 31 -94 31 -64 0 -65 0 -59 24 4
18 1 27 -14 35 -34 18 -42 13 -42 -28z"/>
</g>
</svg>
