<?xml version="1.0" standalone="no"?>
<!DOCTYPE svg PUBLIC "-//W3C//DTD SVG 20010904//EN"
 "http://www.w3.org/TR/2001/REC-SVG-20010904/DTD/svg10.dtd">
<svg version="1.0" xmlns="http://www.w3.org/2000/svg"
 width="96.000000pt" height="68.000000pt" viewBox="0 0 96.000000 68.000000"
 preserveAspectRatio="xMidYMid meet">
<metadata>
Created by potrace 1.16, written by Peter Selinger 2001-2019
</metadata>
<g transform="translate(0.000000,68.000000) scale(0.100000,-0.100000)"
fill="#000000" stroke="none">
<path d="M564 523 c3 -16 8 -90 12 -165 l7 -137 -51 -7 c-62 -8 -59 -24 4 -24
44 0 44 0 44 -35 0 -40 -1 -40 -124 -51 -62 -5 -76 -8 -61 -16 12 -7 53 -7
130 1 61 6 159 11 218 11 59 0 107 4 107 9 0 20 -57 28 -139 19 -93 -10 -100
-7 -93 42 4 29 6 30 58 30 53 0 78 12 48 24 -9 3 -36 6 -61 6 l-45 0 4 133 c3
72 8 139 12 148 5 13 0 19 -25 28 -46 16 -52 14 -45 -16z"/>
</g>
</svg>
