<?xml version="1.0" standalone="no"?>
<!DOCTYPE svg PUBLIC "-//W3C//DTD SVG 20010904//EN"
 "http://www.w3.org/TR/2001/REC-SVG-20010904/DTD/svg10.dtd">
<svg version="1.0" xmlns="http://www.w3.org/2000/svg"
 width="90.000000pt" height="92.000000pt" viewBox="0 0 90.000000 92.000000"
 preserveAspectRatio="xMidYMid meet">
<metadata>
Created by potrace 1.16, written by Peter Selinger 2001-2019
</metadata>
<g transform="translate(0.000000,92.000000) scale(0.100000,-0.100000)"
fill="#000000" stroke="none">
<path d="M375 900 c-4 -6 -2 -17 4 -23 6 -6 11 -28 11 -48 0 -41 9 -37 -123
-54 -40 -5 -46 -9 -36 -21 8 -10 33 -14 85 -14 l74 0 0 -34 c0 -31 -3 -34 -37
-40 -21 -3 -51 -6 -66 -6 -19 0 -27 -4 -25 -12 3 -8 28 -14 65 -16 57 -3 61
-5 66 -30 3 -15 3 -29 1 -31 -2 -3 -74 -12 -159 -20 -88 -9 -154 -19 -152 -25
2 -5 19 -15 39 -22 28 -10 48 -9 99 2 73 15 302 33 462 37 62 1 108 6 109 12
0 6 -13 18 -31 29 -30 17 -37 18 -159 2 -170 -21 -162 -22 -162 17 l0 33 76
11 c86 12 97 19 69 39 -19 14 -44 14 -112 -3 -21 -5 -23 -1 -23 30 0 39 0 39
101 53 59 8 78 19 61 36 -14 14 -71 16 -126 5 l-39 -8 6 40 c3 25 1 44 -7 50
-20 17 -63 23 -71 11z"/>
<path d="M455 474 c-33 -8 -93 -15 -132 -16 -67 -1 -87 -8 -64 -22 16 -10 23
-121 12 -201 -8 -54 -21 -96 -41 -132 -33 -58 -29 -66 13 -28 31 29 58 77 66
119 5 22 13 30 31 31 14 1 64 5 112 9 l88 8 -6 -48 c-9 -76 -10 -77 -49 -71
-19 3 -35 3 -35 1 0 -3 19 -28 42 -55 39 -46 42 -48 60 -33 29 27 38 80 38
227 0 76 4 146 9 156 11 20 5 31 -29 54 -28 19 -33 19 -115 1z m75 -66 c0 -32
-1 -33 -48 -34 -26 -1 -73 -5 -104 -11 l-58 -10 0 33 c0 27 5 35 23 39 30 6
82 11 140 13 47 2 47 2 47 -30z m0 -75 c0 -5 3 -17 6 -29 5 -19 0 -21 -63 -27
-37 -4 -87 -10 -110 -13 -42 -7 -43 -6 -43 23 0 30 1 30 73 40 94 13 137 15
137 6z"/>
</g>
</svg>
