<?xml version="1.0" standalone="no"?>
<!DOCTYPE svg PUBLIC "-//W3C//DTD SVG 20010904//EN"
 "http://www.w3.org/TR/2001/REC-SVG-20010904/DTD/svg10.dtd">
<svg version="1.0" xmlns="http://www.w3.org/2000/svg"
 width="96.000000pt" height="68.000000pt" viewBox="0 0 96.000000 68.000000"
 preserveAspectRatio="xMidYMid meet">
<metadata>
Created by potrace 1.16, written by Peter Selinger 2001-2019
</metadata>
<g transform="translate(0.000000,68.000000) scale(0.100000,-0.100000)"
fill="#000000" stroke="none">
<path d="M189 476 c37 -38 68 -46 78 -20 9 24 -19 45 -68 51 l-44 6 34 -37z"/>
<path d="M173 346 c-65 -26 -68 -41 -8 -32 48 8 54 1 33 -33 -10 -16 -7 -24
15 -51 15 -17 27 -42 27 -55 0 -27 -22 -35 -94 -35 -40 0 -47 -2 -37 -13 8 -8
44 -12 104 -12 83 -1 106 -5 233 -48 91 -31 158 -47 190 -47 52 0 196 38 189
50 -2 4 -73 10 -157 14 -188 8 -413 50 -402 76 17 40 15 49 -20 76 l-36 29 43
37 c41 36 41 38 23 53 -25 19 -38 18 -103 -9z"/>
</g>
</svg>
