<?xml version="1.0" standalone="no"?>
<!DOCTYPE svg PUBLIC "-//W3C//DTD SVG 20010904//EN"
 "http://www.w3.org/TR/2001/REC-SVG-20010904/DTD/svg10.dtd">
<svg version="1.0" xmlns="http://www.w3.org/2000/svg"
 width="96.000000pt" height="68.000000pt" viewBox="0 0 96.000000 68.000000"
 preserveAspectRatio="xMidYMid meet">
<metadata>
Created by potrace 1.16, written by Peter Selinger 2001-2019
</metadata>
<g transform="translate(0.000000,68.000000) scale(0.100000,-0.100000)"
fill="#000000" stroke="none">
<path d="M285 540 c-16 -4 -50 -8 -75 -9 l-46 -1 4 -107 c5 -126 -9 -199 -49
-266 l-30 -49 30 18 c21 12 39 38 58 81 23 52 31 62 46 57 13 -4 31 5 58 32
l39 38 0 -84 c0 -103 -8 -119 -46 -102 -39 19 -38 10 5 -32 71 -69 89 -26 92
223 2 169 1 185 -16 197 -20 15 -25 15 -70 4z m35 -71 c0 -45 -2 -50 -17 -44
-10 4 -33 11 -51 15 -43 10 -44 12 -37 43 7 26 22 33 78 36 26 1 27 -1 27 -50z
m-66 -64 c18 -14 40 -25 49 -25 35 0 17 -36 -28 -58 -68 -33 -70 -31 -67 43 2
36 6 65 9 65 2 0 19 -11 37 -25z"/>
</g>
</svg>
