<?xml version="1.0" standalone="no"?>
<!DOCTYPE svg PUBLIC "-//W3C//DTD SVG 20010904//EN"
 "http://www.w3.org/TR/2001/REC-SVG-20010904/DTD/svg10.dtd">
<svg version="1.0" xmlns="http://www.w3.org/2000/svg"
 width="90.000000pt" height="92.000000pt" viewBox="0 0 90.000000 92.000000"
 preserveAspectRatio="xMidYMid meet">
<metadata>
Created by potrace 1.16, written by Peter Selinger 2001-2019
</metadata>
<g transform="translate(0.000000,92.000000) scale(0.100000,-0.100000)"
fill="#000000" stroke="none">
<path d="M495 864 c-38 -8 -127 -15 -197 -17 -71 -1 -128 -4 -128 -7 1 -3 7
-13 15 -23 7 -11 17 -38 20 -60 4 -23 13 -52 20 -63 12 -19 11 -26 -11 -57
-13 -20 -33 -41 -44 -47 -21 -11 -27 -44 -10 -55 5 -3 49 6 96 21 l87 27 18
-22 c23 -28 39 -19 39 19 0 24 -7 33 -40 50 -49 25 -53 25 -40 -1 15 -26 13
-28 -46 -35 l-49 -7 32 35 c30 31 32 35 18 55 -14 20 -13 21 33 26 116 15 292
20 292 8 0 -6 7 -11 15 -11 9 0 24 20 36 48 11 26 28 55 37 65 15 16 14 19 -5
39 -27 27 -94 31 -188 12z m124 -46 c-1 -52 -13 -62 -72 -65 -32 -1 -57 0 -57
3 0 2 7 16 16 29 9 13 13 28 10 34 -8 13 11 19 62 20 37 1 42 -1 41 -21z
m-157 0 c2 -7 2 -26 -1 -43 -5 -26 -11 -30 -44 -33 l-37 -3 0 40 c0 33 4 40
23 44 42 8 55 7 59 -5z m-119 -31 c14 -44 3 -57 -48 -57 -36 0 -45 3 -45 18 0
9 -3 27 -6 39 -5 18 -1 22 23 26 51 8 66 3 76 -26z"/>
<path d="M465 623 c3 -93 10 -112 42 -124 59 -22 213 -3 213 27 0 24 -41 33
-84 18 -41 -15 -94 -18 -120 -8 -10 4 -16 18 -16 36 0 23 4 29 15 24 17 -6
126 13 139 25 20 18 -38 26 -89 13 -66 -18 -66 -18 -54 13 11 29 6 37 -28 47
-21 7 -21 5 -18 -71z"/>
<path d="M285 525 c-22 -8 -59 -14 -83 -14 -41 -1 -43 -2 -35 -23 17 -47 5
-155 -22 -210 l-26 -51 33 25 c18 14 37 38 43 54 12 39 12 39 29 25 12 -10 24
-7 61 19 l46 32 -3 -49 c-3 -48 -3 -48 -35 -45 -18 1 -33 -2 -33 -6 0 -4 18
-25 39 -46 l39 -38 19 28 c14 21 18 50 20 119 1 49 5 107 8 127 4 30 1 40 -17
52 -26 18 -29 18 -83 1z m45 -78 c0 -54 0 -54 -39 -65 -67 -21 -81 -17 -81 23
0 41 2 42 47 14 24 -15 38 -18 45 -11 18 18 1 42 -29 42 -36 0 -61 16 -48 29
12 11 40 18 78 20 26 1 27 -1 27 -52z"/>
<path d="M458 388 c4 -107 12 -121 77 -137 83 -21 176 -9 209 28 15 17 15 21
-2 59 -18 41 -32 46 -32 11 0 -33 -39 -49 -117 -49 -62 0 -74 3 -87 21 -23 34
-11 44 68 58 86 16 109 26 86 41 -19 12 -51 13 -82 1 -13 -4 -35 -11 -51 -15
-26 -6 -27 -5 -21 19 5 19 1 30 -12 40 -35 27 -39 18 -36 -77z"/>
<path d="M643 196 c14 -36 100 -156 112 -156 21 0 29 44 13 76 -19 41 -139
118 -125 80z"/>
<path d="M122 151 c-33 -53 -37 -67 -26 -95 7 -19 38 -21 51 -3 25 30 34 84
21 117 l-13 33 -33 -52z"/>
<path d="M311 128 c26 -67 35 -76 55 -57 20 21 9 63 -23 89 -46 36 -55 26 -32
-32z"/>
<path d="M470 167 c0 -23 59 -107 75 -107 23 0 30 46 11 76 -24 35 -86 58 -86
31z"/>
</g>
</svg>
