<?xml version="1.0" standalone="no"?>
<!DOCTYPE svg PUBLIC "-//W3C//DTD SVG 20010904//EN"
 "http://www.w3.org/TR/2001/REC-SVG-20010904/DTD/svg10.dtd">
<svg version="1.0" xmlns="http://www.w3.org/2000/svg"
 width="90.000000pt" height="92.000000pt" viewBox="0 0 90.000000 92.000000"
 preserveAspectRatio="xMidYMid meet">
<metadata>
Created by potrace 1.16, written by Peter Selinger 2001-2019
</metadata>
<g transform="translate(0.000000,92.000000) scale(0.100000,-0.100000)"
fill="#000000" stroke="none">
<path d="M410 793 c0 -3 16 -35 34 -69 l35 -63 -52 -10 c-29 -6 -69 -13 -90
-17 -49 -8 -54 -19 -17 -34 26 -11 47 -9 133 9 56 12 140 24 187 29 47 4 85
11 84 17 0 5 -13 18 -27 29 -27 20 -45 19 -155 -10 -17 -5 -21 -3 -17 9 11 28
-21 83 -58 100 -37 18 -57 21 -57 10z"/>
<path d="M175 623 c-18 -10 -57 -18 -95 -19 -36 -2 -66 -3 -68 -3 -1 -1 5 -12
13 -25 9 -13 21 -66 27 -117 11 -96 30 -141 42 -101 5 15 22 22 82 31 57 10
73 16 65 25 -11 13 5 91 30 153 11 28 11 35 -1 47 -24 24 -62 27 -95 9z m23
-104 c-4 -45 -11 -75 -19 -80 -16 -10 -78 -23 -83 -18 -2 2 -6 36 -10 75 l-6
71 43 10 c82 20 80 22 75 -58z"/>
<path d="M510 494 c-44 -19 -65 -22 -104 -18 -45 6 -48 5 -40 -12 5 -11 9 -48
8 -84 -1 -91 -31 -156 -106 -225 -62 -58 -62 -68 0 -36 88 46 151 146 160 257
l5 62 36 7 c20 3 46 9 58 12 l22 5 -6 -139 c-6 -156 0 -183 49 -213 65 -39
206 -34 261 10 21 18 22 18 4 66 -9 27 -17 59 -17 72 0 37 -18 25 -25 -18 -4
-22 -16 -51 -27 -65 -19 -24 -25 -26 -96 -23 -68 3 -77 5 -95 30 -19 26 -20
33 -9 119 6 52 20 110 33 137 l22 45 -22 19 c-29 23 -43 22 -111 -8z"/>
</g>
</svg>
