<?xml version="1.0" standalone="no"?>
<!DOCTYPE svg PUBLIC "-//W3C//DTD SVG 20010904//EN"
 "http://www.w3.org/TR/2001/REC-SVG-20010904/DTD/svg10.dtd">
<svg version="1.0" xmlns="http://www.w3.org/2000/svg"
 width="96.000000pt" height="68.000000pt" viewBox="0 0 96.000000 68.000000"
 preserveAspectRatio="xMidYMid meet">
<metadata>
Created by potrace 1.16, written by Peter Selinger 2001-2019
</metadata>
<g transform="translate(0.000000,68.000000) scale(0.100000,-0.100000)"
fill="#000000" stroke="none">
<path d="M450 571 c0 -5 7 -14 15 -21 8 -7 15 -17 15 -22 0 -5 7 -17 16 -26
15 -14 15 -16 -2 -23 -15 -5 -105 -18 -136 -19 -5 0 -8 -4 -8 -9 0 -18 50 -21
122 -7 40 8 112 18 161 21 61 5 87 11 87 20 0 19 -53 26 -111 15 -69 -13 -66
-14 -72 20 -4 19 -17 34 -36 45 -34 17 -51 19 -51 6z"/>
<path d="M235 458 c-11 -7 -50 -12 -87 -12 -38 0 -68 -2 -68 -4 0 -2 9 -15 19
-28 15 -19 30 -77 35 -136 1 -4 7 -13 14 -20 11 -11 15 -10 23 4 6 12 28 19
68 24 l59 6 6 44 c3 24 13 55 21 68 19 28 11 52 -18 60 -32 8 -49 7 -72 -6z
m19 -70 c-8 -64 -11 -68 -48 -68 -29 0 -35 4 -40 28 -4 15 -9 35 -12 44 -4 13
5 19 38 26 69 16 68 16 62 -30z"/>
<path d="M540 360 c-32 -13 -59 -17 -95 -13 -45 5 -48 4 -36 -10 34 -42 -24
-189 -88 -222 -17 -8 -31 -18 -31 -20 0 -13 31 -2 73 26 51 34 97 111 97 165
0 27 4 32 29 37 16 3 41 9 56 13 l26 7 -7 -95 c-4 -66 -3 -101 5 -117 19 -35
71 -61 123 -61 65 0 148 19 155 35 2 8 -4 38 -15 67 l-20 53 -7 -37 c-11 -56
-36 -73 -111 -73 -38 0 -68 5 -76 13 -21 22 -15 139 10 188 l21 41 -25 12
c-30 13 -28 14 -84 -9z"/>
</g>
</svg>
