<?xml version="1.0" standalone="no"?>
<!DOCTYPE svg PUBLIC "-//W3C//DTD SVG 20010904//EN"
 "http://www.w3.org/TR/2001/REC-SVG-20010904/DTD/svg10.dtd">
<svg version="1.0" xmlns="http://www.w3.org/2000/svg"
 width="96.000000pt" height="68.000000pt" viewBox="0 0 96.000000 68.000000"
 preserveAspectRatio="xMidYMid meet">
<metadata>
Created by potrace 1.16, written by Peter Selinger 2001-2019
</metadata>
<g transform="translate(0.000000,68.000000) scale(0.100000,-0.100000)"
fill="#000000" stroke="none">
<path d="M528 356 c-32 -11 -58 -24 -58 -29 0 -5 8 -6 18 -3 9 2 32 8 50 11
l34 7 -7 -101 -8 -100 30 -30 c23 -22 42 -31 85 -36 61 -8 167 10 174 29 2 6
-4 36 -14 66 l-19 55 -7 -38 c-11 -57 -39 -77 -108 -77 -72 0 -98 21 -98 78 1
52 18 124 36 143 14 15 13 19 -8 33 -27 19 -28 19 -100 -8z"/>
</g>
</svg>
