<?xml version="1.0" standalone="no"?>
<!DOCTYPE svg PUBLIC "-//W3C//DTD SVG 20010904//EN"
 "http://www.w3.org/TR/2001/REC-SVG-20010904/DTD/svg10.dtd">
<svg version="1.0" xmlns="http://www.w3.org/2000/svg"
 width="96.000000pt" height="68.000000pt" viewBox="0 0 96.000000 68.000000"
 preserveAspectRatio="xMidYMid meet">
<metadata>
Created by potrace 1.16, written by Peter Selinger 2001-2019
</metadata>
<g transform="translate(0.000000,68.000000) scale(0.100000,-0.100000)"
fill="#000000" stroke="none">
<path d="M495 554 c-33 -7 -93 -15 -132 -16 -40 -2 -73 -6 -73 -10 0 -5 4 -8
9 -8 11 0 37 -70 46 -122 6 -39 23 -58 34 -39 6 9 151 30 212 31 11 0 15 7 12
23 -2 12 7 45 22 72 l25 50 -21 18 c-25 20 -51 20 -134 1z m54 -23 c14 -9 9
-72 -8 -100 -9 -14 -74 -30 -127 -31 -29 0 -31 3 -42 51 -7 29 -10 54 -7 57 5
5 123 27 160 31 6 0 16 -3 24 -8z"/>
</g>
</svg>
