<?xml version="1.0" standalone="no"?>
<!DOCTYPE svg PUBLIC "-//W3C//DTD SVG 20010904//EN"
 "http://www.w3.org/TR/2001/REC-SVG-20010904/DTD/svg10.dtd">
<svg version="1.0" xmlns="http://www.w3.org/2000/svg"
 width="96.000000pt" height="68.000000pt" viewBox="0 0 96.000000 68.000000"
 preserveAspectRatio="xMidYMid meet">
<metadata>
Created by potrace 1.16, written by Peter Selinger 2001-2019
</metadata>
<g transform="translate(0.000000,68.000000) scale(0.100000,-0.100000)"
fill="#000000" stroke="none">
<path d="M230 569 c-14 -6 -37 -9 -51 -7 l-25 4 19 -53 c16 -42 24 -52 36 -47
9 3 33 8 53 11 21 3 35 9 32 14 -2 5 3 23 12 40 13 26 14 33 2 40 -17 11 -47
10 -78 -2z m40 -39 c0 -13 -10 -24 -26 -30 -32 -13 -44 -6 -44 26 0 21 5 24
35 24 28 0 35 -4 35 -20z"/>
</g>
</svg>
