<?xml version="1.0" standalone="no"?>
<!DOCTYPE svg PUBLIC "-//W3C//DTD SVG 20010904//EN"
 "http://www.w3.org/TR/2001/REC-SVG-20010904/DTD/svg10.dtd">
<svg version="1.0" xmlns="http://www.w3.org/2000/svg"
 width="90.000000pt" height="92.000000pt" viewBox="0 0 90.000000 92.000000"
 preserveAspectRatio="xMidYMid meet">
<metadata>
Created by potrace 1.16, written by Peter Selinger 2001-2019
</metadata>
<g transform="translate(0.000000,92.000000) scale(0.100000,-0.100000)"
fill="#000000" stroke="none">
<path d="M460 868 c0 -7 9 -28 20 -46 11 -18 20 -36 20 -41 0 -4 -42 -14 -92
-21 -104 -14 -123 -24 -86 -41 20 -9 43 -7 104 5 44 9 134 22 202 28 67 7 122
15 122 20 0 4 -14 15 -31 23 -29 16 -80 12 -163 -12 -12 -3 -16 -1 -11 6 14
24 -5 62 -40 77 -42 17 -45 17 -45 2z"/>
<path d="M135 823 c3 -16 9 -72 12 -125 l5 -97 -38 -6 c-91 -15 -96 -17 -85
-28 6 -6 36 -10 67 -9 l55 2 -3 -72 -3 -72 -70 -37 c-54 -29 -70 -43 -70 -60
0 -12 8 -27 17 -32 14 -9 26 -3 67 31 27 23 52 42 55 42 8 0 7 -72 0 -137 l-7
-53 -38 0 -38 0 27 -28 c15 -16 36 -41 47 -57 l21 -28 19 29 c18 26 20 44 17
174 l-2 145 45 35 c62 48 62 71 0 30 -41 -27 -45 -26 -45 18 0 68 8 79 61 92
27 7 49 15 49 19 0 16 -51 31 -70 21 -10 -5 -21 -10 -24 -10 -12 0 -6 98 9
146 8 27 15 50 15 51 0 7 -71 43 -85 43 -14 0 -16 -5 -10 -27z"/>
<path d="M605 709 c-44 -9 -75 -18 -68 -18 6 -1 18 -22 26 -48 9 -33 18 -47
28 -44 8 3 36 7 62 9 33 3 47 8 44 16 -3 7 5 26 19 42 13 16 23 32 24 35 0 5
-48 31 -53 28 -1 -1 -38 -10 -82 -20z m70 -31 c-9 -30 -14 -34 -51 -41 -28 -5
-32 -3 -37 19 -3 20 1 26 27 33 55 16 68 14 61 -11z"/>
<path d="M410 680 c-14 -4 -40 -8 -57 -9 -36 -1 -37 -3 -24 -29 5 -9 13 -30
18 -47 6 -18 15 -29 23 -27 8 2 36 6 63 9 36 5 47 9 42 20 -3 8 3 28 12 44 16
26 16 31 3 39 -18 11 -45 11 -80 0z m40 -40 c0 -22 -5 -30 -17 -30 -10 0 -28
-3 -39 -6 -17 -4 -22 0 -26 20 -5 22 -1 27 26 35 51 15 56 13 56 -19z"/>
<path d="M549 583 c-1 -5 0 -19 1 -32 2 -29 -14 -41 -59 -41 -24 0 -32 4 -28
14 7 18 -12 36 -40 36 -20 0 -21 -3 -12 -26 12 -33 10 -34 -40 -41 -23 -3 -41
-9 -41 -14 0 -12 46 -22 70 -16 16 4 20 0 20 -18 0 -20 -6 -24 -37 -27 -56 -5
-55 -28 2 -28 42 0 46 -2 43 -22 -3 -20 -11 -24 -68 -31 -35 -4 -67 -10 -69
-13 -13 -13 29 -24 72 -20 26 3 47 1 47 -3 0 -13 -92 -99 -141 -132 -24 -16
-41 -29 -38 -29 18 0 99 34 131 55 58 39 62 35 55 -54 -8 -124 4 -130 86 -41
37 40 66 75 63 77 -2 2 -21 -7 -41 -22 -57 -38 -68 -34 -59 20 5 36 3 50 -11
65 -16 18 -16 20 -1 26 21 8 21 23 0 39 -14 10 4 14 98 23 63 7 135 12 161 12
33 0 47 4 47 13 0 25 -46 37 -101 27 -68 -13 -69 -13 -69 9 0 15 10 19 51 24
80 10 82 26 4 34 -35 4 -45 10 -45 24 0 13 10 20 38 25 20 4 41 9 46 12 13 7
-16 22 -46 22 -18 0 -28 5 -28 14 0 23 -58 59 -61 39z m-1 -125 c-2 -19 -10
-24 -45 -26 -37 -3 -43 0 -43 17 0 23 12 29 58 30 29 1 33 -2 30 -21z m2 -78
c0 -14 -7 -20 -22 -20 -13 0 -33 -3 -45 -6 -18 -5 -23 -2 -23 14 0 23 12 30
58 31 26 1 32 -3 32 -19z"/>
<path d="M640 290 c-22 -53 -37 -57 -73 -22 -27 26 -67 43 -67 29 0 -2 49 -54
108 -115 81 -83 115 -112 134 -112 37 0 132 30 122 39 -5 4 -39 16 -76 25 -36
10 -92 34 -124 54 l-57 35 52 23 c28 13 51 27 51 32 0 9 -43 42 -53 42 -3 0
-10 -13 -17 -30z"/>
</g>
</svg>
