<?xml version="1.0" standalone="no"?>
<!DOCTYPE svg PUBLIC "-//W3C//DTD SVG 20010904//EN"
 "http://www.w3.org/TR/2001/REC-SVG-20010904/DTD/svg10.dtd">
<svg version="1.0" xmlns="http://www.w3.org/2000/svg"
 width="96.000000pt" height="68.000000pt" viewBox="0 0 96.000000 68.000000"
 preserveAspectRatio="xMidYMid meet">
<metadata>
Created by potrace 1.16, written by Peter Selinger 2001-2019
</metadata>
<g transform="translate(0.000000,68.000000) scale(0.100000,-0.100000)"
fill="#000000" stroke="none">
<path d="M510 601 c0 -4 9 -20 20 -34 11 -14 20 -27 20 -30 0 -2 -35 -8 -77
-12 -108 -10 -140 -26 -43 -21 96 5 324 27 329 32 19 18 -93 25 -152 10 -22
-5 -27 -3 -27 13 0 11 -10 27 -22 35 -25 18 -48 21 -48 7z"/>
</g>
</svg>
