<?xml version="1.0" standalone="no"?>
<!DOCTYPE svg PUBLIC "-//W3C//DTD SVG 20010904//EN"
 "http://www.w3.org/TR/2001/REC-SVG-20010904/DTD/svg10.dtd">
<svg version="1.0" xmlns="http://www.w3.org/2000/svg"
 width="90.000000pt" height="92.000000pt" viewBox="0 0 90.000000 92.000000"
 preserveAspectRatio="xMidYMid meet">
<metadata>
Created by potrace 1.16, written by Peter Selinger 2001-2019
</metadata>
<g transform="translate(0.000000,92.000000) scale(0.100000,-0.100000)"
fill="#000000" stroke="none">
<path d="M548 786 c5 -106 13 -98 -101 -111 -65 -8 -79 -20 -44 -36 18 -8 38
-8 76 0 29 6 56 11 61 11 6 0 8 -36 4 -87 -6 -93 4 -129 28 -105 7 7 14 50 16
106 l4 94 89 7 c49 4 92 11 94 16 3 4 -8 15 -25 24 -26 14 -39 14 -91 4 -46
-9 -63 -9 -68 -1 -4 7 -4 42 0 79 7 71 0 93 -31 93 -15 0 -17 -9 -12 -94z"/>
<path d="M680 837 c0 -7 -9 -30 -20 -52 -11 -21 -18 -40 -16 -42 4 -4 94 46
101 57 7 11 -34 50 -52 50 -7 0 -13 -6 -13 -13z"/>
<path d="M416 803 c-8 -8 48 -93 62 -93 18 0 26 28 15 53 -10 21 -66 50 -77
40z"/>
<path d="M155 598 l0 -193 -34 -3 c-33 -3 -33 -3 -28 30 20 110 20 115 -4 132
-39 27 -46 21 -41 -38 3 -37 -1 -71 -13 -105 -17 -47 -17 -51 -1 -75 l17 -26
37 19 c20 10 62 24 92 31 30 6 63 14 72 16 12 4 17 -2 20 -22 2 -15 8 -29 15
-31 14 -5 32 54 43 142 5 33 11 68 15 77 5 12 -2 21 -24 33 -17 8 -31 14 -32
13 0 -2 -2 -41 -3 -87 -3 -88 -10 -101 -53 -101 -27 0 -26 -11 -13 210 9 166
8 170 -40 170 l-25 0 0 -192z"/>
<path d="M641 622 c1 -12 125 -107 140 -107 8 0 14 10 14 24 0 17 -10 31 -33
44 -38 22 -122 49 -121 39z"/>
<path d="M450 600 c0 -6 -19 -31 -42 -57 -38 -40 -40 -45 -18 -38 50 15 117
75 105 94 -8 14 -45 14 -45 1z"/>
<path d="M687 466 l5 -44 -54 -7 c-53 -7 -54 -7 -50 -36 2 -16 -3 -52 -12 -80
-22 -65 -16 -82 24 -75 16 3 44 9 60 12 l30 6 0 -89 c0 -85 10 -127 24 -105 6
10 25 138 26 175 0 14 9 17 54 17 60 0 80 15 50 37 -13 10 -32 12 -61 8 l-43
-6 0 54 0 55 46 7 c43 6 45 8 31 22 -9 9 -30 16 -47 16 -29 0 -30 2 -25 28 5
21 2 30 -14 38 -39 22 -49 14 -44 -33z m3 -141 l0 -55 -41 0 c-34 0 -40 3 -35
18 3 9 8 31 12 47 10 42 12 45 40 45 23 0 24 -3 24 -55z"/>
<path d="M391 445 c-11 -41 -74 -130 -98 -139 -9 -4 -13 -9 -10 -12 3 -3 23 4
44 14 l39 20 24 -45 24 -46 -73 -69 c-76 -71 -79 -85 -7 -43 52 30 132 113
171 175 15 25 37 56 49 68 l21 24 -25 20 c-24 19 -48 20 -93 3 -13 -6 -16 -3
-11 9 6 16 -20 56 -37 56 -4 0 -12 -16 -18 -35z m99 -65 c0 -16 -38 -88 -50
-95 -5 -3 -10 1 -10 9 0 9 -11 23 -25 32 l-26 17 22 23 c23 25 89 34 89 14z"/>
</g>
</svg>
