<?xml version="1.0" standalone="no"?>
<!DOCTYPE svg PUBLIC "-//W3C//DTD SVG 20010904//EN"
 "http://www.w3.org/TR/2001/REC-SVG-20010904/DTD/svg10.dtd">
<svg version="1.0" xmlns="http://www.w3.org/2000/svg"
 width="90.000000pt" height="92.000000pt" viewBox="0 0 90.000000 92.000000"
 preserveAspectRatio="xMidYMid meet">
<metadata>
Created by potrace 1.16, written by Peter Selinger 2001-2019
</metadata>
<g transform="translate(0.000000,92.000000) scale(0.100000,-0.100000)"
fill="#000000" stroke="none">
<path d="M435 850 c-60 -10 -134 -18 -163 -19 -66 -1 -67 -24 -2 -31 40 -5 45
-8 52 -39 5 -18 6 -36 3 -40 -4 -3 -49 -6 -101 -5 -52 0 -94 -2 -94 -5 0 -4 9
-12 20 -18 11 -8 26 -37 36 -70 19 -67 32 -87 48 -74 6 5 93 14 193 21 139 10
186 10 196 1 21 -17 46 -3 67 39 10 20 31 51 45 68 l25 30 -31 26 c-35 30 -29
29 -120 15 -39 -6 -73 -9 -75 -6 -3 3 -2 21 1 41 7 32 11 37 45 42 51 8 70 21
50 34 -20 13 -63 11 -195 -10z m45 -80 c0 -40 0 -40 -39 -40 -22 0 -47 -3 -57
-7 -15 -6 -16 -2 -11 32 7 45 19 55 70 55 37 0 37 0 37 -40z m177 -66 c3 -8 1
-32 -5 -52 l-11 -37 -67 3 c-62 4 -66 5 -60 25 3 12 6 32 6 44 0 22 3 23 108
31 13 1 25 -5 29 -14z m-183 -46 c-6 -44 -8 -46 -47 -52 -22 -4 -41 -5 -44 -3
-2 3 -5 24 -6 48 l-2 44 50 5 c28 3 51 5 53 4 1 0 -1 -21 -4 -46z m-140 -9 c4
-23 4 -44 2 -47 -3 -2 -25 -7 -49 -9 -44 -5 -45 -5 -57 32 -7 20 -10 38 -7 41
3 4 49 14 98 23 4 1 9 -18 13 -40z"/>
<path d="M435 519 c-55 -11 -120 -17 -144 -14 -38 4 -42 3 -36 -13 15 -34 17
-82 6 -161 -14 -104 -5 -133 39 -125 60 13 25 -48 -70 -116 -34 -24 -57 -46
-52 -48 23 -7 230 113 231 135 1 6 -8 15 -19 18 -46 15 -14 25 80 25 84 0 101
-3 109 -17 10 -17 12 -17 26 1 11 15 15 47 15 125 0 58 3 122 6 143 6 33 4 38
-24 52 -36 19 -37 19 -167 -5z m123 -58 c3 -27 0 -33 -12 -28 -9 4 -60 0 -114
-8 -133 -20 -132 -21 -132 15 0 17 5 30 13 31 6 0 48 6 92 14 44 7 96 12 115
12 32 -2 35 -5 38 -36z m6 -77 c4 -15 6 -27 4 -29 -5 -3 -211 -25 -240 -25
-24 0 -28 4 -28 28 0 28 2 29 53 31 28 1 81 6 117 10 36 5 70 9 76 10 7 0 15
-11 18 -25z m2 -86 c-3 -13 -6 -27 -6 -33 0 -6 -53 -11 -130 -13 l-130 -4 0
25 c0 24 3 25 93 35 50 5 112 10 136 11 40 1 43 -1 37 -21z"/>
<path d="M552 114 c53 -54 81 -75 92 -71 43 17 -2 87 -78 123 -93 43 -96 31
-14 -52z"/>
</g>
</svg>
