<?xml version="1.0" standalone="no"?>
<!DOCTYPE svg PUBLIC "-//W3C//DTD SVG 20010904//EN"
 "http://www.w3.org/TR/2001/REC-SVG-20010904/DTD/svg10.dtd">
<svg version="1.0" xmlns="http://www.w3.org/2000/svg"
 width="96.000000pt" height="68.000000pt" viewBox="0 0 96.000000 68.000000"
 preserveAspectRatio="xMidYMid meet">
<metadata>
Created by potrace 1.16, written by Peter Selinger 2001-2019
</metadata>
<g transform="translate(0.000000,68.000000) scale(0.100000,-0.100000)"
fill="#000000" stroke="none">
<path d="M235 590 c20 -33 23 -135 10 -312 -15 -190 -12 -235 18 -225 19 6 24
51 27 202 1 77 5 150 9 163 l6 24 24 -26 c26 -27 46 -33 56 -16 11 17 -14 39
-52 46 l-35 7 7 63 c6 56 4 64 -14 73 -25 14 -64 14 -56 1z"/>
<path d="M142 358 c-22 -56 -23 -61 -7 -77 15 -15 17 -15 30 3 22 29 30 105
14 121 -12 12 -18 5 -37 -47z"/>
</g>
</svg>
