<?xml version="1.0" standalone="no"?>
<!DOCTYPE svg PUBLIC "-//W3C//DTD SVG 20010904//EN"
 "http://www.w3.org/TR/2001/REC-SVG-20010904/DTD/svg10.dtd">
<svg version="1.0" xmlns="http://www.w3.org/2000/svg"
 width="96.000000pt" height="68.000000pt" viewBox="0 0 96.000000 68.000000"
 preserveAspectRatio="xMidYMid meet">
<metadata>
Created by potrace 1.16, written by Peter Selinger 2001-2019
</metadata>
<g transform="translate(0.000000,68.000000) scale(0.100000,-0.100000)"
fill="#000000" stroke="none">
<path d="M443 503 c-17 -3 -23 -11 -23 -31 0 -67 -3 -69 -111 -77 -54 -3 -111
-10 -126 -15 l-28 -7 26 -11 c19 -7 52 -6 119 4 52 7 95 12 97 10 12 -11 -58
-70 -119 -101 -53 -26 -64 -35 -45 -35 15 0 51 9 81 20 49 19 79 44 137 118 7
9 52 12 159 12 83 0 150 4 150 9 0 20 -58 28 -145 20 -49 -4 -105 -8 -123 -8
l-33 -1 7 50 c4 28 5 49 3 49 -2 -1 -14 -4 -26 -6z"/>
<path d="M570 300 c41 -27 80 -50 86 -50 22 0 22 28 1 48 -18 17 -122 52 -153
52 -5 0 25 -23 66 -50z"/>
</g>
</svg>
