<?xml version="1.0" standalone="no"?>
<!DOCTYPE svg PUBLIC "-//W3C//DTD SVG 20010904//EN"
 "http://www.w3.org/TR/2001/REC-SVG-20010904/DTD/svg10.dtd">
<svg version="1.0" xmlns="http://www.w3.org/2000/svg"
 width="96.000000pt" height="68.000000pt" viewBox="0 0 96.000000 68.000000"
 preserveAspectRatio="xMidYMid meet">
<metadata>
Created by potrace 1.16, written by Peter Selinger 2001-2019
</metadata>
<g transform="translate(0.000000,68.000000) scale(0.100000,-0.100000)"
fill="#000000" stroke="none">
<path d="M315 531 c0 -74 -2 -81 -33 -120 -36 -45 -34 -50 7 -25 33 19 52 48
61 89 5 24 13 32 53 44 26 8 47 17 47 20 0 4 -10 12 -22 20 -20 12 -24 11 -45
-15 l-24 -29 2 35 c4 41 -6 60 -29 60 -15 0 -17 -12 -17 -79z"/>
<path d="M220 513 c1 -18 38 -55 49 -49 17 11 13 34 -8 46 -23 12 -41 13 -41
3z"/>
<path d="M373 425 c32 -28 47 -32 47 -10 0 17 -30 35 -57 35 -15 -1 -13 -5 10
-25z"/>
</g>
</svg>
