<?xml version="1.0" standalone="no"?>
<!DOCTYPE svg PUBLIC "-//W3C//DTD SVG 20010904//EN"
 "http://www.w3.org/TR/2001/REC-SVG-20010904/DTD/svg10.dtd">
<svg version="1.0" xmlns="http://www.w3.org/2000/svg"
 width="96.000000pt" height="68.000000pt" viewBox="0 0 96.000000 68.000000"
 preserveAspectRatio="xMidYMid meet">
<metadata>
Created by potrace 1.16, written by Peter Selinger 2001-2019
</metadata>
<g transform="translate(0.000000,68.000000) scale(0.100000,-0.100000)"
fill="#000000" stroke="none">
<path d="M455 285 c-33 -8 -88 -17 -122 -20 -35 -4 -60 -11 -57 -16 8 -13 59
-11 147 6 43 8 83 15 88 15 5 0 9 -30 9 -67 0 -77 19 -125 62 -156 31 -23 171
-37 182 -19 3 6 -5 27 -19 48 -14 20 -25 42 -25 47 0 21 -18 -8 -22 -33 -4
-31 -35 -37 -81 -15 -62 29 -78 102 -38 171 12 19 19 40 16 45 -8 12 -67 10
-140 -6z"/>
</g>
</svg>
