<?xml version="1.0" standalone="no"?>
<!DOCTYPE svg PUBLIC "-//W3C//DTD SVG 20010904//EN"
 "http://www.w3.org/TR/2001/REC-SVG-20010904/DTD/svg10.dtd">
<svg version="1.0" xmlns="http://www.w3.org/2000/svg"
 width="90.000000pt" height="92.000000pt" viewBox="0 0 90.000000 92.000000"
 preserveAspectRatio="xMidYMid meet">
<metadata>
Created by potrace 1.16, written by Peter Selinger 2001-2019
</metadata>
<g transform="translate(0.000000,92.000000) scale(0.100000,-0.100000)"
fill="#000000" stroke="none">
<path d="M655 850 c-58 -17 -59 -18 -33 -28 20 -8 40 -8 78 2 59 15 70 24 50
36 -19 12 -21 12 -95 -10z"/>
<path d="M460 834 c-19 -7 -45 -13 -57 -13 -28 -1 -30 -17 -3 -26 23 -7 127
12 135 25 5 8 -27 32 -37 29 -2 -1 -19 -7 -38 -15z"/>
<path d="M150 795 c0 -31 -31 -94 -77 -157 -19 -27 -31 -48 -26 -48 12 0 75
46 93 69 16 20 90 38 90 23 0 -5 -18 -37 -40 -70 l-40 -62 -70 0 -70 0 14 -22
c8 -13 20 -59 26 -104 13 -88 24 -118 38 -97 9 15 165 34 170 22 2 -5 10 -9
17 -9 14 0 24 26 51 134 l17 70 -28 23 c-15 13 -34 22 -43 19 -81 -24 -81 -24
-23 43 30 35 61 65 68 68 22 9 14 30 -16 43 -21 8 -35 9 -49 1 -12 -6 -33 -16
-47 -21 l-27 -10 20 34 c18 31 19 36 6 55 -22 30 -54 28 -54 -4z m130 -285 c0
-28 -2 -30 -40 -30 -38 0 -40 2 -40 30 0 28 2 30 40 30 38 0 40 -2 40 -30z
m-120 -10 c0 -23 -5 -31 -25 -36 -36 -9 -55 2 -55 30 0 24 5 27 68 35 7 0 12
-11 12 -29z m110 -72 c0 -32 -11 -43 -42 -43 -24 -1 -28 3 -28 26 0 27 11 35
53 38 11 1 17 -6 17 -21z m-112 -23 c-3 -26 -8 -30 -35 -33 -31 -3 -33 -1 -33
30 0 31 2 33 35 33 34 0 36 -2 33 -30z"/>
<path d="M700 774 c-25 -7 -62 -13 -84 -13 -30 -1 -36 -4 -28 -14 6 -7 12 -37
14 -67 4 -78 28 -80 28 -2 l0 60 56 7 c31 4 57 5 60 3 2 -2 0 -28 -5 -58 -17
-106 13 -107 45 -2 l22 72 -21 15 c-24 17 -26 17 -87 -1z"/>
<path d="M485 754 c-22 -7 -57 -13 -78 -13 -28 -1 -36 -4 -30 -13 4 -7 8 -40
8 -72 0 -38 4 -61 13 -63 9 -4 12 13 12 60 l0 64 38 7 c71 11 71 12 69 -51 -1
-32 2 -59 8 -60 8 -1 45 103 45 128 0 17 -48 25 -85 13z"/>
<path d="M672 678 c32 -42 48 -46 48 -14 0 26 -24 46 -56 46 -14 0 -13 -5 8
-32z"/>
<path d="M430 693 c0 -18 41 -73 50 -68 17 11 11 43 -12 59 -24 17 -38 20 -38
9z"/>
<path d="M550 623 c0 -3 7 -14 15 -24 15 -15 13 -17 -17 -22 -18 -4 -66 -9
-105 -13 -40 -4 -73 -8 -73 -9 0 -2 7 -15 15 -31 24 -47 -2 -215 -51 -324
l-34 -75 39 42 c24 27 45 65 57 103 11 33 24 60 31 60 22 0 33 -70 23 -145
-13 -101 -2 -107 78 -43 35 28 61 52 59 54 -2 3 -20 -3 -40 -11 -51 -21 -57
-19 -57 19 0 34 1 35 43 38 54 4 50 24 -4 21 -36 -2 -40 0 -36 18 3 10 -1 26
-8 33 -12 12 -4 15 52 21 50 5 68 4 74 -7 5 -7 9 -53 9 -101 0 -79 2 -90 23
-111 36 -36 113 -43 171 -17 56 24 63 39 37 81 l-20 33 -6 -26 c-10 -38 -28
-48 -88 -50 -67 -1 -87 13 -87 63 l0 37 72 9 c40 5 73 14 75 21 7 21 -42 25
-96 9 l-52 -15 6 28 c3 17 2 32 -4 36 -25 15 -8 25 40 25 43 0 50 3 45 16 -4
10 4 30 19 50 14 18 25 35 25 38 0 2 -13 14 -29 25 -23 16 -34 19 -60 11 -23
-6 -31 -5 -31 4 0 13 -31 46 -43 46 -3 0 -7 -15 -9 -32 -3 -29 -7 -33 -35 -36
-29 -3 -33 0 -33 21 0 24 -16 37 -45 37 -11 0 -11 -6 -2 -30 13 -34 12 -36
-26 -45 -26 -7 -27 -5 -27 29 0 23 6 38 18 45 14 7 243 30 318 31 17 1 17 3
-5 21 -21 17 -33 19 -75 14 -28 -4 -59 -9 -68 -11 -13 -4 -18 0 -18 14 0 20
-18 32 -46 32 -8 0 -14 -3 -14 -7z m146 -178 c4 -8 3 -26 0 -40 -8 -33 -56
-36 -56 -4 0 47 42 80 56 44z m-90 -11 c-3 -9 -6 -26 -6 -39 0 -18 -7 -24 -32
-28 -18 -2 -35 -3 -37 -1 -2 2 0 19 3 38 5 25 13 36 29 39 44 8 49 7 43 -9z
m-102 -37 c3 -17 5 -31 4 -32 -2 -1 -23 -5 -46 -8 -41 -5 -44 -4 -38 16 3 12
6 29 6 37 0 10 11 15 34 16 30 0 35 -3 40 -29z"/>
<path d="M260 304 c0 -16 46 -94 56 -94 21 0 23 39 3 64 -16 20 -59 42 -59 30z"/>
<path d="M21 248 c-21 -45 -28 -112 -12 -122 29 -18 66 109 44 149 -9 15 -13
11 -32 -27z"/>
<path d="M183 262 c30 -71 67 -93 67 -41 0 23 -42 69 -64 69 -13 0 -13 -4 -3
-28z"/>
<path d="M104 248 c8 -40 34 -81 46 -73 18 11 11 64 -12 85 -31 29 -41 25 -34
-12z"/>
</g>
</svg>
