<?xml version="1.0" standalone="no"?>
<!DOCTYPE svg PUBLIC "-//W3C//DTD SVG 20010904//EN"
 "http://www.w3.org/TR/2001/REC-SVG-20010904/DTD/svg10.dtd">
<svg version="1.0" xmlns="http://www.w3.org/2000/svg"
 width="96.000000pt" height="68.000000pt" viewBox="0 0 96.000000 68.000000"
 preserveAspectRatio="xMidYMid meet">
<metadata>
Created by potrace 1.16, written by Peter Selinger 2001-2019
</metadata>
<g transform="translate(0.000000,68.000000) scale(0.100000,-0.100000)"
fill="#000000" stroke="none">
<path d="M446 493 c4 -10 9 -83 11 -163 4 -117 2 -149 -10 -165 -13 -17 -18
-18 -41 -7 -47 21 -48 13 -4 -33 24 -25 48 -45 55 -45 6 0 21 12 32 26 20 25
21 40 21 215 l0 189 -36 0 c-31 0 -35 -3 -28 -17z"/>
</g>
</svg>
