<?xml version="1.0" standalone="no"?>
<!DOCTYPE svg PUBLIC "-//W3C//DTD SVG 20010904//EN"
 "http://www.w3.org/TR/2001/REC-SVG-20010904/DTD/svg10.dtd">
<svg version="1.0" xmlns="http://www.w3.org/2000/svg"
 width="96.000000pt" height="68.000000pt" viewBox="0 0 96.000000 68.000000"
 preserveAspectRatio="xMidYMid meet">
<metadata>
Created by potrace 1.16, written by Peter Selinger 2001-2019
</metadata>
<g transform="translate(0.000000,68.000000) scale(0.100000,-0.100000)"
fill="#000000" stroke="none">
<path d="M569 591 c13 -24 14 -78 2 -85 -5 -4 -37 -9 -70 -12 -83 -9 -77 -24
9 -24 l70 0 0 -34 c0 -36 -15 -46 -72 -46 -16 0 -28 -5 -28 -11 0 -8 18 -10
63 -5 34 4 92 9 130 13 37 3 67 9 67 14 0 14 -40 21 -80 14 l-40 -7 0 35 c0
38 2 39 93 52 26 4 49 11 52 15 8 14 -39 19 -80 10 -66 -16 -67 -15 -63 38 3
47 3 47 -30 50 -31 3 -33 2 -23 -17z"/>
</g>
</svg>
