<?xml version="1.0" standalone="no"?>
<!DOCTYPE svg PUBLIC "-//W3C//DTD SVG 20010904//EN"
 "http://www.w3.org/TR/2001/REC-SVG-20010904/DTD/svg10.dtd">
<svg version="1.0" xmlns="http://www.w3.org/2000/svg"
 width="96.000000pt" height="68.000000pt" viewBox="0 0 96.000000 68.000000"
 preserveAspectRatio="xMidYMid meet">
<metadata>
Created by potrace 1.16, written by Peter Selinger 2001-2019
</metadata>
<g transform="translate(0.000000,68.000000) scale(0.100000,-0.100000)"
fill="#000000" stroke="none">
<path d="M256 538 c-8 -52 -58 -134 -127 -211 -28 -32 -49 -60 -46 -64 7 -7
63 28 98 60 35 33 73 31 77 -5 3 -26 0 -28 -47 -34 -28 -4 -51 -10 -51 -15 0
-13 39 -21 70 -14 l30 7 0 -56 c0 -30 -5 -58 -11 -62 -6 -3 -41 -8 -78 -10
-68 -4 -78 -14 -43 -41 25 -18 40 -16 153 22 57 19 105 32 108 29 2 -2 -4 -17
-15 -32 -34 -46 -37 -52 -19 -46 39 15 125 189 125 253 0 17 3 31 8 32 4 0 22
2 40 3 29 3 32 1 32 -25 0 -37 7 -40 78 -33 l60 7 6 38 c6 39 7 39 51 39 33 0
45 4 45 15 0 11 -11 15 -41 15 -25 0 -38 4 -34 10 10 15 -14 40 -37 40 -16 0
-19 -5 -15 -22 9 -32 -10 -48 -54 -48 -32 0 -39 4 -39 19 0 16 -18 31 -37 31
-3 0 -3 -13 1 -30 5 -28 3 -30 -24 -30 -29 0 -30 1 -24 38 3 20 7 39 9 40 4 4
116 18 229 28 51 4 65 9 57 17 -12 12 -72 14 -114 3 -21 -5 -27 -1 -35 23 -11
31 -45 56 -62 46 -6 -4 -2 -18 10 -35 28 -39 25 -50 -12 -50 -18 0 -56 -3 -84
-6 l-50 -6 4 -58 c4 -53 -4 -111 -28 -201 -9 -32 -15 -38 -54 -48 -25 -6 -48
-11 -51 -11 -3 0 -5 24 -3 52 l3 53 43 9 c55 13 56 36 2 36 -36 0 -40 3 -40
24 0 19 7 25 36 31 32 6 35 8 22 21 -13 13 -22 13 -78 0 -35 -8 -66 -14 -67
-12 -2 2 15 31 38 65 l41 61 35 -31 c32 -28 37 -29 51 -15 14 14 14 18 -8 41
-13 14 -34 25 -46 25 -16 0 -21 5 -17 18 3 12 -4 22 -22 30 -39 18 -42 16 -49
-30z m414 -180 c0 -23 -15 -36 -45 -39 -23 -3 -30 0 -33 15 -2 10 2 22 10 27
20 13 68 11 68 -3z"/>
<path d="M640 254 c-36 -7 -79 -13 -97 -14 l-32 0 51 -51 51 -51 -24 -19 c-13
-10 -49 -28 -79 -39 l-55 -20 48 5 c26 2 65 14 87 25 l41 21 42 -37 c40 -34
44 -36 101 -31 94 8 96 24 6 42 -40 8 -110 42 -110 53 0 4 18 30 41 57 38 46
39 50 23 62 -10 7 -20 12 -23 12 -3 -1 -35 -7 -71 -15z m27 -31 c4 -9 1 -19
-5 -21 -7 -2 -10 -7 -7 -12 3 -4 -2 -13 -10 -20 -13 -11 -20 -9 -40 10 -32 30
-32 34 8 47 46 15 47 15 54 -4z"/>
<path d="M342 218 c-11 -24 -18 -45 -16 -47 2 -2 22 8 45 23 39 26 40 28 23
47 -24 27 -31 24 -52 -23z"/>
<path d="M160 216 c0 -8 14 -26 32 -41 26 -22 33 -24 40 -12 12 22 -1 47 -29
58 -33 12 -43 11 -43 -5z"/>
</g>
</svg>
