<?xml version="1.0" standalone="no"?>
<!DOCTYPE svg PUBLIC "-//W3C//DTD SVG 20010904//EN"
 "http://www.w3.org/TR/2001/REC-SVG-20010904/DTD/svg10.dtd">
<svg version="1.0" xmlns="http://www.w3.org/2000/svg"
 width="96.000000pt" height="68.000000pt" viewBox="0 0 96.000000 68.000000"
 preserveAspectRatio="xMidYMid meet">
<metadata>
Created by potrace 1.16, written by Peter Selinger 2001-2019
</metadata>
<g transform="translate(0.000000,68.000000) scale(0.100000,-0.100000)"
fill="#000000" stroke="none">
<path d="M400 191 c0 -16 51 -71 66 -71 18 0 18 34 1 48 -20 17 -67 33 -67 23z"/>
<path d="M327 163 c10 -29 35 -63 44 -63 19 0 8 49 -13 64 -29 21 -39 20 -31
-1z"/>
<path d="M240 158 c0 -8 5 -29 11 -47 13 -36 39 -42 39 -8 0 24 -7 35 -32 56
-15 11 -18 11 -18 -1z"/>
<path d="M143 107 c-20 -42 -17 -77 8 -77 17 0 42 66 35 94 -9 36 -19 33 -43
-17z"/>
</g>
</svg>
