<?xml version="1.0" standalone="no"?>
<!DOCTYPE svg PUBLIC "-//W3C//DTD SVG 20010904//EN"
 "http://www.w3.org/TR/2001/REC-SVG-20010904/DTD/svg10.dtd">
<svg version="1.0" xmlns="http://www.w3.org/2000/svg"
 width="90.000000pt" height="92.000000pt" viewBox="0 0 90.000000 92.000000"
 preserveAspectRatio="xMidYMid meet">
<metadata>
Created by potrace 1.16, written by Peter Selinger 2001-2019
</metadata>
<g transform="translate(0.000000,92.000000) scale(0.100000,-0.100000)"
fill="#000000" stroke="none">
<path d="M575 739 c-27 -21 -74 -51 -102 -66 -29 -16 -53 -32 -53 -37 0 -4 6
-6 14 -3 8 3 31 9 50 13 35 6 36 6 36 -27 0 -19 3 -84 6 -145 l7 -112 -41 -3
c-39 -4 -40 -3 -46 31 -3 19 -6 60 -6 91 0 50 -3 57 -22 63 -42 11 -51 8 -44
-16 4 -13 13 -58 20 -100 l13 -77 -49 -6 c-104 -15 -26 -47 83 -35 41 5 134
11 207 15 72 4 132 11 132 16 0 5 -11 16 -25 25 -21 14 -40 15 -100 10 l-75
-7 0 70 0 69 53 7 c68 8 87 14 87 26 0 20 -45 26 -94 13 l-49 -13 6 60 c4 47
2 61 -10 68 -12 6 1 14 51 31 70 23 81 39 44 64 -30 22 -36 20 -93 -25z"/>
<path d="M190 735 c-14 -8 -46 -19 -72 -25 -27 -7 -48 -16 -48 -21 0 -11 53
-11 103 0 30 7 37 6 37 -6 0 -22 -37 -82 -78 -125 -28 -30 -33 -41 -28 -63 6
-22 11 -26 29 -22 91 21 87 21 87 -1 0 -12 -9 -46 -20 -75 l-20 -54 -42 14
c-26 9 -56 12 -80 8 -43 -8 -52 -25 -12 -25 14 0 45 -5 70 -11 l45 -12 -17
-26 c-25 -39 -64 -80 -108 -112 -58 -43 -16 -37 56 8 33 20 71 52 85 70 l25
32 41 -21 c23 -11 108 -58 189 -104 80 -47 161 -87 178 -91 23 -4 63 5 146 33
63 21 114 41 114 45 0 3 -57 9 -127 12 -182 9 -273 33 -445 118 l-77 39 42 91
c41 89 41 91 22 105 -15 11 -34 13 -74 8 -44 -5 -52 -4 -46 7 17 29 93 125
114 143 26 23 27 44 4 62 -23 17 -62 17 -93 -1z"/>
</g>
</svg>
