<?xml version="1.0" standalone="no"?>
<!DOCTYPE svg PUBLIC "-//W3C//DTD SVG 20010904//EN"
 "http://www.w3.org/TR/2001/REC-SVG-20010904/DTD/svg10.dtd">
<svg version="1.0" xmlns="http://www.w3.org/2000/svg"
 width="96.000000pt" height="68.000000pt" viewBox="0 0 96.000000 68.000000"
 preserveAspectRatio="xMidYMid meet">
<metadata>
Created by potrace 1.16, written by Peter Selinger 2001-2019
</metadata>
<g transform="translate(0.000000,68.000000) scale(0.100000,-0.100000)"
fill="#000000" stroke="none">
<path d="M490 601 c5 -11 16 -26 24 -34 13 -13 -1 -16 -117 -27 -73 -7 -136
-15 -141 -18 -5 -3 0 -11 10 -19 16 -12 19 -25 17 -80 -4 -112 -51 -236 -127
-336 -40 -52 -42 -57 -23 -57 15 0 105 92 130 131 27 45 58 149 72 243 8 48
16 90 18 92 2 3 55 10 116 16 119 13 130 10 131 -33 0 -26 -80 -34 -100 -11
-8 10 -23 21 -32 25 -19 7 -34 -8 -18 -18 14 -9 12 -36 -2 -34 -7 1 -26 0 -43
-1 -24 -3 -22 -4 15 -9 42 -6 45 -8 53 -44 6 -25 14 -37 22 -33 8 3 40 8 73
12 l60 6 6 39 c6 39 7 39 51 39 54 0 60 18 8 22 -25 2 -37 7 -35 16 1 8 -7 16
-19 19 -37 10 1 23 68 23 67 0 87 12 51 31 -14 8 -49 10 -101 6 -63 -4 -77 -3
-73 8 7 19 -37 45 -74 45 -27 0 -30 -2 -20 -19z m102 -186 c-5 -25 0 -22 -47
-27 -35 -3 -40 0 -43 19 -3 18 3 22 30 26 52 6 63 3 60 -18z"/>
<path d="M550 335 c-52 -7 -123 -14 -158 -14 -46 -1 -62 -4 -59 -13 4 -13 80
-15 158 -3 31 4 38 2 42 -15 5 -19 0 -20 -67 -20 -79 0 -92 -5 -71 -27 8 -7
17 -30 20 -51 10 -57 24 -85 40 -78 16 6 202 10 224 4 9 -2 24 22 43 72 28 71
28 75 11 88 -13 10 -36 12 -80 8 -57 -5 -63 -4 -63 14 0 18 9 20 113 22 68 2
111 7 110 13 -4 15 -154 15 -263 0z m138 -92 c3 -22 0 -23 -52 -23 -49 0 -56
3 -56 19 0 20 19 27 75 26 23 0 31 -5 33 -22z m-148 -7 c0 -20 -6 -25 -40 -31
-45 -8 -60 -2 -60 25 0 19 18 26 73 29 22 1 27 -3 27 -23z m140 -45 c0 -31
-14 -41 -56 -41 -37 0 -44 3 -44 19 0 20 17 27 73 30 15 0 27 -3 27 -8z m-140
-26 c0 -22 -4 -25 -39 -25 -30 0 -40 4 -44 19 -5 20 0 23 61 29 17 1 22 -3 22
-23z"/>
<path d="M448 62 c-14 -15 -37 -35 -50 -46 l-23 -18 25 7 c49 14 130 59 127
69 -7 22 -52 15 -79 -12z"/>
<path d="M675 44 c56 -46 90 -53 83 -17 -4 23 -75 63 -111 63 -28 0 -26 -2 28
-46z"/>
</g>
</svg>
