<?xml version="1.0" standalone="no"?>
<!DOCTYPE svg PUBLIC "-//W3C//DTD SVG 20010904//EN"
 "http://www.w3.org/TR/2001/REC-SVG-20010904/DTD/svg10.dtd">
<svg version="1.0" xmlns="http://www.w3.org/2000/svg"
 width="90.000000pt" height="92.000000pt" viewBox="0 0 90.000000 92.000000"
 preserveAspectRatio="xMidYMid meet">
<metadata>
Created by potrace 1.16, written by Peter Selinger 2001-2019
</metadata>
<g transform="translate(0.000000,92.000000) scale(0.100000,-0.100000)"
fill="#000000" stroke="none">
<path d="M560 846 c0 -58 -7 -66 -60 -66 -16 0 -31 -4 -35 -9 -8 -14 33 -34
57 -28 15 4 18 2 13 -11 -11 -29 -18 -72 -11 -72 3 0 18 19 33 43 15 23 29 44
30 46 2 3 36 7 75 10 39 3 73 11 75 17 6 19 -51 36 -92 28 l-37 -7 15 30 c17
32 13 44 -20 62 -37 19 -43 13 -43 -43z"/>
<path d="M256 871 c-3 -4 2 -27 11 -50 9 -23 13 -45 9 -49 -4 -4 -35 -8 -69
-9 -67 -2 -75 -12 -35 -45 25 -22 36 -22 81 -3 39 16 39 16 56 -37 18 -54 31
-47 31 15 l0 54 40 12 c51 15 43 33 -11 25 l-39 -7 0 42 c0 35 -4 43 -26 51
-31 12 -41 12 -48 1z"/>
<path d="M445 629 c-89 -20 -152 -26 -176 -15 -14 6 -15 -4 -11 -93 3 -58 0
-119 -7 -145 -8 -34 -8 -51 1 -70 13 -29 26 -33 34 -11 4 8 15 15 26 15 15 0
18 -4 12 -22 -18 -58 -99 -137 -194 -187 -34 -18 -60 -34 -58 -36 2 -2 23 1
48 6 74 17 158 68 216 133 50 56 52 62 39 82 -13 21 -12 22 15 26 37 6 40 -3
40 -106 0 -91 10 -115 63 -143 50 -27 217 -25 280 4 26 12 50 29 53 37 3 8 -7
41 -22 72 l-28 57 -15 -49 c-13 -39 -23 -53 -51 -66 -58 -30 -210 -20 -232 14
-13 21 -9 86 7 125 11 27 12 39 4 49 -9 11 -7 14 10 14 15 0 27 -11 38 -35 9
-19 20 -35 25 -35 5 0 17 15 29 32 18 30 19 43 14 138 -4 58 -2 124 3 148 9
39 8 44 -15 62 -30 24 -42 23 -148 -1z m113 -61 c3 -26 1 -28 -35 -28 -21 0
-74 -7 -118 -15 -107 -19 -105 -19 -105 15 0 22 5 31 23 35 58 14 137 23 182
22 47 -2 50 -4 53 -29z m2 -89 c0 -28 -2 -31 -25 -25 -13 3 -63 -1 -111 -9
-117 -20 -124 -20 -124 8 0 22 6 24 113 39 159 22 147 23 147 -13z m-4 -93
c-5 -20 -12 -24 -50 -24 -24 -1 -73 -6 -107 -12 -96 -15 -99 -14 -99 20 0 29
2 30 48 31 26 0 83 6 127 13 44 6 82 8 83 3 2 -4 1 -18 -2 -31z"/>
</g>
</svg>
