<?xml version="1.0" standalone="no"?>
<!DOCTYPE svg PUBLIC "-//W3C//DTD SVG 20010904//EN"
 "http://www.w3.org/TR/2001/REC-SVG-20010904/DTD/svg10.dtd">
<svg version="1.0" xmlns="http://www.w3.org/2000/svg"
 width="96.000000pt" height="68.000000pt" viewBox="0 0 96.000000 68.000000"
 preserveAspectRatio="xMidYMid meet">
<metadata>
Created by potrace 1.16, written by Peter Selinger 2001-2019
</metadata>
<g transform="translate(0.000000,68.000000) scale(0.100000,-0.100000)"
fill="#000000" stroke="none">
<path d="M445 444 c-44 -8 -94 -12 -110 -10 l-30 4 0 -84 c0 -73 2 -84 18 -84
9 0 17 5 17 11 0 6 6 9 14 6 8 -3 58 -1 111 6 60 7 99 7 103 1 4 -5 14 -10 23
-12 14 -2 18 10 21 75 7 111 -3 116 -167 87z m120 -39 c0 -11 -5 -19 -11 -18
-6 1 -53 -4 -105 -12 -52 -8 -97 -15 -101 -15 -5 0 -8 11 -8 24 0 26 -5 24
115 40 17 2 48 3 70 2 33 -1 40 -5 40 -21z m1 -62 c3 -18 -3 -21 -80 -26 -45
-4 -97 -10 -114 -13 -29 -6 -32 -4 -32 20 0 25 2 26 58 27 31 0 77 4 102 8 57
11 63 9 66 -16z"/>
</g>
</svg>
