<?xml version="1.0" standalone="no"?>
<!DOCTYPE svg PUBLIC "-//W3C//DTD SVG 20010904//EN"
 "http://www.w3.org/TR/2001/REC-SVG-20010904/DTD/svg10.dtd">
<svg version="1.0" xmlns="http://www.w3.org/2000/svg"
 width="96.000000pt" height="68.000000pt" viewBox="0 0 96.000000 68.000000"
 preserveAspectRatio="xMidYMid meet">
<metadata>
Created by potrace 1.16, written by Peter Selinger 2001-2019
</metadata>
<g transform="translate(0.000000,68.000000) scale(0.100000,-0.100000)"
fill="#000000" stroke="none">
<path d="M566 600 c-6 -39 -7 -40 -47 -40 -33 0 -40 -3 -37 -17 2 -13 11 -17
32 -15 27 4 29 2 23 -27 -8 -39 4 -39 38 0 22 28 35 33 90 38 35 4 67 10 71
13 12 12 -39 30 -76 26 -34 -3 -37 -2 -28 15 12 23 -6 47 -37 47 -18 0 -24 -7
-29 -40z"/>
<path d="M300 609 c0 -11 5 -29 10 -40 10 -18 7 -19 -50 -19 -47 0 -60 -3 -60
-15 0 -26 46 -40 90 -28 37 9 39 9 51 -19 16 -40 39 -36 39 7 0 30 4 35 30 42
40 11 38 28 -3 28 -27 0 -33 4 -36 25 -4 29 -17 40 -48 40 -17 0 -23 -6 -23
-21z"/>
<path d="M445 444 c-44 -8 -94 -13 -111 -10 l-31 4 5 -72 c3 -45 0 -81 -7 -94
-14 -26 -4 -72 16 -72 8 0 11 5 8 10 -3 6 3 10 14 10 58 0 -12 -85 -112 -136
-64 -32 -68 -36 -33 -29 51 9 141 55 186 95 30 27 32 34 22 51 -11 17 -9 19
18 19 l30 0 0 -63 c0 -54 4 -67 24 -86 55 -52 254 -56 320 -8 18 13 18 15 -5
55 -13 23 -26 42 -29 42 -4 0 -12 -16 -19 -36 -8 -21 -22 -39 -38 -45 -35 -13
-154 -11 -183 4 -30 15 -37 55 -17 96 11 21 12 32 4 40 -8 8 -5 11 9 11 12 0
25 -10 32 -25 13 -28 27 -31 47 -12 9 9 14 50 16 131 4 151 6 150 -166 120z
m117 -24 c4 -29 1 -33 -27 -36 -82 -8 -143 -15 -167 -20 -25 -5 -28 -3 -28 20
0 22 5 25 48 31 26 3 54 8 62 9 36 8 110 5 112 -4z m5 -83 c-3 -9 -37 -17
-109 -25 -104 -11 -126 -7 -115 22 5 12 21 16 59 17 29 0 76 4 103 8 53 8 71
1 62 -22z m3 -57 c0 -26 -4 -27 -128 -34 -100 -5 -103 -5 -100 15 3 18 12 22
63 26 32 2 61 6 64 8 2 3 26 5 53 5 42 0 48 -3 48 -20z"/>
</g>
</svg>
