<?xml version="1.0" standalone="no"?>
<!DOCTYPE svg PUBLIC "-//W3C//DTD SVG 20010904//EN"
 "http://www.w3.org/TR/2001/REC-SVG-20010904/DTD/svg10.dtd">
<svg version="1.0" xmlns="http://www.w3.org/2000/svg"
 width="96.000000pt" height="68.000000pt" viewBox="0 0 96.000000 68.000000"
 preserveAspectRatio="xMidYMid meet">
<metadata>
Created by potrace 1.16, written by Peter Selinger 2001-2019
</metadata>
<g transform="translate(0.000000,68.000000) scale(0.100000,-0.100000)"
fill="#000000" stroke="none">
<path d="M267 356 c-58 -14 -69 -29 -61 -81 9 -54 22 -79 37 -67 7 5 39 13 72
17 33 4 55 10 48 12 -12 4 -6 32 19 80 26 51 -12 64 -115 39z m59 -58 c-8 -51
-7 -50 -48 -51 -31 -2 -33 0 -38 40 -7 46 -3 50 59 52 l34 1 -7 -42z"/>
</g>
</svg>
