<?xml version="1.0" standalone="no"?>
<!DOCTYPE svg PUBLIC "-//W3C//DTD SVG 20010904//EN"
 "http://www.w3.org/TR/2001/REC-SVG-20010904/DTD/svg10.dtd">
<svg version="1.0" xmlns="http://www.w3.org/2000/svg"
 width="96.000000pt" height="68.000000pt" viewBox="0 0 96.000000 68.000000"
 preserveAspectRatio="xMidYMid meet">
<metadata>
Created by potrace 1.16, written by Peter Selinger 2001-2019
</metadata>
<g transform="translate(0.000000,68.000000) scale(0.100000,-0.100000)"
fill="#000000" stroke="none">
<path d="M295 573 c4 -21 8 -60 9 -88 l1 -50 -65 -9 c-36 -4 -67 -10 -70 -13
-12 -11 30 -23 83 -23 l57 0 0 -40 c0 -37 -3 -41 -48 -64 -26 -13 -71 -32
-100 -41 -54 -18 -61 -25 -39 -43 33 -28 62 -23 120 17 l57 40 0 -39 c0 -21
-4 -50 -10 -64 -8 -22 -13 -24 -47 -19 l-38 6 48 -47 c39 -38 51 -45 66 -36
27 14 31 31 31 134 l0 93 40 28 c40 28 55 54 23 40 -10 -5 -26 -8 -35 -9 -9 0
-14 -4 -12 -8 3 -4 0 -8 -5 -8 -6 0 -11 16 -11 35 0 32 3 35 38 40 55 10 64
14 60 28 -3 6 -24 13 -48 15 l-42 3 5 42 c4 23 9 53 12 68 5 20 2 27 -20 37
-14 7 -35 12 -47 12 -19 0 -20 -4 -13 -37z"/>
<path d="M630 535 c-52 -8 -108 -11 -125 -8 -29 6 -29 5 -14 -13 19 -23 39
-78 39 -110 0 -25 19 -42 29 -26 3 5 48 13 99 17 69 6 92 11 88 20 -2 7 8 34
24 59 l29 46 -29 15 c-16 8 -33 14 -37 14 -4 -1 -51 -7 -103 -14z m85 -47
c-14 -71 -10 -68 -90 -68 l-73 0 -7 36 c-3 20 -5 38 -3 39 6 7 103 23 141 24
38 1 39 1 32 -31z"/>
<path d="M759 335 c-5 -5 -202 -32 -266 -37 -18 -1 -33 -5 -33 -9 0 -13 33
-19 66 -13 30 5 34 4 34 -15 0 -30 -40 -89 -94 -139 -25 -23 -46 -45 -46 -48
0 -12 96 51 125 82 57 60 90 115 76 123 -19 12 -2 19 54 21 84 3 85 3 85 -28
0 -40 -29 -134 -48 -155 -11 -12 -26 -17 -44 -15 -34 5 -35 1 -4 -37 24 -29
26 -29 53 -15 34 19 68 84 83 159 6 31 15 64 20 73 14 25 12 35 -7 41 -10 2
-25 8 -34 11 -8 4 -17 4 -20 1z"/>
</g>
</svg>
