<?xml version="1.0" standalone="no"?>
<!DOCTYPE svg PUBLIC "-//W3C//DTD SVG 20010904//EN"
 "http://www.w3.org/TR/2001/REC-SVG-20010904/DTD/svg10.dtd">
<svg version="1.0" xmlns="http://www.w3.org/2000/svg"
 width="96.000000pt" height="68.000000pt" viewBox="0 0 96.000000 68.000000"
 preserveAspectRatio="xMidYMid meet">
<metadata>
Created by potrace 1.16, written by Peter Selinger 2001-2019
</metadata>
<g transform="translate(0.000000,68.000000) scale(0.100000,-0.100000)"
fill="#000000" stroke="none">
<path d="M339 593 c-12 -26 -36 -63 -55 -82 -19 -20 -34 -39 -34 -43 0 -17 95
36 104 57 3 8 13 14 23 13 10 0 38 3 63 7 25 3 40 3 34 -2 -5 -4 -25 -29 -43
-55 -38 -54 -56 -60 -168 -61 -69 0 -72 -1 -57 -18 8 -9 21 -40 29 -69 16 -61
21 -68 37 -52 7 7 32 12 56 12 40 0 43 -2 36 -22 -11 -36 -61 -105 -94 -128
-16 -11 -50 -30 -75 -41 -67 -30 -47 -36 26 -9 73 28 157 101 184 159 29 66
45 49 45 -50 0 -111 39 -144 170 -144 94 0 141 10 168 35 20 19 20 20 3 70
-21 58 -31 72 -31 41 0 -30 -26 -78 -49 -91 -25 -13 -151 -13 -184 -1 -34 13
-41 42 -26 103 11 49 11 52 -11 70 -22 18 -21 18 49 18 68 0 71 1 71 23 0 13
13 37 30 53 36 35 37 47 6 64 -23 12 -86 10 -168 -5 -16 -3 -28 -2 -28 2 0 7
95 88 134 116 7 5 4 13 -9 23 -20 15 -82 14 -143 -2 -18 -5 -21 -3 -16 11 5
12 1 23 -11 31 -31 23 -43 16 -66 -33z m233 -168 c3 -3 1 -23 -4 -44 -10 -38
-11 -38 -66 -44 -31 -3 -59 -4 -61 -1 -3 3 0 18 6 35 10 25 9 31 -4 36 -14 6
-14 8 3 14 22 9 118 12 126 4z m-187 -60 l0 -40 -53 -3 c-48 -3 -53 -1 -62 23
-21 54 -8 64 75 61 40 -1 40 -1 40 -41z"/>
</g>
</svg>
