<?xml version="1.0" standalone="no"?>
<!DOCTYPE svg PUBLIC "-//W3C//DTD SVG 20010904//EN"
 "http://www.w3.org/TR/2001/REC-SVG-20010904/DTD/svg10.dtd">
<svg version="1.0" xmlns="http://www.w3.org/2000/svg"
 width="96.000000pt" height="68.000000pt" viewBox="0 0 96.000000 68.000000"
 preserveAspectRatio="xMidYMid meet">
<metadata>
Created by potrace 1.16, written by Peter Selinger 2001-2019
</metadata>
<g transform="translate(0.000000,68.000000) scale(0.100000,-0.100000)"
fill="#000000" stroke="none">
<path d="M520 561 c5 -11 15 -23 20 -26 23 -14 7 -24 -47 -30 -80 -9 -94 -15
-64 -26 16 -6 60 -4 130 6 139 20 153 23 145 37 -4 7 -26 8 -60 4 -42 -5 -54
-3 -54 7 0 20 -33 47 -59 47 -18 0 -20 -3 -11 -19z"/>
</g>
</svg>
