<?xml version="1.0" standalone="no"?>
<!DOCTYPE svg PUBLIC "-//W3C//DTD SVG 20010904//EN"
 "http://www.w3.org/TR/2001/REC-SVG-20010904/DTD/svg10.dtd">
<svg version="1.0" xmlns="http://www.w3.org/2000/svg"
 width="96.000000pt" height="68.000000pt" viewBox="0 0 96.000000 68.000000"
 preserveAspectRatio="xMidYMid meet">
<metadata>
Created by potrace 1.16, written by Peter Selinger 2001-2019
</metadata>
<g transform="translate(0.000000,68.000000) scale(0.100000,-0.100000)"
fill="#000000" stroke="none">
<path d="M560 567 l0 -44 -57 -10 -58 -10 53 -2 53 -1 -3 -32 -3 -33 -83 0
-82 0 -11 -32 c-6 -18 -15 -33 -21 -33 -5 0 -8 -8 -6 -17 5 -28 31 -21 53 13
17 27 28 33 74 38 30 4 56 5 58 2 9 -8 -19 -41 -58 -69 -31 -22 -37 -32 -29
-42 8 -10 20 -11 46 -3 53 14 51 4 -3 -27 -61 -35 -58 -32 -43 -50 11 -13 24
-15 67 -9 l54 6 -3 -73 c-3 -70 -4 -74 -26 -72 -23 3 -23 3 -5 -22 20 -27 40
-38 54 -30 28 18 40 181 14 191 -25 10 -17 21 21 27 24 4 44 1 58 -8 11 -8 26
-15 33 -15 24 0 13 36 -16 53 -35 21 -62 22 -55 3 4 -10 -10 -15 -58 -18 -94
-8 -93 -4 22 61 61 35 73 54 43 65 -11 5 -26 -3 -44 -24 -16 -16 -38 -30 -51
-30 -13 0 -34 -3 -48 -6 l-25 -6 25 23 c14 13 37 32 53 42 15 10 27 23 27 31
0 14 61 26 131 26 41 0 46 -8 29 -41 -6 -10 -7 -19 -3 -19 18 1 102 26 108 32
4 3 -10 18 -29 33 l-35 27 -91 -13 c-50 -6 -92 -10 -95 -7 -2 2 -1 17 4 34 5
21 14 30 32 32 13 1 40 5 59 8 30 5 32 7 16 16 -10 6 -36 7 -58 4 l-40 -7 7
31 c6 26 3 31 -20 40 -36 14 -35 15 -35 -33z"/>
<path d="M220 440 c-14 -4 -49 -8 -78 -9 l-53 -1 26 -37 c14 -21 28 -59 31
-86 6 -46 32 -77 42 -49 2 7 14 12 27 12 67 0 81 9 94 63 7 29 13 66 14 82 2
28 0 30 -38 32 -22 1 -51 -2 -65 -7z m40 -68 c0 -53 -12 -72 -47 -72 -25 0
-40 25 -45 77 -3 26 0 29 37 34 22 3 43 7 48 8 4 0 7 -21 7 -47z"/>
<path d="M710 125 c48 -49 70 -57 70 -24 0 33 -47 69 -91 69 -21 0 -19 -4 21
-45z"/>
<path d="M406 125 c-11 -19 -22 -35 -27 -35 -4 0 -10 -7 -13 -15 -4 -12 4 -10
32 7 79 47 88 56 72 67 -27 19 -45 12 -64 -24z"/>
</g>
</svg>
