<?xml version="1.0" standalone="no"?>
<!DOCTYPE svg PUBLIC "-//W3C//DTD SVG 20010904//EN"
 "http://www.w3.org/TR/2001/REC-SVG-20010904/DTD/svg10.dtd">
<svg version="1.0" xmlns="http://www.w3.org/2000/svg"
 width="90.000000pt" height="92.000000pt" viewBox="0 0 90.000000 92.000000"
 preserveAspectRatio="xMidYMid meet">
<metadata>
Created by potrace 1.16, written by Peter Selinger 2001-2019
</metadata>
<g transform="translate(0.000000,92.000000) scale(0.100000,-0.100000)"
fill="#000000" stroke="none">
<path d="M190 812 c0 -4 20 -28 45 -52 36 -36 49 -43 62 -34 40 25 16 64 -52
83 -48 13 -55 13 -55 3z"/>
<path d="M496 773 c8 -50 -11 -184 -28 -194 -7 -5 -24 -9 -38 -9 -14 0 -32 -5
-40 -10 -13 -9 -13 -11 0 -20 8 -6 30 -9 48 -7 17 1 32 0 32 -3 0 -15 -44
-138 -60 -170 -10 -19 -42 -61 -70 -93 -29 -32 -50 -60 -48 -63 12 -11 106 65
133 108 17 26 35 47 42 47 10 1 68 -63 87 -96 12 -21 -12 -51 -90 -113 -41
-33 -69 -60 -62 -60 28 1 99 41 142 81 l46 42 22 -29 c55 -72 95 -104 130
-104 41 0 138 27 138 39 0 5 -21 14 -47 21 -56 14 -158 62 -191 89 l-23 20 51
104 c27 58 50 107 50 111 0 7 -55 36 -70 36 -5 0 -10 -18 -10 -40 0 -38 -33
-145 -51 -164 -5 -6 -18 3 -31 20 -12 16 -35 42 -50 57 l-28 28 20 71 c11 39
21 72 22 73 2 2 48 13 103 25 55 13 104 26 109 31 5 5 -3 13 -20 19 -23 9 -43
8 -104 -9 -41 -11 -76 -19 -78 -17 -2 2 4 46 13 97 15 88 15 94 -2 106 -9 7
-25 13 -35 13 -15 0 -17 -6 -12 -37z"/>
<path d="M644 742 c29 -57 75 -75 90 -36 10 25 -5 43 -42 54 -59 16 -65 14
-48 -18z"/>
<path d="M220 629 c-30 -11 -78 -22 -107 -26 -57 -6 -69 -23 -28 -41 19 -9 38
-7 96 13 40 14 74 25 76 25 24 0 -97 -176 -192 -277 -37 -40 -64 -73 -60 -73
21 0 79 42 138 99 l69 66 -6 -115 c-11 -199 -11 -209 2 -222 27 -27 37 10 44
160 3 81 7 149 7 150 1 2 15 -8 32 -22 38 -33 59 -33 59 -2 0 30 -19 45 -64
53 -49 8 -54 32 -18 85 17 24 42 54 56 67 34 32 33 47 -4 66 -35 18 -32 18
-100 -6z"/>
</g>
</svg>
