<?xml version="1.0" standalone="no"?>
<!DOCTYPE svg PUBLIC "-//W3C//DTD SVG 20010904//EN"
 "http://www.w3.org/TR/2001/REC-SVG-20010904/DTD/svg10.dtd">
<svg version="1.0" xmlns="http://www.w3.org/2000/svg"
 width="96.000000pt" height="68.000000pt" viewBox="0 0 96.000000 68.000000"
 preserveAspectRatio="xMidYMid meet">
<metadata>
Created by potrace 1.16, written by Peter Selinger 2001-2019
</metadata>
<g transform="translate(0.000000,68.000000) scale(0.100000,-0.100000)"
fill="#000000" stroke="none">
<path d="M516 613 c-3 -3 -6 -15 -6 -26 0 -35 -57 -140 -115 -210 -30 -37 -51
-67 -45 -67 16 0 124 112 155 162 17 27 33 48 37 48 3 0 29 -27 56 -60 84
-100 100 -110 175 -110 69 0 96 13 49 25 -60 15 -178 79 -223 122 -41 39 -47
50 -42 73 4 21 0 31 -15 39 -10 6 -22 7 -26 4z"/>
<path d="M237 602 c-4 -5 -2 -24 3 -43 6 -19 10 -52 10 -75 0 -45 -12 -54 -72
-54 -33 0 -58 -9 -58 -21 0 -5 29 -9 65 -9 l65 0 0 -39 c0 -37 -1 -39 -68 -70
-38 -17 -74 -31 -80 -31 -18 0 -25 -20 -12 -35 20 -24 57 -17 110 21 l49 35
-6 -68 c-3 -37 -9 -72 -13 -76 -4 -4 -18 -3 -32 2 -14 5 -28 7 -31 4 -6 -6 83
-93 95 -93 4 0 15 14 24 32 13 26 15 48 11 113 -8 96 -3 118 29 135 13 8 24
20 24 27 0 10 -5 11 -19 3 -28 -15 -31 -13 -31 20 0 25 4 30 35 36 43 8 41 28
-3 32 -26 3 -32 8 -32 28 0 14 7 41 15 61 13 30 13 39 3 50 -17 17 -74 28 -81
15z"/>
<path d="M522 400 c-44 -10 -52 -20 -16 -20 47 0 104 12 104 21 0 11 -42 10
-88 -1z"/>
<path d="M518 332 c-43 -9 -78 -20 -78 -24 0 -11 30 -10 89 4 28 6 54 9 57 5
4 -3 -3 -22 -15 -42 -11 -20 -21 -38 -21 -41 0 -3 27 14 60 38 48 34 58 45 48
54 -22 21 -60 23 -140 6z"/>
<path d="M700 220 c0 -5 3 -10 8 -10 4 0 22 -14 41 -30 38 -33 54 -34 59 -3 2
16 -6 24 -38 37 -46 18 -70 20 -70 6z"/>
<path d="M520 211 c0 -11 62 -51 79 -51 12 0 15 36 4 43 -19 11 -83 17 -83 8z"/>
<path d="M360 175 c-23 -38 -23 -70 0 -70 20 0 50 57 43 83 -8 31 -18 28 -43
-13z"/>
<path d="M450 186 c0 -20 41 -76 73 -100 53 -39 237 -32 237 9 0 7 -20 25 -44
39 -48 28 -68 34 -48 14 18 -18 15 -45 -5 -50 -29 -8 -102 -1 -133 12 -18 8
-36 27 -47 51 -18 39 -33 50 -33 25z"/>
</g>
</svg>
