<?xml version="1.0" standalone="no"?>
<!DOCTYPE svg PUBLIC "-//W3C//DTD SVG 20010904//EN"
 "http://www.w3.org/TR/2001/REC-SVG-20010904/DTD/svg10.dtd">
<svg version="1.0" xmlns="http://www.w3.org/2000/svg"
 width="96.000000pt" height="68.000000pt" viewBox="0 0 96.000000 68.000000"
 preserveAspectRatio="xMidYMid meet">
<metadata>
Created by potrace 1.16, written by Peter Selinger 2001-2019
</metadata>
<g transform="translate(0.000000,68.000000) scale(0.100000,-0.100000)"
fill="#000000" stroke="none">
<path d="M290 517 c-19 -5 -52 -7 -75 -5 l-40 3 0 -150 c0 -135 -2 -155 -23
-200 -13 -27 -30 -57 -39 -67 -31 -34 -6 -28 30 7 23 22 42 55 53 89 16 49 19
54 37 45 15 -9 24 -6 46 15 15 14 30 26 34 26 11 0 8 -129 -3 -150 -9 -16 -15
-18 -37 -9 -14 5 -27 8 -29 6 -2 -2 15 -21 37 -43 l40 -39 20 24 c17 21 19 40
19 190 0 91 4 182 10 200 15 54 -14 76 -80 58z m28 -81 c3 -57 2 -58 -20 -52
-13 4 -35 9 -50 12 -23 5 -28 12 -28 38 0 49 20 67 70 63 23 -2 25 -6 28 -61z
m-64 -71 c11 -8 30 -15 43 -15 17 0 23 -6 23 -21 0 -14 -13 -26 -45 -40 -25
-11 -49 -18 -53 -15 -9 5 -3 106 6 106 4 0 16 -7 26 -15z"/>
</g>
</svg>
