<?xml version="1.0" standalone="no"?>
<!DOCTYPE svg PUBLIC "-//W3C//DTD SVG 20010904//EN"
 "http://www.w3.org/TR/2001/REC-SVG-20010904/DTD/svg10.dtd">
<svg version="1.0" xmlns="http://www.w3.org/2000/svg"
 width="96.000000pt" height="68.000000pt" viewBox="0 0 96.000000 68.000000"
 preserveAspectRatio="xMidYMid meet">
<metadata>
Created by potrace 1.16, written by Peter Selinger 2001-2019
</metadata>
<g transform="translate(0.000000,68.000000) scale(0.100000,-0.100000)"
fill="#000000" stroke="none">
<path d="M655 501 c-11 -5 -49 -10 -84 -10 -53 -1 -62 -3 -57 -17 3 -9 6 -38
6 -66 0 -49 0 -50 28 -44 15 4 61 7 103 8 l77 1 26 56 c15 33 22 59 17 64 -13
13 -93 18 -116 8z m58 -30 c4 -16 -3 -19 -52 -25 -31 -3 -65 -7 -76 -9 -11 -1
-21 5 -23 14 -2 12 10 18 50 26 81 16 95 15 101 -6z m-10 -51 c-7 -27 -8 -27
-83 -31 -53 -3 -65 -1 -65 11 0 11 19 18 70 26 39 7 73 12 77 13 3 0 4 -8 1
-19z"/>
</g>
</svg>
