<?xml version="1.0" standalone="no"?>
<!DOCTYPE svg PUBLIC "-//W3C//DTD SVG 20010904//EN"
 "http://www.w3.org/TR/2001/REC-SVG-20010904/DTD/svg10.dtd">
<svg version="1.0" xmlns="http://www.w3.org/2000/svg"
 width="96.000000pt" height="68.000000pt" viewBox="0 0 96.000000 68.000000"
 preserveAspectRatio="xMidYMid meet">
<metadata>
Created by potrace 1.16, written by Peter Selinger 2001-2019
</metadata>
<g transform="translate(0.000000,68.000000) scale(0.100000,-0.100000)"
fill="#000000" stroke="none">
<path d="M610 590 c0 -5 -12 -30 -27 -55 -18 -29 -35 -45 -48 -45 -19 0 -20
-7 -22 -126 l-2 -126 37 6 c20 3 81 9 135 13 l99 6 -7 -74 c-4 -41 -14 -85
-22 -97 -13 -21 -20 -23 -51 -17 l-37 7 29 -31 c17 -17 37 -31 46 -31 26 0 59
37 68 78 26 107 33 165 22 176 -13 13 -105 14 -207 2 -62 -8 -73 -7 -73 6 0
11 15 17 53 22 116 14 137 19 137 29 0 9 -25 8 -143 -9 -47 -7 -49 -6 -45 17
3 22 9 24 71 29 38 3 71 1 74 -3 8 -14 33 14 58 67 16 34 21 54 14 61 -11 11
-82 12 -149 1 l-45 -7 49 45 c26 24 45 49 41 55 -8 14 -55 15 -55 1z m103
-113 c9 -25 -7 -32 -80 -35 -124 -6 -75 37 53 46 12 1 24 -4 27 -11z m-13 -67
c0 -18 -7 -20 -76 -20 -122 0 -82 31 49 38 21 2 27 -2 27 -18z"/>
<path d="M306 561 c-3 -4 -1 -25 4 -47 5 -21 10 -62 10 -89 0 -51 0 -51 -34
-53 -30 -2 -34 1 -39 25 -3 16 -2 29 2 31 5 1 17 9 27 17 19 15 19 15 0 30
-27 21 -53 19 -61 -5 -3 -10 -25 -33 -48 -51 l-42 -31 36 6 c28 5 38 3 42 -9
8 -19 -21 -35 -62 -35 -17 0 -31 -4 -31 -10 0 -15 43 -22 73 -11 26 10 27 9
27 -22 0 -37 -18 -52 -74 -62 -38 -8 -47 -21 -19 -32 9 -4 33 3 55 16 l39 22
-3 -48 c-3 -45 -5 -48 -30 -48 -16 1 -28 0 -28 -1 0 -1 14 -17 30 -35 l30 -34
20 24 c16 18 20 38 20 97 0 41 4 74 8 74 5 0 17 6 27 14 18 13 18 14 -9 9 -25
-5 -27 -3 -24 18 2 19 11 25 40 30 l37 6 11 -49 c15 -73 13 -84 -22 -107 -19
-12 -26 -21 -17 -21 8 0 24 7 35 15 27 21 31 19 49 -19 18 -38 80 -106 97
-106 6 0 8 12 4 31 -3 17 -6 42 -6 55 0 30 -14 31 -27 1 -10 -21 -11 -21 -34
18 -28 47 -27 56 14 107 22 28 28 41 19 50 -11 11 -44 4 -40 -9 3 -13 -13 -53
-22 -53 -9 0 -20 35 -20 66 0 24 17 34 61 34 18 0 28 4 24 10 -3 6 -26 10 -51
10 l-45 0 2 74 c1 40 -1 78 -4 83 -8 13 -46 23 -51 14z"/>
<path d="M390 482 c0 -14 35 -42 53 -42 24 0 21 16 -5 34 -24 17 -48 21 -48 8z"/>
<path d="M700 225 c0 -15 34 -55 46 -55 20 0 17 24 -4 43 -18 16 -42 23 -42
12z"/>
<path d="M640 191 c14 -27 30 -35 42 -23 11 11 -16 42 -38 42 -11 0 -12 -4 -4
-19z"/>
<path d="M504 165 c-3 -20 -5 -38 -2 -40 9 -10 28 14 34 43 5 25 3 32 -9 32
-10 0 -18 -13 -23 -35z"/>
<path d="M570 193 c0 -5 9 -19 19 -32 21 -28 38 -13 21 19 -10 19 -40 29 -40
13z"/>
</g>
</svg>
