<?xml version="1.0" standalone="no"?>
<!DOCTYPE svg PUBLIC "-//W3C//DTD SVG 20010904//EN"
 "http://www.w3.org/TR/2001/REC-SVG-20010904/DTD/svg10.dtd">
<svg version="1.0" xmlns="http://www.w3.org/2000/svg"
 width="90.000000pt" height="92.000000pt" viewBox="0 0 90.000000 92.000000"
 preserveAspectRatio="xMidYMid meet">
<metadata>
Created by potrace 1.16, written by Peter Selinger 2001-2019
</metadata>
<g transform="translate(0.000000,92.000000) scale(0.100000,-0.100000)"
fill="#000000" stroke="none">
<path d="M465 869 c-22 -16 -76 -45 -120 -64 -79 -34 -79 -35 -40 -35 23 0 79
11 125 24 47 13 100 27 117 31 45 9 48 19 12 49 -38 32 -44 32 -94 -5z"/>
<path d="M624 771 c-14 -22 -43 -52 -65 -67 -22 -15 -37 -29 -34 -32 5 -5 174
56 189 69 10 9 -17 45 -46 60 -14 8 -23 2 -44 -30z"/>
<path d="M374 733 c24 -63 76 -103 89 -69 11 28 -6 57 -40 71 -46 19 -57 19
-49 -2z"/>
<path d="M200 731 c0 -23 66 -106 85 -106 24 0 31 29 15 60 -17 32 -100 70
-100 46z"/>
<path d="M450 604 c-47 -12 -103 -24 -125 -24 -22 -1 -51 -5 -65 -9 l-25 -7
28 -18 c27 -18 30 -18 132 8 108 27 145 32 145 18 0 -18 -99 -104 -113 -99
-24 9 -27 -3 -11 -35 9 -17 14 -31 12 -33 -7 -6 -261 -35 -312 -35 -58 0 -75
-10 -52 -29 25 -21 82 -24 152 -8 38 9 101 19 141 23 l72 6 3 -43 c4 -54 -7
-177 -16 -186 -4 -4 -26 -2 -49 4 -23 6 -43 10 -45 9 -6 -7 112 -115 120 -109
27 16 38 77 38 203 l0 130 174 0 c96 0 177 4 180 8 8 14 -8 31 -47 47 -32 13
-46 13 -124 1 -152 -25 -183 -26 -183 -7 0 9 -5 22 -11 28 -7 7 11 22 60 51
38 23 81 46 95 52 37 14 32 36 -14 60 -47 24 -51 24 -160 -6z"/>
</g>
</svg>
