<?xml version="1.0" standalone="no"?>
<!DOCTYPE svg PUBLIC "-//W3C//DTD SVG 20010904//EN"
 "http://www.w3.org/TR/2001/REC-SVG-20010904/DTD/svg10.dtd">
<svg version="1.0" xmlns="http://www.w3.org/2000/svg"
 width="96.000000pt" height="68.000000pt" viewBox="0 0 96.000000 68.000000"
 preserveAspectRatio="xMidYMid meet">
<metadata>
Created by potrace 1.16, written by Peter Selinger 2001-2019
</metadata>
<g transform="translate(0.000000,68.000000) scale(0.100000,-0.100000)"
fill="#000000" stroke="none">
<path d="M438 338 c7 -7 12 -20 12 -29 0 -15 -15 -18 -107 -24 -60 -3 -128 -8
-153 -10 -25 -2 -52 -4 -60 -5 -12 0 -11 -4 4 -15 25 -19 69 -19 171 0 44 8
97 14 118 15 l37 0 0 -54 c0 -29 -3 -68 -6 -86 -6 -28 -10 -31 -33 -27 -14 3
-35 9 -46 13 -11 4 0 -11 25 -34 79 -72 100 -51 100 97 l0 88 107 6 c58 4 128
7 155 7 52 0 62 14 23 32 -19 8 -52 8 -133 0 -138 -15 -152 -15 -152 3 0 16
-30 35 -56 35 -14 0 -15 -3 -6 -12z"/>
</g>
</svg>
