<?xml version="1.0" standalone="no"?>
<!DOCTYPE svg PUBLIC "-//W3C//DTD SVG 20010904//EN"
 "http://www.w3.org/TR/2001/REC-SVG-20010904/DTD/svg10.dtd">
<svg version="1.0" xmlns="http://www.w3.org/2000/svg"
 width="96.000000pt" height="68.000000pt" viewBox="0 0 96.000000 68.000000"
 preserveAspectRatio="xMidYMid meet">
<metadata>
Created by potrace 1.16, written by Peter Selinger 2001-2019
</metadata>
<g transform="translate(0.000000,68.000000) scale(0.100000,-0.100000)"
fill="#000000" stroke="none">
<path d="M492 634 c-13 -9 -58 -29 -100 -44 -93 -35 -73 -37 73 -9 122 24 140
33 111 55 -26 18 -56 18 -84 -2z"/>
<path d="M629 563 c-8 -9 -32 -29 -54 -45 -39 -29 -39 -29 -10 -22 17 4 47 13
69 21 21 7 47 13 57 13 25 0 24 26 0 40 -28 14 -46 12 -62 -7z"/>
<path d="M260 530 c0 -26 42 -71 63 -68 30 4 33 34 5 51 -35 22 -68 30 -68 17z"/>
<path d="M410 532 c0 -14 51 -62 61 -57 16 10 10 44 -10 55 -23 12 -51 13 -51
2z"/>
</g>
</svg>
