<?xml version="1.0" standalone="no"?>
<!DOCTYPE svg PUBLIC "-//W3C//DTD SVG 20010904//EN"
 "http://www.w3.org/TR/2001/REC-SVG-20010904/DTD/svg10.dtd">
<svg version="1.0" xmlns="http://www.w3.org/2000/svg"
 width="96.000000pt" height="68.000000pt" viewBox="0 0 96.000000 68.000000"
 preserveAspectRatio="xMidYMid meet">
<metadata>
Created by potrace 1.16, written by Peter Selinger 2001-2019
</metadata>
<g transform="translate(0.000000,68.000000) scale(0.100000,-0.100000)"
fill="#000000" stroke="none">
<path d="M635 418 c-58 -10 -126 -17 -162 -14 -49 3 -63 1 -63 -10 0 -8 4 -14
9 -14 9 0 24 -73 36 -167 7 -56 19 -73 38 -54 7 7 50 11 107 11 94 0 97 -1
109 -26 25 -56 70 4 82 112 4 44 11 95 14 114 6 33 4 37 -30 53 -20 9 -37 16
-38 16 -1 -1 -47 -10 -102 -21z m103 -65 l3 -43 -50 0 c-28 0 -54 1 -58 3 -5
1 -8 21 -8 45 l0 43 55 -3 55 -3 3 -42z m-162 13 c3 -13 4 -35 2 -47 -3 -21
-9 -24 -50 -27 -42 -3 -48 -1 -52 20 -13 58 -12 62 19 69 59 13 74 10 81 -15z
m159 -123 c-4 -27 -8 -48 -8 -49 -1 0 -26 2 -54 4 l-53 4 0 38 c0 42 3 43 94
48 28 2 28 2 21 -45z m-155 -13 l0 -40 -45 0 c-36 0 -45 3 -45 18 0 9 -3 27
-6 40 -6 21 -3 22 45 22 l51 0 0 -40z"/>
</g>
</svg>
