<?xml version="1.0" standalone="no"?>
<!DOCTYPE svg PUBLIC "-//W3C//DTD SVG 20010904//EN"
 "http://www.w3.org/TR/2001/REC-SVG-20010904/DTD/svg10.dtd">
<svg version="1.0" xmlns="http://www.w3.org/2000/svg"
 width="96.000000pt" height="68.000000pt" viewBox="0 0 96.000000 68.000000"
 preserveAspectRatio="xMidYMid meet">
<metadata>
Created by potrace 1.16, written by Peter Selinger 2001-2019
</metadata>
<g transform="translate(0.000000,68.000000) scale(0.100000,-0.100000)"
fill="#000000" stroke="none">
<path d="M590 319 c-30 -4 -97 -9 -148 -11 -78 -3 -91 -5 -85 -18 12 -28 15
-96 5 -150 -10 -51 -1 -100 18 -100 12 0 20 58 20 151 0 48 3 90 8 92 4 3 67
8 140 12 l133 8 -3 -114 -3 -114 -39 2 -40 3 34 -35 c66 -68 86 -38 93 138 6
159 8 157 -133 136z"/>
</g>
</svg>
