<?xml version="1.0" standalone="no"?>
<!DOCTYPE svg PUBLIC "-//W3C//DTD SVG 20010904//EN"
 "http://www.w3.org/TR/2001/REC-SVG-20010904/DTD/svg10.dtd">
<svg version="1.0" xmlns="http://www.w3.org/2000/svg"
 width="96.000000pt" height="68.000000pt" viewBox="0 0 96.000000 68.000000"
 preserveAspectRatio="xMidYMid meet">
<metadata>
Created by potrace 1.16, written by Peter Selinger 2001-2019
</metadata>
<g transform="translate(0.000000,68.000000) scale(0.100000,-0.100000)"
fill="#000000" stroke="none">
<path d="M572 562 c-139 -13 -151 -16 -138 -31 13 -15 27 -62 31 -106 2 -17 8
-20 50 -17 57 5 58 -10 2 -47 -53 -35 -48 -49 21 -53 l57 -3 -40 -20 c-22 -11
-42 -23 -45 -27 -3 -3 -18 -10 -33 -13 -15 -4 -27 -13 -27 -21 0 -19 40 -27
74 -15 15 6 38 11 51 11 21 0 23 -5 27 -52 5 -85 0 -101 -28 -95 -30 5 -30 -3
0 -32 19 -18 28 -21 44 -12 17 9 21 24 24 93 3 46 1 88 -4 94 -4 6 -5 14 -1
17 12 13 99 7 119 -8 28 -21 44 -18 44 9 0 18 -10 29 -42 45 -43 21 -67 19
-47 -5 9 -11 7 -14 -12 -15 -13 0 -33 -2 -44 -3 -168 -23 -169 -20 -16 44
l104 43 -23 19 c-23 19 -23 19 -55 -12 -30 -29 -36 -31 -80 -25 l-47 8 23 21
c13 12 32 25 42 29 9 3 17 11 17 16 0 17 91 26 100 10 7 -11 13 -10 29 5 12
11 21 23 21 28 0 4 11 31 25 60 23 48 24 52 7 64 -20 16 -33 16 -230 -4z m176
-37 c-2 -12 -16 -17 -60 -20 -55 -3 -58 -2 -58 20 0 22 5 24 53 27 58 3 71 -2
65 -27z m-162 -7 c-1 -20 -7 -23 -52 -26 -40 -2 -53 1 -58 13 -10 27 2 35 58
35 49 0 53 -2 52 -22z m150 -44 c-3 -9 -6 -20 -6 -25 0 -5 -22 -9 -50 -9 -43
0 -50 3 -50 19 0 21 18 27 79 30 26 1 32 -2 27 -15z m-149 -24 c-1 -17 -9 -20
-49 -20 -41 0 -48 3 -48 19 0 16 8 20 43 23 52 4 56 2 54 -22z"/>
<path d="M255 521 c4 -27 1 -75 -5 -109 -11 -55 -15 -60 -42 -66 -17 -3 -48
-6 -69 -6 -22 0 -39 -4 -39 -9 0 -20 32 -33 75 -29 47 3 53 0 33 -20 -17 -17
6 -54 43 -71 16 -7 29 -18 29 -25 0 -10 -100 -77 -134 -89 -6 -3 -8 -7 -5 -10
9 -11 83 14 132 45 l48 31 23 -22 c27 -25 54 -27 63 -4 4 11 -4 25 -24 44 -17
15 -28 31 -23 35 4 5 18 35 31 67 16 41 29 59 46 63 24 6 32 24 10 24 -7 0
-20 9 -30 20 -9 11 -28 20 -42 20 -22 0 -25 -3 -19 -24 5 -21 2 -24 -33 -28
-21 -3 -39 -4 -41 -3 -1 1 11 41 27 87 16 47 26 90 22 96 -7 11 -54 32 -73 32
-6 0 -7 -18 -3 -49z m105 -201 c0 -5 -10 -30 -22 -54 l-21 -45 -38 19 c-29 15
-36 24 -32 39 9 33 22 40 101 50 6 0 12 -3 12 -9z"/>
<path d="M720 171 c0 -15 100 -102 110 -96 24 15 8 47 -37 75 -47 30 -73 38
-73 21z"/>
<path d="M470 161 c0 -4 -11 -25 -25 -45 -13 -20 -22 -36 -19 -36 3 0 25 12
50 26 46 27 56 47 28 58 -22 8 -34 7 -34 -3z"/>
</g>
</svg>
