<?xml version="1.0" standalone="no"?>
<!DOCTYPE svg PUBLIC "-//W3C//DTD SVG 20010904//EN"
 "http://www.w3.org/TR/2001/REC-SVG-20010904/DTD/svg10.dtd">
<svg version="1.0" xmlns="http://www.w3.org/2000/svg"
 width="96.000000pt" height="68.000000pt" viewBox="0 0 96.000000 68.000000"
 preserveAspectRatio="xMidYMid meet">
<metadata>
Created by potrace 1.16, written by Peter Selinger 2001-2019
</metadata>
<g transform="translate(0.000000,68.000000) scale(0.100000,-0.100000)"
fill="#000000" stroke="none">
<path d="M447 354 c-4 -4 -4 -34 0 -66 7 -67 0 -78 -51 -78 -27 0 -28 2 -23
34 6 35 -6 56 -31 56 -10 0 -13 -7 -9 -22 3 -11 0 -36 -7 -53 -22 -52 -8 -62
61 -43 32 9 86 20 120 24 60 6 62 6 56 -16 -5 -17 -2 -21 12 -18 13 2 23 19
32 57 16 63 12 81 -19 81 -21 0 -23 -4 -20 -40 4 -37 2 -40 -21 -40 -14 0 -32
-3 -41 -6 -14 -5 -16 4 -16 59 0 50 -4 66 -16 71 -19 7 -19 7 -27 0z"/>
</g>
</svg>
