<?xml version="1.0" standalone="no"?>
<!DOCTYPE svg PUBLIC "-//W3C//DTD SVG 20010904//EN"
 "http://www.w3.org/TR/2001/REC-SVG-20010904/DTD/svg10.dtd">
<svg version="1.0" xmlns="http://www.w3.org/2000/svg"
 width="96.000000pt" height="68.000000pt" viewBox="0 0 96.000000 68.000000"
 preserveAspectRatio="xMidYMid meet">
<metadata>
Created by potrace 1.16, written by Peter Selinger 2001-2019
</metadata>
<g transform="translate(0.000000,68.000000) scale(0.100000,-0.100000)"
fill="#000000" stroke="none">
<path d="M537 543 c13 -35 47 -73 65 -73 26 0 23 42 -5 68 -29 27 -69 30 -60
5z"/>
<path d="M581 452 c-85 -12 -118 -13 -131 -4 -16 10 -20 6 -34 -35 -21 -60
-20 -75 2 -71 9 2 22 19 28 38 10 31 16 36 55 42 116 17 231 29 236 24 3 -3
-4 -21 -16 -40 l-22 -35 53 15 c75 23 84 32 57 61 -27 27 -56 28 -228 5z"/>
</g>
</svg>
