<?xml version="1.0" standalone="no"?>
<!DOCTYPE svg PUBLIC "-//W3C//DTD SVG 20010904//EN"
 "http://www.w3.org/TR/2001/REC-SVG-20010904/DTD/svg10.dtd">
<svg version="1.0" xmlns="http://www.w3.org/2000/svg"
 width="96.000000pt" height="68.000000pt" viewBox="0 0 96.000000 68.000000"
 preserveAspectRatio="xMidYMid meet">
<metadata>
Created by potrace 1.16, written by Peter Selinger 2001-2019
</metadata>
<g transform="translate(0.000000,68.000000) scale(0.100000,-0.100000)"
fill="#000000" stroke="none">
<path d="M470 385 c-36 -7 -91 -13 -123 -14 l-58 -1 16 -30 c8 -16 19 -46 23
-67 l8 -37 59 4 c33 3 83 4 111 4 l50 0 32 60 c26 48 29 63 19 73 -19 19 -66
22 -137 8z m80 -35 c0 -17 -7 -20 -39 -20 -24 0 -41 5 -44 14 -8 20 2 26 45
26 31 0 38 -3 38 -20z m-136 -7 c4 -9 1 -20 -6 -25 -13 -8 -68 -11 -68 -4 0 2
-3 11 -6 19 -4 11 2 17 18 20 45 8 56 7 62 -10z m126 -54 c-15 -27 -80 -27
-80 0 0 16 8 21 38 23 48 4 54 1 42 -23z m-120 -9 c0 -16 -7 -20 -35 -20 -28
0 -35 4 -35 20 0 16 7 20 35 20 28 0 35 -4 35 -20z"/>
</g>
</svg>
