<?xml version="1.0" standalone="no"?>
<!DOCTYPE svg PUBLIC "-//W3C//DTD SVG 20010904//EN"
 "http://www.w3.org/TR/2001/REC-SVG-20010904/DTD/svg10.dtd">
<svg version="1.0" xmlns="http://www.w3.org/2000/svg"
 width="96.000000pt" height="68.000000pt" viewBox="0 0 96.000000 68.000000"
 preserveAspectRatio="xMidYMid meet">
<metadata>
Created by potrace 1.16, written by Peter Selinger 2001-2019
</metadata>
<g transform="translate(0.000000,68.000000) scale(0.100000,-0.100000)"
fill="#000000" stroke="none">
<path d="M496 426 c3 -21 0 -24 -42 -30 -74 -10 -84 -8 -84 14 0 15 -7 20 -26
20 -20 0 -24 -4 -19 -19 4 -15 -2 -20 -37 -28 l-43 -11 43 -1 c37 -1 42 -4 42
-25 0 -29 -21 -36 -107 -36 -35 0 -63 -4 -63 -9 0 -16 57 -20 146 -11 49 5
164 10 256 10 94 0 169 4 173 9 13 22 -36 31 -130 25 l-96 -7 12 25 c9 22 20
27 65 33 65 8 62 25 -3 25 -26 0 -43 3 -40 7 10 10 -13 33 -34 33 -13 0 -17
-6 -13 -24z m-8 -73 c-3 -27 -6 -28 -60 -31 -56 -3 -58 -2 -58 22 0 23 5 25
48 29 26 2 53 4 60 5 9 1 12 -7 10 -25z"/>
</g>
</svg>
