<?xml version="1.0" standalone="no"?>
<!DOCTYPE svg PUBLIC "-//W3C//DTD SVG 20010904//EN"
 "http://www.w3.org/TR/2001/REC-SVG-20010904/DTD/svg10.dtd">
<svg version="1.0" xmlns="http://www.w3.org/2000/svg"
 width="90.000000pt" height="92.000000pt" viewBox="0 0 90.000000 92.000000"
 preserveAspectRatio="xMidYMid meet">
<metadata>
Created by potrace 1.16, written by Peter Selinger 2001-2019
</metadata>
<g transform="translate(0.000000,92.000000) scale(0.100000,-0.100000)"
fill="#000000" stroke="none">
<path d="M235 810 c-3 -5 -1 -19 4 -32 12 -34 23 -189 15 -235 l-6 -40 -89
-13 c-50 -7 -92 -17 -95 -22 -3 -4 9 -14 27 -22 27 -11 40 -11 83 0 84 23 80
28 72 -96 -3 -61 -11 -133 -17 -160 -11 -50 0 -112 21 -125 24 -15 35 46 40
225 l5 185 63 9 c41 6 62 13 62 22 0 20 -39 27 -88 16 l-43 -10 7 91 c3 51 10
109 14 130 7 31 5 41 -12 57 -23 21 -56 32 -63 20z"/>
<path d="M600 712 c0 -15 -19 -66 -42 -112 -38 -76 -46 -85 -68 -82 l-25 3 0
-185 c0 -137 3 -188 13 -198 10 -10 14 -9 18 9 6 23 33 30 139 35 48 3 50 2
70 -34 23 -44 38 -47 61 -13 13 20 16 56 16 206 l1 182 -29 15 c-26 14 -37 13
-109 -1 -44 -10 -83 -17 -88 -17 -9 0 81 116 112 144 29 26 26 43 -9 61 -44
23 -60 19 -60 -13z m124 -228 c3 -9 6 -35 6 -59 0 -43 0 -44 -29 -35 -18 5
-50 3 -87 -6 -100 -23 -104 -22 -104 35 0 54 6 61 60 72 70 14 147 10 154 -7z
m5 -171 c-2 -79 -8 -88 -59 -88 -25 0 -71 -4 -102 -8 l-58 -8 0 64 c0 57 2 65
18 61 9 -2 53 2 97 10 44 8 86 14 93 15 8 1 12 -14 11 -46z"/>
<path d="M379 667 c-6 -23 -18 -55 -26 -70 -8 -16 -13 -31 -11 -33 2 -2 27 17
56 42 54 47 57 62 17 88 -24 16 -24 15 -36 -27z"/>
<path d="M110 635 c0 -10 48 -80 63 -94 31 -25 50 16 27 59 -12 22 -90 52 -90
35z"/>
<path d="M140 382 c0 -26 -62 -152 -93 -188 -38 -44 -34 -51 11 -19 45 34 63
54 108 122 39 60 42 78 15 93 -28 15 -41 12 -41 -8z"/>
<path d="M361 343 c39 -70 54 -87 68 -79 18 11 13 51 -10 80 -18 23 -67 56
-84 56 -3 0 9 -26 26 -57z"/>
</g>
</svg>
