<?xml version="1.0" standalone="no"?>
<!DOCTYPE svg PUBLIC "-//W3C//DTD SVG 20010904//EN"
 "http://www.w3.org/TR/2001/REC-SVG-20010904/DTD/svg10.dtd">
<svg version="1.0" xmlns="http://www.w3.org/2000/svg"
 width="90.000000pt" height="92.000000pt" viewBox="0 0 90.000000 92.000000"
 preserveAspectRatio="xMidYMid meet">
<metadata>
Created by potrace 1.16, written by Peter Selinger 2001-2019
</metadata>
<g transform="translate(0.000000,92.000000) scale(0.100000,-0.100000)"
fill="#000000" stroke="none">
<path d="M470 866 c0 -2 12 -24 26 -50 30 -54 36 -49 -96 -71 -52 -9 -96 -18
-98 -20 -2 -2 9 -10 26 -19 16 -8 32 -13 34 -11 11 11 211 46 301 52 53 5 98
13 99 18 1 6 -13 17 -30 26 -28 15 -39 15 -89 3 -70 -16 -86 -17 -78 -4 12 19
-6 48 -39 64 -32 15 -56 20 -56 12z"/>
<path d="M225 813 c-21 -100 -88 -224 -176 -326 -28 -32 -49 -61 -46 -64 9 -8
79 50 126 103 l40 46 7 -27 c10 -39 -6 -240 -23 -298 -8 -28 -12 -64 -9 -82 7
-37 30 -63 41 -45 12 19 25 132 30 270 3 74 8 142 10 150 2 8 -4 26 -14 39
-19 24 -18 25 17 90 19 36 44 78 54 93 23 33 23 33 -4 58 -30 27 -47 25 -53
-7z"/>
<path d="M560 716 c0 -7 -10 -35 -22 -62 l-21 -49 -9 32 c-7 28 -48 63 -73 63
-9 0 25 -63 49 -88 18 -20 21 -36 21 -112 0 -87 7 -113 24 -94 11 11 18 175 8
191 -4 6 10 26 33 47 44 40 50 60 21 76 -26 13 -31 13 -31 -4z"/>
<path d="M676 654 c-25 -30 -44 -43 -55 -39 -14 4 -16 -6 -16 -87 1 -51 5 -93
11 -95 5 -2 30 18 54 43 28 29 37 44 25 39 -45 -17 -50 -13 -46 35 1 25 5 49
8 53 8 13 31 -12 86 -90 28 -40 58 -75 68 -78 10 -3 33 2 51 11 l32 17 -54 27
c-30 15 -76 51 -102 79 l-46 52 34 16 c38 19 43 37 15 53 -25 13 -20 16 -65
-36z"/>
<path d="M336 596 c-68 -21 -68 -22 -42 -35 14 -8 26 -18 26 -23 0 -19 -29
-75 -54 -105 -35 -42 -18 -43 29 -1 44 38 78 102 70 129 -5 15 -2 19 19 19 24
0 26 -3 26 -44 0 -60 -8 -76 -36 -76 l-25 0 23 -30 c12 -17 25 -30 30 -30 14
0 35 55 47 125 11 63 11 70 -5 82 -22 16 -23 16 -108 -11z"/>
<path d="M651 388 c5 -18 9 -33 9 -34 0 -1 -30 -4 -67 -8 -38 -3 -89 -9 -115
-12 -43 -6 -46 -5 -42 13 5 16 -1 23 -27 32 -39 14 -42 11 -29 -23 24 -65 3
-191 -42 -242 -33 -38 -31 -41 12 -19 30 16 70 72 70 99 0 12 10 16 43 16 24
0 79 3 121 7 l78 6 -7 -70 c-5 -46 -3 -77 4 -92 33 -60 50 2 52 185 1 166 -1
174 -48 174 -20 0 -21 -3 -12 -32z m9 -105 c0 -27 -2 -28 -47 -28 -27 0 -79
-4 -116 -9 l-69 -8 4 28 c3 28 6 29 63 35 33 3 84 6 113 7 51 2 52 1 52 -25z"/>
</g>
</svg>
