<?xml version="1.0" standalone="no"?>
<!DOCTYPE svg PUBLIC "-//W3C//DTD SVG 20010904//EN"
 "http://www.w3.org/TR/2001/REC-SVG-20010904/DTD/svg10.dtd">
<svg version="1.0" xmlns="http://www.w3.org/2000/svg"
 width="96.000000pt" height="68.000000pt" viewBox="0 0 96.000000 68.000000"
 preserveAspectRatio="xMidYMid meet">
<metadata>
Created by potrace 1.16, written by Peter Selinger 2001-2019
</metadata>
<g transform="translate(0.000000,68.000000) scale(0.100000,-0.100000)"
fill="#000000" stroke="none">
<path d="M510 569 c21 -29 49 -36 57 -13 6 18 -26 44 -53 44 l-25 0 21 -31z"/>
<path d="M276 544 c-9 -47 -67 -135 -134 -206 -80 -84 -29 -75 61 11 l37 35 0
-74 c0 -41 -5 -93 -11 -115 -19 -70 -21 -102 -10 -124 7 -11 16 -21 21 -21 20
0 30 44 41 180 8 110 8 148 -1 165 -11 20 -8 29 29 78 22 31 41 62 41 70 0 20
-21 37 -46 37 -17 0 -23 -8 -28 -36z"/>
<path d="M530 524 c-183 -30 -180 -29 -157 -39 10 -4 69 0 130 9 62 8 143 19
182 22 63 5 67 7 50 20 -23 17 -25 17 -205 -12z"/>
<path d="M564 455 c-9 -19 -18 -35 -21 -35 -3 0 -14 11 -25 25 -11 14 -24 25
-29 25 -17 0 -9 -27 16 -50 21 -19 25 -33 25 -78 0 -44 -3 -53 -15 -48 -8 3
-15 2 -15 -3 0 -9 48 -36 54 -30 3 3 6 40 8 82 3 71 5 80 30 99 33 24 36 48 8
48 -12 0 -25 -13 -36 -35z"/>
<path d="M681 446 c-21 -22 -39 -32 -51 -29 -17 5 -19 -2 -19 -60 0 -78 14
-89 55 -46 27 28 27 29 6 29 -18 0 -22 6 -22 35 0 48 19 45 66 -12 63 -76 69
-81 98 -76 34 7 33 18 -1 32 -16 6 -50 31 -78 55 l-50 44 30 13 c40 17 40 16
25 34 -17 21 -22 20 -59 -19z"/>
<path d="M438 413 c-10 -2 -18 -8 -18 -13 0 -5 7 -7 15 -4 12 5 15 -3 15 -40
0 -37 -4 -48 -20 -54 -14 -5 -17 -11 -10 -22 16 -25 44 2 59 58 11 42 11 55 1
67 -7 8 -15 14 -19 14 -3 -1 -14 -3 -23 -6z"/>
<path d="M382 399 c-13 -5 -28 -7 -33 -3 -5 3 -9 0 -9 -5 0 -6 7 -11 15 -11
24 0 17 -34 -15 -75 -16 -21 -30 -40 -30 -42 0 -11 59 39 75 64 15 22 31 85
22 82 -1 0 -13 -4 -25 -10z"/>
<path d="M656 252 c5 -22 2 -28 -13 -28 -10 0 -52 -3 -94 -7 -72 -7 -77 -6
-82 13 -3 11 -13 20 -24 20 -16 0 -18 -9 -18 -68 0 -60 -4 -73 -28 -105 -36
-48 -10 -52 27 -5 15 18 31 39 37 46 6 8 38 12 89 12 43 0 85 3 94 6 14 5 16
-3 16 -54 0 -65 14 -87 37 -57 9 13 13 52 13 125 0 109 -7 130 -42 130 -14 0
-16 -6 -12 -28z m7 -72 c4 -16 0 -20 -22 -20 -16 0 -62 -3 -104 -6 -73 -7 -77
-6 -77 14 0 22 19 26 141 30 49 2 57 -1 62 -18z"/>
</g>
</svg>
