<?xml version="1.0" standalone="no"?>
<!DOCTYPE svg PUBLIC "-//W3C//DTD SVG 20010904//EN"
 "http://www.w3.org/TR/2001/REC-SVG-20010904/DTD/svg10.dtd">
<svg version="1.0" xmlns="http://www.w3.org/2000/svg"
 width="96.000000pt" height="68.000000pt" viewBox="0 0 96.000000 68.000000"
 preserveAspectRatio="xMidYMid meet">
<metadata>
Created by potrace 1.16, written by Peter Selinger 2001-2019
</metadata>
<g transform="translate(0.000000,68.000000) scale(0.100000,-0.100000)"
fill="#000000" stroke="none">
<path d="M396 121 c-6 -37 -20 -51 -52 -51 -8 0 -14 6 -14 13 0 17 -32 47 -49
47 -9 0 -8 -6 3 -22 28 -39 21 -48 -39 -48 -56 0 -67 -8 -40 -30 17 -14 31
-12 179 29 119 33 148 47 73 37 l-48 -7 17 26 c15 23 15 28 3 36 -23 14 -26
11 -33 -30z"/>
</g>
</svg>
