<?xml version="1.0" standalone="no"?>
<!DOCTYPE svg PUBLIC "-//W3C//DTD SVG 20010904//EN"
 "http://www.w3.org/TR/2001/REC-SVG-20010904/DTD/svg10.dtd">
<svg version="1.0" xmlns="http://www.w3.org/2000/svg"
 width="96.000000pt" height="68.000000pt" viewBox="0 0 96.000000 68.000000"
 preserveAspectRatio="xMidYMid meet">
<metadata>
Created by potrace 1.16, written by Peter Selinger 2001-2019
</metadata>
<g transform="translate(0.000000,68.000000) scale(0.100000,-0.100000)"
fill="#000000" stroke="none">
<path d="M660 451 c0 -42 -11 -51 -61 -51 -22 0 -29 5 -29 19 0 21 -52 69 -58
52 -2 -5 4 -23 12 -40 9 -16 16 -32 16 -36 0 -3 -19 -5 -42 -6 -24 0 -52 -4
-63 -9 -42 -17 36 -23 154 -12 64 7 149 14 189 18 64 5 71 8 60 21 -10 12 -27
14 -80 10 -38 -3 -68 -4 -68 -1 0 3 8 16 17 30 14 22 14 27 2 35 -33 20 -49
11 -49 -30z"/>
</g>
</svg>
