<?xml version="1.0" standalone="no"?>
<!DOCTYPE svg PUBLIC "-//W3C//DTD SVG 20010904//EN"
 "http://www.w3.org/TR/2001/REC-SVG-20010904/DTD/svg10.dtd">
<svg version="1.0" xmlns="http://www.w3.org/2000/svg"
 width="96.000000pt" height="68.000000pt" viewBox="0 0 96.000000 68.000000"
 preserveAspectRatio="xMidYMid meet">
<metadata>
Created by potrace 1.16, written by Peter Selinger 2001-2019
</metadata>
<g transform="translate(0.000000,68.000000) scale(0.100000,-0.100000)"
fill="#000000" stroke="none">
<path d="M536 553 c4 -10 9 -57 12 -104 4 -97 3 -99 -80 -99 -21 0 -38 -4 -38
-10 0 -6 27 -10 60 -10 l60 0 0 -84 c0 -47 -4 -87 -9 -90 -5 -3 -46 -8 -91
-11 -46 -2 -85 -7 -88 -10 -3 -2 8 -10 24 -16 22 -8 49 -9 110 0 44 6 137 11
206 11 76 0 129 4 133 10 10 16 -62 41 -98 36 -18 -3 -56 -8 -84 -11 l-53 -6
0 85 c0 95 -9 86 103 102 75 10 53 29 -32 27 l-71 -2 6 52 c3 29 10 67 16 85
8 28 7 36 -9 47 -10 8 -33 15 -52 15 -28 0 -32 -3 -25 -17z"/>
<path d="M235 538 c14 -47 17 -168 6 -233 -16 -87 -42 -140 -100 -192 -34 -33
-41 -43 -27 -43 54 0 145 86 161 153 4 15 11 27 15 27 5 0 23 -18 41 -40 34
-41 65 -51 75 -25 10 24 -23 64 -66 81 -64 26 -56 53 35 114 41 28 75 55 75
60 0 9 -39 40 -52 40 -4 0 -22 -22 -40 -50 -18 -27 -37 -50 -42 -50 -5 0 -7
34 -3 79 6 90 0 101 -51 101 -31 0 -34 -2 -27 -22z"/>
<path d="M120 401 c0 -28 43 -86 68 -89 33 -5 30 44 -5 80 -31 32 -63 37 -63
9z"/>
</g>
</svg>
