<?xml version="1.0" standalone="no"?>
<!DOCTYPE svg PUBLIC "-//W3C//DTD SVG 20010904//EN"
 "http://www.w3.org/TR/2001/REC-SVG-20010904/DTD/svg10.dtd">
<svg version="1.0" xmlns="http://www.w3.org/2000/svg"
 width="96.000000pt" height="68.000000pt" viewBox="0 0 96.000000 68.000000"
 preserveAspectRatio="xMidYMid meet">
<metadata>
Created by potrace 1.16, written by Peter Selinger 2001-2019
</metadata>
<g transform="translate(0.000000,68.000000) scale(0.100000,-0.100000)"
fill="#000000" stroke="none">
<path d="M430 612 c0 -4 7 -18 16 -30 9 -13 13 -26 10 -29 -12 -12 -173 -16
-180 -4 -14 23 -33 10 -56 -38 -12 -27 -20 -57 -17 -65 10 -26 36 -18 58 18
15 25 28 35 57 40 54 9 62 8 62 -8 0 -13 -25 -33 -80 -64 -25 -14 -25 -14 8
-8 42 7 134 67 127 83 -3 8 4 13 19 13 14 0 31 3 40 6 12 5 16 -1 16 -25 0
-20 7 -34 20 -41 28 -15 112 -24 146 -16 46 12 11 30 -53 28 -67 -3 -88 7 -79
35 5 15 19 22 53 27 86 11 102 4 68 -31 -9 -8 -15 -17 -13 -18 2 -1 33 2 71 8
74 11 83 23 40 57 -26 21 -35 22 -121 15 -52 -3 -100 -9 -108 -12 -9 -3 -14 2
-14 16 0 13 -11 26 -30 36 -31 16 -60 20 -60 7z"/>
<path d="M558 425 c-3 -3 -3 -28 0 -55 l5 -50 -46 0 c-45 0 -46 -1 -42 -27 3
-16 6 -45 9 -67 l4 -38 -34 5 -34 6 6 -37 c3 -20 9 -62 12 -92 10 -80 27 -67
30 23 l3 77 49 0 c28 0 50 -4 50 -10 0 -24 -25 -60 -42 -60 -10 0 -18 -4 -18
-10 0 -19 46 -20 100 -1 47 16 57 17 66 5 14 -18 34 -18 34 -1 0 14 -31 47
-44 47 -4 0 -14 -7 -22 -15 -9 -8 -25 -15 -36 -15 -19 0 -20 1 -4 25 9 14 14
29 11 34 -8 14 22 21 86 21 l59 0 0 -54 c0 -65 -18 -89 -57 -79 l-27 6 23 -31
c12 -18 31 -32 41 -32 25 0 60 46 60 79 0 14 5 44 11 65 10 36 9 41 -13 58
-15 12 -33 17 -51 13 l-29 -5 4 58 3 57 -62 0 c-58 0 -63 1 -63 22 0 19 6 22
48 25 26 2 46 8 44 13 -2 6 -20 9 -42 7 -31 -2 -40 2 -45 18 -6 18 -34 27 -47
15z m123 -166 c-1 -28 -8 -52 -15 -54 -33 -10 -145 -14 -148 -5 -2 6 -2 31 0
55 4 44 5 45 37 45 28 0 32 -3 28 -20 -3 -11 -9 -23 -14 -26 -5 -3 -9 -9 -9
-15 0 -5 9 -4 20 3 15 10 22 10 32 0 14 -14 48 -16 48 -2 0 5 -11 12 -24 16
-17 4 -23 13 -23 30 0 21 4 24 36 24 l36 0 -4 -51z"/>
<path d="M337 400 c-14 -12 -41 -26 -59 -32 -32 -12 -33 -12 -8 -18 22 -5 25
-12 28 -52 l3 -46 -58 -7 c-82 -9 -104 -16 -97 -27 4 -7 30 -8 65 -4 36 3 59
2 59 -4 0 -11 -40 -50 -94 -94 -20 -16 -35 -31 -32 -33 7 -7 60 24 106 62 51
43 58 36 41 -41 -9 -39 -9 -59 -1 -74 25 -47 40 -16 40 86 0 41 3 74 8 74 4 0
15 -9 25 -20 20 -24 37 -26 37 -4 0 8 -16 22 -35 30 -47 19 -36 40 26 48 67 9
65 30 -2 24 l-51 -5 5 38 c3 22 1 42 -4 45 -19 11 -8 23 26 30 40 7 54 22 34
35 -21 13 -34 11 -62 -11z"/>
<path d="M397 330 c-9 -16 -13 -30 -11 -30 8 0 66 31 62 34 -1 1 -10 7 -20 14
-14 11 -18 9 -31 -18z"/>
<path d="M200 312 c0 -12 34 -42 48 -42 16 0 15 23 0 38 -14 14 -48 16 -48 4z"/>
</g>
</svg>
