<?xml version="1.0" standalone="no"?>
<!DOCTYPE svg PUBLIC "-//W3C//DTD SVG 20010904//EN"
 "http://www.w3.org/TR/2001/REC-SVG-20010904/DTD/svg10.dtd">
<svg version="1.0" xmlns="http://www.w3.org/2000/svg"
 width="96.000000pt" height="68.000000pt" viewBox="0 0 96.000000 68.000000"
 preserveAspectRatio="xMidYMid meet">
<metadata>
Created by potrace 1.16, written by Peter Selinger 2001-2019
</metadata>
<g transform="translate(0.000000,68.000000) scale(0.100000,-0.100000)"
fill="#000000" stroke="none">
<path d="M470 595 c-30 -7 -86 -14 -124 -14 l-68 -1 15 -23 c8 -13 21 -43 28
-66 10 -35 16 -41 33 -37 12 2 66 8 122 11 l101 7 23 52 c13 28 25 54 27 57 6
10 -46 29 -75 28 -15 -1 -52 -7 -82 -14z m88 -32 c3 -18 -4 -21 -85 -27 -48
-4 -97 -8 -108 -9 -11 -1 -21 5 -23 16 -3 13 4 17 30 18 18 1 62 7 98 14 79
15 84 14 88 -12z m-15 -64 c-12 -12 -177 -16 -183 -4 -3 6 33 14 90 20 89 10
114 5 93 -16z"/>
</g>
</svg>
