<?xml version="1.0" standalone="no"?>
<!DOCTYPE svg PUBLIC "-//W3C//DTD SVG 20010904//EN"
 "http://www.w3.org/TR/2001/REC-SVG-20010904/DTD/svg10.dtd">
<svg version="1.0" xmlns="http://www.w3.org/2000/svg"
 width="96.000000pt" height="68.000000pt" viewBox="0 0 96.000000 68.000000"
 preserveAspectRatio="xMidYMid meet">
<metadata>
Created by potrace 1.16, written by Peter Selinger 2001-2019
</metadata>
<g transform="translate(0.000000,68.000000) scale(0.100000,-0.100000)"
fill="#000000" stroke="none">
<path d="M460 598 c-51 -11 -106 -17 -137 -14 -54 5 -65 -2 -38 -24 8 -7 20
-31 27 -54 17 -61 22 -64 71 -55 23 4 76 8 118 9 l75 0 27 58 c15 32 27 61 27
65 0 9 -56 37 -72 36 -7 -1 -51 -10 -98 -21z m90 -35 c0 -15 -11 -19 -63 -22
-115 -7 -140 -6 -144 5 -3 9 68 21 190 32 10 1 17 -5 17 -15z m-10 -52 c0 -11
-29 -17 -117 -26 -53 -6 -63 -5 -63 9 0 12 15 16 68 19 37 2 77 4 90 5 12 1
22 -2 22 -7z"/>
<path d="M425 428 c-129 -12 -148 -21 -60 -28 56 -4 70 -8 73 -22 3 -16 -7
-18 -108 -18 -109 0 -111 -1 -135 -27 -30 -35 -32 -63 -5 -63 13 0 28 12 38
30 14 24 24 30 53 30 20 0 64 3 98 6 l62 7 -2 -50 c-3 -59 6 -80 27 -62 9 7
14 31 14 65 l0 54 53 1 c28 0 76 3 105 5 41 4 52 2 52 -10 0 -8 -4 -18 -10
-21 -5 -3 -10 -10 -10 -14 0 -8 110 6 120 15 3 3 -8 17 -25 31 -29 24 -33 24
-147 18 -64 -4 -122 -4 -128 0 -21 13 11 35 50 35 46 0 72 9 64 21 -6 10 -38
10 -179 -3z"/>
<path d="M560 315 l-23 -24 39 6 c48 7 65 20 44 33 -23 15 -35 12 -60 -15z"/>
<path d="M320 296 c36 -14 55 -12 45 5 -4 5 -23 9 -43 8 l-37 -1 35 -12z"/>
<path d="M340 260 c-14 -4 -42 -8 -64 -9 -33 -1 -37 -3 -26 -16 17 -21 48 -18
100 10 44 24 39 31 -10 15z"/>
<path d="M535 260 c6 -9 69 -30 93 -30 21 0 13 16 -13 28 -31 14 -89 16 -80 2z"/>
<path d="M408 207 c-43 -6 -78 -14 -78 -19 0 -6 32 -7 78 -4 145 12 182 17
177 27 -7 11 -72 9 -177 -4z"/>
<path d="M525 160 c-44 -5 -142 -11 -217 -15 -76 -4 -138 -11 -138 -16 0 -15
64 -20 138 -11 57 7 72 6 72 -5 0 -15 -72 -63 -94 -63 -20 0 -27 -13 -16 -29
9 -15 16 -15 225 17 l120 19 31 -24 c38 -28 54 -29 54 -4 0 27 -56 67 -105 76
-39 7 -39 7 -22 -13 10 -11 15 -22 10 -25 -4 -2 -62 -7 -128 -11 l-120 -6 53
27 c28 15 52 32 52 39 0 8 47 14 150 19 83 4 150 10 150 15 0 21 -64 24 -215
10z"/>
</g>
</svg>
