<?xml version="1.0" standalone="no"?>
<!DOCTYPE svg PUBLIC "-//W3C//DTD SVG 20010904//EN"
 "http://www.w3.org/TR/2001/REC-SVG-20010904/DTD/svg10.dtd">
<svg version="1.0" xmlns="http://www.w3.org/2000/svg"
 width="96.000000pt" height="68.000000pt" viewBox="0 0 96.000000 68.000000"
 preserveAspectRatio="xMidYMid meet">
<metadata>
Created by potrace 1.16, written by Peter Selinger 2001-2019
</metadata>
<g transform="translate(0.000000,68.000000) scale(0.100000,-0.100000)"
fill="#000000" stroke="none">
<path d="M645 488 c-2 -7 -9 -29 -15 -49 -9 -32 -16 -37 -45 -41 -30 -3 -35
-1 -35 17 0 23 -38 65 -58 65 -8 0 -5 -14 8 -41 12 -23 19 -43 17 -45 -3 -3
-22 -7 -43 -10 -102 -13 -110 -16 -88 -24 13 -5 79 -1 160 10 77 11 168 20
204 20 36 1 74 5 85 10 36 14 -28 23 -112 15 l-77 -7 26 35 c20 25 24 37 15
46 -15 15 -37 14 -42 -1z"/>
</g>
</svg>
