<?xml version="1.0" standalone="no"?>
<!DOCTYPE svg PUBLIC "-//W3C//DTD SVG 20010904//EN"
 "http://www.w3.org/TR/2001/REC-SVG-20010904/DTD/svg10.dtd">
<svg version="1.0" xmlns="http://www.w3.org/2000/svg"
 width="90.000000pt" height="92.000000pt" viewBox="0 0 90.000000 92.000000"
 preserveAspectRatio="xMidYMid meet">
<metadata>
Created by potrace 1.16, written by Peter Selinger 2001-2019
</metadata>
<g transform="translate(0.000000,92.000000) scale(0.100000,-0.100000)"
fill="#000000" stroke="none">
<path d="M510 867 c0 -7 11 -29 25 -50 30 -44 29 -44 -70 -50 -52 -2 -73 0
-80 11 -9 11 -18 0 -43 -49 -29 -55 -31 -65 -18 -78 19 -18 37 -5 59 42 16 32
18 33 129 49 242 37 238 37 218 -18 -6 -15 -9 -28 -8 -30 4 -3 110 24 116 30
9 10 -7 35 -41 60 -32 25 -37 25 -93 16 -32 -6 -70 -13 -82 -16 -16 -3 -21 -1
-17 6 14 23 -6 61 -40 76 -42 17 -55 18 -55 1z"/>
<path d="M157 793 c10 -41 7 -133 -7 -207 l-12 -66 -37 -2 c-20 -1 -51 -1 -68
1 -39 2 -42 -10 -11 -39 18 -17 31 -20 61 -16 41 7 46 -2 22 -44 -21 -37 -19
-46 23 -71 74 -44 75 -47 43 -86 -16 -19 -53 -53 -82 -75 -30 -22 -56 -42 -58
-44 -2 -2 10 0 26 5 53 15 97 43 136 85 l39 41 38 -42 c45 -52 70 -56 70 -13
0 30 -16 52 -59 80 l-23 15 27 90 c15 50 29 96 31 103 2 8 13 16 24 19 23 6
27 23 5 23 -8 0 -15 8 -15 18 0 17 -36 42 -61 42 -6 0 -7 -14 -4 -34 7 -33 6
-34 -35 -41 -23 -4 -44 -4 -47 -1 -3 3 9 60 27 126 18 67 31 122 29 124 -28
21 -57 36 -71 36 -15 0 -17 -5 -11 -27z m106 -310 c-7 -39 -34 -126 -43 -136
-6 -7 -90 27 -90 36 0 2 7 26 15 54 16 54 12 52 116 72 3 0 4 -11 2 -26z"/>
<path d="M517 687 c-77 -12 -84 -29 -16 -37 44 -5 44 -5 45 -46 1 -23 4 -46 8
-52 8 -13 -57 -52 -162 -98 -75 -33 -75 -44 1 -23 22 6 41 8 44 5 3 -2 5 -49
4 -103 -1 -74 2 -104 14 -118 12 -17 16 -18 24 -5 6 8 13 12 16 8 13 -13 -27
-69 -82 -114 -49 -40 -54 -46 -29 -40 30 7 110 57 160 99 l28 24 -21 15 c-21
15 -20 15 25 22 85 11 103 8 116 -19 16 -35 36 -31 54 10 11 27 12 49 5 102
-6 37 -6 87 -2 111 8 38 6 44 -17 62 -29 23 -30 24 -107 5 -87 -21 -108 -19
-60 6 74 39 185 110 185 119 0 5 -12 18 -27 29 l-26 21 -18 -28 c-15 -26 -46
-52 -86 -76 -8 -4 -11 8 -10 44 2 54 4 55 67 62 14 2 25 8 25 13 0 14 -76 15
-158 2z m183 -246 c0 -15 -11 -19 -72 -24 -40 -4 -90 -10 -111 -13 -37 -7 -39
-6 -35 17 4 28 32 36 146 38 64 1 72 -1 72 -18z m2 -75 c4 -22 2 -23 -36 -22
-23 0 -74 -3 -113 -8 -69 -8 -73 -7 -73 12 0 17 10 21 78 29 130 17 139 16
144 -11z m-2 -73 c0 -28 -1 -28 -68 -30 -37 -1 -86 -5 -109 -8 -41 -6 -43 -5
-43 18 0 25 2 25 98 32 53 3 102 8 107 10 6 2 11 4 13 4 1 1 2 -11 2 -26z"/>
<path d="M450 616 c0 -7 -14 -32 -30 -54 -36 -51 -26 -53 32 -9 48 37 54 56
21 68 -17 6 -23 5 -23 -5z"/>
<path d="M630 186 c0 -13 131 -137 142 -134 20 7 21 36 3 64 -21 32 -145 92
-145 70z"/>
</g>
</svg>
