<?xml version="1.0" standalone="no"?>
<!DOCTYPE svg PUBLIC "-//W3C//DTD SVG 20010904//EN"
 "http://www.w3.org/TR/2001/REC-SVG-20010904/DTD/svg10.dtd">
<svg version="1.0" xmlns="http://www.w3.org/2000/svg"
 width="96.000000pt" height="68.000000pt" viewBox="0 0 96.000000 68.000000"
 preserveAspectRatio="xMidYMid meet">
<metadata>
Created by potrace 1.16, written by Peter Selinger 2001-2019
</metadata>
<g transform="translate(0.000000,68.000000) scale(0.100000,-0.100000)"
fill="#000000" stroke="none">
<path d="M420 585 c-52 -7 -111 -10 -131 -7 l-37 4 5 -63 c10 -118 -50 -274
-140 -366 -22 -24 -38 -45 -34 -49 10 -10 74 34 116 82 47 54 66 92 95 193
l22 76 92 9 c51 4 95 6 98 3 8 -8 -21 -58 -51 -90 -40 -42 -22 -45 25 -5 37
33 46 35 127 41 47 4 91 11 97 18 11 12 -55 8 -134 -7 -31 -6 -33 -5 -22 8 7
9 11 22 10 29 -2 10 10 15 40 17 34 3 42 6 38 19 -3 8 3 28 15 44 43 60 -17
72 -231 44z m165 -25 c3 -5 1 -18 -4 -28 -8 -15 -26 -21 -88 -26 -43 -4 -99
-9 -125 -13 -42 -5 -48 -3 -48 13 0 36 16 44 100 53 120 12 158 12 165 1z"/>
<path d="M364 428 c-4 -13 -22 -40 -41 -61 -19 -22 -32 -41 -30 -44 5 -5 24 9
89 66 37 32 38 36 22 48 -25 18 -32 16 -40 -9z"/>
<path d="M552 373 l-53 -4 3 -62 3 -61 89 1 c103 2 109 7 104 81 l-3 47 -45 1
c-25 0 -69 -1 -98 -3z m108 -27 c0 -14 -106 -39 -122 -29 -18 10 -6 32 20 36
64 10 102 7 102 -7z m0 -50 c0 -8 -15 -16 -37 -20 -21 -3 -50 -8 -65 -11 -23
-4 -28 -2 -28 14 0 17 8 21 48 24 26 2 55 4 65 5 9 1 17 -4 17 -12z"/>
<path d="M370 317 c-8 -22 -62 -76 -114 -115 -37 -28 -14 -29 30 -1 31 18 35
19 40 4 6 -15 1 -70 -11 -125 -7 -31 8 -55 29 -47 13 5 16 23 16 95 0 55 -4
92 -12 100 -10 10 -7 16 12 29 32 23 60 51 60 62 0 5 -9 11 -21 14 -14 4 -22
-1 -29 -16z"/>
<path d="M518 198 c-12 -18 -35 -44 -51 -57 -34 -29 -28 -40 9 -17 21 15 31
16 54 6 64 -27 40 -52 -83 -85 -38 -10 -45 -14 -24 -14 16 -1 63 10 104 24 75
26 76 26 97 7 36 -33 83 -52 128 -51 53 1 100 14 78 21 -8 3 -54 17 -102 32
-57 18 -88 32 -88 42 0 7 16 31 35 53 45 50 32 64 -47 55 -37 -4 -58 -3 -62 5
-12 18 -23 13 -48 -21z m112 -26 c0 -11 -9 -27 -19 -36 -19 -17 -21 -17 -50 0
-40 23 -35 37 15 45 21 3 42 7 47 8 4 0 7 -7 7 -17z"/>
</g>
</svg>
