<?xml version="1.0" standalone="no"?>
<!DOCTYPE svg PUBLIC "-//W3C//DTD SVG 20010904//EN"
 "http://www.w3.org/TR/2001/REC-SVG-20010904/DTD/svg10.dtd">
<svg version="1.0" xmlns="http://www.w3.org/2000/svg"
 width="90.000000pt" height="92.000000pt" viewBox="0 0 90.000000 92.000000"
 preserveAspectRatio="xMidYMid meet">
<metadata>
Created by potrace 1.16, written by Peter Selinger 2001-2019
</metadata>
<g transform="translate(0.000000,92.000000) scale(0.100000,-0.100000)"
fill="#000000" stroke="none">
<path d="M394 828 c4 -13 9 -59 13 -104 l6 -81 -74 -6 c-40 -3 -75 -4 -78 -2
-2 3 0 25 6 50 10 43 9 47 -15 65 -36 29 -45 25 -37 -19 4 -26 1 -51 -9 -76
-20 -47 -20 -69 0 -86 13 -10 23 -10 62 4 49 17 173 41 280 53 58 6 62 5 62
-14 0 -12 5 -24 10 -27 20 -12 37 15 50 78 7 34 17 67 21 72 10 13 0 29 -28
44 -45 23 -51 16 -46 -52 l5 -64 -82 -7 c-45 -4 -84 -5 -85 -4 -1 2 2 43 7 92
10 98 6 106 -46 106 -25 0 -28 -3 -22 -22z"/>
<path d="M650 530 c-19 -5 -87 -14 -150 -20 -63 -5 -151 -15 -195 -20 -44 -5
-110 -12 -147 -15 -38 -4 -68 -10 -68 -14 0 -5 18 -16 40 -26 37 -17 43 -17
104 -1 87 22 95 21 89 -6 -16 -65 -171 -217 -278 -272 -27 -14 -28 -16 -7 -16
29 0 146 59 196 99 21 17 42 31 46 31 8 0 15 -31 26 -116 8 -67 20 -85 38 -61
10 13 28 17 72 17 32 0 96 3 141 7 79 6 82 7 77 28 -6 24 19 119 37 141 13 16
5 31 -32 53 -28 17 -33 17 -112 1 -45 -9 -111 -20 -146 -24 l-63 -7 20 28 c11
15 29 37 41 47 23 21 27 51 9 63 -22 13 67 21 239 22 89 1 164 5 167 9 7 12
-6 28 -41 46 -35 17 -50 18 -103 6z m-72 -229 c11 -6 11 -21 2 -74 l-12 -65
-76 -7 c-43 -3 -91 -8 -109 -11 -31 -5 -32 -4 -38 43 -3 26 -8 58 -10 69 -5
20 1 23 83 34 48 6 94 13 102 14 28 7 45 6 58 -3z"/>
</g>
</svg>
