<?xml version="1.0" standalone="no"?>
<!DOCTYPE svg PUBLIC "-//W3C//DTD SVG 20010904//EN"
 "http://www.w3.org/TR/2001/REC-SVG-20010904/DTD/svg10.dtd">
<svg version="1.0" xmlns="http://www.w3.org/2000/svg"
 width="96.000000pt" height="68.000000pt" viewBox="0 0 96.000000 68.000000"
 preserveAspectRatio="xMidYMid meet">
<metadata>
Created by potrace 1.16, written by Peter Selinger 2001-2019
</metadata>
<g transform="translate(0.000000,68.000000) scale(0.100000,-0.100000)"
fill="#000000" stroke="none">
<path d="M456 578 c5 -18 8 -51 9 -73 l0 -40 -59 -8 c-32 -5 -60 -6 -62 -4 -2
2 1 19 7 37 10 29 10 35 -6 47 -11 7 -27 13 -37 13 -16 0 -18 -5 -13 -34 5
-24 2 -42 -10 -59 -13 -20 -14 -30 -5 -46 13 -25 12 -25 74 -6 27 8 100 20
163 26 107 11 114 11 128 -7 20 -27 47 -8 62 46 7 23 17 48 22 54 17 20 -31
43 -77 37 -5 0 -8 -20 -8 -43 l1 -43 -60 -3 -60 -3 0 68 0 68 -38 3 -39 3 8
-33z"/>
<path d="M490 358 c-96 -11 -202 -22 -235 -27 -60 -7 -60 -7 -30 -20 28 -12
77 -10 148 5 82 19 -24 -98 -161 -178 -29 -16 -51 -32 -49 -35 7 -6 131 51
167 77 l29 21 16 -52 c8 -29 15 -58 15 -65 0 -18 21 -29 29 -16 4 6 56 12 126
14 l120 3 2 28 c1 15 11 43 22 61 12 18 21 38 21 44 0 23 -63 28 -181 13 -66
-8 -122 -12 -125 -9 -2 3 9 20 27 37 21 21 29 38 26 51 -5 19 0 20 106 20 130
0 247 10 247 20 0 15 -58 31 -101 28 -24 -1 -123 -10 -219 -20z m134 -186 c0
-24 -6 -47 -13 -52 -14 -8 -182 -22 -189 -15 -2 2 -7 24 -9 49 l-5 44 68 7
c38 3 73 7 78 9 4 1 22 2 40 1 30 0 31 -1 30 -43z"/>
</g>
</svg>
