<?xml version="1.0" standalone="no"?>
<!DOCTYPE svg PUBLIC "-//W3C//DTD SVG 20010904//EN"
 "http://www.w3.org/TR/2001/REC-SVG-20010904/DTD/svg10.dtd">
<svg version="1.0" xmlns="http://www.w3.org/2000/svg"
 width="96.000000pt" height="68.000000pt" viewBox="0 0 96.000000 68.000000"
 preserveAspectRatio="xMidYMid meet">
<metadata>
Created by potrace 1.16, written by Peter Selinger 2001-2019
</metadata>
<g transform="translate(0.000000,68.000000) scale(0.100000,-0.100000)"
fill="#000000" stroke="none">
<path d="M545 234 c-44 -7 -99 -13 -121 -13 -58 -1 -65 -14 -47 -86 16 -63 32
-90 40 -67 3 8 35 12 106 13 118 1 141 6 145 34 2 11 12 36 23 57 10 20 19 42
19 47 0 9 -66 33 -80 30 -3 -1 -41 -8 -85 -15z m77 -24 c15 0 3 -81 -14 -91
-7 -5 -31 -9 -54 -9 -23 0 -62 -3 -87 -6 l-45 -6 -7 46 c-4 26 -5 49 -3 51 6
7 171 23 186 19 8 -2 18 -4 24 -4z"/>
</g>
</svg>
