<?xml version="1.0" standalone="no"?>
<!DOCTYPE svg PUBLIC "-//W3C//DTD SVG 20010904//EN"
 "http://www.w3.org/TR/2001/REC-SVG-20010904/DTD/svg10.dtd">
<svg version="1.0" xmlns="http://www.w3.org/2000/svg"
 width="96.000000pt" height="68.000000pt" viewBox="0 0 96.000000 68.000000"
 preserveAspectRatio="xMidYMid meet">
<metadata>
Created by potrace 1.16, written by Peter Selinger 2001-2019
</metadata>
<g transform="translate(0.000000,68.000000) scale(0.100000,-0.100000)"
fill="#000000" stroke="none">
<path d="M170 541 c0 -12 63 -61 77 -61 9 0 23 22 23 36 0 2 -13 10 -30 19
-33 17 -70 20 -70 6z"/>
<path d="M120 411 c0 -14 64 -61 83 -61 23 0 22 37 0 48 -31 16 -83 24 -83 13z"/>
<path d="M240 292 c-14 -20 -50 -61 -80 -90 -53 -51 -54 -53 -40 -79 8 -15 20
-28 27 -30 7 -3 35 42 68 107 58 115 69 158 25 92z"/>
</g>
</svg>
