<?xml version="1.0" standalone="no"?>
<!DOCTYPE svg PUBLIC "-//W3C//DTD SVG 20010904//EN"
 "http://www.w3.org/TR/2001/REC-SVG-20010904/DTD/svg10.dtd">
<svg version="1.0" xmlns="http://www.w3.org/2000/svg"
 width="96.000000pt" height="68.000000pt" viewBox="0 0 96.000000 68.000000"
 preserveAspectRatio="xMidYMid meet">
<metadata>
Created by potrace 1.16, written by Peter Selinger 2001-2019
</metadata>
<g transform="translate(0.000000,68.000000) scale(0.100000,-0.100000)"
fill="#000000" stroke="none">
<path d="M680 439 c-19 -4 -80 -11 -135 -15 -55 -4 -94 -9 -87 -11 6 -3 12
-14 12 -26 1 -45 19 -55 90 -46 36 5 99 9 140 10 75 1 75 1 103 40 27 37 27
38 8 48 -23 13 -81 13 -131 0z m80 -26 c0 -26 -16 -47 -31 -41 -8 3 -54 0
-104 -6 -111 -14 -125 -12 -125 20 0 22 4 24 53 25 28 0 72 4 97 8 81 15 110
13 110 -6z"/>
</g>
</svg>
