<?xml version="1.0" standalone="no"?>
<!DOCTYPE svg PUBLIC "-//W3C//DTD SVG 20010904//EN"
 "http://www.w3.org/TR/2001/REC-SVG-20010904/DTD/svg10.dtd">
<svg version="1.0" xmlns="http://www.w3.org/2000/svg"
 width="96.000000pt" height="68.000000pt" viewBox="0 0 96.000000 68.000000"
 preserveAspectRatio="xMidYMid meet">
<metadata>
Created by potrace 1.16, written by Peter Selinger 2001-2019
</metadata>
<g transform="translate(0.000000,68.000000) scale(0.100000,-0.100000)"
fill="#000000" stroke="none">
<path d="M261 533 c-7 -16 -18 -36 -26 -47 -13 -18 -15 -18 -50 4 -46 29 -55
20 -14 -14 30 -25 31 -28 14 -46 -9 -10 -34 -31 -56 -46 -59 -41 -39 -41 35
-1 l65 36 7 -34 c3 -20 5 -82 2 -140 -4 -124 -17 -147 -69 -128 l-31 12 25
-32 c35 -46 59 -46 94 -1 27 37 28 40 27 154 -2 81 -7 127 -18 155 l-17 39 42
42 c36 37 40 45 29 59 -19 23 -46 18 -59 -12z"/>
</g>
</svg>
