<?xml version="1.0" standalone="no"?>
<!DOCTYPE svg PUBLIC "-//W3C//DTD SVG 20010904//EN"
 "http://www.w3.org/TR/2001/REC-SVG-20010904/DTD/svg10.dtd">
<svg version="1.0" xmlns="http://www.w3.org/2000/svg"
 width="96.000000pt" height="68.000000pt" viewBox="0 0 96.000000 68.000000"
 preserveAspectRatio="xMidYMid meet">
<metadata>
Created by potrace 1.16, written by Peter Selinger 2001-2019
</metadata>
<g transform="translate(0.000000,68.000000) scale(0.100000,-0.100000)"
fill="#000000" stroke="none">
<path d="M230 577 c0 -7 5 -43 10 -81 12 -81 5 -96 -49 -96 -44 0 -81 -10 -81
-21 0 -4 27 -9 59 -11 l59 -3 -21 -43 c-11 -24 -42 -68 -70 -98 -27 -30 -48
-57 -46 -59 3 -2 19 3 37 12 32 15 65 46 96 88 15 19 15 19 16 -6 0 -53 -13
-148 -20 -144 -12 7 6 -64 21 -81 10 -13 14 -13 26 -1 10 10 16 52 20 140 3
70 9 127 13 127 4 0 15 -9 25 -20 25 -27 45 -25 45 4 0 19 -9 29 -40 43 -53
24 -53 49 1 58 49 8 47 29 -4 33 -33 3 -36 5 -32 30 18 119 19 117 -35 132
-21 6 -30 5 -30 -3z"/>
<path d="M530 571 c5 -11 10 -33 10 -49 0 -28 -3 -30 -52 -38 l-53 -8 53 -4
c50 -3 52 -4 52 -31 l0 -28 -79 1 -79 1 14 -26 c7 -14 18 -47 25 -72 6 -26 13
-47 15 -47 1 0 13 4 27 9 13 5 30 6 38 1 11 -7 4 -19 -30 -54 -25 -25 -64 -58
-88 -73 -24 -15 -39 -29 -34 -31 15 -5 113 52 145 85 15 15 30 23 35 17 5 -5
4 -46 -2 -92 -9 -73 -8 -85 7 -100 27 -27 36 0 36 111 0 62 4 97 11 97 6 0 38
-27 72 -60 l62 -60 63 0 c34 0 62 4 62 9 0 4 -26 18 -57 29 -61 22 -128 63
-178 107 l-30 26 67 -4 67 -5 37 66 c34 63 35 67 17 80 -16 12 -105 12 -165
-1 -17 -3 -23 34 -7 43 7 5 32 11 56 15 23 3 43 11 43 17 0 7 -17 8 -50 4
l-50 -7 0 35 c0 36 -20 56 -55 56 -12 0 -14 -4 -5 -19z m180 -178 c-1 -10 -7
-31 -13 -47 -12 -27 -18 -30 -65 -33 l-52 -3 0 50 0 50 65 0 c55 0 65 -3 65
-17z m-172 -40 l-3 -48 -42 -3 c-41 -3 -41 -3 -48 37 -4 22 -4 45 0 51 3 5 26
10 51 10 l45 0 -3 -47z"/>
<path d="M627 372 c-24 -27 -21 -32 13 -19 17 6 29 16 27 21 -6 18 -23 17 -40
-2z"/>
<path d="M474 355 c3 -9 6 -19 6 -21 0 -2 9 -4 21 -4 29 0 21 34 -10 38 -19 3
-22 0 -17 -13z"/>
</g>
</svg>
