<?xml version="1.0" standalone="no"?>
<!DOCTYPE svg PUBLIC "-//W3C//DTD SVG 20010904//EN"
 "http://www.w3.org/TR/2001/REC-SVG-20010904/DTD/svg10.dtd">
<svg version="1.0" xmlns="http://www.w3.org/2000/svg"
 width="90.000000pt" height="92.000000pt" viewBox="0 0 90.000000 92.000000"
 preserveAspectRatio="xMidYMid meet">
<metadata>
Created by potrace 1.16, written by Peter Selinger 2001-2019
</metadata>
<g transform="translate(0.000000,92.000000) scale(0.100000,-0.100000)"
fill="#000000" stroke="none">
<path d="M568 893 c-1 -5 -2 -30 -2 -58 -1 -49 -1 -49 -38 -56 -41 -6 -51 4
-41 42 7 25 -18 49 -50 49 -15 0 -17 -4 -11 -17 4 -10 8 -34 8 -53 1 -35 0
-35 -47 -40 -64 -7 -64 -24 1 -28 51 -3 52 -4 52 -34 l0 -31 -65 5 c-36 3 -65
4 -65 1 0 -2 6 -16 14 -31 7 -15 17 -47 21 -72 11 -73 25 -111 38 -103 18 12
280 30 293 21 16 -12 39 20 58 82 10 30 24 65 32 78 18 27 13 37 -28 58 -23
12 -45 14 -80 10 -28 -4 -48 -3 -48 3 0 16 30 41 50 41 10 0 31 5 47 11 27 10
28 11 8 25 -13 10 -32 14 -57 10 l-37 -6 6 34 c5 31 2 36 -26 50 -17 9 -32 13
-33 9z m-8 -178 c0 -18 -5 -25 -19 -25 -11 0 -26 -3 -35 -6 -12 -5 -16 0 -16
18 0 32 7 38 42 38 23 0 28 -4 28 -25z m130 -69 c0 -34 -1 -35 -29 -25 -15 5
-34 9 -42 7 -9 -2 -13 4 -11 17 5 25 20 35 55 35 24 0 27 -3 27 -34z m-130
-11 c0 -22 -4 -25 -35 -25 -31 0 -35 3 -35 25 0 22 4 25 35 25 31 0 35 -3 35
-25z m-110 -9 c0 -19 -7 -26 -31 -31 -36 -8 -35 -8 -44 28 -7 26 -6 27 34 27
37 0 41 -3 41 -24z m225 -65 c-6 -27 -11 -31 -41 -31 -31 0 -34 3 -34 29 0 27
3 30 38 33 20 2 39 2 40 1 2 -1 1 -15 -3 -32z m-115 -11 c0 -23 -5 -30 -19
-30 -11 0 -26 -3 -35 -6 -12 -5 -16 1 -16 24 0 30 10 38 53 41 13 1 17 -7 17
-29z m-110 -10 c0 -27 -3 -30 -30 -30 -25 0 -30 4 -30 24 0 23 4 26 53 35 4 0
7 -12 7 -29z"/>
<path d="M80 755 c0 -13 62 -85 82 -96 16 -8 24 -7 35 4 21 21 10 61 -21 75
-32 15 -96 26 -96 17z"/>
<path d="M165 541 c-6 -5 -34 -17 -63 -28 -29 -11 -53 -24 -52 -29 0 -5 25 -8
55 -8 54 1 55 1 48 -25 -3 -14 -10 -31 -15 -38 -6 -8 1 -25 20 -52 35 -48 49
-106 31 -127 -8 -10 -34 -14 -85 -14 -41 0 -74 -4 -74 -9 0 -5 11 -18 25 -29
23 -18 27 -19 71 -4 64 21 111 10 321 -73 146 -58 174 -66 214 -62 54 7 209
64 209 78 0 5 -37 9 -82 9 -134 0 -289 18 -395 46 -54 15 -117 31 -140 38 -43
11 -52 19 -33 31 6 3 10 26 10 50 0 38 -5 48 -34 72 l-35 27 45 52 c24 29 44
56 44 61 0 9 -52 43 -67 43 -5 0 -13 -4 -18 -9z"/>
<path d="M540 443 c-36 -8 -81 -12 -100 -10 l-35 4 0 -118 c1 -65 4 -121 8
-125 3 -4 12 -2 19 3 7 6 50 13 96 16 74 5 83 3 93 -14 5 -10 14 -19 19 -19
17 0 31 69 27 132 -3 34 -1 73 4 85 7 20 4 26 -24 43 -17 11 -34 19 -37 19 -3
-1 -34 -8 -70 -16z m68 -63 l3 -35 -86 -3 -85 -2 0 29 c0 28 3 30 53 39 28 6
66 9 82 9 27 -2 30 -6 33 -37z m2 -95 l0 -35 -47 0 c-27 0 -65 -3 -85 -6 l-38
-7 0 36 0 36 58 4 c31 2 69 4 85 5 25 2 27 -1 27 -33z"/>
</g>
</svg>
