<?xml version="1.0" standalone="no"?>
<!DOCTYPE svg PUBLIC "-//W3C//DTD SVG 20010904//EN"
 "http://www.w3.org/TR/2001/REC-SVG-20010904/DTD/svg10.dtd">
<svg version="1.0" xmlns="http://www.w3.org/2000/svg"
 width="96.000000pt" height="68.000000pt" viewBox="0 0 96.000000 68.000000"
 preserveAspectRatio="xMidYMid meet">
<metadata>
Created by potrace 1.16, written by Peter Selinger 2001-2019
</metadata>
<g transform="translate(0.000000,68.000000) scale(0.100000,-0.100000)"
fill="#000000" stroke="none">
<path d="M555 299 c-22 -4 -60 -8 -85 -8 l-45 -1 1 -81 c1 -44 7 -86 13 -92 8
-8 11 -6 11 6 0 15 11 17 79 17 65 0 80 -3 85 -17 6 -14 9 -15 21 -2 16 16 24
155 9 168 -16 15 -48 19 -89 10z m53 -48 c3 -16 -2 -21 -20 -21 -13 0 -47 -3
-75 -6 -52 -7 -53 -6 -53 18 0 22 6 26 53 35 62 11 91 3 95 -26z m2 -66 c0
-19 -5 -25 -22 -25 -13 0 -47 -3 -75 -6 l-53 -7 0 29 0 29 75 2 c74 2 75 2 75
-22z"/>
</g>
</svg>
