<?xml version="1.0" standalone="no"?>
<!DOCTYPE svg PUBLIC "-//W3C//DTD SVG 20010904//EN"
 "http://www.w3.org/TR/2001/REC-SVG-20010904/DTD/svg10.dtd">
<svg version="1.0" xmlns="http://www.w3.org/2000/svg"
 width="96.000000pt" height="68.000000pt" viewBox="0 0 96.000000 68.000000"
 preserveAspectRatio="xMidYMid meet">
<metadata>
Created by potrace 1.16, written by Peter Selinger 2001-2019
</metadata>
<g transform="translate(0.000000,68.000000) scale(0.100000,-0.100000)"
fill="#000000" stroke="none">
<path d="M665 468 c-2 -7 -5 -35 -8 -61 -5 -56 -5 -55 -44 -63 -28 -6 -31 -4
-37 28 -3 19 -20 47 -36 63 -36 35 -37 31 -6 -39 l25 -55 -50 -7 c-74 -10 -62
-28 14 -20 34 3 113 9 175 13 61 3 112 10 112 14 0 14 -49 22 -96 15 -24 -3
-44 -2 -44 2 0 4 11 24 25 44 29 43 32 63 9 72 -24 9 -34 7 -39 -6z"/>
</g>
</svg>
