<?xml version="1.0" standalone="no"?>
<!DOCTYPE svg PUBLIC "-//W3C//DTD SVG 20010904//EN"
 "http://www.w3.org/TR/2001/REC-SVG-20010904/DTD/svg10.dtd">
<svg version="1.0" xmlns="http://www.w3.org/2000/svg"
 width="96.000000pt" height="68.000000pt" viewBox="0 0 96.000000 68.000000"
 preserveAspectRatio="xMidYMid meet">
<metadata>
Created by potrace 1.16, written by Peter Selinger 2001-2019
</metadata>
<g transform="translate(0.000000,68.000000) scale(0.100000,-0.100000)"
fill="#000000" stroke="none">
<path d="M447 555 l6 -55 -52 0 c-28 0 -51 -4 -51 -10 0 -5 23 -10 50 -10 l50
0 0 -35 c0 -30 3 -35 24 -35 21 0 25 5 28 38 3 37 3 37 51 40 59 4 60 27 1 27
-45 -1 -56 10 -48 47 4 20 0 29 -15 37 -42 23 -50 15 -44 -44z"/>
</g>
</svg>
