<?xml version="1.0" standalone="no"?>
<!DOCTYPE svg PUBLIC "-//W3C//DTD SVG 20010904//EN"
 "http://www.w3.org/TR/2001/REC-SVG-20010904/DTD/svg10.dtd">
<svg version="1.0" xmlns="http://www.w3.org/2000/svg"
 width="96.000000pt" height="68.000000pt" viewBox="0 0 96.000000 68.000000"
 preserveAspectRatio="xMidYMid meet">
<metadata>
Created by potrace 1.16, written by Peter Selinger 2001-2019
</metadata>
<g transform="translate(0.000000,68.000000) scale(0.100000,-0.100000)"
fill="#000000" stroke="none">
<path d="M435 593 c5 -10 10 -32 12 -49 4 -28 2 -32 -27 -38 -18 -3 -43 -6
-56 -6 -13 0 -24 -4 -24 -9 0 -11 36 -21 78 -21 30 0 32 -2 32 -34 l0 -34 -82
-6 c-46 -4 -105 -7 -133 -9 -29 -1 -48 -6 -45 -12 5 -10 172 -11 223 -1 30 6
38 -11 10 -21 -10 -3 -25 -12 -34 -19 -19 -17 -174 -94 -188 -94 -5 0 -13 -5
-17 -12 -11 -18 51 -2 128 34 38 17 71 28 74 25 4 -3 6 -35 5 -71 -1 -61 12
-93 28 -68 4 6 36 14 73 18 61 6 67 5 77 -15 13 -24 33 -27 49 -9 5 7 12 53
14 101 4 88 4 89 -21 99 -17 6 -47 6 -83 1 -63 -10 -78 1 -28 20 17 6 30 15
30 20 0 4 5 5 11 2 15 -10 269 5 269 15 0 21 -69 31 -146 21 -43 -5 -80 -8
-82 -6 -5 5 41 46 85 77 35 25 40 37 21 56 -20 20 -48 14 -58 -14 -7 -18 -15
-24 -26 -20 -9 3 -33 6 -54 6 -39 0 -39 0 -42 43 -3 41 -4 42 -42 45 -34 3
-38 1 -31 -15z m155 -107 c0 -9 -81 -68 -86 -63 -12 12 9 56 29 60 33 6 57 8
57 3z m-10 -175 c17 -32 12 -38 -37 -44 -27 -3 -63 -9 -80 -13 -31 -6 -33 -5
-33 24 0 28 4 31 48 40 73 15 90 14 102 -7z m8 -88 c-2 -23 -8 -28 -33 -29
-16 0 -51 -4 -77 -8 -47 -8 -48 -8 -48 17 0 22 5 26 58 35 99 17 104 16 100
-15z"/>
<path d="M247 78 c-30 -47 -33 -63 -13 -71 23 -9 56 35 56 76 0 20 -3 37 -8
37 -4 0 -20 -19 -35 -42z"/>
<path d="M680 115 c0 -3 19 -26 41 -50 43 -47 79 -59 79 -27 0 24 -25 47 -73
67 -39 16 -47 18 -47 10z"/>
<path d="M400 96 c0 -22 34 -76 45 -73 18 6 16 33 -5 60 -24 30 -40 35 -40 13z"/>
<path d="M541 103 c2 -20 37 -68 52 -71 24 -5 22 40 -1 61 -19 17 -53 23 -51
10z"/>
</g>
</svg>
