<?xml version="1.0" standalone="no"?>
<!DOCTYPE svg PUBLIC "-//W3C//DTD SVG 20010904//EN"
 "http://www.w3.org/TR/2001/REC-SVG-20010904/DTD/svg10.dtd">
<svg version="1.0" xmlns="http://www.w3.org/2000/svg"
 width="96.000000pt" height="68.000000pt" viewBox="0 0 96.000000 68.000000"
 preserveAspectRatio="xMidYMid meet">
<metadata>
Created by potrace 1.16, written by Peter Selinger 2001-2019
</metadata>
<g transform="translate(0.000000,68.000000) scale(0.100000,-0.100000)"
fill="#000000" stroke="none">
<path d="M399 363 c-18 -49 -106 -126 -219 -192 -64 -38 -32 -35 53 4 59 27
100 56 162 114 24 23 50 41 59 41 8 0 52 -30 98 -66 116 -92 125 -96 203 -88
36 4 65 10 65 14 0 4 -35 17 -77 29 -83 24 -269 121 -291 152 -19 27 -41 23
-53 -8z"/>
</g>
</svg>
