<?xml version="1.0" standalone="no"?>
<!DOCTYPE svg PUBLIC "-//W3C//DTD SVG 20010904//EN"
 "http://www.w3.org/TR/2001/REC-SVG-20010904/DTD/svg10.dtd">
<svg version="1.0" xmlns="http://www.w3.org/2000/svg"
 width="96.000000pt" height="68.000000pt" viewBox="0 0 96.000000 68.000000"
 preserveAspectRatio="xMidYMid meet">
<metadata>
Created by potrace 1.16, written by Peter Selinger 2001-2019
</metadata>
<g transform="translate(0.000000,68.000000) scale(0.100000,-0.100000)"
fill="#000000" stroke="none">
<path d="M225 553 c14 -54 16 -181 4 -309 -15 -167 -15 -183 3 -200 13 -14 17
-14 32 1 12 13 16 36 16 104 0 48 3 129 6 179 l7 91 27 -19 c17 -12 31 -16 41
-10 21 14 -1 43 -39 54 -32 9 -32 9 -26 60 6 49 5 52 -20 64 -45 20 -59 16
-51 -15z"/>
<path d="M450 544 c0 -22 -41 -114 -51 -114 -4 0 -11 -9 -14 -20 -3 -11 -12
-26 -18 -33 -58 -63 -55 -68 11 -18 l34 25 -4 -104 c-2 -72 0 -104 9 -107 6
-2 14 4 17 15 6 17 21 20 173 26 92 4 170 9 172 12 14 14 -32 24 -94 22 -65
-3 -70 -1 -73 18 -3 20 3 23 57 29 84 10 90 27 10 24 -59 -3 -64 -1 -67 19 -3
19 1 22 30 22 18 0 43 3 56 6 40 11 23 24 -32 24 -48 0 -55 2 -53 19 1 16 12
21 52 26 27 4 57 11 65 15 24 14 -13 23 -64 18 -42 -5 -44 -4 -50 22 -3 19
-14 31 -36 38 -35 13 -37 8 -10 -35 l20 -33 -23 -4 c-64 -13 -107 -15 -107 -6
0 12 30 62 43 71 4 3 5 13 1 22 -8 22 -54 23 -54 1z m118 -138 c5 -26 -15 -36
-74 -36 -45 0 -52 3 -57 22 -3 12 -4 24 -2 28 2 3 32 5 67 5 53 -1 63 -4 66
-19z m-10 -97 c-7 -5 -37 -9 -65 -9 -50 0 -53 2 -53 25 0 23 4 24 63 27 54 3
62 1 65 -16 2 -10 -2 -23 -10 -27z m12 -49 l0 -30 -65 0 c-62 0 -65 1 -65 25
0 23 4 24 63 28 34 2 63 4 65 5 1 1 2 -11 2 -28z"/>
<path d="M130 356 c-23 -57 -22 -86 3 -86 25 0 37 26 40 80 3 72 -15 74 -43 6z"/>
<path d="M720 162 c0 -16 71 -92 86 -92 8 0 14 10 14 25 0 18 -11 31 -43 50
-47 27 -57 30 -57 17z"/>
<path d="M366 123 c-26 -40 -30 -73 -7 -73 19 0 42 48 39 82 l-3 33 -29 -42z"/>
<path d="M485 133 c4 -10 10 -27 13 -38 5 -20 20 -35 35 -35 18 0 6 60 -15 74
-29 21 -42 20 -33 -1z"/>
<path d="M611 128 c28 -55 59 -70 59 -29 0 22 -31 51 -54 51 -14 0 -15 -3 -5
-22z"/>
</g>
</svg>
