<?xml version="1.0" standalone="no"?>
<!DOCTYPE svg PUBLIC "-//W3C//DTD SVG 20010904//EN"
 "http://www.w3.org/TR/2001/REC-SVG-20010904/DTD/svg10.dtd">
<svg version="1.0" xmlns="http://www.w3.org/2000/svg"
 width="96.000000pt" height="68.000000pt" viewBox="0 0 96.000000 68.000000"
 preserveAspectRatio="xMidYMid meet">
<metadata>
Created by potrace 1.16, written by Peter Selinger 2001-2019
</metadata>
<g transform="translate(0.000000,68.000000) scale(0.100000,-0.100000)"
fill="#000000" stroke="none">
<path d="M238 441 c3 -76 -1 -190 -7 -253 -13 -120 -9 -151 18 -146 22 5 30
59 30 231 1 118 4 147 15 147 7 0 19 -7 26 -15 18 -21 40 -19 40 5 0 14 -10
22 -32 28 -31 8 -33 12 -34 53 -2 66 -2 65 -29 77 -14 7 -27 12 -29 12 -1 0 0
-63 2 -139z"/>
<path d="M136 360 c-21 -52 -21 -90 -1 -90 20 0 35 40 35 91 0 50 -14 50 -34
-1z"/>
</g>
</svg>
