<?xml version="1.0" standalone="no"?>
<!DOCTYPE svg PUBLIC "-//W3C//DTD SVG 20010904//EN"
 "http://www.w3.org/TR/2001/REC-SVG-20010904/DTD/svg10.dtd">
<svg version="1.0" xmlns="http://www.w3.org/2000/svg"
 width="96.000000pt" height="68.000000pt" viewBox="0 0 96.000000 68.000000"
 preserveAspectRatio="xMidYMid meet">
<metadata>
Created by potrace 1.16, written by Peter Selinger 2001-2019
</metadata>
<g transform="translate(0.000000,68.000000) scale(0.100000,-0.100000)"
fill="#000000" stroke="none">
<path d="M598 423 c-22 -5 -24 -33 -3 -33 19 0 19 -20 0 -90 -30 -110 -14
-185 47 -216 48 -25 138 -30 176 -10 35 18 37 24 21 75 -7 20 -14 43 -16 51
-3 9 -11 0 -19 -24 -22 -63 -31 -69 -93 -64 -37 4 -58 11 -67 23 -30 40 -8
172 39 239 20 28 20 29 2 42 -18 14 -52 16 -87 7z"/>
</g>
</svg>
