<?xml version="1.0" standalone="no"?>
<!DOCTYPE svg PUBLIC "-//W3C//DTD SVG 20010904//EN"
 "http://www.w3.org/TR/2001/REC-SVG-20010904/DTD/svg10.dtd">
<svg version="1.0" xmlns="http://www.w3.org/2000/svg"
 width="90.000000pt" height="92.000000pt" viewBox="0 0 90.000000 92.000000"
 preserveAspectRatio="xMidYMid meet">
<metadata>
Created by potrace 1.16, written by Peter Selinger 2001-2019
</metadata>
<g transform="translate(0.000000,92.000000) scale(0.100000,-0.100000)"
fill="#000000" stroke="none">
<path d="M374 885 c-4 -8 -1 -22 6 -30 10 -13 28 -205 19 -205 -2 0 -53 -7
-114 -15 -60 -8 -131 -15 -157 -15 -49 0 -59 -9 -35 -29 25 -20 74 -23 143 -8
38 8 90 18 117 22 l47 6 0 -74 0 -75 -82 -7 c-46 -4 -92 -11 -103 -15 -18 -7
-17 -9 13 -22 27 -12 47 -12 125 -2 50 7 140 15 200 19 59 4 107 11 107 16 0
5 -11 16 -25 25 -25 16 -92 15 -162 -2 -22 -6 -23 -4 -23 52 0 91 -3 89 172
92 178 3 189 5 164 30 -31 32 -73 39 -150 26 -39 -6 -95 -14 -125 -17 l-54 -6
5 79 c3 43 10 86 18 94 10 13 10 19 0 32 -28 33 -97 53 -106 29z"/>
<path d="M480 339 c-47 -11 -125 -21 -175 -24 -50 -2 -92 -4 -94 -4 -2 -1 3
-9 12 -18 8 -10 23 -58 32 -108 10 -49 22 -99 27 -109 10 -19 11 -19 25 0 12
16 34 20 163 28 137 9 150 11 145 27 -7 21 9 88 32 137 15 32 15 34 -8 57 -33
33 -61 35 -159 14z m76 -106 c-4 -37 -9 -69 -11 -71 -3 -3 -64 -12 -186 -26
l-46 -5 -12 71 c-6 39 -10 72 -9 73 7 6 150 22 207 24 l64 1 -7 -67z"/>
</g>
</svg>
