<?xml version="1.0" standalone="no"?>
<!DOCTYPE svg PUBLIC "-//W3C//DTD SVG 20010904//EN"
 "http://www.w3.org/TR/2001/REC-SVG-20010904/DTD/svg10.dtd">
<svg version="1.0" xmlns="http://www.w3.org/2000/svg"
 width="96.000000pt" height="68.000000pt" viewBox="0 0 96.000000 68.000000"
 preserveAspectRatio="xMidYMid meet">
<metadata>
Created by potrace 1.16, written by Peter Selinger 2001-2019
</metadata>
<g transform="translate(0.000000,68.000000) scale(0.100000,-0.100000)"
fill="#000000" stroke="none">
<path d="M195 538 c16 -52 17 -142 5 -305 -10 -141 -10 -176 0 -188 27 -33 35
4 38 185 l4 179 24 -16 c29 -18 63 -10 45 11 -7 8 -23 17 -36 20 -23 6 -25 11
-25 61 0 43 -4 56 -19 65 -32 17 -44 12 -36 -12z"/>
<path d="M116 330 c-15 -41 -16 -53 -5 -66 18 -21 37 1 40 46 5 85 -9 93 -35
20z"/>
</g>
</svg>
