<?xml version="1.0" standalone="no"?>
<!DOCTYPE svg PUBLIC "-//W3C//DTD SVG 20010904//EN"
 "http://www.w3.org/TR/2001/REC-SVG-20010904/DTD/svg10.dtd">
<svg version="1.0" xmlns="http://www.w3.org/2000/svg"
 width="96.000000pt" height="68.000000pt" viewBox="0 0 96.000000 68.000000"
 preserveAspectRatio="xMidYMid meet">
<metadata>
Created by potrace 1.16, written by Peter Selinger 2001-2019
</metadata>
<g transform="translate(0.000000,68.000000) scale(0.100000,-0.100000)"
fill="#000000" stroke="none">
<path d="M458 138 c6 -6 8 -25 5 -44 -4 -25 -2 -35 11 -40 9 -3 14 -10 11 -14
-7 -11 32 -23 45 -15 6 4 18 1 26 -6 13 -11 44 -10 156 5 70 10 87 37 51 81
-12 16 -14 16 -10 3 3 -10 1 -20 -4 -24 -6 -3 -9 -14 -6 -23 2 -10 -1 -18 -8
-18 -8 0 -11 7 -8 16 5 13 3 14 -8 3 -7 -6 -21 -12 -32 -12 -10 0 -15 -4 -12
-10 4 -6 -5 -8 -22 -5 -73 12 -133 13 -127 3 4 -6 1 -9 -5 -7 -7 3 -13 9 -14
14 -2 16 -21 33 -30 28 -5 -3 -2 9 7 25 22 42 20 50 -10 50 -17 0 -22 -4 -16
-10z"/>
</g>
</svg>
