<?xml version="1.0" standalone="no"?>
<!DOCTYPE svg PUBLIC "-//W3C//DTD SVG 20010904//EN"
 "http://www.w3.org/TR/2001/REC-SVG-20010904/DTD/svg10.dtd">
<svg version="1.0" xmlns="http://www.w3.org/2000/svg"
 width="96.000000pt" height="68.000000pt" viewBox="0 0 96.000000 68.000000"
 preserveAspectRatio="xMidYMid meet">
<metadata>
Created by potrace 1.16, written by Peter Selinger 2001-2019
</metadata>
<g transform="translate(0.000000,68.000000) scale(0.100000,-0.100000)"
fill="#000000" stroke="none">
<path d="M365 250 c-16 -4 -50 -8 -75 -9 l-45 -1 -2 -73 c-2 -39 -4 -85 -5
-102 -4 -45 24 -39 35 7 7 29 14 38 30 38 12 0 39 3 60 7 38 6 39 5 35 -23 -3
-26 -7 -29 -35 -28 -18 1 -33 0 -33 -2 0 -1 16 -15 36 -30 50 -39 60 -24 67
104 5 92 3 103 -13 112 -10 6 -20 9 -22 9 -2 -1 -16 -5 -33 -9z m35 -34 c0
-20 -7 -23 -62 -31 -44 -7 -48 -6 -48 13 0 22 16 29 73 31 26 1 37 -3 37 -13z
m0 -55 c0 -14 -12 -21 -52 -29 -56 -11 -68 -9 -68 12 0 8 23 17 58 23 31 6 58
11 60 12 1 0 2 -7 2 -18z"/>
</g>
</svg>
