<?xml version="1.0" standalone="no"?>
<!DOCTYPE svg PUBLIC "-//W3C//DTD SVG 20010904//EN"
 "http://www.w3.org/TR/2001/REC-SVG-20010904/DTD/svg10.dtd">
<svg version="1.0" xmlns="http://www.w3.org/2000/svg"
 width="96.000000pt" height="68.000000pt" viewBox="0 0 96.000000 68.000000"
 preserveAspectRatio="xMidYMid meet">
<metadata>
Created by potrace 1.16, written by Peter Selinger 2001-2019
</metadata>
<g transform="translate(0.000000,68.000000) scale(0.100000,-0.100000)"
fill="#000000" stroke="none">
<path d="M360 280 c0 -133 26 -152 216 -158 141 -4 230 8 264 36 20 17 20 18
2 64 -23 61 -29 66 -37 30 -10 -48 -44 -72 -121 -84 -89 -14 -225 -4 -259 18
-23 15 -25 22 -25 90 0 67 -2 74 -20 74 -18 0 -20 -7 -20 -70z"/>
</g>
</svg>
