<?xml version="1.0" standalone="no"?>
<!DOCTYPE svg PUBLIC "-//W3C//DTD SVG 20010904//EN"
 "http://www.w3.org/TR/2001/REC-SVG-20010904/DTD/svg10.dtd">
<svg version="1.0" xmlns="http://www.w3.org/2000/svg"
 width="90.000000pt" height="92.000000pt" viewBox="0 0 90.000000 92.000000"
 preserveAspectRatio="xMidYMid meet">
<metadata>
Created by potrace 1.16, written by Peter Selinger 2001-2019
</metadata>
<g transform="translate(0.000000,92.000000) scale(0.100000,-0.100000)"
fill="#000000" stroke="none">
<path d="M539 903 c-1 -5 -1 -32 1 -60 2 -47 0 -53 -18 -53 -11 0 -27 -3 -36
-6 -13 -5 -16 2 -16 35 0 35 -4 41 -24 47 -36 9 -46 -1 -33 -35 5 -15 7 -36 3
-46 -5 -15 -14 -17 -61 -11 -58 6 -64 3 -41 -23 8 -9 20 -48 26 -86 15 -98 19
-108 38 -100 30 12 235 35 258 29 21 -5 28 3 66 83 24 48 44 91 46 95 5 10
-58 47 -72 43 -6 -2 -26 -6 -45 -9 l-34 -6 7 40 c6 36 4 41 -23 55 -34 17 -40
18 -42 8z m121 -157 c0 -31 -8 -36 -43 -29 -20 4 -27 11 -27 29 0 21 5 24 35
24 30 0 35 -3 35 -24z m-120 -11 c0 -14 -6 -25 -12 -25 -7 0 -23 -3 -35 -6
-20 -6 -23 -3 -23 25 0 29 2 31 35 31 31 0 35 -3 35 -25z m-116 -1 c13 -33 6
-44 -24 -44 -25 0 -30 4 -30 24 0 34 42 50 54 20z m222 -60 c-3 -9 -6 -22 -6
-30 0 -9 -11 -14 -34 -14 -30 0 -33 2 -29 24 5 24 18 32 57 35 13 1 16 -4 12
-15z m-108 -48 c-2 -2 -18 -6 -35 -9 -31 -6 -33 -5 -33 23 0 25 4 29 33 32 27
3 32 -1 35 -20 2 -13 2 -25 0 -26z m-108 25 c0 -5 3 -16 6 -24 7 -20 -35 -34
-47 -16 -17 27 -10 49 16 49 14 0 25 -4 25 -9z"/>
<path d="M120 783 c0 -5 20 -29 45 -53 37 -37 46 -41 60 -30 22 18 19 47 -7
64 -28 18 -98 32 -98 19z"/>
<path d="M50 583 c0 -18 89 -93 110 -93 29 0 28 54 -3 74 -28 19 -107 32 -107
19z"/>
<path d="M629 556 c-3 -3 -70 -14 -149 -26 -79 -12 -147 -23 -149 -26 -3 -3 1
-9 8 -14 35 -21 -16 -215 -83 -315 -25 -36 -40 -65 -35 -65 5 0 27 16 49 36
35 31 73 97 95 159 l6 20 16 -20 c12 -16 14 -41 10 -125 -2 -58 -2 -111 0
-117 9 -24 29 -13 98 57 38 39 66 70 62 70 -4 0 -25 -11 -47 -25 -22 -14 -44
-25 -49 -25 -5 0 -11 40 -13 89 l-3 89 35 6 c19 3 84 9 143 12 59 4 110 11
113 15 2 5 -8 15 -24 23 -24 12 -40 13 -118 1 -190 -28 -218 -29 -211 -10 4 9
7 21 7 26 0 5 16 9 35 9 33 0 165 16 213 26 12 2 22 8 22 13 0 17 -56 19 -135
5 -118 -21 -125 -20 -116 13 9 32 35 39 200 51 59 4 106 12 108 18 6 18 -73
45 -88 30z"/>
<path d="M214 448 c-5 -7 -25 -44 -44 -81 -19 -38 -54 -91 -77 -117 -24 -26
-43 -53 -43 -59 0 -23 33 -91 44 -91 7 0 26 39 43 88 17 48 45 127 63 175 30
84 35 114 14 85z"/>
<path d="M649 287 l-37 -41 -32 27 c-18 15 -43 27 -58 26 -26 0 -26 -1 -7 -12
11 -7 63 -56 116 -109 93 -95 97 -98 140 -98 24 1 58 7 74 14 28 13 28 14 10
21 -90 35 -146 62 -182 88 -24 17 -43 32 -43 34 0 2 26 15 58 29 l57 25 -24
20 c-13 10 -26 19 -30 18 -3 -1 -22 -19 -42 -42z"/>
</g>
</svg>
