<?xml version="1.0" standalone="no"?>
<!DOCTYPE svg PUBLIC "-//W3C//DTD SVG 20010904//EN"
 "http://www.w3.org/TR/2001/REC-SVG-20010904/DTD/svg10.dtd">
<svg version="1.0" xmlns="http://www.w3.org/2000/svg"
 width="96.000000pt" height="68.000000pt" viewBox="0 0 96.000000 68.000000"
 preserveAspectRatio="xMidYMid meet">
<metadata>
Created by potrace 1.16, written by Peter Selinger 2001-2019
</metadata>
<g transform="translate(0.000000,68.000000) scale(0.100000,-0.100000)"
fill="#000000" stroke="none">
<path d="M538 548 c-3 -71 -4 -73 -30 -76 -26 -3 -27 -2 -30 55 -3 54 -5 58
-30 61 -26 3 -26 2 -17 -35 15 -66 12 -91 -13 -96 -23 -4 -23 -4 0 -6 15 0 26
-9 29 -21 3 -11 12 -20 19 -20 8 0 14 9 14 20 0 16 7 20 30 20 20 0 30 -5 30
-15 0 -8 7 -15 15 -15 8 0 15 9 15 20 0 15 7 20 24 20 14 0 28 5 31 10 4 6 -5
10 -19 10 -29 0 -30 5 -15 70 9 38 8 46 -7 57 -35 26 -43 16 -46 -59z"/>
</g>
</svg>
