<?xml version="1.0" standalone="no"?>
<!DOCTYPE svg PUBLIC "-//W3C//DTD SVG 20010904//EN"
 "http://www.w3.org/TR/2001/REC-SVG-20010904/DTD/svg10.dtd">
<svg version="1.0" xmlns="http://www.w3.org/2000/svg"
 width="96.000000pt" height="68.000000pt" viewBox="0 0 96.000000 68.000000"
 preserveAspectRatio="xMidYMid meet">
<metadata>
Created by potrace 1.16, written by Peter Selinger 2001-2019
</metadata>
<g transform="translate(0.000000,68.000000) scale(0.100000,-0.100000)"
fill="#000000" stroke="none">
<path d="M291 581 c-16 -55 -81 -149 -145 -209 -30 -29 -53 -52 -50 -52 12 0
52 25 91 56 23 19 44 34 47 34 12 0 5 -166 -8 -224 -15 -63 -6 -106 21 -106 7
0 14 1 14 3 1 1 7 76 14 167 9 131 9 168 -1 180 -10 12 -4 27 38 84 l51 69
-23 19 c-31 25 -35 23 -49 -21z"/>
</g>
</svg>
