<?xml version="1.0" standalone="no"?>
<!DOCTYPE svg PUBLIC "-//W3C//DTD SVG 20010904//EN"
 "http://www.w3.org/TR/2001/REC-SVG-20010904/DTD/svg10.dtd">
<svg version="1.0" xmlns="http://www.w3.org/2000/svg"
 width="96.000000pt" height="68.000000pt" viewBox="0 0 96.000000 68.000000"
 preserveAspectRatio="xMidYMid meet">
<metadata>
Created by potrace 1.16, written by Peter Selinger 2001-2019
</metadata>
<g transform="translate(0.000000,68.000000) scale(0.100000,-0.100000)"
fill="#000000" stroke="none">
<path d="M588 623 c-2 -4 -2 -53 0 -108 4 -139 11 -148 128 -152 76 -3 92 -1
113 15 23 18 23 22 11 51 -15 37 -26 39 -36 9 -10 -33 -22 -38 -90 -38 -70 0
-94 17 -94 66 0 29 1 30 90 48 75 15 89 21 79 32 -15 18 -58 18 -79 -1 -9 -8
-31 -18 -49 -21 l-33 -7 7 52 c4 32 3 51 -3 51 -6 0 -17 3 -25 6 -8 3 -17 2
-19 -3z"/>
<path d="M290 598 c0 -38 -58 -127 -131 -202 -38 -39 -65 -72 -59 -74 13 -5
70 31 95 58 10 11 22 20 27 20 12 0 10 -171 -4 -229 -8 -38 -9 -57 0 -76 12
-26 36 -33 47 -14 12 19 25 342 14 355 -7 9 3 30 35 74 25 34 46 68 46 74 0
19 -22 36 -47 36 -17 0 -23 -6 -23 -22z"/>
<path d="M385 461 c0 -60 3 -113 7 -117 4 -3 39 15 78 41 40 25 70 49 67 51
-2 2 -25 -5 -51 -16 -25 -12 -50 -19 -55 -16 -5 3 -8 20 -6 38 2 32 4 33 59
42 31 5 56 13 56 18 0 11 -37 10 -77 -1 -31 -9 -32 -9 -35 27 -2 28 -8 38 -23
40 -19 3 -20 -3 -20 -107z"/>
<path d="M515 341 c-11 -35 -46 -72 -64 -66 -14 4 -16 -6 -16 -94 0 -94 8
-129 23 -104 4 6 49 14 101 18 91 7 95 7 113 -16 18 -24 19 -24 33 -5 11 14
15 46 15 112 0 92 0 92 -27 100 -16 4 -30 7 -33 7 -3 -1 -39 -4 -80 -7 l-75
-7 24 21 c13 11 31 25 40 30 14 9 14 11 1 20 -24 16 -48 12 -55 -9z m148 -97
c5 -30 5 -31 -98 -39 -98 -9 -89 -11 -93 19 -3 20 2 26 20 30 42 10 73 13 119
15 43 1 47 -1 52 -25z m4 -84 l-2 -31 -98 -5 -97 -5 0 30 c0 30 1 30 63 34
151 8 137 11 134 -23z"/>
</g>
</svg>
