<?xml version="1.0" standalone="no"?>
<!DOCTYPE svg PUBLIC "-//W3C//DTD SVG 20010904//EN"
 "http://www.w3.org/TR/2001/REC-SVG-20010904/DTD/svg10.dtd">
<svg version="1.0" xmlns="http://www.w3.org/2000/svg"
 width="90.000000pt" height="92.000000pt" viewBox="0 0 90.000000 92.000000"
 preserveAspectRatio="xMidYMid meet">
<metadata>
Created by potrace 1.16, written by Peter Selinger 2001-2019
</metadata>
<g transform="translate(0.000000,92.000000) scale(0.100000,-0.100000)"
fill="#000000" stroke="none">
<path d="M580 779 c-52 -10 -114 -18 -137 -18 -48 -1 -64 -16 -37 -35 16 -12
17 -19 6 -65 -7 -29 -26 -72 -42 -96 l-30 -44 21 -20 c19 -18 25 -19 48 -6 27
13 141 38 148 31 6 -6 -71 -99 -128 -155 -30 -29 -94 -80 -144 -113 -69 -47
-83 -60 -59 -55 98 19 249 127 329 236 17 22 34 41 39 41 9 0 0 -265 -11 -308
-6 -25 -9 -25 -88 -6 l-29 7 43 -45 c23 -25 48 -54 55 -64 13 -17 15 -17 40 0
15 9 31 28 36 42 6 14 10 118 10 230 l0 205 78 -6 c81 -6 109 2 99 29 -10 26
-47 34 -112 25 -33 -4 -62 -5 -65 -3 -3 3 -5 39 -5 80 l0 74 58 11 c56 11 74
30 41 43 -23 9 -58 6 -164 -15z m5 -96 c3 -27 7 -62 9 -79 l4 -31 -84 -15
c-47 -8 -87 -11 -90 -7 -3 5 9 36 26 70 29 57 30 62 15 79 -16 18 -15 19 17
23 96 12 96 12 103 -40z"/>
<path d="M200 707 c-27 -12 -66 -21 -98 -21 -43 0 -51 -3 -46 -16 17 -43 24
-72 33 -153 6 -48 13 -92 16 -97 10 -17 25 -11 25 9 0 17 10 20 75 26 71 7 75
8 69 30 -6 26 21 138 42 170 19 29 9 51 -28 64 -38 13 -33 14 -88 -12z m36
-99 c-11 -96 -15 -108 -45 -114 -14 -3 -33 -8 -43 -10 -14 -4 -17 6 -23 63 -4
37 -9 75 -11 84 -5 17 45 35 100 38 l29 1 -7 -62z"/>
</g>
</svg>
