<?xml version="1.0" standalone="no"?>
<!DOCTYPE svg PUBLIC "-//W3C//DTD SVG 20010904//EN"
 "http://www.w3.org/TR/2001/REC-SVG-20010904/DTD/svg10.dtd">
<svg version="1.0" xmlns="http://www.w3.org/2000/svg"
 width="96.000000pt" height="68.000000pt" viewBox="0 0 96.000000 68.000000"
 preserveAspectRatio="xMidYMid meet">
<metadata>
Created by potrace 1.16, written by Peter Selinger 2001-2019
</metadata>
<g transform="translate(0.000000,68.000000) scale(0.100000,-0.100000)"
fill="#000000" stroke="none">
<path d="M260 565 c0 -35 -44 -97 -110 -157 -39 -34 -66 -64 -61 -66 21 -7
109 49 161 102 30 31 58 56 61 56 4 0 14 -6 21 -13 62 -61 138 -92 138 -56 0
21 -59 66 -104 79 -32 9 -43 16 -39 27 6 16 -24 42 -49 43 -10 0 -18 -7 -18
-15z"/>
<path d="M615 530 c-16 -4 -50 -8 -75 -9 l-45 -1 1 -118 c1 -163 0 -155 29
-148 22 6 25 3 25 -19 0 -27 -15 -56 -63 -117 -33 -43 -22 -50 21 -13 26 22
72 101 86 148 13 42 26 0 26 -83 0 -80 2 -90 22 -104 43 -30 210 -15 207 18 0
6 -9 29 -18 51 l-19 40 -7 -37 c-6 -31 -13 -39 -41 -48 -19 -7 -52 -9 -74 -5
-39 7 -40 8 -40 48 0 23 4 57 9 74 6 20 6 35 0 38 -15 10 -10 25 7 25 9 0 23
-8 30 -17 7 -10 16 -14 21 -10 12 12 21 270 10 285 -10 13 -64 14 -112 2z m68
-45 c6 -36 -2 -41 -75 -48 l-68 -6 0 34 c0 36 5 40 70 47 45 6 68 -3 73 -27z
m5 -88 c3 -26 1 -27 -47 -29 -109 -4 -106 -4 -107 19 -1 24 10 28 96 36 51 5
55 3 58 -26z m2 -77 c0 -29 -2 -30 -42 -30 -24 0 -60 -3 -80 -6 -37 -6 -38 -6
-38 24 0 34 9 37 113 40 46 2 47 1 47 -28z"/>
<path d="M270 406 c-40 -9 -50 -14 -37 -19 23 -9 148 13 141 25 -7 10 -35 9
-104 -6z"/>
<path d="M405 280 c10 -110 0 -158 -31 -162 l-24 -3 26 -30 26 -30 19 24 c16
20 19 40 19 146 0 116 -1 123 -21 128 -20 5 -21 3 -14 -73z"/>
<path d="M220 339 c-14 -6 -34 -9 -45 -7 -19 4 -20 -2 -23 -81 -1 -47 -3 -101
-5 -118 -3 -49 16 -44 28 7 10 39 15 45 45 51 40 9 50 5 50 -21 0 -32 -11 -50
-31 -50 -27 0 -24 -17 7 -36 40 -27 47 -9 50 128 3 143 -4 155 -76 127z m40
-34 c0 -14 -6 -25 -12 -25 -7 0 -23 -3 -35 -6 -20 -5 -23 -2 -23 19 0 20 6 27
28 30 15 2 30 5 35 6 4 0 7 -10 7 -24z m3 -66 c6 -21 3 -23 -45 -33 -25 -6
-28 -3 -28 18 0 26 11 34 46 35 14 1 24 -7 27 -20z"/>
<path d="M335 290 c-9 -14 5 -120 16 -120 12 0 12 117 0 125 -5 3 -12 1 -16
-5z"/>
</g>
</svg>
