<?xml version="1.0" standalone="no"?>
<!DOCTYPE svg PUBLIC "-//W3C//DTD SVG 20010904//EN"
 "http://www.w3.org/TR/2001/REC-SVG-20010904/DTD/svg10.dtd">
<svg version="1.0" xmlns="http://www.w3.org/2000/svg"
 width="96.000000pt" height="68.000000pt" viewBox="0 0 96.000000 68.000000"
 preserveAspectRatio="xMidYMid meet">
<metadata>
Created by potrace 1.16, written by Peter Selinger 2001-2019
</metadata>
<g transform="translate(0.000000,68.000000) scale(0.100000,-0.100000)"
fill="#000000" stroke="none">
<path d="M690 310 c0 -16 -7 -20 -34 -20 -18 0 -54 -3 -80 -6 -42 -6 -46 -5
-46 15 0 15 -6 21 -21 21 -19 0 -21 -4 -15 -32 3 -17 7 -33 9 -34 1 -1 42 2
91 7 79 8 90 7 102 -8 12 -16 15 -16 24 -3 5 8 10 30 10 48 0 25 -4 32 -20 32
-13 0 -20 -7 -20 -20z"/>
</g>
</svg>
