<?xml version="1.0" standalone="no"?>
<!DOCTYPE svg PUBLIC "-//W3C//DTD SVG 20010904//EN"
 "http://www.w3.org/TR/2001/REC-SVG-20010904/DTD/svg10.dtd">
<svg version="1.0" xmlns="http://www.w3.org/2000/svg"
 width="96.000000pt" height="68.000000pt" viewBox="0 0 96.000000 68.000000"
 preserveAspectRatio="xMidYMid meet">
<metadata>
Created by potrace 1.16, written by Peter Selinger 2001-2019
</metadata>
<g transform="translate(0.000000,68.000000) scale(0.100000,-0.100000)"
fill="#000000" stroke="none">
<path d="M510 590 c0 -34 -46 -114 -100 -173 -46 -51 -49 -57 -32 -66 10 -5
24 -32 32 -61 8 -28 16 -53 19 -54 4 -2 51 2 106 9 55 7 111 12 124 11 18 -1
29 9 47 39 44 75 22 103 -69 86 -29 -5 -97 -13 -152 -17 l-100 -7 71 70 c40
38 75 79 78 91 4 12 12 22 18 22 6 0 46 -34 90 -76 l79 -75 52 3 c29 2 51 8
49 13 -1 6 -25 17 -52 27 -45 15 -156 83 -190 117 -8 8 -20 24 -25 35 -15 29
-45 33 -45 6z m157 -266 c-3 -20 -7 -38 -9 -39 -2 -1 -24 -5 -50 -8 l-48 -7 0
43 0 44 56 2 57 2 -6 -37z m-142 -19 c0 -39 -1 -40 -38 -43 -32 -3 -38 0 -47
23 -20 52 -9 65 55 62 28 -2 30 -5 30 -42z"/>
<path d="M606 325 c-13 -19 -13 -25 -3 -25 22 0 51 26 43 38 -11 18 -22 14
-40 -13z"/>
<path d="M464 314 c3 -9 6 -18 6 -20 0 -2 7 -4 15 -4 20 0 19 26 -1 34 -24 9
-27 8 -20 -10z"/>
<path d="M155 530 c-3 -4 0 -22 7 -40 14 -42 4 -234 -16 -311 -8 -31 -25 -73
-36 -93 -29 -47 -11 -46 33 3 21 23 39 58 48 90 8 31 18 51 27 51 8 0 28 12
46 27 l31 26 3 -78 c2 -43 -1 -82 -7 -88 -6 -6 -20 -6 -40 1 -41 14 -39 4 8
-42 43 -42 74 -43 87 -3 4 12 7 110 8 217 1 107 5 203 10 212 13 29 -32 43
-95 31 -29 -6 -64 -7 -80 -3 -16 5 -31 5 -34 0z m129 -26 c12 -4 16 -20 16
-56 0 -47 -1 -50 -22 -44 -13 3 -31 6 -40 6 -14 0 -18 9 -18 40 0 40 3 43 47
59 1 1 8 -2 17 -5z m-16 -145 c44 -19 40 -48 -11 -68 -20 -7 -40 -11 -43 -8
-7 7 7 99 15 94 3 -2 21 -10 39 -18z"/>
<path d="M518 433 c-41 -6 -34 -23 10 -23 56 0 112 11 106 21 -5 9 -64 10
-116 2z"/>
<path d="M575 210 c-16 -4 -56 -8 -89 -9 -49 -1 -57 -4 -52 -17 3 -9 6 -45 6
-80 0 -51 3 -66 17 -71 9 -4 19 -1 21 5 2 8 28 12 72 12 59 0 71 -3 84 -22 15
-21 16 -21 36 -3 18 17 20 28 18 104 l-3 86 -40 2 c-22 0 -53 -2 -70 -7z m65
-40 c0 -14 -12 -18 -61 -24 -89 -9 -95 -8 -96 13 -2 20 -1 21 107 34 35 4 50
-2 50 -23z m-2 -85 c-2 -2 -38 -6 -81 -10 l-79 -8 4 24 c3 22 10 25 78 34 74
10 75 10 78 -13 2 -13 2 -25 0 -27z"/>
</g>
</svg>
