<?xml version="1.0" standalone="no"?>
<!DOCTYPE svg PUBLIC "-//W3C//DTD SVG 20010904//EN"
 "http://www.w3.org/TR/2001/REC-SVG-20010904/DTD/svg10.dtd">
<svg version="1.0" xmlns="http://www.w3.org/2000/svg"
 width="96.000000pt" height="68.000000pt" viewBox="0 0 96.000000 68.000000"
 preserveAspectRatio="xMidYMid meet">
<metadata>
Created by potrace 1.16, written by Peter Selinger 2001-2019
</metadata>
<g transform="translate(0.000000,68.000000) scale(0.100000,-0.100000)"
fill="#000000" stroke="none">
<path d="M740 192 c0 -5 10 -18 23 -30 18 -17 26 -19 36 -9 10 9 11 9 6 -4 -8
-21 13 -35 28 -20 7 7 5 16 -8 31 -15 16 -21 18 -33 7 -12 -9 -14 -9 -9 0 5 7
-1 16 -12 22 -24 13 -31 14 -31 3z"/>
<path d="M587 183 c-10 -9 31 -46 42 -38 6 3 11 10 11 14 0 10 -46 31 -53 24z"/>
<path d="M419 159 c-1 -8 -1 -17 0 -21 0 -5 -3 -8 -8 -8 -11 0 -36 -59 -28
-67 3 -3 14 -3 23 1 11 4 15 14 12 31 -4 20 -3 23 8 14 11 -9 13 -5 10 20 -4
34 -15 54 -17 30z"/>
<path d="M710 117 c0 -7 6 -19 13 -26 6 -7 8 -12 2 -11 -20 4 -55 -13 -48 -23
4 -6 1 -7 -8 -1 -8 5 -29 10 -47 11 -18 1 -47 9 -63 17 -25 12 -29 13 -19 1
26 -32 210 -63 210 -36 0 6 8 7 17 4 12 -5 15 -2 10 10 -4 11 -2 14 9 10 31
-12 12 9 -21 23 -19 8 -35 19 -35 24 0 6 -4 10 -10 10 -5 0 -10 -6 -10 -13z"/>
</g>
</svg>
