<?xml version="1.0" standalone="no"?>
<!DOCTYPE svg PUBLIC "-//W3C//DTD SVG 20010904//EN"
 "http://www.w3.org/TR/2001/REC-SVG-20010904/DTD/svg10.dtd">
<svg version="1.0" xmlns="http://www.w3.org/2000/svg"
 width="96.000000pt" height="68.000000pt" viewBox="0 0 96.000000 68.000000"
 preserveAspectRatio="xMidYMid meet">
<metadata>
Created by potrace 1.16, written by Peter Selinger 2001-2019
</metadata>
<g transform="translate(0.000000,68.000000) scale(0.100000,-0.100000)"
fill="#000000" stroke="none">
<path d="M255 594 c5 -10 11 -56 13 -101 l3 -81 -75 -7 c-42 -4 -76 -11 -76
-16 0 -5 32 -9 71 -9 l70 0 -28 -52 c-15 -29 -53 -79 -83 -111 -31 -31 -51
-57 -46 -57 21 0 102 63 130 101 16 21 31 37 33 35 2 -1 -2 -49 -8 -106 -11
-106 -3 -156 24 -147 8 2 13 38 14 118 2 63 5 125 8 138 l6 24 31 -32 c37 -38
58 -40 58 -6 0 21 -7 27 -45 37 -39 11 -45 16 -45 40 0 24 5 28 38 33 55 10
64 14 56 26 -4 7 -23 9 -50 5 -51 -7 -51 -6 -33 89 12 65 5 78 -45 91 -26 6
-28 5 -21 -12z"/>
</g>
</svg>
