<?xml version="1.0" standalone="no"?>
<!DOCTYPE svg PUBLIC "-//W3C//DTD SVG 20010904//EN"
 "http://www.w3.org/TR/2001/REC-SVG-20010904/DTD/svg10.dtd">
<svg version="1.0" xmlns="http://www.w3.org/2000/svg"
 width="96.000000pt" height="68.000000pt" viewBox="0 0 96.000000 68.000000"
 preserveAspectRatio="xMidYMid meet">
<metadata>
Created by potrace 1.16, written by Peter Selinger 2001-2019
</metadata>
<g transform="translate(0.000000,68.000000) scale(0.100000,-0.100000)"
fill="#000000" stroke="none">
<path d="M279 532 c23 -43 82 -75 95 -53 15 24 -12 46 -82 66 -21 6 -23 5 -13
-13z"/>
<path d="M180 401 c0 -15 60 -61 81 -61 20 0 24 16 11 37 -15 23 -92 43 -92
24z"/>
<path d="M278 238 c-77 -78 -84 -91 -72 -122 13 -33 39 -15 76 52 20 37 49 86
63 110 14 23 23 42 18 41 -4 -1 -43 -37 -85 -81z"/>
</g>
</svg>
