<?xml version="1.0" standalone="no"?>
<!DOCTYPE svg PUBLIC "-//W3C//DTD SVG 20010904//EN"
 "http://www.w3.org/TR/2001/REC-SVG-20010904/DTD/svg10.dtd">
<svg version="1.0" xmlns="http://www.w3.org/2000/svg"
 width="96.000000pt" height="68.000000pt" viewBox="0 0 96.000000 68.000000"
 preserveAspectRatio="xMidYMid meet">
<metadata>
Created by potrace 1.16, written by Peter Selinger 2001-2019
</metadata>
<g transform="translate(0.000000,68.000000) scale(0.100000,-0.100000)"
fill="#000000" stroke="none">
<path d="M400 618 c-14 -85 -5 -150 15 -118 3 6 19 10 36 10 26 0 29 -3 29
-34 0 -47 -9 -66 -31 -66 -23 0 -25 -13 -4 -30 24 -20 47 9 62 80 13 60 11 65
-33 65 -54 0 -57 18 -5 28 55 11 54 31 0 22 -39 -7 -42 -6 -37 13 4 13 0 23
-9 26 -16 6 -23 7 -23 4z"/>
<path d="M278 560 c-14 -19 -31 -30 -46 -30 -18 0 -23 -4 -18 -15 3 -9 13 -42
21 -75 8 -33 18 -66 21 -75 5 -12 -3 -15 -42 -16 -27 0 -58 -4 -69 -9 -18 -7
-18 -8 8 -15 15 -4 52 -5 82 -1 51 5 55 4 55 -15 0 -24 -91 -117 -151 -155
-60 -37 -46 -39 22 -2 72 39 189 143 189 168 0 15 12 18 83 22 45 3 91 1 102
-4 11 -6 59 -48 106 -95 l86 -84 61 7 c34 3 60 10 57 14 -3 4 -33 18 -67 31
-64 24 -208 113 -208 129 0 5 48 11 108 12 98 3 105 4 82 17 -13 8 -46 13 -72
12 -58 -2 -59 4 -24 109 l24 71 -24 11 c-18 8 -34 8 -66 -2 l-43 -14 34 -5
c56 -9 51 -48 -7 -53 -43 -3 -41 -18 2 -18 27 0 34 -4 32 -17 -2 -13 -14 -19
-40 -21 -43 -4 -39 -22 5 -22 27 0 30 -3 23 -22 -3 -13 -7 -24 -8 -25 0 0 -66
-4 -146 -8 -80 -4 -149 -8 -155 -9 -5 0 -11 9 -13 20 -2 18 3 23 32 28 51 10
47 30 -4 21 -35 -6 -40 -4 -40 13 0 15 9 21 40 26 22 3 40 11 40 17 0 7 -12 8
-32 4 -52 -11 -53 -11 -53 10 0 14 12 24 42 35 53 19 59 26 43 45 -20 24 -47
18 -72 -15z"/>
<path d="M390 434 c-11 -26 -19 -49 -16 -51 7 -7 49 45 53 65 6 41 -16 32 -37
-14z"/>
<path d="M417 313 c-4 -4 -5 -21 -1 -38 6 -32 5 -32 -48 -42 l-53 -10 53 -2
c50 -1 52 -2 52 -30 0 -29 0 -29 -80 -36 -106 -9 -106 -28 0 -23 l80 3 0 -62
c0 -34 5 -65 10 -68 14 -9 30 38 30 89 0 42 1 44 38 50 20 3 62 6 92 6 51 1
54 2 35 16 -18 14 -57 14 -150 0 -5 0 -11 9 -13 21 -4 25 28 43 74 43 13 0 24
5 24 11 0 7 -17 10 -45 7 -43 -3 -45 -2 -45 24 0 32 -36 59 -53 41z"/>
</g>
</svg>
