<?xml version="1.0" standalone="no"?>
<!DOCTYPE svg PUBLIC "-//W3C//DTD SVG 20010904//EN"
 "http://www.w3.org/TR/2001/REC-SVG-20010904/DTD/svg10.dtd">
<svg version="1.0" xmlns="http://www.w3.org/2000/svg"
 width="90.000000pt" height="92.000000pt" viewBox="0 0 90.000000 92.000000"
 preserveAspectRatio="xMidYMid meet">
<metadata>
Created by potrace 1.16, written by Peter Selinger 2001-2019
</metadata>
<g transform="translate(0.000000,92.000000) scale(0.100000,-0.100000)"
fill="#000000" stroke="none">
<path d="M180 862 c0 -4 11 -24 25 -44 l25 -36 -73 -12 c-39 -6 -88 -15 -107
-19 l-35 -8 26 -12 c21 -10 41 -10 110 3 46 9 124 19 172 22 91 7 107 14 82
34 -18 15 -45 16 -106 6 -46 -8 -47 -8 -42 18 5 22 0 28 -31 41 -40 17 -46 18
-46 7z"/>
<path d="M557 717 c-53 -54 -61 -58 -91 -53 l-33 6 5 -109 c2 -60 -1 -147 -8
-192 -12 -83 -50 -205 -77 -246 -27 -42 6 -25 37 19 49 67 79 180 92 348 12
147 12 148 37 154 40 8 151 78 151 94 0 16 -29 42 -45 40 -5 -1 -36 -28 -68
-61z"/>
<path d="M305 705 c-16 -8 -39 -11 -49 -8 -15 4 -18 2 -12 -13 5 -11 10 -36
13 -56 5 -32 9 -37 27 -33 11 2 36 4 55 4 26 1 32 4 27 17 -3 8 1 29 10 46 15
30 15 32 -2 45 -22 16 -30 15 -69 -2z m25 -49 c0 -22 -16 -36 -41 -36 -10 0
-12 43 -2 53 3 4 15 7 25 7 12 0 18 -7 18 -24z"/>
<path d="M150 690 c-8 -5 -30 -10 -48 -10 -27 0 -32 -3 -28 -17 3 -10 8 -35
12 -56 5 -28 10 -36 23 -33 9 3 33 8 54 12 27 5 35 10 28 18 -7 8 -4 22 9 44
19 31 19 32 0 42 -23 12 -31 12 -50 0z m8 -47 c-2 -22 -8 -28 -28 -28 -31 0
-35 37 -5 47 34 10 36 9 33 -19z"/>
<path d="M517 588 c11 -45 6 -332 -8 -390 -11 -46 -1 -88 21 -88 5 0 28 25 52
55 23 30 46 55 50 55 4 0 12 -16 19 -35 18 -48 39 -46 39 4 0 41 -32 91 -72
112 -19 10 -19 9 -3 -22 17 -31 17 -33 -6 -50 -48 -37 -51 -30 -44 114 3 72 8
157 11 188 5 62 -9 89 -48 89 -17 0 -19 -4 -11 -32z"/>
<path d="M600 606 c0 -2 11 -26 24 -53 13 -26 49 -124 80 -218 71 -211 76
-219 124 -210 68 13 69 17 13 78 -69 77 -90 112 -145 247 -50 122 -70 160 -86
160 -6 0 -10 -2 -10 -4z"/>
<path d="M255 561 c5 -15 0 -21 -25 -26 -22 -5 -35 -3 -43 8 -14 17 -43 28
-51 20 -3 -3 -1 -14 5 -24 9 -17 6 -19 -26 -19 -46 0 -43 -24 3 -28 24 -2 32
-8 32 -23 0 -14 -7 -19 -29 -19 -17 0 -32 -4 -35 -9 -7 -10 16 -21 44 -21 17
0 35 -36 22 -44 -4 -2 -35 -7 -69 -11 -35 -4 -63 -11 -63 -16 0 -17 43 -26 80
-18 19 5 41 9 48 9 23 0 -18 -57 -86 -121 -68 -64 -63 -76 11 -29 56 35 63 28
52 -46 -4 -30 -2 -50 6 -60 11 -13 22 -6 76 48 35 34 63 66 63 70 0 4 -21 -6
-47 -23 l-48 -30 -6 53 c-5 46 -3 56 17 79 26 27 32 58 12 60 -30 3 82 18 139
18 67 1 88 15 57 38 -14 10 -33 12 -68 7 -43 -6 -48 -4 -43 11 4 9 7 19 7 21
0 2 12 4 28 4 15 0 34 4 42 10 11 7 8 11 -15 20 -15 6 -34 9 -42 6 -8 -3 -13
2 -13 14 0 15 9 21 40 26 22 4 43 10 46 15 7 12 -32 30 -52 22 -10 -4 -20 0
-26 10 -5 10 -18 17 -29 17 -15 0 -19 -5 -14 -19z m5 -69 c0 -17 -25 -32 -52
-32 -21 0 -28 5 -28 20 0 17 7 20 40 20 22 0 40 -4 40 -8z m-10 -81 c0 -11 -9
-21 -22 -25 -35 -9 -38 -8 -38 19 0 21 5 25 30 25 23 0 30 -5 30 -19z"/>
<path d="M304 312 c-21 -38 -24 -39 -59 -26 -17 7 -15 2 9 -27 88 -105 98
-113 110 -84 9 24 -3 43 -41 66 l-36 22 37 21 c40 23 45 40 18 55 -14 8 -21 3
-38 -27z"/>
</g>
</svg>
