<?xml version="1.0" standalone="no"?>
<!DOCTYPE svg PUBLIC "-//W3C//DTD SVG 20010904//EN"
 "http://www.w3.org/TR/2001/REC-SVG-20010904/DTD/svg10.dtd">
<svg version="1.0" xmlns="http://www.w3.org/2000/svg"
 width="96.000000pt" height="68.000000pt" viewBox="0 0 96.000000 68.000000"
 preserveAspectRatio="xMidYMid meet">
<metadata>
Created by potrace 1.16, written by Peter Selinger 2001-2019
</metadata>
<g transform="translate(0.000000,68.000000) scale(0.100000,-0.100000)"
fill="#000000" stroke="none">
<path d="M316 548 c-20 -67 -56 -122 -136 -204 -85 -88 -50 -85 61 6 l42 34
-7 -99 c-3 -55 -9 -122 -12 -150 -4 -37 -2 -55 10 -70 15 -19 17 -19 30 -2 20
25 34 321 16 342 -10 12 -7 23 16 59 16 25 32 42 36 40 5 -3 7 -2 6 3 -1 4 4
19 11 32 12 22 11 26 -9 43 -35 28 -47 22 -64 -34z"/>
<path d="M524 565 c-15 -33 -70 -88 -110 -111 -16 -10 -17 -13 -5 -28 10 -12
22 -15 44 -10 25 5 29 4 24 -11 -4 -9 -7 -22 -7 -28 0 -7 -10 -23 -22 -37 -41
-45 -51 -60 -40 -60 6 0 24 11 40 25 32 27 76 33 89 13 4 -7 9 -23 11 -36 3
-27 -28 -41 -96 -43 -26 -1 -60 -4 -76 -8 -26 -5 -28 -7 -12 -20 16 -13 32
-13 129 5 23 4 37 3 37 -4 0 -19 -53 -75 -99 -104 -36 -22 -41 -28 -22 -28 51
0 133 61 156 118 l14 32 115 0 c117 0 151 11 99 31 -26 10 -142 6 -185 -7 -13
-4 -16 2 -15 35 2 40 2 40 47 46 69 10 79 14 57 26 -16 10 -120 -1 -179 -17
-25 -7 -22 15 4 37 21 19 21 20 3 33 -17 12 -14 15 33 25 118 25 132 25 153 2
22 -23 35 -26 44 -11 13 22 -8 50 -57 74 -53 26 -77 27 -42 2 27 -20 16 -26
-66 -37 -103 -15 -109 -9 -48 49 48 46 51 51 36 66 -24 24 -35 20 -54 -19z"/>
<path d="M620 187 c0 -3 32 -32 70 -66 69 -59 100 -69 100 -31 0 9 -8 24 -18
33 -26 24 -152 76 -152 64z"/>
</g>
</svg>
