<?xml version="1.0" standalone="no"?>
<!DOCTYPE svg PUBLIC "-//W3C//DTD SVG 20010904//EN"
 "http://www.w3.org/TR/2001/REC-SVG-20010904/DTD/svg10.dtd">
<svg version="1.0" xmlns="http://www.w3.org/2000/svg"
 width="90.000000pt" height="92.000000pt" viewBox="0 0 90.000000 92.000000"
 preserveAspectRatio="xMidYMid meet">
<metadata>
Created by potrace 1.16, written by Peter Selinger 2001-2019
</metadata>
<g transform="translate(0.000000,92.000000) scale(0.100000,-0.100000)"
fill="#000000" stroke="none">
<path d="M176 803 c5 -21 9 -76 9 -123 l0 -85 -63 -11 c-34 -6 -66 -14 -70
-18 -14 -15 25 -27 71 -22 30 3 47 1 47 -6 0 -25 -74 -162 -121 -224 -27 -37
-47 -69 -44 -72 3 -3 22 8 43 25 32 26 60 62 130 169 10 16 11 5 6 -61 -3 -44
-10 -113 -15 -154 -12 -80 -6 -133 16 -151 26 -21 33 20 36 212 2 104 7 188
10 188 3 0 18 -13 32 -30 32 -35 43 -37 52 -9 8 25 -14 52 -56 69 -20 9 -29
19 -29 35 0 18 9 25 45 35 25 7 48 17 52 22 10 17 -20 29 -60 23 l-38 -5 6 52
c3 29 8 72 11 94 4 37 1 45 -22 63 -43 33 -58 28 -48 -16z"/>
<path d="M490 773 c0 -5 13 -30 29 -55 l30 -47 -27 -5 c-94 -18 -110 -18 -120
1 -10 17 -11 17 -18 -2 -4 -11 -15 -40 -26 -64 -10 -24 -16 -53 -12 -63 10
-33 38 -16 54 33 l15 46 115 17 c63 9 130 20 148 23 28 5 32 2 32 -16 0 -12
-7 -36 -16 -53 l-16 -31 36 22 c20 11 52 30 71 42 19 11 35 24 35 28 0 4 -18
18 -41 30 -41 24 -73 25 -161 5 -26 -6 -28 -4 -28 25 0 21 -7 35 -22 45 -30
19 -78 31 -78 19z"/>
<path d="M485 530 c3 -16 3 -49 0 -74 l-7 -44 -86 -8 -86 -7 25 -19 c19 -17
34 -19 77 -15 28 3 52 3 52 -1 0 -4 -9 -22 -20 -40 -11 -18 -20 -37 -20 -42 0
-5 23 -19 50 -31 28 -12 50 -25 50 -29 0 -14 -81 -69 -119 -81 -54 -17 -60
-29 -16 -29 37 0 103 27 166 67 27 17 27 17 100 -45 40 -34 77 -62 81 -62 18
0 20 33 6 64 -11 22 -35 42 -77 65 -34 18 -61 33 -61 34 0 1 14 29 30 61 17
32 30 67 30 77 0 17 9 19 85 19 70 0 85 3 85 16 0 23 -63 45 -108 38 -30 -5
-41 -2 -56 15 -25 28 -46 27 -46 -3 0 -20 -6 -24 -41 -30 -23 -4 -44 -4 -47
-1 -3 3 4 25 16 50 l21 44 -26 21 c-14 11 -34 20 -45 20 -16 0 -19 -5 -13 -30z
m125 -155 c0 -16 -35 -90 -52 -112 -8 -9 -19 -8 -51 4 -23 9 -43 17 -45 18 -2
2 7 23 19 48 23 48 21 47 112 55 9 1 17 -5 17 -13z"/>
</g>
</svg>
