<?xml version="1.0" standalone="no"?>
<!DOCTYPE svg PUBLIC "-//W3C//DTD SVG 20010904//EN"
 "http://www.w3.org/TR/2001/REC-SVG-20010904/DTD/svg10.dtd">
<svg version="1.0" xmlns="http://www.w3.org/2000/svg"
 width="96.000000pt" height="68.000000pt" viewBox="0 0 96.000000 68.000000"
 preserveAspectRatio="xMidYMid meet">
<metadata>
Created by potrace 1.16, written by Peter Selinger 2001-2019
</metadata>
<g transform="translate(0.000000,68.000000) scale(0.100000,-0.100000)"
fill="#000000" stroke="none">
<path d="M497 578 c-10 -87 -17 -94 -98 -102 -81 -8 -82 -23 0 -28 l54 -3 -44
-44 c-24 -24 -61 -55 -82 -69 -20 -14 -35 -27 -33 -30 13 -12 108 49 163 105
34 35 71 63 81 63 20 0 57 -26 146 -104 52 -45 61 -49 103 -47 79 3 81 15 8
39 -68 23 -200 104 -188 115 3 4 37 7 76 7 49 0 68 3 65 12 -7 21 -52 25 -136
13 -45 -6 -82 -9 -82 -6 0 3 8 25 17 49 16 43 16 45 -2 58 -31 23 -42 16 -48
-28z"/>
</g>
</svg>
