<?xml version="1.0" standalone="no"?>
<!DOCTYPE svg PUBLIC "-//W3C//DTD SVG 20010904//EN"
 "http://www.w3.org/TR/2001/REC-SVG-20010904/DTD/svg10.dtd">
<svg version="1.0" xmlns="http://www.w3.org/2000/svg"
 width="90.000000pt" height="92.000000pt" viewBox="0 0 90.000000 92.000000"
 preserveAspectRatio="xMidYMid meet">
<metadata>
Created by potrace 1.16, written by Peter Selinger 2001-2019
</metadata>
<g transform="translate(0.000000,92.000000) scale(0.100000,-0.100000)"
fill="#000000" stroke="none">
<path d="M155 833 c16 -40 35 -303 23 -303 -2 0 -41 -7 -88 -15 -47 -8 -86
-15 -87 -15 -2 0 -3 -6 -3 -14 0 -22 41 -26 103 -10 32 8 61 13 65 10 9 -5 -3
-206 -18 -292 -8 -50 -7 -68 5 -98 8 -20 19 -36 24 -36 23 0 31 61 31 244 0
192 0 194 23 200 12 3 34 6 49 6 15 0 30 5 33 10 9 14 -35 28 -71 23 l-32 -5
5 94 c3 51 9 111 14 133 8 36 6 42 -17 63 -31 27 -70 31 -59 5z"/>
<path d="M575 840 c-3 -5 -1 -19 5 -30 6 -11 10 -56 8 -103 -3 -81 -3 -82 -30
-85 -32 -4 -32 -3 -16 34 11 23 10 28 -7 40 -28 21 -45 17 -45 -10 0 -13 -9
-53 -20 -87 -10 -35 -17 -66 -14 -69 3 -2 18 10 32 28 22 26 34 32 64 32 31 0
39 -4 44 -24 13 -52 4 -60 -81 -73 -44 -6 -82 -12 -85 -13 -3 0 7 -7 21 -15
23 -13 37 -13 104 0 42 8 116 18 163 21 106 7 132 11 132 24 0 25 -46 31 -128
17 l-82 -14 0 42 c0 42 1 43 38 49 68 13 74 16 61 33 -10 11 -24 13 -57 8
l-45 -7 6 69 c4 37 9 78 13 91 5 18 1 24 -30 37 -42 18 -43 18 -51 5z"/>
<path d="M285 687 c-9 -23 -24 -50 -32 -59 -9 -10 -13 -18 -9 -18 12 0 116 62
116 69 0 8 -26 33 -46 44 -7 4 -18 -10 -29 -36z"/>
<path d="M40 662 c0 -4 12 -24 26 -45 30 -44 57 -46 62 -4 3 23 -2 30 -32 42
-39 17 -56 19 -56 7z"/>
<path d="M330 599 c0 -24 42 -80 59 -77 23 4 25 41 4 60 -25 22 -63 32 -63 17z"/>
<path d="M335 446 c-44 -21 -47 -24 -27 -30 12 -4 26 -4 32 -1 20 12 28 -5 18
-39 -9 -29 -8 -38 11 -64 42 -59 24 -91 -51 -92 -33 0 -35 -10 -8 -35 16 -15
22 -16 35 -5 25 21 100 5 237 -50 96 -38 135 -49 155 -44 40 10 157 64 151 69
-3 3 -70 9 -149 15 -87 6 -179 19 -234 33 l-90 23 3 32 c3 23 -3 38 -23 58
l-26 26 30 39 c36 44 38 57 14 75 -22 16 -18 17 -78 -10z"/>
<path d="M100 405 c-7 -25 -32 -80 -56 -122 -24 -42 -44 -81 -44 -87 0 -26 84
76 120 145 37 71 39 79 24 93 -24 24 -30 20 -44 -29z"/>
<path d="M240 419 c0 -21 44 -92 55 -91 24 4 9 55 -22 80 -23 16 -33 20 -33
11z"/>
<path d="M620 414 c-25 -7 -67 -13 -94 -13 -47 -1 -48 -2 -33 -19 9 -10 22
-42 28 -72 17 -73 23 -80 62 -69 18 5 51 9 74 9 55 0 77 9 63 25 -10 12 3 70
21 90 15 16 10 44 -10 55 -24 12 -53 11 -111 -6z m54 -76 c-7 -50 -16 -58 -66
-58 -42 0 -43 1 -52 52 -7 41 -2 44 81 47 l42 1 -5 -42z"/>
</g>
</svg>
