<?xml version="1.0" standalone="no"?>
<!DOCTYPE svg PUBLIC "-//W3C//DTD SVG 20010904//EN"
 "http://www.w3.org/TR/2001/REC-SVG-20010904/DTD/svg10.dtd">
<svg version="1.0" xmlns="http://www.w3.org/2000/svg"
 width="96.000000pt" height="68.000000pt" viewBox="0 0 96.000000 68.000000"
 preserveAspectRatio="xMidYMid meet">
<metadata>
Created by potrace 1.16, written by Peter Selinger 2001-2019
</metadata>
<g transform="translate(0.000000,68.000000) scale(0.100000,-0.100000)"
fill="#000000" stroke="none">
<path d="M240 366 c0 -10 -19 -16 -62 -21 -81 -8 -100 -14 -92 -27 7 -11 104
-5 139 8 17 7 18 2 12 -72 -4 -43 -9 -106 -13 -139 -4 -45 -2 -65 9 -80 9 -11
19 -16 24 -12 4 5 10 77 13 160 l5 152 43 3 c23 2 42 7 42 12 0 13 -30 21 -56
14 -14 -4 -24 -2 -24 5 0 6 -9 11 -20 11 -11 0 -20 -6 -20 -14z"/>
<path d="M180 282 c0 -19 -55 -119 -84 -151 l-21 -24 33 17 c32 16 112 125
112 151 0 7 -9 15 -20 18 -14 3 -20 0 -20 -11z"/>
<path d="M311 245 c26 -44 35 -50 44 -27 4 11 -2 24 -20 39 -38 33 -47 28 -24
-12z"/>
</g>
</svg>
