<?xml version="1.0" standalone="no"?>
<!DOCTYPE svg PUBLIC "-//W3C//DTD SVG 20010904//EN"
 "http://www.w3.org/TR/2001/REC-SVG-20010904/DTD/svg10.dtd">
<svg version="1.0" xmlns="http://www.w3.org/2000/svg"
 width="96.000000pt" height="68.000000pt" viewBox="0 0 96.000000 68.000000"
 preserveAspectRatio="xMidYMid meet">
<metadata>
Created by potrace 1.16, written by Peter Selinger 2001-2019
</metadata>
<g transform="translate(0.000000,68.000000) scale(0.100000,-0.100000)"
fill="#000000" stroke="none">
<path d="M596 179 c-7 -69 -8 -70 -34 -67 -15 2 -28 10 -29 18 -14 110 -14
110 -34 110 -16 0 -18 -4 -11 -17 5 -10 12 -39 16 -64 l7 -46 -47 -7 c-26 -3
-71 -6 -100 -6 -30 0 -54 -4 -54 -9 0 -17 55 -21 155 -11 55 5 162 10 238 10
75 0 137 4 137 9 0 20 -60 29 -141 22 -46 -5 -87 -6 -90 -5 -4 2 4 30 16 61
25 61 24 73 -4 73 -15 0 -20 -12 -25 -71z"/>
</g>
</svg>
