<?xml version="1.0" standalone="no"?>
<!DOCTYPE svg PUBLIC "-//W3C//DTD SVG 20010904//EN"
 "http://www.w3.org/TR/2001/REC-SVG-20010904/DTD/svg10.dtd">
<svg version="1.0" xmlns="http://www.w3.org/2000/svg"
 width="96.000000pt" height="68.000000pt" viewBox="0 0 96.000000 68.000000"
 preserveAspectRatio="xMidYMid meet">
<metadata>
Created by potrace 1.16, written by Peter Selinger 2001-2019
</metadata>
<g transform="translate(0.000000,68.000000) scale(0.100000,-0.100000)"
fill="#000000" stroke="none">
<path d="M605 519 c-22 -33 -177 -152 -214 -164 -23 -7 -23 -7 -4 -27 20 -19
20 -19 84 1 35 11 92 25 127 32 62 12 62 11 88 -16 19 -21 28 -25 34 -15 13
20 -1 49 -34 74 -54 40 -85 43 -50 5 14 -16 14 -18 -3 -22 -33 -10 -175 -29
-179 -24 -3 3 41 33 97 68 57 35 107 67 113 71 6 4 3 14 -8 27 -25 27 -27 27
-51 -10z"/>
</g>
</svg>
