<?xml version="1.0" standalone="no"?>
<!DOCTYPE svg PUBLIC "-//W3C//DTD SVG 20010904//EN"
 "http://www.w3.org/TR/2001/REC-SVG-20010904/DTD/svg10.dtd">
<svg version="1.0" xmlns="http://www.w3.org/2000/svg"
 width="96.000000pt" height="68.000000pt" viewBox="0 0 96.000000 68.000000"
 preserveAspectRatio="xMidYMid meet">
<metadata>
Created by potrace 1.16, written by Peter Selinger 2001-2019
</metadata>
<g transform="translate(0.000000,68.000000) scale(0.100000,-0.100000)"
fill="#000000" stroke="none">
<path d="M575 503 l0 -78 -90 -11 c-49 -6 -84 -12 -77 -13 7 0 17 -13 23 -28
19 -52 -24 -230 -70 -289 -26 -33 -19 -45 10 -18 49 44 90 144 104 249 10 79
14 85 45 85 28 0 40 -15 40 -51 0 -14 -9 -21 -30 -25 -34 -7 -30 -24 6 -24 13
0 24 -5 24 -11 0 -25 36 -38 107 -39 70 0 96 11 76 31 -6 6 -28 6 -59 -1 -55
-13 -94 -6 -94 15 0 9 20 18 61 26 72 14 61 33 -15 23 -48 -6 -49 -6 -43 17 4
13 7 29 7 35 0 12 116 28 132 18 5 -3 4 -12 -3 -20 -18 -22 -6 -26 32 -11 19
8 43 17 54 21 18 7 18 9 -10 24 -27 14 -90 18 -160 9 -15 -1 -21 5 -23 25 -3
25 -1 27 53 33 30 4 57 11 60 15 9 14 -23 19 -57 9 -49 -14 -53 -12 -53 24 0
27 -4 32 -25 35 -25 3 -25 2 -25 -75z"/>
<path d="M220 545 c0 -3 12 -24 27 -46 19 -29 32 -39 47 -37 32 5 32 42 0 67
-24 19 -74 29 -74 16z"/>
<path d="M231 439 c-68 -10 -127 -21 -130 -25 -10 -10 24 -24 61 -24 20 0 67
6 105 14 37 8 89 17 115 20 35 5 46 11 41 22 -7 18 -35 17 -192 -7z"/>
<path d="M263 356 c-78 -17 -78 -30 0 -23 76 7 97 15 76 28 -8 5 -16 8 -19 7
-3 0 -28 -6 -57 -12z"/>
<path d="M245 283 c-16 -3 -34 -9 -40 -15 -13 -14 126 -1 140 13 9 9 -40 10
-100 2z"/>
<path d="M275 210 c-11 -5 -39 -9 -62 -9 l-42 -1 15 -27 c7 -16 14 -37 14 -49
0 -21 29 -68 30 -47 0 6 26 14 59 18 43 5 58 10 55 20 -3 7 2 28 11 45 9 17
14 38 11 46 -6 16 -59 18 -91 4z m35 -49 c0 -40 -11 -51 -51 -51 -12 0 -21 9
-25 25 -9 36 1 53 33 58 15 2 31 5 36 6 4 0 7 -17 7 -38z"/>
<path d="M630 210 c-14 -4 -43 -8 -65 -9 -41 -1 -41 -1 -37 -36 l4 -35 -41 0
c-26 0 -40 -4 -36 -10 3 -5 21 -10 40 -10 32 0 34 -2 37 -37 3 -37 4 -38 38
-36 19 2 79 4 133 5 53 1 97 5 97 9 0 24 -34 30 -135 23 l-105 -7 3 24 c4 23
7 24 132 31 125 7 145 11 132 25 -10 9 -56 9 -164 0 -88 -7 -93 -7 -93 11 0
16 10 21 63 26 87 10 117 17 117 27 0 11 -85 10 -120 -1z"/>
</g>
</svg>
