<?xml version="1.0" standalone="no"?>
<!DOCTYPE svg PUBLIC "-//W3C//DTD SVG 20010904//EN"
 "http://www.w3.org/TR/2001/REC-SVG-20010904/DTD/svg10.dtd">
<svg version="1.0" xmlns="http://www.w3.org/2000/svg"
 width="96.000000pt" height="68.000000pt" viewBox="0 0 96.000000 68.000000"
 preserveAspectRatio="xMidYMid meet">
<metadata>
Created by potrace 1.16, written by Peter Selinger 2001-2019
</metadata>
<g transform="translate(0.000000,68.000000) scale(0.100000,-0.100000)"
fill="#000000" stroke="none">
<path d="M230 539 c0 -21 42 -69 60 -69 44 0 34 41 -15 64 -39 19 -45 20 -45
5z"/>
<path d="M243 437 c-73 -11 -133 -24 -133 -28 0 -19 66 -18 160 0 56 12 113
21 126 21 13 0 24 5 24 10 0 6 -4 10 -9 10 -5 0 -15 2 -23 4 -7 2 -73 -6 -145
-17z"/>
</g>
</svg>
