<?xml version="1.0" standalone="no"?>
<!DOCTYPE svg PUBLIC "-//W3C//DTD SVG 20010904//EN"
 "http://www.w3.org/TR/2001/REC-SVG-20010904/DTD/svg10.dtd">
<svg version="1.0" xmlns="http://www.w3.org/2000/svg"
 width="96.000000pt" height="68.000000pt" viewBox="0 0 96.000000 68.000000"
 preserveAspectRatio="xMidYMid meet">
<metadata>
Created by potrace 1.16, written by Peter Selinger 2001-2019
</metadata>
<g transform="translate(0.000000,68.000000) scale(0.100000,-0.100000)"
fill="#000000" stroke="none">
<path d="M360 576 c0 -8 5 -18 10 -21 23 -14 7 -24 -47 -30 -32 -4 -65 -11
-73 -16 -31 -16 20 -21 112 -10 51 6 93 9 95 8 1 -2 -5 -13 -13 -26 -15 -20
-22 -22 -61 -16 -31 4 -43 3 -38 -4 3 -6 13 -11 21 -11 25 0 15 -16 -21 -35
-50 -27 -35 -30 23 -5 48 21 51 21 77 4 20 -13 29 -14 38 -5 9 9 7 16 -13 31
l-24 18 27 13 c29 13 34 24 15 32 -7 3 1 6 17 6 17 1 36 5 44 10 23 15 -26 34
-70 28 -31 -4 -39 -1 -44 13 -9 28 -75 42 -75 16z"/>
<path d="M726 563 c5 -10 10 -112 12 -228 3 -175 1 -213 -12 -230 -13 -17 -18
-18 -35 -8 -44 27 -43 11 1 -32 26 -25 51 -45 57 -45 23 0 29 44 34 250 3 118
11 228 17 244 14 37 -10 66 -53 66 -24 0 -28 -3 -21 -17z"/>
<path d="M604 428 c4 -12 9 -62 13 -110 4 -65 10 -88 20 -88 11 0 13 21 11
108 -3 104 -4 107 -27 110 -21 3 -23 1 -17 -20z"/>
<path d="M459 389 c-33 -9 -188 -29 -227 -29 -34 0 -43 -14 -16 -24 14 -5 16
-17 11 -69 -7 -71 -35 -145 -73 -190 -36 -42 -20 -47 22 -6 45 43 70 97 85
185 7 38 15 72 19 76 5 7 76 18 223 33 31 4 55 10 52 15 -7 11 -68 17 -96 9z"/>
<path d="M398 300 c4 -35 1 -40 -16 -40 -11 0 -22 8 -25 20 -9 34 -31 22 -54
-30 -24 -55 -23 -60 10 -30 15 15 32 20 57 18 30 -3 35 -7 35 -28 0 -21 -6
-26 -35 -31 l-35 -6 38 -2 c36 -1 38 -3 35 -28 -3 -27 -6 -28 -82 -38 -69 -9
-77 -12 -63 -24 14 -11 30 -11 104 3 49 8 116 18 151 22 89 10 92 27 3 22
l-71 -4 0 28 c0 25 3 28 35 28 19 0 35 5 35 10 0 6 -16 10 -36 10 -31 0 -35 3
-32 22 2 14 11 24 23 26 50 7 65 13 59 23 -4 6 -22 8 -46 4 -38 -7 -41 -6 -35
14 6 24 -16 51 -41 51 -14 0 -17 -7 -14 -40z"/>
</g>
</svg>
