<?xml version="1.0" standalone="no"?>
<!DOCTYPE svg PUBLIC "-//W3C//DTD SVG 20010904//EN"
 "http://www.w3.org/TR/2001/REC-SVG-20010904/DTD/svg10.dtd">
<svg version="1.0" xmlns="http://www.w3.org/2000/svg"
 width="96.000000pt" height="68.000000pt" viewBox="0 0 96.000000 68.000000"
 preserveAspectRatio="xMidYMid meet">
<metadata>
Created by potrace 1.16, written by Peter Selinger 2001-2019
</metadata>
<g transform="translate(0.000000,68.000000) scale(0.100000,-0.100000)"
fill="#000000" stroke="none">
<path d="M516 612 c-3 -5 6 -20 20 -35 13 -14 24 -28 24 -31 0 -4 -34 -10
-128 -22 -38 -4 -51 -9 -43 -17 7 -7 42 -7 118 1 60 6 147 14 196 18 76 6 86
8 75 22 -10 12 -28 13 -90 9 -61 -5 -78 -3 -78 7 0 28 -81 69 -94 48z"/>
<path d="M225 548 c4 -13 9 -51 12 -85 l5 -62 -33 -5 c-19 -3 -45 -7 -59 -8
-46 -5 -21 -23 35 -26 l56 -3 -3 -56 -3 -56 -69 -23 c-83 -28 -87 -32 -62 -50
22 -16 67 -19 82 -5 5 4 49 30 99 56 127 67 152 94 55 60 -23 -8 -44 -15 -46
-15 -2 0 -4 22 -4 49 0 53 -1 52 67 66 41 8 49 21 23 35 -16 8 -30 8 -52 1
-17 -6 -33 -9 -36 -7 -2 3 1 33 7 68 13 72 3 88 -52 88 -26 0 -28 -3 -22 -22z"/>
<path d="M595 480 c-27 -5 -77 -9 -110 -9 -33 -1 -55 -5 -48 -9 6 -4 21 -28
31 -53 l20 -46 54 8 c29 4 74 11 101 14 26 3 47 11 47 16 0 6 11 21 25 34 l26
23 -23 16 c-24 17 -44 18 -123 6z m71 -36 c-3 -9 -6 -19 -6 -24 0 -12 -140
-34 -150 -24 -5 5 -10 18 -12 29 -4 23 26 32 116 34 49 1 57 -1 52 -15z"/>
<path d="M615 344 c-27 -7 -76 -16 -107 -20 -32 -4 -58 -11 -58 -17 0 -9 50
-7 160 9 l45 6 -30 -30 c-16 -16 -38 -28 -47 -26 -19 3 -24 -11 -8 -21 6 -3
10 -12 10 -20 0 -10 -28 -15 -110 -20 -107 -7 -136 -18 -84 -31 24 -6 53 -4
152 12 l42 7 0 -44 c0 -63 -11 -77 -50 -62 -16 6 -30 9 -30 6 0 -8 73 -73 82
-73 20 0 38 49 38 106 l0 62 116 7 c106 6 115 8 100 23 -18 18 -61 20 -152 8
-53 -7 -62 -6 -68 9 -9 25 -3 30 64 55 33 12 60 26 60 29 0 6 -67 43 -73 40
-1 0 -24 -7 -52 -15z"/>
</g>
</svg>
