<?xml version="1.0" standalone="no"?>
<!DOCTYPE svg PUBLIC "-//W3C//DTD SVG 20010904//EN"
 "http://www.w3.org/TR/2001/REC-SVG-20010904/DTD/svg10.dtd">
<svg version="1.0" xmlns="http://www.w3.org/2000/svg"
 width="96.000000pt" height="68.000000pt" viewBox="0 0 96.000000 68.000000"
 preserveAspectRatio="xMidYMid meet">
<metadata>
Created by potrace 1.16, written by Peter Selinger 2001-2019
</metadata>
<g transform="translate(0.000000,68.000000) scale(0.100000,-0.100000)"
fill="#000000" stroke="none">
<path d="M510 612 c0 -5 11 -19 25 -32 14 -13 25 -27 25 -31 0 -7 -33 -14
-134 -25 -48 -5 -55 -9 -40 -17 13 -7 52 -7 129 1 60 7 147 15 193 18 45 4 82
10 82 14 0 17 -58 28 -101 19 -67 -13 -76 -11 -83 15 -7 30 -96 65 -96 38z"/>
</g>
</svg>
