<?xml version="1.0" standalone="no"?>
<!DOCTYPE svg PUBLIC "-//W3C//DTD SVG 20010904//EN"
 "http://www.w3.org/TR/2001/REC-SVG-20010904/DTD/svg10.dtd">
<svg version="1.0" xmlns="http://www.w3.org/2000/svg"
 width="96.000000pt" height="68.000000pt" viewBox="0 0 96.000000 68.000000"
 preserveAspectRatio="xMidYMid meet">
<metadata>
Created by potrace 1.16, written by Peter Selinger 2001-2019
</metadata>
<g transform="translate(0.000000,68.000000) scale(0.100000,-0.100000)"
fill="#000000" stroke="none">
<path d="M610 469 c-25 -5 -91 -10 -147 -12 l-102 -2 -15 -33 c-18 -37 -21
-72 -7 -72 14 0 41 41 41 61 0 12 13 18 58 22 31 3 103 11 160 17 57 7 105 10
108 8 2 -3 -6 -15 -18 -27 l-21 -23 54 7 c69 9 81 20 50 46 -25 21 -82 24
-161 8z"/>
</g>
</svg>
