<?xml version="1.0" standalone="no"?>
<!DOCTYPE svg PUBLIC "-//W3C//DTD SVG 20010904//EN"
 "http://www.w3.org/TR/2001/REC-SVG-20010904/DTD/svg10.dtd">
<svg version="1.0" xmlns="http://www.w3.org/2000/svg"
 width="90.000000pt" height="92.000000pt" viewBox="0 0 90.000000 92.000000"
 preserveAspectRatio="xMidYMid meet">
<metadata>
Created by potrace 1.16, written by Peter Selinger 2001-2019
</metadata>
<g transform="translate(0.000000,92.000000) scale(0.100000,-0.100000)"
fill="#000000" stroke="none">
<path d="M190 814 c0 -5 11 -28 24 -51 l24 -42 -56 -7 c-74 -8 -96 -19 -64
-31 16 -6 31 -28 46 -66 l23 -56 -56 -11 c-84 -17 -91 -20 -57 -35 23 -10 38
-10 74 1 25 8 47 12 49 10 7 -7 -98 -81 -147 -105 l-45 -21 39 5 c22 2 64 16
93 31 30 14 57 23 60 20 12 -11 -32 -60 -99 -111 -37 -27 -65 -51 -63 -53 9
-9 116 49 154 84 33 29 44 35 51 24 13 -21 -44 -93 -127 -158 -40 -31 -68 -58
-63 -60 18 -6 126 58 165 97 21 23 42 41 47 41 11 0 1 -102 -13 -133 -14 -32
-32 -39 -64 -27 -36 14 -31 0 15 -45 l40 -39 25 24 c14 13 29 40 35 59 12 45
13 136 1 179 l-10 32 48 -40 c48 -41 81 -51 81 -26 0 25 -40 64 -78 76 -55 18
-57 25 -12 45 60 27 70 43 41 66 -24 20 -24 20 -41 -8 -9 -16 -26 -36 -37 -46
-20 -17 -21 -17 -52 14 -34 33 -33 34 12 60 10 5 15 14 12 18 -7 12 31 21 90
21 68 0 86 12 51 35 -25 17 -53 17 -101 -1 -20 -7 -20 -7 1 17 40 47 54 75 41
88 -8 8 -2 14 21 22 18 6 29 15 26 21 -13 20 -50 25 -88 12 -21 -8 -39 -14
-41 -14 -1 0 0 13 3 28 2 16 -2 33 -10 39 -18 15 -68 27 -68 17z m104 -150
c-16 -89 -65 -127 -78 -62 -3 17 -14 40 -22 50 -19 20 -13 24 41 31 64 8 64 9
59 -19z"/>
<path d="M560 770 c-28 -11 -58 -16 -80 -13 -29 5 -33 3 -22 -8 16 -17 16
-149 0 -186 -6 -15 -21 -38 -32 -50 -23 -27 -16 -29 24 -8 41 21 59 62 66 149
7 72 7 74 37 80 66 13 66 14 60 -73 -5 -71 -4 -80 16 -100 33 -33 161 -29 161
5 0 25 -37 36 -80 24 -22 -6 -45 -8 -50 -5 -16 10 -12 61 10 117 l20 53 -21
18 c-26 21 -50 20 -109 -3z"/>
<path d="M586 479 c-27 -11 -75 -22 -107 -26 -33 -3 -59 -10 -59 -15 0 -5 15
-21 33 -37 17 -16 47 -49 65 -74 l32 -45 -35 -34 c-35 -33 -129 -87 -152 -88
-7 0 -13 -4 -13 -10 0 -25 112 9 181 55 l52 36 16 -23 c8 -13 33 -42 54 -65
36 -39 44 -43 89 -43 85 0 172 31 126 44 -79 23 -172 63 -210 91 l-47 34 40
78 c22 43 44 82 50 87 15 16 11 25 -21 41 -35 18 -32 18 -94 -6z m24 -47 c0
-27 -31 -112 -40 -112 -9 0 -70 79 -70 90 0 6 81 36 103 39 4 1 7 -7 7 -17z"/>
</g>
</svg>
