<?xml version="1.0" standalone="no"?>
<!DOCTYPE svg PUBLIC "-//W3C//DTD SVG 20010904//EN"
 "http://www.w3.org/TR/2001/REC-SVG-20010904/DTD/svg10.dtd">
<svg version="1.0" xmlns="http://www.w3.org/2000/svg"
 width="90.000000pt" height="92.000000pt" viewBox="0 0 90.000000 92.000000"
 preserveAspectRatio="xMidYMid meet">
<metadata>
Created by potrace 1.16, written by Peter Selinger 2001-2019
</metadata>
<g transform="translate(0.000000,92.000000) scale(0.100000,-0.100000)"
fill="#000000" stroke="none">
<path d="M566 848 c-4 -18 -19 -55 -34 -83 -24 -44 -31 -50 -59 -51 -40 0 -50
-9 -33 -29 10 -12 11 -47 7 -143 -3 -70 -9 -136 -12 -147 -3 -11 0 -28 7 -37
12 -17 16 -17 63 -2 28 8 97 18 154 21 l104 6 -6 -91 c-5 -89 -14 -120 -44
-154 -14 -15 -19 -16 -49 -3 -19 8 -34 11 -34 8 0 -11 62 -103 70 -103 15 0
61 43 75 71 9 16 22 77 30 135 9 58 20 114 25 125 9 15 5 21 -19 34 -37 19
-89 19 -215 0 -124 -19 -116 -19 -116 8 0 22 6 24 97 35 104 13 116 18 93 33
-14 9 -48 8 -149 -7 -42 -7 -43 -6 -36 17 4 13 8 25 9 26 1 1 33 7 71 13 53 9
75 8 92 -1 13 -7 25 -10 27 -8 2 2 20 46 41 97 35 90 36 94 18 108 -31 24 -60
27 -110 11 -26 -8 -61 -18 -78 -22 -29 -6 -28 -5 20 47 26 29 55 59 64 66 14
12 14 15 -8 33 -35 29 -58 25 -65 -13z m114 -170 c0 -33 -1 -33 -47 -33 -27 0
-69 -4 -95 -9 -45 -8 -48 -7 -48 13 0 25 10 30 94 46 95 19 96 19 96 -17z
m-10 -60 c-1 -43 -11 -53 -53 -53 -23 0 -61 -3 -84 -8 -41 -7 -43 -6 -43 16 0
22 7 25 83 39 45 9 85 16 90 17 4 1 7 -5 7 -11z"/>
<path d="M230 708 c-50 -11 -105 -17 -132 -14 -27 3 -48 2 -48 -2 0 -4 6 -25
14 -47 8 -22 17 -74 21 -115 9 -89 21 -119 38 -97 7 8 24 17 40 19 26 5 27 4
27 -45 0 -28 -5 -90 -11 -139 -9 -68 -9 -94 1 -118 7 -16 16 -30 20 -30 17 0
24 42 28 187 l4 152 30 7 c18 3 33 2 37 -4 15 -24 34 11 62 114 16 60 29 112
29 116 0 9 -55 39 -67 37 -4 -1 -46 -10 -93 -21z m90 -32 c0 -7 -3 -27 -6 -44
-6 -27 -10 -30 -40 -29 -30 2 -34 5 -34 29 0 15 -5 30 -11 34 -18 11 11 24 54
24 25 0 37 -5 37 -14z m-134 -41 c7 -42 9 -40 -33 -48 -27 -5 -33 -3 -34 11 0
9 -2 26 -4 37 -4 22 10 35 42 35 17 0 24 -8 29 -35z m120 -82 c-2 -16 -5 -34
-5 -40 -1 -8 -15 -13 -36 -13 -33 0 -35 2 -35 34 0 32 3 35 33 39 17 2 36 5
40 5 4 1 6 -10 3 -25z m-118 -30 c-3 -33 -7 -38 -30 -41 -16 -2 -28 1 -28 6 0
5 -3 24 -6 41 -6 30 -6 31 30 31 37 0 37 0 34 -37z"/>
<path d="M610 332 c0 -14 62 -82 75 -82 16 0 23 18 17 43 -7 28 -92 64 -92 39z"/>
<path d="M520 312 c0 -4 12 -24 26 -45 20 -30 29 -36 39 -27 17 14 8 47 -18
65 -23 16 -47 20 -47 7z"/>
<path d="M332 268 c-26 -50 -28 -71 -7 -88 12 -10 18 -6 35 22 20 34 25 64 14
92 -9 25 -17 20 -42 -26z"/>
<path d="M430 299 c0 -20 43 -88 52 -83 15 10 8 54 -12 74 -22 22 -40 26 -40
9z"/>
</g>
</svg>
