<?xml version="1.0" standalone="no"?>
<!DOCTYPE svg PUBLIC "-//W3C//DTD SVG 20010904//EN"
 "http://www.w3.org/TR/2001/REC-SVG-20010904/DTD/svg10.dtd">
<svg version="1.0" xmlns="http://www.w3.org/2000/svg"
 width="96.000000pt" height="68.000000pt" viewBox="0 0 96.000000 68.000000"
 preserveAspectRatio="xMidYMid meet">
<metadata>
Created by potrace 1.16, written by Peter Selinger 2001-2019
</metadata>
<g transform="translate(0.000000,68.000000) scale(0.100000,-0.100000)"
fill="#000000" stroke="none">
<path d="M564 547 c-28 -56 -34 -62 -60 -60 l-29 2 0 -129 c1 -71 3 -132 6
-135 3 -3 33 2 67 10 36 10 91 15 134 13 l73 -3 -4 -60 c-3 -62 -10 -83 -37
-109 -14 -14 -18 -14 -45 -1 -37 20 -37 8 2 -32 36 -39 38 -39 73 -12 31 25
44 53 56 124 5 28 11 62 15 76 10 41 -34 55 -130 40 -106 -16 -175 -15 -175 3
0 9 18 16 53 20 95 12 119 18 109 28 -5 5 -34 5 -73 -1 -83 -14 -79 -15 -79
14 0 24 3 25 58 26 57 1 62 1 94 -8 11 -3 21 6 34 34 10 21 26 50 36 65 24 34
24 35 -18 48 -26 9 -47 9 -79 1 -24 -6 -54 -11 -67 -11 -20 0 -17 5 25 43 47
42 60 67 33 67 -8 0 -20 2 -28 5 -8 2 -24 -19 -44 -58z m126 -76 c0 -26 -3
-27 -93 -36 -73 -6 -79 -6 -75 11 3 17 58 32 156 43 6 0 12 -8 12 -18z m-10
-55 c0 -24 -23 -33 -92 -38 -60 -5 -68 -3 -68 12 0 16 41 27 148 39 6 0 12 -5
12 -13z"/>
<path d="M265 484 c-44 -8 -98 -11 -119 -8 l-40 6 17 -26 c10 -14 24 -58 32
-98 9 -39 18 -74 21 -77 3 -3 14 0 24 7 11 7 27 12 36 12 15 0 16 -11 10 -110
-5 -95 -4 -111 9 -116 9 -4 19 -4 22 0 3 3 9 56 12 118 6 109 7 113 30 116 13
2 27 -1 30 -7 14 -22 39 14 64 92 l24 78 -21 14 c-24 18 -44 17 -151 -1z m95
-44 c0 -27 -3 -30 -30 -30 -25 0 -30 4 -30 23 0 30 7 37 37 37 19 0 23 -5 23
-30z m-116 -6 c11 -28 7 -34 -24 -34 -16 0 -30 4 -30 9 0 5 -3 16 -6 25 -5 12
1 16 24 16 18 0 32 -6 36 -16z m108 -69 c-3 -18 -11 -25 -28 -25 -32 0 -33 37
-1 43 12 2 25 5 28 6 3 0 4 -10 1 -24z m-102 -15 c0 -15 -7 -20 -25 -20 -18 0
-25 5 -25 20 0 15 7 20 25 20 18 0 25 -5 25 -20z"/>
<path d="M630 216 c0 -15 42 -56 58 -56 21 0 22 19 1 38 -26 25 -59 35 -59 18z"/>
<path d="M550 202 c0 -16 32 -52 46 -52 17 0 18 11 2 32 -15 17 -48 31 -48 20z"/>
<path d="M377 163 c-16 -40 -9 -60 17 -50 28 11 34 87 7 87 -5 0 -16 -17 -24
-37z"/>
<path d="M470 196 c0 -3 5 -17 12 -31 12 -27 44 -36 34 -9 -3 9 -6 17 -6 19 0
3 -9 9 -20 15 -11 6 -20 9 -20 6z"/>
</g>
</svg>
