<?xml version="1.0" standalone="no"?>
<!DOCTYPE svg PUBLIC "-//W3C//DTD SVG 20010904//EN"
 "http://www.w3.org/TR/2001/REC-SVG-20010904/DTD/svg10.dtd">
<svg version="1.0" xmlns="http://www.w3.org/2000/svg"
 width="96.000000pt" height="68.000000pt" viewBox="0 0 96.000000 68.000000"
 preserveAspectRatio="xMidYMid meet">
<metadata>
Created by potrace 1.16, written by Peter Selinger 2001-2019
</metadata>
<g transform="translate(0.000000,68.000000) scale(0.100000,-0.100000)"
fill="#000000" stroke="none">
<path d="M490 604 c0 -3 9 -19 21 -36 12 -16 19 -31 17 -34 -3 -2 -59 -9 -124
-15 -150 -13 -153 -14 -124 -41 20 -19 22 -28 17 -86 -6 -76 -18 -89 -109
-118 -61 -20 -72 -40 -31 -55 18 -7 33 1 77 36 l55 45 -19 -63 c-21 -73 -36
-108 -68 -160 -13 -22 -21 -42 -18 -45 14 -13 81 68 111 133 30 63 40 106 63
260 7 46 9 50 42 56 19 4 114 12 210 18 96 6 178 15 183 20 21 21 -37 34 -125
27 l-88 -7 0 26 c0 18 -7 28 -26 35 -28 11 -64 13 -64 4z"/>
<path d="M688 485 c-4 -4 -253 -35 -286 -35 -10 0 -10 -3 2 -15 15 -16 17 -21
36 -94 9 -32 14 -41 23 -32 6 6 29 11 52 11 l40 -1 -35 -29 c-19 -17 -42 -30
-51 -30 -9 0 -22 -7 -29 -15 -14 -17 -6 -22 50 -28 l35 -3 -52 -25 c-84 -39
-62 -69 34 -48 29 7 56 9 59 6 4 -4 7 -23 8 -44 1 -35 -1 -38 -26 -38 -34 1
-35 -5 -4 -34 49 -46 83 -6 74 89 l-5 49 40 7 c31 5 43 3 52 -10 15 -20 31
-21 38 -2 7 18 -21 51 -51 61 -21 6 -23 4 -18 -12 6 -18 -2 -21 -80 -32 -47
-7 -88 -10 -90 -8 -8 8 21 24 76 43 30 11 64 25 75 32 19 12 20 12 1 26 -17
14 -22 12 -57 -16 -33 -26 -43 -30 -76 -23 l-37 7 24 18 c14 11 37 22 53 25
19 5 27 13 27 27 0 19 5 20 55 16 54 -5 54 -5 70 31 9 20 20 44 25 53 14 26
12 35 -12 58 -22 20 -31 24 -40 15z m2 -56 c0 -16 -7 -19 -50 -19 -43 0 -50 3
-50 19 0 16 8 20 43 23 52 4 57 2 57 -23z m-140 -9 c0 -11 -3 -20 -7 -20 -5
-1 -24 -3 -44 -6 -28 -4 -38 -1 -43 12 -9 23 10 34 57 34 30 0 37 -4 37 -20z
m130 -50 c0 -17 -7 -20 -45 -20 -31 0 -45 4 -45 13 0 21 11 27 52 27 31 0 38
-3 38 -20z m-130 -10 c0 -17 -7 -20 -40 -20 -33 0 -40 3 -40 20 0 17 7 20 40
20 33 0 40 -3 40 -20z"/>
<path d="M176 431 c-6 -10 43 -78 62 -86 20 -8 32 3 32 31 0 35 -78 81 -94 55z"/>
<path d="M415 80 c-8 -16 -23 -34 -32 -40 -15 -9 -13 -10 11 -5 60 13 97 55
60 69 -22 9 -22 9 -39 -24z"/>
<path d="M690 101 c0 -4 17 -24 38 -44 26 -26 44 -36 55 -31 24 9 21 31 -7 49
-29 19 -86 36 -86 26z"/>
</g>
</svg>
