<?xml version="1.0" standalone="no"?>
<!DOCTYPE svg PUBLIC "-//W3C//DTD SVG 20010904//EN"
 "http://www.w3.org/TR/2001/REC-SVG-20010904/DTD/svg10.dtd">
<svg version="1.0" xmlns="http://www.w3.org/2000/svg"
 width="90.000000pt" height="92.000000pt" viewBox="0 0 90.000000 92.000000"
 preserveAspectRatio="xMidYMid meet">
<metadata>
Created by potrace 1.16, written by Peter Selinger 2001-2019
</metadata>
<g transform="translate(0.000000,92.000000) scale(0.100000,-0.100000)"
fill="#000000" stroke="none">
<path d="M273 767 c-26 -24 -81 -64 -122 -88 -57 -34 -69 -45 -53 -47 12 -2
42 6 68 18 52 23 64 17 64 -31 0 -15 3 -40 6 -56 l6 -30 -94 -12 c-122 -16
-132 -19 -118 -36 19 -23 65 -27 126 -11 32 8 59 14 61 12 10 -9 -108 -181
-160 -233 -34 -35 -58 -63 -54 -63 4 0 29 11 55 24 52 26 119 93 149 147 l18
34 3 -34 c2 -19 -4 -80 -13 -136 -16 -94 -16 -105 -1 -134 38 -72 56 -17 56
172 l1 152 20 -25 c54 -66 61 -72 71 -62 5 5 8 22 6 38 -2 23 -12 34 -49 52
-41 20 -45 25 -41 51 4 30 29 41 88 41 13 0 24 4 24 10 0 17 -42 32 -76 27
-22 -4 -32 -2 -29 6 2 7 6 31 9 54 5 35 2 46 -15 62 l-22 20 29 12 c16 6 45
17 64 24 44 15 45 39 3 66 l-32 20 -48 -44z"/>
<path d="M575 739 c-44 -9 -94 -18 -112 -18 -17 -1 -35 -6 -38 -11 -9 -15 45
-32 87 -27 45 6 48 -1 48 -134 l0 -97 -32 -6 c-18 -3 -63 -8 -100 -12 -71 -7
-82 -16 -46 -35 20 -11 97 -7 155 7 l23 6 2 -183 c2 -117 7 -183 13 -181 19 5
27 56 32 208 l6 152 36 6 c20 3 78 6 129 6 102 0 115 11 51 42 -26 13 -43 15
-74 9 -22 -5 -64 -11 -92 -14 l-53 -6 0 67 c0 37 5 87 11 111 7 31 6 47 -2 57
-9 11 -7 14 10 14 41 0 111 22 111 35 0 29 -46 31 -165 4z"/>
<path d="M704 598 c-15 -29 -36 -66 -48 -83 l-21 -30 30 19 c62 39 125 91 125
102 0 10 -41 44 -54 44 -3 0 -18 -24 -32 -52z"/>
<path d="M410 605 c0 -6 18 -31 66 -92 25 -31 44 -24 44 17 0 21 -8 33 -32 48
-38 23 -78 36 -78 27z"/>
</g>
</svg>
