<?xml version="1.0" standalone="no"?>
<!DOCTYPE svg PUBLIC "-//W3C//DTD SVG 20010904//EN"
 "http://www.w3.org/TR/2001/REC-SVG-20010904/DTD/svg10.dtd">
<svg version="1.0" xmlns="http://www.w3.org/2000/svg"
 width="96.000000pt" height="68.000000pt" viewBox="0 0 96.000000 68.000000"
 preserveAspectRatio="xMidYMid meet">
<metadata>
Created by potrace 1.16, written by Peter Selinger 2001-2019
</metadata>
<g transform="translate(0.000000,68.000000) scale(0.100000,-0.100000)"
fill="#000000" stroke="none">
<path d="M294 484 c-7 -3 -10 -22 -6 -50 6 -57 1 -60 -100 -69 -78 -7 -99 -19
-53 -31 25 -6 102 2 133 13 30 12 -21 -58 -98 -135 -54 -54 -68 -73 -50 -67
42 13 86 43 130 92 l43 46 -6 -54 c-19 -152 -19 -154 -4 -174 29 -37 42 -4 47
121 l5 114 28 -30 c33 -34 42 -37 51 -14 9 23 0 33 -45 51 -26 10 -39 21 -39
34 0 21 6 24 63 34 48 8 38 25 -14 25 l-39 0 6 39 c5 33 3 41 -14 50 -11 6
-22 11 -24 10 -2 0 -8 -3 -14 -5z"/>
</g>
</svg>
