<?xml version="1.0" standalone="no"?>
<!DOCTYPE svg PUBLIC "-//W3C//DTD SVG 20010904//EN"
 "http://www.w3.org/TR/2001/REC-SVG-20010904/DTD/svg10.dtd">
<svg version="1.0" xmlns="http://www.w3.org/2000/svg"
 width="96.000000pt" height="68.000000pt" viewBox="0 0 96.000000 68.000000"
 preserveAspectRatio="xMidYMid meet">
<metadata>
Created by potrace 1.16, written by Peter Selinger 2001-2019
</metadata>
<g transform="translate(0.000000,68.000000) scale(0.100000,-0.100000)"
fill="#000000" stroke="none">
<path d="M675 379 c-22 -4 -64 -8 -92 -8 -33 -1 -53 -5 -53 -12 0 -9 25 -10
90 -6 84 6 90 6 90 -12 0 -11 -4 -31 -9 -44 -10 -26 -23 -31 -118 -42 -29 -4
-53 -11 -53 -17 0 -6 34 -7 93 -2 50 4 99 7 108 6 11 0 15 6 12 21 -3 13 6 38
21 59 l25 37 -24 15 c-26 17 -31 18 -90 5z"/>
</g>
</svg>
