<?xml version="1.0" standalone="no"?>
<!DOCTYPE svg PUBLIC "-//W3C//DTD SVG 20010904//EN"
 "http://www.w3.org/TR/2001/REC-SVG-20010904/DTD/svg10.dtd">
<svg version="1.0" xmlns="http://www.w3.org/2000/svg"
 width="96.000000pt" height="68.000000pt" viewBox="0 0 96.000000 68.000000"
 preserveAspectRatio="xMidYMid meet">
<metadata>
Created by potrace 1.16, written by Peter Selinger 2001-2019
</metadata>
<g transform="translate(0.000000,68.000000) scale(0.100000,-0.100000)"
fill="#000000" stroke="none">
<path d="M676 243 c-32 -46 -85 -91 -162 -138 -33 -19 -54 -35 -48 -35 21 0
79 24 127 52 26 15 53 28 60 28 7 0 35 -20 64 -45 53 -47 77 -55 86 -30 9 23
-24 54 -81 74 l-54 18 47 39 47 38 -24 18 c-31 24 -31 23 -62 -19z"/>
</g>
</svg>
