<?xml version="1.0" standalone="no"?>
<!DOCTYPE svg PUBLIC "-//W3C//DTD SVG 20010904//EN"
 "http://www.w3.org/TR/2001/REC-SVG-20010904/DTD/svg10.dtd">
<svg version="1.0" xmlns="http://www.w3.org/2000/svg"
 width="96.000000pt" height="68.000000pt" viewBox="0 0 96.000000 68.000000"
 preserveAspectRatio="xMidYMid meet">
<metadata>
Created by potrace 1.16, written by Peter Selinger 2001-2019
</metadata>
<g transform="translate(0.000000,68.000000) scale(0.100000,-0.100000)"
fill="#000000" stroke="none">
<path d="M547 541 c7 -28 51 -73 66 -68 19 6 19 42 0 59 -10 9 -30 19 -45 23
-23 6 -26 4 -21 -14z"/>
<path d="M610 455 c-41 -7 -97 -16 -125 -20 -42 -6 -46 -8 -30 -18 18 -10 49
-8 278 19 48 6 60 17 31 28 -22 8 -66 6 -154 -9z"/>
</g>
</svg>
