<?xml version="1.0" standalone="no"?>
<!DOCTYPE svg PUBLIC "-//W3C//DTD SVG 20010904//EN"
 "http://www.w3.org/TR/2001/REC-SVG-20010904/DTD/svg10.dtd">
<svg version="1.0" xmlns="http://www.w3.org/2000/svg"
 width="96.000000pt" height="68.000000pt" viewBox="0 0 96.000000 68.000000"
 preserveAspectRatio="xMidYMid meet">
<metadata>
Created by potrace 1.16, written by Peter Selinger 2001-2019
</metadata>
<g transform="translate(0.000000,68.000000) scale(0.100000,-0.100000)"
fill="#000000" stroke="none">
<path d="M370 557 c0 -7 13 -34 30 -60 17 -28 25 -47 17 -47 -32 0 -192 -21
-196 -26 -9 -8 22 -24 49 -24 23 0 28 -10 66 -119 l42 -119 -52 -6 c-28 -3
-84 -8 -123 -12 -40 -4 -73 -10 -73 -15 0 -16 73 -21 143 -10 40 7 179 15 309
19 130 4 240 10 244 15 4 4 -1 14 -12 23 -15 12 -38 14 -118 9 -55 -3 -118 -8
-140 -12 l-40 -6 15 24 c21 32 89 189 89 206 0 7 -5 13 -11 13 -5 0 -7 5 -4
10 3 6 15 10 25 10 10 0 31 5 47 11 27 10 28 11 8 26 -20 15 -75 14 -167 -3
-36 -6 -38 -5 -38 20 0 29 -28 62 -66 76 -34 13 -44 12 -44 -3z m175 -186 c-4
-42 -39 -188 -47 -196 -2 -2 -24 -6 -50 -10 l-48 -7 0 41 c0 48 -23 113 -58
159 -13 18 -22 35 -21 36 5 4 153 23 196 25 l32 1 -4 -49z"/>
</g>
</svg>
