<?xml version="1.0" standalone="no"?>
<!DOCTYPE svg PUBLIC "-//W3C//DTD SVG 20010904//EN"
 "http://www.w3.org/TR/2001/REC-SVG-20010904/DTD/svg10.dtd">
<svg version="1.0" xmlns="http://www.w3.org/2000/svg"
 width="90.000000pt" height="92.000000pt" viewBox="0 0 90.000000 92.000000"
 preserveAspectRatio="xMidYMid meet">
<metadata>
Created by potrace 1.16, written by Peter Selinger 2001-2019
</metadata>
<g transform="translate(0.000000,92.000000) scale(0.100000,-0.100000)"
fill="#000000" stroke="none">
<path d="M486 808 c-8 -50 -63 -181 -95 -227 -33 -45 -7 -38 42 13 29 30 54
45 77 48 49 8 219 53 227 61 3 4 -10 13 -30 22 -34 14 -39 13 -108 -15 -39
-17 -78 -30 -85 -30 -10 0 -4 20 19 66 l32 66 -24 19 c-35 29 -48 24 -55 -23z"/>
<path d="M160 791 c0 -16 41 -100 51 -107 22 -13 3 -22 -78 -39 -100 -20 -114
-28 -83 -45 21 -11 55 -10 108 6 19 6 22 3 22 -22 -1 -67 -104 -263 -164 -313
-28 -23 -17 -33 15 -14 49 29 116 109 150 182 18 36 33 68 35 69 1 2 19 -1 39
-8 36 -12 36 -13 30 -54 -10 -60 -54 -189 -70 -205 -13 -13 -19 -13 -51 2 -20
10 -34 14 -32 10 29 -62 54 -103 63 -103 15 0 59 48 78 86 9 17 28 73 42 124
15 52 31 102 36 112 12 22 -21 58 -53 58 -45 0 -70 12 -62 29 4 9 8 30 9 46 2
29 5 31 64 41 67 12 76 17 66 33 -8 13 -49 14 -91 2 -28 -8 -31 -7 -27 10 8
30 -5 65 -29 81 -34 22 -68 31 -68 19z"/>
<path d="M635 576 c-16 -8 -81 -27 -142 -42 -62 -15 -113 -31 -113 -35 0 -16
49 -21 85 -9 24 8 40 9 47 2 5 -5 12 -63 15 -127 6 -128 9 -123 -50 -82 -26
18 -27 20 -13 42 19 29 13 49 -21 64 -32 15 -35 11 -37 -37 -3 -51 -47 -137
-103 -201 -24 -28 -42 -51 -38 -51 33 0 129 89 160 150 l16 32 42 -37 c102
-88 193 -158 216 -167 20 -7 43 -4 98 13 40 12 71 24 69 26 -2 2 -44 13 -92
25 -49 11 -115 34 -147 50 l-58 29 3 62 3 62 63 6 c72 7 85 15 57 35 -19 14
-36 14 -93 -2 -23 -7 -24 -5 -21 51 2 45 -1 60 -15 70 -15 12 -11 14 34 24 28
6 60 11 71 11 18 0 19 -2 4 -36 -8 -20 -15 -38 -15 -40 0 -2 29 11 65 28 36
18 65 36 65 39 0 15 -61 50 -92 54 -18 2 -46 -2 -63 -9z"/>
</g>
</svg>
