<?xml version="1.0" standalone="no"?>
<!DOCTYPE svg PUBLIC "-//W3C//DTD SVG 20010904//EN"
 "http://www.w3.org/TR/2001/REC-SVG-20010904/DTD/svg10.dtd">
<svg version="1.0" xmlns="http://www.w3.org/2000/svg"
 width="96.000000pt" height="68.000000pt" viewBox="0 0 96.000000 68.000000"
 preserveAspectRatio="xMidYMid meet">
<metadata>
Created by potrace 1.16, written by Peter Selinger 2001-2019
</metadata>
<g transform="translate(0.000000,68.000000) scale(0.100000,-0.100000)"
fill="#000000" stroke="none">
<path d="M525 598 c-2 -7 -9 -31 -16 -53 -7 -22 -25 -61 -42 -88 -16 -26 -27
-50 -25 -52 2 -3 20 11 38 30 21 22 43 35 59 35 35 0 184 31 195 41 22 19 -47
19 -111 0 -39 -12 -76 -21 -82 -21 -7 0 2 21 19 46 31 43 31 46 13 59 -23 18
-42 19 -48 3z"/>
<path d="M230 579 c0 -19 41 -79 53 -79 7 0 7 -3 2 -9 -6 -4 -45 -14 -87 -21
-43 -7 -78 -16 -78 -20 0 -4 7 -13 15 -20 13 -11 26 -11 67 -1 28 6 53 9 56 6
17 -17 -82 -183 -135 -225 -17 -13 -21 -20 -11 -20 31 0 114 79 150 143 22 38
28 41 64 31 24 -6 23 -24 -3 -109 -21 -67 -40 -88 -75 -81 l-28 6 15 -30 c9
-17 23 -30 33 -30 37 1 63 38 103 147 12 32 26 64 32 71 15 20 -10 40 -59 48
-46 7 -49 10 -34 34 5 9 5 19 -1 26 -7 9 5 14 49 19 67 8 91 18 71 30 -14 9
-72 9 -101 -1 -17 -5 -18 -3 -10 13 12 23 -1 58 -27 72 -26 14 -61 14 -61 0z"/>
<path d="M655 416 c-22 -7 -79 -21 -127 -31 -95 -20 -122 -42 -37 -30 64 9 69
3 69 -92 0 -75 -4 -82 -41 -62 -16 8 -19 17 -14 39 5 23 2 31 -15 40 -25 14
-40 5 -40 -22 0 -36 -40 -107 -76 -136 -41 -33 -45 -48 -6 -28 28 15 63 47 94
85 10 11 21 21 25 21 5 0 46 -27 93 -60 108 -77 141 -87 218 -70 64 15 63 15
-59 43 -36 9 -83 22 -103 31 -36 15 -37 17 -34 63 l3 48 58 3 c31 2 57 7 57
12 0 14 -39 22 -76 15 l-34 -6 0 40 c0 28 -5 43 -17 50 -16 9 -14 10 9 11 15
0 39 5 54 10 33 13 54 -1 35 -24 -16 -19 2 -30 26 -16 10 5 30 14 46 20 37 13
34 25 -13 44 -47 19 -43 18 -95 2z"/>
</g>
</svg>
