<?xml version="1.0" standalone="no"?>
<!DOCTYPE svg PUBLIC "-//W3C//DTD SVG 20010904//EN"
 "http://www.w3.org/TR/2001/REC-SVG-20010904/DTD/svg10.dtd">
<svg version="1.0" xmlns="http://www.w3.org/2000/svg"
 width="90.000000pt" height="92.000000pt" viewBox="0 0 90.000000 92.000000"
 preserveAspectRatio="xMidYMid meet">
<metadata>
Created by potrace 1.16, written by Peter Selinger 2001-2019
</metadata>
<g transform="translate(0.000000,92.000000) scale(0.100000,-0.100000)"
fill="#000000" stroke="none">
<path d="M386 848 c-38 -134 -124 -257 -212 -304 -41 -22 -50 -45 -34 -85 14
-34 20 -34 98 -13 31 8 137 30 234 48 l177 33 30 -34 c32 -36 48 -41 57 -18
13 32 -8 89 -43 123 -36 34 -131 87 -140 78 -3 -2 14 -29 36 -60 40 -54 41
-56 19 -61 -41 -9 -350 -36 -355 -31 -3 3 35 51 84 108 134 155 135 156 90
206 -23 25 -36 28 -41 10z"/>
<path d="M495 369 c-49 -11 -136 -20 -192 -22 -57 -1 -103 -6 -103 -10 0 -4 7
-18 15 -31 9 -13 21 -65 27 -115 6 -51 17 -99 24 -109 12 -16 14 -16 26 -1 10
13 48 20 176 30 150 11 162 14 156 31 -6 21 21 123 43 156 19 30 12 47 -29 72
-38 23 -27 23 -143 -1z m85 -61 c0 -12 -5 -49 -11 -83 l-10 -62 -102 -11 c-56
-7 -116 -12 -133 -12 l-31 0 -6 77 c-3 43 -4 80 -1 82 8 8 166 28 232 30 57 1
62 -1 62 -21z"/>
</g>
</svg>
