<?xml version="1.0" standalone="no"?>
<!DOCTYPE svg PUBLIC "-//W3C//DTD SVG 20010904//EN"
 "http://www.w3.org/TR/2001/REC-SVG-20010904/DTD/svg10.dtd">
<svg version="1.0" xmlns="http://www.w3.org/2000/svg"
 width="96.000000pt" height="68.000000pt" viewBox="0 0 96.000000 68.000000"
 preserveAspectRatio="xMidYMid meet">
<metadata>
Created by potrace 1.16, written by Peter Selinger 2001-2019
</metadata>
<g transform="translate(0.000000,68.000000) scale(0.100000,-0.100000)"
fill="#000000" stroke="none">
<path d="M585 523 c-6 -2 -9 -28 -7 -62 4 -67 10 -63 -111 -76 -32 -4 -57 -9
-54 -11 10 -10 50 -12 97 -5 35 6 50 5 47 -3 -3 -9 -88 -77 -143 -114 -17 -11
-16 -12 9 -7 16 3 58 24 94 45 63 39 65 39 59 16 -7 -30 2 -56 19 -56 16 0 25
23 25 66 0 19 3 34 6 34 3 0 43 -20 88 -45 82 -44 132 -58 124 -32 -9 25 -71
56 -144 72 -49 11 -74 22 -74 31 0 11 19 14 86 14 64 0 85 3 81 13 -3 8 -28
11 -87 10 l-83 -3 7 54 c5 46 3 54 -12 58 -9 3 -21 3 -27 1z"/>
</g>
</svg>
