<?xml version="1.0" standalone="no"?>
<!DOCTYPE svg PUBLIC "-//W3C//DTD SVG 20010904//EN"
 "http://www.w3.org/TR/2001/REC-SVG-20010904/DTD/svg10.dtd">
<svg version="1.0" xmlns="http://www.w3.org/2000/svg"
 width="96.000000pt" height="68.000000pt" viewBox="0 0 96.000000 68.000000"
 preserveAspectRatio="xMidYMid meet">
<metadata>
Created by potrace 1.16, written by Peter Selinger 2001-2019
</metadata>
<g transform="translate(0.000000,68.000000) scale(0.100000,-0.100000)"
fill="#000000" stroke="none">
<path d="M595 524 c-49 -7 -108 -15 -130 -19 l-40 -5 5 -167 5 -166 28 -21
c25 -18 42 -21 130 -20 112 0 197 11 197 24 0 17 -36 20 -112 9 -95 -14 -196
-8 -209 12 -11 15 -3 238 10 286 8 31 24 36 176 48 80 6 87 9 70 21 -10 8 -24
13 -29 13 -6 -1 -51 -7 -101 -15z"/>
</g>
</svg>
