<?xml version="1.0" standalone="no"?>
<!DOCTYPE svg PUBLIC "-//W3C//DTD SVG 20010904//EN"
 "http://www.w3.org/TR/2001/REC-SVG-20010904/DTD/svg10.dtd">
<svg version="1.0" xmlns="http://www.w3.org/2000/svg"
 width="96.000000pt" height="68.000000pt" viewBox="0 0 96.000000 68.000000"
 preserveAspectRatio="xMidYMid meet">
<metadata>
Created by potrace 1.16, written by Peter Selinger 2001-2019
</metadata>
<g transform="translate(0.000000,68.000000) scale(0.100000,-0.100000)"
fill="#000000" stroke="none">
<path d="M600 534 c-47 -7 -109 -13 -138 -13 l-53 -1 19 -25 c11 -14 23 -45
27 -68 11 -67 20 -77 56 -67 17 5 65 8 106 7 43 -2 77 1 81 8 7 11 62 137 62
143 0 4 -68 33 -72 31 -2 -1 -41 -7 -88 -15z m80 -38 c0 -27 -16 -32 -130 -42
-63 -6 -67 -5 -73 15 -7 27 1 31 81 41 118 13 122 13 122 -14z m-18 -88 c-5
-5 -42 -12 -81 -15 -70 -6 -90 0 -91 28 0 4 39 11 88 15 70 7 88 6 90 -5 2 -7
0 -17 -6 -23z"/>
</g>
</svg>
