<?xml version="1.0" standalone="no"?>
<!DOCTYPE svg PUBLIC "-//W3C//DTD SVG 20010904//EN"
 "http://www.w3.org/TR/2001/REC-SVG-20010904/DTD/svg10.dtd">
<svg version="1.0" xmlns="http://www.w3.org/2000/svg"
 width="90.000000pt" height="92.000000pt" viewBox="0 0 90.000000 92.000000"
 preserveAspectRatio="xMidYMid meet">
<metadata>
Created by potrace 1.16, written by Peter Selinger 2001-2019
</metadata>
<g transform="translate(0.000000,92.000000) scale(0.100000,-0.100000)"
fill="#000000" stroke="none">
<path d="M370 844 c0 -26 -5 -64 -11 -84 l-12 -38 -99 -13 c-54 -7 -101 -16
-104 -21 -13 -20 47 -32 116 -22 39 5 70 8 70 6 0 -2 -14 -31 -31 -63 -41 -76
-123 -166 -205 -224 -36 -26 -63 -49 -60 -52 9 -9 120 47 173 89 54 41 132
147 167 226 17 37 23 42 51 42 30 0 36 -6 75 -70 47 -81 151 -209 183 -227 36
-20 197 -15 197 7 0 4 -30 19 -67 33 -98 38 -177 94 -263 184 l-75 78 113 9
c121 9 139 21 79 50 -31 14 -42 14 -118 1 -46 -9 -96 -17 -111 -20 l-28 -4 20
52 c26 67 26 69 -11 90 -44 25 -49 22 -49 -29z"/>
<path d="M370 538 c-1 -2 -2 -25 -4 -53 -6 -94 -5 -94 -113 -110 -24 -4 -43
-10 -43 -15 0 -15 59 -32 89 -25 17 4 31 4 31 0 0 -4 -16 -38 -36 -75 -22 -43
-60 -91 -100 -130 -36 -35 -63 -64 -61 -66 2 -2 23 6 46 18 70 38 139 115 179
201 41 85 49 91 137 91 l50 1 -2 -54 c-3 -68 -27 -151 -52 -182 -18 -23 -19
-23 -60 -7 -43 17 -43 17 -7 -37 45 -65 46 -66 76 -50 38 20 65 81 90 204 11
57 25 110 31 118 9 10 7 18 -7 34 -34 38 -49 40 -125 19 -40 -11 -74 -18 -76
-16 -2 2 3 21 11 41 9 21 16 44 16 51 0 15 -68 55 -70 42z"/>
</g>
</svg>
