<?xml version="1.0" standalone="no"?>
<!DOCTYPE svg PUBLIC "-//W3C//DTD SVG 20010904//EN"
 "http://www.w3.org/TR/2001/REC-SVG-20010904/DTD/svg10.dtd">
<svg version="1.0" xmlns="http://www.w3.org/2000/svg"
 width="96.000000pt" height="68.000000pt" viewBox="0 0 96.000000 68.000000"
 preserveAspectRatio="xMidYMid meet">
<metadata>
Created by potrace 1.16, written by Peter Selinger 2001-2019
</metadata>
<g transform="translate(0.000000,68.000000) scale(0.100000,-0.100000)"
fill="#000000" stroke="none">
<path d="M567 573 c-3 -5 -8 -30 -12 -58 -4 -27 -19 -83 -35 -122 -15 -40 -26
-73 -24 -73 1 0 16 13 31 29 24 25 38 30 101 36 l73 7 -15 -36 c-8 -20 -13
-36 -10 -36 15 0 104 57 104 67 0 7 -18 18 -41 24 -32 10 -53 10 -101 0 -33
-7 -63 -10 -66 -7 -2 3 7 32 22 65 14 32 26 65 26 73 0 27 -41 51 -53 31z"/>
</g>
</svg>
