<?xml version="1.0" standalone="no"?>
<!DOCTYPE svg PUBLIC "-//W3C//DTD SVG 20010904//EN"
 "http://www.w3.org/TR/2001/REC-SVG-20010904/DTD/svg10.dtd">
<svg version="1.0" xmlns="http://www.w3.org/2000/svg"
 width="96.000000pt" height="68.000000pt" viewBox="0 0 96.000000 68.000000"
 preserveAspectRatio="xMidYMid meet">
<metadata>
Created by potrace 1.16, written by Peter Selinger 2001-2019
</metadata>
<g transform="translate(0.000000,68.000000) scale(0.100000,-0.100000)"
fill="#000000" stroke="none">
<path d="M240 248 c-19 -5 -47 -8 -62 -6 -32 5 -34 1 -13 -26 8 -11 15 -29 15
-41 0 -12 2 -24 5 -27 10 -9 126 15 122 26 -2 6 2 24 10 39 8 16 13 30 11 32
-10 10 -58 12 -88 3z m40 -38 c0 -13 -10 -24 -26 -30 -40 -16 -54 -12 -54 13
0 31 7 37 47 37 26 0 33 -4 33 -20z"/>
</g>
</svg>
