<?xml version="1.0" standalone="no"?>
<!DOCTYPE svg PUBLIC "-//W3C//DTD SVG 20010904//EN"
 "http://www.w3.org/TR/2001/REC-SVG-20010904/DTD/svg10.dtd">
<svg version="1.0" xmlns="http://www.w3.org/2000/svg"
 width="96.000000pt" height="68.000000pt" viewBox="0 0 96.000000 68.000000"
 preserveAspectRatio="xMidYMid meet">
<metadata>
Created by potrace 1.16, written by Peter Selinger 2001-2019
</metadata>
<g transform="translate(0.000000,68.000000) scale(0.100000,-0.100000)"
fill="#000000" stroke="none">
<path d="M516 550 l-7 -60 -40 -6 c-51 -8 -61 -24 -15 -24 20 0 36 -2 36 -5 0
-17 -46 -91 -77 -125 -19 -22 -30 -40 -23 -40 26 0 98 71 126 124 16 31 34 56
41 56 6 0 38 -24 70 -52 32 -29 67 -61 78 -71 11 -10 30 -20 42 -23 27 -7 93
4 93 15 0 4 -25 15 -55 25 -56 17 -177 93 -179 111 -1 6 25 13 57 16 32 4 60
9 64 12 14 15 -36 20 -96 9 -36 -6 -67 -9 -69 -7 -2 2 1 20 8 40 13 39 8 49
-26 59 -20 6 -22 2 -28 -54z"/>
</g>
</svg>
