<?xml version="1.0" standalone="no"?>
<!DOCTYPE svg PUBLIC "-//W3C//DTD SVG 20010904//EN"
 "http://www.w3.org/TR/2001/REC-SVG-20010904/DTD/svg10.dtd">
<svg version="1.0" xmlns="http://www.w3.org/2000/svg"
 width="96.000000pt" height="68.000000pt" viewBox="0 0 96.000000 68.000000"
 preserveAspectRatio="xMidYMid meet">
<metadata>
Created by potrace 1.16, written by Peter Selinger 2001-2019
</metadata>
<g transform="translate(0.000000,68.000000) scale(0.100000,-0.100000)"
fill="#000000" stroke="none">
<path d="M241 530 c16 -29 29 -40 46 -40 16 0 23 6 23 19 0 23 -45 61 -72 61
-19 0 -18 -2 3 -40z"/>
<path d="M230 458 c-69 -11 -127 -22 -130 -24 -8 -9 24 -24 50 -24 14 0 77 11
140 24 81 17 109 26 95 32 -11 4 -22 8 -25 9 -3 1 -61 -7 -130 -17z"/>
</g>
</svg>
