<?xml version="1.0" standalone="no"?>
<!DOCTYPE svg PUBLIC "-//W3C//DTD SVG 20010904//EN"
 "http://www.w3.org/TR/2001/REC-SVG-20010904/DTD/svg10.dtd">
<svg version="1.0" xmlns="http://www.w3.org/2000/svg"
 width="96.000000pt" height="68.000000pt" viewBox="0 0 96.000000 68.000000"
 preserveAspectRatio="xMidYMid meet">
<metadata>
Created by potrace 1.16, written by Peter Selinger 2001-2019
</metadata>
<g transform="translate(0.000000,68.000000) scale(0.100000,-0.100000)"
fill="#000000" stroke="none">
<path d="M568 287 l4 -34 -54 -6 c-29 -4 -74 -7 -100 -7 -51 0 -64 -14 -24
-24 22 -5 76 -2 149 9 l27 5 0 -100 c0 -90 9 -124 27 -106 3 3 9 48 12 100 3
52 8 97 11 100 3 2 56 8 118 12 61 4 112 10 112 15 0 16 -44 21 -136 14 l-94
-7 0 31 c0 27 -3 31 -28 31 -26 0 -28 -3 -24 -33z"/>
</g>
</svg>
