<?xml version="1.0" standalone="no"?>
<!DOCTYPE svg PUBLIC "-//W3C//DTD SVG 20010904//EN"
 "http://www.w3.org/TR/2001/REC-SVG-20010904/DTD/svg10.dtd">
<svg version="1.0" xmlns="http://www.w3.org/2000/svg"
 width="96.000000pt" height="68.000000pt" viewBox="0 0 96.000000 68.000000"
 preserveAspectRatio="xMidYMid meet">
<metadata>
Created by potrace 1.16, written by Peter Selinger 2001-2019
</metadata>
<g transform="translate(0.000000,68.000000) scale(0.100000,-0.100000)"
fill="#000000" stroke="none">
<path d="M257 512 l6 -89 -59 -7 c-32 -4 -68 -9 -81 -12 -42 -11 -13 -24 53
-24 45 0 64 -4 64 -12 -1 -16 -61 -102 -118 -168 -24 -28 -39 -50 -32 -50 26
0 71 33 119 87 l52 58 -8 -75 c-12 -115 -10 -169 7 -180 30 -19 40 12 47 148
l6 133 22 -21 c30 -28 57 -27 53 3 -2 14 -16 29 -40 40 -56 28 -51 53 12 61
34 5 50 11 50 21 0 15 -22 20 -71 16 l-25 -2 7 63 c8 70 -5 98 -47 98 -22 0
-23 -1 -17 -88z"/>
<path d="M600 569 c-25 -5 -78 -11 -117 -12 -73 -2 -81 -5 -63 -23 5 -5 16
-38 24 -73 8 -34 16 -64 18 -65 2 -1 47 1 101 4 54 3 102 1 106 -3 17 -17 41
7 60 59 36 95 36 102 6 114 -31 12 -72 11 -135 -1z m90 -38 c0 -28 -1 -28 -67
-34 -121 -12 -150 -9 -156 13 -3 11 -4 20 -4 21 4 2 184 27 205 28 18 1 22 -4
22 -28z m-12 -73 c-3 -26 -43 -36 -138 -37 -52 -1 -56 1 -58 24 -2 23 2 24 56
28 146 9 144 9 140 -15z"/>
<path d="M558 346 c-110 -12 -139 -26 -56 -26 58 0 68 -8 68 -50 0 -16 -12
-19 -100 -25 -96 -7 -123 -17 -80 -28 11 -3 56 -3 100 0 l80 6 0 -96 c0 -60 4
-98 11 -103 19 -11 29 18 29 91 0 118 -5 112 121 121 60 3 112 10 114 15 10
15 -38 21 -131 14 l-94 -7 0 36 c0 33 2 36 29 36 45 0 91 12 85 21 -6 11 -48
10 -176 -5z"/>
</g>
</svg>
