<?xml version="1.0" standalone="no"?>
<!DOCTYPE svg PUBLIC "-//W3C//DTD SVG 20010904//EN"
 "http://www.w3.org/TR/2001/REC-SVG-20010904/DTD/svg10.dtd">
<svg version="1.0" xmlns="http://www.w3.org/2000/svg"
 width="96.000000pt" height="68.000000pt" viewBox="0 0 96.000000 68.000000"
 preserveAspectRatio="xMidYMid meet">
<metadata>
Created by potrace 1.16, written by Peter Selinger 2001-2019
</metadata>
<g transform="translate(0.000000,68.000000) scale(0.100000,-0.100000)"
fill="#000000" stroke="none">
<path d="M390 352 c0 -57 -16 -72 -83 -79 -66 -7 -58 -23 11 -23 23 0 42 -3
42 -7 0 -14 -55 -92 -80 -114 -14 -12 -40 -33 -58 -47 -43 -32 -35 -39 17 -13
60 31 106 76 146 141 31 52 40 59 75 65 22 4 40 11 40 17 0 7 -14 8 -35 5 -19
-3 -35 -4 -35 -3 0 2 5 17 11 35 13 36 0 61 -32 61 -15 0 -19 -7 -19 -38z"/>
</g>
</svg>
