<?xml version="1.0" standalone="no"?>
<!DOCTYPE svg PUBLIC "-//W3C//DTD SVG 20010904//EN"
 "http://www.w3.org/TR/2001/REC-SVG-20010904/DTD/svg10.dtd">
<svg version="1.0" xmlns="http://www.w3.org/2000/svg"
 width="96.000000pt" height="68.000000pt" viewBox="0 0 96.000000 68.000000"
 preserveAspectRatio="xMidYMid meet">
<metadata>
Created by potrace 1.16, written by Peter Selinger 2001-2019
</metadata>
<g transform="translate(0.000000,68.000000) scale(0.100000,-0.100000)"
fill="#000000" stroke="none">
<path d="M200 541 c0 -15 60 -61 81 -61 34 0 23 39 -16 56 -39 16 -65 18 -65
5z"/>
<path d="M120 412 c0 -16 73 -73 90 -70 24 5 23 36 -2 52 -31 20 -88 32 -88
18z"/>
<path d="M250 273 c-19 -25 -51 -59 -72 -76 -21 -17 -38 -38 -38 -46 0 -23 31
-64 40 -54 16 16 111 204 108 213 -2 4 -19 -12 -38 -37z"/>
</g>
</svg>
