<?xml version="1.0" standalone="no"?>
<!DOCTYPE svg PUBLIC "-//W3C//DTD SVG 20010904//EN"
 "http://www.w3.org/TR/2001/REC-SVG-20010904/DTD/svg10.dtd">
<svg version="1.0" xmlns="http://www.w3.org/2000/svg"
 width="96.000000pt" height="68.000000pt" viewBox="0 0 96.000000 68.000000"
 preserveAspectRatio="xMidYMid meet">
<metadata>
Created by potrace 1.16, written by Peter Selinger 2001-2019
</metadata>
<g transform="translate(0.000000,68.000000) scale(0.100000,-0.100000)"
fill="#000000" stroke="none">
<path d="M455 578 c-10 -42 -47 -101 -101 -160 -40 -43 -50 -58 -40 -58 2 0
21 14 42 31 l39 31 3 -113 c1 -62 -1 -132 -6 -155 -13 -62 23 -138 42 -88 3 9
6 26 6 40 0 17 7 25 25 29 14 3 36 7 49 10 13 3 81 7 152 11 144 6 163 9 147
25 -13 13 -81 13 -145 1 -53 -10 -58 -6 -51 45 5 30 8 32 59 39 78 9 82 28 5
22 l-61 -4 0 31 c0 28 3 31 33 33 17 1 45 5 61 8 48 10 3 27 -50 19 -44 -6
-44 -6 -44 24 0 17 -5 31 -12 31 -19 0 -2 11 23 15 13 2 51 6 84 10 84 10 46
30 -42 22 -47 -5 -63 -3 -62 6 3 27 -2 36 -33 46 -17 6 -33 9 -35 7 -7 -6 18
-49 36 -62 12 -10 10 -12 -15 -17 -80 -16 -134 -19 -134 -7 0 6 20 38 45 70
25 32 45 63 45 68 0 8 -31 21 -52 22 -3 0 -10 -15 -13 -32z m100 -188 l0 -35
-57 -3 -58 -3 0 31 c0 36 25 50 80 47 33 -2 35 -4 35 -37z m13 -87 c-3 -27 -6
-28 -66 -33 l-62 -5 0 33 0 32 66 0 65 0 -3 -27z m2 -92 c0 -37 -2 -39 -37
-45 -21 -3 -50 -6 -65 -6 -26 0 -28 3 -28 45 l0 45 65 0 65 0 0 -39z"/>
<path d="M206 524 c9 -14 30 -32 47 -40 25 -14 31 -14 44 -2 29 29 -16 68 -78
68 -29 0 -29 0 -13 -26z"/>
<path d="M120 412 c0 -17 67 -72 88 -72 17 0 22 6 22 26 0 19 -8 28 -35 40
-38 15 -75 19 -75 6z"/>
<path d="M268 306 c-10 -7 -18 -17 -18 -22 -1 -14 -61 -77 -93 -97 -24 -15
-28 -23 -22 -45 8 -32 23 -52 39 -52 10 0 126 207 126 225 0 9 -14 5 -32 -9z"/>
</g>
</svg>
