<?xml version="1.0" standalone="no"?>
<!DOCTYPE svg PUBLIC "-//W3C//DTD SVG 20010904//EN"
 "http://www.w3.org/TR/2001/REC-SVG-20010904/DTD/svg10.dtd">
<svg version="1.0" xmlns="http://www.w3.org/2000/svg"
 width="96.000000pt" height="68.000000pt" viewBox="0 0 96.000000 68.000000"
 preserveAspectRatio="xMidYMid meet">
<metadata>
Created by potrace 1.16, written by Peter Selinger 2001-2019
</metadata>
<g transform="translate(0.000000,68.000000) scale(0.100000,-0.100000)"
fill="#000000" stroke="none">
<path d="M480 594 c-58 -7 -122 -11 -144 -8 l-38 6 7 -40 c18 -109 -53 -292
-151 -389 -35 -35 -35 -40 -1 -21 83 44 138 125 175 258 l19 65 167 9 c130 7
166 12 162 22 -3 7 6 29 19 48 l24 36 -22 15 c-25 18 -71 17 -217 -1z m148
-46 c-4 -38 -14 -41 -181 -52 l-99 -7 7 33 c4 18 9 35 11 37 4 5 146 18 212
20 l53 1 -3 -32z"/>
</g>
</svg>
