<?xml version="1.0" standalone="no"?>
<!DOCTYPE svg PUBLIC "-//W3C//DTD SVG 20010904//EN"
 "http://www.w3.org/TR/2001/REC-SVG-20010904/DTD/svg10.dtd">
<svg version="1.0" xmlns="http://www.w3.org/2000/svg"
 width="96.000000pt" height="68.000000pt" viewBox="0 0 96.000000 68.000000"
 preserveAspectRatio="xMidYMid meet">
<metadata>
Created by potrace 1.16, written by Peter Selinger 2001-2019
</metadata>
<g transform="translate(0.000000,68.000000) scale(0.100000,-0.100000)"
fill="#000000" stroke="none">
<path d="M625 585 c-33 -8 -97 -16 -142 -17 -67 -2 -79 -5 -70 -16 6 -8 18
-48 27 -90 14 -65 20 -77 36 -75 120 15 202 19 217 11 26 -13 43 4 63 65 9 29
23 63 31 76 13 21 13 25 0 38 -21 21 -91 24 -162 8z m95 -39 c0 -31 -4 -33
-67 -42 l-50 -6 -5 30 c-5 35 2 38 80 41 38 1 42 -1 42 -23z m-172 -29 c3 -27
2 -28 -40 -25 -39 3 -43 6 -46 31 -3 27 -2 28 40 25 39 -3 43 -6 46 -31z m155
-34 c3 -5 1 -18 -4 -30 -7 -19 -16 -23 -54 -23 -41 0 -45 2 -45 24 0 22 5 25
43 29 23 2 45 4 49 5 4 1 9 -1 11 -5z m-143 -37 c0 -13 -7 -27 -16 -30 -22 -8
-64 -8 -64 2 0 4 -3 17 -6 30 -6 20 -3 22 40 22 42 0 46 -2 46 -24z"/>
</g>
</svg>
