<?xml version="1.0" standalone="no"?>
<!DOCTYPE svg PUBLIC "-//W3C//DTD SVG 20010904//EN"
 "http://www.w3.org/TR/2001/REC-SVG-20010904/DTD/svg10.dtd">
<svg version="1.0" xmlns="http://www.w3.org/2000/svg"
 width="90.000000pt" height="92.000000pt" viewBox="0 0 90.000000 92.000000"
 preserveAspectRatio="xMidYMid meet">
<metadata>
Created by potrace 1.16, written by Peter Selinger 2001-2019
</metadata>
<g transform="translate(0.000000,92.000000) scale(0.100000,-0.100000)"
fill="#000000" stroke="none">
<path d="M354 856 c-3 -8 -2 -21 2 -28 5 -7 11 -50 14 -95 l5 -82 -35 -5 c-19
-3 -56 -8 -83 -12 -39 -5 -45 -9 -36 -20 8 -9 34 -14 80 -14 l69 0 0 -57 c0
-32 -4 -64 -9 -72 -5 -8 -50 -18 -122 -27 -63 -7 -115 -13 -116 -14 -13 -2 3
-18 28 -27 24 -9 51 -9 110 -1 44 6 82 8 85 5 13 -13 -40 -129 -80 -174 -22
-25 -73 -67 -112 -92 -118 -76 -114 -72 -70 -66 47 8 140 53 184 90 41 34 95
117 120 185 l20 55 18 -33 c45 -80 143 -221 185 -264 l45 -48 90 1 c141 1 146
9 34 62 -52 24 -123 66 -158 92 -73 55 -196 196 -180 206 6 4 71 10 144 14 74
4 134 10 134 14 0 11 -31 37 -53 44 -10 4 -60 0 -110 -8 -148 -24 -141 -27
-133 52 4 37 8 69 10 70 1 1 38 9 81 18 95 18 111 29 65 48 -28 12 -41 12 -84
1 -28 -8 -55 -14 -59 -14 -7 0 -5 37 8 142 5 40 -3 49 -58 62 -20 5 -29 2 -33
-8z"/>
</g>
</svg>
