<?xml version="1.0" standalone="no"?>
<!DOCTYPE svg PUBLIC "-//W3C//DTD SVG 20010904//EN"
 "http://www.w3.org/TR/2001/REC-SVG-20010904/DTD/svg10.dtd">
<svg version="1.0" xmlns="http://www.w3.org/2000/svg"
 width="96.000000pt" height="68.000000pt" viewBox="0 0 96.000000 68.000000"
 preserveAspectRatio="xMidYMid meet">
<metadata>
Created by potrace 1.16, written by Peter Selinger 2001-2019
</metadata>
<g transform="translate(0.000000,68.000000) scale(0.100000,-0.100000)"
fill="#000000" stroke="none">
<path d="M400 567 c0 -52 -99 -155 -229 -238 -66 -42 -79 -55 -62 -57 12 -2
61 16 109 40 65 32 107 62 166 120 67 64 83 75 96 65 8 -6 47 -42 85 -79 111
-107 113 -108 164 -108 59 0 121 10 121 20 0 4 -40 22 -89 39 -93 33 -241 131
-289 192 -30 37 -72 40 -72 6z"/>
<path d="M423 348 c4 -18 9 -77 13 -130 l7 -97 -36 -6 c-65 -13 -72 -7 -75 65
-3 70 -7 78 -41 85 -17 3 -21 0 -17 -13 16 -56 27 -135 19 -142 -4 -5 -33 -10
-63 -12 l-55 -3 30 -14 c24 -11 49 -11 130 -2 55 6 164 11 243 11 142 0 173 8
115 31 -18 7 -63 8 -120 4 l-93 -6 0 55 0 56 63 0 c65 0 99 11 77 25 -6 4 -41
4 -77 0 l-66 -7 7 56 c6 54 5 57 -20 66 -41 16 -47 13 -41 -22z"/>
</g>
</svg>
