<?xml version="1.0" standalone="no"?>
<!DOCTYPE svg PUBLIC "-//W3C//DTD SVG 20010904//EN"
 "http://www.w3.org/TR/2001/REC-SVG-20010904/DTD/svg10.dtd">
<svg version="1.0" xmlns="http://www.w3.org/2000/svg"
 width="90.000000pt" height="92.000000pt" viewBox="0 0 90.000000 92.000000"
 preserveAspectRatio="xMidYMid meet">
<metadata>
Created by potrace 1.16, written by Peter Selinger 2001-2019
</metadata>
<g transform="translate(0.000000,92.000000) scale(0.100000,-0.100000)"
fill="#000000" stroke="none">
<path d="M507 825 c-8 -58 -54 -166 -106 -246 -22 -35 -38 -66 -35 -68 2 -3
19 10 37 27 18 18 36 29 40 26 12 -13 7 -257 -8 -338 -12 -70 -12 -84 1 -115
15 -34 16 -35 30 -17 8 11 14 40 14 65 l0 46 38 1 c64 0 286 15 310 20 31 6
28 18 -11 36 -25 12 -44 14 -82 7 -77 -12 -75 -13 -75 35 0 48 9 56 63 56 18
0 39 5 47 10 25 17 -8 31 -63 28 l-48 -3 3 35 c2 29 7 35 28 38 60 6 90 13 90
21 0 14 -53 29 -86 24 -27 -4 -32 -1 -36 19 -7 43 2 57 40 64 58 9 102 25 102
35 0 14 -49 30 -71 24 -11 -3 -28 -7 -38 -10 -16 -5 -20 0 -23 27 -2 26 -10
37 -40 53 -20 11 -40 16 -44 13 -3 -4 5 -29 19 -57 l26 -49 -22 -6 c-13 -3
-49 -8 -81 -12 l-58 -7 25 39 c36 58 87 161 87 178 0 14 -41 46 -58 46 -5 0
-12 -20 -15 -45z m101 -287 l-3 -43 -53 -8 c-30 -5 -56 -6 -59 -3 -3 3 -3 24
1 48 l6 43 56 3 55 3 -3 -43z m0 -153 c-2 -1 -29 -5 -60 -9 l-58 -6 0 39 0 40
58 3 57 3 3 -34 c2 -18 2 -34 0 -36z m0 -130 c-2 -2 -29 -6 -60 -10 l-58 -7 0
50 0 51 58 3 57 3 3 -44 c2 -24 2 -44 0 -46z"/>
<path d="M195 783 c-14 -68 -39 -139 -75 -210 -21 -43 -37 -79 -36 -80 2 -2
21 16 42 39 31 34 45 42 67 40 26 -3 27 -6 27 -57 l0 -53 -87 -16 c-49 -9 -96
-16 -105 -16 -31 0 -19 -28 16 -40 28 -9 45 -8 87 4 65 20 69 20 69 1 0 -42
-46 -130 -97 -185 -30 -33 -52 -60 -49 -60 4 0 24 9 45 20 48 24 87 70 118
138 14 28 26 52 28 52 2 0 21 -29 44 -64 45 -72 59 -85 72 -65 25 41 -10 96
-81 128 -31 14 -35 20 -30 41 6 25 17 29 113 45 20 3 37 10 37 14 0 18 -55 31
-92 22 -35 -8 -38 -7 -37 13 0 11 4 30 8 41 5 11 4 25 -1 32 -7 9 2 15 34 23
79 20 87 28 45 47 -18 9 -36 7 -78 -8 -53 -18 -89 -24 -89 -14 0 2 17 38 37
79 36 74 37 76 18 96 -25 28 -44 25 -50 -7z"/>
</g>
</svg>
