<?xml version="1.0" standalone="no"?>
<!DOCTYPE svg PUBLIC "-//W3C//DTD SVG 20010904//EN"
 "http://www.w3.org/TR/2001/REC-SVG-20010904/DTD/svg10.dtd">
<svg version="1.0" xmlns="http://www.w3.org/2000/svg"
 width="96.000000pt" height="68.000000pt" viewBox="0 0 96.000000 68.000000"
 preserveAspectRatio="xMidYMid meet">
<metadata>
Created by potrace 1.16, written by Peter Selinger 2001-2019
</metadata>
<g transform="translate(0.000000,68.000000) scale(0.100000,-0.100000)"
fill="#000000" stroke="none">
<path d="M692 129 c74 -93 92 -105 103 -69 10 30 -20 69 -68 91 -64 28 -72 23
-35 -22z"/>
<path d="M164 114 c-46 -66 -25 -117 25 -62 31 33 40 108 13 108 -4 0 -21 -21
-38 -46z"/>
<path d="M340 155 c0 -3 11 -28 25 -56 18 -35 31 -49 43 -47 27 5 25 42 -3 77
-23 26 -65 43 -65 26z"/>
<path d="M500 152 c0 -17 60 -92 74 -92 19 0 28 28 16 50 -19 36 -90 69 -90
42z"/>
</g>
</svg>
