<?xml version="1.0" standalone="no"?>
<!DOCTYPE svg PUBLIC "-//W3C//DTD SVG 20010904//EN"
 "http://www.w3.org/TR/2001/REC-SVG-20010904/DTD/svg10.dtd">
<svg version="1.0" xmlns="http://www.w3.org/2000/svg"
 width="96.000000pt" height="68.000000pt" viewBox="0 0 96.000000 68.000000"
 preserveAspectRatio="xMidYMid meet">
<metadata>
Created by potrace 1.16, written by Peter Selinger 2001-2019
</metadata>
<g transform="translate(0.000000,68.000000) scale(0.100000,-0.100000)"
fill="#000000" stroke="none">
<path d="M425 569 c-261 -32 -282 -36 -258 -44 42 -14 52 -151 27 -392 -7 -69
6 -75 106 -56 49 9 146 14 278 14 170 0 202 3 202 15 0 36 -43 39 -287 21
-130 -9 -240 -14 -244 -11 -9 5 -3 275 7 360 6 50 -7 46 263 69 95 8 176 17
179 19 9 10 -49 26 -86 25 -20 -1 -104 -9 -187 -20z"/>
</g>
</svg>
