<?xml version="1.0" standalone="no"?>
<!DOCTYPE svg PUBLIC "-//W3C//DTD SVG 20010904//EN"
 "http://www.w3.org/TR/2001/REC-SVG-20010904/DTD/svg10.dtd">
<svg version="1.0" xmlns="http://www.w3.org/2000/svg"
 width="96.000000pt" height="68.000000pt" viewBox="0 0 96.000000 68.000000"
 preserveAspectRatio="xMidYMid meet">
<metadata>
Created by potrace 1.16, written by Peter Selinger 2001-2019
</metadata>
<g transform="translate(0.000000,68.000000) scale(0.100000,-0.100000)"
fill="#000000" stroke="none">
<path d="M455 202 c-7 -29 -41 -62 -102 -99 -24 -13 -43 -27 -43 -29 0 -7 56
20 76 38 11 10 24 15 29 11 4 -5 5 -2 1 5 -4 6 -2 12 3 12 12 0 71 59 71 70 0
5 -6 10 -14 13 -9 4 -16 -4 -21 -21z"/>
</g>
</svg>
