<?xml version="1.0" standalone="no"?>
<!DOCTYPE svg PUBLIC "-//W3C//DTD SVG 20010904//EN"
 "http://www.w3.org/TR/2001/REC-SVG-20010904/DTD/svg10.dtd">
<svg version="1.0" xmlns="http://www.w3.org/2000/svg"
 width="96.000000pt" height="68.000000pt" viewBox="0 0 96.000000 68.000000"
 preserveAspectRatio="xMidYMid meet">
<metadata>
Created by potrace 1.16, written by Peter Selinger 2001-2019
</metadata>
<g transform="translate(0.000000,68.000000) scale(0.100000,-0.100000)"
fill="#000000" stroke="none">
<path d="M215 563 c5 -10 10 -48 13 -84 5 -74 7 -70 -70 -84 -55 -9 -47 -25
12 -25 34 0 50 -4 50 -13 0 -20 -54 -101 -101 -152 -35 -38 -38 -45 -21 -45
11 0 45 25 76 56 31 31 56 52 56 46 0 -6 -5 -45 -11 -88 -13 -95 -6 -144 21
-144 24 0 27 12 35 152 l7 118 29 -21 c30 -21 49 -19 49 6 0 17 -31 35 -59 35
-16 0 -21 6 -21 29 0 26 4 30 40 36 64 11 62 39 -3 37 l-29 -1 6 68 c7 66 6
68 -19 79 -40 18 -69 16 -60 -5z"/>
<path d="M451 510 c-22 -28 -40 -40 -58 -40 -21 0 -24 -3 -19 -22 3 -13 6 -27
6 -31 0 -5 5 -5 12 -1 7 4 8 3 4 -5 -11 -17 -15 -91 -5 -91 5 0 6 -7 2 -16 -3
-9 -7 -28 -8 -43 -1 -14 -3 -33 -3 -42 -1 -11 -15 -19 -38 -23 -29 -6 -33 -10
-24 -22 7 -8 21 -14 31 -14 16 0 19 -8 19 -49 0 -31 5 -53 15 -61 19 -15 21
-8 30 80 6 63 7 66 46 88 49 28 46 38 -4 17 l-37 -15 0 38 c0 38 1 39 37 40
20 1 41 7 47 13 8 9 -1 10 -36 6 l-48 -5 0 34 c0 29 4 34 23 34 35 0 67 11 61
21 -3 5 -23 6 -45 3 -38 -6 -39 -6 -39 24 0 27 7 35 61 65 57 32 60 36 41 46
-31 16 -36 14 -71 -29z"/>
<path d="M627 509 c-11 -6 -29 -9 -42 -6 -23 4 -24 2 -23 -53 0 -31 -5 -66
-11 -78 -6 -12 -8 -22 -3 -22 19 0 41 38 48 80 8 49 17 60 52 60 20 0 22 -5
22 -50 0 -58 14 -70 84 -70 40 0 46 3 46 21 0 20 -4 21 -50 16 -55 -7 -56 -5
-38 55 10 33 9 41 -3 49 -19 12 -60 11 -82 -2z"/>
<path d="M660 320 c-14 -4 -41 -8 -61 -9 -37 -1 -91 -30 -57 -31 9 0 34 -21
57 -46 33 -37 38 -49 29 -63 -13 -22 -88 -70 -125 -81 l-28 -8 33 -1 c33 -1
102 28 134 57 16 14 22 11 63 -27 38 -35 51 -41 89 -41 58 0 67 17 19 36 -48
19 -94 44 -112 61 -16 16 -4 52 35 105 23 31 23 34 7 45 -19 14 -45 15 -83 3z
m20 -34 c0 -22 -18 -66 -27 -65 -5 0 -18 13 -31 30 l-24 29 24 9 c34 14 58 13
58 -3z"/>
</g>
</svg>
