<?xml version="1.0" standalone="no"?>
<!DOCTYPE svg PUBLIC "-//W3C//DTD SVG 20010904//EN"
 "http://www.w3.org/TR/2001/REC-SVG-20010904/DTD/svg10.dtd">
<svg version="1.0" xmlns="http://www.w3.org/2000/svg"
 width="96.000000pt" height="68.000000pt" viewBox="0 0 96.000000 68.000000"
 preserveAspectRatio="xMidYMid meet">
<metadata>
Created by potrace 1.16, written by Peter Selinger 2001-2019
</metadata>
<g transform="translate(0.000000,68.000000) scale(0.100000,-0.100000)"
fill="#000000" stroke="none">
<path d="M412 503 c3 -65 2 -68 -20 -71 -21 -3 -23 0 -20 29 2 25 -1 34 -13
37 -16 3 -25 -21 -32 -83 -2 -23 0 -23 96 2 56 14 70 15 76 4 14 -23 33 -7 47
38 12 40 11 43 -9 50 -20 8 -22 5 -25 -25 -2 -23 -9 -35 -23 -39 -29 -10 -33
-1 -34 63 0 52 -2 57 -23 60 -22 3 -22 1 -20 -65z"/>
</g>
</svg>
