<?xml version="1.0" standalone="no"?>
<!DOCTYPE svg PUBLIC "-//W3C//DTD SVG 20010904//EN"
 "http://www.w3.org/TR/2001/REC-SVG-20010904/DTD/svg10.dtd">
<svg version="1.0" xmlns="http://www.w3.org/2000/svg"
 width="96.000000pt" height="68.000000pt" viewBox="0 0 96.000000 68.000000"
 preserveAspectRatio="xMidYMid meet">
<metadata>
Created by potrace 1.16, written by Peter Selinger 2001-2019
</metadata>
<g transform="translate(0.000000,68.000000) scale(0.100000,-0.100000)"
fill="#000000" stroke="none">
<path d="M413 503 c2 -65 1 -68 -22 -71 -21 -3 -23 -1 -17 24 5 18 3 30 -6 35
-22 14 -28 10 -28 -16 0 -14 -6 -34 -12 -45 -20 -31 1 -44 44 -26 49 21 138
32 138 17 0 -27 20 -7 34 36 9 26 16 48 16 50 0 2 -11 3 -24 3 -21 0 -25 -6
-28 -32 -2 -28 -7 -33 -28 -33 -24 0 -25 2 -21 54 2 37 -1 56 -10 62 -32 20
-38 10 -36 -58z"/>
<path d="M620 553 c0 -27 -36 -137 -60 -184 -21 -41 -19 -68 3 -38 7 9 34 19
61 23 l49 8 -7 -68 c-4 -38 -9 -71 -12 -74 -3 -3 -18 9 -32 26 -26 30 -62 51
-62 36 0 -4 18 -25 39 -47 22 -23 36 -46 33 -55 -9 -28 -57 -72 -97 -90 -37
-17 -38 -19 -13 -19 40 -1 77 16 110 51 l29 32 23 -27 c12 -14 31 -37 42 -51
15 -20 27 -26 59 -26 73 0 73 15 -1 52 -82 42 -110 73 -96 109 23 58 34 129
23 143 -10 12 -4 15 29 21 22 4 40 10 40 15 0 17 -39 16 -99 -2 -35 -11 -66
-17 -69 -14 -3 3 1 18 8 33 40 86 57 142 47 152 -17 17 -47 13 -47 -6z"/>
<path d="M242 528 c-6 -18 -24 -47 -39 -64 -74 -82 -70 -76 -48 -73 25 5 34
11 108 81 53 49 59 58 48 72 -23 28 -56 20 -69 -16z"/>
<path d="M244 403 c-15 -49 -44 -90 -98 -139 -68 -62 -64 -69 14 -20 l55 35 3
-52 c2 -29 -2 -71 -9 -94 -13 -48 -6 -93 15 -93 18 0 30 101 24 202 -4 69 -3
75 24 107 28 31 28 34 12 52 -21 24 -33 24 -40 2z"/>
<path d="M387 370 c-58 -10 -73 -20 -29 -20 41 0 40 -11 -4 -53 -52 -49 -37
-66 34 -40 6 3 12 1 12 -4 0 -5 -21 -19 -47 -32 -41 -20 -44 -24 -31 -37 11
-12 21 -13 42 -4 43 16 46 13 46 -45 0 -42 -3 -55 -15 -55 -13 0 -13 -3 -3
-20 29 -47 48 -17 51 83 2 51 4 57 27 62 14 4 26 2 28 -4 5 -16 32 -13 32 4 0
8 -9 19 -21 25 -16 9 -23 8 -33 -5 -9 -12 -24 -15 -61 -13 l-49 3 67 34 c37
19 67 38 67 43 0 19 -30 18 -49 -1 -14 -14 -34 -21 -58 -21 l-37 0 47 45 c30
29 56 45 72 45 14 0 25 5 25 10 0 11 -43 11 -113 0z"/>
<path d="M502 134 c32 -32 56 -29 33 4 -9 12 -26 22 -38 22 -21 0 -21 -1 5
-26z"/>
<path d="M334 138 c-4 -7 -14 -23 -22 -35 -18 -29 -5 -29 31 1 24 19 26 24 13
35 -11 9 -16 9 -22 -1z"/>
</g>
</svg>
