<?xml version="1.0" standalone="no"?>
<!DOCTYPE svg PUBLIC "-//W3C//DTD SVG 20010904//EN"
 "http://www.w3.org/TR/2001/REC-SVG-20010904/DTD/svg10.dtd">
<svg version="1.0" xmlns="http://www.w3.org/2000/svg"
 width="96.000000pt" height="68.000000pt" viewBox="0 0 96.000000 68.000000"
 preserveAspectRatio="xMidYMid meet">
<metadata>
Created by potrace 1.16, written by Peter Selinger 2001-2019
</metadata>
<g transform="translate(0.000000,68.000000) scale(0.100000,-0.100000)"
fill="#000000" stroke="none">
<path d="M537 481 l6 -51 -56 0 c-31 0 -59 -4 -62 -10 -4 -6 17 -10 54 -10 58
0 61 -1 61 -24 0 -25 -28 -36 -91 -36 -16 0 -29 -5 -29 -11 0 -9 20 -10 68 -6
37 4 104 7 150 7 66 0 82 3 82 15 0 17 -4 18 -89 15 -56 -2 -63 0 -57 15 3 9
6 21 6 26 0 5 15 9 33 9 60 0 107 12 107 27 0 9 -7 12 -17 9 -10 -2 -42 -8
-71 -11 l-54 -7 4 43 c3 41 1 44 -24 47 -27 3 -27 3 -21 -47z"/>
</g>
</svg>
