<?xml version="1.0" standalone="no"?>
<!DOCTYPE svg PUBLIC "-//W3C//DTD SVG 20010904//EN"
 "http://www.w3.org/TR/2001/REC-SVG-20010904/DTD/svg10.dtd">
<svg version="1.0" xmlns="http://www.w3.org/2000/svg"
 width="90.000000pt" height="92.000000pt" viewBox="0 0 90.000000 92.000000"
 preserveAspectRatio="xMidYMid meet">
<metadata>
Created by potrace 1.16, written by Peter Selinger 2001-2019
</metadata>
<g transform="translate(0.000000,92.000000) scale(0.100000,-0.100000)"
fill="#000000" stroke="none">
<path d="M156 818 c5 -24 8 -81 9 -128 l0 -84 -45 -8 c-99 -18 -98 -18 -75
-34 15 -11 34 -13 73 -8 l53 6 -3 -63 -3 -64 -80 -54 c-88 -58 -102 -84 -60
-103 25 -11 30 -10 60 22 17 19 44 46 60 60 l28 25 -7 -100 c-4 -55 -11 -103
-15 -107 -4 -4 -22 -3 -41 2 -18 5 -35 9 -36 7 -1 -1 22 -29 51 -61 l52 -59
19 28 c17 26 19 46 16 180 l-3 150 29 28 c24 23 34 27 48 19 11 -6 27 -13 36
-16 14 -4 17 -21 20 -98 2 -51 2 -108 0 -125 -3 -32 -5 -33 -48 -33 -51 0 -54
-12 -13 -42 24 -18 26 -18 101 17 42 19 80 35 84 35 3 0 4 -26 0 -58 -4 -35
-2 -71 5 -91 11 -32 13 -33 26 -16 7 11 13 35 13 56 0 33 3 37 32 43 18 4 50
18 72 32 37 25 39 25 49 8 6 -11 25 -34 43 -52 29 -29 38 -32 90 -32 92 0 97
13 20 50 -37 17 -82 45 -101 61 l-33 29 18 38 c41 81 60 123 60 131 0 4 -11
13 -23 18 -18 9 -36 7 -78 -8 -30 -10 -65 -19 -79 -19 -14 0 -32 -5 -40 -10
-13 -8 -12 -12 7 -25 12 -8 36 -41 54 -72 l32 -56 -34 -29 c-19 -16 -47 -36
-63 -45 l-28 -15 3 166 c5 192 -14 171 162 182 64 4 117 11 117 15 0 5 -11 16
-25 25 -23 15 -35 15 -167 -5 -278 -40 -310 -43 -318 -30 -6 9 -16 6 -39 -10
l-31 -22 0 49 0 50 44 11 c25 6 47 15 51 20 9 16 -34 33 -64 26 l-27 -6 7 68
c4 37 12 80 18 95 10 28 0 43 -46 67 -40 20 -46 15 -37 -31z m312 -380 c3 -23
0 -28 -20 -28 -13 0 -33 -3 -45 -6 -20 -6 -23 -3 -23 23 0 39 7 45 50 41 30
-3 35 -7 38 -30z m212 -68 c0 -11 -7 -37 -15 -57 l-16 -37 -29 44 -30 45 27
12 c42 18 63 16 63 -7z m-210 -21 c0 -17 -4 -28 -10 -24 -5 3 -26 2 -45 -4
-34 -9 -35 -9 -35 19 0 24 5 29 28 33 60 9 62 8 62 -24z m0 -79 c0 -25 -5 -30
-37 -39 -54 -15 -63 -14 -63 12 0 35 12 45 55 50 22 2 41 4 43 5 1 1 2 -11 2
-28z"/>
<path d="M575 799 c-44 -11 -113 -20 -152 -22 -40 -1 -73 -5 -73 -8 0 -3 6
-19 14 -35 8 -16 17 -54 21 -84 8 -63 21 -93 37 -84 9 6 4 113 -8 156 -6 20 5
24 126 42 57 9 99 11 104 5 6 -5 5 -42 -2 -96 -12 -93 -5 -121 24 -92 11 12
64 173 64 197 0 4 -65 42 -70 41 -3 -1 -41 -10 -85 -20z"/>
<path d="M495 701 c-16 -3 -28 -11 -25 -16 6 -12 86 -13 115 -2 16 7 17 10 5
17 -17 11 -49 11 -95 1z"/>
<path d="M508 627 c-68 -19 -37 -42 37 -28 65 12 74 25 25 34 -14 3 -42 0 -62
-6z"/>
</g>
</svg>
