<?xml version="1.0" standalone="no"?>
<!DOCTYPE svg PUBLIC "-//W3C//DTD SVG 20010904//EN"
 "http://www.w3.org/TR/2001/REC-SVG-20010904/DTD/svg10.dtd">
<svg version="1.0" xmlns="http://www.w3.org/2000/svg"
 width="96.000000pt" height="68.000000pt" viewBox="0 0 96.000000 68.000000"
 preserveAspectRatio="xMidYMid meet">
<metadata>
Created by potrace 1.16, written by Peter Selinger 2001-2019
</metadata>
<g transform="translate(0.000000,68.000000) scale(0.100000,-0.100000)"
fill="#000000" stroke="none">
<path d="M235 583 c4 -10 10 -50 12 -89 l5 -71 -32 -7 c-18 -3 -45 -6 -61 -6
-16 0 -29 -4 -29 -10 0 -6 27 -10 61 -10 l60 0 -3 -46 -3 -46 -75 -39 c-41
-22 -76 -44 -78 -49 -3 -8 37 -30 53 -30 2 0 23 18 47 39 23 22 46 37 50 33 4
-4 4 -36 0 -72 l-7 -65 -32 3 -32 3 39 -43 c38 -41 40 -42 57 -25 15 15 18 36
18 133 l0 114 30 25 c31 25 28 33 -6 15 -17 -10 -19 -7 -19 24 0 32 3 36 35
42 19 3 35 10 35 15 0 12 -46 22 -61 13 -12 -7 -10 32 6 112 6 26 3 32 -20 42
-39 18 -59 16 -50 -5z"/>
</g>
</svg>
