<?xml version="1.0" standalone="no"?>
<!DOCTYPE svg PUBLIC "-//W3C//DTD SVG 20010904//EN"
 "http://www.w3.org/TR/2001/REC-SVG-20010904/DTD/svg10.dtd">
<svg version="1.0" xmlns="http://www.w3.org/2000/svg"
 width="96.000000pt" height="68.000000pt" viewBox="0 0 96.000000 68.000000"
 preserveAspectRatio="xMidYMid meet">
<metadata>
Created by potrace 1.16, written by Peter Selinger 2001-2019
</metadata>
<g transform="translate(0.000000,68.000000) scale(0.100000,-0.100000)"
fill="#000000" stroke="none">
<path d="M234 573 c4 -16 9 -56 13 -89 l6 -61 -67 -8 c-88 -9 -85 -31 4 -28
l62 2 -6 -41 c-8 -46 -14 -52 -103 -98 -62 -31 -64 -33 -47 -51 25 -28 51 -23
97 17 l42 35 3 -32 c2 -18 1 -48 -3 -67 -6 -33 -7 -34 -43 -27 l-37 7 45 -46
c24 -25 50 -46 57 -46 23 0 33 48 33 155 0 99 1 104 25 123 30 24 35 48 6 32
-28 -15 -31 -13 -31 19 0 26 4 29 41 35 50 8 48 30 -4 34 -41 4 -41 6 -15 96
11 34 10 40 -7 52 -10 8 -32 14 -48 14 -27 0 -29 -2 -23 -27z"/>
<path d="M575 555 c-38 -8 -94 -14 -122 -14 -57 -1 -61 -4 -38 -27 8 -9 15
-26 15 -38 0 -38 21 -89 32 -78 7 7 6 28 -2 62 -7 28 -9 54 -6 57 10 10 197
30 202 21 3 -4 2 -37 -2 -73 -6 -56 -5 -65 10 -65 9 0 16 1 16 3 0 1 11 33 25
71 14 39 21 74 17 78 -16 16 -76 17 -147 3z"/>
<path d="M515 480 c-15 -6 -6 -9 32 -9 28 -1 55 4 58 9 8 12 -61 12 -90 0z"/>
<path d="M525 430 c-15 -6 -6 -9 33 -9 28 -1 52 4 52 9 0 12 -57 12 -85 0z"/>
<path d="M600 364 c-126 -16 -200 -23 -227 -24 -13 0 -23 -4 -23 -10 0 -5 9
-10 20 -10 24 0 33 -39 28 -125 l-3 -60 -40 -5 -40 -5 24 -17 c22 -15 27 -15
87 8 36 13 67 24 69 24 3 0 5 -20 5 -44 0 -54 8 -76 26 -76 9 0 14 12 14 33 1
17 2 88 3 157 l2 125 45 2 c130 7 192 15 182 25 -15 15 -67 15 -172 2z m-92
-60 c3 -19 -3 -22 -37 -26 -36 -3 -41 -1 -41 18 0 28 5 31 43 30 25 -1 33 -6
35 -22z m2 -64 c0 -14 -7 -20 -24 -20 -13 0 -31 -3 -40 -6 -12 -5 -16 0 -16
20 0 24 4 26 40 26 33 0 40 -3 40 -20z m-4 -57 c-3 -18 -63 -45 -78 -36 -10 5
-10 37 -1 46 3 4 23 7 44 7 30 0 37 -4 35 -17z"/>
<path d="M689 290 c-17 -10 -59 -18 -104 -19 -25 -1 -28 -4 -15 -14 8 -7 28
-30 44 -51 33 -44 29 -61 -20 -86 -16 -8 -31 -16 -33 -17 -2 -2 -2 -6 2 -9 3
-3 26 3 51 15 l46 20 36 -35 c32 -30 43 -34 90 -34 29 0 55 4 58 8 2 4 -29 23
-70 41 -41 18 -74 40 -74 47 0 7 12 38 27 68 15 31 25 57 22 59 -12 11 -46 15
-60 7z m-3 -52 c-10 -51 -23 -57 -51 -23 l-24 30 27 12 c46 21 55 17 48 -19z"/>
</g>
</svg>
