<?xml version="1.0" standalone="no"?>
<!DOCTYPE svg PUBLIC "-//W3C//DTD SVG 20010904//EN"
 "http://www.w3.org/TR/2001/REC-SVG-20010904/DTD/svg10.dtd">
<svg version="1.0" xmlns="http://www.w3.org/2000/svg"
 width="96.000000pt" height="68.000000pt" viewBox="0 0 96.000000 68.000000"
 preserveAspectRatio="xMidYMid meet">
<metadata>
Created by potrace 1.16, written by Peter Selinger 2001-2019
</metadata>
<g transform="translate(0.000000,68.000000) scale(0.100000,-0.100000)"
fill="#000000" stroke="none">
<path d="M304 593 c3 -16 9 -58 12 -94 8 -76 13 -72 -109 -84 -37 -4 -70 -11
-72 -15 -9 -14 52 -22 110 -15 32 4 55 3 55 -2 0 -22 -62 -103 -119 -156 -35
-32 -61 -60 -58 -63 12 -13 97 37 142 82 l47 49 -7 -85 c-11 -118 -10 -137 6
-156 12 -15 15 -14 31 6 15 19 18 42 18 146 l0 123 35 -34 c41 -42 75 -47 75
-11 0 29 -13 41 -68 58 -33 10 -42 18 -42 35 0 18 7 23 48 28 64 9 74 13 69
28 -3 8 -23 11 -57 11 l-53 -2 7 77 c6 76 6 78 -19 89 -44 20 -58 16 -51 -15z"/>
<path d="M705 568 c-9 -30 -60 -83 -105 -111 -19 -11 -37 -24 -40 -27 -3 -4
-13 -11 -24 -17 -10 -6 -14 -13 -9 -16 13 -8 120 48 173 91 80 64 85 73 51 92
-29 15 -39 12 -46 -12z"/>
<path d="M710 406 c0 -21 -59 -75 -122 -109 -55 -31 -77 -53 -40 -41 69 23
232 116 232 132 0 16 -24 32 -47 32 -13 0 -23 -6 -23 -14z"/>
<path d="M746 273 c-28 -56 -172 -177 -251 -212 -19 -9 -25 -15 -16 -19 23 -8
180 79 263 145 43 35 78 68 78 73 0 9 -39 40 -52 40 -4 0 -14 -12 -22 -27z"/>
</g>
</svg>
