<?xml version="1.0" standalone="no"?>
<!DOCTYPE svg PUBLIC "-//W3C//DTD SVG 20010904//EN"
 "http://www.w3.org/TR/2001/REC-SVG-20010904/DTD/svg10.dtd">
<svg version="1.0" xmlns="http://www.w3.org/2000/svg"
 width="96.000000pt" height="68.000000pt" viewBox="0 0 96.000000 68.000000"
 preserveAspectRatio="xMidYMid meet">
<metadata>
Created by potrace 1.16, written by Peter Selinger 2001-2019
</metadata>
<g transform="translate(0.000000,68.000000) scale(0.100000,-0.100000)"
fill="#000000" stroke="none">
<path d="M198 518 c3 -18 7 -49 7 -68 l0 -35 -58 0 c-31 0 -57 -2 -57 -5 0 -3
7 -13 15 -23 7 -11 17 -36 20 -58 8 -44 20 -56 40 -39 26 21 45 4 45 -40 0
-22 3 -40 8 -40 19 1 31 19 34 55 3 39 4 40 46 43 32 2 42 7 42 20 0 9 9 31
20 47 11 17 20 33 20 37 0 13 -61 27 -96 21 -32 -5 -36 -4 -31 13 3 10 8 35
11 55 6 32 4 37 -16 43 -50 13 -58 8 -50 -26z m106 -116 c11 -19 -11 -67 -32
-70 -19 -3 -22 1 -22 31 0 18 3 37 7 40 9 10 41 9 47 -1z m-96 -45 c3 -33 1
-37 -21 -37 -20 0 -26 7 -31 32 -7 33 6 50 34 45 10 -1 16 -16 18 -40z"/>
</g>
</svg>
