<?xml version="1.0" standalone="no"?>
<!DOCTYPE svg PUBLIC "-//W3C//DTD SVG 20010904//EN"
 "http://www.w3.org/TR/2001/REC-SVG-20010904/DTD/svg10.dtd">
<svg version="1.0" xmlns="http://www.w3.org/2000/svg"
 width="96.000000pt" height="68.000000pt" viewBox="0 0 96.000000 68.000000"
 preserveAspectRatio="xMidYMid meet">
<metadata>
Created by potrace 1.16, written by Peter Selinger 2001-2019
</metadata>
<g transform="translate(0.000000,68.000000) scale(0.100000,-0.100000)"
fill="#000000" stroke="none">
<path d="M684 534 c3 -9 9 -46 12 -83 l7 -68 -92 -12 c-57 -8 -89 -17 -85 -23
6 -10 97 -4 153 9 l23 6 -3 -126 c-2 -69 -7 -129 -12 -133 -4 -4 -24 -2 -44 4
l-37 11 47 -47 c45 -44 48 -46 64 -29 15 15 19 42 23 170 l5 152 50 5 c49 6
50 6 22 18 -16 7 -40 9 -53 6 l-25 -6 7 66 c8 74 -2 96 -43 96 -19 0 -24 -4
-19 -16z"/>
</g>
</svg>
