<?xml version="1.0" standalone="no"?>
<!DOCTYPE svg PUBLIC "-//W3C//DTD SVG 20010904//EN"
 "http://www.w3.org/TR/2001/REC-SVG-20010904/DTD/svg10.dtd">
<svg version="1.0" xmlns="http://www.w3.org/2000/svg"
 width="96.000000pt" height="68.000000pt" viewBox="0 0 96.000000 68.000000"
 preserveAspectRatio="xMidYMid meet">
<metadata>
Created by potrace 1.16, written by Peter Selinger 2001-2019
</metadata>
<g transform="translate(0.000000,68.000000) scale(0.100000,-0.100000)"
fill="#000000" stroke="none">
<path d="M410 585 c0 -4 9 -22 20 -41 25 -40 26 -40 -109 -49 -51 -4 -105 -10
-120 -14 l-26 -8 23 -12 c17 -9 22 -20 22 -54 0 -95 -47 -227 -105 -296 -32
-38 -24 -40 22 -5 63 48 95 115 123 263 20 103 5 97 255 112 99 6 182 13 185
16 3 2 -4 11 -15 19 -19 15 -75 14 -157 -2 -23 -5 -28 -2 -28 14 0 10 -8 26
-17 35 -20 17 -73 33 -73 22z"/>
</g>
</svg>
