<?xml version="1.0" standalone="no"?>
<!DOCTYPE svg PUBLIC "-//W3C//DTD SVG 20010904//EN"
 "http://www.w3.org/TR/2001/REC-SVG-20010904/DTD/svg10.dtd">
<svg version="1.0" xmlns="http://www.w3.org/2000/svg"
 width="96.000000pt" height="68.000000pt" viewBox="0 0 96.000000 68.000000"
 preserveAspectRatio="xMidYMid meet">
<metadata>
Created by potrace 1.16, written by Peter Selinger 2001-2019
</metadata>
<g transform="translate(0.000000,68.000000) scale(0.100000,-0.100000)"
fill="#000000" stroke="none">
<path d="M706 576 c-6 -25 -73 -99 -116 -129 l-25 -18 30 6 c27 6 110 61 159
107 20 18 20 18 -2 38 -28 26 -39 25 -46 -4z"/>
<path d="M365 569 c-16 -5 -51 -7 -77 -4 l-46 5 5 -101 c7 -118 6 -119 -79
-119 -59 0 -78 -15 -33 -26 14 -3 43 -4 65 -2 48 4 49 -2 20 -86 -20 -59 -56
-125 -74 -138 -6 -4 -2 -8 11 -8 40 0 104 98 124 190 12 57 10 56 96 64 l62 6
-5 -83 c-8 -127 -8 -127 -46 -116 -17 5 -33 7 -35 6 -1 -2 12 -20 30 -40 37
-43 58 -46 87 -15 18 19 20 35 20 140 l0 118 46 0 c27 0 43 4 39 10 -3 6 -25
10 -47 10 l-41 0 5 90 c5 80 3 92 -13 100 -22 12 -74 12 -114 -1z m69 -75 c3
-26 6 -64 6 -85 l0 -39 -47 0 c-27 0 -58 -3 -70 -6 -22 -6 -23 -4 -23 65 0 88
17 111 84 111 l43 0 7 -46z"/>
<path d="M340 451 c12 -23 48 -37 62 -23 14 14 -18 42 -48 42 -21 0 -23 -3
-14 -19z"/>
<path d="M720 428 c-1 -18 -61 -82 -112 -118 -61 -44 -22 -36 57 12 97 58 122
82 106 102 -16 19 -51 21 -51 4z"/>
<path d="M767 267 c-53 -69 -166 -156 -246 -189 -20 -9 -22 -12 -9 -15 22 -6
151 58 208 102 25 19 62 47 83 61 20 15 37 30 37 34 0 4 -11 15 -24 23 -23 16
-25 15 -49 -16z"/>
</g>
</svg>
