<?xml version="1.0" standalone="no"?>
<!DOCTYPE svg PUBLIC "-//W3C//DTD SVG 20010904//EN"
 "http://www.w3.org/TR/2001/REC-SVG-20010904/DTD/svg10.dtd">
<svg version="1.0" xmlns="http://www.w3.org/2000/svg"
 width="96.000000pt" height="68.000000pt" viewBox="0 0 96.000000 68.000000"
 preserveAspectRatio="xMidYMid meet">
<metadata>
Created by potrace 1.16, written by Peter Selinger 2001-2019
</metadata>
<g transform="translate(0.000000,68.000000) scale(0.100000,-0.100000)"
fill="#000000" stroke="none">
<path d="M574 323 c-17 -18 -30 -34 -27 -36 5 -6 83 31 83 39 0 3 -6 11 -12
17 -10 9 -20 5 -44 -20z"/>
<path d="M539 206 c13 -14 29 -22 37 -19 7 2 23 -2 36 -11 12 -9 18 -16 12
-16 -5 0 -15 5 -22 12 -6 6 -15 9 -18 5 -4 -3 5 -12 20 -18 32 -15 41 -8 24
20 -11 18 -42 34 -70 36 -3 0 -10 3 -14 8 -20 20 -24 4 -5 -17z"/>
</g>
</svg>
