<?xml version="1.0" standalone="no"?>
<!DOCTYPE svg PUBLIC "-//W3C//DTD SVG 20010904//EN"
 "http://www.w3.org/TR/2001/REC-SVG-20010904/DTD/svg10.dtd">
<svg version="1.0" xmlns="http://www.w3.org/2000/svg"
 width="90.000000pt" height="92.000000pt" viewBox="0 0 90.000000 92.000000"
 preserveAspectRatio="xMidYMid meet">
<metadata>
Created by potrace 1.16, written by Peter Selinger 2001-2019
</metadata>
<g transform="translate(0.000000,92.000000) scale(0.100000,-0.100000)"
fill="#000000" stroke="none">
<path d="M688 845 c-12 -12 -242 -45 -252 -35 -15 15 -26 12 -26 -5 0 -9 -9
-35 -20 -57 -24 -51 -25 -77 -4 -85 21 -8 41 18 54 68 9 32 15 37 47 42 20 4
38 5 39 4 1 -1 5 -23 9 -49 l7 -47 -51 -7 c-28 -4 -51 -10 -51 -15 0 -13 47
-22 75 -15 23 6 25 4 25 -28 0 -33 0 -34 -55 -41 -30 -3 -59 -4 -65 0 -19 12
-32 -6 -16 -23 8 -10 20 -54 26 -100 11 -75 28 -113 38 -84 2 7 19 12 38 12
31 0 34 -3 34 -29 0 -24 -5 -29 -31 -35 -17 -3 -53 -6 -80 -6 -58 0 -70 -14
-30 -35 24 -12 39 -13 73 -5 72 16 68 22 68 -109 0 -113 9 -152 25 -113 4 9
10 68 13 130 l5 112 123 0 c105 0 124 2 124 16 0 25 -59 43 -110 34 -25 -5
-66 -9 -91 -10 -45 0 -45 1 -41 29 3 23 10 30 35 35 20 4 33 2 39 -6 15 -25
42 8 66 83 13 41 28 78 33 84 17 18 9 32 -30 50 -36 16 -43 16 -90 2 l-51 -15
0 33 c0 31 2 33 50 39 27 4 52 11 55 16 8 13 -40 24 -75 17 -28 -6 -28 -5 -23
27 4 28 1 36 -18 47 -23 13 -23 14 21 20 25 4 62 8 82 8 36 1 37 1 27 -31 -5
-17 -7 -33 -5 -35 8 -8 116 52 113 62 -9 26 -112 67 -129 50z m2 -301 c0 -29
-3 -35 -16 -30 -9 3 -31 6 -50 6 -29 0 -34 3 -34 24 0 19 6 26 28 29 70 10 72
10 72 -29z m-152 -11 c-3 -24 -8 -29 -37 -31 -33 -3 -51 9 -51 35 0 6 17 14
38 16 20 2 41 4 45 5 5 1 7 -10 5 -25z m142 -52 c0 -5 -4 -20 -9 -33 -8 -21
-14 -24 -45 -20 -30 3 -36 8 -36 27 0 17 7 25 23 28 41 8 67 7 67 -2z m-140
-41 c0 -27 -3 -30 -34 -30 -30 0 -34 3 -38 30 -4 29 -3 30 34 30 36 0 38 -2
38 -30z"/>
<path d="M155 830 c-3 -5 -1 -18 5 -29 5 -11 10 -78 10 -149 l0 -130 -85 -13
c-59 -8 -85 -16 -85 -26 0 -20 45 -34 76 -23 34 13 44 13 44 -4 0 -36 -44
-149 -80 -204 -22 -34 -34 -62 -28 -62 48 0 185 240 160 280 -9 15 -7 19 16
23 15 3 29 4 30 2 14 -14 19 -95 12 -180 -7 -80 -6 -103 5 -114 12 -12 21 -6
67 44 50 54 74 85 65 85 -2 0 -18 -11 -37 -25 -19 -14 -38 -25 -43 -25 -5 0
-7 46 -6 101 2 86 0 103 -14 114 -15 11 -10 13 34 19 74 10 59 32 -21 29 l-62
-2 4 140 3 139 -29 10 c-35 12 -33 12 -41 0z"/>
<path d="M296 718 c-2 -7 -13 -42 -25 -78 l-22 -65 51 50 c55 54 59 64 32 88
-22 20 -31 21 -36 5z"/>
<path d="M50 670 c0 -15 49 -90 59 -90 12 0 28 23 25 38 -1 6 -2 17 -3 23 0 5
-17 17 -36 25 -41 17 -45 17 -45 4z"/>
</g>
</svg>
