<?xml version="1.0" standalone="no"?>
<!DOCTYPE svg PUBLIC "-//W3C//DTD SVG 20010904//EN"
 "http://www.w3.org/TR/2001/REC-SVG-20010904/DTD/svg10.dtd">
<svg version="1.0" xmlns="http://www.w3.org/2000/svg"
 width="90.000000pt" height="92.000000pt" viewBox="0 0 90.000000 92.000000"
 preserveAspectRatio="xMidYMid meet">
<metadata>
Created by potrace 1.16, written by Peter Selinger 2001-2019
</metadata>
<g transform="translate(0.000000,92.000000) scale(0.100000,-0.100000)"
fill="#000000" stroke="none">
<path d="M137 844 c-3 -3 0 -18 6 -33 16 -36 14 -425 -3 -556 -16 -121 -15
-147 3 -182 l14 -26 16 24 c12 20 16 72 19 286 2 144 7 265 11 269 4 4 22 -10
40 -31 37 -43 67 -43 67 -1 0 19 -9 27 -40 40 -22 9 -47 16 -55 16 -18 0 -19
26 -5 101 9 46 8 55 -7 70 -21 19 -57 32 -66 23z"/>
<path d="M545 813 c-27 -7 -82 -14 -122 -15 -70 -1 -72 -2 -58 -21 8 -11 19
-53 26 -92 12 -79 24 -107 37 -89 10 15 182 29 182 15 0 -6 9 -11 20 -11 16 0
24 14 41 73 12 39 28 82 35 95 14 20 12 23 -18 42 -38 23 -72 24 -143 3z m85
-54 c0 -27 -3 -31 -21 -26 -11 3 -55 0 -97 -8 -80 -14 -92 -10 -92 26 0 13 16
18 73 26 132 18 137 18 137 -18z m-6 -76 c-4 -16 -8 -29 -9 -31 -2 -2 -44 -6
-94 -8 -91 -5 -91 -5 -91 19 0 23 5 25 83 34 128 15 118 17 111 -14z"/>
<path d="M41 541 c-26 -58 -30 -74 -21 -91 6 -12 17 -20 23 -18 20 7 47 71 47
113 0 72 -14 71 -49 -4z"/>
<path d="M488 568 c12 -19 22 -38 22 -40 0 -3 -53 -11 -117 -18 -151 -15 -155
-16 -118 -40 28 -17 35 -18 90 -5 78 18 265 35 383 35 97 0 113 9 63 35 -24
12 -43 13 -103 5 -106 -14 -158 -13 -152 3 8 21 -19 46 -55 53 l-35 7 22 -35z"/>
<path d="M555 444 c-33 -7 -88 -14 -122 -15 -63 -1 -72 -6 -52 -26 6 -6 16
-35 23 -64 l11 -54 45 0 45 0 5 -45 c3 -25 3 -65 1 -89 l-3 -43 -38 6 -37 6
39 -40 c22 -22 44 -40 49 -40 5 0 15 10 23 23 16 24 26 203 13 225 -6 9 6 12
48 12 49 0 56 2 51 16 -4 9 5 37 19 63 l26 46 -21 17 c-26 21 -43 21 -125 2z
m65 -51 c0 -43 -11 -51 -80 -62 -100 -17 -100 -17 -100 29 0 37 2 39 38 45 20
4 42 8 47 10 6 2 29 4 53 4 39 1 42 -1 42 -26z"/>
<path d="M640 244 c0 -10 112 -134 121 -134 19 0 32 46 19 70 -16 30 -140 87
-140 64z"/>
<path d="M350 221 c0 -11 -16 -40 -35 -65 -19 -25 -30 -46 -23 -46 18 0 127
86 128 101 0 7 -46 29 -60 29 -6 0 -10 -9 -10 -19z"/>
</g>
</svg>
