<?xml version="1.0" standalone="no"?>
<!DOCTYPE svg PUBLIC "-//W3C//DTD SVG 20010904//EN"
 "http://www.w3.org/TR/2001/REC-SVG-20010904/DTD/svg10.dtd">
<svg version="1.0" xmlns="http://www.w3.org/2000/svg"
 width="96.000000pt" height="68.000000pt" viewBox="0 0 96.000000 68.000000"
 preserveAspectRatio="xMidYMid meet">
<metadata>
Created by potrace 1.16, written by Peter Selinger 2001-2019
</metadata>
<g transform="translate(0.000000,68.000000) scale(0.100000,-0.100000)"
fill="#000000" stroke="none">
<path d="M524 405 c3 -8 9 -21 12 -29 4 -11 -9 -16 -63 -20 -139 -13 -159 -17
-139 -28 12 -7 67 -5 174 6 86 9 194 16 240 16 78 0 106 11 62 25 -20 6 -150
-1 -198 -11 -17 -3 -25 1 -31 19 -9 23 -29 37 -53 37 -6 0 -7 -7 -4 -15z"/>
</g>
</svg>
