<?xml version="1.0" standalone="no"?>
<!DOCTYPE svg PUBLIC "-//W3C//DTD SVG 20010904//EN"
 "http://www.w3.org/TR/2001/REC-SVG-20010904/DTD/svg10.dtd">
<svg version="1.0" xmlns="http://www.w3.org/2000/svg"
 width="96.000000pt" height="68.000000pt" viewBox="0 0 96.000000 68.000000"
 preserveAspectRatio="xMidYMid meet">
<metadata>
Created by potrace 1.16, written by Peter Selinger 2001-2019
</metadata>
<g transform="translate(0.000000,68.000000) scale(0.100000,-0.100000)"
fill="#000000" stroke="none">
<path d="M550 570 c0 -24 -5 -31 -27 -36 -52 -11 -59 -18 -21 -22 35 -3 37 -4
27 -29 -14 -38 -5 -38 25 2 26 33 30 35 87 35 32 0 59 4 59 9 0 13 -26 21 -67
21 -26 0 -34 4 -30 14 7 17 -11 36 -35 36 -13 0 -18 -8 -18 -30z"/>
<path d="M280 575 c0 -3 5 -14 12 -25 16 -26 8 -32 -52 -38 -42 -4 -48 -7 -39
-19 9 -10 25 -12 65 -7 47 5 53 4 59 -15 9 -29 25 -26 25 4 0 21 6 27 33 32
l32 7 -35 6 c-24 3 -36 11 -39 25 -2 11 -8 23 -15 27 -13 9 -46 11 -46 3z"/>
</g>
</svg>
