<?xml version="1.0" standalone="no"?>
<!DOCTYPE svg PUBLIC "-//W3C//DTD SVG 20010904//EN"
 "http://www.w3.org/TR/2001/REC-SVG-20010904/DTD/svg10.dtd">
<svg version="1.0" xmlns="http://www.w3.org/2000/svg"
 width="96.000000pt" height="68.000000pt" viewBox="0 0 96.000000 68.000000"
 preserveAspectRatio="xMidYMid meet">
<metadata>
Created by potrace 1.16, written by Peter Selinger 2001-2019
</metadata>
<g transform="translate(0.000000,68.000000) scale(0.100000,-0.100000)"
fill="#000000" stroke="none">
<path d="M675 504 c-38 -7 -94 -13 -122 -13 -29 -1 -53 -5 -53 -10 0 -19 41
-22 121 -6 140 26 146 23 125 -69 -18 -75 -31 -89 -74 -81 l-34 6 29 -31 c52
-56 89 -26 121 96 11 38 22 76 26 85 5 11 -1 19 -19 27 -30 14 -28 14 -120 -4z"/>
</g>
</svg>
