<?xml version="1.0" standalone="no"?>
<!DOCTYPE svg PUBLIC "-//W3C//DTD SVG 20010904//EN"
 "http://www.w3.org/TR/2001/REC-SVG-20010904/DTD/svg10.dtd">
<svg version="1.0" xmlns="http://www.w3.org/2000/svg"
 width="96.000000pt" height="68.000000pt" viewBox="0 0 96.000000 68.000000"
 preserveAspectRatio="xMidYMid meet">
<metadata>
Created by potrace 1.16, written by Peter Selinger 2001-2019
</metadata>
<g transform="translate(0.000000,68.000000) scale(0.100000,-0.100000)"
fill="#000000" stroke="none">
<path d="M260 493 c-27 -8 -63 -12 -89 -9 -37 5 -42 4 -31 -9 7 -8 20 -40 30
-72 10 -32 22 -58 26 -58 5 0 44 4 86 9 61 6 76 11 71 22 -3 8 2 35 12 60 9
24 14 51 11 59 -7 19 -56 18 -116 -2z m56 -55 c-9 -53 -11 -55 -63 -64 l-42
-6 -11 42 c-6 23 -10 44 -8 46 6 6 81 22 107 23 22 1 23 -1 17 -41z"/>
</g>
</svg>
