<?xml version="1.0" standalone="no"?>
<!DOCTYPE svg PUBLIC "-//W3C//DTD SVG 20010904//EN"
 "http://www.w3.org/TR/2001/REC-SVG-20010904/DTD/svg10.dtd">
<svg version="1.0" xmlns="http://www.w3.org/2000/svg"
 width="96.000000pt" height="68.000000pt" viewBox="0 0 96.000000 68.000000"
 preserveAspectRatio="xMidYMid meet">
<metadata>
Created by potrace 1.16, written by Peter Selinger 2001-2019
</metadata>
<g transform="translate(0.000000,68.000000) scale(0.100000,-0.100000)"
fill="#000000" stroke="none">
<path d="M527 592 c-3 -15 -22 -52 -42 -81 -19 -30 -34 -55 -32 -57 1 -2 23
14 47 35 42 35 51 38 129 45 46 4 91 11 99 15 27 15 -20 22 -78 11 -29 -5 -63
-10 -77 -10 -23 0 -23 1 -7 25 18 27 12 45 -15 45 -12 0 -20 -10 -24 -28z"/>
<path d="M290 595 c0 -25 -26 -67 -64 -105 -58 -58 -37 -63 27 -7 22 20 43 26
107 31 78 7 108 19 73 30 -10 3 -36 1 -58 -4 -22 -5 -49 -10 -59 -10 -18 0
-18 2 4 25 19 20 21 27 10 40 -16 20 -40 19 -40 0z"/>
<path d="M585 475 c36 -30 55 -32 55 -6 0 21 -19 31 -58 31 l-27 -1 30 -24z"/>
<path d="M310 470 c0 -6 11 -16 25 -22 20 -9 28 -9 38 1 9 9 9 14 -3 21 -20
13 -60 13 -60 0z"/>
</g>
</svg>
