<?xml version="1.0" standalone="no"?>
<!DOCTYPE svg PUBLIC "-//W3C//DTD SVG 20010904//EN"
 "http://www.w3.org/TR/2001/REC-SVG-20010904/DTD/svg10.dtd">
<svg version="1.0" xmlns="http://www.w3.org/2000/svg"
 width="96.000000pt" height="68.000000pt" viewBox="0 0 96.000000 68.000000"
 preserveAspectRatio="xMidYMid meet">
<metadata>
Created by potrace 1.16, written by Peter Selinger 2001-2019
</metadata>
<g transform="translate(0.000000,68.000000) scale(0.100000,-0.100000)"
fill="#000000" stroke="none">
<path d="M582 498 c127 -141 143 -157 158 -159 36 -4 100 2 100 9 0 4 -33 24
-73 44 -44 23 -103 66 -152 112 -44 41 -86 75 -93 76 -7 0 20 -37 60 -82z"/>
<path d="M471 435 c-6 -19 -28 -57 -47 -85 -50 -73 12 -34 87 54 32 37 32 39
14 52 -29 21 -40 17 -54 -21z"/>
</g>
</svg>
