<?xml version="1.0" standalone="no"?>
<!DOCTYPE svg PUBLIC "-//W3C//DTD SVG 20010904//EN"
 "http://www.w3.org/TR/2001/REC-SVG-20010904/DTD/svg10.dtd">
<svg version="1.0" xmlns="http://www.w3.org/2000/svg"
 width="96.000000pt" height="68.000000pt" viewBox="0 0 96.000000 68.000000"
 preserveAspectRatio="xMidYMid meet">
<metadata>
Created by potrace 1.16, written by Peter Selinger 2001-2019
</metadata>
<g transform="translate(0.000000,68.000000) scale(0.100000,-0.100000)"
fill="#000000" stroke="none">
<path d="M240 555 c0 -2 5 -26 10 -52 7 -33 7 -98 -1 -213 -15 -219 -15 -226
1 -245 13 -16 15 -16 27 1 9 13 13 58 13 155 0 75 3 150 6 167 l6 31 34 -26
c28 -21 37 -23 50 -13 20 17 3 35 -46 48 l-35 9 2 60 c2 55 1 61 -23 72 -26
11 -44 14 -44 6z"/>
<path d="M160 351 c-19 -47 -18 -95 2 -99 12 -2 19 5 24 25 18 71 -2 130 -26
74z"/>
</g>
</svg>
