<?xml version="1.0" standalone="no"?>
<!DOCTYPE svg PUBLIC "-//W3C//DTD SVG 20010904//EN"
 "http://www.w3.org/TR/2001/REC-SVG-20010904/DTD/svg10.dtd">
<svg version="1.0" xmlns="http://www.w3.org/2000/svg"
 width="90.000000pt" height="92.000000pt" viewBox="0 0 90.000000 92.000000"
 preserveAspectRatio="xMidYMid meet">
<metadata>
Created by potrace 1.16, written by Peter Selinger 2001-2019
</metadata>
<g transform="translate(0.000000,92.000000) scale(0.100000,-0.100000)"
fill="#000000" stroke="none">
<path d="M515 821 c7 -33 -2 -151 -14 -170 -4 -6 -34 -16 -67 -22 -32 -6 -63
-14 -68 -19 -16 -15 36 -32 79 -26 l43 5 -13 -42 c-27 -88 -62 -163 -112 -244
-18 -29 -33 -55 -33 -58 0 -18 66 44 97 91 l36 54 18 -41 c21 -45 42 -48 47
-6 2 19 -5 31 -27 48 -24 17 -28 26 -21 40 6 9 22 50 36 91 14 40 30 77 34 82
5 5 61 16 125 25 64 9 117 21 118 26 1 6 -13 17 -31 26 -31 16 -37 16 -108 -3
-42 -10 -80 -18 -84 -16 -4 2 0 35 10 73 17 65 17 71 2 87 -10 9 -30 20 -46
24 -27 7 -28 6 -21 -25z"/>
<path d="M160 797 c0 -8 13 -39 30 -70 21 -39 26 -57 17 -60 -7 -3 -54 -11
-105 -18 -98 -14 -115 -27 -62 -49 25 -10 40 -10 88 3 31 9 97 23 146 32 49 8
91 17 93 19 11 11 -35 30 -68 29 -38 -2 -39 -1 -39 31 0 41 -16 61 -62 81 -31
13 -38 13 -38 2z"/>
<path d="M178 541 c-31 -9 -60 -19 -63 -23 -15 -15 49 -20 108 -8 70 15 89 26
67 40 -20 13 -44 11 -112 -9z"/>
<path d="M566 532 c-2 -4 -1 -14 5 -22 14 -23 11 -121 -6 -176 -21 -68 -75
-137 -141 -181 -66 -44 -55 -56 19 -19 62 30 116 84 150 148 l25 47 46 -82
c67 -119 86 -137 144 -136 89 1 92 11 15 57 -71 42 -122 90 -169 162 -25 37
-26 46 -21 114 5 71 4 74 -19 85 -29 13 -41 14 -48 3z"/>
<path d="M732 486 c-7 -19 -29 -55 -49 -82 -20 -26 -30 -43 -22 -39 77 47 149
98 149 105 0 9 -48 50 -59 50 -4 0 -12 -15 -19 -34z"/>
<path d="M218 455 c-3 -3 -25 -9 -48 -13 -60 -10 -65 -32 -8 -32 50 1 126 14
136 24 3 4 0 11 -8 16 -16 10 -63 13 -72 5z"/>
<path d="M215 344 c-22 -9 -61 -15 -87 -15 -47 0 -47 -1 -33 -22 8 -12 19 -45
25 -74 12 -55 39 -104 40 -70 0 13 9 17 39 17 62 0 103 11 92 24 -6 8 -1 32
15 71 22 56 23 61 7 73 -21 15 -48 14 -98 -4z m37 -69 c-4 -45 -23 -65 -64
-65 -24 0 -28 4 -28 29 0 16 -3 36 -6 44 -4 11 6 18 33 25 60 16 68 12 65 -33z"/>
</g>
</svg>
