<?xml version="1.0" standalone="no"?>
<!DOCTYPE svg PUBLIC "-//W3C//DTD SVG 20010904//EN"
 "http://www.w3.org/TR/2001/REC-SVG-20010904/DTD/svg10.dtd">
<svg version="1.0" xmlns="http://www.w3.org/2000/svg"
 width="96.000000pt" height="68.000000pt" viewBox="0 0 96.000000 68.000000"
 preserveAspectRatio="xMidYMid meet">
<metadata>
Created by potrace 1.16, written by Peter Selinger 2001-2019
</metadata>
<g transform="translate(0.000000,68.000000) scale(0.100000,-0.100000)"
fill="#000000" stroke="none">
<path d="M580 331 c16 -32 11 -83 -14 -136 -25 -54 -53 -84 -113 -122 -29 -18
-32 -22 -13 -17 66 18 152 82 165 125 4 10 10 19 14 19 4 0 26 -29 49 -65 24
-36 52 -70 63 -75 11 -6 43 -10 72 -8 l52 3 -60 30 c-33 16 -84 54 -113 84
l-54 54 5 58 c5 61 0 69 -44 69 -16 0 -18 -3 -9 -19z"/>
<path d="M721 317 c-5 -13 -22 -38 -37 -57 -32 -37 -30 -37 44 4 58 32 64 47
27 64 -23 11 -27 9 -34 -11z"/>
<path d="M490 241 c0 -26 29 -56 43 -42 13 13 3 37 -22 51 -18 9 -21 8 -21 -9z"/>
</g>
</svg>
