<?xml version="1.0" standalone="no"?>
<!DOCTYPE svg PUBLIC "-//W3C//DTD SVG 20010904//EN"
 "http://www.w3.org/TR/2001/REC-SVG-20010904/DTD/svg10.dtd">
<svg version="1.0" xmlns="http://www.w3.org/2000/svg"
 width="90.000000pt" height="92.000000pt" viewBox="0 0 90.000000 92.000000"
 preserveAspectRatio="xMidYMid meet">
<metadata>
Created by potrace 1.16, written by Peter Selinger 2001-2019
</metadata>
<g transform="translate(0.000000,92.000000) scale(0.100000,-0.100000)"
fill="#000000" stroke="none">
<path d="M396 877 c-7 -31 -75 -91 -176 -159 -91 -60 -93 -63 -55 -54 76 18
325 165 325 192 0 17 -23 33 -57 40 -26 5 -31 3 -37 -19z"/>
<path d="M429 743 c-27 -58 -126 -156 -180 -180 -43 -18 -46 -28 -24 -59 13
-20 18 -20 62 -9 26 7 65 15 87 18 38 6 37 5 -35 -45 -41 -28 -93 -59 -116
-70 -47 -21 -53 -36 -23 -63 19 -17 23 -17 111 9 51 14 95 24 98 20 3 -3 6
-58 6 -122 l0 -117 -48 2 -48 1 47 -41 c26 -23 54 -42 62 -42 8 0 21 16 28 36
13 40 23 267 11 286 -10 15 -3 19 66 33 l58 12 38 -44 39 -43 13 28 c19 42 -3
75 -74 111 -60 31 -82 29 -52 -3 17 -19 16 -20 -6 -25 -61 -14 -240 -37 -256
-34 -11 2 42 35 132 82 215 113 200 101 178 139 -27 45 -45 44 -76 -2 -15 -22
-37 -47 -49 -55 -26 -15 -185 -29 -193 -16 -3 5 47 45 110 90 63 46 118 87
122 93 6 10 -40 57 -57 57 -4 0 -18 -21 -31 -47z"/>
<path d="M617 219 c76 -92 106 -106 111 -53 5 52 -59 106 -154 130 -25 6 -21
-1 43 -77z"/>
<path d="M216 265 c-3 -13 -28 -54 -56 -90 -27 -36 -47 -65 -44 -65 34 0 174
106 174 131 0 14 -39 49 -54 49 -8 0 -17 -11 -20 -25z"/>
</g>
</svg>
