<?xml version="1.0" standalone="no"?>
<!DOCTYPE svg PUBLIC "-//W3C//DTD SVG 20010904//EN"
 "http://www.w3.org/TR/2001/REC-SVG-20010904/DTD/svg10.dtd">
<svg version="1.0" xmlns="http://www.w3.org/2000/svg"
 width="96.000000pt" height="68.000000pt" viewBox="0 0 96.000000 68.000000"
 preserveAspectRatio="xMidYMid meet">
<metadata>
Created by potrace 1.16, written by Peter Selinger 2001-2019
</metadata>
<g transform="translate(0.000000,68.000000) scale(0.100000,-0.100000)"
fill="#000000" stroke="none">
<path d="M609 243 c-11 -3 -14 -12 -11 -33 4 -28 3 -28 -52 -35 -67 -9 -64
-25 5 -25 l49 0 0 -69 c0 -39 4 -72 9 -75 13 -9 31 50 31 104 0 55 8 59 100
60 52 1 54 2 35 16 -15 11 -33 14 -72 9 -51 -6 -52 -6 -55 21 -3 28 -12 35
-39 27z"/>
</g>
</svg>
