<?xml version="1.0" standalone="no"?>
<!DOCTYPE svg PUBLIC "-//W3C//DTD SVG 20010904//EN"
 "http://www.w3.org/TR/2001/REC-SVG-20010904/DTD/svg10.dtd">
<svg version="1.0" xmlns="http://www.w3.org/2000/svg"
 width="96.000000pt" height="68.000000pt" viewBox="0 0 96.000000 68.000000"
 preserveAspectRatio="xMidYMid meet">
<metadata>
Created by potrace 1.16, written by Peter Selinger 2001-2019
</metadata>
<g transform="translate(0.000000,68.000000) scale(0.100000,-0.100000)"
fill="#000000" stroke="none">
<path d="M590 487 l0 -73 -37 -2 c-50 -3 -166 -22 -172 -28 -8 -8 83 -4 143 6
33 5 61 8 63 6 2 -1 4 -15 5 -29 3 -36 25 -34 33 2 6 26 11 29 62 36 65 8 55
25 -16 25 l-44 0 7 65 c7 65 6 65 -19 65 -24 0 -25 -2 -25 -73z"/>
</g>
</svg>
