<?xml version="1.0" standalone="no"?>
<!DOCTYPE svg PUBLIC "-//W3C//DTD SVG 20010904//EN"
 "http://www.w3.org/TR/2001/REC-SVG-20010904/DTD/svg10.dtd">
<svg version="1.0" xmlns="http://www.w3.org/2000/svg"
 width="96.000000pt" height="68.000000pt" viewBox="0 0 96.000000 68.000000"
 preserveAspectRatio="xMidYMid meet">
<metadata>
Created by potrace 1.16, written by Peter Selinger 2001-2019
</metadata>
<g transform="translate(0.000000,68.000000) scale(0.100000,-0.100000)"
fill="#000000" stroke="none">
<path d="M572 541 c-115 -16 -139 -31 -51 -31 l49 0 -7 -32 c-8 -44 -20 -57
-46 -53 -22 4 -22 3 -22 -120 0 -86 4 -128 13 -136 9 -10 12 -10 12 -1 0 7 7
12 15 12 28 0 15 -22 -46 -81 -86 -83 -55 -79 70 9 l64 45 -24 18 c-24 19 -24
19 49 19 57 0 72 -3 72 -15 0 -21 38 -19 44 3 3 9 6 71 8 136 l3 119 -28 10
c-16 5 -52 5 -94 -2 -37 -6 -69 -8 -73 -5 -3 3 5 14 18 24 26 21 28 36 6 48
-11 6 18 11 87 16 107 7 123 11 99 26 -21 13 -85 11 -218 -9z m142 -143 c3
-13 2 -26 -2 -29 -4 -4 -46 -10 -93 -13 l-86 -7 5 30 c4 32 14 35 123 39 41 2
47 -1 53 -20z m4 -82 c0 -22 -5 -24 -86 -30 -87 -7 -107 -2 -96 27 6 15 26 19
145 25 32 2 37 -1 37 -22z m2 -77 c0 -22 -4 -30 -14 -26 -7 3 -50 2 -95 -2
l-81 -7 0 28 c0 25 3 27 53 31 141 10 137 10 137 -24z"/>
<path d="M285 535 c-27 -7 -67 -14 -87 -14 -43 -1 -57 -16 -29 -31 15 -8 38
-5 92 10 40 11 75 18 77 15 5 -5 -45 -75 -62 -87 -5 -3 -16 -4 -25 -1 -9 3 -1
-9 17 -27 18 -18 30 -35 28 -38 -3 -2 -39 -7 -81 -11 -42 -3 -74 -10 -73 -16
2 -5 21 -8 43 -6 22 1 51 4 65 5 l25 1 3 -114 c3 -115 -5 -148 -30 -123 -7 7
-18 12 -26 12 -8 0 0 -14 19 -35 39 -41 53 -43 74 -12 11 18 14 51 12 150 -1
76 -6 127 -12 128 -14 1 36 17 59 18 15 1 17 -4 13 -29 -4 -16 -5 -30 -2 -30
9 0 85 42 90 50 9 15 -55 33 -98 27 -38 -5 -43 -3 -54 19 -11 23 -8 27 48 66
65 46 72 63 33 78 -31 12 -55 11 -119 -5z"/>
<path d="M676 152 c-7 -11 105 -123 118 -119 22 7 17 46 -8 68 -31 27 -104 60
-110 51z"/>
</g>
</svg>
