<?xml version="1.0" standalone="no"?>
<!DOCTYPE svg PUBLIC "-//W3C//DTD SVG 20010904//EN"
 "http://www.w3.org/TR/2001/REC-SVG-20010904/DTD/svg10.dtd">
<svg version="1.0" xmlns="http://www.w3.org/2000/svg"
 width="96.000000pt" height="68.000000pt" viewBox="0 0 96.000000 68.000000"
 preserveAspectRatio="xMidYMid meet">
<metadata>
Created by potrace 1.16, written by Peter Selinger 2001-2019
</metadata>
<g transform="translate(0.000000,68.000000) scale(0.100000,-0.100000)"
fill="#000000" stroke="none">
<path d="M400 596 c0 -22 40 -66 60 -66 23 0 35 30 17 47 -21 21 -77 34 -77
19z"/>
<path d="M659 546 c-9 -9 -354 -38 -386 -33 -31 5 -36 2 -58 -33 -31 -49 -33
-80 -5 -80 23 0 60 33 60 53 0 10 45 20 158 35 220 31 249 29 202 -13 -30 -27
-16 -34 42 -19 29 8 60 14 70 14 29 0 21 27 -15 54 -31 24 -57 32 -68 22z"/>
<path d="M430 455 c0 -20 -6 -25 -37 -30 -58 -10 -63 -15 -13 -12 34 1 45 -2
45 -13 0 -9 -11 -16 -30 -18 -73 -6 -81 -16 -18 -22 92 -7 69 -28 -40 -36 -60
-5 -85 -10 -78 -17 7 -7 45 -7 118 1 59 7 148 12 196 12 67 0 88 3 84 13 -3 8
-30 11 -96 10 -68 -1 -91 1 -88 10 2 7 27 16 55 21 66 11 68 29 2 24 -41 -2
-50 0 -50 13 0 12 13 18 50 21 28 3 53 8 57 12 18 17 -32 25 -79 12 -22 -7
-28 -5 -28 8 0 10 -9 16 -25 16 -20 0 -25 -5 -25 -25z"/>
<path d="M495 288 c-22 -5 -82 -10 -132 -11 -88 -2 -92 -3 -87 -22 16 -52 35
-86 44 -80 6 4 50 9 98 11 48 2 104 6 124 9 20 3 40 1 43 -5 12 -19 25 -10 54
37 l30 48 -22 12 c-26 14 -95 15 -152 1z m105 -23 c-1 -39 -12 -50 -51 -51
-27 -1 -39 3 -39 12 0 8 5 14 10 14 6 0 10 6 10 14 0 14 18 21 53 22 9 0 17
-5 17 -11z m-119 -12 c18 -18 3 -43 -25 -43 -25 0 -44 30 -31 50 7 12 41 8 56
-7z m-97 1 c9 -3 16 -17 16 -31 0 -22 -4 -24 -37 -21 -33 3 -38 7 -41 31 -3
23 0 27 22 27 13 0 31 -3 40 -6z"/>
<path d="M680 175 c0 -18 71 -77 86 -71 22 9 13 39 -16 52 -38 18 -70 26 -70
19z"/>
<path d="M460 151 c0 -14 41 -51 56 -51 20 0 25 15 11 32 -14 18 -67 33 -67
19z"/>
<path d="M320 135 c0 -8 18 -33 39 -54 29 -29 52 -42 90 -50 78 -16 216 -14
252 4 34 18 31 29 -14 50 -18 8 -43 22 -57 32 -23 18 -24 17 -16 -2 19 -48 16
-50 -78 -53 -100 -3 -164 18 -184 63 -13 28 -32 34 -32 10z"/>
<path d="M212 101 c-25 -44 -28 -71 -9 -71 30 0 63 62 51 94 -9 24 -18 20 -42
-23z"/>
</g>
</svg>
