<?xml version="1.0" standalone="no"?>
<!DOCTYPE svg PUBLIC "-//W3C//DTD SVG 20010904//EN"
 "http://www.w3.org/TR/2001/REC-SVG-20010904/DTD/svg10.dtd">
<svg version="1.0" xmlns="http://www.w3.org/2000/svg"
 width="90.000000pt" height="92.000000pt" viewBox="0 0 90.000000 92.000000"
 preserveAspectRatio="xMidYMid meet">
<metadata>
Created by potrace 1.16, written by Peter Selinger 2001-2019
</metadata>
<g transform="translate(0.000000,92.000000) scale(0.100000,-0.100000)"
fill="#000000" stroke="none">
<path d="M210 783 c0 -21 -13 -68 -29 -104 -27 -64 -137 -235 -167 -259 -8 -7
-14 -17 -14 -22 0 -16 60 25 104 72 32 34 48 44 66 41 30 -4 40 -17 40 -53 0
-23 -6 -29 -37 -37 -21 -6 -48 -11 -61 -11 -15 0 -22 -5 -19 -12 3 -9 23 -13
61 -12 54 1 56 0 57 -25 0 -14 2 -51 4 -82 l4 -57 -47 -13 c-26 -8 -68 -13
-94 -12 -27 0 -48 -1 -48 -4 0 -15 25 -45 48 -57 23 -12 30 -12 46 0 10 7 72
34 137 60 66 26 119 51 119 55 0 16 -16 17 -55 3 -66 -23 -66 -23 -63 68 l3
81 45 11 c56 14 54 30 -4 34 l-45 3 3 36 c3 33 8 38 41 48 21 5 40 15 42 21 7
22 -29 24 -99 4 -40 -11 -73 -18 -74 -17 -2 2 18 45 45 95 l48 93 34 -42 c25
-30 40 -41 52 -36 38 14 3 74 -54 92 -10 4 -19 14 -19 24 0 22 -31 51 -53 51
-13 0 -17 -9 -17 -37z"/>
<path d="M535 772 c-9 -49 -70 -170 -117 -232 -39 -52 -39 -62 1 -34 23 17 24
16 71 -37 40 -46 46 -57 37 -74 -5 -11 -57 -68 -115 -127 -58 -60 -102 -108
-97 -108 13 0 78 42 127 82 53 43 51 46 67 -61 11 -66 26 -95 39 -75 4 6 36
14 72 18 150 15 171 19 162 28 -9 9 4 73 27 131 16 41 14 45 -20 62 -28 15
-37 15 -119 -4 -48 -12 -99 -21 -114 -21 -26 0 -25 2 32 77 32 43 80 112 105
154 26 42 56 84 67 94 27 24 25 32 -11 54 -28 17 -36 18 -68 6 -20 -7 -55 -16
-78 -20 l-42 -7 22 40 c23 42 18 60 -24 82 -14 8 -18 4 -24 -28z m145 -117 c0
-10 -41 -87 -78 -149 -34 -58 -35 -58 -48 -35 -7 13 -31 33 -53 45 l-41 20 41
55 c33 43 48 55 78 60 49 8 101 10 101 4z m49 -344 c11 -7 12 -21 5 -67 -10
-65 -12 -66 -123 -79 l-61 -7 0 65 0 65 73 15 c90 19 89 18 106 8z"/>
<path d="M324 352 c-4 -15 -13 -40 -21 -56 -16 -32 -11 -30 44 13 24 19 30 29
23 42 -17 30 -39 31 -46 1z"/>
<path d="M90 329 c0 -13 39 -71 55 -81 16 -11 38 17 31 40 -4 11 -22 27 -40
36 -40 19 -46 20 -46 5z"/>
</g>
</svg>
