<?xml version="1.0" standalone="no"?>
<!DOCTYPE svg PUBLIC "-//W3C//DTD SVG 20010904//EN"
 "http://www.w3.org/TR/2001/REC-SVG-20010904/DTD/svg10.dtd">
<svg version="1.0" xmlns="http://www.w3.org/2000/svg"
 width="96.000000pt" height="68.000000pt" viewBox="0 0 96.000000 68.000000"
 preserveAspectRatio="xMidYMid meet">
<metadata>
Created by potrace 1.16, written by Peter Selinger 2001-2019
</metadata>
<g transform="translate(0.000000,68.000000) scale(0.100000,-0.100000)"
fill="#000000" stroke="none">
<path d="M291 524 c-15 -58 -56 -120 -140 -206 -42 -45 -59 -68 -47 -68 17 0
66 27 77 43 3 4 12 1 19 -8 8 -10 9 -15 1 -15 -6 0 -11 -4 -11 -10 0 -5 22
-10 49 -10 54 0 61 -8 61 -65 0 -45 -19 -57 -100 -63 -39 -2 -70 -8 -70 -13 0
-4 14 -17 30 -29 30 -21 32 -21 73 -5 74 31 189 66 195 61 2 -3 -6 -15 -19
-26 -23 -20 -23 -20 21 1 25 12 57 30 72 40 39 28 45 24 53 -30 7 -51 27 -82
40 -61 3 5 30 10 59 10 29 0 74 3 98 6 39 6 46 10 46 30 0 13 9 41 20 62 l20
39 -24 13 c-19 11 -38 11 -96 1 -125 -20 -138 -22 -138 -18 0 2 27 33 60 68
33 35 73 82 88 104 15 22 37 48 50 58 29 24 28 32 -6 46 -19 8 -36 9 -53 2
-23 -8 -78 -15 -103 -12 -5 1 -1 10 9 21 17 19 17 21 0 40 -25 28 -34 22 -55
-33 -17 -45 -66 -117 -99 -146 -14 -12 -13 -13 10 -7 20 4 32 -2 59 -29 20
-20 40 -33 49 -30 21 8 -57 -76 -101 -108 -21 -16 -38 -23 -38 -17 0 13 -45
10 -82 -5 -16 -6 -18 0 -18 53 l0 59 40 7 c65 10 45 33 -22 27 -13 -2 -18 5
-18 22 0 19 7 26 32 33 41 12 49 34 11 34 -15 0 -48 -5 -72 -11 -24 -5 -45 -8
-47 -6 -3 2 12 29 33 60 l37 56 29 -25 c33 -28 55 -31 64 -9 7 20 -21 51 -53
59 -13 4 -24 10 -24 15 0 14 -30 41 -45 41 -7 0 -18 -21 -24 -46z m419 -85 c0
-11 -44 -76 -80 -118 l-21 -24 -15 22 c-8 12 -19 19 -22 17 -4 -2 -18 3 -30
12 l-22 17 40 43 c38 39 43 42 95 42 32 0 55 -4 55 -11z m-422 -123 c5 -23
-14 -36 -50 -36 -35 0 -44 17 -22 41 22 25 67 22 72 -5z m469 -157 c-3 -22 -8
-43 -10 -46 -3 -2 -36 -9 -74 -13 -77 -10 -83 -6 -83 52 0 36 1 37 43 41 23 2
62 4 86 5 l44 2 -6 -41z"/>
<path d="M382 213 c-13 -43 -11 -48 16 -34 39 21 54 42 41 57 -21 26 -45 16
-57 -23z"/>
<path d="M186 208 c16 -30 49 -58 66 -58 26 0 23 35 -4 54 -27 20 -72 22 -62
4z"/>
</g>
</svg>
