<?xml version="1.0" standalone="no"?>
<!DOCTYPE svg PUBLIC "-//W3C//DTD SVG 20010904//EN"
 "http://www.w3.org/TR/2001/REC-SVG-20010904/DTD/svg10.dtd">
<svg version="1.0" xmlns="http://www.w3.org/2000/svg"
 width="96.000000pt" height="68.000000pt" viewBox="0 0 96.000000 68.000000"
 preserveAspectRatio="xMidYMid meet">
<metadata>
Created by potrace 1.16, written by Peter Selinger 2001-2019
</metadata>
<g transform="translate(0.000000,68.000000) scale(0.100000,-0.100000)"
fill="#000000" stroke="none">
<path d="M550 596 c0 -32 -2 -34 -47 -44 l-48 -10 43 -1 c41 -1 42 -2 37 -28
l-6 -28 20 27 c17 21 33 27 81 33 67 8 72 25 6 25 -37 0 -42 3 -42 21 1 13 -7
25 -21 30 -21 8 -23 5 -23 -25z"/>
<path d="M305 583 c13 -35 9 -38 -57 -41 -70 -3 -84 -13 -47 -33 15 -8 33 -8
64 0 57 14 65 14 65 -3 0 -7 7 -19 15 -26 13 -11 15 -8 15 18 0 24 6 32 30 41
38 13 38 16 -2 16 -27 0 -34 4 -36 23 -3 16 -10 22 -29 22 -20 0 -24 -4 -18
-17z"/>
</g>
</svg>
