<?xml version="1.0" standalone="no"?>
<!DOCTYPE svg PUBLIC "-//W3C//DTD SVG 20010904//EN"
 "http://www.w3.org/TR/2001/REC-SVG-20010904/DTD/svg10.dtd">
<svg version="1.0" xmlns="http://www.w3.org/2000/svg"
 width="90.000000pt" height="92.000000pt" viewBox="0 0 90.000000 92.000000"
 preserveAspectRatio="xMidYMid meet">
<metadata>
Created by potrace 1.16, written by Peter Selinger 2001-2019
</metadata>
<g transform="translate(0.000000,92.000000) scale(0.100000,-0.100000)"
fill="#000000" stroke="none">
<path d="M524 853 c-9 -52 -41 -128 -81 -192 -19 -29 -32 -56 -28 -59 7 -7
103 87 110 109 4 12 30 19 106 29 55 7 107 19 117 26 15 11 14 13 -10 24 -22
10 -39 10 -92 -4 -89 -22 -91 -21 -65 21 l22 36 -27 24 c-37 31 -44 29 -52
-14z"/>
<path d="M235 834 c-9 -53 -49 -138 -95 -205 -22 -33 -36 -59 -30 -59 12 0
130 115 130 127 0 6 35 13 78 16 95 8 122 15 122 33 0 22 -43 26 -106 10 -32
-8 -60 -13 -62 -11 -2 2 6 21 19 41 l22 37 -27 24 c-36 31 -43 29 -51 -13z"/>
<path d="M560 692 c0 -13 79 -102 91 -102 16 0 27 43 17 63 -13 25 -108 60
-108 39z"/>
<path d="M277 639 c12 -19 28 -38 36 -43 20 -13 47 0 47 22 0 26 -21 42 -66
49 l-38 6 21 -34z"/>
<path d="M490 570 c-19 -5 -81 -14 -137 -21 -57 -6 -103 -15 -103 -19 0 -14
30 -20 95 -20 l64 0 6 -34 c13 -68 11 -70 -115 -83 -63 -6 -141 -12 -173 -12
-65 -1 -72 -15 -22 -40 25 -12 44 -12 139 3 61 9 126 16 144 16 l32 0 -1 -87
c-2 -138 -5 -144 -76 -129 -33 8 -33 7 23 -50 49 -50 57 -55 71 -42 23 24 33
83 33 205 l0 113 172 2 c190 3 215 13 134 49 -40 17 -54 19 -103 10 -32 -6
-91 -13 -132 -17 l-74 -7 6 35 c3 23 0 43 -9 56 -13 19 -10 20 66 32 52 8 80
17 80 25 0 25 -51 31 -120 15z"/>
</g>
</svg>
