<?xml version="1.0" standalone="no"?>
<!DOCTYPE svg PUBLIC "-//W3C//DTD SVG 20010904//EN"
 "http://www.w3.org/TR/2001/REC-SVG-20010904/DTD/svg10.dtd">
<svg version="1.0" xmlns="http://www.w3.org/2000/svg"
 width="96.000000pt" height="68.000000pt" viewBox="0 0 96.000000 68.000000"
 preserveAspectRatio="xMidYMid meet">
<metadata>
Created by potrace 1.16, written by Peter Selinger 2001-2019
</metadata>
<g transform="translate(0.000000,68.000000) scale(0.100000,-0.100000)"
fill="#000000" stroke="none">
<path d="M245 533 c-11 -27 -39 -68 -67 -96 -36 -36 -47 -54 -43 -68 8 -23 15
-23 79 -4 l49 15 -19 -22 c-33 -39 -76 -78 -85 -78 -11 0 -11 -11 0 -28 7 -11
24 -9 90 13 64 22 84 25 96 15 14 -11 35 -6 35 9 0 12 -40 51 -51 51 -6 0 -8
-7 -5 -15 6 -18 -16 -28 -79 -39 l-40 -6 83 79 c56 53 83 85 80 98 -6 32 -35
27 -53 -11 -14 -28 -24 -36 -56 -41 -22 -4 -43 -4 -47 -1 -3 4 23 36 58 71 63
63 63 65 45 85 -30 33 -50 25 -70 -27z"/>
<path d="M575 531 c-11 -4 -55 -14 -97 -21 -76 -12 -111 -35 -45 -28 31 3 32
2 30 -35 -4 -68 -44 -180 -84 -237 -21 -29 -36 -56 -34 -59 10 -9 67 55 104
116 l38 63 25 -28 c47 -51 67 -86 54 -97 -33 -30 -86 -61 -140 -82 -60 -23
-60 -24 -19 -19 23 2 76 21 118 41 l77 37 43 -46 c38 -42 46 -46 87 -46 57 0
108 10 108 21 0 4 -18 13 -39 19 -51 13 -120 45 -149 68 l-24 18 31 46 c17 25
31 49 31 54 0 4 9 17 20 29 28 29 11 50 -40 49 -22 -1 -40 1 -40 5 0 3 14 30
30 60 17 30 29 55 28 56 -30 24 -76 30 -113 16z m35 -37 c0 -29 -23 -109 -34
-116 -6 -4 -26 -8 -45 -8 -34 0 -34 0 -26 38 4 20 8 49 8 64 0 28 11 34 70 37
18 1 27 -4 27 -15z m40 -146 c-1 -26 -39 -98 -52 -98 -12 0 -88 81 -88 94 0 3
17 7 38 9 80 8 102 7 102 -5z"/>
<path d="M300 242 c0 -5 9 -17 21 -28 17 -15 22 -16 29 -4 5 9 5 19 -2 27 -12
14 -48 18 -48 5z"/>
<path d="M226 195 c17 -27 44 -34 44 -12 0 19 -21 37 -42 37 -17 0 -17 -1 -2
-25z"/>
<path d="M105 190 c-7 -12 51 -80 68 -80 4 0 7 12 5 27 -3 31 -61 72 -73 53z"/>
</g>
</svg>
