<?xml version="1.0" standalone="no"?>
<!DOCTYPE svg PUBLIC "-//W3C//DTD SVG 20010904//EN"
 "http://www.w3.org/TR/2001/REC-SVG-20010904/DTD/svg10.dtd">
<svg version="1.0" xmlns="http://www.w3.org/2000/svg"
 width="96.000000pt" height="68.000000pt" viewBox="0 0 96.000000 68.000000"
 preserveAspectRatio="xMidYMid meet">
<metadata>
Created by potrace 1.16, written by Peter Selinger 2001-2019
</metadata>
<g transform="translate(0.000000,68.000000) scale(0.100000,-0.100000)"
fill="#000000" stroke="none">
<path d="M521 607 c-6 -6 -11 -19 -11 -30 0 -19 -38 -109 -50 -117 -13 -9 -31
-50 -22 -50 5 0 22 15 39 33 29 32 38 35 144 51 139 22 153 26 117 36 -16 5
-58 0 -113 -12 -47 -11 -88 -18 -91 -15 -3 3 4 20 15 38 26 42 26 51 2 66 -14
9 -21 9 -30 0z"/>
<path d="M220 580 c0 -14 30 -62 48 -77 8 -6 20 -9 28 -6 23 9 16 50 -12 72
-28 22 -64 28 -64 11z"/>
<path d="M245 474 c-66 -13 -122 -23 -124 -24 -2 0 3 -7 10 -16 11 -13 25 -15
72 -10 l59 6 -6 -32 c-11 -57 -52 -132 -100 -186 -27 -29 -42 -52 -34 -52 24
0 109 92 139 153 27 53 31 57 57 51 15 -4 31 -10 36 -15 10 -9 -7 -86 -35
-148 -18 -40 -21 -43 -49 -37 l-30 6 15 -30 c15 -30 31 -37 50 -22 22 15 62
90 79 147 10 33 23 66 28 73 19 22 -10 42 -62 42 -48 0 -48 0 -45 33 2 29 6
33 46 40 102 19 96 17 75 33 -25 18 -34 17 -181 -12z"/>
<path d="M640 428 c-25 -5 -72 -10 -104 -11 l-60 -2 3 -60 c2 -67 -22 -147
-64 -209 -13 -19 -18 -33 -10 -30 25 10 71 79 90 135 l18 56 60 7 c33 3 77 6
99 6 28 0 40 5 45 18 3 9 15 29 25 44 18 26 18 27 -4 42 -25 18 -33 18 -98 4z
m50 -42 c0 -35 -19 -45 -99 -52 l-73 -7 4 29 c2 24 10 31 43 41 22 6 59 11 83
12 38 1 42 -1 42 -23z"/>
<path d="M545 218 c9 -101 10 -104 60 -127 49 -23 105 -26 175 -10 67 15 71
22 47 72 l-20 42 -11 -33 c-6 -18 -18 -37 -26 -42 -20 -13 -132 -13 -164 0
-24 9 -25 13 -25 81 1 69 -7 88 -35 89 -4 0 -5 -33 -1 -72z"/>
<path d="M693 250 c-18 -10 -47 -23 -65 -29 l-33 -9 31 -1 c17 -1 44 3 60 8
16 5 42 12 59 16 29 6 29 7 11 21 -25 18 -25 18 -63 -6z"/>
</g>
</svg>
