<?xml version="1.0" standalone="no"?>
<!DOCTYPE svg PUBLIC "-//W3C//DTD SVG 20010904//EN"
 "http://www.w3.org/TR/2001/REC-SVG-20010904/DTD/svg10.dtd">
<svg version="1.0" xmlns="http://www.w3.org/2000/svg"
 width="90.000000pt" height="92.000000pt" viewBox="0 0 90.000000 92.000000"
 preserveAspectRatio="xMidYMid meet">
<metadata>
Created by potrace 1.16, written by Peter Selinger 2001-2019
</metadata>
<g transform="translate(0.000000,92.000000) scale(0.100000,-0.100000)"
fill="#000000" stroke="none">
<path d="M379 903 c-1 -5 0 -20 1 -35 1 -15 -6 -52 -14 -82 -18 -60 -15 -59
-149 -72 -75 -8 -91 -18 -52 -36 18 -8 43 -9 90 -2 36 6 65 8 65 5 0 -2 -14
-25 -30 -51 -41 -64 -131 -148 -219 -205 -40 -26 -70 -49 -68 -51 9 -9 119 39
177 78 65 43 136 123 179 200 36 67 55 63 115 -22 26 -38 82 -101 122 -140
l74 -72 99 4 c91 3 123 10 109 23 -3 3 -50 22 -104 43 -54 21 -124 54 -154 74
-76 51 -161 128 -154 139 3 5 40 9 82 9 121 0 152 17 88 48 -23 12 -42 11
-123 -3 -52 -9 -97 -14 -100 -12 -2 3 8 30 22 62 14 32 25 61 25 66 0 9 -53
39 -70 39 -5 0 -10 -3 -11 -7z"/>
<path d="M357 496 l6 -64 -54 -4 c-30 -2 -66 1 -81 6 -36 13 -44 4 -23 -27 9
-14 22 -66 30 -116 7 -50 16 -94 19 -99 3 -5 27 -7 54 -4 l49 4 11 -44 c14
-56 34 -74 97 -88 90 -21 280 6 280 40 0 25 -49 35 -107 21 -29 -7 -86 -14
-126 -15 -82 -1 -102 12 -102 66 0 26 2 28 44 28 25 0 48 -4 51 -10 18 -29 38
2 84 127 15 43 31 86 35 95 13 29 -46 51 -116 44 -33 -4 -67 -10 -75 -13 -14
-6 -15 1 -10 45 6 55 -5 72 -51 72 -18 0 -19 -5 -15 -64z m183 -113 l0 -38
-65 0 -65 0 0 32 c0 37 8 41 78 42 l52 1 0 -37z m-180 -12 l0 -39 -45 -4 c-25
-2 -45 0 -45 3 0 4 -3 20 -6 37 -6 30 -5 31 32 35 22 2 45 4 52 5 8 1 12 -12
12 -37z m170 -58 c0 -5 -5 -25 -11 -46 -7 -28 -15 -37 -26 -33 -8 3 -30 6 -49
6 -32 0 -34 2 -34 34 0 32 3 35 33 39 59 7 87 7 87 0z m-170 -48 c0 -27 -4
-35 -17 -35 -10 0 -28 -3 -39 -6 -19 -5 -22 -1 -26 35 l-4 41 43 0 c42 0 43 0
43 -35z"/>
</g>
</svg>
