<?xml version="1.0" standalone="no"?>
<!DOCTYPE svg PUBLIC "-//W3C//DTD SVG 20010904//EN"
 "http://www.w3.org/TR/2001/REC-SVG-20010904/DTD/svg10.dtd">
<svg version="1.0" xmlns="http://www.w3.org/2000/svg"
 width="96.000000pt" height="68.000000pt" viewBox="0 0 96.000000 68.000000"
 preserveAspectRatio="xMidYMid meet">
<metadata>
Created by potrace 1.16, written by Peter Selinger 2001-2019
</metadata>
<g transform="translate(0.000000,68.000000) scale(0.100000,-0.100000)"
fill="#000000" stroke="none">
<path d="M534 399 c-3 -5 0 -9 5 -9 6 0 11 -7 11 -15 0 -8 6 -12 13 -9 8 3 13
-4 14 -18 2 -18 0 -20 -7 -8 -5 8 -10 10 -10 4 0 -6 -10 -16 -22 -23 l-23 -11
23 6 c22 5 52 -14 52 -35 0 -6 5 -11 11 -11 5 0 7 -4 4 -10 -3 -5 -2 -10 3
-10 5 0 12 -9 15 -21 4 -13 10 -18 18 -13 8 4 10 3 5 -5 -11 -18 69 -92 90
-84 11 4 15 2 11 -4 -9 -14 33 -41 69 -45 28 -3 29 -2 30 45 0 31 -3 47 -12
47 -7 0 -10 -8 -7 -18 2 -10 -5 -26 -18 -37 -12 -11 -19 -14 -15 -7 5 8 1 12
-11 12 -10 0 -27 7 -37 15 -10 8 -23 12 -27 9 -5 -3 -9 0 -9 6 0 7 -21 36 -46
66 -26 30 -43 54 -38 54 4 0 3 5 -4 12 -7 7 -12 21 -12 33 0 12 -5 26 -12 33
-7 7 -9 12 -4 12 4 0 0 10 -8 22 -17 23 -42 32 -52 17z m303 -301 c-3 -8 -6
-5 -6 6 -1 11 2 17 5 13 3 -3 4 -12 1 -19z"/>
<path d="M660 345 c-60 -17 -29 -18 40 0 30 7 44 13 30 13 -14 0 -45 -6 -70
-13z"/>
<path d="M470 310 c-8 -5 -10 -10 -5 -10 6 0 17 5 25 10 8 5 11 10 5 10 -5 0
-17 -5 -25 -10z"/>
<path d="M806 133 c-6 -14 -5 -15 5 -6 7 7 10 15 7 18 -3 3 -9 -2 -12 -12z"/>
</g>
</svg>
