<?xml version="1.0" standalone="no"?>
<!DOCTYPE svg PUBLIC "-//W3C//DTD SVG 20010904//EN"
 "http://www.w3.org/TR/2001/REC-SVG-20010904/DTD/svg10.dtd">
<svg version="1.0" xmlns="http://www.w3.org/2000/svg"
 width="96.000000pt" height="68.000000pt" viewBox="0 0 96.000000 68.000000"
 preserveAspectRatio="xMidYMid meet">
<metadata>
Created by potrace 1.16, written by Peter Selinger 2001-2019
</metadata>
<g transform="translate(0.000000,68.000000) scale(0.100000,-0.100000)"
fill="#000000" stroke="none">
<path d="M467 570 l6 -70 -61 0 -61 0 5 29 c5 23 2 32 -14 40 -33 18 -40 13
-46 -31 -14 -95 -15 -93 24 -91 19 1 100 11 180 22 80 11 148 20 151 21 4 0 9
-9 12 -20 7 -27 35 -25 46 3 12 31 31 92 31 99 0 10 -58 30 -69 24 -5 -4 -7
-21 -4 -40 l5 -33 -53 -6 c-96 -12 -92 -14 -84 48 6 53 5 55 -20 65 -52 20
-54 16 -48 -60z"/>
<path d="M515 428 c-77 -9 -156 -17 -175 -17 -50 1 -50 1 -41 -24 12 -32 -4
-122 -34 -182 -13 -28 -45 -71 -70 -96 -71 -70 -51 -69 38 1 47 38 89 122 117
238 10 37 14 42 39 42 16 0 43 3 60 6 26 6 32 3 40 -17 13 -38 3 -49 -48 -51
l-46 -1 45 -4 c53 -5 64 -14 55 -42 -5 -16 -15 -21 -39 -21 -19 0 -48 -3 -67
-7 -61 -12 -3 -19 94 -11 51 3 128 9 172 11 44 2 78 8 75 13 -3 5 -48 9 -100
9 -88 0 -95 1 -95 20 0 17 10 22 58 29 71 11 75 28 6 25 -52 -3 -52 -3 -54 29
-3 31 -2 32 40 32 80 0 135 20 88 32 -10 2 -81 -4 -158 -14z"/>
<path d="M490 200 c15 -27 12 -30 -47 -40 l-48 -8 53 -1 c48 -1 52 -3 52 -25
0 -28 -25 -35 -147 -38 -72 -2 -94 -12 -50 -23 12 -3 87 -1 167 4 80 6 191 11
248 11 59 0 102 4 102 10 0 17 -61 26 -134 18 -131 -13 -146 -11 -146 16 0 19
6 24 38 30 20 3 49 6 65 6 15 0 27 5 27 11 0 8 -18 10 -59 6 -56 -5 -60 -3
-63 16 -2 17 -11 23 -36 25 -31 3 -33 2 -22 -18z"/>
</g>
</svg>
