<?xml version="1.0" standalone="no"?>
<!DOCTYPE svg PUBLIC "-//W3C//DTD SVG 20010904//EN"
 "http://www.w3.org/TR/2001/REC-SVG-20010904/DTD/svg10.dtd">
<svg version="1.0" xmlns="http://www.w3.org/2000/svg"
 width="90.000000pt" height="92.000000pt" viewBox="0 0 90.000000 92.000000"
 preserveAspectRatio="xMidYMid meet">
<metadata>
Created by potrace 1.16, written by Peter Selinger 2001-2019
</metadata>
<g transform="translate(0.000000,92.000000) scale(0.100000,-0.100000)"
fill="#000000" stroke="none">
<path d="M370 883 c0 -6 13 -28 29 -50 l28 -39 -106 -12 c-59 -7 -121 -12
-139 -12 -38 0 -42 -16 -7 -32 19 -9 42 -8 92 1 37 7 105 15 152 18 l84 6 -19
-32 c-37 -63 -46 -66 -108 -36 -31 15 -66 25 -83 23 -25 -3 -21 -6 40 -37 38
-18 65 -37 60 -41 -21 -21 -156 -90 -233 -120 -128 -49 -131 -51 -75 -45 78 9
207 53 280 96 37 21 71 39 75 39 5 0 42 -25 82 -55 107 -81 128 -89 212 -82
134 12 173 28 99 41 -81 14 -221 59 -292 93 l-74 35 47 46 c26 24 45 51 42 58
-4 10 14 14 76 16 93 3 112 19 53 44 -29 12 -47 13 -92 4 -31 -5 -71 -10 -88
-10 -28 0 -32 3 -28 23 3 14 -3 29 -15 40 -22 20 -92 35 -92 20z"/>
<path d="M390 570 c0 -16 -79 -98 -102 -105 -13 -5 -18 -14 -16 -28 3 -24 32
-28 97 -14 33 7 32 5 -30 -43 -35 -27 -70 -50 -76 -50 -17 0 -16 -25 1 -39 12
-10 27 -9 70 5 31 10 59 14 63 10 4 -4 8 -49 8 -99 l0 -92 -37 2 -37 2 42 -43
c40 -41 43 -42 58 -25 24 26 34 239 12 256 -12 10 -9 13 24 22 54 15 57 15 87
-20 31 -34 50 -34 54 2 4 34 -30 75 -74 89 -40 14 -53 8 -34 -15 7 -9 11 -17
9 -20 -8 -7 -147 -27 -170 -23 -16 2 5 18 80 62 56 33 104 63 106 67 3 4 -4
18 -15 30 -20 24 -21 24 -35 4 -41 -58 -38 -56 -100 -53 l-60 3 62 40 c66 42
75 58 44 75 -25 13 -31 13 -31 0z"/>
<path d="M562 198 c80 -99 90 -109 105 -97 20 17 16 66 -8 88 -26 24 -102 61
-124 61 -11 0 -3 -16 27 -52z"/>
<path d="M242 208 c-7 -18 -30 -52 -52 -75 -21 -24 -34 -43 -27 -43 24 0 91
46 120 82 25 31 28 40 17 53 -21 25 -45 18 -58 -17z"/>
</g>
</svg>
