<?xml version="1.0" standalone="no"?>
<!DOCTYPE svg PUBLIC "-//W3C//DTD SVG 20010904//EN"
 "http://www.w3.org/TR/2001/REC-SVG-20010904/DTD/svg10.dtd">
<svg version="1.0" xmlns="http://www.w3.org/2000/svg"
 width="90.000000pt" height="92.000000pt" viewBox="0 0 90.000000 92.000000"
 preserveAspectRatio="xMidYMid meet">
<metadata>
Created by potrace 1.16, written by Peter Selinger 2001-2019
</metadata>
<g transform="translate(0.000000,92.000000) scale(0.100000,-0.100000)"
fill="#000000" stroke="none">
<path d="M555 749 c-49 -10 -129 -22 -177 -25 -49 -4 -88 -8 -88 -10 0 -2 9
-18 19 -36 11 -18 26 -78 35 -132 16 -100 29 -133 45 -108 5 8 23 12 47 10 38
-3 39 -4 42 -47 4 -53 -5 -61 -70 -61 -46 0 -61 -11 -36 -26 6 -4 33 -7 60 -6
l48 1 0 -48 c0 -47 -1 -49 -32 -55 -18 -4 -75 -9 -125 -13 -51 -3 -93 -10 -93
-15 0 -5 17 -16 37 -24 31 -14 46 -14 93 -4 30 7 143 14 250 17 220 4 242 7
234 27 -11 28 -79 46 -136 37 -29 -5 -84 -12 -121 -16 l-68 -6 7 48 c8 61 10
63 42 63 52 0 102 13 102 26 0 19 -35 27 -91 19 l-49 -7 0 50 0 50 48 4 c26 2
50 0 53 -5 4 -5 15 -6 26 -3 16 5 29 34 57 129 21 67 39 129 42 137 6 19 -48
50 -84 49 -15 -1 -67 -10 -117 -20z m110 -29 c3 -6 3 -29 0 -53 l-7 -42 -63
-1 -63 0 2 47 1 48 40 4 c22 2 50 4 62 5 12 1 25 -3 28 -8z m-197 -71 l3 -46
-43 -6 c-23 -3 -44 -4 -46 -2 -3 2 -7 24 -9 49 -6 49 2 56 62 53 28 -2 30 -5
33 -48z m178 -95 c-3 -25 -8 -49 -10 -52 -2 -4 -27 -5 -55 -4 l-51 4 0 38 0
38 53 10 c28 5 56 10 61 11 5 0 6 -20 2 -45z m-174 4 c2 -6 2 -24 0 -39 -3
-21 -11 -29 -34 -35 -35 -7 -48 6 -48 48 0 27 3 28 67 37 6 0 13 -4 15 -11z"/>
<path d="M120 751 c0 -17 90 -91 110 -91 26 0 36 24 22 54 -14 31 -132 64
-132 37z"/>
<path d="M40 563 c0 -20 87 -103 107 -103 43 0 34 67 -12 88 -36 17 -95 25
-95 15z"/>
<path d="M185 375 c-22 -39 -61 -91 -87 -118 -27 -26 -48 -52 -48 -57 0 -23
33 -90 45 -90 6 0 24 30 38 68 14 37 42 104 62 150 48 109 42 137 -10 47z"/>
</g>
</svg>
