<?xml version="1.0" standalone="no"?>
<!DOCTYPE svg PUBLIC "-//W3C//DTD SVG 20010904//EN"
 "http://www.w3.org/TR/2001/REC-SVG-20010904/DTD/svg10.dtd">
<svg version="1.0" xmlns="http://www.w3.org/2000/svg"
 width="96.000000pt" height="68.000000pt" viewBox="0 0 96.000000 68.000000"
 preserveAspectRatio="xMidYMid meet">
<metadata>
Created by potrace 1.16, written by Peter Selinger 2001-2019
</metadata>
<g transform="translate(0.000000,68.000000) scale(0.100000,-0.100000)"
fill="#000000" stroke="none">
<path d="M181 536 c2 -2 21 -18 43 -35 48 -38 76 -41 76 -6 0 19 -7 26 -37 34
-38 11 -90 15 -82 7z"/>
<path d="M120 395 c0 -21 59 -65 86 -65 31 0 33 35 2 51 -39 21 -88 29 -88 14z"/>
<path d="M241 267 c-17 -25 -51 -63 -77 -86 -45 -39 -46 -42 -34 -71 22 -52
41 -37 99 80 58 116 63 151 12 77z"/>
</g>
</svg>
