<?xml version="1.0" standalone="no"?>
<!DOCTYPE svg PUBLIC "-//W3C//DTD SVG 20010904//EN"
 "http://www.w3.org/TR/2001/REC-SVG-20010904/DTD/svg10.dtd">
<svg version="1.0" xmlns="http://www.w3.org/2000/svg"
 width="96.000000pt" height="68.000000pt" viewBox="0 0 96.000000 68.000000"
 preserveAspectRatio="xMidYMid meet">
<metadata>
Created by potrace 1.16, written by Peter Selinger 2001-2019
</metadata>
<g transform="translate(0.000000,68.000000) scale(0.100000,-0.100000)"
fill="#000000" stroke="none">
<path d="M300 573 c0 -23 -42 -83 -58 -83 -7 0 -29 11 -49 25 -51 34 -56 21
-8 -20 l40 -35 -50 -45 -50 -46 55 28 c30 15 58 29 61 31 26 12 41 -225 19
-284 -10 -24 -14 -26 -51 -21 l-41 5 33 -34 c42 -43 69 -44 94 -2 27 46 26
227 -2 309 l-19 56 43 49 c46 52 52 68 27 78 -27 11 -44 7 -44 -11z"/>
</g>
</svg>
