<?xml version="1.0" standalone="no"?>
<!DOCTYPE svg PUBLIC "-//W3C//DTD SVG 20010904//EN"
 "http://www.w3.org/TR/2001/REC-SVG-20010904/DTD/svg10.dtd">
<svg version="1.0" xmlns="http://www.w3.org/2000/svg"
 width="96.000000pt" height="68.000000pt" viewBox="0 0 96.000000 68.000000"
 preserveAspectRatio="xMidYMid meet">
<metadata>
Created by potrace 1.16, written by Peter Selinger 2001-2019
</metadata>
<g transform="translate(0.000000,68.000000) scale(0.100000,-0.100000)"
fill="#000000" stroke="none">
<path d="M180 544 c0 -18 55 -64 77 -64 26 0 32 30 11 48 -17 13 -88 27 -88
16z"/>
<path d="M176 379 c-79 -25 -82 -31 -16 -29 74 3 73 4 55 -30 -15 -29 -14 -32
10 -67 14 -21 25 -48 25 -60 0 -22 -4 -23 -75 -23 -41 0 -75 -4 -75 -8 0 -24
27 -31 104 -25 77 5 90 3 255 -47 118 -35 184 -50 206 -47 43 7 178 47 173 52
-2 2 -80 8 -175 14 -155 10 -251 24 -354 51 -33 9 -35 12 -31 41 3 23 -2 37
-23 59 l-28 29 38 42 c36 40 37 43 20 56 -24 16 -36 16 -109 -8z"/>
</g>
</svg>
