<?xml version="1.0" standalone="no"?>
<!DOCTYPE svg PUBLIC "-//W3C//DTD SVG 20010904//EN"
 "http://www.w3.org/TR/2001/REC-SVG-20010904/DTD/svg10.dtd">
<svg version="1.0" xmlns="http://www.w3.org/2000/svg"
 width="90.000000pt" height="92.000000pt" viewBox="0 0 90.000000 92.000000"
 preserveAspectRatio="xMidYMid meet">
<metadata>
Created by potrace 1.16, written by Peter Selinger 2001-2019
</metadata>
<g transform="translate(0.000000,92.000000) scale(0.100000,-0.100000)"
fill="#000000" stroke="none">
<path d="M477 832 c-93 -16 -106 -34 -25 -36 41 -1 43 -3 46 -32 3 -28 0 -32
-29 -38 -49 -9 -147 -7 -154 4 -13 20 -22 8 -40 -49 -17 -58 -16 -91 4 -91 14
0 41 54 41 81 0 14 5 19 15 16 8 -4 48 0 90 7 l75 13 0 -82 c0 -86 5 -102 27
-84 9 8 13 36 13 90 l0 78 33 5 c17 3 60 8 95 11 69 7 73 2 47 -49 -15 -28
-14 -28 7 -22 13 3 40 9 61 12 55 10 58 31 12 71 -31 27 -45 32 -67 28 -16 -4
-64 -12 -108 -19 l-80 -13 3 36 c4 35 6 36 56 44 32 6 51 13 48 20 -5 17 -69
17 -170 -1z"/>
<path d="M120 783 c0 -5 19 -31 43 -58 49 -55 77 -57 77 -5 0 26 -6 33 -33 45
-49 20 -87 28 -87 18z"/>
<path d="M606 669 l-29 -31 49 7 c27 4 51 9 53 11 5 5 -29 44 -38 44 -3 0 -19
-14 -35 -31z"/>
<path d="M372 661 c-10 -6 -7 -12 12 -24 33 -22 56 -21 56 2 0 27 -40 40 -68
22z"/>
<path d="M584 601 c10 -16 77 -43 92 -37 12 4 12 10 4 26 -8 15 -21 20 -56 20
-25 0 -43 -4 -40 -9z"/>
<path d="M401 589 c-24 -5 -46 -11 -49 -13 -7 -8 18 -36 32 -36 14 0 73 47 66
52 -3 3 -25 1 -49 -3z"/>
<path d="M78 529 c59 -57 87 -61 87 -14 0 24 -7 33 -35 47 -19 10 -51 18 -70
18 l-35 0 53 -51z"/>
<path d="M426 515 c5 -31 4 -35 -14 -35 -11 0 -27 -3 -35 -6 -11 -4 -16 2 -19
18 -2 15 -11 24 -27 26 -21 3 -23 1 -17 -22 5 -21 2 -27 -19 -32 -30 -7 -23
-24 9 -24 17 0 25 -8 32 -31 5 -17 14 -30 19 -30 11 0 29 -28 23 -34 -2 -3
-28 -5 -56 -6 -49 -2 -64 -10 -43 -23 5 -3 12 -21 15 -40 6 -33 8 -34 46 -29
35 5 40 3 40 -15 0 -16 -9 -21 -47 -26 -105 -14 -123 -18 -123 -27 0 -21 103
-22 157 -2 11 4 12 -3 8 -33 -7 -43 9 -99 25 -89 5 3 10 21 10 39 0 19 3 47 6
63 5 28 10 31 56 36 28 4 53 9 57 12 13 13 -27 25 -66 20 -39 -6 -43 -4 -43
14 0 18 6 21 46 21 39 0 45 2 40 18 -4 12 1 26 14 37 11 10 20 24 20 31 0 19
-47 28 -85 17 -29 -9 -34 -8 -38 8 -4 15 0 19 19 19 16 0 22 4 18 14 -9 23 14
54 41 58 33 4 33 22 1 26 -16 2 -23 8 -20 17 5 12 -30 45 -49 45 -4 0 -5 -16
-1 -35z m-8 -82 c-4 -23 -58 -31 -58 -9 0 13 16 22 48 25 8 0 12 -7 10 -16z
m62 -107 c0 -20 -16 -36 -36 -36 -17 0 -24 6 -24 20 0 16 7 20 30 20 17 0 30
-2 30 -4z m-102 -28 c-4 -31 -58 -40 -58 -9 0 20 12 29 43 30 14 1 18 -5 15
-21z"/>
<path d="M690 523 c-25 -8 -64 -12 -87 -10 -47 5 -58 0 -42 -20 17 -19 12
-217 -6 -288 -9 -33 -29 -79 -46 -103 l-30 -44 32 19 c37 22 74 82 88 141 5
24 11 45 13 46 1 2 32 6 67 10 l64 6 -7 -67 c-4 -36 -10 -71 -13 -76 -3 -5
-21 -7 -39 -4 -31 5 -33 4 -22 -11 70 -96 78 -99 104 -49 14 26 18 64 19 212
1 99 5 189 9 200 5 16 0 24 -23 38 -16 9 -31 17 -33 16 -1 -1 -23 -8 -48 -16z
m35 -35 c2 -7 6 -28 9 -45 4 -32 3 -33 -32 -33 -21 0 -47 -3 -59 -6 -21 -6
-23 -3 -23 35 0 34 4 41 23 45 50 11 62 14 70 15 4 0 10 -5 12 -11z m13 -145
l0 -38 -65 -2 -64 -3 3 33 c3 28 7 33 38 38 82 15 89 13 88 -28z"/>
<path d="M210 429 c0 -21 -108 -174 -139 -197 l-31 -22 18 -47 c22 -60 38 -65
58 -16 8 21 38 90 65 154 51 119 56 139 39 139 -5 0 -10 -5 -10 -11z"/>
</g>
</svg>
