<?xml version="1.0" standalone="no"?>
<!DOCTYPE svg PUBLIC "-//W3C//DTD SVG 20010904//EN"
 "http://www.w3.org/TR/2001/REC-SVG-20010904/DTD/svg10.dtd">
<svg version="1.0" xmlns="http://www.w3.org/2000/svg"
 width="96.000000pt" height="68.000000pt" viewBox="0 0 96.000000 68.000000"
 preserveAspectRatio="xMidYMid meet">
<metadata>
Created by potrace 1.16, written by Peter Selinger 2001-2019
</metadata>
<g transform="translate(0.000000,68.000000) scale(0.100000,-0.100000)"
fill="#000000" stroke="none">
<path d="M263 317 c-63 -18 -69 -27 -54 -92 13 -56 19 -63 37 -45 6 6 34 13
62 17 28 3 49 10 46 15 -3 4 2 28 11 52 10 25 14 49 10 55 -8 14 -57 13 -112
-2z m55 -49 c-3 -39 -6 -43 -36 -49 -37 -8 -39 -6 -44 41 -3 37 -5 36 75 49 5
0 7 -18 5 -41z"/>
</g>
</svg>
