<?xml version="1.0" standalone="no"?>
<!DOCTYPE svg PUBLIC "-//W3C//DTD SVG 20010904//EN"
 "http://www.w3.org/TR/2001/REC-SVG-20010904/DTD/svg10.dtd">
<svg version="1.0" xmlns="http://www.w3.org/2000/svg"
 width="96.000000pt" height="68.000000pt" viewBox="0 0 96.000000 68.000000"
 preserveAspectRatio="xMidYMid meet">
<metadata>
Created by potrace 1.16, written by Peter Selinger 2001-2019
</metadata>
<g transform="translate(0.000000,68.000000) scale(0.100000,-0.100000)"
fill="#000000" stroke="none">
<path d="M575 538 c-15 -12 -55 -37 -89 -55 l-61 -33 45 6 c25 4 47 10 50 13
3 4 31 15 63 26 80 27 86 32 63 50 -26 20 -38 19 -71 -7z"/>
<path d="M280 504 c-36 -7 -82 -15 -103 -19 -52 -8 -37 -25 24 -25 27 0 49 -3
49 -8 0 -22 -99 -174 -143 -220 -45 -46 -49 -52 -29 -52 13 0 44 19 72 46 l49
46 6 -29 c10 -47 26 -78 33 -66 4 6 33 14 64 18 33 4 55 11 52 17 -3 5 2 30
11 55 15 38 15 47 4 54 -13 9 -64 6 -117 -8 -22 -5 -21 -1 17 60 23 36 40 71
39 78 -2 8 14 16 45 22 26 5 47 13 47 18 0 9 -34 30 -47 28 -4 -1 -37 -8 -73
-15z m38 -236 c-3 -42 -4 -43 -40 -46 -35 -3 -38 -1 -39 22 -1 14 -2 32 -3 39
-1 10 16 16 77 26 5 0 7 -18 5 -41z"/>
<path d="M520 446 c0 -8 11 -28 25 -44 14 -17 25 -32 25 -35 0 -3 -28 -8 -62
-12 -76 -9 -101 -19 -70 -29 12 -4 61 0 108 9 47 9 88 14 91 12 6 -7 -131
-123 -166 -142 -17 -8 -53 -15 -82 -15 -45 0 -50 -2 -39 -16 10 -12 25 -14 64
-9 55 7 68 4 218 -58 83 -35 89 -36 130 -23 24 7 56 20 72 27 l30 14 -30 6
c-16 4 -59 7 -95 8 -61 1 -225 35 -241 50 -4 4 9 15 30 26 46 23 202 137 202
146 0 7 -56 29 -62 25 -1 -2 -20 -6 -40 -10 -36 -6 -38 -5 -38 18 0 15 -11 33
-26 45 -31 25 -44 26 -44 7z"/>
</g>
</svg>
