<?xml version="1.0" standalone="no"?>
<!DOCTYPE svg PUBLIC "-//W3C//DTD SVG 20010904//EN"
 "http://www.w3.org/TR/2001/REC-SVG-20010904/DTD/svg10.dtd">
<svg version="1.0" xmlns="http://www.w3.org/2000/svg"
 width="96.000000pt" height="68.000000pt" viewBox="0 0 96.000000 68.000000"
 preserveAspectRatio="xMidYMid meet">
<metadata>
Created by potrace 1.16, written by Peter Selinger 2001-2019
</metadata>
<g transform="translate(0.000000,68.000000) scale(0.100000,-0.100000)"
fill="#000000" stroke="none">
<path d="M350 472 c0 -5 17 -14 38 -20 33 -10 48 -27 108 -112 104 -152 141
-201 163 -217 15 -10 44 -13 103 -11 l83 3 -95 47 c-108 53 -132 74 -236 204
-60 75 -81 95 -112 103 -45 13 -52 13 -52 3z"/>
<path d="M297 343 c-2 -5 -7 -21 -11 -36 -7 -31 -105 -133 -167 -174 -22 -14
-39 -28 -39 -31 0 -13 68 12 120 44 58 36 170 143 170 162 0 23 -63 53 -73 35z"/>
</g>
</svg>
