<?xml version="1.0" standalone="no"?>
<!DOCTYPE svg PUBLIC "-//W3C//DTD SVG 20010904//EN"
 "http://www.w3.org/TR/2001/REC-SVG-20010904/DTD/svg10.dtd">
<svg version="1.0" xmlns="http://www.w3.org/2000/svg"
 width="90.000000pt" height="92.000000pt" viewBox="0 0 90.000000 92.000000"
 preserveAspectRatio="xMidYMid meet">
<metadata>
Created by potrace 1.16, written by Peter Selinger 2001-2019
</metadata>
<g transform="translate(0.000000,92.000000) scale(0.100000,-0.100000)"
fill="#000000" stroke="none">
<path d="M374 899 c-3 -6 -1 -16 5 -22 6 -6 11 -37 11 -68 l0 -58 -42 -5 c-24
-3 -54 -7 -67 -8 -14 -2 -26 -8 -28 -15 -6 -16 57 -27 102 -19 32 6 35 5 35
-18 0 -13 2 -31 5 -39 6 -15 -47 -23 -244 -36 -55 -3 -96 -11 -98 -17 -6 -17
52 -37 89 -31 18 2 78 11 133 20 55 9 128 18 163 20 l62 3 0 -38 c0 -42 -24
-108 -43 -120 -7 -4 -26 -8 -43 -8 -29 0 -32 3 -37 41 -6 42 -48 99 -74 99
-19 0 -16 -13 16 -84 l29 -64 -69 -7 c-58 -6 -68 -9 -58 -21 8 -10 35 -14 89
-14 l78 0 4 -39 3 -38 -132 -13 c-73 -7 -133 -16 -133 -20 0 -4 14 -13 31 -20
24 -11 47 -11 107 -2 128 20 128 20 123 -34 -4 -59 8 -194 19 -194 14 0 30 88
30 169 l0 80 152 3 c161 3 188 12 128 43 -28 14 -43 15 -113 6 -44 -6 -99 -11
-123 -11 l-43 0 9 31 c5 18 7 35 4 40 -2 4 10 10 28 13 169 28 174 30 143 52
-19 15 -78 13 -124 -3 -12 -5 -11 -1 5 18 11 13 31 42 44 63 l23 39 -22 18
c-23 19 -21 19 121 19 80 0 148 3 151 7 12 12 -25 42 -59 49 -18 3 -62 1 -96
-5 -35 -6 -100 -13 -145 -17 l-83 -7 0 26 c0 40 10 57 36 57 47 0 124 22 124
35 0 26 -60 30 -133 8 -17 -4 -19 1 -15 58 3 59 1 64 -22 76 -31 16 -47 16
-56 2z"/>
</g>
</svg>
