<?xml version="1.0" standalone="no"?>
<!DOCTYPE svg PUBLIC "-//W3C//DTD SVG 20010904//EN"
 "http://www.w3.org/TR/2001/REC-SVG-20010904/DTD/svg10.dtd">
<svg version="1.0" xmlns="http://www.w3.org/2000/svg"
 width="96.000000pt" height="68.000000pt" viewBox="0 0 96.000000 68.000000"
 preserveAspectRatio="xMidYMid meet">
<metadata>
Created by potrace 1.16, written by Peter Selinger 2001-2019
</metadata>
<g transform="translate(0.000000,68.000000) scale(0.100000,-0.100000)"
fill="#000000" stroke="none">
<path d="M494 310 c-11 -4 -50 -11 -87 -15 -65 -7 -66 -8 -56 -32 10 -26 -1
-116 -20 -166 -8 -20 -8 -34 -1 -48 20 -37 42 -16 54 52 l6 36 70 7 c39 4 73
7 77 7 12 0 16 -29 8 -58 -5 -22 -10 -25 -42 -21 l-36 4 37 -33 c69 -64 82
-45 88 134 5 127 4 132 -16 137 -28 8 -57 6 -82 -4z m46 -43 c0 -13 -6 -24
-12 -24 -7 0 -41 -4 -75 -8 -51 -6 -63 -5 -63 6 1 35 24 46 103 48 43 1 47 -1
47 -22z m10 -65 c0 -15 -13 -21 -64 -30 -90 -17 -98 -16 -94 11 2 18 11 23 53
28 95 11 105 10 105 -9z"/>
</g>
</svg>
