<?xml version="1.0" standalone="no"?>
<!DOCTYPE svg PUBLIC "-//W3C//DTD SVG 20010904//EN"
 "http://www.w3.org/TR/2001/REC-SVG-20010904/DTD/svg10.dtd">
<svg version="1.0" xmlns="http://www.w3.org/2000/svg"
 width="96.000000pt" height="68.000000pt" viewBox="0 0 96.000000 68.000000"
 preserveAspectRatio="xMidYMid meet">
<metadata>
Created by potrace 1.16, written by Peter Selinger 2001-2019
</metadata>
<g transform="translate(0.000000,68.000000) scale(0.100000,-0.100000)"
fill="#000000" stroke="none">
<path d="M455 378 c-22 -5 -52 -7 -66 -4 -25 5 -25 4 -25 -60 0 -35 3 -64 7
-64 4 0 20 5 35 11 16 5 53 11 84 12 l55 3 6 47 c4 39 2 50 -12 58 -21 11 -30
10 -84 -3z m50 -28 c0 -18 -94 -35 -109 -20 -13 13 -3 21 36 30 46 11 73 8 73
-10z m5 -44 c0 -17 -98 -32 -113 -17 -11 11 -1 17 43 24 51 9 70 7 70 -7z"/>
</g>
</svg>
