<?xml version="1.0" standalone="no"?>
<!DOCTYPE svg PUBLIC "-//W3C//DTD SVG 20010904//EN"
 "http://www.w3.org/TR/2001/REC-SVG-20010904/DTD/svg10.dtd">
<svg version="1.0" xmlns="http://www.w3.org/2000/svg"
 width="90.000000pt" height="92.000000pt" viewBox="0 0 90.000000 92.000000"
 preserveAspectRatio="xMidYMid meet">
<metadata>
Created by potrace 1.16, written by Peter Selinger 2001-2019
</metadata>
<g transform="translate(0.000000,92.000000) scale(0.100000,-0.100000)"
fill="#000000" stroke="none">
<path d="M350 843 c0 -5 15 -34 33 -64 l34 -56 -146 -16 c-80 -10 -163 -17
-183 -17 -47 0 -58 -17 -27 -42 27 -21 43 -20 179 6 47 9 100 16 118 16 l32 0
0 -54 c0 -30 -5 -58 -11 -61 -6 -4 -49 -7 -95 -8 -81 -1 -85 -2 -79 -21 15
-54 17 -92 5 -142 -14 -57 -7 -103 17 -111 16 -6 31 53 39 154 l7 82 41 6 c22
4 49 9 58 11 16 5 17 -15 20 -240 2 -134 6 -248 11 -252 24 -24 36 55 43 294
l7 212 78 0 c90 0 86 7 81 -128 l-4 -84 -37 4 -38 3 40 -47 c32 -36 45 -45 58
-38 25 14 37 56 43 155 3 50 8 104 12 122 6 28 3 33 -27 48 -28 15 -42 16
-100 6 -112 -18 -110 -19 -107 42 2 34 8 54 18 59 8 4 91 7 183 7 153 1 168 3
165 18 -2 9 -17 25 -35 35 -27 16 -40 17 -95 9 -34 -5 -100 -13 -146 -16 -69
-6 -81 -5 -77 7 9 22 -11 65 -37 82 -30 19 -78 31 -78 19z"/>
</g>
</svg>
