<?xml version="1.0" standalone="no"?>
<!DOCTYPE svg PUBLIC "-//W3C//DTD SVG 20010904//EN"
 "http://www.w3.org/TR/2001/REC-SVG-20010904/DTD/svg10.dtd">
<svg version="1.0" xmlns="http://www.w3.org/2000/svg"
 width="96.000000pt" height="68.000000pt" viewBox="0 0 96.000000 68.000000"
 preserveAspectRatio="xMidYMid meet">
<metadata>
Created by potrace 1.16, written by Peter Selinger 2001-2019
</metadata>
<g transform="translate(0.000000,68.000000) scale(0.100000,-0.100000)"
fill="#000000" stroke="none">
<path d="M510 441 c0 -30 -108 -103 -193 -131 -30 -9 -38 -16 -35 -33 4 -27
14 -27 169 4 l116 22 33 -23 c25 -18 34 -20 40 -9 17 27 -21 63 -90 84 -24 7
-25 7 -7 -12 17 -20 17 -21 -14 -27 -17 -3 -59 -6 -93 -5 l-61 0 85 43 c119
59 114 55 94 77 -18 20 -44 26 -44 10z"/>
</g>
</svg>
