<?xml version="1.0" standalone="no"?>
<!DOCTYPE svg PUBLIC "-//W3C//DTD SVG 20010904//EN"
 "http://www.w3.org/TR/2001/REC-SVG-20010904/DTD/svg10.dtd">
<svg version="1.0" xmlns="http://www.w3.org/2000/svg"
 width="96.000000pt" height="68.000000pt" viewBox="0 0 96.000000 68.000000"
 preserveAspectRatio="xMidYMid meet">
<metadata>
Created by potrace 1.16, written by Peter Selinger 2001-2019
</metadata>
<g transform="translate(0.000000,68.000000) scale(0.100000,-0.100000)"
fill="#000000" stroke="none">
<path d="M230 550 c0 -21 51 -90 68 -91 9 -1 -32 -9 -91 -19 -60 -10 -112 -21
-115 -25 -13 -13 25 -25 68 -22 57 5 253 37 258 42 12 12 -15 25 -54 25 -44 0
-44 0 -44 35 0 28 -5 37 -30 50 -34 17 -60 20 -60 5z"/>
<path d="M579 546 c10 -12 12 -35 6 -90 l-7 -74 -46 -6 c-93 -13 -112 -18
-106 -28 4 -6 38 -8 78 -6 l71 3 -2 -48 c-1 -27 -4 -52 -8 -55 -3 -3 -30 -6
-60 -6 -50 0 -71 -9 -44 -18 6 -2 18 -33 28 -68 9 -36 21 -65 26 -65 6 0 60 4
122 9 89 6 111 10 106 22 -3 7 7 35 21 61 l27 47 -23 17 c-18 14 -35 17 -87
12 l-64 -6 7 54 c4 29 8 55 9 56 2 1 48 5 105 9 75 5 102 10 102 20 0 27 -73
30 -173 8 l-29 -7 4 84 3 84 -39 3 c-35 3 -38 2 -27 -12z m125 -364 c0 -23 -4
-45 -7 -49 -4 -3 -42 -8 -86 -11 l-79 -4 -7 41 c-4 23 -5 44 -3 46 6 6 130 23
158 21 23 -1 25 -5 24 -44z"/>
<path d="M290 359 c-14 -4 -40 -7 -58 -8 -19 -1 -31 -5 -27 -11 8 -13 60 -11
110 4 31 9 36 13 20 17 -11 3 -31 2 -45 -2z"/>
<path d="M250 286 c-32 -7 -50 -15 -42 -20 15 -9 131 4 138 15 3 5 1 9 -5 9
-5 0 -15 2 -23 4 -7 2 -38 -2 -68 -8z"/>
<path d="M230 205 c-41 -7 -70 -13 -63 -14 6 0 19 -23 28 -51 17 -50 36 -73
43 -52 2 7 18 12 35 12 44 0 78 10 71 21 -3 6 4 26 15 45 12 20 19 40 16 45
-8 11 -49 10 -145 -6z m82 -10 c3 -3 2 -20 -1 -37 -6 -28 -11 -33 -42 -36 -30
-2 -37 1 -48 24 -14 32 -7 41 39 47 19 2 38 5 41 5 3 1 8 0 11 -3z"/>
</g>
</svg>
