<?xml version="1.0" standalone="no"?>
<!DOCTYPE svg PUBLIC "-//W3C//DTD SVG 20010904//EN"
 "http://www.w3.org/TR/2001/REC-SVG-20010904/DTD/svg10.dtd">
<svg version="1.0" xmlns="http://www.w3.org/2000/svg"
 width="96.000000pt" height="68.000000pt" viewBox="0 0 96.000000 68.000000"
 preserveAspectRatio="xMidYMid meet">
<metadata>
Created by potrace 1.16, written by Peter Selinger 2001-2019
</metadata>
<g transform="translate(0.000000,68.000000) scale(0.100000,-0.100000)"
fill="#000000" stroke="none">
<path d="M406 367 c-7 -18 -35 -52 -62 -76 -38 -33 -44 -41 -24 -35 14 3 34
13 45 20 11 8 23 14 27 14 12 0 10 -88 -3 -111 -14 -26 -2 -59 21 -59 16 0 19
10 22 86 2 47 -1 93 -6 101 -6 12 0 22 23 40 25 20 29 28 20 39 -20 25 -48 16
-63 -19z"/>
</g>
</svg>
