<?xml version="1.0" standalone="no"?>
<!DOCTYPE svg PUBLIC "-//W3C//DTD SVG 20010904//EN"
 "http://www.w3.org/TR/2001/REC-SVG-20010904/DTD/svg10.dtd">
<svg version="1.0" xmlns="http://www.w3.org/2000/svg"
 width="96.000000pt" height="68.000000pt" viewBox="0 0 96.000000 68.000000"
 preserveAspectRatio="xMidYMid meet">
<metadata>
Created by potrace 1.16, written by Peter Selinger 2001-2019
</metadata>
<g transform="translate(0.000000,68.000000) scale(0.100000,-0.100000)"
fill="#000000" stroke="none">
<path d="M710 211 c-12 -8 -8 -11 16 -11 l31 0 -11 -41 c-8 -33 -8 -42 4 -49
13 -8 13 -10 1 -10 -8 0 -12 -2 -9 -5 3 -3 12 -3 21 1 11 4 14 15 11 36 -2 17
-1 28 3 24 3 -3 13 3 21 15 9 13 11 24 5 30 -15 15 -76 21 -93 10z"/>
<path d="M609 193 c6 -13 16 -23 20 -23 13 0 22 29 11 35 -6 4 -10 1 -10 -6 0
-8 -5 -7 -17 2 -15 13 -15 12 -4 -8z"/>
<path d="M637 147 c-7 -19 8 -67 20 -66 5 0 17 4 28 9 17 8 16 9 -9 9 -18 1
-26 5 -23 14 2 6 1 21 -3 31 -6 18 -7 18 -13 3z"/>
</g>
</svg>
