<?xml version="1.0" standalone="no"?>
<!DOCTYPE svg PUBLIC "-//W3C//DTD SVG 20010904//EN"
 "http://www.w3.org/TR/2001/REC-SVG-20010904/DTD/svg10.dtd">
<svg version="1.0" xmlns="http://www.w3.org/2000/svg"
 width="96.000000pt" height="68.000000pt" viewBox="0 0 96.000000 68.000000"
 preserveAspectRatio="xMidYMid meet">
<metadata>
Created by potrace 1.16, written by Peter Selinger 2001-2019
</metadata>
<g transform="translate(0.000000,68.000000) scale(0.100000,-0.100000)"
fill="#000000" stroke="none">
<path d="M612 455 c-6 -13 -36 -44 -66 -67 -30 -23 -53 -45 -50 -47 8 -8 204
92 204 104 0 12 -42 35 -64 35 -7 0 -18 -11 -24 -25z"/>
<path d="M453 393 c-9 -3 -13 -34 -14 -101 0 -53 -4 -119 -7 -147 -6 -45 -9
-50 -32 -49 -14 0 -36 4 -49 8 -19 7 -15 0 19 -33 81 -77 110 -44 110 126 l1
108 31 -35 c17 -19 55 -61 85 -92 l53 -58 85 0 c46 0 86 3 89 8 2 4 -35 23
-82 41 -148 58 -262 145 -262 200 0 31 -4 34 -27 24z"/>
<path d="M270 338 c-122 -20 -136 -24 -116 -33 10 -5 50 -4 87 1 61 9 69 8 69
-7 0 -19 -97 -113 -157 -154 -50 -32 -53 -38 -15 -29 58 14 120 55 190 126
l73 73 -22 18 c-23 19 -28 19 -109 5z"/>
</g>
</svg>
