<?xml version="1.0" standalone="no"?>
<!DOCTYPE svg PUBLIC "-//W3C//DTD SVG 20010904//EN"
 "http://www.w3.org/TR/2001/REC-SVG-20010904/DTD/svg10.dtd">
<svg version="1.0" xmlns="http://www.w3.org/2000/svg"
 width="96.000000pt" height="68.000000pt" viewBox="0 0 96.000000 68.000000"
 preserveAspectRatio="xMidYMid meet">
<metadata>
Created by potrace 1.16, written by Peter Selinger 2001-2019
</metadata>
<g transform="translate(0.000000,68.000000) scale(0.100000,-0.100000)"
fill="#000000" stroke="none">
<path d="M275 558 c-105 -20 -113 -28 -23 -23 48 3 89 1 92 -3 3 -5 1 -26 -5
-46 -12 -42 -31 -53 -114 -62 -53 -6 -54 -7 -48 -35 3 -17 -1 -36 -11 -50 -21
-31 -21 -59 2 -59 10 0 23 5 28 10 6 6 34 13 62 17 l52 6 0 -47 c0 -59 -18
-132 -36 -147 -10 -8 -22 -8 -44 -1 -37 13 -37 10 -3 -34 51 -67 91 -30 129
121 32 124 28 131 -77 128 l-71 -3 16 25 c9 14 14 29 12 34 -7 10 42 21 96 21
33 0 39 3 34 16 -4 10 6 39 23 69 43 75 20 88 -114 63z"/>
</g>
</svg>
