<?xml version="1.0" standalone="no"?>
<!DOCTYPE svg PUBLIC "-//W3C//DTD SVG 20010904//EN"
 "http://www.w3.org/TR/2001/REC-SVG-20010904/DTD/svg10.dtd">
<svg version="1.0" xmlns="http://www.w3.org/2000/svg"
 width="96.000000pt" height="68.000000pt" viewBox="0 0 96.000000 68.000000"
 preserveAspectRatio="xMidYMid meet">
<metadata>
Created by potrace 1.16, written by Peter Selinger 2001-2019
</metadata>
<g transform="translate(0.000000,68.000000) scale(0.100000,-0.100000)"
fill="#000000" stroke="none">
<path d="M575 240 c-22 -5 -72 -10 -112 -11 -71 -1 -72 -2 -58 -23 7 -11 19
-43 25 -71 18 -77 19 -79 33 -67 6 6 58 13 115 17 90 7 102 10 97 24 -3 10 6
39 20 66 13 27 23 50 22 51 -32 24 -71 28 -142 14z m62 -60 c-8 -62 -20 -70
-98 -70 -37 0 -70 3 -72 8 -3 4 -8 26 -12 49 l-7 42 49 4 c26 2 70 4 97 5 l49
2 -6 -40z"/>
</g>
</svg>
