<?xml version="1.0" standalone="no"?>
<!DOCTYPE svg PUBLIC "-//W3C//DTD SVG 20010904//EN"
 "http://www.w3.org/TR/2001/REC-SVG-20010904/DTD/svg10.dtd">
<svg version="1.0" xmlns="http://www.w3.org/2000/svg"
 width="96.000000pt" height="68.000000pt" viewBox="0 0 96.000000 68.000000"
 preserveAspectRatio="xMidYMid meet">
<metadata>
Created by potrace 1.16, written by Peter Selinger 2001-2019
</metadata>
<g transform="translate(0.000000,68.000000) scale(0.100000,-0.100000)"
fill="#000000" stroke="none">
<path d="M520 429 c-25 -5 -76 -11 -115 -13 -38 -3 -72 -5 -74 -5 -2 -1 3 -9
11 -18 9 -10 18 -36 22 -58 14 -82 18 -95 32 -95 8 0 14 5 14 10 0 6 20 10 44
10 76 0 168 12 154 21 -12 8 -11 10 38 125 5 12 -38 35 -64 33 -9 -1 -37 -5
-62 -10z m50 -53 c0 -71 -11 -82 -86 -90 -37 -4 -70 -3 -74 1 -4 4 -11 29 -14
54 l-7 46 58 10 c32 5 73 11 91 12 30 1 32 -1 32 -33z"/>
</g>
</svg>
