<?xml version="1.0" standalone="no"?>
<!DOCTYPE svg PUBLIC "-//W3C//DTD SVG 20010904//EN"
 "http://www.w3.org/TR/2001/REC-SVG-20010904/DTD/svg10.dtd">
<svg version="1.0" xmlns="http://www.w3.org/2000/svg"
 width="96.000000pt" height="68.000000pt" viewBox="0 0 96.000000 68.000000"
 preserveAspectRatio="xMidYMid meet">
<metadata>
Created by potrace 1.16, written by Peter Selinger 2001-2019
</metadata>
<g transform="translate(0.000000,68.000000) scale(0.100000,-0.100000)"
fill="#000000" stroke="none">
<path d="M394 619 c-3 -5 0 -17 6 -28 5 -11 10 -40 10 -65 0 -51 0 -51 -105
-61 -118 -10 -137 -15 -124 -31 13 -15 89 -18 177 -5 l52 7 0 -37 c0 -41 -5
-44 -75 -48 -56 -3 -68 -8 -59 -23 4 -6 27 -8 60 -4 30 3 54 3 54 -1 1 -18
-121 -116 -197 -159 -46 -25 -83 -50 -83 -56 0 -6 8 -7 17 -3 10 4 40 14 68
22 49 15 118 56 184 110 l34 28 -8 -65 c-20 -150 -7 -213 37 -173 15 14 18 34
18 142 1 101 3 123 13 111 7 -8 38 -38 69 -67 30 -29 54 -54 52 -57 -2 -4 -1
-4 3 -1 3 3 15 -3 26 -12 15 -14 37 -18 106 -17 140 1 141 14 7 58 -83 27
-135 52 -188 88 -40 28 -76 54 -79 59 -3 5 -6 32 -8 59 l-2 49 43 5 c24 3 77
8 118 11 81 6 104 17 72 34 -26 14 -62 15 -150 6 l-74 -8 4 64 3 63 -38 7
c-21 3 -40 2 -43 -2z"/>
<path d="M503 373 c-13 -2 -23 -9 -23 -14 0 -20 2 -24 13 -20 7 2 36 3 65 2
52 -2 62 5 40 27 -12 12 -50 14 -95 5z"/>
</g>
</svg>
