<?xml version="1.0" standalone="no"?>
<!DOCTYPE svg PUBLIC "-//W3C//DTD SVG 20010904//EN"
 "http://www.w3.org/TR/2001/REC-SVG-20010904/DTD/svg10.dtd">
<svg version="1.0" xmlns="http://www.w3.org/2000/svg"
 width="96.000000pt" height="68.000000pt" viewBox="0 0 96.000000 68.000000"
 preserveAspectRatio="xMidYMid meet">
<metadata>
Created by potrace 1.16, written by Peter Selinger 2001-2019
</metadata>
<g transform="translate(0.000000,68.000000) scale(0.100000,-0.100000)"
fill="#000000" stroke="none">
<path d="M433 422 c-6 -4 -14 -19 -18 -34 -6 -23 -14 -28 -53 -33 -95 -13
-107 -16 -88 -27 10 -6 43 -7 77 -3 l59 7 0 -62 c0 -58 1 -61 23 -58 20 3 22
9 25 66 l3 62 74 0 c75 0 88 7 60 30 -10 8 -33 10 -75 5 -59 -7 -60 -7 -60 18
0 29 -10 39 -27 29z"/>
</g>
</svg>
