<?xml version="1.0" standalone="no"?>
<!DOCTYPE svg PUBLIC "-//W3C//DTD SVG 20010904//EN"
 "http://www.w3.org/TR/2001/REC-SVG-20010904/DTD/svg10.dtd">
<svg version="1.0" xmlns="http://www.w3.org/2000/svg"
 width="90.000000pt" height="92.000000pt" viewBox="0 0 90.000000 92.000000"
 preserveAspectRatio="xMidYMid meet">
<metadata>
Created by potrace 1.16, written by Peter Selinger 2001-2019
</metadata>
<g transform="translate(0.000000,92.000000) scale(0.100000,-0.100000)"
fill="#000000" stroke="none">
<path d="M280 875 c0 -38 -63 -131 -138 -203 -50 -49 -58 -60 -36 -52 15 6 50
27 76 46 26 18 50 34 53 34 10 0 5 -96 -6 -107 -7 -7 -1 -30 22 -78 31 -65 31
-70 24 -154 -11 -121 -10 -140 9 -159 10 -10 16 -12 16 -4 0 15 36 16 46 1 7
-13 -117 -135 -147 -144 -10 -4 -19 -10 -19 -15 0 -10 29 -1 83 26 58 28 157
99 153 109 -1 6 -12 15 -25 21 -19 10 -13 12 40 18 102 10 146 8 153 -9 3 -8
10 -15 15 -15 22 0 33 48 36 159 1 64 4 125 6 135 3 13 -6 25 -26 37 -30 18
-34 18 -139 -1 -167 -30 -222 -27 -206 14 14 39 16 162 2 179 -11 13 -6 24 32
74 25 32 46 63 46 69 0 13 -43 44 -60 44 -5 0 -10 -11 -10 -25z m290 -414 c0
-27 -1 -28 -67 -35 -38 -3 -95 -9 -129 -12 l-61 -6 4 29 c5 29 8 31 66 40 34
6 90 11 125 12 62 1 62 1 62 -28z m10 -92 c0 -24 -4 -30 -15 -25 -9 3 -48 2
-88 -3 -182 -23 -167 -24 -167 8 0 29 0 29 88 38 48 6 108 11 135 12 46 1 47
1 47 -30z m-2 -80 l-3 -32 -70 -3 c-38 -2 -98 -6 -132 -9 l-63 -7 0 30 0 29
118 10 c64 5 125 10 135 11 15 2 18 -4 15 -29z"/>
<path d="M585 866 c-22 -7 -79 -21 -127 -31 -49 -10 -88 -21 -88 -26 0 -15 55
-26 83 -17 41 14 57 4 57 -36 0 -37 0 -37 -118 -52 -61 -8 -74 -20 -36 -34 19
-8 43 -8 76 0 79 16 84 15 83 -27 l0 -38 -72 -9 c-40 -5 -73 -13 -73 -18 0
-19 45 -23 123 -11 45 6 112 12 149 12 101 1 128 19 67 45 -25 11 -42 11 -90
1 l-59 -13 0 38 c0 23 5 40 14 43 8 3 57 9 110 13 53 4 96 11 96 15 0 5 -11
16 -25 25 -25 16 -61 14 -173 -13 -21 -5 -22 -3 -20 38 3 49 14 56 96 58 47 1
53 12 20 35 -26 19 -39 19 -93 2z"/>
<path d="M567 109 c45 -44 87 -78 93 -74 15 9 12 47 -6 74 -17 23 -126 81
-154 81 -8 0 22 -37 67 -81z"/>
</g>
</svg>
