<?xml version="1.0" standalone="no"?>
<!DOCTYPE svg PUBLIC "-//W3C//DTD SVG 20010904//EN"
 "http://www.w3.org/TR/2001/REC-SVG-20010904/DTD/svg10.dtd">
<svg version="1.0" xmlns="http://www.w3.org/2000/svg"
 width="96.000000pt" height="68.000000pt" viewBox="0 0 96.000000 68.000000"
 preserveAspectRatio="xMidYMid meet">
<metadata>
Created by potrace 1.16, written by Peter Selinger 2001-2019
</metadata>
<g transform="translate(0.000000,68.000000) scale(0.100000,-0.100000)"
fill="#000000" stroke="none">
<path d="M483 583 c2 -26 -1 -28 -41 -31 -31 -2 -43 0 -41 10 4 30 -3 38 -32
38 -29 0 -30 -2 -24 -30 7 -30 6 -30 -39 -30 -24 0 -47 -4 -50 -9 -8 -12 48
-24 74 -16 17 5 20 2 20 -20 0 -27 0 -27 -65 -23 l-65 4 0 -32 c0 -18 -4 -36
-10 -39 -5 -3 -10 -15 -10 -27 0 -17 4 -19 28 -14 15 3 43 9 62 12 l35 5 -42
-39 c-50 -46 -53 -55 -16 -41 44 16 48 -6 30 -166 -2 -17 3 -20 31 -17 17 1
32 -3 32 -8 0 -15 -42 -53 -84 -75 -42 -23 -48 -39 -9 -24 59 22 163 82 163
94 0 25 130 34 150 10 24 -29 38 6 41 109 4 109 1 116 -64 116 -36 0 -37 1
-31 28 4 15 9 29 11 32 2 2 41 4 86 5 81 0 82 0 79 -25 -3 -28 -20 -42 -44
-34 -24 7 -22 -2 6 -33 29 -31 52 -26 67 14 6 16 17 41 25 57 8 16 13 30 12
31 -24 19 -52 22 -113 15 -115 -15 -125 -14 -125 15 0 24 3 25 55 25 44 0 57
4 62 18 4 9 12 21 20 25 20 12 16 32 -11 46 -16 9 -40 11 -74 6 -48 -6 -51 -5
-54 17 -2 15 -11 24 -25 26 -18 3 -22 -1 -20 -25z m137 -63 c0 -14 -7 -20 -22
-20 -13 0 -33 -3 -45 -6 -20 -5 -23 -2 -23 20 0 24 3 26 45 26 38 0 45 -3 45
-20z m-132 -12 c-2 -19 -10 -24 -45 -26 -40 -3 -43 -1 -43 22 0 24 3 26 46 26
41 0 45 -2 42 -22z m0 -83 c-2 -2 -24 -6 -50 -10 -47 -7 -48 -7 -48 18 0 24 4
26 48 29 39 2 48 0 50 -15 2 -10 2 -20 0 -22z m-145 8 c-9 -25 -23 -33 -60
-33 -25 0 -33 4 -33 18 0 27 9 32 56 32 37 0 42 -3 37 -17z m138 -50 c0 -10 2
-25 4 -34 3 -17 -39 -27 -137 -34 -35 -2 -35 2 1 41 34 37 44 42 94 43 29 1
37 -3 38 -16z m63 -69 c9 -3 16 -12 16 -19 0 -13 -31 -20 -147 -31 -69 -6 -73
-5 -73 14 0 18 8 21 68 27 37 3 74 8 82 9 27 6 38 6 54 0z m26 -77 c0 -10 -18
-16 -67 -20 -38 -4 -89 -10 -115 -13 -46 -6 -48 -6 -48 17 0 25 1 25 115 28
95 2 115 0 115 -12z m0 -55 c0 -16 -14 -20 -110 -31 -113 -12 -130 -10 -130
14 0 13 8 14 185 28 22 2 43 4 48 5 4 1 7 -6 7 -16z"/>
<path d="M520 96 c0 -9 114 -96 126 -96 24 0 15 38 -13 58 -37 25 -113 51
-113 38z"/>
</g>
</svg>
