<?xml version="1.0" standalone="no"?>
<!DOCTYPE svg PUBLIC "-//W3C//DTD SVG 20010904//EN"
 "http://www.w3.org/TR/2001/REC-SVG-20010904/DTD/svg10.dtd">
<svg version="1.0" xmlns="http://www.w3.org/2000/svg"
 width="90.000000pt" height="92.000000pt" viewBox="0 0 90.000000 92.000000"
 preserveAspectRatio="xMidYMid meet">
<metadata>
Created by potrace 1.16, written by Peter Selinger 2001-2019
</metadata>
<g transform="translate(0.000000,92.000000) scale(0.100000,-0.100000)"
fill="#000000" stroke="none">
<path d="M496 863 c-6 -6 39 -72 57 -84 11 -8 -17 -15 -123 -29 -112 -15 -115
-16 -100 -35 9 -11 11 -50 7 -148 -5 -137 -33 -268 -77 -371 -11 -27 -19 -51
-17 -53 3 -2 20 20 40 49 35 53 68 145 82 225 6 38 9 41 28 34 13 -5 63 -2
117 6 52 7 148 17 215 21 120 7 142 16 95 39 -20 9 -56 7 -185 -11 -88 -13
-183 -26 -210 -29 l-51 -6 8 77 c19 175 13 159 66 170 26 6 73 14 106 17 65 8
76 1 76 -47 0 -22 -5 -28 -22 -28 -13 0 -33 -3 -44 -6 -17 -5 -24 0 -32 25 -8
21 -18 31 -32 31 -17 0 -19 -3 -10 -19 20 -39 13 -50 -37 -53 -64 -4 -61 -22
5 -26 l52 -3 0 -38 c0 -36 24 -75 32 -52 1 6 31 14 66 17 47 5 60 10 52 19 -6
7 -7 26 -4 43 5 27 12 32 55 42 27 7 49 16 49 21 0 15 -34 27 -61 22 -24 -4
-26 -2 -22 19 3 18 -1 27 -19 35 -20 10 -14 12 42 12 83 2 101 12 64 36 -23
15 -34 16 -82 6 -82 -16 -92 -15 -92 14 0 14 -8 29 -19 35 -36 18 -69 29 -75
23z m126 -265 c-7 -29 -20 -38 -54 -38 -23 0 -28 5 -28 23 0 32 7 37 51 37 34
0 37 -2 31 -22z"/>
<path d="M125 773 c4 -16 9 -69 12 -120 l5 -92 -51 -7 c-42 -5 -49 -9 -40 -20
6 -8 29 -14 50 -14 35 0 38 -2 43 -32 3 -18 5 -53 3 -78 l-2 -44 -65 -25 c-36
-14 -67 -27 -70 -29 -7 -6 49 -52 64 -52 10 0 198 132 230 161 23 21 -6 18
-52 -5 l-51 -26 -3 23 c-2 12 -1 43 0 70 4 47 4 47 48 58 24 6 44 17 44 24 0
16 -35 25 -70 19 l-27 -6 3 66 c2 36 8 74 13 85 6 11 11 22 11 25 0 11 -64 46
-84 46 -15 0 -17 -5 -11 -27z"/>
<path d="M640 433 c-25 -8 -86 -16 -137 -17 -51 0 -93 -3 -93 -6 0 -3 6 -14
14 -25 8 -11 19 -55 26 -98 12 -72 28 -107 38 -79 2 7 7 10 10 8 4 -2 47 0 96
6 68 7 91 6 96 -3 17 -27 39 4 69 96 17 53 31 98 31 100 0 7 -70 35 -87 34
-10 -1 -38 -8 -63 -16z m70 -59 c0 -24 -4 -33 -12 -28 -6 4 -29 6 -51 6 -31
-2 -38 1 -33 13 3 8 0 18 -7 22 -13 8 27 20 76 22 25 1 27 -2 27 -35z m-155
-5 c9 -27 -10 -40 -50 -37 -39 4 -49 44 -13 51 47 9 57 7 63 -14z m146 -71
c-6 -30 -9 -32 -55 -34 -40 -3 -47 -1 -42 12 3 9 6 22 6 29 0 9 15 15 43 18
23 2 45 4 48 5 4 1 4 -12 0 -30z m-141 -17 c0 -25 -4 -29 -32 -34 -18 -2 -33
-4 -34 -3 -1 0 -4 13 -8 28 -5 24 -3 27 26 31 18 2 36 5 41 5 4 1 7 -11 7 -27z"/>
<path d="M492 162 c-7 -16 -35 -47 -63 -70 -29 -23 -45 -42 -38 -42 20 0 109
48 178 97 8 6 -23 30 -44 37 -15 4 -23 -1 -33 -22z"/>
<path d="M696 125 c33 -37 65 -64 74 -63 24 5 24 47 0 73 -20 21 -96 55 -122
55 -5 0 17 -29 48 -65z"/>
</g>
</svg>
