<?xml version="1.0" standalone="no"?>
<!DOCTYPE svg PUBLIC "-//W3C//DTD SVG 20010904//EN"
 "http://www.w3.org/TR/2001/REC-SVG-20010904/DTD/svg10.dtd">
<svg version="1.0" xmlns="http://www.w3.org/2000/svg"
 width="96.000000pt" height="68.000000pt" viewBox="0 0 96.000000 68.000000"
 preserveAspectRatio="xMidYMid meet">
<metadata>
Created by potrace 1.16, written by Peter Selinger 2001-2019
</metadata>
<g transform="translate(0.000000,68.000000) scale(0.100000,-0.100000)"
fill="#000000" stroke="none">
<path d="M490 316 c0 -28 -21 -36 -102 -36 -31 0 -59 -4 -62 -9 -9 -14 40 -22
92 -15 l47 6 -19 -21 c-23 -26 -22 -27 34 -38 l45 -9 -35 -19 c-19 -10 -46
-22 -60 -27 -18 -6 -13 -7 19 -3 24 3 56 12 72 21 29 14 33 13 99 -22 38 -21
73 -35 77 -30 14 13 -13 41 -64 66 l-51 25 19 38 19 37 82 0 c66 0 79 2 69 13
-7 7 -39 12 -79 12 -37 0 -73 4 -80 8 -7 5 -18 2 -28 -7 -8 -9 -27 -16 -41
-16 -22 0 -24 2 -12 16 10 13 10 17 -2 25 -24 15 -39 10 -39 -15z m80 -54 c0
-4 -7 -18 -16 -30 -15 -22 -43 -27 -77 -14 -17 7 -16 9 3 30 20 21 90 33 90
14z"/>
</g>
</svg>
