<?xml version="1.0" standalone="no"?>
<!DOCTYPE svg PUBLIC "-//W3C//DTD SVG 20010904//EN"
 "http://www.w3.org/TR/2001/REC-SVG-20010904/DTD/svg10.dtd">
<svg version="1.0" xmlns="http://www.w3.org/2000/svg"
 width="96.000000pt" height="68.000000pt" viewBox="0 0 96.000000 68.000000"
 preserveAspectRatio="xMidYMid meet">
<metadata>
Created by potrace 1.16, written by Peter Selinger 2001-2019
</metadata>
<g transform="translate(0.000000,68.000000) scale(0.100000,-0.100000)"
fill="#000000" stroke="none">
<path d="M544 321 c-6 -27 -10 -29 -67 -36 -50 -5 -58 -9 -43 -17 10 -6 36 -8
57 -5 22 3 39 2 39 -3 0 -29 -38 -85 -87 -129 -64 -58 -51 -68 23 -19 37 25
57 48 82 97 18 36 39 66 46 67 8 1 69 5 137 9 68 4 126 9 128 11 2 2 -8 8 -22
15 -19 9 -49 9 -120 0 -138 -16 -140 -16 -133 14 5 21 3 25 -14 25 -15 0 -22
-8 -26 -29z"/>
<path d="M701 155 c47 -46 85 -75 98 -75 25 0 28 26 5 58 -15 22 -142 92 -166
92 -7 0 21 -34 63 -75z"/>
</g>
</svg>
