<?xml version="1.0" standalone="no"?>
<!DOCTYPE svg PUBLIC "-//W3C//DTD SVG 20010904//EN"
 "http://www.w3.org/TR/2001/REC-SVG-20010904/DTD/svg10.dtd">
<svg version="1.0" xmlns="http://www.w3.org/2000/svg"
 width="96.000000pt" height="68.000000pt" viewBox="0 0 96.000000 68.000000"
 preserveAspectRatio="xMidYMid meet">
<metadata>
Created by potrace 1.16, written by Peter Selinger 2001-2019
</metadata>
<g transform="translate(0.000000,68.000000) scale(0.100000,-0.100000)"
fill="#000000" stroke="none">
<path d="M440 279 c-25 -4 -70 -8 -100 -8 l-55 -1 0 -98 c0 -102 9 -137 29
-110 8 11 40 16 118 21 100 5 106 5 111 -15 4 -12 12 -18 24 -16 16 3 19 17
23 108 4 84 3 107 -9 118 -16 13 -71 14 -141 1z m94 -25 c18 -46 11 -50 -96
-61 -57 -6 -106 -9 -110 -6 -5 2 -8 17 -8 33 0 27 2 29 58 35 31 3 64 8 72 9
42 9 78 5 84 -10z m6 -109 l0 -35 -64 0 c-35 0 -84 -3 -110 -6 l-47 -7 3 33
c3 33 4 33 63 37 33 3 62 7 64 9 2 2 24 4 48 4 43 0 43 0 43 -35z"/>
</g>
</svg>
