<?xml version="1.0" standalone="no"?>
<!DOCTYPE svg PUBLIC "-//W3C//DTD SVG 20010904//EN"
 "http://www.w3.org/TR/2001/REC-SVG-20010904/DTD/svg10.dtd">
<svg version="1.0" xmlns="http://www.w3.org/2000/svg"
 width="96.000000pt" height="68.000000pt" viewBox="0 0 96.000000 68.000000"
 preserveAspectRatio="xMidYMid meet">
<metadata>
Created by potrace 1.16, written by Peter Selinger 2001-2019
</metadata>
<g transform="translate(0.000000,68.000000) scale(0.100000,-0.100000)"
fill="#000000" stroke="none">
<path d="M448 513 c3 -137 6 -147 39 -162 61 -28 230 -21 249 10 3 6 -2 31
-11 56 l-18 46 -11 -34 c-13 -41 -46 -59 -108 -59 -59 0 -97 17 -104 46 -12
48 -3 57 90 84 49 14 91 30 93 36 2 6 -8 16 -22 24 -22 12 -28 11 -48 -7 -25
-23 -80 -53 -98 -53 -8 0 -10 15 -5 52 7 53 0 67 -34 68 -13 0 -15 -17 -12
-107z"/>
</g>
</svg>
