<?xml version="1.0" standalone="no"?>
<!DOCTYPE svg PUBLIC "-//W3C//DTD SVG 20010904//EN"
 "http://www.w3.org/TR/2001/REC-SVG-20010904/DTD/svg10.dtd">
<svg version="1.0" xmlns="http://www.w3.org/2000/svg"
 width="96.000000pt" height="68.000000pt" viewBox="0 0 96.000000 68.000000"
 preserveAspectRatio="xMidYMid meet">
<metadata>
Created by potrace 1.16, written by Peter Selinger 2001-2019
</metadata>
<g transform="translate(0.000000,68.000000) scale(0.100000,-0.100000)"
fill="#000000" stroke="none">
<path d="M448 513 c3 -135 6 -147 35 -160 60 -28 234 -23 252 7 6 10 -17 90
-25 90 -3 0 -11 -13 -17 -30 -13 -35 -46 -50 -111 -50 -72 0 -97 17 -97 65 l0
39 90 27 c50 15 92 28 94 28 2 1 -4 10 -14 21 -18 20 -45 27 -45 12 0 -10 -64
-46 -99 -57 -24 -7 -24 -7 -18 48 6 45 4 56 -9 61 -37 14 -39 9 -36 -101z"/>
<path d="M195 448 c0 -118 2 -133 17 -136 10 -2 57 20 105 50 93 56 94 71 2
44 -29 -9 -54 -16 -56 -16 -2 0 -3 17 -3 38 l0 39 68 9 c49 7 67 13 67 24 0
17 -25 18 -92 6 -42 -8 -43 -7 -43 21 0 34 -16 53 -45 53 -19 0 -20 -6 -20
-132z"/>
<path d="M379 338 c-20 -39 -51 -68 -73 -68 -20 0 -21 -5 -20 -93 1 -50 2 -98
3 -104 1 -15 28 -18 33 -4 2 4 50 11 106 13 101 5 104 4 114 -18 27 -58 45
-17 50 109 3 106 3 108 -20 114 -22 5 -110 -1 -182 -14 l-34 -6 39 34 c22 18
42 35 45 37 6 4 -22 22 -37 22 -7 0 -18 -10 -24 -22z m159 -104 l3 -31 -68 -6
c-37 -4 -87 -7 -110 -7 -41 0 -43 2 -43 29 0 29 1 30 68 36 37 3 74 8 82 10 8
2 26 2 40 2 20 -2 26 -8 28 -33z m2 -89 c0 -31 -2 -34 -27 -33 -16 1 -65 -1
-110 -6 l-83 -7 0 29 c0 28 2 29 68 39 37 5 86 11 110 11 42 2 42 2 42 -33z"/>
</g>
</svg>
