<?xml version="1.0" standalone="no"?>
<!DOCTYPE svg PUBLIC "-//W3C//DTD SVG 20010904//EN"
 "http://www.w3.org/TR/2001/REC-SVG-20010904/DTD/svg10.dtd">
<svg version="1.0" xmlns="http://www.w3.org/2000/svg"
 width="90.000000pt" height="92.000000pt" viewBox="0 0 90.000000 92.000000"
 preserveAspectRatio="xMidYMid meet">
<metadata>
Created by potrace 1.16, written by Peter Selinger 2001-2019
</metadata>
<g transform="translate(0.000000,92.000000) scale(0.100000,-0.100000)"
fill="#000000" stroke="none">
<path d="M585 774 c-33 -7 -93 -16 -132 -20 -49 -5 -73 -11 -73 -20 0 -16 52
-27 89 -19 38 8 40 1 48 -165 l6 -137 -33 -6 c-46 -10 -80 -9 -80 2 0 5 5 32
12 60 10 45 9 53 -7 71 -30 33 -48 26 -41 -14 5 -23 0 -55 -14 -96 -19 -56
-20 -64 -6 -85 l15 -23 51 19 c52 20 290 63 299 54 8 -9 -16 -188 -30 -218
-12 -26 -16 -28 -48 -22 -20 3 -44 8 -54 11 -13 4 -5 -12 25 -50 24 -31 51
-56 60 -56 21 0 62 53 77 100 6 19 15 100 21 180 5 80 15 160 21 178 14 41 8
57 -31 77 -28 14 -37 15 -83 2 -29 -8 -65 -18 -81 -21 l-28 -7 3 78 4 78 74
13 c41 7 77 14 79 17 3 2 -1 11 -8 20 -15 18 -52 17 -135 -1z m135 -278 c0
-73 -3 -76 -100 -76 l-55 0 3 58 c3 56 5 59 35 69 18 5 51 11 75 12 l42 1 0
-64z"/>
<path d="M165 720 c-33 -9 -75 -15 -94 -12 -33 5 -33 5 -20 -19 17 -29 19
-197 6 -347 -7 -73 -6 -111 2 -128 11 -26 31 -32 31 -10 0 8 15 16 38 20 71
11 87 8 105 -24 21 -35 28 -37 52 -10 21 23 22 49 11 270 -5 97 -4 171 2 198
9 39 8 44 -15 62 -30 23 -38 23 -118 0z m69 -29 c3 -4 8 -33 12 -64 l7 -55
-39 1 c-22 0 -54 -3 -71 -7 l-33 -8 0 61 c0 58 1 61 28 67 15 3 32 7 37 9 20
7 54 5 59 -4z m16 -201 l0 -60 -37 1 c-21 0 -53 -4 -72 -10 -19 -6 -37 -9 -39
-6 -2 2 -1 29 3 60 l6 55 37 1 c29 1 85 11 100 18 1 0 2 -26 2 -59z m-4 -127
c-2 -21 -3 -50 -4 -64 -2 -21 -7 -27 -24 -27 -13 1 -44 -3 -70 -7 l-48 -8 0
66 c0 50 3 65 13 61 7 -2 31 0 52 5 77 18 83 15 81 -26z"/>
</g>
</svg>
