<?xml version="1.0" standalone="no"?>
<!DOCTYPE svg PUBLIC "-//W3C//DTD SVG 20010904//EN"
 "http://www.w3.org/TR/2001/REC-SVG-20010904/DTD/svg10.dtd">
<svg version="1.0" xmlns="http://www.w3.org/2000/svg"
 width="96.000000pt" height="68.000000pt" viewBox="0 0 96.000000 68.000000"
 preserveAspectRatio="xMidYMid meet">
<metadata>
Created by potrace 1.16, written by Peter Selinger 2001-2019
</metadata>
<g transform="translate(0.000000,68.000000) scale(0.100000,-0.100000)"
fill="#000000" stroke="none">
<path d="M730 410 c0 -14 7 -20 23 -21 15 -1 17 -3 6 -6 -14 -3 -18 -24 -23
-111 -8 -143 -10 -151 -20 -144 -5 3 -7 -4 -4 -15 6 -22 -1 -23 -59 -9 -27 6
-29 0 -8 -20 8 -9 19 -13 25 -9 6 3 7 -1 4 -9 -10 -26 33 -19 47 6 7 13 18 28
26 33 13 10 25 102 26 202 0 29 3 51 6 48 4 -2 8 8 9 22 1 18 -4 26 -18 30
-11 3 -20 9 -20 14 0 5 -4 9 -10 9 -5 0 -10 -9 -10 -20z"/>
<path d="M680 410 c-24 -8 -23 -8 8 -9 17 -1 32 4 32 9 0 11 -5 11 -40 0z"/>
</g>
</svg>
