<?xml version="1.0" standalone="no"?>
<!DOCTYPE svg PUBLIC "-//W3C//DTD SVG 20010904//EN"
 "http://www.w3.org/TR/2001/REC-SVG-20010904/DTD/svg10.dtd">
<svg version="1.0" xmlns="http://www.w3.org/2000/svg"
 width="90.000000pt" height="92.000000pt" viewBox="0 0 90.000000 92.000000"
 preserveAspectRatio="xMidYMid meet">
<metadata>
Created by potrace 1.16, written by Peter Selinger 2001-2019
</metadata>
<g transform="translate(0.000000,92.000000) scale(0.100000,-0.100000)"
fill="#000000" stroke="none">
<path d="M301 823 c-16 -63 -78 -168 -142 -237 -29 -31 -49 -59 -47 -62 7 -7
125 74 145 100 16 20 31 24 118 30 55 3 131 10 168 14 103 12 101 15 105 -175
5 -231 -21 -353 -75 -353 -12 0 -34 5 -49 10 -15 6 -29 8 -31 6 -3 -3 16 -32
42 -65 52 -69 62 -69 110 -6 46 59 55 113 64 365 l9 235 -27 22 c-32 28 -58
28 -163 3 -91 -22 -218 -37 -218 -26 0 4 18 34 40 67 22 33 40 64 40 69 0 12
-50 50 -65 50 -7 0 -18 -21 -24 -47z"/>
<path d="M260 591 c0 -5 4 -12 10 -16 5 -3 18 -19 29 -34 l21 -29 -85 -13
c-47 -7 -85 -16 -85 -20 0 -19 56 -21 148 -5 54 9 121 16 149 16 84 0 107 17
54 40 -23 9 -42 9 -81 1 -63 -14 -61 -14 -59 2 3 26 -2 35 -28 45 -51 20 -73
23 -73 13z"/>
<path d="M310 425 c-36 -7 -69 -13 -74 -14 -6 -1 -5 -6 1 -12 13 -13 169 -4
193 11 37 23 -35 32 -120 15z"/>
<path d="M340 360 c-19 -5 -52 -12 -73 -15 -51 -8 -37 -25 21 -24 56 0 139 13
149 22 18 18 -47 29 -97 17z"/>
<path d="M360 283 c-19 -8 -61 -15 -92 -16 -32 0 -58 -2 -58 -4 0 -2 6 -14 14
-26 8 -12 17 -40 21 -62 7 -49 22 -75 33 -59 4 6 42 15 85 19 71 6 77 8 72 26
-4 11 3 39 16 66 21 44 22 46 4 59 -24 17 -50 17 -95 -3z m46 -45 c-3 -13 -6
-31 -6 -40 0 -17 -52 -38 -97 -38 -20 0 -23 5 -23 39 0 37 2 40 38 49 20 5 50
10 66 11 25 1 28 -2 22 -21z"/>
</g>
</svg>
