<?xml version="1.0" standalone="no"?>
<!DOCTYPE svg PUBLIC "-//W3C//DTD SVG 20010904//EN"
 "http://www.w3.org/TR/2001/REC-SVG-20010904/DTD/svg10.dtd">
<svg version="1.0" xmlns="http://www.w3.org/2000/svg"
 width="96.000000pt" height="68.000000pt" viewBox="0 0 96.000000 68.000000"
 preserveAspectRatio="xMidYMid meet">
<metadata>
Created by potrace 1.16, written by Peter Selinger 2001-2019
</metadata>
<g transform="translate(0.000000,68.000000) scale(0.100000,-0.100000)"
fill="#000000" stroke="none">
<path d="M370 610 c-5 -10 -10 -23 -10 -29 0 -19 -63 -104 -112 -151 -26 -25
-48 -50 -48 -54 0 -18 58 8 102 45 42 35 52 39 105 39 32 0 99 5 148 10 87 9
91 9 109 -13 17 -20 18 -34 13 -142 -5 -120 -18 -177 -43 -205 -11 -12 -21
-12 -56 -3 -24 6 -45 10 -47 7 -9 -9 75 -92 95 -93 11 -1 32 11 46 26 43 46
58 96 59 197 0 50 4 123 8 161 8 63 6 72 -12 93 -23 25 -68 29 -158 12 -108
-20 -188 -27 -182 -16 4 6 22 30 40 52 36 45 34 53 -20 73 -22 9 -28 7 -37 -9z"/>
<path d="M340 422 c0 -10 50 -47 64 -47 6 0 12 7 14 16 2 11 -8 20 -29 28 -38
13 -49 14 -49 3z"/>
<path d="M335 351 c-55 -9 -93 -19 -85 -22 16 -6 37 -5 120 5 46 6 88 9 188
15 7 1 10 6 7 11 -9 14 -113 10 -230 -9z"/>
<path d="M355 295 l-50 -13 46 -1 c64 -1 140 10 133 20 -7 12 -70 9 -129 -6z"/>
<path d="M381 249 c-71 -12 -77 -19 -15 -19 67 0 125 11 118 21 -6 11 -29 10
-103 -2z"/>
<path d="M431 199 c-14 -5 -51 -11 -83 -12 -52 -2 -72 -9 -50 -19 4 -1 15 -21
23 -43 9 -23 21 -39 29 -37 7 2 42 6 76 9 35 3 61 9 59 13 -2 4 5 24 16 45 17
30 18 39 7 46 -17 11 -47 10 -77 -2z m29 -48 c0 -27 -3 -29 -52 -34 -28 -4
-53 -5 -54 -4 -1 1 -5 14 -9 29 -7 29 2 33 83 37 29 1 32 -2 32 -28z"/>
</g>
</svg>
