<?xml version="1.0" standalone="no"?>
<!DOCTYPE svg PUBLIC "-//W3C//DTD SVG 20010904//EN"
 "http://www.w3.org/TR/2001/REC-SVG-20010904/DTD/svg10.dtd">
<svg version="1.0" xmlns="http://www.w3.org/2000/svg"
 width="90.000000pt" height="92.000000pt" viewBox="0 0 90.000000 92.000000"
 preserveAspectRatio="xMidYMid meet">
<metadata>
Created by potrace 1.16, written by Peter Selinger 2001-2019
</metadata>
<g transform="translate(0.000000,92.000000) scale(0.100000,-0.100000)"
fill="#000000" stroke="none">
<path d="M504 857 c-3 -8 0 -26 6 -41 5 -15 10 -44 10 -65 0 -38 0 -38 -46
-45 -26 -3 -60 -6 -77 -6 -28 0 -29 -1 -15 -17 9 -10 19 -28 22 -39 6 -19 2
-22 -46 -28 -50 -7 -52 -8 -33 -22 11 -8 35 -14 55 -12 32 3 35 0 41 -30 7
-35 29 -68 29 -44 0 7 14 12 35 12 30 0 35 -3 35 -24 0 -20 -6 -24 -46 -30
-25 -3 -57 -3 -70 0 -23 6 -34 -9 -15 -20 5 -3 14 -26 20 -52 9 -35 15 -44 27
-40 51 20 64 19 64 -5 0 -43 -12 -48 -123 -55 -59 -4 -107 -10 -107 -14 0 -4
14 -13 30 -20 23 -9 49 -10 100 -3 l69 9 -17 -28 c-19 -32 -20 -31 38 -49 25
-8 45 -18 45 -24 0 -14 -92 -62 -147 -76 -59 -16 -52 -32 10 -23 62 9 116 29
153 54 36 26 51 22 125 -36 62 -47 77 -50 82 -16 4 26 -43 72 -99 97 l-38 18
25 48 24 49 100 0 c55 0 100 4 100 9 0 25 -37 36 -124 37 -50 0 -102 4 -115 9
-20 7 -23 5 -18 -8 5 -14 0 -17 -33 -17 -44 0 -45 1 -27 33 18 33 27 37 90 37
31 0 57 5 57 10 0 6 -5 10 -12 10 -6 0 1 14 18 31 29 30 29 31 9 46 -15 11
-35 13 -82 9 -62 -6 -63 -6 -63 18 0 19 6 25 30 28 16 3 34 0 39 -5 14 -14 28
-1 47 48 l17 45 63 0 c71 0 87 11 49 36 -18 12 -35 14 -61 9 -35 -6 -36 -6
-29 23 5 26 2 31 -25 42 -22 9 -43 10 -80 3 -44 -9 -50 -8 -46 6 3 9 8 35 11
59 7 41 6 43 -29 57 -43 18 -45 18 -52 2z m154 -171 c5 -24 -6 -33 -50 -41
-37 -7 -38 -7 -38 23 0 26 4 31 28 35 43 7 57 3 60 -17z m-138 -27 c0 -29 -2
-30 -37 -27 -30 2 -39 8 -41 25 -2 16 3 23 20 26 53 10 58 8 58 -24z m123 -72
c-4 -19 -11 -23 -39 -23 -28 1 -34 5 -34 24 0 19 5 22 39 22 35 0 38 -2 34
-23z m-123 -12 c0 -21 -5 -25 -29 -25 -18 0 -31 6 -35 17 -8 19 9 33 42 33 17
0 22 -6 22 -25z m138 -140 c-9 -20 -18 -25 -48 -25 -29 0 -39 5 -43 20 -6 23
5 28 60 29 42 1 42 1 31 -24z m-138 -9 c0 -19 -7 -25 -36 -31 -26 -4 -39 -2
-45 7 -15 24 -9 37 19 41 58 9 62 8 62 -17z m90 -161 c0 -4 -7 -20 -16 -36
-13 -26 -20 -30 -41 -24 -14 3 -38 9 -54 12 -27 5 -27 6 -12 29 13 20 23 24
69 24 30 0 54 -2 54 -5z"/>
<path d="M201 808 c6 -13 25 -38 42 -55 46 -49 86 -41 73 13 -7 26 -71 63
-109 64 -15 0 -16 -3 -6 -22z"/>
<path d="M186 619 c-27 -11 -75 -22 -108 -26 -67 -7 -81 -18 -44 -35 21 -9 40
-7 100 10 41 12 80 22 86 22 21 0 -99 -186 -172 -265 -28 -31 -48 -58 -46 -61
9 -8 103 68 141 114 21 24 38 38 42 32 9 -14 -4 -193 -16 -243 -11 -40 3 -107
22 -107 20 0 29 56 29 186 0 74 2 134 5 134 3 0 19 -16 36 -35 36 -40 45 -43
52 -14 6 20 -22 59 -43 59 -21 0 -8 17 25 33 40 19 45 41 14 57 -11 7 -21 10
-22 8 -45 -89 -47 -91 -67 -53 -16 29 -6 52 47 115 39 45 40 54 11 74 -27 19
-30 19 -92 -5z"/>
</g>
</svg>
