<?xml version="1.0" standalone="no"?>
<!DOCTYPE svg PUBLIC "-//W3C//DTD SVG 20010904//EN"
 "http://www.w3.org/TR/2001/REC-SVG-20010904/DTD/svg10.dtd">
<svg version="1.0" xmlns="http://www.w3.org/2000/svg"
 width="96.000000pt" height="68.000000pt" viewBox="0 0 96.000000 68.000000"
 preserveAspectRatio="xMidYMid meet">
<metadata>
Created by potrace 1.16, written by Peter Selinger 2001-2019
</metadata>
<g transform="translate(0.000000,68.000000) scale(0.100000,-0.100000)"
fill="#000000" stroke="none">
<path d="M260 518 c0 -40 -5 -89 -10 -109 -9 -34 -14 -37 -56 -43 -26 -3 -61
-6 -78 -6 -30 -1 -30 -1 -11 -16 15 -12 33 -14 72 -10 l53 6 -12 -26 c-11 -24
-10 -29 10 -43 13 -9 33 -24 45 -34 l22 -17 -30 -26 c-16 -14 -47 -34 -68 -45
-22 -11 -37 -23 -34 -26 12 -11 69 11 112 44 l47 35 38 -37 c25 -24 44 -35 54
-32 26 10 18 34 -23 68 l-38 33 27 60 c15 34 30 69 34 79 3 9 15 17 26 17 11
0 20 5 20 10 0 6 -4 10 -10 10 -5 0 -19 9 -30 20 -11 11 -29 20 -41 20 -16 0
-20 -5 -17 -27 3 -24 -1 -28 -35 -36 -21 -5 -40 -7 -43 -4 -3 3 6 43 20 89
l26 83 -21 18 c-40 33 -49 23 -49 -55z m100 -165 c0 -10 -9 -37 -20 -60 -18
-41 -20 -42 -49 -32 -44 16 -51 29 -36 66 11 25 21 32 47 36 18 2 39 5 46 5 6
1 12 -6 12 -15z"/>
</g>
</svg>
