<?xml version="1.0" standalone="no"?>
<!DOCTYPE svg PUBLIC "-//W3C//DTD SVG 20010904//EN"
 "http://www.w3.org/TR/2001/REC-SVG-20010904/DTD/svg10.dtd">
<svg version="1.0" xmlns="http://www.w3.org/2000/svg"
 width="96.000000pt" height="68.000000pt" viewBox="0 0 96.000000 68.000000"
 preserveAspectRatio="xMidYMid meet">
<metadata>
Created by potrace 1.16, written by Peter Selinger 2001-2019
</metadata>
<g transform="translate(0.000000,68.000000) scale(0.100000,-0.100000)"
fill="#000000" stroke="none">
<path d="M465 355 c-33 -8 -80 -14 -104 -14 -35 -1 -42 -4 -33 -13 15 -15 16
-124 1 -167 -9 -24 -9 -39 0 -58 20 -44 31 -13 38 105 7 126 -4 113 109 127
l52 7 7 -107 c7 -107 4 -120 -27 -127 -15 -3 -15 -5 3 -27 16 -20 24 -23 37
-14 14 8 18 32 23 124 3 63 9 121 13 130 5 12 0 22 -16 33 -26 19 -24 19 -103
1z"/>
</g>
</svg>
