<?xml version="1.0" standalone="no"?>
<!DOCTYPE svg PUBLIC "-//W3C//DTD SVG 20010904//EN"
 "http://www.w3.org/TR/2001/REC-SVG-20010904/DTD/svg10.dtd">
<svg version="1.0" xmlns="http://www.w3.org/2000/svg"
 width="90.000000pt" height="92.000000pt" viewBox="0 0 90.000000 92.000000"
 preserveAspectRatio="xMidYMid meet">
<metadata>
Created by potrace 1.16, written by Peter Selinger 2001-2019
</metadata>
<g transform="translate(0.000000,92.000000) scale(0.100000,-0.100000)"
fill="#000000" stroke="none">
<path d="M240 867 c0 -24 -36 -84 -78 -129 -36 -39 -12 -35 42 7 35 26 56 35
86 35 22 0 40 -3 40 -7 -1 -5 -17 -26 -36 -48 -32 -36 -39 -39 -97 -43 l-62
-4 0 -107 c0 -88 -4 -114 -23 -155 -28 -61 -28 -65 3 -36 13 13 32 42 40 64
10 26 23 42 33 42 9 0 58 4 108 8 l92 8 -6 -27 c-4 -25 -8 -27 -43 -22 l-38 5
36 -43 c20 -24 44 -46 54 -48 11 -3 19 -12 19 -20 0 -18 -101 -33 -149 -22
-30 6 -43 -6 -22 -20 5 -3 15 -29 21 -58 13 -63 26 -88 38 -70 4 7 33 15 65
19 l57 7 0 -41 c0 -35 -4 -42 -22 -47 -52 -12 -201 -24 -229 -18 -37 7 -37 -6
1 -42 l29 -28 128 31 c70 17 170 39 222 49 l94 17 16 -24 c52 -79 91 -92 91
-30 0 37 -33 73 -93 100 -56 26 -76 26 -53 1 16 -17 14 -19 -40 -30 -94 -18
-101 -17 -96 23 5 40 18 46 106 46 49 0 57 2 52 16 -6 16 22 74 36 74 19 0 6
27 -21 43 -23 14 -38 15 -87 7 -76 -13 -71 -13 -77 10 -3 13 -17 22 -36 26
-24 5 -29 10 -22 23 5 9 10 73 12 143 4 111 2 130 -13 145 -15 15 -25 16 -68
7 l-51 -11 33 34 c18 19 45 42 61 51 33 20 34 29 4 43 -18 8 -37 7 -75 -5 -52
-15 -66 -10 -37 14 20 16 19 30 -2 46 -27 20 -43 17 -43 -9z m141 -209 c0 -7
2 -21 4 -30 2 -13 -5 -16 -40 -15 -36 2 -44 6 -48 24 -5 30 -1 33 45 33 23 0
38 -5 39 -12z m-126 -35 c5 -19 2 -23 -14 -23 -10 0 -26 -3 -35 -6 -12 -5 -16
1 -16 24 0 24 5 31 23 34 26 5 33 0 42 -29z m135 -62 c0 -27 -2 -28 -49 -29
-46 -2 -48 0 -44 23 5 23 20 31 71 34 18 1 22 -4 22 -28z m-130 -16 c0 -17 -6
-25 -17 -25 -10 0 -28 -3 -40 -6 -20 -6 -23 -3 -23 25 0 30 2 31 40 31 36 0
40 -2 40 -25z m322 -261 c-2 -16 -4 -30 -5 -30 -1 -1 -26 -5 -54 -9 l-53 -7 0
36 c0 35 0 35 48 39 65 5 67 4 64 -29z m-172 -19 l0 -35 -55 0 c-54 0 -55 0
-55 29 0 32 10 38 73 40 36 1 37 0 37 -34z"/>
<path d="M615 833 c-44 -7 -96 -16 -115 -19 -33 -6 -34 -6 -15 -20 13 -10 31
-13 53 -9 17 3 32 3 32 -1 0 -17 -45 -77 -83 -109 -45 -39 -36 -45 22 -15 49
24 114 99 107 122 -3 15 3 18 40 18 41 0 44 -2 44 -27 0 -42 -14 -56 -48 -51
l-30 4 25 -38 c42 -63 72 -50 97 43 8 30 17 62 21 71 5 12 -2 21 -24 32 -16 9
-34 15 -38 15 -4 -1 -44 -8 -88 -16z"/>
<path d="M607 654 c-3 -3 -3 -21 0 -40 5 -33 5 -34 -28 -34 -26 0 -30 3 -21
12 17 17 15 23 -13 36 -34 15 -35 15 -35 -5 0 -10 -11 -42 -25 -71 -20 -44
-21 -51 -7 -43 9 5 25 18 34 28 13 14 27 18 58 15 34 -4 40 -8 40 -27 0 -18
-7 -24 -37 -29 -21 -3 -54 -6 -73 -6 -53 0 -68 -14 -31 -30 24 -9 41 -10 75
-1 64 16 66 15 66 -26 0 -40 14 -72 26 -61 3 4 9 27 11 52 6 52 14 56 121 56
74 0 92 11 48 31 -17 8 -45 9 -90 2 l-66 -9 0 27 c0 27 18 38 65 39 11 0 27 5
35 10 25 17 -9 31 -58 24 -35 -5 -41 -4 -36 9 3 9 -4 21 -18 31 -24 17 -32 19
-41 10z"/>
</g>
</svg>
