<?xml version="1.0" standalone="no"?>
<!DOCTYPE svg PUBLIC "-//W3C//DTD SVG 20010904//EN"
 "http://www.w3.org/TR/2001/REC-SVG-20010904/DTD/svg10.dtd">
<svg version="1.0" xmlns="http://www.w3.org/2000/svg"
 width="96.000000pt" height="68.000000pt" viewBox="0 0 96.000000 68.000000"
 preserveAspectRatio="xMidYMid meet">
<metadata>
Created by potrace 1.16, written by Peter Selinger 2001-2019
</metadata>
<g transform="translate(0.000000,68.000000) scale(0.100000,-0.100000)"
fill="#000000" stroke="none">
<path d="M285 423 c-38 -8 -93 -15 -122 -15 -49 -1 -52 -2 -41 -21 7 -14 9
-61 4 -141 -6 -127 1 -166 26 -135 10 12 36 18 99 22 76 4 87 2 97 -14 15 -24
38 -24 51 -1 15 29 17 288 1 307 -14 17 -21 17 -115 -2z m73 -21 c9 -6 12 -38
10 -123 l-3 -114 -99 -8 c-54 -4 -100 -6 -103 -3 -2 2 -1 56 3 119 l7 115 71
9 c97 14 99 14 114 5z"/>
</g>
</svg>
