<?xml version="1.0" standalone="no"?>
<!DOCTYPE svg PUBLIC "-//W3C//DTD SVG 20010904//EN"
 "http://www.w3.org/TR/2001/REC-SVG-20010904/DTD/svg10.dtd">
<svg version="1.0" xmlns="http://www.w3.org/2000/svg"
 width="96.000000pt" height="68.000000pt" viewBox="0 0 96.000000 68.000000"
 preserveAspectRatio="xMidYMid meet">
<metadata>
Created by potrace 1.16, written by Peter Selinger 2001-2019
</metadata>
<g transform="translate(0.000000,68.000000) scale(0.100000,-0.100000)"
fill="#000000" stroke="none">
<path d="M560 570 c27 -38 19 -50 -33 -51 -23 -1 -53 -5 -67 -9 l-25 -8 25 -2
c38 -4 97 0 180 11 110 14 130 19 130 31 0 11 -100 5 -133 -8 -12 -4 -17 -1
-17 14 0 21 -39 52 -65 52 -14 0 -13 -5 5 -30z"/>
<path d="M349 555 c-5 -4 -195 -34 -223 -35 -5 0 -3 -7 4 -15 7 -8 28 -15 47
-15 34 0 34 0 31 -42 l-3 -43 -40 1 -40 0 0 -142 c0 -78 3 -146 7 -150 4 -4
13 -2 20 3 7 6 52 13 99 16 77 5 87 4 99 -14 17 -23 24 -24 43 -4 12 11 15 46
16 158 2 164 -2 173 -64 161 l-37 -7 7 34 c10 47 10 47 61 55 34 5 44 10 42
23 -3 15 -57 29 -69 16z m-71 -95 c-1 -32 -5 -40 -20 -40 -19 0 -25 31 -12 64
13 33 34 17 32 -24z m81 -64 c7 -8 11 -30 9 -48 -2 -28 -7 -34 -30 -36 -27 -3
-28 -2 -28 47 0 43 3 51 19 51 10 0 24 -6 30 -14z m-79 -44 c0 -43 3 -50 25
-60 14 -7 35 -12 45 -12 17 0 20 -7 20 -54 0 -30 -3 -57 -7 -59 -5 -2 -52 -8
-105 -11 l-98 -7 0 54 c0 46 4 57 29 81 16 15 34 48 41 72 9 32 18 44 31 44
16 0 19 -8 19 -48z m-82 -4 c-14 -65 -28 -70 -28 -10 0 44 3 52 19 52 17 0 18
-4 9 -42z"/>
<path d="M233 223 c-35 -4 -46 -23 -14 -23 42 0 111 13 111 21 0 9 -35 9 -97
2z"/>
<path d="M610 464 c-52 -7 -105 -13 -117 -13 -21 -1 -21 -2 -5 -42 l16 -41 44
6 c25 3 66 6 92 6 43 0 50 4 75 35 21 29 24 39 15 50 -7 8 -15 15 -19 14 -3
-1 -49 -7 -101 -15z m70 -34 c0 -11 -3 -20 -7 -21 -5 0 -17 -2 -28 -5 -11 -2
-45 -5 -75 -6 -50 -3 -55 -1 -58 19 -3 19 2 22 45 26 118 9 123 8 123 -13z"/>
<path d="M620 340 c-14 -4 -51 -8 -82 -9 -45 -1 -58 -5 -58 -16 0 -20 35 -19
112 1 33 8 63 12 66 9 12 -12 -15 -40 -46 -50 -33 -9 -40 -19 -22 -30 21 -13
8 -23 -37 -29 -110 -15 -123 -18 -117 -28 7 -10 61 -7 132 8 32 6 32 6 32 -32
0 -22 -3 -50 -7 -63 -5 -20 -10 -22 -41 -17 l-35 5 33 -34 c39 -40 50 -42 73
-17 13 14 17 38 17 90 0 83 -3 80 115 84 41 2 69 7 67 13 -2 6 -38 9 -91 7
-73 -2 -90 0 -95 13 -4 12 9 23 52 42 71 32 69 30 46 48 -20 15 -74 18 -114 5z"/>
</g>
</svg>
