<?xml version="1.0" standalone="no"?>
<!DOCTYPE svg PUBLIC "-//W3C//DTD SVG 20010904//EN"
 "http://www.w3.org/TR/2001/REC-SVG-20010904/DTD/svg10.dtd">
<svg version="1.0" xmlns="http://www.w3.org/2000/svg"
 width="96.000000pt" height="68.000000pt" viewBox="0 0 96.000000 68.000000"
 preserveAspectRatio="xMidYMid meet">
<metadata>
Created by potrace 1.16, written by Peter Selinger 2001-2019
</metadata>
<g transform="translate(0.000000,68.000000) scale(0.100000,-0.100000)"
fill="#000000" stroke="none">
<path d="M615 254 c-55 -7 -119 -13 -142 -13 l-42 -1 13 -32 c8 -18 17 -58 21
-88 7 -50 24 -102 25 -74 0 7 35 14 92 19 88 7 92 6 109 -17 l18 -23 20 20
c13 13 26 48 35 98 8 43 18 82 21 87 5 9 -46 41 -62 39 -4 -1 -53 -7 -108 -15z
m113 -46 c3 -25 1 -26 -52 -30 l-56 -3 0 33 0 33 53 -3 c48 -3 52 -5 55 -30z
m-158 -7 c0 -26 -4 -29 -37 -34 -47 -5 -53 -2 -53 28 0 26 11 33 58 34 29 1
32 -2 32 -28z m150 -63 c0 -36 -11 -43 -62 -45 -46 -1 -48 -1 -48 27 0 30 11
36 78 39 27 1 32 -2 32 -21z m-140 -18 c0 -23 -5 -31 -24 -36 -43 -10 -61 -1
-64 34 -3 32 -3 32 42 32 44 0 46 -1 46 -30z"/>
</g>
</svg>
