<?xml version="1.0" standalone="no"?>
<!DOCTYPE svg PUBLIC "-//W3C//DTD SVG 20010904//EN"
 "http://www.w3.org/TR/2001/REC-SVG-20010904/DTD/svg10.dtd">
<svg version="1.0" xmlns="http://www.w3.org/2000/svg"
 width="90.000000pt" height="92.000000pt" viewBox="0 0 90.000000 92.000000"
 preserveAspectRatio="xMidYMid meet">
<metadata>
Created by potrace 1.16, written by Peter Selinger 2001-2019
</metadata>
<g transform="translate(0.000000,92.000000) scale(0.100000,-0.100000)"
fill="#000000" stroke="none">
<path d="M495 858 c4 -13 10 -43 12 -67 6 -54 -3 -61 -79 -61 -32 0 -58 -4
-58 -9 0 -5 4 -11 10 -13 5 -1 14 -18 19 -35 10 -33 10 -33 -27 -33 -20 0 -43
-4 -50 -9 -19 -11 40 -35 67 -26 17 5 22 0 31 -34 11 -42 24 -58 35 -41 11 18
52 11 58 -10 6 -25 -13 -31 -98 -32 -60 -1 -64 -3 -50 -18 9 -9 21 -37 28 -61
13 -44 13 -44 55 -41 37 3 42 1 42 -17 0 -29 -35 -41 -116 -41 -35 0 -64 -4
-64 -10 0 -20 43 -32 96 -25 30 3 54 3 54 -1 0 -3 -9 -22 -21 -40 l-21 -34 27
-10 c14 -5 32 -10 40 -10 8 0 16 -4 19 -9 7 -11 -77 -47 -151 -65 -44 -10 -53
-16 -40 -21 28 -12 151 14 203 41 l45 24 47 -27 c26 -15 65 -40 86 -55 49 -35
66 -36 66 -3 0 34 -38 68 -104 96 l-53 21 33 50 c19 28 34 54 34 59 0 5 43 9
95 9 78 0 93 3 89 14 -10 27 -62 37 -133 25 -50 -8 -71 -7 -89 3 -16 8 -25 9
-30 1 -4 -6 -23 -14 -42 -18 -31 -7 -33 -6 -21 9 7 8 11 22 8 30 -7 17 32 26
110 26 48 0 54 2 49 18 -4 12 3 27 19 42 32 30 31 36 -6 55 -28 15 -84 14
-141 -2 -14 -3 -18 2 -18 23 0 26 1 26 50 22 55 -6 61 -1 79 55 l13 37 61 0
c80 0 99 11 63 35 -20 13 -38 16 -72 11 -42 -5 -44 -4 -34 13 17 32 12 48 -19
61 -21 8 -39 9 -67 1 -22 -6 -45 -11 -51 -11 -15 0 -17 44 -4 69 5 9 7 22 3
28 -11 16 -48 33 -73 33 -18 0 -20 -4 -14 -22z m173 -152 c5 -25 -6 -33 -60
-40 l-48 -7 0 30 c0 27 3 30 38 34 56 6 66 3 70 -17z m-156 -1 c3 -3 3 -17 0
-30 -3 -20 -10 -25 -32 -25 -27 0 -40 15 -40 46 0 9 11 14 33 14 19 0 36 -2
39 -5z m130 -101 c-5 -9 -25 -18 -46 -20 -32 -3 -36 -1 -36 21 0 21 5 24 43
27 46 3 53 -2 39 -28z m-132 -9 c0 -20 -5 -25 -25 -25 -20 0 -25 5 -25 25 0
20 5 25 25 25 20 0 25 -5 25 -25z m152 -140 c-2 -14 -7 -25 -11 -25 -3 -1 -25
-5 -48 -9 l-43 -8 0 33 0 34 54 0 c51 0 53 -1 48 -25z m-149 -10 c3 -18 -1
-29 -14 -35 -27 -15 -69 -12 -69 4 0 8 -3 21 -6 29 -4 12 3 17 28 20 18 2 38
5 44 5 7 1 14 -9 17 -23z m87 -170 c0 -8 -13 -29 -28 -47 -27 -30 -31 -31 -71
-22 l-41 9 25 38 c23 33 30 37 70 37 33 0 45 -4 45 -15z"/>
<path d="M176 809 c-2 -8 -14 -44 -26 -81 -11 -36 -39 -91 -61 -123 -45 -64
-44 -63 -23 -86 14 -16 18 -16 65 2 27 10 49 17 49 14 0 -10 -94 -135 -102
-135 -14 0 -9 -37 7 -50 11 -9 28 -5 86 24 80 40 94 43 103 21 7 -18 33 -20
38 -3 9 27 -6 61 -36 79 -17 10 -35 19 -40 19 -7 0 -6 -7 10 -45 5 -11 -96
-49 -104 -40 -3 3 -1 10 5 17 5 7 43 57 83 111 72 95 74 100 60 125 -23 39
-34 36 -53 -15 -9 -27 -21 -54 -25 -61 -11 -17 -92 -29 -92 -14 0 6 25 51 56
101 30 50 54 99 52 107 -2 9 -13 23 -25 31 -19 13 -23 13 -27 2z"/>
<path d="M227 319 c24 -40 49 -63 62 -54 22 13 11 45 -21 65 -49 30 -63 26
-41 -11z"/>
<path d="M130 298 c0 -20 44 -88 57 -88 20 0 27 28 15 54 -11 25 -72 54 -72
34z"/>
<path d="M20 267 c0 -23 65 -122 80 -122 19 0 25 47 10 75 -11 20 -66 60 -82
60 -5 0 -8 -6 -8 -13z"/>
</g>
</svg>
