<?xml version="1.0" standalone="no"?>
<!DOCTYPE svg PUBLIC "-//W3C//DTD SVG 20010904//EN"
 "http://www.w3.org/TR/2001/REC-SVG-20010904/DTD/svg10.dtd">
<svg version="1.0" xmlns="http://www.w3.org/2000/svg"
 width="96.000000pt" height="68.000000pt" viewBox="0 0 96.000000 68.000000"
 preserveAspectRatio="xMidYMid meet">
<metadata>
Created by potrace 1.16, written by Peter Selinger 2001-2019
</metadata>
<g transform="translate(0.000000,68.000000) scale(0.100000,-0.100000)"
fill="#000000" stroke="none">
<path d="M525 613 c29 -73 11 -148 -47 -197 -23 -20 -36 -36 -29 -36 27 0 82
34 102 62 l21 29 44 -41 c46 -42 64 -44 64 -9 0 15 -13 26 -50 42 -27 11 -50
26 -50 33 0 6 28 20 62 32 71 23 81 36 43 54 -25 11 -29 10 -47 -15 -11 -15
-29 -32 -40 -38 -20 -11 -21 -9 -15 35 6 43 5 47 -19 56 -37 14 -47 12 -39 -7z"/>
<path d="M440 514 c0 -14 34 -54 46 -54 27 0 15 38 -16 49 -16 5 -30 8 -30 5z"/>
</g>
</svg>
