<?xml version="1.0" standalone="no"?>
<!DOCTYPE svg PUBLIC "-//W3C//DTD SVG 20010904//EN"
 "http://www.w3.org/TR/2001/REC-SVG-20010904/DTD/svg10.dtd">
<svg version="1.0" xmlns="http://www.w3.org/2000/svg"
 width="96.000000pt" height="68.000000pt" viewBox="0 0 96.000000 68.000000"
 preserveAspectRatio="xMidYMid meet">
<metadata>
Created by potrace 1.16, written by Peter Selinger 2001-2019
</metadata>
<g transform="translate(0.000000,68.000000) scale(0.100000,-0.100000)"
fill="#000000" stroke="none">
<path d="M422 362 c-148 -13 -188 -13 -204 -3 -11 7 -21 11 -22 9 -1 -2 -13
-27 -26 -56 -18 -40 -21 -55 -12 -64 14 -14 47 13 56 46 5 21 14 22 218 40
117 10 225 20 241 23 34 7 36 -11 5 -45 l-23 -25 25 6 c14 3 44 9 68 13 55 9
62 22 26 51 -35 28 -73 28 -352 5z"/>
</g>
</svg>
