<?xml version="1.0" standalone="no"?>
<!DOCTYPE svg PUBLIC "-//W3C//DTD SVG 20010904//EN"
 "http://www.w3.org/TR/2001/REC-SVG-20010904/DTD/svg10.dtd">
<svg version="1.0" xmlns="http://www.w3.org/2000/svg"
 width="96.000000pt" height="68.000000pt" viewBox="0 0 96.000000 68.000000"
 preserveAspectRatio="xMidYMid meet">
<metadata>
Created by potrace 1.16, written by Peter Selinger 2001-2019
</metadata>
<g transform="translate(0.000000,68.000000) scale(0.100000,-0.100000)"
fill="#000000" stroke="none">
<path d="M490 281 c-8 -5 -36 -12 -63 -15 -26 -4 -45 -11 -43 -15 3 -4 27 -4
53 0 88 14 83 18 81 -68 -2 -91 10 -119 57 -139 68 -28 235 -9 235 26 0 6 -5
21 -12 33 -6 12 -15 36 -18 52 -7 31 -13 25 -24 -27 -10 -46 -31 -58 -102 -58
-51 0 -68 4 -84 20 -26 26 -26 93 0 145 15 30 17 41 7 47 -16 10 -68 10 -87
-1z"/>
</g>
</svg>
