<?xml version="1.0" standalone="no"?>
<!DOCTYPE svg PUBLIC "-//W3C//DTD SVG 20010904//EN"
 "http://www.w3.org/TR/2001/REC-SVG-20010904/DTD/svg10.dtd">
<svg version="1.0" xmlns="http://www.w3.org/2000/svg"
 width="96.000000pt" height="68.000000pt" viewBox="0 0 96.000000 68.000000"
 preserveAspectRatio="xMidYMid meet">
<metadata>
Created by potrace 1.16, written by Peter Selinger 2001-2019
</metadata>
<g transform="translate(0.000000,68.000000) scale(0.100000,-0.100000)"
fill="#000000" stroke="none">
<path d="M568 593 c-3 -36 -6 -39 -46 -48 -46 -12 -46 -25 0 -25 32 0 32 1 18
-35 -14 -37 9 -29 35 13 19 29 24 31 83 32 34 0 62 4 62 9 0 13 -27 21 -71 21
-37 0 -39 1 -29 21 13 23 13 22 -17 38 -31 16 -31 15 -35 -26z"/>
<path d="M305 583 c21 -53 21 -53 -44 -53 -64 0 -79 -12 -36 -32 19 -8 35 -8
66 1 41 13 58 6 59 -22 0 -5 6 -7 13 -4 6 2 11 13 9 24 -2 16 5 22 30 28 l33
8 -35 6 c-29 5 -36 11 -38 34 -3 23 -8 27 -34 27 -25 0 -29 -3 -23 -17z"/>
</g>
</svg>
