<?xml version="1.0" standalone="no"?>
<!DOCTYPE svg PUBLIC "-//W3C//DTD SVG 20010904//EN"
 "http://www.w3.org/TR/2001/REC-SVG-20010904/DTD/svg10.dtd">
<svg version="1.0" xmlns="http://www.w3.org/2000/svg"
 width="96.000000pt" height="68.000000pt" viewBox="0 0 96.000000 68.000000"
 preserveAspectRatio="xMidYMid meet">
<metadata>
Created by potrace 1.16, written by Peter Selinger 2001-2019
</metadata>
<g transform="translate(0.000000,68.000000) scale(0.100000,-0.100000)"
fill="#000000" stroke="none">
<path d="M618 224 c-11 -10 -303 -34 -347 -28 -41 6 -43 6 -32 -14 6 -11 11
-45 11 -76 0 -64 7 -86 26 -86 11 0 14 17 14 74 l0 73 53 6 c29 4 105 10 170
13 l117 7 0 -54 c0 -67 -6 -76 -49 -81 l-33 -3 22 -28 c45 -56 95 -22 110 77
4 28 11 59 15 68 5 13 -2 22 -27 38 -35 21 -42 23 -50 14z"/>
</g>
</svg>
