<?xml version="1.0" standalone="no"?>
<!DOCTYPE svg PUBLIC "-//W3C//DTD SVG 20010904//EN"
 "http://www.w3.org/TR/2001/REC-SVG-20010904/DTD/svg10.dtd">
<svg version="1.0" xmlns="http://www.w3.org/2000/svg"
 width="96.000000pt" height="68.000000pt" viewBox="0 0 96.000000 68.000000"
 preserveAspectRatio="xMidYMid meet">
<metadata>
Created by potrace 1.16, written by Peter Selinger 2001-2019
</metadata>
<g transform="translate(0.000000,68.000000) scale(0.100000,-0.100000)"
fill="#000000" stroke="none">
<path d="M669 568 c-7 -13 -25 -38 -40 -57 -16 -19 -27 -36 -25 -38 3 -4 115
62 130 77 12 12 -11 40 -35 40 -10 0 -24 -10 -30 -22z"/>
<path d="M438 544 c15 -28 59 -74 72 -74 14 0 12 42 -4 62 -7 10 -28 21 -46
24 -29 6 -31 5 -22 -12z"/>
</g>
</svg>
