<?xml version="1.0" standalone="no"?>
<!DOCTYPE svg PUBLIC "-//W3C//DTD SVG 20010904//EN"
 "http://www.w3.org/TR/2001/REC-SVG-20010904/DTD/svg10.dtd">
<svg version="1.0" xmlns="http://www.w3.org/2000/svg"
 width="96.000000pt" height="68.000000pt" viewBox="0 0 96.000000 68.000000"
 preserveAspectRatio="xMidYMid meet">
<metadata>
Created by potrace 1.16, written by Peter Selinger 2001-2019
</metadata>
<g transform="translate(0.000000,68.000000) scale(0.100000,-0.100000)"
fill="#000000" stroke="none">
<path d="M458 600 c35 -33 65 -36 70 -8 3 17 -7 22 -68 33 l-35 6 33 -31z"/>
<path d="M250 600 c0 -5 4 -10 8 -10 11 0 82 -70 82 -81 0 -3 -25 -17 -55 -29
-30 -12 -55 -26 -55 -31 0 -14 20 -11 87 13 l63 22 25 -24 c14 -13 25 -26 25
-30 0 -3 -16 -14 -36 -24 -50 -23 -38 -29 22 -9 l50 15 73 -37 c46 -23 95 -39
127 -42 50 -5 54 -4 54 15 0 11 -4 23 -9 27 -5 3 -13 20 -17 38 l-7 32 -14
-32 c-9 -24 -19 -33 -37 -33 -28 0 -83 18 -113 38 -23 14 -23 14 22 44 56 37
63 48 40 65 -24 17 -45 17 -45 0 0 -7 -15 -28 -34 -46 l-34 -33 -32 22 -31 22
33 21 33 22 -27 3 c-15 2 -36 -1 -46 -7 -21 -11 -32 -3 -65 52 -14 21 -25 27
-52 27 -19 0 -35 -4 -35 -10z"/>
</g>
</svg>
