<?xml version="1.0" standalone="no"?>
<!DOCTYPE svg PUBLIC "-//W3C//DTD SVG 20010904//EN"
 "http://www.w3.org/TR/2001/REC-SVG-20010904/DTD/svg10.dtd">
<svg version="1.0" xmlns="http://www.w3.org/2000/svg"
 width="90.000000pt" height="92.000000pt" viewBox="0 0 90.000000 92.000000"
 preserveAspectRatio="xMidYMid meet">
<metadata>
Created by potrace 1.16, written by Peter Selinger 2001-2019
</metadata>
<g transform="translate(0.000000,92.000000) scale(0.100000,-0.100000)"
fill="#000000" stroke="none">
<path d="M195 858 c-3 -8 -1 -27 5 -42 11 -31 14 -226 3 -226 -5 0 -25 -4 -45
-9 l-37 -9 22 45 22 45 -24 19 c-37 30 -48 24 -55 -32 -4 -28 -20 -83 -35
-122 -16 -40 -27 -74 -24 -77 5 -5 48 41 68 72 6 9 31 18 63 21 l52 6 0 -67 0
-68 -105 -54 c-57 -30 -103 -59 -102 -64 2 -6 15 -19 29 -29 l26 -20 69 57 68
57 3 -38 c2 -21 -2 -71 -8 -111 -12 -78 -1 -142 25 -142 24 0 35 62 35 198 l0
135 40 34 c49 42 53 62 6 34 -18 -12 -36 -21 -40 -21 -3 0 -6 25 -6 55 l0 54
40 11 c21 6 42 15 46 21 10 17 -18 30 -54 25 -29 -4 -32 -3 -27 17 2 12 6 62
7 111 l3 89 -32 20 c-27 15 -34 16 -38 5z"/>
<path d="M470 830 c0 -6 11 -33 25 -60 14 -27 21 -51 17 -53 -4 -3 -46 -10
-94 -17 -49 -7 -88 -17 -88 -21 0 -4 12 -11 28 -17 19 -6 53 -4 117 9 50 10
134 21 188 25 54 4 100 10 102 14 3 4 -5 16 -16 26 -18 16 -26 17 -90 6 -91
-16 -89 -16 -89 16 0 35 -8 46 -47 66 -37 18 -53 20 -53 6z"/>
<path d="M535 609 c-44 -10 -90 -17 -102 -14 -26 6 -28 2 -13 -23 6 -9 16 -39
23 -67 14 -57 7 -55 140 -34 50 8 67 15 63 24 -3 8 6 30 20 50 31 46 30 51 -6
70 -34 18 -24 18 -125 -6z m75 -28 c0 -5 -3 -22 -6 -38 -5 -27 -12 -32 -61
-43 -30 -6 -57 -10 -59 -7 -3 2 -7 20 -10 39 -6 32 -4 35 27 45 42 14 109 16
109 4z"/>
<path d="M728 435 c-9 -9 -318 -55 -372 -55 -42 0 -47 -2 -41 -17 4 -10 10
-66 14 -125 6 -104 19 -145 37 -117 4 8 7 61 5 119 -2 96 0 106 16 107 10 0
61 8 113 17 52 9 128 16 168 16 l72 0 0 -102 c0 -57 -4 -110 -10 -118 -6 -10
-22 -13 -51 -11 l-42 3 33 -44 c19 -23 37 -47 41 -51 11 -14 47 11 65 45 9 17
20 75 24 132 5 55 12 113 15 127 6 22 1 31 -28 53 -34 26 -49 31 -59 21z"/>
<path d="M570 320 c-8 -5 -40 -12 -71 -16 l-57 -6 14 -27 c8 -14 14 -31 14
-38 0 -6 4 -23 9 -36 9 -23 13 -24 48 -17 21 4 55 11 76 15 30 5 36 9 28 19
-8 9 -5 24 9 52 19 37 19 40 3 51 -20 15 -52 16 -73 3z m22 -35 c3 -3 3 -16 1
-29 -4 -17 -16 -27 -45 -35 -22 -7 -41 -11 -43 -9 -1 2 -6 17 -9 35 -7 29 -5
32 21 36 46 7 69 7 75 2z"/>
</g>
</svg>
