<?xml version="1.0" standalone="no"?>
<!DOCTYPE svg PUBLIC "-//W3C//DTD SVG 20010904//EN"
 "http://www.w3.org/TR/2001/REC-SVG-20010904/DTD/svg10.dtd">
<svg version="1.0" xmlns="http://www.w3.org/2000/svg"
 width="96.000000pt" height="68.000000pt" viewBox="0 0 96.000000 68.000000"
 preserveAspectRatio="xMidYMid meet">
<metadata>
Created by potrace 1.16, written by Peter Selinger 2001-2019
</metadata>
<g transform="translate(0.000000,68.000000) scale(0.100000,-0.100000)"
fill="#000000" stroke="none">
<path d="M316 598 c-32 -110 -60 -150 -201 -288 -20 -19 -31 -36 -25 -38 13
-5 85 38 130 77 l35 31 3 -68 c2 -37 -2 -97 -8 -134 -8 -49 -9 -72 0 -87 13
-26 35 -27 45 -3 13 31 21 294 10 316 -9 18 -3 32 41 92 29 39 49 75 46 81 -9
12 -47 33 -62 33 -6 0 -12 -6 -14 -12z"/>
<path d="M518 544 c39 -53 47 -61 62 -66 8 -3 -33 -11 -92 -18 -60 -7 -108
-17 -108 -21 0 -5 33 -9 74 -9 l73 0 7 -46 c7 -56 -4 -74 -48 -74 -17 0 -41
-3 -53 -6 -40 -11 -13 -24 48 -24 l60 0 -3 -59 -3 -59 -95 -7 c-117 -8 -120
-9 -93 -23 16 -9 79 -9 257 0 130 7 236 16 236 20 0 22 -47 29 -147 23 l-104
-7 3 63 c3 60 5 64 28 67 82 8 110 14 110 24 0 6 -26 9 -71 6 l-71 -4 5 47 c3
26 1 51 -5 57 -10 10 5 14 120 28 28 3 52 9 52 14 0 13 -57 20 -105 13 -40 -5
-45 -4 -45 14 0 27 -39 61 -80 69 l-34 7 22 -29z"/>
</g>
</svg>
