<?xml version="1.0" standalone="no"?>
<!DOCTYPE svg PUBLIC "-//W3C//DTD SVG 20010904//EN"
 "http://www.w3.org/TR/2001/REC-SVG-20010904/DTD/svg10.dtd">
<svg version="1.0" xmlns="http://www.w3.org/2000/svg"
 width="96.000000pt" height="68.000000pt" viewBox="0 0 96.000000 68.000000"
 preserveAspectRatio="xMidYMid meet">
<metadata>
Created by potrace 1.16, written by Peter Selinger 2001-2019
</metadata>
<g transform="translate(0.000000,68.000000) scale(0.100000,-0.100000)"
fill="#000000" stroke="none">
<path d="M276 568 c5 -24 8 -59 9 -78 0 -34 -1 -35 -50 -43 -89 -16 -96 -26
-17 -26 l72 -1 0 -37 c0 -21 -4 -43 -8 -49 -8 -14 -138 -74 -158 -74 -17 0
-18 -12 -2 -28 20 -20 51 -14 106 23 l52 36 0 -68 c0 -88 -7 -99 -51 -84 l-34
12 47 -48 c46 -45 49 -47 65 -30 15 14 19 39 21 132 4 108 5 116 28 134 14 11
30 22 37 24 7 2 9 8 5 12 -4 4 -19 0 -32 -9 -35 -22 -36 -21 -36 24 0 37 2 39
35 46 56 10 41 31 -17 25 -22 -3 -22 11 -4 73 13 44 13 47 -7 61 -12 8 -32 15
-45 15 -23 0 -23 -2 -16 -42z"/>
</g>
</svg>
