<?xml version="1.0" standalone="no"?>
<!DOCTYPE svg PUBLIC "-//W3C//DTD SVG 20010904//EN"
 "http://www.w3.org/TR/2001/REC-SVG-20010904/DTD/svg10.dtd">
<svg version="1.0" xmlns="http://www.w3.org/2000/svg"
 width="90.000000pt" height="92.000000pt" viewBox="0 0 90.000000 92.000000"
 preserveAspectRatio="xMidYMid meet">
<metadata>
Created by potrace 1.16, written by Peter Selinger 2001-2019
</metadata>
<g transform="translate(0.000000,92.000000) scale(0.100000,-0.100000)"
fill="#000000" stroke="none">
<path d="M535 858 c4 -13 10 -44 12 -69 5 -45 4 -46 -27 -53 -18 -3 -50 -6
-71 -6 -22 0 -39 -2 -39 -3 0 -2 7 -18 16 -35 20 -41 12 -52 -38 -52 -35 0
-39 -2 -28 -15 7 -9 29 -15 51 -15 34 0 39 -3 39 -22 0 -40 16 -53 59 -49 35
2 41 0 41 -17 0 -22 -33 -32 -106 -32 -47 0 -52 -4 -30 -26 8 -7 17 -31 21
-52 l6 -39 45 5 c42 4 44 3 44 -21 0 -29 -8 -31 -122 -42 -38 -4 -68 -10 -68
-15 0 -4 13 -13 30 -20 23 -10 40 -10 76 -1 26 7 49 9 52 6 3 -3 -4 -19 -17
-35 -12 -17 -19 -34 -16 -39 2 -5 28 -15 57 -21 48 -12 50 -14 32 -28 -28 -21
-94 -50 -155 -67 l-54 -15 71 3 c57 2 84 9 136 36 74 37 68 38 165 -27 53 -35
73 -35 73 -2 0 23 -42 59 -97 84 l-42 18 22 37 c13 20 27 45 33 56 10 17 23
20 93 23 82 3 94 9 65 33 -17 14 -204 21 -204 8 0 -4 -17 -9 -38 -11 -35 -3
-38 -1 -34 19 3 15 -1 23 -9 24 -30 3 69 18 119 18 39 1 52 5 49 14 -2 6 7 25
22 40 l26 29 -24 19 c-21 17 -33 19 -97 13 -72 -7 -74 -6 -74 16 0 20 4 22 47
18 l47 -3 20 47 20 48 50 0 c28 0 58 5 66 10 25 17 -17 42 -62 38 -39 -4 -48
8 -25 31 10 10 7 16 -12 32 -26 21 -47 23 -103 10 -33 -8 -38 -7 -38 9 0 10 4
29 9 43 5 13 6 28 3 34 -11 16 -48 33 -73 33 -18 0 -20 -4 -14 -22z m155 -158
c0 -29 -2 -30 -45 -30 -41 0 -45 2 -45 24 0 25 13 31 68 35 18 1 22 -4 22 -29z
m-132 -14 c1 -20 -4 -25 -34 -31 -41 -7 -39 -8 -48 22 -6 17 -2 22 16 26 53
10 64 8 66 -17z m122 -52 c0 -23 -24 -44 -50 -44 -41 0 -43 37 -2 43 47 7 52
7 52 1z m-132 -55 c-27 -17 -55 -10 -60 15 -5 22 -1 25 31 28 29 2 37 -1 39
-16 2 -10 -2 -23 -10 -27z m162 -114 c0 -18 -39 -35 -81 -35 -24 0 -29 4 -29
25 0 24 3 25 55 25 43 0 55 -3 55 -15z m-160 -20 c0 -15 -6 -25 -14 -25 -7 0
-27 -3 -43 -6 -27 -5 -31 -3 -35 20 -5 26 4 32 65 35 23 1 27 -3 27 -24z m100
-159 c0 -17 -43 -82 -53 -79 -4 1 -27 5 -52 9 -25 3 -45 8 -45 11 0 2 12 20
26 39 24 31 31 34 75 34 35 0 49 -4 49 -14z"/>
<path d="M206 833 c-3 -3 -6 -19 -6 -34 0 -64 -78 -224 -160 -328 -62 -79 -43
-83 37 -8 54 51 75 66 89 60 25 -9 34 -23 34 -55 0 -23 -6 -29 -37 -37 -21 -6
-46 -11 -55 -11 -9 0 -20 -4 -23 -10 -8 -14 39 -23 79 -16 l33 6 6 -52 c16
-126 16 -126 -100 -135 -40 -3 -73 -9 -73 -14 0 -10 59 -59 71 -59 5 0 20 6
32 14 12 8 67 31 122 51 55 20 104 40 108 45 18 16 -13 19 -59 5 -27 -8 -50
-15 -52 -15 -1 0 -1 39 0 87 l3 87 44 8 c24 4 46 10 50 13 11 12 -25 26 -61
23 l-36 -3 1 42 c2 40 3 42 39 48 41 7 48 19 20 34 -11 6 -36 5 -72 -5 -30 -8
-59 -14 -66 -14 -6 0 10 40 35 90 l46 89 38 -44 c42 -49 52 -53 61 -29 11 30
-4 52 -48 70 -33 14 -42 22 -38 36 7 27 -45 78 -62 61z"/>
<path d="M313 363 c-3 -10 -12 -33 -19 -52 -20 -49 -18 -49 26 -6 46 45 48 50
20 65 -16 9 -21 7 -27 -7z"/>
<path d="M90 330 c0 -20 51 -91 63 -87 7 2 13 15 15 30 3 21 -4 31 -30 47 -37
22 -48 25 -48 10z"/>
</g>
</svg>
