<?xml version="1.0" standalone="no"?>
<!DOCTYPE svg PUBLIC "-//W3C//DTD SVG 20010904//EN"
 "http://www.w3.org/TR/2001/REC-SVG-20010904/DTD/svg10.dtd">
<svg version="1.0" xmlns="http://www.w3.org/2000/svg"
 width="96.000000pt" height="68.000000pt" viewBox="0 0 96.000000 68.000000"
 preserveAspectRatio="xMidYMid meet">
<metadata>
Created by potrace 1.16, written by Peter Selinger 2001-2019
</metadata>
<g transform="translate(0.000000,68.000000) scale(0.100000,-0.100000)"
fill="#000000" stroke="none">
<path d="M200 566 c0 -17 63 -76 82 -76 21 0 40 24 32 43 -9 24 -114 54 -114
33z"/>
<path d="M550 555 c-36 -7 -87 -16 -113 -20 -47 -6 -48 -7 -32 -25 16 -17 16
-28 7 -93 -12 -78 -32 -132 -70 -185 -13 -17 -19 -32 -14 -32 18 0 81 83 98
129 9 25 18 48 20 49 1 2 28 -15 59 -39 l56 -42 -27 -28 c-15 -16 -45 -41 -66
-55 -21 -15 -36 -29 -34 -31 7 -8 104 38 122 58 25 28 40 24 94 -27 53 -50 81
-53 73 -10 -4 16 -22 39 -49 58 -24 17 -44 37 -44 43 0 7 16 33 36 59 30 39
34 49 23 62 -9 11 -23 14 -48 10 -104 -17 -177 -24 -183 -18 -7 7 5 89 15 98
3 3 49 8 104 11 120 6 130 8 113 28 -15 18 -50 17 -140 0z m80 -156 c0 -15
-39 -69 -50 -69 -5 0 -30 12 -55 27 l-45 28 53 11 c71 15 97 16 97 3z"/>
<path d="M178 397 c-78 -31 -81 -37 -15 -37 l56 0 -10 -30 c-9 -24 -7 -33 11
-52 21 -23 37 -65 27 -74 -2 -3 -37 -8 -76 -11 -39 -3 -71 -9 -71 -14 0 -18
31 -24 130 -24 101 0 111 -2 255 -53 88 -31 160 -51 175 -49 46 9 180 52 180
59 0 9 -58 16 -195 23 -98 5 -262 33 -353 61 -8 2 -10 12 -6 29 5 19 -1 31
-24 54 l-29 30 33 32 c39 38 42 54 15 69 -26 14 -37 12 -103 -13z"/>
</g>
</svg>
