<?xml version="1.0" standalone="no"?>
<!DOCTYPE svg PUBLIC "-//W3C//DTD SVG 20010904//EN"
 "http://www.w3.org/TR/2001/REC-SVG-20010904/DTD/svg10.dtd">
<svg version="1.0" xmlns="http://www.w3.org/2000/svg"
 width="96.000000pt" height="68.000000pt" viewBox="0 0 96.000000 68.000000"
 preserveAspectRatio="xMidYMid meet">
<metadata>
Created by potrace 1.16, written by Peter Selinger 2001-2019
</metadata>
<g transform="translate(0.000000,68.000000) scale(0.100000,-0.100000)"
fill="#000000" stroke="none">
<path d="M396 641 c-3 -5 -2 -21 4 -36 21 -55 16 -61 -60 -71 -91 -12 -91 -29
0 -28 61 2 70 -1 70 -16 0 -20 4 -19 -210 -38 -48 -4 -84 -11 -82 -17 3 -12
126 -13 225 -3 66 7 67 7 67 -16 0 -22 -5 -24 -70 -30 -38 -4 -70 -11 -70 -15
0 -14 40 -20 91 -14 l49 6 0 -32 c0 -30 -2 -31 -42 -32 -74 -1 -92 -17 -20
-18 58 -1 62 -2 62 -25 0 -20 -6 -24 -46 -30 -26 -3 -80 -6 -120 -6 -95 0
-110 -20 -24 -31 18 -3 147 11 171 17 14 4 18 -9 24 -88 7 -92 7 -92 26 -69
15 18 19 40 19 92 l0 69 79 0 c98 0 201 10 201 20 0 20 -63 29 -133 20 -40 -5
-89 -10 -109 -10 -34 0 -38 3 -38 25 0 24 3 25 63 27 34 0 67 2 72 3 6 2 18 3
28 4 10 0 16 5 13 10 -9 14 -58 19 -114 12 -58 -8 -64 -5 -55 27 5 20 12 22
79 22 68 0 102 13 76 29 -6 4 -9 16 -6 28 6 23 52 33 155 33 60 0 71 8 44 30
-11 9 -39 11 -95 7 -78 -5 -80 -5 -69 16 10 17 8 24 -12 40 -19 16 -33 18 -74
13 -27 -3 -61 -9 -74 -13 -23 -6 -24 -5 -18 35 4 22 4 43 0 45 -20 12 -72 17
-77 8z m174 -136 c0 -23 -3 -25 -50 -25 -43 0 -50 3 -50 19 0 15 8 21 38 24
20 2 43 4 50 5 7 1 12 -9 12 -23z m-10 -62 c-1 -20 -20 -34 -53 -40 -33 -5
-37 -3 -37 15 0 13 8 22 23 25 39 7 67 7 67 0z"/>
</g>
</svg>
