<?xml version="1.0" standalone="no"?>
<!DOCTYPE svg PUBLIC "-//W3C//DTD SVG 20010904//EN"
 "http://www.w3.org/TR/2001/REC-SVG-20010904/DTD/svg10.dtd">
<svg version="1.0" xmlns="http://www.w3.org/2000/svg"
 width="96.000000pt" height="68.000000pt" viewBox="0 0 96.000000 68.000000"
 preserveAspectRatio="xMidYMid meet">
<metadata>
Created by potrace 1.16, written by Peter Selinger 2001-2019
</metadata>
<g transform="translate(0.000000,68.000000) scale(0.100000,-0.100000)"
fill="#000000" stroke="none">
<path d="M270 553 c0 -38 -61 -143 -125 -217 -58 -66 -64 -76 -37 -62 18 9 47
30 66 46 50 45 96 38 96 -15 0 -8 -20 -15 -52 -19 -44 -6 -50 -9 -35 -18 10
-5 34 -7 53 -4 l34 7 0 -59 c0 -68 -1 -69 -92 -79 -63 -6 -73 -17 -32 -35 20
-9 33 -9 57 1 18 6 68 23 112 37 89 29 124 51 62 40 -21 -4 -45 -10 -53 -13
-13 -5 -15 5 -12 53 l3 58 43 11 c48 11 46 25 -4 25 -26 0 -33 5 -36 24 -4 21
0 25 29 31 18 3 33 10 33 15 0 15 -33 17 -87 4 -29 -6 -53 -9 -53 -5 0 3 17
34 38 67 l38 62 37 -35 c40 -36 62 -39 62 -7 0 13 -14 25 -42 38 -24 11 -43
25 -43 32 0 14 -30 34 -49 34 -6 0 -11 -8 -11 -17z"/>
<path d="M361 218 c-14 -41 -9 -44 25 -15 28 24 28 24 7 35 -19 10 -22 8 -32
-20z"/>
<path d="M176 208 c15 -27 38 -48 51 -48 20 0 16 38 -6 50 -28 14 -54 13 -45
-2z"/>
</g>
</svg>
