<?xml version="1.0" standalone="no"?>
<!DOCTYPE svg PUBLIC "-//W3C//DTD SVG 20010904//EN"
 "http://www.w3.org/TR/2001/REC-SVG-20010904/DTD/svg10.dtd">
<svg version="1.0" xmlns="http://www.w3.org/2000/svg"
 width="96.000000pt" height="68.000000pt" viewBox="0 0 96.000000 68.000000"
 preserveAspectRatio="xMidYMid meet">
<metadata>
Created by potrace 1.16, written by Peter Selinger 2001-2019
</metadata>
<g transform="translate(0.000000,68.000000) scale(0.100000,-0.100000)"
fill="#000000" stroke="none">
<path d="M568 593 c-3 -48 -3 -48 -40 -51 -48 -4 -50 -22 -3 -22 l36 0 -16
-30 c-24 -47 -17 -48 23 -2 36 40 42 43 105 49 104 9 85 30 -21 24 l-43 -3 15
30 c17 34 7 52 -30 52 -20 0 -23 -6 -26 -47z"/>
<path d="M290 604 c0 -3 8 -19 17 -35 9 -15 13 -32 9 -36 -4 -4 -38 -10 -74
-13 l-67 -5 27 -18 c25 -17 32 -18 79 -6 50 13 52 13 67 -9 20 -30 32 -28 32
8 0 23 5 30 19 30 34 0 33 19 -1 22 -27 2 -34 8 -37 28 -1 14 -8 28 -15 32
-13 9 -56 10 -56 2z"/>
</g>
</svg>
