<?xml version="1.0" standalone="no"?>
<!DOCTYPE svg PUBLIC "-//W3C//DTD SVG 20010904//EN"
 "http://www.w3.org/TR/2001/REC-SVG-20010904/DTD/svg10.dtd">
<svg version="1.0" xmlns="http://www.w3.org/2000/svg"
 width="90.000000pt" height="92.000000pt" viewBox="0 0 90.000000 92.000000"
 preserveAspectRatio="xMidYMid meet">
<metadata>
Created by potrace 1.16, written by Peter Selinger 2001-2019
</metadata>
<g transform="translate(0.000000,92.000000) scale(0.100000,-0.100000)"
fill="#000000" stroke="none">
<path d="M166 794 c-10 -25 -41 -70 -68 -100 -54 -59 -53 -66 3 -31 37 22 159
131 159 141 0 6 -55 36 -67 36 -4 0 -16 -21 -27 -46z"/>
<path d="M349 812 c15 -27 89 -92 105 -92 21 0 29 17 22 46 -7 27 -72 63 -114
64 -19 0 -21 -3 -13 -18z"/>
<path d="M255 673 c-12 -57 -52 -120 -125 -194 -41 -42 -88 -85 -105 -97 -48
-33 -22 -37 36 -5 60 31 164 124 200 178 13 19 28 35 32 35 5 0 32 -24 60 -53
89 -92 127 -106 127 -48 0 36 -33 66 -106 96 -55 23 -59 26 -56 54 3 25 -2 33
-27 46 -30 15 -31 15 -36 -12z"/>
<path d="M665 684 c-38 -7 -82 -11 -97 -8 -15 3 -30 5 -34 5 -9 -1 -4 -604 5
-637 l8 -29 13 30 c13 31 28 257 29 451 1 138 5 144 96 151 l68 6 -6 -79 c-3
-44 -12 -97 -19 -119 -14 -41 -21 -44 -73 -31 -25 6 -25 6 11 -44 39 -54 52
-60 76 -32 28 31 37 58 53 158 9 54 21 110 26 124 9 21 7 28 -16 47 -29 26
-40 26 -140 7z"/>
<path d="M315 418 c-36 -13 -68 -17 -112 -14 -65 4 -71 0 -53 -34 6 -11 15
-57 21 -102 5 -46 17 -90 25 -98 12 -12 14 -12 14 2 0 14 17 18 100 24 92 6
100 8 95 26 -7 20 30 144 46 153 18 12 8 35 -21 50 -36 18 -51 18 -115 -7z
m51 -95 c-4 -38 -11 -71 -15 -76 -4 -4 -37 -10 -73 -14 l-66 -6 -4 67 c-3 75
-11 67 87 85 84 15 79 19 71 -56z"/>
</g>
</svg>
