<?xml version="1.0" standalone="no"?>
<!DOCTYPE svg PUBLIC "-//W3C//DTD SVG 20010904//EN"
 "http://www.w3.org/TR/2001/REC-SVG-20010904/DTD/svg10.dtd">
<svg version="1.0" xmlns="http://www.w3.org/2000/svg"
 width="96.000000pt" height="68.000000pt" viewBox="0 0 96.000000 68.000000"
 preserveAspectRatio="xMidYMid meet">
<metadata>
Created by potrace 1.16, written by Peter Selinger 2001-2019
</metadata>
<g transform="translate(0.000000,68.000000) scale(0.100000,-0.100000)"
fill="#000000" stroke="none">
<path d="M270 586 c0 -8 -26 -43 -57 -77 -47 -50 -53 -60 -33 -54 14 4 32 14
41 21 8 8 19 14 23 14 5 0 31 19 58 42 46 38 49 43 32 55 -24 18 -64 17 -64
-1z"/>
<path d="M410 591 c0 -17 86 -81 109 -81 33 0 29 46 -6 63 -38 19 -103 31
-103 18z"/>
<path d="M735 488 c-22 -5 -66 -8 -99 -6 l-58 3 6 -50 c3 -27 6 -132 6 -232 0
-105 4 -183 9 -183 19 0 29 70 36 245 4 109 10 182 17 186 17 11 108 20 119
13 14 -8 2 -109 -18 -147 -9 -19 -20 -27 -30 -23 -22 9 -35 -3 -21 -19 7 -8
19 -21 26 -30 10 -11 18 -13 32 -5 28 15 47 56 60 130 6 36 16 73 21 83 8 15
4 20 -25 32 -20 8 -37 15 -38 14 -2 -1 -21 -5 -43 -11z"/>
<path d="M340 469 c0 -35 -63 -102 -151 -163 -46 -31 -77 -56 -71 -56 34 0
169 86 229 146 13 13 26 24 28 24 2 0 34 -23 71 -50 66 -51 86 -57 92 -28 5
24 -35 55 -95 74 -39 12 -52 21 -49 31 7 17 -16 43 -38 43 -10 0 -16 -9 -16
-21z"/>
<path d="M390 294 c-31 -8 -78 -13 -108 -10 -42 4 -51 2 -43 -8 6 -7 17 -40
25 -73 17 -75 24 -87 40 -74 6 5 46 11 89 13 70 3 77 5 77 24 0 11 11 43 25
70 23 45 24 50 8 62 -21 15 -42 14 -113 -4z m46 -89 c-7 -35 -30 -45 -101 -45
-31 0 -33 2 -40 46 -3 25 -5 48 -3 50 3 2 36 7 74 11 77 9 82 5 70 -62z"/>
</g>
</svg>
