<?xml version="1.0" standalone="no"?>
<!DOCTYPE svg PUBLIC "-//W3C//DTD SVG 20010904//EN"
 "http://www.w3.org/TR/2001/REC-SVG-20010904/DTD/svg10.dtd">
<svg version="1.0" xmlns="http://www.w3.org/2000/svg"
 width="96.000000pt" height="68.000000pt" viewBox="0 0 96.000000 68.000000"
 preserveAspectRatio="xMidYMid meet">
<metadata>
Created by potrace 1.16, written by Peter Selinger 2001-2019
</metadata>
<g transform="translate(0.000000,68.000000) scale(0.100000,-0.100000)"
fill="#000000" stroke="none">
<path d="M770 131 c0 -14 -10 -20 -37 -25 -61 -10 -74 -8 -71 11 5 30 -30 28
-38 -2 -7 -30 20 -70 34 -49 4 6 26 13 49 16 35 5 44 2 56 -15 8 -12 18 -17
26 -13 18 11 31 50 24 75 -7 27 -43 29 -43 2z"/>
</g>
</svg>
