<?xml version="1.0" standalone="no"?>
<!DOCTYPE svg PUBLIC "-//W3C//DTD SVG 20010904//EN"
 "http://www.w3.org/TR/2001/REC-SVG-20010904/DTD/svg10.dtd">
<svg version="1.0" xmlns="http://www.w3.org/2000/svg"
 width="96.000000pt" height="68.000000pt" viewBox="0 0 96.000000 68.000000"
 preserveAspectRatio="xMidYMid meet">
<metadata>
Created by potrace 1.16, written by Peter Selinger 2001-2019
</metadata>
<g transform="translate(0.000000,68.000000) scale(0.100000,-0.100000)"
fill="#000000" stroke="none">
<path d="M318 543 l-3 -48 -42 -3 c-40 -3 -43 -2 -43 23 0 18 -7 28 -26 36
-34 12 -40 6 -20 -23 25 -35 20 -46 -26 -53 -32 -6 -38 -9 -25 -17 9 -5 29 -8
44 -6 23 3 28 -1 34 -30 8 -41 15 -48 33 -33 8 6 18 11 22 10 5 -1 23 -1 41 0
28 1 32 5 38 41 7 39 8 40 46 40 48 0 51 17 5 26 -33 6 -34 8 -29 40 3 21 1
34 -5 34 -6 0 -17 3 -26 6 -12 5 -15 -4 -18 -43z m2 -85 c0 -22 -14 -36 -43
-43 -29 -8 -45 11 -33 40 7 19 76 21 76 3z"/>
</g>
</svg>
