<?xml version="1.0" standalone="no"?>
<!DOCTYPE svg PUBLIC "-//W3C//DTD SVG 20010904//EN"
 "http://www.w3.org/TR/2001/REC-SVG-20010904/DTD/svg10.dtd">
<svg version="1.0" xmlns="http://www.w3.org/2000/svg"
 width="96.000000pt" height="68.000000pt" viewBox="0 0 96.000000 68.000000"
 preserveAspectRatio="xMidYMid meet">
<metadata>
Created by potrace 1.16, written by Peter Selinger 2001-2019
</metadata>
<g transform="translate(0.000000,68.000000) scale(0.100000,-0.100000)"
fill="#000000" stroke="none">
<path d="M268 233 c-3 -27 -6 -28 -88 -40 -47 -6 -87 -12 -90 -13 -3 -1 5 -5
17 -10 13 -5 46 -5 80 0 32 6 62 10 67 10 5 0 6 -26 4 -57 -5 -58 4 -103 21
-103 5 0 12 38 16 85 l7 85 60 0 c54 0 59 2 47 16 -9 11 -26 15 -58 12 -41 -3
-46 -1 -49 20 -5 31 -30 28 -34 -5z"/>
</g>
</svg>
