<?xml version="1.0" standalone="no"?>
<!DOCTYPE svg PUBLIC "-//W3C//DTD SVG 20010904//EN"
 "http://www.w3.org/TR/2001/REC-SVG-20010904/DTD/svg10.dtd">
<svg version="1.0" xmlns="http://www.w3.org/2000/svg"
 width="96.000000pt" height="68.000000pt" viewBox="0 0 96.000000 68.000000"
 preserveAspectRatio="xMidYMid meet">
<metadata>
Created by potrace 1.16, written by Peter Selinger 2001-2019
</metadata>
<g transform="translate(0.000000,68.000000) scale(0.100000,-0.100000)"
fill="#000000" stroke="none">
<path d="M387 623 c-4 -3 4 -21 18 -39 l24 -32 -32 -5 c-18 -3 -53 -9 -79 -13
-56 -7 -62 -20 -15 -32 23 -6 38 -19 54 -49 l21 -41 -36 -6 c-59 -9 -127 -7
-139 5 -9 9 -19 -2 -39 -45 -21 -42 -25 -59 -16 -68 15 -15 35 1 57 47 16 35
16 35 83 35 37 0 121 7 187 15 123 15 225 19 225 10 0 -3 -8 -17 -17 -32 l-17
-25 30 5 c16 4 46 9 67 13 45 8 47 25 5 55 -31 22 -33 22 -141 10 -60 -6 -111
-10 -113 -8 -2 2 10 19 27 38 17 20 28 41 25 51 -3 14 2 18 19 18 13 0 27 5
31 11 12 20 -20 30 -79 24 -45 -5 -58 -3 -56 7 3 27 -2 35 -26 46 -29 13 -58
15 -68 5z m128 -133 c-7 -53 -33 -80 -76 -80 -35 0 -39 3 -39 24 0 35 -10 56
-26 56 -8 0 -14 4 -14 9 0 6 24 12 53 14 28 2 64 4 79 5 24 2 26 -1 23 -28z"/>
<path d="M425 350 c19 -21 15 -33 -13 -35 -107 -10 -162 -18 -162 -25 0 -15
50 -20 96 -10 26 6 49 8 52 6 2 -3 1 -17 -2 -31 -9 -37 -82 -104 -150 -140
-31 -16 -53 -31 -48 -33 20 -6 120 47 180 97 61 50 64 52 105 44 35 -7 42 -13
45 -33 3 -29 -30 -88 -55 -97 -9 -3 -29 -1 -44 4 -35 13 -35 12 -6 -32 41 -65
91 -37 147 82 l29 63 -22 15 c-12 8 -41 15 -65 15 -35 0 -45 4 -49 20 -3 11
-10 20 -17 21 -6 0 3 5 19 10 17 5 67 9 113 8 85 -2 107 5 82 22 -9 6 -49 8
-97 5 -77 -6 -83 -5 -83 13 0 20 -18 31 -52 31 -20 0 -21 -1 -3 -20z"/>
</g>
</svg>
