<?xml version="1.0" standalone="no"?>
<!DOCTYPE svg PUBLIC "-//W3C//DTD SVG 20010904//EN"
 "http://www.w3.org/TR/2001/REC-SVG-20010904/DTD/svg10.dtd">
<svg version="1.0" xmlns="http://www.w3.org/2000/svg"
 width="96.000000pt" height="68.000000pt" viewBox="0 0 96.000000 68.000000"
 preserveAspectRatio="xMidYMid meet">
<metadata>
Created by potrace 1.16, written by Peter Selinger 2001-2019
</metadata>
<g transform="translate(0.000000,68.000000) scale(0.100000,-0.100000)"
fill="#000000" stroke="none">
<path d="M315 369 c-76 -92 -113 -130 -170 -177 -33 -27 -36 -32 -15 -26 34 9
92 47 141 91 l40 36 -7 -84 c-8 -108 -8 -118 7 -136 12 -13 14 -13 25 2 9 12
11 44 8 103 -6 106 3 128 41 92 19 -18 28 -21 37 -12 16 16 -15 50 -56 60
l-30 8 42 46 c23 25 42 48 42 51 0 4 -9 11 -19 17 -17 8 -28 -1 -86 -71z"/>
</g>
</svg>
