<?xml version="1.0" standalone="no"?>
<!DOCTYPE svg PUBLIC "-//W3C//DTD SVG 20010904//EN"
 "http://www.w3.org/TR/2001/REC-SVG-20010904/DTD/svg10.dtd">
<svg version="1.0" xmlns="http://www.w3.org/2000/svg"
 width="96.000000pt" height="68.000000pt" viewBox="0 0 96.000000 68.000000"
 preserveAspectRatio="xMidYMid meet">
<metadata>
Created by potrace 1.16, written by Peter Selinger 2001-2019
</metadata>
<g transform="translate(0.000000,68.000000) scale(0.100000,-0.100000)"
fill="#000000" stroke="none">
<path d="M500 603 c1 -5 7 -19 15 -33 8 -14 14 -28 15 -31 0 -4 -42 -10 -92
-14 -89 -6 -182 -22 -145 -24 9 -1 17 -4 18 -8 0 -5 2 -18 5 -30 2 -12 -2 -57
-10 -100 -15 -87 -59 -183 -109 -241 -18 -20 -39 -46 -47 -56 -14 -18 -14 -19
9 -7 47 26 108 91 135 147 15 30 39 106 53 167 13 62 26 114 28 116 5 4 148
18 278 27 53 3 97 10 97 15 0 15 -63 26 -105 18 -66 -13 -75 -11 -75 14 0 16
-9 28 -25 35 -30 14 -45 15 -45 5z"/>
<path d="M180 434 c0 -19 37 -64 52 -64 23 0 24 33 2 54 -15 15 -54 22 -54 10z"/>
<path d="M210 309 c-19 -10 -52 -26 -74 -34 -32 -13 -37 -17 -26 -30 22 -26
54 -17 100 30 24 24 42 46 39 49 -2 2 -20 -4 -39 -15z"/>
</g>
</svg>
