<?xml version="1.0" standalone="no"?>
<!DOCTYPE svg PUBLIC "-//W3C//DTD SVG 20010904//EN"
 "http://www.w3.org/TR/2001/REC-SVG-20010904/DTD/svg10.dtd">
<svg version="1.0" xmlns="http://www.w3.org/2000/svg"
 width="96.000000pt" height="68.000000pt" viewBox="0 0 96.000000 68.000000"
 preserveAspectRatio="xMidYMid meet">
<metadata>
Created by potrace 1.16, written by Peter Selinger 2001-2019
</metadata>
<g transform="translate(0.000000,68.000000) scale(0.100000,-0.100000)"
fill="#000000" stroke="none">
<path d="M225 444 c-28 -8 -66 -12 -87 -8 -42 6 -44 3 -24 -29 8 -12 17 -42
21 -67 4 -25 12 -56 17 -70 9 -23 10 -24 22 -7 10 12 27 17 68 17 l54 0 1 33
c1 19 11 53 23 77 12 23 18 46 13 50 -16 17 -59 18 -108 4z m39 -71 c-4 -27
-9 -51 -13 -54 -10 -11 -71 -21 -71 -12 -1 4 -5 28 -10 53 -4 25 -6 48 -4 52
3 5 27 8 54 8 l50 0 -6 -47z"/>
</g>
</svg>
