<?xml version="1.0" standalone="no"?>
<!DOCTYPE svg PUBLIC "-//W3C//DTD SVG 20010904//EN"
 "http://www.w3.org/TR/2001/REC-SVG-20010904/DTD/svg10.dtd">
<svg version="1.0" xmlns="http://www.w3.org/2000/svg"
 width="96.000000pt" height="68.000000pt" viewBox="0 0 96.000000 68.000000"
 preserveAspectRatio="xMidYMid meet">
<metadata>
Created by potrace 1.16, written by Peter Selinger 2001-2019
</metadata>
<g transform="translate(0.000000,68.000000) scale(0.100000,-0.100000)"
fill="#000000" stroke="none">
<path d="M600 291 c-8 -5 -32 -11 -52 -15 -21 -4 -40 -12 -44 -18 -7 -11 31
-8 84 8 15 4 22 2 22 -6 0 -18 -49 -100 -59 -100 -5 0 -25 13 -46 30 -52 41
-66 26 -15 -17 l42 -36 -33 -20 c-17 -12 -62 -31 -98 -43 -36 -12 -57 -23 -45
-23 25 -1 117 25 161 46 32 15 34 14 85 -23 50 -37 56 -39 118 -37 36 2 81 7
100 11 34 8 32 9 -45 26 -69 16 -173 50 -183 61 -5 4 53 92 80 122 20 21 20
21 0 32 -24 13 -51 14 -72 2z"/>
</g>
</svg>
