<?xml version="1.0" standalone="no"?>
<!DOCTYPE svg PUBLIC "-//W3C//DTD SVG 20010904//EN"
 "http://www.w3.org/TR/2001/REC-SVG-20010904/DTD/svg10.dtd">
<svg version="1.0" xmlns="http://www.w3.org/2000/svg"
 width="96.000000pt" height="68.000000pt" viewBox="0 0 96.000000 68.000000"
 preserveAspectRatio="xMidYMid meet">
<metadata>
Created by potrace 1.16, written by Peter Selinger 2001-2019
</metadata>
<g transform="translate(0.000000,68.000000) scale(0.100000,-0.100000)"
fill="#000000" stroke="none">
<path d="M570 400 l0 -40 -47 0 c-27 0 -55 -5 -63 -10 -11 -7 3 -10 48 -10
l62 0 0 -39 0 -39 -91 -7 c-59 -5 -87 -11 -81 -17 12 -12 62 -14 125 -4 l47 7
0 -88 c0 -91 7 -133 20 -133 14 0 20 30 27 131 l6 99 109 0 c60 0 108 4 108 9
0 18 -43 23 -132 16 l-88 -7 0 35 c0 40 11 47 73 47 23 0 48 4 56 9 20 13 -39
24 -83 15 -36 -6 -36 -6 -36 30 0 33 -2 36 -30 36 -28 0 -30 -2 -30 -40z"/>
</g>
</svg>
