<?xml version="1.0" standalone="no"?>
<!DOCTYPE svg PUBLIC "-//W3C//DTD SVG 20010904//EN"
 "http://www.w3.org/TR/2001/REC-SVG-20010904/DTD/svg10.dtd">
<svg version="1.0" xmlns="http://www.w3.org/2000/svg"
 width="96.000000pt" height="68.000000pt" viewBox="0 0 96.000000 68.000000"
 preserveAspectRatio="xMidYMid meet">
<metadata>
Created by potrace 1.16, written by Peter Selinger 2001-2019
</metadata>
<g transform="translate(0.000000,68.000000) scale(0.100000,-0.100000)"
fill="#000000" stroke="none">
<path d="M195 539 c4 -13 9 -52 12 -86 5 -62 5 -62 -23 -68 -78 -17 -81 -19
-29 -25 l50 -5 3 -61 3 -61 -43 -12 c-87 -26 -87 -26 -53 -44 30 -15 32 -14
134 41 98 54 124 80 46 48 -21 -9 -39 -16 -41 -16 -2 0 -4 26 -4 58 l0 58 43
10 c48 10 48 30 0 28 -38 -1 -44 16 -30 84 10 50 6 57 -42 67 -32 7 -34 6 -26
-16z"/>
</g>
</svg>
