<?xml version="1.0" standalone="no"?>
<!DOCTYPE svg PUBLIC "-//W3C//DTD SVG 20010904//EN"
 "http://www.w3.org/TR/2001/REC-SVG-20010904/DTD/svg10.dtd">
<svg version="1.0" xmlns="http://www.w3.org/2000/svg"
 width="96.000000pt" height="68.000000pt" viewBox="0 0 96.000000 68.000000"
 preserveAspectRatio="xMidYMid meet">
<metadata>
Created by potrace 1.16, written by Peter Selinger 2001-2019
</metadata>
<g transform="translate(0.000000,68.000000) scale(0.100000,-0.100000)"
fill="#000000" stroke="none">
<path d="M490 591 c5 -11 20 -27 32 -35 20 -14 24 -14 38 0 13 14 13 17 -9 35
-13 10 -34 19 -47 19 -21 0 -23 -3 -14 -19z"/>
<path d="M575 539 c-215 -28 -236 -32 -226 -42 7 -7 51 -5 143 6 74 10 159 17
190 17 67 0 97 8 76 21 -16 11 -89 9 -183 -2z"/>
</g>
</svg>
