<?xml version="1.0" standalone="no"?>
<!DOCTYPE svg PUBLIC "-//W3C//DTD SVG 20010904//EN"
 "http://www.w3.org/TR/2001/REC-SVG-20010904/DTD/svg10.dtd">
<svg version="1.0" xmlns="http://www.w3.org/2000/svg"
 width="96.000000pt" height="68.000000pt" viewBox="0 0 96.000000 68.000000"
 preserveAspectRatio="xMidYMid meet">
<metadata>
Created by potrace 1.16, written by Peter Selinger 2001-2019
</metadata>
<g transform="translate(0.000000,68.000000) scale(0.100000,-0.100000)"
fill="#000000" stroke="none">
<path d="M544 325 c15 -61 -45 -164 -117 -201 -44 -24 -24 -28 25 -6 46 21 87
60 110 106 l15 29 47 -61 c61 -80 93 -102 148 -102 60 0 82 15 43 30 -17 6
-49 18 -72 26 -23 9 -67 39 -98 67 -52 46 -57 54 -52 83 6 35 -7 54 -36 54
-16 0 -18 -5 -13 -25z"/>
</g>
</svg>
