<?xml version="1.0" standalone="no"?>
<!DOCTYPE svg PUBLIC "-//W3C//DTD SVG 20010904//EN"
 "http://www.w3.org/TR/2001/REC-SVG-20010904/DTD/svg10.dtd">
<svg version="1.0" xmlns="http://www.w3.org/2000/svg"
 width="96.000000pt" height="68.000000pt" viewBox="0 0 96.000000 68.000000"
 preserveAspectRatio="xMidYMid meet">
<metadata>
Created by potrace 1.16, written by Peter Selinger 2001-2019
</metadata>
<g transform="translate(0.000000,68.000000) scale(0.100000,-0.100000)"
fill="#000000" stroke="none">
<path d="M485 575 c3 -14 8 -37 11 -52 7 -33 -8 -43 -63 -43 -24 0 -43 -4 -43
-10 0 -5 25 -10 55 -10 52 0 55 -1 55 -25 0 -23 -3 -25 -49 -25 -28 0 -53 -4
-56 -10 -4 -6 15 -10 49 -10 50 0 56 -2 56 -20 0 -25 -5 -27 -94 -35 -46 -5
-64 -10 -55 -16 8 -5 44 -6 82 -2 64 6 67 5 67 -16 0 -11 -4 -22 -10 -22 -5
-1 -14 -3 -20 -4 -5 -1 -23 -3 -40 -4 -16 0 -30 -6 -30 -12 0 -8 17 -10 50 -7
l50 5 0 -63 c0 -35 -2 -64 -4 -64 -2 0 -19 6 -37 14 -26 11 -33 20 -34 42 0
51 -30 41 -57 -18 -14 -29 -31 -60 -39 -69 -8 -8 -25 -28 -39 -43 l-25 -29 25
13 c13 7 44 32 68 54 24 23 47 42 52 44 10 4 54 -17 162 -76 60 -33 87 -42
125 -42 53 0 123 16 123 29 0 4 -46 14 -102 23 -57 8 -120 22 -140 31 -32 14
-38 21 -38 46 0 31 1 31 53 32 28 1 63 4 77 9 22 6 23 8 8 15 -24 10 -55 10
-101 0 -38 -7 -39 -7 -35 21 2 24 8 29 33 32 79 7 95 12 95 35 0 39 16 50 74
55 65 5 65 22 0 22 -40 0 -45 2 -39 19 9 28 -21 46 -73 43 -25 -1 -54 -4 -64
-8 -14 -4 -18 0 -18 19 0 22 6 26 43 32 63 10 78 15 71 27 -4 6 -27 7 -61 3
l-55 -7 7 40 c5 34 3 42 -14 51 -11 6 -29 11 -41 11 -16 0 -19 -5 -15 -25z
m155 -189 c0 -21 -6 -24 -42 -28 -51 -6 -45 -8 -50 17 -2 16 4 21 37 26 22 3
43 7 48 8 4 0 7 -10 7 -23z m-8 -71 c-5 -24 1 -21 -49 -28 -38 -4 -43 -3 -43
14 0 22 32 38 70 35 19 -1 24 -7 22 -21z"/>
<path d="M220 500 c-14 -4 -47 -8 -74 -9 -48 -1 -48 -1 -40 -28 5 -16 9 -94 9
-175 0 -80 3 -149 7 -153 4 -5 13 -3 21 3 7 6 31 14 54 18 35 5 43 3 56 -16
19 -27 43 -21 56 12 4 13 9 86 10 162 1 77 5 144 8 149 3 4 -3 17 -13 28 -18
20 -51 23 -94 9z m40 -74 l0 -44 -45 -4 -45 -3 0 42 c0 45 7 51 58 52 31 1 32
0 32 -43z m10 -113 c0 -18 -6 -23 -24 -23 -13 0 -38 -3 -55 -6 -28 -6 -31 -4
-31 17 0 37 12 47 55 51 43 3 55 -5 55 -39z m-6 -84 c3 -17 4 -34 1 -38 -2 -5
-30 -9 -61 -10 -54 -2 -56 -1 -50 21 3 13 6 28 6 35 0 12 24 19 71 22 22 1 28
-4 33 -30z"/>
</g>
</svg>
