<?xml version="1.0" standalone="no"?>
<!DOCTYPE svg PUBLIC "-//W3C//DTD SVG 20010904//EN"
 "http://www.w3.org/TR/2001/REC-SVG-20010904/DTD/svg10.dtd">
<svg version="1.0" xmlns="http://www.w3.org/2000/svg"
 width="90.000000pt" height="92.000000pt" viewBox="0 0 90.000000 92.000000"
 preserveAspectRatio="xMidYMid meet">
<metadata>
Created by potrace 1.16, written by Peter Selinger 2001-2019
</metadata>
<g transform="translate(0.000000,92.000000) scale(0.100000,-0.100000)"
fill="#000000" stroke="none">
<path d="M340 894 c0 -9 -12 -36 -27 -60 -25 -39 -32 -44 -65 -44 -41 0 -46
-9 -27 -56 7 -20 7 -61 -1 -138 -9 -93 -9 -112 4 -124 12 -13 20 -13 46 -2 17
7 32 11 34 9 1 -2 12 -21 24 -42 25 -44 32 -41 -102 -61 -54 -8 -101 -18 -104
-20 -2 -3 7 -10 21 -17 18 -8 41 -9 84 -1 32 5 60 8 62 6 8 -8 -53 -77 -111
-125 -33 -28 -86 -64 -116 -82 -31 -17 -50 -33 -44 -35 16 -5 129 48 186 87
25 17 48 31 51 31 4 0 6 -35 5 -78 -3 -99 -3 -102 15 -102 15 0 147 105 154
122 2 5 -20 -2 -48 -16 -28 -14 -55 -26 -61 -26 -5 0 -10 23 -10 53 0 29 -5
58 -12 65 -9 9 -4 21 26 51 33 34 36 40 22 53 -13 14 -8 16 46 22 34 3 80 6
104 6 52 0 63 14 29 36 -22 14 -35 16 -81 7 -53 -9 -54 -9 -54 15 0 17 -8 27
-30 35 -16 6 -30 14 -30 18 0 4 35 10 78 13 42 4 107 9 143 12 54 5 68 3 83
-11 9 -10 15 -24 12 -32 -3 -8 -6 -21 -6 -30 0 -12 -8 -13 -40 -8 -22 4 -40 3
-40 -2 0 -4 18 -28 39 -52 38 -45 39 -45 64 -28 25 16 47 68 47 110 0 10 5 27
10 37 9 17 5 22 -29 39 -36 19 -47 20 -157 10 -66 -5 -146 -14 -179 -19 -84
-14 -95 -13 -95 8 0 16 15 20 108 31 125 15 152 20 152 31 0 16 -45 18 -117 4
-103 -19 -133 -19 -133 4 0 16 14 20 113 29 77 7 116 7 125 0 18 -14 27 -2 55
73 13 36 27 72 31 80 5 12 -5 22 -33 38 l-40 22 -83 -20 c-103 -26 -118 -29
-118 -25 0 2 23 21 50 43 l51 40 -23 16 c-29 21 -58 20 -58 0z m180 -128 c0
-22 -4 -25 -37 -24 -21 0 -76 -7 -122 -16 -46 -9 -86 -14 -88 -12 -3 3 -2 13
1 24 6 16 22 23 79 32 40 6 77 13 82 15 6 2 27 4 48 4 33 1 37 -2 37 -23z
m-14 -81 c-5 -21 -11 -25 -27 -20 -12 4 -51 2 -87 -4 -131 -23 -122 -23 -122
5 0 19 4 24 18 20 9 -2 62 3 117 13 55 10 102 16 104 15 2 -2 0 -15 -3 -29z"/>
<path d="M540 337 c0 -7 -13 -28 -29 -47 -26 -30 -32 -33 -48 -22 -34 23 -66
33 -76 23 -6 -6 0 -14 14 -22 13 -6 53 -38 89 -69 89 -78 138 -110 170 -110
34 0 130 28 130 39 0 4 -37 15 -81 25 -76 16 -209 72 -209 87 0 4 24 17 53 29
28 12 54 24 56 26 3 2 -6 15 -19 29 -25 27 -50 33 -50 12z"/>
</g>
</svg>
