<?xml version="1.0" standalone="no"?>
<!DOCTYPE svg PUBLIC "-//W3C//DTD SVG 20010904//EN"
 "http://www.w3.org/TR/2001/REC-SVG-20010904/DTD/svg10.dtd">
<svg version="1.0" xmlns="http://www.w3.org/2000/svg"
 width="90.000000pt" height="92.000000pt" viewBox="0 0 90.000000 92.000000"
 preserveAspectRatio="xMidYMid meet">
<metadata>
Created by potrace 1.16, written by Peter Selinger 2001-2019
</metadata>
<g transform="translate(0.000000,92.000000) scale(0.100000,-0.100000)"
fill="#000000" stroke="none">
<path d="M600 860 c-46 -8 -255 -28 -410 -39 -88 -6 -102 -16 -58 -40 23 -13
38 -13 124 1 55 9 103 14 108 11 12 -8 -1 -61 -25 -100 -21 -33 -24 -35 -62
-29 -38 6 -39 6 -31 -16 12 -36 16 -231 6 -290 -8 -40 -7 -61 3 -85 13 -31 35
-45 35 -23 0 6 5 10 10 10 35 0 -37 -110 -114 -175 -56 -47 -23 -45 47 3 30
20 80 60 111 88 52 47 56 53 41 67 -14 15 -13 16 17 21 18 3 63 8 99 11 63 6
66 5 77 -20 13 -29 29 -25 42 9 4 13 10 108 11 211 l3 189 -29 18 c-22 13 -40
17 -65 12 -19 -3 -70 -12 -113 -19 l-79 -12 34 36 c56 60 62 69 49 85 -16 19
34 26 197 26 72 0 132 4 132 8 0 19 -41 44 -77 47 -21 2 -58 0 -83 -5z m-40
-232 c0 -13 3 -33 6 -45 6 -20 4 -22 -23 -14 -18 5 -56 4 -99 -4 -38 -7 -86
-16 -106 -19 l-38 -7 0 44 0 44 73 10 c39 6 98 11 130 12 53 1 57 -1 57 -21z
m10 -139 c0 -49 -1 -51 -24 -45 -13 3 -68 -1 -122 -9 -132 -20 -124 -22 -124
28 l0 43 123 16 c67 8 128 16 135 17 8 1 12 -15 12 -50z m0 -128 l0 -50 -34 6
c-19 3 -80 0 -136 -7 -55 -7 -102 -11 -104 -9 -1 2 -1 23 2 47 l4 42 57 1 c31
1 81 4 111 9 105 14 100 16 100 -39z"/>
<path d="M490 245 c0 -7 69 -89 137 -164 40 -43 43 -45 59 -29 15 15 16 22 5
57 -7 25 -24 50 -44 65 -53 39 -157 87 -157 71z"/>
</g>
</svg>
