<?xml version="1.0" standalone="no"?>
<!DOCTYPE svg PUBLIC "-//W3C//DTD SVG 20010904//EN"
 "http://www.w3.org/TR/2001/REC-SVG-20010904/DTD/svg10.dtd">
<svg version="1.0" xmlns="http://www.w3.org/2000/svg"
 width="96.000000pt" height="68.000000pt" viewBox="0 0 96.000000 68.000000"
 preserveAspectRatio="xMidYMid meet">
<metadata>
Created by potrace 1.16, written by Peter Selinger 2001-2019
</metadata>
<g transform="translate(0.000000,68.000000) scale(0.100000,-0.100000)"
fill="#000000" stroke="none">
<path d="M360 157 c-7 -16 -39 -50 -71 -75 -33 -25 -59 -47 -59 -48 0 -4 45
13 73 27 12 7 50 32 85 57 50 37 59 48 46 55 -35 20 -60 15 -74 -16z"/>
<path d="M593 109 c56 -54 87 -79 100 -79 12 0 15 33 5 55 -11 24 -120 85
-153 85 -8 0 14 -27 48 -61z"/>
</g>
</svg>
