<?xml version="1.0" standalone="no"?>
<!DOCTYPE svg PUBLIC "-//W3C//DTD SVG 20010904//EN"
 "http://www.w3.org/TR/2001/REC-SVG-20010904/DTD/svg10.dtd">
<svg version="1.0" xmlns="http://www.w3.org/2000/svg"
 width="96.000000pt" height="68.000000pt" viewBox="0 0 96.000000 68.000000"
 preserveAspectRatio="xMidYMid meet">
<metadata>
Created by potrace 1.16, written by Peter Selinger 2001-2019
</metadata>
<g transform="translate(0.000000,68.000000) scale(0.100000,-0.100000)"
fill="#000000" stroke="none">
<path d="M236 592 c-3 -4 -1 -26 4 -48 5 -21 10 -62 10 -90 0 -57 2 -56 -92
-69 -75 -11 -59 -29 17 -21 36 4 65 3 65 -2 0 -19 -65 -107 -112 -153 -55 -53
-54 -62 2 -28 35 21 100 87 100 102 0 4 3 7 8 7 8 0 -3 -183 -12 -198 -7 -12
13 -72 25 -72 20 0 29 47 29 161 l0 123 29 -28 c16 -16 34 -25 40 -22 22 14
10 35 -29 52 -34 15 -40 22 -38 43 2 19 11 28 36 35 39 11 37 31 -3 31 l-28
-1 6 78 6 78 -29 15 c-16 8 -31 11 -34 7z"/>
</g>
</svg>
