<?xml version="1.0" standalone="no"?>
<!DOCTYPE svg PUBLIC "-//W3C//DTD SVG 20010904//EN"
 "http://www.w3.org/TR/2001/REC-SVG-20010904/DTD/svg10.dtd">
<svg version="1.0" xmlns="http://www.w3.org/2000/svg"
 width="96.000000pt" height="68.000000pt" viewBox="0 0 96.000000 68.000000"
 preserveAspectRatio="xMidYMid meet">
<metadata>
Created by potrace 1.16, written by Peter Selinger 2001-2019
</metadata>
<g transform="translate(0.000000,68.000000) scale(0.100000,-0.100000)"
fill="#000000" stroke="none">
<path d="M550 214 c-36 -8 -79 -12 -95 -9 l-30 5 3 -83 c4 -80 15 -114 30 -91
4 6 39 14 78 17 69 7 71 6 83 -19 26 -58 61 1 61 103 0 61 -3 74 -19 83 -23
12 -27 12 -111 -6z m90 -74 l0 -60 -44 0 c-24 0 -64 -3 -90 -6 -44 -6 -46 -6
-46 18 0 25 3 26 85 33 47 4 85 11 85 16 0 11 -60 11 -117 0 -38 -7 -42 -6
-46 16 -3 18 1 24 17 28 25 5 77 11 124 13 l32 2 0 -60z"/>
</g>
</svg>
