<?xml version="1.0" standalone="no"?>
<!DOCTYPE svg PUBLIC "-//W3C//DTD SVG 20010904//EN"
 "http://www.w3.org/TR/2001/REC-SVG-20010904/DTD/svg10.dtd">
<svg version="1.0" xmlns="http://www.w3.org/2000/svg"
 width="96.000000pt" height="68.000000pt" viewBox="0 0 96.000000 68.000000"
 preserveAspectRatio="xMidYMid meet">
<metadata>
Created by potrace 1.16, written by Peter Selinger 2001-2019
</metadata>
<g transform="translate(0.000000,68.000000) scale(0.100000,-0.100000)"
fill="#000000" stroke="none">
<path d="M540 567 c0 -1 -2 -42 -4 -91 -4 -93 -10 -106 -54 -106 -14 0 -20 -4
-17 -10 4 -6 16 -10 28 -8 19 3 22 -1 20 -27 -4 -50 -42 -138 -83 -193 -46
-60 -37 -68 19 -17 43 39 77 101 101 185 l17 55 63 13 c65 13 78 18 68 28 -8
8 -37 7 -86 -1 l-43 -8 6 39 c4 21 11 54 16 73 9 38 1 56 -31 64 -11 3 -20 4
-20 4z"/>
</g>
</svg>
