<?xml version="1.0" standalone="no"?>
<!DOCTYPE svg PUBLIC "-//W3C//DTD SVG 20010904//EN"
 "http://www.w3.org/TR/2001/REC-SVG-20010904/DTD/svg10.dtd">
<svg version="1.0" xmlns="http://www.w3.org/2000/svg"
 width="96.000000pt" height="68.000000pt" viewBox="0 0 96.000000 68.000000"
 preserveAspectRatio="xMidYMid meet">
<metadata>
Created by potrace 1.16, written by Peter Selinger 2001-2019
</metadata>
<g transform="translate(0.000000,68.000000) scale(0.100000,-0.100000)"
fill="#000000" stroke="none">
<path d="M540 219 c-41 -4 -130 -9 -198 -11 -118 -3 -123 -4 -116 -23 3 -11 8
-46 11 -77 4 -40 10 -58 19 -58 10 0 14 16 14 64 l0 64 68 8 c37 4 125 7 197
8 l130 1 3 -37 c5 -56 -13 -81 -53 -76 l-32 4 21 -33 c42 -65 89 -34 112 74
18 85 19 78 -11 91 -29 13 -54 13 -165 1z"/>
</g>
</svg>
