<?xml version="1.0" standalone="no"?>
<!DOCTYPE svg PUBLIC "-//W3C//DTD SVG 20010904//EN"
 "http://www.w3.org/TR/2001/REC-SVG-20010904/DTD/svg10.dtd">
<svg version="1.0" xmlns="http://www.w3.org/2000/svg"
 width="90.000000pt" height="92.000000pt" viewBox="0 0 90.000000 92.000000"
 preserveAspectRatio="xMidYMid meet">
<metadata>
Created by potrace 1.16, written by Peter Selinger 2001-2019
</metadata>
<g transform="translate(0.000000,92.000000) scale(0.100000,-0.100000)"
fill="#000000" stroke="none">
<path d="M596 835 c3 -19 3 -50 0 -69 -6 -31 -10 -34 -54 -40 -26 -4 -55 -9
-64 -12 -14 -4 -17 3 -20 42 -3 42 -6 49 -31 57 -37 12 -41 6 -22 -29 8 -16
15 -41 15 -55 0 -24 -4 -27 -45 -32 -79 -8 -75 -32 6 -32 45 0 49 -2 49 -23 0
-13 5 -32 11 -43 8 -16 13 -18 24 -9 11 9 16 7 24 -9 26 -47 2 -61 -100 -61
-27 0 -49 -4 -49 -10 0 -5 4 -10 8 -10 5 0 16 -27 25 -60 10 -33 22 -60 27
-60 6 0 10 3 10 8 0 4 23 8 50 10 49 3 50 2 50 -27 0 -28 -2 -29 -60 -36 -79
-9 -76 -30 4 -30 55 1 57 0 54 -25 -3 -22 -9 -26 -56 -31 -29 -4 -56 -10 -59
-13 -14 -13 12 -21 63 -19 l54 2 0 -33 0 -33 -77 -7 c-42 -3 -93 -6 -115 -6
-46 0 -49 -14 -7 -35 26 -14 39 -14 82 -5 29 7 139 14 245 17 155 5 192 9 192
20 0 8 -16 21 -36 29 -29 12 -49 13 -110 4 -42 -5 -89 -10 -105 -10 -26 0 -29
3 -29 34 l0 33 62 7 c67 7 77 11 61 27 -6 6 -35 9 -67 7 -56 -3 -57 -2 -54 22
3 23 9 26 62 32 101 13 98 44 -4 36 -48 -3 -50 -2 -50 23 0 23 5 27 38 33 20
3 54 6 75 6 31 0 37 3 37 22 0 12 12 34 26 49 l25 26 -28 23 c-24 19 -35 21
-82 15 -30 -4 -61 -9 -69 -12 -11 -5 -13 -1 -8 15 4 11 2 23 -5 27 -14 10 8
25 36 25 16 0 20 7 22 36 3 55 16 64 94 64 73 0 95 13 63 37 -14 11 -34 13
-76 8 -32 -3 -58 -3 -58 0 0 4 8 23 17 42 16 35 16 36 -8 54 -13 10 -34 19
-47 19 -21 0 -22 -3 -16 -35z m-14 -164 c-3 -23 -10 -30 -34 -35 -61 -12 -78
-8 -78 18 0 22 6 26 53 34 28 5 55 10 58 11 3 0 4 -12 1 -28z m86 -178 c-3
-24 -9 -29 -55 -39 l-53 -12 0 39 0 39 56 0 c54 0 55 0 52 -27z m-158 -28 c0
-33 -2 -35 -34 -35 -19 0 -41 -3 -50 -6 -13 -5 -16 1 -16 29 0 38 8 42 73 46
25 1 27 -2 27 -34z"/>
<path d="M190 720 c-41 -10 -92 -19 -113 -19 -59 -2 -41 -25 24 -31 l54 -5 8
-70 c4 -38 5 -75 3 -81 -3 -7 -28 -15 -56 -19 -66 -9 -61 -29 8 -33 l52 -3 0
-83 0 -83 -58 -21 c-31 -11 -67 -23 -79 -27 -13 -3 -23 -10 -23 -15 0 -11 50
-50 64 -50 6 0 43 21 82 47 39 27 98 66 132 88 33 21 59 43 56 47 -2 3 -29 -4
-59 -18 -71 -31 -76 -30 -71 9 3 17 5 53 5 79 l1 47 45 7 c25 3 48 10 50 15 9
13 -35 31 -66 27 l-30 -5 3 79 c3 84 1 81 71 94 45 8 55 19 28 33 -25 14 -38
13 -131 -9z"/>
</g>
</svg>
