<?xml version="1.0" standalone="no"?>
<!DOCTYPE svg PUBLIC "-//W3C//DTD SVG 20010904//EN"
 "http://www.w3.org/TR/2001/REC-SVG-20010904/DTD/svg10.dtd">
<svg version="1.0" xmlns="http://www.w3.org/2000/svg"
 width="96.000000pt" height="68.000000pt" viewBox="0 0 96.000000 68.000000"
 preserveAspectRatio="xMidYMid meet">
<metadata>
Created by potrace 1.16, written by Peter Selinger 2001-2019
</metadata>
<g transform="translate(0.000000,68.000000) scale(0.100000,-0.100000)"
fill="#000000" stroke="none">
<path d="M205 430 c-11 -5 -41 -9 -67 -9 -44 -1 -61 -12 -39 -25 5 -3 14 -35
21 -71 7 -36 16 -67 20 -70 4 -2 20 0 36 5 16 5 41 12 57 15 21 4 27 11 27 30
0 13 7 45 16 71 13 39 13 48 2 55 -16 11 -47 10 -73 -1z m17 -72 c-5 -54 -14
-68 -44 -68 -12 0 -19 11 -23 38 -4 20 -9 45 -11 54 -5 16 11 23 62 27 19 1
21 -3 16 -51z"/>
</g>
</svg>
