<?xml version="1.0" standalone="no"?>
<!DOCTYPE svg PUBLIC "-//W3C//DTD SVG 20010904//EN"
 "http://www.w3.org/TR/2001/REC-SVG-20010904/DTD/svg10.dtd">
<svg version="1.0" xmlns="http://www.w3.org/2000/svg"
 width="96.000000pt" height="68.000000pt" viewBox="0 0 96.000000 68.000000"
 preserveAspectRatio="xMidYMid meet">
<metadata>
Created by potrace 1.16, written by Peter Selinger 2001-2019
</metadata>
<g transform="translate(0.000000,68.000000) scale(0.100000,-0.100000)"
fill="#000000" stroke="none">
<path d="M645 181 c4 -8 2 -17 -6 -22 -10 -6 -11 -11 -2 -20 8 -8 13 -6 18 11
4 13 2 27 -5 34 -10 8 -11 8 -5 -3z"/>
<path d="M545 162 c6 -4 10 -16 10 -27 0 -11 3 -28 8 -39 6 -12 5 -16 -1 -12
-6 3 -13 2 -16 -3 -7 -11 51 -8 61 4 4 4 0 5 -9 2 -14 -5 -18 2 -24 39 -4 31
-11 44 -23 44 -9 0 -12 -3 -6 -8z"/>
<path d="M627 91 c-4 -17 -1 -21 19 -21 13 0 24 5 24 11 0 5 -4 8 -9 4 -6 -3
-14 2 -19 11 -8 14 -10 14 -15 -5z"/>
<path d="M748 90 c-15 -4 -30 -5 -34 -1 -4 3 -4 0 0 -6 4 -8 30 -13 67 -13 59
0 79 12 37 24 -28 7 -35 7 -70 -4z m59 -6 c-3 -3 -12 -4 -19 -1 -8 3 -5 6 6 6
11 1 17 -2 13 -5z"/>
<path d="M460 64 l-35 -14 35 6 c36 6 46 11 39 18 -2 2 -20 -3 -39 -10z"/>
<path d="M510 70 c0 -5 5 -10 10 -10 6 0 10 5 10 10 0 6 -4 10 -10 10 -5 0
-10 -4 -10 -10z"/>
</g>
</svg>
