<?xml version="1.0" standalone="no"?>
<!DOCTYPE svg PUBLIC "-//W3C//DTD SVG 20010904//EN"
 "http://www.w3.org/TR/2001/REC-SVG-20010904/DTD/svg10.dtd">
<svg version="1.0" xmlns="http://www.w3.org/2000/svg"
 width="96.000000pt" height="68.000000pt" viewBox="0 0 96.000000 68.000000"
 preserveAspectRatio="xMidYMid meet">
<metadata>
Created by potrace 1.16, written by Peter Selinger 2001-2019
</metadata>
<g transform="translate(0.000000,68.000000) scale(0.100000,-0.100000)"
fill="#000000" stroke="none">
<path d="M590 459 c-19 -5 -72 -11 -118 -13 l-83 -4 -20 -38 c-10 -22 -17 -45
-14 -52 7 -20 41 3 53 36 9 27 14 29 99 40 104 14 163 15 163 4 0 -4 -7 -18
-16 -30 -8 -12 -11 -22 -5 -22 21 0 111 46 111 57 0 28 -98 40 -170 22z"/>
</g>
</svg>
