<?xml version="1.0" standalone="no"?>
<!DOCTYPE svg PUBLIC "-//W3C//DTD SVG 20010904//EN"
 "http://www.w3.org/TR/2001/REC-SVG-20010904/DTD/svg10.dtd">
<svg version="1.0" xmlns="http://www.w3.org/2000/svg"
 width="96.000000pt" height="68.000000pt" viewBox="0 0 96.000000 68.000000"
 preserveAspectRatio="xMidYMid meet">
<metadata>
Created by potrace 1.16, written by Peter Selinger 2001-2019
</metadata>
<g transform="translate(0.000000,68.000000) scale(0.100000,-0.100000)"
fill="#000000" stroke="none">
<path d="M433 471 c5 -22 -25 -31 -99 -31 -26 0 -44 -5 -44 -11 0 -8 22 -10
76 -5 69 6 75 6 72 -11 -3 -15 -17 -19 -83 -25 -44 -4 -113 -10 -153 -13 -39
-4 -70 -11 -66 -16 10 -16 120 -10 277 16 21 4 27 1 27 -14 0 -22 -26 -31 -92
-31 -27 0 -48 -4 -48 -10 0 -6 30 -10 71 -10 l72 0 -5 -145 c-4 -118 -2 -147
9 -157 26 -21 33 12 33 163 l0 147 31 6 c17 3 50 6 73 6 39 0 42 2 41 28 l0
27 93 6 c50 3 95 8 98 12 3 3 -4 11 -16 17 -15 8 -45 10 -90 5 -65 -7 -68 -6
-63 13 7 28 -24 36 -103 27 -55 -6 -64 -4 -64 9 0 11 -9 16 -26 16 -21 0 -25
-4 -21 -19z m157 -46 c0 -8 -8 -15 -17 -15 -10 0 -35 -3 -55 -6 -34 -6 -38 -4
-38 15 0 19 6 21 55 21 42 0 55 -3 55 -15z m-16 -65 c-5 -4 -28 -10 -51 -13
-37 -4 -43 -3 -43 13 0 15 9 19 48 22 46 3 63 -5 46 -22z"/>
</g>
</svg>
