<?xml version="1.0" standalone="no"?>
<!DOCTYPE svg PUBLIC "-//W3C//DTD SVG 20010904//EN"
 "http://www.w3.org/TR/2001/REC-SVG-20010904/DTD/svg10.dtd">
<svg version="1.0" xmlns="http://www.w3.org/2000/svg"
 width="96.000000pt" height="68.000000pt" viewBox="0 0 96.000000 68.000000"
 preserveAspectRatio="xMidYMid meet">
<metadata>
Created by potrace 1.16, written by Peter Selinger 2001-2019
</metadata>
<g transform="translate(0.000000,68.000000) scale(0.100000,-0.100000)"
fill="#000000" stroke="none">
<path d="M640 291 c0 -29 -3 -31 -34 -31 -25 0 -35 5 -39 20 -9 36 -33 23 -32
-17 0 -29 4 -37 15 -34 8 2 32 6 53 8 32 5 37 3 37 -15 0 -17 -6 -20 -42 -21
-24 0 -83 -5 -133 -10 -129 -15 -175 -14 -175 4 0 11 11 15 40 15 29 0 42 5
50 19 17 33 12 61 -10 61 -16 0 -20 -7 -20 -30 0 -27 -3 -30 -30 -30 -25 0
-30 4 -30 25 0 14 -4 25 -9 25 -5 0 -17 3 -26 7 -15 5 -16 1 -10 -34 8 -50
-10 -154 -36 -205 -11 -21 -16 -38 -11 -38 11 0 46 39 61 68 9 16 21 22 46 22
32 0 34 -2 37 -40 2 -22 8 -41 13 -42 14 -1 36 100 23 108 -5 3 -31 3 -58 -1
-45 -6 -48 -5 -43 13 4 18 17 20 151 26 81 4 162 10 180 13 29 5 32 3 32 -21
0 -23 -4 -26 -37 -28 -21 0 -46 0 -56 0 -17 2 -18 -3 -12 -50 4 -29 10 -57 12
-62 10 -15 23 18 23 57 0 36 1 37 35 37 l35 0 0 -55 c0 -47 3 -55 19 -55 17 0
19 12 23 152 3 84 5 154 4 154 0 1 -11 5 -23 8 -20 7 -23 4 -23 -23z"/>
</g>
</svg>
