<?xml version="1.0" standalone="no"?>
<!DOCTYPE svg PUBLIC "-//W3C//DTD SVG 20010904//EN"
 "http://www.w3.org/TR/2001/REC-SVG-20010904/DTD/svg10.dtd">
<svg version="1.0" xmlns="http://www.w3.org/2000/svg"
 width="96.000000pt" height="68.000000pt" viewBox="0 0 96.000000 68.000000"
 preserveAspectRatio="xMidYMid meet">
<metadata>
Created by potrace 1.16, written by Peter Selinger 2001-2019
</metadata>
<g transform="translate(0.000000,68.000000) scale(0.100000,-0.100000)"
fill="#000000" stroke="none">
<path d="M500 593 c0 -5 11 -21 23 -37 16 -20 29 -27 40 -23 31 12 -6 67 -45
67 -10 0 -18 -3 -18 -7z"/>
<path d="M655 536 c-5 -3 -77 -14 -160 -27 -122 -18 -145 -24 -127 -32 17 -8
53 -6 130 6 59 9 142 19 186 23 51 4 75 9 68 16 -10 10 -80 20 -97 14z"/>
</g>
</svg>
