<?xml version="1.0" standalone="no"?>
<!DOCTYPE svg PUBLIC "-//W3C//DTD SVG 20010904//EN"
 "http://www.w3.org/TR/2001/REC-SVG-20010904/DTD/svg10.dtd">
<svg version="1.0" xmlns="http://www.w3.org/2000/svg"
 width="96.000000pt" height="68.000000pt" viewBox="0 0 96.000000 68.000000"
 preserveAspectRatio="xMidYMid meet">
<metadata>
Created by potrace 1.16, written by Peter Selinger 2001-2019
</metadata>
<g transform="translate(0.000000,68.000000) scale(0.100000,-0.100000)"
fill="#000000" stroke="none">
<path d="M509 588 c-7 -13 -18 -32 -26 -44 -12 -19 -10 -23 27 -48 46 -30 50
-31 50 -10 0 9 -13 21 -30 27 -38 14 -38 24 0 45 35 20 37 28 10 42 -16 8 -21
6 -31 -12z"/>
<path d="M605 570 c-10 -22 -16 -41 -14 -43 2 -1 18 -12 36 -25 34 -23 53 -28
53 -13 0 15 -30 41 -46 41 -21 0 -17 19 8 39 12 10 18 23 14 29 -14 23 -33 12
-51 -28z"/>
<path d="M391 555 c-13 -25 -22 -47 -20 -48 2 -2 17 -13 33 -25 33 -25 46 -28
46 -9 0 8 -11 20 -25 27 -25 13 -35 40 -14 40 18 0 41 30 35 45 -10 27 -31 16
-55 -30z"/>
<path d="M160 521 c0 -19 71 -91 90 -91 21 0 34 29 25 53 -10 24 -115 60 -115
38z"/>
<path d="M540 449 c-47 -5 -109 -9 -137 -10 -48 -1 -52 -3 -43 -19 6 -11 14
-36 18 -56 l8 -38 59 3 c33 2 74 5 90 6 17 2 49 3 72 4 40 1 45 4 73 49 27 43
28 48 13 60 -18 13 -26 13 -153 1z m97 -46 c-4 -20 -7 -37 -9 -38 -2 -2 -54
-6 -115 -10 -109 -7 -113 -7 -113 13 0 11 -3 27 -6 35 -4 12 5 17 39 22 25 4
53 5 63 3 16 -3 14 -7 -11 -33 -22 -21 -24 -27 -10 -20 25 11 64 11 88 1 10
-5 17 -4 17 3 0 6 -11 13 -24 17 -15 4 -23 12 -21 22 2 9 4 17 4 18 1 0 24 1
52 1 l51 2 -5 -36z"/>
<path d="M163 366 c-35 -12 -63 -24 -63 -28 0 -5 27 -8 61 -8 l60 0 -15 -22
c-21 -30 -20 -45 4 -75 11 -14 20 -36 20 -49 0 -23 -3 -24 -65 -24 -47 0 -65
-4 -65 -13 0 -28 22 -35 98 -30 74 4 84 2 230 -51 84 -30 167 -58 185 -61 32
-6 202 36 221 55 9 9 -28 14 -234 29 -74 6 -155 16 -180 24 l-45 13 43 28 c23
16 42 31 42 33 0 3 -14 2 -31 -2 -28 -6 -30 -5 -27 17 2 19 10 24 41 26 21 2
35 7 31 13 -3 5 -21 7 -40 3 -21 -4 -34 -2 -34 4 0 6 19 13 41 17 29 5 37 10
28 16 -8 4 -24 6 -36 3 -16 -4 -25 -1 -29 10 -3 9 -12 16 -20 16 -13 0 -18
-52 -17 -163 0 -19 -15 -19 -73 3 -21 8 -25 15 -20 35 5 18 -1 33 -24 59 l-30
34 40 32 c44 35 50 54 21 70 -26 13 -44 11 -118 -14z"/>
<path d="M634 288 c23 -114 52 -158 120 -176 58 -16 66 -9 47 44 -17 48 -28
56 -33 22 -4 -31 -21 -32 -56 -3 -26 22 -31 34 -34 77 -3 43 -7 52 -27 60 -22
8 -23 7 -17 -24z"/>
<path d="M495 213 c0 -98 8 -118 36 -91 8 8 31 24 52 37 46 28 44 34 -6 19
-42 -13 -52 -8 -42 21 4 13 15 21 28 21 12 0 29 5 37 10 17 11 9 13 -32 10
-16 -1 -28 3 -28 8 0 12 24 22 51 22 12 0 17 4 13 11 -3 6 -16 8 -29 5 -14 -4
-28 0 -35 9 -7 8 -20 15 -29 15 -14 0 -16 -14 -16 -97z"/>
</g>
</svg>
