<?xml version="1.0" standalone="no"?>
<!DOCTYPE svg PUBLIC "-//W3C//DTD SVG 20010904//EN"
 "http://www.w3.org/TR/2001/REC-SVG-20010904/DTD/svg10.dtd">
<svg version="1.0" xmlns="http://www.w3.org/2000/svg"
 width="96.000000pt" height="68.000000pt" viewBox="0 0 96.000000 68.000000"
 preserveAspectRatio="xMidYMid meet">
<metadata>
Created by potrace 1.16, written by Peter Selinger 2001-2019
</metadata>
<g transform="translate(0.000000,68.000000) scale(0.100000,-0.100000)"
fill="#000000" stroke="none">
<path d="M490 575 c0 -31 -39 -125 -80 -195 -17 -29 -29 -54 -27 -56 2 -2 23
17 47 41 34 34 52 45 75 45 18 0 57 5 89 11 31 7 59 9 62 7 3 -3 -2 -22 -10
-43 -9 -20 -12 -35 -8 -33 64 29 122 61 122 68 0 16 -53 42 -84 41 -17 0 -65
-7 -106 -15 -41 -8 -76 -13 -78 -11 -2 1 12 32 29 68 27 55 31 68 20 81 -22
26 -51 20 -51 -9z"/>
</g>
</svg>
