<?xml version="1.0" standalone="no"?>
<!DOCTYPE svg PUBLIC "-//W3C//DTD SVG 20010904//EN"
 "http://www.w3.org/TR/2001/REC-SVG-20010904/DTD/svg10.dtd">
<svg version="1.0" xmlns="http://www.w3.org/2000/svg"
 width="96.000000pt" height="68.000000pt" viewBox="0 0 96.000000 68.000000"
 preserveAspectRatio="xMidYMid meet">
<metadata>
Created by potrace 1.16, written by Peter Selinger 2001-2019
</metadata>
<g transform="translate(0.000000,68.000000) scale(0.100000,-0.100000)"
fill="#000000" stroke="none">
<path d="M267 498 c5 -110 8 -119 27 -112 9 3 17 24 21 50 17 141 18 130 -10
142 -14 7 -30 12 -34 12 -5 0 -6 -42 -4 -92z"/>
<path d="M362 455 l-22 -46 28 15 c15 8 36 22 47 30 20 16 20 16 1 31 -28 21
-29 20 -54 -30z"/>
<path d="M169 442 c22 -32 54 -42 67 -21 10 16 -16 38 -55 45 l-35 7 23 -31z"/>
</g>
</svg>
