<?xml version="1.0" standalone="no"?>
<!DOCTYPE svg PUBLIC "-//W3C//DTD SVG 20010904//EN"
 "http://www.w3.org/TR/2001/REC-SVG-20010904/DTD/svg10.dtd">
<svg version="1.0" xmlns="http://www.w3.org/2000/svg"
 width="96.000000pt" height="68.000000pt" viewBox="0 0 96.000000 68.000000"
 preserveAspectRatio="xMidYMid meet">
<metadata>
Created by potrace 1.16, written by Peter Selinger 2001-2019
</metadata>
<g transform="translate(0.000000,68.000000) scale(0.100000,-0.100000)"
fill="#000000" stroke="none">
<path d="M190 515 c0 -16 61 -65 80 -65 23 0 28 31 8 48 -16 13 -88 27 -88 17z"/>
<path d="M150 330 c36 -32 80 -40 80 -16 0 23 -41 46 -80 46 l-35 -1 35 -29z"/>
<path d="M231 237 c-17 -25 -49 -61 -71 -80 -22 -18 -40 -41 -40 -49 0 -18 36
-65 44 -58 10 11 106 223 102 227 -2 2 -18 -16 -35 -40z"/>
</g>
</svg>
