<?xml version="1.0" standalone="no"?>
<!DOCTYPE svg PUBLIC "-//W3C//DTD SVG 20010904//EN"
 "http://www.w3.org/TR/2001/REC-SVG-20010904/DTD/svg10.dtd">
<svg version="1.0" xmlns="http://www.w3.org/2000/svg"
 width="96.000000pt" height="68.000000pt" viewBox="0 0 96.000000 68.000000"
 preserveAspectRatio="xMidYMid meet">
<metadata>
Created by potrace 1.16, written by Peter Selinger 2001-2019
</metadata>
<g transform="translate(0.000000,68.000000) scale(0.100000,-0.100000)"
fill="#000000" stroke="none">
<path d="M548 555 c-3 -31 -9 -60 -14 -65 -5 -5 -46 -12 -92 -16 -45 -4 -82
-11 -82 -15 0 -14 49 -22 101 -16 27 3 49 3 49 -2 0 -21 -64 -103 -125 -158
-37 -35 -65 -63 -61 -63 4 0 25 9 47 21 59 30 124 93 165 160 19 33 41 59 47
59 50 0 244 23 250 30 5 4 -7 13 -25 19 -26 9 -56 8 -126 -2 -51 -8 -92 -11
-92 -7 0 4 7 25 16 46 15 35 15 39 -2 51 -37 27 -51 17 -56 -42z"/>
</g>
</svg>
