<?xml version="1.0" standalone="no"?>
<!DOCTYPE svg PUBLIC "-//W3C//DTD SVG 20010904//EN"
 "http://www.w3.org/TR/2001/REC-SVG-20010904/DTD/svg10.dtd">
<svg version="1.0" xmlns="http://www.w3.org/2000/svg"
 width="96.000000pt" height="68.000000pt" viewBox="0 0 96.000000 68.000000"
 preserveAspectRatio="xMidYMid meet">
<metadata>
Created by potrace 1.16, written by Peter Selinger 2001-2019
</metadata>
<g transform="translate(0.000000,68.000000) scale(0.100000,-0.100000)"
fill="#000000" stroke="none">
<path d="M565 475 c-44 -8 -106 -14 -137 -14 -33 -1 -58 -5 -58 -11 0 -8 36
-88 44 -96 0 -1 44 4 96 11 52 8 106 11 120 9 20 -4 34 4 70 40 32 33 41 49
33 57 -17 17 -81 18 -168 4z m105 -21 c0 -19 -36 -64 -48 -59 -8 3 -27 5 -43
5 -26 0 -29 4 -29 30 l0 30 60 0 c33 0 60 -3 60 -6z m-162 -36 c3 -24 -1 -28
-33 -34 -27 -5 -40 -3 -46 7 -17 27 -10 48 19 52 46 7 57 3 60 -25z"/>
</g>
</svg>
