<?xml version="1.0" standalone="no"?>
<!DOCTYPE svg PUBLIC "-//W3C//DTD SVG 20010904//EN"
 "http://www.w3.org/TR/2001/REC-SVG-20010904/DTD/svg10.dtd">
<svg version="1.0" xmlns="http://www.w3.org/2000/svg"
 width="96.000000pt" height="68.000000pt" viewBox="0 0 96.000000 68.000000"
 preserveAspectRatio="xMidYMid meet">
<metadata>
Created by potrace 1.16, written by Peter Selinger 2001-2019
</metadata>
<g transform="translate(0.000000,68.000000) scale(0.100000,-0.100000)"
fill="#000000" stroke="none">
<path d="M657 406 l-37 -45 45 25 c25 14 43 29 40 34 -3 4 1 7 8 6 6 0 14 4
17 9 3 6 -4 11 -15 12 -13 2 -33 -12 -58 -41z"/>
<path d="M626 289 c3 -5 9 -9 14 -9 5 0 20 -11 34 -25 27 -27 56 -33 56 -12 0
7 -10 18 -22 26 -28 17 -90 32 -82 20z"/>
</g>
</svg>
