<?xml version="1.0" standalone="no"?>
<!DOCTYPE svg PUBLIC "-//W3C//DTD SVG 20010904//EN"
 "http://www.w3.org/TR/2001/REC-SVG-20010904/DTD/svg10.dtd">
<svg version="1.0" xmlns="http://www.w3.org/2000/svg"
 width="96.000000pt" height="68.000000pt" viewBox="0 0 96.000000 68.000000"
 preserveAspectRatio="xMidYMid meet">
<metadata>
Created by potrace 1.16, written by Peter Selinger 2001-2019
</metadata>
<g transform="translate(0.000000,68.000000) scale(0.100000,-0.100000)"
fill="#000000" stroke="none">
<path d="M445 578 l0 -42 -60 -12 -60 -11 63 -2 c59 -1 62 -2 62 -26 0 -23 -4
-25 -42 -26 -24 -1 -56 -5 -73 -9 -49 -11 -4 -24 61 -16 34 4 54 2 54 -4 0 -5
11 -10 25 -10 16 0 25 6 25 15 0 10 10 15 28 15 44 0 102 12 102 21 0 11 -39
15 -87 8 -41 -6 -43 -5 -43 21 0 25 3 27 80 39 44 8 80 17 80 21 0 4 -7 13
-16 21 -13 10 -23 10 -62 -4 -67 -24 -81 -23 -79 11 2 23 -2 27 -28 30 -29 3
-30 2 -30 -40z"/>
</g>
</svg>
