<?xml version="1.0" standalone="no"?>
<!DOCTYPE svg PUBLIC "-//W3C//DTD SVG 20010904//EN"
 "http://www.w3.org/TR/2001/REC-SVG-20010904/DTD/svg10.dtd">
<svg version="1.0" xmlns="http://www.w3.org/2000/svg"
 width="96.000000pt" height="68.000000pt" viewBox="0 0 96.000000 68.000000"
 preserveAspectRatio="xMidYMid meet">
<metadata>
Created by potrace 1.16, written by Peter Selinger 2001-2019
</metadata>
<g transform="translate(0.000000,68.000000) scale(0.100000,-0.100000)"
fill="#000000" stroke="none">
<path d="M670 275 c0 -19 -7 -27 -32 -35 l-33 -10 33 3 c29 3 32 1 32 -25 0
-15 5 -28 12 -28 6 0 4 -6 -5 -12 -15 -11 -11 -13 30 -15 27 -1 68 0 93 4 39
5 42 6 22 14 -13 5 -40 5 -60 1 -46 -11 -62 -6 -62 19 0 10 -5 19 -11 19 -18
0 2 22 35 36 l31 13 -27 1 c-21 0 -28 5 -28 20 0 11 -7 20 -15 20 -9 0 -15 -9
-15 -25z"/>
<path d="M760 259 c0 -5 9 -9 20 -9 11 0 20 2 20 4 0 2 -9 6 -20 9 -11 3 -20
1 -20 -4z"/>
<path d="M610 150 c0 -5 6 -10 14 -10 8 0 18 5 21 10 3 6 -3 10 -14 10 -12 0
-21 -4 -21 -10z"/>
</g>
</svg>
