<?xml version="1.0" standalone="no"?>
<!DOCTYPE svg PUBLIC "-//W3C//DTD SVG 20010904//EN"
 "http://www.w3.org/TR/2001/REC-SVG-20010904/DTD/svg10.dtd">
<svg version="1.0" xmlns="http://www.w3.org/2000/svg"
 width="96.000000pt" height="68.000000pt" viewBox="0 0 96.000000 68.000000"
 preserveAspectRatio="xMidYMid meet">
<metadata>
Created by potrace 1.16, written by Peter Selinger 2001-2019
</metadata>
<g transform="translate(0.000000,68.000000) scale(0.100000,-0.100000)"
fill="#000000" stroke="none">
<path d="M344 632 c-13 -44 -43 -91 -93 -144 -61 -67 -48 -78 26 -21 48 36 49
37 218 56 168 18 205 28 175 47 -24 15 -90 12 -195 -10 -54 -11 -100 -18 -103
-15 -3 3 4 15 16 28 30 32 27 53 -8 66 -26 9 -32 8 -36 -7z"/>
<path d="M455 448 c-33 -5 -81 -6 -107 -3 l-48 6 10 -26 c11 -30 13 -75 4 -99
-5 -13 -23 -16 -88 -17 -44 -1 -94 -4 -111 -8 l-30 -7 24 -13 c17 -10 46 -11
107 -6 95 8 96 7 64 -64 -20 -44 -26 -81 -12 -81 4 0 25 7 47 15 39 14 245 22
257 9 3 -3 1 -19 -6 -35 -10 -28 -15 -30 -48 -27 -21 2 -38 1 -38 -2 0 -3 16
-21 35 -40 l35 -34 24 23 c13 12 31 40 41 62 19 41 39 48 76 28 11 -5 32 -9
46 -7 l27 3 -27 28 c-17 20 -39 31 -67 34 -40 6 -42 7 -36 36 3 16 6 40 6 53
0 24 1 24 113 24 l112 0 -25 20 c-21 17 -38 20 -105 18 l-80 -2 2 54 c2 34 -2
57 -10 62 -16 10 -115 8 -192 -4z m145 -62 l0 -54 -116 -7 c-63 -4 -118 -5
-121 -1 -3 3 -2 25 1 50 l7 44 77 7 c42 3 84 8 92 9 55 12 60 9 60 -48z m-4
-133 c-3 -25 -9 -49 -12 -52 -6 -6 -238 -18 -253 -13 -5 2 -2 25 7 52 18 56
16 56 171 58 l94 2 -7 -47z"/>
<path d="M435 391 c-2 -5 7 -19 20 -31 19 -18 28 -21 37 -12 8 8 8 15 -1 25
-14 18 -49 28 -56 18z"/>
<path d="M430 261 c0 -18 37 -54 48 -47 18 11 14 34 -7 46 -24 12 -41 13 -41
1z"/>
</g>
</svg>
