<?xml version="1.0" standalone="no"?>
<!DOCTYPE svg PUBLIC "-//W3C//DTD SVG 20010904//EN"
 "http://www.w3.org/TR/2001/REC-SVG-20010904/DTD/svg10.dtd">
<svg version="1.0" xmlns="http://www.w3.org/2000/svg"
 width="96.000000pt" height="68.000000pt" viewBox="0 0 96.000000 68.000000"
 preserveAspectRatio="xMidYMid meet">
<metadata>
Created by potrace 1.16, written by Peter Selinger 2001-2019
</metadata>
<g transform="translate(0.000000,68.000000) scale(0.100000,-0.100000)"
fill="#000000" stroke="none">
<path d="M429 513 c-1 -5 0 -17 0 -29 2 -18 -5 -22 -45 -28 -26 -3 -61 -6 -78
-6 -27 -1 -29 -2 -12 -12 11 -6 42 -8 77 -4 48 5 59 3 59 -9 0 -9 10 -15 25
-15 15 0 25 6 25 14 0 10 16 17 48 21 98 12 113 16 106 27 -4 7 -30 8 -75 4
-59 -6 -69 -5 -69 9 0 19 -58 46 -61 28z"/>
</g>
</svg>
