<?xml version="1.0" standalone="no"?>
<!DOCTYPE svg PUBLIC "-//W3C//DTD SVG 20010904//EN"
 "http://www.w3.org/TR/2001/REC-SVG-20010904/DTD/svg10.dtd">
<svg version="1.0" xmlns="http://www.w3.org/2000/svg"
 width="96.000000pt" height="68.000000pt" viewBox="0 0 96.000000 68.000000"
 preserveAspectRatio="xMidYMid meet">
<metadata>
Created by potrace 1.16, written by Peter Selinger 2001-2019
</metadata>
<g transform="translate(0.000000,68.000000) scale(0.100000,-0.100000)"
fill="#000000" stroke="none">
<path d="M516 562 l7 -59 -52 -7 c-63 -8 -60 -24 4 -20 44 2 45 2 45 -27 0
-28 -2 -29 -45 -29 -25 0 -45 -4 -45 -10 0 -5 20 -10 44 -10 34 0 45 -4 49
-19 8 -31 -5 -39 -63 -42 -30 -1 -61 -4 -68 -7 -28 -10 12 -21 55 -15 54 7 55
-4 6 -53 -72 -70 -99 -87 -122 -74 -22 11 -27 25 -12 35 5 3 19 34 31 70 14
43 28 66 41 70 20 7 27 25 9 25 -6 0 -19 9 -30 20 -11 11 -30 20 -41 20 -17 0
-20 -5 -17 -24 3 -16 0 -27 -9 -30 -15 -6 -53 -8 -53 -3 0 1 12 34 25 72 31
88 31 99 0 113 -50 23 -52 19 -57 -88 -2 -54 -7 -102 -11 -106 -4 -4 -34 -10
-67 -12 -33 -2 -60 -8 -60 -13 0 -19 51 -41 81 -35 27 5 30 4 24 -12 -17 -40
-15 -48 20 -71 19 -13 35 -27 35 -32 0 -7 -48 -46 -106 -87 -17 -11 -15 -12
16 -7 19 3 54 19 78 35 23 17 46 30 51 30 4 0 18 -11 31 -25 13 -14 32 -25 43
-25 17 0 19 5 14 35 -5 33 -4 35 40 55 25 11 50 17 55 13 7 -4 8 -36 4 -89 -5
-65 -3 -84 7 -84 13 0 52 24 76 48 8 7 25 20 38 29 37 25 18 28 -21 3 -50 -30
-61 -23 -57 34 2 35 -2 53 -16 68 -17 19 -17 21 19 50 20 16 35 35 32 42 -6
16 56 26 162 26 42 0 74 4 74 10 0 17 -49 22 -125 13 -42 -5 -78 -7 -80 -4 -3
2 -5 14 -5 27 0 19 7 23 55 29 71 8 73 28 3 23 -48 -3 -53 -1 -56 19 -3 23 9
29 72 35 16 2 32 9 34 17 4 11 -6 13 -51 8 l-56 -7 -3 52 c-3 49 -5 53 -30 56
l-28 3 6 -59z m-206 -230 c0 -21 -33 -102 -42 -102 -8 0 -46 17 -56 25 -1 1 4
18 13 38 14 33 26 41 73 46 6 0 12 -3 12 -7z"/>
<path d="M664 275 c-26 -40 -49 -48 -79 -29 -39 26 -51 11 -13 -18 19 -14 61
-51 93 -82 55 -52 63 -56 106 -56 52 0 79 7 79 21 0 5 -10 9 -21 9 -31 0 -189
80 -189 96 0 7 10 16 23 19 12 4 32 14 45 21 20 13 21 17 8 29 -21 21 -33 19
-52 -10z"/>
</g>
</svg>
