<?xml version="1.0" standalone="no"?>
<!DOCTYPE svg PUBLIC "-//W3C//DTD SVG 20010904//EN"
 "http://www.w3.org/TR/2001/REC-SVG-20010904/DTD/svg10.dtd">
<svg version="1.0" xmlns="http://www.w3.org/2000/svg"
 width="96.000000pt" height="68.000000pt" viewBox="0 0 96.000000 68.000000"
 preserveAspectRatio="xMidYMid meet">
<metadata>
Created by potrace 1.16, written by Peter Selinger 2001-2019
</metadata>
<g transform="translate(0.000000,68.000000) scale(0.100000,-0.100000)"
fill="#000000" stroke="none">
<path d="M465 554 c-60 -6 -133 -13 -162 -13 -28 -1 -54 -5 -58 -10 -12 -20
38 -34 96 -27 49 5 60 3 67 -12 5 -9 13 -85 16 -168 l7 -151 -77 -6 c-42 -4
-110 -7 -150 -7 -107 0 -137 -18 -69 -40 26 -8 70 -9 167 -1 73 6 223 13 332
16 110 3 202 7 205 10 2 3 -3 13 -13 23 -15 15 -36 17 -176 14 l-160 -4 0 140
c0 77 3 153 6 169 6 30 7 30 85 36 91 7 105 13 88 33 -13 16 -50 16 -204 -2z"/>
<path d="M627 453 c-4 -3 -7 -16 -7 -28 0 -25 -46 -100 -83 -135 -15 -14 -27
-28 -27 -32 0 -14 35 5 67 35 l32 30 44 -37 c47 -39 74 -45 83 -21 6 15 -29
55 -47 55 -4 0 -20 5 -34 10 l-26 10 37 46 c37 44 37 47 19 60 -20 15 -47 18
-58 7z"/>
<path d="M280 416 c0 -24 -51 -110 -88 -148 -20 -21 -31 -38 -25 -38 10 0 54
31 81 57 18 18 20 17 59 -17 39 -34 63 -39 63 -11 0 20 -39 51 -64 51 -23 0
-27 15 -8 36 42 48 45 53 32 69 -16 19 -50 20 -50 1z"/>
</g>
</svg>
