<?xml version="1.0" standalone="no"?>
<!DOCTYPE svg PUBLIC "-//W3C//DTD SVG 20010904//EN"
 "http://www.w3.org/TR/2001/REC-SVG-20010904/DTD/svg10.dtd">
<svg version="1.0" xmlns="http://www.w3.org/2000/svg"
 width="96.000000pt" height="68.000000pt" viewBox="0 0 96.000000 68.000000"
 preserveAspectRatio="xMidYMid meet">
<metadata>
Created by potrace 1.16, written by Peter Selinger 2001-2019
</metadata>
<g transform="translate(0.000000,68.000000) scale(0.100000,-0.100000)"
fill="#000000" stroke="none">
<path d="M686 304 c-4 -14 -4 -29 -1 -35 4 -5 -4 -14 -17 -19 -19 -8 -17 -9
12 -4 24 3 31 2 21 -4 -14 -10 -18 -103 -5 -123 3 -5 0 -9 -5 -9 -6 0 -11 -5
-11 -11 0 -5 4 -8 9 -4 6 3 8 -10 5 -32 -5 -34 -4 -36 7 -18 7 11 15 62 17
113 5 98 6 100 61 93 7 -2 10 2 7 7 -3 6 -21 9 -40 7 -34 -3 -35 -2 -25 22 10
27 7 36 -15 39 -8 1 -17 -9 -20 -22z"/>
</g>
</svg>
