<?xml version="1.0" standalone="no"?>
<!DOCTYPE svg PUBLIC "-//W3C//DTD SVG 20010904//EN"
 "http://www.w3.org/TR/2001/REC-SVG-20010904/DTD/svg10.dtd">
<svg version="1.0" xmlns="http://www.w3.org/2000/svg"
 width="96.000000pt" height="68.000000pt" viewBox="0 0 96.000000 68.000000"
 preserveAspectRatio="xMidYMid meet">
<metadata>
Created by potrace 1.16, written by Peter Selinger 2001-2019
</metadata>
<g transform="translate(0.000000,68.000000) scale(0.100000,-0.100000)"
fill="#000000" stroke="none">
<path d="M509 584 c12 -15 21 -30 21 -34 0 -4 -33 -11 -72 -14 -100 -10 -125
-16 -105 -27 9 -5 44 -5 84 2 37 5 119 14 181 18 62 5 116 11 119 15 15 15
-19 22 -70 15 -86 -12 -110 -11 -103 6 7 20 -20 45 -50 45 l-25 0 20 -26z"/>
<path d="M201 543 c47 -63 79 -79 106 -52 26 26 -28 69 -88 69 -28 0 -30 -2
-18 -17z"/>
<path d="M505 479 c-27 -5 -62 -7 -77 -4 -31 5 -35 -1 -14 -24 7 -9 18 -29 23
-46 5 -16 12 -30 14 -29 2 0 46 6 97 13 70 10 92 16 88 26 -3 8 2 19 10 25 19
16 18 36 -2 44 -21 8 -77 6 -139 -5z m85 -34 c0 -26 -3 -27 -82 -40 -31 -5
-39 -2 -48 16 -7 11 -10 22 -8 25 7 6 81 22 111 23 22 1 27 -3 27 -24z"/>
<path d="M120 422 c0 -15 52 -62 76 -68 30 -8 49 8 40 31 -10 27 -116 61 -116
37z"/>
<path d="M569 356 c-3 -3 -46 -10 -97 -17 -51 -6 -92 -16 -92 -20 0 -12 42
-11 130 5 44 8 79 10 84 5 14 -13 -23 -38 -56 -39 -28 0 -37 -13 -18 -25 32
-20 1 -29 -142 -41 -43 -3 -76 -10 -73 -14 8 -13 60 -19 101 -10 21 4 58 11
82 14 l43 6 -3 -62 c-3 -59 -4 -63 -28 -65 -14 0 -28 -1 -32 -2 -13 -2 51 -61
67 -61 24 0 45 60 45 129 0 57 1 60 28 66 16 3 67 4 115 1 88 -5 115 4 76 25
-20 10 -89 8 -191 -7 -33 -5 -38 -3 -38 14 0 15 12 25 48 38 63 23 70 31 46
49 -17 13 -85 21 -95 11z"/>
<path d="M242 293 c-15 -27 -46 -68 -69 -92 -46 -47 -49 -56 -31 -96 16 -35
43 -32 58 8 7 17 27 66 45 107 18 41 36 85 39 98 13 40 -13 24 -42 -25z"/>
</g>
</svg>
