<?xml version="1.0" standalone="no"?>
<!DOCTYPE svg PUBLIC "-//W3C//DTD SVG 20010904//EN"
 "http://www.w3.org/TR/2001/REC-SVG-20010904/DTD/svg10.dtd">
<svg version="1.0" xmlns="http://www.w3.org/2000/svg"
 width="96.000000pt" height="68.000000pt" viewBox="0 0 96.000000 68.000000"
 preserveAspectRatio="xMidYMid meet">
<metadata>
Created by potrace 1.16, written by Peter Selinger 2001-2019
</metadata>
<g transform="translate(0.000000,68.000000) scale(0.100000,-0.100000)"
fill="#000000" stroke="none">
<path d="M390 609 c0 -6 13 -23 28 -39 l29 -28 -30 -6 c-16 -3 -49 -6 -72 -6
-91 0 -145 -26 -67 -32 20 -2 38 -9 38 -15 1 -7 2 -20 3 -28 1 -12 21 -15 120
-15 124 0 184 7 176 20 -3 5 -64 6 -135 3 -125 -6 -130 -5 -130 14 0 18 12 20
149 32 160 14 193 23 148 40 -18 7 -44 7 -78 1 -83 -16 -97 -14 -92 14 4 17
-2 28 -18 40 -26 18 -69 22 -69 5z"/>
<path d="M450 404 c-63 -7 -121 -11 -127 -9 -16 6 -16 3 2 -42 l15 -38 125 9
c69 5 125 13 125 19 0 5 10 18 22 29 46 40 -8 51 -162 32z m110 -28 c0 -19
-17 -23 -122 -32 -84 -6 -88 -6 -88 14 0 18 7 21 53 25 128 9 157 7 157 -7z"/>
<path d="M655 300 c-11 -5 -37 -9 -58 -9 -27 -1 -37 -5 -34 -13 2 -7 10 -12
16 -11 6 2 11 -11 11 -32 0 -26 -3 -33 -15 -29 -8 4 -15 1 -15 -6 0 -6 5 -8
10 -5 19 12 22 -25 6 -72 -21 -62 -21 -95 1 -91 18 3 28 30 38 101 6 44 8 47
36 47 27 0 29 -3 29 -35 0 -79 49 -138 111 -133 39 3 42 12 25 62 l-14 40 -7
-32 c-5 -27 -11 -32 -35 -32 -40 0 -54 41 -47 130 3 38 10 78 16 88 19 35 -24
53 -74 32z m25 -64 c0 -41 -1 -43 -25 -38 -24 4 -29 12 -26 42 4 31 11 40 31
40 17 0 20 -6 20 -44z"/>
<path d="M177 277 c13 -22 2 -173 -16 -210 -10 -20 -16 -37 -12 -37 16 1 42
30 52 58 8 24 17 31 47 35 46 6 56 -3 47 -42 -5 -24 -12 -31 -31 -31 l-25 0
25 -25 c51 -51 62 -26 67 140 l4 120 -82 1 c-48 0 -80 -3 -76 -9z m121 -34
c-3 -24 -8 -28 -40 -31 -34 -3 -38 -1 -38 21 0 31 7 37 47 37 32 0 34 -2 31
-27z m2 -72 c0 -21 -19 -31 -56 -31 -19 0 -24 5 -24 25 0 23 4 25 40 25 33 0
40 -4 40 -19z"/>
<path d="M398 283 c-28 -4 -28 -5 -28 -85 0 -67 2 -79 15 -74 21 8 19 -11 -6
-50 -26 -42 -15 -43 29 -3 28 25 32 32 21 46 -12 13 -7 15 41 12 l55 -4 0 80
0 80 -50 1 c-27 1 -62 -1 -77 -3z m96 -18 c6 -17 -1 -21 -56 -29 -32 -4 -38
-2 -38 14 0 14 9 20 38 23 20 2 40 4 43 5 4 1 10 -5 13 -13z m-1 -56 c-4 -4
-27 -11 -50 -15 -35 -5 -43 -4 -43 9 0 11 12 17 43 19 47 4 63 0 50 -13z m-3
-39 c0 -17 -7 -20 -51 -20 -64 0 -63 22 2 31 24 3 45 7 47 7 1 1 2 -7 2 -18z"/>
<path d="M470 104 c0 -15 39 -54 45 -44 3 5 3 14 0 20 -8 13 -45 33 -45 24z"/>
</g>
</svg>
