<?xml version="1.0" standalone="no"?>
<!DOCTYPE svg PUBLIC "-//W3C//DTD SVG 20010904//EN"
 "http://www.w3.org/TR/2001/REC-SVG-20010904/DTD/svg10.dtd">
<svg version="1.0" xmlns="http://www.w3.org/2000/svg"
 width="96.000000pt" height="68.000000pt" viewBox="0 0 96.000000 68.000000"
 preserveAspectRatio="xMidYMid meet">
<metadata>
Created by potrace 1.16, written by Peter Selinger 2001-2019
</metadata>
<g transform="translate(0.000000,68.000000) scale(0.100000,-0.100000)"
fill="#000000" stroke="none">
<path d="M430 306 c0 -21 -5 -24 -61 -30 -34 -3 -90 -6 -125 -6 -66 0 -93 -15
-49 -26 27 -7 164 2 190 13 8 3 15 0 15 -6 0 -14 -83 -65 -175 -109 -63 -30
-66 -33 -30 -27 22 4 82 26 134 51 51 24 95 44 97 44 2 0 4 -38 4 -85 0 -68 3
-87 15 -92 25 -9 30 3 35 94 l5 85 70 -51 c39 -29 80 -54 92 -57 27 -7 154 10
133 18 -8 3 -53 18 -100 33 -85 27 -200 81 -200 95 0 13 59 20 174 20 102 1
109 2 91 16 -17 13 -40 14 -141 9 -118 -7 -121 -7 -127 14 -8 31 -47 29 -47
-3z"/>
</g>
</svg>
