<?xml version="1.0" standalone="no"?>
<!DOCTYPE svg PUBLIC "-//W3C//DTD SVG 20010904//EN"
 "http://www.w3.org/TR/2001/REC-SVG-20010904/DTD/svg10.dtd">
<svg version="1.0" xmlns="http://www.w3.org/2000/svg"
 width="96.000000pt" height="68.000000pt" viewBox="0 0 96.000000 68.000000"
 preserveAspectRatio="xMidYMid meet">
<metadata>
Created by potrace 1.16, written by Peter Selinger 2001-2019
</metadata>
<g transform="translate(0.000000,68.000000) scale(0.100000,-0.100000)"
fill="#000000" stroke="none">
<path d="M438 195 l5 -45 -57 0 c-74 0 -73 -18 2 -22 56 -3 57 -4 60 -34 l3
-31 -68 -6 c-37 -4 -96 -7 -130 -7 -35 0 -63 -4 -63 -10 0 -17 68 -22 170 -11
55 6 168 11 250 11 85 0 150 4 150 9 0 21 -66 31 -155 22 -49 -4 -96 -6 -103
-3 -8 3 -12 17 -10 36 3 30 5 31 61 37 32 4 61 9 64 13 13 13 -11 21 -63 20
-53 -2 -54 -1 -54 26 0 20 -6 29 -22 34 -43 11 -46 8 -40 -39z"/>
</g>
</svg>
