<?xml version="1.0" standalone="no"?>
<!DOCTYPE svg PUBLIC "-//W3C//DTD SVG 20010904//EN"
 "http://www.w3.org/TR/2001/REC-SVG-20010904/DTD/svg10.dtd">
<svg version="1.0" xmlns="http://www.w3.org/2000/svg"
 width="96.000000pt" height="68.000000pt" viewBox="0 0 96.000000 68.000000"
 preserveAspectRatio="xMidYMid meet">
<metadata>
Created by potrace 1.16, written by Peter Selinger 2001-2019
</metadata>
<g transform="translate(0.000000,68.000000) scale(0.100000,-0.100000)"
fill="#000000" stroke="none">
<path d="M556 215 c1 -81 17 -101 86 -110 50 -7 138 9 138 26 0 14 -23 59 -31
59 -4 0 -10 -11 -13 -25 -6 -23 -10 -25 -71 -25 -53 0 -66 3 -75 19 -14 28 -4
46 28 49 42 3 122 25 122 33 0 16 -40 19 -62 5 -13 -8 -36 -16 -53 -18 -25 -2
-29 0 -27 16 3 18 -13 36 -33 36 -6 0 -10 -28 -9 -65z"/>
</g>
</svg>
