<?xml version="1.0" standalone="no"?>
<!DOCTYPE svg PUBLIC "-//W3C//DTD SVG 20010904//EN"
 "http://www.w3.org/TR/2001/REC-SVG-20010904/DTD/svg10.dtd">
<svg version="1.0" xmlns="http://www.w3.org/2000/svg"
 width="90.000000pt" height="92.000000pt" viewBox="0 0 90.000000 92.000000"
 preserveAspectRatio="xMidYMid meet">
<metadata>
Created by potrace 1.16, written by Peter Selinger 2001-2019
</metadata>
<g transform="translate(0.000000,92.000000) scale(0.100000,-0.100000)"
fill="#000000" stroke="none">
<path d="M455 880 c-3 -5 -1 -18 5 -29 5 -11 10 -53 10 -94 l0 -74 -31 -7
c-63 -12 -62 -13 -55 68 6 70 5 75 -16 90 -31 22 -62 21 -53 -1 10 -24 22 -79
28 -129 l5 -41 -107 -12 c-58 -7 -115 -13 -125 -14 -33 -3 -29 -26 7 -43 31
-15 39 -15 83 -1 99 31 96 32 126 -25 32 -59 27 -68 -37 -68 -22 0 -47 -4 -55
-10 -28 -18 39 -33 103 -23 63 11 67 9 67 -23 0 -23 -5 -25 -109 -36 -14 -2
-26 -9 -29 -15 -3 -10 15 -13 66 -13 61 0 70 -2 75 -20 3 -11 2 -22 -2 -24 -3
-3 -62 -10 -129 -17 -67 -7 -122 -16 -122 -21 0 -5 11 -14 25 -20 19 -9 48 -8
126 4 l100 15 -2 -111 c-2 -127 10 -171 39 -142 14 14 16 36 14 136 l-3 120
138 0 c158 0 178 6 136 40 -24 19 -36 21 -83 16 -30 -4 -85 -9 -122 -13 -68
-6 -68 -6 -68 20 0 22 5 26 40 31 22 3 58 9 80 12 89 13 38 41 -56 30 l-54 -6
0 28 0 29 91 6 c50 3 94 8 97 12 10 10 -25 37 -49 38 -13 0 -43 -3 -67 -7
l-44 -8 32 43 c17 25 29 51 27 61 -6 21 28 24 171 19 69 -3 82 -1 82 13 0 8
-12 23 -26 33 -23 15 -36 15 -123 5 -53 -7 -109 -12 -124 -12 l-28 0 6 58 c3
31 8 72 11 90 4 28 1 34 -21 42 -33 13 -42 13 -50 0z m45 -265 c0 -42 -31 -95
-56 -95 -12 0 -29 -3 -37 -6 -11 -4 -13 1 -10 20 4 19 -3 33 -26 56 -17 18
-31 33 -31 35 0 4 58 11 118 13 38 2 42 0 42 -23z"/>
<path d="M619 805 c-13 -25 -31 -53 -41 -62 -30 -27 -20 -36 15 -14 18 11 44
26 57 33 49 26 51 28 40 48 -6 11 -19 24 -30 30 -16 9 -22 4 -41 -35z"/>
<path d="M205 753 c45 -71 75 -86 75 -38 0 27 -42 65 -72 65 -20 0 -20 -1 -3
-27z"/>
<path d="M601 170 c40 -44 74 -80 75 -80 1 0 9 -3 17 -6 37 -14 26 57 -15 96
-25 24 -114 70 -136 70 -7 0 19 -36 59 -80z"/>
<path d="M292 215 c-6 -13 -40 -48 -76 -77 -37 -30 -59 -54 -51 -56 24 -5 122
49 161 89 31 32 35 41 24 54 -19 22 -45 18 -58 -10z"/>
</g>
</svg>
