<?xml version="1.0" standalone="no"?>
<!DOCTYPE svg PUBLIC "-//W3C//DTD SVG 20010904//EN"
 "http://www.w3.org/TR/2001/REC-SVG-20010904/DTD/svg10.dtd">
<svg version="1.0" xmlns="http://www.w3.org/2000/svg"
 width="96.000000pt" height="68.000000pt" viewBox="0 0 96.000000 68.000000"
 preserveAspectRatio="xMidYMid meet">
<metadata>
Created by potrace 1.16, written by Peter Selinger 2001-2019
</metadata>
<g transform="translate(0.000000,68.000000) scale(0.100000,-0.100000)"
fill="#000000" stroke="none">
<path d="M485 538 l0 -73 -29 -3 c-35 -4 -46 10 -46 65 0 43 -17 63 -55 63
-14 0 -14 -3 -1 -22 8 -13 17 -44 21 -69 l7 -46 -56 -7 c-31 -3 -81 -9 -111
-12 -30 -4 -55 -10 -55 -15 0 -19 57 -21 144 -5 129 23 269 36 386 36 102 0
126 10 73 31 -19 7 -52 7 -107 0 -136 -19 -128 -22 -124 57 3 65 2 67 -22 70
-25 3 -25 2 -25 -70z"/>
</g>
</svg>
