<?xml version="1.0" standalone="no"?>
<!DOCTYPE svg PUBLIC "-//W3C//DTD SVG 20010904//EN"
 "http://www.w3.org/TR/2001/REC-SVG-20010904/DTD/svg10.dtd">
<svg version="1.0" xmlns="http://www.w3.org/2000/svg"
 width="96.000000pt" height="68.000000pt" viewBox="0 0 96.000000 68.000000"
 preserveAspectRatio="xMidYMid meet">
<metadata>
Created by potrace 1.16, written by Peter Selinger 2001-2019
</metadata>
<g transform="translate(0.000000,68.000000) scale(0.100000,-0.100000)"
fill="#000000" stroke="none">
<path d="M540 560 c-14 -11 -49 -29 -78 -41 -29 -12 -51 -24 -48 -26 5 -5 143
31 190 49 27 11 27 12 10 25 -24 18 -44 16 -74 -7z"/>
<path d="M230 543 c0 -29 -45 -116 -74 -142 -48 -45 -24 -86 37 -63 17 6 32
10 35 8 4 -5 -23 -39 -58 -72 -19 -18 -22 -26 -13 -35 9 -9 25 -7 68 9 61 24
95 28 95 12 0 -5 5 -10 10 -10 18 0 11 49 -9 60 -27 14 -32 13 -29 -7 2 -12
-9 -20 -41 -30 -25 -7 -46 -11 -49 -9 -2 3 25 34 60 71 60 63 78 103 51 112
-6 2 -19 -12 -28 -31 -15 -31 -22 -36 -52 -36 -39 0 -39 -2 19 77 43 59 47 78
19 93 -28 15 -41 12 -41 -7z"/>
<path d="M616 469 c-44 -45 -38 -48 33 -16 33 14 50 27 49 37 -6 29 -43 19
-82 -21z"/>
<path d="M480 472 c0 -12 34 -42 48 -42 22 0 12 27 -13 38 -31 14 -35 15 -35
4z"/>
<path d="M401 432 c16 -25 39 -36 50 -25 13 13 -4 31 -35 39 -26 6 -27 6 -15
-14z"/>
<path d="M520 380 c-116 -20 -138 -28 -82 -29 38 -1 42 -3 42 -26 0 -26 -3
-27 -84 -40 -50 -8 -39 -18 19 -17 25 1 45 -2 45 -6 -1 -24 -65 -93 -119 -130
-34 -23 -58 -42 -52 -42 23 0 77 28 125 65 52 40 57 40 115 -4 l23 -18 -36
-23 c-21 -12 -58 -31 -84 -42 l-47 -19 49 6 c27 3 69 16 94 30 l45 26 58 -41
c59 -41 74 -44 153 -34 42 6 66 24 32 24 -24 0 -170 48 -190 63 -17 13 -16 16
22 57 32 35 38 47 29 58 -12 15 -78 12 -150 -6 -46 -12 -54 -2 -23 31 23 25
52 30 219 41 4 1 6 6 5 11 -3 12 -72 12 -144 1 -50 -8 -51 -8 -51 17 0 22 5
26 46 32 71 10 91 16 85 26 -7 12 -28 10 -144 -11z m90 -171 c0 -20 -21 -49
-36 -49 -25 0 -77 31 -68 40 18 17 104 25 104 9z"/>
<path d="M280 223 c1 -14 27 -43 39 -43 15 0 14 23 -1 38 -13 13 -38 16 -38 5z"/>
<path d="M200 192 c0 -12 39 -52 50 -52 14 0 12 22 -4 43 -13 17 -46 24 -46 9z"/>
<path d="M106 158 c11 -36 36 -69 48 -65 21 7 17 37 -8 62 -32 32 -50 33 -40
3z"/>
</g>
</svg>
