<?xml version="1.0" standalone="no"?>
<!DOCTYPE svg PUBLIC "-//W3C//DTD SVG 20010904//EN"
 "http://www.w3.org/TR/2001/REC-SVG-20010904/DTD/svg10.dtd">
<svg version="1.0" xmlns="http://www.w3.org/2000/svg"
 width="96.000000pt" height="68.000000pt" viewBox="0 0 96.000000 68.000000"
 preserveAspectRatio="xMidYMid meet">
<metadata>
Created by potrace 1.16, written by Peter Selinger 2001-2019
</metadata>
<g transform="translate(0.000000,68.000000) scale(0.100000,-0.100000)"
fill="#000000" stroke="none">
<path d="M300 434 c0 -19 -87 -112 -152 -161 -70 -54 -41 -53 42 1 39 25 73
46 75 46 10 0 5 -111 -7 -154 -9 -35 -9 -51 1 -72 11 -25 13 -26 28 -11 25 24
35 215 14 241 -15 17 -13 21 29 58 43 37 44 39 26 53 -26 20 -56 19 -56 -1z"/>
</g>
</svg>
