<?xml version="1.0" standalone="no"?>
<!DOCTYPE svg PUBLIC "-//W3C//DTD SVG 20010904//EN"
 "http://www.w3.org/TR/2001/REC-SVG-20010904/DTD/svg10.dtd">
<svg version="1.0" xmlns="http://www.w3.org/2000/svg"
 width="96.000000pt" height="68.000000pt" viewBox="0 0 96.000000 68.000000"
 preserveAspectRatio="xMidYMid meet">
<metadata>
Created by potrace 1.16, written by Peter Selinger 2001-2019
</metadata>
<g transform="translate(0.000000,68.000000) scale(0.100000,-0.100000)"
fill="#000000" stroke="none">
<path d="M630 370 c0 -6 -3 -9 -7 -7 -5 3 -9 -15 -9 -39 -1 -24 2 -42 5 -39 4
2 4 -26 -1 -63 -4 -37 -7 -77 -7 -88 -1 -24 -33 -38 -50 -21 -7 7 -11 8 -11 1
0 -16 38 -47 60 -51 25 -4 34 12 21 36 -9 16 -8 18 11 13 15 -3 19 -2 14 7 -7
10 -10 215 -3 242 1 7 -4 14 -10 16 -7 3 -13 0 -13 -7z"/>
</g>
</svg>
