<?xml version="1.0" standalone="no"?>
<!DOCTYPE svg PUBLIC "-//W3C//DTD SVG 20010904//EN"
 "http://www.w3.org/TR/2001/REC-SVG-20010904/DTD/svg10.dtd">
<svg version="1.0" xmlns="http://www.w3.org/2000/svg"
 width="96.000000pt" height="68.000000pt" viewBox="0 0 96.000000 68.000000"
 preserveAspectRatio="xMidYMid meet">
<metadata>
Created by potrace 1.16, written by Peter Selinger 2001-2019
</metadata>
<g transform="translate(0.000000,68.000000) scale(0.100000,-0.100000)"
fill="#000000" stroke="none">
<path d="M556 562 c-9 -15 5 -44 19 -38 9 3 10 -6 4 -37 -4 -23 -4 -60 0 -83
4 -22 4 -50 0 -62 -4 -11 -4 -35 1 -51 5 -19 5 -31 -1 -31 -5 0 -9 -7 -9 -15
0 -8 6 -15 13 -15 8 0 7 -4 -3 -10 -8 -5 -30 -10 -47 -10 -18 0 -33 -5 -33
-10 0 -9 24 -7 65 5 6 1 9 -13 7 -36 -3 -25 0 -39 7 -39 7 0 5 -9 -5 -25 -16
-24 -16 -25 10 -25 25 0 26 2 21 48 -2 26 -1 52 3 57 11 17 61 35 93 35 18 0
28 4 24 10 -4 6 -10 8 -15 5 -4 -3 -27 -6 -49 -7 -23 -1 -41 -6 -41 -12 0 -6
-4 -5 -9 2 -9 16 -6 161 6 255 8 55 7 70 -5 80 -12 9 -16 9 -20 -1 -3 -10 -7
-9 -16 4 -8 11 -15 13 -20 6z"/>
<path d="M680 110 c-25 -4 -48 -6 -52 -3 -5 2 -8 0 -8 -5 0 -15 188 -13 193 2
6 15 -63 18 -133 6z"/>
<path d="M830 100 c0 -5 5 -10 11 -10 5 0 7 5 4 10 -3 6 -8 10 -11 10 -2 0 -4
-4 -4 -10z"/>
<path d="M474 92 c3 -5 -15 -8 -40 -7 -30 2 -42 -1 -35 -8 6 -6 36 -7 78 -2
49 5 62 10 48 16 -27 10 -57 11 -51 1z"/>
</g>
</svg>
