<?xml version="1.0" standalone="no"?>
<!DOCTYPE svg PUBLIC "-//W3C//DTD SVG 20010904//EN"
 "http://www.w3.org/TR/2001/REC-SVG-20010904/DTD/svg10.dtd">
<svg version="1.0" xmlns="http://www.w3.org/2000/svg"
 width="96.000000pt" height="68.000000pt" viewBox="0 0 96.000000 68.000000"
 preserveAspectRatio="xMidYMid meet">
<metadata>
Created by potrace 1.16, written by Peter Selinger 2001-2019
</metadata>
<g transform="translate(0.000000,68.000000) scale(0.100000,-0.100000)"
fill="#000000" stroke="none">
<path d="M548 456 c3 -85 13 -104 43 -86 8 6 15 34 17 81 5 75 -2 89 -43 89
-19 0 -20 -6 -17 -84z"/>
<path d="M677 440 l-36 -60 32 16 c18 10 50 28 71 42 l40 25 -23 18 c-13 11
-29 19 -36 19 -7 0 -29 -27 -48 -60z"/>
<path d="M410 453 c0 -5 13 -24 28 -43 20 -23 34 -31 45 -27 22 8 22 30 0 50
-21 18 -73 33 -73 20z"/>
</g>
</svg>
