<?xml version="1.0" standalone="no"?>
<!DOCTYPE svg PUBLIC "-//W3C//DTD SVG 20010904//EN"
 "http://www.w3.org/TR/2001/REC-SVG-20010904/DTD/svg10.dtd">
<svg version="1.0" xmlns="http://www.w3.org/2000/svg"
 width="90.000000pt" height="92.000000pt" viewBox="0 0 90.000000 92.000000"
 preserveAspectRatio="xMidYMid meet">
<metadata>
Created by potrace 1.16, written by Peter Selinger 2001-2019
</metadata>
<g transform="translate(0.000000,92.000000) scale(0.100000,-0.100000)"
fill="#000000" stroke="none">
<path d="M465 807 c-39 -79 -41 -82 -77 -85 -43 -4 -43 -3 -24 -40 7 -15 19
-63 25 -106 14 -97 21 -107 64 -95 18 5 33 9 35 9 9 0 -32 -63 -58 -89 -26
-25 -40 -31 -77 -31 l-45 0 5 178 c2 97 7 187 12 199 6 19 3 24 -20 33 -21 8
-41 6 -91 -9 -51 -16 -70 -18 -94 -9 -40 13 -45 7 -30 -38 9 -26 11 -86 7
-203 -6 -177 -19 -245 -64 -335 l-25 -51 35 34 c38 36 71 101 82 164 8 40 14
44 34 25 10 -11 21 -3 57 37 l44 50 -2 -115 -3 -115 -45 3 -45 4 45 -50 c25
-28 51 -50 58 -51 23 -2 42 65 42 150 0 74 2 80 18 73 22 -11 100 -11 180 0
l62 9 0 -156 c0 -233 32 -213 46 28 4 69 12 123 18 127 6 4 60 8 119 8 117 0
132 9 69 41 -24 12 -42 14 -74 8 -24 -4 -63 -8 -86 -9 l-44 0 7 40 c6 36 4 41
-17 50 -18 8 -12 10 29 6 33 -3 55 -1 61 7 9 12 82 208 82 220 0 4 -16 15 -36
25 -35 18 -39 18 -137 1 -56 -10 -114 -18 -130 -19 -26 0 -24 3 35 60 l63 60
-24 20 c-13 11 -28 20 -35 20 -6 -1 -29 -38 -51 -83z m-201 -113 c3 -26 6 -64
6 -84 l0 -38 -37 19 c-21 10 -48 19 -61 19 -22 0 -23 3 -20 57 3 55 4 58 33
64 68 15 72 13 79 -37z m424 -11 l-3 -38 -52 0 c-51 0 -53 1 -53 28 0 15 -6
27 -12 28 -27 2 39 17 80 18 l43 1 -3 -37z m-170 -20 c3 -29 0 -32 -32 -39
-49 -9 -66 0 -66 35 0 34 11 41 60 38 32 -2 35 -5 38 -34z m155 -75 c-8 -43
-9 -45 -71 -53 l-53 -7 7 29 c10 41 21 51 62 56 20 2 43 4 49 5 9 1 11 -8 6
-30z m-163 -20 c0 -36 -15 -50 -45 -46 -24 2 -29 8 -32 36 -4 31 -3 32 36 32
36 0 41 -3 41 -22z m-307 -22 c23 -17 31 -18 47 -8 19 11 20 9 20 -26 0 -40
-8 -48 -83 -85 -22 -10 -41 -16 -44 -14 -2 3 -1 42 3 86 4 55 10 79 18 74 6
-4 24 -16 39 -27z m363 -101 c3 -25 5 -47 3 -49 -2 -2 -31 -7 -64 -11 l-60 -7
37 37 c21 21 40 46 43 56 12 35 34 21 41 -26z"/>
</g>
</svg>
