<?xml version="1.0" standalone="no"?>
<!DOCTYPE svg PUBLIC "-//W3C//DTD SVG 20010904//EN"
 "http://www.w3.org/TR/2001/REC-SVG-20010904/DTD/svg10.dtd">
<svg version="1.0" xmlns="http://www.w3.org/2000/svg"
 width="96.000000pt" height="68.000000pt" viewBox="0 0 96.000000 68.000000"
 preserveAspectRatio="xMidYMid meet">
<metadata>
Created by potrace 1.16, written by Peter Selinger 2001-2019
</metadata>
<g transform="translate(0.000000,68.000000) scale(0.100000,-0.100000)"
fill="#000000" stroke="none">
<path d="M205 433 c-23 -8 -56 -12 -77 -9 -35 6 -51 -5 -28 -19 5 -3 12 -28
16 -55 10 -75 17 -80 91 -68 35 6 60 15 57 19 -3 5 6 35 20 66 15 31 25 58 23
60 -16 15 -67 18 -102 6z m30 -65 c-9 -54 -9 -54 -41 -62 -34 -9 -41 -1 -50
51 -7 45 -2 50 64 52 l34 1 -7 -42z"/>
</g>
</svg>
