<?xml version="1.0" standalone="no"?>
<!DOCTYPE svg PUBLIC "-//W3C//DTD SVG 20010904//EN"
 "http://www.w3.org/TR/2001/REC-SVG-20010904/DTD/svg10.dtd">
<svg version="1.0" xmlns="http://www.w3.org/2000/svg"
 width="96.000000pt" height="68.000000pt" viewBox="0 0 96.000000 68.000000"
 preserveAspectRatio="xMidYMid meet">
<metadata>
Created by potrace 1.16, written by Peter Selinger 2001-2019
</metadata>
<g transform="translate(0.000000,68.000000) scale(0.100000,-0.100000)"
fill="#000000" stroke="none">
<path d="M380 593 c0 -4 12 -19 27 -35 32 -33 34 -32 -117 -48 -63 -6 -116
-13 -118 -15 -2 -2 6 -13 17 -24 25 -25 26 -61 7 -163 -17 -89 -47 -167 -87
-226 -34 -51 -32 -61 6 -36 40 26 81 93 109 175 14 41 28 74 33 76 4 1 61 7
125 13 65 7 115 16 112 21 -3 5 -18 9 -35 9 -29 0 -38 13 -18 26 6 3 9 15 6
25 -4 14 0 19 14 19 10 0 19 5 19 10 0 13 -38 13 -119 -2 -78 -14 -79 -14 -58
-31 9 -6 19 -24 23 -39 5 -24 3 -28 -17 -29 -13 0 -32 -2 -42 -4 -13 -2 -16 2
-13 13 2 9 8 45 11 80 6 53 10 63 28 67 34 7 255 25 322 25 69 0 97 12 77 32
-14 14 -61 16 -154 5 -67 -7 -68 -7 -68 16 0 16 -9 28 -25 35 -29 13 -65 16
-65 5z m28 -225 c-2 -25 -8 -34 -24 -36 -14 -2 -23 3 -27 15 -2 10 -8 26 -12
36 -6 14 -1 17 30 17 35 0 36 -1 33 -32z"/>
<path d="M530 459 c8 -14 10 -40 6 -72 l-7 -50 43 6 c24 3 52 9 61 13 27 10
21 -33 -7 -51 -17 -11 -36 -15 -60 -11 l-36 6 0 -109 c0 -122 8 -140 69 -160
70 -23 198 -8 233 27 19 18 19 19 -3 56 -22 38 -38 35 -39 -7 0 -25 -58 -47
-124 -47 -94 0 -146 42 -60 48 69 4 105 13 98 23 -6 10 -39 7 -116 -7 -23 -5
-28 -2 -28 14 0 17 9 21 65 27 36 3 63 11 60 16 -3 5 -33 6 -66 2 -56 -6 -61
-5 -57 13 3 16 14 20 65 24 83 7 94 22 13 19 -52 -2 -66 0 -68 13 -3 16 34 28
84 28 16 0 24 6 24 18 0 10 7 28 16 40 25 36 10 44 -69 36 -64 -6 -70 -5 -64
10 4 10 7 22 7 27 0 5 21 9 48 10 26 0 56 4 67 9 50 20 -46 24 -99 4 -8 -3
-12 3 -12 18 1 18 -5 24 -27 26 -27 3 -28 2 -17 -19z"/>
<path d="M355 450 c20 -22 46 -27 43 -7 -3 13 -24 25 -47 26 -11 1 -10 -4 4
-19z"/>
<path d="M400 278 c-19 -6 -48 -8 -65 -6 l-31 4 -1 -62 c0 -33 -6 -77 -12 -97
-9 -25 -9 -42 -2 -54 8 -16 12 -13 25 19 9 21 16 42 16 48 0 6 24 10 55 10 50
0 55 -2 55 -22 0 -37 -14 -51 -41 -43 l-24 7 24 -26 c28 -30 57 -34 65 -8 2 9
6 64 8 121 3 96 2 104 -17 111 -11 4 -36 3 -55 -2z m30 -37 c0 -15 -10 -21
-40 -26 -43 -7 -60 -2 -60 20 0 17 16 23 63 24 30 1 37 -3 37 -18z m10 -56 c0
-14 -9 -18 -77 -29 -28 -5 -33 -2 -33 14 0 21 16 27 73 29 26 1 37 -3 37 -14z"/>
</g>
</svg>
