<?xml version="1.0" standalone="no"?>
<!DOCTYPE svg PUBLIC "-//W3C//DTD SVG 20010904//EN"
 "http://www.w3.org/TR/2001/REC-SVG-20010904/DTD/svg10.dtd">
<svg version="1.0" xmlns="http://www.w3.org/2000/svg"
 width="96.000000pt" height="68.000000pt" viewBox="0 0 96.000000 68.000000"
 preserveAspectRatio="xMidYMid meet">
<metadata>
Created by potrace 1.16, written by Peter Selinger 2001-2019
</metadata>
<g transform="translate(0.000000,68.000000) scale(0.100000,-0.100000)"
fill="#000000" stroke="none">
<path d="M390 592 c0 -17 41 -62 56 -62 21 0 29 29 13 45 -17 16 -69 28 -69
17z"/>
<path d="M375 517 c-104 -11 -192 -21 -194 -23 -3 -3 4 -10 14 -17 15 -12 17
-25 13 -98 -7 -105 -45 -225 -95 -299 -32 -48 -34 -53 -12 -39 74 48 135 185
158 353 6 44 12 81 14 82 4 3 215 23 325 30 86 5 101 8 91 20 -15 18 -74 16
-314 -9z"/>
</g>
</svg>
