<?xml version="1.0" standalone="no"?>
<!DOCTYPE svg PUBLIC "-//W3C//DTD SVG 20010904//EN"
 "http://www.w3.org/TR/2001/REC-SVG-20010904/DTD/svg10.dtd">
<svg version="1.0" xmlns="http://www.w3.org/2000/svg"
 width="96.000000pt" height="68.000000pt" viewBox="0 0 96.000000 68.000000"
 preserveAspectRatio="xMidYMid meet">
<metadata>
Created by potrace 1.16, written by Peter Selinger 2001-2019
</metadata>
<g transform="translate(0.000000,68.000000) scale(0.100000,-0.100000)"
fill="#000000" stroke="none">
<path d="M270 547 c0 -42 -57 -140 -125 -214 -37 -40 -64 -73 -60 -73 13 0 51
23 92 56 50 41 80 44 89 10 8 -33 -2 -46 -34 -47 -15 0 -36 -4 -47 -9 -15 -6
-6 -9 33 -9 l52 -1 0 -59 0 -59 -44 -11 c-25 -6 -64 -11 -87 -11 -37 0 -40 -2
-28 -16 21 -25 57 -36 81 -23 11 6 63 26 116 44 53 18 98 39 100 45 3 9 -2 11
-14 7 -11 -3 -34 -10 -51 -15 l-33 -11 0 59 c0 62 7 70 56 70 13 0 24 5 24 10
0 6 -17 10 -37 10 -35 0 -38 2 -38 29 0 26 4 30 39 35 30 5 36 10 28 18 -9 9
-26 9 -70 0 -32 -7 -64 -12 -70 -12 -10 0 44 93 75 129 2 3 18 -10 36 -27 40
-39 47 -40 47 -7 0 19 -8 29 -29 38 -16 7 -39 25 -51 40 -26 33 -50 35 -50 4z"/>
<path d="M360 224 c-6 -15 -14 -32 -17 -37 -4 -6 9 -2 28 9 37 22 45 47 17 52
-12 2 -21 -6 -28 -24z"/>
<path d="M180 190 c12 -16 28 -30 36 -30 24 0 16 36 -11 48 -41 19 -48 14 -25
-18z"/>
</g>
</svg>
