<?xml version="1.0" standalone="no"?>
<!DOCTYPE svg PUBLIC "-//W3C//DTD SVG 20010904//EN"
 "http://www.w3.org/TR/2001/REC-SVG-20010904/DTD/svg10.dtd">
<svg version="1.0" xmlns="http://www.w3.org/2000/svg"
 width="96.000000pt" height="68.000000pt" viewBox="0 0 96.000000 68.000000"
 preserveAspectRatio="xMidYMid meet">
<metadata>
Created by potrace 1.16, written by Peter Selinger 2001-2019
</metadata>
<g transform="translate(0.000000,68.000000) scale(0.100000,-0.100000)"
fill="#000000" stroke="none">
<path d="M625 325 l-40 -13 40 5 c22 2 51 0 65 -6 18 -7 20 -10 8 -10 -12 -1
-18 -9 -18 -23 0 -20 -6 -23 -37 -25 -66 -2 -92 -8 -83 -17 5 -5 22 -4 39 2
46 16 108 2 94 -21 -14 -23 -13 -52 2 -63 14 -11 14 -12 0 -18 -11 -4 -14 -13
-10 -26 8 -26 -14 -48 -45 -43 l-25 3 27 -25 c31 -28 58 -33 58 -9 0 8 5 12
10 9 6 -3 10 -2 10 4 0 5 -6 12 -12 14 -8 3 -5 6 6 6 16 1 17 3 5 18 -9 10 -9
14 -2 10 18 -11 11 76 -8 99 -7 10 -9 15 -2 11 7 -5 10 1 8 18 -1 14 2 28 7
31 5 3 7 12 4 20 -3 7 -1 16 4 19 17 10 11 21 -15 33 -31 14 -39 14 -90 -3z
m90 -64 c-6 -5 -25 10 -25 20 0 5 6 4 14 -3 8 -7 12 -15 11 -17z m-5 -141 c0
-5 -5 -10 -11 -10 -5 0 -7 5 -4 10 3 6 8 10 11 10 2 0 4 -4 4 -10z"/>
<path d="M480 296 c5 -13 6 -27 3 -30 -4 -3 0 -6 9 -6 8 0 15 6 15 13 0 6 4
21 9 32 7 18 6 18 -9 6 -11 -9 -17 -10 -17 -2 0 6 -4 11 -10 11 -6 0 -6 -9 0
-24z"/>
<path d="M489 241 c8 -5 9 -10 2 -12 -5 -2 -11 -20 -13 -39 -1 -19 -8 -45 -15
-57 -11 -17 -12 -22 -1 -26 8 -4 7 -6 -4 -6 -19 -1 -23 -17 -12 -45 5 -13 9
-14 20 -5 8 6 11 15 8 20 -3 5 0 9 7 9 6 0 9 8 6 20 -3 12 -1 18 5 14 6 -4 8
1 4 14 -5 15 -2 22 14 27 20 6 20 8 4 19 -19 15 -11 56 12 56 29 0 13 16 -18
18 -22 1 -29 -1 -19 -7z"/>
<path d="M545 170 c-2 -4 19 -7 48 -8 57 -1 54 4 -6 10 -21 2 -40 1 -42 -2z"/>
</g>
</svg>
