<?xml version="1.0" standalone="no"?>
<!DOCTYPE svg PUBLIC "-//W3C//DTD SVG 20010904//EN"
 "http://www.w3.org/TR/2001/REC-SVG-20010904/DTD/svg10.dtd">
<svg version="1.0" xmlns="http://www.w3.org/2000/svg"
 width="96.000000pt" height="68.000000pt" viewBox="0 0 96.000000 68.000000"
 preserveAspectRatio="xMidYMid meet">
<metadata>
Created by potrace 1.16, written by Peter Selinger 2001-2019
</metadata>
<g transform="translate(0.000000,68.000000) scale(0.100000,-0.100000)"
fill="#000000" stroke="none">
<path d="M553 578 l2 -43 -53 -6 c-29 -4 -56 -9 -59 -12 -7 -7 54 -17 87 -14
17 1 26 -4 28 -17 5 -24 -14 -36 -60 -36 -21 0 -38 -4 -38 -10 0 -5 23 -10 50
-10 43 0 50 -3 50 -20 0 -13 7 -20 20 -20 15 0 20 7 20 25 0 22 4 25 38 25 20
0 47 3 60 6 42 12 22 24 -38 24 -53 0 -60 2 -60 20 0 14 9 21 38 25 78 13 92
17 92 26 0 10 -14 12 -77 9 -40 -1 -42 0 -45 32 -2 27 -8 34 -30 36 -26 3 -27
1 -25 -40z"/>
</g>
</svg>
