<?xml version="1.0" standalone="no"?>
<!DOCTYPE svg PUBLIC "-//W3C//DTD SVG 20010904//EN"
 "http://www.w3.org/TR/2001/REC-SVG-20010904/DTD/svg10.dtd">
<svg version="1.0" xmlns="http://www.w3.org/2000/svg"
 width="96.000000pt" height="68.000000pt" viewBox="0 0 96.000000 68.000000"
 preserveAspectRatio="xMidYMid meet">
<metadata>
Created by potrace 1.16, written by Peter Selinger 2001-2019
</metadata>
<g transform="translate(0.000000,68.000000) scale(0.100000,-0.100000)"
fill="#000000" stroke="none">
<path d="M310 189 c0 -70 -45 -118 -140 -150 -18 -7 -13 -8 19 -4 47 6 94 27
126 56 20 18 22 17 90 -25 62 -40 95 -48 95 -26 0 17 -50 47 -97 60 -26 7 -52
16 -56 20 -5 4 23 15 63 25 58 14 69 20 59 31 -17 20 -36 17 -73 -11 -43 -33
-59 -33 -44 0 8 19 8 28 -2 40 -21 25 -40 18 -40 -16z"/>
<path d="M216 145 c18 -27 29 -31 39 -15 9 15 -14 40 -36 40 -18 0 -19 -1 -3
-25z"/>
</g>
</svg>
