<?xml version="1.0" standalone="no"?>
<!DOCTYPE svg PUBLIC "-//W3C//DTD SVG 20010904//EN"
 "http://www.w3.org/TR/2001/REC-SVG-20010904/DTD/svg10.dtd">
<svg version="1.0" xmlns="http://www.w3.org/2000/svg"
 width="90.000000pt" height="92.000000pt" viewBox="0 0 90.000000 92.000000"
 preserveAspectRatio="xMidYMid meet">
<metadata>
Created by potrace 1.16, written by Peter Selinger 2001-2019
</metadata>
<g transform="translate(0.000000,92.000000) scale(0.100000,-0.100000)"
fill="#000000" stroke="none">
<path d="M355 858 c4 -13 16 -38 27 -57 15 -27 17 -36 6 -42 -19 -12 -216 -11
-223 1 -12 20 -24 9 -40 -40 -9 -27 -21 -52 -26 -55 -15 -10 -10 -55 8 -62 20
-8 52 29 60 68 5 26 6 26 146 42 199 23 313 30 326 22 8 -4 4 -16 -10 -36 -12
-17 -19 -32 -16 -35 9 -10 139 20 144 33 6 15 -18 45 -58 74 -22 16 -35 17
-85 10 -149 -23 -167 -23 -160 -6 12 32 -6 65 -45 85 -50 26 -62 25 -54 -2z"/>
<path d="M417 700 c-14 -11 -54 -34 -89 -51 l-63 -31 47 6 c25 3 52 7 60 8 9
2 14 -13 16 -58 l3 -61 -95 -11 c-52 -7 -113 -12 -135 -12 -46 0 -53 -15 -16
-32 18 -8 42 -8 94 0 94 16 97 16 75 -9 -30 -33 -100 -79 -209 -137 -103 -54
-94 -62 25 -21 30 10 60 19 66 19 17 0 32 -45 44 -130 6 -41 13 -83 16 -92 7
-22 24 -24 24 -3 0 12 15 15 73 15 39 0 89 3 110 6 35 6 38 5 48 -25 25 -71
64 -21 85 110 9 52 20 100 27 107 9 11 5 20 -18 39 -23 20 -35 24 -64 19 -20
-3 -79 -10 -131 -16 -52 -5 -114 -12 -137 -15 -47 -5 -56 6 -20 22 12 6 48 31
79 57 l58 47 -2 -41 c-1 -42 12 -67 31 -56 6 4 11 25 11 47 0 21 2 39 5 39 12
0 135 -66 218 -116 49 -30 94 -54 101 -54 18 0 28 41 14 58 -19 23 -97 57
-220 98 -65 21 -118 42 -118 46 0 4 55 9 122 10 132 3 160 16 95 43 -28 12
-47 13 -88 5 -28 -6 -70 -10 -92 -10 l-39 0 6 54 c6 46 4 56 -10 64 -14 8 -10
11 24 17 54 9 59 19 23 44 -29 21 -29 21 -54 1z m138 -419 l0 -35 -63 0 c-60
-1 -63 0 -57 21 3 12 0 25 -7 30 -17 10 34 22 87 20 39 -2 40 -3 40 -36z
m-176 -3 c14 -40 4 -48 -61 -48 -32 0 -48 4 -48 13 0 6 -3 22 -6 34 -6 20 -2
22 42 26 27 2 52 4 56 5 3 1 11 -12 17 -30z m170 -75 c-2 -47 -14 -57 -67 -58
-52 0 -52 0 -52 32 0 31 2 32 48 36 26 2 53 4 60 5 6 1 12 -6 11 -15z m-159
-32 c0 -24 -5 -29 -31 -35 -68 -13 -79 -9 -79 29 l0 35 55 0 c54 0 55 -1 55
-29z"/>
<path d="M545 641 c-3 -11 -17 -36 -30 -55 -13 -20 -22 -36 -20 -36 3 0 28 12
56 26 54 28 59 46 22 71 -19 13 -22 12 -28 -6z"/>
<path d="M236 570 c25 -44 51 -60 64 -40 13 20 12 23 -2 43 -7 9 -28 20 -47
23 l-35 7 20 -33z"/>
</g>
</svg>
