<?xml version="1.0" standalone="no"?>
<!DOCTYPE svg PUBLIC "-//W3C//DTD SVG 20010904//EN"
 "http://www.w3.org/TR/2001/REC-SVG-20010904/DTD/svg10.dtd">
<svg version="1.0" xmlns="http://www.w3.org/2000/svg"
 width="90.000000pt" height="92.000000pt" viewBox="0 0 90.000000 92.000000"
 preserveAspectRatio="xMidYMid meet">
<metadata>
Created by potrace 1.16, written by Peter Selinger 2001-2019
</metadata>
<g transform="translate(0.000000,92.000000) scale(0.100000,-0.100000)"
fill="#000000" stroke="none">
<path d="M290 849 c0 -6 26 -48 59 -93 l58 -83 -63 -27 c-35 -16 -64 -32 -64
-37 0 -15 47 -10 101 11 l51 21 34 -38 33 -38 -31 -27 c-37 -32 -31 -35 19
-12 33 16 35 16 61 -4 58 -45 117 -75 160 -80 l45 -5 -6 29 c-3 16 -12 54 -20
84 l-14 55 -7 -35 c-13 -62 -17 -70 -35 -70 -18 0 -111 55 -111 66 0 4 29 33
65 66 36 33 65 66 65 74 0 21 -51 39 -62 22 -4 -7 -8 -18 -8 -24 0 -18 -91
-115 -100 -109 -5 3 -19 19 -30 35 l-21 30 35 17 c47 22 49 47 4 40 -18 -3
-43 -8 -55 -12 -20 -6 -26 0 -53 56 -16 35 -30 69 -30 75 0 7 -7 15 -16 18
-25 10 -64 7 -64 -5z"/>
<path d="M480 825 c0 -20 76 -69 95 -61 21 7 19 43 -2 54 -10 5 -35 12 -55 15
-29 4 -38 2 -38 -8z"/>
<path d="M140 720 c26 -36 58 -60 82 -60 13 0 18 8 18 31 0 25 -6 32 -35 45
-19 7 -46 14 -60 14 l-26 0 21 -30z"/>
<path d="M61 523 c56 -75 100 -101 113 -68 16 42 -36 85 -102 85 -22 0 -23 -2
-11 -17z"/>
<path d="M300 521 c0 -5 16 -32 35 -61 19 -29 35 -56 35 -60 0 -4 -25 -18 -55
-30 -30 -12 -55 -26 -55 -31 0 -14 42 -11 89 6 41 14 42 14 51 -10 5 -14 20
-39 32 -55 12 -16 20 -31 17 -33 -23 -20 -105 -70 -147 -91 -30 -15 -52 -29
-50 -31 8 -8 85 17 154 52 l71 35 49 -47 c89 -85 260 -151 292 -112 10 11 10
21 1 43 -7 16 -22 58 -34 94 l-22 65 -7 -67 c-8 -68 -8 -68 -39 -68 -17 0 -49
9 -72 20 -43 21 -125 86 -125 99 0 5 33 34 74 66 43 34 72 64 69 71 -5 13 -53
48 -57 42 -1 -2 -12 -20 -25 -40 -32 -53 -90 -102 -105 -89 -21 18 -52 84 -41
87 6 2 25 13 43 24 55 34 13 56 -47 25 -27 -14 -29 -13 -35 8 -3 12 -6 32 -6
44 0 12 -10 29 -22 37 -24 17 -68 22 -68 7z"/>
<path d="M499 483 c23 -44 71 -56 71 -19 0 18 -6 22 -48 31 -31 6 -33 5 -23
-12z"/>
<path d="M191 360 c-24 -47 -61 -107 -83 -133 l-41 -49 19 -45 c10 -25 23 -46
29 -47 11 -1 127 332 122 349 -2 5 -23 -28 -46 -75z"/>
</g>
</svg>
