<?xml version="1.0" standalone="no"?>
<!DOCTYPE svg PUBLIC "-//W3C//DTD SVG 20010904//EN"
 "http://www.w3.org/TR/2001/REC-SVG-20010904/DTD/svg10.dtd">
<svg version="1.0" xmlns="http://www.w3.org/2000/svg"
 width="96.000000pt" height="68.000000pt" viewBox="0 0 96.000000 68.000000"
 preserveAspectRatio="xMidYMid meet">
<metadata>
Created by potrace 1.16, written by Peter Selinger 2001-2019
</metadata>
<g transform="translate(0.000000,68.000000) scale(0.100000,-0.100000)"
fill="#000000" stroke="none">
<path d="M540 591 c0 -17 43 -41 72 -41 31 0 39 25 11 34 -51 14 -83 17 -83 7z"/>
<path d="M410 584 c0 -3 18 -27 41 -52 l41 -47 -49 -22 c-47 -21 -47 -22 -16
-22 17 -1 43 3 56 8 21 8 29 5 53 -20 27 -28 27 -29 8 -44 -22 -16 -12 -20 16
-5 14 7 31 2 76 -25 54 -33 117 -46 126 -27 2 4 1 25 -2 47 l-6 40 -14 -27
c-9 -19 -21 -28 -38 -28 -25 0 -82 29 -82 42 0 4 22 23 50 40 27 18 50 36 50
41 0 4 -12 13 -27 20 -22 10 -27 9 -31 -2 -3 -8 -20 -30 -38 -50 l-33 -36 -26
26 -26 26 30 13 c17 7 31 16 31 21 0 12 -37 11 -60 -1 -17 -9 -23 -4 -45 40
-22 43 -29 50 -55 50 -17 0 -30 -3 -30 -6z"/>
</g>
</svg>
