<?xml version="1.0" standalone="no"?>
<!DOCTYPE svg PUBLIC "-//W3C//DTD SVG 20010904//EN"
 "http://www.w3.org/TR/2001/REC-SVG-20010904/DTD/svg10.dtd">
<svg version="1.0" xmlns="http://www.w3.org/2000/svg"
 width="96.000000pt" height="68.000000pt" viewBox="0 0 96.000000 68.000000"
 preserveAspectRatio="xMidYMid meet">
<metadata>
Created by potrace 1.16, written by Peter Selinger 2001-2019
</metadata>
<g transform="translate(0.000000,68.000000) scale(0.100000,-0.100000)"
fill="#000000" stroke="none">
<path d="M300 382 c0 -11 -137 -145 -179 -177 -19 -14 -30 -25 -24 -25 25 0
63 21 127 70 l68 52 -5 -73 c-3 -41 -9 -87 -12 -104 -7 -35 17 -77 34 -60 6 6
14 57 17 113 4 56 10 102 14 102 4 0 13 -7 20 -15 20 -24 52 -19 48 7 -2 16
-13 25 -40 33 -53 15 -63 28 -38 50 27 24 25 35 -5 35 -14 0 -25 -4 -25 -8z"/>
</g>
</svg>
