<?xml version="1.0" standalone="no"?>
<!DOCTYPE svg PUBLIC "-//W3C//DTD SVG 20010904//EN"
 "http://www.w3.org/TR/2001/REC-SVG-20010904/DTD/svg10.dtd">
<svg version="1.0" xmlns="http://www.w3.org/2000/svg"
 width="96.000000pt" height="68.000000pt" viewBox="0 0 96.000000 68.000000"
 preserveAspectRatio="xMidYMid meet">
<metadata>
Created by potrace 1.16, written by Peter Selinger 2001-2019
</metadata>
<g transform="translate(0.000000,68.000000) scale(0.100000,-0.100000)"
fill="#000000" stroke="none">
<path d="M445 158 c-49 -5 -109 -7 -132 -5 -47 5 -53 -1 -24 -27 11 -10 22
-34 26 -55 3 -20 9 -41 13 -46 4 -6 57 -8 137 -5 100 4 129 8 127 18 -1 7 11
34 28 59 17 25 30 46 28 48 -32 26 -58 28 -203 13z m117 -30 c3 -7 0 -27 -5
-44 l-9 -31 -91 -7 c-50 -3 -94 -3 -98 1 -4 5 -10 25 -14 45 l-7 37 53 4 c125
8 167 7 171 -5z"/>
</g>
</svg>
