<?xml version="1.0" standalone="no"?>
<!DOCTYPE svg PUBLIC "-//W3C//DTD SVG 20010904//EN"
 "http://www.w3.org/TR/2001/REC-SVG-20010904/DTD/svg10.dtd">
<svg version="1.0" xmlns="http://www.w3.org/2000/svg"
 width="96.000000pt" height="68.000000pt" viewBox="0 0 96.000000 68.000000"
 preserveAspectRatio="xMidYMid meet">
<metadata>
Created by potrace 1.16, written by Peter Selinger 2001-2019
</metadata>
<g transform="translate(0.000000,68.000000) scale(0.100000,-0.100000)"
fill="#000000" stroke="none">
<path d="M549 588 c-6 -13 -21 -33 -32 -45 -11 -13 -15 -23 -9 -23 17 0 122
53 122 61 0 6 -53 29 -66 29 -2 0 -9 -10 -15 -22z"/>
<path d="M310 574 c0 -17 44 -64 61 -64 25 0 25 31 1 53 -18 16 -62 24 -62 11z"/>
<path d="M475 500 c-33 -4 -90 -11 -128 -15 -37 -3 -65 -11 -62 -16 8 -12 98
-11 210 1 109 13 137 19 129 31 -6 10 -62 10 -149 -1z"/>
</g>
</svg>
