<?xml version="1.0" standalone="no"?>
<!DOCTYPE svg PUBLIC "-//W3C//DTD SVG 20010904//EN"
 "http://www.w3.org/TR/2001/REC-SVG-20010904/DTD/svg10.dtd">
<svg version="1.0" xmlns="http://www.w3.org/2000/svg"
 width="96.000000pt" height="68.000000pt" viewBox="0 0 96.000000 68.000000"
 preserveAspectRatio="xMidYMid meet">
<metadata>
Created by potrace 1.16, written by Peter Selinger 2001-2019
</metadata>
<g transform="translate(0.000000,68.000000) scale(0.100000,-0.100000)"
fill="#000000" stroke="none">
<path d="M628 588 c7 -7 12 -39 12 -75 l0 -63 -40 0 c-22 0 -40 -4 -40 -10 0
-5 18 -10 40 -10 39 0 40 -1 40 -34 0 -35 -1 -35 -60 -47 -33 -6 -57 -16 -54
-21 3 -5 19 -6 34 -3 41 9 50 -14 39 -95 -9 -61 -48 -140 -70 -140 -5 0 -9 -4
-9 -10 0 -34 73 34 96 88 21 51 33 149 20 162 -7 7 -2 10 16 10 14 0 29 -7 32
-16 3 -9 6 -70 6 -136 l0 -120 -32 7 -33 7 37 -38 c36 -37 39 -38 55 -21 16
15 18 38 18 163 0 119 -3 147 -15 155 -10 6 -1 9 30 10 25 0 56 4 70 8 l25 7
-22 12 c-15 9 -36 9 -74 2 -60 -11 -70 -6 -62 31 4 22 12 28 44 33 21 3 39 10
39 15 0 14 -29 22 -56 15 -22 -6 -24 -3 -24 26 0 17 5 41 11 52 9 18 8 24 -7
35 -24 17 -83 18 -66 1z"/>
<path d="M373 508 l2 -63 -32 -3 c-44 -4 -42 -22 3 -22 34 0 35 -1 32 -32 -3
-31 -6 -33 -51 -40 -54 -7 -74 -18 -35 -18 23 0 25 -4 27 -51 2 -39 -4 -65
-24 -105 -15 -30 -30 -54 -35 -54 -4 0 -11 -7 -14 -15 -5 -14 -2 -13 24 1 40
24 77 97 85 172 6 50 10 62 25 62 15 0 19 -13 25 -83 3 -46 3 -100 0 -120 -6
-31 -11 -37 -33 -37 l-25 0 23 -25 c28 -29 33 -30 54 -9 12 11 16 36 16 91 0
73 1 75 18 60 24 -22 32 -21 32 3 0 13 -9 22 -25 26 -22 5 -25 11 -25 53 0 46
1 48 38 58 l37 10 -52 2 c-43 1 -53 4 -53 19 0 27 13 40 43 44 36 4 35 23 0
23 -27 0 -28 3 -33 55 -4 48 -8 55 -27 58 -22 3 -23 1 -20 -60z"/>
<path d="M180 430 c-8 -5 -36 -10 -62 -10 -51 0 -55 -4 -33 -34 8 -10 19 -43
25 -73 11 -50 14 -54 33 -48 12 4 41 10 65 12 35 4 42 8 37 23 -3 10 3 41 13
68 14 36 16 54 9 61 -14 14 -67 14 -87 1z m20 -70 c0 -46 -2 -50 -24 -50 -19
0 -27 8 -36 36 -13 39 -8 50 30 57 14 2 26 5 28 6 1 0 2 -21 2 -49z"/>
<path d="M234 215 c-24 -51 -13 -58 28 -18 32 30 35 48 12 57 -20 8 -16 12
-40 -39z"/>
<path d="M534 243 c-3 -10 -10 -26 -15 -35 -12 -23 -11 -28 4 -28 14 0 52 47
52 64 0 19 -35 19 -41 -1z"/>
<path d="M750 253 c1 -4 19 -28 40 -53 29 -33 42 -42 51 -33 16 16 7 43 -21
64 -30 21 -70 34 -70 22z"/>
</g>
</svg>
