<?xml version="1.0" standalone="no"?>
<!DOCTYPE svg PUBLIC "-//W3C//DTD SVG 20010904//EN"
 "http://www.w3.org/TR/2001/REC-SVG-20010904/DTD/svg10.dtd">
<svg version="1.0" xmlns="http://www.w3.org/2000/svg"
 width="96.000000pt" height="68.000000pt" viewBox="0 0 96.000000 68.000000"
 preserveAspectRatio="xMidYMid meet">
<metadata>
Created by potrace 1.16, written by Peter Selinger 2001-2019
</metadata>
<g transform="translate(0.000000,68.000000) scale(0.100000,-0.100000)"
fill="#000000" stroke="none">
<path d="M572 164 c-7 -8 -7 -15 1 -24 7 -7 7 -10 2 -7 -15 8 -25 -1 -59 -48
-27 -36 -27 -38 -5 -20 13 11 27 24 30 28 3 5 8 7 11 5 8 -6 63 47 65 62 3 19
-29 21 -45 4z"/>
<path d="M720 140 c8 -5 11 -10 6 -10 -4 0 2 -9 15 -19 19 -15 27 -17 39 -8 9
7 8 4 -3 -9 -16 -20 -16 -21 1 -37 22 -20 52 -22 52 -4 0 23 -31 57 -70 77
-40 21 -66 27 -40 10z"/>
</g>
</svg>
