<?xml version="1.0" standalone="no"?>
<!DOCTYPE svg PUBLIC "-//W3C//DTD SVG 20010904//EN"
 "http://www.w3.org/TR/2001/REC-SVG-20010904/DTD/svg10.dtd">
<svg version="1.0" xmlns="http://www.w3.org/2000/svg"
 width="96.000000pt" height="68.000000pt" viewBox="0 0 96.000000 68.000000"
 preserveAspectRatio="xMidYMid meet">
<metadata>
Created by potrace 1.16, written by Peter Selinger 2001-2019
</metadata>
<g transform="translate(0.000000,68.000000) scale(0.100000,-0.100000)"
fill="#000000" stroke="none">
<path d="M327 495 c7 -104 3 -115 -44 -115 -21 0 -23 4 -23 60 0 33 -4 60 -9
60 -5 0 -16 3 -25 6 -13 5 -14 -4 -9 -65 l6 -71 -44 0 c-24 0 -51 -4 -58 -9
-28 -18 40 -25 111 -13 106 18 100 22 98 -55 -3 -92 -2 -95 18 -91 14 3 18 17
22 78 3 46 2 78 -5 82 -5 4 -8 8 -5 8 66 5 117 14 125 22 6 6 -9 8 -45 7 l-55
-3 -3 37 -3 37 50 0 c47 0 72 13 56 28 -4 4 -29 6 -57 5 l-50 -2 7 39 c5 30 3
40 -7 40 -7 0 -23 3 -35 6 -23 6 -23 6 -16 -91z"/>
<path d="M620 553 c-58 -9 -112 -17 -120 -20 -25 -8 31 -25 63 -19 24 5 27 2
27 -20 0 -42 -18 -64 -50 -64 -29 0 -40 -13 -20 -25 6 -4 7 -48 3 -114 -4 -81
-3 -110 7 -116 7 -4 16 -2 20 5 6 9 9 9 15 1 7 -12 -22 -55 -71 -108 -13 -14
-22 -28 -19 -31 5 -5 86 49 113 75 7 7 22 19 34 27 17 12 19 18 9 30 -10 12
-3 15 44 18 46 2 58 0 69 -16 19 -29 46 -14 47 26 0 18 2 79 3 135 3 122 7
118 -117 108 l-82 -7 28 27 c19 18 26 33 22 46 -6 18 -1 19 79 19 87 0 110 11
60 30 -30 12 -29 12 -164 -7z m118 -155 c3 -27 1 -28 -40 -29 -24 0 -64 -4
-90 -8 -47 -8 -48 -7 -48 19 0 22 6 28 43 37 23 6 62 10 87 9 41 -1 45 -3 48
-28z m2 -72 c0 -29 -3 -34 -22 -33 -13 0 -53 -3 -90 -7 l-68 -8 0 29 c0 27 2
28 58 31 46 2 83 8 120 21 1 1 2 -14 2 -33z m0 -75 c0 -28 -1 -28 -67 -34
-109 -11 -113 -10 -113 17 0 22 5 24 83 33 45 6 85 11 90 12 4 0 7 -12 7 -28z"/>
<path d="M198 255 c-20 -30 -34 -55 -30 -55 3 0 29 18 59 41 54 41 63 62 27
67 -14 2 -29 -13 -56 -53z"/>
<path d="M431 270 c-21 -63 -98 -131 -196 -176 -62 -29 -70 -40 -23 -30 52 10
130 54 178 99 80 76 101 103 94 120 -10 28 -41 20 -53 -13z"/>
<path d="M745 95 c63 -71 85 -81 85 -37 0 33 -17 51 -77 81 -67 34 -68 25 -8
-44z"/>
</g>
</svg>
