<?xml version="1.0" standalone="no"?>
<!DOCTYPE svg PUBLIC "-//W3C//DTD SVG 20010904//EN"
 "http://www.w3.org/TR/2001/REC-SVG-20010904/DTD/svg10.dtd">
<svg version="1.0" xmlns="http://www.w3.org/2000/svg"
 width="96.000000pt" height="68.000000pt" viewBox="0 0 96.000000 68.000000"
 preserveAspectRatio="xMidYMid meet">
<metadata>
Created by potrace 1.16, written by Peter Selinger 2001-2019
</metadata>
<g transform="translate(0.000000,68.000000) scale(0.100000,-0.100000)"
fill="#000000" stroke="none">
<path d="M370 449 c-8 -17 -35 -49 -63 -70 -45 -36 -56 -58 -11 -24 32 24 44
18 44 -21 0 -19 -4 -43 -9 -52 -10 -19 3 -62 18 -62 19 0 36 136 19 156 -6 8
4 24 29 48 32 30 35 38 23 46 -25 16 -37 11 -50 -21z"/>
</g>
</svg>
