<?xml version="1.0" standalone="no"?>
<!DOCTYPE svg PUBLIC "-//W3C//DTD SVG 20010904//EN"
 "http://www.w3.org/TR/2001/REC-SVG-20010904/DTD/svg10.dtd">
<svg version="1.0" xmlns="http://www.w3.org/2000/svg"
 width="96.000000pt" height="68.000000pt" viewBox="0 0 96.000000 68.000000"
 preserveAspectRatio="xMidYMid meet">
<metadata>
Created by potrace 1.16, written by Peter Selinger 2001-2019
</metadata>
<g transform="translate(0.000000,68.000000) scale(0.100000,-0.100000)"
fill="#000000" stroke="none">
<path d="M370 619 c0 -53 -15 -69 -68 -70 -26 -1 -58 -4 -72 -8 l-25 -7 25
-14 c14 -7 43 -13 65 -12 l40 2 -53 -50 c-29 -27 -83 -66 -120 -87 -54 -31
-63 -39 -44 -41 44 -7 151 54 219 125 58 60 68 66 111 70 46 4 49 2 152 -82
98 -79 108 -85 151 -85 59 0 110 10 104 20 -3 5 -38 18 -78 31 -39 12 -84 30
-99 40 -14 11 -29 19 -32 19 -3 0 -24 13 -46 29 l-40 29 31 6 c18 3 44 6 60 6
36 0 38 17 4 32 -20 9 -50 9 -127 0 -56 -7 -103 -10 -105 -8 -2 2 2 15 8 30
14 30 12 34 -30 46 -30 8 -31 7 -31 -21z"/>
<path d="M450 485 c0 -11 35 -45 47 -45 16 0 17 22 1 38 -12 12 -48 17 -48 7z"/>
<path d="M374 458 c-4 -13 -27 -42 -51 -65 -25 -24 -40 -43 -34 -43 5 0 13 5
16 10 3 6 13 10 22 10 13 0 15 -10 10 -63 -6 -64 5 -109 19 -74 5 14 20 17 89
17 107 0 206 11 199 21 -3 5 -34 9 -70 9 -50 0 -64 3 -64 15 0 10 10 15 33 15
44 0 67 15 36 23 -13 4 -34 4 -46 1 -17 -5 -23 -2 -23 10 0 12 10 16 45 16 25
0 45 5 45 10 0 11 -17 13 -62 10 -20 -1 -28 3 -28 14 0 9 8 16 19 16 11 0 22
4 25 9 3 5 15 7 26 4 12 -3 20 0 20 7 0 13 -90 9 -171 -7 l-34 -6 17 25 c15
23 16 27 2 32 -26 10 -32 7 -40 -16z m91 -68 c0 -11 -14 -16 -52 -18 -40 -2
-53 0 -53 11 0 23 12 28 60 25 32 -2 45 -7 45 -18z m2 -54 c-6 -17 -97 -21
-97 -3 0 21 5 23 55 19 29 -3 45 -8 42 -16z m-26 -36 c19 0 29 -5 29 -15 0
-11 -12 -15 -50 -15 -35 0 -50 4 -50 13 0 19 12 29 28 22 7 -3 27 -5 43 -5z"/>
<path d="M496 225 c4 -8 1 -16 -5 -16 -6 -1 -14 -2 -18 -3 -5 -2 -77 -6 -160
-10 -84 -5 -153 -12 -153 -17 0 -16 51 -22 126 -15 41 3 108 9 150 12 l75 7
-3 -59 -3 -59 -32 3 c-40 3 -41 -2 -5 -33 56 -50 82 -24 82 79 l0 66 88 1 c48
1 92 1 99 0 22 -3 24 18 2 30 -13 7 -55 10 -108 8 -65 -3 -85 -1 -83 9 1 7 -9
12 -28 12 -22 0 -28 -4 -24 -15z"/>
<path d="M320 132 c0 -15 46 -52 63 -52 24 0 21 26 -5 44 -24 17 -58 21 -58 8z"/>
</g>
</svg>
