<?xml version="1.0" standalone="no"?>
<!DOCTYPE svg PUBLIC "-//W3C//DTD SVG 20010904//EN"
 "http://www.w3.org/TR/2001/REC-SVG-20010904/DTD/svg10.dtd">
<svg version="1.0" xmlns="http://www.w3.org/2000/svg"
 width="90.000000pt" height="92.000000pt" viewBox="0 0 90.000000 92.000000"
 preserveAspectRatio="xMidYMid meet">
<metadata>
Created by potrace 1.16, written by Peter Selinger 2001-2019
</metadata>
<g transform="translate(0.000000,92.000000) scale(0.100000,-0.100000)"
fill="#000000" stroke="none">
<path d="M175 788 c-12 -56 -62 -152 -100 -189 -33 -33 -35 -39 -24 -63 15
-31 11 -31 77 -6 30 11 52 16 50 11 -1 -5 -25 -37 -53 -72 -75 -93 -72 -87
-53 -105 16 -16 22 -15 90 19 72 36 72 36 91 16 23 -25 37 -16 37 22 0 22 -8
34 -32 49 -41 25 -52 25 -43 3 3 -10 7 -22 8 -27 2 -9 -72 -38 -85 -34 -4 2
23 41 60 87 37 46 75 94 84 106 14 17 15 25 5 46 -19 36 -39 29 -55 -19 -15
-46 -39 -62 -93 -62 -27 0 -29 2 -18 21 6 12 35 56 65 98 58 82 65 105 35 121
-31 16 -39 12 -46 -22z"/>
<path d="M622 741 l-72 -27 50 -49 c27 -27 50 -54 50 -61 0 -12 -81 -90 -116
-111 -17 -11 -17 -12 -1 -12 30 -1 90 28 123 60 l32 31 36 -39 c30 -32 37 -35
46 -23 16 24 12 37 -22 76 l-32 37 31 58 32 59 -29 15 c-36 19 -39 18 -128
-14z m73 -43 c-10 -49 -19 -53 -60 -25 l-36 25 43 15 c61 21 60 21 53 -15z"/>
<path d="M445 738 c-11 -7 -44 -22 -74 -34 l-54 -22 48 -51 47 -50 -22 -28
c-12 -15 -40 -40 -62 -55 -35 -24 -37 -28 -19 -28 31 0 84 26 111 55 l23 24
19 -24 c11 -14 26 -25 34 -25 22 0 17 50 -7 76 l-21 23 30 60 31 61 -29 15
c-34 18 -30 17 -55 3z m5 -55 c0 -16 -5 -35 -10 -43 -8 -13 -14 -12 -45 4
l-36 20 43 22 c24 13 44 23 46 24 1 0 2 -12 2 -27z"/>
<path d="M659 460 c-25 -10 -67 -21 -92 -25 l-48 -7 44 -47 c58 -62 70 -86 58
-110 -16 -29 -71 -72 -126 -97 -49 -23 -49 -24 -17 -24 36 0 124 40 160 73 13
12 25 17 30 11 4 -5 25 -31 46 -57 38 -48 39 -49 84 -42 92 14 92 18 11 63
-41 22 -85 52 -98 65 l-23 25 36 77 c20 43 36 81 36 85 0 6 -46 31 -53 29 -1
0 -23 -8 -48 -19z m21 -36 c0 -25 -25 -94 -33 -91 -6 2 -21 17 -35 35 l-24 32
33 15 c36 15 59 19 59 9z"/>
<path d="M385 424 c-27 -13 -57 -24 -65 -24 -8 0 6 -21 33 -48 l47 -48 -28
-38 c-25 -34 -93 -88 -125 -99 -7 -2 -10 -7 -7 -10 15 -16 95 19 144 64 l53
48 30 -36 c31 -39 53 -39 53 2 0 14 -13 35 -34 52 l-33 30 18 36 c11 20 23 39
29 42 18 11 11 32 -15 43 -34 16 -41 15 -100 -14z m55 -23 c0 -5 -4 -21 -10
-35 l-9 -26 -37 17 -36 18 39 17 c45 20 53 21 53 9z"/>
<path d="M210 355 c0 -3 11 -24 26 -46 16 -26 31 -39 42 -37 15 3 18 13 13 48
-2 17 -81 51 -81 35z"/>
<path d="M120 304 c0 -21 46 -84 60 -82 24 5 24 44 -1 67 -21 19 -59 29 -59
15z"/>
<path d="M10 283 c1 -22 67 -128 80 -128 19 0 25 47 10 75 -16 31 -91 74 -90
53z"/>
</g>
</svg>
