<?xml version="1.0" standalone="no"?>
<!DOCTYPE svg PUBLIC "-//W3C//DTD SVG 20010904//EN"
 "http://www.w3.org/TR/2001/REC-SVG-20010904/DTD/svg10.dtd">
<svg version="1.0" xmlns="http://www.w3.org/2000/svg"
 width="96.000000pt" height="68.000000pt" viewBox="0 0 96.000000 68.000000"
 preserveAspectRatio="xMidYMid meet">
<metadata>
Created by potrace 1.16, written by Peter Selinger 2001-2019
</metadata>
<g transform="translate(0.000000,68.000000) scale(0.100000,-0.100000)"
fill="#000000" stroke="none">
<path d="M225 501 c-15 -32 -44 -75 -65 -96 -59 -58 -39 -91 39 -64 18 6 34 9
36 7 3 -2 -18 -28 -46 -57 -39 -41 -48 -55 -38 -62 20 -13 31 -11 79 12 36 17
50 20 71 12 23 -9 28 -8 32 8 3 12 -3 25 -16 34 -27 19 -41 19 -34 0 7 -18 2
-21 -48 -31 l-40 -7 70 72 c43 45 70 80 70 94 0 33 -26 27 -44 -11 -13 -27
-21 -32 -43 -29 -16 2 -28 0 -28 -5 0 -4 -7 -8 -15 -8 -10 0 7 29 46 77 l61
77 -22 18 c-12 10 -26 18 -31 18 -4 0 -20 -26 -34 -59z"/>
<path d="M680 513 c-14 -3 -29 -9 -34 -14 -6 -5 -20 -9 -32 -9 -53 0 -55 -11
-9 -47 25 -18 45 -38 45 -42 0 -10 -54 -58 -86 -78 -15 -9 -11 -10 20 -3 22 5
52 18 68 30 29 22 46 18 69 -14 4 -5 14 -6 23 -3 15 6 15 9 2 36 -9 16 -20 31
-26 33 -12 4 -1 37 22 71 11 15 10 20 -6 33 -11 8 -22 13 -25 13 -3 -1 -17 -4
-31 -6z m10 -35 c0 -5 -5 -18 -10 -29 -10 -18 -12 -18 -42 -3 -27 14 -30 18
-16 28 19 14 68 17 68 4z"/>
<path d="M428 476 c-32 -11 -58 -23 -58 -26 0 -3 16 -16 35 -30 19 -14 35 -30
35 -37 0 -6 -17 -25 -37 -42 -43 -36 -28 -41 28 -9 36 20 39 20 64 4 23 -15
26 -15 31 -1 4 9 -2 25 -12 36 -17 19 -17 21 4 64 21 44 21 45 2 55 -23 12
-21 12 -92 -14z m47 -33 c-9 -37 -8 -37 -47 -17 l-33 17 30 13 c48 21 58 18
50 -13z"/>
<path d="M645 289 c-16 -4 -47 -11 -68 -14 l-38 -6 45 -40 c25 -23 46 -47 46
-56 0 -20 -36 -50 -87 -73 -24 -11 -43 -22 -43 -25 0 -11 55 8 108 36 l53 28
38 -40 c33 -33 44 -38 72 -35 19 2 42 4 52 5 21 1 23 21 1 21 -17 0 -100 44
-126 67 -15 14 -14 18 13 65 17 28 28 57 25 64 -6 15 -44 17 -91 3z m25 -35
c0 -8 -5 -24 -11 -36 -11 -20 -11 -20 -35 3 -23 22 -24 24 -8 36 24 18 54 16
54 -3z"/>
<path d="M432 270 c-23 -11 -44 -19 -47 -20 -3 0 -10 0 -17 0 -6 0 5 -12 25
-27 20 -16 36 -33 37 -38 0 -16 -47 -63 -81 -81 -17 -8 -28 -18 -26 -21 11
-10 79 20 113 49 l35 31 22 -27 c13 -15 26 -23 30 -20 14 15 6 39 -19 59 l-26
21 27 32 c15 18 26 34 24 36 -7 6 -48 26 -51 25 -2 0 -22 -9 -46 -19z m32 -19
c8 -13 -4 -41 -18 -41 -6 0 -20 7 -30 15 -19 14 -18 15 5 24 31 13 37 13 43 2z"/>
<path d="M280 212 c0 -12 39 -52 50 -52 18 0 10 39 -9 50 -24 12 -41 13 -41 2z"/>
<path d="M200 182 c0 -16 32 -52 46 -52 22 0 17 27 -8 44 -25 17 -38 20 -38 8z"/>
<path d="M115 148 c11 -37 34 -68 50 -68 23 0 18 38 -10 65 -31 32 -49 32 -40
3z"/>
</g>
</svg>
