<?xml version="1.0" standalone="no"?>
<!DOCTYPE svg PUBLIC "-//W3C//DTD SVG 20010904//EN"
 "http://www.w3.org/TR/2001/REC-SVG-20010904/DTD/svg10.dtd">
<svg version="1.0" xmlns="http://www.w3.org/2000/svg"
 width="90.000000pt" height="92.000000pt" viewBox="0 0 90.000000 92.000000"
 preserveAspectRatio="xMidYMid meet">
<metadata>
Created by potrace 1.16, written by Peter Selinger 2001-2019
</metadata>
<g transform="translate(0.000000,92.000000) scale(0.100000,-0.100000)"
fill="#000000" stroke="none">
<path d="M548 819 c-26 -5 -135 -20 -243 -33 -107 -12 -198 -25 -201 -29 -3
-3 3 -20 13 -39 16 -29 18 -59 18 -258 0 -161 -4 -242 -14 -283 -14 -56 -14
-59 7 -79 l21 -22 73 19 c59 15 120 19 318 21 222 3 245 5 245 20 0 9 -12 26
-28 37 l-27 21 -267 -22 c-147 -12 -271 -18 -275 -14 -8 8 5 558 13 567 10 9
242 36 366 42 73 3 136 11 140 16 3 5 -5 18 -18 28 -26 20 -66 22 -141 8z"/>
<path d="M535 684 c-72 -20 -212 -37 -241 -30 -37 10 -46 -2 -24 -32 12 -18
23 -59 31 -117 13 -101 24 -132 42 -117 7 6 29 13 50 17 l37 7 0 -103 c0 -168
35 -170 41 -3 1 43 4 84 7 91 2 6 22 15 43 18 33 6 43 3 54 -12 12 -16 15 -16
29 -3 9 8 28 58 44 110 16 52 34 105 40 117 17 30 17 30 -28 53 -44 23 -55 23
-125 4z m70 -72 c0 -23 -3 -42 -7 -42 -5 0 -32 0 -62 0 -49 0 -54 2 -49 20 3
11 0 27 -7 34 -12 15 -10 16 80 29 41 6 45 2 45 -41z m-181 2 c3 -9 6 -26 6
-39 0 -20 -6 -23 -44 -27 -48 -3 -56 5 -56 60 0 19 5 22 44 22 31 0 46 -5 50
-16z m176 -81 c0 -5 -5 -24 -10 -44 -10 -35 -11 -36 -60 -37 l-50 -1 0 39 c0
37 1 39 38 43 70 7 82 7 82 0z m-170 -54 c0 -39 0 -39 -40 -39 -31 0 -40 4
-40 18 0 9 -3 26 -6 37 -4 18 0 20 40 22 l46 1 0 -39z"/>
</g>
</svg>
