<?xml version="1.0" standalone="no"?>
<!DOCTYPE svg PUBLIC "-//W3C//DTD SVG 20010904//EN"
 "http://www.w3.org/TR/2001/REC-SVG-20010904/DTD/svg10.dtd">
<svg version="1.0" xmlns="http://www.w3.org/2000/svg"
 width="90.000000pt" height="92.000000pt" viewBox="0 0 90.000000 92.000000"
 preserveAspectRatio="xMidYMid meet">
<metadata>
Created by potrace 1.16, written by Peter Selinger 2001-2019
</metadata>
<g transform="translate(0.000000,92.000000) scale(0.100000,-0.100000)"
fill="#000000" stroke="none">
<path d="M554 838 c3 -13 9 -54 12 -93 l6 -70 -53 -21 c-37 -15 -59 -19 -71
-13 -38 20 -44 12 -40 -56 2 -36 -1 -86 -7 -111 -9 -36 -9 -49 1 -61 10 -13
13 -13 22 -1 12 16 126 33 126 19 0 -24 -89 -138 -161 -205 -44 -42 -75 -76
-69 -76 7 0 39 14 72 32 52 27 99 71 152 143 14 19 15 16 16 -36 0 -31 -5 -80
-10 -109 -11 -59 2 -130 24 -130 28 0 36 51 36 224 l0 173 31 7 c55 11 129 7
130 -6 4 -45 -18 -133 -38 -149 -10 -9 -23 -9 -48 -2 l-35 11 32 -46 c17 -26
32 -49 34 -50 1 -2 12 -1 23 3 30 9 57 61 76 145 9 41 21 80 27 87 8 10 6 19
-8 34 -31 35 -46 37 -119 23 -112 -21 -105 -26 -105 66 l0 79 40 11 c22 5 58
15 80 20 46 12 50 24 18 51 -25 20 -63 25 -73 9 -11 -17 -65 -42 -61 -28 3 7
7 38 10 69 5 53 4 57 -20 67 -40 19 -57 15 -50 -10z m16 -283 c0 -57 -3 -75
-14 -75 -7 0 -35 -3 -61 -7 l-47 -6 7 54 c10 81 13 88 48 98 66 19 67 18 67
-64z"/>
<path d="M175 713 c0 -60 -4 -129 -8 -155 -9 -54 -19 -60 -108 -60 -32 0 -59
-4 -59 -8 0 -10 58 -60 70 -60 4 0 24 7 43 15 l36 15 -10 -33 c-15 -53 -11
-63 36 -93 25 -15 45 -31 45 -34 0 -11 -64 -72 -108 -102 -24 -16 -41 -32 -39
-35 11 -10 104 40 140 75 l38 37 35 -38 c39 -42 64 -43 64 -3 0 24 -14 44 -50
69 -19 13 -19 15 5 73 13 32 27 78 31 101 5 33 11 43 30 47 27 7 33 26 8 26
-11 0 -13 6 -9 19 4 13 -1 24 -17 35 -40 28 -55 21 -54 -26 1 -42 1 -43 -42
-52 -23 -5 -45 -7 -47 -4 -5 5 38 209 51 241 3 9 -6 23 -24 36 -53 38 -57 32
-57 -86z m119 -240 c-8 -34 -44 -133 -48 -133 -2 0 -20 7 -40 15 -38 16 -41
26 -30 84 6 27 13 33 53 45 67 21 72 20 65 -11z"/>
</g>
</svg>
