<?xml version="1.0" standalone="no"?>
<!DOCTYPE svg PUBLIC "-//W3C//DTD SVG 20010904//EN"
 "http://www.w3.org/TR/2001/REC-SVG-20010904/DTD/svg10.dtd">
<svg version="1.0" xmlns="http://www.w3.org/2000/svg"
 width="96.000000pt" height="68.000000pt" viewBox="0 0 96.000000 68.000000"
 preserveAspectRatio="xMidYMid meet">
<metadata>
Created by potrace 1.16, written by Peter Selinger 2001-2019
</metadata>
<g transform="translate(0.000000,68.000000) scale(0.100000,-0.100000)"
fill="#000000" stroke="none">
<path d="M395 608 c4 -13 9 -46 12 -74 6 -59 7 -58 -84 -69 -86 -11 -63 -35
32 -35 50 0 53 -2 58 -27 3 -16 2 -32 -2 -36 -5 -4 -55 -13 -112 -19 -125 -13
-152 -23 -87 -33 26 -4 50 -5 55 -2 18 11 123 19 123 9 0 -17 -98 -102 -177
-152 -83 -53 -84 -62 -5 -32 53 20 118 63 170 111 l32 30 0 -37 c0 -20 -5 -65
-10 -99 -11 -68 -1 -113 25 -113 25 0 33 38 33 155 1 61 1 112 2 115 0 2 33
-27 73 -66 122 -119 138 -126 250 -108 49 9 47 21 -5 34 -80 21 -181 71 -258
126 -27 20 -50 39 -50 43 0 9 107 21 185 21 46 0 48 1 33 17 -18 18 -81 19
-175 4 l-53 -8 0 38 c0 41 2 43 82 54 89 12 70 50 -21 40 l-54 -6 6 60 c7 67
-3 81 -59 81 -23 0 -25 -3 -19 -22z"/>
</g>
</svg>
