<?xml version="1.0" standalone="no"?>
<!DOCTYPE svg PUBLIC "-//W3C//DTD SVG 20010904//EN"
 "http://www.w3.org/TR/2001/REC-SVG-20010904/DTD/svg10.dtd">
<svg version="1.0" xmlns="http://www.w3.org/2000/svg"
 width="96.000000pt" height="68.000000pt" viewBox="0 0 96.000000 68.000000"
 preserveAspectRatio="xMidYMid meet">
<metadata>
Created by potrace 1.16, written by Peter Selinger 2001-2019
</metadata>
<g transform="translate(0.000000,68.000000) scale(0.100000,-0.100000)"
fill="#000000" stroke="none">
<path d="M636 472 c-3 -7 -2 -126 2 -224 2 -36 5 -46 16 -42 11 4 14 28 14
102 0 53 3 111 6 128 5 26 2 33 -14 37 -11 3 -22 2 -24 -1z"/>
<path d="M647 193 c-4 -3 -7 -40 -6 -82 0 -60 2 -71 10 -52 15 37 24 141 12
141 -5 0 -13 -3 -16 -7z"/>
</g>
</svg>
