<?xml version="1.0" standalone="no"?>
<!DOCTYPE svg PUBLIC "-//W3C//DTD SVG 20010904//EN"
 "http://www.w3.org/TR/2001/REC-SVG-20010904/DTD/svg10.dtd">
<svg version="1.0" xmlns="http://www.w3.org/2000/svg"
 width="96.000000pt" height="68.000000pt" viewBox="0 0 96.000000 68.000000"
 preserveAspectRatio="xMidYMid meet">
<metadata>
Created by potrace 1.16, written by Peter Selinger 2001-2019
</metadata>
<g transform="translate(0.000000,68.000000) scale(0.100000,-0.100000)"
fill="#000000" stroke="none">
<path d="M267 563 c-4 -3 -7 -15 -7 -26 0 -41 -99 -193 -159 -244 -44 -38 -1
-27 49 13 51 40 93 44 98 7 3 -18 -3 -23 -35 -28 -59 -10 -62 -13 -11 -14 l47
-1 7 -45 c3 -25 4 -51 1 -58 -6 -17 -73 -37 -121 -37 -42 0 -47 -15 -10 -32
20 -9 33 -9 57 1 18 7 72 27 122 44 50 17 82 33 72 35 -10 2 -31 -1 -48 -7
-36 -12 -42 -3 -37 60 3 43 4 44 47 52 37 7 42 11 27 19 -9 5 -28 7 -41 4 -18
-5 -24 -1 -27 19 -4 20 -1 25 16 25 11 0 28 4 36 10 28 17 -1 24 -63 13 -34
-6 -64 -9 -66 -7 -3 3 19 40 70 117 4 5 23 -2 43 -18 27 -20 40 -25 48 -17 17
17 2 41 -34 50 -23 6 -33 14 -33 28 0 35 -28 57 -48 37z"/>
<path d="M328 220 c-20 -35 -20 -35 27 -13 37 18 41 36 9 41 -12 2 -25 -8 -36
-28z"/>
<path d="M160 199 c22 -29 49 -36 57 -12 4 12 -45 43 -67 43 -6 0 -2 -14 10
-31z"/>
</g>
</svg>
