<?xml version="1.0" standalone="no"?>
<!DOCTYPE svg PUBLIC "-//W3C//DTD SVG 20010904//EN"
 "http://www.w3.org/TR/2001/REC-SVG-20010904/DTD/svg10.dtd">
<svg version="1.0" xmlns="http://www.w3.org/2000/svg"
 width="96.000000pt" height="68.000000pt" viewBox="0 0 96.000000 68.000000"
 preserveAspectRatio="xMidYMid meet">
<metadata>
Created by potrace 1.16, written by Peter Selinger 2001-2019
</metadata>
<g transform="translate(0.000000,68.000000) scale(0.100000,-0.100000)"
fill="#000000" stroke="none">
<path d="M417 552 c-4 -32 -9 -67 -13 -78 -4 -11 5 -6 21 14 23 27 33 32 73
33 26 0 56 4 67 9 18 7 19 8 2 15 -9 4 -37 4 -62 1 -48 -8 -51 -6 -35 25 9 16
7 21 -15 29 -15 6 -28 10 -29 10 -2 0 -6 -26 -9 -58z"/>
<path d="M240 575 c0 -3 7 -16 15 -29 16 -24 16 -24 -40 -31 -30 -3 -55 -10
-55 -15 0 -17 41 -21 77 -9 20 6 38 8 40 3 8 -23 22 -36 32 -30 13 8 3 98 -13
108 -13 9 -56 11 -56 3z"/>
</g>
</svg>
