<?xml version="1.0" standalone="no"?>
<!DOCTYPE svg PUBLIC "-//W3C//DTD SVG 20010904//EN"
 "http://www.w3.org/TR/2001/REC-SVG-20010904/DTD/svg10.dtd">
<svg version="1.0" xmlns="http://www.w3.org/2000/svg"
 width="96.000000pt" height="68.000000pt" viewBox="0 0 96.000000 68.000000"
 preserveAspectRatio="xMidYMid meet">
<metadata>
Created by potrace 1.16, written by Peter Selinger 2001-2019
</metadata>
<g transform="translate(0.000000,68.000000) scale(0.100000,-0.100000)"
fill="#000000" stroke="none">
<path d="M365 204 c-10 -20 -37 -53 -58 -75 -24 -24 -34 -39 -24 -39 16 0 157
126 157 141 0 5 -12 9 -28 9 -21 0 -32 -8 -47 -36z"/>
<path d="M480 193 c0 -12 68 -83 78 -83 13 0 23 27 16 43 -3 8 -21 21 -40 30
-38 18 -54 21 -54 10z"/>
</g>
</svg>
