<?xml version="1.0" standalone="no"?>
<!DOCTYPE svg PUBLIC "-//W3C//DTD SVG 20010904//EN"
 "http://www.w3.org/TR/2001/REC-SVG-20010904/DTD/svg10.dtd">
<svg version="1.0" xmlns="http://www.w3.org/2000/svg"
 width="96.000000pt" height="68.000000pt" viewBox="0 0 96.000000 68.000000"
 preserveAspectRatio="xMidYMid meet">
<metadata>
Created by potrace 1.16, written by Peter Selinger 2001-2019
</metadata>
<g transform="translate(0.000000,68.000000) scale(0.100000,-0.100000)"
fill="#000000" stroke="none">
<path d="M640 474 c-38 -11 -232 -31 -255 -26 -25 4 -25 4 -10 -24 8 -16 19
-41 24 -55 9 -26 11 -26 63 -18 29 5 91 11 138 12 75 3 86 6 96 25 6 12 18 30
27 40 9 10 13 23 8 30 -8 13 -65 24 -91 16z m25 -24 c3 -5 3 -20 0 -33 -6 -22
-14 -24 -117 -35 -61 -7 -114 -9 -118 -5 -4 4 -11 17 -14 29 -7 22 -18 19 184
48 48 7 59 6 65 -4z"/>
</g>
</svg>
