<?xml version="1.0" standalone="no"?>
<!DOCTYPE svg PUBLIC "-//W3C//DTD SVG 20010904//EN"
 "http://www.w3.org/TR/2001/REC-SVG-20010904/DTD/svg10.dtd">
<svg version="1.0" xmlns="http://www.w3.org/2000/svg"
 width="90.000000pt" height="92.000000pt" viewBox="0 0 90.000000 92.000000"
 preserveAspectRatio="xMidYMid meet">
<metadata>
Created by potrace 1.16, written by Peter Selinger 2001-2019
</metadata>
<g transform="translate(0.000000,92.000000) scale(0.100000,-0.100000)"
fill="#000000" stroke="none">
<path d="M217 841 c-4 -16 -20 -52 -38 -80 -30 -49 -33 -51 -65 -45 -35 6 -43
-3 -22 -24 19 -19 22 -178 5 -252 -14 -58 -14 -67 -1 -82 14 -15 19 -15 61 4
25 11 78 22 120 25 l76 6 -6 -85 c-3 -47 -13 -103 -21 -123 -16 -36 -17 -37
-56 -31 l-40 6 36 -50 c20 -27 40 -50 44 -50 16 0 58 60 66 92 3 18 12 73 19
123 7 50 15 97 19 106 5 11 -1 21 -19 33 -25 17 -32 16 -136 -2 -60 -10 -111
-16 -114 -14 -11 11 -5 51 8 47 20 -7 168 19 165 30 -3 11 -75 13 -130 3 -37
-6 -38 -6 -38 21 0 27 2 28 66 35 46 5 70 3 80 -5 20 -16 26 -7 58 81 15 41
32 78 39 82 15 9 -5 32 -42 48 -24 9 -40 8 -96 -9 -37 -12 -71 -21 -75 -21 -4
0 20 27 53 60 l62 60 -24 20 c-32 28 -48 25 -54 -9z m103 -159 c0 -26 -3 -28
-42 -28 -24 -1 -62 -5 -85 -9 -39 -7 -43 -6 -43 13 0 17 10 23 58 32 31 6 62
13 67 15 31 11 45 4 45 -23z m-10 -69 c0 -28 -13 -41 -40 -41 -14 0 -46 -3
-72 -7 -46 -7 -48 -7 -48 17 0 23 5 26 68 35 37 5 73 11 80 11 6 1 12 -6 12
-15z"/>
<path d="M530 765 c0 -2 16 -29 35 -59 19 -30 35 -57 35 -59 0 -2 -32 -10 -71
-17 -59 -10 -73 -10 -80 1 -10 17 -14 13 -28 -41 -22 -79 -23 -89 -17 -106 10
-26 33 0 47 55 l12 49 122 21 c66 11 127 21 133 21 17 0 15 -20 -7 -64 l-20
-37 22 14 c12 7 44 26 70 42 26 15 46 32 44 39 -2 6 -22 21 -45 34 -39 22 -43
22 -92 8 l-50 -15 0 28 c0 30 -27 60 -73 79 -31 13 -37 14 -37 7z"/>
<path d="M492 335 c-3 -217 11 -236 177 -239 60 0 86 4 123 22 57 28 65 49 38
101 -11 22 -20 48 -21 58 -1 20 -12 -10 -23 -59 -9 -40 -51 -58 -138 -58 -96
0 -118 14 -118 75 0 40 3 46 33 60 40 19 187 134 187 147 0 7 -59 38 -74 38
-2 0 -14 -19 -25 -43 -21 -44 -106 -135 -116 -125 -4 3 -2 36 3 72 8 62 7 68
-12 82 -11 8 -23 14 -26 14 -3 0 -6 -65 -8 -145z"/>
<path d="M270 300 c25 -48 50 -53 50 -10 0 30 -22 50 -55 50 -13 0 -13 -5 5
-40z"/>
<path d="M170 325 c0 -15 42 -85 50 -85 20 0 10 59 -12 74 -23 16 -38 20 -38
11z"/>
<path d="M25 251 c-10 -33 -15 -67 -12 -75 11 -29 36 -17 46 22 14 47 13 62
-3 90 -12 22 -13 21 -31 -37z"/>
<path d="M105 269 c21 -59 26 -65 41 -45 19 26 -10 86 -42 86 -11 0 -10 -8 1
-41z"/>
</g>
</svg>
