<?xml version="1.0" standalone="no"?>
<!DOCTYPE svg PUBLIC "-//W3C//DTD SVG 20010904//EN"
 "http://www.w3.org/TR/2001/REC-SVG-20010904/DTD/svg10.dtd">
<svg version="1.0" xmlns="http://www.w3.org/2000/svg"
 width="90.000000pt" height="92.000000pt" viewBox="0 0 90.000000 92.000000"
 preserveAspectRatio="xMidYMid meet">
<metadata>
Created by potrace 1.16, written by Peter Selinger 2001-2019
</metadata>
<g transform="translate(0.000000,92.000000) scale(0.100000,-0.100000)"
fill="#000000" stroke="none">
<path d="M575 812 c-52 -18 -89 -25 -147 -24 -43 0 -78 -1 -78 -3 0 -2 5 -16
10 -31 13 -34 -3 -196 -30 -306 -23 -94 -85 -230 -136 -299 -45 -62 -30 -63
30 -3 79 79 131 194 161 361 22 122 21 118 57 121 18 1 81 7 141 13 97 10 107
13 102 30 -6 18 26 92 45 104 18 11 11 25 -22 45 -40 24 -45 24 -133 -8z m65
-66 c0 -19 -6 -41 -14 -49 -14 -14 -202 -45 -212 -35 -2 3 -2 24 2 47 6 38 9
41 38 42 17 0 54 7 81 14 28 7 62 13 78 14 24 1 27 -2 27 -33z"/>
<path d="M155 659 c-33 -13 -65 -17 -93 -14 -38 4 -55 -6 -33 -19 8 -5 21 -68
36 -171 3 -22 10 -47 16 -55 8 -13 11 -13 19 2 6 10 25 19 43 22 110 17 103
14 103 49 0 18 11 66 24 106 23 72 23 74 5 87 -24 18 -58 16 -120 -7z m55 -71
c0 -24 -3 -60 -6 -80 -6 -35 -9 -38 -51 -44 -24 -3 -45 -5 -47 -3 -2 2 -6 37
-9 76 l-6 73 32 9 c18 5 44 10 60 10 25 1 27 -2 27 -41z"/>
<path d="M633 574 c-6 -3 -55 -11 -108 -17 -101 -13 -129 -30 -57 -35 24 -2
42 -8 42 -15 0 -20 -59 -86 -91 -102 -20 -11 -29 -23 -29 -40 0 -29 14 -31 83
-10 48 14 48 14 57 -11 19 -49 13 -71 -21 -78 -17 -3 -47 -6 -65 -6 -35 0 -46
-13 -18 -24 9 -3 38 -6 65 -6 l49 0 0 -34 c0 -41 -6 -43 -149 -52 -55 -4 -101
-11 -101 -16 0 -5 16 -16 35 -24 28 -11 44 -12 82 -3 27 7 138 15 248 18 167
5 200 8 200 21 0 38 -78 46 -227 23 l-38 -6 0 40 0 40 70 12 c47 9 70 17 70
27 0 20 -42 27 -86 15 -21 -6 -39 -9 -40 -8 -1 1 -4 25 -6 53 l-5 51 51 10
c48 10 52 10 79 -15 21 -20 30 -23 39 -14 22 22 -3 65 -54 92 -51 27 -72 22
-43 -9 17 -19 16 -20 -6 -25 -55 -12 -145 -26 -168 -26 -24 0 -23 3 22 41 35
30 46 46 42 60 -7 20 -6 21 104 38 35 6 66 13 70 16 17 17 -62 32 -96 19z"/>
</g>
</svg>
