<?xml version="1.0" standalone="no"?>
<!DOCTYPE svg PUBLIC "-//W3C//DTD SVG 20010904//EN"
 "http://www.w3.org/TR/2001/REC-SVG-20010904/DTD/svg10.dtd">
<svg version="1.0" xmlns="http://www.w3.org/2000/svg"
 width="96.000000pt" height="68.000000pt" viewBox="0 0 96.000000 68.000000"
 preserveAspectRatio="xMidYMid meet">
<metadata>
Created by potrace 1.16, written by Peter Selinger 2001-2019
</metadata>
<g transform="translate(0.000000,68.000000) scale(0.100000,-0.100000)"
fill="#000000" stroke="none">
<path d="M520 583 c0 -32 -46 -117 -94 -176 -44 -54 -45 -57 -17 -43 16 9 33
20 36 26 3 5 11 10 17 10 8 0 9 -47 4 -160 -5 -114 -3 -166 5 -182 11 -21 12
-21 25 -3 18 24 20 345 3 362 -7 7 4 30 37 78 37 53 45 71 37 84 -15 24 -53
27 -53 4z"/>
</g>
</svg>
