<?xml version="1.0" standalone="no"?>
<!DOCTYPE svg PUBLIC "-//W3C//DTD SVG 20010904//EN"
 "http://www.w3.org/TR/2001/REC-SVG-20010904/DTD/svg10.dtd">
<svg version="1.0" xmlns="http://www.w3.org/2000/svg"
 width="96.000000pt" height="68.000000pt" viewBox="0 0 96.000000 68.000000"
 preserveAspectRatio="xMidYMid meet">
<metadata>
Created by potrace 1.16, written by Peter Selinger 2001-2019
</metadata>
<g transform="translate(0.000000,68.000000) scale(0.100000,-0.100000)"
fill="#000000" stroke="none">
<path d="M620 285 c0 -22 -4 -25 -39 -25 -45 0 -71 -8 -71 -22 0 -6 22 -7 55
-3 l55 7 0 -36 c0 -34 -2 -36 -32 -36 -44 0 -78 -10 -78 -22 0 -10 145 -5 284
8 57 6 58 7 35 20 -17 10 -43 12 -91 8 l-68 -6 0 36 0 36 53 0 c68 0 95 16 44
25 -20 4 -49 4 -63 1 -20 -5 -27 -3 -31 14 -3 13 -14 20 -29 20 -19 0 -24 -5
-24 -25z"/>
</g>
</svg>
