<?xml version="1.0" standalone="no"?>
<!DOCTYPE svg PUBLIC "-//W3C//DTD SVG 20010904//EN"
 "http://www.w3.org/TR/2001/REC-SVG-20010904/DTD/svg10.dtd">
<svg version="1.0" xmlns="http://www.w3.org/2000/svg"
 width="96.000000pt" height="68.000000pt" viewBox="0 0 96.000000 68.000000"
 preserveAspectRatio="xMidYMid meet">
<metadata>
Created by potrace 1.16, written by Peter Selinger 2001-2019
</metadata>
<g transform="translate(0.000000,68.000000) scale(0.100000,-0.100000)"
fill="#000000" stroke="none">
<path d="M274 598 c4 -13 10 -52 13 -89 l5 -65 -52 -12 c-28 -7 -61 -12 -73
-12 -22 -1 -22 -1 -2 -16 15 -12 33 -14 73 -9 l53 7 -3 -54 -3 -53 -93 -31
c-51 -17 -94 -35 -94 -40 -1 -5 11 -16 26 -24 25 -14 30 -13 94 21 l67 37 -3
-47 c-5 -89 -8 -94 -50 -86 l-37 6 48 -48 48 -48 25 28 c22 26 24 36 24 127
l0 99 30 16 c17 9 30 18 30 22 0 3 -13 3 -30 0 -30 -6 -30 -6 -30 39 0 42 2
45 30 51 17 3 33 10 36 15 9 15 -17 29 -43 25 -19 -4 -23 0 -23 23 0 15 7 46
14 69 14 39 14 41 -7 56 -12 8 -34 15 -50 15 -26 0 -28 -3 -23 -22z"/>
<path d="M516 567 c-8 -44 -40 -102 -88 -159 -42 -50 -41 -61 2 -28 14 11 29
20 34 20 5 0 6 -64 2 -154 -4 -110 -3 -162 5 -180 17 -36 39 -16 39 34 l0 38
138 7 c75 4 153 10 172 15 l35 7 -30 12 c-20 8 -52 10 -93 6 l-63 -7 3 34 c3
32 4 33 60 38 31 3 60 8 63 12 9 9 -53 20 -90 16 -26 -3 -30 0 -30 22 0 23 4
25 58 31 32 4 60 9 63 12 10 9 -64 20 -91 13 -17 -4 -25 -2 -26 6 0 7 -2 23
-5 34 -3 19 2 23 44 28 64 10 82 16 82 28 0 7 -21 9 -65 4 l-65 -7 0 29 c0 21
-7 32 -26 41 -37 16 -40 8 -15 -35 12 -20 21 -38 19 -39 -5 -4 -153 -22 -156
-20 -2 2 12 25 31 52 54 76 60 92 46 109 -21 25 -46 17 -53 -19z m98 -173 c13
-34 7 -54 -18 -54 -13 0 -38 -3 -55 -6 -30 -6 -31 -5 -31 28 0 44 4 48 56 48
29 0 44 -5 48 -16z m4 -108 c-3 -18 -12 -22 -55 -26 -52 -5 -53 -5 -53 22 0
24 4 27 38 30 57 5 73 -2 70 -26z m3 -83 c6 -32 5 -33 -25 -34 -17 0 -43 -3
-58 -5 -27 -4 -28 -3 -28 34 l0 38 52 -1 c51 0 52 -1 59 -32z"/>
</g>
</svg>
