<?xml version="1.0" standalone="no"?>
<!DOCTYPE svg PUBLIC "-//W3C//DTD SVG 20010904//EN"
 "http://www.w3.org/TR/2001/REC-SVG-20010904/DTD/svg10.dtd">
<svg version="1.0" xmlns="http://www.w3.org/2000/svg"
 width="96.000000pt" height="68.000000pt" viewBox="0 0 96.000000 68.000000"
 preserveAspectRatio="xMidYMid meet">
<metadata>
Created by potrace 1.16, written by Peter Selinger 2001-2019
</metadata>
<g transform="translate(0.000000,68.000000) scale(0.100000,-0.100000)"
fill="#000000" stroke="none">
<path d="M511 514 l-31 -66 -47 5 c-27 2 -57 7 -68 11 -15 4 -27 -3 -49 -32
l-29 -37 6 73 c6 71 5 73 -19 82 -50 19 -50 18 -46 -111 5 -122 -8 -217 -34
-271 -8 -14 -32 -48 -54 -73 -44 -51 -46 -65 -8 -43 46 26 91 74 113 121 l23
49 38 -36 c43 -41 58 -41 62 -4 3 22 -4 29 -46 48 l-49 22 5 52 c5 51 16 76
34 76 6 0 31 14 55 31 27 18 49 27 55 21 5 -5 16 -37 26 -72 l17 -62 108 0
c60 0 113 4 118 9 5 5 17 33 27 63 11 30 23 63 27 72 5 14 0 20 -21 29 -27 10
-49 9 -169 -7 l-50 -7 48 48 c26 26 47 51 47 55 0 7 -33 19 -52 20 -3 0 -20
-30 -37 -66z m157 -86 c3 -24 1 -25 -74 -31 -122 -11 -124 -10 -124 18 0 15 5
23 13 20 6 -3 46 1 87 9 91 17 94 16 98 -16z m-4 -70 c-3 -13 -7 -24 -8 -25
-1 -1 -37 -5 -80 -9 -62 -5 -80 -4 -87 7 -19 30 -9 38 54 42 34 2 77 4 95 5
30 2 33 0 26 -20z"/>
<path d="M100 373 c0 -3 12 -26 26 -50 30 -52 57 -55 62 -8 2 24 -3 34 -27 48
-29 17 -61 23 -61 10z"/>
<path d="M570 259 c-30 -5 -70 -12 -89 -15 -44 -7 -22 -24 32 -24 36 0 37 -1
37 -35 0 -23 -5 -35 -12 -34 -7 1 -28 1 -45 0 -53 -2 -37 -21 17 -21 49 0 50
-1 50 -30 0 -29 -1 -30 -52 -31 -29 0 -75 -4 -103 -8 -48 -7 -49 -8 -23 -19
18 -7 46 -8 90 -2 34 5 129 10 210 11 82 0 150 5 154 10 12 20 -51 30 -143 23
l-93 -7 0 30 c0 30 1 31 60 37 77 9 79 28 3 25 l-58 -3 0 31 c0 30 2 32 52 38
58 7 75 19 40 29 -28 7 -57 6 -127 -5z"/>
</g>
</svg>
