<?xml version="1.0" standalone="no"?>
<!DOCTYPE svg PUBLIC "-//W3C//DTD SVG 20010904//EN"
 "http://www.w3.org/TR/2001/REC-SVG-20010904/DTD/svg10.dtd">
<svg version="1.0" xmlns="http://www.w3.org/2000/svg"
 width="96.000000pt" height="68.000000pt" viewBox="0 0 96.000000 68.000000"
 preserveAspectRatio="xMidYMid meet">
<metadata>
Created by potrace 1.16, written by Peter Selinger 2001-2019
</metadata>
<g transform="translate(0.000000,68.000000) scale(0.100000,-0.100000)"
fill="#000000" stroke="none">
<path d="M287 503 c-3 -16 -12 -36 -20 -47 -13 -18 -15 -18 -55 8 -50 31 -55
21 -10 -19 l32 -28 -53 -49 c-59 -54 -49 -63 19 -18 25 16 48 30 52 30 17 0
30 -89 24 -168 -8 -107 -17 -125 -61 -120 l-32 4 20 -28 c37 -50 73 -44 98 14
20 46 17 229 -4 287 l-16 44 40 41 39 41 -21 18 c-30 24 -46 21 -52 -10z"/>
</g>
</svg>
