<?xml version="1.0" standalone="no"?>
<!DOCTYPE svg PUBLIC "-//W3C//DTD SVG 20010904//EN"
 "http://www.w3.org/TR/2001/REC-SVG-20010904/DTD/svg10.dtd">
<svg version="1.0" xmlns="http://www.w3.org/2000/svg"
 width="96.000000pt" height="68.000000pt" viewBox="0 0 96.000000 68.000000"
 preserveAspectRatio="xMidYMid meet">
<metadata>
Created by potrace 1.16, written by Peter Selinger 2001-2019
</metadata>
<g transform="translate(0.000000,68.000000) scale(0.100000,-0.100000)"
fill="#000000" stroke="none">
<path d="M302 588 l3 -33 -59 -7 c-81 -10 -82 -18 -3 -18 60 0 67 -2 67 -20 0
-17 -7 -20 -45 -20 -25 0 -45 -4 -45 -10 0 -13 23 -13 132 1 51 7 85 16 82 21
-4 6 -24 8 -45 6 -32 -3 -39 0 -39 14 0 12 11 19 38 23 20 4 46 9 57 12 18 5
18 6 -4 15 -13 4 -39 6 -57 2 -28 -5 -33 -3 -36 18 -2 15 -11 24 -26 26 -21 3
-23 0 -20 -30z"/>
</g>
</svg>
