<?xml version="1.0" standalone="no"?>
<!DOCTYPE svg PUBLIC "-//W3C//DTD SVG 20010904//EN"
 "http://www.w3.org/TR/2001/REC-SVG-20010904/DTD/svg10.dtd">
<svg version="1.0" xmlns="http://www.w3.org/2000/svg"
 width="96.000000pt" height="68.000000pt" viewBox="0 0 96.000000 68.000000"
 preserveAspectRatio="xMidYMid meet">
<metadata>
Created by potrace 1.16, written by Peter Selinger 2001-2019
</metadata>
<g transform="translate(0.000000,68.000000) scale(0.100000,-0.100000)"
fill="#000000" stroke="none">
<path d="M487 407 c4 -30 2 -35 -18 -40 -13 -4 -40 -7 -59 -7 -29 -1 -32 -2
-17 -11 10 -6 35 -9 55 -7 35 3 37 1 40 -28 3 -30 1 -31 -44 -38 -26 -3 -73
-6 -105 -6 -60 0 -79 -15 -33 -26 23 -6 88 -1 155 13 l29 6 0 -109 c0 -60 4
-115 9 -123 17 -26 32 27 38 127 3 54 11 100 17 104 6 4 67 8 136 8 115 1 123
2 105 16 -17 13 -39 15 -138 9 l-118 -7 3 34 c3 31 5 33 56 41 67 11 69 30 2
25 -46 -3 -49 -1 -52 22 -2 20 -9 26 -35 28 -31 3 -32 2 -26 -31z"/>
</g>
</svg>
