<?xml version="1.0" standalone="no"?>
<!DOCTYPE svg PUBLIC "-//W3C//DTD SVG 20010904//EN"
 "http://www.w3.org/TR/2001/REC-SVG-20010904/DTD/svg10.dtd">
<svg version="1.0" xmlns="http://www.w3.org/2000/svg"
 width="96.000000pt" height="68.000000pt" viewBox="0 0 96.000000 68.000000"
 preserveAspectRatio="xMidYMid meet">
<metadata>
Created by potrace 1.16, written by Peter Selinger 2001-2019
</metadata>
<g transform="translate(0.000000,68.000000) scale(0.100000,-0.100000)"
fill="#000000" stroke="none">
<path d="M660 400 c-14 -4 -56 -8 -94 -9 l-69 -1 6 -37 c5 -34 2 -74 -19 -224
-4 -33 -3 -49 6 -54 18 -11 37 18 44 70 8 49 8 49 129 61 l67 6 0 -36 c0 -60
-13 -75 -55 -66 -19 4 -35 6 -35 5 0 -2 21 -20 46 -41 l45 -37 22 22 c20 20
22 32 22 144 0 67 4 136 8 154 7 26 5 33 -12 42 -22 12 -74 13 -111 1z m65
-50 c0 -23 -6 -26 -65 -37 -105 -20 -112 -18 -108 20 3 28 7 33 38 38 19 4 58
6 85 5 46 -1 50 -3 50 -26z m3 -81 c3 -24 -1 -27 -54 -38 -87 -17 -134 -15
-134 7 0 30 14 39 80 49 92 15 104 13 108 -18z"/>
</g>
</svg>
