<?xml version="1.0" standalone="no"?>
<!DOCTYPE svg PUBLIC "-//W3C//DTD SVG 20010904//EN"
 "http://www.w3.org/TR/2001/REC-SVG-20010904/DTD/svg10.dtd">
<svg version="1.0" xmlns="http://www.w3.org/2000/svg"
 width="96.000000pt" height="68.000000pt" viewBox="0 0 96.000000 68.000000"
 preserveAspectRatio="xMidYMid meet">
<metadata>
Created by potrace 1.16, written by Peter Selinger 2001-2019
</metadata>
<g transform="translate(0.000000,68.000000) scale(0.100000,-0.100000)"
fill="#000000" stroke="none">
<path d="M400 611 c0 -6 5 -13 10 -16 6 -3 10 -42 10 -86 0 -72 2 -79 20 -79
17 0 20 7 20 39 l0 38 63 7 c91 10 127 17 127 26 0 16 -47 18 -113 6 l-68 -13
2 31 c2 17 0 37 -5 44 -8 14 -66 17 -66 3z"/>
</g>
</svg>
