<?xml version="1.0" standalone="no"?>
<!DOCTYPE svg PUBLIC "-//W3C//DTD SVG 20010904//EN"
 "http://www.w3.org/TR/2001/REC-SVG-20010904/DTD/svg10.dtd">
<svg version="1.0" xmlns="http://www.w3.org/2000/svg"
 width="90.000000pt" height="92.000000pt" viewBox="0 0 90.000000 92.000000"
 preserveAspectRatio="xMidYMid meet">
<metadata>
Created by potrace 1.16, written by Peter Selinger 2001-2019
</metadata>
<g transform="translate(0.000000,92.000000) scale(0.100000,-0.100000)"
fill="#000000" stroke="none">
<path d="M529 862 c-1 -4 0 -79 1 -168 l2 -161 -47 -7 c-26 -3 -72 -6 -102 -6
l-54 0 7 59 c6 53 4 60 -16 74 -22 15 -21 16 39 49 33 18 63 38 65 45 3 7 -8
22 -25 33 l-29 21 -46 -45 c-25 -25 -79 -62 -122 -83 -65 -32 -72 -38 -50 -41
15 -2 43 1 63 7 44 12 55 -4 55 -77 0 -59 4 -57 -148 -68 -56 -3 -102 -11
-102 -16 0 -5 17 -16 38 -25 36 -15 86 -12 190 14 21 5 22 2 22 -44 0 -92 -47
-195 -118 -257 -43 -38 -34 -44 22 -15 89 44 134 117 149 245 l11 84 45 0 c26
0 70 3 99 6 l52 7 0 -219 c0 -195 7 -260 24 -243 15 14 26 119 33 282 l6 177
123 0 c68 0 125 4 128 8 8 14 -9 31 -47 47 -31 13 -49 14 -94 5 -31 -5 -69
-10 -85 -10 l-28 0 0 103 c0 56 5 120 10 142 6 25 5 44 -1 51 -12 15 -69 36
-70 26z"/>
</g>
</svg>
