<?xml version="1.0" standalone="no"?>
<!DOCTYPE svg PUBLIC "-//W3C//DTD SVG 20010904//EN"
 "http://www.w3.org/TR/2001/REC-SVG-20010904/DTD/svg10.dtd">
<svg version="1.0" xmlns="http://www.w3.org/2000/svg"
 width="96.000000pt" height="68.000000pt" viewBox="0 0 96.000000 68.000000"
 preserveAspectRatio="xMidYMid meet">
<metadata>
Created by potrace 1.16, written by Peter Selinger 2001-2019
</metadata>
<g transform="translate(0.000000,68.000000) scale(0.100000,-0.100000)"
fill="#000000" stroke="none">
<path d="M510 584 c0 -24 -50 -134 -78 -171 -27 -37 -14 -45 20 -11 13 13 36
22 57 24 20 1 58 7 84 14 27 7 60 9 74 5 25 -6 26 -8 19 -66 -8 -82 -30 -122
-62 -116 -36 7 -37 -6 -3 -39 l31 -29 27 33 c20 23 33 56 44 110 9 42 19 87
23 99 11 39 -30 49 -126 29 -44 -9 -89 -16 -100 -16 -19 0 -19 0 0 33 49 82
52 88 39 103 -16 19 -49 18 -49 -2z"/>
<path d="M232 548 c14 -58 3 -252 -18 -310 -9 -27 -36 -71 -61 -98 -25 -28
-43 -54 -39 -57 17 -18 103 53 133 111 l15 28 32 -31 c17 -17 39 -31 48 -31
50 0 17 65 -38 76 -31 6 -35 9 -30 30 4 13 9 43 12 67 6 38 11 46 53 70 76 44
74 42 62 66 -20 36 -49 26 -73 -24 -21 -43 -38 -58 -38 -32 1 6 5 43 10 82 10
81 3 95 -45 95 l-33 0 10 -42z"/>
<path d="M110 405 c0 -20 43 -85 60 -90 37 -12 54 21 27 56 -15 19 -87 47 -87
34z"/>
<path d="M470 349 c-13 -6 -34 -8 -46 -5 -22 6 -22 4 -23 -107 -1 -123 3 -133
69 -168 41 -21 226 -24 293 -5 66 19 80 37 62 80 -7 17 -18 42 -23 56 -10 23
-11 23 -11 4 -3 -90 -59 -119 -215 -112 -131 6 -146 14 -146 77 0 53 9 61 78
61 25 0 32 4 32 20 0 11 9 35 19 54 14 25 16 37 8 45 -13 13 -63 13 -97 0z
m42 -54 c-4 -30 -9 -37 -33 -42 -47 -9 -51 -4 -39 47 5 18 15 27 36 31 39 7
41 6 36 -36z"/>
</g>
</svg>
