<?xml version="1.0" standalone="no"?>
<!DOCTYPE svg PUBLIC "-//W3C//DTD SVG 20010904//EN"
 "http://www.w3.org/TR/2001/REC-SVG-20010904/DTD/svg10.dtd">
<svg version="1.0" xmlns="http://www.w3.org/2000/svg"
 width="96.000000pt" height="68.000000pt" viewBox="0 0 96.000000 68.000000"
 preserveAspectRatio="xMidYMid meet">
<metadata>
Created by potrace 1.16, written by Peter Selinger 2001-2019
</metadata>
<g transform="translate(0.000000,68.000000) scale(0.100000,-0.100000)"
fill="#000000" stroke="none">
<path d="M480 417 c0 -7 -15 -39 -34 -70 -34 -56 -32 -62 9 -27 15 13 47 19
124 24 110 8 152 19 118 32 -10 3 -57 -1 -104 -9 -48 -9 -89 -15 -91 -13 -2 3
4 16 13 30 9 14 14 30 10 36 -9 15 -45 12 -45 -3z"/>
</g>
</svg>
