<?xml version="1.0" standalone="no"?>
<!DOCTYPE svg PUBLIC "-//W3C//DTD SVG 20010904//EN"
 "http://www.w3.org/TR/2001/REC-SVG-20010904/DTD/svg10.dtd">
<svg version="1.0" xmlns="http://www.w3.org/2000/svg"
 width="96.000000pt" height="68.000000pt" viewBox="0 0 96.000000 68.000000"
 preserveAspectRatio="xMidYMid meet">
<metadata>
Created by potrace 1.16, written by Peter Selinger 2001-2019
</metadata>
<g transform="translate(0.000000,68.000000) scale(0.100000,-0.100000)"
fill="#000000" stroke="none">
<path d="M552 307 c-6 -7 -9 -23 -5 -35 3 -13 1 -22 -6 -22 -6 0 -11 -7 -11
-15 0 -8 6 -15 13 -15 8 0 8 -3 2 -8 -6 -4 -25 -27 -43 -51 -17 -24 -44 -53
-59 -63 -42 -27 -14 -21 32 7 22 14 34 25 27 25 -7 0 -11 4 -7 10 3 5 12 7 20
4 9 -4 16 3 21 20 3 14 9 26 13 26 11 0 34 51 35 75 1 11 4 25 8 31 15 23 -22
33 -40 11z m13 -67 c-3 -5 -12 -10 -18 -10 -7 0 -6 4 3 10 19 12 23 12 15 0z"/>
<path d="M765 259 c-4 -6 -24 -10 -44 -8 -55 3 -91 0 -91 -8 0 -5 48 -7 107
-5 78 2 103 6 90 13 -9 6 -22 7 -29 3 -7 -4 -8 -3 -4 4 4 7 1 12 -8 12 -8 0
-18 -5 -21 -11z"/>
<path d="M390 230 c0 -8 116 -7 124 1 3 3 -23 6 -59 6 -36 0 -65 -3 -65 -7z"/>
<path d="M660 159 c12 -22 49 -40 64 -31 5 3 6 0 2 -7 -4 -6 -12 -9 -17 -6
-17 11 -9 -4 13 -25 12 -11 29 -20 37 -20 14 0 14 1 1 10 -12 8 -12 10 -1 10
24 0 -77 90 -102 90 -4 0 -3 -9 3 -21z"/>
</g>
</svg>
