<?xml version="1.0" standalone="no"?>
<!DOCTYPE svg PUBLIC "-//W3C//DTD SVG 20010904//EN"
 "http://www.w3.org/TR/2001/REC-SVG-20010904/DTD/svg10.dtd">
<svg version="1.0" xmlns="http://www.w3.org/2000/svg"
 width="96.000000pt" height="68.000000pt" viewBox="0 0 96.000000 68.000000"
 preserveAspectRatio="xMidYMid meet">
<metadata>
Created by potrace 1.16, written by Peter Selinger 2001-2019
</metadata>
<g transform="translate(0.000000,68.000000) scale(0.100000,-0.100000)"
fill="#000000" stroke="none">
<path d="M659 573 c-8 -9 -40 -36 -73 -60 -52 -38 -63 -43 -94 -37 -32 6 -34
5 -26 -12 15 -31 9 -145 -9 -200 -10 -28 -34 -70 -53 -93 -41 -47 -36 -52 17
-16 48 34 85 104 99 190 6 39 13 79 15 91 3 14 31 33 99 65 95 44 106 55 84
77 -17 17 -43 15 -59 -5z"/>
</g>
</svg>
