<?xml version="1.0" standalone="no"?>
<!DOCTYPE svg PUBLIC "-//W3C//DTD SVG 20010904//EN"
 "http://www.w3.org/TR/2001/REC-SVG-20010904/DTD/svg10.dtd">
<svg version="1.0" xmlns="http://www.w3.org/2000/svg"
 width="96.000000pt" height="68.000000pt" viewBox="0 0 96.000000 68.000000"
 preserveAspectRatio="xMidYMid meet">
<metadata>
Created by potrace 1.16, written by Peter Selinger 2001-2019
</metadata>
<g transform="translate(0.000000,68.000000) scale(0.100000,-0.100000)"
fill="#000000" stroke="none">
<path d="M665 230 c-205 -28 -261 -31 -291 -15 -38 19 -46 19 -42 -2 2 -13 -3
-17 -19 -15 -37 5 -36 -17 2 -24 35 -6 35 -7 35 -58 0 -50 21 -99 35 -84 4 4
7 38 6 76 l-1 69 37 7 c68 11 313 27 323 21 6 -3 10 -30 10 -59 0 -65 -17 -85
-57 -67 -14 6 -27 10 -29 9 -1 -2 12 -21 31 -43 l33 -40 29 21 c20 15 30 34
36 65 4 24 12 60 17 79 7 26 6 38 -4 48 -17 18 -77 22 -151 12z"/>
</g>
</svg>
