<?xml version="1.0" standalone="no"?>
<!DOCTYPE svg PUBLIC "-//W3C//DTD SVG 20010904//EN"
 "http://www.w3.org/TR/2001/REC-SVG-20010904/DTD/svg10.dtd">
<svg version="1.0" xmlns="http://www.w3.org/2000/svg"
 width="96.000000pt" height="68.000000pt" viewBox="0 0 96.000000 68.000000"
 preserveAspectRatio="xMidYMid meet">
<metadata>
Created by potrace 1.16, written by Peter Selinger 2001-2019
</metadata>
<g transform="translate(0.000000,68.000000) scale(0.100000,-0.100000)"
fill="#000000" stroke="none">
<path d="M566 540 c-32 -33 -64 -60 -72 -60 -8 0 -14 -4 -14 -10 0 -26 63 1
127 57 43 36 51 48 42 59 -6 8 -14 14 -18 14 -3 0 -32 -27 -65 -60z"/>
<path d="M300 555 c-30 -8 -67 -12 -82 -9 l-28 6 7 -109 c12 -178 14 -168 -29
-171 -21 -2 -38 -7 -38 -12 0 -13 42 -19 85 -11 74 13 76 10 73 -82 l-3 -82
-32 1 c-18 1 -33 0 -33 -3 0 -7 64 -63 72 -63 4 0 14 10 22 22 12 17 16 48 16
119 l0 96 38 7 c20 3 56 6 80 6 42 0 56 13 26 24 -9 3 -27 6 -40 6 -22 0 -24
4 -23 48 0 26 4 80 8 120 4 40 4 77 1 82 -11 17 -64 19 -120 5z m63 -47 c4
-12 5 -23 4 -24 -1 -1 -28 -4 -59 -6 -55 -4 -58 -3 -58 18 0 24 15 30 76 33
25 1 33 -4 37 -21z m-5 -82 c-1 -2 -27 -6 -55 -9 -47 -5 -53 -4 -53 13 0 16 9
19 53 22 37 2 53 -1 55 -10 2 -8 2 -15 0 -16z m-1 -59 c-3 -8 -26 -14 -56 -16
-45 -2 -51 0 -51 18 0 17 8 20 53 23 52 3 63 -2 54 -25z m11 -53 c2 -17 -4
-23 -29 -28 -17 -3 -44 -6 -60 -6 -24 0 -29 4 -29 24 0 22 5 25 43 29 64 6 72
4 75 -19z"/>
<path d="M641 498 c-12 -31 -49 -70 -99 -103 -69 -45 -50 -74 32 -50 25 8 46
10 46 5 0 -4 -26 -26 -57 -47 -31 -21 -58 -44 -61 -51 -6 -18 28 -27 60 -14
46 17 59 -5 56 -92 l-3 -71 -27 3 c-16 2 -28 1 -28 -2 0 -9 51 -56 61 -56 29
0 38 30 41 136 l3 108 39 4 c26 2 44 -1 50 -10 6 -8 19 -17 29 -21 13 -5 17
-1 17 17 0 17 -11 31 -34 45 -39 24 -58 27 -50 7 6 -16 -13 -22 -101 -31 l-60
-6 93 61 c91 60 108 82 75 94 -11 4 -25 -4 -42 -24 -24 -29 -30 -31 -81 -28
l-55 3 45 32 c25 18 60 43 77 55 37 26 39 51 5 56 -15 2 -25 -3 -31 -20z"/>
<path d="M380 212 c0 -17 51 -72 66 -72 8 0 14 9 14 19 0 20 -24 51 -40 51 -5
0 -15 3 -24 6 -9 3 -16 2 -16 -4z"/>
<path d="M180 191 c0 -4 -18 -29 -41 -55 -22 -25 -37 -46 -31 -46 19 0 69 30
96 59 27 29 28 29 8 40 -25 13 -32 14 -32 2z"/>
<path d="M496 175 c-9 -13 -16 -29 -16 -34 0 -5 -9 -16 -20 -24 -30 -21 -11
-29 22 -9 36 20 72 68 63 82 -11 17 -32 11 -49 -15z"/>
<path d="M732 193 c12 -29 74 -103 85 -103 20 0 26 25 13 50 -17 32 -112 83
-98 53z"/>
</g>
</svg>
