<?xml version="1.0" standalone="no"?>
<!DOCTYPE svg PUBLIC "-//W3C//DTD SVG 20010904//EN"
 "http://www.w3.org/TR/2001/REC-SVG-20010904/DTD/svg10.dtd">
<svg version="1.0" xmlns="http://www.w3.org/2000/svg"
 width="90.000000pt" height="92.000000pt" viewBox="0 0 90.000000 92.000000"
 preserveAspectRatio="xMidYMid meet">
<metadata>
Created by potrace 1.16, written by Peter Selinger 2001-2019
</metadata>
<g transform="translate(0.000000,92.000000) scale(0.100000,-0.100000)"
fill="#000000" stroke="none">
<path d="M293 794 c0 -30 -4 -59 -9 -63 -5 -5 -30 -12 -56 -15 l-48 -7 0 40
c0 43 -26 69 -56 57 -13 -5 -13 -9 0 -28 9 -12 16 -34 16 -49 0 -23 -5 -27
-41 -32 -70 -9 -67 -26 6 -34 38 -5 45 -9 45 -28 0 -12 5 -36 11 -53 9 -27 13
-30 29 -19 23 14 28 10 36 -30 7 -36 -8 -43 -94 -43 -52 0 -52 0 -38 -22 8
-13 17 -41 21 -63 7 -47 24 -77 32 -57 2 7 22 12 44 12 37 0 39 -2 39 -30 0
-16 -3 -30 -7 -30 -5 0 -51 -7 -103 -15 -52 -8 -98 -15 -102 -15 -17 0 -7 -17
17 -28 18 -9 44 -8 106 3 46 8 84 13 86 11 2 -2 -1 -34 -7 -71 -12 -73 -7
-117 15 -135 19 -16 35 45 35 137 0 82 -2 81 99 85 63 3 76 20 32 43 -24 12
-39 13 -73 5 -24 -5 -46 -10 -49 -10 -3 0 -6 13 -5 30 1 28 3 30 59 36 46 5
57 10 52 22 -3 8 6 29 20 48 32 42 31 50 -4 68 -22 12 -37 13 -62 6 -50 -15
-59 -12 -59 13 0 13 -5 28 -12 35 -9 9 -2 12 31 12 36 0 41 2 32 14 -7 9 -9
29 -5 55 l7 41 46 1 c25 0 54 4 64 8 17 6 17 8 -2 25 -15 13 -34 19 -62 18
-35 -2 -40 1 -34 16 18 47 17 70 -3 81 -41 22 -49 15 -49 -45z m-7 -146 c-8
-39 -4 -36 -54 -44 l-42 -7 0 36 c0 39 8 45 64 46 38 1 38 1 32 -31z m66 -198
c-3 -22 -11 -32 -28 -36 -38 -10 -51 0 -46 35 4 28 8 31 41 31 36 0 37 -1 33
-30z m-122 -20 l0 -40 -40 0 c-39 0 -40 1 -40 34 0 36 9 42 58 45 19 1 22 -4
22 -39z"/>
<path d="M603 693 c-61 -64 -62 -65 -104 -58 -41 7 -42 7 -33 -16 5 -13 8 -78
8 -144 -1 -130 -18 -215 -60 -297 -28 -55 -18 -63 22 -15 40 47 61 100 79 203
l17 92 54 7 c29 3 58 4 64 0 6 -4 10 -84 10 -213 0 -211 8 -263 31 -207 9 24
30 384 25 430 0 6 28 12 63 15 71 6 87 21 42 39 -28 12 -89 4 -268 -35 -20 -4
-23 0 -23 28 0 66 7 73 111 123 55 26 102 52 106 58 8 13 -43 57 -65 56 -9 -1
-45 -31 -79 -66z"/>
</g>
</svg>
