<?xml version="1.0" standalone="no"?>
<!DOCTYPE svg PUBLIC "-//W3C//DTD SVG 20010904//EN"
 "http://www.w3.org/TR/2001/REC-SVG-20010904/DTD/svg10.dtd">
<svg version="1.0" xmlns="http://www.w3.org/2000/svg"
 width="96.000000pt" height="68.000000pt" viewBox="0 0 96.000000 68.000000"
 preserveAspectRatio="xMidYMid meet">
<metadata>
Created by potrace 1.16, written by Peter Selinger 2001-2019
</metadata>
<g transform="translate(0.000000,68.000000) scale(0.100000,-0.100000)"
fill="#000000" stroke="none">
<path d="M270 568 c0 -41 -46 -122 -114 -200 -37 -43 -63 -78 -58 -78 33 0
151 119 201 202 l22 37 39 -24 c45 -28 70 -32 70 -10 0 16 -25 29 -72 39 -16
4 -28 13 -28 21 0 14 -29 35 -49 35 -6 0 -11 -10 -11 -22z"/>
</g>
</svg>
