<?xml version="1.0" standalone="no"?>
<!DOCTYPE svg PUBLIC "-//W3C//DTD SVG 20010904//EN"
 "http://www.w3.org/TR/2001/REC-SVG-20010904/DTD/svg10.dtd">
<svg version="1.0" xmlns="http://www.w3.org/2000/svg"
 width="96.000000pt" height="68.000000pt" viewBox="0 0 96.000000 68.000000"
 preserveAspectRatio="xMidYMid meet">
<metadata>
Created by potrace 1.16, written by Peter Selinger 2001-2019
</metadata>
<g transform="translate(0.000000,68.000000) scale(0.100000,-0.100000)"
fill="#000000" stroke="none">
<path d="M305 578 c-38 -4 -90 -6 -114 -3 -42 5 -43 4 -28 -13 9 -10 23 -42
31 -72 11 -44 18 -55 32 -53 11 1 70 5 132 9 99 6 133 15 102 26 -5 2 0 23 11
47 18 42 18 44 2 57 -20 15 -65 16 -168 2z m105 -58 c0 -47 1 -46 -101 -54
l-77 -6 -6 28 c-4 15 -9 35 -12 44 -5 18 17 22 144 26 l52 2 0 -40z"/>
</g>
</svg>
