<?xml version="1.0" standalone="no"?>
<!DOCTYPE svg PUBLIC "-//W3C//DTD SVG 20010904//EN"
 "http://www.w3.org/TR/2001/REC-SVG-20010904/DTD/svg10.dtd">
<svg version="1.0" xmlns="http://www.w3.org/2000/svg"
 width="96.000000pt" height="68.000000pt" viewBox="0 0 96.000000 68.000000"
 preserveAspectRatio="xMidYMid meet">
<metadata>
Created by potrace 1.16, written by Peter Selinger 2001-2019
</metadata>
<g transform="translate(0.000000,68.000000) scale(0.100000,-0.100000)"
fill="#000000" stroke="none">
<path d="M238 583 l-97 -4 23 -34 c13 -18 26 -52 30 -74 7 -44 21 -60 39 -42
6 6 34 11 63 11 28 0 79 3 113 6 54 6 61 9 55 26 -3 11 4 34 16 55 21 35 21
38 4 50 -11 8 -42 12 -83 11 -36 -1 -110 -4 -163 -5z m172 -57 c0 -38 -14 -46
-93 -52 -76 -7 -76 -7 -87 20 -20 52 -16 55 73 58 99 4 107 2 107 -26z"/>
<path d="M685 563 c-22 -8 -61 -13 -88 -11 l-47 3 0 -155 c0 -85 3 -206 7
-268 5 -98 8 -111 20 -99 12 12 16 61 19 233 3 121 7 228 9 240 3 15 17 23 56
32 28 7 55 12 60 12 15 0 10 -28 -11 -72 -26 -55 -25 -70 6 -97 29 -25 58 -87
48 -103 -4 -6 -24 -8 -52 -4 l-45 6 56 -40 c30 -22 60 -40 65 -40 12 0 32 46
32 76 0 46 -56 121 -101 136 -17 6 5 44 53 92 43 44 46 51 19 66 -25 13 -56
11 -106 -7z"/>
<path d="M360 408 c-19 -11 -66 -31 -105 -44 l-70 -23 55 2 55 2 3 -32 c3 -30
1 -33 -25 -33 -46 0 -103 -12 -103 -21 0 -5 29 -9 65 -9 l65 0 0 -34 c0 -32
-2 -34 -46 -40 -26 -3 -66 -6 -90 -6 -53 0 -56 -12 -10 -34 27 -13 40 -14 63
-5 23 9 95 26 262 65 16 3 21 8 14 15 -9 9 -31 6 -130 -16 -21 -5 -23 -2 -23
30 0 39 2 40 73 50 66 9 59 25 -10 25 l-58 0 0 34 c0 32 3 34 48 47 50 13 54
18 35 37 -17 17 -28 15 -68 -10z"/>
</g>
</svg>
