<?xml version="1.0" standalone="no"?>
<!DOCTYPE svg PUBLIC "-//W3C//DTD SVG 20010904//EN"
 "http://www.w3.org/TR/2001/REC-SVG-20010904/DTD/svg10.dtd">
<svg version="1.0" xmlns="http://www.w3.org/2000/svg"
 width="96.000000pt" height="68.000000pt" viewBox="0 0 96.000000 68.000000"
 preserveAspectRatio="xMidYMid meet">
<metadata>
Created by potrace 1.16, written by Peter Selinger 2001-2019
</metadata>
<g transform="translate(0.000000,68.000000) scale(0.100000,-0.100000)"
fill="#000000" stroke="none">
<path d="M428 413 l-56 -15 13 -45 c16 -54 22 -60 37 -45 7 7 32 12 56 12 35
0 43 3 38 15 -3 8 0 28 6 45 5 17 9 32 7 34 -13 12 -52 11 -101 -1z m50 -40
c-2 -19 -10 -29 -30 -34 -16 -4 -28 -4 -28 -1 0 4 -3 17 -6 29 -6 21 6 29 49
32 14 1 18 -5 15 -26z"/>
</g>
</svg>
