<?xml version="1.0" standalone="no"?>
<!DOCTYPE svg PUBLIC "-//W3C//DTD SVG 20010904//EN"
 "http://www.w3.org/TR/2001/REC-SVG-20010904/DTD/svg10.dtd">
<svg version="1.0" xmlns="http://www.w3.org/2000/svg"
 width="96.000000pt" height="68.000000pt" viewBox="0 0 96.000000 68.000000"
 preserveAspectRatio="xMidYMid meet">
<metadata>
Created by potrace 1.16, written by Peter Selinger 2001-2019
</metadata>
<g transform="translate(0.000000,68.000000) scale(0.100000,-0.100000)"
fill="#000000" stroke="none">
<path d="M450 408 c-19 -5 -52 -8 -72 -5 -37 5 -59 -5 -38 -18 5 -3 10 -44 10
-91 0 -77 2 -84 20 -84 13 0 20 7 20 18 0 16 14 21 87 32 64 9 82 15 69 22
-16 9 -52 6 -129 -9 -26 -4 -28 -2 -25 19 2 17 10 24 33 26 82 7 115 14 109
24 -4 6 -30 8 -70 3 -59 -6 -64 -5 -64 13 0 16 10 20 61 26 71 8 91 15 83 27
-7 11 -49 10 -94 -3z"/>
</g>
</svg>
