<?xml version="1.0" standalone="no"?>
<!DOCTYPE svg PUBLIC "-//W3C//DTD SVG 20010904//EN"
 "http://www.w3.org/TR/2001/REC-SVG-20010904/DTD/svg10.dtd">
<svg version="1.0" xmlns="http://www.w3.org/2000/svg"
 width="96.000000pt" height="68.000000pt" viewBox="0 0 96.000000 68.000000"
 preserveAspectRatio="xMidYMid meet">
<metadata>
Created by potrace 1.16, written by Peter Selinger 2001-2019
</metadata>
<g transform="translate(0.000000,68.000000) scale(0.100000,-0.100000)"
fill="#000000" stroke="none">
<path d="M387 594 c-2 -25 -9 -50 -15 -56 -5 -5 -47 -15 -92 -20 -62 -8 -78
-13 -65 -21 9 -5 44 -7 76 -5 33 2 59 1 59 -3 0 -21 -116 -129 -174 -163 -37
-21 -65 -41 -63 -43 3 -2 29 6 59 17 78 29 156 88 203 154 27 38 47 56 62 56
13 0 65 -38 132 -95 62 -52 117 -95 124 -96 30 -2 99 3 124 10 24 6 18 10 -57
34 -58 18 -113 45 -174 86 l-89 59 82 7 c44 4 81 11 81 16 0 17 -54 22 -136
13 -90 -10 -97 -7 -73 38 12 23 -1 41 -37 52 -19 6 -22 2 -27 -40z"/>
</g>
</svg>
