<?xml version="1.0" standalone="no"?>
<!DOCTYPE svg PUBLIC "-//W3C//DTD SVG 20010904//EN"
 "http://www.w3.org/TR/2001/REC-SVG-20010904/DTD/svg10.dtd">
<svg version="1.0" xmlns="http://www.w3.org/2000/svg"
 width="96.000000pt" height="68.000000pt" viewBox="0 0 96.000000 68.000000"
 preserveAspectRatio="xMidYMid meet">
<metadata>
Created by potrace 1.16, written by Peter Selinger 2001-2019
</metadata>
<g transform="translate(0.000000,68.000000) scale(0.100000,-0.100000)"
fill="#000000" stroke="none">
<path d="M595 503 c0 -88 0 -88 -27 -91 -25 -3 -26 -1 -35 60 -7 55 -11 63
-31 66 -19 3 -22 0 -17 -20 18 -81 22 -109 16 -112 -4 -3 -36 -8 -71 -12 -54
-6 -61 -9 -43 -17 15 -7 59 -5 140 6 65 9 160 19 211 23 50 3 92 10 92 14 0
15 -66 20 -119 10 -30 -5 -58 -10 -63 -10 -6 0 -7 30 -3 79 7 76 6 78 -17 84
-12 4 -25 7 -28 7 -3 0 -5 -39 -5 -87z"/>
</g>
</svg>
