<?xml version="1.0" standalone="no"?>
<!DOCTYPE svg PUBLIC "-//W3C//DTD SVG 20010904//EN"
 "http://www.w3.org/TR/2001/REC-SVG-20010904/DTD/svg10.dtd">
<svg version="1.0" xmlns="http://www.w3.org/2000/svg"
 width="96.000000pt" height="68.000000pt" viewBox="0 0 96.000000 68.000000"
 preserveAspectRatio="xMidYMid meet">
<metadata>
Created by potrace 1.16, written by Peter Selinger 2001-2019
</metadata>
<g transform="translate(0.000000,68.000000) scale(0.100000,-0.100000)"
fill="#000000" stroke="none">
<path d="M280 301 l0 -40 -70 -7 c-89 -8 -93 -27 -5 -22 36 1 65 0 65 -5 0
-15 -83 -97 -128 -127 -32 -21 -40 -30 -26 -30 24 0 100 46 137 84 l26 26 3
-77 c2 -61 6 -78 18 -78 12 0 16 17 18 83 l3 82 33 -25 c18 -14 36 -22 39 -18
17 16 4 36 -33 50 -27 11 -40 22 -40 35 0 15 8 18 50 18 28 0 50 4 50 9 0 12
-52 21 -79 14 -19 -5 -22 -2 -20 18 4 29 -7 49 -27 49 -10 0 -14 -12 -14 -39z"/>
</g>
</svg>
