<?xml version="1.0" standalone="no"?>
<!DOCTYPE svg PUBLIC "-//W3C//DTD SVG 20010904//EN"
 "http://www.w3.org/TR/2001/REC-SVG-20010904/DTD/svg10.dtd">
<svg version="1.0" xmlns="http://www.w3.org/2000/svg"
 width="96.000000pt" height="68.000000pt" viewBox="0 0 96.000000 68.000000"
 preserveAspectRatio="xMidYMid meet">
<metadata>
Created by potrace 1.16, written by Peter Selinger 2001-2019
</metadata>
<g transform="translate(0.000000,68.000000) scale(0.100000,-0.100000)"
fill="#000000" stroke="none">
<path d="M634 255 c-6 -14 -82 -65 -98 -65 -3 0 -4 11 0 24 8 35 -2 49 -27 36
-16 -9 -19 -22 -19 -75 0 -76 10 -89 80 -104 64 -14 106 -14 169 0 59 12 77
29 62 56 -6 10 -16 32 -22 48 l-12 30 -10 -38 c-12 -49 -47 -67 -129 -67 -72
0 -111 19 -106 53 2 16 22 27 95 51 50 17 95 34 99 38 7 8 -37 28 -62 28 -8 0
-17 -7 -20 -15z"/>
</g>
</svg>
