<?xml version="1.0" standalone="no"?>
<!DOCTYPE svg PUBLIC "-//W3C//DTD SVG 20010904//EN"
 "http://www.w3.org/TR/2001/REC-SVG-20010904/DTD/svg10.dtd">
<svg version="1.0" xmlns="http://www.w3.org/2000/svg"
 width="96.000000pt" height="68.000000pt" viewBox="0 0 96.000000 68.000000"
 preserveAspectRatio="xMidYMid meet">
<metadata>
Created by potrace 1.16, written by Peter Selinger 2001-2019
</metadata>
<g transform="translate(0.000000,68.000000) scale(0.100000,-0.100000)"
fill="#000000" stroke="none">
<path d="M350 571 c0 -79 4 -76 -103 -87 -37 -3 -70 -10 -73 -15 -10 -17 51
-31 109 -24 l57 6 -17 -43 c-41 -102 -89 -161 -198 -241 -35 -25 -36 -27 -14
-27 48 0 125 46 179 108 l54 61 23 -34 c26 -38 40 -44 50 -19 7 18 -45 76 -60
67 -7 -4 -7 1 -2 13 4 10 17 44 27 75 22 65 7 60 223 80 66 6 122 13 125 16 8
7 -40 43 -57 43 -9 0 -70 -9 -136 -20 -66 -12 -121 -19 -123 -17 -2 1 3 24 11
51 l14 47 -34 15 c-19 8 -39 14 -45 14 -6 0 -10 -28 -10 -69z"/>
<path d="M466 382 c4 -34 1 -88 -6 -125 -17 -92 -43 -116 -200 -186 -22 -10
-20 -11 17 -6 89 11 184 71 209 132 8 18 18 33 22 33 5 0 22 -17 38 -37 45
-57 97 -109 121 -122 25 -13 182 -15 168 -3 -6 5 -39 19 -75 31 -122 43 -254
143 -245 185 2 12 6 50 7 86 l3 65 -32 3 -33 3 6 -59z"/>
<path d="M640 396 c0 -8 -25 -36 -55 -62 -31 -26 -54 -49 -52 -51 5 -5 81 31
132 62 22 14 45 27 50 29 16 7 -26 36 -52 36 -13 0 -23 -6 -23 -14z"/>
</g>
</svg>
