<?xml version="1.0" standalone="no"?>
<!DOCTYPE svg PUBLIC "-//W3C//DTD SVG 20010904//EN"
 "http://www.w3.org/TR/2001/REC-SVG-20010904/DTD/svg10.dtd">
<svg version="1.0" xmlns="http://www.w3.org/2000/svg"
 width="96.000000pt" height="68.000000pt" viewBox="0 0 96.000000 68.000000"
 preserveAspectRatio="xMidYMid meet">
<metadata>
Created by potrace 1.16, written by Peter Selinger 2001-2019
</metadata>
<g transform="translate(0.000000,68.000000) scale(0.100000,-0.100000)"
fill="#000000" stroke="none">
<path d="M460 414 c15 -38 12 -123 -5 -182 -11 -37 -27 -60 -57 -86 -23 -20
-45 -36 -49 -36 -3 0 -31 -11 -60 -25 l-54 -26 48 5 c82 9 197 86 211 141 7
28 21 32 33 11 20 -34 110 -129 135 -142 17 -9 58 -14 110 -14 90 1 89 5 -9
39 -85 30 -138 61 -201 118 l-54 48 11 79 c12 88 9 96 -41 96 -25 0 -27 -2
-18 -26z"/>
<path d="M640 396 c0 -8 -25 -36 -55 -62 -30 -26 -53 -49 -51 -51 5 -5 62 22
131 62 65 37 63 34 41 51 -26 18 -66 18 -66 0z"/>
<path d="M340 317 c0 -22 55 -81 68 -73 20 12 13 33 -19 60 -34 29 -49 33 -49
13z"/>
</g>
</svg>
