<?xml version="1.0" standalone="no"?>
<!DOCTYPE svg PUBLIC "-//W3C//DTD SVG 20010904//EN"
 "http://www.w3.org/TR/2001/REC-SVG-20010904/DTD/svg10.dtd">
<svg version="1.0" xmlns="http://www.w3.org/2000/svg"
 width="90.000000pt" height="92.000000pt" viewBox="0 0 90.000000 92.000000"
 preserveAspectRatio="xMidYMid meet">
<metadata>
Created by potrace 1.16, written by Peter Selinger 2001-2019
</metadata>
<g transform="translate(0.000000,92.000000) scale(0.100000,-0.100000)"
fill="#000000" stroke="none">
<path d="M650 833 c-25 -8 -71 -15 -103 -15 -54 -1 -58 -3 -52 -22 3 -12 9
-67 12 -124 5 -95 16 -130 32 -104 7 12 160 36 169 27 8 -8 5 -400 -3 -434 -5
-21 -9 -23 -52 -16 l-46 7 53 -56 c44 -47 56 -54 68 -43 37 30 41 65 43 422 1
326 0 349 -17 362 -22 16 -46 15 -104 -4z m60 -69 c0 -34 -2 -36 -25 -30 -14
4 -49 0 -77 -9 -68 -20 -68 -20 -68 19 0 33 3 35 43 44 23 6 61 10 85 11 42 1
42 1 42 -35z m2 -88 l4 -34 -56 -6 c-30 -3 -69 -9 -86 -12 -30 -6 -30 -5 -26
30 2 20 8 34 12 31 4 -3 34 1 67 9 81 20 80 20 85 -18z"/>
<path d="M270 793 c-19 -9 -61 -16 -93 -15 -50 0 -57 -2 -51 -17 4 -9 12 -42
18 -74 13 -75 -5 -346 -30 -439 -17 -63 -17 -69 -1 -103 22 -46 34 -44 47 6 9
31 27 269 30 380 0 12 14 18 56 23 32 4 61 2 68 -3 21 -17 33 2 50 79 9 41 22
88 28 104 11 26 9 31 -16 52 -31 27 -56 29 -106 7z m55 -63 c0 -30 -3 -35 -25
-36 -14 -1 -44 -5 -67 -9 l-43 -8 0 35 c0 34 1 35 53 45 76 15 82 13 82 -27z
m-5 -92 c0 -31 -11 -44 -35 -45 -11 0 -37 -3 -57 -8 l-38 -7 0 35 c0 34 2 36
38 40 88 9 92 8 92 -15z"/>
<path d="M387 573 c-3 -2 4 -20 15 -39 l20 -34 -44 -1 c-23 0 -52 -4 -63 -9
-19 -7 -19 -8 6 -18 16 -6 29 -23 36 -45 12 -41 6 -47 -57 -47 -21 0 -42 -5
-45 -10 -13 -20 39 -26 123 -14 48 7 127 16 177 20 l90 6 -25 20 c-20 16 -33
18 -73 13 l-50 -7 21 29 c14 20 18 33 11 40 -7 7 0 12 20 16 33 7 42 26 14 29
-26 2 -39 1 -79 -7 -22 -4 -34 -3 -30 3 11 18 -5 40 -34 50 -16 6 -31 8 -33 5z
m103 -102 c0 -26 -24 -71 -38 -71 -10 0 -27 -3 -40 -6 -21 -6 -22 -4 -17 19 5
19 1 28 -15 40 -22 15 -22 16 11 20 64 7 99 7 99 -2z"/>
<path d="M425 324 c-33 -7 -67 -11 -75 -9 -13 4 -15 -9 -14 -84 1 -48 4 -93 8
-99 4 -6 20 -7 43 -2 84 17 123 19 123 4 0 -18 26 -18 33 0 3 8 7 51 8 97 2
70 -1 84 -16 96 -22 15 -29 15 -110 -3z m75 -45 c0 -17 -4 -28 -10 -24 -5 3
-33 -1 -62 -10 -28 -8 -53 -15 -55 -15 -9 0 -1 50 9 56 15 9 66 22 96 23 18 1
22 -4 22 -30z m10 -73 c0 -19 -6 -24 -37 -29 -21 -4 -53 -9 -70 -13 -31 -6
-33 -5 -33 20 0 22 4 26 33 27 17 1 43 5 57 9 42 13 50 11 50 -14z"/>
</g>
</svg>
