<?xml version="1.0" standalone="no"?>
<!DOCTYPE svg PUBLIC "-//W3C//DTD SVG 20010904//EN"
 "http://www.w3.org/TR/2001/REC-SVG-20010904/DTD/svg10.dtd">
<svg version="1.0" xmlns="http://www.w3.org/2000/svg"
 width="96.000000pt" height="68.000000pt" viewBox="0 0 96.000000 68.000000"
 preserveAspectRatio="xMidYMid meet">
<metadata>
Created by potrace 1.16, written by Peter Selinger 2001-2019
</metadata>
<g transform="translate(0.000000,68.000000) scale(0.100000,-0.100000)"
fill="#000000" stroke="none">
<path d="M310 548 c-19 -5 -55 -8 -78 -5 -41 4 -43 3 -37 -17 3 -11 9 -49 12
-84 l6 -62 87 2 87 2 22 75 c21 71 21 76 5 88 -21 15 -55 15 -104 1z m57 -29
c5 -25 -11 -36 -64 -44 -52 -7 -53 -6 -53 19 0 21 6 26 38 31 20 4 42 8 47 10
17 6 30 -1 32 -16z m-7 -78 c0 -25 -4 -27 -62 -35 -46 -7 -48 -6 -48 18 0 20
6 25 33 29 71 9 77 8 77 -12z"/>
</g>
</svg>
