<?xml version="1.0" standalone="no"?>
<!DOCTYPE svg PUBLIC "-//W3C//DTD SVG 20010904//EN"
 "http://www.w3.org/TR/2001/REC-SVG-20010904/DTD/svg10.dtd">
<svg version="1.0" xmlns="http://www.w3.org/2000/svg"
 width="96.000000pt" height="68.000000pt" viewBox="0 0 96.000000 68.000000"
 preserveAspectRatio="xMidYMid meet">
<metadata>
Created by potrace 1.16, written by Peter Selinger 2001-2019
</metadata>
<g transform="translate(0.000000,68.000000) scale(0.100000,-0.100000)"
fill="#000000" stroke="none">
<path d="M520 200 c23 -23 40 -26 40 -6 0 14 -21 26 -46 26 -10 0 -9 -5 6 -20z"/>
<path d="M386 193 c-6 -22 -2 -100 6 -108 3 -4 9 -1 14 6 5 8 3 10 -6 4 -10
-6 -11 -4 -5 11 11 25 14 94 4 100 -4 2 -10 -4 -13 -13z"/>
<path d="M530 139 c0 -20 4 -29 13 -27 16 6 17 58 0 58 -8 0 -13 -12 -13 -31z"/>
<path d="M488 153 c7 -3 16 -2 19 1 4 3 -2 6 -13 5 -11 0 -14 -3 -6 -6z"/>
<path d="M460 100 c-12 -7 -10 -9 8 -7 12 0 22 5 22 9 0 11 -12 10 -30 -2z"/>
<path d="M530 90 c0 -5 4 -10 9 -10 6 0 13 5 16 10 3 6 -1 10 -9 10 -9 0 -16
-4 -16 -10z"/>
</g>
</svg>
