<?xml version="1.0" standalone="no"?>
<!DOCTYPE svg PUBLIC "-//W3C//DTD SVG 20010904//EN"
 "http://www.w3.org/TR/2001/REC-SVG-20010904/DTD/svg10.dtd">
<svg version="1.0" xmlns="http://www.w3.org/2000/svg"
 width="90.000000pt" height="92.000000pt" viewBox="0 0 90.000000 92.000000"
 preserveAspectRatio="xMidYMid meet">
<metadata>
Created by potrace 1.16, written by Peter Selinger 2001-2019
</metadata>
<g transform="translate(0.000000,92.000000) scale(0.100000,-0.100000)"
fill="#000000" stroke="none">
<path d="M577 893 c-2 -5 -4 -30 -5 -57 -1 -27 -3 -51 -5 -53 -3 -2 -27 -6
-56 -10 -28 -3 -51 -9 -51 -13 0 -13 48 -29 69 -23 24 6 27 -9 12 -51 -7 -18
-15 -23 -30 -19 -14 4 -34 -7 -66 -35 -26 -23 -80 -58 -121 -79 -41 -21 -74
-42 -74 -46 0 -10 52 0 99 19 18 8 37 14 42 14 5 0 9 -28 9 -63 l0 -63 -127
-12 c-71 -7 -143 -12 -160 -12 -43 0 -42 -16 1 -37 32 -15 42 -15 139 1 162
25 144 42 149 -149 2 -103 8 -169 15 -176 8 -8 13 -6 17 7 13 42 26 164 26
245 0 70 3 88 16 93 9 3 83 6 165 6 128 0 149 2 149 16 0 8 -19 23 -42 33 -39
17 -50 17 -128 5 -47 -7 -102 -13 -122 -13 -37 -1 -38 0 -37 37 0 20 4 46 9
57 5 13 3 26 -6 36 -12 14 -7 17 41 33 59 18 72 30 57 49 -7 8 0 28 20 65 l30
52 58 0 c91 0 116 17 60 40 -17 7 -46 10 -65 7 -40 -7 -40 -6 -20 33 14 27 14
30 -11 49 -27 22 -50 27 -57 14z"/>
<path d="M256 851 c-3 -4 4 -27 15 -50 11 -23 17 -46 14 -51 -3 -6 -37 -10
-75 -10 -38 0 -71 -4 -74 -9 -3 -4 6 -19 20 -32 26 -24 24 -25 135 8 11 3 18
-5 25 -27 12 -41 29 -35 30 10 0 31 4 35 37 43 51 12 47 29 -5 25 l-43 -3 -3
43 c-3 35 -8 45 -28 52 -31 12 -41 12 -48 1z"/>
</g>
</svg>
