<?xml version="1.0" standalone="no"?>
<!DOCTYPE svg PUBLIC "-//W3C//DTD SVG 20010904//EN"
 "http://www.w3.org/TR/2001/REC-SVG-20010904/DTD/svg10.dtd">
<svg version="1.0" xmlns="http://www.w3.org/2000/svg"
 width="96.000000pt" height="68.000000pt" viewBox="0 0 96.000000 68.000000"
 preserveAspectRatio="xMidYMid meet">
<metadata>
Created by potrace 1.16, written by Peter Selinger 2001-2019
</metadata>
<g transform="translate(0.000000,68.000000) scale(0.100000,-0.100000)"
fill="#000000" stroke="none">
<path d="M527 536 c6 -69 3 -73 -72 -77 -19 -2 -12 -4 20 -8 l50 -6 3 -41 3
-42 -48 -6 c-106 -15 -119 -19 -98 -26 11 -4 51 -3 89 1 60 8 90 6 75 -4 -2
-1 -29 -23 -59 -48 -30 -25 -88 -65 -129 -89 -41 -24 -69 -46 -63 -48 13 -4
138 54 166 77 18 16 19 14 12 -71 -5 -62 -4 -88 5 -94 6 -4 16 0 21 10 7 12
24 16 74 16 56 0 69 -3 84 -22 18 -22 19 -22 37 -5 15 15 18 34 18 112 0 86
-2 95 -21 106 -16 8 -35 8 -73 0 -29 -6 -62 -11 -74 -11 -21 1 -20 2 9 28 78
69 74 67 177 72 122 6 131 26 11 23 -96 -2 -94 -9 -18 73 24 26 44 51 44 55 0
4 -11 14 -25 23 -24 16 -26 16 -32 -1 -9 -24 -55 -89 -98 -138 l-36 -40 3 50
c2 33 7 49 15 48 7 -2 25 3 40 9 l28 12 -40 5 -39 6 3 49 c3 52 -6 66 -45 66
-20 0 -21 -4 -17 -64z m140 -317 c2 -25 -1 -26 -61 -32 -35 -3 -69 -7 -77 -9
-10 -2 -14 6 -14 27 0 25 5 31 30 36 17 4 50 6 75 6 41 -2 45 -4 47 -28z m1
-80 l-3 -31 -78 -5 -78 -4 3 28 c3 25 8 29 48 34 25 3 60 7 78 7 31 2 33 0 30
-29z"/>
<path d="M215 561 c-2 -5 0 -24 6 -45 6 -20 9 -58 7 -84 -3 -42 -6 -47 -28
-50 -83 -9 -97 -32 -20 -32 l50 0 0 -64 0 -64 -65 -17 c-36 -10 -65 -21 -65
-24 0 -15 36 -36 55 -33 11 3 72 29 135 60 81 39 109 57 94 59 -12 2 -38 -3
-58 -11 l-36 -15 0 58 0 58 42 9 c23 5 43 14 45 20 5 14 -42 27 -68 19 -17 -6
-19 -1 -19 39 0 24 4 56 10 70 6 17 6 27 -2 32 -19 12 -78 22 -83 15z"/>
</g>
</svg>
