<?xml version="1.0" standalone="no"?>
<!DOCTYPE svg PUBLIC "-//W3C//DTD SVG 20010904//EN"
 "http://www.w3.org/TR/2001/REC-SVG-20010904/DTD/svg10.dtd">
<svg version="1.0" xmlns="http://www.w3.org/2000/svg"
 width="96.000000pt" height="68.000000pt" viewBox="0 0 96.000000 68.000000"
 preserveAspectRatio="xMidYMid meet">
<metadata>
Created by potrace 1.16, written by Peter Selinger 2001-2019
</metadata>
<g transform="translate(0.000000,68.000000) scale(0.100000,-0.100000)"
fill="#000000" stroke="none">
<path d="M226 573 c12 -37 9 -353 -3 -425 -10 -57 3 -118 25 -118 28 0 35 36
40 204 l5 174 32 -19 c29 -17 34 -18 45 -4 17 20 -1 42 -44 53 -28 8 -31 12
-28 43 1 19 5 46 8 61 4 22 0 29 -25 42 -48 25 -65 21 -55 -11z"/>
<path d="M553 495 c-1 -53 -5 -99 -8 -104 -3 -5 -36 -12 -73 -16 -37 -3 -78
-8 -92 -11 -23 -5 -23 -6 -6 -16 12 -7 47 -8 93 -4 l74 7 -2 -46 c-2 -25 -7
-49 -13 -52 -5 -4 -36 -5 -69 -4 -54 2 -59 1 -44 -13 17 -17 32 -59 42 -119 5
-29 10 -37 23 -33 9 3 67 10 128 17 99 11 111 14 107 30 -3 10 6 39 20 63 l25
46 -26 19 c-24 16 -34 17 -84 8 -32 -6 -61 -8 -64 -5 -3 4 -2 26 1 51 l7 44
111 7 c62 4 115 11 120 15 4 4 -4 13 -17 21 -20 10 -42 11 -112 2 -48 -7 -90
-10 -92 -7 -3 2 1 31 8 62 26 123 30 109 -40 129 -12 3 -15 -12 -17 -91z m111
-298 c-1 -21 -8 -45 -15 -52 -8 -7 -48 -16 -89 -20 l-76 -7 -10 51 c-10 48 -9
52 10 56 29 7 104 12 146 11 34 -1 35 -2 34 -39z"/>
<path d="M136 381 c-32 -61 -31 -95 1 -99 39 -6 68 93 39 133 -13 18 -15 15
-40 -34z"/>
</g>
</svg>
