<?xml version="1.0" standalone="no"?>
<!DOCTYPE svg PUBLIC "-//W3C//DTD SVG 20010904//EN"
 "http://www.w3.org/TR/2001/REC-SVG-20010904/DTD/svg10.dtd">
<svg version="1.0" xmlns="http://www.w3.org/2000/svg"
 width="96.000000pt" height="68.000000pt" viewBox="0 0 96.000000 68.000000"
 preserveAspectRatio="xMidYMid meet">
<metadata>
Created by potrace 1.16, written by Peter Selinger 2001-2019
</metadata>
<g transform="translate(0.000000,68.000000) scale(0.100000,-0.100000)"
fill="#000000" stroke="none">
<path d="M430 326 c0 -19 -4 -37 -8 -40 -4 -2 -67 -8 -140 -12 -73 -4 -132
-11 -132 -15 0 -24 43 -30 136 -19 53 6 98 9 100 7 9 -9 -71 -65 -151 -105
-84 -43 -80 -53 12 -26 32 9 81 36 118 64 l64 49 3 -97 c3 -83 6 -97 21 -100
15 -3 17 6 17 87 0 50 4 91 8 91 5 0 42 -25 82 -55 69 -52 77 -55 129 -54 31
1 67 4 81 8 24 7 24 8 -10 16 -75 17 -158 49 -217 84 -35 20 -63 39 -63 42 0
11 94 17 187 12 80 -5 93 -4 93 10 0 29 -80 37 -222 21 l-57 -6 -3 34 c-2 25
-8 34 -25 36 -20 3 -23 -1 -23 -32z"/>
</g>
</svg>
