<?xml version="1.0" standalone="no"?>
<!DOCTYPE svg PUBLIC "-//W3C//DTD SVG 20010904//EN"
 "http://www.w3.org/TR/2001/REC-SVG-20010904/DTD/svg10.dtd">
<svg version="1.0" xmlns="http://www.w3.org/2000/svg"
 width="96.000000pt" height="68.000000pt" viewBox="0 0 96.000000 68.000000"
 preserveAspectRatio="xMidYMid meet">
<metadata>
Created by potrace 1.16, written by Peter Selinger 2001-2019
</metadata>
<g transform="translate(0.000000,68.000000) scale(0.100000,-0.100000)"
fill="#000000" stroke="none">
<path d="M530 355 c0 -2 44 -41 97 -85 l97 -82 55 7 c84 10 84 11 -14 43 -38
13 -103 46 -143 73 -66 44 -92 57 -92 44z"/>
<path d="M308 322 c-28 -34 -119 -103 -173 -131 -36 -19 -37 -21 -14 -21 14 0
45 10 70 23 54 27 179 126 179 142 0 22 -40 13 -62 -13z"/>
</g>
</svg>
