<?xml version="1.0" standalone="no"?>
<!DOCTYPE svg PUBLIC "-//W3C//DTD SVG 20010904//EN"
 "http://www.w3.org/TR/2001/REC-SVG-20010904/DTD/svg10.dtd">
<svg version="1.0" xmlns="http://www.w3.org/2000/svg"
 width="90.000000pt" height="92.000000pt" viewBox="0 0 90.000000 92.000000"
 preserveAspectRatio="xMidYMid meet">
<metadata>
Created by potrace 1.16, written by Peter Selinger 2001-2019
</metadata>
<g transform="translate(0.000000,92.000000) scale(0.100000,-0.100000)"
fill="#000000" stroke="none">
<path d="M166 842 c-3 -5 2 -28 11 -53 13 -37 14 -80 9 -269 -3 -124 -12 -259
-19 -300 -14 -75 -14 -81 5 -132 14 -37 26 -35 44 7 11 27 14 86 14 262 l0
228 40 -45 c33 -37 41 -42 50 -30 23 34 6 63 -54 91 -29 13 -30 17 -27 72 1
31 7 71 12 89 10 36 1 51 -42 74 -32 16 -36 17 -43 6z"/>
<path d="M470 795 c0 -9 64 -110 83 -132 11 -13 18 -23 16 -23 -20 0 -233 -31
-237 -34 -2 -3 10 -11 26 -20 25 -13 39 -13 92 -4 51 10 63 9 70 -3 19 -30 23
-132 11 -310 -13 -186 -9 -229 20 -229 21 0 29 59 29 227 l0 176 69 -66 c70
-68 94 -80 105 -51 19 50 -20 93 -112 121 -31 9 -59 18 -61 20 -2 1 2 24 8 50
12 44 11 49 -8 65 -21 16 -19 17 46 23 222 20 231 22 178 54 -20 13 -36 13
-107 2 -46 -7 -92 -15 -103 -18 -16 -4 -18 -3 -7 8 20 21 15 73 -10 96 -37 33
-108 65 -108 48z"/>
<path d="M57 527 c-31 -71 -34 -99 -11 -121 20 -20 21 -20 39 7 22 35 35 115
23 148 -5 16 -13 29 -16 29 -4 0 -19 -29 -35 -63z"/>
</g>
</svg>
