<?xml version="1.0" standalone="no"?>
<!DOCTYPE svg PUBLIC "-//W3C//DTD SVG 20010904//EN"
 "http://www.w3.org/TR/2001/REC-SVG-20010904/DTD/svg10.dtd">
<svg version="1.0" xmlns="http://www.w3.org/2000/svg"
 width="90.000000pt" height="92.000000pt" viewBox="0 0 90.000000 92.000000"
 preserveAspectRatio="xMidYMid meet">
<metadata>
Created by potrace 1.16, written by Peter Selinger 2001-2019
</metadata>
<g transform="translate(0.000000,92.000000) scale(0.100000,-0.100000)"
fill="#000000" stroke="none">
<path d="M509 819 c11 -29 20 -54 18 -54 -1 -1 -38 -7 -81 -13 -68 -9 -82 -8
-91 4 -8 12 -14 4 -29 -40 -19 -55 -16 -91 6 -84 6 2 17 19 23 38 6 18 20 36
31 40 28 11 316 52 321 46 3 -3 1 -19 -5 -35 -6 -17 -9 -31 -8 -31 15 0 116
54 116 61 0 6 -20 19 -45 30 -41 18 -52 19 -103 9 -31 -6 -64 -13 -73 -16 -12
-3 -15 2 -11 24 4 32 -18 57 -61 67 l-28 7 20 -53z"/>
<path d="M169 833 c-1 -4 0 -12 1 -18 10 -36 14 -225 5 -229 -5 -2 -43 -9 -84
-16 -66 -12 -71 -15 -55 -27 14 -10 35 -12 77 -8 31 4 57 4 57 0 0 -22 -86
-168 -126 -213 -25 -28 -44 -57 -42 -64 6 -18 96 69 141 137 l39 60 -6 -115
c-4 -63 -11 -136 -17 -163 -6 -36 -5 -57 6 -83 28 -69 45 -35 45 96 0 47 3
129 7 183 l6 98 29 -32 c20 -22 33 -28 40 -21 19 19 4 47 -32 58 -30 10 -35
16 -38 48 -2 27 1 36 12 36 8 0 27 5 43 11 27 10 28 11 8 25 -11 9 -30 12 -43
9 -23 -6 -23 -5 -15 72 11 125 11 125 -24 146 -18 10 -34 15 -34 10z"/>
<path d="M469 681 c21 -39 71 -54 71 -22 0 23 -4 26 -48 36 -32 7 -33 6 -23
-14z"/>
<path d="M590 693 c0 -5 17 -22 37 -36 28 -20 40 -24 50 -15 15 12 17 34 5 42
-18 11 -92 18 -92 9z"/>
<path d="M367 604 c-20 -42 -22 -74 -4 -74 26 0 51 90 29 104 -5 3 -16 -11
-25 -30z"/>
<path d="M430 632 c0 -24 54 -72 91 -82 44 -12 102 -5 137 16 31 20 28 27 -24
47 -44 16 -45 16 -39 -3 5 -15 0 -20 -29 -25 -42 -8 -67 -1 -106 32 -17 13
-30 20 -30 15z"/>
<path d="M667 524 c-7 -8 -291 -42 -304 -37 -14 6 -18 -13 -4 -21 5 -3 12 -22
16 -42 8 -45 -3 -54 -67 -54 -56 0 -69 -14 -32 -33 23 -12 34 -12 71 -1 74 22
271 46 396 47 85 1 117 5 117 14 0 24 -39 34 -102 27 -65 -7 -67 -5 -30 39 14
15 13 19 -2 36 -17 18 -51 33 -59 25z m-10 -70 c-7 -44 -3 -40 -51 -48 -35 -7
-38 -6 -31 11 4 10 10 30 13 46 4 23 9 27 39 27 35 0 36 0 30 -36z m-102 16
c13 -22 -6 -68 -30 -72 -21 -4 -24 -1 -27 33 -2 22 1 41 7 43 19 8 44 6 50 -4z
m-82 -47 c6 -28 4 -33 -12 -33 -11 0 -26 -3 -35 -6 -13 -5 -16 2 -16 34 0 34
3 41 23 44 28 5 33 0 40 -39z"/>
<path d="M505 315 c-77 -13 -151 -25 -165 -27 -25 -3 -25 -3 -3 -16 16 -9 40
-9 103 0 99 14 101 12 98 -87 l-3 -70 -37 1 -37 1 37 -42 c20 -23 42 -40 49
-38 6 3 19 20 27 38 20 42 23 204 4 206 -23 3 86 17 135 18 49 1 60 13 28 31
-27 14 -74 11 -236 -15z"/>
</g>
</svg>
