<?xml version="1.0" standalone="no"?>
<!DOCTYPE svg PUBLIC "-//W3C//DTD SVG 20010904//EN"
 "http://www.w3.org/TR/2001/REC-SVG-20010904/DTD/svg10.dtd">
<svg version="1.0" xmlns="http://www.w3.org/2000/svg"
 width="96.000000pt" height="68.000000pt" viewBox="0 0 96.000000 68.000000"
 preserveAspectRatio="xMidYMid meet">
<metadata>
Created by potrace 1.16, written by Peter Selinger 2001-2019
</metadata>
<g transform="translate(0.000000,68.000000) scale(0.100000,-0.100000)"
fill="#000000" stroke="none">
<path d="M391 437 c-5 -13 -33 -45 -61 -70 -56 -50 -53 -59 10 -27 22 11 59
20 84 20 24 0 80 5 122 11 71 10 79 9 92 -8 20 -27 12 -207 -12 -252 -17 -32
-20 -33 -62 -27 l-45 6 32 -40 c45 -55 69 -52 117 17 17 23 23 51 27 110 3 43
7 106 10 140 4 61 4 63 -26 78 -27 15 -39 14 -144 -5 -145 -25 -147 -25 -105
10 34 28 35 29 15 44 -28 22 -44 20 -54 -7z"/>
</g>
</svg>
