<?xml version="1.0" standalone="no"?>
<!DOCTYPE svg PUBLIC "-//W3C//DTD SVG 20010904//EN"
 "http://www.w3.org/TR/2001/REC-SVG-20010904/DTD/svg10.dtd">
<svg version="1.0" xmlns="http://www.w3.org/2000/svg"
 width="96.000000pt" height="68.000000pt" viewBox="0 0 96.000000 68.000000"
 preserveAspectRatio="xMidYMid meet">
<metadata>
Created by potrace 1.16, written by Peter Selinger 2001-2019
</metadata>
<g transform="translate(0.000000,68.000000) scale(0.100000,-0.100000)"
fill="#000000" stroke="none">
<path d="M431 505 c-33 -27 -49 -33 -68 -29 -23 6 -24 5 -17 -17 22 -59 -1
-221 -40 -297 -23 -45 4 -33 37 16 31 45 44 94 53 192 4 41 11 80 16 87 5 6
31 19 59 29 49 18 62 37 33 48 -23 9 -25 8 -73 -29z"/>
</g>
</svg>
