<?xml version="1.0" standalone="no"?>
<!DOCTYPE svg PUBLIC "-//W3C//DTD SVG 20010904//EN"
 "http://www.w3.org/TR/2001/REC-SVG-20010904/DTD/svg10.dtd">
<svg version="1.0" xmlns="http://www.w3.org/2000/svg"
 width="96.000000pt" height="68.000000pt" viewBox="0 0 96.000000 68.000000"
 preserveAspectRatio="xMidYMid meet">
<metadata>
Created by potrace 1.16, written by Peter Selinger 2001-2019
</metadata>
<g transform="translate(0.000000,68.000000) scale(0.100000,-0.100000)"
fill="#000000" stroke="none">
<path d="M317 614 c-3 -3 -2 -17 4 -31 14 -39 11 -53 -13 -53 -34 0 -68 -11
-68 -21 0 -5 20 -9 45 -9 47 0 62 -16 23 -24 -13 -3 -58 -8 -101 -11 -53 -5
-77 -11 -74 -18 4 -14 90 -16 155 -4 33 6 42 4 42 -7 0 -9 -17 -16 -50 -21
-27 -4 -50 -11 -50 -16 0 -5 23 -9 50 -9 65 0 70 -24 8 -38 l-43 -10 48 -1
c40 -1 48 -4 45 -18 -3 -15 -19 -20 -91 -27 -48 -4 -87 -12 -87 -17 0 -12 0
-12 193 8 92 9 167 21 167 26 0 6 -27 7 -69 3 -55 -6 -70 -4 -74 8 -8 20 1 26
37 26 17 0 38 5 46 10 11 7 2 10 -32 10 -34 0 -48 4 -48 14 0 14 41 26 87 26
18 0 23 4 20 14 -9 24 16 45 58 48 50 4 53 22 4 26 -31 3 -36 6 -32 22 7 26
-37 43 -85 34 -32 -6 -35 -5 -29 15 3 14 0 24 -11 30 -26 13 -68 21 -75 15z
m133 -108 c0 -8 -13 -16 -30 -18 -34 -5 -41 -2 -33 18 7 19 63 19 63 0z m-10
-56 c0 -5 -4 -10 -9 -10 -5 0 -16 -3 -25 -6 -11 -4 -16 -1 -16 10 0 10 9 16
25 16 14 0 25 -4 25 -10z"/>
<path d="M725 345 c0 -268 -1 -275 -54 -257 -41 15 -38 5 15 -42 43 -38 45
-38 64 -21 18 17 20 32 21 174 0 147 10 283 25 342 5 23 2 28 -27 38 -17 6
-35 11 -38 11 -3 0 -6 -110 -6 -245z"/>
<path d="M617 453 c-3 -5 -2 -55 2 -112 10 -163 41 -136 41 35 0 56 -3 73 -16
78 -20 8 -22 8 -27 -1z"/>
<path d="M395 255 c-33 -8 -93 -14 -134 -15 l-75 0 22 -20 c11 -11 24 -37 28
-57 8 -48 22 -67 39 -53 7 5 55 11 108 12 l97 3 25 59 c14 33 22 63 18 67 -16
16 -68 18 -128 4z m75 -22 c-1 -19 -18 -28 -52 -28 -40 0 -54 8 -43 24 7 12
95 15 95 4z m-135 -23 c0 -10 -13 -16 -42 -18 -32 -2 -43 1 -43 11 0 22 12 28
50 25 23 -2 35 -8 35 -18z m123 -37 c-4 -24 -88 -32 -88 -9 0 16 18 23 63 25
22 1 28 -3 25 -16z m-120 -15 c3 -15 -4 -18 -32 -18 -34 0 -47 15 -29 34 13
13 58 1 61 -16z"/>
<path d="M355 83 c-187 -20 -200 -22 -186 -36 8 -8 46 -7 143 2 226 20 237 22
231 37 -6 16 -13 16 -188 -3z"/>
</g>
</svg>
