<?xml version="1.0" standalone="no"?>
<!DOCTYPE svg PUBLIC "-//W3C//DTD SVG 20010904//EN"
 "http://www.w3.org/TR/2001/REC-SVG-20010904/DTD/svg10.dtd">
<svg version="1.0" xmlns="http://www.w3.org/2000/svg"
 width="90.000000pt" height="92.000000pt" viewBox="0 0 90.000000 92.000000"
 preserveAspectRatio="xMidYMid meet">
<metadata>
Created by potrace 1.16, written by Peter Selinger 2001-2019
</metadata>
<g transform="translate(0.000000,92.000000) scale(0.100000,-0.100000)"
fill="#000000" stroke="none">
<path d="M384 836 c-3 -8 0 -32 7 -53 14 -41 16 -462 3 -557 l-6 -49 -59 7
-59 6 66 -63 c36 -34 70 -63 75 -65 4 -2 16 12 25 30 15 28 17 58 15 203 -2
144 0 168 12 155 7 -8 46 -54 86 -103 103 -122 122 -137 181 -137 56 0 150 18
150 29 0 4 -24 15 -52 26 -85 30 -200 90 -253 133 -73 59 -109 92 -104 95 2 2
27 16 54 32 28 15 78 47 112 71 34 24 67 44 73 44 20 0 5 24 -30 48 -45 30
-53 28 -73 -15 -16 -37 -132 -163 -149 -163 -12 0 2 188 18 235 18 52 18 51
-13 73 -42 29 -72 36 -79 18z"/>
<path d="M220 575 c-30 -7 -76 -16 -103 -20 -52 -7 -60 -20 -23 -36 19 -9 41
-8 96 6 39 10 73 15 76 12 22 -22 -89 -182 -179 -259 -81 -68 -80 -85 3 -43
72 37 131 94 189 184 27 42 56 83 65 90 23 19 20 47 -6 65 -26 18 -43 19 -118
1z"/>
</g>
</svg>
