<?xml version="1.0" standalone="no"?>
<!DOCTYPE svg PUBLIC "-//W3C//DTD SVG 20010904//EN"
 "http://www.w3.org/TR/2001/REC-SVG-20010904/DTD/svg10.dtd">
<svg version="1.0" xmlns="http://www.w3.org/2000/svg"
 width="96.000000pt" height="68.000000pt" viewBox="0 0 96.000000 68.000000"
 preserveAspectRatio="xMidYMid meet">
<metadata>
Created by potrace 1.16, written by Peter Selinger 2001-2019
</metadata>
<g transform="translate(0.000000,68.000000) scale(0.100000,-0.100000)"
fill="#000000" stroke="none">
<path d="M320 558 c0 -41 -57 -123 -140 -201 -45 -42 -79 -77 -75 -77 13 0 83
40 119 69 30 24 42 28 48 19 9 -14 1 -149 -13 -215 -10 -48 2 -93 26 -93 20 0
23 20 30 187 4 93 2 144 -5 148 -17 10 -12 20 41 86 l51 64 -22 17 c-32 26
-60 23 -60 -4z"/>
</g>
</svg>
