<?xml version="1.0" standalone="no"?>
<!DOCTYPE svg PUBLIC "-//W3C//DTD SVG 20010904//EN"
 "http://www.w3.org/TR/2001/REC-SVG-20010904/DTD/svg10.dtd">
<svg version="1.0" xmlns="http://www.w3.org/2000/svg"
 width="96.000000pt" height="68.000000pt" viewBox="0 0 96.000000 68.000000"
 preserveAspectRatio="xMidYMid meet">
<metadata>
Created by potrace 1.16, written by Peter Selinger 2001-2019
</metadata>
<g transform="translate(0.000000,68.000000) scale(0.100000,-0.100000)"
fill="#000000" stroke="none">
<path d="M568 476 l4 -114 -78 -7 c-44 -3 -90 -10 -104 -15 -48 -15 8 -23 96
-14 l84 9 0 -145 c0 -108 4 -151 14 -165 12 -17 14 -16 24 16 6 19 14 96 18
172 l7 137 96 0 c106 0 139 10 101 30 -16 9 -49 10 -113 5 l-90 -7 6 96 c6 87
5 96 -13 106 -10 5 -27 10 -37 10 -18 0 -19 -8 -15 -114z"/>
<path d="M311 541 c-15 -53 -76 -131 -156 -202 -97 -87 -35 -75 79 14 l39 31
-6 -104 c-4 -58 -10 -126 -13 -151 -5 -36 -2 -49 11 -63 16 -16 19 -16 34 -1
23 23 34 302 13 327 -13 15 -9 24 37 82 28 35 51 69 51 75 0 13 -33 31 -58 31
-13 0 -22 -11 -31 -39z"/>
</g>
</svg>
