<?xml version="1.0" standalone="no"?>
<!DOCTYPE svg PUBLIC "-//W3C//DTD SVG 20010904//EN"
 "http://www.w3.org/TR/2001/REC-SVG-20010904/DTD/svg10.dtd">
<svg version="1.0" xmlns="http://www.w3.org/2000/svg"
 width="96.000000pt" height="68.000000pt" viewBox="0 0 96.000000 68.000000"
 preserveAspectRatio="xMidYMid meet">
<metadata>
Created by potrace 1.16, written by Peter Selinger 2001-2019
</metadata>
<g transform="translate(0.000000,68.000000) scale(0.100000,-0.100000)"
fill="#000000" stroke="none">
<path d="M502 533 c3 -25 -1 -28 -37 -35 -22 -4 -57 -7 -77 -7 -20 -1 -40 -6
-44 -12 -4 -7 14 -10 60 -7 36 1 66 0 66 -4 0 -10 -57 -56 -106 -84 -25 -15
-43 -28 -41 -30 9 -9 94 29 129 56 20 17 39 30 42 30 3 0 6 -18 6 -41 0 -33 3
-40 18 -37 12 2 18 15 20 46 3 38 5 42 24 36 11 -3 41 -19 66 -35 55 -35 82
-37 82 -8 0 23 -39 43 -120 60 -27 6 -50 14 -50 18 0 5 36 11 81 14 79 5 99
11 86 23 -9 10 -53 10 -114 1 -52 -8 -53 -7 -53 18 0 19 -5 25 -21 25 -16 0
-20 -5 -17 -27z"/>
</g>
</svg>
