<?xml version="1.0" standalone="no"?>
<!DOCTYPE svg PUBLIC "-//W3C//DTD SVG 20010904//EN"
 "http://www.w3.org/TR/2001/REC-SVG-20010904/DTD/svg10.dtd">
<svg version="1.0" xmlns="http://www.w3.org/2000/svg"
 width="96.000000pt" height="68.000000pt" viewBox="0 0 96.000000 68.000000"
 preserveAspectRatio="xMidYMid meet">
<metadata>
Created by potrace 1.16, written by Peter Selinger 2001-2019
</metadata>
<g transform="translate(0.000000,68.000000) scale(0.100000,-0.100000)"
fill="#000000" stroke="none">
<path d="M600 199 c-137 -19 -125 -16 -112 -31 5 -7 17 -39 26 -71 13 -46 20
-56 30 -48 7 6 54 14 105 18 85 6 91 7 91 28 0 12 9 34 21 49 47 60 -4 78
-161 55z m98 -56 l-3 -48 -69 -3 c-38 -2 -72 1 -76 5 -5 4 -11 22 -15 40 -6
31 -6 31 47 41 29 5 68 10 86 11 l33 1 -3 -47z"/>
</g>
</svg>
