<?xml version="1.0" standalone="no"?>
<!DOCTYPE svg PUBLIC "-//W3C//DTD SVG 20010904//EN"
 "http://www.w3.org/TR/2001/REC-SVG-20010904/DTD/svg10.dtd">
<svg version="1.0" xmlns="http://www.w3.org/2000/svg"
 width="90.000000pt" height="92.000000pt" viewBox="0 0 90.000000 92.000000"
 preserveAspectRatio="xMidYMid meet">
<metadata>
Created by potrace 1.16, written by Peter Selinger 2001-2019
</metadata>
<g transform="translate(0.000000,92.000000) scale(0.100000,-0.100000)"
fill="#000000" stroke="none">
<path d="M460 834 c0 -5 13 -32 29 -61 l29 -52 -29 -6 c-15 -4 -49 -3 -75 1
-44 6 -47 5 -39 -12 27 -66 30 -426 3 -532 -12 -48 2 -96 26 -90 18 4 159 138
153 144 -3 3 -28 -6 -56 -20 -28 -14 -56 -26 -62 -26 -9 0 -10 34 -6 137 4 75
9 138 11 141 2 2 37 8 77 13 63 8 73 7 85 -9 21 -28 39 1 68 112 15 55 31 105
37 112 7 9 2 18 -17 33 -36 29 -67 35 -104 23 -30 -11 -30 -10 -30 23 0 25 -6
39 -22 49 -29 19 -78 31 -78 20z m168 -148 c2 -10 1 -29 -3 -43 -5 -20 -10
-24 -29 -19 -12 3 -38 1 -57 -3 -94 -24 -89 -26 -89 18 0 37 2 40 33 46 17 3
52 10 77 14 55 11 64 9 68 -13z m-14 -133 c-9 -50 -11 -53 -35 -44 -12 4 -45
3 -75 -3 -30 -5 -56 -7 -58 -5 -2 2 -1 18 1 35 5 29 9 32 61 41 32 6 70 11 85
12 27 1 28 0 21 -36z"/>
<path d="M225 739 c-27 -10 -73 -18 -102 -19 l-52 0 13 -32 c8 -18 17 -55 20
-83 11 -81 13 -85 46 -78 37 7 39 -2 42 -163 l3 -121 -38 -10 -38 -11 2 102
c1 56 -1 108 -5 114 -11 18 -60 16 -52 -3 3 -8 8 -63 12 -122 l7 -106 -41 6
c-36 4 -42 3 -42 -13 0 -18 48 -60 68 -60 6 0 26 9 44 19 18 11 68 34 112 51
113 45 140 60 128 72 -7 7 -25 5 -58 -6 -26 -9 -49 -16 -51 -16 -2 0 -3 29 -3
64 l0 64 41 7 c38 7 60 27 45 42 -4 4 -25 2 -47 -4 l-40 -10 3 58 c3 55 5 59
28 59 31 0 56 15 42 24 -11 7 20 112 38 130 18 18 11 35 -20 51 -35 18 -40 18
-105 -6z m42 -95 c-3 -31 -8 -58 -10 -61 -3 -2 -29 -7 -59 -10 l-55 -5 -2 60
-2 61 33 4 c18 2 48 5 67 5 l34 2 -6 -56z"/>
<path d="M657 407 c-14 -23 -34 -50 -46 -61 -20 -18 -21 -18 -64 29 -34 38
-48 47 -63 41 -18 -7 -17 -9 9 -28 15 -11 57 -62 93 -114 99 -143 122 -164
175 -164 48 0 115 16 123 29 3 5 -27 19 -66 32 -75 24 -180 88 -204 125 -13
19 -10 22 61 57 68 34 74 40 65 57 -9 17 -40 40 -53 40 -3 0 -16 -19 -30 -43z"/>
</g>
</svg>
