<?xml version="1.0" standalone="no"?>
<!DOCTYPE svg PUBLIC "-//W3C//DTD SVG 20010904//EN"
 "http://www.w3.org/TR/2001/REC-SVG-20010904/DTD/svg10.dtd">
<svg version="1.0" xmlns="http://www.w3.org/2000/svg"
 width="96.000000pt" height="68.000000pt" viewBox="0 0 96.000000 68.000000"
 preserveAspectRatio="xMidYMid meet">
<metadata>
Created by potrace 1.16, written by Peter Selinger 2001-2019
</metadata>
<g transform="translate(0.000000,68.000000) scale(0.100000,-0.100000)"
fill="#000000" stroke="none">
<path d="M440 218 c0 -71 -4 -123 -10 -123 -9 0 -5 -37 5 -45 17 -14 31 6 16
23 -7 9 -5 13 8 13 11 0 17 -6 14 -13 -8 -20 1 -15 33 18 23 26 25 29 7 20
-45 -23 -49 -17 -48 82 0 50 5 95 10 99 6 4 0 8 -12 8 -22 0 -23 -4 -23 -82z"/>
<path d="M683 288 c-19 -25 -27 -41 -15 -34 5 3 12 0 15 -6 3 -9 10 -7 22 7 9
11 13 13 9 5 -6 -12 -4 -13 7 -2 10 9 10 15 1 24 -7 7 -12 8 -12 3 0 -6 -4 -4
-9 3 -6 11 -10 11 -18 0z"/>
<path d="M580 215 c38 -39 54 -47 24 -13 -34 40 -42 48 -50 48 -4 0 7 -16 26
-35z"/>
<path d="M645 230 c-3 -6 1 -7 9 -4 18 7 21 14 7 14 -6 0 -13 -4 -16 -10z"/>
<path d="M625 170 c-4 -6 -1 -9 7 -8 7 2 12 -3 10 -11 -2 -8 3 -11 12 -8 9 4
13 1 10 -6 -8 -21 52 -70 83 -70 69 2 142 23 82 23 -13 0 -43 9 -66 20 -25 11
-45 15 -48 9 -4 -5 -12 -9 -18 -9 -8 0 -8 3 1 9 14 9 11 12 -40 44 -17 11 -29
13 -33 7z"/>
</g>
</svg>
