<?xml version="1.0" standalone="no"?>
<!DOCTYPE svg PUBLIC "-//W3C//DTD SVG 20010904//EN"
 "http://www.w3.org/TR/2001/REC-SVG-20010904/DTD/svg10.dtd">
<svg version="1.0" xmlns="http://www.w3.org/2000/svg"
 width="96.000000pt" height="68.000000pt" viewBox="0 0 96.000000 68.000000"
 preserveAspectRatio="xMidYMid meet">
<metadata>
Created by potrace 1.16, written by Peter Selinger 2001-2019
</metadata>
<g transform="translate(0.000000,68.000000) scale(0.100000,-0.100000)"
fill="#000000" stroke="none">
<path d="M584 533 c-14 -42 -41 -91 -74 -133 -55 -68 -57 -74 -24 -57 16 9 49
36 74 61 41 43 47 46 97 46 29 0 53 -4 53 -10 0 -15 -72 -113 -126 -172 -27
-30 -82 -80 -121 -112 -40 -32 -73 -60 -73 -62 0 -3 24 8 53 22 96 49 191 134
278 249 12 17 36 45 53 63 21 22 27 35 19 43 -14 14 -67 15 -125 2 -54 -12
-65 -7 -42 18 12 14 13 22 4 38 -13 26 -39 27 -46 4z"/>
</g>
</svg>
