<?xml version="1.0" standalone="no"?>
<!DOCTYPE svg PUBLIC "-//W3C//DTD SVG 20010904//EN"
 "http://www.w3.org/TR/2001/REC-SVG-20010904/DTD/svg10.dtd">
<svg version="1.0" xmlns="http://www.w3.org/2000/svg"
 width="96.000000pt" height="68.000000pt" viewBox="0 0 96.000000 68.000000"
 preserveAspectRatio="xMidYMid meet">
<metadata>
Created by potrace 1.16, written by Peter Selinger 2001-2019
</metadata>
<g transform="translate(0.000000,68.000000) scale(0.100000,-0.100000)"
fill="#000000" stroke="none">
<path d="M300 542 c0 -48 -60 -142 -153 -239 -53 -56 -35 -55 42 2 59 44 84
49 103 21 21 -30 8 -45 -47 -51 -66 -9 -63 -28 4 -23 l46 3 3 -61 3 -61 -32
-7 c-17 -3 -54 -6 -81 -6 -54 0 -61 -14 -17 -38 21 -13 37 -10 147 28 67 23
122 47 122 52 0 6 -6 8 -14 5 -8 -3 -31 -9 -50 -13 l-36 -6 0 60 0 61 45 7
c52 7 51 24 -1 24 -32 0 -35 2 -32 27 2 21 10 29 37 36 23 6 31 11 23 19 -7 7
-31 5 -78 -5 -38 -9 -70 -14 -72 -12 -5 4 77 125 84 125 4 0 19 -11 36 -25 34
-29 44 -31 52 -10 6 17 -17 43 -48 51 -12 3 -26 15 -31 27 -13 29 -55 36 -55
9z"/>
<path d="M391 219 c-6 -18 -11 -34 -11 -35 0 -9 17 -2 40 15 20 16 22 21 11
35 -19 23 -28 20 -40 -15z"/>
<path d="M190 211 c0 -12 45 -51 58 -51 16 0 15 25 0 37 -17 13 -58 23 -58 14z"/>
</g>
</svg>
