<?xml version="1.0" standalone="no"?>
<!DOCTYPE svg PUBLIC "-//W3C//DTD SVG 20010904//EN"
 "http://www.w3.org/TR/2001/REC-SVG-20010904/DTD/svg10.dtd">
<svg version="1.0" xmlns="http://www.w3.org/2000/svg"
 width="96.000000pt" height="68.000000pt" viewBox="0 0 96.000000 68.000000"
 preserveAspectRatio="xMidYMid meet">
<metadata>
Created by potrace 1.16, written by Peter Selinger 2001-2019
</metadata>
<g transform="translate(0.000000,68.000000) scale(0.100000,-0.100000)"
fill="#000000" stroke="none">
<path d="M370 599 c0 -9 11 -26 25 -37 l25 -20 -112 -8 c-70 -6 -113 -13 -115
-21 -3 -8 11 -13 39 -15 39 -3 43 -6 46 -32 l4 -29 155 6 c85 3 157 8 161 11
3 4 1 11 -5 17 -8 8 -25 8 -63 0 -28 -6 -89 -11 -135 -11 -76 0 -85 2 -85 18
0 17 18 21 162 36 89 9 164 19 167 21 9 10 -17 27 -40 28 -13 0 -52 -3 -86 -7
-59 -7 -63 -7 -63 12 0 24 -16 38 -52 44 -22 4 -28 1 -28 -13z"/>
<path d="M470 415 c-30 -7 -79 -14 -107 -14 -58 -1 -61 -5 -42 -61 12 -32 12
-32 63 -26 28 3 79 6 114 6 49 0 62 3 62 15 0 9 8 27 17 42 16 24 16 26 -2 39
-22 16 -30 16 -105 -1z m50 -39 c0 -21 -6 -26 -42 -31 -99 -14 -123 -12 -126
12 -3 19 3 22 55 28 32 4 63 8 68 10 30 10 45 4 45 -19z"/>
<path d="M405 281 c7 -31 6 -31 -35 -31 -36 0 -41 -2 -35 -17 4 -10 10 -31 13
-46 4 -25 8 -27 33 -22 28 6 29 5 29 -29 0 -35 -1 -36 -41 -36 -36 0 -40 -2
-29 -15 17 -20 35 -19 99 6 38 14 57 17 64 10 15 -15 27 -14 27 2 0 17 -32 47
-49 47 -8 0 -11 -6 -7 -15 4 -10 -1 -15 -14 -15 -14 0 -20 7 -20 24 0 19 7 25
35 30 19 4 35 12 35 18 0 6 8 20 17 31 17 18 17 19 -1 32 -11 8 -30 12 -46 8
-24 -4 -29 -2 -32 18 -2 16 -11 25 -26 27 -22 3 -23 1 -17 -27z m5 -76 c0 -16
-5 -22 -17 -21 -22 3 -30 36 -12 47 18 11 29 2 29 -26z m74 26 c9 -14 -4 -41
-20 -41 -8 0 -14 4 -14 9 0 5 -3 16 -6 25 -4 11 0 16 14 16 12 0 23 -4 26 -9z"/>
<path d="M600 295 c-56 -10 -69 -15 -52 -20 23 -8 32 -55 10 -55 -9 0 -9 -3 0
-12 16 -16 15 -38 -3 -92 -16 -47 -12 -76 11 -76 13 0 28 42 39 113 5 31 10
37 30 37 33 0 32 18 -1 26 -20 5 -24 12 -22 33 2 20 9 27 31 29 l27 3 -2 -88
c-3 -130 33 -180 123 -171 31 3 34 6 32 32 -1 16 -5 37 -9 45 -5 13 -8 10 -13
-9 -9 -34 -52 -39 -82 -9 -19 19 -21 29 -17 83 3 34 13 76 22 94 16 32 16 32
-9 42 -15 6 -29 9 -33 9 -4 -1 -41 -8 -82 -14z"/>
<path d="M155 205 c0 -74 -4 -98 -22 -132 -13 -24 -19 -43 -15 -43 13 0 47 41
60 73 10 23 17 27 52 27 40 0 41 -1 38 -32 -2 -24 -9 -34 -26 -38 l-24 -5 26
-24 c25 -23 28 -24 43 -8 14 14 17 39 17 144 l1 128 -75 0 -75 0 0 -90z m113
48 c-2 -22 -10 -29 -36 -34 -37 -8 -45 0 -36 36 5 21 12 25 41 25 31 0 34 -2
31 -27z m2 -73 c0 -11 -4 -20 -9 -20 -5 0 -23 -3 -40 -6 -26 -6 -31 -4 -31 13
0 27 8 33 47 33 26 0 33 -4 33 -20z"/>
</g>
</svg>
