<?xml version="1.0" standalone="no"?>
<!DOCTYPE svg PUBLIC "-//W3C//DTD SVG 20010904//EN"
 "http://www.w3.org/TR/2001/REC-SVG-20010904/DTD/svg10.dtd">
<svg version="1.0" xmlns="http://www.w3.org/2000/svg"
 width="90.000000pt" height="92.000000pt" viewBox="0 0 90.000000 92.000000"
 preserveAspectRatio="xMidYMid meet">
<metadata>
Created by potrace 1.16, written by Peter Selinger 2001-2019
</metadata>
<g transform="translate(0.000000,92.000000) scale(0.100000,-0.100000)"
fill="#000000" stroke="none">
<path d="M375 839 c3 -19 7 -57 9 -85 l3 -52 -81 -10 c-45 -6 -93 -8 -108 -5
-33 6 -34 1 -9 -35 11 -15 25 -58 31 -97 12 -69 24 -95 41 -95 5 0 9 6 9 14 0
10 16 15 53 18 28 2 54 3 56 1 2 -1 4 -29 5 -62 1 -54 9 -81 21 -70 2 3 10 35
17 72 14 76 7 71 141 83 69 6 77 8 64 21 -13 13 -11 20 10 61 14 26 32 55 40
64 18 20 11 33 -29 54 -28 14 -43 15 -120 4 -49 -6 -92 -9 -95 -6 -4 3 -2 32
4 64 12 64 7 76 -40 88 -28 6 -28 6 -22 -27z m209 -157 c2 -4 -1 -32 -8 -62
-13 -59 -5 -54 -113 -74 l-33 -5 0 69 c0 67 1 69 28 73 49 7 121 7 126 -1z
m-204 -82 l0 -70 -54 0 -54 0 -7 38 c-3 20 -9 47 -12 59 -4 19 1 23 39 31 89
20 88 21 88 -58z"/>
<path d="M580 391 c0 -11 95 -93 128 -110 49 -26 70 14 32 61 -25 33 -160 74
-160 49z"/>
<path d="M132 314 c-7 -16 -25 -53 -42 -83 -30 -54 -32 -86 -6 -104 19 -13 63
48 76 105 10 46 10 59 -2 83 l-15 28 -11 -29z"/>
<path d="M387 309 c41 -70 93 -89 93 -34 0 29 -49 65 -88 65 -23 0 -23 0 -5
-31z"/>
<path d="M245 266 c39 -111 91 -165 182 -192 108 -31 299 -5 318 44 7 20 1 27
-53 57 -26 15 -59 39 -74 53 -34 31 -35 25 -7 -30 19 -38 20 -43 5 -53 -25
-18 -120 -26 -172 -15 -90 20 -142 65 -173 151 -9 24 -24 45 -33 47 -14 3 -13
-6 7 -62z"/>
</g>
</svg>
