<?xml version="1.0" standalone="no"?>
<!DOCTYPE svg PUBLIC "-//W3C//DTD SVG 20010904//EN"
 "http://www.w3.org/TR/2001/REC-SVG-20010904/DTD/svg10.dtd">
<svg version="1.0" xmlns="http://www.w3.org/2000/svg"
 width="90.000000pt" height="92.000000pt" viewBox="0 0 90.000000 92.000000"
 preserveAspectRatio="xMidYMid meet">
<metadata>
Created by potrace 1.16, written by Peter Selinger 2001-2019
</metadata>
<g transform="translate(0.000000,92.000000) scale(0.100000,-0.100000)"
fill="#000000" stroke="none">
<path d="M446 834 c-3 -9 -6 -27 -6 -41 0 -36 -63 -157 -127 -242 l-55 -73
-29 56 c-16 31 -29 65 -29 76 0 10 20 40 45 67 25 26 45 51 45 55 0 5 -15 16
-34 24 -32 16 -36 15 -96 -9 -51 -20 -68 -23 -87 -14 -32 14 -37 5 -23 -39 15
-45 8 -376 -10 -466 -9 -49 -8 -62 5 -89 12 -22 20 -28 27 -21 16 16 26 159
27 362 1 96 4 185 7 196 4 16 16 23 46 28 22 4 42 5 45 3 2 -3 -5 -26 -15 -53
-17 -42 -17 -53 -6 -79 7 -16 13 -47 14 -69 l0 -38 -38 6 -37 7 25 -21 c65
-54 92 -59 105 -21 3 10 17 24 31 32 41 21 129 123 175 200 23 38 47 68 53 66
6 -2 48 -53 93 -113 99 -131 114 -144 162 -144 42 0 111 18 111 28 -1 4 -40
25 -88 47 -72 33 -103 56 -180 129 -66 64 -91 94 -87 107 4 11 -4 24 -21 38
-32 25 -40 26 -48 5z"/>
<path d="M490 514 c-30 -7 -72 -16 -93 -19 -46 -7 -39 -23 14 -31 41 -7 59
-26 59 -63 0 -17 -9 -20 -67 -27 -38 -3 -77 -10 -88 -14 -18 -7 -18 -8 4 -20
16 -8 43 -10 88 -5 l64 7 -3 -94 -3 -93 -32 3 c-18 1 -33 -1 -33 -5 1 -5 19
-28 40 -53 38 -43 40 -44 57 -27 15 15 19 39 21 146 l4 129 84 7 c56 5 84 11
81 19 -6 19 -51 36 -79 31 -16 -3 -42 -8 -58 -11 -29 -6 -31 -5 -24 22 5 20 2
30 -10 40 -16 11 -16 13 1 18 10 3 35 8 56 12 41 7 47 18 18 34 -23 12 -28 11
-101 -6z"/>
<path d="M311 243 c-11 -21 -36 -55 -56 -75 -20 -21 -31 -38 -25 -38 23 0 87
40 123 78 36 36 37 40 22 56 -25 25 -43 19 -64 -21z"/>
<path d="M641 216 c59 -74 74 -83 90 -55 20 38 3 68 -54 95 -87 40 -94 32 -36
-40z"/>
</g>
</svg>
