<?xml version="1.0" standalone="no"?>
<!DOCTYPE svg PUBLIC "-//W3C//DTD SVG 20010904//EN"
 "http://www.w3.org/TR/2001/REC-SVG-20010904/DTD/svg10.dtd">
<svg version="1.0" xmlns="http://www.w3.org/2000/svg"
 width="96.000000pt" height="68.000000pt" viewBox="0 0 96.000000 68.000000"
 preserveAspectRatio="xMidYMid meet">
<metadata>
Created by potrace 1.16, written by Peter Selinger 2001-2019
</metadata>
<g transform="translate(0.000000,68.000000) scale(0.100000,-0.100000)"
fill="#000000" stroke="none">
<path d="M493 322 c-8 -5 -9 -13 -3 -22 14 -22 12 -30 -6 -30 -13 0 -14 -3 -4
-15 17 -21 18 -128 1 -149 -11 -13 -16 -14 -29 -4 -12 10 -11 6 2 -14 10 -15
22 -25 27 -22 5 3 9 0 9 -7 0 -8 4 -8 15 1 8 7 14 26 14 44 -1 17 -1 71 1 120
2 88 -5 112 -27 98z"/>
<path d="M552 265 c-7 -8 -9 -15 -4 -15 5 0 15 7 22 15 16 19 -1 19 -18 0z"/>
<path d="M594 271 c3 -5 22 -9 41 -8 21 1 30 4 22 9 -17 11 -69 10 -63 -1z"/>
<path d="M410 250 c0 -5 6 -10 14 -10 8 0 18 5 21 10 3 6 -3 10 -14 10 -12 0
-21 -4 -21 -10z"/>
<path d="M642 153 c26 -26 51 -44 55 -39 4 4 1 12 -7 17 -11 8 -8 8 10 3 23
-6 24 -5 11 10 -8 9 -24 22 -35 27 -20 10 -21 10 -2 -5 11 -9 17 -16 13 -16
-13 0 -57 23 -57 31 0 4 -8 10 -17 13 -10 4 3 -14 29 -41z"/>
<path d="M377 172 c6 -15 5 -15 -11 -3 -16 13 -18 13 -16 0 5 -29 0 -38 -17
-32 -10 4 -14 2 -10 -4 4 -6 4 -13 0 -16 -5 -2 -2 -2 6 0 16 4 70 45 70 54 1
4 -6 9 -13 12 -11 4 -13 1 -9 -11z"/>
</g>
</svg>
