<?xml version="1.0" standalone="no"?>
<!DOCTYPE svg PUBLIC "-//W3C//DTD SVG 20010904//EN"
 "http://www.w3.org/TR/2001/REC-SVG-20010904/DTD/svg10.dtd">
<svg version="1.0" xmlns="http://www.w3.org/2000/svg"
 width="96.000000pt" height="68.000000pt" viewBox="0 0 96.000000 68.000000"
 preserveAspectRatio="xMidYMid meet">
<metadata>
Created by potrace 1.16, written by Peter Selinger 2001-2019
</metadata>
<g transform="translate(0.000000,68.000000) scale(0.100000,-0.100000)"
fill="#000000" stroke="none">
<path d="M505 210 l-40 -7 43 -2 c38 -1 45 -6 44 -31 0 -3 -3 -14 -6 -26 -11
-36 23 -24 36 13 7 18 17 33 23 33 5 1 -1 7 -15 15 -27 16 -26 15 -85 5z"/>
<path d="M342 177 c5 -10 12 -31 14 -45 6 -32 10 -36 23 -28 10 7 9 14 -18 65
-11 21 -11 23 4 18 9 -4 13 -3 10 2 -3 6 -14 9 -24 8 -16 -1 -18 -5 -9 -20z"/>
<path d="M398 193 c7 -3 16 -2 19 1 4 3 -2 6 -13 5 -11 0 -14 -3 -6 -6z"/>
<path d="M480 120 c0 -5 5 -10 11 -10 5 0 7 5 4 10 -3 6 -8 10 -11 10 -2 0 -4
-4 -4 -10z"/>
<path d="M413 113 c9 -2 25 -2 35 0 9 3 1 5 -18 5 -19 0 -27 -2 -17 -5z"/>
</g>
</svg>
