<?xml version="1.0" standalone="no"?>
<!DOCTYPE svg PUBLIC "-//W3C//DTD SVG 20010904//EN"
 "http://www.w3.org/TR/2001/REC-SVG-20010904/DTD/svg10.dtd">
<svg version="1.0" xmlns="http://www.w3.org/2000/svg"
 width="96.000000pt" height="68.000000pt" viewBox="0 0 96.000000 68.000000"
 preserveAspectRatio="xMidYMid meet">
<metadata>
Created by potrace 1.16, written by Peter Selinger 2001-2019
</metadata>
<g transform="translate(0.000000,68.000000) scale(0.100000,-0.100000)"
fill="#000000" stroke="none">
<path d="M540 256 c0 -32 -2 -34 -46 -40 -26 -3 -71 -6 -100 -6 -30 0 -54 -4
-54 -10 0 -18 53 -23 121 -10 38 7 72 11 75 8 10 -10 -24 -65 -58 -93 -18 -16
-51 -37 -73 -47 l-40 -19 35 6 c71 14 158 81 181 142 8 22 12 23 139 23 71 0
130 4 130 9 0 23 -59 33 -129 22 -96 -15 -124 -14 -118 3 7 17 -23 46 -46 46
-13 0 -17 -9 -17 -34z"/>
<path d="M692 105 c40 -35 79 -65 86 -65 20 0 13 45 -10 67 -23 20 -117 63
-138 63 -6 0 22 -29 62 -65z"/>
</g>
</svg>
