<?xml version="1.0" standalone="no"?>
<!DOCTYPE svg PUBLIC "-//W3C//DTD SVG 20010904//EN"
 "http://www.w3.org/TR/2001/REC-SVG-20010904/DTD/svg10.dtd">
<svg version="1.0" xmlns="http://www.w3.org/2000/svg"
 width="90.000000pt" height="92.000000pt" viewBox="0 0 90.000000 92.000000"
 preserveAspectRatio="xMidYMid meet">
<metadata>
Created by potrace 1.16, written by Peter Selinger 2001-2019
</metadata>
<g transform="translate(0.000000,92.000000) scale(0.100000,-0.100000)"
fill="#000000" stroke="none">
<path d="M556 893 c-3 -4 -6 -28 -6 -54 0 -68 -6 -77 -56 -85 -24 -3 -44 -10
-44 -14 0 -11 26 -20 56 -20 24 0 25 -2 19 -47 l-6 -48 20 25 c12 14 24 35 27
48 9 31 33 42 98 42 88 0 110 17 57 44 -22 12 -37 13 -62 6 -57 -17 -61 -14
-44 26 8 20 12 40 9 45 -9 14 -61 39 -68 32z"/>
<path d="M230 840 c0 -6 9 -27 20 -47 11 -21 20 -43 20 -49 0 -12 -66 -24
-133 -24 -40 0 -40 0 -21 -21 33 -37 48 -39 103 -19 67 26 70 25 82 -10 17
-48 42 -31 32 22 -4 23 -1 26 31 32 49 9 46 29 -3 24 -42 -4 -51 6 -51 59 0
12 -9 27 -19 33 -25 13 -61 13 -61 0z"/>
<path d="M316 525 l7 -85 -46 0 c-25 0 -53 -3 -63 -7 -15 -6 -16 -1 -10 54 6
57 5 61 -18 77 -36 23 -39 21 -32 -21 4 -23 1 -58 -8 -87 -11 -36 -12 -55 -5
-69 11 -20 13 -19 84 6 22 8 52 17 68 21 27 6 27 6 27 -42 l0 -48 -125 -19
c-69 -11 -125 -23 -125 -28 0 -5 14 -14 31 -20 29 -11 30 -14 25 -52 -4 -22
-20 -67 -36 -100 -16 -33 -27 -61 -26 -63 2 -1 18 9 35 23 30 26 104 164 99
186 -3 12 19 21 86 33 l39 7 -6 -109 c-5 -85 -3 -113 8 -128 32 -44 38 -5 38
271 0 276 -1 284 -41 285 -9 0 -11 -20 -6 -85z"/>
<path d="M524 579 c-3 -6 -1 -16 5 -22 6 -6 11 -43 11 -83 0 -81 5 -76 -102
-89 -32 -4 -58 -11 -58 -16 0 -21 46 -30 102 -21 l56 9 6 -36 c3 -20 6 -61 6
-92 l0 -57 -70 -7 c-79 -8 -93 -17 -51 -35 21 -8 52 -9 124 -1 53 6 123 11
157 11 47 0 60 3 60 15 0 25 -55 43 -103 34 -70 -14 -67 -17 -67 81 0 104 -6
98 119 102 83 3 100 18 51 43 -25 13 -40 14 -87 5 -89 -16 -85 -20 -82 68 2
72 1 78 -22 89 -30 16 -46 16 -55 2z"/>
</g>
</svg>
