<?xml version="1.0" standalone="no"?>
<!DOCTYPE svg PUBLIC "-//W3C//DTD SVG 20010904//EN"
 "http://www.w3.org/TR/2001/REC-SVG-20010904/DTD/svg10.dtd">
<svg version="1.0" xmlns="http://www.w3.org/2000/svg"
 width="96.000000pt" height="68.000000pt" viewBox="0 0 96.000000 68.000000"
 preserveAspectRatio="xMidYMid meet">
<metadata>
Created by potrace 1.16, written by Peter Selinger 2001-2019
</metadata>
<g transform="translate(0.000000,68.000000) scale(0.100000,-0.100000)"
fill="#000000" stroke="none">
<path d="M623 264 c-8 -4 -9 -13 -3 -30 8 -20 6 -29 -10 -46 -11 -12 -20 -28
-20 -36 0 -8 -6 -12 -15 -9 -8 4 -17 1 -21 -5 -4 -6 -3 -8 3 -5 6 4 14 0 17
-9 5 -12 2 -15 -9 -10 -9 3 -13 2 -10 -4 3 -6 0 -10 -7 -10 -7 0 -24 -10 -38
-21 -20 -16 -14 -15 29 6 40 20 56 24 61 15 4 -7 13 -9 19 -5 9 5 9 10 0 21
-6 7 -16 11 -23 7 -6 -4 -5 1 2 10 8 9 10 22 6 29 -5 10 -4 11 6 1 11 -10 17
-8 32 15 21 32 22 39 6 45 -7 2 -5 3 4 2 24 -4 33 12 18 30 -13 15 -25 17 -47
9z"/>
<path d="M556 241 c-3 -4 6 -6 19 -3 14 2 25 6 25 8 0 8 -39 4 -44 -5z"/>
<path d="M632 98 c-15 -15 -16 -28 -2 -28 6 0 19 -9 30 -20 15 -15 31 -20 63
-17 23 1 48 6 55 10 6 5 17 5 22 2 6 -3 10 -1 10 4 0 6 -10 12 -22 13 -13 1
-32 2 -43 3 -11 1 -33 7 -48 13 -16 7 -32 12 -37 12 -5 0 -10 5 -12 10 -2 7
-8 6 -16 -2z"/>
</g>
</svg>
