<?xml version="1.0" standalone="no"?>
<!DOCTYPE svg PUBLIC "-//W3C//DTD SVG 20010904//EN"
 "http://www.w3.org/TR/2001/REC-SVG-20010904/DTD/svg10.dtd">
<svg version="1.0" xmlns="http://www.w3.org/2000/svg"
 width="96.000000pt" height="68.000000pt" viewBox="0 0 96.000000 68.000000"
 preserveAspectRatio="xMidYMid meet">
<metadata>
Created by potrace 1.16, written by Peter Selinger 2001-2019
</metadata>
<g transform="translate(0.000000,68.000000) scale(0.100000,-0.100000)"
fill="#000000" stroke="none">
<path d="M600 341 c0 -21 -3 -52 -6 -70 l-6 -31 -30 25 c-16 14 -39 25 -51 25
-21 -1 -21 -1 4 -17 15 -9 34 -28 42 -43 16 -26 15 -28 -16 -58 -18 -17 -43
-36 -57 -42 -22 -9 -20 -10 15 -6 21 3 52 15 68 26 l28 21 44 -45 44 -46 71 0
c38 0 70 4 70 9 0 5 -21 16 -46 25 -54 18 -125 58 -143 80 -10 12 -9 29 4 85
19 77 16 101 -15 101 -17 0 -20 -6 -20 -39z"/>
</g>
</svg>
