<?xml version="1.0" standalone="no"?>
<!DOCTYPE svg PUBLIC "-//W3C//DTD SVG 20010904//EN"
 "http://www.w3.org/TR/2001/REC-SVG-20010904/DTD/svg10.dtd">
<svg version="1.0" xmlns="http://www.w3.org/2000/svg"
 width="96.000000pt" height="68.000000pt" viewBox="0 0 96.000000 68.000000"
 preserveAspectRatio="xMidYMid meet">
<metadata>
Created by potrace 1.16, written by Peter Selinger 2001-2019
</metadata>
<g transform="translate(0.000000,68.000000) scale(0.100000,-0.100000)"
fill="#000000" stroke="none">
<path d="M246 558 c4 -7 15 -25 25 -39 l18 -26 -89 -13 c-50 -6 -88 -16 -84
-21 8 -13 55 -11 159 6 50 8 113 15 142 15 28 0 54 4 57 9 9 15 -50 23 -104
16 -40 -5 -49 -4 -45 7 3 7 1 18 -3 24 -18 27 -91 48 -76 22z"/>
</g>
</svg>
