<?xml version="1.0" standalone="no"?>
<!DOCTYPE svg PUBLIC "-//W3C//DTD SVG 20010904//EN"
 "http://www.w3.org/TR/2001/REC-SVG-20010904/DTD/svg10.dtd">
<svg version="1.0" xmlns="http://www.w3.org/2000/svg"
 width="96.000000pt" height="68.000000pt" viewBox="0 0 96.000000 68.000000"
 preserveAspectRatio="xMidYMid meet">
<metadata>
Created by potrace 1.16, written by Peter Selinger 2001-2019
</metadata>
<g transform="translate(0.000000,68.000000) scale(0.100000,-0.100000)"
fill="#000000" stroke="none">
<path d="M257 496 l6 -83 -39 -7 c-81 -14 -94 -18 -88 -27 3 -5 32 -9 65 -9
l59 0 0 -39 c0 -21 -6 -43 -12 -48 -12 -9 -82 -40 -144 -63 -24 -9 -25 -13
-13 -24 31 -30 55 -27 108 10 29 19 55 33 58 30 3 -3 2 -34 -3 -68 l-9 -63
-40 3 -40 3 45 -40 c25 -22 50 -40 57 -41 24 0 33 40 33 143 0 100 1 104 25
117 14 7 25 19 25 27 0 9 -8 11 -25 7 -22 -6 -25 -3 -25 24 0 26 5 31 45 42
53 15 54 35 2 35 -32 0 -37 3 -37 24 0 13 5 41 12 63 10 34 9 40 -8 53 -10 8
-29 15 -41 15 -21 0 -22 -2 -16 -84z"/>
<path d="M540 550 c-74 -10 -139 -15 -145 -12 -5 3 -2 -4 8 -15 9 -11 17 -25
17 -32 0 -7 7 -28 16 -46 14 -30 14 -36 0 -58 -9 -13 -27 -30 -41 -37 -24 -13
-33 -34 -17 -43 4 -3 41 4 81 14 50 13 78 16 85 9 17 -17 36 -11 36 10 0 20
-27 40 -54 40 -9 0 -13 -6 -10 -15 4 -9 -3 -16 -20 -20 -14 -3 -37 -7 -51 -10
-36 -8 -30 6 16 39 23 16 38 34 35 41 -6 16 146 40 191 31 25 -5 32 0 63 41
45 61 45 58 15 71 -32 15 -55 14 -225 -8z m180 -21 c0 -4 -5 -19 -11 -32 -9
-20 -19 -25 -51 -25 -33 -1 -39 2 -33 16 4 9 9 25 12 34 7 24 83 31 83 7z
m-115 -24 c0 -17 -4 -33 -10 -37 -16 -12 -55 -9 -56 5 0 6 -2 22 -5 34 -3 16
2 23 19 26 42 8 52 3 52 -28z m-96 -11 c13 -30 12 -33 -18 -39 -16 -3 -24 3
-31 21 -15 37 -12 44 13 44 16 0 28 -9 36 -26z"/>
<path d="M602 369 c3 -37 10 -64 19 -70 22 -15 172 -7 177 10 4 11 -10 12 -77
6 l-81 -7 0 25 c0 23 4 26 60 32 70 8 83 26 20 27 -3 1 -20 -2 -37 -5 -28 -6
-33 -3 -33 12 0 18 -18 31 -42 31 -7 0 -9 -23 -6 -61z"/>
<path d="M470 280 c-19 -5 -45 -6 -57 -3 -22 5 -23 3 -17 -38 3 -24 0 -64 -6
-89 -16 -62 -17 -92 -3 -97 8 -3 17 13 25 40 10 38 16 46 41 51 55 11 77 7 77
-13 0 -35 -12 -51 -36 -51 -22 0 -23 -2 -12 -20 16 -25 46 -36 62 -21 15 16
26 233 11 243 -12 9 -39 9 -85 -2z m58 -31 c2 -12 -7 -18 -33 -23 -20 -4 -43
-10 -51 -13 -10 -4 -14 2 -14 20 0 19 6 27 23 30 40 8 72 2 75 -14z m2 -59 c0
-13 -7 -20 -19 -20 -10 0 -33 -3 -50 -6 -27 -6 -31 -4 -31 14 0 16 8 22 33 25
65 8 67 7 67 -13z"/>
<path d="M610 193 c0 -99 5 -115 38 -131 32 -15 141 -16 179 -1 27 10 27 11 8
25 -11 8 -26 12 -35 8 -8 -3 -45 -9 -82 -11 -73 -6 -78 -1 -70 60 3 21 10 27
31 27 14 0 49 6 76 14 66 18 36 32 -35 17 -69 -15 -67 -15 -62 20 3 20 0 34
-9 40 -33 21 -39 10 -39 -68z"/>
</g>
</svg>
