<?xml version="1.0" standalone="no"?>
<!DOCTYPE svg PUBLIC "-//W3C//DTD SVG 20010904//EN"
 "http://www.w3.org/TR/2001/REC-SVG-20010904/DTD/svg10.dtd">
<svg version="1.0" xmlns="http://www.w3.org/2000/svg"
 width="96.000000pt" height="68.000000pt" viewBox="0 0 96.000000 68.000000"
 preserveAspectRatio="xMidYMid meet">
<metadata>
Created by potrace 1.16, written by Peter Selinger 2001-2019
</metadata>
<g transform="translate(0.000000,68.000000) scale(0.100000,-0.100000)"
fill="#000000" stroke="none">
<path d="M190 506 c0 -10 66 -66 78 -66 24 0 26 32 3 52 -20 16 -81 26 -81 14z"/>
<path d="M215 359 c-22 -10 -50 -18 -62 -18 -13 -1 -23 -6 -23 -12 0 -8 17 -9
56 -4 l55 7 -14 -29 c-14 -26 -13 -31 9 -63 13 -19 24 -45 24 -57 0 -22 -4
-23 -75 -23 -41 0 -75 -4 -75 -8 0 -24 27 -30 109 -25 85 5 88 4 239 -51 84
-31 169 -56 190 -56 41 0 182 39 182 50 0 4 -62 10 -137 14 -144 7 -219 19
-338 55 -71 22 -71 22 -67 55 3 27 -1 37 -24 55 l-27 22 36 37 c20 21 37 41
37 44 0 3 -12 10 -27 16 -21 7 -38 5 -68 -9z"/>
</g>
</svg>
