<?xml version="1.0" standalone="no"?>
<!DOCTYPE svg PUBLIC "-//W3C//DTD SVG 20010904//EN"
 "http://www.w3.org/TR/2001/REC-SVG-20010904/DTD/svg10.dtd">
<svg version="1.0" xmlns="http://www.w3.org/2000/svg"
 width="96.000000pt" height="68.000000pt" viewBox="0 0 96.000000 68.000000"
 preserveAspectRatio="xMidYMid meet">
<metadata>
Created by potrace 1.16, written by Peter Selinger 2001-2019
</metadata>
<g transform="translate(0.000000,68.000000) scale(0.100000,-0.100000)"
fill="#000000" stroke="none">
<path d="M416 381 c5 -25 3 -29 -28 -36 l-33 -8 35 -6 c26 -5 36 -11 38 -28 3
-19 -2 -23 -25 -24 -15 -1 -34 -1 -42 0 -7 2 -11 -4 -9 -11 7 -22 39 -20 113
7 51 18 60 24 32 19 -37 -5 -38 -4 -35 23 2 22 9 29 33 34 28 5 29 6 8 13 -13
4 -27 4 -33 1 -6 -4 -10 5 -10 19 0 21 -5 26 -25 26 -22 0 -24 -3 -19 -29z"/>
</g>
</svg>
