<?xml version="1.0" standalone="no"?>
<!DOCTYPE svg PUBLIC "-//W3C//DTD SVG 20010904//EN"
 "http://www.w3.org/TR/2001/REC-SVG-20010904/DTD/svg10.dtd">
<svg version="1.0" xmlns="http://www.w3.org/2000/svg"
 width="96.000000pt" height="68.000000pt" viewBox="0 0 96.000000 68.000000"
 preserveAspectRatio="xMidYMid meet">
<metadata>
Created by potrace 1.16, written by Peter Selinger 2001-2019
</metadata>
<g transform="translate(0.000000,68.000000) scale(0.100000,-0.100000)"
fill="#000000" stroke="none">
<path d="M513 538 l2 -63 -30 -3 c-76 -6 -115 -14 -115 -23 0 -6 28 -7 77 -3
l76 7 -6 -46 c-7 -52 -1 -77 19 -77 9 0 14 18 16 63 l3 62 83 3 c60 2 82 6 79
15 -2 8 -30 12 -83 12 l-79 0 3 58 c2 54 1 57 -22 57 -24 0 -24 -2 -23 -62z"/>
<path d="M621 547 c-24 -37 -15 -45 28 -22 36 18 39 30 12 45 -16 8 -23 4 -40
-23z"/>
<path d="M380 545 c0 -12 53 -55 68 -55 16 0 16 25 -1 38 -16 14 -67 26 -67
17z"/>
<path d="M146 513 c-8 -9 68 -73 86 -73 25 0 34 28 15 47 -15 15 -92 35 -101
26z"/>
<path d="M407 389 c-28 -22 -42 -39 -33 -39 32 0 110 56 100 71 -8 14 -16 10
-67 -32z"/>
<path d="M635 405 c47 -40 86 -58 97 -47 6 6 7 16 3 22 -10 16 -84 50 -110 50
-17 0 -16 -3 10 -25z"/>
<path d="M173 347 c-85 -30 -89 -40 -17 -35 l62 4 -16 -32 c-14 -30 -14 -34 2
-50 20 -20 36 -57 36 -85 0 -17 -8 -19 -75 -19 -74 0 -88 -7 -61 -29 9 -8 41
-9 97 -5 80 6 92 4 238 -40 96 -29 174 -46 205 -46 46 0 160 29 190 47 14 10
-53 22 -125 22 l-57 1 5 48 c7 72 7 72 69 72 40 0 54 3 51 13 -3 8 -22 11 -54
10 -47 -1 -51 1 -56 23 -4 20 1 25 29 30 42 8 45 24 4 24 -22 0 -30 5 -30 18
0 18 -18 42 -31 42 -4 0 -9 -17 -11 -37 -3 -37 -4 -38 -49 -41 -42 -3 -46 -5
-42 -26 3 -13 0 -34 -7 -46 -16 -30 2 -50 30 -32 11 6 31 12 44 12 22 0 24 -4
28 -56 l3 -56 -60 6 c-33 3 -114 16 -180 28 l-120 22 3 36 c3 31 -1 41 -26 61
l-30 24 42 43 c39 42 40 44 22 58 -25 18 -38 17 -113 -9z m457 -111 c0 -18 -7
-25 -27 -29 -34 -6 -35 -5 -28 26 11 42 55 44 55 3z"/>
<path d="M380 316 c0 -8 -16 -31 -35 -52 -19 -20 -33 -39 -30 -42 3 -3 11 0
17 6 18 18 31 14 52 -15 l19 -26 -34 -29 c-34 -29 -34 -29 -4 -14 51 25 150
130 139 147 -4 7 -23 9 -49 6 -36 -5 -42 -4 -41 10 0 10 -7 19 -16 21 -11 2
-18 -3 -18 -12z m80 -41 c0 -3 -7 -17 -16 -30 -14 -21 -19 -23 -42 -12 -37 15
-36 15 -22 32 11 14 80 22 80 10z"/>
</g>
</svg>
