<?xml version="1.0" standalone="no"?>
<!DOCTYPE svg PUBLIC "-//W3C//DTD SVG 20010904//EN"
 "http://www.w3.org/TR/2001/REC-SVG-20010904/DTD/svg10.dtd">
<svg version="1.0" xmlns="http://www.w3.org/2000/svg"
 width="96.000000pt" height="68.000000pt" viewBox="0 0 96.000000 68.000000"
 preserveAspectRatio="xMidYMid meet">
<metadata>
Created by potrace 1.16, written by Peter Selinger 2001-2019
</metadata>
<g transform="translate(0.000000,68.000000) scale(0.100000,-0.100000)"
fill="#000000" stroke="none">
<path d="M496 562 c-8 -14 45 -72 65 -72 22 0 26 32 6 48 -20 17 -66 32 -71
24z"/>
<path d="M670 479 c-25 -5 -101 -11 -170 -13 l-124 -5 -18 -33 c-9 -18 -17
-41 -18 -51 0 -29 33 -16 50 19 14 30 20 32 95 42 161 23 225 25 225 10 0 -8
-5 -19 -12 -26 -20 -20 -4 -23 51 -10 55 12 65 29 29 52 -34 21 -58 24 -108
15z"/>
<path d="M220 470 c-14 -4 -46 -8 -72 -9 -35 -1 -48 -5 -48 -15 0 -8 5 -18 11
-22 8 -5 10 -46 5 -143 -4 -77 -2 -142 3 -150 7 -11 17 -11 61 -1 51 12 54 12
70 -10 20 -27 46 -22 59 12 5 13 8 92 7 176 -2 122 -5 155 -16 162 -18 11 -45
11 -80 0z m50 -90 l0 -60 -34 0 c-19 0 -41 -3 -50 -6 -14 -5 -16 3 -16 54 0
66 3 70 63 71 l37 1 0 -60z m0 -138 l0 -58 -55 -10 -56 -10 3 60 3 61 50 6
c28 3 51 7 53 7 1 1 2 -24 2 -56z"/>
<path d="M550 384 c-8 -1 -36 -6 -63 -9 -69 -9 -49 -29 22 -21 112 13 134 18
120 27 -14 8 -48 10 -79 3z"/>
<path d="M590 309 c-25 -5 -78 -11 -118 -13 -40 -2 -76 -6 -79 -10 -4 -3 -1
-6 5 -6 6 0 19 -36 28 -79 l17 -80 106 4 106 4 32 80 31 81 -21 15 c-24 17
-40 17 -107 4z m50 -49 c0 -27 -3 -30 -34 -30 -18 0 -61 -3 -95 -6 l-61 -7 0
31 c0 34 5 35 143 40 46 2 47 1 47 -28z m-9 -77 c-7 -27 -11 -28 -82 -35 -41
-3 -74 -6 -75 -5 -1 1 -4 14 -8 29 -6 26 -5 27 41 31 27 2 67 4 90 5 40 2 41
1 34 -25z"/>
<path d="M595 79 c-44 -4 -124 -10 -177 -14 -54 -4 -98 -11 -98 -15 0 -17 74
-23 154 -11 44 6 140 11 213 11 129 0 164 8 124 29 -22 12 -96 12 -216 0z"/>
</g>
</svg>
