<?xml version="1.0" standalone="no"?>
<!DOCTYPE svg PUBLIC "-//W3C//DTD SVG 20010904//EN"
 "http://www.w3.org/TR/2001/REC-SVG-20010904/DTD/svg10.dtd">
<svg version="1.0" xmlns="http://www.w3.org/2000/svg"
 width="96.000000pt" height="68.000000pt" viewBox="0 0 96.000000 68.000000"
 preserveAspectRatio="xMidYMid meet">
<metadata>
Created by potrace 1.16, written by Peter Selinger 2001-2019
</metadata>
<g transform="translate(0.000000,68.000000) scale(0.100000,-0.100000)"
fill="#000000" stroke="none">
<path d="M256 583 c4 -10 9 -50 12 -89 5 -81 10 -76 -100 -89 -81 -10 -64 -29
18 -22 35 4 64 2 64 -2 0 -20 -56 -106 -102 -156 -28 -30 -47 -55 -44 -55 21
0 70 36 116 87 49 53 52 55 47 28 -3 -17 -9 -73 -13 -125 -5 -83 -4 -98 11
-110 28 -23 35 4 35 143 0 70 3 127 6 127 3 0 15 -11 26 -25 23 -30 58 -34 58
-7 0 18 -37 42 -65 42 -10 0 -15 11 -15 34 0 32 2 34 41 39 22 3 44 8 47 12
13 12 -24 25 -56 19 l-34 -7 7 75 7 75 -32 12 c-43 14 -44 14 -34 -6z"/>
</g>
</svg>
