<?xml version="1.0" standalone="no"?>
<!DOCTYPE svg PUBLIC "-//W3C//DTD SVG 20010904//EN"
 "http://www.w3.org/TR/2001/REC-SVG-20010904/DTD/svg10.dtd">
<svg version="1.0" xmlns="http://www.w3.org/2000/svg"
 width="96.000000pt" height="68.000000pt" viewBox="0 0 96.000000 68.000000"
 preserveAspectRatio="xMidYMid meet">
<metadata>
Created by potrace 1.16, written by Peter Selinger 2001-2019
</metadata>
<g transform="translate(0.000000,68.000000) scale(0.100000,-0.100000)"
fill="#000000" stroke="none">
<path d="M500 550 c0 -5 14 -25 30 -43 17 -19 30 -37 30 -40 0 -3 -29 -9 -65
-12 -36 -4 -67 -11 -70 -15 -9 -14 42 -20 91 -11 27 5 97 13 157 17 59 4 107
10 107 14 0 18 -62 29 -112 20 -68 -13 -68 -13 -68 15 0 25 -20 41 -71 55 -17
5 -29 5 -29 0z"/>
</g>
</svg>
