<?xml version="1.0" standalone="no"?>
<!DOCTYPE svg PUBLIC "-//W3C//DTD SVG 20010904//EN"
 "http://www.w3.org/TR/2001/REC-SVG-20010904/DTD/svg10.dtd">
<svg version="1.0" xmlns="http://www.w3.org/2000/svg"
 width="96.000000pt" height="68.000000pt" viewBox="0 0 96.000000 68.000000"
 preserveAspectRatio="xMidYMid meet">
<metadata>
Created by potrace 1.16, written by Peter Selinger 2001-2019
</metadata>
<g transform="translate(0.000000,68.000000) scale(0.100000,-0.100000)"
fill="#000000" stroke="none">
<path d="M535 581 c-2 -5 13 -31 35 -59 l40 -50 -67 -7 c-58 -6 -69 -5 -80 11
-7 10 -14 16 -16 13 -14 -17 -47 -112 -42 -119 13 -22 37 -8 52 29 14 36 19
39 62 44 25 3 83 11 128 18 45 7 85 10 89 6 4 -4 2 -19 -5 -33 -6 -15 -10 -28
-9 -29 8 -8 108 31 108 41 0 7 -14 22 -30 34 -27 19 -35 21 -81 11 -71 -15
-79 -14 -79 12 0 13 -6 30 -12 39 -16 21 -86 50 -93 39z"/>
</g>
</svg>
