<?xml version="1.0" standalone="no"?>
<!DOCTYPE svg PUBLIC "-//W3C//DTD SVG 20010904//EN"
 "http://www.w3.org/TR/2001/REC-SVG-20010904/DTD/svg10.dtd">
<svg version="1.0" xmlns="http://www.w3.org/2000/svg"
 width="96.000000pt" height="68.000000pt" viewBox="0 0 96.000000 68.000000"
 preserveAspectRatio="xMidYMid meet">
<metadata>
Created by potrace 1.16, written by Peter Selinger 2001-2019
</metadata>
<g transform="translate(0.000000,68.000000) scale(0.100000,-0.100000)"
fill="#000000" stroke="none">
<path d="M116 188 c-6 -31 7 -68 24 -68 6 0 10 4 10 9 0 4 21 11 47 14 39 4
50 2 61 -14 7 -10 19 -19 26 -19 19 0 38 52 30 83 -8 34 -41 37 -46 5 -3 -20
-10 -23 -55 -26 -47 -3 -53 -1 -53 16 0 11 -9 22 -19 25 -15 3 -20 -2 -25 -25z"/>
</g>
</svg>
