<?xml version="1.0" standalone="no"?>
<!DOCTYPE svg PUBLIC "-//W3C//DTD SVG 20010904//EN"
 "http://www.w3.org/TR/2001/REC-SVG-20010904/DTD/svg10.dtd">
<svg version="1.0" xmlns="http://www.w3.org/2000/svg"
 width="96.000000pt" height="68.000000pt" viewBox="0 0 96.000000 68.000000"
 preserveAspectRatio="xMidYMid meet">
<metadata>
Created by potrace 1.16, written by Peter Selinger 2001-2019
</metadata>
<g transform="translate(0.000000,68.000000) scale(0.100000,-0.100000)"
fill="#000000" stroke="none">
<path d="M430 531 c0 -4 9 -16 20 -26 11 -10 40 -51 66 -91 38 -62 50 -74 72
-74 51 0 56 15 14 43 -22 14 -63 53 -92 86 -49 56 -80 80 -80 62z"/>
<path d="M385 423 c-9 -21 -23 -45 -32 -55 -9 -10 -13 -21 -10 -24 3 -3 27 14
53 38 33 31 45 50 41 62 -11 28 -36 18 -52 -21z"/>
</g>
</svg>
