<?xml version="1.0" standalone="no"?>
<!DOCTYPE svg PUBLIC "-//W3C//DTD SVG 20010904//EN"
 "http://www.w3.org/TR/2001/REC-SVG-20010904/DTD/svg10.dtd">
<svg version="1.0" xmlns="http://www.w3.org/2000/svg"
 width="96.000000pt" height="68.000000pt" viewBox="0 0 96.000000 68.000000"
 preserveAspectRatio="xMidYMid meet">
<metadata>
Created by potrace 1.16, written by Peter Selinger 2001-2019
</metadata>
<g transform="translate(0.000000,68.000000) scale(0.100000,-0.100000)"
fill="#000000" stroke="none">
<path d="M546 573 c4 -10 10 -51 12 -92 4 -81 -1 -90 -53 -91 -16 0 -41 -3
-53 -7 -36 -9 -6 -23 51 -23 46 0 47 -1 36 -22 -7 -13 -39 -51 -72 -85 -33
-35 -55 -63 -49 -63 14 0 106 74 127 102 16 22 17 20 10 -52 -3 -41 -11 -92
-16 -112 -14 -56 23 -123 48 -85 4 6 10 75 13 152 l5 139 68 -92 c37 -51 74
-95 83 -99 8 -3 34 -2 56 3 l41 9 -74 47 c-84 53 -180 155 -159 168 7 4 39 11
71 14 32 4 61 11 64 16 9 15 -35 22 -91 15 l-54 -6 0 38 c0 21 4 55 9 76 8 32
6 39 -12 52 -12 8 -32 15 -45 15 -19 0 -23 -3 -16 -17z"/>
</g>
</svg>
