<?xml version="1.0" standalone="no"?>
<!DOCTYPE svg PUBLIC "-//W3C//DTD SVG 20010904//EN"
 "http://www.w3.org/TR/2001/REC-SVG-20010904/DTD/svg10.dtd">
<svg version="1.0" xmlns="http://www.w3.org/2000/svg"
 width="96.000000pt" height="68.000000pt" viewBox="0 0 96.000000 68.000000"
 preserveAspectRatio="xMidYMid meet">
<metadata>
Created by potrace 1.16, written by Peter Selinger 2001-2019
</metadata>
<g transform="translate(0.000000,68.000000) scale(0.100000,-0.100000)"
fill="#000000" stroke="none">
<path d="M615 370 c-27 -5 -81 -9 -119 -9 -61 -1 -67 -3 -61 -18 4 -10 13 -71
20 -136 7 -65 16 -121 19 -124 3 -4 12 1 19 9 8 11 37 18 87 22 l75 7 18 -32
c15 -26 20 -29 33 -18 28 23 36 51 50 167 14 107 13 115 -3 128 -20 15 -60 16
-138 4z m80 -65 c0 -39 -1 -40 -35 -41 -19 0 -66 -4 -103 -9 l-68 -8 3 44 c3
42 5 44 38 50 19 4 64 6 100 5 l65 -1 0 -40z m4 -97 c-1 -60 -6 -63 -105 -67
l-91 -3 -7 32 c-11 59 -12 59 72 63 42 1 89 4 105 5 24 2 27 -1 26 -30z"/>
</g>
</svg>
