<?xml version="1.0" standalone="no"?>
<!DOCTYPE svg PUBLIC "-//W3C//DTD SVG 20010904//EN"
 "http://www.w3.org/TR/2001/REC-SVG-20010904/DTD/svg10.dtd">
<svg version="1.0" xmlns="http://www.w3.org/2000/svg"
 width="96.000000pt" height="68.000000pt" viewBox="0 0 96.000000 68.000000"
 preserveAspectRatio="xMidYMid meet">
<metadata>
Created by potrace 1.16, written by Peter Selinger 2001-2019
</metadata>
<g transform="translate(0.000000,68.000000) scale(0.100000,-0.100000)"
fill="#000000" stroke="none">
<path d="M646 191 c-18 -7 -18 -8 -3 -14 18 -7 24 -53 8 -59 -4 -1 -11 -12
-15 -23 -4 -16 -1 -21 12 -22 13 -1 23 10 33 35 7 20 13 42 13 49 -1 6 5 9 15
5 14 -5 14 -4 2 12 -8 9 -20 15 -28 12 -8 -3 -11 -1 -8 4 7 11 -2 12 -29 1z
m11 -103 c-3 -8 -6 -5 -6 6 -1 11 2 17 5 13 3 -3 4 -12 1 -19z"/>
<path d="M510 170 c-11 -7 -5 -8 20 -4 43 8 51 14 19 14 -13 0 -31 -5 -39 -10z"/>
<path d="M454 128 c2 -24 5 -47 5 -53 1 -12 91 -17 91 -6 0 4 -13 8 -30 9 -16
0 -34 3 -39 6 -14 9 -20 60 -9 74 8 9 6 12 -6 12 -14 0 -16 -8 -12 -42z"/>
<path d="M576 81 c-13 -5 -16 -10 -9 -14 7 -4 15 -2 19 4 5 8 8 8 14 -1 5 -8
9 -7 13 4 7 17 -6 19 -37 7z"/>
</g>
</svg>
