<?xml version="1.0" standalone="no"?>
<!DOCTYPE svg PUBLIC "-//W3C//DTD SVG 20010904//EN"
 "http://www.w3.org/TR/2001/REC-SVG-20010904/DTD/svg10.dtd">
<svg version="1.0" xmlns="http://www.w3.org/2000/svg"
 width="96.000000pt" height="68.000000pt" viewBox="0 0 96.000000 68.000000"
 preserveAspectRatio="xMidYMid meet">
<metadata>
Created by potrace 1.16, written by Peter Selinger 2001-2019
</metadata>
<g transform="translate(0.000000,68.000000) scale(0.100000,-0.100000)"
fill="#000000" stroke="none">
<path d="M275 499 c-22 -4 -59 -8 -83 -8 -41 -1 -43 -2 -35 -23 4 -13 6 -52 5
-88 -8 -143 -9 -135 13 -133 64 5 165 27 165 35 0 5 -8 7 -17 4 -10 -2 -43 -6
-73 -8 l-55 -3 4 90 c2 50 5 93 8 98 2 4 19 7 37 7 50 0 146 22 140 31 -6 11
-54 10 -109 -2z"/>
</g>
</svg>
