<?xml version="1.0" standalone="no"?>
<!DOCTYPE svg PUBLIC "-//W3C//DTD SVG 20010904//EN"
 "http://www.w3.org/TR/2001/REC-SVG-20010904/DTD/svg10.dtd">
<svg version="1.0" xmlns="http://www.w3.org/2000/svg"
 width="90.000000pt" height="92.000000pt" viewBox="0 0 90.000000 92.000000"
 preserveAspectRatio="xMidYMid meet">
<metadata>
Created by potrace 1.16, written by Peter Selinger 2001-2019
</metadata>
<g transform="translate(0.000000,92.000000) scale(0.100000,-0.100000)"
fill="#000000" stroke="none">
<path d="M444 838 c4 -13 9 -64 13 -115 l6 -91 -43 -12 c-51 -14 -58 -9 -36
24 23 36 20 53 -14 71 -16 8 -31 15 -35 15 -3 0 -5 -19 -5 -42 0 -24 -12 -70
-26 -103 -14 -33 -28 -67 -31 -75 -3 -8 14 5 38 29 39 41 47 44 96 46 l54 1
-3 -60 -3 -61 -97 -15 c-54 -8 -98 -17 -98 -20 0 -16 51 -29 76 -20 41 16 54
12 54 -15 0 -58 -96 -185 -194 -256 -47 -35 -29 -37 39 -5 64 30 130 97 178
183 31 55 37 71 28 89 -11 25 1 34 45 34 l24 0 0 -125 c0 -145 11 -178 65
-201 55 -23 172 -18 225 9 63 32 68 45 39 111 -25 58 -39 71 -39 36 0 -43 -27
-87 -60 -99 -67 -23 -173 -7 -182 27 -3 9 0 55 5 102 6 47 10 102 11 123 l0
37 81 0 c92 0 121 12 91 35 -24 19 -62 18 -146 0 -94 -21 -90 -23 -90 45 0 66
6 72 75 84 108 18 117 25 64 46 -26 11 -39 11 -81 -3 l-50 -16 4 96 c3 104 0
110 -61 112 -20 1 -22 -3 -17 -21z"/>
<path d="M128 733 c18 -32 82 -84 100 -81 10 2 18 15 20 30 4 33 -29 57 -89
65 -39 6 -41 5 -31 -14z"/>
<path d="M30 562 c0 -4 19 -27 43 -50 49 -48 87 -56 87 -18 0 32 -22 53 -68
66 -45 12 -62 13 -62 2z"/>
<path d="M160 378 c-19 -34 -52 -79 -72 -100 -42 -42 -45 -53 -24 -103 16 -38
33 -45 43 -18 3 10 25 68 48 128 24 61 46 120 50 133 12 42 -10 22 -45 -40z"/>
</g>
</svg>
