<?xml version="1.0" standalone="no"?>
<!DOCTYPE svg PUBLIC "-//W3C//DTD SVG 20010904//EN"
 "http://www.w3.org/TR/2001/REC-SVG-20010904/DTD/svg10.dtd">
<svg version="1.0" xmlns="http://www.w3.org/2000/svg"
 width="96.000000pt" height="68.000000pt" viewBox="0 0 96.000000 68.000000"
 preserveAspectRatio="xMidYMid meet">
<metadata>
Created by potrace 1.16, written by Peter Selinger 2001-2019
</metadata>
<g transform="translate(0.000000,68.000000) scale(0.100000,-0.100000)"
fill="#000000" stroke="none">
<path d="M327 573 c4 -27 8 -68 8 -93 l0 -45 -73 -9 c-95 -11 -92 -30 6 -34
l72 -3 0 -34 c0 -45 -11 -54 -113 -95 -48 -19 -87 -40 -87 -46 0 -6 12 -16 26
-23 23 -10 33 -7 89 24 35 19 66 35 69 35 9 0 7 -93 -3 -109 -6 -9 -20 -12
-40 -9 -17 2 -31 2 -31 -1 0 -10 77 -81 87 -81 5 0 17 8 26 18 14 15 17 40 17
118 l0 99 53 35 c38 25 47 35 34 38 -10 2 -29 -3 -42 -12 -36 -24 -45 -20 -45
19 0 36 6 40 70 47 44 5 30 33 -19 36 l-43 3 5 47 c4 26 9 58 12 73 5 20 2 27
-20 37 -14 7 -35 12 -46 12 -19 0 -20 -4 -12 -47z"/>
<path d="M525 513 c9 -109 20 -130 80 -139 68 -10 200 7 200 26 0 17 -29 18
-147 5 -77 -9 -98 1 -98 44 0 25 7 29 98 58 53 17 96 35 95 39 -1 5 -15 13
-33 18 -26 8 -35 5 -58 -15 -72 -63 -98 -64 -98 -1 1 42 -1 47 -22 50 l-24 4
7 -89z"/>
<path d="M675 320 c-27 -5 -72 -9 -100 -9 l-50 -1 0 -114 c0 -116 7 -144 29
-115 8 11 35 19 85 24 73 7 74 7 96 -21 23 -29 23 -29 44 -10 19 17 21 30 21
131 0 108 -1 113 -22 119 -26 7 -34 6 -103 -4z m75 -54 l0 -34 -82 -8 c-46 -5
-87 -8 -92 -9 -5 0 -9 17 -10 37 -1 35 1 37 34 41 19 2 61 4 93 5 l57 2 0 -34z
m2 -96 l-4 -40 -94 0 -94 0 0 30 c0 17 3 30 8 30 57 4 117 11 121 15 2 3 18 5
35 5 31 0 31 -1 28 -40z"/>
</g>
</svg>
