<?xml version="1.0" standalone="no"?>
<!DOCTYPE svg PUBLIC "-//W3C//DTD SVG 20010904//EN"
 "http://www.w3.org/TR/2001/REC-SVG-20010904/DTD/svg10.dtd">
<svg version="1.0" xmlns="http://www.w3.org/2000/svg"
 width="96.000000pt" height="68.000000pt" viewBox="0 0 96.000000 68.000000"
 preserveAspectRatio="xMidYMid meet">
<metadata>
Created by potrace 1.16, written by Peter Selinger 2001-2019
</metadata>
<g transform="translate(0.000000,68.000000) scale(0.100000,-0.100000)"
fill="#000000" stroke="none">
<path d="M244 226 c7 -27 0 -30 -97 -41 -31 -4 -59 -11 -62 -15 -10 -17 55
-21 109 -7 l56 15 0 -24 c0 -14 -6 -39 -14 -57 -14 -34 -6 -77 14 -77 16 0 30
45 30 95 0 64 7 75 49 76 20 0 45 4 56 8 19 8 19 8 -2 15 -12 4 -38 4 -58 0
-31 -5 -35 -4 -35 15 0 16 -6 21 -26 21 -23 0 -25 -3 -20 -24z"/>
</g>
</svg>
