<?xml version="1.0" standalone="no"?>
<!DOCTYPE svg PUBLIC "-//W3C//DTD SVG 20010904//EN"
 "http://www.w3.org/TR/2001/REC-SVG-20010904/DTD/svg10.dtd">
<svg version="1.0" xmlns="http://www.w3.org/2000/svg"
 width="90.000000pt" height="92.000000pt" viewBox="0 0 90.000000 92.000000"
 preserveAspectRatio="xMidYMid meet">
<metadata>
Created by potrace 1.16, written by Peter Selinger 2001-2019
</metadata>
<g transform="translate(0.000000,92.000000) scale(0.100000,-0.100000)"
fill="#000000" stroke="none">
<path d="M575 793 c-10 -58 -32 -117 -67 -186 -44 -83 -45 -85 -16 -59 31 28
37 28 78 -6 l34 -29 -22 -30 c-12 -17 -49 -56 -82 -87 -34 -31 -55 -56 -47
-56 20 0 84 45 134 93 l42 41 61 -58 61 -58 50 6 c95 13 102 25 27 49 -63 20
-157 73 -164 92 -3 7 17 49 46 91 l51 78 -20 20 c-19 19 -25 19 -82 7 -34 -7
-63 -11 -64 -9 -2 2 7 26 21 53 l24 50 -21 18 c-30 24 -36 22 -44 -20z m105
-135 c0 -14 -32 -83 -48 -106 -8 -11 -17 -9 -50 13 l-41 27 16 33 c16 34 29
40 96 44 16 0 27 -4 27 -11z"/>
<path d="M410 760 c-8 -5 -46 -14 -84 -21 -37 -6 -64 -14 -59 -18 12 -7 33
-67 33 -92 0 -10 5 -30 10 -44 8 -22 13 -25 24 -16 24 20 30 -7 34 -156 4
-142 4 -143 -19 -152 -13 -5 -25 -7 -27 -6 -2 1 -3 46 -4 100 -1 91 -3 97 -25
108 -13 5 -25 8 -27 6 -2 -2 1 -50 7 -105 11 -112 8 -134 -23 -134 -25 0 -26
-12 -2 -33 25 -23 37 -21 85 11 23 16 63 41 90 56 55 32 63 52 11 30 l-35 -15
4 71 c2 39 6 72 8 74 2 2 22 7 43 12 22 5 41 15 43 21 6 17 -31 25 -61 14 -25
-10 -26 -9 -26 20 0 17 5 39 10 49 7 13 7 21 0 25 -18 11 -10 25 15 25 18 0
23 4 18 15 -3 9 5 43 17 77 21 59 22 62 4 75 -21 15 -43 16 -64 3z m13 -37 c3
-5 2 -28 -2 -53 -6 -42 -9 -46 -43 -54 -21 -5 -40 -8 -42 -5 -2 2 -7 25 -11
51 -7 47 -7 47 26 57 43 12 67 13 72 4z"/>
<path d="M135 715 c-27 -7 -65 -14 -83 -14 -47 -1 -36 -25 14 -31 l39 -5 3
-82 3 -82 -36 -7 c-19 -3 -35 -10 -35 -14 0 -10 26 -20 49 -20 14 0 20 -11 25
-52 12 -105 13 -104 -54 -130 -66 -25 -73 -42 -29 -67 24 -13 28 -12 65 16 21
17 65 49 97 72 31 23 57 46 57 51 0 5 -20 1 -45 -10 l-45 -19 0 74 c0 73 0 75
28 81 15 3 36 9 47 14 18 7 18 9 -10 20 -16 6 -37 9 -47 7 -16 -5 -17 3 -15
78 l2 84 37 6 c42 7 58 23 37 36 -18 11 -42 10 -104 -6z"/>
<path d="M650 343 c-19 -9 -61 -16 -92 -16 -58 0 -67 -4 -48 -23 6 -6 15 -39
20 -75 6 -35 12 -74 15 -86 6 -25 25 -32 25 -9 0 10 22 15 79 20 l80 7 -5 32
c-4 22 3 47 20 82 20 40 23 52 13 62 -20 20 -70 23 -107 6z m36 -64 c-3 -17
-6 -40 -6 -50 0 -20 -21 -31 -76 -42 l-32 -6 -5 52 c-3 29 -3 54 -1 56 5 6 68
19 98 20 27 1 28 -1 22 -30z"/>
</g>
</svg>
