<?xml version="1.0" standalone="no"?>
<!DOCTYPE svg PUBLIC "-//W3C//DTD SVG 20010904//EN"
 "http://www.w3.org/TR/2001/REC-SVG-20010904/DTD/svg10.dtd">
<svg version="1.0" xmlns="http://www.w3.org/2000/svg"
 width="96.000000pt" height="68.000000pt" viewBox="0 0 96.000000 68.000000"
 preserveAspectRatio="xMidYMid meet">
<metadata>
Created by potrace 1.16, written by Peter Selinger 2001-2019
</metadata>
<g transform="translate(0.000000,68.000000) scale(0.100000,-0.100000)"
fill="#000000" stroke="none">
<path d="M671 211 c-11 -7 -9 -10 7 -15 14 -5 19 -14 17 -29 -7 -56 -15 -66
-55 -67 -19 0 -21 -3 -10 -9 8 -5 30 -6 47 -4 28 4 31 8 23 23 -7 13 -6 20 6
24 10 4 14 13 10 22 -3 8 -2 12 4 9 15 -9 31 30 18 43 -14 14 -47 15 -67 3z"/>
<path d="M564 192 c-13 -9 -16 -62 -3 -62 5 0 7 -5 4 -11 -4 -5 -4 -22 0 -37
6 -24 8 -25 17 -9 7 13 6 22 -2 33 -7 7 -10 14 -7 14 3 0 2 13 -3 29 -6 21 -5
31 3 34 7 2 10 7 7 10 -3 3 -10 3 -16 -1z"/>
<path d="M628 193 c7 -3 16 -2 19 1 4 3 -2 6 -13 5 -11 0 -14 -3 -6 -6z"/>
</g>
</svg>
