<?xml version="1.0" standalone="no"?>
<!DOCTYPE svg PUBLIC "-//W3C//DTD SVG 20010904//EN"
 "http://www.w3.org/TR/2001/REC-SVG-20010904/DTD/svg10.dtd">
<svg version="1.0" xmlns="http://www.w3.org/2000/svg"
 width="96.000000pt" height="68.000000pt" viewBox="0 0 96.000000 68.000000"
 preserveAspectRatio="xMidYMid meet">
<metadata>
Created by potrace 1.16, written by Peter Selinger 2001-2019
</metadata>
<g transform="translate(0.000000,68.000000) scale(0.100000,-0.100000)"
fill="#000000" stroke="none">
<path d="M597 196 c6 -93 20 -122 66 -134 67 -19 187 3 187 35 0 23 -24 93
-32 93 -5 0 -8 -13 -8 -30 0 -47 -30 -70 -94 -70 -36 0 -60 5 -70 16 -18 17
-21 79 -7 117 11 28 4 42 -25 49 -21 5 -22 4 -17 -76z"/>
</g>
</svg>
