<?xml version="1.0" standalone="no"?>
<!DOCTYPE svg PUBLIC "-//W3C//DTD SVG 20010904//EN"
 "http://www.w3.org/TR/2001/REC-SVG-20010904/DTD/svg10.dtd">
<svg version="1.0" xmlns="http://www.w3.org/2000/svg"
 width="96.000000pt" height="68.000000pt" viewBox="0 0 96.000000 68.000000"
 preserveAspectRatio="xMidYMid meet">
<metadata>
Created by potrace 1.16, written by Peter Selinger 2001-2019
</metadata>
<g transform="translate(0.000000,68.000000) scale(0.100000,-0.100000)"
fill="#000000" stroke="none">
<path d="M511 560 c-6 -21 -22 -52 -34 -67 -47 -58 -50 -63 -38 -63 6 0 28 17
49 38 29 31 47 40 86 45 l48 7 -16 -25 c-9 -14 -23 -36 -32 -50 -27 -42 -7
-41 38 1 90 83 101 96 86 105 -20 13 -48 11 -95 -7 -50 -19 -60 -15 -41 15 11
18 11 23 -2 31 -26 17 -37 11 -49 -30z"/>
</g>
</svg>
