<?xml version="1.0" standalone="no"?>
<!DOCTYPE svg PUBLIC "-//W3C//DTD SVG 20010904//EN"
 "http://www.w3.org/TR/2001/REC-SVG-20010904/DTD/svg10.dtd">
<svg version="1.0" xmlns="http://www.w3.org/2000/svg"
 width="96.000000pt" height="68.000000pt" viewBox="0 0 96.000000 68.000000"
 preserveAspectRatio="xMidYMid meet">
<metadata>
Created by potrace 1.16, written by Peter Selinger 2001-2019
</metadata>
<g transform="translate(0.000000,68.000000) scale(0.100000,-0.100000)"
fill="#000000" stroke="none">
<path d="M584 581 c16 -26 -156 -114 -214 -110 -27 2 -34 0 -31 -11 2 -8 6
-43 9 -76 8 -108 -37 -225 -116 -302 -38 -37 -42 -43 -22 -37 14 4 27 10 30
14 3 3 21 18 41 33 23 17 48 52 71 101 l36 74 117 7 c119 7 190 14 211 21 7 2
9 15 7 29 -3 15 3 38 16 59 27 44 26 51 -3 65 -17 8 -59 5 -169 -11 -114 -17
-149 -19 -159 -9 -9 9 -3 15 26 27 20 9 42 13 49 9 7 -4 9 -4 5 1 -4 4 40 23
97 43 58 19 105 39 105 44 0 11 -63 38 -90 38 -12 0 -19 -4 -16 -9z m92 -198
c-3 -26 -10 -50 -14 -54 -9 -9 -170 -29 -230 -29 l-44 0 7 43 c4 23 9 43 10
45 4 4 223 40 254 41 23 1 23 -1 17 -46z"/>
</g>
</svg>
