<?xml version="1.0" standalone="no"?>
<!DOCTYPE svg PUBLIC "-//W3C//DTD SVG 20010904//EN"
 "http://www.w3.org/TR/2001/REC-SVG-20010904/DTD/svg10.dtd">
<svg version="1.0" xmlns="http://www.w3.org/2000/svg"
 width="96.000000pt" height="68.000000pt" viewBox="0 0 96.000000 68.000000"
 preserveAspectRatio="xMidYMid meet">
<metadata>
Created by potrace 1.16, written by Peter Selinger 2001-2019
</metadata>
<g transform="translate(0.000000,68.000000) scale(0.100000,-0.100000)"
fill="#000000" stroke="none">
<path d="M205 544 c28 -43 58 -74 71 -74 23 0 37 39 22 57 -15 18 -69 43 -94
43 -15 0 -15 -2 1 -26z"/>
<path d="M480 553 c-1 -28 -37 -101 -71 -144 -32 -41 -27 -53 9 -19 12 11 24
20 28 20 8 0 -2 -153 -11 -185 -3 -11 1 -29 10 -40 14 -18 16 -19 28 -4 9 12
38 18 117 23 140 9 191 16 184 27 -3 5 -36 9 -75 9 -67 0 -69 1 -69 25 0 21 5
25 29 25 44 0 91 11 91 22 0 5 -26 8 -57 7 -52 -3 -58 -1 -61 18 -3 18 4 21
52 28 69 8 74 25 8 25 -55 0 -62 4 -55 31 4 16 14 19 59 19 57 0 72 15 28 26
-23 6 -156 -8 -221 -23 -17 -4 -23 -1 -23 11 0 9 4 16 8 16 5 0 18 17 30 38
16 30 19 41 10 50 -18 18 -48 14 -48 -5z m110 -149 c0 -23 -22 -34 -76 -34
-27 0 -31 4 -32 28 0 26 1 27 54 28 49 1 54 -1 54 -22z m0 -73 c0 -23 -19 -31
-71 -31 -35 0 -39 3 -39 25 0 24 3 25 55 25 47 0 55 -3 55 -19z m0 -76 c0 -22
-4 -25 -40 -26 -22 -1 -46 -2 -52 -3 -7 -1 -14 11 -16 27 -3 27 -2 27 52 27
53 0 56 -1 56 -25z"/>
<path d="M570 532 c0 -18 33 -52 51 -52 29 0 25 38 -7 50 -31 12 -44 13 -44 2z"/>
<path d="M198 451 c-54 -10 -101 -21 -104 -24 -8 -8 40 -27 69 -27 52 0 237
44 237 57 0 18 -78 15 -202 -6z"/>
<path d="M270 370 c-8 -5 -29 -10 -47 -10 -17 0 -35 -5 -39 -12 -5 -8 10 -9
59 -4 37 3 74 9 84 13 15 6 15 7 -3 14 -26 10 -37 10 -54 -1z"/>
<path d="M233 297 c-72 -14 -68 -31 5 -24 69 7 94 16 86 28 -6 10 -19 10 -91
-4z"/>
<path d="M280 224 c-19 -7 -56 -13 -83 -13 -47 -1 -47 -1 -33 -23 8 -13 17
-38 21 -55 7 -35 26 -55 33 -35 2 7 23 12 47 12 58 0 75 8 75 34 0 12 7 31 15
43 11 16 12 23 2 30 -23 18 -42 20 -77 7z m20 -49 c0 -36 -3 -38 -52 -49 -23
-5 -28 -2 -37 26 -15 43 -10 46 77 57 7 0 12 -12 12 -34z"/>
<path d="M740 149 c0 -16 62 -89 76 -89 19 0 26 17 15 39 -12 22 -91 66 -91
50z"/>
<path d="M410 136 c0 -9 -4 -16 -8 -16 -10 0 -33 -61 -26 -71 17 -29 70 35 63
76 -5 23 -29 32 -29 11z"/>
<path d="M626 118 c21 -41 41 -61 54 -53 29 18 -12 85 -52 85 -18 0 -18 -2 -2
-32z"/>
<path d="M500 132 c0 -17 52 -82 61 -76 14 8 2 55 -19 71 -19 14 -42 17 -42 5z"/>
</g>
</svg>
