<?xml version="1.0" standalone="no"?>
<!DOCTYPE svg PUBLIC "-//W3C//DTD SVG 20010904//EN"
 "http://www.w3.org/TR/2001/REC-SVG-20010904/DTD/svg10.dtd">
<svg version="1.0" xmlns="http://www.w3.org/2000/svg"
 width="96.000000pt" height="68.000000pt" viewBox="0 0 96.000000 68.000000"
 preserveAspectRatio="xMidYMid meet">
<metadata>
Created by potrace 1.16, written by Peter Selinger 2001-2019
</metadata>
<g transform="translate(0.000000,68.000000) scale(0.100000,-0.100000)"
fill="#000000" stroke="none">
<path d="M215 506 c31 -41 75 -51 75 -16 0 22 -19 34 -69 45 l-34 7 28 -36z"/>
<path d="M132 381 c18 -29 68 -55 80 -43 24 24 -21 62 -73 62 -16 0 -17 -3 -7
-19z"/>
<path d="M231 248 c-28 -35 -64 -72 -81 -81 -34 -21 -36 -27 -15 -67 10 -19
20 -27 30 -24 8 4 15 9 15 13 0 4 25 54 56 110 31 56 54 104 52 107 -3 3 -28
-24 -57 -58z"/>
</g>
</svg>
