<?xml version="1.0" standalone="no"?>
<!DOCTYPE svg PUBLIC "-//W3C//DTD SVG 20010904//EN"
 "http://www.w3.org/TR/2001/REC-SVG-20010904/DTD/svg10.dtd">
<svg version="1.0" xmlns="http://www.w3.org/2000/svg"
 width="96.000000pt" height="68.000000pt" viewBox="0 0 96.000000 68.000000"
 preserveAspectRatio="xMidYMid meet">
<metadata>
Created by potrace 1.16, written by Peter Selinger 2001-2019
</metadata>
<g transform="translate(0.000000,68.000000) scale(0.100000,-0.100000)"
fill="#000000" stroke="none">
<path d="M375 210 c-4 -6 7 -10 24 -10 28 0 31 -3 31 -30 0 -16 -5 -41 -12
-55 -10 -22 -17 -26 -42 -22 -17 2 -40 8 -51 12 -14 6 -10 -3 14 -28 59 -63
98 -44 137 64 21 57 21 60 3 69 -23 13 -96 13 -104 0z"/>
</g>
</svg>
