<?xml version="1.0" standalone="no"?>
<!DOCTYPE svg PUBLIC "-//W3C//DTD SVG 20010904//EN"
 "http://www.w3.org/TR/2001/REC-SVG-20010904/DTD/svg10.dtd">
<svg version="1.0" xmlns="http://www.w3.org/2000/svg"
 width="96.000000pt" height="68.000000pt" viewBox="0 0 96.000000 68.000000"
 preserveAspectRatio="xMidYMid meet">
<metadata>
Created by potrace 1.16, written by Peter Selinger 2001-2019
</metadata>
<g transform="translate(0.000000,68.000000) scale(0.100000,-0.100000)"
fill="#000000" stroke="none">
<path d="M406 595 c5 -31 3 -36 -21 -45 -14 -5 -45 -10 -68 -11 -23 -1 -53 -4
-66 -8 -22 -6 -22 -8 -7 -20 12 -10 34 -12 88 -7 l71 6 -15 -22 c-12 -18 -26
-24 -67 -26 -66 -4 -64 -26 2 -30 26 -2 47 -6 47 -10 -1 -22 -24 -32 -95 -38
-44 -4 -89 -10 -100 -14 -34 -12 39 -23 102 -15 53 6 54 6 43 -14 -13 -26 -98
-90 -164 -125 -41 -22 -45 -26 -24 -26 15 0 52 14 83 30 61 32 61 32 107 -13
24 -23 48 -22 48 3 0 19 -7 24 -68 45 -9 3 5 24 40 59 45 47 60 56 101 61 48
7 48 7 103 -48 101 -101 121 -110 238 -108 76 1 65 12 -47 45 -55 17 -110 42
-149 69 l-62 42 40 2 c21 2 64 6 94 9 51 6 53 7 35 21 -20 15 -96 14 -232 -3
-29 -4 -53 -3 -53 2 1 24 22 34 90 45 41 6 79 14 83 19 15 14 -45 21 -95 11
-27 -4 -48 -5 -48 0 0 20 34 37 90 43 76 9 90 14 90 33 0 13 -12 15 -75 11
-74 -5 -75 -5 -69 18 5 19 1 26 -21 34 -48 18 -57 14 -49 -25z"/>
<path d="M427 210 c7 -113 -1 -135 -43 -120 -32 12 -30 6 7 -30 37 -35 41 -36
62 -12 14 15 17 40 17 130 0 100 -2 112 -19 122 -11 5 -22 10 -24 10 -3 0 -3
-45 0 -100z"/>
<path d="M521 248 c-11 -18 -18 -34 -15 -37 5 -6 74 32 74 41 0 4 -9 12 -19
18 -16 8 -23 4 -40 -22z"/>
<path d="M360 165 c-14 -8 -47 -22 -75 -31 -27 -9 -54 -19 -58 -21 -12 -7 13
-33 32 -33 15 0 141 86 141 96 0 7 -15 3 -40 -11z"/>
<path d="M545 146 c90 -76 125 -89 125 -45 0 22 -56 51 -120 64 l-35 7 30 -26z"/>
</g>
</svg>
