<?xml version="1.0" standalone="no"?>
<!DOCTYPE svg PUBLIC "-//W3C//DTD SVG 20010904//EN"
 "http://www.w3.org/TR/2001/REC-SVG-20010904/DTD/svg10.dtd">
<svg version="1.0" xmlns="http://www.w3.org/2000/svg"
 width="96.000000pt" height="68.000000pt" viewBox="0 0 96.000000 68.000000"
 preserveAspectRatio="xMidYMid meet">
<metadata>
Created by potrace 1.16, written by Peter Selinger 2001-2019
</metadata>
<g transform="translate(0.000000,68.000000) scale(0.100000,-0.100000)"
fill="#000000" stroke="none">
<path d="M520 566 c0 -24 -4 -56 -10 -70 -8 -23 -15 -26 -60 -26 -33 0 -49 -4
-45 -10 4 -6 24 -9 45 -6 26 3 40 0 44 -9 8 -22 -17 -34 -73 -36 -28 -1 -54
-6 -56 -10 -7 -10 43 -21 65 -14 38 12 28 -14 -19 -54 -27 -23 -52 -41 -55
-41 -11 0 -6 166 5 199 10 27 8 35 -7 52 -16 18 -25 20 -59 13 -22 -4 -62 -7
-90 -7 l-50 1 0 -172 0 -173 -32 -61 c-20 -40 -27 -62 -19 -62 30 0 77 75 97
153 10 42 14 47 39 47 16 0 36 3 46 7 16 6 17 -1 11 -76 -3 -45 -7 -85 -10
-88 -3 -2 -15 1 -27 7 -34 18 -35 4 -4 -34 60 -72 94 -36 94 99 0 74 2 85 18
85 9 0 26 7 36 15 33 25 38 18 34 -52 l-3 -68 35 1 c19 1 76 5 126 8 104 6
108 4 94 -59 -12 -54 -32 -72 -65 -57 -31 14 -31 5 0 -31 41 -46 87 -15 106
71 4 20 11 49 14 63 6 23 3 27 -25 33 -18 3 -61 6 -96 6 -36 0 -64 4 -64 10 0
6 12 11 28 11 62 3 73 11 22 18 -25 3 -44 11 -42 16 2 10 6 12 47 14 39 2 30
21 -10 21 -24 0 -35 5 -35 15 0 10 11 15 35 15 19 0 35 5 35 10 0 12 -14 12
-105 0 -38 -5 -71 -7 -73 -5 -9 8 56 64 78 65 46 4 57 0 86 -27 77 -73 111
-93 157 -93 64 0 65 14 4 33 -58 19 -157 73 -157 86 0 5 30 9 67 10 67 1 82 5
69 18 -9 10 -81 10 -168 0 -70 -7 -81 -2 -52 27 9 10 33 16 59 16 24 0 47 5
51 11 4 8 -11 10 -50 7 l-57 -3 7 35 c14 66 11 85 -13 88 -21 3 -23 -1 -23
-42z m-222 -93 c3 -38 1 -43 -18 -43 -12 0 -30 -5 -41 -10 -18 -10 -19 -7 -19
39 0 52 8 61 50 58 22 -2 25 -7 28 -44z m2 -117 c0 -29 -4 -34 -31 -40 -52
-10 -59 -8 -59 22 0 38 10 50 45 54 41 5 45 2 45 -36z m228 -53 c-4 -22 -58
-31 -58 -10 0 20 10 27 37 27 18 0 24 -5 21 -17z m2 -48 c0 -10 -10 -15 -30
-15 -20 0 -30 5 -30 15 0 10 10 15 30 15 20 0 30 -5 30 -15z m-3 -41 c5 -16
-55 -24 -61 -8 -3 7 -2 15 2 18 10 11 55 2 59 -10z"/>
<path d="M636 555 c-30 -39 -23 -43 31 -20 35 15 35 16 18 35 -10 11 -19 20
-20 20 -2 0 -15 -16 -29 -35z"/>
<path d="M420 542 c0 -10 33 -42 43 -42 15 0 6 30 -12 40 -24 12 -31 13 -31 2z"/>
<path d="M590 153 c1 -14 27 -43 39 -43 23 0 7 45 -16 48 -13 2 -23 0 -23 -5z"/>
<path d="M390 140 c0 -7 -7 -21 -16 -31 -20 -23 -11 -57 10 -40 19 16 29 62
17 74 -8 8 -11 7 -11 -3z"/>
<path d="M520 143 c0 -5 7 -17 15 -27 14 -18 15 -18 21 -2 4 11 1 22 -7 27
-17 11 -29 11 -29 2z"/>
<path d="M450 132 c0 -15 28 -47 35 -40 11 11 -5 48 -21 48 -8 0 -14 -4 -14
-8z"/>
</g>
</svg>
