<?xml version="1.0" standalone="no"?>
<!DOCTYPE svg PUBLIC "-//W3C//DTD SVG 20010904//EN"
 "http://www.w3.org/TR/2001/REC-SVG-20010904/DTD/svg10.dtd">
<svg version="1.0" xmlns="http://www.w3.org/2000/svg"
 width="96.000000pt" height="68.000000pt" viewBox="0 0 96.000000 68.000000"
 preserveAspectRatio="xMidYMid meet">
<metadata>
Created by potrace 1.16, written by Peter Selinger 2001-2019
</metadata>
<g transform="translate(0.000000,68.000000) scale(0.100000,-0.100000)"
fill="#000000" stroke="none">
<path d="M467 560 c6 -50 6 -50 -23 -51 -16 0 -38 -4 -49 -9 -15 -6 -8 -9 28
-9 43 -1 47 -3 47 -25 0 -21 -6 -24 -57 -31 -37 -5 -51 -10 -40 -14 20 -7 285
14 294 23 18 18 -38 24 -110 12 -47 -7 -48 -7 -45 16 2 18 12 25 48 32 53 11
59 14 41 25 -7 5 -28 5 -47 1 l-34 -8 0 38 c0 31 -4 39 -22 44 -37 9 -37 8
-31 -44z"/>
</g>
</svg>
