<?xml version="1.0" standalone="no"?>
<!DOCTYPE svg PUBLIC "-//W3C//DTD SVG 20010904//EN"
 "http://www.w3.org/TR/2001/REC-SVG-20010904/DTD/svg10.dtd">
<svg version="1.0" xmlns="http://www.w3.org/2000/svg"
 width="96.000000pt" height="68.000000pt" viewBox="0 0 96.000000 68.000000"
 preserveAspectRatio="xMidYMid meet">
<metadata>
Created by potrace 1.16, written by Peter Selinger 2001-2019
</metadata>
<g transform="translate(0.000000,68.000000) scale(0.100000,-0.100000)"
fill="#000000" stroke="none">
<path d="M354 365 c6 -22 3 -25 -19 -25 -14 0 -25 -4 -25 -10 0 -5 11 -10 25
-10 20 0 25 -5 25 -25 0 -22 -4 -25 -36 -25 -24 0 -34 -4 -32 -12 8 -23 37
-20 109 8 65 26 110 56 61 41 -12 -4 -31 -10 -42 -13 -16 -5 -20 -2 -20 15 0
16 8 23 30 28 36 7 40 23 6 23 -13 0 -26 7 -30 15 -3 8 -17 15 -32 15 -23 0
-25 -3 -20 -25z"/>
</g>
</svg>
