<?xml version="1.0" standalone="no"?>
<!DOCTYPE svg PUBLIC "-//W3C//DTD SVG 20010904//EN"
 "http://www.w3.org/TR/2001/REC-SVG-20010904/DTD/svg10.dtd">
<svg version="1.0" xmlns="http://www.w3.org/2000/svg"
 width="96.000000pt" height="68.000000pt" viewBox="0 0 96.000000 68.000000"
 preserveAspectRatio="xMidYMid meet">
<metadata>
Created by potrace 1.16, written by Peter Selinger 2001-2019
</metadata>
<g transform="translate(0.000000,68.000000) scale(0.100000,-0.100000)"
fill="#000000" stroke="none">
<path d="M598 470 c-16 -39 -38 -54 -38 -26 0 14 -36 46 -52 46 -11 0 17 -53
36 -69 23 -19 22 -107 -1 -120 -16 -9 -16 -12 -3 -21 35 -23 45 -8 48 72 3 76
4 78 38 105 33 25 35 28 18 40 -25 18 -27 17 -46 -27z"/>
<path d="M691 449 c-16 -21 -29 -28 -42 -24 -17 6 -19 1 -19 -44 0 -27 -3 -56
-6 -65 -10 -26 30 -19 57 10 l24 26 -22 -6 c-20 -6 -23 -4 -23 18 0 29 9 56
20 56 4 0 26 -27 49 -60 38 -54 46 -60 77 -60 41 0 44 13 6 29 -16 7 -48 32
-71 55 l-42 43 31 13 c24 10 28 15 19 26 -17 21 -31 16 -58 -17z"/>
<path d="M455 410 c-11 -5 -33 -9 -50 -10 -25 0 -27 -2 -12 -11 23 -13 22 -40
-4 -73 -34 -43 -13 -43 26 0 27 29 34 45 30 61 -4 19 -1 23 20 23 21 0 25 -5
25 -29 0 -39 -9 -61 -26 -61 -19 0 -18 -19 2 -27 22 -8 40 15 53 71 10 40 10
51 -1 57 -16 11 -37 10 -63 -1z"/>
<path d="M674 262 c6 -17 0 -20 -65 -26 -40 -3 -82 -9 -94 -12 -17 -4 -24 0
-28 15 -3 14 -13 21 -30 21 -23 0 -24 -2 -17 -41 11 -58 -6 -118 -43 -156 -34
-36 -28 -41 17 -14 16 9 38 33 49 54 17 32 24 37 55 37 21 0 67 3 103 6 l66 7
-4 -48 c-6 -59 3 -95 22 -95 21 0 26 32 23 155 l-3 110 -28 3 c-25 3 -28 1
-23 -16z m11 -66 c0 -23 -4 -24 -89 -31 -49 -4 -95 -9 -102 -12 -10 -4 -14 4
-14 25 l0 31 68 4 c37 2 83 4 102 5 31 2 35 -1 35 -22z"/>
</g>
</svg>
