<?xml version="1.0" standalone="no"?>
<!DOCTYPE svg PUBLIC "-//W3C//DTD SVG 20010904//EN"
 "http://www.w3.org/TR/2001/REC-SVG-20010904/DTD/svg10.dtd">
<svg version="1.0" xmlns="http://www.w3.org/2000/svg"
 width="96.000000pt" height="68.000000pt" viewBox="0 0 96.000000 68.000000"
 preserveAspectRatio="xMidYMid meet">
<metadata>
Created by potrace 1.16, written by Peter Selinger 2001-2019
</metadata>
<g transform="translate(0.000000,68.000000) scale(0.100000,-0.100000)"
fill="#000000" stroke="none">
<path d="M210 505 c38 -39 67 -52 82 -37 25 25 -38 72 -95 72 -19 0 -17 -4 13
-35z"/>
<path d="M213 385 c-83 -27 -91 -39 -20 -31 31 4 57 4 57 1 0 -4 -7 -19 -16
-35 -16 -26 -16 -29 8 -61 58 -77 43 -99 -66 -99 -66 0 -83 -10 -47 -29 13 -7
37 -7 76 0 70 13 102 8 275 -43 106 -31 146 -39 185 -35 53 6 180 49 155 54
-8 1 -85 7 -171 12 -85 5 -199 17 -252 27 l-97 17 0 37 c0 27 -7 43 -30 65
l-31 30 41 36 c46 41 49 52 18 65 -17 7 -40 4 -85 -11z"/>
</g>
</svg>
