<?xml version="1.0" standalone="no"?>
<!DOCTYPE svg PUBLIC "-//W3C//DTD SVG 20010904//EN"
 "http://www.w3.org/TR/2001/REC-SVG-20010904/DTD/svg10.dtd">
<svg version="1.0" xmlns="http://www.w3.org/2000/svg"
 width="96.000000pt" height="68.000000pt" viewBox="0 0 96.000000 68.000000"
 preserveAspectRatio="xMidYMid meet">
<metadata>
Created by potrace 1.16, written by Peter Selinger 2001-2019
</metadata>
<g transform="translate(0.000000,68.000000) scale(0.100000,-0.100000)"
fill="#000000" stroke="none">
<path d="M505 547 c-29 -59 -32 -62 -64 -59 -28 3 -32 1 -28 -15 15 -50 17
-106 8 -187 -7 -59 -7 -95 0 -107 12 -23 29 -25 29 -4 0 11 11 15 38 15 20 0
67 3 105 7 60 5 67 8 67 28 0 11 7 30 15 41 41 54 4 70 -110 47 -99 -20 -113
-17 -107 29 3 27 8 34 25 34 145 2 157 3 157 25 0 12 9 37 21 55 l20 34 -25
11 c-19 9 -38 8 -86 -4 -33 -8 -62 -11 -65 -7 -2 4 13 26 35 49 44 46 48 56
24 65 -26 10 -28 8 -59 -57z m105 -94 c0 -43 -10 -50 -82 -57 l-68 -7 0 39 0
38 47 3 c26 1 49 4 52 7 2 2 15 4 28 4 18 0 23 -5 23 -27z m13 -192 c0 -18 -3
-34 -5 -36 -2 -2 -40 -5 -83 -7 l-80 -3 3 30 c2 17 5 31 6 32 4 4 131 21 146
19 10 -1 15 -12 13 -35z"/>
<path d="M207 500 c51 -48 93 -55 93 -15 0 31 -43 55 -97 55 l-38 -1 42 -39z"/>
<path d="M215 389 c-27 -9 -59 -20 -70 -23 -38 -11 6 -25 59 -19 l51 6 -22
-25 c-29 -31 -29 -36 7 -78 17 -19 30 -45 30 -57 0 -22 -3 -23 -79 -23 -83 0
-109 -12 -76 -36 13 -10 42 -12 109 -8 85 6 99 4 216 -31 203 -61 192 -59 267
-40 37 9 84 25 102 34 l35 19 -50 5 c-27 4 -103 9 -169 12 -101 5 -193 17
-301 40 -17 4 -20 10 -16 34 3 24 -3 37 -28 62 l-31 32 42 43 c24 24 41 45 38
47 -10 10 -48 27 -56 26 -4 -1 -30 -10 -58 -20z"/>
</g>
</svg>
