<?xml version="1.0" standalone="no"?>
<!DOCTYPE svg PUBLIC "-//W3C//DTD SVG 20010904//EN"
 "http://www.w3.org/TR/2001/REC-SVG-20010904/DTD/svg10.dtd">
<svg version="1.0" xmlns="http://www.w3.org/2000/svg"
 width="96.000000pt" height="68.000000pt" viewBox="0 0 96.000000 68.000000"
 preserveAspectRatio="xMidYMid meet">
<metadata>
Created by potrace 1.16, written by Peter Selinger 2001-2019
</metadata>
<g transform="translate(0.000000,68.000000) scale(0.100000,-0.100000)"
fill="#000000" stroke="none">
<path d="M390 621 c0 -5 12 -24 26 -41 15 -17 25 -32 23 -34 -2 -2 -48 -6
-101 -9 -84 -6 -99 -4 -107 10 -7 14 -14 7 -35 -35 -14 -28 -26 -59 -26 -67 0
-28 33 -12 59 28 22 34 28 37 71 37 25 0 71 4 101 10 75 13 242 29 251 23 5
-2 1 -18 -8 -34 l-15 -30 38 7 c90 16 106 38 49 69 -30 16 -42 17 -123 6 -112
-14 -113 -14 -113 3 0 22 -33 53 -62 60 -16 4 -28 2 -28 -3z"/>
</g>
</svg>
