<?xml version="1.0" standalone="no"?>
<!DOCTYPE svg PUBLIC "-//W3C//DTD SVG 20010904//EN"
 "http://www.w3.org/TR/2001/REC-SVG-20010904/DTD/svg10.dtd">
<svg version="1.0" xmlns="http://www.w3.org/2000/svg"
 width="96.000000pt" height="68.000000pt" viewBox="0 0 96.000000 68.000000"
 preserveAspectRatio="xMidYMid meet">
<metadata>
Created by potrace 1.16, written by Peter Selinger 2001-2019
</metadata>
<g transform="translate(0.000000,68.000000) scale(0.100000,-0.100000)"
fill="#000000" stroke="none">
<path d="M405 613 c14 -51 11 -58 -20 -61 -130 -11 -152 -32 -34 -32 52 0 69
-3 69 -14 0 -15 -32 -20 -193 -32 -90 -7 -118 -18 -71 -30 25 -6 149 0 227 13
33 5 37 3 37 -15 0 -18 -8 -21 -57 -27 -81 -9 -94 -15 -63 -27 14 -5 46 -7 71
-4 37 5 48 3 53 -10 10 -27 -3 -34 -60 -34 -30 0 -54 -4 -54 -10 0 -5 24 -10
54 -10 30 0 57 -4 60 -8 13 -22 -17 -31 -122 -38 -61 -4 -112 -11 -112 -15 0
-18 52 -20 172 -10 68 6 177 13 243 17 66 3 124 10 129 14 17 16 -46 23 -155
16 -104 -7 -109 -6 -109 13 0 16 9 21 58 26 31 4 64 9 72 12 29 10 -35 21 -83
13 -45 -6 -47 -6 -47 17 0 22 4 23 64 23 61 0 89 11 66 25 -7 4 -7 12 0 25 8
15 27 19 105 25 52 4 98 11 100 16 12 18 -40 31 -107 27 -66 -5 -68 -5 -52 13
9 10 14 25 11 33 -8 21 -67 30 -113 17 -54 -15 -57 -14 -50 14 7 29 -16 45
-64 45 -30 0 -32 -2 -25 -27z m163 -90 c-4 -24 -88 -32 -88 -9 0 18 15 24 58
25 27 1 33 -3 30 -16z m-26 -68 c2 -12 -49 -31 -58 -22 -4 3 -4 13 0 22 6 18
55 18 58 0z"/>
<path d="M579 235 c-6 -5 -225 -28 -281 -29 -36 -1 -48 -9 -29 -20 5 -3 17
-37 27 -76 17 -67 19 -70 44 -66 14 3 68 8 121 12 92 6 96 5 102 -15 13 -52
57 -4 75 84 6 28 14 58 17 67 5 12 -2 21 -24 32 -31 17 -44 19 -52 11z m6 -53
c0 -21 -5 -24 -55 -27 -30 -2 -89 -7 -131 -10 -61 -6 -77 -4 -82 7 -10 27 8
35 108 45 144 15 160 13 160 -15z m5 -54 c0 -28 -19 -34 -129 -46 -93 -11
-116 -10 -123 0 -18 29 -8 38 45 39 28 0 75 4 102 9 78 12 105 11 105 -2z"/>
</g>
</svg>
