<?xml version="1.0" standalone="no"?>
<!DOCTYPE svg PUBLIC "-//W3C//DTD SVG 20010904//EN"
 "http://www.w3.org/TR/2001/REC-SVG-20010904/DTD/svg10.dtd">
<svg version="1.0" xmlns="http://www.w3.org/2000/svg"
 width="96.000000pt" height="68.000000pt" viewBox="0 0 96.000000 68.000000"
 preserveAspectRatio="xMidYMid meet">
<metadata>
Created by potrace 1.16, written by Peter Selinger 2001-2019
</metadata>
<g transform="translate(0.000000,68.000000) scale(0.100000,-0.100000)"
fill="#000000" stroke="none">
<path d="M435 521 c-6 -28 -69 -122 -87 -129 -15 -7 -8 -24 8 -18 20 8 84 -19
84 -36 0 -12 -12 -23 -83 -80 -60 -48 37 3 110 57 9 7 21 5 37 -5 121 -76 119
-75 186 -75 36 0 79 4 95 9 28 8 28 9 9 16 -11 5 -47 11 -80 15 -48 5 -99 18
-164 41 -3 1 -15 5 -27 9 -13 4 -23 11 -23 17 0 5 18 33 40 63 49 66 40 81
-42 70 l-53 -7 29 30 c31 33 28 52 -9 52 -18 0 -25 -7 -30 -29z m75 -76 c0
-17 -28 -65 -44 -77 -9 -6 -52 8 -70 24 -14 11 25 45 65 57 47 13 49 13 49 -4z"/>
<path d="M222 490 c-13 -28 -40 -64 -62 -82 -42 -33 -48 -49 -26 -67 9 -8 21
-8 45 0 18 6 35 8 38 5 7 -7 -76 -85 -89 -86 -15 0 -8 -19 10 -29 12 -6 29 -4
57 10 59 27 105 35 116 18 8 -12 11 -12 19 1 6 10 5 21 -4 35 -16 25 -52 34
-43 12 4 -11 -4 -19 -25 -26 -75 -26 -74 -13 8 63 75 71 78 75 62 92 -17 17
-18 17 -33 -1 -8 -11 -15 -25 -15 -31 0 -11 -44 -24 -78 -24 -10 0 6 22 41 58
58 59 69 85 41 96 -31 12 -39 5 -62 -44z"/>
<path d="M650 504 c-6 -14 -10 -29 -10 -33 0 -7 -14 -27 -58 -82 -31 -38 -12
-37 31 1 19 17 39 30 43 30 5 0 29 -18 54 -40 51 -46 70 -50 70 -16 0 20 -11
30 -55 51 -48 22 -72 45 -47 45 4 0 13 9 20 21 10 16 10 24 1 35 -18 22 -38
17 -49 -12z"/>
<path d="M290 221 c0 -5 9 -19 19 -32 17 -21 20 -22 26 -7 4 10 1 24 -8 33
-17 17 -37 20 -37 6z"/>
<path d="M515 204 c-38 -7 -85 -10 -102 -7 l-33 5 14 -27 c8 -16 18 -47 22
-69 7 -45 24 -73 33 -57 4 5 52 13 109 17 56 4 102 11 102 15 0 5 -5 9 -11 9
-14 0 -2 37 23 73 11 16 19 30 17 31 -33 28 -68 30 -174 10z m88 -44 c-7 -65
-9 -67 -75 -74 -34 -3 -65 -3 -69 1 -4 5 -9 26 -11 47 -3 39 -3 40 37 44 22 2
42 6 45 8 2 3 20 4 40 2 31 -3 35 -6 33 -28z"/>
<path d="M228 170 c9 -16 23 -30 30 -30 19 0 14 38 -7 50 -33 17 -41 11 -23
-20z"/>
<path d="M130 169 c0 -19 34 -69 47 -69 19 0 25 18 11 39 -14 24 -58 46 -58
30z"/>
</g>
</svg>
