<?xml version="1.0" standalone="no"?>
<!DOCTYPE svg PUBLIC "-//W3C//DTD SVG 20010904//EN"
 "http://www.w3.org/TR/2001/REC-SVG-20010904/DTD/svg10.dtd">
<svg version="1.0" xmlns="http://www.w3.org/2000/svg"
 width="96.000000pt" height="68.000000pt" viewBox="0 0 96.000000 68.000000"
 preserveAspectRatio="xMidYMid meet">
<metadata>
Created by potrace 1.16, written by Peter Selinger 2001-2019
</metadata>
<g transform="translate(0.000000,68.000000) scale(0.100000,-0.100000)"
fill="#000000" stroke="none">
<path d="M505 230 c-27 -5 -89 -9 -137 -9 l-88 -1 20 -32 c11 -18 22 -51 26
-74 9 -63 11 -64 89 -54 39 5 101 9 139 10 57 0 67 2 62 16 -7 17 17 80 40
105 13 15 12 18 -10 33 -27 17 -59 18 -141 6z m75 -37 c0 -10 -5 -34 -10 -55
l-10 -36 -84 -7 c-47 -4 -90 -5 -97 -3 -13 4 -42 89 -33 97 5 5 122 16 197 19
29 2 37 -2 37 -15z"/>
</g>
</svg>
