<?xml version="1.0" standalone="no"?>
<!DOCTYPE svg PUBLIC "-//W3C//DTD SVG 20010904//EN"
 "http://www.w3.org/TR/2001/REC-SVG-20010904/DTD/svg10.dtd">
<svg version="1.0" xmlns="http://www.w3.org/2000/svg"
 width="90.000000pt" height="92.000000pt" viewBox="0 0 90.000000 92.000000"
 preserveAspectRatio="xMidYMid meet">
<metadata>
Created by potrace 1.16, written by Peter Selinger 2001-2019
</metadata>
<g transform="translate(0.000000,92.000000) scale(0.100000,-0.100000)"
fill="#000000" stroke="none">
<path d="M236 848 c-3 -7 -7 -31 -11 -52 -12 -73 -97 -214 -188 -313 -21 -23
-37 -47 -35 -54 4 -13 89 52 135 104 28 32 35 35 67 30 31 -5 36 -10 42 -40 4
-19 2 -39 -2 -43 -5 -5 -44 -15 -87 -21 -42 -6 -77 -15 -77 -19 0 -17 59 -29
92 -19 62 17 70 14 66 -33 -3 -37 -7 -43 -33 -50 -17 -4 -42 -5 -57 -2 -32 7
-32 7 -14 -37 8 -19 17 -57 21 -84 8 -61 21 -87 34 -67 5 9 38 16 90 19 70 5
81 8 76 23 -3 9 8 43 25 76 16 32 30 60 30 61 0 1 -14 10 -31 18 -22 12 -43
14 -71 10 -39 -7 -41 -6 -35 16 4 13 7 29 7 36 0 23 32 43 70 43 21 0 41 4 45
9 9 16 -34 33 -67 26 -29 -7 -30 -6 -23 24 4 20 2 37 -5 46 -10 12 -9 15 8 15
11 0 33 5 49 11 26 10 27 11 9 21 -13 7 -40 7 -92 -2 -41 -7 -77 -10 -80 -7
-6 6 77 157 87 157 3 0 29 -20 58 -45 56 -48 71 -50 71 -9 0 27 -42 59 -92 70
-23 4 -28 10 -23 25 7 21 -7 44 -37 60 -13 7 -19 6 -22 -3z m86 -530 c4 -11
-8 -98 -15 -104 -1 -1 -28 -5 -59 -9 l-58 -7 0 55 0 56 38 6 c20 4 42 8 47 10
22 8 44 4 47 -7z"/>
<path d="M600 769 c-36 -10 -84 -18 -107 -18 -48 -1 -56 -16 -19 -33 19 -8 39
-7 88 7 35 9 74 15 87 13 22 -3 22 -4 -15 -59 -37 -55 -39 -56 -72 -47 -57 16
-59 3 -7 -50 l50 -50 -44 -6 c-24 -3 -70 -6 -102 -6 -64 0 -73 -10 -34 -36 20
-13 33 -14 72 -5 41 9 50 8 61 -6 15 -21 17 -338 2 -348 -5 -3 -26 -1 -47 4
-20 6 -38 9 -40 7 -6 -6 93 -106 105 -106 6 0 20 12 29 27 16 24 18 53 18 230
0 128 -4 203 -10 204 -5 1 4 5 20 9 40 10 125 12 125 2 0 -4 -12 -25 -26 -46
-23 -34 -24 -38 -8 -32 10 4 42 12 69 18 28 7 56 16 62 21 18 13 1 41 -42 70
-33 23 -38 23 -108 12 l-74 -12 5 24 c2 13 -1 30 -8 39 -11 12 -8 20 21 45 19
16 53 41 77 55 23 14 42 32 42 39 0 16 -65 56 -88 54 -9 -1 -46 -10 -82 -20z"/>
</g>
</svg>
