<?xml version="1.0" standalone="no"?>
<!DOCTYPE svg PUBLIC "-//W3C//DTD SVG 20010904//EN"
 "http://www.w3.org/TR/2001/REC-SVG-20010904/DTD/svg10.dtd">
<svg version="1.0" xmlns="http://www.w3.org/2000/svg"
 width="96.000000pt" height="68.000000pt" viewBox="0 0 96.000000 68.000000"
 preserveAspectRatio="xMidYMid meet">
<metadata>
Created by potrace 1.16, written by Peter Selinger 2001-2019
</metadata>
<g transform="translate(0.000000,68.000000) scale(0.100000,-0.100000)"
fill="#000000" stroke="none">
<path d="M296 561 c-7 -48 -72 -137 -155 -213 -65 -61 -63 -76 4 -32 57 38 91
71 143 139 25 33 48 63 52 68 4 4 24 -6 45 -23 43 -34 75 -39 75 -11 0 18 -27
34 -82 47 -18 4 -25 11 -21 20 7 18 -15 44 -37 44 -13 0 -19 -11 -24 -39z"/>
</g>
</svg>
