<?xml version="1.0" standalone="no"?>
<!DOCTYPE svg PUBLIC "-//W3C//DTD SVG 20010904//EN"
 "http://www.w3.org/TR/2001/REC-SVG-20010904/DTD/svg10.dtd">
<svg version="1.0" xmlns="http://www.w3.org/2000/svg"
 width="90.000000pt" height="92.000000pt" viewBox="0 0 90.000000 92.000000"
 preserveAspectRatio="xMidYMid meet">
<metadata>
Created by potrace 1.16, written by Peter Selinger 2001-2019
</metadata>
<g transform="translate(0.000000,92.000000) scale(0.100000,-0.100000)"
fill="#000000" stroke="none">
<path d="M465 872 c-11 -20 -56 -66 -102 -102 -44 -36 -80 -67 -78 -68 4 -4
73 27 135 62 43 24 197 59 205 46 2 -3 -13 -25 -33 -48 l-37 -42 -40 20 c-69
35 -85 23 -35 -25 l30 -29 -48 -34 c-26 -18 -69 -45 -95 -59 -62 -31 -55 -40
12 -14 28 10 51 15 51 9 0 -5 -26 -36 -57 -69 -50 -53 -54 -59 -28 -49 17 6
44 22 62 36 37 28 97 33 107 8 12 -32 6 -54 -16 -58 -24 -5 -185 -26 -200 -26
-19 0 -6 -19 19 -27 17 -6 52 -5 97 3 112 20 106 23 106 -50 l0 -63 -37 -7
c-21 -3 -48 -6 -60 -6 -20 0 -21 2 -11 32 10 28 9 33 -11 50 -29 23 -39 17
-33 -22 2 -17 -1 -43 -8 -59 -9 -22 -9 -34 0 -50 10 -19 13 -20 38 -7 34 17
147 43 230 52 62 7 62 6 62 -19 0 -14 4 -28 9 -31 16 -10 30 19 40 84 12 71 4
90 -34 90 -21 0 -22 -4 -18 -44 5 -42 4 -43 -27 -50 -18 -3 -47 -6 -64 -6
l-31 0 3 64 4 64 109 8 c60 3 112 10 115 15 2 4 -7 16 -21 25 -23 15 -34 15
-95 5 -106 -17 -107 -17 -105 26 2 21 7 38 11 39 5 2 35 5 67 9 58 7 66 18 22
35 -14 5 -37 5 -57 -1 -18 -5 -62 -16 -98 -24 -55 -11 -62 -11 -46 0 19 15 16
45 -5 45 -7 0 16 18 50 40 63 41 204 166 209 186 2 6 -11 17 -29 24 -27 12
-40 11 -98 -8 -83 -27 -100 -28 -70 -3 21 18 22 21 9 34 -33 32 -54 29 -75
-11z"/>
<path d="M90 737 c0 -7 20 -32 44 -56 34 -33 49 -42 65 -36 21 6 28 38 13 62
-8 13 -84 43 -108 43 -8 0 -14 -6 -14 -13z"/>
<path d="M343 673 c-35 -2 -63 -8 -63 -12 0 -4 9 -16 20 -26 17 -16 25 -17 58
-6 20 6 55 20 77 30 l40 19 -35 -1 c-19 0 -63 -2 -97 -4z"/>
<path d="M150 545 c-14 -8 -46 -22 -72 -30 -69 -24 -61 -39 16 -33 l64 6 -16
-44 c-15 -39 -15 -45 0 -61 28 -32 48 -81 48 -118 l0 -35 -85 0 c-48 0 -85 -4
-85 -10 0 -21 44 -50 64 -43 12 5 57 8 101 8 74 0 90 -4 210 -54 72 -29 156
-63 187 -74 l58 -20 97 31 c54 17 107 38 118 46 19 15 18 15 -20 16 -82 1
-317 20 -363 30 -26 6 -95 25 -155 42 -86 26 -106 35 -101 48 4 8 9 30 12 48
4 28 -1 38 -36 71 l-40 38 51 53 52 52 -28 24 c-32 28 -42 29 -77 9z"/>
</g>
</svg>
