<?xml version="1.0" standalone="no"?>
<!DOCTYPE svg PUBLIC "-//W3C//DTD SVG 20010904//EN"
 "http://www.w3.org/TR/2001/REC-SVG-20010904/DTD/svg10.dtd">
<svg version="1.0" xmlns="http://www.w3.org/2000/svg"
 width="96.000000pt" height="68.000000pt" viewBox="0 0 96.000000 68.000000"
 preserveAspectRatio="xMidYMid meet">
<metadata>
Created by potrace 1.16, written by Peter Selinger 2001-2019
</metadata>
<g transform="translate(0.000000,68.000000) scale(0.100000,-0.100000)"
fill="#000000" stroke="none">
<path d="M340 574 c-37 -8 -86 -11 -115 -8 -48 6 -49 6 -33 -12 9 -11 24 -38
33 -62 l17 -43 77 7 c42 4 83 8 91 10 8 1 23 3 33 3 10 1 17 9 17 20 0 11 8
33 18 50 15 28 15 33 2 41 -19 13 -60 11 -140 -6z m70 -44 c0 -41 -129 -58
-150 -21 -15 29 -14 30 38 34 111 8 112 8 112 -13z"/>
<path d="M685 524 c-22 -9 -56 -14 -75 -11 l-35 4 3 -241 c1 -132 5 -248 8
-256 15 -42 27 41 33 236 4 117 11 218 16 223 16 15 84 30 90 20 3 -4 -4 -31
-15 -58 l-22 -49 36 -47 c53 -69 49 -100 -11 -83 -51 14 -51 3 -1 -28 23 -15
45 -31 46 -35 8 -19 32 -7 48 23 27 53 -3 120 -69 152 -12 7 -22 17 -22 23 0
7 22 35 49 64 30 32 45 54 39 60 -17 17 -77 18 -118 3z"/>
<path d="M320 444 c0 -3 7 -13 16 -22 16 -15 15 -17 -9 -23 -14 -4 -66 -10
-116 -14 -50 -4 -91 -11 -91 -15 0 -17 65 -19 158 -5 53 8 132 18 175 21 99 9
102 31 3 25 -60 -3 -69 -1 -82 18 -13 19 -54 30 -54 15z"/>
<path d="M350 324 c-41 -7 -101 -13 -133 -13 -52 -1 -57 -3 -44 -16 9 -8 23
-51 33 -95 17 -78 18 -81 43 -76 14 3 66 8 115 12 69 5 90 4 97 -7 4 -7 10
-11 12 -9 7 9 57 177 57 193 0 29 -58 33 -180 11z m117 -72 c-10 -91 -6 -88
-114 -96 -53 -4 -98 -5 -100 -3 -9 9 -30 132 -23 135 16 6 137 20 189 21 l54
1 -6 -58z"/>
<path d="M350 269 c-14 -6 -37 -9 -52 -6 -27 3 -37 -6 -19 -17 4 -3 11 -20 15
-37 4 -23 10 -30 22 -25 9 3 31 6 50 6 27 0 34 4 34 19 0 11 7 27 17 36 14 14
14 18 2 26 -18 11 -37 10 -69 -2z m27 -43 c-4 -10 -18 -16 -37 -16 -23 0 -30
4 -30 19 0 14 8 21 28 23 33 4 47 -5 39 -26z"/>
</g>
</svg>
