<?xml version="1.0" standalone="no"?>
<!DOCTYPE svg PUBLIC "-//W3C//DTD SVG 20010904//EN"
 "http://www.w3.org/TR/2001/REC-SVG-20010904/DTD/svg10.dtd">
<svg version="1.0" xmlns="http://www.w3.org/2000/svg"
 width="96.000000pt" height="68.000000pt" viewBox="0 0 96.000000 68.000000"
 preserveAspectRatio="xMidYMid meet">
<metadata>
Created by potrace 1.16, written by Peter Selinger 2001-2019
</metadata>
<g transform="translate(0.000000,68.000000) scale(0.100000,-0.100000)"
fill="#000000" stroke="none">
<path d="M237 511 c-9 -27 -37 -71 -61 -98 -32 -35 -42 -53 -36 -63 8 -12 16
-12 57 -2 59 16 83 36 36 30 -18 -3 -33 0 -33 5 0 5 23 37 50 72 27 35 50 68
50 74 0 8 -30 31 -42 31 -2 0 -11 -22 -21 -49z"/>
</g>
</svg>
