<?xml version="1.0" standalone="no"?>
<!DOCTYPE svg PUBLIC "-//W3C//DTD SVG 20010904//EN"
 "http://www.w3.org/TR/2001/REC-SVG-20010904/DTD/svg10.dtd">
<svg version="1.0" xmlns="http://www.w3.org/2000/svg"
 width="96.000000pt" height="68.000000pt" viewBox="0 0 96.000000 68.000000"
 preserveAspectRatio="xMidYMid meet">
<metadata>
Created by potrace 1.16, written by Peter Selinger 2001-2019
</metadata>
<g transform="translate(0.000000,68.000000) scale(0.100000,-0.100000)"
fill="#000000" stroke="none">
<path d="M607 476 l6 -46 -46 0 c-25 0 -49 -4 -52 -10 -4 -6 13 -10 45 -10 50
0 51 -1 48 -27 -3 -26 -7 -28 -55 -31 -29 -2 -53 -8 -53 -14 0 -12 228 -2 264
12 20 7 20 7 -3 15 -12 4 -43 4 -67 0 -44 -6 -44 -6 -44 24 0 29 1 30 60 37
36 4 57 11 53 17 -3 5 -28 7 -58 4 l-52 -5 1 36 c1 33 -2 37 -25 40 -26 3 -27
2 -22 -42z"/>
</g>
</svg>
