<?xml version="1.0" standalone="no"?>
<!DOCTYPE svg PUBLIC "-//W3C//DTD SVG 20010904//EN"
 "http://www.w3.org/TR/2001/REC-SVG-20010904/DTD/svg10.dtd">
<svg version="1.0" xmlns="http://www.w3.org/2000/svg"
 width="96.000000pt" height="68.000000pt" viewBox="0 0 96.000000 68.000000"
 preserveAspectRatio="xMidYMid meet">
<metadata>
Created by potrace 1.16, written by Peter Selinger 2001-2019
</metadata>
<g transform="translate(0.000000,68.000000) scale(0.100000,-0.100000)"
fill="#000000" stroke="none">
<path d="M730 559 c-19 -5 -89 -12 -156 -15 l-121 -7 5 -92 c6 -112 -16 -232
-59 -325 l-30 -65 30 29 c63 61 100 179 101 323 0 58 4 86 15 96 16 16 234 35
254 23 13 -8 15 -325 3 -391 -7 -34 -11 -40 -32 -39 -14 1 -34 4 -45 9 -11 4
3 -13 30 -39 28 -25 53 -46 57 -46 4 0 16 12 28 27 21 27 22 35 17 181 -2 85
-1 188 4 230 8 73 8 78 -14 94 -24 19 -35 20 -87 7z"/>
</g>
</svg>
