<?xml version="1.0" standalone="no"?>
<!DOCTYPE svg PUBLIC "-//W3C//DTD SVG 20010904//EN"
 "http://www.w3.org/TR/2001/REC-SVG-20010904/DTD/svg10.dtd">
<svg version="1.0" xmlns="http://www.w3.org/2000/svg"
 width="96.000000pt" height="68.000000pt" viewBox="0 0 96.000000 68.000000"
 preserveAspectRatio="xMidYMid meet">
<metadata>
Created by potrace 1.16, written by Peter Selinger 2001-2019
</metadata>
<g transform="translate(0.000000,68.000000) scale(0.100000,-0.100000)"
fill="#000000" stroke="none">
<path d="M420 369 c0 -32 -130 -131 -233 -178 -37 -17 -67 -33 -67 -35 0 -22
201 70 283 131 l58 42 87 -56 c48 -31 100 -60 116 -64 28 -8 182 8 172 18 -2
3 -53 13 -111 23 -112 19 -212 59 -262 106 -28 26 -43 30 -43 13z"/>
</g>
</svg>
