<?xml version="1.0" standalone="no"?>
<!DOCTYPE svg PUBLIC "-//W3C//DTD SVG 20010904//EN"
 "http://www.w3.org/TR/2001/REC-SVG-20010904/DTD/svg10.dtd">
<svg version="1.0" xmlns="http://www.w3.org/2000/svg"
 width="96.000000pt" height="68.000000pt" viewBox="0 0 96.000000 68.000000"
 preserveAspectRatio="xMidYMid meet">
<metadata>
Created by potrace 1.16, written by Peter Selinger 2001-2019
</metadata>
<g transform="translate(0.000000,68.000000) scale(0.100000,-0.100000)"
fill="#000000" stroke="none">
<path d="M200 504 c0 -9 28 -31 64 -50 24 -13 30 -14 37 -2 14 22 11 28 -26
44 -36 15 -75 19 -75 8z"/>
<path d="M156 344 c31 -47 94 -66 94 -29 0 20 -27 37 -69 45 -39 7 -39 7 -25
-16z"/>
<path d="M260 202 c-36 -37 -74 -72 -85 -79 -19 -10 -19 -13 -5 -39 27 -50 41
-40 103 72 32 58 57 107 55 109 -2 2 -33 -26 -68 -63z"/>
</g>
</svg>
