<?xml version="1.0" standalone="no"?>
<!DOCTYPE svg PUBLIC "-//W3C//DTD SVG 20010904//EN"
 "http://www.w3.org/TR/2001/REC-SVG-20010904/DTD/svg10.dtd">
<svg version="1.0" xmlns="http://www.w3.org/2000/svg"
 width="96.000000pt" height="68.000000pt" viewBox="0 0 96.000000 68.000000"
 preserveAspectRatio="xMidYMid meet">
<metadata>
Created by potrace 1.16, written by Peter Selinger 2001-2019
</metadata>
<g transform="translate(0.000000,68.000000) scale(0.100000,-0.100000)"
fill="#000000" stroke="none">
<path d="M280 200 c-14 -4 -50 -9 -80 -9 -32 -1 -50 -5 -42 -9 7 -5 21 -31 31
-58 11 -27 23 -49 27 -49 5 1 37 4 70 9 54 7 61 10 57 27 -3 10 2 31 12 45 9
14 14 32 11 40 -6 15 -45 17 -86 4z m26 -52 c-7 -38 -4 -34 -42 -42 -29 -7
-33 -4 -43 25 -6 18 -11 33 -11 35 0 5 35 12 69 13 32 1 33 0 27 -31z"/>
</g>
</svg>
