<?xml version="1.0" standalone="no"?>
<!DOCTYPE svg PUBLIC "-//W3C//DTD SVG 20010904//EN"
 "http://www.w3.org/TR/2001/REC-SVG-20010904/DTD/svg10.dtd">
<svg version="1.0" xmlns="http://www.w3.org/2000/svg"
 width="96.000000pt" height="68.000000pt" viewBox="0 0 96.000000 68.000000"
 preserveAspectRatio="xMidYMid meet">
<metadata>
Created by potrace 1.16, written by Peter Selinger 2001-2019
</metadata>
<g transform="translate(0.000000,68.000000) scale(0.100000,-0.100000)"
fill="#000000" stroke="none">
<path d="M267 559 c4 -24 8 -62 8 -84 l0 -40 -62 -9 c-35 -5 -63 -12 -63 -17
0 -11 58 -21 95 -17 29 3 30 1 30 -36 l0 -40 -90 -34 c-49 -19 -92 -37 -95
-39 -8 -7 40 -43 58 -43 8 0 37 14 64 30 26 17 50 30 53 30 3 0 5 -24 5 -54 0
-64 -14 -81 -55 -66 -15 6 -30 8 -34 5 -7 -8 88 -95 104 -95 31 0 45 47 45
153 l0 103 40 23 c22 12 40 26 40 32 0 12 -1 12 -44 -6 l-37 -16 3 32 c2 27 9
34 38 44 45 15 45 29 -2 33 -36 3 -37 4 -32 35 3 18 11 42 17 55 14 30 -6 50
-57 59 l-37 6 8 -44z"/>
<path d="M540 553 c0 -3 12 -21 26 -40 29 -38 28 -38 -58 -48 -32 -4 -58 -11
-58 -17 0 -7 33 -9 104 -4 l104 7 -9 -39 c-17 -77 -26 -92 -58 -92 -25 0 -30
5 -35 35 -6 32 -59 85 -72 72 -3 -3 4 -24 15 -48 32 -66 30 -69 -44 -69 -36 0
-65 -4 -65 -10 0 -18 53 -23 129 -11 42 6 133 11 204 11 70 0 127 4 127 9 0
20 -61 33 -125 26 -41 -4 -65 -3 -65 3 0 6 4 12 8 14 4 2 18 18 31 37 20 28
22 37 12 52 -10 17 -8 20 19 25 37 8 39 20 5 28 -23 6 -48 3 -99 -11 -15 -4
-18 -1 -13 16 4 15 -2 27 -20 41 -25 19 -63 27 -63 13z"/>
<path d="M585 244 c-49 -8 -102 -12 -117 -9 -29 5 -36 -3 -18 -21 6 -6 19 -40
28 -75 15 -53 21 -64 37 -62 11 1 62 5 113 9 61 5 91 11 89 18 -5 13 28 82 43
91 19 12 10 34 -20 50 -33 17 -34 17 -155 -1z m100 -26 c3 -3 1 -26 -5 -51
-11 -43 -13 -45 -57 -51 -96 -13 -100 -11 -108 40 -3 25 -5 47 -3 49 5 5 128
21 150 20 10 -1 20 -4 23 -7z"/>
</g>
</svg>
