<?xml version="1.0" standalone="no"?>
<!DOCTYPE svg PUBLIC "-//W3C//DTD SVG 20010904//EN"
 "http://www.w3.org/TR/2001/REC-SVG-20010904/DTD/svg10.dtd">
<svg version="1.0" xmlns="http://www.w3.org/2000/svg"
 width="90.000000pt" height="92.000000pt" viewBox="0 0 90.000000 92.000000"
 preserveAspectRatio="xMidYMid meet">
<metadata>
Created by potrace 1.16, written by Peter Selinger 2001-2019
</metadata>
<g transform="translate(0.000000,92.000000) scale(0.100000,-0.100000)"
fill="#000000" stroke="none">
<path d="M165 860 c-4 -6 -2 -25 3 -43 6 -17 13 -71 16 -118 l5 -87 -44 -11
c-24 -6 -55 -11 -69 -11 -14 0 -27 -4 -31 -9 -11 -19 34 -31 91 -25 52 7 57 5
51 -10 -4 -10 -7 -40 -7 -67 l0 -50 -90 -42 c-95 -45 -112 -68 -69 -95 18 -12
26 -9 75 29 30 23 57 46 60 50 22 36 31 -28 18 -125 -7 -46 -7 -46 -45 -46
l-39 0 42 -54 c24 -30 49 -55 55 -55 30 -2 43 56 43 196 l0 138 35 28 c46 36
45 55 0 28 l-36 -21 3 57 3 56 48 14 c51 15 58 26 26 43 -14 8 -29 8 -49 1
l-30 -10 7 62 c3 34 11 76 18 92 16 40 10 52 -36 75 -44 23 -46 23 -54 10z"/>
<path d="M480 822 c0 -5 13 -29 30 -53 l29 -44 -92 -13 c-120 -17 -128 -19
-103 -38 11 -8 30 -14 43 -14 13 0 23 -6 23 -14 0 -7 13 -39 28 -70 l29 -56
-41 -2 c-23 0 -54 0 -70 1 -24 2 -28 0 -21 -16 15 -33 17 -163 5 -258 -10 -80
-9 -98 4 -122 l14 -28 11 28 c6 16 11 61 11 101 0 40 3 114 6 164 l7 91 56 9
c31 6 60 7 64 2 5 -4 7 -23 5 -41 -3 -32 -6 -35 -50 -43 -61 -12 -62 -26 -3
-26 44 0 46 -1 41 -27 -2 -16 -5 -34 -5 -40 -1 -8 -15 -13 -37 -13 -31 0 -35
-3 -29 -18 4 -9 12 -36 17 -58 l9 -42 42 4 c120 13 129 15 118 28 -8 10 -6 20
9 39 11 14 20 30 20 36 0 19 -41 33 -76 26 -28 -5 -34 -3 -34 12 1 49 11 61
58 67 64 9 81 20 53 36 -17 8 -31 9 -53 1 -39 -14 -41 -11 -28 25 9 23 8 31
-5 40 -13 10 0 13 65 19 45 4 84 5 87 2 8 -9 8 -349 -1 -375 -7 -21 -12 -23
-49 -17 l-42 7 45 -46 c24 -25 50 -46 57 -46 7 0 20 15 29 32 14 27 17 67 19
223 1 104 4 201 6 214 3 17 -4 29 -23 44 -27 20 -30 20 -95 5 -38 -9 -70 -15
-72 -12 -2 2 2 12 11 21 27 33 56 90 49 100 -3 5 -15 15 -26 21 -17 10 -14 11
25 12 108 1 144 20 89 47 -23 11 -38 10 -137 -12 -16 -4 -21 -2 -17 5 14 23
-6 61 -40 76 -39 16 -65 18 -65 6z m110 -158 c0 -32 -20 -104 -33 -121 -14
-19 -68 -17 -61 2 10 26 -17 86 -48 105 l-30 18 53 10 c30 5 69 10 87 11 28 1
32 -2 32 -25z m-6 -401 c-9 -36 -6 -35 -59 -40 -28 -4 -45 -2 -45 5 0 6 -3 17
-6 26 -8 20 26 34 79 35 36 1 37 0 31 -26z"/>
</g>
</svg>
