<?xml version="1.0" standalone="no"?>
<!DOCTYPE svg PUBLIC "-//W3C//DTD SVG 20010904//EN"
 "http://www.w3.org/TR/2001/REC-SVG-20010904/DTD/svg10.dtd">
<svg version="1.0" xmlns="http://www.w3.org/2000/svg"
 width="96.000000pt" height="68.000000pt" viewBox="0 0 96.000000 68.000000"
 preserveAspectRatio="xMidYMid meet">
<metadata>
Created by potrace 1.16, written by Peter Selinger 2001-2019
</metadata>
<g transform="translate(0.000000,68.000000) scale(0.100000,-0.100000)"
fill="#000000" stroke="none">
<path d="M660 374 c-36 -8 -104 -15 -153 -17 -73 -2 -86 -4 -80 -17 13 -28 15
-123 4 -180 -12 -60 -7 -90 14 -90 10 0 15 34 20 130 l8 130 31 5 c77 13 174
25 212 25 39 0 42 -2 48 -31 8 -41 8 -207 -1 -237 -5 -21 -10 -23 -39 -17 -19
3 -34 4 -34 1 0 -2 18 -18 39 -35 l40 -32 19 21 c17 19 20 40 24 178 3 93 1
162 -5 170 -12 15 -62 14 -147 -4z"/>
</g>
</svg>
