<?xml version="1.0" standalone="no"?>
<!DOCTYPE svg PUBLIC "-//W3C//DTD SVG 20010904//EN"
 "http://www.w3.org/TR/2001/REC-SVG-20010904/DTD/svg10.dtd">
<svg version="1.0" xmlns="http://www.w3.org/2000/svg"
 width="96.000000pt" height="68.000000pt" viewBox="0 0 96.000000 68.000000"
 preserveAspectRatio="xMidYMid meet">
<metadata>
Created by potrace 1.16, written by Peter Selinger 2001-2019
</metadata>
<g transform="translate(0.000000,68.000000) scale(0.100000,-0.100000)"
fill="#000000" stroke="none">
<path d="M482 128 c-18 -24 -51 -58 -74 -75 -22 -18 -38 -33 -34 -33 15 0 93
45 146 83 30 23 57 43 60 45 2 2 -2 7 -10 12 -30 19 -56 10 -88 -32z"/>
<path d="M710 75 c59 -60 90 -70 90 -31 0 25 -29 51 -83 74 -60 26 -62 13 -7
-43z"/>
</g>
</svg>
