<?xml version="1.0" standalone="no"?>
<!DOCTYPE svg PUBLIC "-//W3C//DTD SVG 20010904//EN"
 "http://www.w3.org/TR/2001/REC-SVG-20010904/DTD/svg10.dtd">
<svg version="1.0" xmlns="http://www.w3.org/2000/svg"
 width="96.000000pt" height="68.000000pt" viewBox="0 0 96.000000 68.000000"
 preserveAspectRatio="xMidYMid meet">
<metadata>
Created by potrace 1.16, written by Peter Selinger 2001-2019
</metadata>
<g transform="translate(0.000000,68.000000) scale(0.100000,-0.100000)"
fill="#000000" stroke="none">
<path d="M670 589 c-14 -6 -41 -11 -61 -11 l-36 0 15 -54 c16 -58 12 -56 97
-39 13 3 27 21 39 50 10 25 17 47 15 49 -12 11 -47 13 -69 5z m20 -43 c0 -42
-64 -70 -74 -32 -10 36 -7 44 17 49 50 10 57 7 57 -17z"/>
</g>
</svg>
