<?xml version="1.0" standalone="no"?>
<!DOCTYPE svg PUBLIC "-//W3C//DTD SVG 20010904//EN"
 "http://www.w3.org/TR/2001/REC-SVG-20010904/DTD/svg10.dtd">
<svg version="1.0" xmlns="http://www.w3.org/2000/svg"
 width="96.000000pt" height="68.000000pt" viewBox="0 0 96.000000 68.000000"
 preserveAspectRatio="xMidYMid meet">
<metadata>
Created by potrace 1.16, written by Peter Selinger 2001-2019
</metadata>
<g transform="translate(0.000000,68.000000) scale(0.100000,-0.100000)"
fill="#000000" stroke="none">
<path d="M470 570 c-8 -5 -32 -10 -53 -10 -36 0 -37 -1 -23 -22 8 -13 17 -38
21 -56 5 -24 11 -32 22 -28 8 3 31 9 51 12 31 5 37 10 39 32 1 15 3 38 5 52 2
20 -2 25 -22 28 -14 1 -32 -2 -40 -8z m18 -47 c-2 -30 -8 -39 -24 -41 -16 -2
-24 4 -32 28 -9 23 -8 32 1 35 7 2 19 6 27 8 28 10 31 7 28 -30z"/>
</g>
</svg>
