<?xml version="1.0" standalone="no"?>
<!DOCTYPE svg PUBLIC "-//W3C//DTD SVG 20010904//EN"
 "http://www.w3.org/TR/2001/REC-SVG-20010904/DTD/svg10.dtd">
<svg version="1.0" xmlns="http://www.w3.org/2000/svg"
 width="96.000000pt" height="68.000000pt" viewBox="0 0 96.000000 68.000000"
 preserveAspectRatio="xMidYMid meet">
<metadata>
Created by potrace 1.16, written by Peter Selinger 2001-2019
</metadata>
<g transform="translate(0.000000,68.000000) scale(0.100000,-0.100000)"
fill="#000000" stroke="none">
<path d="M244 548 c3 -13 9 -48 12 -79 8 -65 6 -66 -88 -76 -78 -8 -74 -23 7
-23 36 0 65 -2 65 -5 0 -19 -46 -89 -94 -143 -31 -34 -56 -65 -56 -68 0 -18
90 50 120 90 31 41 35 44 38 25 2 -12 -1 -57 -7 -99 -12 -77 -4 -130 18 -130
22 0 31 45 31 161 l0 123 30 -29 c26 -25 32 -27 40 -15 16 25 12 31 -30 48
-54 21 -53 52 3 65 20 5 37 13 37 17 0 13 -35 21 -55 14 -17 -7 -18 -2 -11 59
6 59 4 67 -13 77 -34 18 -54 13 -47 -12z"/>
</g>
</svg>
