<?xml version="1.0" standalone="no"?>
<!DOCTYPE svg PUBLIC "-//W3C//DTD SVG 20010904//EN"
 "http://www.w3.org/TR/2001/REC-SVG-20010904/DTD/svg10.dtd">
<svg version="1.0" xmlns="http://www.w3.org/2000/svg"
 width="96.000000pt" height="68.000000pt" viewBox="0 0 96.000000 68.000000"
 preserveAspectRatio="xMidYMid meet">
<metadata>
Created by potrace 1.16, written by Peter Selinger 2001-2019
</metadata>
<g transform="translate(0.000000,68.000000) scale(0.100000,-0.100000)"
fill="#000000" stroke="none">
<path d="M550 567 c0 -88 -62 -225 -136 -301 -58 -59 -54 -73 9 -31 l37 26 0
-70 c0 -38 -4 -81 -10 -95 -11 -30 5 -86 25 -86 20 0 24 22 26 142 2 73 -1
111 -10 121 -8 10 -9 17 -2 22 20 12 64 98 96 186 30 83 31 89 15 104 -29 26
-50 19 -50 -18z"/>
</g>
</svg>
