<?xml version="1.0" standalone="no"?>
<!DOCTYPE svg PUBLIC "-//W3C//DTD SVG 20010904//EN"
 "http://www.w3.org/TR/2001/REC-SVG-20010904/DTD/svg10.dtd">
<svg version="1.0" xmlns="http://www.w3.org/2000/svg"
 width="90.000000pt" height="92.000000pt" viewBox="0 0 90.000000 92.000000"
 preserveAspectRatio="xMidYMid meet">
<metadata>
Created by potrace 1.16, written by Peter Selinger 2001-2019
</metadata>
<g transform="translate(0.000000,92.000000) scale(0.100000,-0.100000)"
fill="#000000" stroke="none">
<path d="M570 839 c-36 -10 -84 -18 -107 -18 -47 -1 -63 -15 -34 -31 15 -7 41
-5 102 10 46 11 85 17 87 15 3 -3 -6 -20 -19 -40 -23 -34 -26 -35 -69 -29
l-45 6 33 -27 c17 -15 32 -30 32 -34 0 -5 -42 -12 -92 -17 l-93 -9 27 -18 c24
-17 30 -17 82 -4 31 9 56 12 56 8 0 -10 -80 -75 -136 -110 -37 -24 -43 -31
-26 -31 33 0 92 33 153 85 56 48 65 46 55 -11 -6 -31 -9 -34 -34 -27 l-26 6
32 -40 32 -41 -39 -7 c-22 -3 -68 -7 -103 -7 l-64 -1 2 -91 c1 -50 -5 -126
-14 -169 -13 -64 -13 -82 -2 -105 l13 -27 15 35 c8 19 19 99 25 177 l11 143
33 6 c19 4 37 4 40 1 9 -9 -16 -63 -38 -83 -29 -26 -23 -36 11 -19 36 19 72
72 66 98 -3 13 2 17 25 17 27 0 29 -3 29 -38 0 -25 7 -45 18 -55 31 -28 126
-17 108 12 -4 6 -25 11 -46 11 -47 0 -53 8 -39 49 10 29 14 31 60 31 l49 0 1
-72 c1 -157 -3 -243 -11 -252 -6 -6 -23 -5 -45 1 -19 6 -35 8 -35 5 1 -4 21
-29 46 -56 l45 -49 22 22 c20 20 22 34 28 199 4 97 8 185 10 196 3 11 -6 26
-23 39 -25 18 -31 19 -90 8 -35 -7 -72 -15 -83 -18 -16 -5 -18 -3 -9 8 18 22
25 81 15 132 l-8 47 32 6 c17 3 44 4 59 2 l28 -3 -22 -27 c-12 -16 -17 -28
-11 -28 13 0 115 22 119 25 8 7 -19 43 -43 59 -23 15 -34 16 -78 6 -105 -23
-99 -23 -95 2 2 15 21 34 58 56 30 18 56 37 58 42 2 5 -14 17 -35 27 -36 18
-41 18 -103 2z"/>
<path d="M160 797 c0 -8 13 -39 30 -70 l30 -57 -23 -5 c-12 -3 -59 -11 -105
-18 -45 -7 -83 -17 -84 -22 0 -6 11 -16 26 -23 23 -12 39 -11 114 7 48 11 113
23 144 27 39 4 58 11 58 20 0 16 -41 28 -73 22 -20 -4 -22 -1 -19 31 4 44 -11
66 -60 86 -31 13 -38 13 -38 2z"/>
<path d="M178 541 c-68 -19 -79 -28 -44 -37 22 -5 80 4 150 23 19 5 19 6 1 19
-23 17 -34 16 -107 -5z"/>
<path d="M195 450 c-16 -4 -43 -11 -58 -14 -39 -9 -24 -26 23 -26 50 0 140 19
140 30 0 19 -51 25 -105 10z"/>
<path d="M215 344 c-22 -9 -61 -15 -87 -15 -51 0 -55 -3 -35 -24 7 -7 19 -39
26 -71 14 -64 30 -92 41 -74 4 6 35 16 71 22 75 13 75 14 61 31 -9 10 -5 26
15 67 25 51 26 53 8 66 -23 17 -49 17 -100 -2z m36 -36 c4 -28 -2 -73 -10 -81
-4 -4 -24 -10 -44 -14 -36 -5 -37 -5 -37 25 0 17 -3 37 -6 45 -4 11 6 18 33
25 53 14 63 14 64 0z"/>
<path d="M570 304 c-25 -8 -62 -13 -82 -11 -21 3 -38 4 -38 2 0 -1 7 -16 15
-31 8 -16 15 -40 15 -54 0 -46 8 -49 96 -33 73 13 81 17 76 35 -3 11 5 32 18
50 13 17 18 34 13 39 -16 16 -68 18 -113 3z m50 -49 c0 -27 -18 -40 -71 -50
-36 -7 -37 -6 -41 29 -4 34 -3 35 32 39 80 8 80 8 80 -18z"/>
</g>
</svg>
