<?xml version="1.0" standalone="no"?>
<!DOCTYPE svg PUBLIC "-//W3C//DTD SVG 20010904//EN"
 "http://www.w3.org/TR/2001/REC-SVG-20010904/DTD/svg10.dtd">
<svg version="1.0" xmlns="http://www.w3.org/2000/svg"
 width="96.000000pt" height="68.000000pt" viewBox="0 0 96.000000 68.000000"
 preserveAspectRatio="xMidYMid meet">
<metadata>
Created by potrace 1.16, written by Peter Selinger 2001-2019
</metadata>
<g transform="translate(0.000000,68.000000) scale(0.100000,-0.100000)"
fill="#000000" stroke="none">
<path d="M273 452 c-85 -16 -110 -32 -48 -32 41 0 42 -5 14 -66 -14 -29 -44
-63 -85 -97 -34 -28 -61 -53 -59 -56 9 -8 54 10 94 39 48 36 124 146 117 172
-3 13 2 18 17 18 37 0 98 21 92 31 -8 12 -41 10 -142 -9z"/>
</g>
</svg>
