<?xml version="1.0" standalone="no"?>
<!DOCTYPE svg PUBLIC "-//W3C//DTD SVG 20010904//EN"
 "http://www.w3.org/TR/2001/REC-SVG-20010904/DTD/svg10.dtd">
<svg version="1.0" xmlns="http://www.w3.org/2000/svg"
 width="96.000000pt" height="68.000000pt" viewBox="0 0 96.000000 68.000000"
 preserveAspectRatio="xMidYMid meet">
<metadata>
Created by potrace 1.16, written by Peter Selinger 2001-2019
</metadata>
<g transform="translate(0.000000,68.000000) scale(0.100000,-0.100000)"
fill="#000000" stroke="none">
<path d="M609 253 c-1 -4 -3 -43 -4 -86 -1 -43 -5 -80 -8 -83 -3 -3 -17 -7
-31 -8 l-25 -1 26 -27 c25 -26 59 -28 49 -2 -3 8 0 13 5 11 16 -3 21 40 9 64
-8 14 -7 19 1 19 8 0 8 4 -1 15 -10 12 -10 15 0 15 7 0 10 8 7 20 -3 11 -1 20
4 20 5 0 9 5 9 11 0 6 -7 8 -16 5 -12 -4 -15 -2 -11 9 4 8 2 17 -3 20 -6 4
-11 3 -11 -2z"/>
<path d="M735 231 c-6 -5 -21 -11 -35 -14 -14 -2 -1 -4 27 -3 29 1 55 5 59 8
3 4 13 4 22 1 15 -4 15 -3 2 6 -18 13 -63 14 -75 2z"/>
<path d="M505 200 l-40 -7 35 -1 c19 -1 42 3 50 8 16 11 14 11 -45 0z"/>
</g>
</svg>
