<?xml version="1.0" standalone="no"?>
<!DOCTYPE svg PUBLIC "-//W3C//DTD SVG 20010904//EN"
 "http://www.w3.org/TR/2001/REC-SVG-20010904/DTD/svg10.dtd">
<svg version="1.0" xmlns="http://www.w3.org/2000/svg"
 width="90.000000pt" height="92.000000pt" viewBox="0 0 90.000000 92.000000"
 preserveAspectRatio="xMidYMid meet">
<metadata>
Created by potrace 1.16, written by Peter Selinger 2001-2019
</metadata>
<g transform="translate(0.000000,92.000000) scale(0.100000,-0.100000)"
fill="#000000" stroke="none">
<path d="M462 823 c-7 -21 -25 -62 -42 -90 -28 -48 -34 -53 -65 -53 -40 0 -41
-2 -20 -34 9 -13 22 -62 29 -109 16 -96 22 -111 41 -103 24 9 27 -30 7 -81
-24 -64 -69 -129 -126 -184 -25 -23 -44 -44 -42 -47 2 -2 22 6 44 17 53 27
126 110 173 198 l38 73 -21 20 -22 20 27 0 c14 0 29 -6 34 -12 4 -7 8 -67 8
-133 0 -139 12 -172 71 -200 77 -36 253 -6 269 46 6 19 -30 136 -37 123 -3 -5
-8 -26 -12 -46 -10 -57 -44 -78 -128 -78 -85 0 -104 10 -118 59 -11 42 0 155
18 188 8 14 6 23 -10 41 l-21 22 30 0 c17 0 33 -6 36 -12 11 -32 43 13 73 105
17 53 36 103 43 110 13 17 2 29 -48 50 -28 12 -42 12 -104 -3 -40 -9 -94 -20
-122 -24 l-50 -7 70 70 c61 62 68 73 55 85 -8 8 -27 18 -41 21 -23 6 -27 2
-37 -32z m198 -160 c-1 -51 -9 -58 -69 -60 -56 -1 -58 -1 -53 23 3 17 -1 26
-14 31 -15 6 -10 9 21 14 83 13 115 10 115 -8z m-179 -30 c14 -38 6 -50 -38
-55 -21 -3 -39 -5 -40 -4 0 1 -4 18 -8 38 -6 33 -5 37 17 41 50 9 59 7 69 -20z
m159 -72 c0 -5 -3 -22 -6 -38 -6 -29 -9 -30 -55 -32 l-49 -1 0 35 c0 29 4 34
28 38 51 8 82 7 82 -2z m-150 -46 c0 -27 -4 -35 -17 -35 -10 0 -28 -3 -40 -6
-21 -6 -23 -3 -23 32 0 38 1 39 40 41 39 3 40 2 40 -32z"/>
<path d="M162 672 c-66 -13 -72 -16 -58 -30 13 -13 26 -14 96 -4 96 14 110 20
85 39 -22 15 -26 15 -123 -5z"/>
<path d="M137 525 c-71 -13 -131 -25 -134 -28 -2 -3 5 -11 18 -17 21 -12 73
-9 127 6 15 4 22 2 22 -7 0 -28 -49 -118 -85 -158 -37 -40 -37 -41 -20 -67 12
-19 20 -23 29 -15 8 6 47 23 87 37 136 47 127 47 145 11 16 -30 17 -30 31 -11
8 11 11 30 8 44 -6 27 -61 80 -82 80 -17 0 -16 -6 3 -34 15 -24 15 -24 -38
-39 -29 -9 -66 -19 -82 -23 l-29 -7 31 54 c57 100 61 111 52 130 -11 19 11 28
65 29 17 0 37 5 45 10 13 9 13 11 0 20 -20 13 -44 11 -193 -15z"/>
<path d="M667 401 c-3 -15 -22 -51 -41 -80 -41 -60 -42 -64 -21 -81 12 -10 25
-8 70 11 l55 23 21 -22 c25 -27 39 -21 39 17 0 32 -12 45 -54 61 -27 10 -28 9
-22 -15 5 -20 2 -26 -18 -31 -43 -10 -46 0 -15 49 30 49 32 80 5 90 -9 4 -16
-4 -19 -22z"/>
</g>
</svg>
