<?xml version="1.0" standalone="no"?>
<!DOCTYPE svg PUBLIC "-//W3C//DTD SVG 20010904//EN"
 "http://www.w3.org/TR/2001/REC-SVG-20010904/DTD/svg10.dtd">
<svg version="1.0" xmlns="http://www.w3.org/2000/svg"
 width="96.000000pt" height="68.000000pt" viewBox="0 0 96.000000 68.000000"
 preserveAspectRatio="xMidYMid meet">
<metadata>
Created by potrace 1.16, written by Peter Selinger 2001-2019
</metadata>
<g transform="translate(0.000000,68.000000) scale(0.100000,-0.100000)"
fill="#000000" stroke="none">
<path d="M286 351 c-4 -5 8 -12 25 -16 29 -7 31 -10 26 -39 -9 -57 -52 -151
-67 -150 -8 1 -25 4 -38 8 l-23 8 23 -36 c27 -41 46 -45 76 -13 20 21 62 108
62 129 0 5 8 26 17 45 16 35 16 36 -6 54 -24 20 -86 26 -95 10z"/>
</g>
</svg>
