<?xml version="1.0" standalone="no"?>
<!DOCTYPE svg PUBLIC "-//W3C//DTD SVG 20010904//EN"
 "http://www.w3.org/TR/2001/REC-SVG-20010904/DTD/svg10.dtd">
<svg version="1.0" xmlns="http://www.w3.org/2000/svg"
 width="96.000000pt" height="68.000000pt" viewBox="0 0 96.000000 68.000000"
 preserveAspectRatio="xMidYMid meet">
<metadata>
Created by potrace 1.16, written by Peter Selinger 2001-2019
</metadata>
<g transform="translate(0.000000,68.000000) scale(0.100000,-0.100000)"
fill="#000000" stroke="none">
<path d="M470 560 c0 -11 -10 -40 -22 -65 -21 -41 -26 -44 -60 -45 -38 0 -46
-8 -28 -26 6 -6 17 -41 25 -79 12 -61 35 -110 35 -77 0 7 5 12 11 12 18 0 2
-57 -29 -103 -15 -23 -49 -58 -75 -77 -51 -38 -48 -51 6 -25 42 20 89 65 130
124 25 36 28 47 18 62 -10 17 -8 19 13 19 23 0 24 -3 28 -94 4 -103 12 -120
65 -143 60 -25 240 -12 259 18 3 6 -1 25 -9 42 -9 18 -19 41 -22 52 -6 17 -9
14 -20 -18 -23 -66 -29 -69 -123 -65 -69 2 -86 6 -98 22 -16 23 -19 102 -4
140 6 16 6 27 0 31 -25 16 -7 27 33 21 l42 -6 31 85 c17 46 28 88 25 93 -14
21 -66 29 -116 16 -77 -19 -135 -27 -135 -17 0 4 20 26 45 47 25 22 45 43 45
46 0 8 -46 30 -60 30 -6 0 -10 -9 -10 -20z m170 -127 c0 -30 -13 -38 -60 -38
-44 0 -50 8 -41 50 1 3 24 5 51 5 41 0 50 -3 50 -17z m-150 -28 c0 -23 -4 -25
-43 -25 -38 0 -43 3 -45 25 -2 23 1 25 43 25 41 0 45 -2 45 -25z m132 -55 c-3
-32 -10 -38 -52 -42 -33 -3 -35 -1 -35 27 0 25 5 31 30 36 48 11 60 6 57 -21z
m-127 -20 c0 -22 -5 -25 -36 -28 -28 -2 -37 1 -41 15 -9 33 2 44 41 41 31 -3
36 -6 36 -28z"/>
<path d="M235 484 c-38 -7 -85 -16 -103 -19 -45 -8 -30 -25 23 -25 48 0 55 -9
55 -71 0 -38 -1 -39 -34 -39 -19 0 -38 -4 -41 -10 -6 -10 13 -15 52 -11 17 1
22 -5 26 -36 10 -69 8 -72 -55 -91 -63 -18 -73 -35 -31 -49 23 -8 40 -2 108
35 106 59 128 73 122 78 -2 2 -25 -5 -51 -16 -26 -11 -50 -20 -52 -20 -2 0 -4
25 -4 55 l0 55 40 6 c54 9 61 24 11 24 l-41 0 0 49 0 49 40 7 c35 6 59 20 49
29 -13 12 -54 12 -114 0z"/>
<path d="M637 232 c-3 -16 -17 -40 -31 -53 -49 -46 -28 -69 39 -43 27 10 57
14 75 11 25 -6 30 -3 30 13 0 19 -27 40 -51 40 -9 0 -9 -3 1 -15 10 -12 7 -15
-17 -20 -15 -4 -34 -8 -40 -11 -22 -6 -14 13 19 44 26 26 29 34 18 47 -19 23
-37 18 -43 -13z"/>
</g>
</svg>
