<?xml version="1.0" standalone="no"?>
<!DOCTYPE svg PUBLIC "-//W3C//DTD SVG 20010904//EN"
 "http://www.w3.org/TR/2001/REC-SVG-20010904/DTD/svg10.dtd">
<svg version="1.0" xmlns="http://www.w3.org/2000/svg"
 width="96.000000pt" height="68.000000pt" viewBox="0 0 96.000000 68.000000"
 preserveAspectRatio="xMidYMid meet">
<metadata>
Created by potrace 1.16, written by Peter Selinger 2001-2019
</metadata>
<g transform="translate(0.000000,68.000000) scale(0.100000,-0.100000)"
fill="#000000" stroke="none">
<path d="M424 591 l27 -28 -28 -6 c-16 -3 -68 -9 -116 -13 -48 -4 -87 -10 -87
-14 0 -4 11 -12 25 -18 20 -9 41 -8 98 4 39 9 138 18 220 21 81 3 147 10 147
15 0 26 -76 31 -198 12 -30 -5 -33 -3 -28 14 5 16 0 22 -25 31 -55 19 -66 14
-35 -18z"/>
</g>
</svg>
