<?xml version="1.0" standalone="no"?>
<!DOCTYPE svg PUBLIC "-//W3C//DTD SVG 20010904//EN"
 "http://www.w3.org/TR/2001/REC-SVG-20010904/DTD/svg10.dtd">
<svg version="1.0" xmlns="http://www.w3.org/2000/svg"
 width="96.000000pt" height="68.000000pt" viewBox="0 0 96.000000 68.000000"
 preserveAspectRatio="xMidYMid meet">
<metadata>
Created by potrace 1.16, written by Peter Selinger 2001-2019
</metadata>
<g transform="translate(0.000000,68.000000) scale(0.100000,-0.100000)"
fill="#000000" stroke="none">
<path d="M331 602 c-11 -22 -45 -62 -77 -91 -31 -28 -54 -54 -51 -57 3 -3 32
8 64 24 52 27 163 52 163 37 0 -4 -13 -26 -29 -49 -27 -39 -35 -44 -83 -49
-29 -4 -74 -7 -100 -7 l-48 0 3 -139 c2 -134 3 -139 27 -160 47 -39 87 -46
260 -46 192 0 245 7 284 38 l29 23 -21 55 c-11 30 -23 54 -28 54 -4 0 -14 -19
-21 -42 -11 -31 -23 -45 -50 -58 -49 -23 -170 -37 -268 -30 -164 12 -175 18
-175 99 l0 53 58 6 c31 4 108 10 170 13 109 7 112 8 112 30 0 13 14 39 30 58
l30 34 -27 22 c-24 19 -35 21 -85 15 -32 -4 -58 -3 -58 2 1 4 26 28 55 53 30
24 55 48 55 52 0 4 -10 12 -21 19 -20 11 -58 9 -134 -6 l-30 -6 28 23 c40 35
35 54 -18 64 -20 4 -28 -2 -44 -34z m185 -234 c-4 -24 -10 -46 -14 -50 -4 -3
-33 -10 -66 -13 -54 -7 -58 -6 -53 11 18 58 19 74 6 75 -26 2 46 17 90 18 l44
1 -7 -42z m-168 -25 l-3 -48 -60 -6 c-33 -3 -63 -3 -67 0 -4 3 -4 25 -1 48 6
45 11 48 96 52 l38 1 -3 -47z"/>
</g>
</svg>
