<?xml version="1.0" standalone="no"?>
<!DOCTYPE svg PUBLIC "-//W3C//DTD SVG 20010904//EN"
 "http://www.w3.org/TR/2001/REC-SVG-20010904/DTD/svg10.dtd">
<svg version="1.0" xmlns="http://www.w3.org/2000/svg"
 width="96.000000pt" height="68.000000pt" viewBox="0 0 96.000000 68.000000"
 preserveAspectRatio="xMidYMid meet">
<metadata>
Created by potrace 1.16, written by Peter Selinger 2001-2019
</metadata>
<g transform="translate(0.000000,68.000000) scale(0.100000,-0.100000)"
fill="#000000" stroke="none">
<path d="M485 353 c-33 -7 -94 -15 -136 -16 l-76 -2 5 -120 c4 -115 12 -155
32 -155 5 0 12 9 15 20 6 18 15 20 104 20 95 0 98 -1 109 -25 12 -26 20 -30
38 -17 24 16 34 55 34 136 0 46 4 96 10 110 8 22 6 28 -13 40 -35 22 -58 24
-122 9z m59 -29 c10 -4 16 -18 16 -40 0 -33 -1 -34 -38 -34 -22 0 -73 -3 -115
-6 l-77 -7 0 36 c0 39 -2 38 145 50 22 2 43 4 47 5 3 1 13 -1 22 -4z m14 -141
l-3 -47 -40 -1 c-22 -1 -73 -5 -112 -9 l-73 -8 0 45 0 45 88 9 c154 18 144 20
140 -34z"/>
</g>
</svg>
