<?xml version="1.0" standalone="no"?>
<!DOCTYPE svg PUBLIC "-//W3C//DTD SVG 20010904//EN"
 "http://www.w3.org/TR/2001/REC-SVG-20010904/DTD/svg10.dtd">
<svg version="1.0" xmlns="http://www.w3.org/2000/svg"
 width="90.000000pt" height="92.000000pt" viewBox="0 0 90.000000 92.000000"
 preserveAspectRatio="xMidYMid meet">
<metadata>
Created by potrace 1.16, written by Peter Selinger 2001-2019
</metadata>
<g transform="translate(0.000000,92.000000) scale(0.100000,-0.100000)"
fill="#000000" stroke="none">
<path d="M160 797 c0 -8 13 -39 30 -70 21 -39 26 -57 17 -60 -7 -3 -54 -11
-105 -18 -98 -14 -115 -27 -62 -49 25 -10 40 -10 88 3 31 9 97 23 146 32 49 8
91 17 93 19 11 11 -35 30 -68 29 -38 -2 -39 -1 -39 31 0 41 -16 61 -62 81 -31
13 -38 13 -38 2z"/>
<path d="M535 773 c-169 -32 -166 -31 -135 -49 17 -10 40 -12 74 -8 l49 6 -6
-38 c-4 -22 -7 -49 -7 -61 0 -18 -7 -22 -60 -28 -77 -9 -77 -31 -1 -28 45 2
52 0 47 -15 -3 -9 -8 -33 -11 -54 -7 -38 -22 -47 -80 -48 -40 0 -75 -10 -75
-21 0 -18 65 -24 144 -13 44 7 133 15 196 19 63 3 135 8 160 11 l45 6 -29 25
c-26 22 -34 24 -87 18 -33 -4 -59 -4 -59 0 0 3 10 29 22 57 l22 51 -25 19
c-24 20 -28 20 -126 2 l-33 -6 15 42 c11 30 12 46 5 56 -16 18 -5 21 93 29 48
4 87 11 87 16 0 15 -44 39 -70 38 -14 -1 -83 -13 -155 -26z m128 -215 c-15
-78 -17 -80 -106 -92 -32 -4 -37 -2 -33 12 3 9 10 36 16 59 11 45 20 50 87 52
l43 1 -7 -32z"/>
<path d="M185 543 c-27 -9 -57 -18 -65 -20 -11 -4 -10 -8 8 -16 16 -7 42 -6
93 3 72 14 92 26 68 41 -19 12 -45 10 -104 -8z"/>
<path d="M218 455 c-3 -3 -25 -9 -48 -13 -60 -10 -65 -32 -8 -32 50 1 126 14
136 24 3 4 0 11 -8 16 -16 10 -63 13 -72 5z"/>
<path d="M215 344 c-22 -9 -61 -15 -87 -15 -52 0 -56 -3 -34 -25 8 -8 20 -38
26 -68 12 -57 39 -108 40 -73 0 13 9 17 39 17 21 0 53 3 70 6 25 5 29 9 20 20
-9 11 -5 27 16 71 27 54 27 57 10 70 -23 16 -49 16 -100 -3z m36 -36 c6 -68
-14 -98 -63 -98 -24 0 -28 4 -28 29 0 16 -3 36 -6 44 -4 11 6 18 33 25 53 14
63 14 64 0z"/>
<path d="M565 344 c-49 -7 -107 -10 -129 -7 l-38 6 15 -29 c8 -16 20 -63 26
-104 12 -73 28 -109 38 -82 3 7 24 12 56 12 29 0 82 3 120 7 52 4 65 9 57 18
-12 14 8 65 44 119 l20 29 -30 23 c-33 27 -49 28 -179 8z m102 -85 c-3 -33 -7
-62 -9 -64 -6 -6 -168 -21 -173 -16 -3 2 -5 30 -5 62 l0 58 48 6 c26 3 54 8
62 9 8 2 30 4 49 5 l34 1 -6 -61z"/>
</g>
</svg>
