<?xml version="1.0" standalone="no"?>
<!DOCTYPE svg PUBLIC "-//W3C//DTD SVG 20010904//EN"
 "http://www.w3.org/TR/2001/REC-SVG-20010904/DTD/svg10.dtd">
<svg version="1.0" xmlns="http://www.w3.org/2000/svg"
 width="96.000000pt" height="68.000000pt" viewBox="0 0 96.000000 68.000000"
 preserveAspectRatio="xMidYMid meet">
<metadata>
Created by potrace 1.16, written by Peter Selinger 2001-2019
</metadata>
<g transform="translate(0.000000,68.000000) scale(0.100000,-0.100000)"
fill="#000000" stroke="none">
<path d="M270 214 c-27 -9 -61 -13 -84 -9 -38 6 -39 5 -24 -12 8 -10 22 -36
29 -58 16 -45 28 -58 44 -45 6 5 33 10 60 12 42 2 50 6 47 21 -2 10 4 29 12
42 22 34 20 52 -6 59 -27 7 -22 8 -78 -10z m40 -38 c0 -31 -25 -56 -55 -56
-17 0 -26 8 -34 31 -6 18 -11 33 -11 35 0 2 39 8 83 12 12 2 17 -5 17 -22z"/>
</g>
</svg>
