<?xml version="1.0" standalone="no"?>
<!DOCTYPE svg PUBLIC "-//W3C//DTD SVG 20010904//EN"
 "http://www.w3.org/TR/2001/REC-SVG-20010904/DTD/svg10.dtd">
<svg version="1.0" xmlns="http://www.w3.org/2000/svg"
 width="96.000000pt" height="68.000000pt" viewBox="0 0 96.000000 68.000000"
 preserveAspectRatio="xMidYMid meet">
<metadata>
Created by potrace 1.16, written by Peter Selinger 2001-2019
</metadata>
<g transform="translate(0.000000,68.000000) scale(0.100000,-0.100000)"
fill="#000000" stroke="none">
<path d="M620 310 c-25 -5 -80 -9 -122 -11 -43 -2 -78 -4 -78 -5 0 -1 7 -15
15 -30 8 -16 15 -37 15 -47 0 -27 23 -31 113 -20 54 7 86 7 95 0 15 -12 12
-15 46 48 25 46 26 50 10 62 -19 14 -27 14 -94 3z m50 -32 c0 -38 -12 -45 -98
-58 -89 -13 -96 -11 -106 32 -6 25 -4 27 36 32 39 5 81 10 146 14 17 2 22 -3
22 -20z"/>
</g>
</svg>
