<?xml version="1.0" standalone="no"?>
<!DOCTYPE svg PUBLIC "-//W3C//DTD SVG 20010904//EN"
 "http://www.w3.org/TR/2001/REC-SVG-20010904/DTD/svg10.dtd">
<svg version="1.0" xmlns="http://www.w3.org/2000/svg"
 width="96.000000pt" height="68.000000pt" viewBox="0 0 96.000000 68.000000"
 preserveAspectRatio="xMidYMid meet">
<metadata>
Created by potrace 1.16, written by Peter Selinger 2001-2019
</metadata>
<g transform="translate(0.000000,68.000000) scale(0.100000,-0.100000)"
fill="#000000" stroke="none">
<path d="M229 413 c2 -81 -2 -194 -9 -250 -12 -105 -8 -143 15 -143 23 0 28
31 33 208 2 94 7 172 10 172 3 0 13 -7 23 -16 23 -21 57 -11 39 10 -6 8 -25
18 -41 21 -21 5 -29 11 -25 23 18 66 16 91 -6 106 -12 9 -27 16 -33 16 -7 0
-9 -49 -6 -147z"/>
<path d="M150 390 c0 -6 -11 -28 -25 -48 -37 -55 -30 -96 13 -73 38 20 56 118
25 129 -7 2 -13 -1 -13 -8z"/>
</g>
</svg>
