<?xml version="1.0" standalone="no"?>
<!DOCTYPE svg PUBLIC "-//W3C//DTD SVG 20010904//EN"
 "http://www.w3.org/TR/2001/REC-SVG-20010904/DTD/svg10.dtd">
<svg version="1.0" xmlns="http://www.w3.org/2000/svg"
 width="96.000000pt" height="68.000000pt" viewBox="0 0 96.000000 68.000000"
 preserveAspectRatio="xMidYMid meet">
<metadata>
Created by potrace 1.16, written by Peter Selinger 2001-2019
</metadata>
<g transform="translate(0.000000,68.000000) scale(0.100000,-0.100000)"
fill="#000000" stroke="none">
<path d="M565 607 c-2 -7 -6 -28 -7 -47 -3 -33 -5 -35 -45 -38 -24 -2 -43 -7
-43 -12 0 -10 25 -20 51 -20 14 0 19 -7 19 -25 0 -33 17 -32 38 4 17 30 48 41
125 41 36 0 48 12 25 26 -6 4 -33 6 -59 5 -48 -1 -49 -1 -43 28 5 25 2 30 -25
39 -24 9 -33 8 -36 -1z"/>
<path d="M300 578 c0 -7 7 -22 15 -32 8 -11 15 -23 15 -27 0 -4 -32 -11 -72
-15 l-72 -7 24 -19 c24 -19 44 -20 110 -3 21 5 27 2 37 -25 14 -38 33 -31 33
11 0 18 6 32 15 34 46 15 49 19 13 23 -33 3 -39 7 -46 35 -7 27 -14 33 -40 35
-21 2 -32 -1 -32 -10z"/>
<path d="M300 431 c0 -5 -16 -30 -35 -55 -36 -47 -43 -62 -24 -51 12 8 49 -22
49 -41 0 -7 -20 -15 -50 -19 -30 -4 -48 -11 -44 -17 4 -6 26 -8 54 -4 52 7 60
0 60 -50 0 -23 -2 -24 -84 -24 -84 0 -121 -13 -70 -26 14 -4 54 -3 87 1 34 3
96 11 137 15 41 5 155 9 252 9 176 1 219 9 161 32 -17 6 -55 8 -97 4 -63 -7
-68 -6 -63 11 19 68 15 64 74 64 66 0 70 23 5 28 -38 3 -42 5 -36 26 4 17 -1
25 -21 34 -41 19 -46 15 -39 -28 6 -35 4 -40 -12 -41 -11 0 -27 -2 -36 -4 -14
-2 -18 4 -18 26 0 27 -3 30 -37 29 -5 0 -8 -12 -8 -27 0 -21 -6 -28 -29 -34
-36 -10 -46 -4 -46 26 0 19 -16 35 -37 35 -3 0 -3 -16 -1 -35 4 -33 2 -35 -24
-35 -15 0 -31 0 -35 0 -5 -1 -9 8 -11 19 -2 12 -14 22 -33 26 -34 8 -38 21 -9
30 11 3 20 11 20 16 0 5 11 7 25 3 13 -3 55 -1 92 5 37 5 105 13 151 17 45 3
82 10 82 14 0 18 -62 20 -146 6 -166 -27 -166 -27 -160 -9 7 17 -9 33 -31 33
-7 0 -13 -4 -13 -9z m298 -194 c-3 -39 -5 -42 -35 -45 -31 -3 -33 -1 -33 27 0
45 8 56 41 58 30 2 30 1 27 -40z m-98 -7 c0 -39 -1 -40 -35 -40 -33 0 -35 2
-35 33 0 41 5 47 42 47 26 0 28 -3 28 -40z m-100 -10 c0 -37 -2 -40 -29 -40
-25 0 -29 4 -34 33 -5 35 5 47 41 47 19 0 22 -5 22 -40z"/>
<path d="M223 82 c-38 -47 -42 -72 -13 -72 27 0 52 42 48 80 l-3 32 -32 -40z"/>
<path d="M681 75 c41 -58 55 -69 74 -61 34 13 6 65 -52 95 -48 25 -56 13 -22
-34z"/>
<path d="M500 95 c0 -21 55 -79 67 -72 6 4 8 18 5 32 -7 40 -72 76 -72 40z"/>
<path d="M366 83 c8 -30 41 -66 53 -59 17 11 13 34 -9 56 -25 25 -50 26 -44 3z"/>
</g>
</svg>
