<?xml version="1.0" standalone="no"?>
<!DOCTYPE svg PUBLIC "-//W3C//DTD SVG 20010904//EN"
 "http://www.w3.org/TR/2001/REC-SVG-20010904/DTD/svg10.dtd">
<svg version="1.0" xmlns="http://www.w3.org/2000/svg"
 width="90.000000pt" height="92.000000pt" viewBox="0 0 90.000000 92.000000"
 preserveAspectRatio="xMidYMid meet">
<metadata>
Created by potrace 1.16, written by Peter Selinger 2001-2019
</metadata>
<g transform="translate(0.000000,92.000000) scale(0.100000,-0.100000)"
fill="#000000" stroke="none">
<path d="M445 808 c-8 -48 -62 -172 -95 -218 -28 -40 -13 -38 36 4 29 25 47
33 64 29 32 -6 259 32 272 45 16 16 0 32 -30 32 -15 -1 -79 -13 -143 -29
l-116 -28 44 74 c23 40 43 78 43 83 0 8 -52 50 -63 50 -3 0 -8 -19 -12 -42z"/>
<path d="M174 813 c4 -16 10 -69 13 -119 6 -104 14 -95 -91 -113 -33 -6 -62
-13 -65 -17 -15 -15 30 -24 92 -18 l67 6 0 -56 c0 -54 -1 -56 -40 -81 -22 -14
-65 -37 -95 -52 -47 -23 -55 -31 -53 -52 6 -50 32 -48 95 5 104 88 95 89 88
-2 -10 -128 -10 -127 -56 -121 -21 3 -39 4 -39 3 0 -2 23 -27 50 -57 l51 -54
19 24 c18 21 20 39 20 171 l0 148 38 30 c40 33 39 55 -2 28 -14 -9 -28 -16
-31 -16 -3 0 -5 20 -5 45 0 43 1 44 40 55 21 6 42 15 45 20 8 13 -33 33 -56
27 -17 -5 -19 1 -19 49 0 30 6 69 13 87 17 40 13 54 -23 72 -46 24 -64 20 -56
-12z"/>
<path d="M668 560 c4 -44 2 -50 -14 -50 -11 0 -28 -3 -39 -6 -17 -4 -20 0 -20
33 0 34 -3 38 -26 41 -26 3 -27 2 -22 -42 l6 -46 -32 0 c-28 0 -32 3 -30 23 4
31 -8 47 -36 47 -22 0 -23 -2 -12 -36 9 -29 8 -37 -4 -45 -29 -18 -49 -10 -49
21 0 19 -7 33 -20 40 -29 15 -41 4 -30 -26 15 -38 12 -54 -10 -54 -28 0 -25
-18 5 -26 25 -6 30 -14 41 -76 l6 -38 -45 0 c-54 0 -69 -15 -32 -32 20 -9 46
-9 113 0 48 6 155 16 237 22 183 13 188 15 150 41 -23 16 -41 19 -77 15 -27
-3 -48 -3 -48 -1 0 2 5 27 11 55 10 46 13 50 39 50 16 0 36 3 45 6 14 6 14 8
-1 25 -9 11 -25 19 -36 19 -20 0 -24 20 -6 38 16 16 -17 52 -47 52 -20 0 -22
-4 -17 -50z m-14 -132 c-9 -57 -21 -78 -44 -78 -17 0 -20 7 -20 54 0 49 2 55
23 59 47 9 48 9 41 -35z m-104 -28 c0 -57 -1 -60 -25 -60 -22 0 -25 4 -25 39
0 22 -3 46 -6 54 -4 11 2 17 23 20 15 2 29 5 31 6 1 0 2 -26 2 -59z m-90 8 c0
-18 3 -43 7 -56 5 -21 3 -23 -23 -20 -25 3 -30 8 -37 47 -9 46 -1 61 36 61 13
0 17 -8 17 -32z"/>
<path d="M740 187 c61 -93 75 -105 89 -78 13 23 1 64 -27 95 -18 19 -84 56
-101 56 -5 0 12 -33 39 -73z"/>
<path d="M550 245 c0 -17 72 -115 84 -115 21 0 27 42 10 68 -18 27 -94 65 -94
47z"/>
<path d="M317 193 c-32 -52 -34 -106 -4 -111 26 -5 61 78 52 124 -3 19 -9 34
-13 34 -4 0 -20 -21 -35 -47z"/>
<path d="M454 198 c32 -76 40 -89 55 -86 9 2 17 15 19 31 4 30 -44 87 -72 87
-14 0 -15 -4 -2 -32z"/>
</g>
</svg>
