<?xml version="1.0" standalone="no"?>
<!DOCTYPE svg PUBLIC "-//W3C//DTD SVG 20010904//EN"
 "http://www.w3.org/TR/2001/REC-SVG-20010904/DTD/svg10.dtd">
<svg version="1.0" xmlns="http://www.w3.org/2000/svg"
 width="96.000000pt" height="68.000000pt" viewBox="0 0 96.000000 68.000000"
 preserveAspectRatio="xMidYMid meet">
<metadata>
Created by potrace 1.16, written by Peter Selinger 2001-2019
</metadata>
<g transform="translate(0.000000,68.000000) scale(0.100000,-0.100000)"
fill="#000000" stroke="none">
<path d="M563 561 c-72 -9 -135 -19 -138 -23 -10 -10 61 -21 95 -15 38 8 44
-4 26 -48 -20 -47 -1 -47 44 0 26 27 32 38 22 44 -18 11 31 21 107 22 31 1 67
4 81 8 l25 7 -22 12 c-27 15 -72 14 -240 -7z"/>
</g>
</svg>
