<?xml version="1.0" standalone="no"?>
<!DOCTYPE svg PUBLIC "-//W3C//DTD SVG 20010904//EN"
 "http://www.w3.org/TR/2001/REC-SVG-20010904/DTD/svg10.dtd">
<svg version="1.0" xmlns="http://www.w3.org/2000/svg"
 width="96.000000pt" height="68.000000pt" viewBox="0 0 96.000000 68.000000"
 preserveAspectRatio="xMidYMid meet">
<metadata>
Created by potrace 1.16, written by Peter Selinger 2001-2019
</metadata>
<g transform="translate(0.000000,68.000000) scale(0.100000,-0.100000)"
fill="#000000" stroke="none">
<path d="M685 560 c-16 -4 -52 -8 -78 -9 l-48 -1 7 -130 7 -130 -37 0 c-20 0
-36 -5 -36 -11 0 -8 18 -10 63 -5 34 3 110 9 169 13 59 3 105 10 102 15 -3 4
-23 8 -45 8 l-41 0 8 93 c4 50 10 102 15 114 6 17 3 26 -14 38 -23 16 -27 16
-72 5z m33 -47 c-3 -26 -7 -28 -55 -33 -52 -5 -53 -5 -53 22 0 28 11 33 83 37
25 1 28 -2 25 -26z m-3 -68 c0 -14 -10 -18 -52 -22 -48 -4 -53 -2 -53 16 0 16
8 21 43 24 57 5 62 3 62 -18z m-1 -43 c10 -17 -12 -32 -57 -38 -43 -6 -47 -5
-47 14 0 15 8 22 28 25 49 7 71 7 76 -1z m-1 -58 c3 -4 2 -15 -4 -26 -8 -15
-19 -18 -57 -16 -58 4 -66 30 -12 39 51 9 66 10 73 3z"/>
<path d="M375 543 c-16 -2 -55 -9 -85 -15 -57 -12 -78 -13 -118 -7 l-24 4 -1
-145 c-2 -142 -3 -146 -34 -209 -18 -36 -30 -67 -27 -70 3 -3 24 14 45 38 35
40 44 60 63 144 8 34 23 27 34 -16 7 -27 13 -32 35 -29 25 3 27 0 27 -37 l0
-40 -50 -7 c-41 -5 -48 -9 -39 -20 16 -19 30 -18 115 12 l75 27 15 -22 c9 -12
20 -19 25 -16 18 12 8 44 -20 64 -36 26 -44 26 -36 1 5 -16 2 -20 -19 -20 -23
0 -26 4 -26 35 0 33 2 35 35 35 19 0 34 3 33 8 -1 4 5 20 12 35 17 34 4 47
-47 47 -30 0 -33 3 -33 29 0 24 5 29 32 35 21 4 28 10 22 16 -10 10 -62 3
-144 -17 -23 -6 -23 -7 10 -12 l35 -6 3 -62 c3 -57 1 -63 -16 -63 -18 0 -32
18 -32 41 0 5 7 9 15 9 8 0 15 4 15 8 0 4 -16 6 -35 4 l-35 -4 0 53 c0 30 3
70 6 90 l6 35 97 12 c53 7 103 12 113 12 14 0 17 -19 20 -152 3 -134 6 -158
25 -194 25 -48 70 -88 122 -110 41 -18 245 -24 260 -8 10 9 -18 114 -30 114
-3 0 -10 -15 -15 -32 -13 -46 -46 -60 -118 -53 -79 8 -142 39 -177 88 -28 39
-29 43 -29 163 0 67 4 134 10 149 7 18 6 31 -3 45 -12 20 -37 23 -112 13z m-7
-247 c-2 -11 -11 -22 -20 -24 -14 -3 -18 3 -18 26 0 25 3 29 21 25 13 -4 19
-12 17 -27z"/>
<path d="M562 212 c-18 -19 -31 -37 -28 -39 8 -8 106 51 106 65 0 24 -45 9
-78 -26z"/>
<path d="M730 215 c35 -36 70 -46 70 -20 0 18 -57 55 -84 55 -17 0 -15 -5 14
-35z"/>
</g>
</svg>
