<?xml version="1.0" standalone="no"?>
<!DOCTYPE svg PUBLIC "-//W3C//DTD SVG 20010904//EN"
 "http://www.w3.org/TR/2001/REC-SVG-20010904/DTD/svg10.dtd">
<svg version="1.0" xmlns="http://www.w3.org/2000/svg"
 width="96.000000pt" height="68.000000pt" viewBox="0 0 96.000000 68.000000"
 preserveAspectRatio="xMidYMid meet">
<metadata>
Created by potrace 1.16, written by Peter Selinger 2001-2019
</metadata>
<g transform="translate(0.000000,68.000000) scale(0.100000,-0.100000)"
fill="#000000" stroke="none">
<path d="M590 619 c-25 -4 -102 -11 -172 -15 l-126 -7 9 -24 c16 -43 -8 -165
-49 -248 -31 -63 -88 -144 -119 -168 -34 -27 -28 -41 8 -20 48 28 118 109 145
167 13 29 32 86 42 127 l18 74 85 7 c46 4 117 10 157 13 48 5 72 11 72 19 0 7
9 21 20 31 11 10 17 21 15 25 -10 17 -62 26 -105 19z m30 -39 c0 -22 -7 -24
-129 -40 -129 -16 -143 -14 -139 13 3 20 11 23 108 33 159 17 160 17 160 -6z"/>
</g>
</svg>
