<?xml version="1.0" standalone="no"?>
<!DOCTYPE svg PUBLIC "-//W3C//DTD SVG 20010904//EN"
 "http://www.w3.org/TR/2001/REC-SVG-20010904/DTD/svg10.dtd">
<svg version="1.0" xmlns="http://www.w3.org/2000/svg"
 width="96.000000pt" height="68.000000pt" viewBox="0 0 96.000000 68.000000"
 preserveAspectRatio="xMidYMid meet">
<metadata>
Created by potrace 1.16, written by Peter Selinger 2001-2019
</metadata>
<g transform="translate(0.000000,68.000000) scale(0.100000,-0.100000)"
fill="#000000" stroke="none">
<path d="M102 201 c-15 -48 -15 -68 -1 -77 17 -10 29 16 29 69 0 57 -13 61
-28 8z"/>
<path d="M310 235 c0 -12 33 -55 41 -55 13 0 11 34 -3 48 -12 12 -38 17 -38 7z"/>
<path d="M240 227 c0 -3 5 -18 12 -32 12 -28 41 -35 36 -9 -3 15 -48 53 -48
41z"/>
<path d="M170 208 c0 -7 9 -24 19 -37 24 -31 39 -10 17 24 -18 27 -36 33 -36
13z"/>
</g>
</svg>
