<?xml version="1.0" standalone="no"?>
<!DOCTYPE svg PUBLIC "-//W3C//DTD SVG 20010904//EN"
 "http://www.w3.org/TR/2001/REC-SVG-20010904/DTD/svg10.dtd">
<svg version="1.0" xmlns="http://www.w3.org/2000/svg"
 width="96.000000pt" height="68.000000pt" viewBox="0 0 96.000000 68.000000"
 preserveAspectRatio="xMidYMid meet">
<metadata>
Created by potrace 1.16, written by Peter Selinger 2001-2019
</metadata>
<g transform="translate(0.000000,68.000000) scale(0.100000,-0.100000)"
fill="#000000" stroke="none">
<path d="M208 406 l4 -145 -51 3 c-28 2 -51 3 -51 1 0 -1 7 -15 15 -31 8 -16
17 -48 21 -71 6 -40 27 -59 36 -32 2 5 38 13 81 16 68 5 77 8 77 26 0 10 10
37 22 58 12 21 18 42 14 46 -4 5 -32 8 -62 7 -59 0 -59 0 -48 67 6 36 7 37 61
42 30 3 58 9 61 12 14 14 -26 25 -71 19 l-49 -6 4 63 3 64 -35 3 -35 3 3 -145z
m102 -178 c0 -48 -9 -55 -71 -63 -53 -7 -56 -6 -62 17 -15 54 -9 67 31 71 101
10 102 10 102 -25z"/>
<path d="M565 529 c-22 -4 -62 -9 -90 -10 l-50 -1 0 -127 c1 -134 7 -160 31
-140 22 18 28 3 14 -30 -15 -37 -87 -105 -135 -128 -19 -9 -35 -20 -35 -25 0
-12 6 -10 73 23 74 36 160 123 151 152 -5 14 -2 18 13 15 15 -3 18 -15 21 -84
4 -110 13 -118 136 -122 86 -4 95 -2 120 20 l26 23 -17 37 c-20 41 -33 49 -33
18 0 -38 -38 -60 -106 -60 -77 0 -95 14 -87 68 3 20 10 45 15 55 5 10 6 27 3
37 -8 24 20 28 29 5 8 -23 35 -18 40 8 3 12 7 75 8 139 3 114 2 117 -20 128
-26 11 -50 11 -107 -1z m69 -35 c17 -44 9 -51 -71 -58 -84 -7 -99 -1 -89 38 7
27 22 33 102 35 39 1 53 -3 58 -15z m6 -99 c0 -22 -5 -25 -32 -25 -18 0 -57
-3 -86 -7 -52 -6 -54 -5 -50 18 3 21 10 25 53 30 107 13 115 11 115 -16z m0
-75 c0 -30 -1 -30 -54 -30 -29 0 -68 -3 -85 -6 -29 -6 -31 -5 -31 24 l0 31 73
4 c39 1 78 4 85 5 7 1 12 -10 12 -28z"/>
</g>
</svg>
