<?xml version="1.0" standalone="no"?>
<!DOCTYPE svg PUBLIC "-//W3C//DTD SVG 20010904//EN"
 "http://www.w3.org/TR/2001/REC-SVG-20010904/DTD/svg10.dtd">
<svg version="1.0" xmlns="http://www.w3.org/2000/svg"
 width="96.000000pt" height="68.000000pt" viewBox="0 0 96.000000 68.000000"
 preserveAspectRatio="xMidYMid meet">
<metadata>
Created by potrace 1.16, written by Peter Selinger 2001-2019
</metadata>
<g transform="translate(0.000000,68.000000) scale(0.100000,-0.100000)"
fill="#000000" stroke="none">
<path d="M258 519 c4 -69 2 -93 -8 -99 -8 -5 -44 -11 -82 -15 -37 -4 -68 -11
-68 -15 0 -14 59 -22 106 -15 24 3 44 4 44 0 0 -18 -87 -139 -126 -175 -25
-23 -43 -44 -40 -47 12 -12 99 42 137 85 l41 47 -6 -65 c-4 -36 -9 -83 -12
-105 -7 -51 15 -86 43 -69 15 10 18 28 21 133 l3 122 30 -25 c36 -31 45 -32
58 -8 13 25 2 39 -44 55 -31 11 -41 20 -43 39 -3 23 1 26 47 32 83 11 83 42 0
39 -45 -1 -49 1 -45 20 3 12 7 47 10 78 5 53 4 57 -20 67 -50 23 -52 19 -46
-79z"/>
<path d="M510 503 c0 -4 14 -25 31 -46 17 -21 29 -40 26 -43 -2 -3 -37 -8 -76
-11 -84 -7 -82 -21 4 -25 l60 -3 3 -47 c3 -45 2 -48 -21 -48 -39 0 -87 -12
-87 -21 0 -5 25 -9 55 -9 l56 0 -3 -57 -3 -58 -60 -2 c-33 -2 -80 -6 -105 -9
l-45 -6 32 -13 c23 -10 49 -11 100 -5 37 5 124 10 192 11 69 1 138 5 154 8 28
6 29 7 12 21 -18 15 -33 15 -195 7 l-35 -2 3 55 c2 30 5 56 7 58 2 2 27 7 55
11 65 8 65 26 0 26 l-50 0 0 47 0 47 48 6 c26 3 60 9 76 12 29 5 29 6 10 20
-18 14 -32 13 -111 -3 -31 -6 -33 -4 -33 20 0 16 -9 31 -22 40 -29 19 -78 31
-78 19z"/>
</g>
</svg>
