<?xml version="1.0" standalone="no"?>
<!DOCTYPE svg PUBLIC "-//W3C//DTD SVG 20010904//EN"
 "http://www.w3.org/TR/2001/REC-SVG-20010904/DTD/svg10.dtd">
<svg version="1.0" xmlns="http://www.w3.org/2000/svg"
 width="96.000000pt" height="68.000000pt" viewBox="0 0 96.000000 68.000000"
 preserveAspectRatio="xMidYMid meet">
<metadata>
Created by potrace 1.16, written by Peter Selinger 2001-2019
</metadata>
<g transform="translate(0.000000,68.000000) scale(0.100000,-0.100000)"
fill="#000000" stroke="none">
<path d="M414 458 c3 -13 6 -35 6 -50 0 -21 5 -28 19 -28 10 0 21 9 24 19 4
16 17 21 76 27 39 3 71 11 71 17 0 6 -25 8 -70 4 -55 -5 -70 -3 -70 8 0 14
-21 25 -47 25 -11 0 -14 -6 -9 -22z"/>
</g>
</svg>
