<?xml version="1.0" standalone="no"?>
<!DOCTYPE svg PUBLIC "-//W3C//DTD SVG 20010904//EN"
 "http://www.w3.org/TR/2001/REC-SVG-20010904/DTD/svg10.dtd">
<svg version="1.0" xmlns="http://www.w3.org/2000/svg"
 width="96.000000pt" height="68.000000pt" viewBox="0 0 96.000000 68.000000"
 preserveAspectRatio="xMidYMid meet">
<metadata>
Created by potrace 1.16, written by Peter Selinger 2001-2019
</metadata>
<g transform="translate(0.000000,68.000000) scale(0.100000,-0.100000)"
fill="#000000" stroke="none">
<path d="M470 609 c-41 -5 -115 -11 -165 -14 -50 -2 -92 -5 -95 -5 -3 0 3 -7
13 -14 10 -8 27 -36 37 -63 l18 -48 62 4 c71 4 80 -3 80 -61 l0 -38 -77 0
c-43 0 -73 -4 -67 -8 6 -4 18 -34 26 -67 l15 -60 49 -3 c54 -4 67 -11 55 -30
-5 -8 -53 -16 -141 -22 -73 -5 -135 -12 -138 -14 -2 -3 8 -8 23 -12 26 -6 100
-2 213 12 l52 7 0 -76 c0 -42 4 -78 9 -82 17 -10 31 32 31 93 0 74 -5 72 188
72 78 0 142 4 142 9 0 17 -54 22 -186 15 -133 -7 -134 -7 -134 15 0 19 5 21
55 21 l54 0 37 57 c20 31 38 62 40 68 8 20 -56 31 -125 23 -69 -8 -84 -5 -79
20 2 10 14 16 33 17 106 4 117 5 112 18 -2 6 -8 11 -13 11 -93 -14 -124 -14
-124 -1 0 9 -6 17 -12 19 -20 7 125 18 149 12 17 -5 27 2 50 37 15 23 33 48
38 56 7 10 5 18 -9 29 -22 16 -93 17 -216 3z m12 -41 c3 -7 2 -23 0 -35 -3
-19 -11 -23 -38 -23 -30 0 -34 3 -34 25 0 14 -6 26 -12 26 -15 2 38 16 64 18
9 0 18 -4 20 -11z m124 -10 c-3 -13 -6 -26 -6 -30 0 -5 -23 -8 -51 -8 -37 0
-49 3 -45 13 3 6 9 20 12 30 5 13 17 17 51 17 42 0 45 -2 39 -22z m-238 0 c5
-7 13 -23 16 -35 7 -21 4 -23 -34 -23 -34 0 -42 4 -50 26 -13 33 -13 32 8 37
32 9 50 7 60 -5z m222 -207 c0 -17 -10 -20 -67 -26 -38 -4 -93 -10 -123 -15
-62 -9 -70 -7 -70 19 0 16 13 20 98 28 156 16 162 16 162 -6z m-16 -49 c12
-19 -15 -33 -85 -42 -117 -15 -151 -13 -147 8 3 14 21 19 108 28 58 6 108 12
112 13 4 0 9 -3 12 -7z"/>
</g>
</svg>
