<?xml version="1.0" standalone="no"?>
<!DOCTYPE svg PUBLIC "-//W3C//DTD SVG 20010904//EN"
 "http://www.w3.org/TR/2001/REC-SVG-20010904/DTD/svg10.dtd">
<svg version="1.0" xmlns="http://www.w3.org/2000/svg"
 width="96.000000pt" height="68.000000pt" viewBox="0 0 96.000000 68.000000"
 preserveAspectRatio="xMidYMid meet">
<metadata>
Created by potrace 1.16, written by Peter Selinger 2001-2019
</metadata>
<g transform="translate(0.000000,68.000000) scale(0.100000,-0.100000)"
fill="#000000" stroke="none">
<path d="M414 561 c0 -39 -5 -76 -11 -83 -6 -7 -16 -29 -22 -49 -19 -58 -125
-164 -211 -210 -61 -32 -68 -39 -40 -34 92 17 230 117 271 197 24 48 79 201
79 221 0 16 -20 27 -48 27 -14 0 -17 -12 -18 -69z"/>
<path d="M549 554 c-49 -50 -44 -53 38 -23 70 26 69 25 54 43 -25 30 -48 25
-92 -20z"/>
<path d="M291 539 c29 -38 66 -50 75 -24 9 23 -14 42 -61 51 l-40 7 26 -34z"/>
<path d="M503 359 c10 -6 59 -42 109 -80 86 -65 93 -69 142 -68 28 1 62 4 76
8 22 7 19 9 -29 24 -30 10 -59 17 -65 17 -6 0 -56 25 -111 55 -54 30 -108 55
-120 55 -19 -1 -19 -1 -2 -11z"/>
</g>
</svg>
