<?xml version="1.0" standalone="no"?>
<!DOCTYPE svg PUBLIC "-//W3C//DTD SVG 20010904//EN"
 "http://www.w3.org/TR/2001/REC-SVG-20010904/DTD/svg10.dtd">
<svg version="1.0" xmlns="http://www.w3.org/2000/svg"
 width="90.000000pt" height="92.000000pt" viewBox="0 0 90.000000 92.000000"
 preserveAspectRatio="xMidYMid meet">
<metadata>
Created by potrace 1.16, written by Peter Selinger 2001-2019
</metadata>
<g transform="translate(0.000000,92.000000) scale(0.100000,-0.100000)"
fill="#000000" stroke="none">
<path d="M386 869 c17 -97 20 -93 -78 -103 -49 -5 -88 -13 -88 -17 0 -17 28
-23 102 -21 l78 2 0 -38 c0 -39 0 -39 -46 -46 -26 -3 -71 -6 -100 -6 -30 0
-54 -2 -54 -4 0 -2 6 -19 14 -37 8 -19 19 -72 25 -118 10 -80 27 -123 40 -103
3 5 32 11 64 14 l57 5 0 -37 0 -37 -52 -6 c-29 -3 -110 -12 -180 -18 -71 -7
-128 -16 -128 -20 0 -4 14 -17 30 -29 29 -21 32 -21 98 -7 37 9 94 18 127 22
33 3 70 8 83 11 22 4 22 3 22 -113 0 -195 37 -184 47 13 l6 102 36 6 c20 3
107 6 193 6 86 0 159 4 162 9 7 11 -22 37 -54 49 -14 5 -49 6 -80 2 -30 -4
-101 -11 -157 -15 l-103 -7 0 35 c0 31 3 35 31 41 52 10 87 7 93 -9 3 -8 12
-12 20 -9 17 6 27 31 57 134 12 41 28 85 35 97 12 20 11 24 -13 43 -14 11 -38
23 -52 27 -22 5 -118 -9 -156 -24 -12 -4 -15 4 -15 35 0 40 1 40 43 47 93 14
147 27 147 35 0 5 -10 15 -22 21 -16 9 -37 9 -90 -1 -37 -7 -70 -11 -72 -9 -2
2 -1 23 4 46 8 49 1 59 -50 69 l-32 7 8 -44z m214 -266 l0 -38 -75 0 -75 0 0
32 c0 35 9 39 103 42 l47 1 0 -37z m-200 -18 c0 -32 -3 -34 -37 -40 -21 -3
-50 -8 -65 -10 -27 -4 -28 -2 -28 35 0 38 0 39 43 43 93 8 87 10 87 -28z m181
-102 l-10 -38 -61 -1 -60 -1 0 37 0 38 68 8 c37 5 68 6 70 2 2 -3 -1 -24 -7
-45z m-181 -12 l0 -38 -51 -6 c-29 -4 -56 -4 -60 -1 -5 3 -9 20 -9 39 0 33 2
34 43 38 23 2 50 4 60 5 13 2 17 -6 17 -37z"/>
</g>
</svg>
