<?xml version="1.0" standalone="no"?>
<!DOCTYPE svg PUBLIC "-//W3C//DTD SVG 20010904//EN"
 "http://www.w3.org/TR/2001/REC-SVG-20010904/DTD/svg10.dtd">
<svg version="1.0" xmlns="http://www.w3.org/2000/svg"
 width="96.000000pt" height="68.000000pt" viewBox="0 0 96.000000 68.000000"
 preserveAspectRatio="xMidYMid meet">
<metadata>
Created by potrace 1.16, written by Peter Selinger 2001-2019
</metadata>
<g transform="translate(0.000000,68.000000) scale(0.100000,-0.100000)"
fill="#000000" stroke="none">
<path d="M440 251 l0 -28 -102 -7 c-221 -14 -248 -21 -189 -46 22 -9 43 -9 83
-1 29 5 80 13 113 16 33 4 68 9 78 11 15 5 17 -4 17 -90 0 -55 4 -96 10 -96
19 0 30 40 30 109 0 38 5 73 10 76 6 4 82 8 168 9 157 1 189 9 140 33 -18 9
-51 10 -129 3 -169 -15 -179 -14 -179 15 0 20 -5 25 -25 25 -21 0 -25 -5 -25
-29z"/>
</g>
</svg>
