<?xml version="1.0" standalone="no"?>
<!DOCTYPE svg PUBLIC "-//W3C//DTD SVG 20010904//EN"
 "http://www.w3.org/TR/2001/REC-SVG-20010904/DTD/svg10.dtd">
<svg version="1.0" xmlns="http://www.w3.org/2000/svg"
 width="96.000000pt" height="68.000000pt" viewBox="0 0 96.000000 68.000000"
 preserveAspectRatio="xMidYMid meet">
<metadata>
Created by potrace 1.16, written by Peter Selinger 2001-2019
</metadata>
<g transform="translate(0.000000,68.000000) scale(0.100000,-0.100000)"
fill="#000000" stroke="none">
<path d="M619 348 c-21 -29 -21 -31 -3 -24 10 5 31 13 47 18 30 11 35 23 11
32 -26 10 -32 7 -55 -26z"/>
<path d="M623 216 c29 -29 53 -46 62 -42 8 3 17 1 20 -4 4 -6 0 -10 -7 -11 -7
0 -3 -5 9 -11 13 -6 37 -7 60 -3 31 6 34 9 18 15 -11 4 -26 5 -32 3 -7 -3 -13
0 -13 6 0 6 -3 10 -7 9 -16 -3 -63 14 -58 22 3 4 -10 13 -28 20 -17 8 -41 20
-52 28 -11 9 1 -6 28 -32z"/>
</g>
</svg>
