<?xml version="1.0" standalone="no"?>
<!DOCTYPE svg PUBLIC "-//W3C//DTD SVG 20010904//EN"
 "http://www.w3.org/TR/2001/REC-SVG-20010904/DTD/svg10.dtd">
<svg version="1.0" xmlns="http://www.w3.org/2000/svg"
 width="96.000000pt" height="68.000000pt" viewBox="0 0 96.000000 68.000000"
 preserveAspectRatio="xMidYMid meet">
<metadata>
Created by potrace 1.16, written by Peter Selinger 2001-2019
</metadata>
<g transform="translate(0.000000,68.000000) scale(0.100000,-0.100000)"
fill="#000000" stroke="none">
<path d="M595 585 c-22 -8 -69 -14 -104 -14 -58 -1 -62 -2 -50 -17 8 -9 19
-33 25 -53 11 -40 10 -40 136 -27 51 6 66 11 61 21 -2 8 2 29 11 46 24 48 -9
66 -79 44z m25 -44 c0 -36 -5 -39 -65 -48 -49 -6 -65 3 -65 38 0 13 15 19 58
27 31 5 60 10 65 11 4 0 7 -12 7 -28z"/>
</g>
</svg>
