<?xml version="1.0" standalone="no"?>
<!DOCTYPE svg PUBLIC "-//W3C//DTD SVG 20010904//EN"
 "http://www.w3.org/TR/2001/REC-SVG-20010904/DTD/svg10.dtd">
<svg version="1.0" xmlns="http://www.w3.org/2000/svg"
 width="96.000000pt" height="68.000000pt" viewBox="0 0 96.000000 68.000000"
 preserveAspectRatio="xMidYMid meet">
<metadata>
Created by potrace 1.16, written by Peter Selinger 2001-2019
</metadata>
<g transform="translate(0.000000,68.000000) scale(0.100000,-0.100000)"
fill="#000000" stroke="none">
<path d="M540 286 c0 -27 -7 -29 -145 -42 -64 -6 -68 -7 -45 -19 18 -9 40 -10
75 -4 28 4 61 8 75 8 23 1 22 -1 -15 -40 -22 -22 -64 -56 -92 -75 -58 -38 -66
-49 -28 -34 48 18 90 43 133 77 47 38 46 40 43 -57 -2 -58 9 -87 28 -76 7 4
11 39 11 87 0 43 3 79 8 79 4 0 27 -21 52 -46 25 -26 54 -50 66 -54 25 -10
127 4 104 13 -8 3 -40 15 -69 26 -64 24 -151 81 -151 99 0 9 29 12 110 12 65
0 110 4 110 10 0 16 -42 22 -134 18 -84 -3 -86 -2 -86 20 0 17 -6 22 -25 22
-20 0 -25 -5 -25 -24z"/>
</g>
</svg>
