<?xml version="1.0" standalone="no"?>
<!DOCTYPE svg PUBLIC "-//W3C//DTD SVG 20010904//EN"
 "http://www.w3.org/TR/2001/REC-SVG-20010904/DTD/svg10.dtd">
<svg version="1.0" xmlns="http://www.w3.org/2000/svg"
 width="96.000000pt" height="68.000000pt" viewBox="0 0 96.000000 68.000000"
 preserveAspectRatio="xMidYMid meet">
<metadata>
Created by potrace 1.16, written by Peter Selinger 2001-2019
</metadata>
<g transform="translate(0.000000,68.000000) scale(0.100000,-0.100000)"
fill="#000000" stroke="none">
<path d="M450 571 c0 -77 3 -74 -77 -86 -48 -8 -50 -5 -25 37 16 28 16 30 -2
44 -11 8 -28 14 -39 14 -15 0 -17 -5 -12 -28 4 -20 0 -36 -15 -54 -24 -31 -25
-51 -6 -67 11 -9 30 -7 86 10 39 12 74 19 77 16 9 -10 -32 -72 -48 -73 -168
-8 -279 -18 -279 -24 0 -18 68 -21 177 -9 118 13 126 11 137 -28 6 -19 2 -23
-29 -29 -20 -3 -54 -4 -76 -1 -21 3 -42 1 -45 -4 -3 -5 -1 -9 5 -9 5 0 18 -24
27 -53 l17 -53 53 4 54 4 0 -40 0 -40 -80 -12 c-44 -7 -91 -10 -105 -8 -34 7
-39 -5 -14 -28 20 -18 23 -18 132 5 62 13 142 29 180 34 l67 11 33 -32 c18
-18 38 -32 44 -32 17 0 24 29 13 51 -12 21 -99 69 -126 69 -16 0 -16 -1 0 -19
16 -17 15 -19 -21 -25 -75 -12 -83 -9 -83 28 l0 34 80 7 c44 4 77 11 75 16 -7
10 22 70 39 82 7 5 5 12 -9 23 -16 12 -35 14 -97 9 l-77 -7 2 29 2 28 175 5
c172 5 209 14 140 34 -20 6 -89 4 -191 -4 -87 -7 -162 -10 -166 -7 -3 4 1 15
10 25 10 10 17 23 17 29 0 15 18 21 89 29 58 6 61 6 61 -15 0 -17 5 -22 22
-19 16 2 26 17 41 62 19 57 19 60 1 73 -10 7 -28 13 -41 13 -21 0 -23 -3 -17
-39 l6 -39 -58 -4 c-33 -2 -62 -3 -65 -1 -4 1 -2 26 3 55 8 45 7 54 -8 65 -10
7 -26 13 -36 13 -16 0 -18 -9 -18 -69z m131 -316 c-4 -37 -15 -45 -63 -45 -38
0 -38 0 -38 41 l0 40 53 -3 c51 -3 52 -3 48 -33z m-151 -15 l0 -40 -44 0 c-37
0 -45 4 -50 23 -12 47 -8 52 44 55 l50 2 0 -40z"/>
</g>
</svg>
