<?xml version="1.0" standalone="no"?>
<!DOCTYPE svg PUBLIC "-//W3C//DTD SVG 20010904//EN"
 "http://www.w3.org/TR/2001/REC-SVG-20010904/DTD/svg10.dtd">
<svg version="1.0" xmlns="http://www.w3.org/2000/svg"
 width="96.000000pt" height="68.000000pt" viewBox="0 0 96.000000 68.000000"
 preserveAspectRatio="xMidYMid meet">
<metadata>
Created by potrace 1.16, written by Peter Selinger 2001-2019
</metadata>
<g transform="translate(0.000000,68.000000) scale(0.100000,-0.100000)"
fill="#000000" stroke="none">
<path d="M700 234 l-45 -14 41 5 c33 4 45 1 60 -17 10 -12 14 -19 9 -16 -7 4
-10 -8 -10 -32 0 -21 -3 -36 -6 -34 -4 2 -13 -12 -19 -32 -11 -33 -15 -36 -41
-30 -27 5 -28 4 -17 -14 35 -56 118 25 102 98 -3 16 -2 22 3 15 6 -8 12 -1 19
23 9 29 9 34 -5 34 -13 0 -13 2 -3 9 10 6 8 10 -10 14 -27 8 -22 9 -78 -9z
m60 -145 c0 -6 -4 -7 -10 -4 -5 3 -10 11 -10 16 0 6 5 7 10 4 6 -3 10 -11 10
-16z"/>
</g>
</svg>
