<?xml version="1.0" standalone="no"?>
<!DOCTYPE svg PUBLIC "-//W3C//DTD SVG 20010904//EN"
 "http://www.w3.org/TR/2001/REC-SVG-20010904/DTD/svg10.dtd">
<svg version="1.0" xmlns="http://www.w3.org/2000/svg"
 width="96.000000pt" height="68.000000pt" viewBox="0 0 96.000000 68.000000"
 preserveAspectRatio="xMidYMid meet">
<metadata>
Created by potrace 1.16, written by Peter Selinger 2001-2019
</metadata>
<g transform="translate(0.000000,68.000000) scale(0.100000,-0.100000)"
fill="#000000" stroke="none">
<path d="M265 573 c3 -10 9 -45 12 -79 6 -70 9 -68 -89 -80 -80 -9 -63 -27 18
-21 48 4 64 2 64 -7 0 -21 -48 -87 -108 -149 -31 -31 -52 -57 -46 -57 20 0 99
60 124 95 14 19 27 35 30 35 3 0 2 -44 -4 -97 -12 -130 -11 -150 5 -169 12
-14 14 -14 26 2 9 13 13 57 13 151 0 73 2 133 5 133 3 0 15 -9 27 -20 27 -25
61 -27 56 -3 -2 9 -22 23 -45 31 -24 7 -43 20 -43 27 0 29 13 45 39 45 14 0
33 5 41 10 23 15 -6 30 -43 23 l-29 -6 7 66 c7 66 7 67 -20 77 -38 14 -48 13
-40 -7z"/>
</g>
</svg>
