<?xml version="1.0" standalone="no"?>
<!DOCTYPE svg PUBLIC "-//W3C//DTD SVG 20010904//EN"
 "http://www.w3.org/TR/2001/REC-SVG-20010904/DTD/svg10.dtd">
<svg version="1.0" xmlns="http://www.w3.org/2000/svg"
 width="96.000000pt" height="68.000000pt" viewBox="0 0 96.000000 68.000000"
 preserveAspectRatio="xMidYMid meet">
<metadata>
Created by potrace 1.16, written by Peter Selinger 2001-2019
</metadata>
<g transform="translate(0.000000,68.000000) scale(0.100000,-0.100000)"
fill="#000000" stroke="none">
<path d="M255 552 c-8 -47 -42 -101 -113 -177 -29 -31 -51 -59 -48 -62 3 -3
27 8 53 24 60 36 106 33 111 -8 3 -25 0 -27 -47 -33 -65 -9 -66 -26 -2 -26 53
0 61 -9 61 -78 0 -39 -25 -52 -101 -52 -58 0 -67 -20 -18 -45 29 -16 33 -15
112 18 45 19 99 40 120 47 46 14 50 35 5 27 -18 -4 -44 -9 -57 -13 -24 -7 -24
-7 -17 47 4 29 9 55 11 57 2 3 19 7 36 11 49 10 49 31 0 31 -37 0 -41 2 -41
25 0 19 7 26 33 33 17 4 31 12 29 18 -3 11 -49 11 -115 0 l-48 -7 43 60 c24
33 46 61 50 61 4 0 23 -14 43 -31 36 -32 65 -33 65 -4 0 18 -56 55 -84 55 -11
0 -16 5 -13 14 7 17 -23 46 -45 46 -11 0 -18 -13 -23 -38z"/>
<path d="M546 547 c-9 -23 -30 -58 -47 -76 -17 -20 -28 -40 -24 -49 5 -15 22
-14 114 4 l34 7 -18 -30 c-20 -34 -49 -43 -147 -43 -31 0 -60 -4 -63 -10 -10
-16 42 -23 102 -12 83 14 84 12 81 -132 l-3 -121 -27 2 c-34 2 -35 -7 -5 -35
29 -27 49 -28 71 -3 15 16 16 38 13 160 l-3 141 30 2 c17 1 38 2 46 4 8 1 47
3 85 3 66 2 68 3 45 16 -19 10 -48 12 -120 8 l-95 -6 63 70 c34 39 62 75 62
81 0 18 -29 22 -85 10 -55 -11 -82 -5 -55 12 11 7 11 11 1 24 -22 26 -37 18
-55 -27z m114 -42 c0 -18 -26 -55 -39 -55 -9 0 -33 -3 -53 -6 -43 -7 -48 3
-20 41 14 20 26 24 65 25 26 0 47 -2 47 -5z"/>
<path d="M716 312 c-4 -10 -16 -29 -27 -41 -30 -32 -19 -35 34 -9 48 24 56 35
35 56 -17 17 -36 15 -42 -6z"/>
<path d="M450 293 c1 -14 24 -39 47 -51 24 -13 37 -3 27 23 -9 23 -75 47 -74
28z"/>
<path d="M355 234 c-8 -20 -15 -38 -15 -40 0 -9 57 25 70 41 12 14 12 18 -1
26 -26 16 -39 10 -54 -27z"/>
<path d="M160 231 c0 -16 41 -61 56 -61 26 0 29 32 5 52 -24 19 -61 25 -61 9z"/>
<path d="M458 167 c-69 -33 -80 -50 -36 -55 20 -2 39 8 75 42 26 25 44 46 38
45 -5 0 -40 -14 -77 -32z"/>
<path d="M720 153 c24 -21 56 -46 71 -56 25 -16 30 -17 35 -4 3 9 0 25 -6 37
-12 23 -88 60 -123 60 -17 0 -13 -7 23 -37z"/>
</g>
</svg>
