<?xml version="1.0" standalone="no"?>
<!DOCTYPE svg PUBLIC "-//W3C//DTD SVG 20010904//EN"
 "http://www.w3.org/TR/2001/REC-SVG-20010904/DTD/svg10.dtd">
<svg version="1.0" xmlns="http://www.w3.org/2000/svg"
 width="96.000000pt" height="68.000000pt" viewBox="0 0 96.000000 68.000000"
 preserveAspectRatio="xMidYMid meet">
<metadata>
Created by potrace 1.16, written by Peter Selinger 2001-2019
</metadata>
<g transform="translate(0.000000,68.000000) scale(0.100000,-0.100000)"
fill="#000000" stroke="none">
<path d="M560 281 c0 -40 -1 -41 -37 -42 -21 -1 -51 -5 -68 -9 -25 -6 -27 -8
-12 -15 10 -4 33 -5 52 -2 22 4 35 2 35 -5 0 -11 -68 -74 -124 -115 -16 -13
-24 -23 -18 -23 22 0 87 37 127 73 22 20 42 34 45 32 4 -2 5 -32 3 -67 -2 -45
1 -70 12 -83 24 -33 37 -1 32 83 -2 39 -2 72 1 72 2 0 27 -20 54 -45 47 -42
54 -45 106 -45 30 0 52 3 49 7 -4 3 -36 18 -71 33 -65 28 -136 75 -136 91 0 5
28 9 63 9 72 0 107 14 63 26 -15 3 -50 4 -76 1 l-49 -6 -3 32 c-2 24 -8 33
-25 35 -21 3 -23 -1 -23 -37z"/>
</g>
</svg>
