<?xml version="1.0" standalone="no"?>
<!DOCTYPE svg PUBLIC "-//W3C//DTD SVG 20010904//EN"
 "http://www.w3.org/TR/2001/REC-SVG-20010904/DTD/svg10.dtd">
<svg version="1.0" xmlns="http://www.w3.org/2000/svg"
 width="96.000000pt" height="68.000000pt" viewBox="0 0 96.000000 68.000000"
 preserveAspectRatio="xMidYMid meet">
<metadata>
Created by potrace 1.16, written by Peter Selinger 2001-2019
</metadata>
<g transform="translate(0.000000,68.000000) scale(0.100000,-0.100000)"
fill="#000000" stroke="none">
<path d="M500 230 c-36 -4 -93 -8 -128 -9 l-63 -1 20 -25 c11 -14 23 -40 26
-58 12 -57 16 -67 31 -67 8 0 14 5 14 10 0 6 28 10 63 10 109 0 167 11 167 30
0 9 11 34 25 54 l24 36 -29 15 c-31 16 -46 16 -150 5z m90 -49 c0 -39 -24 -61
-64 -61 -18 0 -53 -3 -78 -6 -44 -6 -44 -6 -56 32 -6 21 -9 40 -7 43 9 8 81
19 143 20 l62 1 0 -29z"/>
</g>
</svg>
