<?xml version="1.0" standalone="no"?>
<!DOCTYPE svg PUBLIC "-//W3C//DTD SVG 20010904//EN"
 "http://www.w3.org/TR/2001/REC-SVG-20010904/DTD/svg10.dtd">
<svg version="1.0" xmlns="http://www.w3.org/2000/svg"
 width="96.000000pt" height="68.000000pt" viewBox="0 0 96.000000 68.000000"
 preserveAspectRatio="xMidYMid meet">
<metadata>
Created by potrace 1.16, written by Peter Selinger 2001-2019
</metadata>
<g transform="translate(0.000000,68.000000) scale(0.100000,-0.100000)"
fill="#000000" stroke="none">
<path d="M524 267 c5 -21 2 -25 -25 -31 -53 -10 -78 -7 -99 14 -28 28 -50 26
-50 -5 0 -22 -4 -25 -34 -25 -19 0 -38 -4 -41 -10 -4 -6 11 -10 38 -10 38 0
46 -3 50 -22 8 -30 -7 -38 -78 -39 -33 0 -82 -4 -110 -8 -41 -6 -46 -9 -30
-17 26 -11 79 -10 185 4 46 7 145 13 220 13 74 1 167 4 205 8 66 6 68 7 46 20
-26 15 -69 16 -173 6 -62 -6 -68 -5 -68 11 0 30 12 41 53 48 40 7 42 26 2 26
-13 0 -28 6 -32 13 -4 8 -21 17 -37 21 -26 6 -28 5 -22 -17z m-6 -84 c-3 -26
-7 -28 -55 -31 -51 -3 -53 -2 -53 22 0 27 13 33 73 35 36 1 38 -1 35 -26z"/>
</g>
</svg>
