<?xml version="1.0" standalone="no"?>
<!DOCTYPE svg PUBLIC "-//W3C//DTD SVG 20010904//EN"
 "http://www.w3.org/TR/2001/REC-SVG-20010904/DTD/svg10.dtd">
<svg version="1.0" xmlns="http://www.w3.org/2000/svg"
 width="96.000000pt" height="68.000000pt" viewBox="0 0 96.000000 68.000000"
 preserveAspectRatio="xMidYMid meet">
<metadata>
Created by potrace 1.16, written by Peter Selinger 2001-2019
</metadata>
<g transform="translate(0.000000,68.000000) scale(0.100000,-0.100000)"
fill="#000000" stroke="none">
<path d="M205 443 c-22 -8 -57 -13 -77 -11 -43 4 -43 5 -24 -25 8 -12 17 -40
21 -62 10 -57 23 -79 40 -65 7 6 35 13 63 17 35 4 49 9 45 18 -2 7 6 37 18 65
22 51 22 53 4 66 -23 17 -37 16 -90 -3z m40 -60 c-8 -57 -11 -61 -52 -69 -30
-6 -31 -5 -39 37 -12 64 -12 63 26 70 74 13 73 14 65 -38z"/>
</g>
</svg>
