<?xml version="1.0" standalone="no"?>
<!DOCTYPE svg PUBLIC "-//W3C//DTD SVG 20010904//EN"
 "http://www.w3.org/TR/2001/REC-SVG-20010904/DTD/svg10.dtd">
<svg version="1.0" xmlns="http://www.w3.org/2000/svg"
 width="96.000000pt" height="68.000000pt" viewBox="0 0 96.000000 68.000000"
 preserveAspectRatio="xMidYMid meet">
<metadata>
Created by potrace 1.16, written by Peter Selinger 2001-2019
</metadata>
<g transform="translate(0.000000,68.000000) scale(0.100000,-0.100000)"
fill="#000000" stroke="none">
<path d="M442 596 c-34 -19 -89 -39 -122 -46 -86 -18 -77 -34 15 -25 l75 7 14
-34 c8 -18 16 -61 18 -95 3 -51 1 -63 -11 -63 -53 0 -299 -24 -311 -31 -30
-15 57 -20 171 -10 63 6 125 11 138 11 l24 0 -7 -97 c-9 -117 -17 -131 -71
-113 -20 7 -38 10 -40 8 -8 -7 95 -83 113 -83 30 0 52 86 49 196 l-2 96 89 7
c49 3 119 6 155 6 86 0 109 13 59 34 -32 14 -49 14 -154 1 -65 -8 -126 -15
-135 -15 -14 0 -18 15 -24 85 -5 63 -11 87 -23 94 -16 9 12 20 96 37 36 7 41
23 14 47 -27 24 -59 20 -130 -17z"/>
<path d="M595 459 c-25 -34 -45 -62 -43 -64 6 -6 142 70 146 82 2 6 -10 19
-27 27 l-30 16 -46 -61z"/>
<path d="M260 453 c1 -4 16 -25 35 -47 35 -39 70 -44 63 -10 -5 28 -99 82 -98
57z"/>
</g>
</svg>
