<?xml version="1.0" standalone="no"?>
<!DOCTYPE svg PUBLIC "-//W3C//DTD SVG 20010904//EN"
 "http://www.w3.org/TR/2001/REC-SVG-20010904/DTD/svg10.dtd">
<svg version="1.0" xmlns="http://www.w3.org/2000/svg"
 width="90.000000pt" height="92.000000pt" viewBox="0 0 90.000000 92.000000"
 preserveAspectRatio="xMidYMid meet">
<metadata>
Created by potrace 1.16, written by Peter Selinger 2001-2019
</metadata>
<g transform="translate(0.000000,92.000000) scale(0.100000,-0.100000)"
fill="#000000" stroke="none">
<path d="M577 841 c-3 -33 -8 -64 -12 -70 -3 -6 -26 -11 -50 -11 -24 0 -46 -4
-49 -9 -8 -12 50 -35 69 -27 19 7 19 -1 0 -54 -28 -81 -11 -78 36 6 l31 54 67
0 c40 0 75 5 85 13 17 13 16 14 -12 26 -17 7 -52 11 -77 9 -50 -4 -50 -3 -30
32 22 38 18 58 -15 75 -16 8 -31 15 -33 15 -2 0 -7 -27 -10 -59z"/>
<path d="M230 844 c0 -4 8 -28 17 -55 10 -26 14 -51 11 -55 -4 -3 -37 -7 -73
-7 -36 0 -65 -4 -65 -7 0 -3 13 -19 29 -34 30 -29 30 -29 71 -12 55 22 55 22
69 -24 16 -55 29 -50 33 12 3 51 3 52 46 66 24 8 41 19 39 26 -3 6 -8 10 -13
9 -5 -1 -26 -4 -46 -8 l-38 -7 0 41 c0 30 -5 43 -19 51 -21 11 -61 14 -61 4z"/>
<path d="M340 635 c0 -49 -78 -187 -138 -243 -13 -13 -22 -25 -20 -28 9 -9
103 63 134 102 17 21 35 40 40 40 5 1 44 9 88 18 43 9 91 16 108 16 26 0 29
-3 22 -22 -4 -13 -13 -32 -20 -43 -23 -32 -16 -38 19 -17 17 11 51 30 75 42
23 12 42 28 42 35 0 7 -21 23 -47 35 -48 22 -48 22 -123 5 -41 -10 -92 -21
-112 -25 l-37 -7 14 28 c19 36 19 34 -7 59 -26 24 -38 26 -38 5z"/>
<path d="M379 463 c-1 -4 0 -35 1 -68 4 -120 -64 -231 -183 -301 l-62 -35 40
6 c92 15 194 99 232 190 10 25 21 44 24 42 4 -1 43 -47 87 -102 112 -141 111
-140 191 -138 64 1 130 18 118 30 -3 3 -41 20 -84 37 -95 39 -168 86 -247 158
-64 58 -63 53 -32 129 5 11 -1 21 -16 31 -31 20 -68 31 -69 21z"/>
</g>
</svg>
