<?xml version="1.0" standalone="no"?>
<!DOCTYPE svg PUBLIC "-//W3C//DTD SVG 20010904//EN"
 "http://www.w3.org/TR/2001/REC-SVG-20010904/DTD/svg10.dtd">
<svg version="1.0" xmlns="http://www.w3.org/2000/svg"
 width="90.000000pt" height="92.000000pt" viewBox="0 0 90.000000 92.000000"
 preserveAspectRatio="xMidYMid meet">
<metadata>
Created by potrace 1.16, written by Peter Selinger 2001-2019
</metadata>
<g transform="translate(0.000000,92.000000) scale(0.100000,-0.100000)"
fill="#000000" stroke="none">
<path d="M230 800 c-30 -10 -73 -22 -94 -25 -35 -6 -37 -8 -23 -22 13 -14 23
-13 91 3 42 10 79 15 82 11 6 -6 -11 -116 -20 -124 -9 -9 -113 -33 -143 -33
l-32 0 6 -49 c4 -39 1 -59 -17 -96 -20 -41 -21 -48 -8 -61 13 -13 19 -13 49 5
44 25 115 44 139 36 25 -8 26 -58 5 -153 -27 -116 -61 -151 -117 -121 -11 6
-22 9 -24 6 -8 -8 59 -107 72 -107 8 0 32 18 53 39 34 34 42 51 56 118 16 77
37 158 50 199 5 17 -1 26 -30 44 -37 23 -38 23 -109 6 -39 -9 -74 -16 -78 -16
-4 0 2 21 13 46 13 33 16 50 9 59 -8 9 11 15 81 25 59 8 88 15 81 22 -12 12 9
86 37 134 15 26 17 36 8 48 -18 24 -75 26 -137 6z"/>
<path d="M555 708 c-15 -88 -132 -357 -169 -387 -22 -18 -20 -35 7 -66 l22
-26 150 49 149 49 29 -44 c39 -58 62 -55 61 9 0 34 -7 55 -28 82 -28 37 -129
102 -134 87 -2 -5 11 -30 29 -56 17 -25 28 -50 23 -54 -18 -16 -224 -50 -224
-37 0 3 34 85 75 183 41 98 75 186 75 196 0 18 -33 57 -49 57 -5 0 -12 -19
-16 -42z"/>
</g>
</svg>
