<?xml version="1.0" standalone="no"?>
<!DOCTYPE svg PUBLIC "-//W3C//DTD SVG 20010904//EN"
 "http://www.w3.org/TR/2001/REC-SVG-20010904/DTD/svg10.dtd">
<svg version="1.0" xmlns="http://www.w3.org/2000/svg"
 width="90.000000pt" height="92.000000pt" viewBox="0 0 90.000000 92.000000"
 preserveAspectRatio="xMidYMid meet">
<metadata>
Created by potrace 1.16, written by Peter Selinger 2001-2019
</metadata>
<g transform="translate(0.000000,92.000000) scale(0.100000,-0.100000)"
fill="#000000" stroke="none">
<path d="M330 807 c0 -7 14 -29 30 -49 l30 -37 -55 -6 c-59 -8 -81 -23 -46
-32 12 -3 21 -12 21 -20 0 -8 8 -31 19 -52 l18 -39 -50 -6 c-35 -5 -47 -10
-39 -18 13 -13 38 -13 157 2 131 16 135 18 111 36 -11 8 -30 14 -43 14 -27 0
-29 8 -6 39 12 19 14 28 5 42 -9 15 -8 19 8 24 26 8 25 21 0 35 -14 7 -26 8
-39 0 -28 -15 -31 -13 -31 19 0 24 -6 31 -40 45 -49 19 -50 19 -50 3z m110
-154 c0 -47 -8 -60 -43 -68 -26 -7 -27 -5 -27 28 0 20 -7 40 -17 48 -15 13
-13 15 13 20 67 15 74 12 74 -28z"/>
<path d="M546 793 c13 -32 20 -117 11 -151 -12 -49 4 -65 48 -46 68 28 82 20
69 -44 -6 -27 -12 -32 -55 -41 -26 -6 -55 -8 -64 -5 -13 5 -15 -14 -14 -157 1
-90 4 -175 8 -188 11 -40 52 -63 124 -68 76 -6 153 10 183 38 20 19 21 23 9
57 -8 20 -17 51 -21 67 -7 29 -7 29 -16 -15 -14 -70 -43 -90 -131 -90 -50 0
-80 5 -95 16 -40 27 -27 41 46 48 85 8 114 16 109 30 -4 13 -72 13 -134 2 -43
-9 -43 -8 -43 21 0 30 0 30 69 37 38 3 76 9 85 12 49 19 -23 41 -81 25 -60
-17 -73 -14 -73 14 0 21 5 25 30 25 43 0 130 20 130 31 0 16 -50 21 -95 10
-64 -16 -68 -15 -60 16 8 34 21 43 60 43 53 0 76 11 70 31 -3 10 4 41 16 69
28 65 19 73 -68 64 l-63 -6 0 30 c0 29 1 29 68 36 78 8 106 20 82 36 -15 11
-52 9 -117 -5 -33 -7 -33 -7 -27 25 8 36 -5 50 -45 50 -18 0 -22 -4 -15 -17z"/>
<path d="M165 749 c-22 -11 -51 -17 -65 -15 l-25 5 4 -177 c2 -101 -2 -232 -9
-304 -10 -97 -10 -134 -2 -153 14 -29 27 -32 37 -7 6 15 24 421 25 558 0 51 1
52 33 57 17 2 34 3 36 0 3 -2 -1 -24 -7 -49 -12 -43 -11 -50 14 -100 31 -63
27 -81 -17 -86 l-33 -3 42 -29 c41 -28 43 -29 63 -10 26 24 20 60 -21 124 -17
26 -30 53 -30 61 0 8 18 37 41 64 l41 49 -22 18 c-28 22 -54 22 -105 -3z"/>
<path d="M385 495 c-22 -7 -51 -11 -65 -8 l-25 4 -1 -128 c0 -110 -4 -138 -25
-201 l-26 -72 23 21 c13 12 31 44 39 70 14 41 19 47 34 40 13 -8 28 -1 63 30
l46 39 -5 -63 c-7 -88 -8 -90 -45 -81 l-33 7 35 -41 c41 -47 50 -50 70 -19 11
17 14 55 12 179 -2 107 1 164 9 179 10 20 8 25 -11 41 -25 21 -39 21 -95 3z
m56 -77 c0 -29 2 -66 3 -81 1 -24 -4 -32 -34 -47 -19 -9 -46 -21 -58 -25 -23
-7 -24 -6 -17 52 4 32 9 60 10 61 2 2 17 -7 34 -19 25 -18 34 -20 43 -11 19
19 -3 45 -45 56 -65 17 -40 64 36 65 26 1 27 -1 28 -51z"/>
</g>
</svg>
