<?xml version="1.0" standalone="no"?>
<!DOCTYPE svg PUBLIC "-//W3C//DTD SVG 20010904//EN"
 "http://www.w3.org/TR/2001/REC-SVG-20010904/DTD/svg10.dtd">
<svg version="1.0" xmlns="http://www.w3.org/2000/svg"
 width="96.000000pt" height="68.000000pt" viewBox="0 0 96.000000 68.000000"
 preserveAspectRatio="xMidYMid meet">
<metadata>
Created by potrace 1.16, written by Peter Selinger 2001-2019
</metadata>
<g transform="translate(0.000000,68.000000) scale(0.100000,-0.100000)"
fill="#000000" stroke="none">
<path d="M410 339 c-13 -6 -35 -7 -47 -4 -22 5 -23 3 -23 -56 0 -34 -5 -90
-12 -124 -11 -65 -5 -113 12 -85 5 8 12 36 15 62 6 44 9 48 35 48 16 0 35 3
44 6 13 5 16 -2 16 -45 0 -52 -4 -56 -50 -52 -8 1 -2 -10 15 -24 58 -48 62
-40 68 142 5 146 -3 160 -73 132z m40 -45 c0 -13 -4 -24 -9 -24 -5 0 -23 -3
-40 -6 -29 -6 -31 -5 -31 24 0 27 4 31 33 34 42 5 47 2 47 -28z m-2 -89 c-2
-2 -20 -6 -41 -10 -38 -7 -39 -7 -35 21 3 25 8 30 38 34 31 4 35 2 38 -18 2
-13 2 -25 0 -27z"/>
</g>
</svg>
