<?xml version="1.0" standalone="no"?>
<!DOCTYPE svg PUBLIC "-//W3C//DTD SVG 20010904//EN"
 "http://www.w3.org/TR/2001/REC-SVG-20010904/DTD/svg10.dtd">
<svg version="1.0" xmlns="http://www.w3.org/2000/svg"
 width="96.000000pt" height="68.000000pt" viewBox="0 0 96.000000 68.000000"
 preserveAspectRatio="xMidYMid meet">
<metadata>
Created by potrace 1.16, written by Peter Selinger 2001-2019
</metadata>
<g transform="translate(0.000000,68.000000) scale(0.100000,-0.100000)"
fill="#000000" stroke="none">
<path d="M306 417 c-7 -18 -32 -48 -55 -66 -23 -19 -40 -35 -37 -38 5 -5 64
23 86 42 8 7 32 15 53 19 44 8 49 -5 15 -41 -12 -13 -16 -23 -10 -23 17 0 107
71 107 84 0 13 -44 14 -95 2 l-35 -9 25 22 c21 17 23 22 10 31 -28 18 -49 11
-64 -23z"/>
</g>
</svg>
