<?xml version="1.0" standalone="no"?>
<!DOCTYPE svg PUBLIC "-//W3C//DTD SVG 20010904//EN"
 "http://www.w3.org/TR/2001/REC-SVG-20010904/DTD/svg10.dtd">
<svg version="1.0" xmlns="http://www.w3.org/2000/svg"
 width="96.000000pt" height="68.000000pt" viewBox="0 0 96.000000 68.000000"
 preserveAspectRatio="xMidYMid meet">
<metadata>
Created by potrace 1.16, written by Peter Selinger 2001-2019
</metadata>
<g transform="translate(0.000000,68.000000) scale(0.100000,-0.100000)"
fill="#000000" stroke="none">
<path d="M605 600 c-11 -4 -49 -11 -85 -15 l-65 -7 47 -48 c27 -26 48 -54 48
-62 0 -9 -25 -27 -57 -42 -48 -22 -52 -26 -23 -20 19 3 50 12 68 20 32 13 36
12 69 -13 38 -29 135 -44 168 -25 15 8 9 12 -36 27 -30 10 -71 26 -91 36 l-38
19 36 56 c20 30 33 62 30 70 -6 15 -40 17 -71 4z m15 -30 c0 -17 -29 -70 -38
-70 -5 0 -21 13 -36 29 l-28 29 29 10 c37 14 73 15 73 2z"/>
</g>
</svg>
