<?xml version="1.0" standalone="no"?>
<!DOCTYPE svg PUBLIC "-//W3C//DTD SVG 20010904//EN"
 "http://www.w3.org/TR/2001/REC-SVG-20010904/DTD/svg10.dtd">
<svg version="1.0" xmlns="http://www.w3.org/2000/svg"
 width="96.000000pt" height="68.000000pt" viewBox="0 0 96.000000 68.000000"
 preserveAspectRatio="xMidYMid meet">
<metadata>
Created by potrace 1.16, written by Peter Selinger 2001-2019
</metadata>
<g transform="translate(0.000000,68.000000) scale(0.100000,-0.100000)"
fill="#000000" stroke="none">
<path d="M514 575 c4 -14 9 -45 12 -68 l6 -44 -47 -6 c-26 -4 -61 -7 -76 -7
-16 0 -29 -4 -29 -10 0 -6 30 -10 71 -10 l72 0 -6 -77 c-8 -122 -42 -179 -152
-260 -35 -26 -20 -30 33 -7 43 18 117 92 135 137 l13 30 46 -65 c26 -36 63
-79 83 -96 33 -29 41 -32 105 -32 39 0 70 3 70 8 0 4 -33 20 -74 36 -73 27
-142 77 -197 141 -27 30 -27 31 -16 112 l11 81 59 7 c32 3 68 10 80 15 21 8
21 8 -7 19 -20 8 -39 8 -65 1 -60 -16 -61 -15 -61 49 0 62 -7 71 -52 71 -17 0
-19 -4 -14 -25z"/>
<path d="M306 578 c-3 -7 -10 -30 -16 -50 -15 -50 -61 -111 -139 -185 -35 -35
-62 -65 -59 -69 7 -7 109 58 128 81 7 8 16 15 21 15 12 0 11 -78 -2 -170 -14
-93 -13 -121 5 -138 11 -11 16 -11 30 3 13 13 16 41 18 153 2 169 2 164 -6
183 -4 10 11 38 43 81 41 54 48 68 38 81 -17 22 -56 31 -61 15z"/>
<path d="M651 368 c-6 -18 -23 -45 -38 -60 -29 -31 -21 -37 16 -12 21 15 25
15 52 -5 30 -22 64 -28 74 -12 7 12 -34 41 -57 41 -24 0 -23 9 4 37 19 20 20
25 8 33 -28 18 -48 10 -59 -22z"/>
<path d="M410 364 c-6 -14 -10 -29 -10 -34 0 -4 -14 -20 -31 -35 -40 -33 -31
-45 11 -15 29 20 32 21 49 6 22 -20 61 -21 61 -2 0 8 -13 17 -30 21 -35 8 -37
15 -11 39 23 21 17 46 -10 46 -12 0 -23 -10 -29 -26z"/>
</g>
</svg>
