<?xml version="1.0" standalone="no"?>
<!DOCTYPE svg PUBLIC "-//W3C//DTD SVG 20010904//EN"
 "http://www.w3.org/TR/2001/REC-SVG-20010904/DTD/svg10.dtd">
<svg version="1.0" xmlns="http://www.w3.org/2000/svg"
 width="96.000000pt" height="68.000000pt" viewBox="0 0 96.000000 68.000000"
 preserveAspectRatio="xMidYMid meet">
<metadata>
Created by potrace 1.16, written by Peter Selinger 2001-2019
</metadata>
<g transform="translate(0.000000,68.000000) scale(0.100000,-0.100000)"
fill="#000000" stroke="none">
<path d="M695 274 c-33 -7 -80 -13 -104 -14 -25 0 -52 -7 -61 -15 -16 -14 -16
-20 1 -86 19 -78 26 -90 38 -70 6 9 43 15 120 19 81 3 111 8 107 17 -2 7 7 38
20 71 13 32 24 62 24 65 0 9 -49 29 -68 28 -9 -1 -44 -7 -77 -15z m57 -69 c-1
-27 -6 -52 -10 -56 -4 -4 -44 -11 -88 -14 l-82 -7 -10 48 c-6 27 -9 51 -6 53
7 7 147 29 174 27 23 -1 25 -4 22 -51z"/>
</g>
</svg>
