<?xml version="1.0" standalone="no"?>
<!DOCTYPE svg PUBLIC "-//W3C//DTD SVG 20010904//EN"
 "http://www.w3.org/TR/2001/REC-SVG-20010904/DTD/svg10.dtd">
<svg version="1.0" xmlns="http://www.w3.org/2000/svg"
 width="96.000000pt" height="68.000000pt" viewBox="0 0 96.000000 68.000000"
 preserveAspectRatio="xMidYMid meet">
<metadata>
Created by potrace 1.16, written by Peter Selinger 2001-2019
</metadata>
<g transform="translate(0.000000,68.000000) scale(0.100000,-0.100000)"
fill="#000000" stroke="none">
<path d="M437 613 c-2 -5 -4 -21 -5 -38 -1 -16 -7 -45 -13 -62 -10 -31 -13
-33 -60 -33 -31 0 -48 -4 -44 -10 3 -5 22 -10 41 -10 19 0 34 -3 34 -6 0 -14
-60 -81 -105 -117 -45 -36 -47 -39 -20 -33 48 12 108 59 145 114 50 74 56 72
215 -48 59 -44 71 -50 113 -49 26 1 58 4 72 8 23 7 21 9 -20 20 -87 23 -126
39 -193 78 -70 41 -75 53 -23 53 41 0 76 10 76 21 0 12 -77 11 -123 -2 -62
-17 -71 -8 -45 46 22 44 22 45 2 60 -21 16 -41 19 -47 8z"/>
</g>
</svg>
