<?xml version="1.0" standalone="no"?>
<!DOCTYPE svg PUBLIC "-//W3C//DTD SVG 20010904//EN"
 "http://www.w3.org/TR/2001/REC-SVG-20010904/DTD/svg10.dtd">
<svg version="1.0" xmlns="http://www.w3.org/2000/svg"
 width="96.000000pt" height="68.000000pt" viewBox="0 0 96.000000 68.000000"
 preserveAspectRatio="xMidYMid meet">
<metadata>
Created by potrace 1.16, written by Peter Selinger 2001-2019
</metadata>
<g transform="translate(0.000000,68.000000) scale(0.100000,-0.100000)"
fill="#000000" stroke="none">
<path d="M434 138 c3 -13 6 -29 6 -36 0 -7 15 -21 33 -32 26 -16 50 -20 122
-20 100 0 165 8 165 21 0 18 -37 28 -76 19 -61 -14 -182 -14 -199 0 -8 7 -15
25 -15 41 0 23 -5 29 -21 29 -17 0 -20 -4 -15 -22z"/>
</g>
</svg>
