<?xml version="1.0" standalone="no"?>
<!DOCTYPE svg PUBLIC "-//W3C//DTD SVG 20010904//EN"
 "http://www.w3.org/TR/2001/REC-SVG-20010904/DTD/svg10.dtd">
<svg version="1.0" xmlns="http://www.w3.org/2000/svg"
 width="96.000000pt" height="68.000000pt" viewBox="0 0 96.000000 68.000000"
 preserveAspectRatio="xMidYMid meet">
<metadata>
Created by potrace 1.16, written by Peter Selinger 2001-2019
</metadata>
<g transform="translate(0.000000,68.000000) scale(0.100000,-0.100000)"
fill="#000000" stroke="none">
<path d="M299 363 c0 -4 0 -26 1 -49 2 -52 -13 -64 -100 -77 -38 -6 -70 -15
-70 -19 0 -10 43 -9 100 2 25 4 47 7 49 4 10 -10 -28 -73 -68 -111 -52 -50
-44 -55 20 -14 32 20 54 45 74 84 25 48 35 58 63 62 111 17 107 16 88 27 -10
6 -41 8 -67 5 -51 -6 -55 -3 -40 36 5 13 6 28 3 34 -9 14 -52 27 -53 16z"/>
</g>
</svg>
