<?xml version="1.0" standalone="no"?>
<!DOCTYPE svg PUBLIC "-//W3C//DTD SVG 20010904//EN"
 "http://www.w3.org/TR/2001/REC-SVG-20010904/DTD/svg10.dtd">
<svg version="1.0" xmlns="http://www.w3.org/2000/svg"
 width="96.000000pt" height="68.000000pt" viewBox="0 0 96.000000 68.000000"
 preserveAspectRatio="xMidYMid meet">
<metadata>
Created by potrace 1.16, written by Peter Selinger 2001-2019
</metadata>
<g transform="translate(0.000000,68.000000) scale(0.100000,-0.100000)"
fill="#000000" stroke="none">
<path d="M434 598 c3 -18 13 -57 21 -87 8 -30 13 -56 11 -58 -1 -2 -58 -10
-126 -18 -68 -9 -126 -18 -129 -21 -3 -3 1 -10 9 -15 14 -9 101 -6 210 7 l45
6 23 -76 c13 -41 32 -91 42 -111 l18 -36 -55 -42 c-30 -23 -67 -52 -82 -65
l-26 -23 25 6 c33 9 121 53 143 73 16 15 20 13 54 -22 20 -20 55 -48 77 -61
45 -26 111 -42 119 -28 3 4 2 44 -2 88 l-7 80 -22 -47 c-14 -33 -27 -48 -40
-48 -19 0 -112 75 -112 90 0 6 46 77 94 145 15 21 -12 45 -50 45 -32 0 -34 -2
-34 -36 0 -20 -10 -52 -22 -72 l-21 -35 -28 55 c-15 30 -30 70 -34 90 -7 36
-7 37 32 43 66 10 96 20 100 32 7 19 -36 25 -89 13 -62 -15 -68 -9 -68 77 0
60 -1 63 -27 69 -16 3 -34 8 -42 10 -10 3 -12 -3 -7 -28z"/>
<path d="M633 541 c49 -46 80 -51 85 -14 4 27 -20 41 -84 50 l-47 6 46 -42z"/>
<path d="M305 358 c-2 -7 -6 -33 -7 -58 l-3 -45 -77 -15 c-43 -8 -78 -19 -78
-24 0 -8 63 -3 116 10 25 6 26 5 20 -21 -8 -33 -52 -92 -78 -106 -10 -5 -18
-14 -18 -20 0 -6 17 -1 38 11 37 21 102 103 102 128 0 15 30 27 93 36 67 10
50 30 -19 23 l-54 -6 6 39 c5 32 3 40 -15 49 -17 9 -22 9 -26 -1z"/>
</g>
</svg>
