<?xml version="1.0" standalone="no"?>
<!DOCTYPE svg PUBLIC "-//W3C//DTD SVG 20010904//EN"
 "http://www.w3.org/TR/2001/REC-SVG-20010904/DTD/svg10.dtd">
<svg version="1.0" xmlns="http://www.w3.org/2000/svg"
 width="96.000000pt" height="68.000000pt" viewBox="0 0 96.000000 68.000000"
 preserveAspectRatio="xMidYMid meet">
<metadata>
Created by potrace 1.16, written by Peter Selinger 2001-2019
</metadata>
<g transform="translate(0.000000,68.000000) scale(0.100000,-0.100000)"
fill="#000000" stroke="none">
<path d="M218 595 c-4 -4 -3 -18 3 -32 5 -13 9 -50 9 -82 0 -57 -1 -59 -31
-65 -17 -3 -42 -6 -55 -6 -15 0 -24 -6 -24 -15 0 -12 13 -15 55 -15 l55 0 0
-39 c0 -38 0 -39 -75 -72 -41 -19 -75 -37 -75 -41 0 -4 12 -15 26 -24 24 -17
27 -16 71 15 25 18 47 30 50 27 3 -3 2 -30 -1 -60 -7 -51 -9 -55 -37 -58 l-29
-3 36 -39 c34 -37 36 -38 54 -21 17 16 20 32 20 121 l0 103 30 18 c41 24 41
49 0 28 l-30 -16 0 30 c0 31 13 47 44 52 32 6 30 29 -3 35 -27 6 -31 11 -31
37 0 17 5 46 12 64 8 22 9 36 2 43 -13 13 -67 23 -76 15z"/>
<path d="M616 558 c-2 -7 -9 -38 -15 -68 -6 -30 -22 -79 -36 -107 -27 -60 -24
-66 14 -25 25 28 106 60 119 47 3 -3 1 -19 -5 -35 -6 -17 -8 -30 -4 -30 16 0
82 53 78 63 -8 25 -51 36 -95 25 -24 -6 -45 -8 -48 -6 -3 3 7 31 22 62 14 31
24 63 20 71 -7 18 -45 20 -50 3z"/>
<path d="M435 504 c-27 -19 -55 -32 -63 -29 -24 9 -31 -4 -20 -35 13 -39 -6
-189 -33 -249 -22 -51 -18 -64 10 -30 32 38 50 82 58 140 7 45 11 53 31 54 22
2 22 0 22 -117 0 -111 1 -118 20 -118 11 0 20 3 20 8 0 4 1 58 2 120 1 109 2
113 25 118 13 4 23 11 23 16 0 11 -79 6 -112 -7 -16 -6 -18 -1 -18 38 0 45 1
47 46 67 26 11 53 20 60 20 20 0 17 18 -4 29 -15 8 -29 2 -67 -25z"/>
<path d="M604 297 c-1 -24 -6 -59 -13 -79 -12 -37 -76 -108 -97 -108 -6 0 -14
-7 -17 -15 -5 -11 -1 -12 20 -4 44 17 80 47 110 94 15 25 30 45 33 45 3 0 23
-28 45 -61 43 -65 76 -89 124 -89 50 0 45 18 -15 47 -32 15 -75 48 -101 77
-38 42 -44 55 -39 79 7 33 -7 57 -33 57 -13 0 -17 -10 -17 -43z"/>
</g>
</svg>
