<?xml version="1.0" standalone="no"?>
<!DOCTYPE svg PUBLIC "-//W3C//DTD SVG 20010904//EN"
 "http://www.w3.org/TR/2001/REC-SVG-20010904/DTD/svg10.dtd">
<svg version="1.0" xmlns="http://www.w3.org/2000/svg"
 width="96.000000pt" height="68.000000pt" viewBox="0 0 96.000000 68.000000"
 preserveAspectRatio="xMidYMid meet">
<metadata>
Created by potrace 1.16, written by Peter Selinger 2001-2019
</metadata>
<g transform="translate(0.000000,68.000000) scale(0.100000,-0.100000)"
fill="#000000" stroke="none">
<path d="M214 573 c20 -82 15 -320 -10 -478 -3 -20 2 -38 15 -55 20 -25 20
-25 35 -5 12 16 16 53 17 170 0 83 4 161 8 173 l6 24 19 -21 c24 -27 46 -27
46 -1 0 13 -13 29 -36 42 l-36 21 6 67 c7 65 6 67 -19 78 -44 20 -58 16 -51
-15z"/>
<path d="M580 570 c-25 -5 -66 -11 -93 -15 -26 -3 -45 -11 -41 -16 3 -5 26 -7
55 -3 l49 7 0 -31 c0 -29 -2 -30 -55 -37 -30 -3 -63 -4 -74 0 -21 6 -49 -29
-54 -66 -4 -36 21 -33 39 4 14 30 23 35 62 41 86 12 82 15 82 -69 0 -57 3 -75
14 -75 20 0 26 23 26 95 0 72 -2 70 99 74 l64 3 -17 -26 c-14 -22 -14 -26 -2
-26 25 0 86 33 86 46 0 24 -62 35 -136 24 -94 -13 -94 -13 -94 15 0 27 4 30
63 40 20 3 37 10 37 15 0 12 -46 11 -110 0z"/>
<path d="M146 418 c-26 -40 -46 -96 -40 -112 9 -23 41 -20 54 4 16 31 24 116
12 124 -6 4 -18 -4 -26 -16z"/>
<path d="M642 419 c-7 -12 -12 -23 -9 -25 9 -9 63 22 60 34 -7 19 -37 14 -51
-9z"/>
<path d="M450 412 c0 -11 49 -26 58 -17 8 7 0 12 -31 20 -16 4 -27 3 -27 -3z"/>
<path d="M640 361 c0 -17 51 -34 63 -22 14 14 7 19 -31 27 -21 4 -32 3 -32 -5z"/>
<path d="M465 353 c-11 -3 -26 -10 -33 -16 -11 -9 -10 -12 2 -19 17 -10 45 2
66 26 14 17 7 19 -35 9z"/>
<path d="M503 278 c-94 -11 -111 -28 -28 -28 30 0 55 -2 55 -5 0 -2 -5 -16
-12 -31 -12 -26 -14 -26 -90 -22 -75 4 -77 4 -66 -15 6 -12 13 -42 17 -69 8
-66 25 -61 29 7 l3 56 37 -3 c35 -3 37 -5 40 -43 4 -56 10 -71 24 -57 6 6 10
33 10 60 -2 49 -1 50 31 55 17 2 33 4 34 3 2 -2 9 -74 12 -118 1 -25 21 -23
21 2 0 10 5 41 11 69 10 49 11 49 53 53 70 5 76 2 76 -46 0 -59 -18 -81 -59
-73 -39 8 -38 -7 2 -37 23 -17 30 -18 52 -6 16 9 28 27 34 49 4 20 12 54 18
77 7 31 6 43 -4 53 -17 16 -26 16 -151 1 -57 -7 -106 -10 -108 -7 -3 3 6 16
20 30 18 18 41 27 81 32 30 4 55 11 55 16 0 11 -87 9 -197 -3z"/>
</g>
</svg>
