<?xml version="1.0" standalone="no"?>
<!DOCTYPE svg PUBLIC "-//W3C//DTD SVG 20010904//EN"
 "http://www.w3.org/TR/2001/REC-SVG-20010904/DTD/svg10.dtd">
<svg version="1.0" xmlns="http://www.w3.org/2000/svg"
 width="96.000000pt" height="68.000000pt" viewBox="0 0 96.000000 68.000000"
 preserveAspectRatio="xMidYMid meet">
<metadata>
Created by potrace 1.16, written by Peter Selinger 2001-2019
</metadata>
<g transform="translate(0.000000,68.000000) scale(0.100000,-0.100000)"
fill="#000000" stroke="none">
<path d="M252 301 c7 -11 23 -25 36 -32 19 -11 25 -11 33 1 12 19 -24 50 -57
50 -21 0 -23 -2 -12 -19z"/>
<path d="M180 242 c1 -24 63 -68 80 -57 17 11 11 31 -12 42 -30 15 -68 23 -68
15z"/>
<path d="M236 109 c-53 -49 -64 -64 -55 -75 18 -22 43 -16 60 14 8 15 28 48
43 75 15 26 26 47 23 47 -2 0 -34 -28 -71 -61z"/>
</g>
</svg>
