<?xml version="1.0" standalone="no"?>
<!DOCTYPE svg PUBLIC "-//W3C//DTD SVG 20010904//EN"
 "http://www.w3.org/TR/2001/REC-SVG-20010904/DTD/svg10.dtd">
<svg version="1.0" xmlns="http://www.w3.org/2000/svg"
 width="90.000000pt" height="92.000000pt" viewBox="0 0 90.000000 92.000000"
 preserveAspectRatio="xMidYMid meet">
<metadata>
Created by potrace 1.16, written by Peter Selinger 2001-2019
</metadata>
<g transform="translate(0.000000,92.000000) scale(0.100000,-0.100000)"
fill="#000000" stroke="none">
<path d="M254 783 c-4 -16 -18 -47 -31 -70 l-25 -42 -51 34 c-28 19 -53 32
-56 30 -3 -3 15 -26 39 -50 l44 -45 -59 -55 c-32 -30 -62 -55 -67 -55 -4 0 -8
-5 -8 -10 0 -13 88 31 128 65 32 27 38 24 52 -23 13 -47 -55 -149 -161 -245
-67 -61 -68 -65 -12 -42 52 22 98 59 143 117 l40 50 -1 -89 c0 -48 -6 -104
-12 -123 -12 -34 -14 -35 -64 -35 l-51 1 47 -52 c41 -47 48 -51 66 -39 11 7
29 28 40 46 18 31 20 52 20 209 0 163 -2 179 -24 228 l-24 53 44 52 c24 28 47
54 51 55 14 6 9 21 -14 42 -30 27 -46 25 -54 -7z"/>
<path d="M590 779 c-36 -11 -98 -22 -137 -26 -40 -3 -73 -7 -73 -8 0 -2 6 -18
14 -36 8 -19 17 -66 21 -105 4 -40 10 -76 14 -81 4 -6 42 -5 104 4 91 13 100
13 111 -2 18 -25 29 -6 61 100 40 134 40 131 13 148 -38 24 -60 25 -128 6z
m72 -41 c2 -6 2 -23 0 -39 -4 -25 -7 -26 -40 -22 -21 2 -66 -2 -102 -11 -35
-8 -65 -14 -66 -13 -1 1 -4 18 -6 37 l-3 34 70 12 c95 15 143 16 147 2z m-6
-100 c-3 -7 -7 -26 -10 -41 -4 -15 -10 -26 -14 -23 -5 3 -44 -1 -88 -9 -43 -7
-80 -13 -81 -12 0 1 -4 19 -8 40 -6 29 -4 36 6 32 8 -3 48 1 89 9 98 18 110
18 106 4z"/>
<path d="M690 460 c-59 -14 -300 -38 -322 -32 -18 4 -20 2 -14 -19 18 -58 25
-100 31 -180 9 -107 12 -114 51 -95 16 8 65 17 109 21 44 3 90 9 102 12 17 4
24 -2 34 -31 29 -80 63 -30 88 130 10 65 22 128 26 140 5 17 0 25 -30 43 -20
11 -37 21 -38 20 -1 -1 -18 -5 -37 -9z m30 -81 c0 -37 -2 -41 -21 -36 -12 3
-78 -3 -148 -13 -69 -10 -127 -18 -127 -17 -1 1 -4 19 -8 39 -6 36 -6 37 26
43 64 11 174 22 226 24 l52 1 0 -41z m-4 -100 c-3 -17 -6 -40 -6 -50 0 -15 -7
-19 -35 -19 -19 0 -80 -7 -135 -16 -56 -9 -103 -14 -106 -12 -2 3 -7 26 -10
51 l-7 47 44 1 c24 0 85 7 134 14 136 19 128 20 121 -16z"/>
</g>
</svg>
