<?xml version="1.0" standalone="no"?>
<!DOCTYPE svg PUBLIC "-//W3C//DTD SVG 20010904//EN"
 "http://www.w3.org/TR/2001/REC-SVG-20010904/DTD/svg10.dtd">
<svg version="1.0" xmlns="http://www.w3.org/2000/svg"
 width="96.000000pt" height="68.000000pt" viewBox="0 0 96.000000 68.000000"
 preserveAspectRatio="xMidYMid meet">
<metadata>
Created by potrace 1.16, written by Peter Selinger 2001-2019
</metadata>
<g transform="translate(0.000000,68.000000) scale(0.100000,-0.100000)"
fill="#000000" stroke="none">
<path d="M275 213 c-22 -8 -59 -13 -82 -11 -41 3 -54 -4 -34 -17 5 -3 17 -28
26 -55 16 -49 28 -60 40 -40 3 6 24 10 45 10 50 0 70 8 63 27 -3 8 4 27 16 43
26 37 27 36 -6 48 -20 6 -40 5 -68 -5z m25 -37 c0 -43 -10 -56 -45 -56 -27 0
-34 5 -39 26 -8 32 -1 41 39 47 17 2 33 5 38 6 4 0 7 -10 7 -23z"/>
</g>
</svg>
