<?xml version="1.0" standalone="no"?>
<!DOCTYPE svg PUBLIC "-//W3C//DTD SVG 20010904//EN"
 "http://www.w3.org/TR/2001/REC-SVG-20010904/DTD/svg10.dtd">
<svg version="1.0" xmlns="http://www.w3.org/2000/svg"
 width="96.000000pt" height="68.000000pt" viewBox="0 0 96.000000 68.000000"
 preserveAspectRatio="xMidYMid meet">
<metadata>
Created by potrace 1.16, written by Peter Selinger 2001-2019
</metadata>
<g transform="translate(0.000000,68.000000) scale(0.100000,-0.100000)"
fill="#000000" stroke="none">
<path d="M510 296 l0 -93 -37 -7 c-21 -3 -56 -6 -78 -6 -34 -1 -37 -2 -21 -12
11 -6 43 -8 76 -5 67 6 70 2 70 -90 0 -93 28 -60 35 40 2 29 4 55 4 60 1 4 45
7 99 7 89 1 95 2 77 16 -16 12 -36 14 -99 9 l-79 -7 5 85 c5 81 4 86 -16 91
-11 3 -24 6 -28 6 -5 0 -8 -42 -8 -94z"/>
</g>
</svg>
