<?xml version="1.0" standalone="no"?>
<!DOCTYPE svg PUBLIC "-//W3C//DTD SVG 20010904//EN"
 "http://www.w3.org/TR/2001/REC-SVG-20010904/DTD/svg10.dtd">
<svg version="1.0" xmlns="http://www.w3.org/2000/svg"
 width="96.000000pt" height="68.000000pt" viewBox="0 0 96.000000 68.000000"
 preserveAspectRatio="xMidYMid meet">
<metadata>
Created by potrace 1.16, written by Peter Selinger 2001-2019
</metadata>
<g transform="translate(0.000000,68.000000) scale(0.100000,-0.100000)"
fill="#000000" stroke="none">
<path d="M566 500 c8 -50 -2 -60 -64 -60 -26 0 -41 -4 -37 -10 3 -5 28 -10 56
-10 48 0 49 -1 49 -30 0 -28 -2 -29 -60 -36 -34 -4 -57 -11 -54 -16 6 -9 178
-4 253 8 50 8 19 24 -46 24 -52 0 -53 0 -53 30 0 28 3 30 38 31 20 1 48 4 62
8 38 11 7 23 -47 19 l-47 -3 0 40 c-1 36 -4 40 -29 43 -27 3 -27 3 -21 -38z"/>
</g>
</svg>
