<?xml version="1.0" standalone="no"?>
<!DOCTYPE svg PUBLIC "-//W3C//DTD SVG 20010904//EN"
 "http://www.w3.org/TR/2001/REC-SVG-20010904/DTD/svg10.dtd">
<svg version="1.0" xmlns="http://www.w3.org/2000/svg"
 width="96.000000pt" height="68.000000pt" viewBox="0 0 96.000000 68.000000"
 preserveAspectRatio="xMidYMid meet">
<metadata>
Created by potrace 1.16, written by Peter Selinger 2001-2019
</metadata>
<g transform="translate(0.000000,68.000000) scale(0.100000,-0.100000)"
fill="#000000" stroke="none">
<path d="M630 566 c0 -45 -9 -66 -27 -66 -12 0 -13 -3 -4 -14 9 -11 10 -20 1
-35 -16 -30 4 -26 29 5 17 21 33 28 76 33 66 7 74 27 10 24 -47 -3 -53 4 -33
36 14 23 -4 51 -33 51 -15 0 -19 -7 -19 -34z"/>
<path d="M234 503 c1 -62 -2 -78 -14 -80 -8 -1 -36 -5 -63 -8 -65 -9 -49 -25
24 -25 l60 0 -3 -47 -3 -47 -80 -32 c-44 -18 -80 -38 -80 -45 0 -23 52 -35 78
-19 12 7 37 22 55 33 l32 19 0 -49 c0 -26 -3 -58 -6 -71 -6 -20 -11 -22 -43
-16 l-36 7 30 -35 c47 -55 61 -62 85 -38 18 18 20 33 20 128 l0 107 40 25 c59
37 51 56 -10 25 l-30 -16 0 39 c0 38 1 40 41 46 48 8 48 29 0 34 -32 3 -33 5
-28 40 3 20 9 46 12 58 5 15 0 23 -20 32 -57 26 -63 20 -61 -65z"/>
<path d="M420 552 c0 -4 7 -18 16 -30 20 -29 17 -32 -43 -41 -46 -6 -47 -7
-25 -20 18 -9 31 -10 54 -2 33 12 48 7 48 -15 0 -8 5 -14 10 -14 6 0 10 11 10
25 0 17 7 29 23 35 21 8 21 9 -5 9 -24 1 -28 5 -28 31 0 27 -3 30 -30 30 -16
0 -30 -3 -30 -8z"/>
<path d="M510 410 c0 -24 -89 -113 -147 -147 -48 -28 -55 -37 -18 -23 53 20
104 50 156 93 46 38 58 43 75 34 10 -6 21 -13 24 -16 3 -3 21 -18 42 -33 20
-15 42 -34 50 -41 34 -34 82 -45 136 -31 35 10 26 20 -35 38 -32 10 -69 22
-83 27 -32 13 -128 77 -152 101 -24 24 -48 23 -48 -2z"/>
<path d="M520 276 c0 -30 -4 -34 -31 -40 -17 -3 -44 -6 -60 -6 -16 0 -29 -5
-29 -11 0 -7 17 -10 45 -7 25 2 45 -1 45 -5 0 -11 -50 -60 -105 -105 -22 -18
-34 -32 -27 -32 18 0 50 20 104 62 26 21 49 38 52 38 3 0 6 -33 6 -73 0 -78 4
-89 26 -80 10 4 14 26 14 84 0 43 4 79 8 79 4 0 30 -22 57 -50 43 -44 54 -50
90 -50 67 0 74 15 15 35 -29 10 -62 22 -74 29 -34 18 -96 68 -96 77 0 5 35 9
77 9 62 0 74 2 64 13 -7 7 -35 11 -72 10 -51 -2 -59 0 -59 15 0 21 -19 42 -37
42 -8 0 -13 -13 -13 -34z"/>
</g>
</svg>
