<?xml version="1.0" standalone="no"?>
<!DOCTYPE svg PUBLIC "-//W3C//DTD SVG 20010904//EN"
 "http://www.w3.org/TR/2001/REC-SVG-20010904/DTD/svg10.dtd">
<svg version="1.0" xmlns="http://www.w3.org/2000/svg"
 width="90.000000pt" height="92.000000pt" viewBox="0 0 90.000000 92.000000"
 preserveAspectRatio="xMidYMid meet">
<metadata>
Created by potrace 1.16, written by Peter Selinger 2001-2019
</metadata>
<g transform="translate(0.000000,92.000000) scale(0.100000,-0.100000)"
fill="#000000" stroke="none">
<path d="M168 752 c6 -103 -13 -219 -38 -232 -10 -6 -44 -10 -75 -10 -53 0
-55 -1 -45 -20 17 -32 56 -46 91 -33 34 13 34 13 14 -34 -22 -53 -19 -65 31
-102 l46 -33 -34 -35 c-18 -19 -54 -48 -80 -65 -27 -16 -48 -32 -48 -34 0 -8
54 8 90 26 19 10 46 30 59 44 14 14 30 26 36 26 7 0 25 -18 40 -40 32 -47 58
-49 63 -7 3 22 -5 36 -33 62 l-36 34 18 33 c9 18 27 69 38 113 20 74 24 80 53
87 38 10 42 28 6 28 -14 0 -23 4 -19 9 7 12 -34 41 -57 41 -14 0 -18 -8 -18
-34 0 -32 -2 -35 -41 -41 -22 -4 -42 -5 -44 -3 -2 2 10 50 26 108 16 58 31
115 35 127 5 18 -1 26 -28 43 -52 32 -55 28 -50 -58z m81 -338 c-12 -42 -28
-78 -35 -81 -7 -2 -26 3 -43 12 -34 17 -38 35 -20 95 11 34 17 40 63 53 28 7
52 10 54 6 2 -5 -7 -43 -19 -85z"/>
<path d="M718 755 c-9 -9 -218 -35 -281 -35 -56 0 -58 -1 -50 -22 13 -38 9
-346 -6 -421 -11 -54 -11 -73 -1 -97 14 -34 26 -38 34 -12 4 10 16 17 33 17
16 1 83 5 150 9 l121 8 17 -36 c10 -20 21 -36 25 -36 5 0 18 12 30 27 21 27
21 35 19 253 -2 124 0 244 5 267 7 41 7 42 -33 62 -42 22 -54 25 -63 16z m18
-56 c13 -21 26 -271 19 -363 l-7 -91 -56 -1 c-31 -1 -104 -6 -162 -12 -57 -6
-105 -10 -105 -9 0 1 4 104 9 229 l9 227 71 11 c39 6 78 13 86 14 38 9 129 5
136 -5z"/>
<path d="M548 591 l4 -68 -48 -8 c-46 -6 -47 -8 -29 -22 11 -8 32 -13 48 -10
24 3 27 0 27 -23 0 -45 -29 -113 -62 -147 -22 -23 -27 -33 -16 -33 26 0 67 39
92 87 l23 46 23 -34 c35 -51 72 -89 82 -83 4 3 8 18 8 33 0 30 -26 59 -78 85
-28 15 -33 22 -30 49 3 28 7 32 43 39 68 14 73 17 50 34 -12 9 -30 12 -52 8
l-33 -6 0 55 c0 41 -4 56 -16 61 -38 15 -41 8 -36 -63z"/>
</g>
</svg>
