<?xml version="1.0" standalone="no"?>
<!DOCTYPE svg PUBLIC "-//W3C//DTD SVG 20010904//EN"
 "http://www.w3.org/TR/2001/REC-SVG-20010904/DTD/svg10.dtd">
<svg version="1.0" xmlns="http://www.w3.org/2000/svg"
 width="96.000000pt" height="68.000000pt" viewBox="0 0 96.000000 68.000000"
 preserveAspectRatio="xMidYMid meet">
<metadata>
Created by potrace 1.16, written by Peter Selinger 2001-2019
</metadata>
<g transform="translate(0.000000,68.000000) scale(0.100000,-0.100000)"
fill="#000000" stroke="none">
<path d="M234 474 c-8 -3 -9 -17 -2 -46 12 -54 7 -64 -39 -74 l-38 -8 40 -5
40 -6 3 -55 3 -56 -71 -19 c-72 -20 -83 -33 -39 -49 21 -7 44 2 133 49 106 57
135 83 56 51 l-40 -16 0 54 c0 54 0 54 35 60 41 8 37 26 -6 26 -32 0 -36 13
-17 55 6 14 9 27 7 29 -8 8 -54 15 -65 10z"/>
</g>
</svg>
