<?xml version="1.0" standalone="no"?>
<!DOCTYPE svg PUBLIC "-//W3C//DTD SVG 20010904//EN"
 "http://www.w3.org/TR/2001/REC-SVG-20010904/DTD/svg10.dtd">
<svg version="1.0" xmlns="http://www.w3.org/2000/svg"
 width="96.000000pt" height="68.000000pt" viewBox="0 0 96.000000 68.000000"
 preserveAspectRatio="xMidYMid meet">
<metadata>
Created by potrace 1.16, written by Peter Selinger 2001-2019
</metadata>
<g transform="translate(0.000000,68.000000) scale(0.100000,-0.100000)"
fill="#000000" stroke="none">
<path d="M440 562 c0 -11 39 -52 50 -52 19 0 21 22 4 41 -17 19 -54 26 -54 11z"/>
<path d="M211 506 c-84 -12 -98 -29 -31 -36 47 -5 57 -19 59 -82 1 -21 -4 -28
-18 -28 -11 0 -28 -3 -38 -7 -14 -6 -10 -9 17 -13 35 -5 35 -5 38 -62 l3 -56
-71 -18 c-38 -10 -70 -21 -70 -25 0 -3 11 -12 25 -19 23 -12 33 -10 118 35
109 56 138 75 117 75 -8 -1 -26 -7 -40 -15 -38 -22 -40 -19 -40 38 0 53 0 54
38 63 l37 10 -37 8 c-40 9 -44 18 -28 60 6 17 6 26 0 26 -26 0 -6 19 27 25 48
9 59 15 42 26 -17 11 -51 9 -148 -5z"/>
<path d="M510 500 c-14 -4 -49 -8 -77 -9 -52 -1 -52 -1 -43 -27 6 -14 10 -62
9 -107 0 -73 -4 -107 -26 -209 -8 -39 17 -37 70 5 74 59 93 68 107 52 15 -18
40 -8 40 16 0 21 -36 49 -63 49 -14 0 -16 -4 -7 -19 7 -15 7 -22 -2 -28 -18
-11 -82 -43 -86 -43 -2 0 -2 30 0 67 l3 68 54 1 c59 1 65 6 75 69 4 22 12 53
18 68 16 41 -19 64 -72 47z m24 -47 c-1 -26 -4 -28 -47 -31 -42 -3 -47 -1 -47
18 0 22 28 38 70 39 22 1 25 -3 24 -26z m-10 -75 c-3 -13 -7 -24 -8 -25 0 0
-18 -4 -38 -8 -37 -7 -38 -7 -38 24 0 30 1 31 46 31 42 0 45 -1 38 -22z"/>
<path d="M730 500 c-8 -5 -34 -10 -57 -10 l-43 0 0 -222 c0 -209 7 -276 24
-232 4 10 9 106 13 213 3 108 10 204 15 214 6 11 20 17 43 17 41 0 42 -3 15
-52 l-19 -36 30 -34 c32 -36 45 -69 35 -93 -3 -8 -12 -12 -20 -9 -8 3 -23 1
-33 -5 -12 -7 -14 -10 -4 -11 8 0 29 -12 48 -26 45 -34 63 -20 63 49 0 47 -3
53 -47 93 l-47 44 42 41 c23 23 42 45 42 49 0 18 -76 26 -100 10z"/>
</g>
</svg>
