<?xml version="1.0" standalone="no"?>
<!DOCTYPE svg PUBLIC "-//W3C//DTD SVG 20010904//EN"
 "http://www.w3.org/TR/2001/REC-SVG-20010904/DTD/svg10.dtd">
<svg version="1.0" xmlns="http://www.w3.org/2000/svg"
 width="96.000000pt" height="68.000000pt" viewBox="0 0 96.000000 68.000000"
 preserveAspectRatio="xMidYMid meet">
<metadata>
Created by potrace 1.16, written by Peter Selinger 2001-2019
</metadata>
<g transform="translate(0.000000,68.000000) scale(0.100000,-0.100000)"
fill="#000000" stroke="none">
<path d="M290 564 c-30 -8 -68 -11 -84 -8 -29 6 -29 6 -23 -32 4 -22 7 -63 7
-91 l0 -53 93 4 92 4 11 45 c7 24 15 62 18 84 7 36 5 40 -19 51 -30 14 -23 14
-95 -4z m63 -26 c8 -25 -5 -48 -28 -48 -12 0 -37 -3 -54 -6 -29 -6 -31 -5 -31
24 0 33 -5 31 92 40 9 1 18 -4 21 -10z m-3 -98 c0 -28 -2 -30 -39 -30 -22 0
-46 -3 -55 -6 -12 -5 -16 1 -16 24 0 32 9 36 83 41 24 1 27 -3 27 -29z"/>
</g>
</svg>
