<?xml version="1.0" standalone="no"?>
<!DOCTYPE svg PUBLIC "-//W3C//DTD SVG 20010904//EN"
 "http://www.w3.org/TR/2001/REC-SVG-20010904/DTD/svg10.dtd">
<svg version="1.0" xmlns="http://www.w3.org/2000/svg"
 width="96.000000pt" height="68.000000pt" viewBox="0 0 96.000000 68.000000"
 preserveAspectRatio="xMidYMid meet">
<metadata>
Created by potrace 1.16, written by Peter Selinger 2001-2019
</metadata>
<g transform="translate(0.000000,68.000000) scale(0.100000,-0.100000)"
fill="#000000" stroke="none">
<path d="M475 568 c-10 -43 -48 -103 -98 -155 -23 -24 -37 -43 -31 -43 12 0
71 42 87 63 12 14 50 22 170 34 l57 5 0 -48 c0 -27 -6 -69 -14 -94 -12 -39
-17 -45 -40 -43 -25 2 -26 1 -11 -26 41 -80 82 -27 120 154 12 53 12 61 -3 73
-9 6 -25 12 -36 12 -25 0 -144 -19 -168 -26 -25 -8 -22 13 7 52 31 41 31 52
-1 64 -34 13 -31 14 -39 -22z"/>
<path d="M206 542 c-14 -23 89 -93 109 -74 12 13 3 43 -17 56 -31 19 -85 29
-92 18z"/>
<path d="M120 400 c0 -15 71 -75 88 -75 27 0 28 52 3 60 -12 3 -21 9 -21 13 0
4 -16 8 -35 9 -19 1 -35 -2 -35 -7z"/>
<path d="M475 374 c-22 -7 -53 -10 -70 -8 l-30 5 -3 -110 c-3 -133 7 -162 65
-179 105 -31 317 -21 365 18 l21 17 -22 46 c-13 26 -26 47 -31 47 -4 0 -11
-15 -14 -34 -10 -53 -56 -71 -181 -71 -111 1 -164 17 -166 50 -2 21 -2 59 0
85 1 9 10 16 24 16 91 1 97 3 97 32 0 16 7 37 15 48 19 26 19 29 -7 41 -16 6
-35 6 -63 -3z m22 -50 c-7 -44 -4 -41 -49 -49 -37 -7 -38 -6 -38 21 0 46 16
59 74 63 16 1 18 -4 13 -35z"/>
<path d="M260 278 c-19 -28 -51 -68 -72 -89 -41 -40 -46 -62 -23 -96 14 -20
45 -22 45 -3 0 5 20 50 44 102 24 51 46 103 50 116 13 38 -9 24 -44 -30z"/>
</g>
</svg>
