<?xml version="1.0" standalone="no"?>
<!DOCTYPE svg PUBLIC "-//W3C//DTD SVG 20010904//EN"
 "http://www.w3.org/TR/2001/REC-SVG-20010904/DTD/svg10.dtd">
<svg version="1.0" xmlns="http://www.w3.org/2000/svg"
 width="90.000000pt" height="92.000000pt" viewBox="0 0 90.000000 92.000000"
 preserveAspectRatio="xMidYMid meet">
<metadata>
Created by potrace 1.16, written by Peter Selinger 2001-2019
</metadata>
<g transform="translate(0.000000,92.000000) scale(0.100000,-0.100000)"
fill="#000000" stroke="none">
<path d="M455 854 c-27 -9 -94 -16 -147 -17 -96 -2 -112 -9 -87 -34 7 -7 18
-47 25 -89 8 -43 17 -81 21 -85 5 -5 25 -4 46 0 40 10 41 9 51 -31 7 -29 15
-26 -104 -44 -33 -6 -34 -6 -15 -21 15 -10 34 -13 73 -8 l52 6 0 -40 c0 -26
-5 -41 -12 -41 -47 -2 -309 -38 -314 -43 -4 -4 8 -13 27 -21 30 -12 48 -11
144 4 61 10 130 20 155 23 l45 6 -29 -22 c-81 -61 -180 -123 -263 -164 -51
-26 -91 -48 -89 -50 10 -10 121 27 195 64 46 24 88 43 94 43 6 0 8 -34 4 -96
-3 -62 -2 -105 6 -121 11 -24 11 -24 26 -5 12 15 34 21 92 26 l76 7 13 -31
c16 -38 35 -38 55 0 13 24 15 52 11 135 -4 63 -2 106 4 110 17 11 11 25 -20
44 -30 18 -32 18 -98 -1 -100 -28 -112 -21 -47 29 l54 42 146 7 c80 4 149 12
152 17 3 6 -5 19 -18 30 -25 20 -28 20 -174 2 l-50 -6 59 55 59 56 -23 25
c-32 34 -47 31 -64 -10 -8 -19 -38 -60 -67 -90 -39 -42 -59 -55 -80 -55 -30 0
-35 12 -23 57 5 17 16 23 55 28 27 4 52 11 55 17 11 18 -19 29 -64 24 -42 -6
-43 -5 -40 22 2 15 8 30 13 34 16 12 80 9 93 -4 18 -18 32 1 63 85 14 39 29
80 33 89 6 13 -1 22 -26 38 -38 23 -73 24 -143 4z m83 -55 c3 -25 2 -25 -116
-38 -66 -8 -125 -11 -131 -7 -6 4 -11 15 -11 25 0 16 14 20 103 30 56 7 109
14 117 15 26 6 35 0 38 -25z m-10 -86 c-2 -20 -9 -27 -28 -28 -49 -3 -165 -16
-187 -21 -20 -4 -23 0 -23 24 l0 29 103 10 c56 5 110 10 120 11 14 2 18 -4 15
-25z m30 -427 c3 -37 3 -38 -23 -34 -15 3 -43 2 -63 -2 -108 -23 -102 -24
-102 19 0 38 1 39 48 49 26 6 67 9 92 9 44 -2 44 -2 48 -41z m2 -98 c0 -46 -9
-53 -60 -53 -25 0 -64 -3 -87 -7 l-43 -6 0 38 0 39 58 6 c31 4 62 8 67 10 6 2
22 4 38 4 24 1 27 -2 27 -31z"/>
</g>
</svg>
