<?xml version="1.0" standalone="no"?>
<!DOCTYPE svg PUBLIC "-//W3C//DTD SVG 20010904//EN"
 "http://www.w3.org/TR/2001/REC-SVG-20010904/DTD/svg10.dtd">
<svg version="1.0" xmlns="http://www.w3.org/2000/svg"
 width="96.000000pt" height="68.000000pt" viewBox="0 0 96.000000 68.000000"
 preserveAspectRatio="xMidYMid meet">
<metadata>
Created by potrace 1.16, written by Peter Selinger 2001-2019
</metadata>
<g transform="translate(0.000000,68.000000) scale(0.100000,-0.100000)"
fill="#000000" stroke="none">
<path d="M390 395 c-52 -7 -90 -13 -84 -14 6 0 19 -20 30 -42 l18 -41 60 6
c32 3 76 6 97 6 31 0 39 4 39 18 0 11 9 27 21 38 19 17 19 19 3 31 -21 15 -53
15 -184 -2z m108 -11 c47 -13 19 -42 -53 -55 -53 -10 -60 -9 -72 7 -24 33 -15
43 40 47 28 2 54 4 57 5 3 1 15 -1 28 -4z"/>
</g>
</svg>
