<?xml version="1.0" standalone="no"?>
<!DOCTYPE svg PUBLIC "-//W3C//DTD SVG 20010904//EN"
 "http://www.w3.org/TR/2001/REC-SVG-20010904/DTD/svg10.dtd">
<svg version="1.0" xmlns="http://www.w3.org/2000/svg"
 width="96.000000pt" height="68.000000pt" viewBox="0 0 96.000000 68.000000"
 preserveAspectRatio="xMidYMid meet">
<metadata>
Created by potrace 1.16, written by Peter Selinger 2001-2019
</metadata>
<g transform="translate(0.000000,68.000000) scale(0.100000,-0.100000)"
fill="#000000" stroke="none">
<path d="M520 562 c0 -36 -3 -40 -31 -46 -17 -3 -44 -6 -60 -6 -16 0 -29 -4
-29 -10 0 -5 23 -10 50 -10 28 0 50 -4 50 -9 0 -13 -75 -78 -99 -86 -17 -5
-31 -25 -17 -25 12 0 84 35 105 51 31 24 41 24 41 -1 0 -26 -26 -76 -54 -106
-25 -26 -95 -74 -108 -74 -6 0 -9 52 -7 134 4 153 -2 173 -55 161 -17 -4 -58
-9 -91 -12 l-60 -4 4 -116 c4 -133 -10 -220 -45 -281 -18 -30 -21 -42 -11 -42
28 0 78 74 91 136 6 25 11 30 29 27 13 -3 32 4 47 17 l25 22 3 -73 c4 -95 1
-101 -38 -87 -17 5 -34 7 -38 4 -9 -10 69 -75 91 -76 25 0 47 57 47 125 0 30
3 55 8 56 30 3 51 12 109 49 59 37 69 40 96 30 17 -5 44 -21 61 -34 68 -51
116 -65 174 -50 34 10 26 21 -20 28 -69 11 -227 78 -220 94 3 8 0 17 -6 21 -7
4 -9 21 -5 45 5 34 8 37 32 31 14 -4 32 -12 40 -18 23 -19 85 -46 94 -40 4 3
7 12 5 21 -2 11 -30 26 -83 43 -44 14 -79 29 -78 35 1 5 26 13 55 17 76 12 86
16 68 28 -8 5 -38 6 -67 3 l-52 -6 -3 33 c-2 26 -8 35 -25 37 -21 3 -23 -1
-23 -36z m-220 -108 c0 -38 -3 -45 -17 -41 -10 3 -31 8 -46 11 -22 5 -28 12
-25 29 3 22 40 47 71 47 14 0 17 -9 17 -46z m-45 -84 c3 -6 15 -10 26 -10 30
0 23 -33 -12 -52 -51 -30 -59 -25 -59 37 0 52 1 55 19 45 11 -5 23 -15 26 -20z"/>
<path d="M514 243 c6 -30 9 -86 7 -145 -1 -36 -2 -36 -31 -28 -39 11 -37 2 7
-35 34 -28 36 -28 49 -10 11 15 14 47 12 130 -3 107 -4 110 -26 113 -21 3 -23
1 -18 -25z"/>
<path d="M621 210 c-11 -16 -21 -31 -21 -34 0 -3 20 2 45 11 51 17 55 25 21
41 -20 9 -26 7 -45 -18z"/>
<path d="M416 222 c-2 -4 4 -18 15 -30 18 -23 39 -22 39 1 0 14 -48 39 -54 29z"/>
<path d="M427 131 c-45 -21 -55 -29 -45 -39 7 -7 17 -12 23 -12 13 1 91 67 85
73 -3 2 -31 -8 -63 -22z"/>
<path d="M600 140 c0 -5 4 -10 9 -10 5 0 16 -6 23 -13 7 -7 30 -23 51 -36 32
-20 38 -21 43 -7 11 28 -2 41 -58 59 -64 20 -68 20 -68 7z"/>
</g>
</svg>
