<?xml version="1.0" standalone="no"?>
<!DOCTYPE svg PUBLIC "-//W3C//DTD SVG 20010904//EN"
 "http://www.w3.org/TR/2001/REC-SVG-20010904/DTD/svg10.dtd">
<svg version="1.0" xmlns="http://www.w3.org/2000/svg"
 width="96.000000pt" height="68.000000pt" viewBox="0 0 96.000000 68.000000"
 preserveAspectRatio="xMidYMid meet">
<metadata>
Created by potrace 1.16, written by Peter Selinger 2001-2019
</metadata>
<g transform="translate(0.000000,68.000000) scale(0.100000,-0.100000)"
fill="#000000" stroke="none">
<path d="M181 90 c-38 -47 -41 -80 -8 -80 26 0 57 45 57 83 0 40 -15 40 -49
-3z"/>
<path d="M520 125 c0 -16 33 -66 49 -75 24 -12 36 12 21 40 -14 27 -70 54 -70
35z"/>
<path d="M690 123 c0 -13 87 -103 98 -103 17 0 24 18 17 40 -11 34 -115 91
-115 63z"/>
<path d="M372 78 c25 -46 51 -56 56 -21 4 25 -33 63 -61 63 -17 0 -17 -2 5
-42z"/>
</g>
</svg>
