<?xml version="1.0" standalone="no"?>
<!DOCTYPE svg PUBLIC "-//W3C//DTD SVG 20010904//EN"
 "http://www.w3.org/TR/2001/REC-SVG-20010904/DTD/svg10.dtd">
<svg version="1.0" xmlns="http://www.w3.org/2000/svg"
 width="90.000000pt" height="92.000000pt" viewBox="0 0 90.000000 92.000000"
 preserveAspectRatio="xMidYMid meet">
<metadata>
Created by potrace 1.16, written by Peter Selinger 2001-2019
</metadata>
<g transform="translate(0.000000,92.000000) scale(0.100000,-0.100000)"
fill="#000000" stroke="none">
<path d="M650 809 c-36 -10 -81 -18 -100 -18 l-34 -1 67 -68 c37 -37 67 -72
67 -79 0 -16 -75 -81 -115 -100 -35 -17 -46 -33 -22 -33 23 0 122 51 148 76
l26 25 31 -36 c40 -45 62 -46 62 -3 0 22 -9 42 -30 63 l-29 30 29 60 c16 33
30 65 30 72 0 8 -59 38 -64 32 -1 -1 -30 -10 -66 -20z m50 -38 c0 -17 -23 -72
-29 -69 -30 15 -81 51 -77 55 15 15 106 27 106 14z"/>
<path d="M385 773 c-33 -9 -70 -17 -82 -19 -19 -4 -15 -10 38 -61 32 -31 59
-61 59 -66 0 -17 -88 -96 -115 -103 -26 -6 -35 -24 -12 -24 20 0 133 58 148
76 11 13 16 11 40 -12 15 -14 32 -23 38 -20 18 12 12 62 -9 81 -26 23 -25 31
5 91 23 45 24 50 8 62 -20 15 -40 14 -118 -5z m51 -55 c-3 -17 -8 -34 -11 -36
-4 -4 -75 36 -75 44 0 4 59 22 79 23 10 1 12 -7 7 -31z"/>
<path d="M145 659 c-31 -12 -64 -17 -88 -14 -37 5 -46 -2 -26 -22 6 -6 17 -57
24 -113 8 -56 17 -105 20 -109 4 -3 12 1 18 10 8 11 36 19 80 23 61 7 67 10
62 27 -7 23 11 110 31 150 14 28 9 41 -23 58 -27 14 -36 13 -98 -10z m49 -46
c-1 -7 -2 -40 -2 -73 l-2 -59 -37 -10 c-21 -6 -43 -11 -49 -11 -10 0 -27 139
-18 149 6 7 69 19 89 18 11 -1 20 -8 19 -14z"/>
<path d="M679 480 c-32 -19 -181 -39 -205 -28 -17 8 -40 6 -88 -6 -36 -9 -78
-16 -94 -16 -16 0 -32 -3 -35 -6 -4 -4 20 -36 53 -71 33 -35 60 -69 60 -75 0
-22 -90 -96 -145 -119 -61 -27 -73 -44 -23 -34 53 11 131 50 171 85 21 18 39
31 41 29 1 -2 13 -19 25 -36 23 -33 44 -42 56 -22 11 16 -3 55 -30 87 l-25 30
21 49 c11 26 27 56 36 65 14 15 17 16 38 2 13 -8 40 -47 61 -86 l37 -72 -51
-47 c-29 -26 -70 -55 -92 -65 -22 -10 -40 -22 -40 -27 0 -24 141 32 187 75
l21 20 15 -28 c8 -16 26 -41 41 -57 22 -23 33 -27 83 -27 52 0 95 12 83 23 -3
2 -32 18 -65 36 -33 17 -75 44 -93 59 l-34 28 52 109 c49 102 51 109 34 122
-21 15 -72 17 -95 3z m17 -57 c-3 -10 -10 -36 -15 -58 -19 -71 -25 -72 -64 -8
l-36 58 37 12 c57 18 84 16 78 -4z m-276 -20 c-1 -10 -6 -31 -13 -46 l-12 -28
-45 33 -44 33 49 12 c67 15 65 15 65 -4z"/>
</g>
</svg>
