<?xml version="1.0" standalone="no"?>
<!DOCTYPE svg PUBLIC "-//W3C//DTD SVG 20010904//EN"
 "http://www.w3.org/TR/2001/REC-SVG-20010904/DTD/svg10.dtd">
<svg version="1.0" xmlns="http://www.w3.org/2000/svg"
 width="96.000000pt" height="68.000000pt" viewBox="0 0 96.000000 68.000000"
 preserveAspectRatio="xMidYMid meet">
<metadata>
Created by potrace 1.16, written by Peter Selinger 2001-2019
</metadata>
<g transform="translate(0.000000,68.000000) scale(0.100000,-0.100000)"
fill="#000000" stroke="none">
<path d="M640 570 c-14 -4 -40 -8 -57 -9 -18 -1 -33 -4 -33 -7 0 -3 23 -26 50
-51 l51 -46 -23 -25 c-13 -13 -41 -33 -63 -43 l-40 -19 39 4 c21 3 57 17 78
31 l40 27 28 -27 c48 -46 71 -5 25 41 l-26 26 26 44 c14 24 23 49 20 54 -7 12
-79 12 -115 0z m50 -32 c0 -7 -4 -20 -10 -28 -8 -12 -14 -12 -47 4 -34 17 -36
19 -18 27 31 12 75 10 75 -3z"/>
</g>
</svg>
