<?xml version="1.0" standalone="no"?>
<!DOCTYPE svg PUBLIC "-//W3C//DTD SVG 20010904//EN"
 "http://www.w3.org/TR/2001/REC-SVG-20010904/DTD/svg10.dtd">
<svg version="1.0" xmlns="http://www.w3.org/2000/svg"
 width="96.000000pt" height="68.000000pt" viewBox="0 0 96.000000 68.000000"
 preserveAspectRatio="xMidYMid meet">
<metadata>
Created by potrace 1.16, written by Peter Selinger 2001-2019
</metadata>
<g transform="translate(0.000000,68.000000) scale(0.100000,-0.100000)"
fill="#000000" stroke="none">
<path d="M500 615 c0 -3 7 -17 16 -31 9 -13 14 -27 11 -31 -3 -3 -48 -10 -99
-15 -51 -5 -104 -11 -118 -14 l-25 -6 24 -18 c24 -18 24 -18 13 -101 -18 -124
-80 -244 -167 -321 -47 -42 -7 -35 53 9 87 64 137 161 167 322 8 47 17 86 19
88 5 5 155 21 269 28 59 4 109 11 112 15 3 5 -12 14 -33 20 -36 9 -61 8 -129
-6 -18 -3 -23 0 -23 15 0 24 -36 51 -67 51 -13 0 -23 -2 -23 -5z"/>
<path d="M595 478 c-16 -4 -58 -10 -93 -11 -51 -1 -61 -5 -56 -17 3 -8 10 -37
15 -64 5 -27 11 -51 13 -54 3 -2 44 0 92 5 61 5 89 12 94 23 5 8 16 35 26 59
18 42 17 43 -2 54 -25 15 -52 17 -89 5z m45 -27 c0 -19 -8 -22 -112 -37 -43
-6 -47 -5 -45 15 1 17 8 21 37 22 19 1 49 5 65 9 48 12 55 11 55 -9z m-10 -60
c0 -14 -10 -20 -46 -25 -72 -9 -94 -8 -94 9 0 13 19 19 95 28 17 2 33 5 38 6
4 0 7 -7 7 -18z"/>
<path d="M169 427 c6 -8 7 -18 3 -22 -4 -5 -2 -5 5 -1 7 4 18 -2 25 -14 17
-27 68 -28 68 -1 0 27 -37 51 -78 51 -28 0 -32 -3 -23 -13z"/>
<path d="M220 310 c-25 -17 -60 -33 -78 -36 -40 -8 -40 -34 1 -48 25 -9 32 -5
82 44 77 76 75 91 -5 40z"/>
<path d="M555 305 c-55 -7 -122 -14 -148 -14 -58 -1 -55 -21 4 -21 21 0 39 -4
39 -8 0 -13 -71 -81 -91 -87 -11 -4 -19 -10 -19 -15 0 -11 43 6 82 32 30 21
54 23 64 6 5 -7 -11 -28 -39 -54 -26 -23 -47 -45 -47 -49 0 -14 83 42 121 82
43 46 69 55 69 25 0 -31 -56 -100 -110 -134 -53 -35 -65 -53 -25 -38 44 17 99
57 150 110 49 50 49 52 30 66 -19 14 -17 15 25 12 43 -3 45 -5 48 -35 2 -18
-6 -53 -17 -79 -20 -45 -22 -46 -57 -40 l-35 7 22 -30 c44 -60 86 -29 123 91
14 47 26 88 26 92 0 3 -9 10 -20 16 -15 8 -54 8 -141 -1 -66 -6 -123 -9 -126
-6 -3 3 3 15 13 25 16 18 39 21 167 29 83 4 148 12 150 18 3 15 -142 15 -258
0z"/>
</g>
</svg>
