<?xml version="1.0" standalone="no"?>
<!DOCTYPE svg PUBLIC "-//W3C//DTD SVG 20010904//EN"
 "http://www.w3.org/TR/2001/REC-SVG-20010904/DTD/svg10.dtd">
<svg version="1.0" xmlns="http://www.w3.org/2000/svg"
 width="96.000000pt" height="68.000000pt" viewBox="0 0 96.000000 68.000000"
 preserveAspectRatio="xMidYMid meet">
<metadata>
Created by potrace 1.16, written by Peter Selinger 2001-2019
</metadata>
<g transform="translate(0.000000,68.000000) scale(0.100000,-0.100000)"
fill="#000000" stroke="none">
<path d="M535 160 c-27 -5 -81 -9 -119 -9 -57 -1 -67 -3 -57 -15 6 -8 20 -38
29 -67 12 -37 23 -53 32 -51 8 2 57 6 108 9 51 3 90 8 88 11 -6 6 21 61 41 84
13 15 12 18 -16 32 -32 17 -31 17 -106 6z m55 -27 c0 -5 -5 -24 -10 -44 -10
-36 -10 -36 -78 -42 -37 -3 -70 -2 -74 1 -4 4 -9 23 -10 42 -3 33 -1 35 32 41
51 9 140 10 140 2z"/>
</g>
</svg>
