<?xml version="1.0" standalone="no"?>
<!DOCTYPE svg PUBLIC "-//W3C//DTD SVG 20010904//EN"
 "http://www.w3.org/TR/2001/REC-SVG-20010904/DTD/svg10.dtd">
<svg version="1.0" xmlns="http://www.w3.org/2000/svg"
 width="96.000000pt" height="68.000000pt" viewBox="0 0 96.000000 68.000000"
 preserveAspectRatio="xMidYMid meet">
<metadata>
Created by potrace 1.16, written by Peter Selinger 2001-2019
</metadata>
<g transform="translate(0.000000,68.000000) scale(0.100000,-0.100000)"
fill="#000000" stroke="none">
<path d="M232 378 c9 -13 27 -30 42 -38 24 -13 28 -13 36 0 5 8 10 19 10 23 0
10 -63 37 -86 37 -15 0 -15 -2 -2 -22z"/>
<path d="M161 293 c36 -46 79 -58 79 -23 0 21 -34 40 -72 40 -18 0 -19 -2 -7
-17z"/>
<path d="M240 181 c-19 -27 -47 -57 -62 -68 -30 -19 -36 -49 -15 -77 11 -15
15 -15 24 -4 11 13 103 186 103 194 0 15 -20 -3 -50 -45z"/>
</g>
</svg>
