<?xml version="1.0" standalone="no"?>
<!DOCTYPE svg PUBLIC "-//W3C//DTD SVG 20010904//EN"
 "http://www.w3.org/TR/2001/REC-SVG-20010904/DTD/svg10.dtd">
<svg version="1.0" xmlns="http://www.w3.org/2000/svg"
 width="96.000000pt" height="68.000000pt" viewBox="0 0 96.000000 68.000000"
 preserveAspectRatio="xMidYMid meet">
<metadata>
Created by potrace 1.16, written by Peter Selinger 2001-2019
</metadata>
<g transform="translate(0.000000,68.000000) scale(0.100000,-0.100000)"
fill="#000000" stroke="none">
<path d="M500 468 c0 -6 7 -19 16 -29 15 -16 11 -18 -50 -24 -37 -4 -68 -11
-71 -15 -9 -14 43 -20 87 -11 24 5 84 13 133 16 50 4 92 9 95 12 14 13 -32 23
-82 18 -48 -5 -58 -3 -58 9 0 17 -29 36 -54 36 -9 0 -16 -5 -16 -12z"/>
</g>
</svg>
