<?xml version="1.0" standalone="no"?>
<!DOCTYPE svg PUBLIC "-//W3C//DTD SVG 20010904//EN"
 "http://www.w3.org/TR/2001/REC-SVG-20010904/DTD/svg10.dtd">
<svg version="1.0" xmlns="http://www.w3.org/2000/svg"
 width="90.000000pt" height="92.000000pt" viewBox="0 0 90.000000 92.000000"
 preserveAspectRatio="xMidYMid meet">
<metadata>
Created by potrace 1.16, written by Peter Selinger 2001-2019
</metadata>
<g transform="translate(0.000000,92.000000) scale(0.100000,-0.100000)"
fill="#000000" stroke="none">
<path d="M385 890 c-3 -5 -1 -18 5 -29 5 -11 10 -35 10 -55 0 -38 1 -37 -105
-51 -47 -7 -48 -8 -30 -22 15 -11 35 -13 78 -9 l58 6 -3 -43 -3 -42 -98 -11
c-54 -7 -101 -14 -104 -18 -15 -15 60 -32 105 -25 73 12 88 11 89 -8 1 -10 5
-30 8 -44 8 -29 -10 -38 -75 -39 -19 0 -42 -4 -50 -10 -24 -15 36 -32 87 -24
l43 6 0 -39 0 -40 -82 -11 c-46 -7 -100 -12 -120 -12 -50 0 -57 -17 -13 -36
32 -13 44 -13 118 1 45 9 160 19 255 22 133 5 172 9 172 19 0 8 -14 21 -31 30
-27 14 -42 14 -106 5 -41 -6 -89 -11 -108 -11 -34 0 -35 1 -35 39 l0 39 57 7
c31 4 68 11 82 17 26 9 26 10 6 24 -19 15 -53 14 -112 -2 -20 -6 -23 -3 -23
24 0 25 -6 32 -32 43 -33 13 -33 13 37 20 39 3 100 7 137 8 72 1 88 10 60 33
-33 29 -35 29 -184 3 -27 -4 -28 -3 -28 38 l0 43 75 13 c78 13 90 22 54 42
-15 8 -33 8 -64 0 -24 -6 -46 -11 -49 -11 -3 0 -6 22 -6 49 0 46 -2 50 -31 60
-39 13 -36 13 -44 1z"/>
<path d="M390 310 c0 -6 14 -32 31 -56 37 -55 64 -56 64 -4 0 27 -5 37 -25 46
-45 21 -70 26 -70 14z"/>
<path d="M711 240 c71 -80 99 -89 99 -31 0 34 -23 56 -79 76 -72 25 -75 18
-20 -45z"/>
<path d="M112 217 c-28 -58 -32 -74 -23 -93 14 -32 37 -30 55 5 24 45 30 105
15 133 -14 24 -14 24 -47 -45z"/>
<path d="M255 259 c28 -93 69 -150 128 -182 36 -19 57 -22 152 -22 94 0 115 3
145 21 38 22 44 52 14 69 -9 6 -41 29 -71 53 -57 46 -61 44 -38 -13 21 -48 9
-62 -60 -70 -106 -14 -189 29 -232 119 -21 45 -50 64 -38 25z"/>
</g>
</svg>
