<?xml version="1.0" standalone="no"?>
<!DOCTYPE svg PUBLIC "-//W3C//DTD SVG 20010904//EN"
 "http://www.w3.org/TR/2001/REC-SVG-20010904/DTD/svg10.dtd">
<svg version="1.0" xmlns="http://www.w3.org/2000/svg"
 width="96.000000pt" height="68.000000pt" viewBox="0 0 96.000000 68.000000"
 preserveAspectRatio="xMidYMid meet">
<metadata>
Created by potrace 1.16, written by Peter Selinger 2001-2019
</metadata>
<g transform="translate(0.000000,68.000000) scale(0.100000,-0.100000)"
fill="#000000" stroke="none">
<path d="M315 544 c-33 -7 -77 -13 -97 -14 -21 0 -38 -4 -38 -10 0 -5 15 -10
34 -10 22 0 36 -6 40 -16 12 -30 -58 -157 -128 -233 l-31 -33 30 15 c17 8 51
37 76 64 48 51 121 174 117 194 -2 9 17 16 56 21 66 9 77 15 56 28 -19 12 -41
11 -115 -6z"/>
</g>
</svg>
