<?xml version="1.0" standalone="no"?>
<!DOCTYPE svg PUBLIC "-//W3C//DTD SVG 20010904//EN"
 "http://www.w3.org/TR/2001/REC-SVG-20010904/DTD/svg10.dtd">
<svg version="1.0" xmlns="http://www.w3.org/2000/svg"
 width="96.000000pt" height="68.000000pt" viewBox="0 0 96.000000 68.000000"
 preserveAspectRatio="xMidYMid meet">
<metadata>
Created by potrace 1.16, written by Peter Selinger 2001-2019
</metadata>
<g transform="translate(0.000000,68.000000) scale(0.100000,-0.100000)"
fill="#000000" stroke="none">
<path d="M543 323 c-7 -3 -10 -17 -6 -40 7 -42 -5 -53 -59 -53 -21 0 -38 -4
-38 -10 0 -5 25 -10 55 -10 l55 0 0 -39 c0 -35 -3 -39 -31 -45 -17 -3 -50 -6
-73 -7 -22 -1 -52 -4 -66 -8 l-24 -7 29 -12 c21 -8 41 -9 70 -2 22 6 116 13
208 17 92 3 170 10 173 15 12 18 -51 28 -147 22 -93 -7 -99 -6 -99 12 1 53 10
62 71 69 32 4 61 11 64 15 9 14 -32 22 -79 15 -45 -7 -45 -7 -48 25 -3 33 -28
52 -55 43z"/>
</g>
</svg>
