<?xml version="1.0" standalone="no"?>
<!DOCTYPE svg PUBLIC "-//W3C//DTD SVG 20010904//EN"
 "http://www.w3.org/TR/2001/REC-SVG-20010904/DTD/svg10.dtd">
<svg version="1.0" xmlns="http://www.w3.org/2000/svg"
 width="96.000000pt" height="68.000000pt" viewBox="0 0 96.000000 68.000000"
 preserveAspectRatio="xMidYMid meet">
<metadata>
Created by potrace 1.16, written by Peter Selinger 2001-2019
</metadata>
<g transform="translate(0.000000,68.000000) scale(0.100000,-0.100000)"
fill="#000000" stroke="none">
<path d="M280 538 c-17 -65 -56 -126 -128 -200 -73 -76 -64 -91 17 -28 52 42
95 51 105 24 13 -35 6 -43 -44 -50 -27 -4 -50 -10 -50 -15 0 -5 23 -9 50 -9
l50 0 0 -59 0 -58 -60 -13 c-32 -7 -68 -10 -80 -7 -11 3 -20 2 -20 -2 0 -15
37 -41 56 -41 17 0 242 85 253 96 11 10 -9 14 -30 6 -13 -5 -37 -12 -52 -16
l-28 -7 3 58 3 57 44 9 c37 7 42 11 27 19 -9 5 -28 7 -42 4 -21 -6 -24 -3 -24
24 0 26 5 31 30 37 33 6 41 23 10 23 -10 0 -42 -5 -70 -11 -28 -6 -53 -9 -56
-6 -4 3 54 96 75 120 4 4 22 -4 41 -18 41 -30 50 -31 50 -5 0 13 -12 26 -35
37 -19 9 -35 22 -35 28 0 12 -32 45 -43 45 -3 0 -11 -19 -17 -42z"/>
<path d="M358 215 l-16 -36 32 20 c33 22 41 44 16 49 -10 1 -22 -11 -32 -33z"/>
<path d="M195 190 c16 -31 55 -42 55 -16 0 16 -37 46 -57 46 -11 0 -10 -7 2
-30z"/>
</g>
</svg>
