<?xml version="1.0" standalone="no"?>
<!DOCTYPE svg PUBLIC "-//W3C//DTD SVG 20010904//EN"
 "http://www.w3.org/TR/2001/REC-SVG-20010904/DTD/svg10.dtd">
<svg version="1.0" xmlns="http://www.w3.org/2000/svg"
 width="96.000000pt" height="68.000000pt" viewBox="0 0 96.000000 68.000000"
 preserveAspectRatio="xMidYMid meet">
<metadata>
Created by potrace 1.16, written by Peter Selinger 2001-2019
</metadata>
<g transform="translate(0.000000,68.000000) scale(0.100000,-0.100000)"
fill="#000000" stroke="none">
<path d="M559 417 l-76 -10 26 -49 c22 -42 28 -48 50 -44 15 3 54 8 89 12 46
4 62 10 58 19 -2 7 7 23 20 36 23 22 24 24 8 36 -20 15 -63 15 -175 0z m104
-58 c-4 -4 -31 -11 -59 -14 -48 -7 -52 -6 -57 16 -3 13 -4 25 -2 27 2 3 30 7
62 11 51 5 58 4 61 -13 2 -10 0 -22 -5 -27z"/>
</g>
</svg>
