<?xml version="1.0" standalone="no"?>
<!DOCTYPE svg PUBLIC "-//W3C//DTD SVG 20010904//EN"
 "http://www.w3.org/TR/2001/REC-SVG-20010904/DTD/svg10.dtd">
<svg version="1.0" xmlns="http://www.w3.org/2000/svg"
 width="96.000000pt" height="68.000000pt" viewBox="0 0 96.000000 68.000000"
 preserveAspectRatio="xMidYMid meet">
<metadata>
Created by potrace 1.16, written by Peter Selinger 2001-2019
</metadata>
<g transform="translate(0.000000,68.000000) scale(0.100000,-0.100000)"
fill="#000000" stroke="none">
<path d="M488 258 c-4 -26 -32 -35 -120 -37 -32 0 -58 -5 -58 -10 0 -15 72
-22 109 -12 43 13 57 5 35 -21 -16 -16 -16 -21 -4 -28 8 -6 24 -10 35 -10 11
0 27 -4 35 -10 11 -7 2 -15 -40 -34 -30 -14 -62 -26 -70 -26 -8 0 -22 -5 -30
-11 -30 -21 81 0 142 28 l60 27 70 -37 c43 -23 75 -34 83 -29 26 14 -11 45
-83 70 l-50 18 26 42 27 42 88 0 c132 0 109 31 -27 35 -34 1 -71 5 -83 9 -18
7 -23 5 -23 -8 0 -12 -9 -16 -35 -16 -23 0 -35 5 -35 14 0 13 -20 26 -40 26
-5 0 -10 -10 -12 -22z m122 -47 c0 -5 -11 -22 -24 -38 -21 -25 -30 -28 -65
-25 -53 5 -58 15 -23 44 29 24 112 38 112 19z"/>
</g>
</svg>
