<?xml version="1.0" standalone="no"?>
<!DOCTYPE svg PUBLIC "-//W3C//DTD SVG 20010904//EN"
 "http://www.w3.org/TR/2001/REC-SVG-20010904/DTD/svg10.dtd">
<svg version="1.0" xmlns="http://www.w3.org/2000/svg"
 width="96.000000pt" height="68.000000pt" viewBox="0 0 96.000000 68.000000"
 preserveAspectRatio="xMidYMid meet">
<metadata>
Created by potrace 1.16, written by Peter Selinger 2001-2019
</metadata>
<g transform="translate(0.000000,68.000000) scale(0.100000,-0.100000)"
fill="#000000" stroke="none">
<path d="M508 491 c4 -107 4 -108 -19 -114 -43 -12 -49 -8 -49 27 0 31 -13 46
-38 46 -4 0 -5 -21 -3 -46 4 -51 -6 -63 -49 -64 -20 0 -22 -2 -10 -10 8 -5 25
-10 38 -10 21 0 22 -4 22 -65 0 -81 16 -108 78 -132 92 -35 296 -18 338 28 16
18 16 20 1 37 -9 10 -20 33 -23 50 -8 41 -20 41 -28 -1 -3 -19 -18 -45 -32
-58 -24 -22 -33 -24 -138 -24 -153 0 -162 6 -158 107 l3 75 35 11 c19 5 36 7
38 4 1 -4 4 -34 5 -67 2 -57 6 -73 15 -64 3 2 8 38 13 79 l8 74 47 15 c27 8
51 12 54 8 6 -5 -4 -59 -23 -122 l-6 -20 23 20 c12 11 36 49 53 83 25 53 28
65 16 73 -22 13 -73 11 -105 -6 -16 -8 -38 -15 -48 -15 -18 0 -18 6 -13 83 7
83 7 84 -19 95 -14 7 -26 12 -27 12 -1 0 -1 -49 1 -109z"/>
<path d="M260 574 c-19 -7 -53 -13 -75 -13 -22 -1 -47 -5 -54 -10 -24 -15 31
-24 95 -16 l55 7 -7 -29 c-17 -69 -19 -71 -88 -78 -68 -8 -72 -10 -57 -34 5
-8 3 -31 -6 -58 -19 -56 -9 -69 40 -48 20 8 50 15 67 15 28 0 30 -3 30 -35 0
-51 -20 -132 -35 -145 -10 -8 -21 -7 -45 5 -18 9 -34 14 -37 11 -8 -8 59 -86
75 -86 32 0 67 57 88 141 12 46 24 91 28 99 12 28 -45 52 -104 44 -33 -4 -50
-3 -50 4 0 6 5 14 11 18 6 3 9 15 6 25 -5 17 1 19 54 19 55 0 59 2 57 23 -1
12 11 46 27 74 16 29 26 55 23 58 -16 16 -66 21 -98 9z"/>
</g>
</svg>
