<?xml version="1.0" standalone="no"?>
<!DOCTYPE svg PUBLIC "-//W3C//DTD SVG 20010904//EN"
 "http://www.w3.org/TR/2001/REC-SVG-20010904/DTD/svg10.dtd">
<svg version="1.0" xmlns="http://www.w3.org/2000/svg"
 width="96.000000pt" height="68.000000pt" viewBox="0 0 96.000000 68.000000"
 preserveAspectRatio="xMidYMid meet">
<metadata>
Created by potrace 1.16, written by Peter Selinger 2001-2019
</metadata>
<g transform="translate(0.000000,68.000000) scale(0.100000,-0.100000)"
fill="#000000" stroke="none">
<path d="M460 476 c0 -27 -144 -157 -234 -212 -53 -32 -81 -54 -69 -54 31 0
150 64 223 119 45 34 67 46 73 38 4 -7 7 -61 5 -122 -3 -106 -2 -110 18 -113
21 -3 22 2 29 107 4 61 9 111 11 111 2 0 34 -20 71 -44 92 -59 127 -76 158
-76 33 0 32 10 -9 49 -23 23 -62 42 -122 62 -103 35 -144 52 -144 60 0 3 13
18 30 34 23 22 27 32 19 42 -15 18 -59 17 -59 -1z"/>
</g>
</svg>
