<?xml version="1.0" standalone="no"?>
<!DOCTYPE svg PUBLIC "-//W3C//DTD SVG 20010904//EN"
 "http://www.w3.org/TR/2001/REC-SVG-20010904/DTD/svg10.dtd">
<svg version="1.0" xmlns="http://www.w3.org/2000/svg"
 width="96.000000pt" height="68.000000pt" viewBox="0 0 96.000000 68.000000"
 preserveAspectRatio="xMidYMid meet">
<metadata>
Created by potrace 1.16, written by Peter Selinger 2001-2019
</metadata>
<g transform="translate(0.000000,68.000000) scale(0.100000,-0.100000)"
fill="#000000" stroke="none">
<path d="M445 588 c-49 -5 -106 -11 -125 -14 -33 -6 -34 -6 -15 -21 15 -11 34
-13 73 -9 50 6 52 5 52 -18 0 -24 -2 -25 -87 -28 -49 -2 -94 1 -101 6 -15 10
-13 11 -46 -37 -30 -44 -32 -55 -11 -64 19 -7 55 24 55 47 0 14 13 19 73 24
39 4 82 10 95 13 21 5 22 2 22 -50 0 -51 12 -78 28 -63 3 4 8 33 10 66 l4 60
67 0 c36 0 83 3 104 6 29 5 37 3 37 -8 0 -9 -7 -21 -15 -28 -24 -20 -18 -30
13 -20 15 5 44 11 65 15 20 3 37 10 37 15 0 4 -16 18 -35 30 -37 23 -70 23
-222 4 -49 -6 -53 -5 -53 13 0 17 9 22 48 27 26 4 60 9 76 13 28 5 29 6 11 19
-21 15 -27 15 -160 2z"/>
<path d="M548 455 c-25 -33 -23 -34 20 -20 20 7 36 16 35 19 -2 3 -3 11 -3 16
0 19 -35 9 -52 -15z"/>
<path d="M328 428 c16 -16 25 -19 33 -11 16 16 2 33 -29 33 l-26 0 22 -22z"/>
<path d="M308 382 c-58 -16 -71 -28 -42 -39 17 -6 88 23 105 44 13 15 12 15
-63 -5z"/>
<path d="M520 396 c0 -7 67 -46 79 -46 28 0 8 30 -26 39 -41 12 -53 13 -53 7z"/>
<path d="M409 332 c23 -32 61 -44 61 -18 0 18 -19 33 -54 42 l-30 7 23 -31z"/>
<path d="M555 305 c-5 -2 -73 -11 -150 -21 -162 -20 -209 -40 -70 -30 50 4
107 10 128 13 35 5 37 4 37 -23 0 -26 -32 -94 -44 -94 -3 0 -26 13 -53 30 -26
16 -64 32 -83 35 l-35 5 30 -11 c29 -11 125 -76 125 -85 0 -10 -91 -59 -140
-76 l-55 -18 54 5 c34 3 72 15 107 35 30 16 58 30 64 30 5 0 37 -18 71 -40 60
-38 65 -40 143 -40 104 0 127 13 55 30 -111 25 -239 72 -239 87 0 8 8 27 18
41 25 36 36 63 33 85 -2 15 7 17 61 17 58 1 61 2 44 15 -18 13 -74 19 -101 10z"/>
</g>
</svg>
