<?xml version="1.0" standalone="no"?>
<!DOCTYPE svg PUBLIC "-//W3C//DTD SVG 20010904//EN"
 "http://www.w3.org/TR/2001/REC-SVG-20010904/DTD/svg10.dtd">
<svg version="1.0" xmlns="http://www.w3.org/2000/svg"
 width="96.000000pt" height="68.000000pt" viewBox="0 0 96.000000 68.000000"
 preserveAspectRatio="xMidYMid meet">
<metadata>
Created by potrace 1.16, written by Peter Selinger 2001-2019
</metadata>
<g transform="translate(0.000000,68.000000) scale(0.100000,-0.100000)"
fill="#000000" stroke="none">
<path d="M429 653 c-1 -5 0 -32 1 -62 2 -62 -6 -71 -67 -71 -24 0 -43 -4 -43
-10 0 -5 24 -10 54 -10 57 0 66 -7 66 -56 0 -17 6 -24 19 -24 16 0 20 8 23 42
2 29 8 43 18 45 100 13 125 33 40 33 l-50 0 0 50 c0 45 -3 52 -26 60 -30 12
-34 12 -35 3z"/>
</g>
</svg>
