<?xml version="1.0" standalone="no"?>
<!DOCTYPE svg PUBLIC "-//W3C//DTD SVG 20010904//EN"
 "http://www.w3.org/TR/2001/REC-SVG-20010904/DTD/svg10.dtd">
<svg version="1.0" xmlns="http://www.w3.org/2000/svg"
 width="96.000000pt" height="68.000000pt" viewBox="0 0 96.000000 68.000000"
 preserveAspectRatio="xMidYMid meet">
<metadata>
Created by potrace 1.16, written by Peter Selinger 2001-2019
</metadata>
<g transform="translate(0.000000,68.000000) scale(0.100000,-0.100000)"
fill="#000000" stroke="none">
<path d="M775 168 c33 -27 65 -42 65 -30 0 19 -28 41 -60 47 l-35 8 30 -25z"/>
<path d="M596 172 c-9 -8 33 -34 44 -27 6 4 8 10 5 14 -6 11 -42 20 -49 13z"/>
<path d="M437 139 c-4 -13 -6 -26 -6 -28 0 -2 -5 -8 -13 -12 -10 -7 -8 -9 7
-10 l20 0 -20 -10 c-19 -8 -19 -9 -1 -6 22 2 36 42 26 72 -6 17 -7 17 -13 -6z"/>
<path d="M729 106 c12 -15 12 -19 -2 -33 -20 -20 -116 -24 -136 -5 -18 17 -27
7 -11 -13 9 -11 24 -14 52 -11 26 3 36 2 32 -6 -5 -8 6 -9 37 -3 24 4 51 8 59
8 9 1 17 11 18 24 1 16 -7 27 -31 39 -30 16 -31 16 -18 0z"/>
<path d="M530 96 c0 -2 7 -9 15 -16 9 -7 15 -8 15 -2 0 5 -7 12 -15 16 -8 3
-15 4 -15 2z"/>
<path d="M790 64 c0 -8 5 -12 10 -9 6 4 8 11 5 16 -9 14 -15 11 -15 -7z"/>
</g>
</svg>
