<?xml version="1.0" standalone="no"?>
<!DOCTYPE svg PUBLIC "-//W3C//DTD SVG 20010904//EN"
 "http://www.w3.org/TR/2001/REC-SVG-20010904/DTD/svg10.dtd">
<svg version="1.0" xmlns="http://www.w3.org/2000/svg"
 width="96.000000pt" height="68.000000pt" viewBox="0 0 96.000000 68.000000"
 preserveAspectRatio="xMidYMid meet">
<metadata>
Created by potrace 1.16, written by Peter Selinger 2001-2019
</metadata>
<g transform="translate(0.000000,68.000000) scale(0.100000,-0.100000)"
fill="#000000" stroke="none">
<path d="M237 558 c10 -42 6 -316 -7 -386 -10 -55 2 -102 26 -102 18 0 24 24
24 99 0 37 3 116 7 175 l6 107 22 -21 c27 -26 55 -26 55 0 0 14 -11 23 -41 31
l-40 13 6 47 c6 41 4 49 -14 58 -11 6 -27 11 -36 11 -14 0 -15 -6 -8 -32z"/>
<path d="M151 391 c-24 -51 -22 -91 5 -91 22 0 47 67 39 107 -3 18 -9 33 -14
33 -4 0 -18 -22 -30 -49z"/>
</g>
</svg>
