<?xml version="1.0" standalone="no"?>
<!DOCTYPE svg PUBLIC "-//W3C//DTD SVG 20010904//EN"
 "http://www.w3.org/TR/2001/REC-SVG-20010904/DTD/svg10.dtd">
<svg version="1.0" xmlns="http://www.w3.org/2000/svg"
 width="96.000000pt" height="68.000000pt" viewBox="0 0 96.000000 68.000000"
 preserveAspectRatio="xMidYMid meet">
<metadata>
Created by potrace 1.16, written by Peter Selinger 2001-2019
</metadata>
<g transform="translate(0.000000,68.000000) scale(0.100000,-0.100000)"
fill="#000000" stroke="none">
<path d="M492 147 c-70 -8 -82 -12 -76 -26 3 -9 10 -33 14 -54 9 -44 18 -57
28 -40 5 8 40 13 96 14 65 1 86 5 82 14 -2 7 4 27 15 45 16 25 17 35 8 46 -13
16 -44 16 -167 1z m114 -39 c-3 -17 -9 -34 -11 -37 -3 -3 -34 -7 -69 -9 -62
-4 -63 -4 -70 23 -4 15 -4 30 -1 33 7 7 79 19 124 21 33 1 33 0 27 -31z"/>
</g>
</svg>
