<?xml version="1.0" standalone="no"?>
<!DOCTYPE svg PUBLIC "-//W3C//DTD SVG 20010904//EN"
 "http://www.w3.org/TR/2001/REC-SVG-20010904/DTD/svg10.dtd">
<svg version="1.0" xmlns="http://www.w3.org/2000/svg"
 width="96.000000pt" height="68.000000pt" viewBox="0 0 96.000000 68.000000"
 preserveAspectRatio="xMidYMid meet">
<metadata>
Created by potrace 1.16, written by Peter Selinger 2001-2019
</metadata>
<g transform="translate(0.000000,68.000000) scale(0.100000,-0.100000)"
fill="#000000" stroke="none">
<path d="M470 582 c0 -4 7 -17 15 -29 8 -12 12 -24 8 -26 -5 -3 -56 -8 -115
-12 -101 -7 -128 -15 -93 -29 10 -4 15 -20 15 -54 0 -106 -56 -242 -138 -333
-50 -56 -43 -64 16 -17 86 69 126 144 157 298 l21 105 39 7 c22 4 103 11 180
15 158 9 191 29 45 27 -55 -1 -87 2 -84 8 9 13 -26 48 -48 48 -10 0 -18 -3
-18 -8z"/>
<path d="M150 422 c0 -18 42 -72 55 -72 18 0 20 43 3 57 -17 13 -58 23 -58 15z"/>
<path d="M175 284 c-27 -13 -58 -24 -68 -24 -15 0 -16 -3 -7 -20 16 -31 41
-24 95 25 56 50 52 54 -20 19z"/>
</g>
</svg>
