<?xml version="1.0" standalone="no"?>
<!DOCTYPE svg PUBLIC "-//W3C//DTD SVG 20010904//EN"
 "http://www.w3.org/TR/2001/REC-SVG-20010904/DTD/svg10.dtd">
<svg version="1.0" xmlns="http://www.w3.org/2000/svg"
 width="90.000000pt" height="92.000000pt" viewBox="0 0 90.000000 92.000000"
 preserveAspectRatio="xMidYMid meet">
<metadata>
Created by potrace 1.16, written by Peter Selinger 2001-2019
</metadata>
<g transform="translate(0.000000,92.000000) scale(0.100000,-0.100000)"
fill="#000000" stroke="none">
<path d="M570 831 c0 -64 -7 -71 -72 -71 -15 0 -29 -4 -32 -9 -8 -12 43 -33
65 -26 23 8 23 8 4 -45 l-15 -43 21 19 c11 10 28 31 37 46 14 24 23 28 94 34
43 4 81 10 84 15 10 17 -55 39 -96 33 -45 -7 -46 -5 -24 38 16 30 15 32 -7 49
-46 35 -59 26 -59 -40z"/>
<path d="M250 853 c0 -5 9 -32 20 -60 l20 -53 -75 0 c-41 0 -75 -4 -75 -8 0
-5 11 -19 24 -31 23 -22 28 -23 76 -11 58 14 54 15 67 -24 15 -48 33 -44 33 8
0 44 1 45 35 52 52 9 53 24 1 24 l-46 0 0 45 c0 34 -5 47 -19 55 -23 12 -61
13 -61 3z"/>
<path d="M455 620 c-66 -10 -150 -21 -188 -25 -37 -4 -67 -10 -67 -14 0 -17
54 -32 96 -25 l44 6 -17 -48 c-12 -37 -36 -69 -94 -128 -65 -65 -74 -77 -51
-71 64 15 133 75 189 162 27 43 32 57 23 72 -9 18 -6 20 32 25 170 21 174 19
165 -48 -4 -25 -13 -61 -21 -81 -14 -33 -18 -35 -62 -35 l-46 0 33 -39 c39
-46 58 -50 86 -18 29 31 40 55 48 107 4 25 14 65 22 90 15 44 15 44 -11 67
-31 26 -22 26 -181 3z"/>
<path d="M515 308 c-43 -12 -112 -21 -180 -23 -60 -2 -112 -4 -114 -4 -2 -1 3
-9 13 -20 9 -10 23 -54 30 -97 20 -113 28 -128 52 -104 6 6 76 16 155 22 l144
11 0 36 c0 20 13 62 28 94 16 31 25 62 21 68 -6 10 -69 41 -76 38 -2 -1 -34
-11 -73 -21z m58 -51 c2 -7 0 -38 -5 -69 l-10 -56 -46 -6 c-26 -3 -79 -9 -119
-12 -70 -7 -72 -6 -77 17 -11 50 -11 109 -1 110 5 0 57 7 115 14 142 17 137
17 143 2z"/>
</g>
</svg>
