<?xml version="1.0" standalone="no"?>
<!DOCTYPE svg PUBLIC "-//W3C//DTD SVG 20010904//EN"
 "http://www.w3.org/TR/2001/REC-SVG-20010904/DTD/svg10.dtd">
<svg version="1.0" xmlns="http://www.w3.org/2000/svg"
 width="96.000000pt" height="68.000000pt" viewBox="0 0 96.000000 68.000000"
 preserveAspectRatio="xMidYMid meet">
<metadata>
Created by potrace 1.16, written by Peter Selinger 2001-2019
</metadata>
<g transform="translate(0.000000,68.000000) scale(0.100000,-0.100000)"
fill="#000000" stroke="none">
<path d="M586 633 c-3 -4 -6 -20 -6 -38 0 -40 -16 -55 -57 -55 -18 0 -33 -4
-33 -10 0 -5 16 -10 35 -10 33 0 34 -1 24 -26 -14 -39 -5 -39 29 1 30 33 34
35 97 35 36 0 65 4 65 9 0 13 -26 21 -70 21 -36 0 -38 1 -36 31 1 24 -4 33
-21 39 -11 5 -24 6 -27 3z"/>
<path d="M300 606 c0 -2 7 -20 15 -40 l15 -36 -37 -2 c-21 -1 -50 -2 -65 -1
-33 1 -38 -22 -7 -32 11 -4 42 -4 68 0 44 6 48 5 59 -20 15 -32 34 -23 30 13
-3 24 1 28 32 32 22 3 30 8 23 13 -7 4 -23 5 -37 1 -23 -6 -26 -3 -32 35 -6
37 -9 41 -35 41 -16 0 -29 -2 -29 -4z"/>
</g>
</svg>
