<?xml version="1.0" standalone="no"?>
<!DOCTYPE svg PUBLIC "-//W3C//DTD SVG 20010904//EN"
 "http://www.w3.org/TR/2001/REC-SVG-20010904/DTD/svg10.dtd">
<svg version="1.0" xmlns="http://www.w3.org/2000/svg"
 width="96.000000pt" height="68.000000pt" viewBox="0 0 96.000000 68.000000"
 preserveAspectRatio="xMidYMid meet">
<metadata>
Created by potrace 1.16, written by Peter Selinger 2001-2019
</metadata>
<g transform="translate(0.000000,68.000000) scale(0.100000,-0.100000)"
fill="#000000" stroke="none">
<path d="M238 530 c37 -35 72 -40 72 -11 0 20 -44 41 -84 41 -19 -1 -18 -4 12
-30z"/>
<path d="M160 399 c0 -14 78 -61 89 -54 15 8 14 32 -1 41 -19 12 -88 22 -88
13z"/>
<path d="M252 236 c-23 -30 -55 -63 -72 -72 -16 -10 -30 -24 -30 -31 0 -21 23
-63 35 -63 12 0 121 207 113 215 -3 3 -24 -19 -46 -49z"/>
</g>
</svg>
