<?xml version="1.0" standalone="no"?>
<!DOCTYPE svg PUBLIC "-//W3C//DTD SVG 20010904//EN"
 "http://www.w3.org/TR/2001/REC-SVG-20010904/DTD/svg10.dtd">
<svg version="1.0" xmlns="http://www.w3.org/2000/svg"
 width="96.000000pt" height="68.000000pt" viewBox="0 0 96.000000 68.000000"
 preserveAspectRatio="xMidYMid meet">
<metadata>
Created by potrace 1.16, written by Peter Selinger 2001-2019
</metadata>
<g transform="translate(0.000000,68.000000) scale(0.100000,-0.100000)"
fill="#000000" stroke="none">
<path d="M266 560 c-18 -37 -48 -78 -78 -105 -56 -50 -43 -61 24 -19 53 34
138 119 138 138 0 13 -36 46 -50 46 -3 0 -18 -27 -34 -60z"/>
<path d="M670 475 c-52 -7 -139 -16 -192 -20 -54 -4 -98 -9 -98 -11 0 -3 7
-15 15 -28 8 -12 22 -74 30 -137 18 -137 23 -153 38 -140 7 5 66 13 132 17
l121 7 12 -27 c15 -33 26 -33 52 3 15 22 25 62 36 153 9 68 21 129 27 137 9
10 5 19 -16 37 -31 27 -27 27 -157 9z m94 -120 c-1 -119 -17 -180 -42 -166
-10 5 -54 5 -102 0 -47 -4 -99 -8 -116 -8 l-31 -1 -17 108 c-24 157 -27 147
47 151 34 1 98 6 142 11 130 13 120 21 119 -95z"/>
<path d="M625 379 c-16 -4 -50 -7 -74 -8 -37 -1 -42 -3 -36 -18 4 -10 12 -40
18 -66 8 -38 13 -47 26 -41 9 3 37 9 63 11 34 4 45 9 41 19 -3 8 4 30 16 50
12 19 19 39 16 44 -8 12 -38 17 -70 9z m15 -43 c0 -44 -10 -56 -46 -56 -23 0
-34 5 -34 14 0 8 -3 21 -6 30 -7 17 24 34 64 35 17 1 22 -5 22 -23z"/>
<path d="M291 418 c-8 -26 -38 -66 -91 -121 -44 -44 -78 -83 -76 -84 5 -5 110
67 114 78 2 5 8 9 14 9 11 0 6 -128 -7 -180 -8 -32 18 -71 35 -53 14 13 30
224 18 237 -16 19 -8 40 29 78 38 39 36 60 -6 71 -15 3 -21 -4 -30 -35z"/>
</g>
</svg>
