<?xml version="1.0" standalone="no"?>
<!DOCTYPE svg PUBLIC "-//W3C//DTD SVG 20010904//EN"
 "http://www.w3.org/TR/2001/REC-SVG-20010904/DTD/svg10.dtd">
<svg version="1.0" xmlns="http://www.w3.org/2000/svg"
 width="96.000000pt" height="68.000000pt" viewBox="0 0 96.000000 68.000000"
 preserveAspectRatio="xMidYMid meet">
<metadata>
Created by potrace 1.16, written by Peter Selinger 2001-2019
</metadata>
<g transform="translate(0.000000,68.000000) scale(0.100000,-0.100000)"
fill="#000000" stroke="none">
<path d="M571 564 c-12 -19 -21 -37 -21 -40 0 -4 79 33 89 42 7 6 -21 34 -34
34 -7 0 -22 -16 -34 -36z"/>
<path d="M416 558 c28 -50 64 -63 64 -24 0 24 -16 36 -51 36 -13 0 -18 -4 -13
-12z"/>
<path d="M580 510 c-19 -5 -72 -12 -118 -16 -45 -4 -85 -11 -88 -15 -7 -12
109 -11 203 2 88 12 105 19 77 30 -23 9 -30 9 -74 -1z"/>
</g>
</svg>
