<?xml version="1.0" standalone="no"?>
<!DOCTYPE svg PUBLIC "-//W3C//DTD SVG 20010904//EN"
 "http://www.w3.org/TR/2001/REC-SVG-20010904/DTD/svg10.dtd">
<svg version="1.0" xmlns="http://www.w3.org/2000/svg"
 width="90.000000pt" height="92.000000pt" viewBox="0 0 90.000000 92.000000"
 preserveAspectRatio="xMidYMid meet">
<metadata>
Created by potrace 1.16, written by Peter Selinger 2001-2019
</metadata>
<g transform="translate(0.000000,92.000000) scale(0.100000,-0.100000)"
fill="#000000" stroke="none">
<path d="M185 813 c-9 -51 -36 -100 -90 -166 -61 -75 -34 -77 43 -3 50 48 64
56 111 62 l54 7 -19 -33 c-10 -17 -33 -48 -50 -68 -29 -33 -34 -35 -92 -35
-59 0 -62 -1 -55 -21 5 -12 8 -84 8 -161 0 -135 -1 -142 -30 -200 -16 -33 -31
-64 -33 -68 -2 -5 6 -4 18 3 31 17 78 96 86 145 l6 43 66 6 c37 4 82 10 100
13 32 5 33 4 28 -23 -2 -16 -5 -55 -5 -88 l-1 -58 -40 4 c-22 2 -40 2 -40 1 0
-2 20 -24 45 -51 l46 -47 19 24 c22 26 22 21 24 261 1 96 5 185 10 197 7 18 3
25 -25 43 -19 11 -41 17 -49 14 -75 -30 -75 -24 -2 46 39 39 72 74 72 79 0 5
-12 13 -27 20 -22 8 -39 7 -83 -9 -30 -10 -57 -17 -59 -14 -3 2 8 17 22 32 15
16 27 31 27 35 0 8 -60 47 -71 47 -4 0 -10 -17 -14 -37z m143 -285 c3 -36 2
-38 -27 -38 -30 0 -31 2 -31 41 0 38 1 40 28 37 23 -3 27 -8 30 -40z m-104 6
c12 -32 7 -64 -11 -64 -10 0 -28 -3 -40 -6 -21 -6 -23 -3 -23 34 0 23 5 43 13
45 25 11 55 6 61 -9z m106 -93 c0 -5 3 -22 6 -37 5 -28 4 -29 -35 -30 -40 -1
-41 0 -41 31 0 17 3 35 7 38 10 10 63 8 63 -2z m-100 -46 c0 -31 -2 -33 -40
-37 l-40 -4 0 41 0 41 40 -4 c38 -4 40 -6 40 -37z"/>
<path d="M558 636 l4 -163 -34 -6 c-18 -3 -54 -9 -80 -13 -27 -3 -48 -10 -48
-14 0 -14 55 -28 85 -22 28 5 28 4 22 -37 -6 -47 -57 -161 -93 -208 -30 -40
-11 -46 29 -9 54 50 121 193 115 245 -2 20 1 26 17 26 19 0 20 -8 23 -135 1
-76 7 -145 13 -157 35 -66 222 -61 259 7 9 16 6 27 -15 57 -14 21 -25 44 -25
53 0 13 -1 13 -10 0 -5 -8 -10 -27 -10 -41 0 -40 -34 -64 -89 -64 -83 0 -85 2
-78 108 3 50 11 107 18 125 8 24 8 36 -1 46 -9 12 2 16 69 22 45 3 81 10 81
15 0 5 -11 16 -24 25 -23 14 -32 14 -98 1 -40 -9 -74 -14 -76 -12 -2 1 1 67 7
146 8 128 8 145 -7 157 -9 6 -25 12 -36 12 -20 0 -21 -4 -18 -164z"/>
<path d="M700 625 c-11 -26 -30 -61 -42 -78 -12 -17 -18 -28 -12 -25 70 39
134 83 134 94 0 7 -14 22 -30 34 l-30 21 -20 -46z"/>
<path d="M430 605 c0 -3 9 -23 19 -44 35 -68 71 -79 71 -20 0 22 -8 34 -32 49
-32 19 -58 26 -58 15z"/>
</g>
</svg>
