<?xml version="1.0" standalone="no"?>
<!DOCTYPE svg PUBLIC "-//W3C//DTD SVG 20010904//EN"
 "http://www.w3.org/TR/2001/REC-SVG-20010904/DTD/svg10.dtd">
<svg version="1.0" xmlns="http://www.w3.org/2000/svg"
 width="96.000000pt" height="68.000000pt" viewBox="0 0 96.000000 68.000000"
 preserveAspectRatio="xMidYMid meet">
<metadata>
Created by potrace 1.16, written by Peter Selinger 2001-2019
</metadata>
<g transform="translate(0.000000,68.000000) scale(0.100000,-0.100000)"
fill="#000000" stroke="none">
<path d="M233 296 c-28 -6 -54 -14 -58 -17 -7 -8 14 -100 26 -113 6 -6 14 -5
21 2 7 7 34 12 60 12 39 0 48 3 48 18 0 9 9 34 19 53 32 59 2 70 -116 45z m67
-33 c-1 -48 -12 -63 -46 -63 -29 0 -35 4 -42 33 -5 17 -7 35 -5 40 2 4 24 7
49 7 35 0 44 -3 44 -17z"/>
</g>
</svg>
