<?xml version="1.0" standalone="no"?>
<!DOCTYPE svg PUBLIC "-//W3C//DTD SVG 20010904//EN"
 "http://www.w3.org/TR/2001/REC-SVG-20010904/DTD/svg10.dtd">
<svg version="1.0" xmlns="http://www.w3.org/2000/svg"
 width="96.000000pt" height="68.000000pt" viewBox="0 0 96.000000 68.000000"
 preserveAspectRatio="xMidYMid meet">
<metadata>
Created by potrace 1.16, written by Peter Selinger 2001-2019
</metadata>
<g transform="translate(0.000000,68.000000) scale(0.100000,-0.100000)"
fill="#000000" stroke="none">
<path d="M310 330 c0 -5 9 -10 19 -10 32 0 51 -11 51 -29 0 -31 -32 -115 -51
-136 -19 -19 -20 -19 -50 -1 -34 20 -33 16 3 -37 11 -15 25 -27 32 -27 24 0
65 52 86 109 11 31 25 66 32 78 6 12 8 28 5 36 -9 23 -127 39 -127 17z"/>
</g>
</svg>
