<?xml version="1.0" standalone="no"?>
<!DOCTYPE svg PUBLIC "-//W3C//DTD SVG 20010904//EN"
 "http://www.w3.org/TR/2001/REC-SVG-20010904/DTD/svg10.dtd">
<svg version="1.0" xmlns="http://www.w3.org/2000/svg"
 width="96.000000pt" height="68.000000pt" viewBox="0 0 96.000000 68.000000"
 preserveAspectRatio="xMidYMid meet">
<metadata>
Created by potrace 1.16, written by Peter Selinger 2001-2019
</metadata>
<g transform="translate(0.000000,68.000000) scale(0.100000,-0.100000)"
fill="#000000" stroke="none">
<path d="M656 548 c-3 -13 -7 -32 -8 -43 -2 -13 -12 -21 -31 -23 -29 -4 -28
-22 2 -22 14 0 17 -6 13 -26 l-5 -27 22 22 c11 11 21 25 21 30 0 6 24 11 53
13 60 3 70 21 14 26 -33 3 -37 5 -31 27 4 17 0 26 -14 34 -28 15 -31 14 -36
-11z"/>
<path d="M230 546 c0 -23 83 -81 105 -72 19 7 20 40 1 55 -15 13 -106 27 -106
17z"/>
<path d="M430 535 c0 -3 8 -17 17 -31 14 -22 14 -27 2 -35 -8 -5 -29 -6 -46
-3 -39 7 -43 -7 -7 -26 18 -10 30 -11 42 -4 21 13 42 7 42 -12 0 -8 6 -14 14
-14 9 0 12 7 9 21 -4 15 0 22 16 26 28 7 27 20 -1 19 -17 -1 -24 6 -28 29 -4
24 -11 31 -33 33 -15 2 -27 1 -27 -3z"/>
<path d="M260 419 c-14 -6 -49 -13 -79 -17 -30 -4 -56 -12 -58 -19 -8 -22 47
-27 100 -10 28 9 53 15 55 13 4 -4 -81 -112 -112 -141 -11 -11 -36 -32 -54
-47 -70 -58 15 -27 107 39 l24 17 -7 -49 c-4 -28 -9 -66 -12 -86 -4 -26 0 -42
15 -60 l19 -24 11 28 c6 16 11 60 11 98 0 38 3 69 8 69 4 0 16 -7 26 -15 29
-22 48 -19 44 7 -2 14 -12 24 -28 28 l-25 6 33 17 c37 20 41 33 11 42 -16 6
-27 0 -45 -21 -16 -21 -26 -26 -33 -18 -8 7 4 27 45 69 51 54 54 60 38 72 -21
15 -59 16 -94 2z"/>
<path d="M535 383 c-10 -43 -71 -118 -128 -159 -28 -21 -46 -39 -40 -41 19 -7
103 53 155 110 l46 50 74 -62 c87 -75 98 -80 163 -72 l50 7 -65 22 c-84 29
-206 112 -202 137 4 18 -13 35 -34 35 -7 0 -15 -12 -19 -27z"/>
<path d="M555 244 l-60 -11 78 -2 c42 0 77 3 77 8 0 16 -34 17 -95 5z"/>
<path d="M579 175 c-3 -2 -33 -5 -67 -6 -53 -2 -62 -4 -56 -18 3 -9 12 -36 18
-60 l12 -45 64 3 c110 3 122 8 153 58 37 60 26 73 -58 73 -34 0 -64 -2 -66 -5z
m80 -42 c-5 -46 -16 -53 -89 -53 -64 0 -68 1 -72 24 -9 43 8 51 115 55 47 1
48 0 46 -26z"/>
</g>
</svg>
