<?xml version="1.0" standalone="no"?>
<!DOCTYPE svg PUBLIC "-//W3C//DTD SVG 20010904//EN"
 "http://www.w3.org/TR/2001/REC-SVG-20010904/DTD/svg10.dtd">
<svg version="1.0" xmlns="http://www.w3.org/2000/svg"
 width="96.000000pt" height="68.000000pt" viewBox="0 0 96.000000 68.000000"
 preserveAspectRatio="xMidYMid meet">
<metadata>
Created by potrace 1.16, written by Peter Selinger 2001-2019
</metadata>
<g transform="translate(0.000000,68.000000) scale(0.100000,-0.100000)"
fill="#000000" stroke="none">
<path d="M495 439 c-49 -4 -130 -7 -180 -8 l-90 -1 3 -108 c2 -60 -1 -135 -7
-167 -9 -49 -8 -62 5 -82 10 -17 19 -21 27 -15 7 6 96 13 199 17 183 7 187 7
200 -14 15 -25 31 -27 48 -6 10 11 13 65 14 193 1 146 -2 179 -14 189 -16 13
-65 14 -205 2z m155 -45 c6 -14 10 -84 10 -155 l0 -129 -48 0 c-27 0 -116 -3
-198 -6 l-149 -7 5 149 5 149 110 11 c61 6 143 12 183 13 69 1 73 0 82 -25z"/>
</g>
</svg>
