<?xml version="1.0" standalone="no"?>
<!DOCTYPE svg PUBLIC "-//W3C//DTD SVG 20010904//EN"
 "http://www.w3.org/TR/2001/REC-SVG-20010904/DTD/svg10.dtd">
<svg version="1.0" xmlns="http://www.w3.org/2000/svg"
 width="96.000000pt" height="68.000000pt" viewBox="0 0 96.000000 68.000000"
 preserveAspectRatio="xMidYMid meet">
<metadata>
Created by potrace 1.16, written by Peter Selinger 2001-2019
</metadata>
<g transform="translate(0.000000,68.000000) scale(0.100000,-0.100000)"
fill="#000000" stroke="none">
<path d="M675 216 c0 -25 -3 -48 -7 -51 -4 -4 -20 3 -36 15 -17 12 -36 20 -43
18 -7 -2 4 -14 24 -26 21 -12 37 -26 37 -32 0 -17 -47 -56 -82 -68 l-33 -12
40 6 c22 3 55 14 74 25 l34 20 36 -35 c32 -31 43 -36 84 -36 57 0 61 14 10 31
-43 14 -113 55 -113 67 0 4 7 28 14 53 15 49 8 69 -23 69 -12 0 -16 -11 -16
-44z"/>
</g>
</svg>
