<?xml version="1.0" standalone="no"?>
<!DOCTYPE svg PUBLIC "-//W3C//DTD SVG 20010904//EN"
 "http://www.w3.org/TR/2001/REC-SVG-20010904/DTD/svg10.dtd">
<svg version="1.0" xmlns="http://www.w3.org/2000/svg"
 width="96.000000pt" height="68.000000pt" viewBox="0 0 96.000000 68.000000"
 preserveAspectRatio="xMidYMid meet">
<metadata>
Created by potrace 1.16, written by Peter Selinger 2001-2019
</metadata>
<g transform="translate(0.000000,68.000000) scale(0.100000,-0.100000)"
fill="#000000" stroke="none">
<path d="M568 465 c-3 -3 5 -27 18 -53 13 -26 24 -50 24 -54 0 -4 -25 -12 -55
-18 -81 -17 -83 -34 -2 -26 l65 7 34 -67 c41 -84 136 -184 174 -184 20 0 24 4
20 18 -3 9 -10 41 -16 71 -6 30 -11 56 -13 57 -2 2 -9 -12 -16 -31 -7 -19 -19
-35 -26 -35 -18 0 -73 80 -96 140 l-18 48 62 7 c58 6 61 8 42 22 -14 10 -33
13 -67 8 -46 -5 -48 -5 -48 19 0 49 -17 76 -48 76 -16 0 -31 -2 -34 -5z"/>
</g>
</svg>
