<?xml version="1.0" standalone="no"?>
<!DOCTYPE svg PUBLIC "-//W3C//DTD SVG 20010904//EN"
 "http://www.w3.org/TR/2001/REC-SVG-20010904/DTD/svg10.dtd">
<svg version="1.0" xmlns="http://www.w3.org/2000/svg"
 width="96.000000pt" height="68.000000pt" viewBox="0 0 96.000000 68.000000"
 preserveAspectRatio="xMidYMid meet">
<metadata>
Created by potrace 1.16, written by Peter Selinger 2001-2019
</metadata>
<g transform="translate(0.000000,68.000000) scale(0.100000,-0.100000)"
fill="#000000" stroke="none">
<path d="M365 197 c7 -28 -2 -31 -129 -43 -49 -4 -75 -11 -73 -18 4 -13 67
-14 150 -2 l57 8 0 -66 c0 -36 4 -66 10 -66 11 0 30 64 30 106 0 27 4 32 31
38 17 3 46 6 65 6 18 0 35 4 38 9 10 15 -23 21 -79 15 -48 -6 -53 -5 -52 12 2
14 -6 20 -26 22 -25 3 -27 1 -22 -21z"/>
</g>
</svg>
