<?xml version="1.0" standalone="no"?>
<!DOCTYPE svg PUBLIC "-//W3C//DTD SVG 20010904//EN"
 "http://www.w3.org/TR/2001/REC-SVG-20010904/DTD/svg10.dtd">
<svg version="1.0" xmlns="http://www.w3.org/2000/svg"
 width="96.000000pt" height="68.000000pt" viewBox="0 0 96.000000 68.000000"
 preserveAspectRatio="xMidYMid meet">
<metadata>
Created by potrace 1.16, written by Peter Selinger 2001-2019
</metadata>
<g transform="translate(0.000000,68.000000) scale(0.100000,-0.100000)"
fill="#000000" stroke="none">
<path d="M775 240 c17 -7 17 -9 3 -9 -10 -1 -18 -5 -18 -10 0 -14 -105 -116
-134 -129 -14 -6 -26 -17 -26 -23 0 -8 7 -6 18 4 10 10 24 17 31 17 6 0 23 11
36 25 14 13 25 22 25 19 0 -7 35 18 76 55 28 26 33 35 23 47 -6 8 -21 14 -33
13 -20 0 -21 -1 -1 -9z"/>
<path d="M565 50 c-3 -6 1 -7 9 -4 18 7 21 14 7 14 -6 0 -13 -4 -16 -10z"/>
</g>
</svg>
