<?xml version="1.0" standalone="no"?>
<!DOCTYPE svg PUBLIC "-//W3C//DTD SVG 20010904//EN"
 "http://www.w3.org/TR/2001/REC-SVG-20010904/DTD/svg10.dtd">
<svg version="1.0" xmlns="http://www.w3.org/2000/svg"
 width="90.000000pt" height="92.000000pt" viewBox="0 0 90.000000 92.000000"
 preserveAspectRatio="xMidYMid meet">
<metadata>
Created by potrace 1.16, written by Peter Selinger 2001-2019
</metadata>
<g transform="translate(0.000000,92.000000) scale(0.100000,-0.100000)"
fill="#000000" stroke="none">
<path d="M214 836 c-3 -8 -1 -31 5 -53 6 -21 11 -70 11 -110 l0 -71 -72 -12
c-95 -15 -104 -18 -91 -31 7 -7 41 -10 87 -7 l76 3 0 -67 0 -67 -109 -53 c-60
-29 -110 -59 -110 -66 -1 -7 13 -21 31 -32 36 -21 23 -27 128 58 29 23 55 40
58 38 2 -3 1 -49 -3 -102 l-7 -96 -50 6 -51 7 59 -60 c33 -34 60 -61 62 -61 2
0 11 18 21 41 16 35 18 59 13 171 l-5 130 44 38 c51 44 48 61 -5 29 l-36 -21
0 61 c0 51 3 61 18 61 35 0 92 21 92 35 0 18 -34 28 -70 20 l-30 -7 0 50 c0
27 6 68 14 90 16 44 10 54 -41 81 -28 14 -32 14 -39 -3z"/>
<path d="M522 758 c-7 -29 -24 -86 -40 -126 -26 -71 -28 -73 -56 -68 -26 6
-28 4 -20 -17 5 -12 9 -102 9 -199 0 -131 3 -180 13 -190 10 -10 14 -9 18 9 5
18 16 22 67 28 34 3 78 8 98 11 34 5 36 3 54 -36 20 -44 30 -46 57 -9 16 21
18 49 21 221 l2 197 -28 16 c-25 15 -33 15 -90 1 -91 -22 -137 -29 -137 -21 0
4 8 19 19 33 10 15 37 58 60 97 l43 70 -22 17 c-39 32 -55 23 -68 -34z m152
-204 c12 -5 16 -21 16 -75 l0 -68 -28 5 c-15 3 -65 -2 -111 -10 -46 -9 -85
-16 -87 -16 -2 0 -4 31 -4 70 0 78 -6 72 95 89 65 11 100 12 119 5z m11 -281
c-6 -40 -7 -42 -30 -31 -18 8 -43 8 -94 0 -113 -19 -111 -20 -111 37 0 71 6
81 49 82 20 0 70 6 111 12 l75 12 3 -35 c2 -19 1 -54 -3 -77z"/>
</g>
</svg>
