<?xml version="1.0" standalone="no"?>
<!DOCTYPE svg PUBLIC "-//W3C//DTD SVG 20010904//EN"
 "http://www.w3.org/TR/2001/REC-SVG-20010904/DTD/svg10.dtd">
<svg version="1.0" xmlns="http://www.w3.org/2000/svg"
 width="96.000000pt" height="68.000000pt" viewBox="0 0 96.000000 68.000000"
 preserveAspectRatio="xMidYMid meet">
<metadata>
Created by potrace 1.16, written by Peter Selinger 2001-2019
</metadata>
<g transform="translate(0.000000,68.000000) scale(0.100000,-0.100000)"
fill="#000000" stroke="none">
<path d="M640 413 c-36 -7 -81 -13 -100 -11 l-35 3 0 -142 c0 -141 6 -172 28
-142 8 11 37 18 94 23 l82 6 16 -30 c18 -35 26 -37 47 -12 12 13 17 53 21 159
5 133 5 144 -13 153 -24 13 -60 11 -140 -7z m94 -19 c12 -4 16 -20 16 -54 l0
-48 -37 1 c-21 0 -68 -3 -105 -8 l-68 -8 0 29 c0 61 9 72 64 82 63 12 109 14
130 6z m16 -161 c0 -51 -8 -60 -55 -59 -22 0 -66 -3 -98 -7 l-58 -9 3 49 3 48
70 6 c145 12 135 14 135 -28z"/>
</g>
</svg>
