<?xml version="1.0" standalone="no"?>
<!DOCTYPE svg PUBLIC "-//W3C//DTD SVG 20010904//EN"
 "http://www.w3.org/TR/2001/REC-SVG-20010904/DTD/svg10.dtd">
<svg version="1.0" xmlns="http://www.w3.org/2000/svg"
 width="90.000000pt" height="92.000000pt" viewBox="0 0 90.000000 92.000000"
 preserveAspectRatio="xMidYMid meet">
<metadata>
Created by potrace 1.16, written by Peter Selinger 2001-2019
</metadata>
<g transform="translate(0.000000,92.000000) scale(0.100000,-0.100000)"
fill="#000000" stroke="none">
<path d="M362 859 c-7 -22 -24 -58 -39 -80 -22 -34 -30 -39 -52 -34 l-26 6 4
-138 c1 -76 7 -145 12 -154 7 -14 16 -15 46 -8 67 15 80 12 85 -20 4 -28 2
-30 -41 -36 -25 -4 -90 -10 -144 -14 -53 -3 -98 -10 -99 -16 -2 -5 10 -16 26
-23 23 -12 41 -11 114 2 48 9 102 16 120 16 l34 0 -4 -150 c-2 -113 0 -152 10
-162 11 -11 16 -10 28 6 11 15 14 55 14 168 l0 148 154 0 c85 0 157 4 160 9 7
11 -22 37 -52 46 -13 3 -53 2 -90 -4 -37 -5 -91 -13 -120 -16 -52 -6 -53 -6
-46 20 5 19 2 27 -12 32 -13 6 0 10 41 14 47 5 63 3 73 -10 11 -14 14 -13 29
2 14 14 17 34 15 115 -2 54 2 112 8 128 10 26 9 31 -17 52 -30 25 -33 25 -183
-2 -41 -8 -76 -13 -77 -12 -1 1 24 28 55 60 l57 58 -24 19 c-34 28 -45 24 -59
-22z m178 -153 c0 -21 -4 -24 -37 -23 -21 0 -76 -6 -123 -15 -47 -9 -87 -15
-89 -13 -2 2 -1 15 3 28 5 21 14 26 68 34 35 6 89 11 121 12 54 1 57 0 57 -23z
m10 -80 c0 -34 -1 -34 -37 -29 -21 3 -76 -2 -122 -11 -106 -20 -101 -21 -101
13 0 23 4 28 18 25 13 -3 224 28 240 35 1 0 2 -14 2 -33z m0 -73 c0 -10 -4
-23 -8 -29 -7 -11 -151 -34 -214 -34 -33 0 -38 3 -38 23 0 21 7 24 108 38 149
22 152 22 152 2z"/>
<path d="M230 248 c-14 -22 -55 -66 -92 -96 -38 -31 -68 -57 -68 -58 0 -5 78
20 104 33 39 20 136 112 136 129 0 13 -30 34 -47 34 -4 0 -19 -19 -33 -42z"/>
<path d="M581 253 c20 -21 52 -59 73 -85 20 -25 48 -54 62 -63 23 -15 25 -15
32 6 20 54 -16 102 -110 150 -82 41 -101 38 -57 -8z"/>
</g>
</svg>
