<?xml version="1.0" standalone="no"?>
<!DOCTYPE svg PUBLIC "-//W3C//DTD SVG 20010904//EN"
 "http://www.w3.org/TR/2001/REC-SVG-20010904/DTD/svg10.dtd">
<svg version="1.0" xmlns="http://www.w3.org/2000/svg"
 width="96.000000pt" height="68.000000pt" viewBox="0 0 96.000000 68.000000"
 preserveAspectRatio="xMidYMid meet">
<metadata>
Created by potrace 1.16, written by Peter Selinger 2001-2019
</metadata>
<g transform="translate(0.000000,68.000000) scale(0.100000,-0.100000)"
fill="#000000" stroke="none">
<path d="M545 563 c-28 -8 -72 -12 -102 -9 l-51 4 0 -91 c0 -132 -42 -231
-134 -311 -50 -44 -37 -47 26 -5 57 38 87 76 121 153 30 68 16 74 126 -59 109
-131 101 -126 210 -123 52 2 94 7 94 11 0 4 -26 18 -57 31 -105 43 -173 83
-254 152 -45 38 -80 70 -79 72 1 2 46 6 100 10 l98 7 2 32 c1 18 12 48 24 68
27 46 27 61 -1 69 -33 8 -66 6 -123 -11z m64 -70 c-10 -50 -21 -63 -55 -63
-12 0 -42 -3 -68 -6 l-46 -7 0 34 c0 71 5 76 83 86 40 5 77 7 83 5 8 -2 9 -17
3 -49z"/>
<path d="M217 504 c-42 -10 -69 -12 -93 -5 -38 11 -41 5 -20 -37 7 -15 17 -49
20 -77 11 -77 17 -95 31 -95 8 0 17 9 20 20 5 15 15 20 39 20 19 0 47 3 63 6
25 5 30 11 31 35 0 17 11 50 22 75 12 25 21 46 19 48 -13 11 -50 26 -61 25 -7
-1 -39 -8 -71 -15z m45 -75 c-5 -53 -9 -58 -55 -66 l-35 -5 -7 46 c-4 26 -5
50 -1 53 7 7 77 21 91 18 6 -1 8 -22 7 -46z"/>
</g>
</svg>
