<?xml version="1.0" standalone="no"?>
<!DOCTYPE svg PUBLIC "-//W3C//DTD SVG 20010904//EN"
 "http://www.w3.org/TR/2001/REC-SVG-20010904/DTD/svg10.dtd">
<svg version="1.0" xmlns="http://www.w3.org/2000/svg"
 width="96.000000pt" height="68.000000pt" viewBox="0 0 96.000000 68.000000"
 preserveAspectRatio="xMidYMid meet">
<metadata>
Created by potrace 1.16, written by Peter Selinger 2001-2019
</metadata>
<g transform="translate(0.000000,68.000000) scale(0.100000,-0.100000)"
fill="#000000" stroke="none">
<path d="M255 224 c-25 -10 -54 -13 -80 -9 l-39 6 21 -23 c12 -13 25 -36 29
-53 12 -50 17 -53 88 -36 43 10 62 19 59 27 -2 7 3 29 13 49 9 19 15 38 12 40
-13 13 -68 13 -103 -1z m40 -46 c-8 -37 -20 -48 -51 -48 -14 0 -24 8 -28 23
-10 38 -7 46 22 50 64 10 64 10 57 -25z"/>
</g>
</svg>
