<?xml version="1.0" standalone="no"?>
<!DOCTYPE svg PUBLIC "-//W3C//DTD SVG 20010904//EN"
 "http://www.w3.org/TR/2001/REC-SVG-20010904/DTD/svg10.dtd">
<svg version="1.0" xmlns="http://www.w3.org/2000/svg"
 width="90.000000pt" height="92.000000pt" viewBox="0 0 90.000000 92.000000"
 preserveAspectRatio="xMidYMid meet">
<metadata>
Created by potrace 1.16, written by Peter Selinger 2001-2019
</metadata>
<g transform="translate(0.000000,92.000000) scale(0.100000,-0.100000)"
fill="#000000" stroke="none">
<path d="M616 840 c-42 -13 -327 -40 -430 -41 -85 -2 -87 -2 -80 -23 13 -35
16 -424 4 -537 -9 -82 -9 -111 1 -132 16 -34 39 -35 39 -1 0 14 4 23 8 20 4
-2 109 1 232 9 124 7 228 11 232 9 4 -3 17 -25 29 -49 26 -53 43 -56 64 -14
14 26 16 76 15 347 -1 174 0 330 2 347 3 25 -3 32 -37 52 -22 12 -42 22 -45
22 -3 0 -18 -5 -34 -9z m39 -72 c12 -40 19 -598 7 -598 -6 0 -23 5 -37 12 -24
11 -137 6 -404 -18 l-64 -6 5 171 c3 95 8 174 11 177 3 3 14 1 25 -5 13 -7 45
-6 107 4 49 8 142 18 207 21 65 4 121 11 124 15 2 5 -6 15 -20 24 -22 15 -33
15 -115 2 -50 -8 -91 -11 -91 -8 1 30 15 51 35 51 33 0 56 10 49 21 -3 6 6 25
20 44 14 18 26 36 26 39 0 3 -13 12 -29 20 -26 14 -38 14 -106 1 -42 -8 -92
-15 -111 -15 -33 0 -42 -9 -26 -24 4 -4 14 -28 22 -54 9 -26 20 -46 25 -45 58
9 60 8 63 -19 4 -30 1 -31 -135 -46 l-73 -8 0 112 0 113 33 6 c82 16 261 33
348 34 92 1 97 0 104 -21z m-195 -65 c-1 -36 -15 -53 -49 -58 -20 -3 -48 -8
-63 -10 -25 -4 -28 -2 -28 25 0 25 5 31 33 39 40 11 107 14 107 4z"/>
<path d="M455 483 c-27 -8 -89 -15 -138 -16 -73 -2 -86 -4 -81 -17 15 -37 22
-70 28 -141 8 -79 20 -113 34 -92 4 7 50 16 102 22 84 8 97 8 108 -7 20 -26
37 1 65 103 14 50 28 98 32 107 5 13 -2 23 -27 38 -38 23 -53 23 -123 3z m71
-88 c-11 -111 -15 -122 -39 -118 -12 2 -58 0 -102 -6 -44 -5 -80 -9 -81 -8 -1
1 -5 41 -9 88 l-7 86 93 10 c52 5 107 10 123 11 l29 2 -7 -65z"/>
<path d="M405 410 c-11 -5 -35 -9 -54 -9 -25 -1 -31 -4 -24 -13 6 -7 13 -30
17 -51 6 -29 11 -37 24 -33 9 3 34 8 54 12 21 3 35 10 32 15 -3 5 2 24 10 41
13 25 14 33 4 40 -16 10 -37 9 -63 -2z m25 -33 c0 -20 -22 -37 -47 -37 -28 0
-32 36 -5 43 34 9 52 7 52 -6z"/>
</g>
</svg>
