<?xml version="1.0" standalone="no"?>
<!DOCTYPE svg PUBLIC "-//W3C//DTD SVG 20010904//EN"
 "http://www.w3.org/TR/2001/REC-SVG-20010904/DTD/svg10.dtd">
<svg version="1.0" xmlns="http://www.w3.org/2000/svg"
 width="96.000000pt" height="68.000000pt" viewBox="0 0 96.000000 68.000000"
 preserveAspectRatio="xMidYMid meet">
<metadata>
Created by potrace 1.16, written by Peter Selinger 2001-2019
</metadata>
<g transform="translate(0.000000,68.000000) scale(0.100000,-0.100000)"
fill="#000000" stroke="none">
<path d="M620 580 c-46 -10 -406 -34 -417 -27 -4 3 -6 -74 -5 -172 2 -100 -1
-202 -7 -235 -8 -45 -8 -65 2 -84 16 -33 37 -40 44 -13 5 19 13 21 73 21 37 0
127 3 201 6 l135 7 19 -29 c10 -15 18 -34 18 -40 0 -18 37 -3 54 22 13 21 15
57 12 237 -2 116 0 227 4 245 8 31 7 33 -35 52 -47 21 -48 22 -98 10z m54 -62
c9 -34 20 -351 13 -379 -6 -23 -9 -24 -104 -24 -54 0 -151 -4 -215 -8 l-118
-9 0 189 c0 103 3 198 6 209 5 20 16 22 132 31 70 6 161 11 203 11 72 2 77 1
83 -20z"/>
<path d="M398 496 l-66 -11 19 -37 c16 -31 25 -38 49 -38 23 0 30 -4 30 -20 0
-15 -7 -20 -27 -21 -16 -1 -32 -2 -38 -4 -5 -1 -32 -3 -59 -3 -38 -2 -47 -5
-39 -13 16 -16 395 9 390 25 -3 7 -38 10 -101 8 -53 -1 -96 1 -96 5 1 19 17
31 45 35 17 1 30 8 30 14 0 6 8 19 18 28 10 10 16 23 14 30 -5 15 -87 16 -169
2z m108 -17 c12 -19 -20 -37 -69 -40 -45 -3 -66 8 -67 33 0 15 126 22 136 7z"/>
<path d="M465 320 c-16 -4 -58 -8 -92 -9 -35 0 -63 -3 -63 -5 0 -2 6 -31 14
-63 8 -32 17 -71 21 -86 4 -21 9 -26 18 -19 20 16 166 26 182 12 21 -18 38 -1
54 57 8 26 20 60 28 75 12 25 11 28 -6 38 -22 11 -111 12 -156 0z m98 -23 c4
-12 -9 -106 -16 -113 -1 -1 -43 -5 -93 -9 l-91 -7 -7 57 c-6 54 -2 80 12 71 4
-2 36 0 72 4 101 11 117 11 123 -3z"/>
<path d="M428 273 c-41 -4 -46 -6 -38 -21 4 -9 11 -25 14 -35 5 -16 12 -18 49
-12 51 9 45 5 53 43 6 27 4 32 -12 30 -11 -1 -40 -3 -66 -5z m52 -28 c0 -8 -3
-15 -7 -15 -5 0 -18 -3 -30 -6 -17 -5 -23 -2 -23 9 0 14 16 23 48 26 6 0 12
-6 12 -14z"/>
</g>
</svg>
