<?xml version="1.0" standalone="no"?>
<!DOCTYPE svg PUBLIC "-//W3C//DTD SVG 20010904//EN"
 "http://www.w3.org/TR/2001/REC-SVG-20010904/DTD/svg10.dtd">
<svg version="1.0" xmlns="http://www.w3.org/2000/svg"
 width="96.000000pt" height="68.000000pt" viewBox="0 0 96.000000 68.000000"
 preserveAspectRatio="xMidYMid meet">
<metadata>
Created by potrace 1.16, written by Peter Selinger 2001-2019
</metadata>
<g transform="translate(0.000000,68.000000) scale(0.100000,-0.100000)"
fill="#000000" stroke="none">
<path d="M270 438 c-19 -5 -60 -8 -91 -6 l-56 4 17 -30 c10 -17 23 -61 30 -97
15 -83 25 -101 44 -76 9 12 28 17 62 18 43 0 109 17 76 18 -16 1 -11 21 26
104 21 49 23 60 11 68 -18 11 -74 10 -119 -3z m46 -80 c-3 -34 -10 -66 -15
-71 -5 -5 -26 -11 -48 -14 l-40 -5 -12 62 c-7 34 -9 66 -4 70 8 9 47 16 97 19
l29 1 -7 -62z"/>
</g>
</svg>
