<?xml version="1.0" standalone="no"?>
<!DOCTYPE svg PUBLIC "-//W3C//DTD SVG 20010904//EN"
 "http://www.w3.org/TR/2001/REC-SVG-20010904/DTD/svg10.dtd">
<svg version="1.0" xmlns="http://www.w3.org/2000/svg"
 width="96.000000pt" height="68.000000pt" viewBox="0 0 96.000000 68.000000"
 preserveAspectRatio="xMidYMid meet">
<metadata>
Created by potrace 1.16, written by Peter Selinger 2001-2019
</metadata>
<g transform="translate(0.000000,68.000000) scale(0.100000,-0.100000)"
fill="#000000" stroke="none">
<path d="M575 570 c-27 -5 -72 -9 -100 -9 l-50 -1 1 -145 c0 -80 4 -148 7
-152 4 -3 31 -1 59 5 29 6 88 14 131 18 42 3 77 11 77 17 0 11 -181 4 -213 -9
-16 -6 -17 2 -15 112 l3 118 40 8 c22 5 77 12 123 16 45 4 83 12 85 17 3 13
-82 15 -148 5z"/>
</g>
</svg>
