<?xml version="1.0" standalone="no"?>
<!DOCTYPE svg PUBLIC "-//W3C//DTD SVG 20010904//EN"
 "http://www.w3.org/TR/2001/REC-SVG-20010904/DTD/svg10.dtd">
<svg version="1.0" xmlns="http://www.w3.org/2000/svg"
 width="96.000000pt" height="68.000000pt" viewBox="0 0 96.000000 68.000000"
 preserveAspectRatio="xMidYMid meet">
<metadata>
Created by potrace 1.16, written by Peter Selinger 2001-2019
</metadata>
<g transform="translate(0.000000,68.000000) scale(0.100000,-0.100000)"
fill="#000000" stroke="none">
<path d="M405 598 c4 -13 9 -53 12 -89 l5 -65 -102 -3 c-63 -1 -106 2 -115 9
-10 9 -18 -1 -39 -46 -30 -64 -32 -84 -12 -84 15 0 47 40 59 71 4 13 35 19
166 29 89 7 161 15 161 19 0 3 36 7 80 8 73 2 80 0 80 -18 0 -10 -4 -19 -10
-19 -5 0 -10 -5 -10 -11 0 -10 54 -6 103 7 27 8 20 28 -18 48 -29 16 -47 18
-122 12 -48 -4 -105 -10 -126 -13 l-38 -6 2 75 c1 41 -1 80 -5 87 -4 6 -23 11
-43 11 -32 0 -35 -2 -28 -22z"/>
<path d="M580 578 c-1 -7 -14 -29 -31 -48 -22 -26 -26 -36 -15 -38 17 -4 136
55 136 67 0 9 -53 31 -76 31 -8 0 -14 -6 -14 -12z"/>
<path d="M260 543 c1 -25 64 -75 84 -67 23 9 20 40 -6 58 -23 16 -78 22 -78 9z"/>
<path d="M475 380 c-27 -5 -83 -9 -124 -9 -63 -1 -72 -3 -58 -14 10 -7 24 -32
31 -57 13 -43 15 -45 52 -45 36 0 39 -3 42 -29 4 -35 -10 -46 -65 -46 -64 0
-52 -19 15 -22 56 -3 57 -3 57 -33 l0 -30 -90 -3 c-49 -2 -106 -7 -125 -11
l-35 -8 30 -12 c17 -7 46 -10 65 -7 19 4 132 9 250 12 118 4 219 10 224 14 21
20 -41 32 -152 29 -106 -4 -115 -3 -118 15 -5 31 7 46 36 46 42 0 90 11 90 21
0 5 -27 9 -60 9 -56 0 -60 2 -60 23 0 13 -5 28 -12 35 -9 9 -1 12 39 12 41 0
53 4 57 18 4 10 16 29 28 42 l22 23 -23 18 c-25 20 -36 21 -116 9z m55 -49 c0
-35 -9 -39 -101 -47 -68 -7 -68 -7 -79 21 -6 16 -7 32 -3 36 10 10 53 16 126
18 57 1 57 1 57 -28z"/>
</g>
</svg>
