<?xml version="1.0" standalone="no"?>
<!DOCTYPE svg PUBLIC "-//W3C//DTD SVG 20010904//EN"
 "http://www.w3.org/TR/2001/REC-SVG-20010904/DTD/svg10.dtd">
<svg version="1.0" xmlns="http://www.w3.org/2000/svg"
 width="96.000000pt" height="68.000000pt" viewBox="0 0 96.000000 68.000000"
 preserveAspectRatio="xMidYMid meet">
<metadata>
Created by potrace 1.16, written by Peter Selinger 2001-2019
</metadata>
<g transform="translate(0.000000,68.000000) scale(0.100000,-0.100000)"
fill="#000000" stroke="none">
<path d="M438 193 c6 -2 12 -10 12 -18 0 -9 -37 -14 -145 -20 -80 -4 -145 -11
-145 -16 0 -17 75 -22 166 -10 132 16 124 18 124 -35 0 -46 0 -46 -30 -40
l-30 6 22 -31 c16 -22 29 -29 48 -27 24 3 25 7 28 71 l3 67 32 1 c18 0 43 2
57 3 14 1 67 3 118 4 94 2 115 12 62 30 -21 8 -64 8 -144 0 -103 -11 -115 -10
-131 5 -9 9 -26 17 -38 16 -12 0 -16 -3 -9 -6z"/>
</g>
</svg>
