<?xml version="1.0" standalone="no"?>
<!DOCTYPE svg PUBLIC "-//W3C//DTD SVG 20010904//EN"
 "http://www.w3.org/TR/2001/REC-SVG-20010904/DTD/svg10.dtd">
<svg version="1.0" xmlns="http://www.w3.org/2000/svg"
 width="96.000000pt" height="68.000000pt" viewBox="0 0 96.000000 68.000000"
 preserveAspectRatio="xMidYMid meet">
<metadata>
Created by potrace 1.16, written by Peter Selinger 2001-2019
</metadata>
<g transform="translate(0.000000,68.000000) scale(0.100000,-0.100000)"
fill="#000000" stroke="none">
<path d="M264 563 c1 -36 -1 -38 -31 -41 -42 -4 -43 -22 -2 -22 30 0 31 -2 26
-30 -6 -25 -3 -30 13 -30 14 0 21 9 26 34 4 25 12 36 30 40 35 9 47 -2 40 -35
-11 -57 38 -27 72 43 8 16 -50 28 -85 19 -34 -10 -35 -9 -28 16 7 29 -6 43
-41 43 -18 0 -21 -6 -20 -37z"/>
</g>
</svg>
