<?xml version="1.0" standalone="no"?>
<!DOCTYPE svg PUBLIC "-//W3C//DTD SVG 20010904//EN"
 "http://www.w3.org/TR/2001/REC-SVG-20010904/DTD/svg10.dtd">
<svg version="1.0" xmlns="http://www.w3.org/2000/svg"
 width="96.000000pt" height="68.000000pt" viewBox="0 0 96.000000 68.000000"
 preserveAspectRatio="xMidYMid meet">
<metadata>
Created by potrace 1.16, written by Peter Selinger 2001-2019
</metadata>
<g transform="translate(0.000000,68.000000) scale(0.100000,-0.100000)"
fill="#000000" stroke="none">
<path d="M580 477 c0 -31 6 -49 19 -61 22 -20 88 -32 125 -22 43 11 29 26 -22
26 -63 0 -87 17 -79 58 4 22 2 32 -9 36 -29 11 -34 6 -34 -37z"/>
<path d="M480 481 c0 -27 -27 -72 -60 -98 -13 -11 -13 -12 3 -13 20 0 93 72
103 102 4 13 1 24 -7 29 -26 16 -39 9 -39 -20z"/>
</g>
</svg>
