<?xml version="1.0" standalone="no"?>
<!DOCTYPE svg PUBLIC "-//W3C//DTD SVG 20010904//EN"
 "http://www.w3.org/TR/2001/REC-SVG-20010904/DTD/svg10.dtd">
<svg version="1.0" xmlns="http://www.w3.org/2000/svg"
 width="96.000000pt" height="68.000000pt" viewBox="0 0 96.000000 68.000000"
 preserveAspectRatio="xMidYMid meet">
<metadata>
Created by potrace 1.16, written by Peter Selinger 2001-2019
</metadata>
<g transform="translate(0.000000,68.000000) scale(0.100000,-0.100000)"
fill="#000000" stroke="none">
<path d="M732 331 c4 -25 1 -31 -14 -32 -10 -1 -23 -2 -30 -3 -7 -1 -15 10
-18 23 -9 38 -27 35 -33 -5 -7 -44 -1 -58 22 -49 9 4 28 11 44 15 25 8 27 7
27 -22 0 -20 -4 -29 -13 -25 -7 2 -75 -2 -152 -9 -93 -9 -142 -11 -149 -4 -15
15 3 28 44 32 33 3 35 6 38 41 2 28 0 37 -12 37 -11 0 -16 -9 -16 -29 0 -22
-5 -30 -24 -33 -21 -4 -25 -1 -28 21 -2 17 -10 27 -23 29 -19 3 -20 -3 -21
-88 -2 -74 -6 -100 -26 -140 -31 -62 -17 -66 20 -6 18 30 35 45 53 48 40 6 44
1 41 -47 -3 -27 0 -45 6 -45 12 0 17 15 27 73 6 40 7 40 -57 37 -21 -1 -38 3
-38 8 0 19 12 42 20 37 4 -2 70 2 146 9 76 7 145 11 152 8 6 -2 12 -13 12 -23
0 -14 -7 -19 -27 -19 -63 0 -71 -8 -65 -58 6 -66 19 -72 27 -14 6 46 9 50 36
54 l29 5 0 -69 c0 -53 3 -68 14 -68 8 0 17 3 19 8 3 4 7 79 8 167 l4 160 -24
3 c-21 3 -23 1 -19 -27z"/>
</g>
</svg>
