<?xml version="1.0" standalone="no"?>
<!DOCTYPE svg PUBLIC "-//W3C//DTD SVG 20010904//EN"
 "http://www.w3.org/TR/2001/REC-SVG-20010904/DTD/svg10.dtd">
<svg version="1.0" xmlns="http://www.w3.org/2000/svg"
 width="96.000000pt" height="68.000000pt" viewBox="0 0 96.000000 68.000000"
 preserveAspectRatio="xMidYMid meet">
<metadata>
Created by potrace 1.16, written by Peter Selinger 2001-2019
</metadata>
<g transform="translate(0.000000,68.000000) scale(0.100000,-0.100000)"
fill="#000000" stroke="none">
<path d="M416 633 c4 -10 10 -48 12 -84 l4 -66 -62 -6 c-34 -4 -73 -4 -86 -1
-29 7 -30 0 -6 -24 11 -11 25 -47 33 -81 15 -69 31 -90 53 -72 8 7 29 11 47 9
27 -2 33 -8 36 -29 4 -30 9 -29 -224 -45 -51 -3 -93 -10 -93 -15 0 -16 67 -21
144 -10 43 6 100 11 127 11 l49 0 0 -94 c0 -53 4 -98 10 -101 21 -13 35 63 35
196 0 0 72 3 159 5 88 3 162 7 164 9 2 2 -3 11 -12 20 -14 15 -34 16 -159 10
l-142 -7 -1 25 c-1 20 4 26 27 31 16 3 41 3 56 0 26 -5 31 0 66 58 21 35 45
73 53 85 15 21 14 23 -15 37 -31 17 -113 15 -171 -4 -23 -7 -26 -5 -28 21 -1
16 1 29 5 29 42 3 155 19 160 23 3 3 2 11 -2 18 -8 12 -102 7 -138 -7 -14 -5
-17 0 -17 29 0 38 -12 47 -62 47 -25 0 -29 -3 -22 -17z m219 -180 c-3 -16 -15
-46 -25 -69 -20 -47 -41 -54 -172 -54 -69 0 -77 2 -83 21 -4 11 -5 22 -3 23 1
1 57 8 123 15 149 16 184 37 45 27 -52 -4 -113 -10 -135 -13 -37 -5 -42 -3
-53 21 -6 14 -11 26 -9 27 6 3 246 26 281 27 37 2 38 1 31 -25z"/>
</g>
</svg>
