<?xml version="1.0" standalone="no"?>
<!DOCTYPE svg PUBLIC "-//W3C//DTD SVG 20010904//EN"
 "http://www.w3.org/TR/2001/REC-SVG-20010904/DTD/svg10.dtd">
<svg version="1.0" xmlns="http://www.w3.org/2000/svg"
 width="96.000000pt" height="68.000000pt" viewBox="0 0 96.000000 68.000000"
 preserveAspectRatio="xMidYMid meet">
<metadata>
Created by potrace 1.16, written by Peter Selinger 2001-2019
</metadata>
<g transform="translate(0.000000,68.000000) scale(0.100000,-0.100000)"
fill="#000000" stroke="none">
<path d="M286 561 c6 -39 6 -40 -27 -45 -19 -3 -47 -7 -63 -8 -16 -2 -31 -9
-34 -15 -3 -10 14 -13 62 -13 50 0 66 -3 66 -14 0 -9 -15 -17 -40 -21 -22 -4
-40 -12 -40 -17 0 -13 161 -5 199 10 32 11 11 26 -36 24 -23 -1 -33 3 -33 13
0 10 16 16 49 21 27 3 55 10 62 15 25 16 -12 30 -62 23 -46 -5 -46 -5 -41 21
5 30 -9 45 -46 45 -20 0 -22 -3 -16 -39z"/>
<path d="M601 544 c-20 -8 -47 -12 -62 -9 -26 6 -27 6 -22 -39 6 -48 -13 -146
-28 -146 -5 0 -9 -4 -9 -9 0 -17 41 1 56 24 8 13 18 52 22 87 l7 63 38 3 37 3
0 -70 c0 -63 2 -72 24 -86 35 -23 129 -17 134 8 3 17 -2 19 -55 15 l-58 -3 -3
39 c-2 21 4 56 12 77 16 39 16 40 -10 49 -33 13 -42 12 -83 -6z"/>
<path d="M286 392 c-82 -12 -100 -12 -107 -1 -4 7 -10 11 -13 8 -12 -12 -44
-94 -40 -101 11 -17 31 -6 46 25 15 32 16 32 127 48 108 15 137 11 112 -14
-22 -22 -10 -25 32 -9 56 21 55 20 27 42 -29 22 -48 23 -184 2z"/>
<path d="M255 331 c-16 -3 -25 -9 -19 -13 14 -9 124 3 124 13 0 10 -60 10
-105 0z"/>
<path d="M635 310 c-11 -4 -50 -11 -87 -15 -38 -4 -68 -10 -68 -12 0 -3 23
-30 50 -60 28 -30 50 -59 50 -64 0 -13 -73 -64 -112 -79 -69 -25 -75 -31 -28
-25 25 3 73 19 108 37 l62 31 42 -41 c44 -44 72 -51 147 -36 38 8 40 20 4 29
-48 11 -163 68 -162 79 0 6 14 31 30 56 37 59 53 89 48 94 -11 10 -66 14 -84
6z m7 -26 c7 -7 -20 -92 -32 -99 -8 -5 -80 63 -80 76 0 3 21 10 48 16 26 6 50
11 53 12 3 0 8 -2 11 -5z"/>
<path d="M325 291 c-6 -5 -37 -19 -70 -31 -53 -18 -55 -20 -19 -15 36 5 42 4
47 -14 5 -21 6 -20 -115 -37 -27 -3 -48 -10 -48 -14 0 -13 51 -18 84 -9 17 5
40 9 50 9 18 0 18 -2 -5 -26 -13 -14 -49 -39 -81 -57 -31 -17 -55 -33 -53 -35
7 -7 80 21 115 44 48 33 56 31 52 -18 -1 -24 2 -49 7 -57 17 -26 31 0 31 60 0
65 7 71 47 39 32 -25 56 -26 51 -3 -2 11 -21 24 -50 33 -27 8 -46 20 -45 25 2
6 31 14 65 18 82 11 83 32 2 24 -49 -6 -60 -4 -60 8 0 8 0 18 0 23 -1 4 13 9
30 12 17 3 32 10 33 15 3 13 -55 19 -68 6z"/>
</g>
</svg>
