<?xml version="1.0" standalone="no"?>
<!DOCTYPE svg PUBLIC "-//W3C//DTD SVG 20010904//EN"
 "http://www.w3.org/TR/2001/REC-SVG-20010904/DTD/svg10.dtd">
<svg version="1.0" xmlns="http://www.w3.org/2000/svg"
 width="96.000000pt" height="68.000000pt" viewBox="0 0 96.000000 68.000000"
 preserveAspectRatio="xMidYMid meet">
<metadata>
Created by potrace 1.16, written by Peter Selinger 2001-2019
</metadata>
<g transform="translate(0.000000,68.000000) scale(0.100000,-0.100000)"
fill="#000000" stroke="none">
<path d="M275 540 c-8 -46 -62 -133 -129 -207 -58 -64 -40 -70 34 -12 42 34
56 39 81 34 22 -5 29 -12 29 -30 0 -19 -6 -23 -50 -29 -27 -4 -50 -11 -50 -16
0 -6 23 -10 50 -10 l50 0 0 -54 0 -53 -37 -7 c-21 -3 -57 -6 -80 -6 -43 0 -49
-5 -35 -27 21 -33 56 -32 182 10 69 22 127 42 129 44 3 2 0 8 -5 13 -6 6 -26
4 -55 -4 l-46 -14 1 51 1 51 48 14 c55 15 53 32 -4 32 -35 0 -39 3 -39 25 0
20 5 25 24 25 29 0 43 17 27 33 -7 7 -29 6 -78 -6 -37 -9 -69 -15 -71 -13 -3
3 51 90 69 110 5 5 23 -2 43 -17 40 -31 52 -33 60 -12 10 26 -5 44 -45 56 -21
7 -36 15 -34 20 8 11 -24 39 -45 39 -13 0 -20 -10 -25 -40z"/>
<path d="M570 573 c0 -4 9 -19 20 -33 11 -14 20 -28 20 -32 0 -3 -34 -9 -75
-13 -74 -7 -105 -25 -42 -25 28 0 34 -5 50 -40 9 -22 17 -45 17 -50 0 -6 -22
-10 -49 -10 -48 0 -76 -15 -49 -25 10 -4 12 -24 8 -83 -8 -118 -6 -175 6 -179
16 -6 24 46 24 162 l0 103 31 6 c52 10 66 7 72 -16 4 -12 5 -24 3 -26 -5 -4
-35 -10 -59 -11 -10 -1 -16 -5 -13 -10 3 -4 17 -6 32 -3 29 5 44 -10 37 -39
-4 -14 -14 -19 -39 -19 -40 0 -39 2 -18 -51 14 -33 20 -40 38 -35 12 3 44 6
72 6 50 0 51 1 62 37 6 20 9 40 6 45 -3 4 -25 8 -50 8 -49 0 -48 -1 -35 32 7
19 17 24 47 26 57 4 68 22 13 22 -37 0 -46 4 -55 24 -11 23 -10 24 55 29 36 3
70 2 74 -2 4 -4 6 -68 5 -142 l-3 -134 -35 3 -35 4 30 -32 c35 -36 65 -36 81
0 7 14 14 91 16 172 l4 147 -26 11 c-18 8 -40 8 -70 1 -25 -5 -46 -8 -48 -6
-3 2 5 16 17 32 15 18 20 35 16 50 -5 21 -2 23 35 23 22 0 40 4 40 9 0 15 -43
20 -90 11 -61 -12 -60 -12 -60 9 0 10 -7 25 -16 32 -18 15 -64 24 -64 12z
m107 -128 c-6 -55 -5 -54 -51 -62 -33 -5 -36 -4 -36 19 0 14 -9 33 -20 43 -35
32 -30 35 89 43 22 2 23 0 18 -43z m-3 -247 c-3 -13 -7 -24 -8 -24 0 -1 -21
-4 -46 -5 -37 -3 -45 -1 -48 15 -5 25 14 36 66 36 40 0 43 -2 36 -22z"/>
<path d="M376 234 c-9 -20 -15 -39 -12 -41 6 -6 63 24 71 37 8 13 -12 40 -29
40 -7 0 -20 -16 -30 -36z"/>
<path d="M190 234 c0 -17 44 -64 61 -64 27 0 25 35 -3 54 -22 16 -58 22 -58
10z"/>
</g>
</svg>
