<?xml version="1.0" standalone="no"?>
<!DOCTYPE svg PUBLIC "-//W3C//DTD SVG 20010904//EN"
 "http://www.w3.org/TR/2001/REC-SVG-20010904/DTD/svg10.dtd">
<svg version="1.0" xmlns="http://www.w3.org/2000/svg"
 width="90.000000pt" height="92.000000pt" viewBox="0 0 90.000000 92.000000"
 preserveAspectRatio="xMidYMid meet">
<metadata>
Created by potrace 1.16, written by Peter Selinger 2001-2019
</metadata>
<g transform="translate(0.000000,92.000000) scale(0.100000,-0.100000)"
fill="#000000" stroke="none">
<path d="M237 873 c-4 -3 -7 -15 -7 -25 0 -22 -46 -116 -85 -172 -14 -21 -24
-40 -22 -43 8 -7 72 53 98 92 17 25 31 35 51 35 15 0 57 7 95 16 37 9 101 21
142 28 80 12 99 28 54 43 -22 8 -53 3 -143 -23 -63 -18 -123 -33 -134 -33 -17
-1 -17 0 -2 24 9 13 16 31 16 39 0 21 -47 35 -63 19z"/>
<path d="M365 727 c-124 -27 -124 -27 -97 -40 18 -8 46 -7 115 7 119 23 131
26 121 36 -19 17 -53 16 -139 -3z"/>
<path d="M535 669 c-36 -11 -277 -55 -352 -64 -59 -8 -66 -17 -25 -34 22 -9
55 -5 176 19 82 16 165 30 186 30 l37 0 6 -152 c8 -223 41 -315 139 -380 32
-22 53 -28 93 -28 72 0 80 12 61 92 -9 34 -19 77 -22 93 -6 26 -9 21 -19 -38
-13 -74 -26 -90 -65 -81 -117 27 -186 311 -116 478 21 50 21 51 -9 64 -30 14
-48 14 -90 1z"/>
<path d="M368 524 c-15 -30 -23 -54 -19 -54 11 0 87 56 97 71 7 12 -21 40 -40
38 -6 0 -23 -25 -38 -55z"/>
<path d="M210 533 c0 -3 11 -21 26 -40 30 -40 54 -43 54 -7 0 19 -8 28 -35 40
-39 16 -45 17 -45 7z"/>
<path d="M423 469 c-12 -4 -70 -15 -130 -24 -154 -24 -158 -24 -146 -36 6 -6
38 -9 72 -7 58 3 62 1 68 -20 3 -13 3 -25 1 -28 -3 -2 -31 -8 -64 -12 -75 -9
-71 -27 6 -27 58 0 60 -1 60 -26 0 -26 -1 -26 -120 -39 -66 -6 -120 -16 -120
-20 0 -4 13 -12 28 -18 26 -9 66 -6 180 13 l32 6 0 -93 c0 -154 25 -154 40 0
4 45 10 86 14 90 4 4 52 9 106 12 54 3 102 9 107 14 4 4 -1 14 -12 23 -16 12
-37 14 -97 9 -43 -4 -84 -9 -93 -12 -11 -5 -15 1 -15 24 0 29 2 30 60 36 33 4
60 11 60 16 0 15 -46 23 -85 16 -30 -6 -34 -4 -28 10 3 9 0 20 -8 24 -9 6 -6
10 12 14 99 20 129 29 129 37 0 15 -35 27 -57 18z"/>
</g>
</svg>
