<?xml version="1.0" standalone="no"?>
<!DOCTYPE svg PUBLIC "-//W3C//DTD SVG 20010904//EN"
 "http://www.w3.org/TR/2001/REC-SVG-20010904/DTD/svg10.dtd">
<svg version="1.0" xmlns="http://www.w3.org/2000/svg"
 width="96.000000pt" height="68.000000pt" viewBox="0 0 96.000000 68.000000"
 preserveAspectRatio="xMidYMid meet">
<metadata>
Created by potrace 1.16, written by Peter Selinger 2001-2019
</metadata>
<g transform="translate(0.000000,68.000000) scale(0.100000,-0.100000)"
fill="#000000" stroke="none">
<path d="M480 251 l0 -31 -62 -1 c-35 0 -85 -4 -113 -8 -49 -7 -49 -8 -22 -19
20 -9 48 -9 108 -1 44 6 83 9 85 6 3 -3 7 -32 8 -64 5 -105 6 -113 15 -113 10
0 18 47 24 135 l4 50 146 3 c81 1 147 7 147 11 0 22 -66 31 -150 21 -132 -15
-147 -14 -146 13 1 16 -5 23 -21 25 -20 3 -23 -1 -23 -27z"/>
</g>
</svg>
