<?xml version="1.0" standalone="no"?>
<!DOCTYPE svg PUBLIC "-//W3C//DTD SVG 20010904//EN"
 "http://www.w3.org/TR/2001/REC-SVG-20010904/DTD/svg10.dtd">
<svg version="1.0" xmlns="http://www.w3.org/2000/svg"
 width="96.000000pt" height="68.000000pt" viewBox="0 0 96.000000 68.000000"
 preserveAspectRatio="xMidYMid meet">
<metadata>
Created by potrace 1.16, written by Peter Selinger 2001-2019
</metadata>
<g transform="translate(0.000000,68.000000) scale(0.100000,-0.100000)"
fill="#000000" stroke="none">
<path d="M550 599 c0 -34 -19 -59 -45 -59 -13 0 -27 -4 -30 -10 -4 -6 7 -10
25 -10 28 0 31 -3 24 -22 -6 -22 -5 -21 23 5 25 23 37 27 90 27 34 0 65 4 68
10 8 13 -39 24 -81 17 -35 -6 -40 -2 -24 23 11 18 -5 40 -31 40 -13 0 -19 -7
-19 -21z"/>
<path d="M290 595 c0 -4 7 -19 15 -34 l14 -29 -37 -6 c-20 -3 -50 -6 -67 -6
-28 0 -28 -1 -12 -17 14 -15 24 -16 69 -6 29 6 54 7 56 3 1 -4 9 -16 17 -26
13 -18 14 -17 15 14 0 26 4 32 23 32 12 0 29 5 37 10 11 7 6 10 -22 10 -29 0
-38 5 -44 23 -4 12 -12 25 -18 29 -13 9 -46 10 -46 3z"/>
</g>
</svg>
