<?xml version="1.0" standalone="no"?>
<!DOCTYPE svg PUBLIC "-//W3C//DTD SVG 20010904//EN"
 "http://www.w3.org/TR/2001/REC-SVG-20010904/DTD/svg10.dtd">
<svg version="1.0" xmlns="http://www.w3.org/2000/svg"
 width="96.000000pt" height="68.000000pt" viewBox="0 0 96.000000 68.000000"
 preserveAspectRatio="xMidYMid meet">
<metadata>
Created by potrace 1.16, written by Peter Selinger 2001-2019
</metadata>
<g transform="translate(0.000000,68.000000) scale(0.100000,-0.100000)"
fill="#000000" stroke="none">
<path d="M257 528 c4 -24 8 -65 8 -93 l0 -50 -57 -10 c-79 -14 -83 -25 -9 -25
l61 0 -21 -42 c-12 -24 -50 -71 -84 -105 -35 -35 -61 -63 -57 -63 18 0 96 56
127 92 l36 43 -7 -90 c-9 -113 -9 -134 5 -148 23 -23 32 12 38 137 l6 127 22
-21 c26 -24 35 -25 35 -5 0 9 -13 24 -30 33 -39 22 -39 51 0 59 39 7 38 20 -1
28 l-31 7 7 73 c6 67 5 74 -14 84 -36 20 -42 14 -34 -31z"/>
</g>
</svg>
