<?xml version="1.0" standalone="no"?>
<!DOCTYPE svg PUBLIC "-//W3C//DTD SVG 20010904//EN"
 "http://www.w3.org/TR/2001/REC-SVG-20010904/DTD/svg10.dtd">
<svg version="1.0" xmlns="http://www.w3.org/2000/svg"
 width="96.000000pt" height="68.000000pt" viewBox="0 0 96.000000 68.000000"
 preserveAspectRatio="xMidYMid meet">
<metadata>
Created by potrace 1.16, written by Peter Selinger 2001-2019
</metadata>
<g transform="translate(0.000000,68.000000) scale(0.100000,-0.100000)"
fill="#000000" stroke="none">
<path d="M237 500 c-60 -10 -111 -21 -114 -24 -3 -3 6 -8 20 -11 24 -6 25 -8
32 -145 5 -113 9 -138 21 -133 9 3 14 21 14 54 0 47 1 49 28 49 37 0 72 11 72
22 0 5 -22 6 -50 2 l-50 -7 0 30 c0 29 3 31 50 37 28 4 50 12 50 18 0 7 -16 8
-47 4 l-48 -6 0 39 c0 45 -1 44 130 57 71 6 83 10 73 19 -14 14 -82 12 -181
-5z"/>
</g>
</svg>
