<?xml version="1.0" standalone="no"?>
<!DOCTYPE svg PUBLIC "-//W3C//DTD SVG 20010904//EN"
 "http://www.w3.org/TR/2001/REC-SVG-20010904/DTD/svg10.dtd">
<svg version="1.0" xmlns="http://www.w3.org/2000/svg"
 width="96.000000pt" height="68.000000pt" viewBox="0 0 96.000000 68.000000"
 preserveAspectRatio="xMidYMid meet">
<metadata>
Created by potrace 1.16, written by Peter Selinger 2001-2019
</metadata>
<g transform="translate(0.000000,68.000000) scale(0.100000,-0.100000)"
fill="#000000" stroke="none">
<path d="M557 583 c-4 -3 -7 -13 -7 -20 0 -8 -14 -35 -31 -59 -27 -39 -35 -45
-62 -42 -24 2 -31 -1 -28 -12 2 -8 7 -63 10 -122 6 -110 12 -128 33 -111 21
17 217 26 235 11 30 -24 41 13 39 133 -2 144 2 142 -178 110 -27 -4 -48 -5
-48 -2 0 3 21 26 46 52 26 26 43 52 40 58 -8 12 -39 15 -49 4z m137 -160 c8
-53 8 -151 -1 -156 -5 -3 -54 -8 -110 -12 l-103 -8 0 96 0 96 48 6 c26 4 52 8
57 10 6 2 31 4 56 4 46 1 46 1 53 -36z"/>
<path d="M563 410 c-3 -11 -12 -20 -20 -20 -9 0 -13 -6 -10 -14 3 -8 -1 -20
-9 -27 -8 -6 -12 -14 -9 -17 3 -3 13 2 24 12 16 14 20 15 30 2 16 -19 8 -32
-33 -57 -41 -25 -27 -24 29 2 44 21 46 21 65 4 19 -17 20 -17 27 1 4 10 2 19
-5 22 -19 6 -14 40 8 52 30 16 14 32 -29 28 -29 -2 -35 1 -33 15 4 24 -29 22
-35 -3z m62 -40 c-8 -13 -35 -13 -55 0 -11 7 -5 10 23 10 23 0 36 -4 32 -10z"/>
<path d="M218 501 c-105 -17 -125 -26 -84 -37 34 -8 37 -25 34 -168 l-3 -119
-32 -11 c-45 -16 -50 -24 -19 -36 24 -9 38 -4 112 36 46 25 84 42 85 37 1 -4
0 -42 -1 -84 -1 -78 9 -104 33 -80 8 8 11 68 9 194 -1 100 1 198 6 217 7 30
12 35 40 38 34 3 42 16 16 26 -25 9 -91 5 -196 -13z m93 -36 c5 -61 6 -60 -44
-65 l-47 -6 0 37 c0 35 2 38 33 42 17 2 38 5 45 5 6 1 13 -5 13 -13z m3 -112
c-6 -33 0 -29 -51 -37 -42 -6 -43 -6 -43 23 0 28 3 30 43 34 23 2 45 4 49 5 4
1 4 -10 2 -25z m2 -97 c1 -23 -5 -31 -32 -42 -54 -23 -64 -19 -64 25 0 43 10
50 65 48 25 -2 29 -6 31 -31z"/>
<path d="M566 169 c27 -30 54 -43 66 -31 15 15 -27 52 -59 52 -26 0 -26 0 -7
-21z"/>
<path d="M725 183 c30 -28 86 -63 98 -63 25 0 28 29 4 44 -25 16 -118 33 -102
19z"/>
<path d="M460 175 c0 -19 44 -86 69 -108 53 -45 167 -57 245 -27 39 14 31 35
-24 64 -60 31 -64 32 -50 6 17 -31 4 -40 -57 -40 -74 0 -118 22 -140 71 -10
21 -24 39 -30 39 -7 0 -13 -2 -13 -5z"/>
<path d="M395 121 c-10 -23 -15 -48 -11 -58 7 -17 9 -16 27 6 19 23 27 91 11
91 -5 0 -17 -18 -27 -39z"/>
</g>
</svg>
