<?xml version="1.0" standalone="no"?>
<!DOCTYPE svg PUBLIC "-//W3C//DTD SVG 20010904//EN"
 "http://www.w3.org/TR/2001/REC-SVG-20010904/DTD/svg10.dtd">
<svg version="1.0" xmlns="http://www.w3.org/2000/svg"
 width="96.000000pt" height="68.000000pt" viewBox="0 0 96.000000 68.000000"
 preserveAspectRatio="xMidYMid meet">
<metadata>
Created by potrace 1.16, written by Peter Selinger 2001-2019
</metadata>
<g transform="translate(0.000000,68.000000) scale(0.100000,-0.100000)"
fill="#000000" stroke="none">
<path d="M350 565 c-12 -25 -46 -67 -76 -92 -30 -26 -52 -49 -49 -51 2 -2 26
8 52 23 26 15 66 28 88 29 22 1 82 8 133 16 79 12 95 12 102 0 11 -18 2 -76
-19 -120 -13 -28 -23 -36 -49 -38 l-32 -3 17 -30 c35 -59 92 -26 119 71 18 65
29 99 38 121 14 32 -44 40 -162 24 -58 -8 -117 -15 -131 -15 -25 0 -24 1 14
40 38 39 38 40 19 55 -30 23 -41 18 -64 -30z"/>
</g>
</svg>
