<?xml version="1.0" standalone="no"?>
<!DOCTYPE svg PUBLIC "-//W3C//DTD SVG 20010904//EN"
 "http://www.w3.org/TR/2001/REC-SVG-20010904/DTD/svg10.dtd">
<svg version="1.0" xmlns="http://www.w3.org/2000/svg"
 width="90.000000pt" height="92.000000pt" viewBox="0 0 90.000000 92.000000"
 preserveAspectRatio="xMidYMid meet">
<metadata>
Created by potrace 1.16, written by Peter Selinger 2001-2019
</metadata>
<g transform="translate(0.000000,92.000000) scale(0.100000,-0.100000)"
fill="#000000" stroke="none">
<path d="M628 855 c-26 -7 -102 -21 -170 -30 -68 -10 -125 -20 -128 -22 -12
-11 32 -23 88 -23 67 0 73 -6 50 -56 -11 -24 -16 -26 -56 -20 l-44 6 7 -28 c4
-15 11 -77 14 -139 4 -69 11 -117 19 -125 9 -9 12 -9 12 0 0 7 7 12 16 12 18
0 13 -24 -18 -76 -23 -39 -25 -40 -58 -14 -52 41 -70 13 -20 -29 l31 -26 -53
-56 c-29 -30 -71 -69 -93 -87 -24 -19 -34 -31 -24 -32 22 0 95 50 152 104 26
25 50 46 53 46 13 0 93 -66 90 -75 -3 -14 -93 -62 -143 -77 -24 -7 -43 -16
-43 -21 0 -19 140 20 198 55 l32 20 68 -49 67 -48 85 0 c47 1 94 6 104 12 17
9 10 14 -55 33 -86 25 -229 79 -229 86 0 3 8 17 19 32 46 67 81 124 81 133 0
22 -50 33 -98 22 -113 -27 -109 -27 -89 -5 16 18 16 20 1 33 -15 12 -14 14 3
20 30 12 138 10 151 -3 22 -22 34 6 54 129 28 163 29 155 -14 176 -36 18 -39
18 -104 -2 -85 -27 -90 -26 -65 5 12 15 21 32 21 40 0 7 12 15 28 18 15 2 57
10 95 16 67 12 87 24 71 40 -17 16 -59 18 -106 5z m22 -186 c0 -25 -3 -29 -19
-24 -11 3 -59 -1 -107 -10 -92 -18 -103 -15 -104 28 0 13 9 17 38 18 20 0 55
4 77 8 22 5 57 9 78 10 35 1 37 -1 37 -30z m-2 -76 c-2 -23 -8 -28 -33 -29
-37 -1 -144 -14 -167 -20 -14 -4 -18 1 -18 25 0 20 4 29 13 26 6 -2 53 2 102
9 50 8 94 14 98 15 5 1 7 -11 5 -26z m-8 -90 l0 -28 -81 -2 c-45 -1 -92 -4
-105 -7 -21 -6 -24 -3 -24 23 0 30 0 30 68 34 37 2 84 4 105 5 34 2 37 0 37
-25z m-50 -180 c0 -9 -12 -36 -26 -60 l-25 -44 -37 21 c-69 39 -75 46 -62 70
8 15 18 20 33 17 12 -2 33 -1 47 3 44 14 70 11 70 -7z"/>
<path d="M190 643 c-19 -9 -59 -16 -87 -16 -53 0 -62 -4 -43 -23 5 -5 16 -49
23 -97 8 -49 20 -94 26 -100 8 -8 11 -8 11 0 0 6 21 14 48 17 112 16 107 13
108 60 1 23 11 64 23 91 l22 50 -22 17 c-26 22 -62 22 -109 1z m43 -100 c-3
-38 -6 -69 -7 -70 -1 0 -22 -4 -48 -8 l-46 -7 -7 44 c-13 88 0 104 82 107 l32
1 -6 -67z"/>
</g>
</svg>
