<?xml version="1.0" standalone="no"?>
<!DOCTYPE svg PUBLIC "-//W3C//DTD SVG 20010904//EN"
 "http://www.w3.org/TR/2001/REC-SVG-20010904/DTD/svg10.dtd">
<svg version="1.0" xmlns="http://www.w3.org/2000/svg"
 width="90.000000pt" height="92.000000pt" viewBox="0 0 90.000000 92.000000"
 preserveAspectRatio="xMidYMid meet">
<metadata>
Created by potrace 1.16, written by Peter Selinger 2001-2019
</metadata>
<g transform="translate(0.000000,92.000000) scale(0.100000,-0.100000)"
fill="#000000" stroke="none">
<path d="M405 818 c4 -13 10 -65 12 -117 5 -102 2 -111 -50 -111 -39 0 -30
-24 12 -30 l32 -5 -35 -70 c-20 -38 -46 -83 -59 -100 -24 -28 -25 -29 -50 -12
-38 25 -49 22 -35 -9 10 -21 9 -27 -3 -35 -25 -16 -37 -10 -40 24 -8 72 -2 85
47 93 34 5 44 10 40 21 -6 15 26 87 44 98 19 12 10 35 -21 54 -25 15 -38 17
-71 9 -22 -5 -42 -7 -43 -6 -4 5 12 111 20 130 7 19 -38 48 -75 48 -21 0 -27
-19 -11 -36 5 -5 11 -41 14 -80 l6 -72 -37 -6 c-20 -3 -48 -3 -61 1 -22 6 -23
4 -17 -18 5 -13 13 -46 18 -74 16 -78 29 -108 41 -96 6 6 21 11 34 11 22 0 23
-4 23 -69 0 -68 0 -69 -31 -80 -18 -6 -49 -11 -70 -11 -48 0 -50 -14 -7 -48
15 -12 31 -6 120 38 92 46 104 50 113 35 23 -39 33 -48 43 -41 14 8 16 55 3
75 -6 9 3 24 32 50 22 20 49 50 59 66 l20 30 -6 -80 c-4 -44 -11 -112 -17
-151 -10 -61 -9 -75 6 -104 14 -28 19 -30 31 -19 18 19 23 58 23 218 l1 134
32 -44 c31 -42 31 -43 42 -20 13 29 0 51 -42 70 -28 13 -32 20 -32 53 0 31 4
38 19 38 11 0 32 5 48 11 27 10 28 11 8 25 -12 9 -31 13 -48 10 -24 -5 -27 -3
-23 17 3 12 8 57 11 99 l7 77 -31 15 c-42 22 -55 21 -46 -6z m-158 -245 c-3
-10 -8 -34 -11 -54 -9 -53 -42 -60 -50 -10 -12 74 -9 81 30 81 29 0 34 -3 31
-17z m-107 -53 c0 -57 -1 -60 -24 -60 -22 0 -24 5 -28 53 -4 53 3 67 35 67 14
0 17 -9 17 -60z"/>
<path d="M693 734 c-57 -61 -64 -65 -100 -62 -30 2 -37 0 -33 -12 3 -8 5 -71
4 -140 -1 -109 -4 -133 -27 -192 -14 -36 -33 -78 -43 -93 -26 -39 -9 -42 27
-4 44 47 76 120 91 206 12 71 13 73 45 79 19 4 37 3 41 -1 4 -3 9 -108 12
-231 3 -136 9 -225 15 -227 19 -4 33 98 34 239 1 78 6 155 12 173 10 28 9 34
-7 46 -17 13 -13 14 38 15 66 0 80 12 43 36 -23 15 -34 16 -98 5 -40 -7 -82
-15 -94 -18 -20 -5 -23 -1 -23 28 0 67 7 75 101 118 49 23 89 46 89 51 0 15
-38 50 -52 50 -7 -1 -41 -30 -75 -66z"/>
</g>
</svg>
