<?xml version="1.0" standalone="no"?>
<!DOCTYPE svg PUBLIC "-//W3C//DTD SVG 20010904//EN"
 "http://www.w3.org/TR/2001/REC-SVG-20010904/DTD/svg10.dtd">
<svg version="1.0" xmlns="http://www.w3.org/2000/svg"
 width="96.000000pt" height="68.000000pt" viewBox="0 0 96.000000 68.000000"
 preserveAspectRatio="xMidYMid meet">
<metadata>
Created by potrace 1.16, written by Peter Selinger 2001-2019
</metadata>
<g transform="translate(0.000000,68.000000) scale(0.100000,-0.100000)"
fill="#000000" stroke="none">
<path d="M325 440 c-16 -4 -47 -8 -67 -9 -46 -1 -51 -21 -7 -21 l31 0 -18 -27
c-9 -15 -27 -35 -38 -45 -34 -28 -6 -21 50 14 29 17 55 40 57 50 3 11 14 18
29 18 37 0 54 16 26 23 -12 4 -25 6 -28 6 -3 -1 -18 -5 -35 -9z"/>
</g>
</svg>
