<?xml version="1.0" standalone="no"?>
<!DOCTYPE svg PUBLIC "-//W3C//DTD SVG 20010904//EN"
 "http://www.w3.org/TR/2001/REC-SVG-20010904/DTD/svg10.dtd">
<svg version="1.0" xmlns="http://www.w3.org/2000/svg"
 width="96.000000pt" height="68.000000pt" viewBox="0 0 96.000000 68.000000"
 preserveAspectRatio="xMidYMid meet">
<metadata>
Created by potrace 1.16, written by Peter Selinger 2001-2019
</metadata>
<g transform="translate(0.000000,68.000000) scale(0.100000,-0.100000)"
fill="#000000" stroke="none">
<path d="M675 569 c-16 -5 -73 -12 -125 -16 l-95 -6 0 -131 0 -131 40 2 c22 1
96 5 164 9 l124 7 -6 -69 c-3 -39 -11 -82 -18 -97 -14 -32 -48 -44 -78 -27
-29 15 -27 -2 5 -39 32 -39 53 -39 88 -2 22 23 32 50 46 118 10 48 21 95 25
104 9 25 -37 39 -129 39 l-83 0 5 25 c3 19 11 25 31 25 38 0 72 11 65 21 -3 5
-25 9 -50 9 -37 0 -44 3 -44 20 0 16 7 20 33 21 17 0 41 4 51 8 29 11 3 23
-42 19 -35 -3 -37 -2 -37 29 0 30 2 32 47 38 27 4 50 11 54 16 3 5 1 9 -5 9
-5 0 -15 2 -23 4 -7 2 -26 0 -43 -5z m-83 -69 c5 -36 5 -37 -47 -41 -37 -4
-40 -2 -41 21 -1 42 6 50 46 50 34 0 38 -3 42 -30z m8 -79 c0 -22 -19 -31 -66
-31 -29 0 -34 3 -34 23 0 22 5 24 50 26 43 1 50 -1 50 -18z m0 -75 c0 -20 -6
-25 -45 -30 -51 -8 -65 -3 -65 23 0 27 9 31 62 31 44 0 48 -2 48 -24z"/>
<path d="M327 520 c-15 -5 -57 -12 -92 -15 -36 -4 -65 -11 -65 -15 0 -11 27
-20 61 -20 27 0 30 -3 23 -22 -15 -50 -46 -100 -105 -167 -51 -59 -57 -70 -34
-61 14 5 41 21 59 35 18 14 35 25 38 25 3 0 11 -20 17 -45 10 -40 14 -44 31
-35 10 5 42 10 70 10 33 0 49 4 45 10 -4 6 3 29 14 51 12 22 21 44 21 50 0 19
-46 27 -88 16 -51 -13 -56 -29 -7 -21 38 6 40 2 29 -55 -6 -28 -10 -31 -44
-31 -36 0 -38 2 -45 37 -4 24 -3 39 4 41 6 2 11 8 11 13 0 6 -4 7 -10 4 -19
-12 -9 10 30 69 30 45 37 63 28 73 -8 10 -6 13 8 13 35 0 97 21 88 30 -15 14
-57 19 -87 10z"/>
<path d="M650 255 c0 -3 13 -20 29 -37 19 -20 35 -29 45 -25 19 8 20 16 3 38
-12 16 -77 36 -77 24z"/>
<path d="M560 230 c0 -15 50 -61 61 -55 14 10 11 30 -9 48 -20 18 -52 23 -52
7z"/>
<path d="M480 222 c0 -19 26 -62 38 -62 17 0 10 49 -9 61 -18 11 -29 11 -29 1z"/>
<path d="M396 186 c-20 -42 -21 -66 -2 -66 25 0 51 56 39 86 -8 22 -20 16 -37
-20z"/>
</g>
</svg>
