<?xml version="1.0" standalone="no"?>
<!DOCTYPE svg PUBLIC "-//W3C//DTD SVG 20010904//EN"
 "http://www.w3.org/TR/2001/REC-SVG-20010904/DTD/svg10.dtd">
<svg version="1.0" xmlns="http://www.w3.org/2000/svg"
 width="90.000000pt" height="92.000000pt" viewBox="0 0 90.000000 92.000000"
 preserveAspectRatio="xMidYMid meet">
<metadata>
Created by potrace 1.16, written by Peter Selinger 2001-2019
</metadata>
<g transform="translate(0.000000,92.000000) scale(0.100000,-0.100000)"
fill="#000000" stroke="none">
<path d="M216 795 c-12 -77 -105 -246 -188 -341 -17 -19 -29 -37 -26 -39 9 -9
97 65 132 111 l35 46 7 -28 c9 -37 -2 -268 -17 -329 -9 -42 -9 -56 4 -88 17
-40 31 -47 42 -19 5 9 11 114 15 232 7 201 6 217 -11 239 -19 24 -19 25 4 65
78 134 81 145 63 165 -10 10 -26 21 -36 24 -15 4 -19 -3 -24 -38z"/>
<path d="M730 659 c-48 -15 -354 -50 -387 -44 -38 7 -37 9 -19 -58 8 -29 20
-119 26 -201 6 -82 16 -158 21 -168 11 -20 29 -16 29 6 0 9 30 15 107 19 175
11 167 13 188 -33 10 -22 21 -40 25 -40 5 0 21 15 38 34 34 39 47 102 57 261
3 55 10 117 16 138 12 45 8 52 -39 76 -26 13 -45 16 -62 10z m-3 -45 c26 -7
38 -62 28 -124 -6 -36 -9 -40 -28 -34 -25 9 -101 7 -130 -2 -19 -6 -20 -3 -15
66 5 60 3 73 -11 78 -9 4 16 10 54 13 39 3 72 6 75 7 3 1 15 -1 27 -4z m-217
-33 c5 -11 10 -46 10 -79 l0 -59 -62 -7 c-34 -3 -63 -5 -64 -3 -2 2 -6 35 -10
74 l-7 71 54 10 c30 5 57 10 61 11 4 0 12 -8 18 -18z m237 -225 c-9 -97 -13
-109 -40 -95 -12 7 -43 9 -80 5 l-60 -6 7 46 c3 26 6 60 6 75 0 27 3 29 43 30
33 0 96 9 126 18 2 0 1 -32 -2 -73z m-219 -33 l3 -73 -65 0 -66 0 0 33 c0 17
-3 49 -6 69 l-6 37 48 4 c92 7 88 11 92 -70z"/>
</g>
</svg>
