<?xml version="1.0" standalone="no"?>
<!DOCTYPE svg PUBLIC "-//W3C//DTD SVG 20010904//EN"
 "http://www.w3.org/TR/2001/REC-SVG-20010904/DTD/svg10.dtd">
<svg version="1.0" xmlns="http://www.w3.org/2000/svg"
 width="96.000000pt" height="68.000000pt" viewBox="0 0 96.000000 68.000000"
 preserveAspectRatio="xMidYMid meet">
<metadata>
Created by potrace 1.16, written by Peter Selinger 2001-2019
</metadata>
<g transform="translate(0.000000,68.000000) scale(0.100000,-0.100000)"
fill="#000000" stroke="none">
<path d="M619 596 c-9 -9 -307 -37 -359 -34 -45 2 -54 0 -51 -12 11 -43 12
-164 2 -227 -13 -85 -38 -147 -92 -225 -45 -67 -33 -76 29 -23 75 65 131 219
132 365 0 36 4 70 8 77 6 10 95 23 268 38 l72 7 -1 -174 c-1 -195 6 -229 69
-305 41 -50 80 -73 125 -73 28 0 31 2 24 23 -4 12 -12 43 -18 69 -16 62 -23
67 -31 18 -8 -51 -35 -54 -69 -7 -68 89 -77 265 -23 434 6 18 1 25 -23 37 -29
16 -54 20 -62 12z"/>
<path d="M413 502 c-93 -16 -123 -32 -58 -32 19 0 35 -4 35 -8 0 -18 -42 -53
-58 -47 -15 4 -18 -5 -19 -78 -1 -45 -3 -95 -5 -112 -4 -35 -4 -34 155 -20
l87 8 0 -54 c-1 -69 -18 -94 -60 -86 -36 8 -38 -2 -6 -32 47 -44 88 -7 113
103 13 58 13 70 2 78 -8 5 -66 7 -136 3 -106 -5 -123 -3 -123 10 0 12 13 15
63 15 34 0 72 3 85 6 32 9 27 27 -5 20 -16 -2 -54 -8 -85 -11 -54 -6 -58 -5
-58 14 0 19 7 21 58 23 31 1 70 1 85 0 23 -2 30 3 38 28 6 16 14 30 19 30 4 0
10 8 14 18 3 9 8 22 12 29 10 21 -58 35 -115 22 -57 -12 -75 -7 -42 11 12 6
21 17 21 24 0 16 22 26 58 26 37 0 72 11 72 21 0 12 -34 9 -147 -9z m84 -128
c-3 -19 -7 -37 -9 -39 -6 -6 -138 -22 -143 -17 -18 18 2 30 61 35 37 4 69 9
72 12 13 13 -9 14 -61 4 -61 -11 -79 -7 -71 16 5 13 35 19 122 23 33 2 34 1
29 -34z"/>
<path d="M480 173 c0 -5 7 -17 15 -27 11 -15 18 -17 27 -8 8 8 8 15 -2 27 -13
15 -40 21 -40 8z"/>
<path d="M253 143 c-17 -35 -16 -63 0 -63 15 0 36 57 29 78 -6 19 -16 14 -29
-15z"/>
<path d="M326 162 c-7 -12 23 -54 34 -47 5 3 4 16 -2 30 -12 26 -23 31 -32 17z"/>
<path d="M400 165 c0 -14 21 -45 31 -45 18 0 5 45 -13 48 -10 2 -18 1 -18 -3z"/>
</g>
</svg>
