<?xml version="1.0" standalone="no"?>
<!DOCTYPE svg PUBLIC "-//W3C//DTD SVG 20010904//EN"
 "http://www.w3.org/TR/2001/REC-SVG-20010904/DTD/svg10.dtd">
<svg version="1.0" xmlns="http://www.w3.org/2000/svg"
 width="96.000000pt" height="68.000000pt" viewBox="0 0 96.000000 68.000000"
 preserveAspectRatio="xMidYMid meet">
<metadata>
Created by potrace 1.16, written by Peter Selinger 2001-2019
</metadata>
<g transform="translate(0.000000,68.000000) scale(0.100000,-0.100000)"
fill="#000000" stroke="none">
<path d="M665 348 c-44 -6 -117 -11 -163 -12 l-83 -1 6 -25 c4 -14 9 -64 12
-112 4 -66 8 -88 19 -88 11 0 14 21 14 99 l0 98 38 7 c20 3 88 9 150 13 l112
6 -1 -84 c-2 -135 -8 -144 -84 -125 l-30 7 40 -40 c21 -23 44 -41 50 -41 30 0
57 49 66 121 6 41 14 92 19 114 15 68 -21 82 -165 63z"/>
</g>
</svg>
