<?xml version="1.0" standalone="no"?>
<!DOCTYPE svg PUBLIC "-//W3C//DTD SVG 20010904//EN"
 "http://www.w3.org/TR/2001/REC-SVG-20010904/DTD/svg10.dtd">
<svg version="1.0" xmlns="http://www.w3.org/2000/svg"
 width="96.000000pt" height="68.000000pt" viewBox="0 0 96.000000 68.000000"
 preserveAspectRatio="xMidYMid meet">
<metadata>
Created by potrace 1.16, written by Peter Selinger 2001-2019
</metadata>
<g transform="translate(0.000000,68.000000) scale(0.100000,-0.100000)"
fill="#000000" stroke="none">
<path d="M574 414 c14 -53 -4 -133 -40 -180 -19 -24 -34 -46 -34 -49 0 -13 61
28 76 50 l16 25 43 -30 c47 -32 75 -38 75 -16 0 19 -19 33 -55 41 -56 12 -56
12 -45 41 6 15 12 50 15 78 4 52 -3 66 -39 66 -15 0 -17 -5 -12 -26z"/>
</g>
</svg>
