<?xml version="1.0" standalone="no"?>
<!DOCTYPE svg PUBLIC "-//W3C//DTD SVG 20010904//EN"
 "http://www.w3.org/TR/2001/REC-SVG-20010904/DTD/svg10.dtd">
<svg version="1.0" xmlns="http://www.w3.org/2000/svg"
 width="96.000000pt" height="68.000000pt" viewBox="0 0 96.000000 68.000000"
 preserveAspectRatio="xMidYMid meet">
<metadata>
Created by potrace 1.16, written by Peter Selinger 2001-2019
</metadata>
<g transform="translate(0.000000,68.000000) scale(0.100000,-0.100000)"
fill="#000000" stroke="none">
<path d="M620 617 c0 -9 -16 -37 -36 -62 -19 -26 -34 -48 -32 -50 2 -2 36 18
76 45 76 50 79 60 19 75 -21 6 -27 4 -27 -8z"/>
<path d="M234 546 c43 -39 70 -46 80 -19 10 26 -17 45 -70 50 l-49 4 39 -35z"/>
<path d="M391 558 c27 -51 89 -78 89 -39 0 25 -46 61 -77 61 -21 0 -23 -2 -12
-22z"/>
<path d="M619 490 c-14 -4 -72 -13 -130 -20 -115 -14 -161 -34 -66 -28 l57 3
6 -33 c4 -18 4 -35 2 -38 -3 -2 -28 -7 -56 -11 -30 -3 -49 -10 -45 -16 3 -5
27 -7 54 -4 l49 6 0 -33 c0 -32 -2 -34 -46 -40 -26 -3 -73 -6 -105 -6 -33 0
-59 -4 -59 -9 0 -16 86 -24 140 -12 28 6 55 11 60 11 6 0 10 -46 10 -107 0
-60 4 -114 9 -121 17 -28 31 18 38 126 l6 110 126 1 c69 1 127 4 129 6 2 2 1
9 -3 16 -6 8 -40 10 -132 4 l-124 -7 3 33 c3 32 5 34 63 45 44 8 55 13 42 19
-10 4 -36 5 -57 2 -37 -5 -40 -3 -40 18 0 13 -8 29 -17 34 -15 9 -13 10 13 11
44 0 144 21 144 30 0 12 -42 17 -71 10z"/>
<path d="M130 452 c0 -14 32 -44 65 -62 22 -12 28 -11 42 3 16 16 16 18 -3 38
-23 23 -104 39 -104 21z"/>
<path d="M266 340 c-15 -23 -52 -66 -82 -96 l-55 -55 18 -31 c10 -17 23 -33
30 -35 10 -4 133 228 133 250 0 18 -20 3 -44 -33z"/>
</g>
</svg>
