<?xml version="1.0" standalone="no"?>
<!DOCTYPE svg PUBLIC "-//W3C//DTD SVG 20010904//EN"
 "http://www.w3.org/TR/2001/REC-SVG-20010904/DTD/svg10.dtd">
<svg version="1.0" xmlns="http://www.w3.org/2000/svg"
 width="96.000000pt" height="68.000000pt" viewBox="0 0 96.000000 68.000000"
 preserveAspectRatio="xMidYMid meet">
<metadata>
Created by potrace 1.16, written by Peter Selinger 2001-2019
</metadata>
<g transform="translate(0.000000,68.000000) scale(0.100000,-0.100000)"
fill="#000000" stroke="none">
<path d="M480 499 c6 -10 10 -33 10 -52 0 -30 3 -34 20 -30 11 3 20 14 20 24
0 16 8 19 43 19 52 0 87 9 87 23 0 9 -58 5 -107 -9 -17 -5 -22 -1 -25 17 -2
17 -10 23 -30 24 -23 2 -26 -1 -18 -16z"/>
</g>
</svg>
