<?xml version="1.0" standalone="no"?>
<!DOCTYPE svg PUBLIC "-//W3C//DTD SVG 20010904//EN"
 "http://www.w3.org/TR/2001/REC-SVG-20010904/DTD/svg10.dtd">
<svg version="1.0" xmlns="http://www.w3.org/2000/svg"
 width="90.000000pt" height="92.000000pt" viewBox="0 0 90.000000 92.000000"
 preserveAspectRatio="xMidYMid meet">
<metadata>
Created by potrace 1.16, written by Peter Selinger 2001-2019
</metadata>
<g transform="translate(0.000000,92.000000) scale(0.100000,-0.100000)"
fill="#000000" stroke="none">
<path d="M384 856 c-3 -8 -1 -31 5 -53 6 -21 11 -73 11 -115 l0 -76 -50 -9
c-67 -11 -68 -27 -2 -31 l52 -3 0 -68 0 -67 -83 -47 c-46 -26 -89 -47 -95 -47
-7 0 -12 -4 -12 -9 0 -12 49 -51 64 -51 7 0 34 22 61 50 27 28 52 50 56 50 9
0 -2 -139 -13 -169 -7 -20 -13 -22 -44 -17 l-35 7 43 -55 c24 -30 48 -55 53
-55 6 -1 18 12 28 28 14 24 17 55 17 167 l0 138 37 38 c37 38 35 52 -3 23 -31
-23 -35 -18 -32 42 3 56 4 57 38 66 19 4 41 15 49 22 12 12 11 16 -11 26 -19
8 -31 8 -47 0 -20 -11 -21 -10 -21 49 0 33 6 76 14 95 13 30 13 35 -2 49 -29
26 -72 38 -78 22z"/>
<path d="M648 793 c0 -4 -2 -12 -3 -18 -6 -41 -19 -97 -36 -151 l-20 -65 -35
7 c-34 6 -47 -7 -23 -22 9 -5 10 -55 6 -178 -5 -165 1 -215 24 -201 5 4 9 15
9 26 0 15 7 19 34 19 18 0 54 3 79 6 45 6 45 6 66 -35 18 -35 24 -40 40 -32
37 20 45 63 32 174 -6 56 -9 111 -7 122 3 11 7 43 10 72 5 50 4 52 -29 72 -34
20 -34 20 -89 0 -88 -31 -92 -28 -55 39 80 142 75 130 59 146 -19 17 -59 30
-62 19z m99 -241 c6 -4 13 -33 15 -64 l4 -57 -28 6 c-24 5 -76 -4 -140 -23
-16 -5 -18 2 -18 55 l0 60 38 10 c76 20 113 23 129 13z m13 -227 l0 -85 -24
11 c-16 8 -46 8 -95 2 -60 -8 -71 -7 -66 5 3 7 5 40 5 73 0 43 3 57 13 54 7
-3 42 1 77 9 36 8 71 14 78 15 9 1 12 -22 12 -84z"/>
<path d="M162 609 c-24 -11 -65 -21 -92 -21 -28 -1 -50 -3 -50 -5 0 -2 6 -16
14 -31 7 -15 18 -62 25 -106 13 -90 19 -105 35 -84 7 9 36 18 71 22 l60 7 2
37 c0 20 8 57 18 82 32 84 31 96 -6 109 -17 6 -32 11 -33 10 -1 0 -20 -10 -44
-20z m31 -65 c-5 -77 -15 -113 -31 -118 -9 -2 -27 -7 -39 -11 -20 -5 -22 -1
-28 52 -4 32 -9 65 -11 74 -3 12 8 18 43 26 63 13 68 11 66 -23z"/>
</g>
</svg>
