<?xml version="1.0" standalone="no"?>
<!DOCTYPE svg PUBLIC "-//W3C//DTD SVG 20010904//EN"
 "http://www.w3.org/TR/2001/REC-SVG-20010904/DTD/svg10.dtd">
<svg version="1.0" xmlns="http://www.w3.org/2000/svg"
 width="96.000000pt" height="68.000000pt" viewBox="0 0 96.000000 68.000000"
 preserveAspectRatio="xMidYMid meet">
<metadata>
Created by potrace 1.16, written by Peter Selinger 2001-2019
</metadata>
<g transform="translate(0.000000,68.000000) scale(0.100000,-0.100000)"
fill="#000000" stroke="none">
<path d="M417 561 c7 -28 40 -54 58 -48 30 12 6 51 -37 61 -22 5 -25 3 -21
-13z"/>
<path d="M505 507 c-27 -6 -70 -10 -95 -10 l-45 0 1 -176 c0 -124 4 -176 12
-179 12 -4 59 26 102 65 29 27 39 28 46 8 9 -22 44 -19 44 3 0 20 -21 42 -58
62 -27 13 -42 6 -24 -12 21 -21 13 -35 -28 -52 -22 -9 -43 -16 -45 -16 -3 0
-5 29 -5 64 0 72 5 76 85 71 25 -1 45 -2 45 -1 0 0 11 33 25 71 13 39 25 75
25 82 0 22 -34 30 -85 20z m23 -39 c-2 -18 -13 -25 -55 -34 -29 -7 -54 -11
-54 -10 -1 0 -3 11 -4 24 -2 17 4 24 24 28 14 3 31 7 36 9 6 2 20 4 33 4 19 1
23 -4 20 -21z m-8 -67 c0 -26 -17 -37 -68 -45 -43 -6 -43 -6 -40 21 3 25 8 29
48 34 25 3 48 7 53 7 4 1 7 -6 7 -17z"/>
<path d="M715 504 c-22 -8 -53 -13 -70 -10 l-30 6 3 -218 c1 -119 5 -224 8
-232 15 -42 28 41 35 219 4 106 12 197 16 202 14 13 83 22 83 10 0 -6 -10 -31
-22 -56 l-22 -45 21 -22 c48 -51 49 -113 3 -101 -11 3 -20 0 -20 -6 0 -6 4
-11 8 -11 5 0 20 -9 32 -20 32 -27 52 -22 63 17 13 43 -6 86 -49 120 -19 14
-34 29 -34 33 0 4 20 27 45 51 25 24 45 49 45 55 0 27 -54 30 -115 8z"/>
<path d="M252 458 c-8 -8 -39 -13 -77 -13 -67 0 -75 -4 -51 -25 8 -6 20 -36
27 -65 16 -72 21 -80 47 -66 11 6 36 11 54 11 44 0 54 8 63 50 4 19 14 48 22
64 14 27 14 31 -3 43 -23 16 -66 17 -82 1z m18 -65 c0 -47 -8 -59 -41 -65 -24
-4 -28 0 -38 32 -16 53 -14 58 17 63 62 9 62 9 62 -30z"/>
</g>
</svg>
