<?xml version="1.0" standalone="no"?>
<!DOCTYPE svg PUBLIC "-//W3C//DTD SVG 20010904//EN"
 "http://www.w3.org/TR/2001/REC-SVG-20010904/DTD/svg10.dtd">
<svg version="1.0" xmlns="http://www.w3.org/2000/svg"
 width="96.000000pt" height="68.000000pt" viewBox="0 0 96.000000 68.000000"
 preserveAspectRatio="xMidYMid meet">
<metadata>
Created by potrace 1.16, written by Peter Selinger 2001-2019
</metadata>
<g transform="translate(0.000000,68.000000) scale(0.100000,-0.100000)"
fill="#000000" stroke="none">
<path d="M550 95 c0 -7 62 -66 88 -83 20 -13 25 -13 33 -1 13 21 11 27 -14 43
-25 17 -107 48 -107 41z"/>
<path d="M364 75 c-3 -8 -26 -28 -52 -45 -25 -16 -39 -30 -32 -30 19 0 150 61
150 70 0 7 -34 20 -53 20 -4 0 -10 -7 -13 -15z"/>
</g>
</svg>
