<?xml version="1.0" standalone="no"?>
<!DOCTYPE svg PUBLIC "-//W3C//DTD SVG 20010904//EN"
 "http://www.w3.org/TR/2001/REC-SVG-20010904/DTD/svg10.dtd">
<svg version="1.0" xmlns="http://www.w3.org/2000/svg"
 width="96.000000pt" height="68.000000pt" viewBox="0 0 96.000000 68.000000"
 preserveAspectRatio="xMidYMid meet">
<metadata>
Created by potrace 1.16, written by Peter Selinger 2001-2019
</metadata>
<g transform="translate(0.000000,68.000000) scale(0.100000,-0.100000)"
fill="#000000" stroke="none">
<path d="M214 538 c4 -13 9 -47 13 -75 l6 -53 -34 -2 c-19 -1 -50 0 -69 1
l-35 2 23 -23 c12 -14 22 -31 22 -40 0 -8 5 -30 11 -47 8 -23 15 -29 22 -22 6
6 21 11 34 11 21 0 23 -5 23 -44 0 -39 2 -44 19 -39 16 4 21 15 23 52 l3 46
53 3 c44 3 53 6 48 19 -4 9 3 31 14 50 l20 34 -28 10 c-15 6 -44 9 -64 6 -44
-6 -50 5 -37 59 12 52 12 49 -16 62 -42 19 -58 15 -51 -10z m114 -165 c-3 -33
-7 -38 -30 -41 -26 -3 -28 -1 -28 32 0 24 5 36 18 39 40 11 43 8 40 -30z m-98
-18 c0 -26 -5 -35 -21 -40 -23 -8 -39 7 -39 38 0 9 0 20 -1 25 0 8 43 21 54
15 4 -2 7 -19 7 -38z"/>
</g>
</svg>
