<?xml version="1.0" standalone="no"?>
<!DOCTYPE svg PUBLIC "-//W3C//DTD SVG 20010904//EN"
 "http://www.w3.org/TR/2001/REC-SVG-20010904/DTD/svg10.dtd">
<svg version="1.0" xmlns="http://www.w3.org/2000/svg"
 width="96.000000pt" height="68.000000pt" viewBox="0 0 96.000000 68.000000"
 preserveAspectRatio="xMidYMid meet">
<metadata>
Created by potrace 1.16, written by Peter Selinger 2001-2019
</metadata>
<g transform="translate(0.000000,68.000000) scale(0.100000,-0.100000)"
fill="#000000" stroke="none">
<path d="M350 594 c-38 -8 -89 -11 -123 -8 l-57 6 10 -28 c14 -36 15 -361 2
-429 -10 -50 -2 -85 19 -85 6 0 30 15 53 32 51 41 55 43 89 69 41 31 27 33
-31 4 -27 -14 -55 -25 -61 -25 -7 0 -11 39 -11 119 l0 119 69 7 c39 4 88 4
109 0 47 -8 47 -8 83 95 15 41 30 83 34 93 6 13 -1 20 -29 32 -42 18 -68 17
-156 -1z m98 -51 c-3 -26 -6 -28 -92 -40 -90 -13 -106 -11 -106 10 1 30 22 42
82 48 123 12 120 12 116 -18z m-18 -90 c0 -27 -12 -39 -40 -39 -14 0 -51 -3
-82 -7 l-58 -7 0 29 c0 29 2 30 53 34 123 8 127 8 127 -10z"/>
<path d="M456 321 c-32 -50 -44 -54 -81 -26 -37 27 -65 38 -65 25 0 -5 12 -18
27 -27 16 -10 57 -47 93 -82 123 -119 139 -131 187 -131 48 0 133 18 133 29 0
3 -35 14 -77 25 -76 18 -185 67 -231 104 l-23 18 23 12 c13 6 40 18 61 26 43
17 46 29 15 50 -31 22 -35 21 -62 -23z"/>
</g>
</svg>
