<?xml version="1.0" standalone="no"?>
<!DOCTYPE svg PUBLIC "-//W3C//DTD SVG 20010904//EN"
 "http://www.w3.org/TR/2001/REC-SVG-20010904/DTD/svg10.dtd">
<svg version="1.0" xmlns="http://www.w3.org/2000/svg"
 width="96.000000pt" height="68.000000pt" viewBox="0 0 96.000000 68.000000"
 preserveAspectRatio="xMidYMid meet">
<metadata>
Created by potrace 1.16, written by Peter Selinger 2001-2019
</metadata>
<g transform="translate(0.000000,68.000000) scale(0.100000,-0.100000)"
fill="#000000" stroke="none">
<path d="M266 588 c4 -7 16 -25 26 -40 l18 -26 -77 -7 c-43 -3 -89 -9 -103
-12 l-25 -5 22 -11 c16 -7 58 -5 145 7 68 9 140 16 160 16 20 0 40 5 43 10 7
12 -3 13 -71 10 -47 -2 -52 0 -58 23 -4 16 -17 29 -37 36 -41 14 -52 14 -43
-1z"/>
</g>
</svg>
