<?xml version="1.0" standalone="no"?>
<!DOCTYPE svg PUBLIC "-//W3C//DTD SVG 20010904//EN"
 "http://www.w3.org/TR/2001/REC-SVG-20010904/DTD/svg10.dtd">
<svg version="1.0" xmlns="http://www.w3.org/2000/svg"
 width="96.000000pt" height="68.000000pt" viewBox="0 0 96.000000 68.000000"
 preserveAspectRatio="xMidYMid meet">
<metadata>
Created by potrace 1.16, written by Peter Selinger 2001-2019
</metadata>
<g transform="translate(0.000000,68.000000) scale(0.100000,-0.100000)"
fill="#000000" stroke="none">
<path d="M209 531 c6 -10 13 -48 17 -84 6 -64 6 -66 -17 -71 -13 -3 -37 -8
-54 -12 -28 -7 -26 -8 20 -14 l50 -5 3 -66 3 -67 -71 -17 c-70 -17 -79 -28
-33 -46 20 -7 43 0 134 47 61 31 108 58 106 60 -2 3 -16 0 -31 -6 -15 -5 -36
-10 -47 -10 -18 0 -20 6 -17 57 l3 58 43 9 c23 5 42 12 42 17 0 13 -36 20 -64
13 -23 -6 -26 -3 -26 22 0 16 5 46 11 67 13 48 0 67 -48 67 -30 0 -33 -2 -24
-19z"/>
</g>
</svg>
