<?xml version="1.0" standalone="no"?>
<!DOCTYPE svg PUBLIC "-//W3C//DTD SVG 20010904//EN"
 "http://www.w3.org/TR/2001/REC-SVG-20010904/DTD/svg10.dtd">
<svg version="1.0" xmlns="http://www.w3.org/2000/svg"
 width="96.000000pt" height="68.000000pt" viewBox="0 0 96.000000 68.000000"
 preserveAspectRatio="xMidYMid meet">
<metadata>
Created by potrace 1.16, written by Peter Selinger 2001-2019
</metadata>
<g transform="translate(0.000000,68.000000) scale(0.100000,-0.100000)"
fill="#000000" stroke="none">
<path d="M260 505 c-11 -24 -40 -65 -65 -91 -69 -69 -55 -90 45 -70 31 7 33 6
18 -7 -10 -8 -18 -18 -18 -23 -1 -5 -19 -22 -42 -37 -35 -25 -39 -31 -26 -43
12 -12 22 -11 78 11 68 27 100 31 100 15 0 -5 7 -10 15 -10 23 0 18 37 -7 54
-30 21 -55 22 -38 1 10 -12 10 -16 -1 -19 -8 -2 -29 -9 -48 -15 -19 -6 -36 -9
-39 -6 -2 2 33 40 79 83 73 70 82 82 70 96 -20 24 -28 20 -57 -24 -24 -36 -31
-40 -68 -40 l-40 0 57 58 c58 58 67 78 45 100 -22 22 -39 12 -58 -33z"/>
<path d="M555 534 c4 -11 10 -54 13 -96 l4 -77 -37 -7 c-20 -3 -61 -4 -91 -1
-30 3 -54 3 -54 1 0 -3 7 -15 15 -28 9 -13 21 -66 26 -117 11 -93 23 -125 37
-102 4 7 41 12 92 13 113 3 109 4 122 -25 28 -62 69 -11 92 115 8 47 18 100
22 117 6 29 4 34 -22 44 -20 8 -49 8 -93 2 l-64 -10 7 83 c3 46 3 85 -1 87 -5
3 -23 8 -42 12 -31 7 -33 5 -26 -11z m173 -231 l3 -43 -58 0 -59 0 -2 35 c-2
20 0 40 2 44 3 5 29 8 58 7 l53 -1 3 -42z m-160 -5 l-3 -43 -50 -6 c-27 -3
-51 -5 -52 -5 -1 1 -5 20 -9 43 l-6 42 43 4 c24 2 52 4 62 5 15 2 18 -5 15
-40z m152 -84 c0 -48 -16 -62 -65 -62 l-46 1 3 36 c3 31 7 37 33 42 63 14 75
11 75 -17z m-153 -31 c-2 -38 -2 -38 -49 -41 -27 -2 -48 1 -48 6 0 5 -3 24 -6
41 l-6 31 55 0 55 0 -1 -37z"/>
<path d="M337 200 c19 -32 43 -40 43 -14 0 18 -27 43 -48 44 -10 0 -9 -8 5
-30z"/>
<path d="M240 195 c0 -14 44 -64 52 -59 12 8 10 19 -11 42 -17 20 -41 30 -41
17z"/>
<path d="M160 129 c20 -38 48 -50 57 -23 6 17 -37 64 -58 64 -19 0 -19 -1 1
-41z"/>
</g>
</svg>
