<?xml version="1.0" standalone="no"?>
<!DOCTYPE svg PUBLIC "-//W3C//DTD SVG 20010904//EN"
 "http://www.w3.org/TR/2001/REC-SVG-20010904/DTD/svg10.dtd">
<svg version="1.0" xmlns="http://www.w3.org/2000/svg"
 width="96.000000pt" height="68.000000pt" viewBox="0 0 96.000000 68.000000"
 preserveAspectRatio="xMidYMid meet">
<metadata>
Created by potrace 1.16, written by Peter Selinger 2001-2019
</metadata>
<g transform="translate(0.000000,68.000000) scale(0.100000,-0.100000)"
fill="#000000" stroke="none">
<path d="M390 481 c0 -39 -11 -51 -49 -51 -20 0 -43 -5 -51 -10 -11 -7 -4 -10
28 -10 23 0 42 -4 42 -8 0 -16 -118 -122 -180 -161 -78 -49 -54 -55 34 -9 37
19 90 61 133 105 84 86 64 87 214 -18 53 -37 107 -70 119 -74 22 -7 165 3 157
11 -2 3 -44 16 -93 29 -84 23 -225 85 -269 119 -20 15 -19 15 6 16 44 0 89 12
89 23 0 6 -24 8 -65 4 -57 -4 -64 -3 -53 10 10 12 9 18 -7 29 -27 20 -55 18
-55 -5z"/>
</g>
</svg>
