<?xml version="1.0" standalone="no"?>
<!DOCTYPE svg PUBLIC "-//W3C//DTD SVG 20010904//EN"
 "http://www.w3.org/TR/2001/REC-SVG-20010904/DTD/svg10.dtd">
<svg version="1.0" xmlns="http://www.w3.org/2000/svg"
 width="96.000000pt" height="68.000000pt" viewBox="0 0 96.000000 68.000000"
 preserveAspectRatio="xMidYMid meet">
<metadata>
Created by potrace 1.16, written by Peter Selinger 2001-2019
</metadata>
<g transform="translate(0.000000,68.000000) scale(0.100000,-0.100000)"
fill="#000000" stroke="none">
<path d="M188 533 c28 -40 49 -56 62 -48 27 17 -4 58 -54 71 l-30 7 22 -30z"/>
<path d="M106 408 c16 -30 49 -58 66 -58 30 0 22 37 -12 55 -36 18 -64 20 -54
3z"/>
<path d="M218 267 c-15 -23 -40 -55 -57 -71 -17 -17 -31 -39 -31 -50 1 -28 28
-63 39 -50 12 14 82 195 79 205 -2 5 -15 -10 -30 -34z"/>
</g>
</svg>
