<?xml version="1.0" standalone="no"?>
<!DOCTYPE svg PUBLIC "-//W3C//DTD SVG 20010904//EN"
 "http://www.w3.org/TR/2001/REC-SVG-20010904/DTD/svg10.dtd">
<svg version="1.0" xmlns="http://www.w3.org/2000/svg"
 width="90.000000pt" height="92.000000pt" viewBox="0 0 90.000000 92.000000"
 preserveAspectRatio="xMidYMid meet">
<metadata>
Created by potrace 1.16, written by Peter Selinger 2001-2019
</metadata>
<g transform="translate(0.000000,92.000000) scale(0.100000,-0.100000)"
fill="#000000" stroke="none">
<path d="M516 823 c5 -10 9 -106 9 -213 1 -225 0 -220 20 -220 21 0 23 22 28
238 4 178 3 194 -14 202 -30 17 -52 13 -43 -7z"/>
<path d="M180 735 c-19 -7 -59 -14 -89 -14 -47 -1 -52 -3 -45 -18 14 -29 17
-291 4 -370 -10 -63 -9 -76 6 -105 l18 -33 10 28 c9 25 14 27 68 27 54 0 58
-2 73 -30 19 -37 40 -38 58 -3 11 22 13 80 11 268 -3 213 -5 241 -21 252 -21
16 -48 15 -93 -2z m58 -92 l3 -61 -38 1 c-21 0 -53 -3 -70 -7 l-33 -8 0 60 c0
61 0 62 33 71 17 5 48 9 67 8 l35 -2 3 -62z m2 -137 l0 -55 -32 1 c-18 0 -50
-3 -70 -7 l-38 -8 0 52 0 51 38 1 c29 1 85 11 100 18 1 0 2 -23 2 -53z m0
-145 l0 -69 -45 0 c-24 0 -57 -3 -72 -6 l-28 -7 3 66 4 65 36 1 c30 1 85 11
100 18 1 0 2 -30 2 -68z"/>
<path d="M675 643 c11 -10 42 -44 68 -76 51 -60 72 -70 82 -38 15 48 -55 113
-136 127 -33 5 -34 5 -14 -13z"/>
<path d="M390 619 c0 -11 -13 -52 -30 -91 -16 -38 -30 -72 -30 -75 0 -15 67
48 91 85 34 54 36 77 10 92 -29 15 -41 12 -41 -11z"/>
<path d="M670 513 c-1 -90 -215 -331 -390 -440 -33 -21 -34 -22 -10 -23 73 0
268 154 396 313 33 39 65 76 71 80 20 13 15 34 -14 62 -32 29 -53 32 -53 8z"/>
</g>
</svg>
