<?xml version="1.0" standalone="no"?>
<!DOCTYPE svg PUBLIC "-//W3C//DTD SVG 20010904//EN"
 "http://www.w3.org/TR/2001/REC-SVG-20010904/DTD/svg10.dtd">
<svg version="1.0" xmlns="http://www.w3.org/2000/svg"
 width="90.000000pt" height="92.000000pt" viewBox="0 0 90.000000 92.000000"
 preserveAspectRatio="xMidYMid meet">
<metadata>
Created by potrace 1.16, written by Peter Selinger 2001-2019
</metadata>
<g transform="translate(0.000000,92.000000) scale(0.100000,-0.100000)"
fill="#000000" stroke="none">
<path d="M485 898 c15 -48 17 -89 4 -104 -10 -12 -10 -18 2 -29 12 -12 20 -12
54 0 62 22 83 20 78 -9 -4 -19 -15 -25 -58 -35 -37 -8 -60 -9 -73 -2 -18 9
-18 5 -15 -97 2 -59 6 -117 8 -128 11 -53 196 -75 282 -33 24 11 43 26 43 32
0 19 -48 108 -53 100 -2 -5 -7 -24 -11 -44 -9 -49 -40 -64 -137 -64 -102 0
-127 20 -37 30 81 8 100 14 92 27 -4 7 -34 8 -85 3 -65 -5 -79 -4 -79 8 0 10
19 16 72 20 39 3 75 10 81 16 16 16 -30 23 -90 12 -31 -6 -58 -11 -60 -11 -2
0 -3 6 -3 13 0 9 26 17 76 24 41 6 78 14 81 17 17 17 -27 22 -99 11 -40 -6
-48 -5 -48 8 0 17 18 22 103 32 31 4 57 11 57 16 0 5 -5 9 -11 9 -6 0 -1 17
11 37 21 36 21 38 3 50 -10 8 -27 11 -38 8 -41 -12 -115 -17 -115 -9 1 22 19
31 74 38 67 7 75 11 58 28 -9 9 -22 9 -57 0 -61 -16 -67 -15 -60 7 4 14 0 23
-14 30 -32 18 -44 14 -36 -11z"/>
<path d="M250 905 c0 -4 9 -20 20 -35 l20 -28 -70 -12 c-65 -11 -88 -30 -37
-30 17 0 26 -10 38 -44 l16 -45 -88 -12 c-49 -7 -89 -16 -89 -21 0 -4 9 -12
20 -18 14 -8 51 -4 143 15 69 14 137 25 153 25 16 0 36 5 44 10 24 16 -8 32
-47 25 -39 -7 -40 -3 -12 36 11 16 17 34 14 40 -4 6 2 13 14 16 12 3 21 9 21
14 0 16 -34 27 -57 18 -19 -7 -23 -5 -23 11 0 10 -3 21 -7 23 -16 9 -73 18
-73 12z m75 -132 c-9 -50 -12 -53 -41 -53 -16 0 -23 4 -18 11 3 6 -3 24 -15
39 l-21 29 28 4 c73 11 75 10 67 -30z"/>
<path d="M319 665 c-19 -7 -57 -16 -85 -19 l-49 -7 0 -72 c0 -56 -5 -82 -23
-116 -13 -24 -21 -45 -19 -47 7 -7 59 50 68 74 7 19 12 21 27 11 16 -10 27 -7
66 20 l46 32 0 -32 c0 -30 -2 -31 -30 -25 l-31 6 32 -40 c18 -22 36 -40 39
-40 16 0 29 59 33 147 4 86 3 93 -17 106 -17 12 -27 12 -57 2z m31 -74 c0 -38
-2 -40 -47 -55 -67 -23 -73 -21 -73 19 0 38 5 42 34 20 25 -19 52 -19 59 -1 7
17 -13 26 -54 26 -32 0 -40 16 -11 23 9 3 34 5 55 6 37 1 37 1 37 -38z"/>
<path d="M488 434 c-4 -3 -2 -19 2 -35 7 -24 6 -29 -8 -30 -9 0 -41 -4 -69 -8
-47 -7 -53 -5 -53 10 0 21 -28 39 -60 39 -16 0 -20 -4 -16 -15 3 -8 9 -22 12
-30 4 -11 -6 -16 -46 -21 -61 -8 -53 -27 12 -28 40 -1 43 -3 49 -36 4 -19 6
-36 5 -37 -1 -1 -62 -7 -136 -13 -73 -5 -135 -12 -137 -14 -9 -9 50 -39 75
-39 15 1 67 8 117 18 62 12 163 18 320 21 127 3 240 7 252 10 32 6 19 29 -25
47 -32 12 -50 12 -140 -1 -57 -8 -105 -12 -108 -9 -3 3 -2 21 1 40 6 32 10 36
51 42 24 3 44 10 44 15 0 14 -37 31 -54 24 -10 -4 -16 -1 -16 9 0 26 -56 58
-72 41z m2 -138 c0 -40 -11 -46 -81 -46 -46 0 -49 2 -49 25 0 14 -1 28 -2 32
-4 9 44 20 95 22 36 1 37 0 37 -33z"/>
<path d="M295 171 c-6 -19 -80 -93 -124 -124 -14 -9 -23 -19 -20 -21 8 -9 121
49 163 83 21 17 43 31 47 31 17 0 9 29 -10 40 -29 15 -49 12 -56 -9z"/>
<path d="M540 133 c68 -74 99 -103 111 -103 5 0 14 12 20 26 14 40 -11 71 -87
105 -96 44 -105 38 -44 -28z"/>
</g>
</svg>
