<?xml version="1.0" standalone="no"?>
<!DOCTYPE svg PUBLIC "-//W3C//DTD SVG 20010904//EN"
 "http://www.w3.org/TR/2001/REC-SVG-20010904/DTD/svg10.dtd">
<svg version="1.0" xmlns="http://www.w3.org/2000/svg"
 width="90.000000pt" height="92.000000pt" viewBox="0 0 90.000000 92.000000"
 preserveAspectRatio="xMidYMid meet">
<metadata>
Created by potrace 1.16, written by Peter Selinger 2001-2019
</metadata>
<g transform="translate(0.000000,92.000000) scale(0.100000,-0.100000)"
fill="#000000" stroke="none">
<path d="M462 813 c-16 -52 -76 -130 -118 -155 -38 -22 -41 -33 -18 -66 12
-17 19 -20 34 -12 34 18 43 12 37 -25 -3 -18 -24 -62 -47 -95 -23 -34 -40 -64
-37 -67 3 -2 23 12 45 31 30 27 48 36 76 36 l36 0 0 -55 c0 -50 -2 -55 -22
-55 -50 0 -198 -23 -198 -31 0 -5 14 -16 31 -25 26 -13 39 -14 73 -5 92 23
105 24 100 3 -10 -35 -79 -117 -128 -149 -43 -29 -45 -33 -23 -33 67 0 142 62
181 150 l27 60 57 2 c31 1 91 1 133 -1 87 -3 108 9 68 42 -21 17 -34 18 -104
13 -44 -4 -95 -10 -114 -13 l-33 -6 8 34 c4 19 8 43 9 54 1 17 11 21 59 26 67
8 76 14 53 36 -16 16 -23 16 -122 -3 -58 -12 -105 -19 -105 -16 0 3 12 20 26
39 25 33 25 35 8 54 -9 10 -15 21 -13 23 2 2 46 13 98 25 l94 21 33 -37 c28
-32 35 -36 44 -23 27 41 -1 92 -74 130 -52 28 -70 21 -36 -15 13 -14 22 -27
19 -29 -6 -5 -200 -28 -204 -24 -2 2 21 32 51 66 59 66 66 94 28 118 -19 13
-21 12 -32 -23z"/>
<path d="M236 833 c-3 -3 -6 -19 -6 -34 0 -62 -83 -224 -169 -327 -66 -80 -70
-88 -31 -66 18 10 59 48 92 84 l60 65 -5 -160 c-4 -88 -11 -178 -17 -200 -9
-32 -8 -47 5 -78 37 -88 53 -21 56 233 2 141 0 201 -10 218 -11 20 -6 33 42
122 l55 99 -22 19 c-29 26 -42 33 -50 25z"/>
<path d="M605 208 c84 -92 114 -118 130 -118 25 0 18 55 -12 91 -26 30 -132
89 -162 89 -8 0 12 -28 44 -62z"/>
</g>
</svg>
