<?xml version="1.0" standalone="no"?>
<!DOCTYPE svg PUBLIC "-//W3C//DTD SVG 20010904//EN"
 "http://www.w3.org/TR/2001/REC-SVG-20010904/DTD/svg10.dtd">
<svg version="1.0" xmlns="http://www.w3.org/2000/svg"
 width="96.000000pt" height="68.000000pt" viewBox="0 0 96.000000 68.000000"
 preserveAspectRatio="xMidYMid meet">
<metadata>
Created by potrace 1.16, written by Peter Selinger 2001-2019
</metadata>
<g transform="translate(0.000000,68.000000) scale(0.100000,-0.100000)"
fill="#000000" stroke="none">
<path d="M715 600 c-3 -4 0 -32 6 -62 12 -56 5 -396 -9 -410 -4 -4 -25 -3 -47
2 l-39 9 30 -27 c77 -70 72 -67 94 -47 18 17 20 31 21 174 0 145 8 249 24 312
5 20 3 28 -12 32 -10 4 -28 11 -40 16 -13 6 -25 6 -28 1z"/>
<path d="M210 544 c0 -9 14 -29 31 -45 35 -33 79 -39 79 -11 0 29 -15 42 -63
57 -42 12 -47 12 -47 -1z"/>
<path d="M460 513 c-36 -8 -74 -19 -85 -23 -19 -8 -19 -9 3 -9 12 -1 25 -8 28
-16 7 -18 -36 -110 -66 -142 -25 -27 -25 -32 -2 -27 11 3 30 -9 51 -32 l35
-36 -53 -50 c-52 -50 -62 -74 -19 -46 43 28 110 103 159 175 42 62 46 73 33
84 -11 9 -26 10 -62 1 -26 -5 -50 -8 -54 -6 -4 3 2 18 14 34 17 23 19 32 9 43
-10 12 -2 17 50 26 78 13 89 22 44 34 -11 2 -49 -2 -85 -10z m14 -202 c-16
-28 -31 -51 -34 -51 -3 1 -20 14 -39 30 l-33 28 18 26 c14 18 30 26 59 28 22
2 44 0 49 -4 4 -3 -5 -29 -20 -57z"/>
<path d="M595 423 c5 -16 11 -62 14 -103 3 -41 11 -75 16 -75 16 0 19 187 3
197 -27 17 -40 9 -33 -19z"/>
<path d="M136 412 c-9 -16 63 -74 87 -70 30 4 33 34 5 51 -31 20 -85 31 -92
19z"/>
<path d="M250 293 c-14 -26 -42 -65 -64 -88 l-38 -40 18 -35 c11 -19 24 -34
29 -34 10 2 77 162 90 217 11 42 -7 32 -35 -20z"/>
</g>
</svg>
