<?xml version="1.0" standalone="no"?>
<!DOCTYPE svg PUBLIC "-//W3C//DTD SVG 20010904//EN"
 "http://www.w3.org/TR/2001/REC-SVG-20010904/DTD/svg10.dtd">
<svg version="1.0" xmlns="http://www.w3.org/2000/svg"
 width="90.000000pt" height="92.000000pt" viewBox="0 0 90.000000 92.000000"
 preserveAspectRatio="xMidYMid meet">
<metadata>
Created by potrace 1.16, written by Peter Selinger 2001-2019
</metadata>
<g transform="translate(0.000000,92.000000) scale(0.100000,-0.100000)"
fill="#000000" stroke="none">
<path d="M360 848 c0 -12 -14 -46 -32 -75 -24 -39 -38 -53 -55 -53 -22 0 -23
-1 -9 -22 8 -13 17 -48 21 -79 4 -31 10 -60 13 -66 5 -7 29 -7 75 0 50 8 71 8
76 -1 13 -21 28 3 55 87 21 67 24 86 14 93 -40 27 -49 28 -95 14 -109 -33
-111 -32 -49 24 31 29 56 58 56 64 0 12 -40 36 -60 36 -6 0 -10 -10 -10 -22z
m105 -156 c0 -21 -6 -24 -50 -28 -28 -2 -61 -5 -75 -6 -19 -2 -26 2 -28 18 -3
18 4 22 50 31 80 16 103 13 103 -15z m-10 -75 c-5 -20 -14 -26 -52 -31 -76
-10 -83 -9 -83 19 0 22 4 25 38 26 20 1 51 4 67 8 37 9 37 9 30 -22z"/>
<path d="M625 797 c-9 -54 -57 -171 -95 -231 -40 -62 -38 -68 9 -22 36 35 41
37 92 34 54 -3 54 -3 57 -38 1 -19 -4 -57 -11 -83 l-12 -48 -35 26 c-82 61
-92 54 -25 -18 l45 -49 -20 -26 c-38 -51 -45 -59 -89 -90 -24 -18 -38 -32 -30
-32 30 1 96 39 127 74 18 21 37 36 42 34 5 -2 31 -30 57 -62 27 -33 53 -60 58
-60 6 -1 11 14 13 32 3 27 -5 41 -52 90 l-54 57 24 85 c14 47 23 93 21 102 -4
13 4 18 34 23 47 8 50 19 8 34 -24 8 -45 8 -88 -3 -31 -8 -69 -17 -84 -20
l-29 -7 20 29 c11 15 35 58 53 95 33 71 32 84 -12 107 -15 8 -18 4 -24 -33z"/>
<path d="M60 706 c0 -16 84 -96 101 -96 29 0 26 55 -5 75 -25 17 -96 32 -96
21z"/>
<path d="M360 533 c0 -5 7 -17 15 -27 19 -26 19 -36 -2 -36 -9 0 -46 -5 -81
-11 -60 -11 -64 -13 -46 -26 13 -10 32 -12 62 -8 34 5 42 3 42 -10 0 -28 -31
-79 -78 -127 -33 -35 -40 -46 -24 -41 31 8 95 66 117 107 22 40 22 40 60 26
26 -10 27 -13 20 -56 -11 -73 -13 -77 -51 -69 -41 7 -42 0 -6 -43 l27 -33 22
23 c23 26 73 162 64 176 -10 16 -49 32 -75 32 -19 0 -26 5 -26 20 0 16 10 20
60 26 72 8 77 30 6 27 -39 -1 -46 2 -46 18 0 12 -10 23 -26 29 -30 12 -34 12
-34 3z"/>
<path d="M130 515 c-14 -8 -42 -19 -62 -25 -55 -16 -46 -30 17 -30 30 0 55 -2
55 -5 0 -3 -6 -21 -14 -40 -10 -23 -11 -37 -4 -41 15 -9 58 -106 58 -131 0
-19 -7 -22 -67 -28 -106 -10 -101 -7 -74 -34 16 -16 29 -21 44 -16 12 3 47 8
77 11 48 5 73 -1 185 -41 72 -26 163 -58 204 -72 l74 -26 76 22 c42 12 96 32
121 43 l45 21 -186 13 c-180 11 -260 24 -404 63 l-70 19 3 49 c3 45 1 52 -33
85 l-36 35 45 49 46 49 -26 23 c-29 26 -40 27 -74 7z"/>
</g>
</svg>
