<?xml version="1.0" standalone="no"?>
<!DOCTYPE svg PUBLIC "-//W3C//DTD SVG 20010904//EN"
 "http://www.w3.org/TR/2001/REC-SVG-20010904/DTD/svg10.dtd">
<svg version="1.0" xmlns="http://www.w3.org/2000/svg"
 width="96.000000pt" height="68.000000pt" viewBox="0 0 96.000000 68.000000"
 preserveAspectRatio="xMidYMid meet">
<metadata>
Created by potrace 1.16, written by Peter Selinger 2001-2019
</metadata>
<g transform="translate(0.000000,68.000000) scale(0.100000,-0.100000)"
fill="#000000" stroke="none">
<path d="M690 373 c0 -31 -18 -103 -26 -103 -3 0 -22 11 -42 25 -55 38 -63 29
-13 -14 26 -23 41 -43 36 -50 -4 -7 -29 -30 -57 -51 -27 -22 -47 -40 -45 -40
17 0 65 25 97 50 l37 29 43 -44 c50 -50 70 -56 70 -21 0 21 -30 52 -89 92 -1
2 7 32 19 68 23 69 21 86 -11 86 -14 0 -19 -7 -19 -27z"/>
</g>
</svg>
