<?xml version="1.0" standalone="no"?>
<!DOCTYPE svg PUBLIC "-//W3C//DTD SVG 20010904//EN"
 "http://www.w3.org/TR/2001/REC-SVG-20010904/DTD/svg10.dtd">
<svg version="1.0" xmlns="http://www.w3.org/2000/svg"
 width="96.000000pt" height="68.000000pt" viewBox="0 0 96.000000 68.000000"
 preserveAspectRatio="xMidYMid meet">
<metadata>
Created by potrace 1.16, written by Peter Selinger 2001-2019
</metadata>
<g transform="translate(0.000000,68.000000) scale(0.100000,-0.100000)"
fill="#000000" stroke="none">
<path d="M590 531 c0 -55 -8 -61 -87 -61 -23 0 -45 -4 -48 -10 -4 -6 20 -10
64 -10 l71 0 0 -40 c0 -33 3 -40 20 -40 15 0 20 7 20 28 0 43 12 52 81 63 35
6 65 12 68 14 6 7 -48 25 -61 21 -7 -3 -26 -7 -42 -11 -28 -6 -29 -5 -23 29 6
37 -14 66 -46 66 -14 0 -17 -10 -17 -49z"/>
</g>
</svg>
