<?xml version="1.0" standalone="no"?>
<!DOCTYPE svg PUBLIC "-//W3C//DTD SVG 20010904//EN"
 "http://www.w3.org/TR/2001/REC-SVG-20010904/DTD/svg10.dtd">
<svg version="1.0" xmlns="http://www.w3.org/2000/svg"
 width="90.000000pt" height="92.000000pt" viewBox="0 0 90.000000 92.000000"
 preserveAspectRatio="xMidYMid meet">
<metadata>
Created by potrace 1.16, written by Peter Selinger 2001-2019
</metadata>
<g transform="translate(0.000000,92.000000) scale(0.100000,-0.100000)"
fill="#000000" stroke="none">
<path d="M238 808 c-7 -86 -14 -93 -103 -103 -98 -10 -85 -40 17 -37 l58 2
-19 -50 c-30 -78 -70 -140 -133 -206 -32 -33 -58 -64 -58 -68 0 -19 84 40 135
96 l58 62 -5 -86 c-6 -87 -36 -178 -75 -220 -9 -10 -13 -21 -10 -24 13 -14 85
72 103 122 18 52 18 52 69 58 28 3 66 9 83 12 l33 7 -3 -74 c-3 -72 -4 -74
-28 -73 -14 0 -36 4 -50 8 -20 7 -14 -3 30 -48 30 -31 58 -56 63 -56 4 0 15
16 23 35 10 25 14 78 14 200 0 92 4 175 10 185 7 14 6 23 -6 34 -32 32 -48 35
-104 16 -30 -9 -69 -20 -86 -23 l-31 -6 21 54 21 54 65 11 c85 15 140 31 140
42 0 5 -11 13 -24 19 -18 8 -40 7 -90 -4 -75 -17 -75 -16 -51 52 l14 42 -32
19 c-18 11 -35 20 -38 20 -4 0 -9 -32 -11 -72z m150 -275 c3 -31 1 -33 -29
-33 -17 0 -49 -5 -70 -12 -47 -13 -53 -9 -44 30 5 26 12 31 53 40 74 16 87 12
90 -25z m2 -99 c0 -31 -3 -36 -20 -31 -11 3 -45 -1 -76 -10 -31 -8 -57 -13
-59 -11 -1 2 -1 17 2 34 5 29 8 31 66 41 34 5 68 11 75 11 7 1 12 -11 12 -34z"/>
<path d="M670 784 c-36 -16 -70 -23 -98 -22 l-43 3 1 -333 c1 -324 4 -392 20
-392 17 0 22 59 29 350 5 168 11 312 15 321 7 16 67 39 100 39 22 0 20 -32 -8
-105 l-23 -59 33 -43 c37 -49 60 -112 50 -138 -6 -17 -30 -17 -101 1 -15 4
-12 -1 10 -18 17 -13 46 -38 66 -55 20 -18 41 -33 47 -33 22 0 42 45 42 95 -1
66 -27 123 -80 168 l-42 36 61 81 c60 80 60 81 41 100 -11 11 -24 20 -29 20
-5 0 -15 2 -23 4 -7 2 -38 -7 -68 -20z"/>
</g>
</svg>
