<?xml version="1.0" standalone="no"?>
<!DOCTYPE svg PUBLIC "-//W3C//DTD SVG 20010904//EN"
 "http://www.w3.org/TR/2001/REC-SVG-20010904/DTD/svg10.dtd">
<svg version="1.0" xmlns="http://www.w3.org/2000/svg"
 width="96.000000pt" height="68.000000pt" viewBox="0 0 96.000000 68.000000"
 preserveAspectRatio="xMidYMid meet">
<metadata>
Created by potrace 1.16, written by Peter Selinger 2001-2019
</metadata>
<g transform="translate(0.000000,68.000000) scale(0.100000,-0.100000)"
fill="#000000" stroke="none">
<path d="M300 594 c-6 -14 -33 -50 -61 -80 -29 -30 -48 -54 -44 -54 4 0 35 19
69 43 55 38 68 43 125 45 36 1 67 5 70 8 13 13 -27 23 -67 18 -35 -5 -41 -4
-36 9 3 9 -2 20 -15 26 -28 15 -30 14 -41 -15z"/>
<path d="M523 569 c-32 -50 -32 -59 2 -35 11 7 56 17 101 21 87 7 121 19 91
31 -16 6 -56 1 -117 -13 -22 -6 -23 -4 -12 10 8 9 11 21 7 27 -14 22 -41 7
-72 -41z"/>
<path d="M334 511 c20 -22 51 -28 61 -12 7 12 -1 17 -45 26 l-35 7 19 -21z"/>
<path d="M589 510 c27 -23 61 -26 61 -6 0 17 -22 26 -58 26 l-27 -1 24 -19z"/>
</g>
</svg>
