<?xml version="1.0" standalone="no"?>
<!DOCTYPE svg PUBLIC "-//W3C//DTD SVG 20010904//EN"
 "http://www.w3.org/TR/2001/REC-SVG-20010904/DTD/svg10.dtd">
<svg version="1.0" xmlns="http://www.w3.org/2000/svg"
 width="90.000000pt" height="92.000000pt" viewBox="0 0 90.000000 92.000000"
 preserveAspectRatio="xMidYMid meet">
<metadata>
Created by potrace 1.16, written by Peter Selinger 2001-2019
</metadata>
<g transform="translate(0.000000,92.000000) scale(0.100000,-0.100000)"
fill="#000000" stroke="none">
<path d="M195 764 c-36 -18 -59 -23 -84 -19 -33 6 -33 6 -25 -22 13 -41 9
-346 -6 -476 -10 -87 -10 -118 -1 -135 36 -68 49 7 57 323 4 148 8 272 10 273
4 6 78 21 82 17 2 -2 -3 -26 -13 -54 -15 -46 -15 -53 0 -105 23 -77 18 -92
-25 -88 l-35 3 30 -26 c53 -45 62 -48 85 -23 24 26 22 43 -17 129 -23 53 -24
59 -10 85 8 16 29 42 46 58 17 17 31 33 31 38 0 8 -60 49 -70 47 -3 0 -27 -12
-55 -25z"/>
<path d="M635 749 c-16 -5 -70 -16 -119 -24 -49 -8 -91 -17 -94 -20 -11 -11
12 -20 66 -25 l57 -5 -3 -49 c-1 -27 -4 -52 -7 -54 -2 -3 -36 -5 -75 -6 -66
-1 -71 -2 -64 -21 3 -11 8 -69 11 -130 5 -105 15 -141 34 -129 5 3 9 58 9 123
0 115 1 119 23 125 50 13 59 8 52 -26 -4 -18 -18 -54 -31 -80 -14 -27 -20 -48
-15 -48 9 0 57 52 78 86 11 18 14 17 45 -18 38 -43 63 -48 74 -16 8 27 -22 55
-72 64 -33 6 -41 18 -26 41 4 6 35 15 69 18 57 7 62 6 73 -15 14 -27 5 -160
-13 -184 -10 -13 -19 -14 -45 -7 -18 6 -32 7 -30 3 64 -141 121 -113 143 70 7
57 15 110 19 119 5 12 -2 23 -23 39 -29 20 -36 21 -102 10 -40 -6 -73 -9 -75
-7 -2 2 1 19 6 38 9 29 7 36 -10 51 -19 16 -17 17 48 28 86 14 104 25 78 45
-22 17 -37 17 -81 4z"/>
<path d="M306 453 c5 -10 9 -77 10 -148 0 -72 5 -139 11 -149 9 -17 16 -17 97
-7 47 7 156 11 242 10 85 0 157 1 160 4 2 2 -6 16 -18 32 l-22 28 -140 -7
c-78 -4 -174 -9 -215 -13 l-74 -6 6 131 c7 139 6 142 -45 142 -16 0 -18 -4
-12 -17z"/>
</g>
</svg>
