<?xml version="1.0" standalone="no"?>
<!DOCTYPE svg PUBLIC "-//W3C//DTD SVG 20010904//EN"
 "http://www.w3.org/TR/2001/REC-SVG-20010904/DTD/svg10.dtd">
<svg version="1.0" xmlns="http://www.w3.org/2000/svg"
 width="96.000000pt" height="68.000000pt" viewBox="0 0 96.000000 68.000000"
 preserveAspectRatio="xMidYMid meet">
<metadata>
Created by potrace 1.16, written by Peter Selinger 2001-2019
</metadata>
<g transform="translate(0.000000,68.000000) scale(0.100000,-0.100000)"
fill="#000000" stroke="none">
<path d="M276 267 c-9 -50 -58 -120 -110 -157 -25 -18 -44 -35 -42 -38 12 -11
103 45 146 90 l49 50 116 -67 c200 -115 219 -119 343 -88 l67 17 -130 22
c-146 24 -131 20 -277 81 -63 27 -108 51 -108 59 0 8 5 14 10 14 23 0 7 29
-21 39 -18 6 -33 11 -34 11 -2 0 -6 -15 -9 -33z"/>
</g>
</svg>
