<?xml version="1.0" standalone="no"?>
<!DOCTYPE svg PUBLIC "-//W3C//DTD SVG 20010904//EN"
 "http://www.w3.org/TR/2001/REC-SVG-20010904/DTD/svg10.dtd">
<svg version="1.0" xmlns="http://www.w3.org/2000/svg"
 width="90.000000pt" height="92.000000pt" viewBox="0 0 90.000000 92.000000"
 preserveAspectRatio="xMidYMid meet">
<metadata>
Created by potrace 1.16, written by Peter Selinger 2001-2019
</metadata>
<g transform="translate(0.000000,92.000000) scale(0.100000,-0.100000)"
fill="#000000" stroke="none">
<path d="M555 828 c-38 -10 -98 -19 -133 -19 -59 -1 -62 -2 -48 -18 8 -9 22
-56 30 -105 18 -99 23 -111 39 -98 20 16 164 25 169 11 10 -31 38 7 68 91 18
50 37 93 41 96 18 11 8 24 -31 44 -45 23 -43 23 -135 -2z m80 -64 c0 -29 -4
-38 -15 -36 -23 6 -40 5 -111 -3 l-66 -7 -7 27 c-4 15 -6 28 -4 30 6 4 183 32
193 30 6 -1 10 -19 10 -41z m-14 -97 c-7 -19 -17 -26 -33 -26 -13 1 -49 -2
-80 -6 l-56 -8 -4 29 -3 29 90 10 c50 6 91 7 93 4 1 -3 -2 -18 -7 -32z"/>
<path d="M205 824 c-17 -54 -55 -111 -113 -170 -54 -53 -60 -63 -36 -54 51 20
88 47 153 115 69 71 71 81 23 113 -20 13 -22 12 -27 -4z"/>
<path d="M216 612 c-8 -51 -68 -143 -151 -231 -37 -39 -63 -71 -59 -71 16 0
87 51 132 94 l44 41 -7 -125 c-3 -69 -7 -142 -7 -163 -1 -22 4 -44 14 -53 14
-15 17 -13 26 17 16 51 19 314 4 332 -11 12 -5 26 33 80 25 36 45 70 45 75 0
13 -39 42 -56 42 -6 0 -14 -17 -18 -38z"/>
<path d="M505 532 c-49 -8 -99 -18 -110 -22 -19 -7 -19 -8 6 -20 19 -9 43 -9
88 -2 61 9 63 8 72 -15 21 -55 21 -55 -141 -73 -163 -18 -165 -19 -147 -38 15
-15 26 -15 144 1 71 10 134 17 141 17 10 0 12 -27 10 -117 l-3 -118 -47 1
c-27 0 -48 -2 -48 -4 0 -2 23 -27 50 -55 l50 -51 28 27 27 28 -2 149 -3 150
39 0 c21 0 72 3 114 6 83 7 99 22 47 44 -29 12 -52 11 -156 -6 -41 -6 -42 -6
-37 20 3 14 0 33 -7 41 -11 13 -8 15 21 15 40 0 64 13 55 29 -9 14 -78 12
-191 -7z"/>
<path d="M380 323 c0 -5 15 -27 33 -48 23 -27 39 -37 50 -32 22 8 22 40 -1 60
-21 20 -82 34 -82 20z"/>
</g>
</svg>
