<?xml version="1.0" standalone="no"?>
<!DOCTYPE svg PUBLIC "-//W3C//DTD SVG 20010904//EN"
 "http://www.w3.org/TR/2001/REC-SVG-20010904/DTD/svg10.dtd">
<svg version="1.0" xmlns="http://www.w3.org/2000/svg"
 width="96.000000pt" height="68.000000pt" viewBox="0 0 96.000000 68.000000"
 preserveAspectRatio="xMidYMid meet">
<metadata>
Created by potrace 1.16, written by Peter Selinger 2001-2019
</metadata>
<g transform="translate(0.000000,68.000000) scale(0.100000,-0.100000)"
fill="#000000" stroke="none">
<path d="M266 508 c-17 -57 -60 -128 -78 -128 -6 0 -8 -3 -5 -6 3 -4 -18 -34
-48 -68 -30 -33 -55 -64 -55 -68 0 -21 101 46 129 86 14 19 14 19 22 -2 8 -21
-6 -196 -17 -214 -9 -14 16 -68 32 -68 24 0 31 33 36 172 4 108 3 139 -9 150
-11 12 -6 24 36 85 46 66 49 72 35 92 -8 11 -26 21 -39 21 -20 0 -26 -8 -39
-52z"/>
<path d="M582 340 l3 -192 30 -24 c26 -21 41 -24 112 -24 88 0 133 13 133 39
0 9 -9 39 -19 66 l-20 50 -7 -43 c-9 -56 -33 -72 -106 -72 -79 0 -88 12 -88
109 l0 78 86 6 c91 7 108 12 84 28 -14 9 -47 8 -131 -7 l-35 -6 9 81 c6 45 8
83 6 85 -2 3 -17 8 -32 11 l-28 7 3 -192z"/>
<path d="M368 333 c3 -59 -1 -123 -7 -150 -10 -39 -10 -49 4 -62 14 -14 19
-14 49 4 47 28 126 88 122 92 -2 2 -27 -5 -55 -17 -28 -11 -56 -20 -61 -20 -6
0 -10 29 -10 64 l0 65 60 12 c61 12 90 29 48 29 -13 0 -40 -4 -60 -9 l-38 -9
0 43 c0 38 -3 44 -28 53 l-27 9 3 -104z"/>
</g>
</svg>
