<?xml version="1.0" standalone="no"?>
<!DOCTYPE svg PUBLIC "-//W3C//DTD SVG 20010904//EN"
 "http://www.w3.org/TR/2001/REC-SVG-20010904/DTD/svg10.dtd">
<svg version="1.0" xmlns="http://www.w3.org/2000/svg"
 width="96.000000pt" height="68.000000pt" viewBox="0 0 96.000000 68.000000"
 preserveAspectRatio="xMidYMid meet">
<metadata>
Created by potrace 1.16, written by Peter Selinger 2001-2019
</metadata>
<g transform="translate(0.000000,68.000000) scale(0.100000,-0.100000)"
fill="#000000" stroke="none">
<path d="M590 592 c0 -4 5 -13 10 -18 7 -7 10 -47 8 -100 l-3 -89 -56 -3 -55
-3 4 -60 c3 -36 -3 -96 -14 -150 -14 -69 -15 -92 -6 -101 17 -17 32 1 47 59
l12 48 97 10 96 10 0 -45 c0 -61 -10 -74 -49 -65 -17 4 -31 4 -31 1 0 -3 16
-22 37 -41 29 -28 40 -32 55 -24 30 16 36 46 40 212 l3 157 -28 9 c-15 6 -33
8 -40 6 -7 -2 -24 -6 -39 -9 l-28 -6 7 105 6 105 -36 0 c-21 0 -37 -4 -37 -8z
m140 -251 c0 -26 -4 -28 -64 -39 -35 -7 -77 -12 -95 -12 -28 0 -31 3 -31 30 0
18 6 33 15 36 19 8 158 21 168 16 4 -2 7 -16 7 -31z m0 -89 c0 -28 -2 -29 -77
-40 -111 -17 -113 -17 -113 17 0 28 2 29 68 38 117 18 122 17 122 -15z"/>
<path d="M733 494 c-18 -24 -29 -44 -24 -44 21 0 111 44 111 54 0 17 -21 36
-39 35 -9 0 -31 -20 -48 -45z"/>
<path d="M295 478 c-131 -26 -134 -27 -115 -38 8 -6 27 -10 43 -10 22 0 27 -5
27 -24 0 -30 -50 -125 -101 -194 -53 -70 -26 -70 42 -1 28 28 51 50 53 48 1
-2 8 -23 15 -47 8 -30 17 -42 26 -38 7 2 40 8 73 12 50 5 59 9 55 24 -2 9 3
34 12 56 15 36 15 39 -2 52 -10 7 -25 11 -33 9 -79 -23 -110 -30 -115 -25 -3
3 5 30 20 59 14 30 23 59 21 66 -3 7 7 14 25 17 16 3 42 9 59 12 27 5 48 20
39 28 -14 12 -57 10 -144 -6z m85 -217 c0 -45 -1 -46 -52 -55 l-38 -7 0 45 c0
43 1 45 33 49 17 2 38 5 45 5 8 1 12 -12 12 -37z"/>
<path d="M470 495 c0 -11 52 -75 61 -75 15 0 21 42 8 55 -16 15 -69 31 -69 20z"/>
</g>
</svg>
