<?xml version="1.0" standalone="no"?>
<!DOCTYPE svg PUBLIC "-//W3C//DTD SVG 20010904//EN"
 "http://www.w3.org/TR/2001/REC-SVG-20010904/DTD/svg10.dtd">
<svg version="1.0" xmlns="http://www.w3.org/2000/svg"
 width="96.000000pt" height="68.000000pt" viewBox="0 0 96.000000 68.000000"
 preserveAspectRatio="xMidYMid meet">
<metadata>
Created by potrace 1.16, written by Peter Selinger 2001-2019
</metadata>
<g transform="translate(0.000000,68.000000) scale(0.100000,-0.100000)"
fill="#000000" stroke="none">
<path d="M487 475 c-9 -19 -35 -46 -57 -60 -27 -17 -40 -32 -38 -43 4 -20 5
-20 133 7 93 19 100 19 118 4 15 -14 20 -15 27 -4 4 8 6 20 4 26 -6 14 -48 35
-71 35 -13 0 -13 -3 -3 -15 10 -12 9 -15 -6 -15 -11 0 -44 -3 -74 -6 l-55 -6
45 40 c39 34 43 41 31 56 -21 25 -36 19 -54 -19z"/>
</g>
</svg>
