<?xml version="1.0" standalone="no"?>
<!DOCTYPE svg PUBLIC "-//W3C//DTD SVG 20010904//EN"
 "http://www.w3.org/TR/2001/REC-SVG-20010904/DTD/svg10.dtd">
<svg version="1.0" xmlns="http://www.w3.org/2000/svg"
 width="96.000000pt" height="68.000000pt" viewBox="0 0 96.000000 68.000000"
 preserveAspectRatio="xMidYMid meet">
<metadata>
Created by potrace 1.16, written by Peter Selinger 2001-2019
</metadata>
<g transform="translate(0.000000,68.000000) scale(0.100000,-0.100000)"
fill="#000000" stroke="none">
<path d="M555 534 c-27 -7 -62 -14 -77 -14 -16 0 -28 -5 -28 -11 0 -9 23 -10
83 -5 109 8 131 14 116 32 -14 17 -29 16 -94 -2z"/>
<path d="M203 512 c-51 -9 -93 -19 -93 -23 0 -10 66 -23 84 -16 23 9 36 -14
36 -64 l0 -48 -45 -7 c-58 -8 -58 -24 0 -24 l45 0 0 -59 0 -60 -54 -15 c-30
-9 -62 -16 -72 -16 -16 0 -16 -1 1 -20 10 -11 26 -20 35 -20 22 0 243 110 236
117 -3 3 -23 -2 -46 -11 -59 -24 -61 -22 -58 41 l3 57 43 9 c49 10 47 27 -4
27 l-35 0 3 52 c3 50 5 53 34 59 18 3 40 9 50 13 16 6 16 8 4 16 -19 12 -53
11 -167 -8z"/>
<path d="M545 398 c-172 -28 -172 -28 -154 -39 7 -5 29 -9 47 -9 23 0 32 -5
32 -16 0 -28 -62 -126 -115 -183 l-50 -54 54 29 c31 16 67 47 84 69 36 50 77
129 77 150 0 19 28 31 41 18 5 -5 10 -56 11 -115 3 -121 13 -141 81 -159 74
-20 197 12 197 51 0 9 -8 33 -18 54 l-18 37 -13 -40 c-14 -50 -34 -61 -105
-61 -79 0 -91 15 -80 99 4 36 8 85 8 109 l0 42 58 0 c63 0 84 15 43 30 -31 12
-28 12 -180 -12z"/>
</g>
</svg>
