<?xml version="1.0" standalone="no"?>
<!DOCTYPE svg PUBLIC "-//W3C//DTD SVG 20010904//EN"
 "http://www.w3.org/TR/2001/REC-SVG-20010904/DTD/svg10.dtd">
<svg version="1.0" xmlns="http://www.w3.org/2000/svg"
 width="90.000000pt" height="92.000000pt" viewBox="0 0 90.000000 92.000000"
 preserveAspectRatio="xMidYMid meet">
<metadata>
Created by potrace 1.16, written by Peter Selinger 2001-2019
</metadata>
<g transform="translate(0.000000,92.000000) scale(0.100000,-0.100000)"
fill="#000000" stroke="none">
<path d="M137 824 c-3 -4 -1 -16 6 -28 18 -31 14 -447 -5 -551 -16 -82 -11
-123 17 -154 11 -11 15 -9 27 10 9 18 14 89 18 264 l5 239 36 -44 c41 -49 73
-51 67 -3 -2 21 -14 32 -52 51 l-49 24 6 57 c4 31 8 65 9 75 2 13 -9 28 -31
43 -36 24 -44 27 -54 17z"/>
<path d="M540 804 c0 -15 155 -154 171 -154 27 0 26 53 -2 81 -28 28 -169 89
-169 73z"/>
<path d="M410 777 c0 -23 -41 -91 -78 -129 -43 -45 -32 -49 29 -10 41 27 109
99 109 117 0 11 -32 34 -47 35 -7 0 -13 -6 -13 -13z"/>
<path d="M565 624 c-27 -8 -87 -17 -132 -21 -46 -3 -83 -8 -83 -10 0 -3 6 -11
14 -19 8 -8 20 -48 27 -89 11 -70 28 -104 37 -77 7 21 22 13 22 -13 0 -60 -51
-150 -132 -233 -56 -57 -56 -62 0 -33 55 28 116 96 161 180 23 41 41 75 41 77
0 1 -7 10 -16 19 -16 15 -14 16 17 13 l34 -3 5 -126 c5 -136 10 -148 64 -176
43 -22 161 -22 203 0 47 25 54 44 32 86 -10 20 -19 46 -19 58 0 38 -17 26 -24
-17 -10 -63 -34 -80 -111 -80 -53 0 -69 4 -86 21 -19 19 -21 29 -16 88 3 36 9
80 13 98 5 27 3 33 -22 47 l-29 15 43 1 c40 0 42 1 36 24 -6 25 25 108 45 120
18 12 13 23 -23 45 -38 24 -35 24 -101 5z m45 -56 c0 -13 -5 -40 -10 -60 -11
-40 -11 -40 -122 -52 -52 -6 -54 -3 -60 69 l-3 40 55 11 c30 7 74 12 98 13 37
1 42 -2 42 -21z"/>
<path d="M36 521 c-31 -79 -31 -116 -1 -116 24 0 46 59 47 124 0 71 -16 68
-46 -8z"/>
</g>
</svg>
