<?xml version="1.0" standalone="no"?>
<!DOCTYPE svg PUBLIC "-//W3C//DTD SVG 20010904//EN"
 "http://www.w3.org/TR/2001/REC-SVG-20010904/DTD/svg10.dtd">
<svg version="1.0" xmlns="http://www.w3.org/2000/svg"
 width="96.000000pt" height="68.000000pt" viewBox="0 0 96.000000 68.000000"
 preserveAspectRatio="xMidYMid meet">
<metadata>
Created by potrace 1.16, written by Peter Selinger 2001-2019
</metadata>
<g transform="translate(0.000000,68.000000) scale(0.100000,-0.100000)"
fill="#000000" stroke="none">
<path d="M254 557 c3 -13 8 -48 12 -79 7 -63 10 -61 -85 -73 -42 -6 -51 -9
-37 -17 10 -5 41 -8 69 -6 l52 3 3 -48 3 -47 -85 -41 c-47 -23 -86 -46 -86
-50 0 -5 12 -14 26 -19 23 -9 33 -5 82 31 l55 42 -6 -68 c-8 -79 -16 -92 -47
-75 -34 18 -31 9 11 -40 37 -43 38 -44 58 -25 19 16 21 30 21 125 l0 108 36
27 c39 30 38 46 -1 25 -32 -17 -39 -9 -31 33 6 31 11 35 46 41 52 8 52 26 0
26 -45 0 -49 11 -29 84 10 35 9 42 -7 53 -10 7 -29 13 -42 13 -20 0 -23 -4
-18 -23z"/>
</g>
</svg>
