<?xml version="1.0" standalone="no"?>
<!DOCTYPE svg PUBLIC "-//W3C//DTD SVG 20010904//EN"
 "http://www.w3.org/TR/2001/REC-SVG-20010904/DTD/svg10.dtd">
<svg version="1.0" xmlns="http://www.w3.org/2000/svg"
 width="96.000000pt" height="68.000000pt" viewBox="0 0 96.000000 68.000000"
 preserveAspectRatio="xMidYMid meet">
<metadata>
Created by potrace 1.16, written by Peter Selinger 2001-2019
</metadata>
<g transform="translate(0.000000,68.000000) scale(0.100000,-0.100000)"
fill="#000000" stroke="none">
<path d="M530 513 c0 -43 -5 -95 -10 -115 -9 -32 -16 -38 -45 -43 -116 -18
-112 -16 -85 -27 14 -5 44 -8 68 -6 47 4 49 0 26 -43 -21 -41 -14 -53 35 -68
60 -18 52 -37 -31 -76 -71 -33 -72 -34 -36 -35 23 0 61 13 102 34 l65 34 62
-44 c63 -44 79 -47 79 -14 0 22 -35 52 -82 70 -18 8 -34 14 -36 15 -1 1 10 26
26 56 16 30 31 64 34 77 6 20 12 22 72 22 65 0 87 12 44 24 -13 3 -40 6 -60 6
-21 0 -38 4 -38 8 0 9 -44 32 -61 32 -5 0 -7 -11 -3 -24 5 -22 2 -25 -35 -31
-50 -8 -63 -1 -52 28 5 12 18 55 29 95 l21 72 -29 15 c-55 28 -60 23 -60 -62z
m120 -188 c0 -19 -39 -98 -52 -106 -15 -9 -78 12 -78 26 0 15 25 77 36 88 4 4
27 7 51 7 32 0 43 -4 43 -15z"/>
</g>
</svg>
