<?xml version="1.0" standalone="no"?>
<!DOCTYPE svg PUBLIC "-//W3C//DTD SVG 20010904//EN"
 "http://www.w3.org/TR/2001/REC-SVG-20010904/DTD/svg10.dtd">
<svg version="1.0" xmlns="http://www.w3.org/2000/svg"
 width="96.000000pt" height="68.000000pt" viewBox="0 0 96.000000 68.000000"
 preserveAspectRatio="xMidYMid meet">
<metadata>
Created by potrace 1.16, written by Peter Selinger 2001-2019
</metadata>
<g transform="translate(0.000000,68.000000) scale(0.100000,-0.100000)"
fill="#000000" stroke="none">
<path d="M583 597 c-46 -6 -83 -14 -83 -18 0 -5 43 -6 95 -2 108 7 98 16 95
-92 -2 -71 -12 -87 -49 -78 l-26 6 20 -24 c33 -39 48 -48 66 -38 26 13 37 57
42 156 6 115 13 111 -160 90z"/>
<path d="M379 595 c-3 -2 -40 -10 -82 -16 -105 -16 -90 -33 20 -24 l84 7 -3
-79 -3 -78 -39 -3 -39 -3 34 -35 c38 -39 49 -42 74 -14 14 16 21 45 26 118 6
89 5 98 -13 115 -19 16 -49 23 -59 12z"/>
<path d="M540 540 c0 -15 43 -40 67 -40 25 0 30 12 11 27 -18 14 -78 24 -78
13z"/>
<path d="M265 500 c33 -22 60 -26 70 -10 8 12 -36 30 -73 30 l-27 0 30 -20z"/>
<path d="M590 465 c-30 -13 -65 -24 -78 -25 -20 0 -21 -3 -12 -20 6 -11 17
-20 26 -20 16 0 90 45 117 72 23 23 15 22 -53 -7z"/>
<path d="M295 435 c-27 -13 -58 -24 -67 -25 -24 0 -23 -17 1 -29 15 -8 30 -2
75 30 79 56 76 65 -9 24z"/>
<path d="M445 338 c-13 -41 -46 -68 -84 -68 l-36 0 0 -95 c1 -62 5 -99 13
-107 10 -10 14 -10 21 0 5 8 46 14 119 18 93 5 112 3 112 -9 0 -14 30 -47 43
-47 3 0 15 9 26 21 16 17 19 34 18 98 0 42 3 86 7 98 6 19 2 25 -28 40 -32 15
-45 15 -117 4 -44 -7 -83 -10 -86 -8 -4 5 8 17 42 42 17 13 18 16 5 25 -25 16
-48 11 -55 -12z m173 -97 l10 -28 -102 -12 c-55 -7 -113 -15 -128 -18 -26 -5
-28 -3 -28 30 l0 35 78 9 c143 18 159 17 170 -16z m10 -88 l-4 -36 -127 -4
-127 -4 0 25 c0 23 5 25 58 31 31 4 80 10 107 15 96 15 97 15 93 -27z"/>
</g>
</svg>
