<?xml version="1.0" standalone="no"?>
<!DOCTYPE svg PUBLIC "-//W3C//DTD SVG 20010904//EN"
 "http://www.w3.org/TR/2001/REC-SVG-20010904/DTD/svg10.dtd">
<svg version="1.0" xmlns="http://www.w3.org/2000/svg"
 width="96.000000pt" height="68.000000pt" viewBox="0 0 96.000000 68.000000"
 preserveAspectRatio="xMidYMid meet">
<metadata>
Created by potrace 1.16, written by Peter Selinger 2001-2019
</metadata>
<g transform="translate(0.000000,68.000000) scale(0.100000,-0.100000)"
fill="#000000" stroke="none">
<path d="M310 296 c0 -17 -110 -121 -152 -142 -16 -8 -27 -18 -24 -21 3 -3 35
11 71 31 36 20 68 36 70 36 9 0 5 -85 -6 -123 -8 -29 -7 -42 5 -58 14 -20 14
-21 25 -2 14 28 16 169 2 187 -9 11 -3 21 31 50 35 30 40 38 28 46 -22 14 -50
12 -50 -4z"/>
</g>
</svg>
