<?xml version="1.0" standalone="no"?>
<!DOCTYPE svg PUBLIC "-//W3C//DTD SVG 20010904//EN"
 "http://www.w3.org/TR/2001/REC-SVG-20010904/DTD/svg10.dtd">
<svg version="1.0" xmlns="http://www.w3.org/2000/svg"
 width="96.000000pt" height="68.000000pt" viewBox="0 0 96.000000 68.000000"
 preserveAspectRatio="xMidYMid meet">
<metadata>
Created by potrace 1.16, written by Peter Selinger 2001-2019
</metadata>
<g transform="translate(0.000000,68.000000) scale(0.100000,-0.100000)"
fill="#000000" stroke="none">
<path d="M533 463 c-7 -2 -13 -22 -13 -44 0 -55 32 -74 122 -73 37 0 71 3 75
8 14 14 -22 26 -59 20 -21 -3 -52 -3 -69 1 -31 7 -31 8 -25 51 6 44 1 50 -31
37z"/>
<path d="M410 410 c-7 -17 -28 -43 -46 -60 -45 -39 -43 -45 5 -20 39 20 91 76
91 98 0 25 -38 11 -50 -18z"/>
</g>
</svg>
