<?xml version="1.0" standalone="no"?>
<!DOCTYPE svg PUBLIC "-//W3C//DTD SVG 20010904//EN"
 "http://www.w3.org/TR/2001/REC-SVG-20010904/DTD/svg10.dtd">
<svg version="1.0" xmlns="http://www.w3.org/2000/svg"
 width="96.000000pt" height="68.000000pt" viewBox="0 0 96.000000 68.000000"
 preserveAspectRatio="xMidYMid meet">
<metadata>
Created by potrace 1.16, written by Peter Selinger 2001-2019
</metadata>
<g transform="translate(0.000000,68.000000) scale(0.100000,-0.100000)"
fill="#000000" stroke="none">
<path d="M456 585 c-9 -35 -63 -94 -102 -110 -37 -15 -42 -26 -19 -45 12 -10
21 -10 42 -1 17 8 29 9 36 2 14 -14 -29 -76 -63 -92 -15 -7 -20 -13 -13 -16
32 -11 131 82 120 112 -5 11 30 25 62 25 4 0 5 -18 3 -39 -3 -34 0 -42 24 -58
29 -19 154 -26 170 -10 16 15 -19 25 -70 20 -71 -7 -94 11 -81 63 12 47 37 55
70 24 25 -23 55 -21 55 3 0 17 -36 50 -73 65 -41 18 -53 15 -32 -8 21 -23 22
-23 -90 -44 -44 -8 -83 -11 -87 -8 -4 4 15 25 42 47 50 40 66 66 55 85 -12 20
-43 10 -49 -15z"/>
<path d="M195 550 c-8 -13 66 -70 92 -70 32 0 32 47 1 59 -41 15 -87 21 -93
11z"/>
<path d="M110 407 c0 -15 78 -77 98 -77 29 0 31 40 2 57 -21 14 -100 29 -100
20z"/>
<path d="M447 321 c-4 -16 -31 -54 -66 -90 -34 -33 -58 -61 -55 -61 4 0 23 10
44 21 l38 22 36 -28 c20 -15 36 -31 36 -36 0 -15 -83 -56 -140 -70 -31 -7 -47
-15 -36 -17 23 -5 98 14 152 39 24 10 48 19 53 19 6 0 31 -16 57 -35 44 -34
49 -35 127 -34 112 1 139 12 67 28 -76 17 -182 52 -202 66 -15 10 -12 17 33
73 29 35 48 66 43 73 -6 11 -54 8 -129 -8 -29 -6 -30 -5 -12 14 21 24 22 39 1
47 -30 11 -42 6 -47 -23z m92 -113 c-12 -18 -24 -35 -26 -37 -6 -8 -83 53 -80
63 2 6 19 14 38 17 19 4 45 11 59 16 21 9 26 8 28 -8 2 -11 -7 -34 -19 -51z"/>
<path d="M214 224 c-27 -31 -59 -60 -71 -65 -13 -5 -23 -16 -23 -24 0 -22 28
-75 40 -75 9 0 70 111 108 192 19 44 -3 33 -54 -28z"/>
</g>
</svg>
