<?xml version="1.0" standalone="no"?>
<!DOCTYPE svg PUBLIC "-//W3C//DTD SVG 20010904//EN"
 "http://www.w3.org/TR/2001/REC-SVG-20010904/DTD/svg10.dtd">
<svg version="1.0" xmlns="http://www.w3.org/2000/svg"
 width="96.000000pt" height="68.000000pt" viewBox="0 0 96.000000 68.000000"
 preserveAspectRatio="xMidYMid meet">
<metadata>
Created by potrace 1.16, written by Peter Selinger 2001-2019
</metadata>
<g transform="translate(0.000000,68.000000) scale(0.100000,-0.100000)"
fill="#000000" stroke="none">
<path d="M596 275 c-8 -43 -33 -57 -88 -50 -31 4 -38 3 -23 -4 30 -14 68 -13
90 3 20 13 20 11 19 -85 -1 -55 2 -99 7 -99 5 0 5 7 2 17 -4 10 -2 14 4 10 13
-8 23 116 12 149 -7 21 -6 21 34 12 22 -5 66 -6 96 -2 31 5 63 7 71 5 11 -2
12 0 3 9 -7 8 -48 12 -115 12 -56 0 -97 2 -90 5 6 2 12 9 12 14 0 6 -6 7 -12
3 -10 -6 -10 -5 -1 8 7 8 10 18 6 21 -13 14 -21 6 -27 -28z"/>
<path d="M425 210 c3 -5 21 -10 38 -9 27 0 29 2 12 9 -28 12 -57 12 -50 0z"/>
</g>
</svg>
