<?xml version="1.0" standalone="no"?>
<!DOCTYPE svg PUBLIC "-//W3C//DTD SVG 20010904//EN"
 "http://www.w3.org/TR/2001/REC-SVG-20010904/DTD/svg10.dtd">
<svg version="1.0" xmlns="http://www.w3.org/2000/svg"
 width="96.000000pt" height="68.000000pt" viewBox="0 0 96.000000 68.000000"
 preserveAspectRatio="xMidYMid meet">
<metadata>
Created by potrace 1.16, written by Peter Selinger 2001-2019
</metadata>
<g transform="translate(0.000000,68.000000) scale(0.100000,-0.100000)"
fill="#000000" stroke="none">
<path d="M661 155 c-11 -14 -21 -27 -21 -29 0 -2 18 1 40 6 44 11 50 22 21 37
-14 8 -23 5 -40 -14z"/>
<path d="M551 146 c2 -2 40 -29 83 -60 66 -47 86 -56 120 -55 79 1 84 14 14
33 -36 10 -96 33 -132 52 -56 28 -101 45 -85 30z"/>
<path d="M447 103 c-2 -5 -5 -27 -6 -50 -1 -30 2 -43 11 -43 13 0 118 67 118
75 0 2 -16 -3 -35 -11 -47 -19 -55 -18 -55 11 0 23 -23 36 -33 18z"/>
</g>
</svg>
