<?xml version="1.0" standalone="no"?>
<!DOCTYPE svg PUBLIC "-//W3C//DTD SVG 20010904//EN"
 "http://www.w3.org/TR/2001/REC-SVG-20010904/DTD/svg10.dtd">
<svg version="1.0" xmlns="http://www.w3.org/2000/svg"
 width="90.000000pt" height="92.000000pt" viewBox="0 0 90.000000 92.000000"
 preserveAspectRatio="xMidYMid meet">
<metadata>
Created by potrace 1.16, written by Peter Selinger 2001-2019
</metadata>
<g transform="translate(0.000000,92.000000) scale(0.100000,-0.100000)"
fill="#000000" stroke="none">
<path d="M380 873 c0 -5 11 -25 25 -45 14 -20 22 -39 17 -41 -4 -3 -66 -13
-139 -22 l-132 -18 16 -24 c30 -45 3 -269 -46 -398 -19 -49 -72 -147 -98 -183
-38 -51 -18 -51 33 -1 53 52 109 162 132 261 9 38 21 67 27 65 5 -3 37 -1 70
4 107 14 416 41 421 36 2 -2 0 -16 -6 -31 -5 -15 -7 -26 -3 -24 5 1 30 12 56
22 26 10 46 24 44 30 -2 6 -19 20 -39 30 -35 19 -38 19 -164 2 -209 -28 -379
-43 -383 -33 -2 5 1 13 5 17 10 10 325 50 395 50 51 0 64 7 49 25 -8 9 -3 22
17 45 l27 32 -25 19 c-27 21 -36 22 -97 10 -42 -8 -43 -8 -38 15 4 13 1 26 -6
30 -18 12 25 22 95 23 62 1 71 11 31 37 -22 15 -33 16 -97 4 -40 -7 -77 -15
-83 -17 -7 -3 -10 5 -7 21 4 18 -1 28 -19 39 -28 18 -78 30 -78 20z m106 -138
c9 -38 -2 -55 -35 -55 -16 0 -37 -3 -47 -7 -15 -5 -16 -2 -11 25 4 20 2 34 -6
39 -7 5 6 10 33 14 25 3 48 7 52 7 4 1 10 -9 14 -23z m-142 -11 c12 -32 6 -54
-16 -58 -75 -15 -100 -15 -94 0 3 9 6 24 6 34 0 17 26 28 91 39 4 1 10 -6 13
-15z m276 -71 c0 -30 -13 -40 -57 -47 -37 -5 -43 -4 -43 11 0 36 12 42 88 52
6 0 12 -7 12 -16z m-138 -32 c-3 -23 -10 -30 -34 -35 -53 -11 -58 -8 -58 29
l0 35 48 0 c48 0 48 0 44 -29z m-127 -12 c4 -17 5 -32 3 -33 -1 -2 -34 -7 -72
-11 -69 -7 -69 -7 -63 17 4 12 7 28 7 34 0 6 19 11 42 12 23 1 44 4 46 7 14
14 31 2 37 -26z"/>
<path d="M605 445 c44 -38 58 -40 63 -7 4 24 -29 42 -76 42 -27 -1 -27 -1 13
-35z"/>
<path d="M420 465 c0 -17 35 -55 51 -55 29 0 24 39 -7 50 -28 11 -44 13 -44 5z"/>
<path d="M341 422 c6 -17 15 -35 20 -38 14 -8 11 -52 -6 -84 -13 -26 -19 -28
-50 -23 -41 7 -49 -13 -10 -23 14 -3 25 -10 25 -14 0 -12 -88 -89 -129 -113
-19 -12 -29 -23 -23 -25 20 -6 100 36 145 77 l44 41 42 -31 c23 -17 40 -36 38
-43 -5 -15 -55 -43 -119 -66 l-53 -19 51 -1 c39 0 67 8 110 30 l57 31 55 -36
c30 -20 69 -39 88 -42 36 -6 178 13 203 27 15 8 8 10 -107 30 -88 15 -192 49
-192 62 0 5 18 32 40 58 22 26 40 52 40 58 0 17 -53 29 -95 21 -22 -4 -56 -8
-77 -8 -34 -1 -36 0 -25 22 9 20 17 22 87 22 57 0 83 5 104 18 32 21 28 28
-29 57 -44 22 -51 21 -36 -8 13 -24 -2 -32 -59 -32 -54 0 -91 16 -122 53 l-28
32 11 -33z m199 -154 c0 -16 -50 -88 -62 -88 -10 0 -115 69 -108 71 3 1 39 7
80 14 41 6 78 13 83 14 4 0 7 -4 7 -11z"/>
<path d="M257 395 c-29 -36 -34 -59 -15 -71 14 -9 58 40 58 64 -1 39 -16 41
-43 7z"/>
</g>
</svg>
