<?xml version="1.0" standalone="no"?>
<!DOCTYPE svg PUBLIC "-//W3C//DTD SVG 20010904//EN"
 "http://www.w3.org/TR/2001/REC-SVG-20010904/DTD/svg10.dtd">
<svg version="1.0" xmlns="http://www.w3.org/2000/svg"
 width="96.000000pt" height="68.000000pt" viewBox="0 0 96.000000 68.000000"
 preserveAspectRatio="xMidYMid meet">
<metadata>
Created by potrace 1.16, written by Peter Selinger 2001-2019
</metadata>
<g transform="translate(0.000000,68.000000) scale(0.100000,-0.100000)"
fill="#000000" stroke="none">
<path d="M580 478 c-138 -25 -135 -23 -109 -49 20 -20 21 -28 14 -101 -8 -102
-27 -164 -65 -216 -38 -52 -38 -59 0 -32 60 43 97 133 109 268 4 45 10 85 14
88 3 3 45 11 94 16 108 11 124 16 103 27 -32 18 -59 18 -160 -1z"/>
</g>
</svg>
