<?xml version="1.0" standalone="no"?>
<!DOCTYPE svg PUBLIC "-//W3C//DTD SVG 20010904//EN"
 "http://www.w3.org/TR/2001/REC-SVG-20010904/DTD/svg10.dtd">
<svg version="1.0" xmlns="http://www.w3.org/2000/svg"
 width="90.000000pt" height="92.000000pt" viewBox="0 0 90.000000 92.000000"
 preserveAspectRatio="xMidYMid meet">
<metadata>
Created by potrace 1.16, written by Peter Selinger 2001-2019
</metadata>
<g transform="translate(0.000000,92.000000) scale(0.100000,-0.100000)"
fill="#000000" stroke="none">
<path d="M620 720 c-47 -10 -127 -24 -177 -31 -51 -7 -93 -16 -93 -20 0 -5 10
-14 22 -20 16 -9 38 -9 90 1 38 7 72 10 74 7 20 -20 31 -308 16 -422 -6 -41
-11 -51 -29 -53 -12 -2 -35 4 -52 13 -17 8 -31 13 -31 10 0 -9 103 -135 110
-135 17 0 53 53 59 87 4 21 6 144 5 273 -2 172 1 237 9 242 7 4 48 8 92 8 97
0 121 11 86 40 -28 24 -67 24 -181 0z"/>
<path d="M165 688 c-39 -12 -73 -17 -98 -14 -41 7 -43 2 -23 -40 8 -16 19 -68
25 -117 7 -48 14 -94 17 -102 8 -21 25 -19 31 4 4 16 18 21 79 26 65 6 74 10
69 25 -6 20 16 119 39 172 15 36 15 37 -6 52 -28 20 -58 19 -133 -6z m61 -99
c-4 -39 -10 -77 -13 -85 -6 -17 -86 -34 -94 -20 -4 6 -9 43 -13 82 l-7 71 43
10 c24 6 54 11 67 12 23 1 24 0 17 -70z"/>
</g>
</svg>
