<?xml version="1.0" standalone="no"?>
<!DOCTYPE svg PUBLIC "-//W3C//DTD SVG 20010904//EN"
 "http://www.w3.org/TR/2001/REC-SVG-20010904/DTD/svg10.dtd">
<svg version="1.0" xmlns="http://www.w3.org/2000/svg"
 width="90.000000pt" height="92.000000pt" viewBox="0 0 90.000000 92.000000"
 preserveAspectRatio="xMidYMid meet">
<metadata>
Created by potrace 1.16, written by Peter Selinger 2001-2019
</metadata>
<g transform="translate(0.000000,92.000000) scale(0.100000,-0.100000)"
fill="#000000" stroke="none">
<path d="M717 474 c1 -371 5 -436 23 -418 17 17 29 157 35 429 3 149 8 284 11
302 5 27 2 33 -25 47 -16 9 -34 16 -38 16 -4 0 -7 -169 -6 -376z"/>
<path d="M130 785 c0 -15 85 -95 100 -95 25 0 33 29 15 56 -17 26 -115 59
-115 39z"/>
<path d="M345 729 c14 -42 17 -261 5 -339 -13 -81 -46 -164 -86 -218 -14 -18
-24 -36 -21 -38 8 -8 84 64 108 102 31 50 59 202 59 321 0 56 4 113 10 127 10
27 -8 56 -35 56 -7 0 -21 3 -31 7 -15 5 -16 3 -9 -18z"/>
<path d="M528 725 c-3 -3 -1 -31 5 -63 5 -31 7 -134 4 -228 -4 -129 -3 -176 7
-189 28 -38 35 6 37 239 1 185 -1 230 -12 237 -16 10 -33 12 -41 4z"/>
<path d="M60 591 c0 -19 72 -91 91 -91 42 0 35 61 -8 78 -49 20 -83 25 -83 13z"/>
<path d="M607 531 c-17 -6 -14 -11 22 -44 41 -37 65 -45 76 -28 9 16 -16 58
-42 70 -27 12 -31 13 -56 2z"/>
<path d="M220 514 c0 -17 93 -78 104 -67 12 12 6 40 -12 56 -17 16 -92 24 -92
11z"/>
<path d="M430 512 c0 -6 14 -25 30 -42 23 -25 34 -30 42 -22 8 8 9 20 2 39 -7
22 -17 29 -42 31 -17 2 -32 -1 -32 -6z"/>
<path d="M159 388 c-13 -29 -39 -72 -57 -96 -29 -38 -33 -49 -27 -82 6 -34 29
-70 39 -59 2 2 20 62 41 134 20 72 38 136 40 143 3 6 1 12 -4 12 -4 0 -18 -24
-32 -52z"/>
</g>
</svg>
