<?xml version="1.0" standalone="no"?>
<!DOCTYPE svg PUBLIC "-//W3C//DTD SVG 20010904//EN"
 "http://www.w3.org/TR/2001/REC-SVG-20010904/DTD/svg10.dtd">
<svg version="1.0" xmlns="http://www.w3.org/2000/svg"
 width="90.000000pt" height="92.000000pt" viewBox="0 0 90.000000 92.000000"
 preserveAspectRatio="xMidYMid meet">
<metadata>
Created by potrace 1.16, written by Peter Selinger 2001-2019
</metadata>
<g transform="translate(0.000000,92.000000) scale(0.100000,-0.100000)"
fill="#000000" stroke="none">
<path d="M402 743 c-8 -38 -30 -84 -62 -133 -27 -41 -47 -76 -45 -78 2 -2 12
2 23 9 16 10 26 8 61 -11 22 -13 41 -27 41 -31 0 -5 -32 -40 -70 -79 -39 -38
-67 -70 -62 -70 16 0 97 56 127 88 16 18 34 32 39 32 5 0 27 -15 50 -33 91
-74 117 -87 178 -87 64 0 158 18 158 30 0 4 -21 11 -47 15 -89 13 -178 38
-250 71 l-73 33 50 81 c28 45 50 85 50 90 0 4 -13 13 -30 20 -25 10 -37 10
-70 -4 -22 -9 -43 -16 -46 -16 -3 0 9 21 27 47 l32 46 -23 19 c-35 29 -45 22
-58 -39z m91 -89 c3 -4 -7 -33 -24 -65 l-29 -59 -44 22 -44 21 26 34 c15 18
38 36 52 39 14 3 30 7 35 9 16 6 21 5 28 -1z"/>
<path d="M176 728 c-21 -61 -53 -112 -91 -150 -21 -21 -26 -33 -21 -53 7 -28
18 -30 65 -14 18 6 34 9 38 6 8 -8 -79 -115 -99 -122 -23 -8 -23 -28 0 -48 16
-15 23 -13 97 24 l79 40 17 -22 c27 -36 51 -2 33 46 -7 18 -58 47 -67 38 -4
-3 -2 -13 3 -23 8 -15 1 -21 -47 -39 -31 -12 -57 -20 -59 -18 -2 2 37 50 87
106 84 94 91 104 81 127 -17 37 -35 29 -61 -26 -23 -49 -25 -50 -67 -50 -24 0
-44 3 -44 8 0 4 30 42 65 86 36 43 65 85 65 92 0 12 -37 44 -50 44 -3 0 -14
-23 -24 -52z"/>
<path d="M650 750 c0 -31 -44 -133 -79 -184 -41 -59 -25 -59 36 -1 l47 45 57
-56 c61 -60 89 -66 89 -20 0 29 -44 66 -101 86 l-35 13 25 49 26 49 -24 20
c-30 24 -41 24 -41 -1z"/>
<path d="M230 334 c0 -16 43 -74 55 -74 16 0 23 18 18 41 -6 23 -73 52 -73 33z"/>
<path d="M540 319 c-36 -11 -93 -21 -127 -22 -34 -2 -65 -6 -69 -10 -4 -4 -2
-7 4 -7 12 0 27 -49 38 -125 9 -67 18 -77 52 -60 15 7 68 16 117 20 l90 7 1
36 c0 21 10 59 23 86 l24 49 -29 24 c-34 27 -38 27 -124 2z m54 -38 c9 -15 -6
-101 -20 -116 -13 -13 -131 -32 -140 -22 -3 3 -8 30 -11 60 l-6 56 44 11 c24
6 49 13 54 15 20 7 74 5 79 -4z"/>
<path d="M150 297 c0 -17 48 -87 60 -87 22 0 10 59 -16 79 -31 24 -44 26 -44
8z"/>
<path d="M56 258 c11 -36 43 -96 55 -103 19 -12 32 12 25 49 -5 25 -16 41 -40
55 -42 27 -49 26 -40 -1z"/>
</g>
</svg>
