<?xml version="1.0" standalone="no"?>
<!DOCTYPE svg PUBLIC "-//W3C//DTD SVG 20010904//EN"
 "http://www.w3.org/TR/2001/REC-SVG-20010904/DTD/svg10.dtd">
<svg version="1.0" xmlns="http://www.w3.org/2000/svg"
 width="90.000000pt" height="92.000000pt" viewBox="0 0 90.000000 92.000000"
 preserveAspectRatio="xMidYMid meet">
<metadata>
Created by potrace 1.16, written by Peter Selinger 2001-2019
</metadata>
<g transform="translate(0.000000,92.000000) scale(0.100000,-0.100000)"
fill="#000000" stroke="none">
<path d="M522 823 c-17 -53 -75 -128 -122 -158 -41 -26 -49 -49 -27 -78 11
-15 17 -15 87 7 41 12 108 31 149 41 70 17 74 17 83 0 17 -29 48 -56 58 -50
21 13 10 71 -17 98 -27 25 -101 62 -109 54 -2 -2 5 -16 17 -31 15 -19 17 -27
7 -30 -14 -5 -162 -26 -180 -26 -6 0 19 31 55 69 37 38 67 73 67 79 0 12 -39
62 -49 62 -4 0 -13 -17 -19 -37z"/>
<path d="M155 798 c10 -31 24 -144 24 -195 l1 -42 -55 -6 c-80 -10 -71 -39 12
-37 l43 0 0 -89 0 -89 -75 -22 c-41 -13 -75 -26 -75 -30 0 -14 44 -48 62 -48
23 0 257 152 242 157 -6 2 -32 -5 -57 -16 l-47 -20 0 84 0 84 38 7 c58 10 76
22 61 41 -10 11 -24 14 -57 9 l-45 -6 6 83 c3 45 8 92 12 104 6 17 1 25 -24
37 -16 9 -40 16 -52 16 -18 0 -20 -4 -14 -22z"/>
<path d="M421 524 c-7 -26 -23 -69 -37 -96 -24 -46 -24 -49 -5 -38 12 6 31 24
43 40 16 23 30 30 54 30 28 0 33 -4 39 -30 4 -16 4 -43 0 -58 -6 -29 -7 -29
-122 -42 l-117 -13 28 -23 c32 -28 36 -29 116 -8 33 8 65 14 70 12 14 -5 -23
-79 -60 -121 -17 -20 -58 -53 -91 -73 -32 -19 -59 -37 -59 -39 0 -11 110 31
146 56 45 31 103 104 123 156 12 30 15 32 88 39 41 3 100 4 130 1 68 -7 86 -1
73 23 -15 27 -59 39 -121 30 -29 -5 -75 -11 -101 -14 l-47 -5 16 46 c15 43 15
47 -2 59 -20 15 -23 13 78 31 52 9 62 19 35 37 -13 7 -45 5 -122 -10 l-105
-21 6 28 c4 21 0 30 -15 38 -29 15 -28 16 -41 -35z"/>
<path d="M647 193 c91 -107 123 -137 135 -125 6 6 8 25 4 45 -7 39 -52 84
-116 117 -69 35 -75 25 -23 -37z"/>
</g>
</svg>
