<?xml version="1.0" standalone="no"?>
<!DOCTYPE svg PUBLIC "-//W3C//DTD SVG 20010904//EN"
 "http://www.w3.org/TR/2001/REC-SVG-20010904/DTD/svg10.dtd">
<svg version="1.0" xmlns="http://www.w3.org/2000/svg"
 width="96.000000pt" height="68.000000pt" viewBox="0 0 96.000000 68.000000"
 preserveAspectRatio="xMidYMid meet">
<metadata>
Created by potrace 1.16, written by Peter Selinger 2001-2019
</metadata>
<g transform="translate(0.000000,68.000000) scale(0.100000,-0.100000)"
fill="#000000" stroke="none">
<path d="M595 628 c-2 -7 -6 -29 -7 -48 -3 -32 -6 -35 -38 -38 -56 -4 -65 -9
-49 -28 8 -10 23 -14 41 -12 15 3 28 4 28 2 0 -1 -7 -18 -16 -39 -21 -51 -4
-65 28 -23 13 18 27 40 30 49 7 18 49 29 114 29 23 0 46 5 49 10 10 16 -46 32
-93 27 l-43 -5 16 24 c14 22 14 25 -5 44 -23 23 -48 26 -55 8z"/>
<path d="M287 604 c-3 -4 1 -20 9 -37 20 -37 8 -47 -58 -47 -36 0 -48 -4 -48
-15 0 -30 66 -41 121 -20 10 4 20 -5 32 -30 22 -46 37 -44 37 5 0 24 5 42 13
45 6 2 26 10 42 17 l30 13 -47 3 c-42 3 -47 6 -53 32 -7 31 -58 54 -78 34z"/>
<path d="M435 403 c5 -15 8 -128 5 -265 0 -15 -9 -18 -55 -18 l-55 0 0 84 c0
88 -4 96 -52 96 -15 0 -18 -4 -14 -17 4 -9 10 -52 13 -95 l6 -78 -72 0 c-69 0
-95 -14 -48 -25 13 -4 137 -1 276 4 139 6 277 11 307 11 40 0 54 4 54 14 0 24
-35 29 -174 25 l-131 -4 -1 61 -2 62 87 7 c47 4 95 10 106 14 19 8 19 8 -2 19
-16 9 -39 8 -98 -3 -42 -8 -79 -15 -81 -15 -2 0 -4 29 -4 64 0 67 -6 76 -52
76 -15 0 -18 -4 -13 -17z"/>
</g>
</svg>
