<?xml version="1.0" standalone="no"?>
<!DOCTYPE svg PUBLIC "-//W3C//DTD SVG 20010904//EN"
 "http://www.w3.org/TR/2001/REC-SVG-20010904/DTD/svg10.dtd">
<svg version="1.0" xmlns="http://www.w3.org/2000/svg"
 width="96.000000pt" height="68.000000pt" viewBox="0 0 96.000000 68.000000"
 preserveAspectRatio="xMidYMid meet">
<metadata>
Created by potrace 1.16, written by Peter Selinger 2001-2019
</metadata>
<g transform="translate(0.000000,68.000000) scale(0.100000,-0.100000)"
fill="#000000" stroke="none">
<path d="M290 394 c-36 -7 -83 -11 -104 -8 -34 6 -38 4 -32 -12 28 -72 13
-217 -29 -278 -28 -41 -20 -47 18 -12 44 41 59 84 66 185 l6 96 74 8 c40 4 76
5 80 2 11 -12 7 -263 -5 -275 -8 -8 -19 -8 -39 0 l-27 10 28 -34 c33 -40 45
-43 66 -18 20 22 33 323 15 341 -13 13 -33 13 -117 -5z"/>
</g>
</svg>
