<?xml version="1.0" standalone="no"?>
<!DOCTYPE svg PUBLIC "-//W3C//DTD SVG 20010904//EN"
 "http://www.w3.org/TR/2001/REC-SVG-20010904/DTD/svg10.dtd">
<svg version="1.0" xmlns="http://www.w3.org/2000/svg"
 width="96.000000pt" height="68.000000pt" viewBox="0 0 96.000000 68.000000"
 preserveAspectRatio="xMidYMid meet">
<metadata>
Created by potrace 1.16, written by Peter Selinger 2001-2019
</metadata>
<g transform="translate(0.000000,68.000000) scale(0.100000,-0.100000)"
fill="#000000" stroke="none">
<path d="M550 567 c0 -16 -52 -71 -104 -109 -44 -32 -33 -37 22 -9 37 18 37
18 79 -4 41 -22 41 -23 23 -40 -18 -16 -22 -16 -54 -1 -19 9 -42 16 -52 16
-16 0 -16 -1 1 -20 10 -11 24 -20 32 -20 27 0 11 -21 -39 -50 -29 -16 -47 -30
-41 -30 33 0 144 56 198 100 33 27 81 67 107 87 26 21 47 41 48 44 1 17 -57
30 -84 19 -16 -6 -46 -14 -68 -19 -38 -9 -39 -9 -23 9 9 10 14 24 10 29 -9 16
-55 14 -55 -2z m120 -55 c0 -4 -14 -24 -31 -45 -31 -37 -32 -38 -46 -18 -9 13
-25 21 -44 21 -16 0 -29 4 -29 10 0 10 13 14 95 29 28 5 51 9 53 10 1 0 2 -2
2 -7z"/>
</g>
</svg>
