<?xml version="1.0" standalone="no"?>
<!DOCTYPE svg PUBLIC "-//W3C//DTD SVG 20010904//EN"
 "http://www.w3.org/TR/2001/REC-SVG-20010904/DTD/svg10.dtd">
<svg version="1.0" xmlns="http://www.w3.org/2000/svg"
 width="90.000000pt" height="92.000000pt" viewBox="0 0 90.000000 92.000000"
 preserveAspectRatio="xMidYMid meet">
<metadata>
Created by potrace 1.16, written by Peter Selinger 2001-2019
</metadata>
<g transform="translate(0.000000,92.000000) scale(0.100000,-0.100000)"
fill="#000000" stroke="none">
<path d="M360 888 c0 -7 11 -32 24 -54 l23 -42 -45 -6 c-24 -3 -73 -6 -108 -6
-49 0 -65 4 -73 17 -12 21 -10 24 -50 -59 -26 -55 -30 -71 -21 -88 16 -29 44
-11 65 43 l16 43 152 17 c180 22 327 32 327 24 0 -3 -9 -22 -21 -41 -12 -20
-17 -36 -12 -36 17 1 122 28 132 35 27 16 -53 91 -93 87 -12 -1 -66 -8 -122
-15 -99 -13 -100 -13 -97 7 6 28 -15 52 -59 71 -29 12 -38 12 -38 3z"/>
<path d="M462 724 c5 -40 -4 -47 -79 -57 -33 -4 -40 -2 -36 9 8 22 -16 44 -49
44 -31 0 -31 1 -11 -46 2 -7 -11 -14 -32 -18 -41 -8 -38 -26 5 -26 27 0 40
-15 40 -46 0 -8 -10 -14 -22 -14 -13 0 -30 -5 -38 -10 -13 -9 -13 -11 0 -20 8
-5 27 -10 43 -10 22 0 27 -5 27 -24 0 -20 -6 -24 -46 -30 -26 -3 -73 -6 -105
-6 -68 0 -84 -15 -37 -35 26 -10 45 -11 78 -4 24 5 50 8 59 7 25 -5 -65 -95
-167 -168 -96 -69 -81 -76 37 -18 70 34 201 151 201 179 0 14 15 18 79 24 49
4 86 3 98 -3 11 -6 55 -50 98 -99 102 -113 113 -123 155 -123 41 0 110 18 110
29 0 4 -33 20 -72 35 -80 31 -141 69 -205 128 l-43 38 95 0 c74 0 95 3 95 14
0 27 -54 38 -150 30 l-92 -7 4 29 c3 24 9 29 43 36 22 5 44 13 49 18 10 10
-62 32 -77 23 -6 -4 -8 1 -4 11 4 10 7 21 7 26 0 5 18 11 40 15 62 11 52 42
-12 37 -12 -1 -18 5 -18 18 0 11 -12 26 -30 35 -40 21 -43 20 -38 -21z m-2
-108 c0 -21 -6 -24 -51 -30 -57 -8 -54 -9 -63 21 -6 19 -3 22 26 26 81 10 88
8 88 -17z m0 -96 c0 -30 -1 -30 -55 -30 -52 0 -55 1 -55 24 0 20 6 25 33 29
76 9 77 9 77 -23z"/>
<path d="M387 370 l6 -50 -44 -1 c-24 0 -53 -4 -64 -9 -18 -7 -18 -9 10 -20
17 -6 45 -10 63 -8 l33 4 -2 -113 c-2 -82 1 -117 11 -128 27 -33 40 9 40 131
l0 113 48 7 c26 4 56 10 66 14 19 6 18 8 -6 24 -21 13 -34 15 -68 7 l-42 -9 5
33 c6 37 -7 55 -40 55 -21 0 -22 -3 -16 -50z"/>
<path d="M270 223 c0 -10 -26 -44 -57 -76 -49 -49 -54 -57 -29 -47 44 16 156
94 156 108 0 7 -12 17 -26 22 -36 14 -44 13 -44 -7z"/>
<path d="M510 231 c0 -6 8 -16 18 -23 10 -7 35 -34 55 -60 45 -55 63 -64 77
-38 20 38 2 68 -63 100 -62 31 -87 37 -87 21z"/>
</g>
</svg>
