<?xml version="1.0" standalone="no"?>
<!DOCTYPE svg PUBLIC "-//W3C//DTD SVG 20010904//EN"
 "http://www.w3.org/TR/2001/REC-SVG-20010904/DTD/svg10.dtd">
<svg version="1.0" xmlns="http://www.w3.org/2000/svg"
 width="90.000000pt" height="92.000000pt" viewBox="0 0 90.000000 92.000000"
 preserveAspectRatio="xMidYMid meet">
<metadata>
Created by potrace 1.16, written by Peter Selinger 2001-2019
</metadata>
<g transform="translate(0.000000,92.000000) scale(0.100000,-0.100000)"
fill="#000000" stroke="none">
<path d="M175 848 c4 -13 9 -71 12 -129 6 -121 14 -112 -100 -125 -84 -10 -67
-29 25 -29 73 0 75 -1 67 -21 -26 -71 -94 -187 -133 -231 -45 -50 -56 -73 -35
-73 20 0 114 105 147 165 l33 60 -6 -85 c-3 -47 -11 -119 -17 -160 -9 -64 -8
-81 6 -114 16 -38 17 -39 34 -23 14 15 17 43 20 192 2 96 5 175 7 175 2 0 18
-14 35 -31 34 -35 54 -29 48 12 -2 18 -14 28 -45 39 -40 13 -43 17 -43 50 0
48 7 55 68 70 31 7 52 17 52 26 0 20 -44 28 -81 15 l-32 -11 6 73 c4 39 9 86
13 104 6 28 3 34 -27 52 -46 28 -63 27 -54 -1z"/>
<path d="M699 756 c-2 -2 -76 -16 -164 -31 -198 -33 -196 -32 -170 -51 13 -10
32 -14 56 -10 44 7 49 -1 49 -84 l0 -59 -37 -10 c-21 -6 -50 -11 -64 -11 -26
0 -27 -1 -17 -42 5 -24 7 -64 4 -89 -6 -60 6 -73 52 -54 68 29 72 25 72 -69
l0 -83 -37 -7 c-21 -3 -59 -6 -85 -6 -61 0 -82 -8 -67 -26 19 -23 74 -27 151
-9 47 11 137 19 251 22 141 5 177 9 177 20 0 7 -15 21 -34 30 -30 14 -44 15
-107 4 -39 -6 -74 -9 -77 -7 -2 3 -1 40 4 83 l9 78 62 9 c58 8 62 10 57 31 -3
13 3 43 15 70 28 63 27 72 -10 91 -31 15 -71 12 -134 -12 -15 -6 -17 1 -13 77
3 96 4 96 96 98 28 1 52 5 52 10 0 23 -74 53 -91 37z m-110 -156 c-2 -107 8
-127 50 -106 15 8 44 18 65 22 l39 7 -6 -58 c-3 -32 -10 -62 -15 -67 -5 -5
-37 -12 -71 -15 -49 -5 -61 -9 -56 -20 14 -39 17 -69 10 -128 l-7 -65 -35 0
-36 0 7 93 c6 91 5 94 -16 104 -17 7 -35 6 -66 -5 -24 -8 -46 -12 -49 -9 -3 4
-2 31 1 61 l7 55 60 12 c32 6 59 13 59 15 0 3 -5 12 -11 22 -8 13 -9 44 -4 95
l7 77 34 0 35 0 -2 -90z"/>
</g>
</svg>
