<?xml version="1.0" standalone="no"?>
<!DOCTYPE svg PUBLIC "-//W3C//DTD SVG 20010904//EN"
 "http://www.w3.org/TR/2001/REC-SVG-20010904/DTD/svg10.dtd">
<svg version="1.0" xmlns="http://www.w3.org/2000/svg"
 width="90.000000pt" height="92.000000pt" viewBox="0 0 90.000000 92.000000"
 preserveAspectRatio="xMidYMid meet">
<metadata>
Created by potrace 1.16, written by Peter Selinger 2001-2019
</metadata>
<g transform="translate(0.000000,92.000000) scale(0.100000,-0.100000)"
fill="#000000" stroke="none">
<path d="M361 873 c-7 -20 -32 -56 -54 -80 -33 -36 -39 -48 -30 -61 12 -19 13
-19 103 1 36 8 66 13 68 12 2 -2 -1 -12 -7 -24 -13 -24 -37 -29 -195 -39 -123
-7 -147 -17 -101 -42 19 -10 36 -11 77 -2 29 6 73 14 98 17 l45 6 -28 -24
c-15 -12 -52 -35 -82 -51 -30 -15 -55 -30 -55 -32 0 -8 55 9 119 37 35 16 66
27 69 24 15 -15 -69 -74 -158 -111 -30 -13 -50 -23 -44 -24 24 0 141 41 183
65 30 18 48 22 55 15 7 -7 4 -15 -10 -25 -43 -34 -113 -71 -194 -103 -70 -27
-78 -32 -43 -27 54 7 122 29 197 65 l58 28 -6 -36 c-7 -47 -17 -55 -50 -42
l-28 10 32 -40 c36 -45 45 -46 73 -7 16 20 20 41 19 91 -1 36 0 66 2 66 3 0
37 -27 76 -60 39 -33 78 -60 86 -60 23 0 28 28 9 56 -16 25 -110 74 -140 74
-37 0 -9 18 55 34 39 10 70 22 70 25 0 4 -11 18 -25 31 l-24 23 -40 -36 c-66
-60 -80 -64 -107 -31 -26 32 -29 44 -13 44 6 0 8 7 5 16 -5 14 12 16 166 13
145 -2 173 0 170 12 -5 21 -33 39 -62 39 -15 0 -75 -5 -134 -11 -59 -6 -109
-9 -111 -7 -2 2 23 33 55 68 33 36 59 70 60 77 1 27 -39 35 -87 19 -57 -20
-82 -21 -65 -4 9 9 8 16 -5 30 -24 27 -37 22 -52 -19z m118 -72 c-10 -27 -15
-30 -75 -36 -36 -4 -68 -5 -71 -1 -15 15 41 55 81 59 22 2 49 4 58 5 15 2 15
-2 7 -27z"/>
<path d="M547 361 c5 -34 3 -39 -18 -44 -13 -4 -43 -7 -66 -7 -41 0 -55 -11
-33 -25 5 -3 17 -30 25 -59 l16 -53 44 5 45 5 0 -36 0 -35 -64 -7 c-36 -4 -69
-4 -75 -1 -5 4 -13 1 -17 -5 -9 -15 47 -60 66 -53 8 3 67 19 130 35 l115 29
23 -30 c27 -35 48 -38 57 -10 9 30 -16 64 -66 88 -48 24 -55 23 -40 -6 9 -17
7 -20 -21 -26 -58 -11 -67 -8 -63 22 2 15 4 30 4 34 1 3 28 9 62 13 43 5 58
10 50 18 -7 7 0 23 24 53 19 23 35 45 35 48 0 3 -14 13 -31 21 -25 13 -39 14
-80 6 -64 -14 -61 -15 -58 12 5 32 -8 47 -41 47 -27 0 -28 -2 -23 -39z m145
-57 c3 -3 1 -20 -4 -39 -9 -28 -16 -34 -44 -37 -33 -4 -34 -3 -34 33 0 27 5
39 18 42 26 7 58 8 64 1z m-134 -51 c-3 -35 -6 -38 -35 -41 -31 -3 -33 -2 -33
31 0 41 5 47 42 47 28 0 29 -2 26 -37z"/>
<path d="M198 384 c-3 -3 -1 -18 5 -34 6 -16 8 -32 5 -36 -4 -3 -34 -7 -67 -7
-62 -2 -69 -5 -50 -24 6 -6 16 -32 23 -59 13 -51 17 -53 69 -39 26 7 27 6 27
-33 l0 -40 -57 -10 c-32 -5 -63 -7 -70 -5 -7 3 -20 2 -29 -1 -15 -6 -14 -10 6
-31 13 -14 30 -25 37 -25 8 0 59 16 114 35 56 19 107 35 115 35 8 0 19 -11 24
-25 12 -32 28 -32 36 1 5 18 1 34 -13 52 -23 31 -60 44 -50 19 4 -10 -1 -18
-11 -21 -9 -2 -27 -7 -39 -11 -21 -6 -23 -3 -23 28 0 31 4 35 31 41 17 3 42 6
55 6 16 0 22 5 18 14 -3 7 6 27 20 44 15 16 26 35 26 41 0 20 -43 33 -92 28
-46 -6 -48 -5 -48 19 0 17 -8 27 -26 34 -30 12 -29 12 -36 4z m125 -90 c3 -3
1 -19 -5 -35 -8 -23 -16 -29 -38 -29 -25 0 -28 3 -26 27 2 19 11 30 27 34 33
10 35 10 42 3z m-113 -39 c0 -32 -2 -35 -30 -35 -19 0 -30 5 -30 14 0 8 -3 21
-6 29 -4 11 2 17 23 20 15 2 31 5 36 6 4 0 7 -15 7 -34z"/>
</g>
</svg>
