<?xml version="1.0" standalone="no"?>
<!DOCTYPE svg PUBLIC "-//W3C//DTD SVG 20010904//EN"
 "http://www.w3.org/TR/2001/REC-SVG-20010904/DTD/svg10.dtd">
<svg version="1.0" xmlns="http://www.w3.org/2000/svg"
 width="96.000000pt" height="68.000000pt" viewBox="0 0 96.000000 68.000000"
 preserveAspectRatio="xMidYMid meet">
<metadata>
Created by potrace 1.16, written by Peter Selinger 2001-2019
</metadata>
<g transform="translate(0.000000,68.000000) scale(0.100000,-0.100000)"
fill="#000000" stroke="none">
<path d="M410 599 c-7 -16 -28 -42 -46 -56 -37 -27 -38 -31 -25 -52 8 -12 18
-12 69 -1 65 13 85 12 74 -7 -5 -7 -54 -14 -132 -18 -69 -4 -129 -11 -134 -15
-17 -16 36 -21 114 -9 45 6 83 9 86 6 3 -3 -17 -18 -46 -32 -66 -33 -59 -42
11 -15 63 23 59 23 59 11 0 -12 -77 -55 -127 -72 -21 -7 -32 -14 -26 -16 13
-5 103 26 153 52 33 17 48 5 22 -18 -22 -19 -103 -56 -162 -73 -43 -13 -43
-13 -7 -8 34 4 123 31 170 49 16 7 18 3 15 -21 -2 -21 -9 -30 -25 -32 -13 -2
-23 -6 -23 -9 0 -9 34 -32 47 -33 18 0 41 50 38 85 -1 17 0 33 2 37 2 5 30 -9
61 -30 67 -46 89 -55 98 -41 14 23 -25 56 -88 74 l-63 18 50 14 c75 21 75 21
69 38 -8 20 -53 19 -73 -2 -9 -10 -26 -24 -39 -31 -19 -11 -26 -10 -47 5 -29
21 -29 22 -10 47 13 17 26 18 155 14 77 -2 140 -1 140 3 0 22 -47 31 -134 24
-50 -3 -99 -9 -108 -11 -31 -9 -19 17 28 62 26 25 42 49 38 55 -7 12 -73 8
-108 -7 -14 -5 -17 -4 -12 5 4 6 2 18 -4 26 -20 24 -47 17 -60 -16z m114 -37
c11 -18 -13 -32 -67 -38 -60 -7 -75 4 -34 24 46 22 92 29 101 14z"/>
<path d="M584 229 l6 -31 -133 5 c-119 4 -132 6 -132 22 0 12 -9 20 -28 22
-25 3 -28 1 -22 -18 9 -29 -8 -39 -70 -39 -37 0 -46 -3 -33 -10 9 -6 22 -26
28 -45 10 -31 14 -34 48 -32 33 2 37 -1 37 -23 0 -28 -23 -37 -100 -39 -44 -1
-48 -3 -34 -16 22 -22 40 -21 147 9 l94 26 18 -22 c17 -21 19 -22 26 -5 4 12
-1 26 -16 43 -26 27 -45 32 -36 9 3 -8 0 -15 -7 -15 -7 0 -22 -3 -34 -6 -19
-5 -23 -2 -23 19 0 27 16 37 61 37 17 0 29 5 29 13 0 8 12 24 26 38 25 24 26
24 41 4 8 -11 19 -32 25 -47 9 -26 13 -27 49 -22 38 6 39 6 39 -25 l0 -31 -65
0 c-66 0 -78 -7 -50 -30 12 -10 27 -11 68 -2 29 6 83 17 120 23 64 11 69 10
91 -10 29 -28 46 -27 46 3 0 19 -10 29 -43 45 -51 25 -61 26 -54 7 6 -16 -13
-26 -49 -26 -19 0 -24 5 -24 24 0 21 6 24 55 31 30 3 55 11 55 18 0 6 10 21
21 34 19 19 20 25 8 39 -11 13 -25 15 -71 10 -52 -5 -58 -4 -58 13 0 19 -18
31 -47 31 -12 0 -14 -7 -9 -31z m126 -47 c0 -26 -20 -42 -52 -42 -50 0 -27 53
25 58 20 1 27 -3 27 -16z m-330 -17 c0 -21 -5 -25 -30 -25 -22 0 -30 5 -30 18
0 25 9 32 37 32 18 0 23 -5 23 -25z m-100 -11 c0 -22 -4 -25 -27 -22 -20 2
-29 9 -31 26 -3 19 1 22 27 22 27 0 31 -4 31 -26z m310 1 c0 -21 -5 -25 -29
-25 -17 0 -31 6 -35 16 -9 23 2 34 35 34 24 0 29 -4 29 -25z"/>
</g>
</svg>
