<?xml version="1.0" standalone="no"?>
<!DOCTYPE svg PUBLIC "-//W3C//DTD SVG 20010904//EN"
 "http://www.w3.org/TR/2001/REC-SVG-20010904/DTD/svg10.dtd">
<svg version="1.0" xmlns="http://www.w3.org/2000/svg"
 width="96.000000pt" height="68.000000pt" viewBox="0 0 96.000000 68.000000"
 preserveAspectRatio="xMidYMid meet">
<metadata>
Created by potrace 1.16, written by Peter Selinger 2001-2019
</metadata>
<g transform="translate(0.000000,68.000000) scale(0.100000,-0.100000)"
fill="#000000" stroke="none">
<path d="M290 528 c0 -37 -69 -145 -141 -220 -36 -37 -64 -68 -62 -68 12 0 72
37 101 61 43 38 89 40 98 5 8 -35 -2 -46 -44 -46 -20 0 -44 -5 -52 -10 -11 -7
2 -10 43 -10 l58 0 -3 -62 c-3 -59 -4 -62 -33 -70 -16 -5 -54 -11 -83 -13 -30
-2 -56 -6 -59 -8 -2 -3 7 -13 21 -22 30 -20 33 -20 186 35 155 55 171 74 38
44 -28 -6 -28 -6 -28 49 0 58 7 67 55 67 13 0 27 5 30 10 6 10 -13 14 -51 11
-17 -1 -23 5 -26 29 -4 28 -2 31 34 36 38 7 49 18 26 27 -7 2 -22 1 -33 -3
-11 -4 -44 -11 -73 -15 l-53 -7 46 66 47 66 36 -30 c43 -35 62 -38 62 -9 0 24
-26 48 -52 49 -9 0 -23 12 -30 28 -17 36 -58 43 -58 10z"/>
<path d="M375 200 c-12 -23 -12 -30 -3 -30 22 1 61 36 54 49 -13 20 -35 12
-51 -19z"/>
<path d="M186 188 c15 -27 38 -48 51 -48 20 0 16 38 -6 50 -28 14 -54 13 -45
-2z"/>
</g>
</svg>
