<?xml version="1.0" standalone="no"?>
<!DOCTYPE svg PUBLIC "-//W3C//DTD SVG 20010904//EN"
 "http://www.w3.org/TR/2001/REC-SVG-20010904/DTD/svg10.dtd">
<svg version="1.0" xmlns="http://www.w3.org/2000/svg"
 width="90.000000pt" height="92.000000pt" viewBox="0 0 90.000000 92.000000"
 preserveAspectRatio="xMidYMid meet">
<metadata>
Created by potrace 1.16, written by Peter Selinger 2001-2019
</metadata>
<g transform="translate(0.000000,92.000000) scale(0.100000,-0.100000)"
fill="#000000" stroke="none">
<path d="M680 829 c-37 -9 -207 -34 -303 -44 -56 -6 -58 -8 -42 -25 33 -37 14
-269 -36 -420 -11 -36 -38 -99 -60 -139 -21 -41 -37 -76 -35 -78 8 -9 88 94
111 143 27 57 25 56 74 26 3 -1 6 -41 7 -88 2 -48 8 -92 14 -98 21 -21 31 17
28 106 -3 98 -6 94 72 104 l50 7 0 -37 c0 -30 -4 -37 -25 -42 -14 -3 -37 -4
-50 -2 -30 6 -33 -12 -7 -35 24 -22 24 -22 96 7 97 39 113 41 121 17 10 -32
35 -26 35 8 0 31 -47 81 -76 81 -12 0 -12 -4 2 -25 13 -20 13 -25 3 -25 -8 0
-24 -3 -36 -6 -21 -6 -23 -3 -23 29 l0 35 73 7 c115 11 112 13 112 -82 0 -97
-9 -111 -59 -96 l-34 11 30 -49 c16 -27 34 -51 39 -55 5 -3 22 8 38 24 24 24
30 39 35 98 4 38 12 89 17 114 10 43 9 46 -18 67 -33 27 -28 27 -126 8 -104
-20 -107 -20 -107 10 0 21 5 25 33 27 17 0 42 0 53 -1 19 -1 26 11 52 81 l30
83 -21 17 c-28 22 -38 22 -142 -3 -48 -11 -111 -21 -141 -22 -33 -1 -54 -6
-54 -14 0 -6 5 -13 10 -15 6 -2 18 -32 26 -68 16 -71 32 -104 41 -82 2 6 20
12 39 12 29 0 34 -3 34 -24 0 -22 -5 -25 -60 -31 -48 -6 -63 -4 -75 9 -9 9
-25 16 -36 16 -16 0 -19 -5 -14 -20 5 -16 2 -20 -15 -20 -17 0 -21 4 -15 18
12 33 44 177 51 235 6 59 11 66 32 45 9 -9 18 -9 37 0 23 11 26 9 35 -14 12
-31 34 -21 27 13 -3 19 1 27 22 36 l26 11 -28 4 c-18 2 -31 12 -37 28 -7 17
-17 24 -35 24 -29 0 -30 -3 -9 -35 15 -23 15 -24 -10 -31 -13 -3 -30 -3 -35 1
-12 7 -14 64 -3 81 4 6 45 14 92 18 94 8 247 33 263 43 13 8 -21 33 -42 32 -9
-1 -32 -5 -51 -10z m8 -281 c3 -24 0 -25 -37 -24 -23 0 -41 4 -41 8 0 3 -3 13
-6 21 -4 12 3 17 28 20 48 5 53 3 56 -25z m-138 -18 c12 -22 11 -23 -42 -34
-16 -4 -28 -2 -28 3 0 5 -3 16 -6 24 -3 10 2 17 13 20 37 10 53 6 63 -13z
m133 -37 c12 -21 -11 -46 -44 -48 -32 -1 -35 1 -31 21 5 25 64 46 75 27z
m-123 -43 c0 -16 -7 -20 -35 -20 -28 0 -35 4 -35 20 0 16 7 20 35 20 28 0 35
-4 35 -20z"/>
<path d="M117 788 c4 -18 8 -67 8 -108 l0 -75 -64 -5 c-55 -4 -62 -7 -48 -18
9 -8 19 -37 22 -67 7 -56 32 -101 41 -77 3 6 17 12 30 12 22 0 24 -4 24 -54
l0 -53 -44 -13 c-24 -6 -53 -9 -65 -5 -30 9 -27 -16 4 -45 l25 -24 91 49 92
48 17 -23 c19 -25 40 -20 40 11 0 31 -18 57 -51 74 -30 16 -30 16 -27 -11 2
-20 -3 -28 -19 -35 -22 -8 -23 -6 -23 40 l0 49 55 7 c48 6 55 9 50 24 -3 10 4
40 15 66 11 26 19 49 18 50 -21 18 -67 31 -83 24 -44 -17 -48 -13 -42 49 4 31
9 71 13 88 5 26 2 32 -21 42 -14 7 -35 12 -46 12 -18 0 -20 -4 -12 -32z m113
-225 c0 -44 -8 -58 -35 -65 -18 -4 -20 -1 -17 36 5 58 9 66 32 66 17 0 20 -6
20 -37z m-100 -33 c0 -46 -2 -50 -24 -50 -20 0 -24 6 -30 42 -7 43 2 58 37 58
14 0 17 -9 17 -50z"/>
<path d="M660 731 c0 -35 -3 -40 -25 -43 -32 -4 -37 -22 -7 -26 19 -3 21 -8
15 -30 -6 -24 -5 -26 10 -14 9 8 19 22 22 33 5 15 16 19 55 19 50 0 73 15 49
31 -8 5 -29 8 -46 6 -35 -3 -40 2 -22 20 8 8 4 15 -12 27 -34 23 -39 20 -39
-23z"/>
</g>
</svg>
