<?xml version="1.0" standalone="no"?>
<!DOCTYPE svg PUBLIC "-//W3C//DTD SVG 20010904//EN"
 "http://www.w3.org/TR/2001/REC-SVG-20010904/DTD/svg10.dtd">
<svg version="1.0" xmlns="http://www.w3.org/2000/svg"
 width="96.000000pt" height="68.000000pt" viewBox="0 0 96.000000 68.000000"
 preserveAspectRatio="xMidYMid meet">
<metadata>
Created by potrace 1.16, written by Peter Selinger 2001-2019
</metadata>
<g transform="translate(0.000000,68.000000) scale(0.100000,-0.100000)"
fill="#000000" stroke="none">
<path d="M197 522 c9 -56 8 -100 -1 -110 -4 -4 -31 -8 -59 -9 -65 -2 -65 -2
-48 -12 8 -5 21 -31 31 -57 16 -46 19 -49 48 -46 31 2 32 1 32 -38 l0 -40 -42
0 c-60 0 -76 -12 -44 -34 28 -18 36 -15 151 40 26 13 31 13 41 -1 15 -20 30
-19 38 2 7 17 -16 44 -48 56 -13 5 -17 3 -13 -7 5 -14 -10 -36 -25 -36 -4 0
-8 16 -8 35 0 34 1 34 49 41 35 5 48 10 44 20 -2 7 3 27 13 43 23 40 10 54
-51 55 -42 1 -45 3 -45 28 0 15 5 39 10 54 13 33 5 43 -44 54 l-37 8 8 -46z
m97 -130 c9 -15 -6 -52 -20 -52 -14 0 -20 41 -7 53 9 9 21 9 27 -1z m-94 -43
c0 -39 -30 -37 -41 4 -6 24 -5 27 17 27 20 0 24 -5 24 -31z"/>
<path d="M660 560 c-25 -4 -98 -13 -163 -20 -99 -11 -115 -14 -100 -25 16 -12
16 -21 4 -115 -7 -57 -21 -127 -32 -157 -23 -59 -66 -140 -80 -148 -15 -10
-10 -27 5 -18 19 11 86 99 86 114 0 7 8 9 23 5 12 -3 25 -6 29 -6 4 0 8 -30
10 -67 2 -55 6 -68 21 -71 15 -3 17 5 17 66 0 78 4 82 71 82 35 0 39 -3 39
-24 0 -19 -7 -26 -30 -31 -16 -4 -34 -4 -39 -1 -5 4 -12 2 -16 -3 -12 -21 34
-33 73 -20 20 7 42 14 47 15 69 16 75 16 81 0 8 -20 20 -21 28 0 7 18 -35 64
-60 64 -13 0 -14 -3 -5 -13 14 -17 4 -27 -27 -27 -18 0 -23 4 -18 16 3 9 6 21
6 28 0 8 24 11 78 11 l77 0 3 -44 c2 -25 1 -55 -3 -69 -5 -21 -10 -23 -35 -18
-34 6 -38 -4 -13 -34 23 -27 59 -26 74 2 7 13 18 54 25 93 11 64 10 72 -7 89
-17 18 -23 19 -103 7 -88 -13 -109 -10 -99 14 3 10 20 15 49 15 41 0 45 2 59
37 41 97 26 112 -87 88 -40 -8 -101 -16 -135 -17 -65 -3 -73 -7 -49 -27 7 -6
19 -31 26 -56 l12 -44 44 6 c44 6 51 0 35 -26 -9 -15 -107 -12 -145 4 -16 7
-18 5 -13 -8 4 -12 1 -17 -9 -17 -12 0 -15 6 -10 23 17 55 34 125 40 158 6 34
8 35 48 34 23 -1 43 -6 46 -13 6 -18 22 -15 22 4 0 9 8 23 18 30 16 13 16 13
-3 14 -11 0 -28 9 -38 20 -16 19 -37 27 -37 14 0 -3 5 -14 10 -25 10 -17 7
-19 -26 -19 -33 0 -36 2 -30 23 3 12 6 25 6 28 0 10 35 17 150 29 130 13 160
19 160 31 0 10 -46 10 -110 -1z m44 -188 c9 -15 -9 -29 -39 -28 -28 1 -44 11
-45 29 0 10 77 9 84 -1z m-124 -22 c0 -17 -7 -20 -40 -20 -44 0 -58 25 -17 33
48 9 57 7 57 -13z m120 -24 c0 -22 -17 -36 -41 -36 -27 0 -39 17 -22 33 7 8
63 10 63 3z m-117 -32 c-7 -18 -54 -16 -61 4 -2 8 8 12 32 12 28 0 34 -3 29
-16z"/>
<path d="M677 502 c5 -20 -11 -37 -42 -45 -18 -4 -18 -5 3 -6 12 -1 22 -7 22
-16 0 -19 10 -19 24 1 7 8 31 18 54 21 43 6 49 23 8 23 -15 0 -26 7 -29 20 -3
12 -14 20 -25 20 -15 0 -19 -5 -15 -18z"/>
</g>
</svg>
