<?xml version="1.0" standalone="no"?>
<!DOCTYPE svg PUBLIC "-//W3C//DTD SVG 20010904//EN"
 "http://www.w3.org/TR/2001/REC-SVG-20010904/DTD/svg10.dtd">
<svg version="1.0" xmlns="http://www.w3.org/2000/svg"
 width="96.000000pt" height="68.000000pt" viewBox="0 0 96.000000 68.000000"
 preserveAspectRatio="xMidYMid meet">
<metadata>
Created by potrace 1.16, written by Peter Selinger 2001-2019
</metadata>
<g transform="translate(0.000000,68.000000) scale(0.100000,-0.100000)"
fill="#000000" stroke="none">
<path d="M540 617 c0 -42 -15 -57 -58 -57 -43 0 -38 -24 6 -28 29 -3 30 -5 21
-29 -15 -41 0 -41 34 1 30 35 37 38 100 43 37 3 67 10 67 15 0 15 -52 29 -83
22 -26 -5 -28 -4 -23 14 8 24 -17 52 -45 52 -15 0 -19 -7 -19 -33z"/>
<path d="M267 623 c-4 -3 3 -21 14 -40 l21 -33 -39 -2 c-21 -1 -49 -2 -62 -3
-33 -1 -37 -19 -7 -34 23 -13 41 -12 93 4 18 6 25 2 33 -20 14 -36 36 -27 32
14 -2 22 1 32 10 30 18 -3 48 11 48 22 0 5 -16 9 -35 9 -30 0 -35 3 -35 24 0
13 -7 27 -16 30 -21 8 -49 8 -57 -1z"/>
<path d="M400 479 c0 -6 7 -17 15 -25 8 -9 15 -19 15 -24 0 -15 -67 -23 -144
-18 l-72 5 -18 -44 c-18 -42 -16 -73 3 -73 13 0 41 41 41 60 0 16 32 21 342
56 42 4 54 -7 38 -37 -7 -11 -10 -23 -7 -25 7 -7 106 17 113 28 4 6 -6 21 -22
34 -28 23 -34 24 -126 18 -88 -6 -98 -5 -98 10 0 10 -15 23 -35 32 -41 17 -45
17 -45 3z"/>
<path d="M407 335 c-43 -8 -82 -17 -85 -21 -8 -8 198 2 206 11 19 19 -39 23
-121 10z"/>
<path d="M383 248 c-157 -20 -219 -41 -110 -38 75 2 76 2 70 -21 -7 -25 -87
-105 -128 -126 -47 -25 -12 -27 37 -2 50 25 138 113 138 139 0 12 10 19 33 23
17 2 35 3 40 0 4 -2 7 -31 7 -64 0 -33 4 -68 10 -78 31 -58 216 -68 284 -16
18 13 18 18 6 55 -7 22 -16 40 -20 40 -3 0 -10 -15 -15 -32 -8 -25 -19 -36
-45 -45 -55 -19 -134 -16 -161 6 -22 18 -22 21 -11 71 7 28 10 55 7 60 -2 4
21 10 51 13 57 6 72 12 61 23 -14 14 -102 12 -254 -8z"/>
</g>
</svg>
