<?xml version="1.0" standalone="no"?>
<!DOCTYPE svg PUBLIC "-//W3C//DTD SVG 20010904//EN"
 "http://www.w3.org/TR/2001/REC-SVG-20010904/DTD/svg10.dtd">
<svg version="1.0" xmlns="http://www.w3.org/2000/svg"
 width="90.000000pt" height="92.000000pt" viewBox="0 0 90.000000 92.000000"
 preserveAspectRatio="xMidYMid meet">
<metadata>
Created by potrace 1.16, written by Peter Selinger 2001-2019
</metadata>
<g transform="translate(0.000000,92.000000) scale(0.100000,-0.100000)"
fill="#000000" stroke="none">
<path d="M540 790 c-41 -10 -92 -19 -112 -19 -40 -1 -59 -18 -37 -33 15 -10
105 -4 205 13 69 12 94 24 79 38 -19 18 -60 19 -135 1z"/>
<path d="M130 767 c0 -7 16 -32 36 -56 44 -51 79 -54 79 -7 0 23 -7 34 -30 47
-44 25 -85 32 -85 16z"/>
<path d="M555 649 c-44 -10 -106 -19 -137 -20 -32 -1 -58 -3 -58 -5 0 -3 6
-15 14 -27 8 -12 18 -43 21 -69 8 -52 30 -90 42 -72 5 6 45 14 91 18 l82 7 0
-33 c0 -19 -7 -58 -15 -86 -13 -42 -20 -52 -38 -52 -12 0 -32 -3 -44 -6 -21
-6 -23 -3 -23 36 0 34 -6 48 -34 76 -19 19 -39 34 -44 34 -6 0 2 -33 18 -72
32 -84 30 -86 -52 -87 -56 -1 -62 -16 -15 -36 23 -9 45 -11 77 -5 25 5 109 12
188 16 78 4 142 11 142 15 0 14 -48 41 -72 42 -13 1 -41 -3 -63 -7 -38 -7 -39
-7 -24 11 28 31 70 123 62 136 -14 23 -10 53 17 110 l27 58 -38 19 c-21 11
-40 19 -41 19 -2 -1 -39 -10 -83 -20z m70 -30 c4 -6 4 -30 1 -53 l-7 -43 -86
-12 c-47 -7 -88 -10 -90 -7 -3 3 -8 25 -10 50 -6 50 -12 47 119 66 29 4 56 8
60 9 4 0 10 -4 13 -10z"/>
<path d="M155 559 c-33 -16 -68 -29 -77 -29 -10 0 -18 -4 -18 -10 0 -16 45
-22 86 -11 21 6 40 8 43 5 3 -3 -5 -25 -18 -50 l-24 -45 25 -27 c33 -35 48
-65 48 -95 0 -20 -6 -25 -37 -31 -21 -3 -62 -6 -90 -6 -57 0 -64 -7 -33 -35
18 -16 25 -17 80 -5 33 7 77 10 99 6 21 -3 119 -38 216 -77 148 -59 184 -70
216 -65 47 7 199 65 199 75 0 5 -65 11 -145 15 -170 8 -221 16 -373 59 -90 25
-111 35 -106 47 4 8 9 29 11 46 4 25 -1 36 -26 56 -17 15 -36 28 -43 31 -8 3
8 26 45 64 31 32 57 61 57 65 0 6 -64 49 -71 47 -2 0 -31 -14 -64 -30z"/>
</g>
</svg>
