<?xml version="1.0" standalone="no"?>
<!DOCTYPE svg PUBLIC "-//W3C//DTD SVG 20010904//EN"
 "http://www.w3.org/TR/2001/REC-SVG-20010904/DTD/svg10.dtd">
<svg version="1.0" xmlns="http://www.w3.org/2000/svg"
 width="96.000000pt" height="68.000000pt" viewBox="0 0 96.000000 68.000000"
 preserveAspectRatio="xMidYMid meet">
<metadata>
Created by potrace 1.16, written by Peter Selinger 2001-2019
</metadata>
<g transform="translate(0.000000,68.000000) scale(0.100000,-0.100000)"
fill="#000000" stroke="none">
<path d="M635 360 c-83 -17 -369 -41 -402 -35 l-35 6 22 -31 c12 -17 30 -69
40 -121 11 -50 20 -93 22 -94 2 -2 35 0 73 5 39 4 113 11 166 15 l96 7 13 -31
c14 -35 14 -35 41 -21 27 15 44 55 59 135 7 39 19 82 26 97 8 15 14 29 14 32
0 7 -77 46 -87 45 -4 -1 -26 -5 -48 -9z m33 -39 c8 -5 12 -21 10 -37 -2 -23
-8 -29 -28 -30 -15 -1 -54 -4 -89 -8 l-62 -7 3 38 c3 38 4 38 53 44 79 9 99 9
113 0z m-218 -50 l0 -38 -71 -7 c-77 -8 -84 -5 -94 36 -6 25 -4 27 32 33 21 4
45 8 53 10 8 1 30 3 48 4 31 1 32 0 32 -38z m216 -83 c-3 -18 -10 -35 -14 -39
-4 -4 -40 -9 -79 -11 l-73 -5 0 38 c0 37 1 38 43 42 23 2 62 4 86 5 l44 2 -7
-32z m-216 -22 l0 -33 -61 -7 c-34 -4 -65 -4 -69 1 -11 12 -20 59 -13 67 3 3
37 6 75 6 l68 0 0 -34z"/>
</g>
</svg>
