<?xml version="1.0" standalone="no"?>
<!DOCTYPE svg PUBLIC "-//W3C//DTD SVG 20010904//EN"
 "http://www.w3.org/TR/2001/REC-SVG-20010904/DTD/svg10.dtd">
<svg version="1.0" xmlns="http://www.w3.org/2000/svg"
 width="96.000000pt" height="68.000000pt" viewBox="0 0 96.000000 68.000000"
 preserveAspectRatio="xMidYMid meet">
<metadata>
Created by potrace 1.16, written by Peter Selinger 2001-2019
</metadata>
<g transform="translate(0.000000,68.000000) scale(0.100000,-0.100000)"
fill="#000000" stroke="none">
<path d="M576 573 c4 -10 9 -57 12 -105 3 -76 6 -88 22 -88 21 0 28 31 31 129
3 68 -4 78 -55 80 -14 1 -16 -3 -10 -16z"/>
<path d="M724 490 c-15 -27 -32 -50 -37 -50 -6 0 -8 -3 -5 -6 8 -7 128 54 128
65 0 11 -34 41 -48 41 -6 0 -23 -22 -38 -50z"/>
<path d="M450 489 c0 -5 13 -23 28 -41 19 -21 34 -29 45 -25 20 8 21 17 5 40
-15 19 -78 41 -78 26z"/>
</g>
</svg>
