<?xml version="1.0" standalone="no"?>
<!DOCTYPE svg PUBLIC "-//W3C//DTD SVG 20010904//EN"
 "http://www.w3.org/TR/2001/REC-SVG-20010904/DTD/svg10.dtd">
<svg version="1.0" xmlns="http://www.w3.org/2000/svg"
 width="96.000000pt" height="68.000000pt" viewBox="0 0 96.000000 68.000000"
 preserveAspectRatio="xMidYMid meet">
<metadata>
Created by potrace 1.16, written by Peter Selinger 2001-2019
</metadata>
<g transform="translate(0.000000,68.000000) scale(0.100000,-0.100000)"
fill="#000000" stroke="none">
<path d="M206 563 c11 -46 8 -211 -6 -355 -11 -111 -3 -158 27 -158 24 0 33
49 33 183 0 73 3 149 6 169 l7 37 25 -19 c26 -21 57 -26 66 -11 13 20 -7 39
-50 50 l-44 11 6 54 c6 48 4 55 -14 65 -11 6 -30 11 -42 11 -20 0 -22 -3 -14
-37z"/>
<path d="M495 498 c-9 -29 -28 -72 -42 -95 -23 -40 -28 -43 -69 -43 -49 0 -50
-1 -30 -33 7 -12 17 -42 20 -67 4 -25 9 -55 12 -66 5 -20 0 -23 -47 -29 -43
-6 -49 -9 -34 -18 11 -6 56 -7 117 -3 55 3 172 9 261 12 89 4 164 9 167 11 14
13 -40 33 -87 33 -29 0 -53 2 -53 4 0 3 13 41 29 85 41 110 26 120 -140 95
-60 -8 -116 -14 -124 -12 -16 3 -8 15 71 101 39 44 40 45 17 63 -34 26 -50 16
-68 -38z m193 -157 c2 -12 -4 -52 -14 -87 -17 -62 -18 -64 -50 -64 -39 0 -38
-2 -19 70 8 30 15 68 15 83 0 26 3 28 33 25 25 -2 33 -8 35 -27z m-113 -3 c7
-27 -1 -133 -10 -148 -3 -5 -17 -10 -31 -10 -23 0 -24 3 -25 58 0 31 -2 66 -5
77 -6 33 4 45 35 45 23 0 32 -5 36 -22z m-110 -25 c4 -21 10 -58 15 -83 5 -25
8 -46 7 -47 -1 -1 -15 -3 -31 -5 -27 -3 -29 0 -47 62 -23 82 -23 97 -1 103 43
12 51 7 57 -30z"/>
<path d="M110 373 c-25 -58 -23 -87 7 -91 29 -4 45 34 41 92 -4 56 -23 55 -48
-1z"/>
</g>
</svg>
