<?xml version="1.0" standalone="no"?>
<!DOCTYPE svg PUBLIC "-//W3C//DTD SVG 20010904//EN"
 "http://www.w3.org/TR/2001/REC-SVG-20010904/DTD/svg10.dtd">
<svg version="1.0" xmlns="http://www.w3.org/2000/svg"
 width="90.000000pt" height="92.000000pt" viewBox="0 0 90.000000 92.000000"
 preserveAspectRatio="xMidYMid meet">
<metadata>
Created by potrace 1.16, written by Peter Selinger 2001-2019
</metadata>
<g transform="translate(0.000000,92.000000) scale(0.100000,-0.100000)"
fill="#000000" stroke="none">
<path d="M450 861 c0 -4 11 -25 25 -45 14 -21 23 -41 20 -46 -3 -4 -39 -11
-80 -15 -76 -7 -105 -22 -66 -32 13 -3 34 -30 54 -68 l33 -63 -55 -6 c-39 -5
-57 -3 -62 6 -10 16 -12 14 -35 -53 -14 -38 -18 -63 -12 -78 12 -33 31 -21 48
31 l15 45 140 21 c274 41 271 41 239 -19 -8 -17 -13 -33 -11 -36 6 -5 119 26
130 37 14 12 -10 46 -47 70 -32 19 -40 20 -103 10 -37 -6 -78 -13 -90 -16 -20
-4 -18 2 17 53 24 37 35 62 29 68 -16 16 -10 23 26 29 40 8 45 20 14 37 -15 8
-33 8 -64 0 -53 -13 -78 -14 -71 -2 12 19 -13 59 -45 70 -38 13 -49 14 -49 2z
m115 -206 c-8 -30 -19 -55 -24 -55 -5 0 -22 -3 -38 -6 -27 -5 -29 -3 -31 27
-3 38 -25 77 -50 87 -10 4 19 11 68 17 99 12 99 11 75 -70z"/>
<path d="M130 763 c0 -20 79 -95 97 -91 29 5 29 53 0 73 -30 19 -97 32 -97 18z"/>
<path d="M57 544 c54 -75 103 -94 103 -40 0 31 -33 54 -86 63 l-38 6 21 -29z"/>
<path d="M480 523 c0 -10 9 -32 20 -50 l19 -32 -32 -6 c-18 -3 -63 -10 -102
-16 -77 -11 -86 -16 -65 -30 14 -9 73 -6 125 7 22 6 25 3 25 -24 0 -47 -70
-142 -148 -200 -37 -28 -76 -58 -87 -66 -18 -14 -16 -14 21 -2 91 31 176 96
235 182 l28 41 51 -11 52 -10 -6 -54 c-4 -30 -13 -67 -22 -84 -16 -31 -33 -33
-88 -12 -15 6 -17 4 -10 -7 5 -8 20 -31 33 -51 12 -21 29 -38 37 -38 29 0 62
48 89 131 15 46 31 88 35 93 25 27 -36 66 -104 66 -35 0 -44 3 -40 14 3 8 -4
20 -15 29 -20 13 -17 15 40 21 34 3 88 6 120 6 59 0 81 12 60 33 -14 14 -88
16 -146 4 -40 -8 -41 -7 -50 24 -7 23 -20 37 -42 46 -30 12 -33 11 -33 -4z"/>
<path d="M177 357 c-21 -37 -54 -83 -73 -102 -37 -37 -40 -54 -23 -104 17 -49
39 -35 65 42 13 37 35 97 49 133 38 95 27 113 -18 31z"/>
</g>
</svg>
