<?xml version="1.0" standalone="no"?>
<!DOCTYPE svg PUBLIC "-//W3C//DTD SVG 20010904//EN"
 "http://www.w3.org/TR/2001/REC-SVG-20010904/DTD/svg10.dtd">
<svg version="1.0" xmlns="http://www.w3.org/2000/svg"
 width="96.000000pt" height="68.000000pt" viewBox="0 0 96.000000 68.000000"
 preserveAspectRatio="xMidYMid meet">
<metadata>
Created by potrace 1.16, written by Peter Selinger 2001-2019
</metadata>
<g transform="translate(0.000000,68.000000) scale(0.100000,-0.100000)"
fill="#000000" stroke="none">
<path d="M415 572 c-116 -13 -212 -26 -215 -29 -15 -14 38 -23 125 -21 l100 3
0 -107 c0 -58 3 -109 6 -112 3 -3 13 0 22 7 12 9 16 35 19 119 l3 107 60 6
c33 3 84 6 114 8 84 3 79 26 -9 41 -8 2 -109 -8 -225 -22z"/>
<path d="M485 472 c17 -17 117 -82 126 -82 4 0 10 4 13 9 12 19 -6 38 -52 53
-74 26 -98 31 -87 20z"/>
<path d="M698 240 c56 -52 78 -61 89 -34 8 22 -31 59 -76 73 -66 19 -68 12
-13 -39z"/>
<path d="M315 223 c30 -69 76 -115 130 -133 62 -20 213 -19 253 3 17 10 32 22
32 27 0 12 -120 74 -127 66 -3 -3 0 -12 7 -21 26 -32 5 -45 -72 -45 -115 1
-178 40 -209 130 -6 16 -17 30 -25 30 -10 0 -8 -14 11 -57z"/>
<path d="M470 245 c37 -38 57 -44 67 -18 9 22 -31 53 -70 53 l-31 0 34 -35z"/>
<path d="M184 204 c-25 -52 -26 -56 -10 -72 16 -16 18 -15 36 8 32 41 39 120
11 120 -5 0 -22 -25 -37 -56z"/>
</g>
</svg>
