<?xml version="1.0" standalone="no"?>
<!DOCTYPE svg PUBLIC "-//W3C//DTD SVG 20010904//EN"
 "http://www.w3.org/TR/2001/REC-SVG-20010904/DTD/svg10.dtd">
<svg version="1.0" xmlns="http://www.w3.org/2000/svg"
 width="90.000000pt" height="92.000000pt" viewBox="0 0 90.000000 92.000000"
 preserveAspectRatio="xMidYMid meet">
<metadata>
Created by potrace 1.16, written by Peter Selinger 2001-2019
</metadata>
<g transform="translate(0.000000,92.000000) scale(0.100000,-0.100000)"
fill="#000000" stroke="none">
<path d="M486 841 c-4 -6 -2 -19 4 -30 5 -11 10 -51 10 -90 0 -76 1 -75 -68
-83 -41 -5 -28 -23 19 -26 47 -3 47 -3 51 -43 2 -22 1 -42 -2 -44 -3 -2 -41
-8 -84 -14 -44 -6 -82 -13 -84 -16 -3 -2 6 -9 20 -15 18 -9 46 -8 113 4 49 9
90 14 92 12 8 -8 -165 -181 -226 -228 -36 -26 -56 -48 -47 -48 23 0 94 37 135
71 19 15 38 26 43 23 12 -7 10 -107 -2 -140 -8 -20 -8 -36 1 -56 13 -33 25
-36 34 -8 5 16 15 20 48 20 23 0 58 3 78 6 34 6 37 4 47 -25 13 -38 26 -39 48
-6 13 20 16 51 16 158 l0 132 -29 17 c-25 15 -33 16 -68 4 -22 -8 -55 -17 -74
-21 l-34 -7 52 60 53 60 86 7 c48 3 98 7 111 8 36 3 36 22 1 37 -24 10 -43 10
-87 1 -87 -17 -88 -16 -41 50 24 34 48 68 53 76 8 11 3 20 -20 39 -35 28 -45
30 -45 7 0 -9 -5 -31 -11 -48 -12 -31 -13 -32 -39 -18 -20 9 -35 11 -53 4 -32
-12 -34 -7 -27 76 3 38 1 71 -5 79 -14 18 -61 28 -69 15z m168 -213 c-35 -60
-68 -98 -84 -98 -17 0 -20 7 -20 43 l0 44 48 10 c26 6 51 11 55 12 5 0 5 -5 1
-11z m26 -299 c0 -31 -3 -40 -14 -36 -7 3 -31 2 -52 -3 -111 -23 -104 -24
-104 20 0 25 -5 41 -12 42 -23 2 75 15 130 16 l52 2 0 -41z m0 -108 l0 -38
-52 -7 c-29 -4 -68 -9 -85 -12 l-33 -6 0 45 0 46 53 4 c128 9 117 12 117 -32z"/>
<path d="M205 798 c-2 -7 -9 -31 -14 -53 -12 -47 -60 -126 -104 -172 -27 -29
-29 -35 -18 -59 8 -19 16 -24 29 -19 9 4 36 13 59 21 l42 13 -34 -47 c-18 -26
-45 -58 -59 -71 -30 -29 -31 -34 -10 -55 14 -14 19 -14 56 5 23 12 59 27 81
35 36 13 41 12 52 -2 15 -22 35 -10 35 21 0 27 -20 51 -51 60 -27 9 -33 1 -19
-24 9 -18 8 -22 -12 -30 -37 -14 -88 -23 -88 -16 0 4 39 54 87 113 83 102 85
107 72 131 -20 35 -30 32 -46 -14 -24 -71 -42 -87 -97 -83 l-47 3 71 95 c40
52 74 101 77 108 6 15 -25 52 -44 52 -7 0 -16 -6 -18 -12z"/>
<path d="M250 354 c0 -14 35 -64 49 -69 13 -5 30 10 31 28 0 15 -41 47 -60 47
-11 0 -20 -3 -20 -6z"/>
<path d="M155 293 c26 -48 43 -66 60 -60 38 15 -9 87 -57 87 -17 0 -17 -2 -3
-27z"/>
<path d="M40 258 c1 -25 55 -113 70 -113 10 0 16 12 18 33 3 25 -3 39 -27 62
-30 31 -61 40 -61 18z"/>
</g>
</svg>
