<?xml version="1.0" standalone="no"?>
<!DOCTYPE svg PUBLIC "-//W3C//DTD SVG 20010904//EN"
 "http://www.w3.org/TR/2001/REC-SVG-20010904/DTD/svg10.dtd">
<svg version="1.0" xmlns="http://www.w3.org/2000/svg"
 width="96.000000pt" height="68.000000pt" viewBox="0 0 96.000000 68.000000"
 preserveAspectRatio="xMidYMid meet">
<metadata>
Created by potrace 1.16, written by Peter Selinger 2001-2019
</metadata>
<g transform="translate(0.000000,68.000000) scale(0.100000,-0.100000)"
fill="#000000" stroke="none">
<path d="M681 469 c-10 -29 -65 -106 -85 -121 -5 -3 -48 -10 -95 -14 -46 -3
-96 -10 -110 -14 l-26 -7 25 -7 c14 -4 60 -1 103 7 42 7 77 10 77 7 0 -14 -98
-99 -168 -145 -40 -26 -72 -49 -72 -51 0 -2 15 2 32 8 61 21 153 83 218 145
l65 63 92 0 c91 0 127 12 76 25 -14 3 -56 3 -92 -1 l-66 -6 30 33 c17 19 36
37 43 42 17 11 15 31 -6 50 -25 23 -28 22 -41 -14z"/>
</g>
</svg>
