<?xml version="1.0" standalone="no"?>
<!DOCTYPE svg PUBLIC "-//W3C//DTD SVG 20010904//EN"
 "http://www.w3.org/TR/2001/REC-SVG-20010904/DTD/svg10.dtd">
<svg version="1.0" xmlns="http://www.w3.org/2000/svg"
 width="96.000000pt" height="68.000000pt" viewBox="0 0 96.000000 68.000000"
 preserveAspectRatio="xMidYMid meet">
<metadata>
Created by potrace 1.16, written by Peter Selinger 2001-2019
</metadata>
<g transform="translate(0.000000,68.000000) scale(0.100000,-0.100000)"
fill="#000000" stroke="none">
<path d="M301 538 c-17 -55 -47 -102 -126 -192 -37 -42 -64 -76 -60 -76 13 0
62 35 103 74 l42 40 0 -82 c0 -46 -5 -114 -12 -153 -8 -53 -8 -76 1 -96 23
-50 36 -9 47 155 10 145 9 158 -7 176 -16 18 -15 21 32 87 27 38 49 72 49 75
0 9 -33 33 -46 34 -6 0 -16 -19 -23 -42z"/>
</g>
</svg>
