<?xml version="1.0" standalone="no"?>
<!DOCTYPE svg PUBLIC "-//W3C//DTD SVG 20010904//EN"
 "http://www.w3.org/TR/2001/REC-SVG-20010904/DTD/svg10.dtd">
<svg version="1.0" xmlns="http://www.w3.org/2000/svg"
 width="96.000000pt" height="68.000000pt" viewBox="0 0 96.000000 68.000000"
 preserveAspectRatio="xMidYMid meet">
<metadata>
Created by potrace 1.16, written by Peter Selinger 2001-2019
</metadata>
<g transform="translate(0.000000,68.000000) scale(0.100000,-0.100000)"
fill="#000000" stroke="none">
<path d="M490 610 c-25 -5 -71 -9 -102 -9 -31 -1 -63 -4 -72 -7 -32 -12 -3
-24 60 -24 48 0 64 -3 64 -14 0 -22 -28 -27 -125 -25 l-90 2 -24 -42 c-16 -30
-20 -46 -13 -53 17 -17 37 -3 56 36 16 33 20 36 60 36 24 0 64 3 89 6 l46 7 3
-54 c2 -40 7 -54 18 -54 11 0 16 14 18 52 2 39 7 53 20 57 17 5 104 8 171 7
l34 -1 -24 -26 -24 -26 50 7 c97 13 104 20 54 56 -32 22 -69 23 -233 2 -43 -5
-48 -4 -44 13 3 15 15 20 66 25 61 6 81 13 69 25 -10 10 -81 13 -127 4z"/>
<path d="M565 493 l-30 -26 40 7 c50 9 63 21 38 34 -14 8 -25 5 -48 -15z"/>
<path d="M327 463 c33 -17 51 -13 38 6 -3 6 -21 11 -38 10 l-32 0 32 -16z"/>
<path d="M369 436 c-5 -5 -53 -14 -81 -15 -24 -1 -23 -18 1 -26 12 -3 39 4 68
19 26 14 41 25 32 26 -9 0 -18 -2 -20 -4z"/>
<path d="M530 432 c0 -11 46 -32 70 -32 26 0 26 16 1 30 -24 12 -71 13 -71 2z"/>
<path d="M422 380 c7 -11 20 -21 28 -21 28 -2 -65 -18 -110 -19 -33 0 -41 -3
-30 -10 8 -5 24 -10 36 -10 20 0 53 -44 42 -56 -7 -6 -50 -12 -103 -13 -30 -1
-36 -4 -25 -11 9 -6 40 -7 73 -4 l59 7 -4 -29 c-3 -25 -8 -29 -38 -31 -144
-10 -180 -16 -174 -25 5 -7 39 -9 102 -5 81 6 92 5 82 -8 -17 -21 -5 -32 40
-40 22 -4 40 -11 40 -16 0 -11 -59 -37 -125 -55 l-50 -14 61 4 c40 3 80 13
113 29 l50 26 68 -33 c95 -46 103 -49 103 -28 -1 21 -33 45 -85 63 -54 18 -61
25 -41 44 9 9 21 25 26 36 10 17 22 19 115 19 58 0 105 4 105 9 0 16 -44 21
-123 14 -51 -4 -81 -2 -85 4 -9 14 -37 20 -39 9 -3 -16 -27 -26 -63 -26 -32 0
-35 3 -36 30 l-1 30 81 1 c45 0 99 3 121 8 36 6 38 8 20 18 -12 6 -40 8 -72 4
-36 -5 -53 -4 -53 3 1 19 34 54 54 58 11 1 19 8 17 13 -1 6 -28 9 -65 7 -57
-3 -64 -2 -69 17 -3 15 -13 21 -31 21 -24 0 -25 -2 -14 -20z m98 -54 c0 -2 -4
-16 -9 -29 -7 -19 -19 -26 -46 -29 -31 -3 -39 0 -56 23 -10 15 -19 29 -19 31
0 1 29 4 65 6 36 2 65 1 65 -2z m-9 -174 c-19 -35 -36 -42 -85 -36 -51 7 -50
7 -36 35 9 15 22 19 71 19 55 0 59 -2 50 -18z"/>
</g>
</svg>
