<?xml version="1.0" standalone="no"?>
<!DOCTYPE svg PUBLIC "-//W3C//DTD SVG 20010904//EN"
 "http://www.w3.org/TR/2001/REC-SVG-20010904/DTD/svg10.dtd">
<svg version="1.0" xmlns="http://www.w3.org/2000/svg"
 width="90.000000pt" height="92.000000pt" viewBox="0 0 90.000000 92.000000"
 preserveAspectRatio="xMidYMid meet">
<metadata>
Created by potrace 1.16, written by Peter Selinger 2001-2019
</metadata>
<g transform="translate(0.000000,92.000000) scale(0.100000,-0.100000)"
fill="#000000" stroke="none">
<path d="M476 834 c12 -83 16 -78 -64 -88 -94 -11 -90 -30 6 -34 l72 -3 0 -33
0 -33 -61 -7 c-33 -3 -72 -3 -85 0 -28 7 -31 -6 -10 -39 8 -12 17 -51 21 -87
8 -75 21 -108 38 -91 6 6 28 11 49 11 36 0 38 -1 38 -34 0 -37 15 -32 -154
-52 l-60 -7 24 -19 c25 -20 56 -20 152 -1 l28 6 -6 -55 c-4 -35 -2 -63 5 -76
7 -12 8 -22 2 -22 -8 0 -263 71 -268 75 -2 1 2 16 7 34 11 38 -6 80 -42 105
l-22 16 24 27 c13 16 36 38 50 51 l25 23 -30 25 c-16 13 -37 23 -45 20 -46
-14 -125 -52 -125 -61 0 -5 21 -10 48 -10 52 1 52 1 36 -43 -9 -26 -7 -36 15
-69 14 -21 28 -57 32 -80 l7 -43 -87 0 c-69 0 -86 -3 -86 -15 0 -8 11 -22 24
-30 20 -14 29 -14 47 -4 13 6 53 12 89 12 58 1 84 -7 260 -77 l195 -79 70 21
c39 12 93 31 120 43 l50 23 -85 7 c-47 5 -129 11 -183 15 -86 5 -98 8 -91 22
4 10 9 47 12 85 l4 67 124 0 c105 0 124 2 124 15 0 26 -54 42 -113 34 -28 -4
-71 -8 -94 -8 -43 -1 -43 -1 -43 35 l0 36 66 -3 67 -4 23 80 c13 44 28 88 34
98 14 24 0 42 -45 57 -27 9 -45 8 -86 -4 -29 -9 -53 -16 -54 -16 0 0 1 16 3
35 4 36 9 39 79 50 22 4 49 13 60 20 17 13 16 14 -11 25 -21 8 -38 8 -59 0
-56 -19 -66 -14 -60 26 5 31 2 40 -18 55 -41 32 -51 25 -43 -27z m159 -227 c0
-28 -2 -29 -57 -31 -57 -3 -58 -2 -58 25 0 24 5 28 33 32 68 9 82 4 82 -26z
m-145 -16 c0 -26 -3 -29 -47 -35 -25 -3 -47 -5 -49 -4 -1 2 -5 15 -9 30 -7 29
-11 27 88 36 12 2 17 -5 17 -27z m140 -50 c0 -5 -3 -21 -6 -37 -5 -27 -8 -29
-55 -29 -48 0 -49 0 -49 32 0 34 -4 32 93 41 9 1 17 -2 17 -7z m-146 -38 c-10
-41 -12 -43 -49 -43 -21 0 -35 6 -39 16 -12 31 -6 43 27 47 70 8 68 9 61 -20z"/>
<path d="M101 723 c65 -72 109 -93 123 -57 15 39 -50 84 -123 84 l-24 0 24
-27z"/>
</g>
</svg>
