<?xml version="1.0" standalone="no"?>
<!DOCTYPE svg PUBLIC "-//W3C//DTD SVG 20010904//EN"
 "http://www.w3.org/TR/2001/REC-SVG-20010904/DTD/svg10.dtd">
<svg version="1.0" xmlns="http://www.w3.org/2000/svg"
 width="96.000000pt" height="68.000000pt" viewBox="0 0 96.000000 68.000000"
 preserveAspectRatio="xMidYMid meet">
<metadata>
Created by potrace 1.16, written by Peter Selinger 2001-2019
</metadata>
<g transform="translate(0.000000,68.000000) scale(0.100000,-0.100000)"
fill="#000000" stroke="none">
<path d="M503 556 c-154 -21 -181 -29 -144 -41 11 -3 23 -16 28 -28 10 -30 5
-293 -7 -338 -17 -62 6 -88 58 -67 15 6 107 13 215 16 192 4 219 11 163 41
-19 11 -55 10 -194 -3 -94 -9 -176 -16 -183 -16 -9 0 -11 46 -7 196 3 107 7
197 10 199 2 2 55 9 118 15 232 21 228 20 200 36 -33 18 -74 16 -257 -10z"/>
</g>
</svg>
