<?xml version="1.0" standalone="no"?>
<!DOCTYPE svg PUBLIC "-//W3C//DTD SVG 20010904//EN"
 "http://www.w3.org/TR/2001/REC-SVG-20010904/DTD/svg10.dtd">
<svg version="1.0" xmlns="http://www.w3.org/2000/svg"
 width="96.000000pt" height="68.000000pt" viewBox="0 0 96.000000 68.000000"
 preserveAspectRatio="xMidYMid meet">
<metadata>
Created by potrace 1.16, written by Peter Selinger 2001-2019
</metadata>
<g transform="translate(0.000000,68.000000) scale(0.100000,-0.100000)"
fill="#000000" stroke="none">
<path d="M310 263 c-85 -13 -140 -13 -173 1 -12 6 -17 4 -17 -7 0 -9 -8 -17
-17 -20 -14 -3 -12 -6 9 -15 25 -10 27 -16 30 -79 2 -52 6 -68 18 -68 12 0 15
15 15 74 l0 75 85 13 c134 19 158 18 166 -12 10 -38 -5 -115 -23 -122 -9 -3
-24 -1 -34 5 -31 19 -31 14 -3 -23 51 -67 85 -38 103 90 16 113 11 116 -159
88z"/>
</g>
</svg>
