<?xml version="1.0" standalone="no"?>
<!DOCTYPE svg PUBLIC "-//W3C//DTD SVG 20010904//EN"
 "http://www.w3.org/TR/2001/REC-SVG-20010904/DTD/svg10.dtd">
<svg version="1.0" xmlns="http://www.w3.org/2000/svg"
 width="96.000000pt" height="68.000000pt" viewBox="0 0 96.000000 68.000000"
 preserveAspectRatio="xMidYMid meet">
<metadata>
Created by potrace 1.16, written by Peter Selinger 2001-2019
</metadata>
<g transform="translate(0.000000,68.000000) scale(0.100000,-0.100000)"
fill="#000000" stroke="none">
<path d="M575 569 c5 -19 8 -89 7 -156 -1 -67 2 -124 6 -127 5 -3 14 -1 22 4
12 7 16 42 21 147 3 76 3 141 0 145 -3 4 -19 10 -35 14 -28 7 -28 6 -21 -27z"/>
<path d="M745 410 c63 -57 88 -64 83 -22 -2 21 -13 32 -48 50 -24 12 -55 22
-67 22 -20 0 -15 -7 32 -50z"/>
<path d="M466 417 c-3 -13 -17 -40 -30 -60 -29 -42 -26 -45 19 -17 61 37 83
100 36 100 -11 0 -21 -9 -25 -23z"/>
</g>
</svg>
