<?xml version="1.0" standalone="no"?>
<!DOCTYPE svg PUBLIC "-//W3C//DTD SVG 20010904//EN"
 "http://www.w3.org/TR/2001/REC-SVG-20010904/DTD/svg10.dtd">
<svg version="1.0" xmlns="http://www.w3.org/2000/svg"
 width="90.000000pt" height="92.000000pt" viewBox="0 0 90.000000 92.000000"
 preserveAspectRatio="xMidYMid meet">
<metadata>
Created by potrace 1.16, written by Peter Selinger 2001-2019
</metadata>
<g transform="translate(0.000000,92.000000) scale(0.100000,-0.100000)"
fill="#000000" stroke="none">
<path d="M126 783 c5 -16 9 -64 9 -108 l0 -80 -57 2 c-58 2 -68 -3 -47 -24 5
-5 14 -41 20 -79 5 -38 12 -77 15 -86 7 -22 24 -24 24 -3 0 9 9 15 25 15 24 0
25 -2 25 -64 l0 -64 -45 -11 c-25 -6 -57 -8 -71 -5 -21 5 -25 3 -22 -11 1 -10
15 -27 29 -37 l26 -20 96 46 c52 25 100 46 105 46 5 0 17 -11 26 -25 21 -32
36 -24 36 19 0 34 -23 62 -69 86 -26 13 -25 14 -4 -36 2 -7 -10 -16 -26 -22
l-31 -11 0 58 0 58 49 7 c42 6 49 9 48 29 0 12 9 46 21 74 l22 53 -25 16 c-19
12 -37 15 -72 10 l-46 -6 7 53 c4 28 9 68 12 87 5 32 3 37 -21 48 -14 7 -35
12 -47 12 -17 0 -19 -4 -12 -27z m121 -249 c-7 -63 -4 -59 -34 -68 -22 -7 -23
-5 -23 52 0 61 5 70 44 71 17 1 18 -5 13 -55z m-107 -24 c0 -57 -1 -60 -25
-60 -24 0 -25 3 -25 60 0 57 1 60 25 60 24 0 25 -3 25 -60z"/>
<path d="M706 779 c-60 -14 -321 -37 -352 -31 -24 4 -26 3 -18 -14 9 -20 12
-365 4 -516 -4 -73 -2 -90 12 -104 16 -16 17 -16 23 7 5 21 12 24 53 24 26 0
106 4 179 8 l132 9 26 -52 c14 -28 31 -50 38 -47 34 11 38 48 35 327 -2 151 1
294 5 317 8 41 7 43 -25 63 -36 22 -52 23 -112 9z m66 -74 c10 -34 16 -500 7
-509 -3 -4 -19 -2 -34 4 -18 7 -54 7 -109 1 -44 -5 -118 -13 -163 -16 l-83 -7
0 84 c0 47 3 166 7 265 l6 180 101 15 c56 9 137 15 180 14 79 -1 80 -1 88 -31z"/>
<path d="M520 706 c0 -2 7 -20 15 -39 24 -58 21 -63 -45 -76 -85 -17 -79 -35
9 -28 l69 6 6 -32 c4 -18 17 -59 31 -91 l24 -59 -19 -38 c-11 -21 -24 -40 -29
-44 -6 -3 -20 -20 -32 -37 l-23 -31 33 19 c18 10 46 34 63 53 16 18 30 32 32
30 1 -2 14 -23 29 -47 26 -40 70 -72 82 -60 3 3 -1 41 -8 84 l-14 79 -12 -37
c-15 -45 -23 -47 -46 -12 -16 25 -16 29 14 96 36 83 38 94 12 108 -31 16 -37
12 -38 -28 -2 -41 -20 -98 -29 -89 -10 9 -42 141 -37 150 2 4 14 7 26 7 12 0
29 4 37 10 11 7 9 11 -13 19 -15 6 -33 8 -42 5 -11 -4 -16 4 -21 34 -5 30 -12
42 -28 46 -24 7 -46 8 -46 2z"/>
<path d="M659 671 c43 -60 91 -76 91 -31 0 23 -34 47 -80 56 l-34 7 23 -32z"/>
<path d="M510 510 c-8 -5 -32 -10 -53 -10 -32 0 -38 -3 -34 -17 3 -10 8 -40
12 -66 4 -34 10 -47 19 -44 8 3 34 9 60 12 37 6 44 10 36 20 -8 10 -7 24 5 51
15 36 15 39 -1 51 -21 15 -24 16 -44 3z m8 -62 c-2 -28 -8 -34 -30 -36 -26 -3
-28 -1 -28 32 0 33 2 36 31 36 28 0 30 -2 27 -32z"/>
<path d="M493 327 c-80 -28 -96 -46 -57 -61 12 -4 102 47 143 81 15 12 -15 5
-86 -20z"/>
</g>
</svg>
