<?xml version="1.0" standalone="no"?>
<!DOCTYPE svg PUBLIC "-//W3C//DTD SVG 20010904//EN"
 "http://www.w3.org/TR/2001/REC-SVG-20010904/DTD/svg10.dtd">
<svg version="1.0" xmlns="http://www.w3.org/2000/svg"
 width="96.000000pt" height="68.000000pt" viewBox="0 0 96.000000 68.000000"
 preserveAspectRatio="xMidYMid meet">
<metadata>
Created by potrace 1.16, written by Peter Selinger 2001-2019
</metadata>
<g transform="translate(0.000000,68.000000) scale(0.100000,-0.100000)"
fill="#000000" stroke="none">
<path d="M325 551 c8 -17 19 -33 25 -36 22 -13 8 -25 -29 -25 -59 0 -131 -12
-131 -21 0 -5 23 -9 52 -9 71 0 301 30 312 40 22 21 -77 24 -130 3 -9 -3 -14
1 -14 11 0 24 -49 66 -77 66 -23 0 -23 -1 -8 -29z"/>
</g>
</svg>
