<?xml version="1.0" standalone="no"?>
<!DOCTYPE svg PUBLIC "-//W3C//DTD SVG 20010904//EN"
 "http://www.w3.org/TR/2001/REC-SVG-20010904/DTD/svg10.dtd">
<svg version="1.0" xmlns="http://www.w3.org/2000/svg"
 width="96.000000pt" height="68.000000pt" viewBox="0 0 96.000000 68.000000"
 preserveAspectRatio="xMidYMid meet">
<metadata>
Created by potrace 1.16, written by Peter Selinger 2001-2019
</metadata>
<g transform="translate(0.000000,68.000000) scale(0.100000,-0.100000)"
fill="#000000" stroke="none">
<path d="M272 514 c-16 -59 -70 -143 -140 -216 -81 -86 -25 -69 72 21 l38 36
-6 -100 c-4 -55 -9 -118 -12 -140 -5 -41 16 -88 33 -72 4 5 13 72 19 150 9
116 8 145 -3 158 -19 22 -18 25 34 102 l48 69 -24 19 c-35 28 -46 24 -59 -27z"/>
</g>
</svg>
