<?xml version="1.0" standalone="no"?>
<!DOCTYPE svg PUBLIC "-//W3C//DTD SVG 20010904//EN"
 "http://www.w3.org/TR/2001/REC-SVG-20010904/DTD/svg10.dtd">
<svg version="1.0" xmlns="http://www.w3.org/2000/svg"
 width="96.000000pt" height="68.000000pt" viewBox="0 0 96.000000 68.000000"
 preserveAspectRatio="xMidYMid meet">
<metadata>
Created by potrace 1.16, written by Peter Selinger 2001-2019
</metadata>
<g transform="translate(0.000000,68.000000) scale(0.100000,-0.100000)"
fill="#000000" stroke="none">
<path d="M487 593 c3 -10 13 -26 21 -35 13 -15 13 -18 1 -18 -28 0 -234 -22
-248 -26 -11 -4 -9 -8 7 -20 59 -41 -5 -260 -110 -379 -41 -47 -37 -57 10 -28
86 53 141 153 167 302 l18 99 51 6 c28 3 103 8 166 11 182 9 211 18 153 44
-18 8 -48 10 -90 5 -60 -6 -63 -5 -63 15 0 22 -33 41 -70 41 -14 0 -18 -5 -13
-17z"/>
<path d="M620 473 c0 -5 7 -17 15 -27 21 -27 19 -36 -7 -36 -13 0 -32 -3 -44
-6 -21 -5 -21 -6 7 -59 15 -29 25 -56 22 -59 -4 -3 -22 -6 -40 -6 -20 0 -32
-4 -28 -10 3 -5 28 -10 56 -10 45 0 49 -2 49 -24 0 -25 -21 -36 -74 -36 -22 0
-27 -3 -19 -11 6 -6 30 -10 52 -7 l41 4 0 -83 c0 -45 4 -84 9 -88 18 -11 31
33 31 104 l0 71 34 0 c49 0 96 11 90 21 -3 5 -30 9 -60 9 -53 0 -54 0 -54 30
l0 30 65 0 c36 0 65 4 65 9 0 16 -29 21 -75 12 -51 -10 -56 -1 -25 39 22 29
26 50 8 51 -7 0 0 6 16 13 35 16 20 29 -27 24 -17 -2 -33 2 -35 7 -7 21 -36
45 -54 45 -10 0 -18 -3 -18 -7z m80 -102 c0 -10 -3 -33 -6 -50 -5 -25 -11 -31
-28 -29 -14 2 -22 12 -24 28 -2 14 -10 32 -18 41 -19 21 -8 29 38 29 30 0 38
-4 38 -19z"/>
<path d="M140 433 c0 -5 13 -23 29 -42 21 -26 32 -32 49 -27 29 10 28 30 -4
55 -26 20 -74 29 -74 14z"/>
<path d="M478 435 c-3 -3 -27 -7 -54 -8 l-48 -3 2 -44 c4 -58 -30 -166 -68
-218 -17 -23 -26 -42 -22 -42 10 0 52 45 74 78 16 23 16 23 29 -20 8 -24 17
-42 22 -41 4 1 32 5 63 9 38 4 54 10 50 19 -2 7 2 25 10 40 20 39 3 58 -45 50
-104 -17 -104 -17 -97 17 9 46 21 55 82 63 40 5 54 10 50 20 -2 7 4 23 15 36
10 12 19 25 19 29 0 16 -69 28 -82 15z m19 -59 c-18 -27 -93 -37 -83 -11 3 9
6 23 6 30 0 16 59 25 78 11 10 -7 10 -13 -1 -30z m2 -173 c-6 -15 -16 -31 -22
-35 -19 -12 -57 -9 -57 5 0 6 -3 22 -6 35 -6 21 -3 22 45 22 l51 0 -11 -27z"/>
<path d="M200 308 c-24 -15 -51 -28 -60 -28 -8 0 -21 -4 -29 -9 -20 -13 3 -41
33 -41 23 1 111 81 105 97 -2 5 -24 -3 -49 -19z"/>
</g>
</svg>
