<?xml version="1.0" standalone="no"?>
<!DOCTYPE svg PUBLIC "-//W3C//DTD SVG 20010904//EN"
 "http://www.w3.org/TR/2001/REC-SVG-20010904/DTD/svg10.dtd">
<svg version="1.0" xmlns="http://www.w3.org/2000/svg"
 width="90.000000pt" height="92.000000pt" viewBox="0 0 90.000000 92.000000"
 preserveAspectRatio="xMidYMid meet">
<metadata>
Created by potrace 1.16, written by Peter Selinger 2001-2019
</metadata>
<g transform="translate(0.000000,92.000000) scale(0.100000,-0.100000)"
fill="#000000" stroke="none">
<path d="M416 793 c4 -10 10 -68 12 -129 l4 -111 -69 -13 c-89 -15 -103 -20
-103 -30 0 -21 65 -30 112 -16 l47 15 -16 -52 c-25 -87 -75 -169 -145 -239
-37 -38 -63 -68 -57 -68 17 0 71 31 112 63 l39 30 40 -46 c48 -57 78 -62 78
-14 0 37 -17 57 -67 76 l-32 13 25 40 c14 22 36 68 48 100 l23 60 33 -63 c49
-94 141 -240 168 -268 22 -22 29 -23 95 -18 40 3 83 9 96 14 21 9 16 14 -65
59 -49 27 -116 75 -151 107 -84 79 -181 210 -160 218 1 0 58 8 127 17 69 10
125 22 125 27 0 6 -15 17 -32 26 -30 15 -38 15 -110 -2 -115 -28 -107 -35
-101 92 6 110 6 110 -19 120 -13 5 -33 9 -45 9 -16 0 -18 -4 -12 -17z"/>
<path d="M140 751 c0 -6 19 -32 42 -57 50 -54 81 -57 86 -7 3 26 -2 34 -25 47
-41 21 -103 31 -103 17z"/>
<path d="M46 573 c-12 -12 77 -93 101 -93 19 0 23 5 23 31 0 25 -6 32 -32 43
-47 19 -84 27 -92 19z"/>
<path d="M195 384 c-22 -36 -62 -86 -88 -110 l-48 -43 12 -41 c20 -67 50 -77
64 -23 4 16 28 75 55 133 26 58 51 115 55 128 12 41 -10 22 -50 -44z"/>
</g>
</svg>
