<?xml version="1.0" standalone="no"?>
<!DOCTYPE svg PUBLIC "-//W3C//DTD SVG 20010904//EN"
 "http://www.w3.org/TR/2001/REC-SVG-20010904/DTD/svg10.dtd">
<svg version="1.0" xmlns="http://www.w3.org/2000/svg"
 width="96.000000pt" height="68.000000pt" viewBox="0 0 96.000000 68.000000"
 preserveAspectRatio="xMidYMid meet">
<metadata>
Created by potrace 1.16, written by Peter Selinger 2001-2019
</metadata>
<g transform="translate(0.000000,68.000000) scale(0.100000,-0.100000)"
fill="#000000" stroke="none">
<path d="M371 395 c-18 -20 -47 -43 -65 -52 -17 -9 -25 -18 -18 -20 7 -3 31 6
55 20 52 30 137 44 137 22 0 -19 -78 -76 -157 -116 -35 -18 -63 -33 -63 -35 0
-2 24 4 53 12 51 15 196 104 231 143 17 19 17 20 -4 31 -22 12 -47 10 -84 -5
-14 -6 -17 -5 -11 4 8 13 -10 31 -30 31 -6 0 -26 -16 -44 -35z"/>
</g>
</svg>
