<?xml version="1.0" standalone="no"?>
<!DOCTYPE svg PUBLIC "-//W3C//DTD SVG 20010904//EN"
 "http://www.w3.org/TR/2001/REC-SVG-20010904/DTD/svg10.dtd">
<svg version="1.0" xmlns="http://www.w3.org/2000/svg"
 width="90.000000pt" height="92.000000pt" viewBox="0 0 90.000000 92.000000"
 preserveAspectRatio="xMidYMid meet">
<metadata>
Created by potrace 1.16, written by Peter Selinger 2001-2019
</metadata>
<g transform="translate(0.000000,92.000000) scale(0.100000,-0.100000)"
fill="#000000" stroke="none">
<path d="M184 828 c11 -36 25 -149 26 -199 l0 -47 -75 -11 c-42 -6 -85 -11
-96 -11 -12 0 -19 -5 -16 -12 3 -9 29 -13 85 -13 78 1 82 0 76 -20 -20 -64
-116 -217 -163 -259 -30 -27 -26 -39 7 -22 35 18 103 88 143 147 l31 44 -7
-75 c-3 -41 -11 -109 -17 -150 -10 -67 -9 -80 7 -114 16 -34 19 -36 34 -21 13
13 17 49 21 197 l5 182 33 -42 c38 -47 47 -50 62 -23 16 31 2 50 -51 68 -44
16 -49 21 -49 48 0 43 8 51 68 65 62 14 72 26 37 42 -18 8 -35 8 -60 1 -35
-11 -35 -11 -35 20 1 18 5 66 10 107 9 73 8 76 -16 98 -14 12 -34 22 -46 22
-16 0 -19 -4 -14 -22z"/>
<path d="M499 813 c-8 -79 -40 -171 -94 -277 -33 -65 -39 -84 -25 -76 10 5 29
23 42 39 19 24 32 29 81 33 l57 5 0 -64 c0 -66 -17 -153 -30 -153 -4 0 -25 20
-48 45 -23 25 -50 45 -61 45 -30 0 -26 -8 24 -52 71 -62 74 -73 30 -118 -21
-21 -65 -51 -99 -66 -38 -18 -54 -29 -44 -32 32 -6 126 28 171 62 l45 34 52
-64 c29 -36 61 -69 71 -74 35 -19 189 -4 204 20 3 5 -28 18 -67 30 -82 25
-133 49 -196 92 -36 25 -43 34 -37 52 4 11 18 65 32 119 23 92 24 100 8 117
-16 17 -13 19 59 31 42 8 77 19 77 24 1 6 -11 16 -26 24 -24 12 -39 10 -137
-19 -60 -18 -111 -30 -113 -28 -2 2 18 49 45 103 27 55 49 103 50 107 1 22
-68 62 -71 41z"/>
</g>
</svg>
