<?xml version="1.0" standalone="no"?>
<!DOCTYPE svg PUBLIC "-//W3C//DTD SVG 20010904//EN"
 "http://www.w3.org/TR/2001/REC-SVG-20010904/DTD/svg10.dtd">
<svg version="1.0" xmlns="http://www.w3.org/2000/svg"
 width="96.000000pt" height="68.000000pt" viewBox="0 0 96.000000 68.000000"
 preserveAspectRatio="xMidYMid meet">
<metadata>
Created by potrace 1.16, written by Peter Selinger 2001-2019
</metadata>
<g transform="translate(0.000000,68.000000) scale(0.100000,-0.100000)"
fill="#000000" stroke="none">
<path d="M253 588 c3 -18 9 -63 13 -100 l6 -67 -33 -5 c-19 -3 -55 -8 -81 -11
-27 -4 -48 -10 -48 -15 0 -15 34 -21 87 -14 29 3 53 3 53 -1 0 -19 -67 -115
-113 -162 -28 -29 -48 -55 -45 -58 12 -12 84 34 126 79 l42 46 0 -38 c0 -21
-5 -64 -11 -95 -8 -44 -7 -63 3 -84 34 -70 58 -18 58 128 l0 111 31 -26 c37
-31 46 -32 54 -6 9 28 0 38 -45 51 -34 10 -40 16 -40 40 0 25 4 28 50 34 27 4
52 11 55 15 10 16 -35 32 -67 25 l-31 -7 7 81 c4 45 5 81 3 81 -3 0 -21 7 -42
16 l-37 15 5 -33z"/>
<path d="M520 556 c0 -36 -20 -85 -62 -155 -21 -35 -37 -65 -35 -67 2 -2 15 8
30 21 20 20 37 25 76 25 29 0 51 -5 53 -12 6 -18 -10 -120 -21 -131 -6 -6 -25
2 -54 23 -25 18 -51 30 -57 28 -7 -2 7 -17 29 -33 40 -27 71 -65 54 -65 -5 0
-19 -10 -33 -22 -14 -13 -45 -33 -70 -45 -25 -13 -41 -23 -37 -23 24 0 105 25
127 40 14 9 30 20 36 23 6 4 35 -15 63 -42 60 -56 87 -64 167 -51 89 15 87 17
-29 45 -73 18 -155 59 -164 81 -3 8 -1 20 5 27 19 23 47 150 34 155 -22 7 -1
22 31 22 41 0 77 10 77 21 0 20 -55 20 -141 0 -84 -20 -120 -21 -93 -3 6 4 25
33 43 66 35 65 34 96 -5 96 -19 0 -24 -5 -24 -24z"/>
</g>
</svg>
