<?xml version="1.0" standalone="no"?>
<!DOCTYPE svg PUBLIC "-//W3C//DTD SVG 20010904//EN"
 "http://www.w3.org/TR/2001/REC-SVG-20010904/DTD/svg10.dtd">
<svg version="1.0" xmlns="http://www.w3.org/2000/svg"
 width="96.000000pt" height="68.000000pt" viewBox="0 0 96.000000 68.000000"
 preserveAspectRatio="xMidYMid meet">
<metadata>
Created by potrace 1.16, written by Peter Selinger 2001-2019
</metadata>
<g transform="translate(0.000000,68.000000) scale(0.100000,-0.100000)"
fill="#000000" stroke="none">
<path d="M555 554 c-33 -8 -89 -13 -125 -12 l-65 2 3 -60 c5 -106 -47 -261
-126 -376 -42 -62 -28 -61 29 0 55 60 84 116 113 223 l23 84 132 9 c111 7 131
11 126 24 -3 8 4 30 15 49 25 43 25 45 -7 61 -32 14 -40 14 -118 -4z m52 -22
c7 -4 10 -16 8 -27 -2 -11 -4 -25 -4 -31 -1 -12 -33 -19 -138 -30 l-63 -6 0
36 c0 20 1 36 3 37 12 3 156 27 167 28 8 0 20 -3 27 -7z"/>
<path d="M208 489 c47 -45 77 -48 77 -9 0 30 -35 50 -85 50 l-35 -1 43 -40z"/>
<path d="M100 399 c0 -19 59 -71 77 -67 10 2 19 13 21 26 3 18 -4 26 -32 37
-42 18 -66 19 -66 4z"/>
<path d="M550 369 c-111 -15 -130 -20 -130 -31 0 -7 17 -8 50 -4 40 5 50 4 50
-8 0 -14 -49 -60 -85 -82 -24 -14 -13 -49 13 -39 48 19 70 17 77 -5 9 -28 5
-31 -50 -37 -48 -6 -64 -26 -17 -23 65 5 72 2 72 -30 0 -29 -2 -30 -44 -30
-71 0 -166 -12 -166 -21 0 -11 482 1 494 11 4 5 -2 13 -14 20 -15 8 -53 10
-126 5 l-104 -7 0 30 c0 29 2 30 55 37 30 3 57 11 60 16 7 10 -11 13 -71 10
-39 -2 -41 -1 -42 27 -1 27 2 29 52 39 46 8 57 7 76 -9 17 -13 26 -16 34 -8
16 16 -5 43 -48 59 -36 14 -63 8 -37 -8 17 -11 -11 -18 -104 -27 -70 -6 -70
-6 -45 12 48 36 60 49 60 66 0 16 10 18 74 18 72 0 104 11 70 24 -20 8 -71 6
-154 -5z"/>
<path d="M245 312 c-6 -4 -21 -22 -34 -40 -12 -18 -27 -29 -33 -26 -7 4 -8 2
-4 -4 6 -11 -13 -32 -58 -65 -19 -14 -19 -15 0 -48 11 -19 25 -34 32 -34 14 0
114 193 110 211 -2 8 -8 10 -13 6z"/>
</g>
</svg>
