<?xml version="1.0" standalone="no"?>
<!DOCTYPE svg PUBLIC "-//W3C//DTD SVG 20010904//EN"
 "http://www.w3.org/TR/2001/REC-SVG-20010904/DTD/svg10.dtd">
<svg version="1.0" xmlns="http://www.w3.org/2000/svg"
 width="90.000000pt" height="92.000000pt" viewBox="0 0 90.000000 92.000000"
 preserveAspectRatio="xMidYMid meet">
<metadata>
Created by potrace 1.16, written by Peter Selinger 2001-2019
</metadata>
<g transform="translate(0.000000,92.000000) scale(0.100000,-0.100000)"
fill="#000000" stroke="none">
<path d="M491 838 c-11 -24 -42 -67 -68 -97 -50 -57 -34 -57 38 1 32 26 43 29
95 26 l59 -3 -38 -42 c-40 -44 -51 -48 -159 -58 -62 -6 -67 -8 -58 -25 15 -28
12 -172 -6 -258 -19 -93 -64 -213 -99 -264 -33 -49 -17 -49 25 -1 39 44 84
138 101 208 7 28 16 67 21 88 8 32 11 36 27 28 12 -7 46 -5 101 5 46 8 128 17
182 21 54 3 101 10 104 14 2 5 -7 15 -20 24 -21 14 -33 15 -76 6 -68 -15 -101
-14 -95 2 6 16 -5 31 -32 46 -39 20 -46 13 -24 -25 12 -20 20 -39 17 -41 -7
-8 -165 -27 -171 -21 -10 9 14 151 27 159 7 5 25 9 40 9 32 0 30 -12 -14 -77
-16 -24 -24 -43 -18 -43 19 0 110 92 110 111 0 14 7 19 29 19 25 0 30 -5 38
-37 10 -45 39 -63 103 -63 56 0 79 12 62 33 -9 10 -26 13 -60 9 -54 -5 -75 10
-66 45 5 17 16 23 53 28 62 8 77 18 56 35 -13 11 -31 11 -98 1 -45 -7 -89 -15
-97 -17 -8 -2 5 13 30 33 24 21 56 48 70 60 l25 21 -27 12 c-27 13 -32 12
-143 -16 -15 -4 -12 2 13 24 31 28 32 29 14 45 -30 27 -49 20 -71 -25z"/>
<path d="M176 755 c-27 -8 -63 -11 -79 -8 -27 5 -29 4 -23 -13 16 -39 18 -123
7 -243 -10 -110 -10 -127 5 -149 12 -19 18 -22 25 -11 4 7 11 10 15 7 9 -10
-39 -106 -82 -162 -19 -25 -31 -46 -27 -46 35 0 183 174 164 193 -20 20 -12
27 29 27 27 0 42 -5 49 -17 8 -15 12 -16 23 -5 9 9 15 67 19 210 6 188 5 198
-13 215 -23 20 -45 20 -112 2z m57 -32 c3 -5 8 -29 12 -54 l7 -46 -44 -6 c-23
-4 -53 -10 -65 -13 -22 -6 -23 -4 -23 50 0 54 1 56 33 65 41 12 74 13 80 4z
m17 -175 c0 -40 -2 -43 -27 -43 -16 0 -45 -4 -65 -8 l-38 -8 0 45 0 45 43 4
c95 8 87 11 87 -35z m0 -107 c0 -44 -6 -48 -84 -57 l-51 -6 3 45 4 46 46 4
c26 2 55 4 65 5 13 2 17 -6 17 -37z"/>
<path d="M571 406 c-73 -11 -96 -28 -46 -34 29 -4 195 15 203 23 21 20 -62 26
-157 11z"/>
<path d="M585 334 c-49 -7 -91 -13 -93 -13 -2 -1 0 -5 3 -11 12 -19 226 -4
225 15 -1 18 -44 21 -135 9z"/>
<path d="M212 313 c49 -104 70 -123 76 -71 2 20 -5 32 -31 52 -33 26 -52 33
-45 19z"/>
<path d="M615 255 c-44 -8 -97 -14 -117 -14 -36 -1 -49 -13 -29 -26 5 -3 15
-30 21 -60 6 -30 16 -57 21 -61 5 -3 59 0 119 7 89 11 109 16 105 28 -3 8 9
32 26 54 l32 40 -27 24 c-30 26 -38 26 -151 8z m85 -42 c-1 -49 -11 -60 -68
-72 -91 -18 -99 -16 -105 26 -4 20 -5 38 -3 40 7 7 92 21 134 22 34 1 42 -2
42 -16z"/>
</g>
</svg>
