<?xml version="1.0" standalone="no"?>
<!DOCTYPE svg PUBLIC "-//W3C//DTD SVG 20010904//EN"
 "http://www.w3.org/TR/2001/REC-SVG-20010904/DTD/svg10.dtd">
<svg version="1.0" xmlns="http://www.w3.org/2000/svg"
 width="96.000000pt" height="68.000000pt" viewBox="0 0 96.000000 68.000000"
 preserveAspectRatio="xMidYMid meet">
<metadata>
Created by potrace 1.16, written by Peter Selinger 2001-2019
</metadata>
<g transform="translate(0.000000,68.000000) scale(0.100000,-0.100000)"
fill="#000000" stroke="none">
<path d="M545 571 c-3 -11 -26 -39 -50 -62 -24 -24 -43 -45 -41 -47 2 -2 22 8
45 22 30 19 54 26 92 26 l51 0 -24 -29 c-26 -33 -46 -39 -135 -43 -35 -2 -63
-4 -63 -5 0 -1 5 -14 10 -28 21 -55 -25 -241 -80 -329 -22 -34 -25 -44 -13
-37 46 24 103 123 118 203 l7 35 179 13 c99 7 182 16 184 21 9 14 -64 22 -115
12 -44 -9 -50 -8 -55 8 -7 20 -43 44 -52 35 -3 -2 2 -15 11 -28 l16 -23 -77
-11 c-43 -6 -79 -10 -81 -9 -2 2 0 29 5 61 8 57 9 59 41 62 40 4 43 -15 7 -48
-14 -13 -25 -27 -25 -32 0 -13 90 53 101 74 5 10 21 18 34 18 20 0 25 -5 25
-25 0 -32 26 -45 89 -45 40 0 51 4 51 16 0 12 -8 14 -42 9 -49 -6 -72 4 -66
31 2 13 13 20 33 22 17 1 41 5 55 8 23 5 23 6 6 16 -16 9 -65 6 -140 -8 -37
-8 -28 6 29 44 38 25 43 32 30 42 -11 9 -26 9 -65 1 -63 -14 -70 -14 -70 -1 0
6 6 10 14 10 21 0 31 21 15 31 -23 15 -47 10 -54 -10z"/>
<path d="M265 508 c-22 -5 -55 -8 -73 -6 -32 4 -32 4 -25 -31 4 -20 7 -47 7
-61 -1 -14 -2 -62 -4 -107 -2 -85 3 -108 25 -99 32 12 21 -28 -20 -79 -71 -87
-54 -85 40 4 51 48 55 56 41 66 -14 11 -11 13 21 18 25 5 42 2 53 -8 30 -27
40 1 40 116 0 59 4 118 9 132 11 27 5 39 -26 56 -25 13 -33 13 -88 -1z m49
-44 c17 -45 -5 -64 -75 -64 -26 0 -27 66 -1 73 38 10 70 6 76 -9z m6 -108 c0
-25 -21 -36 -72 -36 -23 0 -28 4 -28 24 0 28 11 34 63 35 33 1 37 -2 37 -23z
m0 -86 c0 -22 -5 -30 -17 -30 -10 0 -35 -3 -55 -6 -36 -6 -38 -5 -38 19 0 32
23 46 73 47 35 0 37 -2 37 -30z"/>
<path d="M622 250 c-78 -9 -92 -20 -25 -20 69 0 143 11 143 21 0 10 -25 10
-118 -1z"/>
<path d="M621 199 c-41 -5 -76 -11 -79 -14 -8 -8 171 -4 192 4 18 7 18 8 -5
14 -13 4 -26 6 -29 6 -3 -1 -38 -5 -79 -10z"/>
<path d="M300 185 c0 -10 22 -49 36 -62 18 -18 28 1 14 27 -10 19 -50 47 -50
35z"/>
<path d="M630 139 c-36 -4 -80 -5 -97 -2 -35 6 -43 -6 -18 -27 8 -7 15 -20 15
-29 0 -10 6 -25 13 -35 12 -17 23 -18 110 -11 83 6 97 9 97 24 0 10 11 28 25
41 l26 24 -23 13 c-25 14 -52 14 -148 2z m91 -40 c-4 -31 -13 -36 -84 -44 -64
-8 -80 1 -75 40 3 17 13 21 73 26 90 7 91 7 86 -22z"/>
</g>
</svg>
