<?xml version="1.0" standalone="no"?>
<!DOCTYPE svg PUBLIC "-//W3C//DTD SVG 20010904//EN"
 "http://www.w3.org/TR/2001/REC-SVG-20010904/DTD/svg10.dtd">
<svg version="1.0" xmlns="http://www.w3.org/2000/svg"
 width="96.000000pt" height="68.000000pt" viewBox="0 0 96.000000 68.000000"
 preserveAspectRatio="xMidYMid meet">
<metadata>
Created by potrace 1.16, written by Peter Selinger 2001-2019
</metadata>
<g transform="translate(0.000000,68.000000) scale(0.100000,-0.100000)"
fill="#000000" stroke="none">
<path d="M580 518 c-70 -15 -75 -31 -7 -23 35 5 57 4 57 -2 0 -11 -57 -93 -64
-93 -3 0 -21 9 -40 21 -19 11 -41 17 -47 13 -8 -4 1 -14 25 -26 20 -10 36 -23
36 -28 0 -14 -84 -81 -148 -117 -31 -18 -50 -33 -42 -33 24 0 119 47 172 85
26 19 51 35 55 35 4 0 37 -18 75 -41 65 -40 70 -41 128 -34 33 4 62 10 64 14
3 4 -34 17 -82 30 -47 12 -103 32 -125 42 -44 23 -46 18 36 106 38 40 39 41
19 52 -24 13 -50 13 -112 -1z"/>
</g>
</svg>
