<?xml version="1.0" standalone="no"?>
<!DOCTYPE svg PUBLIC "-//W3C//DTD SVG 20010904//EN"
 "http://www.w3.org/TR/2001/REC-SVG-20010904/DTD/svg10.dtd">
<svg version="1.0" xmlns="http://www.w3.org/2000/svg"
 width="96.000000pt" height="68.000000pt" viewBox="0 0 96.000000 68.000000"
 preserveAspectRatio="xMidYMid meet">
<metadata>
Created by potrace 1.16, written by Peter Selinger 2001-2019
</metadata>
<g transform="translate(0.000000,68.000000) scale(0.100000,-0.100000)"
fill="#000000" stroke="none">
<path d="M528 503 c25 -22 41 -53 72 -141 71 -201 75 -206 185 -200 l60 3 -45
27 c-71 43 -105 85 -164 205 -47 95 -59 112 -87 122 -50 17 -56 13 -21 -16z"/>
<path d="M467 335 c-8 -54 -28 -95 -74 -152 -38 -48 -36 -52 11 -23 35 21 81
80 116 149 21 43 21 45 4 58 -35 25 -51 16 -57 -32z"/>
</g>
</svg>
