<?xml version="1.0" standalone="no"?>
<!DOCTYPE svg PUBLIC "-//W3C//DTD SVG 20010904//EN"
 "http://www.w3.org/TR/2001/REC-SVG-20010904/DTD/svg10.dtd">
<svg version="1.0" xmlns="http://www.w3.org/2000/svg"
 width="90.000000pt" height="92.000000pt" viewBox="0 0 90.000000 92.000000"
 preserveAspectRatio="xMidYMid meet">
<metadata>
Created by potrace 1.16, written by Peter Selinger 2001-2019
</metadata>
<g transform="translate(0.000000,92.000000) scale(0.100000,-0.100000)"
fill="#000000" stroke="none">
<path d="M468 807 c5 -86 9 -82 -99 -93 l-72 -7 6 51 c7 57 -5 72 -57 72 -28
0 -30 -3 -17 -28 4 -9 11 -36 15 -59 6 -42 5 -43 -21 -43 -32 0 -61 -15 -50
-26 4 -4 24 -10 44 -13 37 -6 38 -8 44 -56 3 -28 5 -51 4 -53 -1 -1 -48 -5
-104 -9 -55 -3 -101 -10 -101 -15 0 -4 15 -16 34 -24 30 -15 40 -15 100 -2 36
8 66 13 66 11 0 -26 -121 -156 -217 -233 -24 -18 -41 -36 -38 -38 11 -11 138
62 189 108 29 28 57 50 60 50 3 0 6 -50 6 -111 0 -132 12 -165 72 -199 36 -20
56 -24 133 -23 103 0 163 14 201 47 l27 22 -31 65 c-17 35 -32 56 -32 47 0
-35 -32 -96 -54 -106 -65 -29 -228 -21 -256 13 -7 8 -14 32 -17 53 l-5 39 53
6 c30 4 75 7 102 7 47 0 56 7 36 27 -8 8 -3 26 15 65 14 30 26 58 26 61 0 4
-13 13 -30 22 -27 14 -34 14 -90 -5 -70 -24 -88 -24 -114 -5 -19 15 -19 15 2
45 12 16 22 36 22 45 0 12 14 15 72 15 l73 0 115 -121 c63 -67 125 -125 137
-130 23 -8 141 7 156 21 5 4 -34 24 -85 44 -64 25 -119 56 -179 100 -132 100
-132 96 10 96 66 0 121 4 121 8 0 5 -9 17 -21 28 -23 21 -69 24 -163 10 l-59
-9 7 39 c13 70 15 73 60 79 23 4 49 11 57 15 24 15 -7 35 -51 34 -22 -1 -40 0
-40 2 0 2 8 22 17 45 l16 42 -27 24 c-15 12 -37 23 -50 23 -22 0 -23 -2 -18
-73z m-13 -179 c-4 -29 -8 -54 -9 -54 0 -1 -31 -4 -68 -8 l-68 -7 0 55 0 55
53 4 c28 2 63 4 75 5 23 2 24 0 17 -50z m-5 -255 c0 -60 -9 -72 -59 -78 -25
-3 -56 -8 -69 -11 -20 -4 -22 -1 -17 21 3 14 7 36 10 49 4 21 14 26 57 34 79
14 78 14 78 -15z"/>
</g>
</svg>
