<?xml version="1.0" standalone="no"?>
<!DOCTYPE svg PUBLIC "-//W3C//DTD SVG 20010904//EN"
 "http://www.w3.org/TR/2001/REC-SVG-20010904/DTD/svg10.dtd">
<svg version="1.0" xmlns="http://www.w3.org/2000/svg"
 width="96.000000pt" height="68.000000pt" viewBox="0 0 96.000000 68.000000"
 preserveAspectRatio="xMidYMid meet">
<metadata>
Created by potrace 1.16, written by Peter Selinger 2001-2019
</metadata>
<g transform="translate(0.000000,68.000000) scale(0.100000,-0.100000)"
fill="#000000" stroke="none">
<path d="M500 577 c0 -31 -3 -58 -7 -60 -5 -3 -37 -6 -73 -8 l-65 -4 2 35 c2
39 -9 50 -50 50 -24 0 -26 -2 -17 -19 5 -11 10 -30 10 -44 0 -19 -7 -26 -37
-34 l-38 -10 42 -8 c37 -7 42 -11 48 -42 3 -19 5 -37 3 -39 -3 -2 -43 -7 -91
-10 -48 -4 -87 -11 -87 -15 0 -15 66 -21 126 -10 56 10 288 29 419 34 55 2 58
3 37 15 -28 16 -61 18 -135 8 l-58 -8 7 39 c8 47 6 46 55 52 51 8 55 25 7 29
-40 3 -45 11 -27 44 13 25 -2 43 -43 53 l-28 7 0 -55z m-10 -116 c0 -43 -23
-61 -81 -61 l-49 0 0 40 0 39 63 4 c34 2 63 4 65 5 1 1 2 -11 2 -27z"/>
</g>
</svg>
