<?xml version="1.0" standalone="no"?>
<!DOCTYPE svg PUBLIC "-//W3C//DTD SVG 20010904//EN"
 "http://www.w3.org/TR/2001/REC-SVG-20010904/DTD/svg10.dtd">
<svg version="1.0" xmlns="http://www.w3.org/2000/svg"
 width="96.000000pt" height="68.000000pt" viewBox="0 0 96.000000 68.000000"
 preserveAspectRatio="xMidYMid meet">
<metadata>
Created by potrace 1.16, written by Peter Selinger 2001-2019
</metadata>
<g transform="translate(0.000000,68.000000) scale(0.100000,-0.100000)"
fill="#000000" stroke="none">
<path d="M615 460 c-16 -4 -47 -8 -67 -9 -21 0 -38 -5 -38 -11 0 -5 4 -10 9
-10 12 0 71 -49 71 -60 0 -7 -65 -34 -105 -43 -16 -4 -14 -5 6 -6 14 0 47 5
72 13 46 14 47 14 94 -20 45 -32 52 -34 103 -28 30 3 58 9 63 13 4 4 -26 15
-67 25 -40 9 -82 23 -91 30 -17 12 -17 14 1 32 51 51 59 65 44 74 -17 11 -52
11 -95 0z m35 -27 c-1 -12 -26 -43 -35 -43 -4 0 -18 9 -31 19 l-25 20 23 4
c40 7 68 7 68 0z"/>
</g>
</svg>
