<?xml version="1.0" standalone="no"?>
<!DOCTYPE svg PUBLIC "-//W3C//DTD SVG 20010904//EN"
 "http://www.w3.org/TR/2001/REC-SVG-20010904/DTD/svg10.dtd">
<svg version="1.0" xmlns="http://www.w3.org/2000/svg"
 width="90.000000pt" height="92.000000pt" viewBox="0 0 90.000000 92.000000"
 preserveAspectRatio="xMidYMid meet">
<metadata>
Created by potrace 1.16, written by Peter Selinger 2001-2019
</metadata>
<g transform="translate(0.000000,92.000000) scale(0.100000,-0.100000)"
fill="#000000" stroke="none">
<path d="M360 896 c0 -4 11 -24 25 -46 14 -22 25 -44 25 -49 0 -5 -44 -11 -97
-13 -78 -2 -101 0 -112 12 -7 8 -15 11 -17 5 -2 -5 -22 -39 -43 -74 -40 -65
-43 -91 -10 -91 19 0 79 72 79 95 0 6 15 12 33 13 19 1 100 8 180 17 241 25
271 21 232 -31 -8 -10 -15 -22 -15 -25 0 -5 130 20 138 27 11 9 -14 45 -46 67
-37 24 -37 24 -132 11 -148 -20 -147 -20 -142 21 4 30 1 36 -22 45 -42 15 -76
23 -76 16z"/>
<path d="M457 721 c5 -36 4 -38 -27 -45 -18 -3 -43 -6 -57 -6 -20 0 -23 4 -18
20 5 15 0 22 -20 30 -42 16 -46 13 -39 -25 6 -35 6 -35 -31 -35 -47 0 -43 -23
6 -30 26 -4 35 -10 37 -27 3 -21 -1 -23 -38 -23 -25 0 -39 -4 -35 -10 3 -5 22
-10 41 -10 29 0 34 -3 34 -24 0 -27 -20 -35 -85 -37 -22 0 -49 -4 -60 -8 -36
-14 20 -34 77 -28 47 6 48 6 37 -16 -20 -36 -141 -147 -194 -178 -41 -24 -46
-29 -25 -29 42 1 103 34 167 94 33 31 63 56 66 56 7 0 21 -68 16 -73 -2 -2 2
-11 8 -19 8 -9 24 -13 43 -10 26 4 30 1 30 -21 0 -13 3 -39 6 -56 8 -36 -5
-40 -63 -16 -36 15 -36 15 -17 36 19 21 18 21 -5 40 -35 28 -46 24 -59 -26 -7
-28 -32 -68 -66 -109 -42 -49 -50 -62 -33 -58 12 3 46 29 75 58 l52 53 154
-75 c85 -42 172 -78 193 -81 26 -3 65 4 123 23 l85 28 -40 7 c-22 5 -89 15
-150 23 -60 9 -134 23 -163 32 -48 14 -52 18 -50 45 2 29 3 29 68 29 78 0 104
12 63 28 -19 8 -40 9 -68 2 -56 -13 -55 -13 -55 20 0 27 4 30 40 36 24 4 39
11 37 18 -2 6 5 29 16 50 18 38 19 40 1 53 -23 16 -30 16 -101 -2 -31 -8 -73
-15 -92 -15 -32 0 -33 1 -18 18 10 10 17 26 17 35 0 13 12 17 58 19 73 4 93
-6 206 -102 52 -43 103 -81 114 -84 20 -7 137 10 156 21 5 4 -37 21 -93 39
-90 28 -278 125 -254 131 4 1 43 4 86 8 42 4 77 11 77 16 0 4 -13 15 -29 23
-23 12 -41 13 -95 5 -37 -6 -69 -9 -71 -7 -1 1 1 13 6 26 6 15 17 22 36 22 15
0 35 5 43 10 13 9 13 11 0 20 -8 5 -28 7 -43 4 -26 -5 -28 -3 -25 17 2 19 11
25 41 30 20 3 40 9 44 13 12 12 -20 27 -50 23 -22 -3 -26 0 -22 14 6 19 -28
49 -56 49 -14 0 -16 -7 -12 -39z m1 -116 c-2 -1 -27 -6 -55 -10 -52 -7 -53 -6
-53 19 0 23 4 25 53 28 44 3 53 0 55 -15 2 -10 2 -20 0 -22z m2 -47 c0 -25
-16 -35 -62 -40 -45 -5 -48 -4 -48 18 0 23 1 23 93 32 9 1 17 -4 17 -10z m22
-163 c3 -3 3 -16 1 -29 -4 -21 -14 -26 -70 -36 -36 -6 -66 -10 -68 -8 -1 2 -5
17 -8 35 l-6 32 52 4 c29 2 61 4 73 5 11 1 23 0 26 -3z"/>
</g>
</svg>
