<?xml version="1.0" standalone="no"?>
<!DOCTYPE svg PUBLIC "-//W3C//DTD SVG 20010904//EN"
 "http://www.w3.org/TR/2001/REC-SVG-20010904/DTD/svg10.dtd">
<svg version="1.0" xmlns="http://www.w3.org/2000/svg"
 width="96.000000pt" height="68.000000pt" viewBox="0 0 96.000000 68.000000"
 preserveAspectRatio="xMidYMid meet">
<metadata>
Created by potrace 1.16, written by Peter Selinger 2001-2019
</metadata>
<g transform="translate(0.000000,68.000000) scale(0.100000,-0.100000)"
fill="#000000" stroke="none">
<path d="M380 608 c0 -6 7 -20 17 -30 9 -10 13 -21 10 -24 -12 -13 -144 -17
-151 -5 -12 19 -22 12 -61 -44 -28 -42 -35 -59 -27 -67 17 -17 59 6 80 42 15
27 22 30 67 30 28 0 74 3 103 6 l52 7 0 -32 c0 -25 -4 -31 -22 -31 -13 0 -33
-3 -44 -6 -16 -4 -23 0 -27 15 -3 15 -13 21 -31 21 -23 0 -25 -2 -16 -20 9
-17 6 -21 -22 -29 l-33 -9 33 -1 c25 -1 32 -5 32 -20 0 -15 -8 -21 -32 -24
l-33 -4 33 -1 c27 -2 32 -6 32 -27 0 -24 -3 -25 -60 -25 -33 0 -60 -4 -60 -10
0 -5 23 -10 50 -10 28 0 50 -4 50 -10 0 -15 -118 -109 -157 -125 -20 -9 -33
-18 -30 -21 11 -11 77 18 129 57 29 21 57 38 62 36 6 -2 14 -18 18 -35 8 -28
11 -31 37 -26 27 6 29 4 33 -36 2 -23 0 -44 -4 -46 -4 -3 -26 1 -48 7 -39 12
-40 13 -23 31 15 17 15 20 3 28 -27 17 -40 11 -55 -27 -9 -21 -34 -55 -57 -75
-55 -50 -34 -48 33 2 30 22 58 38 64 36 102 -43 254 -97 285 -102 35 -6 187
22 177 32 -2 2 -64 10 -138 19 -163 17 -211 30 -207 53 2 13 17 18 61 22 72 6
71 26 -1 22 -51 -3 -53 -2 -50 20 2 17 10 24 33 26 24 2 33 11 47 43 l17 39
38 -25 c21 -13 43 -29 49 -34 27 -22 57 -31 106 -31 65 0 97 15 52 25 -66 15
-163 50 -219 79 l-60 31 73 3 c52 2 72 6 69 15 -2 8 -29 12 -78 12 -59 0 -74
3 -74 15 0 9 11 16 30 18 46 5 55 22 12 22 -25 0 -37 5 -37 14 0 16 21 26 56
26 14 0 22 4 19 10 -3 6 -17 10 -29 10 -15 0 -26 7 -29 20 -3 12 -14 20 -29
21 l-23 1 25 8 c31 10 150 12 150 3 0 -3 -8 -15 -17 -26 -18 -20 -17 -20 47
-13 35 4 68 10 72 12 15 9 -11 41 -47 58 -36 17 -53 17 -192 0 -38 -5 -43 -3
-43 15 0 11 -10 27 -22 35 -26 19 -68 21 -68 4z m90 -187 c0 -15 -9 -20 -45
-23 -37 -3 -45 0 -45 14 0 16 19 24 68 27 15 1 22 -5 22 -18z m0 -56 c0 -8 -1
-15 -2 -16 -2 0 -22 -2 -45 -5 -39 -5 -43 -4 -43 15 0 18 6 21 45 21 33 0 45
-4 45 -15z m57 -69 c16 -17 16 -18 1 -13 -9 3 -51 0 -94 -8 -78 -13 -111 -11
-80 7 9 5 16 16 16 25 0 24 133 14 157 -11z m-37 -55 c0 -20 -34 -31 -96 -31
-27 0 -34 4 -34 19 0 20 18 25 98 29 25 2 32 -2 32 -17z"/>
</g>
</svg>
