<?xml version="1.0" standalone="no"?>
<!DOCTYPE svg PUBLIC "-//W3C//DTD SVG 20010904//EN"
 "http://www.w3.org/TR/2001/REC-SVG-20010904/DTD/svg10.dtd">
<svg version="1.0" xmlns="http://www.w3.org/2000/svg"
 width="96.000000pt" height="68.000000pt" viewBox="0 0 96.000000 68.000000"
 preserveAspectRatio="xMidYMid meet">
<metadata>
Created by potrace 1.16, written by Peter Selinger 2001-2019
</metadata>
<g transform="translate(0.000000,68.000000) scale(0.100000,-0.100000)"
fill="#000000" stroke="none">
<path d="M645 349 c-22 -4 -65 -8 -95 -8 l-56 -1 4 -63 c3 -39 -2 -88 -12
-126 -19 -74 -20 -97 -4 -107 17 -11 37 24 44 76 l6 47 62 6 c33 3 76 9 95 13
l34 7 -6 -53 c-4 -29 -9 -55 -11 -58 -3 -2 -20 1 -38 7 l-32 11 34 -35 c38
-40 50 -42 73 -17 12 13 16 48 19 155 4 168 1 171 -117 146z m65 -34 c0 -8 1
-18 3 -22 1 -5 -9 -9 -23 -10 -14 -1 -53 -5 -87 -9 -63 -7 -63 -7 -63 19 0 28
13 32 118 35 40 2 52 -1 52 -13z m10 -79 c0 -21 -6 -24 -52 -29 -29 -4 -70 -9
-91 -13 -38 -7 -39 -6 -35 21 3 26 6 28 58 32 30 2 56 6 59 8 2 3 17 5 33 5
23 0 28 -4 28 -24z"/>
</g>
</svg>
