<?xml version="1.0" standalone="no"?>
<!DOCTYPE svg PUBLIC "-//W3C//DTD SVG 20010904//EN"
 "http://www.w3.org/TR/2001/REC-SVG-20010904/DTD/svg10.dtd">
<svg version="1.0" xmlns="http://www.w3.org/2000/svg"
 width="90.000000pt" height="92.000000pt" viewBox="0 0 90.000000 92.000000"
 preserveAspectRatio="xMidYMid meet">
<metadata>
Created by potrace 1.16, written by Peter Selinger 2001-2019
</metadata>
<g transform="translate(0.000000,92.000000) scale(0.100000,-0.100000)"
fill="#000000" stroke="none">
<path d="M160 822 c0 -5 16 -27 36 -51 43 -50 77 -53 82 -8 3 24 -2 30 -40 47
-45 21 -78 26 -78 12z"/>
<path d="M695 793 c-33 -7 -70 -15 -83 -18 -48 -11 -8 -26 61 -23 l72 3 -1
-92 c-2 -131 -7 -144 -45 -136 l-31 6 37 -39 c35 -38 36 -38 50 -19 23 30 35
84 35 162 0 39 4 83 9 96 7 17 6 29 -2 39 -27 32 -41 35 -102 21z"/>
<path d="M419 761 c-51 -11 -74 -20 -72 -28 3 -9 24 -11 79 -6 l74 6 0 -79 c0
-110 -6 -127 -40 -122 l-28 4 27 -33 c28 -35 40 -40 59 -21 16 16 15 6 -4 -42
-17 -41 -17 -41 -57 -35 -38 7 -40 6 -33 -16 4 -13 9 -73 12 -134 7 -131 10
-147 27 -124 9 11 37 18 100 23 l87 7 21 -35 c12 -20 25 -36 29 -36 4 0 16 12
26 27 14 22 19 49 20 118 1 50 5 109 8 132 7 40 6 43 -24 58 -29 15 -37 15
-94 1 -34 -9 -73 -16 -86 -16 l-24 0 30 31 c28 29 28 31 10 44 -10 8 -22 16
-26 17 -7 3 5 186 15 217 6 20 -28 62 -49 60 -6 -1 -45 -9 -87 -18z m281 -410
l0 -36 -52 0 c-29 0 -81 -4 -115 -9 l-63 -9 0 36 c0 33 3 37 33 42 56 11 171
21 185 17 6 -2 12 -20 12 -41z m0 -100 c0 -59 -8 -73 -32 -60 -19 10 -136 5
-180 -7 -15 -5 -18 2 -18 40 l0 46 48 1 c26 0 70 4 97 9 88 13 85 14 85 -29z"/>
<path d="M610 701 c0 -14 53 -62 64 -58 6 2 12 13 14 24 2 16 -5 23 -29 32
-38 13 -49 14 -49 2z"/>
<path d="M392 660 c27 -37 58 -40 58 -6 0 24 -21 36 -63 36 -16 0 -15 -3 5
-30z"/>
<path d="M206 644 c-22 -8 -73 -20 -113 -26 -40 -6 -73 -14 -73 -18 0 -4 11
-12 24 -18 20 -9 40 -7 95 8 118 33 119 32 60 -62 -57 -92 -102 -151 -163
-217 l-41 -43 35 17 c19 10 68 52 109 93 l74 76 -5 -114 c-3 -63 -11 -128 -17
-144 -9 -21 -9 -38 -1 -62 29 -86 49 -36 51 129 0 68 4 129 8 136 5 7 21 -3
46 -29 45 -46 55 -49 55 -16 0 25 -41 66 -66 66 -26 0 -14 18 16 25 36 8 46
21 30 40 -19 23 -34 18 -54 -15 l-17 -30 -18 22 c-17 21 -17 23 0 53 10 17 32
44 49 60 36 34 37 49 8 69 -26 19 -39 19 -92 0z"/>
<path d="M632 591 c-71 -26 -73 -27 -53 -45 11 -10 27 -15 38 -12 19 7 97 75
91 81 -2 1 -36 -9 -76 -24z"/>
<path d="M385 583 c-33 -14 -61 -26 -63 -28 -6 -5 30 -35 41 -35 7 1 34 21 62
45 56 51 47 55 -40 18z"/>
</g>
</svg>
