<?xml version="1.0" standalone="no"?>
<!DOCTYPE svg PUBLIC "-//W3C//DTD SVG 20010904//EN"
 "http://www.w3.org/TR/2001/REC-SVG-20010904/DTD/svg10.dtd">
<svg version="1.0" xmlns="http://www.w3.org/2000/svg"
 width="96.000000pt" height="68.000000pt" viewBox="0 0 96.000000 68.000000"
 preserveAspectRatio="xMidYMid meet">
<metadata>
Created by potrace 1.16, written by Peter Selinger 2001-2019
</metadata>
<g transform="translate(0.000000,68.000000) scale(0.100000,-0.100000)"
fill="#000000" stroke="none">
<path d="M449 561 c-7 -20 -23 -53 -36 -74 -14 -22 -22 -41 -20 -44 3 -2 20 9
38 25 30 25 46 30 148 41 63 6 121 16 130 21 35 19 -22 23 -117 7 -53 -9 -98
-14 -100 -12 -3 3 1 11 8 20 16 19 7 41 -19 48 -16 4 -22 -2 -32 -32z"/>
</g>
</svg>
