<?xml version="1.0" standalone="no"?>
<!DOCTYPE svg PUBLIC "-//W3C//DTD SVG 20010904//EN"
 "http://www.w3.org/TR/2001/REC-SVG-20010904/DTD/svg10.dtd">
<svg version="1.0" xmlns="http://www.w3.org/2000/svg"
 width="96.000000pt" height="68.000000pt" viewBox="0 0 96.000000 68.000000"
 preserveAspectRatio="xMidYMid meet">
<metadata>
Created by potrace 1.16, written by Peter Selinger 2001-2019
</metadata>
<g transform="translate(0.000000,68.000000) scale(0.100000,-0.100000)"
fill="#000000" stroke="none">
<path d="M480 613 c0 -3 6 -14 13 -22 8 -9 21 -41 29 -71 9 -30 19 -62 23 -71
5 -14 -7 -18 -77 -28 -46 -7 -92 -15 -102 -18 -17 -5 -18 -6 -3 -15 21 -11 25
-143 5 -135 -7 2 -30 -2 -52 -9 -21 -8 -40 -14 -42 -14 -2 0 -4 25 -4 55 0 36
4 57 12 59 7 3 26 7 41 11 40 8 28 29 -17 33 l-38 3 5 47 c2 26 8 55 12 64 8
19 -15 34 -60 39 -25 3 -29 1 -26 -16 2 -11 6 -50 8 -87 l5 -67 -46 -6 c-25
-4 -46 -11 -46 -15 0 -12 57 -23 71 -14 18 11 29 -17 29 -72 l0 -51 -47 -13
c-27 -7 -56 -14 -66 -17 -24 -6 -17 -25 17 -42 26 -12 35 -10 138 44 l110 57
-7 -33 c-4 -19 -21 -53 -37 -76 -16 -24 -26 -43 -22 -43 18 0 76 77 92 122 13
37 23 50 42 54 14 3 33 8 43 11 13 3 17 -2 17 -26 0 -42 -20 -81 -42 -81 -24
0 -23 -12 2 -35 19 -17 21 -17 39 -1 11 10 27 47 37 82 22 82 15 92 -56 78
-28 -6 -52 -8 -55 -6 -7 7 -6 52 1 78 4 17 19 24 65 34 33 7 61 11 62 9 2 -2
16 -35 31 -74 15 -38 33 -82 39 -97 10 -25 8 -31 -23 -63 -39 -40 -20 -49 22
-10 15 14 29 25 32 25 3 0 23 -24 45 -54 43 -57 95 -96 130 -96 11 0 21 1 21
3 0 10 -32 152 -35 155 -2 2 -9 -15 -15 -38 -8 -31 -15 -40 -26 -36 -9 3 -17
6 -19 6 -2 0 -20 21 -39 46 l-36 47 31 54 c25 43 29 57 19 68 -7 8 -21 15 -31
15 -15 0 -19 -7 -19 -32 0 -39 -11 -60 -26 -50 -11 8 -54 108 -54 128 0 9 21
15 61 20 48 5 57 9 44 17 -10 5 -41 7 -70 4 l-53 -5 -6 31 c-3 18 -8 55 -12
82 -4 28 -12 53 -18 57 -14 10 -66 10 -66 1z"/>
<path d="M632 541 c14 -22 75 -54 89 -46 30 19 -23 65 -76 65 -22 0 -24 -2
-13 -19z"/>
</g>
</svg>
