<?xml version="1.0" standalone="no"?>
<!DOCTYPE svg PUBLIC "-//W3C//DTD SVG 20010904//EN"
 "http://www.w3.org/TR/2001/REC-SVG-20010904/DTD/svg10.dtd">
<svg version="1.0" xmlns="http://www.w3.org/2000/svg"
 width="96.000000pt" height="68.000000pt" viewBox="0 0 96.000000 68.000000"
 preserveAspectRatio="xMidYMid meet">
<metadata>
Created by potrace 1.16, written by Peter Selinger 2001-2019
</metadata>
<g transform="translate(0.000000,68.000000) scale(0.100000,-0.100000)"
fill="#000000" stroke="none">
<path d="M611 172 c-6 -10 -7 -23 -3 -27 4 -5 2 -5 -4 -2 -15 9 -49 -29 -35
-38 15 -9 33 4 25 17 -5 7 -2 8 5 3 8 -4 21 2 33 15 18 20 19 23 5 37 -13 14
-16 13 -26 -5z"/>
<path d="M513 81 c-18 -15 -33 -31 -33 -35 0 -4 7 0 16 8 8 9 21 16 28 16 17
0 40 27 29 33 -4 3 -23 -7 -40 -22z"/>
</g>
</svg>
