<?xml version="1.0" standalone="no"?>
<!DOCTYPE svg PUBLIC "-//W3C//DTD SVG 20010904//EN"
 "http://www.w3.org/TR/2001/REC-SVG-20010904/DTD/svg10.dtd">
<svg version="1.0" xmlns="http://www.w3.org/2000/svg"
 width="96.000000pt" height="68.000000pt" viewBox="0 0 96.000000 68.000000"
 preserveAspectRatio="xMidYMid meet">
<metadata>
Created by potrace 1.16, written by Peter Selinger 2001-2019
</metadata>
<g transform="translate(0.000000,68.000000) scale(0.100000,-0.100000)"
fill="#000000" stroke="none">
<path d="M390 607 c0 -8 11 -24 25 -37 14 -13 25 -27 25 -30 0 -4 -41 -10 -92
-13 -79 -5 -93 -4 -104 11 -15 20 -22 14 -54 -45 -38 -70 -1 -104 42 -38 20
30 28 35 65 35 23 0 49 3 59 7 31 12 1 -26 -51 -62 -55 -40 -47 -46 17 -12 70
37 98 58 98 73 0 10 13 14 40 14 38 0 40 -2 40 -30 0 -39 23 -50 104 -50 51 0
66 3 66 14 0 12 -14 14 -65 12 -36 -2 -68 0 -71 5 -2 4 -2 19 2 33 7 27 45 41
98 34 l28 -3 -22 -27 c-25 -33 -17 -35 58 -17 66 16 72 26 38 56 -28 24 -34
25 -105 19 -42 -4 -91 -9 -108 -12 -27 -5 -33 -3 -33 11 0 21 -21 42 -55 55
-35 13 -45 13 -45 -3z"/>
<path d="M470 394 c-52 -7 -123 -13 -157 -13 -58 -1 -81 -12 -50 -24 7 -3 21
-32 30 -66 l17 -61 32 7 c72 15 99 6 79 -25 -5 -9 -44 -15 -115 -19 -59 -3
-109 -9 -111 -13 -8 -13 70 -20 106 -10 41 12 99 13 99 2 0 -10 -90 -65 -168
-103 -31 -15 -49 -28 -38 -28 22 -1 124 43 178 76 21 13 40 23 43 23 3 0 5
-24 5 -52 0 -111 42 -101 50 11 l5 68 88 -64 c49 -35 100 -64 115 -65 53 -3
122 2 122 10 0 4 -31 15 -68 25 -61 16 -212 85 -236 108 -6 5 40 9 114 9 109
0 122 2 110 15 -18 17 -60 20 -167 10 -79 -7 -83 -7 -83 13 0 15 8 21 34 24
19 2 44 1 55 -3 13 -5 24 -3 32 7 22 27 58 114 53 128 -5 12 -54 29 -73 25 -3
-1 -49 -7 -101 -15z m110 -33 c0 -16 -9 -20 -55 -23 -51 -3 -55 -2 -55 20 0
20 5 22 55 22 47 0 55 -3 55 -19z m-152 -13 c-3 -21 -9 -23 -58 -23 -43 0 -55
4 -58 17 -3 17 17 23 86 27 29 1 33 -2 30 -21z m142 -48 c0 -11 -6 -20 -12
-20 -7 0 -30 -3 -50 -6 -34 -6 -38 -4 -38 14 0 17 8 22 38 25 20 2 43 4 50 5
6 1 12 -7 12 -18z m-142 -17 c-2 -14 -15 -19 -49 -21 -40 -3 -47 0 -52 18 -5
18 -1 20 50 20 46 0 54 -3 51 -17z"/>
</g>
</svg>
