<?xml version="1.0" standalone="no"?>
<!DOCTYPE svg PUBLIC "-//W3C//DTD SVG 20010904//EN"
 "http://www.w3.org/TR/2001/REC-SVG-20010904/DTD/svg10.dtd">
<svg version="1.0" xmlns="http://www.w3.org/2000/svg"
 width="96.000000pt" height="68.000000pt" viewBox="0 0 96.000000 68.000000"
 preserveAspectRatio="xMidYMid meet">
<metadata>
Created by potrace 1.16, written by Peter Selinger 2001-2019
</metadata>
<g transform="translate(0.000000,68.000000) scale(0.100000,-0.100000)"
fill="#000000" stroke="none">
<path d="M497 483 c3 -21 11 -41 17 -46 16 -11 156 -4 159 8 1 6 -29 11 -70
13 -74 3 -81 8 -63 43 10 17 7 19 -19 19 -29 0 -30 -1 -24 -37z"/>
<path d="M347 472 c-23 -21 -53 -46 -67 -55 -37 -25 -6 -20 48 7 81 43 103 61
90 74 -18 18 -25 15 -71 -26z"/>
</g>
</svg>
