<?xml version="1.0" standalone="no"?>
<!DOCTYPE svg PUBLIC "-//W3C//DTD SVG 20010904//EN"
 "http://www.w3.org/TR/2001/REC-SVG-20010904/DTD/svg10.dtd">
<svg version="1.0" xmlns="http://www.w3.org/2000/svg"
 width="96.000000pt" height="68.000000pt" viewBox="0 0 96.000000 68.000000"
 preserveAspectRatio="xMidYMid meet">
<metadata>
Created by potrace 1.16, written by Peter Selinger 2001-2019
</metadata>
<g transform="translate(0.000000,68.000000) scale(0.100000,-0.100000)"
fill="#000000" stroke="none">
<path d="M510 595 c0 -45 -78 -181 -149 -257 -41 -46 -6 -31 51 21 29 27 69
74 88 104 19 31 38 56 41 57 4 0 33 -32 64 -71 32 -38 67 -77 79 -85 22 -15
166 -21 166 -6 0 4 -28 17 -63 30 -70 25 -168 85 -210 130 -24 25 -27 33 -18
50 9 16 7 24 -5 36 -24 24 -44 20 -44 -9z"/>
</g>
</svg>
