<?xml version="1.0" standalone="no"?>
<!DOCTYPE svg PUBLIC "-//W3C//DTD SVG 20010904//EN"
 "http://www.w3.org/TR/2001/REC-SVG-20010904/DTD/svg10.dtd">
<svg version="1.0" xmlns="http://www.w3.org/2000/svg"
 width="96.000000pt" height="68.000000pt" viewBox="0 0 96.000000 68.000000"
 preserveAspectRatio="xMidYMid meet">
<metadata>
Created by potrace 1.16, written by Peter Selinger 2001-2019
</metadata>
<g transform="translate(0.000000,68.000000) scale(0.100000,-0.100000)"
fill="#000000" stroke="none">
<path d="M731 431 c-9 -6 -7 -10 9 -14 17 -4 20 -10 15 -26 -3 -12 -3 -21 2
-21 5 0 7 -18 5 -40 -2 -22 -8 -40 -13 -40 -13 0 -11 -38 3 -46 7 -4 8 -3 4 4
-4 7 -1 12 8 12 9 0 16 5 16 11 0 5 -6 7 -12 4 -7 -4 -6 -1 2 7 16 14 22 98 8
98 -4 0 -8 4 -8 10 0 5 7 7 15 4 20 -8 19 -2 -5 26 -13 15 -20 18 -20 9 0 -10
-2 -11 -8 -2 -4 7 -13 9 -21 4z"/>
<path d="M540 395 c0 -8 4 -15 8 -15 4 0 8 -27 7 -60 0 -33 4 -60 8 -60 11 0
6 119 -5 126 -4 3 -6 10 -3 15 4 5 1 9 -4 9 -6 0 -11 -7 -11 -15z"/>
</g>
</svg>
