<?xml version="1.0" standalone="no"?>
<!DOCTYPE svg PUBLIC "-//W3C//DTD SVG 20010904//EN"
 "http://www.w3.org/TR/2001/REC-SVG-20010904/DTD/svg10.dtd">
<svg version="1.0" xmlns="http://www.w3.org/2000/svg"
 width="96.000000pt" height="68.000000pt" viewBox="0 0 96.000000 68.000000"
 preserveAspectRatio="xMidYMid meet">
<metadata>
Created by potrace 1.16, written by Peter Selinger 2001-2019
</metadata>
<g transform="translate(0.000000,68.000000) scale(0.100000,-0.100000)"
fill="#000000" stroke="none">
<path d="M290 551 c0 -11 -10 -32 -22 -46 l-23 -26 -42 23 c-23 12 -45 19 -50
15 -4 -5 -1 -12 8 -17 9 -5 27 -18 40 -30 l24 -21 -39 -32 c-22 -17 -51 -42
-65 -55 l-26 -23 30 6 c17 4 51 20 78 36 26 16 49 29 52 29 3 0 5 -17 5 -38 0
-35 -7 -46 -69 -105 -38 -37 -74 -67 -80 -67 -6 0 -11 -4 -11 -9 0 -21 91 23
130 62 l42 42 -7 -70 c-10 -96 -17 -107 -63 -99 l-37 6 43 -43 43 -44 24 28
c13 15 29 44 34 65 16 57 13 204 -5 258 l-16 47 41 41 c48 49 51 63 15 76 -38
15 -54 12 -54 -9z"/>
<path d="M544 555 c-10 -26 -95 -77 -118 -71 -21 5 -21 2 -22 -87 -1 -96 -20
-189 -53 -257 -23 -48 -18 -50 20 -8 39 45 69 147 69 239 0 41 4 79 8 86 4 6
43 28 87 47 92 43 94 44 75 56 -23 15 -60 12 -66 -5z"/>
<path d="M570 455 c0 -3 6 -16 14 -28 8 -12 37 -77 66 -144 28 -67 60 -129 70
-138 13 -12 33 -15 81 -13 l64 3 -44 30 c-78 53 -135 119 -181 208 -25 48 -51
87 -57 87 -7 0 -13 -2 -13 -5z"/>
<path d="M500 448 c0 -2 -2 -64 -3 -138 -2 -81 -9 -144 -16 -158 -13 -24 -7
-62 10 -62 5 0 34 18 64 40 l54 40 19 -25 c24 -31 42 -32 42 -4 0 20 -64 89
-82 89 -11 0 -10 -14 3 -27 8 -8 4 -15 -12 -27 -44 -31 -49 -23 -49 77 0 50 5
110 10 132 9 41 0 65 -26 65 -8 0 -14 -1 -14 -2z"/>
</g>
</svg>
