<?xml version="1.0" standalone="no"?>
<!DOCTYPE svg PUBLIC "-//W3C//DTD SVG 20010904//EN"
 "http://www.w3.org/TR/2001/REC-SVG-20010904/DTD/svg10.dtd">
<svg version="1.0" xmlns="http://www.w3.org/2000/svg"
 width="96.000000pt" height="68.000000pt" viewBox="0 0 96.000000 68.000000"
 preserveAspectRatio="xMidYMid meet">
<metadata>
Created by potrace 1.16, written by Peter Selinger 2001-2019
</metadata>
<g transform="translate(0.000000,68.000000) scale(0.100000,-0.100000)"
fill="#000000" stroke="none">
<path d="M605 478 c0 -32 -2 -33 -42 -36 -57 -4 -55 -22 2 -22 41 0 45 -2 45
-25 0 -23 -4 -25 -45 -25 -25 0 -45 -4 -45 -10 0 -5 20 -10 45 -10 41 0 45 -2
45 -25 0 -37 34 -29 41 10 3 16 15 21 57 26 29 4 56 9 59 12 8 9 -64 19 -85
13 -23 -8 -35 5 -26 28 4 10 24 18 55 22 69 9 72 24 5 24 -53 0 -56 1 -56 25
0 21 -5 25 -28 25 -24 0 -27 -4 -27 -32z"/>
</g>
</svg>
