<?xml version="1.0" standalone="no"?>
<!DOCTYPE svg PUBLIC "-//W3C//DTD SVG 20010904//EN"
 "http://www.w3.org/TR/2001/REC-SVG-20010904/DTD/svg10.dtd">
<svg version="1.0" xmlns="http://www.w3.org/2000/svg"
 width="96.000000pt" height="68.000000pt" viewBox="0 0 96.000000 68.000000"
 preserveAspectRatio="xMidYMid meet">
<metadata>
Created by potrace 1.16, written by Peter Selinger 2001-2019
</metadata>
<g transform="translate(0.000000,68.000000) scale(0.100000,-0.100000)"
fill="#000000" stroke="none">
<path d="M530 526 c0 -64 3 -62 -93 -71 -43 -4 -65 -10 -61 -17 4 -7 31 -8 75
-4 l68 6 -10 -32 c-12 -45 -12 -47 11 -41 12 3 24 20 31 44 l12 38 88 7 c49 3
89 10 89 15 0 16 -49 21 -105 12 -48 -9 -55 -8 -55 6 0 9 7 26 15 38 17 24 7
37 -38 48 l-27 7 0 -56z"/>
</g>
</svg>
