<?xml version="1.0" standalone="no"?>
<!DOCTYPE svg PUBLIC "-//W3C//DTD SVG 20010904//EN"
 "http://www.w3.org/TR/2001/REC-SVG-20010904/DTD/svg10.dtd">
<svg version="1.0" xmlns="http://www.w3.org/2000/svg"
 width="96.000000pt" height="68.000000pt" viewBox="0 0 96.000000 68.000000"
 preserveAspectRatio="xMidYMid meet">
<metadata>
Created by potrace 1.16, written by Peter Selinger 2001-2019
</metadata>
<g transform="translate(0.000000,68.000000) scale(0.100000,-0.100000)"
fill="#000000" stroke="none">
<path d="M533 531 c0 -27 -3 -53 -7 -59 -3 -5 -40 -13 -83 -17 -60 -5 -73 -9
-59 -17 11 -6 44 -8 76 -5 l58 6 -10 -39 c-10 -38 -12 -40 -50 -40 l-40 0 6
-37 c3 -21 7 -85 8 -143 l3 -105 -65 -5 c-63 -5 -64 -6 -36 -18 22 -9 43 -10
80 -3 28 6 133 13 234 17 100 4 182 10 182 14 0 12 -40 20 -104 20 l-58 0 6
98 c4 53 9 113 12 133 4 31 2 37 -21 47 -19 9 -38 9 -72 2 -25 -6 -47 -9 -49
-7 -2 2 2 19 8 39 l11 37 88 7 c89 7 112 18 64 30 -26 6 -88 0 -121 -13 -18
-6 -17 4 1 63 5 18 1 23 -26 33 -17 6 -33 11 -34 11 -1 0 -2 -22 -2 -49z m97
-201 c0 -26 -4 -30 -27 -30 -16 0 -52 -3 -80 -6 -52 -7 -53 -6 -53 19 0 20 6
28 23 31 12 3 31 7 42 9 11 3 37 5 58 6 35 1 37 -1 37 -29z m0 -99 l0 -59 -67
-8 c-38 -4 -72 -8 -78 -9 -5 0 -11 10 -13 22 -3 23 4 25 101 39 78 10 55 26
-28 18 -72 -6 -75 -6 -75 15 0 18 6 21 38 22 29 0 106 12 120 18 1 0 2 -25 2
-58z m-40 -143 c-25 -3 -62 -7 -82 -7 -36 -1 -38 1 -38 29 0 28 3 30 38 31 20
0 55 3 77 7 39 7 40 7 45 -23 5 -29 3 -30 -40 -37z"/>
<path d="M318 505 c-3 -3 -45 -11 -94 -18 -97 -14 -113 -30 -34 -35 42 -3 50
-6 50 -23 0 -28 -15 -53 -72 -126 -26 -35 -44 -63 -39 -63 5 0 14 7 21 15 19
23 33 18 72 -22 l37 -38 -28 -37 c-15 -20 -47 -53 -72 -73 -58 -48 -56 -47
-34 -39 61 21 138 102 202 208 20 34 43 69 51 78 25 30 5 41 -65 34 l-65 -7
26 34 c29 38 32 53 14 60 -7 3 -1 6 13 6 73 2 126 51 56 51 -19 0 -36 -2 -39
-5z m7 -177 c-8 -28 -26 -69 -39 -86 -7 -10 -13 -9 -28 5 -11 10 -31 22 -45
28 l-25 10 21 27 c20 25 41 33 99 37 20 1 22 -3 17 -21z"/>
</g>
</svg>
