<?xml version="1.0" standalone="no"?>
<!DOCTYPE svg PUBLIC "-//W3C//DTD SVG 20010904//EN"
 "http://www.w3.org/TR/2001/REC-SVG-20010904/DTD/svg10.dtd">
<svg version="1.0" xmlns="http://www.w3.org/2000/svg"
 width="96.000000pt" height="68.000000pt" viewBox="0 0 96.000000 68.000000"
 preserveAspectRatio="xMidYMid meet">
<metadata>
Created by potrace 1.16, written by Peter Selinger 2001-2019
</metadata>
<g transform="translate(0.000000,68.000000) scale(0.100000,-0.100000)"
fill="#000000" stroke="none">
<path d="M620 341 c0 -174 4 -280 11 -298 10 -26 12 -27 20 -8 4 11 11 59 14
107 l7 87 51 6 c29 3 66 8 82 9 17 2 34 4 38 5 5 0 5 6 1 12 -5 8 -33 10 -91
5 l-84 -6 3 37 3 38 50 3 c28 1 61 5 74 8 45 10 2 22 -59 17 -55 -5 -57 -4
-64 20 -10 41 1 54 47 55 61 2 98 12 91 24 -6 10 -86 4 -119 -8 -12 -5 -15 7
-15 69 0 59 -3 76 -16 81 -45 17 -44 21 -44 -263z"/>
<path d="M474 543 c4 -9 10 -36 13 -60 l6 -43 -35 0 c-53 0 -98 -11 -92 -22 4
-6 30 -7 66 -3 l59 7 -3 -33 c-3 -33 -4 -34 -65 -43 -84 -13 -82 -30 2 -21
l65 7 0 -31 c0 -39 -17 -48 -122 -64 l-83 -13 27 -18 c27 -17 30 -17 70 -1 72
29 98 35 98 22 0 -12 -20 -91 -34 -134 -12 -38 10 -26 37 20 34 58 45 119 53
283 6 137 6 142 -14 153 -32 17 -55 14 -48 -6z"/>
<path d="M225 455 c-22 -7 -61 -14 -86 -14 l-47 -1 18 -36 c10 -19 21 -53 25
-74 8 -45 31 -72 41 -46 4 12 19 16 54 16 53 0 83 8 75 20 -3 4 5 35 17 69 12
33 19 63 16 66 -13 13 -76 13 -113 0z m40 -62 c-10 -61 -12 -63 -55 -63 -27 0
-40 4 -40 14 0 7 -3 27 -6 44 -7 33 -11 31 89 40 15 2 17 -3 12 -35z"/>
</g>
</svg>
