<?xml version="1.0" standalone="no"?>
<!DOCTYPE svg PUBLIC "-//W3C//DTD SVG 20010904//EN"
 "http://www.w3.org/TR/2001/REC-SVG-20010904/DTD/svg10.dtd">
<svg version="1.0" xmlns="http://www.w3.org/2000/svg"
 width="96.000000pt" height="68.000000pt" viewBox="0 0 96.000000 68.000000"
 preserveAspectRatio="xMidYMid meet">
<metadata>
Created by potrace 1.16, written by Peter Selinger 2001-2019
</metadata>
<g transform="translate(0.000000,68.000000) scale(0.100000,-0.100000)"
fill="#000000" stroke="none">
<path d="M240 454 c-19 -7 -61 -13 -93 -13 l-58 -1 20 -26 c11 -14 23 -45 26
-68 8 -52 22 -76 33 -59 4 6 35 15 69 19 35 3 61 10 58 13 -2 4 7 33 20 64
l23 57 -21 15 c-25 17 -30 17 -77 -1z m30 -56 c0 -56 -8 -66 -57 -74 -40 -6
-41 -6 -48 27 -3 19 -9 41 -11 50 -4 13 7 19 53 27 32 5 59 10 61 11 1 0 2
-18 2 -41z"/>
</g>
</svg>
