<?xml version="1.0" standalone="no"?>
<!DOCTYPE svg PUBLIC "-//W3C//DTD SVG 20010904//EN"
 "http://www.w3.org/TR/2001/REC-SVG-20010904/DTD/svg10.dtd">
<svg version="1.0" xmlns="http://www.w3.org/2000/svg"
 width="90.000000pt" height="92.000000pt" viewBox="0 0 90.000000 92.000000"
 preserveAspectRatio="xMidYMid meet">
<metadata>
Created by potrace 1.16, written by Peter Selinger 2001-2019
</metadata>
<g transform="translate(0.000000,92.000000) scale(0.100000,-0.100000)"
fill="#000000" stroke="none">
<path d="M255 818 c3 -24 9 -50 11 -59 4 -14 -9 -19 -73 -28 -84 -13 -88 -14
-78 -32 6 -8 29 -10 81 -5 l74 6 0 -29 c0 -31 -3 -33 -69 -46 -33 -7 -34 -8
-15 -22 10 -8 27 -12 36 -9 17 4 58 -39 58 -61 0 -5 -37 -15 -82 -22 -123 -18
-131 -21 -117 -37 14 -17 45 -18 105 -3 25 6 47 9 50 6 10 -10 -53 -92 -107
-141 -28 -25 -46 -46 -39 -46 24 0 99 52 144 100 43 46 48 48 76 39 37 -13 41
-53 8 -94 -17 -22 -27 -26 -54 -22 l-32 5 21 -36 c11 -20 22 -39 24 -41 1 -2
14 1 29 7 17 9 36 35 60 88 19 41 34 77 34 79 0 15 -37 35 -66 35 -19 0 -34 4
-34 9 0 5 -3 16 -6 24 -4 11 9 16 61 22 80 8 85 30 7 30 -28 -1 -48 3 -46 7
10 16 -7 46 -29 53 -17 6 -6 10 43 17 94 14 99 16 75 34 -13 10 -32 14 -52 10
-31 -4 -33 -3 -33 24 0 31 6 34 82 45 26 3 50 10 53 15 10 16 -62 32 -99 21
l-36 -9 0 44 c0 39 -3 46 -26 54 -42 16 -46 13 -39 -32z"/>
<path d="M526 833 c-3 -3 -6 -21 -6 -39 0 -37 -42 -178 -72 -239 l-19 -40 33
36 c28 31 39 36 76 36 l42 0 0 -56 c0 -82 -7 -88 -69 -57 -63 32 -66 20 -6
-23 25 -18 45 -36 45 -40 0 -18 -81 -83 -126 -101 -43 -17 -45 -19 -20 -20 48
0 104 21 146 58 46 38 37 41 128 -40 58 -52 69 -56 79 -32 10 28 -15 62 -79
105 -35 23 -65 44 -67 45 -2 2 4 35 13 74 14 56 15 74 5 86 -16 19 -13 21 55
37 63 14 72 26 33 45 -22 11 -32 10 -64 -4 -82 -35 -145 -54 -140 -41 41 91
68 169 64 181 -7 18 -42 38 -51 29z"/>
<path d="M101 179 c-23 -42 -31 -67 -27 -85 16 -62 77 5 80 87 1 65 -16 65
-53 -2z"/>
<path d="M647 203 c16 -21 40 -55 53 -75 26 -39 45 -52 61 -42 12 7 11 51 -2
75 -13 25 -96 79 -122 79 -17 0 -15 -4 10 -37z"/>
<path d="M450 225 c0 -11 43 -90 58 -107 27 -32 43 -22 40 24 -2 35 -9 46 -37
65 -32 22 -61 30 -61 18z"/>
<path d="M280 209 c0 -23 52 -119 65 -119 42 0 28 80 -19 109 -38 24 -46 26
-46 10z"/>
</g>
</svg>
