<?xml version="1.0" standalone="no"?>
<!DOCTYPE svg PUBLIC "-//W3C//DTD SVG 20010904//EN"
 "http://www.w3.org/TR/2001/REC-SVG-20010904/DTD/svg10.dtd">
<svg version="1.0" xmlns="http://www.w3.org/2000/svg"
 width="96.000000pt" height="68.000000pt" viewBox="0 0 96.000000 68.000000"
 preserveAspectRatio="xMidYMid meet">
<metadata>
Created by potrace 1.16, written by Peter Selinger 2001-2019
</metadata>
<g transform="translate(0.000000,68.000000) scale(0.100000,-0.100000)"
fill="#000000" stroke="none">
<path d="M234 231 c-6 -28 -10 -31 -81 -42 -57 -9 -71 -14 -58 -22 16 -8 89
-3 122 10 11 5 13 -6 7 -59 -4 -44 -2 -72 6 -88 12 -23 13 -23 26 -5 9 12 14
45 14 86 0 75 3 79 76 79 24 0 44 4 44 9 0 14 -56 24 -90 16 -27 -6 -30 -4
-30 19 0 37 -29 34 -36 -3z"/>
</g>
</svg>
