<?xml version="1.0" standalone="no"?>
<!DOCTYPE svg PUBLIC "-//W3C//DTD SVG 20010904//EN"
 "http://www.w3.org/TR/2001/REC-SVG-20010904/DTD/svg10.dtd">
<svg version="1.0" xmlns="http://www.w3.org/2000/svg"
 width="96.000000pt" height="68.000000pt" viewBox="0 0 96.000000 68.000000"
 preserveAspectRatio="xMidYMid meet">
<metadata>
Created by potrace 1.16, written by Peter Selinger 2001-2019
</metadata>
<g transform="translate(0.000000,68.000000) scale(0.100000,-0.100000)"
fill="#000000" stroke="none">
<path d="M510 412 c0 -5 5 -13 11 -19 8 -8 -4 -13 -47 -18 -107 -11 -129 -24
-36 -22 l83 2 -3 -25 c-2 -17 -9 -25 -20 -24 -14 1 -15 -2 -8 -15 29 -54 60
-44 67 23 l6 46 46 1 c25 0 69 4 96 8 46 6 48 8 28 19 -15 9 -40 9 -95 2 -56
-7 -75 -6 -83 4 -12 15 -45 28 -45 18z"/>
</g>
</svg>
