<?xml version="1.0" standalone="no"?>
<!DOCTYPE svg PUBLIC "-//W3C//DTD SVG 20010904//EN"
 "http://www.w3.org/TR/2001/REC-SVG-20010904/DTD/svg10.dtd">
<svg version="1.0" xmlns="http://www.w3.org/2000/svg"
 width="96.000000pt" height="68.000000pt" viewBox="0 0 96.000000 68.000000"
 preserveAspectRatio="xMidYMid meet">
<metadata>
Created by potrace 1.16, written by Peter Selinger 2001-2019
</metadata>
<g transform="translate(0.000000,68.000000) scale(0.100000,-0.100000)"
fill="#000000" stroke="none">
<path d="M325 590 c-3 -16 -13 -34 -21 -41 -8 -6 -14 -17 -14 -24 0 -12 -55
-67 -118 -117 -33 -27 -34 -28 -10 -28 13 0 48 16 78 35 30 19 57 35 61 35 3
0 2 -30 -2 -67 -9 -82 -3 -113 21 -113 10 0 20 5 22 11 5 14 136 27 270 28 60
1 99 5 104 12 13 21 -22 28 -110 22 -82 -6 -89 -5 -83 11 4 10 7 20 7 22 0 2
20 4 44 4 58 0 106 10 106 23 0 6 -28 8 -75 5 -66 -4 -75 -3 -75 12 0 13 12
19 48 24 81 11 102 17 102 28 0 7 -24 9 -73 5 -67 -6 -73 -5 -73 12 0 16 12
21 74 30 84 13 102 20 79 32 -14 8 -58 4 -282 -27 l-40 -6 23 24 c12 13 22 29
22 34 0 10 -27 26 -62 38 -12 3 -18 -3 -23 -24z m159 -106 c8 -21 11 -20 -55
-31 -68 -11 -79 -8 -79 23 0 23 3 24 64 24 50 0 65 -4 70 -16z m6 -68 c0 -10
-16 -17 -47 -21 -27 -3 -58 -7 -70 -9 -18 -3 -23 2 -23 20 0 23 3 24 70 24 54
0 70 -3 70 -14z m-7 -54 c13 -20 -15 -36 -72 -40 -56 -4 -61 -3 -61 16 0 11 8
22 18 24 37 8 111 8 115 0z"/>
<path d="M467 614 c-11 -11 18 -64 35 -64 37 0 33 40 -7 58 -12 6 -25 8 -28 6z"/>
<path d="M669 275 c-3 -2 -34 -6 -70 -9 l-64 -4 0 -49 0 -48 -47 -3 -47 -3 -3
43 -3 43 -45 -2 c-25 -1 -69 -3 -98 -4 -53 -2 -54 -2 -47 -28 4 -14 10 -57 14
-95 11 -120 46 -90 39 33 -3 68 -1 71 64 71 38 0 40 -1 37 -32 -3 -56 0 -68
20 -68 11 0 22 4 25 9 9 14 79 21 92 10 21 -17 32 -3 39 51 6 46 9 50 39 56
18 3 46 4 62 2 29 -3 29 -3 25 -63 -1 -32 -7 -70 -12 -83 -8 -21 -14 -24 -44
-19 -19 3 -35 3 -35 1 0 -3 15 -21 33 -40 23 -25 38 -33 50 -28 23 8 45 63 57
138 5 34 12 70 15 82 5 15 0 23 -20 32 -26 12 -68 16 -76 7z"/>
</g>
</svg>
