<?xml version="1.0" standalone="no"?>
<!DOCTYPE svg PUBLIC "-//W3C//DTD SVG 20010904//EN"
 "http://www.w3.org/TR/2001/REC-SVG-20010904/DTD/svg10.dtd">
<svg version="1.0" xmlns="http://www.w3.org/2000/svg"
 width="96.000000pt" height="68.000000pt" viewBox="0 0 96.000000 68.000000"
 preserveAspectRatio="xMidYMid meet">
<metadata>
Created by potrace 1.16, written by Peter Selinger 2001-2019
</metadata>
<g transform="translate(0.000000,68.000000) scale(0.100000,-0.100000)"
fill="#000000" stroke="none">
<path d="M700 265 c0 -9 7 -18 15 -21 8 -4 15 -10 15 -16 0 -5 -4 -7 -8 -4 -4
2 -8 -7 -9 -22 -1 -43 -9 -87 -17 -101 -5 -8 -3 -16 5 -21 7 -5 -7 -7 -32 -4
-31 3 -40 1 -29 -6 8 -5 11 -10 7 -10 -5 0 -1 -7 7 -16 9 -8 21 -12 27 -8 8 4
9 3 5 -4 -4 -7 -3 -12 2 -12 12 0 37 30 26 30 -5 0 -3 4 5 9 12 8 13 12 1 26
-11 13 -11 16 0 13 15 -3 34 73 26 105 -2 9 -1 17 4 17 4 0 10 6 13 14 3 8 -8
19 -29 29 -30 15 -34 15 -34 2z"/>
<path d="M603 253 c9 -2 23 -2 30 0 6 3 -1 5 -18 5 -16 0 -22 -2 -12 -5z"/>
</g>
</svg>
