<?xml version="1.0" standalone="no"?>
<!DOCTYPE svg PUBLIC "-//W3C//DTD SVG 20010904//EN"
 "http://www.w3.org/TR/2001/REC-SVG-20010904/DTD/svg10.dtd">
<svg version="1.0" xmlns="http://www.w3.org/2000/svg"
 width="90.000000pt" height="92.000000pt" viewBox="0 0 90.000000 92.000000"
 preserveAspectRatio="xMidYMid meet">
<metadata>
Created by potrace 1.16, written by Peter Selinger 2001-2019
</metadata>
<g transform="translate(0.000000,92.000000) scale(0.100000,-0.100000)"
fill="#000000" stroke="none">
<path d="M255 828 c11 -34 18 -219 8 -228 -4 -4 -32 -11 -62 -15 l-53 -7 7 70
7 71 -32 16 -33 17 6 -38 c3 -22 1 -59 -4 -84 -20 -87 -20 -95 -7 -112 12 -16
17 -16 73 11 33 16 71 32 85 35 l25 5 -5 -72 -5 -72 -55 -12 c-30 -7 -81 -14
-112 -14 -32 -1 -58 -5 -58 -9 0 -3 12 -17 26 -31 24 -22 25 -28 19 -79 -4
-30 -17 -82 -30 -115 -14 -32 -22 -61 -19 -64 3 -3 21 11 39 31 33 36 75 145
79 203 1 21 10 28 59 44 l58 20 -6 -62 c-3 -34 -11 -96 -17 -137 -9 -66 -9
-80 6 -109 17 -31 19 -32 34 -17 15 15 18 57 23 329 4 172 10 335 14 364 7 50
7 52 -23 67 -43 22 -56 21 -47 -6z"/>
<path d="M477 804 c-3 -3 -2 -17 4 -31 5 -13 9 -78 9 -143 0 -131 4 -124 -76
-135 -69 -10 -83 -19 -54 -35 15 -8 41 -10 76 -5 l54 6 -6 -33 c-20 -111 -42
-161 -104 -230 -45 -52 -36 -63 21 -25 40 27 95 114 111 175 6 23 14 42 19 42
5 0 9 -4 9 -8 0 -11 78 -138 119 -195 21 -29 46 -51 67 -57 34 -11 131 -4 140
11 2 5 -28 25 -68 45 -97 49 -139 83 -210 172 -81 102 -78 114 27 125 109 11
127 16 122 30 -2 7 -15 18 -29 25 -21 10 -38 9 -93 -3 -37 -9 -70 -14 -73 -11
-3 3 -1 63 5 133 8 110 7 130 -6 141 -15 13 -53 16 -64 6z"/>
<path d="M620 691 c0 -15 73 -71 92 -71 18 0 33 33 23 50 -12 20 -115 39 -115
21z"/>
</g>
</svg>
