<?xml version="1.0" standalone="no"?>
<!DOCTYPE svg PUBLIC "-//W3C//DTD SVG 20010904//EN"
 "http://www.w3.org/TR/2001/REC-SVG-20010904/DTD/svg10.dtd">
<svg version="1.0" xmlns="http://www.w3.org/2000/svg"
 width="96.000000pt" height="68.000000pt" viewBox="0 0 96.000000 68.000000"
 preserveAspectRatio="xMidYMid meet">
<metadata>
Created by potrace 1.16, written by Peter Selinger 2001-2019
</metadata>
<g transform="translate(0.000000,68.000000) scale(0.100000,-0.100000)"
fill="#000000" stroke="none">
<path d="M450 395 c-30 -7 -77 -14 -103 -14 -33 -1 -46 -5 -41 -12 7 -11 69
-9 187 7 42 6 47 5 47 -12 0 -37 -15 -43 -135 -55 -66 -6 -121 -13 -123 -14
-2 -2 1 -12 6 -22 7 -13 6 -28 -4 -52 -20 -47 -6 -59 43 -37 38 16 193 36 225
28 37 -9 32 -85 -8 -123 -26 -24 -24 -24 -99 7 -14 6 -9 -5 18 -38 36 -44 40
-46 68 -36 39 13 77 60 85 106 4 20 13 46 21 58 12 18 11 23 -7 39 -19 17 -28
18 -134 7 -160 -17 -156 -17 -156 17 0 27 2 28 61 35 34 3 79 6 100 6 46 0 69
8 69 25 0 7 10 25 22 40 21 27 21 28 3 41 -22 17 -69 16 -145 -1z"/>
</g>
</svg>
