<?xml version="1.0" standalone="no"?>
<!DOCTYPE svg PUBLIC "-//W3C//DTD SVG 20010904//EN"
 "http://www.w3.org/TR/2001/REC-SVG-20010904/DTD/svg10.dtd">
<svg version="1.0" xmlns="http://www.w3.org/2000/svg"
 width="96.000000pt" height="68.000000pt" viewBox="0 0 96.000000 68.000000"
 preserveAspectRatio="xMidYMid meet">
<metadata>
Created by potrace 1.16, written by Peter Selinger 2001-2019
</metadata>
<g transform="translate(0.000000,68.000000) scale(0.100000,-0.100000)"
fill="#000000" stroke="none">
<path d="M598 509 c4 -62 1 -83 -9 -90 -31 -20 -39 -10 -39 51 0 48 -4 61 -19
70 -29 15 -43 12 -37 -7 3 -10 8 -44 12 -75 l6 -58 -43 0 c-24 0 -50 -4 -58
-9 -24 -15 20 -22 76 -12 28 6 90 13 139 16 49 3 109 8 134 12 l45 6 -30 13
c-16 7 -37 11 -45 9 -8 -2 -33 -6 -54 -10 l-39 -6 6 75 c5 67 3 77 -13 86 -34
18 -37 11 -32 -71z"/>
</g>
</svg>
