<?xml version="1.0" standalone="no"?>
<!DOCTYPE svg PUBLIC "-//W3C//DTD SVG 20010904//EN"
 "http://www.w3.org/TR/2001/REC-SVG-20010904/DTD/svg10.dtd">
<svg version="1.0" xmlns="http://www.w3.org/2000/svg"
 width="96.000000pt" height="68.000000pt" viewBox="0 0 96.000000 68.000000"
 preserveAspectRatio="xMidYMid meet">
<metadata>
Created by potrace 1.16, written by Peter Selinger 2001-2019
</metadata>
<g transform="translate(0.000000,68.000000) scale(0.100000,-0.100000)"
fill="#000000" stroke="none">
<path d="M606 623 c-3 -4 -6 -21 -6 -39 0 -51 -9 -64 -44 -64 -40 0 -65 -14
-41 -24 9 -3 28 -6 41 -6 28 0 29 -5 9 -54 -25 -59 14 -41 53 25 23 38 52 49
135 49 20 0 37 4 37 10 0 19 -42 32 -87 25 -43 -6 -44 -6 -33 15 6 12 9 27 7
35 -6 14 -62 36 -71 28z"/>
<path d="M324 577 c-3 -9 0 -25 6 -37 6 -12 9 -25 5 -28 -3 -3 -35 -8 -71 -10
-53 -4 -64 -7 -62 -20 6 -29 53 -38 109 -20 l51 17 9 -29 c11 -30 38 -48 40
-27 1 7 0 24 -1 40 -1 23 3 28 29 33 46 9 40 34 -6 31 -35 -2 -38 0 -41 26 -2
15 -9 27 -17 27 -7 0 -20 3 -29 6 -9 4 -18 0 -22 -9z"/>
<path d="M327 402 c-3 -4 -7 -28 -11 -53 -8 -53 -17 -58 -106 -59 -45 -1 -51
-3 -36 -12 11 -6 39 -8 67 -5 30 4 49 2 49 -4 0 -28 -33 -82 -86 -139 l-59
-64 44 25 c50 28 107 91 136 151 16 34 27 44 54 49 56 12 64 3 57 -54 -7 -51
-30 -106 -50 -120 -6 -4 -21 -5 -34 -2 l-24 6 18 -31 c11 -18 27 -30 39 -30
29 0 71 69 86 139 6 31 16 64 21 74 18 35 -9 50 -75 43 -53 -5 -59 -4 -54 12
19 58 19 58 -7 70 -14 6 -27 8 -29 4z"/>
<path d="M645 329 c-22 -4 -59 -8 -82 -8 -43 -1 -52 -8 -33 -27 7 -7 40 -155
40 -181 0 -2 7 -3 15 -3 8 0 15 6 15 13 0 8 24 13 77 15 43 2 80 5 82 7 2 3 5
19 7 37 1 18 10 55 19 82 16 47 16 50 -1 63 -20 14 -77 15 -139 2z m76 -31 c2
-33 -4 -94 -12 -115 -7 -20 -15 -23 -58 -23 -55 0 -56 1 -66 83 -7 55 -7 55
21 60 64 9 114 7 115 -5z"/>
</g>
</svg>
