<?xml version="1.0" standalone="no"?>
<!DOCTYPE svg PUBLIC "-//W3C//DTD SVG 20010904//EN"
 "http://www.w3.org/TR/2001/REC-SVG-20010904/DTD/svg10.dtd">
<svg version="1.0" xmlns="http://www.w3.org/2000/svg"
 width="90.000000pt" height="92.000000pt" viewBox="0 0 90.000000 92.000000"
 preserveAspectRatio="xMidYMid meet">
<metadata>
Created by potrace 1.16, written by Peter Selinger 2001-2019
</metadata>
<g transform="translate(0.000000,92.000000) scale(0.100000,-0.100000)"
fill="#000000" stroke="none">
<path d="M440 855 c0 -4 13 -26 29 -50 l29 -43 -84 -12 c-55 -8 -84 -16 -81
-24 2 -6 12 -12 23 -14 12 -2 26 -20 39 -50 11 -25 21 -49 23 -53 3 -8 -28
-15 -110 -24 -63 -7 -73 -18 -32 -32 18 -6 63 -3 133 8 93 15 327 39 382 39
28 0 23 17 -10 35 -24 12 -41 13 -88 5 -32 -6 -73 -13 -91 -16 l-33 -5 27 42
c21 34 24 46 15 61 -9 15 -7 19 17 24 56 12 59 14 38 30 -23 16 -45 17 -99 5
-36 -9 -38 -8 -34 10 7 27 -22 58 -60 65 -18 4 -33 3 -33 -1z m113 -138 c3 -8
0 -35 -6 -60 -10 -46 -11 -47 -47 -47 -34 0 -38 3 -44 32 -3 17 -13 40 -22 49
-15 16 -13 18 28 27 62 14 85 14 91 -1z"/>
<path d="M216 799 c-13 -82 -132 -296 -195 -353 -11 -11 -21 -23 -21 -28 0
-18 63 28 110 80 l48 53 6 -26 c8 -32 -2 -226 -15 -307 -8 -45 -6 -65 5 -92
16 -38 30 -46 39 -22 3 8 7 86 8 173 1 87 5 182 9 211 5 40 3 59 -10 79 -16
26 -15 29 37 126 29 54 53 103 53 107 0 11 -41 40 -56 40 -6 0 -14 -19 -18
-41z"/>
<path d="M525 533 c-27 -7 -80 -15 -116 -15 -65 -2 -67 -2 -53 -23 7 -11 18
-54 24 -94 12 -87 17 -96 37 -79 11 8 49 13 112 14 l95 1 28 69 c16 38 33 73
38 78 16 16 12 25 -22 46 -38 23 -72 24 -143 3z m85 -50 c0 -27 -2 -28 -47
-28 -27 -1 -72 -5 -100 -9 -52 -8 -53 -8 -53 16 0 24 5 26 73 35 124 17 127
17 127 -14z m-13 -78 c-7 -25 -15 -34 -26 -30 -9 3 -46 1 -83 -3 -62 -8 -67
-7 -72 12 -3 11 -4 21 -3 22 2 1 151 27 189 33 3 1 1 -15 -5 -34z"/>
<path d="M722 274 c49 -50 59 -56 73 -44 38 32 -8 81 -90 95 l-40 7 57 -58z"/>
<path d="M485 291 c-2 -4 14 -25 36 -47 39 -38 41 -38 55 -20 18 25 18 31 -1
46 -18 15 -84 30 -90 21z"/>
<path d="M292 226 c-26 -60 -26 -99 1 -104 35 -7 62 104 35 141 -11 14 -16 10
-36 -37z"/>
<path d="M396 216 c19 -54 77 -110 131 -125 97 -27 243 2 243 48 0 11 -10 25
-22 32 -13 6 -38 25 -57 43 l-33 31 7 -44 c9 -55 0 -61 -85 -60 -80 0 -125 22
-155 74 -31 56 -48 57 -29 1z"/>
</g>
</svg>
