<?xml version="1.0" standalone="no"?>
<!DOCTYPE svg PUBLIC "-//W3C//DTD SVG 20010904//EN"
 "http://www.w3.org/TR/2001/REC-SVG-20010904/DTD/svg10.dtd">
<svg version="1.0" xmlns="http://www.w3.org/2000/svg"
 width="96.000000pt" height="68.000000pt" viewBox="0 0 96.000000 68.000000"
 preserveAspectRatio="xMidYMid meet">
<metadata>
Created by potrace 1.16, written by Peter Selinger 2001-2019
</metadata>
<g transform="translate(0.000000,68.000000) scale(0.100000,-0.100000)"
fill="#000000" stroke="none">
<path d="M658 461 l3 -149 -100 -12 c-131 -16 -127 -35 5 -27 l94 6 2 -92 c0
-50 0 -104 -1 -119 -3 -34 17 -46 28 -16 5 13 12 72 16 131 l7 107 64 0 c34 0
66 5 69 10 10 17 -45 31 -93 24 l-45 -7 5 141 c5 148 4 152 -40 152 -15 0 -17
-15 -14 -149z"/>
</g>
</svg>
