<?xml version="1.0" standalone="no"?>
<!DOCTYPE svg PUBLIC "-//W3C//DTD SVG 20010904//EN"
 "http://www.w3.org/TR/2001/REC-SVG-20010904/DTD/svg10.dtd">
<svg version="1.0" xmlns="http://www.w3.org/2000/svg"
 width="96.000000pt" height="68.000000pt" viewBox="0 0 96.000000 68.000000"
 preserveAspectRatio="xMidYMid meet">
<metadata>
Created by potrace 1.16, written by Peter Selinger 2001-2019
</metadata>
<g transform="translate(0.000000,68.000000) scale(0.100000,-0.100000)"
fill="#000000" stroke="none">
<path d="M623 440 c-13 -15 -23 -30 -23 -33 0 -3 23 2 51 11 l51 16 -22 18
c-28 23 -31 23 -57 -12z"/>
<path d="M516 436 c8 -32 -18 -114 -52 -165 -15 -23 -46 -53 -68 -66 -49 -30
-32 -33 23 -5 59 30 105 90 128 168 22 78 21 92 -13 92 -21 0 -23 -4 -18 -24z"/>
<path d="M420 422 c0 -5 9 -17 20 -27 16 -14 23 -16 32 -7 8 8 8 15 3 21 -15
14 -55 23 -55 13z"/>
<path d="M601 273 c8 -9 40 -36 73 -60 59 -44 101 -53 150 -34 14 5 4 12 -43
26 -34 10 -85 33 -114 52 -57 37 -89 45 -66 16z"/>
</g>
</svg>
