<?xml version="1.0" standalone="no"?>
<!DOCTYPE svg PUBLIC "-//W3C//DTD SVG 20010904//EN"
 "http://www.w3.org/TR/2001/REC-SVG-20010904/DTD/svg10.dtd">
<svg version="1.0" xmlns="http://www.w3.org/2000/svg"
 width="90.000000pt" height="92.000000pt" viewBox="0 0 90.000000 92.000000"
 preserveAspectRatio="xMidYMid meet">
<metadata>
Created by potrace 1.16, written by Peter Selinger 2001-2019
</metadata>
<g transform="translate(0.000000,92.000000) scale(0.100000,-0.100000)"
fill="#000000" stroke="none">
<path d="M138 753 c34 -48 70 -83 86 -83 18 0 30 33 21 59 -6 20 -71 51 -106
51 -20 0 -20 0 -1 -27z"/>
<path d="M575 724 c-38 -8 -117 -16 -175 -18 -94 -5 -105 -7 -101 -23 9 -39
11 -316 3 -377 -5 -42 -5 -76 2 -97 13 -38 32 -48 41 -21 5 18 19 21 140 27
74 4 141 5 149 2 9 -4 22 -22 30 -42 18 -42 29 -44 62 -8 l26 28 -4 205 c-2
113 1 226 5 251 8 46 7 47 -26 68 -38 24 -52 24 -152 5z m100 -56 c10 -33 19
-340 11 -383 -6 -32 -10 -35 -29 -29 -23 8 -42 8 -202 -5 -55 -4 -101 -7 -103
-5 -2 1 0 94 4 206 l7 205 86 15 c47 9 116 16 152 17 61 1 67 -1 74 -21z"/>
<path d="M487 625 c10 -29 -20 -136 -62 -221 -40 -80 -41 -83 -15 -64 14 10
39 38 55 62 16 24 31 45 32 47 2 3 29 -21 61 -52 32 -31 63 -57 70 -57 7 0 12
14 12 34 0 38 -26 63 -95 92 -28 11 -35 19 -30 32 4 9 14 39 23 66 15 46 15
49 -3 62 -26 19 -56 18 -48 -1z"/>
<path d="M61 539 c55 -71 109 -88 109 -35 0 32 -35 56 -92 64 l-43 5 26 -34z"/>
<path d="M196 388 c-20 -37 -57 -89 -81 -116 l-45 -50 16 -46 c21 -61 41 -57
64 14 10 30 34 95 54 145 46 113 42 141 -8 53z"/>
</g>
</svg>
