<?xml version="1.0" standalone="no"?>
<!DOCTYPE svg PUBLIC "-//W3C//DTD SVG 20010904//EN"
 "http://www.w3.org/TR/2001/REC-SVG-20010904/DTD/svg10.dtd">
<svg version="1.0" xmlns="http://www.w3.org/2000/svg"
 width="90.000000pt" height="92.000000pt" viewBox="0 0 90.000000 92.000000"
 preserveAspectRatio="xMidYMid meet">
<metadata>
Created by potrace 1.16, written by Peter Selinger 2001-2019
</metadata>
<g transform="translate(0.000000,92.000000) scale(0.100000,-0.100000)"
fill="#000000" stroke="none">
<path d="M682 811 c-35 -9 -60 -19 -56 -24 4 -4 34 -7 66 -7 l58 0 0 -82 c0
-98 -6 -112 -44 -102 l-28 7 29 -41 c15 -23 31 -41 35 -42 4 0 15 12 25 27 13
20 18 49 19 112 0 48 4 100 8 118 6 26 4 34 -13 42 -23 13 -17 13 -99 -8z"/>
<path d="M160 813 c0 -4 12 -19 26 -34 36 -38 27 -67 -41 -135 -29 -30 -52
-54 -50 -54 21 0 66 29 112 72 l55 53 47 -54 c49 -56 71 -61 71 -16 0 26 -42
66 -123 118 -71 46 -97 59 -97 50z"/>
<path d="M477 783 c-60 -18 -52 -34 13 -26 l49 6 5 -34 c4 -19 4 -47 2 -64 -2
-16 -4 -38 -5 -47 -1 -10 -11 -18 -25 -20 l-25 -3 28 -34 28 -35 14 25 c17 31
30 231 15 241 -15 11 -44 8 -99 -9z"/>
<path d="M620 743 c0 -18 48 -66 58 -59 21 13 13 46 -14 56 -30 12 -44 13 -44
3z"/>
<path d="M410 722 c0 -12 44 -52 58 -52 13 0 17 36 5 43 -19 10 -63 17 -63 9z"/>
<path d="M663 646 c-51 -27 -60 -34 -52 -49 15 -27 33 -20 78 28 33 36 52 62
39 53 -2 0 -31 -15 -65 -32z"/>
<path d="M453 632 c-55 -28 -63 -42 -38 -62 18 -15 30 -7 76 52 36 44 32 45
-38 10z"/>
<path d="M215 608 c4 -13 9 -60 12 -104 l5 -82 -88 -12 c-101 -15 -119 -24
-81 -41 22 -10 41 -9 98 4 l71 15 -6 -66 c-4 -37 -11 -98 -17 -135 -14 -87 10
-158 38 -114 4 6 10 82 13 167 l5 155 54 8 c30 4 57 10 60 13 13 12 -27 25
-68 21 l-44 -5 6 83 c6 80 5 84 -18 99 -35 23 -49 20 -40 -6z"/>
<path d="M322 534 c-11 -30 -18 -54 -16 -54 14 0 84 55 84 65 0 7 -11 20 -24
28 -23 16 -24 15 -44 -39z"/>
<path d="M105 531 c-7 -12 44 -81 59 -81 17 0 28 27 21 50 -6 18 -72 43 -80
31z"/>
<path d="M480 520 c0 -33 -28 -90 -71 -147 -44 -59 -42 -66 8 -27 29 22 34 23
40 9 8 -23 -4 -186 -17 -220 -8 -20 -7 -37 2 -61 18 -50 28 -46 42 17 5 21 11
26 38 26 18 0 71 5 118 11 47 7 111 12 143 12 64 0 74 14 24 35 -24 10 -44 11
-73 5 -73 -17 -84 -14 -84 24 0 33 1 33 51 39 58 7 64 10 54 28 -5 7 -24 10
-55 6 l-46 -6 4 30 c4 26 8 29 41 29 20 0 43 4 51 10 11 7 9 11 -14 19 -15 6
-38 8 -52 5 -21 -6 -24 -3 -24 24 0 28 2 30 53 36 29 4 58 11 66 15 23 14 -24
33 -63 25 -32 -6 -35 -4 -38 22 -2 22 -11 31 -41 43 -20 7 -40 11 -43 8 -3 -3
6 -22 20 -43 14 -21 24 -39 23 -41 -5 -5 -132 -21 -136 -17 -2 1 6 15 18 30
28 35 27 52 -5 64 -34 13 -34 13 -34 -10z m126 -136 c8 -32 6 -33 -53 -40 -46
-6 -49 -5 -63 22 -8 16 -16 31 -17 34 -2 3 26 7 62 8 62 1 65 0 71 -24z m4
-93 c0 -24 -5 -29 -31 -35 -17 -3 -44 -6 -60 -6 -25 0 -29 4 -29 29 0 29 2 30
53 34 28 2 55 4 60 5 4 1 7 -11 7 -27z m0 -96 c0 -23 -5 -35 -14 -35 -7 0 -34
-3 -60 -6 l-46 -7 0 36 0 36 53 4 c28 2 55 4 60 5 4 1 7 -14 7 -33z"/>
<path d="M116 305 c-4 -19 -24 -69 -46 -112 -21 -43 -37 -79 -35 -81 11 -11
145 172 145 198 0 10 -32 30 -48 30 -5 0 -13 -16 -16 -35z"/>
<path d="M302 333 c21 -48 60 -113 67 -113 15 0 22 36 12 62 -5 13 -21 32 -35
41 -26 18 -50 23 -44 10z"/>
</g>
</svg>
