<?xml version="1.0" standalone="no"?>
<!DOCTYPE svg PUBLIC "-//W3C//DTD SVG 20010904//EN"
 "http://www.w3.org/TR/2001/REC-SVG-20010904/DTD/svg10.dtd">
<svg version="1.0" xmlns="http://www.w3.org/2000/svg"
 width="90.000000pt" height="92.000000pt" viewBox="0 0 90.000000 92.000000"
 preserveAspectRatio="xMidYMid meet">
<metadata>
Created by potrace 1.16, written by Peter Selinger 2001-2019
</metadata>
<g transform="translate(0.000000,92.000000) scale(0.100000,-0.100000)"
fill="#000000" stroke="none">
<path d="M460 875 c0 -3 9 -23 20 -44 l19 -39 -31 -6 c-17 -3 -45 -6 -62 -6
-33 0 -64 -14 -50 -22 5 -3 21 -8 35 -11 21 -5 28 -16 41 -61 l15 -54 -84 -7
c-45 -4 -83 -11 -83 -16 0 -5 11 -16 25 -25 22 -14 30 -14 92 0 97 22 288 39
349 31 62 -7 80 8 43 37 -24 20 -46 20 -174 2 l-40 -6 21 23 c35 39 47 68 34
84 -9 10 -3 14 30 20 45 8 51 19 19 36 -15 8 -33 8 -64 0 -55 -14 -78 -14 -70
-1 11 18 -4 47 -31 58 -26 13 -54 16 -54 7z m120 -139 c0 -41 -20 -84 -43 -90
-45 -12 -57 -7 -57 23 0 15 -9 40 -20 54 l-21 26 48 4 c26 2 58 4 71 5 17 2
22 -3 22 -22z"/>
<path d="M190 745 c-30 -7 -77 -16 -105 -20 -46 -6 -48 -8 -30 -21 10 -8 34
-14 52 -14 38 0 46 -18 41 -96 -3 -48 -4 -49 -41 -55 -20 -3 -40 -9 -44 -13
-13 -12 21 -27 55 -23 27 2 32 0 32 -18 1 -11 2 -46 5 -77 l3 -58 -74 -22 -74
-21 21 -23 c32 -34 55 -38 87 -16 15 11 67 43 117 72 104 61 100 58 92 66 -3
3 -31 -3 -62 -15 -31 -12 -58 -21 -60 -21 -7 0 -6 68 1 112 6 33 10 37 45 43
21 4 41 11 45 16 7 12 -45 32 -69 25 -16 -4 -18 2 -16 69 l3 73 39 5 c48 7 69
23 47 37 -19 12 -41 11 -110 -5z"/>
<path d="M608 575 c-10 -11 -152 -36 -205 -36 -44 -1 -52 -4 -43 -14 6 -8 18
-50 26 -95 7 -45 16 -85 19 -90 2 -4 23 -4 45 0 33 6 40 5 41 -9 0 -9 2 -26 4
-37 4 -19 -1 -22 -48 -28 -28 -3 -73 -6 -99 -6 -58 0 -69 -14 -27 -36 27 -14
41 -14 87 -5 96 19 91 24 94 -86 4 -147 29 -124 44 40 l6 67 118 0 c65 0 121
4 124 9 10 15 -34 45 -67 45 -17 0 -65 -4 -106 -8 l-74 -9 7 28 c5 18 3 31 -5
36 -9 5 -4 10 16 15 17 4 36 2 47 -5 27 -17 35 -8 53 57 8 31 22 72 30 90 19
42 20 39 -17 62 -32 19 -59 25 -70 15z m22 -65 c0 -28 -3 -30 -37 -30 -21 0
-67 -5 -102 -11 -65 -10 -80 -5 -81 27 0 9 131 36 208 43 7 1 12 -11 12 -29z
m-8 -90 c-2 -16 -8 -27 -13 -24 -5 2 -45 -2 -90 -11 -45 -8 -84 -15 -88 -15
-4 0 -8 13 -9 29 -2 29 -2 29 65 36 38 4 73 8 78 10 6 2 22 4 36 4 23 1 25 -2
21 -29z"/>
</g>
</svg>
