<?xml version="1.0" standalone="no"?>
<!DOCTYPE svg PUBLIC "-//W3C//DTD SVG 20010904//EN"
 "http://www.w3.org/TR/2001/REC-SVG-20010904/DTD/svg10.dtd">
<svg version="1.0" xmlns="http://www.w3.org/2000/svg"
 width="96.000000pt" height="68.000000pt" viewBox="0 0 96.000000 68.000000"
 preserveAspectRatio="xMidYMid meet">
<metadata>
Created by potrace 1.16, written by Peter Selinger 2001-2019
</metadata>
<g transform="translate(0.000000,68.000000) scale(0.100000,-0.100000)"
fill="#000000" stroke="none">
<path d="M290 506 c0 -36 -5 -87 -12 -114 l-11 -50 -58 -7 c-32 -4 -62 -5 -66
-2 -4 2 -17 1 -28 -3 -18 -6 -17 -8 8 -25 24 -15 34 -16 66 -6 58 17 74 15 61
-8 -18 -35 -11 -56 25 -75 19 -11 35 -23 35 -27 0 -13 -62 -60 -107 -81 -24
-11 -42 -23 -39 -25 9 -10 104 28 143 57 l41 30 30 -25 c36 -31 62 -32 62 -5
0 13 -12 28 -30 38 -33 19 -36 28 -17 57 7 11 21 41 31 68 12 33 23 47 36 47
10 0 22 5 25 10 3 6 -3 10 -14 10 -12 0 -21 6 -21 14 0 15 -21 26 -51 26 -16
0 -19 -6 -17 -27 3 -26 0 -28 -39 -31 l-41 -3 30 97 c29 93 29 98 12 111 -10
7 -26 13 -36 13 -15 0 -18 -9 -18 -64z m90 -203 c-14 -49 -33 -83 -46 -83 -19
0 -64 22 -64 31 0 17 22 64 33 71 7 4 29 8 49 8 35 0 36 -1 28 -27z"/>
</g>
</svg>
