<?xml version="1.0" standalone="no"?>
<!DOCTYPE svg PUBLIC "-//W3C//DTD SVG 20010904//EN"
 "http://www.w3.org/TR/2001/REC-SVG-20010904/DTD/svg10.dtd">
<svg version="1.0" xmlns="http://www.w3.org/2000/svg"
 width="96.000000pt" height="68.000000pt" viewBox="0 0 96.000000 68.000000"
 preserveAspectRatio="xMidYMid meet">
<metadata>
Created by potrace 1.16, written by Peter Selinger 2001-2019
</metadata>
<g transform="translate(0.000000,68.000000) scale(0.100000,-0.100000)"
fill="#000000" stroke="none">
<path d="M284 503 c0 -43 -5 -97 -12 -120 l-13 -43 -79 0 c-86 0 -104 -10 -65
-36 25 -17 75 -16 119 2 16 6 18 4 13 -10 -20 -53 -19 -61 20 -81 21 -11 38
-24 38 -30 0 -5 -30 -28 -67 -50 -86 -52 -92 -59 -44 -52 22 4 66 22 98 42
l58 36 37 -28 c21 -15 41 -32 44 -36 11 -15 87 68 117 128 51 102 77 215 50
215 -7 0 -8 3 -3 9 13 11 113 22 119 13 2 -4 -11 -39 -30 -77 -19 -38 -30 -73
-26 -77 5 -5 28 -4 52 1 24 5 48 7 52 5 12 -8 -2 -102 -22 -149 -25 -58 -42
-70 -81 -56 -18 6 -34 10 -36 8 -1 -2 12 -21 29 -41 30 -35 35 -37 58 -26 39
18 59 52 94 161 38 117 35 125 -51 122 -29 -1 -53 0 -53 2 0 3 20 34 45 71 25
36 45 69 45 74 0 19 -72 22 -152 7 -46 -9 -100 -18 -120 -22 -51 -8 -48 -25 3
-25 l42 0 -7 -57 c-9 -89 -61 -218 -91 -229 -8 -3 -22 1 -31 10 -8 9 -24 21
-35 27 -20 10 -20 11 -1 42 11 18 25 49 32 70 9 30 18 39 41 44 37 7 38 23 2
23 -19 0 -24 3 -15 9 10 6 4 13 -21 25 -48 22 -57 20 -57 -13 0 -25 -5 -31
-31 -36 -17 -4 -32 -5 -35 -3 -4 4 35 144 50 178 4 10 -3 21 -23 33 -52 30
-57 25 -57 -60z m91 -200 c-3 -16 -14 -40 -23 -55 -16 -25 -18 -26 -50 -13
-32 14 -32 15 -19 47 10 24 22 35 43 39 54 12 57 11 49 -18z"/>
</g>
</svg>
