<?xml version="1.0" standalone="no"?>
<!DOCTYPE svg PUBLIC "-//W3C//DTD SVG 20010904//EN"
 "http://www.w3.org/TR/2001/REC-SVG-20010904/DTD/svg10.dtd">
<svg version="1.0" xmlns="http://www.w3.org/2000/svg"
 width="90.000000pt" height="92.000000pt" viewBox="0 0 90.000000 92.000000"
 preserveAspectRatio="xMidYMid meet">
<metadata>
Created by potrace 1.16, written by Peter Selinger 2001-2019
</metadata>
<g transform="translate(0.000000,92.000000) scale(0.100000,-0.100000)"
fill="#000000" stroke="none">
<path d="M719 775 c-8 -7 -251 -45 -292 -45 -42 0 -47 -18 -9 -35 12 -5 25
-16 29 -25 3 -8 8 -120 11 -247 l4 -233 -42 0 c-47 0 -49 -12 -8 -43 24 -18
28 -18 104 -2 51 11 126 17 212 16 138 0 155 6 115 41 -30 27 -54 28 -183 13
-177 -21 -160 -27 -160 59 l0 73 125 13 c96 10 123 16 115 25 -11 13 9 81 35
122 14 20 13 23 -12 42 -31 25 -38 25 -128 6 -39 -8 -83 -15 -99 -15 l-29 0 8
53 c4 28 8 62 9 75 1 23 5 25 111 37 148 17 192 40 124 64 -37 13 -34 12 -40
6z m-20 -272 c-3 -75 -11 -87 -64 -99 -28 -7 -70 -13 -94 -13 -40 -1 -43 1
-37 22 3 12 6 39 6 60 0 21 4 36 8 33 4 -2 33 1 63 9 29 7 69 13 87 14 29 1
32 -2 31 -26z"/>
<path d="M246 748 c-28 -11 -78 -22 -113 -25 -35 -3 -63 -8 -63 -10 0 -2 6
-14 14 -26 8 -12 20 -52 26 -90 11 -63 29 -95 38 -69 2 7 14 12 27 12 17 0 24
-7 29 -31 9 -44 8 -257 -1 -262 -17 -10 -73 -18 -72 -10 1 4 1 47 0 96 -1 83
-2 88 -26 99 -14 6 -27 9 -30 7 -2 -3 0 -32 4 -65 5 -32 12 -80 15 -107 l5
-47 -50 0 c-27 0 -49 -4 -49 -8 0 -15 56 -62 74 -62 9 0 29 6 44 14 15 7 81
33 147 56 129 46 151 58 137 72 -6 6 -36 1 -77 -11 -37 -12 -68 -21 -69 -21 0
0 0 31 2 69 l4 70 54 11 c61 13 74 24 44 40 -16 8 -30 8 -52 1 -47 -17 -49
-15 -46 45 3 51 5 56 29 61 20 4 26 11 27 32 0 14 10 52 22 84 12 31 19 61 16
66 -15 24 -61 27 -110 9z m34 -75 c0 -72 -7 -81 -67 -93 -30 -7 -56 -10 -58
-8 -2 1 -6 28 -10 59 l-7 57 39 10 c21 5 53 10 71 11 31 1 32 -1 32 -36z"/>
</g>
</svg>
