<?xml version="1.0" standalone="no"?>
<!DOCTYPE svg PUBLIC "-//W3C//DTD SVG 20010904//EN"
 "http://www.w3.org/TR/2001/REC-SVG-20010904/DTD/svg10.dtd">
<svg version="1.0" xmlns="http://www.w3.org/2000/svg"
 width="96.000000pt" height="68.000000pt" viewBox="0 0 96.000000 68.000000"
 preserveAspectRatio="xMidYMid meet">
<metadata>
Created by potrace 1.16, written by Peter Selinger 2001-2019
</metadata>
<g transform="translate(0.000000,68.000000) scale(0.100000,-0.100000)"
fill="#000000" stroke="none">
<path d="M550 569 c0 -24 42 -79 61 -79 29 0 25 44 -7 69 -29 23 -54 27 -54
10z"/>
<path d="M220 557 c0 -24 51 -88 68 -85 29 5 27 53 -4 77 -30 23 -64 28 -64 8z"/>
<path d="M710 490 c-25 -4 -97 -15 -160 -25 -63 -9 -117 -19 -119 -21 -15 -14
49 -15 138 -1 58 9 143 20 189 23 85 7 104 17 51 28 -34 7 -33 7 -99 -4z"/>
<path d="M220 449 c-63 -10 -119 -18 -123 -18 -14 -1 4 -22 26 -30 27 -10 279
30 284 46 4 11 -30 24 -57 22 -8 -1 -67 -10 -130 -20z"/>
<path d="M655 390 c-16 -6 -67 -13 -112 -16 -81 -7 -82 -7 -67 -28 8 -12 19
-37 24 -58 10 -35 11 -36 50 -31 35 5 40 3 45 -19 9 -36 1 -153 -10 -152 -5 1
-21 5 -35 9 -24 7 -23 5 9 -29 64 -66 83 -44 85 96 l1 103 48 3 c28 2 45 7 41
13 -3 5 6 30 21 55 15 25 24 48 21 51 -10 10 -91 12 -121 3z m50 -31 c4 -5 1
-23 -5 -40 -10 -22 -19 -29 -40 -29 -15 0 -48 -3 -73 -6 -43 -6 -46 -5 -61 25
-19 36 -19 36 64 50 78 12 108 13 115 0z"/>
<path d="M250 363 c-46 -6 -64 -23 -23 -23 52 0 123 12 123 21 0 9 -34 9 -100
2z"/>
<path d="M245 293 c-16 -3 -34 -9 -40 -15 -13 -14 135 -2 149 12 10 10 -48 11
-109 3z"/>
<path d="M285 220 c-11 -5 -45 -9 -75 -9 -38 -1 -51 -4 -40 -11 8 -5 22 -31
30 -57 12 -38 19 -47 35 -45 110 14 116 15 110 30 -3 8 4 29 16 48 11 18 18
38 14 44 -7 12 -62 12 -90 0z m28 -52 c-7 -40 -3 -36 -37 -42 -31 -6 -55 14
-56 46 0 18 17 25 67 27 31 1 32 0 26 -31z"/>
<path d="M710 212 c0 -16 91 -122 105 -122 27 0 17 50 -15 80 -29 28 -90 56
-90 42z"/>
<path d="M473 183 c-7 -15 -27 -43 -43 -60 -33 -35 -21 -44 20 -16 35 24 80
76 77 88 -8 23 -42 15 -54 -12z"/>
</g>
</svg>
