<?xml version="1.0" standalone="no"?>
<!DOCTYPE svg PUBLIC "-//W3C//DTD SVG 20010904//EN"
 "http://www.w3.org/TR/2001/REC-SVG-20010904/DTD/svg10.dtd">
<svg version="1.0" xmlns="http://www.w3.org/2000/svg"
 width="96.000000pt" height="68.000000pt" viewBox="0 0 96.000000 68.000000"
 preserveAspectRatio="xMidYMid meet">
<metadata>
Created by potrace 1.16, written by Peter Selinger 2001-2019
</metadata>
<g transform="translate(0.000000,68.000000) scale(0.100000,-0.100000)"
fill="#000000" stroke="none">
<path d="M719 445 c-8 -8 -191 -33 -208 -28 -14 3 -16 -14 -16 -141 0 -105 4
-149 13 -158 10 -10 14 -9 18 8 4 17 15 20 77 23 39 1 75 5 80 8 5 3 21 -10
37 -28 27 -34 28 -34 49 -15 19 17 20 27 17 164 -3 141 -4 145 -27 158 -27 15
-33 16 -40 9z m15 -51 c3 -9 6 -30 6 -48 l0 -33 -67 -6 c-38 -4 -85 -9 -106
-13 l-39 -7 4 54 c3 53 4 54 38 60 19 4 63 7 96 8 48 1 63 -3 68 -15z m6 -148
c0 -65 -6 -76 -38 -67 -15 5 -52 5 -82 0 -94 -13 -90 -15 -90 39 l0 49 83 10
c138 16 127 19 127 -31z"/>
</g>
</svg>
