<?xml version="1.0" standalone="no"?>
<!DOCTYPE svg PUBLIC "-//W3C//DTD SVG 20010904//EN"
 "http://www.w3.org/TR/2001/REC-SVG-20010904/DTD/svg10.dtd">
<svg version="1.0" xmlns="http://www.w3.org/2000/svg"
 width="96.000000pt" height="68.000000pt" viewBox="0 0 96.000000 68.000000"
 preserveAspectRatio="xMidYMid meet">
<metadata>
Created by potrace 1.16, written by Peter Selinger 2001-2019
</metadata>
<g transform="translate(0.000000,68.000000) scale(0.100000,-0.100000)"
fill="#000000" stroke="none">
<path d="M612 542 c-6 -21 -26 -59 -43 -86 -25 -38 -36 -46 -53 -42 -21 5 -21
3 -20 -132 0 -75 1 -143 2 -149 3 -17 32 -17 32 0 0 7 8 13 18 13 9 1 44 2 77
3 82 3 83 3 90 -18 8 -27 35 -34 56 -15 17 15 19 32 16 163 -2 146 -2 146 -28
158 -21 10 -40 10 -99 -3 -40 -8 -75 -12 -78 -9 -4 3 20 30 51 59 61 56 70 80
35 90 -39 10 -45 7 -56 -32z m122 -149 c4 -15 3 -48 -3 -74 -1 -6 -108 -20
-171 -23 -23 -1 -25 2 -25 49 0 49 0 50 35 56 19 4 63 7 97 8 51 1 63 -2 67
-16z m6 -140 c0 -21 -3 -48 -6 -60 -5 -19 -9 -20 -30 -11 -17 8 -39 8 -80 -1
-95 -19 -96 -18 -92 37 l3 47 85 11 c47 6 93 12 103 12 13 2 17 -6 17 -35z"/>
<path d="M305 494 c-38 -7 -85 -16 -103 -19 -45 -8 -30 -25 23 -25 51 0 65
-16 65 -74 0 -34 0 -35 -55 -41 -71 -9 -71 -25 -1 -25 60 0 66 -7 66 -82 0
-34 -3 -38 -37 -48 -21 -5 -55 -13 -75 -16 -47 -8 -48 -20 -5 -40 33 -16 34
-15 157 47 68 35 119 64 113 66 -6 2 -28 -3 -48 -11 -61 -26 -65 -23 -65 44 0
56 2 60 23 60 33 0 67 11 67 21 0 5 -20 9 -45 9 l-45 0 1 50 c2 45 5 50 25 50
12 0 35 5 51 11 27 10 27 11 9 25 -23 16 -28 16 -121 -2z"/>
</g>
</svg>
