<?xml version="1.0" standalone="no"?>
<!DOCTYPE svg PUBLIC "-//W3C//DTD SVG 20010904//EN"
 "http://www.w3.org/TR/2001/REC-SVG-20010904/DTD/svg10.dtd">
<svg version="1.0" xmlns="http://www.w3.org/2000/svg"
 width="96.000000pt" height="68.000000pt" viewBox="0 0 96.000000 68.000000"
 preserveAspectRatio="xMidYMid meet">
<metadata>
Created by potrace 1.16, written by Peter Selinger 2001-2019
</metadata>
<g transform="translate(0.000000,68.000000) scale(0.100000,-0.100000)"
fill="#000000" stroke="none">
<path d="M669 582 c0 -4 0 -30 1 -58 1 -50 1 -51 -31 -58 -17 -3 -43 -6 -58
-6 -23 -1 -24 -2 -7 -11 10 -6 35 -8 56 -5 36 6 38 5 42 -25 3 -17 0 -32 -6
-34 -6 -2 -24 -6 -41 -10 -23 -5 -26 -8 -14 -15 8 -5 32 -5 55 0 21 5 60 12
87 15 29 4 45 10 41 17 -4 6 -23 8 -45 5 -39 -5 -39 -5 -39 29 l0 34 65 0 c36
0 65 4 65 9 0 16 -38 23 -81 16 l-41 -7 4 48 c3 45 1 48 -24 55 -16 4 -28 4
-29 1z"/>
</g>
</svg>
