<?xml version="1.0" standalone="no"?>
<!DOCTYPE svg PUBLIC "-//W3C//DTD SVG 20010904//EN"
 "http://www.w3.org/TR/2001/REC-SVG-20010904/DTD/svg10.dtd">
<svg version="1.0" xmlns="http://www.w3.org/2000/svg"
 width="96.000000pt" height="68.000000pt" viewBox="0 0 96.000000 68.000000"
 preserveAspectRatio="xMidYMid meet">
<metadata>
Created by potrace 1.16, written by Peter Selinger 2001-2019
</metadata>
<g transform="translate(0.000000,68.000000) scale(0.100000,-0.100000)"
fill="#000000" stroke="none">
<path d="M477 453 c-4 -3 -19 -6 -34 -5 l-28 0 0 -126 c1 -129 9 -170 27 -138
10 18 58 22 75 5 26 -26 33 4 33 131 0 107 -3 129 -16 134 -21 8 -49 8 -57 -1z
m27 -29 c3 -9 6 -30 6 -49 0 -27 -4 -34 -25 -37 -32 -7 -35 -3 -35 48 0 41 4
46 41 53 4 0 10 -6 13 -15z m4 -151 c-3 -44 -5 -48 -30 -51 -27 -3 -28 -1 -28
41 0 50 4 57 37 57 22 0 24 -3 21 -47z"/>
</g>
</svg>
