<?xml version="1.0" standalone="no"?>
<!DOCTYPE svg PUBLIC "-//W3C//DTD SVG 20010904//EN"
 "http://www.w3.org/TR/2001/REC-SVG-20010904/DTD/svg10.dtd">
<svg version="1.0" xmlns="http://www.w3.org/2000/svg"
 width="90.000000pt" height="92.000000pt" viewBox="0 0 90.000000 92.000000"
 preserveAspectRatio="xMidYMid meet">
<metadata>
Created by potrace 1.16, written by Peter Selinger 2001-2019
</metadata>
<g transform="translate(0.000000,92.000000) scale(0.100000,-0.100000)"
fill="#000000" stroke="none">
<path d="M487 823 c-4 -3 -7 -20 -7 -37 0 -61 -121 -268 -192 -329 -36 -30
-11 -31 33 -2 58 41 124 117 166 194 20 36 38 68 39 70 6 7 36 -23 111 -114
102 -121 97 -118 168 -111 32 3 63 10 68 15 5 5 -25 25 -75 49 -111 51 -248
169 -248 211 0 19 -8 34 -25 45 -28 18 -29 19 -38 9z"/>
<path d="M165 599 c-27 -10 -71 -18 -97 -19 -48 0 -57 -7 -38 -26 6 -6 17 -50
26 -99 8 -49 18 -93 20 -97 8 -12 24 -9 24 5 0 6 12 12 28 13 65 2 124 16 114
26 -11 11 7 85 35 146 14 29 14 35 2 47 -23 22 -61 24 -114 4z m45 -56 c-1
-32 -15 -112 -22 -118 -2 -2 -22 -7 -45 -11 l-41 -6 -7 53 c-3 30 -8 61 -11
70 -3 12 6 19 38 26 76 19 88 16 88 -14z"/>
<path d="M510 522 c-41 -8 -81 -16 -89 -19 -24 -6 3 -25 41 -28 31 -2 33 -5
36 -42 l3 -41 -101 -12 c-55 -7 -102 -16 -105 -20 -3 -4 8 -13 24 -20 21 -8
43 -9 87 -1 91 17 89 18 86 -39 l-4 -50 -69 0 c-38 0 -69 -3 -69 -7 0 -3 7
-14 15 -23 8 -9 20 -43 25 -76 6 -32 15 -70 21 -84 10 -22 12 -23 23 -9 9 13
38 18 132 24 l120 7 0 32 c0 18 10 52 22 77 l22 44 -27 24 c-27 24 -33 24
-141 4 l-34 -6 7 49 c4 27 9 50 10 52 1 2 60 8 131 14 71 5 131 12 134 15 9 9
-42 43 -64 43 -11 0 -59 -7 -105 -15 -47 -8 -86 -13 -88 -11 -2 2 1 15 6 29 7
17 7 28 1 32 -16 10 -11 25 8 25 9 0 34 5 55 11 32 8 36 13 26 25 -14 17 -39
16 -139 -4z m133 -312 c-9 -91 -4 -86 -104 -99 -51 -7 -93 -10 -96 -8 -5 6
-17 107 -12 108 2 0 38 6 79 14 41 7 89 12 105 11 26 -1 30 -5 28 -26z"/>
</g>
</svg>
