<?xml version="1.0" standalone="no"?>
<!DOCTYPE svg PUBLIC "-//W3C//DTD SVG 20010904//EN"
 "http://www.w3.org/TR/2001/REC-SVG-20010904/DTD/svg10.dtd">
<svg version="1.0" xmlns="http://www.w3.org/2000/svg"
 width="96.000000pt" height="68.000000pt" viewBox="0 0 96.000000 68.000000"
 preserveAspectRatio="xMidYMid meet">
<metadata>
Created by potrace 1.16, written by Peter Selinger 2001-2019
</metadata>
<g transform="translate(0.000000,68.000000) scale(0.100000,-0.100000)"
fill="#000000" stroke="none">
<path d="M523 245 c-3 -9 -3 -19 1 -22 9 -9 -51 -33 -67 -27 -7 2 -24 0 -38
-5 -19 -8 -11 -9 33 -6 48 4 56 2 52 -10 -6 -13 -70 -68 -120 -103 -11 -7 -1
-4 21 7 22 11 54 33 71 48 25 24 36 28 54 21 14 -5 27 -5 33 1 7 7 17 1 30
-15 11 -14 25 -23 33 -20 8 3 11 0 8 -9 -3 -8 3 -16 15 -20 12 -3 19 -10 16
-15 -3 -5 5 -9 17 -9 61 -1 82 0 87 6 4 3 -9 4 -26 1 -18 -2 -33 -1 -33 4 0 4
6 8 13 8 6 1 -3 7 -22 15 -18 8 -38 12 -44 8 -6 -3 -7 -1 -3 5 6 11 -6 16 -19
10 -2 -2 -11 6 -19 17 -9 11 -16 17 -16 13 0 -3 -11 3 -24 15 -30 26 -24 35
26 40 21 2 41 6 44 10 3 3 -12 4 -35 2 -37 -4 -43 -2 -51 20 -11 28 -28 33
-37 10z m37 -40 c0 -5 -5 -3 -10 5 -5 8 -10 20 -10 25 0 6 5 3 10 -5 5 -8 10
-19 10 -25z m-20 -29 c0 -3 -4 -8 -10 -11 -5 -3 -10 -1 -10 4 0 6 5 11 10 11
6 0 10 -2 10 -4z"/>
<path d="M678 213 c7 -3 16 -2 19 1 4 3 -2 6 -13 5 -11 0 -14 -3 -6 -6z"/>
<path d="M526 102 c-9 -27 1 -82 15 -82 6 0 7 5 4 10 -3 6 -1 10 4 10 6 0 11
11 11 25 0 14 -4 25 -9 25 -5 0 -11 8 -13 18 -3 14 -5 13 -12 -6z"/>
</g>
</svg>
