<?xml version="1.0" standalone="no"?>
<!DOCTYPE svg PUBLIC "-//W3C//DTD SVG 20010904//EN"
 "http://www.w3.org/TR/2001/REC-SVG-20010904/DTD/svg10.dtd">
<svg version="1.0" xmlns="http://www.w3.org/2000/svg"
 width="96.000000pt" height="68.000000pt" viewBox="0 0 96.000000 68.000000"
 preserveAspectRatio="xMidYMid meet">
<metadata>
Created by potrace 1.16, written by Peter Selinger 2001-2019
</metadata>
<g transform="translate(0.000000,68.000000) scale(0.100000,-0.100000)"
fill="#000000" stroke="none">
<path d="M521 594 c-7 -20 -29 -54 -48 -75 -20 -22 -34 -42 -31 -45 10 -9 55
15 84 45 27 29 34 31 99 31 76 0 115 7 115 21 0 16 -46 21 -99 11 -45 -8 -51
-7 -46 6 7 20 -13 42 -39 42 -16 0 -25 -10 -35 -36z"/>
<path d="M290 605 c0 -25 -28 -72 -67 -116 -20 -22 -33 -42 -30 -45 9 -9 60
22 91 55 27 28 35 31 95 31 36 0 73 5 81 10 26 17 -9 31 -63 24 -42 -5 -46 -4
-40 12 4 11 0 22 -12 30 -25 19 -55 18 -55 -1z"/>
<path d="M570 521 c0 -13 66 -61 83 -61 16 0 30 27 22 41 -6 8 -70 29 -92 29
-7 0 -13 -4 -13 -9z"/>
<path d="M343 485 c32 -28 52 -32 61 -10 7 18 -23 35 -61 35 l-28 -1 28 -24z"/>
<path d="M506 453 c-5 -5 -68 -11 -132 -12 l-60 -1 6 -52 c4 -29 8 -54 9 -55
0 -2 1 -24 1 -49 l0 -46 33 8 c61 13 207 20 211 9 2 -7 10 -6 22 1 16 9 20 25
22 94 2 50 -1 87 -8 94 -9 9 -96 17 -104 9z m54 -37 c0 -14 -17 -17 -142 -32
-54 -6 -58 -5 -58 14 0 19 7 21 63 25 137 7 137 7 137 -7z m6 -47 c12 -21 -12
-28 -110 -35 -93 -7 -98 -6 -94 12 3 16 15 20 68 25 110 10 129 9 136 -2z m-6
-64 c0 -16 -34 -23 -130 -27 -54 -3 -65 0 -68 14 -3 18 21 23 141 26 44 2 57
-1 57 -13z"/>
<path d="M540 216 c0 -27 -128 -37 -149 -12 -18 22 -38 20 -44 -4 -4 -17 -14
-20 -59 -21 -75 -1 -166 -14 -148 -21 40 -16 56 -17 127 -8 42 6 78 8 80 6 12
-12 -34 -71 -75 -98 l-47 -30 35 6 c44 8 78 33 107 77 38 58 41 59 107 59 l64
0 4 -74 c6 -119 31 -116 43 6 l7 68 114 0 c112 0 129 5 99 30 -11 10 -39 11
-106 6 -74 -6 -92 -4 -105 9 -19 19 -54 20 -54 1z"/>
</g>
</svg>
