<?xml version="1.0" standalone="no"?>
<!DOCTYPE svg PUBLIC "-//W3C//DTD SVG 20010904//EN"
 "http://www.w3.org/TR/2001/REC-SVG-20010904/DTD/svg10.dtd">
<svg version="1.0" xmlns="http://www.w3.org/2000/svg"
 width="96.000000pt" height="68.000000pt" viewBox="0 0 96.000000 68.000000"
 preserveAspectRatio="xMidYMid meet">
<metadata>
Created by potrace 1.16, written by Peter Selinger 2001-2019
</metadata>
<g transform="translate(0.000000,68.000000) scale(0.100000,-0.100000)"
fill="#000000" stroke="none">
<path d="M578 513 c-75 -17 -95 -40 -25 -27 92 17 92 16 91 -50 -2 -65 -21
-92 -58 -80 -19 6 -19 5 -5 -17 29 -43 48 -47 74 -16 13 15 27 44 30 65 3 20
12 54 20 74 10 28 10 40 1 47 -22 18 -61 19 -128 4z"/>
</g>
</svg>
