<?xml version="1.0" standalone="no"?>
<!DOCTYPE svg PUBLIC "-//W3C//DTD SVG 20010904//EN"
 "http://www.w3.org/TR/2001/REC-SVG-20010904/DTD/svg10.dtd">
<svg version="1.0" xmlns="http://www.w3.org/2000/svg"
 width="96.000000pt" height="68.000000pt" viewBox="0 0 96.000000 68.000000"
 preserveAspectRatio="xMidYMid meet">
<metadata>
Created by potrace 1.16, written by Peter Selinger 2001-2019
</metadata>
<g transform="translate(0.000000,68.000000) scale(0.100000,-0.100000)"
fill="#000000" stroke="none">
<path d="M696 542 c-10 -26 -27 -56 -37 -68 -18 -20 -18 -21 30 -72 47 -50 81
-66 81 -39 0 15 -34 49 -67 66 -33 17 -29 29 25 84 45 46 46 49 28 63 -31 22
-40 17 -60 -34z"/>
<path d="M555 531 c-9 -27 -23 -55 -31 -61 -19 -17 -18 -27 9 -60 12 -15 29
-37 37 -49 8 -11 20 -21 27 -21 26 0 12 39 -23 68 l-37 30 21 29 c11 15 32 39
46 52 24 23 25 26 9 43 -26 29 -40 21 -58 -31z"/>
<path d="M220 562 c0 -4 16 -25 36 -46 40 -42 77 -46 82 -8 3 18 -5 26 -40 42
-45 20 -78 26 -78 12z"/>
<path d="M427 540 c-4 -16 -18 -48 -32 -70 l-26 -42 42 -54 c42 -54 53 -62 64
-44 9 15 -12 47 -45 67 -17 9 -30 22 -30 28 0 5 20 31 45 57 50 54 53 63 26
78 -30 16 -38 12 -44 -20z"/>
<path d="M162 398 c31 -40 51 -53 72 -45 46 18 -8 77 -70 77 l-27 0 25 -32z"/>
<path d="M255 267 c-25 -35 -59 -71 -76 -81 -18 -11 -29 -25 -29 -39 1 -30 36
-75 48 -62 12 13 122 226 122 237 0 21 -23 2 -65 -55z"/>
<path d="M709 326 c-6 -6 -253 -28 -307 -27 -37 0 -42 -2 -32 -14 6 -7 18 -50
26 -95 16 -93 21 -105 37 -92 7 6 65 12 129 14 114 4 117 4 127 -19 6 -13 15
-23 20 -23 14 0 51 55 51 77 0 19 22 106 34 134 5 12 -2 21 -27 33 -36 16 -50
19 -58 12z m16 -45 c12 -40 -3 -51 -71 -51 l-64 0 0 29 c0 32 10 37 87 40 33
1 43 -3 48 -18z m-177 -29 c2 -27 -1 -30 -35 -36 -21 -3 -50 -6 -65 -6 -25 0
-28 4 -28 33 l0 32 63 3 63 3 2 -29z m168 -64 c-3 -13 -6 -29 -6 -35 0 -9 -20
-13 -66 -13 l-65 0 3 27 c3 30 26 40 102 42 35 1 38 -1 32 -21z m-166 -26 l0
-33 -57 3 c-56 3 -58 4 -61 33 l-3 30 61 0 60 0 0 -33z"/>
</g>
</svg>
