<?xml version="1.0" standalone="no"?>
<!DOCTYPE svg PUBLIC "-//W3C//DTD SVG 20010904//EN"
 "http://www.w3.org/TR/2001/REC-SVG-20010904/DTD/svg10.dtd">
<svg version="1.0" xmlns="http://www.w3.org/2000/svg"
 width="90.000000pt" height="92.000000pt" viewBox="0 0 90.000000 92.000000"
 preserveAspectRatio="xMidYMid meet">
<metadata>
Created by potrace 1.16, written by Peter Selinger 2001-2019
</metadata>
<g transform="translate(0.000000,92.000000) scale(0.100000,-0.100000)"
fill="#000000" stroke="none">
<path d="M477 829 c-38 -10 -112 -23 -165 -29 -53 -6 -98 -13 -101 -16 -10
-10 32 -34 58 -34 14 0 69 9 121 20 104 22 150 25 150 11 0 -5 -25 -40 -55
-79 -46 -60 -58 -69 -80 -65 -15 3 -25 1 -25 -6 0 -6 4 -11 9 -11 11 0 20 -23
30 -76 l8 -41 -136 -12 c-75 -6 -164 -14 -199 -18 -34 -3 -62 -10 -62 -15 0
-5 16 -16 37 -24 32 -14 45 -14 122 0 47 9 122 19 165 23 l79 6 -6 -114 c-3
-63 -11 -129 -18 -147 -11 -33 -12 -34 -57 -27 l-45 7 48 -54 c26 -29 55 -53
64 -53 9 0 25 18 36 40 16 33 20 68 25 195 l5 155 170 3 c93 1 173 6 177 10 5
5 0 15 -9 24 -28 24 -75 35 -118 27 -22 -4 -83 -11 -136 -15 l-96 -7 -7 58
c-3 32 -5 59 -4 60 28 27 141 111 166 123 44 21 39 50 -13 79 -46 26 -48 26
-138 2z"/>
</g>
</svg>
