<?xml version="1.0" standalone="no"?>
<!DOCTYPE svg PUBLIC "-//W3C//DTD SVG 20010904//EN"
 "http://www.w3.org/TR/2001/REC-SVG-20010904/DTD/svg10.dtd">
<svg version="1.0" xmlns="http://www.w3.org/2000/svg"
 width="96.000000pt" height="68.000000pt" viewBox="0 0 96.000000 68.000000"
 preserveAspectRatio="xMidYMid meet">
<metadata>
Created by potrace 1.16, written by Peter Selinger 2001-2019
</metadata>
<g transform="translate(0.000000,68.000000) scale(0.100000,-0.100000)"
fill="#000000" stroke="none">
<path d="M485 595 c-54 -10 -141 -20 -212 -25 -2 0 -3 -4 -3 -9 0 -24 58 -28
170 -11 63 10 117 16 119 14 9 -9 -77 -99 -98 -102 -22 -4 -26 -12 -12 -28 4
-5 11 -23 14 -40 l6 -31 -72 -6 c-40 -4 -118 -10 -175 -13 -56 -4 -102 -11
-102 -15 0 -15 50 -22 113 -15 34 4 102 9 151 13 l89 6 -6 -89 c-8 -122 -10
-127 -60 -119 l-39 7 39 -36 c22 -20 48 -36 57 -36 31 0 50 66 51 175 l0 100
150 3 c153 3 192 12 139 33 -32 12 -108 13 -194 1 -81 -12 -104 -3 -110 38 -5
35 -5 35 87 88 52 30 93 60 93 68 0 18 -59 44 -97 43 -15 -1 -59 -7 -98 -14z"/>
</g>
</svg>
