<?xml version="1.0" standalone="no"?>
<!DOCTYPE svg PUBLIC "-//W3C//DTD SVG 20010904//EN"
 "http://www.w3.org/TR/2001/REC-SVG-20010904/DTD/svg10.dtd">
<svg version="1.0" xmlns="http://www.w3.org/2000/svg"
 width="96.000000pt" height="68.000000pt" viewBox="0 0 96.000000 68.000000"
 preserveAspectRatio="xMidYMid meet">
<metadata>
Created by potrace 1.16, written by Peter Selinger 2001-2019
</metadata>
<g transform="translate(0.000000,68.000000) scale(0.100000,-0.100000)"
fill="#000000" stroke="none">
<path d="M350 253 c0 -10 52 -63 62 -63 17 0 7 40 -14 54 -23 17 -48 21 -48 9z"/>
<path d="M120 196 c-23 -42 -21 -66 4 -66 25 0 49 91 28 104 -4 3 -19 -15 -32
-38z"/>
<path d="M270 232 c0 -16 32 -52 46 -52 21 0 17 38 -5 50 -23 12 -41 13 -41 2z"/>
<path d="M200 207 c0 -8 9 -25 19 -38 18 -23 20 -23 27 -5 4 10 3 26 -3 35
-13 21 -43 27 -43 8z"/>
</g>
</svg>
