<?xml version="1.0" standalone="no"?>
<!DOCTYPE svg PUBLIC "-//W3C//DTD SVG 20010904//EN"
 "http://www.w3.org/TR/2001/REC-SVG-20010904/DTD/svg10.dtd">
<svg version="1.0" xmlns="http://www.w3.org/2000/svg"
 width="96.000000pt" height="68.000000pt" viewBox="0 0 96.000000 68.000000"
 preserveAspectRatio="xMidYMid meet">
<metadata>
Created by potrace 1.16, written by Peter Selinger 2001-2019
</metadata>
<g transform="translate(0.000000,68.000000) scale(0.100000,-0.100000)"
fill="#000000" stroke="none">
<path d="M430 641 c0 -6 12 -17 28 -23 15 -7 57 -33 93 -59 113 -81 158 -94
225 -69 36 14 23 24 -61 44 -40 10 -102 36 -146 62 -79 46 -139 65 -139 45z"/>
<path d="M299 593 c-13 -21 -52 -56 -86 -78 -65 -42 -81 -61 -36 -44 14 5 33
7 42 4 8 -3 12 -3 8 1 -3 4 20 22 52 41 32 19 71 46 87 59 28 23 28 24 10 39
-31 24 -51 18 -77 -22z"/>
<path d="M402 531 c-95 -15 -127 -31 -61 -31 42 0 26 -37 -34 -74 -36 -22 -45
-32 -32 -34 26 -6 130 69 130 93 0 27 7 31 60 34 49 2 55 -7 33 -54 -7 -16
-19 -25 -35 -25 -21 0 -22 -2 -11 -20 7 -11 21 -20 31 -20 19 0 56 36 57 55 0
6 7 22 14 37 14 26 13 29 -7 43 -12 8 -26 14 -32 14 -5 -1 -57 -9 -113 -18z"/>
<path d="M460 374 c-41 -7 -101 -13 -132 -13 -56 -1 -67 -7 -50 -27 5 -5 6
-40 2 -79 -9 -89 0 -114 34 -108 14 3 26 1 26 -4 0 -13 -53 -62 -97 -89 -64
-40 -18 -27 79 22 80 40 90 48 75 59 -9 7 -17 15 -17 19 0 12 166 6 179 -6 24
-24 41 19 41 103 0 43 3 85 6 93 4 12 -4 20 -30 31 -19 8 -37 14 -38 14 -2 -1
-37 -7 -78 -15z m84 -30 c11 -29 6 -31 -66 -38 -40 -4 -92 -9 -115 -12 -41 -6
-43 -5 -43 19 0 24 4 26 73 35 113 15 144 14 151 -4z m6 -73 c0 -16 -11 -20
-77 -25 -43 -4 -95 -9 -115 -12 -35 -5 -38 -4 -38 20 0 24 3 25 63 29 160 9
167 8 167 -12z m0 -65 c0 -23 -2 -24 -112 -28 -62 -3 -117 -2 -121 2 -4 4 -5
14 -1 23 6 16 31 20 182 25 49 2 52 1 52 -22z"/>
<path d="M540 80 c65 -52 75 -57 85 -40 18 29 -65 89 -124 90 -20 0 -13 -8 39
-50z"/>
</g>
</svg>
