<?xml version="1.0" standalone="no"?>
<!DOCTYPE svg PUBLIC "-//W3C//DTD SVG 20010904//EN"
 "http://www.w3.org/TR/2001/REC-SVG-20010904/DTD/svg10.dtd">
<svg version="1.0" xmlns="http://www.w3.org/2000/svg"
 width="96.000000pt" height="68.000000pt" viewBox="0 0 96.000000 68.000000"
 preserveAspectRatio="xMidYMid meet">
<metadata>
Created by potrace 1.16, written by Peter Selinger 2001-2019
</metadata>
<g transform="translate(0.000000,68.000000) scale(0.100000,-0.100000)"
fill="#000000" stroke="none">
<path d="M258 532 l5 -99 -33 -6 c-18 -4 -48 -7 -66 -7 -19 0 -34 -4 -34 -10
0 -5 25 -10 55 -10 31 0 55 -5 55 -10 0 -20 -53 -96 -103 -147 -28 -29 -47
-53 -41 -53 22 0 96 62 127 106 39 56 43 46 28 -81 -14 -118 -14 -127 2 -149
13 -17 14 -17 30 -1 14 14 17 38 17 142 l0 126 23 -21 c29 -27 47 -28 47 -2 0
13 -12 26 -35 37 -53 25 -48 57 10 73 53 15 50 30 -6 30 l-40 0 6 53 c4 28 8
61 10 72 6 27 -5 42 -36 50 l-26 6 5 -99z"/>
</g>
</svg>
