<?xml version="1.0" standalone="no"?>
<!DOCTYPE svg PUBLIC "-//W3C//DTD SVG 20010904//EN"
 "http://www.w3.org/TR/2001/REC-SVG-20010904/DTD/svg10.dtd">
<svg version="1.0" xmlns="http://www.w3.org/2000/svg"
 width="96.000000pt" height="68.000000pt" viewBox="0 0 96.000000 68.000000"
 preserveAspectRatio="xMidYMid meet">
<metadata>
Created by potrace 1.16, written by Peter Selinger 2001-2019
</metadata>
<g transform="translate(0.000000,68.000000) scale(0.100000,-0.100000)"
fill="#000000" stroke="none">
<path d="M275 525 c0 -70 1 -74 21 -69 11 3 40 6 65 7 l44 2 3 -50 c2 -37 -1
-52 -13 -61 -13 -10 -14 -17 -5 -33 25 -47 51 -11 59 80 7 69 6 71 -18 81 -14
5 -42 6 -63 3 l-38 -7 0 61 c0 60 -1 61 -27 61 l-28 0 0 -75z"/>
<path d="M537 593 c-2 -5 -10 -26 -17 -48 -7 -22 -19 -50 -26 -62 -16 -26 -8
-30 15 -9 23 20 68 9 73 -17 7 -41 -2 -59 -25 -52 -12 4 -33 9 -47 12 -21 4
-20 2 10 -17 l34 -22 -29 -24 c-25 -20 -27 -24 -11 -24 11 0 28 7 38 16 16 16
21 14 72 -20 49 -35 57 -37 100 -31 25 4 46 10 46 14 0 3 -33 16 -73 28 -100
31 -102 33 -83 71 19 37 21 72 4 72 -9 0 -8 4 2 10 8 5 32 10 53 10 20 0 37 4
37 9 0 20 -41 22 -100 5 -33 -9 -63 -14 -66 -11 -4 3 3 19 15 35 12 17 21 33
21 36 0 9 -39 26 -43 19z"/>
<path d="M382 544 c-18 -20 -31 -39 -28 -41 6 -7 95 27 102 39 7 11 -14 38
-30 38 -7 0 -27 -16 -44 -36z"/>
<path d="M160 542 c0 -15 61 -63 74 -59 14 5 18 28 8 44 -10 15 -82 29 -82 15z"/>
<path d="M235 460 c-10 -4 -33 -5 -50 -3 l-31 3 -1 -75 c-1 -113 25 -114 36
-2 6 58 7 61 36 64 30 4 42 10 34 17 -2 2 -13 0 -24 -4z"/>
<path d="M277 423 c-45 -4 -47 -5 -41 -31 10 -40 18 -45 66 -38 33 5 46 12 55
33 14 30 9 44 -15 41 -9 -1 -38 -3 -65 -5z m51 -30 c-4 -23 -68 -32 -68 -10 0
20 10 27 42 27 23 0 29 -4 26 -17z"/>
<path d="M433 289 c-23 -11 -71 -26 -105 -33 l-63 -14 57 -1 c49 -1 79 -13 66
-27 -3 -2 -39 -7 -81 -10 -42 -4 -77 -11 -77 -17 0 -6 28 -8 76 -4 73 5 75 5
72 -16 -3 -20 -13 -23 -103 -34 -55 -6 -106 -12 -113 -12 -7 -1 -10 -6 -6 -12
7 -11 77 -8 182 7 39 6 42 5 42 -16 0 -25 31 -57 70 -72 52 -20 196 -22 265
-3 85 23 92 32 69 90 -18 42 -34 59 -34 34 0 -6 -7 -26 -16 -45 -20 -42 -58
-54 -172 -54 -101 0 -152 18 -152 53 0 23 4 24 83 30 45 4 101 7 125 7 44 0
55 13 24 29 -13 7 -49 5 -113 -4 -120 -19 -119 -19 -119 4 0 21 15 27 108 37
94 10 78 28 -18 20 -75 -7 -80 -6 -80 12 0 16 9 21 50 26 55 7 70 20 41 35
-25 14 -27 13 -78 -10z"/>
</g>
</svg>
