<?xml version="1.0" standalone="no"?>
<!DOCTYPE svg PUBLIC "-//W3C//DTD SVG 20010904//EN"
 "http://www.w3.org/TR/2001/REC-SVG-20010904/DTD/svg10.dtd">
<svg version="1.0" xmlns="http://www.w3.org/2000/svg"
 width="96.000000pt" height="68.000000pt" viewBox="0 0 96.000000 68.000000"
 preserveAspectRatio="xMidYMid meet">
<metadata>
Created by potrace 1.16, written by Peter Selinger 2001-2019
</metadata>
<g transform="translate(0.000000,68.000000) scale(0.100000,-0.100000)"
fill="#000000" stroke="none">
<path d="M656 475 c74 -69 104 -81 104 -41 0 28 -33 58 -98 86 -76 34 -77 23
-6 -45z"/>
<path d="M466 477 c-7 -19 -19 -38 -25 -41 -6 -4 -16 -16 -22 -27 -10 -19 -9
-20 18 -6 39 21 95 76 90 90 -2 7 -13 13 -25 15 -16 3 -25 -5 -36 -31z"/>
</g>
</svg>
