<?xml version="1.0" standalone="no"?>
<!DOCTYPE svg PUBLIC "-//W3C//DTD SVG 20010904//EN"
 "http://www.w3.org/TR/2001/REC-SVG-20010904/DTD/svg10.dtd">
<svg version="1.0" xmlns="http://www.w3.org/2000/svg"
 width="90.000000pt" height="92.000000pt" viewBox="0 0 90.000000 92.000000"
 preserveAspectRatio="xMidYMid meet">
<metadata>
Created by potrace 1.16, written by Peter Selinger 2001-2019
</metadata>
<g transform="translate(0.000000,92.000000) scale(0.100000,-0.100000)"
fill="#000000" stroke="none">
<path d="M180 812 c0 -5 18 -30 41 -56 28 -31 49 -46 65 -46 22 0 25 4 22 33
-2 25 -10 35 -38 49 -47 23 -90 32 -90 20z"/>
<path d="M615 784 c-27 -7 -85 -19 -127 -25 -81 -13 -97 -24 -52 -35 53 -13
273 19 281 42 3 8 -41 37 -50 33 -1 0 -24 -7 -52 -15z"/>
<path d="M610 660 c-41 -10 -93 -19 -115 -19 -22 -1 -50 -4 -62 -7 -20 -6 -21
-8 -8 -28 8 -11 17 -40 21 -62 9 -59 15 -65 50 -55 17 5 72 12 123 16 62 5 91
11 88 19 -6 15 21 88 36 98 9 6 4 15 -16 33 -15 14 -31 24 -35 24 -4 -1 -41
-10 -82 -19z m58 -59 c2 -18 0 -37 -5 -42 -5 -5 -44 -14 -87 -21 -86 -13 -96
-9 -96 44 0 24 5 28 38 34 20 3 53 10 72 14 60 14 75 9 78 -29z"/>
<path d="M259 645 c-29 -15 -158 -45 -193 -45 -37 0 -41 -17 -7 -35 28 -14 35
-13 111 11 45 14 86 24 91 22 15 -5 -105 -164 -190 -251 l-76 -79 50 25 c28
14 74 46 102 71 27 25 53 43 57 39 10 -10 7 -105 -5 -188 -9 -58 -9 -82 1
-105 31 -74 50 -14 50 153 l0 131 39 -38 c25 -25 45 -37 55 -33 37 14 7 56
-54 76 -19 6 -41 20 -48 32 -12 18 -10 25 14 57 15 20 45 56 68 80 l41 43 -25
19 c-34 26 -53 29 -81 15z"/>
<path d="M739 466 c-11 -11 -308 -47 -341 -42 -41 7 -46 0 -27 -36 6 -12 17
-68 24 -125 12 -101 27 -142 43 -116 4 6 58 14 137 18 l130 7 18 -36 c14 -31
20 -35 36 -26 27 14 49 82 55 175 3 44 8 94 12 111 5 28 2 34 -29 53 -34 20
-49 25 -58 17z m15 -68 c16 -60 12 -63 -72 -63 l-79 -1 1 36 c1 42 12 48 87
49 51 1 57 -1 63 -21z m-210 -14 c3 -9 6 -26 6 -39 0 -19 -6 -23 -50 -29 -62
-8 -70 -4 -70 39 0 29 4 34 28 38 59 9 80 7 86 -9z m212 -90 c-3 -9 -6 -34 -6
-56 0 -35 -2 -39 -17 -32 -10 4 -44 7 -75 6 l-58 -3 0 40 0 40 58 6 c31 3 64
8 72 9 30 7 32 6 26 -10z m-196 -54 l0 -40 -44 0 c-24 0 -51 -3 -60 -6 -13 -5
-16 2 -16 40 l0 46 60 0 60 0 0 -40z"/>
</g>
</svg>
