<?xml version="1.0" standalone="no"?>
<!DOCTYPE svg PUBLIC "-//W3C//DTD SVG 20010904//EN"
 "http://www.w3.org/TR/2001/REC-SVG-20010904/DTD/svg10.dtd">
<svg version="1.0" xmlns="http://www.w3.org/2000/svg"
 width="96.000000pt" height="68.000000pt" viewBox="0 0 96.000000 68.000000"
 preserveAspectRatio="xMidYMid meet">
<metadata>
Created by potrace 1.16, written by Peter Selinger 2001-2019
</metadata>
<g transform="translate(0.000000,68.000000) scale(0.100000,-0.100000)"
fill="#000000" stroke="none">
<path d="M240 291 c-36 -37 -81 -79 -100 -94 -58 -46 4 -22 77 29 l63 43 6
-25 c4 -14 1 -58 -6 -98 -9 -56 -10 -78 0 -95 23 -43 35 -18 38 80 3 124 5
127 43 94 34 -28 52 -28 57 -2 3 12 -8 20 -41 29 -59 15 -76 42 -47 73 19 20
19 23 5 29 -26 9 -26 9 -95 -63z"/>
</g>
</svg>
