<?xml version="1.0" standalone="no"?>
<!DOCTYPE svg PUBLIC "-//W3C//DTD SVG 20010904//EN"
 "http://www.w3.org/TR/2001/REC-SVG-20010904/DTD/svg10.dtd">
<svg version="1.0" xmlns="http://www.w3.org/2000/svg"
 width="96.000000pt" height="68.000000pt" viewBox="0 0 96.000000 68.000000"
 preserveAspectRatio="xMidYMid meet">
<metadata>
Created by potrace 1.16, written by Peter Selinger 2001-2019
</metadata>
<g transform="translate(0.000000,68.000000) scale(0.100000,-0.100000)"
fill="#000000" stroke="none">
<path d="M250 524 c-25 -8 -61 -14 -80 -14 l-35 0 0 -135 c0 -122 2 -135 18
-135 10 0 17 8 17 19 0 25 4 27 73 35 l57 7 0 -30 c0 -26 4 -31 24 -31 l24 0
0 134 c0 92 -3 138 -11 144 -24 18 -43 19 -87 6z m34 -20 c11 -4 16 -19 16
-48 0 -41 -1 -42 -32 -42 -18 0 -45 -4 -60 -8 -28 -8 -28 -8 -28 38 0 39 4 48
23 56 26 11 60 12 81 4z m16 -144 c0 -37 -2 -40 -29 -40 -16 0 -43 -3 -60 -6
-32 -7 -32 -7 -29 32 3 39 3 39 53 45 28 3 53 7 58 7 4 1 7 -16 7 -38z"/>
</g>
</svg>
