<?xml version="1.0" standalone="no"?>
<!DOCTYPE svg PUBLIC "-//W3C//DTD SVG 20010904//EN"
 "http://www.w3.org/TR/2001/REC-SVG-20010904/DTD/svg10.dtd">
<svg version="1.0" xmlns="http://www.w3.org/2000/svg"
 width="96.000000pt" height="68.000000pt" viewBox="0 0 96.000000 68.000000"
 preserveAspectRatio="xMidYMid meet">
<metadata>
Created by potrace 1.16, written by Peter Selinger 2001-2019
</metadata>
<g transform="translate(0.000000,68.000000) scale(0.100000,-0.100000)"
fill="#000000" stroke="none">
<path d="M544 585 c3 -9 6 -82 6 -162 0 -132 1 -144 18 -141 15 3 18 21 23
153 4 83 6 150 5 151 0 1 -14 4 -30 8 -24 6 -27 4 -22 -9z"/>
<path d="M260 530 c-14 -4 -51 -8 -84 -9 -56 -1 -58 -2 -50 -23 7 -22 10 -125
5 -267 -2 -70 11 -98 33 -68 20 26 107 24 124 -3 15 -25 38 -26 52 -1 5 11 11
94 12 187 1 152 0 168 -17 180 -21 15 -37 16 -75 4z m36 -65 c3 -20 5 -37 3
-39 -2 -2 -31 -7 -63 -11 -53 -6 -58 -5 -52 10 3 9 6 30 6 46 0 28 1 29 50 29
48 0 49 -1 56 -35z m4 -104 c0 -27 -3 -29 -52 -35 -67 -9 -63 -11 -63 21 0 29
21 39 88 42 23 1 27 -3 27 -28z m-2 -114 l0 -42 -65 -1 c-62 -2 -64 -1 -59 20
3 11 6 31 6 43 0 19 6 22 53 25 28 2 55 2 59 0 3 -1 6 -21 6 -45z"/>
<path d="M690 462 c0 -12 94 -102 107 -102 20 0 24 32 6 52 -9 10 -37 28 -61
38 -50 23 -52 23 -52 12z"/>
<path d="M411 390 c-19 -37 -26 -60 -18 -60 31 1 93 79 83 105 -11 30 -35 14
-65 -45z"/>
<path d="M670 337 c-11 -23 -43 -65 -70 -93 -47 -49 -173 -154 -185 -154 -3 0
-23 -12 -43 -26 l-37 -26 30 7 c44 9 161 80 230 139 79 67 155 142 155 152 0
5 -14 17 -30 26 l-30 17 -20 -42z"/>
</g>
</svg>
