<?xml version="1.0" standalone="no"?>
<!DOCTYPE svg PUBLIC "-//W3C//DTD SVG 20010904//EN"
 "http://www.w3.org/TR/2001/REC-SVG-20010904/DTD/svg10.dtd">
<svg version="1.0" xmlns="http://www.w3.org/2000/svg"
 width="96.000000pt" height="68.000000pt" viewBox="0 0 96.000000 68.000000"
 preserveAspectRatio="xMidYMid meet">
<metadata>
Created by potrace 1.16, written by Peter Selinger 2001-2019
</metadata>
<g transform="translate(0.000000,68.000000) scale(0.100000,-0.100000)"
fill="#000000" stroke="none">
<path d="M610 579 c-19 -5 -63 -9 -97 -10 -59 -2 -76 -10 -54 -24 5 -3 13 -31
16 -63 11 -97 5 -92 103 -88 l87 3 24 82 c13 46 19 87 15 91 -15 15 -58 19
-94 9z m40 -48 c0 -28 -2 -28 -67 -35 -69 -7 -87 -1 -81 30 4 21 35 32 101 33
45 1 47 0 47 -28z m-10 -81 l0 -30 -65 0 c-62 0 -65 1 -65 24 0 22 5 25 43 29
92 8 87 9 87 -23z"/>
</g>
</svg>
