<?xml version="1.0" standalone="no"?>
<!DOCTYPE svg PUBLIC "-//W3C//DTD SVG 20010904//EN"
 "http://www.w3.org/TR/2001/REC-SVG-20010904/DTD/svg10.dtd">
<svg version="1.0" xmlns="http://www.w3.org/2000/svg"
 width="90.000000pt" height="92.000000pt" viewBox="0 0 90.000000 92.000000"
 preserveAspectRatio="xMidYMid meet">
<metadata>
Created by potrace 1.16, written by Peter Selinger 2001-2019
</metadata>
<g transform="translate(0.000000,92.000000) scale(0.100000,-0.100000)"
fill="#000000" stroke="none">
<path d="M550 846 c0 -62 -16 -86 -58 -86 -15 0 -33 -4 -40 -8 -18 -12 29 -32
57 -25 24 6 27 -8 10 -56 -19 -53 -2 -47 31 13 34 59 41 63 139 68 25 2 46 8
48 14 6 19 -51 33 -93 24 -21 -5 -40 -7 -42 -6 -2 2 4 20 12 40 14 34 14 36
-11 56 -43 33 -53 27 -53 -34z"/>
<path d="M240 846 c0 -7 7 -31 16 -51 20 -48 11 -55 -74 -55 -69 0 -76 -9 -31
-42 22 -16 28 -16 64 -3 63 22 70 20 83 -31 16 -60 37 -49 28 16 l-6 48 34 6
c53 10 54 26 2 26 l-46 0 0 40 c0 29 -5 42 -19 50 -27 14 -51 13 -51 -4z"/>
<path d="M218 575 c6 -80 5 -81 -90 -90 -37 -4 -68 -11 -68 -16 0 -14 47 -22
105 -17 l55 5 0 -60 0 -60 -60 6 c-63 7 -68 4 -45 -27 7 -10 17 -44 21 -75 11
-87 19 -103 48 -91 14 5 59 12 100 16 74 7 75 7 70 33 -3 14 2 46 11 71 30 81
30 79 -5 94 -25 10 -40 11 -61 3 -15 -6 -31 -9 -33 -6 -3 3 -3 29 1 57 5 47 8
52 30 52 43 0 113 22 113 35 0 19 -51 28 -84 15 -49 -18 -53 -15 -46 40 7 55
2 64 -41 75 l-27 7 6 -67z m93 -305 c-1 -30 -4 -56 -6 -58 -5 -6 -115 -26
-119 -21 -2 2 -7 29 -11 60 l-7 56 49 11 c26 5 59 9 73 9 24 -2 25 -4 21 -57z"/>
<path d="M625 623 c-23 -9 -73 -16 -118 -17 -65 -1 -76 -3 -71 -16 34 -80 24
-281 -20 -376 -14 -31 -40 -74 -58 -96 l-32 -40 30 15 c45 24 80 66 112 135
25 55 30 61 41 48 22 -26 41 -19 104 36 l60 52 -5 -112 c-2 -62 -8 -115 -12
-119 -3 -4 -24 -2 -46 4 -43 11 -47 9 -27 -11 6 -7 27 -29 45 -50 18 -21 39
-36 46 -33 7 3 21 22 31 43 16 34 17 58 12 218 -3 105 -1 204 5 236 10 53 9
55 -19 77 -32 26 -27 26 -78 6z m39 -55 c3 -13 6 -62 6 -109 l0 -87 -71 -26
c-106 -39 -105 -40 -101 52 2 42 6 79 8 81 2 3 17 -7 32 -21 15 -14 40 -34 55
-43 24 -16 30 -16 38 -4 22 35 -4 60 -82 80 -44 12 -49 16 -49 41 0 32 7 36
76 48 76 12 81 11 88 -12z"/>
</g>
</svg>
