<?xml version="1.0" standalone="no"?>
<!DOCTYPE svg PUBLIC "-//W3C//DTD SVG 20010904//EN"
 "http://www.w3.org/TR/2001/REC-SVG-20010904/DTD/svg10.dtd">
<svg version="1.0" xmlns="http://www.w3.org/2000/svg"
 width="96.000000pt" height="68.000000pt" viewBox="0 0 96.000000 68.000000"
 preserveAspectRatio="xMidYMid meet">
<metadata>
Created by potrace 1.16, written by Peter Selinger 2001-2019
</metadata>
<g transform="translate(0.000000,68.000000) scale(0.100000,-0.100000)"
fill="#000000" stroke="none">
<path d="M580 603 c0 -51 -11 -73 -35 -73 -32 0 -56 -10 -49 -21 3 -5 18 -9
35 -9 16 0 29 -1 29 -3 0 -1 -4 -17 -9 -35 -13 -44 3 -41 37 7 26 37 30 39 89
43 71 4 86 13 58 34 -14 10 -32 13 -57 9 -37 -7 -38 -6 -32 22 5 24 1 31 -21
41 -38 17 -45 15 -45 -15z"/>
<path d="M300 590 c0 -6 7 -22 16 -36 9 -13 14 -27 11 -30 -3 -3 -33 -8 -66
-11 -63 -6 -71 -12 -46 -33 15 -12 71 -10 106 5 12 4 20 -3 29 -24 18 -44 44
-42 37 3 -5 32 -4 34 28 40 49 10 54 26 7 26 -36 0 -40 3 -48 33 -8 26 -15 33
-42 35 -18 2 -32 -1 -32 -8z"/>
<path d="M291 403 c4 -68 3 -69 -46 -72 -82 -4 -98 -20 -22 -20 l68 -1 -3 -42
c-3 -43 -3 -43 -43 -44 -57 -2 -59 -3 -48 -16 6 -7 16 -37 23 -67 l12 -53 67
7 c101 10 106 12 108 46 1 16 9 39 18 51 21 31 19 37 -12 49 -17 6 -36 6 -55
0 -28 -10 -28 -10 -28 33 l0 43 61 7 c78 9 77 33 -1 28 l-53 -4 7 36 c6 33 4
37 -19 46 -37 14 -37 14 -34 -27z m79 -227 l0 -44 -51 -11 c-28 -6 -55 -9 -60
-5 -5 3 -9 25 -9 49 l0 44 43 4 c23 2 50 4 60 5 14 2 17 -6 17 -42z"/>
<path d="M635 424 c-27 -7 -70 -14 -95 -14 l-45 0 -1 -92 c-1 -58 -9 -122 -21
-168 -19 -74 -17 -120 6 -120 13 0 41 93 41 136 l0 31 73 9 c39 4 77 8 82 8
11 1 15 -61 7 -112 -3 -25 -10 -32 -26 -32 -12 0 -27 5 -34 12 -7 7 -12 8 -12
2 0 -14 63 -74 78 -74 32 0 40 44 43 224 3 165 2 179 -16 192 -10 8 -21 14
-24 13 -3 0 -28 -7 -56 -15z m49 -39 c11 -29 -1 -49 -30 -51 -16 -1 -48 -7
-72 -12 -43 -10 -49 -8 -47 18 1 8 3 22 3 31 2 10 19 18 55 25 59 11 83 8 91
-11z m4 -100 c0 -30 -17 -40 -78 -50 -25 -3 -53 -9 -62 -11 -15 -4 -18 1 -18
30 0 34 2 36 33 37 17 1 43 5 57 9 50 16 68 12 68 -15z"/>
</g>
</svg>
