<?xml version="1.0" standalone="no"?>
<!DOCTYPE svg PUBLIC "-//W3C//DTD SVG 20010904//EN"
 "http://www.w3.org/TR/2001/REC-SVG-20010904/DTD/svg10.dtd">
<svg version="1.0" xmlns="http://www.w3.org/2000/svg"
 width="90.000000pt" height="92.000000pt" viewBox="0 0 90.000000 92.000000"
 preserveAspectRatio="xMidYMid meet">
<metadata>
Created by potrace 1.16, written by Peter Selinger 2001-2019
</metadata>
<g transform="translate(0.000000,92.000000) scale(0.100000,-0.100000)"
fill="#000000" stroke="none">
<path d="M506 873 c-3 -3 -6 -14 -6 -24 0 -9 -16 -49 -37 -88 -32 -63 -39 -71
-65 -71 -32 0 -33 -3 -13 -33 8 -13 21 -61 29 -107 14 -80 33 -120 43 -92 5
12 43 18 43 6 0 -3 -12 -28 -27 -54 -29 -51 -48 -60 -135 -60 -50 0 -55 -14
-15 -39 31 -19 36 -19 81 -6 26 8 77 18 112 21 l64 7 0 -146 c0 -81 4 -148 9
-152 17 -10 32 65 38 188 l6 117 113 0 c94 0 114 3 114 15 0 8 -14 22 -31 30
-25 14 -45 15 -115 8 l-85 -9 6 36 c5 31 3 38 -17 48 -20 11 -16 12 29 9 28
-2 56 -1 61 2 6 5 82 210 82 224 0 1 -16 11 -35 21 -35 19 -37 19 -138 -2 -56
-11 -117 -23 -136 -26 l-33 -6 57 63 c32 34 62 64 67 65 17 7 7 29 -19 42 -40
20 -40 20 -47 13z m190 -188 c4 -8 3 -26 0 -39 -5 -21 -11 -24 -51 -24 -36 1
-45 5 -45 19 0 10 -4 21 -10 24 -19 12 -10 24 23 28 65 8 78 7 83 -8z m-158
-51 c-3 -26 -7 -29 -42 -32 -40 -3 -56 8 -56 40 0 12 13 20 43 26 50 10 60 4
55 -34z m143 -80 l-10 -39 -54 0 -54 0 8 29 c5 16 10 31 13 33 5 5 99 20 104
17 2 -1 -1 -19 -7 -40z m-157 -11 c-10 -40 -12 -43 -38 -43 -20 0 -25 6 -28
35 -4 35 -4 35 34 35 37 0 38 -1 32 -27z m52 -160 c-3 -3 -26 -8 -51 -11 l-47
-5 34 49 c18 27 38 52 43 56 10 7 31 -80 21 -89z"/>
<path d="M194 848 c7 -25 13 -72 20 -165 l6 -62 -75 -12 c-65 -10 -73 -14 -63
-27 10 -11 27 -13 75 -9 l63 5 -5 -57 c-2 -31 -4 -59 -5 -62 0 -3 -46 -27
-102 -54 -57 -27 -105 -50 -108 -53 -6 -4 48 -52 59 -52 4 0 39 25 77 55 l69
56 3 -59 c2 -33 -1 -81 -5 -108 l-9 -49 -52 0 -52 1 58 -58 c31 -32 62 -58 67
-58 6 0 18 13 28 29 14 24 17 56 17 183 l0 155 45 32 c25 18 45 36 45 42 0 14
-12 11 -45 -11 -16 -11 -33 -20 -37 -20 -5 0 -8 22 -8 48 l0 48 45 12 c26 7
45 18 45 26 0 17 -36 27 -67 20 -21 -6 -22 -4 -17 48 3 29 10 66 15 82 5 16 9
36 9 45 0 20 -49 51 -80 51 -18 0 -21 -4 -16 -22z"/>
</g>
</svg>
