<?xml version="1.0" standalone="no"?>
<!DOCTYPE svg PUBLIC "-//W3C//DTD SVG 20010904//EN"
 "http://www.w3.org/TR/2001/REC-SVG-20010904/DTD/svg10.dtd">
<svg version="1.0" xmlns="http://www.w3.org/2000/svg"
 width="96.000000pt" height="68.000000pt" viewBox="0 0 96.000000 68.000000"
 preserveAspectRatio="xMidYMid meet">
<metadata>
Created by potrace 1.16, written by Peter Selinger 2001-2019
</metadata>
<g transform="translate(0.000000,68.000000) scale(0.100000,-0.100000)"
fill="#000000" stroke="none">
<path d="M560 575 c0 -19 -77 -85 -100 -85 -17 0 -18 -5 -13 -49 9 -74 -19
-183 -74 -289 -31 -59 -31 -61 -8 -45 13 10 38 43 57 73 l33 54 3 -64 c4 -120
25 -150 37 -55 6 50 9 55 31 55 21 0 24 -5 24 -35 0 -50 28 -48 32 3 3 33 6
37 32 40 29 4 29 3 24 -41 -5 -44 4 -78 17 -65 4 4 10 31 14 60 6 53 6 53 44
56 35 3 37 1 37 -25 0 -54 -10 -72 -36 -67 -28 5 -29 2 -9 -36 32 -63 80 -16
90 88 4 37 10 82 15 100 7 28 5 35 -15 48 -23 15 -16 15 -283 -10 -39 -4 -44
2 -36 42 6 29 9 30 73 37 36 3 91 8 121 10 49 3 55 6 52 24 -2 11 4 33 12 50
34 64 12 77 -92 55 -37 -8 -83 -14 -102 -14 -35 1 -35 1 -10 13 50 24 90 52
87 61 -5 16 -57 26 -57 11z m123 -124 c0 -18 -6 -38 -11 -43 -12 -12 -159 -31
-172 -23 -12 7 -13 55 -2 71 7 10 128 32 167 30 16 -1 20 -7 18 -35z m-45
-213 c3 -35 1 -38 -22 -38 -23 0 -26 4 -26 39 0 33 3 38 23 37 18 -1 23 -8 25
-38z m112 7 c0 -33 -2 -35 -35 -35 -33 0 -35 2 -35 35 0 33 2 35 35 35 33 0
35 -2 35 -35z m-205 -16 c0 -28 -4 -35 -22 -37 -21 -3 -23 1 -23 37 0 37 2 41
23 37 18 -2 22 -9 22 -37z"/>
<path d="M249 509 c-13 -28 -43 -68 -67 -90 -71 -62 -50 -85 56 -63 17 3 32 3
32 0 0 -4 -24 -29 -52 -57 -43 -40 -50 -51 -38 -59 20 -13 18 -13 91 16 51 21
67 24 82 14 23 -14 31 -8 23 18 -4 11 -20 25 -36 31 -30 10 -39 4 -20 -15 7
-7 -2 -15 -31 -23 -22 -7 -43 -10 -46 -8 -2 3 27 37 66 76 39 39 71 75 71 80
0 6 -9 15 -19 21 -17 9 -22 5 -36 -23 -14 -31 -19 -34 -68 -36 l-52 -2 63 63
c34 35 62 68 62 74 0 9 -40 34 -54 34 -1 0 -13 -23 -27 -51z"/>
<path d="M310 234 c0 -16 23 -44 36 -44 23 0 13 31 -13 41 -13 5 -23 6 -23 3z"/>
<path d="M242 178 c18 -26 48 -36 48 -16 0 20 -21 38 -43 38 -18 0 -18 -2 -5
-22z"/>
<path d="M136 162 c20 -42 52 -68 65 -55 18 18 -1 54 -37 69 -44 19 -45 18
-28 -14z"/>
</g>
</svg>
