<?xml version="1.0" standalone="no"?>
<!DOCTYPE svg PUBLIC "-//W3C//DTD SVG 20010904//EN"
 "http://www.w3.org/TR/2001/REC-SVG-20010904/DTD/svg10.dtd">
<svg version="1.0" xmlns="http://www.w3.org/2000/svg"
 width="96.000000pt" height="68.000000pt" viewBox="0 0 96.000000 68.000000"
 preserveAspectRatio="xMidYMid meet">
<metadata>
Created by potrace 1.16, written by Peter Selinger 2001-2019
</metadata>
<g transform="translate(0.000000,68.000000) scale(0.100000,-0.100000)"
fill="#000000" stroke="none">
<path d="M262 334 c-89 -14 -120 -22 -85 -23 31 -1 43 -30 43 -100 0 -54 2
-61 20 -61 15 0 20 7 20 25 0 21 5 25 28 25 15 0 34 5 42 10 11 7 4 10 -27 10
-58 0 -60 27 -3 36 22 4 40 11 40 16 0 6 -17 7 -41 3 -39 -7 -40 -6 -37 16 3
22 9 24 63 27 76 3 107 10 100 22 -8 13 -58 11 -163 -6z"/>
</g>
</svg>
