<?xml version="1.0" standalone="no"?>
<!DOCTYPE svg PUBLIC "-//W3C//DTD SVG 20010904//EN"
 "http://www.w3.org/TR/2001/REC-SVG-20010904/DTD/svg10.dtd">
<svg version="1.0" xmlns="http://www.w3.org/2000/svg"
 width="90.000000pt" height="92.000000pt" viewBox="0 0 90.000000 92.000000"
 preserveAspectRatio="xMidYMid meet">
<metadata>
Created by potrace 1.16, written by Peter Selinger 2001-2019
</metadata>
<g transform="translate(0.000000,92.000000) scale(0.100000,-0.100000)"
fill="#000000" stroke="none">
<path d="M336 803 c4 -10 10 -41 12 -70 l4 -52 -50 -7 c-93 -12 -98 -40 -7
-38 53 2 53 2 60 -33 3 -19 5 -36 3 -37 -2 -2 -23 -7 -48 -12 -44 -9 -44 -10
-22 -23 18 -9 35 -10 70 -2 26 5 66 13 90 16 23 4 42 10 42 14 0 14 -47 30
-70 24 -20 -5 -21 -2 -18 33 l3 39 59 10 c97 16 76 55 -21 40 l-46 -7 5 51 c6
57 -3 71 -45 71 -24 0 -28 -3 -21 -17z"/>
<path d="M606 788 c-1 -7 -11 -44 -20 -83 -9 -38 -32 -103 -51 -144 -20 -41
-34 -76 -32 -77 2 -2 14 7 27 21 18 19 34 25 67 25 37 0 43 -3 49 -26 7 -27
-2 -132 -14 -165 -7 -18 -11 -15 -40 25 -30 42 -66 65 -80 52 -3 -4 8 -21 24
-39 38 -40 64 -82 64 -101 0 -24 -59 -85 -104 -109 -28 -14 -36 -22 -24 -25
26 -5 116 38 139 67 l21 26 16 -25 c9 -14 31 -40 48 -58 30 -30 36 -32 101
-32 107 0 107 11 1 63 -51 25 -103 56 -115 69 l-22 24 19 98 c24 118 24 125 5
146 -15 16 -12 18 32 24 55 7 78 19 69 35 -10 16 -40 14 -126 -9 -41 -10 -75
-18 -76 -17 -1 1 18 43 42 92 24 50 44 97 44 105 0 21 -59 56 -64 38z"/>
<path d="M120 623 c-23 -10 -50 -13 -77 -9 -24 3 -43 4 -43 2 0 -1 6 -16 14
-32 8 -16 19 -68 26 -117 12 -88 23 -113 35 -78 4 14 19 20 63 25 l57 7 2 43
c1 23 11 66 22 95 17 45 17 53 4 66 -18 19 -58 18 -103 -2z m40 -72 c0 -69
-13 -97 -47 -104 -15 -3 -31 -2 -34 1 -4 4 -10 34 -13 68 l-6 61 32 10 c63 21
68 18 68 -36z"/>
<path d="M337 504 c-3 -3 3 -21 14 -39 l20 -33 -64 -11 c-35 -6 -71 -11 -80
-11 -25 0 -21 -15 7 -28 16 -7 36 -8 55 -2 26 7 31 6 31 -9 0 -29 -56 -108
-126 -176 -36 -36 -61 -65 -57 -65 34 0 165 113 201 173 14 23 22 27 42 22 14
-4 28 -9 31 -13 9 -9 -18 -111 -37 -140 -15 -24 -30 -25 -78 -6 -12 5 -9 -6
11 -39 15 -26 35 -47 44 -47 30 0 77 72 95 145 4 17 13 43 21 58 13 26 13 31
-3 48 -9 10 -27 19 -40 19 -13 0 -33 10 -44 23 l-21 22 28 6 c15 4 45 7 66 8
26 1 37 6 37 16 0 15 -13 19 -63 15 -22 -1 -27 2 -25 21 2 16 -5 25 -28 35
-18 7 -34 11 -37 8z"/>
</g>
</svg>
