<?xml version="1.0" standalone="no"?>
<!DOCTYPE svg PUBLIC "-//W3C//DTD SVG 20010904//EN"
 "http://www.w3.org/TR/2001/REC-SVG-20010904/DTD/svg10.dtd">
<svg version="1.0" xmlns="http://www.w3.org/2000/svg"
 width="96.000000pt" height="68.000000pt" viewBox="0 0 96.000000 68.000000"
 preserveAspectRatio="xMidYMid meet">
<metadata>
Created by potrace 1.16, written by Peter Selinger 2001-2019
</metadata>
<g transform="translate(0.000000,68.000000) scale(0.100000,-0.100000)"
fill="#000000" stroke="none">
<path d="M572 165 c-10 -12 -10 -15 0 -16 7 0 0 -5 -15 -11 l-28 -10 26 -14
c40 -21 45 -18 43 26 -1 43 -6 47 -26 25z"/>
<path d="M613 135 c0 -19 26 -19 51 0 19 15 19 15 -1 15 -12 0 -24 -6 -26 -12
-4 -10 -6 -10 -6 0 -1 17 -18 15 -18 -3z"/>
<path d="M698 133 c7 -3 16 -2 19 1 4 3 -2 6 -13 5 -11 0 -14 -3 -6 -6z"/>
<path d="M560 80 c0 -16 -7 -20 -32 -21 -18 0 -61 -1 -95 -2 -35 -1 -63 -6
-63 -10 0 -5 42 -6 93 -3 50 3 151 7 224 8 72 1 129 6 126 11 -2 4 -50 7 -105
6 -55 -1 -103 3 -107 8 -3 5 -14 12 -23 16 -13 5 -18 1 -18 -13z"/>
</g>
</svg>
