<?xml version="1.0" standalone="no"?>
<!DOCTYPE svg PUBLIC "-//W3C//DTD SVG 20010904//EN"
 "http://www.w3.org/TR/2001/REC-SVG-20010904/DTD/svg10.dtd">
<svg version="1.0" xmlns="http://www.w3.org/2000/svg"
 width="96.000000pt" height="68.000000pt" viewBox="0 0 96.000000 68.000000"
 preserveAspectRatio="xMidYMid meet">
<metadata>
Created by potrace 1.16, written by Peter Selinger 2001-2019
</metadata>
<g transform="translate(0.000000,68.000000) scale(0.100000,-0.100000)"
fill="#000000" stroke="none">
<path d="M560 562 c0 -31 -32 -114 -63 -165 -35 -57 -29 -72 10 -29 35 38 95
49 101 18 5 -25 -7 -118 -18 -135 -7 -12 -14 -9 -39 12 -34 28 -69 43 -79 32
-4 -4 1 -11 12 -17 10 -6 32 -23 50 -39 l31 -29 -43 -40 c-24 -21 -53 -41 -65
-43 -18 -3 -17 -5 6 -6 29 -1 79 20 109 47 16 13 23 10 78 -42 61 -56 61 -56
126 -56 35 0 64 4 64 9 0 9 -71 41 -92 41 -12 0 -105 56 -126 77 -10 10 -10
17 2 35 8 13 22 51 30 86 12 54 12 64 0 76 -21 22 -18 26 24 27 20 1 51 5 67
9 l30 7 -26 11 c-20 8 -45 6 -108 -8 -44 -10 -81 -16 -81 -13 0 3 14 32 31 64
26 48 29 61 19 74 -18 21 -50 19 -50 -3z"/>
<path d="M390 563 c-8 -2 -60 -9 -115 -16 -106 -13 -126 -29 -48 -37 43 -4 48
-8 51 -31 3 -30 -3 -32 -126 -45 -73 -8 -79 -27 -10 -32 42 -3 46 -5 52 -34 3
-17 6 -68 6 -113 l0 -83 -48 -9 c-31 -5 -47 -13 -47 -23 0 -20 69 -19 115 3
62 29 138 56 142 51 3 -2 3 -37 0 -78 -4 -63 -2 -74 13 -80 10 -3 21 -4 24 0
3 3 7 72 8 152 1 81 2 168 2 195 1 47 1 47 35 47 19 0 38 5 42 11 13 21 -21
30 -88 24 l-68 -5 0 29 c0 26 4 29 52 37 28 5 53 14 55 20 4 12 -23 22 -47 17z
m-30 -172 c0 -27 -3 -29 -56 -36 -31 -4 -58 -4 -61 -2 -3 3 -2 19 2 36 6 30 8
31 61 31 53 0 54 -1 54 -29z m10 -81 c0 -26 -4 -30 -27 -30 -16 0 -45 -3 -65
-6 -37 -6 -38 -6 -38 24 0 33 8 36 98 40 29 2 32 0 32 -28z m0 -73 c0 -20 -8
-25 -47 -35 -27 -6 -55 -13 -65 -17 -11 -4 -18 -1 -20 12 -10 47 5 57 100 61
27 2 32 -1 32 -21z"/>
</g>
</svg>
