<?xml version="1.0" standalone="no"?>
<!DOCTYPE svg PUBLIC "-//W3C//DTD SVG 20010904//EN"
 "http://www.w3.org/TR/2001/REC-SVG-20010904/DTD/svg10.dtd">
<svg version="1.0" xmlns="http://www.w3.org/2000/svg"
 width="96.000000pt" height="68.000000pt" viewBox="0 0 96.000000 68.000000"
 preserveAspectRatio="xMidYMid meet">
<metadata>
Created by potrace 1.16, written by Peter Selinger 2001-2019
</metadata>
<g transform="translate(0.000000,68.000000) scale(0.100000,-0.100000)"
fill="#000000" stroke="none">
<path d="M610 618 c-1 -2 -2 -29 -3 -60 -1 -31 -5 -59 -8 -63 -4 -3 -30 -9
-58 -14 l-51 -8 0 42 c0 30 -5 45 -16 49 -36 14 -41 7 -36 -44 4 -49 4 -50
-22 -50 -16 0 -25 -4 -21 -10 3 -5 17 -10 30 -10 20 0 25 -7 31 -35 10 -55 2
-65 -58 -65 -29 0 -60 -4 -67 -9 -27 -18 35 -24 117 -12 42 6 146 14 231 18
136 5 152 8 135 20 -15 12 -38 13 -102 8 l-84 -6 7 43 c9 56 11 58 45 58 36 0
61 10 54 21 -3 5 -20 9 -38 9 -44 0 -48 6 -31 47 8 20 15 39 15 43 0 9 -69 36
-70 28z m-15 -195 c-11 -62 -12 -63 -60 -63 l-45 0 0 44 c0 49 4 52 68 55 l43
1 -6 -37z"/>
<path d="M225 573 c15 -62 16 -186 1 -320 -12 -110 -13 -149 -4 -168 13 -29
26 -32 44 -7 9 12 13 55 14 147 0 72 3 147 6 168 l7 38 22 -21 c26 -25 58 -17
53 13 -2 13 -16 25 -38 32 -35 12 -35 12 -32 68 3 60 -10 77 -59 77 -18 0 -20
-4 -14 -27z"/>
<path d="M131 380 c-25 -54 -27 -88 -5 -97 37 -14 70 83 40 122 -14 19 -15 18
-35 -25z"/>
<path d="M555 299 c-22 -4 -60 -8 -85 -8 l-45 -1 2 -98 c0 -53 2 -105 2 -114
1 -21 21 -25 21 -4 0 9 22 15 78 19 74 6 78 5 95 -18 43 -58 67 -11 65 123 -2
117 -14 126 -133 101z m85 -48 c0 -27 -2 -28 -62 -34 -35 -4 -73 -9 -85 -13
-27 -7 -38 13 -29 51 6 24 9 25 91 25 l85 0 0 -29z m0 -91 l0 -40 -44 0 c-24
0 -64 -3 -90 -6 l-46 -7 0 41 0 41 63 4 c34 2 74 4 90 5 25 2 27 -1 27 -38z"/>
</g>
</svg>
