<?xml version="1.0" standalone="no"?>
<!DOCTYPE svg PUBLIC "-//W3C//DTD SVG 20010904//EN"
 "http://www.w3.org/TR/2001/REC-SVG-20010904/DTD/svg10.dtd">
<svg version="1.0" xmlns="http://www.w3.org/2000/svg"
 width="90.000000pt" height="92.000000pt" viewBox="0 0 90.000000 92.000000"
 preserveAspectRatio="xMidYMid meet">
<metadata>
Created by potrace 1.16, written by Peter Selinger 2001-2019
</metadata>
<g transform="translate(0.000000,92.000000) scale(0.100000,-0.100000)"
fill="#000000" stroke="none">
<path d="M510 875 c0 -25 -38 -92 -61 -108 -27 -19 -23 -63 6 -61 11 1 58 12
104 25 77 21 84 22 93 6 12 -22 34 -22 40 1 8 28 -2 41 -44 63 -45 23 -60 19
-34 -10 16 -18 15 -19 -39 -26 -31 -3 -59 -4 -62 -1 -3 3 7 22 22 42 23 30 26
39 16 60 -12 27 -41 33 -41 9z"/>
<path d="M611 665 c-11 -25 -27 -48 -35 -51 -17 -7 -20 -22 -8 -41 6 -9 24 -7
77 8 l68 21 19 -24 c15 -20 19 -21 28 -8 19 29 8 52 -40 84 -35 23 -45 20 -27
-8 15 -22 15 -25 1 -30 -9 -3 -29 -6 -45 -6 l-30 0 21 30 c13 19 19 37 15 50
-10 31 -22 24 -44 -25z"/>
<path d="M264 690 c-11 -4 -55 -14 -98 -21 -80 -14 -97 -32 -34 -37 35 -3 36
-4 28 -38 -14 -60 -57 -136 -111 -197 -28 -32 -49 -60 -46 -63 11 -11 46 8 86
46 l40 39 5 -27 c2 -15 8 -48 11 -74 6 -47 18 -67 29 -49 3 5 35 12 70 15 55
6 63 10 59 26 -4 14 11 25 70 54 42 20 101 59 131 87 63 58 51 59 141 -20 28
-24 65 -51 82 -59 30 -14 38 -14 88 2 30 9 57 21 59 25 3 5 -32 16 -77 25 -97
19 -205 70 -218 102 -4 13 -17 27 -27 33 -17 9 -22 6 -32 -19 -14 -33 -129
-145 -179 -173 l-32 -19 7 29 c3 15 13 38 20 50 33 53 -20 78 -107 49 -33 -10
-62 -17 -64 -14 -3 3 9 35 25 72 17 38 30 75 28 84 -3 13 10 20 56 29 70 15
77 20 52 39 -22 16 -32 16 -62 4z m4 -302 l-3 -63 -40 -6 c-22 -4 -42 -5 -43
-4 -2 2 -4 29 -5 61 -2 57 -1 59 28 65 67 15 66 15 63 -53z"/>
<path d="M405 674 c-13 -41 -48 -103 -61 -108 -16 -6 -19 -42 -5 -50 5 -3 38
5 75 19 39 15 68 21 71 15 11 -18 25 -10 25 15 0 23 -24 45 -51 45 -8 0 -8 -4
1 -15 7 -9 11 -17 9 -19 -7 -6 -69 -16 -69 -11 0 3 12 24 27 46 l26 40 -21 21
c-21 21 -21 21 -27 2z"/>
<path d="M536 422 c-8 -16 -40 -48 -71 -72 -30 -23 -54 -45 -51 -47 9 -9 128
61 196 115 7 5 -31 32 -47 32 -7 0 -19 -13 -27 -28z"/>
<path d="M581 347 c-10 -26 -71 -84 -131 -123 -22 -15 -38 -29 -36 -31 15 -16
236 118 236 143 0 6 -14 17 -30 23 -28 9 -32 8 -39 -12z"/>
<path d="M639 251 c-24 -41 -139 -133 -221 -176 -38 -20 -68 -39 -65 -41 8 -9
106 28 168 63 86 49 188 125 188 140 1 11 -36 43 -49 43 -3 0 -12 -13 -21 -29z"/>
</g>
</svg>
