<?xml version="1.0" standalone="no"?>
<!DOCTYPE svg PUBLIC "-//W3C//DTD SVG 20010904//EN"
 "http://www.w3.org/TR/2001/REC-SVG-20010904/DTD/svg10.dtd">
<svg version="1.0" xmlns="http://www.w3.org/2000/svg"
 width="90.000000pt" height="92.000000pt" viewBox="0 0 90.000000 92.000000"
 preserveAspectRatio="xMidYMid meet">
<metadata>
Created by potrace 1.16, written by Peter Selinger 2001-2019
</metadata>
<g transform="translate(0.000000,92.000000) scale(0.100000,-0.100000)"
fill="#000000" stroke="none">
<path d="M559 786 c-8 -8 -203 -44 -277 -52 -40 -3 -75 -10 -78 -15 -11 -19
41 -31 107 -26 46 4 71 2 77 -6 6 -7 13 -112 17 -234 l8 -223 -49 0 c-27 0
-60 -3 -73 -7 l-23 -6 3 147 c4 158 2 166 -50 166 -20 0 -22 -4 -17 -22 4 -13
10 -85 13 -160 l6 -138 -60 0 c-80 0 -153 -10 -153 -22 0 -5 17 -16 37 -25 34
-14 44 -13 113 1 116 25 256 37 484 41 115 3 212 7 215 11 9 8 -37 43 -67 51
-14 3 -59 1 -101 -6 -42 -6 -111 -14 -153 -17 l-78 -7 0 110 0 110 88 6 c127
8 173 30 117 55 -21 10 -40 8 -98 -8 -109 -30 -103 -35 -97 76 4 83 3 98 -12
108 -15 11 -3 15 74 29 102 18 124 30 94 53 -19 13 -58 19 -67 10z"/>
</g>
</svg>
