<?xml version="1.0" standalone="no"?>
<!DOCTYPE svg PUBLIC "-//W3C//DTD SVG 20010904//EN"
 "http://www.w3.org/TR/2001/REC-SVG-20010904/DTD/svg10.dtd">
<svg version="1.0" xmlns="http://www.w3.org/2000/svg"
 width="96.000000pt" height="68.000000pt" viewBox="0 0 96.000000 68.000000"
 preserveAspectRatio="xMidYMid meet">
<metadata>
Created by potrace 1.16, written by Peter Selinger 2001-2019
</metadata>
<g transform="translate(0.000000,68.000000) scale(0.100000,-0.100000)"
fill="#000000" stroke="none">
<path d="M664 217 c24 -20 28 -28 22 -51 -4 -16 -2 -33 4 -41 7 -8 7 -21 0
-39 -11 -30 -4 -56 17 -56 8 0 12 4 8 9 -3 5 -1 12 5 16 6 3 9 41 8 86 -1 87
-9 99 -65 99 l-28 0 29 -23z"/>
<path d="M555 220 c-22 -5 -47 -7 -56 -4 -24 7 -31 -21 -23 -98 5 -48 11 -68
20 -68 16 0 19 16 4 25 -5 3 -10 16 -9 28 0 21 1 21 9 2 7 -17 9 -17 9 -2 1 9
9 17 19 17 12 0 10 4 -8 13 -16 9 -24 20 -22 33 5 28 15 35 61 41 23 3 44 10
47 14 6 10 5 10 -51 -1z"/>
<path d="M633 143 c9 -2 23 -2 30 0 6 3 -1 5 -18 5 -16 0 -22 -2 -12 -5z"/>
<path d="M578 133 c6 -2 18 -2 25 0 6 3 1 5 -13 5 -14 0 -19 -2 -12 -5z"/>
</g>
</svg>
