<?xml version="1.0" standalone="no"?>
<!DOCTYPE svg PUBLIC "-//W3C//DTD SVG 20010904//EN"
 "http://www.w3.org/TR/2001/REC-SVG-20010904/DTD/svg10.dtd">
<svg version="1.0" xmlns="http://www.w3.org/2000/svg"
 width="96.000000pt" height="68.000000pt" viewBox="0 0 96.000000 68.000000"
 preserveAspectRatio="xMidYMid meet">
<metadata>
Created by potrace 1.16, written by Peter Selinger 2001-2019
</metadata>
<g transform="translate(0.000000,68.000000) scale(0.100000,-0.100000)"
fill="#000000" stroke="none">
<path d="M487 613 c-3 -5 -2 -15 4 -23 5 -8 9 -40 9 -72 l0 -56 -62 -7 c-107
-12 -126 -19 -93 -31 9 -4 46 -3 81 3 36 5 67 7 69 4 3 -2 5 -17 5 -33 0 -27
-2 -28 -47 -29 -27 -1 -58 0 -70 1 -24 2 -29 -10 -15 -38 5 -9 5 -60 0 -112
-9 -106 -5 -140 17 -140 14 0 20 36 18 98 -1 8 15 12 48 12 l48 0 3 -57 c2
-31 8 -58 14 -60 14 -5 34 49 34 92 0 31 2 33 46 39 85 11 84 12 84 -43 0 -55
-10 -67 -40 -51 -43 23 -41 3 3 -32 39 -33 46 -36 63 -23 17 12 20 32 25 166
7 178 4 185 -64 176 -23 -3 -59 -9 -79 -13 -37 -6 -38 -6 -38 24 0 34 -1 34
155 47 76 7 87 11 65 26 -14 9 -95 6 -184 -8 l-39 -6 6 71 c4 52 3 72 -6 72
-7 0 -22 3 -33 6 -12 3 -24 2 -27 -3z m191 -274 c3 -24 0 -26 -63 -35 l-65
-10 0 32 c0 31 2 33 43 37 73 7 82 4 85 -24z m-178 -19 c0 -26 -3 -30 -29 -30
-16 0 -36 -3 -45 -6 -12 -5 -16 1 -16 24 0 33 9 40 58 41 29 1 32 -2 32 -29z
m180 -60 c0 -21 -5 -28 -17 -28 -10 1 -40 -2 -66 -6 l-48 -7 3 28 c3 29 0 28
111 40 13 1 17 -6 17 -27z m-180 -20 c0 -29 -2 -30 -45 -30 -43 0 -45 1 -45
30 0 29 2 30 45 30 43 0 45 -1 45 -30z"/>
<path d="M640 582 c0 -14 42 -39 70 -44 30 -4 41 28 13 35 -49 14 -83 18 -83
9z"/>
<path d="M211 544 c0 -15 81 -75 97 -72 27 5 39 36 21 53 -17 17 -119 33 -118
19z"/>
<path d="M135 389 c9 -22 77 -70 95 -67 20 4 25 42 7 56 -8 7 -35 15 -61 18
-37 6 -45 4 -41 -7z"/>
<path d="M241 241 c-24 -34 -54 -73 -67 -86 -24 -24 -24 -26 -9 -55 9 -18 23
-30 31 -28 17 3 96 193 92 217 -2 8 -23 -14 -47 -48z"/>
</g>
</svg>
