<?xml version="1.0" standalone="no"?>
<!DOCTYPE svg PUBLIC "-//W3C//DTD SVG 20010904//EN"
 "http://www.w3.org/TR/2001/REC-SVG-20010904/DTD/svg10.dtd">
<svg version="1.0" xmlns="http://www.w3.org/2000/svg"
 width="96.000000pt" height="68.000000pt" viewBox="0 0 96.000000 68.000000"
 preserveAspectRatio="xMidYMid meet">
<metadata>
Created by potrace 1.16, written by Peter Selinger 2001-2019
</metadata>
<g transform="translate(0.000000,68.000000) scale(0.100000,-0.100000)"
fill="#000000" stroke="none">
<path d="M282 528 c-21 -60 -44 -95 -120 -188 -45 -54 -23 -51 37 5 26 25 51
45 55 45 11 0 6 -143 -7 -206 -13 -60 -9 -95 12 -108 5 -4 14 1 19 11 12 22
18 302 8 325 -6 12 4 36 34 80 43 66 45 90 4 96 -15 2 -24 -10 -42 -60z"/>
</g>
</svg>
