<?xml version="1.0" standalone="no"?>
<!DOCTYPE svg PUBLIC "-//W3C//DTD SVG 20010904//EN"
 "http://www.w3.org/TR/2001/REC-SVG-20010904/DTD/svg10.dtd">
<svg version="1.0" xmlns="http://www.w3.org/2000/svg"
 width="90.000000pt" height="92.000000pt" viewBox="0 0 90.000000 92.000000"
 preserveAspectRatio="xMidYMid meet">
<metadata>
Created by potrace 1.16, written by Peter Selinger 2001-2019
</metadata>
<g transform="translate(0.000000,92.000000) scale(0.100000,-0.100000)"
fill="#000000" stroke="none">
<path d="M526 828 c-2 -7 -8 -39 -14 -70 -13 -69 -78 -211 -128 -280 -19 -28
-33 -53 -29 -56 3 -3 34 23 68 59 45 47 73 89 102 152 22 47 42 86 45 87 3 0
22 -33 42 -73 21 -39 55 -94 76 -122 36 -48 40 -50 93 -53 30 -2 66 1 78 6 22
8 19 11 -43 46 -85 47 -126 84 -187 165 -34 44 -47 70 -43 83 6 20 -8 43 -38
59 -13 7 -19 6 -22 -3z"/>
<path d="M176 802 c-3 -5 15 -30 41 -56 54 -56 88 -60 88 -11 0 24 -6 33 -35
46 -47 22 -88 31 -94 21z"/>
<path d="M194 614 c-27 -13 -74 -27 -104 -31 -58 -9 -68 -23 -27 -37 20 -7 42
-3 97 18 39 16 74 26 77 23 9 -9 -124 -203 -184 -267 -31 -33 -54 -63 -51 -66
8 -8 122 81 151 117 l27 34 0 -85 c0 -47 -4 -100 -10 -119 -7 -24 -6 -42 5
-67 30 -73 45 -34 45 123 0 61 4 114 8 117 5 3 24 -10 42 -29 38 -39 45 -42
54 -20 9 25 -4 44 -40 57 -19 6 -34 14 -34 18 0 3 18 15 40 28 22 12 40 27 40
32 0 9 -40 35 -44 28 -1 -2 -15 -23 -31 -46 -26 -39 -30 -42 -42 -27 -10 15
-6 26 26 74 21 31 48 65 60 75 28 26 27 50 -4 64 -34 16 -41 15 -101 -14z"/>
<path d="M517 478 c-52 -11 -59 -31 -12 -36 39 -5 126 6 145 18 13 9 13 11 0
20 -18 12 -69 11 -133 -2z"/>
<path d="M595 374 c-27 -8 -81 -17 -118 -20 -76 -8 -91 -18 -52 -36 21 -9 42
-9 98 1 40 7 87 15 105 18 l32 6 -33 -79 c-19 -44 -48 -103 -65 -132 -36 -60
-28 -67 22 -17 27 27 134 191 154 237 5 10 -53 38 -75 37 -10 -1 -40 -8 -68
-15z"/>
</g>
</svg>
