<?xml version="1.0" standalone="no"?>
<!DOCTYPE svg PUBLIC "-//W3C//DTD SVG 20010904//EN"
 "http://www.w3.org/TR/2001/REC-SVG-20010904/DTD/svg10.dtd">
<svg version="1.0" xmlns="http://www.w3.org/2000/svg"
 width="96.000000pt" height="68.000000pt" viewBox="0 0 96.000000 68.000000"
 preserveAspectRatio="xMidYMid meet">
<metadata>
Created by potrace 1.16, written by Peter Selinger 2001-2019
</metadata>
<g transform="translate(0.000000,68.000000) scale(0.100000,-0.100000)"
fill="#000000" stroke="none">
<path d="M266 534 c-10 -25 -39 -66 -65 -90 -42 -40 -44 -45 -29 -60 12 -12
20 -14 36 -5 11 6 29 11 39 11 11 0 28 7 39 15 17 13 16 14 -18 8 -53 -8 -49
7 18 78 48 49 55 61 44 74 -23 27 -44 17 -64 -31z"/>
</g>
</svg>
