<?xml version="1.0" standalone="no"?>
<!DOCTYPE svg PUBLIC "-//W3C//DTD SVG 20010904//EN"
 "http://www.w3.org/TR/2001/REC-SVG-20010904/DTD/svg10.dtd">
<svg version="1.0" xmlns="http://www.w3.org/2000/svg"
 width="96.000000pt" height="68.000000pt" viewBox="0 0 96.000000 68.000000"
 preserveAspectRatio="xMidYMid meet">
<metadata>
Created by potrace 1.16, written by Peter Selinger 2001-2019
</metadata>
<g transform="translate(0.000000,68.000000) scale(0.100000,-0.100000)"
fill="#000000" stroke="none">
<path d="M430 608 c0 -32 14 -58 30 -58 26 0 33 48 9 60 -24 14 -39 12 -39 -2z"/>
<path d="M555 568 l-30 -31 27 6 c65 17 81 27 68 42 -18 22 -31 18 -65 -17z"/>
<path d="M300 571 c0 -14 41 -41 62 -41 18 0 25 25 11 33 -20 12 -73 18 -73 8z"/>
</g>
</svg>
