<?xml version="1.0" standalone="no"?>
<!DOCTYPE svg PUBLIC "-//W3C//DTD SVG 20010904//EN"
 "http://www.w3.org/TR/2001/REC-SVG-20010904/DTD/svg10.dtd">
<svg version="1.0" xmlns="http://www.w3.org/2000/svg"
 width="96.000000pt" height="68.000000pt" viewBox="0 0 96.000000 68.000000"
 preserveAspectRatio="xMidYMid meet">
<metadata>
Created by potrace 1.16, written by Peter Selinger 2001-2019
</metadata>
<g transform="translate(0.000000,68.000000) scale(0.100000,-0.100000)"
fill="#000000" stroke="none">
<path d="M456 603 c4 -10 9 -36 12 -59 l4 -40 -122 -12 c-67 -6 -125 -14 -128
-17 -17 -17 31 -26 111 -21 49 3 87 2 87 -3 0 -5 -15 -21 -32 -35 -18 -15 -44
-36 -57 -47 -13 -11 -55 -37 -92 -57 -38 -20 -69 -41 -69 -45 0 -28 164 43
230 98 23 19 46 35 51 35 5 0 9 -27 9 -59 0 -39 4 -61 13 -64 6 -2 -18 -7 -54
-11 -37 -3 -73 -4 -80 -1 -11 4 -14 -16 -14 -109 0 -117 4 -134 27 -120 7 5
60 14 118 19 l105 11 26 -29 c25 -27 26 -28 46 -10 19 16 22 31 25 134 4 114
4 116 -20 127 -17 8 -39 8 -79 1 -30 -6 -56 -9 -56 -7 -1 2 0 33 3 69 l5 66
95 -53 c97 -54 150 -67 150 -39 0 17 -43 65 -59 65 -5 0 -22 5 -38 12 -15 6
-34 12 -42 14 -149 30 -148 49 1 60 64 5 113 14 115 20 7 21 -71 35 -143 24
-38 -5 -73 -10 -78 -10 -4 0 -5 20 -2 44 6 38 4 46 -13 55 -11 6 -29 11 -41
11 -17 0 -20 -4 -14 -17z m155 -353 c5 0 9 -13 9 -29 l0 -28 -82 -7 c-46 -4
-102 -9 -125 -12 l-43 -6 0 35 0 35 103 9 c56 6 108 8 115 6 8 -1 18 -3 23 -3z
m9 -121 l0 -39 -57 0 c-32 0 -88 -3 -125 -7 l-68 -6 0 35 0 35 108 9 c59 5
115 10 125 11 14 1 17 -6 17 -38z"/>
</g>
</svg>
