<?xml version="1.0" standalone="no"?>
<!DOCTYPE svg PUBLIC "-//W3C//DTD SVG 20010904//EN"
 "http://www.w3.org/TR/2001/REC-SVG-20010904/DTD/svg10.dtd">
<svg version="1.0" xmlns="http://www.w3.org/2000/svg"
 width="90.000000pt" height="92.000000pt" viewBox="0 0 90.000000 92.000000"
 preserveAspectRatio="xMidYMid meet">
<metadata>
Created by potrace 1.16, written by Peter Selinger 2001-2019
</metadata>
<g transform="translate(0.000000,92.000000) scale(0.100000,-0.100000)"
fill="#000000" stroke="none">
<path d="M534 833 c3 -10 8 -37 11 -60 5 -48 5 -48 -88 -58 -37 -4 -67 -11
-67 -15 0 -15 50 -28 90 -23 l43 6 -19 -33 c-10 -18 -52 -63 -93 -101 -40 -38
-70 -69 -67 -69 23 0 115 59 153 97 l46 45 -7 -74 c-4 -44 -2 -86 3 -102 10
-26 10 -26 -37 -28 -26 0 -57 0 -69 1 -26 2 -27 -2 -13 -29 6 -10 15 -54 21
-97 13 -94 21 -106 57 -92 15 6 67 11 115 12 l88 2 10 40 c6 22 19 66 29 97
16 53 16 59 1 72 -31 28 -63 34 -116 20 -27 -8 -51 -14 -53 -14 -1 0 2 9 8 19
5 11 10 58 10 105 0 47 3 86 7 86 4 0 38 -24 77 -54 87 -66 115 -81 127 -69
18 18 -9 61 -53 87 -24 14 -69 33 -100 42 -94 29 -71 54 49 54 69 0 82 9 52
35 -17 17 -28 18 -90 9 l-70 -10 6 49 c8 54 -1 67 -43 67 -18 0 -22 -4 -18
-17z m146 -435 c0 -7 -3 -23 -6 -36 -5 -19 -11 -22 -31 -17 -13 3 -53 0 -89
-6 -36 -6 -67 -10 -69 -8 -2 2 -6 16 -10 30 -6 26 -5 27 62 36 101 15 143 15
143 1z m-12 -105 c-3 -24 -10 -30 -48 -39 -25 -6 -66 -14 -92 -17 l-48 -7 0
34 0 34 78 7 c42 4 82 8 87 10 22 8 26 4 23 -22z"/>
<path d="M195 658 c-118 -27 -117 -26 -110 -38 3 -5 26 -10 50 -10 l43 0 -10
-37 c-18 -67 -59 -135 -114 -193 -30 -31 -54 -60 -54 -63 0 -17 33 -3 79 33
27 22 52 36 55 32 2 -4 7 -32 11 -63 10 -79 11 -80 75 -63 30 8 65 14 77 14
20 0 22 4 17 24 -3 15 4 48 19 85 l25 61 -21 15 c-26 19 -41 19 -92 0 -22 -8
-49 -14 -61 -15 -19 0 -19 4 14 71 18 40 32 79 29 89 -3 13 7 19 54 29 33 6
59 16 59 21 0 10 -34 31 -47 29 -4 -1 -48 -10 -98 -21z m85 -262 c0 -75 -9
-93 -53 -105 -23 -5 -42 -9 -43 -8 -1 1 -4 30 -7 64 l-7 62 43 9 c66 15 67 15
67 -22z"/>
<path d="M655 149 c-224 -23 -293 -29 -327 -29 -47 0 -48 -11 -4 -32 25 -13
43 -14 72 -7 57 13 352 32 393 25 40 -6 81 2 81 15 0 16 -59 39 -97 38 -21 -1
-74 -5 -118 -10z"/>
</g>
</svg>
