<?xml version="1.0" standalone="no"?>
<!DOCTYPE svg PUBLIC "-//W3C//DTD SVG 20010904//EN"
 "http://www.w3.org/TR/2001/REC-SVG-20010904/DTD/svg10.dtd">
<svg version="1.0" xmlns="http://www.w3.org/2000/svg"
 width="96.000000pt" height="68.000000pt" viewBox="0 0 96.000000 68.000000"
 preserveAspectRatio="xMidYMid meet">
<metadata>
Created by potrace 1.16, written by Peter Selinger 2001-2019
</metadata>
<g transform="translate(0.000000,68.000000) scale(0.100000,-0.100000)"
fill="#000000" stroke="none">
<path d="M407 231 l-6 -29 -131 -7 c-96 -5 -129 -10 -121 -18 14 -14 71 -15
166 -4 l70 8 -28 -29 c-15 -15 -27 -31 -27 -34 0 -3 22 -9 50 -13 27 -4 52
-10 55 -15 7 -11 -83 -48 -136 -56 -55 -8 -86 -23 -49 -24 43 0 156 28 196 48
43 21 43 21 129 -19 69 -32 106 -40 112 -22 6 18 -53 51 -115 64 -29 7 -51 15
-50 18 2 3 17 25 33 48 l30 42 113 1 c61 0 112 4 112 8 0 21 -50 30 -130 23
-61 -5 -89 -3 -108 6 -22 12 -27 12 -34 -2 -6 -10 -23 -15 -50 -15 -35 0 -39
2 -28 15 10 12 8 16 -15 25 -34 13 -32 14 -38 -19z m123 -50 c0 -5 -12 -23
-26 -40 -22 -27 -32 -31 -74 -31 -63 0 -72 16 -29 51 27 22 44 29 82 29 26 0
47 -4 47 -9z"/>
</g>
</svg>
