<?xml version="1.0" standalone="no"?>
<!DOCTYPE svg PUBLIC "-//W3C//DTD SVG 20010904//EN"
 "http://www.w3.org/TR/2001/REC-SVG-20010904/DTD/svg10.dtd">
<svg version="1.0" xmlns="http://www.w3.org/2000/svg"
 width="96.000000pt" height="68.000000pt" viewBox="0 0 96.000000 68.000000"
 preserveAspectRatio="xMidYMid meet">
<metadata>
Created by potrace 1.16, written by Peter Selinger 2001-2019
</metadata>
<g transform="translate(0.000000,68.000000) scale(0.100000,-0.100000)"
fill="#000000" stroke="none">
<path d="M605 545 c-3 -26 -11 -45 -18 -44 -20 3 -77 -13 -77 -21 0 -10 48
-22 60 -15 14 9 12 -2 -6 -41 -32 -66 8 -52 52 18 24 38 25 38 89 38 35 0 66
4 70 9 9 15 -30 31 -76 31 -34 0 -40 3 -31 12 28 28 8 58 -38 58 -13 0 -19
-11 -25 -45z"/>
<path d="M310 553 c0 -11 5 -24 11 -30 25 -25 2 -43 -55 -43 -66 0 -78 -13
-36 -39 28 -17 36 -17 74 -6 l43 13 12 -35 c16 -44 37 -38 33 10 -3 34 -1 37
38 47 49 13 43 33 -9 28 -34 -3 -36 -1 -41 32 -4 31 -9 35 -37 38 -27 3 -33 0
-33 -15z"/>
<path d="M605 391 c-3 -5 -1 -12 5 -16 5 -3 10 -24 10 -45 l0 -38 -65 -7 c-89
-10 -95 -27 -9 -24 48 2 69 -1 68 -9 -1 -7 -2 -28 -2 -48 l-2 -36 -60 4 c-61
4 -69 1 -49 -19 6 -6 17 -35 24 -65 6 -29 16 -53 21 -52 5 0 51 4 102 8 87 8
94 10 103 34 5 13 18 36 29 50 l20 25 -21 15 c-13 9 -42 14 -75 13 l-55 -1 3
44 3 44 50 6 c28 3 66 6 85 6 34 1 34 1 15 16 -16 12 -34 14 -83 9 -63 -7 -64
-7 -57 17 4 12 9 31 12 42 3 10 -1 22 -8 27 -19 12 -56 11 -64 0z m107 -243
c2 -6 2 -24 0 -39 -4 -30 -9 -31 -104 -44 -47 -6 -47 -6 -53 27 -10 51 -9 53
42 59 82 10 111 9 115 -3z"/>
<path d="M314 382 c-5 -4 -15 -29 -22 -57 -7 -27 -16 -53 -20 -57 -5 -4 -39
-10 -77 -13 -39 -2 -72 -5 -75 -5 -3 0 6 -9 19 -19 22 -17 29 -18 68 -6 36 11
43 11 43 0 0 -8 -4 -17 -10 -20 -5 -3 -10 -15 -10 -25 0 -14 11 -22 40 -30 21
-6 42 -15 45 -21 8 -11 -28 -43 -70 -62 -84 -38 -84 -38 -32 -33 30 2 66 15
96 33 l48 30 36 -30 c67 -53 86 -7 20 49 l-24 21 31 67 c32 72 32 100 0 109
-16 4 -20 0 -20 -17 0 -19 -6 -22 -41 -25 l-41 -2 26 44 c19 34 23 47 13 54
-23 18 -33 22 -43 15z m76 -141 c0 -32 -41 -93 -57 -87 -8 4 -26 9 -39 12 -29
7 -30 18 -4 54 14 19 32 30 53 33 17 2 35 5 40 5 4 1 7 -7 7 -17z"/>
</g>
</svg>
