<?xml version="1.0" standalone="no"?>
<!DOCTYPE svg PUBLIC "-//W3C//DTD SVG 20010904//EN"
 "http://www.w3.org/TR/2001/REC-SVG-20010904/DTD/svg10.dtd">
<svg version="1.0" xmlns="http://www.w3.org/2000/svg"
 width="96.000000pt" height="68.000000pt" viewBox="0 0 96.000000 68.000000"
 preserveAspectRatio="xMidYMid meet">
<metadata>
Created by potrace 1.16, written by Peter Selinger 2001-2019
</metadata>
<g transform="translate(0.000000,68.000000) scale(0.100000,-0.100000)"
fill="#000000" stroke="none">
<path d="M617 347 l5 -54 -38 -6 c-22 -4 -54 -7 -71 -7 -18 0 -33 -4 -33 -10
0 -6 28 -10 65 -10 l65 0 0 -40 c0 -33 4 -40 19 -40 14 0 20 10 25 44 6 39 10
44 38 50 17 3 52 6 79 6 27 0 49 4 49 9 0 15 -50 22 -106 15 l-52 -6 9 43 c11
46 3 59 -38 59 -20 0 -21 -3 -16 -53z"/>
</g>
</svg>
