<?xml version="1.0" standalone="no"?>
<!DOCTYPE svg PUBLIC "-//W3C//DTD SVG 20010904//EN"
 "http://www.w3.org/TR/2001/REC-SVG-20010904/DTD/svg10.dtd">
<svg version="1.0" xmlns="http://www.w3.org/2000/svg"
 width="96.000000pt" height="68.000000pt" viewBox="0 0 96.000000 68.000000"
 preserveAspectRatio="xMidYMid meet">
<metadata>
Created by potrace 1.16, written by Peter Selinger 2001-2019
</metadata>
<g transform="translate(0.000000,68.000000) scale(0.100000,-0.100000)"
fill="#000000" stroke="none">
<path d="M326 588 c-3 -7 -10 -30 -16 -51 -15 -49 -88 -145 -153 -202 -41 -36
-47 -45 -31 -45 11 0 46 18 77 40 47 32 63 38 88 33 23 -4 29 -10 27 -27 -2
-17 -13 -22 -55 -29 -29 -5 -53 -13 -53 -18 0 -13 47 -22 80 -15 l30 6 0 -60
c0 -33 -5 -62 -11 -66 -7 -4 -43 -9 -80 -12 -38 -2 -69 -8 -69 -12 0 -10 32
-36 53 -44 11 -3 38 2 60 12 23 10 84 31 135 47 53 17 92 35 92 42 0 15 -19
17 -52 4 -13 -4 -35 -11 -50 -15 -28 -6 -28 -6 -28 41 0 61 7 71 53 80 49 10
48 27 -3 31 -32 3 -40 7 -40 23 0 14 9 21 30 26 35 7 47 20 31 36 -8 8 -29 7
-76 -2 -36 -7 -68 -12 -70 -9 -2 2 12 27 32 55 l36 52 40 -34 c49 -42 77 -46
77 -10 0 24 -23 41 -82 59 -11 3 -15 12 -11 25 4 14 -3 24 -26 36 -25 12 -32
13 -35 3z"/>
<path d="M580 577 c0 -33 -36 -125 -70 -179 -37 -60 -24 -62 27 -5 38 43 39
44 119 50 55 4 85 2 92 -5 8 -8 12 -52 12 -122 0 -100 -2 -113 -26 -153 -27
-47 -28 -47 -99 -26 -18 5 -17 3 6 -27 44 -58 60 -64 100 -37 51 34 66 87 70
247 l4 135 -26 12 c-22 11 -41 10 -108 -4 -45 -9 -84 -13 -87 -10 -4 3 5 26
20 51 30 51 33 81 10 90 -30 11 -44 6 -44 -17z"/>
<path d="M520 312 c0 -13 64 -72 78 -72 7 0 12 11 12 25 0 17 -9 29 -30 40
-32 16 -60 20 -60 7z"/>
<path d="M430 268 c0 -6 -11 -26 -26 -45 -30 -39 -18 -42 36 -8 43 27 47 34
28 53 -15 15 -38 16 -38 0z"/>
<path d="M206 242 c-3 -5 6 -25 20 -46 28 -41 57 -45 62 -9 2 16 -6 28 -30 43
-37 22 -44 24 -52 12z"/>
</g>
</svg>
