<?xml version="1.0" standalone="no"?>
<!DOCTYPE svg PUBLIC "-//W3C//DTD SVG 20010904//EN"
 "http://www.w3.org/TR/2001/REC-SVG-20010904/DTD/svg10.dtd">
<svg version="1.0" xmlns="http://www.w3.org/2000/svg"
 width="96.000000pt" height="68.000000pt" viewBox="0 0 96.000000 68.000000"
 preserveAspectRatio="xMidYMid meet">
<metadata>
Created by potrace 1.16, written by Peter Selinger 2001-2019
</metadata>
<g transform="translate(0.000000,68.000000) scale(0.100000,-0.100000)"
fill="#000000" stroke="none">
<path d="M427 533 c-4 -3 -4 -35 -1 -70 6 -57 5 -63 -12 -63 -11 0 -36 -3 -58
-7 l-38 -6 3 64 4 64 -33 3 c-31 3 -33 2 -23 -17 6 -11 11 -42 11 -69 l0 -50
-47 -6 c-90 -13 -113 -18 -113 -27 0 -14 69 -22 110 -11 36 9 40 8 40 -9 0
-35 -43 -111 -88 -155 -49 -49 -46 -55 13 -21 50 28 101 95 110 144 9 54 14
59 66 67 l47 7 7 -47 c3 -25 4 -84 0 -129 -8 -92 4 -136 31 -114 11 9 14 43
14 154 l0 142 42 7 c48 8 41 25 -11 29 l-33 2 4 57 c3 43 1 59 -10 63 -18 7
-27 6 -35 -2z"/>
</g>
</svg>
