<?xml version="1.0" standalone="no"?>
<!DOCTYPE svg PUBLIC "-//W3C//DTD SVG 20010904//EN"
 "http://www.w3.org/TR/2001/REC-SVG-20010904/DTD/svg10.dtd">
<svg version="1.0" xmlns="http://www.w3.org/2000/svg"
 width="90.000000pt" height="92.000000pt" viewBox="0 0 90.000000 92.000000"
 preserveAspectRatio="xMidYMid meet">
<metadata>
Created by potrace 1.16, written by Peter Selinger 2001-2019
</metadata>
<g transform="translate(0.000000,92.000000) scale(0.100000,-0.100000)"
fill="#000000" stroke="none">
<path d="M475 863 c4 -16 9 -69 12 -119 5 -89 4 -91 -19 -97 -29 -8 -68 -9
-68 -1 0 3 9 19 21 35 l20 29 -32 19 c-38 23 -49 20 -49 -15 0 -26 -38 -109
-72 -156 -27 -38 -10 -35 40 8 36 31 50 36 104 39 l63 4 -3 -54 -4 -53 -81
-11 c-143 -20 -157 -23 -157 -31 0 -21 59 -31 116 -21 32 6 68 11 81 11 23 0
23 -2 -16 -58 -22 -32 -75 -91 -118 -132 -54 -51 -70 -71 -53 -65 53 15 110
57 169 122 l60 67 -4 -34 c-28 -234 -28 -234 -11 -274 16 -38 17 -39 34 -23
14 15 18 45 22 194 l5 176 90 -119 c54 -71 100 -122 115 -128 29 -9 140 10
140 24 0 5 -39 28 -87 52 -72 35 -103 58 -172 128 l-84 85 127 9 c135 10 155
20 95 51 -28 15 -38 15 -125 -1 -52 -9 -97 -14 -100 -11 -4 3 -3 28 1 55 l7
50 45 7 c26 4 57 11 71 16 21 8 22 12 11 25 -13 16 -69 15 -114 -2 -17 -7 -18
-3 -11 60 4 36 9 79 12 95 5 24 1 31 -29 50 -48 29 -61 28 -52 -6z"/>
<path d="M198 786 c-9 -76 -101 -248 -176 -328 -14 -15 -23 -31 -19 -34 9 -10
71 40 108 86 18 22 36 37 42 33 13 -8 3 -248 -13 -320 -13 -59 0 -123 25 -123
20 0 25 40 34 250 7 166 6 188 -9 214 -17 28 -17 29 36 123 l54 94 -27 25
c-37 35 -50 30 -55 -20z"/>
</g>
</svg>
