<?xml version="1.0" standalone="no"?>
<!DOCTYPE svg PUBLIC "-//W3C//DTD SVG 20010904//EN"
 "http://www.w3.org/TR/2001/REC-SVG-20010904/DTD/svg10.dtd">
<svg version="1.0" xmlns="http://www.w3.org/2000/svg"
 width="90.000000pt" height="92.000000pt" viewBox="0 0 90.000000 92.000000"
 preserveAspectRatio="xMidYMid meet">
<metadata>
Created by potrace 1.16, written by Peter Selinger 2001-2019
</metadata>
<g transform="translate(0.000000,92.000000) scale(0.100000,-0.100000)"
fill="#000000" stroke="none">
<path d="M504 818 c3 -13 9 -55 12 -95 l7 -72 -52 -7 c-73 -9 -66 -37 9 -37
l38 0 4 -55 c2 -31 -1 -56 -7 -57 -5 -2 -44 -7 -85 -12 l-75 -8 34 -22 c27
-17 39 -19 65 -11 17 5 100 12 184 15 83 3 152 9 152 13 0 4 -9 15 -20 25 -23
20 -49 23 -139 12 -57 -7 -63 -7 -57 8 3 9 6 36 6 59 l0 43 55 12 c30 7 57 16
60 21 10 17 -37 32 -77 26 l-40 -7 4 73 c3 69 2 73 -22 85 -41 21 -63 17 -56
-9z"/>
<path d="M145 773 c24 -56 33 -177 14 -189 -6 -3 -40 -7 -75 -8 -35 0 -64 -2
-64 -4 0 -1 6 -13 14 -25 8 -12 19 -47 25 -77 13 -61 29 -93 38 -72 5 13 62
17 64 5 2 -11 2 -63 0 -99 -1 -30 -3 -31 -81 -49 -86 -20 -98 -33 -55 -61 25
-16 29 -15 144 40 65 31 121 56 125 56 5 0 17 -11 28 -25 25 -33 48 -18 43 27
-5 36 -19 54 -58 74 -35 19 -44 12 -29 -21 15 -33 16 -32 -12 -39 -13 -3 -31
-9 -40 -12 -14 -5 -16 4 -16 59 l0 66 33 5 c17 3 46 7 62 8 24 2 29 7 27 23
-1 11 8 43 22 70 13 28 22 53 19 58 -2 4 -18 14 -34 22 -24 13 -37 14 -70 5
-23 -6 -43 -9 -47 -6 -3 3 0 37 7 75 6 39 11 74 11 79 0 13 -46 32 -77 32 -20
0 -24 -3 -18 -17z m145 -237 c0 -48 -19 -76 -51 -76 -16 0 -19 7 -19 54 0 56
4 62 53 65 14 1 17 -7 17 -43z m-120 -35 c0 -58 0 -59 -30 -63 -37 -6 -37 -6
-41 56 -4 46 -2 51 21 57 48 14 50 12 50 -50z"/>
<path d="M517 371 l6 -59 -57 -7 c-31 -4 -56 -11 -56 -16 0 -16 47 -28 84 -22
l36 6 0 -50 0 -50 -130 -13 c-71 -7 -130 -17 -130 -22 0 -5 15 -15 34 -23 29
-13 43 -12 102 1 40 9 149 17 262 21 169 5 193 8 190 22 -7 34 -56 45 -149 33
-134 -18 -129 -20 -129 37 0 52 10 61 71 61 14 0 33 6 44 13 17 13 16 15 -13
25 -17 6 -48 8 -68 5 l-37 -6 6 38 c8 46 -5 65 -43 65 l-28 0 5 -59z"/>
</g>
</svg>
