<?xml version="1.0" standalone="no"?>
<!DOCTYPE svg PUBLIC "-//W3C//DTD SVG 20010904//EN"
 "http://www.w3.org/TR/2001/REC-SVG-20010904/DTD/svg10.dtd">
<svg version="1.0" xmlns="http://www.w3.org/2000/svg"
 width="96.000000pt" height="68.000000pt" viewBox="0 0 96.000000 68.000000"
 preserveAspectRatio="xMidYMid meet">
<metadata>
Created by potrace 1.16, written by Peter Selinger 2001-2019
</metadata>
<g transform="translate(0.000000,68.000000) scale(0.100000,-0.100000)"
fill="#000000" stroke="none">
<path d="M338 223 c5 -102 22 -133 87 -155 66 -23 241 -24 335 -2 39 8 72 19
75 24 3 4 -1 31 -8 59 l-13 51 -17 -34 c-28 -59 -56 -71 -187 -74 -120 -4
-187 7 -215 34 -18 18 -20 68 -3 114 9 29 9 35 -7 47 -11 7 -26 13 -35 13 -13
0 -15 -12 -12 -77z"/>
</g>
</svg>
