<?xml version="1.0" standalone="no"?>
<!DOCTYPE svg PUBLIC "-//W3C//DTD SVG 20010904//EN"
 "http://www.w3.org/TR/2001/REC-SVG-20010904/DTD/svg10.dtd">
<svg version="1.0" xmlns="http://www.w3.org/2000/svg"
 width="96.000000pt" height="68.000000pt" viewBox="0 0 96.000000 68.000000"
 preserveAspectRatio="xMidYMid meet">
<metadata>
Created by potrace 1.16, written by Peter Selinger 2001-2019
</metadata>
<g transform="translate(0.000000,68.000000) scale(0.100000,-0.100000)"
fill="#000000" stroke="none">
<path d="M545 169 c-16 -5 -65 -10 -107 -12 -43 -1 -74 -3 -69 -5 6 -2 20 -33
32 -69 15 -47 24 -62 32 -54 7 7 53 11 115 11 91 0 103 2 92 15 -10 12 -8 22
9 50 27 46 26 49 -4 63 -30 14 -58 14 -100 1z m45 -58 c0 -22 -3 -42 -7 -44
-5 -3 -39 -6 -77 -8 l-70 -4 -8 34 c-5 18 -6 36 -3 39 7 7 83 19 133 21 31 1
32 0 32 -38z"/>
</g>
</svg>
