<?xml version="1.0" standalone="no"?>
<!DOCTYPE svg PUBLIC "-//W3C//DTD SVG 20010904//EN"
 "http://www.w3.org/TR/2001/REC-SVG-20010904/DTD/svg10.dtd">
<svg version="1.0" xmlns="http://www.w3.org/2000/svg"
 width="90.000000pt" height="92.000000pt" viewBox="0 0 90.000000 92.000000"
 preserveAspectRatio="xMidYMid meet">
<metadata>
Created by potrace 1.16, written by Peter Selinger 2001-2019
</metadata>
<g transform="translate(0.000000,92.000000) scale(0.100000,-0.100000)"
fill="#000000" stroke="none">
<path d="M235 843 c4 -16 10 -53 14 -85 l7 -56 -29 -6 c-16 -3 -42 -6 -58 -6
-15 0 -31 -5 -34 -10 -10 -16 38 -29 82 -23 39 5 39 5 37 -27 -1 -17 -4 -33
-6 -36 -3 -2 -39 -7 -81 -10 -42 -4 -77 -9 -77 -11 0 -2 6 -14 14 -26 8 -12
19 -56 26 -97 11 -73 27 -109 37 -82 3 7 22 12 45 12 40 0 40 0 34 -31 -3 -17
-6 -35 -6 -39 0 -4 -47 -13 -105 -20 -58 -7 -105 -17 -105 -21 0 -5 10 -13 21
-20 16 -8 42 -8 101 1 44 6 81 10 82 8 2 -2 -2 -35 -7 -73 -8 -56 -7 -77 4
-100 33 -67 59 -23 59 99 l0 83 86 6 c48 3 89 9 93 12 3 4 -5 16 -19 27 -21
17 -33 19 -79 13 -30 -4 -60 -9 -68 -12 -9 -4 -13 5 -13 35 0 39 1 40 38 44
20 3 39 1 40 -4 2 -4 11 -8 21 -8 13 0 23 21 43 88 14 48 29 95 33 104 9 23
-50 61 -84 53 -80 -20 -81 -20 -81 12 0 28 3 30 61 41 73 13 81 19 54 38 -19
14 -35 13 -89 -3 -18 -5 -19 -1 -13 56 5 57 3 62 -20 81 -14 11 -35 20 -45 20
-17 0 -19 -4 -13 -27z m155 -292 c0 -28 -2 -29 -50 -29 -53 -1 -53 0 -44 36 5
18 13 22 50 22 42 0 44 -1 44 -29z m-152 -42 c-25 -17 -75 -10 -81 10 -7 29 4
39 48 43 36 3 40 0 43 -21 2 -13 -2 -28 -10 -32z m144 -52 c-4 -31 -5 -32 -48
-32 -41 0 -44 2 -44 27 0 28 12 35 65 37 29 1 31 -1 27 -32z m-132 -17 c0 -25
-4 -30 -24 -30 -13 0 -31 -3 -40 -6 -13 -5 -16 1 -16 30 0 35 1 36 40 36 38 0
40 -2 40 -30z"/>
<path d="M525 513 c0 -338 3 -361 58 -389 47 -25 126 -29 190 -10 76 22 83 37
58 123 -11 38 -22 77 -24 88 -3 18 -5 17 -10 -5 -3 -14 -9 -42 -12 -64 -4 -21
-18 -49 -31 -63 -23 -23 -32 -25 -86 -21 -88 6 -98 22 -98 152 1 131 16 338
31 399 10 44 9 51 -7 67 -11 10 -30 21 -44 25 l-25 6 0 -308z"/>
</g>
</svg>
