<?xml version="1.0" standalone="no"?>
<!DOCTYPE svg PUBLIC "-//W3C//DTD SVG 20010904//EN"
 "http://www.w3.org/TR/2001/REC-SVG-20010904/DTD/svg10.dtd">
<svg version="1.0" xmlns="http://www.w3.org/2000/svg"
 width="96.000000pt" height="68.000000pt" viewBox="0 0 96.000000 68.000000"
 preserveAspectRatio="xMidYMid meet">
<metadata>
Created by potrace 1.16, written by Peter Selinger 2001-2019
</metadata>
<g transform="translate(0.000000,68.000000) scale(0.100000,-0.100000)"
fill="#000000" stroke="none">
<path d="M520 613 c0 -5 7 -19 16 -31 8 -12 13 -26 10 -31 -3 -4 -47 -12 -98
-15 -51 -4 -103 -10 -116 -13 -22 -5 -22 -6 -6 -24 15 -16 15 -27 5 -96 -15
-100 -62 -200 -135 -286 -31 -37 -52 -67 -47 -67 18 0 106 77 135 118 37 54
74 157 92 256 7 43 15 80 17 82 2 2 64 9 138 14 241 19 246 20 224 36 -18 14
-61 13 -132 -2 -18 -3 -23 0 -23 15 0 10 -6 23 -13 29 -17 15 -67 26 -67 15z"/>
<path d="M170 463 c0 -19 66 -86 78 -79 17 11 15 41 -5 59 -22 19 -73 33 -73
20z"/>
<path d="M236 321 c-16 -11 -50 -27 -75 -37 -57 -21 -56 -20 -41 -39 21 -25
43 -17 98 36 65 63 70 74 18 40z"/>
</g>
</svg>
