<?xml version="1.0" standalone="no"?>
<!DOCTYPE svg PUBLIC "-//W3C//DTD SVG 20010904//EN"
 "http://www.w3.org/TR/2001/REC-SVG-20010904/DTD/svg10.dtd">
<svg version="1.0" xmlns="http://www.w3.org/2000/svg"
 width="96.000000pt" height="68.000000pt" viewBox="0 0 96.000000 68.000000"
 preserveAspectRatio="xMidYMid meet">
<metadata>
Created by potrace 1.16, written by Peter Selinger 2001-2019
</metadata>
<g transform="translate(0.000000,68.000000) scale(0.100000,-0.100000)"
fill="#000000" stroke="none">
<path d="M576 576 c-7 -46 -20 -56 -74 -56 -13 0 -20 -4 -17 -10 3 -5 22 -10
40 -10 33 0 34 -1 25 -25 -13 -35 4 -32 30 5 17 24 29 30 59 30 21 0 53 3 71
6 44 9 18 24 -42 24 -54 0 -53 -1 -36 35 10 22 9 28 -3 36 -32 20 -47 10 -53
-35z"/>
<path d="M304 561 c25 -47 21 -51 -50 -51 -70 0 -82 -13 -32 -37 21 -11 33
-10 67 2 l41 14 15 -30 c18 -34 37 -30 33 8 -3 22 2 28 32 37 l35 11 -42 3
c-39 3 -42 5 -45 35 -3 28 -7 32 -36 35 l-33 3 15 -30z"/>
</g>
</svg>
