<?xml version="1.0" standalone="no"?>
<!DOCTYPE svg PUBLIC "-//W3C//DTD SVG 20010904//EN"
 "http://www.w3.org/TR/2001/REC-SVG-20010904/DTD/svg10.dtd">
<svg version="1.0" xmlns="http://www.w3.org/2000/svg"
 width="90.000000pt" height="92.000000pt" viewBox="0 0 90.000000 92.000000"
 preserveAspectRatio="xMidYMid meet">
<metadata>
Created by potrace 1.16, written by Peter Selinger 2001-2019
</metadata>
<g transform="translate(0.000000,92.000000) scale(0.100000,-0.100000)"
fill="#000000" stroke="none">
<path d="M502 876 c-6 -24 -27 -65 -47 -90 -30 -40 -32 -45 -13 -35 13 6 35
23 50 36 22 22 37 25 107 28 87 4 121 11 121 26 0 20 -44 25 -103 12 -65 -15
-77 -12 -56 13 12 14 10 19 -10 35 -13 11 -26 19 -30 19 -4 0 -12 -20 -19 -44z"/>
<path d="M244 883 c-16 -50 -42 -102 -71 -140 -18 -24 -29 -43 -24 -43 12 0
63 40 84 67 15 19 29 23 70 23 68 0 127 10 127 22 0 23 -47 29 -104 15 l-57
-15 16 25 c15 23 15 26 -1 44 -21 24 -33 24 -40 2z"/>
<path d="M569 746 c38 -39 58 -45 68 -20 8 23 -18 44 -63 51 l-39 6 34 -37z"/>
<path d="M285 730 c32 -33 50 -38 59 -15 8 22 -21 45 -57 45 l-31 0 29 -30z"/>
<path d="M386 696 c7 -30 -15 -38 -103 -38 -50 0 -61 -3 -53 -13 6 -7 16 -32
23 -56 l13 -44 67 3 c60 3 67 1 67 -15 0 -17 -13 -20 -108 -31 -59 -7 -134
-12 -165 -12 -65 0 -74 -14 -23 -35 29 -13 44 -12 109 0 103 20 304 35 458 35
100 0 129 3 129 13 0 7 -16 21 -35 30 -28 13 -44 15 -85 7 -28 -5 -93 -13
-145 -16 -91 -7 -95 -6 -95 13 0 18 9 21 81 27 68 6 80 10 74 23 -3 10 4 26
17 40 l23 25 -25 20 c-21 17 -33 19 -92 13 -57 -6 -68 -5 -68 8 0 16 -20 27
-51 27 -15 0 -18 -5 -13 -24z m161 -56 c5 -26 -11 -38 -59 -45 l-48 -7 0 30
c0 26 4 31 28 35 47 8 77 3 79 -13z m-147 -30 c0 -25 -4 -30 -24 -30 -13 0
-38 -3 -56 -6 -30 -7 -31 -6 -28 22 2 23 9 30 33 35 65 14 75 11 75 -21z"/>
<path d="M450 444 c-41 -7 -104 -13 -139 -13 -57 -1 -62 -3 -55 -18 5 -10 8
-58 7 -108 -3 -100 10 -153 34 -134 7 7 16 9 20 6 11 -12 -26 -54 -87 -101
-101 -75 -8 -48 103 30 26 19 52 34 57 34 17 0 11 30 -7 38 -10 4 21 9 72 12
66 4 92 2 98 -7 26 -41 51 14 48 108 -1 42 3 88 9 103 9 24 6 28 -23 46 -36
22 -34 22 -137 4z m88 -49 c2 -18 -4 -20 -50 -22 -29 -1 -83 -6 -120 -11 -66
-8 -68 -8 -68 14 0 20 6 23 68 29 37 4 72 8 77 10 6 2 28 3 50 2 32 -2 41 -6
43 -22z m12 -70 c0 -22 -4 -24 -42 -23 -24 1 -80 -2 -125 -7 -81 -8 -83 -7
-83 14 0 19 6 21 58 22 31 1 82 4 112 9 30 4 61 8 68 9 6 0 12 -10 12 -24z
m-1 -57 c-2 -38 -13 -43 -109 -46 -52 -1 -105 -5 -117 -7 -20 -5 -23 -1 -23
23 0 26 2 27 38 24 29 -2 157 8 205 17 4 0 7 -5 6 -11z"/>
<path d="M548 88 c68 -66 74 -70 89 -55 29 29 7 68 -56 100 -30 15 -66 27 -80
27 -24 0 -19 -7 47 -72z"/>
</g>
</svg>
