<?xml version="1.0" standalone="no"?>
<!DOCTYPE svg PUBLIC "-//W3C//DTD SVG 20010904//EN"
 "http://www.w3.org/TR/2001/REC-SVG-20010904/DTD/svg10.dtd">
<svg version="1.0" xmlns="http://www.w3.org/2000/svg"
 width="96.000000pt" height="68.000000pt" viewBox="0 0 96.000000 68.000000"
 preserveAspectRatio="xMidYMid meet">
<metadata>
Created by potrace 1.16, written by Peter Selinger 2001-2019
</metadata>
<g transform="translate(0.000000,68.000000) scale(0.100000,-0.100000)"
fill="#000000" stroke="none">
<path d="M530 612 c0 -10 -15 -38 -32 -62 -32 -43 -29 -44 22 -10 17 12 53 19
108 22 45 3 85 8 89 12 11 11 -20 27 -42 22 -11 -3 -40 -8 -65 -12 -39 -6 -43
-5 -33 8 10 11 10 17 1 26 -18 18 -48 15 -48 -6z"/>
<path d="M296 595 c-4 -14 -23 -44 -43 -66 -44 -49 -36 -63 15 -22 31 25 50
31 111 37 81 7 93 12 71 27 -14 8 -34 7 -100 -9 -22 -5 -24 -4 -11 11 11 14
11 20 1 32 -19 22 -37 18 -44 -10z"/>
<path d="M570 533 c1 -16 52 -45 67 -38 14 5 15 8 2 19 -16 16 -69 30 -69 19z"/>
<path d="M330 510 c0 -10 32 -30 49 -30 17 0 13 27 -5 34 -23 9 -44 7 -44 -4z"/>
</g>
</svg>
