<?xml version="1.0" standalone="no"?>
<!DOCTYPE svg PUBLIC "-//W3C//DTD SVG 20010904//EN"
 "http://www.w3.org/TR/2001/REC-SVG-20010904/DTD/svg10.dtd">
<svg version="1.0" xmlns="http://www.w3.org/2000/svg"
 width="96.000000pt" height="68.000000pt" viewBox="0 0 96.000000 68.000000"
 preserveAspectRatio="xMidYMid meet">
<metadata>
Created by potrace 1.16, written by Peter Selinger 2001-2019
</metadata>
<g transform="translate(0.000000,68.000000) scale(0.100000,-0.100000)"
fill="#000000" stroke="none">
<path d="M430 470 c0 -17 -7 -20 -52 -21 -29 -1 -66 0 -83 1 -26 1 -28 0 -14
-12 9 -7 24 -26 32 -42 14 -28 17 -30 71 -27 35 1 56 -2 56 -8 0 -17 27 -13
34 4 3 8 18 15 33 15 52 0 103 13 103 25 0 7 7 18 15 25 12 10 13 16 3 28 -10
11 -27 13 -80 9 -55 -5 -68 -3 -68 9 0 8 -10 14 -25 14 -18 0 -25 -5 -25 -20z
m140 -39 c0 -19 -25 -31 -67 -31 -18 0 -23 6 -23 25 0 23 4 25 45 25 37 0 45
-3 45 -19z m-130 -16 c0 -23 -3 -25 -49 -25 -40 0 -50 4 -54 19 -5 20 -3 21
86 29 12 2 17 -5 17 -23z"/>
</g>
</svg>
