<?xml version="1.0" standalone="no"?>
<!DOCTYPE svg PUBLIC "-//W3C//DTD SVG 20010904//EN"
 "http://www.w3.org/TR/2001/REC-SVG-20010904/DTD/svg10.dtd">
<svg version="1.0" xmlns="http://www.w3.org/2000/svg"
 width="96.000000pt" height="68.000000pt" viewBox="0 0 96.000000 68.000000"
 preserveAspectRatio="xMidYMid meet">
<metadata>
Created by potrace 1.16, written by Peter Selinger 2001-2019
</metadata>
<g transform="translate(0.000000,68.000000) scale(0.100000,-0.100000)"
fill="#000000" stroke="none">
<path d="M520 454 c-32 -9 -75 -12 -104 -9 -44 6 -48 4 -40 -12 4 -10 10 -46
12 -80 l4 -63 112 0 112 0 23 68 c12 37 25 72 27 78 5 12 -47 35 -75 33 -9 -1
-41 -8 -71 -15z m80 -38 c0 -21 -5 -24 -63 -29 -35 -3 -70 -7 -78 -9 -9 -2
-14 6 -14 22 0 21 6 26 40 31 22 3 57 7 78 8 33 1 37 -2 37 -23z m-10 -63 c0
-31 -14 -38 -82 -41 -67 -3 -68 -3 -68 22 0 23 4 25 58 29 31 2 65 4 75 5 10
1 17 -5 17 -15z"/>
</g>
</svg>
