<?xml version="1.0" standalone="no"?>
<!DOCTYPE svg PUBLIC "-//W3C//DTD SVG 20010904//EN"
 "http://www.w3.org/TR/2001/REC-SVG-20010904/DTD/svg10.dtd">
<svg version="1.0" xmlns="http://www.w3.org/2000/svg"
 width="96.000000pt" height="68.000000pt" viewBox="0 0 96.000000 68.000000"
 preserveAspectRatio="xMidYMid meet">
<metadata>
Created by potrace 1.16, written by Peter Selinger 2001-2019
</metadata>
<g transform="translate(0.000000,68.000000) scale(0.100000,-0.100000)"
fill="#000000" stroke="none">
<path d="M500 382 c0 -15 -7 -37 -15 -49 -19 -28 -55 -26 -55 2 -1 21 -43 59
-60 53 -6 -2 1 -19 15 -40 28 -41 22 -48 -43 -48 -28 0 -33 -3 -24 -12 9 -9
34 -9 109 0 54 7 117 12 140 12 43 0 64 13 37 24 -9 3 -31 6 -50 6 l-35 0 23
31 c19 26 20 31 8 39 -30 19 -50 12 -50 -18z"/>
</g>
</svg>
