<?xml version="1.0" standalone="no"?>
<!DOCTYPE svg PUBLIC "-//W3C//DTD SVG 20010904//EN"
 "http://www.w3.org/TR/2001/REC-SVG-20010904/DTD/svg10.dtd">
<svg version="1.0" xmlns="http://www.w3.org/2000/svg"
 width="96.000000pt" height="68.000000pt" viewBox="0 0 96.000000 68.000000"
 preserveAspectRatio="xMidYMid meet">
<metadata>
Created by potrace 1.16, written by Peter Selinger 2001-2019
</metadata>
<g transform="translate(0.000000,68.000000) scale(0.100000,-0.100000)"
fill="#000000" stroke="none">
<path d="M669 476 c-2 -2 -98 -12 -213 -22 -202 -17 -209 -17 -222 1 -12 17
-15 15 -34 -26 -11 -24 -20 -52 -20 -61 0 -29 29 -20 50 15 20 32 20 32 137
44 187 19 323 27 323 18 0 -5 -10 -20 -22 -33 -23 -24 -23 -24 -2 -18 12 4 41
10 65 14 23 4 44 13 46 19 8 23 -89 67 -108 49z"/>
</g>
</svg>
