<?xml version="1.0" standalone="no"?>
<!DOCTYPE svg PUBLIC "-//W3C//DTD SVG 20010904//EN"
 "http://www.w3.org/TR/2001/REC-SVG-20010904/DTD/svg10.dtd">
<svg version="1.0" xmlns="http://www.w3.org/2000/svg"
 width="96.000000pt" height="68.000000pt" viewBox="0 0 96.000000 68.000000"
 preserveAspectRatio="xMidYMid meet">
<metadata>
Created by potrace 1.16, written by Peter Selinger 2001-2019
</metadata>
<g transform="translate(0.000000,68.000000) scale(0.100000,-0.100000)"
fill="#000000" stroke="none">
<path d="M248 466 c4 -70 4 -73 -19 -79 -13 -4 -41 -7 -62 -7 -33 0 -36 -2
-27 -17 6 -10 16 -38 23 -63 13 -44 14 -45 50 -42 36 3 37 3 43 -38 5 -30 11
-40 23 -38 11 2 17 16 19 45 l3 42 49 7 c33 4 47 10 44 19 -3 7 6 26 20 43 15
16 26 35 26 41 0 21 -40 32 -90 25 l-50 -7 0 36 c0 20 4 47 10 61 8 21 6 27
-10 36 -10 5 -27 10 -38 10 -17 0 -19 -6 -14 -74z m122 -95 c0 -4 -5 -22 -11
-40 -9 -25 -17 -31 -39 -31 -24 0 -27 3 -23 28 3 15 6 33 8 40 5 13 65 17 65
3z m-122 -43 c-2 -35 -7 -44 -24 -46 -15 -2 -23 4 -28 20 -13 52 -10 57 47 67
5 0 7 -18 5 -41z"/>
</g>
</svg>
