<?xml version="1.0" standalone="no"?>
<!DOCTYPE svg PUBLIC "-//W3C//DTD SVG 20010904//EN"
 "http://www.w3.org/TR/2001/REC-SVG-20010904/DTD/svg10.dtd">
<svg version="1.0" xmlns="http://www.w3.org/2000/svg"
 width="90.000000pt" height="92.000000pt" viewBox="0 0 90.000000 92.000000"
 preserveAspectRatio="xMidYMid meet">
<metadata>
Created by potrace 1.16, written by Peter Selinger 2001-2019
</metadata>
<g transform="translate(0.000000,92.000000) scale(0.100000,-0.100000)"
fill="#000000" stroke="none">
<path d="M246 833 c16 -101 18 -98 -64 -101 l-73 -3 21 -26 c35 -45 27 -61
-35 -68 -30 -4 -55 -11 -55 -15 0 -13 43 -20 82 -14 35 6 37 5 46 -27 8 -32
11 -34 45 -31 34 3 37 1 37 -21 0 -30 -16 -37 -86 -37 -49 0 -53 -2 -44 -17 6
-10 17 -36 24 -58 8 -23 19 -39 27 -37 61 15 69 14 69 -4 0 -11 -3 -29 -6 -41
-6 -22 -35 -30 -182 -48 -58 -8 -66 -20 -24 -36 25 -10 82 -3 157 18 18 5 18
5 1 -21 l-17 -27 40 -16 c23 -9 41 -19 41 -23 0 -10 -110 -58 -149 -66 -29 -6
-54 -24 -33 -24 36 0 136 26 176 46 l49 25 38 -27 c21 -14 44 -33 50 -40 6 -8
20 -14 30 -14 44 0 5 77 -51 100 -16 7 -30 14 -30 17 0 2 11 21 25 41 14 20
25 42 25 49 0 8 14 13 39 13 37 0 61 14 47 27 -3 3 -22 9 -43 14 -21 4 -51 11
-67 15 -22 5 -27 4 -21 -6 9 -15 -12 -30 -44 -30 -22 0 -23 1 -7 24 9 14 13
33 9 42 -6 15 0 17 49 11 55 -5 57 -5 68 23 7 16 18 35 26 41 21 17 17 27 -17
48 -24 15 -38 17 -67 10 -52 -12 -52 -12 -52 17 0 23 3 25 38 24 58 -3 59 -3
71 45 l11 45 50 0 c28 0 50 4 50 8 0 17 -25 32 -53 32 -24 0 -27 3 -22 20 5
15 -2 24 -27 40 -18 11 -40 17 -48 14 -8 -3 -27 -8 -41 -11 -27 -5 -27 -5 -18
38 4 24 8 47 9 51 0 9 -54 38 -70 38 -8 0 -9 -15 -4 -47z m132 -135 c-2 -19
-10 -24 -40 -26 -35 -3 -38 -1 -38 22 0 24 4 26 41 26 36 0 40 -2 37 -22z
m-121 -10 c-3 -54 -77 -51 -77 2 0 5 15 11 33 13 17 2 35 5 39 5 4 1 6 -8 5
-20z m113 -73 c0 -22 -4 -25 -35 -25 -31 0 -35 3 -35 25 0 22 4 25 35 25 31 0
35 -3 35 -25z m-110 1 c0 -30 -13 -46 -36 -46 -19 0 -24 5 -24 24 0 13 6 27
13 29 24 10 47 7 47 -7z m120 -156 c0 -29 -2 -30 -45 -30 -41 0 -45 2 -45 24
0 21 5 25 38 29 20 2 40 4 45 5 4 1 7 -11 7 -28z m-130 -14 c0 -13 -7 -27 -16
-30 -27 -10 -54 -7 -54 8 0 8 -3 21 -6 30 -5 13 2 16 35 16 37 0 41 -3 41 -24z
m90 -163 c0 -13 -39 -73 -47 -73 -5 0 -25 5 -46 11 -37 10 -38 11 -24 32 14
21 46 33 95 36 12 0 22 -2 22 -6z"/>
<path d="M580 758 c-15 -81 -34 -135 -77 -228 l-34 -75 34 33 c25 25 42 32 71
32 l39 0 -5 -84 c-3 -46 -9 -89 -12 -94 -4 -6 -23 7 -46 31 -28 30 -42 39 -50
31 -8 -8 0 -22 30 -51 22 -22 40 -47 40 -55 0 -26 -60 -87 -113 -113 l-52 -26
44 6 c51 7 96 28 132 62 l26 24 41 -54 c61 -81 69 -87 115 -87 48 0 117 17
117 29 0 4 -19 14 -42 21 -59 17 -146 64 -186 99 -29 25 -32 32 -23 50 7 11
19 59 27 106 13 66 14 88 4 100 -9 11 -5 16 27 24 21 5 51 11 67 13 41 4 43
24 4 37 -29 9 -45 7 -108 -14 -40 -14 -77 -25 -82 -25 -5 0 2 21 16 48 13 26
36 76 50 112 l27 65 -26 23 c-14 12 -30 22 -34 22 -5 0 -14 -28 -21 -62z"/>
</g>
</svg>
