<?xml version="1.0" standalone="no"?>
<!DOCTYPE svg PUBLIC "-//W3C//DTD SVG 20010904//EN"
 "http://www.w3.org/TR/2001/REC-SVG-20010904/DTD/svg10.dtd">
<svg version="1.0" xmlns="http://www.w3.org/2000/svg"
 width="96.000000pt" height="68.000000pt" viewBox="0 0 96.000000 68.000000"
 preserveAspectRatio="xMidYMid meet">
<metadata>
Created by potrace 1.16, written by Peter Selinger 2001-2019
</metadata>
<g transform="translate(0.000000,68.000000) scale(0.100000,-0.100000)"
fill="#000000" stroke="none">
<path d="M358 535 c-3 -4 -55 -15 -115 -24 -86 -15 -102 -20 -80 -26 15 -4 64
-2 108 5 44 7 83 10 86 6 3 -3 -7 -24 -22 -46 -15 -22 -26 -42 -24 -45 4 -3
133 75 147 89 6 7 -40 34 -68 41 -14 3 -28 3 -32 0z"/>
</g>
</svg>
