<?xml version="1.0" standalone="no"?>
<!DOCTYPE svg PUBLIC "-//W3C//DTD SVG 20010904//EN"
 "http://www.w3.org/TR/2001/REC-SVG-20010904/DTD/svg10.dtd">
<svg version="1.0" xmlns="http://www.w3.org/2000/svg"
 width="90.000000pt" height="92.000000pt" viewBox="0 0 90.000000 92.000000"
 preserveAspectRatio="xMidYMid meet">
<metadata>
Created by potrace 1.16, written by Peter Selinger 2001-2019
</metadata>
<g transform="translate(0.000000,92.000000) scale(0.100000,-0.100000)"
fill="#000000" stroke="none">
<path d="M575 788 c14 -39 17 -307 5 -375 -16 -96 -50 -163 -116 -228 -53 -53
-55 -57 -28 -51 29 8 88 47 112 76 21 24 72 133 72 153 0 37 17 12 74 -108 39
-83 65 -127 78 -131 29 -9 108 5 108 19 0 7 -10 18 -22 26 -79 49 -130 106
-199 222 l-28 48 52 30 c29 16 72 44 96 61 42 31 42 32 25 52 -40 43 -49 41
-87 -20 -19 -32 -45 -66 -57 -77 l-21 -19 6 110 c3 60 8 133 10 162 5 49 4 53
-21 62 -14 6 -35 10 -46 10 -17 0 -19 -4 -13 -22z"/>
<path d="M369 754 c-19 -19 -54 -49 -79 -66 l-45 -30 44 4 c41 3 46 1 52 -22
4 -14 7 -37 8 -52 1 -26 -2 -27 -59 -34 -74 -8 -75 -28 -2 -32 l52 -3 -29 -57
c-16 -31 -61 -97 -101 -145 -71 -87 -71 -88 -33 -68 44 22 123 103 148 150 9
18 19 31 21 28 3 -2 -1 -54 -8 -113 -15 -137 -15 -181 0 -196 28 -28 37 10 40
165 l4 151 33 -39 c25 -30 36 -37 45 -29 21 21 6 49 -37 69 -34 16 -42 25 -43
47 0 32 24 58 54 58 12 0 31 7 42 15 16 13 17 16 4 25 -8 6 -32 8 -52 5 l-37
-5 6 36 c5 31 2 40 -18 55 l-24 18 28 10 c15 6 38 15 52 21 33 13 32 32 -3 52
-29 17 -29 17 -63 -18z"/>
<path d="M135 643 c-18 -10 -52 -17 -82 -16 -29 0 -53 -1 -53 -2 0 -1 6 -15
14 -31 8 -16 19 -63 26 -104 11 -76 24 -105 38 -83 4 6 33 14 64 18 52 7 57 9
53 29 -3 11 2 48 11 81 8 33 18 69 20 81 4 15 -1 23 -21 32 -32 15 -33 15 -70
-5z m20 -105 c-3 -40 -7 -74 -8 -74 -1 -1 -16 -5 -33 -8 l-31 -7 -9 75 -10 75
26 4 c76 12 73 15 65 -65z"/>
<path d="M460 513 c0 -6 13 -29 30 -51 20 -27 35 -40 45 -36 19 8 20 58 2 73
-19 15 -77 26 -77 14z"/>
</g>
</svg>
