<?xml version="1.0" standalone="no"?>
<!DOCTYPE svg PUBLIC "-//W3C//DTD SVG 20010904//EN"
 "http://www.w3.org/TR/2001/REC-SVG-20010904/DTD/svg10.dtd">
<svg version="1.0" xmlns="http://www.w3.org/2000/svg"
 width="90.000000pt" height="92.000000pt" viewBox="0 0 90.000000 92.000000"
 preserveAspectRatio="xMidYMid meet">
<metadata>
Created by potrace 1.16, written by Peter Selinger 2001-2019
</metadata>
<g transform="translate(0.000000,92.000000) scale(0.100000,-0.100000)"
fill="#000000" stroke="none">
<path d="M154 826 c-3 -8 -1 -23 5 -35 6 -11 11 -53 11 -94 l0 -74 -36 -6
c-20 -3 -50 -3 -67 0 -27 6 -29 4 -22 -13 4 -10 14 -53 22 -94 13 -73 30 -109
40 -82 3 6 18 12 34 12 l29 0 0 -69 0 -68 -62 -12 c-104 -20 -103 -19 -81 -43
38 -42 46 -41 165 18 101 51 113 55 123 39 25 -42 33 -48 50 -41 14 5 16 14
12 42 -7 42 -20 60 -60 80 -35 19 -44 12 -29 -20 12 -26 14 -24 -50 -42 -16
-5 -18 3 -18 60 l0 66 55 0 c51 0 69 10 45 25 -11 7 12 55 45 93 l20 24 -29
25 c-26 22 -36 25 -79 19 l-50 -5 7 62 c3 34 9 74 12 88 5 23 1 28 -35 43 -50
20 -50 20 -57 2z m136 -250 c0 -13 -3 -38 -6 -55 -6 -26 -11 -31 -36 -31 -28
0 -29 1 -24 43 2 23 5 48 5 55 1 7 14 12 31 12 25 0 30 -4 30 -24z m-118 -3
c2 -10 1 -36 -2 -58 -4 -35 -9 -40 -32 -43 -28 -3 -28 -2 -28 52 0 49 2 55 23
59 12 2 25 5 28 6 4 0 8 -7 11 -16z"/>
<path d="M575 794 c-27 -8 -78 -16 -113 -16 -53 -2 -62 -4 -55 -17 13 -28 15
-183 3 -264 -10 -69 -9 -82 6 -104 14 -23 18 -24 26 -10 5 10 15 17 23 17 11
0 13 -8 8 -32 -13 -71 -88 -175 -168 -235 -26 -20 -27 -22 -9 -23 55 -1 164
101 212 198 21 44 24 57 14 73 -11 17 -9 19 12 19 32 0 36 -14 36 -133 0 -126
16 -160 81 -177 61 -17 142 -4 179 27 36 30 36 38 8 117 l-22 61 -11 -57 c-14
-78 -31 -93 -106 -93 -81 0 -93 15 -84 107 3 37 10 82 15 99 7 22 6 37 -1 46
-9 10 -8 13 2 13 8 0 20 -9 27 -20 7 -11 16 -20 22 -20 19 0 32 85 26 175 -3
50 -2 119 4 155 9 63 9 66 -16 88 -29 25 -49 26 -119 6z m66 -72 c5 -40 4 -43
-16 -38 -11 3 -45 -1 -75 -9 -85 -23 -90 -21 -90 25 0 33 4 41 23 45 144 34
150 33 158 -23z m9 -111 l0 -38 -67 -7 c-38 -4 -83 -9 -100 -12 -33 -6 -33 -6
-30 32 l4 39 62 7 c35 4 68 9 75 12 6 2 21 5 34 5 19 1 22 -4 22 -38z m0 -120
l0 -49 -37 1 c-21 1 -66 -2 -100 -7 l-63 -8 0 44 0 45 83 10 c45 5 90 10 100
11 14 2 17 -6 17 -47z"/>
</g>
</svg>
