<?xml version="1.0" standalone="no"?>
<!DOCTYPE svg PUBLIC "-//W3C//DTD SVG 20010904//EN"
 "http://www.w3.org/TR/2001/REC-SVG-20010904/DTD/svg10.dtd">
<svg version="1.0" xmlns="http://www.w3.org/2000/svg"
 width="96.000000pt" height="68.000000pt" viewBox="0 0 96.000000 68.000000"
 preserveAspectRatio="xMidYMid meet">
<metadata>
Created by potrace 1.16, written by Peter Selinger 2001-2019
</metadata>
<g transform="translate(0.000000,68.000000) scale(0.100000,-0.100000)"
fill="#000000" stroke="none">
<path d="M265 543 c-10 -26 -38 -66 -62 -89 -64 -63 -54 -96 23 -75 21 6 40 8
42 6 3 -2 -19 -27 -48 -56 -71 -69 -58 -81 52 -47 74 23 85 24 100 11 16 -15
38 -11 38 7 0 13 -53 60 -68 60 -9 0 -10 -5 -3 -19 10 -17 5 -20 -39 -31 -27
-7 -54 -10 -60 -8 -6 2 28 37 74 78 47 41 85 82 85 91 1 25 -32 34 -44 13 -24
-43 -54 -64 -91 -64 l-37 0 52 52 c57 59 68 82 51 103 -24 28 -47 17 -65 -32z"/>
<path d="M625 474 c-44 -7 -95 -13 -112 -13 -18 -1 -33 -5 -33 -10 0 -14 21
-19 58 -13 30 4 32 3 32 -23 0 -16 -5 -43 -12 -61 l-11 -32 -41 19 c-71 32
-82 23 -29 -23 26 -23 47 -46 45 -52 -8 -24 -67 -88 -115 -122 -29 -21 -54
-39 -56 -41 -2 -2 -2 -5 1 -8 3 -3 26 6 52 21 87 49 150 129 207 262 18 43 20
55 9 62 -9 5 2 11 32 15 64 10 82 4 87 -25 5 -35 -18 -155 -40 -216 -25 -67
-49 -88 -89 -81 -36 8 -37 4 -9 -34 56 -79 131 12 164 199 9 51 23 109 33 128
16 34 16 36 -3 50 -22 16 -60 16 -170 -2z"/>
<path d="M340 252 c0 -12 39 -52 50 -52 17 0 11 32 -7 46 -20 15 -43 18 -43 6z"/>
<path d="M250 222 c0 -18 33 -52 51 -52 29 0 23 28 -11 45 -33 17 -40 18 -40
7z"/>
<path d="M147 178 c33 -60 63 -77 63 -38 0 25 -42 70 -65 70 -14 0 -14 -4 2
-32z"/>
</g>
</svg>
