<?xml version="1.0" standalone="no"?>
<!DOCTYPE svg PUBLIC "-//W3C//DTD SVG 20010904//EN"
 "http://www.w3.org/TR/2001/REC-SVG-20010904/DTD/svg10.dtd">
<svg version="1.0" xmlns="http://www.w3.org/2000/svg"
 width="96.000000pt" height="68.000000pt" viewBox="0 0 96.000000 68.000000"
 preserveAspectRatio="xMidYMid meet">
<metadata>
Created by potrace 1.16, written by Peter Selinger 2001-2019
</metadata>
<g transform="translate(0.000000,68.000000) scale(0.100000,-0.100000)"
fill="#000000" stroke="none">
<path d="M407 517 c2 -155 0 -147 23 -147 29 0 38 33 41 145 2 102 -3 115 -46
115 -19 0 -20 -6 -18 -113z"/>
<path d="M250 502 c-15 -39 -40 -84 -63 -109 -16 -18 -17 -23 -5 -23 18 0 83
46 118 84 27 30 21 53 -18 67 -19 7 -24 4 -32 -19z"/>
<path d="M596 473 c64 -78 80 -89 94 -64 5 11 10 26 10 34 0 28 -87 87 -130
87 -17 0 -14 -8 26 -57z"/>
<path d="M394 316 c8 -42 7 -42 -131 -52 -57 -3 -103 -10 -103 -14 0 -3 11
-12 23 -19 18 -10 37 -10 82 -2 32 6 74 11 92 11 30 0 33 -2 24 -19 -27 -50
-157 -141 -202 -141 -10 0 -21 -5 -25 -12 -12 -18 77 -2 137 26 66 31 90 50
126 108 l28 45 55 -62 c30 -34 73 -76 96 -93 38 -30 46 -32 122 -32 48 0 82 4
82 10 0 6 -7 10 -15 10 -35 0 -173 62 -224 100 -29 22 -61 45 -70 50 -34 20
12 31 118 28 111 -3 143 10 77 32 -31 10 -58 9 -184 -6 -41 -5 -43 -4 -37 19
6 21 2 26 -26 36 -48 17 -52 14 -45 -23z"/>
</g>
</svg>
