<?xml version="1.0" standalone="no"?>
<!DOCTYPE svg PUBLIC "-//W3C//DTD SVG 20010904//EN"
 "http://www.w3.org/TR/2001/REC-SVG-20010904/DTD/svg10.dtd">
<svg version="1.0" xmlns="http://www.w3.org/2000/svg"
 width="90.000000pt" height="92.000000pt" viewBox="0 0 90.000000 92.000000"
 preserveAspectRatio="xMidYMid meet">
<metadata>
Created by potrace 1.16, written by Peter Selinger 2001-2019
</metadata>
<g transform="translate(0.000000,92.000000) scale(0.100000,-0.100000)"
fill="#000000" stroke="none">
<path d="M635 824 c-8 -20 -15 -39 -15 -42 0 -3 -11 -20 -26 -39 -14 -18 -22
-33 -18 -33 3 0 37 21 75 46 60 40 68 48 59 65 -9 17 -40 39 -54 39 -3 0 -13
-16 -21 -36z"/>
<path d="M400 809 c0 -13 70 -109 81 -109 18 0 31 42 21 65 -11 23 -102 63
-102 44z"/>
<path d="M217 793 c-4 -3 -7 -16 -7 -28 0 -33 -65 -156 -99 -189 -26 -25 -28
-31 -19 -52 13 -28 23 -29 73 -8 20 8 39 13 42 10 7 -6 -83 -123 -103 -134
-13 -7 -14 -13 -5 -31 15 -27 29 -27 83 4 24 13 63 31 86 39 40 14 42 14 53
-6 11 -21 12 -21 25 -3 8 10 14 27 14 36 0 21 -46 59 -72 59 -17 0 -17 -2 -3
-24 15 -23 15 -23 -46 -45 -33 -13 -63 -20 -66 -17 -3 3 28 45 69 93 41 48 77
93 81 99 4 7 -3 24 -15 39 l-22 28 -22 -51 c-20 -46 -25 -50 -64 -57 -23 -4
-44 -5 -47 -2 -3 3 25 49 62 102 l67 97 -23 24 c-24 25 -31 28 -42 17z"/>
<path d="M640 689 c-41 -11 -123 -22 -182 -26 -106 -6 -118 -9 -98 -29 5 -5
15 -48 21 -94 7 -47 16 -90 21 -96 5 -8 23 -9 51 -4 94 17 229 23 237 10 16
-27 38 1 70 89 18 50 37 94 41 97 18 10 8 24 -34 49 -24 14 -46 25 -48 24 -2
-1 -38 -10 -79 -20z m80 -67 c0 -16 -7 -51 -15 -78 l-14 -49 -61 -2 -60 -2 0
74 c0 84 -2 82 93 84 56 1 57 1 57 -27z m-192 -69 l3 -73 -35 0 c-19 0 -41 -3
-49 -6 -12 -4 -16 7 -21 48 -4 29 -9 66 -12 81 l-6 28 59 -3 58 -3 3 -72z"/>
<path d="M629 564 c-24 -51 -25 -53 -5 -39 12 9 33 23 48 33 30 19 34 32 16
50 -21 21 -32 12 -59 -44z"/>
<path d="M440 583 c0 -5 9 -23 20 -41 16 -27 24 -31 34 -22 18 14 14 39 -9 56
-20 15 -45 19 -45 7z"/>
<path d="M555 388 c-38 -10 -81 -17 -95 -14 l-25 5 1 -130 c0 -88 4 -133 13
-142 9 -9 14 -9 19 0 4 7 28 15 52 18 25 3 57 8 71 10 22 3 29 -1 39 -26 16
-39 40 -34 62 11 15 30 16 45 7 104 -7 46 -8 81 -1 107 9 37 8 40 -18 59 -33
23 -33 23 -125 -2z m89 -44 c3 -9 6 -27 6 -40 0 -21 -4 -24 -32 -22 -18 1 -57
-2 -85 -7 l-53 -8 0 37 c0 31 4 36 28 42 15 3 32 7 37 9 6 2 29 4 51 4 30 1
44 -4 48 -15z m6 -121 c0 -36 -10 -48 -40 -49 -14 -1 -50 -5 -80 -9 l-56 -7 4
40 4 41 62 4 c33 2 71 4 84 5 18 2 22 -3 22 -25z"/>
<path d="M280 352 c0 -18 46 -77 60 -77 22 0 24 39 3 57 -22 19 -63 33 -63 20z"/>
<path d="M209 272 c26 -51 49 -70 57 -48 10 27 -4 62 -31 74 -42 19 -47 14
-26 -26z"/>
<path d="M90 264 c0 -3 12 -30 27 -60 29 -60 56 -69 61 -21 2 20 -5 36 -27 57
-26 26 -61 40 -61 24z"/>
</g>
</svg>
