<?xml version="1.0" standalone="no"?>
<!DOCTYPE svg PUBLIC "-//W3C//DTD SVG 20010904//EN"
 "http://www.w3.org/TR/2001/REC-SVG-20010904/DTD/svg10.dtd">
<svg version="1.0" xmlns="http://www.w3.org/2000/svg"
 width="96.000000pt" height="68.000000pt" viewBox="0 0 96.000000 68.000000"
 preserveAspectRatio="xMidYMid meet">
<metadata>
Created by potrace 1.16, written by Peter Selinger 2001-2019
</metadata>
<g transform="translate(0.000000,68.000000) scale(0.100000,-0.100000)"
fill="#000000" stroke="none">
<path d="M581 528 c22 -71 21 -73 -55 -82 -139 -17 -138 -17 -122 -35 9 -10
14 -38 14 -78 0 -67 -6 -73 -73 -73 -29 0 -29 0 -8 -15 19 -13 20 -19 12 -45
-6 -16 -9 -37 -7 -47 4 -16 5 -16 16 3 6 12 12 37 14 57 1 25 8 37 20 40 10 3
20 2 22 -2 9 -15 -22 -124 -44 -153 -31 -42 -19 -44 18 -3 40 43 62 123 62
220 0 41 5 78 13 88 8 11 34 19 78 23 74 7 64 18 95 -96 8 -30 21 -69 29 -87
22 -46 19 -57 -30 -118 -54 -66 -40 -73 23 -10 25 25 46 44 47 43 45 -76 73
-112 97 -124 37 -19 53 -8 39 27 -5 13 -14 40 -19 59 l-10 35 -7 -32 c-4 -18
-11 -33 -15 -33 -11 0 -36 31 -54 67 -15 30 -15 35 5 85 11 29 27 64 36 77 14
22 14 25 -3 38 -20 14 -40 12 -37 -5 4 -16 -27 -112 -36 -112 -10 0 -38 91
-46 153 l-7 47 45 0 c84 0 66 25 -23 32 -32 3 -35 6 -38 38 -5 70 -10 80 -41
80 l-29 0 19 -62z"/>
<path d="M710 543 c0 -13 53 -63 67 -63 27 0 13 38 -21 54 -38 18 -46 19 -46
9z"/>
<path d="M172 513 c-39 -4 -42 -6 -35 -26 4 -12 7 -70 5 -129 -4 -118 2 -152
24 -144 9 3 14 -1 14 -12 0 -17 -16 -45 -59 -102 -22 -29 -22 -31 -4 -21 12 6
41 34 66 63 39 45 43 54 30 64 -13 9 -10 12 18 18 25 5 37 2 45 -9 22 -30 32
9 36 152 4 116 2 143 -10 148 -14 5 -53 5 -130 -2z m92 -39 c11 -30 6 -54 -11
-54 -10 0 -28 -3 -40 -6 -21 -6 -23 -3 -23 29 0 19 6 38 13 40 25 11 55 6 61
-9z m6 -108 c0 -18 -7 -25 -31 -30 -49 -9 -59 -7 -59 12 0 27 20 42 57 42 28
0 33 -4 33 -24z m0 -85 c0 -31 -14 -41 -61 -41 -25 0 -29 4 -29 29 0 32 9 39
58 40 29 1 32 -2 32 -28z"/>
<path d="M346 363 c-7 -56 0 -67 34 -48 20 12 21 14 7 15 -15 0 -18 7 -15 37
5 55 -18 52 -26 -4z"/>
<path d="M530 361 c-14 -4 -32 -7 -40 -6 -13 2 -16 -13 -17 -89 -1 -50 -3
-102 -5 -116 -2 -18 1 -24 12 -21 8 2 45 6 83 9 37 2 67 8 67 13 0 9 -22 13
-47 10 -8 -1 -13 9 -13 24 0 15 6 25 15 25 14 0 50 68 41 78 -3 2 -16 5 -30 6
-21 1 -26 6 -26 29 0 21 5 27 21 27 11 0 17 5 14 10 -7 11 -39 12 -75 1z m14
-43 c-1 -13 -3 -26 -3 -30 -1 -5 -10 -8 -21 -8 -16 0 -20 7 -20 30 0 25 4 30
23 30 19 0 23 -5 21 -22z m46 -62 c0 -19 -7 -23 -53 -31 -33 -6 -37 -5 -37 13
0 23 12 30 58 31 21 1 32 -4 32 -13z m-50 -76 c0 -23 -4 -30 -20 -30 -26 0
-28 46 -2 53 9 3 18 5 20 6 1 0 2 -12 2 -29z"/>
<path d="M250 193 c0 -16 33 -73 43 -73 16 0 5 38 -18 60 -14 13 -25 19 -25
13z"/>
</g>
</svg>
