<?xml version="1.0" standalone="no"?>
<!DOCTYPE svg PUBLIC "-//W3C//DTD SVG 20010904//EN"
 "http://www.w3.org/TR/2001/REC-SVG-20010904/DTD/svg10.dtd">
<svg version="1.0" xmlns="http://www.w3.org/2000/svg"
 width="96.000000pt" height="68.000000pt" viewBox="0 0 96.000000 68.000000"
 preserveAspectRatio="xMidYMid meet">
<metadata>
Created by potrace 1.16, written by Peter Selinger 2001-2019
</metadata>
<g transform="translate(0.000000,68.000000) scale(0.100000,-0.100000)"
fill="#000000" stroke="none">
<path d="M535 434 c-33 -9 -77 -13 -98 -10 -36 4 -38 3 -33 -17 3 -12 8 -68
12 -124 6 -91 9 -103 25 -103 16 0 19 8 19 49 l0 48 69 12 c39 6 75 11 80 11
6 0 11 -21 11 -49 0 -28 4 -52 8 -55 22 -13 34 17 42 105 4 52 11 101 14 110
5 10 -1 19 -19 27 -32 15 -55 14 -130 -4z m85 -36 c0 -19 -6 -23 -32 -23 -18
-1 -54 -5 -80 -9 -44 -8 -48 -7 -48 12 0 17 8 22 38 27 20 4 44 8 52 10 8 1
27 3 43 4 22 1 27 -3 27 -21z m0 -57 c0 -14 -10 -19 -47 -24 -27 -3 -63 -9
-80 -13 -29 -6 -33 -4 -33 14 0 16 10 21 58 30 90 15 102 14 102 -7z"/>
</g>
</svg>
