<?xml version="1.0" standalone="no"?>
<!DOCTYPE svg PUBLIC "-//W3C//DTD SVG 20010904//EN"
 "http://www.w3.org/TR/2001/REC-SVG-20010904/DTD/svg10.dtd">
<svg version="1.0" xmlns="http://www.w3.org/2000/svg"
 width="96.000000pt" height="68.000000pt" viewBox="0 0 96.000000 68.000000"
 preserveAspectRatio="xMidYMid meet">
<metadata>
Created by potrace 1.16, written by Peter Selinger 2001-2019
</metadata>
<g transform="translate(0.000000,68.000000) scale(0.100000,-0.100000)"
fill="#000000" stroke="none">
<path d="M306 558 c-11 -62 -71 -153 -157 -240 -52 -53 -24 -47 49 10 38 29
80 76 112 125 28 42 53 77 56 77 2 0 21 -9 41 -20 39 -21 73 -26 73 -11 0 16
-26 30 -66 37 -28 4 -43 13 -50 27 -5 12 -19 23 -30 25 -17 2 -23 -3 -28 -30z"/>
</g>
</svg>
