<?xml version="1.0" standalone="no"?>
<!DOCTYPE svg PUBLIC "-//W3C//DTD SVG 20010904//EN"
 "http://www.w3.org/TR/2001/REC-SVG-20010904/DTD/svg10.dtd">
<svg version="1.0" xmlns="http://www.w3.org/2000/svg"
 width="96.000000pt" height="68.000000pt" viewBox="0 0 96.000000 68.000000"
 preserveAspectRatio="xMidYMid meet">
<metadata>
Created by potrace 1.16, written by Peter Selinger 2001-2019
</metadata>
<g transform="translate(0.000000,68.000000) scale(0.100000,-0.100000)"
fill="#000000" stroke="none">
<path d="M467 263 c3 -10 11 -24 17 -32 8 -11 8 -13 0 -8 -7 4 -11 -11 -13
-44 -1 -32 2 -48 9 -44 5 3 10 2 10 -4 0 -5 -6 -12 -12 -14 -10 -4 -10 -6 0
-6 7 -1 10 -5 7 -11 -8 -13 56 -51 77 -44 9 2 19 1 22 -4 5 -9 77 -7 136 2 14
3 33 5 44 5 13 1 16 6 12 17 -5 14 -4 15 8 5 11 -9 15 -8 20 4 7 20 -4 46 -17
38 -6 -3 -7 -1 -3 6 9 14 -2 53 -14 46 -12 -8 -18 -53 -8 -63 6 -6 5 -13 -3
-17 -8 -5 -10 -4 -5 3 4 7 2 12 -3 12 -6 0 -11 -4 -11 -10 0 -5 -8 -10 -17
-11 -15 0 -15 -2 2 -8 12 -5 -21 -7 -78 -6 -124 4 -144 15 -149 84 -1 28 1 47
6 43 5 -3 7 4 4 16 -3 12 -1 23 6 25 17 6 -12 37 -35 37 -13 0 -17 -5 -12 -17z"/>
</g>
</svg>
