<?xml version="1.0" standalone="no"?>
<!DOCTYPE svg PUBLIC "-//W3C//DTD SVG 20010904//EN"
 "http://www.w3.org/TR/2001/REC-SVG-20010904/DTD/svg10.dtd">
<svg version="1.0" xmlns="http://www.w3.org/2000/svg"
 width="96.000000pt" height="68.000000pt" viewBox="0 0 96.000000 68.000000"
 preserveAspectRatio="xMidYMid meet">
<metadata>
Created by potrace 1.16, written by Peter Selinger 2001-2019
</metadata>
<g transform="translate(0.000000,68.000000) scale(0.100000,-0.100000)"
fill="#000000" stroke="none">
<path d="M703 465 c-17 -13 -17 -14 0 -15 27 0 22 -46 -8 -66 -14 -9 -32 -14
-40 -10 -20 7 -19 -4 4 -33 18 -24 19 -24 46 -7 14 9 36 38 48 64 11 26 23 50
25 53 1 4 -10 11 -27 17 -22 8 -34 7 -48 -3z"/>
</g>
</svg>
