<?xml version="1.0" standalone="no"?>
<!DOCTYPE svg PUBLIC "-//W3C//DTD SVG 20010904//EN"
 "http://www.w3.org/TR/2001/REC-SVG-20010904/DTD/svg10.dtd">
<svg version="1.0" xmlns="http://www.w3.org/2000/svg"
 width="96.000000pt" height="68.000000pt" viewBox="0 0 96.000000 68.000000"
 preserveAspectRatio="xMidYMid meet">
<metadata>
Created by potrace 1.16, written by Peter Selinger 2001-2019
</metadata>
<g transform="translate(0.000000,68.000000) scale(0.100000,-0.100000)"
fill="#000000" stroke="none">
<path d="M214 554 c4 -16 10 -54 13 -85 l5 -57 -61 -7 c-88 -10 -78 -35 15
-35 l44 0 0 -42 0 -43 -73 -29 c-87 -36 -83 -32 -67 -51 19 -22 59 -18 96 10
38 29 42 23 36 -53 l-4 -54 -34 7 c-41 7 -42 1 -6 -33 57 -54 58 -54 76 -37
13 13 16 38 16 118 0 98 1 102 28 123 30 25 25 42 -7 24 -18 -9 -21 -8 -21 12
0 47 11 67 39 70 35 4 34 32 -1 36 -32 4 -35 21 -16 84 14 46 6 56 -47 65 -38
6 -38 6 -31 -23z"/>
<path d="M585 412 c0 -164 -11 -204 -73 -271 -40 -42 -41 -56 -2 -36 30 16 90
88 90 109 0 6 5 18 10 26 11 17 20 6 78 -90 40 -67 56 -80 98 -80 48 0 67 9
53 26 -6 8 -17 14 -23 14 -22 1 -121 81 -156 126 l-35 46 8 130 c5 71 7 131 5
132 -1 2 -14 6 -28 9 l-25 6 0 -147z"/>
<path d="M430 532 c0 -13 -31 -45 -62 -65 -16 -10 -28 -23 -28 -30 0 -8 2 -9
8 -1 4 6 17 14 28 18 17 5 23 2 28 -16 15 -56 9 -65 -46 -74 l-53 -8 48 -4
c44 -3 47 -5 41 -25 -8 -26 -45 -79 -87 -124 -19 -21 -26 -33 -17 -33 8 0 38
25 67 56 29 31 53 50 53 42 -1 -7 -5 -47 -10 -88 -9 -82 -5 -120 15 -120 18 0
25 34 25 134 l0 89 21 -27 c15 -18 25 -24 32 -17 15 15 1 40 -28 51 -36 14
-35 57 3 66 54 12 62 16 56 26 -4 5 -22 8 -40 6 -32 -4 -34 -2 -34 25 0 17 -7
35 -16 42 -15 10 -12 15 21 35 35 22 36 24 19 37 -20 15 -44 17 -44 5z"/>
<path d="M681 367 c-22 -30 -41 -57 -41 -61 0 -5 102 59 129 80 7 6 -21 34
-34 34 -7 0 -31 -24 -54 -53z"/>
<path d="M505 350 c-7 -12 20 -60 34 -60 12 0 23 29 15 41 -10 17 -42 30 -49
19z"/>
</g>
</svg>
