<?xml version="1.0" standalone="no"?>
<!DOCTYPE svg PUBLIC "-//W3C//DTD SVG 20010904//EN"
 "http://www.w3.org/TR/2001/REC-SVG-20010904/DTD/svg10.dtd">
<svg version="1.0" xmlns="http://www.w3.org/2000/svg"
 width="96.000000pt" height="68.000000pt" viewBox="0 0 96.000000 68.000000"
 preserveAspectRatio="xMidYMid meet">
<metadata>
Created by potrace 1.16, written by Peter Selinger 2001-2019
</metadata>
<g transform="translate(0.000000,68.000000) scale(0.100000,-0.100000)"
fill="#000000" stroke="none">
<path d="M721 571 c12 -34 8 -445 -4 -457 -4 -4 -23 -2 -44 4 l-36 11 34 -36
c19 -20 39 -43 46 -50 18 -20 31 -16 48 17 12 23 15 68 15 207 1 162 6 217 25
279 5 18 0 25 -26 38 -17 9 -40 16 -50 16 -16 0 -17 -4 -8 -29z"/>
<path d="M435 542 c-3 -3 -5 -16 -5 -29 0 -39 -20 -106 -39 -132 l-18 -23 -68
41 c-70 42 -85 48 -85 33 0 -8 8 -16 92 -89 l38 -32 -43 -41 c-23 -22 -71 -57
-107 -78 -43 -24 -59 -38 -47 -40 39 -8 156 51 212 106 20 20 20 20 72 -30 34
-34 57 -49 67 -45 29 11 17 48 -29 95 -42 41 -60 73 -33 56 6 -4 8 -3 4 4 -3
6 4 26 16 44 13 18 32 53 42 76 18 40 18 43 2 61 -17 19 -61 33 -71 23z"/>
<path d="M588 381 c2 -43 0 -87 -6 -97 -12 -21 4 -64 24 -64 16 0 23 40 26
150 3 84 3 85 -22 88 l-25 3 3 -80z"/>
</g>
</svg>
