<?xml version="1.0" standalone="no"?>
<!DOCTYPE svg PUBLIC "-//W3C//DTD SVG 20010904//EN"
 "http://www.w3.org/TR/2001/REC-SVG-20010904/DTD/svg10.dtd">
<svg version="1.0" xmlns="http://www.w3.org/2000/svg"
 width="96.000000pt" height="68.000000pt" viewBox="0 0 96.000000 68.000000"
 preserveAspectRatio="xMidYMid meet">
<metadata>
Created by potrace 1.16, written by Peter Selinger 2001-2019
</metadata>
<g transform="translate(0.000000,68.000000) scale(0.100000,-0.100000)"
fill="#000000" stroke="none">
<path d="M563 482 c-13 -2 -23 -10 -23 -18 0 -8 -18 -34 -40 -58 -70 -76 -54
-85 85 -51 l106 26 19 -23 c17 -20 21 -21 29 -8 12 18 -4 45 -42 74 -27 20
-50 15 -29 -6 7 -7 12 -15 12 -19 0 -9 -149 -33 -158 -25 -4 4 12 24 36 45 54
48 56 72 5 63z"/>
</g>
</svg>
