<?xml version="1.0" standalone="no"?>
<!DOCTYPE svg PUBLIC "-//W3C//DTD SVG 20010904//EN"
 "http://www.w3.org/TR/2001/REC-SVG-20010904/DTD/svg10.dtd">
<svg version="1.0" xmlns="http://www.w3.org/2000/svg"
 width="96.000000pt" height="68.000000pt" viewBox="0 0 96.000000 68.000000"
 preserveAspectRatio="xMidYMid meet">
<metadata>
Created by potrace 1.16, written by Peter Selinger 2001-2019
</metadata>
<g transform="translate(0.000000,68.000000) scale(0.100000,-0.100000)"
fill="#000000" stroke="none">
<path d="M313 520 c-12 -5 -49 -12 -83 -16 -73 -8 -90 -24 -26 -24 42 0 46 -2
46 -23 0 -36 -53 -134 -110 -204 -28 -35 -47 -63 -41 -63 5 0 34 23 65 50 58
54 151 201 142 225 -5 15 5 19 67 30 23 4 37 11 34 18 -4 15 -64 19 -94 7z"/>
</g>
</svg>
