<?xml version="1.0" standalone="no"?>
<!DOCTYPE svg PUBLIC "-//W3C//DTD SVG 20010904//EN"
 "http://www.w3.org/TR/2001/REC-SVG-20010904/DTD/svg10.dtd">
<svg version="1.0" xmlns="http://www.w3.org/2000/svg"
 width="96.000000pt" height="68.000000pt" viewBox="0 0 96.000000 68.000000"
 preserveAspectRatio="xMidYMid meet">
<metadata>
Created by potrace 1.16, written by Peter Selinger 2001-2019
</metadata>
<g transform="translate(0.000000,68.000000) scale(0.100000,-0.100000)"
fill="#000000" stroke="none">
<path d="M268 317 c-57 -12 -65 -28 -48 -98 12 -48 22 -60 35 -39 3 6 32 10
63 10 l57 0 1 40 c1 22 7 47 14 55 34 41 -18 55 -122 32z m68 -38 c1 -14 -3
-35 -7 -48 -7 -18 -15 -22 -41 -19 -31 3 -33 6 -36 45 -3 40 -2 42 30 46 48 5
53 3 54 -24z"/>
</g>
</svg>
