<?xml version="1.0" standalone="no"?>
<!DOCTYPE svg PUBLIC "-//W3C//DTD SVG 20010904//EN"
 "http://www.w3.org/TR/2001/REC-SVG-20010904/DTD/svg10.dtd">
<svg version="1.0" xmlns="http://www.w3.org/2000/svg"
 width="96.000000pt" height="68.000000pt" viewBox="0 0 96.000000 68.000000"
 preserveAspectRatio="xMidYMid meet">
<metadata>
Created by potrace 1.16, written by Peter Selinger 2001-2019
</metadata>
<g transform="translate(0.000000,68.000000) scale(0.100000,-0.100000)"
fill="#000000" stroke="none">
<path d="M499 544 c12 -20 20 -38 18 -40 -2 -2 -57 -11 -123 -20 -65 -8 -121
-18 -124 -20 -3 -3 3 -11 13 -18 25 -19 23 -119 -4 -193 -26 -68 -81 -155
-117 -183 -35 -28 -19 -38 24 -15 79 43 146 160 170 299 8 44 19 83 25 87 10
6 76 14 288 36 74 8 102 25 61 38 -28 9 -79 9 -119 0 -27 -6 -31 -4 -31 14 0
26 -36 51 -73 51 l-29 0 21 -36z"/>
<path d="M150 409 c0 -6 12 -26 27 -45 18 -24 33 -34 47 -32 32 5 33 43 1 64
-31 20 -75 27 -75 13z"/>
<path d="M535 374 c-38 -7 -85 -13 -102 -13 -18 -1 -33 -6 -33 -12 0 -8 18
-10 55 -7 33 3 59 0 64 -6 5 -6 11 -59 14 -118 l6 -108 -47 0 -47 0 -3 67 c-2
38 -4 68 -5 69 -1 1 -13 5 -26 9 -21 6 -23 5 -18 -16 3 -13 9 -50 12 -81 l7
-58 -61 0 c-61 0 -82 -14 -38 -26 13 -3 101 -1 195 5 94 6 205 11 247 11 76 0
93 10 54 31 -15 8 -54 9 -126 4 l-104 -7 3 53 3 54 68 3 c53 2 67 6 67 19 0
14 -10 15 -69 9 l-70 -6 2 55 c2 54 3 55 32 55 48 0 105 12 105 21 0 13 -103
9 -185 -7z"/>
<path d="M215 285 c-22 -14 -57 -30 -77 -37 -39 -12 -47 -25 -26 -46 23 -23
50 -12 99 41 27 28 49 55 49 60 0 10 1 10 -45 -18z"/>
</g>
</svg>
