<?xml version="1.0" standalone="no"?>
<!DOCTYPE svg PUBLIC "-//W3C//DTD SVG 20010904//EN"
 "http://www.w3.org/TR/2001/REC-SVG-20010904/DTD/svg10.dtd">
<svg version="1.0" xmlns="http://www.w3.org/2000/svg"
 width="96.000000pt" height="68.000000pt" viewBox="0 0 96.000000 68.000000"
 preserveAspectRatio="xMidYMid meet">
<metadata>
Created by potrace 1.16, written by Peter Selinger 2001-2019
</metadata>
<g transform="translate(0.000000,68.000000) scale(0.100000,-0.100000)"
fill="#000000" stroke="none">
<path d="M170 503 c0 -15 55 -63 72 -63 26 0 23 35 -4 54 -23 16 -68 22 -68 9z"/>
<path d="M105 370 c-6 -10 52 -60 71 -60 16 0 19 36 4 45 -22 14 -70 23 -75
15z"/>
<path d="M192 241 c-17 -26 -45 -62 -63 -79 -30 -28 -32 -32 -19 -61 7 -17 18
-31 25 -31 7 0 27 37 45 82 34 87 51 138 45 138 -2 0 -17 -22 -33 -49z"/>
</g>
</svg>
