<?xml version="1.0" standalone="no"?>
<!DOCTYPE svg PUBLIC "-//W3C//DTD SVG 20010904//EN"
 "http://www.w3.org/TR/2001/REC-SVG-20010904/DTD/svg10.dtd">
<svg version="1.0" xmlns="http://www.w3.org/2000/svg"
 width="96.000000pt" height="68.000000pt" viewBox="0 0 96.000000 68.000000"
 preserveAspectRatio="xMidYMid meet">
<metadata>
Created by potrace 1.16, written by Peter Selinger 2001-2019
</metadata>
<g transform="translate(0.000000,68.000000) scale(0.100000,-0.100000)"
fill="#000000" stroke="none">
<path d="M570 571 c0 -4 9 -20 20 -34 11 -14 20 -27 20 -30 0 -3 -36 -8 -81
-12 -56 -5 -78 -10 -70 -18 7 -7 63 -4 180 9 107 11 167 22 162 27 -12 12 -54
14 -108 4 -39 -6 -43 -5 -43 12 0 11 -10 27 -22 35 -24 17 -58 21 -58 7z"/>
</g>
</svg>
