<?xml version="1.0" standalone="no"?>
<!DOCTYPE svg PUBLIC "-//W3C//DTD SVG 20010904//EN"
 "http://www.w3.org/TR/2001/REC-SVG-20010904/DTD/svg10.dtd">
<svg version="1.0" xmlns="http://www.w3.org/2000/svg"
 width="96.000000pt" height="68.000000pt" viewBox="0 0 96.000000 68.000000"
 preserveAspectRatio="xMidYMid meet">
<metadata>
Created by potrace 1.16, written by Peter Selinger 2001-2019
</metadata>
<g transform="translate(0.000000,68.000000) scale(0.100000,-0.100000)"
fill="#000000" stroke="none">
<path d="M548 240 c-5 -16 -195 -25 -213 -10 -30 25 -57 -5 -36 -39 7 -11 13
-12 23 -4 7 6 53 11 102 12 49 1 93 4 98 7 5 3 17 -1 27 -10 20 -18 33 -10 45
32 6 19 4 22 -17 22 -14 0 -27 -4 -29 -10z"/>
</g>
</svg>
