<?xml version="1.0" standalone="no"?>
<!DOCTYPE svg PUBLIC "-//W3C//DTD SVG 20010904//EN"
 "http://www.w3.org/TR/2001/REC-SVG-20010904/DTD/svg10.dtd">
<svg version="1.0" xmlns="http://www.w3.org/2000/svg"
 width="96.000000pt" height="68.000000pt" viewBox="0 0 96.000000 68.000000"
 preserveAspectRatio="xMidYMid meet">
<metadata>
Created by potrace 1.16, written by Peter Selinger 2001-2019
</metadata>
<g transform="translate(0.000000,68.000000) scale(0.100000,-0.100000)"
fill="#000000" stroke="none">
<path d="M511 606 c-5 -19 -23 -55 -41 -81 -18 -25 -30 -49 -27 -52 7 -6 48
15 69 37 12 13 41 19 107 24 89 7 117 19 90 38 -14 9 -101 4 -136 -8 -15 -6
-16 -4 -5 7 18 19 15 47 -7 59 -31 16 -39 12 -50 -24z"/>
<path d="M273 589 c-2 -27 -47 -95 -86 -131 -50 -48 -3 -33 75 24 15 10 22 8
46 -15 30 -29 56 -35 68 -15 10 15 -24 38 -58 38 -57 0 -26 17 42 23 38 3 78
10 87 16 16 8 15 11 -11 21 -16 6 -37 8 -47 5 -11 -3 -28 -8 -39 -11 -18 -5
-20 -2 -15 19 5 19 2 28 -13 36 -31 17 -48 13 -49 -10z"/>
<path d="M550 502 c0 -17 47 -52 68 -52 31 0 29 34 -3 48 -30 14 -65 16 -65 4z"/>
<path d="M533 450 c-10 -9 -149 -30 -201 -30 l-37 0 1 -108 c0 -117 6 -141 30
-121 22 18 28 3 14 -30 -14 -36 -82 -93 -142 -122 l-43 -20 40 6 c81 13 212
117 199 157 -5 17 -1 19 28 16 l33 -3 5 -65 c3 -36 10 -72 15 -81 27 -44 211
-55 290 -18 25 12 45 24 45 26 0 16 -24 83 -30 83 -3 0 -13 -15 -21 -32 -8
-18 -25 -38 -39 -45 -32 -16 -161 -17 -195 -1 -25 11 -26 15 -19 53 4 22 8 52
8 68 1 31 4 32 33 12 36 -25 46 2 48 124 2 107 1 108 -26 123 -15 9 -31 12
-36 8z m5 -61 c3 -25 1 -26 -70 -32 -40 -3 -85 -9 -100 -12 -25 -5 -28 -3 -28
23 0 28 3 30 63 39 34 6 78 10 97 9 30 -1 35 -5 38 -27z m12 -68 c0 -15 -11
-19 -77 -25 -43 -3 -90 -9 -105 -11 -24 -5 -28 -2 -28 19 0 24 3 25 68 29 37
2 84 4 105 5 30 2 37 -1 37 -17z m0 -60 c0 -29 -10 -32 -120 -38 -96 -6 -99
-5 -97 16 1 11 4 21 7 22 3 0 36 3 74 5 39 2 72 7 75 9 2 3 17 5 33 5 21 0 28
-5 28 -19z"/>
</g>
</svg>
