<?xml version="1.0" standalone="no"?>
<!DOCTYPE svg PUBLIC "-//W3C//DTD SVG 20010904//EN"
 "http://www.w3.org/TR/2001/REC-SVG-20010904/DTD/svg10.dtd">
<svg version="1.0" xmlns="http://www.w3.org/2000/svg"
 width="96.000000pt" height="68.000000pt" viewBox="0 0 96.000000 68.000000"
 preserveAspectRatio="xMidYMid meet">
<metadata>
Created by potrace 1.16, written by Peter Selinger 2001-2019
</metadata>
<g transform="translate(0.000000,68.000000) scale(0.100000,-0.100000)"
fill="#000000" stroke="none">
<path d="M251 331 c-22 -26 -65 -67 -96 -91 -31 -24 -54 -45 -51 -47 7 -8 100
46 144 83 l42 37 0 -57 c0 -32 -5 -77 -11 -102 -9 -34 -8 -51 1 -74 22 -53 35
-29 37 71 2 52 5 104 8 117 l6 23 26 -21 c17 -13 30 -17 36 -11 16 16 -1 41
-33 47 -44 9 -57 30 -35 54 18 19 17 20 -8 20 -18 0 -37 -14 -66 -49z"/>
</g>
</svg>
