<?xml version="1.0" standalone="no"?>
<!DOCTYPE svg PUBLIC "-//W3C//DTD SVG 20010904//EN"
 "http://www.w3.org/TR/2001/REC-SVG-20010904/DTD/svg10.dtd">
<svg version="1.0" xmlns="http://www.w3.org/2000/svg"
 width="96.000000pt" height="68.000000pt" viewBox="0 0 96.000000 68.000000"
 preserveAspectRatio="xMidYMid meet">
<metadata>
Created by potrace 1.16, written by Peter Selinger 2001-2019
</metadata>
<g transform="translate(0.000000,68.000000) scale(0.100000,-0.100000)"
fill="#000000" stroke="none">
<path d="M445 200 c-8 -16 -37 -50 -62 -75 -26 -25 -43 -45 -37 -45 15 0 94
53 139 93 33 30 37 38 25 47 -27 17 -49 11 -65 -20z"/>
<path d="M620 222 c0 -4 29 -36 64 -71 44 -43 69 -62 80 -58 41 16 -4 78 -82
113 -61 27 -62 27 -62 16z"/>
</g>
</svg>
