<?xml version="1.0" standalone="no"?>
<!DOCTYPE svg PUBLIC "-//W3C//DTD SVG 20010904//EN"
 "http://www.w3.org/TR/2001/REC-SVG-20010904/DTD/svg10.dtd">
<svg version="1.0" xmlns="http://www.w3.org/2000/svg"
 width="96.000000pt" height="68.000000pt" viewBox="0 0 96.000000 68.000000"
 preserveAspectRatio="xMidYMid meet">
<metadata>
Created by potrace 1.16, written by Peter Selinger 2001-2019
</metadata>
<g transform="translate(0.000000,68.000000) scale(0.100000,-0.100000)"
fill="#000000" stroke="none">
<path d="M280 417 c0 -1 4 -16 9 -34 9 -31 9 -31 -37 -39 l-47 -8 45 -6 45 -5
2 -49 c4 -71 -40 -132 -142 -200 -22 -14 -33 -26 -25 -26 22 0 91 38 122 68
35 32 43 25 27 -27 -10 -33 -10 -47 0 -68 12 -27 13 -27 27 -8 8 11 14 43 14
77 0 32 3 58 6 58 3 0 21 -12 39 -26 34 -25 55 -25 55 0 0 14 -37 32 -75 38
-24 4 -29 31 -20 114 l6 62 50 6 c30 4 47 11 43 17 -3 6 -24 7 -50 3 -38 -5
-43 -4 -38 10 8 21 -13 46 -37 46 -11 0 -19 -1 -19 -3z"/>
</g>
</svg>
