<?xml version="1.0" standalone="no"?>
<!DOCTYPE svg PUBLIC "-//W3C//DTD SVG 20010904//EN"
 "http://www.w3.org/TR/2001/REC-SVG-20010904/DTD/svg10.dtd">
<svg version="1.0" xmlns="http://www.w3.org/2000/svg"
 width="90.000000pt" height="92.000000pt" viewBox="0 0 90.000000 92.000000"
 preserveAspectRatio="xMidYMid meet">
<metadata>
Created by potrace 1.16, written by Peter Selinger 2001-2019
</metadata>
<g transform="translate(0.000000,92.000000) scale(0.100000,-0.100000)"
fill="#000000" stroke="none">
<path d="M410 892 c0 -5 13 -33 30 -63 16 -30 30 -57 30 -61 0 -4 -32 -17 -70
-29 -39 -11 -72 -25 -75 -29 -11 -17 29 -19 97 -3 l71 16 21 -29 c73 -102 195
-184 274 -184 41 0 52 23 24 53 -11 12 -31 45 -45 72 l-26 50 -1 -52 c0 -34
-4 -53 -12 -53 -31 0 -102 47 -149 98 l-51 56 44 16 c55 19 70 29 63 41 -9 13
-59 11 -91 -3 -22 -10 -28 -10 -39 5 -7 10 -15 35 -19 56 -4 29 -12 40 -28 45
-32 8 -48 7 -48 -2z"/>
<path d="M600 881 c0 -5 19 -31 43 -57 44 -49 67 -52 67 -11 0 32 -11 44 -53
62 -42 17 -57 19 -57 6z"/>
<path d="M266 848 c-10 -49 -70 -134 -150 -211 l-71 -69 52 26 c29 14 68 39
86 56 19 16 37 30 41 30 11 0 6 -50 -10 -90 -14 -33 -14 -45 -4 -70 14 -34 25
-38 39 -12 8 15 11 14 20 -11 14 -35 14 -104 1 -182 -14 -81 0 -117 41 -108
21 4 29 2 29 -9 0 -17 -102 -118 -140 -138 -14 -7 -20 -15 -13 -17 15 -5 105
40 176 90 58 41 59 41 38 58 -12 10 -21 20 -21 23 0 3 45 6 99 6 82 0 100 -3
105 -16 5 -13 9 -14 21 -4 19 16 24 49 28 202 l3 128 -32 15 c-30 14 -43 13
-153 -6 -75 -13 -134 -19 -157 -14 l-37 6 7 84 c4 53 2 86 -4 90 -6 4 10 32
37 67 l46 61 -27 24 c-36 30 -42 29 -50 -9z m294 -354 c17 -44 13 -52 -27 -52
-21 0 -67 -5 -103 -11 -106 -17 -115 -16 -114 19 0 17 3 32 6 35 5 6 168 32
206 34 15 1 26 -7 32 -25z m10 -108 c0 -33 -1 -33 -42 -35 -24 0 -77 -5 -118
-10 -103 -14 -100 -15 -100 19 0 22 5 30 18 31 18 0 235 26 240 28 1 0 2 -14
2 -33z m0 -98 l0 -33 -130 -3 -130 -3 0 30 0 30 73 4 c39 1 98 4 130 5 l57 2
0 -32z"/>
<path d="M555 113 c51 -53 78 -74 89 -70 43 17 -1 87 -78 123 -87 41 -89 29
-11 -53z"/>
</g>
</svg>
