<?xml version="1.0" standalone="no"?>
<!DOCTYPE svg PUBLIC "-//W3C//DTD SVG 20010904//EN"
 "http://www.w3.org/TR/2001/REC-SVG-20010904/DTD/svg10.dtd">
<svg version="1.0" xmlns="http://www.w3.org/2000/svg"
 width="96.000000pt" height="68.000000pt" viewBox="0 0 96.000000 68.000000"
 preserveAspectRatio="xMidYMid meet">
<metadata>
Created by potrace 1.16, written by Peter Selinger 2001-2019
</metadata>
<g transform="translate(0.000000,68.000000) scale(0.100000,-0.100000)"
fill="#000000" stroke="none">
<path d="M290 418 c-30 -5 -65 -7 -77 -5 -23 4 -33 -8 -13 -15 6 -2 17 -26 24
-53 10 -40 17 -50 32 -48 10 1 52 3 91 5 l73 2 15 54 c9 29 13 57 10 62 -7 12
-80 11 -155 -2z m110 -28 c0 -14 -7 -20 -24 -20 -15 0 -26 7 -29 20 -4 17 0
20 24 20 22 0 29 -5 29 -20z m-92 -7 c-2 -12 -13 -18 -33 -18 -20 0 -31 6 -33
18 -3 14 4 17 33 17 29 0 36 -3 33 -17z m85 -54 c-13 -13 -45 -8 -50 8 -2 6 6
13 19 15 29 5 46 -8 31 -23z m-85 4 c-4 -22 -38 -30 -49 -11 -15 22 -10 28 22
28 24 0 30 -4 27 -17z"/>
</g>
</svg>
