<?xml version="1.0" standalone="no"?>
<!DOCTYPE svg PUBLIC "-//W3C//DTD SVG 20010904//EN"
 "http://www.w3.org/TR/2001/REC-SVG-20010904/DTD/svg10.dtd">
<svg version="1.0" xmlns="http://www.w3.org/2000/svg"
 width="96.000000pt" height="68.000000pt" viewBox="0 0 96.000000 68.000000"
 preserveAspectRatio="xMidYMid meet">
<metadata>
Created by potrace 1.16, written by Peter Selinger 2001-2019
</metadata>
<g transform="translate(0.000000,68.000000) scale(0.100000,-0.100000)"
fill="#000000" stroke="none">
<path d="M543 563 c19 -90 28 -155 24 -167 -3 -7 -23 -17 -44 -22 l-38 -8 49
-6 48 -5 23 -75 c12 -41 24 -81 26 -89 2 -8 -20 -34 -53 -60 -31 -25 -55 -47
-53 -49 5 -5 87 38 108 57 17 15 20 14 34 -4 33 -44 39 -51 71 -78 40 -33 107
-39 99 -9 -3 9 -9 40 -12 67 l-8 50 -11 -32 c-21 -59 -31 -61 -76 -13 -22 24
-40 49 -40 57 0 7 16 36 35 63 39 55 43 75 19 84 -31 12 -44 6 -44 -19 0 -28
-19 -75 -31 -75 -11 0 -51 129 -44 140 3 5 26 12 50 16 43 6 64 19 52 31 -3 3
-27 0 -54 -5 -60 -13 -63 -9 -63 85 0 61 -3 74 -19 83 -37 19 -54 13 -48 -17z"/>
<path d="M660 522 c0 -3 12 -19 27 -34 33 -35 66 -38 61 -6 -2 16 -14 25 -45
34 -24 7 -43 10 -43 6z"/>
</g>
</svg>
