<?xml version="1.0" standalone="no"?>
<!DOCTYPE svg PUBLIC "-//W3C//DTD SVG 20010904//EN"
 "http://www.w3.org/TR/2001/REC-SVG-20010904/DTD/svg10.dtd">
<svg version="1.0" xmlns="http://www.w3.org/2000/svg"
 width="96.000000pt" height="68.000000pt" viewBox="0 0 96.000000 68.000000"
 preserveAspectRatio="xMidYMid meet">
<metadata>
Created by potrace 1.16, written by Peter Selinger 2001-2019
</metadata>
<g transform="translate(0.000000,68.000000) scale(0.100000,-0.100000)"
fill="#000000" stroke="none">
<path d="M430 568 c10 -24 21 -64 25 -89 l7 -46 -81 -7 c-64 -6 -81 -11 -81
-23 0 -13 12 -15 88 -9 l88 7 17 -61 c10 -34 28 -83 42 -109 l24 -48 -51 -39
c-28 -21 -67 -49 -87 -61 -20 -12 -33 -23 -29 -23 16 0 95 35 141 63 l48 29
27 -23 c14 -13 32 -30 40 -37 30 -27 113 -62 148 -62 35 0 36 1 29 28 -4 15
-10 50 -14 77 l-7 50 -12 -42 c-7 -23 -17 -45 -23 -48 -14 -9 -91 31 -123 64
l-28 30 46 60 c25 34 46 67 46 75 0 12 -40 36 -60 36 -6 0 -10 -14 -10 -31 0
-31 -34 -99 -49 -99 -8 0 -63 115 -75 157 -6 19 -1 22 64 33 38 6 70 16 70 21
0 16 -51 22 -96 12 -28 -6 -47 -7 -50 -1 -3 5 -8 39 -10 75 -4 71 -12 83 -56
83 l-27 0 19 -42z"/>
<path d="M655 525 c46 -40 75 -45 75 -14 0 22 -51 49 -92 49 -21 -1 -19 -4 17
-35z"/>
</g>
</svg>
