<?xml version="1.0" standalone="no"?>
<!DOCTYPE svg PUBLIC "-//W3C//DTD SVG 20010904//EN"
 "http://www.w3.org/TR/2001/REC-SVG-20010904/DTD/svg10.dtd">
<svg version="1.0" xmlns="http://www.w3.org/2000/svg"
 width="96.000000pt" height="68.000000pt" viewBox="0 0 96.000000 68.000000"
 preserveAspectRatio="xMidYMid meet">
<metadata>
Created by potrace 1.16, written by Peter Selinger 2001-2019
</metadata>
<g transform="translate(0.000000,68.000000) scale(0.100000,-0.100000)"
fill="#000000" stroke="none">
<path d="M220 484 c-30 -7 -63 -11 -73 -8 -16 5 -18 3 -10 -18 4 -12 8 -71 7
-130 0 -98 1 -108 18 -108 10 0 18 7 18 15 0 9 9 15 24 15 13 0 38 3 55 6 24
5 31 3 31 -10 0 -9 8 -16 19 -16 18 0 20 9 23 121 2 72 -1 124 -7 129 -21 16
-52 17 -105 4z m54 -20 c11 -4 16 -19 16 -45 0 -34 -3 -39 -24 -39 -13 0 -38
-3 -55 -6 l-31 -6 0 45 c0 42 2 46 28 50 47 7 50 7 66 1z m16 -144 c0 -35 -3
-40 -24 -40 -13 0 -38 -3 -55 -6 -31 -6 -31 -6 -31 34 0 44 -6 41 93 50 14 2
17 -6 17 -38z"/>
</g>
</svg>
