<?xml version="1.0" standalone="no"?>
<!DOCTYPE svg PUBLIC "-//W3C//DTD SVG 20010904//EN"
 "http://www.w3.org/TR/2001/REC-SVG-20010904/DTD/svg10.dtd">
<svg version="1.0" xmlns="http://www.w3.org/2000/svg"
 width="90.000000pt" height="92.000000pt" viewBox="0 0 90.000000 92.000000"
 preserveAspectRatio="xMidYMid meet">
<metadata>
Created by potrace 1.16, written by Peter Selinger 2001-2019
</metadata>
<g transform="translate(0.000000,92.000000) scale(0.100000,-0.100000)"
fill="#000000" stroke="none">
<path d="M560 871 c0 -16 -3 -42 -6 -59 -5 -27 -11 -31 -50 -37 -24 -3 -44
-10 -44 -15 0 -13 37 -22 60 -15 20 6 20 6 4 -35 -9 -22 -14 -43 -11 -46 5 -6
62 66 69 87 2 5 40 12 86 16 45 3 85 10 88 14 2 5 -8 15 -24 23 -23 12 -37 13
-71 4 -23 -6 -44 -9 -46 -6 -3 2 1 19 7 36 11 28 10 33 -7 47 -33 24 -55 19
-55 -14z"/>
<path d="M246 861 c-3 -4 4 -25 14 -47 11 -21 20 -43 20 -50 0 -13 -53 -24
-117 -24 -50 0 -53 -7 -18 -40 l26 -24 47 18 c79 30 81 30 92 2 14 -38 33 -33
28 8 -4 32 -1 35 34 45 51 16 49 33 -4 29 -43 -3 -43 -3 -46 34 -3 31 -8 38
-34 47 -37 13 -36 13 -42 2z"/>
<path d="M399 692 c-1 -4 -1 -18 0 -32 2 -41 -12 -51 -89 -62 -65 -10 -71 -12
-55 -24 22 -17 39 -17 84 -4 19 5 36 8 39 6 7 -8 -35 -91 -62 -123 -22 -27
-31 -31 -46 -23 -32 17 -40 11 -40 -29 0 -48 -11 -57 -83 -66 -49 -6 -56 -9
-45 -22 9 -11 24 -13 61 -9 47 7 48 6 42 -16 -16 -51 -50 -104 -98 -155 -59
-63 -45 -69 28 -14 42 32 62 57 96 125 36 71 48 85 72 90 16 3 33 3 38 0 19
-11 1 -144 -25 -179 -11 -15 -18 -16 -45 -7 l-31 11 30 -44 c17 -25 35 -45 40
-45 26 0 58 63 74 146 10 49 22 97 27 106 7 12 2 22 -18 38 -26 20 -38 21 -95
4 -32 -10 0 48 45 81 24 18 53 52 70 85 30 59 43 68 95 69 30 1 32 -1 32 -34
0 -37 -21 -98 -38 -108 -5 -4 -23 -2 -40 2 l-30 9 31 -44 c17 -24 35 -44 39
-44 22 0 58 56 69 108 7 32 18 69 26 84 12 25 11 30 -8 49 -17 17 -29 20 -63
16 -23 -3 -50 -9 -60 -13 -16 -6 -17 -4 -7 13 8 16 7 24 -7 35 -21 18 -52 30
-53 20z"/>
<path d="M574 415 c-1 -25 -5 -50 -11 -56 -6 -6 -36 -13 -67 -16 -31 -3 -56
-10 -56 -15 0 -15 44 -26 74 -17 16 5 31 7 33 5 9 -9 -61 -129 -108 -187 l-52
-62 43 24 c57 32 104 88 148 176 35 69 37 71 80 78 27 4 49 2 55 -4 13 -13 -7
-130 -30 -179 -15 -32 -18 -34 -55 -28 l-39 6 31 -45 c17 -25 35 -45 39 -45 5
0 20 9 34 20 27 22 50 80 66 173 6 31 15 66 21 76 16 30 12 39 -21 57 -26 13
-39 14 -76 4 -53 -13 -59 -10 -42 21 10 20 9 25 -11 41 -39 32 -55 24 -56 -27z"/>
</g>
</svg>
