<?xml version="1.0" standalone="no"?>
<!DOCTYPE svg PUBLIC "-//W3C//DTD SVG 20010904//EN"
 "http://www.w3.org/TR/2001/REC-SVG-20010904/DTD/svg10.dtd">
<svg version="1.0" xmlns="http://www.w3.org/2000/svg"
 width="96.000000pt" height="68.000000pt" viewBox="0 0 96.000000 68.000000"
 preserveAspectRatio="xMidYMid meet">
<metadata>
Created by potrace 1.16, written by Peter Selinger 2001-2019
</metadata>
<g transform="translate(0.000000,68.000000) scale(0.100000,-0.100000)"
fill="#000000" stroke="none">
<path d="M590 628 c0 -53 -10 -66 -56 -73 -49 -7 -51 -25 -2 -25 23 0 29 -4
24 -15 -3 -8 -9 -22 -12 -30 -12 -29 23 -15 49 19 24 31 31 34 102 41 94 8 99
30 8 30 -59 0 -60 0 -50 23 8 18 7 25 -9 37 -29 22 -54 19 -54 -7z"/>
<path d="M308 614 c-4 -3 3 -19 14 -35 12 -16 19 -31 16 -35 -4 -3 -37 -9 -75
-12 -70 -7 -79 -17 -38 -41 20 -13 30 -12 77 3 52 17 53 17 67 -4 18 -27 29
-25 33 8 2 19 9 28 25 30 12 2 27 10 35 19 12 15 9 16 -29 11 -41 -6 -43 -5
-51 25 -7 26 -14 33 -38 35 -16 2 -33 0 -36 -4z"/>
<path d="M450 461 c0 -29 -1 -30 -65 -36 -36 -4 -62 -11 -59 -17 3 -5 29 -6
60 -2 33 4 54 3 54 -3 0 -6 -19 -31 -41 -57 -36 -41 -45 -46 -70 -41 -26 6
-28 4 -31 -27 -2 -20 -9 -34 -18 -35 -62 -8 -90 -15 -85 -24 4 -5 24 -6 46 -3
51 8 50 -19 -3 -80 -10 -11 -18 -22 -18 -26 0 -3 -13 -14 -30 -23 -40 -24 -39
-42 1 -21 39 20 81 62 117 117 33 51 40 57 75 57 32 0 34 -13 11 -89 -15 -50
-17 -53 -45 -49 -16 3 -29 3 -29 1 0 -9 45 -53 55 -53 23 0 46 38 66 110 26
95 22 104 -41 98 -28 -3 -53 -1 -56 3 -2 5 17 25 44 46 27 21 59 54 71 74 19
30 31 38 64 42 53 7 60 2 51 -36 -10 -46 -26 -67 -51 -67 -28 0 -28 -5 -5 -30
30 -32 63 -7 89 70 25 71 28 94 13 85 -5 -3 -16 -3 -22 2 -19 11 -37 12 -44 2
-3 -5 -18 -9 -33 -9 -22 0 -27 4 -27 23 1 16 -5 23 -21 25 -20 3 -23 -1 -23
-27z"/>
<path d="M604 288 l-9 -43 -52 -3 c-29 -2 -53 -8 -53 -13 0 -6 18 -9 42 -7 61
4 59 -16 -8 -90 -31 -35 -54 -65 -51 -69 16 -16 136 108 152 156 4 13 17 20
46 23 57 5 62 -1 54 -65 -8 -64 -31 -92 -70 -85 -30 6 -31 1 -6 -29 42 -50 83
-19 113 84 33 114 33 111 4 119 -14 3 -47 3 -71 -1 -45 -6 -46 -6 -39 19 4 18
1 27 -14 35 -28 15 -27 16 -38 -31z"/>
</g>
</svg>
