<?xml version="1.0" standalone="no"?>
<!DOCTYPE svg PUBLIC "-//W3C//DTD SVG 20010904//EN"
 "http://www.w3.org/TR/2001/REC-SVG-20010904/DTD/svg10.dtd">
<svg version="1.0" xmlns="http://www.w3.org/2000/svg"
 width="96.000000pt" height="68.000000pt" viewBox="0 0 96.000000 68.000000"
 preserveAspectRatio="xMidYMid meet">
<metadata>
Created by potrace 1.16, written by Peter Selinger 2001-2019
</metadata>
<g transform="translate(0.000000,68.000000) scale(0.100000,-0.100000)"
fill="#000000" stroke="none">
<path d="M535 620 c-4 -11 -18 -34 -32 -50 -33 -40 -20 -38 51 7 54 33 57 37
40 50 -26 19 -52 16 -59 -7z"/>
<path d="M350 571 c35 -43 53 -48 58 -14 4 25 -15 41 -58 50 l-34 6 34 -42z"/>
<path d="M579 536 c-2 -3 -63 -10 -134 -16 -72 -6 -141 -13 -155 -16 -23 -5
-23 -6 -6 -16 26 -14 366 15 366 32 0 12 -61 26 -71 16z"/>
</g>
</svg>
