<?xml version="1.0" standalone="no"?>
<!DOCTYPE svg PUBLIC "-//W3C//DTD SVG 20010904//EN"
 "http://www.w3.org/TR/2001/REC-SVG-20010904/DTD/svg10.dtd">
<svg version="1.0" xmlns="http://www.w3.org/2000/svg"
 width="90.000000pt" height="92.000000pt" viewBox="0 0 90.000000 92.000000"
 preserveAspectRatio="xMidYMid meet">
<metadata>
Created by potrace 1.16, written by Peter Selinger 2001-2019
</metadata>
<g transform="translate(0.000000,92.000000) scale(0.100000,-0.100000)"
fill="#000000" stroke="none">
<path d="M291 877 c-11 -26 -68 -82 -130 -126 -94 -66 45 -12 156 61 67 45 69
57 12 77 -26 9 -31 8 -38 -12z"/>
<path d="M505 892 c6 -5 42 -35 80 -66 79 -64 110 -69 110 -21 0 26 -7 33 -55
57 -56 28 -154 50 -135 30z"/>
<path d="M500 810 c0 -5 -18 -28 -40 -50 l-40 -40 -40 25 c-37 24 -90 34 -90
17 0 -4 20 -18 45 -31 25 -13 44 -29 42 -35 -6 -19 -177 -118 -270 -157 -81
-34 -88 -38 -56 -39 75 0 220 60 323 133 l48 35 77 -60 c42 -34 95 -70 119
-80 39 -17 50 -18 120 -8 42 7 91 18 107 25 l30 12 -25 6 c-14 3 -63 13 -110
22 -94 18 -227 66 -262 95 l-23 18 47 28 c57 35 64 48 38 74 -22 22 -40 26
-40 10z"/>
<path d="M340 535 c-30 -7 -85 -16 -122 -20 -68 -8 -85 -18 -48 -30 11 -3 24
-14 30 -24 10 -19 16 -248 6 -258 -3 -3 -33 -6 -66 -7 -67 -1 -75 -14 -30 -47
25 -18 26 -18 110 16 47 18 98 37 113 41 l28 6 -3 -70 c-3 -71 10 -108 31 -86
5 5 11 107 13 227 l3 218 25 6 c37 9 42 13 29 29 -13 16 -43 16 -119 -1z m22
-78 c3 -31 1 -34 -22 -34 -14 1 -37 -3 -52 -7 -27 -8 -28 -7 -28 27 0 38 8 44
66 46 29 1 32 -2 36 -32z m1 -91 c-4 -17 -13 -25 -36 -29 -18 -3 -40 -8 -49
-12 -15 -6 -18 -2 -18 23 0 32 9 36 81 41 23 1 26 -2 22 -23z m1 -88 c-1 -29
-5 -34 -40 -45 -61 -18 -74 -16 -74 11 0 30 10 57 19 52 3 -3 22 -1 41 4 54
12 55 12 54 -22z"/>
<path d="M575 489 c-27 -13 -51 -17 -74 -13 l-34 5 7 -47 c3 -26 6 -127 6
-225 0 -166 7 -212 25 -156 4 12 10 104 13 204 4 100 9 184 12 186 11 11 80
19 80 9 0 -5 -9 -30 -20 -55 l-21 -46 41 -41 c29 -29 40 -48 40 -69 0 -28 -3
-30 -40 -33 l-40 -3 51 -44 c45 -39 52 -42 66 -28 8 8 17 35 20 59 7 59 -16
101 -74 138 l-46 30 51 51 c56 56 59 61 39 77 -24 20 -62 21 -102 1z"/>
</g>
</svg>
