<?xml version="1.0" standalone="no"?>
<!DOCTYPE svg PUBLIC "-//W3C//DTD SVG 20010904//EN"
 "http://www.w3.org/TR/2001/REC-SVG-20010904/DTD/svg10.dtd">
<svg version="1.0" xmlns="http://www.w3.org/2000/svg"
 width="96.000000pt" height="68.000000pt" viewBox="0 0 96.000000 68.000000"
 preserveAspectRatio="xMidYMid meet">
<metadata>
Created by potrace 1.16, written by Peter Selinger 2001-2019
</metadata>
<g transform="translate(0.000000,68.000000) scale(0.100000,-0.100000)"
fill="#000000" stroke="none">
<path d="M560 179 c-25 -4 -74 -8 -109 -8 -60 -1 -63 -2 -48 -18 8 -10 18 -35
22 -55 10 -55 27 -73 53 -59 11 6 47 11 80 11 83 0 122 9 122 29 0 9 10 31 21
50 20 33 20 35 3 48 -19 14 -73 15 -144 2z m80 -48 c0 -22 -4 -43 -10 -46 -5
-3 -45 -9 -88 -12 l-79 -6 -7 38 c-4 20 -6 38 -4 40 3 3 133 21 171 24 13 1
17 -7 17 -38z"/>
</g>
</svg>
