<?xml version="1.0" standalone="no"?>
<!DOCTYPE svg PUBLIC "-//W3C//DTD SVG 20010904//EN"
 "http://www.w3.org/TR/2001/REC-SVG-20010904/DTD/svg10.dtd">
<svg version="1.0" xmlns="http://www.w3.org/2000/svg"
 width="96.000000pt" height="68.000000pt" viewBox="0 0 96.000000 68.000000"
 preserveAspectRatio="xMidYMid meet">
<metadata>
Created by potrace 1.16, written by Peter Selinger 2001-2019
</metadata>
<g transform="translate(0.000000,68.000000) scale(0.100000,-0.100000)"
fill="#000000" stroke="none">
<path d="M715 418 c-2 -7 -6 -84 -7 -170 -2 -96 -7 -161 -14 -168 -8 -8 -19
-8 -40 0 -28 11 -28 10 11 -29 21 -23 40 -41 42 -41 1 0 11 10 23 22 19 20 20
34 20 210 0 162 -2 188 -15 188 -9 0 -18 -6 -20 -12z"/>
</g>
</svg>
