<?xml version="1.0" standalone="no"?>
<!DOCTYPE svg PUBLIC "-//W3C//DTD SVG 20010904//EN"
 "http://www.w3.org/TR/2001/REC-SVG-20010904/DTD/svg10.dtd">
<svg version="1.0" xmlns="http://www.w3.org/2000/svg"
 width="96.000000pt" height="68.000000pt" viewBox="0 0 96.000000 68.000000"
 preserveAspectRatio="xMidYMid meet">
<metadata>
Created by potrace 1.16, written by Peter Selinger 2001-2019
</metadata>
<g transform="translate(0.000000,68.000000) scale(0.100000,-0.100000)"
fill="#000000" stroke="none">
<path d="M220 438 c-19 -5 -54 -8 -77 -6 -47 3 -49 2 -28 -26 8 -11 20 -46 26
-78 11 -56 29 -84 37 -60 2 7 16 12 30 12 15 0 43 3 63 6 30 5 36 10 31 26 -2
11 6 42 19 69 20 43 21 52 9 60 -19 11 -65 10 -110 -3z m45 -70 c-8 -58 -16
-68 -57 -68 -23 0 -29 6 -37 38 -21 73 -16 80 57 81 l44 1 -7 -52z"/>
</g>
</svg>
