<?xml version="1.0" standalone="no"?>
<!DOCTYPE svg PUBLIC "-//W3C//DTD SVG 20010904//EN"
 "http://www.w3.org/TR/2001/REC-SVG-20010904/DTD/svg10.dtd">
<svg version="1.0" xmlns="http://www.w3.org/2000/svg"
 width="96.000000pt" height="68.000000pt" viewBox="0 0 96.000000 68.000000"
 preserveAspectRatio="xMidYMid meet">
<metadata>
Created by potrace 1.16, written by Peter Selinger 2001-2019
</metadata>
<g transform="translate(0.000000,68.000000) scale(0.100000,-0.100000)"
fill="#000000" stroke="none">
<path d="M307 566 c-8 -49 -55 -118 -138 -203 -63 -64 -69 -73 -39 -58 19 10
51 31 71 46 20 16 40 29 44 29 9 0 -4 -194 -16 -243 -8 -31 -7 -44 6 -64 13
-19 20 -22 28 -14 16 16 28 320 14 342 -8 12 2 32 42 84 56 75 60 89 32 105
-31 16 -38 12 -44 -24z"/>
</g>
</svg>
