<?xml version="1.0" standalone="no"?>
<!DOCTYPE svg PUBLIC "-//W3C//DTD SVG 20010904//EN"
 "http://www.w3.org/TR/2001/REC-SVG-20010904/DTD/svg10.dtd">
<svg version="1.0" xmlns="http://www.w3.org/2000/svg"
 width="96.000000pt" height="68.000000pt" viewBox="0 0 96.000000 68.000000"
 preserveAspectRatio="xMidYMid meet">
<metadata>
Created by potrace 1.16, written by Peter Selinger 2001-2019
</metadata>
<g transform="translate(0.000000,68.000000) scale(0.100000,-0.100000)"
fill="#000000" stroke="none">
<path d="M248 506 c2 -46 -1 -159 -7 -250 -9 -122 -9 -171 -1 -186 9 -16 15
-19 24 -10 10 7 16 62 21 190 4 99 10 180 13 180 3 0 16 -9 28 -21 12 -12 27
-18 33 -14 22 13 10 33 -30 49 -44 18 -43 13 -22 102 3 15 -3 23 -22 32 -14 7
-29 12 -34 12 -4 0 -5 -38 -3 -84z"/>
<path d="M152 385 c-28 -57 -29 -95 -4 -95 23 0 42 39 42 83 0 56 -14 61 -38
12z"/>
</g>
</svg>
