<?xml version="1.0" standalone="no"?>
<!DOCTYPE svg PUBLIC "-//W3C//DTD SVG 20010904//EN"
 "http://www.w3.org/TR/2001/REC-SVG-20010904/DTD/svg10.dtd">
<svg version="1.0" xmlns="http://www.w3.org/2000/svg"
 width="90.000000pt" height="92.000000pt" viewBox="0 0 90.000000 92.000000"
 preserveAspectRatio="xMidYMid meet">
<metadata>
Created by potrace 1.16, written by Peter Selinger 2001-2019
</metadata>
<g transform="translate(0.000000,92.000000) scale(0.100000,-0.100000)"
fill="#000000" stroke="none">
<path d="M215 880 c-3 -5 -2 -18 3 -27 5 -10 12 -48 15 -85 7 -75 12 -71 -93
-83 l-55 -7 -1 -121 c-1 -132 -19 -239 -60 -362 -14 -42 -23 -79 -21 -82 8 -8
66 97 79 142 7 27 22 47 45 62 l33 22 0 -89 c0 -49 -4 -99 -9 -112 -9 -25 9
-93 25 -93 5 0 14 15 20 33 5 18 12 30 15 27 3 -2 40 2 83 10 43 8 97 15 121
15 76 0 97 18 46 40 -21 8 -39 9 -67 1 -53 -15 -54 -14 -54 14 0 20 6 25 38
30 54 9 64 14 57 25 -3 5 -26 10 -51 10 -36 0 -44 3 -44 19 0 15 11 21 47 27
56 11 59 28 4 32 -32 2 -40 7 -43 26 -4 21 -1 24 39 29 24 2 47 8 51 11 12 13
-23 27 -55 22 -26 -4 -32 -1 -35 16 -2 13 -14 25 -31 31 -38 12 -45 2 -19 -32
l21 -28 -56 -12 c-31 -6 -58 -9 -61 -6 -3 2 7 20 22 39 l26 35 -22 20 c-12 12
-25 21 -28 21 -4 0 -12 -19 -19 -42 -13 -43 -61 -128 -72 -128 -3 0 0 33 6 73
7 39 16 110 20 157 4 47 10 88 13 91 4 4 23 9 43 12 33 5 37 3 42 -19 5 -26
-15 -54 -37 -54 -7 0 -21 -7 -32 -15 -18 -15 -16 -16 23 -13 39 3 44 1 52 -23
13 -39 45 -53 104 -45 61 7 86 26 62 46 -12 10 -24 11 -54 1 -60 -18 -81 -15
-81 12 0 18 9 26 42 37 23 8 44 21 46 29 4 11 -4 13 -42 8 -42 -6 -46 -5 -38
11 5 9 7 23 5 30 -3 7 4 12 19 12 13 0 41 3 62 7 42 7 43 4 21 -50 -6 -15 1
-14 49 10 31 15 56 31 56 35 0 5 -15 17 -32 29 -33 20 -59 21 -145 3 -32 -6
-33 -5 -33 25 0 18 4 30 8 27 14 -8 125 18 129 31 7 20 -39 25 -86 8 -24 -8
-46 -15 -49 -15 -2 0 -2 18 2 40 6 37 4 41 -20 50 -32 13 -41 13 -49 0z m77
-545 c4 -20 1 -25 -16 -25 -11 0 -31 -3 -42 -6 -15 -4 -23 0 -28 13 -3 10 -9
23 -12 30 -3 8 9 13 38 15 54 4 55 4 60 -27z m8 -75 c0 -22 -5 -25 -62 -35
-37 -6 -38 -5 -38 25 0 29 1 30 50 30 44 0 50 -3 50 -20z m0 -85 c0 -14 -3
-25 -7 -25 -5 -1 -27 -5 -50 -9 l-43 -8 0 33 0 34 50 0 c47 0 50 -2 50 -25z"/>
<path d="M672 750 c-12 -5 -52 -15 -88 -23 -67 -13 -81 -27 -40 -38 27 -8 168
16 200 33 19 10 19 11 1 24 -21 16 -40 17 -73 4z"/>
<path d="M645 609 c-82 -15 -162 -28 -177 -29 -36 0 -43 -15 -13 -28 16 -7 35
-8 57 -1 56 16 61 13 55 -27 -3 -20 -18 -51 -32 -70 -26 -35 -28 -64 -3 -64 7
0 31 7 53 15 48 17 122 19 127 4 7 -21 -11 -150 -27 -199 -9 -27 -23 -54 -31
-61 -16 -13 -20 -12 -88 16 -13 6 -8 -7 19 -49 23 -33 45 -56 56 -56 24 0 75
53 88 92 6 18 20 78 31 132 11 55 25 105 30 112 8 8 6 17 -5 28 -33 33 -57 39
-132 32 -40 -4 -73 -4 -73 0 0 3 14 24 32 46 29 38 30 41 14 53 -15 12 -13 14
21 19 21 3 77 8 126 12 48 3 90 10 92 15 6 8 -47 40 -62 38 -4 -1 -75 -14
-158 -30z"/>
</g>
</svg>
