<?xml version="1.0" standalone="no"?>
<!DOCTYPE svg PUBLIC "-//W3C//DTD SVG 20010904//EN"
 "http://www.w3.org/TR/2001/REC-SVG-20010904/DTD/svg10.dtd">
<svg version="1.0" xmlns="http://www.w3.org/2000/svg"
 width="96.000000pt" height="68.000000pt" viewBox="0 0 96.000000 68.000000"
 preserveAspectRatio="xMidYMid meet">
<metadata>
Created by potrace 1.16, written by Peter Selinger 2001-2019
</metadata>
<g transform="translate(0.000000,68.000000) scale(0.100000,-0.100000)"
fill="#000000" stroke="none">
<path d="M275 588 c4 -13 10 -47 12 -75 l5 -53 -64 0 -63 0 -2 -85 c-2 -109
-17 -185 -48 -253 -14 -30 -23 -57 -20 -60 8 -8 32 26 57 80 19 39 50 68 75
68 3 0 4 -39 1 -87 -3 -49 -3 -94 -1 -100 7 -20 30 -15 36 6 4 16 18 20 102
26 53 4 108 8 121 8 14 0 23 4 21 11 -2 6 -29 11 -63 12 -44 1 -60 5 -62 16
-2 11 9 17 42 22 57 9 60 26 6 26 -55 0 -55 26 0 35 47 8 44 25 -6 25 -27 0
-34 4 -34 20 0 17 7 20 47 20 36 0 44 3 35 12 -9 9 -34 8 -109 -4 -54 -8 -100
-14 -102 -12 -3 2 6 15 19 29 23 25 23 25 4 39 -23 18 -31 13 -39 -23 -3 -15
-20 -41 -37 -57 l-31 -29 7 25 c4 14 12 66 18 115 6 50 12 91 13 92 0 1 17 5
37 8 30 5 36 3 41 -14 6 -25 0 -31 -30 -31 -12 0 -23 -4 -23 -10 0 -5 3 -9 8
-9 27 4 52 -3 52 -16 0 -19 65 -36 113 -28 62 10 39 28 -31 25 -51 -3 -62 -1
-62 12 0 11 13 18 40 22 22 4 40 11 40 16 0 5 -16 6 -35 2 -26 -5 -35 -3 -35
7 0 28 17 39 61 42 40 2 44 0 42 -20 -3 -28 -5 -27 46 -4 l42 18 -25 17 c-28
18 -66 20 -112 7 -36 -10 -57 -1 -49 21 4 10 25 17 62 21 62 6 72 12 55 29 -9
9 -25 9 -63 2 -50 -11 -51 -11 -46 13 5 26 -16 43 -54 43 -18 0 -20 -4 -14
-22z m70 -378 c0 -10 -13 -16 -42 -18 -38 -3 -43 -1 -43 18 0 19 5 21 43 18
29 -2 42 -8 42 -18z m5 -54 c0 -7 -14 -16 -31 -20 -50 -10 -59 -7 -59 14 0 17
7 20 45 20 32 0 45 -4 45 -14z m0 -61 c0 -23 -4 -25 -45 -25 -38 0 -45 3 -45
19 0 19 17 27 68 30 17 1 22 -4 22 -24z"/>
<path d="M635 498 c-97 -19 -104 -22 -47 -26 62 -4 165 15 157 29 -7 11 -41
10 -110 -3z"/>
<path d="M605 400 c-65 -10 -123 -16 -128 -13 -5 3 -7 0 -5 -8 4 -10 21 -13
62 -11 50 2 56 0 56 -17 0 -11 -11 -33 -25 -49 -35 -42 -33 -56 8 -48 17 4 58
9 90 13 l59 6 -6 -49 c-17 -121 -44 -164 -96 -146 -36 13 -37 9 -9 -29 12 -18
29 -29 43 -29 42 0 70 42 100 150 28 98 28 101 10 115 -15 12 -36 14 -91 9
-40 -4 -73 -3 -73 0 0 4 11 19 25 34 14 15 23 32 21 39 -5 12 45 21 149 26 28
1 50 7 50 12 0 17 -114 15 -240 -5z"/>
<path d="M336 312 c-8 -13 7 -30 29 -34 28 -4 26 23 -2 33 -12 4 -24 5 -27 1z"/>
</g>
</svg>
