<?xml version="1.0" standalone="no"?>
<!DOCTYPE svg PUBLIC "-//W3C//DTD SVG 20010904//EN"
 "http://www.w3.org/TR/2001/REC-SVG-20010904/DTD/svg10.dtd">
<svg version="1.0" xmlns="http://www.w3.org/2000/svg"
 width="96.000000pt" height="68.000000pt" viewBox="0 0 96.000000 68.000000"
 preserveAspectRatio="xMidYMid meet">
<metadata>
Created by potrace 1.16, written by Peter Selinger 2001-2019
</metadata>
<g transform="translate(0.000000,68.000000) scale(0.100000,-0.100000)"
fill="#000000" stroke="none">
<path d="M384 614 c-3 -12 -14 -30 -24 -39 -16 -15 -26 -15 -70 -6 -79 17 -90
12 -32 -14 l54 -25 -29 -23 c-15 -13 -44 -33 -63 -45 -59 -36 -4 -26 69 13
l63 34 49 -24 c54 -28 89 -32 89 -11 0 18 -45 54 -77 62 -24 6 -23 7 9 31 43
31 43 55 0 64 -28 6 -33 4 -38 -17z"/>
<path d="M700 554 c-25 -7 -58 -13 -75 -11 -16 1 -31 -1 -32 -5 -2 -5 -3 -118
-3 -253 0 -201 2 -245 14 -245 18 0 26 52 26 171 0 53 3 144 7 202 l6 107 36
10 c20 5 44 10 55 10 20 0 20 -2 -11 -83 l-18 -48 33 -29 c22 -19 35 -41 39
-66 l6 -37 -49 6 -49 7 37 -23 c21 -13 46 -31 56 -40 18 -16 20 -16 36 2 40
44 7 146 -54 171 -37 15 -37 22 -1 63 75 83 74 80 55 94 -22 16 -57 16 -114
-3z"/>
<path d="M299 467 c0 -1 -2 -10 -4 -20 -8 -41 -14 -45 -84 -52 -39 -4 -73 -11
-76 -16 -7 -11 59 -23 89 -15 44 11 36 -9 -35 -78 -38 -38 -67 -71 -65 -74 3
-2 25 10 50 27 24 17 49 31 55 31 6 0 8 -18 4 -49 -3 -31 -1 -51 6 -55 14 -9
31 34 31 80 0 26 4 34 18 34 9 0 27 3 40 6 l23 6 -3 -108 c-3 -91 -1 -109 12
-109 12 0 16 21 20 110 l5 110 45 0 c43 0 45 -1 48 -32 4 -40 -13 -74 -33 -67
-20 8 -19 2 4 -25 35 -40 64 -5 75 89 7 58 -11 72 -83 63 -47 -5 -51 -4 -51
16 0 11 -4 21 -9 21 -5 0 -17 3 -27 7 -15 5 -16 2 -11 -24 7 -34 -7 -43 -66
-43 l-28 0 32 39 c23 29 41 41 68 45 162 24 190 30 184 38 -5 10 -118 4 -169
-8 -16 -4 -21 -1 -20 17 1 13 -7 24 -21 30 -13 5 -23 7 -24 6z"/>
</g>
</svg>
