<?xml version="1.0" standalone="no"?>
<!DOCTYPE svg PUBLIC "-//W3C//DTD SVG 20010904//EN"
 "http://www.w3.org/TR/2001/REC-SVG-20010904/DTD/svg10.dtd">
<svg version="1.0" xmlns="http://www.w3.org/2000/svg"
 width="90.000000pt" height="92.000000pt" viewBox="0 0 90.000000 92.000000"
 preserveAspectRatio="xMidYMid meet">
<metadata>
Created by potrace 1.16, written by Peter Selinger 2001-2019
</metadata>
<g transform="translate(0.000000,92.000000) scale(0.100000,-0.100000)"
fill="#000000" stroke="none">
<path d="M500 830 c0 -4 17 -20 38 -36 20 -16 51 -41 67 -56 39 -36 64 -44 82
-25 24 24 9 60 -33 80 -45 22 -154 48 -154 37z"/>
<path d="M265 783 c-11 -20 -50 -63 -88 -95 -37 -32 -61 -58 -54 -58 36 0 236
132 237 156 0 11 -42 34 -63 34 -7 0 -21 -16 -32 -37z"/>
<path d="M486 738 c-3 -13 -19 -38 -36 -56 l-30 -33 -33 19 c-39 24 -80 34
-101 26 -18 -7 -22 -24 -5 -24 6 0 33 -10 61 -22 l50 -21 -23 -19 c-67 -53
-155 -109 -254 -161 -76 -40 -99 -56 -75 -51 91 17 213 73 324 149 l68 46 77
-58 c135 -103 145 -108 236 -107 82 2 146 18 129 33 -5 5 -58 20 -119 35 -113
28 -289 109 -282 129 2 6 24 25 50 42 25 16 46 34 46 38 1 13 -47 57 -62 57
-8 0 -17 -10 -21 -22z"/>
<path d="M366 471 c-87 -13 -106 -18 -95 -28 8 -6 35 -13 59 -15 44 -3 45 -4
45 -38 l0 -35 -82 -9 c-85 -9 -99 -17 -62 -36 19 -10 51 -9 129 6 25 4 25 4
28 -80 l3 -84 -108 -7 c-59 -4 -126 -10 -148 -14 l-40 -7 28 -19 c32 -21 53
-22 152 -6 39 6 161 14 273 18 215 7 238 13 166 48 -32 15 -47 16 -124 6 -47
-6 -103 -11 -123 -11 l-37 0 0 75 c0 72 1 76 26 85 14 6 54 10 90 10 47 0 64
4 64 13 0 24 -49 38 -110 31 l-58 -6 -4 35 -4 35 58 6 c59 7 81 21 57 37 -18
11 -51 10 -183 -10z"/>
<path d="M529 269 c-7 -18 -24 -45 -38 -61 -30 -36 -16 -34 56 7 57 33 63 43
35 68 -27 24 -38 21 -53 -14z"/>
<path d="M240 261 c0 -13 44 -73 62 -85 25 -15 42 5 34 39 -4 17 -18 31 -41
41 -39 16 -55 18 -55 5z"/>
</g>
</svg>
