<?xml version="1.0" standalone="no"?>
<!DOCTYPE svg PUBLIC "-//W3C//DTD SVG 20010904//EN"
 "http://www.w3.org/TR/2001/REC-SVG-20010904/DTD/svg10.dtd">
<svg version="1.0" xmlns="http://www.w3.org/2000/svg"
 width="96.000000pt" height="68.000000pt" viewBox="0 0 96.000000 68.000000"
 preserveAspectRatio="xMidYMid meet">
<metadata>
Created by potrace 1.16, written by Peter Selinger 2001-2019
</metadata>
<g transform="translate(0.000000,68.000000) scale(0.100000,-0.100000)"
fill="#000000" stroke="none">
<path d="M200 404 c-30 -7 -62 -11 -70 -9 -13 4 -15 -12 -13 -110 1 -77 5
-121 14 -131 11 -14 13 -14 21 0 6 11 24 16 58 16 40 0 50 -4 55 -20 3 -11 14
-20 24 -20 31 0 40 41 36 161 -5 139 -8 142 -125 113z m80 -59 l0 -45 -37 0
c-21 0 -48 -3 -60 -6 -21 -6 -23 -3 -23 39 0 50 4 53 83 56 l37 1 0 -45z m-2
-106 l-3 -42 -57 -4 -58 -4 0 40 c0 39 1 40 38 44 89 9 83 11 80 -34z"/>
</g>
</svg>
