<?xml version="1.0" standalone="no"?>
<!DOCTYPE svg PUBLIC "-//W3C//DTD SVG 20010904//EN"
 "http://www.w3.org/TR/2001/REC-SVG-20010904/DTD/svg10.dtd">
<svg version="1.0" xmlns="http://www.w3.org/2000/svg"
 width="96.000000pt" height="68.000000pt" viewBox="0 0 96.000000 68.000000"
 preserveAspectRatio="xMidYMid meet">
<metadata>
Created by potrace 1.16, written by Peter Selinger 2001-2019
</metadata>
<g transform="translate(0.000000,68.000000) scale(0.100000,-0.100000)"
fill="#000000" stroke="none">
<path d="M289 598 c-6 -13 -31 -38 -57 -57 -57 -43 -41 -51 30 -16 103 50 118
72 61 90 -18 5 -25 1 -34 -17z"/>
<path d="M578 555 c-38 -58 -37 -68 4 -36 25 20 25 20 60 -4 33 -23 48 -23 48
-3 0 5 -16 16 -35 24 l-35 14 20 22 c15 17 17 24 8 30 -24 15 -34 8 -70 -47z"/>
<path d="M450 585 c0 -8 -16 -32 -35 -54 -45 -50 -45 -61 1 -26 35 27 37 27
64 11 34 -19 40 -20 40 -3 0 8 -12 19 -27 26 -27 12 -27 13 -8 27 17 13 18 16
5 24 -22 14 -40 12 -40 -5z"/>
<path d="M301 497 c-8 -21 -104 -105 -156 -136 -18 -11 -18 -11 5 -5 13 4 45
19 70 35 l45 28 3 -54 c2 -30 7 -55 12 -55 11 0 33 96 27 120 -3 13 3 26 19
39 28 22 31 36 8 45 -23 9 -24 8 -33 -17z"/>
<path d="M508 435 l4 -46 -26 12 c-21 10 -24 15 -14 26 9 11 9 17 -3 24 -19
12 -39 11 -39 -1 0 -6 -19 -31 -41 -55 -47 -51 -42 -57 15 -19 l39 27 104 -53
c102 -52 104 -53 173 -47 113 9 116 22 9 36 -52 7 -113 17 -136 23 -38 9 -43
14 -43 39 0 27 2 29 43 29 23 0 49 4 57 10 25 15 -15 24 -60 12 -36 -9 -40 -8
-40 9 0 13 -7 19 -23 19 -20 0 -22 -4 -19 -45z"/>
<path d="M397 305 c-121 -12 -178 -25 -109 -25 36 0 40 -10 45 -95 l2 -50 -90
-7 c-118 -10 -127 -13 -84 -25 26 -8 56 -7 110 2 64 11 178 20 217 16 8 -1 12
-19 12 -55 0 -30 4 -57 9 -61 11 -6 31 56 31 98 l0 27 120 0 c66 0 120 4 120
9 0 18 -56 28 -115 20 -33 -4 -75 -8 -93 -8 l-33 -1 3 73 c3 66 5 72 26 75 34
5 26 22 -10 21 -18 -1 -91 -7 -161 -14z m101 -32 c-4 -22 -128 -32 -128 -10 0
23 11 27 72 27 50 0 59 -3 56 -17z m2 -51 c0 -15 -9 -19 -42 -21 -24 -1 -52
-3 -63 -4 -11 -1 -21 5 -23 15 -3 14 7 18 55 21 32 2 61 4 66 5 4 1 7 -6 7
-16z m0 -57 c0 -24 -2 -25 -65 -25 -58 0 -65 2 -65 20 0 16 8 20 58 23 31 2
60 4 65 5 4 1 7 -9 7 -23z"/>
</g>
</svg>
