<?xml version="1.0" standalone="no"?>
<!DOCTYPE svg PUBLIC "-//W3C//DTD SVG 20010904//EN"
 "http://www.w3.org/TR/2001/REC-SVG-20010904/DTD/svg10.dtd">
<svg version="1.0" xmlns="http://www.w3.org/2000/svg"
 width="96.000000pt" height="68.000000pt" viewBox="0 0 96.000000 68.000000"
 preserveAspectRatio="xMidYMid meet">
<metadata>
Created by potrace 1.16, written by Peter Selinger 2001-2019
</metadata>
<g transform="translate(0.000000,68.000000) scale(0.100000,-0.100000)"
fill="#000000" stroke="none">
<path d="M626 480 c6 -105 -3 -130 -46 -130 -17 0 -30 4 -30 9 0 5 -3 16 -6
24 -4 11 4 17 25 22 48 10 49 27 2 19 -37 -6 -41 -4 -41 14 0 15 10 24 35 33
39 14 44 24 18 34 -12 4 -25 -2 -41 -20 -13 -15 -29 -25 -37 -21 -8 3 -17 1
-20 -4 -4 -6 -2 -10 4 -10 6 0 15 -19 21 -42 21 -84 24 -86 70 -78 31 6 43 4
47 -6 8 -22 -6 -34 -40 -34 -60 0 -62 -15 -8 -50 28 -17 51 -34 51 -36 0 -9
-73 -36 -102 -37 -28 -2 -36 3 -51 33 -16 30 -18 53 -14 155 3 66 8 130 12
142 5 16 1 25 -17 36 -21 14 -35 14 -138 -4 -69 -11 -132 -17 -158 -13 l-43 6
5 -36 c3 -20 8 -51 11 -68 9 -58 -13 -197 -40 -255 -14 -31 -24 -58 -22 -60
21 -20 81 69 98 143 7 30 15 54 19 54 3 0 11 -17 16 -37 8 -33 13 -37 39 -38
28 0 30 -3 29 -35 0 -35 0 -35 -54 -40 -51 -5 -53 -6 -36 -22 18 -19 51 -24
60 -10 3 5 32 17 65 27 57 17 62 17 79 2 25 -23 32 -21 32 7 0 14 -10 32 -22
40 -29 20 -46 20 -44 0 0 -9 -9 -20 -22 -25 -22 -8 -23 -7 -20 29 3 34 6 37
36 40 18 2 30 7 27 12 -3 5 2 21 11 35 20 31 11 43 -34 47 -29 2 -32 5 -32 35
0 29 3 33 25 33 14 0 25 5 25 10 0 13 -36 13 -102 -2 -67 -14 -84 -28 -35 -28
34 0 37 -2 37 -30 0 -29 -2 -30 -45 -30 l-46 0 7 78 c3 42 9 80 13 84 4 4 38
12 76 18 39 5 86 13 107 16 l36 6 4 -153 c3 -149 4 -156 32 -203 57 -97 121
-126 278 -126 106 0 124 7 114 41 -4 13 -9 38 -12 54 -7 38 -12 43 -19 19 -21
-67 -24 -69 -121 -68 -68 0 -100 5 -129 20 -48 24 -55 40 -18 46 15 3 48 11
73 18 44 12 46 12 93 -20 36 -24 52 -29 60 -21 12 12 -23 57 -55 67 -26 8 -22
29 12 57 17 14 30 30 30 36 0 12 -64 26 -79 16 -19 -11 -32 5 -21 26 14 25 68
26 86 2 18 -24 27 -10 54 77 18 61 19 66 3 78 -22 16 -51 15 -88 -4 l-30 -14
38 4 c28 4 40 1 44 -11 7 -18 -13 -33 -44 -33 -13 0 -23 -4 -23 -10 0 -5 11
-10 23 -10 13 0 27 -3 30 -7 14 -13 -17 -33 -50 -33 l-35 0 4 95 c3 97 0 105
-38 105 -11 0 -12 -17 -8 -90z m-273 -167 c8 -14 -12 -53 -28 -53 -15 0 -22
40 -8 53 9 9 31 9 36 0z m-83 -33 c0 -23 -5 -30 -19 -30 -21 0 -36 46 -17 54
27 11 36 5 36 -24z m430 -7 c-1 -16 -28 -43 -43 -43 -9 0 -33 8 -53 17 -35 17
-35 18 -13 24 34 10 109 10 109 2z"/>
</g>
</svg>
