<?xml version="1.0" standalone="no"?>
<!DOCTYPE svg PUBLIC "-//W3C//DTD SVG 20010904//EN"
 "http://www.w3.org/TR/2001/REC-SVG-20010904/DTD/svg10.dtd">
<svg version="1.0" xmlns="http://www.w3.org/2000/svg"
 width="90.000000pt" height="92.000000pt" viewBox="0 0 90.000000 92.000000"
 preserveAspectRatio="xMidYMid meet">
<metadata>
Created by potrace 1.16, written by Peter Selinger 2001-2019
</metadata>
<g transform="translate(0.000000,92.000000) scale(0.100000,-0.100000)"
fill="#000000" stroke="none">
<path d="M396 775 c-33 -30 -101 -77 -150 -104 -85 -47 -89 -51 -56 -51 19 0
55 10 80 21 l45 20 15 -23 c8 -12 29 -41 46 -64 l32 -41 -94 -22 c-51 -11
-103 -21 -116 -21 -13 0 -30 -5 -38 -10 -13 -8 -12 -11 5 -24 23 -18 72 -20
111 -6 72 28 254 77 254 69 0 -14 -148 -136 -230 -190 l-75 -49 -92 0 c-99 0
-113 -9 -73 -45 17 -15 25 -16 64 -6 60 15 125 14 172 -3 22 -8 102 -45 179
-82 94 -46 151 -68 175 -68 39 0 201 63 207 80 2 7 -41 13 -129 18 -73 4 -166
14 -207 22 -128 27 -292 94 -228 94 19 0 171 96 265 167 45 35 87 63 92 63 6
0 10 7 10 16 0 8 -19 24 -43 34 -43 19 -44 19 -95 0 -63 -24 -83 -25 -76 -5
14 35 -6 66 -56 88 l-50 22 87 35 c120 46 124 51 84 89 -18 17 -38 31 -45 31
-6 -1 -38 -25 -70 -55z"/>
</g>
</svg>
