<?xml version="1.0" standalone="no"?>
<!DOCTYPE svg PUBLIC "-//W3C//DTD SVG 20010904//EN"
 "http://www.w3.org/TR/2001/REC-SVG-20010904/DTD/svg10.dtd">
<svg version="1.0" xmlns="http://www.w3.org/2000/svg"
 width="96.000000pt" height="68.000000pt" viewBox="0 0 96.000000 68.000000"
 preserveAspectRatio="xMidYMid meet">
<metadata>
Created by potrace 1.16, written by Peter Selinger 2001-2019
</metadata>
<g transform="translate(0.000000,68.000000) scale(0.100000,-0.100000)"
fill="#000000" stroke="none">
<path d="M396 618 c4 -7 16 -23 27 -35 10 -12 16 -26 12 -32 -8 -14 -185 -15
-185 -1 0 6 -6 10 -13 10 -15 0 -66 -100 -60 -117 9 -25 44 -13 64 21 17 29
26 34 70 40 28 4 54 4 57 1 11 -11 -25 -59 -69 -94 -24 -19 -36 -31 -26 -28
10 4 23 7 27 7 5 0 37 23 71 51 44 38 58 54 48 60 -18 11 -11 15 39 23 l42 6
0 -44 c0 -27 6 -48 16 -57 21 -17 155 -19 161 -1 4 9 -14 12 -66 12 -38 0 -73
5 -76 10 -4 6 -1 26 5 44 11 35 35 46 101 46 34 0 34 -2 13 -36 -9 -13 -15
-26 -13 -28 6 -7 112 23 123 34 12 12 -5 32 -46 53 -20 10 -42 12 -80 6 -155
-22 -148 -22 -148 0 0 31 -35 61 -71 61 -21 0 -28 -4 -23 -12z"/>
<path d="M401 394 c-14 -39 -84 -109 -153 -156 -24 -15 -38 -28 -31 -28 14 0
91 41 144 76 62 42 69 31 69 -116 0 -82 4 -131 11 -136 18 -11 27 8 31 61 l3
50 55 2 c87 4 140 13 140 25 0 6 -35 9 -97 6 l-98 -3 0 25 c0 21 5 25 30 28
129 10 155 14 149 24 -4 7 -36 8 -90 4 l-84 -7 0 29 0 29 102 12 c102 11 117
15 105 28 -11 10 -62 8 -166 -5 -51 -7 -96 -10 -99 -7 -3 3 5 17 18 30 19 21
22 30 14 43 -19 30 -39 25 -53 -14z"/>
</g>
</svg>
