<?xml version="1.0" standalone="no"?>
<!DOCTYPE svg PUBLIC "-//W3C//DTD SVG 20010904//EN"
 "http://www.w3.org/TR/2001/REC-SVG-20010904/DTD/svg10.dtd">
<svg version="1.0" xmlns="http://www.w3.org/2000/svg"
 width="96.000000pt" height="68.000000pt" viewBox="0 0 96.000000 68.000000"
 preserveAspectRatio="xMidYMid meet">
<metadata>
Created by potrace 1.16, written by Peter Selinger 2001-2019
</metadata>
<g transform="translate(0.000000,68.000000) scale(0.100000,-0.100000)"
fill="#000000" stroke="none">
<path d="M577 167 c-2 -7 -6 -16 -8 -22 -2 -5 -19 -24 -38 -42 -20 -18 -33
-34 -30 -37 3 -3 15 3 26 14 12 10 24 16 29 12 4 -4 4 1 1 11 -4 11 -3 16 3
12 12 -7 62 29 53 39 -3 3 2 6 12 6 26 0 11 12 -19 15 -14 2 -27 -2 -29 -8z"/>
<path d="M725 130 c-7 -11 12 -23 25 -15 5 3 7 0 5 -8 -6 -15 41 -60 68 -65
28 -5 20 18 -19 53 -38 35 -70 49 -79 35z"/>
</g>
</svg>
