<?xml version="1.0" standalone="no"?>
<!DOCTYPE svg PUBLIC "-//W3C//DTD SVG 20010904//EN"
 "http://www.w3.org/TR/2001/REC-SVG-20010904/DTD/svg10.dtd">
<svg version="1.0" xmlns="http://www.w3.org/2000/svg"
 width="96.000000pt" height="68.000000pt" viewBox="0 0 96.000000 68.000000"
 preserveAspectRatio="xMidYMid meet">
<metadata>
Created by potrace 1.16, written by Peter Selinger 2001-2019
</metadata>
<g transform="translate(0.000000,68.000000) scale(0.100000,-0.100000)"
fill="#000000" stroke="none">
<path d="M233 564 c3 -16 9 -57 12 -91 l7 -62 -33 -5 c-19 -3 -47 -7 -63 -8
-16 -2 -31 -9 -34 -15 -3 -10 14 -13 62 -13 l66 0 0 -31 c0 -49 -16 -65 -90
-95 -81 -31 -90 -40 -64 -59 29 -22 55 -17 99 16 l40 30 3 -37 c2 -20 1 -48
-3 -62 -5 -22 -9 -23 -43 -17 l-37 6 50 -51 50 -51 18 22 c14 17 17 41 17 120
0 66 4 101 13 108 57 47 70 60 59 61 -7 0 -26 -7 -42 -15 -30 -15 -30 -15 -30
12 0 37 9 47 48 59 45 12 45 28 0 32 -43 4 -46 13 -27 88 14 54 4 70 -50 80
-33 7 -34 6 -28 -22z"/>
<path d="M550 571 c-8 -10 -35 -30 -58 -45 -24 -15 -42 -29 -39 -32 5 -6 148
45 161 57 12 11 -12 39 -33 39 -9 0 -23 -9 -31 -19z"/>
<path d="M656 474 c-20 -24 -35 -44 -33 -44 3 0 30 11 61 25 56 25 62 36 27
54 -14 8 -25 1 -55 -35z"/>
<path d="M514 479 c-7 -13 24 -49 43 -49 14 0 17 19 5 36 -11 16 -41 24 -48
13z"/>
<path d="M406 458 c15 -27 38 -48 51 -48 19 0 16 24 -5 43 -22 20 -57 23 -46
5z"/>
<path d="M615 400 c-11 -4 -58 -13 -105 -20 -66 -10 -79 -15 -61 -22 13 -4 27
-6 32 -2 5 3 9 -8 9 -25 0 -33 -10 -39 -82 -43 -61 -4 -45 -23 18 -22 24 0 44
-2 44 -6 0 -16 -60 -98 -93 -127 -20 -18 -37 -35 -37 -37 0 -11 67 35 99 68
29 30 37 34 55 24 25 -12 66 -49 66 -58 0 -10 -75 -50 -122 -65 -36 -11 -39
-13 -16 -14 28 -1 133 34 156 52 9 7 16 7 20 1 4 -5 26 -24 48 -42 33 -25 51
-32 85 -32 56 0 119 11 119 20 0 3 -29 12 -64 18 -70 13 -166 50 -166 63 0 8
32 48 68 85 7 8 10 19 6 25 -6 11 -52 9 -156 -7 -28 -5 -38 -3 -38 7 1 35 18
40 145 49 70 5 130 12 134 15 3 3 -1 11 -9 16 -14 9 -40 8 -174 -7 -52 -6 -53
-6 -53 19 0 22 5 26 41 32 57 9 76 15 76 25 0 13 -23 18 -45 10z m5 -185 c0
-12 -31 -65 -37 -65 -9 0 -53 42 -53 51 0 4 8 10 18 12 26 7 72 8 72 2z"/>
</g>
</svg>
