<?xml version="1.0" standalone="no"?>
<!DOCTYPE svg PUBLIC "-//W3C//DTD SVG 20010904//EN"
 "http://www.w3.org/TR/2001/REC-SVG-20010904/DTD/svg10.dtd">
<svg version="1.0" xmlns="http://www.w3.org/2000/svg"
 width="96.000000pt" height="68.000000pt" viewBox="0 0 96.000000 68.000000"
 preserveAspectRatio="xMidYMid meet">
<metadata>
Created by potrace 1.16, written by Peter Selinger 2001-2019
</metadata>
<g transform="translate(0.000000,68.000000) scale(0.100000,-0.100000)"
fill="#000000" stroke="none">
<path d="M564 598 c3 -13 9 -57 13 -99 5 -67 8 -76 24 -72 11 3 19 16 21 36 3
29 7 32 48 39 75 12 91 18 84 29 -6 10 -76 5 -110 -8 -11 -4 -14 6 -14 40 0
47 -9 57 -52 57 -16 0 -19 -4 -14 -22z"/>
</g>
</svg>
