<?xml version="1.0" standalone="no"?>
<!DOCTYPE svg PUBLIC "-//W3C//DTD SVG 20010904//EN"
 "http://www.w3.org/TR/2001/REC-SVG-20010904/DTD/svg10.dtd">
<svg version="1.0" xmlns="http://www.w3.org/2000/svg"
 width="96.000000pt" height="68.000000pt" viewBox="0 0 96.000000 68.000000"
 preserveAspectRatio="xMidYMid meet">
<metadata>
Created by potrace 1.16, written by Peter Selinger 2001-2019
</metadata>
<g transform="translate(0.000000,68.000000) scale(0.100000,-0.100000)"
fill="#000000" stroke="none">
<path d="M370 369 c-25 -5 -88 -11 -140 -12 l-95 -2 0 -122 c1 -67 4 -125 7
-129 18 -17 27 15 33 115 l7 108 62 7 c181 20 175 21 186 -9 12 -32 13 -165 1
-184 -5 -8 -18 -12 -30 -8 -29 7 -26 -4 9 -38 29 -28 30 -28 50 -10 17 16 20
31 20 117 0 55 5 109 11 120 22 41 -38 65 -121 47z"/>
</g>
</svg>
