<?xml version="1.0" standalone="no"?>
<!DOCTYPE svg PUBLIC "-//W3C//DTD SVG 20010904//EN"
 "http://www.w3.org/TR/2001/REC-SVG-20010904/DTD/svg10.dtd">
<svg version="1.0" xmlns="http://www.w3.org/2000/svg"
 width="96.000000pt" height="68.000000pt" viewBox="0 0 96.000000 68.000000"
 preserveAspectRatio="xMidYMid meet">
<metadata>
Created by potrace 1.16, written by Peter Selinger 2001-2019
</metadata>
<g transform="translate(0.000000,68.000000) scale(0.100000,-0.100000)"
fill="#000000" stroke="none">
<path d="M405 540 c-11 -5 -38 -9 -61 -9 l-40 -1 4 -82 c5 -101 -16 -205 -58
-297 l-30 -66 34 37 c19 20 43 59 53 88 15 41 22 50 37 46 11 -3 33 6 52 21
l34 25 0 -78 c0 -96 -6 -109 -45 -94 -40 15 -40 7 0 -29 43 -37 50 -38 69 -8
11 17 15 70 18 229 l3 207 -23 11 c-13 5 -24 10 -25 9 -1 0 -11 -4 -22 -9z
m25 -125 c0 -103 -1 -105 -72 -125 l-29 -9 7 52 c8 60 10 65 26 49 17 -17 48
-15 48 3 0 9 -12 18 -30 22 -28 5 -30 8 -30 54 0 47 1 48 33 51 17 2 35 2 40
0 4 -2 7 -46 7 -97z"/>
</g>
</svg>
