<?xml version="1.0" standalone="no"?>
<!DOCTYPE svg PUBLIC "-//W3C//DTD SVG 20010904//EN"
 "http://www.w3.org/TR/2001/REC-SVG-20010904/DTD/svg10.dtd">
<svg version="1.0" xmlns="http://www.w3.org/2000/svg"
 width="96.000000pt" height="68.000000pt" viewBox="0 0 96.000000 68.000000"
 preserveAspectRatio="xMidYMid meet">
<metadata>
Created by potrace 1.16, written by Peter Selinger 2001-2019
</metadata>
<g transform="translate(0.000000,68.000000) scale(0.100000,-0.100000)"
fill="#000000" stroke="none">
<path d="M258 511 l5 -89 -44 -7 c-114 -17 -118 -20 -41 -25 l73 -5 -41 -65
c-23 -36 -58 -82 -78 -102 -29 -30 -32 -38 -18 -38 10 0 47 30 82 66 73 75 73
75 53 -60 -12 -82 -7 -126 16 -126 26 0 35 38 35 154 0 64 2 116 4 116 3 0 18
-14 35 -31 32 -31 51 -31 51 1 0 12 -16 26 -45 40 -62 30 -61 55 3 67 54 9 55
28 0 28 -20 0 -39 2 -42 5 -3 3 -1 32 3 65 9 65 -3 95 -39 95 -16 0 -17 -10
-12 -89z"/>
</g>
</svg>
