<?xml version="1.0" standalone="no"?>
<!DOCTYPE svg PUBLIC "-//W3C//DTD SVG 20010904//EN"
 "http://www.w3.org/TR/2001/REC-SVG-20010904/DTD/svg10.dtd">
<svg version="1.0" xmlns="http://www.w3.org/2000/svg"
 width="96.000000pt" height="68.000000pt" viewBox="0 0 96.000000 68.000000"
 preserveAspectRatio="xMidYMid meet">
<metadata>
Created by potrace 1.16, written by Peter Selinger 2001-2019
</metadata>
<g transform="translate(0.000000,68.000000) scale(0.100000,-0.100000)"
fill="#000000" stroke="none">
<path d="M406 568 c4 -13 9 -66 11 -120 5 -112 15 -103 -127 -113 -52 -3 -115
-8 -139 -12 l-45 -6 29 -24 c21 -19 36 -23 59 -19 17 3 67 10 111 16 44 6 88
13 98 16 15 5 17 -4 17 -84 l0 -89 -37 -7 c-21 -3 -65 -6 -98 -6 -53 0 -58 -2
-44 -15 14 -14 42 -15 239 -6 122 6 224 12 226 14 2 1 -1 9 -6 17 -8 12 -30
14 -116 12 l-106 -3 3 80 c2 43 8 83 12 88 5 4 81 10 169 13 100 3 163 9 165
16 2 5 -13 18 -32 27 -31 15 -48 16 -123 7 -48 -5 -108 -10 -134 -10 l-48 0 0
56 c0 30 5 76 12 101 10 41 9 47 -7 59 -11 8 -36 14 -58 14 -36 0 -39 -2 -31
-22z"/>
</g>
</svg>
