<?xml version="1.0" standalone="no"?>
<!DOCTYPE svg PUBLIC "-//W3C//DTD SVG 20010904//EN"
 "http://www.w3.org/TR/2001/REC-SVG-20010904/DTD/svg10.dtd">
<svg version="1.0" xmlns="http://www.w3.org/2000/svg"
 width="96.000000pt" height="68.000000pt" viewBox="0 0 96.000000 68.000000"
 preserveAspectRatio="xMidYMid meet">
<metadata>
Created by potrace 1.16, written by Peter Selinger 2001-2019
</metadata>
<g transform="translate(0.000000,68.000000) scale(0.100000,-0.100000)"
fill="#000000" stroke="none">
<path d="M235 444 c-28 -8 -67 -12 -89 -9 -34 5 -38 4 -31 -12 12 -27 35 -115
35 -133 0 -26 16 -43 31 -34 18 11 19 11 79 13 46 1 50 3 50 26 0 13 9 50 21
81 12 31 17 60 13 64 -17 17 -60 18 -109 4z m39 -81 c-4 -32 -7 -59 -8 -60 -1
-1 -20 -5 -43 -9 l-40 -6 -8 57 c-8 67 -2 75 63 75 l42 0 -6 -57z"/>
</g>
</svg>
