<?xml version="1.0" standalone="no"?>
<!DOCTYPE svg PUBLIC "-//W3C//DTD SVG 20010904//EN"
 "http://www.w3.org/TR/2001/REC-SVG-20010904/DTD/svg10.dtd">
<svg version="1.0" xmlns="http://www.w3.org/2000/svg"
 width="90.000000pt" height="92.000000pt" viewBox="0 0 90.000000 92.000000"
 preserveAspectRatio="xMidYMid meet">
<metadata>
Created by potrace 1.16, written by Peter Selinger 2001-2019
</metadata>
<g transform="translate(0.000000,92.000000) scale(0.100000,-0.100000)"
fill="#000000" stroke="none">
<path d="M470 872 c0 -4 5 -13 11 -19 6 -6 9 -26 7 -44 l-3 -34 -72 -8 c-40
-5 -73 -12 -73 -17 0 -15 33 -20 96 -14 64 7 64 7 64 -19 0 -31 -8 -34 -118
-43 -45 -4 -85 -11 -88 -15 -11 -19 47 -29 114 -19 94 14 92 14 92 -23 l0 -34
-75 -9 c-99 -12 -98 -30 2 -27 l75 3 -6 -31 c-3 -17 -6 -64 -6 -104 l0 -73
-52 -7 c-29 -3 -65 -8 -80 -11 -25 -5 -28 -2 -28 19 0 22 6 26 47 33 l48 9 8
54 c4 30 6 55 5 56 -2 2 -13 5 -24 9 -21 6 -22 3 -20 -46 1 -51 0 -53 -26 -56
-30 -4 -31 0 -28 54 1 29 -15 43 -50 44 -3 0 -5 -62 -6 -138 -1 -137 -2 -143
-50 -267 -7 -18 -5 -18 18 3 14 13 33 43 43 68 9 24 22 44 28 44 7 0 22 3 35
6 21 6 22 3 22 -47 0 -62 14 -93 30 -69 5 8 10 29 10 47 0 17 5 44 10 59 8 21
8 31 -4 42 -12 13 -20 13 -60 -1 -45 -16 -46 -16 -46 6 0 31 11 43 40 43 14 0
49 3 79 7 l54 8 -9 -73 c-12 -101 -9 -157 8 -174 30 -30 43 9 46 137 l4 118
84 3 84 3 0 -27 c0 -24 -4 -27 -50 -33 -27 -4 -54 -4 -60 0 -7 4 -8 -18 -5
-71 3 -43 7 -79 9 -82 14 -13 26 16 26 64 0 50 2 54 24 54 13 0 31 3 40 6 14
5 15 -3 10 -67 -7 -86 7 -142 30 -118 11 11 15 70 18 246 5 247 6 243 -42 243
-16 0 -17 -4 -8 -36 13 -50 5 -64 -38 -64 -35 0 -36 1 -31 29 6 28 -7 51 -27
51 -12 0 -16 -114 -5 -124 3 -4 19 0 35 9 16 8 39 15 52 15 19 0 22 -5 22 -35
0 -32 -2 -34 -23 -26 -13 5 -42 5 -68 0 -81 -15 -84 -14 -83 34 1 23 2 70 3
104 l1 62 67 3 67 3 2 42 c1 23 5 47 9 52 3 6 39 11 80 11 81 0 99 10 60 36
-19 13 -38 15 -76 11 l-51 -6 16 24 c24 36 20 49 -18 67 -30 15 -39 15 -82 2
-64 -19 -67 -18 -59 15 5 23 2 32 -17 45 -23 17 -68 22 -68 8z m170 -142 c0
-26 -4 -30 -27 -30 -16 0 -38 -3 -50 -6 -20 -6 -23 -3 -23 24 0 34 9 40 63 41
35 1 37 -1 37 -29z m-10 -87 c0 -29 -13 -40 -52 -46 -38 -6 -38 -5 -38 29 0
34 0 34 45 34 36 0 45 -3 45 -17z"/>
<path d="M155 684 c-22 -9 -62 -17 -90 -19 -27 -2 -51 -4 -53 -4 -1 -1 4 -11
12 -23 8 -13 20 -60 26 -105 7 -45 18 -88 26 -94 11 -9 14 -8 14 5 0 12 10 16
39 16 21 0 52 3 68 6 25 5 29 10 30 43 1 20 12 63 24 96 l22 59 -23 18 c-26
21 -42 22 -95 2z m32 -105 c-3 -39 -7 -73 -9 -74 -2 -2 -21 -6 -44 -9 l-41 -7
-7 67 c-7 72 -4 80 34 87 75 13 74 14 67 -64z"/>
</g>
</svg>
