<?xml version="1.0" standalone="no"?>
<!DOCTYPE svg PUBLIC "-//W3C//DTD SVG 20010904//EN"
 "http://www.w3.org/TR/2001/REC-SVG-20010904/DTD/svg10.dtd">
<svg version="1.0" xmlns="http://www.w3.org/2000/svg"
 width="96.000000pt" height="68.000000pt" viewBox="0 0 96.000000 68.000000"
 preserveAspectRatio="xMidYMid meet">
<metadata>
Created by potrace 1.16, written by Peter Selinger 2001-2019
</metadata>
<g transform="translate(0.000000,68.000000) scale(0.100000,-0.100000)"
fill="#000000" stroke="none">
<path d="M523 573 l2 -38 -62 -5 c-87 -7 -90 -20 -5 -20 64 0 72 -2 72 -19 0
-21 -34 -31 -109 -31 -57 0 -85 -14 -47 -24 24 -6 76 -2 134 10 21 4 23 1 20
-23 -3 -26 -7 -28 -63 -35 -87 -11 -89 -16 -6 -17 l74 -1 -7 -127 c-4 -71 -9
-141 -12 -158 -3 -18 1 -38 9 -50 13 -16 17 -17 31 -6 14 11 16 39 16 181 l0
168 60 7 c49 6 60 10 60 25 0 44 9 50 81 50 38 0 69 4 69 9 0 14 -27 21 -76
21 -45 0 -53 7 -32 28 30 30 -55 49 -124 28 -26 -8 -28 -6 -28 22 0 29 -14 42
-46 42 -9 0 -13 -11 -11 -37z m137 -74 c0 -14 -7 -19 -29 -19 -16 0 -36 -3
-45 -6 -12 -5 -16 0 -16 19 0 23 5 26 38 29 46 4 52 2 52 -23z m-10 -59 c0
-13 -10 -24 -26 -30 -41 -16 -54 -12 -54 14 0 18 7 26 23 29 48 9 57 7 57 -13z"/>
</g>
</svg>
