<?xml version="1.0" standalone="no"?>
<!DOCTYPE svg PUBLIC "-//W3C//DTD SVG 20010904//EN"
 "http://www.w3.org/TR/2001/REC-SVG-20010904/DTD/svg10.dtd">
<svg version="1.0" xmlns="http://www.w3.org/2000/svg"
 width="96.000000pt" height="68.000000pt" viewBox="0 0 96.000000 68.000000"
 preserveAspectRatio="xMidYMid meet">
<metadata>
Created by potrace 1.16, written by Peter Selinger 2001-2019
</metadata>
<g transform="translate(0.000000,68.000000) scale(0.100000,-0.100000)"
fill="#000000" stroke="none">
<path d="M682 304 c20 -20 41 -34 46 -30 17 10 3 35 -29 51 -48 25 -55 17 -17
-21z"/>
<path d="M556 318 c13 -23 37 -48 46 -48 20 0 6 41 -18 50 -33 13 -37 13 -28
-2z"/>
<path d="M447 271 c-22 -38 -22 -61 2 -61 22 0 38 49 24 75 -7 12 -12 10 -26
-14z"/>
<path d="M520 250 c27 -52 72 -80 131 -80 47 0 87 19 76 37 -4 6 -22 20 -41
31 l-35 21 9 -24 c11 -29 5 -35 -39 -35 -45 0 -74 19 -91 60 -7 16 -16 30 -21
30 -5 0 0 -18 11 -40z"/>
</g>
</svg>
