<?xml version="1.0" standalone="no"?>
<!DOCTYPE svg PUBLIC "-//W3C//DTD SVG 20010904//EN"
 "http://www.w3.org/TR/2001/REC-SVG-20010904/DTD/svg10.dtd">
<svg version="1.0" xmlns="http://www.w3.org/2000/svg"
 width="96.000000pt" height="68.000000pt" viewBox="0 0 96.000000 68.000000"
 preserveAspectRatio="xMidYMid meet">
<metadata>
Created by potrace 1.16, written by Peter Selinger 2001-2019
</metadata>
<g transform="translate(0.000000,68.000000) scale(0.100000,-0.100000)"
fill="#000000" stroke="none">
<path d="M630 429 c-25 -5 -91 -10 -147 -12 -57 -1 -103 -4 -103 -7 1 -3 7
-13 15 -23 7 -10 19 -41 25 -68 10 -40 16 -49 29 -44 10 3 73 7 140 9 l123 4
35 62 c22 41 31 66 25 72 -15 15 -90 18 -142 7z m80 -36 c-1 -10 -7 -31 -13
-47 -11 -26 -18 -30 -57 -31 -25 -1 -75 -5 -112 -9 l-68 -8 -10 28 c-22 57
-12 68 65 75 39 3 98 6 133 7 53 2 62 0 62 -15z"/>
</g>
</svg>
