<?xml version="1.0" standalone="no"?>
<!DOCTYPE svg PUBLIC "-//W3C//DTD SVG 20010904//EN"
 "http://www.w3.org/TR/2001/REC-SVG-20010904/DTD/svg10.dtd">
<svg version="1.0" xmlns="http://www.w3.org/2000/svg"
 width="90.000000pt" height="92.000000pt" viewBox="0 0 90.000000 92.000000"
 preserveAspectRatio="xMidYMid meet">
<metadata>
Created by potrace 1.16, written by Peter Selinger 2001-2019
</metadata>
<g transform="translate(0.000000,92.000000) scale(0.100000,-0.100000)"
fill="#000000" stroke="none">
<path d="M481 859 c-7 -21 -32 -68 -56 -104 -25 -36 -45 -68 -45 -70 0 -11 38
15 86 58 l49 44 93 5 c101 6 129 18 91 38 -21 12 -71 6 -154 -17 -20 -6 -20
-5 -1 15 23 27 16 47 -22 60 -28 10 -30 9 -41 -29z"/>
<path d="M230 860 c0 -31 -25 -74 -85 -145 -30 -35 -55 -67 -55 -70 0 -12 59
26 109 71 50 45 54 47 123 50 79 4 103 15 68 34 -17 9 -33 9 -67 0 -53 -13
-60 -10 -33 15 28 25 25 34 -15 51 -44 18 -45 18 -45 -6z"/>
<path d="M520 753 c0 -15 55 -63 72 -63 24 0 24 36 1 48 -27 14 -73 23 -73 15z"/>
<path d="M246 705 c29 -45 74 -54 74 -15 0 11 -12 22 -31 29 -53 18 -62 15
-43 -14z"/>
<path d="M644 635 c45 -40 86 -47 86 -14 0 23 -52 49 -97 49 l-28 -1 39 -34z"/>
<path d="M326 651 c-3 -4 6 -19 19 -31 30 -28 29 -29 -68 -66 -99 -38 -73 -53
34 -21 l82 26 28 -30 27 -29 -51 -30 c-43 -25 -48 -30 -27 -30 14 0 44 9 67
19 41 19 42 19 59 0 25 -27 132 -79 165 -79 36 0 42 12 24 46 -8 16 -15 37
-15 47 0 25 -18 21 -22 -5 -4 -33 -41 -34 -93 -3 -25 14 -45 29 -45 34 0 4 22
25 50 47 53 42 59 54 35 74 -12 10 -22 4 -61 -39 -51 -56 -66 -61 -88 -29 -15
21 -14 22 24 39 22 10 40 23 40 29 0 13 -46 13 -71 -1 -17 -9 -25 -6 -44 15
-24 26 -59 34 -69 17z"/>
<path d="M248 464 c-4 -3 11 -31 33 -61 21 -31 39 -59 39 -63 0 -4 -35 -20
-77 -35 -43 -15 -82 -32 -87 -36 -22 -20 26 -18 103 4 l82 24 27 -39 26 -40
-25 -19 c-28 -22 -182 -102 -219 -113 -20 -6 -21 -9 -8 -13 31 -8 141 27 216
68 l73 40 44 -38 c64 -57 168 -105 241 -111 38 -3 64 0 68 6 3 6 -4 43 -18 82
-24 72 -36 95 -36 69 0 -8 -5 -31 -11 -51 -12 -45 -32 -48 -107 -20 -51 20
-142 78 -142 91 0 4 29 29 65 55 36 26 65 51 65 55 0 12 -35 41 -48 41 -7 0
-12 -4 -12 -9 0 -14 -92 -101 -106 -101 -12 0 -54 50 -54 64 0 3 6 6 14 6 8 0
24 8 37 19 23 18 23 18 2 25 -11 4 -33 2 -48 -4 -33 -13 -41 -5 -50 53 -5 28
-13 41 -32 48 -28 10 -47 12 -55 3z"/>
<path d="M420 422 c0 -12 53 -52 68 -52 13 0 22 24 14 37 -10 15 -82 28 -82
15z"/>
</g>
</svg>
