<?xml version="1.0" standalone="no"?>
<!DOCTYPE svg PUBLIC "-//W3C//DTD SVG 20010904//EN"
 "http://www.w3.org/TR/2001/REC-SVG-20010904/DTD/svg10.dtd">
<svg version="1.0" xmlns="http://www.w3.org/2000/svg"
 width="96.000000pt" height="68.000000pt" viewBox="0 0 96.000000 68.000000"
 preserveAspectRatio="xMidYMid meet">
<metadata>
Created by potrace 1.16, written by Peter Selinger 2001-2019
</metadata>
<g transform="translate(0.000000,68.000000) scale(0.100000,-0.100000)"
fill="#000000" stroke="none">
<path d="M560 606 c0 -56 -8 -66 -51 -66 -21 0 -39 -4 -39 -10 0 -5 16 -10 35
-10 39 0 41 -4 20 -40 -31 -55 -8 -55 29 -1 27 38 30 40 103 46 88 9 87 30 -2
29 -30 -1 -55 0 -55 2 0 2 5 15 12 30 11 23 10 28 -7 40 -31 23 -45 17 -45
-20z"/>
<path d="M263 588 c3 -13 9 -33 12 -45 7 -22 5 -23 -54 -23 -66 0 -76 -10 -36
-36 20 -13 31 -14 56 -5 47 16 58 14 65 -14 9 -36 30 -25 26 13 -3 29 0 32 45
46 l48 15 -50 -2 c-49 -2 -50 -2 -53 29 -2 23 -9 34 -25 38 -35 9 -40 7 -34
-16z"/>
</g>
</svg>
