<?xml version="1.0" standalone="no"?>
<!DOCTYPE svg PUBLIC "-//W3C//DTD SVG 20010904//EN"
 "http://www.w3.org/TR/2001/REC-SVG-20010904/DTD/svg10.dtd">
<svg version="1.0" xmlns="http://www.w3.org/2000/svg"
 width="90.000000pt" height="92.000000pt" viewBox="0 0 90.000000 92.000000"
 preserveAspectRatio="xMidYMid meet">
<metadata>
Created by potrace 1.16, written by Peter Selinger 2001-2019
</metadata>
<g transform="translate(0.000000,92.000000) scale(0.100000,-0.100000)"
fill="#000000" stroke="none">
<path d="M474 835 c-4 -8 -2 -21 4 -28 5 -6 12 -46 14 -89 l3 -76 -73 -11
c-40 -6 -82 -11 -92 -11 -11 0 -20 -7 -20 -15 0 -8 4 -15 9 -15 19 0 32 -69
26 -132 -11 -112 -35 -195 -75 -257 -21 -32 -43 -62 -49 -65 -13 -8 -15 -26
-3 -26 5 0 28 17 52 37 44 38 94 129 106 191 3 17 10 32 14 32 10 0 68 -67
106 -121 26 -39 27 -40 8 -55 -41 -32 -96 -65 -142 -85 l-47 -20 49 5 c30 2
76 18 119 40 l70 36 52 -58 c52 -56 53 -57 106 -56 58 0 159 22 159 33 0 4
-32 17 -71 29 -75 24 -161 62 -193 87 -18 13 -18 15 2 42 11 15 31 51 44 78
13 28 31 60 38 72 28 44 -26 68 -107 48 l-33 -7 0 89 0 90 61 7 c34 4 63 5 65
3 5 -5 -13 -65 -27 -91 -13 -22 -10 -21 68 29 36 23 61 46 60 55 -1 8 -21 25
-45 38 -39 22 -46 23 -99 12 -32 -7 -64 -15 -72 -18 -12 -4 -13 6 -9 59 3 35
9 72 13 81 5 13 -2 23 -27 38 -39 24 -57 25 -64 5z m26 -314 l0 -88 -31 -7
c-74 -15 -75 -13 -71 62 6 93 14 110 54 115 18 2 36 5 41 5 4 1 7 -38 7 -87z
m106 -141 c-8 -42 -47 -130 -57 -130 -12 0 -110 123 -103 129 5 5 115 27 153
30 10 1 12 -7 7 -29z"/>
<path d="M115 743 c5 -16 9 -73 9 -128 l1 -99 -44 -8 c-24 -4 -46 -10 -50 -13
-11 -12 25 -25 67 -25 l43 0 -3 -87 -3 -87 -65 -20 c-36 -11 -67 -21 -69 -23
-6 -4 31 -43 51 -54 14 -7 32 0 77 33 33 24 88 61 123 82 71 45 65 57 -12 26
-29 -11 -54 -19 -55 -18 -1 2 1 39 4 82 l6 79 44 11 c25 6 46 16 48 22 6 17
-48 33 -76 23 l-23 -9 5 77 c3 43 8 90 12 106 7 24 4 29 -29 42 -55 23 -70 20
-61 -12z"/>
</g>
</svg>
