<?xml version="1.0" standalone="no"?>
<!DOCTYPE svg PUBLIC "-//W3C//DTD SVG 20010904//EN"
 "http://www.w3.org/TR/2001/REC-SVG-20010904/DTD/svg10.dtd">
<svg version="1.0" xmlns="http://www.w3.org/2000/svg"
 width="90.000000pt" height="92.000000pt" viewBox="0 0 90.000000 92.000000"
 preserveAspectRatio="xMidYMid meet">
<metadata>
Created by potrace 1.16, written by Peter Selinger 2001-2019
</metadata>
<g transform="translate(0.000000,92.000000) scale(0.100000,-0.100000)"
fill="#000000" stroke="none">
<path d="M410 810 c0 -6 16 -35 35 -65 19 -30 31 -56 27 -58 -4 -3 -45 -10
-92 -17 -47 -7 -94 -16 -105 -20 -18 -7 -17 -9 12 -22 29 -12 45 -11 144 9 62
12 154 25 205 29 97 7 119 20 73 45 -21 11 -43 10 -146 -7 -41 -6 -43 -6 -43
19 0 41 -10 57 -51 77 -43 22 -59 25 -59 10z"/>
<path d="M155 623 c-19 -11 -52 -17 -88 -17 -49 1 -57 -2 -51 -15 3 -9 10 -47
16 -86 16 -122 23 -148 36 -153 6 -2 12 3 12 11 0 10 18 16 62 21 71 9 83 13
69 29 -8 11 19 122 43 179 6 12 0 21 -23 32 -37 19 -38 19 -76 -1z m17 -93
c-4 -88 -8 -98 -49 -109 -20 -6 -38 -9 -39 -8 -1 1 -4 36 -7 78 l-5 76 36 10
c62 18 67 14 64 -47z"/>
<path d="M606 534 c83 -94 104 -102 104 -38 0 24 -7 37 -27 52 -29 20 -106 52
-124 52 -6 0 15 -30 47 -66z"/>
<path d="M360 564 c0 -27 -30 -81 -72 -129 -41 -47 -42 -53 -5 -34 32 16 147
131 147 146 0 8 -12 18 -26 23 -35 14 -44 13 -44 -6z"/>
<path d="M540 463 c0 -50 -13 -107 -30 -133 -8 -12 -20 -5 -67 43 -55 54 -85
68 -97 48 -4 -5 9 -18 27 -30 38 -23 97 -93 97 -115 0 -20 -85 -93 -140 -121
-25 -13 -65 -28 -90 -35 -36 -10 -41 -14 -27 -21 44 -25 192 29 263 96 l38 36
73 -77 73 -77 73 6 c79 7 147 23 147 36 0 5 -30 16 -67 25 -78 20 -157 54
-225 97 l-46 30 30 67 c16 37 35 78 41 91 10 20 8 26 -21 52 -18 16 -37 29
-42 29 -6 0 -10 -21 -10 -47z"/>
</g>
</svg>
