<?xml version="1.0" standalone="no"?>
<!DOCTYPE svg PUBLIC "-//W3C//DTD SVG 20010904//EN"
 "http://www.w3.org/TR/2001/REC-SVG-20010904/DTD/svg10.dtd">
<svg version="1.0" xmlns="http://www.w3.org/2000/svg"
 width="90.000000pt" height="92.000000pt" viewBox="0 0 90.000000 92.000000"
 preserveAspectRatio="xMidYMid meet">
<metadata>
Created by potrace 1.16, written by Peter Selinger 2001-2019
</metadata>
<g transform="translate(0.000000,92.000000) scale(0.100000,-0.100000)"
fill="#000000" stroke="none">
<path d="M220 829 c0 -45 -57 -140 -133 -221 -49 -53 -46 -60 11 -24 46 30
119 106 161 168 36 54 37 59 13 81 -26 24 -52 22 -52 -4z"/>
<path d="M535 774 c-27 -9 -81 -16 -118 -16 -65 -1 -68 -2 -62 -22 25 -78 21
-497 -5 -546 -5 -10 -10 -30 -10 -44 0 -25 26 -59 40 -54 14 5 161 150 157
154 -2 3 -29 -7 -61 -21 -31 -14 -59 -25 -63 -25 -7 0 3 270 11 277 2 3 41 6
86 7 59 2 85 7 90 17 9 16 71 251 68 254 -2 1 -14 9 -28 18 -29 20 -39 20
-105 1z m49 -33 c3 -5 3 -29 0 -53 -6 -43 -6 -43 -48 -43 -22 0 -56 -4 -73 -8
l-33 -9 0 50 0 49 53 10 c70 14 95 15 101 4z m-11 -148 c-10 -64 -13 -72 -28
-67 -8 3 -38 1 -66 -5 -29 -6 -54 -9 -56 -7 -3 3 -2 23 2 45 6 39 8 40 58 49
90 17 95 16 90 -15z"/>
<path d="M222 603 c-4 -44 -51 -114 -137 -200 -45 -46 -77 -83 -70 -83 14 0
131 76 140 91 28 44 35 -109 10 -206 -17 -62 -13 -106 10 -125 24 -20 35 29
44 194 7 129 6 154 -6 168 -14 16 -13 21 16 55 62 73 71 85 71 88 0 3 -10 13
-22 25 -31 28 -53 26 -56 -7z"/>
<path d="M636 467 c-3 -13 -19 -43 -37 -66 l-31 -43 -32 31 c-31 30 -66 41
-66 21 0 -5 9 -14 19 -19 10 -6 51 -51 90 -100 39 -49 88 -104 108 -121 32
-29 41 -31 77 -26 55 9 116 28 116 36 0 3 -34 17 -76 30 -74 22 -172 78 -207
117 -17 19 -15 21 53 68 38 27 70 50 70 52 0 5 -63 43 -71 43 -4 0 -9 -10 -13
-23z"/>
</g>
</svg>
