<?xml version="1.0" standalone="no"?>
<!DOCTYPE svg PUBLIC "-//W3C//DTD SVG 20010904//EN"
 "http://www.w3.org/TR/2001/REC-SVG-20010904/DTD/svg10.dtd">
<svg version="1.0" xmlns="http://www.w3.org/2000/svg"
 width="96.000000pt" height="68.000000pt" viewBox="0 0 96.000000 68.000000"
 preserveAspectRatio="xMidYMid meet">
<metadata>
Created by potrace 1.16, written by Peter Selinger 2001-2019
</metadata>
<g transform="translate(0.000000,68.000000) scale(0.100000,-0.100000)"
fill="#000000" stroke="none">
<path d="M430 401 c0 -6 5 -13 10 -16 6 -3 10 -12 10 -20 0 -9 -18 -16 -57
-20 -32 -3 -74 -8 -93 -11 l-35 -6 26 -13 c22 -12 34 -12 80 0 81 22 80 22 77
-37 -3 -52 -4 -53 -32 -51 l-29 2 28 -29 c51 -53 75 -31 75 68 0 71 1 72 108
72 72 1 76 2 57 16 -16 13 -35 14 -97 9 -73 -6 -78 -5 -78 13 0 11 -7 23 -16
26 -22 9 -34 7 -34 -3z"/>
</g>
</svg>
