<?xml version="1.0" standalone="no"?>
<!DOCTYPE svg PUBLIC "-//W3C//DTD SVG 20010904//EN"
 "http://www.w3.org/TR/2001/REC-SVG-20010904/DTD/svg10.dtd">
<svg version="1.0" xmlns="http://www.w3.org/2000/svg"
 width="90.000000pt" height="92.000000pt" viewBox="0 0 90.000000 92.000000"
 preserveAspectRatio="xMidYMid meet">
<metadata>
Created by potrace 1.16, written by Peter Selinger 2001-2019
</metadata>
<g transform="translate(0.000000,92.000000) scale(0.100000,-0.100000)"
fill="#000000" stroke="none">
<path d="M485 831 c-3 -6 -1 -29 5 -53 5 -24 10 -71 10 -105 l0 -62 -37 -6
c-21 -4 -46 -9 -56 -12 -16 -4 -16 -2 3 29 27 45 25 65 -9 82 l-28 15 -12 -53
c-6 -29 -27 -85 -46 -125 -19 -39 -30 -71 -25 -71 4 0 26 20 48 45 39 44 40
45 102 45 l63 0 -7 -46 c-3 -26 -6 -52 -6 -58 0 -8 -36 -17 -92 -25 -145 -20
-150 -22 -137 -37 18 -22 70 -26 144 -10 38 8 71 13 73 12 1 -2 -7 -29 -19
-60 -26 -68 -78 -129 -153 -181 -31 -21 -54 -40 -52 -43 3 -2 27 3 55 13 91
30 175 127 216 250 5 15 15 3 49 -60 47 -89 110 -183 134 -202 17 -14 134 -17
167 -4 17 7 10 13 -45 41 -92 47 -147 91 -212 173 -32 39 -58 74 -58 78 0 9
49 17 160 25 52 3 99 9 103 11 15 9 -25 42 -57 48 -17 3 -64 -1 -104 -9 -40
-9 -84 -16 -98 -16 -24 0 -24 2 -18 53 4 28 8 54 10 55 1 2 22 8 46 13 93 21
118 30 118 44 0 29 -76 29 -154 -1 -14 -5 -15 2 -11 57 3 35 8 79 10 97 4 30
1 35 -30 48 -41 17 -42 17 -50 5z"/>
<path d="M217 765 c-11 -79 -103 -239 -190 -332 -17 -18 -28 -36 -24 -39 8 -8
74 44 120 95 l35 39 7 -34 c7 -40 -1 -175 -17 -284 -9 -66 -9 -80 6 -109 32
-61 40 -26 48 206 7 177 5 220 -6 238 -12 19 -9 29 40 114 30 52 54 99 54 106
0 16 -33 45 -52 45 -11 0 -17 -14 -21 -45z"/>
</g>
</svg>
