<?xml version="1.0" standalone="no"?>
<!DOCTYPE svg PUBLIC "-//W3C//DTD SVG 20010904//EN"
 "http://www.w3.org/TR/2001/REC-SVG-20010904/DTD/svg10.dtd">
<svg version="1.0" xmlns="http://www.w3.org/2000/svg"
 width="90.000000pt" height="92.000000pt" viewBox="0 0 90.000000 92.000000"
 preserveAspectRatio="xMidYMid meet">
<metadata>
Created by potrace 1.16, written by Peter Selinger 2001-2019
</metadata>
<g transform="translate(0.000000,92.000000) scale(0.100000,-0.100000)"
fill="#000000" stroke="none">
<path d="M266 843 c-3 -3 -6 -21 -6 -39 0 -62 -93 -215 -199 -326 -30 -32 -49
-58 -44 -58 15 0 83 48 124 87 33 31 39 33 70 26 28 -8 35 -14 37 -41 3 -29 1
-31 -35 -37 -57 -10 -73 -15 -73 -25 0 -15 39 -22 80 -15 l40 7 1 -64 c0 -34
2 -75 4 -89 3 -24 -1 -27 -47 -37 -27 -7 -74 -12 -104 -12 -30 0 -54 -4 -54
-8 0 -5 14 -21 30 -37 29 -27 33 -28 63 -16 17 7 92 33 166 57 74 24 137 47
140 50 3 3 -1 9 -8 13 -8 5 -40 1 -77 -9 l-64 -19 0 89 c0 95 3 100 59 100 15
0 35 6 46 13 17 13 16 15 -11 24 -16 6 -44 8 -62 5 -30 -4 -32 -3 -32 27 0 28
4 32 45 42 48 12 56 23 28 38 -12 6 -44 2 -96 -11 -43 -11 -81 -18 -83 -15 -2
2 15 33 38 69 24 37 48 74 54 85 11 17 15 15 56 -24 54 -53 81 -57 76 -10 -3
29 -9 34 -56 52 -47 18 -52 22 -47 46 4 17 0 30 -12 41 -26 22 -39 28 -47 21z"/>
<path d="M608 748 c1 -51 3 -119 5 -151 2 -65 5 -62 -88 -73 -78 -9 -96 -18
-66 -34 16 -8 45 -10 90 -5 l66 6 0 -213 c0 -211 6 -268 25 -238 14 23 22 106
29 294 l6 171 35 2 c108 8 160 16 160 24 0 4 -14 16 -32 25 -26 14 -40 14 -86
5 -87 -17 -82 -22 -82 82 0 50 4 109 9 130 8 32 6 39 -12 52 -12 8 -31 15 -42
15 -19 0 -20 -5 -17 -92z"/>
<path d="M369 372 c-7 -20 -19 -47 -27 -59 -21 -34 -3 -28 47 15 45 39 47 53
11 72 -16 8 -20 5 -31 -28z"/>
<path d="M152 309 c38 -68 68 -77 68 -19 0 23 -7 33 -30 45 -16 8 -36 15 -45
15 -14 0 -13 -6 7 -41z"/>
</g>
</svg>
