<?xml version="1.0" standalone="no"?>
<!DOCTYPE svg PUBLIC "-//W3C//DTD SVG 20010904//EN"
 "http://www.w3.org/TR/2001/REC-SVG-20010904/DTD/svg10.dtd">
<svg version="1.0" xmlns="http://www.w3.org/2000/svg"
 width="96.000000pt" height="68.000000pt" viewBox="0 0 96.000000 68.000000"
 preserveAspectRatio="xMidYMid meet">
<metadata>
Created by potrace 1.16, written by Peter Selinger 2001-2019
</metadata>
<g transform="translate(0.000000,68.000000) scale(0.100000,-0.100000)"
fill="#000000" stroke="none">
<path d="M316 598 c-2 -7 -9 -33 -16 -57 -9 -35 -32 -64 -109 -143 -54 -54
-91 -98 -84 -98 18 0 70 27 108 56 31 24 71 24 87 0 14 -20 8 -24 -44 -33 -66
-10 -65 -27 2 -31 l50 -3 0 -58 0 -58 -37 -7 c-21 -3 -59 -6 -85 -6 -26 0 -49
-4 -53 -9 -9 -15 47 -53 70 -48 125 31 285 82 282 91 -4 11 -13 11 -84 0 l-43
-6 0 55 c0 59 7 67 60 67 15 0 33 6 39 14 9 11 7 15 -13 20 -13 3 -38 3 -55 0
-30 -6 -31 -5 -23 17 6 15 20 26 37 29 32 6 44 25 21 33 -9 4 -46 0 -83 -8
-37 -8 -68 -13 -70 -11 -2 1 17 28 41 59 36 47 46 54 56 42 18 -22 74 -52 88
-47 20 6 14 40 -10 56 -13 7 -35 16 -50 20 -19 4 -25 11 -21 25 3 12 -3 24
-18 35 -28 19 -38 20 -43 4z"/>
<path d="M628 491 l4 -108 -62 -7 c-78 -9 -97 -16 -78 -28 7 -4 41 -5 76 -2
l62 6 0 -160 c0 -147 7 -191 25 -161 6 9 23 221 25 300 0 26 2 27 80 33 44 4
80 12 80 17 0 17 -42 26 -89 18 -79 -13 -74 -19 -69 85 5 83 3 94 -13 105 -41
25 -45 17 -41 -98z"/>
<path d="M401 254 c-28 -47 -26 -58 7 -39 59 36 66 43 52 60 -20 24 -36 18
-59 -21z"/>
<path d="M200 244 c0 -3 9 -19 21 -36 14 -19 28 -28 42 -26 29 4 32 23 8 47
-19 19 -71 30 -71 15z"/>
</g>
</svg>
