<?xml version="1.0" standalone="no"?>
<!DOCTYPE svg PUBLIC "-//W3C//DTD SVG 20010904//EN"
 "http://www.w3.org/TR/2001/REC-SVG-20010904/DTD/svg10.dtd">
<svg version="1.0" xmlns="http://www.w3.org/2000/svg"
 width="96.000000pt" height="68.000000pt" viewBox="0 0 96.000000 68.000000"
 preserveAspectRatio="xMidYMid meet">
<metadata>
Created by potrace 1.16, written by Peter Selinger 2001-2019
</metadata>
<g transform="translate(0.000000,68.000000) scale(0.100000,-0.100000)"
fill="#000000" stroke="none">
<path d="M613 298 c-1 -49 -4 -58 -18 -58 -8 0 -15 -5 -15 -11 0 -5 4 -8 9 -4
18 10 24 -17 22 -99 -1 -89 12 -132 25 -80 5 16 8 62 9 102 0 69 1 73 25 78
43 10 47 14 7 10 -20 -3 -35 -1 -32 4 3 4 -1 11 -7 13 -10 4 -10 6 0 6 18 1
15 48 -4 55 -9 3 -17 6 -18 6 -1 0 -2 -10 -3 -22z"/>
<path d="M740 240 c14 -4 43 -8 65 -8 34 0 36 1 15 8 -14 4 -43 8 -65 8 -34 0
-36 -1 -15 -8z"/>
<path d="M560 231 c0 -7 -5 -9 -10 -6 -15 9 -140 -5 -140 -16 0 -5 16 -9 35
-9 19 0 35 5 35 10 0 6 15 8 39 4 36 -6 63 7 47 23 -3 4 -6 1 -6 -6z"/>
</g>
</svg>
