<?xml version="1.0" standalone="no"?>
<!DOCTYPE svg PUBLIC "-//W3C//DTD SVG 20010904//EN"
 "http://www.w3.org/TR/2001/REC-SVG-20010904/DTD/svg10.dtd">
<svg version="1.0" xmlns="http://www.w3.org/2000/svg"
 width="96.000000pt" height="68.000000pt" viewBox="0 0 96.000000 68.000000"
 preserveAspectRatio="xMidYMid meet">
<metadata>
Created by potrace 1.16, written by Peter Selinger 2001-2019
</metadata>
<g transform="translate(0.000000,68.000000) scale(0.100000,-0.100000)"
fill="#000000" stroke="none">
<path d="M517 551 l6 -49 -53 -7 c-36 -5 -48 -10 -39 -16 8 -5 30 -7 50 -3 34
5 37 4 41 -24 4 -29 3 -30 -46 -36 -28 -3 -66 -6 -83 -6 -18 0 -33 -4 -33 -10
0 -5 20 -10 45 -10 25 0 45 -3 45 -6 0 -21 -35 -72 -63 -91 -36 -26 -21 -31
22 -8 42 21 83 74 76 96 -6 17 -1 19 49 19 l56 0 0 -40 c0 -35 4 -42 27 -51
33 -12 149 -8 146 6 -2 6 -33 12 -70 15 -48 4 -67 9 -65 18 1 7 3 24 4 37 2
23 7 25 50 25 48 0 63 12 31 24 -9 4 -48 4 -86 0 l-69 -7 4 29 c3 26 7 29 47
34 65 7 69 33 5 28 l-49 -3 0 33 c0 31 -16 52 -42 52 -9 0 -10 -14 -6 -49z"/>
<path d="M210 500 c21 -27 40 -40 56 -40 13 0 24 2 24 4 0 2 3 11 6 19 9 25
-35 57 -79 57 l-39 0 32 -40z"/>
<path d="M168 358 c-32 -11 -58 -24 -58 -29 0 -5 23 -9 50 -9 54 0 55 -1 40
-31 -9 -15 -6 -26 15 -53 14 -18 25 -43 25 -54 0 -21 -5 -22 -75 -22 -55 0
-75 -3 -75 -13 0 -29 22 -35 119 -30 95 4 98 4 246 -46 82 -28 167 -51 190
-51 42 0 184 35 199 50 13 13 -20 18 -174 25 -87 4 -181 15 -235 27 -49 11
-106 23 -125 27 -33 6 -35 8 -32 42 3 30 -2 40 -25 59 l-28 22 38 33 c42 36
46 50 18 65 -27 14 -46 12 -113 -12z"/>
<path d="M520 301 c0 -41 -13 -51 -69 -51 -42 0 -14 -13 31 -14 39 -1 43 -4
46 -27 3 -26 2 -27 -82 -34 -48 -4 -86 -11 -86 -15 0 -13 31 -17 75 -9 22 4
100 11 173 15 72 4 132 11 132 15 0 5 -40 9 -90 9 -89 0 -90 0 -90 25 0 20 6
25 38 30 78 13 84 30 8 26 -40 -2 -44 0 -39 19 6 23 -12 50 -33 50 -10 0 -14
-13 -14 -39z"/>
</g>
</svg>
