<?xml version="1.0" standalone="no"?>
<!DOCTYPE svg PUBLIC "-//W3C//DTD SVG 20010904//EN"
 "http://www.w3.org/TR/2001/REC-SVG-20010904/DTD/svg10.dtd">
<svg version="1.0" xmlns="http://www.w3.org/2000/svg"
 width="96.000000pt" height="68.000000pt" viewBox="0 0 96.000000 68.000000"
 preserveAspectRatio="xMidYMid meet">
<metadata>
Created by potrace 1.16, written by Peter Selinger 2001-2019
</metadata>
<g transform="translate(0.000000,68.000000) scale(0.100000,-0.100000)"
fill="#000000" stroke="none">
<path d="M278 526 l5 -94 -49 -7 c-82 -11 -104 -16 -104 -26 0 -5 34 -9 75 -9
l76 0 -41 -60 c-22 -33 -69 -83 -103 -112 -59 -49 -60 -51 -29 -45 41 8 112
56 147 99 l26 33 -8 -80 c-15 -152 -4 -210 35 -172 14 14 18 39 20 127 2 61 6
110 10 110 3 0 13 -7 23 -16 21 -19 49 -12 49 11 0 10 -16 23 -40 32 -36 14
-40 20 -40 49 0 32 3 34 45 45 26 7 45 17 45 25 0 14 -14 18 -63 14 -27 -2
-28 0 -23 34 3 20 8 51 11 70 5 28 1 37 -17 50 -12 9 -30 16 -39 16 -14 0 -16
-12 -11 -94z"/>
<path d="M630 564 c-25 -6 -78 -17 -118 -24 -53 -9 -71 -15 -63 -23 8 -8 36
-6 99 6 49 9 94 17 100 17 20 0 13 -20 -18 -53 -16 -18 -30 -35 -30 -39 0 -4
-17 -4 -37 -1 l-38 6 38 -36 c20 -19 37 -37 37 -39 0 -3 -30 -8 -67 -12 -106
-10 -135 -17 -120 -32 3 -4 40 -2 83 3 75 9 76 9 85 -15 5 -14 8 -70 7 -126
l-3 -101 -42 2 c-51 2 -54 -6 -13 -30 17 -10 30 -22 30 -28 0 -19 50 -9 65 14
12 19 14 51 11 164 l-3 140 61 6 c33 3 63 4 65 1 2 -2 -1 -16 -8 -30 -6 -15
-10 -28 -9 -29 6 -6 108 47 108 56 0 4 -14 16 -32 25 -31 16 -39 16 -163 1
-14 -1 -20 4 -19 16 1 9 -2 17 -7 17 -5 0 -9 6 -9 13 0 13 109 87 128 87 16 0
15 15 -2 29 -26 22 -70 28 -116 15z"/>
</g>
</svg>
