<?xml version="1.0" standalone="no"?>
<!DOCTYPE svg PUBLIC "-//W3C//DTD SVG 20010904//EN"
 "http://www.w3.org/TR/2001/REC-SVG-20010904/DTD/svg10.dtd">
<svg version="1.0" xmlns="http://www.w3.org/2000/svg"
 width="96.000000pt" height="68.000000pt" viewBox="0 0 96.000000 68.000000"
 preserveAspectRatio="xMidYMid meet">
<metadata>
Created by potrace 1.16, written by Peter Selinger 2001-2019
</metadata>
<g transform="translate(0.000000,68.000000) scale(0.100000,-0.100000)"
fill="#000000" stroke="none">
<path d="M277 614 c-3 -3 -1 -22 4 -42 5 -20 9 -60 9 -89 0 -57 5 -54 -102
-69 -78 -10 -58 -28 22 -20 49 5 70 4 70 -4 0 -22 -59 -97 -125 -158 -36 -34
-63 -62 -60 -62 25 0 111 58 147 99 l43 50 -8 -112 c-9 -120 -5 -157 17 -157
22 0 26 24 26 148 l0 116 28 -27 c31 -29 47 -34 54 -14 9 23 -3 36 -38 43 -42
8 -48 16 -40 58 5 28 12 33 52 44 56 15 50 37 -8 29 l-40 -5 7 78 7 77 -30 11
c-17 6 -32 8 -35 6z"/>
</g>
</svg>
