<?xml version="1.0" standalone="no"?>
<!DOCTYPE svg PUBLIC "-//W3C//DTD SVG 20010904//EN"
 "http://www.w3.org/TR/2001/REC-SVG-20010904/DTD/svg10.dtd">
<svg version="1.0" xmlns="http://www.w3.org/2000/svg"
 width="96.000000pt" height="68.000000pt" viewBox="0 0 96.000000 68.000000"
 preserveAspectRatio="xMidYMid meet">
<metadata>
Created by potrace 1.16, written by Peter Selinger 2001-2019
</metadata>
<g transform="translate(0.000000,68.000000) scale(0.100000,-0.100000)"
fill="#000000" stroke="none">
<path d="M655 600 c-3 -4 -1 -20 5 -35 5 -14 10 -52 10 -84 l0 -59 -77 -7
c-42 -4 -86 -11 -97 -15 -20 -7 -19 -8 7 -15 25 -7 89 -1 145 12 22 5 22 4 22
-103 0 -149 -3 -158 -51 -151 l-39 5 43 -44 c48 -50 60 -53 81 -22 13 18 16
53 16 169 l0 146 38 7 c20 3 52 6 70 6 17 0 32 4 32 10 0 15 -46 23 -96 17
-40 -4 -44 -3 -44 17 1 11 7 39 15 61 20 55 19 61 -12 73 -52 19 -62 21 -68
12z"/>
</g>
</svg>
