<?xml version="1.0" standalone="no"?>
<!DOCTYPE svg PUBLIC "-//W3C//DTD SVG 20010904//EN"
 "http://www.w3.org/TR/2001/REC-SVG-20010904/DTD/svg10.dtd">
<svg version="1.0" xmlns="http://www.w3.org/2000/svg"
 width="96.000000pt" height="68.000000pt" viewBox="0 0 96.000000 68.000000"
 preserveAspectRatio="xMidYMid meet">
<metadata>
Created by potrace 1.16, written by Peter Selinger 2001-2019
</metadata>
<g transform="translate(0.000000,68.000000) scale(0.100000,-0.100000)"
fill="#000000" stroke="none">
<path d="M139 252 c-9 -2 -19 -17 -23 -33 -9 -45 20 -89 39 -59 3 6 28 10 54
10 39 0 52 -4 63 -22 27 -40 65 17 53 80 -5 27 -10 33 -28 30 -16 -2 -23 -11
-25 -30 -3 -22 -9 -28 -26 -28 -13 0 -37 -3 -54 -6 -29 -6 -31 -4 -34 28 -2
25 -7 33 -19 30z"/>
</g>
</svg>
