<?xml version="1.0" standalone="no"?>
<!DOCTYPE svg PUBLIC "-//W3C//DTD SVG 20010904//EN"
 "http://www.w3.org/TR/2001/REC-SVG-20010904/DTD/svg10.dtd">
<svg version="1.0" xmlns="http://www.w3.org/2000/svg"
 width="96.000000pt" height="68.000000pt" viewBox="0 0 96.000000 68.000000"
 preserveAspectRatio="xMidYMid meet">
<metadata>
Created by potrace 1.16, written by Peter Selinger 2001-2019
</metadata>
<g transform="translate(0.000000,68.000000) scale(0.100000,-0.100000)"
fill="#000000" stroke="none">
<path d="M505 312 c-66 -8 -127 -16 -135 -19 -31 -11 35 -20 90 -12 30 4 79 8
109 8 l54 1 -5 -48 c-3 -27 -13 -66 -24 -88 -17 -35 -23 -39 -55 -39 l-36 0
25 -32 c13 -18 30 -33 36 -33 39 0 83 75 101 175 4 22 11 45 17 52 5 7 7 16 4
22 -14 22 -65 26 -181 13z"/>
</g>
</svg>
