<?xml version="1.0" standalone="no"?>
<!DOCTYPE svg PUBLIC "-//W3C//DTD SVG 20010904//EN"
 "http://www.w3.org/TR/2001/REC-SVG-20010904/DTD/svg10.dtd">
<svg version="1.0" xmlns="http://www.w3.org/2000/svg"
 width="96.000000pt" height="68.000000pt" viewBox="0 0 96.000000 68.000000"
 preserveAspectRatio="xMidYMid meet">
<metadata>
Created by potrace 1.16, written by Peter Selinger 2001-2019
</metadata>
<g transform="translate(0.000000,68.000000) scale(0.100000,-0.100000)"
fill="#000000" stroke="none">
<path d="M509 581 c6 -11 11 -44 11 -74 0 -60 -8 -67 -77 -67 -18 0 -33 -4
-33 -10 0 -6 27 -10 61 -10 l60 0 -3 -37 -3 -38 -82 -8 c-114 -12 -100 -32 16
-23 47 3 144 10 214 15 71 5 131 12 134 14 2 3 -5 11 -18 17 -22 12 -78 10
-179 -6 l-41 -7 3 39 3 39 63 8 c82 11 79 33 -4 30 l-59 -2 0 67 0 67 -38 3
c-36 3 -38 2 -28 -17z"/>
</g>
</svg>
