<?xml version="1.0" standalone="no"?>
<!DOCTYPE svg PUBLIC "-//W3C//DTD SVG 20010904//EN"
 "http://www.w3.org/TR/2001/REC-SVG-20010904/DTD/svg10.dtd">
<svg version="1.0" xmlns="http://www.w3.org/2000/svg"
 width="90.000000pt" height="92.000000pt" viewBox="0 0 90.000000 92.000000"
 preserveAspectRatio="xMidYMid meet">
<metadata>
Created by potrace 1.16, written by Peter Selinger 2001-2019
</metadata>
<g transform="translate(0.000000,92.000000) scale(0.100000,-0.100000)"
fill="#000000" stroke="none">
<path d="M591 797 c-11 -28 -70 -81 -139 -126 -59 -38 -62 -49 -7 -31 20 7 38
10 39 8 9 -11 65 -122 63 -124 -1 -1 -33 -9 -71 -16 -76 -16 -90 -28 -52 -46
21 -9 42 -5 125 23 56 18 101 31 101 28 0 -12 -75 -99 -128 -150 -45 -43 -63
-53 -101 -58 -25 -4 -53 -7 -61 -8 -11 -2 -9 -8 8 -25 16 -16 29 -21 40 -16
45 22 90 8 201 -59 61 -37 118 -67 128 -67 24 1 136 62 141 78 3 9 -13 12 -55
12 -32 0 -87 5 -122 11 -63 10 -201 58 -201 69 0 4 21 21 48 38 59 39 206 171
210 189 2 8 -12 20 -34 29 -34 14 -41 14 -78 0 -45 -17 -67 -20 -64 -8 1 4 -1
21 -5 39 -5 24 -16 37 -42 51 l-36 18 63 38 c35 21 75 46 90 55 37 22 35 39
-7 57 -44 18 -44 18 -54 -9z"/>
<path d="M215 760 c-39 -10 -85 -16 -104 -13 -31 5 -33 4 -25 -13 13 -29 17
-207 5 -281 -8 -53 -7 -73 4 -101 13 -29 17 -33 30 -22 9 7 18 10 22 6 11 -11
-32 -89 -82 -150 -26 -32 -45 -60 -42 -62 9 -9 85 56 141 119 46 53 56 70 47
81 -9 11 -7 15 11 20 40 10 76 6 82 -9 8 -22 25 -18 35 8 5 13 10 108 12 212
l4 189 -30 18 c-17 10 -32 17 -35 17 -3 -1 -36 -9 -75 -19z m69 -52 c3 -13 6
-34 6 -48 0 -23 -5 -26 -65 -38 -35 -6 -69 -12 -75 -12 -5 0 -10 22 -10 49 0
48 1 49 38 59 67 18 99 15 106 -10z m6 -152 l0 -43 -61 -7 c-33 -4 -67 -10
-75 -13 -11 -4 -14 5 -14 39 l0 45 68 10 c37 5 70 11 75 11 4 1 7 -18 7 -42z
m0 -120 l0 -43 -57 -6 c-32 -4 -68 -10 -81 -13 -22 -6 -23 -5 -18 37 2 24 5
47 5 51 1 4 25 9 54 11 28 2 62 4 75 5 20 2 22 -3 22 -42z"/>
<path d="M250 305 c0 -9 62 -118 78 -137 31 -36 45 18 18 70 -12 24 -96 83
-96 67z"/>
</g>
</svg>
