<?xml version="1.0" standalone="no"?>
<!DOCTYPE svg PUBLIC "-//W3C//DTD SVG 20010904//EN"
 "http://www.w3.org/TR/2001/REC-SVG-20010904/DTD/svg10.dtd">
<svg version="1.0" xmlns="http://www.w3.org/2000/svg"
 width="96.000000pt" height="68.000000pt" viewBox="0 0 96.000000 68.000000"
 preserveAspectRatio="xMidYMid meet">
<metadata>
Created by potrace 1.16, written by Peter Selinger 2001-2019
</metadata>
<g transform="translate(0.000000,68.000000) scale(0.100000,-0.100000)"
fill="#000000" stroke="none">
<path d="M665 379 c-22 -4 -62 -8 -90 -8 l-50 -1 0 -129 c0 -131 5 -157 28
-129 8 11 37 18 87 22 l75 6 17 -30 c20 -36 33 -38 52 -7 21 33 26 264 6 277
-18 11 -69 11 -125 -1z m85 -58 l0 -38 -52 -6 c-29 -4 -72 -10 -96 -13 l-43
-7 3 44 c3 42 5 44 38 50 19 4 61 7 93 8 l57 1 0 -39z m0 -111 l0 -50 -64 0
c-35 0 -78 -3 -95 -6 l-31 -6 0 44 0 45 83 10 c45 5 88 10 95 11 8 1 12 -14
12 -48z"/>
</g>
</svg>
