<?xml version="1.0" standalone="no"?>
<!DOCTYPE svg PUBLIC "-//W3C//DTD SVG 20010904//EN"
 "http://www.w3.org/TR/2001/REC-SVG-20010904/DTD/svg10.dtd">
<svg version="1.0" xmlns="http://www.w3.org/2000/svg"
 width="96.000000pt" height="68.000000pt" viewBox="0 0 96.000000 68.000000"
 preserveAspectRatio="xMidYMid meet">
<metadata>
Created by potrace 1.16, written by Peter Selinger 2001-2019
</metadata>
<g transform="translate(0.000000,68.000000) scale(0.100000,-0.100000)"
fill="#000000" stroke="none">
<path d="M565 428 c-33 -5 -74 -7 -90 -4 -26 3 -34 -1 -53 -30 -12 -18 -22
-41 -22 -49 0 -27 37 -16 57 18 19 31 22 33 119 44 107 13 128 7 106 -27 -18
-29 -17 -29 43 -6 30 11 55 26 55 32 0 31 -93 41 -215 22z"/>
</g>
</svg>
