<?xml version="1.0" standalone="no"?>
<!DOCTYPE svg PUBLIC "-//W3C//DTD SVG 20010904//EN"
 "http://www.w3.org/TR/2001/REC-SVG-20010904/DTD/svg10.dtd">
<svg version="1.0" xmlns="http://www.w3.org/2000/svg"
 width="90.000000pt" height="92.000000pt" viewBox="0 0 90.000000 92.000000"
 preserveAspectRatio="xMidYMid meet">
<metadata>
Created by potrace 1.16, written by Peter Selinger 2001-2019
</metadata>
<g transform="translate(0.000000,92.000000) scale(0.100000,-0.100000)"
fill="#000000" stroke="none">
<path d="M484 808 c3 -24 8 -77 11 -120 7 -85 11 -80 -68 -94 l-39 -7 7 57 c6
49 5 59 -11 71 -32 24 -39 17 -39 -42 -1 -32 -4 -71 -8 -88 -5 -20 -3 -36 6
-47 13 -17 16 -17 54 2 22 11 89 29 148 41 111 22 114 22 129 -16 9 -24 27 16
41 91 15 73 14 80 -2 91 -9 7 -24 13 -34 13 -14 0 -16 -8 -12 -63 l5 -64 -47
-6 c-95 -13 -89 -21 -83 98 5 95 4 106 -12 115 -40 21 -52 13 -46 -32z"/>
<path d="M180 690 c-36 -10 -83 -21 -105 -25 -38 -6 -39 -8 -20 -21 11 -9 36
-14 55 -12 l35 3 5 -68 c3 -38 2 -71 -1 -73 -3 -2 -25 -6 -47 -10 -65 -10 -48
-34 24 -34 l35 0 -3 -72 -3 -73 -75 -25 c-41 -14 -77 -26 -79 -27 -8 -5 31
-42 50 -48 11 -4 43 10 86 38 37 24 92 59 122 78 58 36 56 50 -4 25 -21 -9
-41 -16 -46 -16 -5 0 -9 31 -9 69 l0 69 46 7 c54 8 55 29 2 33 l-36 3 -4 69
-3 69 35 6 c20 3 42 10 50 16 13 8 12 12 -4 24 -23 18 -23 18 -106 -5z"/>
<path d="M569 490 c-14 -4 -65 -13 -113 -20 -90 -14 -111 -32 -43 -38 43 -4
47 -20 21 -76 -14 -28 -24 -35 -56 -40 -21 -3 -49 -4 -62 0 l-24 6 4 -84 c6
-106 13 -148 23 -148 15 0 21 30 21 110 l0 77 42 6 c24 3 45 4 47 1 2 -2 7
-37 10 -78 4 -41 10 -78 14 -83 17 -16 27 25 25 99 l-3 76 40 5 c21 3 43 3 47
1 4 -3 8 -50 8 -105 0 -54 4 -99 8 -99 13 0 32 72 32 121 0 72 8 88 46 95 19
3 45 3 59 0 24 -6 25 -10 25 -74 0 -37 -3 -78 -7 -91 -5 -21 -10 -23 -54 -19
l-48 5 31 -44 c44 -61 53 -67 77 -53 32 17 44 48 57 150 7 52 15 102 19 111 4
12 -4 25 -29 44 -33 25 -37 26 -93 15 -32 -6 -102 -17 -156 -24 l-98 -13 24
26 c46 51 50 60 38 75 -9 11 -1 14 46 20 32 4 75 11 96 17 32 8 36 13 27 25
-13 15 -59 17 -101 4z"/>
</g>
</svg>
