<?xml version="1.0" standalone="no"?>
<!DOCTYPE svg PUBLIC "-//W3C//DTD SVG 20010904//EN"
 "http://www.w3.org/TR/2001/REC-SVG-20010904/DTD/svg10.dtd">
<svg version="1.0" xmlns="http://www.w3.org/2000/svg"
 width="96.000000pt" height="68.000000pt" viewBox="0 0 96.000000 68.000000"
 preserveAspectRatio="xMidYMid meet">
<metadata>
Created by potrace 1.16, written by Peter Selinger 2001-2019
</metadata>
<g transform="translate(0.000000,68.000000) scale(0.100000,-0.100000)"
fill="#000000" stroke="none">
<path d="M470 270 c-19 -5 -68 -12 -107 -15 -40 -4 -73 -11 -73 -15 0 -4 12
-12 26 -19 14 -6 41 -23 60 -38 28 -21 32 -28 22 -40 -18 -22 -106 -64 -177
-84 -83 -24 -90 -33 -18 -25 72 8 171 40 210 68 20 14 34 18 42 12 123 -87
137 -94 194 -93 31 0 79 6 106 13 l50 12 -60 12 c-111 23 -265 75 -265 90 0 4
23 30 52 59 l51 52 -27 11 c-31 11 -37 11 -86 0z m24 -18 c6 -10 -42 -72 -56
-72 -5 0 -24 10 -41 22 l-31 22 54 17 c67 21 68 21 74 11z"/>
</g>
</svg>
