<?xml version="1.0" standalone="no"?>
<!DOCTYPE svg PUBLIC "-//W3C//DTD SVG 20010904//EN"
 "http://www.w3.org/TR/2001/REC-SVG-20010904/DTD/svg10.dtd">
<svg version="1.0" xmlns="http://www.w3.org/2000/svg"
 width="96.000000pt" height="68.000000pt" viewBox="0 0 96.000000 68.000000"
 preserveAspectRatio="xMidYMid meet">
<metadata>
Created by potrace 1.16, written by Peter Selinger 2001-2019
</metadata>
<g transform="translate(0.000000,68.000000) scale(0.100000,-0.100000)"
fill="#000000" stroke="none">
<path d="M524 595 c-9 -19 -32 -48 -51 -65 -19 -17 -32 -34 -29 -39 3 -4 -29
-11 -72 -15 -42 -4 -87 -10 -99 -13 -43 -10 -11 -23 58 -23 l70 0 -3 -27 c-3
-27 -6 -28 -63 -31 -89 -5 -94 -22 -7 -22 l72 0 0 -29 c0 -28 -1 -28 -67 -34
-38 -4 -87 -7 -110 -7 -23 0 -44 -4 -47 -9 -10 -15 49 -23 109 -16 30 4 55 4
55 1 0 -4 -6 -21 -14 -39 -19 -44 -80 -100 -144 -132 -57 -29 -63 -41 -13 -30
71 15 237 163 212 188 -19 19 -12 27 23 27 40 0 46 -13 46 -112 0 -61 3 -69
30 -97 38 -38 75 -45 199 -39 70 3 104 10 124 23 33 21 33 29 6 90 l-21 48
-17 -49 c-14 -43 -21 -51 -56 -62 -24 -8 -70 -12 -112 -10 -59 3 -77 8 -95 26
-26 25 -29 81 -8 133 11 25 11 32 0 39 -22 14 10 18 98 12 69 -4 82 -3 82 10
0 22 -47 29 -151 21 l-91 -6 4 29 c3 28 5 29 81 38 42 4 77 12 77 17 0 5 -6 9
-12 10 -25 2 -83 -2 -110 -7 -25 -5 -28 -3 -28 24 0 29 1 29 72 36 75 7 96 16
83 36 -5 9 -28 11 -79 6 l-71 -6 75 38 c41 22 76 46 78 55 3 16 -33 47 -55 47
-7 0 -20 -16 -29 -35z"/>
<path d="M280 584 c0 -3 12 -23 28 -45 42 -60 72 -63 72 -8 0 25 -6 33 -35 45
-36 15 -65 18 -65 8z"/>
</g>
</svg>
