<?xml version="1.0" standalone="no"?>
<!DOCTYPE svg PUBLIC "-//W3C//DTD SVG 20010904//EN"
 "http://www.w3.org/TR/2001/REC-SVG-20010904/DTD/svg10.dtd">
<svg version="1.0" xmlns="http://www.w3.org/2000/svg"
 width="90.000000pt" height="92.000000pt" viewBox="0 0 90.000000 92.000000"
 preserveAspectRatio="xMidYMid meet">
<metadata>
Created by potrace 1.16, written by Peter Selinger 2001-2019
</metadata>
<g transform="translate(0.000000,92.000000) scale(0.100000,-0.100000)"
fill="#000000" stroke="none">
<path d="M480 806 c0 -45 -57 -179 -109 -257 -23 -34 -40 -64 -38 -66 2 -2 25
15 50 37 l46 41 7 -27 c9 -36 -3 -293 -17 -364 -9 -46 -8 -63 5 -93 8 -20 20
-37 26 -37 16 0 30 46 30 103 l0 52 38 1 c73 1 297 15 322 20 l25 6 -25 20
c-22 18 -34 19 -102 13 l-78 -6 0 50 0 50 48 6 c60 8 72 12 72 24 0 13 -53 23
-84 15 -25 -6 -26 -4 -26 35 0 41 0 41 38 41 20 0 44 5 52 10 24 16 -7 31 -53
27 -39 -3 -39 -2 -34 29 3 17 0 37 -6 43 -6 6 -9 11 -6 11 14 0 125 23 132 27
4 3 2 12 -4 20 -10 11 -25 13 -66 8 -52 -6 -53 -6 -53 19 0 28 -27 50 -72 61
-34 9 -35 3 -3 -51 14 -24 21 -45 16 -48 -5 -3 -41 -9 -81 -12 l-72 -7 43 79
c23 43 47 85 52 92 12 16 -28 62 -55 62 -14 0 -18 -8 -18 -34z m124 -242 c3
-9 6 -28 6 -44 0 -24 -5 -28 -37 -34 -21 -3 -50 -6 -64 -6 -23 0 -25 3 -21 29
2 16 -1 38 -7 50 -11 20 -10 21 53 21 49 0 65 -4 70 -16z m6 -148 c0 -19 -3
-37 -7 -39 -5 -3 -34 -8 -65 -11 l-58 -7 0 45 0 46 65 0 65 0 0 -34z m0 -127
c0 -53 4 -50 -97 -62 l-33 -4 0 56 0 56 65 1 65 1 0 -48z"/>
<path d="M217 823 c-3 -5 -8 -24 -12 -43 -11 -52 -61 -145 -101 -190 -31 -34
-34 -41 -22 -59 15 -25 16 -25 79 -5 27 9 52 14 55 12 5 -6 -75 -117 -99 -137
-21 -17 -21 -30 0 -53 14 -16 18 -16 32 -4 9 8 47 28 84 45 56 25 69 28 73 16
4 -8 12 -15 19 -15 39 0 28 63 -15 85 -39 20 -43 19 -36 -10 6 -23 2 -28 -36
-45 -89 -40 -86 -31 31 115 45 55 81 107 81 116 0 15 -30 49 -43 49 -4 0 -7
-6 -7 -12 0 -7 -11 -36 -24 -64 -23 -50 -25 -51 -76 -58 -29 -4 -55 -4 -58 -1
-3 3 27 53 67 111 l73 106 -23 24 c-23 25 -35 29 -42 17z"/>
<path d="M270 343 c0 -17 51 -83 64 -83 13 0 26 20 26 41 0 10 -37 34 -67 44
-13 3 -23 3 -23 -2z"/>
<path d="M174 272 c8 -15 23 -35 34 -45 20 -18 21 -18 31 1 14 27 4 51 -26 63
-46 17 -55 13 -39 -19z"/>
<path d="M40 252 c0 -4 15 -32 33 -62 39 -67 62 -72 62 -15 0 33 -5 43 -34 62
-34 23 -61 30 -61 15z"/>
</g>
</svg>
