<?xml version="1.0" standalone="no"?>
<!DOCTYPE svg PUBLIC "-//W3C//DTD SVG 20010904//EN"
 "http://www.w3.org/TR/2001/REC-SVG-20010904/DTD/svg10.dtd">
<svg version="1.0" xmlns="http://www.w3.org/2000/svg"
 width="96.000000pt" height="68.000000pt" viewBox="0 0 96.000000 68.000000"
 preserveAspectRatio="xMidYMid meet">
<metadata>
Created by potrace 1.16, written by Peter Selinger 2001-2019
</metadata>
<g transform="translate(0.000000,68.000000) scale(0.100000,-0.100000)"
fill="#000000" stroke="none">
<path d="M500 571 c0 -32 -46 -124 -89 -179 -46 -57 -45 -65 5 -27 18 14 35
25 38 25 10 0 6 -178 -5 -252 -8 -51 -8 -77 0 -94 15 -35 39 -30 45 9 8 50 12
337 5 337 -23 0 -14 39 21 94 46 72 48 81 21 96 -29 15 -41 12 -41 -9z"/>
</g>
</svg>
