<?xml version="1.0" standalone="no"?>
<!DOCTYPE svg PUBLIC "-//W3C//DTD SVG 20010904//EN"
 "http://www.w3.org/TR/2001/REC-SVG-20010904/DTD/svg10.dtd">
<svg version="1.0" xmlns="http://www.w3.org/2000/svg"
 width="96.000000pt" height="68.000000pt" viewBox="0 0 96.000000 68.000000"
 preserveAspectRatio="xMidYMid meet">
<metadata>
Created by potrace 1.16, written by Peter Selinger 2001-2019
</metadata>
<g transform="translate(0.000000,68.000000) scale(0.100000,-0.100000)"
fill="#000000" stroke="none">
<path d="M225 570 c-3 -5 -1 -18 5 -29 13 -25 13 -191 -1 -341 -11 -120 -4
-167 23 -158 23 8 27 36 34 202 3 93 9 164 13 159 10 -16 51 -34 61 -28 24 15
9 42 -30 55 l-39 13 6 57 6 57 -33 12 c-40 13 -37 13 -45 1z"/>
<path d="M556 505 l7 -75 -51 0 -51 0 10 33 c7 26 6 34 -8 45 -27 19 -33 15
-33 -26 0 -21 -4 -42 -10 -48 -12 -12 -1 -54 15 -54 7 0 30 6 51 14 40 14 168
32 194 27 8 -2 18 -8 21 -13 14 -22 32 0 46 52 14 56 11 66 -21 72 -16 3 -19
-4 -20 -42 l-1 -45 -54 -3 -54 -3 5 65 c5 59 4 65 -16 70 -11 3 -25 6 -29 6
-4 0 -5 -34 -1 -75z"/>
<path d="M140 370 c-11 -21 -20 -53 -20 -70 0 -27 3 -31 22 -28 28 4 52 67 43
110 -9 38 -21 35 -45 -12z"/>
<path d="M550 338 c-41 -5 -86 -12 -100 -16 -21 -5 -17 -7 20 -11 41 -5 45 -8
42 -31 -4 -43 -39 -63 -98 -56 l-52 6 5 -68 c6 -100 11 -116 28 -102 10 9 15
33 15 76 l0 64 40 0 c39 0 40 -1 41 -37 1 -63 11 -94 25 -80 3 3 8 33 11 66 5
56 8 61 29 61 13 0 27 0 32 0 4 0 9 -29 12 -65 3 -36 10 -66 15 -66 6 0 14 21
18 48 18 102 13 94 65 91 47 -3 47 -3 50 -42 2 -22 1 -50 -3 -64 -5 -21 -10
-23 -35 -18 -38 7 -40 -11 -5 -44 23 -22 25 -22 49 -6 26 16 39 52 51 138 6
44 4 48 -22 61 -24 12 -43 12 -133 0 -132 -17 -140 -15 -105 19 15 15 24 31
21 37 -6 10 15 16 97 27 26 3 47 10 47 15 0 11 -57 10 -160 -3z"/>
</g>
</svg>
