<?xml version="1.0" standalone="no"?>
<!DOCTYPE svg PUBLIC "-//W3C//DTD SVG 20010904//EN"
 "http://www.w3.org/TR/2001/REC-SVG-20010904/DTD/svg10.dtd">
<svg version="1.0" xmlns="http://www.w3.org/2000/svg"
 width="90.000000pt" height="92.000000pt" viewBox="0 0 90.000000 92.000000"
 preserveAspectRatio="xMidYMid meet">
<metadata>
Created by potrace 1.16, written by Peter Selinger 2001-2019
</metadata>
<g transform="translate(0.000000,92.000000) scale(0.100000,-0.100000)"
fill="#000000" stroke="none">
<path d="M595 779 c-44 -9 -98 -18 -120 -18 -56 -2 -75 -15 -45 -31 39 -21
298 10 307 36 3 10 -40 36 -55 33 -4 -1 -43 -10 -87 -20z"/>
<path d="M145 768 c10 -34 26 -160 21 -166 -3 -2 -35 -5 -71 -5 -65 -1 -74 -4
-56 -22 6 -6 15 -41 21 -80 11 -68 27 -105 39 -87 3 5 21 12 39 15 l32 6 0
-64 c0 -62 -1 -66 -27 -77 -16 -6 -51 -11 -80 -12 -28 -1 -54 -4 -58 -7 -3 -4
11 -21 30 -38 l36 -32 32 20 c18 11 70 36 117 56 79 34 85 35 97 19 7 -10 13
-21 13 -26 0 -16 30 -7 31 10 4 53 -13 82 -63 108 -30 15 -36 7 -18 -26 8 -15
4 -20 -28 -33 l-37 -15 -3 55 c-2 30 -1 58 2 61 4 3 31 7 62 10 41 3 54 8 50
18 -3 7 6 38 19 69 14 31 25 59 25 63 0 4 -14 16 -30 26 -29 17 -52 17 -112 0
-14 -4 -15 2 -11 38 2 24 8 55 13 69 4 14 5 31 1 36 -10 16 -48 33 -72 33 -18
0 -20 -4 -14 -22z m141 -230 c-4 -29 -8 -53 -9 -54 -1 -1 -17 -5 -34 -9 l-33
-7 0 55 c0 59 5 65 54 66 l29 1 -7 -52z m-116 -23 c0 -54 0 -55 -30 -55 -25 0
-30 4 -30 24 0 13 -3 38 -6 55 -6 30 -6 31 30 31 l36 0 0 -55z"/>
<path d="M669 676 c-7 -7 -194 -36 -230 -36 -30 0 -31 -1 -16 -18 9 -10 21
-40 27 -67 13 -60 27 -85 38 -69 4 7 39 15 77 18 144 13 157 16 145 31 -13 15
-2 42 24 65 24 19 19 38 -16 60 -34 21 -42 23 -49 16z m-21 -45 c9 -5 11 -19
7 -43 -6 -32 -11 -36 -43 -42 -21 -3 -56 -6 -79 -6 -42 0 -43 1 -43 35 0 31 3
35 38 44 20 5 51 12 67 14 17 2 32 5 35 5 3 1 11 -2 18 -7z"/>
<path d="M620 444 c-58 -7 -140 -14 -182 -15 -43 -1 -78 -3 -78 -6 0 -2 7 -14
16 -28 9 -13 21 -72 29 -137 7 -62 16 -121 20 -130 9 -22 21 -23 28 -4 6 15
46 21 178 29 l67 5 18 -39 c12 -23 25 -38 34 -37 25 5 48 68 60 163 6 50 16
107 22 129 11 36 11 40 -16 62 -31 27 -41 27 -196 8z m140 -76 l0 -43 -75 0
-75 -1 0 37 c0 21 -6 40 -12 42 -7 3 26 6 75 6 l87 1 0 -42z m-209 -15 c5 -41
4 -43 -22 -43 -14 0 -41 -3 -58 -6 l-31 -6 0 45 c0 50 9 56 75 53 27 -1 30 -5
36 -43z m204 -80 c-2 -10 -7 -35 -10 -56 -5 -34 -8 -36 -27 -26 -11 6 -43 9
-70 7 l-49 -5 3 41 3 41 65 6 c36 3 70 6 77 7 6 1 10 -6 8 -15z m-195 -42 c0
-37 -2 -39 -37 -45 -71 -11 -73 -10 -73 39 l0 45 55 0 55 0 0 -39z"/>
</g>
</svg>
