<?xml version="1.0" standalone="no"?>
<!DOCTYPE svg PUBLIC "-//W3C//DTD SVG 20010904//EN"
 "http://www.w3.org/TR/2001/REC-SVG-20010904/DTD/svg10.dtd">
<svg version="1.0" xmlns="http://www.w3.org/2000/svg"
 width="96.000000pt" height="68.000000pt" viewBox="0 0 96.000000 68.000000"
 preserveAspectRatio="xMidYMid meet">
<metadata>
Created by potrace 1.16, written by Peter Selinger 2001-2019
</metadata>
<g transform="translate(0.000000,68.000000) scale(0.100000,-0.100000)"
fill="#000000" stroke="none">
<path d="M548 257 c-103 -11 -133 -27 -48 -27 l50 0 0 -54 c0 -30 -4 -57 -8
-60 -5 -3 -49 -6 -99 -7 -104 -2 -135 -12 -81 -27 22 -6 64 -7 110 -1 40 4
142 8 226 9 97 0 152 4 152 10 0 23 -56 31 -158 24 l-104 -7 8 34 c5 19 8 46
8 62 -1 25 2 27 40 27 48 0 77 14 51 24 -9 3 -24 5 -33 4 -9 0 -61 -6 -114
-11z"/>
</g>
</svg>
