<?xml version="1.0" standalone="no"?>
<!DOCTYPE svg PUBLIC "-//W3C//DTD SVG 20010904//EN"
 "http://www.w3.org/TR/2001/REC-SVG-20010904/DTD/svg10.dtd">
<svg version="1.0" xmlns="http://www.w3.org/2000/svg"
 width="96.000000pt" height="68.000000pt" viewBox="0 0 96.000000 68.000000"
 preserveAspectRatio="xMidYMid meet">
<metadata>
Created by potrace 1.16, written by Peter Selinger 2001-2019
</metadata>
<g transform="translate(0.000000,68.000000) scale(0.100000,-0.100000)"
fill="#000000" stroke="none">
<path d="M296 556 c3 -14 1 -41 -6 -61 -13 -40 -40 -55 -96 -55 -52 0 -41 -18
14 -22 l47 -3 -83 -83 c-45 -45 -80 -82 -77 -82 32 0 135 82 183 145 21 27 25
28 45 15 129 -82 149 -89 155 -56 4 18 -57 50 -120 63 -32 7 -32 7 21 18 30 5
56 16 59 24 4 12 -7 13 -56 8 l-62 -7 23 46 c21 45 22 46 3 60 -11 8 -28 14
-38 14 -15 0 -17 -5 -12 -24z"/>
</g>
</svg>
