<?xml version="1.0" standalone="no"?>
<!DOCTYPE svg PUBLIC "-//W3C//DTD SVG 20010904//EN"
 "http://www.w3.org/TR/2001/REC-SVG-20010904/DTD/svg10.dtd">
<svg version="1.0" xmlns="http://www.w3.org/2000/svg"
 width="96.000000pt" height="68.000000pt" viewBox="0 0 96.000000 68.000000"
 preserveAspectRatio="xMidYMid meet">
<metadata>
Created by potrace 1.16, written by Peter Selinger 2001-2019
</metadata>
<g transform="translate(0.000000,68.000000) scale(0.100000,-0.100000)"
fill="#000000" stroke="none">
<path d="M265 551 c6 -45 5 -49 -17 -55 -13 -3 -35 -6 -50 -6 -15 0 -29 -4
-32 -9 -8 -12 19 -21 65 -21 35 0 39 -3 39 -25 0 -14 -4 -25 -10 -25 -5 0 -10
-4 -10 -10 0 -5 6 -10 13 -10 7 0 13 -9 14 -19 1 -15 -6 -20 -37 -23 -27 -2
-41 1 -45 10 -9 25 -5 32 20 32 14 0 25 4 25 10 0 5 -10 8 -22 6 -13 -3 -36
-5 -52 -5 -25 -1 -27 -3 -15 -17 7 -9 15 -26 16 -37 12 -77 32 -113 48 -87 3
6 17 10 31 10 20 0 24 -5 24 -29 0 -33 -7 -36 -112 -46 -41 -5 -65 -11 -62
-17 4 -7 36 -8 85 -3 l79 6 -1 -66 c-1 -49 3 -71 14 -83 15 -14 17 -13 27 12
5 15 10 54 10 86 l0 59 61 7 c74 8 65 29 -12 25 -49 -2 -50 -2 -47 25 2 20 9
28 27 31 14 2 28 -2 32 -9 9 -15 39 7 39 29 0 7 11 36 25 62 l24 49 -31 15
c-17 8 -36 14 -42 12 -56 -17 -66 -15 -66 9 0 20 6 25 45 30 24 4 47 11 50 17
9 13 -43 31 -68 23 -18 -6 -19 -3 -14 25 6 29 4 33 -28 47 -19 8 -37 14 -41
14 -3 0 -3 -22 1 -49z m125 -166 c0 -23 -4 -25 -40 -25 -35 0 -40 3 -38 23 2
18 9 22 40 25 35 2 38 0 38 -23z m-12 -57 c-2 -18 -11 -24 -35 -26 -27 -3 -33
0 -33 17 0 18 13 25 58 30 8 0 12 -7 10 -21z m-98 -10 c0 -22 -14 -33 -42 -34
-23 -1 -28 3 -28 22 0 21 5 24 35 24 21 0 35 -5 35 -12z"/>
<path d="M560 546 c11 -14 40 -108 40 -133 0 -7 -21 -15 -47 -18 -27 -4 -57
-9 -67 -12 -17 -5 -18 -6 -3 -15 11 -5 37 -5 69 1 61 11 56 15 94 -89 42 -115
136 -240 181 -240 26 0 27 3 8 85 l-13 60 -12 -32 c-17 -48 -40 -41 -78 21
-17 30 -32 58 -32 63 0 4 -11 35 -25 68 -34 84 -34 85 31 85 40 0 54 3 51 13
-3 8 -23 11 -60 10 -62 -2 -67 4 -67 83 0 48 -14 64 -53 64 -25 0 -27 -2 -17
-14z"/>
<path d="M720 490 c25 -36 70 -42 70 -10 0 23 -28 40 -65 40 l-26 0 21 -30z"/>
<path d="M525 285 c-5 -2 -27 -6 -48 -10 -22 -3 -35 -10 -31 -16 3 -6 12 -8
18 -6 22 9 38 -9 39 -44 l2 -34 -53 -3 c-36 -2 -52 -7 -49 -15 6 -20 50 -19
132 3 103 28 127 42 56 34 -53 -7 -54 -7 -48 17 4 13 7 32 7 42 0 10 8 17 20
17 11 0 20 5 20 10 0 9 -43 13 -65 5z"/>
</g>
</svg>
