<?xml version="1.0" standalone="no"?>
<!DOCTYPE svg PUBLIC "-//W3C//DTD SVG 20010904//EN"
 "http://www.w3.org/TR/2001/REC-SVG-20010904/DTD/svg10.dtd">
<svg version="1.0" xmlns="http://www.w3.org/2000/svg"
 width="96.000000pt" height="68.000000pt" viewBox="0 0 96.000000 68.000000"
 preserveAspectRatio="xMidYMid meet">
<metadata>
Created by potrace 1.16, written by Peter Selinger 2001-2019
</metadata>
<g transform="translate(0.000000,68.000000) scale(0.100000,-0.100000)"
fill="#000000" stroke="none">
<path d="M574 589 c5 -19 34 -197 36 -220 0 -3 -6 -6 -12 -6 -35 -1 -206 -26
-223 -33 -33 -14 49 -11 145 4 47 8 88 11 91 8 6 -6 49 -154 49 -167 0 -3 -18
-17 -40 -31 -51 -34 -45 -42 9 -15 l42 20 69 -70 c79 -79 117 -92 106 -36 -4
17 -9 49 -13 71 l-6 38 -13 -31 c-18 -43 -38 -39 -74 14 l-31 46 40 48 c46 55
49 66 22 81 -31 16 -41 12 -41 -19 0 -16 -9 -39 -19 -52 l-20 -24 -14 35 c-8
19 -18 50 -22 68 -6 31 -6 32 27 32 42 0 67 14 43 24 -9 3 -31 6 -49 6 -33 0
-33 0 -39 58 -3 31 -2 75 3 97 10 46 2 60 -44 71 -27 6 -29 5 -22 -17z"/>
<path d="M704 481 c34 -36 66 -41 66 -11 0 13 -9 22 -27 26 -16 3 -37 8 -48
11 -17 4 -15 0 9 -26z"/>
</g>
</svg>
