<?xml version="1.0" standalone="no"?>
<!DOCTYPE svg PUBLIC "-//W3C//DTD SVG 20010904//EN"
 "http://www.w3.org/TR/2001/REC-SVG-20010904/DTD/svg10.dtd">
<svg version="1.0" xmlns="http://www.w3.org/2000/svg"
 width="96.000000pt" height="68.000000pt" viewBox="0 0 96.000000 68.000000"
 preserveAspectRatio="xMidYMid meet">
<metadata>
Created by potrace 1.16, written by Peter Selinger 2001-2019
</metadata>
<g transform="translate(0.000000,68.000000) scale(0.100000,-0.100000)"
fill="#000000" stroke="none">
<path d="M680 221 c13 -9 12 -11 -3 -11 -10 0 -16 -4 -12 -10 7 -12 37 -1 32
13 -2 6 -10 12 -18 15 -11 3 -11 2 1 -7z"/>
<path d="M597 154 c10 -7 27 -14 37 -14 11 0 16 -3 13 -7 -10 -9 55 -54 71
-48 7 2 10 1 7 -4 -9 -16 13 -22 52 -15 l38 7 -55 20 c-30 10 -63 19 -74 19
-10 -1 -16 2 -12 5 9 9 -26 32 -49 33 -15 0 -17 2 -6 9 9 6 5 9 -13 9 -24 0
-25 -2 -9 -14z"/>
<path d="M477 143 c-10 -10 -8 -43 2 -43 5 0 8 11 7 25 0 14 -1 25 -2 25 0 0
-4 -3 -7 -7z"/>
<path d="M466 58 c-3 -13 -6 -26 -6 -30 0 -16 26 -7 49 17 l24 25 -26 -9 c-21
-8 -25 -7 -20 4 3 8 1 15 -5 15 -5 0 -12 -10 -16 -22z"/>
</g>
</svg>
