<?xml version="1.0" standalone="no"?>
<!DOCTYPE svg PUBLIC "-//W3C//DTD SVG 20010904//EN"
 "http://www.w3.org/TR/2001/REC-SVG-20010904/DTD/svg10.dtd">
<svg version="1.0" xmlns="http://www.w3.org/2000/svg"
 width="96.000000pt" height="68.000000pt" viewBox="0 0 96.000000 68.000000"
 preserveAspectRatio="xMidYMid meet">
<metadata>
Created by potrace 1.16, written by Peter Selinger 2001-2019
</metadata>
<g transform="translate(0.000000,68.000000) scale(0.100000,-0.100000)"
fill="#000000" stroke="none">
<path d="M500 599 c0 -7 9 -23 21 -35 l21 -22 -74 -13 c-71 -13 -72 -14 -28
-17 24 -2 72 1 105 7 34 6 87 11 118 11 57 0 75 13 36 25 -12 4 -45 4 -75 0
-44 -5 -54 -4 -54 8 0 17 -17 32 -47 41 -16 5 -23 3 -23 -5z"/>
<path d="M240 528 c-30 -5 -70 -11 -87 -14 -45 -7 -41 -21 6 -29 42 -7 50 -20
43 -64 -4 -21 -9 -23 -49 -18 -37 4 -43 2 -39 -12 8 -25 9 -130 2 -191 -7 -57
6 -98 22 -72 5 8 42 15 95 19 75 5 87 4 87 -10 0 -22 18 -31 35 -17 20 17 22
299 3 302 -7 1 -23 2 -35 2 -13 1 -23 4 -23 9 -1 61 0 63 36 73 88 23 11 41
-96 22z m20 -78 c0 -29 -4 -40 -15 -40 -11 0 -15 11 -15 40 0 29 4 40 15 40
11 0 15 -11 15 -40z m6 -91 c1 -64 3 -68 37 -71 32 -3 32 -4 35 -60 l3 -57
-96 -3 -95 -3 0 46 c0 40 5 50 35 78 19 17 35 38 35 46 0 27 20 67 33 62 6 -2
12 -19 13 -38z m69 -4 c0 -34 -3 -40 -22 -43 -21 -3 -23 1 -23 43 0 42 2 46
23 43 19 -3 22 -9 22 -43z m-135 14 c0 -26 -29 -89 -41 -89 -13 0 -11 84 3 98
19 19 38 14 38 -9z"/>
<path d="M245 232 c-57 -5 -69 -22 -15 -21 51 0 93 13 69 20 -8 2 -32 3 -54 1z"/>
<path d="M612 497 c-43 -8 -52 -13 -46 -26 4 -9 9 -35 12 -57 4 -38 2 -42 -24
-48 -20 -5 -31 -3 -40 8 -16 22 -44 20 -44 -3 0 -15 -8 -21 -32 -24 -32 -4
-32 -4 5 -5 29 -2 37 -6 37 -21 0 -15 -8 -21 -32 -24 -32 -4 -32 -4 5 -5 30
-2 37 -6 37 -22 0 -17 -7 -20 -45 -20 -60 0 -58 -18 2 -22 l47 -3 -34 -38
c-18 -21 -60 -56 -92 -78 -32 -22 -58 -42 -58 -44 0 -8 74 28 107 52 17 13 35
23 39 23 4 0 4 -27 1 -60 -3 -33 -1 -63 4 -66 8 -5 69 37 107 73 18 17 3 16
-28 -2 -44 -25 -51 -20 -47 39 2 40 10 61 28 83 31 37 41 40 154 48 49 3 91 8
94 10 16 16 -44 22 -129 13 -17 -2 -25 2 -25 12 0 10 12 16 33 18 41 4 42 22
1 22 -43 0 -32 23 14 31 21 3 40 8 43 12 11 11 -36 18 -55 8 -15 -9 -20 -7
-24 10 -3 12 -10 18 -16 14 -6 -3 -11 0 -11 8 0 8 6 15 13 14 61 -2 87 4 87
21 0 10 5 23 11 29 6 6 8 16 5 22 -8 13 -30 12 -104 -2z m68 -14 c-1 -19 -18
-33 -48 -39 -21 -4 -32 -3 -32 5 0 6 0 14 0 19 -1 6 17 11 73 21 4 0 7 -2 7
-6z m-100 -148 c0 -8 -9 -16 -20 -16 -11 -1 -25 -2 -32 -3 -25 -2 -17 23 9 27
15 2 31 5 36 6 4 0 7 -6 7 -14z m-2 -52 c-4 -23 -58 -31 -58 -9 0 15 14 24 43
25 12 1 17 -5 15 -16z"/>
<path d="M470 480 c-14 -4 -39 -8 -57 -9 l-32 -1 21 -36 c16 -28 26 -34 42
-30 12 3 33 6 49 6 19 0 27 5 27 18 0 10 6 24 12 30 10 10 10 15 -2 22 -17 11
-25 11 -60 0z m18 -47 c-12 -15 -58 -18 -58 -3 0 6 -1 13 -2 17 -4 12 56 20
64 9 4 -6 2 -16 -4 -23z"/>
<path d="M639 198 c-25 -31 -26 -31 -53 -13 -14 10 -30 15 -34 11 -4 -4 1 -12
11 -18 10 -5 33 -22 50 -37 67 -58 111 -81 152 -81 63 0 77 16 25 30 -51 14
-160 62 -160 71 0 3 18 14 40 24 42 19 48 38 14 42 -11 1 -30 -11 -45 -29z"/>
</g>
</svg>
