<?xml version="1.0" standalone="no"?>
<!DOCTYPE svg PUBLIC "-//W3C//DTD SVG 20010904//EN"
 "http://www.w3.org/TR/2001/REC-SVG-20010904/DTD/svg10.dtd">
<svg version="1.0" xmlns="http://www.w3.org/2000/svg"
 width="96.000000pt" height="68.000000pt" viewBox="0 0 96.000000 68.000000"
 preserveAspectRatio="xMidYMid meet">
<metadata>
Created by potrace 1.16, written by Peter Selinger 2001-2019
</metadata>
<g transform="translate(0.000000,68.000000) scale(0.100000,-0.100000)"
fill="#000000" stroke="none">
<path d="M580 416 c0 -13 -7 -27 -16 -30 -22 -9 -84 -7 -83 2 4 23 -4 32 -27
32 -23 0 -25 -3 -20 -25 6 -22 3 -25 -21 -26 l-28 -1 33 -14 c20 -9 32 -21 32
-33 0 -22 -19 -31 -66 -31 -24 0 -33 -4 -28 -11 4 -8 31 -9 83 -5 42 3 125 9
184 12 72 5 106 11 104 18 -2 6 -29 12 -61 14 -52 3 -57 5 -54 25 2 15 12 23
36 28 46 9 51 18 14 25 -18 4 -32 12 -32 19 0 12 -21 25 -41 25 -5 0 -9 -11
-9 -24z m0 -68 c0 -24 -15 -36 -51 -43 -33 -6 -37 -5 -41 19 -7 33 -3 36 49
36 28 0 43 -4 43 -12z"/>
</g>
</svg>
