<?xml version="1.0" standalone="no"?>
<!DOCTYPE svg PUBLIC "-//W3C//DTD SVG 20010904//EN"
 "http://www.w3.org/TR/2001/REC-SVG-20010904/DTD/svg10.dtd">
<svg version="1.0" xmlns="http://www.w3.org/2000/svg"
 width="96.000000pt" height="68.000000pt" viewBox="0 0 96.000000 68.000000"
 preserveAspectRatio="xMidYMid meet">
<metadata>
Created by potrace 1.16, written by Peter Selinger 2001-2019
</metadata>
<g transform="translate(0.000000,68.000000) scale(0.100000,-0.100000)"
fill="#000000" stroke="none">
<path d="M264 550 c19 -130 20 -119 -9 -130 -14 -5 -44 -10 -66 -10 -21 0 -39
-4 -39 -9 0 -14 56 -24 91 -16 l30 7 -3 -48 -3 -48 -64 -23 c-35 -12 -67 -20
-72 -17 -23 14 -6 -28 17 -43 25 -16 28 -16 75 11 l49 27 0 -48 c0 -64 -10
-77 -49 -68 -17 4 -31 3 -31 -2 0 -12 74 -83 86 -83 31 0 43 37 46 135 l3 100
44 21 c79 40 75 63 -6 29 -19 -8 -37 -15 -40 -15 -2 0 -3 17 -1 37 3 37 4 38
56 46 66 11 65 32 -2 32 l-48 0 5 40 c3 22 9 50 12 62 6 17 1 25 -24 37 -51
27 -64 22 -57 -24z"/>
<path d="M690 440 c-19 -5 -81 -14 -138 -21 -66 -8 -101 -16 -99 -23 4 -11 36
-12 111 -5 35 4 40 1 47 -21 9 -31 11 -227 3 -258 -7 -24 -19 -25 -68 -6 -9 3
-16 1 -16 -5 0 -6 6 -11 13 -11 7 0 21 -11 31 -25 22 -30 61 -33 76 -6 6 11
10 90 10 184 l0 164 70 5 c66 5 90 12 79 23 -10 10 -86 13 -119 5z"/>
</g>
</svg>
