<?xml version="1.0" standalone="no"?>
<!DOCTYPE svg PUBLIC "-//W3C//DTD SVG 20010904//EN"
 "http://www.w3.org/TR/2001/REC-SVG-20010904/DTD/svg10.dtd">
<svg version="1.0" xmlns="http://www.w3.org/2000/svg"
 width="96.000000pt" height="68.000000pt" viewBox="0 0 96.000000 68.000000"
 preserveAspectRatio="xMidYMid meet">
<metadata>
Created by potrace 1.16, written by Peter Selinger 2001-2019
</metadata>
<g transform="translate(0.000000,68.000000) scale(0.100000,-0.100000)"
fill="#000000" stroke="none">
<path d="M396 603 c-3 -4 5 -21 18 -38 l25 -32 -96 -7 c-67 -5 -99 -3 -109 5
-17 14 -14 17 -45 -41 -28 -51 -27 -70 3 -70 13 0 25 12 36 40 15 34 21 40 47
40 17 0 105 7 197 17 92 9 171 14 174 10 4 -3 -1 -18 -10 -33 -10 -14 -16 -28
-13 -30 2 -2 28 2 58 9 64 17 72 41 23 69 -27 16 -40 17 -100 8 -103 -15 -124
-13 -124 8 0 23 -69 59 -84 45z"/>
</g>
</svg>
