<?xml version="1.0" standalone="no"?>
<!DOCTYPE svg PUBLIC "-//W3C//DTD SVG 20010904//EN"
 "http://www.w3.org/TR/2001/REC-SVG-20010904/DTD/svg10.dtd">
<svg version="1.0" xmlns="http://www.w3.org/2000/svg"
 width="96.000000pt" height="68.000000pt" viewBox="0 0 96.000000 68.000000"
 preserveAspectRatio="xMidYMid meet">
<metadata>
Created by potrace 1.16, written by Peter Selinger 2001-2019
</metadata>
<g transform="translate(0.000000,68.000000) scale(0.100000,-0.100000)"
fill="#000000" stroke="none">
<path d="M530 606 c0 -8 -14 -40 -30 -71 -17 -32 -29 -60 -26 -62 2 -2 20 11
40 30 32 30 45 35 107 41 80 8 99 14 99 28 0 11 -81 6 -129 -8 -22 -6 -22 -5
-11 16 10 18 9 24 -1 31 -21 13 -49 11 -49 -5z"/>
<path d="M283 593 c-20 -59 -34 -83 -72 -126 -22 -27 -41 -50 -41 -53 0 -12
62 30 95 64 34 36 43 40 103 46 37 4 73 11 81 15 24 15 -22 23 -70 12 -47 -11
-59 -7 -41 11 9 9 8 16 -5 30 -20 23 -42 23 -50 1z"/>
<path d="M602 490 c23 -32 68 -42 68 -16 0 20 -39 46 -68 46 l-23 0 23 -30z"/>
<path d="M320 492 c0 -11 39 -52 50 -52 21 0 22 25 0 42 -23 19 -50 24 -50 10z"/>
</g>
</svg>
