<?xml version="1.0" standalone="no"?>
<!DOCTYPE svg PUBLIC "-//W3C//DTD SVG 20010904//EN"
 "http://www.w3.org/TR/2001/REC-SVG-20010904/DTD/svg10.dtd">
<svg version="1.0" xmlns="http://www.w3.org/2000/svg"
 width="96.000000pt" height="68.000000pt" viewBox="0 0 96.000000 68.000000"
 preserveAspectRatio="xMidYMid meet">
<metadata>
Created by potrace 1.16, written by Peter Selinger 2001-2019
</metadata>
<g transform="translate(0.000000,68.000000) scale(0.100000,-0.100000)"
fill="#000000" stroke="none">
<path d="M585 404 c-38 -8 -88 -11 -110 -9 l-40 5 0 -92 c0 -65 -6 -109 -18
-146 -20 -55 -16 -102 7 -102 16 0 34 38 42 90 6 39 7 40 49 40 23 0 70 3 104
6 l61 7 0 -53 0 -53 -47 6 -48 5 45 -39 c51 -44 60 -46 83 -21 14 15 17 41 17
144 0 69 5 140 12 158 10 30 9 35 -12 52 -25 21 -46 21 -145 2z m93 -57 c3
-36 2 -37 -30 -37 -18 0 -63 -3 -100 -7 l-68 -6 0 32 c0 19 6 34 15 37 17 7
155 22 170 19 6 -1 11 -18 13 -38z m2 -86 c0 -28 -2 -29 -57 -35 -32 -4 -77
-9 -100 -13 l-43 -5 0 35 0 36 73 4 c39 1 84 4 100 5 24 2 27 -2 27 -27z"/>
</g>
</svg>
