<?xml version="1.0" standalone="no"?>
<!DOCTYPE svg PUBLIC "-//W3C//DTD SVG 20010904//EN"
 "http://www.w3.org/TR/2001/REC-SVG-20010904/DTD/svg10.dtd">
<svg version="1.0" xmlns="http://www.w3.org/2000/svg"
 width="96.000000pt" height="68.000000pt" viewBox="0 0 96.000000 68.000000"
 preserveAspectRatio="xMidYMid meet">
<metadata>
Created by potrace 1.16, written by Peter Selinger 2001-2019
</metadata>
<g transform="translate(0.000000,68.000000) scale(0.100000,-0.100000)"
fill="#000000" stroke="none">
<path d="M299 243 c21 -36 39 -53 55 -53 23 0 20 26 -6 50 -28 26 -63 28 -49
3z"/>
<path d="M231 190 c23 -41 41 -47 47 -16 5 23 -26 56 -50 56 -18 0 -18 -2 3
-40z"/>
<path d="M100 205 c0 -2 12 -25 27 -50 38 -63 87 -58 53 6 -13 23 -80 61 -80
44z"/>
</g>
</svg>
