<?xml version="1.0" standalone="no"?>
<!DOCTYPE svg PUBLIC "-//W3C//DTD SVG 20010904//EN"
 "http://www.w3.org/TR/2001/REC-SVG-20010904/DTD/svg10.dtd">
<svg version="1.0" xmlns="http://www.w3.org/2000/svg"
 width="96.000000pt" height="68.000000pt" viewBox="0 0 96.000000 68.000000"
 preserveAspectRatio="xMidYMid meet">
<metadata>
Created by potrace 1.16, written by Peter Selinger 2001-2019
</metadata>
<g transform="translate(0.000000,68.000000) scale(0.100000,-0.100000)"
fill="#000000" stroke="none">
<path d="M244 538 c3 -13 9 -47 12 -76 8 -65 4 -68 -83 -78 -78 -8 -73 -24 8
-24 32 0 59 -3 59 -7 0 -19 -62 -113 -105 -161 -26 -28 -43 -52 -38 -52 21 0
76 44 114 92 l42 53 -6 -75 c-3 -41 -9 -91 -12 -110 -5 -24 -2 -41 9 -55 16
-20 16 -20 31 -1 12 15 15 49 15 145 l0 126 23 -33 c23 -33 49 -39 55 -11 2 9
-14 24 -38 38 -56 31 -53 62 8 74 42 8 54 20 29 30 -7 3 -26 3 -41 0 l-29 -6
7 65 c7 62 6 65 -19 76 -38 18 -48 15 -41 -10z"/>
</g>
</svg>
