<?xml version="1.0" standalone="no"?>
<!DOCTYPE svg PUBLIC "-//W3C//DTD SVG 20010904//EN"
 "http://www.w3.org/TR/2001/REC-SVG-20010904/DTD/svg10.dtd">
<svg version="1.0" xmlns="http://www.w3.org/2000/svg"
 width="96.000000pt" height="68.000000pt" viewBox="0 0 96.000000 68.000000"
 preserveAspectRatio="xMidYMid meet">
<metadata>
Created by potrace 1.16, written by Peter Selinger 2001-2019
</metadata>
<g transform="translate(0.000000,68.000000) scale(0.100000,-0.100000)"
fill="#000000" stroke="none">
<path d="M525 141 c-60 -9 -115 -19 -121 -23 -14 -9 7 -100 24 -106 7 -2 12 1
12 7 0 7 39 11 115 11 100 0 114 2 108 16 -3 8 4 29 17 46 19 25 20 32 9 43
-23 22 -50 23 -164 6z m105 -45 l0 -34 -73 -7 c-102 -10 -121 -6 -125 26 -3
25 0 27 55 37 32 5 77 10 101 11 41 1 42 1 42 -33z"/>
</g>
</svg>
