<?xml version="1.0" standalone="no"?>
<!DOCTYPE svg PUBLIC "-//W3C//DTD SVG 20010904//EN"
 "http://www.w3.org/TR/2001/REC-SVG-20010904/DTD/svg10.dtd">
<svg version="1.0" xmlns="http://www.w3.org/2000/svg"
 width="90.000000pt" height="92.000000pt" viewBox="0 0 90.000000 92.000000"
 preserveAspectRatio="xMidYMid meet">
<metadata>
Created by potrace 1.16, written by Peter Selinger 2001-2019
</metadata>
<g transform="translate(0.000000,92.000000) scale(0.100000,-0.100000)"
fill="#000000" stroke="none">
<path d="M548 853 l-3 -58 -48 -9 c-43 -7 -46 -10 -30 -22 10 -7 28 -14 41
-14 19 0 21 -4 16 -27 l-7 -28 32 30 c29 27 41 31 108 35 43 3 78 10 80 16 6
19 -52 37 -96 29 -45 -7 -48 -3 -27 37 14 26 13 29 -11 48 -42 33 -52 26 -55
-37z"/>
<path d="M260 861 c0 -5 7 -25 16 -46 8 -20 12 -40 9 -43 -3 -4 -37 -8 -76
-10 -38 -2 -69 -8 -69 -12 0 -5 14 -20 30 -34 l30 -25 47 20 47 20 16 -21 c18
-24 30 -17 30 15 0 16 9 25 32 31 48 14 49 36 2 32 -38 -3 -39 -2 -42 32 -2
19 -9 38 -15 42 -17 11 -57 10 -57 -1z"/>
<path d="M440 701 c0 -5 9 -13 20 -16 11 -4 66 -49 121 -101 90 -83 105 -94
138 -94 41 0 111 18 111 28 0 4 -35 18 -78 31 -53 17 -109 46 -178 93 -94 63
-134 81 -134 59z"/>
<path d="M310 660 c0 -26 -72 -99 -134 -135 -26 -15 -45 -29 -43 -32 6 -6 108
34 138 54 32 22 99 81 99 87 0 8 -43 46 -52 46 -4 0 -8 -9 -8 -20z"/>
<path d="M400 615 c0 -22 -75 -101 -110 -115 -33 -13 -37 -27 -17 -53 11 -15
16 -15 52 -3 22 8 77 22 123 32 l82 17 26 -24 c21 -20 27 -21 34 -9 26 41 4
73 -67 98 -35 12 -43 3 -18 -18 8 -7 15 -16 15 -20 0 -7 -171 -30 -178 -24 -2
1 22 21 52 44 31 23 56 46 56 50 0 12 -29 40 -41 40 -5 0 -9 -7 -9 -15z"/>
<path d="M555 427 c-44 -11 -86 -21 -93 -23 -7 -2 -10 -9 -6 -15 4 -8 32 -9
90 -4 l83 7 7 -48 c7 -48 -2 -209 -12 -226 -4 -6 -23 -7 -45 -4 -22 3 -39 3
-39 -1 0 -12 83 -93 96 -93 29 0 45 69 48 207 2 76 6 152 10 169 7 26 4 32
-19 42 -14 7 -29 11 -33 11 -4 -1 -43 -11 -87 -22z"/>
<path d="M248 397 c-99 -25 -93 -42 13 -34 l79 6 0 -112 c0 -135 -8 -153 -64
-144 l-36 6 42 -50 c23 -27 46 -48 52 -46 6 2 21 22 32 45 18 34 22 61 23 154
1 62 4 127 7 145 5 25 2 34 -14 42 -26 14 -39 13 -134 -12z"/>
<path d="M469 308 c26 -42 47 -56 62 -41 25 25 -20 73 -67 73 -13 0 -13 -5 5
-32z"/>
<path d="M160 317 c0 -22 55 -81 68 -73 16 10 15 41 -1 54 -25 21 -67 33 -67
19z"/>
<path d="M570 235 c-25 -13 -71 -31 -103 -40 -31 -9 -57 -20 -57 -24 0 -4 11
-18 25 -31 l25 -23 41 29 c56 38 125 101 119 107 -3 3 -25 -5 -50 -18z"/>
<path d="M260 225 c-25 -13 -71 -31 -103 -40 -31 -9 -57 -22 -57 -29 0 -15 32
-46 47 -46 15 0 163 118 163 130 0 12 3 13 -50 -15z"/>
</g>
</svg>
