<?xml version="1.0" standalone="no"?>
<!DOCTYPE svg PUBLIC "-//W3C//DTD SVG 20010904//EN"
 "http://www.w3.org/TR/2001/REC-SVG-20010904/DTD/svg10.dtd">
<svg version="1.0" xmlns="http://www.w3.org/2000/svg"
 width="96.000000pt" height="68.000000pt" viewBox="0 0 96.000000 68.000000"
 preserveAspectRatio="xMidYMid meet">
<metadata>
Created by potrace 1.16, written by Peter Selinger 2001-2019
</metadata>
<g transform="translate(0.000000,68.000000) scale(0.100000,-0.100000)"
fill="#000000" stroke="none">
<path d="M397 405 c-15 -19 -46 -44 -68 -56 -22 -11 -38 -25 -36 -32 5 -16 42
-14 150 8 83 16 89 16 107 0 21 -19 40 -13 40 14 0 11 -14 25 -34 35 -44 21
-63 21 -47 2 16 -19 8 -22 -71 -31 -46 -4 -68 -3 -68 4 0 6 6 11 13 11 24 0
71 46 64 63 -9 25 -19 21 -50 -18z"/>
</g>
</svg>
