<?xml version="1.0" standalone="no"?>
<!DOCTYPE svg PUBLIC "-//W3C//DTD SVG 20010904//EN"
 "http://www.w3.org/TR/2001/REC-SVG-20010904/DTD/svg10.dtd">
<svg version="1.0" xmlns="http://www.w3.org/2000/svg"
 width="96.000000pt" height="68.000000pt" viewBox="0 0 96.000000 68.000000"
 preserveAspectRatio="xMidYMid meet">
<metadata>
Created by potrace 1.16, written by Peter Selinger 2001-2019
</metadata>
<g transform="translate(0.000000,68.000000) scale(0.100000,-0.100000)"
fill="#000000" stroke="none">
<path d="M235 545 c-50 -7 -99 -14 -110 -14 -17 -1 -17 -3 -5 -11 8 -5 25 -10
36 -10 28 0 34 -31 34 -176 0 -107 1 -114 20 -114 17 0 20 7 20 49 l0 48 50 7
c65 9 67 29 3 24 -47 -3 -48 -3 -48 27 0 25 5 31 25 33 49 5 70 13 70 23 0 8
-16 9 -51 5 l-50 -7 3 43 c3 49 14 55 88 57 66 2 120 12 114 22 -7 12 -90 9
-199 -6z"/>
</g>
</svg>
