<?xml version="1.0" standalone="no"?>
<!DOCTYPE svg PUBLIC "-//W3C//DTD SVG 20010904//EN"
 "http://www.w3.org/TR/2001/REC-SVG-20010904/DTD/svg10.dtd">
<svg version="1.0" xmlns="http://www.w3.org/2000/svg"
 width="96.000000pt" height="68.000000pt" viewBox="0 0 96.000000 68.000000"
 preserveAspectRatio="xMidYMid meet">
<metadata>
Created by potrace 1.16, written by Peter Selinger 2001-2019
</metadata>
<g transform="translate(0.000000,68.000000) scale(0.100000,-0.100000)"
fill="#000000" stroke="none">
<path d="M290 536 c-17 -53 -35 -63 -71 -42 -39 23 -48 15 -15 -12 15 -11 26
-23 26 -26 0 -8 -61 -63 -99 -89 l-26 -19 25 7 c14 4 49 22 78 41 l53 35 16
-38 c12 -29 14 -62 11 -146 -5 -130 -15 -147 -75 -129 l-38 12 43 -41 c48 -46
62 -45 91 2 38 63 36 239 -4 323 -19 39 -18 41 34 99 25 28 26 29 7 43 -30 22
-43 17 -56 -20z"/>
</g>
</svg>
