<?xml version="1.0" standalone="no"?>
<!DOCTYPE svg PUBLIC "-//W3C//DTD SVG 20010904//EN"
 "http://www.w3.org/TR/2001/REC-SVG-20010904/DTD/svg10.dtd">
<svg version="1.0" xmlns="http://www.w3.org/2000/svg"
 width="96.000000pt" height="68.000000pt" viewBox="0 0 96.000000 68.000000"
 preserveAspectRatio="xMidYMid meet">
<metadata>
Created by potrace 1.16, written by Peter Selinger 2001-2019
</metadata>
<g transform="translate(0.000000,68.000000) scale(0.100000,-0.100000)"
fill="#000000" stroke="none">
<path d="M550 574 c18 -45 15 -47 -70 -42 l-79 5 -16 -39 c-19 -47 -19 -58 -1
-58 8 0 23 15 33 33 l20 33 139 12 c182 16 172 17 166 -13 -5 -30 -2 -31 50
-4 40 20 41 22 22 36 -30 22 -55 25 -127 15 -65 -8 -66 -8 -87 20 -11 15 -29
28 -40 28 -17 0 -18 -4 -10 -26z"/>
<path d="M290 551 c0 -10 -9 -30 -21 -45 l-21 -26 -34 21 c-47 29 -57 14 -15
-20 l34 -28 -62 -47 c-33 -26 -61 -50 -61 -53 0 -11 53 9 98 37 43 27 48 28
60 13 25 -34 14 -68 -36 -115 -26 -25 -67 -58 -90 -73 -23 -15 -41 -30 -39
-32 8 -7 76 27 121 62 25 19 48 35 51 35 9 0 5 -135 -4 -149 -7 -10 -21 -12
-58 -8 l-48 7 50 -44 c55 -48 68 -48 101 1 16 24 19 47 19 153 0 112 -2 130
-23 169 l-24 43 36 37 c41 42 44 56 17 71 -30 15 -51 12 -51 -9z"/>
<path d="M530 480 c0 -12 55 -41 64 -33 11 12 6 20 -19 31 -32 15 -45 15 -45
2z"/>
<path d="M640 484 c0 -12 34 -33 53 -34 26 0 21 19 -9 30 -29 12 -44 13 -44 4z"/>
<path d="M490 445 c0 -8 19 -27 50 -48 31 -21 99 -22 148 -1 l37 16 -35 13
c-46 18 -50 18 -50 0 0 -11 -12 -15 -49 -15 -28 0 -53 4 -56 10 -8 12 -45 33
-45 25z"/>
<path d="M432 428 c-17 -17 -15 -35 3 -42 10 -4 19 2 24 17 13 34 -3 49 -27
25z"/>
<path d="M595 360 c-33 -4 -88 -8 -122 -9 l-61 -1 18 -37 c21 -43 16 -54 -29
-55 -17 -1 -34 -5 -37 -9 -9 -15 36 -20 93 -10 32 6 130 13 218 16 88 3 162 8
164 11 12 11 -27 24 -73 24 -47 0 -48 1 -33 18 10 10 17 26 17 34 0 29 -34 33
-155 18z m5 -56 c0 -27 -4 -34 -19 -34 -22 0 -26 4 -35 42 -5 20 -2 27 11 30
31 7 43 -3 43 -38z m87 11 c-9 -30 -15 -35 -42 -35 -32 0 -32 0 -21 35 9 30
15 35 43 35 31 0 31 0 20 -35z m-161 -10 c8 -30 5 -34 -26 -37 -18 -2 -26 4
-37 30 l-13 32 35 0 c29 0 36 -4 41 -25z"/>
<path d="M565 214 c-158 -18 -155 -17 -127 -33 18 -9 31 -10 54 -2 17 6 42 11
54 11 23 0 24 -3 24 -66 l0 -66 -26 6 -26 7 23 -30 c29 -36 39 -38 62 -11 20
24 24 139 5 158 -9 9 8 12 78 12 80 1 87 2 70 15 -23 17 -31 17 -191 -1z"/>
</g>
</svg>
