<?xml version="1.0" standalone="no"?>
<!DOCTYPE svg PUBLIC "-//W3C//DTD SVG 20010904//EN"
 "http://www.w3.org/TR/2001/REC-SVG-20010904/DTD/svg10.dtd">
<svg version="1.0" xmlns="http://www.w3.org/2000/svg"
 width="96.000000pt" height="68.000000pt" viewBox="0 0 96.000000 68.000000"
 preserveAspectRatio="xMidYMid meet">
<metadata>
Created by potrace 1.16, written by Peter Selinger 2001-2019
</metadata>
<g transform="translate(0.000000,68.000000) scale(0.100000,-0.100000)"
fill="#000000" stroke="none">
<path d="M308 556 c-38 -36 -52 -42 -75 -38 -24 4 -26 3 -16 -10 7 -8 20 -47
29 -87 l16 -71 36 6 c20 4 87 7 149 8 l113 1 27 65 c15 36 31 71 37 79 7 10 5
17 -9 28 -16 11 -37 13 -95 9 -41 -3 -79 -11 -85 -17 -7 -8 8 -9 56 -4 l66 6
-4 -25 c-4 -21 -12 -26 -52 -32 -75 -11 -85 -25 -14 -21 l62 3 -6 -25 c-3 -14
-8 -29 -12 -32 -3 -4 -58 -9 -123 -12 -99 -5 -117 -4 -122 9 -13 34 -6 44 28
44 65 0 75 15 13 20 -31 3 -57 9 -56 14 0 5 -5 13 -13 17 -10 7 -9 9 5 9 35 0
147 54 147 71 0 16 -20 29 -43 29 -7 -1 -33 -20 -59 -44z"/>
<path d="M540 338 c0 -2 7 -38 15 -82 27 -139 62 -190 159 -230 43 -18 55 -19
73 -8 9 6 8 22 -6 67 l-19 60 -7 -33 c-10 -45 -28 -49 -75 -17 -52 36 -80 95
-80 168 0 45 -4 58 -19 67 -18 9 -41 14 -41 8z"/>
<path d="M207 220 c1 -59 -3 -111 -9 -126 -9 -20 -9 -28 4 -41 15 -14 20 -12
65 23 65 52 72 58 50 50 -62 -21 -67 -20 -67 16 0 26 4 35 18 35 59 -1 92 4
92 14 0 7 -18 8 -55 4 -54 -7 -55 -7 -55 19 0 24 4 26 39 26 22 0 42 4 45 9 9
14 -16 19 -42 9 -28 -10 -44 -2 -40 20 4 23 -10 42 -30 42 -15 0 -17 -12 -15
-100z"/>
<path d="M375 191 c0 -71 3 -132 7 -136 4 -4 35 11 70 34 34 22 67 43 73 45 5
2 7 6 4 10 -3 4 -27 -3 -53 -14 -27 -11 -52 -18 -57 -14 -5 3 -9 21 -9 40 0
33 1 34 43 34 23 0 49 5 57 11 11 8 1 9 -37 6 -52 -4 -53 -4 -53 23 0 25 4 28
53 34 42 6 49 9 34 17 -12 7 -28 7 -49 0 -39 -14 -36 -15 -40 12 -2 13 -11 23
-23 25 -19 3 -20 -3 -20 -127z"/>
</g>
</svg>
