<?xml version="1.0" standalone="no"?>
<!DOCTYPE svg PUBLIC "-//W3C//DTD SVG 20010904//EN"
 "http://www.w3.org/TR/2001/REC-SVG-20010904/DTD/svg10.dtd">
<svg version="1.0" xmlns="http://www.w3.org/2000/svg"
 width="90.000000pt" height="92.000000pt" viewBox="0 0 90.000000 92.000000"
 preserveAspectRatio="xMidYMid meet">
<metadata>
Created by potrace 1.16, written by Peter Selinger 2001-2019
</metadata>
<g transform="translate(0.000000,92.000000) scale(0.100000,-0.100000)"
fill="#000000" stroke="none">
<path d="M191 813 c37 -50 75 -83 95 -83 27 0 40 31 25 58 -10 19 -71 42 -111
42 -20 0 -21 -2 -9 -17z"/>
<path d="M545 785 c-27 -7 -74 -14 -104 -14 -47 -1 -52 -3 -45 -18 15 -34 16
-128 3 -226 -11 -89 -11 -99 5 -115 12 -13 19 -14 24 -5 4 7 13 9 20 4 28 -17
-34 -141 -113 -229 -26 -29 -43 -52 -39 -52 23 0 97 56 127 97 42 58 90 162
82 181 -3 9 2 12 18 10 21 -3 22 -8 27 -128 6 -136 14 -161 60 -185 44 -23
161 -20 210 5 55 28 60 44 34 120 -23 66 -27 65 -39 -3 -10 -61 -33 -77 -115
-77 -58 0 -74 4 -91 21 -19 19 -20 28 -14 88 3 36 11 83 16 104 7 28 7 42 -2
53 -9 11 -8 14 9 14 11 0 22 -7 26 -15 7 -21 34 -19 40 3 2 9 6 92 8 184 3
157 2 168 -17 182 -24 18 -62 18 -130 1z m79 -41 c3 -9 6 -29 6 -45 0 -26 -3
-29 -23 -24 -13 4 -51 -1 -84 -9 -34 -9 -64 -16 -67 -16 -3 0 -6 20 -6 44 l0
44 48 10 c75 15 119 14 126 -4z m6 -135 c0 -35 -2 -40 -19 -34 -11 3 -46 -1
-79 -10 -87 -22 -92 -21 -92 20 0 33 2 35 33 36 24 0 128 19 155 28 1 1 2 -17
2 -40z m0 -108 c0 -38 -1 -40 -32 -38 -18 1 -61 -2 -95 -7 l-63 -8 0 36 c0 35
1 36 38 37 20 1 51 5 67 9 17 4 42 8 58 9 25 1 27 -2 27 -38z"/>
<path d="M212 639 c-29 -11 -80 -22 -113 -26 -37 -4 -59 -10 -59 -18 0 -30 56
-32 136 -5 32 11 64 19 71 18 25 -6 -146 -244 -226 -315 -14 -12 -23 -24 -20
-27 9 -10 103 60 152 113 26 28 49 51 52 51 9 0 -3 -190 -15 -235 -11 -45 -11
-55 5 -85 16 -30 19 -32 30 -17 8 11 15 73 20 160 4 78 9 146 12 150 2 4 20
-6 39 -23 38 -33 54 -32 54 5 0 22 -28 38 -107 61 -7 2 -13 10 -13 17 0 17 78
127 89 127 21 0 21 36 1 52 -27 22 -41 22 -108 -3z"/>
</g>
</svg>
