<?xml version="1.0" standalone="no"?>
<!DOCTYPE svg PUBLIC "-//W3C//DTD SVG 20010904//EN"
 "http://www.w3.org/TR/2001/REC-SVG-20010904/DTD/svg10.dtd">
<svg version="1.0" xmlns="http://www.w3.org/2000/svg"
 width="96.000000pt" height="68.000000pt" viewBox="0 0 96.000000 68.000000"
 preserveAspectRatio="xMidYMid meet">
<metadata>
Created by potrace 1.16, written by Peter Selinger 2001-2019
</metadata>
<g transform="translate(0.000000,68.000000) scale(0.100000,-0.100000)"
fill="#000000" stroke="none">
<path d="M647 512 c-15 -32 -27 -62 -27 -66 0 -10 28 10 80 58 41 37 42 40 25
52 -34 25 -49 16 -78 -44z"/>
<path d="M450 521 c0 -24 43 -81 61 -81 29 0 24 44 -7 69 -28 22 -54 28 -54
12z"/>
<path d="M218 370 l4 -140 -28 0 c-26 0 -27 1 -21 50 6 53 -8 80 -42 80 -14 0
-17 -6 -13 -30 2 -17 -1 -51 -7 -77 -11 -41 -10 -48 6 -65 18 -17 20 -17 73 1
85 29 130 35 130 17 0 -8 5 -18 10 -21 16 -10 40 14 40 39 0 12 6 45 13 73 15
58 9 73 -32 73 -25 0 -26 -2 -26 -62 0 -58 -2 -63 -22 -66 -22 -3 -23 0 -22
55 0 32 3 88 8 125 8 76 2 88 -44 88 l-30 0 3 -140z"/>
<path d="M575 419 c-93 -15 -172 -28 -175 -29 -3 -1 10 -6 29 -10 20 -5 64 -3
110 5 42 7 120 16 174 20 53 4 97 11 97 16 0 5 -1 9 -3 9 -1 0 -16 4 -32 8
-20 5 -88 -1 -200 -19z"/>
<path d="M665 333 c-9 -26 -31 -65 -47 -86 -43 -56 -25 -83 37 -55 44 20 41
-1 -8 -50 -43 -44 -46 -49 -31 -64 14 -14 21 -14 81 8 36 13 69 24 73 24 4 0
13 -11 20 -25 21 -40 54 -27 42 17 -5 19 -81 73 -90 64 -3 -4 0 -12 6 -18 7
-7 12 -15 12 -20 0 -9 -69 -23 -77 -15 -3 3 23 40 57 81 52 64 61 78 50 91
-20 24 -34 18 -54 -25 -17 -36 -23 -40 -58 -40 l-38 0 41 60 c41 60 47 92 18
98 -11 2 -21 -12 -34 -45z"/>
<path d="M458 312 c-10 -27 -29 -61 -43 -76 -41 -45 -28 -65 31 -46 19 7 38
10 41 6 3 -3 -18 -28 -47 -57 -46 -45 -50 -53 -37 -66 13 -13 22 -13 77 7 57
20 64 21 72 6 13 -23 28 -20 28 7 0 24 -28 57 -47 57 -6 0 -9 -8 -6 -19 4 -14
-3 -20 -28 -25 -18 -3 -34 -4 -37 -2 -2 3 14 24 36 48 82 89 96 109 86 126
-17 27 -33 25 -45 -5 -16 -42 -39 -63 -71 -63 -15 0 -28 3 -28 6 0 4 17 29 37
56 28 38 34 54 26 66 -18 29 -28 23 -45 -26z"/>
</g>
</svg>
