<?xml version="1.0" standalone="no"?>
<!DOCTYPE svg PUBLIC "-//W3C//DTD SVG 20010904//EN"
 "http://www.w3.org/TR/2001/REC-SVG-20010904/DTD/svg10.dtd">
<svg version="1.0" xmlns="http://www.w3.org/2000/svg"
 width="96.000000pt" height="68.000000pt" viewBox="0 0 96.000000 68.000000"
 preserveAspectRatio="xMidYMid meet">
<metadata>
Created by potrace 1.16, written by Peter Selinger 2001-2019
</metadata>
<g transform="translate(0.000000,68.000000) scale(0.100000,-0.100000)"
fill="#000000" stroke="none">
<path d="M467 159 c-6 -46 -5 -44 -34 -53 -19 -6 -23 -3 -23 13 0 19 -43 61
-62 61 -4 0 1 -18 12 -39 23 -46 17 -51 -61 -51 -53 0 -59 -5 -31 -26 25 -19
39 -18 183 18 126 31 175 56 84 42 -50 -7 -52 -4 -29 31 18 27 12 45 -15 45
-14 0 -20 -10 -24 -41z"/>
</g>
</svg>
