<?xml version="1.0" standalone="no"?>
<!DOCTYPE svg PUBLIC "-//W3C//DTD SVG 20010904//EN"
 "http://www.w3.org/TR/2001/REC-SVG-20010904/DTD/svg10.dtd">
<svg version="1.0" xmlns="http://www.w3.org/2000/svg"
 width="96.000000pt" height="68.000000pt" viewBox="0 0 96.000000 68.000000"
 preserveAspectRatio="xMidYMid meet">
<metadata>
Created by potrace 1.16, written by Peter Selinger 2001-2019
</metadata>
<g transform="translate(0.000000,68.000000) scale(0.100000,-0.100000)"
fill="#000000" stroke="none">
<path d="M430 611 c0 -4 9 -20 20 -34 19 -24 19 -26 3 -31 -10 -3 -64 -8 -121
-12 -56 -4 -105 -11 -108 -16 -4 -5 3 -16 15 -24 54 -39 -9 -265 -103 -366
-18 -20 -32 -39 -29 -42 10 -10 48 16 91 63 53 56 71 88 92 166 l17 60 54 0
53 0 11 -43 c5 -24 13 -40 17 -36 4 4 29 8 55 9 27 1 58 3 71 4 16 1 22 7 22
24 0 59 8 66 76 69 78 4 85 23 9 24 -63 1 -73 7 -54 30 11 14 11 18 -6 30 -10
8 -27 14 -36 14 -15 0 -17 -7 -13 -39 l5 -39 -56 -7 c-59 -8 -71 -3 -77 29 -1
10 -14 23 -27 27 -25 10 -25 13 -5 -50 5 -17 0 -19 -45 -22 l-51 -4 6 45 c3
25 9 48 13 53 4 4 72 12 152 18 264 18 280 22 222 48 -18 8 -50 10 -100 5 -62
-5 -73 -4 -73 9 0 9 -10 23 -22 31 -24 17 -78 22 -78 7z m126 -233 c-3 -13 -6
-29 -6 -35 0 -9 -17 -13 -50 -13 -49 0 -50 1 -50 29 0 28 3 30 43 34 23 2 48
4 56 5 9 1 11 -5 7 -20z"/>
<path d="M535 260 c-16 -4 -52 -8 -80 -10 -27 -1 -59 -5 -70 -9 -18 -7 -15
-11 24 -30 54 -28 82 -53 73 -67 -9 -12 -70 -39 -147 -64 l-60 -20 62 5 c34 2
86 16 118 30 32 14 63 25 69 25 6 0 33 -16 60 -35 46 -32 55 -35 122 -35 40 0
85 5 101 11 26 11 22 13 -62 30 -96 19 -175 46 -175 58 0 4 23 27 51 51 48 40
50 44 33 57 -19 14 -70 15 -119 3z m55 -17 c0 -12 -53 -63 -65 -63 -16 0 -73
29 -80 40 -3 5 16 12 42 15 27 3 55 8 63 9 28 6 40 6 40 -1z"/>
</g>
</svg>
