<?xml version="1.0" standalone="no"?>
<!DOCTYPE svg PUBLIC "-//W3C//DTD SVG 20010904//EN"
 "http://www.w3.org/TR/2001/REC-SVG-20010904/DTD/svg10.dtd">
<svg version="1.0" xmlns="http://www.w3.org/2000/svg"
 width="96.000000pt" height="68.000000pt" viewBox="0 0 96.000000 68.000000"
 preserveAspectRatio="xMidYMid meet">
<metadata>
Created by potrace 1.16, written by Peter Selinger 2001-2019
</metadata>
<g transform="translate(0.000000,68.000000) scale(0.100000,-0.100000)"
fill="#000000" stroke="none">
<path d="M627 573 c-3 -21 -8 -51 -12 -68 l-6 -30 18 21 c14 16 37 24 81 29
60 7 77 17 48 28 -8 3 -32 3 -53 0 -36 -6 -37 -5 -23 11 13 16 12 20 -5 32
-30 22 -43 16 -48 -23z"/>
<path d="M450 585 c0 -3 7 -16 15 -29 16 -23 15 -24 -30 -30 -25 -4 -45 -12
-45 -18 0 -7 17 -8 51 -4 43 6 53 4 65 -11 13 -17 13 -17 14 2 0 11 -3 37 -6
58 -6 33 -10 37 -35 37 -16 0 -29 -2 -29 -5z"/>
</g>
</svg>
