<?xml version="1.0" standalone="no"?>
<!DOCTYPE svg PUBLIC "-//W3C//DTD SVG 20010904//EN"
 "http://www.w3.org/TR/2001/REC-SVG-20010904/DTD/svg10.dtd">
<svg version="1.0" xmlns="http://www.w3.org/2000/svg"
 width="90.000000pt" height="92.000000pt" viewBox="0 0 90.000000 92.000000"
 preserveAspectRatio="xMidYMid meet">
<metadata>
Created by potrace 1.16, written by Peter Selinger 2001-2019
</metadata>
<g transform="translate(0.000000,92.000000) scale(0.100000,-0.100000)"
fill="#000000" stroke="none">
<path d="M158 835 c-3 -3 1 -29 9 -58 18 -64 11 -422 -11 -561 -13 -79 -13
-94 1 -128 8 -21 19 -38 24 -38 26 0 33 54 37 293 3 136 7 247 11 247 4 0 19
-14 34 -31 32 -36 52 -34 52 7 0 25 -6 31 -44 44 l-43 15 6 87 7 88 -33 20
c-35 21 -42 23 -50 15z"/>
<path d="M525 799 c4 -18 4 -83 0 -144 l-7 -113 -101 -12 c-123 -15 -140 -22
-98 -40 30 -12 137 -8 176 6 12 5 15 -3 15 -39 0 -24 -3 -59 -6 -77 l-7 -32
-61 2 c-81 3 -82 3 -62 -18 10 -12 21 -52 27 -105 12 -87 31 -133 46 -110 5 7
63 17 138 24 72 7 132 14 134 15 2 2 -2 10 -8 18 -10 12 -9 26 4 68 10 29 25
61 34 71 15 18 14 21 -17 48 -37 33 -46 34 -122 14 -30 -8 -56 -13 -57 -11 -4
3 16 138 20 142 1 1 61 6 132 11 72 4 130 12 130 17 0 5 -12 18 -27 29 -25 19
-29 19 -125 4 -54 -8 -100 -13 -102 -11 -6 6 19 176 30 195 13 25 2 45 -36 63
-49 24 -58 21 -50 -15z m123 -472 c7 -9 7 -30 -1 -72 l-12 -60 -65 -11 c-121
-22 -117 -24 -125 52 -4 36 -4 68 -1 71 7 7 129 30 167 32 15 0 31 -5 37 -12z"/>
<path d="M57 533 c-29 -63 -35 -114 -14 -132 40 -33 90 124 54 172 -11 16 -15
11 -40 -40z"/>
</g>
</svg>
