<?xml version="1.0" standalone="no"?>
<!DOCTYPE svg PUBLIC "-//W3C//DTD SVG 20010904//EN"
 "http://www.w3.org/TR/2001/REC-SVG-20010904/DTD/svg10.dtd">
<svg version="1.0" xmlns="http://www.w3.org/2000/svg"
 width="96.000000pt" height="68.000000pt" viewBox="0 0 96.000000 68.000000"
 preserveAspectRatio="xMidYMid meet">
<metadata>
Created by potrace 1.16, written by Peter Selinger 2001-2019
</metadata>
<g transform="translate(0.000000,68.000000) scale(0.100000,-0.100000)"
fill="#000000" stroke="none">
<path d="M538 133 c2 -43 9 -83 15 -89 46 -44 231 -44 275 0 13 13 13 20 -6
63 -12 26 -21 40 -22 31 0 -30 -22 -66 -47 -77 -26 -12 -114 -15 -150 -5 -31
8 -35 31 -20 91 15 55 11 63 -32 63 -14 0 -16 -10 -13 -77z"/>
</g>
</svg>
