<?xml version="1.0" standalone="no"?>
<!DOCTYPE svg PUBLIC "-//W3C//DTD SVG 20010904//EN"
 "http://www.w3.org/TR/2001/REC-SVG-20010904/DTD/svg10.dtd">
<svg version="1.0" xmlns="http://www.w3.org/2000/svg"
 width="96.000000pt" height="68.000000pt" viewBox="0 0 96.000000 68.000000"
 preserveAspectRatio="xMidYMid meet">
<metadata>
Created by potrace 1.16, written by Peter Selinger 2001-2019
</metadata>
<g transform="translate(0.000000,68.000000) scale(0.100000,-0.100000)"
fill="#000000" stroke="none">
<path d="M505 605 c-44 -8 -135 -17 -202 -21 -114 -6 -144 -14 -110 -27 8 -3
21 -31 30 -64 24 -82 27 -85 67 -73 38 11 170 14 170 4 0 -14 -47 -48 -97 -70
-29 -13 -53 -26 -53 -28 0 -2 22 2 50 9 47 12 50 12 56 -8 3 -11 5 -81 3 -155
-3 -85 0 -136 6 -138 27 -9 33 16 36 160 4 136 2 149 -14 155 -14 5 -5 11 32
25 28 10 51 22 51 26 0 4 -15 14 -32 21 l-33 13 55 4 c33 2 56 -1 58 -7 6 -18
30 -12 47 12 37 52 84 140 80 148 -7 11 -74 29 -100 28 -11 -1 -56 -7 -100
-14z m105 -36 c0 -7 -5 -29 -12 -50 -11 -38 -12 -39 -60 -39 -26 0 -48 2 -48
4 0 2 9 24 20 50 20 44 23 46 60 46 23 0 40 -5 40 -11z m-142 -46 c-3 -46 -5
-48 -34 -51 -28 -3 -32 0 -36 25 -3 15 -8 36 -12 45 -6 13 -1 17 26 21 18 2
39 5 46 5 10 2 12 -11 10 -45z m-114 19 c2 -4 7 -24 11 -45 l7 -37 -46 0 c-42
0 -46 2 -52 28 -3 15 -8 35 -11 45 -4 14 3 17 41 17 25 0 47 -3 50 -8z"/>
<path d="M597 343 c-4 -3 -7 -18 -7 -33 0 -17 -19 -52 -50 -94 -59 -76 -45
-89 22 -21 25 25 50 45 55 45 5 0 33 -22 63 -50 53 -49 72 -56 118 -44 33 9
27 22 -16 33 -39 11 -132 65 -144 85 -4 6 0 22 9 35 14 23 14 25 -3 38 -20 14
-37 17 -47 6z"/>
<path d="M232 271 c-7 -21 -32 -61 -57 -87 -24 -27 -42 -50 -40 -53 4 -4 67
41 93 66 20 20 33 16 76 -23 41 -37 61 -40 61 -9 0 19 -25 36 -79 55 l-29 11
23 24 c27 28 21 55 -13 55 -19 0 -26 -8 -35 -39z"/>
</g>
</svg>
