<?xml version="1.0" standalone="no"?>
<!DOCTYPE svg PUBLIC "-//W3C//DTD SVG 20010904//EN"
 "http://www.w3.org/TR/2001/REC-SVG-20010904/DTD/svg10.dtd">
<svg version="1.0" xmlns="http://www.w3.org/2000/svg"
 width="96.000000pt" height="68.000000pt" viewBox="0 0 96.000000 68.000000"
 preserveAspectRatio="xMidYMid meet">
<metadata>
Created by potrace 1.16, written by Peter Selinger 2001-2019
</metadata>
<g transform="translate(0.000000,68.000000) scale(0.100000,-0.100000)"
fill="#000000" stroke="none">
<path d="M636 222 c-3 -20 -6 -58 -6 -84 0 -48 -5 -53 -40 -48 -8 1 -13 0 -10
-2 3 -2 15 -11 27 -21 21 -18 22 -18 42 2 12 12 21 29 20 39 0 15 -2 14 -10
-3 -8 -17 -8 -16 -3 5 14 55 16 103 5 96 -8 -5 -8 0 -2 18 7 18 6 26 -3 29 -9
4 -16 -6 -20 -31z"/>
<path d="M521 195 c1 -5 -3 -23 -9 -38 -16 -38 -15 -48 3 -41 10 4 14 14 10
28 -5 15 -4 17 3 7 8 -11 12 -9 22 10 7 13 9 21 5 17 -4 -4 -14 0 -22 10 -7 9
-12 13 -12 7z"/>
<path d="M740 171 c0 -5 8 -15 17 -22 15 -12 16 -12 8 1 -5 9 -4 12 1 7 5 -5
9 -16 9 -25 0 -10 9 -18 23 -20 12 -2 22 0 22 5 -1 21 -80 74 -80 54z"/>
</g>
</svg>
