<?xml version="1.0" standalone="no"?>
<!DOCTYPE svg PUBLIC "-//W3C//DTD SVG 20010904//EN"
 "http://www.w3.org/TR/2001/REC-SVG-20010904/DTD/svg10.dtd">
<svg version="1.0" xmlns="http://www.w3.org/2000/svg"
 width="96.000000pt" height="68.000000pt" viewBox="0 0 96.000000 68.000000"
 preserveAspectRatio="xMidYMid meet">
<metadata>
Created by potrace 1.16, written by Peter Selinger 2001-2019
</metadata>
<g transform="translate(0.000000,68.000000) scale(0.100000,-0.100000)"
fill="#000000" stroke="none">
<path d="M270 575 c0 -4 7 -19 15 -36 14 -27 14 -30 0 -35 -9 -4 -39 -4 -66
-1 -49 6 -49 6 -69 -33 -25 -49 -25 -57 0 -70 17 -9 22 -5 39 28 19 38 22 40
83 46 35 4 81 10 102 13 38 6 39 5 34 -20 -6 -33 4 -34 61 -6 35 17 40 23 31
35 -17 20 -82 35 -119 28 -27 -6 -31 -4 -31 14 0 12 -9 26 -19 32 -21 11 -61
14 -61 5z"/>
<path d="M665 550 c-22 -4 -66 -11 -98 -15 -63 -7 -68 -25 -6 -25 34 0 39 -3
39 -23 0 -38 -28 -70 -57 -62 -22 5 -24 3 -17 -17 8 -25 6 -143 -2 -171 -13
-42 24 -93 39 -54 3 6 6 4 6 -7 1 -21 -39 -78 -79 -113 -33 -29 -8 -29 34 -1
70 49 125 100 119 114 -4 11 6 14 47 14 43 0 53 -3 57 -20 6 -22 31 -27 38 -8
2 7 5 71 8 141 5 155 4 157 -105 137 -38 -7 -71 -10 -74 -7 -3 2 7 18 21 36
15 17 24 35 20 41 -4 6 7 10 27 10 18 0 57 3 86 6 42 6 50 9 41 20 -12 15 -78
17 -144 4z m73 -160 c2 -20 -2 -25 -20 -26 -13 0 -51 -4 -85 -9 l-63 -8 0 31
c0 28 3 31 38 35 20 2 57 4 82 3 40 -1 45 -4 48 -26z m0 -95 c-2 -1 -40 -6
-85 -10 l-83 -7 0 26 c0 24 4 26 43 27 23 0 60 3 82 7 37 7 40 6 43 -16 2 -13
2 -25 0 -27z m2 -50 c0 -21 -5 -25 -29 -25 -15 0 -56 -3 -90 -7 -62 -6 -63 -6
-59 18 3 22 8 24 83 30 44 3 83 6 88 7 4 1 7 -9 7 -23z"/>
<path d="M266 422 c-3 -10 -27 -39 -52 -65 -46 -46 -49 -62 -8 -33 17 13 25
12 57 -2 23 -11 34 -21 29 -28 -9 -15 -131 -89 -161 -99 -12 -4 -21 -9 -18
-11 2 -2 25 3 51 12 26 9 50 13 54 9 4 -3 12 -30 17 -58 l11 -52 44 3 c72 4
110 12 110 23 0 6 7 26 16 45 22 47 13 64 -35 64 -22 0 -42 -4 -45 -8 -3 -5
-26 -9 -51 -11 -59 -3 -56 11 7 47 l47 27 46 -23 c84 -41 117 -19 39 25 -21
13 -43 25 -49 27 -5 3 8 21 30 40 56 49 33 70 -59 51 -30 -6 -37 -5 -31 5 4 7
2 16 -6 21 -22 14 -37 11 -43 -9z m104 -45 c0 -8 -10 -23 -22 -34 -20 -17 -29
-18 -67 -11 -40 9 -42 11 -28 26 9 8 36 19 59 23 24 3 46 7 51 8 4 0 7 -5 7
-12z m0 -209 l0 -43 -49 -3 c-48 -3 -49 -2 -56 29 -8 37 -1 46 45 52 19 2 41
5 48 5 8 1 12 -12 12 -40z"/>
<path d="M747 89 c62 -62 93 -73 93 -31 0 27 -106 92 -149 92 -3 0 22 -28 56
-61z"/>
</g>
</svg>
