<?xml version="1.0" standalone="no"?>
<!DOCTYPE svg PUBLIC "-//W3C//DTD SVG 20010904//EN"
 "http://www.w3.org/TR/2001/REC-SVG-20010904/DTD/svg10.dtd">
<svg version="1.0" xmlns="http://www.w3.org/2000/svg"
 width="96.000000pt" height="68.000000pt" viewBox="0 0 96.000000 68.000000"
 preserveAspectRatio="xMidYMid meet">
<metadata>
Created by potrace 1.16, written by Peter Selinger 2001-2019
</metadata>
<g transform="translate(0.000000,68.000000) scale(0.100000,-0.100000)"
fill="#000000" stroke="none">
<path d="M495 550 c-20 -21 -38 -30 -59 -30 l-31 0 3 -60 c3 -40 -1 -70 -12
-91 -21 -43 -14 -47 17 -9 16 18 28 48 32 78 4 26 7 51 9 55 1 5 26 18 56 30
56 23 73 49 35 55 -12 2 -32 -9 -50 -28z"/>
</g>
</svg>
