<?xml version="1.0" standalone="no"?>
<!DOCTYPE svg PUBLIC "-//W3C//DTD SVG 20010904//EN"
 "http://www.w3.org/TR/2001/REC-SVG-20010904/DTD/svg10.dtd">
<svg version="1.0" xmlns="http://www.w3.org/2000/svg"
 width="96.000000pt" height="68.000000pt" viewBox="0 0 96.000000 68.000000"
 preserveAspectRatio="xMidYMid meet">
<metadata>
Created by potrace 1.16, written by Peter Selinger 2001-2019
</metadata>
<g transform="translate(0.000000,68.000000) scale(0.100000,-0.100000)"
fill="#000000" stroke="none">
<path d="M280 500 c-14 -4 -51 -8 -83 -9 -53 -1 -57 -3 -43 -16 9 -9 21 -35
27 -58 18 -70 15 -69 136 -42 18 4 30 12 27 17 -3 5 7 29 21 55 22 37 25 47
14 54 -17 10 -65 10 -99 -1z m30 -59 c0 -42 -11 -51 -60 -51 -24 0 -29 5 -38
39 -9 38 -9 40 17 44 76 12 81 10 81 -32z"/>
</g>
</svg>
