<?xml version="1.0" standalone="no"?>
<!DOCTYPE svg PUBLIC "-//W3C//DTD SVG 20010904//EN"
 "http://www.w3.org/TR/2001/REC-SVG-20010904/DTD/svg10.dtd">
<svg version="1.0" xmlns="http://www.w3.org/2000/svg"
 width="90.000000pt" height="92.000000pt" viewBox="0 0 90.000000 92.000000"
 preserveAspectRatio="xMidYMid meet">
<metadata>
Created by potrace 1.16, written by Peter Selinger 2001-2019
</metadata>
<g transform="translate(0.000000,92.000000) scale(0.100000,-0.100000)"
fill="#000000" stroke="none">
<path d="M147 798 c4 -24 8 -79 8 -123 l0 -80 -57 -9 c-32 -5 -58 -13 -58 -17
0 -13 46 -22 85 -17 l35 4 0 -66 0 -65 -80 -50 c-85 -53 -96 -74 -56 -100 23
-15 25 -14 80 42 l55 58 -5 -75 c-8 -120 -9 -123 -49 -117 l-34 6 42 -55 c23
-30 47 -54 53 -54 24 0 34 54 34 193 l0 143 40 39 c47 46 45 56 -4 25 l-36
-22 0 51 0 51 45 11 c25 6 48 15 50 20 9 13 -35 31 -61 25 -23 -6 -24 -5 -24
49 0 31 6 70 13 88 17 40 13 54 -23 72 -52 27 -63 21 -53 -27z"/>
<path d="M628 443 c2 -207 7 -384 12 -392 20 -37 32 48 37 271 l6 228 46 -36
c56 -43 104 -74 113 -74 4 0 12 9 18 20 22 41 -17 70 -137 100 l-43 11 0 67
c1 37 5 86 9 109 9 47 -7 73 -45 73 -18 0 -19 -11 -16 -377z"/>
<path d="M394 777 c3 -13 8 -48 12 -79 l7 -57 -39 -6 c-56 -9 -66 -14 -59 -25
3 -5 26 -10 51 -10 l44 0 0 -54 0 -54 -61 -11 c-69 -12 -80 -18 -59 -31 21
-13 43 -12 133 5 43 8 97 15 120 15 58 0 73 11 47 35 -15 14 -29 16 -63 12
-23 -3 -51 -9 -62 -13 -15 -6 -17 -4 -12 10 4 10 7 35 7 56 0 37 1 38 40 45
22 4 42 11 46 16 7 12 -45 32 -68 26 -16 -5 -18 3 -18 63 0 71 -6 80 -52 80
-16 0 -19 -5 -14 -23z"/>
<path d="M406 390 c7 -43 7 -44 -60 -55 -51 -8 -32 -30 24 -29 l40 1 0 -48 c0
-55 -9 -61 -91 -61 -56 1 -60 -8 -23 -43 31 -28 37 -30 67 -13 12 6 67 28 122
49 54 20 101 41 103 48 5 15 -15 14 -74 -4 -27 -8 -53 -15 -57 -15 -13 0 2 93
16 102 6 4 24 8 39 8 27 0 46 16 33 28 -3 4 -24 7 -46 7 -37 0 -40 2 -36 23 5
23 -16 42 -47 42 -13 0 -15 -8 -10 -40z"/>
</g>
</svg>
