<?xml version="1.0" standalone="no"?>
<!DOCTYPE svg PUBLIC "-//W3C//DTD SVG 20010904//EN"
 "http://www.w3.org/TR/2001/REC-SVG-20010904/DTD/svg10.dtd">
<svg version="1.0" xmlns="http://www.w3.org/2000/svg"
 width="96.000000pt" height="68.000000pt" viewBox="0 0 96.000000 68.000000"
 preserveAspectRatio="xMidYMid meet">
<metadata>
Created by potrace 1.16, written by Peter Selinger 2001-2019
</metadata>
<g transform="translate(0.000000,68.000000) scale(0.100000,-0.100000)"
fill="#000000" stroke="none">
<path d="M224 575 c3 -13 9 -51 12 -83 6 -56 5 -59 -17 -65 -13 -4 -36 -7 -51
-7 -15 0 -30 -4 -33 -10 -4 -6 15 -10 50 -10 l56 0 -3 -46 -3 -47 -78 -42
c-78 -42 -79 -43 -56 -59 31 -21 31 -21 79 19 23 19 45 33 49 31 3 -2 4 -31 1
-63 -5 -56 -6 -58 -33 -56 l-28 2 31 -40 c18 -21 36 -39 40 -39 21 0 30 44 30
138 l0 100 36 27 c39 30 38 46 -1 25 -31 -17 -37 -11 -29 27 5 27 12 32 45 37
48 8 42 26 -7 26 -38 0 -39 3 -23 80 13 60 2 80 -43 80 -27 0 -30 -3 -24 -25z"/>
</g>
</svg>
