<?xml version="1.0" standalone="no"?>
<!DOCTYPE svg PUBLIC "-//W3C//DTD SVG 20010904//EN"
 "http://www.w3.org/TR/2001/REC-SVG-20010904/DTD/svg10.dtd">
<svg version="1.0" xmlns="http://www.w3.org/2000/svg"
 width="90.000000pt" height="92.000000pt" viewBox="0 0 90.000000 92.000000"
 preserveAspectRatio="xMidYMid meet">
<metadata>
Created by potrace 1.16, written by Peter Selinger 2001-2019
</metadata>
<g transform="translate(0.000000,92.000000) scale(0.100000,-0.100000)"
fill="#000000" stroke="none">
<path d="M650 803 c-25 -8 -83 -16 -132 -17 -49 0 -88 -3 -88 -5 0 -3 7 -12
15 -21 8 -8 19 -49 25 -90 18 -122 17 -120 48 -115 15 3 68 7 117 8 l90 3 31
89 c17 50 34 97 38 106 5 11 -1 21 -19 33 -37 24 -74 27 -125 9z m65 -34 c4
-6 4 -25 1 -42 -6 -31 -8 -32 -53 -32 -27 0 -71 -4 -100 -8 l-51 -9 -7 32 c-4
17 -4 34 0 38 3 4 48 12 98 18 51 6 95 12 99 13 4 0 10 -4 13 -10z m-9 -111
c-3 -7 -7 -24 -10 -38 -5 -24 -8 -25 -91 -26 -64 -2 -85 1 -85 11 0 7 -2 20
-6 28 -4 11 14 16 88 24 51 5 96 11 100 11 4 1 6 -4 4 -10z"/>
<path d="M275 780 c-16 -5 -70 -16 -119 -25 -49 -8 -92 -17 -94 -20 -9 -9 7
-18 45 -24 l38 -6 3 -58 c3 -56 3 -57 -25 -59 -15 0 -41 0 -56 1 -27 2 -28 1
-16 -20 9 -17 10 -71 6 -205 -4 -146 -3 -185 8 -194 10 -8 15 -7 22 4 6 11 36
17 110 22 l102 7 12 -27 c7 -14 17 -26 23 -26 30 0 36 42 37 241 1 181 -1 202
-17 221 -15 16 -26 19 -56 14 -37 -6 -38 -6 -38 26 0 65 8 74 66 87 57 13 66
24 35 41 -23 12 -44 12 -86 0z m-55 -120 c0 -55 -2 -60 -21 -60 -19 0 -21 4
-15 31 3 17 6 44 6 60 0 19 5 29 15 29 12 0 15 -13 15 -60z m26 -237 c10 -7
30 -13 46 -13 l28 0 0 -84 0 -84 -37 1 c-21 0 -72 -3 -114 -8 l-77 -8 6 74 c4
62 10 80 34 110 19 24 33 57 41 97 7 41 17 62 27 64 12 3 16 -11 22 -66 4 -50
11 -74 24 -83z m74 92 l0 -65 -29 0 c-33 0 -39 14 -32 88 3 39 5 42 32 42 l29
0 0 -65z m-175 3 c-8 -46 -30 -108 -39 -108 -4 0 -6 34 -6 75 0 74 0 75 26 75
25 0 25 -2 19 -42z"/>
<path d="M183 332 c-57 -16 -67 -28 -30 -37 28 -6 128 17 127 30 -1 18 -44 21
-97 7z"/>
<path d="M575 523 c5 -10 10 -32 12 -49 4 -26 1 -32 -19 -37 -12 -4 -31 -7
-41 -7 -15 0 -15 3 -5 21 11 17 10 22 -6 35 -31 22 -43 17 -51 -23 -4 -21 -20
-62 -37 -90 -35 -63 -24 -68 26 -13 33 37 40 40 86 40 l50 0 0 -39 0 -38 -51
-6 c-29 -4 -54 -9 -58 -12 -11 -12 24 -25 67 -25 l42 0 0 -39 c0 -37 -2 -39
-37 -45 -21 -3 -57 -6 -80 -6 -74 0 -95 -19 -44 -40 23 -9 45 -9 100 0 39 6
126 13 193 15 68 2 129 4 136 4 23 2 12 21 -22 37 -28 14 -48 15 -117 8 l-84
-9 3 41 c4 45 16 53 77 54 17 0 37 5 45 10 26 17 -8 31 -68 28 l-52 -3 0 36
c0 36 0 36 50 43 28 4 63 11 78 17 26 10 27 11 7 25 -12 9 -31 13 -47 10 -16
-3 -42 -9 -60 -13 -31 -6 -31 -6 -25 27 9 41 -6 60 -45 60 -25 0 -29 -3 -23
-17z"/>
</g>
</svg>
