<?xml version="1.0" standalone="no"?>
<!DOCTYPE svg PUBLIC "-//W3C//DTD SVG 20010904//EN"
 "http://www.w3.org/TR/2001/REC-SVG-20010904/DTD/svg10.dtd">
<svg version="1.0" xmlns="http://www.w3.org/2000/svg"
 width="96.000000pt" height="68.000000pt" viewBox="0 0 96.000000 68.000000"
 preserveAspectRatio="xMidYMid meet">
<metadata>
Created by potrace 1.16, written by Peter Selinger 2001-2019
</metadata>
<g transform="translate(0.000000,68.000000) scale(0.100000,-0.100000)"
fill="#000000" stroke="none">
<path d="M276 528 c-23 -66 -64 -127 -130 -197 -58 -61 -33 -55 47 11 l47 39
0 -90 c0 -49 -5 -112 -12 -140 -13 -56 -1 -101 26 -101 18 0 24 40 29 202 3
90 1 122 -10 138 -13 18 -10 26 33 86 l48 67 -23 18 c-13 11 -26 19 -30 19 -3
0 -15 -24 -25 -52z"/>
</g>
</svg>
