<?xml version="1.0" standalone="no"?>
<!DOCTYPE svg PUBLIC "-//W3C//DTD SVG 20010904//EN"
 "http://www.w3.org/TR/2001/REC-SVG-20010904/DTD/svg10.dtd">
<svg version="1.0" xmlns="http://www.w3.org/2000/svg"
 width="90.000000pt" height="92.000000pt" viewBox="0 0 90.000000 92.000000"
 preserveAspectRatio="xMidYMid meet">
<metadata>
Created by potrace 1.16, written by Peter Selinger 2001-2019
</metadata>
<g transform="translate(0.000000,92.000000) scale(0.100000,-0.100000)"
fill="#000000" stroke="none">
<path d="M570 830 c-52 -10 -110 -19 -128 -19 -36 -1 -41 -23 -6 -30 30 -5 34
-19 34 -118 l0 -93 -52 0 -53 0 27 -27 27 -26 88 21 c117 29 123 29 123 -7 0
-40 18 -49 26 -14 13 59 15 61 54 68 59 10 64 29 6 23 l-48 -6 4 100 c3 96 4
99 28 105 37 9 42 13 29 29 -14 17 -37 16 -159 -6z m50 -49 c0 -5 2 -15 5 -23
4 -9 -4 -13 -22 -13 -16 -1 -43 -4 -61 -9 -30 -7 -32 -6 -30 16 2 13 12 26 23
30 31 10 85 9 85 -1z m10 -86 c0 -21 -5 -25 -29 -25 -16 0 -43 -3 -60 -6 -26
-6 -31 -4 -31 13 0 19 13 24 113 42 4 0 7 -10 7 -24z m0 -75 c0 -23 -6 -26
-72 -35 -46 -6 -48 -5 -48 19 0 20 6 25 33 29 77 9 87 8 87 -13z"/>
<path d="M173 759 c-14 -73 -63 -179 -127 -273 -26 -38 -45 -74 -43 -80 2 -6
30 15 62 47 53 52 86 69 99 49 2 -4 7 -24 11 -44 l7 -36 -44 -7 c-63 -10 -79
-15 -73 -26 4 -5 31 -9 61 -9 l54 0 0 -80 c0 -78 -1 -81 -27 -92 -16 -6 -54
-13 -85 -16 -32 -2 -58 -8 -58 -12 0 -11 61 -62 69 -58 187 93 241 121 241
129 0 13 -23 11 -65 -7 l-38 -15 8 83 c7 84 14 97 50 98 11 0 27 5 35 10 13 9
13 11 0 20 -8 6 -30 9 -48 7 -30 -3 -33 -1 -30 22 1 15 -1 31 -5 37 -4 7 9 16
33 23 22 6 40 16 40 22 0 19 -33 22 -84 5 -29 -9 -58 -16 -64 -16 -7 0 8 41
33 91 l46 91 30 -39 c39 -48 57 -59 65 -39 12 33 -5 64 -46 82 -33 15 -39 21
-34 40 4 15 -1 26 -17 38 -37 25 -44 20 -56 -45z"/>
<path d="M720 494 c-36 -7 -84 -13 -107 -14 -24 0 -43 -2 -43 -5 0 -3 9 -14
20 -25 17 -17 20 -33 20 -115 l0 -95 -27 -6 c-16 -3 -32 -7 -38 -8 -5 -2 1 -8
13 -15 19 -10 38 -10 86 -2 102 18 96 23 96 -73 0 -79 10 -111 25 -86 4 6 9
47 12 90 l6 79 38 6 c22 4 39 11 39 16 0 12 -35 29 -59 29 -20 0 -21 4 -15 73
3 39 8 78 10 86 2 7 -1 20 -7 27 -9 11 -6 14 15 14 31 0 34 15 7 30 -11 5 -21
9 -23 9 -2 -1 -32 -7 -68 -15z m15 -55 c8 -24 11 -22 -43 -36 -42 -10 -42 -10
-40 16 2 18 10 28 28 32 42 11 48 10 55 -12z m5 -81 c0 -20 -6 -23 -45 -25
-38 -2 -45 1 -45 17 0 14 9 20 33 23 17 2 38 5 45 5 6 1 12 -8 12 -20z m0 -73
c0 -14 -3 -25 -7 -25 -5 0 -25 -4 -45 -9 -37 -9 -38 -8 -38 19 0 24 5 29 28
33 59 9 62 8 62 -18z"/>
<path d="M440 479 c-30 -5 -71 -12 -90 -15 l-34 -6 22 -16 c19 -15 23 -29 28
-120 l6 -102 -33 0 -34 0 26 -26 26 -26 61 31 61 31 3 -73 c2 -56 6 -72 18
-72 13 0 16 28 20 176 4 124 9 181 18 192 11 13 10 17 -7 26 -11 6 -23 10 -28
10 -4 -1 -33 -5 -63 -10z m40 -60 c0 -10 -6 -19 -12 -19 -7 0 -23 -3 -35 -6
-20 -5 -23 -2 -23 19 0 20 6 26 28 29 35 5 42 1 42 -23z m0 -67 c0 -21 -66
-46 -74 -27 -2 7 -1 17 2 22 6 10 16 13 65 22 4 0 7 -7 7 -17z m0 -76 c0 -18
-8 -27 -31 -35 -45 -16 -49 -14 -49 18 0 26 4 30 33 34 17 2 35 5 40 5 4 1 7
-9 7 -22z"/>
<path d="M280 348 c0 -8 -8 -30 -19 -51 l-19 -37 27 16 c58 35 66 44 55 62
-14 21 -44 28 -44 10z"/>
<path d="M70 309 c0 -24 42 -79 61 -79 25 0 26 41 2 62 -25 22 -63 32 -63 17z"/>
</g>
</svg>
