<?xml version="1.0" standalone="no"?>
<!DOCTYPE svg PUBLIC "-//W3C//DTD SVG 20010904//EN"
 "http://www.w3.org/TR/2001/REC-SVG-20010904/DTD/svg10.dtd">
<svg version="1.0" xmlns="http://www.w3.org/2000/svg"
 width="96.000000pt" height="68.000000pt" viewBox="0 0 96.000000 68.000000"
 preserveAspectRatio="xMidYMid meet">
<metadata>
Created by potrace 1.16, written by Peter Selinger 2001-2019
</metadata>
<g transform="translate(0.000000,68.000000) scale(0.100000,-0.100000)"
fill="#000000" stroke="none">
<path d="M620 380 c8 -5 10 -10 4 -10 -13 0 -16 -290 -4 -325 l7 -20 6 20 c14
43 16 149 4 157 -9 5 -8 10 2 20 11 11 13 11 6 -1 -6 -10 -4 -12 6 -5 8 5 36
9 63 9 54 0 75 19 26 22 -17 1 -28 -2 -25 -7 3 -5 -11 -7 -32 -4 -57 8 -62 11
-60 32 0 11 6 18 13 15 7 -2 13 13 17 44 6 56 3 63 -26 63 -18 0 -19 -2 -7
-10z m27 -22 c-3 -8 -6 -5 -6 6 -1 11 2 17 5 13 3 -3 4 -12 1 -19z"/>
<path d="M630 259 c0 -5 5 -7 10 -4 6 3 10 8 10 11 0 2 -4 4 -10 4 -5 0 -10
-5 -10 -11z"/>
<path d="M533 208 c8 -4 27 -3 43 1 26 8 25 9 -13 8 -25 -1 -37 -4 -30 -9z"/>
<path d="M440 200 c-12 -8 -10 -10 10 -9 14 0 34 4 45 9 17 7 16 9 -10 9 -16
0 -37 -4 -45 -9z"/>
</g>
</svg>
