<?xml version="1.0" standalone="no"?>
<!DOCTYPE svg PUBLIC "-//W3C//DTD SVG 20010904//EN"
 "http://www.w3.org/TR/2001/REC-SVG-20010904/DTD/svg10.dtd">
<svg version="1.0" xmlns="http://www.w3.org/2000/svg"
 width="96.000000pt" height="68.000000pt" viewBox="0 0 96.000000 68.000000"
 preserveAspectRatio="xMidYMid meet">
<metadata>
Created by potrace 1.16, written by Peter Selinger 2001-2019
</metadata>
<g transform="translate(0.000000,68.000000) scale(0.100000,-0.100000)"
fill="#000000" stroke="none">
<path d="M277 432 c-14 -3 -16 -10 -11 -38 6 -33 5 -34 -27 -35 -19 0 -43 -4
-54 -9 -15 -6 -6 -9 33 -9 51 -1 52 -2 52 -30 0 -37 -4 -40 -91 -54 -39 -7
-69 -16 -67 -22 4 -12 58 -12 112 -1 l39 9 -29 -53 c-15 -28 -50 -72 -77 -96
-44 -40 -46 -43 -18 -33 52 18 117 84 142 144 21 52 25 55 58 56 20 1 47 4 61
9 22 6 23 8 7 15 -10 4 -36 5 -57 1 -37 -6 -40 -4 -40 16 0 33 11 45 48 53 39
8 33 25 -10 25 -25 0 -29 3 -25 20 6 23 -17 39 -46 32z"/>
</g>
</svg>
