<?xml version="1.0" standalone="no"?>
<!DOCTYPE svg PUBLIC "-//W3C//DTD SVG 20010904//EN"
 "http://www.w3.org/TR/2001/REC-SVG-20010904/DTD/svg10.dtd">
<svg version="1.0" xmlns="http://www.w3.org/2000/svg"
 width="90.000000pt" height="92.000000pt" viewBox="0 0 90.000000 92.000000"
 preserveAspectRatio="xMidYMid meet">
<metadata>
Created by potrace 1.16, written by Peter Selinger 2001-2019
</metadata>
<g transform="translate(0.000000,92.000000) scale(0.100000,-0.100000)"
fill="#000000" stroke="none">
<path d="M610 819 c0 -12 -14 -50 -31 -86 -17 -35 -29 -66 -26 -69 4 -5 130
121 135 136 3 9 -49 40 -68 40 -5 0 -10 -9 -10 -21z"/>
<path d="M375 743 c36 -63 50 -77 69 -70 35 14 13 78 -34 102 -56 29 -65 20
-35 -32z"/>
<path d="M120 772 c0 -6 20 -31 45 -56 60 -62 95 -61 85 4 -3 20 -29 37 -68
45 -18 3 -40 9 -48 12 -8 3 -14 1 -14 -5z"/>
<path d="M630 659 c-25 -5 -112 -18 -194 -29 -82 -11 -152 -22 -154 -25 -3 -3
10 -11 29 -19 29 -12 46 -12 114 0 44 7 127 16 185 19 58 3 116 9 130 11 l25
6 -28 24 c-30 26 -38 27 -107 13z"/>
<path d="M79 531 c50 -59 84 -66 89 -19 4 33 -29 57 -90 66 l-43 5 44 -52z"/>
<path d="M395 560 c-3 -5 -3 -10 1 -10 9 0 -22 -46 -68 -102 -22 -27 -36 -48
-31 -48 17 0 97 58 136 98 30 30 35 41 25 49 -21 17 -56 25 -63 13z"/>
<path d="M621 513 c91 -85 99 -90 115 -69 26 36 -7 78 -83 106 -94 35 -101 27
-32 -37z"/>
<path d="M172 368 c-23 -43 -60 -96 -82 -119 -45 -47 -48 -62 -23 -114 18 -39
31 -44 40 -17 3 9 30 79 60 155 64 163 66 206 5 95z"/>
<path d="M535 389 c-66 -10 -148 -19 -182 -20 -35 -1 -63 -3 -63 -5 0 -3 6
-15 14 -27 8 -12 21 -59 29 -104 l14 -83 -68 0 c-78 0 -95 -13 -46 -36 30 -14
43 -15 98 -5 35 7 169 15 297 18 184 5 232 9 232 19 0 27 -58 46 -121 39 l-59
-7 20 56 c10 31 28 70 40 85 24 35 18 56 -21 76 -33 18 -30 18 -184 -6z m122
-35 c5 -14 -12 -140 -24 -171 -5 -12 -73 -19 -73 -8 0 3 9 39 21 81 11 41 18
81 15 89 -6 18 3 25 31 25 13 0 26 -7 30 -16z m-107 -21 c0 -16 -3 -58 -6 -95
-6 -63 -8 -66 -35 -70 l-29 -5 0 93 c0 96 2 102 48 103 18 1 22 -4 22 -26z
m-119 5 c0 -2 6 -42 13 -90 l12 -88 -37 0 -36 0 -7 63 c-4 34 -10 72 -12 84
-4 15 0 23 13 26 21 5 53 8 54 5z"/>
</g>
</svg>
