<?xml version="1.0" standalone="no"?>
<!DOCTYPE svg PUBLIC "-//W3C//DTD SVG 20010904//EN"
 "http://www.w3.org/TR/2001/REC-SVG-20010904/DTD/svg10.dtd">
<svg version="1.0" xmlns="http://www.w3.org/2000/svg"
 width="96.000000pt" height="68.000000pt" viewBox="0 0 96.000000 68.000000"
 preserveAspectRatio="xMidYMid meet">
<metadata>
Created by potrace 1.16, written by Peter Selinger 2001-2019
</metadata>
<g transform="translate(0.000000,68.000000) scale(0.100000,-0.100000)"
fill="#000000" stroke="none">
<path d="M590 518 c-14 -29 -27 -57 -29 -62 -5 -12 31 14 75 53 39 36 40 55 3
58 -20 2 -28 -6 -49 -49z"/>
<path d="M390 535 c0 -19 33 -65 51 -70 34 -11 43 9 17 38 -22 24 -68 46 -68
32z"/>
<path d="M208 489 c49 -46 87 -51 87 -10 0 19 -8 27 -35 37 -19 7 -48 13 -65
13 l-30 0 43 -40z"/>
<path d="M619 446 c-2 -2 -71 -12 -152 -22 -108 -12 -144 -20 -132 -27 11 -6
69 -5 164 2 219 17 235 20 220 37 -10 13 -89 21 -100 10z"/>
<path d="M110 393 c1 -27 81 -90 100 -78 21 13 11 52 -17 63 -43 16 -83 23
-83 15z"/>
<path d="M420 365 c0 -8 -4 -15 -10 -15 -5 0 -10 -6 -10 -14 0 -8 -19 -28 -42
-45 -66 -49 -20 -36 56 15 64 43 68 48 51 60 -25 18 -45 18 -45 -1z"/>
<path d="M614 349 c73 -63 106 -74 106 -36 0 26 -43 51 -106 62 l-39 7 39 -33z"/>
<path d="M211 230 c-24 -34 -56 -70 -72 -82 -16 -12 -29 -31 -29 -42 1 -26 23
-56 41 -56 12 0 119 210 119 233 0 20 -21 1 -59 -53z"/>
<path d="M550 254 c-63 -8 -141 -15 -173 -15 -52 -2 -56 -3 -43 -18 16 -18 36
-84 36 -118 0 -21 -4 -23 -60 -23 -33 0 -60 -4 -60 -9 0 -17 55 -21 155 -11
55 5 168 10 250 10 155 0 203 10 152 29 -16 6 -51 11 -78 11 -29 0 -49 4 -49
11 0 6 12 34 27 61 l27 50 -23 19 c-13 11 -28 18 -35 18 -6 -1 -63 -8 -126
-15z m104 -22 c3 -5 -3 -36 -12 -70 -16 -59 -18 -62 -48 -62 l-31 0 18 53 c10
28 18 60 19 70 0 18 44 25 54 9z m-106 -69 c-3 -62 -5 -68 -26 -71 -26 -4 -29
4 -35 81 l-4 57 34 0 34 0 -3 -67z m-94 35 c3 -13 7 -42 10 -65 l6 -43 -37 0
c-20 0 -34 3 -30 6 3 3 -1 27 -9 52 -20 67 -19 72 21 72 28 0 36 -4 39 -22z"/>
</g>
</svg>
