<?xml version="1.0" standalone="no"?>
<!DOCTYPE svg PUBLIC "-//W3C//DTD SVG 20010904//EN"
 "http://www.w3.org/TR/2001/REC-SVG-20010904/DTD/svg10.dtd">
<svg version="1.0" xmlns="http://www.w3.org/2000/svg"
 width="96.000000pt" height="68.000000pt" viewBox="0 0 96.000000 68.000000"
 preserveAspectRatio="xMidYMid meet">
<metadata>
Created by potrace 1.16, written by Peter Selinger 2001-2019
</metadata>
<g transform="translate(0.000000,68.000000) scale(0.100000,-0.100000)"
fill="#000000" stroke="none">
<path d="M398 306 c-64 -6 -120 -14 -124 -18 -4 -5 2 -8 14 -8 28 0 36 -15 42
-84 4 -46 9 -60 23 -62 11 -1 17 4 17 16 0 20 27 30 82 30 20 0 40 5 44 11 5
8 -12 10 -57 8 -52 -3 -64 -1 -64 11 0 9 11 16 25 18 60 6 90 14 90 22 0 5
-25 6 -55 3 -45 -5 -55 -3 -55 9 0 16 20 20 163 34 37 4 67 11 67 15 0 11 -58
9 -212 -5z"/>
</g>
</svg>
