<?xml version="1.0" standalone="no"?>
<!DOCTYPE svg PUBLIC "-//W3C//DTD SVG 20010904//EN"
 "http://www.w3.org/TR/2001/REC-SVG-20010904/DTD/svg10.dtd">
<svg version="1.0" xmlns="http://www.w3.org/2000/svg"
 width="96.000000pt" height="68.000000pt" viewBox="0 0 96.000000 68.000000"
 preserveAspectRatio="xMidYMid meet">
<metadata>
Created by potrace 1.16, written by Peter Selinger 2001-2019
</metadata>
<g transform="translate(0.000000,68.000000) scale(0.100000,-0.100000)"
fill="#000000" stroke="none">
<path d="M629 612 c-1 -4 -2 -18 -4 -32 -1 -14 -3 -31 -3 -37 -1 -7 -11 -13
-22 -13 -23 0 -27 -15 -6 -23 9 -4 12 -14 9 -29 -5 -21 -2 -20 25 10 28 29 36
32 89 32 71 0 101 14 54 25 -18 4 -48 4 -67 1 -26 -5 -34 -4 -34 8 0 8 5 18
10 21 6 3 10 10 10 15 0 10 -60 32 -61 22z"/>
<path d="M410 583 c0 -5 7 -17 15 -27 27 -36 19 -46 -36 -46 -45 0 -50 -2 -39
-15 10 -12 24 -14 60 -9 38 5 48 3 53 -10 10 -25 27 -19 27 9 0 17 6 25 18 26
11 1 8 4 -8 8 -16 4 -26 15 -29 31 -1 14 -8 28 -15 32 -15 10 -46 10 -46 1z"/>
<path d="M220 475 c-19 -7 -57 -14 -83 -14 -48 -1 -48 -1 -33 -23 9 -12 21
-49 27 -81 11 -56 33 -83 48 -59 3 5 31 13 61 17 l55 7 1 36 c0 21 7 52 14 69
9 21 11 36 5 42 -18 17 -60 20 -95 6z m30 -52 c0 -53 -10 -71 -42 -75 -33 -5
-39 3 -42 54 -1 28 3 33 29 39 51 11 55 10 55 -18z"/>
<path d="M545 438 c-44 -5 -93 -13 -110 -18 -27 -7 -24 -8 22 -9 l51 -1 4 -71
c2 -39 1 -75 -2 -79 -6 -9 -96 -19 -177 -19 -29 -1 -53 -5 -53 -10 0 -16 58
-20 142 -11 45 5 86 6 90 2 4 -4 5 -17 2 -29 -5 -18 -16 -23 -70 -28 -81 -9
-73 -27 10 -23 l61 3 5 -63 c8 -98 37 -75 39 31 l1 48 88 -2 c48 -1 86 2 85 7
-3 16 -38 21 -105 16 -68 -5 -68 -5 -68 21 0 34 11 36 170 40 114 2 122 3 95
15 -23 11 -54 12 -138 5 -60 -4 -112 -6 -117 -3 -5 3 -8 38 -7 77 l2 72 40 7
c22 4 47 8 55 9 8 0 17 5 20 10 7 13 -39 14 -135 3z"/>
<path d="M660 375 c0 -14 -7 -28 -15 -30 -46 -15 -51 -18 -27 -22 18 -4 21 -9
16 -31 l-5 -27 23 28 c19 21 32 27 65 27 23 0 48 3 57 6 26 10 7 24 -33 24
-33 0 -37 3 -37 23 1 16 -5 23 -21 25 -19 3 -23 -1 -23 -23z"/>
<path d="M370 375 c0 -4 7 -13 15 -21 22 -23 18 -34 -12 -35 -16 0 -37 -4 -48
-9 -14 -6 -4 -9 36 -9 41 -1 58 -5 63 -16 8 -22 25 -19 19 4 -4 14 3 20 29 26
l33 8 -40 6 c-31 5 -40 10 -40 26 0 14 -8 21 -27 23 -16 2 -28 0 -28 -3z"/>
</g>
</svg>
