<?xml version="1.0" standalone="no"?>
<!DOCTYPE svg PUBLIC "-//W3C//DTD SVG 20010904//EN"
 "http://www.w3.org/TR/2001/REC-SVG-20010904/DTD/svg10.dtd">
<svg version="1.0" xmlns="http://www.w3.org/2000/svg"
 width="96.000000pt" height="68.000000pt" viewBox="0 0 96.000000 68.000000"
 preserveAspectRatio="xMidYMid meet">
<metadata>
Created by potrace 1.16, written by Peter Selinger 2001-2019
</metadata>
<g transform="translate(0.000000,68.000000) scale(0.100000,-0.100000)"
fill="#000000" stroke="none">
<path d="M295 583 c4 -10 9 -50 12 -90 l6 -71 -59 -7 c-109 -12 -114 -26 -10
-26 l67 0 -3 -46 -3 -46 -90 -35 c-109 -44 -100 -38 -85 -57 19 -23 47 -18
111 22 33 20 62 33 65 30 3 -3 3 -36 -1 -72 l-8 -67 -40 5 -40 5 39 -39 c44
-45 57 -48 78 -17 12 17 16 48 16 124 l0 102 30 12 c37 15 60 40 37 40 -9 0
-18 -4 -21 -9 -3 -5 -15 -11 -26 -14 -17 -4 -20 0 -20 33 0 36 2 38 40 44 22
3 40 10 40 15 0 12 -45 22 -64 15 -21 -8 -21 44 -1 100 12 36 12 41 -3 52 -9
8 -30 14 -46 14 -23 0 -27 -3 -21 -17z"/>
</g>
</svg>
