<?xml version="1.0" standalone="no"?>
<!DOCTYPE svg PUBLIC "-//W3C//DTD SVG 20010904//EN"
 "http://www.w3.org/TR/2001/REC-SVG-20010904/DTD/svg10.dtd">
<svg version="1.0" xmlns="http://www.w3.org/2000/svg"
 width="96.000000pt" height="68.000000pt" viewBox="0 0 96.000000 68.000000"
 preserveAspectRatio="xMidYMid meet">
<metadata>
Created by potrace 1.16, written by Peter Selinger 2001-2019
</metadata>
<g transform="translate(0.000000,68.000000) scale(0.100000,-0.100000)"
fill="#000000" stroke="none">
<path d="M439 363 c-1 -5 0 -20 1 -34 1 -25 -2 -27 -49 -34 -60 -8 -58 -28 3
-23 40 3 41 2 41 -27 0 -30 0 -30 -77 -39 -43 -5 -78 -12 -78 -16 0 -14 48
-20 95 -11 25 5 55 6 66 4 10 -3 25 -1 32 5 6 6 59 13 117 17 58 4 111 11 119
15 19 10 -52 34 -77 26 -11 -4 -49 -10 -86 -14 l-67 -9 3 31 c3 30 5 31 76 45
86 16 86 38 0 26 -62 -9 -63 -9 -63 8 -1 21 -16 37 -36 37 -10 0 -19 -3 -20
-7z"/>
</g>
</svg>
