<?xml version="1.0" standalone="no"?>
<!DOCTYPE svg PUBLIC "-//W3C//DTD SVG 20010904//EN"
 "http://www.w3.org/TR/2001/REC-SVG-20010904/DTD/svg10.dtd">
<svg version="1.0" xmlns="http://www.w3.org/2000/svg"
 width="90.000000pt" height="92.000000pt" viewBox="0 0 90.000000 92.000000"
 preserveAspectRatio="xMidYMid meet">
<metadata>
Created by potrace 1.16, written by Peter Selinger 2001-2019
</metadata>
<g transform="translate(0.000000,92.000000) scale(0.100000,-0.100000)"
fill="#000000" stroke="none">
<path d="M565 819 c-55 -15 -77 -17 -102 -8 -39 13 -57 5 -44 -19 5 -9 11 -86
13 -170 l3 -152 -40 0 c-53 0 -75 -14 -47 -29 11 -6 27 -11 35 -11 8 0 17 -10
21 -22 9 -34 7 -146 -3 -210 -11 -64 -5 -98 16 -98 19 0 168 123 155 128 -6 2
-29 -6 -51 -17 -73 -38 -73 -37 -69 103 l3 124 45 7 c25 4 104 10 177 14 73 4
135 10 139 14 10 10 -14 34 -41 41 -14 4 -83 -3 -154 -14 -71 -11 -132 -20
-135 -20 -3 0 -6 18 -6 40 0 37 2 40 28 40 33 0 171 26 179 34 3 3 -6 10 -20
17 -19 9 -40 8 -95 -5 -92 -21 -92 -21 -92 13 0 28 1 29 93 46 104 20 122 30
84 44 -20 8 -45 5 -99 -8 -43 -11 -74 -15 -77 -9 -1 5 0 24 3 41 6 32 6 33 90
44 47 6 95 17 107 24 22 11 22 12 4 25 -23 17 -31 16 -120 -7z"/>
<path d="M195 754 c-33 -7 -75 -10 -94 -7 -31 5 -33 4 -25 -13 5 -10 9 -103 9
-206 0 -139 3 -190 13 -200 10 -10 15 -10 22 2 8 12 10 11 10 -7 0 -25 -27
-75 -83 -152 -40 -55 -37 -57 20 -14 35 26 123 135 123 153 0 6 -10 14 -22 19
-17 6 -9 9 37 15 58 7 64 4 79 -29 3 -5 12 -1 20 9 13 16 16 49 16 172 0 83 3
172 6 197 6 43 5 46 -24 61 -35 18 -28 18 -107 0z m67 -79 c4 -27 6 -50 5 -51
-1 -1 -32 -5 -69 -9 l-68 -7 0 51 c0 44 3 51 23 55 12 3 31 7 42 10 49 10 60
3 67 -49z m8 -130 c0 -42 -1 -44 -27 -43 -16 1 -47 -2 -70 -7 l-43 -8 0 46 0
46 48 4 c26 2 57 4 70 5 20 2 22 -2 22 -43z m0 -118 c0 -42 -1 -43 -32 -43
-18 0 -52 -3 -75 -8 l-43 -8 0 46 0 45 43 4 c113 10 107 12 107 -36z"/>
<path d="M676 412 c-4 -10 -19 -31 -36 -47 l-29 -28 -36 32 c-20 17 -46 31
-58 31 -20 -1 -19 -3 11 -27 18 -14 56 -56 84 -92 68 -87 129 -151 145 -151
34 0 114 23 111 32 -2 6 -26 19 -52 30 -56 22 -141 76 -174 111 l-23 24 61 23
c33 12 63 27 67 33 7 12 -32 47 -52 47 -8 0 -16 -8 -19 -18z"/>
<path d="M258 240 c20 -38 40 -70 44 -70 14 0 20 52 9 76 -9 21 -65 64 -83 64
-4 0 10 -31 30 -70z"/>
</g>
</svg>
