<?xml version="1.0" standalone="no"?>
<!DOCTYPE svg PUBLIC "-//W3C//DTD SVG 20010904//EN"
 "http://www.w3.org/TR/2001/REC-SVG-20010904/DTD/svg10.dtd">
<svg version="1.0" xmlns="http://www.w3.org/2000/svg"
 width="90.000000pt" height="92.000000pt" viewBox="0 0 90.000000 92.000000"
 preserveAspectRatio="xMidYMid meet">
<metadata>
Created by potrace 1.16, written by Peter Selinger 2001-2019
</metadata>
<g transform="translate(0.000000,92.000000) scale(0.100000,-0.100000)"
fill="#000000" stroke="none">
<path d="M330 847 c0 -33 -67 -144 -122 -203 -33 -35 -56 -64 -51 -64 10 0 79
45 108 71 29 25 75 15 67 -14 -8 -35 -58 -102 -108 -146 -54 -47 -52 -50 15
-16 43 21 161 136 161 156 0 4 -7 14 -15 23 -14 13 -12 16 19 21 67 13 70 -4
21 -103 -27 -53 -55 -89 -112 -142 -71 -66 -74 -71 -39 -56 80 34 148 99 204
196 14 25 32 53 40 63 13 15 13 19 -2 36 -17 19 -17 20 18 26 55 11 66 2 66
-49 0 -51 -34 -169 -54 -185 -10 -8 -21 -8 -40 -1 -15 5 -29 10 -32 10 -2 0 8
-22 24 -50 15 -27 32 -50 38 -50 20 0 61 38 77 72 9 18 23 74 32 123 9 50 23
100 30 111 12 19 12 24 -3 37 -34 29 -58 37 -91 27 -47 -13 -239 -42 -252 -38
-6 2 7 27 30 56 23 28 41 54 41 56 0 3 -10 14 -22 26 -25 23 -48 26 -48 7z"/>
<path d="M702 308 c82 -97 103 -108 114 -63 9 37 -19 73 -79 101 -88 41 -96
32 -35 -38z"/>
<path d="M386 311 c42 -71 94 -92 94 -38 0 32 -29 56 -75 64 l-38 6 19 -32z"/>
<path d="M103 259 c-36 -78 -41 -110 -19 -128 36 -30 89 108 64 168 l-13 32
-32 -72z"/>
<path d="M225 283 c4 -10 14 -38 23 -62 22 -65 85 -123 155 -145 77 -24 223
-19 282 9 60 30 57 52 -12 97 -32 21 -69 45 -82 55 l-23 17 21 -42 c18 -36 27
-72 18 -72 -2 0 -29 -5 -60 -11 -124 -22 -231 23 -273 117 -15 33 -30 54 -40
54 -11 0 -14 -5 -9 -17z"/>
</g>
</svg>
