<?xml version="1.0" standalone="no"?>
<!DOCTYPE svg PUBLIC "-//W3C//DTD SVG 20010904//EN"
 "http://www.w3.org/TR/2001/REC-SVG-20010904/DTD/svg10.dtd">
<svg version="1.0" xmlns="http://www.w3.org/2000/svg"
 width="96.000000pt" height="68.000000pt" viewBox="0 0 96.000000 68.000000"
 preserveAspectRatio="xMidYMid meet">
<metadata>
Created by potrace 1.16, written by Peter Selinger 2001-2019
</metadata>
<g transform="translate(0.000000,68.000000) scale(0.100000,-0.100000)"
fill="#000000" stroke="none">
<path d="M271 424 c-13 -37 -63 -93 -141 -158 -39 -32 -41 -36 -16 -26 16 6
48 24 72 39 23 16 45 27 48 23 10 -9 7 -53 -9 -126 -13 -63 -13 -72 1 -94 10
-15 19 -21 25 -15 14 14 29 235 17 250 -7 9 2 26 31 59 23 26 41 50 41 54 0 5
-44 30 -53 30 -2 0 -9 -16 -16 -36z"/>
</g>
</svg>
