<?xml version="1.0" standalone="no"?>
<!DOCTYPE svg PUBLIC "-//W3C//DTD SVG 20010904//EN"
 "http://www.w3.org/TR/2001/REC-SVG-20010904/DTD/svg10.dtd">
<svg version="1.0" xmlns="http://www.w3.org/2000/svg"
 width="96.000000pt" height="68.000000pt" viewBox="0 0 96.000000 68.000000"
 preserveAspectRatio="xMidYMid meet">
<metadata>
Created by potrace 1.16, written by Peter Selinger 2001-2019
</metadata>
<g transform="translate(0.000000,68.000000) scale(0.100000,-0.100000)"
fill="#000000" stroke="none">
<path d="M450 568 c-19 -5 -47 -8 -62 -6 -16 3 -27 2 -26 -1 2 -3 12 -29 23
-58 16 -43 23 -52 40 -48 11 2 36 6 55 9 33 6 37 10 48 52 7 25 10 50 7 55 -8
11 -39 10 -85 -3z m36 -74 c-3 -8 -19 -14 -35 -14 -24 0 -31 6 -40 31 -6 18
-11 33 -11 35 0 2 19 4 43 6 38 3 42 1 45 -20 2 -13 1 -30 -2 -38z"/>
</g>
</svg>
