<?xml version="1.0" standalone="no"?>
<!DOCTYPE svg PUBLIC "-//W3C//DTD SVG 20010904//EN"
 "http://www.w3.org/TR/2001/REC-SVG-20010904/DTD/svg10.dtd">
<svg version="1.0" xmlns="http://www.w3.org/2000/svg"
 width="96.000000pt" height="68.000000pt" viewBox="0 0 96.000000 68.000000"
 preserveAspectRatio="xMidYMid meet">
<metadata>
Created by potrace 1.16, written by Peter Selinger 2001-2019
</metadata>
<g transform="translate(0.000000,68.000000) scale(0.100000,-0.100000)"
fill="#000000" stroke="none">
<path d="M508 388 c-2 -28 -8 -34 -31 -36 -32 -4 -27 -22 6 -22 14 0 28 -11
38 -29 13 -22 26 -30 62 -35 47 -7 127 8 127 23 0 15 -49 22 -71 11 -11 -6
-37 -10 -57 -8 -29 2 -38 8 -40 25 -3 23 4 26 70 38 64 10 59 29 -5 21 -56 -6
-57 -6 -57 19 0 18 -5 25 -19 25 -15 0 -21 -8 -23 -32z"/>
</g>
</svg>
