<?xml version="1.0" standalone="no"?>
<!DOCTYPE svg PUBLIC "-//W3C//DTD SVG 20010904//EN"
 "http://www.w3.org/TR/2001/REC-SVG-20010904/DTD/svg10.dtd">
<svg version="1.0" xmlns="http://www.w3.org/2000/svg"
 width="96.000000pt" height="68.000000pt" viewBox="0 0 96.000000 68.000000"
 preserveAspectRatio="xMidYMid meet">
<metadata>
Created by potrace 1.16, written by Peter Selinger 2001-2019
</metadata>
<g transform="translate(0.000000,68.000000) scale(0.100000,-0.100000)"
fill="#000000" stroke="none">
<path d="M226 540 c-21 -4 -47 -5 -57 -3 -16 5 -16 1 3 -51 20 -55 31 -66 43
-46 3 6 21 10 38 10 39 0 47 6 70 49 26 50 2 60 -97 41z m52 -37 c-2 -22 -9
-29 -32 -31 -44 -5 -66 43 -23 51 53 10 58 8 55 -20z"/>
</g>
</svg>
