<?xml version="1.0" standalone="no"?>
<!DOCTYPE svg PUBLIC "-//W3C//DTD SVG 20010904//EN"
 "http://www.w3.org/TR/2001/REC-SVG-20010904/DTD/svg10.dtd">
<svg version="1.0" xmlns="http://www.w3.org/2000/svg"
 width="96.000000pt" height="68.000000pt" viewBox="0 0 96.000000 68.000000"
 preserveAspectRatio="xMidYMid meet">
<metadata>
Created by potrace 1.16, written by Peter Selinger 2001-2019
</metadata>
<g transform="translate(0.000000,68.000000) scale(0.100000,-0.100000)"
fill="#000000" stroke="none">
<path d="M425 559 c-22 -6 -50 -7 -62 -4 -13 3 -23 1 -23 -5 0 -5 5 -10 10
-10 6 0 9 -3 8 -7 -1 -5 2 -23 6 -40 8 -35 22 -39 84 -27 21 4 32 14 36 30 4
13 11 24 16 24 6 0 10 9 10 20 0 11 -4 20 -9 20 -5 0 -15 2 -23 4 -7 2 -31 0
-53 -5z m35 -33 c0 -31 -13 -46 -40 -46 -29 0 -49 28 -35 50 10 16 75 12 75
-4z"/>
<path d="M255 549 c-22 -4 -57 -8 -77 -8 l-37 -1 14 -27 c8 -16 19 -43 26 -60
11 -31 29 -45 29 -23 0 5 23 12 50 16 30 4 50 12 50 19 0 7 7 18 15 25 21 17
15 51 -10 60 -11 3 -38 3 -60 -1z m15 -48 c0 -33 -54 -43 -63 -11 -5 20 5 28
41 29 15 1 22 -5 22 -18z"/>
<path d="M611 532 c-71 -11 -89 -17 -76 -24 9 -6 30 -8 46 -6 32 5 37 -9 19
-56 -7 -21 -16 -26 -42 -26 l-33 0 0 -118 c0 -116 0 -117 23 -114 20 2 22 -1
17 -20 -8 -25 -36 -60 -75 -95 -14 -12 -20 -22 -15 -23 11 0 30 12 114 73 l54
40 -22 19 c-23 18 -23 18 44 18 55 0 70 -4 83 -20 10 -11 22 -17 28 -12 14 9
23 241 10 261 -7 11 -26 12 -89 7 l-79 -7 25 31 c15 17 24 37 21 45 -5 12 6
15 59 15 70 0 100 7 91 21 -7 13 -93 9 -203 -9z m113 -118 c9 -3 16 -17 16
-30 0 -20 -5 -24 -29 -24 -15 0 -56 -3 -90 -6 -58 -7 -61 -6 -58 14 4 29 5 29
67 37 30 4 57 9 59 11 6 6 17 5 35 -2z m16 -91 c0 -27 -2 -28 -58 -31 -31 -2
-70 -4 -87 -5 -24 -2 -31 2 -33 19 -3 20 3 22 85 31 48 6 89 11 91 12 1 0 2
-11 2 -26z m0 -70 l0 -28 -90 -2 c-89 -2 -90 -2 -90 22 0 23 3 24 73 28 39 1
80 4 90 5 12 1 17 -5 17 -25z"/>
<path d="M295 400 l-80 -18 62 -1 c70 -1 163 16 163 30 0 13 -54 9 -145 -11z"/>
<path d="M295 335 c-44 -7 -102 -16 -129 -20 -71 -10 -44 -29 33 -23 68 5 72
-1 44 -51 -10 -16 -15 -32 -12 -35 3 -3 27 1 54 9 26 8 62 15 78 15 29 0 30
-1 24 -42 -10 -72 -64 -119 -103 -88 -22 19 -16 -2 11 -35 l24 -30 38 21 c29
17 42 33 55 70 9 27 22 57 28 67 9 15 8 23 -7 39 -16 18 -26 20 -85 15 -68 -6
-81 0 -53 23 8 7 15 18 15 25 0 13 23 19 118 31 28 4 52 10 52 15 0 12 -90 9
-185 -6z"/>
<path d="M735 100 c33 -33 63 -60 67 -60 3 0 10 9 13 21 9 26 -16 54 -69 80
-70 33 -73 21 -11 -41z"/>
</g>
</svg>
