<?xml version="1.0" standalone="no"?>
<!DOCTYPE svg PUBLIC "-//W3C//DTD SVG 20010904//EN"
 "http://www.w3.org/TR/2001/REC-SVG-20010904/DTD/svg10.dtd">
<svg version="1.0" xmlns="http://www.w3.org/2000/svg"
 width="96.000000pt" height="68.000000pt" viewBox="0 0 96.000000 68.000000"
 preserveAspectRatio="xMidYMid meet">
<metadata>
Created by potrace 1.16, written by Peter Selinger 2001-2019
</metadata>
<g transform="translate(0.000000,68.000000) scale(0.100000,-0.100000)"
fill="#000000" stroke="none">
<path d="M610 427 l-85 -10 0 -83 c0 -72 2 -84 17 -84 9 0 18 4 20 8 2 5 43
12 91 15 72 5 89 3 94 -8 3 -8 13 -15 23 -15 15 0 18 12 22 83 3 47 1 87 -4
95 -12 13 -53 13 -178 -1z m114 -13 c9 -3 16 -16 16 -29 0 -21 -5 -23 -86 -29
-47 -4 -88 -5 -91 -2 -3 2 -2 13 1 24 5 15 21 22 64 30 77 13 78 13 96 6z m16
-91 c0 -27 -2 -28 -63 -31 -34 -2 -73 -4 -87 -5 -19 -1 -26 3 -28 19 -3 19 4
22 85 31 48 5 89 11 91 11 1 1 2 -10 2 -25z"/>
</g>
</svg>
