<?xml version="1.0" standalone="no"?>
<!DOCTYPE svg PUBLIC "-//W3C//DTD SVG 20010904//EN"
 "http://www.w3.org/TR/2001/REC-SVG-20010904/DTD/svg10.dtd">
<svg version="1.0" xmlns="http://www.w3.org/2000/svg"
 width="96.000000pt" height="68.000000pt" viewBox="0 0 96.000000 68.000000"
 preserveAspectRatio="xMidYMid meet">
<metadata>
Created by potrace 1.16, written by Peter Selinger 2001-2019
</metadata>
<g transform="translate(0.000000,68.000000) scale(0.100000,-0.100000)"
fill="#000000" stroke="none">
<path d="M330 525 c0 -3 9 -23 20 -45 11 -22 20 -41 20 -44 0 -2 -25 -8 -55
-11 -30 -4 -55 -11 -55 -16 0 -18 150 -6 220 17 25 9 -17 27 -46 20 -20 -5
-24 -3 -24 14 0 24 -42 70 -65 70 -8 0 -15 -2 -15 -5z"/>
</g>
</svg>
