<?xml version="1.0" standalone="no"?>
<!DOCTYPE svg PUBLIC "-//W3C//DTD SVG 20010904//EN"
 "http://www.w3.org/TR/2001/REC-SVG-20010904/DTD/svg10.dtd">
<svg version="1.0" xmlns="http://www.w3.org/2000/svg"
 width="96.000000pt" height="68.000000pt" viewBox="0 0 96.000000 68.000000"
 preserveAspectRatio="xMidYMid meet">
<metadata>
Created by potrace 1.16, written by Peter Selinger 2001-2019
</metadata>
<g transform="translate(0.000000,68.000000) scale(0.100000,-0.100000)"
fill="#000000" stroke="none">
<path d="M572 537 c-7 -24 -26 -63 -43 -88 -36 -55 -37 -70 -1 -38 21 20 49
29 127 43 98 17 113 21 103 31 -10 11 -64 8 -110 -5 -26 -8 -50 -11 -54 -7 -4
4 5 24 20 46 30 43 28 61 -7 61 -18 0 -25 -9 -35 -43z"/>
<path d="M171 528 c1 -20 67 -71 84 -64 26 9 17 44 -15 61 -35 18 -70 20 -69
3z"/>
<path d="M340 514 c0 -9 9 -31 20 -49 l20 -32 -31 -7 c-17 -3 -42 -6 -55 -6
-13 0 -24 -4 -24 -10 0 -5 19 -10 41 -10 l41 0 -7 -37 c-9 -52 -48 -124 -88
-167 -19 -20 -31 -38 -27 -41 14 -9 96 73 121 119 20 38 29 46 51 46 23 0 28
-4 28 -25 0 -35 -36 -134 -57 -157 -11 -12 -26 -18 -40 -15 -26 5 -27 3 -13
-24 24 -44 86 -2 116 79 9 26 26 67 36 92 18 42 18 45 2 57 -10 7 -33 13 -52
13 -29 0 -33 3 -27 20 4 12 2 27 -5 34 -9 11 -1 15 40 21 35 5 50 11 50 22 0
12 -8 14 -35 10 -30 -5 -35 -3 -35 14 0 21 -42 69 -60 69 -5 0 -10 -7 -10 -16z"/>
<path d="M630 394 c-25 -7 -60 -13 -77 -13 -18 -1 -33 -5 -33 -10 0 -16 33
-18 89 -3 29 7 56 11 59 7 9 -8 -32 -58 -58 -72 l-22 -11 21 -12 c32 -17 18
-27 -49 -35 -87 -10 -78 -29 10 -22 l70 6 0 -52 c0 -68 -9 -80 -54 -75 -20 2
-36 1 -36 -3 0 -11 73 -70 84 -66 5 2 19 16 30 31 17 22 21 42 21 100 l0 73
75 9 c68 8 73 10 52 22 -18 10 -34 11 -83 1 -53 -11 -62 -10 -77 5 -16 16 -15
18 8 36 14 10 42 27 63 36 43 20 47 36 12 52 -31 14 -45 14 -105 -4z"/>
<path d="M100 394 c0 -20 52 -64 75 -64 28 0 35 30 11 49 -18 15 -86 27 -86
15z"/>
<path d="M206 266 c-15 -24 -43 -58 -62 -77 -37 -36 -40 -45 -22 -84 13 -29
36 -33 45 -8 3 10 20 52 38 93 40 92 49 120 38 120 -5 0 -21 -20 -37 -44z"/>
</g>
</svg>
