<?xml version="1.0" standalone="no"?>
<!DOCTYPE svg PUBLIC "-//W3C//DTD SVG 20010904//EN"
 "http://www.w3.org/TR/2001/REC-SVG-20010904/DTD/svg10.dtd">
<svg version="1.0" xmlns="http://www.w3.org/2000/svg"
 width="96.000000pt" height="68.000000pt" viewBox="0 0 96.000000 68.000000"
 preserveAspectRatio="xMidYMid meet">
<metadata>
Created by potrace 1.16, written by Peter Selinger 2001-2019
</metadata>
<g transform="translate(0.000000,68.000000) scale(0.100000,-0.100000)"
fill="#000000" stroke="none">
<path d="M519 328 c0 -7 -2 -25 -4 -40 -3 -21 1 -28 13 -27 20 1 60 17 50 20
-22 5 -29 7 -39 8 -8 1 -8 6 1 16 9 11 9 15 1 15 -7 0 -9 5 -6 10 3 6 1 10 -4
10 -6 0 -11 -6 -12 -12z"/>
<path d="M632 290 c-18 -4 -35 -10 -37 -12 -4 -4 56 -3 100 1 l20 2 -20 9
c-24 10 -21 10 -63 0z"/>
<path d="M413 253 c9 -2 25 -2 35 0 9 3 1 5 -18 5 -19 0 -27 -2 -17 -5z"/>
<path d="M522 170 c3 -81 0 -87 -35 -81 -5 1 -7 -4 -4 -11 2 -7 10 -12 16 -10
7 1 10 -2 6 -8 -7 -12 22 -26 33 -16 10 11 12 115 2 141 -6 16 -5 25 2 27 14
5 3 38 -12 38 -8 0 -10 -26 -8 -80z"/>
<path d="M652 167 c20 -19 34 -38 30 -43 -4 -4 1 -4 10 -1 10 3 17 3 15 -1 -1
-4 3 -8 8 -9 6 -2 9 4 9 12 -3 39 -4 40 -14 25 -8 -13 -10 -13 -10 2 0 14 -24
29 -50 33 -3 0 -12 4 -20 9 -8 4 2 -7 22 -27z"/>
<path d="M403 175 c4 -8 1 -17 -5 -21 -7 -5 -8 -2 -3 7 5 8 -4 1 -19 -15 -27
-28 -31 -49 -5 -24 8 7 26 21 42 31 32 21 35 37 6 37 -14 0 -19 -5 -16 -15z"/>
</g>
</svg>
