<?xml version="1.0" standalone="no"?>
<!DOCTYPE svg PUBLIC "-//W3C//DTD SVG 20010904//EN"
 "http://www.w3.org/TR/2001/REC-SVG-20010904/DTD/svg10.dtd">
<svg version="1.0" xmlns="http://www.w3.org/2000/svg"
 width="96.000000pt" height="68.000000pt" viewBox="0 0 96.000000 68.000000"
 preserveAspectRatio="xMidYMid meet">
<metadata>
Created by potrace 1.16, written by Peter Selinger 2001-2019
</metadata>
<g transform="translate(0.000000,68.000000) scale(0.100000,-0.100000)"
fill="#000000" stroke="none">
<path d="M240 531 c15 -29 59 -61 76 -54 27 10 16 43 -21 59 -50 20 -68 19
-55 -5z"/>
<path d="M163 374 c43 -40 72 -42 72 -4 0 26 -23 37 -80 39 l-30 0 38 -35z"/>
<path d="M270 280 c-18 -28 -53 -68 -78 -90 l-45 -41 16 -34 c9 -19 20 -35 25
-35 10 0 127 238 120 245 -3 3 -20 -17 -38 -45z"/>
</g>
</svg>
