<?xml version="1.0" standalone="no"?>
<!DOCTYPE svg PUBLIC "-//W3C//DTD SVG 20010904//EN"
 "http://www.w3.org/TR/2001/REC-SVG-20010904/DTD/svg10.dtd">
<svg version="1.0" xmlns="http://www.w3.org/2000/svg"
 width="96.000000pt" height="68.000000pt" viewBox="0 0 96.000000 68.000000"
 preserveAspectRatio="xMidYMid meet">
<metadata>
Created by potrace 1.16, written by Peter Selinger 2001-2019
</metadata>
<g transform="translate(0.000000,68.000000) scale(0.100000,-0.100000)"
fill="#000000" stroke="none">
<path d="M586 487 c1 -45 2 -88 3 -94 2 -27 60 -44 136 -41 98 4 101 22 5 28
-41 3 -81 9 -87 13 -15 9 -16 65 -4 119 10 41 0 58 -33 58 -20 0 -21 -6 -20
-83z"/>
<path d="M436 500 c9 -44 -13 -120 -47 -162 -33 -42 -32 -45 11 -23 38 19 65
67 80 139 13 62 7 75 -32 76 -14 0 -16 -6 -12 -30z"/>
</g>
</svg>
