<?xml version="1.0" standalone="no"?>
<!DOCTYPE svg PUBLIC "-//W3C//DTD SVG 20010904//EN"
 "http://www.w3.org/TR/2001/REC-SVG-20010904/DTD/svg10.dtd">
<svg version="1.0" xmlns="http://www.w3.org/2000/svg"
 width="96.000000pt" height="68.000000pt" viewBox="0 0 96.000000 68.000000"
 preserveAspectRatio="xMidYMid meet">
<metadata>
Created by potrace 1.16, written by Peter Selinger 2001-2019
</metadata>
<g transform="translate(0.000000,68.000000) scale(0.100000,-0.100000)"
fill="#000000" stroke="none">
<path d="M325 295 c-5 -2 -40 -6 -78 -10 -76 -7 -81 -25 -7 -25 48 0 49 -1 56
-36 3 -19 3 -39 -2 -43 -14 -13 -127 -31 -152 -25 -16 5 -22 2 -22 -9 0 -22
37 -40 69 -34 48 8 266 79 276 89 10 10 -34 7 -97 -8 -27 -6 -28 -5 -28 34 0
40 0 40 45 47 25 3 43 10 40 16 -6 8 -78 12 -100 4z"/>
</g>
</svg>
