<?xml version="1.0" standalone="no"?>
<!DOCTYPE svg PUBLIC "-//W3C//DTD SVG 20010904//EN"
 "http://www.w3.org/TR/2001/REC-SVG-20010904/DTD/svg10.dtd">
<svg version="1.0" xmlns="http://www.w3.org/2000/svg"
 width="96.000000pt" height="68.000000pt" viewBox="0 0 96.000000 68.000000"
 preserveAspectRatio="xMidYMid meet">
<metadata>
Created by potrace 1.16, written by Peter Selinger 2001-2019
</metadata>
<g transform="translate(0.000000,68.000000) scale(0.100000,-0.100000)"
fill="#000000" stroke="none">
<path d="M570 555 c-30 -8 -85 -14 -123 -15 l-67 0 16 -26 c10 -14 23 -49 29
-77 10 -42 16 -52 31 -50 10 2 59 4 108 5 l89 3 34 73 c20 40 34 75 32 76 -8
6 -73 26 -83 25 -6 0 -36 -7 -66 -14z m70 -40 c0 -22 -5 -25 -32 -25 -18 0
-63 -3 -100 -7 -64 -5 -68 -5 -68 14 0 18 10 21 83 30 45 6 90 11 100 12 12 1
17 -6 17 -24z m-10 -47 c0 -28 -19 -38 -88 -50 -63 -11 -74 -10 -82 2 -20 31
-10 38 73 48 45 5 85 10 90 11 4 0 7 -5 7 -11z"/>
</g>
</svg>
