<?xml version="1.0" standalone="no"?>
<!DOCTYPE svg PUBLIC "-//W3C//DTD SVG 20010904//EN"
 "http://www.w3.org/TR/2001/REC-SVG-20010904/DTD/svg10.dtd">
<svg version="1.0" xmlns="http://www.w3.org/2000/svg"
 width="96.000000pt" height="68.000000pt" viewBox="0 0 96.000000 68.000000"
 preserveAspectRatio="xMidYMid meet">
<metadata>
Created by potrace 1.16, written by Peter Selinger 2001-2019
</metadata>
<g transform="translate(0.000000,68.000000) scale(0.100000,-0.100000)"
fill="#000000" stroke="none">
<path d="M520 535 c0 -24 -5 -67 -11 -95 -10 -46 -13 -50 -39 -50 -40 0 -48
-19 -11 -26 17 -4 31 -10 31 -15 0 -13 -52 -153 -62 -165 -4 -6 -25 -14 -46
-17 -20 -3 -45 -8 -55 -12 -16 -7 -18 -2 -15 46 l3 54 43 9 c51 12 50 30 -1
34 -49 4 -53 37 -5 50 17 4 33 13 36 20 4 14 -41 15 -105 3 l-43 -8 21 36 c11
20 29 47 40 60 l20 24 27 -26 c34 -32 48 -34 57 -6 7 22 -13 44 -52 55 -13 3
-23 14 -23 24 0 11 -12 22 -30 28 -28 10 -30 9 -36 -16 -18 -82 -47 -131 -130
-221 -31 -34 -54 -64 -51 -67 8 -8 45 13 94 53 49 40 77 40 81 1 3 -24 -1 -28
-35 -33 -56 -10 -65 -14 -57 -26 4 -7 23 -9 49 -6 41 4 43 3 49 -26 13 -63 8
-75 -31 -86 -21 -6 -59 -11 -85 -11 -58 0 -65 -22 -15 -46 31 -15 36 -14 140
25 59 23 112 41 117 41 11 0 1 -30 -17 -48 -19 -20 -16 -34 5 -21 23 15 74 85
97 132 9 20 21 40 26 43 5 3 28 -13 51 -35 l43 -39 -20 -22 c-11 -12 -40 -34
-65 -48 -32 -19 -40 -28 -27 -30 15 -3 65 22 118 60 13 9 26 1 69 -41 52 -49
56 -51 112 -51 31 0 59 4 62 8 3 5 -33 25 -78 46 -46 21 -94 48 -106 61 l-23
24 28 62 c26 60 27 63 9 76 -10 7 -26 13 -36 13 -15 0 -18 -9 -18 -58 0 -32
-3 -62 -6 -65 -4 -4 -22 6 -40 22 -18 16 -40 33 -48 38 -14 7 -14 14 0 59 l15
51 63 11 c35 7 80 12 100 12 20 0 36 4 36 10 0 19 -49 22 -120 7 -72 -15 -72
-15 -66 7 3 11 11 47 18 79 13 62 7 76 -34 77 -15 0 -18 -9 -18 -45z"/>
<path d="M639 506 c30 -32 61 -43 72 -25 10 16 -14 34 -61 44 l-35 7 24 -26z"/>
<path d="M348 210 c-19 -46 -13 -48 37 -19 34 20 35 22 19 40 -25 28 -37 23
-56 -21z"/>
<path d="M160 215 c0 -19 36 -65 51 -65 24 0 31 26 11 43 -19 17 -62 32 -62
22z"/>
</g>
</svg>
