<?xml version="1.0" standalone="no"?>
<!DOCTYPE svg PUBLIC "-//W3C//DTD SVG 20010904//EN"
 "http://www.w3.org/TR/2001/REC-SVG-20010904/DTD/svg10.dtd">
<svg version="1.0" xmlns="http://www.w3.org/2000/svg"
 width="96.000000pt" height="68.000000pt" viewBox="0 0 96.000000 68.000000"
 preserveAspectRatio="xMidYMid meet">
<metadata>
Created by potrace 1.16, written by Peter Selinger 2001-2019
</metadata>
<g transform="translate(0.000000,68.000000) scale(0.100000,-0.100000)"
fill="#000000" stroke="none">
<path d="M220 540 c24 -46 90 -64 90 -25 0 16 -55 45 -85 45 -13 0 -14 -4 -5
-20z"/>
<path d="M141 403 c39 -51 89 -70 89 -33 0 22 -46 50 -81 50 -19 0 -20 -2 -8
-17z"/>
<path d="M243 288 c-15 -24 -46 -63 -69 -88 -42 -44 -42 -46 -29 -77 8 -18 20
-33 27 -33 7 0 26 33 42 73 60 152 66 167 61 167 -3 0 -17 -19 -32 -42z"/>
</g>
</svg>
