<?xml version="1.0" standalone="no"?>
<!DOCTYPE svg PUBLIC "-//W3C//DTD SVG 20010904//EN"
 "http://www.w3.org/TR/2001/REC-SVG-20010904/DTD/svg10.dtd">
<svg version="1.0" xmlns="http://www.w3.org/2000/svg"
 width="96.000000pt" height="68.000000pt" viewBox="0 0 96.000000 68.000000"
 preserveAspectRatio="xMidYMid meet">
<metadata>
Created by potrace 1.16, written by Peter Selinger 2001-2019
</metadata>
<g transform="translate(0.000000,68.000000) scale(0.100000,-0.100000)"
fill="#000000" stroke="none">
<path d="M460 444 c-44 -9 -101 -13 -138 -10 l-63 5 20 -24 c10 -14 24 -48 31
-75 12 -49 13 -50 44 -45 17 3 73 7 125 9 l94 3 34 63 c20 39 30 67 24 73 -16
16 -93 16 -171 1z m105 -30 c0 -12 -6 -18 -19 -17 -17 1 -115 -10 -182 -22
-26 -4 -33 -2 -37 14 -4 17 1 21 37 25 22 3 73 9 111 14 85 11 90 10 90 -14z
m-15 -64 c0 -16 -7 -20 -37 -20 -21 0 -68 -3 -105 -7 -64 -6 -68 -5 -68 15 0
18 7 21 58 25 147 9 152 8 152 -13z"/>
</g>
</svg>
