<?xml version="1.0" standalone="no"?>
<!DOCTYPE svg PUBLIC "-//W3C//DTD SVG 20010904//EN"
 "http://www.w3.org/TR/2001/REC-SVG-20010904/DTD/svg10.dtd">
<svg version="1.0" xmlns="http://www.w3.org/2000/svg"
 width="96.000000pt" height="68.000000pt" viewBox="0 0 96.000000 68.000000"
 preserveAspectRatio="xMidYMid meet">
<metadata>
Created by potrace 1.16, written by Peter Selinger 2001-2019
</metadata>
<g transform="translate(0.000000,68.000000) scale(0.100000,-0.100000)"
fill="#000000" stroke="none">
<path d="M420 171 c4 -16 6 -32 2 -35 -3 -3 -27 -6 -54 -6 -26 0 -48 -4 -48
-10 0 -5 25 -10 55 -10 54 0 55 -1 55 -29 0 -27 -2 -28 -61 -35 -34 -3 -82 -6
-105 -6 -45 0 -59 -14 -24 -23 11 -3 79 -1 152 4 73 4 174 8 223 9 84 1 89 2
70 16 -16 13 -38 15 -117 10 l-98 -5 0 29 c0 28 3 30 50 36 28 4 50 10 50 14
0 14 -32 21 -67 14 -30 -6 -34 -4 -33 12 4 37 0 44 -29 44 -28 0 -29 -2 -21
-29z"/>
</g>
</svg>
