<?xml version="1.0" standalone="no"?>
<!DOCTYPE svg PUBLIC "-//W3C//DTD SVG 20010904//EN"
 "http://www.w3.org/TR/2001/REC-SVG-20010904/DTD/svg10.dtd">
<svg version="1.0" xmlns="http://www.w3.org/2000/svg"
 width="96.000000pt" height="68.000000pt" viewBox="0 0 96.000000 68.000000"
 preserveAspectRatio="xMidYMid meet">
<metadata>
Created by potrace 1.16, written by Peter Selinger 2001-2019
</metadata>
<g transform="translate(0.000000,68.000000) scale(0.100000,-0.100000)"
fill="#000000" stroke="none">
<path d="M580 565 c-25 -14 -61 -33 -80 -42 -19 -9 -30 -18 -23 -20 11 -4 191
42 201 51 8 9 -19 36 -37 36 -9 0 -36 -11 -61 -25z"/>
<path d="M275 513 c-28 -8 -71 -12 -97 -9 -27 3 -48 3 -48 0 0 -3 9 -17 20
-31 11 -14 20 -33 20 -42 0 -36 22 -91 35 -91 8 0 15 5 15 10 0 17 38 11 43
-7 3 -10 5 -55 7 -100 1 -82 1 -83 -26 -93 -15 -6 -31 -7 -35 -3 -4 4 -9 37
-11 73 -3 54 -6 65 -22 68 -18 4 -18 -1 -12 -77 l7 -81 -35 0 c-45 0 -46 -13
-3 -33 31 -15 36 -15 78 6 25 12 58 27 75 34 94 39 128 57 112 60 -9 2 -32 -2
-51 -11 l-35 -14 -4 39 c-4 47 -1 53 32 57 37 3 52 11 45 21 -3 5 -21 7 -40 4
l-34 -5 2 40 c1 35 5 41 25 44 20 2 25 9 27 35 2 18 10 44 19 58 22 33 20 40
-9 53 -30 14 -35 14 -100 -5z m45 -61 c0 -32 -5 -41 -25 -50 -38 -17 -73 -15
-78 6 -20 71 -20 71 25 75 24 2 51 4 61 5 13 2 17 -6 17 -36z"/>
<path d="M687 479 c-42 -43 -33 -49 28 -19 22 11 46 19 53 20 17 0 15 10 -5
26 -25 19 -33 16 -76 -27z"/>
<path d="M540 492 c0 -13 30 -52 41 -52 17 0 9 39 -10 50 -23 12 -31 13 -31 2z"/>
<path d="M426 458 c15 -27 38 -48 51 -48 20 0 16 38 -6 50 -28 14 -54 13 -45
-2z"/>
<path d="M510 389 c-27 -28 -50 -55 -50 -60 0 -16 18 -19 49 -8 57 20 53 4 -8
-31 -34 -19 -60 -39 -58 -44 3 -7 27 -10 61 -8 54 3 56 2 56 -21 0 -29 -9 -34
-89 -43 -78 -9 -69 -28 10 -22 33 2 59 1 59 -2 0 -23 -71 -79 -136 -106 l-59
-25 50 6 c82 11 136 44 184 112 l22 33 114 0 c66 0 116 4 120 10 15 24 -65 31
-169 17 l-59 -9 7 25 c4 16 1 27 -7 30 -22 8 -1 17 52 24 35 4 51 2 51 -6 0
-13 26 -15 34 -2 15 23 -29 61 -71 61 -12 0 -13 -3 -4 -14 9 -11 5 -15 -21
-19 -64 -12 -143 -20 -138 -14 3 3 47 26 98 52 50 25 92 48 92 50 0 39 -41 46
-64 10 -10 -15 -29 -26 -53 -30 -21 -4 -46 -9 -55 -12 -29 -7 -20 10 17 35 34
22 45 45 25 57 -5 3 -32 -17 -60 -46z"/>
<path d="M644 108 c10 -7 30 -23 45 -34 14 -12 45 -31 68 -43 41 -21 42 -21
48 -1 3 11 3 25 -1 31 -10 17 -84 46 -134 53 -38 5 -42 4 -26 -6z"/>
</g>
</svg>
