<?xml version="1.0" standalone="no"?>
<!DOCTYPE svg PUBLIC "-//W3C//DTD SVG 20010904//EN"
 "http://www.w3.org/TR/2001/REC-SVG-20010904/DTD/svg10.dtd">
<svg version="1.0" xmlns="http://www.w3.org/2000/svg"
 width="96.000000pt" height="68.000000pt" viewBox="0 0 96.000000 68.000000"
 preserveAspectRatio="xMidYMid meet">
<metadata>
Created by potrace 1.16, written by Peter Selinger 2001-2019
</metadata>
<g transform="translate(0.000000,68.000000) scale(0.100000,-0.100000)"
fill="#000000" stroke="none">
<path d="M285 290 c-11 -5 -32 -9 -46 -9 -43 -1 -50 -19 -35 -84 15 -66 22
-75 38 -59 7 7 28 12 48 13 50 1 65 10 67 42 1 15 9 42 18 59 12 25 13 33 3
40 -17 10 -67 9 -93 -2z m35 -53 c0 -50 -13 -67 -51 -67 -23 0 -27 5 -33 41
-4 23 -4 44 -2 46 4 5 57 19 79 22 4 1 7 -18 7 -42z"/>
</g>
</svg>
