<?xml version="1.0" standalone="no"?>
<!DOCTYPE svg PUBLIC "-//W3C//DTD SVG 20010904//EN"
 "http://www.w3.org/TR/2001/REC-SVG-20010904/DTD/svg10.dtd">
<svg version="1.0" xmlns="http://www.w3.org/2000/svg"
 width="96.000000pt" height="68.000000pt" viewBox="0 0 96.000000 68.000000"
 preserveAspectRatio="xMidYMid meet">
<metadata>
Created by potrace 1.16, written by Peter Selinger 2001-2019
</metadata>
<g transform="translate(0.000000,68.000000) scale(0.100000,-0.100000)"
fill="#000000" stroke="none">
<path d="M575 551 c8 -17 20 -33 27 -37 18 -11 -19 -22 -74 -23 -50 -1 -65
-15 -24 -23 24 -5 246 19 254 27 2 2 1 9 -3 15 -5 9 -26 10 -66 6 -54 -6 -59
-5 -59 13 0 20 -34 51 -57 51 -11 0 -10 -6 2 -29z"/>
</g>
</svg>
