<?xml version="1.0" standalone="no"?>
<!DOCTYPE svg PUBLIC "-//W3C//DTD SVG 20010904//EN"
 "http://www.w3.org/TR/2001/REC-SVG-20010904/DTD/svg10.dtd">
<svg version="1.0" xmlns="http://www.w3.org/2000/svg"
 width="96.000000pt" height="68.000000pt" viewBox="0 0 96.000000 68.000000"
 preserveAspectRatio="xMidYMid meet">
<metadata>
Created by potrace 1.16, written by Peter Selinger 2001-2019
</metadata>
<g transform="translate(0.000000,68.000000) scale(0.100000,-0.100000)"
fill="#000000" stroke="none">
<path d="M335 523 c-33 -7 -78 -12 -101 -10 l-41 4 5 -49 c7 -73 -15 -164 -62
-255 -42 -80 -38 -94 11 -41 25 27 83 145 83 170 0 36 12 48 49 48 63 0 141
12 135 21 -3 5 4 30 16 56 29 66 6 80 -95 56z m47 -54 c-2 -19 -7 -37 -11 -41
-4 -5 -34 -11 -67 -14 l-61 -7 6 44 6 44 55 6 c74 8 75 7 72 -32z"/>
</g>
</svg>
