<?xml version="1.0" standalone="no"?>
<!DOCTYPE svg PUBLIC "-//W3C//DTD SVG 20010904//EN"
 "http://www.w3.org/TR/2001/REC-SVG-20010904/DTD/svg10.dtd">
<svg version="1.0" xmlns="http://www.w3.org/2000/svg"
 width="96.000000pt" height="68.000000pt" viewBox="0 0 96.000000 68.000000"
 preserveAspectRatio="xMidYMid meet">
<metadata>
Created by potrace 1.16, written by Peter Selinger 2001-2019
</metadata>
<g transform="translate(0.000000,68.000000) scale(0.100000,-0.100000)"
fill="#000000" stroke="none">
<path d="M680 239 c-19 -4 -76 -11 -127 -15 -90 -7 -91 -7 -78 -28 7 -12 18
-45 25 -74 12 -51 30 -77 38 -54 2 7 23 12 46 12 24 0 70 3 103 6 l60 7 12 48
c7 27 17 51 22 55 17 10 9 31 -16 42 -29 13 -36 13 -85 1z m34 -27 c8 -13 -11
-84 -25 -92 -15 -10 -139 -24 -146 -17 -7 8 -24 89 -20 94 5 4 116 20 159 22
15 0 29 -3 32 -7z"/>
</g>
</svg>
