<?xml version="1.0" standalone="no"?>
<!DOCTYPE svg PUBLIC "-//W3C//DTD SVG 20010904//EN"
 "http://www.w3.org/TR/2001/REC-SVG-20010904/DTD/svg10.dtd">
<svg version="1.0" xmlns="http://www.w3.org/2000/svg"
 width="96.000000pt" height="68.000000pt" viewBox="0 0 96.000000 68.000000"
 preserveAspectRatio="xMidYMid meet">
<metadata>
Created by potrace 1.16, written by Peter Selinger 2001-2019
</metadata>
<g transform="translate(0.000000,68.000000) scale(0.100000,-0.100000)"
fill="#000000" stroke="none">
<path d="M500 230 c-10 -6 -6 -9 11 -12 32 -4 37 -39 10 -77 -11 -15 -18 -31
-15 -34 12 -11 -61 -24 -80 -14 -17 8 -16 5 4 -24 13 -19 25 -36 26 -38 4 -4
53 27 70 44 8 8 9 17 2 30 -6 10 -6 15 -1 12 14 -9 26 4 46 47 16 35 17 41 3
54 -17 18 -57 24 -76 12z m70 -25 c14 -19 14 -19 -2 -6 -10 7 -18 18 -18 24 0
6 1 8 3 6 1 -2 9 -13 17 -24z m-102 -160 c-3 -3 -9 2 -12 12 -6 14 -5 15 5 6
7 -7 10 -15 7 -18z"/>
</g>
</svg>
