<?xml version="1.0" standalone="no"?>
<!DOCTYPE svg PUBLIC "-//W3C//DTD SVG 20010904//EN"
 "http://www.w3.org/TR/2001/REC-SVG-20010904/DTD/svg10.dtd">
<svg version="1.0" xmlns="http://www.w3.org/2000/svg"
 width="90.000000pt" height="92.000000pt" viewBox="0 0 90.000000 92.000000"
 preserveAspectRatio="xMidYMid meet">
<metadata>
Created by potrace 1.16, written by Peter Selinger 2001-2019
</metadata>
<g transform="translate(0.000000,92.000000) scale(0.100000,-0.100000)"
fill="#000000" stroke="none">
<path d="M650 786 c0 -62 -88 -306 -110 -306 -3 0 -11 5 -17 11 -9 9 -29 8
-78 -1 -72 -14 -87 -9 -62 18 15 17 15 19 0 34 -15 15 -13 17 22 24 25 4 45 2
58 -5 12 -8 23 -9 29 -3 14 14 59 202 52 214 -4 6 -20 16 -36 23 -26 10 -40 9
-91 -7 -38 -11 -72 -16 -93 -12 -39 7 -39 7 -19 -32 8 -16 20 -72 26 -125 12
-101 8 -119 -49 -199 -18 -26 -5 -22 32 9 10 9 28 17 40 17 11 1 47 5 79 9
l57 8 0 -74 c0 -88 -16 -193 -33 -220 -9 -15 -19 -18 -46 -13 l-34 7 34 -46
c19 -26 40 -46 46 -47 7 0 23 16 35 35 13 19 28 35 35 35 26 0 88 68 113 123
l26 58 55 -108 54 -108 40 -3 c22 -2 48 3 58 10 16 12 13 17 -43 56 -39 28
-78 68 -110 115 -46 65 -50 75 -45 110 7 41 -6 67 -34 67 -13 0 -16 -12 -17
-68 -1 -41 -10 -88 -23 -122 -21 -55 -65 -119 -75 -110 -7 7 12 202 26 265 12
57 50 108 81 111 12 1 36 7 54 15 18 7 35 10 39 6 4 -4 3 -27 -3 -52 -7 -32
-7 -43 1 -38 11 7 97 72 105 79 8 7 -30 42 -58 54 -22 9 -36 7 -76 -10 -26
-11 -49 -19 -51 -17 -3 2 11 37 30 78 48 103 52 125 31 149 -10 11 -26 20 -37
20 -14 0 -18 -8 -18 -34z m-180 -53 c0 -34 -3 -38 -27 -40 -16 0 -40 -4 -55
-8 -27 -7 -28 -6 -28 28 0 34 2 36 43 45 67 15 67 15 67 -25z m-4 -108 c-4
-14 -13 -23 -24 -23 -9 1 -29 -2 -44 -5 -26 -7 -28 -5 -28 21 0 25 5 30 48 43
52 15 59 10 48 -36z"/>
<path d="M104 743 c4 -16 9 -61 13 -100 l6 -73 -29 -2 c-16 -1 -41 -1 -56 0
-27 2 -38 -11 -19 -22 5 -4 12 -30 16 -59 11 -78 14 -90 24 -100 7 -7 13 -5
17 6 3 9 15 17 25 17 16 0 19 -8 19 -55 0 -50 -2 -56 -26 -65 -14 -6 -41 -10
-60 -10 -39 0 -45 -17 -14 -45 18 -17 22 -16 105 26 l86 44 17 -23 c21 -28 32
-20 32 24 0 24 -8 39 -31 59 -36 30 -43 28 -30 -8 8 -20 7 -27 -5 -31 -32 -12
-36 -7 -29 42 8 54 16 62 68 62 33 0 37 3 32 19 -3 10 4 40 15 67 l21 49 -22
18 c-18 15 -33 17 -68 12 l-44 -7 7 54 c3 29 9 63 12 75 5 17 -1 25 -25 37
-47 25 -65 21 -57 -11z m121 -225 c-8 -53 -11 -58 -36 -58 -16 0 -19 7 -19 50
0 49 1 50 30 50 31 0 31 0 25 -42z m-105 -24 c0 -52 -1 -55 -22 -52 -20 3 -23
10 -26 50 -3 46 0 51 41 57 4 0 7 -24 7 -55z"/>
<path d="M370 413 c0 -32 -32 -107 -49 -118 -8 -5 -11 2 -9 20 2 17 -3 31 -14
38 -9 6 -19 9 -20 7 -2 -3 -2 -33 0 -68 5 -76 17 -86 101 -76 65 7 87 16 77
33 -5 7 -30 9 -77 5 -59 -6 -69 -5 -69 9 0 9 9 18 20 22 11 3 29 18 40 32 l20
26 29 -27 c16 -16 34 -25 40 -22 21 13 11 36 -23 53 -31 14 -33 18 -24 39 8
17 8 27 -2 39 -20 24 -40 18 -40 -12z"/>
</g>
</svg>
