<?xml version="1.0" standalone="no"?>
<!DOCTYPE svg PUBLIC "-//W3C//DTD SVG 20010904//EN"
 "http://www.w3.org/TR/2001/REC-SVG-20010904/DTD/svg10.dtd">
<svg version="1.0" xmlns="http://www.w3.org/2000/svg"
 width="96.000000pt" height="68.000000pt" viewBox="0 0 96.000000 68.000000"
 preserveAspectRatio="xMidYMid meet">
<metadata>
Created by potrace 1.16, written by Peter Selinger 2001-2019
</metadata>
<g transform="translate(0.000000,68.000000) scale(0.100000,-0.100000)"
fill="#000000" stroke="none">
<path d="M407 520 c5 -39 5 -40 -23 -40 -16 0 -36 -5 -44 -10 -11 -7 -5 -10
23 -10 47 0 49 -21 6 -73 -17 -20 -27 -37 -23 -37 18 0 78 56 90 85 11 27 21
34 54 40 52 9 52 25 -1 25 -38 0 -41 2 -35 24 4 17 1 26 -10 30 -35 14 -42 7
-37 -34z"/>
<path d="M465 400 c30 -32 65 -40 65 -15 0 16 -49 45 -76 45 -14 0 -12 -6 11
-30z"/>
</g>
</svg>
