<?xml version="1.0" standalone="no"?>
<!DOCTYPE svg PUBLIC "-//W3C//DTD SVG 20010904//EN"
 "http://www.w3.org/TR/2001/REC-SVG-20010904/DTD/svg10.dtd">
<svg version="1.0" xmlns="http://www.w3.org/2000/svg"
 width="96.000000pt" height="68.000000pt" viewBox="0 0 96.000000 68.000000"
 preserveAspectRatio="xMidYMid meet">
<metadata>
Created by potrace 1.16, written by Peter Selinger 2001-2019
</metadata>
<g transform="translate(0.000000,68.000000) scale(0.100000,-0.100000)"
fill="#000000" stroke="none">
<path d="M380 609 c0 -24 34 -59 56 -59 28 0 31 21 7 42 -22 19 -63 30 -63 17z"/>
<path d="M555 549 c-27 -5 -108 -13 -180 -18 -108 -8 -133 -7 -146 5 -14 13
-19 10 -43 -26 -28 -43 -33 -65 -14 -76 7 -4 24 7 42 29 27 32 37 37 74 37 24
0 62 4 85 9 61 14 267 34 274 27 4 -3 -2 -16 -13 -27 l-19 -22 40 6 c22 4 48
7 58 7 24 0 21 18 -5 41 -25 20 -69 22 -153 8z"/>
</g>
</svg>
