<?xml version="1.0" standalone="no"?>
<!DOCTYPE svg PUBLIC "-//W3C//DTD SVG 20010904//EN"
 "http://www.w3.org/TR/2001/REC-SVG-20010904/DTD/svg10.dtd">
<svg version="1.0" xmlns="http://www.w3.org/2000/svg"
 width="96.000000pt" height="68.000000pt" viewBox="0 0 96.000000 68.000000"
 preserveAspectRatio="xMidYMid meet">
<metadata>
Created by potrace 1.16, written by Peter Selinger 2001-2019
</metadata>
<g transform="translate(0.000000,68.000000) scale(0.100000,-0.100000)"
fill="#000000" stroke="none">
<path d="M492 521 c-22 -14 -10 -64 18 -78 32 -17 142 -13 148 5 3 9 -13 12
-55 12 -68 0 -86 9 -81 40 3 25 -10 34 -30 21z"/>
<path d="M328 477 c-14 -19 -41 -41 -60 -50 -21 -10 -26 -17 -15 -17 39 0 143
72 131 92 -10 16 -29 8 -56 -25z"/>
</g>
</svg>
