<?xml version="1.0" standalone="no"?>
<!DOCTYPE svg PUBLIC "-//W3C//DTD SVG 20010904//EN"
 "http://www.w3.org/TR/2001/REC-SVG-20010904/DTD/svg10.dtd">
<svg version="1.0" xmlns="http://www.w3.org/2000/svg"
 width="96.000000pt" height="68.000000pt" viewBox="0 0 96.000000 68.000000"
 preserveAspectRatio="xMidYMid meet">
<metadata>
Created by potrace 1.16, written by Peter Selinger 2001-2019
</metadata>
<g transform="translate(0.000000,68.000000) scale(0.100000,-0.100000)"
fill="#000000" stroke="none">
<path d="M508 460 c4 -86 2 -100 -12 -106 -20 -8 -21 -34 -1 -34 9 0 15 -6 14
-12 -4 -37 2 -108 10 -108 6 0 13 21 16 48 11 85 16 100 33 105 9 3 35 12 56
22 l39 16 -6 -36 c-3 -19 -13 -50 -21 -67 -35 -69 19 -33 62 42 14 25 32 53
40 62 13 16 12 19 -12 28 -41 15 -67 12 -115 -15 -23 -14 -48 -25 -53 -25 -7
0 -9 28 -4 84 5 71 4 85 -10 90 -39 15 -41 10 -36 -94z"/>
</g>
</svg>
