<?xml version="1.0" standalone="no"?>
<!DOCTYPE svg PUBLIC "-//W3C//DTD SVG 20010904//EN"
 "http://www.w3.org/TR/2001/REC-SVG-20010904/DTD/svg10.dtd">
<svg version="1.0" xmlns="http://www.w3.org/2000/svg"
 width="96.000000pt" height="68.000000pt" viewBox="0 0 96.000000 68.000000"
 preserveAspectRatio="xMidYMid meet">
<metadata>
Created by potrace 1.16, written by Peter Selinger 2001-2019
</metadata>
<g transform="translate(0.000000,68.000000) scale(0.100000,-0.100000)"
fill="#000000" stroke="none">
<path d="M527 593 c-4 -3 -7 -16 -7 -27 0 -28 -42 -117 -76 -161 -35 -46 -24
-44 30 5 l44 41 79 -3 78 -3 -3 -65 c-4 -75 -28 -169 -46 -176 -7 -3 -25 0
-40 6 l-27 10 28 -38 c15 -20 28 -39 30 -41 5 -7 52 29 62 48 6 10 21 65 35
122 13 57 27 113 31 125 10 33 -37 47 -129 39 -42 -4 -76 -4 -76 0 0 5 11 27
25 51 l25 43 -22 15 c-25 18 -32 19 -41 9z"/>
</g>
</svg>
