<?xml version="1.0" standalone="no"?>
<!DOCTYPE svg PUBLIC "-//W3C//DTD SVG 20010904//EN"
 "http://www.w3.org/TR/2001/REC-SVG-20010904/DTD/svg10.dtd">
<svg version="1.0" xmlns="http://www.w3.org/2000/svg"
 width="90.000000pt" height="92.000000pt" viewBox="0 0 90.000000 92.000000"
 preserveAspectRatio="xMidYMid meet">
<metadata>
Created by potrace 1.16, written by Peter Selinger 2001-2019
</metadata>
<g transform="translate(0.000000,92.000000) scale(0.100000,-0.100000)"
fill="#000000" stroke="none">
<path d="M557 854 c-3 -3 -2 -16 3 -29 5 -12 6 -41 3 -63 -5 -40 -7 -41 -55
-51 -69 -15 -68 -16 -68 34 0 47 -16 65 -59 65 -23 0 -27 -10 -10 -27 6 -6 15
-30 19 -52 l7 -40 -46 -6 c-72 -10 -79 -14 -56 -31 14 -10 32 -13 61 -8 l42 6
7 -54 c9 -64 21 -84 42 -66 18 15 33 -4 33 -44 0 -25 -4 -27 -53 -33 -81 -10
-130 -11 -156 -1 -22 8 -23 6 -16 -15 4 -13 10 -79 13 -146 7 -129 22 -171 41
-119 14 35 15 66 6 157 l-7 76 43 6 c24 3 63 9 87 13 l42 7 0 -127 c0 -105 3
-128 15 -133 9 -3 19 -2 23 2 4 3 8 64 10 135 l4 128 93 7 c51 4 99 4 105 0
17 -10 8 -210 -11 -248 -11 -25 -18 -28 -44 -24 -16 3 -38 8 -48 12 -13 5 -7
-9 20 -48 21 -31 45 -56 54 -57 18 0 62 45 73 75 5 11 12 68 17 126 5 59 13
119 19 134 9 23 7 31 -7 47 -32 36 -48 38 -150 23 -128 -19 -126 -19 -120 7 3
12 2 30 -4 40 -9 16 -5 18 30 18 39 0 40 1 35 28 -3 16 -1 47 5 69 l11 41 80
9 c45 4 81 13 82 18 2 21 -47 36 -101 29 -49 -5 -53 -4 -47 13 19 49 18 70 -5
87 -24 16 -51 21 -62 10z m-7 -206 c0 -18 -4 -39 -9 -46 -7 -12 -81 -35 -88
-28 -2 1 -5 23 -7 49 -5 45 -4 46 27 50 77 9 77 9 77 -25z"/>
<path d="M130 783 c0 -5 22 -31 49 -57 56 -55 81 -56 81 -6 0 26 -6 33 -32 44
-47 19 -98 29 -98 19z"/>
<path d="M40 593 c0 -19 86 -93 109 -93 19 0 22 4 19 32 -2 23 -10 36 -28 45
-35 16 -100 27 -100 16z"/>
<path d="M157 371 c-21 -45 -54 -99 -73 -120 -39 -44 -40 -47 -18 -101 15 -38
44 -55 44 -27 0 8 20 76 45 153 54 167 55 209 2 95z"/>
<path d="M590 375 l23 -25 -31 -50 c-17 -27 -29 -50 -27 -50 3 0 22 16 43 35
l39 35 23 -25 c29 -31 50 -32 50 -2 0 28 -30 57 -87 86 -55 27 -62 27 -33 -4z"/>
<path d="M340 373 c0 -3 7 -14 16 -24 15 -17 15 -21 -5 -55 -28 -47 -19 -56
19 -19 l29 28 19 -23 c20 -25 42 -20 42 9 0 10 -8 25 -17 33 -24 21 -103 60
-103 51z"/>
</g>
</svg>
