<?xml version="1.0" standalone="no"?>
<!DOCTYPE svg PUBLIC "-//W3C//DTD SVG 20010904//EN"
 "http://www.w3.org/TR/2001/REC-SVG-20010904/DTD/svg10.dtd">
<svg version="1.0" xmlns="http://www.w3.org/2000/svg"
 width="96.000000pt" height="68.000000pt" viewBox="0 0 96.000000 68.000000"
 preserveAspectRatio="xMidYMid meet">
<metadata>
Created by potrace 1.16, written by Peter Selinger 2001-2019
</metadata>
<g transform="translate(0.000000,68.000000) scale(0.100000,-0.100000)"
fill="#000000" stroke="none">
<path d="M226 546 c-10 -55 -44 -124 -99 -204 -27 -40 -47 -75 -44 -78 8 -9
60 30 93 69 l27 32 -6 -96 c-3 -53 -12 -116 -18 -141 -11 -40 -10 -49 4 -72
10 -14 22 -26 26 -26 18 0 29 66 35 196 4 103 2 135 -9 151 -12 18 -10 26 25
84 51 83 51 101 -1 114 -24 6 -27 3 -33 -29z"/>
<path d="M476 563 c-3 -3 -6 -23 -6 -43 0 -21 -7 -57 -15 -80 -18 -51 -13 -62
10 -26 12 18 29 27 61 32 55 8 58 24 4 24 l-41 0 16 30 c8 16 15 34 15 39 0
13 -35 32 -44 24z"/>
<path d="M629 553 c-6 -62 -33 -153 -57 -195 -21 -37 -7 -48 19 -15 14 19 30
27 52 27 l32 0 -3 -57 c-5 -72 -14 -84 -45 -55 -13 12 -30 22 -38 22 -9 -1 -5
-8 11 -23 52 -45 53 -50 19 -96 -16 -23 -45 -49 -62 -56 l-32 -14 28 -1 c28 0
67 20 99 52 25 25 29 23 63 -26 17 -25 38 -47 48 -50 22 -5 87 4 87 13 0 3
-24 19 -54 34 -29 15 -65 41 -80 56 l-27 28 15 61 c9 33 16 76 16 96 0 31 3
36 24 36 31 0 56 10 56 21 0 13 -57 10 -115 -5 -27 -7 -51 -10 -53 -5 -2 4 9
33 24 64 21 43 25 60 17 73 -11 18 -42 29 -44 15z"/>
<path d="M343 508 c18 -49 17 -56 -5 -62 -13 -3 -33 -6 -46 -6 -14 0 -21 -4
-16 -11 6 -11 44 -8 75 5 12 5 18 0 23 -18 3 -14 11 -26 16 -26 12 0 12 19 4
84 -6 41 -10 46 -31 46 -16 0 -23 -5 -20 -12z"/>
<path d="M339 343 c-6 -15 -20 -38 -31 -50 -16 -17 -18 -23 -7 -23 8 0 22 9
31 19 18 21 117 39 139 26 8 -6 10 -32 5 -98 -9 -112 -17 -131 -58 -123 l-29
6 21 -31 c12 -16 29 -29 38 -27 25 5 62 67 62 105 0 19 5 66 11 104 10 64 9
72 -8 85 -10 7 -27 12 -39 9 -73 -16 -92 -16 -90 2 2 30 -33 28 -45 -4z"/>
<path d="M331 249 c-52 -10 -59 -15 -43 -31 7 -7 12 -22 12 -34 0 -30 8 -34
55 -27 35 4 43 11 59 45 10 21 15 42 12 46 -11 10 -47 11 -95 1z m49 -38 c0
-23 -5 -30 -26 -35 -31 -8 -29 -9 -38 26 -5 24 -3 27 26 31 18 2 34 5 36 5 1
1 2 -11 2 -27z"/>
</g>
</svg>
