<?xml version="1.0" standalone="no"?>
<!DOCTYPE svg PUBLIC "-//W3C//DTD SVG 20010904//EN"
 "http://www.w3.org/TR/2001/REC-SVG-20010904/DTD/svg10.dtd">
<svg version="1.0" xmlns="http://www.w3.org/2000/svg"
 width="96.000000pt" height="68.000000pt" viewBox="0 0 96.000000 68.000000"
 preserveAspectRatio="xMidYMid meet">
<metadata>
Created by potrace 1.16, written by Peter Selinger 2001-2019
</metadata>
<g transform="translate(0.000000,68.000000) scale(0.100000,-0.100000)"
fill="#000000" stroke="none">
<path d="M553 351 c-65 -19 -69 -33 -8 -24 l45 6 0 -81 c0 -96 11 -126 55
-147 71 -33 227 -9 209 33 -3 9 -12 33 -19 52 l-13 35 -7 -30 c-13 -52 -32
-65 -95 -65 -78 0 -95 18 -87 98 2 32 12 73 21 90 15 30 15 32 -3 42 -24 12
-33 12 -98 -9z"/>
</g>
</svg>
