<?xml version="1.0" standalone="no"?>
<!DOCTYPE svg PUBLIC "-//W3C//DTD SVG 20010904//EN"
 "http://www.w3.org/TR/2001/REC-SVG-20010904/DTD/svg10.dtd">
<svg version="1.0" xmlns="http://www.w3.org/2000/svg"
 width="96.000000pt" height="68.000000pt" viewBox="0 0 96.000000 68.000000"
 preserveAspectRatio="xMidYMid meet">
<metadata>
Created by potrace 1.16, written by Peter Selinger 2001-2019
</metadata>
<g transform="translate(0.000000,68.000000) scale(0.100000,-0.100000)"
fill="#000000" stroke="none">
<path d="M414 622 c-18 -56 -28 -73 -40 -68 -8 3 -11 0 -8 -8 9 -24 -90 -104
-262 -213 -18 -11 -18 -12 2 -12 12 -1 63 20 114 45 66 33 113 66 166 116 66
63 76 69 91 57 26 -21 64 -53 77 -64 107 -97 121 -105 187 -105 116 0 143 20
57 40 -29 7 -78 24 -108 39 -83 40 -210 124 -205 138 4 12 -20 37 -48 46 -12
5 -20 1 -23 -11z"/>
<path d="M432 465 c-29 -7 -54 -10 -57 -7 -3 3 -5 -1 -5 -8 0 -10 17 -12 76
-7 42 3 81 10 86 15 15 15 -44 19 -100 7z"/>
<path d="M495 392 c-38 -7 -94 -11 -122 -9 l-53 4 0 -57 c0 -31 -5 -72 -12
-91 -14 -44 -60 -110 -101 -149 -23 -21 -27 -30 -16 -30 15 0 83 60 117 104 7
9 17 16 22 16 10 0 30 -63 30 -95 0 -33 17 -52 32 -37 7 7 39 12 79 12 97 0
123 7 136 38 7 15 20 40 30 55 18 28 17 29 -2 44 -15 11 -34 13 -75 9 -158
-18 -230 -19 -230 -5 1 34 17 39 126 43 l109 3 32 63 c32 64 34 86 6 76 -8 -3
-12 -2 -9 3 10 16 -28 17 -99 3z m55 -37 c0 -22 -4 -25 -32 -23 -18 1 -59 -2
-91 -6 -55 -8 -59 -7 -55 10 3 15 18 21 78 30 41 6 81 12 88 13 7 0 12 -10 12
-24z m-12 -57 c-3 -21 -10 -24 -88 -30 -47 -3 -88 -3 -92 1 -18 16 13 30 87
39 44 5 84 10 88 11 5 0 7 -9 5 -21z m27 -160 c-4 -24 -8 -44 -9 -45 -1 -1
-37 -3 -81 -5 l-79 -3 -7 32 c-10 49 10 58 129 62 l54 1 -7 -42z"/>
</g>
</svg>
