<?xml version="1.0" standalone="no"?>
<!DOCTYPE svg PUBLIC "-//W3C//DTD SVG 20010904//EN"
 "http://www.w3.org/TR/2001/REC-SVG-20010904/DTD/svg10.dtd">
<svg version="1.0" xmlns="http://www.w3.org/2000/svg"
 width="96.000000pt" height="68.000000pt" viewBox="0 0 96.000000 68.000000"
 preserveAspectRatio="xMidYMid meet">
<metadata>
Created by potrace 1.16, written by Peter Selinger 2001-2019
</metadata>
<g transform="translate(0.000000,68.000000) scale(0.100000,-0.100000)"
fill="#000000" stroke="none">
<path d="M540 369 c-36 -5 -94 -10 -130 -12 l-65 -4 -7 -79 c-7 -82 -3 -114
13 -114 15 0 29 47 29 99 0 75 7 79 153 87 l127 7 0 -54 c0 -86 -8 -102 -42
-95 l-28 6 22 -30 c24 -33 58 -39 78 -15 19 23 33 197 17 207 -15 9 -80 8
-167 -3z"/>
</g>
</svg>
