<?xml version="1.0" standalone="no"?>
<!DOCTYPE svg PUBLIC "-//W3C//DTD SVG 20010904//EN"
 "http://www.w3.org/TR/2001/REC-SVG-20010904/DTD/svg10.dtd">
<svg version="1.0" xmlns="http://www.w3.org/2000/svg"
 width="96.000000pt" height="68.000000pt" viewBox="0 0 96.000000 68.000000"
 preserveAspectRatio="xMidYMid meet">
<metadata>
Created by potrace 1.16, written by Peter Selinger 2001-2019
</metadata>
<g transform="translate(0.000000,68.000000) scale(0.100000,-0.100000)"
fill="#000000" stroke="none">
<path d="M580 236 c0 -9 5 -16 11 -16 5 0 7 5 3 12 -4 7 -3 8 4 4 7 -4 12 -13
12 -21 0 -23 32 -27 54 -6 25 26 19 32 -39 38 -37 5 -45 3 -45 -11z"/>
<path d="M518 226 c-20 -6 -39 -14 -43 -17 -3 -4 12 -22 34 -40 23 -18 41 -35
41 -39 0 -4 -12 -12 -26 -18 -15 -7 -22 -17 -18 -24 5 -8 2 -9 -9 -5 -21 8
-49 -2 -41 -14 3 -5 10 -9 15 -9 6 0 7 4 4 10 -4 6 4 9 17 7 15 -1 22 3 20 12
-2 9 3 11 13 7 9 -3 13 -2 10 4 -4 6 11 8 37 6 23 -3 44 -9 46 -15 2 -6 10
-11 18 -11 9 0 12 -4 9 -10 -4 -6 1 -7 11 -3 12 4 15 3 10 -5 -9 -14 30 -31
58 -26 10 2 36 4 57 6 38 2 44 4 24 9 -5 1 -32 9 -60 19 -27 9 -56 15 -63 12
-8 -2 -22 5 -33 17 -11 12 -26 21 -34 21 -16 0 -16 21 -1 32 13 9 16 38 4 38
-6 0 -7 -7 -4 -16 3 -9 2 -12 -5 -9 -5 4 -16 1 -24 -5 -11 -9 -24 -5 -62 17
l-48 28 38 6 c21 3 43 11 50 18 13 13 4 13 -45 -3z m209 -171 c0 -8 -4 -12 -9
-9 -5 3 -6 10 -3 15 9 13 12 11 12 -6z"/>
</g>
</svg>
