<?xml version="1.0" standalone="no"?>
<!DOCTYPE svg PUBLIC "-//W3C//DTD SVG 20010904//EN"
 "http://www.w3.org/TR/2001/REC-SVG-20010904/DTD/svg10.dtd">
<svg version="1.0" xmlns="http://www.w3.org/2000/svg"
 width="96.000000pt" height="68.000000pt" viewBox="0 0 96.000000 68.000000"
 preserveAspectRatio="xMidYMid meet">
<metadata>
Created by potrace 1.16, written by Peter Selinger 2001-2019
</metadata>
<g transform="translate(0.000000,68.000000) scale(0.100000,-0.100000)"
fill="#000000" stroke="none">
<path d="M570 152 c0 -16 127 -132 143 -132 33 0 18 60 -21 86 -36 25 -122 57
-122 46z"/>
<path d="M270 101 c-25 -25 -61 -54 -80 -64 l-35 -18 35 7 c19 3 60 20 90 36
30 17 65 36 77 42 27 13 30 31 7 40 -31 12 -50 3 -94 -43z"/>
</g>
</svg>
