<?xml version="1.0" standalone="no"?>
<!DOCTYPE svg PUBLIC "-//W3C//DTD SVG 20010904//EN"
 "http://www.w3.org/TR/2001/REC-SVG-20010904/DTD/svg10.dtd">
<svg version="1.0" xmlns="http://www.w3.org/2000/svg"
 width="96.000000pt" height="68.000000pt" viewBox="0 0 96.000000 68.000000"
 preserveAspectRatio="xMidYMid meet">
<metadata>
Created by potrace 1.16, written by Peter Selinger 2001-2019
</metadata>
<g transform="translate(0.000000,68.000000) scale(0.100000,-0.100000)"
fill="#000000" stroke="none">
<path d="M600 440 c6 -12 10 -38 8 -58 -3 -33 -6 -37 -33 -40 -46 -5 -55 -22
-12 -22 35 0 36 -1 27 -25 -11 -30 -67 -115 -107 -164 l-28 -34 33 17 c18 9
52 41 75 71 23 30 43 52 45 50 2 -2 -1 -44 -8 -94 -9 -67 -9 -95 0 -111 9 -17
14 -19 25 -10 10 9 15 43 17 121 l3 110 53 -71 52 -70 50 0 c28 0 50 2 50 5 0
3 -24 18 -54 35 -62 36 -156 130 -156 158 0 16 11 21 73 29 65 8 69 10 46 20
-15 7 -41 8 -67 3 -23 -4 -44 -4 -47 -1 -2 4 0 23 4 43 10 42 -1 58 -36 58
-21 0 -22 -3 -13 -20z"/>
</g>
</svg>
