<?xml version="1.0" standalone="no"?>
<!DOCTYPE svg PUBLIC "-//W3C//DTD SVG 20010904//EN"
 "http://www.w3.org/TR/2001/REC-SVG-20010904/DTD/svg10.dtd">
<svg version="1.0" xmlns="http://www.w3.org/2000/svg"
 width="96.000000pt" height="68.000000pt" viewBox="0 0 96.000000 68.000000"
 preserveAspectRatio="xMidYMid meet">
<metadata>
Created by potrace 1.16, written by Peter Selinger 2001-2019
</metadata>
<g transform="translate(0.000000,68.000000) scale(0.100000,-0.100000)"
fill="#000000" stroke="none">
<path d="M283 493 c-9 -3 -11 -18 -6 -48 6 -49 6 -50 -92 -61 -33 -3 -67 -10
-75 -14 -28 -16 42 -24 99 -12 30 7 56 10 58 9 9 -9 -68 -110 -117 -152 -32
-27 -57 -51 -55 -53 10 -11 80 35 129 84 l58 59 -7 -65 c-11 -118 -11 -188 3
-201 27 -28 37 8 37 129 1 167 -1 161 33 129 32 -31 47 -34 56 -11 4 11 -4 19
-29 30 -19 7 -39 14 -45 14 -5 0 -10 11 -10 24 0 21 6 24 50 30 65 9 65 26 0
26 l-51 0 6 34 c6 27 3 36 -12 44 -10 5 -23 7 -30 5z"/>
</g>
</svg>
