<?xml version="1.0" standalone="no"?>
<!DOCTYPE svg PUBLIC "-//W3C//DTD SVG 20010904//EN"
 "http://www.w3.org/TR/2001/REC-SVG-20010904/DTD/svg10.dtd">
<svg version="1.0" xmlns="http://www.w3.org/2000/svg"
 width="96.000000pt" height="68.000000pt" viewBox="0 0 96.000000 68.000000"
 preserveAspectRatio="xMidYMid meet">
<metadata>
Created by potrace 1.16, written by Peter Selinger 2001-2019
</metadata>
<g transform="translate(0.000000,68.000000) scale(0.100000,-0.100000)"
fill="#000000" stroke="none">
<path d="M505 613 c3 -10 9 -30 12 -45 5 -26 4 -26 -61 -33 -40 -5 -63 -11
-59 -17 3 -7 29 -8 64 -4 58 6 59 5 59 -19 0 -33 26 -33 34 0 6 25 13 28 89
40 51 8 49 27 -3 27 -3 0 -22 -3 -44 -6 -37 -7 -38 -7 -32 18 7 29 -15 56 -46
56 -15 0 -18 -4 -13 -17z"/>
</g>
</svg>
