<?xml version="1.0" standalone="no"?>
<!DOCTYPE svg PUBLIC "-//W3C//DTD SVG 20010904//EN"
 "http://www.w3.org/TR/2001/REC-SVG-20010904/DTD/svg10.dtd">
<svg version="1.0" xmlns="http://www.w3.org/2000/svg"
 width="96.000000pt" height="68.000000pt" viewBox="0 0 96.000000 68.000000"
 preserveAspectRatio="xMidYMid meet">
<metadata>
Created by potrace 1.16, written by Peter Selinger 2001-2019
</metadata>
<g transform="translate(0.000000,68.000000) scale(0.100000,-0.100000)"
fill="#000000" stroke="none">
<path d="M625 519 c-27 -5 -88 -10 -135 -11 l-85 -3 3 -115 c2 -63 -1 -147 -7
-186 -7 -38 -9 -78 -5 -87 6 -17 34 -24 34 -9 0 5 61 13 136 18 l135 9 24 -30
25 -30 20 23 c18 22 19 34 14 172 -2 81 0 167 5 189 9 40 8 42 -20 56 -31 16
-67 17 -144 4z m99 -36 c10 -26 18 -297 9 -309 -5 -7 -66 -14 -151 -18 l-143
-7 7 163 c4 90 8 164 9 166 4 4 155 19 211 21 40 1 53 -3 58 -16z"/>
<path d="M567 421 l6 -41 -42 0 c-22 0 -41 -4 -41 -10 0 -5 14 -10 30 -10 40
0 38 -14 -11 -72 -53 -63 -42 -75 16 -18 l45 44 0 -63 c0 -46 3 -62 13 -59 6
3 13 24 15 49 4 70 8 73 43 39 38 -36 62 -39 57 -8 -2 16 -16 27 -48 39 -57
21 -63 51 -11 59 49 7 56 34 8 28 -34 -4 -36 -2 -39 27 -2 22 -9 31 -25 33
-19 3 -21 0 -16 -37z"/>
<path d="M255 500 c-11 -5 -40 -9 -65 -9 l-45 -1 3 -182 c2 -101 6 -185 8
-188 3 -2 13 0 22 6 9 6 36 11 59 13 34 2 42 -1 48 -18 8 -28 39 -27 53 2 7
13 12 91 14 194 3 171 3 172 -20 183 -27 12 -49 12 -77 0z m35 -49 c5 -11 10
-31 10 -44 0 -22 -5 -25 -42 -29 -24 -3 -46 -3 -50 -1 -13 7 -9 68 4 81 19 19
66 15 78 -7z m10 -136 c0 -31 -3 -35 -27 -35 -16 0 -38 -3 -50 -6 -21 -6 -23
-3 -23 29 0 38 8 42 73 46 25 1 27 -2 27 -34z m-2 -107 l-3 -43 -52 -3 c-46
-3 -53 0 -53 15 0 44 12 62 44 66 71 9 67 10 64 -35z"/>
</g>
</svg>
