<?xml version="1.0" standalone="no"?>
<!DOCTYPE svg PUBLIC "-//W3C//DTD SVG 20010904//EN"
 "http://www.w3.org/TR/2001/REC-SVG-20010904/DTD/svg10.dtd">
<svg version="1.0" xmlns="http://www.w3.org/2000/svg"
 width="96.000000pt" height="68.000000pt" viewBox="0 0 96.000000 68.000000"
 preserveAspectRatio="xMidYMid meet">
<metadata>
Created by potrace 1.16, written by Peter Selinger 2001-2019
</metadata>
<g transform="translate(0.000000,68.000000) scale(0.100000,-0.100000)"
fill="#000000" stroke="none">
<path d="M298 193 c-3 -26 -7 -28 -55 -31 -51 -3 -53 -2 -53 22 0 35 -35 36
-44 2 -10 -41 24 -102 36 -65 2 6 25 13 51 16 38 5 47 3 47 -9 0 -9 7 -22 16
-29 25 -21 54 21 54 77 0 40 -2 44 -24 44 -19 0 -25 -6 -28 -27z"/>
</g>
</svg>
