<?xml version="1.0" standalone="no"?>
<!DOCTYPE svg PUBLIC "-//W3C//DTD SVG 20010904//EN"
 "http://www.w3.org/TR/2001/REC-SVG-20010904/DTD/svg10.dtd">
<svg version="1.0" xmlns="http://www.w3.org/2000/svg"
 width="96.000000pt" height="68.000000pt" viewBox="0 0 96.000000 68.000000"
 preserveAspectRatio="xMidYMid meet">
<metadata>
Created by potrace 1.16, written by Peter Selinger 2001-2019
</metadata>
<g transform="translate(0.000000,68.000000) scale(0.100000,-0.100000)"
fill="#000000" stroke="none">
<path d="M620 489 c-25 -5 -80 -10 -122 -12 -72 -2 -91 -8 -69 -21 5 -3 14
-29 21 -57 12 -48 14 -50 39 -44 14 4 78 8 141 10 l115 4 31 54 c23 40 29 58
21 66 -13 13 -113 13 -177 0z m120 -30 c0 -45 -16 -56 -92 -63 -40 -4 -94 -9
-120 -13 l-48 -6 0 42 0 41 58 1 c31 1 82 4 112 9 89 12 90 12 90 -11z"/>
</g>
</svg>
