<?xml version="1.0" standalone="no"?>
<!DOCTYPE svg PUBLIC "-//W3C//DTD SVG 20010904//EN"
 "http://www.w3.org/TR/2001/REC-SVG-20010904/DTD/svg10.dtd">
<svg version="1.0" xmlns="http://www.w3.org/2000/svg"
 width="96.000000pt" height="68.000000pt" viewBox="0 0 96.000000 68.000000"
 preserveAspectRatio="xMidYMid meet">
<metadata>
Created by potrace 1.16, written by Peter Selinger 2001-2019
</metadata>
<g transform="translate(0.000000,68.000000) scale(0.100000,-0.100000)"
fill="#000000" stroke="none">
<path d="M288 543 c4 -27 7 -68 7 -93 l0 -45 -67 -10 c-93 -14 -95 -25 -4 -25
l77 0 -3 -42 c-3 -43 -3 -43 -90 -88 -86 -44 -103 -62 -72 -74 30 -12 47 -6
94 34 26 22 51 40 54 40 10 0 7 -86 -4 -114 -8 -23 -12 -25 -36 -16 -15 6 -28
9 -30 7 -2 -2 15 -21 37 -43 l40 -39 20 24 c16 19 19 39 19 120 l0 98 41 32
c48 39 46 50 -5 20 l-36 -21 0 36 c0 37 3 39 64 48 32 5 14 23 -24 24 -42 0
-47 15 -27 92 14 50 13 53 -7 67 -11 8 -28 15 -38 15 -15 0 -17 -6 -10 -47z"/>
</g>
</svg>
