<?xml version="1.0" standalone="no"?>
<!DOCTYPE svg PUBLIC "-//W3C//DTD SVG 20010904//EN"
 "http://www.w3.org/TR/2001/REC-SVG-20010904/DTD/svg10.dtd">
<svg version="1.0" xmlns="http://www.w3.org/2000/svg"
 width="96.000000pt" height="68.000000pt" viewBox="0 0 96.000000 68.000000"
 preserveAspectRatio="xMidYMid meet">
<metadata>
Created by potrace 1.16, written by Peter Selinger 2001-2019
</metadata>
<g transform="translate(0.000000,68.000000) scale(0.100000,-0.100000)"
fill="#000000" stroke="none">
<path d="M510 544 c-25 -8 -89 -17 -143 -21 -84 -5 -97 -8 -92 -22 16 -40 16
-120 1 -179 -22 -85 -49 -136 -109 -199 -57 -61 -51 -68 19 -20 57 39 108 116
131 200 l16 57 62 0 c84 0 189 12 176 19 -7 5 1 31 21 71 18 36 34 68 36 73 3
6 -61 39 -70 36 -2 -1 -23 -7 -48 -15z m35 -66 c-16 -78 -22 -82 -114 -91 -48
-4 -89 -3 -94 2 -5 5 -5 29 -2 55 7 41 10 46 39 51 71 11 83 12 129 14 l49 1
-7 -32z"/>
</g>
</svg>
