<?xml version="1.0" standalone="no"?>
<!DOCTYPE svg PUBLIC "-//W3C//DTD SVG 20010904//EN"
 "http://www.w3.org/TR/2001/REC-SVG-20010904/DTD/svg10.dtd">
<svg version="1.0" xmlns="http://www.w3.org/2000/svg"
 width="96.000000pt" height="68.000000pt" viewBox="0 0 96.000000 68.000000"
 preserveAspectRatio="xMidYMid meet">
<metadata>
Created by potrace 1.16, written by Peter Selinger 2001-2019
</metadata>
<g transform="translate(0.000000,68.000000) scale(0.100000,-0.100000)"
fill="#000000" stroke="none">
<path d="M282 551 c0 -27 -3 -54 -6 -60 -4 -6 -29 -11 -57 -11 -27 0 -49 -4
-49 -10 0 -5 23 -10 50 -10 49 0 50 -1 50 -30 0 -40 23 -39 41 3 12 28 20 33
61 37 26 3 50 9 54 12 9 10 -42 21 -71 16 -28 -6 -31 5 -14 49 8 23 7 30 -7
40 -37 27 -52 17 -52 -36z"/>
</g>
</svg>
