<?xml version="1.0" standalone="no"?>
<!DOCTYPE svg PUBLIC "-//W3C//DTD SVG 20010904//EN"
 "http://www.w3.org/TR/2001/REC-SVG-20010904/DTD/svg10.dtd">
<svg version="1.0" xmlns="http://www.w3.org/2000/svg"
 width="96.000000pt" height="68.000000pt" viewBox="0 0 96.000000 68.000000"
 preserveAspectRatio="xMidYMid meet">
<metadata>
Created by potrace 1.16, written by Peter Selinger 2001-2019
</metadata>
<g transform="translate(0.000000,68.000000) scale(0.100000,-0.100000)"
fill="#000000" stroke="none">
<path d="M667 143 c-4 -3 -24 -10 -44 -14 l-38 -8 45 2 c25 1 46 -2 47 -7 1
-5 7 -12 14 -16 25 -16 -23 -47 -83 -54 -49 -6 -57 -5 -61 11 -4 14 -5 13 -6
-5 -1 -23 0 -23 67 -16 37 4 73 7 80 7 11 0 13 8 17 59 0 9 5 21 9 25 5 4 6 2
2 -4 -4 -7 -2 -13 3 -13 6 0 11 7 11 16 0 11 -6 15 -20 11 -11 -3 -20 -1 -20
4 0 10 -14 12 -23 2z"/>
<path d="M508 123 c6 -3 12 -16 12 -29 0 -15 4 -23 11 -19 6 4 8 13 5 20 -2 7
-1 16 4 21 5 5 -3 10 -18 10 -15 1 -21 -1 -14 -3z"/>
</g>
</svg>
