<?xml version="1.0" standalone="no"?>
<!DOCTYPE svg PUBLIC "-//W3C//DTD SVG 20010904//EN"
 "http://www.w3.org/TR/2001/REC-SVG-20010904/DTD/svg10.dtd">
<svg version="1.0" xmlns="http://www.w3.org/2000/svg"
 width="96.000000pt" height="68.000000pt" viewBox="0 0 96.000000 68.000000"
 preserveAspectRatio="xMidYMid meet">
<metadata>
Created by potrace 1.16, written by Peter Selinger 2001-2019
</metadata>
<g transform="translate(0.000000,68.000000) scale(0.100000,-0.100000)"
fill="#000000" stroke="none">
<path d="M620 600 c-14 -4 -54 -8 -89 -9 -57 -1 -63 -3 -47 -14 10 -8 21 -31
25 -53 l6 -39 50 3 c82 5 105 12 105 31 0 10 9 30 20 44 20 26 20 26 1 36 -22
12 -35 12 -71 1z m20 -45 c0 -28 -30 -45 -81 -45 -25 0 -29 4 -29 29 0 26 4
30 33 34 74 9 77 8 77 -18z"/>
<path d="M360 580 c-14 -4 -51 -8 -82 -9 -32 -1 -58 -5 -58 -11 0 -5 4 -10 9
-10 5 0 17 -22 26 -50 16 -48 28 -60 39 -41 3 4 32 11 63 15 55 7 59 9 76 45
21 46 21 57 1 65 -20 7 -42 6 -74 -4z m20 -49 c0 -33 -84 -44 -93 -12 -5 22 7
28 61 30 25 1 32 -3 32 -18z"/>
<path d="M495 460 c-38 -4 -104 -11 -145 -14 -123 -11 -154 -17 -139 -27 8 -6
56 -7 112 -3 101 6 118 0 75 -30 -12 -9 -38 -16 -58 -16 l-35 0 3 -77 c3 -94
9 -116 23 -91 9 16 39 15 39 -1 0 -5 -17 -20 -37 -34 -48 -34 -37 -34 33 0 43
21 52 29 43 40 -9 11 -2 13 42 13 30 0 71 3 92 6 29 5 37 3 37 -9 0 -11 -7
-14 -22 -10 -18 5 -14 -2 16 -25 21 -18 42 -29 47 -26 14 8 10 31 -6 38 -12 4
-13 11 -7 23 6 10 11 50 14 90 3 70 3 73 -22 83 -19 8 -45 8 -90 1 -57 -9 -95
-5 -62 6 6 3 12 10 12 17 0 14 107 26 223 26 43 0 58 3 55 13 -5 14 -137 19
-243 7z m75 -127 l0 -38 -47 0 c-27 0 -79 -4 -116 -9 -64 -8 -69 -7 -65 10 2
12 11 18 23 17 11 -1 61 4 110 12 l90 14 -114 -5 c-90 -4 -112 -3 -109 8 5 13
70 23 176 26 l52 2 0 -37z m0 -67 c0 -9 -22 -15 -77 -20 -43 -4 -95 -10 -115
-13 -34 -5 -38 -3 -38 15 0 22 -11 21 188 30 30 1 42 -2 42 -12z"/>
<path d="M355 133 c-27 -8 -69 -12 -92 -10 -44 5 -53 -2 -30 -22 8 -6 19 -28
25 -49 l12 -38 57 7 c32 4 68 8 81 8 13 1 21 4 19 9 -3 4 3 24 13 44 28 57 0
74 -85 51z m40 -24 c4 -5 4 -21 1 -34 -5 -19 -15 -24 -57 -30 -27 -4 -52 -5
-54 -4 -2 2 -5 18 -7 34 -3 29 -2 30 47 36 28 3 53 7 57 7 4 1 10 -3 13 -9z"/>
<path d="M625 140 c-11 -5 -47 -9 -80 -9 -34 -1 -55 -5 -47 -9 7 -5 18 -28 25
-53 l13 -44 69 3 c86 4 105 9 105 28 0 8 7 29 16 46 13 25 14 32 2 39 -17 11
-77 10 -103 -1z m53 -47 c-3 -25 -8 -29 -56 -37 -56 -9 -65 -6 -76 31 -8 24 6
29 87 32 47 1 48 0 45 -26z"/>
</g>
</svg>
