<?xml version="1.0" standalone="no"?>
<!DOCTYPE svg PUBLIC "-//W3C//DTD SVG 20010904//EN"
 "http://www.w3.org/TR/2001/REC-SVG-20010904/DTD/svg10.dtd">
<svg version="1.0" xmlns="http://www.w3.org/2000/svg"
 width="96.000000pt" height="68.000000pt" viewBox="0 0 96.000000 68.000000"
 preserveAspectRatio="xMidYMid meet">
<metadata>
Created by potrace 1.16, written by Peter Selinger 2001-2019
</metadata>
<g transform="translate(0.000000,68.000000) scale(0.100000,-0.100000)"
fill="#000000" stroke="none">
<path d="M280 212 c0 -4 11 -19 25 -32 20 -18 28 -21 37 -12 9 9 9 15 -2 26
-19 18 -60 30 -60 18z"/>
<path d="M222 155 c25 -38 48 -46 48 -16 0 20 -35 51 -57 51 -9 0 -6 -11 9
-35z"/>
<path d="M111 148 c40 -76 83 -105 77 -51 -2 18 -15 35 -37 50 -43 29 -55 29
-40 1z"/>
</g>
</svg>
