<?xml version="1.0" standalone="no"?>
<!DOCTYPE svg PUBLIC "-//W3C//DTD SVG 20010904//EN"
 "http://www.w3.org/TR/2001/REC-SVG-20010904/DTD/svg10.dtd">
<svg version="1.0" xmlns="http://www.w3.org/2000/svg"
 width="96.000000pt" height="68.000000pt" viewBox="0 0 96.000000 68.000000"
 preserveAspectRatio="xMidYMid meet">
<metadata>
Created by potrace 1.16, written by Peter Selinger 2001-2019
</metadata>
<g transform="translate(0.000000,68.000000) scale(0.100000,-0.100000)"
fill="#000000" stroke="none">
<path d="M250 550 c0 -7 13 -31 29 -55 l29 -43 -86 -13 c-99 -14 -117 -23 -78
-40 21 -10 49 -8 154 10 70 13 134 25 142 27 26 9 -11 24 -58 24 -35 0 -43 3
-41 18 5 30 -11 61 -34 67 -12 4 -30 9 -39 11 -10 3 -18 0 -18 -6z"/>
<path d="M630 535 c-25 -7 -76 -16 -114 -20 -61 -7 -67 -9 -51 -21 10 -8 28
-12 39 -9 12 2 53 12 93 21 39 9 76 15 82 13 6 -2 -4 -21 -23 -42 -33 -37 -36
-38 -83 -32 l-48 7 37 -28 c21 -16 37 -32 38 -36 0 -5 -24 -9 -52 -10 -29 -1
-64 -2 -77 -2 -24 -1 -25 -4 -22 -62 1 -34 -3 -90 -9 -124 -11 -62 -7 -110 9
-110 12 0 31 48 31 80 0 28 3 30 40 31 22 1 46 2 53 3 16 2 25 -28 26 -86 2
-88 31 -47 31 43 l0 46 46 7 c87 12 85 12 82 -46 -3 -56 -13 -63 -63 -43 -13
5 -6 -6 20 -34 45 -47 58 -50 80 -17 12 18 17 56 18 152 2 71 7 137 11 146 6
13 0 21 -25 33 -31 17 -46 16 -126 -1 -30 -6 -33 -4 -33 17 0 19 14 31 70 62
39 21 70 42 70 46 0 13 -49 31 -78 30 -15 -1 -47 -7 -72 -14z m130 -195 c0
-28 -3 -30 -37 -30 -21 0 -48 -3 -60 -6 -21 -6 -23 -3 -23 30 l0 36 60 0 60 0
0 -30z m-170 -15 l0 -35 -50 0 c-49 0 -50 1 -50 29 0 32 10 38 68 40 30 1 32
-1 32 -34z m170 -65 l0 -30 -60 0 c-57 0 -60 1 -60 24 0 21 5 25 38 29 84 9
82 9 82 -23z m-170 -14 c0 -18 -7 -25 -31 -30 -60 -12 -69 -8 -69 24 0 29 1
30 50 30 46 0 50 -2 50 -24z"/>
<path d="M305 360 c-11 -5 -32 -9 -47 -9 -15 -1 -30 -6 -34 -13 -5 -8 10 -10
57 -5 79 7 106 16 87 28 -16 11 -37 10 -63 -1z"/>
<path d="M270 286 c-71 -15 -50 -31 27 -21 75 9 93 16 67 26 -24 9 -27 9 -94
-5z"/>
<path d="M280 208 c-19 -5 -50 -7 -69 -4 -31 5 -32 4 -17 -13 9 -10 23 -39 32
-64 10 -31 20 -44 27 -40 7 4 34 10 62 13 46 5 50 7 56 37 3 18 12 39 19 48 6
8 9 19 5 25 -8 12 -68 12 -115 -2z m60 -22 c0 -8 -4 -26 -10 -40 -14 -37 -66
-37 -80 0 -15 38 -13 42 23 47 62 7 67 7 67 -7z"/>
</g>
</svg>
