<?xml version="1.0" standalone="no"?>
<!DOCTYPE svg PUBLIC "-//W3C//DTD SVG 20010904//EN"
 "http://www.w3.org/TR/2001/REC-SVG-20010904/DTD/svg10.dtd">
<svg version="1.0" xmlns="http://www.w3.org/2000/svg"
 width="96.000000pt" height="68.000000pt" viewBox="0 0 96.000000 68.000000"
 preserveAspectRatio="xMidYMid meet">
<metadata>
Created by potrace 1.16, written by Peter Selinger 2001-2019
</metadata>
<g transform="translate(0.000000,68.000000) scale(0.100000,-0.100000)"
fill="#000000" stroke="none">
<path d="M344 584 c3 -9 6 -38 6 -65 0 -37 4 -49 15 -49 10 0 15 11 16 33 0
17 4 41 8 52 12 29 2 45 -26 45 -19 0 -24 -4 -19 -16z"/>
<path d="M446 543 c-13 -21 -22 -39 -21 -41 1 -2 21 5 44 14 45 18 52 37 21
54 -17 9 -23 5 -44 -27z"/>
<path d="M242 510 c25 -34 58 -40 58 -10 0 21 -27 40 -60 40 l-21 0 23 -30z"/>
</g>
</svg>
