<?xml version="1.0" standalone="no"?>
<!DOCTYPE svg PUBLIC "-//W3C//DTD SVG 20010904//EN"
 "http://www.w3.org/TR/2001/REC-SVG-20010904/DTD/svg10.dtd">
<svg version="1.0" xmlns="http://www.w3.org/2000/svg"
 width="90.000000pt" height="92.000000pt" viewBox="0 0 90.000000 92.000000"
 preserveAspectRatio="xMidYMid meet">
<metadata>
Created by potrace 1.16, written by Peter Selinger 2001-2019
</metadata>
<g transform="translate(0.000000,92.000000) scale(0.100000,-0.100000)"
fill="#000000" stroke="none">
<path d="M514 868 c3 -13 7 -42 10 -64 7 -48 7 -48 -101 -60 -35 -3 -63 -11
-63 -16 0 -18 50 -27 101 -18 71 14 69 15 69 -30 0 -33 -4 -40 -22 -44 -107
-22 -105 -21 -80 -35 18 -10 43 -9 132 5 61 10 116 22 123 26 23 15 -16 29
-65 23 l-48 -6 0 41 0 40 49 0 c62 0 141 11 141 19 0 4 -13 14 -29 24 -24 14
-37 16 -73 7 -77 -17 -78 -16 -78 44 0 56 -8 66 -51 66 -15 0 -18 -5 -15 -22z"/>
<path d="M115 800 c-3 -5 -2 -18 3 -27 5 -10 12 -50 16 -89 l7 -71 -37 -6
c-20 -3 -49 -3 -65 0 -33 6 -33 6 -15 -38 8 -19 17 -57 21 -86 4 -29 13 -57
21 -64 8 -7 14 -7 14 -1 0 5 11 12 25 14 25 5 25 4 25 -57 l0 -62 -44 -13
c-24 -6 -53 -9 -65 -5 -31 10 -28 -28 5 -49 24 -17 28 -16 135 39 61 31 112
55 113 53 1 -1 9 -15 18 -29 28 -44 69 -55 152 -40 39 8 149 16 244 18 140 5
172 8 172 20 0 25 -60 42 -110 33 -25 -5 -58 -9 -73 -10 l-28 0 25 33 c20 25
23 36 14 45 -21 21 -19 54 7 88 31 40 31 50 3 68 -20 13 -36 13 -136 -5 -63
-10 -125 -16 -138 -13 -25 7 -31 -5 -13 -23 10 -10 19 -42 33 -118 2 -11 11
-37 20 -57 9 -21 13 -38 9 -39 -5 0 -42 -4 -83 -7 l-75 -7 3 36 c3 30 -1 40
-28 62 -17 15 -36 27 -41 27 -12 0 -12 -17 1 -25 18 -11 11 -21 -25 -38 -20
-9 -38 -17 -40 -17 -3 0 -5 25 -5 55 l0 54 61 7 c49 5 59 10 54 22 -3 9 4 40
16 70 l23 55 -23 18 c-26 21 -51 23 -98 10 l-32 -9 5 46 c3 26 9 59 14 73 10
32 3 45 -33 58 -35 14 -44 14 -52 1z m132 -251 c-7 -59 -4 -54 -39 -63 l-28
-6 0 60 0 60 36 0 37 0 -6 -51z m-109 -20 c-2 -36 -8 -55 -20 -63 -22 -14 -26
-9 -33 46 -8 56 -2 68 31 68 24 0 25 -2 22 -51z m507 -21 c-4 -18 -12 -36 -17
-39 -11 -7 -149 -21 -154 -16 -2 2 -7 17 -10 34 l-6 31 63 10 c35 5 79 10 97
11 33 1 33 0 27 -31z m-10 -112 c-5 -59 -19 -74 -75 -78 -46 -3 -51 -1 -46 16
3 12 -6 29 -24 48 -36 35 -25 40 112 46 36 2 36 1 33 -32z"/>
<path d="M669 256 c-10 -10 -240 -36 -264 -30 -30 7 -30 8 -5 -41 11 -22 20
-49 20 -61 0 -30 20 -84 31 -84 5 0 12 6 15 14 4 10 38 15 126 21 84 5 117 10
110 17 -11 11 17 80 38 93 19 12 10 35 -22 55 -34 20 -42 23 -49 16z m-16 -85
c-1 -24 -4 -46 -7 -48 -7 -7 -175 -27 -180 -22 -2 2 -6 23 -9 46 l-5 42 52 10
c68 14 107 19 131 17 17 -1 20 -7 18 -45z"/>
</g>
</svg>
