<?xml version="1.0" standalone="no"?>
<!DOCTYPE svg PUBLIC "-//W3C//DTD SVG 20010904//EN"
 "http://www.w3.org/TR/2001/REC-SVG-20010904/DTD/svg10.dtd">
<svg version="1.0" xmlns="http://www.w3.org/2000/svg"
 width="96.000000pt" height="68.000000pt" viewBox="0 0 96.000000 68.000000"
 preserveAspectRatio="xMidYMid meet">
<metadata>
Created by potrace 1.16, written by Peter Selinger 2001-2019
</metadata>
<g transform="translate(0.000000,68.000000) scale(0.100000,-0.100000)"
fill="#000000" stroke="none">
<path d="M672 139 c9 -5 15 -15 13 -22 -2 -6 -6 -24 -9 -39 -3 -14 -14 -28
-24 -31 -9 -2 -3 -4 15 -4 18 0 30 3 28 7 -2 4 5 17 17 30 15 16 18 24 8 30
-9 5 -9 9 -1 14 6 4 11 2 11 -3 0 -6 5 -11 10 -11 6 0 10 4 10 8 0 12 -46 32
-73 32 -19 -1 -20 -2 -5 -11z"/>
<path d="M501 131 c-61 -6 -64 -7 -48 -23 9 -9 17 -26 17 -37 0 -11 5 -23 10
-26 6 -4 7 -11 4 -17 -4 -6 -1 -9 7 -6 16 6 13 39 -4 50 -7 4 -8 8 -4 8 4 0 3
8 -2 18 -8 16 -5 18 30 21 22 1 50 6 62 11 12 5 15 8 7 8 -8 -1 -44 -4 -79 -7z"/>
<path d="M528 33 c6 -2 18 -2 25 0 6 3 1 5 -13 5 -14 0 -19 -2 -12 -5z"/>
</g>
</svg>
