<?xml version="1.0" standalone="no"?>
<!DOCTYPE svg PUBLIC "-//W3C//DTD SVG 20010904//EN"
 "http://www.w3.org/TR/2001/REC-SVG-20010904/DTD/svg10.dtd">
<svg version="1.0" xmlns="http://www.w3.org/2000/svg"
 width="96.000000pt" height="68.000000pt" viewBox="0 0 96.000000 68.000000"
 preserveAspectRatio="xMidYMid meet">
<metadata>
Created by potrace 1.16, written by Peter Selinger 2001-2019
</metadata>
<g transform="translate(0.000000,68.000000) scale(0.100000,-0.100000)"
fill="#000000" stroke="none">
<path d="M522 588 c-6 -18 -23 -46 -37 -62 -38 -44 -33 -45 25 -6 16 11 56 19
114 24 50 3 92 9 95 11 18 19 -50 24 -125 10 -38 -7 -39 -7 -21 13 18 20 18
21 -2 31 -30 16 -36 14 -49 -21z"/>
<path d="M278 566 c-9 -18 -31 -50 -48 -70 -38 -43 -27 -46 26 -8 31 23 54 30
113 35 40 3 76 9 79 12 9 9 -21 25 -38 21 -8 -2 -33 -7 -55 -11 l-40 -7 20 22
c16 18 17 23 5 30 -27 18 -46 10 -62 -24z"/>
<path d="M573 495 c32 -28 57 -32 57 -10 0 16 -38 35 -68 35 -13 -1 -10 -6 11
-25z"/>
<path d="M310 490 c0 -10 32 -30 49 -30 17 0 13 27 -5 34 -23 9 -44 7 -44 -4z"/>
</g>
</svg>
