<?xml version="1.0" standalone="no"?>
<!DOCTYPE svg PUBLIC "-//W3C//DTD SVG 20010904//EN"
 "http://www.w3.org/TR/2001/REC-SVG-20010904/DTD/svg10.dtd">
<svg version="1.0" xmlns="http://www.w3.org/2000/svg"
 width="96.000000pt" height="68.000000pt" viewBox="0 0 96.000000 68.000000"
 preserveAspectRatio="xMidYMid meet">
<metadata>
Created by potrace 1.16, written by Peter Selinger 2001-2019
</metadata>
<g transform="translate(0.000000,68.000000) scale(0.100000,-0.100000)"
fill="#000000" stroke="none">
<path d="M430 575 c-113 -13 -212 -24 -220 -25 -11 -1 -9 -6 7 -17 20 -14 23
-24 23 -87 0 -117 -50 -277 -110 -353 -26 -33 -20 -40 15 -17 66 43 116 159
141 322 9 59 21 112 28 119 7 8 78 16 201 23 217 13 225 15 204 35 -25 24 -79
24 -289 0z"/>
<path d="M385 497 c-38 -5 -71 -11 -73 -12 -1 -1 6 -22 16 -46 l19 -44 65 3
c63 3 66 5 82 38 20 43 21 64 2 64 -8 0 -20 2 -28 4 -7 2 -44 -1 -83 -7z m75
-22 c0 -8 -8 -15 -17 -15 -10 0 -35 -3 -55 -6 -31 -5 -38 -3 -38 9 0 10 11 17
33 20 67 8 77 7 77 -8z m0 -45 c0 -5 -8 -10 -19 -10 -10 0 -33 -3 -50 -6 -24
-5 -31 -3 -31 10 0 13 11 16 50 16 28 0 50 -4 50 -10z"/>
<path d="M585 458 c0 -53 0 -53 -32 -56 -42 -4 -43 -22 -2 -22 28 0 31 -3 25
-22 -3 -13 -6 -28 -6 -34 0 -6 -11 -28 -25 -48 -18 -26 -21 -36 -10 -36 8 0
28 21 46 48 18 26 34 49 36 51 2 3 11 -6 20 -19 42 -60 79 -88 116 -88 53 0
54 14 5 37 -50 23 -128 87 -128 105 0 8 17 16 41 19 42 5 57 13 47 23 -9 8
-41 8 -66 0 -23 -8 -24 -6 -20 41 3 45 1 48 -22 51 -25 3 -26 1 -25 -50z"/>
<path d="M680 503 c0 -10 63 -53 78 -53 19 0 14 37 -5 45 -30 12 -73 17 -73 8z"/>
<path d="M383 373 l-53 -4 -2 -55 c-1 -29 -2 -64 -2 -76 -1 -34 23 -34 30 1 5
24 12 31 29 31 12 0 37 3 54 6 36 7 44 -10 9 -20 l-23 -5 22 -23 c22 -22 23
-22 37 -3 10 13 14 42 13 85 -2 74 2 71 -114 63z m82 -22 c-7 -12 -93 -26
-103 -17 -3 4 0 11 8 16 20 13 103 13 95 1z m3 -42 c-2 -7 -21 -14 -42 -16
-21 -2 -43 -5 -48 -6 -6 -1 -12 3 -15 10 -4 11 22 18 80 22 18 0 27 -3 25 -10z"/>
<path d="M503 178 c2 -35 3 -35 -74 -37 -71 -2 -52 -21 22 -21 32 0 59 -3 60
-7 0 -5 2 -18 5 -30 3 -21 0 -21 -128 -28 -111 -7 -129 -10 -114 -21 14 -10
72 -12 270 -7 138 3 260 9 271 13 18 7 16 10 -14 23 -26 11 -59 13 -138 9
l-103 -5 0 30 c0 29 2 30 55 36 64 6 84 15 64 28 -8 5 -38 6 -67 3 -50 -6 -52
-6 -50 17 3 20 -2 24 -29 27 -29 3 -31 1 -30 -30z"/>
</g>
</svg>
