<?xml version="1.0" standalone="no"?>
<!DOCTYPE svg PUBLIC "-//W3C//DTD SVG 20010904//EN"
 "http://www.w3.org/TR/2001/REC-SVG-20010904/DTD/svg10.dtd">
<svg version="1.0" xmlns="http://www.w3.org/2000/svg"
 width="96.000000pt" height="68.000000pt" viewBox="0 0 96.000000 68.000000"
 preserveAspectRatio="xMidYMid meet">
<metadata>
Created by potrace 1.16, written by Peter Selinger 2001-2019
</metadata>
<g transform="translate(0.000000,68.000000) scale(0.100000,-0.100000)"
fill="#000000" stroke="none">
<path d="M194 405 c-28 -7 -66 -10 -84 -8 -31 3 -32 2 -18 -14 9 -10 23 -44
31 -76 18 -68 22 -74 39 -60 7 6 38 14 69 17 49 6 56 10 52 26 -3 10 4 39 16
64 19 45 19 46 1 56 -23 12 -40 11 -106 -5z m52 -62 c-3 -25 -7 -47 -9 -49 -1
-1 -18 -5 -39 -9 -35 -7 -36 -6 -43 27 -3 18 -9 41 -11 50 -5 17 11 21 85 26
23 2 23 0 17 -45z"/>
</g>
</svg>
