<?xml version="1.0" standalone="no"?>
<!DOCTYPE svg PUBLIC "-//W3C//DTD SVG 20010904//EN"
 "http://www.w3.org/TR/2001/REC-SVG-20010904/DTD/svg10.dtd">
<svg version="1.0" xmlns="http://www.w3.org/2000/svg"
 width="90.000000pt" height="92.000000pt" viewBox="0 0 90.000000 92.000000"
 preserveAspectRatio="xMidYMid meet">
<metadata>
Created by potrace 1.16, written by Peter Selinger 2001-2019
</metadata>
<g transform="translate(0.000000,92.000000) scale(0.100000,-0.100000)"
fill="#000000" stroke="none">
<path d="M470 861 c-6 -11 -45 -37 -88 -58 -60 -29 -89 -38 -132 -38 -44 0
-54 -3 -50 -15 11 -36 11 -191 0 -255 -7 -38 -25 -97 -41 -130 -28 -60 -94
-148 -130 -173 -35 -24 -20 -33 21 -12 50 26 101 77 137 137 l28 48 7 -45 c4
-25 7 -78 6 -117 -1 -46 4 -78 12 -88 20 -24 30 -1 30 73 l0 62 50 0 50 0 0
-42 c0 -24 4 -49 9 -57 16 -25 31 0 31 54 l0 53 45 4 45 3 0 -72 c0 -39 5 -75
10 -78 15 -9 30 39 30 95 0 58 9 65 93 72 l59 5 -7 -61 c-11 -99 -11 -99 -61
-92 l-43 6 32 -45 c37 -51 57 -55 86 -19 24 30 28 52 41 194 5 58 12 117 15
131 6 22 2 30 -29 48 -30 19 -41 21 -73 12 -52 -13 -411 -57 -417 -50 -3 2 1
27 8 54 l12 50 80 12 c43 6 123 15 177 19 92 7 120 15 97 29 -5 3 2 28 18 61
l27 56 -25 20 c-16 13 -33 18 -50 14 -27 -6 -302 -56 -308 -56 -2 0 -2 14 0
32 3 28 8 32 53 45 109 30 245 77 245 85 0 10 -38 34 -67 42 -16 5 -25 2 -33
-13z m104 -218 c-4 -21 -8 -40 -10 -42 -4 -4 -180 -36 -252 -45 l-54 -7 7 43
c4 24 9 44 10 46 7 8 205 40 253 41 l53 1 -7 -37z m114 -278 l3 -50 -71 0 -70
0 2 53 2 53 66 -3 65 -3 3 -50z m-190 -7 l-3 -53 -42 -3 -43 -3 0 45 c0 30 -5
46 -12 47 -16 2 49 16 80 18 22 1 23 -2 20 -51z m-134 10 c3 -13 6 -35 6 -50
0 -24 -4 -27 -46 -34 -55 -8 -66 1 -62 52 3 34 7 40 33 45 53 11 63 10 69 -13z"/>
</g>
</svg>
