<?xml version="1.0" standalone="no"?>
<!DOCTYPE svg PUBLIC "-//W3C//DTD SVG 20010904//EN"
 "http://www.w3.org/TR/2001/REC-SVG-20010904/DTD/svg10.dtd">
<svg version="1.0" xmlns="http://www.w3.org/2000/svg"
 width="90.000000pt" height="92.000000pt" viewBox="0 0 90.000000 92.000000"
 preserveAspectRatio="xMidYMid meet">
<metadata>
Created by potrace 1.16, written by Peter Selinger 2001-2019
</metadata>
<g transform="translate(0.000000,92.000000) scale(0.100000,-0.100000)"
fill="#000000" stroke="none">
<path d="M366 831 c-4 -6 -1 -21 6 -33 9 -16 14 -88 16 -239 l4 -216 -54 -6
c-29 -4 -69 -7 -88 -7 l-35 -1 25 -20 c21 -18 35 -20 87 -17 l63 4 0 -62 0
-62 -112 -7 c-62 -4 -133 -10 -158 -14 l-45 -6 33 -24 c33 -23 36 -23 120 -12
139 18 335 31 468 31 70 0 124 4 124 9 0 5 -12 19 -27 31 -30 23 -61 24 -285
3 l-68 -6 0 61 c0 68 -6 64 111 78 73 8 91 19 65 39 -23 18 -45 19 -116 5 -29
-6 -54 -9 -54 -8 -4 10 13 389 19 415 6 26 3 34 -16 46 -33 22 -76 31 -83 18z"/>
<path d="M606 679 c-8 -53 -49 -141 -92 -201 -19 -28 -33 -52 -30 -55 2 -3 33
22 67 55 l62 61 58 -56 c49 -47 61 -54 74 -43 42 35 5 73 -107 113 -16 6 -15
11 12 57 35 59 35 62 13 82 -38 32 -50 29 -57 -13z"/>
<path d="M206 649 c-8 -48 -54 -144 -102 -211 -48 -67 -23 -59 51 16 l63 64
45 -46 c51 -51 81 -53 75 -5 -2 22 -13 33 -47 50 -24 12 -48 24 -53 25 -6 2 3
27 18 56 l29 53 -24 19 c-35 30 -48 25 -55 -21z"/>
</g>
</svg>
