<?xml version="1.0" standalone="no"?>
<!DOCTYPE svg PUBLIC "-//W3C//DTD SVG 20010904//EN"
 "http://www.w3.org/TR/2001/REC-SVG-20010904/DTD/svg10.dtd">
<svg version="1.0" xmlns="http://www.w3.org/2000/svg"
 width="90.000000pt" height="92.000000pt" viewBox="0 0 90.000000 92.000000"
 preserveAspectRatio="xMidYMid meet">
<metadata>
Created by potrace 1.16, written by Peter Selinger 2001-2019
</metadata>
<g transform="translate(0.000000,92.000000) scale(0.100000,-0.100000)"
fill="#000000" stroke="none">
<path d="M226 818 c-29 -100 -99 -229 -131 -242 -19 -7 -19 -27 -2 -50 13 -18
16 -18 66 -1 29 9 54 15 57 13 6 -6 -93 -130 -112 -141 -18 -11 -18 -26 2 -48
16 -18 18 -18 43 0 14 10 53 30 86 44 52 22 62 24 76 11 25 -22 39 -17 39 15
0 20 -9 36 -26 50 -35 28 -59 28 -44 2 5 -11 10 -22 10 -24 0 -7 -120 -50
-125 -45 -2 2 39 55 92 117 87 103 95 116 87 140 -15 41 -39 38 -52 -6 -19
-59 -41 -80 -94 -87 -34 -5 -48 -4 -48 5 0 6 27 49 59 94 82 114 84 119 63
137 -29 25 -42 30 -46 16z"/>
<path d="M490 767 c0 -7 15 -38 34 -69 l33 -56 -81 -12 c-101 -16 -117 -23
-87 -39 18 -10 36 -9 89 4 116 27 109 28 115 -2 6 -32 -7 -125 -23 -171 l-12
-33 -52 49 c-48 46 -91 70 -102 59 -3 -2 25 -34 61 -70 36 -36 65 -69 65 -74
0 -19 -111 -119 -167 -150 -54 -31 -56 -33 -27 -33 55 0 123 31 178 81 l53 49
58 -76 c63 -82 79 -94 124 -94 42 0 131 20 131 30 0 4 -46 30 -103 58 -64 32
-118 67 -144 94 l-43 43 24 60 c34 84 53 185 37 195 -19 11 12 20 70 20 56 0
67 20 21 39 -22 9 -41 9 -90 -3 -34 -8 -59 -10 -56 -4 14 22 -7 74 -39 96 -37
25 -67 29 -67 9z"/>
<path d="M260 355 c0 -12 46 -75 59 -80 21 -8 34 10 27 38 -4 16 -17 29 -37
36 -35 12 -49 14 -49 6z"/>
<path d="M178 273 c34 -66 72 -82 72 -29 0 28 -25 52 -63 62 l-29 7 20 -40z"/>
<path d="M46 262 c-6 -10 57 -125 71 -129 21 -7 34 32 22 66 -11 32 -82 80
-93 63z"/>
</g>
</svg>
