<?xml version="1.0" standalone="no"?>
<!DOCTYPE svg PUBLIC "-//W3C//DTD SVG 20010904//EN"
 "http://www.w3.org/TR/2001/REC-SVG-20010904/DTD/svg10.dtd">
<svg version="1.0" xmlns="http://www.w3.org/2000/svg"
 width="96.000000pt" height="68.000000pt" viewBox="0 0 96.000000 68.000000"
 preserveAspectRatio="xMidYMid meet">
<metadata>
Created by potrace 1.16, written by Peter Selinger 2001-2019
</metadata>
<g transform="translate(0.000000,68.000000) scale(0.100000,-0.100000)"
fill="#000000" stroke="none">
<path d="M517 587 c5 -32 3 -34 -27 -41 -18 -3 -46 -6 -62 -6 -19 0 -27 -4
-22 -11 4 -7 27 -10 61 -7 42 4 56 1 60 -10 8 -19 -15 -32 -56 -32 -27 0 -32
-3 -23 -12 8 -8 28 -8 81 0 38 7 84 12 100 12 17 0 31 5 31 11 0 6 -18 9 -47
8 -47 -3 -49 -1 -44 31 0 6 25 10 54 10 60 0 93 14 58 25 -11 3 -41 3 -65 0
-43 -7 -45 -6 -48 21 -2 23 -9 30 -30 32 -25 3 -27 1 -21 -31z"/>
</g>
</svg>
