<?xml version="1.0" standalone="no"?>
<!DOCTYPE svg PUBLIC "-//W3C//DTD SVG 20010904//EN"
 "http://www.w3.org/TR/2001/REC-SVG-20010904/DTD/svg10.dtd">
<svg version="1.0" xmlns="http://www.w3.org/2000/svg"
 width="96.000000pt" height="68.000000pt" viewBox="0 0 96.000000 68.000000"
 preserveAspectRatio="xMidYMid meet">
<metadata>
Created by potrace 1.16, written by Peter Selinger 2001-2019
</metadata>
<g transform="translate(0.000000,68.000000) scale(0.100000,-0.100000)"
fill="#000000" stroke="none">
<path d="M315 320 c-16 -4 -52 -11 -79 -15 -55 -8 -51 -22 9 -27 l40 -3 3 -49
c2 -27 0 -52 -5 -57 -4 -4 -38 -14 -75 -21 -71 -13 -81 -21 -49 -38 32 -16 48
-13 189 42 138 54 159 71 54 44 -33 -9 -62 -16 -66 -16 -3 0 -4 25 -3 55 2 58
1 57 65 70 18 4 30 11 26 16 -6 11 -67 10 -109 -1z"/>
</g>
</svg>
