<?xml version="1.0" standalone="no"?>
<!DOCTYPE svg PUBLIC "-//W3C//DTD SVG 20010904//EN"
 "http://www.w3.org/TR/2001/REC-SVG-20010904/DTD/svg10.dtd">
<svg version="1.0" xmlns="http://www.w3.org/2000/svg"
 width="96.000000pt" height="68.000000pt" viewBox="0 0 96.000000 68.000000"
 preserveAspectRatio="xMidYMid meet">
<metadata>
Created by potrace 1.16, written by Peter Selinger 2001-2019
</metadata>
<g transform="translate(0.000000,68.000000) scale(0.100000,-0.100000)"
fill="#000000" stroke="none">
<path d="M430 624 c0 -3 5 -15 12 -27 11 -21 39 -139 34 -144 -2 -3 -260 -33
-278 -33 -5 0 -8 -5 -8 -12 0 -8 33 -9 123 -4 67 3 133 9 147 12 23 5 26 1 42
-60 46 -176 164 -316 267 -316 l40 0 -6 53 c-3 28 -9 63 -13 76 -5 22 -7 20
-20 -18 -11 -34 -18 -41 -38 -41 -33 0 -112 80 -145 147 -20 39 -57 147 -57
166 0 3 29 8 65 12 59 6 86 18 72 32 -8 8 -47 7 -99 -1 l-48 -8 0 80 c0 74 -2
80 -22 86 -29 7 -68 8 -68 0z"/>
</g>
</svg>
