<?xml version="1.0" standalone="no"?>
<!DOCTYPE svg PUBLIC "-//W3C//DTD SVG 20010904//EN"
 "http://www.w3.org/TR/2001/REC-SVG-20010904/DTD/svg10.dtd">
<svg version="1.0" xmlns="http://www.w3.org/2000/svg"
 width="90.000000pt" height="92.000000pt" viewBox="0 0 90.000000 92.000000"
 preserveAspectRatio="xMidYMid meet">
<metadata>
Created by potrace 1.16, written by Peter Selinger 2001-2019
</metadata>
<g transform="translate(0.000000,92.000000) scale(0.100000,-0.100000)"
fill="#000000" stroke="none">
<path d="M394 863 c3 -21 8 -64 11 -95 7 -67 14 -64 -136 -73 -105 -7 -106 -6
-112 16 -8 30 -14 22 -45 -48 -34 -81 -38 -109 -17 -117 24 -9 40 7 61 59 17
38 22 43 59 49 22 3 85 12 140 20 145 22 328 37 338 27 4 -4 -4 -22 -19 -40
-14 -18 -25 -34 -23 -36 2 -2 29 3 59 11 30 8 62 14 72 14 9 0 20 5 24 11 7
12 -50 76 -76 84 -9 3 -74 -4 -145 -15 -71 -11 -130 -18 -130 -17 -1 1 2 38 6
82 8 88 0 105 -49 105 -22 0 -23 -3 -18 -37z"/>
<path d="M549 827 c-19 -29 -37 -58 -42 -64 -10 -16 18 -6 93 32 51 26 52 27
34 47 -39 43 -49 41 -85 -15z"/>
<path d="M250 823 c0 -16 41 -74 56 -80 43 -16 42 55 -1 75 -29 14 -55 16 -55
5z"/>
<path d="M410 644 c-41 -8 -87 -12 -102 -9 -29 5 -48 -9 -24 -18 7 -3 19 -27
26 -54 17 -62 19 -64 60 -54 19 5 65 12 102 16 48 5 65 10 62 19 -3 7 7 28 22
46 l28 33 -23 18 c-27 22 -49 22 -151 3z m83 -22 c3 -4 3 -19 0 -34 -5 -24
-11 -27 -71 -36 -37 -5 -68 -9 -69 -8 0 0 -3 15 -5 31 -3 29 -1 30 52 42 68
14 88 15 93 5z"/>
<path d="M248 448 c2 -35 9 -68 14 -75 21 -27 81 -36 207 -31 127 6 188 19
176 39 -14 21 -48 25 -109 12 -63 -13 -203 -17 -230 -7 -33 13 -17 34 27 34
47 1 234 34 244 43 3 4 -6 11 -21 17 -21 8 -52 5 -126 -10 -54 -11 -108 -20
-119 -20 -19 0 -20 3 -10 21 13 24 -1 39 -37 39 -19 0 -20 -5 -16 -62z"/>
<path d="M415 299 c-71 -13 -108 -15 -129 -9 l-29 10 7 -46 c3 -26 6 -79 6
-118 0 -80 12 -111 33 -85 8 11 37 18 98 22 l85 7 17 -35 c30 -64 58 -27 82
111 8 43 17 91 21 106 5 22 1 29 -24 42 -36 19 -37 19 -167 -5z m113 -28 c8
-5 11 -17 7 -33 -6 -23 -12 -26 -83 -31 -42 -4 -92 -9 -109 -13 -32 -6 -33 -5
-33 24 0 34 -5 32 115 51 68 12 88 12 103 2z m2 -103 c0 -29 -13 -56 -24 -52
-6 2 -53 1 -104 -4 l-92 -8 0 27 c0 26 2 27 88 36 125 14 132 14 132 1z"/>
</g>
</svg>
