<?xml version="1.0" standalone="no"?>
<!DOCTYPE svg PUBLIC "-//W3C//DTD SVG 20010904//EN"
 "http://www.w3.org/TR/2001/REC-SVG-20010904/DTD/svg10.dtd">
<svg version="1.0" xmlns="http://www.w3.org/2000/svg"
 width="96.000000pt" height="68.000000pt" viewBox="0 0 96.000000 68.000000"
 preserveAspectRatio="xMidYMid meet">
<metadata>
Created by potrace 1.16, written by Peter Selinger 2001-2019
</metadata>
<g transform="translate(0.000000,68.000000) scale(0.100000,-0.100000)"
fill="#000000" stroke="none">
<path d="M605 514 c-55 -8 -161 -18 -235 -23 -114 -8 -137 -7 -151 5 -14 13
-19 9 -42 -36 -26 -51 -27 -80 -1 -80 12 0 45 42 56 71 4 9 448 50 460 43 5
-3 0 -17 -13 -30 -26 -27 -23 -28 54 -13 31 7 57 17 57 24 0 10 -71 57 -81 54
-2 -1 -49 -8 -104 -15z"/>
</g>
</svg>
