<?xml version="1.0" standalone="no"?>
<!DOCTYPE svg PUBLIC "-//W3C//DTD SVG 20010904//EN"
 "http://www.w3.org/TR/2001/REC-SVG-20010904/DTD/svg10.dtd">
<svg version="1.0" xmlns="http://www.w3.org/2000/svg"
 width="96.000000pt" height="68.000000pt" viewBox="0 0 96.000000 68.000000"
 preserveAspectRatio="xMidYMid meet">
<metadata>
Created by potrace 1.16, written by Peter Selinger 2001-2019
</metadata>
<g transform="translate(0.000000,68.000000) scale(0.100000,-0.100000)"
fill="#000000" stroke="none">
<path d="M557 179 c23 -39 39 -53 53 -44 20 12 10 45 -20 60 -44 23 -53 19
-33 -16z"/>
<path d="M206 148 c-25 -45 -27 -52 -13 -65 13 -13 17 -13 36 6 21 21 30 94
13 105 -4 2 -20 -18 -36 -46z"/>
<path d="M430 196 c0 -16 45 -76 54 -73 16 6 9 50 -11 65 -16 12 -43 17 -43 8z"/>
<path d="M320 180 c0 -21 35 -80 47 -80 21 0 15 47 -9 70 -24 22 -38 26 -38
10z"/>
</g>
</svg>
