<?xml version="1.0" standalone="no"?>
<!DOCTYPE svg PUBLIC "-//W3C//DTD SVG 20010904//EN"
 "http://www.w3.org/TR/2001/REC-SVG-20010904/DTD/svg10.dtd">
<svg version="1.0" xmlns="http://www.w3.org/2000/svg"
 width="90.000000pt" height="92.000000pt" viewBox="0 0 90.000000 92.000000"
 preserveAspectRatio="xMidYMid meet">
<metadata>
Created by potrace 1.16, written by Peter Selinger 2001-2019
</metadata>
<g transform="translate(0.000000,92.000000) scale(0.100000,-0.100000)"
fill="#000000" stroke="none">
<path d="M360 863 c0 -5 16 -28 36 -51 24 -29 31 -43 22 -46 -7 -3 -67 -10
-133 -17 -66 -6 -124 -16 -129 -20 -5 -4 3 -13 17 -20 21 -9 52 -8 149 4 68 9
170 19 228 22 58 3 125 8 150 11 l45 6 -28 24 c-31 27 -40 28 -118 15 -130
-22 -126 -22 -121 9 3 21 -2 32 -19 43 -29 19 -99 33 -99 20z"/>
<path d="M527 694 c-9 -10 -218 -41 -242 -36 -26 5 -35 -12 -11 -21 8 -3 21
-30 30 -61 17 -59 30 -74 49 -58 7 6 55 13 107 17 106 8 116 11 101 29 -8 10
-2 22 23 48 33 33 34 37 18 51 -20 18 -68 38 -75 31z m-11 -76 c-3 -17 -8 -33
-9 -34 -2 -2 -36 -9 -76 -16 -79 -13 -91 -8 -91 39 0 18 8 24 43 31 23 6 64
10 91 11 l49 1 -7 -32z"/>
<path d="M545 490 c-72 -10 -185 -21 -253 -25 -113 -7 -124 -6 -137 11 -11 16
-14 17 -19 4 -3 -8 -15 -42 -28 -75 -23 -62 -24 -95 -4 -107 17 -12 55 38 62
81 5 30 10 38 23 34 10 -2 80 5 157 17 139 21 364 38 364 27 0 -3 -10 -22 -21
-42 -12 -20 -20 -38 -18 -40 7 -6 138 30 150 42 8 8 -1 22 -31 52 -49 48 -46
47 -245 21z"/>
<path d="M390 363 c-91 -14 -167 -27 -170 -29 -15 -16 35 -24 106 -19 95 7 94
8 94 -105 0 -84 -7 -94 -59 -87 -47 6 -46 0 12 -67 30 -35 35 -38 56 -27 33
18 39 45 42 178 l3 121 44 6 c25 3 60 6 78 6 39 0 43 12 12 34 -26 19 -10 20
-218 -11z"/>
</g>
</svg>
