<?xml version="1.0" standalone="no"?>
<!DOCTYPE svg PUBLIC "-//W3C//DTD SVG 20010904//EN"
 "http://www.w3.org/TR/2001/REC-SVG-20010904/DTD/svg10.dtd">
<svg version="1.0" xmlns="http://www.w3.org/2000/svg"
 width="96.000000pt" height="68.000000pt" viewBox="0 0 96.000000 68.000000"
 preserveAspectRatio="xMidYMid meet">
<metadata>
Created by potrace 1.16, written by Peter Selinger 2001-2019
</metadata>
<g transform="translate(0.000000,68.000000) scale(0.100000,-0.100000)"
fill="#000000" stroke="none">
<path d="M237 568 c10 -44 6 -283 -8 -382 -11 -83 -1 -136 27 -136 27 0 34 41
34 210 l0 171 26 -20 c34 -27 54 -27 54 -1 0 13 -12 26 -36 38 -36 17 -36 17
-30 69 5 46 4 54 -16 67 -12 9 -31 16 -41 16 -16 0 -17 -5 -10 -32z"/>
<path d="M605 534 c-49 -7 -119 -13 -154 -13 -56 -1 -62 -3 -55 -18 19 -43 14
-204 -11 -348 -7 -40 8 -64 29 -46 12 10 16 33 16 92 l0 79 35 0 c31 0 35 -3
35 -25 0 -14 9 -34 21 -46 19 -19 30 -21 99 -17 75 3 101 10 87 24 -3 4 -44 7
-89 8 -83 1 -83 1 -79 26 4 33 12 37 97 45 78 7 92 25 21 25 -30 0 -48 6 -59
20 -22 24 -18 26 65 35 81 9 92 30 12 23 -58 -5 -58 -3 -17 40 14 16 16 42 3
42 -5 0 -16 3 -25 6 -12 5 -16 0 -16 -19 0 -42 -18 -76 -42 -81 -13 -3 -49 -7
-80 -10 l-58 -6 0 65 c0 36 3 65 8 66 4 0 66 6 137 13 72 7 136 11 143 8 9 -3
12 -53 12 -204 l0 -201 -40 7 -39 6 41 -39 c75 -70 86 -42 90 236 3 205 3 212
-17 217 -27 8 -64 5 -170 -10z m-41 -196 c20 -28 11 -33 -66 -42 l-58 -6 0 35
0 35 54 0 c45 0 58 -4 70 -22z"/>
<path d="M495 461 c-6 -10 32 -61 46 -61 5 0 9 11 9 23 0 24 -44 55 -55 38z"/>
<path d="M142 378 c-20 -42 -22 -56 -13 -75 15 -32 32 -26 55 21 14 29 16 45
10 69 -14 46 -26 42 -52 -15z"/>
</g>
</svg>
