<?xml version="1.0" standalone="no"?>
<!DOCTYPE svg PUBLIC "-//W3C//DTD SVG 20010904//EN"
 "http://www.w3.org/TR/2001/REC-SVG-20010904/DTD/svg10.dtd">
<svg version="1.0" xmlns="http://www.w3.org/2000/svg"
 width="96.000000pt" height="68.000000pt" viewBox="0 0 96.000000 68.000000"
 preserveAspectRatio="xMidYMid meet">
<metadata>
Created by potrace 1.16, written by Peter Selinger 2001-2019
</metadata>
<g transform="translate(0.000000,68.000000) scale(0.100000,-0.100000)"
fill="#000000" stroke="none">
<path d="M403 581 c-13 -40 -64 -138 -82 -158 -12 -12 -21 -27 -21 -33 0 -6
-25 -10 -61 -10 l-62 0 26 -26 c15 -15 29 -43 32 -63 3 -20 10 -52 15 -70 5
-19 8 -36 7 -37 -3 -3 -101 -12 -137 -13 -22 -1 -23 -2 -8 -17 14 -14 31 -15
164 -3 82 7 242 13 356 13 148 1 208 4 208 12 0 23 -58 37 -125 29 -47 -5 -65
-3 -65 5 0 7 16 48 35 93 19 44 35 84 35 88 0 4 -16 13 -37 20 -28 9 -62 9
-157 -1 -67 -7 -128 -16 -136 -20 -8 -4 -23 -4 -34 -1 -16 6 -8 18 57 86 69
72 75 81 61 96 -22 24 -64 30 -71 10z m220 -197 c16 -6 16 -7 -3 -94 -15 -70
-27 -85 -70 -93 -60 -11 -65 1 -36 83 15 40 24 81 21 91 -6 16 -1 19 34 19 21
0 46 -3 54 -6z m-143 -53 c0 -26 -3 -69 -6 -95 -6 -38 -10 -46 -28 -46 -19 0
-24 10 -39 82 -9 45 -22 85 -29 89 -14 9 13 16 65 18 l37 1 0 -49z m-125 6
c13 -45 32 -147 27 -152 -3 -3 -25 -5 -49 -5 -41 0 -43 2 -43 29 0 16 -7 48
-15 71 -23 65 -20 78 18 82 44 5 54 0 62 -25z"/>
</g>
</svg>
