<?xml version="1.0" standalone="no"?>
<!DOCTYPE svg PUBLIC "-//W3C//DTD SVG 20010904//EN"
 "http://www.w3.org/TR/2001/REC-SVG-20010904/DTD/svg10.dtd">
<svg version="1.0" xmlns="http://www.w3.org/2000/svg"
 width="96.000000pt" height="68.000000pt" viewBox="0 0 96.000000 68.000000"
 preserveAspectRatio="xMidYMid meet">
<metadata>
Created by potrace 1.16, written by Peter Selinger 2001-2019
</metadata>
<g transform="translate(0.000000,68.000000) scale(0.100000,-0.100000)"
fill="#000000" stroke="none">
<path d="M575 384 c-6 -2 -9 -19 -7 -38 4 -32 2 -33 -40 -42 l-43 -8 43 -4
c42 -3 42 -3 42 -43 0 -21 -3 -38 -7 -38 -5 1 -30 1 -57 0 -35 -1 -47 -4 -39
-12 7 -7 57 -8 152 -3 103 5 139 10 131 18 -6 6 -39 10 -76 9 l-64 -2 0 39 c0
39 1 40 38 40 42 0 71 13 53 25 -7 3 -30 4 -52 0 l-41 -7 4 33 c3 33 -10 45
-37 33z"/>
</g>
</svg>
