<?xml version="1.0" standalone="no"?>
<!DOCTYPE svg PUBLIC "-//W3C//DTD SVG 20010904//EN"
 "http://www.w3.org/TR/2001/REC-SVG-20010904/DTD/svg10.dtd">
<svg version="1.0" xmlns="http://www.w3.org/2000/svg"
 width="96.000000pt" height="68.000000pt" viewBox="0 0 96.000000 68.000000"
 preserveAspectRatio="xMidYMid meet">
<metadata>
Created by potrace 1.16, written by Peter Selinger 2001-2019
</metadata>
<g transform="translate(0.000000,68.000000) scale(0.100000,-0.100000)"
fill="#000000" stroke="none">
<path d="M416 551 c-103 -10 -171 -20 -173 -27 -5 -15 30 -24 95 -24 28 0 52
-4 52 -10 0 -24 -34 -91 -51 -100 -10 -6 -54 -10 -98 -10 -45 0 -81 -3 -81 -8
0 -4 7 -17 15 -29 8 -11 22 -63 30 -114 9 -52 20 -105 26 -118 9 -21 11 -22
22 -8 10 13 47 18 185 26 96 5 180 7 187 5 7 -3 18 -16 25 -30 18 -32 44 -30
69 5 17 23 43 132 64 261 1 9 -13 22 -34 33 -38 18 -29 18 -294 -9 l-59 -7 17
24 c46 63 56 83 45 90 -6 4 18 10 53 13 157 16 169 19 169 31 0 14 -33 25 -70
23 -14 0 -101 -8 -194 -17z m92 -215 c3 -20 -1 -26 -15 -26 -10 0 -35 -3 -55
-6 -38 -7 -38 -7 -38 29 0 33 3 36 33 39 49 5 72 -6 75 -36z m198 -18 c-3 -35
-10 -83 -14 -108 l-7 -45 -65 4 c-36 2 -67 5 -68 6 -2 2 -1 49 3 104 l8 101
75 0 75 0 -7 -62z m-346 -25 c0 -38 3 -85 6 -105 l7 -38 -60 0 c-57 0 -59 1
-61 28 -1 15 -7 51 -12 81 -19 102 -19 101 55 101 l65 0 0 -67z m150 -36 c0
-19 -6 -23 -32 -25 -18 -2 -42 -4 -53 -5 -15 -1 -21 5 -23 26 -3 27 -2 27 52
27 52 0 56 -2 56 -23z m0 -72 c0 -22 -4 -25 -40 -26 -22 -1 -46 -2 -52 -3 -16
-1 -24 34 -10 43 6 3 31 7 56 9 43 3 46 1 46 -23z"/>
</g>
</svg>
