<?xml version="1.0" standalone="no"?>
<!DOCTYPE svg PUBLIC "-//W3C//DTD SVG 20010904//EN"
 "http://www.w3.org/TR/2001/REC-SVG-20010904/DTD/svg10.dtd">
<svg version="1.0" xmlns="http://www.w3.org/2000/svg"
 width="96.000000pt" height="68.000000pt" viewBox="0 0 96.000000 68.000000"
 preserveAspectRatio="xMidYMid meet">
<metadata>
Created by potrace 1.16, written by Peter Selinger 2001-2019
</metadata>
<g transform="translate(0.000000,68.000000) scale(0.100000,-0.100000)"
fill="#000000" stroke="none">
<path d="M490 593 c0 -3 12 -21 26 -40 14 -19 24 -36 23 -37 -9 -7 -220 -26
-229 -21 -17 10 -21 -15 -6 -37 43 -61 -10 -267 -97 -380 -53 -68 -26 -69 42
-1 66 66 93 131 121 287 19 107 6 100 219 116 221 16 246 23 182 49 -21 9 -48
10 -105 2 -43 -6 -80 -11 -83 -11 -3 0 -2 11 1 25 5 20 1 27 -23 40 -31 15
-71 20 -71 8z"/>
<path d="M730 449 c0 -5 -24 -9 -53 -9 l-54 0 4 -57 c6 -85 5 -84 69 -81 l56
3 -2 -109 c0 -61 -3 -113 -6 -117 -2 -4 -13 -5 -24 -2 -27 7 -25 -9 3 -35 28
-26 40 -27 58 -5 10 12 15 66 19 207 3 105 5 193 4 194 -6 9 -74 19 -74 11z
m20 -38 c0 -13 -9 -21 -30 -26 -33 -7 -50 -1 -50 20 0 12 15 17 68 24 6 0 12
-8 12 -18z m4 -49 c9 -15 -9 -29 -42 -34 -35 -5 -47 4 -38 27 6 16 71 21 80 7z"/>
<path d="M470 420 c-25 -4 -51 -5 -57 -3 -16 6 -17 -23 -2 -33 13 -8 4 -219
-11 -260 -12 -31 -5 -60 15 -68 16 -6 21 16 30 136 l7 87 36 7 c21 3 41 7 46
8 5 1 16 28 26 59 17 55 17 58 0 67 -20 11 -24 11 -90 0z m53 -30 c3 -11 2
-20 -3 -20 -4 0 -22 -3 -39 -6 -24 -5 -31 -3 -31 9 0 35 64 50 73 17z m-3 -60
c0 -11 -6 -20 -12 -20 -7 0 -23 -3 -35 -6 -18 -5 -23 -2 -23 14 0 20 15 28 53
31 11 1 17 -6 17 -19z"/>
<path d="M160 401 c0 -23 66 -85 83 -78 22 8 22 40 -1 60 -23 21 -82 34 -82
18z"/>
<path d="M240 285 c-26 -14 -81 -38 -112 -49 -24 -7 -12 -35 18 -42 19 -5 34
3 67 32 63 56 77 87 27 59z"/>
<path d="M568 263 l-38 -4 0 -48 c0 -26 -5 -62 -11 -80 -14 -40 -5 -69 15 -51
8 6 18 25 21 41 6 25 11 29 41 29 30 0 34 -3 34 -26 0 -19 -4 -25 -15 -20 -23
8 -18 -8 9 -33 23 -22 25 -22 34 -4 5 10 11 58 13 108 l4 90 -35 1 c-19 1 -52
-1 -72 -3z m69 -29 c4 -12 -65 -30 -74 -20 -3 3 0 13 7 21 15 18 61 17 67 -1z
m-7 -48 c0 -14 -36 -26 -58 -18 -20 6 -14 20 11 25 41 8 47 7 47 -7z"/>
</g>
</svg>
