<?xml version="1.0" standalone="no"?>
<!DOCTYPE svg PUBLIC "-//W3C//DTD SVG 20010904//EN"
 "http://www.w3.org/TR/2001/REC-SVG-20010904/DTD/svg10.dtd">
<svg version="1.0" xmlns="http://www.w3.org/2000/svg"
 width="90.000000pt" height="92.000000pt" viewBox="0 0 90.000000 92.000000"
 preserveAspectRatio="xMidYMid meet">
<metadata>
Created by potrace 1.16, written by Peter Selinger 2001-2019
</metadata>
<g transform="translate(0.000000,92.000000) scale(0.100000,-0.100000)"
fill="#000000" stroke="none">
<path d="M471 864 c0 -63 -8 -74 -59 -74 -46 0 -36 -24 11 -28 39 -3 44 -13
27 -56 -7 -21 -16 -26 -42 -26 -49 0 -108 -11 -108 -20 0 -20 58 -26 139 -13
47 7 144 16 214 19 70 4 130 11 133 15 2 5 -7 16 -21 25 -19 13 -38 15 -75 11
l-50 -6 15 29 c8 16 19 32 25 35 21 13 10 43 -21 55 -26 11 -39 11 -82 -3 -28
-9 -53 -14 -55 -12 -3 2 1 19 8 36 13 29 12 33 -9 50 -40 32 -50 25 -50 -37z
m131 -114 c-3 -44 -7 -46 -64 -54 -41 -5 -48 -3 -48 12 0 33 25 67 55 73 52
12 60 7 57 -31z"/>
<path d="M95 770 c-5 -8 64 -102 84 -114 5 -3 16 -3 25 0 20 8 21 67 1 84 -21
17 -104 40 -110 30z"/>
<path d="M555 614 c-33 -8 -86 -15 -118 -16 -46 -3 -56 -6 -51 -18 4 -8 12
-37 18 -65 13 -52 13 -53 73 -40 29 7 33 5 39 -19 3 -15 4 -29 1 -32 -3 -4
-33 -9 -66 -13 -33 -4 -62 -9 -64 -12 -2 -2 -9 -28 -16 -57 -16 -66 -6 -84 42
-72 18 5 48 11 68 14 l36 6 -1 -63 -1 -64 -40 9 c-22 5 -91 25 -152 44 -101
33 -112 38 -103 54 18 34 11 71 -20 102 -34 34 -34 33 28 100 37 39 36 50 -8
73 -26 14 -32 13 -62 -4 -18 -11 -52 -25 -75 -32 -24 -7 -43 -16 -43 -20 0
-15 47 -21 83 -11 20 6 38 8 40 5 3 -2 -2 -22 -10 -43 -15 -37 -14 -40 7 -70
13 -18 25 -51 27 -74 l5 -43 -47 -6 c-26 -4 -65 -7 -86 -7 -44 0 -48 -9 -19
-35 19 -17 26 -18 66 -7 24 7 63 12 85 12 40 0 172 -48 344 -124 86 -38 113
-42 166 -25 85 27 169 61 169 68 0 5 -62 11 -137 15 -75 4 -149 10 -164 13
-25 5 -27 8 -18 30 5 13 9 42 9 64 l0 39 83 0 c95 0 123 11 92 36 -16 13 -35
14 -97 9 l-78 -6 0 30 c0 28 2 30 53 36 30 4 60 11 68 16 25 16 -12 30 -63 24
-38 -4 -48 -3 -48 9 0 8 -3 21 -6 30 -5 13 2 16 36 16 32 0 41 3 37 14 -3 7 8
30 24 50 l30 36 -33 20 c-18 11 -35 19 -38 19 -3 -1 -32 -8 -65 -15z m51 -40
c-3 -9 -6 -24 -6 -34 0 -14 -11 -19 -51 -24 -29 -4 -65 -10 -80 -13 -28 -5
-29 -4 -29 30 0 35 1 36 48 42 26 4 52 8 57 10 6 2 23 4 39 4 22 1 27 -3 22
-15z m-86 -224 c0 -23 -5 -30 -19 -30 -10 0 -33 -3 -50 -6 -27 -6 -31 -4 -31
14 0 42 10 52 56 52 42 0 44 -1 44 -30z"/>
</g>
</svg>
