<?xml version="1.0" standalone="no"?>
<!DOCTYPE svg PUBLIC "-//W3C//DTD SVG 20010904//EN"
 "http://www.w3.org/TR/2001/REC-SVG-20010904/DTD/svg10.dtd">
<svg version="1.0" xmlns="http://www.w3.org/2000/svg"
 width="96.000000pt" height="68.000000pt" viewBox="0 0 96.000000 68.000000"
 preserveAspectRatio="xMidYMid meet">
<metadata>
Created by potrace 1.16, written by Peter Selinger 2001-2019
</metadata>
<g transform="translate(0.000000,68.000000) scale(0.100000,-0.100000)"
fill="#000000" stroke="none">
<path d="M565 573 c-33 -7 -86 -12 -117 -9 -32 2 -58 3 -58 1 0 -2 7 -39 15
-82 8 -43 15 -82 15 -87 0 -5 -20 -6 -44 -4 l-44 5 -13 -46 c-14 -51 -14 -56
3 -56 6 0 17 16 23 35 l12 35 114 12 c250 27 249 27 249 11 0 -7 -6 -20 -12
-27 -11 -11 -3 -12 42 -6 64 8 64 8 56 32 -9 28 -52 43 -107 36 l-50 -6 7 29
c4 16 13 48 21 72 11 34 12 47 2 58 -14 17 -33 16 -114 -3z m59 -30 c10 -24
-5 -34 -66 -40 l-55 -5 5 -49 c5 -49 4 -49 -26 -49 -29 0 -30 1 -37 66 -4 36
-5 67 -3 69 3 2 125 21 159 24 9 0 20 -7 23 -16z m-7 -89 c-7 -43 -4 -40 -44
-49 -33 -7 -33 -6 -33 34 0 33 4 40 23 44 57 11 60 9 54 -29z"/>
<path d="M190 546 c0 -22 49 -56 81 -56 44 0 40 37 -6 56 -44 18 -75 18 -75 0z"/>
<path d="M120 421 c0 -16 72 -72 88 -69 10 2 18 13 20 26 3 18 -4 26 -32 37
-40 17 -76 20 -76 6z"/>
<path d="M535 330 c-16 -4 -54 -8 -83 -9 l-54 -1 7 -41 c4 -22 1 -76 -6 -119
-9 -58 -10 -85 -2 -102 11 -22 11 -22 27 14 9 21 16 46 16 57 0 16 9 21 48 26
26 3 64 9 85 12 l38 5 -3 -44 c-3 -42 -4 -43 -35 -42 -18 1 -33 0 -33 -3 0 -6
63 -63 70 -63 34 1 48 55 51 197 2 82 0 106 -12 114 -16 10 -71 10 -114 -1z
m75 -46 c0 -13 -3 -23 -7 -22 -9 2 -95 -10 -130 -19 -19 -4 -23 -1 -23 20 0
33 11 39 84 47 72 7 76 6 76 -26z m0 -68 c0 -22 -6 -25 -52 -31 -29 -3 -65 -8
-80 -11 -26 -5 -28 -3 -28 25 0 33 -11 30 133 39 22 2 27 -2 27 -22z"/>
<path d="M207 252 c-20 -31 -47 -68 -60 -80 -22 -20 -24 -28 -16 -55 10 -34
38 -62 50 -50 7 8 79 223 79 236 0 22 -23 0 -53 -51z"/>
</g>
</svg>
