<?xml version="1.0" standalone="no"?>
<!DOCTYPE svg PUBLIC "-//W3C//DTD SVG 20010904//EN"
 "http://www.w3.org/TR/2001/REC-SVG-20010904/DTD/svg10.dtd">
<svg version="1.0" xmlns="http://www.w3.org/2000/svg"
 width="90.000000pt" height="92.000000pt" viewBox="0 0 90.000000 92.000000"
 preserveAspectRatio="xMidYMid meet">
<metadata>
Created by potrace 1.16, written by Peter Selinger 2001-2019
</metadata>
<g transform="translate(0.000000,92.000000) scale(0.100000,-0.100000)"
fill="#000000" stroke="none">
<path d="M221 783 c-17 -82 -74 -179 -174 -295 -27 -32 -46 -58 -42 -58 15 0
94 61 128 99 30 33 39 38 44 25 9 -25 -4 -293 -18 -351 -11 -46 -10 -57 6 -93
10 -22 22 -40 26 -40 16 0 29 113 32 298 4 172 2 196 -13 215 -17 20 -17 23 5
57 12 19 36 60 54 90 l33 54 -27 23 c-14 13 -30 23 -35 23 -4 0 -13 -21 -19
-47z"/>
<path d="M450 812 c0 -5 18 -35 41 -67 22 -31 39 -58 37 -60 -2 -1 -57 -10
-123 -20 -66 -10 -124 -21 -129 -26 -5 -4 3 -13 18 -20 23 -11 45 -10 126 4
54 9 156 22 227 28 157 14 159 14 142 35 -30 36 -60 37 -196 8 -17 -3 -21 -1
-17 11 13 32 -16 73 -66 94 -54 23 -60 25 -60 13z"/>
<path d="M505 548 c-118 -24 -124 -26 -105 -38 25 -16 126 -9 248 16 41 8 23
27 -38 38 -8 2 -55 -5 -105 -16z"/>
<path d="M492 432 c-91 -17 -114 -31 -69 -43 23 -6 245 16 255 26 11 11 -17
27 -54 30 -22 2 -81 -4 -132 -13z"/>
<path d="M530 301 c-68 -12 -113 -15 -128 -10 -33 13 -44 2 -28 -24 8 -12 19
-53 25 -91 11 -73 25 -101 40 -77 6 9 48 17 129 24 110 9 119 12 110 27 -9 14
-5 27 20 64 37 55 38 58 14 79 -28 26 -68 27 -182 8z m98 -44 c2 -11 1 -34 -2
-52 -6 -32 -8 -33 -82 -44 -109 -16 -104 -18 -104 39 0 55 -5 51 90 69 65 13
94 9 98 -12z"/>
</g>
</svg>
