<?xml version="1.0" standalone="no"?>
<!DOCTYPE svg PUBLIC "-//W3C//DTD SVG 20010904//EN"
 "http://www.w3.org/TR/2001/REC-SVG-20010904/DTD/svg10.dtd">
<svg version="1.0" xmlns="http://www.w3.org/2000/svg"
 width="96.000000pt" height="68.000000pt" viewBox="0 0 96.000000 68.000000"
 preserveAspectRatio="xMidYMid meet">
<metadata>
Created by potrace 1.16, written by Peter Selinger 2001-2019
</metadata>
<g transform="translate(0.000000,68.000000) scale(0.100000,-0.100000)"
fill="#000000" stroke="none">
<path d="M695 280 l-40 -7 38 -2 c41 -1 41 0 41 -92 1 -32 -2 -55 -5 -53 -4 2
-9 -5 -12 -16 -4 -17 -9 -19 -31 -10 -26 9 -26 9 -10 -14 21 -34 45 -41 51
-16 3 11 9 17 14 14 5 -3 9 -2 10 3 0 4 3 17 5 28 3 11 6 41 8 66 1 25 6 51
10 58 11 17 -12 41 -31 34 -11 -4 -14 -2 -9 5 4 7 6 11 4 11 -2 -1 -21 -5 -43
-9z"/>
<path d="M410 269 c0 -5 4 -8 9 -5 4 3 8 -13 8 -36 0 -23 5 -44 11 -46 6 -2 9
-9 6 -15 -10 -29 -11 -78 0 -74 16 5 20 97 4 97 -9 0 -9 3 0 12 7 7 12 20 12
29 0 10 6 20 13 22 6 3 2 6 -10 6 -12 1 -25 6 -28 11 -8 13 -25 13 -25 -1z"/>
<path d="M604 268 c-3 -4 4 -8 15 -8 11 0 22 4 26 9 3 6 -4 9 -16 8 -11 -1
-23 -5 -25 -9z"/>
</g>
</svg>
