<?xml version="1.0" standalone="no"?>
<!DOCTYPE svg PUBLIC "-//W3C//DTD SVG 20010904//EN"
 "http://www.w3.org/TR/2001/REC-SVG-20010904/DTD/svg10.dtd">
<svg version="1.0" xmlns="http://www.w3.org/2000/svg"
 width="90.000000pt" height="92.000000pt" viewBox="0 0 90.000000 92.000000"
 preserveAspectRatio="xMidYMid meet">
<metadata>
Created by potrace 1.16, written by Peter Selinger 2001-2019
</metadata>
<g transform="translate(0.000000,92.000000) scale(0.100000,-0.100000)"
fill="#000000" stroke="none">
<path d="M90 790 c0 -18 72 -90 90 -90 21 0 34 29 24 53 -10 27 -114 61 -114
37z"/>
<path d="M625 774 c-75 -21 -267 -43 -292 -33 -30 11 -34 0 -21 -47 12 -44 5
-250 -10 -300 -10 -32 7 -94 26 -94 19 0 24 38 29 213 5 152 8 179 23 187 19
10 224 40 275 40 46 0 47 -9 43 -218 -3 -191 -9 -208 -59 -190 -17 6 -32 9
-33 7 -2 -2 16 -26 39 -53 50 -56 68 -56 91 0 12 29 15 72 12 213 -1 97 1 194
5 216 7 37 6 41 -22 58 -34 20 -39 20 -106 1z"/>
<path d="M510 604 c-25 -7 -58 -13 -73 -13 -27 -1 -28 -2 -13 -23 9 -12 16
-34 16 -48 0 -47 20 -102 33 -92 7 6 38 13 70 17 43 6 57 11 53 21 -3 8 5 41
17 74 18 53 19 62 7 70 -19 12 -54 11 -110 -6z m56 -66 c-9 -53 -15 -59 -57
-61 -34 -2 -34 -1 -37 45 -3 50 0 53 72 57 28 1 28 0 22 -41z"/>
<path d="M100 575 c-30 -13 -63 -24 -72 -25 -10 0 -18 -4 -18 -9 0 -15 43 -20
88 -10 25 5 46 8 48 6 2 -2 -3 -24 -12 -50 -15 -45 -15 -47 6 -69 26 -27 50
-79 50 -107 0 -24 -19 -30 -110 -33 l-65 -3 27 -28 c21 -21 32 -26 45 -18 10
5 38 12 63 16 55 8 121 -12 309 -90 180 -74 179 -74 310 -30 61 20 111 40 111
44 0 4 -82 12 -182 19 -180 11 -258 26 -429 79 l-56 17 5 47 c4 42 1 49 -33
82 l-37 36 20 28 c11 15 29 37 41 47 26 23 27 44 4 62 -25 19 -49 16 -113 -11z"/>
</g>
</svg>
