<?xml version="1.0" standalone="no"?>
<!DOCTYPE svg PUBLIC "-//W3C//DTD SVG 20010904//EN"
 "http://www.w3.org/TR/2001/REC-SVG-20010904/DTD/svg10.dtd">
<svg version="1.0" xmlns="http://www.w3.org/2000/svg"
 width="96.000000pt" height="68.000000pt" viewBox="0 0 96.000000 68.000000"
 preserveAspectRatio="xMidYMid meet">
<metadata>
Created by potrace 1.16, written by Peter Selinger 2001-2019
</metadata>
<g transform="translate(0.000000,68.000000) scale(0.100000,-0.100000)"
fill="#000000" stroke="none">
<path d="M595 544 c-38 -7 -108 -15 -155 -16 l-85 -3 -1 -110 c-1 -60 -3 -127
-5 -148 -3 -41 16 -72 30 -48 5 7 12 74 16 147 l7 133 32 5 c205 33 242 34
250 4 8 -31 8 -207 0 -248 -7 -30 -8 -31 -43 -25 l-36 7 34 -36 c71 -74 88
-42 93 172 4 202 10 194 -137 166z"/>
</g>
</svg>
