<?xml version="1.0" standalone="no"?>
<!DOCTYPE svg PUBLIC "-//W3C//DTD SVG 20010904//EN"
 "http://www.w3.org/TR/2001/REC-SVG-20010904/DTD/svg10.dtd">
<svg version="1.0" xmlns="http://www.w3.org/2000/svg"
 width="96.000000pt" height="68.000000pt" viewBox="0 0 96.000000 68.000000"
 preserveAspectRatio="xMidYMid meet">
<metadata>
Created by potrace 1.16, written by Peter Selinger 2001-2019
</metadata>
<g transform="translate(0.000000,68.000000) scale(0.100000,-0.100000)"
fill="#000000" stroke="none">
<path d="M631 619 c-18 -4 -107 -15 -197 -25 -154 -16 -185 -24 -149 -38 11
-4 15 -21 15 -64 0 -117 -57 -258 -146 -360 -55 -62 -45 -67 26 -11 89 70 139
171 169 339 l17 95 110 12 c60 6 140 14 177 18 43 4 67 11 64 18 -5 16 -47 24
-86 16z"/>
</g>
</svg>
