<?xml version="1.0" standalone="no"?>
<!DOCTYPE svg PUBLIC "-//W3C//DTD SVG 20010904//EN"
 "http://www.w3.org/TR/2001/REC-SVG-20010904/DTD/svg10.dtd">
<svg version="1.0" xmlns="http://www.w3.org/2000/svg"
 width="96.000000pt" height="68.000000pt" viewBox="0 0 96.000000 68.000000"
 preserveAspectRatio="xMidYMid meet">
<metadata>
Created by potrace 1.16, written by Peter Selinger 2001-2019
</metadata>
<g transform="translate(0.000000,68.000000) scale(0.100000,-0.100000)"
fill="#000000" stroke="none">
<path d="M495 558 c5 -13 10 -62 12 -110 l4 -87 -38 -6 c-95 -16 -98 -17 -79
-27 10 -6 38 -7 62 -3 43 6 44 6 44 -22 -1 -44 -33 -104 -80 -151 -45 -43 -41
-53 11 -27 35 19 85 85 94 126 4 16 10 29 13 29 4 0 19 -19 34 -43 15 -23 49
-66 76 -94 48 -53 48 -53 110 -53 33 0 63 4 66 8 3 5 -29 24 -71 42 -56 25
-94 51 -146 101 -38 36 -67 73 -65 80 6 18 41 27 108 28 71 2 92 14 52 30 -20
9 -40 9 -73 2 -86 -20 -83 -23 -75 84 6 87 5 95 -13 105 -35 18 -54 13 -46
-12z"/>
</g>
</svg>
