<?xml version="1.0" standalone="no"?>
<!DOCTYPE svg PUBLIC "-//W3C//DTD SVG 20010904//EN"
 "http://www.w3.org/TR/2001/REC-SVG-20010904/DTD/svg10.dtd">
<svg version="1.0" xmlns="http://www.w3.org/2000/svg"
 width="90.000000pt" height="92.000000pt" viewBox="0 0 90.000000 92.000000"
 preserveAspectRatio="xMidYMid meet">
<metadata>
Created by potrace 1.16, written by Peter Selinger 2001-2019
</metadata>
<g transform="translate(0.000000,92.000000) scale(0.100000,-0.100000)"
fill="#000000" stroke="none">
<path d="M510 839 c0 -47 -22 -111 -40 -116 -13 -3 -15 -24 -13 -128 1 -69 4
-129 8 -134 4 -7 15 -7 31 -1 35 14 71 12 77 -2 3 -10 7 -10 17 -1 8 7 13 53
14 137 2 119 1 126 -18 133 -24 8 -23 8 -54 -2 -23 -7 -22 -5 9 50 30 54 31
57 14 75 -27 30 -45 25 -45 -11z m48 -175 c3 -38 1 -41 -33 -51 l-35 -11 0 43
c0 31 5 47 18 54 31 19 47 8 50 -35z m2 -112 c0 -35 -3 -40 -35 -49 l-35 -11
0 43 c0 37 3 44 23 48 45 9 47 8 47 -31z"/>
<path d="M697 804 c-4 -4 -7 -15 -7 -25 0 -26 -39 -111 -62 -136 -16 -17 -18
-25 -9 -42 14 -25 10 -25 55 -6 20 8 36 12 36 9 0 -3 -21 -36 -46 -72 -41 -58
-44 -67 -30 -80 13 -14 21 -12 75 17 59 31 60 31 71 11 13 -24 26 -26 34 -5 9
26 -11 63 -45 81 -31 15 -32 15 -25 -2 13 -33 12 -36 -21 -50 -18 -8 -33 -10
-33 -6 0 5 23 39 50 75 28 36 50 72 50 78 0 7 -8 21 -17 31 -17 19 -18 19 -29
-14 -8 -25 -18 -34 -42 -39 -17 -3 -33 -4 -36 -2 -2 2 14 36 37 75 30 53 38
75 30 86 -11 19 -27 25 -36 16z"/>
<path d="M350 738 c-7 -24 -26 -69 -43 -101 -36 -68 -29 -87 24 -68 18 6 34 9
37 6 6 -6 -43 -88 -61 -104 -12 -9 -21 -9 -41 1 -20 9 -35 9 -59 1 -18 -6 -47
-14 -65 -18 l-34 -7 16 31 c27 51 67 171 61 180 -3 5 20 17 51 26 50 14 55 18
42 31 -20 20 -40 20 -132 -5 -44 -12 -87 -21 -98 -21 -10 0 -18 -4 -18 -9 0
-13 26 -21 67 -21 l36 0 -6 -44 c-9 -65 -43 -148 -89 -216 -22 -34 -38 -63
-36 -66 3 -2 23 14 46 36 22 22 43 37 46 32 2 -4 8 -32 12 -60 4 -29 9 -54 13
-56 3 -2 35 1 71 6 l65 10 1 36 c1 54 21 97 38 83 9 -8 26 -5 65 11 49 21 53
22 62 5 16 -27 29 -20 29 16 0 32 -14 52 -49 72 -11 6 -13 2 -8 -22 5 -26 2
-32 -20 -42 -14 -6 -28 -9 -31 -7 -3 3 18 41 47 84 28 43 51 83 51 90 0 6 -9
16 -20 22 -21 11 -20 12 -34 -34 -4 -12 -56 -29 -65 -21 -1 2 15 37 38 78 23
41 41 77 41 80 0 4 -9 11 -20 17 -17 9 -20 6 -30 -32z m-130 -342 c0 -50 -19
-76 -55 -76 -27 0 -35 17 -35 70 0 40 6 45 68 49 20 1 22 -4 22 -43z"/>
<path d="M495 406 c8 -41 5 -43 -119 -52 -53 -4 -99 -10 -101 -14 -3 -4 7 -15
21 -25 23 -15 34 -15 93 -6 36 7 77 14 91 16 l25 4 -5 -117 c-4 -88 -2 -124 8
-146 13 -26 15 -27 30 -12 14 14 16 36 14 145 l-3 128 38 6 c21 4 86 7 146 7
111 0 126 7 82 36 -20 13 -40 15 -112 9 -48 -3 -100 -9 -115 -11 -25 -5 -28
-3 -28 24 0 30 -14 42 -51 42 -17 0 -19 -5 -14 -34z"/>
<path d="M361 242 c-6 -15 -33 -51 -60 -80 -26 -28 -44 -52 -39 -52 22 0 87
42 126 83 40 41 42 45 27 61 -24 23 -41 20 -54 -12z"/>
<path d="M641 253 c118 -142 133 -155 141 -115 10 43 -18 79 -87 112 -53 26
-74 27 -54 3z"/>
</g>
</svg>
