<?xml version="1.0" standalone="no"?>
<!DOCTYPE svg PUBLIC "-//W3C//DTD SVG 20010904//EN"
 "http://www.w3.org/TR/2001/REC-SVG-20010904/DTD/svg10.dtd">
<svg version="1.0" xmlns="http://www.w3.org/2000/svg"
 width="96.000000pt" height="68.000000pt" viewBox="0 0 96.000000 68.000000"
 preserveAspectRatio="xMidYMid meet">
<metadata>
Created by potrace 1.16, written by Peter Selinger 2001-2019
</metadata>
<g transform="translate(0.000000,68.000000) scale(0.100000,-0.100000)"
fill="#000000" stroke="none">
<path d="M367 295 c-33 -7 -65 -19 -72 -26 -20 -22 -27 -143 -9 -165 11 -14
17 -15 20 -6 7 16 135 17 152 0 20 -20 27 0 33 95 7 124 0 129 -124 102z m71
-17 c7 -7 12 -22 12 -35 0 -19 -5 -23 -27 -22 -16 1 -45 -2 -65 -6 -37 -7 -38
-7 -38 23 0 28 4 32 38 37 20 4 42 8 47 10 17 6 21 5 33 -7z m12 -113 l0 -35
-64 0 c-68 0 -81 8 -71 39 6 20 28 26 103 29 30 2 32 0 32 -33z"/>
</g>
</svg>
