<?xml version="1.0" standalone="no"?>
<!DOCTYPE svg PUBLIC "-//W3C//DTD SVG 20010904//EN"
 "http://www.w3.org/TR/2001/REC-SVG-20010904/DTD/svg10.dtd">
<svg version="1.0" xmlns="http://www.w3.org/2000/svg"
 width="90.000000pt" height="92.000000pt" viewBox="0 0 90.000000 92.000000"
 preserveAspectRatio="xMidYMid meet">
<metadata>
Created by potrace 1.16, written by Peter Selinger 2001-2019
</metadata>
<g transform="translate(0.000000,92.000000) scale(0.100000,-0.100000)"
fill="#000000" stroke="none">
<path d="M216 820 c-3 -17 -15 -52 -26 -78 -20 -45 -23 -48 -52 -44 -28 4 -30
3 -22 -14 5 -11 10 -67 12 -125 l3 -107 -46 -6 c-25 -4 -54 -4 -65 -1 -29 9
-26 -19 6 -44 23 -18 28 -19 66 -5 l40 14 -6 -48 c-11 -78 -33 -144 -65 -195
-17 -26 -27 -47 -23 -47 14 0 73 62 89 94 21 41 43 123 43 163 0 37 5 41 71
58 l49 13 0 -123 c0 -137 -7 -153 -54 -135 -15 5 -30 10 -32 10 -3 0 14 -23
37 -50 23 -28 48 -50 55 -50 32 0 44 55 44 209 l0 149 33 13 32 13 -34 4 -33
3 5 77 c3 42 7 85 9 96 2 11 -8 26 -25 39 -26 20 -28 20 -75 4 -26 -9 -51 -17
-55 -17 -5 0 14 26 42 59 28 32 51 64 51 70 0 12 -32 31 -53 31 -8 0 -17 -13
-21 -30z m76 -245 l3 -95 -27 -5 c-16 -3 -41 -8 -58 -11 l-30 -6 0 84 c0 106
12 123 87 127 21 1 22 -4 25 -94z"/>
<path d="M200 580 c0 -20 40 -70 56 -70 17 0 19 44 2 58 -22 17 -58 24 -58 12z"/>
<path d="M658 755 c-4 -4 -241 -55 -256 -55 -3 0 3 -9 13 -20 35 -39 12 -304
-40 -464 -13 -39 -22 -72 -20 -74 1 -1 16 19 33 45 30 46 63 152 77 241 9 55
19 47 81 -60 l46 -80 -30 -37 c-16 -20 -53 -52 -81 -71 -42 -28 -48 -36 -33
-38 26 -4 91 29 136 68 l35 31 31 -46 c42 -61 70 -79 112 -70 105 21 133 37
91 51 -51 17 -142 64 -170 88 l-31 26 24 60 c13 33 35 88 49 121 13 34 22 66
19 71 -14 22 -56 28 -104 14 -26 -8 -73 -17 -104 -21 -63 -8 -63 -9 -50 87 6
45 7 45 58 57 28 7 86 15 129 18 43 3 80 9 82 14 13 21 -78 63 -97 44z m1
-262 c-1 -42 -33 -146 -45 -150 -10 -3 -104 130 -104 147 0 7 86 26 128 29 18
1 22 -4 21 -26z"/>
<path d="M213 338 c29 -49 51 -55 55 -16 3 29 -27 58 -61 58 -18 0 -17 -3 6
-42z"/>
</g>
</svg>
