<?xml version="1.0" standalone="no"?>
<!DOCTYPE svg PUBLIC "-//W3C//DTD SVG 20010904//EN"
 "http://www.w3.org/TR/2001/REC-SVG-20010904/DTD/svg10.dtd">
<svg version="1.0" xmlns="http://www.w3.org/2000/svg"
 width="96.000000pt" height="68.000000pt" viewBox="0 0 96.000000 68.000000"
 preserveAspectRatio="xMidYMid meet">
<metadata>
Created by potrace 1.16, written by Peter Selinger 2001-2019
</metadata>
<g transform="translate(0.000000,68.000000) scale(0.100000,-0.100000)"
fill="#000000" stroke="none">
<path d="M246 562 c-6 -42 -52 -109 -124 -184 -25 -26 -43 -50 -40 -54 4 -3
26 6 51 20 50 30 102 34 111 10 13 -35 6 -43 -44 -50 -69 -9 -73 -24 -7 -24
l55 0 5 -58 c2 -31 3 -59 1 -61 -2 -2 -35 -6 -74 -9 -58 -4 -70 -8 -68 -21 2
-8 14 -22 28 -29 24 -14 35 -11 148 33 143 57 164 87 34 49 -22 -6 -23 -5 -20
47 3 51 4 54 37 63 24 7 39 6 53 -3 14 -9 42 -10 94 -6 l74 7 0 -31 c0 -29 -2
-31 -37 -32 -21 -1 -49 -5 -63 -9 -19 -6 -9 -8 38 -9 l63 -1 -3 -67 -3 -68
-38 1 -38 1 38 -33 c21 -19 41 -34 44 -34 21 0 34 42 39 119 3 58 9 86 18 87
6 1 32 2 56 3 42 1 43 2 52 43 10 46 25 55 98 57 53 1 35 19 -24 23 -43 3 -45
4 -42 31 5 39 -25 47 -111 31 -38 -7 -102 -16 -143 -20 -41 -4 -74 -11 -74
-16 0 -5 25 -6 59 -2 57 6 58 6 63 -20 3 -15 2 -28 -1 -31 -4 -2 -41 -7 -83
-11 -64 -5 -76 -4 -81 10 -4 11 -18 16 -42 16 -30 0 -35 3 -35 24 0 19 7 26
30 31 18 4 30 13 30 22 0 16 -12 16 -124 -3 l-40 -7 33 44 c66 90 55 85 100
49 40 -33 71 -35 71 -6 0 18 -34 42 -72 51 -18 5 -28 14 -28 26 0 17 -27 39
-48 39 -5 0 -12 -17 -16 -38z m454 -201 c0 -24 -5 -29 -31 -35 -57 -11 -66 -8
-71 24 -5 34 1 38 60 39 40 1 42 0 42 -28z m-8 -76 c-6 -32 -22 -45 -58 -45
-31 0 -34 3 -34 29 0 25 5 30 28 34 51 8 67 3 64 -18z"/>
<path d="M590 576 c-19 -13 -55 -30 -80 -39 -62 -22 -19 -21 87 1 93 20 106
28 79 48 -27 19 -45 17 -86 -10z"/>
<path d="M683 507 c-9 -14 -23 -36 -41 -67 l-14 -22 39 21 c57 33 76 49 69 59
-9 15 -45 21 -53 9z"/>
<path d="M535 490 c-3 -4 2 -15 10 -24 9 -8 14 -19 13 -23 -2 -4 7 -9 20 -11
25 -4 29 15 10 40 -16 19 -46 30 -53 18z"/>
<path d="M440 465 c0 -15 34 -55 46 -55 24 0 15 36 -11 48 -29 13 -35 14 -35
7z"/>
<path d="M346 248 c-9 -17 -16 -35 -16 -39 0 -12 30 1 57 25 17 15 20 23 12
33 -18 21 -36 15 -53 -19z"/>
<path d="M140 241 c0 -6 4 -11 8 -11 5 0 15 -11 22 -25 9 -17 21 -25 34 -23
25 4 30 19 14 41 -16 20 -78 35 -78 18z"/>
</g>
</svg>
