<?xml version="1.0" standalone="no"?>
<!DOCTYPE svg PUBLIC "-//W3C//DTD SVG 20010904//EN"
 "http://www.w3.org/TR/2001/REC-SVG-20010904/DTD/svg10.dtd">
<svg version="1.0" xmlns="http://www.w3.org/2000/svg"
 width="96.000000pt" height="68.000000pt" viewBox="0 0 96.000000 68.000000"
 preserveAspectRatio="xMidYMid meet">
<metadata>
Created by potrace 1.16, written by Peter Selinger 2001-2019
</metadata>
<g transform="translate(0.000000,68.000000) scale(0.100000,-0.100000)"
fill="#000000" stroke="none">
<path d="M620 400 c-19 -5 -70 -12 -112 -16 -43 -3 -78 -11 -78 -16 0 -10 83
-3 155 13 22 5 57 9 79 9 l38 0 -7 -67 c-4 -38 -8 -69 -10 -71 -2 -2 -56 -10
-120 -17 -65 -8 -120 -16 -123 -19 -7 -8 137 -7 220 0 37 4 65 11 62 15 -2 5
5 40 17 79 11 39 18 77 15 85 -6 17 -76 19 -136 5z"/>
</g>
</svg>
