<?xml version="1.0" standalone="no"?>
<!DOCTYPE svg PUBLIC "-//W3C//DTD SVG 20010904//EN"
 "http://www.w3.org/TR/2001/REC-SVG-20010904/DTD/svg10.dtd">
<svg version="1.0" xmlns="http://www.w3.org/2000/svg"
 width="90.000000pt" height="92.000000pt" viewBox="0 0 90.000000 92.000000"
 preserveAspectRatio="xMidYMid meet">
<metadata>
Created by potrace 1.16, written by Peter Selinger 2001-2019
</metadata>
<g transform="translate(0.000000,92.000000) scale(0.100000,-0.100000)"
fill="#000000" stroke="none">
<path d="M390 863 c0 -3 12 -26 26 -50 14 -25 24 -46 22 -48 -1 -1 -63 -10
-137 -19 -74 -8 -136 -18 -139 -21 -3 -2 5 -13 18 -23 20 -16 22 -27 21 -90
-3 -147 -50 -299 -130 -418 -53 -79 -41 -84 31 -12 50 50 95 146 124 263 16
64 26 89 36 86 7 -2 33 -4 58 -3 50 1 60 -8 60 -58 0 -56 4 -57 113 -46 75 9
95 14 86 23 -8 8 -9 26 -3 60 l9 48 74 5 c44 3 76 10 78 17 7 20 -37 36 -88
31 -51 -5 -56 0 -38 34 10 18 8 25 -11 40 -12 10 -33 18 -47 18 -21 0 -23 -3
-17 -22 7 -23 8 -77 2 -83 -2 -2 -31 -7 -66 -11 l-62 -7 0 37 c0 29 -5 39 -25
48 -34 15 -39 7 -24 -41 7 -23 10 -43 8 -46 -3 -2 -31 -7 -63 -11 l-58 -7 7
54 c9 78 14 88 38 94 52 11 185 25 301 31 98 6 126 10 126 21 0 8 -14 20 -31
27 -25 11 -45 11 -112 0 -45 -8 -83 -14 -85 -14 -2 0 0 5 3 11 13 20 -5 59
-35 74 -30 15 -70 20 -70 8z m142 -352 c-4 -42 -17 -51 -79 -51 -32 0 -33 2
-33 39 0 43 6 47 80 50 35 1 36 1 32 -38z"/>
<path d="M495 369 c-49 -10 -111 -21 -138 -24 -52 -7 -53 -16 -3 -40 18 -9 49
-33 70 -54 l38 -39 -59 -35 c-62 -37 -190 -87 -226 -87 -17 -1 -19 -2 -7 -9
28 -15 159 6 223 37 34 17 71 36 82 45 18 14 23 11 75 -33 67 -58 90 -70 130
-70 42 0 170 30 170 40 0 4 -42 17 -93 29 -51 12 -121 35 -156 51 l-62 30 47
54 c26 30 53 57 60 60 25 10 14 37 -21 52 -19 7 -36 13 -37 13 -2 -1 -43 -10
-93 -20z m75 -25 c0 -4 -16 -28 -36 -55 -39 -54 -41 -54 -103 0 l-33 29 58 12
c33 6 64 13 69 15 17 6 45 5 45 -1z"/>
</g>
</svg>
