<?xml version="1.0" standalone="no"?>
<!DOCTYPE svg PUBLIC "-//W3C//DTD SVG 20010904//EN"
 "http://www.w3.org/TR/2001/REC-SVG-20010904/DTD/svg10.dtd">
<svg version="1.0" xmlns="http://www.w3.org/2000/svg"
 width="90.000000pt" height="92.000000pt" viewBox="0 0 90.000000 92.000000"
 preserveAspectRatio="xMidYMid meet">
<metadata>
Created by potrace 1.16, written by Peter Selinger 2001-2019
</metadata>
<g transform="translate(0.000000,92.000000) scale(0.100000,-0.100000)"
fill="#000000" stroke="none">
<path d="M638 845 c-8 -8 -327 -36 -436 -38 l-103 -2 8 -30 c9 -33 11 -372 3
-536 -4 -83 -2 -109 9 -123 13 -15 16 -16 25 -3 9 11 61 15 261 21 l249 8 28
-34 28 -33 26 29 26 29 -4 296 c-1 163 1 315 5 337 8 40 7 42 -26 63 -31 19
-86 28 -99 16z m44 -67 c13 -25 26 -536 14 -583 -6 -22 -9 -24 -27 -14 -15 8
-69 9 -178 4 l-156 -6 58 57 c32 31 56 58 54 60 -2 2 -20 -8 -40 -21 -20 -14
-40 -25 -45 -25 -6 0 -12 20 -13 44 -4 39 -1 46 24 63 18 11 26 24 23 36 -3
12 2 17 17 17 12 0 46 3 75 6 60 8 64 0 26 -45 -21 -25 -29 -29 -44 -21 -10 6
-24 10 -31 10 -15 0 152 -159 167 -160 20 0 25 31 10 54 -8 12 -35 33 -60 47
-25 13 -46 26 -46 29 0 4 21 16 47 29 52 25 52 23 -10 64 -18 12 -17 14 8 42
l28 29 -28 23 c-15 13 -34 21 -43 19 -42 -13 -203 -34 -222 -29 -20 5 -27 -7
-12 -21 4 -4 12 -26 18 -49 8 -31 15 -41 27 -39 9 2 17 -2 17 -7 0 -11 -70
-70 -120 -100 -44 -26 -19 -27 39 -1 24 11 45 19 46 18 1 -2 5 -33 8 -70 l5
-68 -83 0 -83 0 4 37 c2 21 6 152 8 292 3 139 7 255 9 258 9 8 327 41 409 42
81 1 88 -1 100 -21z m-180 -284 c3 -3 4 -13 1 -23 -3 -13 -18 -20 -46 -24 -23
-3 -61 -9 -84 -13 -41 -6 -43 -5 -43 19 0 23 5 26 48 32 26 4 52 8 57 10 17 6
61 5 67 -1z"/>
<path d="M440 744 c-47 -7 -113 -13 -148 -14 -55 -2 -61 -4 -50 -17 7 -9 18
-34 24 -57 12 -47 -2 -44 187 -34 l87 5 30 47 c17 26 30 50 30 55 0 10 -46 32
-63 30 -7 -1 -50 -7 -97 -15z m87 -50 c-3 -20 -7 -38 -9 -39 -2 -1 -17 0 -34
2 -30 5 -31 6 -21 34 10 24 21 31 61 38 5 0 6 -15 3 -35z m-99 -6 c-2 -28 -7
-33 -28 -33 -20 0 -25 5 -25 25 0 28 11 40 38 40 15 0 18 -7 15 -32z m-84 6
c13 -35 7 -54 -19 -54 -18 0 -26 7 -31 26 -10 38 36 64 50 28z"/>
<path d="M403 585 c-105 -13 -197 -25 -203 -27 -8 -2 -3 -10 12 -20 22 -15 31
-15 84 -2 32 8 125 17 207 21 103 4 147 10 147 18 0 9 -45 38 -53 34 -1 -1
-88 -12 -194 -24z"/>
</g>
</svg>
