<?xml version="1.0" standalone="no"?>
<!DOCTYPE svg PUBLIC "-//W3C//DTD SVG 20010904//EN"
 "http://www.w3.org/TR/2001/REC-SVG-20010904/DTD/svg10.dtd">
<svg version="1.0" xmlns="http://www.w3.org/2000/svg"
 width="96.000000pt" height="68.000000pt" viewBox="0 0 96.000000 68.000000"
 preserveAspectRatio="xMidYMid meet">
<metadata>
Created by potrace 1.16, written by Peter Selinger 2001-2019
</metadata>
<g transform="translate(0.000000,68.000000) scale(0.100000,-0.100000)"
fill="#000000" stroke="none">
<path d="M369 556 c-3 -3 -58 -12 -124 -21 -65 -8 -121 -18 -124 -20 -9 -9 7
-17 48 -22 36 -5 41 -9 47 -39 8 -45 -1 -56 -47 -52 l-40 3 -2 -145 c-2 -140
-1 -145 18 -142 11 1 65 7 119 11 95 9 100 8 117 -12 17 -21 18 -21 36 -4 15
15 19 39 21 158 4 127 2 142 -15 155 -12 9 -31 12 -56 8 l-38 -6 3 39 3 38 58
9 c46 7 57 12 55 25 -3 15 -67 29 -79 17z m-79 -99 c0 -36 -3 -43 -20 -44 -17
-2 -20 4 -20 36 0 40 6 51 27 51 9 0 13 -14 13 -43z m0 -102 c0 -39 4 -46 30
-60 16 -8 38 -15 50 -15 18 0 20 -6 20 -60 l0 -60 -32 2 c-18 1 -70 -2 -115
-6 l-83 -8 0 53 c0 47 4 56 34 84 19 17 38 45 41 61 11 50 14 54 35 54 17 0
20 -6 20 -45z m102 34 c2 -6 2 -27 0 -46 -4 -32 -7 -34 -36 -31 -29 3 -31 6
-34 46 -3 42 -3 42 32 42 19 0 36 -5 38 -11z m-182 -20 c0 -27 -29 -89 -42
-89 -9 0 -9 71 0 98 7 21 42 14 42 -9z"/>
<path d="M238 223 c-21 -2 -38 -9 -38 -15 0 -12 93 -4 132 11 20 8 17 10 -17
9 -22 -1 -57 -3 -77 -5z"/>
<path d="M630 510 c-8 -5 -45 -14 -82 -21 -38 -7 -68 -16 -68 -21 0 -10 9 -10
99 6 l73 13 -5 -41 c-8 -55 -35 -76 -99 -76 l-50 0 5 -99 c6 -108 16 -130 70
-150 36 -14 151 -14 197 -1 60 17 61 19 41 85 -19 59 -19 60 -30 32 -6 -16
-11 -34 -11 -42 0 -55 -153 -78 -204 -30 -27 25 -34 73 -20 145 8 35 9 36 76
45 40 5 47 10 53 33 3 15 17 44 31 65 20 31 23 41 13 53 -13 16 -66 19 -89 4z"/>
</g>
</svg>
