<?xml version="1.0" standalone="no"?>
<!DOCTYPE svg PUBLIC "-//W3C//DTD SVG 20010904//EN"
 "http://www.w3.org/TR/2001/REC-SVG-20010904/DTD/svg10.dtd">
<svg version="1.0" xmlns="http://www.w3.org/2000/svg"
 width="96.000000pt" height="68.000000pt" viewBox="0 0 96.000000 68.000000"
 preserveAspectRatio="xMidYMid meet">
<metadata>
Created by potrace 1.16, written by Peter Selinger 2001-2019
</metadata>
<g transform="translate(0.000000,68.000000) scale(0.100000,-0.100000)"
fill="#000000" stroke="none">
<path d="M180 480 c-14 -4 -40 -8 -58 -9 -30 -1 -32 -3 -22 -22 7 -12 10 -75
9 -168 -2 -148 2 -180 24 -163 7 5 25 12 40 16 22 5 32 2 46 -15 16 -20 18
-20 34 -4 15 14 17 40 17 190 0 148 -2 174 -16 179 -20 7 -42 6 -74 -4z m50
-84 l0 -62 -40 -11 -41 -10 3 70 c3 66 5 72 28 77 43 11 50 2 50 -64z m-2
-163 l-3 -68 -42 -3 -43 -3 0 58 c0 68 11 83 57 83 l34 0 -3 -67z"/>
</g>
</svg>
