<?xml version="1.0" standalone="no"?>
<!DOCTYPE svg PUBLIC "-//W3C//DTD SVG 20010904//EN"
 "http://www.w3.org/TR/2001/REC-SVG-20010904/DTD/svg10.dtd">
<svg version="1.0" xmlns="http://www.w3.org/2000/svg"
 width="90.000000pt" height="92.000000pt" viewBox="0 0 90.000000 92.000000"
 preserveAspectRatio="xMidYMid meet">
<metadata>
Created by potrace 1.16, written by Peter Selinger 2001-2019
</metadata>
<g transform="translate(0.000000,92.000000) scale(0.100000,-0.100000)"
fill="#000000" stroke="none">
<path d="M256 832 c-2 -4 0 -46 3 -94 l6 -87 -63 -12 c-81 -15 -78 -35 7 -32
l61 1 0 -44 c0 -51 8 -47 -152 -72 -58 -9 -107 -21 -108 -27 -2 -5 9 -16 23
-23 23 -11 40 -10 124 11 69 17 100 21 105 13 4 -6 8 -48 8 -94 l0 -83 -40 22
c-34 19 -38 25 -28 42 9 17 6 25 -18 45 l-29 25 -8 -34 c-13 -54 -74 -172
-113 -217 -20 -23 -31 -42 -26 -42 17 0 109 89 140 134 l29 44 39 -22 c21 -12
86 -54 144 -93 131 -88 219 -133 268 -140 33 -4 238 30 250 41 2 3 -13 8 -34
11 -251 41 -331 63 -455 126 -70 35 -79 42 -79 67 0 39 10 49 55 57 86 14 88
14 74 32 -11 12 -25 14 -68 9 l-54 -6 6 40 c4 29 1 42 -10 48 -9 6 14 13 68
20 45 7 85 15 88 18 12 11 -34 34 -59 30 -97 -19 -103 -19 -97 -2 4 10 7 33 7
51 0 33 1 34 49 41 57 7 76 17 66 34 -5 8 -26 11 -63 8 l-54 -5 4 68 c4 44 1
72 -6 77 -16 13 -55 21 -60 14z"/>
<path d="M678 636 l4 -173 -54 -6 c-29 -2 -55 -3 -57 -1 -2 2 1 43 7 91 11 88
11 88 -14 111 -37 33 -43 28 -37 -30 3 -32 -1 -80 -11 -121 -19 -83 -20 -88
-3 -111 13 -18 15 -17 53 2 21 11 56 24 77 30 l37 10 1 -116 c0 -64 4 -126 8
-137 8 -19 8 -18 21 5 8 15 16 91 21 210 19 435 20 386 -8 399 -48 22 -48 22
-45 -163z"/>
</g>
</svg>
