<?xml version="1.0" standalone="no"?>
<!DOCTYPE svg PUBLIC "-//W3C//DTD SVG 20010904//EN"
 "http://www.w3.org/TR/2001/REC-SVG-20010904/DTD/svg10.dtd">
<svg version="1.0" xmlns="http://www.w3.org/2000/svg"
 width="96.000000pt" height="68.000000pt" viewBox="0 0 96.000000 68.000000"
 preserveAspectRatio="xMidYMid meet">
<metadata>
Created by potrace 1.16, written by Peter Selinger 2001-2019
</metadata>
<g transform="translate(0.000000,68.000000) scale(0.100000,-0.100000)"
fill="#000000" stroke="none">
<path d="M215 263 c-3 -16 -29 -58 -56 -95 -27 -38 -44 -68 -38 -68 6 0 39 27
72 59 l61 59 172 -89 c157 -81 177 -89 228 -89 58 0 200 20 193 27 -3 2 -67
13 -143 24 -115 16 -162 29 -269 71 -183 71 -177 68 -163 86 10 11 8 17 -7 28
-28 21 -42 17 -50 -13z"/>
</g>
</svg>
