<?xml version="1.0" standalone="no"?>
<!DOCTYPE svg PUBLIC "-//W3C//DTD SVG 20010904//EN"
 "http://www.w3.org/TR/2001/REC-SVG-20010904/DTD/svg10.dtd">
<svg version="1.0" xmlns="http://www.w3.org/2000/svg"
 width="90.000000pt" height="92.000000pt" viewBox="0 0 90.000000 92.000000"
 preserveAspectRatio="xMidYMid meet">
<metadata>
Created by potrace 1.16, written by Peter Selinger 2001-2019
</metadata>
<g transform="translate(0.000000,92.000000) scale(0.100000,-0.100000)"
fill="#000000" stroke="none">
<path d="M608 473 c2 -202 7 -383 11 -403 l8 -35 13 30 c7 17 15 80 17 141 l6
112 83 7 c45 4 91 13 101 20 17 13 16 14 -10 24 -22 9 -43 8 -87 -4 -81 -21
-80 -21 -80 34 l0 49 63 6 c74 8 100 20 77 36 -14 10 -39 9 -107 -6 l-33 -6 0
61 c0 37 4 60 10 56 12 -7 138 14 145 25 3 4 -2 13 -11 20 -14 13 -72 6 -126
-15 -16 -6 -18 0 -18 56 0 35 4 79 9 97 8 27 7 34 -12 47 -12 8 -31 15 -42 15
-20 0 -20 -4 -17 -367z"/>
<path d="M211 758 c-42 -15 -61 -17 -84 -9 -38 14 -50 6 -35 -22 9 -15 12 -71
12 -177 -1 -176 -18 -272 -62 -362 -32 -65 -27 -74 13 -27 35 43 60 94 75 156
10 45 15 51 28 44 13 -8 28 0 65 37 l47 46 0 -106 c0 -59 -5 -119 -10 -133 -9
-25 -13 -26 -52 -20 l-42 7 49 -51 c27 -28 53 -51 57 -51 5 0 17 15 28 32 15
26 20 51 20 112 l0 79 23 -22 24 -22 50 35 51 35 -10 -42 c-11 -52 -40 -118
-69 -158 -31 -43 -15 -48 27 -8 75 72 103 168 114 399 4 91 11 172 14 181 9
20 -12 37 -54 46 -31 6 -33 5 -26 -18 4 -13 10 -47 13 -75 l5 -52 -59 -7 c-77
-9 -93 -18 -56 -34 20 -8 38 -8 63 -1 50 14 50 14 50 -34 l0 -44 -61 -11 c-69
-12 -80 -18 -59 -32 15 -10 71 -7 103 6 14 6 17 2 17 -25 0 -49 -16 -68 -72
-85 -94 -28 -88 -40 -88 166 0 99 4 188 9 198 5 9 7 22 3 27 -9 13 -55 44 -62
43 -3 -1 -29 -10 -59 -21z m57 -158 l3 -126 -43 -24 c-82 -48 -78 -51 -78 52
l0 92 34 -33 c39 -38 66 -36 66 3 0 20 -8 27 -50 41 -52 17 -54 21 -44 74 5
24 14 33 38 40 70 21 71 20 74 -119z"/>
</g>
</svg>
