<?xml version="1.0" standalone="no"?>
<!DOCTYPE svg PUBLIC "-//W3C//DTD SVG 20010904//EN"
 "http://www.w3.org/TR/2001/REC-SVG-20010904/DTD/svg10.dtd">
<svg version="1.0" xmlns="http://www.w3.org/2000/svg"
 width="96.000000pt" height="68.000000pt" viewBox="0 0 96.000000 68.000000"
 preserveAspectRatio="xMidYMid meet">
<metadata>
Created by potrace 1.16, written by Peter Selinger 2001-2019
</metadata>
<g transform="translate(0.000000,68.000000) scale(0.100000,-0.100000)"
fill="#000000" stroke="none">
<path d="M610 600 c0 -48 -1 -50 -27 -51 -16 0 -37 -4 -48 -9 -19 -7 -18 -9 8
-19 16 -6 33 -9 37 -6 9 6 7 -18 -5 -47 -12 -30 12 -20 43 19 27 34 35 37 96
44 37 3 70 10 74 13 14 15 -25 27 -75 23 l-52 -4 16 31 c14 27 14 31 -3 43
-10 7 -28 13 -41 13 -21 0 -23 -4 -23 -50z"/>
<path d="M340 605 c0 -9 7 -27 16 -41 9 -13 15 -27 12 -29 -2 -2 -35 -6 -73
-8 -74 -4 -94 -19 -51 -39 20 -9 38 -9 77 0 67 16 66 16 73 -13 10 -39 36 -32
36 9 0 28 4 35 23 38 29 4 19 22 -13 22 -19 1 -26 7 -28 26 -2 14 -11 31 -20
38 -22 17 -52 15 -52 -3z"/>
<path d="M735 438 c3 -13 9 -77 12 -143 5 -116 -4 -192 -23 -188 -5 1 -23 4
-39 8 -30 7 -30 6 13 -34 24 -23 47 -41 51 -41 4 0 16 9 25 19 15 17 17 42 16
202 0 100 -3 186 -6 190 -3 5 -17 9 -31 9 -22 0 -24 -3 -18 -22z"/>
<path d="M440 420 c-19 -5 -70 -12 -112 -16 -43 -3 -75 -10 -72 -15 3 -5 13
-9 24 -9 21 0 30 -19 30 -65 0 -35 -15 -44 -75 -45 -41 0 -75 -10 -75 -22 0
-6 27 -8 64 -7 36 2 68 1 71 -3 11 -11 -41 -93 -72 -117 -18 -13 -23 -20 -13
-21 26 0 87 58 110 106 24 49 25 49 83 59 l37 6 0 -94 c0 -67 4 -98 13 -106
23 -18 27 -2 27 99 l0 98 31 6 c17 3 43 6 58 6 20 0 23 2 11 10 -8 5 -35 10
-59 10 l-43 0 6 36 c5 22 3 41 -5 50 -9 12 -6 14 20 14 17 0 31 5 31 10 0 6
-6 10 -14 10 -8 0 -20 2 -28 4 -7 2 -29 0 -48 -4z m-6 -52 c3 -13 6 -35 6 -50
0 -22 -5 -28 -22 -28 -13 0 -33 -3 -46 -6 -23 -6 -23 -5 -18 47 2 30 5 55 5
57 1 1 16 2 35 2 26 0 35 -5 40 -22z"/>
<path d="M618 385 c-6 -6 0 -147 8 -182 2 -13 11 -23 19 -23 12 0 15 18 15 93
0 59 -4 97 -12 105 -13 13 -22 15 -30 7z"/>
</g>
</svg>
