<?xml version="1.0" standalone="no"?>
<!DOCTYPE svg PUBLIC "-//W3C//DTD SVG 20010904//EN"
 "http://www.w3.org/TR/2001/REC-SVG-20010904/DTD/svg10.dtd">
<svg version="1.0" xmlns="http://www.w3.org/2000/svg"
 width="96.000000pt" height="68.000000pt" viewBox="0 0 96.000000 68.000000"
 preserveAspectRatio="xMidYMid meet">
<metadata>
Created by potrace 1.16, written by Peter Selinger 2001-2019
</metadata>
<g transform="translate(0.000000,68.000000) scale(0.100000,-0.100000)"
fill="#000000" stroke="none">
<path d="M475 320 c-16 -4 -62 -8 -102 -9 l-72 -1 13 -32 c8 -18 17 -55 20
-82 8 -59 14 -70 29 -58 7 6 50 13 96 17 65 6 85 4 92 -6 13 -22 30 2 60 87
l27 75 -25 10 c-28 10 -94 10 -138 -1z m89 -19 c5 -8 -10 -110 -17 -118 -2 -2
-44 -6 -94 -9 l-90 -7 -7 57 c-4 32 -6 60 -3 62 4 4 130 20 179 23 15 0 29 -3
32 -8z"/>
</g>
</svg>
