<?xml version="1.0" standalone="no"?>
<!DOCTYPE svg PUBLIC "-//W3C//DTD SVG 20010904//EN"
 "http://www.w3.org/TR/2001/REC-SVG-20010904/DTD/svg10.dtd">
<svg version="1.0" xmlns="http://www.w3.org/2000/svg"
 width="96.000000pt" height="68.000000pt" viewBox="0 0 96.000000 68.000000"
 preserveAspectRatio="xMidYMid meet">
<metadata>
Created by potrace 1.16, written by Peter Selinger 2001-2019
</metadata>
<g transform="translate(0.000000,68.000000) scale(0.100000,-0.100000)"
fill="#000000" stroke="none">
<path d="M286 274 c9 -34 -7 -44 -75 -44 -46 0 -52 -2 -38 -12 9 -7 23 -30 32
-50 14 -35 17 -36 50 -31 34 5 35 5 35 -26 0 -24 4 -31 19 -31 15 0 21 8 23
33 3 30 6 32 46 35 23 2 42 8 42 14 0 5 9 23 20 38 l21 29 -21 11 c-12 6 -38
10 -58 8 -34 -3 -37 -1 -40 25 -3 23 -8 27 -33 27 -27 0 -29 -2 -23 -26z m99
-75 c0 -19 -6 -25 -27 -27 -22 -3 -28 1 -28 17 0 20 27 43 45 37 6 -1 10 -14
10 -27z m-95 -9 c0 -25 -4 -30 -25 -30 -35 0 -52 42 -21 52 39 12 46 9 46 -22z"/>
</g>
</svg>
