<?xml version="1.0" standalone="no"?>
<!DOCTYPE svg PUBLIC "-//W3C//DTD SVG 20010904//EN"
 "http://www.w3.org/TR/2001/REC-SVG-20010904/DTD/svg10.dtd">
<svg version="1.0" xmlns="http://www.w3.org/2000/svg"
 width="96.000000pt" height="68.000000pt" viewBox="0 0 96.000000 68.000000"
 preserveAspectRatio="xMidYMid meet">
<metadata>
Created by potrace 1.16, written by Peter Selinger 2001-2019
</metadata>
<g transform="translate(0.000000,68.000000) scale(0.100000,-0.100000)"
fill="#000000" stroke="none">
<path d="M427 556 l6 -46 -72 0 c-41 0 -71 -4 -71 -10 0 -6 32 -10 75 -10 l75
0 0 -30 c0 -28 -3 -30 -37 -31 -21 0 -47 -4 -58 -9 -42 -16 33 -22 137 -10
132 15 163 39 41 31 -30 -2 -33 0 -33 27 l0 29 80 7 c44 4 80 11 80 16 0 11
-45 21 -72 16 -88 -18 -87 -18 -90 22 -3 33 -6 37 -34 40 l-32 3 5 -45z"/>
</g>
</svg>
