<?xml version="1.0" standalone="no"?>
<!DOCTYPE svg PUBLIC "-//W3C//DTD SVG 20010904//EN"
 "http://www.w3.org/TR/2001/REC-SVG-20010904/DTD/svg10.dtd">
<svg version="1.0" xmlns="http://www.w3.org/2000/svg"
 width="96.000000pt" height="68.000000pt" viewBox="0 0 96.000000 68.000000"
 preserveAspectRatio="xMidYMid meet">
<metadata>
Created by potrace 1.16, written by Peter Selinger 2001-2019
</metadata>
<g transform="translate(0.000000,68.000000) scale(0.100000,-0.100000)"
fill="#000000" stroke="none">
<path d="M590 575 c-19 -14 -50 -30 -70 -36 -19 -6 -39 -16 -45 -21 -15 -14
70 2 144 27 60 20 63 22 47 38 -23 22 -34 21 -76 -8z"/>
<path d="M687 485 c-44 -51 -35 -56 42 -24 54 23 64 41 32 59 -29 15 -33 13
-74 -35z"/>
<path d="M540 482 c0 -15 41 -53 51 -47 15 10 10 34 -10 45 -24 12 -41 13 -41
2z"/>
<path d="M440 463 c0 -19 32 -53 51 -53 21 0 26 22 7 38 -19 14 -58 25 -58 15z"/>
</g>
</svg>
