<?xml version="1.0" standalone="no"?>
<!DOCTYPE svg PUBLIC "-//W3C//DTD SVG 20010904//EN"
 "http://www.w3.org/TR/2001/REC-SVG-20010904/DTD/svg10.dtd">
<svg version="1.0" xmlns="http://www.w3.org/2000/svg"
 width="90.000000pt" height="92.000000pt" viewBox="0 0 90.000000 92.000000"
 preserveAspectRatio="xMidYMid meet">
<metadata>
Created by potrace 1.16, written by Peter Selinger 2001-2019
</metadata>
<g transform="translate(0.000000,92.000000) scale(0.100000,-0.100000)"
fill="#000000" stroke="none">
<path d="M370 878 c0 -7 13 -30 30 -49 l29 -36 -122 -12 c-67 -7 -133 -14
-147 -17 -24 -6 -25 -6 -5 -20 16 -12 37 -13 99 -8 l79 7 -5 -79 c-3 -54 -12
-92 -27 -121 -12 -24 -18 -43 -13 -43 17 0 55 44 72 84 16 36 33 125 30 151
-2 12 27 23 62 24 36 1 42 -24 35 -143 -5 -99 -3 -116 19 -116 18 0 22 23 27
148 2 56 7 106 11 110 4 4 46 9 92 11 62 2 84 7 84 17 0 34 -98 42 -222 17
-25 -5 -28 -3 -28 21 0 28 -26 50 -72 61 -20 5 -28 3 -28 -7z"/>
<path d="M601 653 c51 -67 103 -123 114 -123 16 0 24 40 14 68 -8 22 -95 72
-125 72 -14 0 -15 -3 -3 -17z"/>
<path d="M195 630 c-4 -17 -22 -53 -40 -80 -47 -70 -19 -66 58 10 55 52 60 61
47 73 -8 8 -25 18 -37 21 -18 6 -22 2 -28 -24z"/>
<path d="M515 430 l7 -40 -55 0 c-30 0 -69 -3 -87 -7 -31 -6 -33 -5 -27 19 5
20 2 27 -19 36 -14 7 -34 12 -44 12 -21 0 -27 -15 -10 -25 15 -9 12 -42 -4
-48 -8 -3 -64 -9 -125 -13 -61 -4 -111 -11 -111 -15 0 -5 14 -16 32 -25 28
-15 41 -15 120 -4 49 7 91 11 93 8 3 -2 -2 -27 -10 -54 -17 -57 -68 -122 -122
-155 -48 -30 -27 -36 31 -9 76 36 133 112 161 216 3 11 80 24 143 24 l32 0 0
-137 c0 -76 4 -144 9 -152 15 -24 31 52 38 176 l6 112 126 3 c104 3 126 6 126
18 0 8 -17 23 -37 33 -33 16 -46 17 -107 8 -102 -16 -110 -15 -104 10 7 25
-19 49 -50 49 -16 0 -18 -5 -12 -40z"/>
</g>
</svg>
