<?xml version="1.0" standalone="no"?>
<!DOCTYPE svg PUBLIC "-//W3C//DTD SVG 20010904//EN"
 "http://www.w3.org/TR/2001/REC-SVG-20010904/DTD/svg10.dtd">
<svg version="1.0" xmlns="http://www.w3.org/2000/svg"
 width="90.000000pt" height="92.000000pt" viewBox="0 0 90.000000 92.000000"
 preserveAspectRatio="xMidYMid meet">
<metadata>
Created by potrace 1.16, written by Peter Selinger 2001-2019
</metadata>
<g transform="translate(0.000000,92.000000) scale(0.100000,-0.100000)"
fill="#000000" stroke="none">
<path d="M550 839 c0 -64 -13 -89 -48 -90 -15 0 -35 -4 -45 -8 -17 -6 -17 -8
6 -18 14 -7 35 -9 47 -6 21 5 22 3 16 -20 -3 -15 -9 -39 -12 -53 -10 -41 12
-21 41 36 26 52 32 54 145 62 40 3 44 18 8 35 -18 9 -34 10 -62 2 -21 -6 -40
-8 -43 -6 -2 3 3 21 11 41 14 34 14 36 -11 56 -42 33 -53 26 -53 -31z"/>
<path d="M250 836 c0 -7 7 -30 15 -50 9 -20 13 -41 10 -46 -4 -6 -37 -10 -76
-10 -76 0 -90 -14 -44 -44 23 -15 29 -15 75 0 28 9 54 13 58 9 4 -3 12 -22 17
-42 14 -50 30 -41 27 16 -2 48 -2 49 32 55 54 10 57 28 5 24 l-44 -3 -3 40
c-3 42 -23 65 -54 65 -10 0 -18 -6 -18 -14z"/>
<path d="M400 615 c0 -43 -41 -136 -97 -217 -55 -82 -54 -85 10 -35 l37 29 1
-24 c4 -68 -5 -188 -16 -222 -12 -33 -12 -45 0 -73 8 -18 18 -33 23 -33 11 0
22 34 22 72 0 50 8 58 39 42 25 -12 37 -12 92 1 35 8 126 18 202 22 144 6 160
13 99 44 -24 12 -43 15 -70 9 -20 -4 -54 -11 -75 -15 -37 -6 -38 -6 -26 17 7
12 25 61 40 108 28 82 28 85 10 100 -17 14 -16 16 22 25 22 6 42 15 44 21 7
20 -49 31 -87 18 -60 -22 -70 -18 -70 21 0 30 -5 38 -35 52 -19 9 -37 14 -41
11 -3 -3 6 -29 20 -56 l25 -50 -22 -5 c-12 -3 -43 -9 -69 -12 -27 -4 -48 -11
-48 -16 0 -5 3 -9 8 -9 23 -1 37 -29 61 -128 31 -127 34 -122 -62 -122 l-49 0
3 97 c2 59 -1 106 -8 118 -9 17 -3 34 39 105 l50 84 -26 23 c-35 29 -46 29
-46 -2z m231 -283 c-7 -54 -16 -103 -19 -109 -4 -5 -19 -12 -34 -15 -28 -5
-28 -5 -28 49 0 56 -19 114 -47 145 -9 10 -14 20 -12 22 9 9 135 22 143 14 6
-4 4 -47 -3 -106z"/>
<path d="M150 603 c0 -22 61 -93 80 -93 30 0 28 55 -2 74 -30 19 -78 31 -78
19z"/>
<path d="M80 471 c0 -10 47 -71 65 -83 29 -22 51 6 35 46 -11 31 -100 63 -100
37z"/>
<path d="M189 308 c-23 -40 -56 -84 -72 -99 -28 -25 -28 -28 -16 -68 16 -55
35 -71 48 -40 49 126 97 279 88 279 -2 0 -24 -32 -48 -72z"/>
</g>
</svg>
