<?xml version="1.0" standalone="no"?>
<!DOCTYPE svg PUBLIC "-//W3C//DTD SVG 20010904//EN"
 "http://www.w3.org/TR/2001/REC-SVG-20010904/DTD/svg10.dtd">
<svg version="1.0" xmlns="http://www.w3.org/2000/svg"
 width="96.000000pt" height="68.000000pt" viewBox="0 0 96.000000 68.000000"
 preserveAspectRatio="xMidYMid meet">
<metadata>
Created by potrace 1.16, written by Peter Selinger 2001-2019
</metadata>
<g transform="translate(0.000000,68.000000) scale(0.100000,-0.100000)"
fill="#000000" stroke="none">
<path d="M209 392 c16 -30 50 -55 66 -49 8 4 15 11 15 16 0 18 -43 51 -67 51
-20 0 -22 -3 -14 -18z"/>
<path d="M160 285 c37 -38 57 -44 67 -18 9 22 -31 53 -70 53 l-31 0 34 -35z"/>
<path d="M249 218 c-12 -18 -40 -52 -63 -75 -36 -38 -39 -46 -30 -70 18 -52
37 -38 76 54 55 134 59 151 17 91z"/>
</g>
</svg>
