<?xml version="1.0" standalone="no"?>
<!DOCTYPE svg PUBLIC "-//W3C//DTD SVG 20010904//EN"
 "http://www.w3.org/TR/2001/REC-SVG-20010904/DTD/svg10.dtd">
<svg version="1.0" xmlns="http://www.w3.org/2000/svg"
 width="96.000000pt" height="68.000000pt" viewBox="0 0 96.000000 68.000000"
 preserveAspectRatio="xMidYMid meet">
<metadata>
Created by potrace 1.16, written by Peter Selinger 2001-2019
</metadata>
<g transform="translate(0.000000,68.000000) scale(0.100000,-0.100000)"
fill="#000000" stroke="none">
<path d="M640 483 c-63 -7 -140 -12 -170 -10 -54 3 -56 2 -73 -30 -9 -19 -17
-40 -17 -48 0 -28 30 -15 46 19 16 33 18 34 93 40 244 21 261 20 229 -12 -10
-10 -1 -11 37 -6 28 4 54 10 59 15 10 9 -52 50 -74 48 -8 -1 -67 -8 -130 -16z"/>
</g>
</svg>
