<?xml version="1.0" standalone="no"?>
<!DOCTYPE svg PUBLIC "-//W3C//DTD SVG 20010904//EN"
 "http://www.w3.org/TR/2001/REC-SVG-20010904/DTD/svg10.dtd">
<svg version="1.0" xmlns="http://www.w3.org/2000/svg"
 width="96.000000pt" height="68.000000pt" viewBox="0 0 96.000000 68.000000"
 preserveAspectRatio="xMidYMid meet">
<metadata>
Created by potrace 1.16, written by Peter Selinger 2001-2019
</metadata>
<g transform="translate(0.000000,68.000000) scale(0.100000,-0.100000)"
fill="#000000" stroke="none">
<path d="M480 589 c-19 -5 -75 -10 -123 -10 -78 -1 -87 -3 -81 -18 4 -9 11
-63 15 -121 5 -58 10 -126 13 -153 l5 -47 -72 -1 c-40 -1 -83 -4 -97 -8 l-25
-8 27 -13 c22 -10 42 -11 100 -1 40 7 189 15 331 18 141 3 257 10 257 15 0 21
-66 35 -140 28 -41 -4 -76 -6 -77 -5 -7 4 18 258 27 275 9 17 6 23 -22 40 -35
21 -80 24 -138 9z m65 -50 c4 -11 5 -22 3 -23 -6 -5 -146 -26 -172 -26 -21 0
-26 5 -26 24 0 23 5 25 68 31 37 4 72 8 77 10 26 9 44 3 50 -16z m5 -88 c0
-28 0 -28 -77 -35 -43 -3 -88 -9 -100 -12 -20 -6 -23 -3 -23 25 0 30 2 31 43
32 23 0 62 4 87 8 70 13 70 13 70 -18z m0 -128 l0 -68 -95 -3 -95 -4 0 31 0
31 59 0 c72 0 121 9 121 23 0 10 -110 4 -157 -9 -20 -6 -23 -3 -23 24 0 34 -7
32 153 40 l37 2 0 -67z"/>
<path d="M309 156 c-12 -18 -48 -48 -78 -67 -30 -18 -50 -34 -44 -36 11 -4
101 38 182 85 40 23 42 26 25 39 -31 22 -60 15 -85 -21z"/>
<path d="M520 186 c0 -8 99 -99 131 -119 25 -17 30 -17 35 -4 14 38 -1 61 -57
88 -58 29 -109 45 -109 35z"/>
</g>
</svg>
