<?xml version="1.0" standalone="no"?>
<!DOCTYPE svg PUBLIC "-//W3C//DTD SVG 20010904//EN"
 "http://www.w3.org/TR/2001/REC-SVG-20010904/DTD/svg10.dtd">
<svg version="1.0" xmlns="http://www.w3.org/2000/svg"
 width="90.000000pt" height="92.000000pt" viewBox="0 0 90.000000 92.000000"
 preserveAspectRatio="xMidYMid meet">
<metadata>
Created by potrace 1.16, written by Peter Selinger 2001-2019
</metadata>
<g transform="translate(0.000000,92.000000) scale(0.100000,-0.100000)"
fill="#000000" stroke="none">
<path d="M170 828 c4 -18 11 -52 14 -75 7 -47 7 -46 -79 -58 -47 -7 -48 -8
-30 -22 14 -10 34 -13 68 -9 l47 5 0 -38 c0 -46 -9 -51 -91 -51 -59 0 -59 0
-45 -22 8 -13 20 -60 26 -106 11 -75 28 -113 38 -84 2 7 17 12 33 12 27 0 29
-3 29 -39 l0 -38 -86 -11 c-48 -7 -90 -14 -93 -17 -15 -16 31 -25 97 -20 82 7
80 8 63 -85 -7 -33 -5 -54 6 -82 8 -21 18 -38 22 -38 18 0 31 57 31 134 l0 83
46 7 c26 3 62 6 80 6 42 0 43 15 3 35 -28 15 -54 15 -111 -1 -15 -5 -18 1 -18
34 0 36 3 40 32 46 20 4 34 2 39 -5 15 -25 36 2 53 68 10 37 25 78 33 91 17
28 7 44 -37 62 -22 9 -37 9 -61 1 -47 -16 -50 -14 -47 26 3 36 4 37 60 48 64
13 77 20 61 36 -13 13 -48 15 -87 4 l-29 -8 6 51 c5 47 4 53 -20 72 -14 11
-34 20 -44 20 -15 0 -16 -5 -9 -32z m140 -281 c0 -32 0 -32 -46 -29 -39 4 -45
7 -42 25 2 15 13 24 33 28 53 11 55 10 55 -24z m-122 -14 c-3 -24 -8 -28 -40
-31 -35 -3 -38 -1 -38 22 0 24 6 27 68 35 9 0 12 -8 10 -26z m112 -65 c0 -33
-11 -43 -47 -43 -29 0 -33 3 -33 27 0 27 4 29 68 37 6 0 12 -9 12 -21z m-118
-28 c-4 -25 -9 -30 -33 -30 -26 0 -29 4 -29 30 0 27 3 30 33 30 32 0 33 -2 29
-30z"/>
<path d="M651 820 c-81 -21 -98 -46 -25 -36 99 14 89 23 89 -89 l0 -100 -31 1
-32 2 31 -44 c17 -24 34 -44 39 -44 4 0 15 12 25 27 13 20 18 51 20 117 1 50
5 105 8 123 4 25 1 35 -17 47 -26 18 -23 19 -107 -4z"/>
<path d="M470 815 c-14 -8 -42 -17 -62 -20 -37 -7 -48 -18 -29 -30 5 -3 30 0
56 7 58 16 65 7 65 -77 0 -92 -7 -108 -42 -101 l-29 6 28 -38 c15 -20 29 -39
30 -41 2 -3 14 5 26 17 20 20 22 33 22 120 0 53 4 103 8 110 5 7 3 19 -4 28
-22 27 -43 33 -69 19z"/>
<path d="M600 747 c0 -16 42 -57 58 -57 13 0 17 46 5 53 -5 2 -20 7 -35 11
-20 4 -28 3 -28 -7z"/>
<path d="M405 710 c17 -33 32 -38 41 -15 8 20 -13 45 -37 45 -18 0 -19 -2 -4
-30z"/>
<path d="M675 674 c-11 -8 -37 -20 -57 -26 -43 -13 -45 -18 -20 -41 20 -18 23
-17 77 41 38 41 39 56 0 26z"/>
<path d="M420 657 c-25 -12 -47 -23 -49 -24 -7 -5 22 -33 34 -33 12 0 70 68
64 74 -2 2 -24 -6 -49 -17z"/>
<path d="M540 545 c-13 -39 -82 -111 -149 -155 -24 -17 -38 -30 -30 -30 31 0
121 52 169 96 l49 46 38 -30 c21 -17 54 -47 73 -67 55 -58 83 -69 141 -55 27
7 49 15 49 19 0 4 -30 17 -66 28 -81 27 -216 112 -209 132 6 16 -22 51 -41 51
-7 0 -18 -16 -24 -35z"/>
<path d="M550 428 c0 -16 -47 -69 -105 -117 -33 -27 -36 -32 -15 -26 33 9 116
59 160 96 37 31 34 43 -12 54 -21 5 -28 3 -28 -7z"/>
<path d="M600 345 c0 -22 -63 -88 -126 -131 -31 -21 -51 -40 -45 -42 17 -6
121 54 184 105 l58 48 -21 17 c-27 22 -50 23 -50 3z"/>
<path d="M660 256 c0 -34 -165 -167 -262 -212 l-33 -15 39 6 c71 12 198 79
306 164 l25 20 -24 25 c-27 28 -51 34 -51 12z"/>
</g>
</svg>
