<?xml version="1.0" standalone="no"?>
<!DOCTYPE svg PUBLIC "-//W3C//DTD SVG 20010904//EN"
 "http://www.w3.org/TR/2001/REC-SVG-20010904/DTD/svg10.dtd">
<svg version="1.0" xmlns="http://www.w3.org/2000/svg"
 width="96.000000pt" height="68.000000pt" viewBox="0 0 96.000000 68.000000"
 preserveAspectRatio="xMidYMid meet">
<metadata>
Created by potrace 1.16, written by Peter Selinger 2001-2019
</metadata>
<g transform="translate(0.000000,68.000000) scale(0.100000,-0.100000)"
fill="#000000" stroke="none">
<path d="M448 148 c-3 -21 -9 -23 -65 -26 -84 -4 -81 -22 3 -22 62 0 65 -1 62
-22 -3 -20 -9 -23 -58 -25 -30 -2 -89 -6 -130 -9 -69 -6 -73 -8 -47 -18 17 -8
48 -9 85 -5 31 4 143 8 249 8 105 1 194 5 197 10 3 4 -7 14 -21 20 -19 9 -58
10 -135 5 -110 -7 -115 -5 -102 30 5 12 21 16 63 17 31 0 65 4 76 8 19 8 19 8
-4 16 -13 4 -47 4 -77 0 -50 -6 -54 -5 -54 14 0 30 -38 28 -42 -1z"/>
</g>
</svg>
