<?xml version="1.0" standalone="no"?>
<!DOCTYPE svg PUBLIC "-//W3C//DTD SVG 20010904//EN"
 "http://www.w3.org/TR/2001/REC-SVG-20010904/DTD/svg10.dtd">
<svg version="1.0" xmlns="http://www.w3.org/2000/svg"
 width="96.000000pt" height="68.000000pt" viewBox="0 0 96.000000 68.000000"
 preserveAspectRatio="xMidYMid meet">
<metadata>
Created by potrace 1.16, written by Peter Selinger 2001-2019
</metadata>
<g transform="translate(0.000000,68.000000) scale(0.100000,-0.100000)"
fill="#000000" stroke="none">
<path d="M414 578 c41 -58 41 -56 -32 -63 -92 -9 -93 -9 -95 -20 -1 -5 12 -11
29 -13 24 -2 36 -12 52 -41 12 -21 22 -41 22 -44 0 -3 -52 -8 -115 -12 -63 -4
-115 -11 -115 -16 0 -18 56 -22 144 -11 50 7 174 17 276 23 214 12 222 13 191
35 -22 16 -76 15 -195 -2 l-39 -6 28 35 c14 20 24 41 20 47 -3 6 3 10 17 10
13 0 30 5 38 10 29 19 -10 31 -77 25 -59 -6 -63 -5 -63 14 0 26 -36 51 -73 51
-29 0 -29 -1 -13 -22z m116 -111 c0 -43 -27 -67 -75 -67 -34 0 -43 3 -39 14 3
8 -6 25 -21 38 l-27 23 34 6 c18 4 54 7 81 8 43 1 47 -1 47 -22z"/>
<path d="M530 340 c-36 -5 -111 -11 -168 -15 -92 -7 -101 -10 -88 -24 7 -9 21
-41 31 -71 21 -67 29 -77 49 -61 8 7 32 11 53 9 33 -3 38 -6 38 -28 0 -24 -3
-25 -62 -28 -84 -4 -81 -22 3 -22 62 0 65 -1 62 -22 -3 -22 -9 -23 -113 -29
-60 -4 -118 -7 -128 -8 -10 0 -16 -5 -12 -10 5 -9 534 -3 544 5 2 2 -2 11 -10
20 -12 14 -29 15 -131 9 -113 -6 -118 -6 -118 13 0 24 18 32 78 33 26 0 56 4
67 8 19 8 19 8 -4 16 -13 4 -47 4 -77 0 -52 -6 -54 -6 -54 18 0 22 5 25 48 30
27 3 53 1 60 -5 17 -15 24 -6 65 75 l34 68 -28 14 c-30 16 -37 16 -139 5z m86
-35 c-3 -22 -7 -23 -64 -30 -51 -6 -52 -5 -52 20 0 24 2 25 59 25 46 0 59 -3
57 -15z m-181 -3 c15 -11 17 -32 3 -37 -27 -8 -98 -12 -98 -5 0 5 -3 15 -6 24
-4 11 4 16 38 19 23 2 45 4 48 5 3 1 10 -2 15 -6z m166 -75 c-7 -18 -17 -23
-60 -25 -50 -4 -52 -3 -49 20 3 20 10 24 53 28 62 7 66 5 56 -23z m-151 -7 c0
-17 -7 -20 -50 -20 -43 0 -50 3 -50 20 0 17 7 20 50 20 43 0 50 -3 50 -20z"/>
</g>
</svg>
