<?xml version="1.0" standalone="no"?>
<!DOCTYPE svg PUBLIC "-//W3C//DTD SVG 20010904//EN"
 "http://www.w3.org/TR/2001/REC-SVG-20010904/DTD/svg10.dtd">
<svg version="1.0" xmlns="http://www.w3.org/2000/svg"
 width="96.000000pt" height="68.000000pt" viewBox="0 0 96.000000 68.000000"
 preserveAspectRatio="xMidYMid meet">
<metadata>
Created by potrace 1.16, written by Peter Selinger 2001-2019
</metadata>
<g transform="translate(0.000000,68.000000) scale(0.100000,-0.100000)"
fill="#000000" stroke="none">
<path d="M647 403 c2 -16 -7 -73 -20 -128 l-22 -100 -36 -3 c-34 -3 -36 -1
-32 22 10 51 -55 206 -87 206 -4 0 7 -52 25 -115 36 -130 39 -125 -55 -125
-68 0 -85 -14 -36 -30 24 -8 52 -8 97 0 35 5 121 10 191 10 124 0 158 4 158
20 0 18 -65 30 -131 24 l-69 -7 28 64 c16 35 37 88 48 117 20 59 14 72 -37 72
-22 0 -25 -4 -22 -27z"/>
</g>
</svg>
