<?xml version="1.0" standalone="no"?>
<!DOCTYPE svg PUBLIC "-//W3C//DTD SVG 20010904//EN"
 "http://www.w3.org/TR/2001/REC-SVG-20010904/DTD/svg10.dtd">
<svg version="1.0" xmlns="http://www.w3.org/2000/svg"
 width="90.000000pt" height="92.000000pt" viewBox="0 0 90.000000 92.000000"
 preserveAspectRatio="xMidYMid meet">
<metadata>
Created by potrace 1.16, written by Peter Selinger 2001-2019
</metadata>
<g transform="translate(0.000000,92.000000) scale(0.100000,-0.100000)"
fill="#000000" stroke="none">
<path d="M462 829 c5 -29 6 -55 1 -60 -5 -5 -41 -11 -81 -15 -39 -4 -72 -11
-72 -16 0 -16 45 -25 103 -20 52 4 57 3 57 -16 0 -23 -44 -34 -132 -34 -42 0
-48 -3 -42 -17 4 -9 9 -65 12 -126 4 -108 16 -151 33 -123 5 7 9 30 9 51 l0
37 60 0 60 0 0 -44 c0 -65 17 -65 30 -2 l11 55 57 6 c31 4 66 9 76 12 15 4 18
1 13 -12 -4 -9 -7 -23 -7 -32 0 -11 -7 -13 -32 -8 l-33 7 40 -41 c40 -42 40
-42 57 -22 18 23 26 75 30 195 3 74 2 80 -22 97 -23 17 -29 17 -85 4 -78 -19
-85 -19 -85 5 0 12 8 21 23 24 135 28 150 36 103 57 -18 9 -33 8 -57 0 -17 -6
-41 -11 -52 -11 -17 0 -19 5 -13 40 5 32 3 41 -13 50 -11 5 -28 10 -39 10 -18
0 -19 -4 -10 -51z m192 -175 c11 -28 6 -34 -26 -32 -18 1 -52 -2 -76 -6 -42
-8 -44 -7 -40 15 2 19 11 25 38 30 66 12 98 10 104 -7z m-184 -29 c0 -20 -6
-25 -37 -30 -21 -3 -48 -8 -60 -11 -19 -4 -23 0 -23 20 0 19 7 26 38 34 65 17
82 15 82 -13z m190 -53 c0 -27 -2 -28 -47 -28 -27 0 -61 -4 -76 -8 -26 -6 -28
-4 -25 16 3 20 12 24 73 34 39 7 71 12 73 13 1 0 2 -12 2 -27z m-190 -32 c0
-16 -7 -20 -37 -20 -21 0 -48 -3 -60 -6 -20 -5 -23 -2 -23 20 0 25 2 26 60 26
53 0 60 -2 60 -20z"/>
<path d="M630 862 c0 -15 76 -82 92 -82 19 0 30 23 22 45 -4 8 -29 22 -57 30
-59 18 -57 17 -57 7z"/>
<path d="M116 782 c-3 -5 15 -30 39 -56 47 -52 78 -58 83 -18 4 29 -21 58 -56
67 -15 3 -34 8 -44 11 -9 3 -19 1 -22 -4z"/>
<path d="M49 572 c6 -11 26 -37 45 -56 39 -42 66 -40 66 5 0 34 -30 57 -85 66
-35 6 -37 5 -26 -15z"/>
<path d="M172 386 c-24 -47 -59 -102 -77 -122 -37 -40 -38 -58 -8 -117 20 -40
34 -30 54 39 9 32 33 104 53 159 20 55 36 106 36 113 0 29 -18 7 -58 -72z"/>
<path d="M564 395 c4 -14 5 -25 4 -25 -2 0 -57 -7 -123 -15 -66 -8 -141 -15
-167 -15 -55 0 -61 -13 -17 -35 27 -15 37 -15 97 -1 37 8 102 18 145 22 l77 7
0 -94 c0 -114 -5 -124 -55 -115 l-37 7 43 -50 c24 -28 50 -51 57 -51 7 0 20
17 29 38 12 30 14 58 8 150 l-6 112 94 0 c132 0 159 13 95 46 -24 12 -45 15
-90 10 -33 -4 -66 -10 -74 -13 -9 -3 -14 1 -14 11 0 9 -12 21 -26 26 -39 15
-47 12 -40 -15z"/>
<path d="M380 267 c0 -21 58 -97 74 -97 20 0 29 35 16 60 -6 12 -27 28 -45 36
-42 17 -45 17 -45 1z"/>
</g>
</svg>
