<?xml version="1.0" standalone="no"?>
<!DOCTYPE svg PUBLIC "-//W3C//DTD SVG 20010904//EN"
 "http://www.w3.org/TR/2001/REC-SVG-20010904/DTD/svg10.dtd">
<svg version="1.0" xmlns="http://www.w3.org/2000/svg"
 width="96.000000pt" height="68.000000pt" viewBox="0 0 96.000000 68.000000"
 preserveAspectRatio="xMidYMid meet">
<metadata>
Created by potrace 1.16, written by Peter Selinger 2001-2019
</metadata>
<g transform="translate(0.000000,68.000000) scale(0.100000,-0.100000)"
fill="#000000" stroke="none">
<path d="M420 596 c0 -17 -73 -111 -127 -165 -32 -31 -36 -33 -74 -23 -45 12
-53 4 -38 -35 6 -15 13 -79 16 -141 6 -107 20 -158 40 -139 4 5 7 71 5 147
l-4 137 34 7 c84 15 381 38 401 31 21 -9 26 -35 21 -118 -5 -89 -22 -157 -42
-164 -8 -4 -30 0 -49 6 -19 7 -36 11 -39 9 -2 -3 16 -26 40 -52 43 -47 45 -48
72 -34 41 19 65 78 75 183 5 50 14 107 20 127 23 73 -21 87 -203 64 -68 -8
-152 -18 -188 -21 l-65 -7 30 21 c17 11 38 26 49 33 10 7 28 22 40 33 11 11
36 32 55 46 l34 27 -24 15 c-38 23 -79 30 -79 13z"/>
<path d="M450 329 c-19 -5 -54 -8 -77 -7 -23 1 -45 -1 -49 -5 -4 -4 -2 -7 4
-7 6 0 16 -24 22 -52 12 -61 26 -88 38 -73 4 6 32 11 62 13 80 5 85 8 98 57 7
25 17 45 24 45 6 0 3 9 -7 20 -19 21 -55 24 -115 9z m39 -18 c22 -14 6 -77
-22 -85 -40 -11 -75 -6 -81 10 -13 35 -6 64 17 68 30 7 61 13 67 15 3 0 11 -3
19 -8z"/>
</g>
</svg>
