<?xml version="1.0" standalone="no"?>
<!DOCTYPE svg PUBLIC "-//W3C//DTD SVG 20010904//EN"
 "http://www.w3.org/TR/2001/REC-SVG-20010904/DTD/svg10.dtd">
<svg version="1.0" xmlns="http://www.w3.org/2000/svg"
 width="96.000000pt" height="68.000000pt" viewBox="0 0 96.000000 68.000000"
 preserveAspectRatio="xMidYMid meet">
<metadata>
Created by potrace 1.16, written by Peter Selinger 2001-2019
</metadata>
<g transform="translate(0.000000,68.000000) scale(0.100000,-0.100000)"
fill="#000000" stroke="none">
<path d="M326 574 c-3 -9 -6 -23 -6 -31 0 -27 -87 -139 -157 -202 -37 -34 -64
-61 -60 -61 18 0 75 34 121 73 l48 40 -5 -114 c-3 -63 -9 -127 -12 -144 -4
-20 -1 -37 9 -50 15 -19 17 -19 30 -3 16 21 30 298 15 312 -16 17 -10 31 42
96 l52 64 -23 18 c-27 22 -46 23 -54 2z"/>
</g>
</svg>
