<?xml version="1.0" standalone="no"?>
<!DOCTYPE svg PUBLIC "-//W3C//DTD SVG 20010904//EN"
 "http://www.w3.org/TR/2001/REC-SVG-20010904/DTD/svg10.dtd">
<svg version="1.0" xmlns="http://www.w3.org/2000/svg"
 width="90.000000pt" height="92.000000pt" viewBox="0 0 90.000000 92.000000"
 preserveAspectRatio="xMidYMid meet">
<metadata>
Created by potrace 1.16, written by Peter Selinger 2001-2019
</metadata>
<g transform="translate(0.000000,92.000000) scale(0.100000,-0.100000)"
fill="#000000" stroke="none">
<path d="M476 902 c-3 -5 0 -23 6 -39 18 -48 7 -60 -61 -68 -34 -4 -63 -11
-66 -15 -9 -15 34 -22 86 -15 l51 7 -4 -28 c-3 -25 -8 -30 -41 -35 -20 -3 -40
-9 -44 -12 -14 -15 33 -19 97 -8 38 6 87 11 109 11 42 0 51 9 27 29 -9 7 -29
9 -55 5 -39 -6 -41 -5 -41 19 0 30 15 37 85 37 57 0 74 10 50 30 -11 9 -33 11
-76 6 l-62 -7 6 29 c4 19 1 34 -6 40 -19 15 -55 24 -61 14z"/>
<path d="M185 699 c-44 -11 -99 -18 -123 -15 -47 4 -47 5 -28 -49 8 -22 17
-79 21 -126 7 -95 16 -119 37 -102 19 15 158 26 173 13 19 -16 24 -4 45 121
11 61 22 119 25 129 4 12 -2 24 -17 34 -27 19 -31 19 -133 -5z m83 -70 l3 -45
-40 0 -41 1 3 40 c2 42 16 56 52 52 16 -2 21 -10 23 -48z m-120 -15 c3 -36 0
-42 -20 -48 -35 -9 -35 -9 -41 36 -6 46 4 60 38 56 16 -2 21 -12 23 -44z m118
-76 c-3 -13 -6 -35 -6 -50 0 -23 -4 -27 -29 -26 -24 1 -30 6 -35 31 -10 50 -7
56 27 60 17 2 36 5 41 5 4 1 6 -8 2 -20z m-106 -45 c0 -41 -2 -43 -29 -43 -24
0 -29 5 -35 31 -10 51 -8 55 29 55 35 0 35 -1 35 -43z"/>
<path d="M630 669 c-47 -10 -129 -25 -184 -33 -54 -8 -101 -17 -104 -21 -11
-11 22 -26 48 -21 91 18 311 48 316 43 3 -3 -2 -19 -10 -36 -9 -16 -16 -32
-16 -35 0 -8 125 53 128 63 3 9 -28 31 -68 47 -19 8 -47 6 -110 -7z"/>
<path d="M500 573 c-92 -21 -92 -22 -84 -34 4 -7 22 -9 45 -6 37 5 39 4 39
-23 0 -27 -3 -29 -47 -35 -27 -3 -57 -10 -68 -14 -46 -19 36 -22 147 -6 141
21 149 23 124 37 -10 6 -39 8 -67 4 -49 -7 -49 -7 -49 22 0 27 4 30 40 36 22
3 40 10 40 15 0 8 -37 22 -50 20 -3 -1 -34 -8 -70 -16z"/>
<path d="M710 430 c-39 -10 -283 -39 -404 -49 -85 -6 -105 -21 -57 -41 25 -10
44 -9 118 9 48 11 127 23 174 27 l86 7 6 -29 c3 -16 3 -31 1 -33 -2 -2 -37 -9
-76 -15 -66 -11 -71 -13 -51 -24 16 -9 38 -10 78 -4 l55 9 0 -76 c0 -93 -7
-105 -53 -99 l-34 4 35 -43 c41 -48 51 -51 76 -24 15 17 18 38 17 130 l-1 110
52 3 c28 2 53 8 55 15 5 14 -32 27 -72 25 -26 -2 -30 1 -30 23 0 25 1 25 82
25 45 0 84 4 87 9 10 15 -32 43 -71 46 -21 2 -54 0 -73 -5z"/>
<path d="M385 315 c-16 -8 -47 -14 -69 -15 -29 0 -36 -3 -28 -12 5 -7 15 -33
22 -58 18 -71 19 -73 33 -62 6 6 33 13 59 17 35 5 45 11 41 22 -3 8 3 32 12
54 11 24 15 43 9 48 -18 17 -49 19 -79 6z m20 -36 c13 -21 -5 -57 -31 -63 -31
-8 -29 -9 -38 26 -5 22 -2 28 22 36 36 14 40 14 47 1z"/>
<path d="M518 213 c34 -47 52 -60 63 -42 20 32 5 52 -50 64 l-34 7 21 -29z"/>
</g>
</svg>
