<?xml version="1.0" standalone="no"?>
<!DOCTYPE svg PUBLIC "-//W3C//DTD SVG 20010904//EN"
 "http://www.w3.org/TR/2001/REC-SVG-20010904/DTD/svg10.dtd">
<svg version="1.0" xmlns="http://www.w3.org/2000/svg"
 width="96.000000pt" height="68.000000pt" viewBox="0 0 96.000000 68.000000"
 preserveAspectRatio="xMidYMid meet">
<metadata>
Created by potrace 1.16, written by Peter Selinger 2001-2019
</metadata>
<g transform="translate(0.000000,68.000000) scale(0.100000,-0.100000)"
fill="#000000" stroke="none">
<path d="M583 340 c-1 -33 -7 -68 -13 -79 -10 -20 -12 -19 -54 9 -24 17 -49
30 -55 30 -22 0 -10 -16 25 -35 19 -10 40 -28 46 -39 10 -18 6 -25 -26 -51
-21 -16 -57 -38 -79 -47 -41 -17 -42 -17 -11 -17 28 -1 86 24 141 59 19 13 25
10 73 -33 51 -46 54 -47 114 -46 68 1 121 13 96 22 -8 2 -44 12 -80 21 -81 21
-166 67 -161 87 2 8 13 45 23 82 22 77 19 97 -14 97 -21 0 -23 -5 -25 -60z"/>
</g>
</svg>
