<?xml version="1.0" standalone="no"?>
<!DOCTYPE svg PUBLIC "-//W3C//DTD SVG 20010904//EN"
 "http://www.w3.org/TR/2001/REC-SVG-20010904/DTD/svg10.dtd">
<svg version="1.0" xmlns="http://www.w3.org/2000/svg"
 width="90.000000pt" height="92.000000pt" viewBox="0 0 90.000000 92.000000"
 preserveAspectRatio="xMidYMid meet">
<metadata>
Created by potrace 1.16, written by Peter Selinger 2001-2019
</metadata>
<g transform="translate(0.000000,92.000000) scale(0.100000,-0.100000)"
fill="#000000" stroke="none">
<path d="M527 854 c-3 -4 -2 -14 2 -23 5 -9 11 -76 13 -148 4 -151 9 -143 -83
-143 -53 0 -78 -12 -46 -23 9 -3 12 -37 12 -128 0 -132 -12 -181 -62 -261 -13
-21 -20 -38 -15 -38 17 0 82 78 102 122 21 48 21 48 45 32 24 -16 28 -15 93
24 66 40 105 72 85 72 -6 0 -34 -8 -64 -19 -31 -10 -73 -22 -96 -25 l-40 -7 5
73 c2 40 6 75 8 77 1 1 29 -13 61 -33 63 -39 88 -44 97 -21 13 36 -18 54 -121
70 -36 6 -43 10 -43 30 0 21 6 24 84 35 131 18 121 31 124 -160 1 -91 0 -176
-3 -189 -6 -22 -10 -23 -51 -17 l-45 6 48 -55 c26 -31 52 -54 57 -52 5 2 19
16 30 31 19 25 21 43 23 219 0 106 3 203 5 216 2 16 -5 30 -23 43 -25 19 -31
19 -78 7 -28 -7 -53 -10 -56 -7 -3 3 -2 65 3 139 8 115 7 136 -7 147 -16 13
-53 16 -64 6z"/>
<path d="M270 809 c-47 -43 -168 -119 -188 -119 -7 0 -12 -5 -12 -11 0 -14 59
-4 106 18 19 9 36 14 39 11 8 -7 26 -131 20 -136 -2 -2 -51 -11 -109 -20 -58
-9 -106 -19 -106 -24 0 -4 14 -14 30 -23 27 -14 36 -14 91 0 34 9 64 13 67 10
12 -12 -72 -155 -130 -222 -32 -37 -56 -68 -53 -71 8 -8 93 47 119 79 14 17
38 51 52 75 14 24 28 44 31 44 8 0 -4 -146 -18 -222 -10 -55 -9 -68 5 -96 39
-76 55 -21 56 198 1 99 3 180 5 180 2 0 24 -21 48 -47 41 -43 45 -45 54 -27
17 31 -2 63 -52 85 -52 23 -60 49 -16 49 48 0 91 12 91 25 0 17 -37 26 -81 19
l-36 -6 9 58 c8 54 7 60 -13 77 -26 21 -27 19 36 42 28 10 57 25 65 32 13 13
12 17 -13 39 -15 13 -33 24 -40 24 -7 -1 -32 -19 -57 -41z"/>
<path d="M705 733 c-14 -32 -36 -68 -47 -80 -12 -13 -16 -23 -9 -23 20 0 151
82 151 95 0 11 -33 45 -57 59 -7 4 -21 -15 -38 -51z"/>
<path d="M380 720 c0 -22 63 -100 81 -100 41 0 35 61 -9 84 -45 22 -72 29 -72
16z"/>
</g>
</svg>
