<?xml version="1.0" standalone="no"?>
<!DOCTYPE svg PUBLIC "-//W3C//DTD SVG 20010904//EN"
 "http://www.w3.org/TR/2001/REC-SVG-20010904/DTD/svg10.dtd">
<svg version="1.0" xmlns="http://www.w3.org/2000/svg"
 width="96.000000pt" height="68.000000pt" viewBox="0 0 96.000000 68.000000"
 preserveAspectRatio="xMidYMid meet">
<metadata>
Created by potrace 1.16, written by Peter Selinger 2001-2019
</metadata>
<g transform="translate(0.000000,68.000000) scale(0.100000,-0.100000)"
fill="#000000" stroke="none">
<path d="M313 492 c-8 -5 -9 -13 -3 -22 6 -8 10 -31 10 -51 l0 -36 -92 -12
c-51 -7 -94 -14 -97 -17 -17 -17 58 -24 127 -11 l44 7 -24 -42 c-13 -23 -51
-70 -84 -105 -34 -35 -57 -63 -51 -63 24 0 98 53 137 97 l41 48 -7 -55 c-3
-30 -10 -73 -14 -94 -11 -48 -2 -96 17 -103 26 -10 33 19 33 142 0 120 9 163
26 133 12 -21 59 -49 67 -41 20 19 4 42 -38 59 -25 9 -45 20 -45 24 0 12 28
20 71 20 21 0 39 4 39 9 0 13 -39 21 -73 14 l-30 -6 5 41 c8 53 -23 87 -59 64z"/>
</g>
</svg>
