<?xml version="1.0" standalone="no"?>
<!DOCTYPE svg PUBLIC "-//W3C//DTD SVG 20010904//EN"
 "http://www.w3.org/TR/2001/REC-SVG-20010904/DTD/svg10.dtd">
<svg version="1.0" xmlns="http://www.w3.org/2000/svg"
 width="96.000000pt" height="68.000000pt" viewBox="0 0 96.000000 68.000000"
 preserveAspectRatio="xMidYMid meet">
<metadata>
Created by potrace 1.16, written by Peter Selinger 2001-2019
</metadata>
<g transform="translate(0.000000,68.000000) scale(0.100000,-0.100000)"
fill="#000000" stroke="none">
<path d="M327 247 c-38 -8 -46 -14 -41 -26 3 -9 10 -31 16 -49 8 -27 12 -31
28 -22 10 5 33 10 50 10 19 0 29 4 25 10 -4 6 1 22 10 36 33 51 9 62 -88 41z
m51 -39 c-2 -17 -11 -24 -30 -26 -16 -2 -28 1 -28 7 0 5 -3 16 -6 25 -5 13 1
16 31 16 32 0 36 -3 33 -22z"/>
</g>
</svg>
