<?xml version="1.0" standalone="no"?>
<!DOCTYPE svg PUBLIC "-//W3C//DTD SVG 20010904//EN"
 "http://www.w3.org/TR/2001/REC-SVG-20010904/DTD/svg10.dtd">
<svg version="1.0" xmlns="http://www.w3.org/2000/svg"
 width="96.000000pt" height="68.000000pt" viewBox="0 0 96.000000 68.000000"
 preserveAspectRatio="xMidYMid meet">
<metadata>
Created by potrace 1.16, written by Peter Selinger 2001-2019
</metadata>
<g transform="translate(0.000000,68.000000) scale(0.100000,-0.100000)"
fill="#000000" stroke="none">
<path d="M500 625 c0 -18 -8 -29 -27 -37 -27 -11 -27 -12 -6 -15 19 -4 21 -8
13 -29 -12 -31 -5 -31 23 1 14 16 37 27 62 30 89 12 105 16 99 27 -4 6 -27 8
-64 4 -54 -6 -57 -6 -56 16 1 17 -5 24 -21 26 -19 3 -23 -1 -23 -23z"/>
<path d="M294 602 c15 -29 14 -30 -7 -36 -12 -3 -39 -6 -59 -6 -21 0 -38 -4
-38 -9 0 -17 38 -22 80 -11 38 10 43 9 60 -12 l19 -23 1 26 c0 17 8 30 23 37
l22 12 -24 -3 c-19 -1 -26 4 -31 23 -4 18 -14 26 -34 28 -27 3 -27 3 -12 -26z"/>
</g>
</svg>
