<?xml version="1.0" standalone="no"?>
<!DOCTYPE svg PUBLIC "-//W3C//DTD SVG 20010904//EN"
 "http://www.w3.org/TR/2001/REC-SVG-20010904/DTD/svg10.dtd">
<svg version="1.0" xmlns="http://www.w3.org/2000/svg"
 width="90.000000pt" height="92.000000pt" viewBox="0 0 90.000000 92.000000"
 preserveAspectRatio="xMidYMid meet">
<metadata>
Created by potrace 1.16, written by Peter Selinger 2001-2019
</metadata>
<g transform="translate(0.000000,92.000000) scale(0.100000,-0.100000)"
fill="#000000" stroke="none">
<path d="M500 822 c0 -5 11 -30 24 -58 28 -59 32 -56 -102 -74 -50 -7 -92 -16
-92 -20 0 -4 13 -13 29 -19 22 -10 45 -9 112 3 46 9 132 20 192 25 59 4 111
11 115 15 4 4 -4 17 -18 28 -19 15 -33 18 -60 14 -119 -21 -115 -21 -115 15 0
26 -7 37 -34 56 -35 24 -51 29 -51 15z"/>
<path d="M120 773 c0 -6 19 -31 41 -57 29 -33 48 -46 63 -44 31 4 29 55 -4 79
-29 21 -100 36 -100 22z"/>
<path d="M525 608 c-22 -5 -50 -11 -62 -14 -30 -6 -29 -22 0 -29 23 -6 195 19
206 30 11 12 -25 25 -64 24 -22 -1 -58 -5 -80 -11z"/>
<path d="M194 564 c-12 -8 -44 -23 -73 -33 -29 -10 -53 -22 -54 -27 -3 -13 60
-17 94 -5 33 11 35 6 19 -47 -8 -29 -5 -39 16 -72 16 -23 26 -54 27 -81 l2
-44 -95 -5 -95 -5 27 -27 c24 -25 30 -27 55 -17 15 6 60 12 98 13 65 1 82 -4
248 -72 98 -39 189 -72 201 -72 40 0 216 65 216 80 0 4 -64 10 -142 13 -158 7
-253 22 -373 61 -44 14 -88 26 -97 26 -15 0 -15 4 -6 30 14 41 3 76 -33 109
l-30 28 40 51 c46 58 48 63 24 84 -28 23 -46 27 -69 12z"/>
<path d="M520 515 c-36 -7 -68 -13 -72 -14 -16 -2 -7 -20 13 -26 19 -6 174 10
209 21 12 5 12 8 -4 20 -23 16 -56 16 -146 -1z"/>
<path d="M600 424 c-30 -8 -83 -15 -117 -17 -34 -2 -65 -6 -69 -10 -4 -4 -2
-7 4 -7 6 0 16 -26 22 -57 15 -75 29 -110 38 -96 4 7 51 15 108 19 l100 7 0
31 c0 17 8 47 18 66 17 35 17 35 -9 58 -14 12 -29 22 -33 21 -4 -1 -32 -7 -62
-15z m33 -30 c11 -4 12 -14 7 -45 -4 -22 -11 -43 -14 -47 -7 -7 -128 -21 -135
-16 -2 2 -6 23 -8 47 l-5 44 58 10 c78 14 80 14 97 7z"/>
</g>
</svg>
