<?xml version="1.0" standalone="no"?>
<!DOCTYPE svg PUBLIC "-//W3C//DTD SVG 20010904//EN"
 "http://www.w3.org/TR/2001/REC-SVG-20010904/DTD/svg10.dtd">
<svg version="1.0" xmlns="http://www.w3.org/2000/svg"
 width="96.000000pt" height="68.000000pt" viewBox="0 0 96.000000 68.000000"
 preserveAspectRatio="xMidYMid meet">
<metadata>
Created by potrace 1.16, written by Peter Selinger 2001-2019
</metadata>
<g transform="translate(0.000000,68.000000) scale(0.100000,-0.100000)"
fill="#000000" stroke="none">
<path d="M510 583 c0 -5 9 -22 19 -40 l20 -31 -22 -5 c-12 -3 -52 -9 -90 -12
-37 -4 -70 -11 -72 -15 -9 -15 49 -20 110 -10 32 5 106 13 162 16 57 4 106 11
109 15 2 4 -5 13 -17 20 -20 10 -65 8 -126 -8 -19 -4 -23 -1 -23 20 0 15 -9
32 -22 41 -24 17 -48 21 -48 9z"/>
</g>
</svg>
