<?xml version="1.0" standalone="no"?>
<!DOCTYPE svg PUBLIC "-//W3C//DTD SVG 20010904//EN"
 "http://www.w3.org/TR/2001/REC-SVG-20010904/DTD/svg10.dtd">
<svg version="1.0" xmlns="http://www.w3.org/2000/svg"
 width="96.000000pt" height="68.000000pt" viewBox="0 0 96.000000 68.000000"
 preserveAspectRatio="xMidYMid meet">
<metadata>
Created by potrace 1.16, written by Peter Selinger 2001-2019
</metadata>
<g transform="translate(0.000000,68.000000) scale(0.100000,-0.100000)"
fill="#000000" stroke="none">
<path d="M261 537 c-6 -6 -11 -19 -11 -29 0 -23 -38 -84 -76 -121 -22 -23 -26
-32 -17 -45 11 -18 29 -20 78 -8 29 7 27 5 -22 -44 -29 -28 -53 -55 -53 -60 0
-18 31 -17 96 5 40 13 73 19 78 14 17 -16 36 -10 36 11 0 21 -27 40 -57 40
-15 0 -16 -2 -3 -10 13 -9 13 -11 0 -20 -19 -12 -79 -24 -86 -17 -5 5 28 39
120 125 30 28 34 37 26 53 -6 10 -15 19 -19 19 -11 0 -44 -50 -44 -65 0 -6
-20 -12 -44 -14 l-44 -2 51 65 c28 36 50 73 48 82 -4 22 -42 36 -57 21z"/>
<path d="M709 495 c-8 -8 -170 -26 -247 -27 -54 -1 -62 -3 -57 -17 15 -38 16
-86 5 -220 -9 -110 -9 -146 1 -157 15 -18 29 -18 29 0 0 9 25 15 92 20 165 11
174 10 188 -24 15 -37 44 -39 66 -5 13 21 15 50 12 187 -1 90 1 173 5 185 6
17 3 25 -15 37 -27 18 -71 29 -79 21z m20 -53 c13 -24 25 -212 17 -266 l-7
-46 -67 -1 c-37 0 -97 -3 -134 -8 -37 -4 -73 -4 -80 0 -10 6 -12 41 -7 159 4
83 9 153 11 155 7 7 137 22 200 24 45 1 59 -3 67 -17z"/>
<path d="M568 398 c-3 -43 -3 -43 -45 -46 -54 -4 -56 -22 -3 -22 22 0 40 -4
40 -9 0 -11 -40 -63 -62 -79 -19 -14 -24 -32 -10 -32 4 0 25 15 45 34 l37 34
0 -64 c0 -58 11 -86 28 -69 4 4 9 38 12 76 l5 70 40 -35 c22 -20 46 -36 53
-36 23 0 9 44 -18 56 -14 7 -37 18 -52 25 -42 19 -34 37 17 45 58 8 58 24 1
24 -43 0 -45 1 -48 32 -2 21 -9 34 -20 36 -13 3 -17 -6 -20 -40z"/>
<path d="M316 185 c17 -27 44 -34 44 -12 0 19 -21 37 -42 37 -17 0 -17 -1 -2
-25z"/>
<path d="M220 181 c0 -6 11 -23 25 -38 21 -24 26 -26 35 -13 8 11 4 20 -16 38
-26 23 -44 28 -44 13z"/>
<path d="M120 155 c0 -15 55 -85 64 -82 23 7 17 45 -10 66 -25 19 -54 28 -54
16z"/>
</g>
</svg>
