<?xml version="1.0" standalone="no"?>
<!DOCTYPE svg PUBLIC "-//W3C//DTD SVG 20010904//EN"
 "http://www.w3.org/TR/2001/REC-SVG-20010904/DTD/svg10.dtd">
<svg version="1.0" xmlns="http://www.w3.org/2000/svg"
 width="96.000000pt" height="68.000000pt" viewBox="0 0 96.000000 68.000000"
 preserveAspectRatio="xMidYMid meet">
<metadata>
Created by potrace 1.16, written by Peter Selinger 2001-2019
</metadata>
<g transform="translate(0.000000,68.000000) scale(0.100000,-0.100000)"
fill="#000000" stroke="none">
<path d="M500 320 c-36 -4 -101 -8 -145 -9 l-80 -1 -1 -57 c-1 -32 -3 -70 -4
-85 -3 -33 18 -64 33 -49 5 5 12 43 15 84 l4 75 52 6 c28 3 95 9 148 12 l97 7
5 -34 c3 -19 2 -50 -2 -69 -8 -33 -11 -35 -45 -34 -20 1 -37 -1 -37 -4 0 -3
12 -19 27 -34 53 -56 93 -27 107 77 3 28 9 61 12 76 10 46 -37 55 -186 39z"/>
</g>
</svg>
