<?xml version="1.0" standalone="no"?>
<!DOCTYPE svg PUBLIC "-//W3C//DTD SVG 20010904//EN"
 "http://www.w3.org/TR/2001/REC-SVG-20010904/DTD/svg10.dtd">
<svg version="1.0" xmlns="http://www.w3.org/2000/svg"
 width="96.000000pt" height="68.000000pt" viewBox="0 0 96.000000 68.000000"
 preserveAspectRatio="xMidYMid meet">
<metadata>
Created by potrace 1.16, written by Peter Selinger 2001-2019
</metadata>
<g transform="translate(0.000000,68.000000) scale(0.100000,-0.100000)"
fill="#000000" stroke="none">
<path d="M490 535 c-91 -13 -169 -24 -173 -24 -5 -1 -1 -8 8 -17 13 -14 15
-29 10 -83 -12 -127 -46 -223 -116 -328 -29 -46 -11 -41 39 10 62 63 101 174
126 358 l7 47 92 10 c51 6 128 14 172 18 71 5 77 8 60 20 -23 17 -21 17 -225
-11z"/>
</g>
</svg>
