<?xml version="1.0" standalone="no"?>
<!DOCTYPE svg PUBLIC "-//W3C//DTD SVG 20010904//EN"
 "http://www.w3.org/TR/2001/REC-SVG-20010904/DTD/svg10.dtd">
<svg version="1.0" xmlns="http://www.w3.org/2000/svg"
 width="90.000000pt" height="92.000000pt" viewBox="0 0 90.000000 92.000000"
 preserveAspectRatio="xMidYMid meet">
<metadata>
Created by potrace 1.16, written by Peter Selinger 2001-2019
</metadata>
<g transform="translate(0.000000,92.000000) scale(0.100000,-0.100000)"
fill="#000000" stroke="none">
<path d="M160 797 c0 -8 13 -39 30 -70 21 -39 26 -57 17 -60 -7 -3 -54 -11
-105 -18 -98 -14 -115 -27 -62 -49 25 -10 40 -10 88 3 31 9 97 23 146 32 49 8
91 17 93 19 11 11 -35 30 -68 29 -38 -2 -39 -1 -39 31 0 41 -16 61 -62 81 -31
13 -38 13 -38 2z"/>
<path d="M610 793 c-36 -8 -107 -16 -157 -17 -51 0 -93 -5 -93 -9 0 -4 7 -19
16 -32 9 -14 21 -62 26 -107 14 -114 15 -116 82 -110 l56 4 0 -34 0 -35 -61
-7 c-34 -3 -78 -6 -98 -6 -57 0 -70 -15 -31 -35 29 -15 41 -15 92 -5 33 6 62
9 65 6 11 -10 -80 -127 -144 -185 -72 -65 -74 -70 -16 -46 53 22 98 59 145
118 l41 52 -7 -65 c-4 -36 -12 -88 -17 -117 -8 -40 -7 -59 5 -87 34 -82 56
-18 56 167 l0 140 56 -79 c88 -124 100 -134 155 -134 26 0 60 5 76 11 28 10
27 11 -62 57 -64 33 -108 65 -155 112 l-65 65 135 5 c111 4 135 8 135 20 0 32
-52 43 -139 31 -121 -17 -136 -15 -136 12 0 33 11 44 53 52 25 5 42 3 53 -6
24 -20 39 4 72 116 16 55 32 107 36 115 8 20 -42 50 -81 49 -15 -1 -57 -8 -93
-16z m90 -68 l0 -45 -39 0 c-22 0 -47 -3 -57 -7 -15 -5 -16 -2 -11 24 4 22 1
35 -10 44 -14 12 -13 14 8 20 13 4 43 7 67 8 l42 1 0 -45z m-176 3 c3 -13 6
-33 6 -45 0 -21 -5 -23 -45 -23 -41 0 -45 2 -45 24 0 13 -3 31 -6 39 -4 11 2
17 18 20 53 10 66 7 72 -15z m162 -110 c-3 -17 -7 -33 -9 -34 -1 -1 -23 -5
-49 -9 l-48 -7 0 35 c0 34 2 36 38 40 80 8 75 10 68 -25z m-146 -22 c0 -35
-15 -46 -66 -46 -18 0 -23 7 -26 40 l-4 40 48 0 c48 0 48 0 48 -34z"/>
<path d="M178 541 c-31 -9 -60 -19 -63 -23 -15 -15 49 -20 108 -8 70 15 89 26
67 40 -20 13 -44 11 -112 -9z"/>
<path d="M176 446 c-105 -25 -41 -49 72 -27 50 10 62 19 42 31 -19 12 -52 11
-114 -4z"/>
<path d="M220 349 c-25 -10 -66 -18 -92 -18 -52 -1 -56 -5 -33 -27 8 -8 19
-41 26 -74 6 -33 18 -65 25 -71 8 -6 14 -7 14 -2 0 5 32 15 70 22 39 7 70 17
70 22 0 5 -4 9 -9 9 -12 0 0 44 24 89 14 28 15 36 3 46 -23 22 -51 23 -98 4z
m36 -45 c-3 -9 -6 -29 -6 -45 0 -25 -6 -33 -36 -45 -43 -18 -50 -13 -57 43 -5
41 -4 43 26 52 53 15 80 13 73 -5z"/>
</g>
</svg>
