<?xml version="1.0" standalone="no"?>
<!DOCTYPE svg PUBLIC "-//W3C//DTD SVG 20010904//EN"
 "http://www.w3.org/TR/2001/REC-SVG-20010904/DTD/svg10.dtd">
<svg version="1.0" xmlns="http://www.w3.org/2000/svg"
 width="96.000000pt" height="68.000000pt" viewBox="0 0 96.000000 68.000000"
 preserveAspectRatio="xMidYMid meet">
<metadata>
Created by potrace 1.16, written by Peter Selinger 2001-2019
</metadata>
<g transform="translate(0.000000,68.000000) scale(0.100000,-0.100000)"
fill="#000000" stroke="none">
<path d="M550 346 c0 -28 -28 -36 -121 -36 -33 0 -59 -4 -59 -9 0 -15 47 -22
105 -15 32 4 55 3 55 -3 0 -14 -99 -112 -142 -141 -21 -14 -36 -27 -34 -29 10
-10 113 51 155 90 l44 42 -7 -50 c-3 -27 -8 -68 -12 -90 -4 -28 -1 -46 10 -60
25 -34 36 -6 44 110 l7 108 64 -71 c62 -71 64 -72 111 -72 90 0 88 10 -7 56
-48 24 -108 61 -133 83 l-45 40 95 2 c52 1 102 2 110 1 8 -1 22 1 30 4 12 4
12 8 -5 20 -15 11 -40 13 -122 8 -101 -7 -103 -6 -103 15 0 14 -6 21 -20 21
-14 0 -20 -7 -20 -24z"/>
</g>
</svg>
