<?xml version="1.0" standalone="no"?>
<!DOCTYPE svg PUBLIC "-//W3C//DTD SVG 20010904//EN"
 "http://www.w3.org/TR/2001/REC-SVG-20010904/DTD/svg10.dtd">
<svg version="1.0" xmlns="http://www.w3.org/2000/svg"
 width="96.000000pt" height="68.000000pt" viewBox="0 0 96.000000 68.000000"
 preserveAspectRatio="xMidYMid meet">
<metadata>
Created by potrace 1.16, written by Peter Selinger 2001-2019
</metadata>
<g transform="translate(0.000000,68.000000) scale(0.100000,-0.100000)"
fill="#000000" stroke="none">
<path d="M630 242 c0 -5 -12 -22 -26 -37 -20 -22 -23 -30 -12 -37 10 -7 8 -8
-5 -4 -11 4 -38 -10 -76 -39 -33 -25 -64 -45 -69 -45 -6 0 -14 -4 -17 -10 -4
-6 2 -7 17 -1 47 19 77 38 70 46 -4 5 1 5 11 2 11 -4 16 -3 12 3 -3 6 0 10 8
10 21 0 138 81 131 91 -8 14 -44 31 -44 21z"/>
</g>
</svg>
