<?xml version="1.0" standalone="no"?>
<!DOCTYPE svg PUBLIC "-//W3C//DTD SVG 20010904//EN"
 "http://www.w3.org/TR/2001/REC-SVG-20010904/DTD/svg10.dtd">
<svg version="1.0" xmlns="http://www.w3.org/2000/svg"
 width="96.000000pt" height="68.000000pt" viewBox="0 0 96.000000 68.000000"
 preserveAspectRatio="xMidYMid meet">
<metadata>
Created by potrace 1.16, written by Peter Selinger 2001-2019
</metadata>
<g transform="translate(0.000000,68.000000) scale(0.100000,-0.100000)"
fill="#000000" stroke="none">
<path d="M400 432 c0 -12 44 -52 58 -52 23 0 12 40 -14 50 -31 12 -44 13 -44
2z"/>
<path d="M393 285 c-43 -18 -42 -29 2 -21 38 7 40 5 24 -26 -8 -16 -7 -29 6
-59 24 -53 15 -69 -37 -69 -33 0 -39 -3 -30 -12 8 -8 34 -12 70 -10 44 2 81
-5 161 -33 119 -40 138 -42 206 -19 63 22 46 30 -80 38 -55 3 -134 14 -175 24
-61 15 -74 21 -72 36 2 9 -6 32 -16 50 l-20 34 32 31 c26 26 29 33 16 41 -21
13 -49 12 -87 -5z"/>
</g>
</svg>
