<?xml version="1.0" standalone="no"?>
<!DOCTYPE svg PUBLIC "-//W3C//DTD SVG 20010904//EN"
 "http://www.w3.org/TR/2001/REC-SVG-20010904/DTD/svg10.dtd">
<svg version="1.0" xmlns="http://www.w3.org/2000/svg"
 width="96.000000pt" height="68.000000pt" viewBox="0 0 96.000000 68.000000"
 preserveAspectRatio="xMidYMid meet">
<metadata>
Created by potrace 1.16, written by Peter Selinger 2001-2019
</metadata>
<g transform="translate(0.000000,68.000000) scale(0.100000,-0.100000)"
fill="#000000" stroke="none">
<path d="M299 568 c-14 -54 -57 -116 -138 -200 -35 -38 -60 -68 -54 -68 13 0
75 42 103 70 36 36 42 14 29 -111 -15 -147 -15 -177 -1 -191 26 -26 35 11 42
169 7 137 6 160 -7 170 -14 11 -9 22 41 87 31 42 56 80 56 85 0 11 -32 31 -49
31 -6 0 -15 -19 -22 -42z"/>
</g>
</svg>
