<?xml version="1.0" standalone="no"?>
<!DOCTYPE svg PUBLIC "-//W3C//DTD SVG 20010904//EN"
 "http://www.w3.org/TR/2001/REC-SVG-20010904/DTD/svg10.dtd">
<svg version="1.0" xmlns="http://www.w3.org/2000/svg"
 width="96.000000pt" height="68.000000pt" viewBox="0 0 96.000000 68.000000"
 preserveAspectRatio="xMidYMid meet">
<metadata>
Created by potrace 1.16, written by Peter Selinger 2001-2019
</metadata>
<g transform="translate(0.000000,68.000000) scale(0.100000,-0.100000)"
fill="#000000" stroke="none">
<path d="M255 588 c3 -13 9 -55 12 -95 l6 -71 -57 -7 c-72 -9 -73 -25 -1 -25
l55 0 0 -48 0 -48 -77 -32 c-43 -18 -84 -32 -90 -32 -18 0 -16 -10 4 -26 27
-20 44 -17 100 21 29 19 55 35 58 35 6 0 0 -67 -11 -117 -4 -19 -9 -22 -37
-16 l-32 6 40 -42 c21 -22 44 -41 50 -41 23 0 35 52 35 145 0 84 2 96 20 107
11 7 20 16 20 19 0 4 -9 5 -20 2 -18 -5 -20 0 -20 35 0 39 2 41 35 48 19 3 35
10 35 15 0 5 -16 9 -35 9 -32 0 -35 3 -35 28 1 15 7 45 15 67 19 53 19 52 -15
70 -44 23 -64 20 -55 -7z"/>
</g>
</svg>
