<?xml version="1.0" standalone="no"?>
<!DOCTYPE svg PUBLIC "-//W3C//DTD SVG 20010904//EN"
 "http://www.w3.org/TR/2001/REC-SVG-20010904/DTD/svg10.dtd">
<svg version="1.0" xmlns="http://www.w3.org/2000/svg"
 width="96.000000pt" height="68.000000pt" viewBox="0 0 96.000000 68.000000"
 preserveAspectRatio="xMidYMid meet">
<metadata>
Created by potrace 1.16, written by Peter Selinger 2001-2019
</metadata>
<g transform="translate(0.000000,68.000000) scale(0.100000,-0.100000)"
fill="#000000" stroke="none">
<path d="M620 444 c-47 -7 -92 -11 -100 -9 -13 4 -15 -11 -15 -95 0 -88 2
-100 18 -100 9 0 17 6 17 14 0 16 183 32 188 16 2 -5 15 -10 28 -10 23 0 24 3
24 68 0 37 3 76 6 88 4 15 -1 23 -21 32 -30 14 -33 14 -145 -4z m108 -46 c3
-25 0 -28 -25 -28 -15 0 -57 -3 -93 -6 l-66 -6 1 28 c1 25 7 30 36 35 19 4 59
6 89 5 52 -1 55 -2 58 -28z m2 -72 c0 -23 -4 -25 -85 -31 -104 -9 -100 -10
-100 18 0 19 7 23 50 28 28 3 69 7 93 7 38 2 42 0 42 -22z"/>
</g>
</svg>
