<?xml version="1.0" standalone="no"?>
<!DOCTYPE svg PUBLIC "-//W3C//DTD SVG 20010904//EN"
 "http://www.w3.org/TR/2001/REC-SVG-20010904/DTD/svg10.dtd">
<svg version="1.0" xmlns="http://www.w3.org/2000/svg"
 width="90.000000pt" height="92.000000pt" viewBox="0 0 90.000000 92.000000"
 preserveAspectRatio="xMidYMid meet">
<metadata>
Created by potrace 1.16, written by Peter Selinger 2001-2019
</metadata>
<g transform="translate(0.000000,92.000000) scale(0.100000,-0.100000)"
fill="#000000" stroke="none">
<path d="M330 884 c-33 -8 -75 -11 -104 -7 -46 6 -49 5 -41 -13 9 -22 23 -113
24 -161 1 -31 -1 -32 -46 -38 -119 -15 -120 -15 -98 -32 20 -14 98 -13 139 3
25 10 19 -12 -14 -49 -32 -37 -34 -44 -21 -65 6 -10 30 -5 115 24 104 36 107
36 127 18 17 -16 22 -16 29 -4 16 26 11 40 -22 60 -44 26 -62 27 -48 0 9 -17
6 -20 -28 -29 -21 -6 -54 -14 -73 -17 -34 -7 -34 -7 -16 14 12 13 16 28 13 40
-6 18 1 21 95 32 91 11 99 14 85 28 -13 14 -25 14 -93 4 -101 -16 -103 -16
-103 8 0 15 7 20 27 20 43 0 153 21 153 30 0 14 -45 20 -81 11 -84 -22 -99
-22 -99 -1 0 17 7 20 43 21 23 0 65 6 92 13 47 11 49 13 28 24 -17 10 -35 9
-85 -3 -79 -19 -78 -19 -78 3 0 15 15 20 85 29 100 14 116 21 90 40 -22 15
-22 15 -95 -3z"/>
<path d="M630 887 c0 -18 -74 -90 -130 -127 -57 -38 -33 -39 46 -1 54 25 164
97 164 107 0 6 -58 34 -70 34 -5 0 -10 -6 -10 -13z"/>
<path d="M630 748 c-13 -17 -51 -48 -84 -70 -75 -48 -78 -51 -41 -43 48 11
215 98 215 112 0 14 -31 33 -52 32 -7 0 -24 -14 -38 -31z"/>
<path d="M660 656 c0 -20 -61 -68 -132 -106 -33 -18 -57 -34 -55 -36 10 -11
215 77 267 114 3 2 -6 12 -19 23 -27 22 -61 25 -61 5z"/>
<path d="M388 506 l21 -35 -27 -5 c-15 -3 -62 -6 -105 -8 -58 -2 -80 1 -87 11
-6 10 -17 -4 -39 -53 -31 -69 -32 -96 -2 -96 17 0 51 57 51 85 0 8 10 13 28
13 15 0 88 9 162 20 166 25 277 35 290 27 6 -4 2 -21 -10 -45 -11 -22 -20 -41
-20 -43 0 -7 125 38 132 48 7 10 -34 60 -63 75 -14 8 -80 1 -236 -25 -27 -5
-31 -3 -26 14 6 23 -30 51 -65 51 l-24 0 20 -34z"/>
<path d="M390 383 c-46 -7 -86 -16 -89 -18 -20 -20 94 -23 189 -5 60 11 65 14
55 29 -8 14 -48 12 -155 -6z"/>
<path d="M570 319 c-162 -20 -348 -39 -382 -39 -46 0 -56 -14 -24 -35 23 -15
31 -16 95 -1 39 9 86 16 105 16 l34 0 7 -64 c4 -35 4 -73 0 -85 -10 -33 4 -83
23 -79 22 4 31 47 29 148 l-2 88 35 6 c19 3 76 6 127 6 74 0 91 3 87 14 -5 13
-48 37 -62 35 -4 -1 -36 -5 -72 -10z"/>
<path d="M592 151 c68 -88 85 -99 99 -68 17 37 -4 73 -63 106 -88 51 -97 41
-36 -38z"/>
<path d="M236 187 c-3 -12 -22 -42 -42 -65 -20 -24 -34 -46 -31 -49 10 -10 91
44 115 77 19 25 21 34 12 46 -19 21 -47 17 -54 -9z"/>
</g>
</svg>
