<?xml version="1.0" standalone="no"?>
<!DOCTYPE svg PUBLIC "-//W3C//DTD SVG 20010904//EN"
 "http://www.w3.org/TR/2001/REC-SVG-20010904/DTD/svg10.dtd">
<svg version="1.0" xmlns="http://www.w3.org/2000/svg"
 width="96.000000pt" height="68.000000pt" viewBox="0 0 96.000000 68.000000"
 preserveAspectRatio="xMidYMid meet">
<metadata>
Created by potrace 1.16, written by Peter Selinger 2001-2019
</metadata>
<g transform="translate(0.000000,68.000000) scale(0.100000,-0.100000)"
fill="#000000" stroke="none">
<path d="M400 605 c-30 -7 -72 -10 -93 -8 -36 5 -37 5 -32 -23 3 -16 9 -49 13
-73 8 -47 30 -66 39 -33 4 17 16 21 74 27 38 4 72 12 75 17 4 6 -20 7 -70 3
-91 -9 -107 10 -18 21 96 12 106 25 14 19 -66 -4 -83 -3 -80 7 3 8 33 16 83
20 43 4 80 10 84 13 5 6 -19 26 -29 23 -3 0 -30 -6 -60 -13z"/>
</g>
</svg>
