<?xml version="1.0" standalone="no"?>
<!DOCTYPE svg PUBLIC "-//W3C//DTD SVG 20010904//EN"
 "http://www.w3.org/TR/2001/REC-SVG-20010904/DTD/svg10.dtd">
<svg version="1.0" xmlns="http://www.w3.org/2000/svg"
 width="96.000000pt" height="68.000000pt" viewBox="0 0 96.000000 68.000000"
 preserveAspectRatio="xMidYMid meet">
<metadata>
Created by potrace 1.16, written by Peter Selinger 2001-2019
</metadata>
<g transform="translate(0.000000,68.000000) scale(0.100000,-0.100000)"
fill="#000000" stroke="none">
<path d="M255 558 c-2 -7 -9 -31 -16 -53 -15 -51 -67 -130 -128 -195 -59 -62
-36 -68 38 -10 59 47 101 54 101 16 0 -20 -6 -25 -45 -30 -25 -4 -45 -11 -45
-16 0 -14 36 -21 64 -14 26 6 26 6 26 -53 0 -40 -4 -60 -12 -62 -7 -1 -43 -5
-81 -7 -37 -3 -67 -9 -67 -14 0 -17 55 -51 75 -47 18 5 129 45 208 76 39 15
35 35 -5 27 l-33 -6 25 20 c14 11 28 20 33 20 16 0 6 30 -14 41 -18 9 -24 8
-33 -7 -6 -11 -11 -21 -12 -24 -16 -74 -36 -79 -32 -8 3 51 4 53 40 63 20 5
40 13 43 17 10 9 -41 22 -60 14 -11 -4 -15 2 -15 24 0 26 3 30 29 30 17 0 33
5 37 11 9 15 -17 30 -41 24 -11 -3 -40 -8 -64 -12 l-44 -6 24 34 c13 19 27 36
32 37 4 2 7 10 7 17 0 26 21 27 47 1 14 -14 31 -26 38 -26 20 0 26 28 10 44
-8 7 -11 17 -7 21 4 4 3 5 -3 4 -15 -4 -55 11 -55 21 0 14 -30 40 -46 40 -8 0
-16 -6 -19 -12z"/>
<path d="M498 512 c-10 -27 -34 -70 -53 -95 -36 -48 -37 -61 -2 -30 18 17 20
17 55 -3 20 -12 38 -26 40 -32 3 -11 -104 -122 -119 -122 -5 0 -9 -5 -9 -10 0
-18 76 27 117 70 l40 40 64 -50 c63 -49 65 -50 136 -50 39 0 74 4 77 9 5 7
-82 41 -106 41 -17 0 -138 64 -138 73 0 8 43 70 68 95 6 8 17 22 23 33 15 29
-23 40 -80 22 -59 -18 -59 -18 -57 20 1 25 -3 33 -19 35 -16 2 -24 -7 -37 -46z
m122 -38 c0 -13 -53 -94 -61 -94 -15 0 -69 30 -69 38 1 15 36 50 55 55 30 7
75 8 75 1z"/>
<path d="M150 221 c0 -20 51 -70 65 -64 18 6 20 37 3 50 -19 15 -68 25 -68 14z"/>
<path d="M595 210 c-22 -5 -68 -10 -102 -11 -58 -3 -75 -10 -54 -23 4 -3 14
-33 21 -66 12 -56 29 -76 45 -50 3 6 34 10 68 10 81 0 107 8 107 31 0 11 7 36
15 56 9 20 12 40 7 45 -13 13 -65 17 -107 8z m50 -62 c-4 -24 -8 -44 -9 -44 0
-1 -34 -5 -73 -9 -61 -6 -73 -5 -73 8 0 8 -3 28 -6 45 -6 30 -5 31 32 35 22 2
61 4 87 5 l49 2 -7 -42z"/>
</g>
</svg>
