<?xml version="1.0" standalone="no"?>
<!DOCTYPE svg PUBLIC "-//W3C//DTD SVG 20010904//EN"
 "http://www.w3.org/TR/2001/REC-SVG-20010904/DTD/svg10.dtd">
<svg version="1.0" xmlns="http://www.w3.org/2000/svg"
 width="96.000000pt" height="68.000000pt" viewBox="0 0 96.000000 68.000000"
 preserveAspectRatio="xMidYMid meet">
<metadata>
Created by potrace 1.16, written by Peter Selinger 2001-2019
</metadata>
<g transform="translate(0.000000,68.000000) scale(0.100000,-0.100000)"
fill="#000000" stroke="none">
<path d="M507 523 l6 -80 -74 -7 c-40 -3 -75 -9 -78 -11 -16 -17 48 -23 112
-11 l37 7 0 -99 c0 -55 -3 -127 -7 -161 -6 -67 -10 -69 -66 -46 -10 4 2 -13
26 -39 71 -74 87 -52 87 123 l0 96 68 -72 c75 -80 107 -92 189 -76 38 8 44 11
28 17 -11 4 -27 11 -35 15 -9 5 -30 12 -47 15 -42 10 -158 85 -147 96 5 4 33
21 63 37 63 34 71 47 41 63 -20 11 -27 6 -70 -42 -41 -45 -51 -51 -67 -42 -13
8 -19 26 -21 68 l-3 56 43 1 c24 1 56 4 72 8 26 5 28 7 12 20 -11 10 -30 12
-66 7 l-50 -7 0 30 c0 16 4 41 9 55 11 28 1 41 -41 51 l-28 7 7 -79z"/>
<path d="M280 554 c0 -38 -64 -138 -136 -211 -75 -77 -55 -88 32 -17 l57 47
-7 -99 c-3 -55 -9 -117 -12 -139 -7 -49 16 -89 38 -67 20 20 39 290 22 318
-11 19 -9 27 19 65 17 24 34 46 38 49 3 3 11 14 17 26 9 17 7 24 -9 37 -30 27
-59 22 -59 -9z"/>
<path d="M640 543 c0 -12 64 -53 83 -53 23 0 22 37 0 44 -46 12 -83 17 -83 9z"/>
<path d="M370 346 c0 -14 65 -63 77 -59 21 8 15 33 -9 42 -45 17 -68 22 -68
17z"/>
<path d="M460 253 c-8 -3 -26 -14 -40 -23 -14 -10 -44 -23 -67 -30 -48 -15
-53 -24 -22 -40 17 -10 27 -7 58 14 34 24 101 87 90 85 -2 0 -11 -3 -19 -6z"/>
</g>
</svg>
