<?xml version="1.0" standalone="no"?>
<!DOCTYPE svg PUBLIC "-//W3C//DTD SVG 20010904//EN"
 "http://www.w3.org/TR/2001/REC-SVG-20010904/DTD/svg10.dtd">
<svg version="1.0" xmlns="http://www.w3.org/2000/svg"
 width="96.000000pt" height="68.000000pt" viewBox="0 0 96.000000 68.000000"
 preserveAspectRatio="xMidYMid meet">
<metadata>
Created by potrace 1.16, written by Peter Selinger 2001-2019
</metadata>
<g transform="translate(0.000000,68.000000) scale(0.100000,-0.100000)"
fill="#000000" stroke="none">
<path d="M525 239 c-9 -41 -26 -45 -72 -16 -37 24 -83 43 -83 34 0 -2 27 -21
60 -41 54 -34 58 -39 47 -57 -6 -11 -39 -33 -71 -49 -33 -17 -52 -30 -44 -30
25 0 81 22 120 48 l37 24 64 -46 c63 -45 66 -46 138 -45 83 2 143 12 119 22
-8 3 -44 10 -80 17 -77 13 -180 45 -205 64 -13 10 -15 17 -8 32 6 10 13 31 17
47 5 22 3 27 -13 27 -14 0 -21 -9 -26 -31z"/>
</g>
</svg>
