<?xml version="1.0" standalone="no"?>
<!DOCTYPE svg PUBLIC "-//W3C//DTD SVG 20010904//EN"
 "http://www.w3.org/TR/2001/REC-SVG-20010904/DTD/svg10.dtd">
<svg version="1.0" xmlns="http://www.w3.org/2000/svg"
 width="96.000000pt" height="68.000000pt" viewBox="0 0 96.000000 68.000000"
 preserveAspectRatio="xMidYMid meet">
<metadata>
Created by potrace 1.16, written by Peter Selinger 2001-2019
</metadata>
<g transform="translate(0.000000,68.000000) scale(0.100000,-0.100000)"
fill="#000000" stroke="none">
<path d="M236 572 c-3 -3 -6 -14 -6 -24 0 -22 -55 -134 -70 -143 -5 -3 -10
-11 -10 -16 0 -6 18 3 39 20 22 18 51 31 67 32 16 0 56 6 89 13 55 13 58 14
35 24 -18 7 -38 5 -70 -4 -69 -21 -73 -18 -44 26 14 22 24 46 21 53 -6 15 -42
29 -51 19z"/>
</g>
</svg>
