<?xml version="1.0" standalone="no"?>
<!DOCTYPE svg PUBLIC "-//W3C//DTD SVG 20010904//EN"
 "http://www.w3.org/TR/2001/REC-SVG-20010904/DTD/svg10.dtd">
<svg version="1.0" xmlns="http://www.w3.org/2000/svg"
 width="90.000000pt" height="92.000000pt" viewBox="0 0 90.000000 92.000000"
 preserveAspectRatio="xMidYMid meet">
<metadata>
Created by potrace 1.16, written by Peter Selinger 2001-2019
</metadata>
<g transform="translate(0.000000,92.000000) scale(0.100000,-0.100000)"
fill="#000000" stroke="none">
<path d="M540 852 c0 -21 74 -73 100 -70 31 4 40 42 13 56 -29 16 -113 26
-113 14z"/>
<path d="M396 831 c-4 -5 12 -36 35 -69 23 -33 39 -64 36 -69 -3 -5 -24 -15
-46 -23 -23 -7 -41 -16 -41 -20 0 -15 44 -18 81 -6 38 13 38 13 68 -24 l30
-38 -37 -26 c-41 -29 -30 -34 25 -11 35 15 36 15 76 -21 49 -45 120 -78 148
-69 18 6 20 12 14 39 -4 17 -10 47 -14 66 l-7 35 -17 -37 c-20 -47 -49 -50
-97 -9 l-34 28 59 39 c33 21 62 40 65 42 9 6 -41 42 -59 42 -9 0 -22 -14 -30
-30 -7 -17 -24 -38 -38 -47 -24 -16 -25 -15 -48 13 -14 16 -23 33 -21 38 1 6
21 16 44 24 23 7 42 17 42 22 0 17 -59 21 -88 6 l-30 -15 -16 39 c-9 22 -16
47 -16 55 0 25 -72 46 -84 26z"/>
<path d="M211 734 c-19 -9 -62 -17 -95 -19 -34 -2 -63 -4 -65 -4 -2 -1 3 -9
13 -20 9 -10 21 -45 27 -78 14 -79 19 -86 53 -74 24 10 28 8 36 -15 6 -14 10
-79 10 -144 l0 -118 -31 -11 c-18 -6 -36 -11 -41 -11 -6 0 -9 40 -6 97 l3 98
-27 9 c-35 12 -40 6 -29 -30 5 -16 11 -64 14 -108 l4 -78 -38 5 c-45 6 -51 -8
-17 -40 37 -33 43 -34 94 -9 27 12 92 38 144 56 103 36 119 45 105 59 -6 6
-34 2 -70 -9 -32 -11 -60 -18 -62 -17 -1 2 0 35 4 74 l6 71 44 5 c52 6 76 23
53 38 -14 9 -23 8 -79 -7 -23 -7 -24 -6 -19 39 3 26 1 50 -5 56 -8 8 -1 11 25
11 32 0 35 2 31 24 -3 14 6 49 20 80 l26 56 -22 15 c-26 18 -61 18 -106 -1z
m43 -81 c-4 -27 -10 -51 -14 -56 -3 -4 -29 -10 -57 -13 l-50 -6 -6 48 c-3 27
-4 51 -2 53 7 6 70 19 102 20 l33 1 -6 -47z"/>
<path d="M392 523 c34 -67 57 -128 51 -134 -4 -4 -23 -11 -41 -16 -46 -12 -35
-28 19 -27 l46 2 28 -57 27 -56 -40 -35 c-22 -20 -66 -50 -99 -68 -53 -29 -55
-31 -28 -31 42 0 93 20 146 57 l46 31 55 -52 c84 -79 166 -114 208 -87 13 8
13 14 1 42 -7 18 -20 56 -29 83 l-16 50 -11 -50 c-9 -40 -15 -51 -34 -53 -27
-4 -94 38 -117 74 -17 25 -17 26 40 83 58 59 63 76 26 99 -17 10 -21 9 -31
-11 -19 -35 -70 -97 -80 -97 -12 0 -51 89 -44 101 3 4 21 11 40 15 45 8 53 21
21 36 -20 8 -32 8 -51 0 -14 -7 -28 -12 -30 -12 -2 0 -6 23 -10 50 -5 34 -13
54 -25 60 -22 12 -73 13 -68 3z"/>
<path d="M568 483 c31 -57 92 -80 92 -34 0 23 -19 35 -68 46 -31 6 -33 5 -24
-12z"/>
</g>
</svg>
