<?xml version="1.0" standalone="no"?>
<!DOCTYPE svg PUBLIC "-//W3C//DTD SVG 20010904//EN"
 "http://www.w3.org/TR/2001/REC-SVG-20010904/DTD/svg10.dtd">
<svg version="1.0" xmlns="http://www.w3.org/2000/svg"
 width="96.000000pt" height="68.000000pt" viewBox="0 0 96.000000 68.000000"
 preserveAspectRatio="xMidYMid meet">
<metadata>
Created by potrace 1.16, written by Peter Selinger 2001-2019
</metadata>
<g transform="translate(0.000000,68.000000) scale(0.100000,-0.100000)"
fill="#000000" stroke="none">
<path d="M400 582 c0 -104 -72 -187 -214 -245 -62 -25 -74 -33 -54 -35 15 -2
59 7 99 19 63 19 80 30 142 90 38 38 73 69 77 69 3 0 45 -31 92 -69 118 -96
137 -104 212 -96 99 10 99 20 0 50 -74 22 -304 137 -304 152 0 2 7 20 15 40
21 50 19 60 -16 72 -48 17 -49 15 -49 -47z"/>
<path d="M579 592 c-13 -16 -33 -34 -44 -40 -33 -19 4 -14 74 9 46 16 61 25
59 38 -2 10 -15 17 -34 19 -23 2 -36 -4 -55 -26z"/>
<path d="M220 561 c0 -10 72 -41 96 -41 20 0 30 30 13 41 -18 11 -109 12 -109
0z"/>
<path d="M585 487 c17 -14 45 -34 63 -44 28 -16 34 -16 42 -3 12 19 -12 46
-49 53 -16 3 -42 9 -57 13 l-29 6 30 -25z"/>
<path d="M270 460 c-25 -10 -55 -19 -67 -19 -26 -1 -29 -11 -11 -29 17 -17 47
-15 54 3 4 8 9 13 13 12 3 -2 19 9 36 25 35 33 34 33 -25 8z"/>
<path d="M469 358 c-17 -7 -88 -14 -161 -18 -3 0 -4 -26 -1 -58 4 -41 0 -75
-16 -125 -22 -72 -20 -97 9 -97 13 0 21 14 32 52 l15 53 87 10 87 11 -3 -46
c-3 -45 -3 -45 -38 -43 l-35 3 37 -35 c21 -19 42 -35 48 -35 27 0 38 49 42
183 5 137 4 139 -18 147 -26 10 -54 9 -85 -2z m51 -42 c0 -22 -6 -25 -80 -37
-44 -7 -80 -16 -80 -21 0 -11 75 -10 123 1 36 9 37 8 37 -19 0 -26 -3 -28 -53
-33 -29 -4 -67 -10 -85 -13 l-32 -6 0 65 0 66 33 5 c128 21 137 21 137 -8z"/>
</g>
</svg>
