<?xml version="1.0" standalone="no"?>
<!DOCTYPE svg PUBLIC "-//W3C//DTD SVG 20010904//EN"
 "http://www.w3.org/TR/2001/REC-SVG-20010904/DTD/svg10.dtd">
<svg version="1.0" xmlns="http://www.w3.org/2000/svg"
 width="96.000000pt" height="68.000000pt" viewBox="0 0 96.000000 68.000000"
 preserveAspectRatio="xMidYMid meet">
<metadata>
Created by potrace 1.16, written by Peter Selinger 2001-2019
</metadata>
<g transform="translate(0.000000,68.000000) scale(0.100000,-0.100000)"
fill="#000000" stroke="none">
<path d="M516 561 c5 -34 4 -39 -17 -44 -13 -4 -34 -7 -46 -7 -13 0 -23 -4
-23 -10 0 -5 20 -10 45 -10 37 0 45 -3 45 -19 0 -20 -25 -31 -75 -31 -16 0
-37 -5 -45 -10 -10 -7 22 -8 101 -4 l116 7 5 -24 c7 -36 -1 -49 -27 -49 -13 0
-27 -4 -30 -10 -4 -6 8 -10 29 -10 29 0 36 -4 36 -19 0 -21 -19 -31 -55 -31
-13 0 -27 -5 -31 -12 -7 -11 68 -8 198 9 66 8 49 26 -21 21 -50 -3 -56 -1 -56
17 0 14 9 21 33 26 47 10 51 19 9 19 -32 0 -37 3 -37 23 0 15 -9 28 -22 35
-20 9 -14 11 37 12 56 1 59 2 40 16 -15 12 -34 14 -78 9 -32 -3 -65 -9 -73
-12 -10 -4 -14 2 -14 20 0 23 5 26 50 32 28 4 50 10 50 15 0 14 -27 19 -66 13
-28 -5 -35 -3 -30 6 5 7 5 23 2 37 -5 17 -13 24 -31 24 -24 0 -25 -2 -19 -39z"/>
<path d="M290 521 c-13 -50 -80 -141 -154 -208 -31 -29 -52 -53 -46 -53 19 0
84 37 104 59 11 12 23 21 28 21 12 0 10 -171 -4 -229 -10 -43 -9 -53 6 -77 16
-23 20 -25 33 -12 17 18 37 326 22 342 -16 17 -10 30 43 95 l51 64 -22 19
c-35 27 -49 22 -61 -21z"/>
<path d="M393 368 c2 -25 -2 -33 -18 -36 -35 -7 -43 -24 -10 -20 26 3 30 0 33
-24 3 -27 2 -28 -43 -28 -33 0 -45 -4 -43 -12 6 -17 36 -22 62 -10 11 5 50 19
86 31 47 15 54 19 26 15 -26 -4 -42 -1 -47 7 -11 18 9 39 37 39 13 0 24 5 24
10 0 6 -13 10 -29 10 -23 0 -30 5 -33 23 -2 14 -11 23 -25 25 -18 3 -21 -1
-20 -30z"/>
<path d="M520 224 c-52 -7 -105 -13 -117 -13 -44 -2 -23 -21 22 -21 25 0 45
-2 45 -5 0 -28 -53 -92 -119 -142 -15 -11 -15 -12 0 -13 23 0 108 65 141 108
21 27 25 38 17 49 -9 10 -5 13 19 13 36 0 43 -14 39 -87 -2 -55 8 -71 61 -93
49 -21 188 -4 212 25 8 9 7 25 -2 54 -16 50 -24 52 -32 8 -8 -41 -37 -57 -104
-57 -79 0 -92 7 -92 49 0 20 3 53 6 73 6 35 8 37 55 43 27 4 49 11 49 16 0 12
-86 10 -200 -7z"/>
</g>
</svg>
