<?xml version="1.0" standalone="no"?>
<!DOCTYPE svg PUBLIC "-//W3C//DTD SVG 20010904//EN"
 "http://www.w3.org/TR/2001/REC-SVG-20010904/DTD/svg10.dtd">
<svg version="1.0" xmlns="http://www.w3.org/2000/svg"
 width="90.000000pt" height="92.000000pt" viewBox="0 0 90.000000 92.000000"
 preserveAspectRatio="xMidYMid meet">
<metadata>
Created by potrace 1.16, written by Peter Selinger 2001-2019
</metadata>
<g transform="translate(0.000000,92.000000) scale(0.100000,-0.100000)"
fill="#000000" stroke="none">
<path d="M380 831 c0 -5 15 -30 34 -54 l34 -45 -161 -18 c-90 -11 -162 -23
-161 -29 1 -25 56 -28 186 -11 73 10 201 23 283 29 87 7 150 16 149 22 -1 6
-15 18 -32 28 -29 17 -36 17 -119 3 -48 -9 -91 -16 -95 -16 -5 0 -8 14 -8 30
0 23 -7 35 -32 50 -34 21 -78 27 -78 11z"/>
<path d="M470 625 c0 -35 -37 -106 -103 -195 -30 -41 -54 -76 -52 -78 2 -2 15
4 29 13 32 21 53 14 102 -36 l39 -41 -45 -38 c-24 -22 -71 -53 -105 -70 l-60
-31 52 5 c56 5 113 30 160 70 l30 25 68 -69 c48 -49 79 -72 102 -76 39 -7 186
23 181 38 -2 6 -37 19 -77 29 -80 20 -165 56 -211 89 l-29 20 39 63 c20 34 48
86 60 114 12 28 30 59 41 69 30 27 24 53 -15 69 -31 13 -40 13 -92 -5 -67 -23
-72 -24 -56 -8 22 22 13 46 -19 57 -41 14 -39 15 -39 -14z m160 -89 c0 -37
-100 -217 -119 -216 -3 1 -30 23 -59 49 l-52 48 21 27 21 27 44 -41 c45 -41
68 -50 77 -27 13 33 -13 57 -86 81 -17 5 -17 8 -2 28 11 17 32 26 78 34 34 6
65 12 70 13 4 0 7 -10 7 -23z"/>
<path d="M250 591 c-15 -56 -79 -147 -153 -219 -36 -34 -63 -62 -61 -62 17 0
93 48 130 82 37 34 45 38 50 23 11 -28 -4 -200 -21 -243 -15 -36 -15 -43 -1
-76 32 -77 50 -28 64 174 7 107 6 141 -5 162 -12 25 -11 31 24 83 20 30 41 55
45 55 15 0 8 19 -14 40 -32 29 -46 25 -58 -19z"/>
</g>
</svg>
