<?xml version="1.0" standalone="no"?>
<!DOCTYPE svg PUBLIC "-//W3C//DTD SVG 20010904//EN"
 "http://www.w3.org/TR/2001/REC-SVG-20010904/DTD/svg10.dtd">
<svg version="1.0" xmlns="http://www.w3.org/2000/svg"
 width="96.000000pt" height="68.000000pt" viewBox="0 0 96.000000 68.000000"
 preserveAspectRatio="xMidYMid meet">
<metadata>
Created by potrace 1.16, written by Peter Selinger 2001-2019
</metadata>
<g transform="translate(0.000000,68.000000) scale(0.100000,-0.100000)"
fill="#000000" stroke="none">
<path d="M292 426 c-7 -19 -47 -67 -93 -111 -84 -80 -77 -93 14 -29 40 29 49
32 54 18 9 -25 -3 -128 -20 -159 -11 -22 -12 -36 -5 -57 11 -32 34 -37 42 -10
14 43 23 237 12 254 -9 14 -4 25 28 57 33 34 37 42 26 56 -21 25 -45 18 -58
-19z"/>
</g>
</svg>
