<?xml version="1.0" standalone="no"?>
<!DOCTYPE svg PUBLIC "-//W3C//DTD SVG 20010904//EN"
 "http://www.w3.org/TR/2001/REC-SVG-20010904/DTD/svg10.dtd">
<svg version="1.0" xmlns="http://www.w3.org/2000/svg"
 width="96.000000pt" height="68.000000pt" viewBox="0 0 96.000000 68.000000"
 preserveAspectRatio="xMidYMid meet">
<metadata>
Created by potrace 1.16, written by Peter Selinger 2001-2019
</metadata>
<g transform="translate(0.000000,68.000000) scale(0.100000,-0.100000)"
fill="#000000" stroke="none">
<path d="M407 614 c-4 -4 3 -20 14 -36 12 -16 18 -32 15 -36 -4 -3 -61 -12
-127 -18 -125 -13 -144 -18 -119 -34 19 -12 67 -12 165 0 44 5 145 14 224 20
79 5 146 12 150 15 3 4 -3 13 -14 22 -16 12 -37 13 -103 8 -46 -3 -90 -9 -98
-12 -10 -4 -14 2 -14 21 0 21 -7 30 -35 42 -38 16 -49 17 -58 8z"/>
<path d="M484 453 c-14 -45 -25 -63 -73 -121 l-51 -62 30 6 c23 5 38 0 65 -20
54 -42 50 -49 -65 -109 -54 -28 -55 -29 -17 -24 20 3 63 19 96 36 l58 29 59
-49 c56 -46 62 -48 119 -48 33 0 76 6 95 13 l34 13 -92 22 c-77 19 -182 63
-182 77 0 2 29 47 65 99 36 53 65 100 65 105 0 19 -55 27 -99 13 -58 -17 -61
-17 -58 9 3 30 -40 39 -49 11z m136 -57 c0 -22 -50 -112 -75 -136 l-22 -21
-51 35 -51 34 22 21 23 20 28 -24 c32 -27 66 -33 66 -11 0 18 -19 33 -53 41
-46 12 -27 40 33 48 69 8 80 7 80 -7z"/>
<path d="M295 432 c-6 -30 -101 -136 -148 -167 -15 -10 -26 -20 -23 -22 6 -6
64 25 103 55 29 22 33 22 39 7 10 -26 -4 -143 -20 -166 -11 -16 -12 -28 -4
-50 12 -35 36 -38 43 -6 12 54 24 232 15 235 -19 7 -10 34 25 75 33 38 35 43
19 54 -28 20 -42 15 -49 -15z"/>
</g>
</svg>
