<?xml version="1.0" standalone="no"?>
<!DOCTYPE svg PUBLIC "-//W3C//DTD SVG 20010904//EN"
 "http://www.w3.org/TR/2001/REC-SVG-20010904/DTD/svg10.dtd">
<svg version="1.0" xmlns="http://www.w3.org/2000/svg"
 width="96.000000pt" height="68.000000pt" viewBox="0 0 96.000000 68.000000"
 preserveAspectRatio="xMidYMid meet">
<metadata>
Created by potrace 1.16, written by Peter Selinger 2001-2019
</metadata>
<g transform="translate(0.000000,68.000000) scale(0.100000,-0.100000)"
fill="#000000" stroke="none">
<path d="M256 592 c-9 -15 29 -58 64 -72 27 -11 34 -11 47 3 9 8 13 23 10 31
-10 26 -109 57 -121 38z"/>
<path d="M670 479 c-14 -6 -73 -13 -132 -16 -60 -3 -108 -7 -108 -8 0 -1 7
-16 15 -33 9 -17 21 -64 28 -104 11 -64 15 -73 32 -70 72 11 174 13 192 3 24
-12 32 2 58 109 9 36 18 73 21 83 4 13 -4 21 -30 32 -41 17 -42 17 -76 4z m37
-59 l3 -36 -107 -11 c-60 -6 -109 -11 -110 -10 0 1 -3 18 -5 37 l-3 35 80 7
c44 4 87 9 95 12 33 9 45 1 47 -34z m-7 -77 c0 -10 -3 -28 -6 -40 -6 -22 -11
-23 -95 -23 -49 0 -89 3 -90 8 0 4 -2 17 -4 28 -4 20 1 22 83 31 48 6 93 11
100 12 6 0 12 -7 12 -16z"/>
<path d="M283 450 c-12 -5 -50 -14 -85 -20 -35 -6 -74 -13 -87 -16 l-24 -5 22
-16 c25 -17 64 -14 145 11 l48 16 -18 -28 c-41 -64 -123 -155 -174 -194 -19
-15 -32 -30 -28 -33 11 -11 89 35 139 82 l49 46 0 -57 c0 -32 -5 -77 -11 -102
-13 -50 -1 -94 25 -94 19 0 26 32 26 133 0 48 4 87 8 87 5 0 19 -11 32 -25 28
-30 50 -32 50 -5 0 12 -13 28 -30 39 l-30 18 40 13 c45 15 51 33 18 51 -18 10
-24 8 -39 -10 -10 -12 -19 -27 -21 -33 -5 -14 -38 -3 -38 13 0 7 21 32 48 56
l47 44 -24 20 c-25 20 -52 23 -88 9z"/>
<path d="M630 174 c-80 -7 -173 -13 -208 -13 -46 -1 -63 -4 -59 -13 3 -10 58
-12 243 -9 131 2 243 7 248 12 9 8 -53 41 -71 38 -4 -1 -73 -7 -153 -15z"/>
</g>
</svg>
