<?xml version="1.0" standalone="no"?>
<!DOCTYPE svg PUBLIC "-//W3C//DTD SVG 20010904//EN"
 "http://www.w3.org/TR/2001/REC-SVG-20010904/DTD/svg10.dtd">
<svg version="1.0" xmlns="http://www.w3.org/2000/svg"
 width="96.000000pt" height="68.000000pt" viewBox="0 0 96.000000 68.000000"
 preserveAspectRatio="xMidYMid meet">
<metadata>
Created by potrace 1.16, written by Peter Selinger 2001-2019
</metadata>
<g transform="translate(0.000000,68.000000) scale(0.100000,-0.100000)"
fill="#000000" stroke="none">
<path d="M590 345 c-36 -8 -86 -16 -112 -20 -54 -7 -60 -18 -23 -38 14 -7 43
-34 65 -61 52 -63 44 -74 -100 -133 l-55 -23 48 5 c27 3 78 19 114 36 l66 31
26 -29 c51 -58 71 -65 151 -54 40 5 74 12 77 14 2 3 -33 17 -79 31 -97 30
-152 61 -142 79 5 6 28 43 52 80 64 99 52 110 -88 82z m47 -50 c-7 -45 -43
-96 -62 -89 -8 3 -30 25 -50 50 -40 49 -46 41 50 63 67 15 68 15 62 -24z"/>
</g>
</svg>
