<?xml version="1.0" standalone="no"?>
<!DOCTYPE svg PUBLIC "-//W3C//DTD SVG 20010904//EN"
 "http://www.w3.org/TR/2001/REC-SVG-20010904/DTD/svg10.dtd">
<svg version="1.0" xmlns="http://www.w3.org/2000/svg"
 width="96.000000pt" height="68.000000pt" viewBox="0 0 96.000000 68.000000"
 preserveAspectRatio="xMidYMid meet">
<metadata>
Created by potrace 1.16, written by Peter Selinger 2001-2019
</metadata>
<g transform="translate(0.000000,68.000000) scale(0.100000,-0.100000)"
fill="#000000" stroke="none">
<path d="M628 470 l4 -90 -31 0 c-17 0 -31 -4 -31 -10 0 -5 11 -10 25 -10 29
0 30 -8 11 -53 -12 -31 -53 -72 -106 -109 -24 -16 -22 -16 24 0 48 16 98 56
123 97 12 20 12 20 28 0 30 -38 108 -115 116 -115 5 0 9 13 9 29 0 36 -43 82
-100 107 -57 25 -49 47 19 57 64 9 69 12 43 26 -13 7 -31 7 -51 1 -42 -12 -47
2 -31 82 13 66 7 78 -36 78 -19 0 -20 -4 -16 -90z"/>
</g>
</svg>
