<?xml version="1.0" standalone="no"?>
<!DOCTYPE svg PUBLIC "-//W3C//DTD SVG 20010904//EN"
 "http://www.w3.org/TR/2001/REC-SVG-20010904/DTD/svg10.dtd">
<svg version="1.0" xmlns="http://www.w3.org/2000/svg"
 width="90.000000pt" height="92.000000pt" viewBox="0 0 90.000000 92.000000"
 preserveAspectRatio="xMidYMid meet">
<metadata>
Created by potrace 1.16, written by Peter Selinger 2001-2019
</metadata>
<g transform="translate(0.000000,92.000000) scale(0.100000,-0.100000)"
fill="#000000" stroke="none">
<path d="M140 782 c0 -5 19 -31 43 -57 31 -34 47 -45 60 -40 26 11 22 61 -7
80 -30 20 -96 32 -96 17z"/>
<path d="M623 654 c-1 -69 -3 -127 -5 -129 -2 -1 -22 -5 -45 -9 l-43 -6 0 94
0 94 -31 11 -30 10 7 -109 7 -110 -29 0 c-16 0 -40 -3 -53 -7 l-24 -6 7 66 8
67 -36 17 c-48 22 -62 9 -41 -40 8 -20 15 -54 15 -75 0 -39 0 -39 -45 -45 -26
-2 -49 -8 -53 -11 -12 -13 22 -26 67 -26 l44 0 -6 -112 c-3 -62 -8 -122 -12
-134 -4 -13 0 -28 12 -43 18 -22 18 -22 58 -4 34 15 68 18 222 18 196 0 216 6
166 45 -14 11 -31 20 -37 20 -6 0 -87 -7 -180 -15 -93 -8 -170 -14 -171 -13
-2 2 -6 58 -10 125 l-7 122 26 6 c85 17 76 23 76 -53 0 -68 19 -119 34 -94 4
7 24 12 45 12 63 0 103 11 91 25 -6 7 -6 32 0 71 6 32 10 62 10 65 0 4 43 10
95 14 52 4 97 11 100 16 3 4 -9 16 -26 25 -31 16 -100 14 -145 -3 -14 -5 -15
1 -9 48 3 30 13 78 21 108 15 54 15 55 -8 73 -13 9 -32 18 -43 18 -19 0 -20
-7 -22 -126z m-14 -201 c-3 -67 -13 -87 -47 -94 l-32 -6 0 57 c0 31 3 60 7 63
3 4 21 7 40 7 30 0 33 -3 32 -27z"/>
<path d="M40 595 c0 -13 61 -85 82 -96 16 -9 24 -7 36 5 21 21 2 63 -35 77
-41 15 -83 23 -83 14z"/>
<path d="M172 358 c-24 -36 -60 -82 -82 -101 -41 -39 -43 -56 -11 -116 18 -32
28 -26 47 32 9 28 20 57 24 62 15 22 71 167 68 177 -2 6 -23 -19 -46 -54z"/>
</g>
</svg>
