<?xml version="1.0" standalone="no"?>
<!DOCTYPE svg PUBLIC "-//W3C//DTD SVG 20010904//EN"
 "http://www.w3.org/TR/2001/REC-SVG-20010904/DTD/svg10.dtd">
<svg version="1.0" xmlns="http://www.w3.org/2000/svg"
 width="90.000000pt" height="92.000000pt" viewBox="0 0 90.000000 92.000000"
 preserveAspectRatio="xMidYMid meet">
<metadata>
Created by potrace 1.16, written by Peter Selinger 2001-2019
</metadata>
<g transform="translate(0.000000,92.000000) scale(0.100000,-0.100000)"
fill="#000000" stroke="none">
<path d="M689 766 c-2 -2 -71 -14 -154 -25 -237 -33 -223 -30 -200 -48 20 -15
100 -13 183 3 30 6 32 4 32 -20 0 -61 -103 -218 -213 -324 -44 -41 -59 -62
-48 -62 38 0 157 100 219 185 l37 49 6 -29 c10 -47 9 -146 -1 -193 -8 -32 -7
-50 4 -76 l14 -33 -114 -13 c-63 -7 -114 -16 -114 -20 0 -4 14 -13 30 -20 24
-10 46 -10 100 -1 38 6 127 11 199 11 140 0 163 8 120 43 -21 16 -33 18 -94
13 -38 -4 -77 -9 -86 -12 -12 -3 -15 2 -12 23 2 16 7 84 11 151 l7 124 88 -81
c96 -87 137 -104 137 -56 0 40 -57 92 -140 128 -41 18 -90 41 -107 52 l-32 19
34 61 c31 56 33 63 18 77 -14 14 -5 17 91 23 58 4 106 11 106 16 0 17 -46 39
-81 39 -19 0 -38 -2 -40 -4z"/>
<path d="M225 628 c-34 -20 -124 -37 -163 -31 l-36 6 21 -29 c15 -21 26 -63
37 -142 9 -62 18 -117 21 -123 11 -16 25 -10 25 11 0 16 7 20 38 20 66 0 113
11 103 24 -10 12 16 150 38 209 14 37 15 34 -19 52 -34 18 -39 18 -65 3z m7
-123 c-2 -44 -6 -88 -8 -97 -5 -16 -80 -45 -90 -35 -6 6 -32 181 -28 185 5 7
100 30 114 28 12 -1 14 -16 12 -81z"/>
</g>
</svg>
