<?xml version="1.0" standalone="no"?>
<!DOCTYPE svg PUBLIC "-//W3C//DTD SVG 20010904//EN"
 "http://www.w3.org/TR/2001/REC-SVG-20010904/DTD/svg10.dtd">
<svg version="1.0" xmlns="http://www.w3.org/2000/svg"
 width="90.000000pt" height="92.000000pt" viewBox="0 0 90.000000 92.000000"
 preserveAspectRatio="xMidYMid meet">
<metadata>
Created by potrace 1.16, written by Peter Selinger 2001-2019
</metadata>
<g transform="translate(0.000000,92.000000) scale(0.100000,-0.100000)"
fill="#000000" stroke="none">
<path d="M185 754 c-34 -16 -59 -22 -79 -18 -28 6 -28 5 -20 -22 13 -43 10
-322 -6 -455 -10 -89 -10 -120 -1 -137 36 -67 50 7 57 313 4 143 9 263 13 266
3 4 21 10 39 14 36 7 38 1 18 -55 -11 -29 -10 -41 6 -83 25 -65 21 -81 -21
-87 l-35 -5 43 -28 c47 -32 66 -30 83 8 10 22 7 34 -20 86 -18 34 -32 69 -32
78 0 9 18 35 40 56 22 21 40 45 40 52 0 12 -50 44 -67 42 -4 0 -30 -11 -58
-25z"/>
<path d="M649 763 c-1 -5 0 -12 1 -18 11 -55 17 -181 10 -190 -6 -7 -57 -18
-115 -25 -58 -7 -105 -17 -105 -21 0 -23 44 -30 123 -20 44 6 87 11 95 11 13
0 14 -23 9 -165 -3 -90 -8 -169 -11 -174 -4 -5 -21 -5 -43 -1 -21 5 -39 7 -41
6 -2 -2 15 -23 37 -47 23 -24 41 -47 41 -51 0 -5 9 -8 21 -8 14 0 25 11 36 37
13 32 15 66 9 226 l-7 187 55 0 c30 0 57 4 61 9 9 15 -36 41 -71 41 -18 0 -34
5 -36 11 -2 6 -1 41 4 78 4 36 5 73 2 82 -7 24 -72 51 -75 32z"/>
<path d="M398 670 c-19 -78 -69 -187 -122 -267 -19 -29 -32 -53 -28 -53 3 0
30 26 59 57 l53 57 0 -102 c0 -55 -5 -124 -11 -152 -16 -77 17 -148 41 -86 14
37 15 328 1 354 -9 17 -3 36 38 121 l48 100 -22 21 c-12 11 -25 20 -31 20 -5
0 -17 -32 -26 -70z"/>
<path d="M480 388 c0 -7 18 -33 39 -58 37 -42 41 -44 57 -28 23 23 12 63 -23
76 -56 21 -73 24 -73 10z"/>
</g>
</svg>
