<?xml version="1.0" standalone="no"?>
<!DOCTYPE svg PUBLIC "-//W3C//DTD SVG 20010904//EN"
 "http://www.w3.org/TR/2001/REC-SVG-20010904/DTD/svg10.dtd">
<svg version="1.0" xmlns="http://www.w3.org/2000/svg"
 width="96.000000pt" height="68.000000pt" viewBox="0 0 96.000000 68.000000"
 preserveAspectRatio="xMidYMid meet">
<metadata>
Created by potrace 1.16, written by Peter Selinger 2001-2019
</metadata>
<g transform="translate(0.000000,68.000000) scale(0.100000,-0.100000)"
fill="#000000" stroke="none">
<path d="M241 540 c-24 -11 -54 -20 -67 -20 -15 0 -24 -6 -24 -16 0 -8 3 -13
8 -11 8 6 -2 -260 -13 -340 -8 -51 5 -90 25 -78 9 6 17 105 24 295 3 69 5 126
6 126 0 1 14 4 30 6 32 5 36 -2 20 -33 -8 -14 -7 -25 5 -41 8 -13 15 -38 15
-56 0 -31 -2 -34 -22 -29 -23 6 -23 6 1 -14 60 -49 92 5 45 73 l-29 41 43 36
c49 42 52 58 16 71 -33 13 -31 13 -83 -10z"/>
<path d="M648 545 c-3 -3 -1 -26 4 -50 5 -24 8 -59 6 -77 l-3 -33 -100 -11
c-122 -13 -106 -29 21 -21 l85 5 -3 -122 -3 -121 -40 2 -40 3 42 -41 c73 -73
93 -40 93 151 l0 129 43 3 c53 4 51 20 -3 33 l-42 9 4 59 c2 49 0 61 -16 73
-21 15 -39 18 -48 9z"/>
<path d="M430 498 c0 -31 -50 -134 -89 -182 -17 -21 -31 -43 -31 -49 0 -10 40
21 68 53 10 12 12 0 8 -75 -2 -50 -7 -101 -11 -115 -7 -27 17 -71 32 -57 12
13 22 238 11 263 -8 17 -2 33 31 84 47 72 48 94 8 98 -22 3 -27 0 -27 -20z"/>
<path d="M500 274 c0 -13 60 -64 75 -64 22 0 18 33 -5 53 -19 16 -70 24 -70
11z"/>
</g>
</svg>
