<?xml version="1.0" standalone="no"?>
<!DOCTYPE svg PUBLIC "-//W3C//DTD SVG 20010904//EN"
 "http://www.w3.org/TR/2001/REC-SVG-20010904/DTD/svg10.dtd">
<svg version="1.0" xmlns="http://www.w3.org/2000/svg"
 width="96.000000pt" height="68.000000pt" viewBox="0 0 96.000000 68.000000"
 preserveAspectRatio="xMidYMid meet">
<metadata>
Created by potrace 1.16, written by Peter Selinger 2001-2019
</metadata>
<g transform="translate(0.000000,68.000000) scale(0.100000,-0.100000)"
fill="#000000" stroke="none">
<path d="M545 620 c-27 -16 -87 -39 -132 -52 -46 -14 -86 -28 -90 -32 -5 -5
22 -6 60 -3 l67 6 0 -28 c0 -25 -4 -29 -37 -35 -21 -3 -50 -6 -65 -6 -16 0
-28 -5 -28 -11 0 -8 18 -10 56 -7 55 5 55 5 49 -21 -4 -14 -12 -29 -18 -33 -6
-3 -65 -10 -130 -14 -115 -6 -119 -7 -92 -22 24 -12 41 -13 113 -3 46 7 87 10
89 7 3 -3 -21 -35 -53 -71 -56 -63 -132 -127 -184 -155 -43 -23 -4 -22 42 1
46 23 102 65 158 116 44 41 48 32 39 -84 -7 -86 1 -133 21 -133 5 0 10 4 10 9
0 5 39 12 86 16 86 7 87 7 109 -21 l22 -27 21 21 c20 20 22 31 20 152 -2 129
-2 129 -28 140 -19 8 -35 8 -54 0 -15 -5 -66 -13 -113 -17 -82 -6 -85 -5 -74
13 31 53 32 54 148 54 149 0 265 10 260 23 -6 20 -62 27 -137 17 -133 -17
-210 -19 -210 -6 0 31 27 47 85 52 83 7 105 13 105 26 0 7 -23 9 -74 6 l-74
-5 1 32 c1 31 4 33 66 51 72 21 88 43 46 62 -32 15 -21 17 -80 -18z m83 -347
c3 -19 -1 -23 -21 -23 -13 0 -59 -3 -101 -7 l-78 -6 4 24 c4 28 38 37 133 35
54 -1 60 -3 63 -23z m0 -70 c-2 -20 -9 -27 -28 -28 -14 -1 -58 -5 -97 -9 l-73
-8 0 25 c0 24 4 26 58 32 31 4 62 8 67 10 6 2 25 4 43 4 30 1 33 -1 30 -26z
m0 -79 c-3 -25 -4 -26 -100 -30 l-98 -4 0 25 c0 23 3 24 68 28 37 2 82 4 100
5 30 2 33 0 30 -24z"/>
</g>
</svg>
