<?xml version="1.0" standalone="no"?>
<!DOCTYPE svg PUBLIC "-//W3C//DTD SVG 20010904//EN"
 "http://www.w3.org/TR/2001/REC-SVG-20010904/DTD/svg10.dtd">
<svg version="1.0" xmlns="http://www.w3.org/2000/svg"
 width="96.000000pt" height="68.000000pt" viewBox="0 0 96.000000 68.000000"
 preserveAspectRatio="xMidYMid meet">
<metadata>
Created by potrace 1.16, written by Peter Selinger 2001-2019
</metadata>
<g transform="translate(0.000000,68.000000) scale(0.100000,-0.100000)"
fill="#000000" stroke="none">
<path d="M605 539 c-16 -5 -110 -18 -207 -31 -98 -12 -178 -25 -178 -29 0 -4
15 -12 33 -18 26 -9 52 -8 113 4 43 9 121 18 172 22 l92 6 0 -49 c0 -61 -36
-238 -49 -242 -5 -2 -8 -9 -6 -15 3 -7 -4 -23 -15 -37 l-19 -25 -60 16 -60 15
29 -35 c51 -65 76 -84 102 -76 62 19 91 77 123 245 13 71 31 146 40 166 20 49
20 51 -17 74 -36 22 -48 23 -93 9z"/>
<path d="M363 296 c-84 -28 -153 -54 -153 -57 0 -4 12 -14 26 -24 30 -19 16
-24 199 74 129 70 121 71 -72 7z"/>
</g>
</svg>
