<?xml version="1.0" standalone="no"?>
<!DOCTYPE svg PUBLIC "-//W3C//DTD SVG 20010904//EN"
 "http://www.w3.org/TR/2001/REC-SVG-20010904/DTD/svg10.dtd">
<svg version="1.0" xmlns="http://www.w3.org/2000/svg"
 width="96.000000pt" height="68.000000pt" viewBox="0 0 96.000000 68.000000"
 preserveAspectRatio="xMidYMid meet">
<metadata>
Created by potrace 1.16, written by Peter Selinger 2001-2019
</metadata>
<g transform="translate(0.000000,68.000000) scale(0.100000,-0.100000)"
fill="#000000" stroke="none">
<path d="M546 563 c4 -10 10 -42 12 -72 5 -62 -3 -71 -65 -71 -24 0 -43 -4
-43 -10 0 -5 25 -10 56 -10 l55 0 -3 -42 c-3 -41 -4 -43 -38 -46 -19 -1 -55
-5 -80 -8 -35 -5 -41 -8 -27 -16 21 -11 367 10 367 23 0 21 -41 29 -102 19
-35 -5 -67 -10 -71 -10 -5 0 -7 19 -5 42 l3 43 48 7 c79 11 80 32 1 30 l-45
-2 2 58 c3 71 -3 82 -43 82 -25 0 -29 -3 -22 -17z"/>
</g>
</svg>
