<?xml version="1.0" standalone="no"?>
<!DOCTYPE svg PUBLIC "-//W3C//DTD SVG 20010904//EN"
 "http://www.w3.org/TR/2001/REC-SVG-20010904/DTD/svg10.dtd">
<svg version="1.0" xmlns="http://www.w3.org/2000/svg"
 width="96.000000pt" height="68.000000pt" viewBox="0 0 96.000000 68.000000"
 preserveAspectRatio="xMidYMid meet">
<metadata>
Created by potrace 1.16, written by Peter Selinger 2001-2019
</metadata>
<g transform="translate(0.000000,68.000000) scale(0.100000,-0.100000)"
fill="#000000" stroke="none">
<path d="M724 296 c3 -11 0 -26 -5 -33 -12 -14 -4 -33 16 -33 16 0 25 22 25
60 0 23 -4 28 -21 27 -15 -1 -19 -6 -15 -21z"/>
<path d="M652 251 c-7 -4 -12 -12 -11 -17 1 -5 0 -11 -1 -14 -1 -3 -3 -12 -5
-20 -2 -8 -6 -23 -10 -32 -6 -14 -2 -18 16 -17 17 1 19 3 7 6 -15 4 -16 7 -4
26 12 20 30 77 24 77 -2 0 -9 -4 -16 -9z"/>
<path d="M685 250 c3 -5 8 -10 11 -10 2 0 4 5 4 10 0 6 -5 10 -11 10 -5 0 -7
-4 -4 -10z"/>
<path d="M730 210 c10 -7 11 -12 4 -17 -6 -5 -10 -33 -9 -63 2 -86 6 -100 16
-60 4 19 6 47 3 63 -5 29 -3 30 74 29 18 0 30 4 27 8 -3 5 -22 9 -43 8 -57 -1
-61 1 -55 22 4 15 0 20 -13 20 -16 0 -17 -2 -4 -10z"/>
</g>
</svg>
