<?xml version="1.0" standalone="no"?>
<!DOCTYPE svg PUBLIC "-//W3C//DTD SVG 20010904//EN"
 "http://www.w3.org/TR/2001/REC-SVG-20010904/DTD/svg10.dtd">
<svg version="1.0" xmlns="http://www.w3.org/2000/svg"
 width="96.000000pt" height="68.000000pt" viewBox="0 0 96.000000 68.000000"
 preserveAspectRatio="xMidYMid meet">
<metadata>
Created by potrace 1.16, written by Peter Selinger 2001-2019
</metadata>
<g transform="translate(0.000000,68.000000) scale(0.100000,-0.100000)"
fill="#000000" stroke="none">
<path d="M292 623 c-9 -4 -10 -8 -2 -18 6 -8 10 -33 8 -57 -3 -40 -5 -43 -33
-46 -87 -8 -98 -32 -15 -32 49 0 60 -9 60 -50 0 -14 -11 -19 -57 -24 -157 -18
-169 -23 -113 -46 19 -8 47 -10 75 -6 49 8 49 8 45 -59 -2 -42 -46 -131 -77
-155 -37 -29 -20 -37 20 -10 46 32 73 77 97 162 22 79 31 94 54 85 13 -5 16
-26 16 -122 0 -63 -2 -115 -4 -115 -3 0 -16 4 -30 10 -34 12 -33 9 9 -37 33
-36 35 -37 52 -20 16 15 18 37 18 157 l0 140 51 0 c33 0 56 5 64 15 17 21 -25
29 -106 21 l-64 -7 0 35 0 34 66 7 c53 5 65 10 62 23 -3 14 -15 17 -61 15
l-57 -2 0 44 c0 24 -3 46 -7 48 -16 9 -58 15 -71 10z"/>
<path d="M695 545 c-16 -8 -52 -14 -79 -15 l-48 0 7 -247 c4 -137 9 -250 11
-252 2 -3 10 1 16 7 8 8 13 78 15 219 2 115 6 217 8 229 3 15 17 23 52 32 64
14 72 4 43 -57 l-23 -50 31 -36 c60 -67 55 -111 -12 -101 l-41 7 58 -41 c32
-22 59 -40 61 -40 2 0 11 15 20 33 27 57 -8 133 -79 173 -18 10 -16 15 33 69
30 34 48 63 43 68 -15 15 -85 17 -116 2z"/>
<path d="M456 291 c-4 -5 -3 -11 1 -13 5 -1 15 -16 23 -32 20 -38 40 -45 40
-13 0 31 -52 78 -64 58z"/>
<path d="M173 273 c-3 -10 -15 -31 -26 -46 -10 -16 -16 -31 -13 -34 9 -9 87
77 81 88 -10 15 -35 10 -42 -8z"/>
</g>
</svg>
