<?xml version="1.0" standalone="no"?>
<!DOCTYPE svg PUBLIC "-//W3C//DTD SVG 20010904//EN"
 "http://www.w3.org/TR/2001/REC-SVG-20010904/DTD/svg10.dtd">
<svg version="1.0" xmlns="http://www.w3.org/2000/svg"
 width="90.000000pt" height="92.000000pt" viewBox="0 0 90.000000 92.000000"
 preserveAspectRatio="xMidYMid meet">
<metadata>
Created by potrace 1.16, written by Peter Selinger 2001-2019
</metadata>
<g transform="translate(0.000000,92.000000) scale(0.100000,-0.100000)"
fill="#000000" stroke="none">
<path d="M496 871 c-4 -5 -2 -21 4 -36 15 -40 12 -82 -6 -89 -9 -3 -31 -6 -51
-6 -53 0 -36 -24 21 -28 45 -3 47 -5 44 -30 -3 -25 -8 -28 -60 -36 -61 -9 -74
-22 -34 -32 29 -7 275 31 289 45 15 15 -37 24 -94 17 -47 -6 -49 -6 -49 18 0
21 6 25 48 31 63 8 78 18 57 35 -10 8 -30 11 -58 7 l-42 -6 3 49 c4 46 2 51
-23 60 -33 12 -42 13 -49 1z"/>
<path d="M135 790 c-3 -5 -1 -18 5 -29 5 -11 10 -51 10 -90 l0 -70 -35 -7
c-19 -3 -46 -3 -60 0 -24 6 -35 -7 -16 -19 5 -3 15 -31 21 -63 16 -73 23 -83
61 -72 l29 9 0 -59 c0 -56 -1 -58 -31 -69 -18 -6 -52 -11 -75 -11 -24 0 -44
-4 -44 -9 0 -12 60 -63 69 -58 68 37 206 97 209 89 7 -23 30 -44 40 -38 18 11
14 61 -5 78 -43 37 -92 48 -64 14 10 -12 8 -17 -8 -25 -35 -19 -41 -13 -41 43
l0 55 55 6 c41 6 53 10 46 19 -7 8 0 27 22 60 l31 49 -24 19 c-23 19 -53 19
-113 2 -17 -5 -18 -1 -12 53 4 32 12 66 17 75 14 28 -70 75 -87 48z m132 -241
c-6 -47 -4 -44 -39 -53 -27 -6 -28 -5 -28 38 0 46 7 54 49 55 22 1 23 -2 18
-40z m-117 -23 c0 -42 -10 -56 -41 -56 -10 0 -13 83 -2 93 3 4 15 7 25 7 15 0
18 -8 18 -44z"/>
<path d="M616 591 c6 -38 5 -40 -22 -43 -39 -4 -37 -22 4 -26 28 -3 32 -7 32
-32 0 -26 -4 -29 -35 -32 -45 -4 -46 -22 -3 -26 47 -3 180 21 176 33 -2 6 -24
10 -51 10 -44 0 -47 2 -47 26 0 23 6 28 35 33 43 8 45 24 5 33 -20 4 -30 11
-30 24 0 19 -28 39 -54 39 -13 0 -15 -8 -10 -39z"/>
<path d="M406 593 c-2 -3 -2 -20 1 -38 5 -32 4 -34 -31 -40 -44 -9 -38 -25 10
-25 31 0 34 -3 34 -29 0 -32 -14 -41 -67 -41 -35 0 -36 0 -18 -20 10 -11 23
-20 28 -20 21 0 177 64 177 72 0 5 -9 7 -20 4 -11 -3 -29 -9 -40 -12 -17 -4
-20 -1 -20 25 0 23 5 31 18 31 9 0 24 4 32 10 11 7 9 11 -12 19 -16 6 -28 19
-30 32 -3 21 -49 45 -62 32z"/>
<path d="M545 380 c-55 -9 -122 -21 -150 -25 -46 -6 -48 -8 -30 -21 10 -8 31
-14 47 -14 33 0 37 -23 12 -72 -21 -42 -108 -133 -151 -159 -47 -29 -34 -35
21 -10 69 30 111 66 167 144 44 59 50 73 40 89 -11 18 -11 19 32 22 8 1 14
-26 18 -89 9 -146 43 -185 161 -185 108 1 185 53 145 98 -8 9 -24 35 -35 57
l-20 39 -12 -57 c-7 -37 -18 -61 -30 -67 -28 -15 -113 -12 -137 5 -30 21 -39
87 -19 145 11 32 12 48 4 57 -8 10 3 13 55 13 70 0 93 14 62 37 -24 16 -55 15
-180 -7z"/>
</g>
</svg>
