<?xml version="1.0" standalone="no"?>
<!DOCTYPE svg PUBLIC "-//W3C//DTD SVG 20010904//EN"
 "http://www.w3.org/TR/2001/REC-SVG-20010904/DTD/svg10.dtd">
<svg version="1.0" xmlns="http://www.w3.org/2000/svg"
 width="96.000000pt" height="68.000000pt" viewBox="0 0 96.000000 68.000000"
 preserveAspectRatio="xMidYMid meet">
<metadata>
Created by potrace 1.16, written by Peter Selinger 2001-2019
</metadata>
<g transform="translate(0.000000,68.000000) scale(0.100000,-0.100000)"
fill="#000000" stroke="none">
<path d="M560 596 c0 -43 -11 -56 -52 -63 -32 -5 -37 -8 -23 -15 9 -6 26 -8
37 -5 18 5 20 2 14 -26 l-5 -32 28 34 c26 30 36 34 95 38 36 3 66 9 66 13 0
13 -43 20 -84 13 -37 -6 -38 -5 -26 17 13 24 7 34 -27 45 -20 5 -23 3 -23 -19z"/>
<path d="M300 583 c0 -5 7 -17 15 -27 20 -27 4 -36 -62 -36 -29 0 -53 -4 -53
-8 0 -15 44 -29 70 -21 47 14 72 10 77 -11 7 -28 28 -19 28 11 0 19 6 25 28
27 39 5 34 24 -5 20 -29 -3 -33 0 -36 25 -3 23 -8 27 -33 27 -16 0 -29 -3 -29
-7z"/>
</g>
</svg>
