<?xml version="1.0" standalone="no"?>
<!DOCTYPE svg PUBLIC "-//W3C//DTD SVG 20010904//EN"
 "http://www.w3.org/TR/2001/REC-SVG-20010904/DTD/svg10.dtd">
<svg version="1.0" xmlns="http://www.w3.org/2000/svg"
 width="96.000000pt" height="68.000000pt" viewBox="0 0 96.000000 68.000000"
 preserveAspectRatio="xMidYMid meet">
<metadata>
Created by potrace 1.16, written by Peter Selinger 2001-2019
</metadata>
<g transform="translate(0.000000,68.000000) scale(0.100000,-0.100000)"
fill="#000000" stroke="none">
<path d="M476 558 c-3 -17 -25 -56 -47 -86 -43 -56 -29 -58 28 -4 17 17 33 28
36 26 5 -6 211 14 232 22 24 10 7 24 -28 24 -18 0 -65 -7 -106 -15 -40 -9 -76
-13 -79 -10 -3 2 3 13 12 24 16 18 16 20 -6 35 -31 22 -35 21 -42 -16z"/>
<path d="M208 533 c-14 -3 -15 -9 -8 -29 16 -41 12 -91 -7 -98 -9 -4 -37 -4
-62 0 -44 7 -45 6 -30 -12 9 -11 20 -35 24 -54 14 -71 14 -71 51 -64 l34 6 0
-40 c0 -45 -10 -52 -70 -52 -48 0 -58 -14 -26 -35 24 -16 28 -15 78 8 84 39
128 51 141 38 15 -15 37 -14 37 2 0 7 -9 23 -20 35 -23 25 -55 30 -47 8 5 -13
-12 -26 -34 -26 -5 0 -9 16 -9 35 0 31 3 35 28 35 41 0 73 11 66 22 -4 5 3 23
15 39 11 15 21 33 21 38 0 17 -36 31 -80 31 l-42 0 7 48 c6 45 5 49 -20 60
-14 7 -27 11 -28 11 -1 -1 -10 -3 -19 -6z m102 -172 c0 -17 -6 -31 -16 -35
-26 -10 -34 -7 -34 13 0 33 11 51 31 51 14 0 19 -7 19 -29z m-100 -16 c0 -28
-4 -35 -19 -35 -13 0 -20 9 -23 30 -2 16 0 32 6 34 28 11 36 5 36 -29z"/>
<path d="M580 450 c-14 -4 -43 -8 -65 -9 l-40 -1 5 -77 c5 -70 7 -78 25 -76
60 5 142 4 159 -2 11 -5 21 -3 25 4 12 19 11 144 -1 158 -11 14 -68 16 -108 3z
m70 -44 c0 -21 -5 -24 -62 -29 -70 -6 -78 -4 -78 23 0 20 20 26 98 29 38 1 42
-1 42 -23z m0 -65 c0 -15 -10 -19 -52 -25 -80 -9 -88 -8 -88 12 0 29 8 32 77
32 55 0 63 -2 63 -19z"/>
<path d="M520 251 c0 -11 -27 -47 -60 -80 -65 -66 -66 -74 -5 -36 22 13 45 25
51 25 20 0 63 -40 58 -55 -5 -11 -92 -47 -173 -71 -8 -3 -12 -7 -9 -9 7 -7
152 31 188 50 32 16 33 16 87 -20 53 -35 58 -36 114 -30 33 4 61 10 64 14 2 5
-21 14 -53 21 -66 15 -142 48 -142 61 0 5 9 19 19 31 11 13 29 34 40 47 26 29
26 28 0 41 -15 9 -33 8 -70 -1 -47 -12 -50 -12 -65 9 -19 27 -44 29 -44 3z
m105 -80 c-8 -17 -20 -31 -26 -31 -20 0 -69 31 -69 44 0 14 102 37 108 24 2
-4 -4 -20 -13 -37z"/>
</g>
</svg>
