<?xml version="1.0" standalone="no"?>
<!DOCTYPE svg PUBLIC "-//W3C//DTD SVG 20010904//EN"
 "http://www.w3.org/TR/2001/REC-SVG-20010904/DTD/svg10.dtd">
<svg version="1.0" xmlns="http://www.w3.org/2000/svg"
 width="96.000000pt" height="68.000000pt" viewBox="0 0 96.000000 68.000000"
 preserveAspectRatio="xMidYMid meet">
<metadata>
Created by potrace 1.16, written by Peter Selinger 2001-2019
</metadata>
<g transform="translate(0.000000,68.000000) scale(0.100000,-0.100000)"
fill="#000000" stroke="none">
<path d="M222 552 c-98 -14 -102 -16 -86 -33 14 -16 16 -36 12 -138 -4 -83 -2
-121 6 -124 6 -2 25 2 43 10 18 7 69 13 117 13 89 0 115 12 71 32 -20 9 -43 8
-107 -4 -46 -9 -86 -14 -90 -12 -11 7 4 218 16 226 6 4 30 8 53 8 55 0 143 19
143 31 0 12 -52 9 -178 -9z"/>
</g>
</svg>
