<?xml version="1.0" standalone="no"?>
<!DOCTYPE svg PUBLIC "-//W3C//DTD SVG 20010904//EN"
 "http://www.w3.org/TR/2001/REC-SVG-20010904/DTD/svg10.dtd">
<svg version="1.0" xmlns="http://www.w3.org/2000/svg"
 width="96.000000pt" height="68.000000pt" viewBox="0 0 96.000000 68.000000"
 preserveAspectRatio="xMidYMid meet">
<metadata>
Created by potrace 1.16, written by Peter Selinger 2001-2019
</metadata>
<g transform="translate(0.000000,68.000000) scale(0.100000,-0.100000)"
fill="#000000" stroke="none">
<path d="M600 374 c-41 -7 -99 -13 -127 -13 -29 -1 -53 -3 -53 -6 0 -2 4 -14
9 -27 5 -13 14 -42 20 -66 11 -37 14 -41 31 -32 11 6 62 11 114 13 l96 2 25
59 c14 32 24 60 22 63 -15 15 -72 18 -137 7z m70 -34 c0 -17 -7 -20 -40 -20
-33 0 -40 3 -40 20 0 17 7 20 40 20 33 0 40 -3 40 -20z m-130 -10 c0 -16 -7
-20 -34 -20 -36 0 -52 12 -41 30 3 6 22 10 41 10 27 0 34 -4 34 -20z m128 -37
c-4 -24 -78 -32 -78 -9 0 13 15 18 68 25 8 0 12 -7 10 -16z m-128 -19 c0 -11
-8 -14 -32 -12 -46 4 -49 28 -4 28 26 0 36 -4 36 -16z"/>
</g>
</svg>
