<?xml version="1.0" standalone="no"?>
<!DOCTYPE svg PUBLIC "-//W3C//DTD SVG 20010904//EN"
 "http://www.w3.org/TR/2001/REC-SVG-20010904/DTD/svg10.dtd">
<svg version="1.0" xmlns="http://www.w3.org/2000/svg"
 width="90.000000pt" height="92.000000pt" viewBox="0 0 90.000000 92.000000"
 preserveAspectRatio="xMidYMid meet">
<metadata>
Created by potrace 1.16, written by Peter Selinger 2001-2019
</metadata>
<g transform="translate(0.000000,92.000000) scale(0.100000,-0.100000)"
fill="#000000" stroke="none">
<path d="M409 903 c-1 -5 -1 -11 0 -15 2 -12 -106 -163 -115 -162 -5 1 -20 5
-33 9 -22 7 -23 5 -17 -21 3 -16 9 -97 13 -181 6 -160 13 -190 35 -161 10 13
40 19 133 27 118 11 120 10 138 -12 17 -22 18 -22 32 -3 11 15 15 49 15 142 0
66 3 141 6 165 6 43 5 45 -27 63 -33 17 -37 17 -138 -4 -57 -11 -105 -19 -107
-17 -2 2 28 30 66 63 38 32 69 65 69 71 1 7 -12 19 -29 28 -33 17 -39 18 -41
8z m139 -225 c3 -36 2 -38 -20 -29 -15 6 -49 4 -93 -5 -39 -7 -85 -13 -102
-14 -30 0 -33 3 -33 30 0 23 5 31 23 34 93 21 118 24 167 23 l55 -2 3 -37z m4
-100 c4 -35 3 -36 -27 -32 -16 3 -74 -1 -127 -9 l-98 -14 0 39 0 38 43 1 c23
0 78 6 122 13 44 6 81 9 82 6 1 -3 3 -21 5 -42z m-2 -98 c0 -39 -1 -40 -33
-40 -19 0 -75 -3 -125 -6 l-92 -7 0 39 c0 39 1 40 33 37 17 -2 66 0 107 5 119
15 110 17 110 -28z"/>
<path d="M700 280 c72 -66 94 -73 104 -34 9 36 -15 61 -77 79 -94 28 -98 20
-27 -45z"/>
<path d="M390 320 c0 -16 71 -90 86 -90 9 0 14 11 14 30 0 23 -7 35 -32 50
-35 21 -68 26 -68 10z"/>
<path d="M122 237 c-18 -40 -32 -80 -32 -89 0 -56 40 -65 63 -15 25 51 31 108
15 144 l-13 31 -33 -71z"/>
<path d="M263 238 c43 -124 143 -188 293 -188 64 0 147 20 178 43 24 17 14 50
-19 65 -13 6 -42 27 -63 47 -22 19 -42 35 -45 35 -3 0 1 -20 11 -45 22 -60 11
-69 -85 -73 -129 -7 -197 28 -239 125 -13 29 -30 53 -38 53 -12 0 -11 -11 7
-62z"/>
</g>
</svg>
