<?xml version="1.0" standalone="no"?>
<!DOCTYPE svg PUBLIC "-//W3C//DTD SVG 20010904//EN"
 "http://www.w3.org/TR/2001/REC-SVG-20010904/DTD/svg10.dtd">
<svg version="1.0" xmlns="http://www.w3.org/2000/svg"
 width="96.000000pt" height="68.000000pt" viewBox="0 0 96.000000 68.000000"
 preserveAspectRatio="xMidYMid meet">
<metadata>
Created by potrace 1.16, written by Peter Selinger 2001-2019
</metadata>
<g transform="translate(0.000000,68.000000) scale(0.100000,-0.100000)"
fill="#000000" stroke="none">
<path d="M610 445 c0 -10 -10 -15 -34 -15 -19 0 -38 -4 -41 -10 -4 -6 10 -10
35 -10 49 0 45 -16 -5 -26 -62 -11 -26 -24 53 -18 120 8 150 14 130 25 -10 5
-34 8 -55 7 -50 -4 -54 13 -6 28 l38 12 -42 1 c-24 1 -43 6 -43 11 0 6 -7 10
-15 10 -8 0 -15 -7 -15 -15z"/>
</g>
</svg>
