<?xml version="1.0" standalone="no"?>
<!DOCTYPE svg PUBLIC "-//W3C//DTD SVG 20010904//EN"
 "http://www.w3.org/TR/2001/REC-SVG-20010904/DTD/svg10.dtd">
<svg version="1.0" xmlns="http://www.w3.org/2000/svg"
 width="96.000000pt" height="68.000000pt" viewBox="0 0 96.000000 68.000000"
 preserveAspectRatio="xMidYMid meet">
<metadata>
Created by potrace 1.16, written by Peter Selinger 2001-2019
</metadata>
<g transform="translate(0.000000,68.000000) scale(0.100000,-0.100000)"
fill="#000000" stroke="none">
<path d="M705 96 c60 -69 103 -75 79 -11 -6 16 -58 46 -103 60 -20 6 -17 -2
24 -49z"/>
<path d="M196 102 c-31 -45 -34 -72 -8 -72 28 0 52 32 52 68 0 45 -14 47 -44
4z"/>
<path d="M510 135 c0 -17 53 -86 63 -82 22 7 19 36 -7 62 -22 22 -56 34 -56
20z"/>
<path d="M382 85 c23 -46 49 -57 56 -23 4 20 -40 68 -62 68 -13 0 -12 -8 6
-45z"/>
</g>
</svg>
