<?xml version="1.0" standalone="no"?>
<!DOCTYPE svg PUBLIC "-//W3C//DTD SVG 20010904//EN"
 "http://www.w3.org/TR/2001/REC-SVG-20010904/DTD/svg10.dtd">
<svg version="1.0" xmlns="http://www.w3.org/2000/svg"
 width="90.000000pt" height="92.000000pt" viewBox="0 0 90.000000 92.000000"
 preserveAspectRatio="xMidYMid meet">
<metadata>
Created by potrace 1.16, written by Peter Selinger 2001-2019
</metadata>
<g transform="translate(0.000000,92.000000) scale(0.100000,-0.100000)"
fill="#000000" stroke="none">
<path d="M177 823 c-4 -3 -7 -16 -7 -27 -1 -32 -36 -105 -81 -163 -21 -29 -39
-55 -39 -58 0 -13 58 26 91 62 46 48 99 127 99 146 0 8 -11 22 -25 31 -28 18
-29 19 -38 9z"/>
<path d="M385 773 c-17 -84 -63 -174 -132 -260 -39 -48 -33 -55 16 -19 26 19
41 23 69 19 41 -7 52 -17 52 -50 0 -18 -7 -23 -37 -28 -71 -11 -84 -16 -78
-25 3 -6 31 -10 61 -10 l54 0 0 -79 0 -79 -36 -12 c-20 -7 -58 -12 -85 -12
-27 0 -49 -4 -49 -7 0 -11 45 -51 56 -51 24 1 285 106 284 115 -1 13 -24 11
-82 -9 l-48 -15 0 65 c0 83 9 100 59 108 22 3 42 10 46 16 10 17 -30 30 -64
20 -30 -8 -31 -7 -31 21 0 16 0 32 -1 37 0 4 13 11 30 16 34 10 39 21 15 34
-11 6 -38 2 -81 -11 -35 -10 -66 -17 -69 -15 -2 3 16 35 41 73 24 37 46 73 49
79 2 6 27 -13 56 -42 28 -29 56 -50 61 -47 5 4 9 19 9 35 0 31 -35 63 -83 75
-22 6 -26 11 -21 30 4 16 -1 27 -17 39 -32 22 -38 20 -44 -11z"/>
<path d="M671 686 c-74 -19 -82 -23 -67 -36 15 -11 31 -12 109 -1 51 7 94 15
97 18 6 5 -39 44 -49 42 -3 0 -44 -11 -90 -23z"/>
<path d="M187 613 c-4 -3 -7 -16 -7 -28 0 -29 -86 -159 -139 -210 -72 -68 -40
-68 46 1 23 19 44 34 47 34 10 0 6 -182 -5 -229 -7 -31 -6 -52 3 -77 29 -81
47 -22 49 161 1 100 -3 150 -11 160 -10 12 -2 28 38 84 l51 69 -23 21 c-23 22
-38 26 -49 14z"/>
<path d="M735 555 c-33 -8 -95 -19 -137 -26 -43 -6 -78 -15 -78 -19 0 -15 40
-21 94 -15 46 6 54 4 61 -12 11 -28 19 -223 10 -288 l-7 -57 -51 6 -52 7 53
-52 52 -53 28 27 27 27 0 200 c0 124 -4 202 -10 204 -5 3 11 5 36 5 60 1 109
11 109 22 0 9 -54 40 -67 38 -4 -1 -35 -7 -68 -14z"/>
<path d="M500 365 c-5 -14 -17 -39 -26 -56 -11 -22 -12 -28 -2 -22 7 4 30 19
50 32 31 19 36 26 28 41 -16 30 -40 32 -50 5z"/>
<path d="M266 338 c21 -38 57 -78 70 -78 9 0 14 10 14 30 0 23 -7 33 -30 45
-36 18 -64 20 -54 3z"/>
</g>
</svg>
