<?xml version="1.0" standalone="no"?>
<!DOCTYPE svg PUBLIC "-//W3C//DTD SVG 20010904//EN"
 "http://www.w3.org/TR/2001/REC-SVG-20010904/DTD/svg10.dtd">
<svg version="1.0" xmlns="http://www.w3.org/2000/svg"
 width="96.000000pt" height="68.000000pt" viewBox="0 0 96.000000 68.000000"
 preserveAspectRatio="xMidYMid meet">
<metadata>
Created by potrace 1.16, written by Peter Selinger 2001-2019
</metadata>
<g transform="translate(0.000000,68.000000) scale(0.100000,-0.100000)"
fill="#000000" stroke="none">
<path d="M695 420 c-22 -5 -91 -13 -154 -19 -86 -9 -116 -9 -127 0 -17 14 -16
15 -37 -39 -21 -52 -21 -58 -1 -66 11 -4 20 4 30 32 l15 38 137 17 c75 9 150
17 165 17 l28 0 -22 -32 -23 -31 30 7 c16 4 47 12 69 18 l40 10 -33 29 c-33
30 -49 32 -117 19z"/>
</g>
</svg>
