<?xml version="1.0" standalone="no"?>
<!DOCTYPE svg PUBLIC "-//W3C//DTD SVG 20010904//EN"
 "http://www.w3.org/TR/2001/REC-SVG-20010904/DTD/svg10.dtd">
<svg version="1.0" xmlns="http://www.w3.org/2000/svg"
 width="96.000000pt" height="68.000000pt" viewBox="0 0 96.000000 68.000000"
 preserveAspectRatio="xMidYMid meet">
<metadata>
Created by potrace 1.16, written by Peter Selinger 2001-2019
</metadata>
<g transform="translate(0.000000,68.000000) scale(0.100000,-0.100000)"
fill="#000000" stroke="none">
<path d="M550 593 c-36 -7 -110 -14 -165 -16 l-100 -2 0 -80 c0 -69 -4 -89
-31 -146 -18 -38 -57 -93 -94 -132 -34 -37 -58 -67 -53 -67 5 0 30 13 55 29
63 40 120 116 148 194 l23 65 126 6 c167 9 205 15 192 30 -7 8 -2 25 15 56 14
24 21 47 16 52 -19 19 -70 24 -132 11z m50 -49 c0 -51 -13 -61 -97 -68 -43 -3
-97 -9 -121 -12 l-43 -6 7 38 c3 22 9 42 13 46 7 8 134 25 199 27 39 1 42 -1
42 -25z"/>
</g>
</svg>
