<?xml version="1.0" standalone="no"?>
<!DOCTYPE svg PUBLIC "-//W3C//DTD SVG 20010904//EN"
 "http://www.w3.org/TR/2001/REC-SVG-20010904/DTD/svg10.dtd">
<svg version="1.0" xmlns="http://www.w3.org/2000/svg"
 width="90.000000pt" height="92.000000pt" viewBox="0 0 90.000000 92.000000"
 preserveAspectRatio="xMidYMid meet">
<metadata>
Created by potrace 1.16, written by Peter Selinger 2001-2019
</metadata>
<g transform="translate(0.000000,92.000000) scale(0.100000,-0.100000)"
fill="#000000" stroke="none">
<path d="M236 858 c-3 -7 -7 -31 -11 -53 -11 -69 -126 -255 -199 -324 -14 -14
-26 -31 -26 -38 0 -20 47 15 117 86 l56 56 -6 -150 c-3 -82 -11 -176 -18 -207
-11 -50 -11 -62 4 -93 35 -74 44 -35 56 235 7 163 6 199 -6 220 -14 24 -12 31
46 128 54 91 58 103 45 117 -27 27 -54 37 -58 23z"/>
<path d="M577 488 c3 -364 6 -428 23 -428 15 0 23 41 29 150 l6 105 97 10
c105 11 123 19 94 41 -25 18 -47 18 -116 -1 -30 -8 -58 -15 -62 -15 -5 0 -8
26 -8 59 l0 58 70 7 c77 8 96 21 53 37 -25 9 -73 6 -109 -8 -11 -4 -14 6 -14
50 l0 55 57 7 c65 8 103 20 103 34 0 17 -61 23 -106 11 -25 -7 -47 -10 -50 -8
-2 3 0 39 5 79 9 72 8 75 -15 97 -14 12 -33 22 -42 22 -16 0 -17 -27 -15 -362z"/>
<path d="M395 758 c3 -13 9 -44 12 -69 l5 -46 -63 -13 c-35 -7 -68 -17 -73
-21 -11 -10 37 -30 56 -25 7 3 28 7 46 10 l32 6 0 -44 c0 -43 0 -43 -51 -59
-28 -10 -58 -17 -65 -17 -8 0 -14 -4 -14 -10 0 -16 48 -23 90 -12 l40 10 0
-43 c0 -51 -9 -59 -97 -90 -37 -13 -68 -28 -67 -32 0 -4 13 -16 27 -27 l26
-19 46 37 c31 26 45 33 45 22 0 -29 -41 -124 -71 -166 -17 -23 -28 -44 -25
-47 2 -3 25 15 51 38 88 81 111 159 124 414 l9 180 -25 23 c-13 12 -33 22 -45
22 -16 0 -19 -4 -13 -22z"/>
</g>
</svg>
