<?xml version="1.0" standalone="no"?>
<!DOCTYPE svg PUBLIC "-//W3C//DTD SVG 20010904//EN"
 "http://www.w3.org/TR/2001/REC-SVG-20010904/DTD/svg10.dtd">
<svg version="1.0" xmlns="http://www.w3.org/2000/svg"
 width="96.000000pt" height="68.000000pt" viewBox="0 0 96.000000 68.000000"
 preserveAspectRatio="xMidYMid meet">
<metadata>
Created by potrace 1.16, written by Peter Selinger 2001-2019
</metadata>
<g transform="translate(0.000000,68.000000) scale(0.100000,-0.100000)"
fill="#000000" stroke="none">
<path d="M578 593 l-3 -48 -49 -10 c-42 -9 -46 -12 -32 -24 9 -7 27 -11 41 -9
29 6 29 7 11 -37 -9 -19 -11 -37 -6 -40 9 -6 70 70 70 87 0 4 28 8 63 8 70 0
102 13 77 30 -8 6 -38 9 -66 8 l-50 -3 10 27 c12 32 -5 58 -40 58 -20 0 -23
-5 -26 -47z"/>
<path d="M280 598 c1 -7 7 -24 15 -38 8 -14 14 -28 15 -32 0 -5 -29 -8 -65 -8
-50 0 -65 -3 -65 -15 0 -32 74 -44 130 -21 11 5 19 -3 27 -25 14 -36 37 -35
40 2 0 13 1 30 2 37 1 6 10 12 20 12 27 0 51 10 51 22 0 5 -19 8 -42 6 -42 -3
-43 -2 -46 29 -2 22 -9 33 -25 37 -35 9 -57 7 -57 -6z"/>
<path d="M530 370 c0 -40 -27 -110 -42 -110 -4 0 -8 -6 -8 -12 0 -7 -16 -30
-36 -51 -45 -47 -60 -40 -103 48 -17 36 -35 63 -41 60 -11 -7 33 -111 60 -140
25 -26 17 -36 -55 -75 -33 -18 -64 -37 -70 -42 -17 -15 83 19 128 44 41 23 47
24 88 12 24 -8 78 -14 119 -13 127 0 186 36 123 75 -15 9 -41 26 -56 36 -35
24 -42 19 -26 -16 8 -16 9 -30 3 -36 -14 -13 -116 -22 -143 -12 l-24 8 33 34
c28 29 130 182 130 195 0 7 -40 26 -61 30 -16 3 -19 -2 -19 -35z"/>
<path d="M360 366 c0 -13 63 -76 76 -76 17 0 19 44 2 58 -15 11 -78 26 -78 18z"/>
<path d="M671 283 c69 -75 82 -83 94 -62 17 26 -6 57 -56 78 -72 29 -78 27
-38 -16z"/>
<path d="M208 240 c-42 -58 -34 -110 11 -71 24 21 37 72 25 94 -7 12 -14 8
-36 -23z"/>
</g>
</svg>
