<?xml version="1.0" standalone="no"?>
<!DOCTYPE svg PUBLIC "-//W3C//DTD SVG 20010904//EN"
 "http://www.w3.org/TR/2001/REC-SVG-20010904/DTD/svg10.dtd">
<svg version="1.0" xmlns="http://www.w3.org/2000/svg"
 width="96.000000pt" height="68.000000pt" viewBox="0 0 96.000000 68.000000"
 preserveAspectRatio="xMidYMid meet">
<metadata>
Created by potrace 1.16, written by Peter Selinger 2001-2019
</metadata>
<g transform="translate(0.000000,68.000000) scale(0.100000,-0.100000)"
fill="#000000" stroke="none">
<path d="M535 621 c-26 -24 -187 -81 -213 -75 -18 5 -19 2 -15 -63 10 -129
-28 -236 -115 -327 -46 -47 -46 -48 -13 -31 80 40 135 119 164 235 l14 55 157
9 c123 7 156 11 152 22 -3 7 4 24 15 38 11 14 17 30 14 36 -8 14 -88 12 -220
-4 -83 -11 -112 -11 -117 -3 -5 8 20 19 80 33 124 30 202 54 202 63 0 10 -46
31 -68 31 -10 0 -26 -8 -37 -19z m99 -133 c-3 -13 -8 -25 -10 -27 -6 -7 -257
-30 -266 -25 -4 3 -8 14 -8 24 0 13 10 20 39 25 58 10 171 22 214 24 35 1 38
-1 31 -21z"/>
<path d="M555 389 c-22 -4 -71 -8 -110 -9 -38 0 -65 -4 -58 -8 6 -4 19 -26 28
-50 12 -29 21 -40 29 -33 6 5 48 12 94 16 59 6 82 11 82 21 0 8 4 14 9 14 12
0 23 32 14 41 -15 13 -48 16 -88 8z m35 -33 c0 -21 -6 -23 -82 -31 -64 -7 -68
-6 -68 13 0 17 8 22 38 25 87 9 112 7 112 -7z"/>
<path d="M525 274 c-60 -8 -124 -12 -140 -9 l-30 5 -2 -71 c-3 -86 6 -105 60
-130 56 -25 269 -27 340 -3 64 22 71 33 48 80 l-19 38 -15 -36 c-21 -50 -62
-62 -212 -61 -143 1 -175 11 -175 51 l0 28 118 12 c64 7 132 12 150 12 18 0
31 4 28 9 -3 5 6 20 20 34 l25 25 -23 16 c-26 18 -26 18 -173 0z m125 -22 c0
-21 -29 -40 -67 -45 -42 -5 -43 -4 -43 24 0 28 1 29 55 29 30 0 55 -4 55 -8z
m-146 -19 c10 -25 -8 -36 -68 -41 -52 -4 -55 -3 -49 18 10 38 104 57 117 23z"/>
</g>
</svg>
