<?xml version="1.0" standalone="no"?>
<!DOCTYPE svg PUBLIC "-//W3C//DTD SVG 20010904//EN"
 "http://www.w3.org/TR/2001/REC-SVG-20010904/DTD/svg10.dtd">
<svg version="1.0" xmlns="http://www.w3.org/2000/svg"
 width="96.000000pt" height="68.000000pt" viewBox="0 0 96.000000 68.000000"
 preserveAspectRatio="xMidYMid meet">
<metadata>
Created by potrace 1.16, written by Peter Selinger 2001-2019
</metadata>
<g transform="translate(0.000000,68.000000) scale(0.100000,-0.100000)"
fill="#000000" stroke="none">
<path d="M535 569 c-45 -13 -87 -18 -118 -15 -40 4 -47 3 -38 -8 7 -8 19 -38
29 -67 l17 -54 50 5 c28 3 78 4 112 4 l61 -1 18 46 c9 25 23 54 31 63 13 15
12 18 -16 32 -38 20 -58 19 -146 -5z m95 -27 c0 -15 -14 -20 -92 -30 -94 -11
-108 -10 -108 12 0 9 26 16 78 23 119 15 122 15 122 -5z m-10 -57 c0 -20 -8
-22 -97 -29 -68 -6 -73 -5 -73 13 0 17 8 21 58 24 31 2 69 4 85 5 18 1 27 -3
27 -13z"/>
</g>
</svg>
