<?xml version="1.0" standalone="no"?>
<!DOCTYPE svg PUBLIC "-//W3C//DTD SVG 20010904//EN"
 "http://www.w3.org/TR/2001/REC-SVG-20010904/DTD/svg10.dtd">
<svg version="1.0" xmlns="http://www.w3.org/2000/svg"
 width="90.000000pt" height="92.000000pt" viewBox="0 0 90.000000 92.000000"
 preserveAspectRatio="xMidYMid meet">
<metadata>
Created by potrace 1.16, written by Peter Selinger 2001-2019
</metadata>
<g transform="translate(0.000000,92.000000) scale(0.100000,-0.100000)"
fill="#000000" stroke="none">
<path d="M475 831 c0 -33 -3 -63 -8 -67 -4 -4 -26 -10 -50 -13 -53 -7 -50 -27
4 -24 35 2 40 -1 34 -15 -3 -9 -9 -30 -12 -45 -7 -36 -30 -47 -97 -47 -65 0
-80 -15 -34 -34 28 -12 43 -12 98 0 36 7 140 17 233 20 92 4 167 11 167 15 0
5 -14 16 -30 24 -24 12 -45 14 -92 9 -67 -8 -67 -8 -22 53 13 17 24 34 24 37
0 4 -14 15 -31 25 -24 15 -38 17 -62 10 -52 -15 -77 -12 -70 9 3 9 13 25 22
35 15 18 14 21 -12 43 -48 41 -63 33 -62 -35z m120 -137 c-7 -25 -15 -47 -17
-49 -8 -6 -98 -12 -98 -6 0 4 7 28 16 54 l16 47 48 0 49 0 -14 -46z"/>
<path d="M217 813 c-10 -84 -103 -261 -187 -357 -18 -20 -30 -39 -27 -43 10
-9 93 63 124 107 15 22 31 40 36 40 11 0 8 -228 -5 -300 -16 -89 -15 -123 7
-156 l19 -29 11 30 c8 18 15 115 18 240 5 176 3 213 -9 235 -15 24 -13 30 39
127 30 56 51 105 48 110 -8 11 -53 43 -62 43 -3 0 -9 -21 -12 -47z"/>
<path d="M545 554 c-38 -7 -96 -15 -127 -16 -59 -2 -66 -6 -47 -25 6 -6 16
-35 23 -64 12 -56 16 -59 70 -45 21 5 24 2 28 -29 l4 -35 -66 0 -66 0 -1 -39
c0 -22 -8 -54 -17 -72 -14 -28 -14 -35 -3 -47 12 -11 25 -11 72 -3 90 17 85
21 85 -74 0 -47 4 -85 10 -85 13 0 30 67 30 123 l0 47 38 2 c20 1 62 1 92 0
67 -3 90 8 70 33 -12 15 -28 17 -102 13 l-88 -5 0 37 0 38 75 7 c41 4 75 11
75 16 0 19 -41 29 -96 23 -52 -7 -57 -6 -51 11 4 10 2 24 -4 31 -9 11 -5 14
24 14 43 0 69 9 61 21 -6 11 34 79 47 79 20 0 7 19 -25 39 -18 12 -35 20 -37
20 -2 -1 -35 -8 -74 -15z m52 -60 c-3 -20 -8 -38 -9 -40 -2 -1 -38 -6 -80 -10
l-76 -7 -7 32 c-4 18 -5 34 -3 37 6 5 107 21 147 23 33 1 34 1 28 -35z m-97
-228 c0 -38 -12 -46 -66 -46 -38 0 -39 3 -23 49 10 28 15 31 50 31 38 0 39 -1
39 -34z"/>
</g>
</svg>
