<?xml version="1.0" standalone="no"?>
<!DOCTYPE svg PUBLIC "-//W3C//DTD SVG 20010904//EN"
 "http://www.w3.org/TR/2001/REC-SVG-20010904/DTD/svg10.dtd">
<svg version="1.0" xmlns="http://www.w3.org/2000/svg"
 width="96.000000pt" height="68.000000pt" viewBox="0 0 96.000000 68.000000"
 preserveAspectRatio="xMidYMid meet">
<metadata>
Created by potrace 1.16, written by Peter Selinger 2001-2019
</metadata>
<g transform="translate(0.000000,68.000000) scale(0.100000,-0.100000)"
fill="#000000" stroke="none">
<path d="M360 600 c-12 -29 -76 -94 -135 -137 -16 -12 -25 -23 -19 -23 14 0
45 16 99 52 28 19 63 30 118 37 95 13 87 13 87 1 0 -20 -92 -109 -139 -136
-25 -14 -77 -36 -116 -49 l-70 -24 46 0 c60 -1 144 24 194 59 51 35 165 146
165 160 0 22 -53 32 -116 21 -86 -15 -93 -14 -60 13 36 29 30 56 -12 56 -23 0
-32 -6 -42 -30z"/>
<path d="M343 466 c31 -29 57 -34 57 -12 0 18 -6 22 -50 30 l-35 7 28 -25z"/>
<path d="M274 421 c31 -32 50 -39 62 -20 10 16 -17 38 -56 45 l-35 7 29 -32z"/>
</g>
</svg>
