<?xml version="1.0" standalone="no"?>
<!DOCTYPE svg PUBLIC "-//W3C//DTD SVG 20010904//EN"
 "http://www.w3.org/TR/2001/REC-SVG-20010904/DTD/svg10.dtd">
<svg version="1.0" xmlns="http://www.w3.org/2000/svg"
 width="96.000000pt" height="68.000000pt" viewBox="0 0 96.000000 68.000000"
 preserveAspectRatio="xMidYMid meet">
<metadata>
Created by potrace 1.16, written by Peter Selinger 2001-2019
</metadata>
<g transform="translate(0.000000,68.000000) scale(0.100000,-0.100000)"
fill="#000000" stroke="none">
<path d="M538 560 c5 -67 8 -65 -101 -74 -58 -4 -84 -15 -59 -23 16 -6 16 -88
-2 -146 -12 -42 -67 -132 -91 -149 -7 -5 -6 -8 1 -8 20 0 91 80 111 127 22 51
43 131 43 162 0 13 10 20 31 25 36 7 59 -7 59 -35 0 -15 -8 -19 -37 -21 l-38
-1 35 -4 c18 -3 42 -13 51 -24 15 -17 28 -19 95 -17 53 2 79 7 82 16 3 10 -13
13 -74 10 -91 -3 -111 12 -34 26 65 11 66 29 1 20 -46 -6 -50 -5 -48 14 1 16
10 21 45 26 56 8 112 8 112 0 0 -3 -5 -14 -11 -25 -10 -19 -9 -19 25 -5 69 29
70 31 34 50 -28 15 -44 17 -111 9 -62 -7 -80 -7 -84 3 -9 25 9 34 68 34 47 0
59 3 59 16 0 14 -9 15 -60 9 -56 -6 -60 -5 -60 13 0 18 -18 32 -39 32 -4 0 -5
-27 -3 -60z"/>
<path d="M169 513 c23 -43 78 -77 100 -63 35 21 -30 80 -89 80 -17 0 -19 -3
-11 -17z"/>
<path d="M147 348 c-69 -23 -65 -42 7 -36 38 3 45 1 40 -12 -15 -37 -15 -50 5
-77 11 -15 24 -43 27 -60 l7 -33 -72 0 c-56 0 -71 -3 -71 -15 0 -24 37 -38 72
-26 58 20 102 12 332 -58 116 -37 173 -38 269 -10 129 39 116 45 -108 53 -84
4 -192 14 -245 25 -158 32 -149 28 -143 67 5 29 1 38 -25 61 l-30 28 41 43
c40 42 41 44 23 58 -25 18 -57 16 -129 -8z"/>
<path d="M543 337 c-88 -10 -112 -27 -40 -27 l42 -1 -24 -19 c-13 -11 -31 -20
-42 -20 -10 0 -21 -4 -24 -10 -9 -14 10 -12 52 5 40 17 53 19 53 8 -1 -10 -72
-54 -113 -71 l-32 -12 34 5 c19 3 59 16 88 30 29 13 53 20 53 15 0 -15 -62
-57 -110 -76 -48 -18 -72 -34 -53 -34 7 0 47 13 90 30 42 17 78 30 79 30 1 0
-1 -12 -5 -27 -5 -20 -15 -29 -34 -31 l-26 -3 20 -20 c42 -42 99 12 83 77 -4
14 -2 24 4 24 10 0 58 -37 94 -73 32 -31 63 -16 40 20 -5 7 -35 26 -68 42
-130 64 -155 115 -63 127 27 4 46 10 43 15 -6 10 -28 10 -141 -4z"/>
<path d="M667 278 c-15 -17 -26 -33 -23 -35 7 -8 96 41 93 52 -7 22 -43 14
-70 -17z"/>
</g>
</svg>
