<?xml version="1.0" standalone="no"?>
<!DOCTYPE svg PUBLIC "-//W3C//DTD SVG 20010904//EN"
 "http://www.w3.org/TR/2001/REC-SVG-20010904/DTD/svg10.dtd">
<svg version="1.0" xmlns="http://www.w3.org/2000/svg"
 width="90.000000pt" height="92.000000pt" viewBox="0 0 90.000000 92.000000"
 preserveAspectRatio="xMidYMid meet">
<metadata>
Created by potrace 1.16, written by Peter Selinger 2001-2019
</metadata>
<g transform="translate(0.000000,92.000000) scale(0.100000,-0.100000)"
fill="#000000" stroke="none">
<path d="M460 837 c0 -7 15 -36 34 -64 l34 -51 -62 -11 c-33 -6 -80 -13 -104
-17 -37 -6 -42 -9 -29 -21 18 -19 37 -19 136 1 46 9 122 19 170 22 141 9 160
18 99 47 -29 14 -40 14 -93 1 -80 -18 -88 -18 -80 6 8 26 -10 57 -48 80 -37
23 -57 25 -57 7z"/>
<path d="M155 813 c15 -36 26 -115 23 -166 l-3 -52 -63 -11 c-34 -6 -66 -14
-70 -18 -15 -15 26 -27 75 -21 l53 5 -20 -50 c-32 -82 -70 -152 -111 -207 -22
-29 -36 -53 -31 -53 21 0 91 74 126 134 21 36 40 65 42 64 4 -5 -24 -242 -31
-260 -8 -21 11 -82 30 -98 25 -21 37 27 41 164 2 72 4 157 4 189 l0 58 31 -36
c34 -38 49 -38 49 1 0 20 -8 29 -40 42 -29 12 -40 23 -40 39 0 18 10 24 55 38
30 8 55 19 55 24 0 17 -50 31 -76 21 -32 -13 -34 -13 -30 3 3 6 7 49 10 94 l6
82 -29 16 c-41 21 -65 20 -56 -2z"/>
<path d="M540 614 c-36 -7 -84 -13 -107 -14 -46 0 -51 -4 -29 -25 7 -8 16 -33
20 -56 8 -53 22 -71 45 -60 9 4 56 14 104 21 76 10 87 15 82 30 -3 9 4 28 15
43 26 33 25 41 -5 61 -28 18 -37 18 -125 0z m68 -56 c-3 -29 -7 -33 -53 -45
-83 -21 -95 -18 -95 21 0 33 3 35 43 44 23 6 57 10 75 11 32 1 33 -1 30 -31z"/>
<path d="M730 450 c-38 -14 -379 -60 -396 -53 -8 3 -21 3 -28 0 -13 -5 -13
-10 1 -38 10 -20 17 -64 19 -115 2 -87 10 -124 24 -124 17 0 23 50 18 145 l-5
93 86 17 c129 24 291 32 302 14 10 -16 10 -149 0 -194 -6 -28 -10 -30 -49 -28
-31 1 -40 -1 -35 -10 5 -7 19 -29 32 -50 27 -44 43 -46 76 -11 24 26 28 44 41
179 3 38 10 79 15 92 5 13 6 30 3 38 -5 13 -65 56 -75 54 -2 0 -15 -5 -29 -9z"/>
<path d="M525 324 c-33 -7 -68 -11 -77 -8 -21 6 -21 3 -9 -28 5 -13 14 -42 20
-64 11 -42 11 -42 49 -34 20 4 58 11 85 15 26 3 45 10 42 14 -2 5 7 25 21 46
24 35 24 38 8 56 -20 22 -53 23 -139 3z m78 -22 c3 -4 3 -19 0 -34 -4 -23 -12
-28 -56 -38 -27 -6 -51 -9 -52 -8 -1 2 -5 17 -8 35 -6 31 -5 32 36 41 55 13
75 14 80 4z"/>
</g>
</svg>
