<?xml version="1.0" standalone="no"?>
<!DOCTYPE svg PUBLIC "-//W3C//DTD SVG 20010904//EN"
 "http://www.w3.org/TR/2001/REC-SVG-20010904/DTD/svg10.dtd">
<svg version="1.0" xmlns="http://www.w3.org/2000/svg"
 width="96.000000pt" height="68.000000pt" viewBox="0 0 96.000000 68.000000"
 preserveAspectRatio="xMidYMid meet">
<metadata>
Created by potrace 1.16, written by Peter Selinger 2001-2019
</metadata>
<g transform="translate(0.000000,68.000000) scale(0.100000,-0.100000)"
fill="#000000" stroke="none">
<path d="M506 568 c4 -7 18 -27 30 -45 l24 -32 -58 -6 c-31 -4 -73 -11 -92
-15 l-35 -7 28 -8 c15 -4 76 0 140 9 61 9 138 16 169 16 31 0 59 4 62 9 10 15
-50 23 -119 16 l-65 -7 0 29 c0 22 -7 33 -25 41 -35 16 -68 16 -59 0z"/>
</g>
</svg>
