<?xml version="1.0" standalone="no"?>
<!DOCTYPE svg PUBLIC "-//W3C//DTD SVG 20010904//EN"
 "http://www.w3.org/TR/2001/REC-SVG-20010904/DTD/svg10.dtd">
<svg version="1.0" xmlns="http://www.w3.org/2000/svg"
 width="96.000000pt" height="68.000000pt" viewBox="0 0 96.000000 68.000000"
 preserveAspectRatio="xMidYMid meet">
<metadata>
Created by potrace 1.16, written by Peter Selinger 2001-2019
</metadata>
<g transform="translate(0.000000,68.000000) scale(0.100000,-0.100000)"
fill="#000000" stroke="none">
<path d="M235 554 c4 -16 9 -55 12 -86 5 -64 5 -64 -66 -72 -60 -6 -74 -23
-27 -31 20 -4 47 -5 61 -3 l24 5 -29 -57 c-15 -31 -47 -79 -69 -108 -23 -29
-36 -52 -30 -52 21 0 64 32 97 72 l32 40 0 -35 c0 -19 -5 -58 -10 -88 -12 -62
1 -109 30 -109 26 0 30 19 30 163 l0 130 24 -23 c15 -13 32 -20 40 -17 25 10
19 26 -19 48 -46 28 -45 46 5 54 22 4 42 10 45 15 10 15 -25 32 -55 27 -32 -7
-31 -15 -15 83 5 32 -13 50 -64 65 -22 7 -23 5 -16 -21z"/>
<path d="M510 571 c0 -4 11 -24 24 -43 l23 -35 -84 -13 c-57 -8 -81 -16 -75
-22 7 -7 41 -6 104 2 51 6 132 14 181 17 48 3 87 9 87 14 0 15 -42 21 -111 14
l-69 -7 0 26 c0 18 -8 30 -30 41 -33 17 -50 19 -50 6z"/>
<path d="M547 410 c-89 -12 -106 -17 -95 -28 7 -7 18 -27 24 -45 7 -18 16 -31
20 -30 22 3 83 12 131 19 34 4 50 10 47 19 -3 6 2 18 11 25 8 7 15 18 15 25 0
26 -44 31 -153 15z m91 -34 c0 -21 -7 -25 -59 -35 -67 -14 -79 -10 -79 24 0
25 15 31 96 34 38 1 42 -1 42 -23z"/>
<path d="M605 278 c-77 -10 -161 -17 -186 -14 -26 3 -49 3 -52 0 -2 -3 2 -21
9 -42 7 -20 13 -60 14 -89 0 -46 12 -74 26 -60 3 3 6 41 7 84 l2 78 90 12 c50
7 126 14 170 15 l80 3 3 -67 c4 -85 -9 -112 -49 -104 -35 7 -36 0 -5 -37 47
-58 92 -12 105 105 5 42 11 81 15 86 10 17 -35 52 -63 51 -14 -1 -89 -10 -166
-21z"/>
<path d="M545 207 l-71 -9 20 -43 c17 -37 24 -43 46 -40 14 2 46 7 73 10 28 4
47 11 47 19 0 7 9 21 20 31 16 15 17 19 5 31 -15 15 -37 16 -140 1z m85 -32
c0 -27 -26 -39 -76 -33 -21 2 -30 9 -32 25 -3 19 2 22 45 26 26 2 51 4 56 5 4
1 7 -9 7 -23z"/>
</g>
</svg>
