<?xml version="1.0" standalone="no"?>
<!DOCTYPE svg PUBLIC "-//W3C//DTD SVG 20010904//EN"
 "http://www.w3.org/TR/2001/REC-SVG-20010904/DTD/svg10.dtd">
<svg version="1.0" xmlns="http://www.w3.org/2000/svg"
 width="96.000000pt" height="68.000000pt" viewBox="0 0 96.000000 68.000000"
 preserveAspectRatio="xMidYMid meet">
<metadata>
Created by potrace 1.16, written by Peter Selinger 2001-2019
</metadata>
<g transform="translate(0.000000,68.000000) scale(0.100000,-0.100000)"
fill="#000000" stroke="none">
<path d="M310 580 c0 -23 64 -70 96 -70 25 0 39 27 24 45 -6 7 -27 16 -48 19
-20 4 -45 9 -54 12 -10 3 -18 0 -18 -6z"/>
<path d="M677 548 c-7 -25 -71 -97 -122 -136 -21 -16 -24 -22 -12 -20 31 5
208 142 205 158 -2 9 -16 16 -34 18 -26 3 -33 -1 -37 -20z"/>
<path d="M372 455 c-18 -8 -71 -20 -118 -27 -46 -7 -84 -16 -84 -20 0 -5 12
-13 28 -19 21 -9 43 -6 105 11 43 13 80 20 84 17 6 -7 -149 -175 -155 -169 -2
2 -12 -8 -22 -20 -10 -13 -34 -33 -54 -43 -30 -16 -47 -35 -32 -35 14 0 76 27
99 42 15 11 27 17 27 15 0 -3 19 13 43 34 l42 39 3 -55 c2 -30 -1 -70 -6 -88
-12 -43 11 -95 34 -76 10 8 14 34 14 88 0 100 8 111 52 77 40 -30 51 -32 67
-12 14 17 -7 42 -48 58 l-26 10 37 19 c48 25 53 34 26 54 -22 15 -24 14 -60
-27 -33 -38 -37 -41 -44 -24 -6 15 5 31 51 74 l59 55 -23 18 c-28 22 -54 23
-99 4z"/>
<path d="M709 393 c-13 -20 -47 -55 -75 -78 -29 -22 -62 -48 -75 -59 l-24 -18
25 7 c29 8 133 70 154 90 7 8 30 25 50 38 37 26 35 37 -10 51 -16 5 -26 -2
-45 -31z"/>
<path d="M732 222 c-47 -52 -127 -110 -217 -159 -47 -25 -54 -33 -35 -33 60 0
194 76 305 173 35 30 38 36 26 51 -20 24 -32 19 -79 -32z"/>
</g>
</svg>
