<?xml version="1.0" standalone="no"?>
<!DOCTYPE svg PUBLIC "-//W3C//DTD SVG 20010904//EN"
 "http://www.w3.org/TR/2001/REC-SVG-20010904/DTD/svg10.dtd">
<svg version="1.0" xmlns="http://www.w3.org/2000/svg"
 width="96.000000pt" height="68.000000pt" viewBox="0 0 96.000000 68.000000"
 preserveAspectRatio="xMidYMid meet">
<metadata>
Created by potrace 1.16, written by Peter Selinger 2001-2019
</metadata>
<g transform="translate(0.000000,68.000000) scale(0.100000,-0.100000)"
fill="#000000" stroke="none">
<path d="M522 551 c-7 -31 -30 -91 -52 -134 -38 -75 -37 -83 5 -47 12 11 70
27 145 41 69 12 127 24 130 26 8 7 -25 23 -48 23 -13 0 -57 -10 -98 -22 -41
-11 -77 -18 -80 -15 -3 3 11 37 32 76 39 73 39 92 -5 104 -14 3 -20 -6 -29
-52z"/>
</g>
</svg>
