<?xml version="1.0" standalone="no"?>
<!DOCTYPE svg PUBLIC "-//W3C//DTD SVG 20010904//EN"
 "http://www.w3.org/TR/2001/REC-SVG-20010904/DTD/svg10.dtd">
<svg version="1.0" xmlns="http://www.w3.org/2000/svg"
 width="96.000000pt" height="68.000000pt" viewBox="0 0 96.000000 68.000000"
 preserveAspectRatio="xMidYMid meet">
<metadata>
Created by potrace 1.16, written by Peter Selinger 2001-2019
</metadata>
<g transform="translate(0.000000,68.000000) scale(0.100000,-0.100000)"
fill="#000000" stroke="none">
<path d="M238 519 c47 -44 77 -48 77 -10 0 19 -8 27 -35 37 -19 7 -46 13 -60
13 -24 0 -23 -2 18 -40z"/>
<path d="M144 385 c39 -34 69 -44 80 -26 17 27 -35 62 -93 61 -26 -1 -25 -1
13 -35z"/>
<path d="M246 257 c-25 -29 -61 -62 -81 -73 -22 -12 -35 -26 -35 -39 0 -23 26
-65 40 -65 5 0 24 28 43 63 18 34 46 84 62 110 15 26 25 50 22 53 -2 3 -25
-19 -51 -49z"/>
</g>
</svg>
