<?xml version="1.0" standalone="no"?>
<!DOCTYPE svg PUBLIC "-//W3C//DTD SVG 20010904//EN"
 "http://www.w3.org/TR/2001/REC-SVG-20010904/DTD/svg10.dtd">
<svg version="1.0" xmlns="http://www.w3.org/2000/svg"
 width="96.000000pt" height="68.000000pt" viewBox="0 0 96.000000 68.000000"
 preserveAspectRatio="xMidYMid meet">
<metadata>
Created by potrace 1.16, written by Peter Selinger 2001-2019
</metadata>
<g transform="translate(0.000000,68.000000) scale(0.100000,-0.100000)"
fill="#000000" stroke="none">
<path d="M558 293 c-3 -26 -7 -28 -51 -31 -31 -2 -47 1 -43 7 7 11 -31 41 -51
41 -8 0 -13 -12 -13 -29 0 -27 -2 -28 -61 -35 -34 -3 -102 -6 -150 -6 -89 0
-109 -9 -68 -31 15 -8 42 -8 102 0 44 6 98 11 120 11 38 0 39 -1 24 -18 -30
-33 -21 -48 38 -61 33 -7 53 -17 49 -23 -9 -14 -125 -68 -146 -68 -9 0 -20 -5
-24 -12 -13 -20 85 0 157 33 l68 31 65 -36 c76 -42 99 -46 94 -14 -2 17 -20
31 -63 53 -33 17 -61 30 -63 31 -10 4 53 94 66 95 10 1 65 0 125 -1 70 -1 107
2 107 9 0 21 -41 31 -125 31 -81 0 -89 2 -107 25 -26 33 -46 32 -50 -2z m-18
-69 c0 -19 -44 -74 -58 -74 -40 0 -92 13 -92 23 0 6 10 21 22 34 17 18 32 23
75 23 29 0 53 -3 53 -6z"/>
</g>
</svg>
