<?xml version="1.0" standalone="no"?>
<!DOCTYPE svg PUBLIC "-//W3C//DTD SVG 20010904//EN"
 "http://www.w3.org/TR/2001/REC-SVG-20010904/DTD/svg10.dtd">
<svg version="1.0" xmlns="http://www.w3.org/2000/svg"
 width="96.000000pt" height="68.000000pt" viewBox="0 0 96.000000 68.000000"
 preserveAspectRatio="xMidYMid meet">
<metadata>
Created by potrace 1.16, written by Peter Selinger 2001-2019
</metadata>
<g transform="translate(0.000000,68.000000) scale(0.100000,-0.100000)"
fill="#000000" stroke="none">
<path d="M430 241 c0 -50 -4 -92 -10 -96 -10 -6 -243 -35 -248 -30 -1 1 -3 39
-5 84 -2 76 -4 82 -25 88 -31 7 -35 1 -22 -33 6 -16 10 -61 8 -101 -1 -40 1
-75 5 -80 4 -4 31 1 60 10 42 14 179 37 218 37 5 0 9 -9 9 -20 0 -25 27 -27
34 -2 6 21 26 178 26 209 0 18 -6 23 -25 23 -25 0 -25 -1 -25 -89z"/>
</g>
</svg>
