<?xml version="1.0" standalone="no"?>
<!DOCTYPE svg PUBLIC "-//W3C//DTD SVG 20010904//EN"
 "http://www.w3.org/TR/2001/REC-SVG-20010904/DTD/svg10.dtd">
<svg version="1.0" xmlns="http://www.w3.org/2000/svg"
 width="90.000000pt" height="92.000000pt" viewBox="0 0 90.000000 92.000000"
 preserveAspectRatio="xMidYMid meet">
<metadata>
Created by potrace 1.16, written by Peter Selinger 2001-2019
</metadata>
<g transform="translate(0.000000,92.000000) scale(0.100000,-0.100000)"
fill="#000000" stroke="none">
<path d="M470 816 c0 -4 11 -29 25 -55 l24 -49 -67 -10 c-57 -8 -69 -7 -79 7
-10 14 -13 12 -23 -14 -6 -16 -18 -44 -27 -62 -17 -36 -12 -63 11 -63 16 0 46
48 46 73 0 10 34 18 123 30 159 22 167 22 167 -4 0 -11 -5 -30 -11 -41 -6 -11
-7 -19 -2 -16 52 24 123 64 123 69 0 4 -15 18 -32 31 -35 24 -84 29 -150 15
-36 -8 -38 -7 -38 18 0 24 -31 65 -49 65 -5 0 -16 3 -25 6 -9 3 -16 3 -16 0z"/>
<path d="M125 793 c29 -75 29 -287 0 -426 -16 -76 -52 -154 -98 -211 -22 -28
-26 -38 -13 -33 49 19 128 113 142 170 3 15 9 27 12 27 4 0 23 -19 43 -42 35
-42 36 -42 48 -20 16 31 0 56 -48 76 -24 9 -39 21 -36 28 2 7 9 49 14 93 l9
80 53 47 c53 46 53 47 35 67 -11 12 -23 21 -27 21 -4 0 -18 -21 -31 -47 l-23
-48 -3 74 c-2 41 2 87 7 102 8 24 7 31 -12 44 -12 8 -34 15 -50 15 -24 0 -28
-3 -22 -17z"/>
<path d="M402 561 c-6 -16 -27 -47 -47 -70 -21 -23 -34 -41 -31 -41 15 0 52
24 99 63 45 38 46 41 31 59 -24 26 -41 22 -52 -11z"/>
<path d="M540 582 c0 -12 69 -75 100 -92 29 -15 45 0 36 35 -5 18 -18 31 -42
41 -49 21 -94 28 -94 16z"/>
<path d="M4 544 c10 -36 47 -114 55 -114 16 0 31 26 31 53 0 32 -48 87 -75 87
-13 0 -16 -6 -11 -26z"/>
<path d="M470 491 c0 -54 -113 -194 -225 -279 -29 -22 -29 -23 -5 -16 53 13
118 60 197 140 45 46 85 84 88 84 3 0 46 -38 95 -85 50 -46 101 -87 115 -91
26 -6 122 13 130 26 3 5 -31 20 -76 35 -103 35 -259 136 -252 164 3 12 -4 25
-18 35 -34 24 -49 20 -49 -13z"/>
<path d="M495 274 c-44 -7 -87 -11 -97 -8 -22 7 -31 -11 -14 -25 8 -7 19 -42
26 -79 12 -75 25 -104 38 -86 4 7 39 15 77 19 109 10 128 15 115 30 -11 13 5
59 36 101 14 20 13 23 -12 43 -30 24 -54 25 -169 5z m105 -53 c0 -64 -13 -78
-80 -86 -34 -4 -63 -5 -65 -3 -2 2 -5 25 -7 53 -3 48 -2 50 27 56 17 4 51 7
78 8 46 1 47 0 47 -28z"/>
</g>
</svg>
