<?xml version="1.0" standalone="no"?>
<!DOCTYPE svg PUBLIC "-//W3C//DTD SVG 20010904//EN"
 "http://www.w3.org/TR/2001/REC-SVG-20010904/DTD/svg10.dtd">
<svg version="1.0" xmlns="http://www.w3.org/2000/svg"
 width="96.000000pt" height="68.000000pt" viewBox="0 0 96.000000 68.000000"
 preserveAspectRatio="xMidYMid meet">
<metadata>
Created by potrace 1.16, written by Peter Selinger 2001-2019
</metadata>
<g transform="translate(0.000000,68.000000) scale(0.100000,-0.100000)"
fill="#000000" stroke="none">
<path d="M510 562 c0 -6 10 -23 35 -60 4 -6 35 11 35 19 0 15 -39 49 -55 49
-8 0 -15 -3 -15 -8z"/>
<path d="M196 533 c5 -16 8 -82 8 -148 -2 -140 -23 -211 -82 -277 -19 -21 -32
-41 -29 -44 14 -14 86 41 112 86 l29 49 29 -25 c33 -28 45 -30 54 -9 7 20 -24
55 -50 55 -18 0 -19 5 -13 53 3 28 6 59 6 68 0 10 22 31 50 49 44 28 48 34 37
51 -15 24 -44 25 -52 0 -3 -11 -12 -24 -20 -31 -12 -10 -13 -3 -10 41 3 29 7
61 10 70 7 21 -21 39 -60 39 -25 0 -26 -2 -19 -27z"/>
<path d="M530 484 c-58 -10 -92 -12 -107 -5 -19 9 -24 5 -43 -31 -21 -40 -21
-76 0 -63 6 4 8 11 5 16 -3 5 0 6 8 3 9 -3 17 3 20 18 6 22 15 25 129 39 129
17 152 13 130 -21 -7 -11 -8 -20 -3 -20 14 0 101 38 101 44 0 3 -13 12 -30 21
-35 18 -96 18 -210 -1z"/>
<path d="M440 386 c0 -7 -14 -28 -32 -45 -54 -53 6 -34 66 20 10 10 15 22 11
28 -9 16 -45 13 -45 -3z"/>
<path d="M570 396 c0 -9 36 -43 59 -55 47 -26 73 4 29 33 -25 15 -88 31 -88
22z"/>
<path d="M85 368 c10 -31 45 -88 55 -88 17 0 31 29 24 54 -7 30 -39 56 -67 56
-14 0 -17 -5 -12 -22z"/>
<path d="M506 343 c-3 -4 -6 -15 -6 -25 0 -25 -100 -126 -165 -166 -59 -38
-37 -43 27 -7 43 24 46 24 60 7 8 -9 21 -38 28 -65 13 -50 24 -64 35 -47 3 5
41 10 84 10 77 0 79 0 79 26 0 14 9 35 20 47 38 40 -10 69 -90 55 -27 -5 -72
-8 -101 -6 l-53 3 57 53 c67 62 59 63 172 -25 70 -54 73 -55 121 -49 72 8 77
21 14 36 -73 18 -228 99 -228 120 0 17 -43 43 -54 33z m104 -222 l0 -40 -54
-6 c-66 -9 -76 -3 -76 40 0 36 6 39 98 43 31 2 32 1 32 -37z"/>
</g>
</svg>
