<?xml version="1.0" standalone="no"?>
<!DOCTYPE svg PUBLIC "-//W3C//DTD SVG 20010904//EN"
 "http://www.w3.org/TR/2001/REC-SVG-20010904/DTD/svg10.dtd">
<svg version="1.0" xmlns="http://www.w3.org/2000/svg"
 width="90.000000pt" height="92.000000pt" viewBox="0 0 90.000000 92.000000"
 preserveAspectRatio="xMidYMid meet">
<metadata>
Created by potrace 1.16, written by Peter Selinger 2001-2019
</metadata>
<g transform="translate(0.000000,92.000000) scale(0.100000,-0.100000)"
fill="#000000" stroke="none">
<path d="M588 771 c2 -38 1 -94 -2 -125 l-7 -55 -47 -6 c-26 -3 -57 -8 -69
-11 -23 -4 -23 -2 -23 85 0 97 -8 111 -59 111 -24 0 -25 -5 -12 -46 5 -16 12
-57 15 -91 l6 -62 -35 -7 c-29 -5 -33 -9 -24 -20 6 -8 22 -14 35 -14 24 0 29
-16 36 -120 l3 -35 -92 -9 c-51 -5 -93 -12 -93 -16 0 -4 18 -15 40 -24 35 -14
46 -14 97 -1 77 19 252 35 391 35 94 0 112 2 112 16 0 8 -17 22 -37 31 -32 13
-48 14 -99 4 -92 -17 -126 -15 -120 7 3 9 8 35 11 57 12 71 12 72 75 84 33 7
60 16 60 21 0 17 -43 32 -76 27 -32 -5 -34 -4 -33 21 0 15 9 59 19 97 l19 70
-25 23 c-14 12 -36 22 -48 22 -23 0 -23 -2 -18 -69z m-23 -303 c-4 -40 -8 -73
-9 -74 0 -1 -25 -4 -53 -7 l-53 -6 0 52 c0 29 -3 62 -6 74 -6 23 8 28 90 32
l38 1 -7 -72z"/>
<path d="M175 639 c-30 -15 -53 -18 -92 -14 -52 5 -63 -1 -42 -22 6 -6 17 -55
25 -109 15 -99 28 -131 42 -107 4 7 40 15 80 19 68 7 85 15 62 29 -13 8 -4 63
21 128 25 62 24 72 -6 85 -33 15 -42 14 -90 -9z m35 -71 c0 -24 -3 -60 -6 -80
-6 -34 -10 -38 -48 -46 l-41 -8 -7 41 c-3 22 -7 56 -7 76 -1 33 2 36 37 46 68
19 72 18 72 -29z"/>
<path d="M376 270 c-4 -22 -30 -56 -80 -106 -40 -41 -70 -74 -64 -74 29 0 113
57 200 135 34 31 38 39 27 51 -8 7 -28 16 -45 20 -29 5 -32 4 -38 -26z"/>
<path d="M570 295 c0 -8 137 -190 153 -204 24 -19 37 -5 37 39 0 62 -61 120
-165 160 -14 5 -25 7 -25 5z"/>
</g>
</svg>
