<?xml version="1.0" standalone="no"?>
<!DOCTYPE svg PUBLIC "-//W3C//DTD SVG 20010904//EN"
 "http://www.w3.org/TR/2001/REC-SVG-20010904/DTD/svg10.dtd">
<svg version="1.0" xmlns="http://www.w3.org/2000/svg"
 width="96.000000pt" height="68.000000pt" viewBox="0 0 96.000000 68.000000"
 preserveAspectRatio="xMidYMid meet">
<metadata>
Created by potrace 1.16, written by Peter Selinger 2001-2019
</metadata>
<g transform="translate(0.000000,68.000000) scale(0.100000,-0.100000)"
fill="#000000" stroke="none">
<path d="M244 487 c-1 -128 -7 -137 -94 -137 -75 0 -87 -10 -41 -35 22 -11 37
-12 56 -5 41 16 58 13 50 -7 -18 -44 -16 -50 21 -73 l39 -22 -35 -31 c-19 -18
-46 -40 -60 -49 l-25 -17 35 10 c19 5 53 22 76 39 l41 29 28 -29 c34 -35 65
-40 65 -10 0 13 -13 28 -35 41 -19 12 -35 23 -35 25 0 2 9 21 20 41 11 21 23
53 26 71 5 24 14 36 38 47 27 12 28 13 9 14 -16 1 -23 7 -23 20 0 17 -24 30
-55 31 -6 0 -10 -15 -10 -32 0 -31 -3 -33 -36 -36 l-37 -3 26 92 c26 89 26 91
7 105 -43 31 -50 20 -51 -79z m90 -164 c-6 -23 -30 -80 -39 -91 -3 -4 -65 20
-65 25 0 3 5 23 11 44 9 29 18 39 38 42 60 9 62 9 55 -20z"/>
</g>
</svg>
