<?xml version="1.0" standalone="no"?>
<!DOCTYPE svg PUBLIC "-//W3C//DTD SVG 20010904//EN"
 "http://www.w3.org/TR/2001/REC-SVG-20010904/DTD/svg10.dtd">
<svg version="1.0" xmlns="http://www.w3.org/2000/svg"
 width="96.000000pt" height="68.000000pt" viewBox="0 0 96.000000 68.000000"
 preserveAspectRatio="xMidYMid meet">
<metadata>
Created by potrace 1.16, written by Peter Selinger 2001-2019
</metadata>
<g transform="translate(0.000000,68.000000) scale(0.100000,-0.100000)"
fill="#000000" stroke="none">
<path d="M416 633 c-3 -4 -6 -17 -6 -30 0 -13 -6 -39 -14 -57 -14 -33 -14 -33
-100 -41 -107 -9 -116 -28 -11 -23 48 2 75 -1 75 -8 0 -26 -68 -98 -134 -141
-123 -81 -115 -74 -86 -67 93 23 221 117 268 196 9 15 22 28 28 28 6 0 28 -18
48 -40 20 -22 64 -63 98 -90 l62 -50 93 0 c85 0 120 11 76 24 -10 2 -52 14
-93 26 -78 22 -191 82 -224 119 l-19 21 64 1 c35 1 78 4 94 8 l30 6 -30 13
c-22 9 -49 10 -105 3 -41 -5 -76 -8 -78 -6 -2 2 4 17 12 34 9 16 16 37 16 45
0 15 -54 39 -64 29z"/>
</g>
</svg>
