<?xml version="1.0" standalone="no"?>
<!DOCTYPE svg PUBLIC "-//W3C//DTD SVG 20010904//EN"
 "http://www.w3.org/TR/2001/REC-SVG-20010904/DTD/svg10.dtd">
<svg version="1.0" xmlns="http://www.w3.org/2000/svg"
 width="96.000000pt" height="68.000000pt" viewBox="0 0 96.000000 68.000000"
 preserveAspectRatio="xMidYMid meet">
<metadata>
Created by potrace 1.16, written by Peter Selinger 2001-2019
</metadata>
<g transform="translate(0.000000,68.000000) scale(0.100000,-0.100000)"
fill="#000000" stroke="none">
<path d="M418 160 l4 -80 -38 0 -38 0 29 -30 c61 -64 95 -27 95 102 l0 88 -27
0 -28 0 3 -80z"/>
<path d="M232 114 c-29 -30 -50 -54 -46 -54 19 0 144 84 141 94 -9 26 -45 11
-95 -40z"/>
<path d="M596 116 c56 -53 84 -62 84 -26 0 22 -25 44 -74 64 -66 28 -69 18
-10 -38z"/>
</g>
</svg>
