<?xml version="1.0" standalone="no"?>
<!DOCTYPE svg PUBLIC "-//W3C//DTD SVG 20010904//EN"
 "http://www.w3.org/TR/2001/REC-SVG-20010904/DTD/svg10.dtd">
<svg version="1.0" xmlns="http://www.w3.org/2000/svg"
 width="90.000000pt" height="92.000000pt" viewBox="0 0 90.000000 92.000000"
 preserveAspectRatio="xMidYMid meet">
<metadata>
Created by potrace 1.16, written by Peter Selinger 2001-2019
</metadata>
<g transform="translate(0.000000,92.000000) scale(0.100000,-0.100000)"
fill="#000000" stroke="none">
<path d="M370 858 c0 -6 11 -30 25 -53 l24 -42 -46 -7 c-72 -10 -171 -7 -179
5 -9 15 -74 -122 -68 -143 11 -35 42 -20 65 30 l22 49 81 15 c86 17 96 14 96
-29 0 -23 -2 -24 -115 -53 -34 -8 -29 -9 38 -5 70 4 77 3 77 -14 0 -16 -11
-20 -65 -26 -36 -3 -65 -10 -65 -15 0 -15 34 -21 87 -14 48 6 53 5 53 -13 0
-18 -11 -22 -107 -32 -59 -7 -110 -14 -112 -16 -2 -2 8 -9 22 -16 20 -9 54 -8
154 5 70 9 151 16 178 17 28 0 67 3 89 7 l38 7 -21 19 c-17 16 -30 18 -83 12
-35 -4 -75 -10 -90 -13 -23 -5 -28 -2 -28 15 0 17 9 21 63 29 77 10 73 28 -5
28 -32 0 -58 2 -58 5 0 20 33 40 85 50 l59 12 -27 24 -27 23 -33 -19 c-42 -26
-44 -25 -49 9 -5 33 -1 35 130 47 81 7 86 2 51 -48 -12 -16 -19 -31 -16 -34
10 -10 142 33 145 48 4 18 -62 78 -86 78 -9 0 -55 -7 -102 -15 -111 -20 -108
-20 -112 17 -2 26 -10 36 -38 50 -42 21 -50 22 -50 6z"/>
<path d="M470 454 c-36 -8 -110 -16 -165 -19 -55 -2 -102 -4 -105 -5 -3 0 3
-5 13 -11 9 -5 17 -16 17 -23 0 -7 7 -36 15 -64 13 -44 18 -50 33 -43 27 15
286 33 290 21 9 -25 35 -6 56 40 13 27 28 56 35 64 11 13 7 19 -21 36 -38 23
-75 24 -168 4z m114 -32 c2 -4 1 -23 -3 -42 -7 -34 -8 -34 -51 -31 -25 1 -46
4 -47 5 -1 0 4 18 10 39 11 34 15 37 49 37 20 0 39 -3 42 -8z m-134 -42 c0
-33 -3 -40 -19 -40 -11 0 -26 -3 -35 -6 -13 -5 -16 2 -16 34 0 41 8 50 48 51
19 1 22 -4 22 -39z m-106 10 c3 -11 8 -29 11 -39 5 -16 -1 -19 -35 -23 -26 -2
-40 1 -40 8 0 6 -3 26 -6 43 -6 30 -5 31 29 31 27 0 37 -5 41 -20z"/>
<path d="M717 240 c49 -52 59 -58 71 -46 27 26 7 61 -47 85 -81 35 -87 26 -24
-39z"/>
<path d="M420 263 c0 -22 62 -94 78 -91 27 5 28 54 0 72 -30 19 -78 31 -78 19z"/>
<path d="M260 251 c0 -7 11 -34 25 -61 49 -97 141 -136 302 -128 65 3 98 9
124 24 49 29 47 45 -9 76 -27 15 -55 34 -62 43 -23 27 -30 16 -13 -20 25 -52
11 -60 -105 -60 -84 0 -104 3 -146 25 -32 17 -55 38 -70 64 -22 39 -46 58 -46
37z"/>
<path d="M127 182 c-31 -65 -34 -90 -11 -99 21 -8 41 18 55 71 10 38 6 87 -9
85 -4 0 -19 -26 -35 -57z"/>
</g>
</svg>
