<?xml version="1.0" standalone="no"?>
<!DOCTYPE svg PUBLIC "-//W3C//DTD SVG 20010904//EN"
 "http://www.w3.org/TR/2001/REC-SVG-20010904/DTD/svg10.dtd">
<svg version="1.0" xmlns="http://www.w3.org/2000/svg"
 width="96.000000pt" height="68.000000pt" viewBox="0 0 96.000000 68.000000"
 preserveAspectRatio="xMidYMid meet">
<metadata>
Created by potrace 1.16, written by Peter Selinger 2001-2019
</metadata>
<g transform="translate(0.000000,68.000000) scale(0.100000,-0.100000)"
fill="#000000" stroke="none">
<path d="M430 455 c0 -20 -6 -25 -37 -30 -67 -11 -69 -13 -15 -14 39 -1 52 -5
52 -16 0 -11 -12 -15 -47 -15 -27 0 -55 -5 -63 -10 -11 -7 3 -10 48 -10 34 0
62 -4 62 -10 0 -5 9 -10 20 -10 11 0 20 6 20 14 0 9 18 16 55 21 69 8 74 28 5
23 -34 -2 -50 1 -50 9 0 13 14 18 73 29 20 3 37 10 37 15 0 15 -44 21 -74 10
-35 -14 -36 -14 -36 4 0 9 -9 15 -25 15 -20 0 -25 -5 -25 -25z"/>
</g>
</svg>
