<?xml version="1.0" standalone="no"?>
<!DOCTYPE svg PUBLIC "-//W3C//DTD SVG 20010904//EN"
 "http://www.w3.org/TR/2001/REC-SVG-20010904/DTD/svg10.dtd">
<svg version="1.0" xmlns="http://www.w3.org/2000/svg"
 width="96.000000pt" height="68.000000pt" viewBox="0 0 96.000000 68.000000"
 preserveAspectRatio="xMidYMid meet">
<metadata>
Created by potrace 1.16, written by Peter Selinger 2001-2019
</metadata>
<g transform="translate(0.000000,68.000000) scale(0.100000,-0.100000)"
fill="#000000" stroke="none">
<path d="M265 593 c3 -10 9 -46 12 -81 7 -73 1 -81 -62 -83 -75 -1 -86 -18
-12 -18 37 -1 67 -5 67 -9 0 -18 -83 -137 -132 -188 -28 -30 -47 -54 -42 -54
21 1 107 75 140 121 20 27 38 48 40 46 2 -1 -1 -43 -6 -92 -17 -156 -10 -204
24 -176 13 11 16 37 16 144 l0 131 28 -27 c32 -30 65 -36 60 -11 -3 18 -18 29
-61 44 -24 9 -28 15 -25 42 3 29 7 33 43 40 22 5 44 13 49 18 12 12 -37 24
-64 15 -22 -7 -22 -6 -15 63 6 64 5 71 -13 81 -32 17 -55 14 -47 -6z"/>
</g>
</svg>
