<?xml version="1.0" standalone="no"?>
<!DOCTYPE svg PUBLIC "-//W3C//DTD SVG 20010904//EN"
 "http://www.w3.org/TR/2001/REC-SVG-20010904/DTD/svg10.dtd">
<svg version="1.0" xmlns="http://www.w3.org/2000/svg"
 width="96.000000pt" height="68.000000pt" viewBox="0 0 96.000000 68.000000"
 preserveAspectRatio="xMidYMid meet">
<metadata>
Created by potrace 1.16, written by Peter Selinger 2001-2019
</metadata>
<g transform="translate(0.000000,68.000000) scale(0.100000,-0.100000)"
fill="#000000" stroke="none">
<path d="M585 406 c-49 -7 -97 -11 -105 -9 -13 3 -15 -12 -15 -91 0 -85 2 -96
18 -96 9 0 17 6 17 13 0 8 13 13 38 13 20 0 72 4 115 8 68 8 77 7 77 -8 0 -10
8 -16 24 -16 24 0 25 2 28 88 2 67 0 90 -11 100 -18 14 -65 14 -186 -2z m138
-28 c3 -12 4 -25 2 -28 -2 -4 -35 -10 -72 -13 -37 -4 -85 -9 -105 -13 -37 -6
-38 -6 -38 24 0 30 1 31 58 37 31 3 66 7 77 9 57 9 73 6 78 -16z m5 -84 c-3
-15 -16 -20 -68 -25 -36 -3 -86 -10 -112 -14 -46 -7 -48 -6 -48 17 0 23 5 24
108 39 59 8 111 11 115 8 5 -4 7 -15 5 -25z"/>
</g>
</svg>
