<?xml version="1.0" standalone="no"?>
<!DOCTYPE svg PUBLIC "-//W3C//DTD SVG 20010904//EN"
 "http://www.w3.org/TR/2001/REC-SVG-20010904/DTD/svg10.dtd">
<svg version="1.0" xmlns="http://www.w3.org/2000/svg"
 width="96.000000pt" height="68.000000pt" viewBox="0 0 96.000000 68.000000"
 preserveAspectRatio="xMidYMid meet">
<metadata>
Created by potrace 1.16, written by Peter Selinger 2001-2019
</metadata>
<g transform="translate(0.000000,68.000000) scale(0.100000,-0.100000)"
fill="#000000" stroke="none">
<path d="M586 478 c7 -117 18 -141 69 -158 46 -15 137 -5 164 18 19 16 19 19
5 52 l-15 35 -14 -31 c-15 -37 -31 -44 -95 -44 -52 0 -67 11 -76 57 -6 28 -3
30 51 51 31 12 61 22 65 22 5 0 21 5 37 11 27 10 27 11 9 25 -27 19 -56 18
-80 -5 -12 -10 -34 -27 -50 -37 l-29 -18 5 51 c5 55 -3 73 -34 73 -17 0 -18
-8 -12 -102z"/>
</g>
</svg>
