<?xml version="1.0" standalone="no"?>
<!DOCTYPE svg PUBLIC "-//W3C//DTD SVG 20010904//EN"
 "http://www.w3.org/TR/2001/REC-SVG-20010904/DTD/svg10.dtd">
<svg version="1.0" xmlns="http://www.w3.org/2000/svg"
 width="90.000000pt" height="92.000000pt" viewBox="0 0 90.000000 92.000000"
 preserveAspectRatio="xMidYMid meet">
<metadata>
Created by potrace 1.16, written by Peter Selinger 2001-2019
</metadata>
<g transform="translate(0.000000,92.000000) scale(0.100000,-0.100000)"
fill="#000000" stroke="none">
<path d="M465 888 c-22 -12 -74 -35 -115 -50 l-75 -28 66 5 c52 5 68 3 78 -9
20 -24 6 -33 -69 -40 -38 -4 -70 -11 -70 -16 0 -15 33 -20 96 -14 64 7 64 7
64 -19 0 -13 -6 -27 -14 -30 -7 -3 -67 -9 -132 -13 -66 -4 -128 -10 -139 -14
-17 -6 -16 -9 15 -25 31 -16 43 -17 115 -6 44 7 98 15 119 18 l39 5 -5 -46
c-3 -26 -8 -49 -11 -52 -2 -3 -23 0 -46 5 l-42 9 48 -53 c26 -29 54 -53 60
-54 23 -2 43 56 43 124 l0 65 123 0 c137 0 159 6 126 36 -18 16 -33 18 -93 16
-169 -9 -161 -10 -164 19 -3 22 2 27 29 33 17 3 44 6 60 6 30 0 46 14 28 25
-13 9 -82 9 -109 0 -16 -5 -20 -2 -20 14 0 12 -4 21 -10 21 -5 0 -10 4 -10 9
0 5 25 12 55 16 30 3 57 10 60 15 4 7 -46 51 -57 50 -1 -1 -21 -11 -43 -22z"/>
<path d="M644 529 c-3 -6 -47 -31 -97 -55 -72 -35 -84 -44 -61 -44 16 0 44 4
62 9 30 9 34 8 43 -15 5 -14 7 -29 4 -34 -3 -4 -34 -11 -70 -15 -36 -3 -65
-10 -65 -15 0 -15 31 -20 86 -14 53 7 54 6 54 -19 0 -28 -8 -31 -111 -43 -45
-5 -62 -2 -87 14 -25 14 -44 18 -82 14 -48 -4 -50 -4 -50 21 0 26 8 30 89 40
8 1 15 7 15 12 1 6 -21 11 -48 13 -45 3 -75 20 -76 44 0 3 23 9 50 13 55 8 59
17 18 48 -26 20 -26 20 -63 -3 -20 -13 -69 -36 -109 -52 l-71 -29 66 6 c65 5
67 5 71 -19 5 -23 2 -25 -66 -33 -89 -10 -85 -28 7 -27 63 2 67 1 67 -21 0
-26 -14 -30 -133 -41 -43 -4 -77 -11 -77 -15 0 -5 11 -16 24 -24 17 -11 30
-13 48 -6 13 5 50 12 81 16 64 8 65 7 50 -79 -6 -38 -6 -38 -45 -32 l-40 6 44
-50 c24 -27 48 -50 54 -50 20 0 36 54 42 138 l5 84 79 -5 c43 -3 85 -10 93
-17 11 -9 30 -10 78 -1 35 6 67 11 70 11 10 0 8 -93 -2 -109 -6 -10 -19 -12
-46 -7 l-37 7 48 -55 c27 -31 51 -56 54 -56 19 0 34 56 38 138 l4 92 104 0
c109 0 126 8 74 35 -29 15 -82 15 -157 -1 -20 -4 -23 0 -23 25 0 32 14 41 63
41 36 0 65 15 53 27 -4 4 -32 7 -62 7 -46 -1 -54 1 -60 20 -4 11 -11 24 -17
28 -6 3 9 11 34 18 77 20 77 19 44 46 -33 26 -50 30 -61 13z"/>
</g>
</svg>
