<?xml version="1.0" standalone="no"?>
<!DOCTYPE svg PUBLIC "-//W3C//DTD SVG 20010904//EN"
 "http://www.w3.org/TR/2001/REC-SVG-20010904/DTD/svg10.dtd">
<svg version="1.0" xmlns="http://www.w3.org/2000/svg"
 width="96.000000pt" height="68.000000pt" viewBox="0 0 96.000000 68.000000"
 preserveAspectRatio="xMidYMid meet">
<metadata>
Created by potrace 1.16, written by Peter Selinger 2001-2019
</metadata>
<g transform="translate(0.000000,68.000000) scale(0.100000,-0.100000)"
fill="#000000" stroke="none">
<path d="M485 600 c-22 -11 -64 -25 -92 -31 -71 -16 -67 -28 5 -22 47 4 60 2
65 -10 4 -12 -8 -16 -64 -21 -38 -4 -69 -11 -69 -17 0 -5 34 -9 75 -9 58 0 75
-3 75 -14 0 -11 -22 -16 -87 -21 -49 -3 -110 -8 -137 -12 -47 -5 -49 -6 -30
-20 15 -12 39 -14 117 -8 54 3 105 9 113 12 12 5 15 -1 12 -28 -2 -19 -8 -33
-13 -32 -6 1 -24 5 -40 9 l-30 7 40 -45 c22 -26 48 -47 57 -47 27 -2 48 39 48
91 l0 48 116 0 c104 0 115 2 112 17 -4 24 -47 31 -150 25 -74 -4 -88 -3 -88
10 0 11 15 17 51 21 29 4 54 9 58 12 12 13 -26 24 -64 18 -30 -4 -44 -1 -54
11 -12 14 -11 16 8 17 11 1 26 3 31 4 6 1 17 3 25 4 24 2 17 31 -11 41 -31 12
-30 12 -79 -10z"/>
<path d="M620 325 c-42 -23 -76 -37 -92 -39 -3 -1 -10 -4 -14 -8 -3 -4 16 -5
43 -1 42 4 51 3 57 -12 9 -24 6 -25 -58 -32 -33 -3 -53 -10 -49 -16 3 -5 28
-7 59 -4 52 5 54 5 54 -18 0 -24 -1 -24 -87 -20 -118 5 -193 12 -200 19 -3 3
-3 12 0 21 4 10 20 15 47 15 22 0 40 5 40 10 0 6 -20 10 -45 10 -34 0 -47 5
-55 20 -10 18 -8 20 30 20 29 0 40 4 40 15 0 27 -46 28 -112 2 -35 -14 -72
-27 -83 -30 -11 -3 3 -5 30 -4 44 2 50 0 50 -18 0 -17 -8 -21 -52 -25 -76 -8
-79 -23 -3 -18 59 3 65 1 65 -17 0 -22 2 -21 -108 -30 -46 -4 -75 -11 -71 -17
4 -6 40 -7 96 -2 l89 7 -7 -39 c-9 -53 -12 -57 -43 -49 -26 6 -26 6 8 -29 19
-20 38 -36 42 -36 15 0 39 71 39 114 l0 46 69 0 c40 0 73 -5 77 -11 4 -7 29
-8 76 -4 l69 7 -3 -43 c-3 -41 -5 -44 -30 -42 -16 1 -28 -1 -28 -3 0 -10 58
-64 69 -64 22 0 41 46 41 102 l0 58 85 0 c47 0 85 4 85 9 0 16 -37 23 -103 19
-58 -3 -62 -1 -65 20 -3 18 1 22 25 22 40 0 74 11 67 21 -3 5 -28 7 -55 3 -32
-4 -49 -3 -49 4 0 6 -3 17 -6 25 -4 10 5 16 30 21 37 7 48 29 20 40 -24 9 -35
7 -84 -19z"/>
</g>
</svg>
