<?xml version="1.0" standalone="no"?>
<!DOCTYPE svg PUBLIC "-//W3C//DTD SVG 20010904//EN"
 "http://www.w3.org/TR/2001/REC-SVG-20010904/DTD/svg10.dtd">
<svg version="1.0" xmlns="http://www.w3.org/2000/svg"
 width="96.000000pt" height="68.000000pt" viewBox="0 0 96.000000 68.000000"
 preserveAspectRatio="xMidYMid meet">
<metadata>
Created by potrace 1.16, written by Peter Selinger 2001-2019
</metadata>
<g transform="translate(0.000000,68.000000) scale(0.100000,-0.100000)"
fill="#000000" stroke="none">
<path d="M548 583 c-3 -37 -4 -38 -46 -41 -47 -4 -48 -22 0 -22 28 0 30 -2 24
-27 l-6 -28 28 32 c25 29 34 32 90 35 77 4 82 22 6 26 -47 3 -54 5 -44 18 15
18 -3 44 -31 44 -13 0 -19 -9 -21 -37z"/>
<path d="M290 593 c0 -5 7 -18 15 -29 23 -31 19 -34 -50 -34 -66 0 -81 -10
-44 -31 16 -8 33 -8 67 1 28 7 48 8 50 2 1 -5 9 -18 17 -28 13 -18 14 -17 15
13 0 29 4 33 38 40 l37 7 -40 6 c-32 4 -40 10 -45 30 -4 18 -13 26 -33 28 -15
2 -27 -1 -27 -5z"/>
</g>
</svg>
