<?xml version="1.0" standalone="no"?>
<!DOCTYPE svg PUBLIC "-//W3C//DTD SVG 20010904//EN"
 "http://www.w3.org/TR/2001/REC-SVG-20010904/DTD/svg10.dtd">
<svg version="1.0" xmlns="http://www.w3.org/2000/svg"
 width="96.000000pt" height="68.000000pt" viewBox="0 0 96.000000 68.000000"
 preserveAspectRatio="xMidYMid meet">
<metadata>
Created by potrace 1.16, written by Peter Selinger 2001-2019
</metadata>
<g transform="translate(0.000000,68.000000) scale(0.100000,-0.100000)"
fill="#000000" stroke="none">
<path d="M330 392 c0 -4 4 -21 9 -39 9 -31 8 -32 -27 -37 -21 -3 -67 -8 -104
-12 -38 -3 -68 -10 -68 -14 0 -20 95 -22 163 -3 9 2 17 -1 17 -6 0 -16 -84
-94 -136 -127 -25 -16 -41 -30 -35 -32 15 -5 106 44 144 78 19 16 38 30 42 30
4 0 4 -33 1 -72 -7 -79 3 -113 26 -90 8 8 15 49 18 103 l5 90 50 -46 c48 -43
53 -45 110 -45 65 0 64 9 -4 30 -51 16 -143 70 -148 87 -3 7 24 13 81 18 79 7
105 16 74 27 -7 3 -44 2 -83 -2 -80 -8 -89 -5 -82 21 3 11 -1 26 -10 34 -15
16 -43 20 -43 7z"/>
</g>
</svg>
