<?xml version="1.0" standalone="no"?>
<!DOCTYPE svg PUBLIC "-//W3C//DTD SVG 20010904//EN"
 "http://www.w3.org/TR/2001/REC-SVG-20010904/DTD/svg10.dtd">
<svg version="1.0" xmlns="http://www.w3.org/2000/svg"
 width="96.000000pt" height="68.000000pt" viewBox="0 0 96.000000 68.000000"
 preserveAspectRatio="xMidYMid meet">
<metadata>
Created by potrace 1.16, written by Peter Selinger 2001-2019
</metadata>
<g transform="translate(0.000000,68.000000) scale(0.100000,-0.100000)"
fill="#000000" stroke="none">
<path d="M615 200 c-16 -4 -50 -8 -75 -9 -61 -2 -91 -21 -34 -21 29 0 44 -5
48 -16 9 -23 7 -72 -2 -78 -5 -3 -48 -6 -96 -7 -47 -1 -89 -5 -91 -10 -11 -16
65 -20 189 -10 70 6 164 11 209 11 76 1 81 2 62 16 -17 13 -38 15 -124 10
l-103 -7 7 37 c4 25 3 39 -6 45 -14 8 -4 11 76 25 33 5 37 8 20 14 -24 10 -40
10 -80 0z"/>
</g>
</svg>
