<?xml version="1.0" standalone="no"?>
<!DOCTYPE svg PUBLIC "-//W3C//DTD SVG 20010904//EN"
 "http://www.w3.org/TR/2001/REC-SVG-20010904/DTD/svg10.dtd">
<svg version="1.0" xmlns="http://www.w3.org/2000/svg"
 width="90.000000pt" height="92.000000pt" viewBox="0 0 90.000000 92.000000"
 preserveAspectRatio="xMidYMid meet">
<metadata>
Created by potrace 1.16, written by Peter Selinger 2001-2019
</metadata>
<g transform="translate(0.000000,92.000000) scale(0.100000,-0.100000)"
fill="#000000" stroke="none">
<path d="M535 803 c-192 -30 -192 -30 -176 -46 7 -7 37 -11 77 -10 73 1 70 7
37 -85 -15 -41 -17 -42 -51 -36 -32 6 -34 5 -28 -12 13 -32 15 -134 5 -230 -6
-64 -6 -100 2 -120 10 -28 11 -28 24 -10 19 25 45 14 38 -15 -3 -12 -39 -56
-80 -98 -40 -42 -73 -77 -73 -78 0 -1 12 2 26 7 37 14 121 73 174 121 l45 41
-22 18 c-30 24 -14 30 79 30 59 0 72 -3 87 -21 31 -38 38 -5 43 192 l5 187
-31 14 c-21 10 -40 12 -61 6 -16 -4 -63 -14 -103 -22 l-72 -14 37 42 c20 22
41 44 47 49 7 5 3 14 -13 27 -21 18 -21 20 -5 21 78 2 225 17 231 23 12 11
-36 46 -61 45 -11 -1 -93 -13 -181 -26z m143 -231 c3 -42 3 -42 -22 -31 -19 9
-43 8 -106 -5 -44 -9 -85 -16 -90 -16 -15 0 -12 70 3 71 6 0 39 6 72 14 33 8
78 13 100 12 40 -2 40 -2 43 -45z m7 -101 l5 -42 -32 6 c-18 3 -73 -1 -123 -8
-49 -8 -90 -13 -91 -13 -1 1 1 18 4 39 4 37 5 37 51 38 25 1 75 6 111 13 36 6
66 11 67 11 2 -1 5 -20 8 -44z m5 -95 c0 -55 -8 -66 -36 -56 -16 6 -50 6 -92
0 -118 -17 -122 -16 -122 28 0 36 2 38 28 35 15 -2 68 3 117 10 50 8 93 15 98
16 4 0 7 -14 7 -33z"/>
<path d="M157 681 c-59 -8 -107 -19 -107 -23 0 -15 54 -30 87 -24 40 6 40 6
47 -151 l5 -112 -52 -16 c-28 -8 -69 -18 -89 -21 -33 -6 -36 -9 -27 -25 5 -10
22 -25 38 -33 27 -14 33 -12 177 61 82 42 143 78 137 80 -7 3 -42 -5 -78 -16
l-67 -20 6 37 c3 20 7 80 8 133 l3 97 48 5 c62 8 75 16 52 34 -22 16 -46 15
-188 -6z"/>
<path d="M610 239 c0 -10 43 -65 116 -147 37 -42 64 -39 64 7 0 51 -59 105
-155 141 -17 6 -25 6 -25 -1z"/>
</g>
</svg>
