<?xml version="1.0" standalone="no"?>
<!DOCTYPE svg PUBLIC "-//W3C//DTD SVG 20010904//EN"
 "http://www.w3.org/TR/2001/REC-SVG-20010904/DTD/svg10.dtd">
<svg version="1.0" xmlns="http://www.w3.org/2000/svg"
 width="96.000000pt" height="68.000000pt" viewBox="0 0 96.000000 68.000000"
 preserveAspectRatio="xMidYMid meet">
<metadata>
Created by potrace 1.16, written by Peter Selinger 2001-2019
</metadata>
<g transform="translate(0.000000,68.000000) scale(0.100000,-0.100000)"
fill="#000000" stroke="none">
<path d="M295 224 c-27 -7 -60 -14 -72 -14 -22 0 -26 -7 -38 -67 -6 -32 8 -73
25 -73 6 0 10 9 10 19 0 27 7 30 89 37 47 5 69 10 62 17 -6 6 -4 21 7 43 8 19
14 35 11 38 -13 12 -50 12 -94 0z m45 -31 c0 -31 -15 -43 -63 -49 l-47 -7 0
31 c0 27 4 31 33 35 69 8 77 7 77 -10z"/>
</g>
</svg>
