<?xml version="1.0" standalone="no"?>
<!DOCTYPE svg PUBLIC "-//W3C//DTD SVG 20010904//EN"
 "http://www.w3.org/TR/2001/REC-SVG-20010904/DTD/svg10.dtd">
<svg version="1.0" xmlns="http://www.w3.org/2000/svg"
 width="90.000000pt" height="92.000000pt" viewBox="0 0 90.000000 92.000000"
 preserveAspectRatio="xMidYMid meet">
<metadata>
Created by potrace 1.16, written by Peter Selinger 2001-2019
</metadata>
<g transform="translate(0.000000,92.000000) scale(0.100000,-0.100000)"
fill="#000000" stroke="none">
<path d="M220 792 c0 -54 -57 -166 -142 -280 -40 -53 -75 -100 -76 -104 -9
-21 21 -3 66 37 l51 46 7 -37 c7 -37 -1 -247 -12 -294 -3 -15 1 -33 10 -45 17
-23 15 -24 107 54 l63 53 22 -27 c25 -32 44 -26 44 13 0 35 -8 46 -48 66 -39
20 -48 16 -33 -12 11 -20 10 -21 -106 -69 -10 -4 -13 11 -13 55 l0 60 63 11
c34 6 72 8 83 5 20 -5 25 3 52 88 l31 93 -25 23 c-30 26 -47 27 -104 7 -23 -8
-60 -15 -82 -15 l-39 0 26 34 c16 21 32 33 41 29 18 -6 144 27 144 38 0 18
-52 20 -97 5 -25 -9 -48 -16 -51 -16 -5 0 57 111 69 124 5 5 25 -7 49 -28 43
-39 72 -44 78 -13 5 24 -22 44 -75 58 -28 7 -40 15 -37 24 7 16 -30 55 -51 55
-11 0 -15 -11 -15 -38z m94 -290 c3 -5 2 -19 -1 -31 -4 -16 -11 -21 -25 -18
-11 3 -38 -1 -60 -9 -51 -18 -48 -19 -48 16 0 26 4 30 38 35 20 4 42 8 47 10
19 7 44 5 49 -3z m-4 -84 c0 -29 -13 -59 -24 -55 -6 2 -31 -2 -56 -9 -60 -18
-60 -18 -60 15 0 28 3 30 63 44 79 19 77 19 77 5z"/>
<path d="M551 801 c-11 -7 -11 -13 0 -32 18 -35 25 -214 9 -224 -8 -5 -45 -10
-84 -11 -39 -2 -73 -3 -75 -3 -3 -1 5 -11 16 -23 12 -13 27 -50 33 -85 13 -65
37 -109 46 -85 3 6 21 12 40 12 l34 0 0 -64 c0 -36 -5 -68 -11 -71 -6 -4 -46
-9 -90 -12 -43 -3 -79 -9 -79 -14 0 -15 64 -60 79 -55 9 2 66 22 126 44 61 22
120 42 131 46 18 6 27 -2 53 -44 18 -28 37 -50 44 -47 7 2 13 22 15 44 3 34
-2 47 -26 75 -28 31 -112 86 -112 73 0 -3 7 -19 15 -35 8 -16 12 -31 7 -34 -8
-5 -78 -19 -88 -17 -6 1 -8 31 -5 100 1 16 12 20 70 26 64 6 69 9 59 25 -9 14
-4 27 25 71 34 51 35 55 19 72 -30 34 -68 48 -97 37 -15 -6 -37 -10 -51 -10
-22 0 -24 4 -24 48 1 41 9 99 21 140 8 27 -73 70 -100 53z m159 -303 c0 -13
-3 -40 -6 -60 -6 -35 -9 -38 -40 -38 l-34 0 0 60 0 60 40 0 c35 0 40 -3 40
-22z m-140 -47 c0 -44 -4 -60 -16 -65 -30 -11 -54 -6 -54 12 0 9 -3 34 -6 54
-6 35 -5 37 27 46 19 6 37 11 42 11 4 1 7 -26 7 -58z"/>
</g>
</svg>
