<?xml version="1.0" standalone="no"?>
<!DOCTYPE svg PUBLIC "-//W3C//DTD SVG 20010904//EN"
 "http://www.w3.org/TR/2001/REC-SVG-20010904/DTD/svg10.dtd">
<svg version="1.0" xmlns="http://www.w3.org/2000/svg"
 width="96.000000pt" height="68.000000pt" viewBox="0 0 96.000000 68.000000"
 preserveAspectRatio="xMidYMid meet">
<metadata>
Created by potrace 1.16, written by Peter Selinger 2001-2019
</metadata>
<g transform="translate(0.000000,68.000000) scale(0.100000,-0.100000)"
fill="#000000" stroke="none">
<path d="M595 540 c-4 -6 -2 -17 4 -23 6 -6 11 -44 11 -84 l0 -73 -77 0 c-72
0 -75 -1 -60 -17 8 -10 25 -44 37 -76 20 -52 24 -56 46 -51 55 14 59 12 62
-39 3 -39 6 -48 18 -43 9 3 18 6 20 6 2 0 4 20 4 44 0 42 1 44 38 50 20 3 49
6 64 6 20 0 25 4 21 18 -3 11 7 32 23 51 l28 33 -25 20 c-19 15 -35 18 -81 14
l-58 -4 0 48 c0 27 4 60 9 74 7 17 6 27 -3 35 -21 17 -73 24 -81 11z m145
-204 c0 -7 -3 -28 -6 -45 -6 -28 -10 -31 -41 -31 -32 0 -35 2 -29 23 3 12 6
32 6 45 0 19 5 22 35 22 23 0 35 -5 35 -14z m-130 -41 c0 -43 -1 -45 -29 -45
-22 0 -30 6 -35 24 -3 13 -9 31 -12 39 -4 11 2 17 18 20 56 11 58 10 58 -38z"/>
</g>
</svg>
