<?xml version="1.0" standalone="no"?>
<!DOCTYPE svg PUBLIC "-//W3C//DTD SVG 20010904//EN"
 "http://www.w3.org/TR/2001/REC-SVG-20010904/DTD/svg10.dtd">
<svg version="1.0" xmlns="http://www.w3.org/2000/svg"
 width="96.000000pt" height="68.000000pt" viewBox="0 0 96.000000 68.000000"
 preserveAspectRatio="xMidYMid meet">
<metadata>
Created by potrace 1.16, written by Peter Selinger 2001-2019
</metadata>
<g transform="translate(0.000000,68.000000) scale(0.100000,-0.100000)"
fill="#000000" stroke="none">
<path d="M465 523 c-44 -8 -104 -12 -133 -9 -45 4 -53 2 -48 -10 3 -9 6 -43 6
-77 l0 -62 136 10 136 10 20 40 c11 22 28 48 37 58 15 18 14 20 -8 38 -27 22
-39 22 -146 2z m80 -38 c0 -14 -6 -19 -21 -18 -12 1 -57 -4 -100 -11 -44 -8
-82 -12 -86 -10 -3 2 -4 13 -1 24 4 16 14 20 47 21 22 1 55 5 71 9 52 14 90 8
90 -15z m-9 -51 c-3 -9 -6 -19 -6 -23 0 -4 -17 -7 -37 -7 -21 0 -66 -4 -100
-9 -60 -7 -63 -7 -63 14 0 18 6 21 43 22 23 0 62 4 87 8 73 14 83 13 76 -5z"/>
</g>
</svg>
