<?xml version="1.0" standalone="no"?>
<!DOCTYPE svg PUBLIC "-//W3C//DTD SVG 20010904//EN"
 "http://www.w3.org/TR/2001/REC-SVG-20010904/DTD/svg10.dtd">
<svg version="1.0" xmlns="http://www.w3.org/2000/svg"
 width="96.000000pt" height="68.000000pt" viewBox="0 0 96.000000 68.000000"
 preserveAspectRatio="xMidYMid meet">
<metadata>
Created by potrace 1.16, written by Peter Selinger 2001-2019
</metadata>
<g transform="translate(0.000000,68.000000) scale(0.100000,-0.100000)"
fill="#000000" stroke="none">
<path d="M388 639 c-10 -7 -10 -11 0 -21 7 -7 12 -38 12 -74 l0 -61 -37 -7
c-21 -3 -56 -6 -78 -6 -34 -1 -37 -3 -24 -13 9 -7 23 -41 30 -77 l15 -65 52 3
c48 3 53 2 62 -23 6 -15 8 -30 5 -35 -2 -4 -66 -11 -140 -15 -74 -4 -135 -11
-135 -16 0 -24 43 -30 136 -18 52 6 97 9 99 7 10 -10 -90 -72 -158 -99 -40
-15 -65 -28 -57 -28 25 -1 135 36 190 64 28 14 55 23 60 20 6 -3 7 -32 3 -65
-4 -42 -2 -64 7 -75 24 -29 40 1 40 76 0 41 4 69 10 69 6 0 41 -20 78 -45 65
-43 69 -45 143 -45 41 0 79 3 83 7 3 4 -37 17 -91 30 -60 15 -122 38 -163 61
l-65 37 55 6 c30 4 97 5 148 2 80 -5 92 -4 92 10 0 24 -55 34 -145 26 -126
-12 -135 -11 -135 9 0 10 -6 24 -12 31 -11 11 -1 13 56 8 l68 -5 36 77 c20 42
36 81 37 86 1 22 -65 32 -136 20 l-69 -12 0 27 c0 26 3 28 58 34 103 12 115
16 100 33 -12 15 -74 14 -135 -3 -19 -5 -21 -2 -20 27 2 29 -1 33 -30 39 -17
4 -37 3 -45 -1z m200 -190 c3 -26 3 -26 -90 -34 -154 -14 -182 -13 -186 9 -2
10 0 22 5 26 4 5 53 11 108 15 55 4 102 9 105 11 2 3 16 4 30 2 19 -2 26 -10
28 -29z m-15 -55 c3 -3 1 -17 -5 -30 -11 -23 -15 -24 -125 -24 -105 0 -113 1
-113 19 0 17 10 20 78 26 42 3 86 7 97 9 38 6 62 6 68 0z"/>
</g>
</svg>
