<?xml version="1.0" standalone="no"?>
<!DOCTYPE svg PUBLIC "-//W3C//DTD SVG 20010904//EN"
 "http://www.w3.org/TR/2001/REC-SVG-20010904/DTD/svg10.dtd">
<svg version="1.0" xmlns="http://www.w3.org/2000/svg"
 width="96.000000pt" height="68.000000pt" viewBox="0 0 96.000000 68.000000"
 preserveAspectRatio="xMidYMid meet">
<metadata>
Created by potrace 1.16, written by Peter Selinger 2001-2019
</metadata>
<g transform="translate(0.000000,68.000000) scale(0.100000,-0.100000)"
fill="#000000" stroke="none">
<path d="M545 500 c-85 -15 -265 -32 -280 -27 -19 8 -20 -7 -1 -22 7 -6 16
-26 20 -43 18 -88 27 -110 44 -102 9 4 73 8 142 9 l124 1 37 82 c34 74 36 83
21 91 -29 15 -66 19 -107 11z m40 -53 c0 -28 0 -28 -80 -32 -44 -2 -103 -7
-132 -11 -46 -5 -52 -4 -58 16 -4 12 -4 24 -1 28 7 6 220 31 251 28 15 -1 20
-8 20 -29z m-14 -74 l-7 -28 -117 -3 c-110 -2 -117 -1 -117 17 0 17 11 20 93
29 159 16 156 16 148 -15z"/>
</g>
</svg>
