<?xml version="1.0" standalone="no"?>
<!DOCTYPE svg PUBLIC "-//W3C//DTD SVG 20010904//EN"
 "http://www.w3.org/TR/2001/REC-SVG-20010904/DTD/svg10.dtd">
<svg version="1.0" xmlns="http://www.w3.org/2000/svg"
 width="96.000000pt" height="68.000000pt" viewBox="0 0 96.000000 68.000000"
 preserveAspectRatio="xMidYMid meet">
<metadata>
Created by potrace 1.16, written by Peter Selinger 2001-2019
</metadata>
<g transform="translate(0.000000,68.000000) scale(0.100000,-0.100000)"
fill="#000000" stroke="none">
<path d="M570 504 c-47 -7 -104 -13 -127 -14 l-41 0 20 -41 c14 -31 23 -38 31
-30 6 6 31 11 57 11 80 0 180 13 180 22 0 6 10 18 23 28 l22 18 -28 11 c-33
13 -27 13 -137 -5z m90 -23 c0 -16 -13 -20 -102 -30 -68 -7 -105 -8 -112 -1
-17 17 1 24 92 36 123 16 122 16 122 -5z"/>
</g>
</svg>
