<?xml version="1.0" standalone="no"?>
<!DOCTYPE svg PUBLIC "-//W3C//DTD SVG 20010904//EN"
 "http://www.w3.org/TR/2001/REC-SVG-20010904/DTD/svg10.dtd">
<svg version="1.0" xmlns="http://www.w3.org/2000/svg"
 width="90.000000pt" height="92.000000pt" viewBox="0 0 90.000000 92.000000"
 preserveAspectRatio="xMidYMid meet">
<metadata>
Created by potrace 1.16, written by Peter Selinger 2001-2019
</metadata>
<g transform="translate(0.000000,92.000000) scale(0.100000,-0.100000)"
fill="#000000" stroke="none">
<path d="M360 828 c0 -7 14 -31 30 -52 17 -22 27 -43 23 -47 -5 -4 -51 -10
-104 -14 -83 -6 -97 -4 -102 9 -11 27 -26 18 -36 -21 -6 -21 -20 -53 -31 -71
-24 -39 -25 -55 -4 -72 20 -17 48 9 67 65 l14 39 109 18 c158 25 308 38 317
29 5 -5 -2 -26 -17 -47 -14 -21 -24 -39 -23 -40 5 -5 152 37 162 47 14 15 -67
89 -98 89 -13 0 -50 -5 -83 -10 -32 -6 -72 -12 -87 -15 -24 -4 -27 -2 -22 15
9 28 -12 60 -50 76 -42 17 -65 18 -65 2z"/>
<path d="M480 589 c-19 -4 -71 -13 -115 -19 -44 -7 -82 -14 -85 -16 -9 -10 26
-24 62 -24 27 0 40 -6 48 -19 11 -21 14 -231 4 -231 -4 0 -33 16 -66 36 l-59
36 21 35 c27 46 25 60 -10 78 -42 22 -47 19 -47 -27 0 -59 -49 -151 -119 -227
-61 -66 -62 -73 -5 -39 48 28 98 75 122 116 12 17 26 32 32 32 7 0 55 -34 107
-75 135 -108 224 -165 265 -172 36 -6 205 33 205 47 0 3 -56 18 -125 32 -72
15 -155 40 -195 59 l-70 32 0 67 0 67 78 6 c97 7 117 14 101 33 -14 18 -50 18
-116 0 -29 -8 -53 -11 -54 -8 0 4 -1 35 -2 70 -2 69 -5 66 76 77 29 4 47 11
47 20 0 25 -36 30 -100 14z"/>
</g>
</svg>
