<?xml version="1.0" standalone="no"?>
<!DOCTYPE svg PUBLIC "-//W3C//DTD SVG 20010904//EN"
 "http://www.w3.org/TR/2001/REC-SVG-20010904/DTD/svg10.dtd">
<svg version="1.0" xmlns="http://www.w3.org/2000/svg"
 width="90.000000pt" height="92.000000pt" viewBox="0 0 90.000000 92.000000"
 preserveAspectRatio="xMidYMid meet">
<metadata>
Created by potrace 1.16, written by Peter Selinger 2001-2019
</metadata>
<g transform="translate(0.000000,92.000000) scale(0.100000,-0.100000)"
fill="#000000" stroke="none">
<path d="M647 768 c2 -46 0 -89 -5 -95 -4 -7 -30 -14 -58 -15 l-49 -3 -3 53
c-3 45 -7 55 -28 64 -32 15 -37 7 -25 -39 17 -61 14 -93 -8 -93 -11 0 -27 -3
-35 -6 -25 -10 0 -34 35 -34 28 0 29 -1 29 -54 l0 -54 -55 -7 c-59 -7 -68 -16
-32 -32 16 -8 42 -7 92 3 39 7 131 18 205 25 74 6 139 15 144 19 4 4 -4 16
-19 26 -22 15 -35 16 -91 7 -71 -10 -73 -9 -58 65 5 27 11 31 50 37 24 3 46
11 50 16 10 17 -14 33 -51 33 -40 0 -42 8 -23 83 10 43 10 47 -12 65 -12 10
-30 18 -39 18 -15 0 -17 -10 -14 -82z m-7 -190 c0 -56 -7 -64 -57 -73 l-43 -7
-1 41 c-1 23 -2 47 -3 54 -1 7 17 14 44 18 25 3 48 7 53 7 4 1 7 -17 7 -40z"/>
<path d="M275 780 c-16 -5 -70 -16 -119 -25 -49 -8 -92 -17 -94 -20 -9 -9 7
-18 45 -24 l38 -6 3 -58 c3 -56 3 -57 -25 -59 -15 0 -41 0 -56 1 -27 2 -28 1
-16 -20 9 -17 10 -71 6 -205 -4 -146 -3 -185 8 -194 10 -8 15 -7 22 4 6 11 35
17 108 22 l101 7 12 -27 c6 -14 18 -26 25 -26 30 0 37 51 38 247 1 175 -1 196
-17 215 -15 16 -26 19 -56 14 -37 -6 -38 -6 -38 26 0 65 8 74 66 87 57 13 66
24 35 41 -23 12 -44 12 -86 0z m-55 -120 c0 -55 -2 -60 -21 -60 -19 0 -21 4
-15 31 3 17 6 44 6 60 0 19 5 29 15 29 12 0 15 -13 15 -60z m26 -237 c10 -7
30 -13 46 -13 l28 0 0 -84 0 -85 -32 1 c-18 1 -70 -2 -114 -7 l-82 -8 6 74 c4
62 10 80 34 110 19 24 33 57 41 97 7 41 17 62 27 64 12 3 16 -11 22 -66 4 -50
11 -74 24 -83z m76 92 l3 -65 -32 0 c-36 0 -41 13 -34 88 3 39 5 42 31 42 28
0 28 -1 32 -65z m-177 3 c-8 -46 -30 -108 -39 -108 -4 0 -6 34 -6 75 0 74 0
75 26 75 25 0 25 -2 19 -42z"/>
<path d="M183 332 c-57 -16 -67 -28 -30 -37 28 -6 128 17 127 30 -1 18 -44 21
-97 7z"/>
<path d="M630 404 c-30 -8 -84 -16 -120 -19 -36 -2 -67 -4 -69 -4 -2 -1 3 -8
10 -17 10 -12 12 -45 10 -120 -3 -128 4 -145 56 -134 21 4 68 10 105 14 60 5
69 3 78 -14 29 -54 48 2 51 151 l2 123 -29 18 c-16 10 -31 17 -34 17 -3 -1
-30 -8 -60 -15z m60 -80 c0 -40 -3 -46 -18 -42 -10 3 -48 -1 -83 -8 -91 -19
-89 -20 -89 30 0 45 0 45 43 54 23 6 66 10 95 11 l52 1 0 -46z m8 -116 c-3
-42 -3 -42 -43 -43 -22 -1 -66 -5 -97 -10 l-58 -7 0 39 0 40 78 10 c132 17
124 19 120 -29z"/>
</g>
</svg>
