<?xml version="1.0" standalone="no"?>
<!DOCTYPE svg PUBLIC "-//W3C//DTD SVG 20010904//EN"
 "http://www.w3.org/TR/2001/REC-SVG-20010904/DTD/svg10.dtd">
<svg version="1.0" xmlns="http://www.w3.org/2000/svg"
 width="90.000000pt" height="92.000000pt" viewBox="0 0 90.000000 92.000000"
 preserveAspectRatio="xMidYMid meet">
<metadata>
Created by potrace 1.16, written by Peter Selinger 2001-2019
</metadata>
<g transform="translate(0.000000,92.000000) scale(0.100000,-0.100000)"
fill="#000000" stroke="none">
<path d="M125 823 c4 -10 12 -53 17 -97 12 -87 -4 -468 -23 -555 -8 -39 -7
-56 5 -85 8 -20 19 -36 25 -36 23 0 31 73 32 284 0 122 4 229 8 239 6 16 11
13 36 -22 32 -47 50 -49 50 -5 0 23 -8 33 -42 52 -40 22 -43 26 -43 65 1 23 5
62 10 87 8 41 7 47 -16 68 -31 27 -70 31 -59 5z"/>
<path d="M572 814 c-24 -7 -79 -19 -123 -25 -94 -15 -100 -33 -12 -37 56 -3
62 -5 67 -28 4 -14 4 -29 1 -33 -8 -14 -145 -25 -158 -12 -13 13 -62 -101 -53
-124 11 -30 35 -14 53 34 l17 49 59 7 c32 3 65 9 74 12 14 5 15 -6 8 -99 -5
-77 -4 -108 5 -113 24 -15 35 17 37 112 1 53 6 100 10 104 4 4 43 10 86 14 85
8 86 7 63 -50 l-15 -34 40 25 c22 14 51 29 64 34 34 13 31 26 -7 50 -45 27
-77 26 -216 -5 -21 -5 -22 -3 -19 32 3 28 9 39 23 41 48 8 94 23 94 31 0 6
-47 33 -53 30 -1 -1 -22 -7 -45 -15z"/>
<path d="M620 616 c0 -7 -9 -25 -21 -40 -25 -31 -12 -33 42 -5 39 20 40 21 23
40 -20 22 -44 25 -44 5z"/>
<path d="M32 534 c-28 -63 -32 -81 -23 -101 21 -45 47 -20 67 64 10 44 10 62
1 85 l-12 30 -33 -78z"/>
<path d="M380 582 c0 -5 16 -16 35 -25 31 -15 36 -15 41 -2 3 8 3 19 -1 25 -7
12 -75 14 -75 2z"/>
<path d="M445 511 c-6 -5 -27 -14 -47 -21 -41 -12 -45 -19 -26 -38 19 -19 31
-14 66 28 29 35 33 56 7 31z"/>
<path d="M580 515 c0 -2 18 -14 41 -25 49 -25 75 -21 59 10 -8 15 -21 20 -55
20 -25 0 -45 -2 -45 -5z"/>
<path d="M510 404 c-41 -7 -97 -15 -125 -19 -46 -6 -48 -8 -30 -22 15 -10 34
-13 73 -8 46 6 52 4 52 -12 0 -10 -9 -29 -19 -43 -18 -22 -26 -24 -100 -25
-68 0 -80 -2 -75 -15 17 -42 25 -87 21 -115 -3 -17 1 -41 8 -54 l13 -24 12 23
c8 16 10 44 6 86 l-6 62 37 5 c21 2 42 1 47 -4 5 -5 10 -35 11 -68 3 -60 9
-81 25 -81 14 0 24 131 12 151 -10 15 -6 18 31 21 23 3 44 3 46 2 2 -2 4 -44
5 -93 3 -91 10 -117 25 -92 8 12 27 165 23 183 -2 9 78 21 109 16 22 -3 24 -8
27 -61 4 -83 -15 -110 -72 -105 l-43 3 35 -42 c19 -24 38 -43 43 -43 5 0 23
12 40 28 27 24 32 37 40 106 6 44 14 87 19 97 8 14 3 23 -21 44 -18 14 -38 24
-47 20 -17 -6 -203 -35 -229 -35 -13 0 -11 6 11 29 16 16 26 34 22 39 -6 9 46
22 94 22 14 0 32 5 40 10 13 9 13 11 0 20 -19 12 -65 11 -160 -6z"/>
</g>
</svg>
