<?xml version="1.0" standalone="no"?>
<!DOCTYPE svg PUBLIC "-//W3C//DTD SVG 20010904//EN"
 "http://www.w3.org/TR/2001/REC-SVG-20010904/DTD/svg10.dtd">
<svg version="1.0" xmlns="http://www.w3.org/2000/svg"
 width="96.000000pt" height="68.000000pt" viewBox="0 0 96.000000 68.000000"
 preserveAspectRatio="xMidYMid meet">
<metadata>
Created by potrace 1.16, written by Peter Selinger 2001-2019
</metadata>
<g transform="translate(0.000000,68.000000) scale(0.100000,-0.100000)"
fill="#000000" stroke="none">
<path d="M338 223 c-46 -4 -60 -14 -38 -28 6 -3 10 -12 10 -20 0 -8 5 -26 10
-41 8 -21 14 -24 22 -16 7 7 24 12 39 12 35 0 60 10 54 21 -3 5 1 21 9 37 23
44 21 45 -106 35z m72 -38 c0 -18 -7 -28 -26 -35 -37 -14 -41 -13 -48 15 -9
34 -4 40 38 42 32 3 36 1 36 -22z"/>
</g>
</svg>
