<?xml version="1.0" standalone="no"?>
<!DOCTYPE svg PUBLIC "-//W3C//DTD SVG 20010904//EN"
 "http://www.w3.org/TR/2001/REC-SVG-20010904/DTD/svg10.dtd">
<svg version="1.0" xmlns="http://www.w3.org/2000/svg"
 width="96.000000pt" height="68.000000pt" viewBox="0 0 96.000000 68.000000"
 preserveAspectRatio="xMidYMid meet">
<metadata>
Created by potrace 1.16, written by Peter Selinger 2001-2019
</metadata>
<g transform="translate(0.000000,68.000000) scale(0.100000,-0.100000)"
fill="#000000" stroke="none">
<path d="M605 240 c-3 -6 -1 -10 6 -10 6 0 9 -8 6 -20 -6 -25 9 -26 22 -2 7
14 5 21 -9 30 -12 7 -21 8 -25 2z"/>
<path d="M499 208 c12 -32 31 -35 29 -4 -2 17 -8 26 -20 26 -14 0 -16 -5 -9
-22z"/>
<path d="M611 174 c-1 -6 -11 -16 -23 -23 -23 -11 -23 -11 2 -5 31 8 33 10 27
26 -3 7 -6 8 -6 2z"/>
<path d="M510 163 c0 -4 5 -15 10 -23 8 -13 10 -13 10 2 0 9 -4 20 -10 23 -5
3 -10 3 -10 -2z"/>
</g>
</svg>
