<?xml version="1.0" standalone="no"?>
<!DOCTYPE svg PUBLIC "-//W3C//DTD SVG 20010904//EN"
 "http://www.w3.org/TR/2001/REC-SVG-20010904/DTD/svg10.dtd">
<svg version="1.0" xmlns="http://www.w3.org/2000/svg"
 width="90.000000pt" height="92.000000pt" viewBox="0 0 90.000000 92.000000"
 preserveAspectRatio="xMidYMid meet">
<metadata>
Created by potrace 1.16, written by Peter Selinger 2001-2019
</metadata>
<g transform="translate(0.000000,92.000000) scale(0.100000,-0.100000)"
fill="#000000" stroke="none">
<path d="M140 816 c0 -8 5 -27 11 -43 13 -35 13 -349 -1 -458 -21 -172 -21
-180 -8 -204 41 -77 58 -11 59 228 0 108 3 213 7 234 l7 39 39 -31 c44 -35 59
-35 64 -1 4 27 -8 36 -66 51 l-43 12 6 41 c3 22 8 52 11 66 5 29 -1 40 -36 63
-30 21 -50 22 -50 3z"/>
<path d="M665 815 c-22 -8 -55 -14 -74 -14 -27 -1 -32 -4 -26 -18 4 -10 12
-42 19 -71 6 -29 14 -53 19 -54 4 0 38 3 77 7 68 7 69 7 64 33 -3 16 3 43 16
67 19 37 19 41 3 52 -21 16 -45 15 -98 -2z m45 -51 c0 -39 -17 -62 -51 -69
-37 -8 -49 4 -49 52 0 27 4 32 28 36 66 10 72 8 72 -19z"/>
<path d="M440 794 c-19 -7 -52 -13 -72 -13 -35 -1 -49 -13 -29 -25 4 -3 14
-33 20 -67 8 -40 16 -59 24 -56 7 3 39 10 70 17 45 9 57 15 53 27 -3 8 3 36
14 61 20 44 20 47 4 59 -21 16 -38 15 -84 -3z m32 -64 c-4 -35 -8 -40 -39 -51
-19 -6 -36 -9 -38 -7 -2 2 -5 21 -7 42 -3 35 0 41 22 47 58 16 66 12 62 -31z"/>
<path d="M572 599 c-18 -6 -59 -13 -90 -17 -31 -4 -55 -11 -54 -17 3 -14 146
-11 200 4 36 10 41 15 32 27 -14 16 -39 17 -88 3z"/>
<path d="M37 503 c-36 -91 -35 -133 4 -133 13 0 22 14 34 52 18 62 19 95 1
126 -12 22 -14 20 -39 -45z"/>
<path d="M719 506 c-3 -3 -273 -29 -408 -39 -44 -3 -50 -21 -12 -37 28 -11 60
-10 129 7 18 4 22 1 22 -20 0 -14 -11 -39 -25 -55 -15 -18 -23 -37 -19 -46 8
-20 12 -20 86 5 33 11 77 19 97 17 36 -3 36 -3 35 -48 -1 -58 -19 -122 -43
-152 -20 -24 -19 -24 -93 7 -13 5 -9 -7 15 -49 18 -30 37 -57 44 -60 18 -7 76
36 92 68 7 16 24 68 36 115 12 47 25 93 29 102 5 12 -3 23 -30 40 -35 21 -41
22 -106 11 -103 -18 -105 -18 -74 23 15 19 24 40 21 45 -4 6 49 10 149 10 152
0 186 4 186 21 0 23 -112 53 -131 35z"/>
</g>
</svg>
