<?xml version="1.0" standalone="no"?>
<!DOCTYPE svg PUBLIC "-//W3C//DTD SVG 20010904//EN"
 "http://www.w3.org/TR/2001/REC-SVG-20010904/DTD/svg10.dtd">
<svg version="1.0" xmlns="http://www.w3.org/2000/svg"
 width="96.000000pt" height="68.000000pt" viewBox="0 0 96.000000 68.000000"
 preserveAspectRatio="xMidYMid meet">
<metadata>
Created by potrace 1.16, written by Peter Selinger 2001-2019
</metadata>
<g transform="translate(0.000000,68.000000) scale(0.100000,-0.100000)"
fill="#000000" stroke="none">
<path d="M570 590 c-21 -18 -89 -53 -140 -74 -8 -3 6 -4 32 -2 44 3 48 2 61
-28 19 -39 32 -132 20 -139 -5 -3 -57 -11 -116 -18 -66 -7 -104 -16 -100 -22
6 -10 103 -5 187 10 l39 6 -6 -79 c-9 -112 -11 -117 -59 -111 l-40 5 39 -39
c45 -46 64 -49 89 -12 13 21 19 54 22 134 l4 106 115 6 c113 5 134 10 119 24
-9 9 -116 10 -191 3 l-50 -5 -10 73 c-7 51 -16 78 -28 87 -21 15 -18 18 46 35
58 15 64 24 35 44 -29 20 -38 20 -68 -4z"/>
<path d="M662 461 c-18 -27 -32 -51 -32 -54 0 -3 27 7 60 24 33 16 60 33 60
38 0 8 -43 41 -53 41 -2 0 -18 -22 -35 -49z"/>
<path d="M230 483 c-23 -10 -50 -13 -81 -9 -40 6 -47 4 -52 -12 -3 -13 1 -19
11 -18 12 1 20 -17 32 -64 19 -82 27 -95 46 -79 8 6 39 14 70 18 56 6 56 6 59
41 2 19 11 49 19 65 21 39 20 52 -3 65 -26 14 -59 11 -101 -7z m36 -75 c-4
-29 -8 -53 -9 -54 -1 -1 -16 -4 -34 -7 -34 -7 -35 -6 -48 60 -6 30 -4 33 27
42 68 19 71 17 64 -41z"/>
<path d="M412 421 c26 -34 55 -48 69 -34 16 16 -1 41 -33 52 -53 19 -62 14
-36 -18z"/>
</g>
</svg>
