<?xml version="1.0" standalone="no"?>
<!DOCTYPE svg PUBLIC "-//W3C//DTD SVG 20010904//EN"
 "http://www.w3.org/TR/2001/REC-SVG-20010904/DTD/svg10.dtd">
<svg version="1.0" xmlns="http://www.w3.org/2000/svg"
 width="96.000000pt" height="68.000000pt" viewBox="0 0 96.000000 68.000000"
 preserveAspectRatio="xMidYMid meet">
<metadata>
Created by potrace 1.16, written by Peter Selinger 2001-2019
</metadata>
<g transform="translate(0.000000,68.000000) scale(0.100000,-0.100000)"
fill="#000000" stroke="none">
<path d="M550 362 c0 -16 -15 -20 -116 -32 -87 -9 -112 -15 -99 -23 17 -9 105
-4 184 10 l34 6 -7 -81 c-9 -112 -11 -115 -59 -109 l-40 6 46 -47 c44 -44 47
-45 65 -29 28 26 42 84 42 181 l0 86 53 0 c81 0 187 12 187 21 0 17 -78 22
-155 11 -69 -10 -82 -10 -91 3 -16 21 -44 19 -44 -3z"/>
</g>
</svg>
