<?xml version="1.0" standalone="no"?>
<!DOCTYPE svg PUBLIC "-//W3C//DTD SVG 20010904//EN"
 "http://www.w3.org/TR/2001/REC-SVG-20010904/DTD/svg10.dtd">
<svg version="1.0" xmlns="http://www.w3.org/2000/svg"
 width="96.000000pt" height="68.000000pt" viewBox="0 0 96.000000 68.000000"
 preserveAspectRatio="xMidYMid meet">
<metadata>
Created by potrace 1.16, written by Peter Selinger 2001-2019
</metadata>
<g transform="translate(0.000000,68.000000) scale(0.100000,-0.100000)"
fill="#000000" stroke="none">
<path d="M530 449 c-30 -4 -92 -11 -137 -15 -80 -7 -81 -7 -68 -28 7 -12 18
-47 25 -79 9 -47 15 -57 28 -53 9 3 69 7 134 8 l116 3 37 74 c35 70 36 76 19
88 -19 14 -67 15 -154 2z m100 -36 c0 -27 -1 -28 -60 -28 -55 -1 -60 1 -60 22
0 17 7 22 33 25 17 2 44 4 60 6 24 2 27 -1 27 -25z m-160 -19 c0 -24 -2 -25
-52 -22 -40 2 -54 7 -56 20 -4 18 14 25 71 27 33 1 37 -1 37 -25z m142 -54
c-4 -29 -6 -30 -58 -30 -51 0 -54 2 -54 24 0 22 5 25 43 29 23 2 49 4 58 5 12
2 15 -5 11 -28z m-142 -15 c0 -23 -4 -25 -45 -25 -41 0 -45 2 -45 25 0 23 4
25 45 25 41 0 45 -2 45 -25z"/>
</g>
</svg>
