<?xml version="1.0" standalone="no"?>
<!DOCTYPE svg PUBLIC "-//W3C//DTD SVG 20010904//EN"
 "http://www.w3.org/TR/2001/REC-SVG-20010904/DTD/svg10.dtd">
<svg version="1.0" xmlns="http://www.w3.org/2000/svg"
 width="96.000000pt" height="68.000000pt" viewBox="0 0 96.000000 68.000000"
 preserveAspectRatio="xMidYMid meet">
<metadata>
Created by potrace 1.16, written by Peter Selinger 2001-2019
</metadata>
<g transform="translate(0.000000,68.000000) scale(0.100000,-0.100000)"
fill="#000000" stroke="none">
<path d="M200 541 c0 -14 67 -71 83 -71 24 0 33 28 14 47 -15 16 -97 36 -97
24z"/>
<path d="M120 413 c0 -16 65 -73 83 -73 23 0 22 32 -1 53 -21 19 -82 34 -82
20z"/>
<path d="M232 268 c-22 -30 -56 -69 -75 -84 l-35 -29 15 -38 c16 -39 40 -49
50 -20 3 10 26 60 50 112 24 52 42 99 40 105 -2 5 -22 -15 -45 -46z"/>
</g>
</svg>
