<?xml version="1.0" standalone="no"?>
<!DOCTYPE svg PUBLIC "-//W3C//DTD SVG 20010904//EN"
 "http://www.w3.org/TR/2001/REC-SVG-20010904/DTD/svg10.dtd">
<svg version="1.0" xmlns="http://www.w3.org/2000/svg"
 width="96.000000pt" height="68.000000pt" viewBox="0 0 96.000000 68.000000"
 preserveAspectRatio="xMidYMid meet">
<metadata>
Created by potrace 1.16, written by Peter Selinger 2001-2019
</metadata>
<g transform="translate(0.000000,68.000000) scale(0.100000,-0.100000)"
fill="#000000" stroke="none">
<path d="M384 565 c-37 -74 -52 -85 -129 -95 -37 -5 -69 -11 -73 -15 -15 -15
27 -24 81 -19 l57 7 0 -39 c0 -52 -11 -65 -51 -67 -30 -2 -34 1 -31 21 3 23
-13 52 -29 52 -5 0 -9 -15 -9 -33 0 -18 -5 -38 -12 -45 -9 -9 -9 -15 2 -27 13
-12 21 -12 55 -1 66 23 73 5 19 -54 -20 -22 -31 -40 -26 -40 19 0 79 59 92 90
8 19 20 30 34 31 11 0 29 2 39 4 11 2 17 -3 17 -16 0 -10 4 -19 10 -19 15 0
28 32 32 80 2 35 0 45 -14 48 -13 2 -17 -5 -20 -35 -3 -36 -5 -38 -39 -41
l-36 -3 4 38 c5 56 8 60 45 68 59 12 68 16 68 32 0 13 -9 15 -45 11 -25 -3
-45 -4 -45 -2 0 3 20 17 43 32 47 29 53 55 21 79 -27 20 -31 17 -60 -42z"/>
<path d="M210 563 c0 -5 13 -23 29 -42 19 -23 33 -32 45 -28 23 9 20 43 -6 61
-23 16 -68 22 -68 9z"/>
<path d="M637 529 c-10 -6 -45 -11 -77 -12 l-60 -2 7 -35 c14 -67 6 -139 -19
-190 -16 -31 -20 -50 -13 -50 17 0 51 41 62 75 10 31 33 41 101 44 32 1 32 0
32 -45 l0 -46 -37 6 -38 7 40 -36 c22 -19 43 -35 47 -35 19 0 31 50 29 124 0
45 4 103 10 130 11 44 10 51 -7 63 -21 16 -52 16 -77 2z m33 -54 c0 -23 -4
-33 -13 -30 -7 3 -34 1 -60 -4 l-47 -8 0 28 c0 23 5 30 28 35 15 3 32 7 37 9
6 2 20 4 33 4 19 1 22 -4 22 -34z m0 -70 c0 -21 -5 -25 -29 -25 -16 0 -43 -3
-61 -6 -29 -6 -31 -5 -28 17 3 24 8 26 106 37 7 1 12 -9 12 -23z"/>
<path d="M452 175 c43 -40 68 -45 68 -14 0 21 -51 49 -87 49 -14 0 -9 -9 19
-35z"/>
<path d="M313 174 c10 -52 47 -103 95 -131 38 -22 61 -28 131 -31 97 -4 166
12 166 40 0 9 -26 35 -59 58 -48 34 -58 38 -52 21 3 -12 9 -30 12 -41 12 -39
-78 -52 -163 -24 -58 19 -90 47 -98 85 -4 15 -14 34 -22 41 -15 12 -16 10 -10
-18z"/>
<path d="M202 141 c-31 -50 -33 -81 -6 -81 28 0 62 90 45 119 -6 9 -18 -3 -39
-38z"/>
<path d="M655 182 c33 -34 98 -81 106 -76 18 10 9 42 -17 59 -29 19 -105 34
-89 17z"/>
</g>
</svg>
