<?xml version="1.0" standalone="no"?>
<!DOCTYPE svg PUBLIC "-//W3C//DTD SVG 20010904//EN"
 "http://www.w3.org/TR/2001/REC-SVG-20010904/DTD/svg10.dtd">
<svg version="1.0" xmlns="http://www.w3.org/2000/svg"
 width="90.000000pt" height="92.000000pt" viewBox="0 0 90.000000 92.000000"
 preserveAspectRatio="xMidYMid meet">
<metadata>
Created by potrace 1.16, written by Peter Selinger 2001-2019
</metadata>
<g transform="translate(0.000000,92.000000) scale(0.100000,-0.100000)"
fill="#000000" stroke="none">
<path d="M575 808 c4 -13 9 -64 12 -114 6 -104 13 -96 -99 -109 -63 -8 -73
-20 -31 -36 25 -9 68 -7 116 7 15 5 17 -2 17 -50 0 -61 7 -55 -90 -74 l-45 -9
27 -13 c23 -11 47 -10 145 4 65 9 131 16 146 16 19 0 27 4 25 13 -6 18 -50 38
-73 33 -11 -2 -35 -7 -52 -11 l-33 -7 0 55 0 55 100 7 c55 4 100 11 100 15 0
4 -9 15 -20 25 -16 15 -30 17 -77 11 -31 -4 -68 -9 -82 -13 l-24 -6 6 101 c6
93 5 103 -13 112 -10 5 -29 10 -41 10 -18 0 -20 -4 -14 -22z"/>
<path d="M320 779 c-41 -11 -114 -22 -162 -25 -49 -4 -88 -8 -88 -9 0 -1 6
-15 14 -31 8 -16 20 -66 26 -111 7 -45 18 -88 26 -94 9 -7 14 -8 14 -1 0 5 18
12 39 14 35 3 41 1 46 -20 8 -31 4 -35 -48 -41 -55 -8 -50 -25 8 -29 40 -3 45
-6 45 -26 0 -21 -7 -25 -67 -36 -118 -20 -123 -21 -123 -31 0 -17 54 -22 110
-11 30 6 101 17 158 23 56 7 102 15 102 19 0 28 -56 41 -113 26 -24 -6 -27 -3
-27 17 0 19 8 25 46 35 40 11 44 14 33 28 -9 11 -23 14 -47 11 -31 -6 -33 -4
-30 21 2 22 9 28 36 30 18 2 40 -2 48 -9 21 -17 28 -7 64 96 17 50 35 94 41
100 15 15 10 34 -13 49 -38 24 -60 24 -138 5z m77 -79 c-3 -27 -11 -67 -18
-89 -11 -38 -13 -39 -56 -38 l-44 0 2 72 c1 40 -1 77 -5 83 -7 12 19 19 83 21
l44 1 -6 -50z m-172 7 c3 -12 5 -52 3 -87 l-3 -65 -36 -3 -35 -3 -11 83 c-12
92 -10 98 44 98 26 0 34 -5 38 -23z"/>
<path d="M325 698 c-2 -7 -8 -30 -14 -50 l-9 -38 34 26 c36 28 41 43 22 62
-15 15 -28 15 -33 0z"/>
<path d="M150 663 c0 -19 42 -74 53 -70 22 7 19 44 -5 61 -24 17 -48 21 -48 9z"/>
<path d="M670 348 c-36 -10 -95 -20 -132 -20 -38 -1 -68 -4 -68 -7 0 -2 6 -12
14 -20 8 -9 19 -50 25 -91 12 -76 25 -105 39 -84 4 6 34 14 67 18 157 17 156
17 150 36 -3 10 4 47 15 81 l22 64 -27 22 c-14 13 -29 22 -33 22 -4 -1 -36
-10 -72 -21z m45 -26 c6 -4 9 -30 7 -60 -5 -62 -13 -68 -104 -78 l-65 -6 -7
52 c-4 29 -5 55 -2 58 4 4 136 39 156 41 3 0 10 -3 15 -7z"/>
<path d="M350 298 c0 -24 45 -93 63 -96 24 -5 24 59 0 80 -26 23 -63 32 -63
16z"/>
<path d="M250 280 c0 -22 54 -120 64 -117 6 2 12 19 14 39 3 29 -2 40 -28 62
-33 27 -50 33 -50 16z"/>
<path d="M158 264 c-9 -8 32 -124 43 -124 5 0 14 11 20 24 9 18 8 31 -2 51
-15 30 -52 59 -61 49z"/>
<path d="M51 212 c-26 -55 -25 -105 2 -110 31 -6 60 93 41 142 -10 26 -19 19
-43 -32z"/>
</g>
</svg>
