<?xml version="1.0" standalone="no"?>
<!DOCTYPE svg PUBLIC "-//W3C//DTD SVG 20010904//EN"
 "http://www.w3.org/TR/2001/REC-SVG-20010904/DTD/svg10.dtd">
<svg version="1.0" xmlns="http://www.w3.org/2000/svg"
 width="96.000000pt" height="68.000000pt" viewBox="0 0 96.000000 68.000000"
 preserveAspectRatio="xMidYMid meet">
<metadata>
Created by potrace 1.16, written by Peter Selinger 2001-2019
</metadata>
<g transform="translate(0.000000,68.000000) scale(0.100000,-0.100000)"
fill="#000000" stroke="none">
<path d="M513 595 c-16 -18 -144 -57 -198 -61 -22 -2 -41 -3 -42 -3 -1 -1 5
-17 13 -36 39 -95 -13 -299 -96 -368 -41 -35 -48 -53 -11 -31 80 47 134 129
153 234 8 43 16 60 27 60 9 0 79 7 156 15 77 8 148 15 158 15 11 0 17 5 14 13
-2 6 6 26 19 44 42 56 8 79 -96 63 -30 -5 -75 -12 -100 -15 -25 -3 -52 -8 -60
-10 -41 -11 -100 -15 -100 -7 0 5 23 12 52 15 57 7 198 45 212 58 11 10 -35
29 -67 29 -12 -1 -28 -7 -34 -15z m137 -92 c-1 -58 -2 -59 -156 -78 -79 -10
-146 -16 -149 -13 -3 3 -2 19 1 35 l6 31 122 20 c158 26 176 27 176 5z"/>
<path d="M598 203 c2 -103 6 -190 8 -193 10 -9 23 26 30 77 l6 53 85 0 c63 0
84 3 80 13 -3 8 -27 11 -86 9 l-81 -3 0 29 c0 28 2 29 62 36 34 3 64 9 67 12
11 10 -24 24 -48 19 -84 -20 -83 -21 -79 16 3 34 3 34 66 40 34 3 65 9 69 12
13 14 -30 19 -77 10 l-49 -10 -3 31 c-2 25 -8 32 -28 34 l-25 3 3 -188z"/>
<path d="M466 373 c-3 -3 -1 -14 5 -25 11 -21 4 -40 -14 -37 -7 2 -33 -1 -59
-5 -69 -12 -49 -29 23 -21 55 6 59 5 59 -13 0 -16 -11 -22 -65 -33 -75 -15
-67 -30 11 -22 45 5 52 3 50 -11 -1 -9 -6 -20 -12 -25 -11 -11 -105 -31 -144
-31 -39 0 -47 -17 -16 -31 21 -10 35 -8 82 10 31 11 60 21 65 21 18 0 -21 -59
-56 -86 -42 -32 -40 -42 4 -20 81 42 108 97 113 231 3 82 2 88 -19 95 -11 5
-24 6 -27 3z"/>
</g>
</svg>
