<?xml version="1.0" standalone="no"?>
<!DOCTYPE svg PUBLIC "-//W3C//DTD SVG 20010904//EN"
 "http://www.w3.org/TR/2001/REC-SVG-20010904/DTD/svg10.dtd">
<svg version="1.0" xmlns="http://www.w3.org/2000/svg"
 width="96.000000pt" height="68.000000pt" viewBox="0 0 96.000000 68.000000"
 preserveAspectRatio="xMidYMid meet">
<metadata>
Created by potrace 1.16, written by Peter Selinger 2001-2019
</metadata>
<g transform="translate(0.000000,68.000000) scale(0.100000,-0.100000)"
fill="#000000" stroke="none">
<path d="M505 525 c-82 -13 -151 -19 -153 -15 -4 10 -71 34 -78 28 -2 -3 3
-21 11 -41 43 -104 -9 -287 -108 -380 -50 -46 -38 -48 28 -4 60 39 109 116
125 196 6 31 13 61 15 67 2 6 75 18 174 29 94 10 168 22 165 27 -3 5 6 24 20
43 32 42 32 49 1 63 -31 14 -15 15 -200 -13z m145 -22 c-1 -57 -4 -59 -139
-76 -168 -22 -161 -23 -161 13 0 36 -3 35 130 59 143 25 170 26 170 4z"/>
</g>
</svg>
