<?xml version="1.0" standalone="no"?>
<!DOCTYPE svg PUBLIC "-//W3C//DTD SVG 20010904//EN"
 "http://www.w3.org/TR/2001/REC-SVG-20010904/DTD/svg10.dtd">
<svg version="1.0" xmlns="http://www.w3.org/2000/svg"
 width="96.000000pt" height="68.000000pt" viewBox="0 0 96.000000 68.000000"
 preserveAspectRatio="xMidYMid meet">
<metadata>
Created by potrace 1.16, written by Peter Selinger 2001-2019
</metadata>
<g transform="translate(0.000000,68.000000) scale(0.100000,-0.100000)"
fill="#000000" stroke="none">
<path d="M566 613 c-4 -8 -6 -30 -6 -49 0 -32 -2 -34 -32 -34 -42 0 -67 -14
-43 -24 9 -3 26 -6 37 -6 17 0 19 -4 13 -31 -9 -40 11 -36 40 8 18 29 26 32
93 38 51 5 72 11 72 21 0 15 -14 18 -78 14 -41 -2 -43 -1 -31 18 10 16 10 23
1 35 -18 21 -60 27 -66 10z"/>
<path d="M300 590 c0 -6 7 -24 15 -40 l15 -29 -70 -7 c-39 -3 -70 -10 -70 -14
0 -3 11 -12 24 -20 23 -12 45 -11 103 6 18 5 25 1 33 -20 13 -35 30 -33 30 4
0 26 5 31 30 37 46 9 46 23 1 23 -39 0 -41 2 -41 29 0 29 -14 41 -51 41 -10 0
-19 -5 -19 -10z"/>
<path d="M298 379 c-53 -55 -50 -61 13 -24 31 17 59 25 94 25 28 0 90 5 138
11 67 8 91 8 102 -1 12 -10 15 -40 14 -139 -1 -165 -5 -177 -53 -174 l-37 3
20 -29 c37 -52 49 -57 76 -31 32 30 44 93 48 257 l4 132 -30 12 c-24 10 -48 9
-131 -4 -113 -19 -153 -21 -158 -8 -1 5 -14 12 -28 14 -20 4 -34 -5 -72 -44z"/>
<path d="M376 291 l7 -59 -64 -6 c-35 -3 -80 -7 -99 -9 -19 -1 -34 -6 -32 -12
2 -6 41 -9 99 -7 l96 2 -6 -68 c-6 -73 2 -99 27 -89 13 5 16 22 16 86 l0 80
58 6 c31 3 65 7 75 8 10 1 17 7 17 12 0 6 -31 9 -75 8 l-75 -3 0 49 c0 35 -4
51 -16 55 -31 12 -34 6 -28 -53z"/>
<path d="M490 305 c-17 -25 -29 -45 -26 -45 7 0 78 40 94 52 9 8 9 14 1 24
-19 24 -37 16 -69 -31z"/>
<path d="M250 302 c0 -12 44 -52 58 -52 21 0 13 27 -13 44 -27 17 -45 21 -45
8z"/>
<path d="M470 172 c0 -10 75 -82 85 -82 16 0 2 52 -17 64 -32 20 -68 29 -68
18z"/>
<path d="M251 114 c-61 -61 -57 -68 13 -23 69 43 83 58 65 70 -19 12 -18 13
-78 -47z"/>
</g>
</svg>
