<?xml version="1.0" standalone="no"?>
<!DOCTYPE svg PUBLIC "-//W3C//DTD SVG 20010904//EN"
 "http://www.w3.org/TR/2001/REC-SVG-20010904/DTD/svg10.dtd">
<svg version="1.0" xmlns="http://www.w3.org/2000/svg"
 width="96.000000pt" height="68.000000pt" viewBox="0 0 96.000000 68.000000"
 preserveAspectRatio="xMidYMid meet">
<metadata>
Created by potrace 1.16, written by Peter Selinger 2001-2019
</metadata>
<g transform="translate(0.000000,68.000000) scale(0.100000,-0.100000)"
fill="#000000" stroke="none">
<path d="M265 230 c-11 -5 -45 -9 -75 -9 -36 -1 -50 -4 -41 -10 8 -5 21 -31
30 -57 13 -39 20 -48 36 -46 11 2 41 6 68 9 40 5 47 9 47 27 0 12 7 32 16 44
9 13 13 29 10 37 -6 17 -58 19 -91 5z m35 -38 c0 -26 -21 -49 -52 -56 -23 -5
-28 -2 -37 26 -6 17 -11 32 -11 34 0 5 35 12 68 13 25 1 32 -3 32 -17z"/>
</g>
</svg>
