<?xml version="1.0" standalone="no"?>
<!DOCTYPE svg PUBLIC "-//W3C//DTD SVG 20010904//EN"
 "http://www.w3.org/TR/2001/REC-SVG-20010904/DTD/svg10.dtd">
<svg version="1.0" xmlns="http://www.w3.org/2000/svg"
 width="96.000000pt" height="68.000000pt" viewBox="0 0 96.000000 68.000000"
 preserveAspectRatio="xMidYMid meet">
<metadata>
Created by potrace 1.16, written by Peter Selinger 2001-2019
</metadata>
<g transform="translate(0.000000,68.000000) scale(0.100000,-0.100000)"
fill="#000000" stroke="none">
<path d="M420 319 c-58 -10 -120 -18 -137 -18 -18 -1 -33 -5 -33 -11 0 -14 51
-12 166 6 130 21 138 18 129 -44 -8 -56 -35 -122 -59 -141 -13 -11 -22 -12
-43 -2 -14 6 -27 10 -28 9 -8 -10 48 -78 64 -78 30 0 79 56 91 103 6 23 20 71
31 107 19 61 19 65 3 77 -22 16 -53 15 -184 -8z"/>
</g>
</svg>
