<?xml version="1.0" standalone="no"?>
<!DOCTYPE svg PUBLIC "-//W3C//DTD SVG 20010904//EN"
 "http://www.w3.org/TR/2001/REC-SVG-20010904/DTD/svg10.dtd">
<svg version="1.0" xmlns="http://www.w3.org/2000/svg"
 width="96.000000pt" height="68.000000pt" viewBox="0 0 96.000000 68.000000"
 preserveAspectRatio="xMidYMid meet">
<metadata>
Created by potrace 1.16, written by Peter Selinger 2001-2019
</metadata>
<g transform="translate(0.000000,68.000000) scale(0.100000,-0.100000)"
fill="#000000" stroke="none">
<path d="M373 593 c4 -6 19 -14 34 -17 18 -4 69 -49 138 -121 l110 -115 89 0
c52 0 86 4 80 9 -5 5 -39 18 -75 30 -84 27 -135 61 -227 145 -58 55 -80 69
-114 73 -27 4 -39 3 -35 -4z"/>
<path d="M294 503 c-19 -62 -54 -108 -133 -175 -58 -49 -31 -49 45 0 55 36
154 134 154 153 0 9 -40 39 -53 39 -4 0 -10 -8 -13 -17z"/>
</g>
</svg>
