<?xml version="1.0" standalone="no"?>
<!DOCTYPE svg PUBLIC "-//W3C//DTD SVG 20010904//EN"
 "http://www.w3.org/TR/2001/REC-SVG-20010904/DTD/svg10.dtd">
<svg version="1.0" xmlns="http://www.w3.org/2000/svg"
 width="96.000000pt" height="68.000000pt" viewBox="0 0 96.000000 68.000000"
 preserveAspectRatio="xMidYMid meet">
<metadata>
Created by potrace 1.16, written by Peter Selinger 2001-2019
</metadata>
<g transform="translate(0.000000,68.000000) scale(0.100000,-0.100000)"
fill="#000000" stroke="none">
<path d="M430 326 c0 -16 -32 -22 -174 -32 -63 -4 -94 -9 -85 -15 18 -12 90
-11 163 1 33 5 62 7 65 5 11 -12 -77 -87 -160 -136 -49 -29 -89 -53 -89 -55 0
-5 57 14 103 34 50 22 157 99 157 113 0 5 5 9 10 9 13 0 13 -53 0 -121 -8 -39
-7 -62 1 -81 28 -68 53 -4 44 110 -3 45 -3 87 1 93 3 6 38 -21 83 -64 86 -84
113 -95 202 -80 l54 9 -55 18 c-92 31 -174 71 -229 112 l-52 39 38 7 c21 4 79
7 128 8 83 1 89 2 70 16 -20 16 -89 15 -197 -3 -31 -4 -38 -2 -38 11 0 9 -8
16 -20 16 -11 0 -20 -6 -20 -14z"/>
</g>
</svg>
