<?xml version="1.0" standalone="no"?>
<!DOCTYPE svg PUBLIC "-//W3C//DTD SVG 20010904//EN"
 "http://www.w3.org/TR/2001/REC-SVG-20010904/DTD/svg10.dtd">
<svg version="1.0" xmlns="http://www.w3.org/2000/svg"
 width="96.000000pt" height="68.000000pt" viewBox="0 0 96.000000 68.000000"
 preserveAspectRatio="xMidYMid meet">
<metadata>
Created by potrace 1.16, written by Peter Selinger 2001-2019
</metadata>
<g transform="translate(0.000000,68.000000) scale(0.100000,-0.100000)"
fill="#000000" stroke="none">
<path d="M565 405 c-44 -8 -98 -14 -119 -14 -36 -1 -38 -2 -24 -18 8 -10 21
-39 28 -66 10 -36 17 -46 29 -43 32 9 87 15 143 17 31 1 55 6 52 11 -3 5 6 27
20 48 32 49 32 58 0 70 -29 11 -24 12 -129 -5z m82 -52 c-7 -42 -20 -53 -62
-53 -16 0 -47 -3 -67 -6 -36 -6 -37 -6 -44 30 -3 20 -4 39 -2 41 6 6 106 22
147 24 33 1 34 1 28 -36z"/>
</g>
</svg>
