<?xml version="1.0" standalone="no"?>
<!DOCTYPE svg PUBLIC "-//W3C//DTD SVG 20010904//EN"
 "http://www.w3.org/TR/2001/REC-SVG-20010904/DTD/svg10.dtd">
<svg version="1.0" xmlns="http://www.w3.org/2000/svg"
 width="96.000000pt" height="68.000000pt" viewBox="0 0 96.000000 68.000000"
 preserveAspectRatio="xMidYMid meet">
<metadata>
Created by potrace 1.16, written by Peter Selinger 2001-2019
</metadata>
<g transform="translate(0.000000,68.000000) scale(0.100000,-0.100000)"
fill="#000000" stroke="none">
<path d="M737 558 c13 -51 8 -447 -6 -461 -8 -8 -19 -8 -43 1 -17 6 -33 11
-34 9 -1 -1 21 -22 48 -46 l51 -45 17 22 c15 18 18 51 22 244 3 160 8 230 17
247 12 22 11 27 -9 43 -12 10 -33 18 -47 18 -23 0 -24 -2 -16 -32z"/>
</g>
</svg>
