<?xml version="1.0" standalone="no"?>
<!DOCTYPE svg PUBLIC "-//W3C//DTD SVG 20010904//EN"
 "http://www.w3.org/TR/2001/REC-SVG-20010904/DTD/svg10.dtd">
<svg version="1.0" xmlns="http://www.w3.org/2000/svg"
 width="90.000000pt" height="92.000000pt" viewBox="0 0 90.000000 92.000000"
 preserveAspectRatio="xMidYMid meet">
<metadata>
Created by potrace 1.16, written by Peter Selinger 2001-2019
</metadata>
<g transform="translate(0.000000,92.000000) scale(0.100000,-0.100000)"
fill="#000000" stroke="none">
<path d="M550 843 c0 -10 -18 -43 -39 -73 -33 -47 -43 -55 -66 -52 -25 3 -27
1 -19 -20 5 -13 9 -95 9 -183 0 -183 -11 -168 105 -141 36 9 101 16 144 16
l79 0 -6 -90 c-8 -128 -47 -182 -107 -150 -34 18 -32 8 6 -48 l35 -52 29 15
c43 22 69 81 85 197 8 55 19 106 24 111 17 17 13 25 -21 43 -39 20 -86 20
-220 -2 -54 -8 -102 -13 -107 -10 -5 3 -7 14 -4 24 4 15 22 21 96 31 51 7 96
16 101 21 17 17 -46 23 -109 11 -83 -15 -85 -15 -85 13 0 28 8 31 93 41 38 4
63 3 72 -5 17 -14 36 12 60 80 9 25 22 55 31 67 14 22 13 24 -18 43 -37 23
-53 24 -94 10 -16 -5 -51 -14 -79 -19 l-50 -9 25 21 c14 12 43 37 65 54 34 29
38 35 25 47 -8 8 -25 17 -37 21 -18 5 -23 2 -23 -12z m110 -157 c0 -22 -4 -24
-42 -25 -24 0 -59 -5 -78 -11 -52 -15 -62 -13 -58 12 2 19 13 24 63 34 100 19
115 18 115 -10z m-12 -73 c-3 -26 -7 -28 -63 -35 -33 -4 -70 -10 -82 -13 -19
-4 -23 -1 -23 19 0 20 6 26 33 31 17 3 52 10 77 14 25 5 49 9 53 10 5 1 7 -11
5 -26z"/>
<path d="M265 763 c-33 -8 -88 -14 -122 -16 -61 -2 -75 -11 -53 -33 6 -6 15
-37 21 -70 12 -70 25 -96 37 -76 7 10 134 32 192 32 10 0 11 3 3 11 -12 12 4
51 39 101 10 14 9 21 -6 36 -24 27 -42 30 -111 15z m40 -70 c-4 -27 -10 -51
-13 -55 -4 -4 -37 -10 -74 -14 l-68 -7 0 42 c0 22 -1 44 -2 48 -4 10 84 31
131 32 l33 1 -7 -47z"/>
<path d="M265 523 c-22 -8 -71 -15 -108 -15 -63 0 -67 -1 -54 -16 22 -25 30
-110 18 -196 -10 -72 -29 -120 -69 -176 l-17 -24 33 19 c39 24 79 79 88 122 6
31 7 31 29 17 22 -14 26 -13 75 22 28 20 49 38 46 41 -2 2 -29 -3 -60 -12 -79
-23 -82 -21 -76 52 l5 63 45 -30 c51 -34 65 -37 74 -14 10 25 -1 32 -64 45
-47 9 -60 16 -60 30 0 24 9 28 79 35 l61 7 2 -74 c3 -112 -1 -241 -7 -257 -4
-11 -15 -13 -40 -9 l-35 6 36 -45 c41 -49 45 -51 66 -26 23 26 26 52 29 246
l3 178 -24 14 c-30 16 -26 16 -75 -3z"/>
<path d="M653 298 c40 -50 61 -54 65 -15 3 23 -2 30 -32 42 -64 27 -72 20 -33
-27z"/>
<path d="M550 324 c0 -17 45 -84 56 -84 37 0 25 54 -16 75 -32 16 -40 18 -40
9z"/>
<path d="M396 261 c-18 -52 -15 -91 9 -91 25 0 41 108 19 130 -7 7 -16 -6 -28
-39z"/>
<path d="M482 268 c29 -52 48 -60 48 -20 0 32 -26 62 -54 62 -16 0 -15 -4 6
-42z"/>
</g>
</svg>
