<?xml version="1.0" standalone="no"?>
<!DOCTYPE svg PUBLIC "-//W3C//DTD SVG 20010904//EN"
 "http://www.w3.org/TR/2001/REC-SVG-20010904/DTD/svg10.dtd">
<svg version="1.0" xmlns="http://www.w3.org/2000/svg"
 width="96.000000pt" height="68.000000pt" viewBox="0 0 96.000000 68.000000"
 preserveAspectRatio="xMidYMid meet">
<metadata>
Created by potrace 1.16, written by Peter Selinger 2001-2019
</metadata>
<g transform="translate(0.000000,68.000000) scale(0.100000,-0.100000)"
fill="#000000" stroke="none">
<path d="M214 529 c3 -19 8 -82 12 -141 l6 -108 -47 0 c-39 0 -46 3 -41 16 3
9 9 33 12 54 5 32 3 40 -14 49 -30 16 -32 15 -32 -26 0 -21 -5 -55 -11 -77
-14 -52 3 -72 47 -56 27 11 163 40 185 40 5 0 9 -9 9 -19 0 -21 17 -37 27 -27
7 6 36 167 31 171 -2 2 -15 6 -29 10 l-25 6 4 -60 c4 -54 2 -61 -14 -61 -11 0
-30 -3 -43 -7 l-23 -6 4 132 c2 86 0 131 -7 131 -5 0 -20 3 -33 6 -22 6 -23 4
-18 -27z"/>
</g>
</svg>
