<?xml version="1.0" standalone="no"?>
<!DOCTYPE svg PUBLIC "-//W3C//DTD SVG 20010904//EN"
 "http://www.w3.org/TR/2001/REC-SVG-20010904/DTD/svg10.dtd">
<svg version="1.0" xmlns="http://www.w3.org/2000/svg"
 width="96.000000pt" height="68.000000pt" viewBox="0 0 96.000000 68.000000"
 preserveAspectRatio="xMidYMid meet">
<metadata>
Created by potrace 1.16, written by Peter Selinger 2001-2019
</metadata>
<g transform="translate(0.000000,68.000000) scale(0.100000,-0.100000)"
fill="#000000" stroke="none">
<path d="M560 560 c0 -43 -18 -60 -64 -60 -33 0 -34 -18 -1 -26 28 -7 29 -8
15 -35 -8 -14 -7 -19 2 -19 8 0 28 -13 45 -29 l31 -28 -74 -13 c-80 -14 -100
-33 -31 -30 23 1 46 1 52 1 5 -1 -11 -19 -35 -40 -36 -31 -42 -42 -33 -52 10
-10 32 -7 108 16 91 27 96 27 115 10 21 -19 54 -13 48 8 -6 15 -67 57 -84 57
-8 0 -14 -4 -14 -10 0 -5 5 -10 10 -10 6 0 10 -4 10 -9 0 -10 -112 -35 -130
-29 -7 2 4 15 24 28 20 14 36 30 36 36 0 12 54 24 113 24 20 0 37 4 37 10 0
15 -46 23 -96 15 -30 -4 -44 -3 -40 4 8 12 -32 41 -59 41 -17 0 -16 4 13 32
29 30 38 33 107 36 41 2 75 8 75 13 0 18 -42 30 -85 23 -47 -7 -58 3 -29 27
15 12 14 15 -6 31 -12 10 -31 18 -41 18 -15 0 -19 -7 -19 -40z"/>
<path d="M304 548 c4 -13 10 -31 13 -40 5 -16 -2 -18 -61 -18 -49 0 -66 -3
-66 -14 0 -23 55 -40 91 -27 44 15 47 15 64 -19 21 -41 37 -38 33 8 -3 35 -1
37 30 42 42 6 38 25 -5 21 -29 -2 -32 0 -35 31 -3 29 -7 33 -37 36 -31 3 -33
2 -27 -20z"/>
<path d="M305 375 c-22 -8 -57 -14 -77 -14 -21 -1 -38 -5 -38 -10 0 -18 30
-20 71 -6 52 19 69 19 69 2 0 -21 -35 -57 -54 -57 -16 0 -17 -10 -14 -82 3
-79 2 -83 -19 -86 -20 -3 -22 2 -25 49 -2 36 -8 55 -20 63 -26 16 -29 5 -20
-62 9 -66 8 -67 -40 -63 -26 3 -31 -17 -7 -29 26 -14 46 -11 174 33 54 18 93
36 85 39 -8 3 -24 2 -35 -3 -43 -17 -56 -11 -53 24 3 29 7 33 46 41 54 12 56
31 2 22 -39 -6 -40 -5 -40 23 0 24 8 34 44 55 59 34 62 42 27 61 -17 8 -31 15
-33 14 -2 -1 -21 -7 -43 -14z"/>
<path d="M667 213 c-4 -3 -7 -39 -7 -79 0 -82 10 -99 63 -109 44 -9 107 -2
107 10 0 6 -26 11 -57 13 -74 4 -83 14 -71 89 5 31 7 62 4 70 -6 14 -28 18
-39 6z"/>
<path d="M450 165 c0 -47 -23 -90 -60 -112 -38 -22 -39 -35 -2 -22 61 21 128
123 102 154 -22 27 -40 18 -40 -20z"/>
<path d="M555 118 c0 -71 3 -83 18 -86 15 -3 17 5 17 60 0 35 3 73 6 86 5 18
2 22 -17 22 -23 0 -24 -2 -24 -82z"/>
</g>
</svg>
