<?xml version="1.0" standalone="no"?>
<!DOCTYPE svg PUBLIC "-//W3C//DTD SVG 20010904//EN"
 "http://www.w3.org/TR/2001/REC-SVG-20010904/DTD/svg10.dtd">
<svg version="1.0" xmlns="http://www.w3.org/2000/svg"
 width="96.000000pt" height="68.000000pt" viewBox="0 0 96.000000 68.000000"
 preserveAspectRatio="xMidYMid meet">
<metadata>
Created by potrace 1.16, written by Peter Selinger 2001-2019
</metadata>
<g transform="translate(0.000000,68.000000) scale(0.100000,-0.100000)"
fill="#000000" stroke="none">
<path d="M270 200 c0 -25 -4 -30 -24 -30 -13 0 -38 -3 -55 -6 -30 -6 -31 -5
-31 25 0 26 -4 32 -17 29 -24 -4 -31 -79 -9 -97 13 -11 17 -10 22 3 4 12 19
16 55 16 27 0 49 -3 49 -7 0 -5 4 -15 10 -23 7 -12 12 -12 29 4 16 14 21 31
21 68 0 45 -2 48 -25 48 -21 0 -25 -5 -25 -30z"/>
</g>
</svg>
