<?xml version="1.0" standalone="no"?>
<!DOCTYPE svg PUBLIC "-//W3C//DTD SVG 20010904//EN"
 "http://www.w3.org/TR/2001/REC-SVG-20010904/DTD/svg10.dtd">
<svg version="1.0" xmlns="http://www.w3.org/2000/svg"
 width="96.000000pt" height="68.000000pt" viewBox="0 0 96.000000 68.000000"
 preserveAspectRatio="xMidYMid meet">
<metadata>
Created by potrace 1.16, written by Peter Selinger 2001-2019
</metadata>
<g transform="translate(0.000000,68.000000) scale(0.100000,-0.100000)"
fill="#000000" stroke="none">
<path d="M615 248 c-33 -5 -80 -12 -105 -15 l-45 -6 50 -12 c48 -11 50 -12 58
-54 5 -23 7 -44 5 -46 -2 -2 -44 -8 -93 -13 -84 -8 -88 -9 -60 -21 22 -9 54
-10 134 -2 57 6 144 11 193 11 51 0 88 4 88 10 0 17 -49 23 -136 16 l-84 -7 2
55 3 55 45 6 c67 9 78 14 60 25 -17 11 -32 11 -115 -2z"/>
</g>
</svg>
