<?xml version="1.0" standalone="no"?>
<!DOCTYPE svg PUBLIC "-//W3C//DTD SVG 20010904//EN"
 "http://www.w3.org/TR/2001/REC-SVG-20010904/DTD/svg10.dtd">
<svg version="1.0" xmlns="http://www.w3.org/2000/svg"
 width="96.000000pt" height="68.000000pt" viewBox="0 0 96.000000 68.000000"
 preserveAspectRatio="xMidYMid meet">
<metadata>
Created by potrace 1.16, written by Peter Selinger 2001-2019
</metadata>
<g transform="translate(0.000000,68.000000) scale(0.100000,-0.100000)"
fill="#000000" stroke="none">
<path d="M305 533 c-16 -7 -52 -12 -80 -11 -48 2 -50 1 -45 -23 3 -13 5 -76 4
-139 0 -126 -16 -192 -59 -250 -38 -52 -18 -50 29 2 26 28 48 65 56 93 12 42
15 46 39 40 20 -4 33 0 51 20 13 14 27 25 32 25 10 0 9 -115 -1 -150 -6 -21
-12 -25 -42 -22 l-34 4 34 -36 c41 -42 55 -44 75 -13 11 17 15 70 17 232 2
116 0 215 -4 221 -11 19 -40 22 -72 7z m28 -75 c2 -29 3 -56 1 -59 -2 -3 -24
-1 -49 5 -43 10 -45 12 -45 48 0 41 17 57 61 58 25 0 27 -4 32 -52z m-57 -83
c16 -8 37 -15 47 -15 20 0 23 -33 5 -47 -7 -5 -32 -17 -55 -26 l-43 -17 0 60
c0 33 4 60 9 60 5 0 22 -7 37 -15z"/>
</g>
</svg>
