<?xml version="1.0" standalone="no"?>
<!DOCTYPE svg PUBLIC "-//W3C//DTD SVG 20010904//EN"
 "http://www.w3.org/TR/2001/REC-SVG-20010904/DTD/svg10.dtd">
<svg version="1.0" xmlns="http://www.w3.org/2000/svg"
 width="96.000000pt" height="68.000000pt" viewBox="0 0 96.000000 68.000000"
 preserveAspectRatio="xMidYMid meet">
<metadata>
Created by potrace 1.16, written by Peter Selinger 2001-2019
</metadata>
<g transform="translate(0.000000,68.000000) scale(0.100000,-0.100000)"
fill="#000000" stroke="none">
<path d="M516 225 l6 -35 -43 -1 c-24 0 -53 -4 -63 -8 -19 -7 -19 -8 -1 -15
10 -4 38 -4 62 0 l43 6 0 -35 c0 -31 -3 -35 -31 -41 -17 -3 -61 -6 -98 -6 -36
0 -73 -4 -80 -9 -26 -17 34 -24 142 -17 56 3 149 6 207 7 114 1 160 7 160 20
0 19 -74 28 -157 18 -46 -6 -90 -8 -97 -6 -8 3 -11 17 -8 36 4 26 9 31 38 36
19 3 50 7 69 11 61 9 29 27 -36 20 -57 -5 -59 -5 -59 18 0 16 -7 26 -22 30
-37 10 -39 8 -32 -29z"/>
</g>
</svg>
