<?xml version="1.0" standalone="no"?>
<!DOCTYPE svg PUBLIC "-//W3C//DTD SVG 20010904//EN"
 "http://www.w3.org/TR/2001/REC-SVG-20010904/DTD/svg10.dtd">
<svg version="1.0" xmlns="http://www.w3.org/2000/svg"
 width="96.000000pt" height="68.000000pt" viewBox="0 0 96.000000 68.000000"
 preserveAspectRatio="xMidYMid meet">
<metadata>
Created by potrace 1.16, written by Peter Selinger 2001-2019
</metadata>
<g transform="translate(0.000000,68.000000) scale(0.100000,-0.100000)"
fill="#000000" stroke="none">
<path d="M209 438 c2 -85 -2 -204 -9 -266 -11 -102 -11 -115 3 -130 9 -9 20
-13 24 -9 13 13 22 111 22 246 l1 135 30 -29 c22 -21 33 -26 41 -18 15 15 3
32 -36 48 -31 14 -32 14 -24 67 11 81 11 84 -16 96 -14 7 -29 12 -33 12 -4 0
-5 -69 -3 -152z"/>
<path d="M115 350 c-20 -40 -23 -55 -15 -70 14 -26 25 -25 44 2 18 25 22 103
6 113 -5 3 -21 -17 -35 -45z"/>
</g>
</svg>
