<?xml version="1.0" standalone="no"?>
<!DOCTYPE svg PUBLIC "-//W3C//DTD SVG 20010904//EN"
 "http://www.w3.org/TR/2001/REC-SVG-20010904/DTD/svg10.dtd">
<svg version="1.0" xmlns="http://www.w3.org/2000/svg"
 width="96.000000pt" height="68.000000pt" viewBox="0 0 96.000000 68.000000"
 preserveAspectRatio="xMidYMid meet">
<metadata>
Created by potrace 1.16, written by Peter Selinger 2001-2019
</metadata>
<g transform="translate(0.000000,68.000000) scale(0.100000,-0.100000)"
fill="#000000" stroke="none">
<path d="M194 538 c4 -13 9 -53 13 -90 l6 -66 -47 -7 c-59 -9 -60 -25 -1 -25
l45 0 0 -63 0 -64 -60 -16 c-33 -10 -60 -21 -60 -26 0 -5 13 -14 28 -20 25
-10 36 -8 97 26 39 21 87 47 107 58 49 26 40 31 -18 11 -26 -9 -49 -16 -51
-16 -2 0 -3 26 -1 57 l3 58 43 9 c23 5 42 12 42 17 0 12 -38 21 -62 14 -21 -7
-21 -6 -15 69 5 75 5 77 -19 87 -43 16 -57 12 -50 -13z"/>
</g>
</svg>
