<?xml version="1.0" standalone="no"?>
<!DOCTYPE svg PUBLIC "-//W3C//DTD SVG 20010904//EN"
 "http://www.w3.org/TR/2001/REC-SVG-20010904/DTD/svg10.dtd">
<svg version="1.0" xmlns="http://www.w3.org/2000/svg"
 width="96.000000pt" height="68.000000pt" viewBox="0 0 96.000000 68.000000"
 preserveAspectRatio="xMidYMid meet">
<metadata>
Created by potrace 1.16, written by Peter Selinger 2001-2019
</metadata>
<g transform="translate(0.000000,68.000000) scale(0.100000,-0.100000)"
fill="#000000" stroke="none">
<path d="M510 619 c-19 -11 -72 -31 -117 -45 -82 -26 -114 -52 -50 -40 109 19
114 19 120 -3 3 -12 1 -24 -5 -27 -5 -3 -58 -11 -118 -17 -60 -5 -107 -14
-104 -19 7 -11 108 -10 157 1 20 5 39 6 42 1 7 -11 -89 -73 -178 -116 -42 -20
-76 -38 -74 -40 12 -12 257 90 257 107 0 5 5 9 10 9 6 0 10 -13 10 -29 0 -16
4 -41 9 -54 12 -31 8 -33 -82 -42 -75 -8 -100 -25 -38 -25 23 0 41 -5 41 -10
0 -43 -95 -153 -171 -199 -39 -24 -19 -28 33 -7 74 31 188 161 188 214 0 16 9
21 56 27 31 4 58 4 61 1 4 -3 1 -23 -5 -45 -19 -62 -17 -64 33 -58 l45 7 0
-39 c0 -31 -7 -46 -31 -70 -27 -27 -36 -31 -65 -25 -19 3 -34 3 -34 -1 0 -12
53 -55 67 -55 25 0 82 62 99 108 10 26 22 53 28 61 16 21 -22 43 -66 38 -47
-6 -52 -1 -29 32 10 14 21 36 25 48 6 19 2 23 -26 28 -18 4 -46 2 -61 -4 -16
-6 -30 -11 -32 -11 -2 0 1 109 5 128 0 1 48 -23 106 -53 110 -57 158 -69 152
-38 -6 31 -68 62 -169 85 -54 12 -99 25 -99 29 0 11 59 19 151 19 90 0 121 12
74 30 -17 6 -49 6 -93 0 -112 -16 -121 -15 -120 19 1 28 4 30 54 37 63 7 76
27 34 49 -37 19 -47 18 -90 -6z"/>
</g>
</svg>
