<?xml version="1.0" standalone="no"?>
<!DOCTYPE svg PUBLIC "-//W3C//DTD SVG 20010904//EN"
 "http://www.w3.org/TR/2001/REC-SVG-20010904/DTD/svg10.dtd">
<svg version="1.0" xmlns="http://www.w3.org/2000/svg"
 width="90.000000pt" height="92.000000pt" viewBox="0 0 90.000000 92.000000"
 preserveAspectRatio="xMidYMid meet">
<metadata>
Created by potrace 1.16, written by Peter Selinger 2001-2019
</metadata>
<g transform="translate(0.000000,92.000000) scale(0.100000,-0.100000)"
fill="#000000" stroke="none">
<path d="M420 822 c0 -62 -102 -231 -203 -336 -24 -25 -38 -46 -32 -46 14 0
98 59 103 72 8 19 33 5 68 -39 21 -27 52 -63 68 -81 l31 -33 -87 -83 c-47 -45
-130 -112 -184 -147 -100 -66 -106 -85 -14 -49 145 57 316 211 439 395 40 61
89 126 108 146 42 44 40 66 -5 92 -34 20 -34 20 -149 -2 -63 -13 -117 -20
-120 -18 -3 3 9 27 26 52 17 25 31 50 31 55 0 12 -50 50 -66 50 -9 0 -14 -11
-14 -28z m220 -169 c0 -23 -53 -115 -113 -197 l-51 -69 -7 34 c-8 38 -55 83
-107 101 -38 14 -37 19 15 87 l38 49 80 4 c44 2 95 5 113 6 24 1 32 -2 32 -15z"/>
</g>
</svg>
