<?xml version="1.0" standalone="no"?>
<!DOCTYPE svg PUBLIC "-//W3C//DTD SVG 20010904//EN"
 "http://www.w3.org/TR/2001/REC-SVG-20010904/DTD/svg10.dtd">
<svg version="1.0" xmlns="http://www.w3.org/2000/svg"
 width="96.000000pt" height="68.000000pt" viewBox="0 0 96.000000 68.000000"
 preserveAspectRatio="xMidYMid meet">
<metadata>
Created by potrace 1.16, written by Peter Selinger 2001-2019
</metadata>
<g transform="translate(0.000000,68.000000) scale(0.100000,-0.100000)"
fill="#000000" stroke="none">
<path d="M264 578 c17 -57 18 -193 1 -337 -16 -145 -16 -153 1 -172 31 -35 39
-7 44 171 3 93 8 172 12 175 4 4 17 0 30 -9 31 -22 58 -21 58 3 0 14 -12 22
-46 30 l-46 12 7 60 c8 67 -2 89 -42 89 -22 0 -24 -3 -19 -22z"/>
<path d="M161 366 c-24 -59 -25 -91 -1 -91 35 0 67 131 34 142 -5 2 -20 -21
-33 -51z"/>
</g>
</svg>
