<?xml version="1.0" standalone="no"?>
<!DOCTYPE svg PUBLIC "-//W3C//DTD SVG 20010904//EN"
 "http://www.w3.org/TR/2001/REC-SVG-20010904/DTD/svg10.dtd">
<svg version="1.0" xmlns="http://www.w3.org/2000/svg"
 width="96.000000pt" height="68.000000pt" viewBox="0 0 96.000000 68.000000"
 preserveAspectRatio="xMidYMid meet">
<metadata>
Created by potrace 1.16, written by Peter Selinger 2001-2019
</metadata>
<g transform="translate(0.000000,68.000000) scale(0.100000,-0.100000)"
fill="#000000" stroke="none">
<path d="M525 517 c-77 -11 -142 -21 -144 -23 -2 -2 2 -11 9 -19 28 -34 -3
-267 -50 -371 -22 -51 -2 -51 27 -1 41 71 66 168 79 304 4 46 11 74 20 77 7 3
62 10 121 16 137 15 155 18 148 30 -8 13 -46 11 -210 -13z"/>
<path d="M215 490 c-11 -5 -38 -9 -60 -9 l-40 -1 0 -180 c0 -127 4 -182 12
-191 10 -10 14 -9 19 4 5 13 19 17 59 17 45 0 55 -3 60 -20 8 -24 28 -26 45
-5 18 22 27 359 10 380 -14 16 -72 19 -105 5z m55 -71 c0 -36 -2 -39 -27 -39
-16 0 -38 -3 -51 -6 -22 -6 -23 -4 -20 37 3 42 5 44 38 49 51 9 60 3 60 -41z
m0 -104 c0 -27 -4 -35 -17 -35 -10 0 -34 -3 -54 -6 l-35 -6 4 35 c4 33 7 36
41 40 20 2 42 4 49 5 7 1 12 -11 12 -33z m4 -106 c4 -23 4 -44 1 -48 -4 -3
-33 -7 -66 -8 -56 -3 -59 -2 -55 20 3 12 5 32 5 44 1 18 8 22 44 26 23 2 47 4
53 5 6 1 14 -17 18 -39z"/>
<path d="M559 472 c-1 -4 0 -24 1 -44 2 -38 2 -38 -39 -38 -54 0 -53 -18 2
-22 40 -3 42 -4 45 -38 3 -32 0 -36 -20 -36 -69 0 -99 -5 -93 -14 3 -5 28 -10
56 -10 l49 0 0 -34 c0 -35 -15 -46 -67 -46 -44 0 -23 -19 25 -22 45 -3 47 -5
50 -34 l3 -32 -85 -7 c-48 -4 -86 -10 -86 -15 0 -15 50 -20 117 -10 37 5 123
10 190 10 122 0 159 11 108 30 -16 6 -65 8 -122 4 l-94 -7 3 34 c3 33 5 34 61
43 74 12 76 31 2 23 l-55 -6 0 35 c0 25 -4 34 -17 35 -43 1 25 18 82 19 33 1
71 5 85 10 l25 7 -28 12 c-19 7 -41 8 -70 1 -70 -16 -77 -14 -77 24 0 32 2 34
45 40 59 9 59 29 0 24 -42 -3 -44 -2 -47 26 -2 19 -10 32 -25 37 -13 5 -23 5
-24 1z"/>
</g>
</svg>
