<?xml version="1.0" standalone="no"?>
<!DOCTYPE svg PUBLIC "-//W3C//DTD SVG 20010904//EN"
 "http://www.w3.org/TR/2001/REC-SVG-20010904/DTD/svg10.dtd">
<svg version="1.0" xmlns="http://www.w3.org/2000/svg"
 width="90.000000pt" height="92.000000pt" viewBox="0 0 90.000000 92.000000"
 preserveAspectRatio="xMidYMid meet">
<metadata>
Created by potrace 1.16, written by Peter Selinger 2001-2019
</metadata>
<g transform="translate(0.000000,92.000000) scale(0.100000,-0.100000)"
fill="#000000" stroke="none">
<path d="M265 837 c-27 -37 -35 -42 -64 -39 -32 4 -32 3 -18 -20 13 -19 37
-156 37 -205 0 -8 -12 -13 -35 -13 -24 0 -35 5 -35 15 0 33 -18 12 -45 -51
-25 -59 -26 -67 -12 -81 14 -14 17 -13 36 18 12 19 21 39 21 45 0 7 32 14 78
17 42 4 102 10 132 13 l55 6 3 -56 3 -56 -33 0 c-18 0 -44 -3 -58 -7 l-25 -7
19 29 c18 27 18 29 0 42 -25 18 -44 16 -44 -5 0 -16 -28 -64 -77 -131 l-18
-24 25 13 c14 7 35 22 48 33 18 17 36 21 92 22 l70 0 0 -31 c0 -38 -9 -41
-136 -49 -142 -10 -165 -20 -104 -45 26 -11 45 -10 113 4 50 11 150 19 257 22
205 6 209 7 185 34 -23 25 -62 33 -116 21 -24 -5 -70 -12 -101 -16 l-58 -6 0
34 c0 39 1 39 107 52 56 7 75 21 52 36 -13 9 -106 3 -136 -8 -12 -5 -14 3 -11
33 2 33 -1 41 -19 49 -13 5 -23 13 -23 16 0 9 191 22 248 17 l42 -3 -25 -37
c-14 -21 -22 -38 -18 -38 31 2 138 39 137 49 -1 6 -2 15 -2 20 -1 4 -19 20
-39 34 -33 22 -44 24 -84 18 l-45 -7 23 95 c39 159 38 148 12 164 -21 14 -31
14 -86 0 -72 -18 -73 -33 -2 -33 45 0 49 -2 49 -23 0 -20 -7 -25 -52 -33 -64
-11 -65 -30 -3 -27 32 1 45 -3 45 -12 0 -23 -27 -42 -70 -49 -51 -8 -43 -26
12 -26 39 0 40 -1 33 -27 -4 -16 -9 -30 -11 -32 -6 -6 -323 -35 -328 -30 -3 2
-7 16 -11 30 -6 24 -3 27 36 35 23 5 44 15 47 23 4 11 -4 13 -42 8 -43 -6 -46
-5 -46 17 0 20 6 24 40 30 27 4 40 11 40 22 0 17 -28 16 -72 -1 -15 -6 -18 -2
-18 24 0 29 5 34 55 56 30 14 55 29 55 34 0 10 -39 42 -50 40 -3 0 -19 -19
-35 -42z"/>
<path d="M450 851 c0 -30 -22 -42 -61 -31 l-34 10 25 -20 25 -20 -28 -25 c-33
-29 -22 -32 27 -8 33 15 37 15 54 0 25 -23 42 -21 42 2 0 11 -9 23 -22 27 -22
7 -22 7 7 31 29 23 29 24 11 38 -27 20 -46 19 -46 -4z"/>
<path d="M436 705 c-7 -28 -12 -29 -53 -15 l-28 10 25 -23 26 -22 -29 -24
c-38 -31 -27 -39 19 -12 l37 22 22 -21 c26 -24 31 -25 39 -4 4 11 -1 22 -14
31 -21 15 -21 16 -3 35 17 19 17 20 -2 34 -26 19 -32 18 -39 -11z"/>
<path d="M485 244 c-44 -8 -115 -15 -157 -16 -74 -3 -95 -9 -64 -21 7 -3 19
-35 27 -71 7 -36 15 -70 18 -75 3 -5 30 -5 61 -1 30 4 95 11 143 15 67 5 87
10 83 20 -2 7 9 34 25 59 16 26 29 51 29 56 0 12 -60 51 -75 49 -5 -1 -46 -8
-90 -15z m72 -75 c-3 -22 -7 -42 -9 -45 -11 -10 -199 -27 -207 -19 -4 6 -11
27 -14 47 l-5 36 61 10 c34 5 88 10 121 11 l59 1 -6 -41z"/>
</g>
</svg>
