<?xml version="1.0" standalone="no"?>
<!DOCTYPE svg PUBLIC "-//W3C//DTD SVG 20010904//EN"
 "http://www.w3.org/TR/2001/REC-SVG-20010904/DTD/svg10.dtd">
<svg version="1.0" xmlns="http://www.w3.org/2000/svg"
 width="90.000000pt" height="92.000000pt" viewBox="0 0 90.000000 92.000000"
 preserveAspectRatio="xMidYMid meet">
<metadata>
Created by potrace 1.16, written by Peter Selinger 2001-2019
</metadata>
<g transform="translate(0.000000,92.000000) scale(0.100000,-0.100000)"
fill="#000000" stroke="none">
<path d="M498 815 c-3 -3 1 -24 9 -46 10 -30 13 -85 11 -207 l-3 -167 -72 -3
c-40 -2 -73 -6 -73 -9 0 -4 7 -14 16 -24 8 -9 22 -55 31 -100 19 -109 29 -132
51 -125 9 2 74 10 143 17 119 11 127 13 127 33 0 34 32 149 49 175 15 23 14
26 -13 48 -33 26 -54 28 -141 9 l-63 -14 0 79 0 79 38 1 c64 2 165 23 170 36
2 7 -7 18 -20 24 -23 10 -72 2 -172 -28 -18 -5 -19 -1 -12 67 3 39 11 80 16
90 14 27 3 47 -32 59 -34 12 -52 14 -60 6z m191 -434 c11 -7 13 -23 8 -70 -12
-111 -8 -106 -101 -119 -129 -19 -122 -21 -131 51 -15 122 -24 109 95 128 58
9 107 17 110 18 3 0 11 -3 19 -8z"/>
<path d="M140 718 c0 -6 16 -40 35 -74 19 -35 31 -65 27 -67 -4 -3 -37 -10
-74 -17 -68 -12 -77 -23 -33 -40 18 -7 26 -25 45 -102 13 -51 26 -100 31 -108
10 -20 -39 -40 -97 -40 -24 0 -44 -4 -44 -8 0 -5 14 -21 31 -38 l30 -29 37 23
c20 12 80 43 132 68 52 25 98 50 102 57 12 20 -14 26 -45 11 -16 -9 -31 -13
-34 -10 -3 2 7 34 21 70 34 85 41 122 26 131 -8 5 -2 12 19 21 37 16 39 27 6
42 -19 9 -32 8 -59 -3 -46 -19 -55 -19 -50 3 2 9 1 31 -4 47 -12 44 -102 100
-102 63z m140 -205 c0 -16 -7 -65 -16 -109 -14 -68 -20 -84 -40 -93 -23 -10
-24 -9 -24 37 -1 54 -20 114 -46 143 -21 24 -18 27 37 38 80 16 89 14 89 -16z"/>
</g>
</svg>
