<?xml version="1.0" standalone="no"?>
<!DOCTYPE svg PUBLIC "-//W3C//DTD SVG 20010904//EN"
 "http://www.w3.org/TR/2001/REC-SVG-20010904/DTD/svg10.dtd">
<svg version="1.0" xmlns="http://www.w3.org/2000/svg"
 width="96.000000pt" height="68.000000pt" viewBox="0 0 96.000000 68.000000"
 preserveAspectRatio="xMidYMid meet">
<metadata>
Created by potrace 1.16, written by Peter Selinger 2001-2019
</metadata>
<g transform="translate(0.000000,68.000000) scale(0.100000,-0.100000)"
fill="#000000" stroke="none">
<path d="M551 518 c6 -13 18 -30 26 -39 13 -15 9 -18 -47 -24 -39 -4 -65 -3
-73 4 -10 8 -18 0 -35 -35 -25 -51 -28 -74 -9 -74 17 0 43 28 51 56 6 19 19
23 132 34 68 7 128 10 131 6 4 -4 2 -16 -5 -26 -18 -30 -16 -31 36 -9 65 28
69 35 32 54 -36 19 -66 21 -127 10 -41 -6 -43 -5 -43 17 0 32 -18 48 -52 48
-27 0 -28 -2 -17 -22z"/>
</g>
</svg>
