<?xml version="1.0" standalone="no"?>
<!DOCTYPE svg PUBLIC "-//W3C//DTD SVG 20010904//EN"
 "http://www.w3.org/TR/2001/REC-SVG-20010904/DTD/svg10.dtd">
<svg version="1.0" xmlns="http://www.w3.org/2000/svg"
 width="90.000000pt" height="92.000000pt" viewBox="0 0 90.000000 92.000000"
 preserveAspectRatio="xMidYMid meet">
<metadata>
Created by potrace 1.16, written by Peter Selinger 2001-2019
</metadata>
<g transform="translate(0.000000,92.000000) scale(0.100000,-0.100000)"
fill="#000000" stroke="none">
<path d="M520 867 c0 -15 -49 -68 -97 -104 -26 -20 -39 -23 -64 -18 -31 7 -32
6 -24 -21 16 -62 1 -246 -30 -364 -16 -62 -62 -178 -77 -198 -6 -7 -8 -15 -6
-18 12 -11 80 83 100 138 11 32 24 58 29 58 4 0 22 12 39 26 17 15 33 24 36
21 10 -10 4 -192 -7 -238 -12 -46 -8 -80 11 -109 9 -13 11 -13 20 0 5 8 10 28
10 43 0 15 6 30 13 32 6 3 85 9 175 13 89 5 166 12 170 16 4 4 -2 14 -13 23
-16 11 -37 13 -97 8 l-78 -6 0 29 c0 32 17 41 75 42 35 0 63 15 51 27 -4 4
-32 7 -62 6 -54 -2 -54 -2 -54 28 0 27 3 29 38 29 41 0 71 14 58 27 -4 4 -27
8 -51 7 -40 -1 -44 1 -47 27 -4 27 -3 27 59 34 66 7 79 18 40 36 -17 7 -35 8
-60 1 -35 -10 -37 -9 -37 13 0 27 -15 41 -53 50 -33 9 -34 0 -2 -47 l25 -36
-69 -12 c-37 -7 -73 -11 -79 -9 -7 2 3 23 24 49 l35 45 -21 17 c-31 25 -50 23
-50 -7 0 -32 -30 -89 -71 -135 -28 -32 -30 -33 -25 -10 3 14 11 57 17 95 7 39
15 73 18 77 5 5 252 38 286 38 3 0 5 6 3 13 -3 14 33 77 44 77 20 0 5 32 -22
48 -28 17 -33 18 -113 1 -144 -29 -187 -33 -187 -17 0 8 17 20 38 27 47 18
162 90 162 102 0 6 -16 17 -35 25 -42 17 -45 17 -45 1z m120 -189 c0 -13 -4
-29 -8 -36 -9 -14 -144 -42 -204 -42 -40 0 -40 0 -34 32 3 17 7 33 9 34 4 4
181 32 210 33 22 1 27 -3 27 -21z m-60 -298 c9 -17 7 -22 -15 -30 -15 -6 -42
-10 -60 -10 -31 0 -34 2 -32 28 2 25 6 27 49 30 39 2 49 -1 58 -18z m10 -89
c0 -32 -17 -41 -82 -41 -35 0 -38 2 -38 29 0 29 2 30 53 34 28 2 55 4 60 5 4
1 7 -11 7 -27z m0 -95 c0 -31 -3 -34 -37 -40 -76 -12 -83 -9 -83 28 0 35 0 35
53 39 28 2 55 4 60 5 4 1 7 -13 7 -32z"/>
<path d="M221 778 c-21 -96 -105 -247 -187 -337 -20 -23 -35 -44 -32 -47 7 -7
100 68 126 101 19 24 23 25 28 10 10 -25 -3 -251 -17 -313 -11 -46 -10 -57 5
-90 16 -34 19 -35 31 -19 8 12 15 67 19 155 3 75 8 168 10 205 3 54 0 72 -15
91 -10 13 -14 27 -9 32 4 5 34 56 65 114 l57 104 -27 23 c-14 13 -30 23 -34
23 -4 0 -13 -24 -20 -52z"/>
</g>
</svg>
