<?xml version="1.0" standalone="no"?>
<!DOCTYPE svg PUBLIC "-//W3C//DTD SVG 20010904//EN"
 "http://www.w3.org/TR/2001/REC-SVG-20010904/DTD/svg10.dtd">
<svg version="1.0" xmlns="http://www.w3.org/2000/svg"
 width="96.000000pt" height="68.000000pt" viewBox="0 0 96.000000 68.000000"
 preserveAspectRatio="xMidYMid meet">
<metadata>
Created by potrace 1.16, written by Peter Selinger 2001-2019
</metadata>
<g transform="translate(0.000000,68.000000) scale(0.100000,-0.100000)"
fill="#000000" stroke="none">
<path d="M257 299 c7 -36 -6 -49 -52 -49 -16 0 -37 -5 -45 -10 -11 -7 0 -10
38 -10 51 0 53 -1 46 -22 -16 -53 -33 -85 -63 -112 -39 -37 -40 -51 -2 -32 38
20 79 70 104 126 22 50 32 60 65 60 12 0 22 5 22 10 0 6 -15 10 -33 10 -32 0
-33 2 -29 30 4 28 2 30 -27 30 -29 0 -30 -2 -24 -31z"/>
</g>
</svg>
