<?xml version="1.0" standalone="no"?>
<!DOCTYPE svg PUBLIC "-//W3C//DTD SVG 20010904//EN"
 "http://www.w3.org/TR/2001/REC-SVG-20010904/DTD/svg10.dtd">
<svg version="1.0" xmlns="http://www.w3.org/2000/svg"
 width="96.000000pt" height="68.000000pt" viewBox="0 0 96.000000 68.000000"
 preserveAspectRatio="xMidYMid meet">
<metadata>
Created by potrace 1.16, written by Peter Selinger 2001-2019
</metadata>
<g transform="translate(0.000000,68.000000) scale(0.100000,-0.100000)"
fill="#000000" stroke="none">
<path d="M658 233 c-10 -2 -18 -8 -18 -13 0 -5 -14 -22 -31 -39 -32 -33 -34
-66 -3 -54 10 4 15 2 11 -4 -6 -10 10 -26 53 -54 38 -25 43 -25 46 -6 3 21
-33 48 -54 40 -9 -4 -13 -2 -9 4 4 6 -7 16 -23 23 -17 7 -30 16 -30 21 0 4 20
22 45 39 25 17 43 35 40 41 -4 5 -7 8 -8 8 -1 -1 -10 -3 -19 -6z"/>
<path d="M426 183 c-3 -16 -5 -45 -5 -66 1 -21 -4 -43 -10 -51 -8 -9 -7 -17 2
-30 12 -17 14 -17 36 1 21 17 22 21 9 34 -11 11 -14 30 -11 71 4 58 -11 89
-21 41z"/>
<path d="M540 166 c0 -2 7 -7 16 -10 8 -3 12 -2 9 4 -6 10 -25 14 -25 6z"/>
<path d="M493 88 c-13 -6 -23 -15 -23 -20 0 -13 9 -10 32 12 24 22 23 23 -9 8z"/>
</g>
</svg>
