<?xml version="1.0" standalone="no"?>
<!DOCTYPE svg PUBLIC "-//W3C//DTD SVG 20010904//EN"
 "http://www.w3.org/TR/2001/REC-SVG-20010904/DTD/svg10.dtd">
<svg version="1.0" xmlns="http://www.w3.org/2000/svg"
 width="96.000000pt" height="68.000000pt" viewBox="0 0 96.000000 68.000000"
 preserveAspectRatio="xMidYMid meet">
<metadata>
Created by potrace 1.16, written by Peter Selinger 2001-2019
</metadata>
<g transform="translate(0.000000,68.000000) scale(0.100000,-0.100000)"
fill="#000000" stroke="none">
<path d="M546 573 c4 -10 10 -52 12 -95 4 -86 8 -81 -82 -93 -61 -8 -43 -25
27 -25 28 0 47 -4 45 -10 -6 -20 -73 -96 -112 -129 -33 -27 -36 -32 -16 -26
32 10 84 50 116 89 l26 31 -7 -77 c-3 -43 -10 -90 -16 -106 -13 -39 11 -105
36 -96 21 8 25 31 28 173 l2 124 43 -57 c23 -31 42 -61 42 -66 0 -6 4 -10 9
-10 5 0 12 -8 15 -18 10 -31 48 -45 97 -35 l44 9 -60 33 c-61 34 -188 157
-182 176 2 5 30 13 63 17 73 10 87 15 78 29 -4 8 -30 9 -82 4 -63 -6 -74 -5
-69 7 3 8 8 44 12 80 7 60 5 67 -13 77 -12 6 -30 11 -42 11 -18 0 -20 -4 -14
-17z"/>
<path d="M405 553 c-15 -72 -27 -103 -60 -148 -19 -28 -35 -54 -35 -59 0 -5
-8 -16 -17 -25 -10 -9 -34 -33 -52 -54 -57 -61 -14 -42 50 22 l59 59 0 -81 c0
-45 -5 -100 -10 -121 -7 -30 -5 -44 7 -63 27 -42 38 -11 43 129 4 99 2 135 -8
150 -12 16 -7 29 39 104 51 82 52 87 34 100 -29 21 -44 17 -50 -13z"/>
<path d="M215 475 c-16 -8 -54 -14 -82 -15 -47 0 -71 -12 -43 -22 6 -2 18 -35
27 -73 17 -75 31 -94 50 -69 6 8 33 19 60 22 41 6 48 10 45 28 -1 11 6 42 17
67 l20 47 -22 15 c-25 18 -32 18 -72 0z m18 -67 c-6 -50 -9 -53 -44 -62 -25
-5 -27 -3 -33 36 -4 23 -3 45 1 49 7 6 35 14 70 18 7 1 9 -13 6 -41z"/>
</g>
</svg>
