<?xml version="1.0" standalone="no"?>
<!DOCTYPE svg PUBLIC "-//W3C//DTD SVG 20010904//EN"
 "http://www.w3.org/TR/2001/REC-SVG-20010904/DTD/svg10.dtd">
<svg version="1.0" xmlns="http://www.w3.org/2000/svg"
 width="96.000000pt" height="68.000000pt" viewBox="0 0 96.000000 68.000000"
 preserveAspectRatio="xMidYMid meet">
<metadata>
Created by potrace 1.16, written by Peter Selinger 2001-2019
</metadata>
<g transform="translate(0.000000,68.000000) scale(0.100000,-0.100000)"
fill="#000000" stroke="none">
<path d="M478 521 l4 -78 -51 -7 c-64 -8 -57 -26 10 -26 l50 0 -3 -42 -3 -43
-55 -8 c-132 -20 -126 -18 -106 -29 17 -10 74 -6 131 8 46 11 28 -23 -55 -106
l-79 -80 25 -17 c19 -12 30 -14 43 -6 9 6 69 23 133 38 l117 28 35 -38 c37
-38 56 -39 56 -2 0 37 -28 67 -87 93 -69 30 -72 30 -43 -1 14 -15 20 -29 14
-34 -11 -11 -128 -31 -175 -31 l-34 1 67 60 c59 53 66 63 55 79 -6 11 -9 21
-7 24 3 2 74 10 158 17 83 7 152 16 152 20 0 19 -81 21 -178 6 -57 -10 -108
-15 -113 -11 -11 7 -12 64 0 82 4 8 10 13 12 11 10 -6 109 13 114 21 11 17
-26 24 -77 13 l-48 -10 0 68 c0 69 -6 79 -48 79 -15 0 -17 -10 -14 -79z"/>
<path d="M206 551 c-3 -5 10 -25 30 -45 43 -44 84 -50 84 -11 0 15 -9 30 -22
39 -29 17 -86 28 -92 17z"/>
<path d="M120 413 c1 -15 58 -71 78 -77 49 -16 39 54 -11 72 -38 14 -67 16
-67 5z"/>
<path d="M234 273 c-46 -57 -83 -90 -106 -98 -22 -8 -23 -27 -3 -65 21 -40 38
-38 59 7 10 21 31 58 46 83 36 56 63 120 51 120 -5 0 -26 -21 -47 -47z"/>
</g>
</svg>
