<?xml version="1.0" standalone="no"?>
<!DOCTYPE svg PUBLIC "-//W3C//DTD SVG 20010904//EN"
 "http://www.w3.org/TR/2001/REC-SVG-20010904/DTD/svg10.dtd">
<svg version="1.0" xmlns="http://www.w3.org/2000/svg"
 width="96.000000pt" height="68.000000pt" viewBox="0 0 96.000000 68.000000"
 preserveAspectRatio="xMidYMid meet">
<metadata>
Created by potrace 1.16, written by Peter Selinger 2001-2019
</metadata>
<g transform="translate(0.000000,68.000000) scale(0.100000,-0.100000)"
fill="#000000" stroke="none">
<path d="M630 498 c-19 -5 -64 -8 -98 -6 l-64 4 6 -29 c3 -16 6 -52 6 -79 0
-50 0 -50 29 -43 16 3 64 8 106 9 l78 4 33 62 c31 59 32 64 16 76 -20 16 -63
16 -112 2z m60 -31 c0 -22 -6 -24 -85 -33 -84 -9 -85 -9 -85 13 0 19 7 22 58
28 31 4 62 8 67 10 29 10 45 4 45 -18z m-10 -49 c0 -27 -18 -36 -87 -43 -70
-7 -73 -6 -73 14 0 17 6 21 38 22 29 0 106 12 120 18 1 0 2 -5 2 -11z"/>
</g>
</svg>
