<?xml version="1.0" standalone="no"?>
<!DOCTYPE svg PUBLIC "-//W3C//DTD SVG 20010904//EN"
 "http://www.w3.org/TR/2001/REC-SVG-20010904/DTD/svg10.dtd">
<svg version="1.0" xmlns="http://www.w3.org/2000/svg"
 width="96.000000pt" height="68.000000pt" viewBox="0 0 96.000000 68.000000"
 preserveAspectRatio="xMidYMid meet">
<metadata>
Created by potrace 1.16, written by Peter Selinger 2001-2019
</metadata>
<g transform="translate(0.000000,68.000000) scale(0.100000,-0.100000)"
fill="#000000" stroke="none">
<path d="M307 603 c-3 -5 -8 -22 -12 -40 -9 -46 -73 -140 -139 -206 -31 -31
-56 -59 -56 -62 0 -10 39 15 95 61 l55 44 0 -100 c0 -56 -5 -121 -11 -146 -13
-50 -1 -94 25 -94 19 0 24 33 29 202 4 113 2 139 -11 152 -14 13 -10 22 35 84
28 38 48 74 44 79 -10 15 -49 34 -54 26z"/>
</g>
</svg>
