<?xml version="1.0" standalone="no"?>
<!DOCTYPE svg PUBLIC "-//W3C//DTD SVG 20010904//EN"
 "http://www.w3.org/TR/2001/REC-SVG-20010904/DTD/svg10.dtd">
<svg version="1.0" xmlns="http://www.w3.org/2000/svg"
 width="96.000000pt" height="68.000000pt" viewBox="0 0 96.000000 68.000000"
 preserveAspectRatio="xMidYMid meet">
<metadata>
Created by potrace 1.16, written by Peter Selinger 2001-2019
</metadata>
<g transform="translate(0.000000,68.000000) scale(0.100000,-0.100000)"
fill="#000000" stroke="none">
<path d="M568 147 c-16 -6 -28 -14 -28 -19 0 -13 13 -9 40 12 28 22 27 23 -12
7z"/>
<path d="M514 121 c5 -7 1 -9 -8 -5 -9 3 -16 1 -16 -6 0 -6 -6 -8 -12 -4 -7 4
-6 -1 3 -10 14 -15 19 -16 38 -4 22 14 23 29 1 36 -7 3 -10 0 -6 -7z"/>
</g>
</svg>
