<?xml version="1.0" standalone="no"?>
<!DOCTYPE svg PUBLIC "-//W3C//DTD SVG 20010904//EN"
 "http://www.w3.org/TR/2001/REC-SVG-20010904/DTD/svg10.dtd">
<svg version="1.0" xmlns="http://www.w3.org/2000/svg"
 width="96.000000pt" height="68.000000pt" viewBox="0 0 96.000000 68.000000"
 preserveAspectRatio="xMidYMid meet">
<metadata>
Created by potrace 1.16, written by Peter Selinger 2001-2019
</metadata>
<g transform="translate(0.000000,68.000000) scale(0.100000,-0.100000)"
fill="#000000" stroke="none">
<path d="M555 593 c4 -10 10 -68 13 -129 l4 -111 -32 -7 c-18 -3 -46 -6 -62
-6 -28 0 -29 2 -23 33 4 17 9 39 11 48 5 17 -20 49 -37 49 -5 0 -9 -17 -9 -39
0 -21 -7 -54 -15 -74 -13 -32 -13 -36 4 -51 16 -15 23 -15 62 -2 24 7 56 17
72 20 l27 6 0 -84 c0 -93 -2 -96 -82 -96 -41 0 -44 5 -27 44 14 30 -1 56 -32
56 -15 0 -17 -5 -12 -31 4 -22 0 -38 -16 -60 -18 -24 -20 -33 -10 -50 8 -16
16 -19 32 -14 75 24 214 52 287 57 31 3 35 0 40 -26 8 -46 26 -41 39 11 7 26
16 62 22 78 10 34 -7 55 -46 55 -19 0 -21 -6 -21 -46 1 -52 3 -50 -83 -55
l-46 -3 2 79 c3 88 8 95 66 95 28 0 44 -6 57 -22 l19 -23 14 35 c18 43 41 139
35 145 -2 3 -19 8 -37 11 l-32 7 7 -41 c3 -23 4 -53 0 -67 -6 -23 -10 -25 -67
-25 l-61 0 6 78 c4 42 9 95 12 118 5 37 3 42 -18 47 -12 4 -34 7 -47 7 -18 0
-22 -4 -16 -17z"/>
<path d="M265 448 c-11 -7 -48 -12 -82 -12 -64 0 -74 -5 -49 -25 8 -7 22 -45
31 -86 11 -49 21 -75 30 -75 8 0 16 4 19 9 3 5 32 12 64 16 58 6 58 7 58 40 0
18 8 51 18 74 15 33 17 43 6 56 -15 18 -66 19 -95 3z m21 -75 c-6 -49 -25 -73
-57 -73 -12 0 -20 12 -25 43 -5 23 -8 46 -9 52 0 10 37 22 74 24 23 1 23 -1
17 -46z"/>
</g>
</svg>
