<?xml version="1.0" standalone="no"?>
<!DOCTYPE svg PUBLIC "-//W3C//DTD SVG 20010904//EN"
 "http://www.w3.org/TR/2001/REC-SVG-20010904/DTD/svg10.dtd">
<svg version="1.0" xmlns="http://www.w3.org/2000/svg"
 width="96.000000pt" height="68.000000pt" viewBox="0 0 96.000000 68.000000"
 preserveAspectRatio="xMidYMid meet">
<metadata>
Created by potrace 1.16, written by Peter Selinger 2001-2019
</metadata>
<g transform="translate(0.000000,68.000000) scale(0.100000,-0.100000)"
fill="#000000" stroke="none">
<path d="M577 323 c-4 -3 -7 -41 -7 -84 0 -86 -3 -89 -82 -89 -41 0 -44 5 -27
44 14 29 -1 56 -30 56 -12 0 -16 -9 -16 -39 0 -24 -8 -47 -19 -59 -14 -16 -15
-24 -6 -41 13 -25 15 -25 70 -6 46 16 212 45 261 45 23 0 30 -4 28 -17 -3 -33
1 -43 15 -43 16 0 21 12 35 80 5 25 12 52 15 61 5 11 -1 19 -19 27 -47 22 -55
17 -49 -32 6 -42 6 -43 -26 -50 -18 -3 -50 -6 -72 -6 l-39 0 7 80 c6 75 5 80
-13 80 -11 0 -23 -3 -26 -7z"/>
</g>
</svg>
