<?xml version="1.0" standalone="no"?>
<!DOCTYPE svg PUBLIC "-//W3C//DTD SVG 20010904//EN"
 "http://www.w3.org/TR/2001/REC-SVG-20010904/DTD/svg10.dtd">
<svg version="1.0" xmlns="http://www.w3.org/2000/svg"
 width="96.000000pt" height="68.000000pt" viewBox="0 0 96.000000 68.000000"
 preserveAspectRatio="xMidYMid meet">
<metadata>
Created by potrace 1.16, written by Peter Selinger 2001-2019
</metadata>
<g transform="translate(0.000000,68.000000) scale(0.100000,-0.100000)"
fill="#000000" stroke="none">
<path d="M300 583 c-27 -53 -38 -64 -92 -102 -52 -35 -56 -42 -33 -61 11 -9
35 -7 117 13 88 21 105 23 119 11 8 -8 23 -14 33 -14 13 0 16 8 14 39 -2 21
-6 37 -9 35 -4 -2 -20 3 -35 11 -40 20 -47 19 -40 -9 5 -22 2 -24 -45 -30 -28
-4 -53 -5 -56 -3 -2 3 19 23 47 47 53 45 59 59 34 84 -23 23 -31 20 -54 -21z"/>
<path d="M511 538 c2 -67 18 -112 44 -122 21 -8 143 -8 173 0 12 4 22 12 22
19 0 17 -49 29 -65 15 -7 -6 -39 -10 -72 -8 l-58 3 -3 35 -3 35 78 15 c43 8
77 20 76 25 -4 19 -34 17 -80 -5 -56 -26 -71 -22 -65 19 4 28 2 31 -22 31 -26
0 -26 -1 -25 -62z"/>
<path d="M335 400 c-11 -5 -45 -9 -75 -10 -30 -1 -49 -4 -42 -7 8 -3 12 -28
12 -72 0 -57 -4 -75 -25 -106 -15 -20 -24 -40 -21 -43 8 -8 76 67 76 84 0 11
15 14 64 14 65 0 65 0 60 -27 -7 -39 -13 -45 -37 -37 -21 6 -21 6 2 -20 14
-14 30 -26 37 -26 19 0 32 50 38 152 4 81 3 97 -10 102 -21 8 -55 6 -79 -4z
m47 -35 c4 -21 1 -25 -17 -25 -37 0 -85 -12 -80 -20 3 -4 25 -6 49 -4 31 2 46
-1 50 -11 6 -17 -15 -25 -70 -25 l-45 0 3 48 c3 51 1 49 94 61 7 0 14 -10 16
-24z"/>
<path d="M519 383 c0 -4 0 -44 1 -88 1 -70 4 -83 25 -104 20 -21 34 -24 98
-26 72 -2 137 14 137 33 0 5 -7 24 -16 41 l-16 33 -16 -31 c-17 -36 -43 -45
-114 -39 -52 5 -68 18 -68 54 0 19 10 24 73 39 79 19 100 31 73 41 -9 3 -39
-3 -66 -15 -65 -28 -70 -27 -70 14 0 24 -6 37 -20 45 -11 6 -20 7 -21 3z"/>
<path d="M709 81 c29 -28 59 -51 66 -51 11 0 25 21 25 36 0 10 -79 53 -110 59
l-35 6 54 -50z"/>
<path d="M173 80 c-28 -48 -29 -70 -3 -70 25 0 54 54 46 86 -9 33 -17 30 -43
-16z"/>
<path d="M363 78 c25 -45 49 -56 55 -26 4 19 -43 68 -65 68 -10 0 -7 -11 10
-42z"/>
<path d="M510 115 c0 -11 53 -85 61 -85 32 0 19 62 -16 78 -28 13 -45 15 -45
7z"/>
</g>
</svg>
