<?xml version="1.0" standalone="no"?>
<!DOCTYPE svg PUBLIC "-//W3C//DTD SVG 20010904//EN"
 "http://www.w3.org/TR/2001/REC-SVG-20010904/DTD/svg10.dtd">
<svg version="1.0" xmlns="http://www.w3.org/2000/svg"
 width="96.000000pt" height="68.000000pt" viewBox="0 0 96.000000 68.000000"
 preserveAspectRatio="xMidYMid meet">
<metadata>
Created by potrace 1.16, written by Peter Selinger 2001-2019
</metadata>
<g transform="translate(0.000000,68.000000) scale(0.100000,-0.100000)"
fill="#000000" stroke="none">
<path d="M660 465 c-36 -7 -96 -13 -135 -14 l-70 -1 0 -117 c0 -65 -4 -134 -8
-153 -6 -25 -4 -40 7 -55 8 -11 17 -17 21 -14 3 4 10 73 14 153 4 81 12 151
17 155 10 10 158 31 216 31 37 0 38 -1 39 -37 1 -35 0 -184 -1 -242 0 -22 -3
-23 -47 -18 l-48 5 44 -39 c80 -71 94 -53 102 135 3 78 9 155 13 172 7 26 4
32 -19 42 -31 14 -57 14 -145 -3z"/>
</g>
</svg>
