<?xml version="1.0" standalone="no"?>
<!DOCTYPE svg PUBLIC "-//W3C//DTD SVG 20010904//EN"
 "http://www.w3.org/TR/2001/REC-SVG-20010904/DTD/svg10.dtd">
<svg version="1.0" xmlns="http://www.w3.org/2000/svg"
 width="96.000000pt" height="68.000000pt" viewBox="0 0 96.000000 68.000000"
 preserveAspectRatio="xMidYMid meet">
<metadata>
Created by potrace 1.16, written by Peter Selinger 2001-2019
</metadata>
<g transform="translate(0.000000,68.000000) scale(0.100000,-0.100000)"
fill="#000000" stroke="none">
<path d="M574 551 c7 -10 36 -145 32 -148 -1 -1 -45 -7 -97 -13 -51 -5 -107
-13 -124 -16 -29 -6 -29 -7 -7 -15 20 -8 123 1 204 17 25 5 28 2 38 -38 6 -24
20 -72 31 -108 l20 -65 -40 -37 c-46 -44 -32 -52 18 -10 l34 28 57 -58 c50
-50 102 -80 115 -66 4 4 0 24 -23 108 -8 29 -10 31 -11 10 -2 -47 -15 -55 -49
-30 -55 41 -60 62 -27 131 31 63 28 90 -9 97 -12 3 -16 -4 -16 -26 0 -16 -5
-44 -11 -62 l-12 -33 -13 24 c-8 13 -18 42 -24 64 -6 22 -13 47 -16 56 -4 14
8 18 71 24 41 4 75 10 75 15 0 14 -43 20 -97 13 -63 -7 -72 4 -55 75 7 33 7
51 0 59 -12 15 -72 18 -64 4z"/>
<path d="M680 531 c0 -13 59 -61 75 -61 24 0 25 29 2 44 -29 18 -77 29 -77 17z"/>
</g>
</svg>
