<?xml version="1.0" standalone="no"?>
<!DOCTYPE svg PUBLIC "-//W3C//DTD SVG 20010904//EN"
 "http://www.w3.org/TR/2001/REC-SVG-20010904/DTD/svg10.dtd">
<svg version="1.0" xmlns="http://www.w3.org/2000/svg"
 width="96.000000pt" height="68.000000pt" viewBox="0 0 96.000000 68.000000"
 preserveAspectRatio="xMidYMid meet">
<metadata>
Created by potrace 1.16, written by Peter Selinger 2001-2019
</metadata>
<g transform="translate(0.000000,68.000000) scale(0.100000,-0.100000)"
fill="#000000" stroke="none">
<path d="M420 526 l0 -64 -40 -7 c-45 -8 -44 -25 1 -25 26 0 30 -3 27 -22 -2
-18 -12 -24 -48 -30 -26 -5 -48 -4 -54 2 -17 17 -22 12 -35 -31 -16 -54 0 -73
25 -31 14 24 27 32 63 38 25 4 53 9 61 10 8 2 39 7 69 10 51 7 53 6 46 -14 -8
-26 -7 -26 40 -7 29 13 34 19 25 30 -17 20 -61 27 -108 17 -46 -11 -52 -9 -45
18 3 13 21 22 55 30 31 8 46 16 40 22 -12 12 -42 13 -66 3 -17 -7 -18 -5 -12
16 20 62 19 75 -9 87 -14 7 -28 12 -30 12 -3 0 -5 -29 -5 -64z"/>
<path d="M180 522 c0 -15 66 -72 82 -72 22 0 31 15 23 39 -7 24 -105 55 -105
33z"/>
<path d="M657 433 c-8 -107 -11 -113 -58 -113 -21 0 -39 -4 -39 -10 0 -5 18
-10 39 -10 l40 0 -11 -32 c-6 -18 -15 -37 -19 -43 -5 -5 -9 -17 -9 -27 0 -9
-28 -47 -61 -83 -63 -67 -62 -84 3 -40 47 32 101 114 125 187 18 57 19 58 56
58 35 0 37 -2 37 -31 0 -50 -29 -162 -49 -189 -17 -22 -22 -23 -46 -12 -15 7
-29 11 -31 10 -1 -2 10 -18 25 -37 20 -24 33 -32 47 -27 30 9 70 85 84 161 7
39 18 85 26 102 12 30 11 34 -8 44 -13 7 -40 9 -70 5 l-49 -7 7 48 c15 87 12
118 -12 121 -19 3 -21 -3 -27 -75z"/>
<path d="M114 388 c-10 -16 61 -82 80 -75 22 9 20 53 -1 62 -46 18 -73 23 -79
13z"/>
<path d="M420 320 c-14 -4 -42 -8 -63 -9 -26 -1 -37 -5 -34 -13 4 -13 38 -14
95 -2 18 3 32 2 32 -3 0 -12 -33 -43 -47 -43 -5 0 -8 -13 -5 -28 3 -27 1 -29
-48 -40 -28 -7 -60 -12 -71 -12 -10 0 -19 -4 -19 -10 0 -17 50 -23 90 -11 52
16 60 14 60 -11 0 -30 -11 -45 -34 -49 -18 -4 -17 -6 7 -34 26 -29 27 -29 42
-11 9 12 15 41 15 77 l0 56 53 22 c49 20 50 21 14 16 -21 -4 -45 -9 -53 -12
-10 -4 -14 2 -14 20 0 21 9 30 48 47 l47 21 -24 20 c-24 20 -49 22 -91 9z"/>
<path d="M203 233 c-9 -16 -32 -45 -51 -65 -32 -34 -34 -40 -26 -70 6 -21 16
-33 27 -33 14 0 26 24 52 98 33 95 32 124 -2 70z"/>
</g>
</svg>
