<?xml version="1.0" standalone="no"?>
<!DOCTYPE svg PUBLIC "-//W3C//DTD SVG 20010904//EN"
 "http://www.w3.org/TR/2001/REC-SVG-20010904/DTD/svg10.dtd">
<svg version="1.0" xmlns="http://www.w3.org/2000/svg"
 width="96.000000pt" height="68.000000pt" viewBox="0 0 96.000000 68.000000"
 preserveAspectRatio="xMidYMid meet">
<metadata>
Created by potrace 1.16, written by Peter Selinger 2001-2019
</metadata>
<g transform="translate(0.000000,68.000000) scale(0.100000,-0.100000)"
fill="#000000" stroke="none">
<path d="M213 528 c3 -13 9 -45 13 -72 8 -59 0 -66 -75 -66 -51 0 -53 -1 -39
-17 9 -10 19 -34 23 -53 13 -61 21 -69 60 -63 l35 6 0 -46 c0 -59 25 -55 33 4
7 50 6 49 56 56 22 3 38 10 35 15 -3 5 6 27 20 48 14 22 26 43 26 48 0 17 -48
30 -89 25 -38 -5 -41 -4 -41 18 0 13 5 40 10 59 8 29 7 37 -7 48 -9 6 -28 12
-41 12 -20 0 -23 -4 -19 -22z m111 -146 c11 -18 -10 -75 -32 -83 -21 -8 -22
-6 -22 35 0 23 3 46 7 49 9 9 41 9 47 -1z m-98 -54 c-1 -36 -5 -44 -22 -46
-16 -2 -23 4 -28 25 -4 15 -9 36 -12 45 -4 12 2 18 23 20 39 5 40 4 39 -44z"/>
</g>
</svg>
