<?xml version="1.0" standalone="no"?>
<!DOCTYPE svg PUBLIC "-//W3C//DTD SVG 20010904//EN"
 "http://www.w3.org/TR/2001/REC-SVG-20010904/DTD/svg10.dtd">
<svg version="1.0" xmlns="http://www.w3.org/2000/svg"
 width="96.000000pt" height="68.000000pt" viewBox="0 0 96.000000 68.000000"
 preserveAspectRatio="xMidYMid meet">
<metadata>
Created by potrace 1.16, written by Peter Selinger 2001-2019
</metadata>
<g transform="translate(0.000000,68.000000) scale(0.100000,-0.100000)"
fill="#000000" stroke="none">
<path d="M670 445 c-36 -7 -85 -13 -110 -14 l-45 -1 0 -100 c0 -89 2 -100 18
-100 9 0 17 6 17 14 0 9 18 16 58 20 31 4 74 9 95 12 33 5 37 3 37 -15 0 -16
6 -21 25 -21 24 0 25 2 25 69 0 38 3 82 6 98 5 27 3 31 -27 42 -17 6 -32 10
-33 10 -1 -1 -30 -7 -66 -14z m68 -50 c3 -30 2 -30 -45 -30 -26 0 -67 -4 -90
-8 l-43 -9 0 31 c0 27 4 31 38 36 20 4 44 8 52 10 8 2 31 2 50 2 31 -2 35 -5
38 -32z m2 -76 c0 -24 -4 -30 -15 -25 -9 3 -50 1 -91 -5 -41 -7 -77 -9 -80 -6
-3 2 -2 16 1 30 6 24 12 26 68 30 34 2 74 4 90 5 24 2 27 -1 27 -29z"/>
</g>
</svg>
