<?xml version="1.0" standalone="no"?>
<!DOCTYPE svg PUBLIC "-//W3C//DTD SVG 20010904//EN"
 "http://www.w3.org/TR/2001/REC-SVG-20010904/DTD/svg10.dtd">
<svg version="1.0" xmlns="http://www.w3.org/2000/svg"
 width="96.000000pt" height="68.000000pt" viewBox="0 0 96.000000 68.000000"
 preserveAspectRatio="xMidYMid meet">
<metadata>
Created by potrace 1.16, written by Peter Selinger 2001-2019
</metadata>
<g transform="translate(0.000000,68.000000) scale(0.100000,-0.100000)"
fill="#000000" stroke="none">
<path d="M297 573 c-4 -3 -7 -18 -7 -33 0 -42 -58 -145 -128 -227 -55 -64 -59
-72 -33 -59 52 27 98 74 147 149 26 40 50 76 54 80 4 5 28 -10 54 -32 50 -44
73 -51 83 -26 8 23 -23 52 -77 70 -41 14 -47 19 -42 37 7 28 -33 60 -51 41z"/>
</g>
</svg>
