<?xml version="1.0" standalone="no"?>
<!DOCTYPE svg PUBLIC "-//W3C//DTD SVG 20010904//EN"
 "http://www.w3.org/TR/2001/REC-SVG-20010904/DTD/svg10.dtd">
<svg version="1.0" xmlns="http://www.w3.org/2000/svg"
 width="96.000000pt" height="68.000000pt" viewBox="0 0 96.000000 68.000000"
 preserveAspectRatio="xMidYMid meet">
<metadata>
Created by potrace 1.16, written by Peter Selinger 2001-2019
</metadata>
<g transform="translate(0.000000,68.000000) scale(0.100000,-0.100000)"
fill="#000000" stroke="none">
<path d="M210 480 c30 -38 62 -51 74 -31 16 26 -38 71 -84 71 -20 0 -20 -2 10
-40z"/>
<path d="M110 372 c0 -18 59 -64 74 -59 23 9 20 33 -6 51 -24 17 -68 22 -68 8z"/>
<path d="M228 257 c-15 -23 -40 -55 -57 -71 -35 -34 -39 -64 -13 -96 14 -18
20 -20 28 -9 10 13 84 202 84 214 0 16 -18 0 -42 -38z"/>
</g>
</svg>
