<?xml version="1.0" standalone="no"?>
<!DOCTYPE svg PUBLIC "-//W3C//DTD SVG 20010904//EN"
 "http://www.w3.org/TR/2001/REC-SVG-20010904/DTD/svg10.dtd">
<svg version="1.0" xmlns="http://www.w3.org/2000/svg"
 width="96.000000pt" height="68.000000pt" viewBox="0 0 96.000000 68.000000"
 preserveAspectRatio="xMidYMid meet">
<metadata>
Created by potrace 1.16, written by Peter Selinger 2001-2019
</metadata>
<g transform="translate(0.000000,68.000000) scale(0.100000,-0.100000)"
fill="#000000" stroke="none">
<path d="M228 454 c6 -181 -16 -267 -88 -342 -36 -38 -33 -52 6 -32 38 21 73
60 98 108 l22 43 24 -26 c25 -26 45 -32 55 -15 13 21 -7 49 -42 60 -32 11 -35
15 -29 42 3 17 6 43 6 59 0 22 7 32 33 44 58 28 72 42 57 60 -18 22 -31 19
-58 -12 l-23 -28 5 73 c5 71 4 73 -20 82 -50 19 -50 19 -46 -116z"/>
<path d="M629 553 c0 -5 0 -45 1 -90 l1 -83 -30 0 c-17 0 -31 -4 -31 -10 0 -5
12 -10 26 -10 23 0 25 -3 20 -27 -9 -39 -35 -72 -85 -110 -49 -38 -40 -42 23
-12 26 12 56 37 71 60 15 21 31 39 34 39 6 0 44 -43 86 -94 6 -7 20 -18 33
-25 20 -11 22 -10 22 16 -1 38 -21 62 -83 99 -66 39 -67 57 -4 66 27 4 52 9
55 12 16 17 -37 25 -76 12 -22 -7 -22 -7 -17 55 4 35 9 67 11 71 9 13 -16 38
-37 38 -11 0 -19 -3 -20 -7z"/>
<path d="M440 500 c-7 -31 -30 -73 -61 -114 -27 -36 -49 -67 -49 -70 0 -3 11
0 25 6 20 9 28 8 43 -5 10 -10 24 -17 30 -17 21 0 13 20 -13 32 -29 13 -31 21
-10 38 12 10 19 10 27 2 7 -7 21 -12 33 -12 19 1 19 1 1 15 -10 8 -23 16 -29
18 -6 2 -6 11 2 25 17 31 81 32 81 1 0 -29 -51 -115 -102 -174 -44 -50 -39
-51 21 -7 31 23 121 149 121 170 0 5 7 15 15 22 33 27 2 42 -64 30 -47 -8 -52
2 -20 37 18 18 20 25 9 38 -25 31 -47 18 -60 -35z"/>
<path d="M720 481 c0 -13 61 -40 77 -34 21 8 15 23 -13 33 -32 12 -64 13 -64
1z"/>
<path d="M154 404 c-3 -11 -10 -31 -16 -46 -13 -35 -4 -58 22 -58 39 0 49 82
14 111 -11 9 -15 7 -20 -7z"/>
<path d="M351 114 c-27 -44 -27 -74 -2 -74 23 0 52 58 44 88 -8 31 -18 28 -42
-14z"/>
<path d="M729 133 c5 -10 26 -34 46 -53 30 -29 37 -32 45 -20 15 23 13 26 -27
59 -42 35 -80 43 -64 14z"/>
<path d="M480 135 c0 -21 32 -75 44 -75 22 0 20 43 -2 63 -18 16 -42 23 -42
12z"/>
<path d="M600 134 c0 -18 34 -74 44 -71 19 6 19 50 0 64 -18 13 -44 18 -44 7z"/>
</g>
</svg>
