<?xml version="1.0" standalone="no"?>
<!DOCTYPE svg PUBLIC "-//W3C//DTD SVG 20010904//EN"
 "http://www.w3.org/TR/2001/REC-SVG-20010904/DTD/svg10.dtd">
<svg version="1.0" xmlns="http://www.w3.org/2000/svg"
 width="96.000000pt" height="68.000000pt" viewBox="0 0 96.000000 68.000000"
 preserveAspectRatio="xMidYMid meet">
<metadata>
Created by potrace 1.16, written by Peter Selinger 2001-2019
</metadata>
<g transform="translate(0.000000,68.000000) scale(0.100000,-0.100000)"
fill="#000000" stroke="none">
<path d="M588 273 c-23 -3 -38 -9 -38 -18 0 -10 9 -11 38 -4 20 5 49 9 65 9
25 0 27 -3 27 -37 -1 -49 -33 -119 -58 -127 -11 -4 -37 0 -57 8 l-36 15 20
-28 c32 -45 47 -53 80 -46 39 8 65 42 86 108 9 29 21 62 27 75 22 44 -27 58
-154 45z"/>
</g>
</svg>
