<?xml version="1.0" standalone="no"?>
<!DOCTYPE svg PUBLIC "-//W3C//DTD SVG 20010904//EN"
 "http://www.w3.org/TR/2001/REC-SVG-20010904/DTD/svg10.dtd">
<svg version="1.0" xmlns="http://www.w3.org/2000/svg"
 width="90.000000pt" height="92.000000pt" viewBox="0 0 90.000000 92.000000"
 preserveAspectRatio="xMidYMid meet">
<metadata>
Created by potrace 1.16, written by Peter Selinger 2001-2019
</metadata>
<g transform="translate(0.000000,92.000000) scale(0.100000,-0.100000)"
fill="#000000" stroke="none">
<path d="M596 852 c-2 -4 -1 -14 5 -22 5 -8 9 -43 9 -76 l0 -61 -37 -7 c-21
-3 -50 -6 -65 -6 -26 0 -28 3 -28 45 0 34 -5 47 -19 55 -42 22 -49 14 -44 -49
l6 -60 -38 -7 c-35 -6 -37 -8 -20 -20 10 -8 29 -14 40 -14 21 0 22 -5 28 -142
3 -78 4 -144 2 -146 -2 -3 -36 -7 -75 -10 -38 -2 -70 -9 -70 -14 0 -5 15 -15
33 -22 27 -12 42 -12 97 0 36 8 150 17 253 21 103 3 190 10 193 14 2 5 -8 16
-22 26 -28 18 -74 21 -138 9 l-36 -7 0 150 0 151 39 6 c21 3 44 10 52 15 25
16 -19 40 -59 33 l-34 -7 4 62 c2 53 0 65 -16 77 -22 15 -52 19 -60 6z m14
-214 c0 -7 3 -22 6 -34 5 -19 0 -22 -38 -27 -24 -4 -55 -9 -70 -13 -27 -6 -28
-5 -28 34 0 45 -7 41 108 50 12 1 22 -4 22 -10z m10 -127 c0 -38 -1 -40 -32
-38 -18 0 -50 -3 -70 -7 l-38 -8 0 36 c0 35 1 36 38 37 29 1 85 11 100 18 1 0
2 -17 2 -38z m0 -110 c0 -46 -9 -51 -86 -51 l-54 0 0 39 c0 40 0 40 43 44 103
9 97 11 97 -32z"/>
<path d="M170 832 c0 -5 20 -31 44 -57 51 -54 81 -58 81 -10 0 24 -6 33 -35
46 -46 22 -90 32 -90 21z"/>
<path d="M215 643 c-22 -8 -73 -20 -112 -26 -40 -6 -73 -15 -73 -19 0 -4 12
-14 28 -22 24 -13 35 -12 102 10 90 28 94 29 86 7 -14 -36 -124 -178 -185
-240 -35 -35 -61 -66 -59 -68 8 -8 103 57 151 103 l47 46 1 -39 c2 -86 -2
-142 -13 -187 -10 -41 -9 -53 6 -84 29 -62 40 -30 46 131 3 79 8 147 12 150 3
4 16 -7 29 -24 26 -36 44 -40 52 -10 7 25 -22 56 -60 65 -65 16 -62 34 19 120
26 28 48 56 48 61 0 15 -46 43 -67 42 -10 -1 -36 -8 -58 -16z"/>
<path d="M422 247 c-7 -19 -38 -62 -69 -97 -46 -50 -52 -61 -33 -55 29 9 122
79 163 123 l29 30 -23 16 c-35 24 -54 20 -67 -17z"/>
<path d="M610 265 c0 -11 124 -164 137 -169 22 -9 33 2 33 32 0 37 -23 67 -73
96 -45 26 -97 48 -97 41z"/>
</g>
</svg>
