<?xml version="1.0" standalone="no"?>
<!DOCTYPE svg PUBLIC "-//W3C//DTD SVG 20010904//EN"
 "http://www.w3.org/TR/2001/REC-SVG-20010904/DTD/svg10.dtd">
<svg version="1.0" xmlns="http://www.w3.org/2000/svg"
 width="96.000000pt" height="68.000000pt" viewBox="0 0 96.000000 68.000000"
 preserveAspectRatio="xMidYMid meet">
<metadata>
Created by potrace 1.16, written by Peter Selinger 2001-2019
</metadata>
<g transform="translate(0.000000,68.000000) scale(0.100000,-0.100000)"
fill="#000000" stroke="none">
<path d="M420 509 c-25 -4 -58 -5 -75 -2 -29 5 -29 5 -14 -13 9 -11 21 -32 26
-49 11 -33 8 -32 116 -20 32 4 56 9 53 13 -4 3 5 18 20 33 26 27 26 27 6 38
-23 12 -65 12 -132 0z m75 -19 c12 -19 -15 -39 -61 -46 -50 -7 -49 -8 -58 23
-6 18 -2 22 21 26 55 8 92 7 98 -3z"/>
</g>
</svg>
