<?xml version="1.0" standalone="no"?>
<!DOCTYPE svg PUBLIC "-//W3C//DTD SVG 20010904//EN"
 "http://www.w3.org/TR/2001/REC-SVG-20010904/DTD/svg10.dtd">
<svg version="1.0" xmlns="http://www.w3.org/2000/svg"
 width="96.000000pt" height="68.000000pt" viewBox="0 0 96.000000 68.000000"
 preserveAspectRatio="xMidYMid meet">
<metadata>
Created by potrace 1.16, written by Peter Selinger 2001-2019
</metadata>
<g transform="translate(0.000000,68.000000) scale(0.100000,-0.100000)"
fill="#000000" stroke="none">
<path d="M435 631 c-3 -10 -28 -40 -55 -65 -44 -41 -54 -46 -95 -46 l-47 0 25
-29 c14 -17 27 -49 32 -77 10 -71 21 -83 69 -76 39 5 40 4 26 -14 -54 -69 -88
-84 -186 -84 -42 0 -74 -4 -74 -10 0 -16 47 -23 113 -16 34 4 101 9 150 12
l87 6 1 -63 c0 -35 4 -84 8 -109 l8 -45 16 37 c11 24 17 64 17 113 l0 75 145
0 c80 0 145 4 145 9 0 27 -33 34 -139 28 -60 -4 -115 -8 -123 -9 -8 -2 -14 9
-16 28 -2 22 -10 34 -25 39 -19 7 -18 8 13 14 19 4 44 3 54 -2 16 -8 24 -4 43
19 13 16 23 33 23 37 0 5 12 33 26 63 20 42 23 59 15 67 -15 15 -120 15 -226
0 -44 -7 -81 -11 -82 -9 -1 1 31 21 72 45 41 23 75 44 75 46 0 8 -58 35 -74
35 -8 0 -17 -9 -21 -19z m185 -141 c0 -27 -3 -30 -32 -30 -18 0 -50 -3 -72 -7
-36 -6 -38 -5 -31 16 4 13 2 28 -5 36 -11 13 -2 15 64 15 l76 0 0 -30z m-192
-18 c-3 -34 -4 -35 -50 -38 -44 -4 -47 -2 -57 27 -9 27 -8 31 12 38 12 5 39 9
60 9 37 0 38 -1 35 -36z m177 -54 c-11 -35 -19 -39 -84 -45 -56 -4 -61 -3 -61
15 0 35 20 42 128 50 20 2 22 -1 17 -20z m-185 -15 c0 -31 -16 -45 -46 -41
-23 2 -30 9 -32 31 -3 26 -1 27 37 27 32 0 41 -4 41 -17z m60 -109 c0 -31 -3
-34 -29 -34 -16 0 -44 -3 -62 -7 l-34 -6 49 51 c55 57 76 56 76 -4z"/>
</g>
</svg>
