<?xml version="1.0" standalone="no"?>
<!DOCTYPE svg PUBLIC "-//W3C//DTD SVG 20010904//EN"
 "http://www.w3.org/TR/2001/REC-SVG-20010904/DTD/svg10.dtd">
<svg version="1.0" xmlns="http://www.w3.org/2000/svg"
 width="90.000000pt" height="92.000000pt" viewBox="0 0 90.000000 92.000000"
 preserveAspectRatio="xMidYMid meet">
<metadata>
Created by potrace 1.16, written by Peter Selinger 2001-2019
</metadata>
<g transform="translate(0.000000,92.000000) scale(0.100000,-0.100000)"
fill="#000000" stroke="none">
<path d="M380 854 c0 -14 -8 -42 -17 -62 -24 -51 -164 -195 -248 -255 -55 -39
-64 -48 -40 -43 44 10 154 78 211 129 27 25 69 72 94 106 25 33 48 60 52 61 3
0 51 -49 105 -108 113 -125 147 -152 191 -152 47 0 135 21 125 30 -4 5 -45 22
-90 39 -44 18 -100 44 -122 59 -81 55 -191 154 -191 172 0 20 -35 50 -57 50
-7 0 -13 -12 -13 -26z"/>
<path d="M420 643 c-36 -8 -74 -19 -85 -23 -19 -7 -18 -9 7 -19 16 -6 43 -8
60 -5 98 17 138 26 138 33 0 7 -47 33 -53 30 -1 -1 -31 -8 -67 -16z"/>
<path d="M503 554 c-108 -19 -255 -34 -285 -27 -32 6 -34 1 -14 -30 8 -12 17
-47 21 -77 9 -67 22 -95 38 -82 21 16 294 37 310 23 19 -15 26 -4 61 87 l28
73 -23 25 c-25 27 -33 27 -136 8z m86 -56 c-1 -18 -4 -46 -8 -61 -6 -27 -9
-29 -78 -33 l-73 -4 0 47 c0 62 7 71 55 76 105 10 105 10 104 -25z m-198 -5
c2 -26 -2 -97 -6 -101 -1 -2 -28 -6 -59 -9 l-56 -6 0 61 0 61 48 4 c26 2 53 4
60 5 6 1 13 -6 13 -15z"/>
<path d="M500 486 c0 -7 -9 -25 -21 -40 -23 -30 -19 -32 19 -11 54 29 57 32
43 49 -16 20 -41 21 -41 2z"/>
<path d="M307 440 c20 -34 53 -41 53 -10 0 20 -27 40 -55 40 -15 0 -14 -3 2
-30z"/>
<path d="M440 318 c-47 -12 -93 -17 -123 -14 l-47 5 7 -27 c8 -25 9 -95 3
-178 -2 -44 24 -80 34 -47 5 16 19 21 68 27 108 11 116 9 134 -26 l17 -32 25
29 c23 27 24 33 18 110 -4 49 -3 93 3 109 10 24 8 28 -22 46 -17 11 -34 19
-37 19 -3 -1 -39 -10 -80 -21z m88 -64 c3 -31 2 -32 -40 -30 -24 0 -71 -3
-105 -8 -63 -8 -63 -8 -63 17 0 14 5 29 12 33 21 13 81 22 138 21 54 -2 55 -3
58 -33z m2 -84 c0 -17 -6 -33 -12 -35 -7 -3 -55 -8 -105 -13 l-93 -8 0 32 0
32 88 7 c48 3 92 8 97 10 22 7 25 4 25 -25z"/>
</g>
</svg>
