<?xml version="1.0" standalone="no"?>
<!DOCTYPE svg PUBLIC "-//W3C//DTD SVG 20010904//EN"
 "http://www.w3.org/TR/2001/REC-SVG-20010904/DTD/svg10.dtd">
<svg version="1.0" xmlns="http://www.w3.org/2000/svg"
 width="96.000000pt" height="68.000000pt" viewBox="0 0 96.000000 68.000000"
 preserveAspectRatio="xMidYMid meet">
<metadata>
Created by potrace 1.16, written by Peter Selinger 2001-2019
</metadata>
<g transform="translate(0.000000,68.000000) scale(0.100000,-0.100000)"
fill="#000000" stroke="none">
<path d="M245 563 c12 -43 14 -171 4 -243 -11 -80 -39 -137 -90 -188 -44 -44
-50 -58 -18 -41 38 20 106 89 119 119 7 17 15 30 19 30 3 0 19 -16 34 -35 31
-39 57 -46 57 -15 0 13 -12 28 -31 38 -62 34 -60 32 -48 95 l12 59 63 31 c60
29 63 32 47 49 -23 26 -31 23 -74 -24 l-38 -43 0 50 c0 28 3 67 8 88 8 31 6
39 -9 47 -10 6 -28 10 -40 10 -19 0 -21 -4 -15 -27z"/>
<path d="M140 378 c0 -17 41 -68 55 -68 23 0 27 32 6 54 -22 23 -61 32 -61 14z"/>
</g>
</svg>
