<?xml version="1.0" standalone="no"?>
<!DOCTYPE svg PUBLIC "-//W3C//DTD SVG 20010904//EN"
 "http://www.w3.org/TR/2001/REC-SVG-20010904/DTD/svg10.dtd">
<svg version="1.0" xmlns="http://www.w3.org/2000/svg"
 width="96.000000pt" height="68.000000pt" viewBox="0 0 96.000000 68.000000"
 preserveAspectRatio="xMidYMid meet">
<metadata>
Created by potrace 1.16, written by Peter Selinger 2001-2019
</metadata>
<g transform="translate(0.000000,68.000000) scale(0.100000,-0.100000)"
fill="#000000" stroke="none">
<path d="M738 375 c-2 -3 -75 -12 -162 -20 -115 -11 -163 -12 -177 -4 -29 15
-35 4 -21 -35 7 -18 13 -70 14 -115 1 -54 6 -85 15 -93 7 -6 16 -8 19 -5 4 3
6 53 5 110 l-2 104 38 7 c21 3 93 9 159 13 119 6 122 5 129 -16 8 -25 -3 -144
-17 -180 -9 -24 -15 -24 -78 -5 -22 7 -20 2 17 -36 38 -40 43 -43 67 -32 36
16 53 56 64 152 5 47 13 94 16 105 5 15 0 24 -23 38 -29 17 -53 22 -63 12z"/>
</g>
</svg>
