<?xml version="1.0" standalone="no"?>
<!DOCTYPE svg PUBLIC "-//W3C//DTD SVG 20010904//EN"
 "http://www.w3.org/TR/2001/REC-SVG-20010904/DTD/svg10.dtd">
<svg version="1.0" xmlns="http://www.w3.org/2000/svg"
 width="96.000000pt" height="68.000000pt" viewBox="0 0 96.000000 68.000000"
 preserveAspectRatio="xMidYMid meet">
<metadata>
Created by potrace 1.16, written by Peter Selinger 2001-2019
</metadata>
<g transform="translate(0.000000,68.000000) scale(0.100000,-0.100000)"
fill="#000000" stroke="none">
<path d="M276 223 c-28 -8 -67 -13 -87 -11 -31 3 -36 1 -26 -11 7 -7 19 -34
28 -60 13 -36 20 -45 35 -42 10 2 40 5 67 8 39 4 47 8 47 25 0 11 8 33 18 50
16 28 16 30 -2 44 -23 16 -18 17 -80 -3z m34 -34 c0 -37 -19 -59 -51 -59 -23
0 -32 6 -40 26 -11 32 -10 34 33 44 52 12 58 11 58 -11z"/>
</g>
</svg>
