<?xml version="1.0" standalone="no"?>
<!DOCTYPE svg PUBLIC "-//W3C//DTD SVG 20010904//EN"
 "http://www.w3.org/TR/2001/REC-SVG-20010904/DTD/svg10.dtd">
<svg version="1.0" xmlns="http://www.w3.org/2000/svg"
 width="96.000000pt" height="68.000000pt" viewBox="0 0 96.000000 68.000000"
 preserveAspectRatio="xMidYMid meet">
<metadata>
Created by potrace 1.16, written by Peter Selinger 2001-2019
</metadata>
<g transform="translate(0.000000,68.000000) scale(0.100000,-0.100000)"
fill="#000000" stroke="none">
<path d="M530 590 c6 -11 10 -44 8 -73 l-3 -52 -37 -3 c-53 -4 -47 -22 7 -22
l45 0 0 -40 c0 -33 3 -40 20 -40 17 0 20 7 20 44 0 45 0 45 43 53 51 10 47 29
-6 26 l-38 -2 7 56 c7 61 0 73 -49 73 -25 0 -27 -2 -17 -20z"/>
</g>
</svg>
