<?xml version="1.0" standalone="no"?>
<!DOCTYPE svg PUBLIC "-//W3C//DTD SVG 20010904//EN"
 "http://www.w3.org/TR/2001/REC-SVG-20010904/DTD/svg10.dtd">
<svg version="1.0" xmlns="http://www.w3.org/2000/svg"
 width="96.000000pt" height="68.000000pt" viewBox="0 0 96.000000 68.000000"
 preserveAspectRatio="xMidYMid meet">
<metadata>
Created by potrace 1.16, written by Peter Selinger 2001-2019
</metadata>
<g transform="translate(0.000000,68.000000) scale(0.100000,-0.100000)"
fill="#000000" stroke="none">
<path d="M247 584 c-2 -3 -2 -25 1 -50 4 -42 -12 -148 -27 -173 -4 -6 -34 -13
-66 -15 -33 -1 -61 -8 -63 -14 -6 -19 38 -34 80 -28 36 6 38 5 28 -13 -20 -38
-12 -60 30 -81 22 -11 40 -25 40 -30 0 -5 -25 -26 -55 -46 -60 -40 -71 -58
-27 -48 30 8 67 29 98 56 20 18 21 17 44 -7 13 -14 34 -25 47 -25 34 0 32 44
-4 67 -16 9 -30 18 -32 20 -2 1 3 20 12 40 9 21 21 57 27 79 7 29 17 43 31 47
27 7 19 20 -26 41 -39 19 -55 15 -55 -13 0 -12 -9 -20 -27 -24 -16 -3 -30 -3
-33 -1 -2 3 9 44 25 91 31 93 29 112 -18 124 -14 4 -28 5 -30 3z m67 -318
c-10 -23 -19 -42 -20 -44 -1 -2 -16 4 -33 13 -50 26 -34 79 30 101 31 10 34 9
37 -9 2 -11 -4 -38 -14 -61z"/>
<path d="M510 572 c0 -5 11 -19 25 -32 32 -30 19 -40 -53 -40 -53 0 -54 0 -48
-27 15 -77 16 -110 7 -247 -12 -188 -10 -191 79 -128 80 56 74 51 69 57 -3 2
-28 -4 -57 -15 -34 -13 -53 -16 -58 -9 -3 6 -3 50 1 99 l7 88 58 7 c32 4 67 4
77 1 16 -5 26 9 60 84 39 85 40 91 23 100 -10 6 -37 10 -59 10 -29 0 -41 4
-41 14 0 8 -10 22 -22 30 -24 17 -68 22 -68 8z m130 -101 c0 -17 -3 -32 -7
-34 -5 -3 -38 -8 -75 -12 l-68 -7 0 31 c0 32 6 36 75 44 73 9 75 9 75 -22z
m-14 -77 c-3 -9 -6 -19 -6 -23 0 -8 -97 -31 -127 -31 -8 0 -11 8 -9 23 3 12 5
25 5 29 1 7 43 13 110 16 26 2 32 -1 27 -14z"/>
<path d="M653 272 l-42 -47 -28 26 c-25 23 -63 44 -63 35 0 -13 187 -187 206
-192 28 -7 111 4 118 15 3 4 -21 15 -54 24 -59 17 -162 68 -167 84 -2 5 26 23
63 41 66 33 79 55 33 59 -17 1 -36 -12 -66 -45z"/>
</g>
</svg>
