<?xml version="1.0" standalone="no"?>
<!DOCTYPE svg PUBLIC "-//W3C//DTD SVG 20010904//EN"
 "http://www.w3.org/TR/2001/REC-SVG-20010904/DTD/svg10.dtd">
<svg version="1.0" xmlns="http://www.w3.org/2000/svg"
 width="96.000000pt" height="68.000000pt" viewBox="0 0 96.000000 68.000000"
 preserveAspectRatio="xMidYMid meet">
<metadata>
Created by potrace 1.16, written by Peter Selinger 2001-2019
</metadata>
<g transform="translate(0.000000,68.000000) scale(0.100000,-0.100000)"
fill="#000000" stroke="none">
<path d="M440 321 l0 -38 -52 -7 c-29 -3 -78 -6 -108 -6 -30 -1 -73 -5 -95 -9
l-40 -8 30 -12 c23 -9 48 -10 105 -2 41 6 95 11 120 13 l45 3 3 -113 c2 -82 6
-112 15 -109 16 5 25 42 26 117 2 118 -9 110 162 110 148 0 178 7 125 31 -17
8 -60 8 -148 1 -67 -5 -126 -8 -130 -5 -4 2 -4 14 1 26 12 33 3 47 -30 47 -27
0 -29 -3 -29 -39z"/>
</g>
</svg>
