<?xml version="1.0" standalone="no"?>
<!DOCTYPE svg PUBLIC "-//W3C//DTD SVG 20010904//EN"
 "http://www.w3.org/TR/2001/REC-SVG-20010904/DTD/svg10.dtd">
<svg version="1.0" xmlns="http://www.w3.org/2000/svg"
 width="96.000000pt" height="68.000000pt" viewBox="0 0 96.000000 68.000000"
 preserveAspectRatio="xMidYMid meet">
<metadata>
Created by potrace 1.16, written by Peter Selinger 2001-2019
</metadata>
<g transform="translate(0.000000,68.000000) scale(0.100000,-0.100000)"
fill="#000000" stroke="none">
<path d="M276 558 c17 -74 14 -82 -38 -88 -66 -8 -72 -20 -9 -20 44 0 54 -3
58 -20 8 -30 43 -26 43 5 0 18 5 25 19 25 11 0 32 5 48 11 25 9 26 11 10 20
-10 6 -31 8 -47 4 -28 -6 -28 -6 -23 32 5 35 2 40 -21 51 -42 19 -48 16 -40
-20z"/>
</g>
</svg>
