<?xml version="1.0" standalone="no"?>
<!DOCTYPE svg PUBLIC "-//W3C//DTD SVG 20010904//EN"
 "http://www.w3.org/TR/2001/REC-SVG-20010904/DTD/svg10.dtd">
<svg version="1.0" xmlns="http://www.w3.org/2000/svg"
 width="96.000000pt" height="68.000000pt" viewBox="0 0 96.000000 68.000000"
 preserveAspectRatio="xMidYMid meet">
<metadata>
Created by potrace 1.16, written by Peter Selinger 2001-2019
</metadata>
<g transform="translate(0.000000,68.000000) scale(0.100000,-0.100000)"
fill="#000000" stroke="none">
<path d="M600 580 c-14 -4 -43 -9 -65 -9 -22 -1 -51 -5 -65 -9 -21 -6 -19 -8
20 -12 42 -5 45 -7 48 -37 3 -29 0 -33 -30 -42 l-33 -9 33 -1 c30 -1 32 -4 32
-35 0 -33 -1 -34 -52 -40 -43 -6 -50 -9 -35 -18 13 -7 44 -6 100 1 45 6 101
13 125 14 68 3 44 22 -30 22 -36 0 -69 3 -72 6 -8 8 11 60 21 58 5 -1 20 -1
36 0 43 2 32 21 -13 21 -38 0 -40 2 -40 30 0 33 7 39 60 43 19 1 34 7 33 12
-3 13 -41 16 -73 5z"/>
<path d="M258 562 c-49 -8 -88 -18 -88 -23 0 -4 21 -9 48 -11 47 -3 47 -3 50
-41 2 -20 0 -37 -5 -36 -4 1 -24 1 -43 0 -30 -1 -32 -3 -17 -12 11 -6 29 -9
42 -6 20 3 25 -1 31 -26 8 -38 -6 -47 -78 -47 -62 0 -72 -10 -35 -34 20 -14
31 -13 115 14 50 17 99 30 107 30 8 0 15 5 15 10 0 12 -16 13 -58 1 -32 -9
-32 -9 -32 25 0 29 4 35 28 40 51 11 58 18 19 22 -36 3 -38 5 -35 35 3 28 7
32 41 38 45 7 57 17 37 29 -18 12 -32 11 -142 -8z"/>
<path d="M460 313 c-58 -7 -129 -15 -157 -19 l-53 -5 0 -98 c0 -113 3 -118 88
-146 44 -14 80 -16 210 -13 221 7 288 35 237 102 -8 11 -15 28 -15 38 0 29
-15 21 -25 -14 -16 -51 -52 -70 -159 -81 -105 -12 -283 1 -295 21 -4 6 -6 24
-5 39 1 28 1 28 105 40 213 24 208 24 203 38 -3 7 4 27 17 44 18 24 20 33 10
44 -18 22 -46 24 -161 10z m100 -40 c0 -40 -9 -47 -67 -59 l-53 -11 0 43 c0
47 5 50 83 53 34 1 37 -1 37 -26z m-160 -32 c0 -35 -3 -39 -31 -45 -59 -11
-92 -8 -85 10 3 9 6 26 6 39 0 25 14 31 78 34 31 1 32 0 32 -38z"/>
</g>
</svg>
