<?xml version="1.0" standalone="no"?>
<!DOCTYPE svg PUBLIC "-//W3C//DTD SVG 20010904//EN"
 "http://www.w3.org/TR/2001/REC-SVG-20010904/DTD/svg10.dtd">
<svg version="1.0" xmlns="http://www.w3.org/2000/svg"
 width="96.000000pt" height="68.000000pt" viewBox="0 0 96.000000 68.000000"
 preserveAspectRatio="xMidYMid meet">
<metadata>
Created by potrace 1.16, written by Peter Selinger 2001-2019
</metadata>
<g transform="translate(0.000000,68.000000) scale(0.100000,-0.100000)"
fill="#000000" stroke="none">
<path d="M660 416 c0 -41 25 -56 91 -56 45 0 59 3 59 15 0 10 -15 15 -57 17
-53 3 -58 5 -56 26 2 16 -2 22 -17 22 -15 0 -20 -7 -20 -24z"/>
<path d="M550 421 c0 -5 -12 -24 -26 -41 -32 -38 -25 -49 14 -22 46 34 59 52
41 63 -18 11 -29 11 -29 0z"/>
</g>
</svg>
