<?xml version="1.0" standalone="no"?>
<!DOCTYPE svg PUBLIC "-//W3C//DTD SVG 20010904//EN"
 "http://www.w3.org/TR/2001/REC-SVG-20010904/DTD/svg10.dtd">
<svg version="1.0" xmlns="http://www.w3.org/2000/svg"
 width="96.000000pt" height="68.000000pt" viewBox="0 0 96.000000 68.000000"
 preserveAspectRatio="xMidYMid meet">
<metadata>
Created by potrace 1.16, written by Peter Selinger 2001-2019
</metadata>
<g transform="translate(0.000000,68.000000) scale(0.100000,-0.100000)"
fill="#000000" stroke="none">
<path d="M690 149 c-25 -4 -81 -8 -124 -8 -66 -1 -77 -3 -63 -13 9 -7 23 -31
30 -53 8 -22 19 -40 26 -39 6 1 56 2 110 2 93 2 99 3 94 21 -3 13 4 29 21 45
l25 26 -29 15 c-16 8 -33 14 -37 14 -4 -1 -28 -5 -53 -10z m40 -36 c0 -35 -16
-43 -93 -49 -66 -6 -77 -5 -77 9 0 8 -3 22 -6 31 -6 16 20 21 124 24 44 2 52
-1 52 -15z"/>
</g>
</svg>
