<?xml version="1.0" standalone="no"?>
<!DOCTYPE svg PUBLIC "-//W3C//DTD SVG 20010904//EN"
 "http://www.w3.org/TR/2001/REC-SVG-20010904/DTD/svg10.dtd">
<svg version="1.0" xmlns="http://www.w3.org/2000/svg"
 width="96.000000pt" height="68.000000pt" viewBox="0 0 96.000000 68.000000"
 preserveAspectRatio="xMidYMid meet">
<metadata>
Created by potrace 1.16, written by Peter Selinger 2001-2019
</metadata>
<g transform="translate(0.000000,68.000000) scale(0.100000,-0.100000)"
fill="#000000" stroke="none">
<path d="M607 419 c7 -70 1 -78 -62 -80 -22 0 -51 -4 -65 -8 -24 -7 -23 -8 12
-14 20 -4 55 -5 77 -1 l41 7 0 -152 c0 -141 6 -171 27 -139 4 7 10 76 13 153
l5 140 90 3 c49 2 94 7 98 11 16 16 -48 28 -116 21 -38 -3 -70 -3 -72 0 -2 3
1 25 5 50 9 48 -4 70 -42 70 -16 0 -17 -7 -11 -61z"/>
</g>
</svg>
