<?xml version="1.0" standalone="no"?>
<!DOCTYPE svg PUBLIC "-//W3C//DTD SVG 20010904//EN"
 "http://www.w3.org/TR/2001/REC-SVG-20010904/DTD/svg10.dtd">
<svg version="1.0" xmlns="http://www.w3.org/2000/svg"
 width="96.000000pt" height="68.000000pt" viewBox="0 0 96.000000 68.000000"
 preserveAspectRatio="xMidYMid meet">
<metadata>
Created by potrace 1.16, written by Peter Selinger 2001-2019
</metadata>
<g transform="translate(0.000000,68.000000) scale(0.100000,-0.100000)"
fill="#000000" stroke="none">
<path d="M705 504 c-5 -1 -36 -5 -67 -9 -32 -4 -58 -11 -58 -16 0 -6 26 -7 66
-3 l67 7 -5 -124 c-3 -81 -11 -137 -21 -162 l-16 -37 -69 0 c-87 0 -132 -9
-132 -25 0 -10 17 -12 74 -8 71 6 74 5 91 -21 48 -73 97 4 119 191 9 72 20
143 26 157 6 16 6 27 -1 31 -15 10 -63 22 -74 19z"/>
</g>
</svg>
