<?xml version="1.0" standalone="no"?>
<!DOCTYPE svg PUBLIC "-//W3C//DTD SVG 20010904//EN"
 "http://www.w3.org/TR/2001/REC-SVG-20010904/DTD/svg10.dtd">
<svg version="1.0" xmlns="http://www.w3.org/2000/svg"
 width="96.000000pt" height="68.000000pt" viewBox="0 0 96.000000 68.000000"
 preserveAspectRatio="xMidYMid meet">
<metadata>
Created by potrace 1.16, written by Peter Selinger 2001-2019
</metadata>
<g transform="translate(0.000000,68.000000) scale(0.100000,-0.100000)"
fill="#000000" stroke="none">
<path d="M221 524 c29 -31 76 -57 89 -49 33 20 -29 75 -84 75 l-29 0 24 -26z"/>
<path d="M130 402 c0 -17 69 -72 90 -72 28 0 26 36 -3 55 -30 19 -87 31 -87
17z"/>
<path d="M250 249 c-18 -28 -51 -66 -72 -85 -21 -19 -38 -38 -38 -44 0 -16 23
-60 31 -60 5 0 34 50 66 112 70 135 67 128 56 128 -4 0 -24 -23 -43 -51z"/>
</g>
</svg>
