<?xml version="1.0" standalone="no"?>
<!DOCTYPE svg PUBLIC "-//W3C//DTD SVG 20010904//EN"
 "http://www.w3.org/TR/2001/REC-SVG-20010904/DTD/svg10.dtd">
<svg version="1.0" xmlns="http://www.w3.org/2000/svg"
 width="90.000000pt" height="92.000000pt" viewBox="0 0 90.000000 92.000000"
 preserveAspectRatio="xMidYMid meet">
<metadata>
Created by potrace 1.16, written by Peter Selinger 2001-2019
</metadata>
<g transform="translate(0.000000,92.000000) scale(0.100000,-0.100000)"
fill="#000000" stroke="none">
<path d="M296 865 c-27 -8 -80 -19 -117 -26 l-68 -12 16 -23 c18 -29 20 -221
3 -255 -9 -16 -8 -26 4 -44 15 -23 17 -23 48 -7 23 11 61 16 131 16 88 1 98 3
93 18 -3 13 2 18 19 18 13 0 53 15 89 34 l65 34 50 -50 c50 -50 51 -51 100
-44 56 7 111 25 111 35 0 3 -33 17 -74 29 -41 13 -92 35 -114 49 l-39 26 43
86 c24 47 44 87 44 88 0 2 -11 10 -24 18 -23 15 -30 15 -92 -5 -37 -11 -89
-21 -116 -22 -26 0 -48 -5 -48 -10 0 -5 13 -20 29 -34 17 -14 47 -48 67 -76
l38 -51 -30 -24 c-53 -44 -107 -67 -162 -69 -46 -1 -52 1 -46 15 4 9 7 24 8
34 0 12 9 17 33 17 32 0 45 14 21 22 -9 3 -4 17 14 46 l28 41 -22 16 c-13 8
-35 15 -50 15 -25 0 -27 2 -18 24 5 13 6 27 3 30 -4 3 12 6 35 6 47 0 53 11
20 34 -26 19 -27 19 -92 1z m-16 -80 c0 -28 -4 -35 -19 -35 -10 0 -33 -3 -50
-6 -28 -6 -31 -4 -31 19 0 27 14 42 45 50 48 12 55 8 55 -28z m329 3 c-13 -49
-31 -88 -38 -88 -4 0 -24 20 -44 45 l-37 44 47 15 c76 23 83 22 72 -16z m-265
-85 c-4 -16 -8 -30 -10 -32 -5 -6 -87 -20 -121 -21 -31 0 -33 2 -33 35 0 23 4
33 13 30 6 -2 28 0 47 4 19 5 52 9 73 10 36 1 37 0 31 -26z m-64 -112 c0 -36
-5 -39 -64 -47 l-46 -7 0 39 0 40 55 2 c55 2 55 2 55 -27z"/>
<path d="M455 498 c-38 -10 -101 -20 -140 -22 -38 -3 -71 -5 -73 -5 -1 -1 3
-11 9 -23 29 -54 1 -262 -47 -347 -13 -24 -22 -47 -18 -50 10 -10 72 69 90
115 l17 43 24 -19 c28 -22 35 -20 125 32 72 41 98 66 57 54 -62 -17 -191 -47
-194 -44 -2 2 -1 35 2 75 l6 72 36 -24 c84 -56 141 -63 126 -16 -6 21 -83 51
-132 51 -18 0 -23 6 -23 24 0 22 6 25 69 36 38 6 84 10 102 8 l34 -3 0 -157
c0 -177 -4 -187 -56 -169 -18 6 -33 10 -35 8 -7 -7 83 -106 96 -104 8 1 23 18
32 37 15 29 18 62 18 187 0 84 5 164 11 180 9 25 7 31 -22 56 -18 15 -36 26
-39 26 -3 -1 -36 -10 -75 -21z"/>
</g>
</svg>
