<?xml version="1.0" standalone="no"?>
<!DOCTYPE svg PUBLIC "-//W3C//DTD SVG 20010904//EN"
 "http://www.w3.org/TR/2001/REC-SVG-20010904/DTD/svg10.dtd">
<svg version="1.0" xmlns="http://www.w3.org/2000/svg"
 width="96.000000pt" height="68.000000pt" viewBox="0 0 96.000000 68.000000"
 preserveAspectRatio="xMidYMid meet">
<metadata>
Created by potrace 1.16, written by Peter Selinger 2001-2019
</metadata>
<g transform="translate(0.000000,68.000000) scale(0.100000,-0.100000)"
fill="#000000" stroke="none">
<path d="M440 335 c-30 -7 -78 -14 -107 -14 l-52 -1 6 -52 c3 -35 -1 -74 -12
-113 -20 -70 -22 -102 -6 -118 15 -15 27 2 43 60 13 46 13 46 141 59 l67 6 0
-30 c0 -54 -8 -63 -49 -56 l-36 7 30 -32 c47 -50 61 -55 85 -29 18 19 20 35
20 141 0 65 5 127 10 137 8 15 5 22 -12 34 -26 18 -51 18 -128 1z m64 -21 c9
-3 16 -14 16 -24 0 -14 -13 -20 -67 -29 -38 -6 -80 -14 -95 -17 -25 -5 -28 -3
-28 20 0 32 7 35 83 45 34 5 65 9 69 10 3 0 13 -2 22 -5z m16 -97 c0 -21 -7
-24 -70 -35 -105 -18 -120 -16 -120 11 0 22 6 25 68 34 113 17 122 16 122 -10z"/>
</g>
</svg>
