<?xml version="1.0" standalone="no"?>
<!DOCTYPE svg PUBLIC "-//W3C//DTD SVG 20010904//EN"
 "http://www.w3.org/TR/2001/REC-SVG-20010904/DTD/svg10.dtd">
<svg version="1.0" xmlns="http://www.w3.org/2000/svg"
 width="96.000000pt" height="68.000000pt" viewBox="0 0 96.000000 68.000000"
 preserveAspectRatio="xMidYMid meet">
<metadata>
Created by potrace 1.16, written by Peter Selinger 2001-2019
</metadata>
<g transform="translate(0.000000,68.000000) scale(0.100000,-0.100000)"
fill="#000000" stroke="none">
<path d="M265 599 c-27 -5 -65 -11 -83 -15 -31 -5 -32 -6 -17 -27 18 -26 21
-148 4 -179 -9 -16 -8 -24 4 -36 13 -12 23 -13 61 -3 25 6 79 11 121 11 65 0
76 2 71 15 -3 9 0 15 10 15 8 0 42 11 75 25 l60 24 38 -34 c40 -37 70 -42 154
-29 35 6 53 24 23 24 -25 0 -141 39 -161 54 -20 14 -20 15 0 53 10 21 25 46
33 55 34 40 -11 60 -88 38 -35 -10 -87 -18 -125 -20 l-20 -1 20 -14 c39 -29
95 -89 95 -101 0 -7 -28 -26 -62 -42 -47 -22 -73 -28 -101 -25 -28 4 -37 9
-33 20 3 8 6 19 6 24 0 5 12 9 28 10 15 0 21 3 14 6 -9 3 -6 13 9 35 25 34 15
48 -33 48 -21 0 -25 4 -21 20 4 14 17 22 44 26 67 11 42 35 -34 33 -23 -1 -64
-5 -92 -10z m45 -54 c0 -20 -5 -25 -24 -25 -13 0 -31 -3 -40 -6 -12 -5 -16 0
-16 19 0 25 5 28 68 36 7 0 12 -10 12 -24z m290 1 c0 -13 -8 -33 -17 -45 l-18
-21 -32 26 c-54 42 -45 54 50 62 12 2 17 -5 17 -22z m-240 -60 c0 -22 -5 -25
-47 -31 -27 -3 -58 -7 -70 -9 -16 -2 -23 2 -23 13 0 29 15 40 60 44 25 2 53 4
63 5 12 1 17 -5 17 -22z m-57 -69 c8 -22 -5 -34 -45 -41 -37 -7 -38 -6 -38 24
0 28 2 30 39 30 23 0 41 -5 44 -13z"/>
<path d="M435 334 c-33 -7 -81 -13 -106 -14 l-45 0 4 -60 c3 -39 -1 -77 -12
-109 -9 -27 -16 -64 -16 -81 0 -49 32 -35 50 22 8 26 17 49 20 51 3 2 47 7 98
11 l93 7 -3 -43 c-3 -42 -4 -43 -35 -40 -18 1 -33 0 -33 -2 0 -11 60 -66 72
-66 37 0 46 31 50 177 3 140 3 142 -20 152 -28 13 -40 13 -117 -5z m69 -20 c9
-3 16 -14 16 -24 0 -14 -17 -21 -89 -34 -49 -9 -92 -16 -95 -16 -3 0 -6 11 -6
25 0 29 9 34 83 45 74 11 74 11 91 4z m16 -98 c0 -27 -11 -30 -134 -42 -63 -7
-69 -6 -63 10 4 10 7 23 7 30 0 7 8 12 18 11 10 0 42 2 72 6 99 11 100 11 100
-15z"/>
</g>
</svg>
