<?xml version="1.0" standalone="no"?>
<!DOCTYPE svg PUBLIC "-//W3C//DTD SVG 20010904//EN"
 "http://www.w3.org/TR/2001/REC-SVG-20010904/DTD/svg10.dtd">
<svg version="1.0" xmlns="http://www.w3.org/2000/svg"
 width="96.000000pt" height="68.000000pt" viewBox="0 0 96.000000 68.000000"
 preserveAspectRatio="xMidYMid meet">
<metadata>
Created by potrace 1.16, written by Peter Selinger 2001-2019
</metadata>
<g transform="translate(0.000000,68.000000) scale(0.100000,-0.100000)"
fill="#000000" stroke="none">
<path d="M326 418 c-8 -24 -41 -69 -72 -100 -32 -32 -52 -58 -47 -58 10 0 102
66 113 81 7 9 275 33 294 26 23 -9 21 -154 -2 -222 -18 -54 -30 -59 -96 -40
l-29 8 33 -41 c36 -46 62 -52 96 -24 39 32 52 65 60 157 3 50 13 107 20 128
13 37 13 38 -19 57 -21 13 -42 18 -62 15 -61 -12 -250 -32 -254 -29 -3 2 8 17
23 33 27 29 28 29 8 40 -35 19 -49 12 -66 -31z"/>
</g>
</svg>
