<?xml version="1.0" standalone="no"?>
<!DOCTYPE svg PUBLIC "-//W3C//DTD SVG 20010904//EN"
 "http://www.w3.org/TR/2001/REC-SVG-20010904/DTD/svg10.dtd">
<svg version="1.0" xmlns="http://www.w3.org/2000/svg"
 width="96.000000pt" height="68.000000pt" viewBox="0 0 96.000000 68.000000"
 preserveAspectRatio="xMidYMid meet">
<metadata>
Created by potrace 1.16, written by Peter Selinger 2001-2019
</metadata>
<g transform="translate(0.000000,68.000000) scale(0.100000,-0.100000)"
fill="#000000" stroke="none">
<path d="M502 416 c-42 -7 -60 -14 -53 -21 5 -6 14 -26 19 -45 5 -19 15 -34
21 -32 7 1 38 5 69 8 61 7 58 4 65 74 2 21 -2 25 -28 26 -16 1 -58 -4 -93 -10z
m78 -36 c0 -23 -5 -31 -24 -36 -40 -10 -61 -1 -64 28 -3 23 1 27 30 31 18 2
39 5 46 5 7 1 12 -10 12 -28z"/>
</g>
</svg>
