<?xml version="1.0" standalone="no"?>
<!DOCTYPE svg PUBLIC "-//W3C//DTD SVG 20010904//EN"
 "http://www.w3.org/TR/2001/REC-SVG-20010904/DTD/svg10.dtd">
<svg version="1.0" xmlns="http://www.w3.org/2000/svg"
 width="96.000000pt" height="68.000000pt" viewBox="0 0 96.000000 68.000000"
 preserveAspectRatio="xMidYMid meet">
<metadata>
Created by potrace 1.16, written by Peter Selinger 2001-2019
</metadata>
<g transform="translate(0.000000,68.000000) scale(0.100000,-0.100000)"
fill="#000000" stroke="none">
<path d="M345 369 c-22 -4 -68 -8 -103 -8 -58 -1 -62 -2 -48 -17 9 -8 16 -20
16 -25 0 -5 7 -26 15 -46 12 -27 18 -33 28 -25 7 6 50 12 96 14 l83 3 19 50
c14 38 16 51 6 57 -15 9 -59 8 -112 -3z m69 -24 c4 -12 -3 -15 -29 -15 -34 0
-47 13 -22 23 24 10 45 7 51 -8z m-97 -12 c5 -13 -51 -28 -67 -18 -18 11 -11
24 18 28 35 5 45 3 49 -10z m91 -35 c-7 -20 -58 -23 -58 -4 0 11 10 16 31 16
20 0 29 -4 27 -12z m-88 -8 c0 -12 -45 -24 -59 -15 -22 13 -10 25 24 25 19 0
35 -4 35 -10z"/>
</g>
</svg>
