<?xml version="1.0" standalone="no"?>
<!DOCTYPE svg PUBLIC "-//W3C//DTD SVG 20010904//EN"
 "http://www.w3.org/TR/2001/REC-SVG-20010904/DTD/svg10.dtd">
<svg version="1.0" xmlns="http://www.w3.org/2000/svg"
 width="96.000000pt" height="68.000000pt" viewBox="0 0 96.000000 68.000000"
 preserveAspectRatio="xMidYMid meet">
<metadata>
Created by potrace 1.16, written by Peter Selinger 2001-2019
</metadata>
<g transform="translate(0.000000,68.000000) scale(0.100000,-0.100000)"
fill="#000000" stroke="none">
<path d="M550 596 c0 -36 -12 -46 -56 -46 -14 0 -22 -4 -19 -10 3 -5 19 -10
35 -10 27 0 29 -2 20 -25 -13 -35 4 -32 32 5 20 28 26 30 84 30 61 0 87 11 63
26 -7 4 -34 6 -61 5 -46 -1 -48 0 -38 18 8 16 7 22 -9 31 -37 19 -51 12 -51
-24z"/>
<path d="M302 593 c3 -10 9 -26 13 -35 6 -14 -2 -18 -54 -24 -53 -6 -60 -9
-49 -21 9 -12 25 -14 69 -9 52 6 58 5 64 -14 10 -30 25 -24 25 10 0 25 4 30
24 30 14 0 28 5 31 10 4 6 -8 10 -29 10 -30 0 -35 3 -38 28 -2 21 -9 28 -32
30 -24 3 -28 0 -24 -15z"/>
</g>
</svg>
