<?xml version="1.0" standalone="no"?>
<!DOCTYPE svg PUBLIC "-//W3C//DTD SVG 20010904//EN"
 "http://www.w3.org/TR/2001/REC-SVG-20010904/DTD/svg10.dtd">
<svg version="1.0" xmlns="http://www.w3.org/2000/svg"
 width="96.000000pt" height="68.000000pt" viewBox="0 0 96.000000 68.000000"
 preserveAspectRatio="xMidYMid meet">
<metadata>
Created by potrace 1.16, written by Peter Selinger 2001-2019
</metadata>
<g transform="translate(0.000000,68.000000) scale(0.100000,-0.100000)"
fill="#000000" stroke="none">
<path d="M525 563 c4 -10 9 -46 12 -80 l6 -61 -57 -7 c-31 -4 -56 -11 -56 -15
0 -12 39 -19 76 -13 l34 6 0 -42 c0 -34 3 -41 20 -41 17 0 20 7 20 44 l0 43
46 7 c26 3 62 6 81 6 23 0 33 4 31 12 -7 19 -47 25 -97 16 -60 -11 -68 -1 -54
64 13 59 2 78 -45 78 -19 0 -23 -4 -17 -17z"/>
</g>
</svg>
