<?xml version="1.0" standalone="no"?>
<!DOCTYPE svg PUBLIC "-//W3C//DTD SVG 20010904//EN"
 "http://www.w3.org/TR/2001/REC-SVG-20010904/DTD/svg10.dtd">
<svg version="1.0" xmlns="http://www.w3.org/2000/svg"
 width="96.000000pt" height="68.000000pt" viewBox="0 0 96.000000 68.000000"
 preserveAspectRatio="xMidYMid meet">
<metadata>
Created by potrace 1.16, written by Peter Selinger 2001-2019
</metadata>
<g transform="translate(0.000000,68.000000) scale(0.100000,-0.100000)"
fill="#000000" stroke="none">
<path d="M524 564 c5 -10 10 -46 13 -80 5 -58 4 -61 -18 -67 -13 -4 -36 -7
-51 -7 -16 0 -28 -4 -28 -10 0 -10 23 -14 73 -10 26 1 27 -1 27 -43 l0 -44
-52 -7 -52 -7 45 -45 c24 -25 52 -53 61 -62 16 -15 16 -17 0 -35 -20 -22 -80
-50 -141 -67 -23 -6 -41 -14 -38 -17 9 -9 110 17 165 42 l52 24 40 -43 c45
-49 76 -58 154 -48 61 9 70 27 18 36 -43 6 -182 72 -182 86 0 5 4 11 9 15 5 3
28 33 51 67 48 73 43 84 -36 81 l-54 -3 0 39 0 40 80 7 c104 9 103 29 -1 29
-74 0 -74 0 -77 28 -2 16 1 42 7 60 13 36 7 44 -38 53 -31 7 -34 5 -27 -12z
m106 -279 c0 -15 -46 -95 -54 -95 -12 0 -76 60 -76 72 0 4 15 12 33 17 34 10
97 14 97 6z"/>
<path d="M244 518 c1 -52 0 -53 -29 -56 -133 -11 -158 -32 -40 -32 73 0 75 -1
75 -24 0 -22 -6 -26 -45 -32 -25 -3 -48 -10 -51 -15 -10 -18 44 -19 136 -4 52
8 98 15 103 15 16 0 6 17 -16 27 -15 7 -29 8 -38 2 -24 -15 -39 -10 -39 15 0
22 5 24 68 32 49 7 67 13 67 24 0 12 -13 15 -62 13 l-63 -3 0 39 c0 40 -11 51
-50 51 -15 0 -18 -8 -16 -52z"/>
<path d="M290 320 c-14 -4 -48 -8 -76 -9 -54 -1 -69 -8 -55 -25 12 -14 53
-178 46 -184 -2 -3 -27 -7 -55 -10 -55 -5 -59 -8 -33 -28 26 -20 37 -18 179
26 81 25 113 39 87 36 -41 -4 -56 5 -32 19 18 12 27 49 17 71 -7 14 -5 32 6
59 13 31 14 40 4 47 -16 9 -54 9 -88 -2z m38 -42 c-3 -29 -7 -33 -48 -43 -59
-15 -78 -9 -82 24 -3 27 -5 27 125 50 5 0 7 -13 5 -31z m-1 -104 c-5 -51 -17
-64 -59 -64 -22 0 -28 5 -28 22 0 12 -10 32 -21 44 l-21 23 38 6 c22 3 46 8
54 10 41 8 43 6 37 -41z"/>
</g>
</svg>
