<?xml version="1.0" standalone="no"?>
<!DOCTYPE svg PUBLIC "-//W3C//DTD SVG 20010904//EN"
 "http://www.w3.org/TR/2001/REC-SVG-20010904/DTD/svg10.dtd">
<svg version="1.0" xmlns="http://www.w3.org/2000/svg"
 width="96.000000pt" height="68.000000pt" viewBox="0 0 96.000000 68.000000"
 preserveAspectRatio="xMidYMid meet">
<metadata>
Created by potrace 1.16, written by Peter Selinger 2001-2019
</metadata>
<g transform="translate(0.000000,68.000000) scale(0.100000,-0.100000)"
fill="#000000" stroke="none">
<path d="M540 584 c-63 -7 -143 -16 -178 -19 -62 -7 -62 -7 -40 -25 20 -15 23
-27 21 -73 -5 -102 -59 -213 -152 -309 -53 -56 -47 -60 21 -17 88 57 142 148
174 297 9 44 20 85 23 90 3 5 80 17 170 26 167 17 186 21 176 37 -8 12 -70 10
-215 -7z"/>
</g>
</svg>
