<?xml version="1.0" standalone="no"?>
<!DOCTYPE svg PUBLIC "-//W3C//DTD SVG 20010904//EN"
 "http://www.w3.org/TR/2001/REC-SVG-20010904/DTD/svg10.dtd">
<svg version="1.0" xmlns="http://www.w3.org/2000/svg"
 width="96.000000pt" height="68.000000pt" viewBox="0 0 96.000000 68.000000"
 preserveAspectRatio="xMidYMid meet">
<metadata>
Created by potrace 1.16, written by Peter Selinger 2001-2019
</metadata>
<g transform="translate(0.000000,68.000000) scale(0.100000,-0.100000)"
fill="#000000" stroke="none">
<path d="M676 404 c-19 -26 -35 -28 -91 -9 -11 4 21 -20 70 -54 96 -65 115
-72 115 -42 0 13 -16 26 -50 42 -27 13 -50 27 -50 31 0 3 13 9 30 13 35 8 48
24 29 36 -22 14 -33 10 -53 -17z"/>
<path d="M470 378 c0 -24 -3 -60 -6 -80 -8 -49 5 -49 65 -1 68 54 70 56 27 39
-55 -23 -57 -22 -50 34 6 46 5 50 -15 50 -18 0 -21 -6 -21 -42z"/>
</g>
</svg>
