<?xml version="1.0" standalone="no"?>
<!DOCTYPE svg PUBLIC "-//W3C//DTD SVG 20010904//EN"
 "http://www.w3.org/TR/2001/REC-SVG-20010904/DTD/svg10.dtd">
<svg version="1.0" xmlns="http://www.w3.org/2000/svg"
 width="90.000000pt" height="92.000000pt" viewBox="0 0 90.000000 92.000000"
 preserveAspectRatio="xMidYMid meet">
<metadata>
Created by potrace 1.16, written by Peter Selinger 2001-2019
</metadata>
<g transform="translate(0.000000,92.000000) scale(0.100000,-0.100000)"
fill="#000000" stroke="none">
<path d="M486 818 c4 -13 10 -107 11 -209 l4 -187 -36 -6 c-20 -4 -56 -4 -80
0 -25 3 -45 4 -45 1 0 -2 6 -20 14 -39 8 -19 20 -75 26 -124 6 -49 16 -100 21
-114 10 -24 11 -24 25 -6 11 16 35 20 153 29 140 10 141 10 135 33 -7 28 31
162 53 187 15 15 15 19 -1 36 -34 37 -68 44 -134 27 -33 -9 -65 -16 -71 -16
-8 0 -11 24 -9 77 l3 77 85 12 c131 17 159 31 106 55 -18 8 -40 6 -98 -10 -41
-12 -78 -21 -83 -21 -11 0 1 134 14 159 9 16 6 23 -15 40 -15 12 -40 21 -57
21 -26 0 -28 -2 -21 -22z m168 -414 c19 -7 20 -64 2 -139 -12 -56 -5 -52 -162
-68 l-61 -6 -8 90 c-3 50 -5 92 -3 94 2 2 49 11 103 18 55 8 103 15 107 16 3
1 13 -2 22 -5z"/>
<path d="M235 778 c-15 -86 -103 -247 -193 -351 -48 -55 -51 -62 -19 -46 34
18 88 68 126 116 18 24 38 43 44 43 13 0 2 -250 -14 -314 -13 -54 1 -126 26
-126 24 0 34 67 37 262 2 162 0 190 -13 204 -15 14 -12 24 38 111 l54 96 -22
23 c-35 37 -56 31 -64 -18z"/>
</g>
</svg>
