<?xml version="1.0" standalone="no"?>
<!DOCTYPE svg PUBLIC "-//W3C//DTD SVG 20010904//EN"
 "http://www.w3.org/TR/2001/REC-SVG-20010904/DTD/svg10.dtd">
<svg version="1.0" xmlns="http://www.w3.org/2000/svg"
 width="96.000000pt" height="68.000000pt" viewBox="0 0 96.000000 68.000000"
 preserveAspectRatio="xMidYMid meet">
<metadata>
Created by potrace 1.16, written by Peter Selinger 2001-2019
</metadata>
<g transform="translate(0.000000,68.000000) scale(0.100000,-0.100000)"
fill="#000000" stroke="none">
<path d="M390 491 c0 -5 11 -23 25 -39 14 -17 25 -32 25 -35 0 -2 -28 -10 -62
-17 -52 -11 -59 -14 -38 -20 21 -6 206 17 220 28 13 9 -29 22 -57 17 -30 -5
-33 -4 -33 19 0 14 -9 31 -22 40 -25 18 -58 21 -58 7z"/>
</g>
</svg>
