<?xml version="1.0" standalone="no"?>
<!DOCTYPE svg PUBLIC "-//W3C//DTD SVG 20010904//EN"
 "http://www.w3.org/TR/2001/REC-SVG-20010904/DTD/svg10.dtd">
<svg version="1.0" xmlns="http://www.w3.org/2000/svg"
 width="96.000000pt" height="68.000000pt" viewBox="0 0 96.000000 68.000000"
 preserveAspectRatio="xMidYMid meet">
<metadata>
Created by potrace 1.16, written by Peter Selinger 2001-2019
</metadata>
<g transform="translate(0.000000,68.000000) scale(0.100000,-0.100000)"
fill="#000000" stroke="none">
<path d="M693 329 c-18 -5 -33 -12 -33 -15 0 -3 8 -3 19 1 31 10 69 -14 63
-39 -3 -11 -9 -26 -13 -32 -5 -5 -5 -20 -2 -33 3 -12 0 -40 -7 -62 -12 -34
-14 -37 -26 -21 -7 9 -16 14 -20 10 -4 -4 -13 -3 -21 3 -9 9 -13 8 -13 0 0 -7
-20 -11 -53 -11 -28 0 -67 -4 -85 -9 -27 -8 -36 -7 -53 10 -24 24 -26 69 -1
70 13 0 12 2 -5 9 -13 5 -23 16 -23 25 0 8 -6 15 -12 15 -9 0 -8 4 2 10 13 8
12 10 -2 10 -10 0 -18 -7 -18 -15 0 -8 5 -15 11 -15 5 0 7 -5 4 -10 -4 -6 -1
-18 7 -27 9 -12 9 -15 1 -9 -10 5 -11 -1 -6 -26 13 -69 19 -78 50 -69 16 5 72
12 125 16 l98 7 11 -26 c15 -31 20 -32 44 -6 10 11 15 20 11 20 -3 0 1 11 10
25 12 18 15 38 11 72 -3 28 -1 40 4 32 6 -10 9 -6 9 14 0 28 -14 37 -23 15 -4
-10 -6 -10 -6 -1 -1 6 8 18 19 26 22 15 17 29 -8 20 -9 -4 -13 -2 -9 4 5 8
-17 27 -26 22 -1 0 -17 -5 -34 -10z"/>
<path d="M618 313 c7 -3 16 -2 19 1 4 3 -2 6 -13 5 -11 0 -14 -3 -6 -6z"/>
<path d="M645 230 l-20 -9 20 0 c11 0 27 4 35 9 13 9 13 10 0 9 -8 0 -24 -4
-35 -9z"/>
<path d="M478 213 c7 -3 16 -2 19 1 4 3 -2 6 -13 5 -11 0 -14 -3 -6 -6z"/>
</g>
</svg>
