<?xml version="1.0" standalone="no"?>
<!DOCTYPE svg PUBLIC "-//W3C//DTD SVG 20010904//EN"
 "http://www.w3.org/TR/2001/REC-SVG-20010904/DTD/svg10.dtd">
<svg version="1.0" xmlns="http://www.w3.org/2000/svg"
 width="96.000000pt" height="68.000000pt" viewBox="0 0 96.000000 68.000000"
 preserveAspectRatio="xMidYMid meet">
<metadata>
Created by potrace 1.16, written by Peter Selinger 2001-2019
</metadata>
<g transform="translate(0.000000,68.000000) scale(0.100000,-0.100000)"
fill="#000000" stroke="none">
<path d="M487 353 c-7 -188 0 -220 56 -246 54 -25 148 -31 210 -13 71 21 82
34 63 77 -8 19 -18 43 -22 54 -6 17 -8 14 -17 -18 -13 -53 -44 -71 -126 -71
-48 -1 -75 4 -94 17 -27 17 -28 21 -25 89 l3 72 50 11 c28 7 76 20 109 30 l58
17 -21 22 c-22 21 -22 21 -54 2 -50 -31 -121 -65 -133 -66 -11 0 -5 71 11 132
6 23 2 29 -24 42 -16 9 -32 16 -34 16 -2 0 -7 -75 -10 -167z"/>
</g>
</svg>
