<?xml version="1.0" standalone="no"?>
<!DOCTYPE svg PUBLIC "-//W3C//DTD SVG 20010904//EN"
 "http://www.w3.org/TR/2001/REC-SVG-20010904/DTD/svg10.dtd">
<svg version="1.0" xmlns="http://www.w3.org/2000/svg"
 width="96.000000pt" height="68.000000pt" viewBox="0 0 96.000000 68.000000"
 preserveAspectRatio="xMidYMid meet">
<metadata>
Created by potrace 1.16, written by Peter Selinger 2001-2019
</metadata>
<g transform="translate(0.000000,68.000000) scale(0.100000,-0.100000)"
fill="#000000" stroke="none">
<path d="M403 541 c-111 -14 -205 -29 -209 -33 -11 -11 47 -30 79 -25 21 3 27
0 27 -15 0 -29 -25 -72 -67 -114 -21 -22 -47 -50 -58 -64 l-20 -24 29 18 29
18 38 -38 c31 -32 36 -42 26 -54 -18 -23 -88 -75 -125 -94 -58 -30 -27 -29 40
2 63 28 160 116 242 217 44 54 15 70 -94 50 l-45 -8 38 40 c35 36 37 42 23 56
-18 17 -12 19 87 33 l49 7 -4 -174 c-3 -192 0 -207 57 -233 52 -24 147 -30
209 -12 64 19 81 40 60 76 -7 14 -13 35 -14 48 0 35 -17 26 -24 -13 -10 -51
-39 -66 -132 -67 -101 -1 -116 14 -112 110 3 56 6 66 23 68 54 9 179 50 183
61 2 7 -8 18 -22 24 -21 10 -28 9 -43 -6 -23 -24 -120 -68 -132 -61 -10 7 -4
75 10 121 8 23 6 32 -6 41 -12 9 -9 12 22 18 21 3 57 6 80 6 23 0 45 5 48 10
7 11 -54 41 -77 39 -7 -1 -104 -13 -215 -28z m-13 -181 c0 -5 -16 -32 -36 -59
l-35 -50 -39 27 c-45 31 -47 36 -22 62 21 23 132 40 132 20z"/>
</g>
</svg>
