<?xml version="1.0" standalone="no"?>
<!DOCTYPE svg PUBLIC "-//W3C//DTD SVG 20010904//EN"
 "http://www.w3.org/TR/2001/REC-SVG-20010904/DTD/svg10.dtd">
<svg version="1.0" xmlns="http://www.w3.org/2000/svg"
 width="90.000000pt" height="92.000000pt" viewBox="0 0 90.000000 92.000000"
 preserveAspectRatio="xMidYMid meet">
<metadata>
Created by potrace 1.16, written by Peter Selinger 2001-2019
</metadata>
<g transform="translate(0.000000,92.000000) scale(0.100000,-0.100000)"
fill="#000000" stroke="none">
<path d="M490 792 c0 -39 -40 -153 -81 -232 -47 -90 -47 -90 0 -45 47 45 43
58 41 -115 0 -58 -6 -139 -12 -182 -9 -60 -8 -83 2 -107 7 -17 16 -31 21 -31
14 0 29 47 29 91 0 24 4 38 10 34 5 -3 56 1 114 10 57 8 128 15 159 15 92 0
114 20 52 45 -30 13 -43 13 -102 1 -37 -8 -69 -13 -72 -11 -2 2 0 24 3 49 7
43 9 46 44 51 78 13 92 17 92 26 0 14 -62 26 -97 18 -32 -7 -33 -6 -33 26 0
36 4 39 77 50 80 12 62 40 -24 38 l-53 -1 3 35 c4 35 6 37 66 52 67 17 77 29
41 48 -18 9 -32 8 -63 -3 -22 -8 -40 -14 -41 -14 -1 0 0 15 2 33 4 37 -16 61
-60 72 -34 9 -34 7 -3 -55 14 -27 25 -51 25 -54 0 -5 -140 -29 -144 -25 -2 2
14 40 35 84 21 44 39 81 39 82 0 1 -10 11 -22 23 -31 28 -48 25 -48 -8z m111
-224 c1 -7 3 -25 4 -39 3 -24 -1 -27 -33 -33 -64 -10 -72 -8 -72 20 0 14 -5
34 -10 45 -10 18 -7 19 50 19 41 0 60 -4 61 -12z m9 -142 c0 -33 -2 -35 -42
-41 -24 -3 -51 -9 -60 -11 -15 -5 -18 1 -18 35 0 37 2 40 33 44 85 10 87 10
87 -27z m0 -126 c0 -45 -2 -50 -22 -50 -13 0 -40 -3 -60 -6 l-38 -7 0 51 0 51
43 4 c23 2 50 4 60 5 14 2 17 -6 17 -48z"/>
<path d="M265 784 c-33 -8 -88 -15 -123 -16 -59 -1 -63 -3 -57 -22 13 -42 17
-173 6 -246 -13 -99 -7 -106 75 -86 32 8 82 18 111 21 50 6 52 6 58 -18 9 -36
-12 -196 -29 -223 -13 -19 -20 -21 -53 -14 -21 5 -39 7 -41 5 -2 -2 15 -25 39
-50 l43 -46 29 29 c24 24 31 43 43 123 8 52 19 117 24 144 8 45 7 52 -13 68
-17 15 -31 18 -69 13 l-48 -7 0 40 0 39 50 7 c27 4 52 11 55 15 8 12 -48 28
-79 23 -25 -5 -27 -3 -24 23 3 25 8 30 48 37 25 5 47 11 50 14 9 9 -26 23 -57
23 -31 0 -33 2 -33 34 0 33 1 34 50 40 55 7 70 20 41 35 -22 12 -17 13 -96 -5z
m-45 -83 c0 -32 -4 -40 -22 -45 -51 -13 -58 -9 -58 37 l0 42 40 2 40 3 0 -39z
m-2 -108 c-3 -23 -9 -29 -40 -34 -38 -6 -38 -5 -38 28 0 32 1 33 41 33 38 0
40 -2 37 -27z m0 -100 c-3 -36 -5 -38 -40 -41 l-38 -3 0 40 0 41 41 0 40 0 -3
-37z"/>
<path d="M247 349 c20 -35 40 -46 54 -32 14 14 1 39 -27 52 -40 18 -46 13 -27
-20z"/>
<path d="M160 355 c0 -14 46 -75 57 -75 14 0 21 19 16 41 -6 22 -73 53 -73 34z"/>
<path d="M16 310 c-21 -53 -21 -110 -1 -110 20 0 37 44 37 93 1 58 -16 66 -36
17z"/>
<path d="M86 328 c9 -29 43 -78 54 -78 12 0 17 20 12 48 -2 12 -17 29 -33 37
-37 20 -42 19 -33 -7z"/>
</g>
</svg>
