<?xml version="1.0" standalone="no"?>
<!DOCTYPE svg PUBLIC "-//W3C//DTD SVG 20010904//EN"
 "http://www.w3.org/TR/2001/REC-SVG-20010904/DTD/svg10.dtd">
<svg version="1.0" xmlns="http://www.w3.org/2000/svg"
 width="96.000000pt" height="68.000000pt" viewBox="0 0 96.000000 68.000000"
 preserveAspectRatio="xMidYMid meet">
<metadata>
Created by potrace 1.16, written by Peter Selinger 2001-2019
</metadata>
<g transform="translate(0.000000,68.000000) scale(0.100000,-0.100000)"
fill="#000000" stroke="none">
<path d="M577 653 c-4 -3 -7 -21 -7 -39 0 -30 -2 -32 -45 -38 -25 -4 -45 -11
-45 -16 0 -10 25 -20 51 -20 16 0 18 -5 13 -25 -9 -35 9 -31 40 10 26 33 30
35 87 35 32 0 59 4 59 10 0 17 -41 31 -72 25 -27 -6 -29 -5 -24 13 9 27 -39
64 -57 45z"/>
<path d="M286 622 c-3 -5 4 -19 15 -31 12 -12 19 -25 16 -28 -3 -2 -33 -7 -66
-10 -64 -6 -75 -15 -40 -34 21 -11 76 -8 110 5 10 5 19 -1 27 -19 16 -34 32
-32 32 5 0 26 5 31 30 37 41 8 38 21 -7 25 -29 2 -39 8 -42 23 -2 11 -8 23
-15 27 -15 10 -54 10 -60 0z"/>
<path d="M443 493 c2 -10 8 -26 12 -35 6 -16 0 -18 -51 -18 -80 0 -139 -10
-122 -21 7 -5 23 -9 35 -9 16 0 28 -12 43 -40 11 -23 18 -44 16 -49 -3 -4 -54
-11 -113 -15 -59 -4 -110 -9 -112 -12 -3 -3 1 -10 9 -15 15 -10 82 -7 205 10
38 5 73 7 77 5 4 -3 8 -20 8 -38 l0 -33 -61 -7 c-34 -3 -77 -6 -96 -6 -22 0
-32 -4 -28 -11 5 -7 41 -10 99 -8 l91 3 -3 -74 c-2 -71 8 -113 24 -97 4 3 12
45 17 92 l11 85 65 1 c37 1 80 4 96 8 l30 7 -24 13 c-18 10 -45 12 -99 7 l-74
-7 7 31 c5 21 3 30 -7 31 -44 4 95 18 190 18 61 1 112 5 112 9 0 23 -51 30
-146 21 -54 -5 -99 -7 -101 -6 -2 2 8 17 21 32 14 16 24 38 23 49 -2 17 5 22
31 24 20 2 32 8 29 15 -5 14 -85 13 -99 -1 -15 -15 -58 -1 -58 18 0 9 -11 22
-25 28 -34 16 -38 15 -32 -5z m97 -100 c0 -54 -10 -63 -71 -66 -51 -2 -54 -1
-57 23 -2 14 -13 33 -25 42 -26 20 -17 25 53 31 108 9 100 11 100 -30z"/>
</g>
</svg>
