<?xml version="1.0" standalone="no"?>
<!DOCTYPE svg PUBLIC "-//W3C//DTD SVG 20010904//EN"
 "http://www.w3.org/TR/2001/REC-SVG-20010904/DTD/svg10.dtd">
<svg version="1.0" xmlns="http://www.w3.org/2000/svg"
 width="96.000000pt" height="68.000000pt" viewBox="0 0 96.000000 68.000000"
 preserveAspectRatio="xMidYMid meet">
<metadata>
Created by potrace 1.16, written by Peter Selinger 2001-2019
</metadata>
<g transform="translate(0.000000,68.000000) scale(0.100000,-0.100000)"
fill="#000000" stroke="none">
<path d="M200 526 c0 -13 70 -76 84 -76 16 0 29 27 20 42 -10 16 -104 47 -104
34z"/>
<path d="M130 383 c0 -16 65 -73 83 -73 23 0 23 46 0 58 -28 15 -83 24 -83 15z"/>
<path d="M255 258 c-15 -23 -48 -64 -74 -91 -44 -47 -45 -49 -30 -75 8 -15 21
-27 28 -27 13 0 116 223 108 232 -2 2 -17 -16 -32 -39z"/>
</g>
</svg>
