<?xml version="1.0" standalone="no"?>
<!DOCTYPE svg PUBLIC "-//W3C//DTD SVG 20010904//EN"
 "http://www.w3.org/TR/2001/REC-SVG-20010904/DTD/svg10.dtd">
<svg version="1.0" xmlns="http://www.w3.org/2000/svg"
 width="96.000000pt" height="68.000000pt" viewBox="0 0 96.000000 68.000000"
 preserveAspectRatio="xMidYMid meet">
<metadata>
Created by potrace 1.16, written by Peter Selinger 2001-2019
</metadata>
<g transform="translate(0.000000,68.000000) scale(0.100000,-0.100000)"
fill="#000000" stroke="none">
<path d="M645 320 c-22 -6 -25 -8 -9 -9 28 -1 47 -25 40 -49 -4 -11 -2 -31 3
-45 8 -21 7 -25 -4 -20 -8 3 -15 0 -15 -6 0 -6 -3 -10 -7 -10 -20 3 -23 -2 -9
-16 17 -18 30 -20 20 -3 -5 7 -3 8 5 4 21 -13 40 26 41 82 0 38 3 51 12 46 7
-4 8 -3 4 4 -4 7 -19 12 -34 12 -21 0 -24 2 -12 10 17 11 8 11 -35 0z"/>
<path d="M530 300 c0 -5 7 -7 15 -4 8 4 15 8 15 10 0 2 -7 4 -15 4 -8 0 -15
-4 -15 -10z"/>
<path d="M435 243 c0 -24 3 -43 7 -43 4 0 4 -7 1 -17 -4 -10 -2 -14 4 -10 5 3
10 27 11 53 0 27 6 50 14 55 9 6 5 8 -12 7 -23 -2 -25 -6 -25 -45z"/>
</g>
</svg>
