<?xml version="1.0" standalone="no"?>
<!DOCTYPE svg PUBLIC "-//W3C//DTD SVG 20010904//EN"
 "http://www.w3.org/TR/2001/REC-SVG-20010904/DTD/svg10.dtd">
<svg version="1.0" xmlns="http://www.w3.org/2000/svg"
 width="96.000000pt" height="68.000000pt" viewBox="0 0 96.000000 68.000000"
 preserveAspectRatio="xMidYMid meet">
<metadata>
Created by potrace 1.16, written by Peter Selinger 2001-2019
</metadata>
<g transform="translate(0.000000,68.000000) scale(0.100000,-0.100000)"
fill="#000000" stroke="none">
<path d="M234 558 c3 -13 9 -51 12 -84 l7 -61 -58 -8 c-96 -12 -110 -24 -28
-24 65 -1 72 -3 66 -18 -11 -31 -64 -106 -107 -152 -28 -30 -35 -42 -21 -37
36 13 81 48 105 83 12 18 26 33 31 33 8 0 2 -78 -11 -143 -9 -44 5 -97 25 -97
21 0 25 25 25 151 0 65 3 119 6 119 3 0 15 -11 26 -25 20 -26 38 -25 38 1 0 8
-16 22 -35 30 -23 9 -35 21 -35 34 0 22 12 31 53 39 17 4 33 13 35 20 3 10 -6
12 -38 9 l-42 -4 6 68 c6 67 6 69 -20 78 -39 15 -47 12 -40 -12z"/>
</g>
</svg>
