<?xml version="1.0" standalone="no"?>
<!DOCTYPE svg PUBLIC "-//W3C//DTD SVG 20010904//EN"
 "http://www.w3.org/TR/2001/REC-SVG-20010904/DTD/svg10.dtd">
<svg version="1.0" xmlns="http://www.w3.org/2000/svg"
 width="96.000000pt" height="68.000000pt" viewBox="0 0 96.000000 68.000000"
 preserveAspectRatio="xMidYMid meet">
<metadata>
Created by potrace 1.16, written by Peter Selinger 2001-2019
</metadata>
<g transform="translate(0.000000,68.000000) scale(0.100000,-0.100000)"
fill="#000000" stroke="none">
<path d="M227 508 c14 -107 16 -103 -55 -103 -34 0 -62 -2 -62 -4 0 -3 6 -12
14 -20 8 -9 20 -38 28 -66 14 -49 14 -50 51 -47 l37 4 0 -46 c0 -33 4 -46 14
-46 11 0 16 14 18 47 l3 48 53 8 c42 7 52 12 48 24 -4 9 5 36 19 60 14 25 25
47 25 48 0 1 -13 8 -28 14 -23 10 -37 9 -70 -2 l-42 -15 0 27 c0 14 5 42 10
61 8 29 7 37 -7 48 -9 6 -27 12 -40 12 -23 0 -23 -2 -16 -52z m123 -114 c0 -4
-5 -24 -12 -45 -9 -31 -16 -39 -35 -39 -21 0 -23 4 -23 45 0 45 0 45 35 45 19
0 35 -3 35 -6z m-110 -54 c0 -22 -4 -40 -9 -40 -5 0 -16 -3 -24 -6 -10 -3 -18
5 -26 27 -18 51 -15 59 24 59 34 0 35 -1 35 -40z"/>
</g>
</svg>
