<?xml version="1.0" standalone="no"?>
<!DOCTYPE svg PUBLIC "-//W3C//DTD SVG 20010904//EN"
 "http://www.w3.org/TR/2001/REC-SVG-20010904/DTD/svg10.dtd">
<svg version="1.0" xmlns="http://www.w3.org/2000/svg"
 width="96.000000pt" height="68.000000pt" viewBox="0 0 96.000000 68.000000"
 preserveAspectRatio="xMidYMid meet">
<metadata>
Created by potrace 1.16, written by Peter Selinger 2001-2019
</metadata>
<g transform="translate(0.000000,68.000000) scale(0.100000,-0.100000)"
fill="#000000" stroke="none">
<path d="M556 562 c-15 -29 -64 -78 -106 -105 -32 -22 -11 -22 35 0 35 17 35
16 63 -10 28 -27 52 -35 52 -18 0 23 -14 41 -31 41 -40 0 -17 20 24 21 23 0
54 3 70 5 15 3 27 1 27 -4 0 -26 -141 -133 -148 -113 -6 18 -44 51 -58 51 -26
0 -23 -19 7 -49 17 -17 29 -31 27 -31 -2 0 -30 -12 -63 -25 l-60 -26 43 7 c41
6 43 5 34 -13 -6 -10 -20 -27 -31 -37 -34 -31 -24 -39 17 -16 24 14 51 20 73
18 28 -2 35 -7 37 -29 l3 -27 -95 -7 c-56 -4 -96 -11 -96 -17 0 -7 32 -9 95
-5 l96 5 -3 -51 -3 -52 -53 -5 -52 -6 6 32 c5 26 2 34 -15 43 -22 12 -25 9
-21 -22 1 -10 -6 -30 -15 -44 -16 -23 -16 -27 -1 -41 13 -14 21 -14 50 -4 33
12 209 42 246 42 10 0 20 -9 23 -21 9 -35 30 -16 43 40 10 48 10 53 -9 66 -27
19 -40 9 -33 -27 6 -33 4 -34 -72 -42 l-53 -5 3 52 3 52 102 5 c56 3 104 8
108 12 4 3 -3 12 -16 18 -21 12 -79 10 -158 -6 -32 -7 -32 -6 -29 27 3 32 6
34 51 43 26 4 47 12 47 17 0 12 -45 11 -90 0 -19 -5 -51 -12 -70 -15 -33 -6
-36 -4 -35 20 1 20 11 30 46 45 34 16 130 83 209 147 3 2 -4 10 -15 19 -20 15
-84 13 -160 -3 -29 -7 -30 -6 -12 13 22 25 22 35 -3 51 -17 10 -21 9 -34 -16z"/>
<path d="M315 541 c-9 -29 -62 -92 -107 -128 -36 -29 -38 -33 -18 -33 30 0
104 48 154 99 39 40 39 41 21 61 -23 25 -42 26 -50 1z"/>
<path d="M326 375 c-9 -13 -16 -28 -16 -33 0 -15 -80 -90 -133 -125 -68 -44
-39 -47 33 -3 32 20 61 36 64 36 11 0 6 -108 -6 -155 -11 -40 -10 -47 5 -63
14 -14 19 -14 26 -4 14 23 24 222 12 236 -9 10 -2 23 29 54 45 45 48 52 21 69
-16 10 -22 8 -35 -12z"/>
</g>
</svg>
