<?xml version="1.0" standalone="no"?>
<!DOCTYPE svg PUBLIC "-//W3C//DTD SVG 20010904//EN"
 "http://www.w3.org/TR/2001/REC-SVG-20010904/DTD/svg10.dtd">
<svg version="1.0" xmlns="http://www.w3.org/2000/svg"
 width="96.000000pt" height="68.000000pt" viewBox="0 0 96.000000 68.000000"
 preserveAspectRatio="xMidYMid meet">
<metadata>
Created by potrace 1.16, written by Peter Selinger 2001-2019
</metadata>
<g transform="translate(0.000000,68.000000) scale(0.100000,-0.100000)"
fill="#000000" stroke="none">
<path d="M226 513 c5 -10 10 -73 12 -141 l3 -122 -26 -10 c-46 -17 -48 -14
-41 51 7 63 -2 89 -31 89 -12 0 -14 -7 -10 -30 4 -16 0 -51 -8 -77 -8 -26 -15
-53 -15 -60 0 -18 34 -25 66 -12 41 16 147 38 156 33 4 -3 8 -14 8 -25 0 -12
5 -19 12 -17 7 3 20 45 29 94 17 93 15 104 -23 104 -15 0 -18 -10 -18 -65 0
-61 -1 -65 -25 -71 -14 -4 -28 -4 -31 -1 -3 2 -1 60 4 128 10 135 6 149 -46
149 -20 0 -23 -3 -16 -17z"/>
</g>
</svg>
