<?xml version="1.0" standalone="no"?>
<!DOCTYPE svg PUBLIC "-//W3C//DTD SVG 20010904//EN"
 "http://www.w3.org/TR/2001/REC-SVG-20010904/DTD/svg10.dtd">
<svg version="1.0" xmlns="http://www.w3.org/2000/svg"
 width="90.000000pt" height="92.000000pt" viewBox="0 0 90.000000 92.000000"
 preserveAspectRatio="xMidYMid meet">
<metadata>
Created by potrace 1.16, written by Peter Selinger 2001-2019
</metadata>
<g transform="translate(0.000000,92.000000) scale(0.100000,-0.100000)"
fill="#000000" stroke="none">
<path d="M579 804 c-18 -19 -54 -49 -79 -65 -38 -25 -50 -29 -87 -23 -35 5
-43 3 -43 -9 0 -9 5 -19 11 -23 8 -5 10 -41 6 -123 -6 -115 -25 -209 -54 -264
-22 -44 5 -30 39 19 25 36 47 104 62 195 5 30 11 37 29 36 12 0 41 3 63 7 38
7 42 5 48 -16 3 -13 6 -96 6 -185 0 -251 34 -218 49 47 7 121 6 147 -5 156
-12 9 2 13 60 16 91 4 116 21 65 42 -31 13 -46 12 -154 -10 -158 -31 -155 -31
-155 9 0 54 10 72 43 84 37 12 175 74 195 87 11 6 9 13 -9 32 -31 33 -49 30
-90 -12z"/>
<path d="M110 764 c0 -14 42 -69 68 -88 25 -19 25 -19 43 3 31 39 0 71 -83 88
-16 3 -28 2 -28 -3z"/>
<path d="M130 534 c-30 -12 -64 -26 -75 -29 -19 -6 -18 -7 5 -16 17 -7 39 -7
69 1 24 6 45 9 47 7 2 -2 -3 -23 -11 -47 -14 -41 -14 -45 4 -64 27 -30 51 -81
51 -109 0 -22 -5 -25 -61 -31 -34 -3 -77 -6 -95 -6 -39 0 -42 -9 -14 -35 17
-15 25 -16 64 -6 92 23 153 9 396 -89 65 -26 120 -42 145 -42 40 0 210 56 220
72 3 4 -39 11 -92 14 -204 12 -311 27 -424 58 l-117 32 5 51 c5 50 4 53 -31
82 l-37 30 41 51 c45 57 48 69 23 88 -24 18 -49 16 -113 -12z"/>
</g>
</svg>
