<?xml version="1.0" standalone="no"?>
<!DOCTYPE svg PUBLIC "-//W3C//DTD SVG 20010904//EN"
 "http://www.w3.org/TR/2001/REC-SVG-20010904/DTD/svg10.dtd">
<svg version="1.0" xmlns="http://www.w3.org/2000/svg"
 width="96.000000pt" height="68.000000pt" viewBox="0 0 96.000000 68.000000"
 preserveAspectRatio="xMidYMid meet">
<metadata>
Created by potrace 1.16, written by Peter Selinger 2001-2019
</metadata>
<g transform="translate(0.000000,68.000000) scale(0.100000,-0.100000)"
fill="#000000" stroke="none">
<path d="M530 584 c-6 -14 -10 -29 -10 -33 0 -4 -18 -34 -41 -65 -23 -32 -39
-60 -36 -63 3 -3 28 16 55 41 40 37 56 46 86 46 20 0 36 -4 36 -8 0 -4 -14
-27 -31 -50 -48 -65 -8 -54 69 18 l63 60 -27 10 c-19 7 -40 6 -77 -5 -28 -8
-52 -13 -54 -11 -3 2 3 16 13 31 16 25 16 26 -2 40 -27 20 -33 19 -44 -11z"/>
</g>
</svg>
