<?xml version="1.0" standalone="no"?>
<!DOCTYPE svg PUBLIC "-//W3C//DTD SVG 20010904//EN"
 "http://www.w3.org/TR/2001/REC-SVG-20010904/DTD/svg10.dtd">
<svg version="1.0" xmlns="http://www.w3.org/2000/svg"
 width="96.000000pt" height="68.000000pt" viewBox="0 0 96.000000 68.000000"
 preserveAspectRatio="xMidYMid meet">
<metadata>
Created by potrace 1.16, written by Peter Selinger 2001-2019
</metadata>
<g transform="translate(0.000000,68.000000) scale(0.100000,-0.100000)"
fill="#000000" stroke="none">
<path d="M350 600 c0 -16 -122 -101 -136 -96 -7 3 -15 0 -18 -7 -3 -9 -5 -8
-5 1 -1 7 -5 11 -10 7 -6 -3 -6 -17 1 -36 10 -29 8 -91 -8 -200 -9 -67 9 -68
106 -9 l80 50 0 -27 c0 -62 -79 -170 -145 -199 -27 -12 -28 -13 -7 -14 34 0
128 64 156 107 28 43 45 119 47 212 2 52 -1 66 -16 77 -28 21 -59 18 -49 -3 4
-10 10 -44 12 -77 4 -65 1 -70 -63 -87 -22 -5 -48 -13 -58 -16 -17 -4 -18 2
-16 95 2 55 6 99 10 97 3 -2 48 17 100 43 69 34 94 51 91 63 -4 24 -72 41 -72
19z"/>
<path d="M630 504 c-36 -8 -83 -12 -105 -9 l-40 5 3 -227 c2 -126 5 -234 8
-242 19 -57 41 123 43 361 1 66 1 67 34 77 17 5 52 11 77 13 l45 2 -2 -62 c-1
-34 -7 -78 -13 -98 -10 -29 -16 -35 -38 -34 -15 1 -31 2 -36 1 -13 -1 45 -61
59 -61 28 0 55 49 74 136 11 50 23 98 26 107 5 11 -3 20 -24 31 -16 9 -34 15
-38 15 -4 -1 -37 -8 -73 -15z"/>
<path d="M240 412 c0 -15 58 -54 70 -47 18 11 10 33 -14 39 -13 3 -31 9 -40
12 -9 3 -16 1 -16 -4z"/>
<path d="M570 412 c0 -14 59 -62 76 -62 22 0 16 36 -8 48 -37 18 -68 24 -68
14z"/>
</g>
</svg>
