<?xml version="1.0" standalone="no"?>
<!DOCTYPE svg PUBLIC "-//W3C//DTD SVG 20010904//EN"
 "http://www.w3.org/TR/2001/REC-SVG-20010904/DTD/svg10.dtd">
<svg version="1.0" xmlns="http://www.w3.org/2000/svg"
 width="96.000000pt" height="68.000000pt" viewBox="0 0 96.000000 68.000000"
 preserveAspectRatio="xMidYMid meet">
<metadata>
Created by potrace 1.16, written by Peter Selinger 2001-2019
</metadata>
<g transform="translate(0.000000,68.000000) scale(0.100000,-0.100000)"
fill="#000000" stroke="none">
<path d="M235 543 c-9 -36 -41 -88 -83 -135 -33 -36 -33 -38 -19 -68 9 -17 21
-55 27 -85 7 -34 17 -55 25 -55 7 0 15 4 17 9 4 12 139 18 156 7 8 -5 17 -4
22 0 15 16 59 137 54 146 -11 17 -48 25 -83 17 -20 -4 -37 -7 -38 -5 -2 2 24
24 57 50 33 26 60 52 60 57 0 5 -12 15 -26 21 -20 9 -33 9 -57 -1 -70 -28 -86
-22 -50 20 15 18 5 31 -33 43 -18 5 -23 1 -29 -21z m89 -95 c-4 -7 -22 -32
-41 -55 -33 -41 -37 -43 -89 -43 -60 0 -67 9 -26 35 15 10 38 28 52 41 14 12
41 24 60 27 19 2 39 5 43 5 5 1 5 -4 1 -10z m56 -113 c0 -23 -4 -25 -43 -25
-39 0 -43 2 -41 23 1 12 3 23 3 25 1 1 19 2 41 2 36 0 40 -2 40 -25z m-122
-12 c-4 -24 -18 -33 -50 -33 -23 0 -28 4 -28 25 0 23 4 25 40 25 33 0 40 -3
38 -17z m106 -57 c-5 -21 -12 -26 -39 -26 -59 0 -54 46 5 52 44 4 42 5 34 -26z
m-104 -5 c0 -12 -9 -20 -27 -24 -34 -6 -43 -1 -43 24 0 15 7 19 35 19 28 0 35
-4 35 -19z"/>
<path d="M660 460 c-19 -5 -77 -12 -127 -16 -70 -5 -91 -10 -83 -19 8 -10 39
-115 44 -152 3 -19 16 -29 24 -17 10 15 172 27 172 13 0 -6 7 -9 17 -7 24 5
85 174 68 188 -19 16 -74 20 -115 10z m50 -50 c0 -27 -3 -30 -34 -30 -28 0
-34 4 -38 25 -6 31 -2 35 39 35 30 0 33 -3 33 -30z m-122 -11 c3 -28 -15 -39
-65 -39 -19 0 -23 6 -23 29 0 31 15 40 60 38 19 -2 26 -8 28 -28z m116 -66
c-9 -38 -15 -42 -46 -36 -23 4 -28 11 -28 34 0 27 3 29 40 29 39 0 40 -1 34
-27z m-114 -13 c0 -28 -3 -30 -34 -30 -26 0 -36 5 -41 20 -9 29 2 40 41 40 31
0 34 -2 34 -30z"/>
<path d="M741 217 c1 -20 68 -70 84 -63 22 8 18 34 -6 47 -39 20 -79 29 -78
16z"/>
<path d="M614 181 c31 -33 56 -40 56 -17 0 18 -19 33 -55 42 l-30 7 29 -32z"/>
<path d="M510 195 c0 -3 10 -26 21 -51 32 -67 79 -89 191 -88 82 0 126 13 113
34 -6 10 -95 60 -95 54 0 -2 5 -13 12 -24 16 -25 10 -29 -50 -37 -72 -8 -133
22 -155 77 -8 22 -20 40 -26 40 -6 0 -11 -2 -11 -5z"/>
<path d="M340 182 c0 -4 13 -23 29 -42 27 -32 30 -33 37 -16 5 14 0 25 -22 43
-30 24 -44 29 -44 15z"/>
<path d="M440 145 c-18 -30 -20 -38 -9 -51 12 -14 15 -14 31 6 19 23 25 80 9
80 -5 0 -19 -16 -31 -35z"/>
<path d="M130 157 c0 -8 -7 -20 -15 -27 -18 -15 -20 -46 -4 -56 6 -3 18 0 26
9 18 18 22 78 6 84 -7 3 -13 -2 -13 -10z"/>
<path d="M270 165 c0 -15 34 -55 46 -55 23 0 16 26 -11 44 -25 17 -35 20 -35
11z"/>
<path d="M200 151 c0 -5 9 -19 20 -32 l19 -24 1 26 c0 16 -7 29 -16 33 -21 8
-24 8 -24 -3z"/>
</g>
</svg>
