<?xml version="1.0" standalone="no"?>
<!DOCTYPE svg PUBLIC "-//W3C//DTD SVG 20010904//EN"
 "http://www.w3.org/TR/2001/REC-SVG-20010904/DTD/svg10.dtd">
<svg version="1.0" xmlns="http://www.w3.org/2000/svg"
 width="96.000000pt" height="68.000000pt" viewBox="0 0 96.000000 68.000000"
 preserveAspectRatio="xMidYMid meet">
<metadata>
Created by potrace 1.16, written by Peter Selinger 2001-2019
</metadata>
<g transform="translate(0.000000,68.000000) scale(0.100000,-0.100000)"
fill="#000000" stroke="none">
<path d="M373 158 c28 -47 42 -56 50 -33 9 23 -2 44 -34 60 -42 22 -43 19 -16
-27z"/>
<path d="M280 178 c0 -7 11 -26 24 -43 21 -26 25 -28 31 -12 8 19 -7 42 -37
58 -13 7 -18 6 -18 -3z"/>
<path d="M111 140 c-24 -43 -22 -70 3 -70 22 0 49 57 42 86 -9 34 -19 30 -45
-16z"/>
<path d="M215 141 c19 -37 33 -47 41 -27 8 22 -14 56 -37 56 -18 0 -19 -2 -4
-29z"/>
</g>
</svg>
