<?xml version="1.0" standalone="no"?>
<!DOCTYPE svg PUBLIC "-//W3C//DTD SVG 20010904//EN"
 "http://www.w3.org/TR/2001/REC-SVG-20010904/DTD/svg10.dtd">
<svg version="1.0" xmlns="http://www.w3.org/2000/svg"
 width="96.000000pt" height="68.000000pt" viewBox="0 0 96.000000 68.000000"
 preserveAspectRatio="xMidYMid meet">
<metadata>
Created by potrace 1.16, written by Peter Selinger 2001-2019
</metadata>
<g transform="translate(0.000000,68.000000) scale(0.100000,-0.100000)"
fill="#000000" stroke="none">
<path d="M427 422 l5 -39 -57 -8 c-41 -5 -54 -10 -44 -16 8 -5 35 -7 62 -3 38
5 47 3 47 -10 0 -8 10 -24 22 -36 17 -16 35 -20 89 -20 83 0 129 9 129 25 0
18 -35 25 -73 14 -53 -15 -124 -11 -131 7 -11 28 -7 32 60 44 76 14 76 37 0
26 -57 -9 -61 -7 -61 24 0 20 -6 26 -27 28 -25 3 -26 2 -21 -36z"/>
</g>
</svg>
