<?xml version="1.0" standalone="no"?>
<!DOCTYPE svg PUBLIC "-//W3C//DTD SVG 20010904//EN"
 "http://www.w3.org/TR/2001/REC-SVG-20010904/DTD/svg10.dtd">
<svg version="1.0" xmlns="http://www.w3.org/2000/svg"
 width="96.000000pt" height="68.000000pt" viewBox="0 0 96.000000 68.000000"
 preserveAspectRatio="xMidYMid meet">
<metadata>
Created by potrace 1.16, written by Peter Selinger 2001-2019
</metadata>
<g transform="translate(0.000000,68.000000) scale(0.100000,-0.100000)"
fill="#000000" stroke="none">
<path d="M400 170 c0 -36 -4 -50 -14 -50 -7 0 -28 -3 -45 -6 -31 -6 -31 -6
-29 27 3 29 -1 34 -19 37 -18 3 -23 -1 -22 -20 0 -13 -3 -35 -7 -50 -8 -33 17
-48 47 -30 15 10 170 42 200 42 5 0 9 -7 9 -16 0 -32 35 -8 51 36 18 47 13 60
-23 60 -13 0 -18 -8 -18 -29 0 -31 -18 -41 -74 -41 -28 0 -28 1 -22 45 7 41 5
45 -13 45 -18 0 -21 -6 -21 -50z"/>
</g>
</svg>
