<?xml version="1.0" standalone="no"?>
<!DOCTYPE svg PUBLIC "-//W3C//DTD SVG 20010904//EN"
 "http://www.w3.org/TR/2001/REC-SVG-20010904/DTD/svg10.dtd">
<svg version="1.0" xmlns="http://www.w3.org/2000/svg"
 width="96.000000pt" height="68.000000pt" viewBox="0 0 96.000000 68.000000"
 preserveAspectRatio="xMidYMid meet">
<metadata>
Created by potrace 1.16, written by Peter Selinger 2001-2019
</metadata>
<g transform="translate(0.000000,68.000000) scale(0.100000,-0.100000)"
fill="#000000" stroke="none">
<path d="M303 578 c-6 -7 -14 -24 -18 -38 -15 -47 -49 -90 -72 -90 -20 0 -21
-3 -13 -26 6 -14 10 -50 10 -80 l0 -54 -50 0 c-37 0 -50 -4 -50 -15 0 -15 61
-31 79 -20 30 18 -9 -127 -45 -166 -9 -11 -14 -22 -10 -26 22 -22 106 117 106
174 0 28 8 33 70 40 l51 6 -3 -94 -3 -94 -32 1 c-40 2 -41 -5 -5 -39 33 -32
46 -33 64 -9 10 13 27 17 73 18 129 0 384 17 379 25 -3 5 -23 12 -45 15 l-39
7 26 45 c26 44 26 46 8 59 -15 12 -42 13 -144 7 -69 -5 -142 -8 -162 -7 -21 0
-38 0 -38 -1 0 -2 6 -16 14 -32 8 -16 18 -46 21 -66 l7 -38 -41 0 -41 0 0 110
0 110 25 0 c14 0 25 5 25 10 0 6 -12 10 -26 10 l-27 0 6 70 c5 66 5 70 -16 75
-12 3 -41 -1 -64 -9 -24 -8 -43 -12 -43 -8 0 3 23 29 51 58 39 39 47 53 37 61
-23 19 -55 24 -65 11z m53 -264 c-4 -9 -22 -14 -56 -14 l-50 0 0 60 0 59 38 6
c20 4 44 7 52 8 11 2 16 -11 18 -52 2 -29 1 -60 -2 -67z m363 -113 c7 -5 11
-17 8 -27 -3 -11 -8 -31 -11 -46 -6 -24 -11 -28 -42 -28 -20 0 -34 3 -32 8 2
4 14 28 26 55 24 49 28 52 51 38z m-170 -50 c16 -50 14 -61 -13 -61 -19 0 -25
7 -30 36 -4 19 -9 41 -12 49 -6 13 26 27 37 16 4 -3 11 -21 18 -40z m78 4 c-2
-25 -7 -48 -10 -51 -12 -13 -37 6 -37 28 0 13 -3 33 -6 46 -6 19 -3 22 26 22
32 0 32 0 27 -45z"/>
<path d="M280 376 c0 -16 32 -46 48 -46 16 0 15 25 0 37 -24 18 -48 23 -48 9z"/>
<path d="M573 516 c-39 -6 -74 -14 -78 -17 -12 -13 32 -15 88 -4 52 10 57 10
57 -6 0 -24 -27 -49 -52 -49 -20 0 -20 -1 -5 -18 10 -10 17 -21 17 -25 0 -6
-35 -13 -110 -21 -25 -3 -47 -5 -50 -6 -3 0 2 -5 10 -10 14 -9 68 -7 128 6 19
4 22 0 22 -23 0 -37 -14 -57 -34 -50 -9 4 -16 3 -16 -2 0 -11 44 -51 57 -51
16 0 30 50 26 91 l-5 36 83 6 c45 4 84 9 87 12 14 14 -18 20 -94 17 -102 -3
-112 13 -34 56 53 29 61 45 31 62 -22 11 -29 11 -128 -4z"/>
<path d="M278 244 c-9 -9 25 -64 40 -64 20 0 10 41 -14 56 -11 8 -23 12 -26 8z"/>
</g>
</svg>
