<?xml version="1.0" standalone="no"?>
<!DOCTYPE svg PUBLIC "-//W3C//DTD SVG 20010904//EN"
 "http://www.w3.org/TR/2001/REC-SVG-20010904/DTD/svg10.dtd">
<svg version="1.0" xmlns="http://www.w3.org/2000/svg"
 width="96.000000pt" height="68.000000pt" viewBox="0 0 96.000000 68.000000"
 preserveAspectRatio="xMidYMid meet">
<metadata>
Created by potrace 1.16, written by Peter Selinger 2001-2019
</metadata>
<g transform="translate(0.000000,68.000000) scale(0.100000,-0.100000)"
fill="#000000" stroke="none">
<path d="M305 510 c-16 -4 -53 -8 -81 -9 l-51 -1 10 -40 c8 -29 8 -62 -1 -122
-6 -45 -10 -84 -7 -87 3 -2 34 1 69 7 35 7 75 12 89 12 14 0 29 5 33 11 4 8
-15 9 -70 4 l-76 -7 0 39 c0 22 3 68 6 102 l7 61 38 0 c50 0 139 21 133 32 -6
10 -57 9 -99 -2z"/>
</g>
</svg>
