<?xml version="1.0" standalone="no"?>
<!DOCTYPE svg PUBLIC "-//W3C//DTD SVG 20010904//EN"
 "http://www.w3.org/TR/2001/REC-SVG-20010904/DTD/svg10.dtd">
<svg version="1.0" xmlns="http://www.w3.org/2000/svg"
 width="96.000000pt" height="68.000000pt" viewBox="0 0 96.000000 68.000000"
 preserveAspectRatio="xMidYMid meet">
<metadata>
Created by potrace 1.16, written by Peter Selinger 2001-2019
</metadata>
<g transform="translate(0.000000,68.000000) scale(0.100000,-0.100000)"
fill="#000000" stroke="none">
<path d="M609 436 c-10 -10 -352 -36 -389 -30 -43 7 -49 0 -25 -26 9 -10 23
-70 35 -145 10 -71 24 -133 29 -138 12 -12 31 0 31 19 0 11 17 14 78 14 44 0
113 3 155 6 l76 7 18 -32 c38 -66 76 -16 103 134 11 61 22 122 26 137 5 22 1
29 -24 42 -28 15 -103 22 -113 12z m51 -85 l0 -50 -47 1 c-27 0 -112 -5 -190
-12 -79 -8 -146 -11 -149 -8 -7 7 -18 88 -13 89 33 6 272 27 327 28 l72 1 0
-49z m-5 -108 c-12 -71 -15 -75 -42 -70 -14 3 -91 -1 -172 -8 -80 -7 -149 -11
-153 -8 -5 2 -8 24 -8 49 0 39 3 44 23 45 12 0 87 6 167 13 80 8 155 14 168
15 21 1 22 -2 17 -36z"/>
</g>
</svg>
