<?xml version="1.0" standalone="no"?>
<!DOCTYPE svg PUBLIC "-//W3C//DTD SVG 20010904//EN"
 "http://www.w3.org/TR/2001/REC-SVG-20010904/DTD/svg10.dtd">
<svg version="1.0" xmlns="http://www.w3.org/2000/svg"
 width="96.000000pt" height="68.000000pt" viewBox="0 0 96.000000 68.000000"
 preserveAspectRatio="xMidYMid meet">
<metadata>
Created by potrace 1.16, written by Peter Selinger 2001-2019
</metadata>
<g transform="translate(0.000000,68.000000) scale(0.100000,-0.100000)"
fill="#000000" stroke="none">
<path d="M465 553 c-5 -26 -20 -51 -51 -80 -52 -50 -46 -55 17 -15 42 27 139
49 139 32 0 -4 -14 -25 -31 -46 -49 -62 -12 -55 70 13 61 51 68 60 54 71 -22
16 -58 15 -112 -4 -50 -17 -62 -12 -36 16 14 16 15 22 5 35 -23 28 -47 18 -55
-22z"/>
</g>
</svg>
