<?xml version="1.0" standalone="no"?>
<!DOCTYPE svg PUBLIC "-//W3C//DTD SVG 20010904//EN"
 "http://www.w3.org/TR/2001/REC-SVG-20010904/DTD/svg10.dtd">
<svg version="1.0" xmlns="http://www.w3.org/2000/svg"
 width="90.000000pt" height="92.000000pt" viewBox="0 0 90.000000 92.000000"
 preserveAspectRatio="xMidYMid meet">
<metadata>
Created by potrace 1.16, written by Peter Selinger 2001-2019
</metadata>
<g transform="translate(0.000000,92.000000) scale(0.100000,-0.100000)"
fill="#000000" stroke="none">
<path d="M227 780 c-10 -78 -94 -227 -187 -335 -23 -26 -39 -50 -36 -53 9 -9
87 50 119 90 17 21 34 38 39 38 12 0 10 -250 -3 -308 -8 -40 -7 -57 5 -86 17
-40 31 -46 41 -17 3 11 7 107 7 215 2 167 0 198 -14 212 -14 14 -12 22 30 92
25 43 53 89 64 104 24 36 23 43 -8 67 -38 30 -51 26 -57 -19z"/>
<path d="M615 764 c-27 -7 -97 -21 -155 -29 -57 -9 -107 -18 -109 -21 -13 -12
29 -24 87 -24 l62 0 -25 -49 c-22 -45 -59 -86 -130 -148 -22 -20 -24 -25 -13
-48 6 -14 16 -24 22 -23 6 2 37 12 70 23 57 19 58 19 72 0 8 -10 14 -38 14
-61 0 -47 3 -45 -105 -59 -46 -6 -48 -8 -30 -22 14 -10 38 -13 78 -11 l57 3 0
-51 c0 -62 1 -62 -131 -71 -107 -7 -129 -22 -63 -43 28 -10 50 -9 97 0 34 7
144 16 245 19 104 3 183 10 184 16 0 5 -11 18 -25 29 -26 19 -33 19 -138 8
-60 -7 -113 -11 -117 -8 -4 2 -5 28 -2 58 4 47 8 53 30 56 75 9 130 25 130 38
0 21 -43 27 -100 15 -28 -6 -53 -11 -55 -11 -2 0 -1 22 2 50 4 32 1 55 -6 64
-15 17 -10 20 58 36 l55 13 29 -37 c16 -20 35 -36 43 -36 20 0 28 45 12 77
-15 32 -100 93 -130 93 -17 0 -17 -3 7 -35 l27 -34 -24 -6 c-77 -18 -173 -35
-194 -35 -23 0 -19 7 45 77 72 77 81 95 59 109 -7 5 25 15 76 25 100 20 121
33 92 55 -24 17 -35 17 -101 -2z"/>
</g>
</svg>
