<?xml version="1.0" standalone="no"?>
<!DOCTYPE svg PUBLIC "-//W3C//DTD SVG 20010904//EN"
 "http://www.w3.org/TR/2001/REC-SVG-20010904/DTD/svg10.dtd">
<svg version="1.0" xmlns="http://www.w3.org/2000/svg"
 width="96.000000pt" height="68.000000pt" viewBox="0 0 96.000000 68.000000"
 preserveAspectRatio="xMidYMid meet">
<metadata>
Created by potrace 1.16, written by Peter Selinger 2001-2019
</metadata>
<g transform="translate(0.000000,68.000000) scale(0.100000,-0.100000)"
fill="#000000" stroke="none">
<path d="M304 556 c-9 -51 -64 -132 -146 -213 -57 -57 -68 -73 -52 -73 23 0
101 53 123 83 27 38 33 3 22 -127 -12 -130 -7 -166 24 -166 20 0 23 22 28 177
4 105 2 135 -9 144 -8 6 -14 14 -14 18 0 3 25 36 55 74 30 37 52 73 49 81 -5
13 -46 36 -64 36 -5 0 -12 -15 -16 -34z"/>
<path d="M635 540 c-22 -4 -79 -13 -127 -20 -99 -14 -108 -30 -17 -30 32 0 59
-4 59 -9 0 -18 -84 -103 -121 -122 -34 -17 -38 -22 -29 -39 13 -24 8 -24 81
-5 33 9 64 13 69 10 8 -5 15 -84 8 -86 -2 0 -25 -2 -53 -5 -79 -8 -86 -18 -15
-24 l65 -5 0 -40 0 -40 -92 -5 c-98 -6 -117 -12 -84 -30 15 -8 44 -8 103 0 45
5 137 10 203 10 121 0 165 6 165 20 0 18 -73 32 -124 25 -130 -18 -126 -18
-126 18 0 47 9 54 78 62 84 10 79 31 -7 27 l-61 -3 0 35 c0 19 -3 41 -6 49 -4
12 6 17 50 22 52 7 56 6 79 -21 28 -32 47 -25 47 17 0 26 -7 33 -55 56 -54 26
-88 25 -51 -3 15 -10 16 -15 5 -18 -18 -7 -178 -36 -193 -36 -6 0 17 27 52 59
41 39 60 64 56 74 -4 11 4 16 35 21 23 3 59 9 82 12 24 4 38 11 36 17 -4 15
-58 18 -112 7z"/>
</g>
</svg>
