<?xml version="1.0" standalone="no"?>
<!DOCTYPE svg PUBLIC "-//W3C//DTD SVG 20010904//EN"
 "http://www.w3.org/TR/2001/REC-SVG-20010904/DTD/svg10.dtd">
<svg version="1.0" xmlns="http://www.w3.org/2000/svg"
 width="96.000000pt" height="68.000000pt" viewBox="0 0 96.000000 68.000000"
 preserveAspectRatio="xMidYMid meet">
<metadata>
Created by potrace 1.16, written by Peter Selinger 2001-2019
</metadata>
<g transform="translate(0.000000,68.000000) scale(0.100000,-0.100000)"
fill="#000000" stroke="none">
<path d="M310 605 c0 -2 18 -21 41 -43 l41 -38 -116 -19 c-71 -11 -115 -23
-113 -29 6 -20 50 -18 152 4 l100 22 82 -55 c92 -62 174 -96 251 -104 50 -6
69 5 41 23 -6 3 -19 24 -29 46 l-17 40 -7 -36 c-6 -33 -9 -36 -34 -30 -63 16
-182 71 -230 107 -20 15 4 27 56 27 23 0 42 5 42 10 0 19 -30 23 -83 12 l-52
-11 -35 40 c-25 28 -43 39 -62 39 -16 0 -28 -2 -28 -5z"/>
</g>
</svg>
