<?xml version="1.0" standalone="no"?>
<!DOCTYPE svg PUBLIC "-//W3C//DTD SVG 20010904//EN"
 "http://www.w3.org/TR/2001/REC-SVG-20010904/DTD/svg10.dtd">
<svg version="1.0" xmlns="http://www.w3.org/2000/svg"
 width="96.000000pt" height="68.000000pt" viewBox="0 0 96.000000 68.000000"
 preserveAspectRatio="xMidYMid meet">
<metadata>
Created by potrace 1.16, written by Peter Selinger 2001-2019
</metadata>
<g transform="translate(0.000000,68.000000) scale(0.100000,-0.100000)"
fill="#000000" stroke="none">
<path d="M500 153 c0 -5 9 -19 20 -33 18 -23 20 -23 20 -5 0 11 -9 26 -20 33
-11 7 -20 9 -20 5z"/>
<path d="M220 122 c-45 -54 -45 -53 -30 -62 18 -11 43 8 36 27 -3 7 -2 13 2
13 4 0 8 9 9 20 2 24 1 25 -17 2z"/>
<path d="M417 120 c10 -11 21 -20 25 -20 4 0 0 9 -9 20 -10 11 -21 20 -25 20
-4 0 0 -9 9 -20z"/>
<path d="M317 123 c-6 -6 14 -43 23 -43 3 0 6 9 7 19 2 19 -19 35 -30 24z"/>
</g>
</svg>
