<?xml version="1.0" standalone="no"?>
<!DOCTYPE svg PUBLIC "-//W3C//DTD SVG 20010904//EN"
 "http://www.w3.org/TR/2001/REC-SVG-20010904/DTD/svg10.dtd">
<svg version="1.0" xmlns="http://www.w3.org/2000/svg"
 width="96.000000pt" height="68.000000pt" viewBox="0 0 96.000000 68.000000"
 preserveAspectRatio="xMidYMid meet">
<metadata>
Created by potrace 1.16, written by Peter Selinger 2001-2019
</metadata>
<g transform="translate(0.000000,68.000000) scale(0.100000,-0.100000)"
fill="#000000" stroke="none">
<path d="M344 578 c-4 -7 -8 -28 -8 -47 -1 -33 -4 -36 -41 -43 -50 -11 -65 -5
-65 26 0 24 -16 36 -51 36 -19 0 -19 -1 -3 -31 18 -37 12 -46 -36 -51 -51 -4
-43 -22 12 -26 44 -3 47 -5 55 -40 8 -32 13 -37 37 -35 24 2 27 -1 24 -25 -3
-26 -6 -27 -76 -32 l-72 -5 -4 -92 c-3 -100 6 -136 23 -90 6 16 11 31 11 35 0
4 14 15 32 25 22 12 34 15 42 7 14 -14 36 -13 36 3 0 10 -58 57 -71 57 -3 0
-5 -12 -4 -27 0 -18 -6 -29 -17 -31 -14 -3 -18 3 -18 25 0 60 9 71 57 75 24 2
49 0 55 -3 6 -4 9 -39 7 -90 -4 -79 -3 -84 16 -84 18 0 20 8 23 89 1 58 7 93
15 98 6 5 32 7 57 6 l45 -3 3 -62 c4 -87 -8 -129 -37 -125 -22 3 -22 3 -6 -22
21 -32 46 -33 63 -5 16 25 18 36 26 140 8 97 3 103 -93 93 l-71 -7 0 32 c0 29
2 31 36 31 29 0 35 3 30 16 -3 8 -3 27 0 41 6 21 11 24 40 21 18 -2 30 0 28 4
-3 4 4 8 15 8 12 0 21 4 21 9 0 11 -25 21 -56 21 -27 0 -28 3 -14 29 7 14 5
22 -8 33 -25 22 -50 29 -58 16z m-14 -131 c0 -48 -82 -66 -88 -20 -3 18 3 22
30 26 18 2 39 5 46 5 6 1 12 -4 12 -11z"/>
<path d="M660 544 c-202 -28 -188 -25 -160 -36 14 -5 38 -8 53 -5 36 5 41 -5
27 -48 -10 -31 -15 -35 -47 -35 -28 0 -33 -3 -24 -13 7 -9 9 -50 6 -120 -6
-108 1 -131 30 -107 12 10 15 10 15 -2 0 -17 -24 -53 -63 -95 -38 -40 -28 -57
11 -20 16 15 31 27 35 27 12 0 87 82 82 90 -5 8 42 20 83 20 14 0 34 -8 44
-17 11 -10 22 -13 27 -7 5 5 11 65 13 134 l3 125 -97 -2 c-54 -1 -98 0 -98 1
0 2 9 13 20 26 11 13 20 29 20 37 0 16 -9 13 80 20 92 6 117 17 77 32 -16 6
-31 10 -35 10 -4 -1 -50 -8 -102 -15z m78 -150 c3 -18 -5 -22 -61 -32 -96 -18
-127 -16 -127 7 0 25 10 31 68 41 78 13 117 8 120 -16z m2 -67 c0 -21 -7 -24
-83 -35 -109 -16 -107 -16 -107 13 0 23 4 25 43 26 23 0 62 4 87 8 25 5 48 9
53 10 4 0 7 -9 7 -22z m0 -75 c0 -26 -3 -28 -32 -28 -18 0 -61 -3 -95 -8 l-63
-8 0 31 c0 20 4 29 13 26 9 -4 120 5 170 14 4 0 7 -12 7 -27z"/>
<path d="M343 246 c5 -12 1 -26 -9 -38 -17 -17 -16 -18 13 -12 18 3 33 1 37
-5 12 -19 28 -12 24 9 -2 12 -18 31 -37 43 -32 20 -34 20 -28 3z"/>
<path d="M680 153 c0 -12 114 -123 126 -123 20 0 25 32 10 56 -9 12 -40 34
-70 48 -59 28 -66 30 -66 19z"/>
</g>
</svg>
