<?xml version="1.0" standalone="no"?>
<!DOCTYPE svg PUBLIC "-//W3C//DTD SVG 20010904//EN"
 "http://www.w3.org/TR/2001/REC-SVG-20010904/DTD/svg10.dtd">
<svg version="1.0" xmlns="http://www.w3.org/2000/svg"
 width="96.000000pt" height="68.000000pt" viewBox="0 0 96.000000 68.000000"
 preserveAspectRatio="xMidYMid meet">
<metadata>
Created by potrace 1.16, written by Peter Selinger 2001-2019
</metadata>
<g transform="translate(0.000000,68.000000) scale(0.100000,-0.100000)"
fill="#000000" stroke="none">
<path d="M488 570 c5 -56 6 -55 -75 -65 l-53 -6 0 34 c0 18 -5 38 -12 45 -16
16 -72 16 -62 1 4 -6 10 -26 14 -45 8 -32 7 -33 -29 -36 -47 -4 -47 -22 1 -26
34 -3 38 -6 44 -38 3 -19 4 -37 2 -40 -3 -2 -42 -7 -87 -11 -44 -3 -81 -10
-81 -14 0 -19 58 -21 179 -5 71 9 190 16 265 16 134 0 159 7 115 31 -15 7 -49
9 -107 4 l-85 -7 6 23 c4 13 7 32 7 41 0 12 11 19 38 23 61 11 69 14 52 25 -8
6 -28 10 -44 10 -27 0 -28 2 -23 33 6 36 -14 57 -51 57 -17 0 -18 -6 -14 -50z
m-7 -130 c-7 -35 -7 -35 -64 -38 l-57 -3 0 40 0 40 58 3 c31 2 60 1 64 -2 4
-3 3 -21 -1 -40z"/>
</g>
</svg>
