<?xml version="1.0" standalone="no"?>
<!DOCTYPE svg PUBLIC "-//W3C//DTD SVG 20010904//EN"
 "http://www.w3.org/TR/2001/REC-SVG-20010904/DTD/svg10.dtd">
<svg version="1.0" xmlns="http://www.w3.org/2000/svg"
 width="96.000000pt" height="68.000000pt" viewBox="0 0 96.000000 68.000000"
 preserveAspectRatio="xMidYMid meet">
<metadata>
Created by potrace 1.16, written by Peter Selinger 2001-2019
</metadata>
<g transform="translate(0.000000,68.000000) scale(0.100000,-0.100000)"
fill="#000000" stroke="none">
<path d="M744 483 c-10 -16 -42 -51 -71 -80 -46 -45 -51 -53 -36 -61 12 -6 33
-3 63 9 l45 18 -35 1 -35 0 63 56 c50 45 60 59 51 70 -16 20 -24 18 -45 -13z"/>
<path d="M750 395 c7 -8 10 -15 6 -15 -3 0 3 -9 14 -20 11 -11 25 -20 30 -20
19 0 10 29 -16 49 -31 24 -52 28 -34 6z"/>
</g>
</svg>
