<?xml version="1.0" standalone="no"?>
<!DOCTYPE svg PUBLIC "-//W3C//DTD SVG 20010904//EN"
 "http://www.w3.org/TR/2001/REC-SVG-20010904/DTD/svg10.dtd">
<svg version="1.0" xmlns="http://www.w3.org/2000/svg"
 width="96.000000pt" height="68.000000pt" viewBox="0 0 96.000000 68.000000"
 preserveAspectRatio="xMidYMid meet">
<metadata>
Created by potrace 1.16, written by Peter Selinger 2001-2019
</metadata>
<g transform="translate(0.000000,68.000000) scale(0.100000,-0.100000)"
fill="#000000" stroke="none">
<path d="M595 618 c-2 -7 -5 -24 -7 -38 -2 -21 -10 -26 -41 -30 -49 -6 -52
-24 -5 -28 34 -3 36 -5 31 -33 -6 -39 10 -37 43 6 25 33 30 35 85 35 32 0 60
4 64 9 8 14 -28 31 -64 31 -24 0 -31 4 -31 20 0 30 -66 54 -75 28z"/>
<path d="M327 604 c-3 -4 0 -19 8 -34 13 -26 13 -28 -8 -34 -12 -3 -39 -6 -60
-6 -44 0 -46 -17 -5 -37 20 -10 33 -10 59 -1 29 10 34 9 47 -10 21 -32 42 -28
42 7 0 25 6 31 35 41 44 14 37 31 -10 23 -32 -5 -35 -4 -35 20 0 17 -7 26 -22
31 -30 7 -43 7 -51 0z"/>
<path d="M450 493 c0 -5 7 -17 15 -27 8 -10 12 -22 10 -26 -2 -4 -35 -8 -73
-9 -63 -2 -151 -18 -109 -20 14 -1 17 -11 17 -63 -1 -96 -55 -211 -130 -275
-14 -11 -22 -24 -19 -27 9 -9 95 59 92 73 -2 6 2 10 8 8 11 -2 62 84 72 123 3
12 14 20 27 20 21 0 22 -3 16 -42 -13 -78 -13 -83 9 -81 11 1 61 7 110 13 50
6 117 10 150 8 68 -3 73 -11 55 -77 -11 -42 -34 -53 -58 -29 -9 9 -12 8 -12
-5 0 -9 4 -17 9 -17 5 0 13 -9 16 -20 3 -11 15 -20 25 -20 31 0 56 36 75 106
17 63 17 65 -1 80 -13 10 -33 13 -64 9 -146 -16 -282 -26 -286 -22 -3 3 -3 14
0 25 6 17 19 20 137 24 71 3 133 9 137 12 17 17 -27 26 -93 19 -97 -10 -164
-10 -167 1 -5 16 42 24 165 31 101 6 117 9 112 22 -3 9 1 24 10 33 14 15 13
18 -5 35 -15 14 -28 16 -66 10 -39 -5 -46 -4 -41 8 3 8 0 20 -6 26 -8 8 -2 11
24 11 18 0 45 3 57 7 45 12 0 21 -75 16 -62 -5 -73 -4 -73 10 0 18 -5 22 -42
31 -16 3 -28 3 -28 -1z m92 -79 c16 -15 -6 -42 -38 -46 -32 -4 -34 -2 -34 24
0 25 3 28 33 28 19 0 36 -3 39 -6z m-112 -29 c0 -15 -6 -25 -14 -25 -8 0 -21
-3 -30 -6 -10 -4 -18 0 -22 10 -11 28 4 46 36 46 25 0 30 -4 30 -25z m108 -61
c-4 -23 -78 -34 -78 -12 0 22 14 36 40 40 31 5 43 -4 38 -28z m112 22 c0 -18
-13 -27 -51 -33 -24 -3 -29 -1 -29 16 0 22 12 29 53 30 17 1 27 -4 27 -13z
m-220 -31 c0 -23 -4 -25 -44 -25 -41 0 -43 1 -38 25 4 22 10 25 43 25 35 0 39
-3 39 -25z"/>
<path d="M570 145 c0 -15 34 -55 46 -55 20 0 17 37 -3 44 -10 3 -24 9 -30 12
-7 3 -13 3 -13 -1z"/>
<path d="M480 132 c0 -16 32 -52 46 -52 22 0 17 27 -8 44 -25 17 -38 20 -38 8z"/>
<path d="M390 115 c0 -21 36 -59 48 -51 8 5 8 13 0 31 -12 26 -48 41 -48 20z"/>
<path d="M297 84 c-17 -35 -15 -54 4 -54 13 0 41 68 34 80 -11 18 -21 11 -38
-26z"/>
</g>
</svg>
