<?xml version="1.0" standalone="no"?>
<!DOCTYPE svg PUBLIC "-//W3C//DTD SVG 20010904//EN"
 "http://www.w3.org/TR/2001/REC-SVG-20010904/DTD/svg10.dtd">
<svg version="1.0" xmlns="http://www.w3.org/2000/svg"
 width="96.000000pt" height="68.000000pt" viewBox="0 0 96.000000 68.000000"
 preserveAspectRatio="xMidYMid meet">
<metadata>
Created by potrace 1.16, written by Peter Selinger 2001-2019
</metadata>
<g transform="translate(0.000000,68.000000) scale(0.100000,-0.100000)"
fill="#000000" stroke="none">
<path d="M531 262 c-2 -84 15 -153 32 -135 4 3 7 1 7 -5 0 -18 51 -39 90 -38
107 5 115 6 100 16 -12 8 -11 10 8 10 12 0 22 6 22 13 0 9 3 8 9 -2 17 -26 22
8 6 39 -8 16 -15 32 -14 36 0 3 -2 8 -5 11 -3 4 -6 -2 -6 -13 0 -11 -7 -29
-15 -40 -8 -12 -12 -23 -10 -26 6 -5 -32 -10 -85 -10 -80 0 -88 2 -95 20 -11
26 -15 125 -6 137 19 24 19 55 1 65 -34 18 -38 11 -39 -78z"/>
</g>
</svg>
