<?xml version="1.0" standalone="no"?>
<!DOCTYPE svg PUBLIC "-//W3C//DTD SVG 20010904//EN"
 "http://www.w3.org/TR/2001/REC-SVG-20010904/DTD/svg10.dtd">
<svg version="1.0" xmlns="http://www.w3.org/2000/svg"
 width="96.000000pt" height="68.000000pt" viewBox="0 0 96.000000 68.000000"
 preserveAspectRatio="xMidYMid meet">
<metadata>
Created by potrace 1.16, written by Peter Selinger 2001-2019
</metadata>
<g transform="translate(0.000000,68.000000) scale(0.100000,-0.100000)"
fill="#000000" stroke="none">
<path d="M267 614 c-3 -3 -2 -16 2 -28 5 -11 12 -49 16 -83 l7 -61 -29 -5
c-15 -3 -52 -9 -80 -12 -29 -4 -53 -10 -53 -15 0 -14 43 -20 98 -13 28 3 52 3
52 -1 0 -21 -87 -132 -150 -193 -33 -31 -40 -43 -27 -43 32 0 74 29 127 87
l52 58 -7 -65 c-4 -36 -10 -82 -15 -103 -6 -30 -4 -42 13 -63 l21 -27 18 23
c15 18 18 40 18 121 l0 98 30 -17 c21 -12 32 -14 40 -6 18 18 0 43 -36 50 -32
6 -34 8 -34 50 l0 43 45 7 c25 3 47 10 50 14 10 17 -26 32 -61 27 l-36 -6 6
32 c21 103 21 102 -17 120 -39 19 -41 19 -50 11z"/>
<path d="M620 503 c-14 -2 -55 -8 -93 -14 -79 -13 -80 -29 -1 -29 l54 0 0 -54
c0 -52 -1 -54 -31 -60 -17 -3 -58 -6 -90 -6 -64 0 -76 -11 -31 -29 18 -7 40
-8 67 -1 85 20 85 20 85 -69 0 -100 11 -201 21 -201 15 0 29 75 29 160 0 137
-6 130 116 130 103 0 125 8 83 30 -14 8 -49 9 -106 5 l-85 -8 3 47 c2 31 -1
50 -10 55 -17 11 20 21 82 21 46 0 62 12 31 24 -16 6 -82 6 -124 -1z"/>
</g>
</svg>
