<?xml version="1.0" standalone="no"?>
<!DOCTYPE svg PUBLIC "-//W3C//DTD SVG 20010904//EN"
 "http://www.w3.org/TR/2001/REC-SVG-20010904/DTD/svg10.dtd">
<svg version="1.0" xmlns="http://www.w3.org/2000/svg"
 width="96.000000pt" height="68.000000pt" viewBox="0 0 96.000000 68.000000"
 preserveAspectRatio="xMidYMid meet">
<metadata>
Created by potrace 1.16, written by Peter Selinger 2001-2019
</metadata>
<g transform="translate(0.000000,68.000000) scale(0.100000,-0.100000)"
fill="#000000" stroke="none">
<path d="M598 605 c-24 -13 -69 -31 -101 -40 -67 -19 -74 -30 -14 -23 57 7
207 48 207 57 0 5 -11 13 -24 19 -19 9 -32 6 -68 -13z"/>
<path d="M679 528 c-6 -13 -23 -35 -37 -50 -35 -37 -21 -35 51 9 55 33 58 37
42 50 -27 19 -43 16 -56 -9z"/>
<path d="M520 524 c0 -19 37 -64 52 -64 32 0 20 38 -19 59 -24 12 -33 14 -33
5z"/>
<path d="M416 488 c11 -21 47 -58 55 -58 17 0 16 30 -2 49 -21 23 -65 30 -53
9z"/>
</g>
</svg>
