<?xml version="1.0" standalone="no"?>
<!DOCTYPE svg PUBLIC "-//W3C//DTD SVG 20010904//EN"
 "http://www.w3.org/TR/2001/REC-SVG-20010904/DTD/svg10.dtd">
<svg version="1.0" xmlns="http://www.w3.org/2000/svg"
 width="96.000000pt" height="68.000000pt" viewBox="0 0 96.000000 68.000000"
 preserveAspectRatio="xMidYMid meet">
<metadata>
Created by potrace 1.16, written by Peter Selinger 2001-2019
</metadata>
<g transform="translate(0.000000,68.000000) scale(0.100000,-0.100000)"
fill="#000000" stroke="none">
<path d="M460 595 c-19 -13 -66 -34 -105 -47 l-70 -23 42 -3 c40 -3 182 29
213 48 12 7 11 12 -4 29 -24 26 -32 26 -76 -4z"/>
<path d="M557 506 c-43 -69 -51 -73 -148 -76 -72 -2 -75 -2 -61 12 16 16 -2
46 -35 59 -37 14 -40 4 -9 -35 14 -19 26 -37 26 -40 0 -12 -96 -6 -109 7 -11
9 -14 9 -18 0 -2 -7 -15 -28 -29 -48 -13 -20 -24 -42 -24 -50 0 -29 36 -15 60
23 l24 39 136 12 c74 6 173 16 219 21 47 5 88 7 93 4 5 -3 2 -17 -8 -31 l-16
-26 58 8 c82 10 89 21 34 58 -26 18 -109 23 -125 9 -6 -5 -23 -6 -39 -3 l-29
6 42 23 c44 25 49 35 27 58 -24 23 -40 16 -69 -30z"/>
<path d="M410 514 c0 -15 43 -64 56 -64 22 0 17 37 -8 54 -23 16 -48 21 -48
10z"/>
<path d="M552 389 c2 -6 18 -19 36 -30 29 -19 33 -19 38 -5 8 22 3 26 -41 36
-22 5 -35 4 -33 -1z"/>
<path d="M423 365 c31 -28 57 -33 57 -11 0 8 -14 19 -31 25 -49 17 -57 13 -26
-14z"/>
<path d="M272 333 c-12 -15 -22 -35 -22 -44 0 -28 37 -11 51 23 17 42 -1 56
-29 21z"/>
<path d="M360 342 c0 -29 44 -61 96 -72 72 -15 167 -3 172 22 2 11 -6 18 -27
23 -17 4 -33 11 -36 16 -4 5 -13 9 -22 9 -12 0 -13 -3 -3 -15 44 -53 -109 -44
-163 9 -9 10 -17 13 -17 8z"/>
<path d="M352 232 c-11 -37 -30 -60 -97 -117 l-30 -25 30 11 c16 6 44 21 62
35 l33 25 39 -21 c22 -11 43 -24 46 -30 7 -12 -61 -45 -149 -71 -58 -17 -59
-18 -23 -18 49 -1 124 18 162 41 40 24 43 23 115 -17 57 -32 68 -35 143 -34
129 1 133 12 15 38 -56 13 -123 32 -147 42 l-44 19 54 49 c51 47 52 49 31 60
-16 8 -49 10 -107 5 -79 -6 -85 -5 -79 11 7 17 -9 35 -32 35 -6 0 -16 -17 -22
-38z m177 -44 c-6 -13 -22 -31 -36 -42 -25 -18 -26 -18 -74 4 -44 21 -62 39
-41 41 81 7 118 11 121 15 2 2 12 4 22 4 16 0 17 -4 8 -22z"/>
</g>
</svg>
