<?xml version="1.0" standalone="no"?>
<!DOCTYPE svg PUBLIC "-//W3C//DTD SVG 20010904//EN"
 "http://www.w3.org/TR/2001/REC-SVG-20010904/DTD/svg10.dtd">
<svg version="1.0" xmlns="http://www.w3.org/2000/svg"
 width="96.000000pt" height="68.000000pt" viewBox="0 0 96.000000 68.000000"
 preserveAspectRatio="xMidYMid meet">
<metadata>
Created by potrace 1.16, written by Peter Selinger 2001-2019
</metadata>
<g transform="translate(0.000000,68.000000) scale(0.100000,-0.100000)"
fill="#000000" stroke="none">
<path d="M585 450 c-27 -5 -117 -13 -198 -20 -121 -9 -151 -9 -164 2 -13 10
-17 10 -20 1 -3 -7 -15 -28 -29 -48 -27 -41 -31 -65 -9 -65 16 0 52 36 60 59
4 13 46 20 227 38 123 11 227 19 231 16 4 -3 1 -16 -8 -29 l-16 -25 53 6 c91
11 99 20 44 54 -35 22 -79 25 -171 11z"/>
</g>
</svg>
