<?xml version="1.0" standalone="no"?>
<!DOCTYPE svg PUBLIC "-//W3C//DTD SVG 20010904//EN"
 "http://www.w3.org/TR/2001/REC-SVG-20010904/DTD/svg10.dtd">
<svg version="1.0" xmlns="http://www.w3.org/2000/svg"
 width="96.000000pt" height="68.000000pt" viewBox="0 0 96.000000 68.000000"
 preserveAspectRatio="xMidYMid meet">
<metadata>
Created by potrace 1.16, written by Peter Selinger 2001-2019
</metadata>
<g transform="translate(0.000000,68.000000) scale(0.100000,-0.100000)"
fill="#000000" stroke="none">
<path d="M706 495 c-44 -85 -69 -101 -170 -110 -48 -4 -99 -10 -114 -15 -55
-16 7 -23 95 -11 47 7 87 10 89 8 5 -5 -113 -102 -160 -132 -41 -27 -15 -30
36 -4 45 23 131 90 159 124 13 15 39 22 115 30 88 10 96 13 72 23 -16 7 -48 9
-80 5 l-52 -6 34 42 c57 70 57 69 35 85 -11 9 -22 15 -25 16 -3 0 -18 -25 -34
-55z"/>
</g>
</svg>
