<?xml version="1.0" standalone="no"?>
<!DOCTYPE svg PUBLIC "-//W3C//DTD SVG 20010904//EN"
 "http://www.w3.org/TR/2001/REC-SVG-20010904/DTD/svg10.dtd">
<svg version="1.0" xmlns="http://www.w3.org/2000/svg"
 width="96.000000pt" height="68.000000pt" viewBox="0 0 96.000000 68.000000"
 preserveAspectRatio="xMidYMid meet">
<metadata>
Created by potrace 1.16, written by Peter Selinger 2001-2019
</metadata>
<g transform="translate(0.000000,68.000000) scale(0.100000,-0.100000)"
fill="#000000" stroke="none">
<path d="M495 606 c-11 -7 -67 -30 -125 -50 l-105 -36 80 3 c80 2 80 2 83 -25
4 -29 18 -26 -188 -45 -77 -7 -83 -9 -62 -21 18 -10 39 -11 100 -3 168 24 152
25 152 -8 0 -28 0 -28 -78 -35 -43 -4 -85 -4 -95 0 -20 7 -22 -4 -4 -25 8 -9
20 -38 27 -66 7 -27 17 -55 21 -60 5 -7 31 -9 68 -5 57 5 60 4 66 -18 9 -35
-1 -42 -66 -42 -78 0 -76 -18 3 -22 49 -2 62 -6 64 -20 4 -31 -8 -34 -158 -38
-84 -2 -114 -14 -65 -25 42 -9 530 9 534 21 6 20 -60 31 -137 23 -129 -13
-130 -13 -130 21 0 29 2 30 48 31 26 0 56 4 66 8 35 14 -2 24 -60 16 l-54 -6
0 31 0 32 72 -3 c72 -4 72 -4 87 26 9 17 26 47 38 67 l23 38 -21 21 c-20 20
-28 21 -110 14 l-89 -7 0 26 c0 26 1 26 73 26 103 0 237 12 237 21 0 11 -51
26 -80 24 -14 -1 -71 -6 -126 -10 l-102 -8 5 28 c4 16 1 30 -7 35 -7 4 14 12
51 19 74 13 93 26 65 47 -25 18 -76 18 -101 0z m123 -248 c-3 -21 -9 -23 -70
-26 -67 -3 -68 -3 -68 23 0 24 2 25 71 25 67 0 70 -1 67 -22z m-188 -12 c0
-21 -6 -24 -56 -31 -62 -7 -59 -8 -68 22 -6 19 -3 22 26 26 86 10 98 8 98 -17z
m172 -61 c-4 -23 -8 -25 -63 -25 -56 0 -59 1 -59 25 0 24 2 25 64 25 62 0 63
0 58 -25z m-169 2 c10 -27 -9 -38 -59 -35 -36 2 -50 7 -52 20 -2 12 5 18 25
21 57 8 81 7 86 -6z"/>
</g>
</svg>
