<?xml version="1.0" standalone="no"?>
<!DOCTYPE svg PUBLIC "-//W3C//DTD SVG 20010904//EN"
 "http://www.w3.org/TR/2001/REC-SVG-20010904/DTD/svg10.dtd">
<svg version="1.0" xmlns="http://www.w3.org/2000/svg"
 width="96.000000pt" height="68.000000pt" viewBox="0 0 96.000000 68.000000"
 preserveAspectRatio="xMidYMid meet">
<metadata>
Created by potrace 1.16, written by Peter Selinger 2001-2019
</metadata>
<g transform="translate(0.000000,68.000000) scale(0.100000,-0.100000)"
fill="#000000" stroke="none">
<path d="M560 562 c-91 -13 -167 -26 -170 -28 -2 -3 2 -9 9 -14 11 -6 13 -26
8 -88 -9 -110 -23 -163 -70 -262 -23 -47 -43 -89 -45 -95 -12 -26 44 36 73 81
29 45 53 120 79 249 6 28 10 30 54 31 32 1 50 -3 59 -15 11 -14 12 -14 13 6 0
12 8 27 18 32 15 9 15 10 -4 11 -13 0 -24 8 -27 20 -3 14 -14 20 -31 20 -30 0
-32 -5 -11 -27 21 -21 10 -33 -31 -33 -32 0 -34 2 -34 34 0 42 7 44 189 60 78
6 134 15 132 21 -3 21 -52 21 -211 -3z"/>
<path d="M670 505 c0 -17 -7 -28 -22 -34 -18 -6 -19 -9 -5 -14 10 -4 14 -13
11 -22 -3 -8 -1 -15 4 -15 6 0 13 8 17 19 4 13 19 20 56 25 30 4 47 11 43 17
-3 6 -19 7 -35 4 -26 -6 -29 -4 -27 17 2 17 -3 24 -19 26 -19 3 -23 -1 -23
-23z"/>
<path d="M230 483 c-104 -20 -108 -22 -90 -33 8 -6 30 -10 48 -10 17 0 32 -2
32 -5 0 -21 -39 -91 -86 -152 -56 -75 -54 -92 6 -48 36 27 50 21 50 -20 0 -37
16 -43 78 -31 53 11 57 14 65 46 4 19 11 44 13 56 8 29 -20 35 -87 19 -58 -14
-57 -18 4 -15 37 2 37 1 37 -38 0 -38 -2 -40 -36 -47 -20 -3 -37 -5 -39 -3 -1
2 -7 24 -12 49 -10 45 -9 48 33 110 24 35 44 72 44 82 0 12 8 17 28 17 34 0
57 14 48 29 -9 14 -40 12 -136 -6z"/>
<path d="M640 403 c-41 -6 -94 -12 -117 -12 -40 -1 -55 -12 -34 -25 5 -4 12
-25 16 -49 10 -57 19 -67 61 -60 33 6 41 -1 26 -23 -11 -18 -96 -23 -117 -8
-25 18 -39 18 -31 -1 4 -10 -1 -15 -14 -15 -11 0 -20 -4 -20 -10 0 -5 11 -10
25 -10 27 0 33 -13 37 -84 2 -23 9 -41 17 -44 12 -4 13 8 8 65 l-7 70 53 6
c28 2 53 4 54 3 2 -1 4 -13 5 -27 3 -22 -1 -24 -39 -27 -24 -2 -43 -8 -43 -13
0 -20 34 -21 105 -1 63 17 76 18 86 6 16 -20 39 -17 39 5 0 21 -15 35 -47 45
-18 6 -22 4 -17 -8 3 -9 2 -16 -4 -16 -6 0 -17 -3 -25 -6 -9 -3 -16 3 -20 16
-7 29 22 42 91 38 l57 -3 3 -51 c3 -58 -16 -89 -49 -79 -23 8 -24 2 -3 -30 37
-56 81 -17 100 87 11 65 10 75 -4 91 -17 19 -31 19 -154 0 -34 -5 -38 -3 -38
16 0 18 6 21 44 21 43 0 43 0 69 58 36 84 17 97 -113 75z m77 -33 c2 -17 -4
-20 -37 -20 -23 0 -40 5 -43 14 -8 20 2 26 43 26 29 0 36 -4 37 -20z m-129
-12 c3 -15 -44 -32 -60 -21 -16 9 -7 32 15 36 31 6 42 3 45 -15z m117 -44 c0
-14 -7 -19 -30 -19 -37 0 -48 31 -13 38 34 6 43 2 43 -19z m-115 -14 c0 -23
-31 -27 -49 -7 -14 17 -4 27 26 27 16 0 23 -6 23 -20z"/>
</g>
</svg>
