<?xml version="1.0" standalone="no"?>
<!DOCTYPE svg PUBLIC "-//W3C//DTD SVG 20010904//EN"
 "http://www.w3.org/TR/2001/REC-SVG-20010904/DTD/svg10.dtd">
<svg version="1.0" xmlns="http://www.w3.org/2000/svg"
 width="96.000000pt" height="68.000000pt" viewBox="0 0 96.000000 68.000000"
 preserveAspectRatio="xMidYMid meet">
<metadata>
Created by potrace 1.16, written by Peter Selinger 2001-2019
</metadata>
<g transform="translate(0.000000,68.000000) scale(0.100000,-0.100000)"
fill="#000000" stroke="none">
<path d="M270 402 c0 -16 32 -52 46 -52 21 0 17 38 -5 50 -23 12 -41 13 -41 2z"/>
<path d="M360 330 c-25 -5 -93 -11 -152 -15 -60 -5 -108 -12 -108 -16 0 -5 11
-16 25 -25 23 -15 31 -14 132 10 59 13 125 28 146 32 20 3 37 10 37 15 0 10
-15 10 -80 -1z"/>
</g>
</svg>
