<?xml version="1.0" standalone="no"?>
<!DOCTYPE svg PUBLIC "-//W3C//DTD SVG 20010904//EN"
 "http://www.w3.org/TR/2001/REC-SVG-20010904/DTD/svg10.dtd">
<svg version="1.0" xmlns="http://www.w3.org/2000/svg"
 width="96.000000pt" height="68.000000pt" viewBox="0 0 96.000000 68.000000"
 preserveAspectRatio="xMidYMid meet">
<metadata>
Created by potrace 1.16, written by Peter Selinger 2001-2019
</metadata>
<g transform="translate(0.000000,68.000000) scale(0.100000,-0.100000)"
fill="#000000" stroke="none">
<path d="M595 543 c5 -10 12 -58 17 -107 12 -112 4 -136 -47 -136 l-35 0 6 39
c5 33 3 41 -14 50 -31 16 -35 14 -29 -16 3 -16 -1 -42 -8 -60 -11 -26 -11 -35
0 -49 12 -17 15 -17 51 -2 22 9 75 22 119 30 72 13 80 13 83 -1 13 -55 44 -31
62 46 11 52 11 58 -6 70 -33 24 -47 17 -40 -21 10 -53 0 -66 -50 -66 l-44 0 0
48 c0 27 5 75 11 107 10 53 9 60 -7 72 -10 7 -31 13 -47 13 -24 0 -28 -3 -22
-17z"/>
</g>
</svg>
