<?xml version="1.0" standalone="no"?>
<!DOCTYPE svg PUBLIC "-//W3C//DTD SVG 20010904//EN"
 "http://www.w3.org/TR/2001/REC-SVG-20010904/DTD/svg10.dtd">
<svg version="1.0" xmlns="http://www.w3.org/2000/svg"
 width="90.000000pt" height="92.000000pt" viewBox="0 0 90.000000 92.000000"
 preserveAspectRatio="xMidYMid meet">
<metadata>
Created by potrace 1.16, written by Peter Selinger 2001-2019
</metadata>
<g transform="translate(0.000000,92.000000) scale(0.100000,-0.100000)"
fill="#000000" stroke="none">
<path d="M486 835 c-6 -31 -86 -144 -108 -153 -4 -2 -8 -8 -8 -13 0 -14 72 26
99 55 19 20 34 26 69 26 l44 0 -25 -42 c-28 -48 -46 -56 -134 -57 -35 -1 -63
-3 -63 -4 0 -2 6 -17 14 -33 8 -16 17 -54 21 -84 10 -72 20 -93 43 -80 28 15
225 31 233 18 14 -22 37 2 63 69 15 37 34 78 41 90 17 25 9 34 -47 57 -31 13
-42 13 -92 0 -32 -8 -60 -13 -62 -11 -3 2 20 27 51 55 l56 51 -26 17 c-24 15
-28 15 -68 0 -61 -23 -75 -21 -49 7 27 28 27 36 5 53 -32 24 -50 17 -57 -21z
m204 -212 c0 -28 -1 -28 -65 -29 -62 -2 -65 -1 -65 22 0 19 6 23 38 27 91 9
92 9 92 -20z m-167 -15 c8 -28 7 -29 -48 -35 -43 -5 -45 -4 -45 20 0 20 6 27
28 30 54 8 60 7 65 -15z m152 -65 c-4 -16 -7 -29 -8 -29 -1 -1 -26 -4 -54 -6
-52 -5 -53 -5 -53 23 0 25 4 28 38 32 87 9 85 10 77 -20z m-145 3 c0 -3 -4
-16 -10 -30 -8 -21 -16 -26 -44 -26 -28 0 -34 4 -38 24 -4 22 -1 25 26 29 53
7 66 7 66 3z"/>
<path d="M185 838 c4 -13 10 -73 12 -134 l5 -111 -76 -13 c-95 -16 -96 -35 -3
-35 l65 0 -14 -35 c-25 -59 -76 -139 -126 -195 -53 -59 -59 -72 -26 -54 39 21
119 102 146 148 14 24 28 39 30 33 2 -7 -2 -67 -9 -135 -17 -161 -16 -224 3
-244 32 -32 43 17 46 216 l4 184 22 -28 c26 -32 46 -27 46 11 0 19 -8 28 -35
40 -29 12 -35 19 -35 44 0 17 5 30 10 30 6 0 27 7 48 16 36 15 36 16 17 30
-12 9 -31 13 -48 10 -26 -5 -27 -4 -22 32 2 20 7 69 10 109 5 72 5 72 -24 88
-42 21 -55 19 -46 -7z"/>
<path d="M342 413 c-26 -50 -29 -93 -6 -93 24 0 48 67 37 104 l-9 31 -22 -42z"/>
<path d="M580 436 c0 -19 57 -69 69 -62 14 9 14 43 1 51 -27 17 -70 23 -70 11z"/>
<path d="M766 405 c41 -48 62 -61 77 -46 20 20 -2 58 -43 75 -68 27 -75 21
-34 -29z"/>
<path d="M440 417 c0 -18 50 -69 63 -64 15 5 19 28 9 45 -12 18 -72 34 -72 19z"/>
<path d="M565 338 c-38 -10 -91 -19 -117 -20 -47 -1 -60 -10 -37 -24 8 -5 10
-36 5 -103 -5 -77 -4 -100 8 -116 13 -18 15 -18 21 -3 5 12 25 18 78 23 40 3
80 9 90 11 13 4 20 -3 28 -25 13 -37 20 -38 45 -10 16 18 19 38 20 123 0 57 4
108 8 114 8 13 -41 53 -63 51 -9 -1 -47 -10 -86 -21z m95 -63 c0 -32 -2 -34
-27 -29 -16 2 -61 -2 -100 -9 l-73 -15 0 33 c0 31 3 33 48 43 26 5 71 10 100
11 l52 1 0 -35z m0 -79 c0 -32 -10 -57 -20 -51 -5 3 -48 -2 -96 -10 -48 -8
-89 -13 -92 -11 -2 3 -1 21 2 41 6 32 10 35 44 36 20 0 55 4 77 8 73 15 85 13
85 -13z"/>
</g>
</svg>
