<?xml version="1.0" standalone="no"?>
<!DOCTYPE svg PUBLIC "-//W3C//DTD SVG 20010904//EN"
 "http://www.w3.org/TR/2001/REC-SVG-20010904/DTD/svg10.dtd">
<svg version="1.0" xmlns="http://www.w3.org/2000/svg"
 width="96.000000pt" height="68.000000pt" viewBox="0 0 96.000000 68.000000"
 preserveAspectRatio="xMidYMid meet">
<metadata>
Created by potrace 1.16, written by Peter Selinger 2001-2019
</metadata>
<g transform="translate(0.000000,68.000000) scale(0.100000,-0.100000)"
fill="#000000" stroke="none">
<path d="M658 273 c-46 -5 -52 -30 -7 -31 17 0 33 -3 36 -6 9 -8 -16 -95 -34
-123 -15 -22 -22 -25 -59 -20 l-43 4 26 -33 c50 -67 111 -33 144 79 11 40 25
76 30 82 5 5 9 12 9 17 0 7 -56 40 -62 36 -2 -1 -20 -3 -40 -5z"/>
</g>
</svg>
