<?xml version="1.0" standalone="no"?>
<!DOCTYPE svg PUBLIC "-//W3C//DTD SVG 20010904//EN"
 "http://www.w3.org/TR/2001/REC-SVG-20010904/DTD/svg10.dtd">
<svg version="1.0" xmlns="http://www.w3.org/2000/svg"
 width="96.000000pt" height="68.000000pt" viewBox="0 0 96.000000 68.000000"
 preserveAspectRatio="xMidYMid meet">
<metadata>
Created by potrace 1.16, written by Peter Selinger 2001-2019
</metadata>
<g transform="translate(0.000000,68.000000) scale(0.100000,-0.100000)"
fill="#000000" stroke="none">
<path d="M503 324 c-3 -9 -9 -30 -12 -48 -7 -30 -9 -31 -68 -36 -34 -3 -65 -8
-68 -12 -11 -11 42 -21 75 -14 34 6 35 5 16 -32 -18 -35 -57 -71 -126 -117
-46 -31 -50 -36 -25 -30 66 14 152 82 203 158 13 20 29 38 33 38 5 1 14 3 19
4 6 1 24 3 40 4 17 0 30 6 30 12 0 8 -14 10 -40 6 -43 -6 -46 -2 -28 38 10 22
9 28 -3 36 -21 13 -39 11 -46 -7z"/>
</g>
</svg>
