<?xml version="1.0" standalone="no"?>
<!DOCTYPE svg PUBLIC "-//W3C//DTD SVG 20010904//EN"
 "http://www.w3.org/TR/2001/REC-SVG-20010904/DTD/svg10.dtd">
<svg version="1.0" xmlns="http://www.w3.org/2000/svg"
 width="90.000000pt" height="92.000000pt" viewBox="0 0 90.000000 92.000000"
 preserveAspectRatio="xMidYMid meet">
<metadata>
Created by potrace 1.16, written by Peter Selinger 2001-2019
</metadata>
<g transform="translate(0.000000,92.000000) scale(0.100000,-0.100000)"
fill="#000000" stroke="none">
<path d="M584 829 c-21 -25 -149 -89 -176 -89 -9 0 -20 -5 -24 -11 -5 -9 9
-10 55 -5 66 8 68 7 73 -49 l3 -30 -108 -11 c-59 -6 -110 -14 -114 -17 -3 -4
8 -13 25 -20 26 -11 49 -11 117 -2 l85 12 0 -152 0 -153 -75 -7 c-41 -4 -75
-11 -75 -16 0 -17 44 -27 98 -22 l52 6 0 -45 0 -45 -46 -7 c-26 -3 -64 -6 -85
-6 -71 0 -90 -19 -38 -40 24 -10 44 -11 99 -1 38 7 130 14 205 15 74 2 139 6
142 10 4 3 -1 14 -11 24 -14 14 -33 17 -119 14 l-102 -2 0 45 0 45 60 1 c33 0
68 4 78 8 17 6 17 8 -2 25 -21 19 -71 24 -112 11 -18 -6 -19 2 -19 143 l0 150
31 6 c17 3 66 6 108 6 119 0 146 13 96 46 -23 15 -34 15 -125 2 l-100 -14 6
36 c5 31 3 38 -18 47 -21 9 -19 12 40 33 67 25 76 39 37 64 -32 21 -38 20 -61
-5z"/>
<path d="M155 719 c-27 -10 -67 -18 -87 -19 -36 0 -49 -12 -28 -25 12 -7 13
-310 1 -371 -5 -25 -4 -54 3 -74 13 -39 36 -52 36 -21 0 18 6 21 38 21 20 0
46 3 57 6 16 4 24 -2 38 -30 20 -43 40 -39 60 12 12 30 12 61 4 170 -6 84 -6
165 0 220 9 85 9 87 -15 109 -29 27 -39 27 -107 2z m69 -51 c3 -13 6 -44 6
-70 l0 -46 -37 1 c-21 1 -50 -1 -65 -6 l-28 -7 0 64 c0 61 1 65 28 74 15 6 41
11 58 11 25 1 33 -4 38 -21z m6 -192 l0 -55 -32 2 c-18 0 -50 -3 -70 -7 l-38
-8 0 50 0 50 63 10 c34 5 65 10 70 11 4 0 7 -23 7 -53z m-4 -161 c-6 -37 -10
-42 -29 -38 -12 2 -41 0 -64 -5 l-43 -10 0 58 0 58 68 8 c76 10 79 7 68 -71z"/>
<path d="M670 526 l0 -53 -42 -7 c-41 -7 -42 -8 -23 -22 11 -8 28 -13 38 -10
13 3 16 0 13 -12 -3 -9 -8 -30 -12 -46 -9 -39 10 -27 36 23 20 41 41 51 103
51 20 0 37 4 37 10 0 14 -35 30 -69 30 -29 0 -30 1 -20 27 9 24 7 30 -11 45
-39 32 -50 23 -50 -36z"/>
<path d="M360 536 c0 -7 7 -30 15 -49 l15 -36 -38 -10 c-20 -6 -43 -11 -49
-11 -20 0 -15 -18 8 -30 12 -7 32 -9 47 -4 42 12 44 11 56 -26 15 -46 32 -36
28 16 -2 37 0 42 23 48 31 8 24 26 -11 26 -21 0 -24 5 -24 35 0 24 -6 37 -19
45 -27 14 -51 13 -51 -4z"/>
</g>
</svg>
