<?xml version="1.0" standalone="no"?>
<!DOCTYPE svg PUBLIC "-//W3C//DTD SVG 20010904//EN"
 "http://www.w3.org/TR/2001/REC-SVG-20010904/DTD/svg10.dtd">
<svg version="1.0" xmlns="http://www.w3.org/2000/svg"
 width="96.000000pt" height="68.000000pt" viewBox="0 0 96.000000 68.000000"
 preserveAspectRatio="xMidYMid meet">
<metadata>
Created by potrace 1.16, written by Peter Selinger 2001-2019
</metadata>
<g transform="translate(0.000000,68.000000) scale(0.100000,-0.100000)"
fill="#000000" stroke="none">
<path d="M505 538 c-9 -43 -65 -134 -110 -181 -22 -23 -30 -37 -21 -37 16 0
120 97 154 145 l22 30 88 -93 c85 -91 88 -92 132 -91 86 1 88 12 8 47 -81 36
-211 137 -216 168 -4 18 -28 44 -43 44 -4 0 -11 -15 -14 -32z"/>
</g>
</svg>
