<?xml version="1.0" standalone="no"?>
<!DOCTYPE svg PUBLIC "-//W3C//DTD SVG 20010904//EN"
 "http://www.w3.org/TR/2001/REC-SVG-20010904/DTD/svg10.dtd">
<svg version="1.0" xmlns="http://www.w3.org/2000/svg"
 width="96.000000pt" height="68.000000pt" viewBox="0 0 96.000000 68.000000"
 preserveAspectRatio="xMidYMid meet">
<metadata>
Created by potrace 1.16, written by Peter Selinger 2001-2019
</metadata>
<g transform="translate(0.000000,68.000000) scale(0.100000,-0.100000)"
fill="#000000" stroke="none">
<path d="M346 558 c-3 -13 -17 -35 -31 -51 l-24 -27 -51 31 c-63 39 -74 33
-20 -10 22 -17 40 -36 40 -40 0 -5 -25 -26 -56 -47 -69 -48 -53 -57 27 -15 54
28 60 30 67 14 10 -24 9 -231 -1 -267 -8 -27 -11 -28 -50 -24 l-42 5 37 -40
c37 -41 37 -41 59 -22 45 41 54 74 53 185 -1 71 -7 121 -18 154 l-17 48 53 48
c46 41 51 49 39 64 -20 24 -58 21 -65 -6z"/>
</g>
</svg>
