<?xml version="1.0" standalone="no"?>
<!DOCTYPE svg PUBLIC "-//W3C//DTD SVG 20010904//EN"
 "http://www.w3.org/TR/2001/REC-SVG-20010904/DTD/svg10.dtd">
<svg version="1.0" xmlns="http://www.w3.org/2000/svg"
 width="96.000000pt" height="68.000000pt" viewBox="0 0 96.000000 68.000000"
 preserveAspectRatio="xMidYMid meet">
<metadata>
Created by potrace 1.16, written by Peter Selinger 2001-2019
</metadata>
<g transform="translate(0.000000,68.000000) scale(0.100000,-0.100000)"
fill="#000000" stroke="none">
<path d="M580 520 c-19 -5 -68 -12 -107 -15 -40 -4 -73 -9 -73 -11 0 -2 4 -12
10 -22 5 -9 14 -43 21 -75 10 -53 13 -58 32 -54 12 3 66 9 120 12 80 6 97 10
93 22 -3 8 6 39 20 69 14 31 24 57 23 58 -30 26 -76 31 -139 16z m48 -43 c2
-11 1 -34 -2 -53 -7 -36 -23 -43 -116 -47 l-45 -2 -6 50 c-3 28 -4 52 -2 55 6
6 102 18 138 16 20 -1 31 -7 33 -19z"/>
</g>
</svg>
