<?xml version="1.0" standalone="no"?>
<!DOCTYPE svg PUBLIC "-//W3C//DTD SVG 20010904//EN"
 "http://www.w3.org/TR/2001/REC-SVG-20010904/DTD/svg10.dtd">
<svg version="1.0" xmlns="http://www.w3.org/2000/svg"
 width="96.000000pt" height="68.000000pt" viewBox="0 0 96.000000 68.000000"
 preserveAspectRatio="xMidYMid meet">
<metadata>
Created by potrace 1.16, written by Peter Selinger 2001-2019
</metadata>
<g transform="translate(0.000000,68.000000) scale(0.100000,-0.100000)"
fill="#000000" stroke="none">
<path d="M577 342 c-3 -7 0 -151 4 -183 2 -17 41 -51 62 -56 66 -13 93 -14
132 -3 26 7 42 17 38 23 -4 6 0 8 10 4 9 -3 18 0 21 9 7 19 -3 44 -19 44 -8 0
-16 8 -19 18 -3 9 -4 4 -2 -11 5 -40 -30 -60 -106 -61 -48 -1 -63 3 -75 19
-14 17 -15 17 -9 2 3 -11 2 -16 -4 -12 -12 7 -5 130 9 168 8 21 6 26 -14 35
-14 6 -26 8 -28 4z"/>
</g>
</svg>
