<?xml version="1.0" standalone="no"?>
<!DOCTYPE svg PUBLIC "-//W3C//DTD SVG 20010904//EN"
 "http://www.w3.org/TR/2001/REC-SVG-20010904/DTD/svg10.dtd">
<svg version="1.0" xmlns="http://www.w3.org/2000/svg"
 width="96.000000pt" height="68.000000pt" viewBox="0 0 96.000000 68.000000"
 preserveAspectRatio="xMidYMid meet">
<metadata>
Created by potrace 1.16, written by Peter Selinger 2001-2019
</metadata>
<g transform="translate(0.000000,68.000000) scale(0.100000,-0.100000)"
fill="#000000" stroke="none">
<path d="M396 346 c-9 -35 -91 -105 -182 -154 -46 -25 -67 -40 -49 -36 58 13
157 64 220 113 l63 50 108 -75 c106 -72 110 -74 169 -74 81 0 103 15 44 30
-85 22 -115 33 -209 80 -52 27 -101 58 -108 69 -17 29 -48 27 -56 -3z"/>
</g>
</svg>
