<?xml version="1.0" standalone="no"?>
<!DOCTYPE svg PUBLIC "-//W3C//DTD SVG 20010904//EN"
 "http://www.w3.org/TR/2001/REC-SVG-20010904/DTD/svg10.dtd">
<svg version="1.0" xmlns="http://www.w3.org/2000/svg"
 width="96.000000pt" height="68.000000pt" viewBox="0 0 96.000000 68.000000"
 preserveAspectRatio="xMidYMid meet">
<metadata>
Created by potrace 1.16, written by Peter Selinger 2001-2019
</metadata>
<g transform="translate(0.000000,68.000000) scale(0.100000,-0.100000)"
fill="#000000" stroke="none">
<path d="M468 209 c-3 -8 -4 -29 -2 -47 5 -41 -11 -82 -31 -82 -21 0 -9 -19
18 -29 15 -6 25 -3 34 8 16 20 17 44 1 35 -7 -5 -8 -3 -3 6 10 17 15 111 5
105 -5 -3 -10 0 -12 7 -3 8 -6 7 -10 -3z"/>
<path d="M604 161 c10 -11 23 -18 27 -15 5 3 6 -1 4 -9 -8 -19 32 -54 46 -40
17 17 -3 43 -51 64 l-44 20 18 -20z"/>
<path d="M330 160 c13 -8 10 -12 -10 -13 -3 0 -18 -16 -35 -36 l-30 -36 28 18
c70 45 91 77 49 77 -15 0 -15 -2 -2 -10z"/>
</g>
</svg>
