<?xml version="1.0" standalone="no"?>
<!DOCTYPE svg PUBLIC "-//W3C//DTD SVG 20010904//EN"
 "http://www.w3.org/TR/2001/REC-SVG-20010904/DTD/svg10.dtd">
<svg version="1.0" xmlns="http://www.w3.org/2000/svg"
 width="96.000000pt" height="68.000000pt" viewBox="0 0 96.000000 68.000000"
 preserveAspectRatio="xMidYMid meet">
<metadata>
Created by potrace 1.16, written by Peter Selinger 2001-2019
</metadata>
<g transform="translate(0.000000,68.000000) scale(0.100000,-0.100000)"
fill="#000000" stroke="none">
<path d="M235 558 c15 -50 17 -171 5 -303 -8 -77 -13 -153 -13 -168 0 -38 17
-54 38 -37 12 10 15 39 16 154 0 77 3 159 7 180 6 35 9 37 21 23 16 -21 41
-22 41 -3 0 7 -14 19 -31 26 -31 13 -31 14 -25 71 6 51 5 59 -13 68 -35 19
-54 14 -46 -11z"/>
<path d="M142 365 c-28 -57 -29 -85 -2 -85 33 0 60 83 37 114 -11 15 -15 12
-35 -29z"/>
</g>
</svg>
