<?xml version="1.0" standalone="no"?>
<!DOCTYPE svg PUBLIC "-//W3C//DTD SVG 20010904//EN"
 "http://www.w3.org/TR/2001/REC-SVG-20010904/DTD/svg10.dtd">
<svg version="1.0" xmlns="http://www.w3.org/2000/svg"
 width="96.000000pt" height="68.000000pt" viewBox="0 0 96.000000 68.000000"
 preserveAspectRatio="xMidYMid meet">
<metadata>
Created by potrace 1.16, written by Peter Selinger 2001-2019
</metadata>
<g transform="translate(0.000000,68.000000) scale(0.100000,-0.100000)"
fill="#000000" stroke="none">
<path d="M615 261 c-3 -10 -14 -26 -24 -35 -16 -15 -21 -15 -54 -1 -45 19 -49
12 -5 -11 l31 -16 -24 -19 c-13 -10 -37 -25 -54 -33 -20 -11 -24 -16 -12 -16
10 0 39 11 65 24 l48 24 38 -29 c21 -15 43 -26 47 -23 19 11 8 32 -26 50 -19
10 -35 21 -35 25 0 3 11 16 25 29 14 13 25 29 25 37 0 20 -38 15 -45 -6z"/>
</g>
</svg>
