<?xml version="1.0" standalone="no"?>
<!DOCTYPE svg PUBLIC "-//W3C//DTD SVG 20010904//EN"
 "http://www.w3.org/TR/2001/REC-SVG-20010904/DTD/svg10.dtd">
<svg version="1.0" xmlns="http://www.w3.org/2000/svg"
 width="96.000000pt" height="68.000000pt" viewBox="0 0 96.000000 68.000000"
 preserveAspectRatio="xMidYMid meet">
<metadata>
Created by potrace 1.16, written by Peter Selinger 2001-2019
</metadata>
<g transform="translate(0.000000,68.000000) scale(0.100000,-0.100000)"
fill="#000000" stroke="none">
<path d="M707 359 c-10 -16 -15 -33 -11 -44 5 -13 4 -16 -4 -11 -7 4 -12 1
-13 -6 -1 -29 -8 -50 -20 -64 -10 -13 -14 -12 -33 3 -18 16 -19 16 -7 1 19
-25 22 -68 4 -61 -9 4 -16 -3 -20 -16 -3 -11 -9 -18 -14 -15 -10 6 -12 -9 -3
-19 8 -8 37 21 30 31 -2 4 7 8 22 7 29 -1 42 10 42 35 0 13 -2 13 -11 0 -9
-12 -10 -12 -5 3 3 10 6 21 6 23 0 3 4 3 8 0 12 -7 54 92 46 106 -4 6 -3 8 3
5 6 -4 14 0 17 9 3 8 2 12 -3 9 -5 -3 -11 3 -13 12 -3 15 -6 14 -21 -8z"/>
<path d="M680 155 c0 -16 2 -20 45 -70 17 -19 28 -26 31 -18 4 9 10 9 23 1 12
-7 24 -8 35 -1 15 8 13 11 -11 23 -15 8 -49 29 -75 48 -37 26 -48 30 -48 17z"/>
<path d="M515 99 c-17 -11 -23 -19 -15 -19 9 0 25 7 36 15 12 8 24 12 27 9 3
-3 7 -1 10 3 10 16 -28 11 -58 -8z"/>
</g>
</svg>
