<?xml version="1.0" standalone="no"?>
<!DOCTYPE svg PUBLIC "-//W3C//DTD SVG 20010904//EN"
 "http://www.w3.org/TR/2001/REC-SVG-20010904/DTD/svg10.dtd">
<svg version="1.0" xmlns="http://www.w3.org/2000/svg"
 width="96.000000pt" height="68.000000pt" viewBox="0 0 96.000000 68.000000"
 preserveAspectRatio="xMidYMid meet">
<metadata>
Created by potrace 1.16, written by Peter Selinger 2001-2019
</metadata>
<g transform="translate(0.000000,68.000000) scale(0.100000,-0.100000)"
fill="#000000" stroke="none">
<path d="M535 451 c-9 -41 -75 -130 -130 -175 -25 -21 -44 -40 -42 -43 12 -12
94 44 151 102 l62 65 76 -70 c73 -67 79 -70 128 -71 79 -2 83 15 8 40 -82 27
-197 108 -198 138 0 19 -25 43 -44 43 -2 0 -7 -13 -11 -29z"/>
</g>
</svg>
