<?xml version="1.0" standalone="no"?>
<!DOCTYPE svg PUBLIC "-//W3C//DTD SVG 20010904//EN"
 "http://www.w3.org/TR/2001/REC-SVG-20010904/DTD/svg10.dtd">
<svg version="1.0" xmlns="http://www.w3.org/2000/svg"
 width="96.000000pt" height="68.000000pt" viewBox="0 0 96.000000 68.000000"
 preserveAspectRatio="xMidYMid meet">
<metadata>
Created by potrace 1.16, written by Peter Selinger 2001-2019
</metadata>
<g transform="translate(0.000000,68.000000) scale(0.100000,-0.100000)"
fill="#000000" stroke="none">
<path d="M532 589 c-7 -23 -31 -68 -53 -101 -35 -51 -38 -58 -17 -48 12 7 39
28 59 46 32 31 44 35 117 44 87 10 106 16 97 31 -8 12 -60 11 -106 -3 -42 -12
-60 -5 -41 14 17 17 15 45 -4 52 -30 12 -39 6 -52 -35z"/>
<path d="M276 590 c-6 -33 -52 -107 -94 -152 -41 -45 -8 -32 55 21 54 44 65
49 128 56 38 4 78 10 89 14 20 8 20 8 0 19 -14 7 -35 7 -77 -3 -60 -14 -66
-11 -43 21 13 17 12 21 -1 37 -25 27 -50 21 -57 -13z"/>
<path d="M618 459 c43 -41 62 -43 62 -8 0 13 -12 25 -35 35 -64 26 -74 17 -27
-27z"/>
<path d="M336 455 c19 -30 54 -34 54 -6 0 20 -18 31 -51 31 -18 0 -19 -1 -3
-25z"/>
</g>
</svg>
