<?xml version="1.0" standalone="no"?>
<!DOCTYPE svg PUBLIC "-//W3C//DTD SVG 20010904//EN"
 "http://www.w3.org/TR/2001/REC-SVG-20010904/DTD/svg10.dtd">
<svg version="1.0" xmlns="http://www.w3.org/2000/svg"
 width="96.000000pt" height="68.000000pt" viewBox="0 0 96.000000 68.000000"
 preserveAspectRatio="xMidYMid meet">
<metadata>
Created by potrace 1.16, written by Peter Selinger 2001-2019
</metadata>
<g transform="translate(0.000000,68.000000) scale(0.100000,-0.100000)"
fill="#000000" stroke="none">
<path d="M375 500 c32 -34 55 -39 55 -12 0 26 -20 42 -54 42 l-30 0 29 -30z"/>
<path d="M310 423 c0 -14 50 -63 65 -63 18 0 20 34 2 48 -17 15 -67 26 -67 15z"/>
<path d="M361 255 c-18 -25 -46 -55 -62 -67 -34 -25 -36 -47 -10 -79 l19 -23
46 99 c26 54 45 103 43 108 -1 5 -17 -12 -36 -38z"/>
</g>
</svg>
