<?xml version="1.0" standalone="no"?>
<!DOCTYPE svg PUBLIC "-//W3C//DTD SVG 20010904//EN"
 "http://www.w3.org/TR/2001/REC-SVG-20010904/DTD/svg10.dtd">
<svg version="1.0" xmlns="http://www.w3.org/2000/svg"
 width="96.000000pt" height="68.000000pt" viewBox="0 0 96.000000 68.000000"
 preserveAspectRatio="xMidYMid meet">
<metadata>
Created by potrace 1.16, written by Peter Selinger 2001-2019
</metadata>
<g transform="translate(0.000000,68.000000) scale(0.100000,-0.100000)"
fill="#000000" stroke="none">
<path d="M160 493 c1 -12 71 -63 87 -63 24 0 15 46 -12 58 -29 13 -75 16 -75
5z"/>
<path d="M195 340 c-22 -10 -48 -19 -57 -19 -9 -1 -20 -6 -24 -12 -5 -9 8 -10
45 -7 55 5 60 1 35 -37 -15 -23 -15 -25 0 -31 19 -7 56 -65 56 -88 0 -13 -12
-16 -75 -16 -71 0 -91 -9 -62 -27 6 -4 49 -6 95 -5 76 3 94 0 230 -44 172 -56
221 -60 332 -25 41 13 71 25 65 27 -5 1 -87 8 -181 14 -94 6 -208 19 -255 30
-46 11 -94 22 -107 25 -18 4 -22 10 -17 25 10 31 -2 54 -37 75 l-32 18 48 43
48 42 -30 16 c-17 9 -32 16 -34 15 -2 0 -21 -9 -43 -19z"/>
</g>
</svg>
