<?xml version="1.0" standalone="no"?>
<!DOCTYPE svg PUBLIC "-//W3C//DTD SVG 20010904//EN"
 "http://www.w3.org/TR/2001/REC-SVG-20010904/DTD/svg10.dtd">
<svg version="1.0" xmlns="http://www.w3.org/2000/svg"
 width="96.000000pt" height="68.000000pt" viewBox="0 0 96.000000 68.000000"
 preserveAspectRatio="xMidYMid meet">
<metadata>
Created by potrace 1.16, written by Peter Selinger 2001-2019
</metadata>
<g transform="translate(0.000000,68.000000) scale(0.100000,-0.100000)"
fill="#000000" stroke="none">
<path d="M650 184 c-25 -25 -57 -52 -72 -60 -16 -8 -28 -19 -28 -24 0 -5 -10
-14 -21 -21 -17 -9 -20 -8 -14 3 4 8 2 8 -7 -2 -7 -8 -19 -16 -27 -18 -8 -2
-26 -9 -40 -17 -21 -11 -22 -14 -8 -15 11 0 33 6 50 14 18 7 45 18 60 25 15 6
26 15 22 20 -3 5 0 13 6 17 8 5 9 3 4 -6 -5 -8 -3 -11 6 -8 8 3 13 11 11 17
-1 7 3 9 9 5 6 -3 14 -3 18 2 3 5 30 25 58 44 30 20 52 41 50 50 -5 29 -32 19
-77 -26z"/>
</g>
</svg>
