<?xml version="1.0" standalone="no"?>
<!DOCTYPE svg PUBLIC "-//W3C//DTD SVG 20010904//EN"
 "http://www.w3.org/TR/2001/REC-SVG-20010904/DTD/svg10.dtd">
<svg version="1.0" xmlns="http://www.w3.org/2000/svg"
 width="96.000000pt" height="68.000000pt" viewBox="0 0 96.000000 68.000000"
 preserveAspectRatio="xMidYMid meet">
<metadata>
Created by potrace 1.16, written by Peter Selinger 2001-2019
</metadata>
<g transform="translate(0.000000,68.000000) scale(0.100000,-0.100000)"
fill="#000000" stroke="none">
<path d="M675 210 c-3 -4 -15 -6 -27 -2 -15 4 -19 2 -14 -7 5 -7 10 -10 13 -7
3 3 14 1 23 -4 15 -8 16 -16 10 -45 -4 -19 -5 -35 -1 -35 3 0 0 -4 -8 -9 -17
-11 -6 -31 18 -31 14 0 20 10 25 39 3 22 13 47 22 56 15 15 15 17 -2 30 -25
18 -53 25 -59 15z m22 -126 c-3 -3 -12 -4 -19 -1 -8 3 -5 6 6 6 11 1 17 -2 13
-5z"/>
<path d="M556 191 c-3 -4 6 -6 19 -3 14 2 25 6 25 8 0 8 -39 4 -44 -5z"/>
<path d="M440 179 c0 -5 4 -9 9 -9 5 0 12 -19 16 -42 11 -70 15 -82 28 -69 9
9 9 14 1 19 -10 6 -15 39 -15 92 -1 9 -9 17 -20 17 -10 1 -19 -2 -19 -8z"/>
<path d="M610 80 c0 -5 9 -10 20 -10 11 0 20 5 20 10 0 6 -9 10 -20 10 -11 0
-20 -4 -20 -10z"/>
<path d="M510 70 c0 -5 5 -10 10 -10 6 0 10 5 10 10 0 6 -4 10 -10 10 -5 0
-10 -4 -10 -10z"/>
<path d="M540 72 c0 -5 14 -7 30 -4 17 2 30 6 30 8 0 2 -13 4 -30 4 -16 0 -30
-4 -30 -8z"/>
</g>
</svg>
