<?xml version="1.0" standalone="no"?>
<!DOCTYPE svg PUBLIC "-//W3C//DTD SVG 20010904//EN"
 "http://www.w3.org/TR/2001/REC-SVG-20010904/DTD/svg10.dtd">
<svg version="1.0" xmlns="http://www.w3.org/2000/svg"
 width="96.000000pt" height="68.000000pt" viewBox="0 0 96.000000 68.000000"
 preserveAspectRatio="xMidYMid meet">
<metadata>
Created by potrace 1.16, written by Peter Selinger 2001-2019
</metadata>
<g transform="translate(0.000000,68.000000) scale(0.100000,-0.100000)"
fill="#000000" stroke="none">
<path d="M215 520 c33 -35 75 -41 75 -10 0 14 -11 22 -37 29 -62 18 -69 14
-38 -19z"/>
<path d="M160 374 c42 -38 70 -40 70 -4 0 23 -34 40 -81 40 l-29 0 40 -36z"/>
<path d="M236 255 c-26 -30 -60 -62 -77 -72 -34 -20 -37 -41 -10 -74 22 -28
19 -30 58 41 16 30 42 77 58 103 15 26 25 50 23 53 -3 2 -26 -20 -52 -51z"/>
</g>
</svg>
