<?xml version="1.0" standalone="no"?>
<!DOCTYPE svg PUBLIC "-//W3C//DTD SVG 20010904//EN"
 "http://www.w3.org/TR/2001/REC-SVG-20010904/DTD/svg10.dtd">
<svg version="1.0" xmlns="http://www.w3.org/2000/svg"
 width="96.000000pt" height="68.000000pt" viewBox="0 0 96.000000 68.000000"
 preserveAspectRatio="xMidYMid meet">
<metadata>
Created by potrace 1.16, written by Peter Selinger 2001-2019
</metadata>
<g transform="translate(0.000000,68.000000) scale(0.100000,-0.100000)"
fill="#000000" stroke="none">
<path d="M490 602 c0 -5 13 -24 29 -40 l28 -31 -54 -7 c-30 -3 -72 -4 -94 -1
-37 5 -40 3 -53 -27 -28 -67 -29 -76 -8 -76 14 0 25 12 35 39 l16 38 83 6 c46
4 118 9 162 13 l78 7 -7 -33 -7 -32 33 7 c85 19 95 36 39 68 -24 15 -41 16
-97 10 -90 -10 -86 -11 -89 11 -1 10 -9 25 -16 32 -17 17 -78 30 -78 16z"/>
<path d="M185 550 c-7 -12 66 -70 88 -70 23 0 33 28 16 45 -17 17 -97 36 -104
25z"/>
<path d="M500 471 c0 -5 7 -14 15 -21 23 -19 5 -30 -59 -37 -56 -6 -72 -16
-38 -25 10 -3 28 -23 40 -45 l21 -41 -87 -7 c-66 -5 -82 -9 -68 -17 12 -7 52
-8 107 -3 l89 7 0 -36 c0 -36 0 -36 -42 -36 -64 0 -118 -11 -112 -22 4 -6 35
-7 80 -3 l74 7 1 -74 c0 -40 4 -82 9 -93 7 -18 10 -16 24 17 9 21 16 64 16 96
l0 59 53 7 c28 3 69 6 90 6 20 0 37 4 37 9 0 16 -52 22 -118 15 -60 -6 -65 -5
-58 11 3 10 2 23 -4 30 -8 9 8 14 67 19 42 3 98 6 124 6 52 0 67 11 43 31 -13
10 -32 10 -101 0 -47 -6 -88 -10 -90 -7 -3 3 4 17 15 31 12 15 18 33 15 41 -5
13 18 20 55 15 18 -3 15 16 -5 23 -9 4 -41 4 -70 0 -45 -5 -53 -4 -53 10 0 9
-12 21 -26 26 -31 12 -44 13 -44 1z m97 -107 c-8 -46 -8 -46 -54 -48 -32 -1
-38 3 -41 21 -2 12 -12 25 -23 28 -47 15 -11 29 85 33 l39 2 -6 -36z"/>
<path d="M120 411 c0 -15 70 -71 89 -71 20 0 35 25 25 42 -16 25 -114 50 -114
29z"/>
<path d="M215 244 c-38 -39 -76 -74 -84 -76 -11 -3 -10 -10 2 -41 22 -52 46
-48 74 11 12 26 36 70 53 99 50 83 32 86 -45 7z"/>
</g>
</svg>
