<?xml version="1.0" standalone="no"?>
<!DOCTYPE svg PUBLIC "-//W3C//DTD SVG 20010904//EN"
 "http://www.w3.org/TR/2001/REC-SVG-20010904/DTD/svg10.dtd">
<svg version="1.0" xmlns="http://www.w3.org/2000/svg"
 width="96.000000pt" height="68.000000pt" viewBox="0 0 96.000000 68.000000"
 preserveAspectRatio="xMidYMid meet">
<metadata>
Created by potrace 1.16, written by Peter Selinger 2001-2019
</metadata>
<g transform="translate(0.000000,68.000000) scale(0.100000,-0.100000)"
fill="#000000" stroke="none">
<path d="M558 516 c-57 -18 -55 -25 6 -19 31 3 56 2 56 -3 0 -15 -50 -84 -61
-84 -5 0 -28 9 -49 20 -48 25 -51 16 -8 -20 40 -33 35 -41 -58 -102 -35 -22
-64 -42 -64 -44 0 -10 105 39 141 66 26 18 46 27 53 22 6 -5 35 -28 64 -50 48
-37 59 -42 105 -41 29 1 63 4 77 8 21 6 12 12 -60 35 -82 27 -170 71 -170 85
0 3 25 31 55 61 48 49 53 56 38 68 -20 15 -75 14 -125 -2z"/>
</g>
</svg>
