<?xml version="1.0" standalone="no"?>
<!DOCTYPE svg PUBLIC "-//W3C//DTD SVG 20010904//EN"
 "http://www.w3.org/TR/2001/REC-SVG-20010904/DTD/svg10.dtd">
<svg version="1.0" xmlns="http://www.w3.org/2000/svg"
 width="90.000000pt" height="92.000000pt" viewBox="0 0 90.000000 92.000000"
 preserveAspectRatio="xMidYMid meet">
<metadata>
Created by potrace 1.16, written by Peter Selinger 2001-2019
</metadata>
<g transform="translate(0.000000,92.000000) scale(0.100000,-0.100000)"
fill="#000000" stroke="none">
<path d="M607 816 c6 -71 9 -68 -70 -82 l-39 -7 4 44 c3 40 0 45 -25 57 -37
18 -51 5 -37 -32 21 -55 14 -73 -30 -80 -59 -9 -47 -36 16 -36 20 0 24 -5 24
-30 0 -26 -4 -30 -26 -30 -34 0 -26 -24 9 -28 22 -3 27 -8 27 -32 0 -32 -3
-33 -95 -45 -46 -6 -48 -8 -30 -21 15 -11 33 -13 75 -7 98 13 115 11 118 -16
5 -35 -7 -41 -86 -43 -67 -1 -86 -8 -62 -23 6 -3 10 -40 10 -81 l0 -74 -39 0
c-43 0 -71 -8 -71 -19 0 -12 48 -31 78 -31 26 0 27 -2 24 -47 -2 -45 19 -96
33 -81 3 3 9 37 12 76 l6 70 36 5 c20 3 80 9 134 13 l97 7 0 -36 c0 -20 -5
-48 -10 -62 -8 -22 -15 -26 -33 -21 -74 21 -74 21 -18 -37 45 -47 57 -54 69
-44 26 21 42 74 42 137 l0 60 64 0 c36 0 68 4 71 10 3 5 -9 19 -27 30 -26 16
-43 19 -76 15 l-42 -6 5 43 c3 24 8 57 11 74 5 26 1 34 -22 49 -24 15 -34 16
-76 6 -66 -15 -65 -15 -70 18 -4 27 -1 29 31 35 20 3 71 6 113 6 109 0 138 15
78 40 -28 12 -128 8 -164 -6 -8 -3 -11 5 -8 29 4 32 7 35 44 40 22 3 43 8 46
12 10 10 -20 25 -50 25 -23 0 -28 5 -28 24 0 21 7 26 50 36 28 7 52 16 55 20
10 16 -26 33 -60 27 l-36 -6 7 48 c6 44 4 48 -20 59 -43 19 -46 16 -39 -52z
m-7 -140 c0 -25 -6 -29 -67 -41 -31 -6 -33 -5 -33 24 0 26 4 30 33 34 67 8 67
8 67 -17z m0 -96 c0 -33 -4 -35 -63 -44 -38 -5 -38 -5 -35 27 3 28 8 33 38 38
59 11 60 10 60 -21z m98 -190 c3 -24 1 -25 -58 -27 -56 -1 -60 0 -60 21 0 33
9 37 65 34 45 -3 50 -5 53 -28z m-168 -9 c0 -24 -5 -29 -31 -35 -57 -11 -69
-8 -69 19 0 17 7 26 23 29 49 11 62 14 70 15 4 0 7 -12 7 -28z m168 -96 c-2
-2 -29 -6 -60 -10 -58 -7 -58 -7 -58 19 0 27 12 33 80 38 30 3 35 0 38 -20 2
-13 2 -25 0 -27z m-170 5 c-3 -22 -9 -26 -50 -30 -48 -6 -48 -6 -48 25 0 29 1
30 50 30 48 0 51 -1 48 -25z"/>
<path d="M170 819 c0 -6 4 -18 9 -27 4 -9 11 -54 14 -98 l6 -82 -86 -16 c-47
-9 -89 -18 -92 -22 -15 -15 31 -25 92 -19 44 3 67 2 67 -6 0 -28 -77 -172
-127 -237 -31 -40 -53 -76 -49 -79 11 -11 132 120 160 173 l27 49 -6 -100 c-3
-55 -11 -125 -16 -156 -9 -45 -8 -62 5 -94 16 -37 17 -38 34 -22 14 15 18 46
22 210 l5 192 28 -47 c30 -50 44 -58 53 -33 12 30 -6 61 -46 84 -33 18 -40 28
-40 52 0 16 6 31 13 33 6 3 32 10 56 18 25 7 46 18 48 24 6 17 -45 36 -67 24
-10 -5 -23 -10 -29 -10 -13 0 -14 61 -1 115 9 37 8 42 -18 62 -28 24 -62 30
-62 12z"/>
</g>
</svg>
