<?xml version="1.0" standalone="no"?>
<!DOCTYPE svg PUBLIC "-//W3C//DTD SVG 20010904//EN"
 "http://www.w3.org/TR/2001/REC-SVG-20010904/DTD/svg10.dtd">
<svg version="1.0" xmlns="http://www.w3.org/2000/svg"
 width="90.000000pt" height="92.000000pt" viewBox="0 0 90.000000 92.000000"
 preserveAspectRatio="xMidYMid meet">
<metadata>
Created by potrace 1.16, written by Peter Selinger 2001-2019
</metadata>
<g transform="translate(0.000000,92.000000) scale(0.100000,-0.100000)"
fill="#000000" stroke="none">
<path d="M445 854 c-11 -13 -56 -40 -100 -59 -64 -28 -88 -34 -119 -29 l-39 6
9 -38 c12 -52 9 -209 -5 -275 -20 -92 -59 -181 -110 -249 -27 -36 -47 -67 -45
-69 2 -2 22 9 44 24 71 49 136 170 161 298 12 62 15 67 38 67 14 0 95 7 179
17 123 13 152 20 147 31 -3 8 7 37 22 64 l27 50 -27 24 c-34 29 -53 30 -137 4
-70 -21 -218 -46 -226 -37 -3 2 -2 16 2 31 5 20 15 28 48 36 104 27 236 76
236 88 0 12 -58 43 -77 41 -4 0 -17 -11 -28 -25z m125 -192 c0 -16 -6 -35 -12
-44 -12 -15 -112 -37 -245 -53 l-53 -7 0 44 0 43 123 21 c67 12 137 22 155 23
29 1 32 -2 32 -27z"/>
<path d="M409 503 c0 -5 0 -33 1 -64 2 -65 3 -64 -93 -74 -37 -4 -67 -11 -67
-16 0 -19 44 -31 91 -25 58 8 60 2 24 -71 -29 -57 -105 -134 -159 -160 -50
-23 -45 -35 9 -19 83 25 167 105 206 195 l19 43 74 -98 c105 -141 116 -149
181 -148 70 2 125 13 125 24 0 6 -5 10 -12 10 -7 0 -54 20 -105 45 -70 34
-113 64 -169 117 -41 39 -72 73 -70 75 2 3 44 8 93 11 49 4 88 11 87 17 0 6
-14 17 -30 27 -25 14 -38 14 -86 5 -32 -6 -60 -8 -63 -6 -2 3 1 22 7 43 11 35
10 40 -11 57 -24 19 -50 25 -52 12z"/>
<path d="M585 501 c-8 -13 65 -91 86 -91 14 0 19 7 19 29 0 16 -6 33 -12 39
-19 15 -87 32 -93 23z"/>
</g>
</svg>
