<?xml version="1.0" standalone="no"?>
<!DOCTYPE svg PUBLIC "-//W3C//DTD SVG 20010904//EN"
 "http://www.w3.org/TR/2001/REC-SVG-20010904/DTD/svg10.dtd">
<svg version="1.0" xmlns="http://www.w3.org/2000/svg"
 width="96.000000pt" height="68.000000pt" viewBox="0 0 96.000000 68.000000"
 preserveAspectRatio="xMidYMid meet">
<metadata>
Created by potrace 1.16, written by Peter Selinger 2001-2019
</metadata>
<g transform="translate(0.000000,68.000000) scale(0.100000,-0.100000)"
fill="#000000" stroke="none">
<path d="M325 580 c-16 -4 -46 -8 -66 -9 l-36 -1 4 -57 c8 -125 13 -144 34
-138 41 13 10 -33 -55 -83 -16 -12 -26 -22 -22 -22 26 0 141 84 141 103 0 7
18 12 44 12 24 0 46 5 47 10 1 6 4 47 7 93 5 103 -8 115 -98 92z m45 -46 c0
-8 -10 -14 -22 -14 -13 0 -34 -3 -47 -7 -19 -5 -22 -2 -19 13 6 32 88 39 88 8z
m10 -48 c0 -15 -30 -26 -72 -26 -48 0 -34 28 15 33 23 2 45 4 50 5 4 1 7 -4 7
-12z m0 -61 c0 -8 -6 -15 -12 -16 -7 0 -32 -2 -55 -5 -45 -5 -57 7 -25 25 28
17 92 14 92 -4z"/>
<path d="M575 580 c-22 -5 -47 -7 -56 -4 -14 4 -16 -8 -17 -83 -2 -94 2 -109
31 -114 16 -3 13 -11 -20 -49 -38 -44 -38 -45 -7 -25 50 33 84 62 84 74 0 6
10 12 23 12 20 1 31 0 62 -4 14 -3 24 186 11 195 -14 9 -58 8 -111 -2z m75
-30 c0 -23 -7 -26 -67 -33 -40 -5 -43 -3 -43 18 0 24 14 30 83 34 21 1 27 -3
27 -19z m0 -59 c0 -13 -10 -20 -31 -25 -57 -11 -79 -8 -79 13 0 20 4 21 93 29
11 1 17 -5 17 -17z m0 -55 c0 -18 -22 -26 -71 -26 -27 0 -39 4 -39 14 0 19 15
24 68 25 30 1 42 -3 42 -13z"/>
<path d="M350 354 c0 -9 24 -30 43 -37 12 -5 17 -1 17 12 0 11 -9 21 -22 25
-29 7 -38 7 -38 0z"/>
<path d="M630 340 c13 -25 51 -42 65 -29 12 12 -12 35 -48 43 -26 6 -27 5 -17
-14z"/>
<path d="M388 263 l-3 -28 -143 -6 c-79 -4 -145 -9 -148 -12 -3 -3 5 -11 17
-18 17 -9 41 -9 103 -1 76 11 130 15 150 13 4 -1 1 -12 -8 -26 -24 -36 -20
-43 27 -50 23 -4 46 -10 50 -12 14 -8 -34 -37 -103 -61 l-65 -22 64 5 c42 3
80 14 109 30 50 28 62 27 131 -16 59 -35 101 -47 101 -27 0 27 -36 56 -93 76
l-57 19 30 46 30 47 137 0 138 1 -25 20 c-23 20 -32 20 -141 14 -90 -5 -121
-4 -138 6 -19 12 -23 12 -32 -3 -7 -12 -22 -18 -46 -18 -30 0 -35 3 -30 19 3
12 -1 22 -10 25 -29 12 -42 5 -45 -21z m132 -51 c0 -4 -12 -22 -27 -40 -26
-31 -31 -33 -70 -26 -48 7 -51 14 -25 49 14 20 26 24 70 25 28 0 52 -4 52 -8z"/>
</g>
</svg>
