<?xml version="1.0" standalone="no"?>
<!DOCTYPE svg PUBLIC "-//W3C//DTD SVG 20010904//EN"
 "http://www.w3.org/TR/2001/REC-SVG-20010904/DTD/svg10.dtd">
<svg version="1.0" xmlns="http://www.w3.org/2000/svg"
 width="96.000000pt" height="68.000000pt" viewBox="0 0 96.000000 68.000000"
 preserveAspectRatio="xMidYMid meet">
<metadata>
Created by potrace 1.16, written by Peter Selinger 2001-2019
</metadata>
<g transform="translate(0.000000,68.000000) scale(0.100000,-0.100000)"
fill="#000000" stroke="none">
<path d="M625 569 c-16 -5 -56 -10 -87 -11 -32 -1 -58 -3 -58 -6 0 -2 6 -10
14 -17 17 -18 38 -131 29 -165 -3 -14 -22 -42 -41 -62 -43 -45 -37 -48 20 -11
23 15 54 28 70 29 27 2 29 0 23 -25 -3 -14 -20 -43 -36 -63 -36 -46 -27 -49
23 -8 40 33 55 32 92 -9 24 -26 46 -27 46 -2 0 13 -13 25 -40 37 -37 16 -55
44 -29 44 8 0 8 4 0 14 -9 11 -2 15 44 21 80 10 87 1 79 -94 -10 -133 -30
-170 -79 -151 -15 6 -30 9 -32 6 -10 -10 52 -66 72 -66 47 0 70 51 85 182 6
51 15 97 20 103 12 14 -16 43 -46 47 -22 3 -167 -11 -203 -19 -20 -5 -22 -3
-16 16 4 12 2 21 -4 21 -6 0 -11 7 -11 16 0 13 11 15 73 12 l72 -3 17 35 c9
19 23 52 32 72 l16 38 -30 15 c-32 17 -70 18 -115 4z m59 -83 l-7 -57 -61 3
c-47 2 -61 7 -64 20 -3 13 8 18 53 23 82 11 84 30 2 21 -66 -6 -67 -6 -67 18
0 22 5 25 58 31 31 4 62 8 67 10 20 6 25 -13 19 -69z"/>
<path d="M305 473 c-50 -8 -96 -17 -103 -19 -24 -7 -1 -24 34 -24 26 0 34 -4
34 -18 0 -33 -60 -111 -120 -154 -33 -24 -60 -46 -60 -50 0 -20 61 0 112 35
28 18 28 18 37 -5 5 -13 10 -32 12 -43 3 -11 9 -19 14 -18 6 2 35 5 66 9 56 6
57 7 69 48 7 22 17 47 23 55 9 10 7 16 -8 27 -23 17 -39 17 -86 0 -56 -20 -62
-10 -25 46 19 28 32 57 29 64 -4 10 4 14 25 14 17 0 43 5 59 11 27 10 27 11 9
25 -11 8 -22 13 -25 13 -3 -1 -46 -8 -96 -16z m60 -215 c-4 -24 -8 -44 -10
-46 -1 -1 -19 -3 -41 -5 -37 -2 -39 -1 -48 36 -12 46 -6 51 59 55 l47 3 -7
-43z"/>
<path d="M460 190 l0 -60 129 0 c85 0 132 4 137 11 10 17 -17 30 -46 23 -14
-4 -62 -9 -107 -11 l-82 -4 5 36 c4 36 -8 65 -27 65 -5 0 -9 -27 -9 -60z"/>
</g>
</svg>
