<?xml version="1.0" standalone="no"?>
<!DOCTYPE svg PUBLIC "-//W3C//DTD SVG 20010904//EN"
 "http://www.w3.org/TR/2001/REC-SVG-20010904/DTD/svg10.dtd">
<svg version="1.0" xmlns="http://www.w3.org/2000/svg"
 width="96.000000pt" height="68.000000pt" viewBox="0 0 96.000000 68.000000"
 preserveAspectRatio="xMidYMid meet">
<metadata>
Created by potrace 1.16, written by Peter Selinger 2001-2019
</metadata>
<g transform="translate(0.000000,68.000000) scale(0.100000,-0.100000)"
fill="#000000" stroke="none">
<path d="M525 368 c-10 -18 -31 -48 -49 -67 l-31 -34 47 26 c37 21 70 30 152
38 58 6 113 9 122 5 14 -5 15 -18 9 -99 -7 -96 -27 -157 -52 -157 -8 0 -23 5
-35 11 -32 17 -30 5 4 -34 30 -34 35 -36 57 -25 38 20 60 76 71 174 5 49 12
99 15 111 6 17 1 24 -22 36 -24 12 -42 13 -128 1 -132 -18 -130 -18 -115 1 7
9 11 17 9 18 -2 1 -12 8 -21 16 -15 11 -19 8 -33 -21z"/>
</g>
</svg>
