<?xml version="1.0" standalone="no"?>
<!DOCTYPE svg PUBLIC "-//W3C//DTD SVG 20010904//EN"
 "http://www.w3.org/TR/2001/REC-SVG-20010904/DTD/svg10.dtd">
<svg version="1.0" xmlns="http://www.w3.org/2000/svg"
 width="90.000000pt" height="92.000000pt" viewBox="0 0 90.000000 92.000000"
 preserveAspectRatio="xMidYMid meet">
<metadata>
Created by potrace 1.16, written by Peter Selinger 2001-2019
</metadata>
<g transform="translate(0.000000,92.000000) scale(0.100000,-0.100000)"
fill="#000000" stroke="none">
<path d="M187 813 c-3 -4 -10 -28 -17 -53 -14 -54 -70 -158 -99 -184 -24 -22
-27 -49 -7 -65 10 -8 24 -7 56 4 24 8 45 14 46 12 6 -6 -86 -137 -96 -137 -17
0 -11 -26 9 -44 13 -12 21 -14 26 -6 3 6 34 24 67 41 54 27 62 29 70 15 17
-29 40 -19 36 16 -2 24 -11 37 -37 52 l-33 19 6 -29 c6 -28 4 -30 -40 -47 -26
-9 -48 -16 -50 -15 -1 2 35 56 82 121 84 117 95 142 72 165 -19 19 -26 15 -39
-25 -23 -74 -40 -93 -81 -93 -21 0 -38 4 -38 9 0 5 27 51 61 100 33 50 59 99
57 107 -4 20 -44 49 -51 37z"/>
<path d="M410 798 c0 -12 -14 -52 -31 -90 -24 -50 -37 -68 -52 -68 -14 0 -17
-4 -12 -17 5 -10 14 -49 20 -86 7 -38 18 -74 24 -80 8 -8 11 -7 11 2 0 10 14
12 56 9 63 -5 63 -5 87 82 9 30 19 64 22 76 5 17 0 24 -25 34 -28 11 -39 11
-81 -5 -28 -9 -52 -16 -54 -14 -2 2 19 34 46 71 27 37 49 71 49 76 0 8 -42 32
-55 32 -3 0 -5 -10 -5 -22z m67 -185 c-2 -22 -8 -28 -27 -30 -14 -1 -40 -6
-57 -12 -32 -9 -33 -9 -33 18 0 25 5 29 43 38 70 17 76 16 74 -14z m-12 -80
c-8 -33 -1 -29 -52 -37 -43 -6 -43 -6 -43 24 0 17 4 29 8 26 5 -3 22 -1 38 4
51 15 57 13 49 -17z"/>
<path d="M624 703 c-12 -49 -38 -124 -58 -168 l-37 -80 34 33 c23 22 42 32 65
32 l32 0 0 -67 c0 -38 -5 -85 -11 -106 l-10 -37 -32 42 c-35 45 -57 59 -57 34
0 -9 4 -16 9 -16 17 0 63 -82 57 -104 -7 -27 -60 -83 -100 -103 -17 -9 -25
-18 -19 -20 23 -8 85 19 123 53 l38 34 32 -50 c43 -67 58 -74 125 -60 30 6 57
15 60 20 2 4 -22 18 -55 30 -33 12 -80 40 -104 62 -40 35 -44 41 -36 66 22 66
41 204 30 217 -8 10 0 15 35 24 48 12 56 24 27 40 -14 7 -37 5 -83 -9 -35 -11
-67 -20 -70 -20 -4 0 11 41 32 90 22 50 39 99 39 110 0 15 -26 40 -42 40 -2 0
-13 -39 -24 -87z"/>
<path d="M395 433 c20 -49 19 -50 -49 -63 -36 -7 -66 -16 -66 -20 0 -13 30
-20 57 -14 23 6 25 5 18 -17 -13 -44 -54 -107 -101 -153 -50 -51 -48 -58 8
-23 41 25 89 81 108 126 11 27 14 29 41 19 33 -11 38 -38 15 -92 -18 -42 -28
-49 -60 -36 l-26 10 22 -40 c13 -22 28 -40 34 -40 21 0 53 47 78 115 23 64 24
71 9 87 -9 10 -30 18 -48 18 -24 0 -34 5 -38 19 -5 22 15 31 73 31 19 0 41 4
49 9 19 12 -23 34 -55 28 -18 -3 -24 0 -24 12 0 21 -19 41 -38 41 -10 0 -12
-6 -7 -17z"/>
<path d="M190 335 c0 -14 41 -85 50 -85 5 0 12 10 16 22 5 16 0 27 -20 45 -26
22 -46 30 -46 18z"/>
<path d="M120 295 c0 -19 43 -86 53 -82 22 7 19 36 -7 62 -23 23 -46 33 -46
20z"/>
<path d="M40 264 c0 -27 42 -115 54 -111 6 2 12 19 14 38 2 27 -3 41 -24 62
-30 31 -44 34 -44 11z"/>
</g>
</svg>
