<?xml version="1.0" standalone="no"?>
<!DOCTYPE svg PUBLIC "-//W3C//DTD SVG 20010904//EN"
 "http://www.w3.org/TR/2001/REC-SVG-20010904/DTD/svg10.dtd">
<svg version="1.0" xmlns="http://www.w3.org/2000/svg"
 width="96.000000pt" height="68.000000pt" viewBox="0 0 96.000000 68.000000"
 preserveAspectRatio="xMidYMid meet">
<metadata>
Created by potrace 1.16, written by Peter Selinger 2001-2019
</metadata>
<g transform="translate(0.000000,68.000000) scale(0.100000,-0.100000)"
fill="#000000" stroke="none">
<path d="M290 534 c-36 -8 -80 -11 -99 -8 -30 5 -33 3 -25 -13 14 -31 17 -135
4 -176 -13 -44 1 -73 29 -61 9 3 43 9 75 13 86 9 86 30 1 23 l-66 -5 6 94 c4
52 8 96 10 98 2 1 41 7 86 12 89 10 102 15 79 29 -18 11 -17 11 -100 -6z"/>
</g>
</svg>
