<?xml version="1.0" standalone="no"?>
<!DOCTYPE svg PUBLIC "-//W3C//DTD SVG 20010904//EN"
 "http://www.w3.org/TR/2001/REC-SVG-20010904/DTD/svg10.dtd">
<svg version="1.0" xmlns="http://www.w3.org/2000/svg"
 width="96.000000pt" height="68.000000pt" viewBox="0 0 96.000000 68.000000"
 preserveAspectRatio="xMidYMid meet">
<metadata>
Created by potrace 1.16, written by Peter Selinger 2001-2019
</metadata>
<g transform="translate(0.000000,68.000000) scale(0.100000,-0.100000)"
fill="#000000" stroke="none">
<path d="M549 288 c-6 -18 -3 -48 4 -48 5 0 7 9 4 20 -3 11 -1 18 4 14 14 -9
10 -32 -7 -42 -14 -8 -15 -15 -7 -38 6 -16 8 -63 6 -104 -4 -62 -3 -73 8 -62
7 6 13 30 14 52 0 22 4 40 9 40 4 0 6 20 5 44 l-4 44 65 7 c35 4 92 7 125 7
l60 -1 -39 14 c-27 10 -46 11 -64 4 -15 -6 -44 -7 -67 -4 -29 5 -36 3 -25 -4
21 -15 -2 -14 -34 0 -20 9 -23 16 -16 29 7 13 5 20 -6 24 -16 6 -33 8 -35 4z"/>
<path d="M430 204 c0 -11 6 -14 23 -8 12 4 31 7 42 6 16 -1 17 1 5 8 -25 16
-70 12 -70 -6z"/>
</g>
</svg>
