<?xml version="1.0" standalone="no"?>
<!DOCTYPE svg PUBLIC "-//W3C//DTD SVG 20010904//EN"
 "http://www.w3.org/TR/2001/REC-SVG-20010904/DTD/svg10.dtd">
<svg version="1.0" xmlns="http://www.w3.org/2000/svg"
 width="90.000000pt" height="92.000000pt" viewBox="0 0 90.000000 92.000000"
 preserveAspectRatio="xMidYMid meet">
<metadata>
Created by potrace 1.16, written by Peter Selinger 2001-2019
</metadata>
<g transform="translate(0.000000,92.000000) scale(0.100000,-0.100000)"
fill="#000000" stroke="none">
<path d="M122 798 c-8 -8 -8 -15 -1 -24 5 -7 13 -50 16 -97 6 -82 5 -84 -18
-90 -13 -4 -43 -7 -66 -7 -24 0 -43 -2 -43 -3 0 -2 6 -17 14 -33 8 -16 17 -52
21 -81 9 -68 24 -89 53 -74 37 20 42 14 42 -52 l0 -63 -53 -17 c-30 -9 -62
-17 -71 -17 -23 0 -16 -19 15 -42 25 -19 25 -19 129 41 l105 60 13 -30 c16
-39 36 -33 40 13 3 30 -3 40 -33 67 -52 45 -68 41 -41 -9 13 -23 12 -25 -16
-37 -17 -7 -34 -13 -39 -13 -5 0 -9 26 -9 59 l0 59 56 7 c37 4 53 10 46 17
-12 12 11 94 33 118 23 26 18 40 -20 55 -25 11 -41 12 -60 5 -15 -6 -31 -10
-36 -10 -12 0 -11 73 2 129 5 24 8 45 6 47 -2 2 -19 10 -39 18 -26 11 -38 12
-46 4z m18 -302 c0 -57 -2 -64 -22 -69 -12 -4 -23 -5 -24 -4 -1 1 -4 30 -7 64
-7 66 -10 62 46 72 4 0 7 -28 7 -63z m106 27 c-11 -61 -16 -71 -36 -76 -24 -6
-26 0 -22 63 4 48 5 50 34 50 29 0 30 -1 24 -37z"/>
<path d="M446 798 c-2 -7 -9 -39 -15 -70 -7 -31 -33 -99 -60 -151 -41 -82 -44
-93 -24 -80 13 9 28 23 33 32 10 18 61 22 72 6 4 -5 8 -31 8 -57 0 -51 -1 -51
-75 -63 -58 -10 -75 -15 -75 -25 0 -14 54 -28 75 -19 11 4 28 8 39 8 15 1 17
-4 12 -29 -11 -57 -60 -141 -107 -185 -52 -49 -49 -56 10 -25 40 20 101 93
125 151 l14 33 33 -49 c67 -97 95 -130 112 -133 20 -4 23 28 6 76 -11 31 -76
92 -121 113 -19 8 -24 16 -20 36 5 27 36 43 82 43 34 0 45 13 25 30 -9 8 -28
10 -50 6 -30 -6 -35 -4 -35 13 0 11 4 31 10 45 8 21 6 28 -11 40 -20 13 -18
15 32 23 56 9 66 21 29 40 -18 9 -35 7 -92 -13 -42 -14 -66 -18 -59 -11 5 7
29 50 51 96 43 87 43 98 -2 122 -13 7 -19 6 -22 -3z"/>
<path d="M735 550 c-16 -4 -54 -8 -82 -9 -57 -1 -58 -2 -43 -31 6 -10 15 -54
20 -97 6 -43 12 -91 15 -107 5 -40 24 -57 31 -28 5 19 14 22 53 23 72 2 86 9
89 48 1 19 13 65 26 103 l24 68 -25 20 c-26 21 -56 23 -108 10z m45 -97 c0
-102 -4 -111 -55 -115 -41 -3 -44 -1 -49 26 -3 16 -6 55 -6 87 0 63 2 64 78
68 l32 1 0 -67z"/>
</g>
</svg>
