<?xml version="1.0" standalone="no"?>
<!DOCTYPE svg PUBLIC "-//W3C//DTD SVG 20010904//EN"
 "http://www.w3.org/TR/2001/REC-SVG-20010904/DTD/svg10.dtd">
<svg version="1.0" xmlns="http://www.w3.org/2000/svg"
 width="96.000000pt" height="68.000000pt" viewBox="0 0 96.000000 68.000000"
 preserveAspectRatio="xMidYMid meet">
<metadata>
Created by potrace 1.16, written by Peter Selinger 2001-2019
</metadata>
<g transform="translate(0.000000,68.000000) scale(0.100000,-0.100000)"
fill="#000000" stroke="none">
<path d="M194 549 c-3 -5 0 -26 5 -46 6 -21 11 -52 11 -69 0 -38 -24 -48 -82
-35 -29 7 -38 6 -38 -4 0 -8 4 -16 9 -20 5 -3 15 -30 22 -59 16 -75 23 -84 49
-68 11 6 24 12 30 12 15 0 13 -100 -2 -101 -45 -2 -98 -18 -98 -29 0 -27 50
-19 131 19 l84 40 18 -21 c12 -15 21 -18 28 -11 17 17 6 44 -30 72 l-34 26 7
-33 c5 -19 4 -32 -2 -32 -6 0 -17 -3 -26 -6 -13 -5 -16 2 -16 40 l0 46 46 0
c41 0 45 2 39 20 -4 12 3 36 17 61 23 41 23 41 3 56 -14 10 -33 12 -62 8 -48
-7 -48 -8 -32 65 6 28 9 54 6 57 -11 10 -77 21 -83 12z m104 -206 c-2 -27 -8
-39 -20 -41 -14 -3 -18 4 -18 31 0 37 6 47 27 47 10 0 13 -11 11 -37z m-88
-13 c0 -33 -3 -40 -20 -40 -11 0 -20 4 -20 9 0 5 -3 22 -6 38 -5 25 -3 29 20
31 24 2 26 -1 26 -38z"/>
<path d="M480 530 c0 -28 -29 -98 -60 -145 -44 -68 -44 -69 -7 -41 21 16 45
26 59 24 19 -2 23 -10 26 -45 2 -33 0 -43 -12 -43 -8 0 -38 -5 -66 -11 -69
-15 -66 -33 5 -26 39 4 55 2 55 -6 0 -27 -44 -94 -88 -135 l-47 -43 40 16 c42
17 115 87 115 111 0 28 26 11 75 -49 60 -73 75 -80 75 -37 0 38 -43 83 -96
100 -28 9 -34 17 -32 33 2 17 14 25 48 34 25 6 47 12 50 14 3 1 -13 5 -35 8
-37 6 -40 8 -37 34 2 15 -2 34 -8 42 -9 11 -3 15 34 20 27 4 43 11 40 17 -6
10 -61 6 -127 -8 l-28 -7 40 63 c23 35 41 67 41 72 0 7 -41 28 -56 28 -2 0 -4
-9 -4 -20z"/>
<path d="M668 363 c-57 -4 -58 -4 -44 -26 8 -12 20 -51 26 -87 14 -79 25 -103
35 -77 5 13 19 17 54 17 58 0 65 6 78 55 6 22 17 54 24 72 7 18 10 36 6 39 -9
9 -101 13 -179 7z m112 -73 c0 -64 -1 -66 -57 -74 -34 -4 -33 -8 -49 86 -6 34
-4 37 23 41 84 12 83 13 83 -53z"/>
</g>
</svg>
