<?xml version="1.0" standalone="no"?>
<!DOCTYPE svg PUBLIC "-//W3C//DTD SVG 20010904//EN"
 "http://www.w3.org/TR/2001/REC-SVG-20010904/DTD/svg10.dtd">
<svg version="1.0" xmlns="http://www.w3.org/2000/svg"
 width="96.000000pt" height="68.000000pt" viewBox="0 0 96.000000 68.000000"
 preserveAspectRatio="xMidYMid meet">
<metadata>
Created by potrace 1.16, written by Peter Selinger 2001-2019
</metadata>
<g transform="translate(0.000000,68.000000) scale(0.100000,-0.100000)"
fill="#000000" stroke="none">
<path d="M507 516 c-9 -29 -35 -81 -57 -115 -22 -33 -37 -61 -33 -61 3 0 22
12 42 27 20 16 50 28 71 29 51 4 232 33 238 38 3 3 -7 10 -21 15 -20 8 -50 5
-118 -10 -51 -11 -98 -19 -105 -17 -8 2 -1 22 24 62 35 56 36 59 17 72 -31 23
-41 17 -58 -40z"/>
</g>
</svg>
