<?xml version="1.0" standalone="no"?>
<!DOCTYPE svg PUBLIC "-//W3C//DTD SVG 20010904//EN"
 "http://www.w3.org/TR/2001/REC-SVG-20010904/DTD/svg10.dtd">
<svg version="1.0" xmlns="http://www.w3.org/2000/svg"
 width="96.000000pt" height="68.000000pt" viewBox="0 0 96.000000 68.000000"
 preserveAspectRatio="xMidYMid meet">
<metadata>
Created by potrace 1.16, written by Peter Selinger 2001-2019
</metadata>
<g transform="translate(0.000000,68.000000) scale(0.100000,-0.100000)"
fill="#000000" stroke="none">
<path d="M660 579 c-19 -4 -78 -11 -131 -15 l-97 -7 5 -38 c13 -92 -41 -301
-98 -381 -33 -45 -16 -43 26 3 48 53 82 129 99 219 8 39 16 73 18 75 2 2 56 7
121 11 103 6 117 9 117 25 0 9 11 31 25 47 14 17 25 33 25 36 0 6 -65 38 -72
35 -2 -1 -19 -5 -38 -10z m26 -32 c3 -8 1 -25 -5 -39 -8 -22 -18 -26 -95 -37
-91 -13 -106 -10 -106 17 0 33 19 46 87 58 91 16 113 16 119 1z"/>
</g>
</svg>
