<?xml version="1.0" standalone="no"?>
<!DOCTYPE svg PUBLIC "-//W3C//DTD SVG 20010904//EN"
 "http://www.w3.org/TR/2001/REC-SVG-20010904/DTD/svg10.dtd">
<svg version="1.0" xmlns="http://www.w3.org/2000/svg"
 width="96.000000pt" height="68.000000pt" viewBox="0 0 96.000000 68.000000"
 preserveAspectRatio="xMidYMid meet">
<metadata>
Created by potrace 1.16, written by Peter Selinger 2001-2019
</metadata>
<g transform="translate(0.000000,68.000000) scale(0.100000,-0.100000)"
fill="#000000" stroke="none">
<path d="M226 578 c12 -31 9 -370 -4 -432 -11 -53 0 -106 23 -106 22 0 27 31
33 208 l5 173 26 -25 c28 -27 46 -32 55 -17 12 19 -8 41 -46 51 -36 10 -39 14
-34 38 21 104 21 101 -18 117 -47 20 -50 19 -40 -7z"/>
<path d="M127 367 c-15 -25 -27 -55 -27 -67 0 -27 27 -37 47 -18 18 19 29 90
16 113 -9 14 -14 10 -36 -28z"/>
</g>
</svg>
