<?xml version="1.0" standalone="no"?>
<!DOCTYPE svg PUBLIC "-//W3C//DTD SVG 20010904//EN"
 "http://www.w3.org/TR/2001/REC-SVG-20010904/DTD/svg10.dtd">
<svg version="1.0" xmlns="http://www.w3.org/2000/svg"
 width="96.000000pt" height="68.000000pt" viewBox="0 0 96.000000 68.000000"
 preserveAspectRatio="xMidYMid meet">
<metadata>
Created by potrace 1.16, written by Peter Selinger 2001-2019
</metadata>
<g transform="translate(0.000000,68.000000) scale(0.100000,-0.100000)"
fill="#000000" stroke="none">
<path d="M235 520 c41 -42 75 -52 75 -22 0 9 -4 22 -8 29 -9 15 -56 33 -85 33
-19 0 -17 -5 18 -40z"/>
<path d="M155 380 c41 -42 75 -52 75 -22 0 27 -14 42 -51 52 -60 18 -65 12
-24 -30z"/>
<path d="M241 259 c-19 -28 -53 -66 -75 -85 -36 -31 -39 -37 -30 -61 18 -53
37 -38 94 74 67 131 63 123 53 123 -4 0 -23 -23 -42 -51z"/>
</g>
</svg>
