<?xml version="1.0" standalone="no"?>
<!DOCTYPE svg PUBLIC "-//W3C//DTD SVG 20010904//EN"
 "http://www.w3.org/TR/2001/REC-SVG-20010904/DTD/svg10.dtd">
<svg version="1.0" xmlns="http://www.w3.org/2000/svg"
 width="90.000000pt" height="92.000000pt" viewBox="0 0 90.000000 92.000000"
 preserveAspectRatio="xMidYMid meet">
<metadata>
Created by potrace 1.16, written by Peter Selinger 2001-2019
</metadata>
<g transform="translate(0.000000,92.000000) scale(0.100000,-0.100000)"
fill="#000000" stroke="none">
<path d="M639 869 c-7 -18 -23 -45 -37 -60 -13 -16 -21 -29 -17 -29 17 0 125
66 125 77 0 11 -37 43 -51 43 -4 0 -12 -14 -20 -31z"/>
<path d="M450 852 c0 -17 52 -83 63 -79 7 2 13 15 15 30 3 20 -3 29 -27 41
-33 17 -51 20 -51 8z"/>
<path d="M565 758 c-82 -16 -163 -33 -180 -37 l-30 -7 23 -13 c17 -9 35 -10
68 -3 39 8 46 7 54 -8 19 -35 11 -48 -28 -55 -21 -3 -45 -5 -53 -3 -9 2 -12
-3 -9 -12 2 -8 5 -54 6 -102 2 -117 8 -140 37 -133 12 3 55 6 96 7 72 3 74 2
81 -23 l8 -26 -132 -18 c-162 -21 -168 -23 -136 -40 20 -10 39 -10 100 0 41 7
97 16 123 20 l48 6 -3 -88 -3 -88 -47 2 c-27 1 -48 0 -48 -2 0 -6 93 -95 100
-95 4 0 15 9 26 21 16 18 19 37 19 138 l0 116 85 3 c47 2 89 7 94 12 4 4 -4
16 -19 26 -22 15 -36 16 -90 8 l-63 -10 -5 29 c-4 27 -2 29 25 25 16 -3 32 0
36 6 4 6 9 54 12 106 4 52 8 101 10 109 3 8 -8 22 -26 33 -26 15 -39 17 -73 9
l-42 -9 3 31 c4 40 16 45 100 46 74 1 90 11 56 35 -29 20 -43 19 -223 -16z
m27 -68 c3 -38 2 -40 -25 -40 -26 0 -28 3 -23 24 4 15 1 28 -6 33 -9 5 -3 10
17 14 17 4 31 7 31 8 1 0 4 -17 6 -39z m106 -62 c7 -7 12 -20 12 -31 0 -15 -7
-18 -42 -15 -35 2 -44 7 -46 25 -2 14 3 23 15 26 33 8 49 7 61 -5z m-106 -27
c-5 -39 33 -66 83 -58 l35 6 0 -54 c0 -44 -3 -53 -15 -49 -8 3 -57 -2 -109
-11 -134 -24 -130 -27 -127 75 2 82 9 99 38 100 13 0 4 -40 -17 -79 -11 -21
-10 -22 9 -11 22 11 51 59 51 84 0 8 10 17 23 19 12 2 25 5 28 6 3 0 4 -12 1
-28z"/>
<path d="M547 500 c-57 -15 -67 -30 -21 -30 39 0 124 21 119 30 -10 15 -41 16
-98 0z"/>
<path d="M220 748 c-30 -11 -79 -20 -107 -21 -29 0 -53 -2 -53 -4 0 -2 6 -14
14 -26 8 -12 20 -52 26 -90 11 -63 29 -95 38 -69 6 19 30 14 42 -7 5 -11 10
-71 10 -134 0 -110 -1 -115 -22 -121 -13 -3 -26 -6 -30 -6 -5 0 -8 40 -8 89 0
94 -4 101 -52 101 -15 0 -18 -4 -13 -17 11 -28 27 -164 21 -180 -4 -10 -15
-12 -41 -7 -46 8 -47 -14 -4 -50 l30 -26 42 24 c23 14 80 41 127 61 89 39 129
65 98 65 -8 0 -34 -7 -57 -15 l-41 -14 0 64 c0 70 0 69 70 77 15 2 26 10 28
22 4 17 0 18 -48 12 l-53 -7 6 34 c3 19 1 39 -5 45 -6 6 3 12 27 16 19 4 35
12 33 19 -4 22 14 91 30 119 14 25 15 30 2 42 -25 24 -53 25 -110 4z m46 -65
c-3 -21 -6 -47 -6 -59 0 -17 -10 -23 -51 -32 -28 -7 -55 -12 -59 -12 -8 0 -24
82 -22 107 1 10 77 31 116 32 28 1 28 0 22 -36z"/>
<path d="M460 260 c0 -21 57 -73 73 -67 22 8 22 44 0 55 -31 16 -73 23 -73 12z"/>
</g>
</svg>
