<?xml version="1.0" standalone="no"?>
<!DOCTYPE svg PUBLIC "-//W3C//DTD SVG 20010904//EN"
 "http://www.w3.org/TR/2001/REC-SVG-20010904/DTD/svg10.dtd">
<svg version="1.0" xmlns="http://www.w3.org/2000/svg"
 width="96.000000pt" height="68.000000pt" viewBox="0 0 96.000000 68.000000"
 preserveAspectRatio="xMidYMid meet">
<metadata>
Created by potrace 1.16, written by Peter Selinger 2001-2019
</metadata>
<g transform="translate(0.000000,68.000000) scale(0.100000,-0.100000)"
fill="#000000" stroke="none">
<path d="M570 151 c0 -5 -8 -12 -17 -14 -14 -4 -12 -5 5 -6 12 0 22 -2 22 -4
0 -1 -4 -16 -9 -33 -15 -53 3 -58 37 -10 l32 44 -31 16 c-37 19 -39 19 -39 7z"/>
<path d="M458 133 c7 -3 16 -2 19 1 4 3 -2 6 -13 5 -11 0 -14 -3 -6 -6z"/>
<path d="M318 123 c6 -2 10 -9 6 -14 -3 -5 0 -9 5 -9 6 0 11 4 11 9 0 5 8 12
18 14 9 3 1 5 -18 5 -19 0 -29 -2 -22 -5z"/>
<path d="M418 123 c7 -3 16 -2 19 1 4 3 -2 6 -13 5 -11 0 -14 -3 -6 -6z"/>
<path d="M336 81 c-4 -6 -3 -11 2 -11 6 0 9 -7 8 -16 0 -9 7 -18 17 -19 9 -2
15 1 11 6 -3 5 -10 6 -16 3 -7 -5 -9 -2 -6 8 8 19 -7 45 -16 29z"/>
<path d="M511 49 c-18 -6 -32 -11 -30 -13 8 -7 79 7 79 15 0 11 -4 10 -49 -2z"/>
<path d="M418 33 c12 -2 30 -2 40 0 9 3 -1 5 -23 4 -22 0 -30 -2 -17 -4z"/>
</g>
</svg>
