<?xml version="1.0" standalone="no"?>
<!DOCTYPE svg PUBLIC "-//W3C//DTD SVG 20010904//EN"
 "http://www.w3.org/TR/2001/REC-SVG-20010904/DTD/svg10.dtd">
<svg version="1.0" xmlns="http://www.w3.org/2000/svg"
 width="90.000000pt" height="92.000000pt" viewBox="0 0 90.000000 92.000000"
 preserveAspectRatio="xMidYMid meet">
<metadata>
Created by potrace 1.16, written by Peter Selinger 2001-2019
</metadata>
<g transform="translate(0.000000,92.000000) scale(0.100000,-0.100000)"
fill="#000000" stroke="none">
<path d="M570 785 c-182 -32 -170 -28 -135 -47 23 -12 41 -14 73 -8 38 7 42 5
42 -13 0 -11 -9 -40 -21 -64 -19 -39 -24 -43 -56 -43 -32 0 -34 -2 -22 -17 17
-19 16 -170 -1 -232 -7 -25 -7 -48 -1 -64 11 -30 27 -41 36 -27 9 15 25 12 25
-6 0 -19 -46 -86 -97 -141 -83 -89 35 -22 127 72 l55 56 -24 20 -23 19 50 0
c27 0 62 2 78 6 25 4 32 0 47 -28 18 -31 19 -32 33 -13 10 14 14 54 14 154 0
75 4 151 9 169 9 31 8 34 -22 53 -22 14 -41 18 -62 14 -16 -4 -61 -12 -99 -20
l-68 -13 34 36 c56 61 62 70 49 86 -9 11 1 14 56 19 38 4 85 7 106 7 41 0 46
9 19 33 -24 22 -64 20 -222 -8z m138 -218 c3 -36 2 -37 -22 -31 -14 3 -56 -1
-95 -10 -92 -21 -91 -21 -91 18 0 34 1 35 58 46 31 6 62 13 67 15 6 2 26 3 45
2 33 -2 35 -4 38 -40z m2 -74 c0 -10 3 -27 6 -38 5 -18 0 -20 -48 -20 -29 -1
-79 -5 -110 -9 l-58 -9 0 35 c0 32 2 34 28 31 15 -2 59 3 97 11 39 8 73 15 78
15 4 1 7 -7 7 -16z m10 -112 c0 -48 -9 -62 -31 -51 -12 7 -39 7 -81 0 -101
-16 -119 -14 -114 13 3 12 5 28 5 35 1 8 18 12 49 13 26 0 67 4 92 8 78 14 80
14 80 -18z"/>
<path d="M275 744 c-27 -8 -80 -17 -117 -20 -45 -5 -68 -11 -68 -20 0 -12 58
-26 95 -21 18 2 20 -5 23 -79 l3 -81 -93 -12 c-126 -17 -128 -18 -99 -42 27
-22 55 -23 134 -5 l57 14 0 -96 c-1 -54 -5 -128 -9 -165 -10 -74 1 -127 25
-127 24 0 34 71 34 236 l0 162 33 5 c17 3 53 9 80 13 52 7 60 19 23 35 -17 8
-41 8 -80 2 l-56 -10 1 36 c1 20 4 47 8 61 4 14 4 35 0 48 -8 20 -5 22 24 23
75 2 107 27 62 47 -14 7 -27 11 -28 11 -1 -1 -24 -8 -52 -15z"/>
<path d="M640 245 c0 -10 123 -170 136 -178 22 -12 34 1 34 36 0 42 -21 71
-73 101 -46 27 -97 48 -97 41z"/>
</g>
</svg>
