<?xml version="1.0" standalone="no"?>
<!DOCTYPE svg PUBLIC "-//W3C//DTD SVG 20010904//EN"
 "http://www.w3.org/TR/2001/REC-SVG-20010904/DTD/svg10.dtd">
<svg version="1.0" xmlns="http://www.w3.org/2000/svg"
 width="96.000000pt" height="68.000000pt" viewBox="0 0 96.000000 68.000000"
 preserveAspectRatio="xMidYMid meet">
<metadata>
Created by potrace 1.16, written by Peter Selinger 2001-2019
</metadata>
<g transform="translate(0.000000,68.000000) scale(0.100000,-0.100000)"
fill="#000000" stroke="none">
<path d="M715 109 c6 -9 -3 -12 -45 -10 -15 0 -19 -2 -10 -6 8 -3 25 -17 37
-32 21 -26 22 -26 37 -6 22 29 20 60 -4 62 -11 1 -18 -2 -15 -8z m15 -28 c0
-6 -5 -13 -12 -17 -6 -4 -8 -3 -4 4 3 5 0 13 -6 15 -8 3 -6 6 5 6 9 1 17 -3
17 -8z"/>
<path d="M471 101 c-10 -7 -11 -13 -2 -30 11 -20 13 -20 28 -6 14 14 14 18 2
30 -9 9 -19 11 -28 6z"/>
<path d="M592 89 c18 -12 48 -11 48 0 0 5 -14 9 -31 9 -20 -1 -26 -4 -17 -9z"/>
</g>
</svg>
