<?xml version="1.0" standalone="no"?>
<!DOCTYPE svg PUBLIC "-//W3C//DTD SVG 20010904//EN"
 "http://www.w3.org/TR/2001/REC-SVG-20010904/DTD/svg10.dtd">
<svg version="1.0" xmlns="http://www.w3.org/2000/svg"
 width="90.000000pt" height="92.000000pt" viewBox="0 0 90.000000 92.000000"
 preserveAspectRatio="xMidYMid meet">
<metadata>
Created by potrace 1.16, written by Peter Selinger 2001-2019
</metadata>
<g transform="translate(0.000000,92.000000) scale(0.100000,-0.100000)"
fill="#000000" stroke="none">
<path d="M336 878 c-13 -31 -96 -117 -161 -166 -29 -22 -29 -23 -5 -16 14 3
52 23 86 43 42 26 77 40 115 44 29 3 64 9 77 13 19 5 21 4 15 -12 -18 -43 -48
-83 -66 -88 -11 -2 -67 -10 -126 -17 l-107 -13 18 -35 c10 -19 18 -45 18 -56
0 -34 17 -44 58 -34 20 5 49 9 65 9 25 0 27 -3 27 -45 0 -38 -3 -45 -20 -45
-13 0 -20 7 -20 20 0 31 -35 44 -84 31 -22 -5 -56 -13 -74 -16 -17 -4 -32 -11
-32 -17 0 -6 10 -8 22 -5 63 16 106 19 113 7 13 -21 -10 -30 -103 -42 -79 -10
-90 -13 -80 -26 12 -14 88 -12 154 4 21 6 25 3 22 -12 -2 -10 -16 -21 -33 -25
-17 -4 -43 -10 -58 -13 -47 -11 -20 -29 32 -22 80 11 99 17 98 29 -1 49 3 57
33 57 l30 0 0 -95 c0 -52 -4 -95 -9 -95 -5 0 -17 -3 -25 -6 -14 -5 -15 -2 -6
22 10 25 8 31 -11 47 -12 10 -28 16 -36 13 -8 -3 -43 -11 -78 -18 -36 -6 -65
-16 -65 -21 0 -9 30 -7 108 9 30 6 32 5 32 -23 0 -27 -4 -31 -37 -37 -21 -3
-64 -6 -95 -6 -62 0 -81 -12 -47 -31 15 -8 47 -9 96 -5 61 6 73 4 73 -8 0 -10
-16 -17 -55 -21 -51 -7 -75 -19 -61 -32 10 -11 157 8 155 20 -5 45 1 57 31 57
26 0 30 -3 30 -29 0 -39 41 -86 88 -103 55 -19 263 -16 333 5 78 23 86 36 61
89 -12 24 -24 55 -27 70 -10 39 -22 35 -30 -9 -16 -90 -55 -107 -229 -102
-109 4 -119 6 -137 28 -37 46 -27 59 54 66 39 4 102 8 139 9 37 1 69 4 72 7 2
2 16 54 29 114 14 61 28 117 31 125 4 10 -4 21 -23 33 -28 16 -35 16 -88 3
-32 -7 -73 -16 -90 -20 -33 -5 -33 -5 -33 34 0 36 2 39 33 44 17 3 49 8 70 11
21 3 37 12 37 19 0 7 14 32 31 56 l32 44 -28 24 c-21 17 -34 22 -54 17 -14 -4
-60 -13 -101 -20 l-75 -13 63 59 c34 32 62 63 62 68 0 5 -14 14 -30 21 -26 11
-37 10 -78 -7 -26 -11 -60 -23 -77 -27 l-30 -6 33 28 c39 34 40 45 7 60 -38
17 -43 15 -59 -20z m279 -225 c-4 -21 -8 -39 -9 -40 -1 -1 -25 -5 -55 -9 l-53
-7 4 39 c4 48 11 54 72 54 l48 0 -7 -37z m-170 -83 l0 -95 -28 -3 -27 -3 2
101 3 101 25 -3 c25 -3 25 -4 25 -98z m-95 56 c0 -36 -2 -38 -69 -51 -37 -8
-51 4 -51 42 0 18 8 24 43 31 73 17 77 16 77 -22z m313 -169 c4 -11 -18 -186
-25 -192 -2 -1 -36 -5 -75 -9 l-73 -6 6 97 c3 54 8 100 10 102 17 18 150 25
157 8z m-209 -104 c7 -77 5 -89 -10 -100 -10 -7 -26 -13 -36 -13 -16 0 -18 10
-18 100 l0 100 29 0 28 0 7 -87z"/>
<path d="M580 415 c0 -29 -2 -30 -42 -9 -33 17 -32 8 3 -32 19 -20 18 -21 -13
-64 -32 -44 -24 -46 19 -7 22 20 23 20 43 2 30 -27 47 -6 27 34 -13 26 -13 32
-1 42 20 16 17 36 -5 49 -28 14 -31 13 -31 -15z"/>
</g>
</svg>
