<?xml version="1.0" standalone="no"?>
<!DOCTYPE svg PUBLIC "-//W3C//DTD SVG 20010904//EN"
 "http://www.w3.org/TR/2001/REC-SVG-20010904/DTD/svg10.dtd">
<svg version="1.0" xmlns="http://www.w3.org/2000/svg"
 width="96.000000pt" height="68.000000pt" viewBox="0 0 96.000000 68.000000"
 preserveAspectRatio="xMidYMid meet">
<metadata>
Created by potrace 1.16, written by Peter Selinger 2001-2019
</metadata>
<g transform="translate(0.000000,68.000000) scale(0.100000,-0.100000)"
fill="#000000" stroke="none">
<path d="M490 427 c0 -9 -3 -23 -6 -32 -6 -16 -5 -16 25 0 35 18 37 38 3 43
-14 2 -22 -2 -22 -11z"/>
<path d="M379 389 c26 -21 37 -19 28 6 -4 8 -17 15 -29 15 l-23 -1 24 -20z"/>
<path d="M445 369 c-72 -9 -137 -18 -145 -19 -10 -1 -8 -4 6 -10 13 -5 61 -3
120 6 55 7 126 16 158 20 40 4 55 9 45 15 -18 11 -25 10 -184 -12z"/>
</g>
</svg>
