<?xml version="1.0" standalone="no"?>
<!DOCTYPE svg PUBLIC "-//W3C//DTD SVG 20010904//EN"
 "http://www.w3.org/TR/2001/REC-SVG-20010904/DTD/svg10.dtd">
<svg version="1.0" xmlns="http://www.w3.org/2000/svg"
 width="96.000000pt" height="68.000000pt" viewBox="0 0 96.000000 68.000000"
 preserveAspectRatio="xMidYMid meet">
<metadata>
Created by potrace 1.16, written by Peter Selinger 2001-2019
</metadata>
<g transform="translate(0.000000,68.000000) scale(0.100000,-0.100000)"
fill="#000000" stroke="none">
<path d="M605 165 c3 -82 8 -96 27 -77 9 9 9 15 0 24 -15 15 -16 48 -1 48 5 0
9 8 7 18 -1 9 1 23 6 30 9 16 8 17 -20 26 -21 6 -22 4 -19 -69z"/>
<path d="M811 133 c0 -7 -1 -16 0 -19 0 -4 -12 -15 -28 -26 -23 -16 -39 -18
-90 -14 -66 5 -84 -7 -37 -24 35 -14 74 -12 74 2 0 9 3 9 12 0 20 -20 48 -14
48 11 0 16 3 18 9 9 4 -8 12 -14 16 -14 13 0 24 26 16 37 -5 5 -11 19 -14 30
-2 11 -5 14 -6 8z m-94 -79 c-3 -3 -12 -4 -19 -1 -8 3 -5 6 6 6 11 1 17 -2 13
-5z"/>
</g>
</svg>
