<?xml version="1.0" standalone="no"?>
<!DOCTYPE svg PUBLIC "-//W3C//DTD SVG 20010904//EN"
 "http://www.w3.org/TR/2001/REC-SVG-20010904/DTD/svg10.dtd">
<svg version="1.0" xmlns="http://www.w3.org/2000/svg"
 width="96.000000pt" height="68.000000pt" viewBox="0 0 96.000000 68.000000"
 preserveAspectRatio="xMidYMid meet">
<metadata>
Created by potrace 1.16, written by Peter Selinger 2001-2019
</metadata>
<g transform="translate(0.000000,68.000000) scale(0.100000,-0.100000)"
fill="#000000" stroke="none">
<path d="M670 286 c0 -15 -49 -26 -117 -26 -32 0 -43 4 -43 15 0 20 -29 19
-37 -1 -8 -22 16 -72 26 -55 5 8 34 15 67 17 33 2 69 6 82 9 14 4 24 0 28 -10
14 -36 44 -9 44 41 0 19 -5 24 -25 24 -14 0 -25 -6 -25 -14z"/>
</g>
</svg>
