<?xml version="1.0" standalone="no"?>
<!DOCTYPE svg PUBLIC "-//W3C//DTD SVG 20010904//EN"
 "http://www.w3.org/TR/2001/REC-SVG-20010904/DTD/svg10.dtd">
<svg version="1.0" xmlns="http://www.w3.org/2000/svg"
 width="96.000000pt" height="68.000000pt" viewBox="0 0 96.000000 68.000000"
 preserveAspectRatio="xMidYMid meet">
<metadata>
Created by potrace 1.16, written by Peter Selinger 2001-2019
</metadata>
<g transform="translate(0.000000,68.000000) scale(0.100000,-0.100000)"
fill="#000000" stroke="none">
<path d="M490 575 c0 -32 -40 -92 -98 -147 -33 -32 -56 -58 -51 -58 21 0 116
69 157 114 l43 46 93 -65 c91 -63 136 -80 136 -51 0 21 -48 52 -138 91 -50 22
-77 40 -77 50 0 9 -7 20 -15 25 -23 15 -50 12 -50 -5z"/>
</g>
</svg>
