<?xml version="1.0" standalone="no"?>
<!DOCTYPE svg PUBLIC "-//W3C//DTD SVG 20010904//EN"
 "http://www.w3.org/TR/2001/REC-SVG-20010904/DTD/svg10.dtd">
<svg version="1.0" xmlns="http://www.w3.org/2000/svg"
 width="90.000000pt" height="92.000000pt" viewBox="0 0 90.000000 92.000000"
 preserveAspectRatio="xMidYMid meet">
<metadata>
Created by potrace 1.16, written by Peter Selinger 2001-2019
</metadata>
<g transform="translate(0.000000,92.000000) scale(0.100000,-0.100000)"
fill="#000000" stroke="none">
<path d="M640 833 c0 -9 -14 -41 -31 -71 l-31 -55 30 19 c16 10 47 34 68 53
l38 34 -23 18 c-29 23 -51 24 -51 2z"/>
<path d="M430 799 c0 -16 53 -87 69 -94 27 -11 36 41 12 67 -14 16 -81 38 -81
27z"/>
<path d="M636 704 c-27 -7 -91 -19 -143 -26 -108 -14 -117 -31 -22 -38 63 -5
64 -5 67 -36 3 -34 -12 -44 -70 -44 -15 0 -30 -5 -33 -10 -10 -15 39 -30 79
-23 l36 6 0 -41 0 -40 -72 -7 c-40 -3 -82 -9 -92 -12 -19 -5 -19 -6 -1 -19 10
-8 29 -14 41 -14 21 0 22 -3 13 -27 -16 -46 -108 -162 -171 -214 -32 -27 -54
-49 -48 -49 28 0 100 49 163 111 60 57 73 66 89 58 11 -6 36 -9 56 -7 l37 3 3
-56 c3 -66 5 -65 -126 -75 -45 -4 -85 -11 -88 -16 -3 -5 11 -15 31 -23 29 -13
43 -13 78 -4 23 7 121 15 217 18 146 5 175 9 175 21 0 32 -51 43 -144 31 -48
-6 -92 -11 -98 -11 -8 0 -8 13 -1 42 6 24 11 52 13 63 1 14 13 22 50 30 27 5
50 15 52 22 7 21 -36 25 -114 9 -145 -27 -156 -29 -147 -14 4 7 16 23 27 35
19 22 19 24 3 41 -16 18 -15 19 31 26 26 4 97 9 156 13 111 6 134 16 101 40
-19 15 -81 13 -162 -3 l-33 -7 2 41 c3 41 3 41 48 47 72 9 91 15 91 25 0 14
-46 23 -90 17 -37 -5 -38 -4 -42 29 -4 30 -1 34 27 39 128 25 151 36 116 54
-24 13 -42 12 -105 -5z"/>
<path d="M195 668 c-49 -11 -101 -22 -115 -25 -25 -5 -25 -5 -5 -20 13 -9 32
-13 54 -9 l33 5 -7 -36 c-9 -51 -48 -126 -106 -204 -27 -37 -49 -69 -49 -73 0
-15 20 -3 64 40 55 53 60 50 70 -36 7 -56 35 -118 36 -77 0 14 9 17 48 18 75
2 87 9 89 53 2 21 9 52 18 69 20 41 19 54 -7 68 -17 9 -37 8 -94 -7 -41 -10
-76 -15 -79 -12 -3 3 13 40 36 83 35 65 40 81 30 97 -13 21 -16 20 72 38 56
11 75 31 41 44 -20 8 -21 7 -129 -16z m72 -314 c-3 -31 -7 -58 -9 -59 -2 -2
-21 -5 -43 -7 l-40 -3 0 55 c0 53 1 55 30 61 68 15 68 15 62 -47z"/>
</g>
</svg>
