<?xml version="1.0" standalone="no"?>
<!DOCTYPE svg PUBLIC "-//W3C//DTD SVG 20010904//EN"
 "http://www.w3.org/TR/2001/REC-SVG-20010904/DTD/svg10.dtd">
<svg version="1.0" xmlns="http://www.w3.org/2000/svg"
 width="96.000000pt" height="68.000000pt" viewBox="0 0 96.000000 68.000000"
 preserveAspectRatio="xMidYMid meet">
<metadata>
Created by potrace 1.16, written by Peter Selinger 2001-2019
</metadata>
<g transform="translate(0.000000,68.000000) scale(0.100000,-0.100000)"
fill="#000000" stroke="none">
<path d="M663 563 c-3 -10 -15 -30 -25 -45 -31 -45 3 -33 81 29 5 4 -31 32
-42 33 -4 0 -10 -8 -14 -17z"/>
<path d="M502 510 c22 -31 58 -41 58 -16 0 16 -42 46 -65 46 -13 0 -11 -6 7
-30z"/>
<path d="M578 462 c-65 -8 -118 -19 -118 -23 0 -4 26 -9 58 -11 53 -3 57 -5
60 -29 3 -25 0 -27 -50 -34 -41 -5 -49 -9 -33 -15 11 -5 35 -6 53 -3 30 5 32
4 32 -25 l0 -30 -75 -7 c-73 -7 -105 -25 -45 -25 19 0 30 -5 30 -14 0 -20 -82
-109 -141 -152 -27 -20 -48 -39 -45 -42 7 -7 123 63 157 95 22 20 35 24 80 21
l54 -3 3 -42 3 -42 -43 -5 c-24 -4 -68 -7 -98 -9 -53 -2 -54 -3 -28 -16 21
-11 39 -11 90 -2 36 6 126 11 201 11 75 0 137 4 137 9 0 5 -13 14 -30 21 -22
9 -48 9 -107 2 -42 -6 -80 -9 -84 -6 -4 2 -4 18 1 35 5 17 8 36 7 42 -1 6 17
14 40 17 24 4 45 9 49 13 14 13 -45 18 -106 8 -36 -6 -78 -11 -94 -11 l-29 0
21 23 c17 18 19 26 10 35 -6 6 -10 14 -7 16 2 2 64 8 137 12 72 4 132 10 132
15 0 15 -41 20 -110 13 l-70 -7 0 27 c0 27 2 28 84 41 54 9 31 28 -27 24 -43
-4 -46 -2 -49 23 -5 29 -4 29 102 40 35 4 31 23 -5 24 -16 1 -83 -5 -147 -14z"/>
<path d="M358 465 c-2 -3 -40 -9 -84 -15 -113 -15 -135 -20 -128 -31 3 -5 23
-9 46 -9 39 0 40 -1 33 -27 -8 -37 -48 -96 -103 -155 -25 -27 -42 -51 -38 -55
3 -4 29 10 58 29 28 20 56 34 62 32 6 -2 12 -18 13 -34 3 -36 24 -81 31 -62 2
7 23 12 58 12 49 0 54 2 54 23 0 12 9 37 21 56 18 30 19 35 5 49 -13 13 -24
14 -86 2 -78 -15 -83 -25 -12 -25 l47 0 -3 -35 c-5 -47 -8 -50 -47 -50 -36 0
-37 1 -48 65 -2 11 -9 19 -15 17 -7 -1 8 28 33 64 28 42 43 74 40 84 -5 15 3
19 50 25 55 6 74 26 39 39 -19 7 -19 7 -26 1z"/>
</g>
</svg>
