<?xml version="1.0" standalone="no"?>
<!DOCTYPE svg PUBLIC "-//W3C//DTD SVG 20010904//EN"
 "http://www.w3.org/TR/2001/REC-SVG-20010904/DTD/svg10.dtd">
<svg version="1.0" xmlns="http://www.w3.org/2000/svg"
 width="96.000000pt" height="68.000000pt" viewBox="0 0 96.000000 68.000000"
 preserveAspectRatio="xMidYMid meet">
<metadata>
Created by potrace 1.16, written by Peter Selinger 2001-2019
</metadata>
<g transform="translate(0.000000,68.000000) scale(0.100000,-0.100000)"
fill="#000000" stroke="none">
<path d="M663 562 c-4 -9 -18 -32 -31 -49 -31 -41 -19 -42 42 -2 50 33 54 47
18 60 -17 7 -24 4 -29 -9z"/>
<path d="M490 521 c15 -29 52 -53 64 -41 15 15 -21 60 -50 60 -21 0 -23 -3
-14 -19z"/>
<path d="M573 461 c-61 -9 -115 -19 -119 -23 -17 -18 115 -8 304 22 2 0 0 5
-3 10 -8 13 -44 11 -182 -9z"/>
</g>
</svg>
