<?xml version="1.0" standalone="no"?>
<!DOCTYPE svg PUBLIC "-//W3C//DTD SVG 20010904//EN"
 "http://www.w3.org/TR/2001/REC-SVG-20010904/DTD/svg10.dtd">
<svg version="1.0" xmlns="http://www.w3.org/2000/svg"
 width="96.000000pt" height="68.000000pt" viewBox="0 0 96.000000 68.000000"
 preserveAspectRatio="xMidYMid meet">
<metadata>
Created by potrace 1.16, written by Peter Selinger 2001-2019
</metadata>
<g transform="translate(0.000000,68.000000) scale(0.100000,-0.100000)"
fill="#000000" stroke="none">
<path d="M540 581 c0 -6 11 -23 24 -38 23 -27 26 -27 42 -11 17 17 17 18 -1
38 -18 20 -65 28 -65 11z"/>
<path d="M545 505 c-82 -13 -152 -24 -154 -24 -2 -1 4 -10 14 -21 30 -33 10
-157 -51 -305 -7 -18 -6 -19 11 -5 30 24 73 127 85 203 6 40 13 82 16 94 3 18
14 23 71 32 38 6 108 13 156 17 53 4 85 10 79 16 -18 18 -80 16 -227 -7z"/>
</g>
</svg>
