<?xml version="1.0" standalone="no"?>
<!DOCTYPE svg PUBLIC "-//W3C//DTD SVG 20010904//EN"
 "http://www.w3.org/TR/2001/REC-SVG-20010904/DTD/svg10.dtd">
<svg version="1.0" xmlns="http://www.w3.org/2000/svg"
 width="90.000000pt" height="92.000000pt" viewBox="0 0 90.000000 92.000000"
 preserveAspectRatio="xMidYMid meet">
<metadata>
Created by potrace 1.16, written by Peter Selinger 2001-2019
</metadata>
<g transform="translate(0.000000,92.000000) scale(0.100000,-0.100000)"
fill="#000000" stroke="none">
<path d="M380 854 c-19 -7 -47 -13 -62 -13 -31 -1 -37 -15 -11 -29 11 -6 27
-5 49 4 58 24 64 15 64 -103 l0 -106 -35 6 -35 6 32 -40 c17 -21 35 -39 39
-39 25 0 37 52 41 173 l5 128 -26 13 c-21 11 -32 11 -61 0z"/>
<path d="M190 840 c-8 -5 -39 -15 -68 -21 -46 -11 -51 -14 -38 -27 12 -13 20
-12 61 3 31 13 49 15 56 8 6 -6 11 -48 12 -94 l2 -84 -32 -3 -32 -3 26 -40 26
-40 26 26 c24 23 26 33 28 121 1 53 4 102 7 110 3 7 -7 22 -21 34 -29 23 -32
23 -53 10z"/>
<path d="M500 829 c0 -6 5 -19 10 -29 11 -20 40 -220 34 -231 -2 -4 -24 -12
-49 -18 -65 -16 -59 -35 9 -28 l54 5 7 -46 c4 -26 17 -80 30 -121 l24 -74 -30
-36 c-16 -20 -52 -54 -79 -75 -28 -21 -49 -41 -46 -43 7 -8 104 46 142 79 33
29 37 30 46 14 23 -41 97 -123 136 -150 60 -43 67 -31 51 90 l-13 99 -13 -47
c-9 -31 -20 -48 -30 -48 -18 0 -71 54 -92 93 -13 25 -12 31 14 79 15 29 36 65
47 80 25 37 23 55 -12 73 -40 21 -40 20 -40 -27 0 -45 -36 -132 -51 -123 -8 6
-40 105 -53 166 -5 24 -2 27 62 45 46 13 68 24 70 37 4 22 -29 23 -89 2 -26
-10 -46 -12 -52 -6 -10 10 -5 167 7 193 6 13 0 22 -26 38 -36 22 -68 26 -68 9z"/>
<path d="M315 740 c30 -31 45 -31 45 0 0 19 -19 30 -53 30 -19 0 -19 -2 8 -30z"/>
<path d="M89 742 c14 -27 39 -45 51 -37 18 11 10 35 -16 45 -38 15 -46 13 -35
-8z"/>
<path d="M680 705 c24 -25 50 -45 56 -45 15 0 28 36 18 51 -9 15 -68 39 -96
39 -20 0 -17 -5 22 -45z"/>
<path d="M350 689 c-19 -10 -43 -18 -52 -19 -10 0 -18 -4 -18 -8 0 -5 8 -16
18 -25 16 -14 19 -13 47 12 66 59 67 73 5 40z"/>
<path d="M125 669 c-33 -16 -66 -29 -72 -29 -19 0 -16 -14 7 -35 19 -17 21
-16 67 25 40 35 73 72 61 69 -2 0 -30 -14 -63 -30z"/>
<path d="M267 583 c-4 -3 -7 -15 -7 -26 0 -31 -59 -96 -145 -160 -44 -32 -82
-61 -85 -64 -3 -3 20 5 50 16 65 25 149 81 190 127 16 19 32 34 36 34 3 0 42
-27 86 -61 80 -61 108 -68 108 -29 0 24 -39 50 -122 81 -47 17 -57 25 -53 39
4 12 -2 24 -17 34 -25 18 -32 19 -41 9z"/>
<path d="M287 433 c-17 -32 -91 -104 -126 -123 -13 -6 -20 -14 -17 -17 9 -9
127 54 169 90 l38 33 -25 23 -24 23 -15 -29z"/>
<path d="M335 350 c-8 -24 -95 -104 -152 -137 -24 -13 -43 -27 -43 -28 0 -13
101 30 154 65 100 64 112 85 66 110 -15 8 -20 6 -25 -10z"/>
<path d="M365 251 c-9 -30 -113 -121 -186 -163 -85 -50 -46 -50 53 0 73 37
196 120 197 134 1 9 -40 48 -50 48 -4 0 -10 -9 -14 -19z"/>
</g>
</svg>
