<?xml version="1.0" standalone="no"?>
<!DOCTYPE svg PUBLIC "-//W3C//DTD SVG 20010904//EN"
 "http://www.w3.org/TR/2001/REC-SVG-20010904/DTD/svg10.dtd">
<svg version="1.0" xmlns="http://www.w3.org/2000/svg"
 width="90.000000pt" height="92.000000pt" viewBox="0 0 90.000000 92.000000"
 preserveAspectRatio="xMidYMid meet">
<metadata>
Created by potrace 1.16, written by Peter Selinger 2001-2019
</metadata>
<g transform="translate(0.000000,92.000000) scale(0.100000,-0.100000)"
fill="#000000" stroke="none">
<path d="M160 797 c0 -8 13 -39 30 -70 21 -39 26 -57 17 -60 -7 -3 -54 -11
-105 -18 -98 -14 -115 -27 -62 -49 25 -10 40 -10 88 3 31 9 97 23 146 32 49 8
91 17 93 19 11 11 -35 30 -68 29 -38 -2 -39 -1 -39 31 0 41 -16 61 -62 81 -31
13 -38 13 -38 2z"/>
<path d="M575 789 c-55 -10 -110 -15 -122 -12 -26 6 -27 3 -12 -30 6 -13 16
-50 22 -83 11 -54 14 -59 37 -57 178 13 201 16 192 25 -13 13 8 59 41 95 17
19 18 25 7 38 -32 38 -60 42 -165 24z m79 -37 c8 -13 -11 -84 -25 -93 -13 -8
-119 -23 -124 -17 -1 2 -5 24 -8 50 l-6 47 42 9 c54 13 114 14 121 4z"/>
<path d="M386 564 c1 -41 6 -80 11 -85 7 -7 27 -6 57 2 26 6 49 9 53 6 7 -8 6
-87 -1 -95 -3 -3 -42 -7 -86 -10 -44 -3 -83 -9 -86 -14 -3 -4 10 -15 28 -22
26 -11 43 -12 81 -3 26 5 50 8 53 5 3 -4 -6 -31 -20 -61 -25 -51 -76 -108
-136 -149 l-25 -18 30 6 c72 15 161 100 191 183 l17 48 75 7 c41 3 111 6 154
6 59 0 79 3 76 13 -8 23 -52 38 -95 33 -24 -3 -43 -2 -43 3 0 4 11 25 25 45
31 46 31 52 0 72 -22 14 -36 15 -122 4 -201 -25 -193 -25 -193 -2 0 11 4 32
10 46 8 21 6 28 -13 41 -37 26 -42 19 -41 -61z m311 -68 c-3 -8 -9 -31 -13
-51 -8 -43 -16 -47 -77 -43 l-45 3 13 38 c9 26 9 39 2 44 -17 10 22 22 77 22
38 1 47 -2 43 -13z"/>
<path d="M178 541 c-31 -9 -60 -19 -63 -23 -15 -15 49 -20 108 -8 70 15 89 26
67 40 -20 13 -44 11 -112 -9z"/>
<path d="M218 455 c-3 -3 -25 -9 -48 -13 -60 -10 -65 -32 -8 -32 50 1 126 14
136 24 3 4 0 11 -8 16 -16 10 -63 13 -72 5z"/>
<path d="M215 344 c-22 -9 -61 -15 -86 -15 l-46 0 18 -37 c11 -20 19 -44 19
-54 0 -30 30 -94 38 -81 4 6 25 14 47 18 90 15 97 17 87 27 -11 11 4 66 30
107 11 20 11 24 -6 37 -24 17 -49 17 -101 -2z m37 -36 c2 -7 2 -29 -2 -48 -4
-29 -11 -37 -40 -47 -42 -13 -46 -10 -53 44 -5 41 -4 42 32 51 51 14 58 14 63
0z"/>
<path d="M590 311 c0 -5 7 -15 16 -22 9 -8 41 -46 70 -86 74 -100 104 -114
104 -49 0 54 -32 89 -122 136 -62 33 -68 34 -68 21z"/>
</g>
</svg>
