<?xml version="1.0" standalone="no"?>
<!DOCTYPE svg PUBLIC "-//W3C//DTD SVG 20010904//EN"
 "http://www.w3.org/TR/2001/REC-SVG-20010904/DTD/svg10.dtd">
<svg version="1.0" xmlns="http://www.w3.org/2000/svg"
 width="96.000000pt" height="68.000000pt" viewBox="0 0 96.000000 68.000000"
 preserveAspectRatio="xMidYMid meet">
<metadata>
Created by potrace 1.16, written by Peter Selinger 2001-2019
</metadata>
<g transform="translate(0.000000,68.000000) scale(0.100000,-0.100000)"
fill="#000000" stroke="none">
<path d="M560 571 c0 -6 0 -12 0 -13 1 -16 -40 -128 -67 -182 -19 -37 -32 -70
-30 -73 3 -2 22 16 42 40 33 40 43 45 90 51 29 3 61 9 71 13 15 5 16 2 10 -30
-4 -21 -4 -37 -1 -37 3 0 27 12 55 27 55 30 54 44 -4 63 -25 8 -48 7 -96 -4
-35 -9 -66 -14 -68 -12 -2 2 10 31 27 64 28 55 32 92 11 92 -5 0 -15 3 -24 6
-9 3 -16 1 -16 -5z"/>
</g>
</svg>
