<?xml version="1.0" standalone="no"?>
<!DOCTYPE svg PUBLIC "-//W3C//DTD SVG 20010904//EN"
 "http://www.w3.org/TR/2001/REC-SVG-20010904/DTD/svg10.dtd">
<svg version="1.0" xmlns="http://www.w3.org/2000/svg"
 width="96.000000pt" height="68.000000pt" viewBox="0 0 96.000000 68.000000"
 preserveAspectRatio="xMidYMid meet">
<metadata>
Created by potrace 1.16, written by Peter Selinger 2001-2019
</metadata>
<g transform="translate(0.000000,68.000000) scale(0.100000,-0.100000)"
fill="#000000" stroke="none">
<path d="M290 159 l0 -71 -29 4 c-31 5 -31 -1 -3 -34 18 -21 45 -23 60 -5 5 6
12 49 14 95 5 81 4 82 -19 82 -22 0 -23 -3 -23 -71z"/>
<path d="M397 168 c22 -38 53 -50 53 -21 0 10 -13 26 -29 36 -41 24 -45 21
-24 -15z"/>
<path d="M179 148 c-6 -13 -21 -33 -32 -45 -24 -27 -17 -41 11 -22 49 36 83
70 77 79 -11 18 -44 11 -56 -12z"/>
</g>
</svg>
