<?xml version="1.0" standalone="no"?>
<!DOCTYPE svg PUBLIC "-//W3C//DTD SVG 20010904//EN"
 "http://www.w3.org/TR/2001/REC-SVG-20010904/DTD/svg10.dtd">
<svg version="1.0" xmlns="http://www.w3.org/2000/svg"
 width="90.000000pt" height="92.000000pt" viewBox="0 0 90.000000 92.000000"
 preserveAspectRatio="xMidYMid meet">
<metadata>
Created by potrace 1.16, written by Peter Selinger 2001-2019
</metadata>
<g transform="translate(0.000000,92.000000) scale(0.100000,-0.100000)"
fill="#000000" stroke="none">
<path d="M279 838 c0 -29 -4 -78 -8 -108 -5 -30 -7 -57 -5 -58 1 -2 12 14 23
36 l21 40 75 7 c41 4 75 11 75 16 0 19 -50 29 -93 20 -23 -6 -43 -9 -44 -7 -2
1 2 18 9 36 10 30 9 35 -12 52 -34 28 -40 23 -41 -34z"/>
<path d="M587 857 c-3 -18 -15 -54 -27 -80 -19 -40 -26 -47 -51 -47 -26 0 -28
-2 -19 -19 13 -25 13 -174 0 -264 -13 -88 -2 -114 38 -93 32 16 142 36 201 36
52 0 61 -20 50 -105 -4 -33 -8 -68 -8 -77 -1 -9 -12 -29 -25 -45 -23 -27 -26
-27 -61 -14 -20 7 -38 11 -40 9 -5 -5 64 -92 76 -97 14 -4 57 37 75 71 8 15
21 72 28 125 8 54 17 108 21 120 11 34 -41 56 -113 48 -59 -7 -154 -23 -184
-31 -14 -4 -18 1 -18 24 0 28 0 28 94 41 103 14 133 25 101 37 -10 4 -58 1
-107 -8 -88 -15 -89 -15 -86 6 3 21 43 33 128 39 34 2 36 4 63 82 37 105 37
105 0 127 -31 18 -32 18 -93 -2 -66 -22 -82 -21 -57 5 9 8 33 36 54 61 l37 46
-23 19 c-33 27 -48 24 -54 -14z m98 -148 c4 -5 4 -22 1 -35 -5 -19 -11 -24
-23 -20 -9 4 -41 -1 -71 -9 -30 -9 -55 -15 -57 -13 -1 2 0 17 2 34 5 29 9 32
61 41 80 14 80 14 87 2z m-9 -95 c-3 -9 -6 -22 -6 -30 0 -8 -10 -14 -22 -14
-13 0 -44 -7 -70 -15 l-48 -14 0 34 c0 33 2 35 33 36 17 1 43 5 57 9 43 14 63
12 56 -6z"/>
<path d="M120 855 c0 -2 7 -23 16 -45 9 -23 14 -43 11 -46 -3 -3 -33 -8 -66
-11 -34 -3 -61 -9 -61 -13 0 -11 35 -40 48 -40 6 0 26 9 44 20 43 26 45 26 52
-15 4 -19 12 -35 18 -35 15 0 1 172 -15 182 -13 9 -47 11 -47 3z"/>
<path d="M335 670 c-11 -5 -39 -9 -63 -9 -43 -1 -43 -1 -28 -23 9 -12 16 -36
16 -53 0 -52 8 -56 78 -43 45 8 61 15 58 25 -3 8 2 32 11 54 14 35 14 42 2 50
-17 11 -47 10 -74 -1z m25 -54 c0 -29 -4 -36 -32 -45 -37 -13 -39 -12 -41 30
-2 33 5 38 66 48 4 0 7 -14 7 -33z"/>
<path d="M145 644 c-16 -7 -45 -13 -63 -14 -28 0 -31 -3 -24 -17 6 -10 13 -37
17 -60 4 -24 7 -43 8 -43 1 1 27 7 57 14 41 10 54 17 52 29 -1 9 4 29 12 45
23 45 -7 69 -59 46z m13 -56 c-2 -25 -9 -33 -30 -39 -19 -5 -28 -3 -28 4 0 7
-3 22 -6 34 -6 21 6 29 49 32 15 1 18 -5 15 -31z"/>
<path d="M130 495 c0 -26 -36 -88 -86 -149 -36 -45 -41 -55 -23 -46 13 7 32
19 42 28 9 8 20 12 24 8 10 -10 5 -146 -7 -182 -9 -26 -8 -39 5 -65 13 -25 19
-29 26 -18 5 8 9 21 9 30 0 19 63 28 216 34 47 1 88 5 91 9 16 16 -22 31 -78
30 -58 -1 -59 -1 -59 27 0 30 10 35 75 41 48 5 30 23 -25 26 -46 3 -51 5 -48
25 2 18 11 23 50 27 26 3 50 9 54 13 11 11 -44 27 -75 21 -26 -6 -28 -4 -27
24 1 28 4 31 46 36 25 4 52 11 60 16 37 24 -39 35 -95 14 -9 -4 -12 0 -9 13 6
23 -10 39 -50 49 l-30 7 23 -37 c13 -20 22 -38 20 -40 -9 -8 -99 -17 -99 -10
0 4 7 16 17 26 15 17 15 19 -2 38 -22 24 -45 26 -45 5z m110 -109 c0 -8 3 -21
6 -29 4 -12 -6 -17 -51 -22 -48 -6 -58 -5 -69 11 -21 28 -8 43 42 47 26 2 53
4 60 5 6 1 12 -4 12 -12z m10 -100 c0 -20 -6 -24 -46 -30 -77 -10 -82 -9 -77
18 4 21 12 26 47 29 22 2 49 4 59 5 12 1 17 -5 17 -22z m0 -86 c0 -31 -18 -40
-82 -40 -36 0 -38 2 -38 33 l0 32 60 1 c59 2 60 1 60 -26z"/>
<path d="M670 333 c1 -20 47 -88 60 -88 22 0 24 48 3 67 -21 19 -63 33 -63 21z"/>
<path d="M590 315 c0 -19 43 -86 53 -82 22 7 19 36 -7 62 -23 23 -46 33 -46
20z"/>
<path d="M452 245 c-26 -67 -27 -79 -8 -94 12 -10 17 -8 25 8 17 30 25 106 14
126 -8 13 -14 6 -31 -40z"/>
<path d="M520 297 c0 -21 35 -97 44 -94 20 7 18 55 -3 76 -18 18 -41 28 -41
18z"/>
</g>
</svg>
