<?xml version="1.0" standalone="no"?>
<!DOCTYPE svg PUBLIC "-//W3C//DTD SVG 20010904//EN"
 "http://www.w3.org/TR/2001/REC-SVG-20010904/DTD/svg10.dtd">
<svg version="1.0" xmlns="http://www.w3.org/2000/svg"
 width="96.000000pt" height="68.000000pt" viewBox="0 0 96.000000 68.000000"
 preserveAspectRatio="xMidYMid meet">
<metadata>
Created by potrace 1.16, written by Peter Selinger 2001-2019
</metadata>
<g transform="translate(0.000000,68.000000) scale(0.100000,-0.100000)"
fill="#000000" stroke="none">
<path d="M310 513 c0 -38 -6 -88 -14 -113 -12 -41 -17 -46 -52 -52 -21 -4 -59
-7 -83 -7 l-44 -1 19 -21 c15 -17 27 -20 59 -15 23 3 49 8 60 12 19 8 19 8 -2
-43 -3 -7 15 -25 41 -40 25 -15 46 -31 46 -34 0 -9 -67 -54 -115 -78 -32 -16
-36 -20 -17 -21 24 0 88 29 135 62 l28 20 49 -46 c55 -52 80 -58 80 -22 0 25
-44 69 -80 81 -21 7 -26 20 -10 30 10 6 26 39 54 108 8 20 22 37 30 37 9 0 16
5 16 10 0 6 -4 10 -10 10 -5 0 -10 7 -10 15 0 14 -37 35 -61 35 -6 0 -9 -15
-7 -32 3 -32 2 -33 -45 -42 -26 -4 -50 -6 -53 -3 -3 2 9 46 27 96 30 89 31 93
13 106 -11 8 -27 15 -36 15 -15 0 -18 -10 -18 -67z m110 -175 c-1 -19 -36 -95
-49 -102 -5 -4 -26 0 -46 8 -56 24 -43 76 25 94 49 14 70 14 70 0z"/>
</g>
</svg>
