<?xml version="1.0" standalone="no"?>
<!DOCTYPE svg PUBLIC "-//W3C//DTD SVG 20010904//EN"
 "http://www.w3.org/TR/2001/REC-SVG-20010904/DTD/svg10.dtd">
<svg version="1.0" xmlns="http://www.w3.org/2000/svg"
 width="96.000000pt" height="68.000000pt" viewBox="0 0 96.000000 68.000000"
 preserveAspectRatio="xMidYMid meet">
<metadata>
Created by potrace 1.16, written by Peter Selinger 2001-2019
</metadata>
<g transform="translate(0.000000,68.000000) scale(0.100000,-0.100000)"
fill="#000000" stroke="none">
<path d="M459 490 c0 -3 0 -26 1 -51 1 -46 1 -46 -37 -52 -48 -8 -103 -9 -103
-1 0 3 5 14 10 25 9 16 7 21 -15 29 -15 6 -28 10 -29 10 -2 0 -3 -12 -3 -27 0
-16 -3 -37 -7 -48 -13 -40 5 -48 70 -31 32 8 108 20 167 27 100 11 109 11 121
-6 13 -17 14 -17 30 7 9 14 18 39 19 54 2 24 -2 29 -24 32 -23 3 -25 0 -21
-27 4 -30 3 -31 -36 -31 -22 0 -54 -3 -71 -6 l-31 -6 0 55 c0 50 -2 56 -20 54
-11 -1 -20 -4 -21 -7z"/>
</g>
</svg>
