<?xml version="1.0" standalone="no"?>
<!DOCTYPE svg PUBLIC "-//W3C//DTD SVG 20010904//EN"
 "http://www.w3.org/TR/2001/REC-SVG-20010904/DTD/svg10.dtd">
<svg version="1.0" xmlns="http://www.w3.org/2000/svg"
 width="96.000000pt" height="68.000000pt" viewBox="0 0 96.000000 68.000000"
 preserveAspectRatio="xMidYMid meet">
<metadata>
Created by potrace 1.16, written by Peter Selinger 2001-2019
</metadata>
<g transform="translate(0.000000,68.000000) scale(0.100000,-0.100000)"
fill="#000000" stroke="none">
<path d="M439 122 c0 -4 -1 -23 -2 -42 -2 -31 -5 -35 -29 -35 -16 1 -28 0 -28
0 0 -1 14 -11 31 -24 24 -18 33 -20 45 -11 20 17 19 106 -1 114 -8 3 -15 2
-16 -2z"/>
<path d="M283 65 c-26 -41 -25 -41 28 -14 41 21 47 42 13 46 -12 2 -27 -9 -41
-32z"/>
<path d="M569 60 c48 -44 71 -50 71 -20 0 15 -13 27 -42 40 -67 31 -77 23 -29
-20z"/>
</g>
</svg>
