<?xml version="1.0" standalone="no"?>
<!DOCTYPE svg PUBLIC "-//W3C//DTD SVG 20010904//EN"
 "http://www.w3.org/TR/2001/REC-SVG-20010904/DTD/svg10.dtd">
<svg version="1.0" xmlns="http://www.w3.org/2000/svg"
 width="96.000000pt" height="68.000000pt" viewBox="0 0 96.000000 68.000000"
 preserveAspectRatio="xMidYMid meet">
<metadata>
Created by potrace 1.16, written by Peter Selinger 2001-2019
</metadata>
<g transform="translate(0.000000,68.000000) scale(0.100000,-0.100000)"
fill="#000000" stroke="none">
<path d="M374 593 c19 -87 19 -90 -5 -96 -50 -14 -68 -8 -71 21 -2 22 -8 28
-35 30 -31 3 -32 3 -26 -32 5 -33 4 -35 -31 -42 -46 -8 -42 -28 7 -32 l37 -3
0 -78 0 -78 -80 -7 c-44 -4 -82 -11 -85 -16 -9 -14 33 -31 68 -28 l32 3 3 -58
c4 -81 26 -91 179 -85 114 4 156 17 123 39 -8 5 -24 7 -35 3 -11 -3 -66 -8
-123 -11 l-103 -6 3 67 c2 54 6 66 19 66 10 0 25 3 34 7 14 5 16 2 10 -18 -4
-13 -14 -32 -23 -42 -8 -9 -12 -20 -9 -24 10 -9 67 46 78 75 14 35 39 28 39
-12 0 -38 12 -46 71 -46 24 0 38 4 34 10 -3 6 -22 10 -41 10 -30 0 -34 3 -34
25 0 30 30 45 91 45 28 0 39 4 39 15 0 12 -13 15 -56 15 l-56 0 6 31 c3 17 6
53 6 79 0 46 2 49 30 55 51 11 34 43 -19 35 -13 -1 -12 19 4 62 8 21 -7 35
-49 42 -38 7 -39 7 -32 -21z m16 -153 c0 -14 -7 -20 -22 -20 -13 0 -33 -3 -45
-6 -18 -5 -23 -2 -23 14 0 15 8 22 28 25 56 8 62 7 62 -13z m-3 -77 c-3 -2
-24 -7 -46 -10 -37 -5 -41 -3 -41 15 0 21 9 26 65 34 13 2 21 -3 23 -15 2 -10
1 -21 -1 -24z m3 -42 c0 -13 -10 -20 -31 -25 -49 -10 -59 -7 -59 13 0 22 13
29 58 30 25 1 32 -3 32 -18z"/>
<path d="M660 441 c0 -182 11 -164 -108 -177 -97 -10 -91 -28 7 -20 46 4 88 8
93 9 7 1 12 -40 14 -117 2 -65 6 -121 9 -124 16 -16 28 28 32 115 6 151 2 143
78 143 36 0 65 4 65 10 0 15 -46 23 -89 16 -35 -5 -39 -3 -45 18 -3 13 -3 78
0 145 l5 121 -26 10 c-14 6 -28 10 -31 10 -2 0 -4 -72 -4 -159z"/>
<path d="M540 474 c0 -13 44 -45 59 -42 25 5 23 24 -4 36 -28 13 -55 16 -55 6z"/>
<path d="M531 363 c8 -10 19 -21 24 -25 17 -13 55 -9 55 5 0 23 -23 37 -58 37
-31 0 -33 -2 -21 -17z"/>
</g>
</svg>
