<?xml version="1.0" standalone="no"?>
<!DOCTYPE svg PUBLIC "-//W3C//DTD SVG 20010904//EN"
 "http://www.w3.org/TR/2001/REC-SVG-20010904/DTD/svg10.dtd">
<svg version="1.0" xmlns="http://www.w3.org/2000/svg"
 width="90.000000pt" height="92.000000pt" viewBox="0 0 90.000000 92.000000"
 preserveAspectRatio="xMidYMid meet">
<metadata>
Created by potrace 1.16, written by Peter Selinger 2001-2019
</metadata>
<g transform="translate(0.000000,92.000000) scale(0.100000,-0.100000)"
fill="#000000" stroke="none">
<path d="M529 830 c-10 -7 -10 -11 1 -25 8 -9 15 -50 18 -94 l4 -78 -48 -7
c-109 -15 -105 -12 -87 -54 12 -28 14 -57 10 -122 -8 -113 -38 -206 -92 -285
-48 -70 -46 -82 8 -36 42 37 80 108 103 188 15 56 18 60 36 50 10 -7 37 -39
60 -71 l42 -59 -35 -29 c-19 -16 -65 -44 -104 -63 -56 -27 -64 -34 -43 -35 34
0 98 25 161 63 l48 30 16 -23 c41 -59 81 -90 115 -90 45 0 143 29 132 40 -5 4
-39 17 -75 29 -36 12 -87 35 -113 51 l-46 30 36 72 c20 40 44 81 53 91 15 18
14 20 -9 39 -24 19 -36 19 -97 2 -23 -6 -23 -5 -23 79 l0 84 41 7 c51 8 61 2
49 -30 -20 -50 -12 -55 37 -24 26 17 53 30 60 30 25 0 12 29 -23 51 -38 23
-66 26 -128 14 l-38 -8 7 54 c4 30 12 62 17 73 7 13 6 22 -4 32 -19 19 -72 34
-89 24z m21 -314 c0 -90 -4 -96 -56 -96 -23 0 -24 3 -24 63 0 86 7 105 39 110
14 2 29 5 34 6 4 0 7 -37 7 -83z m87 -168 c-12 -34 -26 -63 -32 -64 -5 -2 -29
20 -52 49 l-42 52 47 12 c26 6 59 12 74 12 l27 1 -22 -62z"/>
<path d="M186 778 c-23 -65 -66 -130 -106 -158 -24 -17 -29 -27 -24 -43 10
-36 21 -41 54 -27 17 7 33 10 36 7 11 -10 -49 -108 -88 -143 -46 -41 -28 -45
33 -5 53 33 113 122 104 152 -4 10 -3 19 2 19 4 0 18 3 31 6 21 6 22 4 22 -50
0 -70 21 -96 79 -96 49 0 71 8 71 26 0 15 -5 17 -65 18 l-40 1 0 62 c-1 49 3
63 16 66 10 3 23 -6 33 -24 21 -35 36 -29 36 13 0 36 -27 77 -69 101 -37 21
-38 19 -10 -27 l21 -35 -24 -5 c-81 -18 -140 -27 -144 -23 -2 2 18 35 46 73
27 38 50 76 50 84 0 17 -27 60 -38 60 -4 0 -16 -24 -26 -52z"/>
<path d="M180 445 c0 -9 -11 -38 -25 -66 -22 -43 -28 -48 -45 -39 -32 17 -47
11 -22 -10 l24 -20 -32 -40 c-37 -47 -25 -53 23 -10 l34 29 36 -26 36 -26 -19
-27 c-21 -29 -76 -81 -125 -117 -16 -12 -24 -23 -17 -23 25 0 95 42 143 87 46
43 49 44 71 29 29 -20 44 -20 52 1 4 9 -2 25 -14 38 -11 12 -20 25 -20 31 0 5
18 33 40 62 22 29 40 57 40 62 0 5 -13 16 -29 25 -26 13 -33 13 -65 0 -46 -19
-49 -19 -34 6 11 17 10 22 -6 35 -26 18 -46 18 -46 -1z m100 -80 c0 -13 -41
-85 -48 -85 -4 1 -22 9 -40 18 -30 17 -31 19 -17 39 14 20 34 27 88 32 9 0 17
-1 17 -4z"/>
</g>
</svg>
