<?xml version="1.0" standalone="no"?>
<!DOCTYPE svg PUBLIC "-//W3C//DTD SVG 20010904//EN"
 "http://www.w3.org/TR/2001/REC-SVG-20010904/DTD/svg10.dtd">
<svg version="1.0" xmlns="http://www.w3.org/2000/svg"
 width="96.000000pt" height="68.000000pt" viewBox="0 0 96.000000 68.000000"
 preserveAspectRatio="xMidYMid meet">
<metadata>
Created by potrace 1.16, written by Peter Selinger 2001-2019
</metadata>
<g transform="translate(0.000000,68.000000) scale(0.100000,-0.100000)"
fill="#000000" stroke="none">
<path d="M536 563 c4 -10 8 -43 9 -73 0 -55 0 -55 -32 -58 -18 -2 -33 -9 -33
-16 0 -8 12 -11 35 -8 l35 4 0 -55 c0 -58 7 -71 34 -61 12 5 16 20 16 64 0 57
0 58 33 63 40 6 52 -4 38 -32 -14 -26 -15 -26 50 2 l53 24 -29 19 c-22 14 -44
18 -88 17 l-60 -3 6 38 c3 20 8 44 12 53 5 12 -2 20 -26 28 -47 16 -63 14 -53
-6z"/>
</g>
</svg>
