<?xml version="1.0" standalone="no"?>
<!DOCTYPE svg PUBLIC "-//W3C//DTD SVG 20010904//EN"
 "http://www.w3.org/TR/2001/REC-SVG-20010904/DTD/svg10.dtd">
<svg version="1.0" xmlns="http://www.w3.org/2000/svg"
 width="90.000000pt" height="92.000000pt" viewBox="0 0 90.000000 92.000000"
 preserveAspectRatio="xMidYMid meet">
<metadata>
Created by potrace 1.16, written by Peter Selinger 2001-2019
</metadata>
<g transform="translate(0.000000,92.000000) scale(0.100000,-0.100000)"
fill="#000000" stroke="none">
<path d="M310 823 c0 -21 -7 -63 -15 -93 -8 -30 -15 -57 -15 -59 0 -11 40 34
45 50 5 16 17 19 63 19 31 0 64 5 72 10 26 17 -9 31 -63 25 -46 -6 -48 -5 -38
14 17 31 13 47 -14 59 -35 16 -35 17 -35 -25z"/>
<path d="M130 807 c0 -9 5 -19 10 -22 6 -3 10 -14 10 -23 0 -13 -16 -21 -67
-33 -66 -15 -67 -16 -42 -28 21 -10 35 -10 76 2 l49 15 12 -31 c19 -49 32 -21
23 50 -8 71 -7 69 -44 78 -21 6 -27 4 -27 -8z"/>
<path d="M748 785 c-2 -3 -69 -16 -147 -29 -79 -13 -145 -27 -148 -29 -12 -13
43 -29 78 -23 36 6 39 5 39 -19 0 -13 -8 -41 -17 -60 -15 -32 -21 -36 -44 -31
-32 6 -43 -2 -27 -21 12 -15 14 -238 2 -275 -3 -9 3 -32 12 -50 14 -25 19 -29
22 -15 3 13 14 17 45 17 23 0 72 3 108 6 62 6 66 5 72 -15 7 -28 35 -27 41 2
3 12 7 98 9 190 l4 168 -24 16 c-22 14 -31 14 -104 -2 -44 -9 -82 -15 -84 -13
-3 2 10 21 27 42 l32 39 -22 17 c-22 18 -21 18 41 24 165 17 174 20 145 44
-17 13 -53 24 -60 17z m-18 -221 c17 -44 13 -56 -17 -50 -16 3 -53 -1 -83 -9
-87 -23 -100 -21 -100 19 l0 34 73 15 c105 22 116 21 127 -9z m10 -116 l0 -43
-47 -1 c-27 0 -74 -4 -105 -8 l-58 -9 0 37 c0 35 1 36 38 36 28 1 155 22 170
29 1 0 2 -18 2 -41z m0 -110 l0 -43 -52 0 c-29 0 -77 -4 -105 -8 l-53 -8 0 41
0 40 48 1 c26 0 67 4 92 8 25 5 51 9 58 10 8 1 12 -13 12 -41z"/>
<path d="M366 663 c-16 -9 -46 -16 -67 -16 -32 0 -36 -2 -28 -16 4 -9 13 -34
19 -56 l10 -41 64 10 c61 9 65 11 60 33 -4 14 1 34 11 49 9 14 15 27 13 29 -7
5 -47 25 -50 24 -2 -1 -16 -8 -32 -16z m24 -52 c0 -29 -18 -41 -62 -41 -31 0
-23 47 10 58 44 17 52 14 52 -17z"/>
<path d="M145 623 c-22 -8 -50 -11 -62 -8 -22 5 -32 -8 -14 -19 5 -4 12 -24
16 -46 7 -41 19 -58 29 -41 4 5 31 13 61 16 41 6 53 10 46 19 -7 8 -4 22 9 44
19 31 19 32 0 42 -23 12 -34 12 -85 -7z m45 -37 c0 -25 -16 -36 -57 -36 -19 0
-24 4 -21 22 2 14 13 25 28 29 43 12 50 10 50 -15z"/>
<path d="M240 525 c0 -4 7 -19 15 -34 14 -27 13 -29 -8 -35 -37 -10 -57 -7
-51 7 6 17 -31 51 -45 42 -6 -3 -11 -13 -11 -21 0 -27 -32 -77 -83 -131 -55
-58 -53 -66 8 -28 22 13 43 25 48 25 11 0 8 -112 -4 -167 -10 -42 -9 -54 6
-84 l18 -34 13 30 c7 17 13 39 14 51 0 19 9 22 103 33 56 6 122 12 146 14 53
2 63 19 23 36 -26 11 -48 10 -104 -6 -14 -3 -18 2 -18 25 0 28 2 30 55 37 30
3 57 10 60 15 8 13 -40 23 -81 17 -28 -5 -34 -3 -34 13 0 21 19 30 63 30 36 0
65 15 53 27 -4 4 -32 7 -62 6 -30 -1 -54 2 -54 7 0 19 31 38 74 44 52 8 65 20
38 35 -13 7 -31 7 -53 1 -48 -14 -59 -12 -59 8 0 11 -11 24 -25 30 -28 13 -45
15 -45 7z m27 -142 c-10 -9 -118 -20 -123 -12 -3 5 0 17 6 28 15 29 113 35
118 8 2 -10 1 -21 -1 -24z m1 -78 c-2 -1 -27 -5 -55 -9 -52 -7 -53 -6 -53 18
0 23 4 25 53 28 44 3 53 0 55 -15 2 -10 2 -20 0 -22z m2 -65 c0 -19 -5 -30
-14 -30 -7 0 -34 -3 -60 -6 l-46 -7 0 34 0 34 60 2 60 2 0 -29z"/>
<path d="M537 211 c-4 -17 -33 -58 -68 -95 -34 -36 -57 -66 -52 -66 28 0 203
137 203 159 0 9 -45 31 -64 31 -8 0 -16 -13 -19 -29z"/>
<path d="M732 138 c69 -90 100 -106 106 -55 5 40 -20 72 -81 107 -91 52 -96
40 -25 -52z"/>
</g>
</svg>
