<?xml version="1.0" standalone="no"?>
<!DOCTYPE svg PUBLIC "-//W3C//DTD SVG 20010904//EN"
 "http://www.w3.org/TR/2001/REC-SVG-20010904/DTD/svg10.dtd">
<svg version="1.0" xmlns="http://www.w3.org/2000/svg"
 width="96.000000pt" height="68.000000pt" viewBox="0 0 96.000000 68.000000"
 preserveAspectRatio="xMidYMid meet">
<metadata>
Created by potrace 1.16, written by Peter Selinger 2001-2019
</metadata>
<g transform="translate(0.000000,68.000000) scale(0.100000,-0.100000)"
fill="#000000" stroke="none">
<path d="M270 567 c0 -3 9 -21 20 -40 l21 -35 -23 -5 c-13 -3 -50 -8 -83 -12
-83 -9 -101 -15 -84 -26 20 -12 64 -11 160 5 46 8 110 17 142 21 75 9 73 25
-3 25 -44 0 -60 4 -60 13 0 8 -8 21 -17 30 -18 16 -73 34 -73 24z"/>
</g>
</svg>
