<?xml version="1.0" standalone="no"?>
<!DOCTYPE svg PUBLIC "-//W3C//DTD SVG 20010904//EN"
 "http://www.w3.org/TR/2001/REC-SVG-20010904/DTD/svg10.dtd">
<svg version="1.0" xmlns="http://www.w3.org/2000/svg"
 width="90.000000pt" height="92.000000pt" viewBox="0 0 90.000000 92.000000"
 preserveAspectRatio="xMidYMid meet">
<metadata>
Created by potrace 1.16, written by Peter Selinger 2001-2019
</metadata>
<g transform="translate(0.000000,92.000000) scale(0.100000,-0.100000)"
fill="#000000" stroke="none">
<path d="M495 848 c4 -13 10 -48 12 -80 5 -63 11 -59 -100 -74 -55 -7 -66 -18
-36 -34 20 -11 89 -7 125 7 11 4 14 -7 14 -45 l0 -51 -47 -6 c-27 -3 -57 -10
-68 -14 -19 -8 -19 -8 4 -20 19 -11 39 -11 103 -1 43 7 80 11 83 9 2 -2 7 -27
13 -56 9 -51 9 -52 -17 -57 -30 -6 -247 -36 -261 -36 -19 0 -10 -17 15 -28 20
-9 46 -9 113 2 48 8 104 17 125 20 l37 5 -1 -102 c-1 -56 -4 -115 -8 -132 -6
-27 -10 -30 -52 -33 l-45 -3 44 -44 c25 -25 48 -45 52 -45 3 0 17 12 31 26 23
25 24 30 23 179 l-1 153 36 6 c20 3 59 6 88 6 61 0 74 12 38 36 -20 13 -39 15
-94 10 l-69 -7 5 40 c5 37 3 41 -21 47 -39 9 -21 24 30 24 49 0 56 12 19 36
-23 15 -48 14 -107 -2 -15 -5 -18 2 -18 44 l0 50 78 7 c116 9 115 9 119 22 3
6 -9 19 -26 27 -27 14 -37 14 -93 1 -35 -8 -66 -15 -70 -15 -3 0 -4 27 -1 60
7 69 -5 90 -49 90 -27 0 -29 -2 -23 -22z"/>
<path d="M187 818 c4 -24 8 -81 8 -128 l0 -85 -68 -11 c-37 -6 -70 -14 -74
-18 -15 -14 13 -21 78 -19 l69 3 0 -61 0 -60 -100 -47 c-106 -50 -117 -64 -69
-91 26 -14 29 -13 93 37 36 29 68 52 72 52 6 0 -2 -132 -12 -183 -6 -27 -8
-28 -45 -22 -21 4 -39 5 -39 3 0 -3 23 -29 50 -59 l50 -54 20 25 c23 30 23 31
20 195 l-2 130 41 30 c55 41 56 61 1 30 -37 -21 -40 -19 -40 35 0 46 2 50 28
56 15 3 38 10 52 16 24 10 24 10 5 25 -12 8 -31 12 -47 9 -27 -5 -28 -4 -28
42 0 41 5 71 21 131 4 15 -55 61 -78 61 -12 0 -13 -8 -6 -42z"/>
<path d="M380 303 c0 -20 78 -108 98 -111 18 -3 22 1 22 25 0 40 -18 60 -69
78 -50 17 -51 17 -51 8z"/>
</g>
</svg>
