<?xml version="1.0" standalone="no"?>
<!DOCTYPE svg PUBLIC "-//W3C//DTD SVG 20010904//EN"
 "http://www.w3.org/TR/2001/REC-SVG-20010904/DTD/svg10.dtd">
<svg version="1.0" xmlns="http://www.w3.org/2000/svg"
 width="96.000000pt" height="68.000000pt" viewBox="0 0 96.000000 68.000000"
 preserveAspectRatio="xMidYMid meet">
<metadata>
Created by potrace 1.16, written by Peter Selinger 2001-2019
</metadata>
<g transform="translate(0.000000,68.000000) scale(0.100000,-0.100000)"
fill="#000000" stroke="none">
<path d="M632 393 c-22 -4 -22 -6 -6 -17 15 -11 17 -29 15 -127 -1 -85 1 -110
10 -99 9 12 10 11 6 -7 -3 -14 4 -30 23 -48 45 -43 195 -46 151 -2 -6 6 -11
20 -11 32 -1 17 -3 16 -16 -7 -8 -16 -20 -28 -27 -29 -7 0 -24 -2 -39 -3 -15
-1 -25 0 -23 2 6 6 -19 30 -26 26 -4 -2 -10 12 -13 31 -4 19 -11 35 -16 35 -6
0 -10 5 -10 11 0 5 5 7 10 4 7 -5 9 16 6 62 -4 49 -2 64 5 53 9 -12 10 -11 5
4 -4 11 0 26 10 37 14 15 14 21 4 34 -13 15 -17 16 -58 8z"/>
<path d="M580 370 c-9 -6 -10 -10 -3 -10 6 0 15 5 18 10 8 12 4 12 -15 0z"/>
</g>
</svg>
