<?xml version="1.0" standalone="no"?>
<!DOCTYPE svg PUBLIC "-//W3C//DTD SVG 20010904//EN"
 "http://www.w3.org/TR/2001/REC-SVG-20010904/DTD/svg10.dtd">
<svg version="1.0" xmlns="http://www.w3.org/2000/svg"
 width="96.000000pt" height="68.000000pt" viewBox="0 0 96.000000 68.000000"
 preserveAspectRatio="xMidYMid meet">
<metadata>
Created by potrace 1.16, written by Peter Selinger 2001-2019
</metadata>
<g transform="translate(0.000000,68.000000) scale(0.100000,-0.100000)"
fill="#000000" stroke="none">
<path d="M716 601 c-3 -4 -42 -11 -87 -15 -90 -7 -142 -25 -76 -26 37 0 38 -1
35 -32 -2 -28 -8 -34 -33 -39 -33 -6 -16 -20 20 -16 16 2 21 -5 23 -30 3 -30
1 -33 -25 -33 -15 0 -35 -5 -43 -11 -11 -8 14 -9 86 -4 l102 6 7 -76 c4 -41 4
-109 0 -151 -8 -82 -9 -83 -70 -59 -13 5 -6 -6 20 -34 43 -45 69 -52 85 -21 7
12 9 110 8 276 -3 255 -3 257 -25 265 -12 4 -25 4 -27 0z m-1 -33 c2 -7 5 -43
7 -80 l4 -68 -42 0 c-24 0 -45 4 -48 8 -10 17 7 52 24 52 28 0 51 11 44 21 -3
5 -18 9 -35 9 -25 0 -29 4 -29 29 0 25 5 30 28 34 15 2 31 5 35 6 4 0 9 -5 12
-11z"/>
<path d="M187 528 c12 -34 14 -70 9 -173 -3 -71 -11 -156 -17 -188 -14 -67 -1
-111 29 -105 21 4 30 57 31 178 2 110 6 128 34 123 12 -2 56 5 97 16 71 18 73
19 32 20 -43 1 -43 1 -40 34 2 27 8 33 31 35 35 4 35 20 0 24 -22 2 -28 8 -28
28 0 19 6 26 25 28 14 2 30 8 35 14 7 7 -10 8 -55 3 -77 -9 -112 -9 -162 0
l-36 7 15 -44z m128 -23 c0 -25 -4 -30 -27 -33 -16 -2 -28 -8 -28 -14 0 -6 13
-8 29 -6 26 4 30 1 35 -25 3 -17 5 -31 4 -32 -2 -1 -20 -5 -40 -8 l-38 -6 0
73 c0 40 3 76 7 80 4 4 19 6 33 4 20 -2 25 -8 25 -33z"/>
</g>
</svg>
