<?xml version="1.0" standalone="no"?>
<!DOCTYPE svg PUBLIC "-//W3C//DTD SVG 20010904//EN"
 "http://www.w3.org/TR/2001/REC-SVG-20010904/DTD/svg10.dtd">
<svg version="1.0" xmlns="http://www.w3.org/2000/svg"
 width="96.000000pt" height="68.000000pt" viewBox="0 0 96.000000 68.000000"
 preserveAspectRatio="xMidYMid meet">
<metadata>
Created by potrace 1.16, written by Peter Selinger 2001-2019
</metadata>
<g transform="translate(0.000000,68.000000) scale(0.100000,-0.100000)"
fill="#000000" stroke="none">
<path d="M676 228 c15 -27 38 -48 51 -48 19 0 16 17 -7 40 -22 22 -56 28 -44
8z"/>
<path d="M600 200 c23 -32 43 -35 48 -8 1 8 -9 20 -23 26 -41 19 -48 14 -25
-18z"/>
<path d="M426 185 c-15 -35 -12 -65 5 -65 13 0 29 36 29 64 0 39 -18 40 -34 1z"/>
<path d="M515 191 c19 -38 33 -47 41 -26 7 18 -22 55 -43 55 -11 0 -11 -5 2
-29z"/>
</g>
</svg>
