<?xml version="1.0" standalone="no"?>
<!DOCTYPE svg PUBLIC "-//W3C//DTD SVG 20010904//EN"
 "http://www.w3.org/TR/2001/REC-SVG-20010904/DTD/svg10.dtd">
<svg version="1.0" xmlns="http://www.w3.org/2000/svg"
 width="96.000000pt" height="68.000000pt" viewBox="0 0 96.000000 68.000000"
 preserveAspectRatio="xMidYMid meet">
<metadata>
Created by potrace 1.16, written by Peter Selinger 2001-2019
</metadata>
<g transform="translate(0.000000,68.000000) scale(0.100000,-0.100000)"
fill="#000000" stroke="none">
<path d="M574 342 c-1 -61 -11 -102 -25 -102 -6 0 -27 14 -46 30 -18 17 -38
30 -43 30 -20 0 -9 -17 30 -49 22 -17 40 -38 40 -46 0 -18 -52 -58 -110 -85
l-45 -20 47 5 c45 4 118 40 133 65 4 7 25 -6 54 -33 57 -54 78 -61 145 -53 77
10 86 21 29 36 -87 23 -193 71 -193 87 0 8 9 46 21 84 23 77 20 99 -13 99 -21
0 -23 -5 -24 -48z"/>
</g>
</svg>
