<?xml version="1.0" standalone="no"?>
<!DOCTYPE svg PUBLIC "-//W3C//DTD SVG 20010904//EN"
 "http://www.w3.org/TR/2001/REC-SVG-20010904/DTD/svg10.dtd">
<svg version="1.0" xmlns="http://www.w3.org/2000/svg"
 width="90.000000pt" height="92.000000pt" viewBox="0 0 90.000000 92.000000"
 preserveAspectRatio="xMidYMid meet">
<metadata>
Created by potrace 1.16, written by Peter Selinger 2001-2019
</metadata>
<g transform="translate(0.000000,92.000000) scale(0.100000,-0.100000)"
fill="#000000" stroke="none">
<path d="M528 818 c-3 -7 1 -28 8 -47 7 -20 13 -75 14 -122 l0 -87 -32 -6
c-18 -3 -61 -6 -95 -7 -35 -1 -63 -5 -63 -9 0 -4 7 -24 15 -44 9 -21 22 -101
30 -179 8 -78 17 -152 20 -164 6 -25 35 -32 35 -9 0 13 84 26 181 26 42 0 46
-2 62 -36 10 -19 23 -34 30 -32 30 9 57 94 73 233 9 77 23 153 31 170 15 28
15 30 -18 58 -29 24 -40 28 -74 23 -22 -4 -62 -9 -89 -13 l-49 -6 7 81 c3 45
11 93 16 106 11 29 -3 51 -43 66 -37 13 -54 13 -59 -2z m230 -353 l3 -70 -76
0 -75 0 0 67 c0 76 1 77 90 75 l55 -2 3 -70z m-206 10 c1 -25 2 -55 2 -67 1
-21 -5 -24 -56 -28 -47 -4 -58 -2 -58 10 0 8 -3 38 -6 67 -7 58 -5 60 74 62
l42 1 2 -45z m198 -127 c0 -6 -5 -39 -11 -73 l-11 -62 -59 1 -59 1 0 67 0 67
33 4 c69 8 107 7 107 -5z m-190 -72 c0 -70 -5 -76 -65 -76 -28 0 -33 4 -39 31
-3 17 -6 49 -6 70 l0 39 55 0 55 0 0 -64z"/>
<path d="M144 684 c3 -8 9 -92 13 -185 7 -187 6 -189 -50 -189 l-28 0 6 79 c7
74 6 79 -16 95 -35 24 -38 21 -33 -36 3 -31 -1 -76 -9 -107 -17 -61 -6 -107
22 -97 9 3 48 16 86 30 39 13 89 27 112 31 39 6 42 5 45 -20 2 -14 7 -27 13
-28 11 -2 20 45 30 159 l7 80 -27 12 c-15 7 -30 10 -33 7 -4 -3 -5 -42 -3 -87
3 -88 -2 -98 -52 -98 l-28 0 7 176 c8 190 7 194 -45 194 -17 0 -22 -4 -17 -16z"/>
</g>
</svg>
