<?xml version="1.0" standalone="no"?>
<!DOCTYPE svg PUBLIC "-//W3C//DTD SVG 20010904//EN"
 "http://www.w3.org/TR/2001/REC-SVG-20010904/DTD/svg10.dtd">
<svg version="1.0" xmlns="http://www.w3.org/2000/svg"
 width="96.000000pt" height="68.000000pt" viewBox="0 0 96.000000 68.000000"
 preserveAspectRatio="xMidYMid meet">
<metadata>
Created by potrace 1.16, written by Peter Selinger 2001-2019
</metadata>
<g transform="translate(0.000000,68.000000) scale(0.100000,-0.100000)"
fill="#000000" stroke="none">
<path d="M550 586 c0 -14 -65 -101 -108 -145 -22 -21 -22 -25 -8 -39 14 -15
25 -14 113 6 116 26 159 28 167 7 8 -22 46 -19 46 3 0 28 -70 82 -107 82 -14
0 -13 -4 6 -24 l23 -24 -69 -7 c-37 -3 -78 -8 -90 -11 -38 -8 -33 10 24 70 34
36 52 64 49 73 -3 8 -6 17 -6 19 0 2 -9 4 -20 4 -11 0 -20 -6 -20 -14z"/>
<path d="M295 571 c-11 -5 -44 -12 -72 -16 -80 -11 -65 -27 22 -23 73 3 75 2
75 -20 0 -47 -16 -60 -84 -67 l-64 -7 5 -33 c4 -22 -1 -43 -13 -64 -25 -43 -9
-59 43 -43 21 7 54 13 73 15 l35 2 -2 -45 c-3 -59 -20 -119 -42 -149 -17 -23
-19 -23 -50 -6 -50 25 -53 14 -12 -34 l38 -44 30 18 c40 24 57 55 77 145 26
115 54 132 81 51 l16 -50 50 6 49 6 0 -50 0 -50 -46 -7 c-26 -3 -63 -6 -82 -6
-35 0 -35 0 -16 -21 16 -18 26 -20 73 -14 31 4 82 15 116 25 109 32 118 32
140 -1 23 -33 48 -34 53 -2 4 24 -33 65 -78 88 -31 16 -40 9 -18 -13 16 -16
-4 -32 -39 -32 -12 0 -28 -3 -37 -6 -13 -5 -16 2 -16 45 l0 51 60 0 c39 0 60
4 60 12 0 6 12 27 26 45 36 47 22 58 -69 58 l-71 0 -1 30 c0 26 -4 30 -32 33
-31 3 -31 3 -26 -36 l5 -39 -47 -6 c-78 -11 -104 -8 -135 14 -25 19 -37 21
-90 15 l-61 -7 15 29 c8 16 13 32 10 35 -3 3 22 8 55 12 47 5 59 10 59 23 -1
10 9 39 22 65 15 31 19 52 13 58 -14 14 -74 20 -98 10z m392 -268 c3 -7 2 -24
-1 -38 -5 -21 -12 -25 -46 -25 -37 0 -40 2 -40 28 0 15 5 33 12 40 15 15 69
12 75 -5z m-137 -38 c0 -34 -1 -35 -39 -35 -34 0 -40 4 -49 29 -12 34 -6 39
51 40 36 1 37 0 37 -34z"/>
</g>
</svg>
