<?xml version="1.0" standalone="no"?>
<!DOCTYPE svg PUBLIC "-//W3C//DTD SVG 20010904//EN"
 "http://www.w3.org/TR/2001/REC-SVG-20010904/DTD/svg10.dtd">
<svg version="1.0" xmlns="http://www.w3.org/2000/svg"
 width="96.000000pt" height="68.000000pt" viewBox="0 0 96.000000 68.000000"
 preserveAspectRatio="xMidYMid meet">
<metadata>
Created by potrace 1.16, written by Peter Selinger 2001-2019
</metadata>
<g transform="translate(0.000000,68.000000) scale(0.100000,-0.100000)"
fill="#000000" stroke="none">
<path d="M474 583 c-20 -63 -47 -106 -104 -165 -36 -37 -58 -66 -49 -63 25 8
47 -16 62 -70 9 -28 20 -49 27 -47 9 2 213 12 250 12 5 0 21 25 36 56 25 53
25 56 8 69 -20 15 -32 19 -49 16 -19 -4 -172 -21 -240 -26 l-70 -6 56 53 c30
29 67 70 83 91 15 20 31 37 36 37 7 0 124 -92 140 -110 31 -37 122 -52 175
-30 18 7 17 8 -10 15 -64 15 -122 36 -160 60 -22 13 -56 33 -77 44 -20 11 -46
34 -58 51 -24 34 -48 39 -56 13z m176 -245 c0 -46 -9 -54 -62 -60 l-48 -6 0
44 c0 46 4 48 83 53 24 1 27 -2 27 -31z m-152 -30 c-3 -41 -5 -43 -37 -46 -41
-4 -47 2 -56 51 l-7 37 51 0 52 0 -3 -42z"/>
<path d="M580 319 c-7 -11 -10 -22 -8 -25 6 -6 48 26 48 37 0 17 -29 9 -40
-12z"/>
<path d="M440 313 c1 -18 19 -35 29 -28 9 5 9 10 0 21 -12 15 -29 19 -29 7z"/>
<path d="M190 434 c-19 -7 -50 -11 -67 -8 -38 6 -38 6 -18 -38 8 -18 19 -53
25 -76 10 -38 14 -43 33 -39 12 3 43 9 69 12 33 5 45 11 42 20 -3 8 4 35 15
61 12 25 21 52 21 59 0 27 -61 32 -120 9z m40 -64 c0 -33 -4 -42 -25 -52 -31
-14 -35 -10 -42 40 -5 36 -3 41 18 45 48 9 49 8 49 -33z"/>
<path d="M492 438 c-23 -5 -40 -13 -37 -18 9 -15 145 5 145 21 0 11 -52 10
-108 -3z"/>
<path d="M535 210 c-16 -4 -53 -8 -81 -9 l-51 -1 4 -77 c3 -43 6 -82 7 -88 1
-5 44 -8 100 -6 60 2 102 -2 110 -8 23 -19 33 8 38 97 4 72 2 84 -13 93 -20
10 -70 10 -114 -1z m66 -20 c19 -11 26 -44 12 -53 -5 -3 -44 -6 -88 -8 -71 -4
-80 -2 -83 15 -6 28 11 38 75 46 32 4 59 8 61 9 2 0 12 -4 23 -9z m17 -107
c-3 -27 -4 -27 -90 -31 l-88 -3 0 25 c0 27 13 31 128 34 52 2 53 2 50 -25z"/>
</g>
</svg>
