<?xml version="1.0" standalone="no"?>
<!DOCTYPE svg PUBLIC "-//W3C//DTD SVG 20010904//EN"
 "http://www.w3.org/TR/2001/REC-SVG-20010904/DTD/svg10.dtd">
<svg version="1.0" xmlns="http://www.w3.org/2000/svg"
 width="96.000000pt" height="68.000000pt" viewBox="0 0 96.000000 68.000000"
 preserveAspectRatio="xMidYMid meet">
<metadata>
Created by potrace 1.16, written by Peter Selinger 2001-2019
</metadata>
<g transform="translate(0.000000,68.000000) scale(0.100000,-0.100000)"
fill="#000000" stroke="none">
<path d="M630 466 c0 -32 -3 -34 -92 -42 -70 -6 -76 -5 -82 14 -7 20 -42 36
-58 26 -4 -3 -1 -16 8 -30 16 -24 16 -24 -17 -25 -19 0 -43 -4 -54 -8 -19 -8
-19 -8 2 -15 12 -4 38 -4 57 -1 28 6 36 3 45 -14 16 -28 31 -26 31 4 0 21 5
25 33 25 17 1 49 3 70 6 33 5 37 3 37 -15 0 -28 14 -26 34 4 16 24 22 25 106
25 50 0 90 4 90 9 0 15 -57 23 -112 16 -46 -7 -50 -6 -44 11 7 19 -8 34 -36
34 -12 0 -18 -8 -18 -24z"/>
</g>
</svg>
