<?xml version="1.0" standalone="no"?>
<!DOCTYPE svg PUBLIC "-//W3C//DTD SVG 20010904//EN"
 "http://www.w3.org/TR/2001/REC-SVG-20010904/DTD/svg10.dtd">
<svg version="1.0" xmlns="http://www.w3.org/2000/svg"
 width="90.000000pt" height="92.000000pt" viewBox="0 0 90.000000 92.000000"
 preserveAspectRatio="xMidYMid meet">
<metadata>
Created by potrace 1.16, written by Peter Selinger 2001-2019
</metadata>
<g transform="translate(0.000000,92.000000) scale(0.100000,-0.100000)"
fill="#000000" stroke="none">
<path d="M464 771 c1 -44 -2 -83 -6 -87 -4 -4 -31 -9 -59 -12 l-52 -5 6 56 c6
49 5 58 -12 67 -11 5 -29 10 -41 10 -18 0 -20 -4 -15 -35 17 -115 20 -103 -21
-111 -22 -4 -51 -2 -69 5 -51 18 -68 15 -60 -11 10 -34 55 -302 51 -306 -2 -2
-45 -6 -95 -9 -50 -3 -91 -10 -91 -15 0 -4 16 -16 35 -25 33 -16 41 -16 126 1
133 25 270 35 484 36 105 0 196 4 203 9 11 7 9 13 -9 30 -29 27 -71 34 -139
22 -30 -5 -56 -8 -58 -6 -3 3 53 244 63 266 4 12 -4 23 -30 39 -33 21 -41 22
-92 11 -31 -6 -59 -9 -61 -6 -3 3 0 27 6 55 6 27 9 56 6 63 -5 13 -45 37 -63
37 -4 0 -7 -36 -7 -79z m146 -177 c0 -59 -2 -65 -17 -59 -10 5 -33 10 -50 13
-31 4 -33 7 -33 42 0 61 7 70 56 70 l44 0 0 -66z m-152 -1 l-3 -58 -45 -6
c-25 -4 -46 -6 -47 -4 -2 1 -4 27 -6 58 -4 56 -4 56 27 60 81 10 77 13 74 -50z
m-156 -8 c0 -25 1 -51 2 -57 1 -9 -14 -13 -44 -13 l-45 0 -3 52 c-3 47 -1 52
20 56 64 12 68 10 70 -38z m297 -119 c-12 -93 -14 -96 -66 -96 l-46 0 7 46 c3
26 6 57 6 70 0 20 6 23 48 27 26 2 50 4 53 5 3 1 2 -22 -2 -52z m-147 -36 l-4
-70 -44 0 -44 0 0 64 0 65 38 4 c20 2 42 4 47 5 6 1 9 -25 7 -68z m-142 1 c0
-27 3 -56 6 -65 5 -13 -2 -16 -40 -16 -38 0 -46 3 -46 19 0 10 -3 39 -6 65
l-7 46 47 0 46 0 0 -49z"/>
<path d="M265 236 c-16 -33 -70 -89 -145 -149 l-35 -28 29 6 c35 7 157 77 176
100 7 9 26 23 42 31 36 19 36 40 -2 59 -41 21 -47 19 -65 -19z"/>
<path d="M500 257 c0 -2 42 -48 94 -102 102 -104 128 -116 134 -59 4 43 -35
87 -111 123 -62 29 -117 47 -117 38z"/>
</g>
</svg>
