<?xml version="1.0" standalone="no"?>
<!DOCTYPE svg PUBLIC "-//W3C//DTD SVG 20010904//EN"
 "http://www.w3.org/TR/2001/REC-SVG-20010904/DTD/svg10.dtd">
<svg version="1.0" xmlns="http://www.w3.org/2000/svg"
 width="96.000000pt" height="68.000000pt" viewBox="0 0 96.000000 68.000000"
 preserveAspectRatio="xMidYMid meet">
<metadata>
Created by potrace 1.16, written by Peter Selinger 2001-2019
</metadata>
<g transform="translate(0.000000,68.000000) scale(0.100000,-0.100000)"
fill="#000000" stroke="none">
<path d="M610 504 c-210 -32 -252 -36 -324 -30 -73 6 -78 5 -72 -11 6 -15 46
-197 46 -209 0 -2 10 -4 21 -4 23 0 23 13 3 146 -5 35 -3 43 12 47 44 13 326
39 334 31 5 -5 3 -48 -4 -99 -8 -50 -12 -93 -10 -97 2 -3 12 -4 22 -1 13 3 27
32 49 104 l30 100 -28 14 c-28 15 -33 15 -79 9z"/>
</g>
</svg>
