<?xml version="1.0" standalone="no"?>
<!DOCTYPE svg PUBLIC "-//W3C//DTD SVG 20010904//EN"
 "http://www.w3.org/TR/2001/REC-SVG-20010904/DTD/svg10.dtd">
<svg version="1.0" xmlns="http://www.w3.org/2000/svg"
 width="96.000000pt" height="68.000000pt" viewBox="0 0 96.000000 68.000000"
 preserveAspectRatio="xMidYMid meet">
<metadata>
Created by potrace 1.16, written by Peter Selinger 2001-2019
</metadata>
<g transform="translate(0.000000,68.000000) scale(0.100000,-0.100000)"
fill="#000000" stroke="none">
<path d="M570 561 c0 -10 39 -63 54 -73 11 -7 36 9 36 24 0 17 -49 58 -70 58
-11 0 -20 -4 -20 -9z"/>
<path d="M645 473 c-44 -7 -99 -12 -121 -10 -40 4 -42 3 -62 -38 -11 -24 -18
-46 -15 -49 15 -14 34 -4 49 27 16 33 17 33 127 49 62 9 116 13 120 8 5 -4 4
-18 -3 -30 -11 -21 -10 -22 22 -15 18 4 44 12 58 17 l25 10 -30 24 c-34 27
-54 28 -170 7z"/>
</g>
</svg>
