<?xml version="1.0" standalone="no"?>
<!DOCTYPE svg PUBLIC "-//W3C//DTD SVG 20010904//EN"
 "http://www.w3.org/TR/2001/REC-SVG-20010904/DTD/svg10.dtd">
<svg version="1.0" xmlns="http://www.w3.org/2000/svg"
 width="96.000000pt" height="68.000000pt" viewBox="0 0 96.000000 68.000000"
 preserveAspectRatio="xMidYMid meet">
<metadata>
Created by potrace 1.16, written by Peter Selinger 2001-2019
</metadata>
<g transform="translate(0.000000,68.000000) scale(0.100000,-0.100000)"
fill="#000000" stroke="none">
<path d="M490 485 c-47 -6 -91 -10 -97 -7 -16 5 -16 -2 -3 -26 5 -9 14 -29 20
-44 9 -26 30 -39 30 -19 0 5 32 11 71 13 53 3 73 8 80 20 5 10 17 24 25 33 9
9 15 17 13 19 -8 6 -48 26 -51 25 -2 -1 -41 -7 -88 -14z m70 -35 c0 -14 -9
-21 -37 -25 -21 -3 -48 -8 -61 -11 -17 -3 -25 1 -31 18 -7 20 -5 24 18 29 14
4 45 7 69 8 35 1 42 -2 42 -19z"/>
</g>
</svg>
