<?xml version="1.0" standalone="no"?>
<!DOCTYPE svg PUBLIC "-//W3C//DTD SVG 20010904//EN"
 "http://www.w3.org/TR/2001/REC-SVG-20010904/DTD/svg10.dtd">
<svg version="1.0" xmlns="http://www.w3.org/2000/svg"
 width="96.000000pt" height="68.000000pt" viewBox="0 0 96.000000 68.000000"
 preserveAspectRatio="xMidYMid meet">
<metadata>
Created by potrace 1.16, written by Peter Selinger 2001-2019
</metadata>
<g transform="translate(0.000000,68.000000) scale(0.100000,-0.100000)"
fill="#000000" stroke="none">
<path d="M590 435 c-8 -2 -36 -7 -63 -10 -78 -10 -46 -28 36 -20 l70 7 -6 -28
c-4 -16 -9 -39 -13 -51 -5 -19 -2 -23 18 -23 17 0 29 9 41 33 9 17 22 40 29
49 9 13 10 20 1 29 -11 11 -86 21 -113 14z"/>
</g>
</svg>
