<?xml version="1.0" standalone="no"?>
<!DOCTYPE svg PUBLIC "-//W3C//DTD SVG 20010904//EN"
 "http://www.w3.org/TR/2001/REC-SVG-20010904/DTD/svg10.dtd">
<svg version="1.0" xmlns="http://www.w3.org/2000/svg"
 width="96.000000pt" height="68.000000pt" viewBox="0 0 96.000000 68.000000"
 preserveAspectRatio="xMidYMid meet">
<metadata>
Created by potrace 1.16, written by Peter Selinger 2001-2019
</metadata>
<g transform="translate(0.000000,68.000000) scale(0.100000,-0.100000)"
fill="#000000" stroke="none">
<path d="M554 574 c3 -9 6 -45 6 -80 0 -56 2 -64 19 -64 16 0 20 10 26 69 8
80 4 91 -32 91 -19 0 -24 -4 -19 -16z"/>
<path d="M700 541 c0 -4 -11 -25 -25 -45 -13 -20 -22 -36 -18 -36 3 0 30 14
61 32 51 29 53 32 37 45 -21 15 -55 18 -55 4z"/>
<path d="M447 475 c20 -27 63 -34 63 -10 0 17 -30 35 -60 35 -20 0 -21 -1 -3
-25z"/>
</g>
</svg>
