<?xml version="1.0" standalone="no"?>
<!DOCTYPE svg PUBLIC "-//W3C//DTD SVG 20010904//EN"
 "http://www.w3.org/TR/2001/REC-SVG-20010904/DTD/svg10.dtd">
<svg version="1.0" xmlns="http://www.w3.org/2000/svg"
 width="90.000000pt" height="92.000000pt" viewBox="0 0 90.000000 92.000000"
 preserveAspectRatio="xMidYMid meet">
<metadata>
Created by potrace 1.16, written by Peter Selinger 2001-2019
</metadata>
<g transform="translate(0.000000,92.000000) scale(0.100000,-0.100000)"
fill="#000000" stroke="none">
<path d="M536 839 c-62 -17 -222 -41 -275 -40 l-56 0 0 -102 c-1 -62 -8 -127
-18 -167 -23 -89 -88 -215 -143 -278 -61 -70 -33 -68 43 2 70 65 115 149 146
275 12 47 22 87 23 89 2 5 256 32 301 32 38 0 43 2 41 23 -1 12 10 46 24 74
l26 53 -26 18 c-38 26 -53 30 -86 21z m13 -71 c-1 -49 -13 -71 -40 -75 -13 -2
-70 -10 -127 -19 -57 -9 -106 -13 -110 -9 -10 10 -2 79 11 92 12 11 169 39
235 42 30 1 32 -1 31 -31z"/>
<path d="M470 563 c-255 -36 -238 -32 -216 -49 10 -7 23 -15 29 -17 17 -5 -10
-68 -62 -148 -27 -41 -47 -76 -45 -78 2 -3 17 5 32 16 l28 21 33 -39 32 -39
-20 -29 c-20 -27 -86 -85 -126 -110 -18 -11 -16 -12 15 -6 40 6 95 42 151 98
40 41 149 190 149 205 0 5 -11 15 -25 22 -21 11 -34 11 -76 1 -28 -7 -53 -11
-56 -7 -3 3 6 21 20 39 18 24 23 37 15 45 -11 11 8 16 98 27 l51 7 8 -38 c3
-21 4 -99 0 -173 -7 -156 -2 -173 60 -205 52 -27 184 -29 231 -4 51 28 59 43
41 80 -8 18 -18 48 -22 65 -9 46 -22 41 -29 -11 -4 -24 -15 -51 -26 -61 -46
-42 -167 -38 -203 6 -14 17 -17 36 -15 82 3 59 4 60 33 64 29 3 113 20 148 30
28 7 20 22 -16 28 -20 4 -57 0 -91 -10 -32 -9 -60 -14 -63 -11 -3 3 -1 31 6
62 9 48 9 60 -4 74 -22 25 -9 30 71 30 40 0 76 4 79 10 5 9 -53 52 -65 49 -3
-1 -79 -13 -170 -26z m-87 -189 c3 -4 -5 -28 -18 -55 -24 -47 -45 -70 -45 -49
0 6 -16 20 -35 32 -33 19 -35 22 -22 42 10 14 29 23 58 27 24 3 47 7 50 7 3 1
8 -1 12 -4z"/>
</g>
</svg>
