<?xml version="1.0" standalone="no"?>
<!DOCTYPE svg PUBLIC "-//W3C//DTD SVG 20010904//EN"
 "http://www.w3.org/TR/2001/REC-SVG-20010904/DTD/svg10.dtd">
<svg version="1.0" xmlns="http://www.w3.org/2000/svg"
 width="96.000000pt" height="68.000000pt" viewBox="0 0 96.000000 68.000000"
 preserveAspectRatio="xMidYMid meet">
<metadata>
Created by potrace 1.16, written by Peter Selinger 2001-2019
</metadata>
<g transform="translate(0.000000,68.000000) scale(0.100000,-0.100000)"
fill="#000000" stroke="none">
<path d="M496 353 c-8 -21 -7 -25 4 -18 11 7 13 -6 4 -29 -3 -9 -12 -16 -20
-16 -8 0 -14 -4 -14 -10 0 -5 7 -10 15 -10 11 0 15 -11 15 -40 0 -35 -3 -40
-22 -41 -22 0 -22 -1 -3 -8 11 -5 24 -6 29 -3 5 3 7 -4 4 -15 -3 -11 -1 -28 5
-38 7 -13 6 -16 -2 -11 -13 8 -14 -38 -2 -69 6 -15 11 -3 17 45 4 36 8 72 9
80 0 12 14 15 62 15 34 0 65 4 70 8 4 5 -19 8 -52 7 -88 -2 -97 -1 -89 11 3 6
0 15 -7 20 -11 7 -11 9 -1 9 9 0 11 7 7 19 -3 11 0 23 6 27 7 4 10 3 6 -2 -3
-5 15 -7 41 -4 l47 5 -42 3 c-35 3 -43 7 -51 32 -8 21 -7 30 1 33 6 2 2 6 -10
9 -14 4 -24 1 -27 -9z"/>
<path d="M383 250 c-1 -16 -9 -40 -18 -54 -20 -30 -9 -38 42 -30 45 7 56 14
22 14 -24 0 -65 20 -42 20 13 0 32 49 26 68 -9 23 -28 12 -30 -18z"/>
<path d="M428 273 c6 -2 18 -2 25 0 6 3 1 5 -13 5 -14 0 -19 -2 -12 -5z"/>
</g>
</svg>
