<?xml version="1.0" standalone="no"?>
<!DOCTYPE svg PUBLIC "-//W3C//DTD SVG 20010904//EN"
 "http://www.w3.org/TR/2001/REC-SVG-20010904/DTD/svg10.dtd">
<svg version="1.0" xmlns="http://www.w3.org/2000/svg"
 width="96.000000pt" height="68.000000pt" viewBox="0 0 96.000000 68.000000"
 preserveAspectRatio="xMidYMid meet">
<metadata>
Created by potrace 1.16, written by Peter Selinger 2001-2019
</metadata>
<g transform="translate(0.000000,68.000000) scale(0.100000,-0.100000)"
fill="#000000" stroke="none">
<path d="M669 596 c-8 -8 -256 -36 -359 -41 -94 -5 -104 -7 -100 -23 3 -9 5
-78 5 -152 0 -103 -4 -148 -18 -190 -14 -43 -16 -62 -8 -83 12 -31 45 -37 56
-9 3 9 11 107 17 217 6 110 11 201 12 202 5 6 388 33 397 28 10 -7 13 -383 3
-409 -7 -18 -36 -21 -66 -5 -37 20 -32 -1 12 -46 26 -26 53 -45 66 -45 44 0
49 20 55 254 4 122 10 231 14 243 6 18 1 26 -26 42 -33 20 -51 25 -60 17z"/>
<path d="M511 476 c-17 -41 -29 -56 -48 -61 -14 -3 -26 -5 -27 -3 -1 2 -7 15
-14 31 -12 27 -56 56 -68 44 -3 -3 3 -19 15 -35 31 -44 27 -52 -29 -52 -29 0
-50 -4 -50 -11 0 -7 23 -10 65 -7 63 3 66 2 80 -26 8 -15 15 -32 15 -36 0 -4
-35 -12 -77 -17 -69 -9 -74 -11 -45 -18 28 -6 32 -12 32 -39 0 -18 5 -37 12
-44 14 -14 238 -17 238 -3 0 16 -30 21 -126 21 l-94 0 4 33 c3 30 6 32 52 39
27 3 80 7 118 7 61 1 67 3 55 17 -10 12 -24 14 -71 9 -55 -7 -58 -6 -58 14 0
14 -10 25 -27 32 -26 10 -27 12 -8 19 11 5 55 9 97 9 42 1 83 4 92 7 47 18
-19 38 -79 24 -22 -5 -41 -7 -44 -5 -2 2 13 19 33 36 34 31 35 34 19 51 -26
29 -38 22 -62 -36z"/>
</g>
</svg>
