<?xml version="1.0" standalone="no"?>
<!DOCTYPE svg PUBLIC "-//W3C//DTD SVG 20010904//EN"
 "http://www.w3.org/TR/2001/REC-SVG-20010904/DTD/svg10.dtd">
<svg version="1.0" xmlns="http://www.w3.org/2000/svg"
 width="96.000000pt" height="68.000000pt" viewBox="0 0 96.000000 68.000000"
 preserveAspectRatio="xMidYMid meet">
<metadata>
Created by potrace 1.16, written by Peter Selinger 2001-2019
</metadata>
<g transform="translate(0.000000,68.000000) scale(0.100000,-0.100000)"
fill="#000000" stroke="none">
<path d="M560 575 c-41 -8 -137 -17 -213 -21 l-137 -7 7 -36 c12 -55 4 -255
-12 -309 -19 -60 -19 -96 0 -112 34 -28 40 -2 55 254 6 93 12 172 15 174 7 7
277 31 347 32 l57 0 7 -35 c10 -56 0 -383 -12 -395 -8 -8 -22 -9 -50 -1 l-38
11 47 -48 c39 -39 50 -45 65 -36 35 22 40 55 44 291 l4 232 -24 10 c-28 13
-65 12 -162 -4z"/>
</g>
</svg>
