<?xml version="1.0" standalone="no"?>
<!DOCTYPE svg PUBLIC "-//W3C//DTD SVG 20010904//EN"
 "http://www.w3.org/TR/2001/REC-SVG-20010904/DTD/svg10.dtd">
<svg version="1.0" xmlns="http://www.w3.org/2000/svg"
 width="96.000000pt" height="68.000000pt" viewBox="0 0 96.000000 68.000000"
 preserveAspectRatio="xMidYMid meet">
<metadata>
Created by potrace 1.16, written by Peter Selinger 2001-2019
</metadata>
<g transform="translate(0.000000,68.000000) scale(0.100000,-0.100000)"
fill="#000000" stroke="none">
<path d="M491 338 c-18 -12 -61 -30 -95 -40 l-61 -18 53 4 c42 2 55 0 62 -14
13 -24 4 -30 -44 -31 -76 -1 -87 -18 -13 -18 60 -1 68 -3 65 -18 -3 -19 -18
-21 -213 -38 -73 -7 -78 -8 -60 -22 14 -10 33 -13 65 -8 222 30 220 30 204
-32 -9 -36 -11 -38 -46 -36 l-37 2 38 -34 c21 -19 43 -35 49 -35 19 0 35 42
41 105 l6 60 138 3 c75 1 137 6 137 11 0 23 -64 31 -162 20 -68 -8 -103 -8
-110 -1 -17 17 -1 29 52 36 27 4 50 11 50 16 0 11 -19 14 -69 11 -30 -3 -50
10 -51 31 0 3 17 12 38 18 72 22 69 20 48 36 -27 19 -45 17 -85 -8z"/>
</g>
</svg>
