<?xml version="1.0" standalone="no"?>
<!DOCTYPE svg PUBLIC "-//W3C//DTD SVG 20010904//EN"
 "http://www.w3.org/TR/2001/REC-SVG-20010904/DTD/svg10.dtd">
<svg version="1.0" xmlns="http://www.w3.org/2000/svg"
 width="96.000000pt" height="68.000000pt" viewBox="0 0 96.000000 68.000000"
 preserveAspectRatio="xMidYMid meet">
<metadata>
Created by potrace 1.16, written by Peter Selinger 2001-2019
</metadata>
<g transform="translate(0.000000,68.000000) scale(0.100000,-0.100000)"
fill="#000000" stroke="none">
<path d="M220 553 c0 -15 61 -73 77 -73 23 0 27 30 7 51 -21 20 -84 37 -84 22z"/>
<path d="M120 433 c0 -15 75 -74 90 -71 24 5 18 42 -10 54 -36 16 -80 26 -80
17z"/>
<path d="M253 296 c-18 -24 -55 -59 -83 -77 -27 -18 -50 -34 -50 -36 0 -15 33
-63 44 -63 11 0 136 196 136 214 0 16 -18 2 -47 -38z"/>
</g>
</svg>
