<?xml version="1.0" standalone="no"?>
<!DOCTYPE svg PUBLIC "-//W3C//DTD SVG 20010904//EN"
 "http://www.w3.org/TR/2001/REC-SVG-20010904/DTD/svg10.dtd">
<svg version="1.0" xmlns="http://www.w3.org/2000/svg"
 width="90.000000pt" height="92.000000pt" viewBox="0 0 90.000000 92.000000"
 preserveAspectRatio="xMidYMid meet">
<metadata>
Created by potrace 1.16, written by Peter Selinger 2001-2019
</metadata>
<g transform="translate(0.000000,92.000000) scale(0.100000,-0.100000)"
fill="#000000" stroke="none">
<path d="M415 790 c-72 -10 -145 -15 -163 -12 l-33 5 7 -39 c11 -53 8 -163 -5
-196 -10 -28 -11 -28 -103 -28 -110 0 -134 -9 -93 -36 30 -20 66 -22 138 -10
l48 8 -21 -53 c-12 -30 -32 -68 -46 -86 -24 -31 -32 -87 -15 -97 5 -3 29 3 52
14 24 11 61 20 82 20 l38 0 -33 -46 c-18 -26 -43 -53 -55 -61 -27 -18 -20 -36
10 -27 43 12 99 58 124 102 l26 44 86 -7 c47 -4 87 -8 88 -9 6 -5 -21 -75 -37
-96 -18 -24 -19 -24 -70 -8 -28 9 -50 13 -48 9 2 -5 26 -34 55 -65 45 -49 55
-55 72 -47 28 16 58 69 75 136 9 32 17 59 18 60 2 2 30 -6 63 -16 92 -29 109
-24 85 22 -13 24 -81 59 -115 59 -22 0 -25 4 -25 38 0 20 3 60 6 89 l7 52 110
3 c122 3 141 14 85 48 -28 18 -43 20 -93 15 -33 -3 -69 -8 -80 -11 -20 -5 -20
-2 -14 68 3 40 11 85 17 99 12 29 8 38 -28 62 -29 20 -43 20 -215 -3z m163
-132 l-3 -103 -62 -3 c-73 -3 -70 -9 -53 113 7 48 7 71 0 73 -5 2 -10 8 -10
13 0 5 29 9 65 9 l66 0 -3 -102z m-174 66 c4 -15 4 -62 0 -104 l-6 -78 -62 -4
c-33 -3 -63 -4 -65 -2 -2 2 2 25 7 51 9 39 18 102 21 145 1 4 13 9 29 11 63 9
70 8 76 -19z m172 -246 c-3 -18 -8 -59 -11 -90 l-6 -58 -86 0 c-72 0 -84 2
-79 15 3 9 13 44 21 78 9 34 18 68 20 75 3 8 27 12 75 12 l70 0 -4 -32z m-202
-30 c-32 -108 -38 -115 -106 -122 -33 -4 -62 -6 -64 -4 -1 2 9 40 24 85 29 89
30 89 114 92 l47 1 -15 -52z"/>
</g>
</svg>
