<?xml version="1.0" standalone="no"?>
<!DOCTYPE svg PUBLIC "-//W3C//DTD SVG 20010904//EN"
 "http://www.w3.org/TR/2001/REC-SVG-20010904/DTD/svg10.dtd">
<svg version="1.0" xmlns="http://www.w3.org/2000/svg"
 width="96.000000pt" height="68.000000pt" viewBox="0 0 96.000000 68.000000"
 preserveAspectRatio="xMidYMid meet">
<metadata>
Created by potrace 1.16, written by Peter Selinger 2001-2019
</metadata>
<g transform="translate(0.000000,68.000000) scale(0.100000,-0.100000)"
fill="#000000" stroke="none">
<path d="M615 574 c-27 -8 -69 -13 -93 -12 -35 3 -41 0 -36 -12 4 -8 15 -44
25 -80 16 -62 18 -65 45 -63 16 1 52 3 81 4 l51 2 20 56 c10 31 22 64 26 74 7
13 1 20 -28 32 -19 8 -37 15 -38 14 -2 0 -25 -7 -53 -15z m55 -38 c0 -20 -6
-24 -46 -30 -77 -10 -84 -9 -84 18 0 22 5 25 43 29 90 8 87 9 87 -17z m-6 -68
c-3 -13 -7 -24 -8 -25 0 -1 -25 -6 -53 -11 l-53 -9 0 28 c0 29 9 33 93 37 25
2 28 -1 21 -20z"/>
</g>
</svg>
