<?xml version="1.0" standalone="no"?>
<!DOCTYPE svg PUBLIC "-//W3C//DTD SVG 20010904//EN"
 "http://www.w3.org/TR/2001/REC-SVG-20010904/DTD/svg10.dtd">
<svg version="1.0" xmlns="http://www.w3.org/2000/svg"
 width="90.000000pt" height="92.000000pt" viewBox="0 0 90.000000 92.000000"
 preserveAspectRatio="xMidYMid meet">
<metadata>
Created by potrace 1.16, written by Peter Selinger 2001-2019
</metadata>
<g transform="translate(0.000000,92.000000) scale(0.100000,-0.100000)"
fill="#000000" stroke="none">
<path d="M500 895 c0 -8 -28 -44 -61 -80 -60 -64 -56 -76 9 -28 29 22 122 43
122 28 0 -3 -10 -21 -22 -39 -18 -27 -31 -36 -64 -41 -23 -3 -54 -3 -68 1 -16
4 -26 2 -26 -5 0 -6 4 -11 9 -11 5 0 13 -15 16 -32 13 -58 22 -68 53 -58 15 5
68 13 117 17 85 8 90 9 87 30 -2 14 5 27 17 35 12 7 21 16 21 19 0 16 -63 31
-103 25 l-42 -6 54 49 c29 27 50 54 47 59 -11 19 -56 23 -86 7 -40 -21 -57
-19 -37 3 13 14 14 21 5 30 -17 17 -48 15 -48 -3z m130 -180 c0 -20 -31 -33
-105 -44 -67 -10 -75 -8 -75 19 0 15 12 20 63 28 96 15 117 14 117 -3z"/>
<path d="M155 750 c-3 -5 -4 -14 -1 -18 8 -13 10 -348 2 -361 -4 -6 -21 -11
-37 -11 l-30 0 7 73 c7 74 1 90 -35 99 -11 2 -14 -8 -12 -44 1 -26 -3 -72 -9
-102 -13 -64 -1 -103 28 -90 48 21 122 43 165 49 46 7 47 7 47 -19 0 -16 6
-26 15 -26 16 0 18 5 38 135 13 81 13 91 -1 103 -9 6 -23 12 -31 12 -13 0 -16
-15 -17 -80 0 -44 -3 -82 -5 -84 -2 -2 -19 -7 -38 -11 l-33 -7 6 128 c4 71 9
154 12 185 6 56 6 56 -27 68 -39 13 -36 13 -44 1z"/>
<path d="M377 548 c1 -51 2 -96 2 -100 2 -16 30 -7 66 22 21 17 39 30 42 30 7
0 -27 -58 -53 -89 -33 -40 -15 -40 29 -1 20 17 46 30 61 30 30 0 31 -2 14 -33
-19 -32 -26 -36 -101 -43 -52 -5 -65 -9 -57 -19 6 -7 17 -35 25 -62 l15 -50
40 7 39 7 -15 -36 c-19 -45 -66 -95 -121 -128 -51 -30 -54 -37 -10 -28 82 18
151 80 177 161 18 55 30 39 30 -41 0 -83 13 -105 78 -126 53 -17 166 -8 199
18 31 23 31 25 10 98 l-14 50 -8 -37 c-11 -59 -43 -80 -118 -80 -35 0 -73 4
-84 10 -26 14 -33 51 -18 96 8 23 9 38 2 45 -6 6 6 12 36 16 33 5 44 11 40 21
-3 7 5 27 16 43 12 16 21 33 21 38 0 17 -54 41 -75 33 -11 -4 -38 -10 -59 -13
l-39 -6 38 39 c31 31 36 43 27 52 -9 9 -22 9 -52 1 -35 -9 -39 -8 -28 4 9 11
9 16 -3 24 -8 5 -18 9 -23 9 -5 0 -3 7 4 15 7 8 10 15 6 15 -4 0 -23 -7 -43
-15 -48 -20 -53 -19 -53 10 0 20 6 25 38 31 20 4 44 10 52 15 26 14 -18 23
-56 11 -30 -9 -34 -8 -34 9 0 15 -26 39 -42 39 -2 0 -2 -42 -1 -92z m266 -212
c-3 -35 1 -32 -50 -41 l-43 -7 6 31 c5 22 3 31 -7 32 -24 2 45 17 71 16 21 -2
25 -7 23 -31z m-139 -2 c11 -28 6 -52 -10 -58 -28 -11 -52 -6 -58 10 -11 29
-6 42 22 52 37 14 39 14 46 -4z"/>
<path d="M575 583 c4 -32 11 -65 16 -74 18 -35 115 -50 178 -28 34 12 36 17
19 54 -14 31 -20 31 -33 3 -8 -18 -19 -24 -57 -26 -55 -4 -88 11 -88 38 0 11
3 19 8 18 17 -4 112 15 112 22 0 16 -39 21 -75 11 -33 -9 -35 -8 -35 15 0 19
-5 24 -26 24 -26 0 -26 0 -19 -57z"/>
<path d="M667 209 c10 -17 24 -35 30 -41 20 -16 43 -1 43 27 0 26 -29 45 -71
45 -20 0 -20 -1 -2 -31z"/>
</g>
</svg>
