<?xml version="1.0" standalone="no"?>
<!DOCTYPE svg PUBLIC "-//W3C//DTD SVG 20010904//EN"
 "http://www.w3.org/TR/2001/REC-SVG-20010904/DTD/svg10.dtd">
<svg version="1.0" xmlns="http://www.w3.org/2000/svg"
 width="96.000000pt" height="68.000000pt" viewBox="0 0 96.000000 68.000000"
 preserveAspectRatio="xMidYMid meet">
<metadata>
Created by potrace 1.16, written by Peter Selinger 2001-2019
</metadata>
<g transform="translate(0.000000,68.000000) scale(0.100000,-0.100000)"
fill="#000000" stroke="none">
<path d="M548 508 c-13 -3 -46 -6 -75 -7 l-51 -1 21 -39 c20 -36 23 -38 51
-30 17 5 56 9 86 10 45 0 117 16 86 18 -5 1 1 12 13 25 22 24 22 24 3 31 -23
7 -99 3 -134 -7z m82 -18 c0 -18 -39 -30 -99 -30 -68 0 -82 16 -23 25 20 4 44
8 52 10 33 7 70 4 70 -5z"/>
</g>
</svg>
