<?xml version="1.0" standalone="no"?>
<!DOCTYPE svg PUBLIC "-//W3C//DTD SVG 20010904//EN"
 "http://www.w3.org/TR/2001/REC-SVG-20010904/DTD/svg10.dtd">
<svg version="1.0" xmlns="http://www.w3.org/2000/svg"
 width="96.000000pt" height="68.000000pt" viewBox="0 0 96.000000 68.000000"
 preserveAspectRatio="xMidYMid meet">
<metadata>
Created by potrace 1.16, written by Peter Selinger 2001-2019
</metadata>
<g transform="translate(0.000000,68.000000) scale(0.100000,-0.100000)"
fill="#000000" stroke="none">
<path d="M333 574 c-18 -14 -58 -37 -90 -50 -52 -21 -55 -24 -26 -24 17 0 44
5 59 10 30 12 54 -1 54 -30 0 -15 -15 -20 -85 -30 -105 -15 -116 -36 -15 -27
39 3 70 4 70 1 0 -10 -47 -52 -92 -83 -26 -17 -50 -36 -53 -41 -12 -20 52 11
103 50 29 22 55 40 58 40 2 0 2 -22 -2 -50 -5 -41 -4 -51 10 -56 23 -9 25 -5
34 60 l7 56 37 -25 c26 -17 39 -21 44 -13 9 14 -22 37 -59 45 -45 9 -31 37 23
43 54 6 52 26 -2 22 -35 -3 -38 -1 -38 22 0 14 -5 26 -11 26 -22 0 4 20 41 31
46 14 50 26 14 39 -36 14 -45 12 -81 -16z"/>
<path d="M617 568 c4 -13 8 -66 8 -118 l0 -95 -27 2 c-36 2 -35 -6 2 -42 30
-29 31 -29 50 -10 16 17 19 36 21 138 1 123 -5 147 -43 147 -16 0 -18 -4 -11
-22z"/>
<path d="M506 463 c3 -38 8 -74 10 -82 9 -28 24 5 30 68 6 49 4 65 -7 72 -33
21 -38 11 -33 -58z"/>
<path d="M417 304 c-3 -3 -4 -19 -1 -34 l6 -27 -78 -6 c-42 -4 -103 -7 -135
-7 -32 0 -60 -4 -64 -9 -10 -18 38 -23 139 -17 l101 7 -46 -33 c-26 -19 -79
-47 -119 -62 -39 -16 -69 -31 -66 -34 8 -7 161 46 209 74 23 13 45 24 50 24 4
0 7 -31 7 -69 0 -50 4 -72 16 -82 24 -20 34 5 34 94 0 42 3 77 8 77 4 0 43
-25 87 -55 l79 -55 78 0 c43 0 78 4 78 8 0 5 -26 14 -57 21 -32 7 -84 22 -116
33 -65 22 -150 68 -127 68 239 5 272 9 240 31 -9 6 -63 8 -142 4 l-128 -6 0
25 c0 14 -4 26 -9 26 -5 0 -16 2 -23 5 -8 3 -17 3 -21 -1z"/>
</g>
</svg>
