<?xml version="1.0" standalone="no"?>
<!DOCTYPE svg PUBLIC "-//W3C//DTD SVG 20010904//EN"
 "http://www.w3.org/TR/2001/REC-SVG-20010904/DTD/svg10.dtd">
<svg version="1.0" xmlns="http://www.w3.org/2000/svg"
 width="96.000000pt" height="68.000000pt" viewBox="0 0 96.000000 68.000000"
 preserveAspectRatio="xMidYMid meet">
<metadata>
Created by potrace 1.16, written by Peter Selinger 2001-2019
</metadata>
<g transform="translate(0.000000,68.000000) scale(0.100000,-0.100000)"
fill="#000000" stroke="none">
<path d="M650 340 c-25 -4 -75 -11 -113 -14 -39 -5 -65 -12 -61 -17 3 -6 13
-9 22 -8 41 4 45 0 39 -36 -7 -43 1 -44 38 -5 16 17 23 30 16 30 -7 0 -10 4
-7 9 3 5 38 12 76 16 46 5 70 11 67 19 -5 14 -21 16 -77 6z"/>
</g>
</svg>
