<?xml version="1.0" standalone="no"?>
<!DOCTYPE svg PUBLIC "-//W3C//DTD SVG 20010904//EN"
 "http://www.w3.org/TR/2001/REC-SVG-20010904/DTD/svg10.dtd">
<svg version="1.0" xmlns="http://www.w3.org/2000/svg"
 width="96.000000pt" height="68.000000pt" viewBox="0 0 96.000000 68.000000"
 preserveAspectRatio="xMidYMid meet">
<metadata>
Created by potrace 1.16, written by Peter Selinger 2001-2019
</metadata>
<g transform="translate(0.000000,68.000000) scale(0.100000,-0.100000)"
fill="#000000" stroke="none">
<path d="M280 514 c-25 -7 -70 -13 -100 -14 -45 0 -52 -3 -39 -13 9 -7 24 -36
33 -64 20 -60 21 -60 121 -42 49 10 61 15 58 28 -2 9 6 34 17 56 19 37 19 41
3 52 -20 15 -33 15 -93 -3z m40 -46 c0 -47 -10 -57 -61 -64 l-44 -6 -11 41
c-12 45 -14 43 56 54 58 9 60 8 60 -25z"/>
</g>
</svg>
