<?xml version="1.0" standalone="no"?>
<!DOCTYPE svg PUBLIC "-//W3C//DTD SVG 20010904//EN"
 "http://www.w3.org/TR/2001/REC-SVG-20010904/DTD/svg10.dtd">
<svg version="1.0" xmlns="http://www.w3.org/2000/svg"
 width="96.000000pt" height="68.000000pt" viewBox="0 0 96.000000 68.000000"
 preserveAspectRatio="xMidYMid meet">
<metadata>
Created by potrace 1.16, written by Peter Selinger 2001-2019
</metadata>
<g transform="translate(0.000000,68.000000) scale(0.100000,-0.100000)"
fill="#000000" stroke="none">
<path d="M587 623 c-4 -3 -7 -24 -7 -45 0 -36 -2 -38 -32 -38 -18 0 -40 -4
-48 -10 -11 -7 -9 -11 13 -19 15 -6 34 -8 42 -5 13 5 14 2 6 -19 -8 -20 -6
-27 5 -31 8 -3 13 -2 10 3 -3 4 5 18 18 30 18 17 42 24 92 29 38 4 68 11 66
17 -4 15 -50 25 -83 18 -32 -6 -34 -2 -18 29 9 18 8 24 -7 35 -19 14 -47 17
-57 6z"/>
<path d="M310 587 c0 -7 7 -22 15 -33 23 -30 19 -34 -44 -34 -67 0 -80 -9 -51
-35 19 -17 58 -17 102 0 13 5 21 0 29 -19 17 -36 39 -33 39 5 0 24 6 32 30 40
42 15 38 33 -5 26 -31 -5 -35 -3 -35 17 0 12 -5 27 -12 34 -16 16 -68 15 -68
-1z"/>
<path d="M556 415 c6 -32 4 -35 -17 -35 -13 0 -47 -3 -76 -6 -48 -6 -51 -5
-55 17 -2 18 -10 25 -31 27 -26 3 -28 1 -22 -18 9 -28 -8 -40 -57 -40 -21 0
-38 -4 -38 -10 0 -5 23 -10 50 -10 l51 0 -3 -72 -3 -73 -93 -7 c-51 -3 -96 -9
-100 -13 -15 -15 27 -26 79 -21 l57 5 6 -31 c3 -17 6 -41 6 -54 0 -16 10 -29
33 -41 27 -15 56 -18 185 -17 155 0 191 9 164 36 -9 9 -30 9 -89 0 -43 -7
-112 -12 -154 -12 -94 0 -115 16 -106 81 6 47 20 60 57 57 30 -3 29 -31 -1
-64 -24 -26 -24 -33 0 -27 24 6 68 54 73 79 2 13 12 19 28 19 21 0 26 -6 31
-39 3 -21 12 -42 20 -47 20 -13 122 -6 127 9 3 9 -13 12 -57 12 -64 0 -67 3
-55 48 6 21 11 22 105 22 61 0 99 4 99 10 0 19 -46 28 -114 23 l-68 -6 6 39
c3 21 7 54 8 72 2 28 6 32 33 34 16 1 38 2 47 3 9 0 20 4 24 8 10 10 -41 26
-65 20 -16 -4 -21 -1 -21 15 0 14 -10 24 -31 31 -18 6 -34 11 -36 11 -2 0 -1
-16 3 -35z m-1 -74 c0 -8 -9 -15 -20 -16 -11 -1 -46 -5 -78 -9 -53 -7 -58 -6
-55 11 2 13 14 19 43 23 73 9 110 6 110 -9z m-2 -55 c4 -10 -10 -15 -55 -20
-87 -9 -98 -8 -98 8 0 10 14 16 43 19 89 8 105 7 110 -7z m-3 -56 c0 -21 1
-20 -122 -24 -14 -1 -24 6 -26 16 -3 13 6 18 40 21 102 9 108 8 108 -13z"/>
</g>
</svg>
