<?xml version="1.0" standalone="no"?>
<!DOCTYPE svg PUBLIC "-//W3C//DTD SVG 20010904//EN"
 "http://www.w3.org/TR/2001/REC-SVG-20010904/DTD/svg10.dtd">
<svg version="1.0" xmlns="http://www.w3.org/2000/svg"
 width="90.000000pt" height="92.000000pt" viewBox="0 0 90.000000 92.000000"
 preserveAspectRatio="xMidYMid meet">
<metadata>
Created by potrace 1.16, written by Peter Selinger 2001-2019
</metadata>
<g transform="translate(0.000000,92.000000) scale(0.100000,-0.100000)"
fill="#000000" stroke="none">
<path d="M486 838 c-3 -13 -6 -32 -6 -43 0 -33 -63 -154 -123 -237 -31 -43
-51 -78 -45 -78 25 0 144 137 176 203 18 37 37 67 41 67 13 0 65 -53 134 -137
37 -45 77 -85 87 -88 26 -8 130 13 130 27 0 5 -9 12 -20 15 -58 15 -163 78
-229 137 -41 36 -78 66 -84 66 -5 0 -7 10 -4 22 4 15 -1 30 -15 45 -27 29 -34
29 -42 1z"/>
<path d="M215 739 c-27 -10 -71 -18 -97 -19 -53 0 -54 -1 -34 -33 8 -12 19
-51 25 -86 12 -70 26 -95 40 -72 5 8 16 11 25 8 14 -5 16 -27 16 -146 l0 -139
-31 -11 c-18 -6 -34 -11 -36 -11 -3 0 -3 48 -2 107 l3 108 -27 9 c-15 5 -28 8
-30 5 -2 -2 -1 -31 4 -64 4 -33 8 -86 8 -117 l1 -58 -40 0 c-28 0 -40 -4 -40
-14 0 -15 50 -56 69 -56 6 0 41 15 78 34 38 19 93 44 123 57 120 49 98 80 -24
33 -8 -3 -10 15 -8 61 l4 65 33 0 c44 0 65 9 65 27 0 13 -9 15 -50 10 l-50 -6
2 59 3 60 38 0 c33 0 36 2 26 18 -9 14 -6 32 15 83 14 36 26 68 26 72 0 9 -57
37 -72 36 -7 -1 -35 -10 -63 -20z m51 -61 c-3 -13 -6 -37 -6 -55 0 -30 -3 -32
-51 -42 -29 -6 -53 -10 -54 -9 -1 2 -5 29 -9 60 -7 63 -8 63 88 67 35 1 38 -1
32 -21z"/>
<path d="M497 624 c-65 -21 -51 -38 23 -31 69 8 92 16 87 31 -5 16 -56 16
-110 0z"/>
<path d="M540 549 c-37 -10 -81 -15 -101 -12 l-37 5 5 -63 c9 -114 -42 -263
-115 -341 -14 -16 -21 -28 -16 -28 19 0 89 67 109 104 31 57 34 54 55 -69 5
-32 15 -64 20 -69 7 -7 10 -6 10 1 0 6 27 14 63 17 151 16 158 17 147 31 -9
11 -5 29 18 75 l29 61 -29 21 c-29 20 -32 20 -106 5 -74 -16 -128 -22 -164
-18 -14 1 -15 5 -5 30 10 27 14 29 87 35 41 4 83 4 91 1 22 -8 33 10 54 90 10
39 22 79 28 89 7 15 4 23 -14 37 -28 22 -44 22 -129 -2z m77 -57 c-3 -23 -9
-26 -43 -28 -21 0 -56 -4 -76 -9 -37 -7 -38 -7 -38 22 0 29 2 30 68 39 83 12
93 9 89 -24z m-13 -79 c-9 -39 -12 -42 -33 -36 -11 3 -43 0 -72 -6 -28 -6 -54
-10 -56 -7 -2 2 -1 15 2 29 6 22 14 25 78 34 40 6 75 11 80 12 4 0 4 -11 1
-26z m28 -208 c-1 -27 -6 -53 -11 -58 -4 -4 -40 -11 -79 -14 l-72 -6 0 47 c0
25 0 49 0 54 -1 8 114 31 145 28 18 -1 20 -7 17 -51z"/>
</g>
</svg>
