<?xml version="1.0" standalone="no"?>
<!DOCTYPE svg PUBLIC "-//W3C//DTD SVG 20010904//EN"
 "http://www.w3.org/TR/2001/REC-SVG-20010904/DTD/svg10.dtd">
<svg version="1.0" xmlns="http://www.w3.org/2000/svg"
 width="96.000000pt" height="68.000000pt" viewBox="0 0 96.000000 68.000000"
 preserveAspectRatio="xMidYMid meet">
<metadata>
Created by potrace 1.16, written by Peter Selinger 2001-2019
</metadata>
<g transform="translate(0.000000,68.000000) scale(0.100000,-0.100000)"
fill="#000000" stroke="none">
<path d="M279 563 c-26 -66 -46 -98 -87 -138 -35 -34 -42 -48 -37 -65 5 -16
13 -21 28 -17 12 3 38 8 57 12 l35 6 -54 -51 c-48 -46 -52 -53 -39 -67 14 -13
21 -12 69 9 35 15 71 22 102 21 53 -1 63 15 25 41 -29 21 -50 20 -46 0 2 -12
-10 -20 -42 -30 -24 -7 -46 -11 -49 -8 -3 3 29 39 72 81 74 74 76 77 60 95
-17 19 -18 19 -35 -2 -10 -12 -18 -28 -18 -35 0 -8 -17 -16 -41 -20 -65 -11
-65 -11 35 110 32 37 38 50 29 63 -18 30 -51 27 -64 -5z"/>
<path d="M695 575 c-5 -2 -72 -9 -147 -16 -107 -10 -135 -15 -127 -25 6 -7 18
-41 27 -76 l18 -63 37 3 c21 2 37 -1 37 -7 0 -10 -6 -16 -50 -50 -30 -23 -22
-34 22 -33 17 0 36 -2 41 -5 9 -5 -79 -52 -100 -53 -17 0 -16 -10 3 -31 11
-12 22 -16 33 -10 9 4 30 11 47 14 38 7 44 -6 44 -92 l0 -53 -30 6 c-16 3 -30
3 -30 1 0 -3 14 -19 32 -35 30 -29 32 -30 49 -13 20 22 34 179 16 190 -7 4 -3
9 9 14 27 11 94 11 94 0 0 -5 9 -11 20 -14 34 -9 26 39 -10 58 -39 20 -67 21
-50 0 10 -12 10 -16 -1 -19 -23 -7 -158 -14 -164 -8 -3 3 25 18 63 33 37 15
84 36 106 47 l39 19 -24 16 c-22 16 -24 16 -49 -7 -14 -13 -37 -31 -52 -40
-24 -16 -30 -16 -55 -3 l-28 15 37 18 c20 9 39 25 41 35 4 16 15 19 66 19 34
0 61 4 61 9 0 5 16 37 36 71 35 59 36 61 18 75 -18 13 -55 18 -79 10z m25 -37
c0 -26 -16 -36 -65 -39 -48 -4 -49 -3 -52 24 -2 27 -1 27 58 27 41 0 59 -4 59
-12z m-162 -25 c-3 -23 -8 -28 -41 -31 -31 -3 -38 0 -46 20 -12 33 -6 38 45
38 43 0 45 -1 42 -27z m138 -49 c-3 -9 -6 -20 -6 -25 0 -5 -20 -9 -45 -9 -38
0 -45 3 -45 19 0 20 17 27 74 30 22 1 27 -3 22 -15z m-136 -19 c0 -22 -4 -25
-34 -25 -22 0 -36 6 -40 16 -9 24 2 34 40 34 30 0 34 -3 34 -25z"/>
<path d="M336 232 c-9 -15 31 -55 49 -48 14 5 15 9 4 22 -17 21 -47 36 -53 26z"/>
<path d="M230 195 c0 -8 51 -55 60 -55 18 0 10 39 -9 50 -20 10 -51 14 -51 5z"/>
<path d="M136 171 c-9 -14 47 -91 66 -91 20 0 23 21 8 51 -13 23 -67 52 -74
40z"/>
<path d="M451 156 c-5 -13 -22 -32 -38 -44 -15 -11 -25 -23 -21 -27 8 -8 54
16 87 44 20 17 22 23 11 36 -18 21 -29 19 -39 -9z"/>
<path d="M702 163 c8 -10 28 -33 43 -50 43 -50 93 -40 65 12 -13 23 -74 55
-107 55 -14 0 -15 -2 -1 -17z"/>
</g>
</svg>
