<?xml version="1.0" standalone="no"?>
<!DOCTYPE svg PUBLIC "-//W3C//DTD SVG 20010904//EN"
 "http://www.w3.org/TR/2001/REC-SVG-20010904/DTD/svg10.dtd">
<svg version="1.0" xmlns="http://www.w3.org/2000/svg"
 width="96.000000pt" height="68.000000pt" viewBox="0 0 96.000000 68.000000"
 preserveAspectRatio="xMidYMid meet">
<metadata>
Created by potrace 1.16, written by Peter Selinger 2001-2019
</metadata>
<g transform="translate(0.000000,68.000000) scale(0.100000,-0.100000)"
fill="#000000" stroke="none">
<path d="M620 229 c-36 -4 -75 -11 -87 -14 -13 -3 -23 -1 -23 5 0 5 -11 10
-25 10 -15 0 -25 -6 -25 -14 0 -9 -21 -16 -72 -21 -54 -5 -68 -9 -55 -16 11
-6 36 -6 69 0 29 5 55 8 57 6 2 -2 -8 -23 -21 -47 -14 -26 -43 -56 -73 -75
-51 -34 -41 -44 18 -19 36 15 81 63 105 113 8 18 22 35 31 38 12 5 184 20 286
25 6 0 3 5 -5 10 -17 11 -88 11 -180 -1z"/>
<path d="M609 109 c71 -58 114 -89 123 -89 4 0 8 10 8 23 0 40 -68 88 -145
103 l-40 7 54 -44z"/>
</g>
</svg>
