<?xml version="1.0" standalone="no"?>
<!DOCTYPE svg PUBLIC "-//W3C//DTD SVG 20010904//EN"
 "http://www.w3.org/TR/2001/REC-SVG-20010904/DTD/svg10.dtd">
<svg version="1.0" xmlns="http://www.w3.org/2000/svg"
 width="90.000000pt" height="92.000000pt" viewBox="0 0 90.000000 92.000000"
 preserveAspectRatio="xMidYMid meet">
<metadata>
Created by potrace 1.16, written by Peter Selinger 2001-2019
</metadata>
<g transform="translate(0.000000,92.000000) scale(0.100000,-0.100000)"
fill="#000000" stroke="none">
<path d="M205 774 c-38 -19 -60 -23 -89 -19 l-38 6 8 -38 c13 -57 10 -427 -5
-510 -11 -62 -10 -75 4 -102 36 -72 43 -29 52 336 l6 271 45 12 c24 6 47 8 50
5 3 -3 0 -20 -7 -38 -23 -58 -24 -77 -2 -128 12 -28 21 -60 19 -72 -3 -19 -8
-22 -43 -19 l-40 4 49 -36 c53 -37 78 -36 91 4 8 27 -1 55 -37 113 -37 58 -33
81 22 141 22 24 40 49 40 55 0 10 -61 43 -72 40 -2 0 -25 -12 -53 -25z"/>
<path d="M525 773 c-144 -24 -138 -22 -125 -38 7 -9 30 -15 55 -15 56 0 204
20 235 32 24 9 24 10 6 24 -23 17 -50 16 -171 -3z"/>
<path d="M512 657 c-95 -17 -112 -23 -106 -36 4 -9 12 -40 18 -70 6 -30 17
-56 24 -59 6 -2 12 0 12 5 0 5 12 9 28 10 163 11 193 15 182 28 -11 13 -2 38
33 88 10 15 8 21 -13 37 -30 23 -33 23 -178 -3z m112 -26 c10 -15 -5 -69 -20
-75 -8 -3 -43 -8 -79 -12 l-65 -7 0 41 0 40 73 10 c39 5 75 10 79 11 4 0 9 -3
12 -8z"/>
<path d="M651 454 c-104 -19 -291 -35 -320 -27 -21 5 -23 4 -18 -18 16 -65 17
-110 4 -174 -13 -61 -13 -74 0 -105 13 -31 15 -33 25 -17 5 10 15 77 21 148
l11 129 31 0 c26 0 33 -6 50 -42 11 -24 21 -46 23 -49 1 -3 -17 -10 -40 -16
l-43 -10 30 -12 c17 -7 46 -10 68 -7 l37 6 0 -69 c0 -39 5 -73 10 -76 14 -8
20 10 28 86 l7 64 63 3 c34 2 62 7 62 12 0 16 -56 39 -81 34 -21 -5 -18 0 18
34 39 36 41 40 25 56 -16 16 -14 17 38 14 l55 -3 3 -90 c2 -49 0 -105 -3 -124
-6 -33 -7 -34 -52 -27 l-45 6 43 -53 c24 -28 45 -54 47 -57 2 -3 17 10 33 28
31 35 33 47 29 174 -1 42 4 94 10 114 12 36 11 39 -14 61 -30 26 -49 27 -155
7z m-41 -55 c0 -7 -10 -31 -22 -55 -16 -33 -27 -44 -45 -44 -18 0 -23 6 -23
25 0 23 -33 64 -54 66 -17 3 66 16 107 18 22 0 37 -4 37 -10z"/>
</g>
</svg>
