<?xml version="1.0" standalone="no"?>
<!DOCTYPE svg PUBLIC "-//W3C//DTD SVG 20010904//EN"
 "http://www.w3.org/TR/2001/REC-SVG-20010904/DTD/svg10.dtd">
<svg version="1.0" xmlns="http://www.w3.org/2000/svg"
 width="96.000000pt" height="68.000000pt" viewBox="0 0 96.000000 68.000000"
 preserveAspectRatio="xMidYMid meet">
<metadata>
Created by potrace 1.16, written by Peter Selinger 2001-2019
</metadata>
<g transform="translate(0.000000,68.000000) scale(0.100000,-0.100000)"
fill="#000000" stroke="none">
<path d="M749 356 c-4 -4 -230 -29 -264 -29 -11 0 -32 3 -47 7 -27 8 -28 8
-17 -24 11 -30 8 -99 -7 -182 -5 -30 -3 -39 10 -44 9 -4 19 -5 21 -2 2 2 7 52
11 111 4 59 10 107 13 108 3 0 15 2 26 5 47 9 237 23 250 18 12 -5 15 -24 14
-88 -1 -44 -4 -94 -8 -111 -6 -27 -10 -30 -44 -29 -20 1 -37 -1 -37 -5 0 -9
60 -71 69 -71 10 0 35 29 50 57 6 12 15 64 21 115 5 51 12 102 15 113 5 15 -2
25 -24 38 -29 17 -44 21 -52 13z"/>
</g>
</svg>
