<?xml version="1.0" standalone="no"?>
<!DOCTYPE svg PUBLIC "-//W3C//DTD SVG 20010904//EN"
 "http://www.w3.org/TR/2001/REC-SVG-20010904/DTD/svg10.dtd">
<svg version="1.0" xmlns="http://www.w3.org/2000/svg"
 width="96.000000pt" height="68.000000pt" viewBox="0 0 96.000000 68.000000"
 preserveAspectRatio="xMidYMid meet">
<metadata>
Created by potrace 1.16, written by Peter Selinger 2001-2019
</metadata>
<g transform="translate(0.000000,68.000000) scale(0.100000,-0.100000)"
fill="#000000" stroke="none">
<path d="M593 367 c-101 -14 -92 -30 12 -21 l85 7 0 -34 c0 -19 -4 -39 -8 -46
-4 -6 -43 -15 -87 -20 -103 -10 -101 -29 3 -25 95 4 134 11 126 23 -3 5 6 30
20 56 25 43 25 46 9 59 -20 15 -56 15 -160 1z"/>
</g>
</svg>
