<?xml version="1.0" standalone="no"?>
<!DOCTYPE svg PUBLIC "-//W3C//DTD SVG 20010904//EN"
 "http://www.w3.org/TR/2001/REC-SVG-20010904/DTD/svg10.dtd">
<svg version="1.0" xmlns="http://www.w3.org/2000/svg"
 width="90.000000pt" height="92.000000pt" viewBox="0 0 90.000000 92.000000"
 preserveAspectRatio="xMidYMid meet">
<metadata>
Created by potrace 1.16, written by Peter Selinger 2001-2019
</metadata>
<g transform="translate(0.000000,92.000000) scale(0.100000,-0.100000)"
fill="#000000" stroke="none">
<path d="M520 825 c0 -3 12 -24 26 -46 14 -23 24 -42 22 -43 -2 -2 -50 -11
-108 -20 -57 -9 -107 -19 -110 -22 -2 -3 3 -10 13 -15 14 -8 17 -24 17 -87 0
-81 -12 -185 -31 -263 -9 -40 -14 -46 -37 -47 -15 0 -39 -3 -54 -7 l-28 -7 0
65 0 65 44 6 c45 7 69 32 40 43 -9 3 -32 1 -51 -5 l-36 -11 6 43 c4 27 2 47
-5 54 -9 9 -3 12 25 12 35 0 48 12 28 24 -11 7 4 79 25 121 14 28 14 31 -7 48
-27 22 -32 21 -97 -3 -29 -11 -73 -20 -98 -20 -40 0 -45 -2 -39 -17 3 -10 11
-40 17 -68 22 -112 21 -110 56 -107 39 4 41 -3 44 -155 l3 -111 -33 -10 -32
-10 0 94 c0 91 -1 94 -24 100 -31 7 -51 -3 -37 -19 5 -7 10 -50 12 -97 l3 -85
-38 3 c-31 3 -37 0 -34 -15 2 -9 18 -27 36 -40 33 -21 33 -21 65 -3 18 10 70
33 117 51 47 17 91 36 98 42 19 15 15 -3 -18 -84 -16 -40 -28 -74 -26 -76 8
-8 68 85 87 137 23 61 59 219 59 264 0 23 3 27 18 20 9 -4 31 -8 47 -8 29 -1
30 -3 35 -53 5 -51 19 -79 27 -56 2 7 35 15 74 19 38 4 69 8 69 10 0 3 -5 12
-11 23 -7 11 -9 32 -5 54 7 35 9 37 49 38 23 0 51 4 62 8 18 7 18 9 -8 26 -19
12 -37 16 -58 11 -33 -6 -34 -2 -15 44 4 10 -3 21 -23 33 -16 9 -32 17 -35 17
-3 0 -3 -19 0 -42 6 -54 -1 -65 -54 -76 l-42 -10 0 39 c0 33 -4 41 -26 50 -15
5 -29 8 -31 5 -2 -2 1 -23 8 -45 14 -48 9 -56 -41 -64 l-36 -5 6 59 c3 32 10
63 15 68 14 12 116 30 210 37 44 3 91 7 104 10 22 5 23 6 6 24 -20 22 -57 25
-117 11 -37 -9 -38 -8 -38 20 0 17 -7 32 -17 37 -24 12 -73 24 -73 17z m-280
-180 c0 -59 -10 -70 -77 -86 -31 -6 -33 -5 -33 20 0 14 -3 43 -6 63 -6 35 -5
37 27 46 19 6 46 11 62 11 26 1 27 0 27 -54z m397 -141 c-7 -45 -6 -44 -51
-51 l-36 -6 0 41 c0 43 6 47 69 51 22 1 23 -2 18 -35z"/>
<path d="M603 375 c-23 -7 -66 -16 -96 -20 l-54 -7 63 -65 c35 -35 64 -68 64
-73 0 -14 -91 -69 -152 -92 -32 -11 -58 -23 -58 -26 0 -23 207 48 225 77 5 8
25 -7 60 -45 l53 -57 54 6 c66 8 122 27 111 37 -4 4 -35 15 -68 25 -60 17
-114 42 -149 67 -17 14 -16 17 20 72 22 33 44 65 49 73 7 10 5 18 -9 29 -24
17 -56 17 -113 -1z m42 -35 c3 -5 -4 -30 -16 -55 l-22 -46 -38 37 c-21 21 -36
40 -33 43 5 5 76 27 96 30 4 1 9 -3 13 -9z"/>
</g>
</svg>
