<?xml version="1.0" standalone="no"?>
<!DOCTYPE svg PUBLIC "-//W3C//DTD SVG 20010904//EN"
 "http://www.w3.org/TR/2001/REC-SVG-20010904/DTD/svg10.dtd">
<svg version="1.0" xmlns="http://www.w3.org/2000/svg"
 width="96.000000pt" height="68.000000pt" viewBox="0 0 96.000000 68.000000"
 preserveAspectRatio="xMidYMid meet">
<metadata>
Created by potrace 1.16, written by Peter Selinger 2001-2019
</metadata>
<g transform="translate(0.000000,68.000000) scale(0.100000,-0.100000)"
fill="#000000" stroke="none">
<path d="M544 593 c3 -10 7 -36 10 -58 19 -129 79 -345 97 -345 5 0 9 -7 9
-16 0 -10 6 -14 15 -11 8 4 17 1 21 -5 4 -6 3 -8 -4 -4 -22 13 -19 -10 5 -34
19 -20 22 -21 17 -6 -6 15 -4 17 6 11 15 -9 -27 55 -43 66 -5 3 -8 8 -6 10 4
8 -25 79 -33 79 -4 0 -5 7 -2 15 4 8 1 15 -5 15 -20 0 -12 38 11 54 13 9 44
16 73 16 32 0 45 3 36 9 -7 5 -30 6 -50 3 -90 -14 -92 -13 -98 53 -4 33 -6 81
-6 107 1 32 -3 48 -13 52 -9 3 -12 1 -9 -4 3 -6 1 -10 -4 -10 -6 0 -11 5 -11
10 0 6 -5 10 -11 10 -6 0 -8 -8 -5 -17z m48 -138 c3 -13 1 -22 -3 -19 -9 5
-13 44 -5 44 2 0 6 -11 8 -25z"/>
<path d="M520 350 c-12 -8 -11 -10 8 -10 12 0 22 5 22 10 0 13 -11 13 -30 0z"/>
<path d="M810 125 c-6 -8 -9 -19 -5 -25 4 -6 -4 -10 -19 -10 -14 0 -28 5 -31
10 -9 15 -25 12 -25 -4 0 -18 47 -49 62 -40 6 4 8 3 5 -3 -4 -6 2 -13 13 -16
26 -7 32 5 20 38 -6 15 -8 36 -5 46 8 23 2 24 -15 4z"/>
</g>
</svg>
