<?xml version="1.0" standalone="no"?>
<!DOCTYPE svg PUBLIC "-//W3C//DTD SVG 20010904//EN"
 "http://www.w3.org/TR/2001/REC-SVG-20010904/DTD/svg10.dtd">
<svg version="1.0" xmlns="http://www.w3.org/2000/svg"
 width="90.000000pt" height="92.000000pt" viewBox="0 0 90.000000 92.000000"
 preserveAspectRatio="xMidYMid meet">
<metadata>
Created by potrace 1.16, written by Peter Selinger 2001-2019
</metadata>
<g transform="translate(0.000000,92.000000) scale(0.100000,-0.100000)"
fill="#000000" stroke="none">
<path d="M173 722 c-124 -22 -141 -27 -130 -40 9 -11 11 -61 9 -186 -2 -94 -5
-189 -8 -210 -12 -108 41 -143 209 -133 139 8 190 29 137 57 -14 8 -32 7 -63
-1 -48 -14 -203 -18 -231 -6 -18 7 -19 16 -13 170 6 135 21 283 32 295 7 7
185 32 233 32 56 0 71 19 33 40 -26 13 -40 12 -208 -18z"/>
<path d="M653 715 c-23 -7 -86 -21 -140 -30 -54 -9 -100 -19 -103 -21 -8 -9
25 -24 53 -24 l27 0 0 -82 c-1 -100 -24 -370 -33 -385 -4 -6 -23 -14 -43 -18
-36 -6 -36 -7 -17 -27 33 -37 52 -37 105 -2 27 18 67 43 88 55 22 13 40 26 40
31 0 11 2 11 -65 -12 -32 -11 -60 -18 -62 -17 -2 2 2 50 8 106 l12 102 33 -32
c35 -34 64 -34 64 -1 0 25 -19 40 -58 48 -28 6 -32 11 -32 38 0 17 4 36 8 42
5 8 85 34 105 34 3 0 3 -53 0 -117 -6 -134 3 -180 47 -241 20 -29 42 -45 69
-53 72 -22 145 17 109 58 -8 10 -19 41 -23 68 -5 28 -10 41 -12 30 -17 -81
-24 -95 -48 -95 -34 0 -83 45 -95 88 -21 78 -6 204 31 254 l20 28 -32 19 c-30
18 -32 18 -72 1 -23 -10 -55 -21 -70 -24 -24 -6 -28 -4 -23 11 15 53 17 74 7
87 -9 11 3 16 65 26 125 20 158 37 115 60 -23 12 -24 12 -78 -5z"/>
<path d="M250 604 c-25 -7 -58 -13 -74 -13 -21 -1 -26 -4 -18 -13 5 -7 15 -33
22 -58 6 -25 13 -50 15 -56 2 -8 19 -9 57 -3 94 16 97 17 91 38 -2 10 5 37 16
59 21 41 21 41 2 52 -24 12 -53 11 -111 -6z m60 -47 c0 -35 -21 -57 -63 -64
-32 -5 -37 -3 -37 13 0 11 -3 29 -6 41 -5 18 -1 22 23 26 71 10 83 8 83 -16z"/>
<path d="M370 420 c-8 -5 -33 -10 -56 -10 l-41 0 18 -71 c16 -65 29 -97 29
-72 0 6 23 13 50 17 45 6 64 19 41 28 -5 2 -2 24 7 51 8 26 13 49 11 51 -12
11 -46 14 -59 6z m10 -65 c0 -29 -5 -37 -26 -45 -14 -6 -27 -10 -29 -10 -1 0
-5 20 -7 45 -3 45 -3 45 29 45 31 0 33 -2 33 -35z"/>
<path d="M180 394 c-19 -7 -45 -11 -57 -8 -23 4 -32 -9 -14 -21 6 -3 13 -25
16 -49 10 -66 14 -68 73 -55 49 10 66 23 41 31 -7 2 -5 18 7 47 17 42 17 44
-1 57 -21 16 -19 16 -65 -2z m30 -53 c0 -41 -20 -67 -45 -57 -10 3 -15 19 -15
45 0 40 0 40 53 50 4 0 7 -16 7 -38z"/>
</g>
</svg>
