<?xml version="1.0" standalone="no"?>
<!DOCTYPE svg PUBLIC "-//W3C//DTD SVG 20010904//EN"
 "http://www.w3.org/TR/2001/REC-SVG-20010904/DTD/svg10.dtd">
<svg version="1.0" xmlns="http://www.w3.org/2000/svg"
 width="96.000000pt" height="68.000000pt" viewBox="0 0 96.000000 68.000000"
 preserveAspectRatio="xMidYMid meet">
<metadata>
Created by potrace 1.16, written by Peter Selinger 2001-2019
</metadata>
<g transform="translate(0.000000,68.000000) scale(0.100000,-0.100000)"
fill="#000000" stroke="none">
<path d="M521 275 c-7 -19 -17 -35 -23 -35 -6 0 -33 14 -60 31 -28 17 -60 28
-72 26 -20 -3 -20 -4 4 -14 14 -6 45 -25 68 -43 43 -31 44 -32 25 -52 -10 -12
-42 -36 -70 -55 -29 -18 -53 -35 -53 -37 0 -11 79 17 122 43 27 17 52 31 55
31 2 0 35 -25 71 -55 l66 -55 81 0 c119 0 122 12 12 48 -92 30 -207 86 -207
102 0 4 7 24 15 43 19 47 19 57 -3 57 -11 0 -23 -13 -31 -35z"/>
</g>
</svg>
