<?xml version="1.0" standalone="no"?>
<!DOCTYPE svg PUBLIC "-//W3C//DTD SVG 20010904//EN"
 "http://www.w3.org/TR/2001/REC-SVG-20010904/DTD/svg10.dtd">
<svg version="1.0" xmlns="http://www.w3.org/2000/svg"
 width="96.000000pt" height="68.000000pt" viewBox="0 0 96.000000 68.000000"
 preserveAspectRatio="xMidYMid meet">
<metadata>
Created by potrace 1.16, written by Peter Selinger 2001-2019
</metadata>
<g transform="translate(0.000000,68.000000) scale(0.100000,-0.100000)"
fill="#000000" stroke="none">
<path d="M257 516 l6 -93 -62 -7 c-75 -9 -71 -26 5 -26 l55 0 -3 -47 c-3 -53
-9 -57 -110 -93 -59 -21 -64 -25 -48 -45 19 -23 61 -18 110 15 51 34 57 29 45
-46 -6 -43 -7 -44 -43 -44 l-37 0 48 -47 48 -48 20 24 c16 20 19 39 19 124 0
98 1 102 28 125 l27 23 -27 -6 c-27 -5 -28 -4 -28 35 0 39 1 40 34 40 38 0 57
17 35 31 -8 5 -25 9 -38 9 -21 0 -23 3 -18 43 3 23 9 56 12 73 6 26 3 32 -20
42 -14 7 -34 12 -45 12 -17 0 -18 -7 -13 -94z"/>
<path d="M636 553 c3 -32 1 -63 -3 -70 -5 -7 -33 -13 -63 -15 l-55 -3 0 39 c0
30 -5 41 -20 47 -34 13 -35 11 -29 -46 6 -52 5 -55 -15 -55 -11 0 -21 -4 -21
-10 0 -5 11 -10 24 -10 26 0 36 -16 36 -61 0 -28 -1 -29 -52 -30 -29 -1 -57
-1 -63 1 -5 1 -5 -4 2 -11 10 -10 45 -10 165 -1 84 7 180 12 213 13 69 0 106
11 86 24 -15 9 -102 8 -143 -1 -26 -5 -28 -4 -28 29 0 50 9 67 35 67 32 0 41
18 13 22 -21 3 -23 8 -20 55 2 43 -1 54 -17 63 -42 22 -49 14 -45 -47z m-6
-148 c0 -29 -5 -37 -26 -45 -14 -6 -37 -10 -52 -10 -24 0 -27 4 -30 36 -1 20
0 39 2 43 3 4 28 8 55 10 l51 2 0 -36z"/>
<path d="M577 286 c-37 -7 -76 -11 -86 -9 -17 2 -19 -7 -23 -95 -5 -105 5
-149 27 -119 9 12 33 19 80 24 64 6 68 5 88 -20 20 -24 24 -25 41 -12 17 13
19 27 17 122 -1 71 -6 110 -14 115 -16 10 -48 9 -130 -6z m91 -18 c7 -7 12
-22 12 -34 0 -18 -7 -22 -52 -28 -29 -3 -68 -6 -85 -6 -30 0 -33 3 -33 29 0
28 2 30 63 39 34 5 67 10 73 11 5 0 15 -4 22 -11z m6 -121 l1 -37 -56 0 c-31
0 -71 -3 -88 -6 -29 -6 -31 -5 -31 22 0 33 14 59 27 51 4 -3 33 -2 63 3 80 11
83 10 84 -33z"/>
</g>
</svg>
