<?xml version="1.0" standalone="no"?>
<!DOCTYPE svg PUBLIC "-//W3C//DTD SVG 20010904//EN"
 "http://www.w3.org/TR/2001/REC-SVG-20010904/DTD/svg10.dtd">
<svg version="1.0" xmlns="http://www.w3.org/2000/svg"
 width="96.000000pt" height="68.000000pt" viewBox="0 0 96.000000 68.000000"
 preserveAspectRatio="xMidYMid meet">
<metadata>
Created by potrace 1.16, written by Peter Selinger 2001-2019
</metadata>
<g transform="translate(0.000000,68.000000) scale(0.100000,-0.100000)"
fill="#000000" stroke="none">
<path d="M321 403 c-16 -42 -92 -127 -152 -168 -59 -42 -39 -42 36 -1 36 20
68 36 72 36 6 0 -1 -90 -12 -165 -7 -41 15 -89 32 -72 12 13 22 240 11 254 -7
9 4 29 37 68 39 46 45 58 35 70 -22 26 -45 17 -59 -22z"/>
</g>
</svg>
