<?xml version="1.0" standalone="no"?>
<!DOCTYPE svg PUBLIC "-//W3C//DTD SVG 20010904//EN"
 "http://www.w3.org/TR/2001/REC-SVG-20010904/DTD/svg10.dtd">
<svg version="1.0" xmlns="http://www.w3.org/2000/svg"
 width="96.000000pt" height="68.000000pt" viewBox="0 0 96.000000 68.000000"
 preserveAspectRatio="xMidYMid meet">
<metadata>
Created by potrace 1.16, written by Peter Selinger 2001-2019
</metadata>
<g transform="translate(0.000000,68.000000) scale(0.100000,-0.100000)"
fill="#000000" stroke="none">
<path d="M495 560 c-11 -5 -47 -9 -80 -9 l-60 -1 -2 -83 c-2 -90 -30 -212 -63
-277 -28 -54 -20 -61 13 -13 37 55 58 108 71 188 8 47 17 71 27 72 8 1 49 5
92 8 61 5 76 10 67 19 -7 10 -3 23 15 50 14 21 23 42 20 47 -8 11 -73 11 -100
-1z m35 -38 c0 -35 -23 -51 -82 -58 -62 -7 -65 -5 -52 43 6 23 25 29 97 32 30
1 37 -3 37 -17z"/>
</g>
</svg>
