<?xml version="1.0" standalone="no"?>
<!DOCTYPE svg PUBLIC "-//W3C//DTD SVG 20010904//EN"
 "http://www.w3.org/TR/2001/REC-SVG-20010904/DTD/svg10.dtd">
<svg version="1.0" xmlns="http://www.w3.org/2000/svg"
 width="96.000000pt" height="68.000000pt" viewBox="0 0 96.000000 68.000000"
 preserveAspectRatio="xMidYMid meet">
<metadata>
Created by potrace 1.16, written by Peter Selinger 2001-2019
</metadata>
<g transform="translate(0.000000,68.000000) scale(0.100000,-0.100000)"
fill="#000000" stroke="none">
<path d="M533 263 c-7 -2 -13 -13 -13 -24 0 -16 -8 -19 -52 -20 -29 0 -75 -4
-103 -8 -78 -12 -29 -25 69 -19 l83 6 7 -86 c3 -47 9 -88 11 -91 12 -11 19 15
24 88 4 44 10 83 14 88 5 4 62 8 127 8 65 0 122 3 126 7 17 18 -54 28 -152 22
-102 -7 -104 -6 -104 15 0 20 -12 25 -37 14z"/>
</g>
</svg>
