<?xml version="1.0" standalone="no"?>
<!DOCTYPE svg PUBLIC "-//W3C//DTD SVG 20010904//EN"
 "http://www.w3.org/TR/2001/REC-SVG-20010904/DTD/svg10.dtd">
<svg version="1.0" xmlns="http://www.w3.org/2000/svg"
 width="96.000000pt" height="68.000000pt" viewBox="0 0 96.000000 68.000000"
 preserveAspectRatio="xMidYMid meet">
<metadata>
Created by potrace 1.16, written by Peter Selinger 2001-2019
</metadata>
<g transform="translate(0.000000,68.000000) scale(0.100000,-0.100000)"
fill="#000000" stroke="none">
<path d="M295 243 c0 -28 -1 -28 -104 -42 -94 -13 -102 -16 -85 -28 19 -14 37
-14 142 3 l42 7 0 -71 c0 -51 4 -71 14 -75 20 -8 26 14 26 88 0 68 6 75 74 75
25 0 27 2 16 16 -10 11 -23 14 -52 9 -36 -6 -38 -5 -38 19 0 18 -5 26 -18 26
-13 0 -18 -8 -17 -27z"/>
</g>
</svg>
