<?xml version="1.0" standalone="no"?>
<!DOCTYPE svg PUBLIC "-//W3C//DTD SVG 20010904//EN"
 "http://www.w3.org/TR/2001/REC-SVG-20010904/DTD/svg10.dtd">
<svg version="1.0" xmlns="http://www.w3.org/2000/svg"
 width="96.000000pt" height="68.000000pt" viewBox="0 0 96.000000 68.000000"
 preserveAspectRatio="xMidYMid meet">
<metadata>
Created by potrace 1.16, written by Peter Selinger 2001-2019
</metadata>
<g transform="translate(0.000000,68.000000) scale(0.100000,-0.100000)"
fill="#000000" stroke="none">
<path d="M585 290 c-11 -5 -32 -9 -47 -9 -16 -1 -28 -2 -28 -3 1 -21 31 -83
39 -82 6 1 29 2 52 3 23 0 38 5 34 11 -3 5 2 24 11 41 13 26 14 33 2 40 -16
11 -37 10 -63 -1z m25 -40 c0 -19 -5 -31 -15 -31 -8 -1 -20 -2 -27 -3 -6 -1
-15 11 -19 26 -5 21 -3 28 10 31 42 12 51 7 51 -23z"/>
</g>
</svg>
