<?xml version="1.0" standalone="no"?>
<!DOCTYPE svg PUBLIC "-//W3C//DTD SVG 20010904//EN"
 "http://www.w3.org/TR/2001/REC-SVG-20010904/DTD/svg10.dtd">
<svg version="1.0" xmlns="http://www.w3.org/2000/svg"
 width="96.000000pt" height="68.000000pt" viewBox="0 0 96.000000 68.000000"
 preserveAspectRatio="xMidYMid meet">
<metadata>
Created by potrace 1.16, written by Peter Selinger 2001-2019
</metadata>
<g transform="translate(0.000000,68.000000) scale(0.100000,-0.100000)"
fill="#000000" stroke="none">
<path d="M485 584 c-55 -7 -122 -11 -150 -8 l-50 6 3 -74 c6 -129 -45 -268
-140 -381 -44 -53 -39 -60 14 -19 75 57 119 131 152 257 14 52 26 80 36 82 8
1 88 7 178 14 111 8 161 15 159 23 -2 6 4 28 15 49 35 71 -4 80 -217 51z m160
-46 c-4 -18 -9 -35 -10 -36 -6 -6 -208 -31 -252 -32 -45 0 -50 7 -37 57 5 19
16 22 107 31 56 5 124 10 150 11 l49 1 -7 -32z"/>
</g>
</svg>
