<?xml version="1.0" standalone="no"?>
<!DOCTYPE svg PUBLIC "-//W3C//DTD SVG 20010904//EN"
 "http://www.w3.org/TR/2001/REC-SVG-20010904/DTD/svg10.dtd">
<svg version="1.0" xmlns="http://www.w3.org/2000/svg"
 width="96.000000pt" height="68.000000pt" viewBox="0 0 96.000000 68.000000"
 preserveAspectRatio="xMidYMid meet">
<metadata>
Created by potrace 1.16, written by Peter Selinger 2001-2019
</metadata>
<g transform="translate(0.000000,68.000000) scale(0.100000,-0.100000)"
fill="#000000" stroke="none">
<path d="M568 564 c5 -44 -14 -64 -64 -64 -18 0 -36 -4 -39 -10 -4 -6 12 -10
39 -10 59 0 60 -16 4 -70 -23 -22 -37 -40 -32 -40 16 0 94 59 101 75 7 21 16
19 70 -15 55 -35 83 -39 83 -10 0 15 -12 23 -52 35 -28 8 -58 15 -65 15 -7 0
-13 4 -13 9 0 5 27 14 60 19 33 6 68 15 77 21 16 8 15 10 -8 16 -15 4 -44 2
-65 -4 -54 -15 -54 -15 -51 27 2 33 -1 37 -24 40 -24 3 -25 1 -21 -34z"/>
<path d="M285 539 c-22 -4 -64 -8 -93 -8 -51 -1 -52 -2 -41 -23 8 -15 10 -55
6 -125 -3 -56 -2 -105 3 -108 5 -3 28 -1 52 4 24 5 69 12 100 15 l57 4 -4 -61
c-7 -99 -16 -121 -52 -127 l-32 -5 25 -28 c20 -24 27 -26 44 -17 25 14 39 47
50 120 4 30 11 71 15 91 7 36 6 37 -30 49 -20 7 -45 10 -56 7 -15 -4 -19 0
-19 19 0 20 6 25 40 30 46 8 43 27 -3 22 -26 -2 -33 1 -35 19 -3 18 2 22 30
25 38 4 41 22 3 26 -16 2 -25 10 -25 22 0 14 10 20 40 25 25 4 40 12 40 21 0
16 -48 17 -115 3z m-15 -64 c0 -21 -5 -25 -30 -25 -25 0 -30 4 -30 25 0 21 5
25 30 25 25 0 30 -4 30 -25z m0 -70 c0 -21 -5 -25 -30 -25 -25 0 -30 4 -30 25
0 21 5 25 30 25 25 0 30 -4 30 -25z m2 -60 c5 -23 2 -25 -34 -25 -32 0 -39 3
-36 17 2 10 16 21 33 24 17 4 31 7 31 8 1 0 4 -10 6 -24z"/>
<path d="M587 365 c-93 -13 -171 -25 -174 -28 -15 -16 59 -18 141 -5 119 20
117 22 114 -137 l-3 -120 -32 3 c-41 3 -42 -8 -1 -42 39 -32 52 -33 72 -4 13
18 16 53 16 170 l0 148 38 0 c59 0 85 10 71 26 -15 18 -38 17 -242 -11z"/>
<path d="M560 290 c-14 -4 -46 -8 -73 -9 -47 -1 -47 -1 -33 -23 8 -13 17 -38
21 -56 6 -29 10 -33 31 -28 13 4 44 9 69 13 39 5 43 8 33 21 -10 12 -10 16 0
19 6 3 12 11 12 18 0 7 6 16 13 19 8 3 6 9 -7 20 -22 17 -29 18 -66 6z m10
-50 c0 -23 -5 -31 -24 -36 -32 -8 -46 2 -46 31 0 22 10 28 58 34 7 0 12 -11
12 -29z"/>
<path d="M300 254 c0 -16 23 -44 35 -44 18 0 18 5 5 31 -10 17 -40 27 -40 13z"/>
<path d="M230 229 c12 -22 37 -35 47 -25 9 8 -27 46 -44 46 -11 0 -11 -4 -3
-21z"/>
<path d="M102 215 c-15 -33 -15 -62 -1 -71 16 -10 29 15 29 59 0 43 -12 48
-28 12z"/>
<path d="M175 210 c16 -32 35 -40 35 -16 0 16 -26 46 -41 46 -5 0 -3 -13 6
-30z"/>
</g>
</svg>
