<?xml version="1.0" standalone="no"?>
<!DOCTYPE svg PUBLIC "-//W3C//DTD SVG 20010904//EN"
 "http://www.w3.org/TR/2001/REC-SVG-20010904/DTD/svg10.dtd">
<svg version="1.0" xmlns="http://www.w3.org/2000/svg"
 width="96.000000pt" height="68.000000pt" viewBox="0 0 96.000000 68.000000"
 preserveAspectRatio="xMidYMid meet">
<metadata>
Created by potrace 1.16, written by Peter Selinger 2001-2019
</metadata>
<g transform="translate(0.000000,68.000000) scale(0.100000,-0.100000)"
fill="#000000" stroke="none">
<path d="M559 581 c6 -10 15 -49 21 -87 5 -38 12 -78 15 -89 4 -19 -4 -22
-123 -39 -167 -23 -179 -26 -158 -38 11 -6 55 -2 130 12 154 29 155 29 176
-50 10 -36 21 -74 25 -86 7 -23 -39 -75 -108 -121 -20 -14 -36 -28 -33 -30 7
-7 110 48 137 74 l27 24 51 -54 c49 -52 115 -97 126 -86 3 3 0 32 -7 63 -11
58 -11 58 -25 31 -13 -24 -16 -25 -36 -12 -12 8 -35 31 -51 51 l-30 37 24 44
c14 25 28 45 31 45 4 0 10 7 13 16 9 22 -11 44 -40 44 -20 0 -24 -5 -24 -33 0
-18 -6 -41 -13 -51 -12 -17 -15 -14 -30 25 -9 24 -19 56 -23 72 -6 27 -6 27
46 27 69 0 64 25 -6 26 l-49 1 0 92 c0 98 -6 111 -53 111 -19 0 -21 -3 -13
-19z"/>
<path d="M688 481 c35 -34 57 -39 65 -17 8 20 -15 36 -60 42 l-38 6 33 -31z"/>
</g>
</svg>
