<?xml version="1.0" standalone="no"?>
<!DOCTYPE svg PUBLIC "-//W3C//DTD SVG 20010904//EN"
 "http://www.w3.org/TR/2001/REC-SVG-20010904/DTD/svg10.dtd">
<svg version="1.0" xmlns="http://www.w3.org/2000/svg"
 width="96.000000pt" height="68.000000pt" viewBox="0 0 96.000000 68.000000"
 preserveAspectRatio="xMidYMid meet">
<metadata>
Created by potrace 1.16, written by Peter Selinger 2001-2019
</metadata>
<g transform="translate(0.000000,68.000000) scale(0.100000,-0.100000)"
fill="#000000" stroke="none">
<path d="M295 549 c-22 -4 -66 -8 -97 -8 -61 -1 -67 -5 -44 -30 19 -21 44
-133 35 -157 -3 -11 -21 -34 -38 -53 -17 -18 -31 -35 -31 -36 0 -2 21 7 46 20
76 39 93 11 38 -62 -33 -44 -30 -63 4 -25 16 18 32 32 37 32 4 0 24 -12 42
-26 25 -19 38 -23 45 -16 14 14 -7 42 -31 42 -9 0 -22 4 -30 9 -12 8 -12 12
-2 25 10 12 11 19 2 30 -16 19 -7 22 57 25 l52 2 0 -78 c0 -43 -5 -95 -11
-115 -9 -35 -13 -38 -47 -38 l-37 0 32 -32 c32 -32 32 -32 54 -13 33 31 42 54
50 140 4 44 11 94 14 111 10 47 -22 57 -126 39 -83 -15 -110 -12 -76 7 14 7
16 13 7 23 -16 20 27 29 91 21 42 -6 50 -4 55 11 4 10 17 45 30 78 22 56 23
61 7 73 -19 13 -67 14 -128 1z m68 -26 c9 -17 -9 -38 -33 -39 -14 0 -44 -3
-68 -7 -34 -6 -44 -4 -48 8 -9 22 -3 25 53 35 66 11 91 11 96 3z m-10 -83 c-4
-14 -14 -20 -33 -20 -15 0 -41 -3 -57 -6 -25 -5 -31 -2 -36 15 -4 17 1 20 37
24 95 8 95 8 89 -13z"/>
<path d="M540 529 c0 -26 -47 -134 -72 -168 -26 -34 -13 -40 20 -9 26 24 37
27 157 41 17 2 20 -3 17 -30 -1 -18 1 -33 4 -33 16 0 93 53 88 61 -3 5 -21 16
-40 24 -31 13 -44 13 -102 0 -37 -7 -68 -12 -70 -10 -2 2 10 29 28 60 26 45
30 59 20 70 -19 23 -50 19 -50 -6z"/>
<path d="M535 310 c4 -11 1 -46 -6 -78 -11 -46 -22 -66 -61 -104 -50 -51 -47
-61 7 -28 31 19 85 89 85 110 0 5 7 10 15 10 8 0 15 -4 15 -9 0 -8 69 -100 99
-131 15 -16 141 -28 141 -14 -1 5 -35 24 -76 43 -99 46 -179 127 -168 174 7
32 -6 47 -39 47 -14 0 -17 -5 -12 -20z"/>
<path d="M120 186 c0 -41 4 -55 16 -60 22 -9 167 3 178 15 18 17 -4 22 -52 12
-26 -6 -60 -10 -77 -9 -28 1 -30 4 -27 35 2 32 -11 61 -29 61 -5 0 -9 -24 -9
-54z"/>
</g>
</svg>
