<?xml version="1.0" standalone="no"?>
<!DOCTYPE svg PUBLIC "-//W3C//DTD SVG 20010904//EN"
 "http://www.w3.org/TR/2001/REC-SVG-20010904/DTD/svg10.dtd">
<svg version="1.0" xmlns="http://www.w3.org/2000/svg"
 width="96.000000pt" height="68.000000pt" viewBox="0 0 96.000000 68.000000"
 preserveAspectRatio="xMidYMid meet">
<metadata>
Created by potrace 1.16, written by Peter Selinger 2001-2019
</metadata>
<g transform="translate(0.000000,68.000000) scale(0.100000,-0.100000)"
fill="#000000" stroke="none">
<path d="M368 605 c-3 -3 -3 -37 0 -75 5 -80 14 -75 -128 -85 -46 -3 -86 -8
-88 -10 -2 -2 -1 -9 3 -16 6 -9 35 -10 111 -6 l104 7 0 -84 0 -83 -37 -7 c-48
-8 -93 -8 -93 0 0 3 8 22 17 41 18 38 10 65 -19 71 -12 2 -17 -9 -20 -48 -3
-28 -13 -59 -22 -69 -23 -26 -13 -61 18 -61 12 0 26 4 31 9 11 9 117 42 122
37 2 -1 7 -24 12 -50 15 -80 62 -114 170 -123 59 -5 168 6 224 23 22 7 22 39
1 111 -17 60 -25 59 -42 -2 -17 -60 -50 -75 -159 -75 -63 0 -95 4 -110 15 -26
18 -51 91 -37 105 5 5 36 12 68 16 53 6 59 5 53 -9 -4 -11 1 -20 13 -27 21
-11 20 -13 45 94 8 38 14 71 12 73 -3 2 -18 8 -36 13 l-31 9 0 -59 0 -59 -37
-6 c-92 -14 -83 -22 -83 70 l0 82 75 6 c116 10 155 18 155 32 0 20 -49 27
-109 15 -29 -5 -67 -10 -84 -10 l-30 0 7 59 7 59 -32 11 c-36 12 -43 13 -51 6z"/>
</g>
</svg>
