<?xml version="1.0" standalone="no"?>
<!DOCTYPE svg PUBLIC "-//W3C//DTD SVG 20010904//EN"
 "http://www.w3.org/TR/2001/REC-SVG-20010904/DTD/svg10.dtd">
<svg version="1.0" xmlns="http://www.w3.org/2000/svg"
 width="96.000000pt" height="68.000000pt" viewBox="0 0 96.000000 68.000000"
 preserveAspectRatio="xMidYMid meet">
<metadata>
Created by potrace 1.16, written by Peter Selinger 2001-2019
</metadata>
<g transform="translate(0.000000,68.000000) scale(0.100000,-0.100000)"
fill="#000000" stroke="none">
<path d="M573 112 c-13 -2 -23 -10 -23 -18 0 -10 -12 -14 -42 -14 -24 0 -73
-3 -110 -7 -60 -5 -68 -4 -68 11 0 12 -7 16 -22 14 -28 -4 -35 -35 -15 -63 14
-18 16 -18 31 -2 14 14 36 17 110 17 86 0 95 -2 109 -23 l15 -22 22 21 c15 15
21 30 18 55 -3 29 -6 34 -25 31z"/>
</g>
</svg>
