<?xml version="1.0" standalone="no"?>
<!DOCTYPE svg PUBLIC "-//W3C//DTD SVG 20010904//EN"
 "http://www.w3.org/TR/2001/REC-SVG-20010904/DTD/svg10.dtd">
<svg version="1.0" xmlns="http://www.w3.org/2000/svg"
 width="96.000000pt" height="68.000000pt" viewBox="0 0 96.000000 68.000000"
 preserveAspectRatio="xMidYMid meet">
<metadata>
Created by potrace 1.16, written by Peter Selinger 2001-2019
</metadata>
<g transform="translate(0.000000,68.000000) scale(0.100000,-0.100000)"
fill="#000000" stroke="none">
<path d="M397 273 c-3 -5 -5 -42 -6 -83 -1 -41 -4 -89 -7 -107 -10 -52 16 -51
95 4 39 26 71 51 71 55 0 3 -23 -2 -50 -13 -28 -10 -55 -19 -61 -19 -7 0 -8
28 -3 85 6 82 6 85 -14 85 -11 0 -23 -3 -25 -7z"/>
<path d="M658 252 c-48 -56 -53 -57 -102 -22 -24 18 -52 30 -62 28 -16 -3 -14
-7 11 -20 17 -9 57 -42 89 -73 106 -101 113 -105 164 -105 99 0 101 10 9 45
-81 31 -147 68 -147 84 0 4 25 18 55 30 58 24 65 38 27 52 -16 6 -26 2 -44
-19z"/>
</g>
</svg>
