<?xml version="1.0" standalone="no"?>
<!DOCTYPE svg PUBLIC "-//W3C//DTD SVG 20010904//EN"
 "http://www.w3.org/TR/2001/REC-SVG-20010904/DTD/svg10.dtd">
<svg version="1.0" xmlns="http://www.w3.org/2000/svg"
 width="96.000000pt" height="68.000000pt" viewBox="0 0 96.000000 68.000000"
 preserveAspectRatio="xMidYMid meet">
<metadata>
Created by potrace 1.16, written by Peter Selinger 2001-2019
</metadata>
<g transform="translate(0.000000,68.000000) scale(0.100000,-0.100000)"
fill="#000000" stroke="none">
<path d="M295 563 c4 -10 10 -57 13 -105 3 -67 8 -88 19 -88 18 0 20 9 27 106
6 79 6 81 -19 92 -37 17 -48 15 -40 -5z"/>
<path d="M408 450 c-14 -27 -23 -50 -21 -50 4 0 67 44 87 62 11 9 -11 38 -29
38 -7 0 -24 -22 -37 -50z"/>
<path d="M190 444 c0 -3 9 -19 21 -35 30 -42 80 -35 51 7 -14 22 -72 44 -72
28z"/>
</g>
</svg>
