<?xml version="1.0" standalone="no"?>
<!DOCTYPE svg PUBLIC "-//W3C//DTD SVG 20010904//EN"
 "http://www.w3.org/TR/2001/REC-SVG-20010904/DTD/svg10.dtd">
<svg version="1.0" xmlns="http://www.w3.org/2000/svg"
 width="96.000000pt" height="68.000000pt" viewBox="0 0 96.000000 68.000000"
 preserveAspectRatio="xMidYMid meet">
<metadata>
Created by potrace 1.16, written by Peter Selinger 2001-2019
</metadata>
<g transform="translate(0.000000,68.000000) scale(0.100000,-0.100000)"
fill="#000000" stroke="none">
<path d="M520 553 c-14 -26 -43 -60 -68 -77 -60 -42 -45 -79 21 -51 31 13 19
-32 -20 -77 -24 -26 -31 -39 -19 -35 46 18 114 95 102 116 -5 8 24 20 47 21 4
0 7 -20 7 -43 0 -37 4 -46 25 -55 36 -17 158 -16 153 1 -3 7 -31 14 -71 17
-37 3 -68 8 -68 13 0 4 2 25 6 47 6 34 11 40 31 40 13 0 24 -4 24 -10 0 -16
41 -33 53 -21 16 16 -18 58 -60 76 -40 17 -58 11 -29 -11 15 -10 16 -14 5 -18
-30 -10 -164 -33 -168 -30 -3 3 18 28 46 57 45 46 50 54 39 70 -20 26 -29 21
-56 -30z"/>
<path d="M248 564 c-4 -3 -2 -20 3 -37 5 -18 9 -51 9 -74 0 -47 -1 -47 -92
-58 -43 -5 -58 -10 -58 -22 0 -14 10 -15 71 -9 l70 6 -26 -48 c-14 -27 -53
-76 -87 -110 -93 -96 -25 -77 81 22 31 30 42 36 38 21 -3 -11 -9 -61 -12 -111
-6 -76 -4 -92 9 -103 13 -11 19 -11 31 -1 11 9 15 34 15 100 0 48 3 101 6 119
l6 31 20 -25 c23 -29 43 -32 52 -8 7 18 -26 59 -56 69 -11 3 -18 15 -18 29 0
19 7 24 40 30 22 4 43 11 46 17 10 16 -18 29 -53 24 l-33 -5 7 61 c5 52 4 63
-12 74 -19 14 -47 18 -57 8z"/>
<path d="M543 343 c-7 -3 -13 -13 -13 -23 0 -9 -30 -50 -66 -89 -59 -64 -64
-89 -6 -38 l22 21 33 -30 c17 -16 34 -30 36 -32 13 -7 -33 -35 -104 -62 -61
-24 -71 -30 -41 -26 21 3 69 17 106 32 l67 26 47 -36 c41 -31 55 -36 99 -36
66 0 127 10 127 21 0 4 -26 13 -57 19 -75 15 -145 37 -168 53 -15 11 -15 16
-4 28 8 8 29 35 47 61 32 46 32 47 12 58 -15 8 -33 7 -72 -5 -28 -8 -53 -13
-55 -12 -2 2 6 12 17 22 11 10 20 22 20 26 0 12 -33 27 -47 22z m77 -90 c0
-21 -36 -83 -47 -83 -17 1 -65 49 -61 61 2 7 24 18 49 24 61 17 59 17 59 -2z"/>
</g>
</svg>
