<?xml version="1.0" standalone="no"?>
<!DOCTYPE svg PUBLIC "-//W3C//DTD SVG 20010904//EN"
 "http://www.w3.org/TR/2001/REC-SVG-20010904/DTD/svg10.dtd">
<svg version="1.0" xmlns="http://www.w3.org/2000/svg"
 width="96.000000pt" height="68.000000pt" viewBox="0 0 96.000000 68.000000"
 preserveAspectRatio="xMidYMid meet">
<metadata>
Created by potrace 1.16, written by Peter Selinger 2001-2019
</metadata>
<g transform="translate(0.000000,68.000000) scale(0.100000,-0.100000)"
fill="#000000" stroke="none">
<path d="M583 609 c-3 -43 -19 -59 -60 -59 -20 0 -32 -4 -28 -10 3 -5 20 -10
36 -10 27 0 29 -2 19 -21 -19 -35 -1 -36 26 -1 24 30 30 32 87 32 65 0 99 11
77 25 -7 4 -34 7 -61 6 -50 -1 -56 3 -39 29 12 19 -6 40 -34 40 -16 0 -21 -7
-23 -31z"/>
<path d="M300 616 c0 -4 7 -21 16 -38 20 -39 9 -48 -63 -48 -57 0 -68 -13 -29
-31 18 -9 33 -8 57 0 46 16 67 14 74 -9 10 -31 36 -25 33 8 -3 23 1 27 25 30
38 5 34 20 -5 18 -27 -1 -32 3 -40 32 -5 17 -15 32 -22 32 -8 0 -21 3 -30 6
-9 3 -16 3 -16 0z"/>
</g>
</svg>
