<?xml version="1.0" standalone="no"?>
<!DOCTYPE svg PUBLIC "-//W3C//DTD SVG 20010904//EN"
 "http://www.w3.org/TR/2001/REC-SVG-20010904/DTD/svg10.dtd">
<svg version="1.0" xmlns="http://www.w3.org/2000/svg"
 width="90.000000pt" height="92.000000pt" viewBox="0 0 90.000000 92.000000"
 preserveAspectRatio="xMidYMid meet">
<metadata>
Created by potrace 1.16, written by Peter Selinger 2001-2019
</metadata>
<g transform="translate(0.000000,92.000000) scale(0.100000,-0.100000)"
fill="#000000" stroke="none">
<path d="M514 825 c4 -19 4 -51 0 -70 -7 -38 -9 -39 -98 -50 -70 -9 -44 -31
33 -27 l58 2 -6 -32 c-6 -30 -11 -34 -54 -42 -55 -11 -57 -30 -4 -34 39 -3 46
-16 24 -46 -8 -11 -35 -20 -76 -26 -35 -5 -66 -11 -68 -14 -11 -11 53 -27 85
-22 17 2 32 3 32 0 0 -20 -48 -89 -95 -137 -32 -32 -56 -60 -54 -62 7 -6 83
35 109 60 21 20 32 23 63 18 34 -5 37 -8 37 -39 0 -32 -1 -33 -57 -40 -32 -4
-67 -10 -78 -14 -19 -7 -18 -8 6 -20 19 -9 39 -9 72 -2 40 8 45 7 40 -7 -13
-37 -57 -83 -106 -111 -40 -23 -47 -30 -29 -30 31 0 92 27 120 53 13 12 33 40
44 62 27 52 32 55 103 56 33 0 69 4 80 8 18 7 18 9 -8 25 -26 18 -60 17 -121
-1 -16 -4 -18 -1 -14 21 4 18 0 29 -10 35 -11 6 -4 11 26 16 48 8 60 19 36 33
-11 6 -35 5 -68 -4 -28 -8 -61 -14 -73 -14 l-22 0 27 54 c25 52 29 55 65 55
43 1 49 -4 145 -120 35 -43 72 -79 83 -82 17 -5 63 3 109 19 9 3 -18 21 -66
43 -51 24 -104 60 -143 95 l-61 56 44 0 c63 0 136 11 136 21 0 5 -12 15 -27
23 -24 11 -40 12 -108 0 -112 -18 -125 -18 -125 5 0 31 25 48 81 54 29 4 57
11 62 16 14 14 -36 25 -84 18 l-40 -5 7 31 c3 18 7 32 8 33 0 0 30 6 65 12 35
6 66 14 70 17 9 9 -31 36 -46 31 -6 -3 -28 -8 -49 -12 -36 -7 -37 -6 -30 21
19 76 19 81 -9 93 -42 19 -48 16 -41 -23z"/>
<path d="M184 818 c4 -18 9 -74 13 -125 l5 -92 -61 -7 c-34 -4 -64 -10 -67
-15 -10 -16 37 -30 81 -23 l45 6 0 -61 0 -61 -72 -47 c-40 -25 -85 -51 -100
-57 -16 -6 -28 -16 -28 -22 0 -13 43 -44 60 -44 6 0 37 25 68 55 31 30 59 55
62 55 7 0 -6 -179 -14 -187 -3 -4 -22 -2 -41 4 -20 6 -35 7 -35 2 0 -5 4 -9 8
-9 5 0 23 -20 42 -45 19 -25 40 -45 47 -45 7 0 20 14 28 31 13 24 16 58 14
160 l-2 130 38 39 c44 45 41 63 -4 30 l-31 -21 0 49 0 50 44 11 c25 6 47 15
51 20 9 16 -34 33 -66 26 -28 -6 -29 -6 -29 32 1 40 13 107 25 135 5 13 -2 22
-27 38 -49 29 -62 27 -54 -12z"/>
<path d="M570 193 c1 -4 27 -37 60 -73 57 -64 59 -65 68 -40 5 13 7 32 4 42
-7 28 -133 95 -132 71z"/>
</g>
</svg>
