<?xml version="1.0" standalone="no"?>
<!DOCTYPE svg PUBLIC "-//W3C//DTD SVG 20010904//EN"
 "http://www.w3.org/TR/2001/REC-SVG-20010904/DTD/svg10.dtd">
<svg version="1.0" xmlns="http://www.w3.org/2000/svg"
 width="90.000000pt" height="92.000000pt" viewBox="0 0 90.000000 92.000000"
 preserveAspectRatio="xMidYMid meet">
<metadata>
Created by potrace 1.16, written by Peter Selinger 2001-2019
</metadata>
<g transform="translate(0.000000,92.000000) scale(0.100000,-0.100000)"
fill="#000000" stroke="none">
<path d="M205 803 c11 -46 18 -224 9 -233 -5 -5 -28 -12 -52 -16 l-43 -7 20
52 c19 52 19 53 0 72 -10 10 -23 19 -28 19 -5 0 -15 -32 -21 -71 -7 -39 -22
-103 -35 -141 -22 -66 -22 -68 -3 -51 11 10 28 34 38 54 15 28 25 36 47 36 16
0 41 3 56 7 l27 6 0 -64 0 -65 -72 -42 c-40 -23 -85 -47 -100 -53 -35 -13 -36
-29 -3 -50 35 -23 45 -20 90 25 22 22 48 45 58 50 21 12 21 5 6 -108 -9 -64
-9 -88 1 -112 7 -17 16 -31 21 -31 20 0 28 44 30 166 l2 129 44 43 c51 50 51
64 -1 32 -20 -12 -37 -18 -37 -13 -1 4 -1 28 0 52 1 46 12 60 46 61 26 0 52
17 42 26 -4 5 -26 8 -48 9 l-41 0 6 65 c4 36 9 82 12 102 5 34 3 39 -28 58
-44 27 -52 25 -43 -7z"/>
<path d="M528 662 l4 -147 -47 -23 -47 -23 4 77 c3 72 2 77 -19 85 -23 8 -23
8 -23 -85 l0 -94 -41 -16 c-46 -19 -43 -36 7 -36 l34 0 0 -84 c0 -111 9 -132
67 -158 39 -18 68 -22 158 -22 95 -1 118 3 170 24 55 23 60 28 59 55 -1 17
-11 55 -21 85 l-20 54 -7 -43 c-15 -94 -51 -114 -201 -114 -97 0 -139 10 -157
37 -4 6 -8 52 -8 102 l0 90 45 22 45 22 1 -78 c1 -150 25 -147 42 6 l10 97 51
23 c28 12 55 22 59 22 10 0 -1 -61 -25 -130 l-18 -54 29 28 c16 15 41 56 56
89 15 34 34 69 42 78 13 15 12 19 -9 33 -33 24 -68 20 -133 -16 l-58 -31 5
125 6 126 -25 11 c-13 6 -27 11 -31 11 -4 0 -6 -66 -4 -148z"/>
</g>
</svg>
