<?xml version="1.0" standalone="no"?>
<!DOCTYPE svg PUBLIC "-//W3C//DTD SVG 20010904//EN"
 "http://www.w3.org/TR/2001/REC-SVG-20010904/DTD/svg10.dtd">
<svg version="1.0" xmlns="http://www.w3.org/2000/svg"
 width="90.000000pt" height="92.000000pt" viewBox="0 0 90.000000 92.000000"
 preserveAspectRatio="xMidYMid meet">
<metadata>
Created by potrace 1.16, written by Peter Selinger 2001-2019
</metadata>
<g transform="translate(0.000000,92.000000) scale(0.100000,-0.100000)"
fill="#000000" stroke="none">
<path d="M400 874 c0 -3 13 -25 29 -48 l30 -43 -132 -13 c-137 -13 -177 -23
-145 -35 26 -10 31 -62 18 -167 -19 -154 -70 -281 -156 -394 -19 -24 -30 -44
-25 -44 24 0 112 96 144 158 49 93 71 178 103 399 5 36 11 39 100 48 61 7 61
6 73 -23 22 -53 13 -66 -53 -74 -32 -4 -62 -10 -65 -13 -14 -15 29 -26 82 -21
l57 6 0 -29 c0 -27 -3 -29 -52 -35 -29 -3 -71 -6 -92 -6 -37 0 -38 -1 -23 -18
9 -10 24 -58 34 -107 13 -67 22 -90 33 -89 8 1 34 4 58 8 42 8 42 7 42 -22 0
-35 -12 -38 -177 -49 -57 -3 -103 -10 -103 -14 0 -5 16 -15 34 -23 30 -13 46
-13 113 -1 43 8 90 14 106 15 l27 0 0 -99 c0 -92 9 -127 25 -101 3 6 11 52 17
104 9 83 13 95 32 100 11 3 81 6 154 6 143 0 161 8 91 42 -27 13 -45 15 -89 8
-30 -4 -83 -11 -117 -14 l-63 -6 0 29 c0 17 6 31 16 35 25 10 74 7 74 -4 0 -7
6 -7 18 -1 10 5 35 53 57 107 l38 97 -24 20 c-20 16 -33 18 -86 13 -35 -4 -70
-9 -78 -12 -11 -5 -15 1 -15 24 0 28 2 30 53 36 63 8 87 20 71 36 -14 14 -38
15 -87 5 -38 -7 -38 -7 -31 20 5 22 2 31 -16 45 -22 16 -19 17 90 23 62 3 115
9 119 12 3 4 -5 16 -19 27 -21 17 -33 19 -85 13 -33 -3 -71 -9 -84 -12 -17 -4
-22 -2 -17 6 13 21 -2 57 -29 69 -27 12 -75 16 -75 6z m228 -366 c-2 -18 -6
-32 -10 -30 -5 1 -30 2 -58 2 -46 0 -50 2 -50 23 0 33 7 37 67 37 l54 0 -3
-32z m-168 -8 c0 -33 -23 -44 -76 -38 -23 2 -29 8 -29 28 0 25 10 29 93 39 7
0 12 -11 12 -29z m151 -82 c-10 -31 -15 -34 -56 -36 -43 -1 -45 -1 -45 27 0
28 3 30 53 38 28 5 54 8 55 7 2 -2 -1 -18 -7 -36z m-151 -18 c0 -26 -3 -30
-29 -30 -16 0 -36 -3 -44 -6 -11 -4 -16 4 -19 30 l-4 36 48 0 c47 0 48 -1 48
-30z"/>
</g>
</svg>
