<?xml version="1.0" standalone="no"?>
<!DOCTYPE svg PUBLIC "-//W3C//DTD SVG 20010904//EN"
 "http://www.w3.org/TR/2001/REC-SVG-20010904/DTD/svg10.dtd">
<svg version="1.0" xmlns="http://www.w3.org/2000/svg"
 width="96.000000pt" height="68.000000pt" viewBox="0 0 96.000000 68.000000"
 preserveAspectRatio="xMidYMid meet">
<metadata>
Created by potrace 1.16, written by Peter Selinger 2001-2019
</metadata>
<g transform="translate(0.000000,68.000000) scale(0.100000,-0.100000)"
fill="#000000" stroke="none">
<path d="M270 390 c15 -28 7 -37 -40 -45 -49 -8 -42 -28 9 -23 32 3 36 0 39
-23 3 -24 -2 -28 -42 -38 -25 -6 -57 -11 -71 -11 -33 0 -28 -21 7 -34 21 -7
47 -1 125 28 98 38 149 62 108 52 -11 -3 -37 -8 -57 -11 -37 -7 -37 -7 -29 21
6 23 15 30 40 34 39 6 42 25 4 25 -20 0 -30 6 -33 20 -4 14 -16 21 -39 23 -30
3 -32 2 -21 -18z"/>
</g>
</svg>
