<?xml version="1.0" standalone="no"?>
<!DOCTYPE svg PUBLIC "-//W3C//DTD SVG 20010904//EN"
 "http://www.w3.org/TR/2001/REC-SVG-20010904/DTD/svg10.dtd">
<svg version="1.0" xmlns="http://www.w3.org/2000/svg"
 width="96.000000pt" height="68.000000pt" viewBox="0 0 96.000000 68.000000"
 preserveAspectRatio="xMidYMid meet">
<metadata>
Created by potrace 1.16, written by Peter Selinger 2001-2019
</metadata>
<g transform="translate(0.000000,68.000000) scale(0.100000,-0.100000)"
fill="#000000" stroke="none">
<path d="M485 335 c-60 -8 -136 -14 -169 -14 -53 -1 -57 -3 -45 -17 8 -9 23
-44 35 -78 17 -49 25 -60 40 -57 10 2 46 5 79 6 33 1 83 3 110 4 28 2 59 1 70
-1 16 -2 27 11 56 70 29 58 33 74 23 83 -21 17 -81 19 -199 4z m132 -30 c7
-21 7 -21 -59 -29 -57 -6 -58 -6 -58 19 0 24 3 25 55 25 41 0 57 -4 62 -15z
m-174 -16 c7 -25 -8 -31 -64 -27 -32 2 -45 8 -47 20 -3 13 6 18 40 21 24 2 48
4 54 5 7 1 14 -7 17 -19z m158 -61 c-6 -17 -18 -22 -53 -25 -48 -4 -62 4 -52
31 5 12 20 16 60 16 51 0 53 -1 45 -22z m-153 -10 c3 -15 -4 -18 -47 -18 -45
0 -51 3 -51 21 0 18 5 20 47 17 36 -2 49 -7 51 -20z"/>
</g>
</svg>
