<?xml version="1.0" standalone="no"?>
<!DOCTYPE svg PUBLIC "-//W3C//DTD SVG 20010904//EN"
 "http://www.w3.org/TR/2001/REC-SVG-20010904/DTD/svg10.dtd">
<svg version="1.0" xmlns="http://www.w3.org/2000/svg"
 width="90.000000pt" height="92.000000pt" viewBox="0 0 90.000000 92.000000"
 preserveAspectRatio="xMidYMid meet">
<metadata>
Created by potrace 1.16, written by Peter Selinger 2001-2019
</metadata>
<g transform="translate(0.000000,92.000000) scale(0.100000,-0.100000)"
fill="#000000" stroke="none">
<path d="M336 848 c-3 -7 -7 -28 -10 -46 -8 -47 -70 -167 -119 -232 -75 -98
-73 -94 -46 -80 12 7 44 32 69 56 43 40 52 44 98 44 58 0 58 -1 64 -92 l3 -46
-100 -13 c-55 -6 -135 -15 -178 -18 -42 -3 -78 -10 -78 -16 -1 -5 11 -19 25
-29 25 -20 27 -20 117 -1 50 10 119 19 153 19 l61 1 3 -96 3 -97 -86 -13 c-47
-7 -87 -10 -90 -7 -3 3 2 24 10 48 21 60 19 73 -14 93 -16 9 -32 17 -35 17 -3
0 -2 -22 1 -49 4 -39 1 -59 -17 -96 -18 -38 -20 -51 -11 -71 13 -29 25 -30 83
-5 42 19 240 63 345 76 l52 7 -6 -49 c-4 -37 -2 -52 10 -61 23 -20 34 9 52
135 15 107 15 108 -6 126 -12 9 -30 17 -40 17 -16 0 -18 -6 -12 -65 7 -75 14
-69 -104 -82 l-82 -8 6 95 c3 52 8 97 10 100 3 3 86 6 184 8 160 3 180 5 177
20 -2 9 -18 24 -36 35 -28 17 -40 18 -95 9 -34 -6 -102 -14 -151 -18 l-89 -7
7 66 c5 49 3 66 -6 70 -7 2 29 10 80 17 57 8 102 20 115 30 l21 17 -22 12
c-18 9 -52 5 -184 -23 -89 -19 -164 -34 -165 -32 -2 1 22 44 52 94 30 50 55
96 55 101 0 10 -52 51 -64 51 -4 0 -8 -6 -10 -12z"/>
</g>
</svg>
