<?xml version="1.0" standalone="no"?>
<!DOCTYPE svg PUBLIC "-//W3C//DTD SVG 20010904//EN"
 "http://www.w3.org/TR/2001/REC-SVG-20010904/DTD/svg10.dtd">
<svg version="1.0" xmlns="http://www.w3.org/2000/svg"
 width="96.000000pt" height="68.000000pt" viewBox="0 0 96.000000 68.000000"
 preserveAspectRatio="xMidYMid meet">
<metadata>
Created by potrace 1.16, written by Peter Selinger 2001-2019
</metadata>
<g transform="translate(0.000000,68.000000) scale(0.100000,-0.100000)"
fill="#000000" stroke="none">
<path d="M430 430 c-96 -10 -188 -19 -204 -19 l-30 -1 22 -20 c25 -24 26 -38
11 -112 -17 -78 -41 -128 -94 -192 -46 -56 -46 -58 -15 -40 79 46 132 140 160
285 11 57 11 57 53 63 23 3 112 11 197 16 150 11 170 14 157 26 -13 13 -92 11
-257 -6z"/>
</g>
</svg>
