<?xml version="1.0" standalone="no"?>
<!DOCTYPE svg PUBLIC "-//W3C//DTD SVG 20010904//EN"
 "http://www.w3.org/TR/2001/REC-SVG-20010904/DTD/svg10.dtd">
<svg version="1.0" xmlns="http://www.w3.org/2000/svg"
 width="96.000000pt" height="68.000000pt" viewBox="0 0 96.000000 68.000000"
 preserveAspectRatio="xMidYMid meet">
<metadata>
Created by potrace 1.16, written by Peter Selinger 2001-2019
</metadata>
<g transform="translate(0.000000,68.000000) scale(0.100000,-0.100000)"
fill="#000000" stroke="none">
<path d="M605 590 c-11 -5 -43 -9 -71 -9 l-51 -1 20 -60 c14 -43 23 -58 31
-50 5 5 28 10 51 10 57 0 85 10 85 29 0 9 9 27 20 41 13 18 16 28 8 37 -12 15
-63 16 -93 3z m35 -37 c0 -33 -17 -46 -62 -47 -40 -1 -43 1 -46 26 -3 22 1 27
25 31 65 10 83 7 83 -10z"/>
</g>
</svg>
