<?xml version="1.0" standalone="no"?>
<!DOCTYPE svg PUBLIC "-//W3C//DTD SVG 20010904//EN"
 "http://www.w3.org/TR/2001/REC-SVG-20010904/DTD/svg10.dtd">
<svg version="1.0" xmlns="http://www.w3.org/2000/svg"
 width="90.000000pt" height="92.000000pt" viewBox="0 0 90.000000 92.000000"
 preserveAspectRatio="xMidYMid meet">
<metadata>
Created by potrace 1.16, written by Peter Selinger 2001-2019
</metadata>
<g transform="translate(0.000000,92.000000) scale(0.100000,-0.100000)"
fill="#000000" stroke="none">
<path d="M156 777 c-8 -54 -59 -163 -92 -198 -22 -23 -24 -29 -13 -53 14 -30
12 -30 68 -10 24 8 46 13 48 10 7 -6 -73 -112 -97 -129 l-21 -15 23 -26 23
-26 80 39 c64 31 82 36 88 25 15 -26 37 -16 37 16 0 23 -7 35 -32 50 -35 21
-46 14 -29 -19 10 -18 7 -21 -31 -31 -24 -6 -49 -13 -57 -16 -22 -7 -6 21 75
132 75 102 76 105 60 129 -20 30 -46 33 -46 5 0 -12 -9 -39 -20 -60 -19 -38
-23 -40 -65 -40 -25 0 -45 2 -45 5 0 5 46 89 75 135 46 74 47 78 25 100 -32
32 -47 25 -54 -23z"/>
<path d="M500 815 c0 -3 13 -26 29 -52 17 -26 28 -50 25 -53 -3 -2 -35 -7 -72
-10 -54 -5 -69 -3 -79 9 -14 19 -13 20 -46 -50 -28 -58 -27 -92 2 -87 9 2 25
22 36 45 16 32 26 41 45 41 14 0 54 7 90 15 79 19 190 32 190 23 0 -4 -7 -21
-16 -37 -8 -17 -14 -33 -11 -35 5 -5 126 22 134 29 9 9 -17 46 -48 68 -30 21
-34 22 -98 9 -36 -7 -72 -15 -80 -18 -11 -4 -11 -1 -4 12 16 28 3 65 -28 81
-27 14 -69 20 -69 10z"/>
<path d="M410 563 c0 -26 -52 -130 -94 -187 -19 -28 -33 -52 -30 -55 2 -3 24
14 47 37 24 24 46 39 50 36 10 -11 9 -93 -4 -201 -9 -72 -9 -101 0 -120 9 -20
15 -23 24 -14 18 18 27 318 10 352 -11 23 -8 31 23 78 38 58 42 76 18 85 -28
11 -44 6 -44 -11z"/>
<path d="M595 537 c-60 -11 -112 -22 -115 -25 -14 -11 38 -33 68 -27 37 7 38
2 16 -56 -14 -34 -20 -40 -39 -35 -27 7 -38 -3 -24 -21 13 -15 13 -135 0 -180
-6 -20 -4 -40 6 -64 14 -32 15 -33 28 -15 11 15 31 20 89 24 l74 5 17 -34 18
-33 18 23 c22 27 21 17 23 180 1 120 0 124 -23 139 -21 14 -29 14 -86 -1 -88
-24 -94 -22 -55 18 26 27 31 37 21 48 -9 12 -5 15 26 21 21 3 58 6 83 6 25 0
52 5 60 10 13 9 12 12 -4 25 -25 19 -64 17 -201 -8z m135 -199 l0 -43 -52 0
c-29 0 -70 -4 -90 -8 l-38 -8 0 40 c0 37 3 41 33 50 17 5 58 10 90 10 l57 1 0
-42z m-2 -114 l-3 -46 -87 -4 -88 -4 0 38 0 39 68 10 c119 18 114 20 110 -33z"/>
<path d="M212 298 c8 -13 21 -33 29 -45 20 -32 39 -29 39 6 0 32 -30 61 -63
61 -18 0 -18 -2 -5 -22z"/>
<path d="M120 269 c0 -20 52 -90 63 -86 16 6 11 47 -9 68 -18 20 -54 32 -54
18z"/>
<path d="M10 237 c0 -18 63 -120 75 -121 12 -1 19 38 11 69 -3 13 -21 33 -40
44 -39 24 -46 26 -46 8z"/>
</g>
</svg>
