<?xml version="1.0" standalone="no"?>
<!DOCTYPE svg PUBLIC "-//W3C//DTD SVG 20010904//EN"
 "http://www.w3.org/TR/2001/REC-SVG-20010904/DTD/svg10.dtd">
<svg version="1.0" xmlns="http://www.w3.org/2000/svg"
 width="96.000000pt" height="68.000000pt" viewBox="0 0 96.000000 68.000000"
 preserveAspectRatio="xMidYMid meet">
<metadata>
Created by potrace 1.16, written by Peter Selinger 2001-2019
</metadata>
<g transform="translate(0.000000,68.000000) scale(0.100000,-0.100000)"
fill="#000000" stroke="none">
<path d="M688 293 c-10 -2 -18 -8 -18 -13 0 -4 8 -6 19 -3 34 9 50 -21 44 -84
-6 -79 -9 -86 -33 -78 -18 6 -18 4 5 -21 20 -22 27 -25 40 -14 21 18 19 35 -2
19 -17 -13 -17 -13 -1 7 13 15 17 37 16 86 0 36 3 71 7 79 5 8 5 11 0 7 -4 -4
-14 -1 -22 7 -15 15 -24 16 -55 8z"/>
<path d="M598 273 c7 -3 16 -2 19 1 4 3 -2 6 -13 5 -11 0 -14 -3 -6 -6z"/>
<path d="M535 260 c-3 -6 -3 -20 1 -33 9 -25 7 -75 -3 -91 -22 -34 1 -63 31
-40 12 8 15 14 7 14 -10 0 -12 12 -9 45 3 25 2 45 -3 45 -13 0 -3 51 12 61 11
7 9 9 -8 9 -12 0 -25 -5 -28 -10z"/>
<path d="M616 191 c-3 -4 6 -6 19 -3 14 2 25 6 25 8 0 8 -39 4 -44 -5z"/>
<path d="M650 109 c0 -5 5 -7 10 -4 6 3 10 8 10 11 0 2 -4 4 -10 4 -5 0 -10
-5 -10 -11z"/>
</g>
</svg>
