<?xml version="1.0" standalone="no"?>
<!DOCTYPE svg PUBLIC "-//W3C//DTD SVG 20010904//EN"
 "http://www.w3.org/TR/2001/REC-SVG-20010904/DTD/svg10.dtd">
<svg version="1.0" xmlns="http://www.w3.org/2000/svg"
 width="96.000000pt" height="68.000000pt" viewBox="0 0 96.000000 68.000000"
 preserveAspectRatio="xMidYMid meet">
<metadata>
Created by potrace 1.16, written by Peter Selinger 2001-2019
</metadata>
<g transform="translate(0.000000,68.000000) scale(0.100000,-0.100000)"
fill="#000000" stroke="none">
<path d="M543 403 c2 -37 1 -38 -33 -41 -68 -5 -101 -13 -94 -23 4 -6 32 -9
68 -7 61 3 61 3 64 -26 2 -16 0 -32 -5 -37 -4 -4 -54 -11 -111 -15 -92 -6
-102 -9 -88 -22 17 -17 62 -18 141 -3 27 5 53 7 57 5 5 -3 8 -47 8 -99 0 -52
4 -96 9 -100 13 -8 29 48 37 131 l6 72 37 6 c20 3 76 6 125 6 81 0 87 1 75 16
-12 14 -30 16 -126 11 l-113 -5 0 33 0 33 68 7 c37 4 73 11 81 15 23 13 -44
23 -100 15 l-49 -7 2 34 c3 31 1 33 -29 36 -32 3 -32 2 -30 -35z"/>
</g>
</svg>
