<?xml version="1.0" standalone="no"?>
<!DOCTYPE svg PUBLIC "-//W3C//DTD SVG 20010904//EN"
 "http://www.w3.org/TR/2001/REC-SVG-20010904/DTD/svg10.dtd">
<svg version="1.0" xmlns="http://www.w3.org/2000/svg"
 width="90.000000pt" height="92.000000pt" viewBox="0 0 90.000000 92.000000"
 preserveAspectRatio="xMidYMid meet">
<metadata>
Created by potrace 1.16, written by Peter Selinger 2001-2019
</metadata>
<g transform="translate(0.000000,92.000000) scale(0.100000,-0.100000)"
fill="#000000" stroke="none">
<path d="M257 815 c7 -72 9 -69 -71 -80 -65 -9 -45 -31 25 -28 l49 2 0 -73 c0
-64 -3 -78 -28 -112 -39 -53 -115 -122 -181 -164 -30 -19 -49 -36 -42 -38 19
-6 136 54 180 93 35 32 41 34 41 18 0 -32 -77 -113 -108 -113 -20 0 -23 -3
-14 -12 9 -9 7 -17 -10 -35 -25 -27 -13 -30 21 -7 22 15 26 15 72 -6 27 -13
49 -27 49 -30 0 -13 -98 -99 -150 -131 -28 -17 -49 -34 -46 -37 11 -10 151 67
194 107 31 28 49 38 61 33 9 -4 85 -44 167 -89 83 -45 161 -84 175 -88 16 -4
62 6 125 25 101 32 135 50 98 50 -61 0 -248 24 -310 40 -67 17 -200 68 -233
89 -11 7 -10 15 9 42 13 19 35 47 49 62 l26 29 -25 20 c-24 19 -38 20 -100 3
l-25 -7 23 21 c26 23 22 38 -14 51 -24 9 -24 11 -8 35 9 14 19 25 23 25 4 0
25 -18 46 -41 22 -22 52 -47 68 -55 24 -13 28 -13 33 1 11 28 -13 61 -60 83
-25 12 -50 22 -56 22 -17 0 -28 43 -19 68 5 13 9 47 9 77 l0 53 45 6 c24 4 47
11 50 16 9 15 -32 30 -64 24 -28 -6 -31 -4 -31 20 0 15 5 36 10 46 8 15 5 22
-12 34 -41 29 -48 22 -41 -49z m63 -462 c0 -9 -50 -93 -55 -93 -3 0 -24 10
-49 21 l-44 22 27 23 c15 12 43 24 62 27 18 2 40 5 47 5 6 1 12 -1 12 -5z"/>
<path d="M578 832 c-7 -46 -53 -164 -85 -215 -14 -22 -23 -41 -21 -43 3 -2 22
14 43 36 29 30 47 40 71 40 17 0 55 5 85 10 82 16 84 12 83 -183 -1 -94 -6
-180 -13 -206 l-12 -43 -45 7 -45 6 37 -50 c21 -28 44 -51 51 -51 7 0 24 17
38 38 30 46 42 136 48 354 l3 147 -31 17 c-29 16 -35 15 -115 -5 -46 -11 -88
-21 -92 -21 -5 0 10 37 33 82 l41 82 -22 18 c-33 27 -47 22 -52 -20z"/>
<path d="M370 686 c0 -7 -13 -39 -28 -70 -32 -62 -28 -68 16 -31 l30 25 16
-25 c21 -31 49 -34 44 -4 -2 18 -16 31 -46 46 -2 0 3 11 10 23 11 18 11 23 -6
36 -25 18 -36 18 -36 0z"/>
<path d="M141 648 c-7 -22 -33 -62 -58 -89 -54 -58 -35 -69 25 -14 l39 34 28
-29 c30 -31 45 -31 45 1 0 13 -11 25 -30 33 l-30 12 25 24 c32 30 31 36 -4 54
l-28 15 -12 -41z"/>
<path d="M538 517 c4 -82 4 -84 -19 -90 -13 -4 -37 -7 -52 -7 -19 0 -27 -4
-24 -12 2 -8 22 -13 50 -12 l46 0 3 -100 c2 -82 6 -101 18 -101 12 0 16 21 20
105 l5 105 54 8 c30 4 57 10 60 13 14 13 -29 24 -73 19 l-49 -6 5 64 c6 71 3
81 -28 91 -20 6 -20 3 -16 -77z"/>
<path d="M650 567 c0 -7 -9 -30 -20 -52 -11 -21 -19 -40 -17 -41 5 -6 97 56
97 65 0 11 -39 41 -52 41 -5 0 -8 -6 -8 -13z"/>
<path d="M450 523 c0 -15 52 -73 61 -68 19 12 9 52 -16 63 -29 13 -45 15 -45
5z"/>
<path d="M643 324 c46 -48 67 -51 67 -9 0 17 -9 27 -40 39 -69 28 -76 20 -27
-30z"/>
<path d="M460 346 c0 -7 -16 -34 -35 -60 -20 -25 -33 -46 -30 -46 16 0 63 31
89 59 24 25 27 33 16 46 -15 19 -40 20 -40 1z"/>
</g>
</svg>
