<?xml version="1.0" standalone="no"?>
<!DOCTYPE svg PUBLIC "-//W3C//DTD SVG 20010904//EN"
 "http://www.w3.org/TR/2001/REC-SVG-20010904/DTD/svg10.dtd">
<svg version="1.0" xmlns="http://www.w3.org/2000/svg"
 width="96.000000pt" height="68.000000pt" viewBox="0 0 96.000000 68.000000"
 preserveAspectRatio="xMidYMid meet">
<metadata>
Created by potrace 1.16, written by Peter Selinger 2001-2019
</metadata>
<g transform="translate(0.000000,68.000000) scale(0.100000,-0.100000)"
fill="#000000" stroke="none">
<path d="M584 554 c-9 -30 -29 -72 -44 -92 -51 -72 -51 -79 2 -33 28 24 44 29
111 34 68 5 78 3 87 -13 14 -27 11 -218 -4 -260 -12 -33 -16 -35 -52 -32 l-39
3 37 -37 c42 -42 59 -41 84 8 13 24 20 70 25 168 4 74 10 142 14 151 4 12 -3
21 -29 33 -32 15 -39 15 -105 -1 -39 -9 -73 -14 -76 -11 -3 3 8 27 24 54 35
54 38 69 15 78 -28 11 -32 7 -50 -50z"/>
</g>
</svg>
