<?xml version="1.0" standalone="no"?>
<!DOCTYPE svg PUBLIC "-//W3C//DTD SVG 20010904//EN"
 "http://www.w3.org/TR/2001/REC-SVG-20010904/DTD/svg10.dtd">
<svg version="1.0" xmlns="http://www.w3.org/2000/svg"
 width="90.000000pt" height="92.000000pt" viewBox="0 0 90.000000 92.000000"
 preserveAspectRatio="xMidYMid meet">
<metadata>
Created by potrace 1.16, written by Peter Selinger 2001-2019
</metadata>
<g transform="translate(0.000000,92.000000) scale(0.100000,-0.100000)"
fill="#000000" stroke="none">
<path d="M566 807 c-11 -23 -39 -63 -63 -88 -47 -50 -54 -66 -23 -49 18 10 27
5 69 -40 54 -57 57 -49 -43 -119 -33 -22 -53 -41 -45 -41 28 0 115 48 161 89
52 46 168 185 168 201 0 5 -13 16 -29 25 -26 13 -35 13 -78 0 -70 -22 -81 -19
-52 11 24 25 24 26 5 40 -32 23 -50 16 -70 -29z m144 -66 c0 -4 -17 -34 -37
-65 -35 -53 -53 -69 -53 -46 0 16 -62 50 -90 50 -24 1 -24 1 10 30 24 20 49
30 80 33 25 2 55 4 68 5 12 1 22 -2 22 -7z"/>
<path d="M335 779 c-65 -20 -181 -36 -203 -27 -32 11 -47 0 -28 -21 9 -9 20
-53 27 -97 13 -97 28 -139 42 -125 6 6 26 11 45 11 32 0 33 -2 30 -32 l-3 -33
-85 -13 c-47 -7 -103 -16 -125 -20 l-40 -8 29 -19 c27 -18 31 -18 109 -2 44 9
82 15 85 13 12 -13 -75 -107 -154 -167 -36 -27 -58 -49 -49 -49 32 0 110 45
166 98 68 62 67 64 48 -75 -9 -64 -9 -88 1 -112 7 -17 16 -31 20 -31 19 0 30
71 31 189 l0 126 22 -29 c54 -73 85 -101 98 -89 9 9 9 22 3 44 -7 25 -22 39
-66 63 -32 17 -56 36 -55 41 2 6 36 15 75 20 80 11 93 18 62 35 -20 10 -72 8
-122 -6 -15 -4 -18 1 -18 29 0 31 3 35 31 41 19 4 38 1 47 -6 18 -16 38 9 53
67 6 22 19 67 30 100 l20 60 -22 18 c-23 18 -57 21 -104 6z m47 -76 c-4 -38
-4 -38 -43 -35 -33 4 -39 8 -39 28 0 12 -8 27 -17 33 -16 8 -15 10 7 15 84 18
97 12 92 -41z m-146 2 c3 -14 4 -32 0 -40 -7 -20 -62 -20 -70 1 -11 29 -6 52
12 57 39 10 52 6 58 -18z m136 -90 c-3 -24 -9 -35 -21 -35 -9 0 -26 -3 -38 -6
-20 -6 -23 -3 -23 25 0 25 5 32 28 37 15 3 32 7 37 9 20 7 21 5 17 -30z m-122
-25 c0 -28 -15 -40 -51 -40 -11 0 -19 7 -19 18 0 9 -3 26 -6 37 -5 19 -1 20
35 17 37 -4 41 -7 41 -32z"/>
<path d="M637 532 c-2 -4 -7 -20 -11 -35 -4 -16 -44 -67 -93 -118 -47 -49 -83
-89 -79 -89 11 0 89 51 116 75 31 29 170 48 170 24 0 -15 -61 -110 -91 -142
-17 -18 -17 -18 -24 3 -6 20 -73 59 -102 60 -7 0 7 -26 31 -58 l44 -57 -21
-23 c-12 -13 -54 -45 -93 -70 -120 -79 -114 -74 -74 -67 51 8 173 81 234 141
30 29 75 81 101 116 26 35 59 73 73 85 30 26 25 46 -18 68 -29 15 -36 15 -78
1 -25 -9 -55 -16 -66 -16 -18 1 -17 4 13 32 26 23 32 34 25 46 -11 17 -51 34
-57 24z"/>
</g>
</svg>
