<?xml version="1.0" standalone="no"?>
<!DOCTYPE svg PUBLIC "-//W3C//DTD SVG 20010904//EN"
 "http://www.w3.org/TR/2001/REC-SVG-20010904/DTD/svg10.dtd">
<svg version="1.0" xmlns="http://www.w3.org/2000/svg"
 width="96.000000pt" height="68.000000pt" viewBox="0 0 96.000000 68.000000"
 preserveAspectRatio="xMidYMid meet">
<metadata>
Created by potrace 1.16, written by Peter Selinger 2001-2019
</metadata>
<g transform="translate(0.000000,68.000000) scale(0.100000,-0.100000)"
fill="#000000" stroke="none">
<path d="M665 349 c-8 -23 -41 -59 -91 -97 l-29 -23 33 18 c18 10 42 26 53 36
10 10 19 13 19 7 0 -5 5 -10 11 -10 5 0 7 5 3 12 -4 6 4 21 21 34 27 21 27 22
7 33 -17 9 -22 8 -27 -10z"/>
<path d="M745 300 c-3 -5 0 -10 8 -10 8 0 17 -9 20 -20 3 -11 2 -18 -3 -15
-11 7 -33 -22 -26 -34 3 -5 0 -11 -6 -14 -7 -2 -10 -7 -7 -11 3 -3 27 15 53
41 44 43 46 48 30 60 -21 15 -60 17 -69 3z m65 -14 c0 -2 -7 -6 -15 -10 -8 -3
-15 -1 -15 4 0 6 7 10 15 10 8 0 15 -2 15 -4z"/>
<path d="M710 290 c-13 -8 -12 -10 3 -10 9 0 17 5 17 10 0 12 -1 12 -20 0z"/>
<path d="M686 168 c-17 -15 -27 -30 -24 -34 7 -7 68 36 68 47 0 18 -17 13 -44
-13z"/>
<path d="M631 126 c-13 -16 -2 -29 16 -18 7 4 8 13 4 20 -6 10 -10 10 -20 -2z"/>
<path d="M585 91 c-10 -17 12 -21 25 -6 10 12 10 15 -3 15 -9 0 -18 -4 -22 -9z"/>
<path d="M530 60 c-12 -7 -10 -9 7 -7 12 0 19 5 17 9 -6 10 -6 10 -24 -2z"/>
</g>
</svg>
