<?xml version="1.0" standalone="no"?>
<!DOCTYPE svg PUBLIC "-//W3C//DTD SVG 20010904//EN"
 "http://www.w3.org/TR/2001/REC-SVG-20010904/DTD/svg10.dtd">
<svg version="1.0" xmlns="http://www.w3.org/2000/svg"
 width="96.000000pt" height="68.000000pt" viewBox="0 0 96.000000 68.000000"
 preserveAspectRatio="xMidYMid meet">
<metadata>
Created by potrace 1.16, written by Peter Selinger 2001-2019
</metadata>
<g transform="translate(0.000000,68.000000) scale(0.100000,-0.100000)"
fill="#000000" stroke="none">
<path d="M700 153 c0 -11 69 -97 85 -106 23 -12 30 31 8 55 -20 23 -93 62 -93
51z"/>
<path d="M326 118 c-21 -32 -26 -79 -9 -85 20 -7 48 62 36 89 l-10 22 -17 -26z"/>
<path d="M566 128 c24 -41 47 -67 55 -63 15 10 10 41 -9 58 -22 20 -57 23 -46
5z"/>
<path d="M450 120 c0 -20 24 -60 37 -60 16 0 17 42 1 58 -14 14 -38 16 -38 2z"/>
</g>
</svg>
