<?xml version="1.0" standalone="no"?>
<!DOCTYPE svg PUBLIC "-//W3C//DTD SVG 20010904//EN"
 "http://www.w3.org/TR/2001/REC-SVG-20010904/DTD/svg10.dtd">
<svg version="1.0" xmlns="http://www.w3.org/2000/svg"
 width="90.000000pt" height="92.000000pt" viewBox="0 0 90.000000 92.000000"
 preserveAspectRatio="xMidYMid meet">
<metadata>
Created by potrace 1.16, written by Peter Selinger 2001-2019
</metadata>
<g transform="translate(0.000000,92.000000) scale(0.100000,-0.100000)"
fill="#000000" stroke="none">
<path d="M530 806 c0 -8 15 -34 34 -59 l34 -44 -87 -12 c-109 -16 -131 -21
-131 -31 0 -18 58 -28 104 -18 26 5 50 7 53 4 12 -12 -45 -105 -94 -153 -48
-47 -52 -55 -42 -74 12 -23 11 -23 112 6 32 9 63 15 68 13 17 -6 -101 -126
-172 -174 -63 -43 -69 -49 -46 -52 59 -7 177 79 268 196 29 37 66 81 82 98 32
35 31 60 -3 82 -18 11 -21 9 -35 -24 -31 -74 -50 -91 -112 -99 -32 -3 -69 -9
-82 -12 -34 -8 -26 5 57 91 73 77 81 89 61 102 -22 13 14 22 110 29 120 8 128
10 110 31 -27 32 -47 34 -156 9 -18 -4 -23 -1 -23 15 0 35 -17 57 -60 74 -49
20 -50 20 -50 2z"/>
<path d="M225 744 c-38 -13 -81 -23 -95 -24 -34 -1 -70 -11 -70 -20 0 -4 11
-12 24 -18 19 -8 35 -7 73 7 66 26 113 35 113 23 0 -6 -14 -35 -31 -65 -24
-42 -36 -53 -50 -50 -23 6 -23 5 -4 -40 8 -20 15 -53 15 -74 l0 -38 -83 -32
c-45 -17 -90 -34 -99 -37 -10 -3 -18 -10 -18 -15 0 -11 48 -51 61 -51 5 0 37
18 71 41 l63 40 3 -49 c2 -27 -1 -71 -6 -98 -8 -52 -12 -54 -69 -40 -25 7 -25
5 18 -45 25 -29 51 -55 57 -57 25 -8 45 71 50 199 l5 126 63 38 c35 20 67 41
70 46 10 17 -27 9 -77 -17 -28 -14 -52 -24 -53 -22 -1 2 -7 28 -13 58 l-12 55
37 33 c20 18 54 44 74 58 44 28 42 47 -11 73 -35 17 -38 17 -106 -5z"/>
<path d="M704 385 c-24 -50 -161 -184 -235 -228 l-64 -39 48 5 c46 4 97 33
180 99 l28 23 59 -63 c68 -72 90 -79 90 -28 0 40 -36 73 -103 97 l-37 13 52
53 c48 48 51 54 40 78 -16 35 -38 31 -58 -10z"/>
</g>
</svg>
