<?xml version="1.0" standalone="no"?>
<!DOCTYPE svg PUBLIC "-//W3C//DTD SVG 20010904//EN"
 "http://www.w3.org/TR/2001/REC-SVG-20010904/DTD/svg10.dtd">
<svg version="1.0" xmlns="http://www.w3.org/2000/svg"
 width="96.000000pt" height="68.000000pt" viewBox="0 0 96.000000 68.000000"
 preserveAspectRatio="xMidYMid meet">
<metadata>
Created by potrace 1.16, written by Peter Selinger 2001-2019
</metadata>
<g transform="translate(0.000000,68.000000) scale(0.100000,-0.100000)"
fill="#000000" stroke="none">
<path d="M567 386 l6 -64 -87 -7 c-47 -4 -86 -11 -86 -15 0 -14 51 -21 111
-14 l59 7 0 -61 0 -60 -67 -9 c-63 -9 -66 -10 -42 -21 26 -10 122 -5 294 17
l60 8 -35 15 c-27 12 -47 14 -85 8 -79 -14 -75 -16 -75 49 l0 59 115 7 c63 4
115 11 115 15 0 4 -12 12 -26 19 -20 9 -46 9 -111 0 -46 -6 -87 -8 -90 -5 -4
3 -1 27 4 53 6 26 9 51 7 55 -3 5 -20 8 -38 8 l-34 0 5 -64z"/>
</g>
</svg>
