<?xml version="1.0" standalone="no"?>
<!DOCTYPE svg PUBLIC "-//W3C//DTD SVG 20010904//EN"
 "http://www.w3.org/TR/2001/REC-SVG-20010904/DTD/svg10.dtd">
<svg version="1.0" xmlns="http://www.w3.org/2000/svg"
 width="90.000000pt" height="92.000000pt" viewBox="0 0 90.000000 92.000000"
 preserveAspectRatio="xMidYMid meet">
<metadata>
Created by potrace 1.16, written by Peter Selinger 2001-2019
</metadata>
<g transform="translate(0.000000,92.000000) scale(0.100000,-0.100000)"
fill="#000000" stroke="none">
<path d="M554 818 c3 -13 9 -42 12 -64 l6 -42 -61 -7 c-53 -6 -60 -9 -49 -22
9 -11 25 -14 60 -11 l48 5 0 -32 c0 -39 -12 -45 -86 -45 -49 0 -68 -10 -45
-25 5 -3 15 -38 21 -79 16 -95 17 -97 63 -87 37 9 37 9 37 -24 l0 -33 -65 -7
c-36 -4 -65 -11 -65 -16 0 -13 45 -22 86 -17 l36 4 -7 -44 c-6 -44 8 -102 26
-102 17 0 29 40 29 93 0 64 4 67 117 67 79 0 97 11 58 36 -21 14 -34 15 -88 5
-87 -15 -87 -15 -87 20 l0 31 58 -4 57 -3 28 80 c16 44 31 88 34 97 3 11 -5
22 -27 33 -31 16 -47 16 -115 -1 -25 -6 -26 -5 -23 27 3 31 5 33 60 44 32 6
61 15 65 19 12 11 -29 37 -47 31 -8 -4 -28 -9 -43 -12 -27 -6 -29 -4 -27 28 3
52 2 55 -25 67 -38 18 -48 15 -41 -10z m156 -247 c0 -28 -1 -28 -55 -29 -51 0
-55 1 -55 23 0 25 14 31 78 34 29 1 32 -2 32 -28z m-140 -15 c0 -25 -16 -36
-56 -36 -18 0 -24 5 -24 23 0 31 7 37 47 37 28 0 33 -3 33 -24z m130 -48 c-1
-45 -11 -55 -56 -54 -42 1 -45 3 -42 26 3 21 10 26 43 31 22 3 43 7 48 8 4 0
7 -5 7 -11z m-130 -34 c0 -13 -6 -24 -12 -24 -7 0 -23 -3 -35 -6 -20 -6 -23
-3 -23 22 0 26 4 29 35 31 31 1 35 -1 35 -23z"/>
<path d="M156 802 c-3 -5 16 -30 41 -56 55 -55 88 -60 88 -11 0 24 -6 33 -35
46 -46 22 -88 31 -94 21z"/>
<path d="M200 625 c-22 -12 -62 -23 -147 -41 -30 -6 -29 -18 2 -32 22 -10 35
-8 85 13 33 14 64 25 71 25 22 0 -99 -186 -175 -268 -21 -23 -37 -45 -34 -47
7 -8 125 82 132 100 24 63 37 -91 15 -179 -9 -35 -8 -50 5 -81 28 -66 40 -32
43 116 1 72 4 134 8 137 3 3 18 -7 33 -21 35 -33 52 -34 52 -3 0 18 -9 27 -37
38 l-38 14 30 17 c58 32 60 34 46 51 -20 24 -37 19 -51 -14 -16 -40 -37 -57
-52 -42 -15 15 12 66 70 132 23 26 42 53 42 59 0 13 -40 41 -60 41 -8 -1 -26
-7 -40 -15z"/>
<path d="M340 579 c23 -44 53 -50 58 -12 2 16 -5 26 -27 37 -47 25 -53 19 -31
-25z"/>
<path d="M331 435 c-34 -17 -40 -23 -26 -28 9 -4 27 -4 41 -1 13 3 24 5 24 3
0 -2 -4 -20 -10 -39 -8 -28 -6 -44 12 -87 12 -29 19 -55 16 -58 -3 -3 -31 -7
-62 -9 -66 -3 -72 -7 -47 -30 17 -15 25 -16 55 -6 43 14 60 9 238 -66 l126
-54 46 15 c26 9 68 26 94 38 l47 22 -55 2 c-131 7 -260 25 -340 49 l-86 26 4
35 c3 25 -1 40 -18 58 l-22 24 38 52 c36 49 37 52 19 65 -24 18 -40 16 -94
-11z"/>
</g>
</svg>
