<?xml version="1.0" standalone="no"?>
<!DOCTYPE svg PUBLIC "-//W3C//DTD SVG 20010904//EN"
 "http://www.w3.org/TR/2001/REC-SVG-20010904/DTD/svg10.dtd">
<svg version="1.0" xmlns="http://www.w3.org/2000/svg"
 width="96.000000pt" height="68.000000pt" viewBox="0 0 96.000000 68.000000"
 preserveAspectRatio="xMidYMid meet">
<metadata>
Created by potrace 1.16, written by Peter Selinger 2001-2019
</metadata>
<g transform="translate(0.000000,68.000000) scale(0.100000,-0.100000)"
fill="#000000" stroke="none">
<path d="M226 561 c-3 -5 -2 -21 4 -36 5 -14 10 -39 10 -54 0 -33 -18 -41 -89
-41 -43 0 -43 -1 -27 -19 9 -10 22 -41 29 -67 12 -49 13 -49 50 -46 l37 3 0
-44 c0 -52 -8 -57 -82 -57 -55 0 -61 -14 -17 -39 22 -12 30 -12 59 2 19 9 66
28 104 42 62 23 71 24 86 10 9 -8 22 -15 28 -15 22 0 12 38 -14 59 -31 25 -56
28 -48 6 4 -10 -3 -18 -21 -25 -40 -15 -45 -13 -45 24 0 35 15 46 67 46 16 0
23 8 28 30 4 16 11 32 16 35 5 4 14 15 19 26 9 16 6 22 -21 38 -22 13 -42 18
-65 14 -38 -6 -40 0 -25 54 7 22 6 35 -2 41 -19 15 -74 24 -81 13z m112 -178
c-2 -31 -7 -39 -25 -41 -19 -3 -23 1 -23 21 0 39 10 57 32 57 16 0 19 -6 16
-37z m-98 -13 c0 -33 -3 -40 -19 -40 -22 0 -26 4 -35 42 -5 23 -3 27 21 31 16
2 29 5 31 6 1 0 2 -17 2 -39z"/>
<path d="M645 554 c-38 -7 -92 -16 -118 -19 -36 -5 -46 -9 -38 -19 13 -16 -2
-82 -25 -107 -23 -25 -26 -49 -9 -55 7 -3 37 2 66 10 59 18 109 21 109 6 0
-21 -125 -141 -197 -189 -88 -58 -82 -66 16 -19 41 19 92 56 135 97 l69 66 -6
-104 c-3 -57 -10 -108 -16 -114 -7 -7 -18 -7 -37 2 -39 18 -39 8 2 -33 46 -46
67 -46 89 0 14 31 16 55 10 175 l-8 139 77 0 c78 0 98 12 51 30 -15 6 -43 6
-70 1 -25 -5 -48 -5 -51 0 -2 4 -3 30 -2 58 3 49 3 49 41 54 46 6 57 15 37 27
-18 12 -35 11 -125 -6z m-4 -89 c7 -57 4 -61 -59 -70 -24 -4 -51 -9 -58 -12
-20 -7 -17 21 6 64 14 26 16 40 9 49 -12 14 16 23 66 20 28 -1 30 -4 36 -51z"/>
</g>
</svg>
