<?xml version="1.0" standalone="no"?>
<!DOCTYPE svg PUBLIC "-//W3C//DTD SVG 20010904//EN"
 "http://www.w3.org/TR/2001/REC-SVG-20010904/DTD/svg10.dtd">
<svg version="1.0" xmlns="http://www.w3.org/2000/svg"
 width="96.000000pt" height="68.000000pt" viewBox="0 0 96.000000 68.000000"
 preserveAspectRatio="xMidYMid meet">
<metadata>
Created by potrace 1.16, written by Peter Selinger 2001-2019
</metadata>
<g transform="translate(0.000000,68.000000) scale(0.100000,-0.100000)"
fill="#000000" stroke="none">
<path d="M593 437 c-70 -13 -69 -30 1 -22 63 8 69 0 55 -66 -13 -56 -20 -62
-53 -49 l-27 10 27 -35 c14 -19 32 -35 40 -35 19 0 43 40 58 97 7 26 16 57 20
69 5 16 0 23 -19 32 -29 13 -29 13 -102 -1z"/>
</g>
</svg>
