<?xml version="1.0" standalone="no"?>
<!DOCTYPE svg PUBLIC "-//W3C//DTD SVG 20010904//EN"
 "http://www.w3.org/TR/2001/REC-SVG-20010904/DTD/svg10.dtd">
<svg version="1.0" xmlns="http://www.w3.org/2000/svg"
 width="96.000000pt" height="68.000000pt" viewBox="0 0 96.000000 68.000000"
 preserveAspectRatio="xMidYMid meet">
<metadata>
Created by potrace 1.16, written by Peter Selinger 2001-2019
</metadata>
<g transform="translate(0.000000,68.000000) scale(0.100000,-0.100000)"
fill="#000000" stroke="none">
<path d="M300 560 c-14 -4 -44 -8 -68 -9 -42 -1 -43 -2 -38 -28 3 -16 8 -54
12 -85 l6 -57 76 4 c70 3 77 5 83 26 4 13 15 49 24 79 16 51 16 55 -1 67 -20
14 -55 15 -94 3z m50 -40 c0 -25 -4 -30 -24 -30 -13 0 -38 -3 -55 -6 -28 -6
-31 -4 -31 19 0 22 6 27 43 35 65 15 67 15 67 -18z m-9 -77 c-6 -24 -14 -29
-49 -34 -48 -6 -52 -4 -52 27 0 23 -1 23 92 32 13 2 15 -3 9 -25z"/>
</g>
</svg>
