<?xml version="1.0" standalone="no"?>
<!DOCTYPE svg PUBLIC "-//W3C//DTD SVG 20010904//EN"
 "http://www.w3.org/TR/2001/REC-SVG-20010904/DTD/svg10.dtd">
<svg version="1.0" xmlns="http://www.w3.org/2000/svg"
 width="96.000000pt" height="68.000000pt" viewBox="0 0 96.000000 68.000000"
 preserveAspectRatio="xMidYMid meet">
<metadata>
Created by potrace 1.16, written by Peter Selinger 2001-2019
</metadata>
<g transform="translate(0.000000,68.000000) scale(0.100000,-0.100000)"
fill="#000000" stroke="none">
<path d="M605 393 c15 -57 17 -56 -103 -74 -62 -9 -116 -19 -119 -23 -13 -12
31 -18 85 -12 31 4 78 10 105 13 l47 6 0 -89 c0 -111 -5 -120 -54 -104 -21 7
-39 10 -42 7 -6 -5 83 -87 95 -87 5 0 19 12 31 28 21 25 22 34 17 139 l-5 111
84 7 c46 4 84 11 84 15 0 16 -64 30 -114 24 l-51 -6 0 33 c0 31 -3 34 -34 37
-32 3 -33 2 -26 -25z"/>
</g>
</svg>
