<?xml version="1.0" standalone="no"?>
<!DOCTYPE svg PUBLIC "-//W3C//DTD SVG 20010904//EN"
 "http://www.w3.org/TR/2001/REC-SVG-20010904/DTD/svg10.dtd">
<svg version="1.0" xmlns="http://www.w3.org/2000/svg"
 width="96.000000pt" height="68.000000pt" viewBox="0 0 96.000000 68.000000"
 preserveAspectRatio="xMidYMid meet">
<metadata>
Created by potrace 1.16, written by Peter Selinger 2001-2019
</metadata>
<g transform="translate(0.000000,68.000000) scale(0.100000,-0.100000)"
fill="#000000" stroke="none">
<path d="M580 223 c-39 -7 -51 -25 -15 -23 57 4 58 3 51 -41 -4 -22 -14 -52
-23 -66 -14 -21 -21 -24 -52 -18 l-36 6 32 -32 c30 -30 34 -32 57 -19 27 14
28 15 62 110 22 60 22 66 7 78 -17 12 -36 13 -83 5z"/>
</g>
</svg>
