<?xml version="1.0" standalone="no"?>
<!DOCTYPE svg PUBLIC "-//W3C//DTD SVG 20010904//EN"
 "http://www.w3.org/TR/2001/REC-SVG-20010904/DTD/svg10.dtd">
<svg version="1.0" xmlns="http://www.w3.org/2000/svg"
 width="90.000000pt" height="92.000000pt" viewBox="0 0 90.000000 92.000000"
 preserveAspectRatio="xMidYMid meet">
<metadata>
Created by potrace 1.16, written by Peter Selinger 2001-2019
</metadata>
<g transform="translate(0.000000,92.000000) scale(0.100000,-0.100000)"
fill="#000000" stroke="none">
<path d="M490 841 c0 -7 5 -22 11 -33 11 -20 42 -189 36 -195 -2 -1 -39 -8
-83 -14 -91 -14 -109 -24 -69 -39 26 -10 60 -9 136 6 25 5 27 2 34 -43 4 -26
17 -83 30 -127 27 -92 28 -87 -50 -149 -55 -44 -35 -44 44 -1 24 13 45 24 47
24 2 0 13 -18 24 -40 30 -59 129 -156 167 -164 47 -11 54 -2 47 57 -3 29 -7
66 -9 82 -1 17 -4 37 -5 45 -1 8 -9 -7 -19 -35 -12 -34 -24 -51 -37 -53 -23
-3 -70 44 -106 106 l-26 44 53 76 c28 43 50 83 47 90 -5 15 -60 45 -71 38 -4
-3 -6 -18 -3 -34 5 -37 -36 -123 -48 -101 -9 15 -34 112 -43 165 -6 30 -4 32
31 39 20 4 52 13 71 21 28 12 31 16 21 29 -15 18 -45 19 -90 4 -44 -16 -51 -3
-49 99 1 46 -3 88 -8 93 -16 16 -83 24 -83 10z"/>
<path d="M216 808 c-3 -7 -10 -31 -16 -53 -16 -53 -54 -119 -97 -166 -30 -34
-33 -40 -21 -59 7 -11 20 -19 28 -16 8 2 36 11 63 19 26 8 47 13 47 10 0 -11
-95 -136 -111 -146 -22 -14 -24 -27 -6 -51 13 -17 18 -16 97 22 79 39 85 40
102 25 14 -13 21 -14 30 -5 20 20 -3 64 -41 79 -33 14 -33 14 -27 -12 6 -23 2
-27 -40 -46 -26 -11 -51 -18 -57 -16 -5 1 32 55 82 119 50 65 91 123 91 130
-1 16 -24 48 -36 48 -5 0 -17 -23 -27 -50 -12 -33 -26 -54 -40 -59 -38 -14
-97 -22 -97 -13 0 5 32 51 70 102 39 51 70 96 70 100 0 7 -27 32 -48 44 -7 4
-14 1 -16 -6z"/>
<path d="M630 751 c0 -18 63 -62 84 -59 27 4 33 38 10 55 -20 15 -94 18 -94 4z"/>
<path d="M400 522 c0 -4 5 -13 11 -19 5 -5 9 -32 7 -59 -3 -45 -5 -49 -32 -54
-41 -7 -46 -30 -7 -30 23 0 31 -5 31 -17 -1 -25 -37 -102 -67 -141 l-25 -34
31 16 c37 20 80 81 101 145 10 31 21 47 35 50 11 2 31 8 45 13 20 7 22 11 10
18 -8 6 -28 10 -44 10 -28 0 -29 1 -23 46 4 41 2 46 -20 55 -30 11 -53 12 -53
1z"/>
<path d="M250 332 c0 -18 46 -77 60 -77 22 0 24 39 3 57 -22 19 -63 33 -63 20z"/>
<path d="M164 272 c21 -41 54 -68 68 -54 19 19 1 59 -33 71 -47 16 -51 14 -35
-17z"/>
<path d="M20 261 c0 -21 67 -126 80 -126 26 0 25 70 -1 94 -24 22 -79 45 -79
32z"/>
</g>
</svg>
