<?xml version="1.0" standalone="no"?>
<!DOCTYPE svg PUBLIC "-//W3C//DTD SVG 20010904//EN"
 "http://www.w3.org/TR/2001/REC-SVG-20010904/DTD/svg10.dtd">
<svg version="1.0" xmlns="http://www.w3.org/2000/svg"
 width="96.000000pt" height="68.000000pt" viewBox="0 0 96.000000 68.000000"
 preserveAspectRatio="xMidYMid meet">
<metadata>
Created by potrace 1.16, written by Peter Selinger 2001-2019
</metadata>
<g transform="translate(0.000000,68.000000) scale(0.100000,-0.100000)"
fill="#000000" stroke="none">
<path d="M300 212 c0 -10 43 -52 53 -52 16 0 6 40 -12 50 -24 12 -41 13 -41 2z"/>
<path d="M220 187 c0 -19 33 -47 53 -47 27 0 19 28 -13 45 -36 18 -40 19 -40
2z"/>
<path d="M122 128 c27 -50 58 -63 58 -24 0 26 -41 66 -67 66 -11 0 -9 -10 9
-42z"/>
</g>
</svg>
