<?xml version="1.0" standalone="no"?>
<!DOCTYPE svg PUBLIC "-//W3C//DTD SVG 20010904//EN"
 "http://www.w3.org/TR/2001/REC-SVG-20010904/DTD/svg10.dtd">
<svg version="1.0" xmlns="http://www.w3.org/2000/svg"
 width="96.000000pt" height="68.000000pt" viewBox="0 0 96.000000 68.000000"
 preserveAspectRatio="xMidYMid meet">
<metadata>
Created by potrace 1.16, written by Peter Selinger 2001-2019
</metadata>
<g transform="translate(0.000000,68.000000) scale(0.100000,-0.100000)"
fill="#000000" stroke="none">
<path d="M635 339 c-4 -5 -4 -21 -1 -34 4 -17 11 -22 25 -18 17 4 18 9 9 34
-10 30 -22 37 -33 18z"/>
<path d="M705 290 c-18 -8 -17 -9 8 -9 16 -1 26 3 22 9 -3 6 -7 10 -8 9 -1 0
-11 -4 -22 -9z"/>
<path d="M580 280 c-11 -8 -8 -9 12 -4 20 4 29 1 37 -14 6 -11 8 -22 4 -25 -3
-4 0 -13 7 -22 11 -13 8 -15 -18 -15 -17 0 -34 -5 -38 -11 -4 -7 0 -9 14 -5
12 4 57 8 102 8 44 1 78 4 74 7 -3 3 -29 6 -57 6 l-52 0 1 38 c0 27 -3 36 -12
33 -8 -3 -16 -1 -19 4 -8 13 -36 12 -55 0z"/>
</g>
</svg>
