<?xml version="1.0" standalone="no"?>
<!DOCTYPE svg PUBLIC "-//W3C//DTD SVG 20010904//EN"
 "http://www.w3.org/TR/2001/REC-SVG-20010904/DTD/svg10.dtd">
<svg version="1.0" xmlns="http://www.w3.org/2000/svg"
 width="96.000000pt" height="68.000000pt" viewBox="0 0 96.000000 68.000000"
 preserveAspectRatio="xMidYMid meet">
<metadata>
Created by potrace 1.16, written by Peter Selinger 2001-2019
</metadata>
<g transform="translate(0.000000,68.000000) scale(0.100000,-0.100000)"
fill="#000000" stroke="none">
<path d="M325 305 c-22 -8 -50 -15 -61 -15 -37 0 -46 -22 -33 -77 13 -52 28
-76 36 -55 3 8 26 12 64 12 52 0 59 2 59 20 0 11 7 38 16 60 24 59 -9 80 -81
55z m30 -25 c4 -6 4 -29 0 -50 -7 -40 -7 -40 -51 -40 -31 0 -44 4 -44 14 0 7
-3 27 -6 44 -6 30 -5 31 37 35 24 2 47 4 51 5 4 1 10 -3 13 -8z"/>
</g>
</svg>
