<?xml version="1.0" standalone="no"?>
<!DOCTYPE svg PUBLIC "-//W3C//DTD SVG 20010904//EN"
 "http://www.w3.org/TR/2001/REC-SVG-20010904/DTD/svg10.dtd">
<svg version="1.0" xmlns="http://www.w3.org/2000/svg"
 width="90.000000pt" height="92.000000pt" viewBox="0 0 90.000000 92.000000"
 preserveAspectRatio="xMidYMid meet">
<metadata>
Created by potrace 1.16, written by Peter Selinger 2001-2019
</metadata>
<g transform="translate(0.000000,92.000000) scale(0.100000,-0.100000)"
fill="#000000" stroke="none">
<path d="M575 824 c-33 -8 -80 -12 -105 -9 l-45 5 3 -142 c1 -79 4 -154 5
-168 2 -24 -2 -26 -68 -35 -66 -10 -72 -9 -101 13 -29 21 -35 21 -83 11 -29
-6 -55 -8 -58 -5 -3 3 4 22 16 42 16 27 19 40 11 49 -9 11 4 15 69 21 75 6 95
14 71 29 -11 7 13 76 41 116 18 25 18 27 1 41 -29 26 -59 30 -98 13 -20 -8
-61 -18 -91 -21 -86 -11 -60 -30 36 -26 89 3 87 5 70 -63 -11 -42 -13 -44 -61
-54 -27 -6 -63 -11 -80 -11 -25 0 -29 -3 -22 -17 17 -38 5 -99 -28 -145 -10
-14 -10 -21 3 -33 13 -13 19 -13 54 5 22 11 55 20 74 20 l34 0 -6 -92 c-5 -91
-29 -187 -50 -200 -5 -3 -28 0 -50 8 -22 8 -41 14 -43 14 -2 0 12 -22 32 -50
40 -55 60 -61 92 -27 29 31 47 85 67 203 20 115 29 139 53 128 9 -4 31 -7 49
-7 30 1 32 -1 38 -40 6 -40 -7 -206 -20 -272 -4 -19 -1 -37 8 -49 13 -17 19
-14 100 60 48 43 87 82 87 86 0 4 -30 -8 -67 -28 l-68 -36 -3 74 c-2 40 2 101
8 136 6 34 8 67 5 71 -7 13 55 22 202 30 146 8 176 19 122 46 -31 16 -39 16
-138 1 -58 -9 -118 -19 -133 -22 -27 -5 -28 -4 -28 40 0 45 0 46 34 46 76 0
156 13 156 26 0 7 -8 14 -17 16 -17 4 -103 -6 -150 -17 -20 -5 -23 -1 -23 28
l0 34 80 7 c84 7 110 13 110 26 0 23 -81 20 -172 -6 -14 -4 -18 0 -18 18 0 59
6 63 100 76 48 6 96 15 105 19 17 6 17 7 -1 20 -21 15 -29 15 -109 -3z"/>
<path d="M671 403 c-24 -48 -60 -82 -69 -66 -13 21 -84 73 -93 67 -15 -9 -10
-20 15 -33 13 -7 61 -62 106 -122 46 -61 92 -115 103 -121 22 -11 106 -5 134
10 14 8 2 17 -59 46 -41 19 -101 57 -132 82 l-57 47 49 28 c68 39 79 54 57 79
-25 28 -32 25 -54 -17z"/>
</g>
</svg>
