<?xml version="1.0" standalone="no"?>
<!DOCTYPE svg PUBLIC "-//W3C//DTD SVG 20010904//EN"
 "http://www.w3.org/TR/2001/REC-SVG-20010904/DTD/svg10.dtd">
<svg version="1.0" xmlns="http://www.w3.org/2000/svg"
 width="96.000000pt" height="68.000000pt" viewBox="0 0 96.000000 68.000000"
 preserveAspectRatio="xMidYMid meet">
<metadata>
Created by potrace 1.16, written by Peter Selinger 2001-2019
</metadata>
<g transform="translate(0.000000,68.000000) scale(0.100000,-0.100000)"
fill="#000000" stroke="none">
<path d="M235 564 c17 -39 28 -111 21 -137 -6 -25 -10 -27 -56 -27 -28 0 -50
-4 -50 -10 0 -5 22 -10 49 -10 56 0 61 -6 61 -81 l0 -48 -70 -22 c-73 -22 -84
-37 -39 -53 20 -7 46 3 142 54 122 64 143 84 61 56 -26 -9 -49 -16 -51 -16 -2
0 -3 25 -3 55 0 50 2 55 25 60 14 3 36 7 50 10 40 8 19 25 -31 25 -43 0 -44 1
-44 33 0 17 4 48 10 67 12 41 5 49 -45 57 -35 6 -38 4 -30 -13z"/>
</g>
</svg>
