<?xml version="1.0" standalone="no"?>
<!DOCTYPE svg PUBLIC "-//W3C//DTD SVG 20010904//EN"
 "http://www.w3.org/TR/2001/REC-SVG-20010904/DTD/svg10.dtd">
<svg version="1.0" xmlns="http://www.w3.org/2000/svg"
 width="96.000000pt" height="68.000000pt" viewBox="0 0 96.000000 68.000000"
 preserveAspectRatio="xMidYMid meet">
<metadata>
Created by potrace 1.16, written by Peter Selinger 2001-2019
</metadata>
<g transform="translate(0.000000,68.000000) scale(0.100000,-0.100000)"
fill="#000000" stroke="none">
<path d="M535 252 c-43 -8 -34 -20 12 -15 28 3 43 1 36 -4 -7 -5 -11 -29 -11
-53 2 -95 -1 -110 -22 -110 -20 0 -20 -1 4 -27 20 -21 28 -24 39 -14 16 12 30
51 19 51 -4 0 -5 23 -3 51 2 40 -1 53 -15 65 -18 14 -18 14 -1 8 15 -6 18 -2
15 16 -3 25 -37 39 -73 32z"/>
<path d="M372 222 c-8 -5 -12 -30 -11 -68 1 -32 0 -63 -1 -69 -1 -5 -2 -18 -1
-29 1 -14 4 -16 14 -7 8 6 16 10 18 8 2 -1 0 3 -6 8 -6 6 -8 23 -4 40 4 17 7
49 8 72 1 31 6 43 19 46 14 4 14 5 -3 6 -11 0 -26 -3 -33 -7z"/>
<path d="M505 160 c-3 -5 1 -10 9 -10 9 0 16 5 16 10 0 6 -4 10 -9 10 -6 0
-13 -4 -16 -10z"/>
<path d="M418 143 c12 -2 32 -2 45 0 12 2 2 4 -23 4 -25 0 -35 -2 -22 -4z"/>
<path d="M448 53 c6 -2 18 -2 25 0 6 3 1 5 -13 5 -14 0 -19 -2 -12 -5z"/>
</g>
</svg>
