<?xml version="1.0" standalone="no"?>
<!DOCTYPE svg PUBLIC "-//W3C//DTD SVG 20010904//EN"
 "http://www.w3.org/TR/2001/REC-SVG-20010904/DTD/svg10.dtd">
<svg version="1.0" xmlns="http://www.w3.org/2000/svg"
 width="96.000000pt" height="68.000000pt" viewBox="0 0 96.000000 68.000000"
 preserveAspectRatio="xMidYMid meet">
<metadata>
Created by potrace 1.16, written by Peter Selinger 2001-2019
</metadata>
<g transform="translate(0.000000,68.000000) scale(0.100000,-0.100000)"
fill="#000000" stroke="none">
<path d="M495 590 c-27 -5 -77 -9 -109 -9 -56 -1 -58 -2 -43 -19 9 -10 19 -36
23 -58 9 -62 11 -63 84 -52 36 5 82 7 102 5 36 -5 38 -3 73 56 34 57 35 62 19
74 -19 14 -70 15 -149 3z m90 -30 c0 -11 -23 -17 -90 -26 -93 -13 -105 -12
-105 10 0 9 25 17 78 24 97 12 117 11 117 -8z m-12 -60 c-4 -16 -15 -20 -54
-22 -106 -4 -114 -3 -114 12 0 11 16 17 60 21 115 11 114 11 108 -11z"/>
</g>
</svg>
