<?xml version="1.0" standalone="no"?>
<!DOCTYPE svg PUBLIC "-//W3C//DTD SVG 20010904//EN"
 "http://www.w3.org/TR/2001/REC-SVG-20010904/DTD/svg10.dtd">
<svg version="1.0" xmlns="http://www.w3.org/2000/svg"
 width="96.000000pt" height="68.000000pt" viewBox="0 0 96.000000 68.000000"
 preserveAspectRatio="xMidYMid meet">
<metadata>
Created by potrace 1.16, written by Peter Selinger 2001-2019
</metadata>
<g transform="translate(0.000000,68.000000) scale(0.100000,-0.100000)"
fill="#000000" stroke="none">
<path d="M196 553 c11 -35 12 -255 1 -388 -9 -111 1 -147 28 -111 12 16 15 56
15 199 l0 178 26 -20 c27 -21 44 -20 44 4 0 7 -14 16 -31 20 -31 7 -31 7 -27
62 4 46 2 56 -16 69 -34 23 -50 18 -40 -13z"/>
<path d="M123 369 c-27 -44 -34 -71 -24 -87 24 -38 75 54 54 100 -9 21 -10 20
-30 -13z"/>
</g>
</svg>
