<?xml version="1.0" standalone="no"?>
<!DOCTYPE svg PUBLIC "-//W3C//DTD SVG 20010904//EN"
 "http://www.w3.org/TR/2001/REC-SVG-20010904/DTD/svg10.dtd">
<svg version="1.0" xmlns="http://www.w3.org/2000/svg"
 width="96.000000pt" height="68.000000pt" viewBox="0 0 96.000000 68.000000"
 preserveAspectRatio="xMidYMid meet">
<metadata>
Created by potrace 1.16, written by Peter Selinger 2001-2019
</metadata>
<g transform="translate(0.000000,68.000000) scale(0.100000,-0.100000)"
fill="#000000" stroke="none">
<path d="M460 329 c-25 -4 -70 -8 -100 -8 l-55 -1 -1 -75 c-1 -64 2 -75 15
-71 28 8 164 19 232 18 l67 0 5 61 c4 49 1 65 -11 75 -17 13 -82 14 -152 1z
m91 -19 c36 -20 19 -27 -81 -39 -130 -14 -130 -14 -130 8 0 17 10 20 68 26 37
3 74 8 82 9 29 7 42 6 61 -4z m17 -71 c2 -13 -10 -17 -65 -23 -37 -4 -89 -9
-115 -13 -44 -5 -48 -4 -48 15 0 22 25 29 140 35 78 5 84 4 88 -14z"/>
</g>
</svg>
