<?xml version="1.0" standalone="no"?>
<!DOCTYPE svg PUBLIC "-//W3C//DTD SVG 20010904//EN"
 "http://www.w3.org/TR/2001/REC-SVG-20010904/DTD/svg10.dtd">
<svg version="1.0" xmlns="http://www.w3.org/2000/svg"
 width="96.000000pt" height="68.000000pt" viewBox="0 0 96.000000 68.000000"
 preserveAspectRatio="xMidYMid meet">
<metadata>
Created by potrace 1.16, written by Peter Selinger 2001-2019
</metadata>
<g transform="translate(0.000000,68.000000) scale(0.100000,-0.100000)"
fill="#000000" stroke="none">
<path d="M264 603 c4 -16 10 -56 13 -90 l5 -61 -48 -7 c-27 -3 -60 -8 -73 -11
-42 -9 -3 -24 62 -24 l57 0 0 -44 0 -43 -92 -38 c-51 -21 -95 -39 -97 -41 -2
-2 1 -10 8 -18 23 -27 57 -24 113 11 l53 34 3 -52 c4 -72 0 -79 -42 -72 -20 3
-36 2 -35 -3 0 -5 21 -26 46 -47 43 -36 46 -37 64 -21 16 15 19 32 19 124 l0
106 40 23 c39 21 57 50 24 37 -9 -3 -27 -9 -40 -12 -22 -6 -24 -3 -24 29 0 37
12 47 55 47 13 0 27 5 31 11 10 17 -17 30 -50 24 -28 -5 -28 -5 -23 38 3 23 9
57 12 74 6 29 4 34 -20 43 -14 5 -36 10 -47 10 -17 0 -19 -4 -14 -27z"/>
<path d="M649 556 c-2 -3 -46 -10 -97 -17 -93 -12 -126 -28 -52 -25 l41 1 -3
-40 -3 -40 -64 -7 c-35 -4 -66 -9 -68 -12 -8 -8 65 -19 93 -13 23 4 25 2 18
-27 -9 -43 -12 -46 -39 -46 -13 0 -27 -4 -30 -10 -3 -5 3 -10 14 -10 40 0 18
-45 -63 -129 -74 -78 -52 -79 36 -2 53 47 55 46 78 -39 14 -49 18 -55 40 -53
14 2 63 6 110 10 47 5 84 11 83 15 -3 12 27 80 43 95 18 18 10 31 -28 47 -24
11 -46 10 -116 -1 -48 -8 -102 -13 -120 -11 l-34 3 24 35 c23 34 25 35 116 44
51 4 92 12 92 17 0 5 -4 9 -9 9 -5 0 -5 15 1 34 12 38 28 45 98 46 42 1 44 2
26 15 -11 8 -39 15 -62 15 l-42 0 15 32 c22 43 8 62 -48 66 -25 2 -47 1 -50
-2z m39 -63 c-3 -34 -6 -38 -41 -46 -52 -13 -69 -4 -57 27 6 18 6 27 -2 32
-16 10 18 22 65 23 38 1 38 1 35 -36z m-18 -82 c0 -5 -4 -21 -9 -34 -8 -19
-19 -25 -57 -31 -26 -3 -49 -5 -51 -3 -10 11 21 66 40 70 42 8 77 7 77 -2z
m40 -208 c0 -65 -6 -70 -82 -77 -38 -4 -72 -6 -74 -4 -1 2 -6 22 -10 45 -6 41
-6 42 27 52 19 5 58 10 87 10 50 1 52 0 52 -26z"/>
</g>
</svg>
