<?xml version="1.0" standalone="no"?>
<!DOCTYPE svg PUBLIC "-//W3C//DTD SVG 20010904//EN"
 "http://www.w3.org/TR/2001/REC-SVG-20010904/DTD/svg10.dtd">
<svg version="1.0" xmlns="http://www.w3.org/2000/svg"
 width="96.000000pt" height="68.000000pt" viewBox="0 0 96.000000 68.000000"
 preserveAspectRatio="xMidYMid meet">
<metadata>
Created by potrace 1.16, written by Peter Selinger 2001-2019
</metadata>
<g transform="translate(0.000000,68.000000) scale(0.100000,-0.100000)"
fill="#000000" stroke="none">
<path d="M694 533 c2 -10 7 -48 11 -85 l6 -66 -38 -6 c-21 -3 -63 -8 -93 -12
-48 -6 -52 -8 -30 -16 22 -8 58 -6 134 9 l28 5 -3 -125 c-2 -69 -7 -129 -12
-133 -4 -4 -24 -2 -45 4 l-37 11 48 -45 c46 -45 49 -46 68 -29 17 16 19 32 19
166 l0 148 48 3 c61 4 61 22 0 26 l-47 3 6 66 c5 57 4 68 -12 79 -28 20 -57
18 -51 -3z"/>
</g>
</svg>
