<?xml version="1.0" standalone="no"?>
<!DOCTYPE svg PUBLIC "-//W3C//DTD SVG 20010904//EN"
 "http://www.w3.org/TR/2001/REC-SVG-20010904/DTD/svg10.dtd">
<svg version="1.0" xmlns="http://www.w3.org/2000/svg"
 width="96.000000pt" height="68.000000pt" viewBox="0 0 96.000000 68.000000"
 preserveAspectRatio="xMidYMid meet">
<metadata>
Created by potrace 1.16, written by Peter Selinger 2001-2019
</metadata>
<g transform="translate(0.000000,68.000000) scale(0.100000,-0.100000)"
fill="#000000" stroke="none">
<path d="M385 549 c4 -13 10 -56 12 -95 l4 -71 -33 -6 c-18 -4 -66 -9 -106
-13 -80 -7 -98 -18 -55 -35 27 -10 125 -5 160 8 25 10 8 -43 -35 -106 -35 -51
-135 -136 -207 -174 -50 -27 -3 -19 73 12 106 43 170 98 220 189 l29 53 41
-63 c22 -35 67 -91 100 -126 l59 -63 93 3 c93 3 128 18 78 33 -63 20 -178 76
-178 87 0 4 -6 8 -14 8 -8 0 -24 12 -35 26 -12 15 -21 23 -21 18 0 -4 -24 19
-54 51 l-54 60 119 9 c125 9 149 21 89 46 -23 10 -47 10 -115 -1 -47 -7 -87
-10 -89 -8 -2 2 0 38 5 79 5 41 5 78 1 82 -4 4 -27 10 -51 14 -43 7 -44 7 -36
-17z"/>
</g>
</svg>
