<?xml version="1.0" standalone="no"?>
<!DOCTYPE svg PUBLIC "-//W3C//DTD SVG 20010904//EN"
 "http://www.w3.org/TR/2001/REC-SVG-20010904/DTD/svg10.dtd">
<svg version="1.0" xmlns="http://www.w3.org/2000/svg"
 width="96.000000pt" height="68.000000pt" viewBox="0 0 96.000000 68.000000"
 preserveAspectRatio="xMidYMid meet">
<metadata>
Created by potrace 1.16, written by Peter Selinger 2001-2019
</metadata>
<g transform="translate(0.000000,68.000000) scale(0.100000,-0.100000)"
fill="#000000" stroke="none">
<path d="M569 243 c-11 -3 -14 -12 -11 -34 6 -38 -9 -49 -66 -49 -26 0 -41 -4
-37 -10 3 -5 28 -10 55 -10 51 0 64 -12 48 -42 -7 -14 -22 -18 -71 -19 -34 0
-82 -4 -107 -8 -90 -15 2 -23 140 -12 74 6 176 11 227 11 54 0 93 4 93 10 0
17 -50 23 -141 16 l-89 -7 0 30 c0 27 3 29 58 37 32 5 55 13 52 19 -5 10 -23
11 -75 4 -28 -4 -30 -2 -29 26 0 17 -4 33 -10 37 -12 8 -12 8 -37 1z"/>
</g>
</svg>
