<?xml version="1.0" standalone="no"?>
<!DOCTYPE svg PUBLIC "-//W3C//DTD SVG 20010904//EN"
 "http://www.w3.org/TR/2001/REC-SVG-20010904/DTD/svg10.dtd">
<svg version="1.0" xmlns="http://www.w3.org/2000/svg"
 width="96.000000pt" height="68.000000pt" viewBox="0 0 96.000000 68.000000"
 preserveAspectRatio="xMidYMid meet">
<metadata>
Created by potrace 1.16, written by Peter Selinger 2001-2019
</metadata>
<g transform="translate(0.000000,68.000000) scale(0.100000,-0.100000)"
fill="#000000" stroke="none">
<path d="M556 593 c5 -10 10 -57 12 -105 3 -66 7 -88 17 -88 21 0 25 13 33
105 9 93 3 105 -48 105 -18 0 -20 -4 -14 -17z"/>
<path d="M730 551 c0 -4 -18 -29 -41 -55 -22 -25 -37 -46 -33 -46 22 0 144 57
144 67 0 14 -39 43 -57 43 -7 0 -13 -4 -13 -9z"/>
<path d="M440 508 c0 -19 42 -58 63 -58 20 0 23 33 4 48 -6 6 -24 13 -40 17
-20 5 -27 3 -27 -7z"/>
</g>
</svg>
