<?xml version="1.0" standalone="no"?>
<!DOCTYPE svg PUBLIC "-//W3C//DTD SVG 20010904//EN"
 "http://www.w3.org/TR/2001/REC-SVG-20010904/DTD/svg10.dtd">
<svg version="1.0" xmlns="http://www.w3.org/2000/svg"
 width="96.000000pt" height="68.000000pt" viewBox="0 0 96.000000 68.000000"
 preserveAspectRatio="xMidYMid meet">
<metadata>
Created by potrace 1.16, written by Peter Selinger 2001-2019
</metadata>
<g transform="translate(0.000000,68.000000) scale(0.100000,-0.100000)"
fill="#000000" stroke="none">
<path d="M585 404 c-38 -7 -82 -11 -97 -8 l-26 5 5 -61 c4 -40 0 -90 -12 -145
-10 -49 -14 -96 -10 -112 l7 -28 18 23 c11 13 22 42 25 66 l7 42 82 12 c113
16 106 19 106 -36 0 -58 -12 -73 -54 -65 -28 6 -30 5 -17 -11 25 -30 69 -56
84 -50 27 10 35 51 38 208 4 172 2 177 -56 174 -16 0 -61 -7 -100 -14z m103
-45 c3 -24 0 -26 -70 -38 -40 -7 -79 -15 -86 -17 -17 -5 -26 20 -18 50 6 26
39 34 131 32 35 -1 40 -4 43 -27z m2 -88 c0 -27 -2 -28 -69 -40 -105 -17 -111
-16 -111 18 0 27 3 29 63 38 110 18 117 17 117 -16z"/>
</g>
</svg>
