<?xml version="1.0" standalone="no"?>
<!DOCTYPE svg PUBLIC "-//W3C//DTD SVG 20010904//EN"
 "http://www.w3.org/TR/2001/REC-SVG-20010904/DTD/svg10.dtd">
<svg version="1.0" xmlns="http://www.w3.org/2000/svg"
 width="96.000000pt" height="68.000000pt" viewBox="0 0 96.000000 68.000000"
 preserveAspectRatio="xMidYMid meet">
<metadata>
Created by potrace 1.16, written by Peter Selinger 2001-2019
</metadata>
<g transform="translate(0.000000,68.000000) scale(0.100000,-0.100000)"
fill="#000000" stroke="none">
<path d="M721 451 c-40 -11 -38 -31 3 -31 34 0 36 -2 36 -32 0 -45 -37 -187
-56 -216 -20 -31 -41 -38 -75 -25 -25 10 -28 9 -20 -5 17 -30 51 -62 68 -62 8
0 30 16 48 35 28 29 37 52 60 152 15 65 31 122 36 128 16 17 9 34 -21 50 -31
16 -41 17 -79 6z"/>
</g>
</svg>
