<?xml version="1.0" standalone="no"?>
<!DOCTYPE svg PUBLIC "-//W3C//DTD SVG 20010904//EN"
 "http://www.w3.org/TR/2001/REC-SVG-20010904/DTD/svg10.dtd">
<svg version="1.0" xmlns="http://www.w3.org/2000/svg"
 width="96.000000pt" height="68.000000pt" viewBox="0 0 96.000000 68.000000"
 preserveAspectRatio="xMidYMid meet">
<metadata>
Created by potrace 1.16, written by Peter Selinger 2001-2019
</metadata>
<g transform="translate(0.000000,68.000000) scale(0.100000,-0.100000)"
fill="#000000" stroke="none">
<path d="M634 588 c-4 -13 -15 -34 -26 -47 -37 -48 -9 -38 62 22 27 23 31 30
19 38 -24 15 -47 10 -55 -13z"/>
<path d="M210 562 c0 -5 14 -28 31 -51 34 -48 62 -52 67 -9 3 22 -3 32 -30 48
-34 21 -68 26 -68 12z"/>
<path d="M460 564 c0 -15 43 -64 56 -64 22 0 17 37 -8 54 -23 16 -48 21 -48
10z"/>
<path d="M625 495 c-33 -8 -88 -17 -122 -20 -35 -4 -63 -11 -63 -16 0 -5 8 -9
19 -9 24 0 45 -25 37 -45 -3 -10 -19 -15 -46 -15 -22 0 -40 -5 -40 -11 0 -6
17 -9 43 -7 36 2 42 0 45 -18 3 -20 -3 -22 -63 -29 -41 -4 -63 -10 -59 -17 4
-6 30 -8 65 -5 57 5 59 4 59 -19 0 -22 -4 -24 -45 -24 -25 0 -45 -4 -45 -10 0
-5 16 -10 35 -10 41 0 41 -3 -20 -74 -22 -26 -53 -55 -70 -63 -17 -9 -25 -18
-17 -20 16 -6 116 60 137 90 15 21 16 17 13 -58 -2 -66 0 -80 12 -80 12 0 17
23 24 108 l9 107 30 0 30 0 -5 -105 c-3 -75 -1 -111 8 -123 21 -29 29 -4 31
105 1 58 4 107 7 110 2 3 26 -23 53 -58 73 -95 80 -101 119 -97 47 4 44 18 -9
45 -25 13 -71 48 -102 78 l-57 53 46 7 c26 4 45 12 44 19 -1 6 2 21 6 34 6 19
14 22 62 22 30 0 54 4 54 9 0 10 -34 21 -68 21 -18 0 -22 4 -18 18 9 26 -29
41 -87 35 -46 -5 -47 -5 -45 21 2 27 8 31 71 42 20 3 37 10 37 15 0 12 -42 10
-115 -6z m-40 -56 c8 -25 6 -28 -26 -31 -20 -3 -25 2 -27 25 -3 23 0 27 22 27
16 0 27 -7 31 -21z m122 -54 c7 -21 2 -25 -41 -32 -34 -5 -36 -4 -36 21 0 23
4 26 35 26 23 0 38 -6 42 -15z m-117 -20 c0 -21 -5 -25 -30 -25 -23 0 -30 5
-30 19 0 18 14 27 48 30 6 0 12 -10 12 -24z m110 -43 c0 -15 -24 -32 -47 -32
-22 0 -31 19 -16 33 9 10 63 9 63 -1z m-110 -21 c0 -19 -18 -31 -46 -31 -8 0
-14 10 -14 25 0 21 5 25 30 25 23 0 30 -5 30 -19z"/>
<path d="M198 451 c-59 -9 -110 -20 -113 -23 -4 -4 3 -12 15 -18 25 -13 47
-12 202 15 80 14 105 21 101 31 -7 18 -66 16 -205 -5z"/>
<path d="M248 366 c-70 -17 -72 -30 -3 -22 32 4 70 9 84 13 23 6 24 7 6 14
-25 9 -29 9 -87 -5z"/>
<path d="M242 298 c-49 -9 -64 -28 -22 -28 38 0 120 22 114 31 -6 11 -20 10
-92 -3z"/>
<path d="M274 224 c-21 -8 -59 -14 -83 -14 -37 0 -42 -2 -30 -12 9 -7 21 -33
28 -56 11 -38 15 -43 34 -38 12 3 41 6 65 6 36 0 42 3 42 20 0 12 7 32 16 45
31 48 -5 72 -72 49z m26 -48 c0 -35 -13 -46 -51 -46 -12 0 -23 10 -29 26 -15
38 -13 42 23 47 17 2 38 5 45 5 7 1 12 -11 12 -32z"/>
</g>
</svg>
