<?xml version="1.0" standalone="no"?>
<!DOCTYPE svg PUBLIC "-//W3C//DTD SVG 20010904//EN"
 "http://www.w3.org/TR/2001/REC-SVG-20010904/DTD/svg10.dtd">
<svg version="1.0" xmlns="http://www.w3.org/2000/svg"
 width="96.000000pt" height="68.000000pt" viewBox="0 0 96.000000 68.000000"
 preserveAspectRatio="xMidYMid meet">
<metadata>
Created by potrace 1.16, written by Peter Selinger 2001-2019
</metadata>
<g transform="translate(0.000000,68.000000) scale(0.100000,-0.100000)"
fill="#000000" stroke="none">
<path d="M604 462 c-16 -2 -20 -8 -17 -26 4 -18 -1 -25 -19 -29 -36 -10 -38
-9 -38 19 0 19 -4 25 -17 22 -13 -2 -17 -11 -15 -31 3 -26 2 -27 -42 -27 -28
0 -46 -5 -46 -11 0 -8 15 -10 45 -7 41 5 45 4 45 -17 0 -18 -7 -24 -37 -29
-21 -3 -51 -6 -66 -6 -18 0 -26 -4 -21 -11 4 -8 26 -9 65 -5 58 6 59 5 59 -19
0 -23 -4 -25 -45 -25 -25 0 -45 -4 -45 -10 0 -5 21 -10 46 -10 l46 0 -8 -57
c-13 -95 -11 -148 6 -148 12 0 17 22 24 107 l8 108 30 0 30 0 -3 -110 c-2 -72
0 -113 8 -121 25 -25 33 4 33 121 l0 119 50 7 c29 4 49 11 48 18 -1 6 2 21 6
34 6 19 14 22 62 22 30 0 54 4 54 9 0 10 -34 21 -67 21 -16 0 -20 5 -16 19 7
27 -13 35 -79 33 -52 -2 -57 -1 -60 20 -2 17 -9 22 -24 20z m106 -81 c0 -35
-74 -45 -83 -11 -6 22 5 28 51 29 25 1 32 -3 32 -18z m-120 -16 c0 -21 -5 -25
-30 -25 -23 0 -30 5 -30 19 0 18 14 27 48 30 6 0 12 -10 12 -24z m110 -49 c0
-26 -64 -37 -73 -12 -8 20 2 26 40 26 21 0 33 -5 33 -14z m-110 -15 c0 -19
-18 -31 -46 -31 -14 0 -20 31 -7 43 3 4 17 7 30 7 16 0 23 -6 23 -19z"/>
</g>
</svg>
