<?xml version="1.0" standalone="no"?>
<!DOCTYPE svg PUBLIC "-//W3C//DTD SVG 20010904//EN"
 "http://www.w3.org/TR/2001/REC-SVG-20010904/DTD/svg10.dtd">
<svg version="1.0" xmlns="http://www.w3.org/2000/svg"
 width="96.000000pt" height="68.000000pt" viewBox="0 0 96.000000 68.000000"
 preserveAspectRatio="xMidYMid meet">
<metadata>
Created by potrace 1.16, written by Peter Selinger 2001-2019
</metadata>
<g transform="translate(0.000000,68.000000) scale(0.100000,-0.100000)"
fill="#000000" stroke="none">
<path d="M567 353 c-4 -3 -7 -18 -7 -31 0 -33 -21 -92 -33 -92 -5 0 -27 15
-50 34 -41 33 -87 52 -87 36 0 -4 19 -19 43 -33 60 -35 79 -58 64 -77 -26 -34
-86 -70 -157 -94 -72 -24 -73 -26 -34 -26 58 0 134 25 182 60 23 16 47 30 53
30 7 0 37 -23 66 -51 l55 -52 86 6 c47 4 89 10 94 15 6 6 -20 16 -65 26 -41 9
-107 32 -146 51 l-73 35 20 33 c10 17 28 47 38 65 l19 34 -24 19 c-25 20 -34
23 -44 12z"/>
</g>
</svg>
