<?xml version="1.0" standalone="no"?>
<!DOCTYPE svg PUBLIC "-//W3C//DTD SVG 20010904//EN"
 "http://www.w3.org/TR/2001/REC-SVG-20010904/DTD/svg10.dtd">
<svg version="1.0" xmlns="http://www.w3.org/2000/svg"
 width="90.000000pt" height="92.000000pt" viewBox="0 0 90.000000 92.000000"
 preserveAspectRatio="xMidYMid meet">
<metadata>
Created by potrace 1.16, written by Peter Selinger 2001-2019
</metadata>
<g transform="translate(0.000000,92.000000) scale(0.100000,-0.100000)"
fill="#000000" stroke="none">
<path d="M505 828 c4 -13 10 -62 12 -109 l5 -87 -43 -7 c-39 -7 -41 -9 -24
-21 10 -8 30 -14 43 -14 20 0 23 -4 19 -22 -3 -13 -9 -40 -13 -61 -5 -31 -10
-38 -25 -34 -22 6 -23 3 -8 -21 15 -23 -7 -67 -63 -128 -22 -24 -36 -44 -31
-44 16 0 86 54 114 87 25 30 26 30 48 12 13 -11 27 -16 32 -13 17 10 9 53 -12
68 -20 14 -21 18 -10 60 6 25 11 58 11 75 0 33 22 51 64 51 l24 0 4 -123 c3
-116 5 -126 31 -166 30 -46 80 -81 114 -81 29 0 37 15 22 42 -6 12 -15 44 -18
72 l-7 51 -14 -42 c-14 -46 -28 -53 -53 -25 -40 44 -51 151 -22 231 21 60 19
67 -15 81 -24 10 -38 9 -76 -4 l-47 -16 6 96 c5 94 5 95 -19 105 -43 16 -57
12 -49 -13z"/>
<path d="M250 828 c0 -7 9 -27 20 -45 23 -38 27 -36 -107 -54 -51 -6 -93 -16
-93 -21 0 -4 11 -14 25 -20 20 -9 44 -8 113 5 48 9 123 22 167 28 88 12 94 14
78 30 -7 7 -35 10 -70 7 l-59 -4 4 27 c3 19 -2 31 -19 43 -28 19 -59 21 -59 4z"/>
<path d="M260 654 c-36 -7 -73 -11 -82 -8 -22 6 -22 4 -3 -32 8 -16 15 -36 15
-45 0 -18 29 -60 30 -42 0 7 29 14 79 19 57 4 78 10 75 19 -3 7 7 27 22 45 27
31 27 33 9 46 -22 17 -58 16 -145 -2z m90 -27 c0 -27 -27 -45 -76 -51 -49 -6
-52 -5 -56 19 -4 20 -1 26 16 30 11 2 30 6 41 8 43 10 75 7 75 -6z"/>
<path d="M295 510 c-11 -4 -53 -14 -92 -20 -40 -7 -73 -17 -73 -21 0 -18 48
-18 115 0 40 11 72 15 74 9 5 -14 -29 -47 -44 -42 -9 4 -13 -4 -12 -27 2 -32
1 -33 -68 -51 -38 -10 -85 -16 -102 -14 -41 6 -49 -6 -20 -31 36 -33 42 -33
96 -7 29 13 65 27 81 31 28 5 29 4 21 -23 -5 -20 -15 -31 -34 -34 l-26 -5 30
-32 c16 -18 33 -33 39 -33 17 0 30 38 30 93 l0 54 45 17 c50 19 62 42 18 33
-16 -3 -36 -9 -45 -12 -13 -5 -18 -2 -18 12 0 14 15 27 50 43 28 13 50 27 50
31 0 4 -10 15 -22 23 -24 17 -61 20 -93 6z"/>
<path d="M660 213 c49 -67 99 -130 113 -142 14 -11 18 -10 28 12 9 19 8 31 -2
53 -14 28 -82 76 -129 89 -23 7 -23 7 -10 -12z"/>
<path d="M133 172 c-41 -66 -46 -84 -29 -107 38 -52 96 66 67 138 -6 16 -12
11 -38 -31z"/>
<path d="M486 212 c-8 -14 48 -117 67 -120 14 -3 17 4 17 36 0 40 -13 58 -57
81 -12 6 -24 8 -27 3z"/>
<path d="M325 164 c30 -71 41 -89 55 -89 17 0 25 35 16 71 -4 13 -20 30 -36
39 -45 23 -52 19 -35 -21z"/>
</g>
</svg>
