<?xml version="1.0" standalone="no"?>
<!DOCTYPE svg PUBLIC "-//W3C//DTD SVG 20010904//EN"
 "http://www.w3.org/TR/2001/REC-SVG-20010904/DTD/svg10.dtd">
<svg version="1.0" xmlns="http://www.w3.org/2000/svg"
 width="96.000000pt" height="68.000000pt" viewBox="0 0 96.000000 68.000000"
 preserveAspectRatio="xMidYMid meet">
<metadata>
Created by potrace 1.16, written by Peter Selinger 2001-2019
</metadata>
<g transform="translate(0.000000,68.000000) scale(0.100000,-0.100000)"
fill="#000000" stroke="none">
<path d="M208 585 c-3 -4 -1 -25 4 -48 6 -23 7 -90 4 -148 -7 -131 -30 -199
-90 -263 -45 -48 -39 -62 10 -24 40 31 61 56 85 101 l20 38 36 -31 c24 -21 39
-28 46 -21 16 16 0 41 -39 57 -36 15 -36 16 -30 61 3 25 6 56 6 68 0 16 14 28
60 50 33 16 60 32 60 36 0 5 -10 14 -22 20 -19 10 -25 8 -51 -25 -16 -20 -34
-36 -39 -36 -10 0 -5 78 8 126 4 15 -1 23 -21 32 -29 13 -39 15 -47 7z"/>
<path d="M99 384 c21 -37 38 -54 55 -54 17 0 21 26 8 47 -4 7 -23 16 -41 19
-31 6 -32 5 -22 -12z"/>
</g>
</svg>
