<?xml version="1.0" standalone="no"?>
<!DOCTYPE svg PUBLIC "-//W3C//DTD SVG 20010904//EN"
 "http://www.w3.org/TR/2001/REC-SVG-20010904/DTD/svg10.dtd">
<svg version="1.0" xmlns="http://www.w3.org/2000/svg"
 width="96.000000pt" height="68.000000pt" viewBox="0 0 96.000000 68.000000"
 preserveAspectRatio="xMidYMid meet">
<metadata>
Created by potrace 1.16, written by Peter Selinger 2001-2019
</metadata>
<g transform="translate(0.000000,68.000000) scale(0.100000,-0.100000)"
fill="#000000" stroke="none">
<path d="M247 511 l6 -89 -49 -7 c-65 -9 -76 -13 -69 -25 3 -5 31 -10 61 -10
l54 0 0 -37 c-1 -36 -4 -40 -63 -74 -34 -20 -72 -39 -85 -43 -29 -9 -24 -27
11 -44 26 -12 31 -11 80 28 60 48 63 44 49 -50 l-8 -55 -39 2 -40 3 48 -47 49
-46 21 22 c20 20 22 30 19 134 l-3 112 35 29 c20 16 47 30 61 32 35 4 97 55
141 117 21 29 39 54 41 57 2 2 16 -11 31 -30 15 -19 48 -56 74 -82 50 -50 58
-52 138 -39 36 6 41 9 25 16 -137 53 -260 134 -250 164 6 20 -25 54 -41 43 -5
-4 -15 -26 -22 -49 -12 -41 -82 -144 -117 -173 -10 -8 -30 -15 -44 -16 -14 0
-34 -4 -43 -8 -15 -7 -18 -3 -18 17 0 25 16 37 50 37 10 0 22 5 26 11 10 17
-17 30 -50 24 -29 -5 -29 -5 -23 37 4 24 9 55 13 70 5 22 1 29 -24 42 -51 26
-52 24 -45 -73z"/>
<path d="M522 383 c-23 -2 -40 -8 -37 -14 11 -17 165 -6 165 12 0 9 -43 9
-128 2z"/>
<path d="M688 334 c-4 -3 -2 -20 3 -37 10 -37 12 -150 3 -197 -6 -29 -10 -31
-35 -26 -36 7 -37 -2 -2 -31 58 -51 70 -28 74 140 3 114 1 139 -11 147 -18 11
-25 12 -32 4z"/>
<path d="M442 311 l-43 -6 -4 -85 c-3 -47 -6 -98 -7 -114 -5 -48 20 -42 33 7
10 41 14 45 46 50 44 8 54 2 49 -26 -3 -12 -5 -28 -5 -34 -1 -7 -13 -13 -28
-13 l-26 0 23 -25 c51 -54 66 -28 72 127 5 140 9 136 -110 119z m70 -36 c3
-14 2 -25 -2 -25 -4 0 -21 -3 -37 -6 -25 -5 -31 -2 -35 14 -7 26 9 42 43 42
21 0 28 -6 31 -25z m8 -54 c0 -30 -14 -41 -51 -41 -31 0 -39 4 -39 18 0 10 3
22 7 25 10 10 83 8 83 -2z"/>
<path d="M600 221 c0 -39 5 -73 11 -76 16 -10 18 -4 26 64 5 49 3 65 -8 72
-26 16 -29 9 -29 -60z"/>
</g>
</svg>
