<?xml version="1.0" standalone="no"?>
<!DOCTYPE svg PUBLIC "-//W3C//DTD SVG 20010904//EN"
 "http://www.w3.org/TR/2001/REC-SVG-20010904/DTD/svg10.dtd">
<svg version="1.0" xmlns="http://www.w3.org/2000/svg"
 width="96.000000pt" height="68.000000pt" viewBox="0 0 96.000000 68.000000"
 preserveAspectRatio="xMidYMid meet">
<metadata>
Created by potrace 1.16, written by Peter Selinger 2001-2019
</metadata>
<g transform="translate(0.000000,68.000000) scale(0.100000,-0.100000)"
fill="#000000" stroke="none">
<path d="M245 543 c3 -27 8 -65 11 -85 6 -41 13 -36 -81 -55 l-40 -8 55 -3
c30 -2 59 -7 64 -12 5 -5 6 -24 2 -44 -6 -31 -15 -39 -84 -77 -95 -52 -91 -48
-68 -65 29 -21 38 -18 95 27 l51 41 0 -50 c0 -27 -3 -64 -6 -81 -6 -27 -11
-31 -37 -31 l-31 0 34 -35 c63 -65 80 -41 80 115 l0 111 35 31 c39 33 41 50 3
24 -32 -23 -38 -20 -38 19 0 30 3 35 23 35 35 0 67 11 61 21 -3 5 -21 9 -40 9
-33 0 -34 1 -34 40 0 21 5 51 12 66 11 23 10 28 -7 40 -10 8 -29 14 -43 14
-22 0 -23 -2 -17 -47z"/>
</g>
</svg>
