<?xml version="1.0" standalone="no"?>
<!DOCTYPE svg PUBLIC "-//W3C//DTD SVG 20010904//EN"
 "http://www.w3.org/TR/2001/REC-SVG-20010904/DTD/svg10.dtd">
<svg version="1.0" xmlns="http://www.w3.org/2000/svg"
 width="96.000000pt" height="68.000000pt" viewBox="0 0 96.000000 68.000000"
 preserveAspectRatio="xMidYMid meet">
<metadata>
Created by potrace 1.16, written by Peter Selinger 2001-2019
</metadata>
<g transform="translate(0.000000,68.000000) scale(0.100000,-0.100000)"
fill="#000000" stroke="none">
<path d="M285 562 c-10 -48 -55 -128 -111 -196 -30 -36 -50 -66 -46 -66 5 0
30 16 55 35 51 39 81 44 97 16 21 -39 13 -49 -45 -56 -66 -9 -63 -28 4 -23
l46 3 3 -62 c3 -61 2 -63 -25 -70 -15 -4 -47 -7 -71 -8 -32 0 -42 -4 -40 -15
2 -8 15 -19 29 -23 23 -9 125 22 248 74 58 24 -20 17 -85 -8 -13 -5 -15 5 -12
58 l3 64 43 10 c48 12 46 25 -5 25 -25 0 -33 4 -33 18 0 10 -5 23 -12 30 -9 9
-5 12 18 12 35 0 61 14 45 24 -6 4 -38 2 -71 -5 -33 -6 -63 -9 -66 -7 -2 3 14
33 36 67 l41 62 35 -31 c36 -31 58 -38 69 -20 11 17 -14 39 -55 50 -28 7 -40
17 -42 32 -2 11 -13 25 -25 29 -20 7 -24 4 -28 -19z"/>
<path d="M376 231 c-23 -43 -20 -46 17 -22 35 22 42 44 15 49 -11 2 -23 -8
-32 -27z"/>
<path d="M186 228 c15 -27 38 -48 51 -48 20 0 16 38 -6 50 -28 14 -54 13 -45
-2z"/>
</g>
</svg>
