<?xml version="1.0" standalone="no"?>
<!DOCTYPE svg PUBLIC "-//W3C//DTD SVG 20010904//EN"
 "http://www.w3.org/TR/2001/REC-SVG-20010904/DTD/svg10.dtd">
<svg version="1.0" xmlns="http://www.w3.org/2000/svg"
 width="96.000000pt" height="68.000000pt" viewBox="0 0 96.000000 68.000000"
 preserveAspectRatio="xMidYMid meet">
<metadata>
Created by potrace 1.16, written by Peter Selinger 2001-2019
</metadata>
<g transform="translate(0.000000,68.000000) scale(0.100000,-0.100000)"
fill="#000000" stroke="none">
<path d="M244 578 c3 -13 9 -51 13 -85 l6 -62 -39 -6 c-109 -17 -113 -19 -39
-25 l70 -5 3 -34 c2 -18 -1 -38 -6 -43 -5 -5 -46 -27 -90 -47 -62 -29 -78 -41
-70 -49 21 -21 58 -13 105 23 25 19 50 35 54 35 8 0 2 -109 -7 -139 -3 -9 -14
-12 -36 -7 l-32 6 34 -35 c62 -64 80 -41 80 103 0 100 0 100 31 126 34 29 33
31 -5 16 -25 -9 -26 -8 -26 24 0 31 3 34 40 40 22 3 40 11 40 16 0 10 -9 13
-50 14 -23 1 -25 4 -22 40 2 22 8 49 14 60 9 16 6 23 -12 38 -12 10 -31 18
-42 18 -16 0 -19 -5 -14 -22z"/>
</g>
</svg>
