<?xml version="1.0" standalone="no"?>
<!DOCTYPE svg PUBLIC "-//W3C//DTD SVG 20010904//EN"
 "http://www.w3.org/TR/2001/REC-SVG-20010904/DTD/svg10.dtd">
<svg version="1.0" xmlns="http://www.w3.org/2000/svg"
 width="96.000000pt" height="68.000000pt" viewBox="0 0 96.000000 68.000000"
 preserveAspectRatio="xMidYMid meet">
<metadata>
Created by potrace 1.16, written by Peter Selinger 2001-2019
</metadata>
<g transform="translate(0.000000,68.000000) scale(0.100000,-0.100000)"
fill="#000000" stroke="none">
<path d="M516 552 c-6 -41 -60 -119 -133 -194 -51 -53 -49 -62 6 -21 58 42
111 95 137 136 l25 38 75 -81 76 -80 68 0 c72 0 99 13 53 25 -53 13 -169 73
-215 111 -36 30 -45 42 -38 55 7 12 4 21 -9 33 -27 25 -38 19 -45 -22z"/>
</g>
</svg>
