<?xml version="1.0" standalone="no"?>
<!DOCTYPE svg PUBLIC "-//W3C//DTD SVG 20010904//EN"
 "http://www.w3.org/TR/2001/REC-SVG-20010904/DTD/svg10.dtd">
<svg version="1.0" xmlns="http://www.w3.org/2000/svg"
 width="96.000000pt" height="68.000000pt" viewBox="0 0 96.000000 68.000000"
 preserveAspectRatio="xMidYMid meet">
<metadata>
Created by potrace 1.16, written by Peter Selinger 2001-2019
</metadata>
<g transform="translate(0.000000,68.000000) scale(0.100000,-0.100000)"
fill="#000000" stroke="none">
<path d="M247 516 l6 -84 -49 -7 c-27 -3 -60 -8 -73 -11 -42 -9 -3 -24 62 -24
l57 0 0 -35 c0 -35 -2 -37 -85 -77 -47 -22 -85 -44 -85 -48 0 -4 13 -13 30
-20 27 -11 33 -9 79 24 27 20 52 36 56 36 8 0 -1 -129 -9 -138 -3 -2 -19 0
-35 6 -43 15 -39 0 11 -42 29 -25 45 -33 53 -26 7 5 14 8 17 5 8 -8 11 24 12
133 1 95 3 105 24 122 12 10 28 20 35 23 6 2 8 8 4 13 -4 4 -21 0 -37 -10 -32
-18 -36 -13 -20 28 6 17 17 26 32 26 13 0 30 5 38 10 13 9 13 11 0 20 -8 6
-27 9 -42 7 -25 -3 -28 0 -28 27 0 16 6 45 12 64 11 30 11 35 -7 48 -10 8 -29
14 -41 14 -23 0 -23 -2 -17 -84z"/>
<path d="M526 583 c-3 -3 -6 -16 -6 -29 0 -27 -59 -116 -118 -178 -26 -28 -37
-46 -28 -46 17 0 135 113 160 154 l18 28 75 -81 75 -81 68 0 c38 0 71 4 74 8
3 5 -25 19 -62 32 -65 23 -126 54 -148 75 -6 5 -24 20 -41 33 -22 17 -29 29
-26 46 4 17 -1 27 -15 35 -11 6 -22 7 -26 4z"/>
<path d="M521 379 c-61 -12 -63 -19 -4 -19 62 0 113 10 113 21 0 11 -49 10
-109 -2z"/>
<path d="M630 309 c-30 -5 -103 -10 -161 -11 -59 -2 -105 -7 -102 -11 3 -5 8
-49 12 -99 4 -59 10 -93 19 -96 8 -2 12 11 12 47 l0 51 35 0 c28 0 35 -4 35
-19 0 -25 10 -51 20 -51 4 0 11 16 14 35 6 31 11 35 36 35 28 0 30 -2 30 -41
0 -48 15 -44 24 6 7 38 10 40 64 49 l32 6 0 -45 c0 -47 -5 -51 -54 -45 -19 2
-16 -10 12 -42 40 -47 74 -1 92 127 10 77 10 81 -11 98 -23 18 -27 19 -109 6z
m68 -55 c3 -31 2 -31 -40 -30 -28 1 -43 5 -42 14 1 6 2 21 3 33 1 17 7 20 39
17 33 -3 37 -6 40 -34z m-120 -6 c-2 -28 -8 -34 -30 -36 -26 -3 -28 -1 -28 32
0 33 2 36 31 36 28 0 30 -2 27 -32z m-98 -7 c0 -23 -5 -30 -27 -34 -35 -7 -47
5 -39 37 5 21 13 26 36 26 26 0 30 -4 30 -29z"/>
</g>
</svg>
