<?xml version="1.0" standalone="no"?>
<!DOCTYPE svg PUBLIC "-//W3C//DTD SVG 20010904//EN"
 "http://www.w3.org/TR/2001/REC-SVG-20010904/DTD/svg10.dtd">
<svg version="1.0" xmlns="http://www.w3.org/2000/svg"
 width="96.000000pt" height="68.000000pt" viewBox="0 0 96.000000 68.000000"
 preserveAspectRatio="xMidYMid meet">
<metadata>
Created by potrace 1.16, written by Peter Selinger 2001-2019
</metadata>
<g transform="translate(0.000000,68.000000) scale(0.100000,-0.100000)"
fill="#000000" stroke="none">
<path d="M320 334 c-36 -7 -92 -13 -126 -14 l-60 0 3 -92 c5 -109 10 -141 23
-133 6 3 10 48 10 100 0 80 2 94 18 99 33 10 193 27 202 21 13 -8 13 -192 0
-200 -5 -3 -19 -1 -30 5 -30 16 -24 -2 11 -36 l31 -29 19 24 c15 18 19 39 19
100 0 42 3 92 6 111 5 32 3 37 -20 48 -15 7 -30 11 -34 11 -4 -1 -36 -7 -72
-15z"/>
</g>
</svg>
