<?xml version="1.0" standalone="no"?>
<!DOCTYPE svg PUBLIC "-//W3C//DTD SVG 20010904//EN"
 "http://www.w3.org/TR/2001/REC-SVG-20010904/DTD/svg10.dtd">
<svg version="1.0" xmlns="http://www.w3.org/2000/svg"
 width="90.000000pt" height="92.000000pt" viewBox="0 0 90.000000 92.000000"
 preserveAspectRatio="xMidYMid meet">
<metadata>
Created by potrace 1.16, written by Peter Selinger 2001-2019
</metadata>
<g transform="translate(0.000000,92.000000) scale(0.100000,-0.100000)"
fill="#000000" stroke="none">
<path d="M490 813 c0 -5 6 -17 13 -28 7 -11 23 -37 36 -57 l22 -36 -53 -11
c-29 -6 -83 -16 -120 -22 -38 -6 -68 -15 -68 -19 0 -4 14 -13 30 -20 25 -10
41 -10 92 3 34 9 64 14 67 12 15 -16 -77 -165 -125 -201 -29 -23 -32 -28 -22
-50 13 -29 7 -29 103 -4 43 11 81 18 83 15 9 -9 -138 -143 -210 -192 -38 -26
-65 -49 -59 -51 21 -7 137 55 207 112 39 31 111 102 159 157 l87 101 -30 30
c-31 32 -52 31 -52 -3 0 -11 -14 -42 -32 -69 -28 -43 -36 -49 -77 -54 -25 -4
-63 -9 -83 -12 -21 -3 -38 -2 -38 3 0 4 36 47 80 96 44 48 80 92 80 97 0 5 -9
15 -20 23 -21 14 16 21 234 40 32 3 29 25 -5 43 -33 17 -40 16 -164 -12 -17
-4 -20 0 -20 32 0 31 -5 41 -30 55 -37 22 -85 34 -85 22z"/>
<path d="M135 758 c4 -13 10 -64 12 -114 l5 -91 -32 -7 c-18 -3 -43 -6 -56 -6
-25 0 -32 -14 -12 -26 6 -4 31 -7 55 -6 l44 0 -3 -91 -3 -91 -74 -26 -75 -27
27 -27 c14 -14 33 -26 41 -26 8 0 48 24 89 53 40 28 95 67 121 85 27 18 46 36
43 38 -3 3 -27 -4 -52 -15 -26 -12 -51 -21 -56 -21 -5 0 -9 36 -9 79 l0 80 55
16 c59 17 67 28 34 45 -14 8 -29 8 -50 1 -33 -11 -32 -13 -29 64 1 27 6 57 11
67 13 25 1 45 -33 57 -49 17 -61 14 -53 -11z"/>
<path d="M697 373 c-11 -55 -158 -196 -277 -266 -31 -18 -39 -27 -25 -27 29 0
118 44 186 92 l60 42 60 -67 c68 -75 89 -84 89 -34 -1 42 -17 61 -79 96 l-51
28 55 52 c30 29 55 56 55 61 0 10 -48 50 -60 50 -4 0 -10 -12 -13 -27z"/>
</g>
</svg>
