<?xml version="1.0" standalone="no"?>
<!DOCTYPE svg PUBLIC "-//W3C//DTD SVG 20010904//EN"
 "http://www.w3.org/TR/2001/REC-SVG-20010904/DTD/svg10.dtd">
<svg version="1.0" xmlns="http://www.w3.org/2000/svg"
 width="90.000000pt" height="92.000000pt" viewBox="0 0 90.000000 92.000000"
 preserveAspectRatio="xMidYMid meet">
<metadata>
Created by potrace 1.16, written by Peter Selinger 2001-2019
</metadata>
<g transform="translate(0.000000,92.000000) scale(0.100000,-0.100000)"
fill="#000000" stroke="none">
<path d="M425 874 c-49 -7 -107 -13 -129 -13 -33 -1 -37 -3 -26 -16 9 -10 32
-15 76 -15 61 0 64 -1 64 -24 0 -23 -3 -23 -107 -29 -61 -3 -112 -1 -118 4
-13 13 -25 11 -25 -3 0 -7 -11 -37 -25 -66 -26 -56 -24 -82 5 -82 12 0 25 17
41 55 12 30 25 52 29 50 6 -4 134 11 178 20 21 5 22 3 22 -62 0 -122 40 -127
46 -7 2 37 9 71 15 74 17 11 212 21 221 12 5 -5 -2 -23 -17 -41 -30 -35 -27
-35 57 -18 82 18 87 27 38 70 -46 42 -39 41 -180 22 -135 -19 -130 -19 -130 9
0 22 6 24 71 34 77 12 91 18 69 32 -19 12 -61 11 -175 -6z"/>
<path d="M548 720 c-21 -22 -34 -40 -30 -40 10 0 105 31 111 36 5 5 -30 44
-38 44 -3 -1 -23 -19 -43 -40z"/>
<path d="M240 705 c0 -2 19 -14 41 -26 45 -23 74 -14 49 16 -11 13 -90 23 -90
10z"/>
<path d="M300 634 c-25 -7 -55 -13 -67 -13 -28 -1 -29 -12 -3 -36 23 -21 44
-14 102 36 36 31 34 32 -32 13z"/>
<path d="M506 641 c-9 -14 94 -65 106 -53 16 16 2 41 -27 52 -32 12 -72 13
-79 1z"/>
<path d="M370 593 c0 -5 9 -22 19 -39 l19 -32 -81 -7 c-74 -6 -80 -8 -62 -21
10 -8 29 -14 41 -14 16 0 26 -10 37 -37 l15 -38 -51 -8 c-29 -5 -67 -10 -86
-13 -26 -4 -31 -8 -22 -17 12 -12 93 -14 138 -2 25 6 25 5 19 -26 -3 -18 -11
-36 -18 -40 -6 -4 -62 -10 -125 -14 -62 -4 -113 -11 -113 -15 0 -4 11 -15 24
-24 22 -14 32 -14 101 -1 108 21 111 21 91 -10 -24 -37 -20 -43 39 -55 30 -6
57 -15 60 -20 7 -12 -125 -77 -174 -85 -23 -4 -41 -11 -41 -16 0 -27 154 8
219 51 l45 29 40 -21 c22 -11 62 -36 90 -55 52 -35 69 -38 74 -9 5 25 -56 80
-113 101 -27 10 -51 19 -53 20 -1 2 12 26 29 54 l32 51 118 0 c68 0 119 4 119
9 0 6 -10 17 -22 25 -18 13 -40 15 -114 10 -76 -6 -96 -4 -115 10 -32 22 -48
20 -42 -4 4 -16 0 -20 -18 -20 -13 0 -41 -3 -63 -7 l-38 -6 16 26 c16 24 16
26 0 35 -14 8 -14 10 7 15 13 3 77 9 142 13 65 4 120 10 123 15 11 19 -51 37
-101 28 -77 -12 -79 -12 -56 17 12 15 21 35 21 45 0 13 7 19 23 19 12 0 29 5
37 10 13 9 13 11 0 20 -14 10 -72 7 -127 -7 -19 -4 -23 -1 -23 16 0 16 -10 26
-35 37 -39 16 -45 17 -45 7z m120 -121 c0 -40 -19 -59 -66 -65 -37 -4 -41 -3
-37 14 3 11 -5 28 -20 43 l-25 25 56 4 c32 2 65 4 75 5 12 2 17 -5 17 -26z
m10 -206 c0 -12 -43 -76 -50 -76 -24 0 -110 23 -110 29 0 4 9 17 20 29 17 18
32 22 80 22 33 0 60 -2 60 -4z"/>
</g>
</svg>
