<?xml version="1.0" standalone="no"?>
<!DOCTYPE svg PUBLIC "-//W3C//DTD SVG 20010904//EN"
 "http://www.w3.org/TR/2001/REC-SVG-20010904/DTD/svg10.dtd">
<svg version="1.0" xmlns="http://www.w3.org/2000/svg"
 width="96.000000pt" height="68.000000pt" viewBox="0 0 96.000000 68.000000"
 preserveAspectRatio="xMidYMid meet">
<metadata>
Created by potrace 1.16, written by Peter Selinger 2001-2019
</metadata>
<g transform="translate(0.000000,68.000000) scale(0.100000,-0.100000)"
fill="#000000" stroke="none">
<path d="M520 555 c0 -2 13 -20 30 -38 l30 -34 -68 -7 c-107 -11 -142 -18
-136 -27 8 -13 74 -11 199 6 61 8 138 15 172 15 67 0 87 12 52 31 -20 10 -72
8 -149 -8 -23 -4 -28 -1 -33 19 -4 14 -18 30 -32 36 -26 12 -65 16 -65 7z"/>
</g>
</svg>
