<?xml version="1.0" standalone="no"?>
<!DOCTYPE svg PUBLIC "-//W3C//DTD SVG 20010904//EN"
 "http://www.w3.org/TR/2001/REC-SVG-20010904/DTD/svg10.dtd">
<svg version="1.0" xmlns="http://www.w3.org/2000/svg"
 width="96.000000pt" height="68.000000pt" viewBox="0 0 96.000000 68.000000"
 preserveAspectRatio="xMidYMid meet">
<metadata>
Created by potrace 1.16, written by Peter Selinger 2001-2019
</metadata>
<g transform="translate(0.000000,68.000000) scale(0.100000,-0.100000)"
fill="#000000" stroke="none">
<path d="M526 597 c-3 -19 -22 -60 -41 -92 -19 -31 -35 -59 -35 -62 0 -8 40
18 67 45 24 24 41 30 112 39 86 11 120 27 86 39 -10 4 -46 0 -81 -8 -66 -16
-73 -13 -51 23 10 17 9 22 -7 35 -30 22 -43 17 -50 -19z"/>
<path d="M270 595 c0 -26 -36 -87 -80 -137 -23 -27 -39 -48 -35 -48 15 0 53
25 90 60 37 34 46 38 115 44 71 6 102 18 87 33 -4 4 -35 2 -70 -4 -34 -6 -64
-9 -66 -7 -1 1 4 13 13 25 14 20 14 23 -2 35 -23 18 -52 17 -52 -1z"/>
<path d="M580 490 c0 -15 62 -71 75 -67 18 6 17 45 -2 55 -32 17 -73 23 -73
12z"/>
<path d="M325 450 c33 -34 43 -37 52 -14 8 21 -22 44 -56 44 l-25 0 29 -30z"/>
</g>
</svg>
