<?xml version="1.0" standalone="no"?>
<!DOCTYPE svg PUBLIC "-//W3C//DTD SVG 20010904//EN"
 "http://www.w3.org/TR/2001/REC-SVG-20010904/DTD/svg10.dtd">
<svg version="1.0" xmlns="http://www.w3.org/2000/svg"
 width="96.000000pt" height="68.000000pt" viewBox="0 0 96.000000 68.000000"
 preserveAspectRatio="xMidYMid meet">
<metadata>
Created by potrace 1.16, written by Peter Selinger 2001-2019
</metadata>
<g transform="translate(0.000000,68.000000) scale(0.100000,-0.100000)"
fill="#000000" stroke="none">
<path d="M350 586 c0 -37 -74 -139 -158 -216 -87 -80 -75 -98 21 -30 l57 39 6
-24 c16 -63 -31 -187 -98 -260 -30 -33 -42 -52 -30 -48 27 11 85 63 107 96 22
35 41 22 50 -34 7 -43 21 -57 38 -40 6 6 42 11 79 11 67 0 68 0 83 33 8 17 20
40 27 49 28 39 -19 48 -150 29 -45 -7 -87 -9 -92 -6 -5 3 -6 15 -1 28 9 23 52
35 139 36 42 1 42 1 74 66 39 78 32 90 -47 79 -164 -21 -162 -21 -162 -4 0 8
23 42 51 75 27 33 51 61 52 63 0 1 21 -9 45 -23 47 -27 74 -31 84 -15 11 18
-15 40 -61 51 -24 6 -44 15 -44 20 0 15 -39 49 -55 49 -9 0 -15 -9 -15 -24z
m120 -223 c0 -10 -5 -34 -10 -54 -10 -36 -10 -36 -77 -42 -37 -4 -68 -5 -69
-4 -2 2 -1 13 3 25 4 17 13 22 42 23 46 1 89 13 76 21 -6 3 -30 2 -55 -2 -48
-9 -53 -8 -56 15 -2 15 54 32 114 34 24 1 32 -3 32 -16z m0 -205 c0 -38 -16
-51 -70 -56 -56 -5 -70 4 -70 45 0 23 16 28 103 31 32 2 37 -1 37 -20z"/>
<path d="M749 429 c2 -83 0 -193 -4 -245 l-7 -94 -34 0 -35 0 33 -40 c37 -44
48 -48 71 -22 13 14 16 54 20 237 3 135 9 231 16 249 14 34 3 50 -39 59 l-25
6 4 -150z"/>
<path d="M388 447 c-37 -10 -52 -27 -24 -27 30 0 121 21 130 30 13 13 -56 11
-106 -3z"/>
<path d="M605 413 c7 -25 14 -106 15 -170 0 -14 6 -23 15 -23 12 0 15 19 15
110 l0 110 -26 0 c-24 0 -25 -3 -19 -27z"/>
</g>
</svg>
