<?xml version="1.0" standalone="no"?>
<!DOCTYPE svg PUBLIC "-//W3C//DTD SVG 20010904//EN"
 "http://www.w3.org/TR/2001/REC-SVG-20010904/DTD/svg10.dtd">
<svg version="1.0" xmlns="http://www.w3.org/2000/svg"
 width="90.000000pt" height="92.000000pt" viewBox="0 0 90.000000 92.000000"
 preserveAspectRatio="xMidYMid meet">
<metadata>
Created by potrace 1.16, written by Peter Selinger 2001-2019
</metadata>
<g transform="translate(0.000000,92.000000) scale(0.100000,-0.100000)"
fill="#000000" stroke="none">
<path d="M584 768 l1 -82 -35 -7 c-110 -21 -103 -22 -96 9 3 15 8 36 11 48 5
17 -1 24 -35 39 -35 16 -43 17 -50 5 -5 -8 -5 -19 -1 -25 5 -5 11 -31 15 -56
l7 -46 -48 -9 -48 -10 33 -17 c19 -10 40 -16 48 -13 11 4 14 -9 14 -68 0 -40
3 -107 6 -149 l7 -77 -44 -1 c-24 0 -62 -4 -84 -8 l-40 -7 32 -20 c30 -19 38
-20 92 -8 91 18 296 36 380 32 82 -3 100 9 57 37 -21 14 -39 16 -96 10 l-70
-7 0 43 c0 24 3 95 7 157 l6 112 36 1 c20 1 47 4 60 8 l25 7 -29 23 c-22 16
-37 21 -59 17 l-29 -6 6 56 c5 50 3 59 -16 75 -12 10 -31 18 -43 19 -20 0 -21
-5 -20 -82z m6 -172 l0 -45 -37 1 c-21 0 -51 -5 -66 -11 -16 -6 -30 -11 -33
-11 -2 0 -4 20 -4 44 0 45 0 45 43 54 23 6 54 10 70 11 26 1 27 -1 27 -43z m0
-113 c0 -37 -1 -38 -37 -39 -21 0 -53 -4 -70 -9 -32 -7 -33 -7 -33 27 0 34 1
35 53 45 88 17 87 17 87 -24z m-2 -148 c-2 -1 -33 -5 -70 -9 l-68 -7 0 36 c0
38 1 38 90 53 l45 8 3 -39 c2 -22 2 -40 0 -42z"/>
<path d="M175 700 c-38 -10 -85 -19 -104 -19 -29 -1 -32 -3 -21 -16 7 -9 29
-15 51 -15 48 0 61 -21 57 -93 l-3 -52 -48 -9 c-26 -4 -47 -12 -47 -17 0 -13
46 -22 75 -15 l25 6 0 -80 0 -80 -75 -22 c-41 -13 -75 -28 -75 -35 0 -13 38
-43 56 -43 15 0 258 148 262 160 4 10 -60 -9 -97 -30 -20 -10 -21 -8 -21 64 0
79 5 86 55 86 29 0 43 19 24 31 -8 5 -27 9 -44 9 l-30 0 0 65 0 66 40 10 c55
15 61 20 40 36 -23 16 -32 15 -120 -7z"/>
<path d="M410 241 c0 -19 -64 -112 -113 -163 -38 -40 -8 -35 50 8 59 44 133
122 133 139 0 7 -14 18 -31 24 -41 14 -39 14 -39 -8z"/>
<path d="M590 241 c0 -5 7 -15 16 -22 9 -7 33 -38 54 -69 66 -97 100 -113 100
-46 0 43 -29 79 -94 116 -52 30 -76 37 -76 21z"/>
</g>
</svg>
