<?xml version="1.0" standalone="no"?>
<!DOCTYPE svg PUBLIC "-//W3C//DTD SVG 20010904//EN"
 "http://www.w3.org/TR/2001/REC-SVG-20010904/DTD/svg10.dtd">
<svg version="1.0" xmlns="http://www.w3.org/2000/svg"
 width="96.000000pt" height="68.000000pt" viewBox="0 0 96.000000 68.000000"
 preserveAspectRatio="xMidYMid meet">
<metadata>
Created by potrace 1.16, written by Peter Selinger 2001-2019
</metadata>
<g transform="translate(0.000000,68.000000) scale(0.100000,-0.100000)"
fill="#000000" stroke="none">
<path d="M550 606 c0 -2 6 -19 14 -37 16 -40 29 -156 18 -163 -4 -2 -24 -7
-45 -11 l-37 -7 0 36 c0 27 -4 36 -17 37 -11 0 -3 7 18 17 20 10 34 23 31 30
-7 21 -43 13 -86 -20 -62 -48 -63 -49 -28 -42 31 6 32 6 32 -29 0 -33 -2 -35
-37 -39 -20 -3 -50 2 -65 9 -15 8 -32 12 -36 9 -5 -3 -7 -30 -4 -60 4 -52 3
-56 -22 -67 -14 -7 -28 -10 -30 -8 -2 2 0 60 4 129 4 69 6 128 3 133 -2 4 -20
7 -39 7 -30 0 -34 -3 -29 -22 2 -13 6 -75 7 -138 l3 -115 -28 -3 c-27 -3 -28
-2 -22 35 4 21 9 46 11 55 5 17 -41 56 -52 45 -5 -5 -11 -57 -17 -147 -2 -41
5 -42 122 -16 57 12 77 14 88 5 21 -18 33 0 45 73 10 65 11 66 37 57 14 -4 35
-7 46 -6 17 2 20 -5 23 -41 4 -55 -5 -65 -75 -87 -51 -16 -55 -19 -38 -31 25
-18 37 -18 74 3 16 10 32 15 35 13 2 -3 2 -25 -1 -49 -6 -41 -7 -43 -35 -37
l-30 6 29 -34 c15 -19 33 -35 40 -35 26 -2 43 43 43 115 0 72 0 73 35 94 19
12 35 24 35 26 0 2 -16 -2 -35 -10 l-35 -15 0 50 c0 47 1 49 28 49 15 0 36 3
48 6 18 5 23 -2 38 -58 10 -35 20 -70 23 -79 3 -10 -11 -27 -38 -48 -46 -34
-40 -40 18 -16 42 18 53 19 53 4 0 -16 89 -107 128 -131 19 -12 37 -17 42 -12
10 10 1 124 -10 124 -4 0 -12 -12 -19 -26 -11 -24 -13 -25 -34 -12 -12 8 -37
34 -55 57 l-32 43 37 39 c44 46 48 68 15 80 -18 7 -24 5 -28 -9 -10 -30 -32
-67 -41 -65 -12 2 -37 89 -30 107 5 12 20 16 62 16 30 0 55 4 55 9 0 16 -42
25 -94 22 l-49 -3 6 86 c6 86 6 87 -19 96 -26 10 -54 13 -54 6z"/>
<path d="M680 527 c0 -12 62 -67 76 -67 18 0 18 34 1 49 -15 12 -77 27 -77 18z"/>
</g>
</svg>
