<?xml version="1.0" standalone="no"?>
<!DOCTYPE svg PUBLIC "-//W3C//DTD SVG 20010904//EN"
 "http://www.w3.org/TR/2001/REC-SVG-20010904/DTD/svg10.dtd">
<svg version="1.0" xmlns="http://www.w3.org/2000/svg"
 width="96.000000pt" height="68.000000pt" viewBox="0 0 96.000000 68.000000"
 preserveAspectRatio="xMidYMid meet">
<metadata>
Created by potrace 1.16, written by Peter Selinger 2001-2019
</metadata>
<g transform="translate(0.000000,68.000000) scale(0.100000,-0.100000)"
fill="#000000" stroke="none">
<path d="M212 562 c-10 -7 -10 -15 -2 -36 5 -15 10 -42 10 -61 0 -31 -3 -34
-37 -39 -21 -4 -48 -4 -60 -2 -27 6 -40 -9 -19 -21 8 -4 20 -31 27 -58 17 -65
21 -70 58 -57 l31 11 0 -48 0 -48 -62 -2 c-35 -1 -64 -4 -66 -5 -2 -2 5 -11
14 -21 21 -21 51 -17 158 21 l79 27 18 -22 c10 -12 24 -19 30 -15 6 3 48 7 93
8 44 2 148 6 230 11 132 7 147 10 130 22 -15 12 -40 13 -117 8 -94 -6 -99 -6
-104 14 -8 30 -45 29 -41 -1 3 -22 -2 -23 -85 -32 -84 -9 -89 -8 -103 12 -8
12 -29 29 -46 38 -29 15 -31 15 -24 -2 7 -19 -8 -34 -36 -34 -14 0 -18 8 -18
34 0 33 1 34 50 41 34 5 50 12 50 21 0 8 9 32 20 54 11 22 20 41 20 43 0 13
-65 29 -96 24 l-36 -6 6 53 c7 54 7 54 -25 65 -18 6 -32 11 -33 11 -1 0 -7 -4
-14 -8z m114 -156 c9 -23 -24 -75 -48 -76 -13 0 -9 78 5 83 23 10 38 7 43 -7z
m-106 -46 c0 -33 -3 -40 -19 -40 -12 0 -22 9 -26 23 -4 12 -9 30 -11 40 -4 13
1 17 25 17 29 0 31 -2 31 -40z"/>
<path d="M606 552 c-83 -11 -124 -12 -135 -5 -14 9 -21 4 -39 -23 -27 -41 -28
-64 -3 -64 12 0 24 11 32 28 13 30 18 32 237 58 57 7 65 -2 36 -44 -18 -26
-20 -26 42 -6 68 23 72 30 33 53 -39 24 -42 24 -203 3z"/>
<path d="M605 450 c-16 -4 -56 -8 -88 -9 -52 -1 -57 -3 -48 -18 5 -10 14 -43
20 -74 l12 -56 106 3 c58 2 106 4 108 6 1 2 9 32 18 68 15 60 15 66 0 78 -18
13 -80 14 -128 2z m83 -37 c3 -18 -4 -21 -59 -27 -102 -10 -119 -8 -119 13 0
16 12 20 78 28 93 12 96 12 100 -14z m-10 -65 c-3 -20 -11 -24 -68 -30 -76 -9
-90 -6 -90 21 0 17 8 21 63 24 34 2 70 4 80 5 14 2 18 -4 15 -20z"/>
<path d="M495 151 c-3 -6 -3 -11 1 -11 4 0 -16 -23 -44 -51 -59 -58 -52 -59
40 -4 63 38 86 65 54 65 -8 0 -21 3 -29 6 -8 3 -18 1 -22 -5z"/>
<path d="M724 93 c61 -60 69 -65 78 -49 14 24 -15 63 -68 93 -78 43 -82 27
-10 -44z"/>
</g>
</svg>
