<?xml version="1.0" standalone="no"?>
<!DOCTYPE svg PUBLIC "-//W3C//DTD SVG 20010904//EN"
 "http://www.w3.org/TR/2001/REC-SVG-20010904/DTD/svg10.dtd">
<svg version="1.0" xmlns="http://www.w3.org/2000/svg"
 width="96.000000pt" height="68.000000pt" viewBox="0 0 96.000000 68.000000"
 preserveAspectRatio="xMidYMid meet">
<metadata>
Created by potrace 1.16, written by Peter Selinger 2001-2019
</metadata>
<g transform="translate(0.000000,68.000000) scale(0.100000,-0.100000)"
fill="#000000" stroke="none">
<path d="M504 565 c-7 -39 -73 -156 -112 -197 -19 -21 -22 -28 -10 -28 8 0 23
9 33 20 34 38 38 25 31 -117 -11 -203 -11 -202 6 -220 15 -14 17 -14 26 4 16
29 18 334 3 362 -10 18 -10 26 3 44 34 47 86 128 86 134 0 9 -33 32 -47 33 -7
0 -15 -16 -19 -35z"/>
</g>
</svg>
