<?xml version="1.0" standalone="no"?>
<!DOCTYPE svg PUBLIC "-//W3C//DTD SVG 20010904//EN"
 "http://www.w3.org/TR/2001/REC-SVG-20010904/DTD/svg10.dtd">
<svg version="1.0" xmlns="http://www.w3.org/2000/svg"
 width="96.000000pt" height="68.000000pt" viewBox="0 0 96.000000 68.000000"
 preserveAspectRatio="xMidYMid meet">
<metadata>
Created by potrace 1.16, written by Peter Selinger 2001-2019
</metadata>
<g transform="translate(0.000000,68.000000) scale(0.100000,-0.100000)"
fill="#000000" stroke="none">
<path d="M305 524 c-33 -8 -77 -12 -98 -9 -35 5 -37 4 -27 -14 12 -24 13 -161
1 -194 -17 -44 -1 -52 73 -33 36 9 79 16 95 16 16 0 33 5 37 12 5 8 -8 9 -52
4 -32 -4 -70 -8 -84 -9 l-25 -2 4 95 c2 52 5 96 6 98 2 2 18 3 36 4 19 0 50 4
69 8 19 4 48 11 63 14 15 4 25 11 22 16 -8 13 -45 11 -120 -6z"/>
</g>
</svg>
