<?xml version="1.0" standalone="no"?>
<!DOCTYPE svg PUBLIC "-//W3C//DTD SVG 20010904//EN"
 "http://www.w3.org/TR/2001/REC-SVG-20010904/DTD/svg10.dtd">
<svg version="1.0" xmlns="http://www.w3.org/2000/svg"
 width="96.000000pt" height="68.000000pt" viewBox="0 0 96.000000 68.000000"
 preserveAspectRatio="xMidYMid meet">
<metadata>
Created by potrace 1.16, written by Peter Selinger 2001-2019
</metadata>
<g transform="translate(0.000000,68.000000) scale(0.100000,-0.100000)"
fill="#000000" stroke="none">
<path d="M504 588 l1 -53 -44 -3 -43 -3 6 35 c6 33 4 37 -19 46 -51 19 -56 15
-49 -39 l6 -50 -53 -3 c-69 -4 -70 -22 -1 -26 48 -3 52 -5 52 -28 0 -23 -2
-24 -82 -24 l-81 0 21 -23 c12 -13 22 -32 22 -44 0 -22 19 -84 29 -95 4 -4 22
-4 41 1 58 15 311 23 326 10 7 -6 18 -7 25 -3 12 7 79 145 79 162 0 18 -54 29
-119 24 -61 -4 -63 -4 -52 16 8 14 25 22 61 27 81 11 76 40 -7 36 -44 -1 -45
-1 -38 28 8 36 -15 61 -55 61 -27 0 -28 -1 -26 -52z m6 -94 c0 -3 -5 -14 -10
-25 -15 -28 -90 -28 -90 0 0 20 17 27 73 30 15 0 27 -2 27 -5z m150 -70 c0
-22 -4 -24 -56 -24 -47 0 -55 3 -50 16 3 9 6 20 6 26 0 6 13 8 30 6 17 -3 30
-1 30 3 0 4 9 5 20 2 13 -3 20 -14 20 -29z m-160 -8 c0 -18 -7 -25 -31 -30
-51 -10 -59 -8 -59 18 0 25 8 29 63 34 22 2 27 -2 27 -22z m-140 -21 c0 -22
-4 -25 -39 -25 -30 0 -40 4 -44 19 -7 27 0 31 45 31 34 0 38 -3 38 -25z m288
-37 c-3 -20 -11 -24 -56 -28 -49 -5 -53 -4 -50 14 3 21 32 33 81 35 24 1 28
-3 25 -21z m-160 -33 c-2 -2 -19 -5 -38 -7 -30 -2 -35 0 -38 19 -3 19 2 22 35
25 30 2 39 -1 41 -15 2 -10 2 -20 0 -22z m-128 5 c0 -16 -7 -20 -34 -20 -25 0
-35 5 -39 20 -4 17 0 20 34 20 32 0 39 -3 39 -20z"/>
<path d="M500 249 c-19 -5 -69 -10 -110 -11 l-75 -3 0 -90 c0 -96 8 -123 30
-105 7 6 55 13 106 17 l94 6 10 -29 11 -29 28 28 c27 27 28 32 22 93 -4 38 -2
72 4 84 8 15 6 22 -12 34 -25 17 -54 19 -108 5z m64 -35 c3 -9 6 -40 6 -70 l0
-54 -33 0 c-19 0 -68 -3 -109 -6 l-75 -7 4 30 5 31 99 7 c54 3 99 11 99 16 0
11 -73 11 -147 0 -53 -7 -53 -7 -53 20 0 26 4 28 48 34 26 3 54 8 62 9 44 10
88 5 94 -10z"/>
</g>
</svg>
