<?xml version="1.0" standalone="no"?>
<!DOCTYPE svg PUBLIC "-//W3C//DTD SVG 20010904//EN"
 "http://www.w3.org/TR/2001/REC-SVG-20010904/DTD/svg10.dtd">
<svg version="1.0" xmlns="http://www.w3.org/2000/svg"
 width="96.000000pt" height="68.000000pt" viewBox="0 0 96.000000 68.000000"
 preserveAspectRatio="xMidYMid meet">
<metadata>
Created by potrace 1.16, written by Peter Selinger 2001-2019
</metadata>
<g transform="translate(0.000000,68.000000) scale(0.100000,-0.100000)"
fill="#000000" stroke="none">
<path d="M580 554 c-47 -7 -112 -13 -144 -13 -56 -1 -58 -2 -43 -19 9 -9 24
-49 35 -87 15 -58 21 -70 38 -68 10 1 64 4 119 6 l100 4 32 69 c17 38 32 76
32 86 1 15 -48 40 -73 37 -6 -1 -49 -7 -96 -15z m90 -44 c0 -19 -5 -30 -14
-30 -7 0 -28 -3 -45 -6 -29 -6 -31 -5 -31 24 0 33 9 40 58 41 29 1 32 -2 32
-29z m-140 -20 c0 -28 -2 -30 -39 -30 -33 0 -39 3 -43 25 -7 32 -2 35 44 35
36 0 38 -2 38 -30z m126 -76 c-3 -8 -19 -14 -41 -14 -30 0 -35 3 -35 24 0 21
5 25 38 28 38 3 49 -8 38 -38z m-126 1 c0 -21 -5 -25 -29 -25 -26 0 -41 14
-41 41 0 5 16 9 35 9 31 0 35 -3 35 -25z"/>
</g>
</svg>
