<?xml version="1.0" standalone="no"?>
<!DOCTYPE svg PUBLIC "-//W3C//DTD SVG 20010904//EN"
 "http://www.w3.org/TR/2001/REC-SVG-20010904/DTD/svg10.dtd">
<svg version="1.0" xmlns="http://www.w3.org/2000/svg"
 width="96.000000pt" height="68.000000pt" viewBox="0 0 96.000000 68.000000"
 preserveAspectRatio="xMidYMid meet">
<metadata>
Created by potrace 1.16, written by Peter Selinger 2001-2019
</metadata>
<g transform="translate(0.000000,68.000000) scale(0.100000,-0.100000)"
fill="#000000" stroke="none">
<path d="M225 440 c-11 -5 -46 -9 -77 -9 l-57 -1 18 -32 c10 -18 22 -54 26
-80 6 -46 25 -74 33 -50 2 7 14 12 27 12 57 0 85 12 85 36 0 13 7 42 16 64 9
22 14 47 10 55 -6 16 -48 19 -81 5z m22 -71 c-4 -29 -8 -53 -9 -54 -2 -2 -17
-6 -35 -9 -31 -7 -31 -7 -42 44 -6 28 -11 53 -11 55 0 5 38 12 74 14 l29 1 -6
-51z"/>
</g>
</svg>
