<?xml version="1.0" standalone="no"?>
<!DOCTYPE svg PUBLIC "-//W3C//DTD SVG 20010904//EN"
 "http://www.w3.org/TR/2001/REC-SVG-20010904/DTD/svg10.dtd">
<svg version="1.0" xmlns="http://www.w3.org/2000/svg"
 width="96.000000pt" height="68.000000pt" viewBox="0 0 96.000000 68.000000"
 preserveAspectRatio="xMidYMid meet">
<metadata>
Created by potrace 1.16, written by Peter Selinger 2001-2019
</metadata>
<g transform="translate(0.000000,68.000000) scale(0.100000,-0.100000)"
fill="#000000" stroke="none">
<path d="M525 583 c4 -10 10 -47 13 -82 3 -47 1 -66 -9 -72 -22 -14 -127 -11
-132 4 -4 8 -12 4 -26 -13 -34 -42 -46 -69 -34 -81 15 -15 41 -1 54 30 l13 28
170 15 c94 9 175 13 179 11 4 -3 1 -16 -8 -29 -18 -27 -12 -29 51 -13 50 13
56 29 18 54 -22 14 -39 15 -117 8 -51 -4 -96 -8 -102 -8 -6 0 -10 33 -10 80
l0 80 -34 3 c-29 3 -33 1 -26 -15z"/>
<path d="M661 515 c-18 -20 -31 -38 -29 -41 9 -8 108 39 108 51 0 12 -21 25
-39 25 -3 0 -22 -16 -40 -35z"/>
<path d="M435 490 c31 -32 55 -39 55 -16 0 17 -42 46 -67 46 -13 0 -11 -6 12
-30z"/>
<path d="M215 445 c-22 -7 -62 -14 -90 -15 -38 0 -46 -3 -33 -10 10 -6 23 -39
33 -84 16 -72 39 -103 51 -71 5 11 22 15 61 15 45 0 54 3 49 15 -8 22 5 76 17
68 5 -3 7 -1 3 5 -3 6 -1 22 6 37 20 44 -27 63 -97 40z m35 -42 c0 -10 -5 -35
-11 -55 -8 -33 -14 -38 -38 -38 -24 0 -30 5 -35 31 -11 59 -8 67 27 72 17 2
38 5 45 5 6 1 12 -6 12 -15z"/>
<path d="M526 366 c-75 -9 -87 -13 -74 -24 9 -7 19 -29 23 -48 4 -24 11 -34
20 -31 7 3 45 9 84 13 39 3 71 11 71 16 0 6 9 23 21 40 12 16 19 31 16 34 -11
11 -77 11 -161 0z m104 -19 c0 -33 -26 -49 -81 -50 -49 -2 -54 0 -57 20 -3 18
3 23 35 28 21 4 45 8 53 10 34 7 50 4 50 -8z"/>
<path d="M605 235 c-49 -7 -123 -14 -163 -14 l-72 -1 14 -22 c8 -13 20 -52 27
-88 13 -73 22 -88 41 -72 8 6 54 11 103 12 118 2 112 3 118 -20 6 -25 38 -26
60 -2 9 9 21 47 27 84 5 37 13 74 17 84 7 20 -32 54 -62 53 -11 -1 -60 -7
-110 -14z m100 -23 c6 -4 11 -17 13 -29 3 -20 -1 -21 -62 -21 -59 0 -64 2 -69
24 -2 13 -2 26 1 29 8 8 106 6 117 -3z m-165 -42 c0 -13 -11 -19 -46 -24 -54
-7 -64 -3 -64 29 0 21 5 24 43 27 47 3 67 -6 67 -32z m176 -36 c-3 -9 -6 -24
-6 -34 0 -16 -8 -19 -65 -19 -62 0 -65 1 -65 24 0 26 11 31 80 38 19 2 41 5
49 5 8 1 11 -4 7 -14z m-178 -36 c3 -27 1 -28 -41 -28 -32 0 -47 5 -51 16 -10
27 -7 33 22 37 53 8 67 3 70 -25z"/>
</g>
</svg>
