<?xml version="1.0" standalone="no"?>
<!DOCTYPE svg PUBLIC "-//W3C//DTD SVG 20010904//EN"
 "http://www.w3.org/TR/2001/REC-SVG-20010904/DTD/svg10.dtd">
<svg version="1.0" xmlns="http://www.w3.org/2000/svg"
 width="96.000000pt" height="68.000000pt" viewBox="0 0 96.000000 68.000000"
 preserveAspectRatio="xMidYMid meet">
<metadata>
Created by potrace 1.16, written by Peter Selinger 2001-2019
</metadata>
<g transform="translate(0.000000,68.000000) scale(0.100000,-0.100000)"
fill="#000000" stroke="none">
<path d="M535 581 c8 -17 20 -33 26 -37 18 -11 -11 -24 -56 -24 -22 0 -47 -5
-55 -10 -12 -8 -11 -10 6 -10 15 0 28 -12 42 -39 11 -21 18 -42 15 -45 -4 -3
-33 -6 -65 -6 -37 0 -57 -4 -53 -10 9 -14 71 -12 200 5 61 8 133 15 162 15 28
0 54 4 58 9 9 16 -35 23 -101 16 -35 -4 -64 -4 -64 0 0 3 9 15 20 27 15 16 17
25 9 35 -9 10 -6 13 15 13 14 0 26 4 26 9 0 13 -37 20 -76 14 -26 -4 -34 -2
-34 10 0 20 -47 57 -72 57 -17 0 -18 -2 -3 -29z m93 -102 c3 -33 -7 -45 -45
-52 -25 -5 -33 -3 -33 8 0 8 -9 24 -20 35 -23 23 -18 27 40 33 50 5 55 3 58
-24z"/>
<path d="M247 506 l6 -84 -29 -6 c-16 -3 -46 -8 -66 -12 -21 -3 -38 -10 -38
-14 0 -13 49 -21 86 -14 19 3 34 2 34 -3 0 -20 -78 -130 -119 -166 -24 -21
-40 -41 -38 -44 12 -11 81 33 122 79 l45 50 0 -30 c0 -17 -5 -65 -11 -108 -8
-57 -7 -84 2 -105 6 -16 15 -29 19 -29 22 0 32 39 37 155 l6 126 23 -22 c26
-24 54 -19 54 10 0 13 -13 24 -40 35 -31 12 -40 21 -40 39 0 19 8 26 40 36 22
6 40 16 40 21 0 12 -45 24 -63 17 -9 -3 -11 10 -7 60 6 69 -6 93 -47 93 -20 0
-21 -4 -16 -84z"/>
<path d="M605 370 c-16 -4 -65 -8 -107 -9 -77 -1 -89 -6 -66 -29 6 -6 18 -33
27 -59 l16 -48 43 3 c36 3 42 1 42 -16 0 -23 -31 -31 -132 -33 -73 -2 -90 -14
-33 -25 32 -6 60 -3 138 12 l27 6 0 -65 c0 -101 18 -128 38 -58 7 21 12 57 12
80 l0 41 109 0 c102 0 136 8 116 28 -4 4 -51 6 -106 5 -89 -3 -101 -1 -120 18
l-21 21 59 -4 58 -3 32 60 c29 55 31 61 16 73 -18 13 -99 14 -148 2z m84 -19
c26 -17 1 -29 -76 -35 -43 -4 -90 -9 -105 -12 -23 -5 -28 -2 -28 14 0 17 10
21 73 30 97 13 120 13 136 3z m1 -53 c0 -22 -14 -34 -40 -34 -14 0 -54 -4 -90
-8 -61 -7 -66 -6 -67 12 -1 17 9 20 90 29 51 5 95 10 100 11 4 1 7 -4 7 -10z"/>
</g>
</svg>
