<?xml version="1.0" standalone="no"?>
<!DOCTYPE svg PUBLIC "-//W3C//DTD SVG 20010904//EN"
 "http://www.w3.org/TR/2001/REC-SVG-20010904/DTD/svg10.dtd">
<svg version="1.0" xmlns="http://www.w3.org/2000/svg"
 width="96.000000pt" height="68.000000pt" viewBox="0 0 96.000000 68.000000"
 preserveAspectRatio="xMidYMid meet">
<metadata>
Created by potrace 1.16, written by Peter Selinger 2001-2019
</metadata>
<g transform="translate(0.000000,68.000000) scale(0.100000,-0.100000)"
fill="#000000" stroke="none">
<path d="M548 133 c13 -13 20 -23 17 -23 -3 0 3 -9 13 -20 12 -13 26 -18 38
-14 14 4 15 3 5 -4 -8 -6 -9 -12 -3 -16 6 -3 14 -1 17 5 10 16 -16 61 -32 55
-7 -3 -13 1 -13 9 0 9 -9 15 -23 15 -13 0 -27 3 -33 8 -5 4 1 -3 14 -15z"/>
</g>
</svg>
