<?xml version="1.0" standalone="no"?>
<!DOCTYPE svg PUBLIC "-//W3C//DTD SVG 20010904//EN"
 "http://www.w3.org/TR/2001/REC-SVG-20010904/DTD/svg10.dtd">
<svg version="1.0" xmlns="http://www.w3.org/2000/svg"
 width="96.000000pt" height="68.000000pt" viewBox="0 0 96.000000 68.000000"
 preserveAspectRatio="xMidYMid meet">
<metadata>
Created by potrace 1.16, written by Peter Selinger 2001-2019
</metadata>
<g transform="translate(0.000000,68.000000) scale(0.100000,-0.100000)"
fill="#000000" stroke="none">
<path d="M460 560 c-25 -4 -59 -5 -76 -3 l-32 5 11 -40 c8 -29 8 -64 0 -124
-6 -46 -8 -87 -3 -92 4 -4 31 -3 60 3 28 6 83 11 123 11 60 1 69 3 55 13 -12
10 -39 11 -104 5 -51 -4 -92 -4 -98 2 -5 5 -5 50 -1 103 l7 94 75 6 c42 3 80
10 86 16 13 13 -31 13 -103 1z"/>
</g>
</svg>
