<?xml version="1.0" standalone="no"?>
<!DOCTYPE svg PUBLIC "-//W3C//DTD SVG 20010904//EN"
 "http://www.w3.org/TR/2001/REC-SVG-20010904/DTD/svg10.dtd">
<svg version="1.0" xmlns="http://www.w3.org/2000/svg"
 width="90.000000pt" height="92.000000pt" viewBox="0 0 90.000000 92.000000"
 preserveAspectRatio="xMidYMid meet">
<metadata>
Created by potrace 1.16, written by Peter Selinger 2001-2019
</metadata>
<g transform="translate(0.000000,92.000000) scale(0.100000,-0.100000)"
fill="#000000" stroke="none">
<path d="M160 861 c0 -5 4 -21 10 -36 16 -43 16 -215 -1 -225 -7 -5 -44 -14
-81 -21 -38 -7 -68 -16 -68 -20 0 -15 49 -22 101 -15 27 4 49 3 49 -1 0 -24
-87 -176 -126 -221 -50 -57 -53 -77 -7 -44 38 27 65 57 108 122 l37 55 -7 -85
c-3 -47 -11 -117 -17 -156 -8 -57 -8 -77 3 -99 39 -79 59 -16 59 181 l0 153
30 -17 c21 -12 32 -14 40 -6 18 18 0 43 -36 50 -34 6 -35 8 -32 47 3 37 6 42
36 51 50 14 37 46 -19 46 -18 0 -20 5 -15 43 19 156 19 173 -8 190 -28 19 -56
22 -56 8z"/>
<path d="M417 765 c-10 -23 -32 -60 -50 -81 -67 -81 -66 -79 -30 -61 47 25
153 126 153 147 0 11 -11 22 -28 28 -26 9 -29 7 -45 -33z"/>
<path d="M610 708 c-25 -5 -55 -12 -67 -14 -31 -6 -29 -22 4 -30 28 -7 181 10
192 22 10 10 -32 34 -58 33 -14 -1 -46 -6 -71 -11z"/>
<path d="M419 588 c0 -2 -2 -11 -4 -21 -6 -31 -55 -107 -116 -178 -33 -38 -56
-69 -52 -69 4 0 34 20 66 45 31 25 57 42 57 38 1 -5 3 -24 6 -44 3 -20 1 -69
-5 -109 -10 -74 0 -125 23 -117 21 7 35 284 15 304 -7 7 3 27 35 66 l46 56
-22 16 c-20 13 -46 20 -49 13z"/>
<path d="M700 560 c-41 -10 -110 -24 -152 -31 -43 -7 -78 -16 -78 -21 0 -18
48 -26 94 -16 35 7 51 7 59 -1 8 -8 13 -65 15 -159 4 -174 -1 -187 -63 -172
-22 5 -40 8 -41 7 -1 -1 20 -26 47 -56 51 -57 66 -60 94 -18 12 20 16 59 17
211 0 102 -2 189 -6 193 -17 17 0 23 62 23 79 0 112 8 112 25 0 13 -51 36 -74
34 -6 -1 -45 -9 -86 -19z"/>
</g>
</svg>
