<?xml version="1.0" standalone="no"?>
<!DOCTYPE svg PUBLIC "-//W3C//DTD SVG 20010904//EN"
 "http://www.w3.org/TR/2001/REC-SVG-20010904/DTD/svg10.dtd">
<svg version="1.0" xmlns="http://www.w3.org/2000/svg"
 width="96.000000pt" height="68.000000pt" viewBox="0 0 96.000000 68.000000"
 preserveAspectRatio="xMidYMid meet">
<metadata>
Created by potrace 1.16, written by Peter Selinger 2001-2019
</metadata>
<g transform="translate(0.000000,68.000000) scale(0.100000,-0.100000)"
fill="#000000" stroke="none">
<path d="M247 530 l6 -98 -52 -11 c-29 -6 -61 -11 -72 -11 -12 0 -19 -5 -16
-12 3 -9 24 -12 66 -11 33 1 61 -2 61 -7 0 -18 -74 -117 -116 -157 -25 -22
-41 -43 -36 -46 12 -8 92 47 130 90 l34 38 -6 -40 c-17 -129 -17 -180 -2 -200
13 -18 16 -19 31 -4 12 11 17 45 22 132 6 111 7 116 26 106 13 -8 22 -8 29 -1
16 16 2 40 -24 44 -17 2 -24 11 -26 31 -2 15 1 28 7 28 6 1 15 2 21 3 5 0 15
7 21 13 10 10 6 15 -20 24 -31 11 -32 12 -26 58 3 25 8 55 10 66 6 28 -6 44
-42 54 l-31 9 5 -98z"/>
<path d="M468 546 c-7 -13 -30 -43 -51 -65 -21 -23 -33 -41 -28 -41 18 0 136
96 136 111 0 26 -43 22 -57 -5z"/>
<path d="M600 498 c-64 -15 -26 -27 64 -21 75 5 90 9 81 24 -8 12 -87 10 -145
-3z"/>
<path d="M459 386 c-7 -17 -42 -60 -78 -94 -59 -57 -54 -69 8 -21 37 29 44 15
37 -75 -6 -81 1 -115 24 -101 8 5 11 42 9 122 l-3 116 32 26 c38 31 41 47 8
53 -20 4 -27 -1 -37 -26z"/>
<path d="M769 406 c-2 -3 -59 -12 -127 -22 -128 -18 -172 -42 -58 -31 l64 6 6
-37 c3 -20 6 -74 6 -118 0 -87 -10 -108 -45 -93 -44 17 -46 7 -5 -32 34 -32
47 -39 59 -32 34 21 41 56 39 185 -1 107 -4 128 -17 131 -9 3 7 6 34 8 69 4
108 7 120 8 6 1 1 8 -9 16 -19 14 -57 20 -67 11z"/>
</g>
</svg>
