<?xml version="1.0" standalone="no"?>
<!DOCTYPE svg PUBLIC "-//W3C//DTD SVG 20010904//EN"
 "http://www.w3.org/TR/2001/REC-SVG-20010904/DTD/svg10.dtd">
<svg version="1.0" xmlns="http://www.w3.org/2000/svg"
 width="96.000000pt" height="68.000000pt" viewBox="0 0 96.000000 68.000000"
 preserveAspectRatio="xMidYMid meet">
<metadata>
Created by potrace 1.16, written by Peter Selinger 2001-2019
</metadata>
<g transform="translate(0.000000,68.000000) scale(0.100000,-0.100000)"
fill="#000000" stroke="none">
<path d="M665 384 c-33 -7 -80 -13 -105 -14 l-46 0 4 -71 c3 -45 -2 -95 -12
-140 -18 -71 -15 -109 8 -109 12 0 30 51 38 105 3 16 13 21 58 26 30 4 72 10
94 14 l38 8 -7 -54 c-9 -66 -14 -73 -48 -60 -35 14 -34 9 6 -28 67 -64 81 -39
87 158 6 192 7 191 -115 165z m65 -48 l0 -33 -70 -7 c-39 -3 -76 -7 -83 -9
-15 -3 -20 33 -8 52 9 14 66 27 129 30 30 1 32 -1 32 -33z m10 -85 c0 -27 -3
-29 -52 -35 -29 -3 -70 -9 -91 -12 l-38 -7 3 33 c3 33 4 33 63 37 33 3 62 7
64 9 2 2 15 4 28 4 19 0 23 -5 23 -29z"/>
</g>
</svg>
