<?xml version="1.0" standalone="no"?>
<!DOCTYPE svg PUBLIC "-//W3C//DTD SVG 20010904//EN"
 "http://www.w3.org/TR/2001/REC-SVG-20010904/DTD/svg10.dtd">
<svg version="1.0" xmlns="http://www.w3.org/2000/svg"
 width="96.000000pt" height="68.000000pt" viewBox="0 0 96.000000 68.000000"
 preserveAspectRatio="xMidYMid meet">
<metadata>
Created by potrace 1.16, written by Peter Selinger 2001-2019
</metadata>
<g transform="translate(0.000000,68.000000) scale(0.100000,-0.100000)"
fill="#000000" stroke="none">
<path d="M530 587 c0 -22 30 -57 50 -57 32 0 35 22 6 47 -30 25 -56 30 -56 10z"/>
<path d="M689 535 c-3 -2 -50 -9 -105 -15 -54 -6 -115 -13 -134 -17 l-35 -6
29 -8 c27 -8 278 15 297 27 15 9 0 24 -25 24 -12 0 -25 -2 -27 -5z"/>
</g>
</svg>
