<?xml version="1.0" standalone="no"?>
<!DOCTYPE svg PUBLIC "-//W3C//DTD SVG 20010904//EN"
 "http://www.w3.org/TR/2001/REC-SVG-20010904/DTD/svg10.dtd">
<svg version="1.0" xmlns="http://www.w3.org/2000/svg"
 width="90.000000pt" height="92.000000pt" viewBox="0 0 90.000000 92.000000"
 preserveAspectRatio="xMidYMid meet">
<metadata>
Created by potrace 1.16, written by Peter Selinger 2001-2019
</metadata>
<g transform="translate(0.000000,92.000000) scale(0.100000,-0.100000)"
fill="#000000" stroke="none">
<path d="M450 830 c0 -36 -42 -132 -87 -197 -24 -36 -42 -67 -40 -69 2 -3 26
15 53 39 53 47 38 44 245 63 82 8 80 11 87 -156 5 -136 -8 -249 -35 -306 -18
-38 -33 -40 -102 -19 -22 7 -21 3 18 -53 22 -33 45 -63 50 -66 16 -10 68 42
92 91 20 41 23 69 31 257 4 116 9 224 10 241 3 25 -3 33 -34 50 -36 19 -38 19
-107 2 -38 -10 -96 -21 -127 -24 l-58 -6 23 34 c12 19 30 49 39 68 16 32 16
33 -7 52 -30 24 -51 24 -51 -1z"/>
<path d="M166 771 c-6 -10 50 -78 75 -92 37 -19 62 19 36 54 -14 20 -104 50
-111 38z"/>
<path d="M60 611 c0 -6 20 -31 44 -56 49 -51 76 -53 76 -3 0 23 -6 32 -33 43
-53 22 -87 28 -87 16z"/>
<path d="M480 575 c0 -8 -7 -30 -16 -49 l-17 -34 -43 18 c-33 14 -42 16 -38 5
3 -8 17 -21 30 -30 13 -8 24 -19 24 -23 0 -5 -16 -27 -36 -50 -43 -51 -32 -54
24 -7 l41 35 33 -20 c41 -25 48 -25 48 -1 0 11 -12 28 -27 39 l-27 20 27 35
c32 42 33 53 8 67 -26 13 -31 13 -31 -5z"/>
<path d="M559 513 c0 -5 0 -43 1 -85 l1 -78 -28 0 c-15 0 -65 -9 -111 -20 -46
-11 -86 -20 -89 -20 -3 0 -2 27 1 61 6 50 4 64 -10 80 -26 29 -33 23 -32 -25
0 -24 -5 -67 -13 -95 -11 -44 -11 -53 2 -66 13 -13 19 -12 55 5 22 11 79 28
127 39 l87 19 0 -29 c0 -40 26 -38 39 4 9 28 31 161 31 185 0 5 -11 14 -25 20
-30 14 -35 15 -36 5z"/>
<path d="M181 388 c-18 -34 -51 -80 -72 -103 -37 -40 -38 -44 -28 -76 7 -19
16 -40 22 -46 11 -15 27 -17 27 -3 0 5 23 71 50 145 54 145 54 145 43 145 -5
0 -23 -28 -42 -62z"/>
</g>
</svg>
