<?xml version="1.0" standalone="no"?>
<!DOCTYPE svg PUBLIC "-//W3C//DTD SVG 20010904//EN"
 "http://www.w3.org/TR/2001/REC-SVG-20010904/DTD/svg10.dtd">
<svg version="1.0" xmlns="http://www.w3.org/2000/svg"
 width="96.000000pt" height="68.000000pt" viewBox="0 0 96.000000 68.000000"
 preserveAspectRatio="xMidYMid meet">
<metadata>
Created by potrace 1.16, written by Peter Selinger 2001-2019
</metadata>
<g transform="translate(0.000000,68.000000) scale(0.100000,-0.100000)"
fill="#000000" stroke="none">
<path d="M482 615 c33 -28 29 -30 -77 -40 -38 -3 -90 -9 -114 -12 l-44 -6 23
-17 c22 -16 23 -22 17 -91 -12 -143 -78 -331 -140 -396 -36 -40 -1 -25 40 17
77 76 130 220 148 402 6 56 10 67 29 72 11 4 94 11 184 18 89 6 162 15 162 20
0 14 -50 21 -105 15 -46 -5 -55 -3 -60 13 -6 18 -33 30 -70 30 -18 -1 -17 -3
7 -25z"/>
</g>
</svg>
