<?xml version="1.0" standalone="no"?>
<!DOCTYPE svg PUBLIC "-//W3C//DTD SVG 20010904//EN"
 "http://www.w3.org/TR/2001/REC-SVG-20010904/DTD/svg10.dtd">
<svg version="1.0" xmlns="http://www.w3.org/2000/svg"
 width="96.000000pt" height="68.000000pt" viewBox="0 0 96.000000 68.000000"
 preserveAspectRatio="xMidYMid meet">
<metadata>
Created by potrace 1.16, written by Peter Selinger 2001-2019
</metadata>
<g transform="translate(0.000000,68.000000) scale(0.100000,-0.100000)"
fill="#000000" stroke="none">
<path d="M436 202 l6 -41 -72 -7 c-86 -8 -73 -28 16 -22 l54 3 0 -31 c0 -27
-4 -32 -31 -38 -17 -3 -64 -6 -103 -7 -39 0 -89 -4 -111 -8 -39 -8 -40 -8 -12
-16 15 -4 119 -2 230 4 111 6 245 11 297 11 88 1 94 2 75 16 -17 14 -41 15
-157 10 l-138 -7 0 34 c0 32 3 35 38 41 20 3 51 6 69 6 17 0 34 4 37 9 10 16
-26 22 -87 15 -55 -6 -59 -6 -53 12 8 26 -4 41 -37 49 -27 7 -28 7 -21 -33z"/>
</g>
</svg>
