<?xml version="1.0" standalone="no"?>
<!DOCTYPE svg PUBLIC "-//W3C//DTD SVG 20010904//EN"
 "http://www.w3.org/TR/2001/REC-SVG-20010904/DTD/svg10.dtd">
<svg version="1.0" xmlns="http://www.w3.org/2000/svg"
 width="90.000000pt" height="92.000000pt" viewBox="0 0 90.000000 92.000000"
 preserveAspectRatio="xMidYMid meet">
<metadata>
Created by potrace 1.16, written by Peter Selinger 2001-2019
</metadata>
<g transform="translate(0.000000,92.000000) scale(0.100000,-0.100000)"
fill="#000000" stroke="none">
<path d="M610 809 c-58 -10 -138 -19 -177 -20 -40 0 -73 -3 -73 -5 0 -3 7 -15
15 -28 9 -13 23 -63 31 -112 16 -89 31 -125 44 -104 8 12 173 32 235 28 44 -3
42 -6 92 158 l19 61 -35 19 c-20 10 -38 18 -41 19 -3 1 -52 -7 -110 -16z m90
-61 l0 -33 -59 -3 -58 -2 5 27 c6 36 18 43 70 43 41 0 42 -1 42 -32z m-160
-12 c0 -38 -12 -46 -66 -46 -20 0 -34 5 -34 13 0 6 -3 22 -6 34 -5 20 -2 22
37 26 24 2 50 4 57 5 7 1 12 -11 12 -32z m153 -88 c-3 -18 -7 -35 -9 -36 -1
-2 -25 -5 -53 -7 l-51 -2 0 33 c0 35 9 40 82 43 37 1 37 1 31 -31z m-153 -23
c0 -35 0 -35 -45 -35 -45 0 -45 0 -45 35 0 35 0 35 45 35 45 0 45 0 45 -35z"/>
<path d="M140 774 c0 -3 4 -13 9 -22 5 -9 11 -41 13 -70 7 -70 -5 -82 -82 -82
l-59 0 13 -32 c8 -18 16 -53 20 -78 9 -65 14 -69 64 -60 l42 7 0 -68 0 -67
-47 -10 c-25 -6 -52 -8 -60 -5 -7 3 -20 2 -29 -1 -15 -6 -15 -8 2 -27 37 -41
47 -41 145 5 136 63 135 63 148 24 12 -32 13 -32 27 -13 25 33 2 98 -46 132
-26 18 -35 12 -21 -15 20 -38 16 -44 -54 -66 -19 -5 -20 -2 -17 54 4 65 5 66
82 72 20 2 34 8 33 15 -2 6 9 37 22 68 14 30 25 59 25 63 0 5 -15 16 -34 25
-26 12 -42 14 -68 7 -59 -18 -57 -24 -36 104 2 13 -6 24 -22 33 -25 13 -70 18
-70 7z m142 -229 c-1 -27 -3 -49 -5 -51 -1 -1 -17 -5 -34 -9 l-33 -7 0 56 c0
52 1 55 28 59 44 6 47 2 44 -48z m-122 -19 c0 -47 -3 -54 -22 -60 -45 -12 -48
-8 -48 48 0 56 4 62 53 65 14 1 17 -8 17 -53z"/>
<path d="M565 504 c-38 -8 -90 -11 -114 -8 -42 5 -44 5 -36 -18 12 -34 9 -159
-5 -220 -14 -60 -41 -118 -78 -166 -13 -17 -20 -32 -15 -32 23 0 83 65 108
119 l29 61 21 -20 c12 -11 27 -20 34 -20 8 0 47 18 87 41 l74 40 0 -50 c0 -27
-5 -62 -10 -76 -11 -28 -22 -29 -76 -8 -11 4 1 -18 31 -56 l49 -63 28 31 c19
22 28 43 29 69 0 20 2 98 3 172 1 74 6 146 10 160 6 21 3 28 -22 43 -34 19
-50 20 -147 1z m100 -118 l0 -79 -55 -19 c-30 -10 -78 -21 -107 -25 l-52 -6 9
34 c6 19 10 51 10 71 0 21 2 38 5 38 2 0 24 -13 47 -30 24 -16 58 -33 76 -36
29 -6 32 -4 32 19 0 21 -8 28 -42 41 -24 8 -60 17 -80 21 -39 6 -43 11 -30 31
11 17 39 22 117 21 l70 -2 0 -79z"/>
</g>
</svg>
