<?xml version="1.0" standalone="no"?>
<!DOCTYPE svg PUBLIC "-//W3C//DTD SVG 20010904//EN"
 "http://www.w3.org/TR/2001/REC-SVG-20010904/DTD/svg10.dtd">
<svg version="1.0" xmlns="http://www.w3.org/2000/svg"
 width="96.000000pt" height="68.000000pt" viewBox="0 0 96.000000 68.000000"
 preserveAspectRatio="xMidYMid meet">
<metadata>
Created by potrace 1.16, written by Peter Selinger 2001-2019
</metadata>
<g transform="translate(0.000000,68.000000) scale(0.100000,-0.100000)"
fill="#000000" stroke="none">
<path d="M476 568 c4 -7 16 -25 26 -39 18 -27 18 -27 -5 -32 -12 -3 -64 -9
-115 -13 -91 -6 -121 -17 -82 -27 17 -4 20 -14 20 -54 0 -110 -49 -227 -134
-320 -49 -54 -51 -67 -6 -36 91 60 140 144 174 299 13 57 25 106 27 108 2 2
83 9 179 16 96 7 179 16 184 21 5 4 -2 13 -16 20 -19 8 -43 8 -93 0 -75 -11
-85 -9 -85 19 0 10 -10 26 -22 34 -27 19 -62 22 -52 4z"/>
<path d="M170 383 c0 -15 55 -63 72 -63 26 0 22 25 -8 49 -26 20 -64 28 -64
14z"/>
<path d="M232 270 c-12 -10 -44 -26 -70 -36 -59 -22 -57 -21 -42 -39 21 -25
44 -17 95 35 49 50 60 74 17 40z"/>
</g>
</svg>
