<?xml version="1.0" standalone="no"?>
<!DOCTYPE svg PUBLIC "-//W3C//DTD SVG 20010904//EN"
 "http://www.w3.org/TR/2001/REC-SVG-20010904/DTD/svg10.dtd">
<svg version="1.0" xmlns="http://www.w3.org/2000/svg"
 width="90.000000pt" height="92.000000pt" viewBox="0 0 90.000000 92.000000"
 preserveAspectRatio="xMidYMid meet">
<metadata>
Created by potrace 1.16, written by Peter Selinger 2001-2019
</metadata>
<g transform="translate(0.000000,92.000000) scale(0.100000,-0.100000)"
fill="#000000" stroke="none">
<path d="M386 898 c4 -7 16 -23 27 -35 11 -13 18 -25 15 -28 -3 -3 -62 -13
-132 -22 -120 -16 -126 -18 -119 -37 5 -12 7 -75 7 -141 -2 -95 -7 -141 -28
-220 -27 -97 -82 -227 -127 -294 l-23 -34 22 12 c31 16 98 103 123 159 29 66
66 197 74 265 7 53 9 57 29 51 11 -4 24 -12 28 -18 11 -16 10 -100 -2 -130
-10 -28 -4 -56 12 -56 12 0 131 91 125 96 -2 2 -23 -3 -47 -11 -54 -19 -50
-20 -50 13 0 27 3 29 58 38 31 5 56 14 54 19 -3 12 -57 13 -88 2 -18 -6 -21
-3 -21 22 0 28 1 28 70 34 39 3 73 4 77 2 4 -2 10 -36 13 -76 6 -75 17 -96 54
-110 30 -11 29 -21 -8 -64 -36 -41 -34 -42 34 -13 66 27 63 24 42 48 -18 20
-18 20 29 20 50 0 104 18 122 41 9 10 7 26 -6 64 l-17 50 -8 -38 c-4 -21 -17
-44 -28 -52 -22 -15 -130 -21 -161 -9 -19 7 -22 66 -3 63 34 -4 114 3 127 11
39 26 -58 36 -118 13 -12 -5 -14 -1 -8 20 4 19 1 29 -11 37 -14 9 -5 10 40 7
l57 -4 30 52 c17 29 30 57 30 62 0 5 -14 17 -31 27 -23 14 -42 17 -75 12 -34
-4 -42 -3 -38 8 3 8 -4 21 -16 29 -20 14 -16 15 59 22 45 4 81 11 81 16 0 5
-11 16 -24 24 -21 14 -34 15 -82 6 -75 -14 -74 -14 -74 10 0 13 -11 25 -35 35
-43 18 -69 18 -59 2z m90 -133 c3 -20 4 -38 2 -40 -3 -3 -26 -8 -53 -12 -48
-6 -48 -6 -43 20 3 17 0 31 -10 39 -13 11 -7 14 34 19 27 3 52 7 56 7 4 1 10
-14 14 -33z m-142 -7 c13 -51 9 -58 -39 -58 -47 0 -50 4 -39 47 5 19 19 27 60
32 7 0 14 -9 18 -21z m268 -60 c3 -7 2 -24 -1 -37 -6 -21 -13 -25 -49 -27 -37
-2 -42 0 -42 19 0 38 14 48 76 56 7 0 14 -5 16 -11z m-132 -42 c0 -32 -2 -34
-37 -38 -41 -5 -53 4 -53 39 0 22 15 28 68 32 19 1 22 -4 22 -33z m-120 -15
c0 -33 -14 -41 -71 -41 -38 0 -39 1 -39 35 l0 35 55 0 c54 0 55 -1 55 -29z"/>
<path d="M438 351 l5 -70 -34 -5 c-19 -3 -72 -10 -118 -16 -46 -5 -87 -12 -89
-15 -8 -8 30 -34 50 -35 9 0 39 4 65 9 26 5 66 13 87 16 l39 6 -6 -80 c-7 -93
4 -141 28 -121 11 9 15 35 15 105 0 110 -8 105 153 105 104 0 107 1 97 20 -15
29 -47 33 -152 22 -51 -6 -95 -9 -97 -7 -2 2 1 29 6 60 9 49 8 57 -8 65 -41
22 -47 14 -41 -59z"/>
<path d="M327 339 c23 -39 39 -53 53 -44 30 18 -9 75 -53 75 -18 0 -18 -1 0
-31z"/>
<path d="M325 180 c-8 -16 -42 -52 -76 -80 -33 -27 -58 -50 -56 -50 44 0 197
98 197 126 0 12 -29 34 -44 34 -3 0 -12 -13 -21 -30z"/>
<path d="M550 172 c19 -15 57 -46 83 -70 53 -47 70 -49 75 -10 4 32 -29 59
-104 88 -78 29 -97 26 -54 -8z"/>
</g>
</svg>
