<?xml version="1.0" standalone="no"?>
<!DOCTYPE svg PUBLIC "-//W3C//DTD SVG 20010904//EN"
 "http://www.w3.org/TR/2001/REC-SVG-20010904/DTD/svg10.dtd">
<svg version="1.0" xmlns="http://www.w3.org/2000/svg"
 width="90.000000pt" height="92.000000pt" viewBox="0 0 90.000000 92.000000"
 preserveAspectRatio="xMidYMid meet">
<metadata>
Created by potrace 1.16, written by Peter Selinger 2001-2019
</metadata>
<g transform="translate(0.000000,92.000000) scale(0.100000,-0.100000)"
fill="#000000" stroke="none">
<path d="M185 823 c3 -16 9 -74 12 -129 l5 -102 -64 -11 c-36 -6 -73 -11 -82
-11 -10 0 -16 -6 -13 -12 3 -9 28 -13 80 -13 l77 1 0 -58 0 -57 -57 -37 c-31
-20 -76 -45 -100 -57 -47 -23 -56 -49 -24 -67 31 -16 36 -14 108 50 l68 61 3
-28 c1 -15 -1 -62 -5 -103 l-8 -75 -49 2 -49 2 55 -56 c35 -35 60 -53 68 -48
30 19 38 68 33 205 l-5 135 36 34 c46 44 46 59 1 31 l-35 -22 0 51 c0 42 3 51
18 51 34 0 92 21 86 31 -11 18 -48 27 -73 17 l-24 -9 6 79 c2 44 10 88 15 99
6 10 8 24 4 29 -13 19 -56 44 -75 44 -16 0 -18 -5 -12 -27z"/>
<path d="M496 829 c-2 -8 -7 -31 -11 -52 -9 -55 -52 -151 -102 -229 -23 -38
-38 -68 -32 -68 5 0 32 23 59 51 27 28 52 49 57 46 4 -3 40 1 78 9 39 7 91 13
118 14 l47 0 0 -137 c0 -148 -13 -260 -33 -302 -13 -27 -27 -30 -85 -17 l-33
8 42 -56 c23 -31 48 -56 55 -56 21 0 72 70 83 116 6 24 16 115 22 201 5 87 14
171 19 187 16 48 12 63 -23 85 -32 20 -37 20 -103 6 -90 -18 -174 -29 -174
-22 0 3 19 43 41 88 44 87 44 98 1 127 -18 12 -22 12 -26 1z"/>
<path d="M491 453 c-19 -8 -59 -15 -88 -16 -44 -1 -52 -4 -47 -17 4 -8 11 -42
17 -75 5 -33 13 -71 19 -85 9 -22 11 -23 19 -7 8 14 24 17 81 17 52 0 69 3 61
11 -13 13 -1 64 28 121 l19 37 -29 16 c-35 18 -36 18 -80 -2z m26 -84 c-4 -29
-8 -53 -10 -55 -2 -2 -25 -7 -50 -10 l-47 -7 0 56 c0 61 1 61 84 66 l29 1 -6
-51z"/>
</g>
</svg>
