<?xml version="1.0" standalone="no"?>
<!DOCTYPE svg PUBLIC "-//W3C//DTD SVG 20010904//EN"
 "http://www.w3.org/TR/2001/REC-SVG-20010904/DTD/svg10.dtd">
<svg version="1.0" xmlns="http://www.w3.org/2000/svg"
 width="96.000000pt" height="68.000000pt" viewBox="0 0 96.000000 68.000000"
 preserveAspectRatio="xMidYMid meet">
<metadata>
Created by potrace 1.16, written by Peter Selinger 2001-2019
</metadata>
<g transform="translate(0.000000,68.000000) scale(0.100000,-0.100000)"
fill="#000000" stroke="none">
<path d="M460 226 c0 -13 -59 -26 -122 -26 -19 0 -27 -4 -22 -11 5 -8 29 -10
77 -5 l70 6 -6 -77 c-6 -82 4 -122 23 -93 5 8 10 49 10 92 l0 76 61 7 c74 9
66 29 -11 26 -28 -1 -50 3 -50 9 0 5 -7 10 -15 10 -8 0 -15 -6 -15 -14z"/>
<path d="M365 131 c-8 -16 -27 -39 -41 -50 -15 -12 -21 -21 -15 -21 20 0 65
27 91 55 21 22 22 28 10 35 -23 15 -28 12 -45 -19z"/>
<path d="M560 116 c34 -37 60 -47 60 -23 0 20 -30 44 -64 53 l-29 7 33 -37z"/>
</g>
</svg>
