<?xml version="1.0" standalone="no"?>
<!DOCTYPE svg PUBLIC "-//W3C//DTD SVG 20010904//EN"
 "http://www.w3.org/TR/2001/REC-SVG-20010904/DTD/svg10.dtd">
<svg version="1.0" xmlns="http://www.w3.org/2000/svg"
 width="96.000000pt" height="68.000000pt" viewBox="0 0 96.000000 68.000000"
 preserveAspectRatio="xMidYMid meet">
<metadata>
Created by potrace 1.16, written by Peter Selinger 2001-2019
</metadata>
<g transform="translate(0.000000,68.000000) scale(0.100000,-0.100000)"
fill="#000000" stroke="none">
<path d="M405 324 c-66 -8 -140 -12 -164 -8 l-44 6 21 -26 c11 -14 23 -41 26
-61 7 -36 24 -54 35 -38 3 6 53 13 111 17 158 10 210 17 204 28 -4 5 8 25 26
43 31 32 32 33 12 44 -25 13 -71 12 -227 -5z m157 -49 c-8 -18 -19 -25 -39
-25 -16 0 -44 -3 -63 -6 -36 -6 -36 -6 -36 30 l0 35 66 3 c76 4 88 -2 72 -37z
m-196 1 c9 -35 -2 -46 -46 -46 -33 0 -39 4 -48 29 -12 33 -5 38 55 40 27 1 34
-3 39 -23z"/>
</g>
</svg>
