<?xml version="1.0" standalone="no"?>
<!DOCTYPE svg PUBLIC "-//W3C//DTD SVG 20010904//EN"
 "http://www.w3.org/TR/2001/REC-SVG-20010904/DTD/svg10.dtd">
<svg version="1.0" xmlns="http://www.w3.org/2000/svg"
 width="96.000000pt" height="68.000000pt" viewBox="0 0 96.000000 68.000000"
 preserveAspectRatio="xMidYMid meet">
<metadata>
Created by potrace 1.16, written by Peter Selinger 2001-2019
</metadata>
<g transform="translate(0.000000,68.000000) scale(0.100000,-0.100000)"
fill="#000000" stroke="none">
<path d="M320 265 c0 -14 45 -65 57 -65 17 0 17 34 1 48 -17 12 -58 25 -58 17z"/>
<path d="M239 221 c14 -25 40 -51 52 -51 11 0 12 47 2 53 -5 2 -21 7 -36 11
-25 6 -27 5 -18 -13z"/>
<path d="M130 205 c0 -16 36 -75 48 -80 43 -16 39 54 -3 73 -27 12 -45 15 -45
7z"/>
</g>
</svg>
