<?xml version="1.0" standalone="no"?>
<!DOCTYPE svg PUBLIC "-//W3C//DTD SVG 20010904//EN"
 "http://www.w3.org/TR/2001/REC-SVG-20010904/DTD/svg10.dtd">
<svg version="1.0" xmlns="http://www.w3.org/2000/svg"
 width="90.000000pt" height="92.000000pt" viewBox="0 0 90.000000 92.000000"
 preserveAspectRatio="xMidYMid meet">
<metadata>
Created by potrace 1.16, written by Peter Selinger 2001-2019
</metadata>
<g transform="translate(0.000000,92.000000) scale(0.100000,-0.100000)"
fill="#000000" stroke="none">
<path d="M245 860 c-3 -5 -1 -19 5 -30 6 -11 10 -53 8 -92 l-3 -72 -43 -9
c-24 -5 -46 -6 -49 -4 -3 3 1 22 8 42 13 35 12 38 -11 56 -35 26 -45 19 -42
-29 2 -26 -3 -52 -14 -71 -16 -28 -16 -31 -1 -55 l17 -25 34 20 c25 15 224 68
256 69 3 0 6 -10 7 -21 1 -12 4 -24 8 -27 12 -12 24 16 38 90 15 82 12 92 -27
100 -18 3 -19 -3 -17 -53 2 -56 2 -56 -30 -63 -17 -3 -43 -6 -57 -6 l-25 0 5
85 4 84 -29 11 c-36 12 -34 12 -42 0z"/>
<path d="M695 821 c-3 -6 -1 -28 5 -48 13 -44 9 -566 -4 -596 -6 -13 -15 -17
-32 -13 -85 21 -83 24 -24 -40 73 -79 75 -80 99 -40 20 31 21 48 22 292 0 238
4 291 24 380 6 25 3 33 -17 46 -34 22 -65 30 -73 19z"/>
<path d="M548 550 c3 -57 0 -101 -7 -119 -10 -23 -9 -35 4 -67 l16 -39 15 27
c8 16 17 74 21 144 6 107 5 118 -12 130 -37 27 -41 18 -37 -76z"/>
<path d="M265 568 c-44 -10 -93 -23 -110 -27 l-30 -8 27 -11 c21 -9 50 -7 130
9 122 23 134 27 122 38 -19 18 -62 18 -139 -1z"/>
<path d="M275 469 c-50 -10 -102 -16 -118 -13 -31 6 -33 2 -13 -29 8 -12 17
-41 21 -64 3 -23 19 -77 34 -121 l27 -80 -35 -6 c-20 -3 -60 -6 -88 -6 -29 0
-53 -4 -53 -9 0 -11 58 -61 71 -61 5 0 25 7 45 15 19 8 101 33 182 55 81 23
151 45 156 50 19 18 -22 21 -82 6 -84 -22 -86 -21 -52 26 37 51 37 63 3 82
l-28 15 25 1 c21 0 25 5 26 29 1 16 11 43 24 61 l23 33 -22 18 c-27 22 -29 22
-146 -2z m88 -65 l-5 -40 -75 -13 c-41 -7 -76 -11 -78 -9 -1 2 -6 22 -10 45
-6 39 -5 43 17 48 46 11 143 21 150 16 4 -3 4 -24 1 -47z m-23 -111 c0 -55
-20 -104 -47 -114 -32 -12 -32 -11 -40 37 -3 22 -17 51 -31 66 l-25 27 44 4
c102 9 99 9 99 -20z"/>
</g>
</svg>
