<?xml version="1.0" standalone="no"?>
<!DOCTYPE svg PUBLIC "-//W3C//DTD SVG 20010904//EN"
 "http://www.w3.org/TR/2001/REC-SVG-20010904/DTD/svg10.dtd">
<svg version="1.0" xmlns="http://www.w3.org/2000/svg"
 width="90.000000pt" height="92.000000pt" viewBox="0 0 90.000000 92.000000"
 preserveAspectRatio="xMidYMid meet">
<metadata>
Created by potrace 1.16, written by Peter Selinger 2001-2019
</metadata>
<g transform="translate(0.000000,92.000000) scale(0.100000,-0.100000)"
fill="#000000" stroke="none">
<path d="M505 883 c4 -10 10 -43 13 -74 l4 -57 -61 -7 c-33 -4 -61 -11 -61
-16 0 -14 47 -22 85 -15 33 7 35 6 35 -22 0 -27 -4 -30 -41 -35 -22 -3 -44 -8
-47 -12 -12 -12 23 -26 56 -21 30 4 32 3 32 -23 0 -32 -5 -33 -147 -47 -40 -3
-73 -11 -73 -16 0 -23 52 -25 190 -7 80 10 183 19 230 19 129 0 161 17 97 48
-23 11 -45 11 -132 -2 -58 -9 -108 -16 -110 -16 -3 0 -5 13 -5 30 0 28 3 30
50 36 28 4 53 11 56 15 8 14 -43 29 -77 22 -28 -5 -30 -4 -27 18 3 20 12 25
65 34 69 13 79 18 68 35 -7 12 -84 8 -118 -6 -10 -4 -12 9 -9 57 5 68 -2 79
-52 79 -23 0 -27 -3 -21 -17z"/>
<path d="M186 770 c-20 -66 -84 -173 -110 -183 -19 -8 -21 -27 -3 -51 13 -18
16 -18 71 3 31 11 59 21 61 21 3 0 -18 -31 -46 -70 -28 -38 -55 -70 -60 -70
-13 0 -11 -23 4 -44 12 -17 18 -15 91 21 l77 38 19 -25 19 -25 9 25 c11 29 2
52 -30 74 -35 25 -53 21 -33 -6 15 -22 14 -23 -37 -40 -28 -10 -53 -16 -56
-14 -2 3 35 55 82 116 47 62 86 118 86 125 0 12 -38 51 -43 44 -2 -2 -11 -25
-21 -51 -9 -25 -22 -51 -29 -56 -15 -11 -100 -33 -106 -27 -5 5 56 100 100
156 34 43 36 60 11 82 -29 27 -37 21 -56 -43z"/>
<path d="M570 500 c-19 -6 -64 -11 -100 -12 l-65 -3 2 -124 c1 -68 4 -134 7
-147 7 -25 20 -31 31 -14 11 19 23 10 17 -12 -3 -13 -37 -54 -75 -91 -68 -67
-69 -68 -31 -52 42 17 112 61 158 99 31 25 28 42 -7 55 -16 6 1 10 56 16 65 6
81 4 96 -9 10 -9 20 -16 24 -16 15 0 29 76 23 134 -4 34 -3 82 3 106 8 35 7
48 -3 59 -18 17 -90 23 -136 11z m70 -53 c0 -21 -7 -23 -87 -34 -48 -7 -88
-11 -89 -10 -1 1 -4 13 -6 27 -3 22 2 26 32 31 19 4 61 7 93 8 53 1 57 -1 57
-22z m10 -85 c0 -26 -2 -27 -47 -27 -27 0 -72 -4 -100 -8 -49 -7 -53 -6 -53
13 0 24 7 27 85 39 108 16 115 15 115 -17z m-2 -79 c-2 -20 -9 -28 -23 -29
-11 -1 -55 -5 -97 -9 l-78 -8 0 32 c0 26 3 31 18 27 9 -3 44 -1 77 3 106 15
107 14 103 -16z"/>
<path d="M264 333 c28 -54 44 -69 57 -56 18 17 3 58 -26 71 -40 18 -47 15 -31
-15z"/>
<path d="M160 318 c0 -18 50 -78 66 -78 9 0 14 11 14 31 0 25 -6 32 -35 45
-42 17 -45 17 -45 2z"/>
<path d="M30 300 c0 -17 47 -105 64 -119 21 -17 36 -6 36 27 0 35 -23 68 -60
87 -34 18 -40 18 -40 5z"/>
<path d="M656 115 c71 -79 97 -90 102 -43 4 34 -33 72 -96 99 -75 33 -76 22
-6 -56z"/>
</g>
</svg>
