<?xml version="1.0" standalone="no"?>
<!DOCTYPE svg PUBLIC "-//W3C//DTD SVG 20010904//EN"
 "http://www.w3.org/TR/2001/REC-SVG-20010904/DTD/svg10.dtd">
<svg version="1.0" xmlns="http://www.w3.org/2000/svg"
 width="96.000000pt" height="68.000000pt" viewBox="0 0 96.000000 68.000000"
 preserveAspectRatio="xMidYMid meet">
<metadata>
Created by potrace 1.16, written by Peter Selinger 2001-2019
</metadata>
<g transform="translate(0.000000,68.000000) scale(0.100000,-0.100000)"
fill="#000000" stroke="none">
<path d="M642 540 c-37 -30 -130 -61 -166 -55 l-31 6 0 -93 c0 -80 -4 -101
-27 -151 -15 -32 -53 -84 -84 -117 -63 -66 -61 -75 7 -31 92 58 153 170 150
277 -1 65 11 94 41 94 30 0 181 41 193 52 7 6 3 14 -9 24 -26 19 -46 17 -74
-6z"/>
</g>
</svg>
