<?xml version="1.0" standalone="no"?>
<!DOCTYPE svg PUBLIC "-//W3C//DTD SVG 20010904//EN"
 "http://www.w3.org/TR/2001/REC-SVG-20010904/DTD/svg10.dtd">
<svg version="1.0" xmlns="http://www.w3.org/2000/svg"
 width="90.000000pt" height="92.000000pt" viewBox="0 0 90.000000 92.000000"
 preserveAspectRatio="xMidYMid meet">
<metadata>
Created by potrace 1.16, written by Peter Selinger 2001-2019
</metadata>
<g transform="translate(0.000000,92.000000) scale(0.100000,-0.100000)"
fill="#000000" stroke="none">
<path d="M516 828 c-3 -7 -7 -35 -10 -62 -7 -59 -79 -214 -140 -302 -25 -35
-42 -64 -37 -64 4 0 26 16 50 36 51 44 112 133 147 214 15 33 30 60 34 60 3 0
26 -35 50 -77 70 -123 128 -210 145 -216 17 -7 125 12 125 22 0 3 -25 21 -56
40 -79 47 -118 84 -190 179 -55 73 -62 87 -57 116 4 27 1 36 -18 50 -28 19
-38 20 -43 4z"/>
<path d="M250 801 c-22 -13 -154 -41 -189 -41 -37 0 -40 -16 -7 -31 18 -8 40
-6 98 10 114 32 117 29 66 -49 -25 -38 -39 -50 -62 -52 l-31 -3 37 -41 37 -41
-77 -11 c-42 -7 -87 -12 -99 -12 -26 0 -31 -25 -8 -34 9 -3 43 1 77 9 34 8 64
12 66 10 13 -12 -61 -135 -123 -204 -20 -22 -35 -45 -33 -51 6 -20 95 58 137
121 l41 61 -1 -98 c0 -55 -3 -117 -7 -139 -8 -40 -8 -40 -51 -38 l-43 2 44
-48 c23 -27 48 -49 55 -50 6 -1 19 19 29 44 13 36 17 81 18 217 1 172 1 172
-23 184 -22 11 -20 13 33 19 31 4 59 5 62 2 3 -3 -2 -17 -11 -31 -23 -34 -7
-34 63 2 50 26 52 29 35 44 -41 36 -62 40 -110 24 -26 -9 -48 -16 -49 -16 -1
0 0 8 3 19 2 10 -2 25 -10 32 -12 13 -6 21 47 62 33 26 70 53 80 61 24 16 15
31 -34 56 -45 23 -40 22 -60 11z"/>
<path d="M506 496 c-102 -24 -50 -54 62 -35 74 12 96 24 72 39 -19 12 -72 11
-134 -4z"/>
<path d="M580 364 c-30 -7 -85 -16 -122 -20 -38 -4 -68 -10 -68 -14 0 -3 11
-12 24 -20 20 -10 41 -9 125 5 56 10 103 16 106 13 7 -6 -71 -205 -96 -245
-12 -18 -16 -33 -11 -33 21 0 85 88 138 190 l55 105 -22 18 c-25 20 -52 20
-129 1z"/>
</g>
</svg>
