<?xml version="1.0" standalone="no"?>
<!DOCTYPE svg PUBLIC "-//W3C//DTD SVG 20010904//EN"
 "http://www.w3.org/TR/2001/REC-SVG-20010904/DTD/svg10.dtd">
<svg version="1.0" xmlns="http://www.w3.org/2000/svg"
 width="90.000000pt" height="92.000000pt" viewBox="0 0 90.000000 92.000000"
 preserveAspectRatio="xMidYMid meet">
<metadata>
Created by potrace 1.16, written by Peter Selinger 2001-2019
</metadata>
<g transform="translate(0.000000,92.000000) scale(0.100000,-0.100000)"
fill="#000000" stroke="none">
<path d="M624 853 c-4 -16 -18 -49 -31 -75 -13 -27 -20 -48 -17 -48 15 0 121
109 115 118 -6 9 -45 32 -55 32 -3 0 -9 -12 -12 -27z"/>
<path d="M391 808 c21 -42 60 -88 73 -88 20 0 27 26 16 55 -9 24 -56 55 -85
55 -13 0 -14 -4 -4 -22z"/>
<path d="M190 774 c-6 -14 -10 -30 -10 -35 0 -20 -61 -129 -91 -163 -25 -29
-28 -38 -19 -56 13 -25 16 -25 75 1 25 11 49 18 52 15 7 -7 -75 -115 -99 -130
-23 -14 -23 -29 2 -51 18 -16 22 -17 38 -2 9 8 44 27 76 41 56 25 60 25 78 9
17 -15 20 -15 28 -3 16 26 11 40 -22 60 -41 25 -51 25 -39 1 9 -16 4 -21 -44
-39 -30 -11 -55 -15 -55 -10 0 6 37 53 81 105 74 86 81 98 73 122 -15 42 -39
38 -53 -9 -12 -40 -38 -59 -108 -76 -36 -9 -29 10 37 101 63 88 72 118 41 135
-28 14 -30 13 -41 -16z"/>
<path d="M623 718 c-18 -5 -81 -17 -140 -26 -121 -21 -149 -42 -55 -42 45 0
61 -4 66 -16 13 -34 6 -42 -44 -49 -27 -4 -50 -11 -50 -15 0 -14 38 -22 70
-15 25 6 30 3 36 -19 9 -36 1 -43 -63 -50 -32 -4 -66 -9 -76 -12 -23 -7 -12
-24 17 -24 17 0 27 -11 43 -50 l21 -50 -31 -1 c-18 0 -50 -4 -72 -8 l-40 -8
32 -14 c28 -13 46 -13 150 2 65 9 173 20 241 24 67 4 125 11 127 16 3 4 -9 16
-26 25 -28 14 -42 15 -106 4 -41 -6 -77 -10 -79 -7 -3 2 8 19 23 37 l27 33
-23 18 -23 19 28 0 c34 0 62 15 51 27 -10 10 -80 9 -134 -1 l-43 -9 0 31 c0
29 2 31 48 37 72 9 92 15 92 24 0 13 -55 24 -80 17 -11 -3 -28 -8 -38 -11 -15
-4 -18 1 -18 29 l0 34 78 12 c47 8 77 17 75 23 -5 17 -49 24 -84 15z m-3 -262
c0 -12 -5 -37 -11 -53 -9 -26 -16 -31 -56 -37 -68 -9 -73 -8 -73 16 0 12 -9
32 -21 44 l-21 22 79 15 c105 20 103 20 103 -7z"/>
<path d="M220 348 c0 -18 50 -78 66 -78 9 0 14 11 14 31 0 25 -6 32 -35 45
-42 17 -45 17 -45 2z"/>
<path d="M130 304 c0 -24 58 -96 71 -88 5 3 9 18 9 34 0 23 -7 33 -30 45 -30
15 -50 19 -50 9z"/>
<path d="M560 284 c-47 -7 -111 -13 -142 -13 -55 -1 -75 -12 -44 -24 8 -3 19
-32 26 -64 16 -85 27 -108 45 -93 8 6 52 14 97 16 119 7 153 13 140 26 -12 12
15 75 42 97 13 11 14 17 4 28 -13 16 -63 44 -75 42 -4 -1 -46 -7 -93 -15z m75
-81 c-4 -27 -8 -49 -9 -50 -1 -2 -41 -6 -88 -9 l-86 -7 -7 42 c-4 23 -4 45 -1
48 10 10 78 21 140 22 l58 1 -7 -47z"/>
<path d="M46 223 c14 -32 31 -64 39 -72 27 -28 44 10 29 66 -6 22 -60 63 -82
63 -6 0 0 -25 14 -57z"/>
</g>
</svg>
