<?xml version="1.0" standalone="no"?>
<!DOCTYPE svg PUBLIC "-//W3C//DTD SVG 20010904//EN"
 "http://www.w3.org/TR/2001/REC-SVG-20010904/DTD/svg10.dtd">
<svg version="1.0" xmlns="http://www.w3.org/2000/svg"
 width="96.000000pt" height="68.000000pt" viewBox="0 0 96.000000 68.000000"
 preserveAspectRatio="xMidYMid meet">
<metadata>
Created by potrace 1.16, written by Peter Selinger 2001-2019
</metadata>
<g transform="translate(0.000000,68.000000) scale(0.100000,-0.100000)"
fill="#000000" stroke="none">
<path d="M280 212 c0 -12 44 -52 58 -52 16 0 15 25 0 38 -19 15 -58 25 -58 14z"/>
<path d="M200 184 c0 -15 43 -64 56 -64 15 0 18 18 6 37 -8 13 -62 36 -62 27z"/>
<path d="M110 155 c0 -17 53 -86 63 -82 18 6 9 50 -14 70 -20 16 -49 23 -49
12z"/>
</g>
</svg>
