<?xml version="1.0" standalone="no"?>
<!DOCTYPE svg PUBLIC "-//W3C//DTD SVG 20010904//EN"
 "http://www.w3.org/TR/2001/REC-SVG-20010904/DTD/svg10.dtd">
<svg version="1.0" xmlns="http://www.w3.org/2000/svg"
 width="90.000000pt" height="92.000000pt" viewBox="0 0 90.000000 92.000000"
 preserveAspectRatio="xMidYMid meet">
<metadata>
Created by potrace 1.16, written by Peter Selinger 2001-2019
</metadata>
<g transform="translate(0.000000,92.000000) scale(0.100000,-0.100000)"
fill="#000000" stroke="none">
<path d="M507 795 c-8 -55 -57 -175 -97 -239 -33 -52 -26 -59 18 -18 24 22 40
27 85 29 48 2 57 -1 62 -17 6 -20 -10 -164 -21 -182 -3 -5 -28 11 -54 36 -42
40 -80 59 -80 41 0 -3 25 -30 55 -60 30 -29 55 -59 55 -66 0 -23 -115 -126
-156 -139 -61 -19 -67 -34 -11 -26 60 7 121 38 170 84 l37 36 17 -24 c42 -59
101 -126 124 -139 20 -11 37 -11 97 -1 39 6 72 15 72 20 0 4 -42 28 -92 52
-118 58 -202 123 -195 152 3 12 15 66 27 120 l23 100 -22 17 c-20 17 -19 17
54 31 42 7 76 18 77 23 0 6 -12 16 -27 24 -26 13 -37 11 -127 -19 -54 -18
-100 -31 -103 -29 -2 3 16 45 40 94 25 49 45 95 45 101 0 14 -38 44 -56 44 -6
0 -14 -20 -17 -45z"/>
<path d="M206 803 c-3 -3 -6 -17 -6 -30 0 -60 -78 -219 -174 -353 -49 -68 -20
-57 59 23 l75 77 0 -128 c0 -77 -6 -148 -14 -180 -15 -56 -8 -101 20 -131 23
-25 32 23 42 230 8 178 7 196 -9 224 l-18 30 49 94 c27 51 46 99 44 105 -6 16
-60 47 -68 39z"/>
<path d="M286 430 c0 -104 4 -154 13 -163 22 -22 31 13 31 125 0 59 4 118 10
132 10 28 -8 56 -38 56 -15 0 -17 -16 -16 -150z"/>
</g>
</svg>
