<?xml version="1.0" standalone="no"?>
<!DOCTYPE svg PUBLIC "-//W3C//DTD SVG 20010904//EN"
 "http://www.w3.org/TR/2001/REC-SVG-20010904/DTD/svg10.dtd">
<svg version="1.0" xmlns="http://www.w3.org/2000/svg"
 width="96.000000pt" height="68.000000pt" viewBox="0 0 96.000000 68.000000"
 preserveAspectRatio="xMidYMid meet">
<metadata>
Created by potrace 1.16, written by Peter Selinger 2001-2019
</metadata>
<g transform="translate(0.000000,68.000000) scale(0.100000,-0.100000)"
fill="#000000" stroke="none">
<path d="M655 263 c-28 -7 -44 -24 -18 -19 29 6 39 -51 11 -60 -10 -3 -16 -9
-13 -13 2 -4 -6 -14 -20 -21 -22 -12 -27 -9 -68 26 -41 36 -43 39 -24 44 15 4
18 8 10 13 -7 5 -21 3 -31 -2 -11 -6 -23 -7 -28 -3 -5 4 4 -4 21 -18 16 -14
59 -54 94 -90 36 -36 61 -58 57 -50 -4 8 1 4 12 -9 10 -13 32 -25 48 -27 39
-5 108 6 97 16 -17 15 -152 52 -164 44 -7 -4 -10 -3 -6 3 4 6 1 16 -7 22 -10
9 -1 23 46 71 l59 60 -26 10 c-14 5 -27 9 -28 9 -1 -1 -11 -3 -22 -6z m55
-203 c-8 -5 -19 -10 -25 -10 -5 0 -3 5 5 10 8 5 20 10 25 10 6 0 3 -5 -5 -10z"/>
<path d="M555 240 c-3 -5 3 -10 14 -10 12 0 21 5 21 10 0 6 -6 10 -14 10 -8 0
-18 -4 -21 -10z"/>
<path d="M545 109 c-36 -22 -30 -24 15 -5 18 7 29 16 24 18 -5 3 -22 -3 -39
-13z"/>
</g>
</svg>
