<?xml version="1.0" standalone="no"?>
<!DOCTYPE svg PUBLIC "-//W3C//DTD SVG 20010904//EN"
 "http://www.w3.org/TR/2001/REC-SVG-20010904/DTD/svg10.dtd">
<svg version="1.0" xmlns="http://www.w3.org/2000/svg"
 width="90.000000pt" height="92.000000pt" viewBox="0 0 90.000000 92.000000"
 preserveAspectRatio="xMidYMid meet">
<metadata>
Created by potrace 1.16, written by Peter Selinger 2001-2019
</metadata>
<g transform="translate(0.000000,92.000000) scale(0.100000,-0.100000)"
fill="#000000" stroke="none">
<path d="M384 878 c6 -26 9 -58 7 -74 0 -7 -27 -15 -58 -19 -53 -6 -56 -8 -38
-22 12 -8 35 -13 58 -11 34 3 37 2 37 -23 0 -25 -3 -27 -62 -33 -144 -15 -168
-19 -168 -27 0 -5 12 -14 28 -20 26 -10 44 -9 156 10 l49 8 -24 -19 c-53 -42
-137 -97 -187 -122 -30 -15 -52 -30 -49 -33 8 -7 73 15 139 48 32 16 60 29 63
29 3 0 5 -33 5 -72 0 -73 13 -114 28 -92 4 6 42 14 84 18 67 6 78 5 87 -11 10
-17 12 -17 26 1 10 13 15 43 15 87 0 37 3 74 6 83 4 10 -5 20 -25 30 -27 14
-36 14 -97 1 -36 -9 -70 -15 -75 -13 -5 2 9 17 31 35 35 26 54 33 116 38 41 4
92 5 112 1 40 -6 82 1 82 15 0 5 -14 16 -31 25 -25 12 -46 14 -97 9 -36 -4
-73 -9 -81 -12 -9 -3 10 21 42 52 31 31 57 60 57 64 0 9 -44 51 -53 51 -4 0
-7 -8 -7 -17 -1 -36 -27 -56 -75 -57 l-46 -1 6 37 c5 30 3 38 -14 47 -34 18
-52 14 -47 -11z m91 -138 c-32 -33 -45 -38 -45 -16 0 21 28 46 53 46 19 0 19
-2 -8 -30z m48 -172 c4 -12 5 -23 4 -24 -1 -1 -35 -5 -74 -8 -73 -7 -73 -7
-73 18 0 26 13 30 101 34 30 2 38 -2 42 -20z m7 -77 c0 -26 -3 -27 -82 -36
-68 -7 -68 -7 -68 19 0 22 5 25 43 29 101 9 107 8 107 -12z"/>
<path d="M570 390 c-30 -11 -65 -19 -77 -19 -13 -1 -23 -5 -23 -10 0 -17 34
-21 94 -11 33 5 62 7 65 4 8 -8 7 -196 -1 -217 -5 -12 -19 -17 -47 -17 l-41 0
44 -40 c24 -22 48 -40 53 -40 23 0 36 62 44 200 6 127 5 147 -9 158 -20 15
-34 14 -102 -8z"/>
<path d="M310 379 c-14 -6 -46 -15 -73 -20 -71 -16 -48 -33 34 -26 l68 6 6
-43 c4 -23 4 -64 2 -92 -3 -27 -6 -55 -6 -61 -1 -8 -16 -13 -41 -13 -22 0 -40
-2 -40 -3 0 -9 80 -87 88 -87 25 0 42 70 42 168 0 56 4 112 10 126 17 46 -29
69 -90 45z"/>
<path d="M460 313 c0 -4 16 -26 35 -48 29 -33 36 -37 45 -25 15 23 12 38 -12
54 -30 19 -68 29 -68 19z"/>
<path d="M201 265 c35 -48 54 -56 62 -26 6 26 -3 38 -46 56 -51 21 -52 20 -16
-30z"/>
<path d="M270 205 c-25 -13 -66 -29 -92 -35 -48 -12 -58 -26 -36 -48 21 -21
48 -13 107 32 95 74 104 96 21 51z"/>
<path d="M565 205 c-27 -13 -67 -26 -87 -30 -42 -8 -48 -23 -18 -50 19 -17 21
-17 58 9 34 23 113 97 101 95 -2 0 -26 -11 -54 -24z"/>
</g>
</svg>
