<?xml version="1.0" standalone="no"?>
<!DOCTYPE svg PUBLIC "-//W3C//DTD SVG 20010904//EN"
 "http://www.w3.org/TR/2001/REC-SVG-20010904/DTD/svg10.dtd">
<svg version="1.0" xmlns="http://www.w3.org/2000/svg"
 width="96.000000pt" height="68.000000pt" viewBox="0 0 96.000000 68.000000"
 preserveAspectRatio="xMidYMid meet">
<metadata>
Created by potrace 1.16, written by Peter Selinger 2001-2019
</metadata>
<g transform="translate(0.000000,68.000000) scale(0.100000,-0.100000)"
fill="#000000" stroke="none">
<path d="M400 594 c0 -4 9 -18 20 -30 l21 -21 -73 -7 c-140 -13 -170 -18 -159
-29 6 -6 89 -4 238 7 125 9 238 16 251 16 34 0 26 20 -10 27 -18 4 -35 7 -38
6 -3 0 -40 -4 -82 -8 -66 -6 -78 -4 -78 9 0 8 -3 17 -8 20 -15 9 -82 18 -82
10z"/>
</g>
</svg>
