<?xml version="1.0" standalone="no"?>
<!DOCTYPE svg PUBLIC "-//W3C//DTD SVG 20010904//EN"
 "http://www.w3.org/TR/2001/REC-SVG-20010904/DTD/svg10.dtd">
<svg version="1.0" xmlns="http://www.w3.org/2000/svg"
 width="96.000000pt" height="68.000000pt" viewBox="0 0 96.000000 68.000000"
 preserveAspectRatio="xMidYMid meet">
<metadata>
Created by potrace 1.16, written by Peter Selinger 2001-2019
</metadata>
<g transform="translate(0.000000,68.000000) scale(0.100000,-0.100000)"
fill="#000000" stroke="none">
<path d="M296 573 c4 -10 8 -40 9 -68 l0 -50 -47 -8 c-27 -5 -48 -14 -48 -19
0 -5 21 -8 48 -7 46 3 47 3 50 -28 4 -35 9 -33 -130 -54 -43 -6 -78 -15 -78
-19 0 -19 57 -18 169 5 67 14 136 25 154 25 18 0 39 4 47 10 23 14 -13 24 -66
16 l-44 -6 0 35 c0 21 5 35 13 35 6 0 30 5 52 12 l40 11 -30 8 c-16 5 -40 6
-53 2 -24 -6 -25 -5 -20 46 6 56 -6 71 -52 71 -18 0 -20 -4 -14 -17z"/>
</g>
</svg>
