<?xml version="1.0" standalone="no"?>
<!DOCTYPE svg PUBLIC "-//W3C//DTD SVG 20010904//EN"
 "http://www.w3.org/TR/2001/REC-SVG-20010904/DTD/svg10.dtd">
<svg version="1.0" xmlns="http://www.w3.org/2000/svg"
 width="96.000000pt" height="68.000000pt" viewBox="0 0 96.000000 68.000000"
 preserveAspectRatio="xMidYMid meet">
<metadata>
Created by potrace 1.16, written by Peter Selinger 2001-2019
</metadata>
<g transform="translate(0.000000,68.000000) scale(0.100000,-0.100000)"
fill="#000000" stroke="none">
<path d="M627 365 c-2 -26 -7 -48 -9 -51 -3 -2 -35 -7 -71 -11 -40 -3 -64 -10
-60 -16 3 -6 30 -7 65 -3 54 5 59 4 54 -12 -19 -48 -77 -129 -124 -173 -55
-50 -52 -64 5 -29 50 30 102 90 143 166 25 46 45 71 61 75 18 5 19 7 5 8 -15
1 -17 6 -12 35 5 28 3 37 -13 45 -32 18 -38 13 -44 -34z"/>
</g>
</svg>
