<?xml version="1.0" standalone="no"?>
<!DOCTYPE svg PUBLIC "-//W3C//DTD SVG 20010904//EN"
 "http://www.w3.org/TR/2001/REC-SVG-20010904/DTD/svg10.dtd">
<svg version="1.0" xmlns="http://www.w3.org/2000/svg"
 width="96.000000pt" height="68.000000pt" viewBox="0 0 96.000000 68.000000"
 preserveAspectRatio="xMidYMid meet">
<metadata>
Created by potrace 1.16, written by Peter Selinger 2001-2019
</metadata>
<g transform="translate(0.000000,68.000000) scale(0.100000,-0.100000)"
fill="#000000" stroke="none">
<path d="M564 524 c3 -9 6 -60 6 -115 0 -97 0 -99 24 -99 23 0 23 2 28 108 5
113 3 122 -41 122 -17 0 -22 -4 -17 -16z"/>
<path d="M678 395 c-15 -25 -25 -45 -22 -45 2 0 27 12 55 26 49 25 50 26 33
45 -25 28 -36 24 -66 -26z"/>
<path d="M460 391 c0 -16 41 -61 56 -61 21 0 17 48 -5 60 -24 12 -51 13 -51 1z"/>
</g>
</svg>
