<?xml version="1.0" standalone="no"?>
<!DOCTYPE svg PUBLIC "-//W3C//DTD SVG 20010904//EN"
 "http://www.w3.org/TR/2001/REC-SVG-20010904/DTD/svg10.dtd">
<svg version="1.0" xmlns="http://www.w3.org/2000/svg"
 width="96.000000pt" height="68.000000pt" viewBox="0 0 96.000000 68.000000"
 preserveAspectRatio="xMidYMid meet">
<metadata>
Created by potrace 1.16, written by Peter Selinger 2001-2019
</metadata>
<g transform="translate(0.000000,68.000000) scale(0.100000,-0.100000)"
fill="#000000" stroke="none">
<path d="M236 537 c-4 -20 -27 -56 -57 -90 -58 -66 -44 -77 23 -18 33 29 56
41 93 47 55 8 55 7 -4 -58 -23 -26 -23 -28 -5 -28 10 0 46 24 79 54 55 50 58
54 39 64 -16 8 -33 7 -69 -3 -65 -20 -72 -19 -47 8 26 28 28 43 6 51 -36 14
-52 6 -58 -27z"/>
</g>
</svg>
