<?xml version="1.0" standalone="no"?>
<!DOCTYPE svg PUBLIC "-//W3C//DTD SVG 20010904//EN"
 "http://www.w3.org/TR/2001/REC-SVG-20010904/DTD/svg10.dtd">
<svg version="1.0" xmlns="http://www.w3.org/2000/svg"
 width="96.000000pt" height="68.000000pt" viewBox="0 0 96.000000 68.000000"
 preserveAspectRatio="xMidYMid meet">
<metadata>
Created by potrace 1.16, written by Peter Selinger 2001-2019
</metadata>
<g transform="translate(0.000000,68.000000) scale(0.100000,-0.100000)"
fill="#000000" stroke="none">
<path d="M540 581 c0 -18 42 -61 61 -61 27 0 25 35 -3 54 -24 17 -58 21 -58 7z"/>
<path d="M725 525 c-5 -2 -88 -13 -184 -26 -149 -19 -171 -24 -156 -35 16 -12
17 -26 13 -116 -5 -111 -28 -182 -86 -258 l-26 -35 34 26 c72 54 120 172 120
294 0 33 4 66 9 73 8 14 145 37 285 48 45 3 74 10 69 15 -10 10 -63 20 -78 14z"/>
</g>
</svg>
