<?xml version="1.0" standalone="no"?>
<!DOCTYPE svg PUBLIC "-//W3C//DTD SVG 20010904//EN"
 "http://www.w3.org/TR/2001/REC-SVG-20010904/DTD/svg10.dtd">
<svg version="1.0" xmlns="http://www.w3.org/2000/svg"
 width="96.000000pt" height="68.000000pt" viewBox="0 0 96.000000 68.000000"
 preserveAspectRatio="xMidYMid meet">
<metadata>
Created by potrace 1.16, written by Peter Selinger 2001-2019
</metadata>
<g transform="translate(0.000000,68.000000) scale(0.100000,-0.100000)"
fill="#000000" stroke="none">
<path d="M685 448 c0 -28 -4 -33 -30 -39 -28 -6 -29 -7 -7 -14 31 -10 28 -20
-20 -77 -42 -50 -42 -51 -11 -35 17 9 40 28 52 42 l20 26 3 -47 c5 -72 28 -70
28 3 l1 58 32 -38 c25 -29 39 -37 65 -37 41 0 41 13 -1 33 -18 9 -46 28 -62
43 l-30 27 40 12 c39 12 40 12 13 19 -15 5 -31 5 -37 2 -5 -4 -11 6 -13 21 -2
19 -9 29 -23 31 -17 2 -20 -3 -20 -30z"/>
</g>
</svg>
