<?xml version="1.0" standalone="no"?>
<!DOCTYPE svg PUBLIC "-//W3C//DTD SVG 20010904//EN"
 "http://www.w3.org/TR/2001/REC-SVG-20010904/DTD/svg10.dtd">
<svg version="1.0" xmlns="http://www.w3.org/2000/svg"
 width="96.000000pt" height="68.000000pt" viewBox="0 0 96.000000 68.000000"
 preserveAspectRatio="xMidYMid meet">
<metadata>
Created by potrace 1.16, written by Peter Selinger 2001-2019
</metadata>
<g transform="translate(0.000000,68.000000) scale(0.100000,-0.100000)"
fill="#000000" stroke="none">
<path d="M230 525 c11 -18 17 -36 13 -38 -4 -3 -32 -8 -61 -12 -32 -4 -50 -11
-46 -17 6 -9 67 -6 159 7 11 2 27 4 35 4 8 1 22 6 30 11 13 9 13 11 0 20 -8 5
-28 7 -43 4 -22 -4 -32 0 -47 19 -11 13 -29 27 -40 30 l-21 5 21 -33z"/>
</g>
</svg>
