<?xml version="1.0" standalone="no"?>
<!DOCTYPE svg PUBLIC "-//W3C//DTD SVG 20010904//EN"
 "http://www.w3.org/TR/2001/REC-SVG-20010904/DTD/svg10.dtd">
<svg version="1.0" xmlns="http://www.w3.org/2000/svg"
 width="96.000000pt" height="68.000000pt" viewBox="0 0 96.000000 68.000000"
 preserveAspectRatio="xMidYMid meet">
<metadata>
Created by potrace 1.16, written by Peter Selinger 2001-2019
</metadata>
<g transform="translate(0.000000,68.000000) scale(0.100000,-0.100000)"
fill="#000000" stroke="none">
<path d="M450 559 c-225 -29 -230 -30 -230 -40 0 -19 48 -28 110 -19 34 5 68
6 76 3 16 -6 20 -98 4 -108 -5 -3 -61 -7 -124 -8 -103 -2 -113 -4 -105 -19 13
-23 11 -120 -2 -174 -11 -42 -10 -48 9 -67 12 -11 24 -18 27 -15 3 3 9 59 12
125 l6 120 66 7 c113 10 112 11 100 -24 -6 -16 -36 -52 -66 -80 -30 -27 -52
-50 -48 -50 17 0 86 43 110 69 27 28 29 29 54 13 14 -9 28 -19 31 -22 3 -3 22
-16 43 -29 39 -24 67 -22 67 3 0 21 -35 41 -97 57 -57 14 -59 16 -42 52 9 20
21 26 63 31 65 8 130 8 150 0 22 -8 22 -159 1 -210 -15 -36 -15 -36 -61 -29
l-46 7 33 -41 c40 -48 58 -50 99 -13 26 23 33 38 41 97 6 39 15 97 20 130 10
56 10 60 -13 78 -24 20 -27 20 -212 0 l-59 -6 5 56 c3 35 1 58 -6 61 -6 2 12
5 40 5 155 3 221 27 137 50 -21 6 -40 10 -43 10 -3 -1 -70 -10 -150 -20z"/>
</g>
</svg>
