<?xml version="1.0" standalone="no"?>
<!DOCTYPE svg PUBLIC "-//W3C//DTD SVG 20010904//EN"
 "http://www.w3.org/TR/2001/REC-SVG-20010904/DTD/svg10.dtd">
<svg version="1.0" xmlns="http://www.w3.org/2000/svg"
 width="96.000000pt" height="68.000000pt" viewBox="0 0 96.000000 68.000000"
 preserveAspectRatio="xMidYMid meet">
<metadata>
Created by potrace 1.16, written by Peter Selinger 2001-2019
</metadata>
<g transform="translate(0.000000,68.000000) scale(0.100000,-0.100000)"
fill="#000000" stroke="none">
<path d="M539 345 c-3 -2 -36 -9 -73 -14 -100 -14 -106 -30 -37 -96 54 -52 55
-54 38 -73 -25 -28 -103 -68 -170 -87 -75 -22 -67 -30 13 -15 63 11 149 45
185 73 18 14 23 11 78 -39 56 -52 60 -54 116 -54 74 0 151 10 151 20 0 5 -33
15 -74 24 -73 17 -216 78 -216 93 0 4 22 41 49 81 45 66 48 73 31 82 -19 10
-83 14 -91 5z m21 -34 c0 -23 -41 -101 -53 -101 -7 0 -32 20 -56 44 l-44 44
49 7 c27 4 54 8 59 10 20 7 45 5 45 -4z"/>
</g>
</svg>
