<?xml version="1.0" standalone="no"?>
<!DOCTYPE svg PUBLIC "-//W3C//DTD SVG 20010904//EN"
 "http://www.w3.org/TR/2001/REC-SVG-20010904/DTD/svg10.dtd">
<svg version="1.0" xmlns="http://www.w3.org/2000/svg"
 width="90.000000pt" height="92.000000pt" viewBox="0 0 90.000000 92.000000"
 preserveAspectRatio="xMidYMid meet">
<metadata>
Created by potrace 1.16, written by Peter Selinger 2001-2019
</metadata>
<g transform="translate(0.000000,92.000000) scale(0.100000,-0.100000)"
fill="#000000" stroke="none">
<path d="M564 843 c-17 -52 -30 -82 -52 -121 -22 -39 -28 -43 -54 -38 -32 6
-33 2 -14 -45 7 -19 17 -62 20 -97 10 -87 12 -92 47 -85 16 3 29 2 29 -1 0
-16 -25 -53 -58 -88 -27 -29 -44 -38 -68 -38 -44 0 -51 -15 -13 -30 23 -10 45
-10 99 -1 38 6 80 11 94 11 l26 0 0 -122 c0 -115 11 -175 24 -138 16 44 26
114 26 188 l0 82 95 0 c99 0 113 7 70 36 -22 14 -36 15 -96 7 l-71 -9 6 48 c5
38 4 50 -9 54 -8 3 -12 10 -9 15 7 12 44 11 44 -1 0 -5 6 -10 14 -10 8 0 21
19 30 43 15 42 56 180 56 189 0 3 -11 13 -25 22 -23 15 -32 15 -124 -4 -55
-11 -104 -20 -111 -20 -6 0 13 29 44 64 31 35 56 66 56 69 0 7 -54 37 -65 37
-3 0 -8 -8 -11 -17z m164 -190 c-3 -38 -3 -38 -52 -40 -47 -2 -48 -2 -42 22 5
19 2 27 -11 32 -15 6 -14 8 7 14 14 4 42 7 63 8 38 1 38 1 35 -36z m-150 -19
c3 -29 0 -32 -33 -38 -43 -8 -43 -9 -51 31 -5 27 -3 32 17 36 50 10 64 4 67
-29z m136 -81 c-9 -37 -12 -39 -65 -46 -46 -6 -46 -6 -41 21 6 36 28 52 74 52
37 0 38 -1 32 -27z m-144 -2 c0 -39 -13 -61 -35 -61 -15 0 -25 8 -29 23 -12
44 -7 52 29 53 26 0 35 -4 35 -15z m44 -112 c3 -17 6 -44 6 -60 0 -26 -3 -28
-57 -34 -32 -4 -67 -9 -78 -11 l-20 -5 20 12 c37 22 67 54 86 92 24 45 35 47
43 6z"/>
<path d="M245 808 c-42 -13 -75 -18 -108 -14 l-49 5 7 -27 c16 -63 24 -206 12
-214 -19 -12 -57 -9 -57 4 0 21 -13 -1 -31 -54 -19 -55 -17 -88 5 -88 15 0 36
44 39 78 1 17 11 23 52 32 103 20 238 39 246 34 5 -3 2 -18 -6 -35 -9 -16 -14
-29 -12 -29 2 0 27 13 56 28 48 27 50 30 34 44 -31 27 -59 37 -83 31 -18 -5
-21 -3 -17 13 3 10 13 55 22 98 l17 80 -22 18 c-27 21 -29 21 -105 -4z m63
-56 c3 -30 1 -32 -30 -34 -18 0 -46 0 -61 1 -24 2 -28 -1 -24 -16 3 -10 9 -43
12 -74 7 -54 6 -56 -18 -61 -21 -4 -26 0 -31 25 -3 16 -6 60 -6 97 l0 67 68
16 c37 8 72 14 77 13 6 -2 11 -17 13 -34z m-10 -104 c-2 -35 -8 -55 -18 -60
-34 -15 -40 -9 -40 46 0 57 -1 56 53 65 5 0 7 -23 5 -51z"/>
<path d="M250 488 c-14 -5 -52 -12 -85 -14 -44 -2 -59 -7 -55 -16 10 -26 3
-204 -9 -243 -7 -22 -24 -62 -38 -89 -19 -40 -20 -46 -6 -35 33 26 52 54 69
99 22 58 21 56 43 36 19 -17 21 -16 71 30 27 26 53 44 56 41 4 -3 3 -36 -1
-73 l-7 -66 -39 5 -39 5 38 -44 c72 -84 89 -51 93 183 4 171 4 172 -19 183
-28 12 -39 12 -72 -2z m41 -40 c0 -7 2 -38 5 -69 l6 -57 -63 -31 c-88 -44 -90
-43 -82 32 3 34 7 63 8 65 2 2 21 -9 44 -23 41 -28 71 -28 71 -1 0 19 -24 32
-77 41 -44 7 -48 11 -35 31 14 22 122 32 123 12z"/>
</g>
</svg>
