<?xml version="1.0" standalone="no"?>
<!DOCTYPE svg PUBLIC "-//W3C//DTD SVG 20010904//EN"
 "http://www.w3.org/TR/2001/REC-SVG-20010904/DTD/svg10.dtd">
<svg version="1.0" xmlns="http://www.w3.org/2000/svg"
 width="96.000000pt" height="68.000000pt" viewBox="0 0 96.000000 68.000000"
 preserveAspectRatio="xMidYMid meet">
<metadata>
Created by potrace 1.16, written by Peter Selinger 2001-2019
</metadata>
<g transform="translate(0.000000,68.000000) scale(0.100000,-0.100000)"
fill="#000000" stroke="none">
<path d="M556 540 c-28 -58 -54 -79 -78 -64 -8 5 -9 2 -4 -12 11 -26 23 -72
31 -117 5 -33 8 -37 30 -31 35 9 31 -4 -11 -43 -24 -22 -31 -33 -20 -33 8 0
37 21 63 46 47 45 49 46 107 42 l58 -3 29 75 c16 41 27 81 24 89 -4 11 -22 12
-88 7 -45 -3 -97 -9 -115 -12 -43 -8 -36 11 18 49 22 16 40 34 40 41 0 11 -31
27 -50 25 -3 0 -18 -27 -34 -59z m172 -87 c-3 -25 -8 -28 -44 -31 -39 -3 -41
-2 -42 28 -1 29 1 30 44 30 44 0 45 -1 42 -27z m-140 -16 c3 -24 0 -27 -27
-27 -17 0 -31 4 -31 9 0 5 -3 16 -6 24 -4 11 2 17 18 20 36 7 43 3 46 -26z
m120 -78 c-7 -5 -32 -9 -55 -9 -42 0 -42 1 -31 24 8 20 20 26 52 28 34 2 42 0
44 -16 2 -10 -2 -23 -10 -27z m-118 22 c0 -23 -14 -41 -31 -41 -10 0 -19 3
-20 8 0 4 -2 15 -4 25 -2 13 4 17 26 17 16 0 29 -4 29 -9z"/>
<path d="M305 569 c-22 -4 -64 -8 -92 -8 -58 -1 -57 0 -44 -51 5 -19 12 -57
15 -83 l6 -49 -37 4 c-35 3 -38 1 -51 -35 -12 -30 -12 -40 -3 -50 10 -9 15 -8
27 7 8 11 14 28 14 38 0 10 1 18 3 19 1 0 60 8 130 18 l129 17 -5 -23 c-2 -13
-3 -23 -1 -23 11 0 84 36 84 41 0 9 -48 29 -70 29 -24 0 -25 11 -4 79 23 79 4
92 -101 70z m45 -50 c0 -16 -7 -19 -45 -19 l-45 0 2 -52 c3 -43 0 -53 -14 -56
-16 -3 -18 5 -18 67 l0 70 38 6 c20 4 44 7 52 9 22 4 30 -3 30 -25z m0 -72 c0
-38 -3 -43 -25 -45 -23 -2 -25 2 -25 37 0 22 5 42 13 44 30 13 37 6 37 -36z"/>
<path d="M324 340 c-11 -5 -46 -11 -77 -15 l-57 -7 0 -68 c0 -38 -5 -91 -12
-119 -9 -40 -9 -54 1 -64 15 -15 27 2 36 52 9 45 18 51 83 51 l53 0 -3 -37
c-3 -36 -5 -38 -33 -35 l-30 3 29 -30 c23 -24 33 -28 47 -20 24 12 27 30 32
166 l3 112 -25 9 c-15 5 -35 6 -47 2z m26 -49 c0 -22 -5 -30 -17 -29 -10 0
-37 -3 -60 -7 -43 -8 -43 -7 -43 23 0 33 9 37 88 41 29 1 32 -2 32 -28z m0
-66 c0 -8 0 -18 0 -22 0 -5 -8 -9 -17 -9 -10 -1 -37 -5 -60 -9 -41 -7 -43 -7
-43 18 0 27 13 32 88 36 22 1 32 -3 32 -14z"/>
<path d="M630 281 c0 -44 -12 -51 -90 -51 -66 0 -121 -11 -113 -22 3 -7 42 -8
104 -3 l99 7 0 -84 c0 -146 34 -138 46 11 l7 81 83 0 c84 0 111 13 54 25 -16
4 -53 5 -82 4 l-53 -3 2 31 c2 24 -2 32 -20 37 -35 9 -37 8 -37 -33z"/>
</g>
</svg>
