<?xml version="1.0" standalone="no"?>
<!DOCTYPE svg PUBLIC "-//W3C//DTD SVG 20010904//EN"
 "http://www.w3.org/TR/2001/REC-SVG-20010904/DTD/svg10.dtd">
<svg version="1.0" xmlns="http://www.w3.org/2000/svg"
 width="96.000000pt" height="68.000000pt" viewBox="0 0 96.000000 68.000000"
 preserveAspectRatio="xMidYMid meet">
<metadata>
Created by potrace 1.16, written by Peter Selinger 2001-2019
</metadata>
<g transform="translate(0.000000,68.000000) scale(0.100000,-0.100000)"
fill="#000000" stroke="none">
<path d="M620 378 c-14 -5 -62 -10 -107 -11 -84 -2 -92 -4 -72 -24 6 -6 16
-32 23 -59 10 -39 17 -48 32 -46 10 2 61 6 112 9 83 5 113 14 80 25 -9 3 -4
17 15 46 15 23 27 46 27 51 0 21 -66 27 -110 9z m37 -54 c-3 -20 -8 -39 -11
-41 -3 -3 -38 -6 -78 -7 l-72 -1 -6 30 c-5 30 -5 30 60 41 112 20 114 20 107
-22z"/>
</g>
</svg>
