<?xml version="1.0" standalone="no"?>
<!DOCTYPE svg PUBLIC "-//W3C//DTD SVG 20010904//EN"
 "http://www.w3.org/TR/2001/REC-SVG-20010904/DTD/svg10.dtd">
<svg version="1.0" xmlns="http://www.w3.org/2000/svg"
 width="96.000000pt" height="68.000000pt" viewBox="0 0 96.000000 68.000000"
 preserveAspectRatio="xMidYMid meet">
<metadata>
Created by potrace 1.16, written by Peter Selinger 2001-2019
</metadata>
<g transform="translate(0.000000,68.000000) scale(0.100000,-0.100000)"
fill="#000000" stroke="none">
<path d="M230 525 c37 -38 72 -44 78 -13 4 20 -45 48 -84 48 l-28 0 34 -35z"/>
<path d="M120 420 c0 -14 71 -71 83 -67 20 6 20 44 0 52 -34 14 -83 23 -83 15z"/>
<path d="M221 244 c-18 -24 -47 -52 -62 -61 -16 -10 -29 -26 -29 -36 0 -26 18
-57 33 -57 9 1 85 138 105 191 9 24 -17 3 -47 -37z"/>
</g>
</svg>
