<?xml version="1.0" standalone="no"?>
<!DOCTYPE svg PUBLIC "-//W3C//DTD SVG 20010904//EN"
 "http://www.w3.org/TR/2001/REC-SVG-20010904/DTD/svg10.dtd">
<svg version="1.0" xmlns="http://www.w3.org/2000/svg"
 width="90.000000pt" height="92.000000pt" viewBox="0 0 90.000000 92.000000"
 preserveAspectRatio="xMidYMid meet">
<metadata>
Created by potrace 1.16, written by Peter Selinger 2001-2019
</metadata>
<g transform="translate(0.000000,92.000000) scale(0.100000,-0.100000)"
fill="#000000" stroke="none">
<path d="M496 852 c-3 -27 -24 -86 -46 -131 l-40 -82 29 21 c16 11 39 36 51
55 20 33 25 35 78 36 74 1 164 21 170 36 9 29 -43 32 -127 8 -44 -12 -81 -20
-81 -16 0 3 9 21 20 39 25 40 25 37 -2 62 -33 31 -45 25 -52 -28z"/>
<path d="M230 848 c-1 -36 -43 -130 -89 -198 -29 -42 -36 -58 -22 -51 24 13
111 100 111 111 0 4 15 8 34 8 35 0 107 10 139 18 23 7 21 19 -5 31 -17 7 -40
5 -86 -8 l-63 -18 20 35 c28 47 26 61 -9 79 -29 15 -30 15 -30 -7z"/>
<path d="M540 703 c0 -5 14 -25 31 -46 22 -26 38 -37 53 -35 30 4 33 43 4 61
-28 18 -88 32 -88 20z"/>
<path d="M260 678 c0 -18 50 -78 66 -78 9 0 14 10 14 30 0 23 -7 33 -30 45
-35 18 -50 19 -50 3z"/>
<path d="M257 573 c-4 -3 -7 -16 -7 -28 0 -28 -62 -124 -126 -194 l-49 -54 43
24 c24 13 66 49 95 79 45 47 57 54 89 55 46 0 47 -9 13 -84 -16 -34 -52 -80
-95 -123 -39 -37 -67 -68 -65 -68 17 0 91 46 126 77 44 40 124 167 124 198 0
14 10 21 34 26 l33 7 -4 -49 c-7 -71 -77 -206 -145 -279 -59 -64 -57 -75 6
-36 60 38 108 102 168 224 53 109 55 113 38 132 -18 20 -17 20 39 20 43 0 58
-4 63 -16 7 -19 -20 -189 -42 -259 -8 -27 -23 -61 -34 -74 -18 -23 -19 -24
-64 -8 l-46 15 40 -59 c23 -32 48 -59 56 -59 8 0 30 15 48 33 39 39 56 92 84
257 10 63 25 127 31 142 16 35 8 53 -30 73 -25 13 -38 14 -61 6 -25 -9 -121
-26 -303 -56 l-28 -5 17 26 c16 24 16 27 -1 45 -18 19 -35 24 -47 12z"/>
</g>
</svg>
