<?xml version="1.0" standalone="no"?>
<!DOCTYPE svg PUBLIC "-//W3C//DTD SVG 20010904//EN"
 "http://www.w3.org/TR/2001/REC-SVG-20010904/DTD/svg10.dtd">
<svg version="1.0" xmlns="http://www.w3.org/2000/svg"
 width="90.000000pt" height="92.000000pt" viewBox="0 0 90.000000 92.000000"
 preserveAspectRatio="xMidYMid meet">
<metadata>
Created by potrace 1.16, written by Peter Selinger 2001-2019
</metadata>
<g transform="translate(0.000000,92.000000) scale(0.100000,-0.100000)"
fill="#000000" stroke="none">
<path d="M655 800 c-51 -16 -299 -38 -310 -29 -5 5 -18 9 -28 9 -16 0 -18 -4
-11 -27 14 -45 11 -388 -5 -485 -13 -79 -13 -89 3 -113 18 -27 36 -25 36 4 0
20 23 24 223 37 l97 7 22 -52 c25 -59 45 -65 78 -24 21 27 22 34 18 293 -1
146 1 281 5 302 7 33 5 38 -21 56 -36 26 -69 33 -107 22z m33 -49 c8 -4 18
-39 22 -77 11 -79 13 -357 4 -402 -6 -30 -8 -31 -48 -26 -22 3 -94 -2 -159
-10 -65 -9 -127 -16 -137 -16 -19 0 -20 7 -14 248 4 136 8 248 9 250 4 4 167
30 220 35 75 7 90 7 103 -2z"/>
<path d="M485 683 c8 -43 9 -48 7 -85 -2 -24 -7 -27 -52 -33 -72 -10 -61 -35
15 -35 l33 0 -13 -50 c-12 -46 -40 -99 -82 -159 l-17 -24 31 17 c30 15 93 93
93 115 0 29 24 15 66 -38 40 -51 71 -78 79 -69 1 2 5 13 9 24 9 30 -34 78 -91
104 -39 17 -44 23 -39 42 3 13 6 28 6 34 0 7 28 17 62 23 72 13 89 24 58 41
-15 8 -34 9 -67 2 l-46 -10 6 60 c5 56 4 60 -20 69 -41 15 -46 12 -38 -28z"/>
<path d="M165 662 c-16 -9 -56 -18 -87 -20 -58 -4 -67 -9 -48 -28 6 -6 16 -56
23 -112 8 -56 17 -105 21 -109 4 -5 14 0 21 10 10 13 31 20 75 24 48 5 60 9
55 20 -6 17 20 125 40 163 15 29 10 42 -22 59 -27 14 -40 13 -78 -7z m27 -87
c-5 -92 -10 -104 -49 -111 -43 -8 -53 4 -53 68 0 25 -2 53 -5 61 -4 10 6 17
37 24 69 17 73 15 70 -42z"/>
</g>
</svg>
