<?xml version="1.0" standalone="no"?>
<!DOCTYPE svg PUBLIC "-//W3C//DTD SVG 20010904//EN"
 "http://www.w3.org/TR/2001/REC-SVG-20010904/DTD/svg10.dtd">
<svg version="1.0" xmlns="http://www.w3.org/2000/svg"
 width="96.000000pt" height="68.000000pt" viewBox="0 0 96.000000 68.000000"
 preserveAspectRatio="xMidYMid meet">
<metadata>
Created by potrace 1.16, written by Peter Selinger 2001-2019
</metadata>
<g transform="translate(0.000000,68.000000) scale(0.100000,-0.100000)"
fill="#000000" stroke="none">
<path d="M540 412 c0 -42 -11 -52 -55 -52 -13 0 -27 -4 -30 -10 -4 -6 12 -10
39 -10 44 0 46 -1 46 -29 0 -32 -5 -35 -83 -46 -71 -9 -49 -29 24 -21 48 5 59
3 59 -9 0 -8 7 -15 15 -15 8 0 15 9 15 19 0 20 10 23 133 37 31 3 57 10 57 15
0 16 -70 21 -121 9 -41 -10 -53 -10 -59 0 -16 25 2 50 44 60 69 18 74 21 49
30 -12 5 -36 5 -55 -1 -18 -5 -34 -9 -35 -9 -1 0 -3 15 -5 32 -2 22 -9 34 -20
36 -15 3 -18 -4 -18 -36z"/>
</g>
</svg>
