<?xml version="1.0" standalone="no"?>
<!DOCTYPE svg PUBLIC "-//W3C//DTD SVG 20010904//EN"
 "http://www.w3.org/TR/2001/REC-SVG-20010904/DTD/svg10.dtd">
<svg version="1.0" xmlns="http://www.w3.org/2000/svg"
 width="90.000000pt" height="92.000000pt" viewBox="0 0 90.000000 92.000000"
 preserveAspectRatio="xMidYMid meet">
<metadata>
Created by potrace 1.16, written by Peter Selinger 2001-2019
</metadata>
<g transform="translate(0.000000,92.000000) scale(0.100000,-0.100000)"
fill="#000000" stroke="none">
<path d="M580 864 c0 -19 -7 -66 -16 -105 -20 -87 -15 -101 16 -51 l25 40 78
4 c42 3 80 8 83 11 4 4 1 14 -7 23 -13 16 -54 15 -117 -2 -24 -7 -24 -7 -8 24
23 44 20 59 -14 77 -39 20 -40 20 -40 -21z"/>
<path d="M400 851 c0 -5 7 -25 15 -44 l15 -36 -38 -10 c-20 -5 -50 -12 -67
-16 -29 -6 -29 -7 -10 -21 13 -10 32 -13 55 -10 71 12 74 12 79 -12 12 -47 26
-20 29 55 2 64 0 80 -14 90 -20 15 -64 17 -64 4z"/>
<path d="M120 783 c0 -5 18 -29 41 -55 48 -57 89 -66 89 -20 0 15 -4 32 -8 39
-16 26 -122 57 -122 36z"/>
<path d="M641 674 c-19 -9 -52 -16 -73 -16 -32 0 -38 -3 -32 -17 3 -9 11 -36
16 -61 10 -43 28 -78 28 -52 0 7 14 12 33 12 56 0 106 12 101 24 -2 6 5 29 16
51 l21 40 -22 18 c-25 20 -42 20 -88 1z m39 -51 c0 -29 -13 -40 -52 -46 -36
-6 -38 -5 -38 23 0 30 11 37 63 39 20 1 27 -4 27 -16z"/>
<path d="M421 653 c-19 -8 -56 -15 -82 -15 -27 -1 -49 -5 -49 -10 0 -4 4 -8 8
-8 5 0 16 -28 26 -62 13 -46 20 -58 28 -50 7 7 18 12 26 12 45 0 -44 -162
-125 -229 -21 -17 -34 -31 -30 -31 17 0 70 33 107 66 l38 35 6 -38 c4 -21 1
-74 -4 -118 -6 -44 -11 -85 -12 -91 -2 -21 25 -75 36 -71 6 2 14 19 19 39 l8
35 82 7 c45 3 120 6 167 6 97 0 130 7 130 25 0 31 -96 40 -197 19 -20 -4 -23
0 -23 30 l0 34 60 7 c33 4 63 11 66 16 9 15 -41 28 -85 22 -37 -5 -41 -3 -41
15 0 22 8 26 84 36 21 3 41 8 44 11 14 14 -27 26 -76 21 -51 -5 -52 -4 -48 21
3 14 7 27 9 29 2 2 34 7 70 11 72 8 85 20 46 41 -22 11 -68 9 -105 -5 -8 -3
-14 1 -14 10 0 19 -38 47 -63 47 -18 0 -18 -1 2 -35 l20 -35 -22 -5 c-12 -3
-41 -9 -64 -14 l-43 -9 22 31 21 30 -21 18 -22 17 28 7 c21 4 28 12 30 32 1
15 9 37 17 49 21 32 19 41 -12 51 -20 7 -38 6 -62 -4z m21 -63 c-3 -24 -10
-31 -39 -36 -39 -7 -39 -7 -48 28 -7 29 2 35 61 37 28 1 30 -1 26 -29z m88
-209 c0 -21 -6 -30 -22 -35 -46 -12 -80 -6 -98 17 l-18 22 61 11 c34 6 65 12
70 13 4 0 7 -12 7 -28z m3 -91 c-7 -24 -10 -26 -74 -34 -45 -5 -45 -5 -41 22
3 25 7 27 62 30 55 3 58 2 53 -18z m-3 -89 c0 -17 -6 -31 -16 -35 -22 -9 -94
-7 -94 2 0 4 -3 17 -6 29 -5 20 -2 22 37 26 24 2 52 4 62 5 13 2 17 -5 17 -27z"/>
<path d="M50 601 c0 -24 82 -101 107 -101 21 0 24 4 21 32 -2 23 -11 37 -33
49 -40 23 -95 34 -95 20z"/>
<path d="M230 482 c0 -4 -19 -40 -43 -79 -42 -71 -75 -112 -116 -146 -23 -18
-22 -33 3 -86 15 -33 34 -37 45 -9 5 13 34 79 64 148 59 137 73 180 57 180 -5
0 -10 -4 -10 -8z"/>
</g>
</svg>
