<?xml version="1.0" standalone="no"?>
<!DOCTYPE svg PUBLIC "-//W3C//DTD SVG 20010904//EN"
 "http://www.w3.org/TR/2001/REC-SVG-20010904/DTD/svg10.dtd">
<svg version="1.0" xmlns="http://www.w3.org/2000/svg"
 width="96.000000pt" height="68.000000pt" viewBox="0 0 96.000000 68.000000"
 preserveAspectRatio="xMidYMid meet">
<metadata>
Created by potrace 1.16, written by Peter Selinger 2001-2019
</metadata>
<g transform="translate(0.000000,68.000000) scale(0.100000,-0.100000)"
fill="#000000" stroke="none">
<path d="M564 305 c24 -18 13 -33 -37 -53 l-32 -12 38 5 c20 3 38 2 38 -2 8
-41 7 -86 -2 -125 -10 -45 -11 -46 -40 -38 -18 5 -27 5 -24 -1 4 -5 13 -9 21
-9 8 0 13 -4 10 -9 -3 -4 3 -16 14 -26 18 -17 20 -16 39 16 17 28 21 50 20
131 -1 54 -5 95 -10 92 -5 -3 -6 1 -3 9 3 8 -6 18 -23 25 -26 11 -27 11 -9 -3z
m-3 -262 c13 -16 12 -17 -3 -4 -10 7 -18 15 -18 17 0 8 8 3 21 -13z"/>
<path d="M715 275 c-27 -7 -61 -15 -75 -18 -14 -3 19 -4 72 -4 62 1 99 6 102
13 3 8 -3 10 -16 6 -14 -3 -19 -1 -14 6 9 15 -6 14 -69 -3z"/>
<path d="M390 240 c0 -16 49 -23 65 -10 8 6 20 8 26 4 8 -4 9 -3 5 4 -9 14
-96 16 -96 2z"/>
</g>
</svg>
