<?xml version="1.0" standalone="no"?>
<!DOCTYPE svg PUBLIC "-//W3C//DTD SVG 20010904//EN"
 "http://www.w3.org/TR/2001/REC-SVG-20010904/DTD/svg10.dtd">
<svg version="1.0" xmlns="http://www.w3.org/2000/svg"
 width="96.000000pt" height="68.000000pt" viewBox="0 0 96.000000 68.000000"
 preserveAspectRatio="xMidYMid meet">
<metadata>
Created by potrace 1.16, written by Peter Selinger 2001-2019
</metadata>
<g transform="translate(0.000000,68.000000) scale(0.100000,-0.100000)"
fill="#000000" stroke="none">
<path d="M590 577 c-35 -23 -78 -42 -115 -50 -14 -3 -11 -5 9 -6 26 -1 168 34
189 46 12 7 -13 33 -32 33 -9 0 -32 -10 -51 -23z"/>
<path d="M305 525 c-33 -7 -81 -16 -107 -20 -27 -3 -48 -10 -48 -14 0 -10 35
-21 68 -21 12 0 22 -5 22 -10 0 -22 -43 -100 -76 -139 -37 -43 -35 -53 4 -25
13 9 24 14 25 12 1 -2 17 -20 36 -40 l34 -38 -77 -75 c-42 -41 -74 -75 -70
-75 7 0 70 37 92 55 58 45 199 242 184 257 -11 11 -48 12 -99 3 l-43 -8 23 44
c28 55 29 56 93 64 60 7 74 19 45 34 -23 13 -26 13 -106 -4z m27 -151 c8 -7
-42 -104 -53 -104 -5 0 -9 4 -9 9 0 5 -14 14 -30 21 -39 16 -45 27 -25 46 22
23 104 42 117 28z"/>
<path d="M720 530 c0 -5 -16 -28 -36 -50 -20 -22 -34 -40 -30 -40 15 0 136 53
136 60 0 9 -45 40 -60 40 -5 0 -10 -4 -10 -10z"/>
<path d="M530 483 c1 -18 38 -55 49 -49 17 11 13 34 -8 46 -23 12 -41 13 -41
3z"/>
<path d="M426 462 c-7 -6 43 -62 56 -62 4 0 8 11 8 24 0 18 -8 27 -29 34 -16
6 -32 8 -35 4z"/>
<path d="M545 389 c-44 -9 -82 -18 -85 -18 -3 -1 3 -6 12 -12 12 -6 37 -4 83
7 36 9 68 14 71 11 3 -3 -2 -17 -13 -31 -12 -17 -28 -25 -47 -26 -23 0 -27 -3
-18 -12 7 -7 12 -19 12 -29 0 -13 -13 -18 -61 -23 -34 -3 -77 -6 -95 -6 -19 0
-34 -4 -34 -10 0 -18 53 -23 110 -12 96 20 93 22 88 -58 -4 -84 -14 -97 -59
-81 l-33 11 29 -31 c75 -78 98 -60 105 79 l5 97 113 3 c113 3 138 13 85 33
-20 7 -50 7 -101 0 -101 -15 -104 -15 -100 11 2 15 19 30 55 48 57 27 62 36
36 56 -23 17 -58 16 -158 -7z"/>
</g>
</svg>
