<?xml version="1.0" standalone="no"?>
<!DOCTYPE svg PUBLIC "-//W3C//DTD SVG 20010904//EN"
 "http://www.w3.org/TR/2001/REC-SVG-20010904/DTD/svg10.dtd">
<svg version="1.0" xmlns="http://www.w3.org/2000/svg"
 width="90.000000pt" height="92.000000pt" viewBox="0 0 90.000000 92.000000"
 preserveAspectRatio="xMidYMid meet">
<metadata>
Created by potrace 1.16, written by Peter Selinger 2001-2019
</metadata>
<g transform="translate(0.000000,92.000000) scale(0.100000,-0.100000)"
fill="#000000" stroke="none">
<path d="M135 840 c-3 -6 -3 -16 2 -22 4 -7 10 -61 13 -120 l5 -108 -72 -12
c-61 -10 -70 -14 -61 -26 9 -10 28 -13 69 -10 l56 4 -24 -60 c-13 -34 -46 -94
-73 -135 -28 -40 -50 -78 -50 -84 0 -19 71 56 112 118 l40 60 -7 -105 c-4 -58
-10 -125 -15 -149 -12 -67 17 -147 41 -110 5 8 9 57 9 110 0 53 3 137 6 187
l7 92 24 -33 c28 -38 48 -41 48 -7 0 19 -10 30 -37 45 -32 17 -38 25 -38 53 0
24 4 32 19 32 25 0 81 20 81 29 0 17 -51 31 -71 20 -12 -6 -23 -8 -26 -6 -2 3
0 49 5 104 6 54 8 101 5 106 -10 16 -62 37 -68 27z"/>
<path d="M659 786 c-2 -3 -90 -17 -194 -32 -105 -15 -192 -29 -193 -30 -2 -1
6 -12 17 -23 24 -24 25 -41 11 -196 -12 -128 -30 -218 -65 -312 -13 -37 -23
-69 -21 -70 2 -2 15 14 30 36 55 79 86 197 107 412 l12 126 76 12 c41 6 132
16 201 22 69 6 127 13 130 16 11 11 -45 43 -74 43 -18 0 -35 -2 -37 -4z"/>
<path d="M635 643 c-6 -39 -31 -130 -52 -192 -4 -10 4 -6 23 10 28 26 137 59
150 47 3 -3 -2 -22 -10 -42 l-15 -37 42 26 c23 14 48 29 56 34 17 11 7 28 -31
51 -28 17 -31 17 -86 0 -31 -10 -58 -17 -59 -16 -2 2 8 26 22 54 31 64 31 77
3 96 -32 23 -35 21 -43 -31z"/>
<path d="M514 627 c0 -24 -9 -61 -20 -83 -17 -35 -24 -40 -72 -49 -52 -10 -62
-25 -16 -25 30 0 44 -27 44 -84 0 -60 -8 -76 -37 -76 -19 0 -24 4 -19 16 18
47 18 65 0 79 -29 22 -36 18 -29 -14 4 -17 0 -44 -9 -66 -12 -27 -13 -42 -6
-56 13 -23 19 -23 44 -4 11 8 25 15 32 15 20 0 -9 -86 -46 -138 -41 -58 -30
-66 20 -14 27 29 45 62 58 104 16 51 24 63 46 69 23 6 26 4 26 -17 0 -26 17
-33 26 -10 3 8 11 42 18 76 12 56 11 62 -5 70 -31 17 -36 11 -31 -40 4 -41 2
-50 -11 -50 -8 0 -22 -3 -30 -6 -12 -4 -15 7 -13 68 1 75 7 87 41 88 11 0 27
5 35 10 13 9 13 11 0 20 -8 6 -25 8 -37 5 -19 -4 -17 2 19 55 39 59 40 62 23
80 -31 34 -50 26 -51 -23z"/>
<path d="M386 583 c9 -21 18 -44 21 -50 3 -7 11 -13 18 -13 39 0 28 63 -15 85
-41 21 -42 20 -24 -22z"/>
<path d="M638 361 c-6 -79 -46 -175 -98 -234 -17 -20 -27 -37 -21 -37 25 0
102 85 129 143 l29 61 37 -79 c19 -44 40 -87 44 -95 10 -18 68 -25 101 -12 21
8 20 10 -30 48 -29 21 -73 66 -96 99 -40 55 -43 64 -37 106 5 42 3 46 -21 57
-14 7 -27 12 -29 12 -2 0 -6 -31 -8 -69z"/>
</g>
</svg>
