<?xml version="1.0" standalone="no"?>
<!DOCTYPE svg PUBLIC "-//W3C//DTD SVG 20010904//EN"
 "http://www.w3.org/TR/2001/REC-SVG-20010904/DTD/svg10.dtd">
<svg version="1.0" xmlns="http://www.w3.org/2000/svg"
 width="96.000000pt" height="68.000000pt" viewBox="0 0 96.000000 68.000000"
 preserveAspectRatio="xMidYMid meet">
<metadata>
Created by potrace 1.16, written by Peter Selinger 2001-2019
</metadata>
<g transform="translate(0.000000,68.000000) scale(0.100000,-0.100000)"
fill="#000000" stroke="none">
<path d="M215 573 c5 -10 10 -49 13 -87 5 -76 -1 -85 -53 -86 -42 0 -76 -11
-69 -21 3 -5 30 -9 60 -9 l55 0 -33 -61 c-18 -33 -48 -78 -66 -100 -19 -21
-28 -39 -22 -39 21 0 71 41 101 83 33 46 34 43 18 -85 -12 -94 -4 -138 25
-138 22 0 26 23 26 158 l1 127 19 -24 c12 -13 26 -21 35 -17 26 10 16 37 -20
52 -50 21 -48 50 5 59 67 11 68 38 1 38 -44 0 -41 -12 -27 102 5 41 -13 65
-51 65 -20 0 -24 -3 -18 -17z"/>
<path d="M495 520 c-77 -11 -142 -19 -144 -19 -2 -1 1 -7 7 -14 12 -14 19
-138 9 -153 -3 -5 -8 -25 -11 -44 -8 -50 -31 -129 -50 -172 -9 -21 -14 -38
-10 -38 7 0 43 43 44 52 0 4 11 31 24 60 15 34 28 91 36 161 7 59 18 114 24
122 8 10 54 18 169 27 86 7 158 18 160 23 4 17 -110 14 -258 -5z"/>
<path d="M656 458 c-2 -7 -12 -40 -22 -73 -27 -87 -28 -93 -7 -69 12 14 36 23
70 27 55 6 69 1 51 -20 -6 -7 -9 -16 -6 -19 9 -8 78 29 78 42 0 20 -51 31 -98
21 -24 -5 -46 -6 -49 -3 -3 3 4 17 16 32 25 32 27 60 5 68 -24 9 -34 7 -38 -6z"/>
<path d="M550 440 c0 -11 -7 -38 -16 -60 -15 -37 -19 -40 -54 -40 -22 0 -42
-4 -45 -10 -3 -6 5 -10 18 -10 29 0 37 -16 37 -74 0 -37 -3 -42 -25 -44 -27
-2 -28 2 -16 33 8 20 -3 45 -20 45 -5 0 -9 -11 -9 -25 0 -13 -5 -36 -12 -50
-15 -34 -5 -41 38 -27 l36 11 -6 -32 c-3 -17 -15 -40 -25 -52 -10 -11 -22 -27
-27 -35 -7 -13 -5 -13 16 1 14 8 39 41 55 72 19 36 36 57 48 57 9 0 17 -7 17
-15 0 -8 6 -12 14 -9 20 8 39 96 23 106 -26 17 -39 9 -32 -21 5 -24 2 -32 -14
-41 -23 -12 -23 -14 -24 60 0 43 1 45 31 48 38 4 43 22 6 22 l-25 0 31 44 c33
46 33 66 -1 66 -12 0 -19 -7 -19 -20z"/>
<path d="M439 403 c5 -10 16 -27 24 -37 21 -28 33 -1 13 29 -19 29 -53 36 -37
8z"/>
<path d="M657 245 c-9 -59 -29 -102 -73 -154 -20 -23 -32 -41 -28 -41 18 0 78
56 103 97 21 34 31 42 37 32 16 -26 44 -74 56 -96 9 -19 20 -23 55 -23 23 0
43 3 43 8 0 4 -20 20 -45 35 -25 16 -55 43 -67 60 -12 18 -26 35 -31 38 -5 3
-5 22 -2 43 5 22 3 36 -3 36 -6 0 -17 2 -25 6 -11 4 -16 -7 -20 -41z"/>
</g>
</svg>
