<?xml version="1.0" standalone="no"?>
<!DOCTYPE svg PUBLIC "-//W3C//DTD SVG 20010904//EN"
 "http://www.w3.org/TR/2001/REC-SVG-20010904/DTD/svg10.dtd">
<svg version="1.0" xmlns="http://www.w3.org/2000/svg"
 width="96.000000pt" height="68.000000pt" viewBox="0 0 96.000000 68.000000"
 preserveAspectRatio="xMidYMid meet">
<metadata>
Created by potrace 1.16, written by Peter Selinger 2001-2019
</metadata>
<g transform="translate(0.000000,68.000000) scale(0.100000,-0.100000)"
fill="#000000" stroke="none">
<path d="M267 583 c-4 -3 -7 -17 -7 -30 0 -37 -45 -117 -107 -191 -32 -37 -64
-72 -73 -79 -8 -6 -12 -14 -8 -18 8 -8 42 9 89 46 20 16 40 29 44 29 8 0 0
-187 -11 -237 -10 -50 15 -51 87 -4 67 44 74 46 84 31 9 -15 22 -12 29 6 8 20
-28 54 -57 54 -16 0 -17 -2 -7 -15 11 -13 10 -18 -6 -30 -10 -8 -23 -15 -29
-15 -5 0 -20 -3 -32 -6 -22 -6 -23 -3 -23 49 l0 55 48 7 c26 3 54 5 62 3 9 -2
21 18 36 60 20 57 21 64 6 78 -16 16 -27 16 -127 -2 l-40 -7 16 24 c12 17 29
26 64 31 59 8 78 15 71 27 -7 11 -67 4 -80 -9 -20 -20 -26 -10 -12 18 31 57
31 56 72 28 49 -33 77 -34 72 -4 -2 16 -15 27 -43 38 -22 8 -52 27 -67 43 -28
27 -39 32 -51 20z m81 -241 c2 -16 -2 -22 -15 -22 -10 0 -35 -3 -56 -6 -36 -6
-37 -6 -29 17 15 41 95 49 100 11z m2 -49 c-1 -20 -19 -31 -62 -37 -43 -6 -48
-5 -48 12 0 10 3 22 7 25 9 10 103 9 103 0z"/>
<path d="M540 551 c0 -45 -79 -177 -130 -218 -11 -9 -12 -12 -2 -13 18 0 127
105 153 147 11 18 24 33 28 33 5 0 36 -34 70 -75 l61 -75 53 0 c60 0 95 15 62
25 -99 33 -235 129 -235 165 0 18 -27 40 -49 40 -6 0 -11 -13 -11 -29z"/>
<path d="M533 357 c-62 -12 -69 -24 -15 -29 34 -3 37 -6 37 -33 0 -26 -4 -30
-30 -33 -66 -5 -95 -13 -89 -23 4 -7 28 -8 65 -4 33 4 59 5 59 3 1 -1 3 -20 6
-41 3 -22 3 -55 -1 -74 -6 -31 -9 -34 -31 -29 -32 8 -30 -4 7 -40 l31 -29 18
22 c15 19 18 38 16 107 -2 47 0 89 3 93 3 4 38 10 76 12 76 3 87 7 65 22 -9 5
-43 7 -80 4 l-65 -7 -1 30 c-1 27 2 31 32 37 19 3 34 10 34 15 0 12 -68 11
-137 -3z"/>
<path d="M441 155 c-13 -25 -27 -45 -31 -45 -4 0 -10 -7 -14 -15 -9 -23 64 22
93 57 20 25 22 32 10 39 -25 15 -34 10 -58 -36z"/>
<path d="M722 146 c58 -74 98 -88 84 -31 -7 26 -86 85 -113 85 -8 0 4 -23 29
-54z"/>
</g>
</svg>
