<?xml version="1.0" standalone="no"?>
<!DOCTYPE svg PUBLIC "-//W3C//DTD SVG 20010904//EN"
 "http://www.w3.org/TR/2001/REC-SVG-20010904/DTD/svg10.dtd">
<svg version="1.0" xmlns="http://www.w3.org/2000/svg"
 width="96.000000pt" height="68.000000pt" viewBox="0 0 96.000000 68.000000"
 preserveAspectRatio="xMidYMid meet">
<metadata>
Created by potrace 1.16, written by Peter Selinger 2001-2019
</metadata>
<g transform="translate(0.000000,68.000000) scale(0.100000,-0.100000)"
fill="#000000" stroke="none">
<path d="M308 588 c-3 -43 -3 -43 -45 -46 -60 -4 -54 -22 7 -22 42 0 50 -3 50
-19 0 -21 -18 -26 -133 -37 -72 -7 -89 -17 -58 -33 13 -7 36 -8 72 -1 29 6 53
9 55 8 5 -5 -21 -33 -50 -56 -38 -29 -9 -29 34 1 26 17 55 51 55 63 0 1 24 5
53 9 48 6 52 5 52 -13 0 -42 11 -52 56 -52 24 0 44 4 44 9 0 13 -25 20 -49 14
-19 -5 -21 -2 -19 26 2 25 7 31 26 31 15 0 22 5 19 13 -3 8 -23 11 -61 9 -50
-2 -57 0 -54 15 2 13 15 20 42 23 55 7 60 30 7 30 -39 0 -41 2 -41 29 0 17 -6
31 -16 35 -34 13 -43 6 -46 -36z"/>
<path d="M557 603 c-2 -2 -1 -20 2 -41 9 -49 3 -85 -13 -79 -7 3 -18 2 -25 -3
-9 -5 -5 -9 12 -14 18 -4 24 -11 20 -25 -3 -13 -11 -17 -26 -13 -18 4 -20 2
-9 -9 18 -20 15 -31 -20 -77 -31 -41 -66 -58 -54 -27 6 18 -19 20 -57 6 -29
-11 -37 -7 -30 18 2 10 20 22 41 28 l37 10 -38 2 c-30 1 -37 5 -35 19 2 11 -4
18 -19 20 -17 3 -22 -2 -25 -25 -2 -22 -8 -28 -32 -30 -45 -3 -44 -13 2 -13
38 0 42 -2 39 -22 -3 -20 -12 -24 -70 -32 -37 -5 -67 -13 -67 -17 0 -20 53
-18 134 5 49 14 92 26 96 26 11 0 4 -70 -7 -81 -5 -5 -39 -12 -76 -16 -39 -3
-64 -10 -60 -16 3 -5 30 -7 60 -5 29 3 56 1 59 -4 8 -13 -98 -110 -147 -135
-48 -25 -42 -30 12 -11 58 20 141 92 178 156 5 9 38 16 91 19 l83 6 -6 -47
c-4 -26 -15 -61 -24 -78 -16 -26 -22 -29 -50 -24 -18 2 -33 3 -33 0 0 -15 46
-64 60 -64 30 0 68 53 86 120 9 36 22 71 27 78 26 33 -49 47 -157 29 -45 -8
-48 -7 -41 10 4 10 8 26 9 36 0 11 18 36 39 58 34 34 41 37 54 24 8 -8 21 -15
29 -15 22 0 17 37 -6 43 -17 4 -20 10 -14 34 10 40 23 53 55 53 l28 0 -6 -67
c-5 -64 -4 -70 21 -92 43 -41 180 -47 146 -7 -6 8 -15 27 -19 43 l-8 28 -8
-27 c-6 -23 -13 -28 -37 -28 -72 0 -88 49 -43 127 22 40 23 44 6 52 -11 6 -33
6 -60 0 -24 -5 -46 -7 -49 -4 -3 3 -5 25 -3 49 2 39 0 44 -23 48 -14 3 -27 3
-29 1z"/>
</g>
</svg>
