<?xml version="1.0" standalone="no"?>
<!DOCTYPE svg PUBLIC "-//W3C//DTD SVG 20010904//EN"
 "http://www.w3.org/TR/2001/REC-SVG-20010904/DTD/svg10.dtd">
<svg version="1.0" xmlns="http://www.w3.org/2000/svg"
 width="96.000000pt" height="68.000000pt" viewBox="0 0 96.000000 68.000000"
 preserveAspectRatio="xMidYMid meet">
<metadata>
Created by potrace 1.16, written by Peter Selinger 2001-2019
</metadata>
<g transform="translate(0.000000,68.000000) scale(0.100000,-0.100000)"
fill="#000000" stroke="none">
<path d="M677 583 c-4 -3 -7 -19 -7 -35 0 -17 -6 -31 -15 -33 -50 -16 -51 -17
-25 -29 16 -7 24 -17 22 -28 -5 -26 13 -22 28 7 11 21 21 25 59 25 51 0 81 13
61 25 -6 4 -29 7 -51 7 -36 -1 -38 1 -26 19 10 17 9 23 -7 35 -22 16 -30 17
-39 7z"/>
<path d="M465 533 c21 -50 19 -53 -25 -53 -29 0 -40 -4 -37 -12 3 -9 21 -12
50 -11 38 2 47 -1 52 -17 10 -30 25 -24 25 10 0 22 6 33 23 40 21 8 21 9 -5 9
-21 1 -28 6 -28 20 0 19 -18 31 -47 31 -10 0 -13 -5 -8 -17z"/>
</g>
</svg>
