<?xml version="1.0" standalone="no"?>
<!DOCTYPE svg PUBLIC "-//W3C//DTD SVG 20010904//EN"
 "http://www.w3.org/TR/2001/REC-SVG-20010904/DTD/svg10.dtd">
<svg version="1.0" xmlns="http://www.w3.org/2000/svg"
 width="96.000000pt" height="68.000000pt" viewBox="0 0 96.000000 68.000000"
 preserveAspectRatio="xMidYMid meet">
<metadata>
Created by potrace 1.16, written by Peter Selinger 2001-2019
</metadata>
<g transform="translate(0.000000,68.000000) scale(0.100000,-0.100000)"
fill="#000000" stroke="none">
<path d="M625 403 c-49 -7 -114 -13 -143 -14 -49 -1 -52 -2 -38 -18 8 -9 20
-40 26 -69 7 -28 16 -54 21 -57 5 -3 54 -3 110 1 l101 7 32 68 c45 94 32 103
-109 82z m65 -38 c0 -22 -5 -25 -32 -25 -18 0 -63 -3 -100 -6 -59 -6 -66 -5
-70 12 -3 16 6 21 62 30 36 7 82 12 103 13 33 1 37 -2 37 -24z m-4 -51 c-3 -9
-6 -19 -6 -23 0 -4 -37 -13 -81 -20 -67 -10 -83 -10 -90 1 -19 29 -8 36 69 43
42 4 82 8 87 10 21 7 27 4 21 -11z"/>
</g>
</svg>
