<?xml version="1.0" standalone="no"?>
<!DOCTYPE svg PUBLIC "-//W3C//DTD SVG 20010904//EN"
 "http://www.w3.org/TR/2001/REC-SVG-20010904/DTD/svg10.dtd">
<svg version="1.0" xmlns="http://www.w3.org/2000/svg"
 width="96.000000pt" height="68.000000pt" viewBox="0 0 96.000000 68.000000"
 preserveAspectRatio="xMidYMid meet">
<metadata>
Created by potrace 1.16, written by Peter Selinger 2001-2019
</metadata>
<g transform="translate(0.000000,68.000000) scale(0.100000,-0.100000)"
fill="#000000" stroke="none">
<path d="M625 574 c-49 -7 -115 -15 -145 -18 -30 -3 -56 -5 -57 -5 -2 -1 6
-10 16 -20 11 -11 23 -36 27 -55 4 -26 11 -36 25 -36 11 0 19 -3 19 -7 -1 -12
-26 -43 -36 -44 -11 0 -59 -59 -48 -59 3 0 21 8 38 19 21 12 68 22 151 29 157
15 151 21 136 -139 -6 -67 -17 -129 -23 -137 -8 -9 -22 -12 -40 -8 -34 7 -34
4 -6 -34 33 -45 64 -37 97 27 9 17 28 175 35 283 2 41 -34 50 -134 34 -47 -7
-101 -13 -120 -13 -32 0 -34 1 -16 14 10 8 16 20 13 28 -4 12 11 16 74 21 43
4 83 5 88 1 11 -6 80 82 81 102 0 16 -33 33 -62 32 -13 -1 -63 -7 -113 -15z
m107 -20 c3 -3 1 -18 -5 -35 -9 -24 -17 -29 -43 -29 -32 0 -32 0 -21 35 8 29
15 35 37 35 15 0 29 -3 32 -6z m-102 -28 c0 -37 -10 -56 -31 -56 -13 0 -19 7
-19 21 0 11 -5 29 -10 40 -10 17 -7 19 25 19 30 0 35 -3 35 -24z m-86 -2 c14
-37 7 -54 -23 -54 -28 0 -40 18 -41 58 0 18 57 15 64 -4z"/>
<path d="M216 553 c5 -10 8 -45 9 -78 l0 -60 -52 2 c-49 2 -67 -7 -43 -22 5
-3 17 -30 26 -60 17 -59 29 -74 47 -56 21 21 28 11 25 -36 l-3 -48 -52 -3
c-54 -3 -62 -9 -41 -30 17 -17 53 -15 96 6 20 11 59 25 86 32 44 12 50 12 61
-3 7 -9 17 -17 24 -17 21 0 11 38 -15 59 -31 24 -49 27 -41 7 6 -15 -12 -26
-45 -26 -16 0 -19 5 -14 22 3 13 6 28 6 34 0 6 18 14 39 18 30 4 39 11 38 24
0 10 10 32 23 49 32 44 16 63 -51 63 -55 0 -57 5 -38 74 10 35 9 42 -7 53 -10
7 -33 13 -52 13 -29 0 -33 -3 -26 -17z m124 -158 c0 -17 -31 -75 -39 -75 -6 0
-11 18 -11 40 0 36 3 40 25 40 14 0 25 -2 25 -5z m-110 -40 c0 -40 -24 -49
-34 -12 -10 37 -7 47 14 47 16 0 20 -7 20 -35z"/>
<path d="M520 321 c0 -31 -1 -31 -51 -31 -44 0 -50 -2 -40 -14 7 -8 16 -27 20
-43 6 -24 13 -28 42 -28 29 0 34 -3 34 -25 0 -20 -6 -25 -34 -31 -19 -4 -45
-5 -58 -3 -30 6 -30 -13 1 -27 19 -9 41 -6 111 16 l87 26 15 -20 c18 -26 29
-27 36 -1 3 14 -3 26 -20 40 -30 24 -55 26 -47 5 4 -9 0 -15 -9 -15 -9 0 -22
-3 -31 -6 -13 -5 -16 1 -16 25 0 29 2 31 38 31 31 0 43 6 61 31 31 42 14 63
-46 56 -37 -4 -42 -2 -45 17 -2 13 -12 22 -25 24 -20 3 -23 -1 -23 -27z m100
-56 c0 -21 -5 -25 -30 -25 -33 0 -35 3 -20 31 16 29 50 25 50 -6z m-90 -10 c0
-21 -5 -25 -29 -25 -36 0 -51 36 -17 43 42 8 46 7 46 -18z"/>
</g>
</svg>
