<?xml version="1.0" standalone="no"?>
<!DOCTYPE svg PUBLIC "-//W3C//DTD SVG 20010904//EN"
 "http://www.w3.org/TR/2001/REC-SVG-20010904/DTD/svg10.dtd">
<svg version="1.0" xmlns="http://www.w3.org/2000/svg"
 width="96.000000pt" height="68.000000pt" viewBox="0 0 96.000000 68.000000"
 preserveAspectRatio="xMidYMid meet">
<metadata>
Created by potrace 1.16, written by Peter Selinger 2001-2019
</metadata>
<g transform="translate(0.000000,68.000000) scale(0.100000,-0.100000)"
fill="#000000" stroke="none">
<path d="M500 620 c0 -16 -47 -58 -115 -101 -72 -46 -66 -49 23 -10 37 16 101
34 142 40 65 9 93 8 79 -2 -2 -2 -19 -15 -37 -29 -30 -25 -34 -26 -60 -12 -15
7 -36 14 -47 14 -17 0 -16 -3 10 -25 29 -24 29 -25 11 -40 -18 -13 -22 -13
-40 4 -25 21 -66 34 -66 19 0 -6 12 -19 26 -31 l26 -20 -43 -24 c-38 -20 -40
-22 -14 -17 17 3 55 17 85 31 62 27 240 142 240 155 0 21 -50 31 -92 18 -24
-7 -59 -16 -78 -21 l-35 -8 25 19 c27 20 22 33 -17 45 -14 4 -23 2 -23 -5z"/>
</g>
</svg>
