<?xml version="1.0" standalone="no"?>
<!DOCTYPE svg PUBLIC "-//W3C//DTD SVG 20010904//EN"
 "http://www.w3.org/TR/2001/REC-SVG-20010904/DTD/svg10.dtd">
<svg version="1.0" xmlns="http://www.w3.org/2000/svg"
 width="96.000000pt" height="68.000000pt" viewBox="0 0 96.000000 68.000000"
 preserveAspectRatio="xMidYMid meet">
<metadata>
Created by potrace 1.16, written by Peter Selinger 2001-2019
</metadata>
<g transform="translate(0.000000,68.000000) scale(0.100000,-0.100000)"
fill="#000000" stroke="none">
<path d="M683 573 c-7 -3 -13 -10 -13 -17 0 -6 -11 -28 -25 -49 -14 -20 -23
-37 -19 -37 12 0 114 71 114 79 0 11 -43 29 -57 24z"/>
<path d="M295 557 c-2 -6 -9 -31 -15 -53 -12 -50 -92 -174 -144 -225 -21 -21
-33 -40 -28 -43 10 -6 76 38 106 73 31 35 76 24 76 -19 0 -5 -23 -12 -52 -17
-64 -10 -61 -29 5 -27 l47 2 0 -53 c0 -51 -1 -53 -31 -59 -17 -3 -51 -6 -75
-6 -38 0 -44 -3 -44 -20 0 -42 41 -42 167 0 127 42 161 67 77 56 -47 -6 -48
-6 -19 7 17 8 36 22 44 31 12 15 12 19 -2 33 -9 9 -18 15 -20 12 -2 -2 -13
-20 -25 -39 l-22 -35 0 42 c0 40 1 41 40 48 22 4 42 11 45 15 7 11 -60 24 -74
15 -7 -4 -11 4 -11 19 0 19 6 25 27 28 14 2 28 9 31 16 4 14 -44 16 -100 3
-21 -5 -38 -7 -38 -5 0 11 63 104 70 104 5 0 17 -8 27 -19 38 -39 84 -31 67
13 -5 14 -46 36 -67 36 -7 0 -12 13 -12 31 0 24 -6 34 -23 40 -16 6 -24 5 -27
-4z"/>
<path d="M480 521 c0 -11 58 -61 70 -61 18 0 18 32 0 50 -20 20 -70 28 -70 11z"/>
<path d="M689 456 c-5 -4 -56 -12 -147 -22 -76 -8 -92 -24 -24 -24 45 0 50 -3
54 -24 4 -22 1 -25 -39 -31 -52 -8 -47 -25 8 -25 35 0 39 -3 39 -25 0 -22 -4
-25 -37 -26 -21 -1 -51 -5 -68 -9 l-30 -7 28 -8 c15 -4 41 -5 57 -1 17 3 31 2
31 -2 9 -47 7 -50 -39 -56 -25 -3 -58 -6 -75 -6 -52 0 -18 -15 46 -20 l62 -5
-42 -42 c-38 -37 -74 -60 -123 -76 -8 -3 -1 -6 16 -6 50 -1 146 52 174 98 27
43 54 51 169 51 31 0 62 4 70 9 25 16 -51 24 -128 14 -39 -5 -73 -8 -75 -6 -2
2 -1 14 1 27 6 28 27 36 101 36 51 0 68 12 35 24 -10 4 -46 4 -80 0 -62 -6
-63 -6 -63 19 0 26 27 37 91 37 16 0 29 5 29 10 0 6 -25 10 -55 10 -51 0 -55
2 -55 24 0 22 5 25 60 31 59 7 75 17 44 29 -18 7 -29 8 -35 2z"/>
<path d="M190 202 c0 -12 44 -52 58 -52 21 0 23 19 2 40 -20 20 -60 28 -60 12z"/>
<path d="M660 143 c0 -13 116 -103 134 -103 22 0 20 33 -2 53 -28 26 -132 65
-132 50z"/>
</g>
</svg>
