<?xml version="1.0" standalone="no"?>
<!DOCTYPE svg PUBLIC "-//W3C//DTD SVG 20010904//EN"
 "http://www.w3.org/TR/2001/REC-SVG-20010904/DTD/svg10.dtd">
<svg version="1.0" xmlns="http://www.w3.org/2000/svg"
 width="96.000000pt" height="68.000000pt" viewBox="0 0 96.000000 68.000000"
 preserveAspectRatio="xMidYMid meet">
<metadata>
Created by potrace 1.16, written by Peter Selinger 2001-2019
</metadata>
<g transform="translate(0.000000,68.000000) scale(0.100000,-0.100000)"
fill="#000000" stroke="none">
<path d="M553 147 c-3 -15 -7 -26 -10 -24 -6 7 -73 -55 -73 -67 0 -6 5 -3 11
7 6 9 14 15 20 12 5 -4 9 -1 9 4 0 6 6 10 13 8 6 -1 11 4 9 12 -2 8 3 11 13 8
9 -4 15 -1 15 9 0 8 7 17 15 20 8 4 15 13 15 21 0 8 5 11 10 8 6 -4 7 -11 4
-17 -4 -7 -2 -8 5 -4 17 11 -5 35 -30 33 -14 -1 -22 -11 -26 -30z"/>
<path d="M710 131 c6 -12 16 -18 22 -15 6 4 8 3 4 -4 -10 -17 13 -25 32 -11
12 10 11 6 -3 -10 l-20 -23 25 3 c19 3 24 0 22 -13 -3 -22 16 -34 24 -14 9 24
-22 64 -64 83 -20 9 -41 19 -45 21 -5 2 -4 -5 3 -17z"/>
</g>
</svg>
