<?xml version="1.0" standalone="no"?>
<!DOCTYPE svg PUBLIC "-//W3C//DTD SVG 20010904//EN"
 "http://www.w3.org/TR/2001/REC-SVG-20010904/DTD/svg10.dtd">
<svg version="1.0" xmlns="http://www.w3.org/2000/svg"
 width="96.000000pt" height="68.000000pt" viewBox="0 0 96.000000 68.000000"
 preserveAspectRatio="xMidYMid meet">
<metadata>
Created by potrace 1.16, written by Peter Selinger 2001-2019
</metadata>
<g transform="translate(0.000000,68.000000) scale(0.100000,-0.100000)"
fill="#000000" stroke="none">
<path d="M285 563 c4 -21 9 -50 11 -65 5 -25 2 -28 -38 -38 -66 -17 -67 -18
-10 -19 45 -1 52 -4 52 -20 0 -16 -9 -21 -45 -27 -58 -8 -58 -24 -1 -24 26 0
46 -5 50 -12 3 -10 8 -9 18 4 8 9 31 19 51 23 47 9 48 25 2 25 -31 0 -35 3
-35 25 0 21 6 26 39 31 52 8 71 21 51 34 -20 13 -57 13 -65 0 -15 -24 -24 -7
-19 33 6 39 4 44 -20 55 -42 19 -47 15 -41 -25z"/>
</g>
</svg>
