<?xml version="1.0" standalone="no"?>
<!DOCTYPE svg PUBLIC "-//W3C//DTD SVG 20010904//EN"
 "http://www.w3.org/TR/2001/REC-SVG-20010904/DTD/svg10.dtd">
<svg version="1.0" xmlns="http://www.w3.org/2000/svg"
 width="90.000000pt" height="92.000000pt" viewBox="0 0 90.000000 92.000000"
 preserveAspectRatio="xMidYMid meet">
<metadata>
Created by potrace 1.16, written by Peter Selinger 2001-2019
</metadata>
<g transform="translate(0.000000,92.000000) scale(0.100000,-0.100000)"
fill="#000000" stroke="none">
<path d="M615 789 c-103 -21 -234 -28 -284 -15 -33 9 -34 8 -26 -15 5 -13 10
-91 12 -173 6 -219 -25 -330 -119 -432 -47 -51 -36 -57 26 -14 73 50 123 149
141 280 l7 45 41 1 c49 0 290 24 296 30 2 2 -2 11 -10 20 -11 13 -25 15 -82 9
l-68 -6 3 32 c3 32 4 33 70 44 78 13 106 30 64 41 -24 6 -75 1 -117 -12 -14
-4 -15 3 -11 46 4 46 2 52 -17 57 -11 3 -21 9 -21 13 0 10 179 25 188 15 11
-10 15 -483 5 -540 l-9 -50 -49 3 -50 2 55 -55 c30 -30 57 -55 61 -55 4 0 15
12 25 28 17 24 20 56 24 332 3 168 10 315 14 327 7 18 2 25 -25 42 -19 12 -38
20 -44 20 -5 -1 -50 -10 -100 -20z m-121 -80 c3 -17 6 -47 6 -65 0 -29 -4 -34
-22 -34 -13 0 -40 -3 -60 -6 l-38 -7 0 54 c0 63 6 75 40 82 60 11 67 8 74 -24z
m10 -153 c10 -38 6 -44 -36 -51 -24 -3 -55 -8 -70 -11 -27 -5 -28 -4 -28 38
l0 44 64 0 c57 0 65 -2 70 -20z"/>
<path d="M80 730 c0 -20 87 -115 106 -115 16 0 19 7 19 40 0 37 -3 42 -45 63
-47 23 -80 29 -80 12z"/>
<path d="M209 454 c-26 -44 -68 -101 -94 -127 -51 -50 -54 -71 -19 -125 18
-28 38 -17 49 26 3 15 31 80 61 146 69 148 70 197 3 80z"/>
<path d="M545 403 c-27 -10 -58 -13 -92 -9 -56 7 -61 3 -38 -28 8 -11 15 -34
15 -51 0 -39 18 -95 31 -95 5 0 9 6 9 14 0 15 50 26 124 26 39 0 46 3 37 13
-8 10 -4 27 16 67 25 51 26 53 8 66 -23 17 -58 16 -110 -3z m45 -57 c0 -49 -9
-56 -66 -56 -36 0 -54 4 -54 13 0 6 -3 22 -6 34 -5 19 -1 22 28 26 87 10 98 8
98 -17z"/>
</g>
</svg>
