<?xml version="1.0" standalone="no"?>
<!DOCTYPE svg PUBLIC "-//W3C//DTD SVG 20010904//EN"
 "http://www.w3.org/TR/2001/REC-SVG-20010904/DTD/svg10.dtd">
<svg version="1.0" xmlns="http://www.w3.org/2000/svg"
 width="96.000000pt" height="68.000000pt" viewBox="0 0 96.000000 68.000000"
 preserveAspectRatio="xMidYMid meet">
<metadata>
Created by potrace 1.16, written by Peter Selinger 2001-2019
</metadata>
<g transform="translate(0.000000,68.000000) scale(0.100000,-0.100000)"
fill="#000000" stroke="none">
<path d="M560 559 c-30 -5 -84 -9 -119 -10 l-63 0 21 -23 c12 -12 27 -48 33
-80 11 -50 15 -56 33 -52 11 3 62 8 113 12 59 4 91 11 90 18 -3 10 21 53 54
98 10 15 9 20 -7 32 -22 17 -70 18 -155 5z m76 -61 c-4 -24 -11 -47 -16 -52
-6 -5 -42 -10 -81 -10 l-72 -1 -12 42 -13 43 37 6 c20 3 41 7 46 9 6 2 34 4
64 4 l54 1 -7 -42z"/>
</g>
</svg>
