<?xml version="1.0" standalone="no"?>
<!DOCTYPE svg PUBLIC "-//W3C//DTD SVG 20010904//EN"
 "http://www.w3.org/TR/2001/REC-SVG-20010904/DTD/svg10.dtd">
<svg version="1.0" xmlns="http://www.w3.org/2000/svg"
 width="96.000000pt" height="68.000000pt" viewBox="0 0 96.000000 68.000000"
 preserveAspectRatio="xMidYMid meet">
<metadata>
Created by potrace 1.16, written by Peter Selinger 2001-2019
</metadata>
<g transform="translate(0.000000,68.000000) scale(0.100000,-0.100000)"
fill="#000000" stroke="none">
<path d="M570 620 c0 -33 -22 -50 -67 -50 -22 0 -25 -2 -13 -10 8 -5 26 -10
39 -10 21 0 23 -3 18 -30 -4 -17 -2 -30 3 -30 6 0 10 3 10 8 0 4 13 22 29 40
27 29 35 32 91 32 45 0 60 3 57 13 -3 8 -24 12 -61 11 -47 -1 -56 1 -51 14 7
19 -12 42 -36 42 -14 0 -19 -7 -19 -30z"/>
<path d="M305 620 c-4 -6 1 -20 11 -31 9 -10 15 -21 12 -24 -3 -3 -35 -8 -72
-12 -69 -6 -82 -16 -43 -34 18 -8 37 -7 75 5 52 15 52 15 68 -9 19 -29 37 -23
28 9 -4 19 0 24 28 33 l33 11 -33 1 c-25 1 -35 7 -42 26 -5 14 -14 25 -19 25
-5 0 -16 3 -24 6 -8 3 -18 0 -22 -6z"/>
</g>
</svg>
