<?xml version="1.0" standalone="no"?>
<!DOCTYPE svg PUBLIC "-//W3C//DTD SVG 20010904//EN"
 "http://www.w3.org/TR/2001/REC-SVG-20010904/DTD/svg10.dtd">
<svg version="1.0" xmlns="http://www.w3.org/2000/svg"
 width="96.000000pt" height="68.000000pt" viewBox="0 0 96.000000 68.000000"
 preserveAspectRatio="xMidYMid meet">
<metadata>
Created by potrace 1.16, written by Peter Selinger 2001-2019
</metadata>
<g transform="translate(0.000000,68.000000) scale(0.100000,-0.100000)"
fill="#000000" stroke="none">
<path d="M586 130 l-7 -50 -44 0 c-41 0 -45 2 -45 24 0 14 -10 30 -26 41 -34
22 -41 12 -21 -30 9 -20 17 -38 17 -40 0 -3 -34 -5 -75 -5 -72 0 -98 -12 -53
-23 21 -6 161 -1 253 8 22 2 78 4 125 5 79 1 84 2 65 16 -15 12 -38 15 -92 12
-42 -2 -73 1 -73 6 0 5 10 20 22 33 21 23 21 23 2 38 -32 24 -41 17 -48 -35z"/>
</g>
</svg>
