<?xml version="1.0" standalone="no"?>
<!DOCTYPE svg PUBLIC "-//W3C//DTD SVG 20010904//EN"
 "http://www.w3.org/TR/2001/REC-SVG-20010904/DTD/svg10.dtd">
<svg version="1.0" xmlns="http://www.w3.org/2000/svg"
 width="90.000000pt" height="92.000000pt" viewBox="0 0 90.000000 92.000000"
 preserveAspectRatio="xMidYMid meet">
<metadata>
Created by potrace 1.16, written by Peter Selinger 2001-2019
</metadata>
<g transform="translate(0.000000,92.000000) scale(0.100000,-0.100000)"
fill="#000000" stroke="none">
<path d="M436 838 c-3 -7 -6 -31 -9 -54 -8 -69 -110 -251 -186 -331 -30 -31
-26 -37 10 -16 52 30 145 139 186 218 l39 75 107 -125 108 -125 57 0 c62 0
102 8 102 20 0 4 -28 20 -62 35 -83 36 -170 99 -240 172 -40 42 -54 63 -48 74
10 17 -6 41 -38 58 -18 9 -23 9 -26 -1z"/>
<path d="M110 783 c0 -12 68 -95 91 -111 31 -21 54 4 44 48 -5 25 -16 36 -49
51 -42 19 -86 25 -86 12z"/>
<path d="M20 585 c0 -18 93 -115 110 -115 41 0 34 72 -9 94 -33 17 -101 31
-101 21z"/>
<path d="M534 531 c-11 -5 -55 -15 -98 -22 -80 -14 -96 -32 -33 -37 39 -3 52
-24 45 -73 -3 -22 -10 -25 -75 -32 -40 -5 -73 -13 -73 -18 0 -14 48 -30 76
-24 13 3 35 7 48 10 25 5 25 5 28 -89 l3 -94 -75 -6 c-124 -11 -170 -17 -170
-26 0 -4 17 -15 37 -23 33 -13 46 -13 103 -1 36 8 149 17 253 21 150 5 187 9
187 20 0 8 -17 21 -37 29 -31 13 -49 14 -110 5 -41 -6 -89 -11 -108 -11 l-35
0 0 89 c0 104 -3 101 110 101 83 0 108 12 74 37 -15 11 -37 13 -96 8 l-78 -6
0 29 c0 17 -2 37 -6 45 -4 11 7 16 43 21 57 7 82 21 68 35 -16 15 -58 21 -81
12z"/>
<path d="M141 362 c-22 -45 -54 -96 -71 -115 -16 -19 -30 -44 -30 -56 0 -26
24 -86 38 -95 13 -8 120 329 109 341 -3 3 -24 -31 -46 -75z"/>
<path d="M605 290 c-8 -16 -29 -46 -46 -65 -17 -19 -28 -35 -25 -35 18 0 146
66 146 76 0 11 -23 34 -47 48 -7 4 -18 -5 -28 -24z"/>
<path d="M318 228 c45 -61 68 -71 78 -34 8 32 -9 54 -53 73 -61 25 -66 17 -25
-39z"/>
</g>
</svg>
