<?xml version="1.0" standalone="no"?>
<!DOCTYPE svg PUBLIC "-//W3C//DTD SVG 20010904//EN"
 "http://www.w3.org/TR/2001/REC-SVG-20010904/DTD/svg10.dtd">
<svg version="1.0" xmlns="http://www.w3.org/2000/svg"
 width="96.000000pt" height="68.000000pt" viewBox="0 0 96.000000 68.000000"
 preserveAspectRatio="xMidYMid meet">
<metadata>
Created by potrace 1.16, written by Peter Selinger 2001-2019
</metadata>
<g transform="translate(0.000000,68.000000) scale(0.100000,-0.100000)"
fill="#000000" stroke="none">
<path d="M467 565 c-7 -41 -73 -142 -135 -207 -51 -53 -48 -62 7 -22 45 33
104 97 137 147 13 20 27 37 30 37 4 0 42 -35 86 -77 100 -99 141 -117 216 -97
35 10 26 20 -31 38 -95 30 -263 146 -252 174 7 19 -12 42 -35 42 -12 0 -19
-10 -23 -35z"/>
<path d="M180 554 c32 -41 84 -85 99 -82 9 2 17 15 19 30 4 33 -29 57 -90 66
-41 5 -42 4 -28 -14z"/>
<path d="M100 421 c0 -17 81 -89 98 -87 8 2 19 12 23 23 9 25 -12 47 -56 57
-16 4 -38 9 -47 12 -10 3 -18 1 -18 -5z"/>
<path d="M480 365 c-92 -15 -95 -16 -45 -24 34 -5 40 -10 46 -38 3 -18 4 -35
1 -38 -3 -3 -32 -5 -64 -5 -32 0 -58 -4 -58 -10 0 -6 27 -10 60 -10 l60 0 0
-70 0 -70 -57 -1 c-32 0 -80 -4 -108 -8 l-50 -7 36 -12 c26 -9 49 -10 88 -2
30 5 119 10 200 10 146 0 191 5 191 21 0 19 -70 26 -159 16 -50 -5 -94 -7 -97
-4 -3 3 -3 35 1 71 l7 66 67 1 c36 1 71 1 78 0 6 -1 14 3 18 8 11 19 -33 31
-94 25 -34 -4 -61 -3 -62 2 0 5 -2 19 -5 31 -3 18 2 23 29 28 63 13 71 16 56
26 -17 11 -44 10 -139 -6z"/>
<path d="M216 274 c-15 -24 -46 -64 -67 -87 -22 -22 -39 -45 -39 -50 0 -19 32
-67 44 -67 15 0 101 219 95 239 -2 6 -17 -10 -33 -35z"/>
<path d="M597 184 c-40 -46 -39 -53 4 -30 14 7 38 16 53 20 30 7 30 22 0 42
-17 11 -23 8 -57 -32z"/>
<path d="M361 173 c13 -15 30 -33 36 -41 16 -17 33 -7 33 19 0 13 -12 25 -35
35 -51 21 -61 17 -34 -13z"/>
</g>
</svg>
