<?xml version="1.0" standalone="no"?>
<!DOCTYPE svg PUBLIC "-//W3C//DTD SVG 20010904//EN"
 "http://www.w3.org/TR/2001/REC-SVG-20010904/DTD/svg10.dtd">
<svg version="1.0" xmlns="http://www.w3.org/2000/svg"
 width="96.000000pt" height="68.000000pt" viewBox="0 0 96.000000 68.000000"
 preserveAspectRatio="xMidYMid meet">
<metadata>
Created by potrace 1.16, written by Peter Selinger 2001-2019
</metadata>
<g transform="translate(0.000000,68.000000) scale(0.100000,-0.100000)"
fill="#000000" stroke="none">
<path d="M490 541 l0 -89 33 -20 c17 -11 49 -23 70 -26 53 -10 149 3 176 23
22 17 22 18 5 53 l-17 37 -16 -32 c-16 -32 -17 -32 -99 -35 -88 -3 -112 5
-112 39 0 13 7 19 23 19 35 0 170 45 174 57 3 7 -5 17 -17 23 -17 9 -30 5 -78
-24 -97 -58 -117 -57 -93 8 10 26 3 37 -31 49 -16 6 -18 -2 -18 -82z"/>
</g>
</svg>
