<?xml version="1.0" standalone="no"?>
<!DOCTYPE svg PUBLIC "-//W3C//DTD SVG 20010904//EN"
 "http://www.w3.org/TR/2001/REC-SVG-20010904/DTD/svg10.dtd">
<svg version="1.0" xmlns="http://www.w3.org/2000/svg"
 width="96.000000pt" height="68.000000pt" viewBox="0 0 96.000000 68.000000"
 preserveAspectRatio="xMidYMid meet">
<metadata>
Created by potrace 1.16, written by Peter Selinger 2001-2019
</metadata>
<g transform="translate(0.000000,68.000000) scale(0.100000,-0.100000)"
fill="#000000" stroke="none">
<path d="M488 153 c-3 -57 -4 -58 -34 -61 -28 -3 -32 0 -38 29 -3 17 -6 42 -6
55 0 19 -5 24 -24 24 l-24 0 21 -55 c11 -31 18 -57 16 -59 -2 -2 -67 -6 -143
-10 -77 -3 -142 -8 -144 -11 -3 -2 8 -9 23 -15 20 -8 61 -8 139 0 61 5 161 10
222 10 149 0 324 11 324 21 0 22 -70 29 -190 19 -68 -6 -125 -9 -127 -7 -2 2
6 25 17 51 23 50 20 66 -10 66 -16 0 -19 -9 -22 -57z"/>
</g>
</svg>
