<?xml version="1.0" standalone="no"?>
<!DOCTYPE svg PUBLIC "-//W3C//DTD SVG 20010904//EN"
 "http://www.w3.org/TR/2001/REC-SVG-20010904/DTD/svg10.dtd">
<svg version="1.0" xmlns="http://www.w3.org/2000/svg"
 width="96.000000pt" height="68.000000pt" viewBox="0 0 96.000000 68.000000"
 preserveAspectRatio="xMidYMid meet">
<metadata>
Created by potrace 1.16, written by Peter Selinger 2001-2019
</metadata>
<g transform="translate(0.000000,68.000000) scale(0.100000,-0.100000)"
fill="#000000" stroke="none">
<path d="M565 240 c-27 -4 -112 -11 -187 -15 l-138 -8 7 -26 c19 -81 30 -106
46 -109 15 -3 17 3 11 51 -8 67 -17 62 165 77 148 13 156 11 140 -44 -25 -85
12 -92 55 -10 25 47 27 57 15 69 -20 19 -56 24 -114 15z"/>
</g>
</svg>
