<?xml version="1.0" standalone="no"?>
<!DOCTYPE svg PUBLIC "-//W3C//DTD SVG 20010904//EN"
 "http://www.w3.org/TR/2001/REC-SVG-20010904/DTD/svg10.dtd">
<svg version="1.0" xmlns="http://www.w3.org/2000/svg"
 width="90.000000pt" height="92.000000pt" viewBox="0 0 90.000000 92.000000"
 preserveAspectRatio="xMidYMid meet">
<metadata>
Created by potrace 1.16, written by Peter Selinger 2001-2019
</metadata>
<g transform="translate(0.000000,92.000000) scale(0.100000,-0.100000)"
fill="#000000" stroke="none">
<path d="M536 892 c-3 -3 -6 -29 -6 -57 l0 -52 -40 -7 c-47 -7 -52 -24 -10
-32 33 -7 35 -13 21 -62 -17 -57 7 -34 59 57 5 9 34 16 84 19 50 3 76 9 76 17
0 20 -48 36 -91 29 -41 -7 -53 8 -27 34 9 9 7 16 -6 31 -18 20 -51 33 -60 23z"/>
<path d="M230 847 c0 -7 9 -31 20 -52 l21 -40 -28 -6 c-16 -4 -51 -7 -80 -8
-58 -1 -63 -16 -17 -46 23 -15 29 -15 80 4 l55 21 10 -28 c5 -15 12 -33 14
-39 2 -7 10 -13 16 -13 8 0 10 14 6 44 -6 44 -6 45 28 56 43 14 35 34 -10 26
-32 -6 -33 -6 -40 34 -5 31 -13 44 -32 51 -33 12 -43 11 -43 -4z"/>
<path d="M370 665 c0 -3 9 -24 20 -46 16 -30 17 -40 8 -44 -13 -4 -173 -25
-191 -25 -5 0 -4 -7 3 -15 7 -8 26 -15 42 -15 18 0 31 -6 35 -17 3 -10 16 -41
28 -69 l23 -52 -87 -11 c-48 -6 -113 -11 -144 -11 -67 0 -79 -21 -22 -40 27
-9 51 -8 112 4 138 27 165 29 387 35 236 6 266 14 187 49 -36 17 -47 17 -113
6 -74 -13 -138 -18 -138 -10 0 3 14 27 32 55 30 49 30 52 13 71 -17 19 -16 19
34 26 58 7 64 17 23 38 -20 10 -39 12 -72 6 -76 -15 -87 -13 -93 18 -4 17 -16
33 -32 40 -27 13 -55 16 -55 7z m136 -141 c4 -16 0 -49 -10 -80 l-17 -54 -55
0 -54 0 0 36 c0 26 -8 43 -30 65 -33 34 -32 35 60 48 100 13 99 13 106 -15z"/>
<path d="M470 290 c-52 -10 -128 -19 -167 -19 -40 -1 -73 -3 -73 -6 0 -3 6
-16 14 -28 8 -12 20 -51 27 -87 15 -81 26 -105 42 -91 11 8 206 31 272 31 17
0 20 7 21 43 1 34 17 83 41 128 5 8 -60 50 -73 48 -5 -1 -52 -10 -104 -19z
m90 -57 c0 -16 -3 -44 -6 -64 l-6 -36 -99 -12 c-55 -6 -106 -11 -114 -11 -13
0 -17 12 -31 91 l-6 36 79 10 c43 6 102 11 131 12 50 1 52 0 52 -26z"/>
</g>
</svg>
