<?xml version="1.0" standalone="no"?>
<!DOCTYPE svg PUBLIC "-//W3C//DTD SVG 20010904//EN"
 "http://www.w3.org/TR/2001/REC-SVG-20010904/DTD/svg10.dtd">
<svg version="1.0" xmlns="http://www.w3.org/2000/svg"
 width="96.000000pt" height="68.000000pt" viewBox="0 0 96.000000 68.000000"
 preserveAspectRatio="xMidYMid meet">
<metadata>
Created by potrace 1.16, written by Peter Selinger 2001-2019
</metadata>
<g transform="translate(0.000000,68.000000) scale(0.100000,-0.100000)"
fill="#000000" stroke="none">
<path d="M612 197 c-2 -89 -1 -95 23 -119 24 -24 32 -26 104 -24 84 1 126 21
114 53 -5 12 -7 12 -14 1 -7 -10 -9 -9 -9 5 0 19 -15 23 -26 5 -4 -7 -3 -8 4
-4 8 5 10 2 6 -9 -4 -9 -9 -14 -12 -11 -2 3 -12 1 -22 -4 -24 -13 -120 -19
-120 -8 0 5 -4 6 -10 3 -5 -3 -10 1 -10 9 0 9 -6 16 -12 16 -8 0 -9 3 -3 8 6
4 11 22 12 41 1 19 8 38 15 43 10 6 10 8 -1 8 -9 0 -12 8 -9 25 3 14 1 28 -4
31 -4 3 -6 10 -3 15 4 5 0 9 -7 9 -10 0 -14 -25 -16 -93z"/>
<path d="M735 250 c-4 -11 -11 -18 -16 -15 -5 4 -9 1 -9 -4 0 -14 1 -14 45 5
29 12 35 18 24 25 -23 14 -37 10 -44 -11z"/>
</g>
</svg>
