<?xml version="1.0" standalone="no"?>
<!DOCTYPE svg PUBLIC "-//W3C//DTD SVG 20010904//EN"
 "http://www.w3.org/TR/2001/REC-SVG-20010904/DTD/svg10.dtd">
<svg version="1.0" xmlns="http://www.w3.org/2000/svg"
 width="96.000000pt" height="68.000000pt" viewBox="0 0 96.000000 68.000000"
 preserveAspectRatio="xMidYMid meet">
<metadata>
Created by potrace 1.16, written by Peter Selinger 2001-2019
</metadata>
<g transform="translate(0.000000,68.000000) scale(0.100000,-0.100000)"
fill="#000000" stroke="none">
<path d="M417 521 l6 -49 -44 -10 -44 -10 44 -1 44 -1 -5 -84 c-4 -81 -6 -87
-47 -139 -23 -31 -54 -63 -68 -72 -13 -9 -23 -19 -20 -22 9 -8 61 24 100 63
l38 38 -3 -94 c-3 -79 0 -95 12 -95 12 0 16 19 18 103 1 56 6 102 11 102 4 0
17 -11 29 -25 24 -27 37 -31 47 -15 11 17 -14 39 -51 46 l-34 6 0 93 c0 100 3
105 56 105 13 0 24 5 24 10 0 6 -15 10 -34 10 -34 0 -35 1 -38 43 -2 35 -7 43
-25 45 -21 3 -22 1 -16 -47z"/>
</g>
</svg>
