<?xml version="1.0" standalone="no"?>
<!DOCTYPE svg PUBLIC "-//W3C//DTD SVG 20010904//EN"
 "http://www.w3.org/TR/2001/REC-SVG-20010904/DTD/svg10.dtd">
<svg version="1.0" xmlns="http://www.w3.org/2000/svg"
 width="96.000000pt" height="68.000000pt" viewBox="0 0 96.000000 68.000000"
 preserveAspectRatio="xMidYMid meet">
<metadata>
Created by potrace 1.16, written by Peter Selinger 2001-2019
</metadata>
<g transform="translate(0.000000,68.000000) scale(0.100000,-0.100000)"
fill="#000000" stroke="none">
<path d="M580 291 c0 -11 5 -23 10 -26 6 -3 10 -11 10 -16 0 -6 -4 -7 -10 -4
-5 3 -10 3 -10 -2 0 -4 -15 -8 -32 -9 -111 -4 -157 -8 -146 -16 12 -7 82 -3
119 8 9 3 24 -3 33 -11 18 -18 20 -26 7 -23 -5 2 -9 -1 -10 -5 0 -9 -27 -37
-35 -37 -3 0 -26 -16 -52 -35 -25 -19 -42 -35 -37 -35 14 0 116 70 129 88 20
27 29 5 29 -70 0 -50 4 -72 13 -74 7 -1 8 0 2 3 -5 2 -10 9 -10 14 0 6 5 7 11
3 9 -5 10 3 5 29 -4 23 -2 44 6 58 10 17 10 23 1 26 -10 4 -10 7 0 18 7 7 15
11 20 8 4 -2 7 1 7 6 0 6 -4 11 -10 11 -14 0 -12 27 3 33 7 3 5 6 -6 6 -14 1
-16 5 -8 20 8 14 6 22 -8 35 -23 21 -31 20 -31 -3z"/>
<path d="M693 249 c-4 -4 -17 -9 -28 -12 -11 -3 12 -5 50 -5 39 0 79 3 90 7
18 7 17 9 -10 14 -38 8 -92 6 -102 -4z"/>
<path d="M646 172 c-2 -4 18 -26 45 -49 43 -36 56 -42 95 -41 24 0 44 4 44 9
0 5 -8 6 -17 2 -10 -3 -15 -2 -10 2 9 10 -63 36 -76 28 -6 -3 -7 -1 -3 5 3 6
-6 13 -24 17 -17 4 -28 11 -25 16 4 5 -2 6 -11 2 -12 -4 -15 -3 -10 5 4 7 5
12 2 12 -3 0 -7 -3 -10 -8z"/>
</g>
</svg>
