<?xml version="1.0" standalone="no"?>
<!DOCTYPE svg PUBLIC "-//W3C//DTD SVG 20010904//EN"
 "http://www.w3.org/TR/2001/REC-SVG-20010904/DTD/svg10.dtd">
<svg version="1.0" xmlns="http://www.w3.org/2000/svg"
 width="96.000000pt" height="68.000000pt" viewBox="0 0 96.000000 68.000000"
 preserveAspectRatio="xMidYMid meet">
<metadata>
Created by potrace 1.16, written by Peter Selinger 2001-2019
</metadata>
<g transform="translate(0.000000,68.000000) scale(0.100000,-0.100000)"
fill="#000000" stroke="none">
<path d="M589 133 c0 -5 -2 -20 -4 -36 -3 -19 0 -25 8 -20 9 5 9 3 1 -8 -14
-18 -14 -51 0 -46 6 2 12 9 12 15 1 7 3 14 4 17 1 3 3 8 5 13 1 4 5 15 9 25
11 22 1 47 -19 47 -8 0 -15 -3 -16 -7z"/>
<path d="M443 124 c-6 -3 -10 -16 -7 -29 3 -20 -1 -24 -23 -28 -24 -3 -23 -4
8 -6 41 -1 53 7 38 25 -6 8 -9 21 -5 29 3 8 4 15 3 14 -1 0 -7 -3 -14 -5z"/>
<path d="M279 111 c7 -5 11 -13 7 -19 -3 -6 -2 -13 4 -17 5 -3 10 -2 10 4 0 5
2 16 5 23 4 9 -2 14 -17 15 -16 2 -19 0 -9 -6z"/>
<path d="M486 71 c-3 -4 6 -6 19 -3 14 2 25 6 25 8 0 8 -39 4 -44 -5z"/>
<path d="M260 55 c-7 -9 -6 -16 5 -25 12 -10 21 -10 45 2 l30 15 -35 10 c-26
8 -37 8 -45 -2z m30 -15 c0 -5 -5 -10 -11 -10 -5 0 -7 5 -4 10 3 6 8 10 11 10
2 0 4 -4 4 -10z"/>
<path d="M355 50 c-3 -5 -2 -10 4 -10 5 0 13 5 16 10 3 6 2 10 -4 10 -5 0 -13
-4 -16 -10z"/>
</g>
</svg>
