<?xml version="1.0" standalone="no"?>
<!DOCTYPE svg PUBLIC "-//W3C//DTD SVG 20010904//EN"
 "http://www.w3.org/TR/2001/REC-SVG-20010904/DTD/svg10.dtd">
<svg version="1.0" xmlns="http://www.w3.org/2000/svg"
 width="96.000000pt" height="68.000000pt" viewBox="0 0 96.000000 68.000000"
 preserveAspectRatio="xMidYMid meet">
<metadata>
Created by potrace 1.16, written by Peter Selinger 2001-2019
</metadata>
<g transform="translate(0.000000,68.000000) scale(0.100000,-0.100000)"
fill="#000000" stroke="none">
<path d="M580 537 c0 -40 -170 -164 -333 -244 -77 -37 -86 -43 -52 -38 22 3
73 21 112 40 l73 34 6 -26 c4 -15 2 -74 -5 -132 -13 -110 -9 -141 15 -141 21
0 23 12 27 162 3 94 1 139 -7 141 -6 2 -9 6 -6 8 3 2 58 40 123 83 64 44 117
83 117 87 0 11 -42 39 -57 39 -7 0 -13 -6 -13 -13z"/>
</g>
</svg>
