<?xml version="1.0" standalone="no"?>
<!DOCTYPE svg PUBLIC "-//W3C//DTD SVG 20010904//EN"
 "http://www.w3.org/TR/2001/REC-SVG-20010904/DTD/svg10.dtd">
<svg version="1.0" xmlns="http://www.w3.org/2000/svg"
 width="96.000000pt" height="68.000000pt" viewBox="0 0 96.000000 68.000000"
 preserveAspectRatio="xMidYMid meet">
<metadata>
Created by potrace 1.16, written by Peter Selinger 2001-2019
</metadata>
<g transform="translate(0.000000,68.000000) scale(0.100000,-0.100000)"
fill="#000000" stroke="none">
<path d="M471 613 c6 -16 8 -51 4 -81 -5 -43 -4 -53 10 -58 24 -10 29 2 35 77
6 74 0 89 -37 89 -20 0 -22 -2 -12 -27z"/>
<path d="M626 601 c67 -60 94 -81 117 -86 24 -6 27 -4 27 18 0 32 -12 41 -82
61 -64 18 -76 20 -62 7z"/>
<path d="M329 547 c-6 -12 -27 -39 -47 -59 -58 -61 -6 -47 73 19 39 32 40 47
5 56 -14 4 -24 -1 -31 -16z"/>
</g>
</svg>
