<?xml version="1.0" standalone="no"?>
<!DOCTYPE svg PUBLIC "-//W3C//DTD SVG 20010904//EN"
 "http://www.w3.org/TR/2001/REC-SVG-20010904/DTD/svg10.dtd">
<svg version="1.0" xmlns="http://www.w3.org/2000/svg"
 width="90.000000pt" height="92.000000pt" viewBox="0 0 90.000000 92.000000"
 preserveAspectRatio="xMidYMid meet">
<metadata>
Created by potrace 1.16, written by Peter Selinger 2001-2019
</metadata>
<g transform="translate(0.000000,92.000000) scale(0.100000,-0.100000)"
fill="#000000" stroke="none">
<path d="M506 842 c-2 -4 -1 -14 5 -22 14 -23 11 -150 -3 -155 -7 -2 -35 -7
-63 -10 -46 -6 -48 -8 -30 -21 10 -8 39 -14 65 -14 l45 0 -5 -57 -5 -58 -77
-9 c-80 -9 -93 -17 -58 -36 15 -8 56 -7 153 5 72 8 158 15 189 15 61 0 80 13
55 37 -18 18 -47 20 -134 9 l-63 -9 0 56 c0 61 -1 60 75 72 22 3 47 10 55 16
13 8 12 12 -5 25 -19 15 -35 14 -98 -1 -25 -7 -26 -5 -22 29 15 117 17 106
-20 122 -39 16 -52 17 -59 6z"/>
<path d="M235 739 c-27 -10 -74 -18 -102 -19 -52 0 -63 -6 -43 -26 5 -5 15
-37 20 -69 19 -109 18 -106 46 -99 17 4 29 2 35 -7 5 -8 9 -71 9 -142 l0 -127
-26 -10 c-46 -18 -46 -16 -42 95 4 110 2 115 -42 115 -16 0 -18 -5 -12 -37 4
-21 7 -74 7 -118 l0 -80 -43 1 c-50 1 -56 -19 -17 -56 22 -21 29 -23 53 -13
15 6 77 32 137 57 61 26 120 51 133 56 12 5 22 14 22 20 0 14 -30 12 -79 -5
l-41 -14 0 63 0 63 48 9 c31 6 47 14 47 24 0 16 -34 19 -73 6 -23 -8 -23 -7
-20 52 l3 60 35 6 c33 5 35 8 35 44 1 21 11 57 23 80 28 55 28 58 -8 77 -35
18 -40 18 -105 -6z m43 -94 c-3 -30 -7 -57 -10 -60 -3 -3 -28 -8 -56 -12 -56
-6 -54 -9 -66 79 -4 35 -3 37 27 41 18 2 49 5 71 5 l38 2 -4 -55z"/>
<path d="M515 423 c12 -42 12 -77 0 -85 -5 -4 -31 -8 -57 -8 -26 0 -50 -5 -53
-10 -10 -16 46 -32 88 -26 l37 6 0 -59 0 -59 -67 -6 c-176 -17 -194 -24 -130
-51 25 -10 43 -11 73 -4 21 6 127 13 235 16 108 3 202 9 209 13 18 11 3 30
-35 46 -25 10 -47 11 -91 4 -33 -6 -79 -10 -104 -10 l-45 0 5 57 5 58 50 7
c27 4 61 10 74 13 21 5 22 8 9 21 -17 18 -37 19 -96 9 l-43 -8 6 37 c9 45 -6
66 -47 66 -28 0 -30 -2 -23 -27z"/>
</g>
</svg>
