<?xml version="1.0" standalone="no"?>
<!DOCTYPE svg PUBLIC "-//W3C//DTD SVG 20010904//EN"
 "http://www.w3.org/TR/2001/REC-SVG-20010904/DTD/svg10.dtd">
<svg version="1.0" xmlns="http://www.w3.org/2000/svg"
 width="96.000000pt" height="68.000000pt" viewBox="0 0 96.000000 68.000000"
 preserveAspectRatio="xMidYMid meet">
<metadata>
Created by potrace 1.16, written by Peter Selinger 2001-2019
</metadata>
<g transform="translate(0.000000,68.000000) scale(0.100000,-0.100000)"
fill="#000000" stroke="none">
<path d="M552 504 c5 -30 6 -59 3 -65 -4 -5 -24 -9 -45 -9 -57 0 -59 -18 -3
-22 l48 -3 3 -41 3 -41 -70 -7 c-70 -7 -92 -20 -48 -28 12 -2 58 -1 102 3 44
4 112 8 150 8 80 1 105 11 80 31 -11 9 -35 11 -88 6 -40 -4 -76 -4 -79 -1 -8
9 7 80 17 81 6 0 29 4 53 8 62 11 52 28 -14 24 l-56 -3 4 47 c6 53 -4 68 -42
68 l-27 0 9 -56z"/>
<path d="M300 490 c-14 -4 -53 -8 -87 -9 -66 -1 -72 -5 -49 -30 8 -9 20 -38
28 -66 13 -46 16 -50 43 -50 l30 0 3 -101 c3 -101 3 -102 -22 -106 -14 -3 -28
-3 -31 0 -3 3 -5 38 -5 79 0 69 -1 73 -22 73 -22 0 -23 -2 -19 -85 l3 -85 -41
0 c-48 0 -52 -9 -15 -31 25 -16 33 -14 157 27 72 24 133 46 135 49 14 13 -9
14 -51 1 l-47 -14 0 49 c0 47 1 49 29 49 36 0 61 9 61 22 0 6 -16 7 -40 3
l-40 -7 2 46 c1 45 2 46 34 46 27 0 31 3 27 20 -3 11 4 36 16 55 25 43 26 61
5 69 -21 8 -73 6 -104 -4z m34 -67 c-4 -21 -8 -40 -10 -41 -1 -2 -21 -6 -43
-9 -37 -5 -41 -3 -51 21 -20 54 -17 57 88 64 21 2 22 -1 16 -35z"/>
<path d="M548 269 c6 -7 12 -25 12 -40 0 -25 -4 -28 -50 -34 -60 -8 -57 -25 6
-25 l44 0 0 -39 c0 -39 -1 -40 -42 -45 -24 -3 -68 -7 -98 -9 -30 -2 -55 -7
-55 -12 0 -17 59 -24 129 -15 39 5 133 10 208 10 127 0 164 7 143 28 -4 4 -57
7 -118 7 -62 0 -113 3 -114 8 -2 4 -3 24 -3 45 l0 37 57 3 c62 3 68 5 58 21
-4 7 -26 9 -60 5 l-54 -7 2 34 c2 33 1 34 -38 37 -32 3 -38 1 -27 -9z"/>
</g>
</svg>
