<?xml version="1.0" standalone="no"?>
<!DOCTYPE svg PUBLIC "-//W3C//DTD SVG 20010904//EN"
 "http://www.w3.org/TR/2001/REC-SVG-20010904/DTD/svg10.dtd">
<svg version="1.0" xmlns="http://www.w3.org/2000/svg"
 width="96.000000pt" height="68.000000pt" viewBox="0 0 96.000000 68.000000"
 preserveAspectRatio="xMidYMid meet">
<metadata>
Created by potrace 1.16, written by Peter Selinger 2001-2019
</metadata>
<g transform="translate(0.000000,68.000000) scale(0.100000,-0.100000)"
fill="#000000" stroke="none">
<path d="M520 584 c-83 -14 -97 -14 -132 1 -16 6 -18 1 -18 -43 0 -109 -73
-316 -152 -432 -37 -54 -40 -60 -30 -60 21 0 95 90 131 160 21 41 51 116 66
166 l28 92 63 6 c209 20 199 18 180 32 -16 12 -16 14 8 29 33 22 33 31 -4 50
-33 17 -26 17 -140 -1z m80 -43 c0 -29 -1 -29 -86 -41 -47 -7 -87 -10 -90 -7
-3 2 -2 16 1 30 6 22 14 27 53 32 26 4 52 8 57 10 6 2 22 4 38 4 23 1 27 -3
27 -28z"/>
</g>
</svg>
