<?xml version="1.0" standalone="no"?>
<!DOCTYPE svg PUBLIC "-//W3C//DTD SVG 20010904//EN"
 "http://www.w3.org/TR/2001/REC-SVG-20010904/DTD/svg10.dtd">
<svg version="1.0" xmlns="http://www.w3.org/2000/svg"
 width="96.000000pt" height="68.000000pt" viewBox="0 0 96.000000 68.000000"
 preserveAspectRatio="xMidYMid meet">
<metadata>
Created by potrace 1.16, written by Peter Selinger 2001-2019
</metadata>
<g transform="translate(0.000000,68.000000) scale(0.100000,-0.100000)"
fill="#000000" stroke="none">
<path d="M265 220 c-11 -5 -45 -9 -75 -10 -41 0 -51 -3 -38 -10 9 -6 24 -33
33 -61 14 -40 20 -49 34 -43 9 3 36 9 61 11 42 5 47 8 59 42 23 65 20 76 -19
78 -19 1 -44 -2 -55 -7z m35 -32 c-1 -40 -13 -56 -45 -60 -30 -3 -34 -1 -43
29 -11 36 -6 40 56 42 20 1 32 -4 32 -11z"/>
</g>
</svg>
