<?xml version="1.0" standalone="no"?>
<!DOCTYPE svg PUBLIC "-//W3C//DTD SVG 20010904//EN"
 "http://www.w3.org/TR/2001/REC-SVG-20010904/DTD/svg10.dtd">
<svg version="1.0" xmlns="http://www.w3.org/2000/svg"
 width="96.000000pt" height="68.000000pt" viewBox="0 0 96.000000 68.000000"
 preserveAspectRatio="xMidYMid meet">
<metadata>
Created by potrace 1.16, written by Peter Selinger 2001-2019
</metadata>
<g transform="translate(0.000000,68.000000) scale(0.100000,-0.100000)"
fill="#000000" stroke="none">
<path d="M470 345 c0 -35 -23 -65 -52 -65 -23 0 -28 4 -28 25 0 17 -7 28 -22
34 -35 13 -41 2 -19 -35 l20 -34 -31 0 c-24 0 -29 -3 -21 -11 9 -9 41 -9 124
0 62 7 116 14 121 17 20 12 -6 24 -40 18 l-37 -7 23 25 c30 33 28 48 -8 48
-20 0 -30 -5 -30 -15z"/>
</g>
</svg>
