<?xml version="1.0" standalone="no"?>
<!DOCTYPE svg PUBLIC "-//W3C//DTD SVG 20010904//EN"
 "http://www.w3.org/TR/2001/REC-SVG-20010904/DTD/svg10.dtd">
<svg version="1.0" xmlns="http://www.w3.org/2000/svg"
 width="96.000000pt" height="68.000000pt" viewBox="0 0 96.000000 68.000000"
 preserveAspectRatio="xMidYMid meet">
<metadata>
Created by potrace 1.16, written by Peter Selinger 2001-2019
</metadata>
<g transform="translate(0.000000,68.000000) scale(0.100000,-0.100000)"
fill="#000000" stroke="none">
<path d="M566 264 c-14 -35 -18 -121 -7 -128 6 -4 9 -12 6 -17 -4 -5 -1 -9 4
-9 6 0 11 -7 11 -15 0 -36 164 -45 215 -11 22 14 38 45 18 33 -5 -3 -9 6 -10
20 0 14 -6 30 -13 37 -8 8 -10 7 -6 -4 4 -8 -4 -28 -16 -43 -21 -25 -30 -28
-95 -31 -40 -1 -71 0 -68 2 3 3 -1 10 -9 16 -7 6 -19 26 -25 45 -6 19 -8 31
-4 28 5 -6 32 55 33 74 0 15 -29 17 -34 3z"/>
</g>
</svg>
