<?xml version="1.0" standalone="no"?>
<!DOCTYPE svg PUBLIC "-//W3C//DTD SVG 20010904//EN"
 "http://www.w3.org/TR/2001/REC-SVG-20010904/DTD/svg10.dtd">
<svg version="1.0" xmlns="http://www.w3.org/2000/svg"
 width="96.000000pt" height="68.000000pt" viewBox="0 0 96.000000 68.000000"
 preserveAspectRatio="xMidYMid meet">
<metadata>
Created by potrace 1.16, written by Peter Selinger 2001-2019
</metadata>
<g transform="translate(0.000000,68.000000) scale(0.100000,-0.100000)"
fill="#000000" stroke="none">
<path d="M515 361 c0 -28 -5 -55 -10 -60 -6 -6 -46 -14 -90 -19 -75 -8 -78 -9
-54 -21 20 -10 38 -11 75 -3 27 6 51 9 53 7 2 -3 -4 -16 -13 -30 -21 -32 -15
-42 37 -56 l42 -11 -28 -22 c-16 -13 -54 -31 -85 -42 l-57 -19 44 -3 c33 -3
59 4 107 28 62 30 64 31 96 14 18 -9 47 -27 65 -40 31 -24 54 -30 66 -18 15
15 -19 48 -78 76 l-64 29 24 35 c13 20 27 44 30 55 6 17 16 19 91 19 84 0 103
9 63 31 -14 7 -43 9 -79 5 -45 -5 -60 -3 -70 9 -18 22 -50 19 -50 -5 0 -17 -7
-20 -40 -20 -46 0 -47 4 -20 45 18 27 18 31 3 47 -9 10 -26 18 -37 18 -18 0
-21 -6 -21 -49z m115 -86 c0 -15 -41 -84 -52 -88 -11 -3 -65 10 -76 19 -10 8
31 63 50 67 35 7 78 8 78 2z"/>
</g>
</svg>
