<?xml version="1.0" standalone="no"?>
<!DOCTYPE svg PUBLIC "-//W3C//DTD SVG 20010904//EN"
 "http://www.w3.org/TR/2001/REC-SVG-20010904/DTD/svg10.dtd">
<svg version="1.0" xmlns="http://www.w3.org/2000/svg"
 width="96.000000pt" height="68.000000pt" viewBox="0 0 96.000000 68.000000"
 preserveAspectRatio="xMidYMid meet">
<metadata>
Created by potrace 1.16, written by Peter Selinger 2001-2019
</metadata>
<g transform="translate(0.000000,68.000000) scale(0.100000,-0.100000)"
fill="#000000" stroke="none">
<path d="M217 283 c-4 -3 -7 -14 -7 -23 0 -17 -40 -82 -87 -139 l-28 -35 34
20 c18 10 52 40 75 66 l43 47 178 -91 179 -91 100 6 c56 3 112 10 126 16 14 5
21 10 15 10 -5 1 -73 10 -150 22 -100 15 -168 32 -240 59 -186 71 -214 87
-183 106 7 5 5 11 -7 21 -21 14 -38 17 -48 6z"/>
</g>
</svg>
