<?xml version="1.0" standalone="no"?>
<!DOCTYPE svg PUBLIC "-//W3C//DTD SVG 20010904//EN"
 "http://www.w3.org/TR/2001/REC-SVG-20010904/DTD/svg10.dtd">
<svg version="1.0" xmlns="http://www.w3.org/2000/svg"
 width="96.000000pt" height="68.000000pt" viewBox="0 0 96.000000 68.000000"
 preserveAspectRatio="xMidYMid meet">
<metadata>
Created by potrace 1.16, written by Peter Selinger 2001-2019
</metadata>
<g transform="translate(0.000000,68.000000) scale(0.100000,-0.100000)"
fill="#000000" stroke="none">
<path d="M205 408 c0 -101 -2 -225 -5 -276 -4 -75 -2 -94 10 -102 10 -6 20 -5
30 5 11 12 15 56 18 206 l4 191 32 -31 c36 -35 51 -38 60 -15 8 22 -9 41 -51
56 -35 13 -35 13 -30 62 5 52 -15 86 -50 86 -17 0 -18 -15 -18 -182z"/>
<path d="M530 578 c0 -6 12 -24 26 -39 l25 -27 -78 -6 c-108 -9 -139 -16 -122
-27 25 -15 16 -148 -17 -247 -8 -23 -26 -66 -41 -95 -39 -74 -39 -75 -3 -42
54 51 92 145 110 275 15 109 14 107 71 115 28 4 52 5 54 4 2 -2 6 -21 10 -41
7 -37 6 -38 -21 -39 -16 0 -38 -4 -49 -9 -15 -6 -8 -9 28 -9 34 -1 47 -5 47
-15 0 -21 -9 -25 -69 -27 -76 -4 -74 -19 3 -19 58 0 66 -2 66 -19 0 -20 -25
-31 -72 -31 -16 0 -28 -4 -28 -10 0 -5 23 -10 50 -10 l50 0 0 -49 c0 -26 -3
-70 -6 -96 -7 -46 -8 -47 -37 -41 l-31 6 24 -25 c29 -31 60 -41 71 -24 5 8 9
64 9 126 l0 112 54 6 c52 7 55 9 58 39 3 30 4 31 63 36 54 5 58 6 38 18 -12 6
-35 12 -51 12 -26 0 -29 3 -25 25 6 31 -24 40 -85 27 -39 -9 -56 -2 -31 13 7
5 5 15 -6 31 l-15 24 57 1 c32 1 72 5 88 9 52 12 2 24 -75 16 -63 -5 -68 -4
-63 12 5 22 -11 37 -49 46 -19 4 -28 2 -28 -6z m150 -193 c0 -15 -54 -30 -70
-20 -17 10 -11 25 12 34 28 10 58 3 58 -14z m-10 -65 c0 -16 -7 -20 -35 -20
-28 0 -35 4 -35 20 0 16 7 20 35 20 28 0 35 -4 35 -20z"/>
<path d="M127 370 c-31 -69 -33 -88 -10 -97 24 -9 49 28 58 83 5 34 3 50 -7
61 -12 12 -18 5 -41 -47z"/>
<path d="M693 225 c-37 -41 -32 -43 34 -14 45 19 47 21 29 35 -27 19 -27 19
-63 -21z"/>
<path d="M450 223 c1 -16 28 -43 44 -43 22 0 20 27 -3 40 -23 12 -41 13 -41 3z"/>
<path d="M498 150 c-21 -10 -56 -21 -78 -25 -43 -7 -49 -15 -24 -36 13 -11 21
-10 49 5 32 18 105 75 95 75 -3 0 -22 -8 -42 -19z"/>
<path d="M652 155 c22 -23 114 -85 125 -85 23 0 14 28 -14 48 -37 25 -131 57
-111 37z"/>
</g>
</svg>
