<?xml version="1.0" standalone="no"?>
<!DOCTYPE svg PUBLIC "-//W3C//DTD SVG 20010904//EN"
 "http://www.w3.org/TR/2001/REC-SVG-20010904/DTD/svg10.dtd">
<svg version="1.0" xmlns="http://www.w3.org/2000/svg"
 width="96.000000pt" height="68.000000pt" viewBox="0 0 96.000000 68.000000"
 preserveAspectRatio="xMidYMid meet">
<metadata>
Created by potrace 1.16, written by Peter Selinger 2001-2019
</metadata>
<g transform="translate(0.000000,68.000000) scale(0.100000,-0.100000)"
fill="#000000" stroke="none">
<path d="M264 608 c3 -13 9 -51 13 -85 l6 -61 -67 -7 c-36 -4 -66 -11 -66 -16
0 -5 29 -9 66 -9 l65 0 -3 -52 -3 -51 -93 -36 c-83 -31 -92 -37 -76 -48 27
-20 52 -16 111 18 30 17 57 29 60 26 3 -3 1 -34 -4 -69 l-8 -63 -35 3 -35 4
39 -36 c21 -20 44 -36 51 -36 22 0 35 51 35 141 l0 89 47 30 c51 33 46 39 -11
15 l-36 -15 0 45 c0 41 2 45 28 51 53 11 59 15 33 25 -13 5 -32 7 -42 4 -23
-8 -25 13 -5 78 l14 46 -33 15 c-46 22 -59 21 -51 -6z"/>
</g>
</svg>
