<?xml version="1.0" standalone="no"?>
<!DOCTYPE svg PUBLIC "-//W3C//DTD SVG 20010904//EN"
 "http://www.w3.org/TR/2001/REC-SVG-20010904/DTD/svg10.dtd">
<svg version="1.0" xmlns="http://www.w3.org/2000/svg"
 width="96.000000pt" height="68.000000pt" viewBox="0 0 96.000000 68.000000"
 preserveAspectRatio="xMidYMid meet">
<metadata>
Created by potrace 1.16, written by Peter Selinger 2001-2019
</metadata>
<g transform="translate(0.000000,68.000000) scale(0.100000,-0.100000)"
fill="#000000" stroke="none">
<path d="M304 583 c-12 -49 -64 -126 -137 -200 -39 -40 -67 -73 -61 -73 14 0
96 55 119 80 10 11 22 20 27 20 12 0 10 -185 -4 -250 -9 -46 -9 -60 4 -84 l15
-29 16 24 c12 19 16 59 18 180 3 136 1 158 -14 173 -18 19 -13 28 61 120 22
27 22 30 6 47 -24 27 -43 24 -50 -8z"/>
</g>
</svg>
