<?xml version="1.0" standalone="no"?>
<!DOCTYPE svg PUBLIC "-//W3C//DTD SVG 20010904//EN"
 "http://www.w3.org/TR/2001/REC-SVG-20010904/DTD/svg10.dtd">
<svg version="1.0" xmlns="http://www.w3.org/2000/svg"
 width="96.000000pt" height="68.000000pt" viewBox="0 0 96.000000 68.000000"
 preserveAspectRatio="xMidYMid meet">
<metadata>
Created by potrace 1.16, written by Peter Selinger 2001-2019
</metadata>
<g transform="translate(0.000000,68.000000) scale(0.100000,-0.100000)"
fill="#000000" stroke="none">
<path d="M218 458 c7 -7 12 -34 12 -60 0 -46 -1 -48 -29 -48 -16 0 -36 -3 -45
-6 -27 -10 -7 -24 35 -24 l40 0 -3 -57 -3 -57 -65 -19 c-36 -10 -67 -21 -69
-23 -8 -7 33 -33 52 -34 16 0 200 92 221 111 15 14 -7 11 -47 -6 -45 -18 -51
-10 -42 55 6 46 9 50 33 50 37 0 60 15 37 24 -9 3 -28 6 -42 6 -25 0 -26 1
-20 50 l6 50 -41 0 c-33 0 -39 -3 -30 -12z"/>
</g>
</svg>
