<?xml version="1.0" standalone="no"?>
<!DOCTYPE svg PUBLIC "-//W3C//DTD SVG 20010904//EN"
 "http://www.w3.org/TR/2001/REC-SVG-20010904/DTD/svg10.dtd">
<svg version="1.0" xmlns="http://www.w3.org/2000/svg"
 width="96.000000pt" height="68.000000pt" viewBox="0 0 96.000000 68.000000"
 preserveAspectRatio="xMidYMid meet">
<metadata>
Created by potrace 1.16, written by Peter Selinger 2001-2019
</metadata>
<g transform="translate(0.000000,68.000000) scale(0.100000,-0.100000)"
fill="#000000" stroke="none">
<path d="M480 435 c0 -3 7 -16 15 -29 15 -22 14 -24 -7 -29 -13 -3 -56 -9 -96
-13 -65 -6 -93 -17 -79 -30 4 -4 88 6 180 21 15 3 27 0 27 -6 0 -6 19 -51 42
-101 l42 -90 -37 -34 c-42 -39 -27 -46 22 -10 l33 24 35 -39 c56 -61 153 -113
168 -89 3 5 -1 23 -10 39 -8 17 -15 44 -15 61 0 39 -16 39 -23 0 -4 -16 -12
-30 -20 -30 -7 0 -34 19 -60 43 l-47 42 41 64 c39 61 41 65 23 78 -30 22 -42
15 -54 -37 -17 -70 -32 -78 -58 -31 -12 22 -29 58 -37 80 l-14 41 42 1 c23 1
56 4 72 8 46 10 13 23 -56 22 -46 0 -59 3 -59 14 0 9 -12 20 -26 25 -28 11
-44 13 -44 5z"/>
<path d="M680 431 c0 -11 50 -61 61 -61 16 0 22 29 10 44 -12 14 -71 28 -71
17z"/>
</g>
</svg>
