<?xml version="1.0" standalone="no"?>
<!DOCTYPE svg PUBLIC "-//W3C//DTD SVG 20010904//EN"
 "http://www.w3.org/TR/2001/REC-SVG-20010904/DTD/svg10.dtd">
<svg version="1.0" xmlns="http://www.w3.org/2000/svg"
 width="96.000000pt" height="68.000000pt" viewBox="0 0 96.000000 68.000000"
 preserveAspectRatio="xMidYMid meet">
<metadata>
Created by potrace 1.16, written by Peter Selinger 2001-2019
</metadata>
<g transform="translate(0.000000,68.000000) scale(0.100000,-0.100000)"
fill="#000000" stroke="none">
<path d="M519 216 c-1 -3 -2 -9 -3 -13 -5 -26 -30 -72 -42 -77 -8 -3 -32 1
-54 10 -21 9 -47 14 -57 12 -12 -3 -5 -8 22 -17 22 -7 44 -17 49 -21 12 -12
-47 -40 -139 -67 l-80 -23 72 4 c49 3 92 13 132 31 l59 27 73 -34 c63 -28 84
-32 139 -30 36 1 79 6 95 11 28 7 25 9 -30 15 -85 11 -234 46 -241 57 -3 5 9
26 26 45 35 40 36 67 2 72 -12 2 -23 1 -23 -2z"/>
</g>
</svg>
