<?xml version="1.0" standalone="no"?>
<!DOCTYPE svg PUBLIC "-//W3C//DTD SVG 20010904//EN"
 "http://www.w3.org/TR/2001/REC-SVG-20010904/DTD/svg10.dtd">
<svg version="1.0" xmlns="http://www.w3.org/2000/svg"
 width="96.000000pt" height="68.000000pt" viewBox="0 0 96.000000 68.000000"
 preserveAspectRatio="xMidYMid meet">
<metadata>
Created by potrace 1.16, written by Peter Selinger 2001-2019
</metadata>
<g transform="translate(0.000000,68.000000) scale(0.100000,-0.100000)"
fill="#000000" stroke="none">
<path d="M390 381 c0 -46 -1 -49 -37 -64 l-38 -15 38 -1 37 -1 0 -55 c0 -115
45 -147 216 -153 117 -4 215 10 234 33 9 10 8 19 -1 37 -7 12 -18 43 -24 68
l-12 45 -12 -42 c-6 -24 -22 -55 -35 -70 -22 -26 -29 -27 -124 -31 -167 -7
-202 14 -202 118 0 64 1 68 25 74 14 4 25 13 25 22 0 11 -6 13 -21 9 -18 -6
-20 -3 -17 24 2 20 -3 35 -12 41 -31 20 -40 11 -40 -39z"/>
</g>
</svg>
