<?xml version="1.0" standalone="no"?>
<!DOCTYPE svg PUBLIC "-//W3C//DTD SVG 20010904//EN"
 "http://www.w3.org/TR/2001/REC-SVG-20010904/DTD/svg10.dtd">
<svg version="1.0" xmlns="http://www.w3.org/2000/svg"
 width="96.000000pt" height="68.000000pt" viewBox="0 0 96.000000 68.000000"
 preserveAspectRatio="xMidYMid meet">
<metadata>
Created by potrace 1.16, written by Peter Selinger 2001-2019
</metadata>
<g transform="translate(0.000000,68.000000) scale(0.100000,-0.100000)"
fill="#000000" stroke="none">
<path d="M261 512 c-14 -57 -58 -125 -132 -207 -46 -49 -49 -56 -24 -42 17 8
47 29 69 46 49 39 83 41 92 5 8 -31 -7 -44 -51 -44 -16 0 -37 -5 -45 -10 -11
-7 2 -10 43 -10 l57 0 0 -59 0 -59 -50 -11 c-28 -6 -67 -11 -87 -11 -35 0 -36
0 -18 -20 10 -11 27 -20 38 -20 31 0 257 81 257 93 0 9 -10 7 -77 -10 -22 -5
-23 -2 -23 50 l0 56 42 12 c33 8 39 13 26 20 -9 5 -25 8 -37 7 -11 -2 -20 0
-20 5 -4 38 1 46 26 49 14 2 29 9 31 17 4 11 -3 13 -34 7 -22 -4 -56 -10 -77
-13 l-38 -6 42 67 c24 36 46 66 49 66 4 0 17 -11 30 -25 28 -30 50 -32 50 -5
0 13 -12 26 -35 37 -19 9 -35 20 -35 24 0 12 -30 39 -44 39 -7 0 -18 -22 -25
-48z"/>
<path d="M352 208 c-6 -17 -10 -33 -9 -34 1 -2 17 6 34 17 20 13 30 26 26 35
-9 25 -38 15 -51 -18z"/>
<path d="M180 180 c24 -34 38 -38 47 -14 7 19 -21 44 -50 44 -17 0 -17 -2 3
-30z"/>
</g>
</svg>
