<?xml version="1.0" standalone="no"?>
<!DOCTYPE svg PUBLIC "-//W3C//DTD SVG 20010904//EN"
 "http://www.w3.org/TR/2001/REC-SVG-20010904/DTD/svg10.dtd">
<svg version="1.0" xmlns="http://www.w3.org/2000/svg"
 width="96.000000pt" height="68.000000pt" viewBox="0 0 96.000000 68.000000"
 preserveAspectRatio="xMidYMid meet">
<metadata>
Created by potrace 1.16, written by Peter Selinger 2001-2019
</metadata>
<g transform="translate(0.000000,68.000000) scale(0.100000,-0.100000)"
fill="#000000" stroke="none">
<path d="M520 566 c-14 -43 -64 -102 -134 -156 -31 -23 -54 -45 -52 -47 12
-12 131 65 176 113 28 30 55 54 59 54 4 0 41 -31 83 -70 75 -69 77 -70 130
-70 29 0 60 5 68 10 12 8 12 10 -5 10 -66 1 -264 119 -265 156 0 20 -17 34
-40 34 -5 0 -13 -15 -20 -34z"/>
</g>
</svg>
