<?xml version="1.0" standalone="no"?>
<!DOCTYPE svg PUBLIC "-//W3C//DTD SVG 20010904//EN"
 "http://www.w3.org/TR/2001/REC-SVG-20010904/DTD/svg10.dtd">
<svg version="1.0" xmlns="http://www.w3.org/2000/svg"
 width="90.000000pt" height="92.000000pt" viewBox="0 0 90.000000 92.000000"
 preserveAspectRatio="xMidYMid meet">
<metadata>
Created by potrace 1.16, written by Peter Selinger 2001-2019
</metadata>
<g transform="translate(0.000000,92.000000) scale(0.100000,-0.100000)"
fill="#000000" stroke="none">
<path d="M595 871 c-3 -6 -1 -19 4 -30 6 -10 9 -33 8 -50 -2 -27 -6 -32 -37
-37 -19 -3 -43 -8 -53 -11 -16 -4 -17 0 -11 32 7 41 -4 55 -44 55 -20 0 -22
-4 -16 -22 4 -13 8 -34 8 -48 1 -22 -4 -25 -36 -28 -58 -5 -42 -32 18 -32 19
0 24 -5 24 -24 0 -19 -7 -26 -30 -31 -41 -9 -38 -25 5 -25 32 0 35 -3 35 -29
0 -34 -14 -41 -76 -41 -46 0 -57 -12 -26 -29 12 -6 42 -7 83 -1 35 5 67 10 72
10 4 0 7 -16 7 -35 l0 -35 -65 0 -65 0 6 -27 c8 -29 8 -43 6 -110 -2 -41 -3
-42 -39 -45 -49 -4 -49 -20 0 -32 26 -7 36 -14 32 -24 -13 -36 -16 -91 -5
-112 18 -34 30 -12 37 68 l6 70 56 6 c31 3 86 8 124 12 l67 6 0 -40 c0 -22 -5
-53 -10 -67 -11 -28 -22 -29 -77 -8 -10 4 3 -17 31 -50 47 -55 50 -57 67 -41
27 24 42 90 36 152 l-6 52 66 0 c47 0 64 3 61 13 -8 23 -51 37 -92 31 l-39 -6
7 53 c3 30 9 64 12 76 5 17 -1 26 -25 41 -29 17 -37 18 -87 6 l-55 -12 3 31 3
32 117 5 c133 6 166 20 105 45 -28 12 -47 13 -88 5 -77 -15 -81 -14 -77 18 3
24 8 28 45 33 71 9 73 33 3 34 -37 0 -40 2 -40 28 0 21 5 27 23 27 12 0 39 5
60 11 33 9 37 12 26 26 -10 11 -24 14 -57 9 l-45 -6 6 40 c3 24 0 43 -7 48
-19 16 -54 23 -61 13z m5 -180 c0 -27 -3 -29 -45 -33 -43 -3 -45 -2 -45 24 0
24 4 27 38 31 20 2 40 4 45 5 4 1 7 -11 7 -27z m0 -91 c0 -26 -3 -30 -29 -30
-16 0 -36 -3 -45 -6 -12 -5 -16 1 -16 24 0 32 10 39 63 41 24 1 27 -3 27 -29z
m80 -162 c0 -7 3 -22 6 -33 5 -18 0 -20 -50 -20 l-56 0 0 33 c0 32 0 32 50 32
33 0 50 -4 50 -12z m-140 -27 c0 -30 -18 -41 -67 -41 -19 0 -23 6 -23 29 0 26
4 30 33 34 17 2 38 5 45 5 7 1 12 -10 12 -27z m150 -81 c0 -30 -1 -30 -55 -30
-52 0 -55 1 -55 24 0 22 5 25 43 29 23 2 48 4 55 5 7 1 12 -10 12 -28z m-152
-35 c-2 -1 -22 -5 -45 -8 -42 -5 -43 -4 -43 23 0 27 3 29 43 32 38 3 42 1 45
-20 2 -13 2 -25 0 -27z"/>
<path d="M188 756 c-31 -7 -70 -11 -88 -8 -30 4 -31 3 -20 -17 8 -15 11 -79 9
-202 -2 -157 -1 -182 14 -196 11 -11 17 -13 17 -5 0 7 5 12 10 12 6 0 10 -5
10 -12 0 -15 -64 -125 -98 -167 l-27 -35 34 20 c18 10 60 52 93 92 58 71 60
74 43 93 -18 19 -17 19 30 19 29 0 55 -6 65 -15 15 -14 19 -14 30 1 10 12 13
52 12 162 -1 81 2 164 7 186 11 47 7 60 -25 75 -30 13 -41 13 -116 -3z m76
-48 c3 -13 6 -37 6 -54 0 -27 -4 -32 -22 -31 -13 1 -44 -2 -70 -7 l-48 -7 0
55 c0 54 0 55 33 59 81 10 94 8 101 -15z m6 -158 c0 -31 -4 -40 -17 -40 -10 0
-42 -3 -70 -6 l-53 -7 0 41 c0 45 3 46 103 50 37 2 37 2 37 -38z m0 -120 l0
-50 -73 0 -72 0 3 45 4 44 61 4 c34 2 65 4 70 5 4 1 7 -20 7 -48z"/>
<path d="M232 313 c24 -54 70 -133 77 -133 16 0 22 36 12 63 -5 14 -25 37 -44
51 -33 26 -52 33 -45 19z"/>
</g>
</svg>
