<?xml version="1.0" standalone="no"?>
<!DOCTYPE svg PUBLIC "-//W3C//DTD SVG 20010904//EN"
 "http://www.w3.org/TR/2001/REC-SVG-20010904/DTD/svg10.dtd">
<svg version="1.0" xmlns="http://www.w3.org/2000/svg"
 width="90.000000pt" height="92.000000pt" viewBox="0 0 90.000000 92.000000"
 preserveAspectRatio="xMidYMid meet">
<metadata>
Created by potrace 1.16, written by Peter Selinger 2001-2019
</metadata>
<g transform="translate(0.000000,92.000000) scale(0.100000,-0.100000)"
fill="#000000" stroke="none">
<path d="M525 843 c-49 -8 -103 -18 -120 -22 l-30 -8 30 -12 c17 -7 45 -9 67
-6 l38 7 0 -45 c0 -44 -1 -44 -37 -51 -58 -9 -118 -7 -130 5 -8 8 -19 -6 -42
-47 -36 -66 -36 -68 -17 -83 11 -10 19 -7 36 11 11 12 23 32 26 44 4 17 15 23
52 27 26 3 62 9 80 13 l33 7 -2 -97 c-2 -59 2 -101 8 -107 24 -24 33 4 33 106
l0 103 38 6 c108 15 152 17 152 6 0 -6 -7 -24 -15 -40 -9 -17 -12 -30 -8 -29
5 0 35 6 68 13 72 15 78 34 24 78 l-37 30 -105 -18 c-58 -10 -108 -16 -110
-14 -2 3 -2 24 1 48 4 38 7 42 31 42 36 0 101 19 101 29 0 12 -27 21 -53 20
-12 -1 -62 -8 -112 -16z"/>
<path d="M155 663 c-19 -11 -52 -17 -87 -17 -32 1 -58 -1 -58 -3 0 -2 7 -14
15 -27 9 -13 20 -52 26 -87 16 -105 20 -119 35 -119 8 0 14 6 14 14 0 16 30
26 82 26 36 0 37 1 32 28 -3 15 4 56 15 92 26 82 26 84 -4 98 -32 15 -34 15
-70 -5z m25 -65 c0 -65 -12 -107 -31 -113 -62 -17 -57 -25 -63 99 -1 31 17 43
72 45 18 1 22 -4 22 -31z"/>
<path d="M629 658 c-6 -13 -21 -33 -33 -46 l-21 -24 55 22 c30 12 57 23 59 25
6 6 -9 25 -29 35 -16 8 -21 6 -31 -12z"/>
<path d="M370 612 c0 -5 18 -17 40 -27 30 -14 44 -15 52 -7 19 19 -10 42 -53
42 -22 0 -39 -4 -39 -8z"/>
<path d="M611 561 c-11 -7 -9 -12 10 -24 50 -32 79 -41 91 -29 27 27 -67 75
-101 53z"/>
<path d="M420 524 c-19 -7 -45 -13 -57 -13 -28 -1 -29 -12 -5 -34 26 -24 33
-22 77 23 42 43 40 45 -15 24z"/>
<path d="M497 437 c-123 -21 -140 -36 -53 -47 l44 -5 -15 -37 c-13 -33 -20
-38 -59 -44 -25 -3 -61 -4 -81 -1 -33 6 -35 5 -28 -16 16 -54 25 -113 20 -142
-4 -19 -1 -37 9 -50 26 -34 37 -1 30 91 l-7 81 44 6 c54 7 59 1 59 -83 0 -36
5 -72 10 -80 19 -29 31 12 28 98 l-3 83 40 -3 40 -3 5 -89 c5 -98 25 -129 34
-54 16 131 16 146 4 152 -7 3 19 4 57 3 l70 -2 3 -57 c4 -79 -7 -98 -53 -88
-19 4 -35 5 -35 1 1 -11 70 -101 78 -101 5 0 19 11 32 25 18 19 27 46 36 103
6 42 15 89 18 103 6 22 3 30 -24 49 l-31 22 -122 -17 c-67 -9 -133 -18 -147
-21 -24 -5 -24 -4 9 29 18 20 30 40 27 46 -4 6 -4 11 1 11 4 0 37 5 73 11 71
11 94 24 70 39 -20 13 -42 11 -183 -13z"/>
</g>
</svg>
