<?xml version="1.0" standalone="no"?>
<!DOCTYPE svg PUBLIC "-//W3C//DTD SVG 20010904//EN"
 "http://www.w3.org/TR/2001/REC-SVG-20010904/DTD/svg10.dtd">
<svg version="1.0" xmlns="http://www.w3.org/2000/svg"
 width="96.000000pt" height="68.000000pt" viewBox="0 0 96.000000 68.000000"
 preserveAspectRatio="xMidYMid meet">
<metadata>
Created by potrace 1.16, written by Peter Selinger 2001-2019
</metadata>
<g transform="translate(0.000000,68.000000) scale(0.100000,-0.100000)"
fill="#000000" stroke="none">
<path d="M407 623 c-4 -3 -7 -17 -7 -29 0 -34 -95 -131 -199 -205 -50 -35 -88
-65 -86 -67 5 -6 121 54 172 89 24 17 70 56 103 88 l60 58 29 -21 c16 -12 70
-56 120 -98 l92 -78 62 1 c34 0 71 4 82 9 22 9 25 7 -65 36 -30 9 -71 24 -90
33 -57 26 -210 133 -210 147 0 28 -46 55 -63 37z"/>
</g>
</svg>
