<?xml version="1.0" standalone="no"?>
<!DOCTYPE svg PUBLIC "-//W3C//DTD SVG 20010904//EN"
 "http://www.w3.org/TR/2001/REC-SVG-20010904/DTD/svg10.dtd">
<svg version="1.0" xmlns="http://www.w3.org/2000/svg"
 width="90.000000pt" height="92.000000pt" viewBox="0 0 90.000000 92.000000"
 preserveAspectRatio="xMidYMid meet">
<metadata>
Created by potrace 1.16, written by Peter Selinger 2001-2019
</metadata>
<g transform="translate(0.000000,92.000000) scale(0.100000,-0.100000)"
fill="#000000" stroke="none">
<path d="M487 770 c6 -87 9 -83 -62 -95 -38 -6 -39 -8 -20 -22 12 -9 32 -13
52 -9 l31 4 4 -58 3 -58 -80 -7 c-94 -8 -125 -14 -125 -26 0 -16 69 -21 145
-9 42 6 79 10 81 7 7 -6 -117 -124 -171 -163 -55 -39 -36 -48 30 -14 22 11 41
20 42 20 8 0 2 -135 -8 -180 -9 -44 -8 -55 7 -78 l17 -26 10 22 c6 12 19 22
31 22 12 0 44 3 71 6 50 6 50 6 68 -31 20 -43 35 -42 59 5 15 29 17 51 11 131
-4 61 -2 108 5 128 11 30 9 33 -21 52 -18 11 -41 17 -52 14 -36 -10 -149 -34
-151 -32 -1 1 32 33 72 70 l74 69 107 6 c111 7 139 21 89 43 -18 9 -45 9 -95
2 -48 -6 -68 -6 -64 2 4 5 34 46 67 89 l60 79 -34 28 c-36 30 -50 30 -50 -3 0
-44 -113 -218 -141 -218 -6 0 -9 25 -7 57 l3 57 49 11 c27 5 51 15 53 22 6 16
-33 26 -74 18 l-36 -6 7 65 c6 58 4 66 -13 76 -45 23 -49 15 -44 -70z m147
-426 c3 -9 6 -28 6 -42 0 -25 -3 -27 -42 -27 -24 -1 -64 -4 -90 -9 l-48 -8 0
45 c0 52 2 53 111 56 44 1 58 -3 63 -15z m2 -136 c-3 -24 -5 -47 -5 -53 -1 -6
-40 -11 -91 -12 l-90 -2 0 32 c0 18 4 37 8 43 4 6 43 15 87 21 44 5 84 11 88
11 4 1 6 -17 3 -40z"/>
<path d="M160 720 c-25 -11 -64 -19 -87 -19 -46 -1 -48 -3 -33 -31 9 -17 10
-92 6 -387 -1 -37 4 -57 17 -70 16 -16 17 -16 17 0 0 9 6 17 14 17 7 0 33 3
58 6 43 6 45 5 58 -25 15 -37 28 -36 53 6 15 27 17 45 10 159 -5 71 -5 172 -2
224 6 93 6 95 -20 117 -30 27 -32 27 -91 3z m60 -100 c0 -59 -1 -60 -28 -60
-15 0 -42 -4 -60 -9 -36 -11 -36 -10 -32 74 2 48 11 55 73 55 l47 0 0 -60z m0
-142 l0 -53 -32 0 c-18 0 -48 -3 -65 -7 l-33 -7 0 54 0 54 48 4 c26 2 55 4 65
5 14 2 17 -6 17 -50z m0 -138 c0 -59 -1 -60 -27 -60 -16 0 -45 -3 -65 -6 l-38
-7 0 62 c0 34 4 60 9 57 4 -3 28 -2 52 3 72 14 69 16 69 -49z"/>
</g>
</svg>
