<?xml version="1.0" standalone="no"?>
<!DOCTYPE svg PUBLIC "-//W3C//DTD SVG 20010904//EN"
 "http://www.w3.org/TR/2001/REC-SVG-20010904/DTD/svg10.dtd">
<svg version="1.0" xmlns="http://www.w3.org/2000/svg"
 width="96.000000pt" height="68.000000pt" viewBox="0 0 96.000000 68.000000"
 preserveAspectRatio="xMidYMid meet">
<metadata>
Created by potrace 1.16, written by Peter Selinger 2001-2019
</metadata>
<g transform="translate(0.000000,68.000000) scale(0.100000,-0.100000)"
fill="#000000" stroke="none">
<path d="M198 135 c-42 -59 -49 -95 -20 -95 33 0 64 45 70 100 2 27 1 50 -4
50 -5 -1 -26 -25 -46 -55z"/>
<path d="M711 119 c67 -76 92 -87 87 -38 -2 26 -12 39 -43 61 -22 15 -53 30
-70 34 -29 7 -28 5 26 -57z"/>
<path d="M371 110 c31 -51 52 -62 63 -34 12 30 -37 84 -76 84 -15 0 -13 -7 13
-50z"/>
<path d="M510 152 c0 -21 62 -92 80 -92 31 0 27 53 -6 79 -27 21 -74 29 -74
13z"/>
</g>
</svg>
