<?xml version="1.0" standalone="no"?>
<!DOCTYPE svg PUBLIC "-//W3C//DTD SVG 20010904//EN"
 "http://www.w3.org/TR/2001/REC-SVG-20010904/DTD/svg10.dtd">
<svg version="1.0" xmlns="http://www.w3.org/2000/svg"
 width="96.000000pt" height="68.000000pt" viewBox="0 0 96.000000 68.000000"
 preserveAspectRatio="xMidYMid meet">
<metadata>
Created by potrace 1.16, written by Peter Selinger 2001-2019
</metadata>
<g transform="translate(0.000000,68.000000) scale(0.100000,-0.100000)"
fill="#000000" stroke="none">
<path d="M540 243 c-1 -39 -33 -105 -66 -137 -16 -14 -23 -26 -15 -26 15 0 86
68 93 90 5 17 2 19 114 -69 l69 -53 58 6 c86 9 89 18 12 33 -68 14 -141 46
-200 87 -16 11 -31 21 -33 22 -1 1 2 14 8 29 8 22 8 30 -2 37 -24 15 -38 8
-38 -19z"/>
</g>
</svg>
