<?xml version="1.0" standalone="no"?>
<!DOCTYPE svg PUBLIC "-//W3C//DTD SVG 20010904//EN"
 "http://www.w3.org/TR/2001/REC-SVG-20010904/DTD/svg10.dtd">
<svg version="1.0" xmlns="http://www.w3.org/2000/svg"
 width="96.000000pt" height="68.000000pt" viewBox="0 0 96.000000 68.000000"
 preserveAspectRatio="xMidYMid meet">
<metadata>
Created by potrace 1.16, written by Peter Selinger 2001-2019
</metadata>
<g transform="translate(0.000000,68.000000) scale(0.100000,-0.100000)"
fill="#000000" stroke="none">
<path d="M280 583 c1 -29 35 -67 54 -60 23 9 20 43 -6 61 -29 21 -48 20 -48
-1z"/>
<path d="M230 489 c-74 -9 -136 -18 -138 -18 -2 -1 0 -5 3 -11 9 -15 91 -12
182 5 43 8 99 15 125 15 48 0 71 13 42 24 -22 8 -60 6 -214 -15z"/>
</g>
</svg>
