<?xml version="1.0" standalone="no"?>
<!DOCTYPE svg PUBLIC "-//W3C//DTD SVG 20010904//EN"
 "http://www.w3.org/TR/2001/REC-SVG-20010904/DTD/svg10.dtd">
<svg version="1.0" xmlns="http://www.w3.org/2000/svg"
 width="96.000000pt" height="68.000000pt" viewBox="0 0 96.000000 68.000000"
 preserveAspectRatio="xMidYMid meet">
<metadata>
Created by potrace 1.16, written by Peter Selinger 2001-2019
</metadata>
<g transform="translate(0.000000,68.000000) scale(0.100000,-0.100000)"
fill="#000000" stroke="none">
<path d="M630 335 c0 -10 -3 -15 -7 -12 -3 4 -17 -8 -30 -25 -12 -18 -23 -28
-24 -22 0 5 -4 -1 -10 -14 -5 -13 -13 -20 -19 -17 -5 3 -10 1 -10 -4 0 -6 5
-11 11 -11 15 0 69 56 69 70 0 6 4 9 9 5 11 -6 26 33 17 42 -3 4 -6 -2 -6 -12z"/>
<path d="M483 205 l-28 -25 33 11 c35 12 48 24 33 33 -5 4 -22 -5 -38 -19z"/>
</g>
</svg>
