<?xml version="1.0" standalone="no"?>
<!DOCTYPE svg PUBLIC "-//W3C//DTD SVG 20010904//EN"
 "http://www.w3.org/TR/2001/REC-SVG-20010904/DTD/svg10.dtd">
<svg version="1.0" xmlns="http://www.w3.org/2000/svg"
 width="96.000000pt" height="68.000000pt" viewBox="0 0 96.000000 68.000000"
 preserveAspectRatio="xMidYMid meet">
<metadata>
Created by potrace 1.16, written by Peter Selinger 2001-2019
</metadata>
<g transform="translate(0.000000,68.000000) scale(0.100000,-0.100000)"
fill="#000000" stroke="none">
<path d="M540 598 c-36 -5 -81 -7 -100 -5 l-36 4 4 -66 c5 -75 -27 -240 -57
-299 -10 -20 -22 -48 -26 -62 -8 -27 -62 -111 -79 -122 -8 -6 -8 -8 0 -8 6 0
28 17 49 37 57 57 110 178 136 311 l22 112 64 0 c69 0 68 1 76 -66 l5 -42 -69
-6 -68 -7 19 -35 c27 -46 25 -55 -13 -83 l-32 -23 30 7 c49 13 70 11 70 -5 0
-10 -13 -16 -42 -18 -36 -3 -41 -6 -33 -20 4 -9 11 -25 14 -34 4 -12 16 -18
36 -18 25 0 30 -4 30 -24 0 -27 -21 -36 -85 -36 -37 0 -38 -1 -22 -17 15 -15
22 -16 69 -4 29 8 73 20 98 28 35 12 48 13 63 3 23 -14 35 -5 21 17 -14 23
-54 36 -54 19 0 -14 -37 -29 -51 -21 -4 3 -5 14 -2 25 4 16 14 20 43 20 33 0
41 4 54 32 20 39 8 50 -47 43 -28 -4 -39 -1 -44 10 -3 9 -4 18 -1 20 9 9 109
17 135 10 l26 -6 -6 -86 c-7 -93 -18 -117 -54 -110 -29 5 -28 0 2 -37 22 -28
24 -29 48 -13 26 17 47 79 47 139 0 18 5 51 11 72 19 68 -8 75 -198 49 -35 -5
-43 -3 -43 10 0 12 19 16 91 22 82 7 94 10 115 34 45 50 22 67 -79 56 l-62 -7
0 56 0 55 48 6 c26 4 44 11 41 16 -3 6 4 19 16 29 52 45 -21 61 -180 38z m135
-33 c0 -17 -11 -22 -65 -32 -36 -6 -85 -13 -110 -14 -42 -3 -45 -1 -42 21 1
13 4 25 5 26 6 7 136 22 172 20 33 -1 40 -5 40 -21z m43 -197 c-2 -18 -11 -24
-37 -26 -28 -3 -33 -1 -27 13 3 9 6 21 6 26 0 5 14 9 31 9 26 0 30 -3 27 -22z
m-88 -13 c0 -20 -5 -25 -25 -25 -20 0 -25 5 -25 25 0 20 5 25 25 25 20 0 25
-5 25 -25z m-72 -7 c-2 -15 -10 -23 -23 -23 -13 0 -21 8 -23 23 -3 18 1 22 23
22 22 0 26 -4 23 -22z m75 -134 c13 -13 -7 -34 -33 -34 -23 0 -27 4 -23 20 5
19 41 28 56 14z m-93 -24 c0 -14 -7 -20 -24 -20 -28 0 -43 27 -18 33 34 9 42
7 42 -13z"/>
<path d="M247 554 c-3 -4 -32 -10 -64 -13 -45 -5 -57 -10 -53 -21 3 -8 5 -76
6 -150 1 -74 2 -143 2 -152 2 -19 28 -25 34 -8 2 6 21 13 42 17 33 5 41 3 57
-18 15 -20 21 -22 36 -13 16 10 19 32 23 175 5 138 4 166 -9 177 -15 13 -63
17 -74 6z m33 -75 c0 -22 -4 -38 -8 -35 -4 3 -25 1 -45 -4 l-37 -8 0 37 c0 47
4 51 52 51 38 0 38 0 38 -41z m0 -97 c0 -20 -5 -28 -17 -28 -10 0 -33 -4 -50
-8 -29 -7 -33 -5 -33 12 0 42 11 52 56 52 41 0 44 -2 44 -28z m4 -88 c4 -15 3
-30 -1 -34 -11 -10 -113 -19 -113 -10 0 4 3 22 6 39 6 30 9 31 54 31 43 0 48
-2 54 -26z"/>
<path d="M670 490 c-26 -20 -16 -24 29 -11 20 5 21 8 10 18 -11 9 -20 7 -39
-7z"/>
<path d="M500 465 c32 -18 40 -18 40 0 0 10 -10 15 -32 15 l-33 -1 25 -14z"/>
<path d="M670 435 c33 -19 50 -19 50 0 0 11 -11 15 -37 15 l-38 -1 25 -14z"/>
<path d="M502 426 c-18 -6 -30 -15 -26 -19 12 -12 30 -8 54 13 26 22 20 24
-28 6z"/>
</g>
</svg>
