<?xml version="1.0" standalone="no"?>
<!DOCTYPE svg PUBLIC "-//W3C//DTD SVG 20010904//EN"
 "http://www.w3.org/TR/2001/REC-SVG-20010904/DTD/svg10.dtd">
<svg version="1.0" xmlns="http://www.w3.org/2000/svg"
 width="96.000000pt" height="68.000000pt" viewBox="0 0 96.000000 68.000000"
 preserveAspectRatio="xMidYMid meet">
<metadata>
Created by potrace 1.16, written by Peter Selinger 2001-2019
</metadata>
<g transform="translate(0.000000,68.000000) scale(0.100000,-0.100000)"
fill="#000000" stroke="none">
<path d="M400 623 c0 -4 9 -17 21 -29 l21 -22 -77 -7 c-42 -4 -91 -5 -110 -2
-32 5 -35 4 -51 -38 -16 -44 -13 -65 10 -65 13 0 36 41 36 64 0 9 29 15 108
20 59 4 151 9 205 13 53 3 97 3 97 -1 0 -4 -8 -19 -17 -33 -16 -25 -17 -26 -1
-21 9 4 33 10 53 14 46 8 54 28 24 54 -21 18 -33 20 -99 15 -41 -3 -92 -9
-112 -12 -34 -5 -38 -3 -38 16 0 14 -9 25 -26 31 -30 12 -44 13 -44 3z"/>
</g>
</svg>
