<?xml version="1.0" standalone="no"?>
<!DOCTYPE svg PUBLIC "-//W3C//DTD SVG 20010904//EN"
 "http://www.w3.org/TR/2001/REC-SVG-20010904/DTD/svg10.dtd">
<svg version="1.0" xmlns="http://www.w3.org/2000/svg"
 width="96.000000pt" height="68.000000pt" viewBox="0 0 96.000000 68.000000"
 preserveAspectRatio="xMidYMid meet">
<metadata>
Created by potrace 1.16, written by Peter Selinger 2001-2019
</metadata>
<g transform="translate(0.000000,68.000000) scale(0.100000,-0.100000)"
fill="#000000" stroke="none">
<path d="M327 347 c-26 -37 -123 -134 -168 -166 -32 -24 -37 -31 -22 -31 21 0
143 76 143 88 0 4 9 13 21 20 20 13 20 12 17 -102 -2 -84 0 -118 10 -128 23
-23 32 11 32 125 0 59 3 107 8 107 4 0 18 -12 31 -26 13 -13 29 -23 35 -21 21
7 11 31 -19 46 -16 9 -41 22 -53 29 l-24 14 22 23 c22 23 22 23 2 34 -16 9
-23 7 -35 -12z"/>
</g>
</svg>
