<?xml version="1.0" standalone="no"?>
<!DOCTYPE svg PUBLIC "-//W3C//DTD SVG 20010904//EN"
 "http://www.w3.org/TR/2001/REC-SVG-20010904/DTD/svg10.dtd">
<svg version="1.0" xmlns="http://www.w3.org/2000/svg"
 width="96.000000pt" height="68.000000pt" viewBox="0 0 96.000000 68.000000"
 preserveAspectRatio="xMidYMid meet">
<metadata>
Created by potrace 1.16, written by Peter Selinger 2001-2019
</metadata>
<g transform="translate(0.000000,68.000000) scale(0.100000,-0.100000)"
fill="#000000" stroke="none">
<path d="M250 328 c-1 -51 -45 -118 -123 -186 -21 -17 -36 -32 -34 -32 21 0
83 37 125 76 l52 46 45 -41 c49 -45 65 -51 65 -22 0 20 -43 61 -64 61 -6 0
-18 4 -25 9 -13 8 -12 15 5 46 19 36 19 37 0 51 -29 20 -46 17 -46 -8z"/>
</g>
</svg>
