<?xml version="1.0" standalone="no"?>
<!DOCTYPE svg PUBLIC "-//W3C//DTD SVG 20010904//EN"
 "http://www.w3.org/TR/2001/REC-SVG-20010904/DTD/svg10.dtd">
<svg version="1.0" xmlns="http://www.w3.org/2000/svg"
 width="96.000000pt" height="68.000000pt" viewBox="0 0 96.000000 68.000000"
 preserveAspectRatio="xMidYMid meet">
<metadata>
Created by potrace 1.16, written by Peter Selinger 2001-2019
</metadata>
<g transform="translate(0.000000,68.000000) scale(0.100000,-0.100000)"
fill="#000000" stroke="none">
<path d="M742 465 c24 -13 27 -20 21 -47 -5 -25 -3 -30 8 -24 8 4 3 -2 -10
-14 -13 -11 -30 -19 -36 -16 -7 2 -18 0 -26 -5 -10 -7 -2 -9 26 -7 l40 3 6
-42 c3 -24 1 -43 -3 -43 -5 0 -6 -6 -1 -12 7 -12 6 -100 -2 -143 -2 -11 -4
-28 -4 -37 -1 -10 -8 -18 -17 -18 -8 0 -12 -5 -9 -10 4 -6 11 -8 16 -4 5 3 8
1 7 -4 -2 -6 2 -9 7 -8 6 0 9 7 9 14 -1 6 6 12 15 12 13 1 13 3 -4 16 l-20 16
20 -4 c19 -3 20 2 19 97 -1 55 -2 125 -3 155 -1 30 0 72 3 93 4 24 2 36 -4 32
-5 -3 -10 -3 -10 2 0 4 -17 9 -38 10 l-37 2 27 -14z"/>
<path d="M608 453 c6 -2 10 -9 6 -14 -3 -5 0 -9 6 -9 7 0 8 -5 3 -12 -4 -7 -9
-36 -9 -63 -1 -28 -5 -69 -8 -90 -4 -22 -9 -60 -11 -83 -2 -24 -7 -57 -10 -72
-11 -48 12 -43 29 7 19 56 20 80 4 86 -10 4 -10 6 0 6 6 1 12 10 12 21 0 11 5
20 10 20 7 0 7 6 1 19 -7 12 -7 30 -1 52 6 19 6 35 2 37 -5 1 -6 23 -2 47 7
44 -1 56 -33 54 -8 0 -8 -2 1 -6z"/>
<path d="M660 350 c0 -5 5 -10 10 -10 6 0 10 5 10 10 0 6 -4 10 -10 10 -5 0
-10 -4 -10 -10z"/>
<path d="M718 263 c6 -2 18 -2 25 0 6 3 1 5 -13 5 -14 0 -19 -2 -12 -5z"/>
<path d="M718 73 c6 -2 18 -2 25 0 6 3 1 5 -13 5 -14 0 -19 -2 -12 -5z"/>
</g>
</svg>
