<?xml version="1.0" standalone="no"?>
<!DOCTYPE svg PUBLIC "-//W3C//DTD SVG 20010904//EN"
 "http://www.w3.org/TR/2001/REC-SVG-20010904/DTD/svg10.dtd">
<svg version="1.0" xmlns="http://www.w3.org/2000/svg"
 width="90.000000pt" height="92.000000pt" viewBox="0 0 90.000000 92.000000"
 preserveAspectRatio="xMidYMid meet">
<metadata>
Created by potrace 1.16, written by Peter Selinger 2001-2019
</metadata>
<g transform="translate(0.000000,92.000000) scale(0.100000,-0.100000)"
fill="#000000" stroke="none">
<path d="M131 771 c-7 -26 -30 -79 -52 -116 -22 -37 -38 -70 -35 -72 2 -2 27
19 54 47 39 39 57 51 76 48 l24 -3 -26 -67 -26 -66 -51 -7 c-28 -3 -59 -3 -70
1 -15 6 -17 4 -11 -12 18 -44 25 -72 31 -126 4 -32 10 -60 14 -62 4 -3 24 -1
43 5 20 5 64 10 98 12 l63 3 28 84 c15 47 28 88 28 92 1 4 -13 15 -31 24 -25
13 -38 14 -68 5 -21 -6 -40 -11 -44 -11 -6 0 45 72 84 118 25 30 25 39 -1 52
-16 9 -30 8 -60 -4 -45 -18 -47 -14 -18 34 l21 34 -22 18 c-12 10 -25 18 -29
18 -4 0 -13 -22 -20 -49z m121 -270 c-3 -31 -1 -30 -38 -24 -27 4 -30 8 -26
29 4 21 9 25 36 22 26 -3 31 -7 28 -27z m-114 -18 c3 -17 -2 -23 -16 -23 -11
0 -27 -3 -36 -6 -13 -5 -16 1 -16 26 0 29 2 31 33 28 24 -2 33 -8 35 -25z
m108 -49 c-3 -9 -6 -22 -6 -30 0 -9 -11 -14 -30 -14 -25 0 -30 4 -30 24 0 26
11 34 49 35 17 1 22 -3 17 -15z m-106 -28 c0 -23 -16 -36 -46 -36 -9 0 -14 11
-14 30 0 27 3 30 30 30 25 0 30 -4 30 -24z"/>
<path d="M535 743 c-77 -13 -155 -26 -173 -29 -27 -4 -32 -9 -26 -22 21 -46
10 -272 -18 -377 l-11 -41 -23 23 c-24 24 -44 30 -44 13 0 -22 31 -70 45 -70
12 0 10 -13 -10 -67 -13 -37 -23 -69 -21 -71 9 -8 67 101 85 160 20 66 43 213
56 350 l6 67 51 10 c28 6 105 16 172 22 154 14 157 15 127 40 -28 23 -38 23
-216 -8z"/>
<path d="M647 622 c-3 -27 -15 -75 -26 -108 l-21 -59 28 30 c19 21 43 33 80
41 57 12 61 8 42 -40 -5 -14 -7 -26 -5 -26 2 0 25 14 49 32 37 26 43 34 34 46
-23 27 -57 33 -108 18 l-48 -14 20 45 c19 42 19 46 2 64 -28 31 -41 23 -47
-29z"/>
<path d="M530 620 c0 -16 -7 -48 -16 -70 -16 -40 -21 -43 -103 -53 -29 -4 -11
-22 26 -27 l38 -5 3 -66 c3 -64 2 -67 -23 -71 -28 -6 -33 9 -14 43 7 15 7 24
-2 35 -20 24 -36 17 -31 -16 3 -18 -3 -40 -13 -56 -15 -23 -15 -28 -3 -41 11
-11 21 -11 43 -3 15 6 30 8 32 6 9 -9 -20 -81 -53 -133 -39 -62 -31 -69 17
-15 30 33 47 65 80 150 11 29 45 29 53 0 9 -35 25 -10 40 61 12 57 11 63 -5
71 -31 17 -36 11 -31 -40 l5 -50 -32 0 c-18 0 -30 4 -27 8 2 4 6 35 8 69 l3
62 42 11 c24 5 43 14 43 19 0 14 -37 23 -61 16 -19 -6 -20 -5 -8 17 6 12 21
36 31 51 16 22 17 31 8 42 -7 8 -21 15 -31 15 -14 0 -19 -7 -19 -30z"/>
<path d="M432 573 c26 -59 27 -61 38 -43 16 24 12 40 -16 65 -40 37 -45 31
-22 -22z"/>
<path d="M655 400 c7 -34 -10 -131 -32 -175 -8 -16 -34 -49 -56 -73 l-42 -43
32 12 c40 13 97 75 114 123 7 20 16 36 19 36 4 0 19 -27 35 -59 15 -33 38 -71
49 -86 20 -25 26 -27 64 -20 23 4 42 11 42 16 0 5 -4 9 -9 9 -18 0 -101 82
-136 136 -31 47 -36 61 -30 90 7 40 -7 64 -37 64 -17 0 -19 -5 -13 -30z"/>
<path d="M172 268 c29 -52 48 -60 48 -19 0 30 -29 61 -58 61 -10 0 -7 -11 10
-42z"/>
<path d="M80 281 c0 -25 32 -81 46 -81 34 0 -4 88 -38 90 -5 0 -8 -4 -8 -9z"/>
<path d="M16 235 c-19 -49 -15 -95 9 -95 17 0 25 25 28 79 2 63 -17 71 -37 16z"/>
</g>
</svg>
