<?xml version="1.0" standalone="no"?>
<!DOCTYPE svg PUBLIC "-//W3C//DTD SVG 20010904//EN"
 "http://www.w3.org/TR/2001/REC-SVG-20010904/DTD/svg10.dtd">
<svg version="1.0" xmlns="http://www.w3.org/2000/svg"
 width="90.000000pt" height="92.000000pt" viewBox="0 0 90.000000 92.000000"
 preserveAspectRatio="xMidYMid meet">
<metadata>
Created by potrace 1.16, written by Peter Selinger 2001-2019
</metadata>
<g transform="translate(0.000000,92.000000) scale(0.100000,-0.100000)"
fill="#000000" stroke="none">
<path d="M445 840 c-66 -10 -147 -19 -180 -19 l-60 -1 -1 -113 c0 -79 -7 -138
-23 -201 -25 -104 -92 -250 -145 -319 -42 -55 -41 -70 1 -37 102 79 166 224
219 496 3 19 14 22 96 31 51 5 94 9 96 8 2 -2 3 -31 4 -66 1 -78 5 -99 22 -99
24 0 37 159 14 161 -35 2 34 18 80 18 48 1 53 3 47 20 -4 13 4 30 23 53 33 38
32 52 -8 73 -34 18 -31 18 -185 -5z m121 -35 c4 -8 3 -26 0 -39 -5 -19 -14
-25 -48 -29 -24 -4 -90 -13 -148 -21 -57 -8 -105 -14 -107 -12 -1 1 0 19 4 39
7 43 8 44 141 62 132 18 152 18 158 0z"/>
<path d="M561 640 c-36 -45 -34 -47 32 -23 50 18 59 36 28 53 -26 14 -24 15
-60 -30z"/>
<path d="M310 630 c0 -6 16 -18 35 -27 27 -13 38 -14 47 -5 18 18 -9 42 -48
42 -19 0 -34 -5 -34 -10z"/>
<path d="M555 560 c-7 -12 73 -53 91 -46 20 8 17 34 -5 46 -25 13 -78 13 -86
0z"/>
<path d="M335 548 c-50 -13 -51 -14 -35 -33 18 -21 30 -19 70 15 37 31 30 34
-35 18z"/>
<path d="M454 466 c6 -39 5 -44 -16 -50 -31 -8 -88 -8 -88 1 0 3 7 14 15 24
14 15 14 18 0 33 -22 21 -45 20 -45 -2 0 -10 -16 -49 -35 -88 -19 -38 -35 -71
-35 -73 0 -3 16 10 35 29 32 31 40 34 105 36 l70 2 0 -38 0 -37 -140 -13 c-77
-8 -140 -17 -140 -21 0 -3 14 -12 31 -19 24 -11 47 -11 107 -2 43 7 92 12 110
12 l32 0 0 -119 c0 -66 4 -122 9 -126 15 -8 30 59 37 163 l7 92 133 0 c73 0
135 4 138 9 3 4 -4 17 -15 27 -22 20 -53 22 -176 9 l-83 -8 0 40 0 41 57 7
c31 4 68 11 82 17 26 9 26 10 6 24 -19 15 -36 15 -111 -1 -29 -7 -31 -5 -27
17 5 26 -9 42 -46 51 -22 5 -23 4 -17 -37z"/>
</g>
</svg>
