<?xml version="1.0" standalone="no"?>
<!DOCTYPE svg PUBLIC "-//W3C//DTD SVG 20010904//EN"
 "http://www.w3.org/TR/2001/REC-SVG-20010904/DTD/svg10.dtd">
<svg version="1.0" xmlns="http://www.w3.org/2000/svg"
 width="96.000000pt" height="68.000000pt" viewBox="0 0 96.000000 68.000000"
 preserveAspectRatio="xMidYMid meet">
<metadata>
Created by potrace 1.16, written by Peter Selinger 2001-2019
</metadata>
<g transform="translate(0.000000,68.000000) scale(0.100000,-0.100000)"
fill="#000000" stroke="none">
<path d="M536 353 c-3 -4 -6 -19 -6 -35 0 -27 -2 -28 -49 -28 -28 0 -53 -4
-56 -10 -4 -6 16 -10 52 -10 57 0 58 0 58 -29 0 -28 -3 -30 -50 -35 -27 -3
-81 -7 -118 -7 -73 -2 -96 -13 -47 -24 27 -6 96 -2 178 11 l32 5 0 -68 c0 -74
7 -113 21 -113 4 0 10 15 13 33 6 33 15 113 15 135 1 9 32 12 121 12 75 0 120
4 120 10 0 21 -49 28 -144 23 l-96 -6 0 30 c0 30 0 30 70 37 91 9 96 31 5 24
-57 -5 -65 -4 -65 12 0 17 -43 44 -54 33z"/>
</g>
</svg>
