<?xml version="1.0" standalone="no"?>
<!DOCTYPE svg PUBLIC "-//W3C//DTD SVG 20010904//EN"
 "http://www.w3.org/TR/2001/REC-SVG-20010904/DTD/svg10.dtd">
<svg version="1.0" xmlns="http://www.w3.org/2000/svg"
 width="96.000000pt" height="68.000000pt" viewBox="0 0 96.000000 68.000000"
 preserveAspectRatio="xMidYMid meet">
<metadata>
Created by potrace 1.16, written by Peter Selinger 2001-2019
</metadata>
<g transform="translate(0.000000,68.000000) scale(0.100000,-0.100000)"
fill="#000000" stroke="none">
<path d="M494 385 c-4 -8 -4 -47 -2 -86 5 -90 25 -111 101 -107 68 4 77 28 10
28 -27 0 -54 5 -61 12 -14 14 -16 80 -3 125 7 25 6 33 -6 37 -23 9 -33 7 -39
-9z"/>
<path d="M368 319 c-4 -52 -11 -79 -28 -101 -26 -36 -20 -47 14 -24 35 22 52
60 59 128 4 45 2 58 -10 62 -28 11 -30 6 -35 -65z"/>
</g>
</svg>
