<?xml version="1.0" standalone="no"?>
<!DOCTYPE svg PUBLIC "-//W3C//DTD SVG 20010904//EN"
 "http://www.w3.org/TR/2001/REC-SVG-20010904/DTD/svg10.dtd">
<svg version="1.0" xmlns="http://www.w3.org/2000/svg"
 width="96.000000pt" height="68.000000pt" viewBox="0 0 96.000000 68.000000"
 preserveAspectRatio="xMidYMid meet">
<metadata>
Created by potrace 1.16, written by Peter Selinger 2001-2019
</metadata>
<g transform="translate(0.000000,68.000000) scale(0.100000,-0.100000)"
fill="#000000" stroke="none">
<path d="M551 612 c-6 -21 -24 -59 -41 -85 -35 -56 -25 -60 29 -12 34 31 45
35 97 36 77 2 116 11 122 28 4 11 -6 13 -50 8 -30 -4 -69 -10 -87 -13 -31 -7
-33 -6 -22 14 16 30 14 37 -14 50 -23 11 -25 9 -34 -26z"/>
<path d="M287 568 c-14 -29 -38 -68 -53 -85 -36 -45 -17 -41 37 5 39 34 52 40
111 46 75 7 98 14 98 27 0 11 -44 11 -95 -1 -47 -11 -54 -7 -32 18 13 14 14
21 5 30 -24 24 -44 12 -71 -40z"/>
<path d="M630 511 c10 -20 48 -51 62 -51 5 0 8 11 8 24 0 18 -8 27 -31 35 -44
15 -51 14 -39 -8z"/>
<path d="M352 488 c18 -27 58 -37 58 -14 0 17 -29 36 -56 36 -15 0 -15 -2 -2
-22z"/>
</g>
</svg>
