<?xml version="1.0" standalone="no"?>
<!DOCTYPE svg PUBLIC "-//W3C//DTD SVG 20010904//EN"
 "http://www.w3.org/TR/2001/REC-SVG-20010904/DTD/svg10.dtd">
<svg version="1.0" xmlns="http://www.w3.org/2000/svg"
 width="96.000000pt" height="68.000000pt" viewBox="0 0 96.000000 68.000000"
 preserveAspectRatio="xMidYMid meet">
<metadata>
Created by potrace 1.16, written by Peter Selinger 2001-2019
</metadata>
<g transform="translate(0.000000,68.000000) scale(0.100000,-0.100000)"
fill="#000000" stroke="none">
<path d="M565 564 c-111 -15 -195 -17 -195 -4 0 6 -3 10 -8 10 -9 0 -52 -90
-52 -108 0 -25 35 -7 49 24 12 28 19 31 85 42 39 7 102 15 140 19 l68 6 -7
-32 -7 -32 39 7 c21 4 47 11 58 17 18 9 17 12 -15 38 -19 16 -41 28 -50 28 -8
-1 -55 -8 -105 -15z"/>
<path d="M170 552 c0 -15 66 -72 82 -72 43 0 32 53 -14 69 -37 13 -68 14 -68
3z"/>
<path d="M540 472 c0 -35 5 -50 19 -59 24 -15 104 -27 130 -18 39 12 22 25
-33 25 -67 0 -90 18 -75 57 11 29 7 36 -21 40 -18 3 -20 -3 -20 -45z"/>
<path d="M412 465 c-7 -18 -27 -46 -44 -60 -17 -14 -29 -28 -26 -30 9 -9 66
34 96 73 27 33 29 41 16 46 -26 10 -29 8 -42 -29z"/>
<path d="M100 421 c0 -5 19 -25 42 -45 45 -39 68 -35 68 9 0 18 -8 25 -44 34
-54 13 -66 14 -66 2z"/>
<path d="M477 394 c-3 -4 -4 -19 0 -34 6 -34 -4 -38 -100 -42 -40 -1 -66 -7
-64 -13 3 -6 34 -9 76 -8 39 1 71 -2 71 -6 0 -14 -108 -109 -156 -137 -25 -15
-43 -29 -40 -31 11 -11 142 64 178 101 l38 38 0 -100 c0 -71 4 -103 13 -111 8
-6 17 -8 20 -4 4 3 7 57 7 120 0 62 3 113 8 113 4 0 41 -34 82 -76 41 -42 86
-80 99 -85 24 -10 121 -2 121 10 0 3 -27 16 -59 29 -33 13 -88 42 -122 65 -34
23 -73 49 -85 57 -13 8 -24 18 -24 23 0 4 45 7 100 7 102 0 122 8 71 29 -20 9
-47 10 -97 3 -38 -5 -72 -8 -76 -5 -5 2 -8 15 -8 28 0 27 -35 46 -53 29z"/>
<path d="M226 309 c-16 -24 -52 -65 -80 -91 l-50 -47 17 -35 c9 -20 23 -36 30
-36 14 0 121 222 115 241 -2 6 -17 -8 -32 -32z"/>
</g>
</svg>
