<?xml version="1.0" standalone="no"?>
<!DOCTYPE svg PUBLIC "-//W3C//DTD SVG 20010904//EN"
 "http://www.w3.org/TR/2001/REC-SVG-20010904/DTD/svg10.dtd">
<svg version="1.0" xmlns="http://www.w3.org/2000/svg"
 width="90.000000pt" height="92.000000pt" viewBox="0 0 90.000000 92.000000"
 preserveAspectRatio="xMidYMid meet">
<metadata>
Created by potrace 1.16, written by Peter Selinger 2001-2019
</metadata>
<g transform="translate(0.000000,92.000000) scale(0.100000,-0.100000)"
fill="#000000" stroke="none">
<path d="M557 781 c3 -22 0 -69 -7 -105 l-12 -64 -84 -13 c-46 -7 -84 -16 -84
-20 0 -20 45 -31 96 -24 l54 6 -20 -53 c-25 -62 -85 -167 -128 -221 l-30 -37
-7 103 c-6 93 -2 335 6 381 3 11 -6 26 -21 37 -23 18 -28 18 -75 3 -33 -10
-66 -13 -98 -8 l-48 6 8 -29 c4 -15 8 -100 8 -188 -1 -185 -19 -264 -81 -355
-19 -28 -34 -54 -32 -56 2 -2 21 10 41 27 42 34 80 102 98 173 13 52 12 51 40
34 18 -12 24 -8 65 37 l45 50 -6 -119 c-4 -65 -9 -125 -12 -132 -6 -16 -31
-18 -67 -4 -38 14 -32 0 25 -55 l50 -50 25 28 c13 15 24 39 24 52 0 16 23 47
74 97 57 57 82 92 114 158 22 47 43 97 47 112 6 25 10 26 128 38 67 6 124 14
127 17 3 2 -6 14 -20 25 -26 21 -42 21 -167 2 l-41 -6 17 53 c34 104 34 107 2
124 -50 25 -60 20 -54 -24z m-275 -113 c3 -40 4 -74 4 -75 -1 -1 -27 11 -58
25 -55 26 -58 29 -58 64 0 43 17 57 71 58 l37 0 4 -72z m-11 -120 c19 12 20
11 17 -30 -3 -40 -6 -45 -48 -65 -88 -42 -85 -44 -82 50 4 115 6 117 53 71 35
-34 42 -37 60 -26z"/>
<path d="M610 465 c0 -36 -123 -232 -163 -260 -18 -13 -18 -14 -1 -40 20 -30
9 -31 163 14 58 17 110 31 118 31 7 0 21 -17 32 -38 11 -21 27 -44 35 -51 13
-11 17 -9 27 11 18 40 -4 99 -55 146 -83 77 -109 75 -61 -3 l25 -40 -102 -17
c-56 -10 -104 -15 -107 -13 -5 5 75 128 121 188 29 36 29 38 14 62 -18 28 -46
33 -46 10z"/>
</g>
</svg>
