<?xml version="1.0" standalone="no"?>
<!DOCTYPE svg PUBLIC "-//W3C//DTD SVG 20010904//EN"
 "http://www.w3.org/TR/2001/REC-SVG-20010904/DTD/svg10.dtd">
<svg version="1.0" xmlns="http://www.w3.org/2000/svg"
 width="96.000000pt" height="68.000000pt" viewBox="0 0 96.000000 68.000000"
 preserveAspectRatio="xMidYMid meet">
<metadata>
Created by potrace 1.16, written by Peter Selinger 2001-2019
</metadata>
<g transform="translate(0.000000,68.000000) scale(0.100000,-0.100000)"
fill="#000000" stroke="none">
<path d="M325 549 c-16 -6 -50 -8 -75 -5 l-45 4 0 -141 c0 -134 -1 -145 -27
-197 -15 -30 -35 -65 -44 -78 -27 -37 1 -25 38 16 20 22 43 60 53 85 16 41 20
45 37 36 17 -9 26 -6 52 20 18 17 36 31 40 31 10 0 3 -166 -7 -177 -4 -3 -23
-1 -44 5 l-36 11 38 -39 c46 -47 59 -49 81 -15 13 20 17 58 18 207 1 101 6
192 10 204 6 16 2 23 -19 32 -30 14 -29 14 -70 1z m33 -78 c3 -48 1 -53 -15
-46 -10 4 -33 13 -50 19 -43 16 -47 21 -39 50 7 27 25 35 71 33 29 -2 30 -4
33 -56z m-22 -81 c19 0 24 -5 24 -25 0 -21 -9 -30 -42 -45 -60 -27 -82 -26
-74 3 3 12 6 44 6 70 l0 49 31 -26 c17 -14 41 -26 55 -26z"/>
</g>
</svg>
