<?xml version="1.0" standalone="no"?>
<!DOCTYPE svg PUBLIC "-//W3C//DTD SVG 20010904//EN"
 "http://www.w3.org/TR/2001/REC-SVG-20010904/DTD/svg10.dtd">
<svg version="1.0" xmlns="http://www.w3.org/2000/svg"
 width="96.000000pt" height="68.000000pt" viewBox="0 0 96.000000 68.000000"
 preserveAspectRatio="xMidYMid meet">
<metadata>
Created by potrace 1.16, written by Peter Selinger 2001-2019
</metadata>
<g transform="translate(0.000000,68.000000) scale(0.100000,-0.100000)"
fill="#000000" stroke="none">
<path d="M440 615 c-52 -7 -123 -14 -157 -14 -57 -1 -78 -11 -54 -25 4 -3 14
-27 21 -53 7 -27 14 -56 17 -65 2 -10 11 -18 20 -18 13 0 15 10 10 64 l-6 64
47 5 c26 4 87 9 136 13 l89 7 -7 -44 c-14 -82 -13 -94 9 -94 15 0 29 18 54 68
32 62 33 69 19 83 -22 22 -85 25 -198 9z"/>
<path d="M393 548 c-81 -18 -35 -44 49 -28 63 12 78 21 52 31 -25 10 -49 9
-101 -3z"/>
<path d="M392 491 c-53 -10 -36 -26 27 -25 71 1 103 11 81 24 -16 11 -57 11
-108 1z"/>
<path d="M510 434 c-58 -8 -160 -15 -227 -17 -67 -1 -115 -5 -108 -10 8 -4 23
-33 35 -64 27 -72 29 -76 44 -64 17 14 328 33 340 21 23 -23 43 -8 73 55 44
93 24 103 -157 79z m110 -45 c0 -43 -16 -56 -75 -58 -42 -1 -55 2 -55 13 0 8
5 18 10 21 6 3 10 15 10 26 0 16 7 19 55 19 49 0 55 -2 55 -21z m-155 -19 c-6
-44 -12 -50 -50 -50 -35 0 -45 13 -45 56 0 22 4 24 49 24 49 0 50 0 46 -30z
m-127 -5 c21 -46 16 -55 -33 -55 -40 0 -47 3 -55 26 -18 46 -13 54 33 54 37 0
46 -4 55 -25z"/>
<path d="M450 254 c-36 -7 -85 -13 -110 -14 -68 -1 -80 -14 -30 -34 23 -9 58
-27 77 -40 l35 -24 -40 -26 c-22 -14 -71 -35 -109 -46 -117 -37 -123 -40 -62
-34 63 6 123 22 196 54 l50 21 74 -47 c69 -45 78 -48 134 -46 33 0 78 4 100 8
l40 7 -45 13 c-25 7 -76 21 -115 32 -38 11 -89 29 -113 40 l-44 19 56 49 c45
38 54 51 44 60 -21 20 -69 23 -138 8z m60 -27 c0 -7 -13 -26 -29 -41 l-28 -27
-47 22 c-25 13 -46 26 -46 30 0 6 86 25 128 28 12 0 22 -5 22 -12z"/>
</g>
</svg>
