<?xml version="1.0" standalone="no"?>
<!DOCTYPE svg PUBLIC "-//W3C//DTD SVG 20010904//EN"
 "http://www.w3.org/TR/2001/REC-SVG-20010904/DTD/svg10.dtd">
<svg version="1.0" xmlns="http://www.w3.org/2000/svg"
 width="96.000000pt" height="68.000000pt" viewBox="0 0 96.000000 68.000000"
 preserveAspectRatio="xMidYMid meet">
<metadata>
Created by potrace 1.16, written by Peter Selinger 2001-2019
</metadata>
<g transform="translate(0.000000,68.000000) scale(0.100000,-0.100000)"
fill="#000000" stroke="none">
<path d="M425 253 c-49 -8 -105 -16 -124 -19 l-35 -6 60 -30 c32 -17 67 -36
77 -43 16 -11 16 -13 0 -28 -24 -21 -94 -50 -177 -72 -38 -11 -64 -21 -57 -23
24 -8 147 20 217 49 l72 30 73 -48 c72 -46 76 -47 144 -45 39 1 84 6 100 11
l30 8 -35 7 c-77 17 -217 60 -248 76 l-33 18 56 48 c44 38 53 51 43 60 -22 20
-69 22 -163 7z m85 -24 c0 -5 -13 -24 -28 -40 l-28 -30 -47 22 c-26 13 -47 26
-47 30 0 7 84 26 128 28 12 0 22 -4 22 -10z"/>
</g>
</svg>
