<?xml version="1.0" standalone="no"?>
<!DOCTYPE svg PUBLIC "-//W3C//DTD SVG 20010904//EN"
 "http://www.w3.org/TR/2001/REC-SVG-20010904/DTD/svg10.dtd">
<svg version="1.0" xmlns="http://www.w3.org/2000/svg"
 width="96.000000pt" height="68.000000pt" viewBox="0 0 96.000000 68.000000"
 preserveAspectRatio="xMidYMid meet">
<metadata>
Created by potrace 1.16, written by Peter Selinger 2001-2019
</metadata>
<g transform="translate(0.000000,68.000000) scale(0.100000,-0.100000)"
fill="#000000" stroke="none">
<path d="M287 606 c4 -21 0 -24 -37 -30 -48 -8 -45 -26 6 -26 23 0 34 -5 34
-15 0 -13 -25 -21 -93 -27 -45 -5 -26 -23 23 -22 116 2 230 17 230 30 0 10
-16 14 -56 14 -40 0 -55 3 -52 13 3 6 17 14 33 17 39 7 42 27 6 35 -16 3 -32
13 -35 21 -3 8 -18 14 -34 14 -25 0 -29 -3 -25 -24z"/>
<path d="M645 591 c7 -34 4 -36 -100 -47 -88 -9 -51 -22 42 -14 35 3 65 5 66
4 1 -1 0 -27 -1 -58 -4 -52 -6 -56 -28 -56 -31 0 -30 -10 6 -38 48 -37 60 -23
60 74 l0 84 55 0 c30 0 55 4 55 9 0 13 -27 21 -72 21 -31 0 -39 3 -34 15 3 8
-3 19 -14 25 -33 17 -42 12 -35 -19z"/>
<path d="M520 491 c0 -17 33 -51 51 -51 22 0 24 10 7 32 -14 16 -58 31 -58 19z"/>
<path d="M290 461 c0 -14 -11 -22 -37 -29 l-38 -10 43 -1 c38 -1 42 -4 42 -25
0 -23 -4 -25 -70 -32 -73 -7 -89 -17 -43 -28 28 -8 233 43 233 57 0 7 -24 4
-72 -10 -13 -3 -18 2 -18 17 0 21 4 24 54 35 23 5 27 8 16 15 -8 5 -24 7 -36
4 -14 -4 -23 0 -27 10 -9 23 -47 21 -47 -3z"/>
<path d="M456 412 c-3 -3 -6 -13 -6 -21 0 -29 -37 -51 -87 -51 -44 0 -45 -1
-30 -18 9 -10 22 -35 29 -57 12 -36 17 -40 50 -43 34 -3 58 -25 39 -37 -5 -3
-43 -5 -84 -6 l-75 -1 5 -57 c9 -90 29 -98 38 -16 4 27 7 50 8 51 1 1 27 4 57
6 l55 3 3 -82 c4 -124 29 -108 34 22 l3 60 71 3 70 3 -5 -43 c-5 -36 -10 -43
-29 -42 -27 1 -29 -17 -4 -39 40 -36 76 -4 85 74 9 77 0 84 -103 75 -77 -6
-80 -6 -80 15 0 20 4 21 44 16 51 -7 55 -4 81 66 24 64 15 70 -95 63 -80 -5
-83 -5 -57 10 15 8 27 21 27 28 0 14 -35 28 -44 18z m124 -93 c0 -12 -4 -17
-11 -14 -5 4 -49 1 -95 -5 -62 -9 -89 -9 -97 -1 -6 6 -8 14 -4 17 7 8 103 21
165 23 36 1 42 -2 42 -20z m-7 -48 c-4 -15 -18 -19 -84 -25 -84 -7 -99 -4 -99
19 0 10 18 15 68 18 37 2 79 4 94 5 21 2 25 -2 21 -17z"/>
</g>
</svg>
