<?xml version="1.0" standalone="no"?>
<!DOCTYPE svg PUBLIC "-//W3C//DTD SVG 20010904//EN"
 "http://www.w3.org/TR/2001/REC-SVG-20010904/DTD/svg10.dtd">
<svg version="1.0" xmlns="http://www.w3.org/2000/svg"
 width="96.000000pt" height="68.000000pt" viewBox="0 0 96.000000 68.000000"
 preserveAspectRatio="xMidYMid meet">
<metadata>
Created by potrace 1.16, written by Peter Selinger 2001-2019
</metadata>
<g transform="translate(0.000000,68.000000) scale(0.100000,-0.100000)"
fill="#000000" stroke="none">
<path d="M460 203 c14 -15 30 -31 35 -35 17 -13 45 -9 45 7 0 18 -34 40 -75
50 l-30 7 25 -29z"/>
<path d="M700 213 c0 -5 18 -29 41 -55 41 -49 65 -59 75 -34 10 25 -15 55 -62
76 -52 23 -54 23 -54 13z"/>
<path d="M338 165 c34 -92 97 -132 228 -143 43 -3 77 1 113 13 78 26 78 29
-18 91 -35 22 -51 29 -47 18 20 -52 18 -63 -9 -70 -15 -4 -56 -4 -92 -1 -76 6
-106 24 -143 87 -36 61 -54 64 -32 5z"/>
<path d="M212 156 c-39 -54 -42 -86 -8 -86 37 0 70 82 48 118 -6 9 -18 -1 -40
-32z"/>
</g>
</svg>
