<?xml version="1.0" standalone="no"?>
<!DOCTYPE svg PUBLIC "-//W3C//DTD SVG 20010904//EN"
 "http://www.w3.org/TR/2001/REC-SVG-20010904/DTD/svg10.dtd">
<svg version="1.0" xmlns="http://www.w3.org/2000/svg"
 width="96.000000pt" height="68.000000pt" viewBox="0 0 96.000000 68.000000"
 preserveAspectRatio="xMidYMid meet">
<metadata>
Created by potrace 1.16, written by Peter Selinger 2001-2019
</metadata>
<g transform="translate(0.000000,68.000000) scale(0.100000,-0.100000)"
fill="#000000" stroke="none">
<path d="M656 443 c-3 -3 -1 -12 6 -20 9 -11 8 -13 -3 -11 -10 2 -13 -5 -11
-21 1 -14 -1 -22 -4 -18 -7 7 -44 -35 -44 -49 0 -5 7 2 16 14 11 16 22 21 37
17 12 -4 18 -3 12 2 -13 10 -16 45 -3 37 10 -6 38 13 38 27 0 11 -36 30 -44
22z"/>
<path d="M685 340 c-8 -13 38 -41 48 -31 5 5 7 14 3 19 -8 13 -45 22 -51 12z
m40 -20 c3 -6 -1 -7 -9 -4 -18 7 -21 14 -7 14 6 0 13 -4 16 -10z"/>
</g>
</svg>
