<?xml version="1.0" standalone="no"?>
<!DOCTYPE svg PUBLIC "-//W3C//DTD SVG 20010904//EN"
 "http://www.w3.org/TR/2001/REC-SVG-20010904/DTD/svg10.dtd">
<svg version="1.0" xmlns="http://www.w3.org/2000/svg"
 width="96.000000pt" height="68.000000pt" viewBox="0 0 96.000000 68.000000"
 preserveAspectRatio="xMidYMid meet">
<metadata>
Created by potrace 1.16, written by Peter Selinger 2001-2019
</metadata>
<g transform="translate(0.000000,68.000000) scale(0.100000,-0.100000)"
fill="#000000" stroke="none">
<path d="M675 590 c-16 -4 -55 -8 -87 -9 l-56 -1 5 -82 c6 -103 8 -112 31
-103 9 4 42 9 74 12 47 3 57 1 60 -13 7 -39 -7 -319 -17 -317 -6 1 -24 5 -40
9 l-30 7 39 -36 c46 -43 60 -45 80 -15 11 18 15 77 18 280 3 235 2 257 -14
267 -19 12 -20 12 -63 1z m25 -55 l0 -35 -59 0 c-52 0 -61 3 -66 21 -11 33 12
44 93 48 30 1 32 -1 32 -34z m-2 -74 c-3 -24 -7 -26 -60 -29 -56 -3 -58 -2
-58 22 0 21 5 25 38 28 83 7 83 8 80 -21z"/>
<path d="M310 564 c-25 -7 -64 -13 -88 -13 l-44 -1 9 -32 c13 -51 9 -318 -5
-359 -19 -54 13 -123 33 -72 3 10 9 68 11 128 7 152 7 153 51 161 23 4 43 2
56 -5 11 -7 23 -9 27 -4 7 7 50 160 50 177 0 3 -12 11 -27 19 -23 11 -37 11
-73 1z m30 -49 c0 -15 -6 -25 -14 -25 -7 0 -28 -3 -46 -6 -29 -6 -31 -5 -28
17 2 17 11 26 33 30 51 11 55 10 55 -16z m0 -67 c0 -24 -15 -35 -52 -42 -36
-6 -38 -5 -38 18 0 26 13 33 63 35 16 1 27 -4 27 -11z"/>
<path d="M430 395 c0 -3 5 -15 10 -26 8 -14 7 -19 -2 -21 -7 0 -17 -2 -23 -3
-5 -2 -29 -3 -52 -4 -58 -1 -55 -21 2 -21 56 0 59 -18 10 -56 -32 -24 -42 -51
-19 -48 5 1 26 5 47 8 38 7 53 -9 20 -21 -10 -3 -27 -14 -38 -23 -11 -10 -38
-27 -60 -38 -28 -15 -34 -21 -20 -22 46 0 235 126 235 158 0 20 -31 13 -56
-13 -18 -19 -33 -25 -66 -25 l-43 1 30 24 c17 14 34 25 38 25 4 0 7 8 5 18 -2
13 5 18 27 20 82 7 115 14 109 24 -4 6 -26 8 -55 5 -44 -5 -48 -4 -51 16 -2
14 -11 23 -25 25 -13 2 -23 1 -23 -3z"/>
<path d="M533 211 c-9 -15 -44 -49 -79 -76 -35 -27 -61 -51 -59 -53 5 -5 84
37 108 57 16 14 20 12 41 -12 13 -15 28 -27 35 -27 21 0 11 39 -14 53 l-26 13
26 24 c30 29 31 36 4 43 -15 4 -25 -2 -36 -22z"/>
</g>
</svg>
