<?xml version="1.0" standalone="no"?>
<!DOCTYPE svg PUBLIC "-//W3C//DTD SVG 20010904//EN"
 "http://www.w3.org/TR/2001/REC-SVG-20010904/DTD/svg10.dtd">
<svg version="1.0" xmlns="http://www.w3.org/2000/svg"
 width="96.000000pt" height="68.000000pt" viewBox="0 0 96.000000 68.000000"
 preserveAspectRatio="xMidYMid meet">
<metadata>
Created by potrace 1.16, written by Peter Selinger 2001-2019
</metadata>
<g transform="translate(0.000000,68.000000) scale(0.100000,-0.100000)"
fill="#000000" stroke="none">
<path d="M555 613 c-11 -2 -78 -9 -149 -16 -131 -12 -167 -28 -86 -37 38 -4
46 -9 54 -32 5 -15 7 -30 4 -33 -3 -3 -39 -6 -79 -7 -57 0 -70 -3 -57 -12 8
-6 24 -35 34 -64 12 -34 23 -51 32 -47 7 2 54 7 105 10 50 3 114 8 140 11 30
3 54 0 63 -7 11 -9 17 -9 29 1 15 12 79 121 73 124 -28 17 -66 25 -104 19 -46
-6 -46 -6 -42 23 3 25 8 30 41 35 45 7 57 17 37 29 -15 10 -57 11 -95 3z m-35
-72 c0 -24 -5 -29 -31 -35 -59 -12 -69 -8 -69 23 0 32 10 38 68 40 29 1 32 -2
32 -28z m115 -53 c3 -7 1 -26 -3 -43 -7 -27 -13 -30 -50 -33 -46 -3 -46 -3
-31 51 9 34 13 37 45 37 19 0 37 -6 39 -12z m-125 -38 c0 -34 -4 -41 -24 -46
-45 -11 -61 -2 -64 38 -3 38 3 43 66 47 19 1 22 -4 22 -39z m-121 -37 c1 -20
-4 -23 -33 -23 -37 0 -54 15 -58 51 -3 21 2 25 37 29 43 5 52 -4 54 -57z"/>
<path d="M465 334 c-11 -2 -47 -6 -80 -9 -48 -6 -56 -9 -41 -17 18 -10 160 -5
227 9 71 14 -24 30 -106 17z"/>
<path d="M680 277 c-5 -5 -422 -39 -478 -39 -34 -1 -36 -15 -3 -26 16 -6 46
-7 72 -2 24 5 71 10 104 12 l60 3 0 -65 0 -65 -33 -5 -32 -5 25 -27 c31 -33
46 -35 71 -7 14 16 20 40 23 100 l3 79 132 0 c134 0 169 7 144 27 -15 13 -81
27 -88 20z"/>
<path d="M248 127 c-26 -28 -46 -52 -44 -55 6 -5 65 26 104 55 26 20 31 28 21
39 -18 22 -31 16 -81 -39z"/>
<path d="M629 130 c53 -52 91 -65 91 -32 0 24 -25 47 -73 67 -67 28 -72 18
-18 -35z"/>
</g>
</svg>
