<?xml version="1.0" standalone="no"?>
<!DOCTYPE svg PUBLIC "-//W3C//DTD SVG 20010904//EN"
 "http://www.w3.org/TR/2001/REC-SVG-20010904/DTD/svg10.dtd">
<svg version="1.0" xmlns="http://www.w3.org/2000/svg"
 width="96.000000pt" height="68.000000pt" viewBox="0 0 96.000000 68.000000"
 preserveAspectRatio="xMidYMid meet">
<metadata>
Created by potrace 1.16, written by Peter Selinger 2001-2019
</metadata>
<g transform="translate(0.000000,68.000000) scale(0.100000,-0.100000)"
fill="#000000" stroke="none">
<path d="M501 566 c24 -42 24 -42 -101 -52 -47 -4 -94 -10 -105 -14 -18 -7
-19 -9 -2 -15 13 -5 17 -19 17 -55 0 -114 -40 -233 -111 -326 -59 -79 -40 -85
29 -9 60 65 86 129 115 275 11 58 23 108 26 112 7 8 133 22 296 34 81 6 87 8
70 20 -19 14 -81 13 -152 -2 -18 -3 -23 0 -23 15 0 22 -35 51 -62 51 -16 0
-16 -3 3 -34z"/>
<path d="M150 422 c0 -12 58 -72 69 -72 15 0 23 18 16 39 -7 24 -85 54 -85 33z"/>
<path d="M210 300 c-14 -10 -44 -24 -67 -31 -24 -6 -43 -15 -43 -18 0 -13 24
-31 39 -31 17 0 111 79 111 93 0 12 -13 8 -40 -13z"/>
</g>
</svg>
