<?xml version="1.0" standalone="no"?>
<!DOCTYPE svg PUBLIC "-//W3C//DTD SVG 20010904//EN"
 "http://www.w3.org/TR/2001/REC-SVG-20010904/DTD/svg10.dtd">
<svg version="1.0" xmlns="http://www.w3.org/2000/svg"
 width="96.000000pt" height="68.000000pt" viewBox="0 0 96.000000 68.000000"
 preserveAspectRatio="xMidYMid meet">
<metadata>
Created by potrace 1.16, written by Peter Selinger 2001-2019
</metadata>
<g transform="translate(0.000000,68.000000) scale(0.100000,-0.100000)"
fill="#000000" stroke="none">
<path d="M294 178 c-4 -14 -16 -18 -47 -18 -23 0 -52 -3 -64 -6 -18 -5 -23 -2
-23 14 0 15 -6 20 -20 19 -28 -2 -35 -33 -14 -64 14 -23 18 -24 28 -11 6 8 32
17 59 20 42 5 50 3 66 -18 10 -13 24 -24 30 -24 16 0 43 67 36 89 -7 22 -43
22 -51 -1z"/>
</g>
</svg>
