<?xml version="1.0" standalone="no"?>
<!DOCTYPE svg PUBLIC "-//W3C//DTD SVG 20010904//EN"
 "http://www.w3.org/TR/2001/REC-SVG-20010904/DTD/svg10.dtd">
<svg version="1.0" xmlns="http://www.w3.org/2000/svg"
 width="96.000000pt" height="68.000000pt" viewBox="0 0 96.000000 68.000000"
 preserveAspectRatio="xMidYMid meet">
<metadata>
Created by potrace 1.16, written by Peter Selinger 2001-2019
</metadata>
<g transform="translate(0.000000,68.000000) scale(0.100000,-0.100000)"
fill="#000000" stroke="none">
<path d="M235 490 c-11 -5 -43 -9 -72 -9 l-52 -1 11 -31 c7 -20 9 -76 5 -150
-5 -111 -4 -118 14 -116 12 1 19 9 19 22 0 34 13 42 77 48 l62 5 3 -31 c2 -20
8 -32 18 -32 22 0 33 274 11 293 -17 14 -66 15 -96 2z m60 -68 l0 -43 -62 -4
-63 -4 0 44 c0 49 7 54 80 52 l45 -2 0 -43z m3 -103 c-3 -41 -4 -41 -43 -43
-22 -2 -50 -6 -62 -10 -22 -7 -23 -5 -23 38 l0 45 48 4 c26 2 55 4 65 5 15 2
18 -4 15 -39z"/>
</g>
</svg>
