<?xml version="1.0" standalone="no"?>
<!DOCTYPE svg PUBLIC "-//W3C//DTD SVG 20010904//EN"
 "http://www.w3.org/TR/2001/REC-SVG-20010904/DTD/svg10.dtd">
<svg version="1.0" xmlns="http://www.w3.org/2000/svg"
 width="90.000000pt" height="92.000000pt" viewBox="0 0 90.000000 92.000000"
 preserveAspectRatio="xMidYMid meet">
<metadata>
Created by potrace 1.16, written by Peter Selinger 2001-2019
</metadata>
<g transform="translate(0.000000,92.000000) scale(0.100000,-0.100000)"
fill="#000000" stroke="none">
<path d="M660 794 c-39 -17 -67 -23 -95 -20 l-40 5 3 -367 c2 -202 7 -371 12
-376 17 -18 29 109 35 374 3 151 8 287 11 302 4 21 14 30 42 38 20 5 47 10 60
10 26 0 26 6 -9 -108 l-19 -63 24 -32 c49 -65 72 -151 43 -163 -8 -3 -33 0
-58 5 -24 5 -45 9 -46 7 -1 -1 24 -21 57 -45 33 -23 60 -46 60 -51 0 -18 29
-10 44 12 23 33 21 122 -5 176 -12 24 -39 56 -60 72 l-39 27 60 87 c33 47 60
90 60 94 0 9 -65 43 -78 41 -4 -1 -32 -12 -62 -25z"/>
<path d="M290 789 c-52 -10 -112 -18 -132 -18 -36 -1 -64 -21 -40 -29 18 -6
14 -71 -9 -132 -11 -30 -22 -62 -25 -71 -3 -9 2 -23 10 -32 14 -14 20 -14 50
-2 41 17 146 31 146 19 0 -28 -96 -162 -170 -237 -87 -87 -96 -106 -31 -66 67
41 132 103 179 172 l47 69 3 -43 c2 -24 1 -91 -3 -147 -7 -100 -8 -104 -29
-98 -11 3 -39 9 -61 12 l-40 7 40 -32 c22 -18 50 -43 63 -57 29 -31 35 -30 58
4 17 24 19 46 16 230 l-2 203 44 -6 c51 -8 86 0 86 20 0 23 -40 38 -87 32
l-45 -5 4 86 4 87 43 7 c54 9 61 16 37 34 -24 17 -35 16 -156 -7z m14 -81 c3
-18 7 -55 8 -82 l3 -50 -78 -14 c-43 -8 -81 -11 -84 -8 -9 9 30 157 45 173 7
7 33 13 57 13 42 0 44 -2 49 -32z"/>
</g>
</svg>
