<?xml version="1.0" standalone="no"?>
<!DOCTYPE svg PUBLIC "-//W3C//DTD SVG 20010904//EN"
 "http://www.w3.org/TR/2001/REC-SVG-20010904/DTD/svg10.dtd">
<svg version="1.0" xmlns="http://www.w3.org/2000/svg"
 width="96.000000pt" height="68.000000pt" viewBox="0 0 96.000000 68.000000"
 preserveAspectRatio="xMidYMid meet">
<metadata>
Created by potrace 1.16, written by Peter Selinger 2001-2019
</metadata>
<g transform="translate(0.000000,68.000000) scale(0.100000,-0.100000)"
fill="#000000" stroke="none">
<path d="M175 483 c15 -40 17 -74 6 -124 -9 -43 -9 -55 2 -67 12 -11 22 -6 70
35 30 26 54 49 53 50 -1 2 -21 -5 -44 -14 -23 -9 -44 -14 -47 -11 -2 2 1 32 7
67 13 67 7 80 -36 81 -13 0 -16 -5 -11 -17z"/>
</g>
</svg>
