<?xml version="1.0" standalone="no"?>
<!DOCTYPE svg PUBLIC "-//W3C//DTD SVG 20010904//EN"
 "http://www.w3.org/TR/2001/REC-SVG-20010904/DTD/svg10.dtd">
<svg version="1.0" xmlns="http://www.w3.org/2000/svg"
 width="96.000000pt" height="68.000000pt" viewBox="0 0 96.000000 68.000000"
 preserveAspectRatio="xMidYMid meet">
<metadata>
Created by potrace 1.16, written by Peter Selinger 2001-2019
</metadata>
<g transform="translate(0.000000,68.000000) scale(0.100000,-0.100000)"
fill="#000000" stroke="none">
<path d="M224 587 c-3 -8 0 -34 5 -58 6 -24 11 -58 11 -76 0 -31 -1 -31 -60
-38 -77 -9 -75 -29 3 -33 l57 -3 0 -50 0 -50 -65 -30 c-35 -16 -71 -29 -80
-29 -20 0 -19 -13 3 -33 24 -22 50 -21 90 3 18 11 35 20 37 20 3 0 5 -25 5
-56 l0 -57 -40 6 c-22 3 -40 2 -40 -1 0 -12 82 -82 96 -82 24 0 34 38 34 133
l0 94 43 29 c68 47 79 74 20 48 -21 -9 -44 -18 -50 -21 -9 -3 -13 4 -12 23 3
53 9 63 50 74 21 6 39 15 39 20 0 12 -57 23 -71 14 -12 -7 -10 27 6 103 7 31
5 34 -28 48 -44 18 -46 18 -53 2z"/>
<path d="M580 519 c-36 -4 -90 -11 -120 -14 -77 -8 -93 -14 -81 -29 6 -7 10
-85 10 -191 1 -209 2 -213 87 -240 49 -15 77 -17 188 -11 151 7 186 13 186 31
0 20 -39 25 -110 15 -36 -5 -113 -10 -171 -10 -145 0 -143 -2 -136 172 2 73
10 156 16 184 l12 51 113 12 c62 6 134 11 160 11 34 0 46 4 44 13 -6 15 -106
18 -198 6z"/>
<path d="M620 449 c-19 -5 -56 -9 -82 -10 -47 -2 -62 -12 -34 -22 7 -3 17 -23
21 -44 9 -48 23 -75 36 -68 5 4 9 -5 9 -18 0 -22 -5 -25 -62 -31 -67 -8 -64
-26 4 -26 31 0 35 -3 31 -20 -4 -15 0 -20 15 -20 45 0 69 -22 35 -33 -10 -3
-36 -13 -58 -22 l-40 -16 46 4 c26 2 60 11 76 19 28 14 33 14 69 -8 46 -28 54
-29 54 -9 0 9 -13 24 -30 33 -36 20 -36 25 -9 63 18 26 26 29 77 29 53 1 56 2
37 16 -11 8 -38 14 -60 14 -22 -1 -50 2 -62 5 -15 5 -23 3 -23 -4 0 -6 -13
-11 -29 -11 -25 0 -28 3 -23 26 4 23 8 26 38 21 39 -7 47 1 69 68 16 46 16 49
-1 62 -20 15 -52 15 -104 2z m60 -28 c0 -14 -10 -20 -42 -25 -24 -4 -53 -9
-64 -12 -15 -4 -23 0 -26 14 -5 17 1 22 41 30 74 16 91 14 91 -7z m0 -48 c-1
-21 -20 -31 -67 -38 -49 -6 -53 -5 -53 13 0 16 8 22 33 25 59 7 87 7 87 0z
m-25 -157 c-12 -17 -22 -21 -50 -18 -37 4 -47 24 -20 39 8 5 31 7 50 5 33 -4
33 -5 20 -26z"/>
</g>
</svg>
