<?xml version="1.0" standalone="no"?>
<!DOCTYPE svg PUBLIC "-//W3C//DTD SVG 20010904//EN"
 "http://www.w3.org/TR/2001/REC-SVG-20010904/DTD/svg10.dtd">
<svg version="1.0" xmlns="http://www.w3.org/2000/svg"
 width="90.000000pt" height="92.000000pt" viewBox="0 0 90.000000 92.000000"
 preserveAspectRatio="xMidYMid meet">
<metadata>
Created by potrace 1.16, written by Peter Selinger 2001-2019
</metadata>
<g transform="translate(0.000000,92.000000) scale(0.100000,-0.100000)"
fill="#000000" stroke="none">
<path d="M509 868 c-7 -16 -36 -50 -65 -76 -30 -25 -52 -47 -50 -50 3 -2 31 9
63 26 73 38 163 56 163 33 0 -21 -99 -114 -161 -151 -44 -26 -48 -31 -24 -26
17 4 56 19 87 35 l56 29 7 -25 c3 -13 3 -28 0 -32 -3 -5 -44 -14 -92 -21 -49
-6 -97 -15 -108 -19 -19 -8 -19 -8 2 -19 16 -9 37 -8 89 3 116 25 116 25 112
-42 l-3 -58 -38 1 -37 1 39 -38 c22 -22 42 -39 45 -39 17 0 36 66 36 129 l0
70 62 3 c34 2 63 8 65 14 6 17 -43 33 -81 27 -28 -4 -36 -2 -36 9 0 9 -10 23
-22 31 l-23 16 63 62 c35 34 59 66 55 70 -4 4 -21 14 -36 22 -25 13 -33 13
-63 1 -38 -16 -68 -19 -45 -5 12 8 12 12 3 24 -24 29 -50 27 -63 -5z"/>
<path d="M298 858 c7 -7 12 -36 12 -65 0 -57 6 -52 -78 -69 -22 -5 -23 -3 -17
40 6 38 4 46 -13 55 -30 16 -31 15 -30 -27 0 -22 -5 -48 -11 -60 -14 -26 -14
-33 3 -55 13 -17 15 -17 47 2 19 10 49 22 67 26 33 7 33 6 30 -27 -3 -33 -3
-33 -90 -53 -49 -11 -88 -23 -88 -28 0 -4 11 -13 25 -19 14 -6 25 -15 25 -20
0 -15 -34 -61 -70 -96 l-35 -33 40 16 c50 19 127 100 123 129 -2 16 5 23 32
32 43 15 46 8 31 -62 -11 -45 -10 -57 5 -85 16 -31 17 -32 30 -14 10 14 14 57
14 164 0 80 5 166 11 191 9 38 8 46 -7 57 -24 17 -73 18 -56 1z"/>
<path d="M509 756 c19 -21 20 -24 6 -30 -9 -3 -32 -6 -51 -6 -37 0 -43 -10
-19 -30 12 -10 22 -8 55 14 22 14 44 26 50 26 5 0 10 9 10 19 0 20 -18 31 -53
31 -20 0 -20 0 2 -24z"/>
<path d="M449 528 c23 -38 46 -47 55 -21 8 21 -25 53 -56 53 -20 0 -20 0 1
-32z"/>
<path d="M387 474 c-3 -4 -2 -16 3 -28 13 -36 21 -195 12 -256 l-7 -55 -45 3
-44 4 44 -49 c24 -26 47 -49 51 -51 4 -2 17 7 28 19 19 21 21 35 21 143 l0
120 94 -93 c52 -52 102 -98 111 -104 20 -11 137 -4 175 11 l25 10 -25 9 c-14
5 -59 22 -100 36 -41 15 -100 42 -130 59 l-55 32 80 37 c44 21 80 43 80 50 0
6 -13 21 -29 33 -24 17 -30 18 -34 6 -8 -21 -93 -110 -106 -110 -7 0 -27 13
-46 29 -31 26 -35 35 -35 77 0 44 -2 48 -31 60 -18 7 -34 11 -37 8z"/>
<path d="M260 354 c-25 -7 -57 -13 -72 -13 -56 -2 -74 -20 -35 -38 16 -7 35
-6 67 3 65 20 73 19 59 -7 -22 -41 -94 -112 -153 -151 -47 -30 -54 -38 -35
-38 50 0 126 47 203 126 42 44 76 84 76 91 0 14 -39 44 -55 42 -5 -1 -30 -7
-55 -15z"/>
</g>
</svg>
