<?xml version="1.0" standalone="no"?>
<!DOCTYPE svg PUBLIC "-//W3C//DTD SVG 20010904//EN"
 "http://www.w3.org/TR/2001/REC-SVG-20010904/DTD/svg10.dtd">
<svg version="1.0" xmlns="http://www.w3.org/2000/svg"
 width="90.000000pt" height="92.000000pt" viewBox="0 0 90.000000 92.000000"
 preserveAspectRatio="xMidYMid meet">
<metadata>
Created by potrace 1.16, written by Peter Selinger 2001-2019
</metadata>
<g transform="translate(0.000000,92.000000) scale(0.100000,-0.100000)"
fill="#000000" stroke="none">
<path d="M622 800 c-35 -10 -87 -22 -117 -25 -82 -11 -69 -30 25 -37 l35 -3 3
-97 3 -97 -27 -7 c-14 -4 -57 -7 -95 -8 -70 -1 -70 -1 -62 -26 12 -38 8 -238
-6 -297 -11 -44 -10 -55 4 -84 16 -30 18 -31 28 -14 5 10 14 100 18 199 4 100
8 182 8 182 1 1 22 5 49 8 26 4 55 10 65 12 17 5 18 -5 16 -171 -1 -122 1
-179 9 -187 28 -28 34 9 33 190 l-2 179 68 6 c37 4 71 3 77 -3 12 -12 19 -251
9 -325 -9 -64 -11 -65 -69 -51 -26 7 -25 5 16 -43 23 -28 48 -51 55 -51 7 0
21 12 31 28 16 24 19 50 20 222 0 107 3 206 5 219 3 17 -4 29 -23 44 -26 19
-28 19 -92 3 -104 -26 -99 -30 -94 80 4 105 6 108 71 118 22 4 49 12 60 18 20
10 20 11 2 24 -24 17 -44 16 -123 -6z"/>
<path d="M80 801 c0 -19 72 -101 90 -101 23 0 35 33 21 58 -15 28 -111 65
-111 43z"/>
<path d="M335 788 c-11 -7 -40 -17 -65 -24 -41 -10 -43 -12 -23 -22 15 -9 29
-9 53 -1 17 6 34 9 37 5 4 -3 2 -27 -3 -53 -9 -47 -10 -48 -61 -62 l-53 -14 6
-38 c4 -25 1 -48 -10 -70 -19 -39 -20 -53 -3 -67 8 -7 18 -6 31 4 11 8 29 14
39 14 19 0 19 -5 13 -92 -4 -55 -15 -110 -26 -135 -16 -37 -23 -43 -49 -43
l-31 0 17 -35 c22 -45 36 -49 73 -19 35 30 49 76 61 199 4 50 11 102 15 117 5
23 2 29 -19 39 -19 8 -34 9 -56 1 -35 -13 -36 -10 -16 48 8 23 13 46 10 50 -3
4 20 11 50 15 30 3 55 11 55 16 0 5 -4 9 -10 9 -11 0 17 77 37 101 16 19 17
34 1 47 -23 17 -53 21 -73 10z"/>
<path d="M715 665 c54 -48 90 -64 107 -47 23 23 -7 60 -63 76 -92 28 -101 22
-44 -29z"/>
<path d="M456 665 c-3 -13 -24 -46 -46 -74 -47 -59 -40 -65 22 -17 100 76 107
88 59 104 -26 9 -30 8 -35 -13z"/>
<path d="M30 609 c0 -5 20 -31 44 -56 46 -50 76 -54 76 -10 0 28 -23 50 -69
66 -42 14 -51 14 -51 0z"/>
<path d="M690 471 c0 -27 -15 -34 -42 -20 l-23 11 22 -23 22 -23 -27 -35 -27
-36 25 18 c41 29 52 31 66 13 7 -10 17 -15 23 -11 17 10 13 34 -8 47 -17 11
-18 14 -4 34 16 25 10 44 -13 44 -8 0 -14 -9 -14 -19z"/>
<path d="M514 435 c-6 -24 -7 -24 -38 -8 -30 15 -31 15 -15 -3 29 -35 29 -42
2 -75 -29 -34 -15 -32 24 4 21 19 22 19 35 -2 7 -12 16 -21 20 -21 14 0 14 36
0 53 -13 15 -13 19 2 36 19 21 14 41 -9 41 -8 0 -17 -11 -21 -25z"/>
<path d="M117 375 c-20 -41 -53 -93 -73 -115 -36 -39 -37 -42 -25 -79 11 -39
35 -68 44 -54 3 4 12 31 20 58 8 28 28 86 45 130 56 153 51 184 -11 60z"/>
<path d="M695 320 c-7 -23 -17 -25 -48 -9 -21 11 -21 11 2 -14 l23 -26 -23
-32 c-22 -32 -12 -32 24 0 17 14 20 14 36 -7 9 -13 20 -20 24 -16 12 12 8 41
-8 54 -14 12 -14 15 1 31 9 10 13 23 9 28 -10 18 -33 12 -40 -9z"/>
<path d="M500 299 c0 -18 -4 -20 -27 -14 -27 6 -27 6 -10 -13 16 -18 16 -20
-3 -45 -28 -36 -25 -42 11 -17 29 22 31 22 44 4 11 -15 16 -16 26 -7 10 10 9
16 -5 32 -14 16 -15 23 -6 40 12 24 6 41 -16 41 -8 0 -14 -9 -14 -21z"/>
</g>
</svg>
