<?xml version="1.0" standalone="no"?>
<!DOCTYPE svg PUBLIC "-//W3C//DTD SVG 20010904//EN"
 "http://www.w3.org/TR/2001/REC-SVG-20010904/DTD/svg10.dtd">
<svg version="1.0" xmlns="http://www.w3.org/2000/svg"
 width="96.000000pt" height="68.000000pt" viewBox="0 0 96.000000 68.000000"
 preserveAspectRatio="xMidYMid meet">
<metadata>
Created by potrace 1.16, written by Peter Selinger 2001-2019
</metadata>
<g transform="translate(0.000000,68.000000) scale(0.100000,-0.100000)"
fill="#000000" stroke="none">
<path d="M311 560 c-29 -27 -53 -40 -72 -40 -26 0 -27 -1 -18 -32 5 -18 9 -77
9 -131 0 -95 -1 -98 -26 -107 -14 -6 -49 -10 -77 -10 l-52 0 25 -20 c28 -22
61 -25 92 -9 28 15 33 5 21 -45 -7 -34 -7 -52 4 -77 20 -47 33 -26 40 66 6 75
7 78 37 90 17 7 48 16 69 20 20 4 37 12 37 17 0 6 -13 8 -32 4 -106 -21 -108
-21 -108 11 0 28 3 30 61 42 42 8 58 16 52 22 -7 7 -23 7 -49 0 -57 -16 -63
-14 -60 16 3 28 3 28 89 47 39 9 35 30 -5 23 -18 -4 -43 -9 -54 -12 -19 -6
-22 -2 -26 27 -4 34 -3 35 69 64 75 29 88 45 54 64 -28 15 -31 13 -80 -30z"/>
<path d="M560 574 c-19 -7 -53 -11 -75 -9 -22 3 -34 2 -27 -1 6 -3 10 -10 6
-15 -3 -5 -1 -9 4 -9 16 0 -7 -134 -28 -162 -23 -31 -16 -36 16 -13 31 21 54
76 54 128 0 42 2 46 31 56 56 19 59 16 59 -49 0 -84 19 -102 103 -98 47 2 62
7 62 18 0 12 -12 14 -62 12 -58 -3 -63 -1 -68 20 -3 13 1 43 10 67 14 41 14
45 -2 57 -22 16 -37 16 -83 -2z"/>
<path d="M590 335 c-25 -7 -71 -16 -102 -20 l-58 -6 50 -40 c27 -21 54 -49 61
-61 10 -19 8 -25 -16 -44 -16 -12 -58 -34 -94 -48 -63 -25 -64 -26 -24 -22 33
3 103 30 164 63 4 2 31 -17 60 -43 l54 -46 78 5 c112 7 117 18 23 42 -71 19
-152 53 -166 70 -8 9 -7 17 2 27 23 24 78 106 78 116 0 24 -42 26 -110 7z m33
-22 c8 -12 -34 -93 -47 -93 -13 0 -79 60 -73 67 5 5 89 31 104 32 6 1 14 -2
16 -6z"/>
</g>
</svg>
