<?xml version="1.0" standalone="no"?>
<!DOCTYPE svg PUBLIC "-//W3C//DTD SVG 20010904//EN"
 "http://www.w3.org/TR/2001/REC-SVG-20010904/DTD/svg10.dtd">
<svg version="1.0" xmlns="http://www.w3.org/2000/svg"
 width="96.000000pt" height="68.000000pt" viewBox="0 0 96.000000 68.000000"
 preserveAspectRatio="xMidYMid meet">
<metadata>
Created by potrace 1.16, written by Peter Selinger 2001-2019
</metadata>
<g transform="translate(0.000000,68.000000) scale(0.100000,-0.100000)"
fill="#000000" stroke="none">
<path d="M185 490 c30 -31 75 -41 75 -16 0 21 -40 46 -74 46 l-30 0 29 -30z"/>
<path d="M110 382 c0 -14 65 -62 84 -62 20 0 21 33 2 49 -19 16 -86 26 -86 13z"/>
<path d="M210 239 c-13 -19 -41 -53 -64 -76 -36 -38 -39 -46 -30 -70 16 -46
39 -40 59 14 10 26 29 70 42 96 30 60 25 83 -7 36z"/>
</g>
</svg>
