<?xml version="1.0" standalone="no"?>
<!DOCTYPE svg PUBLIC "-//W3C//DTD SVG 20010904//EN"
 "http://www.w3.org/TR/2001/REC-SVG-20010904/DTD/svg10.dtd">
<svg version="1.0" xmlns="http://www.w3.org/2000/svg"
 width="90.000000pt" height="92.000000pt" viewBox="0 0 90.000000 92.000000"
 preserveAspectRatio="xMidYMid meet">
<metadata>
Created by potrace 1.16, written by Peter Selinger 2001-2019
</metadata>
<g transform="translate(0.000000,92.000000) scale(0.100000,-0.100000)"
fill="#000000" stroke="none">
<path d="M611 748 c-15 -72 -56 -181 -83 -220 -26 -37 -9 -36 27 2 23 24 37
30 72 30 l43 0 0 -42 c0 -50 -17 -158 -26 -167 -3 -3 -12 3 -20 14 -35 47 -55
65 -75 65 -20 0 -19 -2 10 -35 17 -19 38 -49 46 -66 16 -29 15 -32 -8 -63 -14
-17 -41 -40 -61 -51 -37 -20 -49 -40 -18 -31 9 2 28 8 42 11 14 4 40 19 59 33
l34 26 16 -25 c39 -60 67 -79 118 -79 52 0 93 8 93 19 0 4 -29 19 -64 35 -35
15 -82 42 -103 61 -36 31 -37 34 -26 66 6 19 15 52 18 74 3 22 11 62 17 88 7
35 7 52 -1 60 -19 19 -12 25 39 32 62 9 71 21 29 39 -29 12 -40 11 -102 -10
-39 -13 -74 -24 -78 -24 -4 0 1 17 12 38 10 20 30 61 43 90 l24 53 -21 19
c-33 31 -42 24 -56 -42z"/>
<path d="M355 761 c-72 -15 -78 -18 -58 -29 12 -7 33 -12 46 -12 22 0 25 -5
29 -45 4 -50 3 -51 -72 -61 -59 -8 -70 -18 -38 -35 13 -7 26 -17 30 -23 4 -6
8 -75 8 -153 l0 -142 -27 -3 c-36 -4 -40 -23 -9 -43 24 -16 28 -16 102 25 l76
43 -5 -91 c-3 -68 -1 -96 9 -109 26 -35 34 7 34 193 0 100 3 215 6 257 7 76 7
77 35 77 16 0 29 4 29 10 0 20 -42 32 -92 25 l-49 -7 6 38 c10 59 13 64 37 64
13 0 30 5 38 10 13 9 13 11 0 20 -19 12 -36 11 -135 -9z m83 -207 c3 -40 2
-41 -30 -47 -18 -3 -41 -8 -50 -12 -16 -6 -18 -1 -18 43 0 50 1 51 33 55 57 7
62 5 65 -39z m2 -110 c0 -24 -4 -34 -12 -31 -7 2 -30 -2 -50 -9 l-38 -13 0 39
c0 36 2 39 33 43 69 8 67 9 67 -29z m0 -97 c0 -42 -1 -44 -39 -55 -63 -19 -67
-17 -63 31 4 43 4 44 50 54 26 6 48 11 50 12 1 0 2 -19 2 -42z"/>
<path d="M105 709 c-27 -10 -61 -16 -74 -13 -21 4 -23 2 -17 -18 14 -49 17
-173 7 -299 -10 -120 -9 -135 6 -158 15 -22 18 -23 21 -8 2 11 13 17 30 17 15
0 36 3 47 6 15 4 23 -2 34 -26 16 -38 31 -35 52 11 13 27 15 52 10 124 -3 50
-4 148 -1 220 5 122 5 131 -15 147 -24 21 -35 21 -100 -3z m66 -61 c0 -18 2
-45 3 -60 1 -24 -2 -28 -24 -28 -14 0 -40 -4 -58 -9 l-32 -10 0 59 c0 67 11
79 73 80 35 0 37 -2 38 -32z m-1 -172 c0 -49 -2 -54 -22 -53 -13 0 -38 -3 -55
-7 l-33 -8 0 56 0 55 43 4 c23 2 48 4 55 5 8 1 12 -15 12 -52z m3 -98 c-2 -5
-3 -31 -3 -59 0 -46 -2 -50 -20 -44 -10 3 -35 2 -55 -4 l-35 -9 0 58 c0 56 1
59 28 63 39 6 87 3 85 -5z"/>
</g>
</svg>
