<?xml version="1.0" standalone="no"?>
<!DOCTYPE svg PUBLIC "-//W3C//DTD SVG 20010904//EN"
 "http://www.w3.org/TR/2001/REC-SVG-20010904/DTD/svg10.dtd">
<svg version="1.0" xmlns="http://www.w3.org/2000/svg"
 width="90.000000pt" height="92.000000pt" viewBox="0 0 90.000000 92.000000"
 preserveAspectRatio="xMidYMid meet">
<metadata>
Created by potrace 1.16, written by Peter Selinger 2001-2019
</metadata>
<g transform="translate(0.000000,92.000000) scale(0.100000,-0.100000)"
fill="#000000" stroke="none">
<path d="M450 864 c0 -3 5 -15 12 -27 11 -20 59 -199 55 -203 -1 -1 -38 -9
-82 -18 -146 -31 -133 -26 -111 -42 26 -19 53 -18 136 5 l69 20 26 -86 c15
-47 37 -111 51 -141 l24 -55 -36 -44 c-20 -24 -53 -58 -75 -75 -21 -17 -37
-33 -35 -35 8 -8 87 38 125 72 21 19 41 35 43 35 3 0 21 -26 41 -57 47 -76 89
-121 129 -138 50 -20 60 -5 37 55 -10 28 -19 70 -19 95 0 24 -4 47 -10 50 -5
3 -10 0 -10 -7 0 -26 -21 -88 -30 -88 -11 0 -100 119 -100 135 0 7 18 45 40
85 22 40 40 79 40 86 0 13 -49 44 -70 44 -6 0 -8 -10 -4 -25 6 -26 -22 -125
-36 -125 -10 0 -66 141 -75 191 l-7 36 77 8 c80 7 90 18 43 45 -23 12 -34 12
-78 1 -28 -7 -53 -11 -55 -9 -3 2 -10 49 -16 104 -7 54 -17 102 -23 106 -13 9
-76 11 -76 2z"/>
<path d="M610 801 c0 -17 83 -91 101 -91 42 0 35 61 -8 78 -47 18 -93 25 -93
13z"/>
<path d="M135 763 c13 -31 24 -106 24 -170 l1 -62 -55 -6 c-37 -5 -55 -12 -55
-21 0 -10 15 -14 55 -14 l56 0 -3 -92 -3 -93 -70 -24 c-38 -13 -72 -26 -74
-28 -9 -7 43 -53 59 -53 10 0 28 8 41 18 13 10 66 44 117 76 50 32 92 62 92
67 0 12 -2 12 -55 -11 -26 -11 -49 -20 -51 -20 -2 0 -4 38 -4 85 l0 85 45 11
c54 14 65 27 39 46 -18 14 -30 13 -66 -2 -16 -6 -18 -1 -18 38 0 24 5 69 10
98 10 50 9 55 -11 72 -12 9 -35 17 -51 17 -25 0 -29 -3 -23 -17z"/>
<path d="M425 485 c-16 -8 -47 -14 -67 -15 -36 0 -49 -12 -28 -25 5 -3 12 -28
16 -55 6 -45 33 -103 34 -72 0 7 13 12 29 12 16 0 42 3 59 6 23 5 29 10 25 25
-3 11 2 40 12 66 17 44 17 47 0 60 -23 16 -41 16 -80 -2z m26 -70 c-1 -22 -8
-43 -14 -47 -17 -11 -57 -10 -57 1 0 5 -3 22 -6 39 -5 26 -3 31 22 40 49 18
59 12 55 -33z"/>
<path d="M445 269 c-33 -11 -91 -23 -130 -27 l-70 -7 28 -29 c17 -17 35 -26
45 -23 59 19 222 91 222 98 0 13 -28 10 -95 -12z"/>
</g>
</svg>
