<?xml version="1.0" standalone="no"?>
<!DOCTYPE svg PUBLIC "-//W3C//DTD SVG 20010904//EN"
 "http://www.w3.org/TR/2001/REC-SVG-20010904/DTD/svg10.dtd">
<svg version="1.0" xmlns="http://www.w3.org/2000/svg"
 width="96.000000pt" height="68.000000pt" viewBox="0 0 96.000000 68.000000"
 preserveAspectRatio="xMidYMid meet">
<metadata>
Created by potrace 1.16, written by Peter Selinger 2001-2019
</metadata>
<g transform="translate(0.000000,68.000000) scale(0.100000,-0.100000)"
fill="#000000" stroke="none">
<path d="M210 423 c0 -15 55 -63 72 -63 19 0 23 17 10 36 -16 24 -82 46 -82
27z"/>
<path d="M171 303 c43 -49 69 -58 69 -24 0 24 -36 51 -69 51 l-24 0 24 -27z"/>
<path d="M264 223 c-15 -21 -45 -55 -66 -76 -37 -37 -38 -38 -23 -67 9 -17 19
-30 23 -30 8 0 104 201 98 207 -2 2 -16 -13 -32 -34z"/>
</g>
</svg>
