<?xml version="1.0" standalone="no"?>
<!DOCTYPE svg PUBLIC "-//W3C//DTD SVG 20010904//EN"
 "http://www.w3.org/TR/2001/REC-SVG-20010904/DTD/svg10.dtd">
<svg version="1.0" xmlns="http://www.w3.org/2000/svg"
 width="96.000000pt" height="68.000000pt" viewBox="0 0 96.000000 68.000000"
 preserveAspectRatio="xMidYMid meet">
<metadata>
Created by potrace 1.16, written by Peter Selinger 2001-2019
</metadata>
<g transform="translate(0.000000,68.000000) scale(0.100000,-0.100000)"
fill="#000000" stroke="none">
<path d="M549 623 c-1 -5 -1 -12 0 -17 7 -33 -11 -54 -51 -62 l-43 -8 43 -4
c39 -3 42 -5 36 -28 -8 -29 12 -33 21 -3 8 25 34 36 108 44 77 9 65 29 -14 23
-56 -4 -58 -3 -53 18 4 16 0 25 -14 33 -24 13 -32 14 -33 4z"/>
<path d="M280 593 c0 -5 7 -17 15 -27 24 -32 18 -36 -50 -36 -68 0 -83 -12
-41 -32 19 -8 37 -8 72 1 47 12 63 6 64 -22 0 -5 6 -7 13 -4 6 2 11 14 9 26
-3 17 3 23 27 27 43 9 39 24 -4 17 -32 -5 -35 -4 -35 20 0 14 -7 28 -16 31
-22 8 -54 8 -54 -1z"/>
</g>
</svg>
