<?xml version="1.0" standalone="no"?>
<!DOCTYPE svg PUBLIC "-//W3C//DTD SVG 20010904//EN"
 "http://www.w3.org/TR/2001/REC-SVG-20010904/DTD/svg10.dtd">
<svg version="1.0" xmlns="http://www.w3.org/2000/svg"
 width="96.000000pt" height="68.000000pt" viewBox="0 0 96.000000 68.000000"
 preserveAspectRatio="xMidYMid meet">
<metadata>
Created by potrace 1.16, written by Peter Selinger 2001-2019
</metadata>
<g transform="translate(0.000000,68.000000) scale(0.100000,-0.100000)"
fill="#000000" stroke="none">
<path d="M630 454 c-52 -8 -121 -13 -153 -12 -53 3 -70 -3 -48 -16 5 -3 17
-38 26 -77 l18 -71 46 7 c25 3 93 7 151 10 l105 4 14 33 c8 18 23 51 33 73 18
38 18 41 1 52 -20 16 -67 15 -193 -3z m135 -14 c4 -6 1 -34 -5 -64 l-11 -53
-120 -9 c-67 -5 -124 -7 -128 -4 -8 5 -31 103 -26 108 3 4 209 29 252 31 17 0
35 -4 38 -9z"/>
</g>
</svg>
