<?xml version="1.0" standalone="no"?>
<!DOCTYPE svg PUBLIC "-//W3C//DTD SVG 20010904//EN"
 "http://www.w3.org/TR/2001/REC-SVG-20010904/DTD/svg10.dtd">
<svg version="1.0" xmlns="http://www.w3.org/2000/svg"
 width="96.000000pt" height="68.000000pt" viewBox="0 0 96.000000 68.000000"
 preserveAspectRatio="xMidYMid meet">
<metadata>
Created by potrace 1.16, written by Peter Selinger 2001-2019
</metadata>
<g transform="translate(0.000000,68.000000) scale(0.100000,-0.100000)"
fill="#000000" stroke="none">
<path d="M510 592 c0 -4 13 -24 30 -44 l30 -36 -88 -8 c-48 -5 -93 -8 -99 -7
-15 1 -17 -13 -3 -22 31 -19 -4 -175 -53 -244 -42 -59 -32 -68 18 -16 43 47
60 83 81 181 l17 82 87 11 c47 6 116 11 153 11 37 0 67 4 67 10 0 16 -46 23
-104 16 -52 -7 -53 -7 -49 17 4 21 -1 27 -36 41 -47 18 -51 19 -51 8z"/>
<path d="M150 492 c0 -17 81 -83 98 -80 10 2 18 15 20 31 3 22 -2 29 -25 38
-43 17 -93 23 -93 11z"/>
<path d="M648 436 c4 -44 3 -45 -31 -51 -57 -11 -82 -3 -85 26 -2 19 -10 28
-28 32 -27 5 -33 -13 -9 -33 23 -19 18 -40 -9 -40 -14 0 -28 -4 -31 -10 -4 -6
6 -10 24 -10 30 0 32 -2 45 -63 6 -25 10 -28 34 -23 15 3 46 8 69 11 41 6 42
8 49 51 l6 44 44 0 c44 0 66 13 38 24 -9 3 -27 6 -41 6 -22 0 -24 3 -18 29 5
23 2 32 -14 40 -38 21 -46 14 -43 -33z m-6 -106 c-3 -21 -11 -32 -27 -36 -42
-10 -60 -1 -63 34 l-3 32 49 0 c48 0 49 0 44 -30z"/>
<path d="M165 343 c-63 -20 -76 -27 -60 -34 11 -4 42 -5 69 -2 l48 6 -17 -26
c-16 -25 -16 -28 4 -56 12 -16 24 -43 27 -60 l7 -31 -77 0 c-78 0 -88 -6 -59
-35 11 -12 25 -15 47 -11 91 19 112 17 256 -24 249 -70 226 -67 340 -35 55 15
100 31 100 35 0 4 -69 11 -152 15 -84 4 -214 18 -288 31 -74 13 -136 24 -138
24 -2 0 -1 14 3 30 5 24 1 37 -18 60 -14 16 -27 28 -29 27 -2 -1 13 14 34 33
21 20 38 40 38 46 0 9 -45 37 -53 33 -1 -1 -38 -12 -82 -26z"/>
<path d="M403 197 c-29 -42 -30 -67 -3 -67 24 0 56 59 47 84 -9 24 -19 20 -44
-17z"/>
<path d="M740 185 c34 -50 60 -59 60 -21 0 28 -42 66 -72 66 -17 0 -16 -5 12
-45z"/>
<path d="M613 208 c21 -50 34 -68 50 -68 30 0 22 47 -13 65 -35 18 -44 19 -37
3z"/>
<path d="M515 193 c4 -10 10 -26 12 -36 7 -22 36 -18 41 4 4 20 -23 49 -45 49
-10 0 -13 -5 -8 -17z"/>
</g>
</svg>
