<?xml version="1.0" standalone="no"?>
<!DOCTYPE svg PUBLIC "-//W3C//DTD SVG 20010904//EN"
 "http://www.w3.org/TR/2001/REC-SVG-20010904/DTD/svg10.dtd">
<svg version="1.0" xmlns="http://www.w3.org/2000/svg"
 width="96.000000pt" height="68.000000pt" viewBox="0 0 96.000000 68.000000"
 preserveAspectRatio="xMidYMid meet">
<metadata>
Created by potrace 1.16, written by Peter Selinger 2001-2019
</metadata>
<g transform="translate(0.000000,68.000000) scale(0.100000,-0.100000)"
fill="#000000" stroke="none">
<path d="M407 205 c-32 -40 -36 -75 -8 -75 23 0 51 41 51 74 0 38 -13 38 -43
1z"/>
<path d="M710 234 c0 -15 63 -94 75 -94 21 0 19 43 -3 63 -18 17 -72 40 -72
31z"/>
<path d="M510 211 c0 -23 24 -71 35 -71 36 0 28 51 -10 68 -14 6 -25 8 -25 3z"/>
<path d="M610 216 c0 -16 44 -76 56 -76 23 0 16 37 -12 59 -25 20 -44 27 -44
17z"/>
</g>
</svg>
