<?xml version="1.0" standalone="no"?>
<!DOCTYPE svg PUBLIC "-//W3C//DTD SVG 20010904//EN"
 "http://www.w3.org/TR/2001/REC-SVG-20010904/DTD/svg10.dtd">
<svg version="1.0" xmlns="http://www.w3.org/2000/svg"
 width="96.000000pt" height="68.000000pt" viewBox="0 0 96.000000 68.000000"
 preserveAspectRatio="xMidYMid meet">
<metadata>
Created by potrace 1.16, written by Peter Selinger 2001-2019
</metadata>
<g transform="translate(0.000000,68.000000) scale(0.100000,-0.100000)"
fill="#000000" stroke="none">
<path d="M634 293 c-3 -10 -11 -29 -17 -43 -6 -14 -10 -28 -9 -32 1 -5 -5 -8
-14 -8 -9 0 -31 -15 -50 -34 -18 -18 -36 -31 -40 -27 -4 3 -4 0 0 -7 9 -15
116 65 116 87 0 8 3 11 7 8 6 -7 53 50 53 65 0 16 -41 8 -46 -9z"/>
<path d="M470 120 c-8 -5 -10 -10 -5 -10 6 0 17 5 25 10 8 5 11 10 5 10 -5 0
-17 -5 -25 -10z"/>
</g>
</svg>
