<?xml version="1.0" standalone="no"?>
<!DOCTYPE svg PUBLIC "-//W3C//DTD SVG 20010904//EN"
 "http://www.w3.org/TR/2001/REC-SVG-20010904/DTD/svg10.dtd">
<svg version="1.0" xmlns="http://www.w3.org/2000/svg"
 width="96.000000pt" height="68.000000pt" viewBox="0 0 96.000000 68.000000"
 preserveAspectRatio="xMidYMid meet">
<metadata>
Created by potrace 1.16, written by Peter Selinger 2001-2019
</metadata>
<g transform="translate(0.000000,68.000000) scale(0.100000,-0.100000)"
fill="#000000" stroke="none">
<path d="M565 590 c-11 -5 -32 -9 -47 -9 -15 -1 -30 -6 -34 -12 -5 -8 11 -9
55 -4 l61 7 0 -51 c0 -65 16 -97 53 -111 42 -14 100 -13 123 4 18 14 18 15 1
22 -10 3 -37 4 -61 2 -24 -3 -51 -1 -60 4 -19 11 -21 58 -4 105 6 18 9 35 6
38 -11 11 -73 14 -93 5z"/>
</g>
</svg>
