<?xml version="1.0" standalone="no"?>
<!DOCTYPE svg PUBLIC "-//W3C//DTD SVG 20010904//EN"
 "http://www.w3.org/TR/2001/REC-SVG-20010904/DTD/svg10.dtd">
<svg version="1.0" xmlns="http://www.w3.org/2000/svg"
 width="96.000000pt" height="68.000000pt" viewBox="0 0 96.000000 68.000000"
 preserveAspectRatio="xMidYMid meet">
<metadata>
Created by potrace 1.16, written by Peter Selinger 2001-2019
</metadata>
<g transform="translate(0.000000,68.000000) scale(0.100000,-0.100000)"
fill="#000000" stroke="none">
<path d="M524 368 c1 -41 -1 -43 -29 -46 -16 -1 -59 -5 -95 -8 -64 -7 -64 -7
-35 -20 22 -9 44 -10 79 -3 27 5 51 7 54 5 7 -7 -75 -91 -118 -121 -22 -15
-38 -30 -36 -32 10 -10 94 37 139 76 l47 43 0 -99 c0 -98 8 -131 29 -119 7 5
11 46 11 114 l0 106 68 -66 c37 -36 77 -71 89 -77 22 -11 99 -5 108 9 2 3 -31
21 -73 38 -69 28 -182 106 -190 132 -2 6 41 10 117 10 122 0 153 10 85 29 -22
6 -56 6 -92 0 -102 -16 -109 -15 -108 29 1 33 -2 37 -25 40 -24 3 -26 1 -25
-40z"/>
</g>
</svg>
