<?xml version="1.0" standalone="no"?>
<!DOCTYPE svg PUBLIC "-//W3C//DTD SVG 20010904//EN"
 "http://www.w3.org/TR/2001/REC-SVG-20010904/DTD/svg10.dtd">
<svg version="1.0" xmlns="http://www.w3.org/2000/svg"
 width="96.000000pt" height="68.000000pt" viewBox="0 0 96.000000 68.000000"
 preserveAspectRatio="xMidYMid meet">
<metadata>
Created by potrace 1.16, written by Peter Selinger 2001-2019
</metadata>
<g transform="translate(0.000000,68.000000) scale(0.100000,-0.100000)"
fill="#000000" stroke="none">
<path d="M254 558 c4 -13 9 -53 13 -89 l6 -67 -62 -7 c-83 -10 -87 -25 -6 -25
l66 0 -3 -42 c-3 -42 -4 -43 -68 -70 -36 -15 -74 -29 -84 -32 -16 -4 -17 -7
-6 -20 19 -23 44 -20 107 16 l56 32 -7 -65 c-9 -77 -18 -91 -52 -78 -40 15
-40 11 1 -31 21 -22 47 -40 56 -40 26 0 41 58 37 151 l-3 83 32 21 c41 26 42
37 2 23 -37 -13 -43 -8 -34 31 5 23 14 33 33 37 55 12 59 14 39 26 -11 5 -30
8 -44 5 -25 -5 -25 -4 -19 46 4 28 11 58 17 68 11 22 -22 49 -59 49 -20 0 -23
-4 -18 -22z"/>
</g>
</svg>
