<?xml version="1.0" standalone="no"?>
<!DOCTYPE svg PUBLIC "-//W3C//DTD SVG 20010904//EN"
 "http://www.w3.org/TR/2001/REC-SVG-20010904/DTD/svg10.dtd">
<svg version="1.0" xmlns="http://www.w3.org/2000/svg"
 width="96.000000pt" height="68.000000pt" viewBox="0 0 96.000000 68.000000"
 preserveAspectRatio="xMidYMid meet">
<metadata>
Created by potrace 1.16, written by Peter Selinger 2001-2019
</metadata>
<g transform="translate(0.000000,68.000000) scale(0.100000,-0.100000)"
fill="#000000" stroke="none">
<path d="M286 537 c-9 -46 -59 -117 -131 -188 -35 -34 -63 -65 -60 -67 6 -6
73 36 112 71 l32 28 7 -27 c7 -26 -7 -165 -21 -224 -5 -18 0 -33 13 -50 19
-24 19 -24 30 -3 13 24 21 300 9 323 -5 11 5 33 33 70 22 29 40 59 40 66 0 7
-13 17 -29 22 -27 10 -29 8 -35 -21z"/>
</g>
</svg>
