<?xml version="1.0" standalone="no"?>
<!DOCTYPE svg PUBLIC "-//W3C//DTD SVG 20010904//EN"
 "http://www.w3.org/TR/2001/REC-SVG-20010904/DTD/svg10.dtd">
<svg version="1.0" xmlns="http://www.w3.org/2000/svg"
 width="96.000000pt" height="68.000000pt" viewBox="0 0 96.000000 68.000000"
 preserveAspectRatio="xMidYMid meet">
<metadata>
Created by potrace 1.16, written by Peter Selinger 2001-2019
</metadata>
<g transform="translate(0.000000,68.000000) scale(0.100000,-0.100000)"
fill="#000000" stroke="none">
<path d="M180 522 c0 -18 50 -62 70 -62 25 0 27 35 3 48 -29 15 -73 23 -73 14z"/>
<path d="M139 356 c32 -33 61 -38 61 -11 0 23 -30 45 -63 45 l-31 0 33 -34z"/>
<path d="M236 279 c-10 -18 -46 -59 -79 -92 -59 -57 -60 -60 -46 -85 7 -14 19
-27 26 -29 13 -5 127 211 121 228 -2 5 -12 -5 -22 -22z"/>
</g>
</svg>
