<?xml version="1.0" standalone="no"?>
<!DOCTYPE svg PUBLIC "-//W3C//DTD SVG 20010904//EN"
 "http://www.w3.org/TR/2001/REC-SVG-20010904/DTD/svg10.dtd">
<svg version="1.0" xmlns="http://www.w3.org/2000/svg"
 width="96.000000pt" height="68.000000pt" viewBox="0 0 96.000000 68.000000"
 preserveAspectRatio="xMidYMid meet">
<metadata>
Created by potrace 1.16, written by Peter Selinger 2001-2019
</metadata>
<g transform="translate(0.000000,68.000000) scale(0.100000,-0.100000)"
fill="#000000" stroke="none">
<path d="M491 515 c-7 -24 -33 -75 -58 -112 -34 -50 -39 -63 -22 -50 13 10 30
20 38 24 20 9 86 -31 86 -53 0 -10 -30 -43 -66 -74 -63 -53 -69 -55 -126 -56
-55 -1 -59 1 -57 20 1 12 3 31 3 43 1 18 8 22 38 25 20 2 39 9 41 17 4 11 -4
13 -37 7 l-42 -6 3 35 c1 19 7 36 13 37 5 0 17 2 25 2 8 1 14 9 12 18 -1 10 4
34 13 54 8 20 15 43 15 50 0 23 -45 27 -119 10 -38 -9 -83 -13 -100 -10 -34 7
-39 0 -16 -22 8 -8 19 -34 25 -57 18 -70 18 -69 49 -62 35 7 41 -8 41 -111 0
-69 -1 -72 -26 -78 -15 -4 -29 -4 -32 -1 -3 3 -5 29 -3 58 2 55 -15 87 -39 72
-11 -7 -9 -37 6 -118 5 -25 3 -27 -30 -27 -40 0 -47 -14 -15 -31 21 -11 84 -5
104 10 11 8 152 61 162 61 4 0 -2 -7 -13 -15 -15 -12 -16 -14 -3 -15 9 0 19 3
23 7 28 28 61 -6 72 -74 7 -45 27 -72 39 -53 3 5 32 10 64 10 83 0 121 9 121
29 0 9 9 34 19 54 17 33 17 39 4 52 -17 18 -44 19 -152 4 -113 -15 -126 -8
-65 38 27 21 58 45 68 55 18 17 21 16 57 -13 21 -17 41 -35 44 -40 17 -26 67
-40 125 -33 33 4 60 10 60 14 0 5 -24 16 -52 25 -74 24 -148 57 -148 67 0 4
-6 8 -14 8 -32 0 -25 23 23 85 28 36 51 67 51 70 0 3 -11 10 -25 15 -18 7 -44
5 -85 -4 -65 -16 -73 -10 -44 32 12 18 13 26 4 37 -23 28 -45 17 -59 -30z
m-195 -67 c-8 -39 -7 -38 -51 -48 -33 -7 -37 -6 -46 17 -19 51 -10 58 70 62
33 1 33 0 27 -31z m329 2 c3 -5 -8 -30 -25 -55 l-31 -45 -44 23 c-24 12 -45
27 -45 33 0 21 35 43 75 47 22 2 45 4 52 5 6 1 15 -2 18 -8z m14 -324 l-3 -44
-44 -6 c-72 -10 -102 -7 -102 8 0 7 -3 27 -6 44 -6 29 -4 31 27 35 19 2 56 5
82 5 l48 2 -2 -44z"/>
</g>
</svg>
