<?xml version="1.0" standalone="no"?>
<!DOCTYPE svg PUBLIC "-//W3C//DTD SVG 20010904//EN"
 "http://www.w3.org/TR/2001/REC-SVG-20010904/DTD/svg10.dtd">
<svg version="1.0" xmlns="http://www.w3.org/2000/svg"
 width="96.000000pt" height="68.000000pt" viewBox="0 0 96.000000 68.000000"
 preserveAspectRatio="xMidYMid meet">
<metadata>
Created by potrace 1.16, written by Peter Selinger 2001-2019
</metadata>
<g transform="translate(0.000000,68.000000) scale(0.100000,-0.100000)"
fill="#000000" stroke="none">
<path d="M650 279 c-30 -6 -73 -9 -95 -7 l-40 3 0 -102 c0 -68 4 -106 13 -114
10 -11 12 -10 12 4 0 15 12 17 83 17 79 0 84 -1 97 -25 7 -14 19 -25 26 -25
23 0 34 36 33 116 0 44 2 86 6 95 14 36 -47 53 -135 38z m80 -45 c6 -14 10
-27 10 -28 0 -2 -28 -6 -62 -10 -35 -4 -78 -9 -95 -13 -32 -5 -33 -4 -33 30 0
40 6 43 113 46 53 1 58 -1 67 -25z m10 -88 l0 -33 -77 -7 c-123 -10 -122 -10
-117 21 3 15 6 28 7 30 2 2 137 19 170 22 13 1 17 -7 17 -33z"/>
</g>
</svg>
