<?xml version="1.0" standalone="no"?>
<!DOCTYPE svg PUBLIC "-//W3C//DTD SVG 20010904//EN"
 "http://www.w3.org/TR/2001/REC-SVG-20010904/DTD/svg10.dtd">
<svg version="1.0" xmlns="http://www.w3.org/2000/svg"
 width="96.000000pt" height="68.000000pt" viewBox="0 0 96.000000 68.000000"
 preserveAspectRatio="xMidYMid meet">
<metadata>
Created by potrace 1.16, written by Peter Selinger 2001-2019
</metadata>
<g transform="translate(0.000000,68.000000) scale(0.100000,-0.100000)"
fill="#000000" stroke="none">
<path d="M550 605 c0 -36 -20 -55 -59 -55 -12 0 -21 -4 -21 -10 0 -5 16 -10
35 -10 33 0 34 -1 29 -32 l-6 -33 33 34 c27 30 40 35 93 40 45 4 61 10 61 21
0 11 -14 16 -53 18 -47 3 -52 5 -47 23 4 10 5 19 3 19 -2 0 -18 4 -36 9 -32 9
-32 9 -32 -24z"/>
<path d="M280 602 c0 -5 7 -17 15 -28 23 -31 19 -34 -50 -34 -70 0 -80 -10
-39 -36 21 -14 32 -15 72 -6 48 11 60 6 76 -32 7 -17 24 13 19 34 -4 14 3 20
26 25 47 10 47 25 2 25 -37 0 -41 3 -41 24 0 16 -7 26 -22 30 -32 8 -58 7 -58
-2z"/>
<path d="M430 470 c0 -22 -4 -29 -17 -28 -10 1 -42 0 -70 0 -84 -3 -63 -22 23
-22 65 0 75 -2 70 -16 -3 -9 -6 -18 -6 -20 0 -2 -25 -4 -55 -4 -30 0 -55 -4
-55 -10 0 -6 27 -10 60 -10 46 0 60 -3 60 -14 0 -16 -25 -21 -190 -34 -95 -7
-103 -9 -79 -21 20 -10 38 -10 85 -1 32 7 163 14 289 17 127 2 237 7 245 9 11
4 7 10 -14 21 -25 13 -46 14 -159 3 -105 -10 -131 -9 -138 1 -13 21 -3 26 63
33 91 9 98 26 10 26 -55 0 -72 3 -72 14 0 10 21 16 75 21 71 6 92 16 61 28
-11 4 -76 1 -121 -6 -5 -1 -9 6 -7 16 2 9 -1 17 -5 18 -4 0 -18 2 -30 5 -20 3
-23 0 -23 -26z"/>
<path d="M495 280 c-22 -5 -70 -9 -106 -11 l-66 -2 1 -62 c0 -34 -6 -80 -13
-103 -14 -43 -9 -76 11 -70 6 2 18 22 25 45 14 40 14 40 75 47 33 3 81 6 106
6 41 0 44 -2 38 -22 -3 -13 -6 -29 -6 -35 0 -8 -13 -13 -32 -13 l-32 0 29 -30
c59 -61 81 -28 87 128 6 140 0 145 -117 122z m65 -39 c0 -22 -15 -26 -121 -36
-52 -5 -68 -3 -72 8 -12 32 6 38 156 45 30 2 37 -1 37 -17z m6 -62 c12 -20
-10 -27 -108 -33 -93 -7 -98 -6 -98 13 0 24 17 28 122 30 46 0 80 -3 84 -10z"/>
</g>
</svg>
