<?xml version="1.0" standalone="no"?>
<!DOCTYPE svg PUBLIC "-//W3C//DTD SVG 20010904//EN"
 "http://www.w3.org/TR/2001/REC-SVG-20010904/DTD/svg10.dtd">
<svg version="1.0" xmlns="http://www.w3.org/2000/svg"
 width="96.000000pt" height="68.000000pt" viewBox="0 0 96.000000 68.000000"
 preserveAspectRatio="xMidYMid meet">
<metadata>
Created by potrace 1.16, written by Peter Selinger 2001-2019
</metadata>
<g transform="translate(0.000000,68.000000) scale(0.100000,-0.100000)"
fill="#000000" stroke="none">
<path d="M590 575 c-19 -51 -52 -85 -82 -85 -26 0 -28 -2 -18 -21 8 -13 9 -55
4 -125 l-7 -104 26 0 c14 0 37 4 52 10 21 8 140 15 193 11 20 -2 15 -99 -9
-148 -21 -44 -36 -51 -70 -33 -28 15 -23 -1 11 -38 23 -26 33 -31 47 -23 39
20 58 54 74 134 9 45 20 90 24 99 15 38 -77 48 -222 24 -82 -13 -83 -13 -83 8
0 18 6 22 38 22 67 1 152 15 152 26 0 10 -113 4 -167 -9 -18 -4 -23 -1 -23 15
0 17 9 22 45 28 25 3 60 3 78 0 31 -6 34 -3 67 51 19 32 36 61 38 64 2 4 -13
12 -32 19 -28 9 -48 9 -90 -1 -29 -6 -59 -10 -65 -8 -7 3 10 23 38 45 38 31
47 44 39 52 -20 20 -48 13 -58 -13z m100 -104 c0 -26 -3 -27 -87 -35 -65 -6
-71 -5 -69 11 2 14 18 20 72 29 38 6 72 12 77 13 4 0 7 -8 7 -18z m-10 -48
c-1 -22 -21 -31 -82 -36 -62 -6 -68 -5 -68 13 0 16 9 20 58 23 31 2 65 4 75 5
9 1 17 -1 17 -5z"/>
<path d="M284 528 c4 -24 10 -61 13 -84 l5 -41 -91 -13 c-96 -14 -121 -30 -47
-30 25 0 47 -3 49 -7 3 -5 6 -42 8 -83 4 -73 3 -75 -20 -78 -23 -4 -23 -2 -19
52 3 41 1 57 -10 61 -25 9 -32 5 -28 -17 3 -13 7 -42 10 -65 6 -41 6 -42 -26
-45 l-33 -3 27 -18 c27 -18 28 -18 110 15 46 18 83 38 83 43 0 6 -4 8 -10 6
-43 -16 -45 -14 -45 28 0 37 2 41 25 41 14 0 25 5 25 11 0 7 -10 9 -25 7 -23
-5 -25 -2 -25 33 0 34 3 39 24 39 21 0 26 -7 36 -52 22 -92 85 -188 124 -188
8 0 18 -9 21 -20 8 -25 31 -26 45 -1 13 25 13 81 0 81 -5 0 -10 -6 -10 -14 0
-7 -6 -19 -14 -25 -12 -10 -15 -4 -21 31 -7 42 -8 42 -23 20 -8 -12 -18 -22
-23 -22 -23 0 -78 161 -66 192 3 9 22 19 43 23 48 8 26 26 -23 18 l-33 -6 0
67 c0 62 -2 67 -26 76 -37 14 -37 14 -30 -32z"/>
<path d="M370 504 c0 -10 44 -43 58 -44 25 0 11 28 -19 39 -37 13 -39 13 -39
5z"/>
<path d="M177 463 c-49 -8 -25 -28 29 -25 60 3 77 9 69 22 -6 10 -44 11 -98 3z"/>
<path d="M695 190 c33 -34 55 -39 55 -12 0 19 -37 42 -67 42 -13 0 -10 -7 12
-30z"/>
<path d="M627 180 c20 -34 33 -39 33 -12 0 21 -19 42 -38 42 -10 0 -9 -7 5
-30z"/>
<path d="M550 189 c0 -17 20 -49 30 -49 14 0 12 34 -2 48 -15 15 -28 15 -28 1z"/>
</g>
</svg>
