<?xml version="1.0" standalone="no"?>
<!DOCTYPE svg PUBLIC "-//W3C//DTD SVG 20010904//EN"
 "http://www.w3.org/TR/2001/REC-SVG-20010904/DTD/svg10.dtd">
<svg version="1.0" xmlns="http://www.w3.org/2000/svg"
 width="96.000000pt" height="68.000000pt" viewBox="0 0 96.000000 68.000000"
 preserveAspectRatio="xMidYMid meet">
<metadata>
Created by potrace 1.16, written by Peter Selinger 2001-2019
</metadata>
<g transform="translate(0.000000,68.000000) scale(0.100000,-0.100000)"
fill="#000000" stroke="none">
<path d="M528 510 l5 -80 -47 0 c-29 0 -45 -4 -41 -10 3 -5 26 -10 49 -10 l43
0 -5 -52 c-2 -29 -7 -56 -11 -61 -4 -4 -35 -8 -69 -9 -68 -2 -81 -13 -29 -23
40 -8 69 -4 79 10 4 6 8 -1 8 -13 0 -41 -31 -91 -89 -143 -46 -40 -51 -48 -27
-39 51 19 81 41 106 78 14 21 28 39 31 42 4 3 11 21 16 40 l9 35 90 7 c49 3
112 4 141 2 29 -2 54 0 58 6 9 15 -44 32 -95 29 -43 -3 -45 -2 -43 24 1 15 11
40 22 56 12 16 21 33 21 38 0 14 -63 31 -86 23 -10 -4 -34 -11 -51 -14 l-33
-8 0 70 c0 54 -3 71 -16 76 -38 15 -41 9 -36 -74z m147 -117 c-12 -70 -26 -88
-69 -91 l-39 -3 7 57 c3 31 8 60 11 63 2 4 25 8 51 10 l46 2 -7 -38z"/>
<path d="M260 561 c16 -32 61 -61 91 -61 24 0 29 4 29 26 0 19 -8 28 -35 40
-19 7 -48 14 -65 14 -27 0 -30 -2 -20 -19z"/>
<path d="M286 441 c-3 -4 -29 -11 -58 -15 -126 -16 -142 -24 -90 -45 22 -9 40
-7 91 9 36 11 67 17 69 15 10 -9 -119 -152 -178 -197 -30 -23 -32 -27 -14 -28
18 0 63 26 133 77 l24 17 -7 -69 c-11 -108 -10 -135 3 -148 24 -24 41 20 41
109 0 46 4 85 9 88 4 3 16 -3 26 -14 21 -23 41 -26 48 -7 7 19 -3 33 -38 51
-20 11 -24 16 -12 16 10 0 34 7 54 15 30 13 33 17 23 30 -18 22 -40 18 -72
-12 -15 -14 -31 -23 -35 -19 -4 4 14 28 41 54 l48 46 -22 18 c-23 19 -75 24
-84 9z"/>
<path d="M660 174 c69 -76 73 -80 103 -99 l27 -17 0 29 c0 48 -63 101 -150
128 -22 7 -19 2 20 -41z"/>
</g>
</svg>
