<?xml version="1.0" standalone="no"?>
<!DOCTYPE svg PUBLIC "-//W3C//DTD SVG 20010904//EN"
 "http://www.w3.org/TR/2001/REC-SVG-20010904/DTD/svg10.dtd">
<svg version="1.0" xmlns="http://www.w3.org/2000/svg"
 width="96.000000pt" height="68.000000pt" viewBox="0 0 96.000000 68.000000"
 preserveAspectRatio="xMidYMid meet">
<metadata>
Created by potrace 1.16, written by Peter Selinger 2001-2019
</metadata>
<g transform="translate(0.000000,68.000000) scale(0.100000,-0.100000)"
fill="#000000" stroke="none">
<path d="M260 571 c0 -13 68 -71 84 -71 8 0 19 7 26 15 17 21 -1 42 -49 55
-45 12 -61 13 -61 1z"/>
<path d="M277 435 c-20 -8 -64 -17 -97 -21 -33 -4 -60 -10 -60 -15 0 -18 49
-20 107 -5 34 9 64 16 67 16 22 0 -7 -41 -93 -129 -103 -106 -102 -124 2 -44
33 24 62 42 65 38 3 -3 0 -40 -7 -83 -15 -94 -15 -112 -2 -125 21 -21 31 9 37
111 l7 103 33 -32 c30 -29 34 -30 40 -14 7 18 -28 54 -52 55 -6 0 -16 6 -23
13 -8 10 0 24 34 58 25 24 45 49 45 55 0 10 -43 35 -58 33 -4 0 -24 -7 -45
-14z"/>
<path d="M335 328 l-30 -31 27 6 c65 17 81 27 68 42 -18 22 -31 18 -65 -17z"/>
</g>
</svg>
