<?xml version="1.0" standalone="no"?>
<!DOCTYPE svg PUBLIC "-//W3C//DTD SVG 20010904//EN"
 "http://www.w3.org/TR/2001/REC-SVG-20010904/DTD/svg10.dtd">
<svg version="1.0" xmlns="http://www.w3.org/2000/svg"
 width="96.000000pt" height="68.000000pt" viewBox="0 0 96.000000 68.000000"
 preserveAspectRatio="xMidYMid meet">
<metadata>
Created by potrace 1.16, written by Peter Selinger 2001-2019
</metadata>
<g transform="translate(0.000000,68.000000) scale(0.100000,-0.100000)"
fill="#000000" stroke="none">
<path d="M627 435 c-27 -7 -49 -9 -53 -4 -7 12 -42 11 -46 -1 -2 -6 -23 -14
-48 -19 l-45 -9 43 -1 c28 -1 45 -6 49 -16 8 -23 1 -26 -77 -35 -39 -4 -74
-10 -77 -13 -13 -13 54 -19 95 -8 48 13 62 9 62 -18 0 -20 -26 -30 -75 -31
-26 -1 -28 -2 -11 -11 10 -6 33 -9 51 -6 18 3 38 0 43 -5 8 -8 13 -7 18 5 5
13 19 17 59 17 59 0 88 8 79 21 -3 5 -2 18 1 29 5 17 15 20 65 20 58 0 85 12
54 24 -9 3 -33 6 -55 6 -37 0 -39 1 -28 21 20 39 -29 55 -104 34z m43 -45 c0
-17 -7 -20 -50 -20 -35 0 -50 4 -50 13 0 22 11 27 57 27 36 0 43 -3 43 -20z
m-10 -53 c0 -22 -23 -37 -57 -37 -25 0 -33 4 -33 18 0 27 9 32 52 32 24 0 38
-5 38 -13z"/>
</g>
</svg>
