<?xml version="1.0" standalone="no"?>
<!DOCTYPE svg PUBLIC "-//W3C//DTD SVG 20010904//EN"
 "http://www.w3.org/TR/2001/REC-SVG-20010904/DTD/svg10.dtd">
<svg version="1.0" xmlns="http://www.w3.org/2000/svg"
 width="96.000000pt" height="68.000000pt" viewBox="0 0 96.000000 68.000000"
 preserveAspectRatio="xMidYMid meet">
<metadata>
Created by potrace 1.16, written by Peter Selinger 2001-2019
</metadata>
<g transform="translate(0.000000,68.000000) scale(0.100000,-0.100000)"
fill="#000000" stroke="none">
<path d="M707 554 c-2 -3 -60 -9 -128 -14 -185 -15 -217 -20 -196 -31 15 -9
17 -30 17 -175 0 -258 10 -269 235 -269 151 0 219 9 212 28 -4 14 -65 15 -218
3 -91 -7 -111 -6 -142 9 -29 14 -38 24 -43 54 -7 36 10 329 20 338 3 3 73 11
156 18 83 6 153 15 157 18 3 4 4 7 2 7 -2 0 -18 4 -36 9 -17 5 -33 7 -36 5z"/>
</g>
</svg>
