<?xml version="1.0" standalone="no"?>
<!DOCTYPE svg PUBLIC "-//W3C//DTD SVG 20010904//EN"
 "http://www.w3.org/TR/2001/REC-SVG-20010904/DTD/svg10.dtd">
<svg version="1.0" xmlns="http://www.w3.org/2000/svg"
 width="96.000000pt" height="68.000000pt" viewBox="0 0 96.000000 68.000000"
 preserveAspectRatio="xMidYMid meet">
<metadata>
Created by potrace 1.16, written by Peter Selinger 2001-2019
</metadata>
<g transform="translate(0.000000,68.000000) scale(0.100000,-0.100000)"
fill="#000000" stroke="none">
<path d="M384 308 c-9 -31 -13 -33 -69 -39 -33 -4 -90 -7 -127 -8 -68 -1 -90
-15 -42 -27 14 -4 67 -3 117 1 90 7 91 7 74 -12 -30 -34 -22 -50 31 -58 77
-10 82 -20 26 -48 -28 -14 -76 -32 -108 -40 -70 -19 -81 -27 -35 -27 53 1 118
17 181 46 l56 27 76 -42 c83 -46 106 -50 106 -22 0 25 -35 53 -94 75 -25 10
-46 24 -46 32 0 8 4 14 8 14 5 0 17 15 27 34 22 41 41 46 171 46 91 0 118 10
72 26 -13 5 -68 9 -123 9 -55 1 -112 5 -127 9 -22 7 -28 5 -28 -8 0 -13 -11
-16 -50 -16 -47 0 -63 11 -40 25 15 9 -7 35 -30 35 -11 0 -21 -12 -26 -32z
m125 -93 c-28 -46 -30 -48 -94 -40 -60 8 -66 17 -33 52 18 19 32 23 84 23 l63
0 -20 -35z"/>
</g>
</svg>
