<?xml version="1.0" standalone="no"?>
<!DOCTYPE svg PUBLIC "-//W3C//DTD SVG 20010904//EN"
 "http://www.w3.org/TR/2001/REC-SVG-20010904/DTD/svg10.dtd">
<svg version="1.0" xmlns="http://www.w3.org/2000/svg"
 width="96.000000pt" height="68.000000pt" viewBox="0 0 96.000000 68.000000"
 preserveAspectRatio="xMidYMid meet">
<metadata>
Created by potrace 1.16, written by Peter Selinger 2001-2019
</metadata>
<g transform="translate(0.000000,68.000000) scale(0.100000,-0.100000)"
fill="#000000" stroke="none">
<path d="M530 554 c0 -12 35 -64 43 -64 4 0 6 -4 3 -9 -3 -5 -36 -12 -72 -16
-47 -5 -63 -10 -55 -18 7 -7 49 -6 145 6 141 16 161 21 150 39 -6 10 -86 4
-119 -8 -11 -5 -15 1 -15 19 0 15 -9 32 -22 41 -22 16 -58 22 -58 10z"/>
</g>
</svg>
