<?xml version="1.0" standalone="no"?>
<!DOCTYPE svg PUBLIC "-//W3C//DTD SVG 20010904//EN"
 "http://www.w3.org/TR/2001/REC-SVG-20010904/DTD/svg10.dtd">
<svg version="1.0" xmlns="http://www.w3.org/2000/svg"
 width="96.000000pt" height="68.000000pt" viewBox="0 0 96.000000 68.000000"
 preserveAspectRatio="xMidYMid meet">
<metadata>
Created by potrace 1.16, written by Peter Selinger 2001-2019
</metadata>
<g transform="translate(0.000000,68.000000) scale(0.100000,-0.100000)"
fill="#000000" stroke="none">
<path d="M595 171 c0 -55 -3 -103 -7 -107 -5 -4 -20 -2 -34 5 l-26 11 24 -29
c12 -17 30 -30 39 -30 33 -2 44 29 47 140 4 109 4 109 -19 109 -24 0 -24 -2
-24 -99z"/>
<path d="M706 191 c9 -15 31 -46 50 -67 29 -35 33 -37 40 -20 10 26 -13 65
-55 93 -45 31 -56 29 -35 -6z"/>
<path d="M502 186 c-6 -13 -25 -40 -42 -60 -18 -20 -29 -36 -25 -36 15 0 52
25 87 58 29 27 35 39 27 49 -17 20 -35 16 -47 -11z"/>
</g>
</svg>
