<?xml version="1.0" standalone="no"?>
<!DOCTYPE svg PUBLIC "-//W3C//DTD SVG 20010904//EN"
 "http://www.w3.org/TR/2001/REC-SVG-20010904/DTD/svg10.dtd">
<svg version="1.0" xmlns="http://www.w3.org/2000/svg"
 width="90.000000pt" height="92.000000pt" viewBox="0 0 90.000000 92.000000"
 preserveAspectRatio="xMidYMid meet">
<metadata>
Created by potrace 1.16, written by Peter Selinger 2001-2019
</metadata>
<g transform="translate(0.000000,92.000000) scale(0.100000,-0.100000)"
fill="#000000" stroke="none">
<path d="M668 759 c-43 -11 -231 -30 -309 -30 -67 0 -69 -1 -58 -21 19 -35 22
-176 10 -361 -9 -129 -9 -181 -1 -196 12 -24 30 -28 30 -7 0 14 39 20 228 32
l102 7 18 -41 c9 -23 22 -42 29 -42 19 0 53 41 54 64 5 172 -2 560 -11 571
-17 21 -62 33 -92 24z m24 -61 c13 -25 25 -417 14 -463 -6 -22 -9 -23 -31 -13
-18 8 -47 8 -112 0 -48 -7 -116 -15 -151 -18 l-63 -7 7 244 c3 134 7 245 8
246 0 0 31 4 69 8 l67 7 0 -43 c0 -79 -6 -88 -63 -95 -45 -6 -48 -8 -32 -20
11 -8 31 -14 47 -14 30 0 31 -4 21 -63 -6 -38 -6 -38 -44 -32 l-38 7 20 -38
c10 -21 19 -48 19 -60 0 -39 19 -77 33 -66 6 5 35 13 62 16 82 12 97 17 86 30
-7 8 -3 24 14 52 31 51 31 59 -4 74 -21 8 -39 9 -67 1 -22 -6 -42 -11 -45 -11
-3 0 -1 22 5 49 l10 50 66 11 c82 14 97 22 75 40 -13 11 -27 11 -68 3 -29 -6
-54 -9 -57 -6 -2 2 3 25 12 51 12 32 14 50 7 58 -12 14 10 20 78 23 34 1 45
-3 55 -21z m-112 -295 c0 -45 -13 -63 -50 -74 -55 -17 -70 -8 -70 40 0 36 3
40 28 44 67 10 92 7 92 -10z"/>
<path d="M140 751 c0 -4 10 -21 22 -37 54 -70 98 -86 98 -36 0 33 -21 54 -69
71 -41 13 -51 14 -51 2z"/>
<path d="M69 563 c5 -10 25 -33 45 -52 41 -40 66 -37 66 9 0 26 -6 33 -35 46
-19 7 -46 14 -60 14 -21 0 -24 -3 -16 -17z"/>
<path d="M193 392 c-23 -48 -58 -104 -77 -124 -36 -40 -38 -59 -7 -117 17 -31
29 -26 41 20 6 23 31 95 56 160 43 116 51 150 37 148 -5 0 -27 -39 -50 -87z"/>
</g>
</svg>
