<?xml version="1.0" standalone="no"?>
<!DOCTYPE svg PUBLIC "-//W3C//DTD SVG 20010904//EN"
 "http://www.w3.org/TR/2001/REC-SVG-20010904/DTD/svg10.dtd">
<svg version="1.0" xmlns="http://www.w3.org/2000/svg"
 width="96.000000pt" height="68.000000pt" viewBox="0 0 96.000000 68.000000"
 preserveAspectRatio="xMidYMid meet">
<metadata>
Created by potrace 1.16, written by Peter Selinger 2001-2019
</metadata>
<g transform="translate(0.000000,68.000000) scale(0.100000,-0.100000)"
fill="#000000" stroke="none">
<path d="M516 282 c-3 -6 -1 -12 6 -14 14 -5 19 -58 6 -58 -5 0 -8 -6 -6 -12
5 -13 -18 -42 -37 -49 -6 -2 -3 -12 7 -21 17 -17 18 -17 18 5 0 17 2 19 9 8
14 -21 40 48 36 93 -3 21 0 34 5 31 6 -4 10 -1 10 5 0 7 -6 10 -14 7 -7 -3
-18 -1 -24 5 -6 6 -12 6 -16 0z"/>
</g>
</svg>
