<?xml version="1.0" standalone="no"?>
<!DOCTYPE svg PUBLIC "-//W3C//DTD SVG 20010904//EN"
 "http://www.w3.org/TR/2001/REC-SVG-20010904/DTD/svg10.dtd">
<svg version="1.0" xmlns="http://www.w3.org/2000/svg"
 width="96.000000pt" height="68.000000pt" viewBox="0 0 96.000000 68.000000"
 preserveAspectRatio="xMidYMid meet">
<metadata>
Created by potrace 1.16, written by Peter Selinger 2001-2019
</metadata>
<g transform="translate(0.000000,68.000000) scale(0.100000,-0.100000)"
fill="#000000" stroke="none">
<path d="M496 578 c-14 -58 -43 -131 -67 -170 -34 -56 -28 -60 21 -15 32 31
47 36 162 57 70 13 125 27 123 30 -12 19 -70 17 -149 -4 -47 -13 -86 -21 -86
-18 0 2 12 26 26 53 15 26 24 55 21 63 -8 19 -46 21 -51 4z"/>
</g>
</svg>
