<?xml version="1.0" standalone="no"?>
<!DOCTYPE svg PUBLIC "-//W3C//DTD SVG 20010904//EN"
 "http://www.w3.org/TR/2001/REC-SVG-20010904/DTD/svg10.dtd">
<svg version="1.0" xmlns="http://www.w3.org/2000/svg"
 width="96.000000pt" height="68.000000pt" viewBox="0 0 96.000000 68.000000"
 preserveAspectRatio="xMidYMid meet">
<metadata>
Created by potrace 1.16, written by Peter Selinger 2001-2019
</metadata>
<g transform="translate(0.000000,68.000000) scale(0.100000,-0.100000)"
fill="#000000" stroke="none">
<path d="M424 318 c7 -42 1 -51 -54 -76 l-45 -22 48 3 47 2 0 -37 c0 -62 14
-84 66 -104 93 -35 317 -20 358 25 13 15 13 22 -2 63 l-17 47 -20 -42 c-29
-61 -58 -72 -190 -71 -60 0 -122 6 -137 12 -26 11 -28 16 -28 67 0 49 3 57 25
67 31 14 35 42 4 33 -20 -7 -21 -4 -15 20 7 29 -4 45 -33 45 -10 0 -12 -9 -7
-32z"/>
</g>
</svg>
