<?xml version="1.0" standalone="no"?>
<!DOCTYPE svg PUBLIC "-//W3C//DTD SVG 20010904//EN"
 "http://www.w3.org/TR/2001/REC-SVG-20010904/DTD/svg10.dtd">
<svg version="1.0" xmlns="http://www.w3.org/2000/svg"
 width="96.000000pt" height="68.000000pt" viewBox="0 0 96.000000 68.000000"
 preserveAspectRatio="xMidYMid meet">
<metadata>
Created by potrace 1.16, written by Peter Selinger 2001-2019
</metadata>
<g transform="translate(0.000000,68.000000) scale(0.100000,-0.100000)"
fill="#000000" stroke="none">
<path d="M682 308 c-36 -6 -60 -14 -56 -20 5 -8 42 -6 118 6 5 0 12 -14 16
-31 7 -31 6 -33 -29 -38 -20 -3 -49 -10 -66 -14 -25 -8 -19 -9 33 -10 l63 -1
-3 -37 -3 -38 -132 -9 c-73 -4 -140 -6 -148 -2 -9 3 -15 18 -15 34 0 28 3 30
50 36 28 4 50 12 50 17 0 8 -18 9 -53 5 l-54 -7 -9 33 c-7 23 -16 34 -32 36
-22 3 -23 2 -9 -25 8 -15 20 -61 27 -100 12 -73 25 -97 40 -73 5 9 47 15 122
20 l113 7 22 -26 22 -26 21 21 c16 16 24 45 36 125 13 96 13 105 -3 117 -19
14 -31 14 -121 0z"/>
</g>
</svg>
