<?xml version="1.0" standalone="no"?>
<!DOCTYPE svg PUBLIC "-//W3C//DTD SVG 20010904//EN"
 "http://www.w3.org/TR/2001/REC-SVG-20010904/DTD/svg10.dtd">
<svg version="1.0" xmlns="http://www.w3.org/2000/svg"
 width="96.000000pt" height="68.000000pt" viewBox="0 0 96.000000 68.000000"
 preserveAspectRatio="xMidYMid meet">
<metadata>
Created by potrace 1.16, written by Peter Selinger 2001-2019
</metadata>
<g transform="translate(0.000000,68.000000) scale(0.100000,-0.100000)"
fill="#000000" stroke="none">
<path d="M560 560 c0 -18 32 -69 47 -74 18 -7 43 4 43 19 0 7 -8 22 -17 33
-21 25 -73 40 -73 22z"/>
<path d="M700 480 c-94 -16 -240 -23 -240 -11 0 26 -17 7 -39 -45 -17 -39 -21
-58 -13 -66 14 -14 32 -1 47 36 12 29 20 33 77 44 35 6 96 14 136 18 59 6 72
4 72 -8 0 -8 -5 -19 -12 -26 -6 -6 -10 -13 -7 -16 9 -8 119 18 119 29 0 12
-71 56 -86 54 -5 -1 -29 -5 -54 -9z"/>
</g>
</svg>
