<?xml version="1.0" standalone="no"?>
<!DOCTYPE svg PUBLIC "-//W3C//DTD SVG 20010904//EN"
 "http://www.w3.org/TR/2001/REC-SVG-20010904/DTD/svg10.dtd">
<svg version="1.0" xmlns="http://www.w3.org/2000/svg"
 width="90.000000pt" height="92.000000pt" viewBox="0 0 90.000000 92.000000"
 preserveAspectRatio="xMidYMid meet">
<metadata>
Created by potrace 1.16, written by Peter Selinger 2001-2019
</metadata>
<g transform="translate(0.000000,92.000000) scale(0.100000,-0.100000)"
fill="#000000" stroke="none">
<path d="M185 823 c10 -27 25 -132 25 -185 l0 -47 -52 -10 c-29 -5 -72 -13
-96 -16 -37 -6 -41 -9 -30 -22 10 -12 26 -14 85 -9 40 4 73 5 73 2 0 -36 -116
-230 -164 -275 -34 -32 -33 -45 2 -27 38 20 109 93 139 144 14 23 27 42 30 42
8 0 -6 -186 -18 -240 -8 -35 -7 -53 7 -88 15 -41 18 -43 33 -28 13 14 17 48
21 198 l5 182 33 -42 c38 -47 47 -50 62 -23 16 31 2 50 -51 68 -48 17 -49 18
-49 60 0 38 3 43 28 49 75 17 86 21 90 32 6 18 -44 33 -74 22 -14 -6 -27 -10
-30 -10 -7 0 -4 101 5 153 7 44 6 50 -17 67 -32 26 -67 27 -57 3z"/>
<path d="M510 737 c0 -8 18 -39 39 -70 46 -65 52 -58 -83 -81 -49 -9 -91 -17
-93 -19 -2 -2 4 -10 12 -17 19 -15 63 -18 117 -6 l36 8 -9 -44 c-22 -96 -100
-229 -183 -307 -20 -19 -36 -39 -36 -43 0 -12 65 17 105 48 40 30 127 156 145
208 l11 34 52 -17 c43 -15 53 -22 55 -45 7 -54 -61 -230 -93 -242 -8 -4 -35 1
-61 10 l-46 15 17 -26 c10 -14 26 -41 37 -60 26 -44 52 -42 99 7 31 32 45 62
73 149 19 59 41 123 50 140 16 31 16 32 -10 56 -15 14 -39 25 -53 25 -14 0
-42 3 -62 6 -35 6 -35 7 -35 54 l0 48 115 12 c144 14 147 15 130 36 -24 29
-56 34 -122 19 -84 -20 -87 -19 -87 14 0 47 -10 62 -57 82 -53 23 -63 23 -63
6z"/>
</g>
</svg>
