<?xml version="1.0" standalone="no"?>
<!DOCTYPE svg PUBLIC "-//W3C//DTD SVG 20010904//EN"
 "http://www.w3.org/TR/2001/REC-SVG-20010904/DTD/svg10.dtd">
<svg version="1.0" xmlns="http://www.w3.org/2000/svg"
 width="90.000000pt" height="92.000000pt" viewBox="0 0 90.000000 92.000000"
 preserveAspectRatio="xMidYMid meet">
<metadata>
Created by potrace 1.16, written by Peter Selinger 2001-2019
</metadata>
<g transform="translate(0.000000,92.000000) scale(0.100000,-0.100000)"
fill="#000000" stroke="none">
<path d="M538 882 c-49 -9 -88 -19 -88 -23 0 -15 31 -18 87 -9 97 16 93 19 93
-56 0 -84 -11 -105 -50 -98 l-29 6 37 -41 c37 -42 37 -42 54 -21 9 11 20 42
23 68 3 26 10 72 15 102 10 51 9 56 -12 72 -13 10 -27 17 -33 16 -5 0 -49 -8
-97 -16z"/>
<path d="M253 861 c-45 -9 -85 -19 -88 -23 -14 -13 41 -19 85 -9 25 6 57 11
73 11 27 0 27 -1 27 -64 0 -83 -5 -96 -42 -96 l-29 0 36 -37 c34 -37 36 -37
50 -19 8 11 17 33 19 50 3 17 9 63 15 101 10 67 9 71 -12 87 -26 20 -27 20
-134 -1z"/>
<path d="M470 811 c0 -14 41 -41 62 -41 27 0 23 36 -4 44 -34 9 -58 7 -58 -3z"/>
<path d="M228 770 c37 -34 50 -37 59 -14 8 22 -22 44 -61 44 l-31 -1 33 -29z"/>
<path d="M507 728 c-74 -30 -76 -32 -61 -50 10 -10 21 -18 26 -18 11 0 112 79
116 91 5 11 10 13 -81 -23z"/>
<path d="M238 707 c-43 -17 -78 -34 -78 -39 0 -5 11 -13 25 -20 22 -10 30 -6
80 32 30 23 55 46 55 51 0 5 -1 8 -2 8 -2 -1 -38 -15 -80 -32z"/>
<path d="M450 609 c-63 -10 -143 -19 -178 -19 -61 -2 -63 -3 -47 -20 16 -17
49 -127 60 -197 l5 -31 -62 -7 c-57 -7 -60 -9 -42 -22 13 -10 35 -13 66 -10
45 4 47 3 53 -25 4 -16 4 -32 2 -35 -3 -3 -58 -8 -122 -12 -63 -3 -116 -10
-117 -16 -2 -5 10 -16 26 -24 24 -11 43 -11 130 4 67 12 182 19 344 23 133 2
245 9 248 13 3 5 -10 18 -28 29 -26 17 -43 20 -83 15 -27 -3 -78 -8 -112 -12
l-62 -6 11 37 11 36 64 0 c35 0 63 4 63 9 0 19 -34 35 -70 34 -26 -1 -43 4
-56 18 -9 10 -23 19 -31 19 -7 0 -13 5 -13 11 0 6 11 8 28 4 26 -5 29 -2 65
77 20 46 37 86 37 90 0 9 -55 39 -67 37 -4 -1 -60 -10 -123 -20z m105 -50 c0
-22 -4 -24 -56 -24 -39 0 -55 4 -52 11 2 7 -2 16 -9 20 -8 6 6 11 42 15 72 7
75 6 75 -22z m-161 -5 c10 -26 -3 -34 -55 -34 -42 0 -49 3 -49 19 0 30 93 43
104 15z m149 -71 c-4 -26 -8 -28 -54 -28 -44 0 -49 2 -49 22 0 18 7 23 38 26
20 2 44 4 53 5 12 2 15 -5 12 -25z m-143 -13 c0 -39 -93 -41 -98 -2 -3 20 0
22 47 22 44 0 51 -3 51 -20z m98 -79 c2 -27 -1 -29 -44 -35 -76 -10 -104 -8
-104 9 0 9 -12 21 -27 27 -27 12 -26 12 27 18 30 4 75 7 100 8 44 2 46 1 48
-27z m2 -90 c0 -45 -9 -51 -80 -51 -67 0 -68 0 -72 30 -5 34 2 36 95 39 50 1
57 -1 57 -18z"/>
<path d="M290 177 c0 -18 -64 -72 -133 -112 -55 -32 -55 -42 0 -25 47 15 213
101 213 111 0 11 -24 27 -53 34 -21 6 -27 4 -27 -8z"/>
<path d="M511 183 c1 -5 34 -39 75 -76 81 -75 107 -82 112 -31 4 39 -24 64
-104 94 -57 21 -85 25 -83 13z"/>
</g>
</svg>
