<?xml version="1.0" standalone="no"?>
<!DOCTYPE svg PUBLIC "-//W3C//DTD SVG 20010904//EN"
 "http://www.w3.org/TR/2001/REC-SVG-20010904/DTD/svg10.dtd">
<svg version="1.0" xmlns="http://www.w3.org/2000/svg"
 width="96.000000pt" height="68.000000pt" viewBox="0 0 96.000000 68.000000"
 preserveAspectRatio="xMidYMid meet">
<metadata>
Created by potrace 1.16, written by Peter Selinger 2001-2019
</metadata>
<g transform="translate(0.000000,68.000000) scale(0.100000,-0.100000)"
fill="#000000" stroke="none">
<path d="M400 608 c-19 -5 -57 -7 -84 -4 l-48 5 6 -51 c4 -28 10 -63 12 -78 5
-24 2 -28 -26 -34 -18 -3 -48 -6 -66 -6 -19 0 -34 -5 -34 -11 0 -8 21 -10 71
-5 69 7 70 7 60 -13 -6 -11 -19 -24 -28 -29 -25 -15 -9 -46 20 -37 12 4 57 16
100 28 67 18 80 19 87 6 8 -11 11 -12 22 -1 11 11 9 17 -11 33 -27 22 -53 25
-45 6 3 -10 -12 -17 -51 -26 -31 -7 -60 -10 -63 -6 -4 4 -1 10 6 12 6 3 12 13
12 24 0 11 7 19 18 19 60 2 139 13 147 22 7 7 -19 8 -82 4 -76 -6 -93 -4 -93
7 0 10 20 16 72 20 39 3 76 11 82 18 8 9 -8 10 -66 6 -100 -7 -111 8 -13 18
41 4 77 10 80 15 10 16 -34 21 -92 11 -68 -13 -63 -13 -63 -3 0 5 36 13 81 19
85 11 95 15 84 32 -8 13 -48 13 -95 -1z"/>
<path d="M639 580 c-14 -16 -45 -40 -70 -54 -72 -42 -18 -30 70 15 83 42 104
70 54 68 -17 0 -38 -12 -54 -29z"/>
<path d="M660 506 c-14 -13 -47 -36 -75 -50 -27 -14 -45 -26 -39 -26 26 0 174
59 194 77 7 6 -22 23 -40 23 -9 0 -27 -11 -40 -24z"/>
<path d="M690 441 c0 -9 -88 -66 -119 -76 -12 -3 -21 -10 -21 -15 0 -5 28 3
63 17 34 14 76 30 92 37 50 19 59 27 44 37 -18 11 -59 12 -59 0z"/>
<path d="M440 354 c7 -10 20 -24 28 -31 10 -9 -3 -13 -63 -18 -42 -4 -91 -5
-110 -2 -31 5 -36 2 -55 -30 -11 -20 -20 -43 -18 -52 6 -28 32 -18 50 19 15
30 24 35 55 38 21 1 111 9 199 17 89 8 167 15 173 15 16 0 14 -21 -6 -42 -15
-17 -15 -18 0 -18 27 0 107 24 107 31 0 4 -12 17 -27 29 -26 20 -34 21 -142
15 -108 -7 -115 -6 -130 13 -9 11 -29 24 -46 28 -28 7 -29 6 -15 -12z"/>
<path d="M445 245 c-100 -15 -78 -31 28 -21 91 9 118 16 111 27 -6 11 -35 10
-139 -6z"/>
<path d="M460 188 c-118 -11 -217 -22 -219 -24 -8 -8 8 -16 31 -17 13 0 57 3
99 8 l77 8 4 -39 c6 -47 -6 -74 -33 -74 -18 0 -16 -4 12 -27 l32 -27 18 23
c23 28 27 137 7 144 -7 2 34 7 92 11 58 4 113 4 123 0 12 -4 17 -1 17 10 0 9
-4 16 -9 16 -5 0 -15 2 -23 4 -7 2 -110 -5 -228 -16z"/>
<path d="M639 76 c31 -31 59 -52 67 -49 34 13 -1 64 -62 89 -59 25 -60 15 -5
-40z"/>
<path d="M291 79 c-18 -22 -30 -43 -27 -46 10 -10 90 51 94 70 6 31 -32 18
-67 -24z"/>
</g>
</svg>
