<?xml version="1.0" standalone="no"?>
<!DOCTYPE svg PUBLIC "-//W3C//DTD SVG 20010904//EN"
 "http://www.w3.org/TR/2001/REC-SVG-20010904/DTD/svg10.dtd">
<svg version="1.0" xmlns="http://www.w3.org/2000/svg"
 width="96.000000pt" height="68.000000pt" viewBox="0 0 96.000000 68.000000"
 preserveAspectRatio="xMidYMid meet">
<metadata>
Created by potrace 1.16, written by Peter Selinger 2001-2019
</metadata>
<g transform="translate(0.000000,68.000000) scale(0.100000,-0.100000)"
fill="#000000" stroke="none">
<path d="M566 204 c5 -20 1 -23 -48 -29 -40 -6 -48 -10 -33 -16 11 -4 35 -5
53 -2 l32 5 0 -58 c0 -72 20 -61 28 15 l5 51 53 0 c29 0 56 5 59 10 4 6 -15
10 -49 10 -49 0 -56 2 -56 20 0 15 -6 19 -25 18 -20 -2 -23 -6 -19 -24z"/>
</g>
</svg>
