<?xml version="1.0" standalone="no"?>
<!DOCTYPE svg PUBLIC "-//W3C//DTD SVG 20010904//EN"
 "http://www.w3.org/TR/2001/REC-SVG-20010904/DTD/svg10.dtd">
<svg version="1.0" xmlns="http://www.w3.org/2000/svg"
 width="96.000000pt" height="68.000000pt" viewBox="0 0 96.000000 68.000000"
 preserveAspectRatio="xMidYMid meet">
<metadata>
Created by potrace 1.16, written by Peter Selinger 2001-2019
</metadata>
<g transform="translate(0.000000,68.000000) scale(0.100000,-0.100000)"
fill="#000000" stroke="none">
<path d="M600 350 c-80 -10 -160 -15 -178 -12 -32 5 -32 4 -22 -24 8 -20 8
-53 0 -117 -11 -94 -7 -127 15 -127 14 0 22 57 28 180 l2 54 75 13 c41 7 113
14 160 15 l85 3 0 -107 c0 -131 -10 -149 -68 -125 l-35 15 31 -44 c35 -50 58
-55 91 -19 26 28 32 50 42 165 4 41 10 83 15 92 7 12 2 22 -17 37 -31 24 -31
24 -224 1z"/>
</g>
</svg>
