<?xml version="1.0" standalone="no"?>
<!DOCTYPE svg PUBLIC "-//W3C//DTD SVG 20010904//EN"
 "http://www.w3.org/TR/2001/REC-SVG-20010904/DTD/svg10.dtd">
<svg version="1.0" xmlns="http://www.w3.org/2000/svg"
 width="96.000000pt" height="68.000000pt" viewBox="0 0 96.000000 68.000000"
 preserveAspectRatio="xMidYMid meet">
<metadata>
Created by potrace 1.16, written by Peter Selinger 2001-2019
</metadata>
<g transform="translate(0.000000,68.000000) scale(0.100000,-0.100000)"
fill="#000000" stroke="none">
<path d="M570 516 c0 -70 -6 -76 -77 -76 -18 0 -33 -4 -33 -10 0 -5 23 -10 50
-10 l50 0 0 -36 c0 -47 28 -43 44 6 11 33 14 35 75 45 75 12 98 39 31 37 -3 0
-25 -3 -49 -7 l-43 -7 7 33 c4 19 11 38 16 44 14 14 11 21 -16 33 -49 23 -55
17 -55 -52z"/>
</g>
</svg>
