<?xml version="1.0" standalone="no"?>
<!DOCTYPE svg PUBLIC "-//W3C//DTD SVG 20010904//EN"
 "http://www.w3.org/TR/2001/REC-SVG-20010904/DTD/svg10.dtd">
<svg version="1.0" xmlns="http://www.w3.org/2000/svg"
 width="96.000000pt" height="68.000000pt" viewBox="0 0 96.000000 68.000000"
 preserveAspectRatio="xMidYMid meet">
<metadata>
Created by potrace 1.16, written by Peter Selinger 2001-2019
</metadata>
<g transform="translate(0.000000,68.000000) scale(0.100000,-0.100000)"
fill="#000000" stroke="none">
<path d="M429 223 c-1 -4 -1 -12 0 -17 1 -5 -3 -12 -8 -15 -15 -9 -1 -51 16
-51 8 0 13 6 11 12 -6 17 36 37 64 32 21 -4 21 -4 3 5 -11 5 -30 7 -42 4 -16
-4 -23 -1 -23 10 0 16 -19 34 -21 20z"/>
<path d="M365 170 c-3 -5 -1 -10 4 -10 6 0 11 5 11 10 0 6 -2 10 -4 10 -3 0
-8 -4 -11 -10z"/>
<path d="M426 118 c2 -3 -4 -8 -13 -11 -10 -2 23 -3 72 -2 109 1 121 17 13 19
-42 0 -74 -2 -72 -6z"/>
<path d="M605 110 c3 -5 8 -10 11 -10 2 0 4 5 4 10 0 6 -5 10 -11 10 -5 0 -7
-4 -4 -10z"/>
<path d="M358 103 c7 -3 16 -2 19 1 4 3 -2 6 -13 5 -11 0 -14 -3 -6 -6z"/>
</g>
</svg>
