<?xml version="1.0" standalone="no"?>
<!DOCTYPE svg PUBLIC "-//W3C//DTD SVG 20010904//EN"
 "http://www.w3.org/TR/2001/REC-SVG-20010904/DTD/svg10.dtd">
<svg version="1.0" xmlns="http://www.w3.org/2000/svg"
 width="90.000000pt" height="92.000000pt" viewBox="0 0 90.000000 92.000000"
 preserveAspectRatio="xMidYMid meet">
<metadata>
Created by potrace 1.16, written by Peter Selinger 2001-2019
</metadata>
<g transform="translate(0.000000,92.000000) scale(0.100000,-0.100000)"
fill="#000000" stroke="none">
<path d="M550 849 c-52 -9 -121 -21 -152 -24 -60 -7 -75 -20 -34 -31 30 -7 36
-35 36 -164 l0 -97 -42 -9 -42 -9 27 -18 c23 -15 33 -16 65 -7 20 7 106 14
190 17 83 3 152 9 152 14 0 4 -8 15 -17 25 -14 14 -29 15 -85 10 -37 -3 -99
-9 -138 -12 l-70 -7 0 31 c0 34 3 35 148 48 58 5 70 9 62 19 -8 9 -4 21 15 43
14 16 25 32 25 35 0 3 -15 14 -32 25 -31 19 -38 19 -113 6 -110 -18 -106 -18
-99 14 4 15 8 28 9 29 1 2 37 7 81 13 43 6 101 16 128 22 l50 11 -23 18 c-27
22 -18 22 -141 -2z m56 -155 c-3 -9 -6 -22 -6 -29 0 -9 -19 -16 -57 -20 -32
-3 -68 -8 -80 -11 -20 -4 -23 0 -23 30 0 39 7 42 114 45 49 1 57 -1 52 -15z"/>
<path d="M180 833 c0 -19 79 -86 94 -80 22 9 20 54 -2 66 -27 14 -92 24 -92
14z"/>
<path d="M125 681 c44 -46 78 -52 83 -14 4 26 -18 40 -79 49 l-44 7 40 -42z"/>
<path d="M228 579 c-32 -32 -69 -61 -83 -65 -29 -7 -32 -31 -10 -74 20 -39 31
-38 54 8 10 20 40 68 65 105 72 106 61 117 -26 26z"/>
<path d="M394 420 c6 -38 5 -39 -26 -45 -18 -3 -94 -9 -168 -13 -107 -6 -135
-10 -135 -21 0 -28 54 -34 174 -22 64 7 127 15 140 17 l23 5 -3 -128 c-4 -132
3 -173 26 -173 23 0 30 41 26 173 l-3 127 180 0 c100 0 183 4 186 8 8 14 -8
31 -44 45 -29 12 -52 12 -140 1 -166 -20 -170 -19 -170 16 0 30 -22 50 -56 50
-14 0 -16 -7 -10 -40z"/>
<path d="M551 273 c2 -5 44 -46 93 -91 62 -58 96 -82 110 -80 28 4 25 52 -4
83 -31 33 -208 111 -199 88z"/>
<path d="M240 257 c0 -14 -90 -103 -145 -144 l-30 -22 47 13 c56 16 120 53
166 96 37 34 37 34 16 54 -19 20 -54 21 -54 3z"/>
</g>
</svg>
