<?xml version="1.0" standalone="no"?>
<!DOCTYPE svg PUBLIC "-//W3C//DTD SVG 20010904//EN"
 "http://www.w3.org/TR/2001/REC-SVG-20010904/DTD/svg10.dtd">
<svg version="1.0" xmlns="http://www.w3.org/2000/svg"
 width="96.000000pt" height="68.000000pt" viewBox="0 0 96.000000 68.000000"
 preserveAspectRatio="xMidYMid meet">
<metadata>
Created by potrace 1.16, written by Peter Selinger 2001-2019
</metadata>
<g transform="translate(0.000000,68.000000) scale(0.100000,-0.100000)"
fill="#000000" stroke="none">
<path d="M236 550 c-7 -39 -55 -109 -99 -146 -33 -27 -34 -29 -15 -44 10 -9
23 -40 30 -75 7 -33 12 -61 12 -62 1 -1 39 3 85 8 66 7 86 7 92 -3 12 -19 25
-1 52 75 l25 68 -25 16 c-21 14 -32 15 -66 6 l-42 -12 35 30 c19 16 50 39 67
51 40 28 41 35 8 50 -20 9 -34 9 -59 0 -51 -19 -61 -16 -43 12 15 22 15 25 -2
40 -27 25 -48 20 -55 -14z m74 -89 c0 -3 -18 -26 -39 -49 -28 -32 -47 -44 -67
-44 -67 -2 -69 1 -28 31 21 15 47 37 56 47 15 17 78 29 78 15z m50 -116 c0
-22 -4 -25 -35 -25 -27 0 -35 4 -35 18 0 25 9 32 42 32 23 0 28 -4 28 -25z
m-110 -9 c0 -17 -7 -26 -25 -30 -14 -4 -30 -4 -35 -1 -17 10 -11 43 8 48 41
11 52 7 52 -17z m100 -56 c0 -15 -7 -20 -28 -20 -34 0 -43 7 -35 26 3 8 18 14
34 14 22 0 29 -5 29 -20z m-100 -9 c0 -11 -9 -21 -22 -25 -35 -9 -38 -8 -38
19 0 21 5 25 30 25 23 0 30 -5 30 -19z"/>
<path d="M684 524 c13 -50 17 -132 8 -138 -5 -3 -25 -8 -43 -10 -19 -3 -55 -8
-82 -11 -29 -4 -45 -10 -41 -17 6 -10 114 -4 157 8 15 5 17 -4 17 -88 0 -51
-3 -110 -7 -131 -6 -38 -7 -39 -39 -32 -19 3 -34 3 -34 0 0 -4 16 -22 36 -40
29 -28 40 -33 55 -24 25 13 29 33 32 189 l2 135 50 5 c49 6 49 6 22 18 -15 6
-37 11 -50 9 -21 -2 -22 1 -19 61 4 70 -7 92 -45 92 -22 0 -24 -3 -19 -26z"/>
<path d="M519 502 c-25 -69 -34 -90 -57 -132 -14 -25 -34 -55 -45 -67 -17 -19
-18 -23 -5 -23 9 0 21 7 28 15 26 32 33 16 27 -67 -3 -46 -9 -92 -12 -103 -7
-23 19 -64 32 -52 14 15 16 226 3 243 -10 12 -6 25 22 72 52 84 59 99 52 116
-11 28 -34 27 -45 -2z"/>
<path d="M559 272 c16 -30 50 -55 66 -49 26 11 16 37 -20 53 -46 19 -58 18
-46 -4z"/>
<path d="M360 184 c0 -12 42 -64 51 -64 18 0 9 39 -13 54 -23 17 -38 20 -38
10z"/>
<path d="M117 145 c-21 -44 -22 -65 -2 -65 23 0 48 46 41 75 -9 34 -19 31 -39
-10z"/>
<path d="M280 172 c0 -16 39 -44 50 -37 8 5 6 13 -6 26 -17 19 -44 26 -44 11z"/>
<path d="M200 162 c0 -13 30 -52 41 -52 13 0 11 34 -3 48 -13 13 -38 16 -38 4z"/>
</g>
</svg>
