<?xml version="1.0" standalone="no"?>
<!DOCTYPE svg PUBLIC "-//W3C//DTD SVG 20010904//EN"
 "http://www.w3.org/TR/2001/REC-SVG-20010904/DTD/svg10.dtd">
<svg version="1.0" xmlns="http://www.w3.org/2000/svg"
 width="96.000000pt" height="68.000000pt" viewBox="0 0 96.000000 68.000000"
 preserveAspectRatio="xMidYMid meet">
<metadata>
Created by potrace 1.16, written by Peter Selinger 2001-2019
</metadata>
<g transform="translate(0.000000,68.000000) scale(0.100000,-0.100000)"
fill="#000000" stroke="none">
<path d="M508 471 c-10 -32 -38 -89 -62 -125 -45 -67 -47 -78 -10 -51 12 8 24
11 28 8 10 -10 7 -84 -6 -147 -9 -50 -9 -59 5 -74 9 -8 20 -12 24 -8 13 13 16
235 3 251 -9 10 -5 22 17 53 16 21 37 58 48 82 19 41 19 43 0 56 -10 8 -21 14
-24 14 -3 0 -14 -27 -23 -59z"/>
</g>
</svg>
