<?xml version="1.0" standalone="no"?>
<!DOCTYPE svg PUBLIC "-//W3C//DTD SVG 20010904//EN"
 "http://www.w3.org/TR/2001/REC-SVG-20010904/DTD/svg10.dtd">
<svg version="1.0" xmlns="http://www.w3.org/2000/svg"
 width="96.000000pt" height="68.000000pt" viewBox="0 0 96.000000 68.000000"
 preserveAspectRatio="xMidYMid meet">
<metadata>
Created by potrace 1.16, written by Peter Selinger 2001-2019
</metadata>
<g transform="translate(0.000000,68.000000) scale(0.100000,-0.100000)"
fill="#000000" stroke="none">
<path d="M688 585 c-3 -3 -38 -9 -78 -13 l-74 -7 4 -60 c1 -33 3 -71 4 -85 1
-23 5 -25 46 -25 25 1 63 3 85 5 l40 5 3 -40 c2 -22 1 -96 -3 -164 l-7 -123
-36 6 -37 6 38 -35 c45 -41 52 -42 71 -13 11 18 15 76 18 275 l3 252 -23 11
c-25 11 -46 13 -54 5z m28 -51 c1 -18 -6 -23 -35 -28 -20 -3 -51 -8 -68 -12
-32 -6 -33 -5 -33 24 0 34 17 41 95 38 33 -1 40 -4 41 -22z m-6 -73 c0 -27 -3
-29 -60 -38 -64 -10 -81 -4 -73 28 3 11 17 20 37 24 17 2 42 6 56 8 14 3 28 5
33 6 4 0 7 -12 7 -28z"/>
<path d="M305 565 c-27 -7 -67 -14 -89 -14 -33 -1 -37 -4 -30 -18 14 -30 16
-255 4 -314 -22 -103 -23 -124 -5 -139 11 -9 19 -10 26 -3 10 10 28 162 29
240 0 30 2 32 48 39 26 4 58 8 71 8 26 1 23 -8 57 162 6 28 3 32 -26 43 -18 6
-33 10 -34 10 -1 -1 -23 -7 -51 -14z m45 -55 c0 -17 -5 -30 -12 -30 -7 0 -30
-3 -51 -7 -38 -6 -39 -5 -35 23 2 23 9 30 33 35 59 13 65 11 65 -21z m-2 -81
c-2 -16 -15 -25 -48 -35 -25 -8 -46 -14 -47 -14 -2 0 -3 13 -3 29 0 26 4 30
33 34 68 8 69 8 65 -14z"/>
<path d="M490 329 c-25 -4 -66 -8 -92 -8 -26 -1 -50 -5 -53 -11 -3 -5 3 -10
14 -10 17 0 21 -6 21 -35 0 -34 -1 -35 -40 -35 -22 0 -40 -4 -40 -10 0 -5 18
-10 40 -10 22 0 40 -3 40 -6 0 -11 -23 -50 -44 -73 l-21 -24 30 16 c17 8 41
33 53 56 22 38 26 41 67 41 l44 0 3 -80 c2 -63 6 -78 16 -71 8 5 16 38 19 84
l6 77 49 0 c62 0 62 24 0 28 -33 2 -42 7 -42 22 0 10 -6 21 -12 23 -7 3 2 8
20 12 17 4 32 11 32 16 0 11 -47 10 -110 -2z m20 -54 c0 -23 -22 -35 -69 -35
-19 0 -22 4 -17 23 3 12 6 25 6 29 0 9 40 15 63 10 10 -3 17 -14 17 -27z"/>
</g>
</svg>
