<?xml version="1.0" standalone="no"?>
<!DOCTYPE svg PUBLIC "-//W3C//DTD SVG 20010904//EN"
 "http://www.w3.org/TR/2001/REC-SVG-20010904/DTD/svg10.dtd">
<svg version="1.0" xmlns="http://www.w3.org/2000/svg"
 width="90.000000pt" height="92.000000pt" viewBox="0 0 90.000000 92.000000"
 preserveAspectRatio="xMidYMid meet">
<metadata>
Created by potrace 1.16, written by Peter Selinger 2001-2019
</metadata>
<g transform="translate(0.000000,92.000000) scale(0.100000,-0.100000)"
fill="#000000" stroke="none">
<path d="M380 837 c0 -7 12 -30 26 -50 14 -21 24 -40 22 -41 -1 -2 -52 -9
-113 -15 -60 -7 -123 -15 -138 -18 l-29 -5 21 -22 c28 -29 28 -121 1 -234 -27
-112 -101 -257 -154 -301 -17 -15 -21 -31 -7 -31 5 0 31 20 59 45 85 76 134
196 176 429 8 43 19 82 26 86 16 10 193 30 331 38 120 7 143 19 90 46 -24 13
-40 14 -88 6 -133 -23 -125 -23 -119 -2 10 31 -3 49 -45 66 -48 19 -59 20 -59
3z"/>
<path d="M370 653 c-1 -37 -29 -98 -74 -156 -21 -27 -36 -51 -34 -53 8 -7 63
39 96 80 28 33 40 41 70 41 21 1 70 7 109 14 40 7 78 9 84 5 12 -7 6 -108 -12
-203 -10 -50 -12 -53 -37 -48 -15 3 -36 9 -46 13 -13 5 -8 -7 20 -44 21 -29
42 -52 46 -52 15 0 49 46 58 80 5 19 16 78 24 130 8 52 18 104 21 116 5 15 0
25 -21 39 -26 17 -32 17 -123 1 -53 -10 -106 -19 -119 -22 -23 -5 -23 -4 -5
22 17 26 16 27 -6 45 -33 27 -51 24 -51 -8z"/>
<path d="M416 463 c-20 -10 -43 -13 -70 -10 l-41 6 3 -142 c4 -166 9 -177 87
-213 98 -45 281 -42 381 7 60 28 68 47 45 95 -11 22 -22 56 -26 77 -9 48 -21
40 -30 -20 -10 -67 -20 -82 -73 -105 -65 -29 -241 -30 -298 -2 -38 18 -39 21
-42 76 l-3 57 59 7 c56 6 59 8 59 34 0 15 9 46 21 69 12 23 22 44 22 46 0 4
-56 35 -62 35 -2 -1 -16 -8 -32 -17z m18 -75 c-8 -48 -17 -58 -56 -58 -25 0
-28 4 -28 33 0 48 17 64 68 66 21 1 22 -2 16 -41z"/>
</g>
</svg>
