<?xml version="1.0" standalone="no"?>
<!DOCTYPE svg PUBLIC "-//W3C//DTD SVG 20010904//EN"
 "http://www.w3.org/TR/2001/REC-SVG-20010904/DTD/svg10.dtd">
<svg version="1.0" xmlns="http://www.w3.org/2000/svg"
 width="96.000000pt" height="68.000000pt" viewBox="0 0 96.000000 68.000000"
 preserveAspectRatio="xMidYMid meet">
<metadata>
Created by potrace 1.16, written by Peter Selinger 2001-2019
</metadata>
<g transform="translate(0.000000,68.000000) scale(0.100000,-0.100000)"
fill="#000000" stroke="none">
<path d="M790 186 c0 -34 -36 -74 -79 -87 -23 -7 -83 -10 -149 -8 -127 5 -152
17 -152 76 0 24 -4 33 -16 33 -14 0 -16 -8 -11 -41 7 -53 29 -76 90 -94 133
-39 413 3 370 56 -6 8 -16 31 -22 52 -14 42 -31 49 -31 13z"/>
</g>
</svg>
