<?xml version="1.0" standalone="no"?>
<!DOCTYPE svg PUBLIC "-//W3C//DTD SVG 20010904//EN"
 "http://www.w3.org/TR/2001/REC-SVG-20010904/DTD/svg10.dtd">
<svg version="1.0" xmlns="http://www.w3.org/2000/svg"
 width="96.000000pt" height="68.000000pt" viewBox="0 0 96.000000 68.000000"
 preserveAspectRatio="xMidYMid meet">
<metadata>
Created by potrace 1.16, written by Peter Selinger 2001-2019
</metadata>
<g transform="translate(0.000000,68.000000) scale(0.100000,-0.100000)"
fill="#000000" stroke="none">
<path d="M440 610 c0 -4 9 -19 21 -34 25 -32 69 -36 69 -7 0 11 -5 23 -11 27
-19 11 -79 22 -79 14z"/>
<path d="M510 529 c-303 -34 -272 -27 -249 -50 53 -53 -8 -241 -113 -352 -30
-32 -48 -57 -42 -57 18 0 108 74 131 107 29 40 69 148 83 219 7 34 15 67 20
73 9 15 98 27 273 36 147 9 171 21 77 40 -8 1 -89 -6 -180 -16z"/>
</g>
</svg>
