<?xml version="1.0" standalone="no"?>
<!DOCTYPE svg PUBLIC "-//W3C//DTD SVG 20010904//EN"
 "http://www.w3.org/TR/2001/REC-SVG-20010904/DTD/svg10.dtd">
<svg version="1.0" xmlns="http://www.w3.org/2000/svg"
 width="90.000000pt" height="92.000000pt" viewBox="0 0 90.000000 92.000000"
 preserveAspectRatio="xMidYMid meet">
<metadata>
Created by potrace 1.16, written by Peter Selinger 2001-2019
</metadata>
<g transform="translate(0.000000,92.000000) scale(0.100000,-0.100000)"
fill="#000000" stroke="none">
<path d="M474 823 c2 -16 8 -54 11 -85 l6 -57 -48 -6 c-64 -9 -75 -13 -68 -25
3 -5 31 -10 61 -10 l54 0 0 -39 c0 -43 4 -41 -137 -57 -35 -4 -63 -10 -63 -14
0 -18 58 -28 109 -18 85 15 91 9 46 -40 -21 -24 -51 -50 -67 -58 -15 -8 -28
-23 -28 -33 0 -19 23 -45 32 -36 3 3 65 21 138 40 102 26 136 31 142 22 5 -7
12 -18 17 -26 11 -19 41 -6 41 17 0 26 -35 69 -70 87 -40 21 -45 19 -25 -11
13 -20 14 -28 5 -34 -15 -9 -181 -33 -187 -26 -2 2 16 18 41 36 46 31 57 52
34 67 -16 10 60 21 162 23 41 1 83 5 93 9 17 6 17 8 -2 25 -23 21 -46 22 -141
7 -92 -15 -90 -16 -90 28 l0 39 65 12 c42 8 65 17 65 26 0 16 -40 28 -67 21
-10 -3 -29 -9 -42 -12 l-24 -7 6 70 c6 64 5 72 -12 82 -11 5 -29 10 -41 10
-18 0 -21 -4 -16 -27z"/>
<path d="M160 704 c-19 -7 -54 -13 -77 -13 l-42 -1 11 -31 c7 -21 9 -99 6
-233 -3 -111 -3 -207 -1 -213 7 -18 33 -16 33 2 0 11 11 15 39 15 22 0 46 2
54 6 9 3 19 -6 27 -25 15 -37 25 -39 44 -8 11 18 13 66 11 257 -4 209 -6 236
-21 247 -21 16 -38 15 -84 -3z m58 -96 l3 -58 -29 0 c-16 0 -44 -3 -61 -6
l-31 -6 0 60 c0 68 4 71 75 69 l40 -2 3 -57z m2 -138 c0 -48 -1 -50 -28 -50
-15 0 -42 -4 -60 -9 l-32 -10 0 54 0 54 38 4 c88 9 82 12 82 -43z m-2 -136
l-3 -56 -42 -3 c-23 -2 -51 -6 -62 -10 -24 -7 -24 -3 -15 68 6 45 7 46 48 50
22 2 49 4 59 5 16 2 18 -5 15 -54z"/>
<path d="M520 320 c-74 -10 -149 -16 -168 -13 -33 6 -34 5 -27 -18 5 -13 16
-54 26 -91 l17 -68 -68 0 c-79 0 -97 -14 -46 -35 30 -13 47 -13 104 -4 37 7
168 15 291 18 236 6 265 13 200 47 -25 12 -46 15 -90 10 l-58 -7 14 41 c8 22
21 51 30 63 22 31 19 45 -15 62 -34 18 -37 18 -210 -5z m154 -57 c-20 -115
-16 -108 -63 -111 -39 -3 -43 -1 -36 15 19 46 35 109 31 120 -4 9 6 13 35 13
l40 0 -7 -37z m-114 -43 l0 -70 -29 0 c-29 0 -29 0 -33 70 l-3 70 33 0 32 0 0
-70z m-101 16 c6 -25 11 -56 11 -70 0 -23 -4 -26 -33 -26 -32 0 -33 2 -44 52
-12 59 -9 75 15 81 35 9 40 6 51 -37z"/>
</g>
</svg>
