<?xml version="1.0" standalone="no"?>
<!DOCTYPE svg PUBLIC "-//W3C//DTD SVG 20010904//EN"
 "http://www.w3.org/TR/2001/REC-SVG-20010904/DTD/svg10.dtd">
<svg version="1.0" xmlns="http://www.w3.org/2000/svg"
 width="96.000000pt" height="68.000000pt" viewBox="0 0 96.000000 68.000000"
 preserveAspectRatio="xMidYMid meet">
<metadata>
Created by potrace 1.16, written by Peter Selinger 2001-2019
</metadata>
<g transform="translate(0.000000,68.000000) scale(0.100000,-0.100000)"
fill="#000000" stroke="none">
<path d="M485 543 c4 -21 9 -46 11 -55 6 -21 -24 -38 -65 -38 -17 0 -31 -4
-31 -10 0 -5 20 -10 44 -10 31 0 46 -5 50 -16 14 -36 6 -43 -51 -49 -32 -3
-71 -9 -88 -12 -30 -6 -30 -6 -6 -15 13 -4 31 -6 40 -4 18 5 132 16 266 25
125 8 112 27 -16 23 l-100 -3 3 28 c3 25 8 29 56 37 65 11 64 32 -2 29 l-46
-3 0 49 c0 51 -9 61 -51 61 -17 0 -19 -5 -14 -37z"/>
</g>
</svg>
