<?xml version="1.0" standalone="no"?>
<!DOCTYPE svg PUBLIC "-//W3C//DTD SVG 20010904//EN"
 "http://www.w3.org/TR/2001/REC-SVG-20010904/DTD/svg10.dtd">
<svg version="1.0" xmlns="http://www.w3.org/2000/svg"
 width="96.000000pt" height="68.000000pt" viewBox="0 0 96.000000 68.000000"
 preserveAspectRatio="xMidYMid meet">
<metadata>
Created by potrace 1.16, written by Peter Selinger 2001-2019
</metadata>
<g transform="translate(0.000000,68.000000) scale(0.100000,-0.100000)"
fill="#000000" stroke="none">
<path d="M564 579 c-49 -52 -95 -77 -133 -71 -29 4 -32 2 -28 -14 16 -53 17
-77 8 -175 -6 -59 -19 -131 -31 -160 -25 -67 -25 -77 0 -54 40 36 69 158 83
344 2 32 6 35 94 75 50 22 95 45 100 49 10 10 -24 37 -47 37 -9 0 -29 -14 -46
-31z"/>
</g>
</svg>
