<?xml version="1.0" standalone="no"?>
<!DOCTYPE svg PUBLIC "-//W3C//DTD SVG 20010904//EN"
 "http://www.w3.org/TR/2001/REC-SVG-20010904/DTD/svg10.dtd">
<svg version="1.0" xmlns="http://www.w3.org/2000/svg"
 width="90.000000pt" height="92.000000pt" viewBox="0 0 90.000000 92.000000"
 preserveAspectRatio="xMidYMid meet">
<metadata>
Created by potrace 1.16, written by Peter Selinger 2001-2019
</metadata>
<g transform="translate(0.000000,92.000000) scale(0.100000,-0.100000)"
fill="#000000" stroke="none">
<path d="M524 833 c3 -16 8 -67 12 -114 7 -100 6 -101 -88 -102 -41 -1 -47 -3
-41 -16 9 -17 10 -186 3 -288 -4 -43 -1 -66 8 -75 11 -11 15 -10 23 4 9 16 49
14 49 -2 0 -14 -71 -103 -114 -142 -22 -21 -36 -38 -31 -38 38 0 215 137 215
166 0 7 -12 17 -27 21 -25 7 -23 8 22 14 97 14 139 11 153 -11 35 -56 50 2 54
207 l3 172 -31 17 c-27 15 -38 15 -77 6 -74 -19 -77 -18 -77 31 l0 44 77 14
c42 8 78 19 80 26 7 20 -34 24 -91 9 -60 -15 -60 -15 -56 38 2 32 -13 46 -48
46 -20 0 -23 -4 -18 -27z m166 -232 c0 -5 3 -23 7 -41 6 -32 5 -33 -23 -27
-16 3 -60 -1 -99 -9 -38 -8 -80 -17 -92 -20 -21 -4 -23 -1 -23 36 0 33 4 41
23 45 83 19 108 23 155 24 28 1 52 -3 52 -8z m10 -136 c0 -42 -1 -44 -23 -36
-15 6 -52 2 -107 -10 -118 -26 -121 -26 -116 14 l3 32 119 21 c65 12 120 22
122 23 1 1 2 -19 2 -44z m0 -111 c0 -40 -2 -45 -19 -39 -11 3 -57 -1 -102 -10
-125 -23 -129 -23 -129 25 0 39 1 40 38 41 20 0 66 6 102 14 109 22 110 22
110 -31z"/>
<path d="M186 801 c-9 -13 92 -103 112 -99 12 2 17 13 17 37 0 30 -4 35 -35
46 -60 20 -89 25 -94 16z"/>
<path d="M210 614 c-36 -13 -91 -26 -122 -30 -32 -4 -58 -10 -58 -15 0 -5 13
-15 29 -24 28 -14 35 -13 116 16 48 16 91 29 97 27 14 -5 -136 -213 -207 -286
-33 -34 -57 -62 -51 -62 21 0 107 64 159 119 31 32 58 53 60 47 8 -25 8 -107
-2 -187 -12 -90 -2 -149 24 -149 20 0 25 35 25 183 0 75 3 137 7 137 4 0 22
-15 40 -32 28 -27 35 -30 43 -18 17 27 6 45 -45 70 -80 41 -78 38 -54 73 12
18 40 51 61 73 l40 41 -28 22 c-32 26 -50 25 -134 -5z"/>
<path d="M610 225 c0 -14 160 -167 172 -163 17 6 22 52 8 78 -16 29 -180 107
-180 85z"/>
</g>
</svg>
