<?xml version="1.0" standalone="no"?>
<!DOCTYPE svg PUBLIC "-//W3C//DTD SVG 20010904//EN"
 "http://www.w3.org/TR/2001/REC-SVG-20010904/DTD/svg10.dtd">
<svg version="1.0" xmlns="http://www.w3.org/2000/svg"
 width="96.000000pt" height="68.000000pt" viewBox="0 0 96.000000 68.000000"
 preserveAspectRatio="xMidYMid meet">
<metadata>
Created by potrace 1.16, written by Peter Selinger 2001-2019
</metadata>
<g transform="translate(0.000000,68.000000) scale(0.100000,-0.100000)"
fill="#000000" stroke="none">
<path d="M438 561 l4 -58 -61 -7 c-33 -4 -77 -4 -96 0 -38 7 -48 -9 -20 -30 9
-6 22 -35 30 -65 8 -30 21 -61 30 -70 15 -15 17 -14 26 2 7 11 22 17 48 17 38
0 38 0 44 -45 2 -26 8 -49 11 -52 12 -12 26 13 34 58 l7 44 85 5 c84 5 85 5
87 33 1 15 13 41 27 58 33 39 33 44 -4 59 -22 9 -56 11 -112 6 l-81 -7 5 46
c6 48 -7 65 -49 65 -17 0 -19 -6 -15 -59z m178 -86 c9 -22 -16 -75 -35 -75 -9
0 -33 -3 -53 -6 -35 -6 -38 -5 -38 17 0 43 12 68 34 72 50 10 87 7 92 -8z
m-176 -50 l0 -45 -44 0 c-40 0 -45 3 -55 31 -6 18 -11 35 -11 40 0 9 30 16 78
18 32 1 32 0 32 -44z"/>
<path d="M645 260 c27 -30 102 -73 115 -65 5 3 10 15 10 25 0 24 -42 47 -101
56 l-44 7 20 -23z"/>
<path d="M469 206 c39 -40 49 -44 58 -20 8 21 -15 42 -57 50 l-35 7 34 -37z"/>
<path d="M200 180 c-33 -52 -36 -83 -8 -88 24 -5 58 54 58 101 0 20 -4 37 -9
37 -5 0 -23 -22 -41 -50z"/>
<path d="M310 225 c0 -15 45 -93 68 -117 39 -42 112 -62 222 -63 104 0 160 16
160 45 0 10 -8 20 -17 23 -10 3 -37 17 -60 32 -30 18 -43 22 -43 13 0 -8 5
-19 11 -25 7 -7 9 -19 6 -27 -5 -13 -23 -16 -89 -16 -125 1 -182 27 -217 99
-14 30 -41 54 -41 36z"/>
</g>
</svg>
