<?xml version="1.0" standalone="no"?>
<!DOCTYPE svg PUBLIC "-//W3C//DTD SVG 20010904//EN"
 "http://www.w3.org/TR/2001/REC-SVG-20010904/DTD/svg10.dtd">
<svg version="1.0" xmlns="http://www.w3.org/2000/svg"
 width="96.000000pt" height="68.000000pt" viewBox="0 0 96.000000 68.000000"
 preserveAspectRatio="xMidYMid meet">
<metadata>
Created by potrace 1.16, written by Peter Selinger 2001-2019
</metadata>
<g transform="translate(0.000000,68.000000) scale(0.100000,-0.100000)"
fill="#000000" stroke="none">
<path d="M325 598 c-2 -7 -9 -30 -15 -50 -14 -47 -58 -108 -134 -187 -54 -56
-57 -61 -27 -46 19 9 56 37 82 62 l48 45 7 -37 c7 -38 0 -123 -17 -216 -12
-60 -2 -99 26 -99 18 0 23 32 29 201 4 111 2 140 -10 158 -14 20 -12 25 32 83
l47 62 -23 18 c-26 21 -39 23 -45 6z"/>
</g>
</svg>
