<?xml version="1.0" standalone="no"?>
<!DOCTYPE svg PUBLIC "-//W3C//DTD SVG 20010904//EN"
 "http://www.w3.org/TR/2001/REC-SVG-20010904/DTD/svg10.dtd">
<svg version="1.0" xmlns="http://www.w3.org/2000/svg"
 width="96.000000pt" height="68.000000pt" viewBox="0 0 96.000000 68.000000"
 preserveAspectRatio="xMidYMid meet">
<metadata>
Created by potrace 1.16, written by Peter Selinger 2001-2019
</metadata>
<g transform="translate(0.000000,68.000000) scale(0.100000,-0.100000)"
fill="#000000" stroke="none">
<path d="M595 319 c-33 -5 -70 -7 -83 -4 -20 5 -22 3 -14 -12 5 -10 13 -37 17
-61 4 -28 11 -42 19 -39 7 3 43 8 80 12 37 4 65 10 62 13 -3 2 3 17 14 32 26
37 25 49 -6 60 -14 6 -26 9 -27 9 -1 -1 -29 -5 -62 -10z m55 -38 c0 -36 -2
-37 -62 -46 l-48 -7 0 35 c0 38 -3 37 83 45 24 2 27 -1 27 -27z"/>
</g>
</svg>
