<?xml version="1.0" standalone="no"?>
<!DOCTYPE svg PUBLIC "-//W3C//DTD SVG 20010904//EN"
 "http://www.w3.org/TR/2001/REC-SVG-20010904/DTD/svg10.dtd">
<svg version="1.0" xmlns="http://www.w3.org/2000/svg"
 width="96.000000pt" height="68.000000pt" viewBox="0 0 96.000000 68.000000"
 preserveAspectRatio="xMidYMid meet">
<metadata>
Created by potrace 1.16, written by Peter Selinger 2001-2019
</metadata>
<g transform="translate(0.000000,68.000000) scale(0.100000,-0.100000)"
fill="#000000" stroke="none">
<path d="M480 611 c0 -6 4 -13 10 -16 9 -5 50 -130 50 -152 0 -6 -26 -15 -57
-19 -32 -5 -57 -13 -55 -19 3 -11 16 -11 82 -1 l45 7 24 -68 c13 -37 30 -77
38 -88 20 -29 16 -41 -24 -87 -32 -34 -34 -39 -13 -28 14 7 37 21 51 31 l26
18 34 -46 c41 -56 104 -103 136 -103 27 0 27 -5 5 90 l-18 74 -12 -42 c-7 -23
-17 -42 -22 -42 -12 0 -60 46 -82 79 -15 22 -15 26 15 82 27 51 30 61 17 69
-27 17 -50 12 -50 -12 0 -32 -11 -68 -20 -68 -8 0 -45 80 -55 121 -6 26 -5 26
57 34 61 7 62 8 34 20 -19 8 -41 9 -65 4 -20 -4 -39 -5 -43 -1 -4 4 -12 41
-19 82 -6 41 -16 78 -23 82 -16 11 -66 10 -66 -1z"/>
<path d="M652 526 c41 -39 65 -45 75 -20 9 24 -19 45 -68 51 l-44 5 37 -36z"/>
</g>
</svg>
