<?xml version="1.0" standalone="no"?>
<!DOCTYPE svg PUBLIC "-//W3C//DTD SVG 20010904//EN"
 "http://www.w3.org/TR/2001/REC-SVG-20010904/DTD/svg10.dtd">
<svg version="1.0" xmlns="http://www.w3.org/2000/svg"
 width="90.000000pt" height="92.000000pt" viewBox="0 0 90.000000 92.000000"
 preserveAspectRatio="xMidYMid meet">
<metadata>
Created by potrace 1.16, written by Peter Selinger 2001-2019
</metadata>
<g transform="translate(0.000000,92.000000) scale(0.100000,-0.100000)"
fill="#000000" stroke="none">
<path d="M590 844 c-36 -7 -83 -16 -105 -19 -37 -6 -38 -8 -20 -21 10 -8 27
-14 37 -14 27 0 22 -10 -34 -68 -67 -67 -23 -55 74 22 26 20 35 33 28 41 -7 8
11 15 67 23 80 13 100 22 89 41 -9 14 -52 12 -136 -5z"/>
<path d="M329 836 c-2 -3 -49 -12 -104 -22 -55 -9 -102 -18 -105 -21 -9 -9 26
-23 58 -23 46 0 41 -19 -23 -79 -30 -29 -55 -54 -55 -57 0 -12 105 54 136 85
36 35 41 47 22 53 -7 3 22 10 65 17 51 8 77 17 77 26 0 19 -56 35 -71 21z"/>
<path d="M665 712 c-36 -66 -40 -68 -80 -28 -39 39 -66 47 -58 18 3 -12 -12
-33 -46 -65 -60 -56 -47 -60 33 -12 67 40 66 40 66 20 0 -22 -61 -78 -131
-121 -32 -20 -59 -38 -59 -40 0 -11 102 31 147 61 l55 36 -7 -33 c-14 -71 -14
-71 -53 -64 l-36 5 41 -41 c25 -25 45 -38 53 -33 22 13 40 73 40 131 0 63 -9
64 81 -4 48 -36 72 -38 77 -5 4 29 -27 49 -103 66 -32 7 -60 18 -62 23 -2 5
21 22 51 37 56 29 61 43 26 65 -17 10 -21 8 -35 -16z"/>
<path d="M350 723 c0 -6 -13 -29 -30 -51 l-30 -41 -26 24 c-33 31 -46 31 -59
3 -6 -12 -35 -42 -64 -66 -37 -30 -47 -42 -30 -37 42 13 93 42 113 64 18 20
36 20 36 0 0 -18 -83 -99 -142 -139 -33 -22 -54 -40 -47 -40 26 0 115 47 152
80 21 18 39 31 41 29 1 -2 -1 -23 -6 -46 -8 -40 -12 -43 -41 -43 l-32 0 37
-37 c31 -31 39 -34 52 -24 21 18 36 75 36 140 l0 55 29 -28 c32 -31 65 -30 59
1 -2 12 -20 23 -51 32 -26 8 -47 17 -47 20 0 3 23 19 51 34 28 15 49 33 47 39
-5 15 -48 43 -48 31z"/>
<path d="M370 426 c0 -8 5 -18 10 -21 16 -10 11 -87 -9 -130 -32 -69 -95 -120
-213 -170 -37 -16 -65 -31 -63 -33 8 -8 112 21 170 49 59 27 132 86 152 122 8
16 22 6 112 -84 l102 -101 84 4 c115 6 123 18 33 47 -87 28 -165 67 -232 115
l-50 35 30 11 c16 6 56 20 89 32 80 26 86 34 52 64 -37 31 -49 30 -76 -6 -27
-38 -100 -92 -113 -84 -5 3 -7 18 -4 32 20 106 20 109 -15 121 -43 15 -59 14
-59 -3z"/>
<path d="M190 343 c0 -5 14 -31 30 -57 36 -56 63 -59 68 -9 2 24 -2 35 -20 47
-30 19 -78 31 -78 19z"/>
</g>
</svg>
