<?xml version="1.0" standalone="no"?>
<!DOCTYPE svg PUBLIC "-//W3C//DTD SVG 20010904//EN"
 "http://www.w3.org/TR/2001/REC-SVG-20010904/DTD/svg10.dtd">
<svg version="1.0" xmlns="http://www.w3.org/2000/svg"
 width="96.000000pt" height="68.000000pt" viewBox="0 0 96.000000 68.000000"
 preserveAspectRatio="xMidYMid meet">
<metadata>
Created by potrace 1.16, written by Peter Selinger 2001-2019
</metadata>
<g transform="translate(0.000000,68.000000) scale(0.100000,-0.100000)"
fill="#000000" stroke="none">
<path d="M536 282 c7 -36 3 -37 -111 -47 -64 -6 -76 -9 -58 -17 14 -7 45 -7
87 -1 36 5 66 6 66 3 0 -18 -49 -66 -114 -112 -39 -27 -60 -47 -46 -43 36 10
105 52 145 87 l35 30 0 -82 c0 -72 2 -81 18 -78 14 3 17 16 20 81 2 42 6 77
10 77 4 0 30 -22 57 -50 54 -54 90 -67 146 -52 29 8 31 10 14 17 -113 41 -233
111 -217 127 4 4 52 8 105 9 53 0 99 5 102 9 11 18 -60 30 -125 20 -36 -5 -68
-10 -72 -10 -4 0 -8 12 -10 28 -2 21 -9 28 -30 30 -26 3 -27 1 -22 -26z"/>
</g>
</svg>
