<?xml version="1.0" standalone="no"?>
<!DOCTYPE svg PUBLIC "-//W3C//DTD SVG 20010904//EN"
 "http://www.w3.org/TR/2001/REC-SVG-20010904/DTD/svg10.dtd">
<svg version="1.0" xmlns="http://www.w3.org/2000/svg"
 width="96.000000pt" height="68.000000pt" viewBox="0 0 96.000000 68.000000"
 preserveAspectRatio="xMidYMid meet">
<metadata>
Created by potrace 1.16, written by Peter Selinger 2001-2019
</metadata>
<g transform="translate(0.000000,68.000000) scale(0.100000,-0.100000)"
fill="#000000" stroke="none">
<path d="M451 504 c-11 -44 -47 -114 -65 -126 -6 -4 -7 -10 -3 -14 4 -4 17 2
30 13 15 15 30 20 48 16 21 -4 25 -11 27 -41 3 -52 -7 -62 -66 -69 -66 -7 -67
-23 -2 -23 38 0 50 -4 50 -15 0 -24 -50 -97 -94 -137 -35 -32 -38 -38 -20 -38
53 0 128 83 153 167 8 30 17 42 29 41 9 -1 37 0 62 1 42 2 44 2 25 17 -14 10
-31 13 -56 9 l-36 -6 1 51 c1 50 1 50 39 56 37 7 48 20 24 30 -7 2 -38 -2 -68
-10 -30 -8 -58 -10 -63 -5 -5 5 2 25 18 49 30 45 29 64 -2 72 -17 5 -22 -2
-31 -38z"/>
<path d="M285 507 c-17 -4 -59 -10 -95 -12 -36 -3 -66 -5 -68 -5 -2 0 6 -13
17 -29 12 -16 21 -36 21 -44 0 -8 5 -29 11 -46 8 -23 15 -29 22 -22 12 12 47
15 47 4 0 -5 3 -47 7 -95 3 -49 2 -88 -3 -88 -5 0 -19 -3 -31 -6 -22 -6 -23
-4 -23 60 0 36 -4 66 -9 66 -5 0 -17 3 -26 6 -15 6 -16 1 -10 -42 3 -27 9 -61
11 -77 5 -26 4 -27 -38 -27 l-43 -1 25 -20 c28 -24 36 -23 172 23 103 35 128
55 54 44 -39 -6 -44 -5 -41 11 2 10 4 32 4 50 1 29 4 32 36 35 20 2 36 7 38
13 1 6 -14 9 -34 7 -34 -3 -37 -1 -41 27 -4 29 -2 31 24 31 24 0 28 4 24 18
-3 9 3 35 15 56 11 21 18 44 15 51 -6 17 -45 23 -81 12z m10 -59 c-10 -47 -12
-48 -54 -48 -34 0 -39 3 -44 28 -6 33 -6 33 40 42 65 13 65 13 58 -22z"/>
<path d="M760 379 c-25 -4 -66 -8 -92 -8 l-46 -1 14 -28 c7 -15 18 -59 23 -96
5 -38 11 -69 13 -71 2 -1 34 0 72 4 l68 6 3 41 c2 23 11 56 20 74 19 37 13 76
-12 82 -10 2 -38 1 -63 -3z m25 -91 c-4 -40 -8 -74 -9 -75 -1 -2 -19 -5 -39
-7 -41 -6 -42 -4 -52 86 -8 63 -6 65 69 67 l38 1 -7 -72z"/>
<path d="M520 213 c1 -19 87 -106 98 -99 31 19 7 58 -55 90 -36 18 -43 19 -43
9z"/>
</g>
</svg>
