<?xml version="1.0" standalone="no"?>
<!DOCTYPE svg PUBLIC "-//W3C//DTD SVG 20010904//EN"
 "http://www.w3.org/TR/2001/REC-SVG-20010904/DTD/svg10.dtd">
<svg version="1.0" xmlns="http://www.w3.org/2000/svg"
 width="90.000000pt" height="92.000000pt" viewBox="0 0 90.000000 92.000000"
 preserveAspectRatio="xMidYMid meet">
<metadata>
Created by potrace 1.16, written by Peter Selinger 2001-2019
</metadata>
<g transform="translate(0.000000,92.000000) scale(0.100000,-0.100000)"
fill="#000000" stroke="none">
<path d="M592 899 c-24 -4 -118 -17 -210 -29 -258 -32 -246 -29 -228 -49 12
-14 16 -41 16 -117 0 -187 -45 -391 -121 -553 -21 -46 -37 -86 -35 -88 6 -6
53 54 82 103 33 57 68 158 88 254 14 67 46 311 46 349 0 30 25 -10 36 -57 5
-26 15 -46 22 -45 6 2 37 4 68 6 l57 3 18 45 c24 58 23 64 -5 77 -18 8 -38 7
-81 -4 -66 -17 -126 -11 -104 11 14 14 243 45 330 45 65 0 139 11 139 21 0 9
-54 40 -67 38 -4 -1 -27 -5 -51 -10z m-199 -133 c-2 -10 -95 -37 -102 -31 -2
2 -1 11 2 19 9 22 105 33 100 12z m-3 -51 c0 -9 -9 -15 -22 -15 -13 0 -34 -3
-47 -7 -18 -4 -22 -2 -19 8 4 12 18 17 81 28 4 0 7 -6 7 -14z"/>
<path d="M548 764 c5 -63 -2 -74 -56 -74 -49 0 -35 -24 16 -28 23 -2 42 -5 42
-8 0 -22 -34 -76 -61 -98 l-34 -28 30 6 c17 4 46 24 68 48 l37 41 61 -58 c54
-51 62 -56 71 -41 15 27 -16 65 -78 93 -30 13 -54 31 -54 38 0 8 21 18 55 25
62 13 75 24 46 39 -13 8 -28 8 -46 1 -41 -16 -45 -13 -45 35 0 34 -5 47 -19
55 -34 17 -38 12 -33 -46z"/>
<path d="M689 776 c38 -39 71 -48 71 -17 0 26 -21 41 -67 48 l-38 6 34 -37z"/>
<path d="M350 643 c-25 -7 -57 -11 -71 -8 -26 6 -26 5 -22 -42 2 -26 -2 -72
-10 -101 -11 -42 -12 -50 -1 -41 7 6 19 26 25 44 11 28 15 31 30 22 14 -9 26
-7 54 6 36 17 36 17 33 -5 -2 -17 -9 -22 -26 -21 -12 2 -22 0 -22 -3 0 -10 44
-64 52 -64 16 0 29 53 33 135 5 96 0 100 -75 78z m40 -57 c0 -36 -15 -46 -72
-46 -21 0 -28 5 -28 20 0 21 15 27 25 10 3 -5 18 -10 31 -10 40 0 23 25 -19
28 -64 6 -41 28 31 31 30 1 32 -1 32 -33z"/>
<path d="M470 504 c0 -20 -93 -113 -150 -150 -25 -15 -72 -43 -105 -61 -33
-18 -55 -33 -48 -33 18 0 124 41 151 58 20 13 25 13 33 1 12 -19 11 -166 -2
-212 -11 -40 -5 -77 13 -77 12 0 140 102 135 107 -2 2 -23 -4 -47 -12 -59 -21
-60 -20 -60 25 0 36 2 40 33 45 17 3 59 7 92 9 l59 3 28 61 27 62 -24 16 c-20
13 -33 14 -77 6 -94 -18 -133 -22 -147 -13 -24 16 27 34 100 35 65 1 90 9 76
22 -9 9 -56 9 -92 0 l-30 -8 33 31 c18 17 39 31 47 31 7 0 52 -29 99 -65 47
-36 97 -70 111 -75 23 -9 126 3 149 18 5 3 -30 16 -78 29 -101 26 -239 93
-278 135 -30 31 -48 36 -48 12z m93 -199 c-2 -5 -20 -10 -40 -10 -21 -1 -57
-5 -80 -9 -35 -6 -43 -5 -43 8 0 10 12 16 38 19 61 7 127 3 125 -8z m-11 -51
c-5 -10 -20 -18 -33 -19 -13 -1 -48 -5 -77 -9 -49 -7 -54 -7 -50 10 3 15 17
20 73 27 39 4 75 9 80 11 16 5 18 -1 7 -20z"/>
<path d="M637 233 c-9 -15 -28 -40 -44 -56 -29 -27 -30 -27 -72 -12 -75 26
-68 17 29 -43 52 -32 105 -64 117 -72 17 -11 25 -12 34 -3 21 21 1 43 -62 72
l-61 27 62 28 c65 29 73 47 33 73 -20 14 -23 13 -36 -14z"/>
</g>
</svg>
