<?xml version="1.0" standalone="no"?>
<!DOCTYPE svg PUBLIC "-//W3C//DTD SVG 20010904//EN"
 "http://www.w3.org/TR/2001/REC-SVG-20010904/DTD/svg10.dtd">
<svg version="1.0" xmlns="http://www.w3.org/2000/svg"
 width="96.000000pt" height="68.000000pt" viewBox="0 0 96.000000 68.000000"
 preserveAspectRatio="xMidYMid meet">
<metadata>
Created by potrace 1.16, written by Peter Selinger 2001-2019
</metadata>
<g transform="translate(0.000000,68.000000) scale(0.100000,-0.100000)"
fill="#000000" stroke="none">
<path d="M318 339 c4 -36 0 -44 -36 -79 -23 -21 -55 -41 -72 -45 -17 -4 -29
-9 -27 -11 10 -11 101 21 128 44 l30 24 39 -26 c44 -29 80 -34 80 -11 0 18
-24 31 -73 40 -20 4 -37 11 -37 16 0 4 27 16 60 25 63 17 69 24 45 44 -12 10
-21 7 -50 -19 -43 -38 -54 -39 -47 -5 3 16 -1 30 -9 35 -27 17 -35 9 -31 -32z"/>
<path d="M229 306 c30 -32 43 -33 39 -3 -2 16 -11 23 -33 25 l-30 4 24 -26z"/>
</g>
</svg>
