<?xml version="1.0" standalone="no"?>
<!DOCTYPE svg PUBLIC "-//W3C//DTD SVG 20010904//EN"
 "http://www.w3.org/TR/2001/REC-SVG-20010904/DTD/svg10.dtd">
<svg version="1.0" xmlns="http://www.w3.org/2000/svg"
 width="96.000000pt" height="68.000000pt" viewBox="0 0 96.000000 68.000000"
 preserveAspectRatio="xMidYMid meet">
<metadata>
Created by potrace 1.16, written by Peter Selinger 2001-2019
</metadata>
<g transform="translate(0.000000,68.000000) scale(0.100000,-0.100000)"
fill="#000000" stroke="none">
<path d="M414 613 c3 -21 8 -57 11 -79 l5 -41 -57 -7 c-30 -4 -58 -5 -60 -3
-2 2 1 17 7 32 13 34 -2 55 -39 55 -25 0 -27 -3 -23 -35 3 -24 -1 -42 -13 -55
-13 -15 -14 -23 -5 -39 12 -23 37 -26 90 -11 50 15 259 42 271 35 5 -4 9 -13
9 -21 0 -15 18 -18 38 -6 6 5 19 35 28 67 14 56 14 60 -2 72 -10 7 -31 13 -46
13 -25 0 -27 -2 -18 -19 5 -11 10 -31 10 -45 0 -25 -1 -26 -71 -26 l-72 0 7
69 c6 74 2 81 -50 81 -22 0 -24 -3 -20 -37z"/>
<path d="M450 404 c-25 -8 -82 -18 -127 -21 -91 -7 -113 -23 -32 -23 l52 0 -7
-31 c-10 -50 -86 -136 -166 -186 -24 -16 -29 -23 -17 -23 29 0 97 39 146 85
41 38 49 42 67 32 26 -14 94 -74 94 -82 0 -9 -124 -65 -178 -81 l-47 -14 60 4
c63 4 178 39 183 56 6 16 17 12 71 -24 62 -42 87 -48 175 -38 85 9 97 27 24
35 -49 5 -192 48 -206 62 -3 3 20 31 52 62 63 61 62 71 -3 80 -48 7 -51 19
-16 61 14 17 25 34 25 40 0 25 -79 28 -150 6z m70 -39 c0 -35 -29 -72 -61 -79
-54 -10 -89 -7 -89 8 0 8 5 18 11 22 6 3 9 17 6 30 -5 26 7 30 86 33 36 1 47
-2 47 -14z m50 -91 c0 -14 -34 -60 -55 -76 -23 -17 -25 -17 -74 14 -28 17 -51
34 -51 38 0 6 61 17 168 29 6 0 12 -2 12 -5z"/>
</g>
</svg>
