<?xml version="1.0" standalone="no"?>
<!DOCTYPE svg PUBLIC "-//W3C//DTD SVG 20010904//EN"
 "http://www.w3.org/TR/2001/REC-SVG-20010904/DTD/svg10.dtd">
<svg version="1.0" xmlns="http://www.w3.org/2000/svg"
 width="96.000000pt" height="68.000000pt" viewBox="0 0 96.000000 68.000000"
 preserveAspectRatio="xMidYMid meet">
<metadata>
Created by potrace 1.16, written by Peter Selinger 2001-2019
</metadata>
<g transform="translate(0.000000,68.000000) scale(0.100000,-0.100000)"
fill="#000000" stroke="none">
<path d="M450 111 c0 -54 -2 -60 -22 -63 -22 -3 -22 -4 6 -23 28 -19 29 -19
43 1 21 29 14 138 -9 142 -16 3 -18 -5 -18 -57z"/>
<path d="M348 96 c-35 -44 -35 -50 1 -31 38 19 63 44 56 56 -11 17 -30 9 -57
-25z"/>
<path d="M544 101 c13 -24 34 -41 52 -41 14 0 0 42 -18 54 -37 26 -51 21 -34
-13z"/>
</g>
</svg>
