<?xml version="1.0" standalone="no"?>
<!DOCTYPE svg PUBLIC "-//W3C//DTD SVG 20010904//EN"
 "http://www.w3.org/TR/2001/REC-SVG-20010904/DTD/svg10.dtd">
<svg version="1.0" xmlns="http://www.w3.org/2000/svg"
 width="96.000000pt" height="68.000000pt" viewBox="0 0 96.000000 68.000000"
 preserveAspectRatio="xMidYMid meet">
<metadata>
Created by potrace 1.16, written by Peter Selinger 2001-2019
</metadata>
<g transform="translate(0.000000,68.000000) scale(0.100000,-0.100000)"
fill="#000000" stroke="none">
<path d="M400 612 c0 -15 46 -52 63 -52 24 0 22 37 -2 50 -23 12 -61 13 -61 2z"/>
<path d="M425 544 c-116 -12 -217 -23 -224 -23 -12 -1 -12 -4 -3 -13 9 -9 44
-9 149 0 76 7 181 14 233 17 52 3 111 8 130 11 33 5 34 7 15 20 -23 17 -38 17
-300 -12z"/>
</g>
</svg>
