<?xml version="1.0" standalone="no"?>
<!DOCTYPE svg PUBLIC "-//W3C//DTD SVG 20010904//EN"
 "http://www.w3.org/TR/2001/REC-SVG-20010904/DTD/svg10.dtd">
<svg version="1.0" xmlns="http://www.w3.org/2000/svg"
 width="96.000000pt" height="68.000000pt" viewBox="0 0 96.000000 68.000000"
 preserveAspectRatio="xMidYMid meet">
<metadata>
Created by potrace 1.16, written by Peter Selinger 2001-2019
</metadata>
<g transform="translate(0.000000,68.000000) scale(0.100000,-0.100000)"
fill="#000000" stroke="none">
<path d="M451 320 c-12 -17 -38 -38 -57 -47 -43 -21 -42 -49 1 -47 17 1 67 11
113 23 99 25 116 26 132 6 17 -21 40 -19 40 4 0 21 -34 47 -76 57 -26 7 -28 6
-15 -9 16 -20 16 -20 -73 -36 -64 -12 -83 -7 -51 15 49 33 58 42 51 52 -13 21
-42 13 -65 -18z"/>
</g>
</svg>
