<?xml version="1.0" standalone="no"?>
<!DOCTYPE svg PUBLIC "-//W3C//DTD SVG 20010904//EN"
 "http://www.w3.org/TR/2001/REC-SVG-20010904/DTD/svg10.dtd">
<svg version="1.0" xmlns="http://www.w3.org/2000/svg"
 width="96.000000pt" height="68.000000pt" viewBox="0 0 96.000000 68.000000"
 preserveAspectRatio="xMidYMid meet">
<metadata>
Created by potrace 1.16, written by Peter Selinger 2001-2019
</metadata>
<g transform="translate(0.000000,68.000000) scale(0.100000,-0.100000)"
fill="#000000" stroke="none">
<path d="M287 573 c-4 -3 -7 -16 -7 -27 0 -38 -47 -120 -109 -193 -34 -40 -58
-73 -53 -73 11 0 88 55 97 69 3 6 21 11 39 11 26 0 35 -5 40 -22 9 -36 9 -37
-44 -44 -27 -4 -50 -10 -50 -15 0 -5 23 -9 50 -9 l50 0 0 -59 0 -58 -57 -12
c-31 -6 -69 -11 -85 -11 -15 0 -28 -4 -28 -10 0 -16 41 -32 69 -27 53 11 245
84 249 95 2 8 -10 7 -38 -3 -69 -24 -71 -22 -68 42 l3 57 45 10 c44 9 44 9 17
17 -16 4 -35 5 -42 3 -8 -3 -14 5 -17 25 -4 27 -1 30 29 36 34 6 46 25 16 25
-9 0 -43 -5 -75 -12 -31 -7 -60 -9 -64 -5 -4 3 11 33 32 66 l38 59 39 -30 c29
-23 41 -28 50 -19 17 17 -3 44 -42 55 -20 6 -31 15 -31 27 0 10 -9 23 -19 29
-23 12 -26 12 -34 3z"/>
<path d="M379 225 c-19 -41 -17 -42 29 -13 32 20 33 22 16 35 -25 18 -27 17
-45 -22z"/>
<path d="M190 232 c0 -4 12 -20 26 -35 19 -21 29 -26 37 -18 16 16 -3 43 -36
52 -15 4 -27 4 -27 1z"/>
</g>
</svg>
