<?xml version="1.0" standalone="no"?>
<!DOCTYPE svg PUBLIC "-//W3C//DTD SVG 20010904//EN"
 "http://www.w3.org/TR/2001/REC-SVG-20010904/DTD/svg10.dtd">
<svg version="1.0" xmlns="http://www.w3.org/2000/svg"
 width="96.000000pt" height="68.000000pt" viewBox="0 0 96.000000 68.000000"
 preserveAspectRatio="xMidYMid meet">
<metadata>
Created by potrace 1.16, written by Peter Selinger 2001-2019
</metadata>
<g transform="translate(0.000000,68.000000) scale(0.100000,-0.100000)"
fill="#000000" stroke="none">
<path d="M547 584 c-4 -4 -7 -18 -7 -30 0 -41 -61 -152 -122 -223 -16 -18 -27
-35 -24 -38 17 -17 129 102 162 173 9 19 21 34 28 33 6 0 34 -31 61 -70 96
-133 92 -129 151 -129 30 0 54 4 54 10 0 5 -28 24 -62 41 -41 20 -86 56 -130
103 -59 62 -68 75 -62 99 3 15 1 27 -4 27 -6 0 -17 2 -24 5 -8 3 -17 2 -21 -1z"/>
<path d="M270 564 c-30 -7 -76 -16 -102 -19 -27 -3 -48 -10 -48 -15 0 -17 48
-22 100 -11 28 6 60 11 71 11 20 0 20 -1 -2 -32 -12 -17 -35 -36 -49 -41 l-27
-10 25 -24 c34 -32 22 -39 -82 -48 -66 -6 -77 -10 -59 -18 16 -7 41 -6 79 2
32 6 59 10 60 8 8 -8 -36 -76 -83 -125 -29 -31 -53 -58 -53 -60 0 -11 64 34
100 72 24 25 46 43 49 41 3 -1 4 -43 1 -92 l-5 -88 -34 2 -33 1 33 -34 c18
-19 36 -34 41 -34 21 0 36 64 42 177 5 109 4 123 -12 132 -23 13 -14 19 33 23
33 2 40 0 39 -14 -2 -22 6 -22 53 -3 l37 16 -23 15 c-17 12 -35 15 -75 10 -48
-6 -54 -5 -59 13 -6 23 6 35 72 72 50 28 63 52 34 64 -47 19 -72 21 -123 9z"/>
<path d="M542 351 c-54 -10 -42 -25 17 -22 52 3 101 15 101 26 0 6 -75 4 -118
-4z"/>
<path d="M600 255 c-30 -7 -76 -14 -102 -14 -26 -1 -49 -5 -52 -10 -10 -16 40
-18 117 -6 42 7 81 9 87 5 12 -8 -35 -119 -70 -163 -12 -15 -20 -30 -17 -33
10 -11 69 51 117 124 l50 77 -21 18 c-24 19 -32 19 -109 2z"/>
</g>
</svg>
