<?xml version="1.0" standalone="no"?>
<!DOCTYPE svg PUBLIC "-//W3C//DTD SVG 20010904//EN"
 "http://www.w3.org/TR/2001/REC-SVG-20010904/DTD/svg10.dtd">
<svg version="1.0" xmlns="http://www.w3.org/2000/svg"
 width="96.000000pt" height="68.000000pt" viewBox="0 0 96.000000 68.000000"
 preserveAspectRatio="xMidYMid meet">
<metadata>
Created by potrace 1.16, written by Peter Selinger 2001-2019
</metadata>
<g transform="translate(0.000000,68.000000) scale(0.100000,-0.100000)"
fill="#000000" stroke="none">
<path d="M480 360 c-30 -5 -82 -8 -115 -9 l-60 -1 0 -85 c0 -66 3 -85 14 -85
8 0 19 6 25 14 16 20 236 29 236 9 0 -7 11 -13 25 -13 24 0 25 3 25 58 0 31 3
66 6 78 4 15 -1 23 -21 32 -28 13 -51 13 -135 2z m98 -41 c3 -18 -17 -22 -155
-35 l-73 -7 0 26 c0 24 4 26 48 30 26 2 76 3 112 3 51 -1 65 -4 68 -17z m2
-58 c0 -11 -3 -22 -7 -24 -5 -3 -56 -8 -115 -12 -105 -7 -108 -6 -108 14 0 21
18 27 105 34 109 10 125 8 125 -12z"/>
</g>
</svg>
