<?xml version="1.0" standalone="no"?>
<!DOCTYPE svg PUBLIC "-//W3C//DTD SVG 20010904//EN"
 "http://www.w3.org/TR/2001/REC-SVG-20010904/DTD/svg10.dtd">
<svg version="1.0" xmlns="http://www.w3.org/2000/svg"
 width="96.000000pt" height="68.000000pt" viewBox="0 0 96.000000 68.000000"
 preserveAspectRatio="xMidYMid meet">
<metadata>
Created by potrace 1.16, written by Peter Selinger 2001-2019
</metadata>
<g transform="translate(0.000000,68.000000) scale(0.100000,-0.100000)"
fill="#000000" stroke="none">
<path d="M511 528 c3 -46 9 -90 13 -99 12 -27 53 -39 135 -39 62 0 84 4 102
19 23 18 23 20 7 52 l-16 34 -12 -31 c-13 -36 -32 -44 -103 -44 -66 0 -87 13
-87 53 l0 32 85 19 c47 10 85 22 85 27 0 18 -40 18 -81 -1 -65 -29 -79 -27
-79 14 0 31 -15 45 -50 46 -3 0 -2 -37 1 -82z"/>
</g>
</svg>
