<?xml version="1.0" standalone="no"?>
<!DOCTYPE svg PUBLIC "-//W3C//DTD SVG 20010904//EN"
 "http://www.w3.org/TR/2001/REC-SVG-20010904/DTD/svg10.dtd">
<svg version="1.0" xmlns="http://www.w3.org/2000/svg"
 width="96.000000pt" height="68.000000pt" viewBox="0 0 96.000000 68.000000"
 preserveAspectRatio="xMidYMid meet">
<metadata>
Created by potrace 1.16, written by Peter Selinger 2001-2019
</metadata>
<g transform="translate(0.000000,68.000000) scale(0.100000,-0.100000)"
fill="#000000" stroke="none">
<path d="M627 593 c-2 -2 -87 -12 -188 -24 -101 -11 -188 -22 -194 -24 -5 -2
5 -9 23 -16 21 -9 32 -20 32 -34 0 -25 -34 -100 -49 -109 -18 -11 -13 -34 9
-41 10 -3 42 1 70 9 28 8 78 18 112 22 l61 7 -22 -31 c-31 -44 -155 -135 -241
-178 -82 -41 -86 -55 -8 -26 102 38 166 73 221 122 30 28 58 50 61 50 4 0 5
-51 4 -112 l-3 -113 -45 3 -45 3 45 -41 c25 -22 47 -40 50 -40 3 0 14 7 25 16
18 14 20 29 23 184 l3 170 104 0 c104 0 128 7 100 30 -11 9 -41 11 -113 6
l-97 -7 3 60 c3 43 8 61 17 61 8 0 37 5 65 11 40 8 49 14 40 24 -10 12 -56 26
-63 18z m-112 -117 c4 -30 5 -59 1 -64 -3 -5 -31 -12 -63 -16 -32 -4 -75 -9
-95 -13 -33 -5 -38 -3 -38 15 0 11 7 33 15 48 8 16 15 39 15 51 0 26 14 30 97
32 l62 1 6 -54z"/>
</g>
</svg>
