<?xml version="1.0" standalone="no"?>
<!DOCTYPE svg PUBLIC "-//W3C//DTD SVG 20010904//EN"
 "http://www.w3.org/TR/2001/REC-SVG-20010904/DTD/svg10.dtd">
<svg version="1.0" xmlns="http://www.w3.org/2000/svg"
 width="96.000000pt" height="68.000000pt" viewBox="0 0 96.000000 68.000000"
 preserveAspectRatio="xMidYMid meet">
<metadata>
Created by potrace 1.16, written by Peter Selinger 2001-2019
</metadata>
<g transform="translate(0.000000,68.000000) scale(0.100000,-0.100000)"
fill="#000000" stroke="none">
<path d="M474 124 c1 -85 8 -96 81 -115 56 -16 195 -6 228 16 l26 17 -19 36
c-10 20 -20 44 -23 52 -4 12 -6 11 -12 -5 -26 -76 -41 -85 -138 -85 -79 0
-107 17 -107 66 0 20 5 45 11 56 12 22 -1 38 -32 38 -13 0 -15 -13 -15 -76z"/>
</g>
</svg>
