<?xml version="1.0" standalone="no"?>
<!DOCTYPE svg PUBLIC "-//W3C//DTD SVG 20010904//EN"
 "http://www.w3.org/TR/2001/REC-SVG-20010904/DTD/svg10.dtd">
<svg version="1.0" xmlns="http://www.w3.org/2000/svg"
 width="96.000000pt" height="68.000000pt" viewBox="0 0 96.000000 68.000000"
 preserveAspectRatio="xMidYMid meet">
<metadata>
Created by potrace 1.16, written by Peter Selinger 2001-2019
</metadata>
<g transform="translate(0.000000,68.000000) scale(0.100000,-0.100000)"
fill="#000000" stroke="none">
<path d="M595 321 c11 -5 15 -10 9 -10 -7 -1 -15 -8 -18 -17 -4 -12 -2 -15 9
-10 8 3 15 2 15 -3 0 -4 -15 -13 -32 -19 -18 -5 -26 -10 -17 -11 9 -1 19 -10
22 -21 3 -10 2 -18 -2 -17 -11 3 -81 -55 -80 -67 0 -7 2 -6 6 2 2 6 9 10 14 6
5 -3 12 2 15 10 3 9 10 14 14 11 5 -3 11 -1 15 5 10 16 24 2 18 -19 -3 -10 0
-22 6 -25 6 -4 11 -12 11 -17 0 -6 -4 -7 -10 -4 -15 9 -12 -58 3 -74 10 -11 9
-12 -2 -6 -10 6 -12 4 -7 -4 18 -29 30 -1 30 76 1 45 4 84 7 88 4 3 31 -15 60
-40 62 -53 88 -62 132 -46 18 6 22 9 10 7 -13 -2 -23 0 -23 6 0 6 -7 8 -15 4
-8 -3 -15 -1 -15 5 0 6 -7 8 -16 5 -10 -4 -13 -2 -8 6 5 7 0 9 -14 6 -12 -4
-25 -1 -29 4 -4 7 -1 8 8 3 31 -18 -2 9 -48 38 -33 22 -47 38 -45 50 2 9 9 17
15 17 9 0 9 2 1 8 -7 4 -14 18 -15 32 -3 16 -11 26 -24 27 l-20 3 20 -9z"/>
<path d="M700 280 c-51 -8 -51 -10 6 -15 30 -2 41 1 41 11 0 8 -1 13 -1 12 -1
0 -21 -4 -46 -8z"/>
<path d="M485 250 l-20 -9 20 0 c11 0 29 4 40 9 l20 9 -20 0 c-11 0 -29 -4
-40 -9z"/>
<path d="M472 134 c-7 -8 -8 -14 -3 -14 10 0 25 19 20 25 -2 1 -10 -3 -17 -11z"/>
</g>
</svg>
