<?xml version="1.0" standalone="no"?>
<!DOCTYPE svg PUBLIC "-//W3C//DTD SVG 20010904//EN"
 "http://www.w3.org/TR/2001/REC-SVG-20010904/DTD/svg10.dtd">
<svg version="1.0" xmlns="http://www.w3.org/2000/svg"
 width="90.000000pt" height="92.000000pt" viewBox="0 0 90.000000 92.000000"
 preserveAspectRatio="xMidYMid meet">
<metadata>
Created by potrace 1.16, written by Peter Selinger 2001-2019
</metadata>
<g transform="translate(0.000000,92.000000) scale(0.100000,-0.100000)"
fill="#000000" stroke="none">
<path d="M178 845 c-2 -3 1 -33 8 -67 8 -35 14 -89 14 -120 l0 -57 -37 -10
c-21 -6 -49 -11 -63 -12 -14 0 -34 -4 -45 -8 -19 -8 -19 -8 4 -20 15 -9 42
-11 82 -6 l59 7 0 -65 0 -64 -89 -42 c-49 -22 -94 -41 -100 -41 -24 0 -10 -40
19 -55 30 -15 31 -15 95 36 52 41 65 47 66 32 2 -42 -2 -130 -8 -162 -6 -33
-6 -33 -49 -27 -24 3 -44 4 -44 3 0 -8 101 -107 110 -107 5 0 16 13 25 30 11
22 15 63 15 173 l0 143 40 30 c54 40 54 60 0 29 -38 -22 -40 -19 -40 40 l0 55
45 11 c25 6 47 15 50 19 10 16 -26 32 -60 27 l-36 -6 6 57 c4 31 10 73 16 92
13 49 13 48 -23 70 -33 20 -50 24 -60 15z"/>
<path d="M665 735 c-5 -3 -73 -16 -150 -29 -126 -21 -140 -25 -136 -42 9 -38
4 -191 -9 -259 -14 -77 -48 -178 -82 -240 l-21 -40 32 30 c65 60 109 179 132
360 18 144 11 131 81 144 35 6 105 14 156 18 96 6 115 15 90 39 -15 15 -75 27
-93 19z"/>
<path d="M585 515 c-38 -7 -79 -11 -90 -9 -19 5 -20 1 -17 -158 4 -179 8 -195
65 -224 40 -22 168 -30 224 -15 22 6 51 20 64 30 l23 19 -18 58 c-11 33 -21
66 -24 74 -2 8 -10 -7 -18 -34 -21 -78 -40 -91 -137 -91 -64 0 -89 4 -111 19
l-29 18 6 117 c2 64 8 124 12 134 8 20 42 30 100 31 l40 1 -2 -49 c-1 -27 -4
-60 -8 -73 -5 -23 -9 -24 -41 -18 l-36 6 33 -40 c18 -23 35 -41 39 -41 20 0
41 45 59 129 19 88 20 96 4 113 -18 21 -40 21 -138 3z"/>
</g>
</svg>
