<?xml version="1.0" standalone="no"?>
<!DOCTYPE svg PUBLIC "-//W3C//DTD SVG 20010904//EN"
 "http://www.w3.org/TR/2001/REC-SVG-20010904/DTD/svg10.dtd">
<svg version="1.0" xmlns="http://www.w3.org/2000/svg"
 width="96.000000pt" height="68.000000pt" viewBox="0 0 96.000000 68.000000"
 preserveAspectRatio="xMidYMid meet">
<metadata>
Created by potrace 1.16, written by Peter Selinger 2001-2019
</metadata>
<g transform="translate(0.000000,68.000000) scale(0.100000,-0.100000)"
fill="#000000" stroke="none">
<path d="M625 525 c-44 -7 -111 -16 -148 -20 -66 -7 -68 -7 -51 -26 14 -16 16
-32 11 -101 -6 -95 -27 -164 -68 -225 -16 -24 -24 -43 -20 -43 14 0 69 66 90
108 19 37 51 174 51 217 0 12 6 28 14 34 7 6 72 16 145 23 72 6 131 15 131 19
0 7 -57 30 -69 28 -3 -1 -42 -7 -86 -14z"/>
</g>
</svg>
