<?xml version="1.0" standalone="no"?>
<!DOCTYPE svg PUBLIC "-//W3C//DTD SVG 20010904//EN"
 "http://www.w3.org/TR/2001/REC-SVG-20010904/DTD/svg10.dtd">
<svg version="1.0" xmlns="http://www.w3.org/2000/svg"
 width="96.000000pt" height="68.000000pt" viewBox="0 0 96.000000 68.000000"
 preserveAspectRatio="xMidYMid meet">
<metadata>
Created by potrace 1.16, written by Peter Selinger 2001-2019
</metadata>
<g transform="translate(0.000000,68.000000) scale(0.100000,-0.100000)"
fill="#000000" stroke="none">
<path d="M230 553 c13 -43 20 -128 11 -142 -5 -7 -32 -16 -61 -19 -75 -10 -79
-32 -6 -32 l56 0 -21 -42 c-12 -24 -46 -71 -76 -105 -30 -35 -50 -63 -43 -63
24 0 70 32 110 77 l42 48 -6 -60 c-12 -102 -10 -163 4 -180 13 -16 15 -15 27
1 9 12 13 55 13 136 l0 119 23 -27 c16 -19 29 -25 41 -21 28 11 14 40 -26 60
-28 14 -38 25 -38 42 0 19 8 25 45 34 63 16 55 41 -12 41 -26 0 -26 0 -20 67
7 75 -1 93 -44 93 -26 0 -27 -2 -19 -27z"/>
<path d="M510 549 c0 -35 -59 -134 -110 -185 -27 -27 -47 -50 -45 -52 2 -2 20
8 42 21 41 27 83 69 128 129 17 25 32 35 40 30 7 -4 47 -40 90 -79 78 -75 86
-78 157 -67 36 6 44 24 12 24 -51 0 -254 129 -254 162 0 17 -27 38 -49 38 -6
0 -11 -9 -11 -21z"/>
<path d="M550 374 c-25 -7 -55 -13 -68 -13 -14 -1 -20 -5 -17 -12 9 -14 165 5
165 21 0 14 -35 16 -80 4z"/>
<path d="M631 308 c-19 -5 -45 -8 -57 -5 l-22 4 21 -49 c13 -33 25 -47 36 -46
38 7 -3 -74 -76 -150 -7 -7 -13 -16 -13 -18 0 -8 21 6 71 48 26 21 49 38 53
38 3 0 28 -20 57 -46 52 -46 71 -51 77 -20 5 26 -14 43 -69 61 -27 9 -49 19
-49 21 0 3 7 16 16 29 15 23 15 25 0 25 -20 0 -21 20 -1 21 35 3 40 6 37 18
-1 7 4 24 13 37 9 14 13 29 10 34 -8 12 -59 11 -104 -2z m39 -43 c0 -22 -4
-25 -35 -25 -28 0 -35 4 -35 19 0 21 13 29 48 30 17 1 22 -5 22 -24z"/>
<path d="M466 289 c-10 -6 -36 -9 -56 -6 -30 4 -37 2 -33 -9 3 -8 9 -14 14
-14 5 0 8 -3 7 -7 -1 -5 2 -21 7 -36 6 -21 12 -26 26 -22 35 12 21 -31 -27
-79 -25 -26 -44 -49 -42 -52 3 -2 23 9 46 26 49 36 53 36 77 10 23 -26 45 -26
45 0 0 13 -9 22 -25 26 -28 7 -31 14 -13 32 8 8 8 15 -2 27 -10 13 -9 15 6 15
14 0 23 12 32 41 7 23 12 43 10 44 -11 11 -56 13 -72 4z m22 -41 c-3 -25 -43
-37 -60 -20 -19 19 0 42 32 42 27 0 31 -3 28 -22z"/>
</g>
</svg>
