<?xml version="1.0" standalone="no"?>
<!DOCTYPE svg PUBLIC "-//W3C//DTD SVG 20010904//EN"
 "http://www.w3.org/TR/2001/REC-SVG-20010904/DTD/svg10.dtd">
<svg version="1.0" xmlns="http://www.w3.org/2000/svg"
 width="96.000000pt" height="68.000000pt" viewBox="0 0 96.000000 68.000000"
 preserveAspectRatio="xMidYMid meet">
<metadata>
Created by potrace 1.16, written by Peter Selinger 2001-2019
</metadata>
<g transform="translate(0.000000,68.000000) scale(0.100000,-0.100000)"
fill="#000000" stroke="none">
<path d="M410 226 c0 -28 -22 -36 -107 -37 -29 -1 -53 -5 -53 -10 0 -15 48
-21 94 -11 31 6 46 6 46 -1 0 -19 -76 -82 -120 -99 l-45 -17 34 0 c51 -1 118
35 154 84 37 51 48 55 147 55 57 1 71 3 57 11 -10 6 -49 9 -88 7 -65 -3 -69
-2 -67 17 2 15 -4 21 -24 23 -24 3 -28 0 -28 -22z"/>
<path d="M480 144 c0 -14 125 -114 142 -114 15 0 8 47 -9 62 -20 17 -133 61
-133 52z"/>
</g>
</svg>
