<?xml version="1.0" standalone="no"?>
<!DOCTYPE svg PUBLIC "-//W3C//DTD SVG 20010904//EN"
 "http://www.w3.org/TR/2001/REC-SVG-20010904/DTD/svg10.dtd">
<svg version="1.0" xmlns="http://www.w3.org/2000/svg"
 width="96.000000pt" height="68.000000pt" viewBox="0 0 96.000000 68.000000"
 preserveAspectRatio="xMidYMid meet">
<metadata>
Created by potrace 1.16, written by Peter Selinger 2001-2019
</metadata>
<g transform="translate(0.000000,68.000000) scale(0.100000,-0.100000)"
fill="#000000" stroke="none">
<path d="M658 246 c-6 -54 -39 -119 -81 -163 -17 -18 -27 -33 -21 -33 19 0 84
61 105 100 13 22 25 40 28 40 3 0 21 -29 40 -65 l33 -65 52 0 c47 1 49 2 31
15 -65 46 -83 62 -113 99 -26 31 -32 46 -28 68 4 21 1 30 -14 38 -27 14 -27
14 -32 -34z"/>
</g>
</svg>
