<?xml version="1.0" standalone="no"?>
<!DOCTYPE svg PUBLIC "-//W3C//DTD SVG 20010904//EN"
 "http://www.w3.org/TR/2001/REC-SVG-20010904/DTD/svg10.dtd">
<svg version="1.0" xmlns="http://www.w3.org/2000/svg"
 width="96.000000pt" height="68.000000pt" viewBox="0 0 96.000000 68.000000"
 preserveAspectRatio="xMidYMid meet">
<metadata>
Created by potrace 1.16, written by Peter Selinger 2001-2019
</metadata>
<g transform="translate(0.000000,68.000000) scale(0.100000,-0.100000)"
fill="#000000" stroke="none">
<path d="M544 573 c3 -10 8 -48 11 -85 l7 -68 -74 0 -74 0 -17 -36 c-17 -35
-15 -54 4 -54 5 0 16 15 25 33 l16 33 155 13 c85 7 157 10 160 8 2 -3 -1 -15
-7 -27 -11 -21 -10 -22 22 -15 78 16 83 23 37 57 -22 17 -32 18 -90 9 -35 -6
-78 -11 -94 -11 l-31 0 1 78 0 77 -28 3 c-24 3 -28 0 -23 -15z"/>
<path d="M676 509 c-14 -23 -25 -43 -23 -45 1 -2 16 3 31 11 16 8 34 15 41 15
7 0 18 6 24 14 9 10 6 17 -13 30 -14 9 -27 16 -29 16 -2 0 -16 -19 -31 -41z"/>
<path d="M220 521 c0 -11 67 -71 80 -71 46 0 53 43 10 65 -32 16 -90 20 -90 6z"/>
<path d="M435 510 c-6 -9 51 -60 66 -60 14 0 23 30 12 41 -14 14 -72 29 -78
19z"/>
<path d="M195 399 c-44 -9 -84 -18 -90 -18 -5 -1 -3 -6 5 -11 20 -13 76 -12
123 1 22 6 41 9 43 7 5 -6 -98 -143 -145 -190 -23 -24 -36 -45 -31 -46 16 -6
84 42 125 86 l34 37 1 -47 c0 -26 -5 -70 -11 -99 -12 -56 -1 -99 25 -99 21 0
26 23 26 131 l0 100 35 -27 c26 -19 39 -24 47 -16 15 15 2 43 -22 49 -25 7
-25 11 2 33 19 15 20 20 9 34 -20 24 -35 19 -48 -15 -7 -17 -17 -28 -22 -24
-18 10 -13 23 26 66 36 39 36 42 18 55 -23 17 -48 16 -150 -7z"/>
<path d="M560 357 c-41 -5 -76 -10 -77 -11 -1 -1 3 -21 9 -45 l11 -43 45 6
c25 3 60 6 79 6 25 0 36 6 43 23 6 12 15 30 22 39 7 9 10 19 8 21 -13 12 -72
13 -140 4z m72 -42 c-3 -18 -11 -25 -27 -25 -12 0 -37 -3 -54 -6 -29 -6 -31
-5 -31 24 0 30 1 31 53 34 65 4 65 4 59 -27z"/>
<path d="M625 230 c-38 -5 -101 -9 -140 -11 -82 -3 -90 -6 -72 -24 8 -7 20
-42 26 -77 7 -35 15 -69 17 -76 5 -17 24 -15 24 3 0 12 14 15 69 15 38 0 82 3
98 6 23 5 35 1 51 -16 34 -37 55 -23 73 50 8 36 18 77 22 91 5 21 2 28 -19 37
-27 13 -43 13 -149 2z m110 -30 c10 -32 -3 -40 -64 -40 -55 0 -58 1 -58 24 0
20 5 26 31 29 72 9 85 7 91 -13z m-167 -26 c3 -18 -3 -22 -44 -28 -55 -7 -64
-3 -64 30 0 24 2 25 53 22 44 -3 52 -6 55 -24z m158 -67 c-4 -19 -12 -22 -61
-23 -54 0 -56 1 -53 25 3 22 8 26 48 29 25 2 50 4 55 6 14 4 18 -10 11 -37z
m-158 -5 c3 -20 -1 -22 -41 -22 -36 0 -46 4 -50 19 -4 17 1 21 32 24 51 5 56
3 59 -21z"/>
</g>
</svg>
