<?xml version="1.0" standalone="no"?>
<!DOCTYPE svg PUBLIC "-//W3C//DTD SVG 20010904//EN"
 "http://www.w3.org/TR/2001/REC-SVG-20010904/DTD/svg10.dtd">
<svg version="1.0" xmlns="http://www.w3.org/2000/svg"
 width="90.000000pt" height="92.000000pt" viewBox="0 0 90.000000 92.000000"
 preserveAspectRatio="xMidYMid meet">
<metadata>
Created by potrace 1.16, written by Peter Selinger 2001-2019
</metadata>
<g transform="translate(0.000000,92.000000) scale(0.100000,-0.100000)"
fill="#000000" stroke="none">
<path d="M508 767 l4 -124 -66 -6 c-37 -4 -80 -4 -96 0 -30 5 -42 -9 -19 -22
17 -11 29 -52 44 -163 14 -98 31 -145 44 -124 3 5 25 13 48 17 l42 7 3 -160
c2 -88 7 -164 11 -168 21 -21 35 54 39 208 3 121 6 128 68 128 38 0 50 -4 50
-15 0 -19 24 -20 39 -2 6 8 27 72 47 143 20 71 38 136 41 145 3 10 -8 22 -31
34 -33 18 -39 18 -122 4 l-87 -16 6 103 c6 110 4 117 -43 129 l-25 6 3 -124z
m210 -172 c3 -55 -6 -67 -45 -56 -18 5 -48 6 -67 1 l-36 -8 0 48 0 49 43 4
c23 2 56 4 72 3 28 -1 30 -4 33 -41z m-208 -24 l0 -48 -47 -6 c-27 -3 -50 -4
-51 -2 -2 2 -6 21 -9 44 -6 43 -6 43 67 54 14 3 28 5 33 6 4 0 7 -21 7 -48z
m189 -120 c-9 -48 -15 -61 -26 -57 -8 3 -36 6 -62 6 l-47 0 4 43 c5 48 14 56
62 58 19 0 44 4 55 8 11 5 21 8 22 7 2 -1 -2 -30 -8 -65z m-189 -15 c0 -47 -9
-56 -60 -56 -27 0 -28 3 -32 50 l-3 50 48 0 47 0 0 -44z"/>
<path d="M130 777 c0 -7 4 -17 10 -23 5 -5 13 -51 16 -100 l7 -91 -33 -6 c-18
-4 -43 -7 -56 -7 -25 0 -32 -14 -12 -26 6 -4 31 -7 55 -6 l43 0 0 -82 0 -83
-75 -22 c-41 -13 -75 -26 -75 -31 0 -10 49 -50 62 -50 17 0 267 153 263 161
-3 4 -28 -1 -55 -12 -28 -10 -55 -19 -60 -19 -6 0 -10 32 -10 74 l0 74 45 6
c76 12 70 52 -6 49 l-42 -2 6 62 c4 34 9 74 13 89 5 22 1 29 -24 42 -38 19
-72 21 -72 3z"/>
</g>
</svg>
