<?xml version="1.0" standalone="no"?>
<!DOCTYPE svg PUBLIC "-//W3C//DTD SVG 20010904//EN"
 "http://www.w3.org/TR/2001/REC-SVG-20010904/DTD/svg10.dtd">
<svg version="1.0" xmlns="http://www.w3.org/2000/svg"
 width="96.000000pt" height="68.000000pt" viewBox="0 0 96.000000 68.000000"
 preserveAspectRatio="xMidYMid meet">
<metadata>
Created by potrace 1.16, written by Peter Selinger 2001-2019
</metadata>
<g transform="translate(0.000000,68.000000) scale(0.100000,-0.100000)"
fill="#000000" stroke="none">
<path d="M566 568 c3 -40 1 -79 -4 -86 -6 -9 -35 -14 -86 -15 -53 -2 -76 -6
-76 -14 0 -7 4 -13 10 -13 11 0 31 -68 36 -123 5 -44 25 -89 32 -69 2 7 22 12
48 12 l45 0 -2 -110 c-2 -60 0 -113 4 -117 20 -19 32 25 35 127 l4 110 53 0
c32 0 55 -5 57 -12 8 -23 27 3 53 75 14 39 33 87 41 105 l14 33 -35 15 c-28
11 -48 12 -98 4 -34 -5 -66 -10 -70 -10 -5 0 -7 31 -6 68 2 79 -3 92 -36 92
-23 0 -23 -2 -19 -72z m182 -135 l-3 -36 -63 -1 -62 -1 0 32 c0 34 9 38 93 42
38 1 38 1 35 -36z m-180 -15 c-3 -31 -6 -33 -50 -38 -45 -6 -48 -5 -58 24 -5
16 -10 30 -10 32 0 5 43 11 83 13 37 1 38 0 35 -31z m165 -45 c2 -5 0 -23 -5
-40 -8 -32 -11 -33 -58 -33 -55 0 -60 4 -53 42 5 24 10 27 52 31 25 2 49 4 53
5 4 1 9 -1 11 -5z m-166 -46 c-2 -27 -7 -32 -37 -38 -43 -9 -47 -7 -52 33 -3
33 -3 33 43 34 47 2 47 2 46 -29z"/>
<path d="M236 544 c4 -21 8 -59 9 -84 0 -43 -1 -45 -30 -48 -16 -1 -41 -5 -54
-8 -37 -8 -6 -24 47 -24 l42 0 0 -55 0 -54 -52 -16 c-28 -8 -58 -15 -65 -15
-25 0 -13 -28 18 -40 29 -12 38 -10 132 36 116 55 151 80 101 71 -18 -3 -44
-9 -58 -13 -27 -6 -27 -6 -24 42 3 48 4 49 41 55 20 3 40 9 43 12 13 12 -9 27
-41 27 -40 0 -46 13 -33 74 12 56 6 64 -47 73 l-38 6 9 -39z"/>
</g>
</svg>
