<?xml version="1.0" standalone="no"?>
<!DOCTYPE svg PUBLIC "-//W3C//DTD SVG 20010904//EN"
 "http://www.w3.org/TR/2001/REC-SVG-20010904/DTD/svg10.dtd">
<svg version="1.0" xmlns="http://www.w3.org/2000/svg"
 width="96.000000pt" height="68.000000pt" viewBox="0 0 96.000000 68.000000"
 preserveAspectRatio="xMidYMid meet">
<metadata>
Created by potrace 1.16, written by Peter Selinger 2001-2019
</metadata>
<g transform="translate(0.000000,68.000000) scale(0.100000,-0.100000)"
fill="#000000" stroke="none">
<path d="M570 495 c-41 -7 -103 -14 -137 -14 l-63 -1 0 -119 c0 -110 8 -146
27 -127 4 3 8 53 11 110 l5 104 61 11 c33 6 96 14 138 18 l76 6 7 -44 c3 -24
5 -69 3 -99 -3 -47 -6 -55 -25 -60 l-23 -5 25 -30 25 -30 20 24 c17 19 20 38
20 106 0 46 4 95 9 109 19 49 -48 65 -179 41z"/>
</g>
</svg>
