<?xml version="1.0" standalone="no"?>
<!DOCTYPE svg PUBLIC "-//W3C//DTD SVG 20010904//EN"
 "http://www.w3.org/TR/2001/REC-SVG-20010904/DTD/svg10.dtd">
<svg version="1.0" xmlns="http://www.w3.org/2000/svg"
 width="90.000000pt" height="92.000000pt" viewBox="0 0 90.000000 92.000000"
 preserveAspectRatio="xMidYMid meet">
<metadata>
Created by potrace 1.16, written by Peter Selinger 2001-2019
</metadata>
<g transform="translate(0.000000,92.000000) scale(0.100000,-0.100000)"
fill="#000000" stroke="none">
<path d="M225 811 c0 -49 -3 -92 -6 -95 -3 -3 -45 -8 -93 -10 -49 -3 -90 -7
-92 -9 -2 -2 7 -14 21 -27 24 -22 28 -23 70 -12 66 18 78 16 65 -8 -9 -17 -5
-22 32 -41 l42 -22 -34 -28 c-18 -16 -59 -37 -89 -48 l-56 -19 45 -1 c45 -1
120 27 151 55 20 18 42 10 73 -25 l19 -21 -44 0 c-24 0 -51 -4 -59 -10 -28
-18 18 -23 121 -14 114 11 128 7 112 -29 -10 -21 -21 -25 -105 -36 -173 -22
-170 -21 -162 -39 13 -28 6 -83 -12 -103 -14 -16 -15 -24 -6 -44 l12 -26 44
26 c34 20 67 28 154 37 127 13 142 8 142 -49 0 -68 -45 -129 -80 -108 -6 4
-24 10 -40 15 l-30 9 38 -54 c22 -32 45 -54 56 -55 10 0 35 17 56 38 30 30 40
48 45 87 4 28 14 65 22 82 18 39 14 54 -21 72 -22 12 -47 13 -165 1 -77 -7
-147 -10 -155 -7 -12 5 -13 12 -5 35 11 33 22 36 172 48 66 5 87 10 83 20 -3
7 6 33 19 58 l24 45 -26 16 c-25 17 -68 17 -138 -1 -22 -5 -25 -3 -25 20 0 20
-8 30 -34 42 l-34 17 33 61 c25 48 38 62 60 66 32 6 35 26 4 23 -10 -2 -28 6
-39 17 -29 29 -52 26 -44 -5 5 -20 2 -25 -14 -25 -11 0 -34 -3 -51 -6 l-32 -7
26 69 26 69 -26 23 c-44 38 -50 30 -50 -67z m108 -128 c-3 -10 -15 -30 -25
-45 -17 -24 -21 -25 -53 -15 -69 21 -26 70 67 76 12 1 16 -4 11 -16z"/>
<path d="M620 821 c-15 -10 -72 -25 -142 -36 -45 -7 -48 -18 -9 -34 38 -16
105 -86 96 -101 -10 -16 -82 -60 -124 -75 l-36 -14 35 0 c19 -1 63 12 99 29
l64 31 49 -56 c41 -45 55 -55 81 -55 49 0 107 12 107 21 0 4 -37 26 -82 48
-46 22 -93 48 -106 58 l-23 18 31 55 c17 30 36 63 43 72 8 12 8 21 1 28 -15
15 -67 22 -84 11z m10 -46 c0 -10 -32 -85 -37 -85 -2 0 -22 15 -43 32 l-39 33
37 11 c39 13 82 17 82 9z"/>
</g>
</svg>
