<?xml version="1.0" standalone="no"?>
<!DOCTYPE svg PUBLIC "-//W3C//DTD SVG 20010904//EN"
 "http://www.w3.org/TR/2001/REC-SVG-20010904/DTD/svg10.dtd">
<svg version="1.0" xmlns="http://www.w3.org/2000/svg"
 width="90.000000pt" height="92.000000pt" viewBox="0 0 90.000000 92.000000"
 preserveAspectRatio="xMidYMid meet">
<metadata>
Created by potrace 1.16, written by Peter Selinger 2001-2019
</metadata>
<g transform="translate(0.000000,92.000000) scale(0.100000,-0.100000)"
fill="#000000" stroke="none">
<path d="M347 863 c-4 -3 -7 -15 -7 -25 0 -29 -34 -88 -86 -152 -46 -57 -46
-58 -14 -41 18 9 51 34 74 54 35 33 50 39 104 44 34 4 62 3 62 -1 0 -4 -22
-36 -49 -72 l-49 -65 -78 -12 c-44 -7 -94 -10 -111 -7 -36 7 -41 -1 -18 -26 8
-9 21 -49 28 -89 14 -73 31 -106 45 -85 7 11 102 26 102 17 0 -2 -12 -29 -26
-59 -38 -81 -109 -153 -198 -199 -42 -22 -76 -43 -76 -47 0 -12 97 19 150 48
68 37 142 121 176 200 30 71 27 69 157 79 70 6 85 10 77 20 -14 16 6 58 51
109 l30 35 -22 20 c-34 31 -49 33 -144 16 -49 -8 -90 -14 -92 -12 -2 2 33 39
78 81 49 47 78 83 75 92 -10 25 -55 27 -129 5 -38 -11 -73 -19 -75 -16 -3 3 2
13 11 23 23 25 21 37 -8 56 -28 18 -29 19 -38 9z m231 -271 c10 -7 8 -20 -9
-64 l-21 -56 -62 -11 c-35 -6 -65 -11 -69 -11 -7 0 9 56 24 84 7 13 7 22 0 29
-20 20 -11 26 42 30 28 2 59 4 67 5 8 1 21 -2 28 -6z m-213 -84 c0 -31 -3 -59
-5 -61 -3 -2 -28 -7 -57 -9 l-51 -5 -7 45 c-4 24 -9 50 -11 57 -5 13 64 34
106 32 24 -2 25 -5 25 -59z"/>
<path d="M428 273 c3 -82 9 -137 17 -154 22 -42 78 -63 181 -67 103 -4 166 9
200 43 l24 24 -20 43 c-11 24 -20 55 -20 70 0 43 -19 43 -26 -1 -14 -88 -61
-122 -164 -120 -137 2 -174 56 -135 199 14 53 13 56 -7 73 -11 9 -28 17 -37
17 -14 0 -16 -15 -13 -127z"/>
<path d="M560 334 c0 -21 77 -109 99 -112 20 -3 22 0 19 34 -2 26 -11 43 -28
55 -28 21 -90 36 -90 23z"/>
</g>
</svg>
