<?xml version="1.0" standalone="no"?>
<!DOCTYPE svg PUBLIC "-//W3C//DTD SVG 20010904//EN"
 "http://www.w3.org/TR/2001/REC-SVG-20010904/DTD/svg10.dtd">
<svg version="1.0" xmlns="http://www.w3.org/2000/svg"
 width="96.000000pt" height="68.000000pt" viewBox="0 0 96.000000 68.000000"
 preserveAspectRatio="xMidYMid meet">
<metadata>
Created by potrace 1.16, written by Peter Selinger 2001-2019
</metadata>
<g transform="translate(0.000000,68.000000) scale(0.100000,-0.100000)"
fill="#000000" stroke="none">
<path d="M210 450 c-14 -4 -49 -8 -77 -9 -51 -1 -52 -2 -35 -19 10 -10 24 -44
31 -76 10 -47 16 -56 29 -50 10 3 40 9 69 11 38 4 50 9 46 19 -3 7 3 36 12 65
15 43 15 53 4 60 -17 10 -45 10 -79 -1z m30 -47 c0 -57 -10 -73 -45 -73 -28 0
-33 4 -39 31 -12 60 -7 65 57 68 23 1 27 -3 27 -26z"/>
</g>
</svg>
