<?xml version="1.0" standalone="no"?>
<!DOCTYPE svg PUBLIC "-//W3C//DTD SVG 20010904//EN"
 "http://www.w3.org/TR/2001/REC-SVG-20010904/DTD/svg10.dtd">
<svg version="1.0" xmlns="http://www.w3.org/2000/svg"
 width="96.000000pt" height="68.000000pt" viewBox="0 0 96.000000 68.000000"
 preserveAspectRatio="xMidYMid meet">
<metadata>
Created by potrace 1.16, written by Peter Selinger 2001-2019
</metadata>
<g transform="translate(0.000000,68.000000) scale(0.100000,-0.100000)"
fill="#000000" stroke="none">
<path d="M634 574 c13 -33 -5 -63 -41 -70 -25 -5 -31 -9 -21 -15 7 -5 21 -6
32 -3 16 5 18 2 12 -20 -8 -33 10 -35 25 -2 11 24 44 36 100 36 16 0 29 4 29
9 0 12 -48 23 -71 16 -21 -7 -24 2 -9 25 12 20 -6 40 -37 40 -19 0 -24 -4 -19
-16z"/>
<path d="M400 551 c0 -6 5 -20 12 -31 16 -24 11 -29 -43 -39 l-44 -8 28 -11
c19 -8 34 -9 47 -2 28 15 36 12 49 -16 14 -31 26 -24 26 14 0 19 6 28 25 33
25 6 25 6 -5 10 -21 3 -31 11 -35 29 -4 18 -13 26 -33 28 -15 2 -27 -2 -27 -7z"/>
</g>
</svg>
