<?xml version="1.0" standalone="no"?>
<!DOCTYPE svg PUBLIC "-//W3C//DTD SVG 20010904//EN"
 "http://www.w3.org/TR/2001/REC-SVG-20010904/DTD/svg10.dtd">
<svg version="1.0" xmlns="http://www.w3.org/2000/svg"
 width="96.000000pt" height="68.000000pt" viewBox="0 0 96.000000 68.000000"
 preserveAspectRatio="xMidYMid meet">
<metadata>
Created by potrace 1.16, written by Peter Selinger 2001-2019
</metadata>
<g transform="translate(0.000000,68.000000) scale(0.100000,-0.100000)"
fill="#000000" stroke="none">
<path d="M565 405 c-27 -7 -73 -14 -102 -14 -53 -1 -78 -16 -47 -28 9 -3 59 0
111 9 52 8 96 11 99 6 3 -5 -6 -18 -21 -30 -41 -32 -16 -43 37 -15 25 13 55
26 67 30 29 7 26 24 -9 42 -34 18 -66 18 -135 0z"/>
</g>
</svg>
