<?xml version="1.0" standalone="no"?>
<!DOCTYPE svg PUBLIC "-//W3C//DTD SVG 20010904//EN"
 "http://www.w3.org/TR/2001/REC-SVG-20010904/DTD/svg10.dtd">
<svg version="1.0" xmlns="http://www.w3.org/2000/svg"
 width="96.000000pt" height="68.000000pt" viewBox="0 0 96.000000 68.000000"
 preserveAspectRatio="xMidYMid meet">
<metadata>
Created by potrace 1.16, written by Peter Selinger 2001-2019
</metadata>
<g transform="translate(0.000000,68.000000) scale(0.100000,-0.100000)"
fill="#000000" stroke="none">
<path d="M296 558 c-8 -39 -48 -98 -128 -190 -33 -38 -55 -68 -50 -68 12 0 82
52 106 78 10 12 23 19 28 16 11 -7 2 -168 -14 -228 -7 -27 -6 -47 3 -67 13
-33 24 -37 38 -11 11 21 18 299 7 330 -6 17 2 35 38 82 41 53 44 61 30 75 -26
26 -51 19 -58 -17z"/>
</g>
</svg>
