<?xml version="1.0" standalone="no"?>
<!DOCTYPE svg PUBLIC "-//W3C//DTD SVG 20010904//EN"
 "http://www.w3.org/TR/2001/REC-SVG-20010904/DTD/svg10.dtd">
<svg version="1.0" xmlns="http://www.w3.org/2000/svg"
 width="96.000000pt" height="68.000000pt" viewBox="0 0 96.000000 68.000000"
 preserveAspectRatio="xMidYMid meet">
<metadata>
Created by potrace 1.16, written by Peter Selinger 2001-2019
</metadata>
<g transform="translate(0.000000,68.000000) scale(0.100000,-0.100000)"
fill="#000000" stroke="none">
<path d="M540 574 c-36 -7 -107 -13 -157 -14 -51 0 -93 -2 -93 -5 0 -3 9 -14
19 -24 11 -11 25 -44 32 -75 14 -62 32 -87 51 -68 7 7 24 12 39 12 27 0 27 0
15 -42 -15 -49 -29 -56 -111 -58 -33 -1 -69 -5 -80 -9 -19 -8 -19 -8 3 -15 12
-4 52 -4 89 0 l66 7 -19 -31 c-28 -49 -90 -110 -145 -143 -27 -17 -48 -34 -45
-36 3 -3 34 8 68 25 61 29 169 127 196 178 9 18 24 22 92 27 108 9 114 6 105
-52 -4 -25 -17 -66 -28 -91 -22 -44 -23 -45 -69 -44 -27 0 -48 -1 -48 -2 0 -1
13 -16 29 -33 60 -64 107 -29 155 114 42 124 42 120 6 135 -25 10 -47 10 -121
0 -49 -7 -92 -10 -96 -7 -3 4 2 18 11 31 8 14 13 31 10 39 -6 16 40 27 109 27
33 0 38 3 32 20 -7 21 14 69 39 89 24 20 20 31 -19 47 -40 16 -48 16 -135 -2z
m64 -42 c3 -5 -3 -24 -12 -43 -15 -29 -25 -36 -72 -46 -30 -7 -70 -12 -89 -10
-32 2 -36 5 -47 49 l-12 47 52 4 c105 7 175 7 180 -1z"/>
</g>
</svg>
