<?xml version="1.0" standalone="no"?>
<!DOCTYPE svg PUBLIC "-//W3C//DTD SVG 20010904//EN"
 "http://www.w3.org/TR/2001/REC-SVG-20010904/DTD/svg10.dtd">
<svg version="1.0" xmlns="http://www.w3.org/2000/svg"
 width="90.000000pt" height="92.000000pt" viewBox="0 0 90.000000 92.000000"
 preserveAspectRatio="xMidYMid meet">
<metadata>
Created by potrace 1.16, written by Peter Selinger 2001-2019
</metadata>
<g transform="translate(0.000000,92.000000) scale(0.100000,-0.100000)"
fill="#000000" stroke="none">
<path d="M255 803 c-31 -9 -72 -12 -107 -9 -43 4 -58 2 -58 -7 0 -7 4 -17 9
-22 5 -6 11 -55 13 -110 l3 -100 -27 -3 c-16 -2 -28 1 -28 7 0 6 -3 11 -7 11
-12 0 -46 -118 -39 -136 10 -27 30 -10 46 39 17 52 19 53 186 77 108 16 118
13 100 -22 -8 -16 -13 -28 -10 -28 3 0 27 11 55 26 57 28 55 43 -8 66 -35 13
-35 13 -28 61 3 27 13 67 22 90 16 39 16 41 -6 59 -27 21 -47 21 -116 1z m65
-52 c0 -27 -13 -33 -70 -34 l-49 -1 5 -45 c3 -25 7 -58 9 -72 4 -23 0 -27 -25
-31 l-30 -5 0 98 0 98 28 4 c15 2 51 5 80 6 45 1 52 -1 52 -18z m-10 -100 c0
-41 -20 -71 -46 -71 -10 0 -14 14 -14 55 0 54 0 55 30 55 28 0 30 -2 30 -39z"/>
<path d="M650 784 c-30 -8 -96 -17 -147 -20 -90 -7 -91 -7 -78 -28 7 -12 16
-39 20 -61 8 -49 23 -77 36 -70 5 4 9 3 9 0 0 -13 -45 -93 -72 -127 -39 -50
-19 -48 36 2 23 22 46 37 49 33 4 -3 59 2 122 12 91 14 118 16 128 6 18 -18
16 -282 -2 -345 l-14 -48 -49 5 c-55 7 -55 3 6 -68 l34 -40 22 20 c50 44 61
94 70 299 l8 191 -26 22 c-33 28 -40 28 -119 3 -34 -10 -86 -22 -115 -26 l-52
-7 17 27 c14 20 15 31 7 40 -8 11 6 15 74 21 47 4 98 4 114 0 27 -6 30 -3 63
62 19 37 35 71 37 75 6 12 -56 38 -90 37 -18 -1 -58 -7 -88 -15z m100 -43 c0
-10 -5 -31 -10 -47 -9 -26 -15 -29 -54 -29 l-44 0 18 35 c9 19 15 41 13 48 -3
8 8 12 36 12 33 0 41 -4 41 -19z m-120 -15 c0 -58 -38 -101 -54 -60 -10 27 -7
72 7 77 30 13 47 7 47 -17z m-90 -26 c13 -47 7 -60 -25 -60 -20 0 -25 7 -33
43 -10 51 -8 57 23 57 20 0 26 -7 35 -40z"/>
<path d="M225 483 c-27 -7 -64 -12 -81 -9 l-30 4 4 -87 c5 -104 -8 -176 -47
-253 -29 -57 -29 -57 -5 -42 28 19 57 64 73 116 12 37 12 37 32 17 20 -20 20
-19 69 22 28 23 50 46 50 50 0 4 -24 -3 -52 -16 -81 -38 -86 -36 -77 31 4 31
9 58 11 60 3 2 19 -7 37 -20 34 -25 61 -25 61 0 0 16 -35 40 -73 50 -44 10
-31 37 25 48 80 16 80 16 76 -148 -2 -83 -7 -150 -13 -155 -7 -7 -22 -8 -43
-1 l-33 9 43 -51 42 -50 23 26 c26 31 27 37 24 201 -2 73 2 132 9 150 10 26 9
32 -10 47 -26 21 -46 21 -115 1z"/>
<path d="M507 451 l6 -41 -58 0 c-49 0 -56 -2 -45 -15 6 -8 17 -36 24 -62 12
-47 13 -48 49 -45 36 3 37 3 37 -32 0 -39 -8 -44 -90 -48 l-45 -3 28 -28 c20
-20 33 -27 45 -21 9 4 57 21 105 38 l88 31 18 -24 c21 -27 41 -21 41 14 0 25
-51 75 -76 75 -12 0 -12 -4 -4 -21 15 -26 12 -29 -36 -32 -37 -2 -39 -1 -37
27 1 16 4 30 6 33 2 2 27 6 56 10 39 4 49 9 41 18 -7 9 -2 23 16 50 14 21 23
43 20 50 -7 19 -61 28 -85 16 -33 -18 -49 -13 -53 17 -2 21 -9 28 -30 30 -25
3 -26 2 -21 -37z m123 -68 c0 -27 -12 -39 -42 -45 -26 -5 -28 -3 -28 28 0 32
2 34 35 34 27 0 35 -4 35 -17z m-110 -28 c0 -32 -2 -35 -30 -35 -26 0 -30 3
-30 29 0 28 10 36 48 40 7 1 12 -12 12 -34z"/>
</g>
</svg>
