<?xml version="1.0" standalone="no"?>
<!DOCTYPE svg PUBLIC "-//W3C//DTD SVG 20010904//EN"
 "http://www.w3.org/TR/2001/REC-SVG-20010904/DTD/svg10.dtd">
<svg version="1.0" xmlns="http://www.w3.org/2000/svg"
 width="96.000000pt" height="68.000000pt" viewBox="0 0 96.000000 68.000000"
 preserveAspectRatio="xMidYMid meet">
<metadata>
Created by potrace 1.16, written by Peter Selinger 2001-2019
</metadata>
<g transform="translate(0.000000,68.000000) scale(0.100000,-0.100000)"
fill="#000000" stroke="none">
<path d="M574 565 c-5 -37 -10 -45 -28 -45 -11 0 -32 -3 -44 -7 -18 -4 -20 -8
-10 -14 7 -5 23 -9 36 -9 24 0 27 -11 12 -41 -19 -34 8 -21 32 16 22 33 26 35
80 35 31 0 63 3 72 6 30 12 5 24 -50 24 -58 0 -60 1 -43 31 12 24 -3 49 -32
49 -13 0 -19 -11 -25 -45z"/>
<path d="M285 580 c-3 -5 -1 -18 5 -29 22 -43 14 -51 -52 -51 l-61 0 19 -21
c16 -18 26 -20 71 -14 50 6 52 5 68 -25 19 -37 37 -30 33 13 -3 28 1 32 22 35
45 6 46 22 2 22 -40 0 -42 1 -42 30 0 24 -6 33 -26 40 -31 12 -31 12 -39 0z"/>
</g>
</svg>
