<?xml version="1.0" standalone="no"?>
<!DOCTYPE svg PUBLIC "-//W3C//DTD SVG 20010904//EN"
 "http://www.w3.org/TR/2001/REC-SVG-20010904/DTD/svg10.dtd">
<svg version="1.0" xmlns="http://www.w3.org/2000/svg"
 width="96.000000pt" height="68.000000pt" viewBox="0 0 96.000000 68.000000"
 preserveAspectRatio="xMidYMid meet">
<metadata>
Created by potrace 1.16, written by Peter Selinger 2001-2019
</metadata>
<g transform="translate(0.000000,68.000000) scale(0.100000,-0.100000)"
fill="#000000" stroke="none">
<path d="M207 480 l6 -80 -62 0 -62 0 19 -25 c11 -14 23 -41 26 -60 7 -34 8
-35 42 -29 l34 6 0 -40 c0 -35 2 -39 20 -35 16 4 20 14 20 44 0 37 1 38 45 45
26 3 44 11 43 18 -2 6 4 26 11 44 17 41 6 52 -53 52 l-39 0 7 64 c6 60 5 64
-16 70 -46 12 -46 10 -41 -74z m91 -112 c-2 -25 -8 -34 -25 -36 -19 -3 -23 1
-23 26 0 34 6 42 32 42 16 0 19 -6 16 -32z m-88 -12 c0 -32 -20 -53 -40 -41
-13 8 -17 64 -6 69 33 14 46 6 46 -28z"/>
</g>
</svg>
