<?xml version="1.0" standalone="no"?>
<!DOCTYPE svg PUBLIC "-//W3C//DTD SVG 20010904//EN"
 "http://www.w3.org/TR/2001/REC-SVG-20010904/DTD/svg10.dtd">
<svg version="1.0" xmlns="http://www.w3.org/2000/svg"
 width="96.000000pt" height="68.000000pt" viewBox="0 0 96.000000 68.000000"
 preserveAspectRatio="xMidYMid meet">
<metadata>
Created by potrace 1.16, written by Peter Selinger 2001-2019
</metadata>
<g transform="translate(0.000000,68.000000) scale(0.100000,-0.100000)"
fill="#000000" stroke="none">
<path d="M560 590 c0 -40 0 -40 -39 -40 -22 0 -42 -4 -46 -9 -8 -13 33 -34 52
-27 13 5 14 0 9 -29 -9 -45 7 -46 36 -1 21 32 27 35 90 41 38 4 68 11 68 16 0
15 -53 31 -83 25 -25 -5 -27 -4 -21 20 7 29 -7 44 -43 44 -20 0 -23 -5 -23
-40z"/>
<path d="M295 600 c-3 -5 1 -20 10 -34 18 -27 9 -39 -28 -36 -47 4 -87 0 -87
-10 0 -5 13 -16 28 -24 23 -12 37 -13 72 -4 26 7 45 8 47 2 15 -41 43 -41 43
0 0 18 7 25 31 30 19 3 28 10 23 17 -3 6 -19 9 -35 5 -26 -5 -29 -3 -29 19 0
34 -58 62 -75 35z"/>
<path d="M370 449 c-74 -39 -74 -39 -31 -33 39 6 43 5 39 -12 -3 -20 -23 -26
-123 -41 l-50 -8 70 -5 70 -5 -45 -35 c-25 -20 -67 -47 -95 -60 -27 -13 -44
-25 -37 -28 7 -2 49 15 94 37 45 23 82 40 83 39 1 -2 7 -18 14 -35 10 -26 18
-32 35 -28 11 2 46 7 76 10 43 5 59 12 73 31 36 48 -18 67 -121 44 -48 -12
-69 -6 -49 14 24 24 56 36 97 36 37 0 52 -8 119 -64 89 -73 104 -80 166 -70
42 6 64 24 30 24 -49 0 -235 88 -235 111 0 5 32 9 70 9 39 0 70 4 70 9 0 16
-48 21 -117 11 -95 -13 -150 -13 -136 1 6 6 9 17 6 24 -5 14 26 29 70 34 20 3
-25 31 -47 30 -12 0 -55 -19 -96 -40z m130 -158 c0 -19 -34 -31 -91 -31 -22 0
-29 5 -29 19 0 15 8 21 33 24 75 9 87 8 87 -12z"/>
<path d="M590 220 c-54 -13 -291 -29 -328 -23 -32 5 -32 5 -22 -21 5 -15 10
-49 10 -76 0 -58 7 -80 26 -80 11 0 14 17 14 74 l0 73 59 6 c33 4 109 10 169
13 l110 7 4 -43 c5 -59 -10 -85 -50 -85 -18 0 -32 -3 -32 -7 0 -17 49 -58 69
-58 29 0 61 54 61 103 0 21 5 48 11 60 10 18 8 24 -17 44 -31 25 -32 25 -84
13z"/>
<path d="M403 153 c-29 -2 -53 -5 -53 -6 0 -2 9 -20 20 -42 19 -37 22 -39 63
-36 39 3 72 7 90 10 4 0 7 6 7 13 0 6 8 20 17 30 15 17 15 20 3 28 -15 10 -43
10 -147 3z m97 -28 c0 -17 -39 -35 -76 -35 -17 0 -24 6 -24 18 0 27 9 32 57
32 32 0 43 -4 43 -15z"/>
</g>
</svg>
