<?xml version="1.0" standalone="no"?>
<!DOCTYPE svg PUBLIC "-//W3C//DTD SVG 20010904//EN"
 "http://www.w3.org/TR/2001/REC-SVG-20010904/DTD/svg10.dtd">
<svg version="1.0" xmlns="http://www.w3.org/2000/svg"
 width="90.000000pt" height="92.000000pt" viewBox="0 0 90.000000 92.000000"
 preserveAspectRatio="xMidYMid meet">
<metadata>
Created by potrace 1.16, written by Peter Selinger 2001-2019
</metadata>
<g transform="translate(0.000000,92.000000) scale(0.100000,-0.100000)"
fill="#000000" stroke="none">
<path d="M360 868 c0 -2 7 -21 15 -43 8 -22 14 -77 15 -121 l0 -82 -97 -11
c-154 -19 -173 -23 -167 -33 18 -29 106 -30 231 -3 21 5 22 3 13 -21 -13 -33
-125 -177 -171 -220 -19 -18 -67 -57 -108 -88 -85 -65 -71 -72 37 -20 77 37
189 137 228 204 10 16 22 30 25 30 10 0 2 -152 -12 -255 -10 -68 -9 -86 4
-117 20 -48 34 -48 53 -2 12 28 15 76 14 213 -1 97 -1 185 -1 195 1 12 28 -19
70 -80 38 -54 89 -121 114 -149 42 -47 47 -50 93 -50 67 1 164 15 164 24 0 4
-39 26 -88 48 -48 23 -115 60 -149 83 -65 43 -203 183 -203 205 0 10 33 15
128 20 70 4 131 9 135 12 4 3 2 12 -5 20 -24 29 -56 33 -151 18 -51 -8 -95
-15 -99 -15 -11 0 -10 77 3 145 10 56 10 60 -11 77 -18 14 -81 26 -80 16z"/>
</g>
</svg>
