<?xml version="1.0" standalone="no"?>
<!DOCTYPE svg PUBLIC "-//W3C//DTD SVG 20010904//EN"
 "http://www.w3.org/TR/2001/REC-SVG-20010904/DTD/svg10.dtd">
<svg version="1.0" xmlns="http://www.w3.org/2000/svg"
 width="96.000000pt" height="68.000000pt" viewBox="0 0 96.000000 68.000000"
 preserveAspectRatio="xMidYMid meet">
<metadata>
Created by potrace 1.16, written by Peter Selinger 2001-2019
</metadata>
<g transform="translate(0.000000,68.000000) scale(0.100000,-0.100000)"
fill="#000000" stroke="none">
<path d="M605 561 c0 -33 -3 -63 -7 -67 -4 -4 -30 -9 -57 -12 l-50 -4 -3 43
c-3 39 -6 44 -29 47 -26 3 -26 2 -21 -47 4 -50 4 -51 -22 -51 -14 0 -26 -4
-26 -10 0 -5 14 -10 30 -10 17 0 30 -5 30 -12 0 -7 3 -30 6 -50 l7 -38 -59 -1
c-33 0 -68 -4 -79 -9 -40 -16 36 -23 124 -12 47 7 152 15 234 18 81 4 147 10
147 14 0 17 -67 25 -127 16 -35 -5 -65 -7 -68 -4 -9 9 7 90 19 93 6 2 28 6 49
10 46 7 39 25 -10 25 -38 0 -39 2 -18 76 5 15 0 23 -20 32 -45 21 -50 16 -50
-47z m-9 -143 c-9 -56 -11 -58 -62 -58 l-44 0 0 44 c0 43 1 45 33 49 83 10 80
11 73 -35z"/>
</g>
</svg>
