<?xml version="1.0" standalone="no"?>
<!DOCTYPE svg PUBLIC "-//W3C//DTD SVG 20010904//EN"
 "http://www.w3.org/TR/2001/REC-SVG-20010904/DTD/svg10.dtd">
<svg version="1.0" xmlns="http://www.w3.org/2000/svg"
 width="96.000000pt" height="68.000000pt" viewBox="0 0 96.000000 68.000000"
 preserveAspectRatio="xMidYMid meet">
<metadata>
Created by potrace 1.16, written by Peter Selinger 2001-2019
</metadata>
<g transform="translate(0.000000,68.000000) scale(0.100000,-0.100000)"
fill="#000000" stroke="none">
<path d="M306 197 c12 -21 47 -57 56 -57 13 0 9 36 -4 47 -21 16 -59 23 -52
10z"/>
<path d="M220 171 c0 -19 47 -64 58 -57 16 9 15 31 0 44 -20 16 -58 24 -58 13z"/>
<path d="M123 110 c20 -37 51 -59 64 -46 13 13 -10 57 -37 71 -45 23 -50 18
-27 -25z"/>
</g>
</svg>
