<?xml version="1.0" standalone="no"?>
<!DOCTYPE svg PUBLIC "-//W3C//DTD SVG 20010904//EN"
 "http://www.w3.org/TR/2001/REC-SVG-20010904/DTD/svg10.dtd">
<svg version="1.0" xmlns="http://www.w3.org/2000/svg"
 width="96.000000pt" height="68.000000pt" viewBox="0 0 96.000000 68.000000"
 preserveAspectRatio="xMidYMid meet">
<metadata>
Created by potrace 1.16, written by Peter Selinger 2001-2019
</metadata>
<g transform="translate(0.000000,68.000000) scale(0.100000,-0.100000)"
fill="#000000" stroke="none">
<path d="M242 583 c15 -39 15 -226 -1 -364 -13 -116 -8 -159 20 -159 21 0 29
57 29 196 0 79 3 144 7 144 3 0 21 -11 39 -25 36 -27 49 -31 59 -15 10 16 -13
38 -53 51 -20 7 -40 16 -43 21 -3 4 -1 41 4 80 8 64 7 73 -9 85 -10 7 -28 13
-41 13 -21 0 -22 -2 -11 -27z"/>
<path d="M142 385 c-28 -58 -29 -95 -3 -95 12 0 23 11 30 31 13 37 15 109 3
109 -4 0 -18 -20 -30 -45z"/>
</g>
</svg>
