<?xml version="1.0" standalone="no"?>
<!DOCTYPE svg PUBLIC "-//W3C//DTD SVG 20010904//EN"
 "http://www.w3.org/TR/2001/REC-SVG-20010904/DTD/svg10.dtd">
<svg version="1.0" xmlns="http://www.w3.org/2000/svg"
 width="96.000000pt" height="68.000000pt" viewBox="0 0 96.000000 68.000000"
 preserveAspectRatio="xMidYMid meet">
<metadata>
Created by potrace 1.16, written by Peter Selinger 2001-2019
</metadata>
<g transform="translate(0.000000,68.000000) scale(0.100000,-0.100000)"
fill="#000000" stroke="none">
<path d="M553 565 c4 -9 7 -20 7 -24 0 -4 9 -17 21 -30 16 -17 24 -20 35 -10
8 6 14 15 14 19 0 14 -36 47 -59 55 -20 6 -23 4 -18 -10z"/>
<path d="M295 494 c-33 -7 -78 -13 -100 -14 -46 0 -80 -15 -55 -24 8 -3 35 -7
60 -8 l45 -3 3 -57 3 -58 -30 0 c-16 0 -38 -3 -48 -7 -13 -6 -6 -9 27 -13 l45
-5 0 -60 0 -59 -69 -21 c-52 -16 -65 -23 -55 -31 33 -26 52 -23 151 27 95 47
125 74 59 51 l-31 -11 0 58 0 58 40 7 c48 8 44 26 -5 26 l-34 0 2 55 2 55 48
6 c56 8 68 20 32 34 -14 6 -27 10 -28 9 -1 -1 -29 -7 -62 -15z"/>
<path d="M610 485 c-47 -8 -100 -16 -117 -19 -24 -3 -33 -1 -33 10 0 8 -6 14
-13 14 -14 0 -50 -87 -41 -101 11 -19 31 -8 47 26 14 29 22 35 47 35 17 0 74
7 127 16 107 17 125 11 98 -29 l-16 -26 53 20 c70 27 76 34 40 53 -36 19 -75
19 -192 1z"/>
<path d="M623 380 c-12 -5 -49 -12 -82 -16 -68 -7 -73 -24 -8 -24 47 0 157 17
165 25 15 15 -46 27 -75 15z"/>
<path d="M545 282 c-77 -8 -142 -17 -145 -19 -16 -13 35 -22 98 -17 l72 7 0
-77 c0 -80 0 -80 -50 -76 -25 2 -25 1 8 -33 35 -36 64 -40 78 -9 5 10 11 60
14 112 l5 95 85 3 c90 4 103 8 80 22 -19 12 -73 11 -245 -8z"/>
<path d="M736 140 c32 -33 64 -60 71 -60 18 0 16 31 -2 57 -14 21 -94 63 -118
63 -5 0 16 -27 49 -60z"/>
<path d="M406 132 c-51 -77 -40 -80 42 -10 36 30 41 53 13 61 -14 3 -27 -9
-55 -51z"/>
</g>
</svg>
