<?xml version="1.0" standalone="no"?>
<!DOCTYPE svg PUBLIC "-//W3C//DTD SVG 20010904//EN"
 "http://www.w3.org/TR/2001/REC-SVG-20010904/DTD/svg10.dtd">
<svg version="1.0" xmlns="http://www.w3.org/2000/svg"
 width="96.000000pt" height="68.000000pt" viewBox="0 0 96.000000 68.000000"
 preserveAspectRatio="xMidYMid meet">
<metadata>
Created by potrace 1.16, written by Peter Selinger 2001-2019
</metadata>
<g transform="translate(0.000000,68.000000) scale(0.100000,-0.100000)"
fill="#000000" stroke="none">
<path d="M432 448 c3 -33 2 -33 -47 -40 -27 -3 -83 -7 -122 -7 -40 -1 -73 -5
-73 -10 0 -18 41 -22 133 -14 50 4 97 8 102 8 6 0 11 -44 11 -110 1 -60 2
-138 3 -172 1 -65 14 -82 31 -39 11 29 19 128 19 244 l1 82 124 0 c125 0 150
6 120 31 -18 15 -50 16 -163 5 l-83 -9 7 23 c8 26 -7 40 -43 40 -20 0 -23 -4
-20 -32z"/>
</g>
</svg>
