<?xml version="1.0" standalone="no"?>
<!DOCTYPE svg PUBLIC "-//W3C//DTD SVG 20010904//EN"
 "http://www.w3.org/TR/2001/REC-SVG-20010904/DTD/svg10.dtd">
<svg version="1.0" xmlns="http://www.w3.org/2000/svg"
 width="90.000000pt" height="92.000000pt" viewBox="0 0 90.000000 92.000000"
 preserveAspectRatio="xMidYMid meet">
<metadata>
Created by potrace 1.16, written by Peter Selinger 2001-2019
</metadata>
<g transform="translate(0.000000,92.000000) scale(0.100000,-0.100000)"
fill="#000000" stroke="none">
<path d="M146 842 c-3 -5 -1 -24 4 -43 6 -19 10 -73 10 -121 l0 -86 -72 -12
c-66 -12 -70 -14 -52 -27 12 -10 34 -13 62 -10 27 3 42 1 42 -7 0 -24 -68
-164 -104 -213 -21 -29 -36 -58 -34 -65 8 -22 78 56 119 132 l40 75 -6 -95
c-3 -52 -11 -127 -17 -166 -9 -61 -8 -75 7 -104 31 -60 40 -25 43 182 l3 191
43 -42 c45 -44 64 -43 52 3 -4 15 -21 29 -48 41 -24 11 -45 20 -46 21 -2 2 -1
16 2 31 6 24 14 31 51 41 25 7 45 16 45 20 0 15 -47 31 -71 25 -22 -6 -22 -6
-15 78 3 46 8 93 9 103 2 21 -57 64 -67 48z"/>
<path d="M500 829 c0 -6 14 -30 30 -55 17 -24 27 -44 23 -44 -4 0 -55 -7 -113
-15 -58 -8 -107 -15 -110 -15 -3 0 -6 -62 -7 -138 -1 -144 -25 -295 -63 -393
-15 -40 -16 -48 -3 -38 43 37 95 199 109 345 l6 70 49 1 c34 0 49 -3 49 -12 0
-8 3 -20 6 -28 4 -12 -5 -18 -38 -25 -35 -7 -39 -11 -24 -17 18 -8 154 9 165
21 10 10 -24 25 -46 21 -19 -4 -23 0 -23 23 0 25 4 28 45 34 24 4 47 11 50 17
10 15 -37 27 -68 18 -27 -8 -29 -7 -23 16 5 18 1 27 -13 35 -35 18 -42 12 -35
-30 5 -32 3 -40 -8 -40 -9 0 -30 -3 -47 -6 l-31 -6 0 49 0 50 113 16 c61 9
158 20 215 23 56 4 102 11 102 15 0 5 -12 16 -26 25 -22 15 -33 16 -88 6 -88
-17 -92 -16 -91 15 0 20 -9 33 -34 50 -36 24 -71 30 -71 12z"/>
<path d="M715 650 c-3 -5 0 -36 6 -68 7 -32 10 -66 6 -74 -3 -10 -25 -18 -62
-23 -48 -6 -54 -9 -44 -21 10 -12 24 -14 62 -9 l50 7 -6 -138 c-4 -76 -10
-141 -14 -145 -5 -4 -23 -9 -41 -11 l-33 -3 50 -49 50 -50 17 39 c12 30 15 55
9 107 -3 37 -3 111 1 163 l7 95 36 0 c20 0 42 4 50 9 22 14 -26 41 -60 34 -33
-6 -35 2 -15 59 7 20 10 41 7 46 -11 17 -70 42 -76 32z"/>
<path d="M475 424 c-33 -7 -68 -11 -77 -8 -20 6 -24 -6 -8 -22 5 -5 13 -27 18
-49 l8 -40 57 3 c55 3 57 2 57 -21 0 -14 -3 -39 -6 -56 -9 -41 -39 -42 -47 -1
-6 27 -51 69 -63 57 -3 -3 3 -26 15 -51 12 -27 16 -48 10 -52 -5 -3 -32 -6
-59 -7 -56 -2 -64 -13 -29 -39 23 -17 28 -16 154 31 71 27 131 54 133 60 5 15
-7 14 -56 -3 l-41 -15 21 41 c21 40 21 41 3 54 -16 12 -17 14 -2 14 10 0 14 5
11 15 -3 8 3 27 15 43 20 28 20 30 2 46 -20 19 -35 19 -116 0z m65 -44 c0 -25
-5 -30 -37 -39 -55 -15 -60 -14 -66 17 -6 33 -6 33 40 42 62 12 63 12 63 -20z"/>
<path d="M610 369 c0 -17 59 -71 70 -64 23 14 10 46 -25 61 -41 17 -45 17 -45
3z"/>
</g>
</svg>
