<?xml version="1.0" standalone="no"?>
<!DOCTYPE svg PUBLIC "-//W3C//DTD SVG 20010904//EN"
 "http://www.w3.org/TR/2001/REC-SVG-20010904/DTD/svg10.dtd">
<svg version="1.0" xmlns="http://www.w3.org/2000/svg"
 width="90.000000pt" height="92.000000pt" viewBox="0 0 90.000000 92.000000"
 preserveAspectRatio="xMidYMid meet">
<metadata>
Created by potrace 1.16, written by Peter Selinger 2001-2019
</metadata>
<g transform="translate(0.000000,92.000000) scale(0.100000,-0.100000)"
fill="#000000" stroke="none">
<path d="M645 738 c-84 -20 -489 -56 -518 -45 -42 14 -51 -2 -28 -49 22 -45
27 -81 45 -300 13 -154 26 -211 47 -199 5 4 9 14 9 24 0 16 15 19 137 25 76 3
165 9 199 12 l60 6 22 -51 c11 -28 25 -51 31 -51 18 0 51 53 66 104 8 28 21
121 30 206 9 85 22 176 30 202 21 66 20 70 -27 101 -46 29 -45 29 -103 15z
m38 -188 c-1 -120 -22 -293 -37 -308 -3 -3 -18 0 -32 6 -20 10 -59 9 -176 -3
-83 -8 -170 -15 -193 -15 l-42 0 -12 148 c-6 81 -14 173 -18 204 l-6 57 34 6
c71 13 386 43 434 42 l50 -2 -2 -135z"/>
<path d="M435 564 c-31 -9 -72 -13 -107 -10 -61 6 -67 3 -44 -23 8 -9 19 -50
25 -91 12 -78 26 -105 40 -82 7 11 102 30 157 32 6 0 11 13 12 30 0 16 10 49
21 74 l20 46 -26 20 c-30 23 -31 23 -98 4z m41 -81 c-4 -31 -8 -58 -9 -59 -1
-1 -27 -5 -58 -9 l-56 -7 -7 52 c-4 29 -5 55 -2 58 7 7 73 19 110 21 l29 1 -7
-57z"/>
</g>
</svg>
