<?xml version="1.0" standalone="no"?>
<!DOCTYPE svg PUBLIC "-//W3C//DTD SVG 20010904//EN"
 "http://www.w3.org/TR/2001/REC-SVG-20010904/DTD/svg10.dtd">
<svg version="1.0" xmlns="http://www.w3.org/2000/svg"
 width="96.000000pt" height="68.000000pt" viewBox="0 0 96.000000 68.000000"
 preserveAspectRatio="xMidYMid meet">
<metadata>
Created by potrace 1.16, written by Peter Selinger 2001-2019
</metadata>
<g transform="translate(0.000000,68.000000) scale(0.100000,-0.100000)"
fill="#000000" stroke="none">
<path d="M576 315 c4 -10 14 -14 28 -10 18 5 17 4 -4 -9 -14 -9 -20 -16 -15
-17 13 -2 -59 -18 -109 -24 -22 -3 -42 -8 -45 -11 -3 -4 17 -3 44 0 99 15 110
13 108 -12 -3 -20 -1 -21 18 -10 14 9 18 20 15 38 -3 14 -3 20 0 14 3 -6 17
-9 32 -6 l27 6 -25 6 c-14 3 -25 12 -25 19 0 8 -9 17 -20 22 -30 12 -35 10
-29 -6z"/>
<path d="M748 295 c-3 -3 -16 -8 -28 -10 -43 -8 -32 -13 22 -10 67 3 66 3 48
15 -17 11 -34 13 -42 5z"/>
<path d="M595 199 c-7 -31 -9 -62 -7 -123 2 -55 16 -53 26 4 4 26 4 30 -3 15
-9 -19 -10 -19 -10 3 -1 12 2 22 7 22 8 0 8 88 -1 97 -3 3 -9 -5 -12 -18z"/>
</g>
</svg>
