<?xml version="1.0" standalone="no"?>
<!DOCTYPE svg PUBLIC "-//W3C//DTD SVG 20010904//EN"
 "http://www.w3.org/TR/2001/REC-SVG-20010904/DTD/svg10.dtd">
<svg version="1.0" xmlns="http://www.w3.org/2000/svg"
 width="96.000000pt" height="68.000000pt" viewBox="0 0 96.000000 68.000000"
 preserveAspectRatio="xMidYMid meet">
<metadata>
Created by potrace 1.16, written by Peter Selinger 2001-2019
</metadata>
<g transform="translate(0.000000,68.000000) scale(0.100000,-0.100000)"
fill="#000000" stroke="none">
<path d="M655 504 c-60 -7 -134 -13 -164 -12 l-55 2 -15 -42 c-8 -23 -12 -44
-8 -48 13 -13 38 6 43 34 6 28 8 29 102 40 102 13 202 16 202 6 0 -3 -5 -14
-11 -26 -10 -19 -9 -20 23 -13 55 11 68 16 68 26 0 9 -60 50 -70 48 -3 -1 -54
-7 -115 -15z"/>
</g>
</svg>
