<?xml version="1.0" standalone="no"?>
<!DOCTYPE svg PUBLIC "-//W3C//DTD SVG 20010904//EN"
 "http://www.w3.org/TR/2001/REC-SVG-20010904/DTD/svg10.dtd">
<svg version="1.0" xmlns="http://www.w3.org/2000/svg"
 width="96.000000pt" height="68.000000pt" viewBox="0 0 96.000000 68.000000"
 preserveAspectRatio="xMidYMid meet">
<metadata>
Created by potrace 1.16, written by Peter Selinger 2001-2019
</metadata>
<g transform="translate(0.000000,68.000000) scale(0.100000,-0.100000)"
fill="#000000" stroke="none">
<path d="M746 231 c-3 -5 2 -11 12 -13 12 -4 17 -14 15 -39 -1 -19 -2 -46 -2
-61 -1 -18 -6 -28 -16 -28 -8 0 -15 -4 -15 -10 0 -5 -5 -10 -11 -10 -5 0 -8 4
-5 8 3 5 -1 9 -9 9 -20 0 -19 -2 11 -32 l26 -26 24 28 c13 16 26 47 30 73 3
25 8 52 10 62 3 9 -1 20 -7 24 -8 5 -10 2 -5 -7 4 -8 -1 -4 -10 9 -17 23 -39
29 -48 13z"/>
<path d="M520 210 c-9 -6 -10 -10 -3 -10 6 0 15 5 18 10 8 12 4 12 -15 0z"/>
<path d="M417 204 c-3 -3 -2 -16 2 -28 4 -11 6 -36 4 -54 -2 -23 1 -32 10 -29
14 4 20 74 7 82 -6 4 -10 11 -10 16 0 6 5 7 10 4 6 -3 10 -1 10 4 0 12 -23 15
-33 5z"/>
</g>
</svg>
