<?xml version="1.0" standalone="no"?>
<!DOCTYPE svg PUBLIC "-//W3C//DTD SVG 20010904//EN"
 "http://www.w3.org/TR/2001/REC-SVG-20010904/DTD/svg10.dtd">
<svg version="1.0" xmlns="http://www.w3.org/2000/svg"
 width="96.000000pt" height="68.000000pt" viewBox="0 0 96.000000 68.000000"
 preserveAspectRatio="xMidYMid meet">
<metadata>
Created by potrace 1.16, written by Peter Selinger 2001-2019
</metadata>
<g transform="translate(0.000000,68.000000) scale(0.100000,-0.100000)"
fill="#000000" stroke="none">
<path d="M244 568 c4 -13 10 -50 13 -84 l5 -61 -38 -6 c-22 -4 -51 -7 -66 -7
-16 0 -28 -4 -28 -10 0 -6 29 -10 66 -10 l65 0 -3 -47 c-3 -52 -4 -53 -119
-103 -42 -17 -48 -24 -39 -36 19 -22 53 -17 96 16 57 43 63 40 57 -32 -7 -89
-8 -91 -47 -85 l-33 5 41 -39 41 -39 18 21 c14 17 17 41 17 130 0 60 4 109 8
109 4 0 23 14 42 30 l35 31 -42 -21 -43 -20 0 44 c0 44 0 44 40 51 60 10 49
32 -12 27 -14 -1 -18 6 -18 37 0 22 4 51 10 65 8 21 6 28 -13 41 -12 8 -30 15
-40 15 -15 0 -18 -5 -13 -22z"/>
</g>
</svg>
