<?xml version="1.0" standalone="no"?>
<!DOCTYPE svg PUBLIC "-//W3C//DTD SVG 20010904//EN"
 "http://www.w3.org/TR/2001/REC-SVG-20010904/DTD/svg10.dtd">
<svg version="1.0" xmlns="http://www.w3.org/2000/svg"
 width="96.000000pt" height="68.000000pt" viewBox="0 0 96.000000 68.000000"
 preserveAspectRatio="xMidYMid meet">
<metadata>
Created by potrace 1.16, written by Peter Selinger 2001-2019
</metadata>
<g transform="translate(0.000000,68.000000) scale(0.100000,-0.100000)"
fill="#000000" stroke="none">
<path d="M512 524 c4 -80 7 -89 32 -110 24 -21 37 -24 110 -24 66 0 89 4 106
18 21 17 22 21 9 50 -14 32 -29 34 -29 3 0 -25 -41 -41 -105 -41 -61 0 -85 16
-85 59 0 27 3 29 85 46 47 10 85 21 85 26 0 17 -41 19 -71 3 -18 -9 -45 -20
-60 -24 -26 -8 -28 -6 -31 27 -2 27 -9 38 -26 44 l-24 9 4 -86z"/>
<path d="M320 573 c4 -16 11 -56 14 -90 6 -61 5 -63 -20 -69 -30 -8 -44 8 -37
37 9 34 -6 69 -29 69 -20 0 -20 -4 -15 -60 l7 -60 -40 0 c-22 0 -40 -4 -40 -8
0 -17 49 -35 77 -28 67 16 239 69 248 77 14 14 -17 11 -64 -6 l-41 -14 0 34
c0 32 1 33 48 40 94 13 90 43 -4 32 l-46 -5 6 33 c7 35 -4 45 -49 45 -22 0
-23 -3 -15 -27z"/>
<path d="M480 359 c-36 -4 -90 -9 -120 -9 l-55 -2 1 -97 c0 -54 4 -103 8 -109
4 -7 19 -9 36 -5 17 3 30 1 30 -4 0 -13 -62 -71 -107 -100 -71 -45 25 -8 140
53 27 15 37 34 17 34 -5 0 -10 5 -10 10 0 15 167 13 173 -2 3 -10 8 -9 20 2
12 11 16 40 18 117 2 57 0 105 -3 109 -11 11 -82 12 -148 3z m95 -43 c0 -13
-8 -19 -30 -21 -16 -1 -67 -6 -112 -10 l-83 -7 0 25 c0 23 5 26 43 30 23 2 74
3 112 3 61 -1 70 -3 70 -20z m3 -58 c-3 -22 -9 -23 -112 -31 -107 -8 -133 -4
-118 20 8 13 106 30 185 32 45 1 48 -1 45 -21z m0 -65 l-3 -28 -101 -5 c-126
-6 -136 -4 -132 23 3 20 10 22 98 28 52 3 105 6 118 7 20 2 23 -2 20 -25z"/>
<path d="M520 113 c0 -8 67 -69 98 -90 17 -12 26 -13 34 -5 17 17 -7 56 -45
71 -51 20 -87 30 -87 24z"/>
</g>
</svg>
