<?xml version="1.0" standalone="no"?>
<!DOCTYPE svg PUBLIC "-//W3C//DTD SVG 20010904//EN"
 "http://www.w3.org/TR/2001/REC-SVG-20010904/DTD/svg10.dtd">
<svg version="1.0" xmlns="http://www.w3.org/2000/svg"
 width="96.000000pt" height="68.000000pt" viewBox="0 0 96.000000 68.000000"
 preserveAspectRatio="xMidYMid meet">
<metadata>
Created by potrace 1.16, written by Peter Selinger 2001-2019
</metadata>
<g transform="translate(0.000000,68.000000) scale(0.100000,-0.100000)"
fill="#000000" stroke="none">
<path d="M277 487 c6 -93 5 -94 -18 -100 -13 -4 -34 -7 -46 -7 -13 0 -23 -4
-23 -10 0 -5 20 -10 45 -10 l45 0 0 -46 0 -45 -76 -35 c-41 -19 -83 -34 -92
-34 -14 -1 -13 -4 7 -20 31 -27 38 -26 98 15 29 19 54 35 56 35 2 0 -1 -36 -6
-81 -8 -69 -7 -84 7 -97 26 -27 36 -2 43 107 6 93 8 104 30 118 28 18 31 38 4
23 -29 -15 -31 -13 -31 29 0 38 1 39 45 50 52 13 52 34 0 29 -19 -1 -37 0 -40
4 -3 3 -1 34 4 69 11 69 7 81 -36 93 -21 7 -21 6 -16 -87z"/>
</g>
</svg>
