<?xml version="1.0" standalone="no"?>
<!DOCTYPE svg PUBLIC "-//W3C//DTD SVG 20010904//EN"
 "http://www.w3.org/TR/2001/REC-SVG-20010904/DTD/svg10.dtd">
<svg version="1.0" xmlns="http://www.w3.org/2000/svg"
 width="96.000000pt" height="68.000000pt" viewBox="0 0 96.000000 68.000000"
 preserveAspectRatio="xMidYMid meet">
<metadata>
Created by potrace 1.16, written by Peter Selinger 2001-2019
</metadata>
<g transform="translate(0.000000,68.000000) scale(0.100000,-0.100000)"
fill="#000000" stroke="none">
<path d="M286 535 c-22 -57 -56 -95 -86 -95 -17 0 -21 -4 -15 -17 4 -10 8 -47
9 -83 l1 -65 -50 -5 -50 -5 27 -18 c16 -11 35 -16 47 -12 10 3 21 2 24 -2 8
-13 -22 -116 -41 -143 -37 -51 -34 -54 10 -12 45 43 68 93 68 145 0 32 2 33
68 42 l53 7 -3 -94 -3 -93 -35 3 -35 3 37 -37 c31 -31 39 -35 52 -25 8 7 18
27 21 44 4 18 17 43 30 57 39 43 55 82 78 190 22 100 25 105 50 108 15 2 27
-1 27 -7 0 -21 -13 -41 -26 -41 -8 0 -14 -5 -14 -10 0 -6 6 -10 14 -8 8 2 21
-6 29 -16 11 -15 30 -20 73 -23 64 -4 97 8 77 28 -8 8 -23 9 -50 2 -21 -5 -46
-7 -56 -5 -23 5 -17 26 9 30 46 7 64 13 64 22 0 6 -18 7 -44 4 -42 -6 -44 -5
-39 15 3 11 13 21 22 21 9 0 33 3 55 7 34 5 38 4 32 -13 -5 -17 -1 -19 39 -16
51 4 56 13 20 36 -20 13 -39 15 -96 10 -66 -7 -71 -6 -67 12 2 10 10 20 18 21
63 8 90 15 90 25 0 7 -17 8 -50 4 -48 -6 -50 -6 -50 17 0 16 -7 26 -19 30 -28
7 -29 4 -25 -62 l4 -59 -71 -7 c-67 -7 -69 -8 -54 -25 14 -15 15 -28 7 -87
-11 -75 -48 -183 -63 -183 -6 0 -9 28 -8 66 2 55 5 68 21 72 23 6 24 24 1 20
-16 -3 -18 5 -16 67 1 74 -4 85 -45 85 -15 0 -21 -4 -16 -12 4 -6 3 -8 -4 -4
-6 3 -22 2 -36 -4 -41 -15 -31 4 30 55 59 51 60 66 3 80 -23 6 -27 2 -43 -40z
m64 -175 c0 -60 -3 -70 -17 -70 -10 0 -35 -3 -56 -7 l-38 -6 3 64 3 63 40 12
c66 20 65 21 65 -56z"/>
<path d="M270 372 c1 -17 38 -54 49 -48 20 13 11 34 -19 45 -16 5 -30 7 -30 3z"/>
<path d="M660 300 c-14 -4 -56 -8 -93 -9 l-68 -1 15 -22 c9 -12 16 -32 16 -43
1 -27 26 -60 35 -45 4 7 34 10 78 9 l72 -2 24 47 c15 29 21 50 15 56 -14 14
-66 20 -94 10z m-55 -40 c0 -9 -11 -16 -27 -18 -20 -2 -28 1 -28 12 0 8 6 17
13 19 21 9 42 2 42 -13z m99 11 c4 -5 1 -11 -6 -13 -18 -6 -58 3 -58 13 0 12
57 12 64 0z m-6 -48 c-2 -13 -11 -17 -28 -15 -30 5 -34 8 -25 21 3 6 17 11 31
11 19 0 25 -5 22 -17z m-90 -5 c-7 -20 -48 -23 -48 -4 0 11 9 16 26 16 16 0
24 -5 22 -12z"/>
<path d="M266 218 c15 -27 38 -48 51 -48 22 0 15 27 -12 44 -29 19 -49 21 -39
4z"/>
<path d="M600 159 c-47 -5 -95 -7 -107 -4 -27 6 -27 8 -8 -45 8 -23 15 -44 15
-46 0 -2 -18 -4 -39 -4 -44 0 -63 -15 -30 -23 12 -3 94 -2 183 3 89 5 174 7
189 6 15 -2 27 1 27 6 0 12 -47 28 -65 22 -20 -8 -20 20 0 36 21 17 19 37 -4
50 -22 11 -39 11 -161 -1z m120 -36 c0 -37 -10 -50 -40 -54 -28 -4 -29 2 -9
49 17 41 49 44 49 5z m-160 -9 c16 -41 13 -56 -12 -52 -19 2 -24 10 -26 41 -2
28 0 37 13 37 8 0 20 -12 25 -26z m80 14 c0 -7 -3 -23 -6 -35 -8 -29 -44 -31
-44 -4 0 11 -3 26 -6 35 -5 13 1 16 25 16 18 0 31 -5 31 -12z"/>
</g>
</svg>
