<?xml version="1.0" standalone="no"?>
<!DOCTYPE svg PUBLIC "-//W3C//DTD SVG 20010904//EN"
 "http://www.w3.org/TR/2001/REC-SVG-20010904/DTD/svg10.dtd">
<svg version="1.0" xmlns="http://www.w3.org/2000/svg"
 width="96.000000pt" height="68.000000pt" viewBox="0 0 96.000000 68.000000"
 preserveAspectRatio="xMidYMid meet">
<metadata>
Created by potrace 1.16, written by Peter Selinger 2001-2019
</metadata>
<g transform="translate(0.000000,68.000000) scale(0.100000,-0.100000)"
fill="#000000" stroke="none">
<path d="M332 159 c-1 -39 -15 -56 -52 -61 -21 -3 -30 0 -30 9 0 16 -44 63
-60 63 -6 0 -2 -17 10 -39 23 -46 17 -51 -56 -51 -49 0 -57 -14 -19 -32 20 -9
47 -5 147 21 129 35 183 56 116 47 l-38 -5 22 30 c19 26 20 31 8 39 -30 19
-47 11 -48 -21z"/>
</g>
</svg>
