<?xml version="1.0" standalone="no"?>
<!DOCTYPE svg PUBLIC "-//W3C//DTD SVG 20010904//EN"
 "http://www.w3.org/TR/2001/REC-SVG-20010904/DTD/svg10.dtd">
<svg version="1.0" xmlns="http://www.w3.org/2000/svg"
 width="96.000000pt" height="68.000000pt" viewBox="0 0 96.000000 68.000000"
 preserveAspectRatio="xMidYMid meet">
<metadata>
Created by potrace 1.16, written by Peter Selinger 2001-2019
</metadata>
<g transform="translate(0.000000,68.000000) scale(0.100000,-0.100000)"
fill="#000000" stroke="none">
<path d="M416 598 c-3 -7 -7 -25 -10 -39 -8 -36 -134 -163 -225 -227 -86 -61
-75 -68 22 -14 82 45 135 87 205 165 l54 58 112 -110 112 -111 55 1 c29 1 65
4 79 9 l25 7 -25 11 c-14 5 -54 22 -90 36 -71 29 -243 156 -249 184 -5 26 -21
42 -43 42 -10 0 -20 -6 -22 -12z"/>
<path d="M412 383 c-95 -16 -109 -29 -37 -35 37 -3 40 -6 43 -34 3 -30 1 -31
-44 -38 -26 -3 -64 -6 -86 -6 -24 0 -37 -4 -33 -10 3 -5 44 -10 91 -10 l84 0
0 -69 c0 -39 -4 -72 -8 -75 -4 -2 -58 -8 -120 -12 -62 -4 -112 -11 -112 -15 0
-18 59 -22 166 -11 61 7 171 12 243 12 102 0 132 3 129 13 -7 21 -66 34 -116
26 -26 -4 -68 -8 -94 -8 l-48 -1 0 59 c0 89 1 91 80 91 38 0 72 5 75 10 10 17
-45 31 -95 24 l-48 -6 -4 36 c-4 40 3 46 60 46 35 1 36 2 18 15 -23 17 -22 17
-144 -2z"/>
<path d="M570 222 c0 -5 -17 -28 -37 -52 -21 -24 -31 -41 -23 -38 126 52 142
66 101 88 -24 12 -41 13 -41 2z"/>
<path d="M280 193 c0 -15 62 -74 73 -70 7 2 13 13 15 25 3 18 -4 26 -32 37
-39 17 -56 19 -56 8z"/>
</g>
</svg>
