<?xml version="1.0" standalone="no"?>
<!DOCTYPE svg PUBLIC "-//W3C//DTD SVG 20010904//EN"
 "http://www.w3.org/TR/2001/REC-SVG-20010904/DTD/svg10.dtd">
<svg version="1.0" xmlns="http://www.w3.org/2000/svg"
 width="96.000000pt" height="68.000000pt" viewBox="0 0 96.000000 68.000000"
 preserveAspectRatio="xMidYMid meet">
<metadata>
Created by potrace 1.16, written by Peter Selinger 2001-2019
</metadata>
<g transform="translate(0.000000,68.000000) scale(0.100000,-0.100000)"
fill="#000000" stroke="none">
<path d="M227 475 l6 -65 -62 0 c-34 0 -61 -4 -61 -10 0 -5 4 -10 9 -10 5 0
17 -24 25 -54 l16 -54 35 8 35 8 0 -40 c0 -32 3 -39 18 -36 12 2 18 14 20 40
3 38 18 48 75 48 17 0 27 5 27 15 0 8 8 30 17 50 22 46 8 58 -59 51 -45 -5
-48 -4 -48 19 0 13 4 35 10 49 8 21 6 27 -10 36 -10 5 -28 10 -39 10 -19 0
-20 -4 -14 -65z m111 -93 c5 -30 -14 -52 -44 -52 -27 0 -32 26 -13 61 14 28
53 21 57 -9z m-108 -22 c0 -36 -3 -40 -24 -40 -33 0 -53 62 -23 73 36 15 47 7
47 -33z"/>
</g>
</svg>
