<?xml version="1.0" standalone="no"?>
<!DOCTYPE svg PUBLIC "-//W3C//DTD SVG 20010904//EN"
 "http://www.w3.org/TR/2001/REC-SVG-20010904/DTD/svg10.dtd">
<svg version="1.0" xmlns="http://www.w3.org/2000/svg"
 width="96.000000pt" height="68.000000pt" viewBox="0 0 96.000000 68.000000"
 preserveAspectRatio="xMidYMid meet">
<metadata>
Created by potrace 1.16, written by Peter Selinger 2001-2019
</metadata>
<g transform="translate(0.000000,68.000000) scale(0.100000,-0.100000)"
fill="#000000" stroke="none">
<path d="M405 445 c-60 -8 -119 -11 -129 -8 -18 5 -18 4 2 -21 11 -15 24 -41
27 -58 l7 -30 122 7 c131 7 129 6 171 77 16 28 16 28 -10 38 -31 12 -47 11
-190 -5z m142 -21 c5 -15 -206 -39 -220 -25 -14 14 3 19 103 30 100 10 112 10
117 -5z m-7 -48 c0 -19 -190 -32 -201 -14 -7 10 9 14 64 19 130 10 137 10 137
-5z"/>
</g>
</svg>
