<?xml version="1.0" standalone="no"?>
<!DOCTYPE svg PUBLIC "-//W3C//DTD SVG 20010904//EN"
 "http://www.w3.org/TR/2001/REC-SVG-20010904/DTD/svg10.dtd">
<svg version="1.0" xmlns="http://www.w3.org/2000/svg"
 width="96.000000pt" height="68.000000pt" viewBox="0 0 96.000000 68.000000"
 preserveAspectRatio="xMidYMid meet">
<metadata>
Created by potrace 1.16, written by Peter Selinger 2001-2019
</metadata>
<g transform="translate(0.000000,68.000000) scale(0.100000,-0.100000)"
fill="#000000" stroke="none">
<path d="M447 583 c3 -10 12 -27 20 -38 7 -11 13 -23 13 -28 0 -5 -51 -7 -114
-5 l-114 3 -22 -42 c-21 -40 -22 -73 -1 -73 12 0 51 49 51 64 0 9 64 17 207
28 114 9 209 15 212 13 2 -3 -4 -16 -13 -31 l-18 -26 59 7 c68 8 82 17 62 41
-26 31 -65 41 -136 33 -97 -11 -135 -11 -128 1 11 18 -4 47 -31 58 -37 17 -55
15 -47 -5z"/>
</g>
</svg>
