<?xml version="1.0" standalone="no"?>
<!DOCTYPE svg PUBLIC "-//W3C//DTD SVG 20010904//EN"
 "http://www.w3.org/TR/2001/REC-SVG-20010904/DTD/svg10.dtd">
<svg version="1.0" xmlns="http://www.w3.org/2000/svg"
 width="96.000000pt" height="68.000000pt" viewBox="0 0 96.000000 68.000000"
 preserveAspectRatio="xMidYMid meet">
<metadata>
Created by potrace 1.16, written by Peter Selinger 2001-2019
</metadata>
<g transform="translate(0.000000,68.000000) scale(0.100000,-0.100000)"
fill="#000000" stroke="none">
<path d="M479 432 c0 -4 0 -26 1 -48 1 -39 -1 -42 -31 -48 -17 -3 -55 -6 -83
-7 -28 0 -71 -4 -96 -8 -43 -7 -44 -8 -17 -15 15 -5 61 -5 102 -1 41 4 75 4
75 2 0 -10 -145 -85 -210 -108 -36 -13 -57 -25 -48 -27 30 -6 180 46 240 82
l57 35 3 -27 c4 -34 30 -35 38 -2 4 14 13 24 21 22 8 -1 67 -28 131 -58 113
-55 148 -61 148 -30 0 26 -48 44 -247 96 -73 19 -49 30 63 30 77 0 105 3 102
12 -7 21 -60 28 -131 18 -38 -6 -73 -7 -79 -4 -5 3 -7 22 -3 44 5 32 3 38 -14
43 -12 3 -21 2 -22 -1z"/>
</g>
</svg>
