<?xml version="1.0" standalone="no"?>
<!DOCTYPE svg PUBLIC "-//W3C//DTD SVG 20010904//EN"
 "http://www.w3.org/TR/2001/REC-SVG-20010904/DTD/svg10.dtd">
<svg version="1.0" xmlns="http://www.w3.org/2000/svg"
 width="96.000000pt" height="68.000000pt" viewBox="0 0 96.000000 68.000000"
 preserveAspectRatio="xMidYMid meet">
<metadata>
Created by potrace 1.16, written by Peter Selinger 2001-2019
</metadata>
<g transform="translate(0.000000,68.000000) scale(0.100000,-0.100000)"
fill="#000000" stroke="none">
<path d="M445 215 c-77 -7 -141 -13 -143 -14 -2 0 3 -7 11 -15 8 -8 20 -43 27
-78 14 -67 26 -91 38 -71 4 7 44 12 101 14 88 3 94 2 105 -20 12 -22 13 -22
35 -4 14 12 28 44 42 98 29 116 37 112 -216 90z m169 -14 c11 -1 1 -111 -11
-121 -4 -4 -27 -5 -50 -2 -37 4 -43 7 -43 28 0 22 4 24 44 24 25 0 48 5 51 10
4 6 -13 10 -43 10 -45 0 -50 2 -54 24 -4 21 -1 25 21 28 22 3 47 2 85 -1z
m-156 -13 c7 -7 12 -20 12 -30 0 -14 -9 -18 -35 -20 -19 -1 -43 -2 -52 -2 -10
-1 -19 10 -24 26 -7 26 -5 27 35 31 22 2 43 4 47 5 3 1 10 -3 17 -10z m12 -94
c0 -24 -2 -25 -47 -22 -41 3 -48 6 -51 26 -3 20 0 22 47 22 48 0 51 -2 51 -26z"/>
</g>
</svg>
