<?xml version="1.0" standalone="no"?>
<!DOCTYPE svg PUBLIC "-//W3C//DTD SVG 20010904//EN"
 "http://www.w3.org/TR/2001/REC-SVG-20010904/DTD/svg10.dtd">
<svg version="1.0" xmlns="http://www.w3.org/2000/svg"
 width="96.000000pt" height="68.000000pt" viewBox="0 0 96.000000 68.000000"
 preserveAspectRatio="xMidYMid meet">
<metadata>
Created by potrace 1.16, written by Peter Selinger 2001-2019
</metadata>
<g transform="translate(0.000000,68.000000) scale(0.100000,-0.100000)"
fill="#000000" stroke="none">
<path d="M460 593 c-47 -7 -109 -12 -138 -11 -28 2 -51 1 -50 -2 11 -21 39
-103 48 -137 l11 -42 49 6 c45 5 49 4 55 -18 3 -13 5 -61 3 -106 l-3 -82 -65
30 c-36 17 -67 33 -69 35 -2 2 4 20 15 40 19 35 19 36 -1 50 -30 22 -49 13
-52 -26 -4 -46 -58 -133 -113 -182 -37 -33 -40 -39 -20 -33 26 7 100 60 112
80 4 7 15 22 25 34 l19 23 44 -24 c25 -14 81 -44 125 -68 44 -24 87 -49 95
-56 34 -29 105 -39 187 -25 43 7 84 16 91 20 7 4 -47 17 -121 29 -73 12 -152
29 -175 39 l-42 16 0 57 0 57 53 7 c28 3 67 6 85 6 23 0 32 4 29 13 -3 8 -27
11 -85 9 l-81 -2 1 44 0 44 64 4 c66 4 88 13 65 27 -11 7 -9 17 7 53 11 25 25
49 31 52 18 12 13 25 -19 41 -34 18 -64 17 -180 -2z m105 -70 c-4 -27 -9 -51
-11 -55 -4 -7 -41 -13 -140 -22 l-51 -5 -12 51 c-6 28 -10 53 -8 55 7 6 120
21 176 22 l53 1 -7 -47z"/>
</g>
</svg>
