<?xml version="1.0" standalone="no"?>
<!DOCTYPE svg PUBLIC "-//W3C//DTD SVG 20010904//EN"
 "http://www.w3.org/TR/2001/REC-SVG-20010904/DTD/svg10.dtd">
<svg version="1.0" xmlns="http://www.w3.org/2000/svg"
 width="96.000000pt" height="68.000000pt" viewBox="0 0 96.000000 68.000000"
 preserveAspectRatio="xMidYMid meet">
<metadata>
Created by potrace 1.16, written by Peter Selinger 2001-2019
</metadata>
<g transform="translate(0.000000,68.000000) scale(0.100000,-0.100000)"
fill="#000000" stroke="none">
<path d="M450 377 c0 -7 4 -17 9 -22 5 -6 16 -27 24 -47 l15 -37 -41 -15 -42
-16 48 3 c47 2 49 1 74 -40 l24 -42 -43 -19 c-24 -11 -50 -22 -58 -25 -35 -13
18 -6 67 8 l51 15 34 -31 c60 -57 184 -100 202 -71 3 5 -8 34 -24 65 l-28 57
-7 -41 c-7 -39 -8 -41 -38 -35 -35 7 -97 51 -96 69 0 7 23 29 50 50 52 39 56
53 25 71 -14 8 -20 8 -23 -2 -8 -23 -64 -82 -77 -82 -12 0 -46 50 -46 68 0 5
11 13 25 16 39 10 30 28 -10 20 -34 -6 -34 -6 -41 35 -7 46 -7 45 -46 55 -20
4 -28 3 -28 -7z"/>
<path d="M599 321 c27 -25 51 -27 51 -6 0 8 -6 15 -12 15 -7 0 -24 3 -38 6
l-25 6 24 -21z"/>
</g>
</svg>
