<?xml version="1.0" standalone="no"?>
<!DOCTYPE svg PUBLIC "-//W3C//DTD SVG 20010904//EN"
 "http://www.w3.org/TR/2001/REC-SVG-20010904/DTD/svg10.dtd">
<svg version="1.0" xmlns="http://www.w3.org/2000/svg"
 width="96.000000pt" height="68.000000pt" viewBox="0 0 96.000000 68.000000"
 preserveAspectRatio="xMidYMid meet">
<metadata>
Created by potrace 1.16, written by Peter Selinger 2001-2019
</metadata>
<g transform="translate(0.000000,68.000000) scale(0.100000,-0.100000)"
fill="#000000" stroke="none">
<path d="M638 471 l3 -139 -28 -6 c-15 -3 -55 -8 -88 -12 -33 -4 -69 -10 -80
-14 -40 -15 34 -23 105 -11 38 6 74 11 79 11 7 0 11 -41 12 -112 0 -62 4 -122
8 -133 8 -19 8 -19 19 0 5 11 13 73 17 137 l8 116 78 7 c44 4 79 11 79 16 0
18 -47 28 -86 18 -81 -18 -78 -25 -72 120 6 137 5 141 -40 141 -15 0 -17 -15
-14 -139z"/>
</g>
</svg>
