<?xml version="1.0" standalone="no"?>
<!DOCTYPE svg PUBLIC "-//W3C//DTD SVG 20010904//EN"
 "http://www.w3.org/TR/2001/REC-SVG-20010904/DTD/svg10.dtd">
<svg version="1.0" xmlns="http://www.w3.org/2000/svg"
 width="96.000000pt" height="68.000000pt" viewBox="0 0 96.000000 68.000000"
 preserveAspectRatio="xMidYMid meet">
<metadata>
Created by potrace 1.16, written by Peter Selinger 2001-2019
</metadata>
<g transform="translate(0.000000,68.000000) scale(0.100000,-0.100000)"
fill="#000000" stroke="none">
<path d="M572 273 c-7 -12 -23 -18 -49 -19 -21 0 -71 -4 -110 -9 -64 -7 -73
-6 -73 9 0 18 -35 22 -45 5 -11 -16 4 -59 19 -59 8 0 16 4 18 9 2 4 48 11 104
15 100 7 100 7 114 -19 16 -30 22 -31 44 -6 11 12 16 31 14 52 -3 37 -22 48
-36 22z"/>
</g>
</svg>
