<?xml version="1.0" standalone="no"?>
<!DOCTYPE svg PUBLIC "-//W3C//DTD SVG 20010904//EN"
 "http://www.w3.org/TR/2001/REC-SVG-20010904/DTD/svg10.dtd">
<svg version="1.0" xmlns="http://www.w3.org/2000/svg"
 width="96.000000pt" height="68.000000pt" viewBox="0 0 96.000000 68.000000"
 preserveAspectRatio="xMidYMid meet">
<metadata>
Created by potrace 1.16, written by Peter Selinger 2001-2019
</metadata>
<g transform="translate(0.000000,68.000000) scale(0.100000,-0.100000)"
fill="#000000" stroke="none">
<path d="M257 593 c-4 -3 -4 -23 -1 -44 6 -38 -10 -154 -26 -179 -5 -8 -33
-14 -76 -15 -38 -1 -70 -7 -71 -12 -7 -19 45 -36 88 -29 37 6 41 5 36 -11 -20
-64 -21 -61 23 -83 l43 -22 -24 -24 c-13 -13 -49 -37 -79 -53 -52 -29 -53 -31
-24 -31 30 0 113 37 144 65 13 11 19 11 40 0 14 -8 21 -14 16 -15 -18 0 43
-40 62 -40 22 0 35 22 26 44 -3 8 -25 24 -49 37 -44 23 -44 24 -28 49 9 13 26
49 38 79 15 41 27 57 45 61 30 7 39 30 11 30 -12 0 -21 6 -21 15 0 17 -30 35
-60 35 -18 0 -20 -4 -15 -34 6 -32 6 -33 -31 -39 -21 -4 -40 -4 -43 -2 -4 4
14 62 56 181 2 6 -11 19 -30 28 -40 18 -41 18 -50 9z m93 -252 c0 -23 -44
-111 -56 -111 -22 0 -64 22 -64 34 0 24 40 75 62 79 41 8 58 7 58 -2z"/>
<path d="M625 501 c-11 -5 -53 -14 -93 -21 -101 -17 -77 -31 31 -18 48 6 90 8
92 6 3 -2 1 -24 -3 -48 -9 -52 -21 -57 -122 -59 l-65 -1 2 -105 c1 -97 3 -107
25 -125 66 -54 268 -51 342 5 19 14 19 16 1 57 -26 61 -32 64 -39 25 -11 -60
-34 -72 -151 -75 -143 -5 -148 -2 -143 98 1 43 6 82 10 85 4 4 48 10 97 13 86
4 90 6 85 26 -3 12 6 42 20 70 19 37 22 53 14 63 -11 14 -71 16 -103 4z"/>
</g>
</svg>
