<?xml version="1.0" standalone="no"?>
<!DOCTYPE svg PUBLIC "-//W3C//DTD SVG 20010904//EN"
 "http://www.w3.org/TR/2001/REC-SVG-20010904/DTD/svg10.dtd">
<svg version="1.0" xmlns="http://www.w3.org/2000/svg"
 width="96.000000pt" height="68.000000pt" viewBox="0 0 96.000000 68.000000"
 preserveAspectRatio="xMidYMid meet">
<metadata>
Created by potrace 1.16, written by Peter Selinger 2001-2019
</metadata>
<g transform="translate(0.000000,68.000000) scale(0.100000,-0.100000)"
fill="#000000" stroke="none">
<path d="M499 334 c-26 -28 -136 -101 -182 -122 -33 -14 -31 -37 4 -36 13 0
75 11 137 25 92 19 116 21 132 11 28 -17 40 -15 40 7 0 23 -16 37 -53 46 -24
6 -28 5 -25 -10 3 -16 -11 -21 -95 -35 -54 -9 -100 -14 -102 -10 -2 3 43 29
101 58 94 48 103 55 94 73 -14 25 -22 24 -51 -7z"/>
</g>
</svg>
