<?xml version="1.0" standalone="no"?>
<!DOCTYPE svg PUBLIC "-//W3C//DTD SVG 20010904//EN"
 "http://www.w3.org/TR/2001/REC-SVG-20010904/DTD/svg10.dtd">
<svg version="1.0" xmlns="http://www.w3.org/2000/svg"
 width="96.000000pt" height="68.000000pt" viewBox="0 0 96.000000 68.000000"
 preserveAspectRatio="xMidYMid meet">
<metadata>
Created by potrace 1.16, written by Peter Selinger 2001-2019
</metadata>
<g transform="translate(0.000000,68.000000) scale(0.100000,-0.100000)"
fill="#000000" stroke="none">
<path d="M610 495 c-30 -7 -83 -14 -118 -14 -56 -1 -61 -3 -52 -18 6 -10 17
-38 24 -63 7 -25 18 -44 25 -42 6 1 54 2 106 3 l94 1 31 56 c16 30 30 59 30
62 0 10 -48 30 -68 29 -9 -1 -42 -7 -72 -14z m78 -33 c3 -20 -1 -22 -42 -22
-39 0 -46 3 -46 19 0 15 8 21 33 24 46 5 52 3 55 -21z m-128 -12 c0 -17 -7
-20 -40 -20 -33 0 -40 3 -40 20 0 17 7 20 40 20 33 0 40 -3 40 -20z m114 -45
c-4 -8 -11 -15 -18 -16 -6 0 -23 -3 -38 -5 -23 -4 -28 -1 -28 16 0 17 6 20 45
20 35 0 43 -3 39 -15z m-114 -10 c0 -10 -11 -15 -35 -15 -24 0 -35 5 -35 15 0
10 11 15 35 15 24 0 35 -5 35 -15z"/>
</g>
</svg>
