<?xml version="1.0" standalone="no"?>
<!DOCTYPE svg PUBLIC "-//W3C//DTD SVG 20010904//EN"
 "http://www.w3.org/TR/2001/REC-SVG-20010904/DTD/svg10.dtd">
<svg version="1.0" xmlns="http://www.w3.org/2000/svg"
 width="96.000000pt" height="68.000000pt" viewBox="0 0 96.000000 68.000000"
 preserveAspectRatio="xMidYMid meet">
<metadata>
Created by potrace 1.16, written by Peter Selinger 2001-2019
</metadata>
<g transform="translate(0.000000,68.000000) scale(0.100000,-0.100000)"
fill="#000000" stroke="none">
<path d="M639 575 c-3 -2 -40 -10 -82 -16 -83 -12 -110 -35 -29 -25 26 3 74 9
107 12 67 6 76 11 55 24 -16 10 -44 13 -51 5z"/>
<path d="M270 544 c-25 -7 -57 -13 -72 -13 -30 -1 -38 -18 -14 -27 8 -3 40 0
71 6 31 6 58 10 61 8 2 -2 -1 -20 -6 -40 -9 -31 -15 -36 -48 -42 -20 -3 -50
-6 -66 -6 -25 0 -27 -3 -21 -22 7 -24 7 -27 3 -68 -3 -22 1 -25 27 -24 17 0
50 5 74 9 l43 8 -7 -89 c-7 -90 -26 -154 -44 -154 -6 0 -22 5 -36 12 -38 17
-39 5 -2 -36 39 -42 56 -45 84 -13 27 29 40 76 47 172 4 44 9 90 12 102 5 18
1 23 -27 31 -20 5 -52 5 -77 -1 -50 -10 -58 -7 -43 22 8 14 25 22 59 26 63 9
74 13 67 25 -4 6 6 31 21 57 26 44 26 47 8 60 -21 16 -53 15 -114 -3z"/>
<path d="M610 495 c-30 -7 -84 -14 -119 -14 -49 -1 -61 -4 -53 -13 5 -7 17
-35 24 -62 l15 -50 104 3 c116 3 119 5 156 85 16 37 16 39 -2 52 -22 16 -49
16 -125 -1z m80 -36 c0 -16 -8 -19 -45 -19 -38 0 -45 3 -45 19 0 15 8 21 33
23 44 5 57 -1 57 -23z m-130 -9 c0 -17 -7 -20 -40 -20 -28 0 -40 4 -40 14 0
17 15 24 53 25 21 1 27 -4 27 -19z m110 -45 c0 -9 -10 -16 -25 -16 -14 -1 -31
-2 -37 -3 -7 -1 -14 7 -16 17 -3 14 4 17 37 17 30 0 41 -4 41 -15z m-110 -10
c0 -11 -11 -15 -40 -15 -31 0 -38 3 -34 15 4 9 19 15 40 15 24 0 34 -5 34 -15z"/>
<path d="M739 336 c-2 -2 -83 -10 -179 -16 -96 -6 -177 -14 -179 -16 -16 -16
102 -23 168 -9 12 2 81 5 152 6 71 0 131 4 134 9 10 16 -81 41 -96 26z"/>
<path d="M178 260 c4 -25 1 -30 -17 -30 -11 0 -21 -4 -21 -10 0 -5 12 -10 26
-10 21 0 25 -4 22 -22 -2 -17 -13 -25 -40 -32 -44 -11 -49 -23 -13 -32 17 -4
43 2 75 17 50 24 66 43 33 37 -12 -2 -19 4 -21 19 -3 17 3 22 23 25 14 2 25 8
25 13 -1 6 -12 9 -25 7 -18 -3 -24 2 -27 20 -2 14 -11 24 -24 26 -18 3 -20 -1
-16 -28z"/>
<path d="M600 259 c-25 -4 -71 -8 -102 -8 -52 -1 -80 -12 -60 -25 5 -3 14 -29
21 -58 l13 -54 118 1 119 0 25 65 c24 61 25 66 9 78 -18 13 -73 14 -143 1z
m95 -33 c0 -16 -8 -20 -42 -22 -36 -2 -43 1 -43 16 0 20 20 29 60 27 18 -2 25
-8 25 -21z m-135 -16 c0 -17 -7 -20 -40 -20 -33 0 -40 3 -40 20 0 17 7 20 40
20 33 0 40 -3 40 -20z m130 -29 c0 -30 -14 -41 -51 -41 -31 0 -39 4 -39 18 0
10 3 22 7 25 10 10 83 8 83 -2z m-125 -25 c0 -16 -7 -20 -35 -20 -29 -1 -36 3
-38 22 -3 21 0 23 35 20 30 -2 38 -7 38 -22z"/>
<path d="M565 74 c-93 -6 -174 -12 -178 -13 -5 -1 -6 -5 -2 -10 7 -12 416 -2
429 10 10 9 -36 30 -62 28 -9 -1 -93 -8 -187 -15z"/>
</g>
</svg>
