<?xml version="1.0" standalone="no"?>
<!DOCTYPE svg PUBLIC "-//W3C//DTD SVG 20010904//EN"
 "http://www.w3.org/TR/2001/REC-SVG-20010904/DTD/svg10.dtd">
<svg version="1.0" xmlns="http://www.w3.org/2000/svg"
 width="96.000000pt" height="68.000000pt" viewBox="0 0 96.000000 68.000000"
 preserveAspectRatio="xMidYMid meet">
<metadata>
Created by potrace 1.16, written by Peter Selinger 2001-2019
</metadata>
<g transform="translate(0.000000,68.000000) scale(0.100000,-0.100000)"
fill="#000000" stroke="none">
<path d="M545 618 c-2 -7 -5 -22 -7 -33 -2 -11 -12 -21 -23 -23 -58 -8 -69
-13 -54 -23 7 -5 27 -9 43 -9 21 0 27 -4 22 -16 -3 -9 -6 -21 -6 -29 0 -22
-198 -50 -229 -31 -16 10 -22 -11 -7 -23 8 -7 20 -35 27 -62 13 -48 15 -50 41
-45 22 4 28 2 28 -12 0 -29 -21 -42 -66 -42 -64 0 -134 -12 -128 -21 7 -12
111 -11 119 1 3 5 12 7 21 3 12 -4 12 -8 2 -21 -20 -25 -126 -90 -166 -103
-52 -16 -66 -33 -22 -25 54 11 170 72 219 116 40 36 50 40 96 40 49 0 59 -5
151 -70 92 -65 103 -70 149 -69 28 1 61 4 75 8 21 6 12 10 -50 26 -41 10 -113
37 -160 61 l-85 43 70 2 c39 1 75 2 80 4 6 1 17 3 25 4 10 1 6 7 -11 16 -22
12 -46 13 -130 5 -145 -13 -139 -14 -139 14 0 21 6 25 46 31 30 4 50 2 60 -6
8 -6 16 -10 18 -8 7 8 66 122 66 128 0 11 -69 33 -80 26 -18 -11 -11 4 16 35
22 24 35 30 80 32 68 4 75 22 11 26 -42 3 -47 6 -42 22 4 13 -1 22 -14 29 -26
14 -41 14 -46 -1z m5 -188 c0 -14 -14 -18 -87 -23 -49 -4 -98 -10 -109 -13
-16 -4 -23 0 -26 14 -5 17 1 20 46 26 28 3 68 6 89 6 21 0 36 4 33 8 -3 5 8 6
25 4 19 -3 29 -10 29 -22z m-6 -55 c-4 -8 -16 -15 -28 -16 -11 0 -52 -4 -91
-8 -48 -5 -72 -4 -77 3 -17 25 -13 26 159 34 34 2 41 -1 37 -13z"/>
<path d="M290 604 c0 -3 5 -15 11 -26 15 -28 -2 -38 -68 -38 -54 0 -64 -8 -38
-30 15 -12 71 -10 107 5 13 5 21 0 29 -19 17 -37 43 -34 37 4 -4 25 -1 30 24
35 42 10 44 25 4 25 -25 0 -36 5 -36 15 0 8 -9 19 -19 25 -21 11 -51 14 -51 4z"/>
<path d="M400 221 c0 -6 5 -13 10 -16 12 -7 13 -125 1 -143 -5 -9 -17 -11 -37
-6 l-29 7 34 -31 c39 -37 47 -39 60 -13 11 20 21 176 13 199 -5 14 -52 17 -52
3z"/>
<path d="M580 154 c0 -3 14 -24 31 -45 34 -44 62 -52 57 -17 -4 28 -88 87 -88
62z"/>
<path d="M310 140 c0 -5 -14 -25 -31 -45 -41 -46 -16 -47 37 0 32 29 36 36 24
45 -19 12 -30 13 -30 0z"/>
<path d="M500 134 c0 -19 34 -74 46 -74 22 0 17 37 -8 60 -21 20 -38 26 -38
14z"/>
</g>
</svg>
