<?xml version="1.0" standalone="no"?>
<!DOCTYPE svg PUBLIC "-//W3C//DTD SVG 20010904//EN"
 "http://www.w3.org/TR/2001/REC-SVG-20010904/DTD/svg10.dtd">
<svg version="1.0" xmlns="http://www.w3.org/2000/svg"
 width="96.000000pt" height="68.000000pt" viewBox="0 0 96.000000 68.000000"
 preserveAspectRatio="xMidYMid meet">
<metadata>
Created by potrace 1.16, written by Peter Selinger 2001-2019
</metadata>
<g transform="translate(0.000000,68.000000) scale(0.100000,-0.100000)"
fill="#000000" stroke="none">
<path d="M403 353 c-7 -3 -13 -14 -13 -26 0 -47 -12 -51 -145 -55 -87 -3 -125
-8 -122 -16 3 -7 41 -10 120 -9 65 1 117 -2 117 -6 0 -5 -7 -14 -15 -21 -8 -7
-15 -18 -15 -26 0 -13 57 -34 93 -34 9 0 17 -4 17 -9 0 -11 -104 -57 -150 -66
-58 -12 -70 -24 -25 -25 51 0 128 21 184 49 l43 22 80 -46 c83 -48 112 -52
106 -13 -2 17 -21 32 -75 58 l-73 36 35 52 35 51 118 3 c117 3 117 3 86 20
-27 15 -45 16 -120 9 -68 -6 -95 -5 -116 6 -23 11 -28 11 -35 -1 -4 -7 -28
-17 -52 -21 -40 -7 -43 -6 -36 11 4 11 8 25 9 33 1 15 -32 30 -51 24z m127
-100 c0 -4 -10 -22 -22 -40 -24 -34 -52 -41 -105 -27 -28 8 -29 14 -2 48 18
22 28 26 75 26 30 0 54 -3 54 -7z"/>
</g>
</svg>
