<?xml version="1.0" standalone="no"?>
<!DOCTYPE svg PUBLIC "-//W3C//DTD SVG 20010904//EN"
 "http://www.w3.org/TR/2001/REC-SVG-20010904/DTD/svg10.dtd">
<svg version="1.0" xmlns="http://www.w3.org/2000/svg"
 width="96.000000pt" height="68.000000pt" viewBox="0 0 96.000000 68.000000"
 preserveAspectRatio="xMidYMid meet">
<metadata>
Created by potrace 1.16, written by Peter Selinger 2001-2019
</metadata>
<g transform="translate(0.000000,68.000000) scale(0.100000,-0.100000)"
fill="#000000" stroke="none">
<path d="M509 588 c-26 -51 -61 -78 -101 -78 -35 0 -52 -14 -28 -22 5 -1 15
-30 21 -63 13 -69 25 -91 44 -75 22 18 25 -5 5 -38 -11 -17 -34 -39 -52 -48
-18 -10 -28 -19 -21 -21 15 -5 65 21 98 51 19 18 25 31 20 45 -6 19 -2 21 44
21 49 0 51 -1 51 -28 0 -16 6 -35 13 -44 15 -20 70 -35 117 -32 19 1 41 3 48
3 29 2 3 26 -29 27 -115 3 -109 1 -106 39 2 31 4 34 32 32 27 -2 31 2 50 55
11 31 24 60 28 64 18 19 5 41 -31 53 -32 11 -52 10 -120 -4 -114 -23 -130 -17
-63 25 49 31 52 34 35 47 -26 19 -42 16 -55 -9z m165 -113 c0 -16 -3 -43 -6
-60 l-5 -30 -109 -7 c-60 -4 -109 -6 -110 -5 -1 1 -5 27 -9 59 l-7 56 88 7
c49 3 94 8 99 9 6 2 21 2 35 2 21 -1 25 -6 24 -31z"/>
<path d="M565 469 c-6 -18 -12 -20 -43 -15 -29 5 -33 4 -19 -4 23 -15 22 -24
-8 -40 -37 -20 -23 -24 20 -6 26 11 42 13 55 6 25 -13 50 -13 50 1 0 6 -9 13
-20 16 -25 7 -26 23 -1 30 12 3 17 11 14 19 -8 21 -41 17 -48 -7z"/>
<path d="M266 528 c-18 -60 -60 -124 -129 -198 -27 -29 -46 -54 -44 -57 9 -9
52 19 100 65 l47 46 0 -73 c0 -41 -5 -114 -12 -162 -11 -81 -10 -90 7 -109 34
-38 41 -11 48 177 5 118 3 181 -4 189 -8 10 1 29 32 75 46 68 45 91 -4 97 -23
3 -27 -2 -41 -50z"/>
<path d="M494 254 c-15 -27 -48 -68 -73 -91 -47 -43 -47 -59 -1 -23 14 11 30
20 35 19 14 0 65 -46 65 -58 0 -13 -52 -36 -135 -62 l-60 -19 55 6 c30 3 82
16 115 29 l59 24 46 -28 c65 -41 83 -45 174 -30 89 14 89 14 -49 44 -44 10
-92 24 -107 31 -31 16 -33 9 36 91 43 51 23 63 -78 48 -47 -8 -48 -8 -35 13
12 19 11 24 -3 38 -15 15 -18 12 -44 -32z m102 -72 c-26 -51 -41 -57 -81 -32
-19 12 -35 26 -35 31 0 14 31 24 85 27 l46 3 -15 -29z"/>
</g>
</svg>
