<?xml version="1.0" standalone="no"?>
<!DOCTYPE svg PUBLIC "-//W3C//DTD SVG 20010904//EN"
 "http://www.w3.org/TR/2001/REC-SVG-20010904/DTD/svg10.dtd">
<svg version="1.0" xmlns="http://www.w3.org/2000/svg"
 width="96.000000pt" height="68.000000pt" viewBox="0 0 96.000000 68.000000"
 preserveAspectRatio="xMidYMid meet">
<metadata>
Created by potrace 1.16, written by Peter Selinger 2001-2019
</metadata>
<g transform="translate(0.000000,68.000000) scale(0.100000,-0.100000)"
fill="#000000" stroke="none">
<path d="M328 573 l-3 -58 -85 -5 -85 -5 23 -23 c24 -24 57 -25 109 -5 12 5
14 1 9 -15 -6 -17 -2 -24 19 -34 38 -17 26 -30 -46 -53 l-64 -20 44 -3 c24 -2
66 4 94 13 35 12 53 13 60 6 6 -6 19 -11 30 -11 22 0 14 -9 -46 -54 -49 -38
-37 -52 33 -37 29 6 55 9 58 7 5 -6 -48 -39 -100 -64 -23 -10 -37 -23 -35 -32
3 -16 25 -18 99 -6 46 8 47 8 50 -20 2 -16 1 -46 -1 -68 -3 -37 -4 -38 -34
-32 l-30 6 31 -30 c18 -16 38 -30 47 -30 20 0 37 69 34 138 -2 48 0 56 16 58
10 2 29 5 42 9 16 4 33 -1 50 -15 28 -22 43 -19 43 9 0 23 -22 42 -68 58 -41
14 -51 10 -32 -12 7 -9 11 -17 8 -20 -6 -6 -190 -27 -195 -22 -2 2 46 27 107
56 60 28 110 55 110 59 0 13 -23 32 -37 32 -8 0 -24 -11 -36 -24 -16 -17 -36
-26 -74 -30 -29 -3 -53 -1 -53 4 0 4 23 22 51 39 28 18 49 37 46 44 -6 19 -46
21 -53 2 -5 -13 -9 -11 -20 11 -13 25 -12 30 16 72 33 50 36 62 18 80 -18 18
-45 14 -51 -8 -3 -12 -14 -20 -26 -20 -20 0 -20 1 -4 35 15 31 15 37 2 50 -7
7 -26 17 -41 20 -27 7 -27 6 -30 -52z m92 -81 c0 -17 -32 -52 -49 -52 -25 0
-32 10 -21 31 9 15 19 20 63 28 4 0 7 -2 7 -7z"/>
<path d="M665 538 c-38 -5 -89 -8 -112 -6 -42 3 -57 -5 -29 -15 8 -3 20 -31
27 -62 11 -50 15 -56 33 -50 12 3 51 9 89 12 51 4 67 9 67 21 0 8 11 30 25 48
l25 33 -27 14 c-21 10 -45 11 -98 5z m48 -50 c-8 -43 -9 -44 -69 -52 -47 -6
-51 -5 -62 19 -24 53 -15 60 90 64 l48 1 -7 -32z"/>
<path d="M610 151 c0 -4 24 -31 54 -60 36 -36 60 -52 70 -48 21 8 20 30 -1 55
-18 21 -123 66 -123 53z"/>
<path d="M329 108 c-6 -13 -23 -35 -37 -50 -35 -37 -15 -35 44 5 52 34 63 60
27 65 -14 2 -26 -4 -34 -20z"/>
</g>
</svg>
