<?xml version="1.0" standalone="no"?>
<!DOCTYPE svg PUBLIC "-//W3C//DTD SVG 20010904//EN"
 "http://www.w3.org/TR/2001/REC-SVG-20010904/DTD/svg10.dtd">
<svg version="1.0" xmlns="http://www.w3.org/2000/svg"
 width="96.000000pt" height="68.000000pt" viewBox="0 0 96.000000 68.000000"
 preserveAspectRatio="xMidYMid meet">
<metadata>
Created by potrace 1.16, written by Peter Selinger 2001-2019
</metadata>
<g transform="translate(0.000000,68.000000) scale(0.100000,-0.100000)"
fill="#000000" stroke="none">
<path d="M592 143 c-10 -10 -7 -12 18 -9 40 5 47 12 17 18 -13 2 -29 -1 -35
-9z"/>
<path d="M480 136 c0 -3 14 -12 30 -21 17 -9 30 -13 30 -11 0 3 -13 12 -30 21
-16 9 -30 13 -30 11z"/>
<path d="M354 96 c-3 -14 -4 -29 -1 -33 3 -5 2 -15 -3 -22 -5 -8 -3 -19 3 -26
9 -10 21 -6 54 17 24 16 43 32 43 35 0 4 -5 2 -12 -5 -16 -16 -48 -15 -49 1
-1 6 -2 17 -4 22 -1 6 -3 16 -3 23 -3 21 -21 13 -28 -12z"/>
<path d="M585 80 c3 -5 14 -10 23 -10 15 0 15 -2 2 -10 -12 -8 -9 -10 13 -10
16 0 26 -4 23 -9 -8 -13 44 -20 71 -10 13 5 31 6 40 3 17 -5 17 -5 1 5 -9 6
-34 13 -55 15 -21 2 -55 11 -77 20 -45 19 -49 19 -41 6z"/>
</g>
</svg>
