<?xml version="1.0" standalone="no"?>
<!DOCTYPE svg PUBLIC "-//W3C//DTD SVG 20010904//EN"
 "http://www.w3.org/TR/2001/REC-SVG-20010904/DTD/svg10.dtd">
<svg version="1.0" xmlns="http://www.w3.org/2000/svg"
 width="96.000000pt" height="68.000000pt" viewBox="0 0 96.000000 68.000000"
 preserveAspectRatio="xMidYMid meet">
<metadata>
Created by potrace 1.16, written by Peter Selinger 2001-2019
</metadata>
<g transform="translate(0.000000,68.000000) scale(0.100000,-0.100000)"
fill="#000000" stroke="none">
<path d="M487 278 c-15 -11 -24 -25 -21 -30 4 -7 2 -8 -4 -4 -6 4 -20 -2 -32
-14 -11 -11 -23 -20 -27 -21 -14 -2 -38 -18 -27 -19 6 0 14 3 18 8 4 4 11 7
14 8 14 1 67 29 74 38 4 6 4 14 2 18 -3 4 1 6 8 3 19 -7 45 12 33 24 -7 6 -20
3 -38 -11z"/>
<path d="M510 240 c-23 -7 -23 -8 -3 -9 12 -1 25 4 28 9 3 6 5 10 3 9 -2 -1
-14 -5 -28 -9z"/>
<path d="M567 228 c4 -19 -6 -34 -44 -69 -26 -24 -47 -48 -45 -52 1 -5 -1 -6
-6 -3 -5 3 -30 -5 -56 -18 -36 -17 -43 -24 -29 -28 27 -7 137 57 202 118 31
28 54 54 51 57 -3 3 -21 8 -41 12 -35 6 -36 5 -32 -17z m33 -12 c0 -3 -4 -8
-10 -11 -5 -3 -10 -1 -10 4 0 6 5 11 10 11 6 0 10 -2 10 -4z"/>
<path d="M326 51 c-15 -6 -16 -10 -7 -15 8 -5 20 -2 29 8 17 17 9 19 -22 7z"/>
<path d="M265 30 c-8 -13 5 -13 25 0 13 8 13 10 -2 10 -9 0 -20 -4 -23 -10z"/>
</g>
</svg>
