<?xml version="1.0" standalone="no"?>
<!DOCTYPE svg PUBLIC "-//W3C//DTD SVG 20010904//EN"
 "http://www.w3.org/TR/2001/REC-SVG-20010904/DTD/svg10.dtd">
<svg version="1.0" xmlns="http://www.w3.org/2000/svg"
 width="96.000000pt" height="68.000000pt" viewBox="0 0 96.000000 68.000000"
 preserveAspectRatio="xMidYMid meet">
<metadata>
Created by potrace 1.16, written by Peter Selinger 2001-2019
</metadata>
<g transform="translate(0.000000,68.000000) scale(0.100000,-0.100000)"
fill="#000000" stroke="none">
<path d="M695 523 c-27 -8 -86 -14 -130 -15 l-80 -1 3 -63 4 -64 76 1 c43 1
111 4 152 8 63 5 75 9 72 23 -1 10 7 36 19 59 20 41 20 43 3 56 -22 16 -53 15
-119 -4z m60 -66 c-6 -31 -11 -35 -47 -41 -22 -4 -42 -5 -45 -3 -2 2 1 17 7
33 8 20 8 30 1 32 -25 8 -8 21 32 24 54 4 60 -2 52 -45z m-127 6 c6 -40 -15
-63 -57 -63 -37 0 -37 1 -33 33 6 45 20 59 56 55 23 -2 32 -9 34 -25z"/>
</g>
</svg>
