<?xml version="1.0" standalone="no"?>
<!DOCTYPE svg PUBLIC "-//W3C//DTD SVG 20010904//EN"
 "http://www.w3.org/TR/2001/REC-SVG-20010904/DTD/svg10.dtd">
<svg version="1.0" xmlns="http://www.w3.org/2000/svg"
 width="96.000000pt" height="68.000000pt" viewBox="0 0 96.000000 68.000000"
 preserveAspectRatio="xMidYMid meet">
<metadata>
Created by potrace 1.16, written by Peter Selinger 2001-2019
</metadata>
<g transform="translate(0.000000,68.000000) scale(0.100000,-0.100000)"
fill="#000000" stroke="none">
<path d="M487 573 c-16 -40 -46 -76 -92 -107 -24 -16 -25 -20 -12 -33 12 -13
21 -13 47 -5 30 11 31 10 24 -11 -9 -30 -41 -74 -62 -87 -16 -9 -15 -9 2 -10
25 0 106 82 106 108 0 12 9 22 23 26 36 9 37 8 37 -38 0 -60 17 -71 104 -71
89 0 99 19 12 23 -78 3 -92 16 -79 69 7 30 14 39 34 41 15 2 32 -5 44 -18 26
-29 47 -26 43 7 -2 20 -14 34 -43 50 -47 27 -74 31 -55 8 15 -19 5 -35 -23
-35 -13 0 -46 -6 -75 -14 -29 -7 -55 -10 -57 -5 -3 4 15 29 40 56 48 51 54 67
29 77 -27 10 -31 7 -47 -31z"/>
<path d="M226 563 c12 -53 9 -291 -5 -396 -10 -78 -10 -92 4 -113 38 -58 55
-11 55 155 0 71 3 143 6 160 l7 32 28 -27 c21 -20 32 -25 40 -17 19 19 5 48
-34 66 l-38 18 7 68 6 68 -32 12 c-50 17 -53 15 -44 -26z"/>
<path d="M125 367 c-29 -50 -33 -92 -9 -101 22 -9 41 9 54 50 12 35 5 94 -10
94 -5 0 -21 -20 -35 -43z"/>
<path d="M480 314 c-7 -20 -32 -60 -56 -90 -43 -53 -44 -74 -2 -34 12 11 24
20 27 20 10 0 71 -57 71 -66 0 -11 -83 -51 -123 -60 -30 -7 -47 -24 -23 -24
19 0 99 26 144 47 31 15 33 15 76 -21 42 -34 48 -36 113 -35 78 2 136 13 113
22 -8 3 -35 10 -60 16 -129 28 -181 52 -165 74 6 8 25 36 43 62 18 27 31 54
27 63 -5 15 -24 14 -125 -4 l-35 -7 23 26 c24 25 24 25 4 36 -32 17 -40 14
-52 -25z m110 -60 c0 -25 -31 -84 -44 -84 -6 0 -26 13 -45 29 -38 31 -35 51 7
51 15 0 34 5 42 10 23 15 40 12 40 -6z"/>
</g>
</svg>
