<?xml version="1.0" standalone="no"?>
<!DOCTYPE svg PUBLIC "-//W3C//DTD SVG 20010904//EN"
 "http://www.w3.org/TR/2001/REC-SVG-20010904/DTD/svg10.dtd">
<svg version="1.0" xmlns="http://www.w3.org/2000/svg"
 width="96.000000pt" height="68.000000pt" viewBox="0 0 96.000000 68.000000"
 preserveAspectRatio="xMidYMid meet">
<metadata>
Created by potrace 1.16, written by Peter Selinger 2001-2019
</metadata>
<g transform="translate(0.000000,68.000000) scale(0.100000,-0.100000)"
fill="#000000" stroke="none">
<path d="M390 578 c0 -9 9 -27 20 -41 17 -22 18 -26 4 -31 -26 -10 -172 -7
-179 4 -3 6 -9 10 -14 10 -9 0 -61 -106 -61 -125 0 -42 53 -21 71 28 l11 33
196 22 c107 12 199 19 204 16 5 -3 -3 -19 -17 -36 -14 -17 -25 -32 -23 -33 5
-5 142 27 151 35 15 13 -5 39 -46 59 -33 16 -50 18 -82 12 -22 -5 -63 -11 -91
-14 -46 -5 -51 -4 -47 11 6 23 -25 50 -65 58 -25 5 -32 3 -32 -8z"/>
<path d="M255 345 c-9 -25 -36 -67 -60 -93 -48 -52 -50 -67 -5 -34 16 12 33
22 37 22 12 0 53 -46 53 -58 0 -6 -29 -32 -65 -59 -72 -53 -83 -71 -30 -49 66
28 121 79 219 204 22 28 44 52 48 52 5 0 8 -40 8 -90 0 -98 10 -131 48 -156
52 -34 239 -30 285 6 24 19 25 20 8 65 -17 48 -28 56 -37 28 -13 -41 -28 -61
-51 -72 -35 -16 -137 -14 -180 4 l-36 15 7 93 c8 104 17 119 72 121 43 1 50
-12 39 -70 -5 -29 -10 -34 -33 -34 l-27 -1 28 -24 c15 -14 32 -25 36 -25 21 0
39 41 44 102 7 73 -1 87 -43 82 -14 -1 -58 -6 -97 -10 -40 -4 -73 -11 -73 -17
0 -5 -6 -4 -14 2 -10 8 -30 10 -59 6 -38 -6 -48 -4 -66 14 -30 30 -36 27 -56
-24z m120 -37 c-15 -47 -75 -110 -75 -78 0 5 -11 12 -25 16 -31 8 -31 9 1 51
21 28 31 33 65 33 37 0 40 -2 34 -22z"/>
</g>
</svg>
