<?xml version="1.0" standalone="no"?>
<!DOCTYPE svg PUBLIC "-//W3C//DTD SVG 20010904//EN"
 "http://www.w3.org/TR/2001/REC-SVG-20010904/DTD/svg10.dtd">
<svg version="1.0" xmlns="http://www.w3.org/2000/svg"
 width="96.000000pt" height="68.000000pt" viewBox="0 0 96.000000 68.000000"
 preserveAspectRatio="xMidYMid meet">
<metadata>
Created by potrace 1.16, written by Peter Selinger 2001-2019
</metadata>
<g transform="translate(0.000000,68.000000) scale(0.100000,-0.100000)"
fill="#000000" stroke="none">
<path d="M610 223 c-63 -7 -137 -11 -163 -8 -47 6 -48 5 -37 -16 7 -12 12 -45
11 -73 0 -56 10 -83 28 -72 8 5 9 28 5 70 l-6 63 43 7 c24 4 73 9 109 12 36 3
77 7 91 9 14 2 36 1 48 -2 20 -5 22 -11 19 -67 -3 -59 -4 -61 -30 -59 -26 2
-26 2 -10 -28 20 -35 56 -39 73 -8 6 12 15 53 20 92 13 105 10 106 -201 80z"/>
</g>
</svg>
