<?xml version="1.0" standalone="no"?>
<!DOCTYPE svg PUBLIC "-//W3C//DTD SVG 20010904//EN"
 "http://www.w3.org/TR/2001/REC-SVG-20010904/DTD/svg10.dtd">
<svg version="1.0" xmlns="http://www.w3.org/2000/svg"
 width="96.000000pt" height="68.000000pt" viewBox="0 0 96.000000 68.000000"
 preserveAspectRatio="xMidYMid meet">
<metadata>
Created by potrace 1.16, written by Peter Selinger 2001-2019
</metadata>
<g transform="translate(0.000000,68.000000) scale(0.100000,-0.100000)"
fill="#000000" stroke="none">
<path d="M592 605 c45 -42 78 -46 78 -10 0 30 -26 45 -77 45 l-38 -1 37 -34z"/>
<path d="M444 588 c1 -31 -3 -43 -14 -44 -8 0 -36 -2 -62 -2 -73 -3 -57 -22
17 -22 l66 0 -3 -62 c-3 -59 -4 -63 -25 -60 -29 4 -29 -1 -1 -33 42 -49 68
-22 67 71 -1 33 0 66 0 75 1 12 16 18 61 23 60 7 83 19 55 30 -8 3 -37 2 -65
-1 -49 -6 -50 -5 -50 20 0 16 -8 30 -19 37 -29 15 -29 14 -27 -32z"/>
<path d="M582 497 c-18 -18 -32 -36 -32 -39 0 -3 25 3 55 15 59 21 66 30 36
47 -26 13 -23 15 -59 -23z"/>
<path d="M280 493 c0 -19 32 -53 51 -53 21 0 26 22 7 38 -19 14 -58 25 -58 15z"/>
<path d="M335 410 c-22 -11 -61 -25 -87 -31 -27 -7 -48 -15 -48 -18 0 -4 9
-12 21 -19 18 -12 29 -8 100 33 43 26 79 49 79 51 0 8 -26 2 -65 -16z"/>
<path d="M556 421 c21 -19 127 -71 145 -71 30 0 24 36 -8 49 -23 9 -122 31
-141 31 -3 0 -2 -4 4 -9z"/>
<path d="M400 331 c0 -5 7 -14 15 -21 24 -20 18 -27 -32 -34 -109 -15 -123
-18 -117 -28 4 -6 27 -8 60 -4 32 4 54 2 54 -3 0 -19 -93 -86 -179 -129 -98
-49 -61 -50 48 -1 92 42 95 41 88 -32 -7 -79 5 -83 88 -29 72 47 88 72 25 40
-60 -31 -70 -27 -70 25 0 25 -4 45 -10 45 -5 0 -10 5 -10 10 0 6 5 10 10 10
17 0 71 53 66 66 -5 14 45 24 127 24 43 0 57 3 54 13 -3 8 -25 11 -76 9 -55
-2 -71 1 -71 12 0 8 -14 19 -31 25 -38 13 -39 13 -39 2z"/>
<path d="M607 214 c-32 -38 -47 -41 -82 -18 -13 9 -32 14 -42 12 -15 -3 -12
-7 12 -20 17 -9 44 -28 60 -42 17 -14 35 -30 42 -36 45 -38 90 -60 122 -60 40
0 116 19 108 26 -3 3 -36 12 -73 20 -73 15 -177 60 -169 73 2 5 25 14 50 21
54 15 65 28 40 47 -27 19 -37 16 -68 -23z"/>
</g>
</svg>
