<?xml version="1.0" standalone="no"?>
<!DOCTYPE svg PUBLIC "-//W3C//DTD SVG 20010904//EN"
 "http://www.w3.org/TR/2001/REC-SVG-20010904/DTD/svg10.dtd">
<svg version="1.0" xmlns="http://www.w3.org/2000/svg"
 width="90.000000pt" height="92.000000pt" viewBox="0 0 90.000000 92.000000"
 preserveAspectRatio="xMidYMid meet">
<metadata>
Created by potrace 1.16, written by Peter Selinger 2001-2019
</metadata>
<g transform="translate(0.000000,92.000000) scale(0.100000,-0.100000)"
fill="#000000" stroke="none">
<path d="M116 748 c4 -7 22 -32 41 -55 37 -46 68 -55 78 -23 9 28 -12 60 -50
76 -43 18 -79 19 -69 2z"/>
<path d="M540 735 c-14 -8 -57 -21 -95 -30 -64 -14 -74 -15 -100 -1 -35 18
-47 10 -37 -26 4 -15 5 -111 2 -213 -3 -102 -2 -198 2 -212 22 -80 113 -117
277 -111 90 3 114 7 156 29 28 14 56 37 64 51 13 22 13 29 -2 61 -10 19 -20
49 -23 66 -9 42 -20 39 -28 -9 -10 -61 -25 -86 -64 -105 -47 -22 -209 -32
-269 -16 -68 19 -73 28 -73 145 l0 103 94 11 c52 7 109 12 125 12 30 0 41 13
22 25 -11 6 11 82 40 136 26 50 24 66 -11 84 -35 18 -48 18 -80 0z m20 -68 c0
-13 -5 -48 -11 -78 l-11 -55 -69 -12 c-38 -7 -81 -12 -95 -12 -22 0 -25 3 -20
28 2 15 8 48 11 75 5 40 10 47 28 47 12 0 45 7 72 14 77 22 95 20 95 -7z"/>
<path d="M30 587 c0 -20 83 -107 103 -107 18 0 31 32 22 59 -5 17 -50 41 -102
56 -16 4 -23 2 -23 -8z"/>
<path d="M166 393 c-26 -51 -63 -109 -82 -130 -27 -29 -34 -44 -29 -63 11 -47
27 -80 40 -80 13 0 129 334 122 353 -2 7 -25 -30 -51 -80z"/>
</g>
</svg>
