<?xml version="1.0" standalone="no"?>
<!DOCTYPE svg PUBLIC "-//W3C//DTD SVG 20010904//EN"
 "http://www.w3.org/TR/2001/REC-SVG-20010904/DTD/svg10.dtd">
<svg version="1.0" xmlns="http://www.w3.org/2000/svg"
 width="96.000000pt" height="68.000000pt" viewBox="0 0 96.000000 68.000000"
 preserveAspectRatio="xMidYMid meet">
<metadata>
Created by potrace 1.16, written by Peter Selinger 2001-2019
</metadata>
<g transform="translate(0.000000,68.000000) scale(0.100000,-0.100000)"
fill="#000000" stroke="none">
<path d="M558 594 c-4 -3 -2 -20 3 -37 5 -18 9 -56 9 -84 0 -46 3 -53 19 -53
16 0 21 10 26 58 3 31 8 67 11 80 3 17 -2 25 -21 32 -30 11 -39 12 -47 4z"/>
<path d="M693 513 c-18 -27 -30 -50 -27 -52 2 -2 31 14 65 37 57 37 60 41 41
51 -35 19 -47 13 -79 -36z"/>
<path d="M452 488 c22 -33 45 -45 59 -31 17 17 -16 53 -49 53 -23 0 -24 -1
-10 -22z"/>
</g>
</svg>
