<?xml version="1.0" standalone="no"?>
<!DOCTYPE svg PUBLIC "-//W3C//DTD SVG 20010904//EN"
 "http://www.w3.org/TR/2001/REC-SVG-20010904/DTD/svg10.dtd">
<svg version="1.0" xmlns="http://www.w3.org/2000/svg"
 width="96.000000pt" height="68.000000pt" viewBox="0 0 96.000000 68.000000"
 preserveAspectRatio="xMidYMid meet">
<metadata>
Created by potrace 1.16, written by Peter Selinger 2001-2019
</metadata>
<g transform="translate(0.000000,68.000000) scale(0.100000,-0.100000)"
fill="#000000" stroke="none">
<path d="M535 506 c4 -26 3 -46 -3 -50 -6 -3 -44 -9 -86 -13 -42 -3 -76 -9
-76 -14 0 -15 42 -21 101 -14 l60 7 -6 -36 c-6 -32 -5 -36 14 -36 15 0 23 10
31 39 l10 39 68 7 c118 10 152 16 152 25 0 16 -64 21 -130 11 -36 -6 -69 -11
-73 -11 -7 0 -4 19 10 56 4 11 -38 34 -63 34 -12 0 -14 -8 -9 -44z"/>
</g>
</svg>
