<?xml version="1.0" standalone="no"?>
<!DOCTYPE svg PUBLIC "-//W3C//DTD SVG 20010904//EN"
 "http://www.w3.org/TR/2001/REC-SVG-20010904/DTD/svg10.dtd">
<svg version="1.0" xmlns="http://www.w3.org/2000/svg"
 width="96.000000pt" height="68.000000pt" viewBox="0 0 96.000000 68.000000"
 preserveAspectRatio="xMidYMid meet">
<metadata>
Created by potrace 1.16, written by Peter Selinger 2001-2019
</metadata>
<g transform="translate(0.000000,68.000000) scale(0.100000,-0.100000)"
fill="#000000" stroke="none">
<path d="M355 573 c-33 -8 -73 -18 -90 -22 l-30 -9 35 -1 c19 0 53 4 75 9 49
11 59 3 44 -38 -11 -33 -52 -52 -111 -52 -29 0 -45 -14 -28 -25 15 -9 12 -52
-6 -69 -8 -9 -12 -21 -8 -27 6 -11 15 -10 101 9 23 5 45 7 48 4 11 -11 4 -141
-10 -190 -9 -29 -17 -52 -18 -52 -1 0 -18 4 -37 10 l-35 10 36 -36 c28 -28 42
-35 58 -29 33 10 45 42 57 155 6 58 14 113 19 122 12 30 -34 44 -101 29 -30
-7 -58 -11 -60 -8 -3 3 -2 21 1 41 7 33 10 35 54 41 65 9 82 15 75 26 -3 5 6
30 21 54 27 47 27 46 -17 58 -7 2 -40 -3 -73 -10z"/>
</g>
</svg>
