<?xml version="1.0" standalone="no"?>
<!DOCTYPE svg PUBLIC "-//W3C//DTD SVG 20010904//EN"
 "http://www.w3.org/TR/2001/REC-SVG-20010904/DTD/svg10.dtd">
<svg version="1.0" xmlns="http://www.w3.org/2000/svg"
 width="96.000000pt" height="68.000000pt" viewBox="0 0 96.000000 68.000000"
 preserveAspectRatio="xMidYMid meet">
<metadata>
Created by potrace 1.16, written by Peter Selinger 2001-2019
</metadata>
<g transform="translate(0.000000,68.000000) scale(0.100000,-0.100000)"
fill="#000000" stroke="none">
<path d="M560 554 c-25 -7 -78 -13 -118 -13 l-72 -1 14 -22 c7 -13 20 -54 27
-91 13 -66 14 -68 38 -61 15 4 67 8 118 10 51 1 96 5 101 8 5 3 22 40 37 83
26 73 26 77 9 90 -22 16 -94 15 -154 -3z m88 -44 c-2 -18 -10 -23 -46 -25 -42
-3 -43 -2 -40 23 2 22 9 28 38 33 42 6 53 -1 48 -31z m-138 -15 c0 -22 -4 -25
-40 -25 -36 0 -40 3 -40 25 0 23 4 25 40 25 36 0 40 -2 40 -25z m128 -57 c-3
-31 -5 -33 -46 -34 -41 -2 -43 -1 -40 25 3 26 7 28 81 40 5 0 7 -14 5 -31z
m-118 -12 c0 -35 -62 -52 -74 -20 -13 35 -7 44 34 44 36 0 40 -3 40 -24z"/>
</g>
</svg>
