<?xml version="1.0" standalone="no"?>
<!DOCTYPE svg PUBLIC "-//W3C//DTD SVG 20010904//EN"
 "http://www.w3.org/TR/2001/REC-SVG-20010904/DTD/svg10.dtd">
<svg version="1.0" xmlns="http://www.w3.org/2000/svg"
 width="96.000000pt" height="68.000000pt" viewBox="0 0 96.000000 68.000000"
 preserveAspectRatio="xMidYMid meet">
<metadata>
Created by potrace 1.16, written by Peter Selinger 2001-2019
</metadata>
<g transform="translate(0.000000,68.000000) scale(0.100000,-0.100000)"
fill="#000000" stroke="none">
<path d="M500 314 c-19 -7 -49 -13 -66 -13 l-31 -1 16 -50 c16 -54 20 -56 93
-44 29 5 37 12 41 33 3 14 9 38 12 52 8 33 -15 41 -65 23z m20 -48 c0 -30 -4
-35 -31 -41 -36 -8 -37 -7 -45 32 -6 33 -6 33 64 42 7 0 12 -12 12 -33z"/>
</g>
</svg>
