<?xml version="1.0" standalone="no"?>
<!DOCTYPE svg PUBLIC "-//W3C//DTD SVG 20010904//EN"
 "http://www.w3.org/TR/2001/REC-SVG-20010904/DTD/svg10.dtd">
<svg version="1.0" xmlns="http://www.w3.org/2000/svg"
 width="96.000000pt" height="68.000000pt" viewBox="0 0 96.000000 68.000000"
 preserveAspectRatio="xMidYMid meet">
<metadata>
Created by potrace 1.16, written by Peter Selinger 2001-2019
</metadata>
<g transform="translate(0.000000,68.000000) scale(0.100000,-0.100000)"
fill="#000000" stroke="none">
<path d="M260 576 c0 -7 9 -25 20 -39 24 -30 20 -32 -76 -42 -38 -4 -78 -11
-89 -15 -35 -13 44 -23 95 -11 25 5 96 15 158 21 124 14 156 35 42 28 -66 -3
-70 -2 -70 17 0 20 -19 35 -62 49 -11 3 -18 0 -18 -8z"/>
</g>
</svg>
