<?xml version="1.0" standalone="no"?>
<!DOCTYPE svg PUBLIC "-//W3C//DTD SVG 20010904//EN"
 "http://www.w3.org/TR/2001/REC-SVG-20010904/DTD/svg10.dtd">
<svg version="1.0" xmlns="http://www.w3.org/2000/svg"
 width="96.000000pt" height="68.000000pt" viewBox="0 0 96.000000 68.000000"
 preserveAspectRatio="xMidYMid meet">
<metadata>
Created by potrace 1.16, written by Peter Selinger 2001-2019
</metadata>
<g transform="translate(0.000000,68.000000) scale(0.100000,-0.100000)"
fill="#000000" stroke="none">
<path d="M610 389 c-25 -6 -58 -8 -75 -7 l-30 3 0 -92 c0 -66 4 -93 12 -93 7
0 16 6 20 14 10 16 193 32 193 16 0 -5 11 -10 24 -10 22 0 23 4 29 82 3 45 3
86 1 90 -7 11 -117 8 -174 -3z m120 -33 c0 -21 -5 -24 -67 -29 -111 -11 -123
-10 -123 13 0 24 41 35 148 39 38 1 42 -1 42 -23z m0 -71 c0 -21 -5 -25 -27
-25 -16 0 -58 -3 -95 -7 l-68 -6 0 26 c0 25 2 26 68 30 37 2 79 4 95 5 23 2
27 -2 27 -23z"/>
</g>
</svg>
