<?xml version="1.0" standalone="no"?>
<!DOCTYPE svg PUBLIC "-//W3C//DTD SVG 20010904//EN"
 "http://www.w3.org/TR/2001/REC-SVG-20010904/DTD/svg10.dtd">
<svg version="1.0" xmlns="http://www.w3.org/2000/svg"
 width="96.000000pt" height="68.000000pt" viewBox="0 0 96.000000 68.000000"
 preserveAspectRatio="xMidYMid meet">
<metadata>
Created by potrace 1.16, written by Peter Selinger 2001-2019
</metadata>
<g transform="translate(0.000000,68.000000) scale(0.100000,-0.100000)"
fill="#000000" stroke="none">
<path d="M400 624 c0 -5 9 -23 19 -41 17 -27 18 -32 5 -37 -28 -11 -180 -6
-191 5 -9 9 -18 -2 -38 -41 -25 -49 -25 -54 -10 -69 15 -15 18 -14 36 8 10 13
19 29 19 36 0 9 26 15 88 20 48 3 104 8 125 11 34 5 37 4 37 -19 0 -19 -6 -26
-31 -31 -47 -9 -59 -7 -59 9 0 9 -9 15 -25 15 -18 0 -25 -5 -25 -19 0 -15 -8
-21 -37 -24 l-38 -4 43 -1 c34 -2 42 -6 42 -21 0 -15 -8 -21 -37 -24 l-38 -4
38 -1 c29 -2 37 -6 37 -21 0 -14 -10 -20 -46 -25 -26 -3 -62 -6 -81 -6 -23 0
-32 -4 -27 -11 4 -8 27 -10 65 -6 46 4 57 2 52 -9 -6 -17 -61 -51 -138 -86
-76 -35 -61 -36 30 -2 104 38 105 38 106 23 1 -8 2 -45 3 -84 1 -67 2 -70 24
-67 41 6 23 -18 -47 -62 -58 -37 -47 -43 20 -11 87 42 104 53 103 70 -1 12 9
15 50 15 29 0 58 -6 65 -12 23 -24 41 19 41 99 0 40 2 73 5 73 3 0 29 -13 58
-30 52 -29 89 -36 135 -24 37 10 25 20 -42 37 -35 8 -94 30 -132 49 l-69 33
95 3 c52 2 99 7 104 12 15 15 -42 23 -125 17 -74 -6 -79 -5 -79 13 0 17 7 20
39 20 22 0 43 5 46 10 4 6 -12 10 -40 10 -39 0 -46 3 -43 17 2 10 12 18 23 19
54 2 65 5 65 14 0 6 -18 10 -40 10 -29 0 -40 4 -40 15 0 8 -8 16 -17 16 -34 2
42 17 95 18 48 1 66 -9 42 -24 -5 -3 -10 -11 -10 -17 0 -10 104 -3 122 8 18
11 6 32 -32 53 -33 18 -50 21 -95 17 -30 -3 -80 -9 -110 -12 -53 -5 -55 -5
-55 19 0 14 -6 29 -13 35 -17 14 -67 26 -67 16z m90 -193 c0 -16 -9 -20 -50
-23 -42 -2 -50 0 -50 14 0 11 10 18 28 21 61 9 72 7 72 -12z m0 -56 c0 -11
-12 -15 -50 -15 -46 0 -60 7 -43 23 3 4 26 7 50 7 32 0 43 -4 43 -15z m13 -47
c15 -7 27 -16 27 -19 0 -7 -117 -29 -156 -29 -26 0 -27 1 -8 14 10 8 20 19 20
25 1 6 2 13 3 16 2 10 88 5 114 -7z m27 -67 c0 -15 -10 -19 -52 -25 -29 -3
-70 -6 -91 -6 -34 0 -37 2 -27 19 7 15 23 21 58 24 109 8 112 8 112 -12z m-2
-58 c-4 -24 -178 -34 -178 -10 0 16 25 20 138 25 36 2 43 -1 40 -15z m2 -53
c0 -17 -7 -20 -52 -20 -29 0 -70 -3 -90 -6 -34 -6 -38 -4 -38 14 0 18 7 21 53
25 126 8 127 8 127 -13z"/>
<path d="M504 71 c30 -33 94 -73 105 -66 20 12 -9 46 -56 66 -57 24 -71 24
-49 0z"/>
</g>
</svg>
