<?xml version="1.0" standalone="no"?>
<!DOCTYPE svg PUBLIC "-//W3C//DTD SVG 20010904//EN"
 "http://www.w3.org/TR/2001/REC-SVG-20010904/DTD/svg10.dtd">
<svg version="1.0" xmlns="http://www.w3.org/2000/svg"
 width="96.000000pt" height="68.000000pt" viewBox="0 0 96.000000 68.000000"
 preserveAspectRatio="xMidYMid meet">
<metadata>
Created by potrace 1.16, written by Peter Selinger 2001-2019
</metadata>
<g transform="translate(0.000000,68.000000) scale(0.100000,-0.100000)"
fill="#000000" stroke="none">
<path d="M410 615 c0 -18 33 -65 46 -65 23 0 28 29 9 50 -16 18 -55 28 -55 15z"/>
<path d="M421 542 c-123 -11 -169 -12 -183 -3 -15 9 -20 5 -38 -29 -25 -49
-25 -70 -2 -70 11 0 25 14 35 35 16 33 20 35 64 35 27 0 119 7 206 15 87 9
163 13 168 9 6 -4 4 -15 -6 -30 -15 -24 -15 -24 7 -20 13 3 40 8 61 11 45 7
49 28 7 50 -35 18 -95 18 -319 -3z"/>
</g>
</svg>
