<?xml version="1.0" standalone="no"?>
<!DOCTYPE svg PUBLIC "-//W3C//DTD SVG 20010904//EN"
 "http://www.w3.org/TR/2001/REC-SVG-20010904/DTD/svg10.dtd">
<svg version="1.0" xmlns="http://www.w3.org/2000/svg"
 width="90.000000pt" height="92.000000pt" viewBox="0 0 90.000000 92.000000"
 preserveAspectRatio="xMidYMid meet">
<metadata>
Created by potrace 1.16, written by Peter Selinger 2001-2019
</metadata>
<g transform="translate(0.000000,92.000000) scale(0.100000,-0.100000)"
fill="#000000" stroke="none">
<path d="M442 848 c-10 -24 -36 -59 -56 -79 -34 -32 -37 -39 -26 -59 7 -14 17
-19 28 -15 8 3 55 18 104 32 76 23 91 25 112 14 29 -16 46 -8 46 23 0 27 -12
39 -59 55 -41 13 -46 10 -31 -19 6 -12 10 -23 8 -25 -2 -1 -32 -6 -68 -10
l-65 -7 38 41 c42 47 44 52 19 74 -26 24 -29 22 -50 -25z"/>
<path d="M130 796 c0 -18 73 -86 92 -86 45 0 33 64 -14 78 -62 19 -78 20 -78
8z"/>
<path d="M607 693 c-6 -25 -20 -51 -59 -105 -15 -21 2 -56 24 -49 7 2 39 13
71 24 l58 19 23 -21 c31 -29 46 -26 46 9 0 30 -28 65 -63 76 -25 8 -31 0 -17
-25 10 -20 8 -21 -30 -21 l-41 0 23 39 c22 39 22 40 4 60 -25 28 -32 26 -39
-6z"/>
<path d="M311 651 c-6 -22 -27 -58 -46 -81 -29 -35 -33 -45 -24 -62 7 -13 16
-17 27 -13 83 34 126 44 139 33 18 -14 36 2 31 28 -3 18 -65 61 -74 51 -3 -3
-1 -14 5 -25 11 -22 -1 -32 -40 -32 -17 0 -16 5 12 50 30 49 31 52 14 70 -25
28 -30 25 -44 -19z"/>
<path d="M50 602 c0 -5 20 -28 45 -51 50 -46 75 -46 75 0 0 22 -6 32 -24 39
-42 16 -96 23 -96 12z"/>
<path d="M467 583 c-4 -3 -7 -15 -7 -26 0 -43 -129 -177 -236 -244 -16 -10
-14 -11 12 -4 70 19 148 73 223 153 51 56 45 58 162 -43 101 -87 114 -92 186
-76 52 11 86 37 48 37 -68 0 -326 130 -331 167 -2 10 -11 23 -20 30 -20 15
-28 16 -37 6z"/>
<path d="M480 430 c-11 -27 -60 -78 -114 -118 -16 -12 -23 -22 -17 -22 21 0
86 37 130 74 24 20 50 40 59 45 13 7 14 12 4 24 -24 28 -50 27 -62 -3z"/>
<path d="M164 368 c-21 -35 -60 -85 -88 -111 l-49 -49 19 -45 c30 -71 29 -72
95 77 63 144 80 190 70 190 -4 0 -25 -28 -47 -62z"/>
<path d="M536 345 c-7 -26 -76 -86 -159 -138 -26 -17 -45 -32 -43 -35 8 -8
117 47 189 95 39 27 75 51 81 55 14 9 -10 33 -40 42 -17 5 -23 2 -28 -19z"/>
<path d="M595 261 c-13 -42 -128 -133 -268 -213 -49 -28 -50 -29 -18 -24 19 4
64 20 100 37 72 34 281 169 281 181 0 10 -55 38 -74 38 -8 0 -17 -9 -21 -19z"/>
</g>
</svg>
