<?xml version="1.0" standalone="no"?>
<!DOCTYPE svg PUBLIC "-//W3C//DTD SVG 20010904//EN"
 "http://www.w3.org/TR/2001/REC-SVG-20010904/DTD/svg10.dtd">
<svg version="1.0" xmlns="http://www.w3.org/2000/svg"
 width="90.000000pt" height="92.000000pt" viewBox="0 0 90.000000 92.000000"
 preserveAspectRatio="xMidYMid meet">
<metadata>
Created by potrace 1.16, written by Peter Selinger 2001-2019
</metadata>
<g transform="translate(0.000000,92.000000) scale(0.100000,-0.100000)"
fill="#000000" stroke="none">
<path d="M175 808 c4 -13 9 -64 12 -114 6 -103 13 -95 -89 -109 -27 -4 -48
-11 -48 -16 0 -14 48 -22 98 -16 l47 6 -3 -66 -4 -65 -71 -34 c-39 -19 -79
-34 -89 -34 -24 0 -23 -12 5 -38 32 -30 42 -28 104 18 l53 41 0 -34 c0 -19 -3
-61 -6 -95 l-7 -61 -37 -3 -38 -3 48 -54 48 -54 18 29 c17 25 19 45 16 165
l-3 136 50 32 c90 58 92 83 4 36 -26 -13 -48 -23 -49 -22 -2 2 0 28 3 59 l6
56 41 6 c54 8 75 21 59 37 -13 13 -50 16 -80 5 -21 -7 -23 -4 -23 26 0 30 8
68 25 125 6 18 1 26 -26 42 -47 29 -74 28 -64 -1z"/>
<path d="M470 662 c0 -5 11 -14 25 -20 32 -15 43 -38 105 -226 68 -207 75
-215 193 -223 100 -7 112 3 43 38 -95 47 -165 141 -242 322 -28 66 -45 92 -65
103 -31 16 -59 18 -59 6z"/>
<path d="M393 500 c13 -48 -50 -206 -106 -267 -28 -31 -18 -37 19 -11 45 32
78 80 119 173 42 93 40 104 -14 120 -21 6 -23 5 -18 -15z"/>
</g>
</svg>
