<?xml version="1.0" standalone="no"?>
<!DOCTYPE svg PUBLIC "-//W3C//DTD SVG 20010904//EN"
 "http://www.w3.org/TR/2001/REC-SVG-20010904/DTD/svg10.dtd">
<svg version="1.0" xmlns="http://www.w3.org/2000/svg"
 width="90.000000pt" height="92.000000pt" viewBox="0 0 90.000000 92.000000"
 preserveAspectRatio="xMidYMid meet">
<metadata>
Created by potrace 1.16, written by Peter Selinger 2001-2019
</metadata>
<g transform="translate(0.000000,92.000000) scale(0.100000,-0.100000)"
fill="#000000" stroke="none">
<path d="M468 538 c4 -332 9 -360 73 -390 74 -35 217 -30 292 9 32 16 33 18 4
148 -14 62 -19 60 -31 -16 -9 -53 -44 -86 -100 -94 -60 -9 -129 1 -158 24 -25
21 -35 87 -30 209 2 59 6 73 17 68 14 -5 178 18 209 30 23 9 20 29 -8 42 -19
8 -42 6 -112 -14 -49 -13 -92 -24 -95 -24 -8 0 -2 94 12 195 9 66 9 71 -12 88
-11 9 -31 17 -43 17 l-21 0 3 -292z"/>
<path d="M225 740 c-4 -6 -2 -16 3 -23 11 -12 29 -467 20 -467 -3 0 -22 -7
-42 -15 l-37 -16 1 123 c1 68 1 128 1 135 -1 12 -68 30 -77 20 -3 -3 -1 -14 4
-24 5 -10 13 -75 16 -145 l7 -127 -35 -7 c-20 -3 -36 -10 -36 -14 0 -10 59
-60 71 -60 5 0 32 15 61 34 29 18 92 57 140 85 119 70 136 97 36 56 l-58 -24
0 99 c0 109 -5 102 77 115 47 7 63 22 42 36 -13 9 -29 7 -95 -8 -21 -5 -21 -3
-17 106 l5 111 -26 10 c-35 13 -53 13 -61 0z"/>
</g>
</svg>
