<?xml version="1.0" standalone="no"?>
<!DOCTYPE svg PUBLIC "-//W3C//DTD SVG 20010904//EN"
 "http://www.w3.org/TR/2001/REC-SVG-20010904/DTD/svg10.dtd">
<svg version="1.0" xmlns="http://www.w3.org/2000/svg"
 width="96.000000pt" height="68.000000pt" viewBox="0 0 96.000000 68.000000"
 preserveAspectRatio="xMidYMid meet">
<metadata>
Created by potrace 1.16, written by Peter Selinger 2001-2019
</metadata>
<g transform="translate(0.000000,68.000000) scale(0.100000,-0.100000)"
fill="#000000" stroke="none">
<path d="M380 626 c0 -37 -74 -156 -136 -218 -37 -38 -64 -71 -60 -75 10 -11
73 26 129 76 39 36 58 46 92 49 49 4 50 3 60 -93 5 -54 -5 -191 -21 -271 -3
-19 0 -36 10 -49 15 -19 17 -19 30 -2 8 10 17 55 21 101 l7 83 106 7 c59 4
108 9 110 11 2 2 1 9 -3 16 -7 11 -75 8 -177 -8 l-38 -6 0 45 0 45 101 7 c105
6 123 11 114 27 -8 12 -79 12 -146 -1 -29 -6 -56 -7 -60 -3 -4 5 -9 30 -11 58
l-3 50 120 13 c128 15 155 25 111 42 -28 10 -123 0 -191 -21 -16 -5 -43 -11
-60 -13 -16 -2 -48 -7 -70 -11 l-39 -8 18 29 c10 16 30 44 44 63 l25 34 -24
18 c-28 22 -59 25 -59 5z"/>
</g>
</svg>
