<?xml version="1.0" standalone="no"?>
<!DOCTYPE svg PUBLIC "-//W3C//DTD SVG 20010904//EN"
 "http://www.w3.org/TR/2001/REC-SVG-20010904/DTD/svg10.dtd">
<svg version="1.0" xmlns="http://www.w3.org/2000/svg"
 width="90.000000pt" height="92.000000pt" viewBox="0 0 90.000000 92.000000"
 preserveAspectRatio="xMidYMid meet">
<metadata>
Created by potrace 1.16, written by Peter Selinger 2001-2019
</metadata>
<g transform="translate(0.000000,92.000000) scale(0.100000,-0.100000)"
fill="#000000" stroke="none">
<path d="M210 868 c-1 -2 -2 -38 -3 -80 -1 -42 -7 -82 -13 -88 -6 -6 -46 -12
-90 -14 -43 -2 -81 -5 -83 -5 -7 -2 33 -42 50 -51 9 -6 32 -3 59 6 23 8 45 13
47 10 2 -2 -3 -18 -12 -36 -9 -18 -15 -33 -13 -34 2 -1 23 -11 48 -22 l44 -21
-42 -28 c-23 -15 -70 -38 -104 -51 l-63 -23 47 0 c53 -1 133 26 174 58 l26 21
38 -30 c23 -18 44 -28 54 -24 19 7 21 -18 5 -63 -9 -27 -16 -31 -62 -37 -29
-3 -67 -6 -84 -6 -39 0 -42 -12 -8 -30 20 -11 35 -11 77 -2 28 7 52 11 54 9 2
-1 -7 -22 -19 -46 -30 -60 -95 -130 -163 -177 -67 -46 -51 -58 27 -18 69 35
156 124 197 201 l32 61 65 7 c91 10 98 6 91 -53 -8 -67 -33 -147 -51 -162 -14
-11 -34 -10 -89 7 -15 4 -10 -5 17 -38 20 -23 37 -46 37 -51 0 -4 11 -8 24 -8
33 0 73 50 89 113 32 121 48 183 50 196 1 8 -12 23 -29 33 -29 17 -36 17 -95
3 -35 -8 -72 -15 -82 -15 -17 0 -17 2 -1 32 16 31 16 32 -10 55 -15 13 -35 23
-45 23 -10 0 -26 9 -36 20 -10 11 -26 22 -36 25 -16 6 -16 8 6 41 13 19 31 55
41 79 9 25 25 47 35 50 21 7 26 25 7 25 -7 0 -24 9 -38 20 -33 26 -40 25 -40
-4 0 -25 -16 -36 -56 -36 -29 0 -30 12 -4 69 11 23 17 48 14 53 -9 14 -83 45
-84 36z m120 -196 c0 -10 -13 -39 -29 -64 -29 -46 -30 -46 -65 -36 -41 13 -41
12 -17 58 15 27 29 37 62 46 24 7 45 12 47 13 1 1 2 -7 2 -17z"/>
<path d="M617 790 c-26 -11 -69 -25 -95 -31 -26 -7 -48 -13 -50 -14 -2 -2 25
-30 59 -64 l63 -61 -33 -34 c-18 -18 -58 -46 -89 -62 -34 -17 -50 -30 -40 -32
30 -6 95 18 144 51 l47 33 40 -43 c22 -24 50 -46 63 -49 25 -6 134 13 134 24
0 4 -34 20 -75 36 -41 15 -87 38 -104 50 l-29 22 33 58 c18 31 37 62 44 69 20
20 12 38 -24 53 -19 7 -36 14 -37 13 -2 0 -24 -9 -51 -19z m43 -45 c0 -17 -37
-95 -45 -95 -3 0 -23 17 -46 37 l-41 37 59 17 c75 22 73 21 73 4z"/>
</g>
</svg>
