<?xml version="1.0" standalone="no"?>
<!DOCTYPE svg PUBLIC "-//W3C//DTD SVG 20010904//EN"
 "http://www.w3.org/TR/2001/REC-SVG-20010904/DTD/svg10.dtd">
<svg version="1.0" xmlns="http://www.w3.org/2000/svg"
 width="96.000000pt" height="68.000000pt" viewBox="0 0 96.000000 68.000000"
 preserveAspectRatio="xMidYMid meet">
<metadata>
Created by potrace 1.16, written by Peter Selinger 2001-2019
</metadata>
<g transform="translate(0.000000,68.000000) scale(0.100000,-0.100000)"
fill="#000000" stroke="none">
<path d="M570 556 l-84 -22 35 -21 c19 -12 45 -33 57 -46 l23 -25 -33 -20
c-18 -11 -51 -29 -73 -41 -31 -16 -35 -21 -18 -21 31 0 115 29 134 46 14 13
21 10 60 -22 40 -33 47 -36 88 -30 24 3 50 6 57 6 25 0 14 17 -14 23 -42 8
-142 54 -142 65 0 5 16 31 37 57 34 46 35 49 18 61 -24 18 -42 17 -145 -10z
m90 -19 c0 -10 -14 -36 -36 -65 -1 -2 -21 9 -44 24 l-43 28 49 12 c67 16 74
16 74 1z"/>
</g>
</svg>
