<?xml version="1.0" standalone="no"?>
<!DOCTYPE svg PUBLIC "-//W3C//DTD SVG 20010904//EN"
 "http://www.w3.org/TR/2001/REC-SVG-20010904/DTD/svg10.dtd">
<svg version="1.0" xmlns="http://www.w3.org/2000/svg"
 width="90.000000pt" height="92.000000pt" viewBox="0 0 90.000000 92.000000"
 preserveAspectRatio="xMidYMid meet">
<metadata>
Created by potrace 1.16, written by Peter Selinger 2001-2019
</metadata>
<g transform="translate(0.000000,92.000000) scale(0.100000,-0.100000)"
fill="#000000" stroke="none">
<path d="M455 855 c-38 -7 -96 -16 -128 -20 -49 -5 -56 -9 -46 -21 7 -9 31
-14 65 -14 49 0 54 -2 60 -25 12 -47 3 -52 -113 -58 -100 -5 -109 -4 -122 14
-13 19 -16 15 -44 -52 -22 -53 -27 -76 -20 -88 16 -26 26 -19 54 36 15 29 29
50 31 47 3 -2 51 2 106 11 56 8 105 15 108 15 4 0 4 -42 0 -92 -7 -103 3 -138
29 -104 11 14 15 46 15 111 l0 92 77 7 c97 8 173 8 173 0 0 -4 -10 -23 -22
-42 l-22 -35 25 7 c13 3 45 12 72 18 58 14 62 36 12 74 l-36 27 -102 -12 c-56
-7 -119 -15 -139 -18 l-38 -6 3 41 2 40 54 7 c30 4 63 10 74 14 20 7 19 8 -4
24 -26 19 -27 19 -124 2z"/>
<path d="M550 682 c0 -5 -14 -23 -31 -40 -34 -35 -26 -40 32 -21 19 6 40 13
48 15 11 3 8 10 -9 29 -24 25 -40 32 -40 17z"/>
<path d="M245 640 c-5 -9 63 -50 85 -50 15 0 12 26 -6 44 -17 18 -69 22 -79 6z"/>
<path d="M505 571 c-6 -11 37 -47 67 -57 45 -14 46 40 1 57 -31 12 -60 12 -68
0z"/>
<path d="M285 552 c-33 -9 -62 -17 -64 -19 -7 -5 31 -43 43 -43 11 0 86 67 86
76 0 2 -1 3 -2 3 -2 -1 -30 -9 -63 -17z"/>
<path d="M585 464 c-33 -7 -81 -13 -107 -14 -48 0 -57 -7 -37 -27 12 -12 14
-159 4 -263 -4 -41 -2 -60 10 -75 13 -16 17 -17 24 -6 6 9 38 15 99 19 85 4
90 4 97 -17 3 -11 12 -21 20 -21 24 0 38 68 33 159 -3 47 -2 115 2 151 7 61 6
66 -17 88 -27 25 -43 26 -128 6z m79 -40 c3 -9 6 -26 6 -38 0 -19 -8 -23 -78
-34 -106 -17 -102 -18 -102 27 l0 39 58 10 c87 14 109 14 116 -4z m6 -136 c0
-31 -2 -33 -37 -34 -21 0 -62 -4 -90 -8 l-53 -9 0 31 c0 27 4 32 33 36 69 12
83 13 115 15 30 1 32 -1 32 -31z m2 -103 c2 -19 2 -39 -1 -43 -4 -4 -47 -7
-96 -8 l-90 0 3 37 c4 38 4 38 56 42 132 9 123 11 128 -28z"/>
<path d="M255 427 l7 -43 -91 -13 c-50 -7 -91 -17 -91 -22 0 -23 50 -33 102
-21 28 7 53 11 55 8 6 -6 -71 -99 -130 -154 -31 -28 -54 -52 -51 -52 22 0 116
61 157 102 l50 50 -8 -63 c-12 -89 -11 -137 2 -150 19 -19 33 24 40 126 3 52
8 95 11 95 3 0 21 -18 39 -40 38 -44 53 -44 53 0 0 25 -7 32 -50 52 -66 30
-63 50 9 61 61 8 69 13 54 28 -6 6 -34 9 -63 8 -49 -4 -51 -3 -47 19 3 15 -3
28 -17 37 -32 23 -38 18 -31 -28z"/>
</g>
</svg>
