<?xml version="1.0" standalone="no"?>
<!DOCTYPE svg PUBLIC "-//W3C//DTD SVG 20010904//EN"
 "http://www.w3.org/TR/2001/REC-SVG-20010904/DTD/svg10.dtd">
<svg version="1.0" xmlns="http://www.w3.org/2000/svg"
 width="90.000000pt" height="92.000000pt" viewBox="0 0 90.000000 92.000000"
 preserveAspectRatio="xMidYMid meet">
<metadata>
Created by potrace 1.16, written by Peter Selinger 2001-2019
</metadata>
<g transform="translate(0.000000,92.000000) scale(0.100000,-0.100000)"
fill="#000000" stroke="none">
<path d="M565 818 c-38 -10 -100 -20 -137 -21 -70 -2 -78 -6 -54 -26 8 -7 20
-44 26 -84 7 -40 17 -80 22 -90 8 -16 11 -17 21 -4 15 18 172 33 182 17 17
-28 36 -5 60 72 14 45 30 87 35 93 5 6 6 16 2 21 -8 13 -67 45 -79 43 -4 -1
-39 -10 -78 -21z m80 -38 c15 -24 -5 -46 -43 -46 -20 -1 -67 -4 -104 -9 -68
-8 -68 -8 -68 17 0 23 5 26 68 35 93 14 140 15 147 3z m-12 -105 l-5 -30 -91
0 c-86 0 -92 1 -95 21 -3 20 4 22 95 30 54 5 99 9 99 9 1 0 0 -13 -3 -30z"/>
<path d="M190 720 c-41 -10 -92 -19 -113 -19 -57 -1 -42 -25 19 -29 27 -2 52
-6 56 -10 3 -4 9 -39 13 -79 l7 -72 -51 -7 c-84 -11 -84 -38 -1 -36 l50 1 0
-84 0 -83 -80 -27 c-44 -15 -80 -30 -80 -35 0 -9 49 -50 60 -50 9 0 250 146
264 160 16 16 -7 12 -66 -10 -28 -11 -53 -18 -55 -16 -2 2 0 39 4 82 l8 78 44
8 c24 4 46 10 50 13 10 11 -24 25 -62 25 l-37 0 2 75 3 75 35 6 c19 4 46 11
59 16 19 7 21 11 11 23 -15 19 -44 17 -140 -5z"/>
<path d="M486 588 c4 -7 15 -25 26 -39 l18 -27 -33 -6 c-17 -3 -62 -8 -99 -12
-38 -4 -68 -11 -68 -16 0 -19 45 -23 123 -11 45 7 134 15 197 18 141 7 180 13
180 26 0 5 -15 16 -32 23 -28 11 -46 11 -108 0 -105 -19 -120 -18 -120 5 0 11
-10 27 -22 35 -28 20 -73 22 -62 4z"/>
<path d="M561 444 c-35 -8 -89 -16 -120 -18 -71 -5 -69 -5 -52 -15 7 -5 21
-37 30 -72 16 -58 41 -92 41 -55 0 10 9 14 28 13 26 -2 27 -5 32 -72 8 -102 6
-108 -43 -101 l-40 7 44 -40 c24 -22 47 -40 51 -41 4 0 14 10 22 23 15 24 26
193 14 213 -8 12 32 24 79 24 17 0 23 4 20 14 -3 7 6 33 20 57 l24 44 -21 17
c-26 21 -42 21 -129 2z m73 -51 c-4 -16 -13 -33 -21 -40 -16 -12 -140 -29
-149 -20 -3 3 -8 19 -10 35 -5 28 -3 30 43 40 26 5 69 10 96 11 47 1 47 1 41
-26z"/>
<path d="M650 253 c0 -17 119 -135 132 -131 20 7 22 57 2 79 -9 10 -41 28 -71
39 -60 22 -63 23 -63 13z"/>
<path d="M364 228 c-3 -13 -22 -44 -40 -70 -19 -27 -30 -48 -25 -48 12 0 82
53 111 84 24 27 25 28 6 42 -28 20 -44 17 -52 -8z"/>
</g>
</svg>
