<?xml version="1.0" standalone="no"?>
<!DOCTYPE svg PUBLIC "-//W3C//DTD SVG 20010904//EN"
 "http://www.w3.org/TR/2001/REC-SVG-20010904/DTD/svg10.dtd">
<svg version="1.0" xmlns="http://www.w3.org/2000/svg"
 width="96.000000pt" height="68.000000pt" viewBox="0 0 96.000000 68.000000"
 preserveAspectRatio="xMidYMid meet">
<metadata>
Created by potrace 1.16, written by Peter Selinger 2001-2019
</metadata>
<g transform="translate(0.000000,68.000000) scale(0.100000,-0.100000)"
fill="#000000" stroke="none">
<path d="M604 209 c-3 -5 4 -9 16 -9 19 0 21 -5 18 -45 -3 -25 -9 -50 -15 -56
-5 -5 -42 -12 -81 -14 l-71 -4 -6 32 c-4 18 -12 38 -18 45 -15 18 1 30 48 35
27 3 20 4 -21 4 -60 0 -61 0 -50 -24 6 -12 14 -23 18 -23 3 0 6 -16 6 -36 0
-47 9 -55 57 -45 22 4 58 7 80 7 24 -1 45 5 53 14 8 8 11 9 7 3 -3 -7 0 -13 7
-13 8 0 15 11 16 24 1 13 12 41 24 62 l22 37 -34 -5 c-27 -4 -30 -3 -17 7 13
9 10 11 -19 12 -19 1 -37 -3 -40 -8z"/>
</g>
</svg>
