<?xml version="1.0" standalone="no"?>
<!DOCTYPE svg PUBLIC "-//W3C//DTD SVG 20010904//EN"
 "http://www.w3.org/TR/2001/REC-SVG-20010904/DTD/svg10.dtd">
<svg version="1.0" xmlns="http://www.w3.org/2000/svg"
 width="96.000000pt" height="68.000000pt" viewBox="0 0 96.000000 68.000000"
 preserveAspectRatio="xMidYMid meet">
<metadata>
Created by potrace 1.16, written by Peter Selinger 2001-2019
</metadata>
<g transform="translate(0.000000,68.000000) scale(0.100000,-0.100000)"
fill="#000000" stroke="none">
<path d="M253 543 c-25 -77 -66 -131 -120 -161 -25 -14 2 -56 30 -48 12 4 37
10 56 13 l34 6 -34 -35 c-19 -19 -46 -42 -61 -52 -64 -42 -17 -53 85 -21 55
18 84 22 91 15 16 -16 26 -12 26 11 0 25 -26 48 -54 49 -16 0 -17 -3 -8 -12
19 -19 14 -25 -32 -37 -78 -19 -81 -14 -25 37 141 127 134 119 120 136 -20 23
-28 20 -46 -18 -14 -29 -23 -35 -62 -41 -24 -3 -47 -4 -50 -2 -3 3 23 34 56
69 33 35 61 68 61 75 0 13 -30 33 -50 33 -6 0 -13 -8 -17 -17z"/>
<path d="M497 553 c-2 -5 -10 -25 -17 -46 -10 -32 -37 -74 -93 -144 -17 -22
10 -15 41 11 27 23 30 24 58 10 16 -8 33 -19 38 -24 13 -13 -18 -46 -88 -92
-33 -21 -52 -38 -44 -38 17 0 133 63 158 85 13 12 24 7 74 -31 54 -40 64 -44
115 -43 31 0 65 4 76 9 23 9 20 10 -60 31 -52 13 -165 60 -165 69 0 3 23 30
50 59 55 60 56 63 36 80 -17 15 -37 15 -96 2 -49 -10 -60 -7 -42 11 16 16 15
23 -4 42 -17 17 -30 20 -37 9z m113 -96 c0 -13 -24 -52 -46 -75 -10 -10 -20
-9 -48 5 -38 18 -43 30 -23 55 18 24 117 37 117 15z"/>
<path d="M575 214 c-49 -7 -109 -13 -133 -13 -42 -1 -42 -1 -28 -23 8 -13 20
-44 27 -71 11 -47 29 -71 37 -49 2 8 36 12 103 12 98 0 99 0 94 23 -4 15 3 35
19 60 15 21 26 40 26 42 0 3 -12 10 -27 18 -23 10 -45 11 -118 1z m57 -60 c-2
-21 -8 -43 -13 -49 -6 -5 -40 -10 -76 -10 l-66 0 -13 39 c-8 22 -13 41 -11 42
4 5 160 22 172 19 6 -1 9 -20 7 -41z"/>
<path d="M300 210 c0 -16 40 -51 50 -45 18 11 10 32 -15 43 -32 15 -35 15 -35
2z"/>
<path d="M210 182 c0 -14 51 -62 61 -57 14 9 11 23 -11 45 -20 20 -50 27 -50
12z"/>
<path d="M110 152 c0 -17 52 -82 65 -82 25 0 17 47 -11 69 -27 21 -54 28 -54
13z"/>
</g>
</svg>
