<?xml version="1.0" standalone="no"?>
<!DOCTYPE svg PUBLIC "-//W3C//DTD SVG 20010904//EN"
 "http://www.w3.org/TR/2001/REC-SVG-20010904/DTD/svg10.dtd">
<svg version="1.0" xmlns="http://www.w3.org/2000/svg"
 width="96.000000pt" height="68.000000pt" viewBox="0 0 96.000000 68.000000"
 preserveAspectRatio="xMidYMid meet">
<metadata>
Created by potrace 1.16, written by Peter Selinger 2001-2019
</metadata>
<g transform="translate(0.000000,68.000000) scale(0.100000,-0.100000)"
fill="#000000" stroke="none">
<path d="M649 539 c-13 -12 -43 -34 -66 -50 -36 -25 -48 -28 -83 -23 -32 5
-40 4 -40 -9 0 -9 5 -19 11 -23 29 -17 -16 -225 -61 -286 -11 -16 -17 -28 -12
-28 14 0 70 57 86 88 21 40 46 143 46 188 l0 39 101 39 c55 22 103 44 106 49
7 12 -25 37 -47 37 -9 0 -28 -9 -41 -21z"/>
</g>
</svg>
