<?xml version="1.0" standalone="no"?>
<!DOCTYPE svg PUBLIC "-//W3C//DTD SVG 20010904//EN"
 "http://www.w3.org/TR/2001/REC-SVG-20010904/DTD/svg10.dtd">
<svg version="1.0" xmlns="http://www.w3.org/2000/svg"
 width="96.000000pt" height="68.000000pt" viewBox="0 0 96.000000 68.000000"
 preserveAspectRatio="xMidYMid meet">
<metadata>
Created by potrace 1.16, written by Peter Selinger 2001-2019
</metadata>
<g transform="translate(0.000000,68.000000) scale(0.100000,-0.100000)"
fill="#000000" stroke="none">
<path d="M271 550 c-22 -59 -90 -156 -117 -167 -18 -7 -18 -37 0 -52 11 -9 31
-7 87 9 40 11 75 18 77 15 2 -2 -32 -41 -77 -86 -44 -45 -81 -85 -81 -88 0 -4
11 -13 24 -20 19 -11 28 -10 52 2 16 8 62 25 102 37 l72 22 18 -23 c22 -26 42
-18 42 16 0 25 -60 85 -86 85 -12 0 -12 -4 2 -26 21 -32 14 -38 -61 -57 -86
-21 -93 -13 -43 42 24 26 66 73 93 106 28 32 56 64 63 71 15 16 15 37 0 52
-21 21 -35 13 -52 -29 -21 -52 -41 -73 -66 -66 -10 3 -20 2 -22 -3 -3 -7 -78
-22 -78 -16 0 2 32 45 70 95 39 51 70 95 70 100 0 13 -35 41 -52 41 -10 0 -23
-22 -37 -60z"/>
<path d="M717 474 c-2 -3 -55 -11 -118 -20 -62 -8 -115 -16 -117 -19 -12 -11
53 -16 98 -6 28 6 74 11 102 11 l51 0 -7 -70 c-7 -78 -40 -185 -65 -214 -12
-14 -26 -17 -58 -13 -24 2 -43 3 -43 1 0 -1 15 -19 33 -39 29 -32 36 -35 59
-26 48 18 76 70 103 192 15 63 30 122 36 131 19 37 11 55 -31 66 -21 5 -41 8
-43 6z"/>
</g>
</svg>
