<?xml version="1.0" standalone="no"?>
<!DOCTYPE svg PUBLIC "-//W3C//DTD SVG 20010904//EN"
 "http://www.w3.org/TR/2001/REC-SVG-20010904/DTD/svg10.dtd">
<svg version="1.0" xmlns="http://www.w3.org/2000/svg"
 width="90.000000pt" height="92.000000pt" viewBox="0 0 90.000000 92.000000"
 preserveAspectRatio="xMidYMid meet">
<metadata>
Created by potrace 1.16, written by Peter Selinger 2001-2019
</metadata>
<g transform="translate(0.000000,92.000000) scale(0.100000,-0.100000)"
fill="#000000" stroke="none">
<path d="M585 785 c0 -81 -8 -95 -54 -95 -23 0 -24 2 -18 49 6 47 5 50 -23 59
-35 13 -40 8 -35 -29 3 -16 7 -43 10 -60 l5 -31 -65 4 c-67 4 -77 -2 -49 -33
8 -9 20 -48 26 -87 12 -85 19 -97 44 -84 11 6 68 15 128 21 93 9 110 9 120 -4
17 -23 32 -6 71 85 20 47 39 90 41 96 3 7 -14 21 -38 33 -36 17 -50 19 -78 11
-18 -5 -35 -9 -36 -7 -1 1 3 26 9 56 10 51 9 55 -12 73 -40 31 -46 24 -46 -57z
m115 -136 c0 -28 -3 -31 -22 -25 -13 3 -31 6 -40 6 -11 0 -18 8 -18 18 0 26 9
32 47 32 30 0 33 -3 33 -31z m-120 -4 c0 -14 -6 -25 -12 -25 -7 0 -23 -3 -35
-6 -20 -5 -23 -2 -23 19 0 25 12 33 53 36 12 1 17 -6 17 -24z m-110 -9 c0 -16
-7 -27 -21 -31 -21 -7 -39 7 -39 32 0 10 9 14 53 22 4 0 7 -10 7 -23z m220
-45 c0 -5 -4 -21 -9 -34 -8 -20 -15 -23 -40 -19 -24 3 -31 9 -31 27 0 23 6 26
68 34 6 0 12 -3 12 -8z m-120 -31 c0 -27 -3 -30 -30 -30 -25 0 -30 4 -30 24 0
19 6 26 28 29 15 2 28 5 30 6 1 0 2 -12 2 -29z m-100 -10 c0 -23 -4 -30 -20
-30 -11 0 -20 6 -20 14 0 8 -3 21 -6 30 -5 12 0 16 20 16 22 0 26 -4 26 -30z"/>
<path d="M208 770 c43 -43 55 -50 67 -40 39 33 -1 78 -77 87 l-43 5 53 -52z"/>
<path d="M223 639 c-24 -11 -76 -25 -118 -32 -41 -6 -75 -14 -75 -18 0 -3 11
-12 25 -19 23 -12 35 -11 111 14 47 15 88 26 90 23 13 -13 -155 -240 -224
-301 -18 -16 -31 -31 -28 -33 9 -10 73 33 128 85 l58 55 0 -88 c0 -48 -5 -115
-11 -149 -10 -54 -9 -66 6 -95 29 -58 39 -25 46 152 3 89 7 164 8 167 0 2 19
-13 40 -34 42 -41 71 -43 71 -7 0 24 -28 43 -85 61 -22 7 -43 15 -47 17 -10 5
61 110 96 142 33 31 33 43 -3 64 -35 20 -35 20 -88 -4z"/>
<path d="M508 447 c-108 -21 -129 -31 -84 -43 28 -7 244 24 251 37 16 25 -52
27 -167 6z"/>
<path d="M540 374 c-41 -7 -97 -13 -124 -13 -46 -1 -48 -2 -34 -18 8 -10 19
-31 22 -48 4 -16 21 -58 38 -93 16 -35 27 -66 24 -69 -3 -4 -42 -8 -86 -11
-83 -5 -98 -14 -55 -34 20 -9 47 -9 114 0 49 7 149 12 224 12 74 0 142 3 151
6 26 10 19 24 -19 40 -28 11 -48 12 -98 4 -90 -14 -89 -14 -55 36 30 45 31 47
13 60 -18 13 -18 14 5 14 18 0 21 3 12 12 -8 8 -4 20 19 49 l30 38 -23 15
c-26 18 -54 18 -158 0z m95 -24 c3 -5 3 -20 0 -33 -6 -23 -13 -25 -93 -34 -92
-10 -104 -6 -100 32 3 17 15 22 88 31 47 6 88 12 92 13 4 0 9 -3 13 -9z m-30
-137 c-9 -51 -22 -73 -43 -73 -9 0 -28 -3 -41 -7 -22 -6 -23 -4 -17 21 5 22 1
33 -22 56 -28 28 -29 29 -8 33 11 2 47 5 80 6 l58 1 -7 -37z"/>
</g>
</svg>
