<?xml version="1.0" standalone="no"?>
<!DOCTYPE svg PUBLIC "-//W3C//DTD SVG 20010904//EN"
 "http://www.w3.org/TR/2001/REC-SVG-20010904/DTD/svg10.dtd">
<svg version="1.0" xmlns="http://www.w3.org/2000/svg"
 width="96.000000pt" height="68.000000pt" viewBox="0 0 96.000000 68.000000"
 preserveAspectRatio="xMidYMid meet">
<metadata>
Created by potrace 1.16, written by Peter Selinger 2001-2019
</metadata>
<g transform="translate(0.000000,68.000000) scale(0.100000,-0.100000)"
fill="#000000" stroke="none">
<path d="M405 346 c-38 -6 -65 -14 -59 -18 6 -4 14 -21 18 -39 4 -23 10 -29
23 -25 10 2 46 8 81 11 34 4 62 12 62 18 0 6 8 19 17 29 15 17 15 20 3 28 -19
12 -55 11 -145 -4z m93 -23 c-2 -12 -18 -21 -45 -27 -47 -10 -73 -3 -73 18 0
16 23 22 83 25 32 1 38 -2 35 -16z"/>
</g>
</svg>
