<?xml version="1.0" standalone="no"?>
<!DOCTYPE svg PUBLIC "-//W3C//DTD SVG 20010904//EN"
 "http://www.w3.org/TR/2001/REC-SVG-20010904/DTD/svg10.dtd">
<svg version="1.0" xmlns="http://www.w3.org/2000/svg"
 width="96.000000pt" height="68.000000pt" viewBox="0 0 96.000000 68.000000"
 preserveAspectRatio="xMidYMid meet">
<metadata>
Created by potrace 1.16, written by Peter Selinger 2001-2019
</metadata>
<g transform="translate(0.000000,68.000000) scale(0.100000,-0.100000)"
fill="#000000" stroke="none">
<path d="M587 599 c-3 -22 -8 -43 -11 -46 -3 -3 -26 -8 -51 -10 -37 -5 -43 -8
-34 -19 6 -8 25 -14 41 -14 25 0 27 -2 18 -19 -21 -40 0 -43 33 -5 18 21 33
26 87 31 36 2 72 7 80 10 26 8 -19 33 -61 33 -21 0 -41 5 -44 10 -3 6 -1 10 4
10 19 0 12 39 -8 50 -36 19 -48 12 -54 -31z"/>
<path d="M303 604 c-2 -7 0 -21 6 -33 17 -30 15 -31 -49 -31 -67 0 -80 -17
-36 -45 20 -13 32 -14 63 -6 50 14 48 15 61 -14 16 -34 32 -32 32 4 0 25 5 30
35 35 45 9 45 26 0 26 -31 0 -35 3 -40 34 -6 28 -12 35 -37 38 -18 3 -32 0
-35 -8z"/>
<path d="M477 435 c-55 -15 -113 -24 -172 -25 -30 0 -36 -3 -25 -10 8 -5 27
-10 43 -10 21 0 27 -5 27 -23 0 -57 -83 -172 -175 -242 -45 -35 -39 -42 17
-17 46 20 118 83 137 120 6 12 18 22 27 22 15 0 114 -86 114 -99 0 -13 -65
-45 -135 -67 -50 -16 -62 -23 -41 -23 16 -1 69 13 118 30 98 33 91 34 156 -25
32 -30 36 -31 128 -30 84 0 115 6 103 18 -2 3 -40 14 -84 26 -92 25 -175 59
-175 71 0 5 23 39 52 75 41 52 48 68 37 75 -13 8 -50 13 -76 10 -20 -3 -16 8
21 59 19 27 31 52 27 59 -12 18 -71 21 -124 6z m53 -47 c0 -13 -9 -37 -19 -54
-16 -27 -28 -33 -71 -39 -28 -4 -54 -4 -57 -1 -4 3 1 22 10 41 9 19 14 41 11
49 -6 15 17 21 94 24 27 2 32 -1 32 -20z m20 -127 c0 -23 -37 -81 -52 -81 -7
0 -35 20 -63 44 l-50 45 60 3 c33 2 70 4 83 4 14 1 22 -4 22 -15z"/>
</g>
</svg>
