<?xml version="1.0" standalone="no"?>
<!DOCTYPE svg PUBLIC "-//W3C//DTD SVG 20010904//EN"
 "http://www.w3.org/TR/2001/REC-SVG-20010904/DTD/svg10.dtd">
<svg version="1.0" xmlns="http://www.w3.org/2000/svg"
 width="90.000000pt" height="92.000000pt" viewBox="0 0 90.000000 92.000000"
 preserveAspectRatio="xMidYMid meet">
<metadata>
Created by potrace 1.16, written by Peter Selinger 2001-2019
</metadata>
<g transform="translate(0.000000,92.000000) scale(0.100000,-0.100000)"
fill="#000000" stroke="none">
<path d="M235 828 c-2 -7 -13 -39 -24 -71 -20 -59 -80 -152 -113 -175 -21 -15
-23 -32 -5 -55 11 -15 17 -15 80 8 37 14 67 22 67 19 0 -10 -72 -98 -102 -125
-26 -23 -28 -30 -19 -48 15 -27 17 -27 90 9 101 50 107 52 123 28 18 -27 48
-18 48 15 0 27 -22 51 -63 66 -26 10 -28 9 -25 -16 3 -24 -2 -29 -46 -45 -27
-10 -53 -17 -57 -16 -4 2 32 50 81 106 50 57 90 112 90 121 0 10 -9 26 -19 35
-18 17 -20 15 -44 -37 -24 -54 -26 -55 -81 -68 -31 -7 -59 -9 -62 -6 -6 5 56
97 128 189 18 23 19 30 8 43 -22 26 -50 38 -55 23z"/>
<path d="M635 823 c-33 -7 -99 -16 -147 -19 l-87 -7 19 -24 c10 -13 21 -43 25
-66 13 -83 36 -130 47 -97 2 6 53 15 114 21 110 12 111 12 111 38 0 14 12 45
26 68 15 24 27 46 27 51 0 5 -17 17 -37 28 -35 19 -43 19 -98 7z m41 -70 c-3
-21 -6 -45 -6 -54 0 -17 -82 -39 -145 -39 -31 0 -33 2 -39 47 -3 25 -4 48 -1
51 9 10 112 30 154 31 l44 1 -7 -37z"/>
<path d="M630 563 c-25 -8 -80 -16 -123 -16 -73 -2 -78 -3 -71 -22 30 -88 8
-265 -51 -408 -5 -12 -3 -16 6 -12 20 8 54 63 68 110 7 22 15 46 17 54 4 11
10 9 27 -8 13 -11 27 -21 31 -21 5 0 45 25 89 56 l80 57 -6 -94 c-4 -51 -12
-98 -17 -103 -7 -7 -21 -6 -42 2 -17 6 -33 10 -34 9 -2 -2 17 -29 43 -60 37
-48 48 -56 60 -46 37 31 43 64 43 243 0 96 4 185 9 199 11 27 6 36 -29 60 -29
20 -40 20 -100 0z m54 -41 c2 -4 7 -42 10 -84 l5 -76 -57 -21 c-99 -35 -169
-50 -158 -33 2 4 5 32 7 62 1 30 4 58 6 62 2 4 26 -6 53 -23 55 -34 102 -36
108 -6 4 21 -39 41 -111 51 -42 7 -48 10 -45 29 3 19 13 24 68 33 81 15 108
16 114 6z"/>
<path d="M288 374 c-9 -9 43 -95 56 -91 6 2 12 18 14 35 3 26 -2 33 -27 46
-34 18 -35 18 -43 10z"/>
<path d="M180 323 c0 -17 52 -93 64 -93 18 0 26 22 19 49 -7 28 -83 68 -83 44z"/>
<path d="M56 278 c18 -59 55 -118 74 -118 45 0 33 82 -18 119 -41 29 -66 28
-56 -1z"/>
</g>
</svg>
