<?xml version="1.0" standalone="no"?>
<!DOCTYPE svg PUBLIC "-//W3C//DTD SVG 20010904//EN"
 "http://www.w3.org/TR/2001/REC-SVG-20010904/DTD/svg10.dtd">
<svg version="1.0" xmlns="http://www.w3.org/2000/svg"
 width="96.000000pt" height="68.000000pt" viewBox="0 0 96.000000 68.000000"
 preserveAspectRatio="xMidYMid meet">
<metadata>
Created by potrace 1.16, written by Peter Selinger 2001-2019
</metadata>
<g transform="translate(0.000000,68.000000) scale(0.100000,-0.100000)"
fill="#000000" stroke="none">
<path d="M507 555 l6 -45 -39 -1 c-22 -1 -50 -5 -64 -9 -19 -6 -9 -8 38 -9 59
-1 62 -2 62 -25 0 -22 -5 -25 -57 -31 -32 -4 -71 -11 -88 -15 l-30 -8 30 -2
c40 -3 84 0 118 6 24 5 27 2 27 -19 0 -29 -16 -37 -71 -37 -22 0 -39 -5 -39
-11 0 -8 17 -10 55 -6 l55 6 0 -67 c0 -86 -7 -112 -31 -112 -19 0 -18 -2 3
-30 46 -63 68 -26 68 116 l0 94 43 0 c53 0 64 8 69 45 3 28 7 30 61 40 64 11
67 25 5 25 -39 0 -39 1 -33 30 6 26 3 30 -20 36 -14 3 -47 4 -71 1 -44 -5 -45
-4 -40 19 4 16 0 27 -16 38 -39 28 -48 21 -41 -29z m131 -77 c-2 -19 -11 -24
-45 -29 -42 -5 -43 -5 -43 23 0 27 2 28 46 28 41 0 45 -2 42 -22z m-20 -60 c9
-29 0 -38 -38 -38 -32 0 -40 4 -40 18 0 10 2 21 4 23 8 8 71 5 74 -3z"/>
<path d="M170 501 c12 -23 71 -61 94 -61 9 0 19 7 23 17 10 25 -44 63 -90 63
-34 0 -37 -2 -27 -19z"/>
<path d="M173 351 c-35 -14 -63 -30 -63 -35 0 -5 22 -6 50 -2 53 7 56 6 39
-22 -9 -14 -6 -26 15 -56 14 -21 26 -47 26 -56 0 -19 -36 -30 -102 -30 -32 0
-39 -3 -36 -18 3 -15 14 -17 89 -14 82 4 94 1 260 -54 173 -57 174 -57 234
-45 82 16 155 41 155 52 0 5 -30 9 -67 9 -121 1 -269 18 -387 46 -107 25 -115
29 -110 49 7 30 -11 72 -36 80 -21 7 -21 8 14 44 20 20 36 42 36 47 0 9 -46
37 -53 33 -1 -1 -30 -13 -64 -28z"/>
<path d="M610 292 c-22 -22 -28 -33 -16 -29 10 4 38 12 62 18 49 13 64 27 43
40 -25 16 -54 7 -89 -29z"/>
<path d="M390 301 c0 -5 12 -16 26 -26 20 -13 29 -14 38 -5 8 8 6 15 -8 26
-22 16 -56 19 -56 5z"/>
<path d="M425 220 c-16 -10 -40 -19 -52 -19 -25 -1 -28 -8 -13 -31 10 -17 34
-6 90 41 38 32 22 38 -25 9z"/>
<path d="M580 233 c1 -12 111 -93 126 -93 22 0 17 48 -7 60 -16 9 -106 39
-116 40 -2 0 -3 -3 -3 -7z"/>
</g>
</svg>
