<?xml version="1.0" standalone="no"?>
<!DOCTYPE svg PUBLIC "-//W3C//DTD SVG 20010904//EN"
 "http://www.w3.org/TR/2001/REC-SVG-20010904/DTD/svg10.dtd">
<svg version="1.0" xmlns="http://www.w3.org/2000/svg"
 width="96.000000pt" height="68.000000pt" viewBox="0 0 96.000000 68.000000"
 preserveAspectRatio="xMidYMid meet">
<metadata>
Created by potrace 1.16, written by Peter Selinger 2001-2019
</metadata>
<g transform="translate(0.000000,68.000000) scale(0.100000,-0.100000)"
fill="#000000" stroke="none">
<path d="M620 299 l-45 -39 65 18 c66 19 82 38 45 52 -15 6 -31 -2 -65 -31z"/>
<path d="M390 294 c23 -26 51 -37 64 -24 14 15 -18 40 -52 40 -21 0 -23 -2
-12 -16z"/>
<path d="M508 243 c-3 -66 -4 -68 -29 -68 l-27 1 25 -33 c49 -63 73 -34 73 86
0 74 -2 81 -20 81 -17 0 -19 -8 -22 -67z"/>
<path d="M421 220 c-24 -11 -49 -20 -57 -20 -19 0 -18 -27 2 -34 17 -7 35 4
89 49 36 30 25 32 -34 5z"/>
<path d="M600 209 c45 -39 92 -69 108 -69 6 0 12 12 12 26 0 20 -8 29 -42 43
-24 10 -59 21 -78 25 l-35 6 35 -31z"/>
</g>
</svg>
