<?xml version="1.0" standalone="no"?>
<!DOCTYPE svg PUBLIC "-//W3C//DTD SVG 20010904//EN"
 "http://www.w3.org/TR/2001/REC-SVG-20010904/DTD/svg10.dtd">
<svg version="1.0" xmlns="http://www.w3.org/2000/svg"
 width="96.000000pt" height="68.000000pt" viewBox="0 0 96.000000 68.000000"
 preserveAspectRatio="xMidYMid meet">
<metadata>
Created by potrace 1.16, written by Peter Selinger 2001-2019
</metadata>
<g transform="translate(0.000000,68.000000) scale(0.100000,-0.100000)"
fill="#000000" stroke="none">
<path d="M532 566 c-6 -13 -25 -40 -43 -61 -29 -33 -37 -36 -68 -31 -30 4 -33
3 -20 -7 8 -7 22 -43 30 -82 l15 -70 55 5 c69 6 140 6 157 0 17 -7 60 73 77
142 6 23 3 28 -20 34 -24 6 -100 1 -185 -12 l-35 -6 30 25 c83 68 81 66 65 77
-25 16 -46 11 -58 -14z m138 -115 c0 -23 -4 -28 -17 -25 -10 2 -55 -2 -100 -9
-86 -14 -103 -10 -103 24 0 13 16 18 83 26 139 17 137 17 137 -16z m-10 -70
c0 -27 -3 -28 -102 -36 l-88 -7 0 25 c0 28 12 31 138 35 45 2 52 0 52 -17z"/>
<path d="M274 537 c-23 -51 -92 -129 -107 -120 -6 3 -7 1 -3 -5 3 -6 -1 -15
-10 -20 -34 -19 4 -20 42 -2 37 19 154 124 154 138 0 13 -15 29 -36 40 -19 10
-23 7 -40 -31z"/>
<path d="M306 408 c-7 -29 -105 -139 -164 -183 -25 -19 -40 -35 -34 -35 22 0
59 19 106 55 l48 36 -6 -93 c-3 -51 -6 -103 -7 -116 -2 -33 20 -56 38 -40 12
9 14 38 12 146 l-3 134 32 38 c37 45 38 48 15 66 -25 19 -30 17 -37 -8z"/>
<path d="M548 277 c-107 -11 -132 -27 -42 -27 l55 0 -3 -32 c-3 -32 -4 -33
-55 -36 -70 -4 -68 -22 2 -22 54 0 55 -1 55 -29 0 -27 -2 -28 -61 -35 -34 -3
-79 -6 -100 -6 -22 0 -39 -4 -39 -9 0 -17 75 -22 160 -12 47 6 137 11 201 11
63 0 119 3 122 7 4 4 -7 13 -24 20 -24 10 -51 11 -118 3 -47 -5 -89 -10 -93
-10 -13 0 -9 60 5 65 6 2 34 6 61 10 62 8 43 27 -24 23 -44 -2 -45 -2 -45 27
0 25 5 30 25 33 61 6 90 14 90 22 0 11 -36 11 -172 -3z"/>
</g>
</svg>
