<?xml version="1.0" standalone="no"?>
<!DOCTYPE svg PUBLIC "-//W3C//DTD SVG 20010904//EN"
 "http://www.w3.org/TR/2001/REC-SVG-20010904/DTD/svg10.dtd">
<svg version="1.0" xmlns="http://www.w3.org/2000/svg"
 width="96.000000pt" height="68.000000pt" viewBox="0 0 96.000000 68.000000"
 preserveAspectRatio="xMidYMid meet">
<metadata>
Created by potrace 1.16, written by Peter Selinger 2001-2019
</metadata>
<g transform="translate(0.000000,68.000000) scale(0.100000,-0.100000)"
fill="#000000" stroke="none">
<path d="M763 467 c-6 -13 -34 -49 -63 -80 -40 -44 -50 -61 -41 -70 8 -8 24
-6 62 7 37 14 53 16 62 7 17 -17 37 -13 37 7 0 21 -18 42 -37 42 -7 0 -13 -7
-13 -15 0 -10 -10 -15 -32 -15 -18 0 -28 4 -22 8 5 4 29 28 53 54 36 40 41 50
31 63 -17 21 -25 19 -37 -8z"/>
</g>
</svg>
