<?xml version="1.0" standalone="no"?>
<!DOCTYPE svg PUBLIC "-//W3C//DTD SVG 20010904//EN"
 "http://www.w3.org/TR/2001/REC-SVG-20010904/DTD/svg10.dtd">
<svg version="1.0" xmlns="http://www.w3.org/2000/svg"
 width="96.000000pt" height="68.000000pt" viewBox="0 0 96.000000 68.000000"
 preserveAspectRatio="xMidYMid meet">
<metadata>
Created by potrace 1.16, written by Peter Selinger 2001-2019
</metadata>
<g transform="translate(0.000000,68.000000) scale(0.100000,-0.100000)"
fill="#000000" stroke="none">
<path d="M291 494 c-22 -10 -56 -14 -93 -12 -32 2 -58 0 -58 -4 0 -5 4 -8 10
-8 5 0 17 -26 26 -57 18 -64 31 -84 42 -67 4 6 37 15 75 18 37 4 65 12 62 16
-3 5 4 30 16 55 13 27 18 50 13 55 -18 17 -60 19 -93 4z m26 -89 c-6 -14 -87
-29 -98 -18 -4 4 -10 22 -13 39 l-7 32 58 8 58 9 3 -28 c2 -16 1 -35 -1 -42z"/>
</g>
</svg>
