<?xml version="1.0" standalone="no"?>
<!DOCTYPE svg PUBLIC "-//W3C//DTD SVG 20010904//EN"
 "http://www.w3.org/TR/2001/REC-SVG-20010904/DTD/svg10.dtd">
<svg version="1.0" xmlns="http://www.w3.org/2000/svg"
 width="96.000000pt" height="68.000000pt" viewBox="0 0 96.000000 68.000000"
 preserveAspectRatio="xMidYMid meet">
<metadata>
Created by potrace 1.16, written by Peter Selinger 2001-2019
</metadata>
<g transform="translate(0.000000,68.000000) scale(0.100000,-0.100000)"
fill="#000000" stroke="none">
<path d="M575 412 c-5 -4 -10 -16 -10 -27 0 -16 -8 -21 -35 -23 -55 -5 -61
-22 -7 -22 43 0 47 -2 47 -24 0 -28 -16 -36 -73 -37 -23 0 -51 -4 -62 -8 -16
-7 -14 -9 13 -14 17 -4 39 -4 47 -1 9 4 15 1 15 -8 0 -19 -84 -99 -150 -143
-32 -21 -44 -34 -30 -30 85 25 259 152 231 170 -27 16 -3 23 106 29 65 4 119
9 122 12 18 17 -82 24 -149 9 -28 -6 -30 -5 -30 24 0 29 2 31 50 37 69 9 79
28 12 22 -46 -4 -51 -3 -54 16 -3 22 -26 31 -43 18z"/>
</g>
</svg>
