<?xml version="1.0" standalone="no"?>
<!DOCTYPE svg PUBLIC "-//W3C//DTD SVG 20010904//EN"
 "http://www.w3.org/TR/2001/REC-SVG-20010904/DTD/svg10.dtd">
<svg version="1.0" xmlns="http://www.w3.org/2000/svg"
 width="96.000000pt" height="68.000000pt" viewBox="0 0 96.000000 68.000000"
 preserveAspectRatio="xMidYMid meet">
<metadata>
Created by potrace 1.16, written by Peter Selinger 2001-2019
</metadata>
<g transform="translate(0.000000,68.000000) scale(0.100000,-0.100000)"
fill="#000000" stroke="none">
<path d="M537 367 c-3 -8 -1 -20 4 -28 7 -12 11 -11 26 4 16 16 16 17 0 17
-10 0 -15 5 -12 10 3 6 2 10 -3 10 -6 0 -12 -6 -15 -13z"/>
<path d="M546 314 c-18 -18 -21 -44 -5 -44 5 0 7 -6 3 -12 -5 -7 -10 -29 -11
-49 -3 -30 0 -37 16 -42 11 -3 21 -1 23 4 2 5 38 12 81 15 45 4 73 10 65 15
-7 4 -40 5 -75 2 -60 -6 -63 -5 -74 20 -10 21 -9 29 4 42 16 16 13 50 -4 39
-5 -3 -9 -1 -9 5 0 5 6 12 13 14 8 4 9 6 0 6 -6 1 -19 -6 -27 -15z"/>
<path d="M630 302 c0 -5 7 -9 15 -9 8 0 12 4 9 9 -3 4 -9 8 -15 8 -5 0 -9 -4
-9 -8z"/>
<path d="M600 289 c0 -5 5 -7 10 -4 6 3 10 8 10 11 0 2 -4 4 -10 4 -5 0 -10
-5 -10 -11z"/>
<path d="M430 282 c-8 -4 -15 -20 -16 -37 -1 -38 -6 -58 -19 -67 -6 -5 -5 -12
4 -20 11 -11 13 -11 6 1 -6 10 -2 12 14 6 22 -7 30 9 10 21 -8 4 -7 9 2 15 12
7 11 9 -1 9 -12 1 -11 3 3 11 12 7 15 17 11 36 -5 20 -4 24 6 18 9 -5 11 -4 6
3 -4 7 -8 12 -9 11 -1 0 -9 -3 -17 -7z"/>
<path d="M475 180 c-3 -5 -1 -10 4 -10 6 0 11 5 11 10 0 6 -2 10 -4 10 -3 0
-8 -4 -11 -10z"/>
<path d="M542 146 c1 -10 8 -17 13 -17 15 1 12 24 -3 29 -9 3 -13 -2 -10 -12z"/>
<path d="M540 83 c0 -38 15 -44 24 -11 9 35 7 45 -9 45 -10 0 -15 -11 -15 -34z"/>
</g>
</svg>
