<?xml version="1.0" standalone="no"?>
<!DOCTYPE svg PUBLIC "-//W3C//DTD SVG 20010904//EN"
 "http://www.w3.org/TR/2001/REC-SVG-20010904/DTD/svg10.dtd">
<svg version="1.0" xmlns="http://www.w3.org/2000/svg"
 width="96.000000pt" height="68.000000pt" viewBox="0 0 96.000000 68.000000"
 preserveAspectRatio="xMidYMid meet">
<metadata>
Created by potrace 1.16, written by Peter Selinger 2001-2019
</metadata>
<g transform="translate(0.000000,68.000000) scale(0.100000,-0.100000)"
fill="#000000" stroke="none">
<path d="M413 543 c-7 -2 -13 -22 -13 -43 0 -45 -10 -49 -115 -51 -38 0 -90
-4 -115 -8 l-45 -7 27 -14 c22 -11 44 -11 110 -2 46 7 95 12 109 12 25 0 26
-2 19 -32 -33 -143 -79 -214 -195 -301 l-40 -30 33 7 c43 8 112 56 151 105 39
50 88 156 97 211 4 23 12 43 18 45 14 5 212 14 299 15 37 0 67 4 67 9 0 21
-61 29 -152 21 -51 -5 -119 -10 -151 -10 l-59 0 7 29 c5 23 2 32 -14 40 -11 6
-21 11 -23 10 -2 0 -9 -3 -15 -6z"/>
</g>
</svg>
