<?xml version="1.0" standalone="no"?>
<!DOCTYPE svg PUBLIC "-//W3C//DTD SVG 20010904//EN"
 "http://www.w3.org/TR/2001/REC-SVG-20010904/DTD/svg10.dtd">
<svg version="1.0" xmlns="http://www.w3.org/2000/svg"
 width="96.000000pt" height="68.000000pt" viewBox="0 0 96.000000 68.000000"
 preserveAspectRatio="xMidYMid meet">
<metadata>
Created by potrace 1.16, written by Peter Selinger 2001-2019
</metadata>
<g transform="translate(0.000000,68.000000) scale(0.100000,-0.100000)"
fill="#000000" stroke="none">
<path d="M660 309 c14 -6 32 -14 40 -19 23 -11 13 -76 -21 -136 -22 -38 -26
-53 -17 -57 7 -3 2 -5 -12 -4 -17 1 -24 -3 -22 -13 1 -9 -5 -6 -16 8 -10 13
-21 20 -24 17 -4 -4 3 -17 14 -30 19 -22 23 -23 47 -11 30 16 85 111 77 133
-3 8 -2 12 3 9 11 -7 41 64 34 80 -2 6 -21 14 -41 17 -20 3 -48 9 -62 12 l-25
6 25 -12z m95 -29 c3 -6 -1 -7 -9 -4 -18 7 -21 14 -7 14 6 0 13 -4 16 -10z
m-28 -32 c-3 -8 -6 -5 -6 6 -1 11 2 17 5 13 3 -3 4 -12 1 -19z"/>
</g>
</svg>
