<?xml version="1.0" standalone="no"?>
<!DOCTYPE svg PUBLIC "-//W3C//DTD SVG 20010904//EN"
 "http://www.w3.org/TR/2001/REC-SVG-20010904/DTD/svg10.dtd">
<svg version="1.0" xmlns="http://www.w3.org/2000/svg"
 width="96.000000pt" height="68.000000pt" viewBox="0 0 96.000000 68.000000"
 preserveAspectRatio="xMidYMid meet">
<metadata>
Created by potrace 1.16, written by Peter Selinger 2001-2019
</metadata>
<g transform="translate(0.000000,68.000000) scale(0.100000,-0.100000)"
fill="#000000" stroke="none">
<path d="M455 570 c8 -16 15 -33 15 -38 0 -5 -57 -17 -127 -26 -70 -10 -129
-19 -132 -21 -13 -14 70 -16 161 -4 l108 15 21 -66 c62 -187 130 -314 205
-380 68 -60 118 -61 96 -3 -6 15 -14 46 -17 68 l-8 40 -11 -34 c-7 -19 -17
-36 -23 -38 -33 -11 -152 180 -191 307 -38 121 -40 110 15 110 26 0 54 4 61 9
21 13 -41 34 -77 26 -28 -6 -31 -4 -31 17 0 32 -18 48 -52 48 -28 0 -28 0 -13
-30z"/>
</g>
</svg>
