<?xml version="1.0" standalone="no"?>
<!DOCTYPE svg PUBLIC "-//W3C//DTD SVG 20010904//EN"
 "http://www.w3.org/TR/2001/REC-SVG-20010904/DTD/svg10.dtd">
<svg version="1.0" xmlns="http://www.w3.org/2000/svg"
 width="96.000000pt" height="68.000000pt" viewBox="0 0 96.000000 68.000000"
 preserveAspectRatio="xMidYMid meet">
<metadata>
Created by potrace 1.16, written by Peter Selinger 2001-2019
</metadata>
<g transform="translate(0.000000,68.000000) scale(0.100000,-0.100000)"
fill="#000000" stroke="none">
<path d="M495 608 c-22 -5 -78 -15 -125 -22 l-85 -12 73 -29 c39 -15 72 -32
72 -36 0 -8 -92 -39 -116 -39 -7 0 -15 -4 -18 -9 -6 -9 114 11 154 27 19 7 35
6 59 -4 43 -18 71 -18 71 1 0 8 -6 15 -13 15 -22 0 -53 29 -41 37 46 33 66 55
58 62 -17 16 -48 19 -89 9z m15 -27 c0 -5 -8 -18 -17 -30 -17 -21 -21 -21 -70
-10 -29 7 -51 14 -48 17 3 4 100 27 128 31 4 1 7 -3 7 -8z"/>
</g>
</svg>
