<?xml version="1.0" standalone="no"?>
<!DOCTYPE svg PUBLIC "-//W3C//DTD SVG 20010904//EN"
 "http://www.w3.org/TR/2001/REC-SVG-20010904/DTD/svg10.dtd">
<svg version="1.0" xmlns="http://www.w3.org/2000/svg"
 width="90.000000pt" height="92.000000pt" viewBox="0 0 90.000000 92.000000"
 preserveAspectRatio="xMidYMid meet">
<metadata>
Created by potrace 1.16, written by Peter Selinger 2001-2019
</metadata>
<g transform="translate(0.000000,92.000000) scale(0.100000,-0.100000)"
fill="#000000" stroke="none">
<path d="M509 823 c-1 -5 0 -12 1 -18 2 -5 6 -59 9 -118 l6 -108 -40 -10 c-68
-17 -70 -18 -56 -32 6 -6 29 -11 51 -11 39 1 40 1 40 -35 0 -20 -3 -53 -6 -73
-6 -34 -8 -36 -31 -27 -44 16 -47 10 -14 -25 l34 -35 -30 -63 c-17 -35 -51
-87 -77 -116 -53 -58 -42 -69 22 -22 45 32 85 86 103 138 l11 32 35 -21 c38
-24 46 -21 46 17 0 25 -13 41 -50 62 -8 5 -8 31 -1 100 l11 92 39 12 c23 7 42
8 48 2 5 -5 5 -41 -2 -89 -5 -44 -8 -119 -5 -168 5 -103 33 -169 87 -204 39
-27 111 -31 133 -8 13 12 12 20 -9 61 -13 26 -24 60 -24 76 0 48 -17 31 -23
-24 -8 -65 -18 -76 -52 -54 -69 46 -87 210 -39 354 l25 77 -21 17 c-27 22 -54
23 -110 3 -24 -8 -45 -14 -46 -12 -2 2 0 50 4 106 7 96 6 104 -12 117 -22 15
-55 19 -57 7z"/>
<path d="M210 807 c0 -8 13 -32 29 -54 l29 -40 -119 -13 c-65 -7 -119 -17
-119 -22 0 -5 11 -13 24 -19 18 -9 53 -6 147 9 68 12 157 24 197 28 63 6 71 9
60 22 -10 11 -27 13 -80 9 -65 -6 -68 -5 -68 16 0 32 -11 44 -53 62 -44 18
-47 18 -47 2z"/>
<path d="M290 638 c-30 -11 -79 -20 -107 -21 -29 -1 -53 -3 -53 -5 0 -2 6 -10
14 -18 8 -8 18 -34 22 -59 3 -25 9 -47 13 -49 4 -3 36 2 71 9 36 8 80 14 98
15 29 0 32 3 27 20 -4 11 1 34 9 52 22 43 20 55 -11 65 -21 7 -42 5 -83 -9z
m40 -58 c0 -27 -5 -31 -52 -45 -63 -18 -78 -19 -78 -2 0 6 -3 21 -6 33 -5 18
1 22 43 31 85 18 93 17 93 -17z"/>
<path d="M255 445 c-27 -7 -75 -17 -105 -22 -55 -9 -55 -9 -28 -23 24 -11 39
-11 103 5 42 10 78 15 82 12 3 -3 -5 -22 -17 -42 -19 -30 -27 -35 -46 -31 -22
6 -35 -8 -15 -16 5 -1 12 -14 16 -28 6 -25 5 -26 -114 -50 -67 -13 -121 -27
-121 -31 0 -4 14 -17 30 -29 l30 -21 80 30 c44 17 84 31 89 31 10 0 8 -23 -5
-89 -4 -20 -9 -22 -35 -17 -26 5 -28 4 -19 -12 5 -9 21 -30 35 -47 l26 -30 19
23 c12 14 21 46 25 90 3 37 7 75 8 86 1 13 21 25 66 42 36 14 67 27 70 29 12
13 -10 13 -59 0 -73 -20 -85 -19 -87 6 -1 14 12 29 44 49 26 17 55 32 65 36
27 8 22 22 -14 44 -38 23 -53 23 -123 5z"/>
</g>
</svg>
