<?xml version="1.0" standalone="no"?>
<!DOCTYPE svg PUBLIC "-//W3C//DTD SVG 20010904//EN"
 "http://www.w3.org/TR/2001/REC-SVG-20010904/DTD/svg10.dtd">
<svg version="1.0" xmlns="http://www.w3.org/2000/svg"
 width="90.000000pt" height="92.000000pt" viewBox="0 0 90.000000 92.000000"
 preserveAspectRatio="xMidYMid meet">
<metadata>
Created by potrace 1.16, written by Peter Selinger 2001-2019
</metadata>
<g transform="translate(0.000000,92.000000) scale(0.100000,-0.100000)"
fill="#000000" stroke="none">
<path d="M545 830 c-20 -22 -149 -90 -171 -90 -8 0 -14 -5 -14 -11 0 -11 44
-7 92 7 14 4 16 0 12 -23 -7 -39 -12 -42 -84 -55 -58 -10 -62 -12 -44 -25 11
-8 35 -13 57 -11 20 2 37 2 37 0 0 -10 -88 -133 -118 -164 -20 -21 -31 -38
-25 -38 15 0 100 67 112 88 11 19 12 17 31 -56 7 -28 16 -42 24 -39 7 3 43 8
80 12 58 7 66 10 61 26 -3 10 3 36 15 59 l21 40 -25 12 c-20 8 -38 7 -84 -6
-94 -26 -98 -24 -65 33 31 57 62 71 99 46 13 -8 60 -51 104 -95 67 -67 86 -80
113 -80 40 0 111 19 102 28 -3 3 -40 19 -81 34 -44 16 -105 49 -147 80 l-71
53 44 3 c25 1 60 5 78 8 33 5 33 6 16 25 -19 21 -58 24 -114 10 -91 -23 -92
-23 -85 -1 4 12 1 27 -5 35 -10 12 -8 16 11 24 107 40 115 49 77 75 -29 20
-31 20 -53 -4z m15 -330 c0 -26 -5 -30 -41 -40 -53 -15 -69 -8 -69 29 0 26 4
30 33 34 76 9 77 9 77 -23z"/>
<path d="M157 808 c4 -18 8 -71 8 -118 l0 -85 -50 -9 c-80 -13 -83 -15 -60
-32 14 -11 32 -13 63 -9 42 6 44 6 37 -17 -12 -40 -76 -151 -116 -202 -47 -59
-49 -73 -8 -49 41 24 61 47 104 118 l37 60 -7 -100 c-3 -55 -11 -127 -16 -159
-12 -67 -6 -118 16 -136 13 -10 17 -6 30 23 12 28 15 82 15 234 l1 198 33 -39
c34 -39 34 -39 46 -16 14 27 4 40 -43 56 -50 17 -47 41 7 55 26 6 49 16 52 21
11 17 -19 29 -58 23 -35 -5 -36 -4 -33 23 2 15 6 56 9 92 6 64 6 66 -23 83
-44 26 -54 22 -44 -15z"/>
<path d="M659 406 c-10 -10 -287 -44 -316 -39 -32 5 -45 -8 -23 -22 13 -8 13
-68 -1 -138 -10 -49 -9 -60 6 -83 9 -14 21 -22 25 -18 5 5 12 57 16 115 l7
106 91 17 c51 9 122 16 159 16 l67 0 0 -86 c0 -105 -10 -128 -51 -119 -16 4
-29 5 -29 2 0 -8 52 -97 57 -97 2 0 13 5 24 10 31 17 47 62 54 146 4 43 11 94
17 113 10 32 9 36 -18 58 -25 20 -73 31 -85 19z"/>
<path d="M547 324 c-16 -9 -53 -16 -83 -16 -50 -1 -53 -2 -41 -17 8 -9 17 -32
21 -51 11 -61 14 -63 96 -48 72 13 73 14 75 46 2 18 8 39 15 48 11 12 11 17
-1 28 -23 23 -52 26 -82 10z m21 -61 c-2 -22 -10 -29 -45 -39 -40 -12 -43 -11
-43 6 0 10 -3 25 -6 33 -6 16 13 23 69 26 25 1 28 -2 25 -26z"/>
</g>
</svg>
