<?xml version="1.0" standalone="no"?>
<!DOCTYPE svg PUBLIC "-//W3C//DTD SVG 20010904//EN"
 "http://www.w3.org/TR/2001/REC-SVG-20010904/DTD/svg10.dtd">
<svg version="1.0" xmlns="http://www.w3.org/2000/svg"
 width="96.000000pt" height="68.000000pt" viewBox="0 0 96.000000 68.000000"
 preserveAspectRatio="xMidYMid meet">
<metadata>
Created by potrace 1.16, written by Peter Selinger 2001-2019
</metadata>
<g transform="translate(0.000000,68.000000) scale(0.100000,-0.100000)"
fill="#000000" stroke="none">
<path d="M669 285 c-3 -2 -64 -11 -136 -20 -91 -10 -140 -12 -157 -5 -24 9
-26 8 -21 -13 9 -33 9 -57 1 -108 -6 -35 -4 -48 8 -58 20 -17 22 -10 33 84 l8
70 122 14 c67 7 129 11 138 8 18 -7 21 -90 5 -132 -8 -21 -14 -24 -35 -19
l-26 6 22 -36 c11 -20 27 -36 34 -36 28 0 52 49 64 132 11 80 11 84 -10 101
-21 17 -41 22 -50 12z"/>
</g>
</svg>
