<?xml version="1.0" standalone="no"?>
<!DOCTYPE svg PUBLIC "-//W3C//DTD SVG 20010904//EN"
 "http://www.w3.org/TR/2001/REC-SVG-20010904/DTD/svg10.dtd">
<svg version="1.0" xmlns="http://www.w3.org/2000/svg"
 width="96.000000pt" height="68.000000pt" viewBox="0 0 96.000000 68.000000"
 preserveAspectRatio="xMidYMid meet">
<metadata>
Created by potrace 1.16, written by Peter Selinger 2001-2019
</metadata>
<g transform="translate(0.000000,68.000000) scale(0.100000,-0.100000)"
fill="#000000" stroke="none">
<path d="M504 373 c2 -21 0 -48 -5 -62 -8 -21 -14 -23 -49 -18 -22 3 -40 1
-40 -4 0 -15 78 -10 94 7 9 8 16 12 16 7 1 -4 7 6 14 22 11 27 11 32 -7 48
-11 9 -18 20 -15 23 3 3 13 -3 22 -12 9 -9 20 -13 24 -9 8 8 -26 35 -45 35
-10 0 -12 -11 -9 -37z"/>
<path d="M450 390 c-23 -7 -23 -8 -3 -9 12 -1 25 4 28 9 3 6 5 10 3 9 -2 -1
-14 -5 -28 -9z"/>
<path d="M405 382 c-6 -4 -10 -13 -9 -19 1 -7 2 -23 3 -35 2 -32 12 -15 15 26
2 20 3 36 2 36 -1 0 -6 -4 -11 -8z"/>
</g>
</svg>
