<?xml version="1.0" standalone="no"?>
<!DOCTYPE svg PUBLIC "-//W3C//DTD SVG 20010904//EN"
 "http://www.w3.org/TR/2001/REC-SVG-20010904/DTD/svg10.dtd">
<svg version="1.0" xmlns="http://www.w3.org/2000/svg"
 width="90.000000pt" height="92.000000pt" viewBox="0 0 90.000000 92.000000"
 preserveAspectRatio="xMidYMid meet">
<metadata>
Created by potrace 1.16, written by Peter Selinger 2001-2019
</metadata>
<g transform="translate(0.000000,92.000000) scale(0.100000,-0.100000)"
fill="#000000" stroke="none">
<path d="M516 863 c-3 -4 -6 -28 -6 -55 0 -70 -10 -84 -70 -92 -70 -9 -62 -36
11 -36 34 0 35 -7 12 -55 -15 -31 -18 -33 -32 -21 -19 18 -71 32 -71 19 0 -4
12 -26 26 -47 l26 -38 -43 -44 c-33 -33 -37 -42 -20 -37 12 3 24 9 27 14 20
33 50 -24 59 -112 9 -85 13 -91 53 -80 31 9 31 9 37 -32 4 -23 5 -64 3 -92 -3
-49 -4 -50 -34 -49 l-32 2 32 -43 c53 -72 74 -39 78 122 3 106 4 113 23 113
12 0 26 -5 33 -12 13 -13 20 1 53 110 l22 73 -24 25 c-19 21 -30 24 -54 19
-74 -16 -198 -34 -205 -30 -4 3 10 22 30 44 21 22 50 65 64 95 15 31 31 56 36
56 5 0 47 -49 94 -109 47 -60 94 -111 105 -114 22 -5 121 12 121 22 0 4 -28
19 -62 34 -35 15 -76 38 -93 51 l-30 24 48 23 c26 13 47 26 47 30 0 10 -41 39
-55 39 -6 0 -19 -16 -29 -35 -11 -19 -24 -35 -31 -35 -6 0 -30 19 -52 43 l-41
43 59 13 c39 8 59 17 59 26 0 17 -40 29 -69 21 -67 -19 -62 -22 -46 24 8 23
12 46 9 51 -9 14 -61 39 -68 32z m114 -422 c0 -25 -3 -27 -37 -27 -21 0 -60
-3 -86 -8 l-49 -9 4 29 c3 28 6 29 78 40 41 5 78 9 83 7 4 -3 7 -17 7 -32z
m-8 -76 c-4 -25 -25 -34 -114 -51 -37 -6 -38 -5 -38 24 0 30 2 31 58 37 31 4
62 8 67 10 25 9 32 4 27 -20z"/>
<path d="M186 798 c-3 -7 -6 -31 -9 -54 -6 -53 -71 -190 -130 -277 -26 -37
-47 -72 -47 -78 0 -15 59 37 95 83 25 32 34 38 55 33 30 -8 26 -3 34 -42 l7
-32 -62 -12 c-56 -11 -60 -13 -43 -26 13 -9 32 -12 61 -7 l43 6 0 -75 0 -76
-52 -16 c-28 -8 -67 -15 -86 -15 -39 0 -39 -14 1 -43 24 -19 27 -19 51 -4 14
9 71 35 128 58 57 22 107 45 112 50 20 19 -7 23 -53 6 -27 -9 -52 -17 -55 -17
-4 0 -6 32 -4 72 l3 72 40 8 c22 5 47 11 55 14 25 9 -9 24 -55 24 -39 0 -40 1
-41 34 0 33 2 35 38 41 47 8 57 22 23 31 -22 6 -44 2 -138 -23 -14 -4 -8 15
30 91 l47 96 43 -48 c35 -39 44 -44 53 -32 21 32 10 50 -50 84 -25 14 -41 26
-37 26 13 0 -12 39 -33 50 -15 8 -21 8 -24 -2z"/>
<path d="M290 370 c0 -6 -9 -29 -19 -51 -20 -41 -17 -41 37 -1 31 24 32 26 16
43 -19 21 -34 25 -34 9z"/>
<path d="M80 328 c0 -22 55 -82 68 -74 30 18 3 66 -45 80 -16 5 -23 3 -23 -6z"/>
<path d="M400 226 c0 -8 -20 -41 -45 -75 -27 -36 -39 -61 -31 -61 31 0 135 87
136 114 0 11 -31 35 -47 36 -7 0 -13 -6 -13 -14z"/>
<path d="M640 235 c0 -14 104 -135 114 -132 6 2 11 21 11 43 0 35 -4 41 -40
60 -45 25 -85 38 -85 29z"/>
</g>
</svg>
