<?xml version="1.0" standalone="no"?>
<!DOCTYPE svg PUBLIC "-//W3C//DTD SVG 20010904//EN"
 "http://www.w3.org/TR/2001/REC-SVG-20010904/DTD/svg10.dtd">
<svg version="1.0" xmlns="http://www.w3.org/2000/svg"
 width="96.000000pt" height="68.000000pt" viewBox="0 0 96.000000 68.000000"
 preserveAspectRatio="xMidYMid meet">
<metadata>
Created by potrace 1.16, written by Peter Selinger 2001-2019
</metadata>
<g transform="translate(0.000000,68.000000) scale(0.100000,-0.100000)"
fill="#000000" stroke="none">
<path d="M250 538 c0 -50 -65 -162 -139 -240 -48 -52 -24 -48 43 7 60 49 91
56 101 25 9 -30 -2 -40 -45 -40 -21 0 -42 -4 -45 -10 -4 -6 13 -10 44 -10 l51
0 0 -54 0 -54 -44 -11 c-25 -6 -60 -11 -78 -11 -28 0 -30 -2 -18 -14 8 -8 22
-16 30 -18 20 -4 250 75 250 86 0 4 -10 6 -22 3 -85 -22 -78 -25 -78 31 0 53
8 62 55 62 13 0 27 5 30 10 7 11 -13 14 -57 11 -24 -2 -28 2 -28 23 0 21 6 26
35 32 19 3 35 10 35 15 0 12 -42 11 -96 -2 -25 -6 -47 -9 -50 -6 -4 4 54 106
72 126 2 3 17 -8 32 -22 32 -31 65 -36 60 -9 -2 9 -20 26 -41 37 -20 11 -40
28 -43 38 -3 10 -15 17 -30 17 -18 0 -24 -5 -24 -22z"/>
<path d="M340 234 c-14 -36 -13 -36 20 -19 33 17 38 30 14 39 -23 9 -24 8 -34
-20z"/>
<path d="M175 206 c21 -32 44 -40 52 -19 7 18 -21 43 -49 43 -17 0 -17 -2 -3
-24z"/>
</g>
</svg>
