<?xml version="1.0" standalone="no"?>
<!DOCTYPE svg PUBLIC "-//W3C//DTD SVG 20010904//EN"
 "http://www.w3.org/TR/2001/REC-SVG-20010904/DTD/svg10.dtd">
<svg version="1.0" xmlns="http://www.w3.org/2000/svg"
 width="96.000000pt" height="68.000000pt" viewBox="0 0 96.000000 68.000000"
 preserveAspectRatio="xMidYMid meet">
<metadata>
Created by potrace 1.16, written by Peter Selinger 2001-2019
</metadata>
<g transform="translate(0.000000,68.000000) scale(0.100000,-0.100000)"
fill="#000000" stroke="none">
<path d="M402 578 c-5 -7 -13 -23 -16 -34 -12 -39 -66 -104 -117 -140 -37 -27
-49 -42 -47 -58 4 -27 26 -26 178 3 174 34 194 36 209 17 21 -25 51 -20 51 8
0 27 -40 65 -89 86 -40 16 -50 6 -23 -23 12 -13 22 -26 22 -29 0 -7 -224 -32
-238 -27 -6 2 21 38 59 79 38 41 69 80 69 86 0 11 -32 44 -42 44 -3 0 -10 -6
-16 -12z"/>
</g>
</svg>
