<?xml version="1.0" standalone="no"?>
<!DOCTYPE svg PUBLIC "-//W3C//DTD SVG 20010904//EN"
 "http://www.w3.org/TR/2001/REC-SVG-20010904/DTD/svg10.dtd">
<svg version="1.0" xmlns="http://www.w3.org/2000/svg"
 width="96.000000pt" height="68.000000pt" viewBox="0 0 96.000000 68.000000"
 preserveAspectRatio="xMidYMid meet">
<metadata>
Created by potrace 1.16, written by Peter Selinger 2001-2019
</metadata>
<g transform="translate(0.000000,68.000000) scale(0.100000,-0.100000)"
fill="#000000" stroke="none">
<path d="M388 365 c4 -174 12 -197 82 -233 41 -22 54 -23 160 -19 116 4 181
22 180 50 -1 6 -11 36 -24 66 l-23 54 -14 -44 c-10 -30 -25 -51 -49 -67 -32
-22 -43 -24 -118 -19 -91 5 -126 21 -143 65 -10 26 -7 148 7 248 6 41 5 42
-28 45 l-33 4 3 -150z"/>
</g>
</svg>
