<?xml version="1.0" standalone="no"?>
<!DOCTYPE svg PUBLIC "-//W3C//DTD SVG 20010904//EN"
 "http://www.w3.org/TR/2001/REC-SVG-20010904/DTD/svg10.dtd">
<svg version="1.0" xmlns="http://www.w3.org/2000/svg"
 width="96.000000pt" height="68.000000pt" viewBox="0 0 96.000000 68.000000"
 preserveAspectRatio="xMidYMid meet">
<metadata>
Created by potrace 1.16, written by Peter Selinger 2001-2019
</metadata>
<g transform="translate(0.000000,68.000000) scale(0.100000,-0.100000)"
fill="#000000" stroke="none">
<path d="M695 370 c-22 -5 -77 -10 -122 -11 l-82 -2 5 -56 c3 -31 6 -74 7 -95
1 -22 7 -41 14 -43 9 -3 13 20 15 83 l3 88 35 7 c19 4 70 9 112 11 l78 3 6
-32 c6 -31 1 -82 -13 -127 -4 -14 -11 -17 -34 -12 l-29 6 22 -30 c12 -17 27
-30 33 -30 25 0 49 42 56 98 4 31 10 73 14 93 6 31 4 36 -20 47 -29 13 -41 13
-100 2z"/>
</g>
</svg>
