<?xml version="1.0" standalone="no"?>
<!DOCTYPE svg PUBLIC "-//W3C//DTD SVG 20010904//EN"
 "http://www.w3.org/TR/2001/REC-SVG-20010904/DTD/svg10.dtd">
<svg version="1.0" xmlns="http://www.w3.org/2000/svg"
 width="96.000000pt" height="68.000000pt" viewBox="0 0 96.000000 68.000000"
 preserveAspectRatio="xMidYMid meet">
<metadata>
Created by potrace 1.16, written by Peter Selinger 2001-2019
</metadata>
<g transform="translate(0.000000,68.000000) scale(0.100000,-0.100000)"
fill="#000000" stroke="none">
<path d="M426 433 c4 -10 8 -36 8 -58 1 -39 0 -39 -43 -47 -60 -10 -64 -18 -8
-18 26 0 47 -3 47 -7 0 -17 -66 -106 -106 -143 -25 -23 -44 -44 -42 -46 9 -8
97 56 123 90 15 20 29 35 32 33 2 -2 -1 -37 -7 -78 -12 -80 -6 -129 15 -129
20 0 25 24 25 133 l0 101 28 -27 c34 -33 55 -35 50 -5 -2 14 -14 25 -37 33
-58 19 -50 55 12 55 15 0 27 4 27 9 0 13 -25 20 -51 14 -21 -6 -22 -4 -17 41
6 50 6 50 -36 60 -25 6 -28 5 -20 -11z"/>
</g>
</svg>
