<?xml version="1.0" standalone="no"?>
<!DOCTYPE svg PUBLIC "-//W3C//DTD SVG 20010904//EN"
 "http://www.w3.org/TR/2001/REC-SVG-20010904/DTD/svg10.dtd">
<svg version="1.0" xmlns="http://www.w3.org/2000/svg"
 width="96.000000pt" height="68.000000pt" viewBox="0 0 96.000000 68.000000"
 preserveAspectRatio="xMidYMid meet">
<metadata>
Created by potrace 1.16, written by Peter Selinger 2001-2019
</metadata>
<g transform="translate(0.000000,68.000000) scale(0.100000,-0.100000)"
fill="#000000" stroke="none">
<path d="M685 390 c-16 -4 -46 -8 -65 -9 l-35 -1 0 -110 c0 -87 3 -110 14
-110 8 0 19 7 26 16 7 10 32 19 63 22 43 4 52 2 52 -12 0 -9 8 -16 19 -16 18
0 20 9 23 101 3 92 1 103 -17 115 -21 15 -34 16 -80 4z m48 -54 c-1 -16 -3
-30 -5 -31 -2 -2 -26 -6 -54 -10 l-51 -6 5 33 c6 41 17 49 67 46 37 -3 40 -5
38 -32z m-3 -85 c0 -24 -5 -29 -31 -35 -59 -12 -69 -8 -69 23 0 32 10 38 68
40 29 1 32 -2 32 -28z"/>
</g>
</svg>
