<?xml version="1.0" standalone="no"?>
<!DOCTYPE svg PUBLIC "-//W3C//DTD SVG 20010904//EN"
 "http://www.w3.org/TR/2001/REC-SVG-20010904/DTD/svg10.dtd">
<svg version="1.0" xmlns="http://www.w3.org/2000/svg"
 width="96.000000pt" height="68.000000pt" viewBox="0 0 96.000000 68.000000"
 preserveAspectRatio="xMidYMid meet">
<metadata>
Created by potrace 1.16, written by Peter Selinger 2001-2019
</metadata>
<g transform="translate(0.000000,68.000000) scale(0.100000,-0.100000)"
fill="#000000" stroke="none">
<path d="M530 564 c12 -19 21 -37 19 -39 -6 -5 -122 -9 -138 -4 -14 4 -50 -51
-51 -79 0 -23 34 -8 48 21 7 15 23 29 35 32 32 7 211 25 248 25 27 0 30 -2 19
-15 -7 -9 -11 -18 -8 -20 5 -6 98 24 98 31 0 3 -17 12 -37 20 -35 15 -80 14
-150 -3 -18 -4 -23 -1 -23 14 0 26 -31 53 -59 53 l-23 0 22 -36z"/>
<path d="M212 538 c3 -7 23 -26 46 -42 38 -27 44 -28 58 -15 8 9 12 23 9 32
-12 29 -122 53 -113 25z"/>
<path d="M546 464 c-107 -14 -134 -24 -67 -24 44 0 46 -2 54 -61 l5 -36 -86
-27 c-115 -36 -116 -37 -54 -31 l52 6 0 -85 c0 -82 12 -115 31 -85 4 7 12 10
16 5 8 -8 -24 -40 -82 -83 l-30 -23 43 15 c24 8 55 23 70 33 15 10 36 22 47
26 19 7 19 8 3 20 -15 11 -7 14 59 19 63 5 81 3 95 -10 10 -9 21 -14 24 -10 3
3 8 41 10 84 2 43 7 87 9 99 8 35 -28 46 -110 35 -107 -16 -107 -14 -7 35 50
25 92 50 92 55 0 20 -32 21 -53 2 -25 -22 -64 -47 -89 -56 -16 -5 -18 0 -18
38 l0 45 38 0 c37 0 72 14 56 22 -5 2 -53 -1 -108 -8z m144 -167 c0 -10 -26
-18 -82 -25 -109 -16 -128 -15 -128 3 0 20 51 30 158 34 38 1 52 -3 52 -12z
m8 -58 c2 -13 -12 -17 -80 -24 -131 -11 -138 -11 -138 10 0 9 10 15 23 16 60
2 142 10 146 15 11 10 46 -2 49 -17z m-2 -50 c12 -20 -11 -27 -111 -31 -84 -2
-100 -1 -100 12 0 11 17 16 70 21 119 10 134 9 141 -2z"/>
<path d="M150 402 c0 -17 71 -73 88 -70 24 5 27 44 5 56 -29 16 -93 26 -93 14z"/>
<path d="M398 378 c-16 -17 -28 -32 -28 -34 0 -4 81 35 90 43 4 4 -20 23 -30
22 -3 0 -17 -14 -32 -31z"/>
<path d="M242 228 c-35 -44 -72 -83 -83 -85 -22 -6 -24 -30 -7 -68 18 -40 41
-31 69 27 14 29 40 81 58 114 52 98 34 104 -37 12z"/>
<path d="M640 104 c0 -18 109 -97 125 -90 36 13 3 53 -68 84 -30 13 -57 16
-57 6z"/>
</g>
</svg>
