<?xml version="1.0" standalone="no"?>
<!DOCTYPE svg PUBLIC "-//W3C//DTD SVG 20010904//EN"
 "http://www.w3.org/TR/2001/REC-SVG-20010904/DTD/svg10.dtd">
<svg version="1.0" xmlns="http://www.w3.org/2000/svg"
 width="96.000000pt" height="68.000000pt" viewBox="0 0 96.000000 68.000000"
 preserveAspectRatio="xMidYMid meet">
<metadata>
Created by potrace 1.16, written by Peter Selinger 2001-2019
</metadata>
<g transform="translate(0.000000,68.000000) scale(0.100000,-0.100000)"
fill="#000000" stroke="none">
<path d="M228 489 c36 -32 65 -35 70 -6 4 19 -33 37 -76 37 l-27 -1 33 -30z"/>
<path d="M140 382 c0 -15 63 -62 83 -62 27 0 21 39 -8 50 -48 18 -75 22 -75
12z"/>
<path d="M231 244 c-14 -19 -44 -53 -68 -73 -24 -21 -43 -45 -43 -53 0 -18 29
-59 39 -54 13 8 103 194 100 205 -2 6 -15 -5 -28 -25z"/>
</g>
</svg>
