<?xml version="1.0" standalone="no"?>
<!DOCTYPE svg PUBLIC "-//W3C//DTD SVG 20010904//EN"
 "http://www.w3.org/TR/2001/REC-SVG-20010904/DTD/svg10.dtd">
<svg version="1.0" xmlns="http://www.w3.org/2000/svg"
 width="96.000000pt" height="68.000000pt" viewBox="0 0 96.000000 68.000000"
 preserveAspectRatio="xMidYMid meet">
<metadata>
Created by potrace 1.16, written by Peter Selinger 2001-2019
</metadata>
<g transform="translate(0.000000,68.000000) scale(0.100000,-0.100000)"
fill="#000000" stroke="none">
<path d="M286 562 l7 -60 -69 -7 c-38 -3 -78 -10 -89 -15 -18 -7 -18 -9 10
-20 21 -8 47 -9 88 -3 l57 10 0 -29 c0 -24 -4 -28 -27 -29 -40 -1 -70 -14 -54
-23 14 -9 230 4 236 14 10 16 -26 32 -65 28 -35 -3 -40 -1 -40 18 0 24 31 34
106 34 32 0 44 4 44 15 0 20 -41 29 -102 22 l-49 -6 3 52 3 52 -32 3 -33 3 6
-59z"/>
<path d="M570 556 c0 -31 -53 -162 -76 -187 -24 -27 -12 -33 19 -9 14 12 40
20 61 20 l36 0 -1 -57 c0 -32 -4 -66 -7 -76 -7 -15 -11 -14 -40 13 -18 16 -43
30 -54 30 -17 0 -12 -8 26 -41 l47 -42 -23 -24 c-13 -14 -47 -37 -77 -51 -30
-14 -49 -28 -44 -29 20 -7 120 28 138 47 10 11 21 20 25 20 3 0 31 -21 60 -46
54 -46 55 -46 113 -41 69 6 95 23 51 32 -43 9 -156 54 -178 70 -18 13 -17 16
4 84 21 69 20 110 -3 112 -24 2 39 17 76 18 20 1 37 5 37 11 0 19 -47 21 -114
6 -104 -25 -103 -27 -46 70 37 63 39 70 23 82 -28 20 -53 15 -53 -12z"/>
<path d="M305 350 c10 -11 16 -22 13 -25 -5 -5 -187 -35 -210 -35 -5 0 -6 -5
-2 -11 5 -8 31 -10 85 -5 74 6 79 5 79 -13 0 -22 -72 -100 -122 -132 l-33 -21
30 7 c39 9 120 69 142 106 12 20 25 29 44 29 42 0 53 -22 37 -71 -18 -53 -40
-69 -69 -51 -11 7 -23 12 -24 10 -7 -7 47 -68 59 -68 22 0 60 52 83 112 25 65
23 69 -49 82 -45 8 -61 36 -20 36 45 0 102 12 102 21 0 5 -22 9 -50 9 -36 0
-50 4 -50 14 0 15 -21 26 -47 26 -14 0 -14 -3 2 -20z"/>
</g>
</svg>
