<?xml version="1.0" standalone="no"?>
<!DOCTYPE svg PUBLIC "-//W3C//DTD SVG 20010904//EN"
 "http://www.w3.org/TR/2001/REC-SVG-20010904/DTD/svg10.dtd">
<svg version="1.0" xmlns="http://www.w3.org/2000/svg"
 width="96.000000pt" height="68.000000pt" viewBox="0 0 96.000000 68.000000"
 preserveAspectRatio="xMidYMid meet">
<metadata>
Created by potrace 1.16, written by Peter Selinger 2001-2019
</metadata>
<g transform="translate(0.000000,68.000000) scale(0.100000,-0.100000)"
fill="#000000" stroke="none">
<path d="M354 593 c-26 -83 -105 -177 -209 -251 -34 -24 -36 -27 -16 -30 12
-2 37 6 56 18 19 12 39 19 44 16 5 -3 14 -26 20 -50 6 -25 14 -47 18 -49 5 -2
64 1 133 7 l125 11 28 53 c28 51 28 54 10 67 -23 18 -55 18 -122 0 -30 -8 -86
-17 -125 -21 l-71 -6 31 31 c28 29 36 32 105 35 41 2 83 7 94 12 38 16 -26 22
-80 7 -86 -22 -86 -22 -17 66 l19 23 41 -27 c23 -15 42 -32 42 -36 0 -5 3 -8
8 -7 4 0 23 -6 42 -15 40 -18 55 -9 46 26 -6 25 -47 48 -124 67 -23 6 -40 15
-37 20 6 10 -29 50 -45 50 -6 0 -13 -8 -16 -17z m155 -245 c-1 -47 -13 -60
-57 -64 l-42 -4 0 39 c0 43 7 49 63 50 32 1 37 -2 36 -21z m-132 -37 c0 -38
-1 -39 -41 -44 -49 -5 -55 -1 -63 46 l-6 37 55 0 55 0 0 -39z"/>
<path d="M442 330 c-10 -16 -10 -20 1 -20 14 0 37 20 37 32 0 16 -25 8 -38
-12z"/>
<path d="M316 306 c7 -19 38 -22 32 -3 -3 6 -12 13 -21 15 -12 2 -15 -1 -11
-12z"/>
<path d="M745 543 c12 -30 17 -241 8 -353 -9 -114 -9 -115 -73 -96 l-25 8 25
-24 c35 -33 81 -68 90 -68 20 0 28 62 29 221 0 154 10 264 26 289 8 13 -36 40
-63 40 -19 0 -23 -4 -17 -17z"/>
<path d="M637 318 c3 -57 9 -107 14 -113 21 -22 30 15 27 111 -3 94 -4 99 -25
102 -22 3 -22 2 -16 -100z"/>
<path d="M425 210 c-16 -4 -53 -8 -82 -9 l-51 -1 5 -77 c6 -76 18 -102 37 -83
14 14 130 12 144 -2 21 -21 30 3 34 84 3 72 2 78 -20 88 -25 11 -24 11 -67 0z
m42 -36 c9 -24 -7 -32 -72 -36 -55 -3 -60 -1 -63 19 -3 17 3 22 25 26 67 10
104 7 110 -9z m3 -73 c0 -15 -11 -20 -61 -25 -61 -7 -74 -4 -74 17 0 16 30 25
88 26 40 1 47 -2 47 -18z"/>
</g>
</svg>
