<?xml version="1.0" standalone="no"?>
<!DOCTYPE svg PUBLIC "-//W3C//DTD SVG 20010904//EN"
 "http://www.w3.org/TR/2001/REC-SVG-20010904/DTD/svg10.dtd">
<svg version="1.0" xmlns="http://www.w3.org/2000/svg"
 width="96.000000pt" height="68.000000pt" viewBox="0 0 96.000000 68.000000"
 preserveAspectRatio="xMidYMid meet">
<metadata>
Created by potrace 1.16, written by Peter Selinger 2001-2019
</metadata>
<g transform="translate(0.000000,68.000000) scale(0.100000,-0.100000)"
fill="#000000" stroke="none">
<path d="M490 555 c16 -25 18 -35 8 -35 -31 -1 -220 -29 -225 -33 -2 -3 5 -8
16 -12 18 -5 21 -14 21 -64 0 -106 -38 -202 -121 -301 -47 -57 -49 -60 -20
-46 96 50 158 167 187 352 3 23 9 46 13 53 4 6 80 18 184 28 97 10 177 20 177
24 0 16 -59 27 -97 18 -61 -14 -83 -11 -83 9 0 19 -37 42 -66 42 -13 0 -12 -6
6 -35z"/>
<path d="M150 421 c0 -19 56 -75 68 -67 16 10 15 41 -1 54 -19 16 -67 26 -67
13z"/>
<path d="M195 294 c-22 -13 -55 -27 -72 -30 -36 -7 -40 -13 -21 -32 23 -23 54
-12 103 38 54 55 51 61 -10 24z"/>
</g>
</svg>
