<?xml version="1.0" standalone="no"?>
<!DOCTYPE svg PUBLIC "-//W3C//DTD SVG 20010904//EN"
 "http://www.w3.org/TR/2001/REC-SVG-20010904/DTD/svg10.dtd">
<svg version="1.0" xmlns="http://www.w3.org/2000/svg"
 width="96.000000pt" height="68.000000pt" viewBox="0 0 96.000000 68.000000"
 preserveAspectRatio="xMidYMid meet">
<metadata>
Created by potrace 1.16, written by Peter Selinger 2001-2019
</metadata>
<g transform="translate(0.000000,68.000000) scale(0.100000,-0.100000)"
fill="#000000" stroke="none">
<path d="M496 603 c-2 -3 -2 -29 1 -59 l6 -54 -54 -1 c-87 -1 -106 -17 -21
-18 57 -1 72 -4 72 -16 0 -22 47 -19 52 3 4 15 19 20 67 25 35 4 70 11 79 16
30 17 -13 25 -79 14 -64 -10 -60 -14 -63 51 -1 23 -7 31 -28 37 -15 4 -29 5
-32 2z"/>
</g>
</svg>
