<?xml version="1.0" standalone="no"?>
<!DOCTYPE svg PUBLIC "-//W3C//DTD SVG 20010904//EN"
 "http://www.w3.org/TR/2001/REC-SVG-20010904/DTD/svg10.dtd">
<svg version="1.0" xmlns="http://www.w3.org/2000/svg"
 width="96.000000pt" height="68.000000pt" viewBox="0 0 96.000000 68.000000"
 preserveAspectRatio="xMidYMid meet">
<metadata>
Created by potrace 1.16, written by Peter Selinger 2001-2019
</metadata>
<g transform="translate(0.000000,68.000000) scale(0.100000,-0.100000)"
fill="#000000" stroke="none">
<path d="M599 647 c0 -1 -6 -22 -12 -47 -12 -44 -13 -45 -55 -48 -48 -4 -48
-22 0 -22 26 0 30 -3 25 -22 -2 -13 -8 -31 -12 -40 -14 -35 12 -17 39 27 l29
45 69 0 c51 0 69 3 66 13 -3 7 -27 13 -61 15 -54 3 -57 4 -46 23 14 26 6 45
-20 52 -12 3 -21 4 -22 4z"/>
<path d="M290 616 c0 -2 7 -19 15 -39 14 -33 13 -35 -8 -41 -12 -3 -41 -6 -64
-6 -48 0 -56 -15 -18 -32 19 -8 35 -8 64 0 50 16 47 17 61 -18 17 -41 33 -38
28 5 -4 33 -2 36 34 47 50 15 48 25 -4 24 -41 -1 -43 0 -46 32 -3 28 -7 32
-33 32 -16 0 -29 -2 -29 -4z"/>
</g>
</svg>
