<?xml version="1.0" standalone="no"?>
<!DOCTYPE svg PUBLIC "-//W3C//DTD SVG 20010904//EN"
 "http://www.w3.org/TR/2001/REC-SVG-20010904/DTD/svg10.dtd">
<svg version="1.0" xmlns="http://www.w3.org/2000/svg"
 width="96.000000pt" height="68.000000pt" viewBox="0 0 96.000000 68.000000"
 preserveAspectRatio="xMidYMid meet">
<metadata>
Created by potrace 1.16, written by Peter Selinger 2001-2019
</metadata>
<g transform="translate(0.000000,68.000000) scale(0.100000,-0.100000)"
fill="#000000" stroke="none">
<path d="M311 565 c-36 -7 -71 -11 -78 -8 -7 3 -19 3 -27 0 -12 -5 -12 -14 0
-64 8 -32 14 -71 14 -87 0 -26 -2 -28 -34 -24 -30 3 -35 0 -50 -35 -17 -40
-14 -57 9 -57 8 0 17 15 21 34 5 31 10 35 47 42 23 4 45 7 50 6 4 -1 7 1 7 6
0 4 12 7 28 8 15 0 51 3 81 7 53 6 53 6 47 -18 -8 -29 -9 -29 39 -10 29 13 34
19 25 30 -6 7 -25 17 -41 20 -34 8 -34 9 -13 83 16 53 15 56 -2 69 -21 15 -37
15 -123 -2z m69 -40 c0 -25 -17 -31 -72 -26 -13 2 -15 -5 -11 -38 7 -49 -1
-73 -22 -65 -11 5 -15 22 -15 69 l0 63 53 10 c28 5 55 10 60 11 4 0 7 -10 7
-24z m-5 -77 c-9 -42 -13 -48 -31 -48 -10 0 -14 12 -14 40 0 36 2 40 26 40 24
0 25 -2 19 -32z"/>
<path d="M570 565 c0 -19 53 -75 71 -75 24 0 25 31 2 53 -20 17 -73 33 -73 22z"/>
<path d="M672 483 c-20 -3 -30 -8 -26 -15 4 -7 2 -8 -4 -4 -16 10 -172 -15
-166 -26 4 -5 27 -8 53 -6 64 4 66 -21 5 -90 -56 -64 -51 -81 20 -63 80 20 84
15 36 -35 -25 -25 -65 -57 -89 -72 -51 -30 -38 -43 15 -15 46 24 160 117 203
165 l34 39 -21 19 c-28 26 -29 26 -45 -12 -8 -18 -20 -38 -28 -44 -16 -13
-109 -25 -109 -15 0 8 68 92 83 102 4 3 5 12 2 21 -5 12 9 16 81 22 93 7 100
9 89 25 -6 11 -65 12 -133 4z"/>
<path d="M305 328 c-22 -5 -50 -7 -62 -5 -20 4 -21 1 -16 -44 3 -29 -1 -74
-12 -118 -9 -39 -14 -78 -11 -87 11 -28 31 -8 41 42 l11 49 63 3 62 3 -3 -38
c-3 -33 -6 -38 -25 -36 -30 3 -29 -8 2 -37 24 -23 26 -23 43 -7 13 14 18 43
23 140 7 154 0 163 -116 135z m73 -32 c5 -26 -6 -34 -66 -42 l-54 -7 4 29 c2
24 9 30 38 35 53 10 74 6 78 -15z m9 -76 c-4 -27 -4 -27 -69 -34 -57 -7 -58
-7 -58 18 0 26 12 30 97 34 28 2 32 -1 30 -18z"/>
<path d="M716 242 c-16 -31 -76 -84 -158 -137 -64 -43 -44 -46 32 -5 109 60
95 59 149 6 48 -47 71 -53 71 -17 0 21 -40 61 -61 61 -8 0 -21 5 -29 10 -12 9
-8 16 24 44 34 30 38 36 27 50 -20 24 -39 19 -55 -12z"/>
</g>
</svg>
