<?xml version="1.0" standalone="no"?>
<!DOCTYPE svg PUBLIC "-//W3C//DTD SVG 20010904//EN"
 "http://www.w3.org/TR/2001/REC-SVG-20010904/DTD/svg10.dtd">
<svg version="1.0" xmlns="http://www.w3.org/2000/svg"
 width="90.000000pt" height="92.000000pt" viewBox="0 0 90.000000 92.000000"
 preserveAspectRatio="xMidYMid meet">
<metadata>
Created by potrace 1.16, written by Peter Selinger 2001-2019
</metadata>
<g transform="translate(0.000000,92.000000) scale(0.100000,-0.100000)"
fill="#000000" stroke="none">
<path d="M505 880 c-24 -26 -142 -83 -218 -105 -31 -9 -57 -19 -57 -22 0 -3
32 -3 70 0 l70 6 0 -39 c0 -42 2 -41 -102 -55 -79 -10 -56 -35 33 -35 52 0 56
-4 38 -43 -10 -22 -21 -26 -98 -36 -48 -6 -110 -11 -139 -11 -64 0 -75 -16
-26 -36 35 -15 45 -15 111 0 41 9 85 16 98 16 l25 0 -37 -62 c-37 -59 -187
-222 -247 -267 -45 -33 -23 -36 35 -4 62 33 163 124 204 183 20 29 31 37 36
28 12 -18 11 -127 -2 -208 -8 -55 -8 -75 3 -96 15 -32 38 -43 38 -20 0 13 13
16 69 16 38 0 82 3 98 6 26 5 31 1 48 -30 22 -41 30 -41 59 -2 18 24 20 38 16
104 -6 102 -6 189 0 231 4 30 1 38 -27 57 -32 21 -33 21 -106 4 -40 -10 -97
-21 -125 -25 -60 -8 -63 -2 -31 55 19 34 26 38 73 44 28 3 124 6 213 6 89 0
164 4 167 9 3 4 -2 15 -12 24 -33 30 -62 34 -140 21 -41 -8 -116 -17 -165 -20
-83 -7 -90 -6 -84 10 4 10 7 21 7 26 0 24 36 39 110 46 44 3 87 12 97 19 15
11 12 14 -20 24 -27 9 -51 9 -93 2 -32 -6 -60 -11 -62 -11 -2 0 3 11 12 25 15
23 15 26 -2 43 -18 18 -17 20 66 48 46 16 87 35 89 42 6 14 -35 51 -58 52 -9
0 -24 -9 -34 -20z m65 -495 c0 -33 -2 -34 -29 -29 -16 3 -63 -1 -106 -10 -42
-9 -79 -16 -81 -16 -2 0 -4 16 -4 35 0 32 3 35 38 40 20 4 42 8 47 10 6 2 38
4 73 4 l62 1 0 -35z m0 -97 l0 -43 -52 -1 c-29 0 -79 -4 -110 -8 l-58 -9 0 34
0 35 108 15 c59 9 108 17 110 17 1 1 2 -17 2 -40z m-2 -129 c-3 -20 -10 -22
-110 -26 l-108 -4 0 37 c0 26 4 35 13 31 8 -3 56 0 108 7 102 12 106 11 97
-45z"/>
</g>
</svg>
