<?xml version="1.0" standalone="no"?>
<!DOCTYPE svg PUBLIC "-//W3C//DTD SVG 20010904//EN"
 "http://www.w3.org/TR/2001/REC-SVG-20010904/DTD/svg10.dtd">
<svg version="1.0" xmlns="http://www.w3.org/2000/svg"
 width="96.000000pt" height="68.000000pt" viewBox="0 0 96.000000 68.000000"
 preserveAspectRatio="xMidYMid meet">
<metadata>
Created by potrace 1.16, written by Peter Selinger 2001-2019
</metadata>
<g transform="translate(0.000000,68.000000) scale(0.100000,-0.100000)"
fill="#000000" stroke="none">
<path d="M590 596 c-8 -8 -42 -28 -75 -45 -71 -36 -53 -39 53 -9 92 25 104 34
78 54 -25 18 -38 18 -56 0z"/>
<path d="M668 480 c-33 -45 -34 -48 -13 -40 44 17 107 62 99 70 -29 26 -50 19
-86 -30z"/>
<path d="M537 470 c18 -31 37 -38 48 -19 9 14 -24 49 -47 49 -19 0 -19 -1 -1
-30z"/>
<path d="M432 448 c30 -39 46 -45 55 -22 8 20 -29 54 -59 54 -20 0 -19 -1 4
-32z"/>
</g>
</svg>
