<?xml version="1.0" standalone="no"?>
<!DOCTYPE svg PUBLIC "-//W3C//DTD SVG 20010904//EN"
 "http://www.w3.org/TR/2001/REC-SVG-20010904/DTD/svg10.dtd">
<svg version="1.0" xmlns="http://www.w3.org/2000/svg"
 width="96.000000pt" height="68.000000pt" viewBox="0 0 96.000000 68.000000"
 preserveAspectRatio="xMidYMid meet">
<metadata>
Created by potrace 1.16, written by Peter Selinger 2001-2019
</metadata>
<g transform="translate(0.000000,68.000000) scale(0.100000,-0.100000)"
fill="#000000" stroke="none">
<path d="M637 228 c-8 -18 -24 -42 -36 -52 -22 -20 -27 -41 -12 -50 5 -3 35 3
67 14 39 14 61 17 68 10 15 -15 26 -12 26 6 0 18 -27 43 -47 44 -6 0 -9 -8 -6
-19 4 -15 -2 -20 -29 -24 -18 -2 -35 -3 -37 -1 -2 1 11 20 28 40 23 29 28 41
19 51 -17 20 -27 16 -41 -19z"/>
</g>
</svg>
