<?xml version="1.0" standalone="no"?>
<!DOCTYPE svg PUBLIC "-//W3C//DTD SVG 20010904//EN"
 "http://www.w3.org/TR/2001/REC-SVG-20010904/DTD/svg10.dtd">
<svg version="1.0" xmlns="http://www.w3.org/2000/svg"
 width="96.000000pt" height="68.000000pt" viewBox="0 0 96.000000 68.000000"
 preserveAspectRatio="xMidYMid meet">
<metadata>
Created by potrace 1.16, written by Peter Selinger 2001-2019
</metadata>
<g transform="translate(0.000000,68.000000) scale(0.100000,-0.100000)"
fill="#000000" stroke="none">
<path d="M450 430 c-7 -17 -30 -48 -51 -70 -41 -42 -41 -53 1 -20 14 11 29 20
34 20 5 0 6 -28 3 -64 -4 -45 -2 -69 7 -82 13 -17 14 -17 21 5 4 12 5 55 4 96
-3 67 -1 76 21 100 21 22 22 28 10 35 -25 16 -37 11 -50 -20z"/>
</g>
</svg>
