<?xml version="1.0" standalone="no"?>
<!DOCTYPE svg PUBLIC "-//W3C//DTD SVG 20010904//EN"
 "http://www.w3.org/TR/2001/REC-SVG-20010904/DTD/svg10.dtd">
<svg version="1.0" xmlns="http://www.w3.org/2000/svg"
 width="96.000000pt" height="68.000000pt" viewBox="0 0 96.000000 68.000000"
 preserveAspectRatio="xMidYMid meet">
<metadata>
Created by potrace 1.16, written by Peter Selinger 2001-2019
</metadata>
<g transform="translate(0.000000,68.000000) scale(0.100000,-0.100000)"
fill="#000000" stroke="none">
<path d="M420 231 c0 -20 -25 -31 -73 -31 -18 0 -26 -4 -21 -11 4 -7 23 -9 50
-5 38 5 44 3 44 -13 0 -21 -35 -31 -112 -31 -33 0 -47 -4 -42 -11 7 -11 190
-5 319 10 58 7 59 8 32 19 -16 7 -38 10 -50 8 -12 -3 -41 -7 -64 -10 -38 -6
-43 -4 -43 14 0 16 9 21 50 26 28 4 50 10 50 15 0 5 -22 9 -50 9 -38 0 -50 4
-50 15 0 8 -9 15 -20 15 -13 0 -20 -7 -20 -19z"/>
</g>
</svg>
