<?xml version="1.0" standalone="no"?>
<!DOCTYPE svg PUBLIC "-//W3C//DTD SVG 20010904//EN"
 "http://www.w3.org/TR/2001/REC-SVG-20010904/DTD/svg10.dtd">
<svg version="1.0" xmlns="http://www.w3.org/2000/svg"
 width="90.000000pt" height="92.000000pt" viewBox="0 0 90.000000 92.000000"
 preserveAspectRatio="xMidYMid meet">
<metadata>
Created by potrace 1.16, written by Peter Selinger 2001-2019
</metadata>
<g transform="translate(0.000000,92.000000) scale(0.100000,-0.100000)"
fill="#000000" stroke="none">
<path d="M125 771 c-3 -6 -2 -19 3 -28 14 -27 25 -170 14 -177 -6 -3 -38 -9
-71 -12 -34 -4 -61 -9 -61 -11 0 -2 6 -14 14 -26 8 -12 17 -42 21 -67 11 -69
23 -96 37 -82 7 7 25 12 40 12 28 0 28 -1 28 -60 0 -57 -2 -61 -27 -72 -16 -6
-49 -11 -75 -12 -55 -1 -63 -19 -22 -50 26 -18 26 -18 122 27 133 61 141 63
158 38 25 -35 46 -27 42 16 -2 30 -10 42 -37 60 -47 31 -67 31 -46 -1 16 -23
15 -24 -30 -39 l-45 -16 0 60 c0 58 1 59 28 59 41 0 72 11 72 25 0 14 34 90
53 118 10 15 8 21 -13 38 -20 17 -33 19 -80 14 l-56 -7 7 64 c4 35 10 71 14
80 4 11 -1 21 -17 31 -34 22 -65 29 -73 18z m145 -243 c0 -13 -5 -39 -10 -59
-8 -30 -16 -38 -40 -41 l-30 -5 0 57 c0 31 3 60 7 63 3 4 21 7 40 7 28 0 33
-4 33 -22z m-120 -53 c0 -65 0 -65 -28 -65 -26 0 -30 4 -41 52 -12 56 -9 64
29 71 14 2 28 5 33 6 4 0 7 -28 7 -64z"/>
<path d="M530 731 c0 -5 13 -23 29 -40 15 -16 60 -82 99 -144 40 -63 78 -120
87 -127 17 -14 93 -6 120 14 15 11 10 16 -47 49 -77 46 -111 76 -183 167 -60
75 -105 110 -105 81z"/>
<path d="M430 615 c0 -31 -49 -140 -89 -201 -25 -35 -27 -42 -11 -34 35 19 91
83 130 150 l38 65 -21 23 c-27 29 -47 28 -47 -3z"/>
<path d="M516 439 c-8 -41 -92 -182 -133 -222 l-32 -33 25 -32 c24 -30 27 -31
52 -18 15 7 70 26 122 41 52 15 100 30 106 32 6 2 23 -16 38 -41 34 -59 56
-61 56 -4 0 51 -33 97 -96 134 -25 15 -47 25 -49 22 -2 -2 7 -20 21 -40 15
-20 24 -41 20 -46 -6 -11 -185 -37 -193 -28 -4 3 24 51 60 105 37 54 67 103
67 108 0 10 -42 53 -52 53 -3 0 -8 -14 -12 -31z"/>
</g>
</svg>
