<?xml version="1.0" standalone="no"?>
<!DOCTYPE svg PUBLIC "-//W3C//DTD SVG 20010904//EN"
 "http://www.w3.org/TR/2001/REC-SVG-20010904/DTD/svg10.dtd">
<svg version="1.0" xmlns="http://www.w3.org/2000/svg"
 width="96.000000pt" height="68.000000pt" viewBox="0 0 96.000000 68.000000"
 preserveAspectRatio="xMidYMid meet">
<metadata>
Created by potrace 1.16, written by Peter Selinger 2001-2019
</metadata>
<g transform="translate(0.000000,68.000000) scale(0.100000,-0.100000)"
fill="#000000" stroke="none">
<path d="M582 488 c18 -18 60 -68 93 -110 l60 -78 52 0 c28 0 54 4 58 10 3 5
-20 22 -52 37 -33 16 -90 59 -134 101 -42 39 -84 72 -93 72 -13 0 -9 -8 16
-32z"/>
<path d="M451 394 c-13 -30 -35 -69 -49 -85 -37 -44 -20 -46 28 -3 60 54 102
118 87 133 -24 24 -43 11 -66 -45z"/>
</g>
</svg>
