<?xml version="1.0" standalone="no"?>
<!DOCTYPE svg PUBLIC "-//W3C//DTD SVG 20010904//EN"
 "http://www.w3.org/TR/2001/REC-SVG-20010904/DTD/svg10.dtd">
<svg version="1.0" xmlns="http://www.w3.org/2000/svg"
 width="90.000000pt" height="92.000000pt" viewBox="0 0 90.000000 92.000000"
 preserveAspectRatio="xMidYMid meet">
<metadata>
Created by potrace 1.16, written by Peter Selinger 2001-2019
</metadata>
<g transform="translate(0.000000,92.000000) scale(0.100000,-0.100000)"
fill="#000000" stroke="none">
<path d="M370 842 c0 -10 5 -23 10 -28 7 -7 9 -69 8 -165 l-3 -154 -100 -12
c-55 -6 -120 -12 -144 -12 -36 -1 -41 -3 -32 -15 26 -31 64 -37 131 -22 35 8
65 14 67 12 2 -1 -4 -25 -12 -53 -25 -83 -148 -240 -220 -281 -30 -16 -12 -24
26 -10 89 30 172 116 236 241 23 47 33 77 29 93 -6 22 -3 24 28 24 19 0 38 -5
42 -12 4 -7 11 -71 14 -143 5 -111 10 -137 28 -167 32 -51 81 -71 172 -72 80
0 137 14 183 47 33 22 33 35 -1 147 -20 69 -24 67 -37 -19 -10 -64 -47 -97
-116 -106 -51 -6 -118 4 -145 22 -35 24 -46 147 -22 239 12 42 11 47 -7 60
-16 12 -3 14 113 14 73 0 132 4 132 8 0 13 -32 39 -56 46 -11 3 -65 -1 -120
-9 -54 -8 -105 -15 -111 -15 -19 0 -17 222 2 274 16 47 13 53 -31 72 -45 19
-64 18 -64 -4z"/>
<path d="M600 739 c0 -6 -25 -37 -57 -70 -31 -32 -54 -61 -52 -64 6 -5 180 64
194 77 7 6 -1 19 -23 39 -33 29 -62 38 -62 18z"/>
<path d="M206 682 c-8 -14 68 -107 91 -110 25 -4 38 26 28 59 -9 27 -107 70
-119 51z"/>
</g>
</svg>
