<?xml version="1.0" standalone="no"?>
<!DOCTYPE svg PUBLIC "-//W3C//DTD SVG 20010904//EN"
 "http://www.w3.org/TR/2001/REC-SVG-20010904/DTD/svg10.dtd">
<svg version="1.0" xmlns="http://www.w3.org/2000/svg"
 width="96.000000pt" height="68.000000pt" viewBox="0 0 96.000000 68.000000"
 preserveAspectRatio="xMidYMid meet">
<metadata>
Created by potrace 1.16, written by Peter Selinger 2001-2019
</metadata>
<g transform="translate(0.000000,68.000000) scale(0.100000,-0.100000)"
fill="#000000" stroke="none">
<path d="M387 603 c-3 -5 -2 -15 4 -23 5 -8 9 -65 9 -127 l0 -111 -72 -7 c-62
-5 -115 -10 -163 -15 -5 0 3 -8 18 -16 23 -13 37 -13 83 -4 31 7 58 9 61 7 3
-3 0 -21 -6 -40 -14 -40 -86 -121 -154 -171 -27 -20 -43 -36 -35 -36 21 1 100
39 136 67 37 27 123 156 119 176 -1 7 9 12 28 12 l30 0 11 -100 c6 -55 14
-108 18 -117 17 -37 58 -52 156 -56 83 -4 102 -1 143 18 26 12 47 26 47 32 0
18 -35 128 -41 128 -4 0 -9 -17 -13 -38 -3 -22 -15 -51 -27 -65 -19 -25 -25
-27 -105 -27 -78 0 -87 2 -111 26 -23 23 -25 30 -18 82 3 31 8 72 9 91 l3 35
102 -3 c86 -2 101 0 101 13 0 24 -42 29 -158 22 l-105 -7 5 95 c3 57 10 102
18 111 11 13 11 18 -1 30 -17 17 -85 30 -92 18z"/>
<path d="M541 475 c-30 -30 -50 -55 -44 -55 19 0 168 51 178 61 13 13 -32 48
-60 49 -11 0 -44 -24 -74 -55z"/>
<path d="M240 473 c0 -5 16 -25 36 -46 43 -45 68 -45 72 -1 3 28 -1 33 -29 43
-37 13 -79 15 -79 4z"/>
</g>
</svg>
