<?xml version="1.0" standalone="no"?>
<!DOCTYPE svg PUBLIC "-//W3C//DTD SVG 20010904//EN"
 "http://www.w3.org/TR/2001/REC-SVG-20010904/DTD/svg10.dtd">
<svg version="1.0" xmlns="http://www.w3.org/2000/svg"
 width="96.000000pt" height="68.000000pt" viewBox="0 0 96.000000 68.000000"
 preserveAspectRatio="xMidYMid meet">
<metadata>
Created by potrace 1.16, written by Peter Selinger 2001-2019
</metadata>
<g transform="translate(0.000000,68.000000) scale(0.100000,-0.100000)"
fill="#000000" stroke="none">
<path d="M586 543 c4 -10 10 -82 12 -160 4 -133 5 -143 23 -143 17 0 19 8 19
64 l0 64 67 7 c73 8 93 13 93 25 0 14 -64 18 -107 7 -23 -6 -44 -9 -46 -6 -3
2 0 35 5 73 10 77 6 86 -46 86 -23 0 -27 -3 -20 -17z"/>
</g>
</svg>
