<?xml version="1.0" standalone="no"?>
<!DOCTYPE svg PUBLIC "-//W3C//DTD SVG 20010904//EN"
 "http://www.w3.org/TR/2001/REC-SVG-20010904/DTD/svg10.dtd">
<svg version="1.0" xmlns="http://www.w3.org/2000/svg"
 width="90.000000pt" height="92.000000pt" viewBox="0 0 90.000000 92.000000"
 preserveAspectRatio="xMidYMid meet">
<metadata>
Created by potrace 1.16, written by Peter Selinger 2001-2019
</metadata>
<g transform="translate(0.000000,92.000000) scale(0.100000,-0.100000)"
fill="#000000" stroke="none">
<path d="M338 834 c-3 -3 -4 -32 -1 -64 3 -32 0 -95 -7 -139 l-12 -80 -88 -20
c-48 -12 -99 -21 -114 -21 -35 0 -33 -16 4 -35 27 -14 35 -13 107 10 42 13 78
23 79 22 5 -5 -38 -116 -68 -177 -23 -46 -58 -90 -117 -149 -59 -58 -78 -81
-61 -76 41 12 95 42 128 70 63 53 144 199 172 312 10 40 13 42 76 63 36 12 68
20 71 17 3 -3 -7 -50 -21 -105 -28 -106 -35 -227 -15 -265 36 -70 112 -107
218 -107 74 0 122 14 151 45 22 23 22 25 6 50 -9 14 -20 48 -23 75 -3 28 -9
50 -12 50 -4 0 -16 -28 -27 -62 -25 -79 -44 -91 -136 -84 -37 3 -77 10 -88 16
-25 14 -50 67 -50 108 0 49 40 184 73 246 l31 58 -23 19 c-30 25 -42 24 -129
-7 -40 -15 -74 -25 -76 -23 -4 4 29 181 38 205 3 7 -10 22 -28 33 -34 22 -48
25 -58 15z"/>
</g>
</svg>
