<?xml version="1.0" standalone="no"?>
<!DOCTYPE svg PUBLIC "-//W3C//DTD SVG 20010904//EN"
 "http://www.w3.org/TR/2001/REC-SVG-20010904/DTD/svg10.dtd">
<svg version="1.0" xmlns="http://www.w3.org/2000/svg"
 width="96.000000pt" height="68.000000pt" viewBox="0 0 96.000000 68.000000"
 preserveAspectRatio="xMidYMid meet">
<metadata>
Created by potrace 1.16, written by Peter Selinger 2001-2019
</metadata>
<g transform="translate(0.000000,68.000000) scale(0.100000,-0.100000)"
fill="#000000" stroke="none">
<path d="M550 560 c0 -17 23 -60 32 -60 5 0 6 -4 3 -10 -3 -5 3 -10 15 -10 36
0 37 30 2 62 -33 29 -52 36 -52 18z"/>
<path d="M295 515 c-16 -8 -58 -14 -92 -15 -66 0 -72 -3 -49 -26 8 -8 20 -39
27 -69 12 -55 13 -56 42 -49 41 9 47 -5 47 -114 l0 -93 -32 3 c-32 3 -33 4
-36 58 -4 71 -7 80 -30 80 -17 0 -18 -5 -11 -42 4 -24 8 -58 9 -75 0 -31 -2
-33 -35 -33 -41 0 -44 -8 -9 -34 25 -18 27 -18 160 25 149 49 188 84 47 43
-22 -6 -23 -4 -23 45 0 50 1 51 29 51 16 0 37 3 46 6 27 11 -4 23 -42 17 l-34
-6 3 41 c3 37 6 41 34 47 26 4 31 9 27 25 -3 11 -2 28 3 37 4 10 8 21 8 25 1
3 4 10 9 14 15 16 6 32 -24 43 -38 13 -36 13 -74 -4z m25 -64 c0 -34 -13 -46
-58 -54 -34 -7 -35 -6 -46 45 -7 29 3 34 72 37 29 1 32 -2 32 -28z"/>
<path d="M555 460 c-77 -10 -146 -19 -153 -19 -7 -1 -10 -5 -7 -11 3 -5 31
-10 60 -10 50 0 55 -2 61 -26 9 -37 -2 -143 -22 -203 -16 -50 -13 -101 6 -101
18 0 40 59 45 117 14 170 14 212 2 216 -7 2 5 8 25 12 52 10 64 3 71 -42 11
-61 8 -252 -3 -273 -8 -15 -17 -18 -43 -14 l-32 6 39 -36 c46 -42 47 -42 70
-17 15 16 17 43 17 199 -1 204 -7 192 92 192 46 0 62 12 31 24 -25 10 -108 5
-259 -14z"/>
<path d="M426 304 c-4 -15 -16 -40 -27 -55 -32 -45 -4 -43 35 3 38 44 43 70
15 76 -11 2 -19 -6 -23 -24z"/>
<path d="M746 293 c9 -16 27 -43 38 -60 25 -38 56 -44 56 -10 0 27 -35 68 -73
85 -39 17 -42 16 -21 -15z"/>
</g>
</svg>
