<?xml version="1.0" standalone="no"?>
<!DOCTYPE svg PUBLIC "-//W3C//DTD SVG 20010904//EN"
 "http://www.w3.org/TR/2001/REC-SVG-20010904/DTD/svg10.dtd">
<svg version="1.0" xmlns="http://www.w3.org/2000/svg"
 width="96.000000pt" height="68.000000pt" viewBox="0 0 96.000000 68.000000"
 preserveAspectRatio="xMidYMid meet">
<metadata>
Created by potrace 1.16, written by Peter Selinger 2001-2019
</metadata>
<g transform="translate(0.000000,68.000000) scale(0.100000,-0.100000)"
fill="#000000" stroke="none">
<path d="M534 553 c17 -91 18 -113 3 -113 -8 0 -28 -3 -45 -6 -30 -6 -31 -5
-34 32 -2 26 -8 40 -19 42 -13 2 -17 -9 -22 -50 -4 -29 -3 -56 1 -60 5 -5 37
-2 73 6 98 22 179 29 179 17 0 -6 8 -11 18 -11 26 0 57 106 35 114 -34 13 -43
6 -43 -33 0 -38 -1 -39 -41 -46 -22 -4 -43 -4 -47 0 -4 4 -7 34 -7 68 0 61 -1
62 -28 65 -27 3 -29 1 -23 -25z"/>
</g>
</svg>
