<?xml version="1.0" standalone="no"?>
<!DOCTYPE svg PUBLIC "-//W3C//DTD SVG 20010904//EN"
 "http://www.w3.org/TR/2001/REC-SVG-20010904/DTD/svg10.dtd">
<svg version="1.0" xmlns="http://www.w3.org/2000/svg"
 width="96.000000pt" height="68.000000pt" viewBox="0 0 96.000000 68.000000"
 preserveAspectRatio="xMidYMid meet">
<metadata>
Created by potrace 1.16, written by Peter Selinger 2001-2019
</metadata>
<g transform="translate(0.000000,68.000000) scale(0.100000,-0.100000)"
fill="#000000" stroke="none">
<path d="M234 495 c45 -40 76 -46 76 -14 0 22 -52 49 -92 49 -21 -1 -19 -4 16
-35z"/>
<path d="M140 374 c40 -53 90 -72 90 -34 0 20 -20 32 -78 47 -25 6 -26 5 -12
-13z"/>
<path d="M264 253 c-15 -21 -47 -59 -72 -84 l-43 -46 15 -37 c14 -33 46 -51
46 -25 0 6 21 58 46 116 25 58 43 107 41 110 -3 2 -18 -13 -33 -34z"/>
</g>
</svg>
