<?xml version="1.0" standalone="no"?>
<!DOCTYPE svg PUBLIC "-//W3C//DTD SVG 20010904//EN"
 "http://www.w3.org/TR/2001/REC-SVG-20010904/DTD/svg10.dtd">
<svg version="1.0" xmlns="http://www.w3.org/2000/svg"
 width="96.000000pt" height="68.000000pt" viewBox="0 0 96.000000 68.000000"
 preserveAspectRatio="xMidYMid meet">
<metadata>
Created by potrace 1.16, written by Peter Selinger 2001-2019
</metadata>
<g transform="translate(0.000000,68.000000) scale(0.100000,-0.100000)"
fill="#000000" stroke="none">
<path d="M520 597 c0 -7 7 -23 16 -35 15 -22 15 -22 -33 -23 -26 0 -57 -4 -68
-8 -36 -14 33 -20 130 -10 124 12 155 18 155 31 0 7 -22 9 -65 6 -54 -5 -65
-3 -65 10 0 18 -29 41 -52 42 -10 0 -18 -6 -18 -13z"/>
</g>
</svg>
