<?xml version="1.0" standalone="no"?>
<!DOCTYPE svg PUBLIC "-//W3C//DTD SVG 20010904//EN"
 "http://www.w3.org/TR/2001/REC-SVG-20010904/DTD/svg10.dtd">
<svg version="1.0" xmlns="http://www.w3.org/2000/svg"
 width="90.000000pt" height="92.000000pt" viewBox="0 0 90.000000 92.000000"
 preserveAspectRatio="xMidYMid meet">
<metadata>
Created by potrace 1.16, written by Peter Selinger 2001-2019
</metadata>
<g transform="translate(0.000000,92.000000) scale(0.100000,-0.100000)"
fill="#000000" stroke="none">
<path d="M560 829 c-14 -11 -65 -40 -115 -65 -109 -53 -84 -59 57 -15 51 16
105 32 121 35 33 8 35 29 5 50 -29 21 -38 20 -68 -5z"/>
<path d="M680 751 c0 -5 -20 -36 -45 -70 -25 -34 -43 -61 -40 -61 11 0 155 85
155 91 0 9 -50 49 -61 49 -5 0 -9 -4 -9 -9z"/>
<path d="M160 694 c-20 -8 -52 -11 -74 -9 -36 5 -38 4 -31 -17 14 -48 17 -186
5 -280 -10 -78 -10 -104 0 -128 14 -35 26 -38 35 -10 5 16 15 20 51 20 41 0
46 -3 61 -35 20 -42 27 -43 50 -9 15 23 17 53 15 241 -1 194 -3 216 -19 229
-22 16 -47 16 -93 -2z m60 -116 l0 -83 -55 -2 -55 -2 0 78 c0 88 1 89 68 90
l42 1 0 -82z m-2 -189 l-3 -81 -59 -4 -59 -5 7 32 c3 17 6 53 6 80 l0 48 48 4
c26 2 51 4 55 5 4 1 7 -34 5 -79z"/>
<path d="M460 694 c0 -4 10 -22 21 -41 25 -40 62 -43 67 -6 2 16 -5 26 -27 37
-31 16 -61 21 -61 10z"/>
<path d="M330 667 c0 -22 55 -81 68 -73 16 10 15 51 0 63 -23 18 -68 25 -68
10z"/>
<path d="M579 585 c-3 -2 -50 -14 -104 -25 -134 -29 -134 -29 -111 -42 10 -6
33 -8 52 -5 33 6 34 5 34 -28 0 -38 -6 -41 -90 -51 -68 -8 -80 -16 -45 -32 16
-7 35 -8 57 -1 67 19 71 15 43 -40 -31 -63 -110 -157 -163 -196 -54 -39 -53
-51 0 -24 59 30 112 75 144 120 15 22 32 39 38 39 7 0 31 -20 55 -44 l42 -43
-32 -27 c-34 -29 -92 -61 -148 -81 l-36 -14 53 0 c58 -1 109 16 160 55 l33 26
59 -56 c56 -54 60 -56 112 -55 59 1 130 19 129 34 0 5 -35 18 -78 30 -77 20
-183 70 -183 86 0 5 20 33 45 63 25 31 45 58 45 61 0 3 -13 13 -30 23 -27 17
-36 17 -92 6 -67 -14 -108 -17 -108 -9 0 17 32 63 46 69 10 4 61 9 113 12 123
7 161 12 161 25 0 5 -15 16 -32 23 -28 12 -46 11 -123 -5 -119 -24 -116 -25
-108 11 4 22 2 30 -8 30 -29 1 16 17 81 30 76 14 87 19 69 31 -15 9 -72 12
-80 4z m21 -257 c0 -16 -37 -78 -47 -78 -4 0 -22 15 -41 33 l-33 32 48 12 c64
15 73 15 73 1z"/>
</g>
</svg>
