<?xml version="1.0" standalone="no"?>
<!DOCTYPE svg PUBLIC "-//W3C//DTD SVG 20010904//EN"
 "http://www.w3.org/TR/2001/REC-SVG-20010904/DTD/svg10.dtd">
<svg version="1.0" xmlns="http://www.w3.org/2000/svg"
 width="96.000000pt" height="68.000000pt" viewBox="0 0 96.000000 68.000000"
 preserveAspectRatio="xMidYMid meet">
<metadata>
Created by potrace 1.16, written by Peter Selinger 2001-2019
</metadata>
<g transform="translate(0.000000,68.000000) scale(0.100000,-0.100000)"
fill="#000000" stroke="none">
<path d="M540 556 c-19 -13 -55 -30 -80 -39 -65 -22 -23 -20 78 4 105 26 110
28 87 46 -26 18 -44 16 -85 -11z"/>
<path d="M637 475 c-21 -25 -36 -45 -33 -45 11 0 116 52 116 58 0 6 -32 31
-40 32 -3 0 -23 -20 -43 -45z"/>
<path d="M230 480 c-14 -4 -43 -8 -65 -9 l-41 -1 4 -98 c2 -54 -1 -115 -6
-135 -18 -66 15 -122 48 -82 20 24 58 18 86 -12 l24 -28 20 23 c17 21 19 38
18 173 -1 140 -3 151 -22 165 -22 15 -29 16 -66 4z m30 -85 c0 -46 -3 -55 -17
-55 -10 0 -28 -3 -40 -6 -22 -6 -23 -4 -23 49 0 59 5 65 53 66 26 1 27 0 27
-54z m0 -140 l0 -55 -46 0 -46 0 6 31 c3 17 6 40 6 50 0 17 17 24 63 28 14 1
17 -8 17 -54z"/>
<path d="M480 469 c0 -5 10 -17 22 -28 15 -15 25 -18 34 -10 7 6 11 16 8 24
-6 14 -64 27 -64 14z"/>
<path d="M370 451 c0 -15 30 -41 46 -41 24 0 15 30 -12 40 -31 12 -34 12 -34
1z"/>
<path d="M492 378 c-101 -20 -123 -32 -59 -33 27 0 32 -4 35 -27 3 -25 0 -28
-25 -28 -48 0 -103 -12 -103 -22 0 -7 21 -8 55 -3 30 3 55 4 55 2 0 -29 -69
-111 -133 -156 -26 -19 -45 -36 -43 -38 8 -8 82 36 128 77 53 46 69 46 109 4
24 -25 24 -26 4 -41 -11 -8 -47 -28 -80 -44 -33 -15 -51 -28 -40 -28 28 -1
114 26 143 45 22 15 26 13 79 -26 54 -42 56 -42 115 -36 101 12 112 21 43 36
-63 13 -154 45 -169 60 -5 5 7 28 28 53 50 61 36 72 -74 62 -81 -7 -91 -3 -67
28 13 18 114 36 199 37 26 0 49 4 53 9 10 17 -65 24 -128 11 -91 -18 -90 -18
-91 12 -1 23 3 27 34 33 76 13 90 17 84 26 -7 12 -31 10 -152 -13z m108 -165
c0 -5 -10 -20 -23 -36 l-22 -27 -35 27 -35 28 40 6 c61 9 75 10 75 2z"/>
</g>
</svg>
