<?xml version="1.0" standalone="no"?>
<!DOCTYPE svg PUBLIC "-//W3C//DTD SVG 20010904//EN"
 "http://www.w3.org/TR/2001/REC-SVG-20010904/DTD/svg10.dtd">
<svg version="1.0" xmlns="http://www.w3.org/2000/svg"
 width="90.000000pt" height="92.000000pt" viewBox="0 0 90.000000 92.000000"
 preserveAspectRatio="xMidYMid meet">
<metadata>
Created by potrace 1.16, written by Peter Selinger 2001-2019
</metadata>
<g transform="translate(0.000000,92.000000) scale(0.100000,-0.100000)"
fill="#000000" stroke="none">
<path d="M450 823 c-1 -41 -41 -150 -83 -221 -20 -34 -34 -62 -32 -62 2 0 20
14 39 31 41 35 59 33 101 -11 l28 -29 -59 -61 c-33 -34 -87 -81 -122 -104 -36
-23 -57 -42 -49 -44 28 -6 136 58 201 119 l65 60 76 -70 c70 -66 80 -71 120
-71 52 0 145 19 145 29 0 4 -33 17 -72 30 -79 25 -179 71 -217 100 l-24 18 52
76 c28 42 55 78 61 82 20 12 9 36 -24 51 -31 15 -38 15 -82 0 -26 -9 -56 -16
-66 -16 -17 0 -17 2 -1 36 l18 36 -28 24 c-36 31 -47 30 -47 -3z m150 -125 c0
-15 -56 -114 -68 -122 -5 -3 -25 6 -45 19 -20 14 -41 25 -46 25 -15 0 -14 6
12 45 19 29 29 35 67 38 25 2 53 4 63 5 9 1 17 -4 17 -10z"/>
<path d="M156 793 c14 -60 11 -417 -5 -529 -13 -98 -12 -133 9 -164 8 -13 12
-13 27 3 16 16 18 42 21 240 1 122 5 228 8 236 3 11 14 5 39 -19 25 -25 38
-31 46 -23 25 25 -3 59 -65 78 -17 5 -18 12 -13 68 4 34 9 72 13 84 5 18 -1
26 -27 42 -52 32 -63 28 -53 -16z"/>
<path d="M52 537 c-26 -73 -28 -110 -6 -128 13 -10 17 -10 24 2 28 44 36 168
12 183 -4 2 -18 -23 -30 -57z"/>
<path d="M580 334 c-30 -8 -90 -15 -132 -16 -57 -1 -75 -5 -68 -13 5 -6 15
-45 21 -86 6 -41 15 -85 18 -98 8 -27 31 -41 31 -18 0 11 25 16 117 21 111 7
144 13 116 23 -12 4 10 83 37 134 11 20 10 25 -16 46 -33 26 -47 27 -124 7z
m52 -69 c-1 -16 -5 -44 -7 -62 -6 -35 -9 -36 -122 -47 l-51 -5 -7 60 c-4 33
-5 62 -2 65 9 10 94 22 142 21 49 -2 50 -3 47 -32z"/>
</g>
</svg>
