<?xml version="1.0" standalone="no"?>
<!DOCTYPE svg PUBLIC "-//W3C//DTD SVG 20010904//EN"
 "http://www.w3.org/TR/2001/REC-SVG-20010904/DTD/svg10.dtd">
<svg version="1.0" xmlns="http://www.w3.org/2000/svg"
 width="90.000000pt" height="92.000000pt" viewBox="0 0 90.000000 92.000000"
 preserveAspectRatio="xMidYMid meet">
<metadata>
Created by potrace 1.16, written by Peter Selinger 2001-2019
</metadata>
<g transform="translate(0.000000,92.000000) scale(0.100000,-0.100000)"
fill="#000000" stroke="none">
<path d="M475 824 c-31 -24 -163 -89 -235 -115 -59 -22 -62 -24 -34 -27 17 -2
60 4 95 12 35 8 67 12 71 8 9 -9 13 -120 5 -128 -3 -3 -70 -15 -149 -26 -79
-11 -147 -24 -152 -28 -11 -11 34 -30 71 -30 15 0 64 7 110 16 46 8 88 14 94
12 15 -5 -79 -125 -145 -185 -31 -29 -84 -71 -117 -94 -32 -23 -58 -44 -56
-46 6 -5 77 22 128 47 65 34 105 67 165 138 l54 63 0 -88 c-1 -48 -6 -120 -13
-159 -19 -106 11 -183 49 -127 17 26 19 45 16 227 -3 162 -1 197 10 194 7 -3
57 -60 110 -129 113 -144 129 -159 172 -159 42 0 146 21 146 29 0 4 -30 20
-67 36 -115 49 -175 90 -262 179 -47 47 -83 87 -80 90 2 3 65 8 139 13 110 6
135 11 135 23 0 8 -14 22 -32 31 -29 15 -40 15 -135 -2 -57 -10 -109 -18 -115
-19 -15 0 -17 51 -4 97 6 20 5 35 -1 41 -7 7 2 14 28 21 22 6 46 11 54 11 8 1
29 7 45 14 l30 13 -35 31 c-38 35 -65 39 -95 16z"/>
</g>
</svg>
