<?xml version="1.0" standalone="no"?>
<!DOCTYPE svg PUBLIC "-//W3C//DTD SVG 20010904//EN"
 "http://www.w3.org/TR/2001/REC-SVG-20010904/DTD/svg10.dtd">
<svg version="1.0" xmlns="http://www.w3.org/2000/svg"
 width="90.000000pt" height="92.000000pt" viewBox="0 0 90.000000 92.000000"
 preserveAspectRatio="xMidYMid meet">
<metadata>
Created by potrace 1.16, written by Peter Selinger 2001-2019
</metadata>
<g transform="translate(0.000000,92.000000) scale(0.100000,-0.100000)"
fill="#000000" stroke="none">
<path d="M334 824 c4 -16 20 -47 36 -71 29 -43 29 -43 7 -48 -25 -5 -267 -35
-285 -35 -23 0 -12 -18 18 -30 19 -8 47 -10 75 -6 l45 7 0 -69 c0 -90 14 -108
95 -123 65 -12 199 -6 271 12 32 8 44 16 44 30 0 26 -41 34 -104 21 -76 -17
-186 -23 -226 -14 -34 8 -34 8 -31 57 1 27 9 61 16 76 15 28 22 29 338 54 42
4 77 10 77 14 0 4 -9 16 -20 26 -22 20 -63 22 -149 5 -83 -16 -88 -14 -95 25
-7 36 -49 76 -95 90 -22 7 -23 5 -17 -21z"/>
<path d="M650 397 c0 -8 145 -157 153 -157 17 0 26 39 16 69 -8 22 -24 37 -62
55 -53 25 -107 42 -107 33z"/>
<path d="M390 375 c0 -16 65 -95 83 -101 42 -13 48 47 7 77 -26 20 -90 37 -90
24z"/>
<path d="M106 279 c-36 -69 -39 -80 -28 -104 17 -38 43 -28 69 25 25 50 30
132 11 147 -10 7 -23 -10 -52 -68z"/>
<path d="M243 337 c3 -9 11 -35 17 -59 19 -71 64 -132 123 -164 49 -27 59 -29
162 -29 86 0 118 4 147 18 54 27 57 46 11 82 -21 17 -53 45 -71 63 -19 17 -35
32 -37 32 -2 0 3 -24 11 -52 17 -64 9 -73 -70 -83 -107 -14 -198 32 -236 118
-33 77 -35 80 -50 85 -9 3 -11 -1 -7 -11z"/>
</g>
</svg>
