<?xml version="1.0" standalone="no"?>
<!DOCTYPE svg PUBLIC "-//W3C//DTD SVG 20010904//EN"
 "http://www.w3.org/TR/2001/REC-SVG-20010904/DTD/svg10.dtd">
<svg version="1.0" xmlns="http://www.w3.org/2000/svg"
 width="96.000000pt" height="68.000000pt" viewBox="0 0 96.000000 68.000000"
 preserveAspectRatio="xMidYMid meet">
<metadata>
Created by potrace 1.16, written by Peter Selinger 2001-2019
</metadata>
<g transform="translate(0.000000,68.000000) scale(0.100000,-0.100000)"
fill="#000000" stroke="none">
<path d="M234 569 c4 -13 10 -54 13 -90 l6 -67 -62 -8 c-34 -5 -63 -13 -64
-19 -1 -6 26 -11 61 -13 l63 -3 -3 -52 -3 -51 -78 -24 c-81 -25 -90 -38 -44
-60 24 -11 32 -10 73 13 26 14 49 24 51 21 3 -2 1 -28 -4 -58 l-9 -53 -39 2
-40 3 47 -45 c26 -25 51 -45 55 -45 5 0 16 13 26 29 12 21 17 52 17 113 0 88
5 98 59 128 24 13 29 35 5 26 -9 -3 -27 -9 -41 -12 -23 -6 -24 -5 -21 37 3 40
6 43 38 52 19 5 37 11 40 13 8 9 -25 24 -52 24 -33 0 -36 21 -13 85 17 48 8
63 -50 72 -37 6 -38 5 -31 -18z"/>
<path d="M600 550 c-14 -4 -60 -8 -103 -9 l-77 -1 6 -39 c12 -75 -26 -248 -73
-340 -19 -35 -32 -66 -29 -68 6 -6 62 71 86 117 9 19 26 70 36 114 10 43 23
80 29 82 5 2 55 7 109 11 97 8 99 8 102 35 1 14 10 38 20 53 16 25 16 26 -2
40 -21 16 -64 18 -104 5z m42 -60 c-2 -19 -6 -37 -8 -39 -2 -2 -40 -9 -84 -15
l-81 -12 3 40 c3 39 5 41 48 53 25 6 63 11 85 10 39 -2 40 -3 37 -37z"/>
<path d="M577 364 c-96 -16 -114 -22 -64 -23 49 -1 48 -20 -4 -65 -27 -23 -39
-40 -36 -50 5 -13 12 -14 32 -6 15 6 37 10 51 10 20 0 24 -5 24 -29 0 -31 -14
-41 -61 -41 -48 0 -33 -19 19 -22 39 -3 47 -6 47 -23 0 -18 -10 -21 -102 -29
-57 -5 -103 -12 -103 -16 0 -15 68 -20 136 -10 38 5 129 10 202 10 72 0 132 4
132 9 0 22 -58 32 -139 23 -45 -4 -84 -5 -86 -2 -2 4 -2 16 2 28 4 17 15 23
54 28 64 9 63 24 -1 24 l-49 0 1 35 c1 31 5 35 35 41 21 4 39 2 46 -5 17 -17
37 -13 37 8 0 20 -48 51 -78 51 -11 0 -12 -3 -3 -14 15 -18 6 -23 -63 -34 -63
-10 -78 -2 -41 22 14 9 25 25 25 35 0 15 10 20 48 25 65 10 83 16 77 27 -8 11
-40 10 -138 -7z"/>
</g>
</svg>
