<?xml version="1.0" standalone="no"?>
<!DOCTYPE svg PUBLIC "-//W3C//DTD SVG 20010904//EN"
 "http://www.w3.org/TR/2001/REC-SVG-20010904/DTD/svg10.dtd">
<svg version="1.0" xmlns="http://www.w3.org/2000/svg"
 width="90.000000pt" height="92.000000pt" viewBox="0 0 90.000000 92.000000"
 preserveAspectRatio="xMidYMid meet">
<metadata>
Created by potrace 1.16, written by Peter Selinger 2001-2019
</metadata>
<g transform="translate(0.000000,92.000000) scale(0.100000,-0.100000)"
fill="#000000" stroke="none">
<path d="M390 777 c0 -27 -44 -99 -95 -156 -40 -44 -39 -49 4 -26 32 16 161
153 161 171 0 10 -41 34 -60 34 -6 0 -10 -10 -10 -23z"/>
<path d="M144 716 c56 -68 118 -75 102 -11 -7 28 -37 44 -100 53 l-40 5 38
-47z"/>
<path d="M570 751 c0 -19 119 -131 139 -131 30 0 37 26 18 65 -12 26 -28 38
-72 54 -60 23 -85 26 -85 12z"/>
<path d="M450 617 c0 -48 -64 -149 -152 -241 -42 -44 -76 -81 -75 -83 2 -1 23
8 47 20 56 28 146 115 194 189 22 33 43 55 51 52 7 -3 54 -50 105 -105 51 -56
103 -104 115 -109 22 -8 124 6 138 19 4 4 -14 16 -40 26 -26 10 -70 29 -98 43
-67 33 -215 153 -215 174 0 18 -36 48 -57 48 -8 0 -13 -13 -13 -33z"/>
<path d="M55 553 c46 -72 95 -103 109 -68 11 29 -12 62 -53 79 -23 9 -49 16
-57 16 -15 0 -14 -3 1 -27z"/>
<path d="M157 363 c-31 -45 -70 -91 -87 -103 -27 -20 -31 -27 -26 -53 4 -17
13 -42 22 -55 12 -19 18 -21 30 -11 8 6 14 16 14 22 0 5 25 66 56 134 30 68
54 129 52 135 -2 6 -29 -25 -61 -69z"/>
<path d="M470 324 c-52 -7 -110 -11 -127 -7 -38 6 -40 0 -14 -33 11 -14 25
-56 32 -94 14 -82 22 -98 41 -83 7 6 64 14 126 18 103 7 128 14 102 30 -10 6
22 75 56 122 15 21 14 23 -18 43 -37 23 -63 23 -198 4z m116 -81 c-4 -32 -10
-61 -15 -66 -13 -13 -155 -25 -162 -14 -8 11 -22 108 -16 113 6 6 110 22 156
23 l44 1 -7 -57z"/>
</g>
</svg>
