<?xml version="1.0" standalone="no"?>
<!DOCTYPE svg PUBLIC "-//W3C//DTD SVG 20010904//EN"
 "http://www.w3.org/TR/2001/REC-SVG-20010904/DTD/svg10.dtd">
<svg version="1.0" xmlns="http://www.w3.org/2000/svg"
 width="96.000000pt" height="68.000000pt" viewBox="0 0 96.000000 68.000000"
 preserveAspectRatio="xMidYMid meet">
<metadata>
Created by potrace 1.16, written by Peter Selinger 2001-2019
</metadata>
<g transform="translate(0.000000,68.000000) scale(0.100000,-0.100000)"
fill="#000000" stroke="none">
<path d="M410 599 c0 -6 11 -25 25 -43 l25 -33 -96 -7 c-81 -5 -100 -4 -114 9
-16 15 -19 12 -42 -32 -14 -26 -23 -54 -21 -60 8 -24 34 -13 54 22 19 32 25
35 68 35 26 0 101 7 166 15 124 15 195 19 195 10 0 -3 -7 -17 -16 -30 -9 -14
-12 -25 -6 -25 21 0 117 24 125 31 5 3 -8 19 -27 34 -34 26 -41 27 -104 21
-37 -4 -83 -9 -103 -12 -34 -6 -36 -4 -42 23 -4 18 -15 34 -32 41 -32 15 -55
15 -55 1z"/>
</g>
</svg>
