<?xml version="1.0" standalone="no"?>
<!DOCTYPE svg PUBLIC "-//W3C//DTD SVG 20010904//EN"
 "http://www.w3.org/TR/2001/REC-SVG-20010904/DTD/svg10.dtd">
<svg version="1.0" xmlns="http://www.w3.org/2000/svg"
 width="96.000000pt" height="68.000000pt" viewBox="0 0 96.000000 68.000000"
 preserveAspectRatio="xMidYMid meet">
<metadata>
Created by potrace 1.16, written by Peter Selinger 2001-2019
</metadata>
<g transform="translate(0.000000,68.000000) scale(0.100000,-0.100000)"
fill="#000000" stroke="none">
<path d="M420 605 c-136 -14 -129 -13 -110 -25 8 -5 41 -10 73 -10 44 0 57 -3
57 -15 0 -19 12 -16 -103 -24 -56 -3 -98 -2 -100 3 -2 5 -16 -12 -31 -38 -17
-30 -24 -52 -19 -57 16 -16 39 0 53 35 12 33 14 33 88 40 132 11 124 15 120
-51 -2 -46 0 -58 12 -58 11 0 16 15 18 63 2 40 7 62 15 62 7 0 51 3 99 7 48 3
94 3 104 -1 15 -6 15 -9 -7 -33 -22 -23 -22 -25 -4 -20 11 3 41 9 68 13 26 3
47 9 46 13 0 9 -53 49 -69 52 -14 2 -62 -2 -192 -17 -43 -5 -48 -4 -48 14 0
16 9 20 62 26 68 7 80 12 58 26 -18 11 -37 11 -190 -5z"/>
<path d="M570 493 c-20 -21 -21 -25 -7 -20 11 4 30 10 43 13 20 5 22 9 13 20
-16 19 -20 18 -49 -13z"/>
<path d="M320 470 c20 -13 50 -13 50 0 0 6 -15 10 -32 10 -25 0 -29 -3 -18
-10z"/>
<path d="M328 427 c-47 -10 -58 -20 -38 -32 8 -5 100 32 100 41 0 5 1 5 -62
-9z"/>
<path d="M535 431 c8 -13 75 -34 83 -26 11 11 -30 35 -61 35 -15 0 -26 -4 -22
-9z"/>
<path d="M347 393 c-4 -3 -7 -14 -7 -24 0 -9 -19 -33 -42 -53 -52 -43 -32 -48
22 -6 31 24 47 30 87 30 88 0 233 13 233 20 0 14 -27 18 -66 10 -22 -4 -72
-10 -112 -13 -65 -5 -73 -4 -68 10 9 23 -29 44 -47 26z"/>
<path d="M475 298 c-38 -4 -89 -6 -113 -3 -39 4 -42 3 -32 -14 15 -30 12 -78
-6 -85 -9 -3 -51 -6 -95 -6 -51 0 -79 -4 -79 -11 0 -7 28 -10 85 -8 94 4 105
-5 65 -51 -26 -29 -27 -55 -2 -44 19 10 228 15 249 7 27 -10 -26 -36 -60 -29
l-31 6 29 -30 c16 -16 34 -30 39 -30 13 1 60 41 72 62 8 13 16 14 57 3 26 -7
50 -9 52 -5 6 10 -33 35 -67 44 -29 7 -33 20 -22 64 6 21 11 22 102 22 77 0
93 3 84 12 -8 8 -47 14 -92 17 -84 3 -92 9 -70 51 8 15 6 21 -9 30 -22 11 -56
11 -156 -2z m115 -50 l0 -43 -111 -3 -112 -4 6 24 c4 12 7 31 7 40 0 17 24 21
158 26 l52 2 0 -42z m0 -75 c0 -10 -3 -28 -6 -40 -6 -22 -10 -23 -130 -23 -68
0 -124 2 -124 5 0 4 7 19 15 35 16 32 31 35 173 38 63 2 72 0 72 -15z"/>
<path d="M468 240 c25 -23 42 -26 42 -6 0 7 -10 16 -22 20 -38 10 -43 7 -20
-14z"/>
<path d="M440 164 c0 -10 33 -33 48 -34 21 0 13 16 -13 28 -30 14 -35 15 -35
6z"/>
</g>
</svg>
