<?xml version="1.0" standalone="no"?>
<!DOCTYPE svg PUBLIC "-//W3C//DTD SVG 20010904//EN"
 "http://www.w3.org/TR/2001/REC-SVG-20010904/DTD/svg10.dtd">
<svg version="1.0" xmlns="http://www.w3.org/2000/svg"
 width="96.000000pt" height="68.000000pt" viewBox="0 0 96.000000 68.000000"
 preserveAspectRatio="xMidYMid meet">
<metadata>
Created by potrace 1.16, written by Peter Selinger 2001-2019
</metadata>
<g transform="translate(0.000000,68.000000) scale(0.100000,-0.100000)"
fill="#000000" stroke="none">
<path d="M480 298 c-36 -5 -86 -6 -112 -3 l-48 6 12 -26 c15 -32 -4 -123 -32
-153 -11 -12 -20 -30 -20 -42 0 -20 1 -20 30 -5 30 16 156 19 215 6 l30 -7
-23 -13 c-14 -7 -35 -10 -54 -6 l-31 7 37 -32 c32 -29 40 -31 61 -22 13 6 32
23 41 38 15 23 22 25 55 20 20 -3 44 -9 53 -12 10 -4 16 -1 16 9 0 14 -25 27
-77 42 -13 3 -23 9 -23 13 0 19 28 151 34 160 4 6 -2 16 -13 21 -23 13 -59 12
-151 -1z m110 -72 c0 -36 -4 -76 -10 -90 -9 -26 -10 -26 -129 -26 l-120 0 19
43 c10 23 21 61 25 84 l7 42 51 4 c29 2 76 4 105 5 l52 2 0 -64z"/>
</g>
</svg>
