<?xml version="1.0" standalone="no"?>
<!DOCTYPE svg PUBLIC "-//W3C//DTD SVG 20010904//EN"
 "http://www.w3.org/TR/2001/REC-SVG-20010904/DTD/svg10.dtd">
<svg version="1.0" xmlns="http://www.w3.org/2000/svg"
 width="96.000000pt" height="68.000000pt" viewBox="0 0 96.000000 68.000000"
 preserveAspectRatio="xMidYMid meet">
<metadata>
Created by potrace 1.16, written by Peter Selinger 2001-2019
</metadata>
<g transform="translate(0.000000,68.000000) scale(0.100000,-0.100000)"
fill="#000000" stroke="none">
<path d="M508 461 l4 -100 -31 -15 c-43 -23 -51 -20 -51 19 0 19 -4 36 -10 37
-32 4 -34 2 -31 -47 l2 -50 -53 -19 c-47 -17 -51 -20 -30 -27 13 -5 33 -4 48
1 14 6 27 10 30 10 2 0 4 -25 4 -56 0 -48 4 -60 28 -84 39 -39 101 -55 208
-54 98 0 165 15 203 43 l24 19 -21 36 c-12 21 -22 47 -22 59 0 30 -14 10 -28
-39 -17 -58 -48 -69 -188 -69 -149 0 -161 7 -166 92 -3 75 -2 78 35 92 42 16
48 14 46 -16 -7 -92 15 -130 26 -45 13 98 13 97 66 120 63 26 70 15 41 -63
-22 -62 -18 -68 20 -28 43 48 80 124 67 139 -17 21 -63 17 -115 -11 -26 -14
-51 -25 -57 -25 -6 0 -8 30 -3 84 5 71 4 85 -10 90 -37 14 -39 8 -36 -93z"/>
<path d="M260 502 c-13 -49 -79 -145 -138 -199 -38 -36 -42 -43 -24 -43 12 0
46 20 77 45 l55 45 0 -72 c0 -39 -5 -98 -12 -129 -13 -63 -2 -109 26 -109 22
0 27 26 33 182 5 129 4 148 -10 154 -13 5 -8 17 28 67 42 57 44 62 28 79 -27
30 -51 23 -63 -20z"/>
</g>
</svg>
