<?xml version="1.0" standalone="no"?>
<!DOCTYPE svg PUBLIC "-//W3C//DTD SVG 20010904//EN"
 "http://www.w3.org/TR/2001/REC-SVG-20010904/DTD/svg10.dtd">
<svg version="1.0" xmlns="http://www.w3.org/2000/svg"
 width="96.000000pt" height="68.000000pt" viewBox="0 0 96.000000 68.000000"
 preserveAspectRatio="xMidYMid meet">
<metadata>
Created by potrace 1.16, written by Peter Selinger 2001-2019
</metadata>
<g transform="translate(0.000000,68.000000) scale(0.100000,-0.100000)"
fill="#000000" stroke="none">
<path d="M275 560 c-28 -29 -46 -39 -60 -36 -19 5 -20 1 -18 -72 1 -42 2 -80
3 -84 1 -19 32 -5 72 32 26 24 49 37 60 34 9 -3 20 1 24 7 9 15 -31 49 -55 48
-10 0 -11 -2 -3 -6 22 -9 13 -38 -18 -55 -29 -17 -30 -16 -35 5 -11 57 -3 70
63 96 65 25 73 35 45 57 -27 20 -36 17 -78 -26z"/>
<path d="M744 573 c12 -51 17 -266 9 -378 -9 -119 -11 -122 -68 -100 -12 4 0
-13 28 -41 l48 -49 18 24 c16 22 19 51 23 255 3 153 8 238 16 253 10 19 9 25
-10 43 -12 11 -33 20 -46 20 -21 0 -24 -3 -18 -27z"/>
<path d="M500 550 c-25 -8 -25 -8 4 -9 28 -1 29 -2 22 -47 -7 -58 -12 -64 -42
-64 -22 0 -23 -2 -12 -20 20 -32 43 -24 65 23 39 79 44 106 23 117 -21 11 -25
11 -60 0z"/>
<path d="M395 530 c-17 -7 -15 -8 13 -11 l33 -4 -25 -50 c-31 -61 -32 -63 -5
-39 24 22 38 46 49 85 8 27 7 29 -18 28 -15 0 -36 -4 -47 -9z"/>
<path d="M623 420 c4 -18 10 -71 14 -117 4 -60 10 -83 19 -83 11 0 14 24 14
110 0 61 -4 110 -9 110 -5 0 -17 3 -27 7 -15 5 -16 2 -11 -27z"/>
<path d="M331 382 c-15 -36 -80 -99 -151 -146 -30 -20 -48 -36 -39 -36 21 0
169 92 198 124 30 32 41 32 127 1 79 -29 94 -30 94 -11 0 16 -40 31 -110 42
-29 4 -50 15 -63 30 -25 32 -42 30 -56 -4z"/>
<path d="M363 291 c-49 -8 -68 -21 -31 -21 17 0 27 -7 31 -19 7 -27 2 -29 -57
-38 l-51 -8 55 -5 55 -5 3 -39 c2 -21 -1 -43 -5 -47 -5 -5 -44 -12 -86 -15
-80 -7 -94 -17 -52 -36 19 -9 41 -7 107 10 46 12 114 28 152 35 39 7 71 18 73
24 3 7 -20 6 -69 -3 -40 -8 -75 -14 -78 -14 -3 0 -3 21 0 48 5 46 6 47 47 57
73 18 67 30 -14 25 -27 -1 -32 2 -30 19 1 14 8 21 22 21 11 0 27 5 35 10 18
11 -39 12 -107 1z"/>
<path d="M470 187 c0 -8 -7 -20 -15 -27 -24 -20 -10 -23 25 -5 32 17 36 38 7
43 -10 2 -17 -3 -17 -11z"/>
<path d="M270 175 c0 -15 34 -55 46 -55 22 0 16 27 -8 44 -23 16 -38 20 -38
11z"/>
</g>
</svg>
