<?xml version="1.0" standalone="no"?>
<!DOCTYPE svg PUBLIC "-//W3C//DTD SVG 20010904//EN"
 "http://www.w3.org/TR/2001/REC-SVG-20010904/DTD/svg10.dtd">
<svg version="1.0" xmlns="http://www.w3.org/2000/svg"
 width="90.000000pt" height="92.000000pt" viewBox="0 0 90.000000 92.000000"
 preserveAspectRatio="xMidYMid meet">
<metadata>
Created by potrace 1.16, written by Peter Selinger 2001-2019
</metadata>
<g transform="translate(0.000000,92.000000) scale(0.100000,-0.100000)"
fill="#000000" stroke="none">
<path d="M545 800 c-22 -5 -121 -18 -220 -31 -99 -12 -184 -26 -189 -30 -6 -5
6 -15 26 -23 28 -12 48 -13 94 -6 33 6 62 10 67 10 24 0 -44 -224 -102 -335
-48 -93 -48 -94 -14 -62 l30 28 59 -36 c89 -54 123 -59 109 -15 -9 30 -47 51
-104 59 l-49 6 25 42 25 42 52 -29 c56 -32 96 -39 96 -17 0 26 -40 50 -90 55
-27 2 -50 6 -50 8 0 2 7 19 16 37 15 31 24 36 89 52 96 24 108 19 100 -42 -16
-114 -71 -313 -88 -313 -1 0 -83 -7 -182 -15 -99 -8 -186 -15 -192 -15 -26 0
-12 -21 22 -36 32 -13 48 -13 143 2 62 9 212 19 356 22 268 8 292 13 216 52
-37 19 -48 20 -113 11 -40 -5 -97 -12 -128 -15 l-56 -6 53 164 c29 91 57 174
63 185 9 16 7 23 -15 40 -40 32 -59 33 -130 12 -76 -24 -108 -27 -101 -8 3 6
13 32 23 56 17 43 17 44 -4 61 -23 19 -37 17 221 36 95 7 111 21 57 49 -31 16
-53 17 -115 5z"/>
</g>
</svg>
