<?xml version="1.0" standalone="no"?>
<!DOCTYPE svg PUBLIC "-//W3C//DTD SVG 20010904//EN"
 "http://www.w3.org/TR/2001/REC-SVG-20010904/DTD/svg10.dtd">
<svg version="1.0" xmlns="http://www.w3.org/2000/svg"
 width="96.000000pt" height="68.000000pt" viewBox="0 0 96.000000 68.000000"
 preserveAspectRatio="xMidYMid meet">
<metadata>
Created by potrace 1.16, written by Peter Selinger 2001-2019
</metadata>
<g transform="translate(0.000000,68.000000) scale(0.100000,-0.100000)"
fill="#000000" stroke="none">
<path d="M671 282 c-10 -20 -28 -45 -38 -54 -19 -17 -21 -16 -53 17 -29 30
-60 46 -60 30 0 -3 18 -21 40 -42 l41 -36 -23 -25 c-13 -13 -41 -33 -63 -43
-35 -16 -37 -19 -14 -19 14 0 48 11 75 25 l49 26 52 -57 51 -57 64 9 63 9 -70
33 c-38 18 -84 44 -103 58 -31 25 -32 27 -18 47 17 24 56 94 56 101 0 2 -7 6
-15 10 -10 3 -21 -7 -34 -32z"/>
</g>
</svg>
