<?xml version="1.0" standalone="no"?>
<!DOCTYPE svg PUBLIC "-//W3C//DTD SVG 20010904//EN"
 "http://www.w3.org/TR/2001/REC-SVG-20010904/DTD/svg10.dtd">
<svg version="1.0" xmlns="http://www.w3.org/2000/svg"
 width="96.000000pt" height="68.000000pt" viewBox="0 0 96.000000 68.000000"
 preserveAspectRatio="xMidYMid meet">
<metadata>
Created by potrace 1.16, written by Peter Selinger 2001-2019
</metadata>
<g transform="translate(0.000000,68.000000) scale(0.100000,-0.100000)"
fill="#000000" stroke="none">
<path d="M310 583 c0 -3 18 -22 41 -41 22 -19 37 -38 32 -42 -4 -4 -29 -13
-55 -20 -27 -7 -48 -17 -48 -23 0 -9 49 -6 125 8 21 4 41 -1 69 -18 l40 -25
-40 -20 c-44 -24 -25 -29 35 -11 30 9 47 7 98 -10 107 -36 165 -23 113 24 -11
10 -20 24 -20 32 0 20 -21 15 -27 -7 -6 -21 -12 -22 -53 -11 l-24 7 34 24 c19
13 37 25 39 27 6 4 -31 43 -41 43 -5 0 -22 -16 -39 -35 -36 -40 -43 -42 -83
-16 l-30 20 27 12 c25 11 33 36 11 33 -5 -1 -25 -4 -45 -8 -33 -6 -38 -3 -60
29 -20 29 -30 35 -61 35 -21 0 -38 -3 -38 -7z"/>
<path d="M505 571 c11 -11 32 -23 48 -26 23 -6 27 -4 27 13 0 20 -24 32 -70
32 -24 0 -24 0 -5 -19z"/>
<path d="M380 410 c29 -23 36 -24 46 -9 9 15 -14 29 -46 29 l-25 0 25 -20z"/>
<path d="M265 411 c-2 -4 16 -19 41 -35 24 -15 44 -31 44 -35 0 -4 -24 -16
-52 -26 -41 -15 -48 -20 -30 -23 13 -2 45 4 72 14 47 17 49 17 80 -3 l32 -20
-53 -25 c-30 -14 -65 -30 -79 -36 -24 -10 -24 -11 -3 -11 12 -1 56 12 97 28
l75 29 66 -24 c65 -24 165 -33 165 -15 0 14 -34 71 -42 71 -5 0 -8 -9 -8 -20
0 -24 -39 -27 -101 -8 -47 14 -49 22 -8 44 28 14 30 17 16 31 -14 14 -19 13
-56 -16 -40 -32 -40 -32 -72 -15 -28 14 -30 18 -16 26 28 15 10 27 -31 21 -33
-4 -42 -1 -58 19 -19 24 -70 42 -79 29z"/>
<path d="M500 194 c-63 -7 -148 -13 -188 -13 l-73 -1 20 -27 c23 -32 41 -121
23 -109 -19 11 -155 -5 -143 -17 7 -7 86 -6 243 2 128 6 277 11 331 11 72 0
98 3 95 12 -7 19 -58 28 -115 21 -29 -3 -53 -2 -53 3 0 5 13 29 30 54 l29 44
-27 18 c-15 10 -34 17 -42 17 -8 -1 -67 -7 -130 -15z m-9 -107 c-3 -24 -8 -28
-30 -25 -24 3 -26 7 -29 55 -3 50 -2 52 25 55 24 3 29 -1 33 -27 3 -16 4 -43
1 -58z m123 85 c3 -5 0 -31 -7 -58 -10 -43 -16 -49 -40 -52 -52 -6 -60 2 -42
44 8 20 15 45 15 55 0 15 7 19 34 19 19 0 37 -4 40 -8z m-216 -51 c20 -65 17
-71 -33 -71 -38 0 -45 3 -45 20 0 10 -5 31 -12 45 -14 32 0 45 48 45 27 0 32
-5 42 -39z"/>
</g>
</svg>
