<?xml version="1.0" standalone="no"?>
<!DOCTYPE svg PUBLIC "-//W3C//DTD SVG 20010904//EN"
 "http://www.w3.org/TR/2001/REC-SVG-20010904/DTD/svg10.dtd">
<svg version="1.0" xmlns="http://www.w3.org/2000/svg"
 width="96.000000pt" height="68.000000pt" viewBox="0 0 96.000000 68.000000"
 preserveAspectRatio="xMidYMid meet">
<metadata>
Created by potrace 1.16, written by Peter Selinger 2001-2019
</metadata>
<g transform="translate(0.000000,68.000000) scale(0.100000,-0.100000)"
fill="#000000" stroke="none">
<path d="M620 564 c-36 -8 -102 -15 -147 -16 -80 -2 -98 -8 -69 -25 9 -5 23
-48 34 -103 20 -103 14 -97 84 -86 25 4 26 2 30 -40 l3 -44 -35 -1 c-19 0 -44
-4 -54 -8 -18 -7 -18 -8 5 -14 13 -4 38 -7 55 -7 30 0 31 -1 25 -38 -6 -36 -8
-37 -50 -39 -91 -4 -151 -10 -157 -16 -15 -14 69 -24 138 -16 40 4 135 8 210
9 136 0 169 8 126 31 -15 8 -52 10 -120 5 l-98 -6 0 39 c0 42 13 51 78 51 17
0 32 5 32 10 0 11 -18 14 -72 11 l-38 -3 0 41 c0 26 5 41 13 42 6 0 20 2 31 4
10 2 27 -1 36 -8 28 -17 45 4 69 91 12 42 26 85 31 94 14 26 13 28 -25 44 -41
17 -51 17 -135 -2z m88 -51 l-3 -38 -52 -2 -52 -2 6 29 c4 21 2 30 -8 31 -22
2 43 17 79 18 32 1 33 0 30 -36z m-164 1 c12 -31 6 -52 -16 -58 -49 -13 -64
-7 -75 28 -6 19 -8 37 -5 40 3 3 24 6 48 6 29 0 44 -5 48 -16z m150 -91 c-13
-60 -12 -59 -54 -55 -38 4 -40 6 -40 37 0 35 9 40 73 44 25 1 27 -1 21 -26z
m-144 -28 c0 -33 -2 -35 -34 -35 -26 0 -35 5 -40 23 -11 42 -7 47 34 47 39 0
40 -1 40 -35z"/>
<path d="M305 525 c-5 -3 -45 -9 -88 -14 -108 -13 -119 -27 -30 -39 l48 -7 3
-51 3 -52 -46 -6 c-58 -9 -59 -26 -1 -26 l44 0 4 -51 c1 -28 1 -55 -2 -60 -3
-4 -30 -13 -60 -19 -84 -17 -86 -18 -64 -35 29 -22 55 -18 148 19 118 48 133
58 73 50 l-48 -6 3 57 c3 58 3 58 41 69 43 12 40 26 -5 26 -35 0 -41 14 -30
65 5 28 14 41 27 43 11 1 31 5 45 8 24 5 24 6 6 20 -19 13 -49 17 -71 9z"/>
</g>
</svg>
