<?xml version="1.0" standalone="no"?>
<!DOCTYPE svg PUBLIC "-//W3C//DTD SVG 20010904//EN"
 "http://www.w3.org/TR/2001/REC-SVG-20010904/DTD/svg10.dtd">
<svg version="1.0" xmlns="http://www.w3.org/2000/svg"
 width="90.000000pt" height="92.000000pt" viewBox="0 0 90.000000 92.000000"
 preserveAspectRatio="xMidYMid meet">
<metadata>
Created by potrace 1.16, written by Peter Selinger 2001-2019
</metadata>
<g transform="translate(0.000000,92.000000) scale(0.100000,-0.100000)"
fill="#000000" stroke="none">
<path d="M535 868 c-4 -18 -23 -64 -41 -102 -19 -38 -32 -71 -29 -74 7 -7 155
147 155 160 0 8 -59 48 -72 48 -3 0 -10 -15 -13 -32z"/>
<path d="M242 779 c32 -57 65 -91 86 -87 21 4 27 39 12 68 -14 27 -68 60 -98
60 l-23 0 23 -41z"/>
<path d="M515 669 c-55 -10 -157 -24 -227 -30 -71 -7 -128 -16 -128 -20 0 -14
38 -29 73 -29 43 0 47 -9 47 -104 l0 -73 -61 -7 c-34 -3 -88 -6 -120 -6 -67 0
-80 -19 -29 -40 29 -12 51 -11 167 6 l42 7 -20 -74 c-19 -71 -55 -144 -87
-182 -25 -29 -6 -31 31 -3 41 31 99 138 116 212 l12 51 52 7 c29 3 69 6 90 6
l37 0 0 -167 c0 -151 8 -211 23 -187 14 23 27 139 27 241 l0 113 118 0 c125 0
155 8 133 34 -24 29 -77 39 -145 27 -107 -19 -107 -19 -101 37 3 26 8 61 11
79 3 23 0 34 -13 41 -14 9 -10 11 22 17 93 16 111 31 58 51 -21 7 -53 6 -128
-7z m-11 -81 c3 -13 6 -53 6 -90 l0 -68 -47 0 c-27 0 -65 -3 -87 -7 l-38 -6 3
89 4 89 35 6 c19 3 54 7 76 8 35 1 43 -2 48 -21z"/>
</g>
</svg>
