<?xml version="1.0" standalone="no"?>
<!DOCTYPE svg PUBLIC "-//W3C//DTD SVG 20010904//EN"
 "http://www.w3.org/TR/2001/REC-SVG-20010904/DTD/svg10.dtd">
<svg version="1.0" xmlns="http://www.w3.org/2000/svg"
 width="96.000000pt" height="68.000000pt" viewBox="0 0 96.000000 68.000000"
 preserveAspectRatio="xMidYMid meet">
<metadata>
Created by potrace 1.16, written by Peter Selinger 2001-2019
</metadata>
<g transform="translate(0.000000,68.000000) scale(0.100000,-0.100000)"
fill="#000000" stroke="none">
<path d="M370 568 c1 -21 26 -48 44 -48 20 0 21 24 0 44 -19 19 -44 21 -44 4z"/>
<path d="M556 483 c2 -99 -3 -95 92 -78 44 8 44 8 40 -21 -3 -32 -25 -41 -95
-43 l-43 -1 0 -128 c0 -122 1 -130 24 -151 42 -40 199 -41 247 -2 l21 17 -20
34 -21 33 -7 -27 c-9 -36 -31 -46 -109 -46 -75 0 -105 12 -105 40 0 18 7 20
80 20 47 0 80 4 80 10 0 14 -44 16 -122 4 -36 -5 -38 -4 -38 20 0 25 3 26 54
26 30 0 61 3 70 6 23 9 9 25 -17 20 -12 -3 -41 -7 -64 -10 -41 -6 -43 -5 -43
19 0 23 3 25 53 26 61 1 97 11 78 23 -7 4 -39 5 -71 1 -57 -7 -58 -6 -53 15 7
25 10 26 86 35 48 5 57 10 57 26 0 11 7 30 15 43 14 21 14 24 0 36 -12 10 -27
10 -76 1 -65 -13 -69 -13 -73 16 -5 31 14 43 68 43 51 0 87 13 73 26 -3 4 -32
2 -63 -5 -32 -6 -60 -8 -63 -5 -3 3 -6 18 -6 32 0 21 -5 28 -25 30 l-25 3 1
-88z"/>
<path d="M420 505 c-30 -8 -69 -15 -87 -17 -29 -2 -38 -18 -9 -18 13 0 46 -61
46 -85 0 -9 -14 -15 -42 -17 -40 -3 -41 -4 -21 -16 18 -10 35 -9 93 3 39 8 85
15 101 15 16 0 29 5 29 10 0 6 -16 10 -35 10 -40 0 -41 2 -19 35 9 14 14 34
11 44 -3 14 2 21 17 26 21 6 21 6 1 15 -25 11 -19 11 -85 -5z m24 -77 c-11
-52 -40 -64 -50 -21 -4 15 -13 36 -21 45 -14 15 -13 18 13 23 16 4 34 8 39 10
21 6 28 -15 19 -57z"/>
<path d="M175 479 c-16 -4 -38 -6 -50 -3 -20 5 -20 2 -19 -166 1 -122 5 -175
14 -183 10 -9 14 -9 17 1 7 18 74 15 88 -4 7 -11 19 -14 32 -10 20 6 21 15 25
179 2 97 0 177 -5 185 -11 14 -58 15 -102 1z m55 -69 c0 -36 -3 -40 -24 -40
-13 0 -31 -3 -40 -6 -13 -5 -16 1 -16 33 0 48 4 53 47 53 32 0 33 -1 33 -40z
m8 -125 c-2 -1 -22 -5 -45 -8 -42 -5 -43 -4 -43 24 0 22 5 30 23 33 59 13 62
12 65 -17 2 -16 2 -30 0 -32z m2 -74 c0 -39 0 -40 -46 -47 -45 -6 -78 6 -55
20 6 4 11 18 11 31 0 20 6 24 38 28 20 2 40 4 45 5 4 1 7 -16 7 -37z"/>
<path d="M435 318 c-22 -5 -52 -7 -66 -5 l-27 3 -6 -100 c-3 -56 -7 -114 -9
-130 -4 -51 19 -39 33 18 l13 54 43 4 c39 3 43 1 46 -22 6 -40 -2 -60 -23 -60
-25 0 -24 -12 4 -39 19 -17 26 -19 34 -9 18 22 22 49 25 166 3 129 0 135 -67
120z m25 -43 c0 -19 -5 -25 -22 -25 -13 0 -33 -3 -45 -6 -18 -5 -23 -2 -23 13
0 28 20 43 57 43 29 0 33 -3 33 -25z m0 -70 c0 -19 -5 -25 -22 -25 -13 0 -33
-3 -45 -6 -19 -5 -23 -2 -23 18 0 32 2 34 50 36 37 3 40 1 40 -23z"/>
</g>
</svg>
