<?xml version="1.0" standalone="no"?>
<!DOCTYPE svg PUBLIC "-//W3C//DTD SVG 20010904//EN"
 "http://www.w3.org/TR/2001/REC-SVG-20010904/DTD/svg10.dtd">
<svg version="1.0" xmlns="http://www.w3.org/2000/svg"
 width="96.000000pt" height="68.000000pt" viewBox="0 0 96.000000 68.000000"
 preserveAspectRatio="xMidYMid meet">
<metadata>
Created by potrace 1.16, written by Peter Selinger 2001-2019
</metadata>
<g transform="translate(0.000000,68.000000) scale(0.100000,-0.100000)"
fill="#000000" stroke="none">
<path d="M652 352 c0 -32 -5 -68 -11 -80 l-12 -23 -30 26 c-47 39 -70 32 -26
-9 20 -18 37 -38 37 -43 0 -16 -64 -71 -100 -87 -29 -12 -31 -15 -12 -16 30 0
92 26 118 51 l22 21 50 -52 c47 -49 51 -51 88 -44 59 11 82 21 64 28 -8 3 -41
15 -73 27 -32 11 -69 31 -82 42 l-25 22 25 88 c14 48 23 92 20 97 -4 6 -17 10
-30 10 -23 0 -24 -3 -23 -58z"/>
</g>
</svg>
