<?xml version="1.0" standalone="no"?>
<!DOCTYPE svg PUBLIC "-//W3C//DTD SVG 20010904//EN"
 "http://www.w3.org/TR/2001/REC-SVG-20010904/DTD/svg10.dtd">
<svg version="1.0" xmlns="http://www.w3.org/2000/svg"
 width="96.000000pt" height="68.000000pt" viewBox="0 0 96.000000 68.000000"
 preserveAspectRatio="xMidYMid meet">
<metadata>
Created by potrace 1.16, written by Peter Selinger 2001-2019
</metadata>
<g transform="translate(0.000000,68.000000) scale(0.100000,-0.100000)"
fill="#000000" stroke="none">
<path d="M503 578 c27 -36 60 -43 65 -16 3 18 -43 48 -74 48 -14 0 -12 -5 9
-32z"/>
<path d="M689 546 c-2 -2 -73 -10 -156 -16 -120 -10 -156 -10 -167 -1 -12 10
-18 6 -35 -28 -12 -22 -21 -47 -21 -56 0 -28 30 -15 47 20 15 32 21 35 57 35
23 0 96 5 163 12 67 6 126 9 129 5 4 -4 -1 -17 -12 -28 -19 -21 -19 -22 1 -16
11 3 39 9 63 12 23 4 42 10 42 15 0 22 -95 61 -111 46z"/>
</g>
</svg>
