<?xml version="1.0" standalone="no"?>
<!DOCTYPE svg PUBLIC "-//W3C//DTD SVG 20010904//EN"
 "http://www.w3.org/TR/2001/REC-SVG-20010904/DTD/svg10.dtd">
<svg version="1.0" xmlns="http://www.w3.org/2000/svg"
 width="96.000000pt" height="68.000000pt" viewBox="0 0 96.000000 68.000000"
 preserveAspectRatio="xMidYMid meet">
<metadata>
Created by potrace 1.16, written by Peter Selinger 2001-2019
</metadata>
<g transform="translate(0.000000,68.000000) scale(0.100000,-0.100000)"
fill="#000000" stroke="none">
<path d="M330 529 c-25 -4 -74 -8 -109 -8 -56 -1 -62 -3 -56 -18 15 -38 17
-94 6 -159 -7 -38 -8 -71 -3 -76 10 -10 192 13 192 24 0 4 -8 9 -17 9 -24 2
-21 2 -80 -6 l-53 -7 0 75 c0 41 3 88 6 104 l6 30 95 7 c101 7 124 13 102 27
-16 10 -26 10 -89 -2z"/>
</g>
</svg>
