<?xml version="1.0" standalone="no"?>
<!DOCTYPE svg PUBLIC "-//W3C//DTD SVG 20010904//EN"
 "http://www.w3.org/TR/2001/REC-SVG-20010904/DTD/svg10.dtd">
<svg version="1.0" xmlns="http://www.w3.org/2000/svg"
 width="96.000000pt" height="68.000000pt" viewBox="0 0 96.000000 68.000000"
 preserveAspectRatio="xMidYMid meet">
<metadata>
Created by potrace 1.16, written by Peter Selinger 2001-2019
</metadata>
<g transform="translate(0.000000,68.000000) scale(0.100000,-0.100000)"
fill="#000000" stroke="none">
<path d="M562 232 c-6 -17 -7 -34 -3 -37 5 -2 6 -16 3 -30 -2 -15 0 -25 7 -25
6 0 11 -5 11 -11 0 -5 -4 -8 -9 -5 -11 7 -7 -29 5 -59 7 -17 10 -14 16 20 4
22 7 58 7 80 l1 40 102 -2 c57 -1 96 2 88 7 -7 4 -50 8 -94 8 -45 1 -86 1 -92
1 -6 1 -15 11 -21 23 -9 21 -10 21 -21 -10z"/>
<path d="M590 250 c0 -5 5 -10 11 -10 5 0 7 5 4 10 -3 6 -8 10 -11 10 -2 0 -4
-4 -4 -10z"/>
<path d="M448 193 c12 -2 32 -2 45 0 12 2 2 4 -23 4 -25 0 -35 -2 -22 -4z"/>
</g>
</svg>
