<?xml version="1.0" standalone="no"?>
<!DOCTYPE svg PUBLIC "-//W3C//DTD SVG 20010904//EN"
 "http://www.w3.org/TR/2001/REC-SVG-20010904/DTD/svg10.dtd">
<svg version="1.0" xmlns="http://www.w3.org/2000/svg"
 width="96.000000pt" height="68.000000pt" viewBox="0 0 96.000000 68.000000"
 preserveAspectRatio="xMidYMid meet">
<metadata>
Created by potrace 1.16, written by Peter Selinger 2001-2019
</metadata>
<g transform="translate(0.000000,68.000000) scale(0.100000,-0.100000)"
fill="#000000" stroke="none">
<path d="M257 491 l6 -89 -49 -7 c-85 -11 -96 -24 -21 -24 l67 -1 0 -43 0 -44
-78 -36 c-43 -21 -84 -37 -91 -37 -10 0 -9 -5 4 -20 26 -29 56 -25 108 15 25
19 49 35 53 35 10 0 -4 -122 -15 -133 -6 -6 -23 -5 -43 2 l-33 12 48 -48 48
-48 20 24 c16 20 19 39 19 125 l1 101 34 25 c42 31 46 46 5 25 -39 -20 -40
-20 -40 19 0 31 3 34 35 40 19 4 35 11 35 16 0 12 -37 23 -50 15 -14 -9 -13
81 1 107 10 18 8 25 -11 40 -12 10 -31 18 -41 18 -17 0 -18 -6 -12 -89z"/>
</g>
</svg>
