<?xml version="1.0" standalone="no"?>
<!DOCTYPE svg PUBLIC "-//W3C//DTD SVG 20010904//EN"
 "http://www.w3.org/TR/2001/REC-SVG-20010904/DTD/svg10.dtd">
<svg version="1.0" xmlns="http://www.w3.org/2000/svg"
 width="96.000000pt" height="68.000000pt" viewBox="0 0 96.000000 68.000000"
 preserveAspectRatio="xMidYMid meet">
<metadata>
Created by potrace 1.16, written by Peter Selinger 2001-2019
</metadata>
<g transform="translate(0.000000,68.000000) scale(0.100000,-0.100000)"
fill="#000000" stroke="none">
<path d="M480 615 c-47 -7 -112 -14 -144 -14 -57 -1 -59 -2 -42 -20 9 -10 21
-36 27 -57 19 -74 31 -95 48 -88 34 14 165 22 183 11 24 -15 32 -5 68 79 22
53 26 72 17 80 -20 20 -68 22 -157 9z m88 -40 c3 -19 -6 -22 -99 -33 -56 -6
-103 -11 -104 -9 -2 1 -6 12 -9 24 -6 20 -3 22 51 28 32 3 67 8 78 9 49 8 80
1 83 -19z m-8 -57 c0 -28 -18 -36 -90 -44 -41 -5 -79 -8 -85 -9 -5 0 -11 10
-13 22 -3 23 -3 23 113 36 61 8 75 7 75 -5z"/>
</g>
</svg>
