<?xml version="1.0" standalone="no"?>
<!DOCTYPE svg PUBLIC "-//W3C//DTD SVG 20010904//EN"
 "http://www.w3.org/TR/2001/REC-SVG-20010904/DTD/svg10.dtd">
<svg version="1.0" xmlns="http://www.w3.org/2000/svg"
 width="90.000000pt" height="92.000000pt" viewBox="0 0 90.000000 92.000000"
 preserveAspectRatio="xMidYMid meet">
<metadata>
Created by potrace 1.16, written by Peter Selinger 2001-2019
</metadata>
<g transform="translate(0.000000,92.000000) scale(0.100000,-0.100000)"
fill="#000000" stroke="none">
<path d="M503 803 c3 -21 3 -54 -1 -73 l-8 -35 -86 -11 c-113 -15 -120 -19
-78 -37 26 -11 46 -13 80 -7 78 15 83 10 59 -60 l-12 -32 -60 7 -59 6 6 -27
c8 -30 25 -259 26 -336 l0 -48 -64 0 c-75 0 -90 -12 -44 -36 28 -15 41 -15
112 -4 45 6 170 14 279 17 109 3 200 9 202 13 3 4 -5 16 -16 26 -17 15 -36 19
-96 18 l-74 0 5 45 c3 25 8 96 12 156 3 61 10 118 16 128 12 22 -5 45 -45 62
-22 9 -40 9 -83 -2 -31 -8 -58 -13 -60 -10 -2 2 3 24 12 49 l15 45 61 7 c33 3
81 6 104 6 48 0 54 8 25 34 -22 20 -37 22 -113 11 -53 -7 -58 -6 -58 12 0 10
8 29 17 42 16 23 15 25 -11 48 -15 12 -36 23 -48 23 -18 0 -20 -4 -15 -37z
m117 -304 c0 -27 -3 -30 -27 -27 -28 3 -133 -9 -165 -18 -15 -4 -18 1 -18 30
l0 35 53 4 c28 2 76 4 105 5 52 2 52 2 52 -29z m0 -83 c0 -33 -1 -34 -47 -39
-27 -3 -74 -9 -105 -13 l-58 -7 0 32 c0 37 -1 37 115 49 50 5 91 10 93 10 1 1
2 -13 2 -32z m0 -101 c0 -33 -2 -35 -32 -33 -18 1 -62 -4 -97 -11 -34 -7 -66
-10 -69 -6 -3 3 -7 18 -8 34 l-2 28 91 10 c51 5 98 10 105 11 7 1 12 -11 12
-33z m-2 -102 l-3 -38 -95 -7 c-52 -3 -96 -6 -97 -5 0 1 -3 16 -5 32 l-3 30
85 11 c131 17 122 19 118 -23z"/>
<path d="M235 784 c-9 -65 -85 -207 -160 -302 -36 -45 -65 -84 -65 -87 0 -14
92 59 130 102 l42 48 -5 -170 c-3 -93 -10 -186 -16 -206 -9 -29 -8 -44 4 -73
36 -85 55 -27 56 172 0 86 4 179 8 205 7 41 5 52 -12 74 -19 24 -19 27 -3 52
9 14 32 56 51 93 19 36 39 69 44 73 16 9 1 34 -30 50 -15 8 -30 15 -32 15 -3
0 -8 -21 -12 -46z"/>
</g>
</svg>
