<?xml version="1.0" standalone="no"?>
<!DOCTYPE svg PUBLIC "-//W3C//DTD SVG 20010904//EN"
 "http://www.w3.org/TR/2001/REC-SVG-20010904/DTD/svg10.dtd">
<svg version="1.0" xmlns="http://www.w3.org/2000/svg"
 width="96.000000pt" height="68.000000pt" viewBox="0 0 96.000000 68.000000"
 preserveAspectRatio="xMidYMid meet">
<metadata>
Created by potrace 1.16, written by Peter Selinger 2001-2019
</metadata>
<g transform="translate(0.000000,68.000000) scale(0.100000,-0.100000)"
fill="#000000" stroke="none">
<path d="M540 557 c0 -23 -4 -48 -9 -55 -5 -8 -38 -16 -84 -19 -43 -3 -77 -10
-77 -14 0 -5 34 -9 75 -9 41 0 75 -4 75 -9 0 -5 -4 -21 -10 -35 -8 -23 -15
-26 -60 -26 l-51 0 5 -32 c3 -18 8 -83 11 -145 l7 -112 -64 -3 c-60 -3 -62 -4
-35 -16 22 -9 59 -10 160 -2 73 5 183 10 245 10 70 0 112 4 112 10 0 18 -52
32 -105 28 l-50 -3 3 65 c2 36 7 94 12 129 12 85 2 94 -94 85 -65 -6 -69 -5
-61 12 4 11 9 27 12 36 4 13 23 18 94 24 49 3 89 10 89 15 0 15 -41 20 -105
14 -61 -7 -65 -6 -59 11 4 11 13 26 21 36 15 17 12 21 -31 37 -26 10 -26 10
-26 -32z m100 -201 c0 -24 -4 -26 -42 -26 -24 0 -67 -3 -95 -6 -52 -7 -53 -6
-53 19 0 28 1 28 133 35 55 3 57 2 57 -22z m0 -59 c0 -22 -6 -25 -77 -35 -111
-17 -115 -17 -111 14 3 25 6 27 73 31 38 3 72 7 74 9 2 2 13 4 23 4 12 0 18
-7 18 -23z m0 -71 c0 -22 -5 -24 -86 -34 -93 -12 -104 -11 -104 18 0 15 12 20
73 28 116 15 117 15 117 -12z m0 -75 c0 -27 -2 -28 -61 -35 -34 -3 -77 -6 -96
-6 -31 0 -34 2 -31 26 3 24 7 26 63 31 32 2 61 6 64 8 2 3 17 5 33 5 24 0 28
-4 28 -29z"/>
<path d="M289 548 c-15 -58 -41 -99 -122 -190 -37 -43 -63 -78 -57 -78 14 0
65 34 102 68 25 23 28 23 34 8 9 -22 -4 -181 -17 -224 -19 -59 24 -123 50 -74
15 29 18 316 3 335 -11 13 -5 26 38 84 27 38 50 75 50 81 0 13 -32 32 -54 32
-9 0 -19 -16 -27 -42z"/>
</g>
</svg>
