<?xml version="1.0" standalone="no"?>
<!DOCTYPE svg PUBLIC "-//W3C//DTD SVG 20010904//EN"
 "http://www.w3.org/TR/2001/REC-SVG-20010904/DTD/svg10.dtd">
<svg version="1.0" xmlns="http://www.w3.org/2000/svg"
 width="96.000000pt" height="68.000000pt" viewBox="0 0 96.000000 68.000000"
 preserveAspectRatio="xMidYMid meet">
<metadata>
Created by potrace 1.16, written by Peter Selinger 2001-2019
</metadata>
<g transform="translate(0.000000,68.000000) scale(0.100000,-0.100000)"
fill="#000000" stroke="none">
<path d="M648 215 c2 -52 8 -95 13 -95 14 0 17 16 22 108 3 78 3 82 -17 82
-20 0 -21 -4 -18 -95z"/>
<path d="M523 210 c-17 -28 -29 -50 -26 -50 3 0 27 16 55 36 50 37 57 57 22
61 -13 2 -29 -13 -51 -47z"/>
<path d="M752 219 c36 -45 68 -62 68 -37 0 24 -23 47 -65 64 l-39 16 36 -43z"/>
</g>
</svg>
