<?xml version="1.0" standalone="no"?>
<!DOCTYPE svg PUBLIC "-//W3C//DTD SVG 20010904//EN"
 "http://www.w3.org/TR/2001/REC-SVG-20010904/DTD/svg10.dtd">
<svg version="1.0" xmlns="http://www.w3.org/2000/svg"
 width="96.000000pt" height="68.000000pt" viewBox="0 0 96.000000 68.000000"
 preserveAspectRatio="xMidYMid meet">
<metadata>
Created by potrace 1.16, written by Peter Selinger 2001-2019
</metadata>
<g transform="translate(0.000000,68.000000) scale(0.100000,-0.100000)"
fill="#000000" stroke="none">
<path d="M455 253 c-49 -8 -111 -13 -138 -11 -49 3 -54 -1 -37 -31 5 -10 14
-49 20 -86 13 -79 17 -90 33 -76 7 5 53 12 103 16 87 7 92 6 98 -13 10 -31 33
-34 54 -7 13 16 23 55 30 111 16 123 12 125 -163 97z m113 -52 c3 -28 1 -33
-13 -27 -9 3 -32 6 -51 6 -32 0 -34 2 -30 28 2 15 5 28 5 30 1 2 20 2 44 0 40
-3 42 -5 45 -37z m-142 3 c8 -32 -7 -44 -57 -44 -25 0 -39 5 -43 16 -13 34 -6
43 37 47 23 2 45 4 49 5 4 1 11 -10 14 -24z m142 -81 c-2 -21 -6 -37 -10 -35
-5 1 -26 2 -48 2 -38 0 -40 2 -40 29 0 31 10 37 73 40 27 1 28 -1 25 -36z
m-140 -10 c-3 -25 -8 -28 -42 -31 -40 -3 -56 8 -56 41 0 14 9 17 51 17 49 0
50 -1 47 -27z"/>
</g>
</svg>
