<?xml version="1.0" standalone="no"?>
<!DOCTYPE svg PUBLIC "-//W3C//DTD SVG 20010904//EN"
 "http://www.w3.org/TR/2001/REC-SVG-20010904/DTD/svg10.dtd">
<svg version="1.0" xmlns="http://www.w3.org/2000/svg"
 width="96.000000pt" height="68.000000pt" viewBox="0 0 96.000000 68.000000"
 preserveAspectRatio="xMidYMid meet">
<metadata>
Created by potrace 1.16, written by Peter Selinger 2001-2019
</metadata>
<g transform="translate(0.000000,68.000000) scale(0.100000,-0.100000)"
fill="#000000" stroke="none">
<path d="M190 543 c0 -18 58 -65 76 -61 30 5 29 37 -1 48 -46 17 -75 22 -75
13z"/>
<path d="M139 376 c38 -39 71 -48 71 -17 0 26 -21 41 -67 48 l-38 6 34 -37z"/>
<path d="M216 252 c-25 -33 -58 -69 -73 -80 -27 -20 -28 -21 -11 -49 25 -42
41 -39 62 14 11 27 32 75 48 107 15 33 26 61 24 63 -2 2 -25 -23 -50 -55z"/>
</g>
</svg>
