<?xml version="1.0" standalone="no"?>
<!DOCTYPE svg PUBLIC "-//W3C//DTD SVG 20010904//EN"
 "http://www.w3.org/TR/2001/REC-SVG-20010904/DTD/svg10.dtd">
<svg version="1.0" xmlns="http://www.w3.org/2000/svg"
 width="90.000000pt" height="92.000000pt" viewBox="0 0 90.000000 92.000000"
 preserveAspectRatio="xMidYMid meet">
<metadata>
Created by potrace 1.16, written by Peter Selinger 2001-2019
</metadata>
<g transform="translate(0.000000,92.000000) scale(0.100000,-0.100000)"
fill="#000000" stroke="none">
<path d="M696 842 c-3 -5 -1 -24 4 -43 6 -19 10 -190 10 -391 0 -352 5 -407
31 -341 17 41 39 744 25 760 -15 16 -63 27 -70 15z"/>
<path d="M135 773 c11 -43 21 -179 15 -205 -5 -19 -16 -25 -58 -32 -69 -12
-62 -30 12 -34 l57 -3 -3 -81 -3 -81 -75 -22 c-85 -25 -99 -45 -50 -70 30 -16
31 -15 128 39 158 90 188 109 176 113 -6 2 -35 -6 -64 -17 -29 -11 -54 -19
-55 -18 -4 3 -7 89 -6 131 1 19 6 27 20 27 32 0 81 21 81 36 0 19 -40 27 -74
14 l-29 -10 5 82 c3 46 9 91 13 100 5 13 -2 22 -27 38 -18 11 -41 20 -52 20
-15 0 -17 -5 -11 -27z"/>
<path d="M356 708 c13 -39 16 -279 4 -343 -14 -72 -51 -149 -93 -193 -17 -17
-27 -32 -21 -32 19 0 73 40 99 74 50 66 65 125 77 309 l10 171 -22 18 c-12 10
-31 18 -42 18 -17 0 -19 -4 -12 -22z"/>
<path d="M535 492 c0 -130 4 -243 8 -250 12 -18 23 -15 34 11 14 31 21 443 8
456 -6 5 -19 11 -30 15 -20 6 -20 1 -20 -232z"/>
</g>
</svg>
