<?xml version="1.0" standalone="no"?>
<!DOCTYPE svg PUBLIC "-//W3C//DTD SVG 20010904//EN"
 "http://www.w3.org/TR/2001/REC-SVG-20010904/DTD/svg10.dtd">
<svg version="1.0" xmlns="http://www.w3.org/2000/svg"
 width="90.000000pt" height="92.000000pt" viewBox="0 0 90.000000 92.000000"
 preserveAspectRatio="xMidYMid meet">
<metadata>
Created by potrace 1.16, written by Peter Selinger 2001-2019
</metadata>
<g transform="translate(0.000000,92.000000) scale(0.100000,-0.100000)"
fill="#000000" stroke="none">
<path d="M519 863 c0 -5 -1 -48 -2 -98 l-2 -90 -54 -7 c-30 -5 -55 -7 -57 -5
-2 2 1 21 7 42 10 35 9 41 -11 57 -33 27 -38 23 -37 -32 0 -28 -5 -56 -11 -62
-7 -7 -12 -19 -12 -28 0 -20 34 -53 43 -43 4 3 7 -1 7 -11 0 -30 -37 -89 -95
-153 -74 -82 -51 -82 44 0 32 28 35 28 42 11 9 -25 1 -193 -12 -267 -11 -63
-5 -109 16 -127 15 -12 19 -4 30 60 6 34 7 35 58 36 153 4 348 18 353 25 2 4
-7 15 -20 24 -21 14 -40 16 -111 10 l-85 -7 0 40 c0 43 12 51 75 52 17 0 37 5
45 10 27 18 -9 32 -67 26 l-53 -5 0 33 c0 32 1 33 63 42 34 5 61 14 59 19 -4
16 -48 24 -87 15 -36 -8 -36 -8 -33 23 3 32 4 32 76 40 39 5 72 13 72 18 0 26
-78 35 -132 14 -9 -4 -13 4 -13 27 0 27 -6 36 -37 53 -20 11 -40 17 -43 13 -8
-8 35 -88 47 -88 4 0 8 -4 8 -9 0 -11 -167 -37 -177 -28 -4 4 7 21 23 38 28
30 28 31 10 45 -11 8 -26 14 -33 14 -7 0 -13 4 -13 10 0 12 83 36 175 50 39 6
80 13 93 16 19 4 23 1 18 -13 -3 -10 -1 -25 4 -33 16 -25 32 3 47 82 12 67 12
74 -4 85 -9 7 -24 13 -33 13 -14 0 -16 -9 -12 -55 l4 -55 -45 0 c-25 0 -52 -3
-61 -6 -20 -8 -21 22 -2 94 13 52 13 53 -12 72 -25 20 -52 26 -53 13z m41
-417 l0 -34 -67 -10 c-38 -5 -69 -9 -71 -7 -1 1 1 15 4 32 6 29 10 31 67 40
34 6 63 11 65 12 1 0 2 -14 2 -33z m3 -123 c-6 -15 -19 -20 -86 -28 l-57 -7 0
42 c0 35 3 40 18 36 9 -3 40 -2 67 2 45 7 51 6 56 -13 3 -11 4 -25 2 -32z m-3
-93 c0 -34 -3 -38 -31 -44 -17 -3 -49 -6 -70 -6 l-39 0 0 43 0 42 70 1 70 1 0
-37z"/>
<path d="M221 790 c-19 -87 -97 -227 -184 -333 -22 -26 -38 -49 -36 -52 8 -8
94 67 134 118 21 26 43 47 48 47 13 0 3 -262 -14 -351 -10 -54 -9 -70 2 -94 8
-16 19 -30 26 -32 18 -6 24 43 32 264 7 189 7 210 -9 233 -17 24 -17 27 22
100 22 41 44 79 49 84 14 15 11 23 -13 46 -33 31 -45 25 -57 -30z"/>
</g>
</svg>
