<?xml version="1.0" standalone="no"?>
<!DOCTYPE svg PUBLIC "-//W3C//DTD SVG 20010904//EN"
 "http://www.w3.org/TR/2001/REC-SVG-20010904/DTD/svg10.dtd">
<svg version="1.0" xmlns="http://www.w3.org/2000/svg"
 width="90.000000pt" height="92.000000pt" viewBox="0 0 90.000000 92.000000"
 preserveAspectRatio="xMidYMid meet">
<metadata>
Created by potrace 1.16, written by Peter Selinger 2001-2019
</metadata>
<g transform="translate(0.000000,92.000000) scale(0.100000,-0.100000)"
fill="#000000" stroke="none">
<path d="M460 871 c0 -5 11 -23 25 -39 l24 -29 -104 -13 c-58 -7 -105 -16
-105 -21 0 -18 57 -25 115 -13 74 15 238 34 300 34 50 0 57 12 22 35 -21 13
-32 13 -101 0 -43 -8 -80 -15 -82 -15 -2 0 -4 9 -4 19 0 11 -10 27 -22 35 -25
17 -68 22 -68 7z"/>
<path d="M555 733 c-33 -7 -84 -14 -112 -15 -29 -2 -53 -6 -53 -10 0 -5 4 -8
9 -8 5 0 13 -15 16 -32 13 -58 25 -84 34 -70 5 8 37 14 86 16 l78 4 28 46 c16
25 29 48 29 51 0 2 -12 10 -27 18 -23 11 -38 11 -88 0z m45 -40 c0 -32 -14
-40 -81 -47 -63 -7 -67 -6 -72 15 -8 29 -9 28 44 38 76 15 109 13 109 -6z"/>
<path d="M135 625 c-16 -8 -51 -14 -77 -15 -27 0 -48 -2 -48 -4 0 -2 6 -19 14
-37 8 -19 17 -66 21 -105 8 -85 18 -107 37 -81 7 10 31 20 53 23 75 10 89 14
78 25 -12 12 6 103 29 154 11 24 10 29 -7 41 -23 17 -61 17 -100 -1z m39 -97
c-4 -40 -8 -74 -9 -76 -1 -1 -19 -3 -41 -5 l-39 -2 -3 67 -3 67 33 10 c68 19
69 19 62 -61z"/>
<path d="M665 595 c-38 -7 -128 -19 -199 -25 -120 -12 -129 -11 -139 5 -8 14
-14 5 -38 -51 -16 -38 -27 -75 -24 -81 10 -28 37 -11 58 35 18 39 27 48 52 50
17 2 73 10 125 18 99 15 220 19 220 7 0 -3 -12 -22 -26 -41 l-27 -34 24 8 c13
4 47 13 74 19 31 7 51 17 53 27 3 14 -64 80 -78 77 -3 -1 -36 -7 -75 -14z"/>
<path d="M510 505 c-30 -7 -72 -16 -93 -19 -38 -7 -42 -26 -6 -26 32 0 18 -21
-50 -72 -69 -53 -63 -61 18 -23 30 14 58 22 62 18 14 -14 -40 -71 -117 -122
-42 -28 -70 -51 -62 -51 27 0 137 59 177 95 38 35 61 39 61 11 0 -22 -72 -87
-165 -149 -75 -49 -84 -58 -55 -52 54 11 140 58 193 105 l47 42 0 -34 c0 -48
-18 -106 -37 -117 -10 -5 -29 -5 -46 0 -17 5 -32 7 -34 6 -1 -2 18 -23 42 -47
53 -52 67 -49 103 21 19 37 23 56 20 120 l-3 76 68 -59 c77 -66 106 -81 145
-72 54 12 92 26 92 34 0 4 -30 13 -66 20 -69 13 -178 62 -228 103 l-29 23 69
29 c92 38 95 41 59 72 l-29 26 -15 -24 c-17 -26 -91 -99 -100 -99 -3 1 -24 16
-46 35 l-39 34 27 12 c19 9 26 18 22 29 -5 15 3 19 47 24 66 8 90 21 68 36
-18 12 -30 11 -100 -5z"/>
</g>
</svg>
