<?xml version="1.0" standalone="no"?>
<!DOCTYPE svg PUBLIC "-//W3C//DTD SVG 20010904//EN"
 "http://www.w3.org/TR/2001/REC-SVG-20010904/DTD/svg10.dtd">
<svg version="1.0" xmlns="http://www.w3.org/2000/svg"
 width="90.000000pt" height="92.000000pt" viewBox="0 0 90.000000 92.000000"
 preserveAspectRatio="xMidYMid meet">
<metadata>
Created by potrace 1.16, written by Peter Selinger 2001-2019
</metadata>
<g transform="translate(0.000000,92.000000) scale(0.100000,-0.100000)"
fill="#000000" stroke="none">
<path d="M300 834 c-30 -8 -88 -15 -127 -16 -40 -2 -73 -3 -73 -4 0 0 6 -14
14 -30 8 -16 20 -63 26 -104 12 -74 27 -110 39 -92 3 5 21 13 39 17 31 6 32 6
32 -28 0 -31 -3 -35 -31 -41 -17 -3 -43 -6 -56 -6 -22 0 -24 -2 -12 -16 10
-12 25 -15 56 -11 l43 5 0 -38 c0 -36 -2 -38 -44 -49 -25 -6 -68 -11 -95 -11
-28 0 -51 -4 -51 -9 0 -5 14 -21 32 -35 29 -23 34 -23 62 -11 17 8 88 33 159
55 82 27 127 47 127 56 0 18 3 18 -80 -5 l-70 -20 0 34 c0 35 2 37 68 50 28 6
31 9 20 22 -8 11 -24 14 -50 10 -36 -5 -38 -4 -38 24 0 22 6 30 25 35 15 4 32
1 41 -7 20 -17 28 -5 54 86 11 39 25 78 30 87 15 28 12 36 -20 53 -34 18 -46
17 -120 -1z m78 -56 c-2 -18 -6 -32 -10 -30 -5 1 -24 2 -44 2 -29 0 -35 3 -30
16 4 9 1 23 -5 30 -9 12 -2 14 40 14 l52 0 -3 -32z m-144 6 c13 -35 6 -51 -26
-58 -37 -7 -34 -9 -42 31 -6 27 -4 32 16 36 42 8 46 7 52 -9z m128 -106 c-4
-18 -11 -32 -15 -30 -4 1 -18 2 -32 2 -21 0 -25 5 -25 30 0 24 5 31 28 36 15
3 32 7 37 8 15 4 17 -8 7 -46z m-116 -7 c1 -26 -3 -30 -32 -33 -33 -4 -34 -3
-34 29 0 31 2 33 33 33 28 0 32 -3 33 -29z"/>
<path d="M620 830 c-30 -10 -68 -19 -85 -20 -16 -1 -39 -5 -50 -9 -19 -8 -19
-8 3 -20 19 -10 34 -9 85 8 64 22 97 26 97 13 0 -4 -19 -27 -43 -50 -39 -38
-47 -42 -78 -36 l-34 7 38 -40 38 -40 -32 -7 c-17 -3 -56 -6 -85 -6 -57 0 -70
-13 -31 -31 16 -7 41 -7 78 -1 30 6 56 8 59 5 10 -9 12 -185 2 -195 -6 -6 -23
-6 -48 1 l-38 11 46 -46 c49 -49 59 -50 83 -5 18 35 23 223 6 229 -6 2 -11 7
-11 12 0 8 91 21 102 14 4 -3 -2 -20 -13 -39 -25 -41 -14 -44 39 -12 20 13 45
26 55 30 26 10 21 25 -15 47 -32 20 -51 21 -123 4 -14 -3 -25 4 -37 25 l-16
30 51 32 c29 18 63 39 76 47 23 14 23 14 5 32 -28 28 -63 30 -124 10z"/>
<path d="M376 402 c-2 -4 -1 -14 5 -22 5 -8 9 -34 9 -56 0 -38 -2 -42 -31 -48
-17 -3 -51 -6 -75 -6 -23 0 -46 -5 -49 -10 -10 -16 42 -30 103 -28 l56 3 3
-42 c4 -51 7 -50 -160 -61 -65 -4 -118 -11 -119 -17 0 -5 12 -16 28 -24 24
-12 41 -12 114 -1 47 7 183 16 302 19 119 3 219 9 223 13 11 11 -5 29 -40 44
-24 10 -48 11 -91 4 -33 -5 -92 -12 -131 -15 l-73 -7 0 49 0 49 80 10 c44 6
84 14 88 18 4 4 -2 14 -13 23 -20 14 -39 14 -124 -3 l-34 -7 6 51 c5 44 3 53
-13 62 -22 12 -57 13 -64 2z"/>
</g>
</svg>
