<?xml version="1.0" standalone="no"?>
<!DOCTYPE svg PUBLIC "-//W3C//DTD SVG 20010904//EN"
 "http://www.w3.org/TR/2001/REC-SVG-20010904/DTD/svg10.dtd">
<svg version="1.0" xmlns="http://www.w3.org/2000/svg"
 width="90.000000pt" height="92.000000pt" viewBox="0 0 90.000000 92.000000"
 preserveAspectRatio="xMidYMid meet">
<metadata>
Created by potrace 1.16, written by Peter Selinger 2001-2019
</metadata>
<g transform="translate(0.000000,92.000000) scale(0.100000,-0.100000)"
fill="#000000" stroke="none">
<path d="M536 824 c-27 -23 -69 -53 -93 -66 -41 -22 -55 -38 -33 -38 5 0 32 8
59 19 60 22 61 21 61 -79 l0 -68 -87 -12 c-99 -15 -118 -24 -81 -41 19 -8 39
-8 78 0 29 6 55 9 58 6 6 -6 -93 -105 -153 -153 -34 -27 -36 -31 -13 -22 53
19 104 49 149 88 l45 40 -6 -41 c-6 -45 7 -90 24 -84 6 2 13 38 16 80 l5 76
50 -28 c28 -15 83 -47 122 -71 40 -23 79 -40 87 -37 20 8 9 43 -21 67 -24 18
-146 62 -210 75 -18 4 -33 10 -33 15 0 11 32 17 133 25 48 4 87 11 87 16 0 5
-11 16 -24 25 -23 14 -32 14 -106 -1 -45 -9 -84 -14 -87 -11 -3 3 -1 36 5 73
7 44 8 71 2 77 -17 17 -11 25 30 37 43 13 50 28 23 51 -32 27 -38 26 -87 -18z"/>
<path d="M641 700 l-42 -61 70 36 c39 19 71 39 71 45 0 9 -39 40 -50 40 -3 0
-25 -27 -49 -60z"/>
<path d="M242 724 c-24 -7 -79 -19 -123 -25 -104 -16 -103 -33 1 -41 l35 -3 7
-65 c4 -36 6 -70 3 -77 -2 -7 -27 -15 -55 -19 -65 -9 -60 -28 8 -32 l52 -3 0
-84 0 -83 -62 -21 c-34 -12 -70 -21 -80 -21 -23 0 -23 -22 0 -42 33 -29 52
-29 95 0 23 16 79 50 125 76 45 26 82 52 82 57 0 12 4 12 -59 -11 -29 -12 -54
-20 -55 -18 -1 2 0 40 2 86 4 78 5 82 27 82 13 0 36 5 51 10 37 14 18 32 -36
34 l-41 1 5 75 c3 63 7 76 22 78 49 9 94 24 94 31 0 6 -47 33 -53 30 -1 -1
-22 -7 -45 -15z"/>
<path d="M370 687 c0 -22 65 -91 78 -83 20 12 14 54 -10 70 -38 23 -68 29 -68
13z"/>
<path d="M679 385 c-9 -8 -213 -36 -270 -37 l-56 0 13 -38 c7 -20 16 -73 20
-116 4 -43 11 -88 17 -98 9 -18 11 -18 21 -4 8 11 40 19 110 25 l99 9 14 -36
c20 -46 19 -45 47 -27 30 20 42 59 51 157 4 41 11 82 15 91 10 18 -2 37 -40
63 -26 17 -34 19 -41 11z m-1 -57 c7 -7 12 -23 12 -37 0 -25 -1 -26 -59 -23
-57 4 -59 5 -58 30 1 15 7 30 12 34 16 12 80 9 93 -4z m-158 -50 c0 -25 -4
-28 -34 -28 -19 0 -41 -3 -50 -6 -13 -5 -16 1 -16 30 0 29 4 37 23 40 69 15
77 11 77 -36z m165 -79 c-5 -51 -8 -54 -35 -39 -13 7 -37 9 -56 5 -31 -5 -34
-4 -30 17 3 13 5 28 5 35 1 10 25 16 98 21 20 2 22 -2 18 -39z m-163 3 c9 -40
-2 -52 -48 -52 -43 0 -44 1 -44 33 0 31 1 32 44 34 34 1 45 -2 48 -15z"/>
</g>
</svg>
