<?xml version="1.0" standalone="no"?>
<!DOCTYPE svg PUBLIC "-//W3C//DTD SVG 20010904//EN"
 "http://www.w3.org/TR/2001/REC-SVG-20010904/DTD/svg10.dtd">
<svg version="1.0" xmlns="http://www.w3.org/2000/svg"
 width="96.000000pt" height="68.000000pt" viewBox="0 0 96.000000 68.000000"
 preserveAspectRatio="xMidYMid meet">
<metadata>
Created by potrace 1.16, written by Peter Selinger 2001-2019
</metadata>
<g transform="translate(0.000000,68.000000) scale(0.100000,-0.100000)"
fill="#000000" stroke="none">
<path d="M550 295 c-41 -7 -91 -10 -110 -7 -32 5 -34 4 -18 -11 9 -9 23 -46
31 -83 9 -36 17 -67 19 -68 2 -2 40 2 86 8 67 8 85 7 92 -3 13 -22 26 -5 54
74 21 60 25 80 15 91 -14 17 -64 16 -169 -1z m110 -40 c0 -19 -5 -25 -22 -24
-13 0 -53 -2 -89 -6 -57 -7 -67 -5 -72 10 -11 26 1 35 46 36 23 0 60 4 82 8
49 9 55 6 55 -24z m-7 -64 c-6 -23 -31 -31 -105 -31 -51 0 -58 2 -58 19 0 16
8 21 48 24 116 9 120 8 115 -12z"/>
</g>
</svg>
