<?xml version="1.0" standalone="no"?>
<!DOCTYPE svg PUBLIC "-//W3C//DTD SVG 20010904//EN"
 "http://www.w3.org/TR/2001/REC-SVG-20010904/DTD/svg10.dtd">
<svg version="1.0" xmlns="http://www.w3.org/2000/svg"
 width="90.000000pt" height="92.000000pt" viewBox="0 0 90.000000 92.000000"
 preserveAspectRatio="xMidYMid meet">
<metadata>
Created by potrace 1.16, written by Peter Selinger 2001-2019
</metadata>
<g transform="translate(0.000000,92.000000) scale(0.100000,-0.100000)"
fill="#000000" stroke="none">
<path d="M295 883 c-22 -7 -66 -16 -97 -20 -60 -6 -71 -15 -39 -32 13 -8 36
-6 77 5 79 20 92 16 64 -19 -18 -23 -27 -27 -51 -22 -28 6 -40 -7 -19 -20 28
-17 6 -34 -60 -46 -43 -7 -70 -17 -70 -25 0 -19 30 -22 74 -7 62 21 73 17 45
-13 -25 -28 -123 -111 -155 -131 -10 -7 5 -4 34 6 60 22 114 58 154 105 l27
31 1 -25 c0 -14 -3 -35 -6 -48 -6 -19 -11 -22 -32 -17 -24 6 -24 5 8 -35 37
-46 50 -123 39 -215 -8 -65 10 -101 43 -84 31 17 190 39 277 39 l74 0 -5 -75
c-6 -95 -24 -119 -81 -110 l-38 7 36 -51 c20 -28 39 -51 41 -51 2 0 19 14 38
31 28 24 37 42 46 87 22 112 27 137 34 153 5 12 -2 21 -30 34 -30 14 -52 16
-128 10 -50 -3 -99 -9 -108 -11 -14 -4 -18 1 -18 19 0 22 5 25 55 29 30 3 58
8 62 12 15 15 -24 27 -69 21 -43 -5 -48 -4 -48 13 0 16 10 21 60 26 33 4 60
11 60 16 0 15 -46 23 -85 16 -32 -6 -35 -5 -35 17 0 21 7 24 66 34 73 13 83
18 66 35 -9 9 -40 6 -129 -10 -65 -12 -133 -22 -151 -22 -29 0 -32 2 -22 19
13 26 13 144 -1 158 -7 7 0 12 26 17 47 9 54 2 33 -34 l-16 -28 49 24 c27 14
49 29 49 34 0 18 -63 61 -79 54 -9 -4 -29 -9 -46 -12 -28 -5 -27 -3 25 45 l54
50 -29 15 c-26 14 -35 14 -70 1z m128 -385 c7 -27 11 -24 -40 -31 -40 -5 -43
-3 -43 18 0 19 6 25 33 28 17 2 35 5 38 5 4 1 9 -8 12 -20z m7 -78 c0 -13 -7
-20 -19 -20 -10 0 -32 -3 -49 -6 -26 -5 -30 -3 -27 12 2 11 4 22 4 27 1 4 21
7 46 7 38 0 45 -3 45 -20z m-6 -72 c-3 -13 -7 -24 -8 -25 0 0 -19 -3 -41 -5
-37 -3 -40 -1 -43 25 -3 26 -2 27 48 27 49 0 51 -1 44 -22z"/>
<path d="M510 875 c0 -14 -11 -48 -25 -75 -31 -62 -31 -64 2 -43 14 10 41 18
60 19 27 1 34 -3 39 -23 9 -33 -13 -80 -28 -65 -14 14 -82 16 -74 3 3 -4 19
-11 36 -14 16 -4 30 -11 30 -16 0 -11 -45 -38 -95 -58 l-30 -11 34 -1 c19 -1
54 8 78 20 l43 21 36 -28 c87 -69 73 -64 149 -49 37 8 70 16 72 18 2 2 -27 12
-64 21 -38 9 -91 27 -119 41 l-51 25 25 51 c25 49 25 52 8 65 -16 11 -12 13
38 16 56 3 71 14 43 32 -14 9 -104 -3 -171 -21 -18 -5 -18 -4 2 22 27 34 28
51 3 65 -31 16 -41 12 -41 -15z"/>
<path d="M171 211 c-28 -57 -32 -71 -22 -89 7 -12 15 -22 20 -22 16 0 40 37
52 80 10 37 9 50 -2 72 l-14 27 -34 -68z"/>
<path d="M510 262 c0 -18 60 -92 75 -92 25 0 19 57 -7 74 -31 19 -68 29 -68
18z"/>
<path d="M400 245 c0 -8 31 -68 43 -83 7 -9 13 -9 23 -1 20 17 17 37 -11 64
-21 22 -55 34 -55 20z"/>
<path d="M290 230 c0 -21 45 -100 55 -97 5 2 11 17 13 34 2 24 -3 36 -24 52
-29 23 -44 27 -44 11z"/>
</g>
</svg>
