<?xml version="1.0" standalone="no"?>
<!DOCTYPE svg PUBLIC "-//W3C//DTD SVG 20010904//EN"
 "http://www.w3.org/TR/2001/REC-SVG-20010904/DTD/svg10.dtd">
<svg version="1.0" xmlns="http://www.w3.org/2000/svg"
 width="96.000000pt" height="68.000000pt" viewBox="0 0 96.000000 68.000000"
 preserveAspectRatio="xMidYMid meet">
<metadata>
Created by potrace 1.16, written by Peter Selinger 2001-2019
</metadata>
<g transform="translate(0.000000,68.000000) scale(0.100000,-0.100000)"
fill="#000000" stroke="none">
<path d="M599 533 c-1 -5 -1 -17 0 -28 2 -36 -12 -46 -47 -34 -17 6 -37 9 -44
6 -13 -5 -7 -8 38 -22 23 -7 1 -32 -37 -40 -16 -4 -31 -10 -34 -15 -6 -10 70
7 96 21 15 8 29 3 63 -21 46 -31 98 -38 156 -20 23 6 22 8 -15 14 -48 9 -125
33 -143 45 -12 7 -11 14 3 41 9 17 14 38 11 46 -6 14 -45 20 -47 7z"/>
</g>
</svg>
