<?xml version="1.0" standalone="no"?>
<!DOCTYPE svg PUBLIC "-//W3C//DTD SVG 20010904//EN"
 "http://www.w3.org/TR/2001/REC-SVG-20010904/DTD/svg10.dtd">
<svg version="1.0" xmlns="http://www.w3.org/2000/svg"
 width="90.000000pt" height="92.000000pt" viewBox="0 0 90.000000 92.000000"
 preserveAspectRatio="xMidYMid meet">
<metadata>
Created by potrace 1.16, written by Peter Selinger 2001-2019
</metadata>
<g transform="translate(0.000000,92.000000) scale(0.100000,-0.100000)"
fill="#000000" stroke="none">
<path d="M420 835 c0 -11 32 -70 48 -87 8 -10 11 -18 6 -18 -33 -1 -255 -38
-261 -43 -3 -4 2 -13 11 -20 16 -11 18 -27 17 -100 -3 -149 -59 -324 -145
-449 -14 -21 -22 -38 -17 -38 15 0 109 106 130 148 31 62 67 196 81 302 6 52
15 104 20 116 10 25 71 37 280 55 74 6 137 13 140 16 3 3 -6 14 -20 25 -21 17
-34 19 -80 14 -30 -4 -65 -9 -79 -13 -16 -4 -22 -2 -17 5 11 18 -12 61 -43 77
-29 15 -71 20 -71 10z"/>
<path d="M505 609 c-44 -9 -97 -18 -117 -18 -44 -1 -50 -17 -12 -27 32 -8 151
1 224 17 l54 12 -23 18 c-27 22 -21 22 -126 -2z"/>
<path d="M61 588 c37 -73 82 -107 95 -73 17 42 -31 95 -86 95 -18 0 -19 -3 -9
-22z"/>
<path d="M609 506 c-7 -8 -197 -36 -239 -36 -38 0 -49 -8 -32 -24 4 -4 14 -37
22 -74 13 -56 19 -67 35 -65 11 1 57 5 103 9 l82 7 0 -31 c0 -17 -5 -53 -11
-80 -9 -44 -14 -50 -41 -56 -60 -12 -65 -9 -71 40 -5 46 -48 107 -64 91 -4 -4
2 -36 14 -71 l21 -64 -30 -6 c-17 -3 -61 -6 -99 -6 -78 0 -94 -12 -47 -36 28
-14 42 -15 115 -5 45 6 163 14 263 18 133 5 180 9 180 19 0 23 -67 41 -123 33
-29 -4 -65 -8 -81 -8 -27 -1 -28 0 -14 17 18 20 58 97 58 111 0 6 -12 17 -27
25 l-28 15 30 1 c22 0 26 3 18 11 -14 14 5 57 38 90 23 23 15 40 -32 65 -31
15 -34 16 -40 10z m-9 -65 c0 -10 -3 -32 -6 -49 -6 -29 -8 -30 -78 -36 -39 -4
-81 -10 -94 -13 -22 -5 -23 -3 -20 43 l3 49 55 12 c30 6 74 12 98 12 35 1 42
-2 42 -18z"/>
<path d="M125 419 c-27 -22 -65 -44 -83 -51 -36 -14 -40 -27 -14 -51 28 -26
44 -20 78 26 16 23 41 57 54 74 13 18 22 35 19 37 -2 2 -26 -14 -54 -35z"/>
</g>
</svg>
