<?xml version="1.0" standalone="no"?>
<!DOCTYPE svg PUBLIC "-//W3C//DTD SVG 20010904//EN"
 "http://www.w3.org/TR/2001/REC-SVG-20010904/DTD/svg10.dtd">
<svg version="1.0" xmlns="http://www.w3.org/2000/svg"
 width="90.000000pt" height="92.000000pt" viewBox="0 0 90.000000 92.000000"
 preserveAspectRatio="xMidYMid meet">
<metadata>
Created by potrace 1.16, written by Peter Selinger 2001-2019
</metadata>
<g transform="translate(0.000000,92.000000) scale(0.100000,-0.100000)"
fill="#000000" stroke="none">
<path d="M370 883 c0 -5 11 -26 25 -48 13 -22 25 -43 25 -47 0 -3 -39 -9 -87
-13 -49 -4 -97 -9 -107 -12 -19 -5 -19 -6 -1 -19 10 -8 26 -14 34 -14 10 0 31
-32 56 -84 l40 -84 -95 -5 c-75 -4 -97 -2 -106 9 -6 8 -14 14 -16 14 -8 0 -58
-145 -58 -168 0 -29 27 -35 44 -10 8 11 20 42 27 68 9 35 16 46 28 43 9 -2 60
3 113 10 l97 14 6 -39 c4 -22 4 -42 0 -46 -3 -4 -40 -8 -82 -10 -71 -4 -74 -5
-68 -26 15 -53 16 -84 2 -117 -12 -31 -13 -40 -1 -68 8 -18 18 -30 23 -26 16
9 31 75 31 137 0 62 -3 59 72 71 l28 4 2 -188 c2 -117 7 -189 13 -190 18 -1
33 104 34 242 l1 136 31 7 c17 3 47 6 66 6 l34 0 -3 -82 -3 -83 -32 1 -33 2
37 -44 c20 -25 41 -43 46 -41 28 9 46 55 51 132 2 44 8 90 11 102 6 18 0 26
-26 43 -19 11 -39 18 -46 16 -6 -3 -39 -8 -73 -12 l-62 -7 8 24 c4 13 8 34 7
45 -1 19 6 22 75 28 41 3 99 6 129 6 l55 0 -25 -45 c-14 -25 -23 -45 -19 -44
35 2 147 39 150 48 5 14 -21 45 -60 73 -27 19 -31 19 -133 4 -166 -25 -161
-27 -113 44 43 65 45 88 10 106 -21 10 -17 12 37 18 62 7 84 21 60 38 -14 9
-112 4 -142 -8 -14 -5 -17 0 -17 25 0 25 -7 36 -32 51 -33 20 -68 26 -68 13z
m119 -170 c0 -21 -8 -60 -18 -88 -16 -47 -20 -50 -54 -53 l-37 -3 0 46 c0 40
-5 52 -35 82 -19 19 -35 37 -35 39 0 3 34 6 148 12 31 2 32 1 31 -35z"/>
</g>
</svg>
