<?xml version="1.0" standalone="no"?>
<!DOCTYPE svg PUBLIC "-//W3C//DTD SVG 20010904//EN"
 "http://www.w3.org/TR/2001/REC-SVG-20010904/DTD/svg10.dtd">
<svg version="1.0" xmlns="http://www.w3.org/2000/svg"
 width="96.000000pt" height="68.000000pt" viewBox="0 0 96.000000 68.000000"
 preserveAspectRatio="xMidYMid meet">
<metadata>
Created by potrace 1.16, written by Peter Selinger 2001-2019
</metadata>
<g transform="translate(0.000000,68.000000) scale(0.100000,-0.100000)"
fill="#000000" stroke="none">
<path d="M175 484 c4 -10 12 -43 18 -71 14 -74 -8 -248 -35 -275 -22 -22 -21
-46 4 -62 14 -8 38 4 127 64 61 41 110 78 111 83 0 4 -31 -9 -70 -28 -73 -37
-100 -43 -100 -22 1 6 7 75 14 152 16 155 15 160 -43 171 -31 7 -34 5 -26 -12z"/>
</g>
</svg>
