<?xml version="1.0" standalone="no"?>
<!DOCTYPE svg PUBLIC "-//W3C//DTD SVG 20010904//EN"
 "http://www.w3.org/TR/2001/REC-SVG-20010904/DTD/svg10.dtd">
<svg version="1.0" xmlns="http://www.w3.org/2000/svg"
 width="90.000000pt" height="92.000000pt" viewBox="0 0 90.000000 92.000000"
 preserveAspectRatio="xMidYMid meet">
<metadata>
Created by potrace 1.16, written by Peter Selinger 2001-2019
</metadata>
<g transform="translate(0.000000,92.000000) scale(0.100000,-0.100000)"
fill="#000000" stroke="none">
<path d="M552 832 c-7 -26 -24 -71 -37 -100 -25 -53 -21 -66 9 -33 11 12 34
20 63 23 l45 3 -5 -48 c-6 -66 -16 -74 -68 -53 -56 23 -60 14 -10 -20 l42 -27
-27 -28 c-15 -15 -42 -35 -60 -44 -45 -21 -43 -29 7 -22 25 3 56 18 80 36 l38
31 66 -50 c36 -27 70 -50 74 -50 14 0 22 30 12 48 -7 13 -92 70 -128 87 -1 0
7 27 19 59 17 45 19 62 10 76 -10 16 -6 19 38 25 28 4 50 11 50 15 0 14 -54
27 -80 20 -14 -4 -48 -14 -76 -23 l-51 -15 28 51 c26 48 27 53 12 69 -26 29
-38 21 -51 -30z"/>
<path d="M259 863 c-1 -5 -1 -45 1 -90 l2 -82 -39 -7 c-21 -4 -60 -8 -86 -8
-43 -1 -47 -3 -42 -21 4 -11 9 -60 12 -110 5 -93 16 -122 34 -95 6 9 8 50 5
102 -3 48 -2 89 2 92 5 3 32 8 60 12 l52 7 0 -101 c0 -94 9 -128 26 -101 4 7
9 56 12 110 l5 97 44 7 c25 4 50 2 55 -3 5 -5 8 -42 6 -83 -3 -73 -3 -74 -30
-74 -16 1 -28 -1 -28 -3 0 -2 14 -17 30 -35 l31 -32 19 24 c13 15 20 38 20 66
0 23 5 66 10 96 10 50 9 55 -12 71 -13 10 -32 16 -43 14 -11 -3 -38 -8 -60
-11 l-40 -7 5 72 c5 71 5 72 -22 86 -16 8 -29 11 -29 7z"/>
<path d="M380 806 c-6 -19 -21 -47 -32 -62 -25 -31 -22 -30 50 11 28 17 52 35
52 41 0 10 -42 44 -54 44 -2 0 -10 -15 -16 -34z"/>
<path d="M137 769 c24 -40 39 -53 58 -45 26 9 17 44 -15 61 -16 8 -36 15 -45
15 -14 0 -14 -3 2 -31z"/>
<path d="M200 601 c0 -10 -7 -35 -15 -56 -14 -32 -14 -36 -1 -28 9 5 27 24 41
42 19 26 22 38 14 48 -17 19 -39 16 -39 -6z"/>
<path d="M322 613 c24 -51 33 -63 44 -63 22 0 24 30 4 50 -19 19 -56 28 -48
13z"/>
<path d="M569 456 c-2 -3 -87 -14 -189 -26 -102 -12 -196 -24 -210 -26 -25 -6
-25 -6 -5 -20 12 -9 35 -14 58 -12 26 3 37 0 37 -10 0 -8 -35 -49 -78 -93 -79
-80 -85 -96 -22 -58 l34 21 23 -28 c13 -16 28 -34 33 -41 11 -13 -38 -56 -111
-98 -63 -35 -19 -32 53 4 73 37 119 75 192 157 l60 67 -24 19 c-25 20 -43 20
-110 -1 l-35 -10 28 22 c28 24 36 47 15 47 -7 0 -8 3 -3 9 6 5 42 12 81 16 86
8 84 13 84 -157 0 -116 0 -118 29 -150 29 -32 31 -33 128 -36 86 -3 106 -1
146 18 25 12 48 29 51 38 6 20 -28 125 -37 115 -4 -3 -7 -14 -7 -24 0 -33 -22
-68 -52 -80 -36 -15 -169 -14 -197 1 -18 9 -21 20 -21 69 l0 59 74 7 c41 3 82
12 92 19 15 12 14 14 -14 24 -23 8 -44 7 -83 -3 -29 -8 -55 -12 -57 -10 -3 2
0 24 7 47 10 39 9 45 -10 61 -21 16 -19 17 59 17 44 0 88 3 97 6 14 6 14 8 -1
25 -12 13 -31 19 -64 19 -26 0 -49 -2 -51 -4z m-216 -189 c-3 -7 -19 -29 -35
-49 l-29 -37 -24 25 c-13 13 -31 24 -40 24 -8 0 -15 4 -15 10 0 15 41 33 84
37 22 2 42 5 44 8 9 9 22 -7 15 -18z"/>
</g>
</svg>
