<?xml version="1.0" standalone="no"?>
<!DOCTYPE svg PUBLIC "-//W3C//DTD SVG 20010904//EN"
 "http://www.w3.org/TR/2001/REC-SVG-20010904/DTD/svg10.dtd">
<svg version="1.0" xmlns="http://www.w3.org/2000/svg"
 width="96.000000pt" height="68.000000pt" viewBox="0 0 96.000000 68.000000"
 preserveAspectRatio="xMidYMid meet">
<metadata>
Created by potrace 1.16, written by Peter Selinger 2001-2019
</metadata>
<g transform="translate(0.000000,68.000000) scale(0.100000,-0.100000)"
fill="#000000" stroke="none">
<path d="M557 603 c-3 -5 -8 -22 -12 -40 -3 -18 -16 -44 -27 -58 -24 -30 -17
-46 10 -22 10 10 35 17 55 17 39 0 44 -9 30 -59 -5 -20 -10 -22 -42 -18 l-36
6 24 -20 c23 -19 23 -20 5 -35 -10 -8 -32 -21 -49 -29 l-30 -14 35 0 c20 0 46
8 60 19 33 26 41 25 97 -10 46 -30 83 -39 83 -21 0 14 -48 49 -86 63 -39 14
-40 18 -18 60 9 16 13 40 10 53 -5 19 -2 22 12 19 9 -3 28 -1 42 4 l25 10 -26
7 c-14 3 -53 0 -87 -8 -34 -8 -62 -11 -62 -6 0 4 8 21 18 38 15 28 15 33 2 41
-18 12 -27 12 -33 3z"/>
<path d="M288 532 l4 -69 -68 -2 c-75 -2 -88 -7 -77 -24 4 -7 10 -39 13 -71 3
-35 10 -61 18 -64 9 -3 12 16 12 72 l0 76 50 0 c33 0 50 -4 51 -12 0 -7 0 -33
0 -58 -1 -43 12 -81 24 -69 3 4 8 37 12 75 3 38 10 71 14 75 5 3 25 3 44 1
l36 -4 -3 -57 c-2 -38 -7 -55 -15 -54 -20 4 -15 -25 6 -37 31 -16 47 10 55 87
9 88 -5 102 -89 83 -29 -7 -35 2 -35 54 0 40 -4 55 -16 60 -38 15 -41 8 -36
-62z"/>
<path d="M402 576 c-12 -14 -42 -73 -42 -81 0 -3 23 6 50 20 28 14 50 31 50
38 0 19 -47 38 -58 23z"/>
<path d="M160 553 c0 -19 59 -66 74 -60 19 8 21 31 4 45 -18 14 -78 25 -78 15z"/>
<path d="M240 402 c0 -10 -5 -23 -12 -30 -6 -6 -9 -14 -6 -17 8 -8 48 35 48
52 0 7 -7 13 -15 13 -8 0 -15 -8 -15 -18z"/>
<path d="M352 408 c6 -17 36 -34 45 -24 4 4 -1 14 -11 22 -24 17 -39 18 -34 2z"/>
<path d="M398 287 c-182 -22 -248 -37 -155 -37 31 0 47 -4 47 -13 0 -14 -38
-51 -88 -86 -39 -28 -35 -39 6 -18 28 14 30 13 56 -19 17 -22 22 -35 15 -40
-6 -3 -37 -20 -68 -36 -37 -19 -46 -26 -26 -22 43 10 135 58 170 89 17 15 43
38 58 51 18 15 27 30 23 39 -6 17 -52 20 -90 5 -17 -6 -26 -6 -26 1 0 5 7 12
15 15 10 4 13 13 10 25 -5 15 -1 19 18 19 13 0 45 3 71 6 l46 7 0 -93 c0 -115
15 -142 90 -160 88 -21 230 7 230 46 0 8 -8 29 -17 47 -16 29 -18 30 -21 11
-2 -12 -14 -31 -26 -43 -20 -19 -36 -22 -97 -23 -98 -2 -119 6 -119 42 0 27
10 41 35 47 6 2 45 15 88 30 74 25 77 27 55 39 -34 19 -60 16 -84 -9 -27 -28
-72 -52 -81 -43 -4 3 -2 25 4 47 6 22 6 42 2 45 -13 8 -11 25 4 23 6 -1 41 -1
77 0 46 1 61 4 53 12 -19 19 -84 18 -275 -4z m-28 -109 c-1 -15 -17 -37 -41
-56 -14 -10 -22 -9 -48 5 -47 27 -38 42 34 54 22 4 43 7 48 8 4 0 7 -5 7 -11z"/>
</g>
</svg>
