<?xml version="1.0" standalone="no"?>
<!DOCTYPE svg PUBLIC "-//W3C//DTD SVG 20010904//EN"
 "http://www.w3.org/TR/2001/REC-SVG-20010904/DTD/svg10.dtd">
<svg version="1.0" xmlns="http://www.w3.org/2000/svg"
 width="96.000000pt" height="68.000000pt" viewBox="0 0 96.000000 68.000000"
 preserveAspectRatio="xMidYMid meet">
<metadata>
Created by potrace 1.16, written by Peter Selinger 2001-2019
</metadata>
<g transform="translate(0.000000,68.000000) scale(0.100000,-0.100000)"
fill="#000000" stroke="none">
<path d="M596 377 c-8 -33 -84 -116 -135 -149 -25 -15 -39 -28 -33 -28 17 0
90 37 127 65 17 12 50 25 75 28 25 3 54 9 63 13 40 15 13 -33 -56 -100 -53
-52 -99 -85 -172 -123 -112 -59 -111 -68 1 -23 100 40 164 82 259 172 65 62
78 79 67 89 -14 15 -66 17 -132 5 -44 -8 -44 -8 -22 9 19 14 21 20 11 31 -7 9
-20 19 -30 24 -13 8 -18 5 -23 -13z"/>
</g>
</svg>
