<?xml version="1.0" standalone="no"?>
<!DOCTYPE svg PUBLIC "-//W3C//DTD SVG 20010904//EN"
 "http://www.w3.org/TR/2001/REC-SVG-20010904/DTD/svg10.dtd">
<svg version="1.0" xmlns="http://www.w3.org/2000/svg"
 width="96.000000pt" height="68.000000pt" viewBox="0 0 96.000000 68.000000"
 preserveAspectRatio="xMidYMid meet">
<metadata>
Created by potrace 1.16, written by Peter Selinger 2001-2019
</metadata>
<g transform="translate(0.000000,68.000000) scale(0.100000,-0.100000)"
fill="#000000" stroke="none">
<path d="M380 609 c0 -6 13 -23 28 -39 l28 -28 -94 -6 c-79 -6 -97 -5 -112 9
-17 15 -20 13 -50 -46 -32 -63 -33 -89 -5 -89 21 0 38 18 54 58 13 30 16 32
65 32 28 0 112 7 186 15 179 19 190 19 185 -2 -2 -10 -6 -26 -10 -35 -8 -20
-3 -21 45 -9 19 5 47 12 63 15 29 7 37 33 12 42 -8 4 -12 10 -9 15 3 5 2 8 -3
7 -4 -1 -18 3 -31 10 -18 10 -44 11 -117 3 -134 -15 -144 -15 -138 8 3 12 -3
24 -18 35 -26 18 -79 22 -79 5z"/>
<path d="M416 443 c3 -32 6 -65 8 -75 3 -12 -6 -18 -39 -22 -23 -4 -55 -4 -72
-2 l-29 6 4 -60 c3 -44 -2 -79 -18 -130 -23 -70 -21 -125 3 -118 7 2 21 32 31
65 l20 61 55 1 c31 0 84 3 119 7 l62 6 0 -30 c0 -50 -9 -62 -46 -62 -19 0 -34
-3 -34 -7 0 -5 18 -21 40 -36 34 -24 42 -26 60 -15 26 17 34 63 26 154 -4 48
-3 88 5 114 17 56 5 65 -83 64 l-70 -2 4 67 c3 65 3 66 -24 69 -26 3 -26 3
-22 -55z m139 -133 c0 -24 -2 -25 -110 -36 -60 -6 -113 -9 -116 -8 -4 2 -4 15
-2 28 4 21 13 26 57 34 28 6 78 9 111 9 57 -2 60 -3 60 -27z m5 -79 l0 -29
-116 -7 c-63 -4 -118 -5 -121 -1 -3 3 -3 16 1 30 5 20 11 24 34 22 15 -2 50 0
77 4 28 4 67 8 88 9 34 1 37 -1 37 -28z"/>
<path d="M546 443 c-19 -21 -33 -39 -31 -42 6 -6 94 29 101 40 6 11 -13 39
-27 39 -4 0 -24 -17 -43 -37z"/>
<path d="M280 432 c0 -12 57 -62 71 -62 13 0 11 36 -4 48 -19 16 -67 26 -67
14z"/>
</g>
</svg>
