<?xml version="1.0" standalone="no"?>
<!DOCTYPE svg PUBLIC "-//W3C//DTD SVG 20010904//EN"
 "http://www.w3.org/TR/2001/REC-SVG-20010904/DTD/svg10.dtd">
<svg version="1.0" xmlns="http://www.w3.org/2000/svg"
 width="96.000000pt" height="68.000000pt" viewBox="0 0 96.000000 68.000000"
 preserveAspectRatio="xMidYMid meet">
<metadata>
Created by potrace 1.16, written by Peter Selinger 2001-2019
</metadata>
<g transform="translate(0.000000,68.000000) scale(0.100000,-0.100000)"
fill="#000000" stroke="none">
<path d="M268 521 l5 -89 -54 -6 c-30 -4 -67 -10 -83 -13 -26 -5 -27 -7 -11
-15 10 -6 42 -7 78 -4 l60 7 -6 -34 c-10 -62 -50 -141 -106 -206 l-54 -64 43
24 c75 42 128 123 160 248 8 28 18 45 31 48 25 7 25 23 0 23 -18 0 -19 6 -14
76 6 79 0 93 -38 94 -14 0 -16 -11 -11 -89z"/>
</g>
</svg>
