<?xml version="1.0" standalone="no"?>
<!DOCTYPE svg PUBLIC "-//W3C//DTD SVG 20010904//EN"
 "http://www.w3.org/TR/2001/REC-SVG-20010904/DTD/svg10.dtd">
<svg version="1.0" xmlns="http://www.w3.org/2000/svg"
 width="96.000000pt" height="68.000000pt" viewBox="0 0 96.000000 68.000000"
 preserveAspectRatio="xMidYMid meet">
<metadata>
Created by potrace 1.16, written by Peter Selinger 2001-2019
</metadata>
<g transform="translate(0.000000,68.000000) scale(0.100000,-0.100000)"
fill="#000000" stroke="none">
<path d="M209 537 c22 -27 80 -59 96 -53 21 8 19 33 -4 45 -10 6 -38 13 -62
17 -40 7 -43 6 -30 -9z"/>
<path d="M159 391 c12 -22 55 -51 76 -51 31 0 16 40 -20 56 -49 20 -68 19 -56
-5z"/>
<path d="M222 221 c-71 -71 -73 -74 -62 -102 17 -40 32 -36 58 14 12 23 35 66
52 95 17 29 30 56 28 60 -2 4 -36 -26 -76 -67z"/>
</g>
</svg>
