<?xml version="1.0" standalone="no"?>
<!DOCTYPE svg PUBLIC "-//W3C//DTD SVG 20010904//EN"
 "http://www.w3.org/TR/2001/REC-SVG-20010904/DTD/svg10.dtd">
<svg version="1.0" xmlns="http://www.w3.org/2000/svg"
 width="90.000000pt" height="92.000000pt" viewBox="0 0 90.000000 92.000000"
 preserveAspectRatio="xMidYMid meet">
<metadata>
Created by potrace 1.16, written by Peter Selinger 2001-2019
</metadata>
<g transform="translate(0.000000,92.000000) scale(0.100000,-0.100000)"
fill="#000000" stroke="none">
<path d="M470 858 c0 -6 11 -30 25 -54 l25 -42 -38 -6 c-20 -3 -58 -8 -85 -12
-39 -5 -45 -9 -36 -20 6 -8 19 -14 29 -14 12 0 23 -17 37 -54 23 -62 21 -65
-50 -67 -23 -1 -55 -5 -72 -9 l-30 -7 35 -15 c30 -13 50 -13 145 -2 61 7 170
16 243 20 73 4 135 10 137 15 10 15 -40 39 -80 39 -22 0 -67 -4 -99 -10 -33
-5 -62 -8 -64 -6 -2 2 9 23 24 45 26 40 26 42 9 61 -18 20 -17 20 11 20 16 0
36 5 44 10 13 9 12 12 -5 26 -11 8 -30 13 -42 9 -13 -3 -35 -8 -49 -11 -21 -5
-25 -3 -24 12 5 41 -1 52 -34 68 -40 19 -56 20 -56 4z m102 -184 c-3 -57 -7
-63 -55 -71 -37 -6 -37 -5 -37 29 0 20 -8 43 -20 56 l-20 21 33 5 c68 11 82
13 92 11 6 -1 9 -24 7 -51z"/>
<path d="M175 723 c-22 -8 -62 -17 -88 -20 -39 -5 -47 -9 -41 -22 14 -29 16
-244 4 -339 -11 -85 -10 -96 6 -120 14 -21 19 -23 22 -11 3 17 42 29 92 29 19
0 30 -7 38 -25 6 -14 18 -25 26 -25 31 0 37 38 34 205 -3 90 -1 194 3 232 8
66 7 69 -19 90 -15 13 -29 22 -32 22 -3 -1 -23 -8 -45 -16z m43 -98 l3 -60
-33 0 c-18 0 -46 -4 -61 -8 l-28 -8 3 63 c3 61 4 63 33 69 17 4 41 6 55 6 23
-2 25 -6 28 -62z m2 -145 c0 -49 -3 -58 -15 -54 -9 4 -36 1 -61 -5 -26 -7 -48
-10 -50 -8 -2 2 -1 26 3 55 l6 51 51 9 c28 5 54 10 59 11 4 0 7 -26 7 -59z m0
-138 l0 -59 -32 1 c-18 0 -48 -3 -65 -8 l-33 -8 0 62 c0 34 4 59 9 56 4 -3 28
-2 52 3 72 14 69 16 69 -47z"/>
<path d="M595 519 c-16 -5 -77 -14 -135 -20 -58 -7 -106 -13 -108 -14 -1 -1 4
-15 12 -31 8 -16 17 -56 21 -89 8 -72 22 -102 38 -86 6 6 25 11 43 11 28 0 32
-4 36 -30 4 -29 4 -29 -54 -36 -73 -8 -72 -28 0 -32 50 -3 52 -4 52 -31 0 -36
-6 -38 -124 -47 -53 -4 -96 -11 -96 -16 0 -5 16 -16 35 -24 27 -11 44 -12 77
-4 24 6 118 14 211 17 92 3 167 9 167 13 0 4 -9 15 -21 25 -22 21 -65 24 -146
12 l-53 -8 0 35 0 34 65 7 c36 4 68 11 71 16 9 16 -50 31 -94 24 -43 -6 -43
-6 -40 22 3 27 5 28 62 28 l58 0 34 95 c18 52 33 96 34 98 0 1 -15 11 -32 22
-35 21 -65 24 -113 9z m65 -65 c0 -29 -3 -35 -16 -30 -9 3 -33 6 -55 6 -35 0
-39 3 -39 24 0 20 6 25 33 29 78 10 77 10 77 -29z m-160 -14 c0 -28 -2 -30
-39 -30 -26 0 -41 5 -45 16 -14 36 -7 44 39 44 43 0 45 -1 45 -30z m150 -52
c-1 -44 -11 -55 -56 -56 -42 0 -44 1 -44 28 0 27 3 29 43 33 23 2 45 4 50 5 4
1 7 -4 7 -10z m-150 -38 c0 -28 -3 -30 -35 -30 -19 0 -35 3 -35 8 0 4 -3 17
-6 30 -6 20 -3 22 35 22 39 0 41 -2 41 -30z"/>
</g>
</svg>
