<?xml version="1.0" standalone="no"?>
<!DOCTYPE svg PUBLIC "-//W3C//DTD SVG 20010904//EN"
 "http://www.w3.org/TR/2001/REC-SVG-20010904/DTD/svg10.dtd">
<svg version="1.0" xmlns="http://www.w3.org/2000/svg"
 width="96.000000pt" height="68.000000pt" viewBox="0 0 96.000000 68.000000"
 preserveAspectRatio="xMidYMid meet">
<metadata>
Created by potrace 1.16, written by Peter Selinger 2001-2019
</metadata>
<g transform="translate(0.000000,68.000000) scale(0.100000,-0.100000)"
fill="#000000" stroke="none">
<path d="M580 607 c0 -52 -11 -67 -46 -67 -18 0 -36 -4 -39 -10 -4 -6 8 -10
29 -10 41 0 40 1 26 -37 -10 -27 -9 -27 25 10 34 35 40 37 95 37 32 0 62 4 65
10 8 13 -37 23 -80 18 -39 -4 -39 -4 -25 22 10 19 1 31 -32 43 -14 5 -18 1
-18 -16z"/>
<path d="M323 583 c2 -10 8 -26 12 -35 6 -15 1 -18 -31 -20 -22 -1 -49 -1 -61
0 -27 1 -30 -10 -8 -28 14 -12 35 -10 92 6 18 5 25 1 34 -20 16 -34 29 -33 29
3 0 23 6 30 33 39 l32 10 -37 1 c-33 1 -38 4 -38 25 0 23 -16 36 -47 36 -10 0
-14 -6 -10 -17z"/>
</g>
</svg>
