<?xml version="1.0" standalone="no"?>
<!DOCTYPE svg PUBLIC "-//W3C//DTD SVG 20010904//EN"
 "http://www.w3.org/TR/2001/REC-SVG-20010904/DTD/svg10.dtd">
<svg version="1.0" xmlns="http://www.w3.org/2000/svg"
 width="96.000000pt" height="68.000000pt" viewBox="0 0 96.000000 68.000000"
 preserveAspectRatio="xMidYMid meet">
<metadata>
Created by potrace 1.16, written by Peter Selinger 2001-2019
</metadata>
<g transform="translate(0.000000,68.000000) scale(0.100000,-0.100000)"
fill="#000000" stroke="none">
<path d="M422 593 c3 -28 2 -28 -60 -33 -84 -7 -84 -24 1 -28 51 -2 67 -6 67
-17 0 -11 -14 -15 -57 -16 -32 -1 -64 -1 -70 0 -8 1 -5 -11 8 -34 20 -33 24
-35 76 -35 39 0 54 -4 51 -12 -7 -20 -209 -28 -225 -9 -11 12 -15 9 -28 -20
-8 -19 -20 -41 -27 -50 -12 -18 -5 -49 11 -49 6 0 20 17 33 39 21 37 24 39 87
44 37 3 142 13 235 22 92 9 175 14 183 11 12 -5 11 -10 -6 -32 -12 -15 -20
-29 -18 -31 8 -7 121 24 124 34 5 15 -24 42 -55 50 -14 3 -81 0 -149 -7 -68
-7 -126 -10 -129 -7 -14 14 10 25 67 31 46 5 67 13 80 29 37 44 15 60 -67 47
-45 -7 -76 1 -62 16 3 3 31 9 62 13 62 9 75 16 58 33 -8 8 -26 9 -66 2 -52
-10 -55 -9 -58 10 -2 16 -12 22 -36 24 -31 3 -33 1 -30 -25z m163 -112 c-6 -5
-31 -11 -57 -14 -42 -4 -48 -2 -48 14 0 14 9 19 48 21 49 3 73 -5 57 -21z
m-145 -1 c0 -15 -39 -32 -67 -28 -34 4 -41 25 -11 31 43 8 78 7 78 -3z"/>
<path d="M432 360 c-128 -21 -153 -28 -99 -29 20 -1 37 -5 37 -10 0 -14 -59
-57 -106 -77 -26 -12 -33 -19 -22 -21 9 -2 36 5 59 16 53 26 53 26 67 -4 10
-20 16 -24 41 -19 24 5 30 2 36 -16 4 -12 4 -24 1 -27 -3 -3 -65 -9 -137 -14
-73 -5 -134 -11 -137 -14 -3 -2 8 -9 24 -16 21 -8 47 -8 94 0 64 10 105 14
124 12 21 -2 -61 -52 -128 -78 -42 -17 -63 -29 -52 -31 20 -4 122 31 173 59
19 11 36 19 38 19 3 0 4 -22 3 -50 -3 -54 3 -66 27 -57 11 5 15 21 15 63 0 30
3 54 8 52 4 -1 33 -21 65 -42 63 -43 129 -56 204 -41 36 7 34 9 -69 36 -58 15
-128 39 -155 53 l-48 25 135 1 c139 0 173 7 147 28 -18 15 -60 17 -182 7
l-100 -7 -1 26 c-2 25 0 26 53 26 36 0 52 4 48 11 -4 6 3 21 15 34 l23 24 -26
10 c-18 7 -52 7 -99 1 -98 -13 -97 -13 -91 9 4 16 18 20 81 26 97 8 120 14
101 26 -18 11 -30 10 -167 -11z m128 -84 c0 -21 -8 -24 -93 -32 -74 -6 -77 -6
-77 14 0 17 7 22 43 25 100 9 127 7 127 -7z"/>
</g>
</svg>
