<?xml version="1.0" standalone="no"?>
<!DOCTYPE svg PUBLIC "-//W3C//DTD SVG 20010904//EN"
 "http://www.w3.org/TR/2001/REC-SVG-20010904/DTD/svg10.dtd">
<svg version="1.0" xmlns="http://www.w3.org/2000/svg"
 width="96.000000pt" height="68.000000pt" viewBox="0 0 96.000000 68.000000"
 preserveAspectRatio="xMidYMid meet">
<metadata>
Created by potrace 1.16, written by Peter Selinger 2001-2019
</metadata>
<g transform="translate(0.000000,68.000000) scale(0.100000,-0.100000)"
fill="#000000" stroke="none">
<path d="M465 212 c-12 -8 -13 -22 -2 -39 5 -8 0 -10 -18 -7 -14 2 -25 0 -25
-6 0 -5 5 -10 11 -10 8 0 8 -4 0 -14 -8 -10 -9 -16 -1 -21 5 -3 10 0 10 7 0
10 3 9 9 -2 6 -8 7 -18 4 -23 -3 -5 1 -13 8 -18 10 -6 11 -9 2 -9 -7 0 -13 -7
-13 -15 0 -8 6 -15 13 -15 9 0 9 -2 0 -8 -8 -5 -9 -12 -2 -22 15 -24 29 8 27
60 -2 25 0 47 4 50 3 3 36 -15 73 -39 56 -38 76 -45 121 -47 40 -2 54 1 54 12
0 8 -6 11 -15 8 -8 -4 -21 -2 -28 4 -13 10 -131 46 -133 41 -1 -2 -11 4 -21
14 -11 9 -23 14 -26 10 -4 -3 -7 -1 -7 5 0 7 -8 12 -17 12 -12 1 -8 6 12 16
17 8 22 12 13 9 -10 -2 -19 0 -19 5 -1 6 -2 14 -3 20 -2 16 -21 29 -31 22z
m22 -34 c2 -17 0 -19 -7 -8 -5 8 -6 18 -4 22 8 12 10 10 11 -14z m133 -116
c-7 -3 -19 3 -28 13 -16 15 -15 16 12 4 15 -7 23 -15 16 -17z"/>
<path d="M620 179 c-30 -4 -61 -6 -67 -4 -7 2 -13 1 -13 -4 0 -5 55 -9 122
-10 108 -1 119 1 102 14 -21 16 -60 17 -144 4z"/>
<path d="M293 153 c-60 -3 -71 -6 -66 -19 3 -10 8 -12 12 -5 4 5 41 11 84 12
42 1 77 6 77 10 0 5 -8 8 -17 7 -10 -1 -50 -4 -90 -5z"/>
<path d="M400 110 c0 -6 -4 -9 -9 -5 -5 3 -12 1 -16 -5 -8 -12 15 -13 34 -1 9
6 10 11 2 15 -6 4 -11 2 -11 -4z"/>
<path d="M335 80 c-3 -5 -2 -10 4 -10 5 0 13 5 16 10 3 6 2 10 -4 10 -5 0 -13
-4 -16 -10z"/>
<path d="M284 55 c-10 -8 -14 -15 -8 -15 5 0 19 7 30 15 10 8 14 15 8 15 -5 0
-19 -7 -30 -15z"/>
</g>
</svg>
