<?xml version="1.0" standalone="no"?>
<!DOCTYPE svg PUBLIC "-//W3C//DTD SVG 20010904//EN"
 "http://www.w3.org/TR/2001/REC-SVG-20010904/DTD/svg10.dtd">
<svg version="1.0" xmlns="http://www.w3.org/2000/svg"
 width="90.000000pt" height="92.000000pt" viewBox="0 0 90.000000 92.000000"
 preserveAspectRatio="xMidYMid meet">
<metadata>
Created by potrace 1.16, written by Peter Selinger 2001-2019
</metadata>
<g transform="translate(0.000000,92.000000) scale(0.100000,-0.100000)"
fill="#000000" stroke="none">
<path d="M540 844 c-36 -7 -109 -15 -162 -16 -54 -2 -98 -6 -98 -9 0 -4 6 -12
14 -18 7 -6 19 -38 26 -71 13 -60 26 -82 39 -63 3 5 67 14 141 20 119 8 136 8
147 -6 15 -21 24 -12 66 72 l35 69 -32 19 c-36 22 -82 23 -176 3z m120 -46 c0
-56 -9 -66 -60 -70 l-48 -3 19 38 c11 21 17 42 14 47 -4 6 11 10 34 10 36 0
41 -3 41 -22z m-123 -29 c-6 -48 -4 -45 -44 -54 l-33 -7 0 51 0 51 41 0 42 0
-6 -41z m-119 14 c5 -10 12 -30 16 -44 5 -24 3 -27 -27 -32 -39 -6 -43 -3 -51
51 -6 41 -6 42 24 42 18 0 33 -7 38 -17z"/>
<path d="M80 744 c0 -8 61 -87 75 -96 35 -26 66 18 41 57 -17 26 -116 59 -116
39z"/>
<path d="M560 650 c0 -30 -24 -79 -67 -135 l-38 -50 37 23 37 23 7 -27 c4 -14
3 -70 -1 -123 -10 -125 -10 -138 6 -158 13 -14 15 -13 19 12 l5 28 95 4 c155
6 190 16 136 41 -14 6 -41 8 -60 5 -35 -5 -36 -5 -36 26 0 28 3 31 40 37 22 4
40 10 40 15 0 12 -46 22 -66 15 -12 -5 -15 0 -12 22 2 22 9 28 36 32 45 7 45
24 0 28 -29 2 -38 8 -38 22 0 23 14 32 60 40 45 7 36 25 -13 25 -31 0 -37 3
-37 22 0 22 -33 53 -57 53 -10 0 -8 -11 7 -39 11 -22 17 -42 12 -44 -14 -9
-122 -19 -122 -12 0 5 17 28 37 53 l37 45 -23 18 c-30 24 -41 24 -41 -1z m100
-164 c0 -26 -16 -36 -61 -36 -26 0 -29 4 -29 30 0 29 2 30 45 30 41 0 45 -2
45 -24z m-2 -83 c-3 -25 -8 -29 -45 -34 -42 -5 -43 -4 -43 22 0 29 -2 28 78
37 9 1 12 -7 10 -25z m0 -118 c-2 -1 -22 -6 -45 -10 l-43 -7 0 36 c0 34 1 35
43 38 40 3 42 1 45 -25 2 -16 2 -30 0 -32z"/>
<path d="M334 609 c-10 -23 -31 -55 -46 -72 -38 -40 -33 -63 12 -60 l35 3 -42
-39 c-46 -41 -50 -50 -32 -68 9 -9 21 -7 48 6 20 11 56 25 80 32 39 12 45 11
57 -5 15 -21 34 -13 34 13 0 19 -24 44 -53 54 -15 6 -16 3 -7 -12 9 -17 4 -20
-40 -31 -27 -7 -55 -10 -61 -8 -6 2 25 32 70 67 71 54 80 65 71 82 -13 24 -37
25 -44 1 -11 -34 -46 -62 -76 -62 -17 0 -30 4 -30 8 0 4 18 26 40 47 44 43 49
59 21 74 -16 9 -21 4 -37 -30z"/>
<path d="M105 514 c-27 -13 -56 -24 -62 -24 -7 0 -13 -4 -13 -9 0 -14 39 -20
72 -10 18 5 34 6 37 4 3 -3 -5 -25 -17 -49 l-21 -44 21 -18 c45 -42 65 -125
32 -138 -9 -3 -42 -6 -75 -6 -63 0 -70 -7 -40 -34 17 -15 26 -16 77 -5 56 11
64 10 164 -24 58 -19 154 -54 215 -77 90 -35 118 -41 155 -37 51 6 220 65 220
76 0 4 -71 11 -157 14 -186 8 -248 17 -406 60 -95 25 -116 34 -111 47 22 49
17 70 -25 110 l-41 39 49 54 c51 54 52 65 14 86 -28 14 -28 14 -88 -15z"/>
<path d="M420 364 c0 -17 45 -84 54 -81 23 7 17 45 -10 66 -26 21 -44 27 -44
15z"/>
<path d="M352 308 c26 -46 41 -51 46 -14 2 16 -4 29 -20 40 -42 29 -52 20 -26
-26z"/>
<path d="M250 331 c0 -22 34 -81 47 -81 19 0 16 44 -4 62 -28 23 -43 30 -43
19z"/>
</g>
</svg>
