<?xml version="1.0" standalone="no"?>
<!DOCTYPE svg PUBLIC "-//W3C//DTD SVG 20010904//EN"
 "http://www.w3.org/TR/2001/REC-SVG-20010904/DTD/svg10.dtd">
<svg version="1.0" xmlns="http://www.w3.org/2000/svg"
 width="96.000000pt" height="68.000000pt" viewBox="0 0 96.000000 68.000000"
 preserveAspectRatio="xMidYMid meet">
<metadata>
Created by potrace 1.16, written by Peter Selinger 2001-2019
</metadata>
<g transform="translate(0.000000,68.000000) scale(0.100000,-0.100000)"
fill="#000000" stroke="none">
<path d="M567 643 c-4 -3 -7 -21 -7 -39 0 -38 -21 -54 -70 -54 -18 0 -29 -4
-25 -10 3 -5 22 -10 41 -10 l35 0 -16 -30 c-17 -34 -18 -40 -6 -40 5 0 22 18
38 40 28 39 28 40 96 40 37 0 67 4 67 9 0 14 -27 21 -76 21 -43 0 -44 0 -32
26 11 22 10 28 -7 40 -21 16 -29 17 -38 7z"/>
<path d="M260 618 c0 -8 4 -18 9 -23 5 -6 12 -20 16 -32 6 -22 4 -23 -59 -23
-36 0 -66 -4 -66 -10 0 -20 42 -31 96 -24 50 6 54 5 54 -14 0 -11 7 -25 15
-32 13 -11 15 -7 15 28 0 36 3 40 33 48 l32 8 -37 3 c-36 4 -38 6 -38 39 0 20
-5 34 -12 34 -7 0 -23 3 -35 6 -16 4 -23 2 -23 -8z"/>
</g>
</svg>
