<?xml version="1.0" standalone="no"?>
<!DOCTYPE svg PUBLIC "-//W3C//DTD SVG 20010904//EN"
 "http://www.w3.org/TR/2001/REC-SVG-20010904/DTD/svg10.dtd">
<svg version="1.0" xmlns="http://www.w3.org/2000/svg"
 width="96.000000pt" height="68.000000pt" viewBox="0 0 96.000000 68.000000"
 preserveAspectRatio="xMidYMid meet">
<metadata>
Created by potrace 1.16, written by Peter Selinger 2001-2019
</metadata>
<g transform="translate(0.000000,68.000000) scale(0.100000,-0.100000)"
fill="#000000" stroke="none">
<path d="M399 638 c-1 -2 -2 -16 -4 -33 -2 -16 -8 -42 -13 -56 -10 -25 -16
-27 -91 -34 -45 -4 -81 -11 -81 -15 0 -16 40 -21 96 -14 l57 7 -31 -44 c-40
-59 -84 -99 -161 -148 -73 -46 -59 -54 24 -15 69 33 144 99 186 164 53 82 59
80 211 -67 l107 -105 58 7 c91 11 91 18 -2 54 -63 24 -108 50 -169 99 l-84 67
79 9 c43 5 79 12 79 16 0 21 -58 27 -135 15 -44 -7 -82 -12 -83 -10 -2 2 2 20
9 40 12 34 12 38 -6 51 -16 12 -43 19 -46 12z"/>
</g>
</svg>
