<?xml version="1.0" standalone="no"?>
<!DOCTYPE svg PUBLIC "-//W3C//DTD SVG 20010904//EN"
 "http://www.w3.org/TR/2001/REC-SVG-20010904/DTD/svg10.dtd">
<svg version="1.0" xmlns="http://www.w3.org/2000/svg"
 width="96.000000pt" height="68.000000pt" viewBox="0 0 96.000000 68.000000"
 preserveAspectRatio="xMidYMid meet">
<metadata>
Created by potrace 1.16, written by Peter Selinger 2001-2019
</metadata>
<g transform="translate(0.000000,68.000000) scale(0.100000,-0.100000)"
fill="#000000" stroke="none">
<path d="M247 535 c8 -61 -14 -173 -38 -185 -10 -6 -42 -10 -71 -10 l-53 -1
25 -20 c24 -20 48 -21 93 -4 15 6 16 4 7 -20 -16 -41 -13 -50 26 -68 45 -22
37 -34 -49 -78 l-62 -31 45 6 c25 4 65 18 89 32 l44 24 27 -25 c32 -31 60 -33
60 -5 0 13 -12 28 -30 38 -23 13 -29 22 -25 37 4 11 13 45 22 77 11 41 21 58
37 63 l21 6 -21 9 c-12 5 -25 13 -29 19 -3 6 -15 11 -27 11 -15 0 -19 -5 -15
-19 5 -21 -10 -31 -44 -31 -23 0 -24 -7 7 90 14 45 23 88 21 95 -3 7 -19 17
-36 23 l-30 11 6 -44z m73 -215 c0 -11 -7 -37 -15 -56 -12 -30 -18 -34 -37
-29 -35 11 -41 20 -33 55 10 46 85 72 85 30z"/>
</g>
</svg>
