<?xml version="1.0" standalone="no"?>
<!DOCTYPE svg PUBLIC "-//W3C//DTD SVG 20010904//EN"
 "http://www.w3.org/TR/2001/REC-SVG-20010904/DTD/svg10.dtd">
<svg version="1.0" xmlns="http://www.w3.org/2000/svg"
 width="96.000000pt" height="68.000000pt" viewBox="0 0 96.000000 68.000000"
 preserveAspectRatio="xMidYMid meet">
<metadata>
Created by potrace 1.16, written by Peter Selinger 2001-2019
</metadata>
<g transform="translate(0.000000,68.000000) scale(0.100000,-0.100000)"
fill="#000000" stroke="none">
<path d="M512 509 c-12 -39 -42 -102 -67 -140 -24 -38 -41 -69 -37 -69 18 0
86 78 124 142 l40 68 65 -87 c79 -107 86 -113 137 -112 90 2 91 11 6 52 -88
43 -203 147 -193 175 6 15 -21 42 -41 42 -6 0 -21 -32 -34 -71z"/>
</g>
</svg>
