<?xml version="1.0" standalone="no"?>
<!DOCTYPE svg PUBLIC "-//W3C//DTD SVG 20010904//EN"
 "http://www.w3.org/TR/2001/REC-SVG-20010904/DTD/svg10.dtd">
<svg version="1.0" xmlns="http://www.w3.org/2000/svg"
 width="96.000000pt" height="68.000000pt" viewBox="0 0 96.000000 68.000000"
 preserveAspectRatio="xMidYMid meet">
<metadata>
Created by potrace 1.16, written by Peter Selinger 2001-2019
</metadata>
<g transform="translate(0.000000,68.000000) scale(0.100000,-0.100000)"
fill="#000000" stroke="none">
<path d="M420 271 c0 -32 -5 -33 -192 -47 -49 -4 -88 -10 -88 -14 0 -4 11 -12
24 -18 17 -8 50 -6 132 8 60 10 110 17 112 15 2 -2 -1 -13 -8 -24 -17 -33 -83
-77 -161 -107 -38 -15 -67 -29 -65 -32 8 -7 105 17 157 39 46 20 103 71 127
115 10 17 26 19 174 22 90 2 165 6 168 9 3 2 -4 11 -15 20 -15 11 -35 13 -80
9 -218 -20 -225 -20 -225 1 0 20 -18 33 -46 33 -9 0 -14 -11 -14 -29z"/>
<path d="M595 130 c33 -22 77 -51 97 -65 45 -30 78 -33 78 -7 0 32 -45 63
-126 88 -109 33 -119 30 -49 -16z"/>
</g>
</svg>
