<?xml version="1.0" standalone="no"?>
<!DOCTYPE svg PUBLIC "-//W3C//DTD SVG 20010904//EN"
 "http://www.w3.org/TR/2001/REC-SVG-20010904/DTD/svg10.dtd">
<svg version="1.0" xmlns="http://www.w3.org/2000/svg"
 width="96.000000pt" height="68.000000pt" viewBox="0 0 96.000000 68.000000"
 preserveAspectRatio="xMidYMid meet">
<metadata>
Created by potrace 1.16, written by Peter Selinger 2001-2019
</metadata>
<g transform="translate(0.000000,68.000000) scale(0.100000,-0.100000)"
fill="#000000" stroke="none">
<path d="M177 514 c-3 -3 -1 -19 5 -36 13 -36 4 -199 -13 -229 -14 -27 -3 -69
17 -69 16 0 197 120 191 127 -3 3 -82 -23 -129 -42 -16 -6 -18 0 -18 58 l0 66
67 3 c45 2 68 7 71 17 4 11 -9 12 -66 6 l-70 -7 5 46 c5 42 4 46 -21 56 -32
12 -31 12 -39 4z"/>
</g>
</svg>
