<?xml version="1.0" standalone="no"?>
<!DOCTYPE svg PUBLIC "-//W3C//DTD SVG 20010904//EN"
 "http://www.w3.org/TR/2001/REC-SVG-20010904/DTD/svg10.dtd">
<svg version="1.0" xmlns="http://www.w3.org/2000/svg"
 width="90.000000pt" height="92.000000pt" viewBox="0 0 90.000000 92.000000"
 preserveAspectRatio="xMidYMid meet">
<metadata>
Created by potrace 1.16, written by Peter Selinger 2001-2019
</metadata>
<g transform="translate(0.000000,92.000000) scale(0.100000,-0.100000)"
fill="#000000" stroke="none">
<path d="M410 780 c-19 -10 -54 -21 -77 -25 -24 -3 -43 -10 -43 -15 0 -18 41
-21 91 -6 29 9 55 16 57 16 9 0 -9 -114 -19 -126 -5 -7 -42 -18 -80 -25 -57
-10 -69 -15 -63 -28 16 -37 15 -63 -2 -111 -24 -68 -12 -81 53 -57 63 23 103
22 104 0 5 -85 -15 -195 -39 -216 -9 -9 -34 -17 -55 -19 l-39 -3 35 -40 c33
-38 35 -39 62 -25 41 22 65 81 76 184 6 50 15 105 20 121 16 52 -31 68 -127
44 -25 -6 -47 -9 -51 -6 -3 3 2 27 11 53 8 25 13 50 11 55 -3 4 29 13 70 20
49 7 73 15 67 21 -12 12 12 91 39 130 26 36 24 45 -11 63 -35 18 -45 18 -90
-5z"/>
<path d="M110 772 c0 -15 92 -112 106 -112 19 0 28 24 20 56 -5 17 -20 31 -49
44 -44 20 -77 25 -77 12z"/>
<path d="M655 683 c-21 -135 -88 -328 -137 -395 -9 -12 -9 -25 -2 -45 12 -34
24 -34 158 3 76 21 101 25 104 15 9 -26 49 -64 60 -57 29 17 8 103 -36 149
-31 33 -91 72 -98 64 -3 -2 9 -26 25 -53 17 -26 31 -51 31 -54 0 -6 -137 -40
-160 -40 -20 0 -9 38 60 209 39 96 70 180 70 187 0 18 -36 54 -55 54 -9 0 -16
-14 -20 -37z"/>
<path d="M40 592 c0 -12 55 -83 77 -99 23 -17 31 -16 42 5 15 27 2 61 -28 76
-36 19 -91 30 -91 18z"/>
<path d="M168 392 c-20 -37 -56 -89 -79 -115 -36 -41 -40 -52 -35 -81 8 -40
29 -71 43 -63 6 4 14 19 18 34 3 15 22 68 42 117 44 113 64 176 55 176 -4 0
-24 -31 -44 -68z"/>
</g>
</svg>
