<?xml version="1.0" standalone="no"?>
<!DOCTYPE svg PUBLIC "-//W3C//DTD SVG 20010904//EN"
 "http://www.w3.org/TR/2001/REC-SVG-20010904/DTD/svg10.dtd">
<svg version="1.0" xmlns="http://www.w3.org/2000/svg"
 width="96.000000pt" height="68.000000pt" viewBox="0 0 96.000000 68.000000"
 preserveAspectRatio="xMidYMid meet">
<metadata>
Created by potrace 1.16, written by Peter Selinger 2001-2019
</metadata>
<g transform="translate(0.000000,68.000000) scale(0.100000,-0.100000)"
fill="#000000" stroke="none">
<path d="M537 172 c-9 -55 -25 -70 -84 -78 -53 -7 -53 -6 -53 20 0 18 -12 39
-32 59 -39 39 -47 24 -18 -33 12 -23 19 -44 16 -47 -3 -3 -57 -8 -121 -11 -63
-2 -115 -8 -115 -13 0 -17 73 -21 183 -10 62 6 189 11 283 11 166 0 214 5 214
20 0 20 -63 29 -143 20 -138 -16 -134 -18 -95 36 27 38 30 47 18 54 -31 20
-47 11 -53 -28z"/>
</g>
</svg>
