<?xml version="1.0" standalone="no"?>
<!DOCTYPE svg PUBLIC "-//W3C//DTD SVG 20010904//EN"
 "http://www.w3.org/TR/2001/REC-SVG-20010904/DTD/svg10.dtd">
<svg version="1.0" xmlns="http://www.w3.org/2000/svg"
 width="96.000000pt" height="68.000000pt" viewBox="0 0 96.000000 68.000000"
 preserveAspectRatio="xMidYMid meet">
<metadata>
Created by potrace 1.16, written by Peter Selinger 2001-2019
</metadata>
<g transform="translate(0.000000,68.000000) scale(0.100000,-0.100000)"
fill="#000000" stroke="none">
<path d="M464 502 c-6 -4 -20 -27 -31 -52 -11 -25 -41 -69 -67 -97 -27 -29
-44 -53 -39 -53 12 0 53 28 89 62 17 16 47 31 67 35 32 5 37 3 37 -14 0 -45
-114 -198 -199 -267 -31 -24 -32 -27 -11 -21 70 22 152 100 224 212 26 40 51
75 56 78 37 23 -28 51 -84 36 -22 -5 -42 -9 -43 -7 -2 1 8 17 22 36 19 25 22
37 14 47 -13 15 -19 16 -35 5z"/>
</g>
</svg>
