<?xml version="1.0" standalone="no"?>
<!DOCTYPE svg PUBLIC "-//W3C//DTD SVG 20010904//EN"
 "http://www.w3.org/TR/2001/REC-SVG-20010904/DTD/svg10.dtd">
<svg version="1.0" xmlns="http://www.w3.org/2000/svg"
 width="90.000000pt" height="92.000000pt" viewBox="0 0 90.000000 92.000000"
 preserveAspectRatio="xMidYMid meet">
<metadata>
Created by potrace 1.16, written by Peter Selinger 2001-2019
</metadata>
<g transform="translate(0.000000,92.000000) scale(0.100000,-0.100000)"
fill="#000000" stroke="none">
<path d="M388 797 c5 -83 -8 -107 -58 -107 -34 0 -60 -9 -60 -21 0 -5 25 -9
56 -9 47 0 55 -3 50 -16 -3 -9 -6 -29 -6 -45 0 -29 0 -29 -60 -29 -59 0 -70
-6 -50 -26 5 -5 15 -44 21 -85 14 -97 17 -101 57 -90 l32 10 0 -39 0 -38 -115
-17 c-63 -10 -115 -22 -115 -27 0 -4 11 -13 24 -19 22 -10 105 2 190 28 18 5
19 1 13 -71 -7 -74 3 -126 22 -126 17 0 25 43 23 126 l-2 82 65 7 c36 3 65 11
65 15 0 13 -36 31 -52 26 -7 -2 -28 -7 -45 -10 -32 -5 -33 -4 -33 29 0 36 2
38 54 39 28 1 31 5 54 76 12 41 27 79 33 85 15 15 11 24 -22 41 -23 11 -44 14
-77 9 -43 -6 -45 -6 -39 17 4 13 7 31 7 40 0 12 12 19 43 23 24 4 50 11 58 16
23 15 -10 31 -52 24 l-37 -5 9 38 c22 90 22 89 -2 106 -47 32 -55 23 -51 -57z
m92 -256 c0 -27 -3 -29 -52 -35 -29 -3 -68 -9 -85 -12 -31 -6 -33 -5 -33 23 0
30 1 30 73 40 39 6 78 11 85 12 7 0 12 -11 12 -28z m-9 -83 c-6 -29 -11 -32
-66 -44 -84 -18 -85 -18 -85 16 0 32 -4 30 100 48 30 5 56 10 56 11 1 0 -1
-13 -5 -31z"/>
<path d="M701 720 c-42 -13 -61 -15 -82 -6 -37 14 -42 7 -30 -45 14 -58 14
-218 0 -315 -13 -96 -32 -154 -70 -217 -22 -36 -25 -46 -12 -38 51 27 98 108
117 202 13 63 13 64 52 71 88 16 84 20 84 -93 0 -123 -7 -141 -52 -128 -50 14
-50 12 1 -41 26 -28 53 -50 58 -50 6 0 18 15 27 34 13 29 16 76 16 296 0 176
4 268 11 283 10 18 8 24 -15 44 -31 27 -33 27 -105 3z m59 -96 c0 -63 0 -64
-28 -64 -15 0 -42 -4 -60 -10 l-34 -9 7 62 c8 71 11 77 57 86 52 12 58 6 58
-65z m0 -148 l0 -53 -37 -6 c-21 -3 -48 -9 -60 -13 -22 -6 -23 -4 -23 55 0 34
4 60 9 57 4 -3 28 -2 52 3 24 5 47 9 52 10 4 1 7 -23 7 -53z"/>
<path d="M159 640 c-29 -17 -95 -27 -118 -18 -32 11 -43 1 -27 -25 8 -12 17
-54 21 -94 7 -74 27 -119 43 -96 6 10 91 33 119 33 2 0 2 8 -1 18 -3 9 5 49
19 87 18 54 21 73 12 81 -18 18 -50 24 -68 14z m5 -92 c-4 -29 -7 -57 -8 -63
-1 -9 -66 -39 -71 -33 -1 2 -5 33 -9 70 -7 73 -7 73 67 77 l28 1 -7 -52z"/>
</g>
</svg>
