<?xml version="1.0" standalone="no"?>
<!DOCTYPE svg PUBLIC "-//W3C//DTD SVG 20010904//EN"
 "http://www.w3.org/TR/2001/REC-SVG-20010904/DTD/svg10.dtd">
<svg version="1.0" xmlns="http://www.w3.org/2000/svg"
 width="96.000000pt" height="68.000000pt" viewBox="0 0 96.000000 68.000000"
 preserveAspectRatio="xMidYMid meet">
<metadata>
Created by potrace 1.16, written by Peter Selinger 2001-2019
</metadata>
<g transform="translate(0.000000,68.000000) scale(0.100000,-0.100000)"
fill="#000000" stroke="none">
<path d="M215 425 c-22 -7 -58 -11 -80 -8 -39 6 -40 6 -23 -14 10 -11 22 -44
28 -73 11 -56 28 -86 37 -63 2 7 26 15 51 19 l47 6 21 65 21 65 -24 9 c-28 11
-26 11 -78 -6z m33 -62 c-3 -41 -6 -48 -32 -56 -35 -12 -46 2 -46 55 0 30 4
37 23 41 57 11 58 10 55 -40z"/>
</g>
</svg>
