<?xml version="1.0" standalone="no"?>
<!DOCTYPE svg PUBLIC "-//W3C//DTD SVG 20010904//EN"
 "http://www.w3.org/TR/2001/REC-SVG-20010904/DTD/svg10.dtd">
<svg version="1.0" xmlns="http://www.w3.org/2000/svg"
 width="96.000000pt" height="68.000000pt" viewBox="0 0 96.000000 68.000000"
 preserveAspectRatio="xMidYMid meet">
<metadata>
Created by potrace 1.16, written by Peter Selinger 2001-2019
</metadata>
<g transform="translate(0.000000,68.000000) scale(0.100000,-0.100000)"
fill="#000000" stroke="none">
<path d="M448 537 l-3 -62 -50 -11 c-46 -10 -48 -12 -23 -19 16 -4 35 -5 43
-2 19 8 27 -7 19 -38 -6 -23 -11 -25 -63 -25 -31 0 -51 -4 -44 -8 6 -4 19 -35
29 -70 l17 -62 34 6 c31 6 33 5 33 -24 0 -33 -6 -36 -132 -48 -38 -4 -68 -11
-68 -15 0 -17 48 -20 115 -6 39 8 73 13 78 10 4 -2 4 -29 1 -58 -5 -39 -3 -59
7 -71 22 -26 39 10 39 83 l0 63 38 0 c42 0 82 18 47 21 -11 1 -35 1 -52 0 -29
-2 -33 0 -33 23 0 22 4 26 30 26 27 0 33 7 62 66 38 78 32 87 -50 81 -43 -3
-52 -1 -47 10 3 8 5 23 5 33 0 15 9 20 40 22 52 4 56 22 7 26 -32 3 -37 6 -32
20 20 53 18 69 -14 80 l-30 11 -3 -62z m90 -174 c-2 -13 -21 -20 -78 -29 -41
-6 -76 -11 -77 -10 0 0 -3 10 -5 21 -3 17 4 21 47 26 99 12 117 10 113 -8z
m-15 -63 c-4 -14 -17 -21 -52 -25 -25 -4 -54 -9 -63 -12 -14 -3 -18 2 -18 21
0 26 13 31 102 34 31 2 35 -1 31 -18z"/>
<path d="M735 488 c-22 -5 -54 -7 -71 -4 l-32 4 -1 -124 c0 -131 -18 -227 -50
-274 -34 -49 -35 -53 -12 -41 30 17 68 78 82 134 6 26 15 49 18 52 4 2 31 7
59 11 l52 7 0 -74 c0 -89 -7 -103 -46 -93 l-29 7 34 -37 c38 -40 46 -42 66
-23 10 10 14 64 17 213 2 109 7 206 11 215 6 11 0 19 -18 27 -29 13 -26 13
-80 0z m43 -69 c3 -45 3 -46 -30 -48 -18 0 -42 -2 -53 -4 -18 -2 -20 3 -16 43
4 52 13 61 61 58 34 -3 35 -4 38 -49z m2 -109 c0 -35 -3 -40 -24 -40 -13 0
-38 -3 -55 -6 -31 -6 -31 -6 -31 33 0 22 3 43 7 46 3 4 28 7 55 7 l48 0 0 -40z"/>
<path d="M215 429 c-16 -6 -49 -7 -72 -5 -48 6 -49 5 -29 -27 8 -12 17 -40 20
-62 11 -62 16 -75 32 -75 8 0 14 5 14 10 0 6 15 10 33 10 56 0 77 10 77 36 0
14 7 41 15 61 24 58 -10 77 -90 52z m31 -60 c-3 -17 -6 -38 -6 -45 0 -9 -11
-14 -29 -14 -25 0 -30 5 -35 35 -9 46 -2 55 41 55 34 0 35 -1 29 -31z"/>
</g>
</svg>
