<?xml version="1.0" standalone="no"?>
<!DOCTYPE svg PUBLIC "-//W3C//DTD SVG 20010904//EN"
 "http://www.w3.org/TR/2001/REC-SVG-20010904/DTD/svg10.dtd">
<svg version="1.0" xmlns="http://www.w3.org/2000/svg"
 width="96.000000pt" height="68.000000pt" viewBox="0 0 96.000000 68.000000"
 preserveAspectRatio="xMidYMid meet">
<metadata>
Created by potrace 1.16, written by Peter Selinger 2001-2019
</metadata>
<g transform="translate(0.000000,68.000000) scale(0.100000,-0.100000)"
fill="#000000" stroke="none">
<path d="M450 531 l0 -59 -57 -7 c-45 -5 -53 -9 -39 -17 10 -5 34 -7 53 -3 36
6 36 6 30 -24 -5 -26 -3 -31 12 -31 13 0 22 10 26 30 6 29 14 34 69 42 11 2
21 9 24 17 3 10 -5 12 -36 9 -40 -3 -41 -2 -35 22 3 14 10 33 15 42 6 13 3 20
-11 28 -42 22 -51 14 -51 -49z"/>
</g>
</svg>
