<?xml version="1.0" standalone="no"?>
<!DOCTYPE svg PUBLIC "-//W3C//DTD SVG 20010904//EN"
 "http://www.w3.org/TR/2001/REC-SVG-20010904/DTD/svg10.dtd">
<svg version="1.0" xmlns="http://www.w3.org/2000/svg"
 width="90.000000pt" height="92.000000pt" viewBox="0 0 90.000000 92.000000"
 preserveAspectRatio="xMidYMid meet">
<metadata>
Created by potrace 1.16, written by Peter Selinger 2001-2019
</metadata>
<g transform="translate(0.000000,92.000000) scale(0.100000,-0.100000)"
fill="#000000" stroke="none">
<path d="M570 778 c-51 -11 -106 -17 -137 -14 -29 2 -53 3 -53 1 0 -1 6 -18
14 -36 7 -19 17 -63 20 -99 8 -70 23 -110 35 -91 4 6 15 9 24 5 15 -5 15 -9 2
-34 -8 -15 -34 -45 -57 -65 -35 -31 -38 -36 -18 -30 65 19 138 89 126 120 -3
10 1 15 12 15 9 0 27 3 40 6 20 6 22 3 22 -39 0 -50 16 -74 56 -82 13 -3 36
-7 50 -10 43 -9 94 5 94 26 0 17 -8 19 -64 19 -82 0 -96 6 -96 39 0 38 15 58
32 43 23 -19 39 2 63 86 13 44 28 90 34 101 10 18 8 23 -21 41 -39 24 -65 23
-178 -2z m122 -30 c2 -6 2 -23 0 -37 -3 -25 -6 -26 -58 -23 -52 4 -54 5 -54
32 0 22 5 30 23 33 45 9 85 7 89 -5z m-159 -35 c7 -34 2 -39 -45 -46 -31 -5
-38 -3 -38 11 0 9 -3 27 -6 40 -6 20 -3 22 39 22 41 0 45 -2 50 -27z m148 -84
c-6 -29 -10 -31 -54 -34 -46 -3 -47 -2 -47 25 0 25 4 29 33 33 76 9 75 10 68
-24z m-147 -17 c-8 -33 -3 -28 -41 -37 -29 -6 -33 -4 -33 13 0 11 -2 26 -5 34
-4 9 7 13 40 15 44 1 45 1 39 -25z"/>
<path d="M160 785 c0 -11 42 -90 57 -106 12 -15 4 -18 -88 -32 -56 -9 -104
-19 -108 -22 -9 -10 30 -35 55 -35 13 0 60 9 105 20 46 11 109 22 141 26 39 4
58 11 58 20 0 18 -42 28 -86 19 -34 -6 -36 -5 -31 15 9 33 -9 67 -42 85 -30
15 -61 20 -61 10z"/>
<path d="M188 541 c-69 -20 -79 -28 -43 -37 23 -6 95 4 159 23 19 5 19 6 1 19
-23 17 -44 16 -117 -5z"/>
<path d="M205 450 c-16 -4 -43 -11 -58 -14 -17 -4 -25 -11 -21 -18 5 -7 31 -9
79 -5 83 7 107 15 102 31 -4 14 -62 17 -102 6z"/>
<path d="M500 440 c0 -22 -30 -90 -40 -90 -3 0 -15 7 -26 15 -20 15 -64 20
-64 8 0 -5 14 -16 30 -25 17 -9 30 -24 30 -32 0 -8 -23 -35 -51 -60 -28 -25
-48 -46 -45 -46 12 0 70 32 102 56 l30 24 32 -33 c18 -18 32 -36 32 -39 0 -11
-79 -60 -137 -84 l-58 -25 53 4 c33 3 76 16 114 35 l60 32 47 -41 c58 -52 85
-62 141 -54 68 10 130 26 130 35 0 4 -17 11 -37 15 -62 11 -186 54 -215 73
l-26 17 38 58 c21 32 46 65 56 73 18 14 18 14 -1 29 -32 25 -62 28 -106 11
-48 -19 -56 -16 -37 14 11 18 11 23 -6 36 -27 20 -46 18 -46 -6z m120 -95 c0
-17 -49 -95 -59 -95 -4 0 -22 16 -41 35 -27 28 -31 37 -21 49 11 13 28 17 104
24 9 1 17 -5 17 -13z"/>
<path d="M230 345 c-19 -7 -59 -14 -87 -14 -29 -1 -53 -3 -53 -6 0 -3 6 -16
14 -28 8 -12 20 -48 27 -80 12 -56 29 -83 37 -59 2 7 12 12 22 12 44 0 122 22
112 32 -11 11 4 66 30 107 11 20 11 24 -6 37 -24 17 -50 17 -96 -1z m36 -56
c-3 -17 -6 -40 -6 -50 0 -13 -12 -22 -40 -30 -22 -7 -42 -10 -44 -8 -2 2 -6
25 -10 50 l-7 47 38 10 c69 18 76 16 69 -19z"/>
</g>
</svg>
