<?xml version="1.0" standalone="no"?>
<!DOCTYPE svg PUBLIC "-//W3C//DTD SVG 20010904//EN"
 "http://www.w3.org/TR/2001/REC-SVG-20010904/DTD/svg10.dtd">
<svg version="1.0" xmlns="http://www.w3.org/2000/svg"
 width="90.000000pt" height="92.000000pt" viewBox="0 0 90.000000 92.000000"
 preserveAspectRatio="xMidYMid meet">
<metadata>
Created by potrace 1.16, written by Peter Selinger 2001-2019
</metadata>
<g transform="translate(0.000000,92.000000) scale(0.100000,-0.100000)"
fill="#000000" stroke="none">
<path d="M352 868 c-7 -24 -29 -71 -48 -105 l-35 -63 -49 0 c-48 0 -67 -14
-35 -26 18 -7 31 -49 46 -144 6 -41 15 -83 20 -92 12 -22 29 -23 29 -3 0 8 9
15 20 15 49 0 2 -114 -89 -212 -34 -37 -89 -85 -122 -107 -44 -30 -55 -41 -40
-41 82 0 216 115 284 242 15 28 32 57 38 64 5 6 8 22 7 35 -2 18 2 24 17 24
19 0 20 -7 20 -157 0 -174 6 -192 73 -231 42 -25 163 -33 244 -17 66 13 138
44 138 60 0 16 -43 144 -52 155 -4 5 -8 -2 -8 -18 0 -47 -30 -107 -62 -123
-63 -33 -226 -30 -269 5 -19 16 -21 26 -20 104 1 47 8 112 17 143 10 39 11 61
4 68 -18 18 -11 26 22 26 17 0 39 -7 49 -15 25 -23 40 -4 79 106 18 52 39 102
48 111 19 22 7 38 -48 63 -38 17 -42 17 -142 -3 -57 -11 -123 -23 -147 -27
-51 -7 -56 -18 43 97 l57 68 -33 20 c-18 11 -35 20 -38 20 -3 0 -11 -19 -18
-42z m232 -176 c3 -5 3 -25 -1 -44 -5 -35 -6 -36 -36 -27 -28 8 -49 6 -100 -8
-16 -4 -17 0 -12 31 5 27 4 36 -6 38 -17 1 73 14 118 16 17 1 34 -2 37 -6z
m-208 -47 c3 -20 5 -38 2 -40 -2 -2 -28 -5 -58 -7 l-55 -3 -3 37 c-3 37 -3 37
40 41 24 2 48 4 55 5 7 1 15 -14 19 -33z m185 -108 c-11 -32 -13 -33 -71 -34
l-60 -2 0 38 0 38 68 9 c75 10 81 6 63 -49z m-191 -49 c-8 -4 -31 -7 -51 -7
-36 -1 -37 0 -41 39 l-3 39 50 3 50 3 5 -35 c4 -25 1 -37 -10 -42z"/>
<path d="M593 372 c-17 -37 -46 -81 -63 -99 l-31 -31 23 -26 23 -26 80 35 80
35 18 -25 c27 -36 47 -32 47 9 0 36 -28 68 -72 82 -28 8 -32 0 -13 -29 l16
-25 -51 -7 c-28 -4 -53 -5 -55 -3 -3 2 6 20 19 39 59 89 62 96 41 119 -10 11
-21 20 -24 19 -3 0 -20 -30 -38 -67z"/>
</g>
</svg>
