<?xml version="1.0" standalone="no"?>
<!DOCTYPE svg PUBLIC "-//W3C//DTD SVG 20010904//EN"
 "http://www.w3.org/TR/2001/REC-SVG-20010904/DTD/svg10.dtd">
<svg version="1.0" xmlns="http://www.w3.org/2000/svg"
 width="96.000000pt" height="68.000000pt" viewBox="0 0 96.000000 68.000000"
 preserveAspectRatio="xMidYMid meet">
<metadata>
Created by potrace 1.16, written by Peter Selinger 2001-2019
</metadata>
<g transform="translate(0.000000,68.000000) scale(0.100000,-0.100000)"
fill="#000000" stroke="none">
<path d="M680 409 c-25 -4 -88 -10 -140 -13 l-94 -6 -20 -41 c-16 -34 -17 -42
-5 -50 10 -6 19 2 33 31 17 34 25 40 50 40 17 0 72 7 121 15 50 8 101 15 114
15 23 0 23 0 5 -46 -4 -8 11 -8 51 -1 62 12 69 25 26 50 -31 18 -67 20 -141 6z"/>
</g>
</svg>
