<?xml version="1.0" standalone="no"?>
<!DOCTYPE svg PUBLIC "-//W3C//DTD SVG 20010904//EN"
 "http://www.w3.org/TR/2001/REC-SVG-20010904/DTD/svg10.dtd">
<svg version="1.0" xmlns="http://www.w3.org/2000/svg"
 width="96.000000pt" height="68.000000pt" viewBox="0 0 96.000000 68.000000"
 preserveAspectRatio="xMidYMid meet">
<metadata>
Created by potrace 1.16, written by Peter Selinger 2001-2019
</metadata>
<g transform="translate(0.000000,68.000000) scale(0.100000,-0.100000)"
fill="#000000" stroke="none">
<path d="M464 609 c-3 -5 -4 -31 -3 -57 l3 -47 -44 -15 -45 -15 44 -5 c40 -4
46 -8 53 -36 12 -45 30 -56 106 -61 81 -5 147 7 147 27 0 16 -12 17 -129 4
-61 -6 -71 -5 -83 11 -15 21 -17 61 -4 69 5 3 42 13 82 21 41 9 78 20 82 24
20 20 -17 21 -87 2 -41 -10 -77 -17 -79 -14 -3 2 -1 20 4 40 4 20 6 40 4 44
-8 12 -45 18 -51 8z"/>
<path d="M240 587 c0 -17 58 -57 82 -57 33 0 45 17 26 36 -13 14 -108 32 -108
21z"/>
<path d="M190 501 c0 -17 62 -61 86 -61 39 0 32 38 -11 56 -39 16 -75 18 -75
5z"/>
<path d="M315 409 c-27 -16 -65 -31 -82 -35 -37 -7 -42 -23 -14 -48 25 -22 47
-12 114 52 70 69 64 78 -18 31z"/>
<path d="M430 327 l0 -46 -42 -5 c-24 -3 -87 -8 -140 -12 -54 -3 -98 -9 -98
-13 0 -15 66 -27 105 -20 22 5 64 8 94 8 l54 1 -46 -35 c-42 -32 -90 -59 -167
-93 l-25 -11 30 0 c28 -1 114 26 125 39 3 3 29 23 59 44 l54 38 -6 -80 c-4
-60 -2 -85 9 -99 23 -30 34 2 34 95 l0 84 43 -33 c23 -19 44 -36 47 -39 3 -3
19 -15 37 -27 26 -19 46 -23 108 -23 41 0 75 4 75 8 0 4 -32 15 -71 25 -73 17
-219 91 -227 115 -3 10 22 13 119 12 161 -1 159 -1 159 9 0 24 -58 32 -166 23
-60 -6 -113 -8 -117 -5 -4 2 -5 20 -1 39 4 21 2 34 -4 34 -6 0 -17 3 -26 6
-13 5 -16 -2 -16 -39z"/>
</g>
</svg>
