<?xml version="1.0" standalone="no"?>
<!DOCTYPE svg PUBLIC "-//W3C//DTD SVG 20010904//EN"
 "http://www.w3.org/TR/2001/REC-SVG-20010904/DTD/svg10.dtd">
<svg version="1.0" xmlns="http://www.w3.org/2000/svg"
 width="96.000000pt" height="68.000000pt" viewBox="0 0 96.000000 68.000000"
 preserveAspectRatio="xMidYMid meet">
<metadata>
Created by potrace 1.16, written by Peter Selinger 2001-2019
</metadata>
<g transform="translate(0.000000,68.000000) scale(0.100000,-0.100000)"
fill="#000000" stroke="none">
<path d="M370 201 c0 -27 5 -61 11 -75 24 -51 149 -76 295 -57 92 12 144 27
144 42 0 5 -10 29 -22 54 -22 45 -38 58 -38 30 0 -30 -24 -64 -54 -77 -42 -18
-221 -17 -263 1 -30 12 -32 17 -35 69 -2 45 -7 58 -20 60 -15 3 -18 -4 -18
-47z"/>
</g>
</svg>
