<?xml version="1.0" standalone="no"?>
<!DOCTYPE svg PUBLIC "-//W3C//DTD SVG 20010904//EN"
 "http://www.w3.org/TR/2001/REC-SVG-20010904/DTD/svg10.dtd">
<svg version="1.0" xmlns="http://www.w3.org/2000/svg"
 width="96.000000pt" height="68.000000pt" viewBox="0 0 96.000000 68.000000"
 preserveAspectRatio="xMidYMid meet">
<metadata>
Created by potrace 1.16, written by Peter Selinger 2001-2019
</metadata>
<g transform="translate(0.000000,68.000000) scale(0.100000,-0.100000)"
fill="#000000" stroke="none">
<path d="M745 125 c44 -38 79 -46 73 -18 -3 19 -35 37 -83 47 l-30 6 40 -35z"/>
<path d="M540 131 c0 -11 39 -41 52 -41 15 0 8 38 -8 44 -23 9 -44 7 -44 -3z"/>
<path d="M364 85 c-13 -35 -14 -49 -6 -57 15 -15 30 -1 40 38 9 32 5 64 -8 64
-5 0 -16 -20 -26 -45z"/>
<path d="M440 122 c0 -4 11 -24 25 -42 40 -54 78 -69 172 -70 138 0 169 26 84
71 l-49 26 11 -24 c14 -31 -2 -43 -56 -43 -74 0 -128 20 -149 56 -19 32 -38
45 -38 26z"/>
</g>
</svg>
