<?xml version="1.0" standalone="no"?>
<!DOCTYPE svg PUBLIC "-//W3C//DTD SVG 20010904//EN"
 "http://www.w3.org/TR/2001/REC-SVG-20010904/DTD/svg10.dtd">
<svg version="1.0" xmlns="http://www.w3.org/2000/svg"
 width="90.000000pt" height="92.000000pt" viewBox="0 0 90.000000 92.000000"
 preserveAspectRatio="xMidYMid meet">
<metadata>
Created by potrace 1.16, written by Peter Selinger 2001-2019
</metadata>
<g transform="translate(0.000000,92.000000) scale(0.100000,-0.100000)"
fill="#000000" stroke="none">
<path d="M619 865 c-7 -7 -364 -45 -421 -45 l-49 0 20 -27 c10 -16 24 -56 31
-90 7 -34 19 -64 26 -67 8 -3 14 -2 14 3 0 9 288 32 350 28 32 -2 37 2 55 40
11 23 30 52 43 65 32 35 28 55 -18 78 -43 22 -44 22 -51 15z m-9 -65 c0 -11
-5 -38 -12 -59 l-12 -38 -50 5 c-28 2 -53 6 -55 8 -2 2 6 20 19 41 21 35 21
38 4 50 -15 11 -9 13 44 13 55 0 62 -2 62 -20z m-153 -41 c-4 -29 -8 -53 -9
-54 -2 -2 -17 -6 -35 -9 l-31 -7 -4 56 c-1 31 -1 59 1 61 2 2 22 4 44 4 l40 0
-6 -51z m-116 -15 c16 -48 15 -49 -5 -56 -12 -3 -37 -6 -57 -7 -36 -1 -37 0
-44 45 -7 52 -2 61 40 67 46 6 49 4 66 -49z"/>
<path d="M466 619 c-9 -47 -53 -129 -97 -181 -46 -55 -43 -61 11 -18 21 17 41
30 45 30 8 0 -1 -277 -11 -345 -4 -27 -1 -46 10 -60 20 -27 29 -15 34 50 4 46
7 53 21 46 9 -5 47 -3 90 4 41 7 119 16 173 20 102 7 118 17 67 42 -19 9 -41
10 -92 1 -37 -6 -70 -8 -73 -5 -4 3 -4 21 0 40 6 33 8 34 62 40 31 3 59 9 62
12 13 13 -25 25 -70 23 -36 -2 -48 1 -51 12 -8 37 5 48 59 55 70 8 67 29 -4
33 -49 3 -52 4 -52 31 0 26 3 28 63 37 44 6 62 13 62 24 0 12 -12 14 -57 12
-56 -2 -58 -1 -58 23 0 25 -25 47 -67 60 -30 8 -29 -7 2 -53 30 -44 26 -48
-75 -58 -73 -7 -75 -6 -59 12 8 11 27 38 42 61 l27 42 -22 21 c-29 27 -34 25
-42 -11z m124 -183 c0 -31 -3 -34 -37 -40 -76 -12 -85 -9 -81 27 3 30 5 32 53
38 28 3 53 7 58 7 4 1 7 -13 7 -32z m10 -107 c0 -22 -5 -29 -19 -29 -10 0 -39
-3 -65 -6 l-46 -7 0 36 0 36 58 3 c71 4 72 3 72 -33z m-5 -104 c-3 -21 -7 -40
-8 -41 -1 -1 -28 -5 -59 -8 l-58 -7 0 48 0 48 66 0 66 0 -7 -40z"/>
<path d="M205 608 c-2 -7 -9 -30 -15 -51 -6 -20 -29 -60 -51 -87 -60 -76 -49
-103 31 -75 23 8 45 14 47 11 6 -6 -77 -107 -93 -113 -18 -7 -18 -27 0 -42 12
-10 30 -5 92 25 66 31 80 35 97 25 16 -10 21 -10 28 1 15 22 10 35 -22 63 -35
29 -46 27 -29 -5 6 -12 10 -23 8 -24 -15 -11 -118 -44 -118 -38 0 4 37 50 81
101 76 87 81 94 68 117 -18 35 -34 30 -47 -15 -7 -21 -19 -44 -27 -51 -16 -14
-95 -26 -95 -15 0 4 23 35 50 70 54 68 60 89 31 105 -25 13 -31 13 -36 -2z"/>
<path d="M280 253 c0 -18 52 -84 63 -80 19 6 19 42 0 59 -22 19 -63 33 -63 21z"/>
<path d="M190 214 c0 -17 45 -84 56 -84 36 0 27 61 -11 78 -29 13 -45 15 -45
6z"/>
<path d="M70 183 c0 -5 13 -30 28 -58 32 -59 62 -72 62 -27 0 17 -3 38 -6 47
-10 25 -84 59 -84 38z"/>
</g>
</svg>
