<?xml version="1.0" standalone="no"?>
<!DOCTYPE svg PUBLIC "-//W3C//DTD SVG 20010904//EN"
 "http://www.w3.org/TR/2001/REC-SVG-20010904/DTD/svg10.dtd">
<svg version="1.0" xmlns="http://www.w3.org/2000/svg"
 width="96.000000pt" height="68.000000pt" viewBox="0 0 96.000000 68.000000"
 preserveAspectRatio="xMidYMid meet">
<metadata>
Created by potrace 1.16, written by Peter Selinger 2001-2019
</metadata>
<g transform="translate(0.000000,68.000000) scale(0.100000,-0.100000)"
fill="#000000" stroke="none">
<path d="M613 233 c-7 -3 -13 -11 -13 -19 0 -7 6 -11 14 -8 8 3 17 1 21 -5 3
-7 0 -8 -9 -5 -9 3 -16 1 -16 -5 0 -6 -6 -8 -14 -5 -8 3 -17 0 -21 -6 -4 -7 0
-10 11 -8 13 2 18 -2 16 -14 -2 -13 4 -18 19 -18 12 0 19 3 16 6 -3 4 -2 15 4
25 12 23 -9 68 -28 62z"/>
<path d="M668 193 c6 -2 18 -2 25 0 6 3 1 5 -13 5 -14 0 -19 -2 -12 -5z"/>
<path d="M545 180 c-3 -5 -1 -10 4 -10 6 0 11 5 11 10 0 6 -2 10 -4 10 -3 0
-8 -4 -11 -10z"/>
<path d="M610 118 c0 -9 -92 -28 -104 -21 -5 3 -6 1 -2 -5 10 -16 32 -15 84 3
24 8 76 16 117 17 104 2 95 13 -10 13 -47 0 -85 -3 -85 -7z"/>
</g>
</svg>
