<?xml version="1.0" standalone="no"?>
<!DOCTYPE svg PUBLIC "-//W3C//DTD SVG 20010904//EN"
 "http://www.w3.org/TR/2001/REC-SVG-20010904/DTD/svg10.dtd">
<svg version="1.0" xmlns="http://www.w3.org/2000/svg"
 width="90.000000pt" height="92.000000pt" viewBox="0 0 90.000000 92.000000"
 preserveAspectRatio="xMidYMid meet">
<metadata>
Created by potrace 1.16, written by Peter Selinger 2001-2019
</metadata>
<g transform="translate(0.000000,92.000000) scale(0.100000,-0.100000)"
fill="#000000" stroke="none">
<path d="M540 858 c0 -57 -9 -68 -59 -75 -22 -3 -41 -9 -41 -13 0 -11 26 -20
56 -20 21 0 23 -3 14 -26 -16 -41 -11 -51 13 -23 12 14 27 34 32 44 8 14 28
19 88 23 43 2 80 8 83 13 2 4 -8 15 -24 23 -21 11 -38 12 -68 6 -56 -13 -56
-13 -38 22 16 31 16 32 -6 50 -37 30 -50 23 -50 -24z"/>
<path d="M248 864 c-4 -3 2 -24 12 -47 l19 -42 -47 -8 c-26 -4 -59 -5 -74 -2
-35 6 -35 -5 -3 -35 23 -21 29 -23 58 -13 76 26 74 26 87 -12 15 -46 30 -45
30 4 0 36 3 40 35 51 48 16 45 34 -4 25 l-38 -6 -7 39 c-4 30 -11 41 -28 46
-29 7 -33 7 -40 0z"/>
<path d="M376 678 c-6 -35 -20 -54 -94 -128 -48 -47 -122 -110 -165 -138 -95
-63 -79 -67 35 -10 66 34 102 62 179 139 l96 97 46 -36 c25 -21 83 -70 128
-111 l82 -74 73 6 c40 3 81 10 91 15 16 10 16 11 -8 21 -15 5 -46 15 -69 21
-24 6 -67 22 -95 35 -69 30 -237 144 -230 155 6 10 -33 50 -51 50 -6 0 -14
-19 -18 -42z"/>
<path d="M390 543 c-37 -7 -46 -21 -18 -28 31 -8 123 7 123 20 0 11 -65 16
-105 8z"/>
<path d="M450 473 c-41 -7 -97 -11 -125 -9 l-50 6 -1 -83 c-1 -111 -30 -175
-122 -267 -46 -46 -60 -65 -43 -59 41 16 101 65 134 109 28 39 32 41 44 24 7
-9 15 -34 19 -53 11 -67 20 -96 30 -96 5 0 69 6 142 14 114 12 132 16 127 30
-4 14 9 40 47 93 9 13 9 20 -2 33 -26 31 -56 35 -167 20 -59 -8 -130 -15 -156
-15 -46 0 -48 1 -41 23 3 12 7 23 9 25 4 5 151 21 196 22 l45 0 39 82 38 81
-23 19 c-26 21 -38 21 -140 1z m86 -39 c-3 -9 -6 -20 -6 -26 0 -6 -9 -8 -20
-5 -11 3 -56 0 -100 -7 l-80 -13 0 23 c0 20 6 24 48 29 26 4 52 8 57 10 6 2
32 4 59 4 40 1 47 -2 42 -15z m-18 -76 c-3 -19 -13 -24 -73 -34 -38 -7 -85
-13 -103 -13 -30 -1 -33 1 -26 22 3 12 7 23 8 23 1 1 85 11 184 23 8 0 12 -7
10 -21z m47 -157 c3 -6 3 -28 -1 -50 l-6 -39 -62 -10 c-33 -6 -79 -13 -102
-17 l-41 -6 -7 47 c-3 26 -3 51 2 56 17 17 207 33 217 19z"/>
</g>
</svg>
