<?xml version="1.0" standalone="no"?>
<!DOCTYPE svg PUBLIC "-//W3C//DTD SVG 20010904//EN"
 "http://www.w3.org/TR/2001/REC-SVG-20010904/DTD/svg10.dtd">
<svg version="1.0" xmlns="http://www.w3.org/2000/svg"
 width="96.000000pt" height="68.000000pt" viewBox="0 0 96.000000 68.000000"
 preserveAspectRatio="xMidYMid meet">
<metadata>
Created by potrace 1.16, written by Peter Selinger 2001-2019
</metadata>
<g transform="translate(0.000000,68.000000) scale(0.100000,-0.100000)"
fill="#000000" stroke="none">
<path d="M480 143 c-58 -7 -118 -11 -133 -8 -20 3 -27 1 -23 -8 2 -6 12 -36
21 -65 12 -38 21 -52 31 -48 8 3 45 8 82 11 117 10 153 16 147 25 -3 4 7 22
21 40 23 27 25 33 13 45 -23 21 -49 23 -159 8z m88 -45 c-3 -36 -14 -41 -119
-52 l-66 -6 -10 35 -11 34 37 6 c20 4 43 8 51 10 8 1 39 3 68 4 l53 1 -3 -32z"/>
</g>
</svg>
