<?xml version="1.0" standalone="no"?>
<!DOCTYPE svg PUBLIC "-//W3C//DTD SVG 20010904//EN"
 "http://www.w3.org/TR/2001/REC-SVG-20010904/DTD/svg10.dtd">
<svg version="1.0" xmlns="http://www.w3.org/2000/svg"
 width="96.000000pt" height="68.000000pt" viewBox="0 0 96.000000 68.000000"
 preserveAspectRatio="xMidYMid meet">
<metadata>
Created by potrace 1.16, written by Peter Selinger 2001-2019
</metadata>
<g transform="translate(0.000000,68.000000) scale(0.100000,-0.100000)"
fill="#000000" stroke="none">
<path d="M625 539 c-22 -4 -73 -9 -112 -10 -65 -2 -71 -4 -59 -18 8 -9 19 -42
26 -73 7 -31 16 -60 19 -65 3 -4 52 -7 107 -5 l101 3 29 72 c16 39 30 75 32
78 4 9 -56 29 -82 28 -12 -1 -39 -5 -61 -10z m73 -42 c-3 -18 -15 -23 -87 -34
-89 -14 -111 -9 -111 27 0 15 12 19 78 25 42 4 82 8 87 9 20 6 36 -7 33 -27z
m-8 -53 c0 -1 -4 -14 -9 -27 -9 -22 -15 -24 -85 -26 -75 -2 -76 -1 -76 23 0
24 3 25 73 28 39 2 78 3 85 4 6 0 12 -1 12 -2z"/>
</g>
</svg>
