<?xml version="1.0" standalone="no"?>
<!DOCTYPE svg PUBLIC "-//W3C//DTD SVG 20010904//EN"
 "http://www.w3.org/TR/2001/REC-SVG-20010904/DTD/svg10.dtd">
<svg version="1.0" xmlns="http://www.w3.org/2000/svg"
 width="96.000000pt" height="68.000000pt" viewBox="0 0 96.000000 68.000000"
 preserveAspectRatio="xMidYMid meet">
<metadata>
Created by potrace 1.16, written by Peter Selinger 2001-2019
</metadata>
<g transform="translate(0.000000,68.000000) scale(0.100000,-0.100000)"
fill="#000000" stroke="none">
<path d="M572 210 c0 -82 3 -152 8 -155 16 -10 26 57 26 167 -1 62 3 104 8
100 5 -3 6 2 3 12 -4 10 -7 20 -7 22 0 2 -8 4 -18 4 -17 0 -19 -12 -20 -150z"/>
<path d="M747 349 c-9 -5 -21 -8 -25 -5 -5 3 -22 1 -38 -4 -22 -6 -5 -8 64 -9
64 -1 91 2 87 10 -4 6 -14 8 -22 5 -8 -3 -11 -1 -8 4 8 13 -35 12 -58 -1z"/>
<path d="M630 330 c0 -5 5 -10 11 -10 5 0 7 5 4 10 -3 6 -8 10 -11 10 -2 0 -4
-4 -4 -10z"/>
<path d="M480 320 c-14 -4 -36 -6 -50 -3 -23 4 -24 3 -7 -10 16 -13 25 -13 75
0 31 8 59 17 61 19 7 7 -52 3 -79 -6z"/>
</g>
</svg>
