<?xml version="1.0" standalone="no"?>
<!DOCTYPE svg PUBLIC "-//W3C//DTD SVG 20010904//EN"
 "http://www.w3.org/TR/2001/REC-SVG-20010904/DTD/svg10.dtd">
<svg version="1.0" xmlns="http://www.w3.org/2000/svg"
 width="90.000000pt" height="92.000000pt" viewBox="0 0 90.000000 92.000000"
 preserveAspectRatio="xMidYMid meet">
<metadata>
Created by potrace 1.16, written by Peter Selinger 2001-2019
</metadata>
<g transform="translate(0.000000,92.000000) scale(0.100000,-0.100000)"
fill="#000000" stroke="none">
<path d="M540 858 c0 -56 -7 -64 -59 -73 -42 -7 -44 -8 -25 -22 10 -8 29 -12
42 -10 14 3 22 0 19 -7 -25 -67 -15 -74 26 -16 28 39 29 40 90 40 75 0 102 13
73 35 -23 17 -36 18 -88 6 l-37 -9 15 30 c14 27 14 31 -2 49 -9 10 -25 19 -36
19 -15 0 -18 -8 -18 -42z"/>
<path d="M247 864 c-3 -4 2 -23 13 -44 11 -21 16 -40 13 -44 -4 -3 -37 -6 -75
-6 -75 0 -82 -9 -37 -42 22 -16 27 -17 68 -2 50 17 71 13 71 -14 0 -11 7 -25
15 -32 13 -11 15 -6 15 33 0 43 1 45 35 51 49 10 46 30 -4 23 -38 -5 -39 -4
-45 33 -4 28 -12 39 -28 44 -29 7 -33 7 -41 0z"/>
<path d="M475 664 c-38 -7 -107 -16 -152 -20 -45 -4 -87 -11 -95 -15 -26 -18
16 -30 92 -27 75 3 75 3 78 -24 4 -30 -1 -31 -159 -43 -66 -5 -78 -3 -83 11
-9 24 -19 10 -45 -62 -21 -62 -20 -94 4 -94 15 0 45 59 45 90 0 15 5 20 15 16
8 -3 52 1 97 9 119 21 128 21 128 -12 0 -16 -5 -45 -11 -67 -8 -28 -7 -46 1
-67 24 -58 39 -31 47 88 l6 81 31 6 c17 3 73 8 124 12 102 8 105 5 72 -48 -11
-18 -20 -36 -20 -39 0 -13 135 39 138 52 1 8 -13 29 -32 48 l-34 33 -138 -20
c-77 -11 -140 -19 -142 -18 -1 2 1 16 4 32 6 29 8 30 91 41 90 13 120 26 93
43 -19 12 -68 11 -155 -6z"/>
<path d="M522 474 c-36 -38 -35 -39 37 -22 57 13 61 20 29 42 -29 20 -27 21
-66 -20z"/>
<path d="M260 471 c-24 -7 -24 -8 18 -30 44 -22 62 -21 62 5 0 11 -43 38 -53
33 -1 -1 -13 -4 -27 -8z"/>
<path d="M500 401 c0 -5 21 -19 46 -31 34 -17 48 -20 57 -11 22 22 -6 46 -57
49 -25 2 -46 -1 -46 -7z"/>
<path d="M270 382 c-67 -19 -66 -18 -50 -37 19 -23 43 -18 86 20 44 38 42 39
-36 17z"/>
<path d="M589 326 c-9 -9 -346 -44 -373 -39 -26 5 -28 4 -21 -13 13 -34 25
-88 25 -124 0 -45 18 -110 30 -110 6 0 10 7 10 15 0 11 13 15 53 15 28 0 96 3
149 7 l97 6 11 -27 c6 -17 16 -26 26 -24 33 6 55 52 64 134 5 43 12 89 15 101
6 18 1 26 -26 42 -33 20 -51 25 -60 17z m19 -78 c3 -26 1 -28 -36 -28 -22 0
-60 -3 -86 -6 l-46 -7 0 37 0 37 83 -3 c81 -3 82 -3 85 -30z m-208 -12 c0 -32
-2 -34 -46 -40 -89 -12 -96 -10 -92 27 3 28 7 33 38 38 19 4 50 7 68 8 30 1
32 -1 32 -33z m209 -63 c-2 -48 -11 -54 -92 -56 l-77 -2 0 27 c0 28 5 30 120
41 19 2 38 5 43 5 4 1 7 -6 6 -15z m-213 -60 c-3 -3 -34 -8 -70 -10 l-66 -6 0
31 0 31 68 3 c64 3 67 2 70 -20 2 -13 1 -26 -2 -29z"/>
</g>
</svg>
