<?xml version="1.0" standalone="no"?>
<!DOCTYPE svg PUBLIC "-//W3C//DTD SVG 20010904//EN"
 "http://www.w3.org/TR/2001/REC-SVG-20010904/DTD/svg10.dtd">
<svg version="1.0" xmlns="http://www.w3.org/2000/svg"
 width="90.000000pt" height="92.000000pt" viewBox="0 0 90.000000 92.000000"
 preserveAspectRatio="xMidYMid meet">
<metadata>
Created by potrace 1.16, written by Peter Selinger 2001-2019
</metadata>
<g transform="translate(0.000000,92.000000) scale(0.100000,-0.100000)"
fill="#000000" stroke="none">
<path d="M221 808 c-11 -34 -21 -56 -47 -96 -1 -2 -25 13 -53 34 -29 20 -55
34 -58 30 -4 -4 14 -28 40 -54 l47 -47 -67 -68 c-36 -37 -61 -67 -55 -67 6 0
41 21 77 46 37 25 69 43 72 40 3 -2 8 -20 13 -40 11 -52 -19 -106 -113 -200
-43 -43 -76 -80 -73 -83 11 -11 111 55 153 102 l46 50 -5 -115 c-2 -66 -10
-125 -17 -139 -11 -21 -18 -23 -57 -18 l-45 5 34 -41 c48 -58 62 -65 87 -42
35 32 50 107 50 249 0 143 -13 243 -36 287 -14 28 -13 31 37 96 l52 66 -27 24
c-15 13 -31 23 -35 23 -4 0 -13 -19 -20 -42z"/>
<path d="M545 810 c-66 -10 -141 -19 -167 -19 -27 -1 -48 -5 -48 -11 0 -5 4
-10 10 -10 5 0 14 -19 21 -42 6 -24 17 -61 25 -82 16 -46 11 -57 -59 -133 -46
-50 -34 -56 28 -12 39 28 52 32 142 37 54 3 123 6 153 6 l55 1 3 -105 c3 -128
-12 -269 -33 -289 -12 -12 -21 -13 -52 -3 -20 6 -39 10 -40 8 -9 -9 74 -106
89 -106 10 0 29 17 43 39 27 40 30 59 54 316 5 55 12 110 16 122 6 17 0 26
-32 46 -37 24 -39 25 -123 12 -47 -7 -112 -15 -144 -19 -59 -7 -60 -6 -41 14
14 16 15 22 5 35 -7 8 -20 16 -29 16 -9 1 40 7 109 15 97 10 126 11 132 1 10
-16 21 -4 69 79 l40 69 -21 17 c-26 21 -48 21 -205 -2z m140 -32 c-2 -7 -9
-31 -14 -53 -10 -40 -11 -41 -50 -37 l-40 4 19 38 c14 28 16 40 7 49 -8 8 1
11 36 11 33 0 45 -4 42 -12z m-122 -25 c0 -13 -1 -34 -2 -48 -1 -19 -6 -25
-25 -25 -22 0 -24 5 -28 50 l-3 51 30 -3 c24 -2 29 -8 28 -25z m-93 10 c1 -5
5 -27 9 -50 l8 -43 -37 0 c-36 0 -38 2 -44 41 -4 22 -4 44 -1 50 7 11 65 12
65 2z"/>
<path d="M433 473 l2 -48 -55 -3 c-30 -2 -59 -7 -64 -13 -6 -6 -6 -9 1 -9 7 0
19 -24 27 -53 l16 -54 42 1 c43 1 43 1 46 -36 3 -34 0 -38 -25 -45 -15 -4 -47
-7 -70 -7 -50 1 -56 -14 -18 -44 l24 -19 88 33 c133 49 137 50 151 19 16 -34
36 -27 40 13 3 27 -2 34 -38 57 -42 27 -63 27 -41 1 14 -17 8 -22 -42 -31
l-38 -7 3 38 3 39 51 3 c48 3 52 5 52 28 0 14 9 39 22 56 12 16 19 35 16 43
-7 19 -58 28 -90 15 -47 -18 -59 -13 -53 19 6 31 -7 51 -34 51 -14 0 -17 -9
-16 -47z m122 -90 c-8 -33 -3 -29 -42 -38 -32 -6 -33 -6 -33 29 0 35 1 36 41
36 40 0 41 -1 34 -27z m-115 -18 c0 -32 -3 -35 -29 -35 -43 0 -60 55 -18 63
45 9 47 8 47 -28z"/>
</g>
</svg>
