<?xml version="1.0" standalone="no"?>
<!DOCTYPE svg PUBLIC "-//W3C//DTD SVG 20010904//EN"
 "http://www.w3.org/TR/2001/REC-SVG-20010904/DTD/svg10.dtd">
<svg version="1.0" xmlns="http://www.w3.org/2000/svg"
 width="96.000000pt" height="68.000000pt" viewBox="0 0 96.000000 68.000000"
 preserveAspectRatio="xMidYMid meet">
<metadata>
Created by potrace 1.16, written by Peter Selinger 2001-2019
</metadata>
<g transform="translate(0.000000,68.000000) scale(0.100000,-0.100000)"
fill="#000000" stroke="none">
<path d="M429 388 c-14 -26 -43 -53 -81 -73 -16 -9 -28 -23 -28 -31 0 -14 8
-15 46 -9 26 3 56 11 68 15 17 8 14 9 -16 8 -21 -1 -40 1 -43 4 -4 3 21 23 54
43 49 30 59 41 50 51 -17 20 -37 17 -50 -8z"/>
</g>
</svg>
