<?xml version="1.0" standalone="no"?>
<!DOCTYPE svg PUBLIC "-//W3C//DTD SVG 20010904//EN"
 "http://www.w3.org/TR/2001/REC-SVG-20010904/DTD/svg10.dtd">
<svg version="1.0" xmlns="http://www.w3.org/2000/svg"
 width="96.000000pt" height="68.000000pt" viewBox="0 0 96.000000 68.000000"
 preserveAspectRatio="xMidYMid meet">
<metadata>
Created by potrace 1.16, written by Peter Selinger 2001-2019
</metadata>
<g transform="translate(0.000000,68.000000) scale(0.100000,-0.100000)"
fill="#000000" stroke="none">
<path d="M537 186 c6 -28 -15 -36 -99 -36 -32 0 -58 -4 -58 -9 0 -15 42 -20
95 -11 28 4 52 6 54 4 10 -10 -60 -80 -100 -101 -44 -22 -44 -22 -13 -23 38 0
108 48 135 94 24 42 41 46 151 42 48 -3 90 -1 93 4 7 11 -53 31 -79 26 -11 -3
-46 -7 -77 -10 -56 -6 -56 -6 -51 19 4 22 1 25 -25 25 -26 0 -30 -3 -26 -24z"/>
<path d="M616 102 c37 -34 126 -102 134 -102 15 0 20 32 8 47 -15 19 -73 48
-122 61 -37 11 -38 10 -20 -6z"/>
</g>
</svg>
