<?xml version="1.0" standalone="no"?>
<!DOCTYPE svg PUBLIC "-//W3C//DTD SVG 20010904//EN"
 "http://www.w3.org/TR/2001/REC-SVG-20010904/DTD/svg10.dtd">
<svg version="1.0" xmlns="http://www.w3.org/2000/svg"
 width="90.000000pt" height="92.000000pt" viewBox="0 0 90.000000 92.000000"
 preserveAspectRatio="xMidYMid meet">
<metadata>
Created by potrace 1.16, written by Peter Selinger 2001-2019
</metadata>
<g transform="translate(0.000000,92.000000) scale(0.100000,-0.100000)"
fill="#000000" stroke="none">
<path d="M340 892 c0 -5 13 -27 29 -49 l29 -40 -75 -7 c-119 -10 -144 -8 -159
12 -12 16 -13 16 -19 -3 -4 -11 -18 -44 -32 -72 -28 -60 -27 -88 2 -88 14 0
28 15 45 50 l25 51 160 17 c318 35 305 36 274 -18 -24 -40 -23 -40 66 -22 74
16 79 36 19 83 l-42 31 -88 -13 c-127 -19 -134 -19 -134 11 0 18 -10 31 -32
45 -34 21 -68 26 -68 12z"/>
<path d="M450 730 c-19 -5 -77 -14 -128 -21 -63 -8 -90 -15 -83 -22 5 -5 28
-10 51 -10 48 0 61 -18 35 -47 -11 -13 -31 -20 -53 -20 -30 0 -34 -2 -29 -22
3 -13 9 -57 12 -99 7 -74 6 -76 -16 -82 -13 -4 -50 -7 -81 -7 -60 0 -73 -11
-37 -31 14 -7 45 -9 88 -4 l66 7 -45 -47 c-25 -25 -78 -67 -117 -92 -40 -26
-71 -48 -69 -51 9 -8 104 29 152 59 56 36 134 108 134 125 0 13 45 24 104 24
47 0 57 -6 180 -108 l90 -74 66 4 c116 9 117 21 4 56 -54 17 -131 51 -171 74
l-72 43 97 3 c53 1 101 7 106 12 5 5 -5 17 -25 30 -34 21 -42 21 -148 3 l-33
-6 7 74 c4 41 11 81 16 90 6 11 3 21 -9 32 -28 25 -54 27 -112 12 -72 -19 -80
-18 -52 5 13 11 21 24 18 29 -7 11 11 17 81 26 59 8 73 19 44 34 -22 12 -22
12 -71 1z m28 -149 c2 -13 -1 -21 -6 -17 -5 3 -36 1 -68 -4 -33 -6 -71 -12
-85 -15 -23 -3 -25 -1 -22 19 4 21 13 25 76 33 94 13 101 12 105 -16z m2 -65
c0 -9 -23 -17 -69 -25 -101 -16 -121 -15 -121 9 0 16 8 20 58 23 126 8 132 7
132 -7z m0 -71 c0 -17 -19 -22 -117 -29 -67 -4 -73 -3 -73 14 0 15 9 20 48 23
115 9 142 7 142 -8z"/>
<path d="M470 309 c-14 -5 -66 -15 -115 -22 l-90 -14 32 -19 c26 -17 30 -23
21 -39 -18 -34 -71 -86 -117 -116 -31 -20 -39 -29 -25 -29 33 0 118 46 149 81
65 73 68 78 56 93 -9 11 -5 15 20 20 53 10 89 7 95 -9 8 -19 -13 -108 -31
-131 -11 -15 -18 -16 -48 -7 l-36 11 32 -49 c18 -27 37 -49 43 -49 12 0 47 37
61 65 6 11 16 50 23 88 7 37 16 70 21 73 17 10 9 24 -23 44 -37 22 -34 22 -68
9z"/>
</g>
</svg>
