<?xml version="1.0" standalone="no"?>
<!DOCTYPE svg PUBLIC "-//W3C//DTD SVG 20010904//EN"
 "http://www.w3.org/TR/2001/REC-SVG-20010904/DTD/svg10.dtd">
<svg version="1.0" xmlns="http://www.w3.org/2000/svg"
 width="96.000000pt" height="68.000000pt" viewBox="0 0 96.000000 68.000000"
 preserveAspectRatio="xMidYMid meet">
<metadata>
Created by potrace 1.16, written by Peter Selinger 2001-2019
</metadata>
<g transform="translate(0.000000,68.000000) scale(0.100000,-0.100000)"
fill="#000000" stroke="none">
<path d="M376 621 c-3 -5 3 -20 14 -34 l20 -25 -31 -6 c-53 -10 -144 -7 -158
7 -11 9 -14 9 -18 0 -2 -7 -16 -29 -29 -49 -29 -42 -28 -68 4 -72 16 -3 27 6
42 31 15 25 30 36 53 40 65 12 337 30 343 24 4 -4 1 -13 -6 -22 -20 -24 -6
-29 62 -19 77 11 87 31 31 64 -34 20 -46 22 -118 16 -44 -4 -90 -9 -103 -13
-16 -4 -21 -1 -17 8 6 18 -4 33 -32 48 -26 13 -50 14 -57 2z"/>
<path d="M415 498 c-38 -5 -83 -13 -100 -18 l-30 -8 37 -1 c20 -1 40 -6 43
-11 12 -19 -16 -40 -52 -40 -30 0 -34 -2 -28 -21 4 -12 10 -45 14 -75 l8 -54
-75 0 c-68 0 -73 -2 -61 -16 11 -13 26 -15 76 -11 35 4 63 2 63 -3 0 -11 -37
-37 -126 -90 -47 -28 -60 -38 -39 -34 54 12 156 67 196 106 37 36 43 38 100
38 57 0 66 -4 142 -54 118 -77 122 -79 183 -71 30 3 56 10 59 15 3 5 -21 14
-52 20 -32 6 -71 16 -88 22 -53 18 -144 63 -145 71 0 4 41 7 92 7 74 0 89 2
79 13 -8 8 -39 11 -93 10 l-80 -2 6 34 c3 19 9 50 12 69 5 29 3 35 -16 41 -12
4 -52 4 -89 0 -61 -6 -64 -5 -46 9 11 8 16 16 10 17 -5 1 19 6 55 13 36 6 64
16 63 21 -3 13 -34 14 -118 3z m82 -94 c2 -7 -14 -14 -39 -17 -24 -3 -62 -9
-85 -13 -35 -5 -43 -4 -43 9 0 16 26 30 41 21 5 -3 9 -2 9 3 0 12 113 10 117
-3z m0 -51 c4 -11 -11 -14 -119 -28 -39 -5 -48 -3 -48 9 0 18 22 24 95 29 63
4 68 3 72 -10z m-3 -56 c-6 -16 -164 -23 -164 -8 0 13 29 20 100 23 64 3 71 2
64 -15z"/>
<path d="M392 188 c-39 -6 -69 -14 -66 -19 3 -5 12 -9 20 -9 35 0 -8 -58 -75
-102 -25 -16 -38 -27 -28 -24 10 3 25 6 32 6 25 0 135 89 135 110 0 17 7 20
40 20 22 0 43 0 48 0 14 1 13 -49 -3 -80 -11 -22 -23 -31 -38 -30 -36 3 -37 1
-11 -27 24 -26 27 -27 52 -12 18 10 31 29 40 59 7 25 19 57 26 72 26 49 -12
57 -172 36z"/>
</g>
</svg>
