<?xml version="1.0" standalone="no"?>
<!DOCTYPE svg PUBLIC "-//W3C//DTD SVG 20010904//EN"
 "http://www.w3.org/TR/2001/REC-SVG-20010904/DTD/svg10.dtd">
<svg version="1.0" xmlns="http://www.w3.org/2000/svg"
 width="90.000000pt" height="92.000000pt" viewBox="0 0 90.000000 92.000000"
 preserveAspectRatio="xMidYMid meet">
<metadata>
Created by potrace 1.16, written by Peter Selinger 2001-2019
</metadata>
<g transform="translate(0.000000,92.000000) scale(0.100000,-0.100000)"
fill="#000000" stroke="none">
<path d="M530 847 c0 -7 11 -29 25 -50 30 -43 32 -41 -70 -57 -126 -19 -128
-20 -113 -37 18 -22 15 -151 -6 -249 -18 -84 -56 -187 -91 -244 -38 -62 -39
-65 -5 -35 18 17 46 50 62 75 30 48 78 185 78 226 0 21 4 24 33 22 17 -1 51 2
75 6 42 8 42 8 42 -23 0 -33 0 -33 -85 -46 -34 -6 -37 -8 -21 -17 10 -6 39 -8
63 -5 l45 5 -7 -122 c-4 -66 -9 -124 -12 -128 -2 -5 -22 -8 -43 -8 l-39 0 48
-45 c26 -25 51 -45 54 -45 4 0 13 13 22 30 11 22 15 64 15 180 l0 150 60 0
c59 0 70 6 50 26 -16 16 7 71 33 78 12 3 46 6 75 6 54 0 63 8 37 30 -16 13
-72 16 -106 5 -17 -6 -17 -3 -7 26 10 28 8 34 -13 51 -23 18 -50 19 -92 3 -13
-6 -16 -3 -11 8 4 11 -4 22 -25 35 l-32 19 53 6 c29 4 72 7 95 7 48 0 65 17
37 37 -14 11 -34 13 -77 8 -41 -4 -57 -3 -52 4 12 20 -5 47 -40 64 -43 20 -55
21 -55 4z m18 -176 l10 -40 -55 -7 c-70 -8 -66 -30 6 -26 50 3 51 2 51 -27 0
-28 -1 -29 -66 -36 -36 -4 -67 -5 -69 -3 -6 6 14 152 22 159 8 7 40 15 74 18
11 1 20 -12 27 -38z m132 -80 c0 -25 -4 -29 -37 -34 -20 -4 -38 -5 -40 -3 -2
1 0 17 3 34 6 28 10 32 40 32 31 0 34 -3 34 -29z m-10 -70 c0 -32 -21 -61 -45
-61 -21 0 -25 5 -25 29 0 25 5 30 28 34 15 2 30 5 35 6 4 0 7 -3 7 -8z"/>
<path d="M165 828 c5 -13 10 -82 12 -155 l5 -131 -91 -13 c-61 -9 -91 -17 -91
-26 0 -20 48 -27 102 -14 86 19 82 26 74 -101 -3 -62 -11 -141 -17 -175 -12
-68 1 -133 26 -133 26 0 35 63 35 247 0 138 3 185 13 188 6 2 34 6 60 10 69 9
56 30 -18 29 l-57 -1 6 71 c3 39 9 99 12 133 6 61 6 62 -24 77 -44 22 -56 21
-47 -6z"/>
<path d="M284 688 c-3 -18 -13 -43 -21 -55 -20 -29 -12 -29 43 3 49 29 55 45
22 68 -31 22 -35 20 -44 -16z"/>
<path d="M50 672 c0 -4 11 -24 25 -45 33 -47 65 -51 65 -6 0 25 -6 32 -35 45
-38 16 -55 18 -55 6z"/>
<path d="M105 421 c-3 -16 -29 -62 -56 -101 -27 -40 -47 -75 -44 -78 11 -12
82 58 118 117 30 50 36 66 26 77 -19 23 -37 16 -44 -15z"/>
<path d="M243 436 c12 -30 58 -96 67 -96 12 0 13 50 2 66 -9 14 -54 44 -65 44
-5 0 -7 -6 -4 -14z"/>
<path d="M697 373 c-19 -26 -34 -49 -32 -51 1 -2 28 9 60 22 58 26 64 39 28
63 -19 13 -23 10 -56 -34z"/>
<path d="M419 342 c33 -47 49 -57 66 -42 8 7 15 16 15 21 0 20 -42 49 -71 49
l-30 0 20 -28z"/>
<path d="M505 271 c-19 -18 -113 -61 -134 -61 -12 0 -21 -3 -21 -8 0 -13 30
-52 40 -52 11 0 110 86 128 112 14 19 3 25 -13 9z"/>
<path d="M677 241 c26 -21 57 -48 68 -61 30 -34 76 -55 85 -39 24 38 -19 86
-105 118 -89 34 -105 28 -48 -18z"/>
</g>
</svg>
