<?xml version="1.0" standalone="no"?>
<!DOCTYPE svg PUBLIC "-//W3C//DTD SVG 20010904//EN"
 "http://www.w3.org/TR/2001/REC-SVG-20010904/DTD/svg10.dtd">
<svg version="1.0" xmlns="http://www.w3.org/2000/svg"
 width="96.000000pt" height="68.000000pt" viewBox="0 0 96.000000 68.000000"
 preserveAspectRatio="xMidYMid meet">
<metadata>
Created by potrace 1.16, written by Peter Selinger 2001-2019
</metadata>
<g transform="translate(0.000000,68.000000) scale(0.100000,-0.100000)"
fill="#000000" stroke="none">
<path d="M244 549 c3 -17 6 -60 6 -95 0 -56 2 -64 19 -64 16 0 20 12 29 82 9
73 8 83 -6 95 -9 7 -25 13 -36 13 -15 0 -17 -5 -12 -31z"/>
<path d="M330 450 l-20 -40 27 11 c44 16 65 39 52 56 -19 23 -38 14 -59 -27z"/>
<path d="M140 452 c0 -12 44 -52 58 -52 19 0 14 38 -7 50 -24 12 -51 13 -51 2z"/>
</g>
</svg>
