<?xml version="1.0" standalone="no"?>
<!DOCTYPE svg PUBLIC "-//W3C//DTD SVG 20010904//EN"
 "http://www.w3.org/TR/2001/REC-SVG-20010904/DTD/svg10.dtd">
<svg version="1.0" xmlns="http://www.w3.org/2000/svg"
 width="90.000000pt" height="92.000000pt" viewBox="0 0 90.000000 92.000000"
 preserveAspectRatio="xMidYMid meet">
<metadata>
Created by potrace 1.16, written by Peter Selinger 2001-2019
</metadata>
<g transform="translate(0.000000,92.000000) scale(0.100000,-0.100000)"
fill="#000000" stroke="none">
<path d="M420 862 c0 -4 13 -29 29 -54 l29 -46 -116 -17 c-64 -9 -128 -18
-141 -21 l-24 -5 22 -20 c11 -11 22 -27 22 -37 6 -94 -16 -231 -51 -322 -24
-60 -85 -163 -122 -206 -46 -53 -13 -40 49 19 89 84 137 198 173 410 11 66 20
122 20 127 0 4 24 11 53 14 28 4 61 9 72 12 21 5 21 3 28 -76 2 -23 -2 -25
-71 -36 -39 -6 -74 -13 -77 -16 -3 -3 7 -11 23 -17 21 -9 44 -10 80 -3 l50 9
4 -43 3 -43 -58 -6 c-31 -4 -59 -11 -62 -15 -9 -14 49 -27 85 -19 19 5 77 11
128 15 51 4 95 11 98 15 9 15 -43 40 -70 34 -83 -17 -76 -20 -76 28 l0 44 92
7 c51 4 95 9 97 12 3 2 -2 12 -11 21 -19 18 -50 20 -126 8 l-54 -8 3 29 c4 37
-6 54 -34 55 -47 2 40 17 136 24 53 4 97 11 97 16 0 5 -11 16 -25 25 -25 17
-54 16 -144 -2 -26 -5 -32 -4 -27 5 15 23 -3 57 -39 74 -38 18 -65 22 -65 9z"/>
<path d="M60 625 c0 -9 11 -38 25 -65 18 -35 31 -50 45 -50 11 0 21 6 22 13 0
6 2 19 3 27 3 29 -25 68 -56 79 -40 14 -39 14 -39 -4z"/>
<path d="M115 429 c-27 -21 -65 -44 -82 -50 -18 -6 -33 -17 -33 -24 0 -17 27
-45 44 -45 16 0 126 129 126 147 0 16 4 18 -55 -28z"/>
<path d="M554 420 c3 -22 3 -40 -1 -40 -5 0 -64 -7 -133 -15 -69 -8 -131 -15
-137 -15 -23 0 -14 -20 13 -30 19 -7 60 -6 141 6 63 8 117 13 120 10 7 -7 4
-207 -4 -218 -3 -6 -25 -7 -52 -3 l-46 7 49 -51 c41 -42 52 -48 68 -40 30 16
38 53 38 184 0 142 -6 135 105 135 41 0 77 4 80 10 8 13 -55 51 -75 46 -8 -2
-37 -7 -64 -11 -48 -7 -49 -6 -42 19 7 27 -14 46 -50 46 -14 0 -16 -7 -10 -40z"/>
<path d="M381 248 c23 -46 47 -78 60 -78 14 0 20 37 10 63 -9 24 -56 57 -81
57 -6 0 -1 -19 11 -42z"/>
</g>
</svg>
