<?xml version="1.0" standalone="no"?>
<!DOCTYPE svg PUBLIC "-//W3C//DTD SVG 20010904//EN"
 "http://www.w3.org/TR/2001/REC-SVG-20010904/DTD/svg10.dtd">
<svg version="1.0" xmlns="http://www.w3.org/2000/svg"
 width="96.000000pt" height="68.000000pt" viewBox="0 0 96.000000 68.000000"
 preserveAspectRatio="xMidYMid meet">
<metadata>
Created by potrace 1.16, written by Peter Selinger 2001-2019
</metadata>
<g transform="translate(0.000000,68.000000) scale(0.100000,-0.100000)"
fill="#000000" stroke="none">
<path d="M390 634 c0 -5 9 -23 19 -40 l19 -32 -36 -6 c-59 -9 -162 -7 -162 4
0 27 -29 4 -53 -41 -25 -50 -27 -79 -3 -79 16 0 56 42 56 58 0 7 6 12 14 12 8
0 99 9 202 20 103 11 189 18 192 15 3 -3 0 -16 -6 -30 l-12 -26 62 7 c82 9 91
18 50 55 -39 35 -45 36 -188 21 -61 -7 -71 -6 -67 8 2 8 -2 23 -9 32 -14 19
-78 36 -78 22z"/>
<path d="M285 471 c-8 -16 -37 -49 -65 -72 -56 -47 -60 -67 -6 -25 19 14 38
26 42 26 4 0 17 -12 30 -26 13 -14 29 -22 34 -19 18 11 11 24 -22 41 -37 19
-27 29 40 38 51 7 55 -7 16 -53 -14 -17 -24 -31 -21 -31 21 0 -121 -119 -173
-145 -19 -10 -29 -20 -22 -22 20 -8 137 64 188 115 60 59 124 134 124 144 0
15 -54 21 -92 11 -39 -11 -51 -2 -20 16 15 9 15 12 2 21 -25 16 -39 11 -55
-19z"/>
<path d="M505 470 c-27 -3 -36 -8 -27 -14 7 -4 33 -5 58 -1 49 7 53 1 29 -45
-17 -34 -27 -37 -45 -15 -7 8 -22 15 -34 14 -20 0 -20 -1 4 -17 14 -9 60 -50
103 -89 l78 -73 57 0 c98 0 139 23 65 35 -103 18 -233 76 -233 105 0 9 68 63
93 74 8 3 6 10 -7 20 -20 16 -57 17 -141 6z"/>
<path d="M225 314 c21 -20 29 -24 38 -15 9 10 7 16 -7 27 -11 8 -28 14 -38 14
-16 0 -15 -3 7 -26z"/>
<path d="M470 324 c-8 -1 -36 -6 -62 -9 -71 -9 -58 -20 19 -17 84 4 104 9 83
22 -8 6 -17 9 -20 9 -3 -1 -12 -3 -20 -5z"/>
<path d="M495 250 c-27 -4 -85 -10 -127 -14 -97 -9 -105 -29 -10 -25 l67 4 3
-72 3 -73 -37 0 -38 0 29 -30 c34 -36 48 -37 75 -8 17 18 20 35 20 104 l0 82
65 7 c67 8 82 18 43 29 -25 6 -23 6 -93 -4z"/>
<path d="M280 136 c-13 -18 -36 -42 -51 -52 -43 -28 -27 -28 28 0 66 34 97 61
89 75 -13 21 -43 11 -66 -23z"/>
<path d="M595 121 c51 -53 85 -66 85 -32 0 20 -53 71 -73 71 -7 0 -23 3 -37 6
-21 6 -18 -1 25 -45z"/>
</g>
</svg>
