<?xml version="1.0" standalone="no"?>
<!DOCTYPE svg PUBLIC "-//W3C//DTD SVG 20010904//EN"
 "http://www.w3.org/TR/2001/REC-SVG-20010904/DTD/svg10.dtd">
<svg version="1.0" xmlns="http://www.w3.org/2000/svg"
 width="90.000000pt" height="92.000000pt" viewBox="0 0 90.000000 92.000000"
 preserveAspectRatio="xMidYMid meet">
<metadata>
Created by potrace 1.16, written by Peter Selinger 2001-2019
</metadata>
<g transform="translate(0.000000,92.000000) scale(0.100000,-0.100000)"
fill="#000000" stroke="none">
<path d="M654 843 c-2 -10 -20 -48 -39 -86 -27 -54 -30 -65 -16 -57 27 14 131
110 131 121 0 8 -52 39 -65 39 -3 0 -8 -8 -11 -17z"/>
<path d="M244 823 c-11 -47 -65 -135 -117 -190 -55 -58 -45 -71 19 -25 46 34
102 95 140 151 28 43 25 59 -17 82 -15 8 -20 5 -25 -18z"/>
<path d="M406 801 c-9 -13 58 -101 77 -101 25 0 24 66 -2 80 -38 20 -70 29
-75 21z"/>
<path d="M630 678 c-19 -6 -84 -20 -143 -32 -59 -13 -106 -27 -105 -32 2 -5
32 -10 68 -10 l65 -1 0 -44 0 -44 -63 -8 c-83 -11 -78 -32 6 -32 l62 0 0 -42
c0 -39 -2 -42 -32 -49 -18 -4 -66 -9 -107 -13 -79 -6 -98 -20 -56 -39 31 -14
65 -15 97 -3 13 4 40 11 61 15 l37 7 0 -140 c0 -136 4 -171 20 -171 14 0 30
122 30 223 l0 97 141 0 c128 0 140 2 137 18 -5 28 -63 52 -101 41 -18 -4 -65
-12 -104 -17 l-73 -8 0 47 0 46 81 11 c85 11 99 16 83 32 -14 14 -58 16 -113
6 l-44 -8 6 36 c3 21 1 38 -5 42 -17 11 10 21 89 34 81 13 98 25 58 40 -31 12
-49 12 -95 -2z"/>
<path d="M247 600 c-26 -72 -112 -194 -186 -262 -47 -44 -59 -58 -41 -53 35
11 76 40 134 94 l48 46 -5 -110 c-3 -60 -9 -121 -15 -135 -10 -28 6 -91 26
-98 22 -7 30 44 33 191 2 110 -1 149 -11 162 -11 14 -6 26 37 89 52 76 54 94
15 115 -15 8 -21 2 -35 -39z"/>
</g>
</svg>
