<?xml version="1.0" standalone="no"?>
<!DOCTYPE svg PUBLIC "-//W3C//DTD SVG 20010904//EN"
 "http://www.w3.org/TR/2001/REC-SVG-20010904/DTD/svg10.dtd">
<svg version="1.0" xmlns="http://www.w3.org/2000/svg"
 width="96.000000pt" height="68.000000pt" viewBox="0 0 96.000000 68.000000"
 preserveAspectRatio="xMidYMid meet">
<metadata>
Created by potrace 1.16, written by Peter Selinger 2001-2019
</metadata>
<g transform="translate(0.000000,68.000000) scale(0.100000,-0.100000)"
fill="#000000" stroke="none">
<path d="M317 437 c-9 -33 -110 -152 -167 -194 -27 -20 -48 -39 -46 -41 7 -7
72 26 110 57 21 17 43 31 47 31 12 0 11 -66 -2 -134 -14 -65 0 -118 25 -97 17
14 30 230 14 248 -8 10 -1 25 31 62 46 56 49 66 22 81 -27 14 -28 13 -34 -13z"/>
</g>
</svg>
