<?xml version="1.0" standalone="no"?>
<!DOCTYPE svg PUBLIC "-//W3C//DTD SVG 20010904//EN"
 "http://www.w3.org/TR/2001/REC-SVG-20010904/DTD/svg10.dtd">
<svg version="1.0" xmlns="http://www.w3.org/2000/svg"
 width="90.000000pt" height="92.000000pt" viewBox="0 0 90.000000 92.000000"
 preserveAspectRatio="xMidYMid meet">
<metadata>
Created by potrace 1.16, written by Peter Selinger 2001-2019
</metadata>
<g transform="translate(0.000000,92.000000) scale(0.100000,-0.100000)"
fill="#000000" stroke="none">
<path d="M420 866 c0 -4 11 -29 25 -56 14 -27 21 -51 17 -53 -4 -3 -65 -13
-137 -22 -72 -10 -131 -18 -133 -20 -1 -1 5 -16 13 -33 13 -26 14 -46 6 -129
-18 -166 -56 -280 -135 -402 -53 -83 -35 -82 38 1 73 84 131 260 151 461 6 59
10 69 30 77 35 13 215 38 333 46 56 4 105 11 108 15 2 4 -10 15 -27 24 -27 15
-41 15 -98 5 -36 -6 -74 -14 -85 -17 -16 -4 -18 -1 -12 20 4 19 0 33 -16 51
-21 23 -78 47 -78 32z"/>
<path d="M650 689 c-36 -10 -80 -18 -97 -18 -18 -1 -33 -5 -33 -10 0 -13 30
-22 51 -16 28 9 24 -10 -16 -82 -25 -46 -30 -61 -18 -54 23 12 65 57 89 95 17
27 17 29 1 41 -16 12 -16 13 5 19 34 9 76 7 82 -3 4 -5 0 -26 -7 -48 -11 -32
-17 -38 -40 -36 -33 2 -33 -4 -2 -40 35 -39 60 -24 81 51 8 31 18 64 20 74 4
14 -31 50 -46 47 -3 -1 -34 -10 -70 -20z"/>
<path d="M357 684 c-3 -4 -2 -17 4 -31 22 -58 8 -83 -46 -83 -13 0 -26 -4 -29
-9 -8 -12 18 -21 55 -21 27 0 30 -3 27 -27 -3 -26 -7 -28 -55 -31 -49 -3 -66
-13 -44 -27 5 -3 15 -30 21 -60 11 -52 13 -55 37 -49 24 6 24 5 13 -16 -18
-34 -88 -108 -143 -152 -27 -21 -44 -38 -38 -38 30 0 106 47 154 96 l53 54 -8
-73 c-12 -107 -12 -121 2 -147 12 -23 13 -23 26 -5 10 13 14 52 14 134 l0 115
40 -39 c33 -32 40 -36 46 -22 11 28 -3 45 -45 57 -30 8 -41 16 -41 30 0 17 7
20 46 20 40 0 45 2 39 19 -3 11 3 39 15 63 20 41 20 43 3 56 -12 9 -32 11 -55
8 -35 -6 -38 -4 -38 18 0 25 6 29 68 41 37 8 41 20 12 35 -14 7 -26 8 -39 0
-31 -16 -37 -12 -33 24 3 30 0 36 -26 50 -16 8 -32 13 -35 10z m93 -249 c0
-19 -4 -35 -9 -35 -5 0 -16 -3 -25 -6 -13 -5 -16 2 -16 35 0 37 2 41 25 41 22
0 25 -4 25 -35z m-80 -9 c0 -31 -13 -46 -40 -46 -16 0 -23 62 -9 71 31 19 49
10 49 -25z"/>
<path d="M36 623 c-6 -6 51 -85 70 -96 21 -12 34 1 34 33 0 20 -7 33 -21 41
-30 16 -76 28 -83 22z"/>
<path d="M665 495 c-27 -7 -69 -14 -92 -14 -42 -1 -55 -12 -32 -27 8 -5 10
-38 6 -109 -6 -105 4 -148 31 -131 43 26 -25 -67 -91 -126 -23 -21 -37 -38
-30 -38 12 0 139 84 183 121 l25 21 -24 19 -23 19 55 0 c43 0 58 -4 66 -17 8
-14 12 -15 22 -6 13 13 15 33 20 187 3 85 2 89 -21 102 -29 16 -30 16 -95 -1z
m55 -41 c6 -14 10 -27 10 -28 0 -2 -24 -6 -52 -10 -29 -3 -63 -9 -75 -12 -20
-6 -23 -3 -23 23 0 28 3 31 53 40 77 15 77 15 87 -13z m10 -88 c0 -19 -5 -23
-27 -23 -16 1 -49 -3 -75 -7 -47 -8 -48 -8 -48 17 0 24 4 26 48 30 106 8 102
9 102 -17z m0 -73 c0 -28 -1 -28 -75 -31 -68 -2 -75 0 -75 17 0 15 11 21 58
29 91 15 92 15 92 -15z"/>
<path d="M112 446 c-23 -18 -55 -39 -72 -46 -36 -15 -38 -32 -8 -59 15 -15 25
-18 34 -10 18 14 98 139 93 144 -3 2 -24 -11 -47 -29z"/>
<path d="M731 115 c28 -36 57 -65 64 -65 19 0 26 42 10 66 -13 20 -92 64 -115
64 -6 0 13 -29 41 -65z"/>
</g>
</svg>
