<?xml version="1.0" standalone="no"?>
<!DOCTYPE svg PUBLIC "-//W3C//DTD SVG 20010904//EN"
 "http://www.w3.org/TR/2001/REC-SVG-20010904/DTD/svg10.dtd">
<svg version="1.0" xmlns="http://www.w3.org/2000/svg"
 width="96.000000pt" height="68.000000pt" viewBox="0 0 96.000000 68.000000"
 preserveAspectRatio="xMidYMid meet">
<metadata>
Created by potrace 1.16, written by Peter Selinger 2001-2019
</metadata>
<g transform="translate(0.000000,68.000000) scale(0.100000,-0.100000)"
fill="#000000" stroke="none">
<path d="M547 563 c3 -10 12 -25 20 -35 19 -22 12 -24 -89 -33 -90 -7 -122
-25 -45 -25 41 0 246 16 337 27 42 5 43 6 25 20 -15 11 -36 13 -92 7 -63 -5
-73 -4 -73 10 0 16 -48 46 -74 46 -10 0 -13 -6 -9 -17z"/>
</g>
</svg>
