<?xml version="1.0" standalone="no"?>
<!DOCTYPE svg PUBLIC "-//W3C//DTD SVG 20010904//EN"
 "http://www.w3.org/TR/2001/REC-SVG-20010904/DTD/svg10.dtd">
<svg version="1.0" xmlns="http://www.w3.org/2000/svg"
 width="90.000000pt" height="92.000000pt" viewBox="0 0 90.000000 92.000000"
 preserveAspectRatio="xMidYMid meet">
<metadata>
Created by potrace 1.16, written by Peter Selinger 2001-2019
</metadata>
<g transform="translate(0.000000,92.000000) scale(0.100000,-0.100000)"
fill="#000000" stroke="none">
<path d="M186 832 c-3 -5 -1 -25 4 -46 8 -36 -2 -196 -16 -250 -7 -28 -38 -38
-116 -38 -57 0 -62 -17 -16 -51 27 -20 28 -20 68 -2 22 10 43 16 45 13 3 -3
-1 -25 -9 -48 -18 -52 -15 -58 35 -93 l41 -28 -25 -32 c-13 -18 -50 -49 -81
-71 -31 -21 -55 -40 -53 -42 11 -11 102 33 142 68 25 22 47 39 49 37 67 -95
96 -111 96 -53 0 29 -7 43 -35 68 l-35 32 20 51 c11 29 27 81 36 117 12 46 21
66 35 69 20 5 27 27 9 27 -6 0 -24 10 -40 21 -35 27 -59 20 -53 -14 4 -22 0
-27 -33 -36 -21 -6 -39 -9 -40 -8 -1 1 9 49 22 107 42 182 42 165 -4 189 -23
12 -43 17 -46 13z m104 -345 c0 -20 -29 -127 -40 -147 -10 -19 -11 -19 -45 1
-40 24 -40 20 -20 87 13 44 20 53 48 61 46 13 57 13 57 -2z"/>
<path d="M719 766 c-2 -3 -78 -16 -169 -31 -199 -32 -198 -32 -177 -48 30 -23
37 -68 37 -245 -1 -128 -5 -188 -15 -217 -19 -53 -19 -69 5 -90 18 -16 21 -16
67 0 37 14 87 18 221 20 96 2 176 6 180 9 3 3 -5 18 -19 32 -23 25 -27 26
-106 21 l-82 -5 6 47 c3 25 9 53 14 61 5 9 2 21 -8 32 -14 15 -11 17 29 23 37
6 43 10 44 31 1 14 14 48 28 77 22 45 23 54 11 66 -16 16 -66 19 -109 7 l-29
-9 7 68 c4 43 3 72 -4 80 -8 10 6 14 70 20 44 4 80 11 80 16 0 16 -70 46 -81
35z m-115 -97 c3 -17 6 -53 6 -79 0 -45 -2 -48 -31 -54 -17 -3 -45 -6 -60 -6
-28 0 -29 -1 -15 -22 8 -13 18 -45 21 -73 11 -73 18 -82 59 -77 l36 4 0 -80 0
-80 -81 -7 c-44 -4 -82 -5 -85 -2 -8 7 11 475 18 483 9 8 66 22 99 23 22 1 28
-4 33 -30z m111 -186 c-12 -68 -13 -70 -62 -77 -88 -12 -90 -11 -96 42 -3 26
-3 49 -1 52 6 5 86 17 132 19 33 1 33 1 27 -36z"/>
</g>
</svg>
