<?xml version="1.0" standalone="no"?>
<!DOCTYPE svg PUBLIC "-//W3C//DTD SVG 20010904//EN"
 "http://www.w3.org/TR/2001/REC-SVG-20010904/DTD/svg10.dtd">
<svg version="1.0" xmlns="http://www.w3.org/2000/svg"
 width="96.000000pt" height="68.000000pt" viewBox="0 0 96.000000 68.000000"
 preserveAspectRatio="xMidYMid meet">
<metadata>
Created by potrace 1.16, written by Peter Selinger 2001-2019
</metadata>
<g transform="translate(0.000000,68.000000) scale(0.100000,-0.100000)"
fill="#000000" stroke="none">
<path d="M239 445 c-3 -3 -4 -28 -1 -56 5 -56 -4 -69 -50 -69 -15 0 -30 -4
-33 -10 -4 -6 11 -10 38 -10 l44 0 7 -52 c9 -62 3 -68 -79 -88 -59 -14 -67
-23 -36 -40 30 -15 56 -12 98 11 21 12 66 37 101 57 71 39 76 50 12 27 -23 -8
-44 -15 -46 -15 -2 0 -4 25 -4 55 l0 54 42 11 c31 9 38 14 27 21 -8 5 -27 9
-42 9 -28 0 -29 1 -25 48 3 44 1 47 -22 50 -14 2 -28 0 -31 -3z"/>
</g>
</svg>
