<?xml version="1.0" standalone="no"?>
<!DOCTYPE svg PUBLIC "-//W3C//DTD SVG 20010904//EN"
 "http://www.w3.org/TR/2001/REC-SVG-20010904/DTD/svg10.dtd">
<svg version="1.0" xmlns="http://www.w3.org/2000/svg"
 width="90.000000pt" height="92.000000pt" viewBox="0 0 90.000000 92.000000"
 preserveAspectRatio="xMidYMid meet">
<metadata>
Created by potrace 1.16, written by Peter Selinger 2001-2019
</metadata>
<g transform="translate(0.000000,92.000000) scale(0.100000,-0.100000)"
fill="#000000" stroke="none">
<path d="M630 844 c-19 -7 -48 -11 -65 -9 l-30 5 3 -118 c3 -148 7 -165 32
-157 29 9 25 -5 -20 -68 -22 -32 -35 -57 -29 -57 6 0 36 24 67 54 49 47 54 56
43 70 -12 14 -10 16 12 16 14 0 31 -9 40 -22 14 -22 16 -22 33 -6 15 15 18 37
18 150 1 164 -9 179 -104 142z m60 -47 c0 -20 -7 -24 -55 -33 l-55 -10 0 27
c0 30 11 36 73 38 32 1 37 -2 37 -22z m0 -71 c0 -20 -6 -24 -39 -30 -22 -3
-46 -9 -55 -12 -12 -5 -16 0 -16 19 0 23 6 26 53 35 28 5 53 10 55 11 1 0 2
-10 2 -23z m0 -80 c0 -21 -7 -26 -50 -35 -28 -6 -53 -11 -55 -11 -3 0 -5 13
-5 29 0 31 10 36 83 40 22 1 27 -3 27 -23z"/>
<path d="M361 814 c-24 -7 -53 -11 -65 -8 -21 5 -21 2 -20 -131 0 -90 4 -139
12 -147 9 -9 12 -9 12 0 0 7 5 12 10 12 20 0 9 -30 -31 -80 -22 -28 -39 -54
-36 -56 5 -6 94 64 122 95 19 22 19 23 2 36 -16 11 -15 13 10 18 27 6 44 -5
57 -37 3 -7 13 -2 24 11 18 21 20 35 17 154 -4 161 -9 166 -114 133z m53 -20
c9 -3 16 -14 16 -23 0 -13 -14 -21 -51 -29 -68 -16 -69 -16 -69 13 0 19 7 26
28 31 15 3 32 7 37 9 16 6 23 5 39 -1z m16 -97 c0 -21 -7 -24 -60 -33 -59 -10
-60 -10 -60 13 0 24 21 32 108 42 6 0 12 -9 12 -22z m0 -75 c0 -27 -3 -29 -60
-38 l-60 -10 0 27 c0 25 4 28 48 34 26 4 52 8 57 10 6 2 11 4 13 4 1 1 2 -12
2 -27z"/>
<path d="M136 668 c-27 -10 -69 -19 -93 -20 -43 -1 -44 -1 -38 -27 4 -14 13
-62 20 -107 13 -92 21 -110 39 -95 7 6 45 16 84 22 43 7 69 16 64 21 -10 10 2
88 23 149 17 47 15 54 -22 66 -21 7 -41 5 -77 -9z m34 -102 l0 -73 -45 -13
c-25 -7 -49 -10 -52 -6 -4 4 -9 38 -11 75 l-4 69 38 10 c75 19 74 20 74 -62z"/>
<path d="M700 479 c38 -42 60 -45 60 -8 0 13 -12 25 -35 35 -58 24 -65 17 -25
-27z"/>
<path d="M400 503 c1 -18 49 -65 59 -59 22 14 11 44 -20 55 -38 13 -39 13 -39
4z"/>
<path d="M412 398 c-2 -18 -4 -33 -6 -35 -2 -2 -56 -9 -120 -15 -64 -7 -116
-15 -116 -18 0 -11 50 -30 78 -30 15 1 53 7 85 14 62 15 66 12 41 -36 -17 -33
-9 -48 27 -48 9 0 30 -5 48 -11 l31 -11 -24 -19 c-33 -26 -124 -67 -164 -75
-51 -10 -17 -25 38 -18 63 9 118 30 156 59 18 14 38 25 44 25 6 0 45 -22 86
-50 41 -27 83 -50 94 -50 58 0 -18 92 -102 125 l-46 17 33 61 32 62 111 0 c61
0 114 4 119 8 13 14 -37 47 -71 47 -18 0 -58 -5 -89 -11 -52 -9 -60 -8 -86 10
-40 28 -55 27 -47 -4 6 -24 5 -25 -48 -25 -47 0 -54 2 -49 16 4 11 -1 22 -12
30 -29 22 -41 17 -43 -18z m148 -62 c0 -13 -31 -75 -43 -85 -15 -12 -82 -7
-106 8 -17 11 18 69 44 74 27 6 105 8 105 3z"/>
</g>
</svg>
