<?xml version="1.0" standalone="no"?>
<!DOCTYPE svg PUBLIC "-//W3C//DTD SVG 20010904//EN"
 "http://www.w3.org/TR/2001/REC-SVG-20010904/DTD/svg10.dtd">
<svg version="1.0" xmlns="http://www.w3.org/2000/svg"
 width="90.000000pt" height="92.000000pt" viewBox="0 0 90.000000 92.000000"
 preserveAspectRatio="xMidYMid meet">
<metadata>
Created by potrace 1.16, written by Peter Selinger 2001-2019
</metadata>
<g transform="translate(0.000000,92.000000) scale(0.100000,-0.100000)"
fill="#000000" stroke="none">
<path d="M475 853 c-27 -8 -92 -15 -142 -16 -51 -1 -93 -3 -93 -5 0 -2 5 -13
12 -25 6 -12 17 -56 25 -96 7 -41 19 -82 28 -90 10 -10 15 -11 15 -3 0 7 14
12 34 12 29 0 37 -6 55 -36 12 -20 20 -39 17 -41 -5 -5 -219 -30 -295 -35 -25
-2 -46 -8 -48 -15 -7 -19 52 -44 79 -34 75 28 471 67 574 56 60 -6 80 0 66 21
-23 36 -73 37 -294 9 -31 -4 -36 -2 -31 11 3 8 -4 28 -16 45 l-22 29 46 0 c25
0 54 -5 65 -12 10 -7 22 -9 26 -6 3 4 19 44 34 90 15 46 31 91 35 100 5 13 -2
23 -27 38 -38 23 -73 24 -143 3z m83 -54 c3 -25 1 -25 -112 -38 -63 -7 -119
-10 -125 -6 -15 9 -14 45 2 46 6 0 57 6 112 13 55 8 105 13 110 12 6 -2 11
-14 13 -27z m-7 -90 c-6 -29 -10 -32 -46 -34 -22 -1 -73 -5 -112 -10 l-73 -8
0 32 c0 30 1 31 48 32 26 0 70 4 97 9 93 14 93 14 86 -21z"/>
<path d="M545 485 c-20 -8 -220 -35 -258 -35 -39 0 -40 -1 -23 -19 10 -10 24
-43 31 -71 8 -29 18 -57 22 -61 4 -4 26 -4 48 1 22 5 42 7 44 4 8 -8 16 -98
13 -148 l-3 -48 -52 6 c-43 5 -49 4 -33 -7 11 -6 34 -24 51 -40 38 -31 48 -33
66 -11 16 19 30 223 17 240 -11 14 21 24 80 24 37 0 43 3 38 18 -4 12 5 34 23
59 28 38 29 42 13 56 -17 14 -58 38 -64 36 -2 0 -7 -2 -13 -4z m-5 -84 l0 -38
-69 -12 c-117 -19 -128 -17 -136 25 -3 20 -5 37 -3 39 7 6 116 23 161 24 l47
1 0 -39z"/>
<path d="M242 228 c-6 -18 -32 -57 -58 -86 -25 -29 -44 -55 -42 -57 8 -8 92
52 138 100 43 44 44 47 26 61 -31 22 -51 17 -64 -18z"/>
<path d="M632 183 c36 -43 71 -78 79 -78 9 0 15 13 17 37 3 31 -2 40 -30 61
-32 25 -101 57 -120 57 -5 0 19 -35 54 -77z"/>
</g>
</svg>
