<?xml version="1.0" standalone="no"?>
<!DOCTYPE svg PUBLIC "-//W3C//DTD SVG 20010904//EN"
 "http://www.w3.org/TR/2001/REC-SVG-20010904/DTD/svg10.dtd">
<svg version="1.0" xmlns="http://www.w3.org/2000/svg"
 width="96.000000pt" height="68.000000pt" viewBox="0 0 96.000000 68.000000"
 preserveAspectRatio="xMidYMid meet">
<metadata>
Created by potrace 1.16, written by Peter Selinger 2001-2019
</metadata>
<g transform="translate(0.000000,68.000000) scale(0.100000,-0.100000)"
fill="#000000" stroke="none">
<path d="M220 593 c1 -5 5 -39 10 -78 11 -90 -2 -236 -28 -295 -11 -25 -38
-66 -62 -92 -49 -56 -40 -62 22 -15 27 20 52 52 68 84 14 29 28 52 33 53 4 0
23 -18 43 -40 39 -43 64 -51 64 -22 0 21 -33 53 -72 70 -22 9 -28 18 -28 41 0
53 17 79 75 112 58 33 62 38 43 57 -18 18 -46 15 -53 -5 -3 -10 -17 -31 -31
-48 l-26 -30 5 98 c5 97 5 98 -19 108 -30 11 -44 12 -44 2z"/>
<path d="M110 405 c0 -3 12 -23 26 -45 32 -48 54 -52 54 -10 0 23 -7 33 -30
45 -29 15 -50 19 -50 10z"/>
</g>
</svg>
