<?xml version="1.0" standalone="no"?>
<!DOCTYPE svg PUBLIC "-//W3C//DTD SVG 20010904//EN"
 "http://www.w3.org/TR/2001/REC-SVG-20010904/DTD/svg10.dtd">
<svg version="1.0" xmlns="http://www.w3.org/2000/svg"
 width="90.000000pt" height="92.000000pt" viewBox="0 0 90.000000 92.000000"
 preserveAspectRatio="xMidYMid meet">
<metadata>
Created by potrace 1.16, written by Peter Selinger 2001-2019
</metadata>
<g transform="translate(0.000000,92.000000) scale(0.100000,-0.100000)"
fill="#000000" stroke="none">
<path d="M540 853 c0 -62 -9 -73 -59 -80 -22 -3 -41 -9 -41 -14 0 -14 36 -28
58 -22 26 6 26 7 7 -46 -23 -66 7 -46 51 34 9 16 23 21 70 23 106 4 131 18 74
42 -18 8 -46 10 -70 6 -45 -7 -46 -6 -25 34 14 27 14 30 -11 49 -42 33 -54 27
-54 -26z"/>
<path d="M238 854 c-4 -3 3 -26 14 -51 11 -24 17 -47 13 -51 -3 -3 -35 -8 -70
-10 -36 -2 -65 -8 -65 -13 0 -10 41 -49 52 -49 5 0 25 7 45 15 48 20 61 19 65
-7 5 -38 28 -33 28 6 0 32 4 37 36 51 20 8 33 19 29 25 -6 10 -22 8 -62 -7 -9
-4 -13 7 -13 36 0 30 -5 43 -19 51 -22 11 -45 13 -53 4z"/>
<path d="M362 696 c-6 -14 -28 -44 -49 -66 -34 -38 -40 -41 -73 -36 -47 7 -53
0 -30 -33 10 -14 21 -48 25 -76 9 -72 24 -125 35 -125 6 0 10 3 10 8 0 12 157
15 165 2 4 -6 7 -67 8 -135 2 -142 14 -170 83 -193 77 -27 245 2 261 45 3 8
-6 39 -19 69 l-25 55 -12 -45 c-15 -63 -43 -79 -132 -78 -100 0 -119 15 -119
92 l0 60 43 0 c49 1 174 24 185 34 9 9 -26 36 -47 36 -8 0 -48 -9 -89 -21 -40
-11 -76 -18 -79 -15 -3 3 -1 23 4 45 9 32 7 42 -5 55 -15 15 -14 16 10 16 15
0 30 -5 33 -11 17 -27 40 1 72 91 45 124 45 128 2 153 l-36 21 -99 -22 c-54
-11 -117 -24 -139 -27 l-40 -6 68 48 68 48 -21 17 c-30 24 -45 23 -58 -6z
m208 -141 c0 -43 -19 -135 -28 -135 -32 1 -49 13 -44 35 3 17 -2 25 -17 30
-28 9 -26 19 6 43 22 16 25 23 15 34 -16 20 -6 28 35 28 31 0 33 -2 33 -35z
m-130 12 c0 -7 -6 -21 -13 -32 -13 -17 -16 -17 -62 -2 -60 21 -69 15 -21 -14
20 -11 36 -25 36 -29 0 -5 -19 -23 -42 -40 -33 -24 -37 -30 -18 -25 14 4 42
16 63 26 35 18 39 18 63 3 14 -9 21 -21 17 -25 -12 -12 -169 -23 -175 -13 -3
5 -9 39 -12 75 l-7 66 78 10 c43 6 81 11 86 12 4 0 7 -5 7 -12z"/>
<path d="M196 343 c15 -46 11 -207 -5 -236 -11 -21 -12 -32 -3 -52 6 -14 16
-25 22 -25 13 0 200 141 200 151 0 4 -31 -3 -70 -17 -38 -13 -74 -24 -80 -24
-5 0 -10 20 -10 44 l0 43 57 7 c80 9 103 16 103 31 0 21 -38 24 -96 8 -30 -9
-57 -14 -59 -11 -3 2 0 20 5 39 9 29 8 36 -11 52 -12 9 -30 17 -41 17 -17 0
-19 -4 -12 -27z"/>
</g>
</svg>
