<?xml version="1.0" standalone="no"?>
<!DOCTYPE svg PUBLIC "-//W3C//DTD SVG 20010904//EN"
 "http://www.w3.org/TR/2001/REC-SVG-20010904/DTD/svg10.dtd">
<svg version="1.0" xmlns="http://www.w3.org/2000/svg"
 width="96.000000pt" height="68.000000pt" viewBox="0 0 96.000000 68.000000"
 preserveAspectRatio="xMidYMid meet">
<metadata>
Created by potrace 1.16, written by Peter Selinger 2001-2019
</metadata>
<g transform="translate(0.000000,68.000000) scale(0.100000,-0.100000)"
fill="#000000" stroke="none">
<path d="M481 566 c-5 -20 -17 -44 -26 -53 -64 -69 -104 -107 -133 -125 -58
-36 -26 -32 40 5 35 20 87 61 116 92 l52 57 62 -53 c35 -30 64 -57 66 -61 2
-4 19 -17 37 -28 28 -17 43 -20 84 -14 28 4 51 9 51 13 0 3 -34 19 -75 34 -93
35 -213 113 -217 141 -2 13 -12 22 -25 24 -17 3 -24 -4 -32 -32z"/>
<path d="M150 502 c0 -19 70 -72 95 -72 20 0 25 5 25 24 0 13 -6 29 -14 35
-18 15 -106 27 -106 13z"/>
<path d="M502 438 c-43 -9 -51 -28 -9 -24 65 8 106 19 101 27 -6 11 -35 10
-92 -3z"/>
<path d="M451 373 c-19 -8 -44 -12 -57 -9 -21 6 -22 2 -28 -67 -3 -39 -8 -89
-12 -111 -8 -49 16 -46 32 5 10 28 18 35 48 40 52 9 56 19 7 19 -35 0 -42 3
-39 18 2 13 15 18 48 20 l45 3 -3 -61 c-4 -57 -5 -60 -30 -60 l-25 0 23 -25
c52 -55 72 -17 68 128 -3 114 -13 126 -77 100z m39 -38 c0 -22 -4 -25 -35 -25
-19 0 -38 0 -42 0 -20 0 -5 35 17 41 48 14 60 10 60 -16z"/>
<path d="M658 280 c4 -113 3 -116 -35 -111 -20 3 -15 -13 10 -38 29 -26 54
-19 61 17 9 41 5 232 -4 232 -5 0 -14 2 -22 5 -11 4 -13 -15 -10 -105z"/>
<path d="M163 346 c-35 -11 -63 -25 -63 -29 0 -5 23 -7 50 -5 52 3 51 4 34
-38 -3 -5 7 -23 21 -40 49 -57 29 -84 -62 -84 -44 0 -53 -9 -29 -29 9 -8 37
-9 82 -5 74 7 88 4 298 -62 60 -19 130 -34 155 -34 57 0 221 49 201 60 -8 4
-85 10 -170 13 -114 4 -186 12 -274 31 -65 14 -122 29 -127 32 -5 3 -9 18 -9
34 0 19 -10 38 -27 55 l-28 26 33 28 c17 15 32 32 32 38 0 8 -46 36 -53 32 -1
-1 -30 -11 -64 -23z"/>
<path d="M572 283 c4 -71 24 -82 33 -19 8 53 2 76 -20 76 -12 0 -15 -11 -13
-57z"/>
</g>
</svg>
