<?xml version="1.0" standalone="no"?>
<!DOCTYPE svg PUBLIC "-//W3C//DTD SVG 20010904//EN"
 "http://www.w3.org/TR/2001/REC-SVG-20010904/DTD/svg10.dtd">
<svg version="1.0" xmlns="http://www.w3.org/2000/svg"
 width="96.000000pt" height="68.000000pt" viewBox="0 0 96.000000 68.000000"
 preserveAspectRatio="xMidYMid meet">
<metadata>
Created by potrace 1.16, written by Peter Selinger 2001-2019
</metadata>
<g transform="translate(0.000000,68.000000) scale(0.100000,-0.100000)"
fill="#000000" stroke="none">
<path d="M282 606 c-7 -20 -35 -58 -61 -86 -57 -60 -39 -68 35 -15 32 23 60
35 82 35 30 0 199 24 250 35 13 3 20 9 18 14 -12 18 -63 18 -164 0 -58 -10
-108 -19 -110 -19 -3 0 3 9 13 20 21 23 14 35 -25 45 -22 5 -27 2 -38 -29z"/>
<path d="M365 506 c-90 -23 -93 -40 -5 -24 121 21 153 30 139 39 -19 12 -29
10 -134 -15z"/>
<path d="M549 476 c-8 -8 -296 -56 -339 -56 -32 0 -33 -1 -17 -17 18 -19 -1
-21 284 30 34 6 65 8 68 5 3 -3 8 -41 10 -84 9 -133 14 -163 35 -203 31 -61
81 -94 148 -98 81 -5 89 3 66 66 -10 28 -21 51 -26 51 -4 0 -10 -16 -14 -35
-5 -29 -11 -35 -31 -35 -75 0 -124 71 -131 191 -4 66 -1 84 19 123 12 25 20
49 17 52 -9 9 -82 17 -89 10z"/>
<path d="M297 354 c-60 -12 -111 -25 -115 -28 -3 -3 16 -6 42 -6 46 0 46 0 40
-27 -12 -49 -45 -105 -91 -154 -25 -27 -43 -49 -39 -49 12 0 61 35 84 60 39
43 103 156 97 172 -5 12 4 17 36 22 23 4 44 4 47 2 7 -8 -19 -66 -29 -66 -5 0
-9 -9 -9 -20 0 -19 4 -20 50 -14 57 7 61 1 38 -65 -17 -48 -46 -74 -75 -66
-28 7 -29 -4 -3 -33 27 -29 30 -28 67 11 33 33 64 103 67 147 1 23 -2 25 -47
26 -26 0 -50 4 -54 8 -4 3 9 22 28 42 33 34 33 36 15 50 -23 16 -12 17 -149
-12z"/>
</g>
</svg>
