<?xml version="1.0" standalone="no"?>
<!DOCTYPE svg PUBLIC "-//W3C//DTD SVG 20010904//EN"
 "http://www.w3.org/TR/2001/REC-SVG-20010904/DTD/svg10.dtd">
<svg version="1.0" xmlns="http://www.w3.org/2000/svg"
 width="96.000000pt" height="68.000000pt" viewBox="0 0 96.000000 68.000000"
 preserveAspectRatio="xMidYMid meet">
<metadata>
Created by potrace 1.16, written by Peter Selinger 2001-2019
</metadata>
<g transform="translate(0.000000,68.000000) scale(0.100000,-0.100000)"
fill="#000000" stroke="none">
<path d="M402 606 c-21 -56 -50 -86 -84 -86 -30 0 -30 -1 -23 -37 5 -21 11
-69 14 -108 3 -38 11 -70 16 -70 6 1 52 4 104 9 70 6 99 5 117 -5 15 -8 28 -9
33 -3 5 5 23 54 40 109 l31 100 -21 18 c-24 20 -39 21 -106 7 -26 -5 -66 -11
-88 -14 l-40 -4 50 43 c27 24 48 46 45 48 -12 11 -50 27 -62 27 -8 0 -20 -15
-26 -34z m168 -112 c0 -22 -4 -25 -20 -21 -11 3 -61 0 -110 -7 -50 -7 -93 -10
-95 -7 -3 2 -5 12 -5 22 0 14 14 19 73 27 39 5 91 10 115 11 39 1 42 -1 42
-25z m-6 -50 c4 -9 5 -18 4 -19 -4 -2 -177 -27 -203 -29 -10 0 -21 6 -23 15
-2 14 12 19 85 29 48 6 93 13 98 15 22 8 33 4 39 -11z m-4 -66 c0 -28 -19 -35
-112 -42 l-98 -7 0 25 c0 23 4 25 58 29 131 8 152 7 152 -5z"/>
<path d="M700 315 c25 -25 42 -35 59 -33 58 7 21 50 -54 63 l-40 7 35 -37z"/>
<path d="M419 283 c-1 -5 0 -17 0 -29 2 -19 -5 -22 -60 -28 -34 -3 -84 -6
-110 -6 -56 0 -65 -15 -15 -24 31 -6 84 -2 144 10 37 7 27 -29 -22 -74 -26
-24 -69 -49 -107 -63 -81 -30 -53 -37 32 -9 78 26 122 58 151 110 l23 40 70 0
c80 1 188 10 195 17 2 2 -2 9 -10 14 -9 6 -58 8 -127 4 -103 -6 -112 -5 -107
10 4 10 1 21 -7 26 -17 11 -49 12 -50 2z"/>
<path d="M516 161 c5 -5 47 -36 92 -70 84 -61 122 -75 122 -45 0 29 -67 81
-132 103 -65 22 -99 27 -82 12z"/>
</g>
</svg>
