<?xml version="1.0" standalone="no"?>
<!DOCTYPE svg PUBLIC "-//W3C//DTD SVG 20010904//EN"
 "http://www.w3.org/TR/2001/REC-SVG-20010904/DTD/svg10.dtd">
<svg version="1.0" xmlns="http://www.w3.org/2000/svg"
 width="90.000000pt" height="92.000000pt" viewBox="0 0 90.000000 92.000000"
 preserveAspectRatio="xMidYMid meet">
<metadata>
Created by potrace 1.16, written by Peter Selinger 2001-2019
</metadata>
<g transform="translate(0.000000,92.000000) scale(0.100000,-0.100000)"
fill="#000000" stroke="none">
<path d="M540 851 c0 -60 -18 -81 -67 -81 -48 0 -38 -24 11 -28 31 -3 36 -6
31 -20 -3 -9 -9 -30 -12 -47 l-5 -30 21 25 c11 14 26 37 33 52 13 28 45 38
126 38 30 0 42 4 40 13 -8 23 -48 35 -86 26 -20 -4 -38 -6 -40 -4 -2 2 4 17
12 33 15 30 15 31 -10 51 -43 34 -54 28 -54 -28z"/>
<path d="M240 856 c0 -2 9 -23 19 -47 24 -53 18 -59 -66 -59 -35 0 -63 -4 -63
-9 0 -5 11 -19 25 -30 24 -18 28 -19 71 -4 55 18 69 14 77 -26 10 -46 27 -37
27 13 0 42 1 44 35 50 48 9 45 29 -4 24 -39 -3 -39 -3 -44 36 -3 21 -11 43
-19 47 -13 9 -58 12 -58 5z"/>
<path d="M405 656 c8 -51 8 -51 -100 -62 -88 -8 -107 -17 -75 -34 21 -11 52
-10 148 7 l32 5 0 -61 c0 -34 -6 -76 -13 -94 -21 -50 -159 -189 -250 -252 -61
-43 -74 -56 -52 -51 92 20 204 99 286 201 l32 40 -6 -140 c-4 -131 3 -185 24
-185 19 0 24 35 29 185 l5 160 75 -90 c41 -49 92 -107 113 -129 l38 -39 69 6
c38 3 78 10 87 16 15 8 14 11 -12 22 -148 62 -194 90 -282 170 l-93 83 0 82 0
81 68 6 c37 4 84 7 104 7 49 0 56 15 17 35 -26 14 -41 15 -93 6 -96 -17 -99
-16 -91 20 8 35 -4 49 -43 49 -22 0 -23 -3 -17 -44z"/>
<path d="M571 534 c-7 -19 -27 -56 -46 -84 -38 -56 -32 -63 15 -23 l32 27 42
-49 c44 -50 66 -54 66 -10 0 27 -28 49 -73 61 l-28 7 32 33 c26 27 30 36 20
48 -24 29 -47 25 -60 -10z"/>
<path d="M237 502 c-3 -15 -31 -63 -61 -105 -59 -83 -49 -88 31 -14 44 40 45
41 59 22 46 -64 64 -71 64 -25 0 24 -7 33 -36 48 -35 18 -35 18 -15 37 28 24
26 39 -4 53 -34 15 -32 16 -38 -16z"/>
</g>
</svg>
