<?xml version="1.0" standalone="no"?>
<!DOCTYPE svg PUBLIC "-//W3C//DTD SVG 20010904//EN"
 "http://www.w3.org/TR/2001/REC-SVG-20010904/DTD/svg10.dtd">
<svg version="1.0" xmlns="http://www.w3.org/2000/svg"
 width="96.000000pt" height="68.000000pt" viewBox="0 0 96.000000 68.000000"
 preserveAspectRatio="xMidYMid meet">
<metadata>
Created by potrace 1.16, written by Peter Selinger 2001-2019
</metadata>
<g transform="translate(0.000000,68.000000) scale(0.100000,-0.100000)"
fill="#000000" stroke="none">
<path d="M491 558 c6 -13 19 -31 27 -41 22 -25 6 -34 -80 -42 -37 -4 -68 -11
-68 -15 0 -19 42 -20 160 -5 69 9 145 19 170 22 42 5 43 6 25 20 -15 11 -35
13 -82 8 -54 -6 -63 -4 -63 10 0 25 -46 65 -75 65 -23 0 -25 -2 -14 -22z"/>
</g>
</svg>
