<?xml version="1.0" standalone="no"?>
<!DOCTYPE svg PUBLIC "-//W3C//DTD SVG 20010904//EN"
 "http://www.w3.org/TR/2001/REC-SVG-20010904/DTD/svg10.dtd">
<svg version="1.0" xmlns="http://www.w3.org/2000/svg"
 width="96.000000pt" height="68.000000pt" viewBox="0 0 96.000000 68.000000"
 preserveAspectRatio="xMidYMid meet">
<metadata>
Created by potrace 1.16, written by Peter Selinger 2001-2019
</metadata>
<g transform="translate(0.000000,68.000000) scale(0.100000,-0.100000)"
fill="#000000" stroke="none">
<path d="M225 420 c-16 -4 -48 -8 -70 -9 l-40 -1 1 -120 c0 -80 5 -125 13
-133 9 -9 14 -9 19 1 5 6 36 15 69 18 55 6 62 5 72 -15 15 -27 39 -27 50 2 13
37 4 249 -11 258 -15 10 -61 10 -103 -1z m73 -61 l3 -37 -57 -7 c-31 -4 -63
-9 -71 -12 -18 -7 -19 83 0 91 6 2 37 4 67 3 l55 -2 3 -36z m1 -96 c-1 -47
-11 -58 -59 -61 -25 -2 -53 -6 -62 -8 -15 -5 -18 2 -18 40 0 51 4 53 88 55 51
1 52 0 51 -26z"/>
</g>
</svg>
