<?xml version="1.0" standalone="no"?>
<!DOCTYPE svg PUBLIC "-//W3C//DTD SVG 20010904//EN"
 "http://www.w3.org/TR/2001/REC-SVG-20010904/DTD/svg10.dtd">
<svg version="1.0" xmlns="http://www.w3.org/2000/svg"
 width="90.000000pt" height="92.000000pt" viewBox="0 0 90.000000 92.000000"
 preserveAspectRatio="xMidYMid meet">
<metadata>
Created by potrace 1.16, written by Peter Selinger 2001-2019
</metadata>
<g transform="translate(0.000000,92.000000) scale(0.100000,-0.100000)"
fill="#000000" stroke="none">
<path d="M197 848 c-2 -7 -1 -22 3 -33 4 -11 11 -59 15 -107 7 -79 6 -86 -11
-92 -19 -5 -142 -26 -158 -26 -5 0 -2 -7 5 -16 11 -14 26 -15 91 -9 l78 6 0
-38 c0 -77 -10 -86 -185 -159 -41 -17 -46 -45 -11 -64 22 -11 29 -9 83 32 32
25 69 51 82 58 l24 12 -6 -83 c-7 -118 -10 -122 -66 -115 -45 7 -46 6 -25 -11
11 -10 33 -35 49 -55 34 -46 49 -48 75 -6 17 29 20 51 20 168 l0 135 37 33
c37 32 31 38 -19 17 -16 -6 -18 -1 -18 39 0 44 1 45 40 56 21 6 42 15 45 20 8
13 -43 32 -66 25 -16 -5 -19 -1 -19 22 1 28 11 84 25 135 6 24 3 30 -27 48
-38 23 -55 25 -61 8z"/>
<path d="M524 743 c-67 -71 -74 -75 -104 -69 l-32 6 7 -38 c9 -49 7 -171 -5
-248 -12 -75 -33 -135 -66 -192 -14 -24 -24 -46 -21 -48 2 -3 23 16 45 41 44
50 74 126 92 236 10 59 14 67 33 66 12 0 39 3 60 7 34 8 37 7 37 -15 2 -314 7
-450 16 -459 19 -19 34 76 34 210 0 66 3 120 7 120 3 0 30 -23 59 -50 59 -56
94 -65 94 -25 0 36 -37 70 -100 92 l-52 18 5 57 c3 38 1 58 -6 61 -25 9 2 16
87 24 97 9 119 24 66 47 -28 11 -44 10 -143 -14 -62 -15 -129 -30 -149 -34
l-38 -7 0 38 c0 66 8 76 95 126 45 26 87 47 93 47 5 0 16 7 23 16 11 14 10 20
-14 40 -16 13 -33 24 -40 23 -7 0 -44 -35 -83 -76z"/>
</g>
</svg>
