<?xml version="1.0" standalone="no"?>
<!DOCTYPE svg PUBLIC "-//W3C//DTD SVG 20010904//EN"
 "http://www.w3.org/TR/2001/REC-SVG-20010904/DTD/svg10.dtd">
<svg version="1.0" xmlns="http://www.w3.org/2000/svg"
 width="96.000000pt" height="68.000000pt" viewBox="0 0 96.000000 68.000000"
 preserveAspectRatio="xMidYMid meet">
<metadata>
Created by potrace 1.16, written by Peter Selinger 2001-2019
</metadata>
<g transform="translate(0.000000,68.000000) scale(0.100000,-0.100000)"
fill="#000000" stroke="none">
<path d="M295 593 c15 -35 18 -145 5 -153 -8 -5 -45 -12 -84 -15 -58 -6 -67
-9 -47 -17 14 -5 51 -6 83 -2 l58 7 0 -42 c0 -40 -1 -42 -53 -65 -29 -13 -71
-29 -92 -36 -51 -16 -64 -28 -45 -40 27 -17 55 -11 114 25 32 19 63 35 68 35
6 0 7 -21 3 -53 -11 -87 -13 -90 -52 -84 l-34 6 33 -39 c67 -77 98 -43 98 107
0 57 4 103 8 103 5 0 17 7 28 15 18 15 18 15 -8 9 -27 -6 -28 -4 -28 30 0 29
4 36 19 36 28 0 52 11 45 21 -3 5 -18 9 -35 9 -24 0 -29 4 -29 25 0 14 7 42
15 62 20 46 19 48 -10 61 -40 18 -69 16 -60 -5z"/>
</g>
</svg>
