<?xml version="1.0" standalone="no"?>
<!DOCTYPE svg PUBLIC "-//W3C//DTD SVG 20010904//EN"
 "http://www.w3.org/TR/2001/REC-SVG-20010904/DTD/svg10.dtd">
<svg version="1.0" xmlns="http://www.w3.org/2000/svg"
 width="96.000000pt" height="68.000000pt" viewBox="0 0 96.000000 68.000000"
 preserveAspectRatio="xMidYMid meet">
<metadata>
Created by potrace 1.16, written by Peter Selinger 2001-2019
</metadata>
<g transform="translate(0.000000,68.000000) scale(0.100000,-0.100000)"
fill="#000000" stroke="none">
<path d="M294 583 c4 -21 9 -61 13 -89 l5 -51 -53 -7 c-30 -4 -69 -9 -87 -13
-55 -9 -16 -23 66 -23 66 0 72 -2 72 -21 0 -39 -20 -57 -101 -88 -44 -17 -87
-31 -95 -31 -21 0 -17 -17 8 -34 32 -23 40 -21 113 24 l65 40 -1 -43 c-1 -23
-4 -53 -8 -67 -6 -22 -12 -25 -47 -22 l-39 3 47 -47 c46 -47 47 -47 72 -30 25
16 26 20 26 124 l0 107 30 17 c29 16 43 46 18 35 -52 -21 -50 -21 -46 14 3 30
7 35 37 39 19 3 36 10 38 17 5 14 -40 28 -56 18 -7 -4 -11 10 -11 39 0 25 5
48 10 51 16 10 11 44 -7 53 -10 5 -31 12 -47 16 -29 7 -29 7 -22 -31z"/>
<path d="M600 539 c-49 -44 -85 -63 -112 -60 -15 2 -17 -5 -13 -49 5 -66 -19
-214 -41 -248 -9 -15 -26 -37 -37 -49 -24 -27 -9 -31 19 -6 36 33 64 75 73
112 5 20 14 54 20 76 l11 41 52 -1 53 0 5 -163 c3 -96 9 -163 15 -164 14 -3
22 45 24 140 0 45 4 82 9 82 4 0 25 -14 46 -30 42 -32 86 -40 86 -16 0 21 -48
55 -94 67 -41 10 -41 10 -41 59 l0 49 78 7 c42 4 77 10 77 14 0 19 -58 19
-174 0 -69 -11 -128 -20 -131 -20 -4 0 -5 19 -3 42 l3 42 84 36 c85 37 105 55
80 71 -25 16 -43 9 -89 -32z"/>
</g>
</svg>
