<?xml version="1.0" standalone="no"?>
<!DOCTYPE svg PUBLIC "-//W3C//DTD SVG 20010904//EN"
 "http://www.w3.org/TR/2001/REC-SVG-20010904/DTD/svg10.dtd">
<svg version="1.0" xmlns="http://www.w3.org/2000/svg"
 width="90.000000pt" height="92.000000pt" viewBox="0 0 90.000000 92.000000"
 preserveAspectRatio="xMidYMid meet">
<metadata>
Created by potrace 1.16, written by Peter Selinger 2001-2019
</metadata>
<g transform="translate(0.000000,92.000000) scale(0.100000,-0.100000)"
fill="#000000" stroke="none">
<path d="M170 812 c0 -11 96 -102 107 -102 46 1 41 59 -7 82 -45 21 -100 32
-100 20z"/>
<path d="M574 759 c-10 -11 -52 -43 -92 -70 -61 -40 -77 -47 -93 -38 -26 14
-42 3 -29 -21 12 -23 13 -351 1 -404 -10 -41 3 -86 23 -86 6 0 45 34 86 75 75
76 80 96 12 50 -59 -41 -62 -37 -62 78 l0 103 72 12 c39 7 74 9 78 5 3 -5 19
-37 33 -73 56 -134 173 -270 234 -270 27 0 27 -5 4 85 -5 22 -13 58 -17 80
l-7 40 -11 -44 c-6 -25 -16 -46 -22 -48 -35 -12 -192 230 -162 248 6 4 38 11
70 14 32 4 61 11 64 16 3 5 -10 16 -30 24 -30 13 -40 13 -77 0 -23 -9 -46 -12
-51 -7 -4 4 -11 36 -14 71 -6 49 -11 64 -26 70 -16 6 -8 11 37 27 66 22 78 39
46 66 -30 23 -44 23 -67 -3z m-44 -175 c12 -36 18 -69 14 -74 -9 -7 -93 -30
-113 -30 -12 0 -14 55 -5 112 5 28 13 40 33 47 44 16 49 13 71 -55z"/>
<path d="M192 609 c-30 -11 -75 -22 -100 -26 -71 -9 -80 -17 -47 -39 27 -18
29 -18 104 9 42 15 80 27 84 27 20 0 -95 -176 -180 -277 -30 -35 -53 -67 -50
-69 8 -8 122 82 151 120 44 58 51 38 37 -103 -11 -107 -10 -123 4 -152 30 -56
40 -22 41 137 0 79 3 147 6 150 4 3 20 -1 36 -10 26 -13 32 -13 42 -1 17 21
-4 52 -42 60 -18 4 -36 9 -40 12 -12 6 16 53 58 97 l37 40 -27 23 c-32 27 -44
27 -114 2z"/>
<path d="M541 160 c-40 -10 -75 -21 -78 -24 -3 -2 5 -10 17 -16 17 -9 33 -9
65 -1 24 6 59 11 79 11 65 0 85 18 41 38 -31 14 -31 14 -124 -8z"/>
</g>
</svg>
