<?xml version="1.0" standalone="no"?>
<!DOCTYPE svg PUBLIC "-//W3C//DTD SVG 20010904//EN"
 "http://www.w3.org/TR/2001/REC-SVG-20010904/DTD/svg10.dtd">
<svg version="1.0" xmlns="http://www.w3.org/2000/svg"
 width="90.000000pt" height="92.000000pt" viewBox="0 0 90.000000 92.000000"
 preserveAspectRatio="xMidYMid meet">
<metadata>
Created by potrace 1.16, written by Peter Selinger 2001-2019
</metadata>
<g transform="translate(0.000000,92.000000) scale(0.100000,-0.100000)"
fill="#000000" stroke="none">
<path d="M374 815 c4 -20 9 -62 11 -95 l5 -59 -33 -5 c-17 -3 -53 -8 -79 -11
-49 -6 -61 -18 -32 -29 9 -3 45 -6 80 -6 l64 0 0 -54 0 -53 -122 -12 c-68 -7
-127 -16 -131 -20 -4 -5 6 -14 22 -21 26 -10 58 -10 179 4 81 8 199 18 262 22
140 7 147 9 129 30 -26 31 -58 35 -171 19 -60 -8 -111 -15 -113 -15 -3 0 -5
24 -5 54 l0 54 43 7 c145 22 169 32 126 56 -21 11 -55 9 -127 -7 l-34 -7 3 78
c4 84 -8 105 -59 105 -22 0 -24 -3 -18 -35z"/>
<path d="M374 429 c-3 -6 -1 -16 5 -22 6 -6 11 -30 11 -53 0 -48 -1 -49 -93
-60 -31 -3 -60 -10 -62 -15 -12 -18 38 -30 98 -24 l62 7 1 -50 c1 -50 1 -50
-35 -56 -20 -3 -88 -8 -151 -12 -141 -8 -153 -13 -110 -44 30 -21 35 -22 103
-11 130 20 289 31 450 31 134 0 157 2 157 15 0 8 -15 24 -32 35 -26 16 -43 19
-83 14 -27 -3 -94 -9 -147 -12 l-98 -7 0 52 c0 58 -9 53 112 68 26 3 50 11 54
17 12 20 -21 29 -88 25 l-68 -4 0 47 c0 40 -3 48 -25 58 -32 15 -52 15 -61 1z"/>
</g>
</svg>
