<?xml version="1.0" standalone="no"?>
<!DOCTYPE svg PUBLIC "-//W3C//DTD SVG 20010904//EN"
 "http://www.w3.org/TR/2001/REC-SVG-20010904/DTD/svg10.dtd">
<svg version="1.0" xmlns="http://www.w3.org/2000/svg"
 width="90.000000pt" height="92.000000pt" viewBox="0 0 90.000000 92.000000"
 preserveAspectRatio="xMidYMid meet">
<metadata>
Created by potrace 1.16, written by Peter Selinger 2001-2019
</metadata>
<g transform="translate(0.000000,92.000000) scale(0.100000,-0.100000)"
fill="#000000" stroke="none">
<path d="M530 827 c0 -60 -68 -233 -122 -310 -11 -16 -18 -30 -16 -32 9 -9 79
58 109 105 18 27 36 47 40 44 12 -7 202 27 217 38 19 16 15 25 -15 35 -20 7
-48 3 -107 -14 -44 -12 -80 -22 -82 -20 -1 1 11 29 27 62 16 33 29 63 29 68 0
8 -60 47 -72 47 -5 0 -8 -10 -8 -23z"/>
<path d="M224 783 c-10 -54 -69 -171 -125 -245 -26 -35 -46 -65 -43 -67 7 -7
99 70 129 108 30 38 31 38 115 44 47 3 98 11 114 17 26 10 28 12 14 26 -20 20
-41 20 -117 0 -35 -9 -65 -15 -68 -13 -5 5 34 74 56 100 15 18 14 21 -12 43
-39 34 -55 30 -63 -13z"/>
<path d="M570 583 c0 -20 78 -108 97 -111 25 -4 38 26 28 59 -10 31 -125 78
-125 52z"/>
<path d="M247 540 c27 -47 70 -83 87 -77 17 7 21 43 8 64 -9 14 -74 43 -97 43
-14 0 -14 -4 2 -30z"/>
<path d="M505 414 c-27 -7 -95 -19 -150 -25 -131 -15 -133 -15 -112 -36 11
-12 33 -16 82 -15 123 2 305 33 305 51 0 8 -63 43 -72 40 -1 -1 -25 -8 -53
-15z"/>
<path d="M671 239 c-40 -8 -173 -21 -491 -50 -63 -6 -117 -13 -120 -15 -7 -8
30 -34 59 -41 13 -3 63 1 110 10 108 21 318 37 479 37 103 0 122 2 122 15 0
16 -73 55 -100 54 -8 -1 -35 -5 -59 -10z"/>
</g>
</svg>
