<?xml version="1.0" standalone="no"?>
<!DOCTYPE svg PUBLIC "-//W3C//DTD SVG 20010904//EN"
 "http://www.w3.org/TR/2001/REC-SVG-20010904/DTD/svg10.dtd">
<svg version="1.0" xmlns="http://www.w3.org/2000/svg"
 width="96.000000pt" height="68.000000pt" viewBox="0 0 96.000000 68.000000"
 preserveAspectRatio="xMidYMid meet">
<metadata>
Created by potrace 1.16, written by Peter Selinger 2001-2019
</metadata>
<g transform="translate(0.000000,68.000000) scale(0.100000,-0.100000)"
fill="#000000" stroke="none">
<path d="M687 204 c3 -8 12 -13 19 -10 9 3 11 -1 7 -12 -5 -14 -4 -15 8 -4 12
11 11 15 -5 28 -26 18 -37 18 -29 -2z"/>
<path d="M600 203 c0 -12 28 -38 34 -32 2 2 -5 13 -15 23 -11 11 -19 15 -19 9z"/>
<path d="M453 185 c-7 -8 -13 -19 -13 -25 0 -5 -5 -10 -11 -10 -8 0 -9 -4 0
-13 6 -8 9 -17 6 -21 -3 -3 3 1 12 9 10 8 18 29 19 45 1 17 1 30 0 30 0 -1 -7
-7 -13 -15z"/>
<path d="M527 194 c-6 -10 20 -51 27 -43 2 2 -1 15 -8 28 -7 13 -16 20 -19 15z"/>
</g>
</svg>
