<?xml version="1.0" standalone="no"?>
<!DOCTYPE svg PUBLIC "-//W3C//DTD SVG 20010904//EN"
 "http://www.w3.org/TR/2001/REC-SVG-20010904/DTD/svg10.dtd">
<svg version="1.0" xmlns="http://www.w3.org/2000/svg"
 width="96.000000pt" height="68.000000pt" viewBox="0 0 96.000000 68.000000"
 preserveAspectRatio="xMidYMid meet">
<metadata>
Created by potrace 1.16, written by Peter Selinger 2001-2019
</metadata>
<g transform="translate(0.000000,68.000000) scale(0.100000,-0.100000)"
fill="#000000" stroke="none">
<path d="M410 602 c0 -5 7 -17 15 -28 29 -39 20 -44 -74 -44 -50 0 -93 5 -96
10 -12 19 -23 10 -53 -42 -31 -54 -30 -88 3 -88 12 0 45 41 57 71 4 9 397 44
404 36 3 -3 0 -15 -6 -27 -6 -12 -10 -23 -8 -25 2 -1 32 3 68 9 75 14 82 28
30 64 -32 21 -42 23 -105 17 -38 -3 -85 -8 -102 -12 -28 -4 -33 -2 -33 15 0
12 -10 28 -22 36 -23 17 -78 22 -78 8z"/>
<path d="M465 465 c-55 -7 -121 -14 -147 -14 -47 -1 -48 -1 -29 -20 10 -10 22
-34 26 -52 18 -91 21 -94 70 -91 42 4 45 3 45 -21 0 -23 -4 -25 -67 -32 -52
-5 -75 -3 -97 9 -30 15 -51 13 -41 -5 6 -9 -7 -13 -32 -10 -25 3 -22 -19 4
-25 15 -3 34 -7 40 -10 9 -2 13 -25 13 -66 0 -68 10 -95 30 -83 9 6 11 28 6
85 l-6 77 46 7 c98 13 114 7 114 -44 0 -15 -10 -20 -45 -26 -25 -3 -52 -4 -60
0 -23 8 -18 -12 6 -25 24 -12 61 -7 150 21 l60 20 30 -22 c33 -25 44 -20 35
16 -5 22 -64 66 -67 51 -1 -3 -2 -10 -3 -17 -1 -13 -54 -30 -68 -22 -4 3 -8
18 -8 35 0 27 3 29 38 31 20 0 65 2 99 4 70 3 84 -6 79 -51 -2 -17 -4 -42 -5
-57 -2 -38 -26 -59 -61 -51 -37 7 -37 3 0 -37 22 -24 35 -30 50 -25 31 10 60
64 60 109 0 22 6 55 12 74 12 32 11 35 -16 57 -23 19 -34 21 -65 15 -20 -5
-71 -12 -114 -15 -77 -7 -77 -7 -74 16 4 22 9 24 55 24 28 1 53 3 54 5 2 3 18
37 35 77 43 101 26 111 -152 88z m109 -23 c3 -5 3 -17 0 -28 -4 -16 -12 -18
-49 -16 -36 3 -44 8 -48 28 -4 23 -2 24 44 24 26 0 50 -4 53 -8z m-151 -24 c8
-30 4 -34 -43 -36 -29 -2 -42 2 -46 13 -12 29 4 45 45 45 31 0 40 -4 44 -22z
m139 -43 c3 -3 3 -17 0 -30 -4 -22 -10 -25 -43 -25 -35 0 -39 3 -39 24 0 24
13 32 56 35 11 0 23 -1 26 -4z m-132 -40 c0 -22 -4 -25 -35 -25 -19 0 -35 4
-35 9 0 5 -3 16 -6 25 -5 13 2 16 35 16 37 0 41 -2 41 -25z"/>
</g>
</svg>
