<?xml version="1.0" standalone="no"?>
<!DOCTYPE svg PUBLIC "-//W3C//DTD SVG 20010904//EN"
 "http://www.w3.org/TR/2001/REC-SVG-20010904/DTD/svg10.dtd">
<svg version="1.0" xmlns="http://www.w3.org/2000/svg"
 width="90.000000pt" height="92.000000pt" viewBox="0 0 90.000000 92.000000"
 preserveAspectRatio="xMidYMid meet">
<metadata>
Created by potrace 1.16, written by Peter Selinger 2001-2019
</metadata>
<g transform="translate(0.000000,92.000000) scale(0.100000,-0.100000)"
fill="#000000" stroke="none">
<path d="M580 800 c-52 -10 -115 -19 -139 -19 -41 -1 -43 -2 -28 -18 8 -10 21
-47 27 -83 12 -69 28 -100 40 -80 4 7 57 17 119 23 101 9 111 12 105 29 -3 11
7 41 25 74 l30 55 -32 20 c-18 10 -36 18 -42 18 -5 -1 -53 -10 -105 -19z m90
-37 c0 -10 -3 -35 -6 -55 -6 -36 -7 -37 -68 -47 -109 -19 -112 -18 -120 36 -3
26 -3 50 1 54 5 4 42 12 83 17 110 14 110 14 110 -5z"/>
<path d="M275 773 c-3 -16 -15 -42 -26 -60 l-20 -32 -52 39 c-75 57 -90 49
-27 -15 l54 -55 -29 -31 c-17 -17 -54 -49 -83 -71 -29 -22 -51 -43 -48 -45 7
-7 98 43 141 77 l40 32 13 -31 c10 -26 10 -37 -2 -64 -24 -57 -104 -155 -170
-209 -35 -29 -63 -55 -60 -57 2 -2 33 10 68 28 44 21 82 50 116 88 27 32 50
61 50 65 0 4 5 8 11 8 14 0 5 -170 -12 -232 -8 -33 -14 -38 -39 -38 -16 0 -40
4 -55 10 -23 9 -20 3 21 -45 26 -30 53 -55 59 -55 19 0 52 42 63 80 29 96 21
353 -14 439 -18 46 -15 55 45 119 36 39 37 43 13 65 -27 25 -49 21 -57 -10z"/>
<path d="M620 558 c-36 -10 -98 -20 -137 -20 -68 -1 -87 -8 -63 -23 6 -4 10
-54 10 -119 0 -133 -16 -196 -65 -261 -39 -51 -37 -55 12 -22 21 13 46 46 65
85 28 57 32 61 48 47 26 -24 46 -18 126 34 l74 49 0 -71 c0 -102 -7 -120 -39
-114 -14 3 -35 9 -46 13 -13 5 -3 -12 29 -49 27 -31 52 -57 57 -57 5 0 18 15
29 33 18 29 20 50 20 220 0 105 4 196 10 207 8 15 4 23 -21 44 -17 14 -34 25
-37 25 -4 -1 -36 -10 -72 -21z m68 -125 l3 -92 -81 -25 c-45 -15 -93 -26 -109
-26 l-27 0 4 63 c2 34 4 65 5 69 1 4 27 -9 57 -28 66 -41 90 -44 90 -9 0 29
-25 42 -98 52 -48 6 -59 20 -43 51 8 16 27 22 83 30 120 16 113 21 116 -85z"/>
</g>
</svg>
