<?xml version="1.0" standalone="no"?>
<!DOCTYPE svg PUBLIC "-//W3C//DTD SVG 20010904//EN"
 "http://www.w3.org/TR/2001/REC-SVG-20010904/DTD/svg10.dtd">
<svg version="1.0" xmlns="http://www.w3.org/2000/svg"
 width="96.000000pt" height="68.000000pt" viewBox="0 0 96.000000 68.000000"
 preserveAspectRatio="xMidYMid meet">
<metadata>
Created by potrace 1.16, written by Peter Selinger 2001-2019
</metadata>
<g transform="translate(0.000000,68.000000) scale(0.100000,-0.100000)"
fill="#000000" stroke="none">
<path d="M371 534 c-7 -19 -18 -37 -25 -40 -7 -3 -32 7 -57 20 -63 37 -71 31
-19 -14 l45 -40 -25 -20 c-14 -12 -45 -35 -70 -51 -41 -28 -42 -30 -15 -24 17
3 52 20 78 37 57 37 62 33 73 -51 7 -55 0 -184 -12 -214 -8 -23 -36 -29 -70
-17 -28 10 -27 9 13 -31 45 -46 61 -47 89 -3 37 56 37 271 0 343 -15 29 -15
30 24 65 45 41 48 51 21 66 -30 16 -36 13 -50 -26z"/>
</g>
</svg>
