<?xml version="1.0" standalone="no"?>
<!DOCTYPE svg PUBLIC "-//W3C//DTD SVG 20010904//EN"
 "http://www.w3.org/TR/2001/REC-SVG-20010904/DTD/svg10.dtd">
<svg version="1.0" xmlns="http://www.w3.org/2000/svg"
 width="96.000000pt" height="68.000000pt" viewBox="0 0 96.000000 68.000000"
 preserveAspectRatio="xMidYMid meet">
<metadata>
Created by potrace 1.16, written by Peter Selinger 2001-2019
</metadata>
<g transform="translate(0.000000,68.000000) scale(0.100000,-0.100000)"
fill="#000000" stroke="none">
<path d="M225 538 c13 -42 17 -213 6 -272 -14 -76 -41 -132 -90 -185 -28 -30
-33 -41 -21 -41 33 0 96 57 125 113 l29 55 33 -29 c38 -33 61 -37 70 -12 8 20
-29 52 -67 60 -22 4 -27 10 -25 31 1 15 3 43 3 63 2 33 6 37 62 64 65 31 72
45 38 70 -22 15 -24 14 -56 -22 l-34 -38 5 72 6 71 -31 11 c-49 17 -61 14 -53
-11z"/>
<path d="M590 523 c-30 -7 -81 -14 -112 -15 -60 -3 -64 -6 -49 -36 5 -9 15
-44 23 -77 10 -39 19 -59 28 -57 7 2 52 4 100 4 l87 2 13 45 c7 25 20 61 29
79 25 54 -26 77 -119 55z m60 -46 c0 -31 -2 -32 -37 -33 -21 0 -60 -2 -88 -4
-48 -5 -50 -4 -53 21 -3 26 -1 27 65 36 115 17 113 17 113 -20z m-14 -85 c-5
-16 -19 -21 -73 -26 -70 -7 -87 -1 -81 30 3 16 15 20 73 24 78 6 90 1 81 -28z"/>
<path d="M100 375 c0 -3 11 -23 25 -45 24 -37 56 -52 69 -32 11 18 -8 53 -35
67 -28 15 -59 20 -59 10z"/>
<path d="M523 305 c7 -14 21 -28 32 -31 l20 -7 -20 -8 c-11 -4 -38 -8 -60 -9
-22 -1 -49 -5 -59 -9 -19 -7 -19 -8 1 -13 15 -4 25 -19 34 -49 7 -24 17 -50
22 -57 15 -19 7 -22 -83 -29 -74 -6 -81 -8 -64 -20 13 -10 34 -13 69 -9 28 3
131 9 230 12 99 3 182 8 184 10 3 2 -4 11 -15 20 -15 12 -36 14 -97 9 -43 -3
-76 -2 -74 2 21 37 47 106 41 114 -3 6 3 13 15 16 12 3 21 9 21 13 0 16 -31
19 -81 10 -65 -12 -62 -13 -56 4 8 21 -21 56 -48 56 -21 0 -22 -2 -12 -25z
m103 -127 c-3 -34 -7 -62 -9 -63 -1 -2 -23 -5 -49 -9 -47 -7 -47 -7 -46 22 1
17 -9 43 -21 60 -11 17 -21 33 -21 36 0 3 30 7 68 9 37 2 71 4 76 5 5 1 6 -25
2 -60z"/>
</g>
</svg>
