<?xml version="1.0" standalone="no"?>
<!DOCTYPE svg PUBLIC "-//W3C//DTD SVG 20010904//EN"
 "http://www.w3.org/TR/2001/REC-SVG-20010904/DTD/svg10.dtd">
<svg version="1.0" xmlns="http://www.w3.org/2000/svg"
 width="96.000000pt" height="68.000000pt" viewBox="0 0 96.000000 68.000000"
 preserveAspectRatio="xMidYMid meet">
<metadata>
Created by potrace 1.16, written by Peter Selinger 2001-2019
</metadata>
<g transform="translate(0.000000,68.000000) scale(0.100000,-0.100000)"
fill="#000000" stroke="none">
<path d="M283 598 c3 -13 9 -39 12 -60 8 -41 8 -41 -107 -54 -32 -3 -58 -10
-58 -15 0 -5 4 -9 9 -9 19 0 23 -45 11 -144 -11 -96 -43 -220 -61 -240 -15
-17 -10 -29 7 -15 53 44 98 209 108 394 1 6 18 11 39 13 34 3 37 1 37 -22 0
-18 -6 -26 -22 -29 l-23 -4 22 -2 c12 0 27 -10 33 -21 9 -17 21 -20 76 -20 48
0 65 3 61 13 -3 8 -22 11 -62 9 -68 -5 -73 14 -9 34 l39 13 -43 -2 c-32 -2
-41 1 -37 11 3 8 5 18 5 23 0 5 7 9 16 9 8 0 12 5 9 10 -3 6 -1 10 4 10 6 0
11 -3 11 -8 0 -4 15 -7 33 -7 26 0 31 -4 29 -19 -3 -14 1 -17 13 -12 9 3 28 9
41 12 55 14 5 43 -73 44 -48 0 -63 3 -63 14 0 10 16 17 48 21 64 9 74 13 66
26 -4 7 -24 9 -55 6 -43 -5 -49 -4 -49 12 0 20 -19 31 -52 31 -16 0 -19 -5
-15 -22z"/>
<path d="M566 543 c5 -10 10 -59 12 -110 l3 -91 -55 -7 c-67 -9 -64 -25 4 -25
l48 0 -5 -42 c-6 -53 -42 -133 -77 -172 -22 -25 -27 -26 -32 -12 -4 10 -4 39
-1 67 8 69 -2 73 -154 57 l-121 -12 6 -29 c3 -16 1 -49 -5 -74 -9 -33 -9 -47
-1 -55 18 -18 23 -6 30 68 8 74 25 93 50 53 11 -18 11 -23 -5 -36 -17 -13 -16
-14 10 -10 25 4 27 2 27 -34 0 -53 28 -54 32 -2 3 33 7 38 38 47 35 9 35 9 8
15 l-27 6 24 28 c39 45 55 31 55 -46 0 -48 -8 -63 -32 -68 -16 -4 -15 -6 3
-29 l19 -25 19 23 c11 12 23 22 28 22 5 0 25 14 46 31 37 31 67 79 92 148 l13
36 11 -27 c20 -51 104 -170 127 -180 16 -7 38 -8 66 -2 l43 10 -56 32 c-66 38
-138 111 -169 172 -27 52 -19 60 63 60 31 0 57 4 57 9 0 16 -33 22 -87 15
l-54 -6 3 103 3 104 -34 3 c-30 3 -33 1 -25 -15z m-216 -360 c-1 -5 -7 -19
-14 -32 l-13 -23 -22 31 -22 31 35 0 c20 0 36 -3 36 -7z"/>
<path d="M670 463 c0 -5 13 -16 29 -26 47 -27 94 -19 59 11 -18 14 -88 26 -88
15z"/>
<path d="M302 340 c-77 -11 -79 -24 -3 -16 35 3 72 6 82 6 11 0 19 5 19 10 0
11 -20 11 -98 0z"/>
<path d="M273 293 l-52 -4 20 -34 c21 -36 18 -35 124 -19 28 4 61 45 47 59 -5
5 -41 5 -139 -2z m94 -18 c7 -21 6 -22 -49 -30 -44 -7 -48 -6 -48 13 0 17 8
22 38 25 20 2 41 4 45 5 4 1 10 -5 14 -13z"/>
</g>
</svg>
