<?xml version="1.0" standalone="no"?>
<!DOCTYPE svg PUBLIC "-//W3C//DTD SVG 20010904//EN"
 "http://www.w3.org/TR/2001/REC-SVG-20010904/DTD/svg10.dtd">
<svg version="1.0" xmlns="http://www.w3.org/2000/svg"
 width="96.000000pt" height="68.000000pt" viewBox="0 0 96.000000 68.000000"
 preserveAspectRatio="xMidYMid meet">
<metadata>
Created by potrace 1.16, written by Peter Selinger 2001-2019
</metadata>
<g transform="translate(0.000000,68.000000) scale(0.100000,-0.100000)"
fill="#000000" stroke="none">
<path d="M325 210 c-27 -5 -70 -9 -95 -9 l-45 -1 0 -82 c0 -54 4 -83 12 -85
11 -4 18 27 25 111 4 35 24 43 131 48 l72 3 3 -44 c2 -25 1 -55 -3 -69 -5 -20
-10 -23 -31 -18 -22 6 -24 4 -15 -12 39 -73 75 -41 84 75 4 55 2 80 -6 85 -14
9 -64 8 -132 -2z"/>
</g>
</svg>
