<?xml version="1.0" standalone="no"?>
<!DOCTYPE svg PUBLIC "-//W3C//DTD SVG 20010904//EN"
 "http://www.w3.org/TR/2001/REC-SVG-20010904/DTD/svg10.dtd">
<svg version="1.0" xmlns="http://www.w3.org/2000/svg"
 width="96.000000pt" height="68.000000pt" viewBox="0 0 96.000000 68.000000"
 preserveAspectRatio="xMidYMid meet">
<metadata>
Created by potrace 1.16, written by Peter Selinger 2001-2019
</metadata>
<g transform="translate(0.000000,68.000000) scale(0.100000,-0.100000)"
fill="#000000" stroke="none">
<path d="M660 276 c0 -37 -12 -46 -61 -46 -27 0 -29 3 -27 32 3 28 -1 34 -19
36 -21 3 -23 -1 -23 -37 l0 -41 -50 0 c-49 0 -66 -12 -34 -24 9 -3 31 -6 50
-6 19 0 34 -3 34 -7 0 -16 -52 -93 -72 -108 -30 -20 -10 -18 26 4 17 9 44 42
60 74 30 55 32 57 74 57 l42 0 0 -82 c0 -85 10 -122 25 -97 5 7 11 51 14 98
l6 86 70 5 c65 5 68 6 46 19 -16 9 -40 11 -74 8 l-49 -6 6 34 c6 33 5 35 -19
35 -22 0 -25 -4 -25 -34z"/>
</g>
</svg>
