<?xml version="1.0" standalone="no"?>
<!DOCTYPE svg PUBLIC "-//W3C//DTD SVG 20010904//EN"
 "http://www.w3.org/TR/2001/REC-SVG-20010904/DTD/svg10.dtd">
<svg version="1.0" xmlns="http://www.w3.org/2000/svg"
 width="96.000000pt" height="68.000000pt" viewBox="0 0 96.000000 68.000000"
 preserveAspectRatio="xMidYMid meet">
<metadata>
Created by potrace 1.16, written by Peter Selinger 2001-2019
</metadata>
<g transform="translate(0.000000,68.000000) scale(0.100000,-0.100000)"
fill="#000000" stroke="none">
<path d="M495 356 l7 -43 -53 -7 c-37 -5 -49 -10 -39 -16 8 -5 31 -6 52 -4 37
6 38 5 38 -24 l0 -30 -82 -9 c-59 -7 -77 -12 -64 -18 10 -4 103 -2 208 5 168
12 188 15 172 28 -15 11 -39 12 -106 8 l-88 -7 0 25 c0 25 2 26 92 42 57 9 34
26 -31 22 -56 -3 -56 -3 -56 26 0 20 -6 31 -20 37 -34 13 -36 10 -30 -35z"/>
</g>
</svg>
