<?xml version="1.0" standalone="no"?>
<!DOCTYPE svg PUBLIC "-//W3C//DTD SVG 20010904//EN"
 "http://www.w3.org/TR/2001/REC-SVG-20010904/DTD/svg10.dtd">
<svg version="1.0" xmlns="http://www.w3.org/2000/svg"
 width="96.000000pt" height="68.000000pt" viewBox="0 0 96.000000 68.000000"
 preserveAspectRatio="xMidYMid meet">
<metadata>
Created by potrace 1.16, written by Peter Selinger 2001-2019
</metadata>
<g transform="translate(0.000000,68.000000) scale(0.100000,-0.100000)"
fill="#000000" stroke="none">
<path d="M635 515 c-38 -7 -86 -10 -105 -8 l-35 5 -1 -114 c0 -119 -18 -197
-64 -288 -28 -54 -20 -60 18 -14 39 47 70 129 83 219 l11 72 76 7 c113 11 130
15 125 35 -2 9 7 27 21 40 32 30 32 35 1 49 -30 14 -38 14 -130 -3z m75 -27
c-1 -44 -12 -56 -68 -67 -87 -17 -92 -16 -92 24 0 28 4 36 23 39 12 3 31 7 42
9 45 10 95 7 95 -5z"/>
</g>
</svg>
