<?xml version="1.0" standalone="no"?>
<!DOCTYPE svg PUBLIC "-//W3C//DTD SVG 20010904//EN"
 "http://www.w3.org/TR/2001/REC-SVG-20010904/DTD/svg10.dtd">
<svg version="1.0" xmlns="http://www.w3.org/2000/svg"
 width="96.000000pt" height="68.000000pt" viewBox="0 0 96.000000 68.000000"
 preserveAspectRatio="xMidYMid meet">
<metadata>
Created by potrace 1.16, written by Peter Selinger 2001-2019
</metadata>
<g transform="translate(0.000000,68.000000) scale(0.100000,-0.100000)"
fill="#000000" stroke="none">
<path d="M713 83 c-63 -6 -52 -18 17 -20 57 -2 78 8 44 21 -9 3 -16 5 -17 4
-1 -1 -21 -3 -44 -5z"/>
<path d="M610 70 l-35 -7 38 -2 c20 0 37 4 37 9 0 6 -1 9 -2 9 -2 -1 -19 -5
-38 -9z"/>
<path d="M450 63 c-14 -3 -29 -9 -35 -15 -7 -7 2 -8 30 -4 22 4 60 8 85 8 41
0 42 1 15 8 -34 9 -58 9 -95 3z"/>
</g>
</svg>
