<?xml version="1.0" standalone="no"?>
<!DOCTYPE svg PUBLIC "-//W3C//DTD SVG 20010904//EN"
 "http://www.w3.org/TR/2001/REC-SVG-20010904/DTD/svg10.dtd">
<svg version="1.0" xmlns="http://www.w3.org/2000/svg"
 width="96.000000pt" height="68.000000pt" viewBox="0 0 96.000000 68.000000"
 preserveAspectRatio="xMidYMid meet">
<metadata>
Created by potrace 1.16, written by Peter Selinger 2001-2019
</metadata>
<g transform="translate(0.000000,68.000000) scale(0.100000,-0.100000)"
fill="#000000" stroke="none">
<path d="M291 591 c-9 -6 -10 -11 -2 -15 6 -4 11 -29 11 -56 l0 -49 -55 -6
c-30 -4 -55 -11 -55 -16 0 -4 26 -9 58 -11 56 -3 57 -3 57 -33 l0 -30 -94 -10
c-97 -10 -128 -28 -71 -40 29 -6 101 -1 142 11 10 3 18 -2 22 -16 3 -11 8 -29
12 -40 4 -17 -1 -20 -45 -26 -65 -9 -66 -24 -1 -24 l50 0 0 -39 c0 -35 -3 -39
-31 -45 -17 -3 -55 -6 -84 -6 -28 0 -55 -3 -58 -6 -8 -8 31 -44 47 -44 23 0
280 80 290 90 14 14 -7 12 -69 -4 -27 -8 -53 -12 -57 -9 -4 2 -6 18 -4 36 3
29 8 33 46 43 63 15 67 39 5 30 -45 -7 -47 -7 -44 16 2 13 0 29 -4 36 -10 15
1 19 66 25 53 5 62 10 52 28 -5 8 -25 9 -62 5 l-54 -6 3 32 c3 29 8 33 45 43
23 5 45 13 49 17 11 12 -39 27 -70 21 l-28 -6 7 47 c7 43 6 46 -20 56 -32 12
-36 12 -54 1z"/>
<path d="M658 574 c-3 -3 -2 -22 3 -42 5 -20 9 -56 9 -78 0 -47 0 -47 -103
-59 -96 -12 -82 -29 18 -22 l88 6 -7 -91 c-3 -50 -6 -109 -6 -131 l0 -40 -49
5 -50 5 27 -21 c15 -11 35 -31 45 -43 23 -29 42 -29 61 -1 13 18 16 53 16 169
l0 147 31 6 c17 3 46 6 63 6 29 1 30 1 12 15 -11 8 -36 15 -56 15 -20 0 -39 2
-42 5 -6 6 6 78 17 108 6 13 -1 21 -29 32 -40 17 -41 17 -48 9z"/>
<path d="M500 301 c0 -15 51 -71 65 -71 25 0 24 39 -2 60 -27 21 -63 27 -63
11z"/>
</g>
</svg>
