<?xml version="1.0" standalone="no"?>
<!DOCTYPE svg PUBLIC "-//W3C//DTD SVG 20010904//EN"
 "http://www.w3.org/TR/2001/REC-SVG-20010904/DTD/svg10.dtd">
<svg version="1.0" xmlns="http://www.w3.org/2000/svg"
 width="96.000000pt" height="68.000000pt" viewBox="0 0 96.000000 68.000000"
 preserveAspectRatio="xMidYMid meet">
<metadata>
Created by potrace 1.16, written by Peter Selinger 2001-2019
</metadata>
<g transform="translate(0.000000,68.000000) scale(0.100000,-0.100000)"
fill="#000000" stroke="none">
<path d="M648 299 c-10 -5 -18 -18 -18 -28 0 -15 -11 -20 -61 -25 -76 -9 -67
-30 10 -25 l51 4 0 -31 c0 -27 -4 -32 -31 -38 -17 -3 -44 -6 -60 -6 -16 0 -29
-5 -29 -11 0 -8 46 -9 158 -4 86 4 161 10 166 12 19 12 -24 23 -90 23 l-71 0
5 29 c4 30 23 41 74 41 15 0 30 5 33 10 4 6 -15 10 -50 10 -56 0 -57 1 -51 25
7 27 -6 32 -36 14z"/>
</g>
</svg>
