<?xml version="1.0" standalone="no"?>
<!DOCTYPE svg PUBLIC "-//W3C//DTD SVG 20010904//EN"
 "http://www.w3.org/TR/2001/REC-SVG-20010904/DTD/svg10.dtd">
<svg version="1.0" xmlns="http://www.w3.org/2000/svg"
 width="96.000000pt" height="68.000000pt" viewBox="0 0 96.000000 68.000000"
 preserveAspectRatio="xMidYMid meet">
<metadata>
Created by potrace 1.16, written by Peter Selinger 2001-2019
</metadata>
<g transform="translate(0.000000,68.000000) scale(0.100000,-0.100000)"
fill="#000000" stroke="none">
<path d="M554 214 l1 -69 50 2 c111 3 111 3 95 12 -8 5 -36 6 -62 2 -56 -9
-71 1 -57 37 5 14 7 39 3 56 -4 17 -9 25 -12 17 -3 -10 -6 -10 -12 -1 -4 7 -7
-18 -6 -56z"/>
<path d="M620 235 l-25 -14 30 3 c17 2 36 4 43 5 16 1 5 21 -11 21 -7 -1 -23
-7 -37 -15z"/>
<path d="M498 213 c7 -3 16 -2 19 1 4 3 -2 6 -13 5 -11 0 -14 -3 -6 -6z"/>
<path d="M460 141 c-9 -7 0 -9 29 -6 23 1 45 5 48 9 10 10 -61 7 -77 -3z"/>
</g>
</svg>
