<?xml version="1.0" standalone="no"?>
<!DOCTYPE svg PUBLIC "-//W3C//DTD SVG 20010904//EN"
 "http://www.w3.org/TR/2001/REC-SVG-20010904/DTD/svg10.dtd">
<svg version="1.0" xmlns="http://www.w3.org/2000/svg"
 width="96.000000pt" height="68.000000pt" viewBox="0 0 96.000000 68.000000"
 preserveAspectRatio="xMidYMid meet">
<metadata>
Created by potrace 1.16, written by Peter Selinger 2001-2019
</metadata>
<g transform="translate(0.000000,68.000000) scale(0.100000,-0.100000)"
fill="#000000" stroke="none">
<path d="M540 529 c-85 -10 -197 -18 -248 -17 l-93 2 -24 -42 c-22 -40 -24
-72 -4 -72 12 0 48 40 54 60 4 14 26 20 93 28 138 18 363 35 369 28 4 -3 -4
-17 -17 -31 -27 -29 -21 -30 60 -11 30 7 55 17 54 22 -1 12 -64 54 -78 53 -6
-1 -81 -10 -166 -20z"/>
</g>
</svg>
