<?xml version="1.0" standalone="no"?>
<!DOCTYPE svg PUBLIC "-//W3C//DTD SVG 20010904//EN"
 "http://www.w3.org/TR/2001/REC-SVG-20010904/DTD/svg10.dtd">
<svg version="1.0" xmlns="http://www.w3.org/2000/svg"
 width="96.000000pt" height="68.000000pt" viewBox="0 0 96.000000 68.000000"
 preserveAspectRatio="xMidYMid meet">
<metadata>
Created by potrace 1.16, written by Peter Selinger 2001-2019
</metadata>
<g transform="translate(0.000000,68.000000) scale(0.100000,-0.100000)"
fill="#000000" stroke="none">
<path d="M560 279 c-30 -5 -111 -10 -180 -11 l-125 -3 1 -110 c2 -139 1 -135
18 -135 10 0 15 27 21 110 l7 110 31 2 c18 0 43 2 57 3 194 15 263 16 271 3
11 -17 11 -149 0 -167 -5 -8 -18 -12 -30 -8 -12 3 -21 2 -21 -2 0 -12 55 -61
68 -61 20 0 44 60 38 93 -3 16 -1 59 5 95 11 59 10 67 -7 79 -20 14 -70 15
-154 2z"/>
</g>
</svg>
