<?xml version="1.0" standalone="no"?>
<!DOCTYPE svg PUBLIC "-//W3C//DTD SVG 20010904//EN"
 "http://www.w3.org/TR/2001/REC-SVG-20010904/DTD/svg10.dtd">
<svg version="1.0" xmlns="http://www.w3.org/2000/svg"
 width="96.000000pt" height="68.000000pt" viewBox="0 0 96.000000 68.000000"
 preserveAspectRatio="xMidYMid meet">
<metadata>
Created by potrace 1.16, written by Peter Selinger 2001-2019
</metadata>
<g transform="translate(0.000000,68.000000) scale(0.100000,-0.100000)"
fill="#000000" stroke="none">
<path d="M580 423 c-52 -8 -95 -15 -96 -16 -6 -10 13 -151 21 -150 6 2 12 33
15 70 l5 68 50 7 c28 3 69 7 93 7 l42 1 0 -66 c0 -66 0 -66 -25 -60 l-25 6 22
-25 c42 -49 64 -27 78 76 13 107 6 111 -180 82z"/>
</g>
</svg>
