<?xml version="1.0" standalone="no"?>
<!DOCTYPE svg PUBLIC "-//W3C//DTD SVG 20010904//EN"
 "http://www.w3.org/TR/2001/REC-SVG-20010904/DTD/svg10.dtd">
<svg version="1.0" xmlns="http://www.w3.org/2000/svg"
 width="96.000000pt" height="68.000000pt" viewBox="0 0 96.000000 68.000000"
 preserveAspectRatio="xMidYMid meet">
<metadata>
Created by potrace 1.16, written by Peter Selinger 2001-2019
</metadata>
<g transform="translate(0.000000,68.000000) scale(0.100000,-0.100000)"
fill="#000000" stroke="none">
<path d="M206 542 c-2 -4 -1 -14 5 -22 5 -8 9 -68 9 -132 l0 -117 -35 -7 c-20
-3 -38 -5 -40 -3 -2 2 3 27 10 54 12 47 12 51 -7 67 -25 22 -37 16 -31 -16 3
-14 -3 -48 -12 -76 -25 -74 -14 -83 72 -54 38 12 87 25 111 28 37 6 42 4 42
-14 0 -37 29 -22 35 18 3 20 10 61 15 91 11 58 5 71 -33 71 -14 0 -17 -5 -12
-21 4 -11 4 -42 0 -70 -6 -41 -11 -50 -32 -55 -42 -11 -46 4 -37 131 l9 117
-23 9 c-29 11 -39 11 -46 1z"/>
</g>
</svg>
