<?xml version="1.0" standalone="no"?>
<!DOCTYPE svg PUBLIC "-//W3C//DTD SVG 20010904//EN"
 "http://www.w3.org/TR/2001/REC-SVG-20010904/DTD/svg10.dtd">
<svg version="1.0" xmlns="http://www.w3.org/2000/svg"
 width="96.000000pt" height="68.000000pt" viewBox="0 0 96.000000 68.000000"
 preserveAspectRatio="xMidYMid meet">
<metadata>
Created by potrace 1.16, written by Peter Selinger 2001-2019
</metadata>
<g transform="translate(0.000000,68.000000) scale(0.100000,-0.100000)"
fill="#000000" stroke="none">
<path d="M255 444 c-28 -8 -69 -12 -92 -10 -24 3 -43 4 -43 1 0 -2 9 -19 20
-37 11 -18 20 -45 20 -60 0 -15 5 -39 11 -55 10 -26 12 -27 23 -10 9 11 27 17
52 17 65 0 82 8 76 36 -2 13 5 42 17 65 31 60 3 77 -84 53z m31 -46 c-3 -13
-6 -35 -6 -50 0 -23 -5 -28 -36 -34 -43 -8 -50 -1 -59 53 -7 46 -3 50 69 52
35 1 38 -1 32 -21z"/>
</g>
</svg>
