<?xml version="1.0" standalone="no"?>
<!DOCTYPE svg PUBLIC "-//W3C//DTD SVG 20010904//EN"
 "http://www.w3.org/TR/2001/REC-SVG-20010904/DTD/svg10.dtd">
<svg version="1.0" xmlns="http://www.w3.org/2000/svg"
 width="96.000000pt" height="68.000000pt" viewBox="0 0 96.000000 68.000000"
 preserveAspectRatio="xMidYMid meet">
<metadata>
Created by potrace 1.16, written by Peter Selinger 2001-2019
</metadata>
<g transform="translate(0.000000,68.000000) scale(0.100000,-0.100000)"
fill="#000000" stroke="none">
<path d="M680 578 c-19 -5 -61 -13 -95 -16 -35 -4 -58 -11 -55 -17 5 -11 8
-11 118 0 l72 8 0 -190 c0 -221 0 -220 -75 -197 l-49 14 54 -49 c30 -28 63
-50 72 -51 10 0 26 12 35 27 15 23 19 58 23 218 3 104 9 198 14 207 6 13 0 22
-26 38 -37 22 -39 22 -88 8z"/>
</g>
</svg>
