<?xml version="1.0" standalone="no"?>
<!DOCTYPE svg PUBLIC "-//W3C//DTD SVG 20010904//EN"
 "http://www.w3.org/TR/2001/REC-SVG-20010904/DTD/svg10.dtd">
<svg version="1.0" xmlns="http://www.w3.org/2000/svg"
 width="96.000000pt" height="68.000000pt" viewBox="0 0 96.000000 68.000000"
 preserveAspectRatio="xMidYMid meet">
<metadata>
Created by potrace 1.16, written by Peter Selinger 2001-2019
</metadata>
<g transform="translate(0.000000,68.000000) scale(0.100000,-0.100000)"
fill="#000000" stroke="none">
<path d="M318 516 l5 -76 -36 0 c-64 0 -77 -15 -17 -20 54 -5 55 -6 58 -37 2
-25 8 -33 22 -33 14 0 20 9 22 37 2 25 8 39 18 40 62 8 90 15 90 25 0 7 -18 9
-50 6 l-50 -5 0 63 c0 45 -4 64 -12 64 -7 0 -22 3 -34 6 -20 5 -21 3 -16 -70z"/>
</g>
</svg>
