<?xml version="1.0" standalone="no"?>
<!DOCTYPE svg PUBLIC "-//W3C//DTD SVG 20010904//EN"
 "http://www.w3.org/TR/2001/REC-SVG-20010904/DTD/svg10.dtd">
<svg version="1.0" xmlns="http://www.w3.org/2000/svg"
 width="96.000000pt" height="68.000000pt" viewBox="0 0 96.000000 68.000000"
 preserveAspectRatio="xMidYMid meet">
<metadata>
Created by potrace 1.16, written by Peter Selinger 2001-2019
</metadata>
<g transform="translate(0.000000,68.000000) scale(0.100000,-0.100000)"
fill="#000000" stroke="none">
<path d="M503 609 c17 -62 49 -230 46 -233 -2 -2 -92 -14 -199 -26 -107 -12
-208 -25 -225 -29 l-30 -8 30 -12 c25 -11 62 -7 229 19 109 17 200 29 201 28
12 -12 54 -163 48 -169 -4 -4 -35 -24 -68 -44 -44 -27 -52 -35 -31 -30 16 3
48 15 70 26 22 10 45 19 50 19 6 0 24 -18 40 -40 38 -51 93 -89 140 -97 l36
-6 0 39 c0 22 -3 57 -7 78 l-6 39 -16 -43 c-9 -24 -21 -45 -28 -47 -13 -5 -89
60 -104 89 -8 15 -1 29 41 76 l51 57 -22 18 c-34 27 -59 22 -59 -12 0 -15 -10
-41 -22 -56 l-22 -28 -22 59 c-32 84 -32 84 30 84 30 0 57 4 61 9 9 15 -33 24
-80 17 l-42 -7 -7 47 c-3 26 -6 77 -6 115 0 62 -2 68 -22 74 -64 18 -61 19
-55 -6z"/>
<path d="M640 510 c0 -14 69 -60 89 -60 23 0 30 34 9 46 -18 11 -98 22 -98 14z"/>
</g>
</svg>
