<?xml version="1.0" standalone="no"?>
<!DOCTYPE svg PUBLIC "-//W3C//DTD SVG 20010904//EN"
 "http://www.w3.org/TR/2001/REC-SVG-20010904/DTD/svg10.dtd">
<svg version="1.0" xmlns="http://www.w3.org/2000/svg"
 width="96.000000pt" height="68.000000pt" viewBox="0 0 96.000000 68.000000"
 preserveAspectRatio="xMidYMid meet">
<metadata>
Created by potrace 1.16, written by Peter Selinger 2001-2019
</metadata>
<g transform="translate(0.000000,68.000000) scale(0.100000,-0.100000)"
fill="#000000" stroke="none">
<path d="M620 313 c-41 -8 -92 -12 -114 -9 l-38 4 6 -36 c3 -20 6 -68 6 -107
0 -79 12 -110 33 -84 8 11 37 18 98 22 85 7 86 7 97 -18 14 -30 33 -32 49 -6
17 27 19 216 3 236 -15 18 -39 17 -140 -2z m88 -19 c16 -5 22 -14 22 -34 0
-26 -2 -27 -62 -33 -35 -4 -82 -9 -105 -13 l-43 -7 0 36 c0 35 0 35 58 45 72
12 101 13 130 6z m20 -121 l-3 -38 -95 -7 c-52 -3 -98 -4 -102 -2 -5 3 -8 18
-8 33 0 28 1 28 88 38 48 5 95 11 105 11 15 2 18 -4 15 -35z"/>
</g>
</svg>
