<?xml version="1.0" standalone="no"?>
<!DOCTYPE svg PUBLIC "-//W3C//DTD SVG 20010904//EN"
 "http://www.w3.org/TR/2001/REC-SVG-20010904/DTD/svg10.dtd">
<svg version="1.0" xmlns="http://www.w3.org/2000/svg"
 width="96.000000pt" height="68.000000pt" viewBox="0 0 96.000000 68.000000"
 preserveAspectRatio="xMidYMid meet">
<metadata>
Created by potrace 1.16, written by Peter Selinger 2001-2019
</metadata>
<g transform="translate(0.000000,68.000000) scale(0.100000,-0.100000)"
fill="#000000" stroke="none">
<path d="M530 600 c-19 -5 -91 -13 -159 -19 -68 -6 -126 -12 -128 -15 -13 -13
13 -26 54 -26 l46 0 -7 -32 c-9 -44 -59 -146 -92 -185 -15 -18 -22 -33 -17
-33 13 0 94 78 109 105 10 17 15 18 30 7 11 -7 27 -15 37 -18 38 -13 16 -44
-49 -69 l-39 -15 40 6 c22 3 50 12 62 20 29 18 36 18 63 -6 13 -11 27 -20 32
-20 17 0 7 38 -13 52 l-21 14 28 33 c51 61 42 66 -94 46 l-53 -8 10 26 c6 14
16 35 23 47 11 17 11 22 -2 30 -12 8 -10 10 10 10 14 1 55 4 93 9 72 8 77 4
52 -39 -26 -45 -20 -50 54 -50 l70 0 -9 -31 c-18 -63 -44 -94 -78 -94 -37 0
-37 1 -15 -36 30 -51 64 -35 108 50 13 25 33 59 44 75 18 28 19 31 3 43 -9 7
-43 13 -74 13 -32 0 -58 4 -58 8 0 5 17 26 37 47 35 36 36 38 18 51 -21 15
-61 16 -115 4z m-50 -174 c0 -33 -34 -45 -71 -26 -32 18 -21 30 26 30 25 0 45
-2 45 -4z"/>
<path d="M475 254 c-66 -7 -151 -13 -190 -14 -68 -1 -69 -1 -49 -18 12 -10 28
-41 37 -70 l15 -52 -79 0 c-76 0 -105 -13 -56 -25 13 -4 143 -2 288 4 145 6
290 11 322 11 31 0 57 4 57 9 0 18 -70 33 -121 27 -49 -6 -50 -6 -44 16 4 13
17 40 29 61 20 38 20 39 1 53 -22 16 -47 16 -210 -2z m16 -21 c0 -5 2 -25 4
-47 6 -52 -9 -76 -44 -76 -29 0 -29 1 -33 60 -3 59 -3 59 27 63 17 2 33 5 38
5 4 1 7 -1 8 -5z m129 -7 c0 -7 -3 -34 -6 -60 l-7 -46 -49 0 c-44 0 -49 2 -43
18 3 9 11 36 18 60 11 40 13 42 49 42 25 0 38 -5 38 -14z m-234 -61 c14 -55 9
-65 -37 -65 -23 0 -27 6 -41 55 -8 30 -13 57 -9 60 3 3 21 5 40 3 33 -3 36 -6
47 -53z"/>
</g>
</svg>
