<?xml version="1.0" standalone="no"?>
<!DOCTYPE svg PUBLIC "-//W3C//DTD SVG 20010904//EN"
 "http://www.w3.org/TR/2001/REC-SVG-20010904/DTD/svg10.dtd">
<svg version="1.0" xmlns="http://www.w3.org/2000/svg"
 width="96.000000pt" height="68.000000pt" viewBox="0 0 96.000000 68.000000"
 preserveAspectRatio="xMidYMid meet">
<metadata>
Created by potrace 1.16, written by Peter Selinger 2001-2019
</metadata>
<g transform="translate(0.000000,68.000000) scale(0.100000,-0.100000)"
fill="#000000" stroke="none">
<path d="M555 545 c-49 -7 -99 -14 -109 -14 -15 -1 -17 -4 -8 -13 9 -9 42 -9
137 -1 114 10 146 16 134 27 -13 12 -75 12 -154 1z"/>
<path d="M565 464 c-44 -8 -92 -12 -107 -9 -28 5 -35 -3 -19 -20 5 -6 14 -27
21 -49 11 -35 14 -38 42 -32 17 3 61 6 99 6 56 0 69 3 69 15 0 9 11 28 25 43
20 21 22 29 12 39 -20 20 -59 22 -142 7z m75 -44 c0 -33 -7 -36 -98 -43 -48
-4 -53 -2 -58 20 -4 13 -4 26 -2 28 5 5 102 22 136 24 18 1 22 -4 22 -29z"/>
<path d="M255 431 c-11 -5 -48 -10 -83 -10 -62 -1 -62 -1 -48 -23 7 -13 19
-47 26 -76 13 -56 24 -70 43 -54 7 6 41 14 75 18 49 5 62 10 58 21 -3 8 4 37
15 64 12 27 19 52 16 55 -10 11 -82 14 -102 5z m22 -67 c-7 -44 -6 -42 -44
-50 -26 -5 -32 -3 -37 15 -3 12 -8 30 -11 40 -6 20 8 25 74 30 22 1 23 -2 18
-35z"/>
<path d="M700 319 c-70 -12 -285 -28 -308 -22 -19 4 -20 1 -19 -49 1 -29 -1
-75 -5 -103 -5 -28 -4 -56 2 -65 18 -29 31 6 37 99 4 64 10 91 19 91 7 0 19 2
27 5 8 4 24 -9 41 -35 14 -22 22 -41 16 -41 -5 -1 -14 -3 -20 -4 -5 -1 -18 -3
-27 -4 -17 -1 -17 -2 1 -12 10 -6 33 -9 52 -6 l34 6 0 -49 c0 -27 5 -52 11
-55 15 -10 19 -3 26 53 l6 50 53 7 c56 7 65 25 13 25 -36 0 -36 6 -1 37 23 20
25 25 12 33 -11 7 0 10 38 10 l52 0 0 -82 c0 -102 -5 -111 -50 -98 -18 5 -35
8 -37 6 -2 -1 15 -20 38 -41 l41 -38 23 24 c20 21 23 38 29 137 l6 113 -26 9
c-14 6 -28 9 -32 9 -4 -1 -27 -5 -52 -10z m-74 -45 c-3 -9 -6 -19 -6 -23 0
-16 -42 -51 -60 -51 -15 0 -20 7 -20 25 0 15 -6 25 -14 25 -7 0 -19 6 -25 14
-11 12 -5 15 31 19 96 8 100 8 94 -9z"/>
</g>
</svg>
