<?xml version="1.0" standalone="no"?>
<!DOCTYPE svg PUBLIC "-//W3C//DTD SVG 20010904//EN"
 "http://www.w3.org/TR/2001/REC-SVG-20010904/DTD/svg10.dtd">
<svg version="1.0" xmlns="http://www.w3.org/2000/svg"
 width="96.000000pt" height="68.000000pt" viewBox="0 0 96.000000 68.000000"
 preserveAspectRatio="xMidYMid meet">
<metadata>
Created by potrace 1.16, written by Peter Selinger 2001-2019
</metadata>
<g transform="translate(0.000000,68.000000) scale(0.100000,-0.100000)"
fill="#000000" stroke="none">
<path d="M554 585 c3 -9 6 -39 6 -66 0 -42 3 -49 20 -49 13 0 20 7 20 19 0 20
25 31 75 31 17 0 36 4 44 9 23 15 -19 22 -59 11 -48 -14 -48 -14 -52 23 -3 27
-7 33 -32 35 -23 3 -28 0 -22 -13z"/>
</g>
</svg>
