<?xml version="1.0" standalone="no"?>
<!DOCTYPE svg PUBLIC "-//W3C//DTD SVG 20010904//EN"
 "http://www.w3.org/TR/2001/REC-SVG-20010904/DTD/svg10.dtd">
<svg version="1.0" xmlns="http://www.w3.org/2000/svg"
 width="90.000000pt" height="92.000000pt" viewBox="0 0 90.000000 92.000000"
 preserveAspectRatio="xMidYMid meet">
<metadata>
Created by potrace 1.16, written by Peter Selinger 2001-2019
</metadata>
<g transform="translate(0.000000,92.000000) scale(0.100000,-0.100000)"
fill="#000000" stroke="none">
<path d="M366 833 c15 -33 17 -125 3 -134 -7 -4 -39 -11 -71 -14 -66 -8 -78
-17 -43 -33 17 -8 40 -9 72 -3 27 5 49 8 51 6 2 -2 5 -19 8 -38 l4 -34 -60
-12 c-33 -7 -60 -14 -60 -17 0 -16 53 -21 106 -8 32 7 77 14 99 14 49 0 72 12
53 27 -21 17 -41 20 -70 12 -27 -7 -28 -6 -28 30 l0 38 76 6 c42 3 79 8 82 12
10 10 -25 37 -49 37 -13 1 -44 -3 -68 -7 l-43 -8 3 59 c4 71 -3 84 -43 84 -25
0 -29 -3 -22 -17z"/>
<path d="M730 773 c0 -30 -54 -122 -102 -174 -27 -29 -47 -53 -45 -55 4 -5 70
37 103 66 33 28 114 123 114 133 0 11 -43 47 -57 47 -7 0 -13 -7 -13 -17z"/>
<path d="M113 734 c36 -70 97 -95 97 -40 0 29 -30 52 -79 62 l-33 7 15 -29z"/>
<path d="M40 571 c0 -5 18 -28 39 -52 37 -41 41 -43 56 -28 23 22 11 55 -25
74 -32 17 -70 20 -70 6z"/>
<path d="M716 563 c-3 -3 -6 -15 -6 -25 0 -28 -67 -124 -107 -155 -44 -34 -35
-41 19 -13 51 26 168 138 162 154 -6 16 -60 47 -68 39z"/>
<path d="M385 494 c-33 -8 -75 -11 -92 -8 -37 6 -39 3 -19 -29 11 -17 27 -89
27 -122 0 -2 11 -32 24 -65 15 -38 20 -62 13 -66 -5 -4 -39 -9 -74 -12 -35 -2
-64 -8 -64 -12 0 -3 11 -17 25 -30 24 -22 28 -23 58 -11 18 7 89 34 160 58
118 42 154 63 108 63 -10 0 -37 -7 -60 -15 -22 -8 -41 -13 -41 -11 0 2 12 24
26 50 21 38 24 49 14 61 -10 12 -9 15 4 15 18 0 22 15 6 25 -7 4 -2 23 14 51
l25 44 -22 15 c-25 18 -52 18 -132 -1z m76 -27 c-1 -4 -1 -20 -1 -36 0 -26 -5
-30 -47 -41 -27 -7 -56 -14 -65 -17 -15 -4 -18 3 -18 41 l0 45 48 6 c26 4 52
8 57 10 14 5 27 1 26 -8z m-21 -138 c0 -39 -23 -109 -35 -109 -8 0 -20 -2 -28
-5 -10 -5 -13 1 -9 25 3 24 -2 38 -23 60 -21 22 -25 31 -14 34 8 2 21 7 29 9
8 3 30 6 48 6 26 1 32 -3 32 -20z"/>
<path d="M163 378 c-20 -39 -57 -92 -80 -117 -44 -47 -46 -54 -19 -110 17 -38
33 -36 46 6 7 21 31 83 53 138 22 55 43 112 48 128 14 50 -9 28 -48 -45z"/>
<path d="M757 403 c-4 -3 -7 -16 -7 -27 0 -55 -111 -194 -227 -287 -81 -64
-81 -73 0 -33 82 41 152 100 240 202 l81 95 -32 28 c-33 30 -44 34 -55 22z"/>
</g>
</svg>
