<?xml version="1.0" standalone="no"?>
<!DOCTYPE svg PUBLIC "-//W3C//DTD SVG 20010904//EN"
 "http://www.w3.org/TR/2001/REC-SVG-20010904/DTD/svg10.dtd">
<svg version="1.0" xmlns="http://www.w3.org/2000/svg"
 width="96.000000pt" height="68.000000pt" viewBox="0 0 96.000000 68.000000"
 preserveAspectRatio="xMidYMid meet">
<metadata>
Created by potrace 1.16, written by Peter Selinger 2001-2019
</metadata>
<g transform="translate(0.000000,68.000000) scale(0.100000,-0.100000)"
fill="#000000" stroke="none">
<path d="M388 541 c-130 -14 -240 -29 -244 -33 -4 -5 -2 -8 4 -8 6 0 18 -7 26
-16 13 -13 16 -42 16 -167 0 -137 -4 -175 -25 -243 -9 -29 21 -58 49 -49 72
23 190 34 379 34 175 1 207 3 207 16 0 8 -12 21 -28 29 -24 12 -57 12 -262 -5
-129 -10 -243 -19 -252 -19 -16 0 -18 14 -18 159 0 87 3 179 6 204 8 55 -3 52
249 67 194 12 225 16 225 29 0 11 -56 32 -79 30 -9 -1 -123 -13 -253 -28z"/>
<path d="M441 459 c-6 -17 -27 -52 -47 -75 -35 -44 -35 -57 2 -29 10 8 22 15
27 15 9 0 8 -101 -2 -165 -9 -51 0 -95 19 -95 5 0 12 11 16 24 5 21 12 24 96
30 50 3 113 6 140 6 37 0 48 4 48 16 0 13 -11 15 -67 12 -67 -3 -68 -3 -68 22
0 23 4 25 48 28 63 4 60 22 -4 22 -43 0 -50 3 -47 18 2 11 18 21 46 27 48 12
46 25 -3 25 -38 0 -44 5 -38 31 4 15 14 19 49 19 23 0 45 4 48 9 8 13 -37 22
-73 15 -28 -6 -31 -4 -31 19 0 24 -16 37 -46 37 -12 0 -12 -4 -2 -22 7 -13 17
-26 23 -30 15 -11 4 -15 -62 -23 -70 -8 -77 -1 -38 36 25 24 33 49 16 49 -5 0
-16 3 -24 6 -10 3 -18 -5 -26 -27z m119 -103 c0 -26 -16 -36 -61 -36 -16 0
-29 -4 -29 -10 0 -5 20 -10 45 -10 38 0 45 -3 45 -20 0 -13 -7 -20 -19 -20
-10 0 -33 -3 -50 -6 l-32 -7 3 59 c3 56 4 59 33 65 57 12 65 10 65 -15z m0
-146 c0 -29 -1 -30 -50 -30 -49 0 -50 1 -50 30 0 29 1 30 50 30 49 0 50 -1 50
-30z"/>
<path d="M299 426 c24 -26 45 -33 55 -18 9 15 -10 32 -44 38 l-35 7 24 -27z"/>
<path d="M280 342 c0 -15 38 -44 49 -37 16 9 13 22 -6 29 -10 3 -24 9 -30 12
-7 3 -13 1 -13 -4z"/>
<path d="M324 226 c-45 -45 -50 -54 -41 -74 6 -12 15 -22 21 -21 6 0 27 34 47
75 19 41 33 73 30 72 -3 -1 -29 -24 -57 -52z"/>
</g>
</svg>
