<?xml version="1.0" standalone="no"?>
<!DOCTYPE svg PUBLIC "-//W3C//DTD SVG 20010904//EN"
 "http://www.w3.org/TR/2001/REC-SVG-20010904/DTD/svg10.dtd">
<svg version="1.0" xmlns="http://www.w3.org/2000/svg"
 width="96.000000pt" height="68.000000pt" viewBox="0 0 96.000000 68.000000"
 preserveAspectRatio="xMidYMid meet">
<metadata>
Created by potrace 1.16, written by Peter Selinger 2001-2019
</metadata>
<g transform="translate(0.000000,68.000000) scale(0.100000,-0.100000)"
fill="#000000" stroke="none">
<path d="M586 221 c-4 -6 8 -13 30 -17 46 -9 52 -26 25 -80 -24 -50 -40 -61
-70 -44 -27 14 -27 2 2 -33 21 -26 25 -28 50 -16 19 8 39 35 64 87 36 72 37
74 18 88 -10 8 -30 14 -44 14 -14 0 -36 3 -47 6 -12 3 -25 1 -28 -5z"/>
</g>
</svg>
