<?xml version="1.0" standalone="no"?>
<!DOCTYPE svg PUBLIC "-//W3C//DTD SVG 20010904//EN"
 "http://www.w3.org/TR/2001/REC-SVG-20010904/DTD/svg10.dtd">
<svg version="1.0" xmlns="http://www.w3.org/2000/svg"
 width="90.000000pt" height="92.000000pt" viewBox="0 0 90.000000 92.000000"
 preserveAspectRatio="xMidYMid meet">
<metadata>
Created by potrace 1.16, written by Peter Selinger 2001-2019
</metadata>
<g transform="translate(0.000000,92.000000) scale(0.100000,-0.100000)"
fill="#000000" stroke="none">
<path d="M386 821 c-3 -5 16 -42 43 -82 53 -79 53 -87 1 -109 -17 -7 -30 -16
-30 -21 0 -17 18 -17 58 1 l41 19 32 -37 32 -36 -24 -19 c-13 -11 -33 -25 -43
-33 -38 -26 -6 -27 44 -1 27 14 52 22 55 17 3 -5 33 -27 66 -49 57 -38 114
-53 132 -35 3 3 -3 25 -13 48 -10 22 -22 52 -28 66 -9 24 -10 23 -16 -17 -9
-52 -22 -54 -82 -12 l-45 30 32 40 c25 32 29 42 19 54 -18 22 -26 19 -50 -22
l-21 -36 -27 27 -27 27 33 27 c18 15 32 30 32 35 0 12 -40 8 -64 -8 -23 -15
-24 -14 -45 34 -11 27 -21 57 -21 65 0 27 -70 50 -84 27z"/>
<path d="M589 770 c47 -43 74 -48 79 -14 4 29 -17 43 -74 50 l-49 5 44 -41z"/>
<path d="M197 740 c-7 -61 -79 -203 -149 -295 -27 -37 -47 -69 -44 -72 8 -9
81 53 107 92 38 55 99 45 99 -16 0 -29 -5 -32 -72 -44 -57 -9 -46 -25 17 -25
l55 0 0 -80 0 -79 -52 -16 c-28 -8 -71 -15 -95 -15 -24 0 -43 -4 -43 -9 0 -10
57 -61 69 -61 3 0 17 7 29 16 13 9 76 37 140 63 63 26 117 52 120 59 5 17 -20
15 -78 -8 l-50 -20 0 80 0 80 45 11 c25 6 45 17 45 25 0 18 -35 27 -59 15 -17
-10 -19 -7 -23 29 -3 31 0 40 12 40 9 0 25 6 36 14 18 14 18 15 -7 21 -15 4
-50 0 -79 -9 -30 -9 -55 -14 -57 -12 -3 2 9 28 25 58 16 29 34 63 41 75 l12
23 51 -41 c53 -42 73 -41 66 2 -2 18 -16 28 -53 43 -27 11 -51 21 -53 22 -2 1
1 11 7 22 8 15 6 23 -13 41 -33 31 -43 26 -49 -29z"/>
<path d="M400 488 c0 -8 9 -31 20 -53 27 -52 25 -60 -10 -75 -53 -22 -31 -41
24 -20 23 8 27 5 50 -35 l24 -45 -41 -30 c-23 -17 -71 -45 -107 -62 -36 -17
-59 -33 -52 -36 24 -8 112 20 168 54 31 19 58 34 61 34 2 0 22 -18 44 -40 75
-74 172 -130 226 -130 24 0 25 3 18 33 -4 17 -11 53 -14 79 -10 63 -17 68 -25
18 -4 -24 -13 -43 -23 -47 -21 -8 -86 27 -143 77 l-45 40 25 22 c14 13 46 40
70 60 44 36 44 37 26 57 -26 29 -37 26 -65 -15 -24 -34 -88 -91 -95 -83 -18
24 -36 56 -36 65 0 6 14 17 30 24 31 13 41 40 14 40 -8 0 -25 -5 -36 -11 -24
-13 -38 1 -38 37 0 24 -14 38 -47 48 -16 5 -23 3 -23 -6z"/>
<path d="M551 463 c22 -29 42 -41 56 -36 34 13 -2 53 -48 53 -19 0 -20 -2 -8
-17z"/>
<path d="M300 357 c-5 -15 -14 -38 -20 -52 -9 -23 -8 -24 8 -15 9 5 28 19 41
30 l24 21 -21 21 -21 22 -11 -27z"/>
<path d="M97 299 c26 -43 46 -60 62 -50 33 21 -15 81 -65 81 -13 0 -12 -5 3
-31z"/>
</g>
</svg>
