<?xml version="1.0" standalone="no"?>
<!DOCTYPE svg PUBLIC "-//W3C//DTD SVG 20010904//EN"
 "http://www.w3.org/TR/2001/REC-SVG-20010904/DTD/svg10.dtd">
<svg version="1.0" xmlns="http://www.w3.org/2000/svg"
 width="96.000000pt" height="68.000000pt" viewBox="0 0 96.000000 68.000000"
 preserveAspectRatio="xMidYMid meet">
<metadata>
Created by potrace 1.16, written by Peter Selinger 2001-2019
</metadata>
<g transform="translate(0.000000,68.000000) scale(0.100000,-0.100000)"
fill="#000000" stroke="none">
<path d="M450 575 c0 -4 6 -12 13 -19 25 -26 62 -79 62 -90 0 -6 -13 -17 -30
-25 -36 -17 -17 -27 25 -12 36 12 51 8 69 -21 12 -20 11 -24 -15 -45 -32 -26
-18 -31 25 -9 25 13 30 12 76 -16 47 -29 142 -52 134 -32 -2 5 -11 26 -19 47
-16 43 -30 48 -30 12 0 -31 -22 -33 -67 -5 -39 23 -40 27 -12 56 12 12 18 27
14 33 -7 12 -35 15 -35 4 0 -5 -7 -17 -15 -27 -14 -19 -15 -19 -35 -1 -27 24
-25 42 5 49 14 4 25 11 25 17 0 7 -10 9 -27 4 -57 -15 -57 -15 -85 50 -10 23
-21 31 -46 33 -17 2 -32 0 -32 -3z"/>
<path d="M610 566 c0 -16 43 -46 65 -46 47 0 22 35 -33 46 -18 4 -32 4 -32 0z"/>
<path d="M287 553 c-4 -3 -7 -18 -7 -33 0 -35 -57 -128 -127 -207 -30 -35 -53
-66 -51 -69 3 -3 26 11 52 31 25 19 46 32 46 28 0 -4 7 3 16 15 21 30 68 27
72 -4 3 -19 -3 -23 -42 -28 -64 -10 -68 -26 -7 -26 l51 0 0 -54 c0 -63 -1 -63
-100 -72 -74 -7 -83 -22 -30 -49 26 -13 36 -12 136 26 149 54 156 58 149 68
-3 6 -26 4 -56 -5 -28 -9 -52 -14 -53 -12 -1 2 0 26 2 54 4 52 4 52 44 58 49
8 46 31 -4 31 -30 0 -34 3 -30 22 2 12 13 25 23 28 50 16 1 40 -51 25 -59 -17
-62 -13 -29 40 17 28 33 50 36 50 2 0 19 -11 37 -25 45 -34 68 -33 64 2 -2 22
-10 30 -42 38 -30 9 -40 17 -41 33 -1 12 -4 24 -6 26 -10 9 -46 16 -52 9z"/>
<path d="M466 342 c-3 -5 4 -24 16 -42 19 -32 19 -34 3 -47 -10 -7 -22 -10
-26 -7 -5 3 -9 0 -9 -7 0 -7 11 -9 34 -5 31 6 36 3 53 -27 l20 -33 -31 -20
c-17 -12 -53 -29 -81 -40 -81 -30 -24 -29 63 2 l78 27 50 -36 c67 -48 131 -77
173 -77 30 0 33 2 27 23 -3 12 -9 40 -13 62 l-6 40 -12 -35 c-10 -28 -17 -35
-37 -33 -25 1 -148 69 -148 81 0 4 25 23 55 42 34 21 54 40 53 50 -5 25 -39
24 -62 -2 -11 -14 -34 -33 -50 -43 -28 -19 -28 -19 -47 6 -17 22 -17 25 -2 37
9 6 23 12 30 12 7 0 13 5 13 11 0 8 -13 9 -40 5 -35 -5 -40 -4 -40 14 0 20
-55 57 -64 42z"/>
<path d="M600 326 c0 -16 38 -38 45 -26 9 14 -1 27 -25 33 -12 3 -20 0 -20 -7z"/>
<path d="M365 229 c-21 -39 -14 -46 24 -23 34 20 40 39 15 48 -22 9 -22 9 -39
-25z"/>
<path d="M180 223 c0 -13 53 -63 67 -63 19 0 16 41 -4 56 -19 14 -63 19 -63 7z"/>
</g>
</svg>
