<?xml version="1.0" standalone="no"?>
<!DOCTYPE svg PUBLIC "-//W3C//DTD SVG 20010904//EN"
 "http://www.w3.org/TR/2001/REC-SVG-20010904/DTD/svg10.dtd">
<svg version="1.0" xmlns="http://www.w3.org/2000/svg"
 width="96.000000pt" height="68.000000pt" viewBox="0 0 96.000000 68.000000"
 preserveAspectRatio="xMidYMid meet">
<metadata>
Created by potrace 1.16, written by Peter Selinger 2001-2019
</metadata>
<g transform="translate(0.000000,68.000000) scale(0.100000,-0.100000)"
fill="#000000" stroke="none">
<path d="M319 631 c0 -3 -2 -19 -2 -36 -2 -29 -4 -30 -62 -35 -55 -5 -58 -6
-38 -18 14 -8 37 -10 63 -6 36 6 40 4 40 -14 0 -22 -24 -32 -80 -32 -26 0 -31
-3 -20 -10 8 -5 34 -10 58 -10 32 0 42 -4 42 -16 0 -11 5 -14 16 -10 9 3 18 6
20 6 2 0 4 6 4 14 0 9 15 17 40 21 48 8 43 25 -6 25 -28 0 -35 4 -32 18 2 12
15 18 46 20 53 4 55 22 2 22 -37 0 -40 2 -40 29 0 23 -5 30 -25 33 -14 3 -25
2 -26 -1z"/>
</g>
</svg>
