<?xml version="1.0" standalone="no"?>
<!DOCTYPE svg PUBLIC "-//W3C//DTD SVG 20010904//EN"
 "http://www.w3.org/TR/2001/REC-SVG-20010904/DTD/svg10.dtd">
<svg version="1.0" xmlns="http://www.w3.org/2000/svg"
 width="96.000000pt" height="68.000000pt" viewBox="0 0 96.000000 68.000000"
 preserveAspectRatio="xMidYMid meet">
<metadata>
Created by potrace 1.16, written by Peter Selinger 2001-2019
</metadata>
<g transform="translate(0.000000,68.000000) scale(0.100000,-0.100000)"
fill="#000000" stroke="none">
<path d="M545 117 c-10 -19 -30 -42 -46 -53 -15 -10 -26 -20 -24 -22 7 -7 105
70 99 79 -3 5 -2 8 3 7 4 -2 9 2 11 7 2 6 -3 11 -11 13 -7 1 -22 -12 -32 -31z"/>
<path d="M712 117 c10 -8 14 -18 10 -22 -4 -5 -2 -5 4 -2 7 4 15 0 18 -9 4
-11 14 -14 27 -11 16 4 18 3 9 -8 -13 -15 0 -27 18 -16 9 5 8 13 -4 29 -8 12
-19 20 -24 17 -5 -3 -14 1 -22 8 -7 7 -22 16 -33 20 -18 7 -19 6 -3 -6z"/>
</g>
</svg>
