<?xml version="1.0" standalone="no"?>
<!DOCTYPE svg PUBLIC "-//W3C//DTD SVG 20010904//EN"
 "http://www.w3.org/TR/2001/REC-SVG-20010904/DTD/svg10.dtd">
<svg version="1.0" xmlns="http://www.w3.org/2000/svg"
 width="96.000000pt" height="68.000000pt" viewBox="0 0 96.000000 68.000000"
 preserveAspectRatio="xMidYMid meet">
<metadata>
Created by potrace 1.16, written by Peter Selinger 2001-2019
</metadata>
<g transform="translate(0.000000,68.000000) scale(0.100000,-0.100000)"
fill="#000000" stroke="none">
<path d="M310 426 c0 -29 -16 -36 -86 -36 -30 0 -54 -4 -54 -10 0 -5 4 -10 9
-10 5 0 16 -19 24 -42 14 -42 14 -43 55 -40 26 2 42 -1 42 -7 0 -6 9 -11 20
-11 11 0 20 7 20 15 0 11 11 15 38 16 32 0 92 16 69 18 -5 1 1 17 13 37 17 26
20 38 11 47 -12 12 -62 14 -103 4 -25 -7 -28 -5 -28 18 0 16 -6 25 -15 25 -9
0 -15 -9 -15 -24z m110 -52 c0 -32 -20 -54 -50 -54 -28 0 -30 3 -30 35 0 34 1
35 40 35 30 0 40 -4 40 -16z m-112 -26 c-3 -30 -6 -33 -37 -33 -26 0 -36 5
-42 23 -7 19 -4 24 14 32 12 5 32 9 45 9 20 1 23 -3 20 -31z"/>
</g>
</svg>
