<?xml version="1.0" standalone="no"?>
<!DOCTYPE svg PUBLIC "-//W3C//DTD SVG 20010904//EN"
 "http://www.w3.org/TR/2001/REC-SVG-20010904/DTD/svg10.dtd">
<svg version="1.0" xmlns="http://www.w3.org/2000/svg"
 width="96.000000pt" height="68.000000pt" viewBox="0 0 96.000000 68.000000"
 preserveAspectRatio="xMidYMid meet">
<metadata>
Created by potrace 1.16, written by Peter Selinger 2001-2019
</metadata>
<g transform="translate(0.000000,68.000000) scale(0.100000,-0.100000)"
fill="#000000" stroke="none">
<path d="M293 566 c3 -8 9 -30 12 -49 6 -30 4 -35 -17 -40 -12 -4 -35 -7 -50
-7 -15 0 -30 -4 -33 -10 -4 -6 15 -10 49 -10 l56 0 0 -54 c0 -97 -39 -163
-144 -246 -21 -16 -32 -30 -24 -30 20 0 134 76 148 98 8 12 9 -5 5 -63 -6 -85
-1 -115 20 -115 20 0 25 24 25 122 l0 90 40 -36 c45 -40 60 -45 60 -18 0 24
-30 51 -66 61 l-29 7 0 94 0 94 48 10 c61 14 61 32 0 28 l-46 -2 7 39 c6 41
-2 51 -46 51 -13 0 -18 -5 -15 -14z"/>
</g>
</svg>
