<?xml version="1.0" standalone="no"?>
<!DOCTYPE svg PUBLIC "-//W3C//DTD SVG 20010904//EN"
 "http://www.w3.org/TR/2001/REC-SVG-20010904/DTD/svg10.dtd">
<svg version="1.0" xmlns="http://www.w3.org/2000/svg"
 width="96.000000pt" height="68.000000pt" viewBox="0 0 96.000000 68.000000"
 preserveAspectRatio="xMidYMid meet">
<metadata>
Created by potrace 1.16, written by Peter Selinger 2001-2019
</metadata>
<g transform="translate(0.000000,68.000000) scale(0.100000,-0.100000)"
fill="#000000" stroke="none">
<path d="M613 558 c6 -80 -9 -130 -49 -165 -28 -25 -33 -33 -19 -33 9 0 35 18
57 40 22 22 43 40 47 40 4 0 22 -16 41 -35 34 -35 54 -43 65 -25 12 19 -15 48
-60 65 -25 10 -45 21 -45 24 0 4 27 17 60 30 61 24 68 36 36 55 -14 9 -23 5
-48 -26 -16 -21 -34 -38 -40 -38 -5 0 -9 19 -8 43 4 61 2 67 -20 67 -17 0 -19
-6 -17 -42z"/>
<path d="M410 509 c0 -81 0 -81 -39 -120 -21 -22 -37 -39 -34 -39 13 0 61 32
82 54 l25 26 27 -26 c15 -14 32 -23 38 -19 17 10 -5 42 -34 49 -38 10 -30 34
20 58 48 23 55 35 28 45 -11 4 -23 -3 -37 -20 -30 -38 -40 -34 -33 13 4 32 2
42 -13 50 -10 6 -21 10 -24 10 -3 0 -6 -37 -6 -81z"/>
<path d="M180 543 c0 -18 71 -83 89 -83 22 0 29 32 13 57 -15 23 -102 45 -102
26z"/>
<path d="M330 503 c0 -5 9 -19 20 -33 15 -20 22 -22 31 -13 10 10 9 17 -6 33
-18 20 -45 27 -45 13z"/>
<path d="M532 478 c6 -16 36 -34 44 -26 3 4 4 14 1 23 -7 17 -51 21 -45 3z"/>
<path d="M106 408 c48 -56 95 -76 107 -44 12 30 -43 66 -100 66 -26 0 -26 0
-7 -22z"/>
<path d="M525 329 c-119 -13 -161 -15 -167 -6 -9 14 -11 12 -32 -41 -25 -66 1
-90 31 -28 15 32 21 35 67 40 28 3 98 10 156 16 58 6 115 13 128 16 16 3 22 0
22 -14 0 -10 -5 -23 -12 -30 -16 -16 -1 -15 55 4 60 20 65 29 28 49 -36 18
-70 18 -276 -6z"/>
<path d="M225 266 c-18 -29 -47 -64 -62 -77 -42 -35 -45 -44 -29 -84 16 -37
43 -47 52 -17 3 9 16 42 29 72 49 115 64 160 55 160 -6 0 -26 -24 -45 -54z"/>
<path d="M508 258 c-3 -32 -4 -33 -55 -36 -29 -2 -53 -7 -53 -13 0 -10 10 -12
58 -9 22 1 32 -3 32 -13 0 -21 -50 -81 -93 -112 -48 -34 -42 -43 10 -16 42 21
107 87 125 126 6 14 22 25 40 29 58 12 68 8 68 -23 0 -49 -11 -89 -32 -110
-15 -17 -23 -19 -39 -10 -27 14 -36 4 -15 -16 9 -9 16 -21 16 -26 0 -17 49 -9
68 11 11 12 29 53 41 93 12 40 24 77 27 83 8 19 -43 33 -96 27 -41 -5 -51 -3
-50 8 5 30 -1 39 -24 39 -21 0 -25 -6 -28 -32z"/>
</g>
</svg>
