<?xml version="1.0" standalone="no"?>
<!DOCTYPE svg PUBLIC "-//W3C//DTD SVG 20010904//EN"
 "http://www.w3.org/TR/2001/REC-SVG-20010904/DTD/svg10.dtd">
<svg version="1.0" xmlns="http://www.w3.org/2000/svg"
 width="96.000000pt" height="68.000000pt" viewBox="0 0 96.000000 68.000000"
 preserveAspectRatio="xMidYMid meet">
<metadata>
Created by potrace 1.16, written by Peter Selinger 2001-2019
</metadata>
<g transform="translate(0.000000,68.000000) scale(0.100000,-0.100000)"
fill="#000000" stroke="none">
<path d="M608 535 c4 -80 -9 -116 -57 -156 l-36 -30 33 12 c18 6 48 27 67 46
l33 34 41 -36 c25 -23 47 -35 56 -31 33 12 5 51 -50 70 -22 8 -41 18 -42 23
-2 4 18 16 44 26 71 25 79 32 64 51 -20 24 -37 19 -68 -19 -15 -19 -32 -35
-36 -35 -5 0 -7 24 -5 53 3 49 2 52 -22 55 -25 3 -25 2 -22 -63z"/>
<path d="M532 478 c6 -16 36 -34 44 -26 3 4 4 14 1 23 -7 17 -51 21 -45 3z"/>
</g>
</svg>
