<?xml version="1.0" standalone="no"?>
<!DOCTYPE svg PUBLIC "-//W3C//DTD SVG 20010904//EN"
 "http://www.w3.org/TR/2001/REC-SVG-20010904/DTD/svg10.dtd">
<svg version="1.0" xmlns="http://www.w3.org/2000/svg"
 width="96.000000pt" height="68.000000pt" viewBox="0 0 96.000000 68.000000"
 preserveAspectRatio="xMidYMid meet">
<metadata>
Created by potrace 1.16, written by Peter Selinger 2001-2019
</metadata>
<g transform="translate(0.000000,68.000000) scale(0.100000,-0.100000)"
fill="#000000" stroke="none">
<path d="M616 520 c31 -46 64 -54 64 -15 0 17 -9 29 -30 40 -53 27 -63 20 -34
-25z"/>
<path d="M608 461 c-59 -9 -109 -19 -113 -23 -14 -14 39 -19 110 -9 42 6 98
11 124 11 27 0 63 3 80 6 25 5 29 9 20 20 -15 18 -80 16 -221 -5z"/>
</g>
</svg>
