<?xml version="1.0" standalone="no"?>
<!DOCTYPE svg PUBLIC "-//W3C//DTD SVG 20010904//EN"
 "http://www.w3.org/TR/2001/REC-SVG-20010904/DTD/svg10.dtd">
<svg version="1.0" xmlns="http://www.w3.org/2000/svg"
 width="90.000000pt" height="92.000000pt" viewBox="0 0 90.000000 92.000000"
 preserveAspectRatio="xMidYMid meet">
<metadata>
Created by potrace 1.16, written by Peter Selinger 2001-2019
</metadata>
<g transform="translate(0.000000,92.000000) scale(0.100000,-0.100000)"
fill="#000000" stroke="none">
<path d="M466 817 c-8 -53 -55 -155 -102 -220 -20 -27 -33 -51 -30 -54 2 -3
32 22 65 54 66 64 65 64 284 97 43 6 78 16 79 21 0 6 -12 16 -27 24 -27 13
-40 11 -239 -46 -15 -4 -13 4 15 57 l33 62 -28 24 c-15 13 -31 24 -35 24 -5 0
-12 -19 -15 -43z"/>
<path d="M174 798 c4 -13 10 -62 13 -109 l6 -86 -44 -11 c-24 -5 -63 -13 -87
-17 -72 -12 -45 -30 41 -29 73 1 75 1 67 -20 -30 -79 -64 -141 -113 -206 -32
-41 -57 -79 -57 -83 0 -15 58 32 98 80 22 25 50 66 62 90 12 23 24 43 27 43 6
0 -3 -112 -19 -227 -9 -64 -8 -88 2 -112 7 -17 16 -31 21 -31 21 0 27 47 30
217 2 101 6 183 9 183 2 0 18 -14 36 -31 33 -32 54 -32 54 1 0 20 -45 50 -75
50 -12 0 -15 8 -13 32 3 28 8 33 51 45 26 7 47 18 47 23 0 17 -41 31 -71 25
-27 -6 -29 -5 -25 17 3 12 7 50 11 83 5 59 5 61 -24 78 -40 24 -55 22 -47 -5z"/>
<path d="M580 589 c-53 -12 -103 -17 -133 -14 l-48 6 8 -38 c9 -43 11 -129 3
-137 -3 -3 -35 -9 -70 -13 l-65 -9 30 -15 c20 -10 42 -13 66 -9 l37 6 -19 -68
c-18 -62 -25 -118 -15 -118 2 0 23 9 47 20 34 15 66 20 137 20 100 0 103 -3
75 -52 -16 -26 -22 -29 -53 -25 -19 3 -44 9 -55 13 -12 5 -1 -14 30 -49 28
-31 58 -57 67 -57 23 0 63 55 79 108 7 23 17 42 23 42 7 0 29 -9 51 -20 50
-26 55 -25 55 4 0 30 -52 76 -87 76 -25 0 -25 2 -19 46 3 26 6 57 6 70 0 23 3
24 69 24 78 0 94 11 56 36 -19 12 -37 15 -71 10 l-46 -6 5 43 c3 23 8 54 12
69 6 23 3 29 -23 42 -37 19 -44 19 -152 -5z m105 -89 l0 -65 -75 -12 c-41 -6
-91 -12 -112 -12 l-36 -1 5 63 c3 34 6 63 7 64 5 6 164 31 186 30 24 -2 25 -5
25 -67z m-9 -172 c-4 -35 -8 -63 -9 -64 -1 -1 -55 -4 -120 -7 -103 -5 -118 -3
-113 10 3 8 9 32 12 54 4 22 12 43 18 47 14 8 94 19 165 21 l54 1 -7 -62z"/>
<path d="M535 493 c35 -55 65 -64 65 -19 0 23 -34 46 -67 46 -13 0 -13 -3 2
-27z"/>
<path d="M510 352 c0 -4 14 -25 31 -45 27 -32 34 -36 45 -25 19 18 7 53 -22
67 -29 13 -54 14 -54 3z"/>
</g>
</svg>
