<?xml version="1.0" standalone="no"?>
<!DOCTYPE svg PUBLIC "-//W3C//DTD SVG 20010904//EN"
 "http://www.w3.org/TR/2001/REC-SVG-20010904/DTD/svg10.dtd">
<svg version="1.0" xmlns="http://www.w3.org/2000/svg"
 width="96.000000pt" height="68.000000pt" viewBox="0 0 96.000000 68.000000"
 preserveAspectRatio="xMidYMid meet">
<metadata>
Created by potrace 1.16, written by Peter Selinger 2001-2019
</metadata>
<g transform="translate(0.000000,68.000000) scale(0.100000,-0.100000)"
fill="#000000" stroke="none">
<path d="M630 281 c0 -24 -5 -29 -31 -35 -17 -3 -42 -6 -55 -6 -13 0 -24 -4
-24 -10 0 -5 25 -10 55 -10 l55 0 0 -35 0 -35 -60 0 c-48 0 -60 -3 -60 -16 0
-13 17 -14 148 -8 81 4 158 10 172 14 l25 7 -30 12 c-19 8 -52 10 -92 5 l-63
-6 0 36 c0 34 2 36 33 36 44 0 78 10 71 21 -3 5 -27 9 -55 9 -46 0 -49 2 -49
25 0 18 -5 25 -20 25 -15 0 -20 -7 -20 -29z"/>
</g>
</svg>
