<?xml version="1.0" standalone="no"?>
<!DOCTYPE svg PUBLIC "-//W3C//DTD SVG 20010904//EN"
 "http://www.w3.org/TR/2001/REC-SVG-20010904/DTD/svg10.dtd">
<svg version="1.0" xmlns="http://www.w3.org/2000/svg"
 width="90.000000pt" height="92.000000pt" viewBox="0 0 90.000000 92.000000"
 preserveAspectRatio="xMidYMid meet">
<metadata>
Created by potrace 1.16, written by Peter Selinger 2001-2019
</metadata>
<g transform="translate(0.000000,92.000000) scale(0.100000,-0.100000)"
fill="#000000" stroke="none">
<path d="M487 801 l6 -79 -62 -7 c-51 -6 -60 -9 -50 -21 7 -8 31 -14 60 -14
47 0 49 -1 49 -29 0 -31 -18 -41 -74 -41 -25 0 -27 -2 -15 -16 10 -12 23 -14
51 -10 35 6 38 4 38 -18 0 -29 -10 -33 -105 -42 -41 -4 -75 -11 -75 -15 0 -5
10 -15 23 -23 19 -13 29 -13 77 0 75 19 80 19 80 -16 0 -31 0 -32 -85 -45
l-40 -7 26 -13 c18 -10 37 -11 62 -5 29 6 39 5 46 -7 7 -14 11 -13 30 6 14 14
34 21 59 21 20 0 54 3 75 6 29 5 35 9 26 20 -6 8 -8 26 -4 44 l7 30 74 0 c78
0 90 9 49 36 -18 12 -36 15 -65 10 -45 -7 -46 -5 -25 28 14 22 14 25 0 40 -26
25 -59 29 -109 12 -68 -23 -80 -22 -71 11 4 16 8 29 9 31 2 1 34 10 71 20 73
18 92 36 52 51 -17 7 -37 5 -63 -4 -65 -23 -68 -22 -61 40 5 53 4 56 -23 70
-16 8 -33 15 -39 15 -5 0 -7 -32 -4 -79z m173 -208 c0 -31 -14 -40 -67 -45
-52 -5 -53 -5 -53 23 0 29 11 34 88 38 24 1 32 -3 32 -16z m-19 -100 c-7 -28
-30 -39 -87 -42 -17 -1 -20 4 -16 28 3 25 10 31 36 34 75 9 75 9 67 -20z"/>
<path d="M176 832 c-3 -6 -2 -23 3 -38 5 -16 12 -66 15 -110 l6 -82 -67 -11
c-126 -22 -121 -20 -98 -38 15 -11 35 -13 83 -8 34 4 62 4 62 1 0 -3 -11 -30
-24 -60 -27 -61 -71 -129 -123 -190 -38 -46 -42 -62 -12 -45 35 18 108 98 141
153 l30 51 -6 -100 c-4 -55 -11 -128 -17 -161 -9 -52 -8 -67 5 -93 40 -75 56
-18 56 195 l0 176 33 -43 c37 -49 51 -54 55 -21 4 28 -18 56 -59 73 -26 10
-30 16 -27 48 3 34 5 36 61 49 85 21 67 64 -20 47 l-35 -6 3 92 4 93 -32 18
c-17 11 -34 15 -37 10z"/>
<path d="M455 351 c-6 -38 -7 -38 -58 -45 -29 -3 -69 -6 -89 -6 -48 0 -48 -14
-1 -32 27 -12 46 -13 75 -5 21 5 41 7 44 4 3 -3 -2 -20 -12 -37 -22 -36 -15
-44 48 -54 25 -4 38 -11 35 -19 -5 -17 -104 -65 -151 -73 -55 -9 -24 -26 34
-18 59 9 114 29 150 54 l29 21 85 -52 c47 -28 90 -48 96 -44 34 21 -13 78 -94
111 -47 19 -54 28 -36 39 6 4 22 29 35 56 l25 49 96 0 c104 0 117 10 56 41
-26 13 -41 15 -75 7 -42 -9 -80 -7 -126 8 -20 6 -23 4 -18 -9 4 -12 1 -17 -11
-17 -9 0 -35 -3 -57 -6 -33 -6 -38 -4 -27 7 19 20 15 35 -13 47 -34 16 -32 17
-40 -27z m145 -68 c0 -5 -11 -26 -23 -48 -20 -35 -28 -40 -56 -38 -17 0 -43 4
-57 7 -25 7 -25 7 -9 34 10 15 24 33 33 40 17 13 112 17 112 5z"/>
</g>
</svg>
