<?xml version="1.0" standalone="no"?>
<!DOCTYPE svg PUBLIC "-//W3C//DTD SVG 20010904//EN"
 "http://www.w3.org/TR/2001/REC-SVG-20010904/DTD/svg10.dtd">
<svg version="1.0" xmlns="http://www.w3.org/2000/svg"
 width="96.000000pt" height="68.000000pt" viewBox="0 0 96.000000 68.000000"
 preserveAspectRatio="xMidYMid meet">
<metadata>
Created by potrace 1.16, written by Peter Selinger 2001-2019
</metadata>
<g transform="translate(0.000000,68.000000) scale(0.100000,-0.100000)"
fill="#000000" stroke="none">
<path d="M526 545 c7 -54 6 -55 -18 -55 -14 0 -40 -3 -58 -6 -42 -9 -19 -24
38 -24 23 0 42 -4 42 -10 0 -18 39 -11 49 9 7 13 27 21 66 26 30 3 57 10 60
15 10 16 -43 23 -76 11 -49 -17 -52 -15 -46 29 4 32 2 42 -13 50 -42 23 -51
14 -44 -45z"/>
</g>
</svg>
