<?xml version="1.0" standalone="no"?>
<!DOCTYPE svg PUBLIC "-//W3C//DTD SVG 20010904//EN"
 "http://www.w3.org/TR/2001/REC-SVG-20010904/DTD/svg10.dtd">
<svg version="1.0" xmlns="http://www.w3.org/2000/svg"
 width="96.000000pt" height="68.000000pt" viewBox="0 0 96.000000 68.000000"
 preserveAspectRatio="xMidYMid meet">
<metadata>
Created by potrace 1.16, written by Peter Selinger 2001-2019
</metadata>
<g transform="translate(0.000000,68.000000) scale(0.100000,-0.100000)"
fill="#000000" stroke="none">
<path d="M299 623 c-1 -5 -2 -19 -3 -33 -1 -21 -6 -25 -38 -28 -21 -2 -38 -7
-38 -12 0 -13 37 -22 60 -15 16 5 20 2 20 -14 0 -19 -6 -21 -53 -21 l-54 0 25
-50 c22 -45 28 -50 58 -50 19 0 34 -4 34 -9 0 -10 -35 -16 -143 -26 -76 -7
-81 -25 -6 -25 50 0 59 -9 39 -40 -18 -29 6 -38 63 -23 28 8 78 15 109 16 53
2 58 4 67 29 6 16 6 28 1 28 -4 0 -15 3 -24 6 -12 4 -16 0 -16 -15 0 -17 -6
-21 -29 -21 -22 0 -28 4 -26 18 2 9 4 20 4 23 1 4 33 10 72 13 39 4 68 11 63
15 -5 5 -36 5 -69 1 -33 -4 -63 -5 -68 -3 -16 9 6 23 38 23 29 0 36 6 60 47
25 45 25 48 8 61 -17 13 -47 11 -85 -3 -12 -5 -18 -2 -18 8 0 9 15 18 37 24
50 12 56 33 9 33 -26 0 -36 4 -36 15 0 19 -58 45 -61 28z m118 -130 c2 -5 -1
-22 -6 -36 -8 -20 -18 -27 -36 -27 -16 0 -25 6 -25 15 0 8 7 15 15 15 8 0 15
5 15 10 0 6 -7 10 -15 10 -21 0 -19 18 3 22 25 6 45 3 49 -9z m-107 -18 c0
-10 -11 -15 -35 -15 -33 0 -43 8 -28 23 13 14 63 7 63 -8z m0 -40 c0 -10 -10
-15 -30 -15 -20 0 -30 5 -30 15 0 10 10 15 30 15 20 0 30 -5 30 -15z m0 -99
c0 -24 -16 -36 -51 -36 -12 0 -16 5 -13 14 3 8 0 17 -6 21 -17 11 8 25 43 25
22 0 27 -4 27 -24z"/>
<path d="M586 595 c-28 -8 -53 -12 -58 -9 -4 3 -8 -17 -8 -45 0 -27 -5 -53
-10 -56 -6 -4 -8 -11 -4 -16 8 -14 41 31 51 72 8 30 13 34 47 37 l38 3 -7 -39
c-8 -51 8 -64 77 -60 59 3 65 22 8 24 -19 1 -41 2 -47 3 -15 1 -17 37 -3 46
13 8 13 45 1 45 -5 0 -15 2 -23 4 -7 2 -35 -2 -62 -9z"/>
<path d="M600 454 c-25 -7 -57 -13 -72 -13 -16 -1 -28 -5 -28 -10 0 -5 12 -11
28 -14 15 -3 36 -13 47 -21 18 -13 18 -16 5 -30 -9 -9 -36 -23 -60 -30 l-45
-15 40 6 c22 3 53 11 68 19 26 12 32 11 78 -21 42 -31 56 -35 109 -35 33 0 60
4 60 9 0 4 -26 16 -57 25 -32 9 -75 24 -96 34 l-38 17 31 37 31 38 -26 10
c-14 5 -27 9 -28 9 -1 -1 -22 -7 -47 -15z m40 -27 c0 -29 -22 -37 -54 -20
l-31 17 25 7 c40 11 60 10 60 -4z"/>
<path d="M483 299 c-6 -6 -35 -19 -65 -29 l-53 -19 46 0 c31 -1 49 -6 52 -15
5 -11 -10 -16 -69 -21 -41 -4 -74 -12 -74 -17 0 -7 27 -8 75 -3 71 6 75 6 75
-13 0 -27 -11 -29 -157 -37 -116 -7 -152 -17 -100 -30 12 -3 63 -1 112 4 138
16 135 17 135 -25 0 -36 -1 -36 -32 -30 l-31 6 38 -37 c35 -34 39 -35 51 -19
7 10 16 42 20 72 l6 54 124 0 c68 0 124 4 124 9 0 5 -14 14 -30 21 -24 10 -50
10 -116 2 -93 -12 -104 -11 -104 18 0 15 10 20 55 25 76 10 79 25 5 25 -39 0
-66 5 -75 14 -12 12 -9 15 20 20 37 7 45 20 19 30 -23 9 -39 7 -51 -5z"/>
</g>
</svg>
