<?xml version="1.0" standalone="no"?>
<!DOCTYPE svg PUBLIC "-//W3C//DTD SVG 20010904//EN"
 "http://www.w3.org/TR/2001/REC-SVG-20010904/DTD/svg10.dtd">
<svg version="1.0" xmlns="http://www.w3.org/2000/svg"
 width="96.000000pt" height="68.000000pt" viewBox="0 0 96.000000 68.000000"
 preserveAspectRatio="xMidYMid meet">
<metadata>
Created by potrace 1.16, written by Peter Selinger 2001-2019
</metadata>
<g transform="translate(0.000000,68.000000) scale(0.100000,-0.100000)"
fill="#000000" stroke="none">
<path d="M496 286 c-6 -32 -8 -33 -68 -40 -33 -3 -77 -6 -97 -6 -31 -1 -33 -2
-17 -11 10 -7 45 -9 82 -6 65 4 76 -1 49 -23 -28 -23 -17 -38 35 -45 28 -4 50
-11 50 -16 0 -12 -56 -40 -125 -61 l-60 -18 61 4 c40 2 81 13 118 32 l57 28
80 -43 c56 -30 84 -40 91 -33 24 24 -6 48 -114 91 l-28 11 32 45 32 45 89 0
c78 0 88 2 77 15 -9 11 -33 15 -89 15 -51 1 -82 5 -95 15 -26 20 -36 19 -36
-4 0 -15 -9 -20 -41 -23 -45 -4 -56 3 -34 22 12 10 13 16 4 26 -21 26 -46 16
-53 -20z m114 -57 c0 -6 -10 -24 -21 -41 -20 -28 -25 -29 -68 -23 -25 4 -47 8
-49 10 -8 8 21 47 41 55 32 13 97 12 97 -1z"/>
</g>
</svg>
