<?xml version="1.0" standalone="no"?>
<!DOCTYPE svg PUBLIC "-//W3C//DTD SVG 20010904//EN"
 "http://www.w3.org/TR/2001/REC-SVG-20010904/DTD/svg10.dtd">
<svg version="1.0" xmlns="http://www.w3.org/2000/svg"
 width="96.000000pt" height="68.000000pt" viewBox="0 0 96.000000 68.000000"
 preserveAspectRatio="xMidYMid meet">
<metadata>
Created by potrace 1.16, written by Peter Selinger 2001-2019
</metadata>
<g transform="translate(0.000000,68.000000) scale(0.100000,-0.100000)"
fill="#000000" stroke="none">
<path d="M589 592 c-13 -9 -50 -26 -84 -39 -59 -23 -59 -23 -20 -21 38 3 40 2
40 -27 0 -30 0 -30 -77 -40 -100 -13 -114 -28 -20 -23 39 2 72 1 72 -3 0 -9
-86 -72 -128 -93 -19 -10 -32 -20 -29 -22 7 -7 113 42 149 68 31 21 39 14 35
-32 -1 -16 4 -26 16 -28 14 -3 17 4 17 47 0 28 2 51 5 51 7 0 63 -31 120 -65
45 -28 75 -32 75 -10 0 21 -34 39 -117 65 -40 13 -73 26 -73 30 0 4 41 10 90
12 50 3 94 8 97 12 19 19 -48 25 -138 12 l-55 -8 4 35 c4 32 8 36 48 46 50 13
55 23 20 39 -19 8 -29 7 -47 -6z"/>
<path d="M290 584 c0 -27 -67 -156 -100 -194 -17 -19 -46 -52 -66 -72 -61 -65
3 -43 74 25 l42 41 0 -85 c0 -47 -5 -111 -11 -143 -13 -63 1 -109 30 -104 20
4 28 56 32 221 2 97 0 130 -10 136 -9 6 -1 25 33 75 25 37 46 71 46 76 0 12
-41 40 -57 40 -7 0 -13 -7 -13 -16z"/>
<path d="M500 310 c0 -5 1 -11 2 -12 1 -2 -4 -13 -10 -25 -10 -19 -24 -22
-102 -29 -103 -8 -112 -26 -12 -24 37 1 70 1 75 1 4 -1 0 -12 -8 -25 -19 -28
-13 -33 43 -42 23 -4 42 -10 42 -15 0 -12 -54 -39 -120 -61 l-55 -18 55 3 c33
2 77 14 111 30 31 15 59 27 63 27 4 0 35 -16 69 -36 73 -43 96 -49 104 -27 8
21 -26 48 -88 70 -54 20 -57 27 -29 63 11 14 20 31 20 38 0 9 26 12 96 12 85
0 95 2 84 15 -9 11 -33 15 -87 15 -52 0 -81 5 -99 17 -24 15 -25 15 -31 -5 -4
-18 -13 -22 -44 -22 -37 0 -51 12 -29 25 8 5 7 11 -1 21 -13 16 -49 19 -49 4z
m110 -81 c0 -6 -9 -24 -21 -40 -20 -28 -24 -29 -68 -23 -25 4 -49 8 -53 10 -8
5 32 49 52 57 27 10 90 7 90 -4z"/>
</g>
</svg>
