<?xml version="1.0" standalone="no"?>
<!DOCTYPE svg PUBLIC "-//W3C//DTD SVG 20010904//EN"
 "http://www.w3.org/TR/2001/REC-SVG-20010904/DTD/svg10.dtd">
<svg version="1.0" xmlns="http://www.w3.org/2000/svg"
 width="96.000000pt" height="68.000000pt" viewBox="0 0 96.000000 68.000000"
 preserveAspectRatio="xMidYMid meet">
<metadata>
Created by potrace 1.16, written by Peter Selinger 2001-2019
</metadata>
<g transform="translate(0.000000,68.000000) scale(0.100000,-0.100000)"
fill="#000000" stroke="none">
<path d="M647 343 c-2 -5 -5 -30 -6 -57 -1 -27 -7 -58 -12 -68 -10 -18 -12
-17 -45 12 -19 16 -40 30 -46 30 -6 0 9 -18 33 -39 l44 -39 -25 -27 c-14 -15
-47 -39 -75 -52 l-50 -25 40 7 c41 7 109 38 120 54 3 5 26 -12 52 -40 42 -46
49 -49 94 -49 26 0 50 4 53 9 3 5 -20 20 -52 33 -77 34 -125 74 -113 96 5 9
14 43 21 74 11 46 11 60 0 73 -14 16 -26 19 -33 8z"/>
</g>
</svg>
