<?xml version="1.0" standalone="no"?>
<!DOCTYPE svg PUBLIC "-//W3C//DTD SVG 20010904//EN"
 "http://www.w3.org/TR/2001/REC-SVG-20010904/DTD/svg10.dtd">
<svg version="1.0" xmlns="http://www.w3.org/2000/svg"
 width="96.000000pt" height="68.000000pt" viewBox="0 0 96.000000 68.000000"
 preserveAspectRatio="xMidYMid meet">
<metadata>
Created by potrace 1.16, written by Peter Selinger 2001-2019
</metadata>
<g transform="translate(0.000000,68.000000) scale(0.100000,-0.100000)"
fill="#000000" stroke="none">
<path d="M660 494 c-25 -7 -62 -11 -82 -9 l-37 6 2 -68 2 -68 88 1 88 2 30 62
c16 34 29 63 29 65 0 4 -61 25 -69 24 -3 0 -26 -7 -51 -15z m60 -33 c0 -14
-10 -20 -43 -25 -24 -4 -56 -9 -70 -12 -23 -4 -27 -1 -27 19 0 21 6 24 63 33
71 11 77 10 77 -15z m-17 -61 c-4 -14 -14 -20 -32 -20 -14 0 -43 -3 -63 -6
-34 -6 -38 -4 -38 14 0 21 15 25 107 30 27 2 30 -1 26 -18z"/>
</g>
</svg>
