<?xml version="1.0" standalone="no"?>
<!DOCTYPE svg PUBLIC "-//W3C//DTD SVG 20010904//EN"
 "http://www.w3.org/TR/2001/REC-SVG-20010904/DTD/svg10.dtd">
<svg version="1.0" xmlns="http://www.w3.org/2000/svg"
 width="96.000000pt" height="68.000000pt" viewBox="0 0 96.000000 68.000000"
 preserveAspectRatio="xMidYMid meet">
<metadata>
Created by potrace 1.16, written by Peter Selinger 2001-2019
</metadata>
<g transform="translate(0.000000,68.000000) scale(0.100000,-0.100000)"
fill="#000000" stroke="none">
<path d="M655 275 c-33 -8 -93 -17 -132 -21 -106 -10 -110 -14 -89 -104 19
-87 31 -106 53 -85 8 9 33 15 56 15 23 0 79 3 124 7 64 4 81 9 73 18 -10 12 4
60 35 117 8 14 15 29 15 33 0 5 -65 36 -72 34 -2 -1 -30 -7 -63 -14z m45 -46
c0 -45 -22 -109 -39 -110 -9 0 -49 -4 -89 -8 -40 -4 -77 -4 -82 -1 -5 3 -12
31 -16 62 l-7 56 69 7 c38 3 74 8 79 10 6 2 27 4 48 4 31 1 37 -2 37 -20z"/>
</g>
</svg>
