<?xml version="1.0" standalone="no"?>
<!DOCTYPE svg PUBLIC "-//W3C//DTD SVG 20010904//EN"
 "http://www.w3.org/TR/2001/REC-SVG-20010904/DTD/svg10.dtd">
<svg version="1.0" xmlns="http://www.w3.org/2000/svg"
 width="96.000000pt" height="68.000000pt" viewBox="0 0 96.000000 68.000000"
 preserveAspectRatio="xMidYMid meet">
<metadata>
Created by potrace 1.16, written by Peter Selinger 2001-2019
</metadata>
<g transform="translate(0.000000,68.000000) scale(0.100000,-0.100000)"
fill="#000000" stroke="none">
<path d="M288 576 c-15 -13 -51 -32 -80 -41 -76 -25 -85 -39 -21 -32 45 5 54
3 63 -13 12 -22 14 -120 3 -120 -59 -4 -120 -14 -127 -20 -13 -13 39 -23 79
-16 19 4 35 3 35 -2 0 -16 -98 -149 -114 -155 -9 -4 -16 -11 -16 -17 0 -18 41
8 99 64 l54 51 -7 -40 c-22 -141 -15 -218 16 -187 9 9 14 51 16 127 2 63 6
115 10 115 3 0 18 -15 33 -32 21 -26 30 -30 40 -21 18 18 4 40 -41 63 -65 33
-55 51 38 65 59 9 43 29 -19 22 -27 -3 -50 -3 -52 1 -3 4 -1 31 2 59 5 33 3
57 -3 63 -13 13 6 28 47 37 34 7 42 19 27 38 -18 22 -51 18 -82 -9z"/>
<path d="M655 589 c-16 -5 -76 -10 -132 -12 -57 -1 -103 -4 -103 -8 0 -3 4 -9
9 -15 6 -5 16 -27 23 -49 13 -39 13 -39 61 -36 45 2 47 1 47 -23 0 -24 -4 -26
-40 -26 -22 0 -40 -4 -40 -10 0 -5 17 -10 38 -10 43 0 53 -6 46 -25 -4 -8 -34
-16 -85 -20 -87 -8 -108 -25 -29 -25 44 0 51 -3 64 -29 18 -34 13 -41 -28 -41
-27 -1 -29 -2 -13 -11 10 -6 33 -8 52 -5 28 6 33 3 38 -16 4 -12 4 -24 2 -26
-2 -2 -40 -6 -84 -9 -45 -3 -81 -10 -81 -14 0 -5 38 -9 85 -9 l85 0 0 -74 c0
-41 4 -77 9 -80 14 -9 31 51 31 110 l0 54 93 1 c50 0 101 4 112 8 19 8 18 9
-7 21 -20 9 -46 10 -105 3 -43 -6 -81 -9 -84 -7 -4 2 -4 15 -1 29 4 22 9 25
46 25 51 0 86 9 86 22 0 7 -18 9 -45 6 -49 -6 -57 3 -24 26 12 8 18 19 14 25
-4 7 12 11 47 12 29 1 67 5 83 9 30 7 28 9 -17 24 -10 3 -58 0 -108 -6 -50 -6
-94 -8 -97 -4 -15 15 22 36 63 36 34 0 44 4 44 16 0 13 -8 15 -51 9 -49 -7
-51 -6 -47 16 3 22 8 24 64 24 l61 0 32 50 c30 46 31 50 15 62 -20 15 -85 16
-129 2z m78 -16 c2 -5 0 -22 -5 -40 -7 -29 -12 -32 -43 -30 -40 3 -41 6 -20
47 11 21 23 30 40 30 13 0 26 -3 28 -7z m-105 -29 c3 -27 -10 -43 -38 -46 -20
-3 -24 1 -24 27 -1 22 5 32 19 36 29 10 40 5 43 -17z m-91 -21 l13 -33 -33 0
c-27 0 -36 6 -46 26 -14 32 -6 46 27 42 18 -2 29 -12 39 -35z m103 -195 c0
-35 -13 -48 -53 -55 -33 -5 -37 -3 -37 15 0 11 -4 24 -10 27 -22 14 -8 24 38
28 26 2 50 4 55 5 4 1 7 -8 7 -20z"/>
<path d="M370 488 c0 -6 -11 -26 -25 -44 l-25 -33 50 26 c55 28 60 37 31 53
-25 13 -31 13 -31 -2z"/>
<path d="M150 450 c0 -9 47 -60 55 -60 3 0 5 11 5 24 0 18 -8 27 -30 35 -17 5
-30 6 -30 1z"/>
</g>
</svg>
