<?xml version="1.0" standalone="no"?>
<!DOCTYPE svg PUBLIC "-//W3C//DTD SVG 20010904//EN"
 "http://www.w3.org/TR/2001/REC-SVG-20010904/DTD/svg10.dtd">
<svg version="1.0" xmlns="http://www.w3.org/2000/svg"
 width="96.000000pt" height="68.000000pt" viewBox="0 0 96.000000 68.000000"
 preserveAspectRatio="xMidYMid meet">
<metadata>
Created by potrace 1.16, written by Peter Selinger 2001-2019
</metadata>
<g transform="translate(0.000000,68.000000) scale(0.100000,-0.100000)"
fill="#000000" stroke="none">
<path d="M620 135 c-47 -7 -98 -10 -115 -7 l-29 5 21 -27 c12 -15 25 -41 28
-57 6 -26 11 -30 28 -25 12 3 61 9 109 13 65 4 85 9 78 18 -6 7 -1 20 15 38
l25 26 -22 15 c-25 18 -22 18 -138 1z m88 -26 c6 -32 -26 -49 -93 -49 -56 0
-64 3 -70 21 -4 11 -5 22 -3 24 5 5 129 23 148 21 8 -1 16 -9 18 -17z"/>
</g>
</svg>
