<?xml version="1.0" standalone="no"?>
<!DOCTYPE svg PUBLIC "-//W3C//DTD SVG 20010904//EN"
 "http://www.w3.org/TR/2001/REC-SVG-20010904/DTD/svg10.dtd">
<svg version="1.0" xmlns="http://www.w3.org/2000/svg"
 width="96.000000pt" height="68.000000pt" viewBox="0 0 96.000000 68.000000"
 preserveAspectRatio="xMidYMid meet">
<metadata>
Created by potrace 1.16, written by Peter Selinger 2001-2019
</metadata>
<g transform="translate(0.000000,68.000000) scale(0.100000,-0.100000)"
fill="#000000" stroke="none">
<path d="M540 584 c0 -61 -13 -74 -75 -74 -48 0 -55 2 -55 20 0 13 -12 26 -35
37 -45 21 -53 13 -26 -30 l21 -34 -53 -7 c-28 -3 -80 -6 -114 -6 -64 0 -84
-14 -37 -26 15 -4 95 1 178 10 83 9 217 16 298 16 148 0 184 9 133 32 -19 8
-50 9 -118 1 -50 -5 -94 -8 -96 -6 -3 2 11 19 29 38 18 19 32 36 29 38 -12 11
-50 27 -63 27 -12 0 -16 -10 -16 -36z"/>
</g>
</svg>
