<?xml version="1.0" standalone="no"?>
<!DOCTYPE svg PUBLIC "-//W3C//DTD SVG 20010904//EN"
 "http://www.w3.org/TR/2001/REC-SVG-20010904/DTD/svg10.dtd">
<svg version="1.0" xmlns="http://www.w3.org/2000/svg"
 width="96.000000pt" height="68.000000pt" viewBox="0 0 96.000000 68.000000"
 preserveAspectRatio="xMidYMid meet">
<metadata>
Created by potrace 1.16, written by Peter Selinger 2001-2019
</metadata>
<g transform="translate(0.000000,68.000000) scale(0.100000,-0.100000)"
fill="#000000" stroke="none">
<path d="M463 588 l2 -53 -50 -3 c-75 -5 -81 -22 -7 -22 l62 0 0 -30 c0 -24
-4 -30 -22 -31 -86 -2 -115 -19 -34 -19 57 0 57 0 54 -27 -3 -27 -6 -28 -65
-31 l-63 -3 0 -41 c0 -25 -7 -49 -17 -60 -26 -29 -3 -46 40 -30 53 21 77 24
77 8 0 -31 -68 -112 -128 -153 -77 -52 -52 -59 33 -8 63 38 97 72 120 122 15
31 35 44 35 23 0 -5 40 -50 88 -100 l89 -90 82 0 c103 0 103 13 -1 50 -84 29
-164 80 -223 140 -44 45 -43 46 56 54 91 7 112 0 104 -33 -8 -32 -23 -42 -52
-34 -13 3 -23 2 -23 -1 0 -14 45 -56 61 -56 21 0 27 8 56 80 21 51 22 56 6 67
-9 7 -23 13 -30 13 -14 0 -127 -15 -185 -25 -22 -4 -28 -1 -28 14 0 37 12 51
44 51 77 0 100 10 119 51 26 56 17 63 -69 55 l-74 -6 0 29 c0 27 3 29 48 35
81 11 102 17 102 28 0 7 -25 9 -76 4 l-76 -7 6 36 c6 32 4 36 -19 45 -42 16
-44 13 -42 -42z m157 -162 c0 -24 -17 -34 -60 -37 -42 -4 -45 -2 -48 23 -3 25
0 27 40 30 51 4 68 0 68 -16z m-162 -108 c-3 -27 -8 -33 -35 -39 -43 -8 -57 2
-49 37 6 25 11 29 47 32 40 3 40 2 37 -30z"/>
<path d="M220 469 c-14 -6 -47 -10 -75 -9 -70 2 -70 2 -50 -20 10 -11 26 -51
35 -88 18 -74 11 -70 106 -57 48 7 50 9 51 40 1 17 11 51 23 74 17 33 19 46 9
57 -13 16 -62 17 -99 3z m30 -48 c0 -50 -13 -81 -37 -87 -31 -8 -40 2 -49 53
-6 38 -4 42 17 46 54 10 69 7 69 -12z"/>
</g>
</svg>
