<?xml version="1.0" standalone="no"?>
<!DOCTYPE svg PUBLIC "-//W3C//DTD SVG 20010904//EN"
 "http://www.w3.org/TR/2001/REC-SVG-20010904/DTD/svg10.dtd">
<svg version="1.0" xmlns="http://www.w3.org/2000/svg"
 width="96.000000pt" height="68.000000pt" viewBox="0 0 96.000000 68.000000"
 preserveAspectRatio="xMidYMid meet">
<metadata>
Created by potrace 1.16, written by Peter Selinger 2001-2019
</metadata>
<g transform="translate(0.000000,68.000000) scale(0.100000,-0.100000)"
fill="#000000" stroke="none">
<path d="M598 555 c-13 -13 -312 -36 -348 -27 l-37 9 5 -107 5 -108 -62 -7
c-89 -10 -78 -35 16 -35 l45 0 -6 -42 c-4 -24 -12 -62 -18 -86 -13 -51 1 -95
30 -90 18 3 29 61 31 170 1 31 4 59 9 61 4 3 27 8 51 12 l44 7 -7 -89 c-5 -68
-3 -93 7 -107 22 -30 31 -4 37 103 l5 94 49 4 49 5 -7 -96 c-6 -83 -5 -97 9
-102 9 -4 19 -4 22 0 4 4 9 48 11 99 3 52 9 95 16 99 6 4 30 8 54 8 l42 0 0
-69 c0 -37 -3 -89 -6 -115 l-7 -47 -37 6 c-28 4 -37 2 -37 -9 0 -8 4 -13 8
-10 4 2 20 -11 35 -31 33 -44 57 -44 83 -1 18 29 21 49 21 155 l0 121 71 0
c51 0 70 3 67 12 -6 16 -64 31 -105 26 -41 -5 -46 8 -33 87 13 81 13 80 -15
93 -26 12 -87 16 -97 7z m46 -57 c3 -13 6 -50 6 -84 l0 -61 -55 -2 -55 -2 0
85 0 86 49 0 c42 0 49 -3 55 -22z m-144 -67 c0 -87 -3 -91 -66 -91 l-35 0 3
85 2 85 48 0 48 0 0 -79z m-140 -15 l0 -84 -45 -4 -45 -3 0 82 c0 81 0 82 28
86 66 10 62 14 62 -77z"/>
</g>
</svg>
