<?xml version="1.0" standalone="no"?>
<!DOCTYPE svg PUBLIC "-//W3C//DTD SVG 20010904//EN"
 "http://www.w3.org/TR/2001/REC-SVG-20010904/DTD/svg10.dtd">
<svg version="1.0" xmlns="http://www.w3.org/2000/svg"
 width="96.000000pt" height="68.000000pt" viewBox="0 0 96.000000 68.000000"
 preserveAspectRatio="xMidYMid meet">
<metadata>
Created by potrace 1.16, written by Peter Selinger 2001-2019
</metadata>
<g transform="translate(0.000000,68.000000) scale(0.100000,-0.100000)"
fill="#000000" stroke="none">
<path d="M335 200 c33 -35 45 -38 45 -10 0 21 -27 40 -56 40 -14 0 -12 -6 11
-30z"/>
<path d="M240 170 c24 -34 50 -39 50 -10 0 20 -27 40 -55 40 -14 0 -13 -4 5
-30z"/>
<path d="M110 184 c0 -17 54 -94 66 -94 23 0 28 28 11 54 -14 21 -77 54 -77
40z"/>
</g>
</svg>
