<?xml version="1.0" standalone="no"?>
<!DOCTYPE svg PUBLIC "-//W3C//DTD SVG 20010904//EN"
 "http://www.w3.org/TR/2001/REC-SVG-20010904/DTD/svg10.dtd">
<svg version="1.0" xmlns="http://www.w3.org/2000/svg"
 width="96.000000pt" height="68.000000pt" viewBox="0 0 96.000000 68.000000"
 preserveAspectRatio="xMidYMid meet">
<metadata>
Created by potrace 1.16, written by Peter Selinger 2001-2019
</metadata>
<g transform="translate(0.000000,68.000000) scale(0.100000,-0.100000)"
fill="#000000" stroke="none">
<path d="M231 555 c-13 -30 -27 -55 -32 -55 -5 0 -9 -5 -9 -12 0 -7 -12 -24
-27 -40 -39 -41 -20 -47 32 -10 27 19 59 32 78 33 64 1 190 24 194 35 7 20
-57 24 -125 9 -36 -9 -67 -13 -70 -11 -2 3 5 18 17 34 26 37 26 48 2 62 -31
16 -35 13 -60 -45z"/>
<path d="M585 583 c-12 -53 -47 -148 -71 -190 -28 -49 -22 -55 17 -17 20 19
41 28 73 31 l46 4 0 -43 c0 -45 -14 -115 -24 -126 -4 -3 -23 11 -44 31 -58 57
-82 48 -27 -10 25 -26 45 -52 45 -59 0 -16 -58 -64 -92 -76 -29 -10 -38 -28
-15 -28 8 0 41 14 74 30 l60 30 37 -35 c36 -34 41 -35 112 -35 43 0 74 4 74
10 0 6 -6 10 -13 10 -16 0 -153 65 -170 81 -10 10 -9 23 6 68 11 31 20 79 21
108 l1 52 48 6 c28 4 45 11 41 17 -6 10 -27 9 -169 -8 -27 -3 -45 -2 -39 3 6
4 25 37 42 72 29 60 30 66 15 83 -23 26 -42 22 -48 -9z"/>
<path d="M273 415 c-40 -6 -70 -8 -67 -3 3 4 0 8 -6 8 -8 0 -9 -11 -4 -32 8
-39 8 -84 -1 -98 -3 -5 -31 -10 -62 -10 -49 0 -54 -2 -42 -16 8 -10 26 -14 50
-13 21 2 41 1 44 -3 3 -3 -3 -21 -14 -39 -21 -34 -28 -69 -13 -69 4 0 27 7 51
16 60 21 171 16 171 -7 0 -21 -41 -50 -62 -44 -19 7 -19 6 3 -24 12 -17 26
-31 29 -31 14 0 60 49 60 63 0 26 25 38 53 28 18 -7 28 -7 33 0 8 14 -25 49
-48 49 -19 0 -23 23 -12 79 5 21 12 31 25 31 11 0 19 5 19 10 0 6 -9 10 -20
10 -22 0 -25 16 -10 56 21 55 -24 65 -177 39z m127 -55 c0 -40 -3 -50 -17 -51
-10 -1 -27 -3 -38 -4 -11 -1 -38 -4 -60 -6 l-40 -4 3 45 c2 24 4 46 6 47 5 6
89 21 119 22 26 1 27 -1 27 -49z m0 -103 c0 -55 -15 -65 -107 -69 -48 -2 -83
1 -83 6 0 5 5 24 12 42 10 29 16 32 72 41 106 17 106 17 106 -20z"/>
<path d="M280 357 c0 -19 21 -37 42 -37 25 0 23 16 -4 34 -27 19 -38 20 -38 3z"/>
<path d="M290 251 c0 -5 9 -19 20 -32 17 -21 21 -22 30 -9 7 11 5 19 -11 33
-23 19 -39 22 -39 8z"/>
</g>
</svg>
