<?xml version="1.0" standalone="no"?>
<!DOCTYPE svg PUBLIC "-//W3C//DTD SVG 20010904//EN"
 "http://www.w3.org/TR/2001/REC-SVG-20010904/DTD/svg10.dtd">
<svg version="1.0" xmlns="http://www.w3.org/2000/svg"
 width="96.000000pt" height="68.000000pt" viewBox="0 0 96.000000 68.000000"
 preserveAspectRatio="xMidYMid meet">
<metadata>
Created by potrace 1.16, written by Peter Selinger 2001-2019
</metadata>
<g transform="translate(0.000000,68.000000) scale(0.100000,-0.100000)"
fill="#000000" stroke="none">
<path d="M244 584 c4 -10 9 -50 13 -90 l6 -72 -59 -7 c-73 -8 -94 -14 -94 -25
0 -5 29 -10 65 -12 l66 -3 -38 -62 c-21 -34 -58 -83 -81 -108 -33 -34 -39 -45
-26 -45 29 0 93 50 126 98 16 24 32 41 34 39 3 -2 -1 -46 -7 -98 -14 -114 -14
-138 0 -152 8 -8 16 -9 29 -1 14 9 18 32 22 134 l5 122 27 -21 c33 -27 48 -27
48 0 0 23 -30 55 -62 65 -36 11 -18 46 30 58 57 14 58 30 3 34 l-43 3 6 69 c6
62 5 70 -13 79 -32 17 -64 14 -57 -5z"/>
<path d="M590 543 c-29 -9 -69 -13 -113 -10 -66 4 -68 4 -61 -17 20 -61 15
-249 -12 -417 -8 -47 16 -59 55 -27 15 13 53 39 84 58 31 19 57 38 57 42 0 4
-26 -4 -57 -18 -32 -14 -64 -28 -71 -31 -10 -4 -12 19 -10 108 l3 114 96 1
c53 0 100 4 106 7 6 4 16 34 23 67 7 33 17 63 21 66 19 12 8 44 -21 59 -34 18
-41 18 -100 -2z m60 -52 c0 -28 -2 -29 -62 -35 -35 -4 -73 -10 -84 -12 -24 -6
-38 17 -29 47 6 19 32 25 123 27 51 2 52 1 52 -27z m-12 -80 c-2 -27 -5 -29
-62 -35 -100 -10 -106 -9 -106 19 0 22 4 25 38 26 20 0 55 4 77 8 22 5 43 9
48 10 4 0 6 -12 5 -28z"/>
<path d="M672 293 c-32 -37 -45 -46 -57 -38 -7 6 -32 23 -55 39 -22 16 -44 26
-48 22 -4 -4 2 -12 13 -18 20 -12 90 -83 158 -161 29 -33 48 -47 66 -47 39 0
101 12 101 19 0 3 -28 17 -63 30 -57 22 -147 83 -147 100 0 4 27 20 60 36 60
29 74 47 44 59 -25 10 -28 8 -72 -41z"/>
</g>
</svg>
