<?xml version="1.0" standalone="no"?>
<!DOCTYPE svg PUBLIC "-//W3C//DTD SVG 20010904//EN"
 "http://www.w3.org/TR/2001/REC-SVG-20010904/DTD/svg10.dtd">
<svg version="1.0" xmlns="http://www.w3.org/2000/svg"
 width="96.000000pt" height="68.000000pt" viewBox="0 0 96.000000 68.000000"
 preserveAspectRatio="xMidYMid meet">
<metadata>
Created by potrace 1.16, written by Peter Selinger 2001-2019
</metadata>
<g transform="translate(0.000000,68.000000) scale(0.100000,-0.100000)"
fill="#000000" stroke="none">
<path d="M257 481 c-92 -15 -120 -31 -55 -31 19 0 28 -5 28 -15 0 -25 -36 -88
-89 -159 -44 -58 -47 -64 -23 -52 60 32 179 187 167 218 -5 12 6 17 49 22 56
7 70 18 40 30 -9 3 -16 6 -17 5 -1 -1 -46 -9 -100 -18z"/>
</g>
</svg>
