<?xml version="1.0" standalone="no"?>
<!DOCTYPE svg PUBLIC "-//W3C//DTD SVG 20010904//EN"
 "http://www.w3.org/TR/2001/REC-SVG-20010904/DTD/svg10.dtd">
<svg version="1.0" xmlns="http://www.w3.org/2000/svg"
 width="96.000000pt" height="68.000000pt" viewBox="0 0 96.000000 68.000000"
 preserveAspectRatio="xMidYMid meet">
<metadata>
Created by potrace 1.16, written by Peter Selinger 2001-2019
</metadata>
<g transform="translate(0.000000,68.000000) scale(0.100000,-0.100000)"
fill="#000000" stroke="none">
<path d="M568 578 c-3 -42 -4 -43 -46 -52 -48 -11 -51 -29 -4 -34 24 -3 32 -8
32 -24 0 -11 -8 -22 -20 -25 -24 -6 -25 -12 -4 -41 9 -13 14 -26 11 -28 -3 -3
-30 -8 -61 -11 -53 -5 -90 -23 -49 -23 18 0 67 -83 55 -94 -3 -3 -19 -6 -36
-6 -51 0 -106 -12 -100 -21 7 -12 67 -11 135 1 30 5 119 12 198 15 80 3 147 8
150 10 14 14 -21 20 -110 17 -54 -1 -99 2 -99 6 0 5 12 19 26 33 15 14 23 31
21 41 -4 13 1 18 18 18 13 0 26 7 29 16 6 15 -2 16 -68 9 -73 -6 -74 -6 -80
19 -4 16 1 36 14 59 22 37 49 47 121 47 27 0 39 4 39 14 0 18 -48 29 -85 20
-26 -6 -27 -5 -20 24 5 25 2 33 -14 41 -38 21 -50 14 -53 -31z m39 -256 c-11
-53 -12 -57 -22 -64 -5 -4 -25 -8 -42 -8 -27 0 -33 4 -33 21 0 11 -7 27 -15
35 -30 30 -22 34 94 42 21 2 23 -1 18 -26z"/>
<path d="M306 591 c-4 -6 0 -24 9 -40 8 -17 15 -32 15 -36 0 -3 -31 -5 -70 -5
-70 0 -83 -7 -55 -30 18 -15 57 -17 101 -7 29 7 33 6 43 -23 14 -41 36 -34 36
11 0 31 3 34 33 37 20 2 32 8 29 15 -2 7 -17 11 -32 9 -31 -4 -45 11 -45 46 0
12 -6 22 -14 22 -8 0 -21 3 -29 6 -8 3 -18 1 -21 -5z"/>
<path d="M295 378 c-5 -23 -33 -59 -90 -115 -85 -84 -85 -93 0 -36 l50 33 3
-52 c2 -29 -2 -77 -8 -107 -10 -46 -10 -56 4 -69 10 -11 19 -13 26 -6 15 15
25 231 11 247 -9 11 -3 24 29 60 44 49 48 62 24 71 -31 12 -43 6 -49 -26z"/>
<path d="M590 174 c-47 -7 -109 -13 -139 -13 -46 -1 -52 -3 -41 -16 6 -8 17
-36 24 -62 12 -44 15 -48 42 -46 16 1 72 5 125 8 88 6 96 8 92 25 -3 11 4 32
16 49 27 37 27 38 -6 54 -23 11 -43 11 -113 1z m64 -33 c3 -5 1 -23 -5 -40
-10 -27 -15 -31 -49 -31 -20 0 -57 -3 -82 -6 -42 -6 -46 -5 -52 19 -3 14 -9
32 -12 40 -4 12 3 17 28 20 65 8 167 7 172 -2z"/>
</g>
</svg>
