<?xml version="1.0" standalone="no"?>
<!DOCTYPE svg PUBLIC "-//W3C//DTD SVG 20010904//EN"
 "http://www.w3.org/TR/2001/REC-SVG-20010904/DTD/svg10.dtd">
<svg version="1.0" xmlns="http://www.w3.org/2000/svg"
 width="96.000000pt" height="68.000000pt" viewBox="0 0 96.000000 68.000000"
 preserveAspectRatio="xMidYMid meet">
<metadata>
Created by potrace 1.16, written by Peter Selinger 2001-2019
</metadata>
<g transform="translate(0.000000,68.000000) scale(0.100000,-0.100000)"
fill="#000000" stroke="none">
<path d="M395 289 c-16 -5 -47 -7 -68 -4 l-38 5 15 -27 c7 -16 19 -47 25 -71
9 -33 16 -42 29 -38 9 3 43 6 75 8 36 2 56 7 53 14 -2 6 5 30 15 54 11 24 17
50 15 57 -6 15 -75 16 -121 2z m55 -58 c0 -38 -1 -39 -41 -46 -22 -4 -42 -5
-44 -3 -2 1 -6 19 -10 40 -8 40 -1 45 63 47 31 1 32 0 32 -38z"/>
</g>
</svg>
