<?xml version="1.0" standalone="no"?>
<!DOCTYPE svg PUBLIC "-//W3C//DTD SVG 20010904//EN"
 "http://www.w3.org/TR/2001/REC-SVG-20010904/DTD/svg10.dtd">
<svg version="1.0" xmlns="http://www.w3.org/2000/svg"
 width="90.000000pt" height="92.000000pt" viewBox="0 0 90.000000 92.000000"
 preserveAspectRatio="xMidYMid meet">
<metadata>
Created by potrace 1.16, written by Peter Selinger 2001-2019
</metadata>
<g transform="translate(0.000000,92.000000) scale(0.100000,-0.100000)"
fill="#000000" stroke="none">
<path d="M606 820 c-48 -15 -398 -42 -445 -35 -40 6 -43 5 -35 -12 14 -31 17
-341 3 -458 -17 -147 -16 -182 4 -202 16 -16 18 -16 30 1 12 16 35 20 158 27
79 4 180 10 225 13 l81 6 18 -40 c21 -47 38 -50 62 -13 16 25 18 58 19 328 0
165 2 311 5 324 3 21 -3 29 -36 48 -44 25 -47 25 -89 13z m46 -85 c12 -43 22
-397 14 -475 l-7 -65 -102 0 c-56 0 -165 -4 -242 -9 l-140 -9 7 129 c3 71 6
197 7 280 l1 152 103 11 c56 7 111 14 122 15 11 2 67 3 124 2 l105 -1 8 -30z"/>
<path d="M367 671 l6 -60 -39 -6 c-22 -3 -46 -7 -54 -8 -8 -1 -15 -7 -15 -12
0 -6 24 -11 53 -13 l52 -3 0 -63 c0 -68 -6 -76 -56 -76 -21 0 -23 3 -18 30 7
32 -9 60 -33 60 -11 0 -13 -7 -8 -29 4 -19 1 -41 -9 -59 -13 -24 -13 -32 -2
-47 12 -17 15 -17 55 -2 62 25 71 23 71 -18 0 -44 23 -90 53 -106 53 -29 196
-6 209 33 2 7 -3 34 -12 61 l-17 47 -12 -39 c-10 -34 -17 -42 -50 -52 -49 -14
-107 -4 -121 21 -5 10 -10 35 -10 54 0 31 3 36 24 36 13 0 31 3 39 6 10 3 17
-4 21 -21 11 -43 32 -14 46 62 12 70 7 82 -31 83 -13 0 -15 -9 -11 -49 l4 -49
-46 -3 -46 -4 0 45 c0 78 6 88 67 105 67 20 67 41 -2 38 l-47 -1 6 33 c6 31 4
36 -23 50 -46 23 -50 20 -44 -44z"/>
</g>
</svg>
