<?xml version="1.0" standalone="no"?>
<!DOCTYPE svg PUBLIC "-//W3C//DTD SVG 20010904//EN"
 "http://www.w3.org/TR/2001/REC-SVG-20010904/DTD/svg10.dtd">
<svg version="1.0" xmlns="http://www.w3.org/2000/svg"
 width="96.000000pt" height="68.000000pt" viewBox="0 0 96.000000 68.000000"
 preserveAspectRatio="xMidYMid meet">
<metadata>
Created by potrace 1.16, written by Peter Selinger 2001-2019
</metadata>
<g transform="translate(0.000000,68.000000) scale(0.100000,-0.100000)"
fill="#000000" stroke="none">
<path d="M440 560 c-12 -17 -30 -35 -41 -40 -16 -9 -21 -7 -29 15 -13 35 -31
40 -103 25 -82 -17 -94 -30 -29 -30 29 0 52 -2 52 -5 0 -4 -7 -19 -15 -35 -14
-28 -16 -28 -45 -13 -40 20 -54 13 -34 -15 11 -16 23 -22 36 -19 17 5 17 3 6
-11 -19 -26 -73 -77 -105 -100 -33 -25 -15 -29 30 -6 55 29 102 70 147 133 25
34 48 61 53 61 4 0 5 -5 1 -12 -4 -6 -3 -8 3 -5 5 4 23 -4 39 -17 157 -127
157 -128 167 -103 7 18 -12 41 -50 61 -18 9 -33 20 -33 25 0 4 18 16 40 27 40
19 47 36 17 42 -8 2 -29 -11 -45 -27 -32 -34 -48 -37 -75 -17 -16 13 -14 16
28 41 38 22 44 29 34 41 -17 20 -25 18 -49 -16z"/>
<path d="M695 515 c-22 -7 -53 -10 -70 -8 l-30 5 2 -124 c9 -423 31 -482 48
-126 l10 222 25 7 c41 11 70 10 70 -4 0 -7 -9 -29 -20 -50 -26 -48 -25 -53 10
-89 32 -31 46 -68 36 -93 -4 -12 -14 -14 -43 -10 l-38 7 45 -31 c63 -44 84
-39 88 22 4 54 -19 95 -68 124 -17 9 -30 22 -30 28 0 6 20 31 45 55 25 24 45
49 45 56 0 26 -58 30 -125 9z"/>
<path d="M343 406 c-76 -16 -75 -25 3 -20 80 6 98 10 89 24 -7 12 -23 11 -92
-4z"/>
<path d="M340 338 c-25 -5 -65 -7 -89 -4 -30 3 -40 1 -29 -5 9 -5 24 -29 34
-54 12 -33 21 -44 33 -41 32 9 141 18 141 11 0 -17 -23 -95 -29 -96 -36 -7
-56 -2 -53 13 1 9 -11 26 -28 38 -34 24 -36 23 -15 -27 8 -19 15 -37 15 -39 0
-1 -36 -6 -79 -10 -66 -5 -78 -9 -67 -20 29 -28 65 -26 213 12 140 35 192 54
148 54 -11 0 -38 -5 -60 -10 -22 -5 -41 -7 -43 -5 -5 5 31 65 39 65 3 0 6 14
7 32 0 18 6 43 13 56 11 19 11 25 -1 32 -18 12 -90 11 -150 -2z m100 -27 c0
-29 -22 -40 -89 -47 -65 -7 -64 -8 -74 41 -2 10 55 21 126 23 30 2 37 -1 37
-17z"/>
</g>
</svg>
