<?xml version="1.0" standalone="no"?>
<!DOCTYPE svg PUBLIC "-//W3C//DTD SVG 20010904//EN"
 "http://www.w3.org/TR/2001/REC-SVG-20010904/DTD/svg10.dtd">
<svg version="1.0" xmlns="http://www.w3.org/2000/svg"
 width="90.000000pt" height="92.000000pt" viewBox="0 0 90.000000 92.000000"
 preserveAspectRatio="xMidYMid meet">
<metadata>
Created by potrace 1.16, written by Peter Selinger 2001-2019
</metadata>
<g transform="translate(0.000000,92.000000) scale(0.100000,-0.100000)"
fill="#000000" stroke="none">
<path d="M189 828 c-3 -60 -50 -151 -114 -225 -25 -28 -45 -54 -45 -58 0 -14
65 33 110 81 40 43 56 52 94 57 25 4 46 3 46 -1 0 -4 -19 -35 -42 -69 -46 -68
-73 -81 -145 -70 -33 6 -35 5 -28 -16 13 -43 24 -103 25 -134 0 -48 18 -87 33
-75 18 15 175 26 190 14 22 -19 35 1 57 88 12 46 26 92 31 101 7 14 3 22 -17
38 -30 24 -56 26 -103 10 -18 -6 -34 -9 -36 -7 -3 2 30 39 72 82 72 74 76 79
58 92 -26 19 -55 17 -110 -7 -25 -11 -49 -19 -51 -16 -3 2 5 21 17 41 17 30
19 39 8 52 -20 24 -49 37 -50 22z m151 -323 l0 -35 -50 0 c-47 0 -50 2 -50 25
0 28 25 43 73 44 24 1 27 -2 27 -34z m-140 -14 c0 -30 -14 -41 -56 -41 -20 0
-24 5 -24 29 0 32 10 39 53 40 23 1 27 -3 27 -28z m126 -73 c-3 -13 -6 -28 -6
-33 0 -6 -18 -10 -40 -10 -37 0 -40 2 -40 27 0 27 11 33 69 37 20 1 22 -3 17
-21z m-126 -28 c0 -28 -3 -30 -35 -30 -19 0 -35 3 -35 8 0 4 -3 17 -6 30 -6
20 -3 22 35 22 39 0 41 -2 41 -30z"/>
<path d="M547 800 c-4 -18 -35 -60 -83 -110 -42 -44 -72 -80 -67 -80 5 0 37
18 70 39 l61 39 38 -40 39 -39 -30 -25 c-16 -13 -64 -42 -105 -64 -48 -25 -67
-39 -53 -40 12 0 34 5 48 12 49 22 41 -11 -22 -89 -19 -24 -30 -43 -25 -43 11
0 88 55 97 69 3 6 20 11 36 11 21 0 32 -7 41 -24 18 -41 5 -53 -64 -60 -140
-15 -150 -17 -136 -33 10 -13 27 -14 88 -9 41 3 85 9 98 12 21 6 22 4 22 -64
l0 -69 -31 -7 c-45 -9 -79 -7 -79 3 0 5 4 21 9 35 8 20 6 27 -14 40 -36 24
-45 20 -38 -15 3 -17 0 -48 -7 -70 -12 -34 -11 -42 2 -55 12 -12 20 -13 35 -6
25 14 132 38 203 47 30 3 63 9 73 11 13 4 17 -1 17 -20 0 -14 4 -27 9 -30 15
-10 28 17 40 84 10 58 9 66 -6 77 -9 7 -24 13 -33 13 -14 0 -16 -8 -12 -49 l4
-49 -61 -4 -61 -3 0 73 0 72 59 0 c76 0 151 10 151 21 0 5 -12 15 -27 23 -23
11 -41 12 -105 1 l-78 -12 6 24 c4 13 1 29 -5 36 -8 11 2 16 51 25 72 13 89
25 59 42 -20 10 -98 0 -193 -26 -12 -4 -15 0 -11 14 2 11 -1 23 -7 27 -7 5 6
18 37 35 52 30 221 178 222 196 1 6 -14 19 -33 29 -33 18 -36 18 -92 1 -33
-10 -68 -20 -79 -22 -18 -4 -18 -3 3 12 29 21 28 38 -3 52 -40 18 -52 15 -58
-18z m163 -73 c0 -7 -16 -32 -36 -56 -36 -42 -37 -42 -48 -19 -6 13 -27 28
-46 34 -52 17 -43 28 28 35 34 3 65 9 69 12 11 12 33 7 33 -6z"/>
<path d="M515 610 c-16 -4 -48 -11 -69 -15 l-39 -6 22 -22 21 -22 53 29 c82
45 85 56 12 36z"/>
<path d="M300 295 c0 -3 14 -33 31 -67 29 -58 32 -61 45 -43 22 30 17 51 -21
84 -33 28 -55 39 -55 26z"/>
<path d="M47 232 c-31 -61 -35 -100 -11 -109 34 -13 65 71 47 130 l-9 32 -27
-53z"/>
<path d="M225 243 c28 -67 65 -83 65 -28 0 24 -42 65 -66 65 -12 0 -12 -7 1
-37z"/>
<path d="M136 248 c13 -44 35 -79 47 -75 23 7 19 46 -7 72 -32 32 -50 33 -40
3z"/>
</g>
</svg>
