<?xml version="1.0" standalone="no"?>
<!DOCTYPE svg PUBLIC "-//W3C//DTD SVG 20010904//EN"
 "http://www.w3.org/TR/2001/REC-SVG-20010904/DTD/svg10.dtd">
<svg version="1.0" xmlns="http://www.w3.org/2000/svg"
 width="96.000000pt" height="68.000000pt" viewBox="0 0 96.000000 68.000000"
 preserveAspectRatio="xMidYMid meet">
<metadata>
Created by potrace 1.16, written by Peter Selinger 2001-2019
</metadata>
<g transform="translate(0.000000,68.000000) scale(0.100000,-0.100000)"
fill="#000000" stroke="none">
<path d="M630 350 l0 -50 -37 -1 c-21 -1 -51 -5 -68 -9 l-30 -7 35 -7 c19 -3
48 -5 65 -4 28 3 30 1 27 -29 -3 -28 0 -33 17 -33 15 0 21 6 21 21 0 45 17 59
78 60 76 2 121 12 103 23 -14 9 -127 10 -141 1 -15 -9 -20 13 -10 39 8 21 6
27 -10 36 -40 21 -50 13 -50 -40z"/>
</g>
</svg>
