<?xml version="1.0" standalone="no"?>
<!DOCTYPE svg PUBLIC "-//W3C//DTD SVG 20010904//EN"
 "http://www.w3.org/TR/2001/REC-SVG-20010904/DTD/svg10.dtd">
<svg version="1.0" xmlns="http://www.w3.org/2000/svg"
 width="96.000000pt" height="68.000000pt" viewBox="0 0 96.000000 68.000000"
 preserveAspectRatio="xMidYMid meet">
<metadata>
Created by potrace 1.16, written by Peter Selinger 2001-2019
</metadata>
<g transform="translate(0.000000,68.000000) scale(0.100000,-0.100000)"
fill="#000000" stroke="none">
<path d="M257 574 c-33 -9 -57 -10 -73 -3 -14 5 -26 9 -27 9 -1 0 -2 -69 -2
-153 0 -155 -13 -223 -53 -284 -21 -33 3 -30 35 4 31 34 62 99 63 133 0 19 3
21 12 12 18 -18 36 -14 60 13 29 33 35 18 28 -67 -5 -67 -4 -66 -64 -52 -28 7
-27 5 19 -40 27 -25 52 -46 57 -46 4 0 16 12 25 27 15 23 18 52 19 203 0 112
4 183 12 196 9 18 8 24 -6 37 -26 23 -52 26 -105 11z m41 -83 c3 -48 1 -53
-15 -47 -10 4 -30 10 -45 13 -22 4 -26 10 -24 37 4 45 4 44 29 49 47 9 52 4
55 -52z m-48 -71 c14 -11 31 -20 38 -20 24 0 12 -39 -18 -55 -52 -27 -60 -21
-60 40 0 30 3 55 8 55 4 0 18 -9 32 -20z"/>
<path d="M543 571 c-115 -18 -141 -31 -65 -31 29 0 52 -4 52 -10 0 -17 -33
-51 -85 -86 -54 -37 -44 -47 12 -13 33 20 35 21 54 3 19 -17 19 -18 -12 -50
-17 -17 -46 -40 -65 -50 -19 -10 -34 -22 -34 -26 0 -14 73 21 114 54 30 24 40
28 47 17 5 -8 9 -19 9 -25 0 -17 -79 -87 -135 -119 -27 -16 -44 -30 -38 -32
17 -6 81 24 133 62 26 19 50 35 54 35 13 0 5 -93 -10 -126 -14 -29 -21 -34
-51 -34 l-35 0 31 -32 c27 -27 34 -30 55 -20 13 6 34 31 46 57 20 41 22 56 16
118 l-7 72 58 -58 c55 -53 62 -57 105 -57 59 0 70 16 21 30 -60 17 -182 94
-183 116 0 5 25 26 55 45 56 35 67 52 39 63 -29 11 -44 6 -54 -16 -5 -13 -21
-36 -34 -53 l-25 -30 -33 31 c-18 17 -42 36 -52 41 -17 10 -15 13 22 38 34 22
40 31 32 45 -8 15 -3 18 43 24 72 10 97 17 97 27 0 13 -58 9 -177 -10z"/>
</g>
</svg>
