<?xml version="1.0" standalone="no"?>
<!DOCTYPE svg PUBLIC "-//W3C//DTD SVG 20010904//EN"
 "http://www.w3.org/TR/2001/REC-SVG-20010904/DTD/svg10.dtd">
<svg version="1.0" xmlns="http://www.w3.org/2000/svg"
 width="96.000000pt" height="68.000000pt" viewBox="0 0 96.000000 68.000000"
 preserveAspectRatio="xMidYMid meet">
<metadata>
Created by potrace 1.16, written by Peter Selinger 2001-2019
</metadata>
<g transform="translate(0.000000,68.000000) scale(0.100000,-0.100000)"
fill="#000000" stroke="none">
<path d="M380 440 c-13 -30 -83 -96 -130 -120 -15 -8 -20 -15 -12 -18 7 -2 40
12 75 31 56 31 74 35 191 45 93 8 134 8 143 0 16 -13 18 -211 2 -257 -12 -33
-23 -37 -63 -21 -14 5 -26 6 -26 2 1 -10 69 -82 78 -82 12 0 48 41 57 65 4 11
11 76 15 145 4 69 10 133 14 142 6 13 -1 21 -29 36 -36 18 -40 18 -138 1 -56
-10 -113 -18 -126 -19 l-24 0 23 25 c19 20 21 27 10 40 -20 24 -46 18 -60 -15z"/>
</g>
</svg>
