<?xml version="1.0" standalone="no"?>
<!DOCTYPE svg PUBLIC "-//W3C//DTD SVG 20010904//EN"
 "http://www.w3.org/TR/2001/REC-SVG-20010904/DTD/svg10.dtd">
<svg version="1.0" xmlns="http://www.w3.org/2000/svg"
 width="96.000000pt" height="68.000000pt" viewBox="0 0 96.000000 68.000000"
 preserveAspectRatio="xMidYMid meet">
<metadata>
Created by potrace 1.16, written by Peter Selinger 2001-2019
</metadata>
<g transform="translate(0.000000,68.000000) scale(0.100000,-0.100000)"
fill="#000000" stroke="none">
<path d="M305 223 c-27 -7 -65 -12 -83 -10 -20 2 -31 -1 -28 -7 3 -6 12 -35
21 -64 15 -47 20 -53 38 -48 12 3 46 9 75 12 37 5 52 11 48 20 -3 7 4 30 15
51 18 36 18 39 2 50 -20 15 -22 15 -88 -4z m38 -45 c-7 -36 -15 -45 -52 -54
-27 -8 -41 8 -41 48 0 27 10 32 77 37 20 1 22 -2 16 -31z"/>
</g>
</svg>
