<?xml version="1.0" standalone="no"?>
<!DOCTYPE svg PUBLIC "-//W3C//DTD SVG 20010904//EN"
 "http://www.w3.org/TR/2001/REC-SVG-20010904/DTD/svg10.dtd">
<svg version="1.0" xmlns="http://www.w3.org/2000/svg"
 width="96.000000pt" height="68.000000pt" viewBox="0 0 96.000000 68.000000"
 preserveAspectRatio="xMidYMid meet">
<metadata>
Created by potrace 1.16, written by Peter Selinger 2001-2019
</metadata>
<g transform="translate(0.000000,68.000000) scale(0.100000,-0.100000)"
fill="#000000" stroke="none">
<path d="M418 262 c4 -29 3 -29 -59 -35 -34 -4 -84 -7 -110 -7 -54 0 -65 -15
-19 -25 27 -6 82 -2 153 11 37 7 34 -8 -10 -57 -39 -44 -69 -62 -147 -90 -63
-22 -40 -24 39 -4 78 21 120 48 160 104 l34 46 138 11 c126 9 135 11 108 23
-22 9 -59 11 -134 5 -93 -6 -104 -5 -98 10 4 10 -1 19 -13 26 -34 18 -47 12
-42 -18z"/>
<path d="M505 171 c34 -33 174 -133 193 -138 60 -15 28 50 -43 89 -52 27 -166
65 -150 49z"/>
</g>
</svg>
