<?xml version="1.0" standalone="no"?>
<!DOCTYPE svg PUBLIC "-//W3C//DTD SVG 20010904//EN"
 "http://www.w3.org/TR/2001/REC-SVG-20010904/DTD/svg10.dtd">
<svg version="1.0" xmlns="http://www.w3.org/2000/svg"
 width="96.000000pt" height="68.000000pt" viewBox="0 0 96.000000 68.000000"
 preserveAspectRatio="xMidYMid meet">
<metadata>
Created by potrace 1.16, written by Peter Selinger 2001-2019
</metadata>
<g transform="translate(0.000000,68.000000) scale(0.100000,-0.100000)"
fill="#000000" stroke="none">
<path d="M410 631 c0 -4 9 -20 20 -34 l20 -25 -87 -7 c-49 -4 -97 -9 -108 -12
-18 -5 -18 -6 4 -15 22 -8 51 -6 138 7 12 2 75 7 139 11 104 6 115 8 98 21
-14 11 -36 13 -86 8 -61 -6 -68 -5 -68 10 0 10 -8 24 -17 31 -20 15 -53 18
-53 5z"/>
</g>
</svg>
