<?xml version="1.0" standalone="no"?>
<!DOCTYPE svg PUBLIC "-//W3C//DTD SVG 20010904//EN"
 "http://www.w3.org/TR/2001/REC-SVG-20010904/DTD/svg10.dtd">
<svg version="1.0" xmlns="http://www.w3.org/2000/svg"
 width="90.000000pt" height="92.000000pt" viewBox="0 0 90.000000 92.000000"
 preserveAspectRatio="xMidYMid meet">
<metadata>
Created by potrace 1.16, written by Peter Selinger 2001-2019
</metadata>
<g transform="translate(0.000000,92.000000) scale(0.100000,-0.100000)"
fill="#000000" stroke="none">
<path d="M197 795 c-7 -66 -75 -216 -148 -322 -28 -41 -48 -77 -45 -80 3 -4
33 21 66 54 37 37 60 54 60 44 4 -98 -3 -296 -10 -321 -10 -34 2 -80 20 -80 6
0 45 29 87 65 l77 66 17 -22 c11 -15 22 -20 34 -15 37 14 -12 95 -68 110 -19
5 -20 -4 -3 -45 5 -11 -7 -22 -46 -42 -29 -15 -57 -27 -61 -27 -4 0 -7 36 -7
81 0 44 3 78 8 75 4 -2 27 0 52 4 25 5 50 4 55 0 19 -16 33 4 55 85 12 44 27
86 33 94 9 10 5 19 -17 38 -31 26 -30 26 -133 2 -29 -7 -55 -10 -59 -6 -13 13
26 57 50 57 43 0 127 23 123 34 -5 16 -53 19 -89 7 -17 -6 -33 -9 -35 -7 -3 3
34 96 42 104 2 2 22 -10 46 -27 48 -36 69 -39 69 -12 0 29 -26 50 -69 57 -33
5 -37 9 -33 29 3 15 -3 28 -19 39 -38 26 -46 20 -52 -39z m105 -267 c10 -30
-4 -55 -30 -55 -15 0 -42 -3 -59 -8 -32 -7 -33 -6 -33 23 0 26 5 31 38 40 52
14 80 14 84 0z m-6 -94 c-3 -9 -6 -24 -6 -33 0 -14 -13 -20 -57 -28 -32 -6
-60 -9 -61 -8 -2 2 -1 17 2 33 6 25 14 30 54 39 70 15 75 15 68 -3z"/>
<path d="M610 750 c-52 -10 -126 -19 -163 -19 l-68 -1 21 -28 c12 -16 25 -57
31 -97 14 -87 25 -111 44 -95 8 7 60 13 122 15 l108 3 43 98 c32 75 39 100 30
106 -21 14 -67 38 -70 37 -2 -1 -46 -10 -98 -19z m85 -64 c0 -28 -2 -29 -50
-31 l-51 -2 4 34 c4 34 5 34 51 31 43 -3 46 -5 46 -32z m-155 -2 c15 -38 13
-41 -26 -49 -40 -7 -54 3 -54 42 0 16 7 23 28 26 15 2 30 5 35 6 4 0 12 -11
17 -25z m139 -86 c-5 -18 -9 -34 -9 -35 0 -2 -18 -3 -40 -3 -38 0 -40 2 -40
29 0 30 8 35 77 40 20 1 21 -2 12 -31z m-129 -18 c0 -27 -3 -30 -34 -30 -30 0
-34 3 -38 30 -4 29 -3 30 34 30 36 0 38 -2 38 -30z"/>
<path d="M558 471 c-97 -14 -180 -29 -183 -33 -4 -4 4 -10 19 -14 33 -8 40
-45 32 -172 -8 -135 -8 -132 5 -148 9 -11 24 -2 85 53 41 36 73 68 70 70 -2 2
-22 -5 -45 -16 -72 -37 -73 -37 -69 98 l3 119 50 6 c28 4 101 9 163 13 62 3
115 10 118 14 5 8 -49 40 -63 37 -4 0 -88 -13 -185 -27z"/>
<path d="M642 373 l-43 -45 -28 26 c-15 14 -31 26 -35 26 -16 0 132 -198 175
-234 29 -25 37 -27 88 -20 93 11 92 18 -3 62 -85 40 -191 116 -181 131 2 4 31
16 65 26 33 10 60 24 60 31 0 12 -37 45 -50 44 -3 -1 -24 -22 -48 -47z"/>
</g>
</svg>
