<?xml version="1.0" standalone="no"?>
<!DOCTYPE svg PUBLIC "-//W3C//DTD SVG 20010904//EN"
 "http://www.w3.org/TR/2001/REC-SVG-20010904/DTD/svg10.dtd">
<svg version="1.0" xmlns="http://www.w3.org/2000/svg"
 width="90.000000pt" height="92.000000pt" viewBox="0 0 90.000000 92.000000"
 preserveAspectRatio="xMidYMid meet">
<metadata>
Created by potrace 1.16, written by Peter Selinger 2001-2019
</metadata>
<g transform="translate(0.000000,92.000000) scale(0.100000,-0.100000)"
fill="#000000" stroke="none">
<path d="M246 853 c-10 -41 -72 -130 -96 -138 -21 -7 -26 -30 -11 -53 6 -11
29 -6 111 23 l104 36 24 -31 c19 -24 27 -28 33 -18 15 23 10 54 -13 75 -49 44
-101 56 -64 14 17 -19 17 -20 -21 -30 -22 -6 -55 -14 -74 -18 l-34 -6 26 34
c71 95 72 96 60 118 -16 29 -38 26 -45 -6z"/>
<path d="M470 787 c7 -111 22 -143 76 -153 43 -8 127 0 168 16 30 11 30 11 10
31 -19 19 -23 19 -79 4 -106 -27 -135 -18 -135 43 0 25 4 33 13 29 13 -5 131
16 167 29 13 4 13 6 0 14 -21 13 -66 12 -125 -4 -56 -15 -67 -6 -44 35 10 19
9 25 -7 36 -10 7 -25 13 -33 13 -14 0 -15 -13 -11 -93z"/>
<path d="M300 633 c-25 -8 -71 -15 -103 -16 -48 -1 -56 -4 -50 -17 5 -8 8 -58
8 -110 0 -84 -4 -101 -27 -142 -15 -27 -23 -48 -18 -48 18 0 71 64 77 91 6 30
17 37 28 19 3 -5 13 -10 21 -10 18 0 108 60 101 67 -3 2 -29 -3 -58 -11 -74
-22 -79 -21 -79 18 0 62 7 67 47 40 39 -26 68 -31 79 -12 10 16 -22 36 -72 44
-33 5 -44 11 -44 24 0 19 36 30 96 30 l34 0 2 -52 c2 -73 -1 -170 -7 -186 -4
-10 -14 -12 -36 -7 l-32 7 39 -46 38 -46 21 20 c17 18 20 35 22 123 1 56 4
125 7 154 6 50 5 53 -21 66 -24 12 -35 12 -73 0z"/>
<path d="M476 518 c1 -124 6 -143 47 -165 61 -32 247 -12 247 27 0 7 -9 23
-20 37 -11 14 -20 32 -20 39 0 8 -4 14 -10 14 -5 0 -10 -9 -10 -20 0 -11 -9
-29 -20 -40 -29 -29 -131 -29 -160 0 -24 24 -28 85 -5 77 16 -7 152 17 163 28
8 8 -18 25 -40 25 -9 0 -43 -7 -74 -15 -32 -8 -59 -14 -60 -12 -1 1 4 19 11
40 11 32 11 40 -2 52 -8 8 -22 15 -31 15 -15 0 -17 -13 -16 -102z"/>
<path d="M421 280 c28 -49 64 -84 78 -75 12 7 14 54 3 71 -10 15 -67 44 -87
44 -14 0 -13 -6 6 -40z"/>
<path d="M660 291 c0 -3 27 -33 60 -66 63 -62 85 -65 78 -10 -2 21 -13 33 -39
47 -45 23 -99 39 -99 29z"/>
<path d="M253 223 c44 -118 133 -169 292 -167 98 0 190 29 183 57 -2 8 -33 37
-69 64 l-67 51 20 -45 c27 -62 18 -68 -100 -68 -85 0 -104 3 -147 26 -41 21
-55 35 -78 82 -39 78 -62 77 -34 0z"/>
<path d="M121 188 c-27 -55 -31 -69 -22 -87 14 -26 23 -26 44 -3 24 27 36 94
23 127 l-12 28 -33 -65z"/>
</g>
</svg>
