<?xml version="1.0" standalone="no"?>
<!DOCTYPE svg PUBLIC "-//W3C//DTD SVG 20010904//EN"
 "http://www.w3.org/TR/2001/REC-SVG-20010904/DTD/svg10.dtd">
<svg version="1.0" xmlns="http://www.w3.org/2000/svg"
 width="96.000000pt" height="68.000000pt" viewBox="0 0 96.000000 68.000000"
 preserveAspectRatio="xMidYMid meet">
<metadata>
Created by potrace 1.16, written by Peter Selinger 2001-2019
</metadata>
<g transform="translate(0.000000,68.000000) scale(0.100000,-0.100000)"
fill="#000000" stroke="none">
<path d="M558 555 c-3 -3 -41 -9 -84 -13 -63 -6 -78 -11 -75 -22 3 -8 8 -51
12 -95 4 -44 8 -80 8 -80 1 0 43 1 93 1 l93 1 32 94 c29 86 31 95 16 107 -17
12 -85 17 -95 7z m40 -45 c4 -38 -8 -46 -75 -53 l-63 -7 0 30 c0 34 5 38 62
50 60 11 73 8 76 -20z m-16 -101 c-8 -33 -10 -34 -65 -37 -57 -3 -57 -3 -57
26 0 28 2 30 63 38 34 6 63 9 65 8 2 -1 -1 -17 -6 -35z"/>
</g>
</svg>
