<?xml version="1.0" standalone="no"?>
<!DOCTYPE svg PUBLIC "-//W3C//DTD SVG 20010904//EN"
 "http://www.w3.org/TR/2001/REC-SVG-20010904/DTD/svg10.dtd">
<svg version="1.0" xmlns="http://www.w3.org/2000/svg"
 width="96.000000pt" height="68.000000pt" viewBox="0 0 96.000000 68.000000"
 preserveAspectRatio="xMidYMid meet">
<metadata>
Created by potrace 1.16, written by Peter Selinger 2001-2019
</metadata>
<g transform="translate(0.000000,68.000000) scale(0.100000,-0.100000)"
fill="#000000" stroke="none">
<path d="M530 123 c1 -115 2 -126 15 -109 8 11 15 36 15 55 0 79 -1 78 126 86
63 4 114 11 114 16 0 17 -51 21 -131 10 -45 -6 -86 -11 -91 -11 -4 0 -8 18 -8
40 0 33 -3 40 -20 40 -19 0 -20 -7 -20 -127z"/>
</g>
</svg>
