<?xml version="1.0" standalone="no"?>
<!DOCTYPE svg PUBLIC "-//W3C//DTD SVG 20010904//EN"
 "http://www.w3.org/TR/2001/REC-SVG-20010904/DTD/svg10.dtd">
<svg version="1.0" xmlns="http://www.w3.org/2000/svg"
 width="90.000000pt" height="92.000000pt" viewBox="0 0 90.000000 92.000000"
 preserveAspectRatio="xMidYMid meet">
<metadata>
Created by potrace 1.16, written by Peter Selinger 2001-2019
</metadata>
<g transform="translate(0.000000,92.000000) scale(0.100000,-0.100000)"
fill="#000000" stroke="none">
<path d="M630 845 c-30 -7 -70 -11 -89 -8 -31 5 -33 4 -26 -13 5 -10 11 -65
13 -121 3 -72 8 -106 18 -114 9 -7 14 -8 14 -1 0 6 21 14 48 17 26 3 60 9 75
12 l29 5 -4 -240 c-1 -132 -6 -244 -10 -247 -4 -4 -26 -3 -48 3 l-41 10 48
-51 c26 -29 53 -52 58 -52 6 0 18 16 27 35 15 31 17 79 19 394 2 429 11 403
-131 371z m74 -41 c3 -9 6 -26 6 -38 0 -19 -5 -22 -37 -22 -21 0 -55 -3 -75
-8 l-38 -8 0 36 c0 29 4 37 23 40 12 3 31 7 42 9 44 10 73 6 79 -9z m6 -118
c0 -33 -1 -33 -52 -40 -92 -10 -95 -10 -90 23 4 27 9 30 60 39 32 5 63 10 70
11 7 1 12 -12 12 -33z"/>
<path d="M255 805 c-16 -8 -54 -14 -83 -15 -51 0 -53 -1 -45 -22 14 -39 9
-435 -6 -531 -15 -89 -9 -136 16 -144 21 -7 33 69 40 270 l6 197 41 2 c23 1
54 2 71 2 33 1 32 0 64 131 l20 80 -25 23 c-28 25 -55 27 -99 7z m55 -65 c0
-36 -2 -39 -27 -38 -16 0 -43 -3 -60 -7 -33 -7 -33 -7 -33 29 0 29 4 37 23 40
99 22 97 22 97 -24z m-8 -100 c-3 -33 -8 -40 -26 -40 -11 0 -38 -3 -58 -6 -35
-6 -38 -5 -38 17 0 13 4 29 8 35 6 9 70 28 107 33 6 1 9 -15 7 -39z"/>
<path d="M540 560 c-8 -5 -32 -10 -53 -10 -34 0 -37 -2 -27 -19 5 -11 10 -31
10 -45 0 -34 11 -39 74 -31 40 5 53 11 49 21 -3 7 2 28 11 45 13 26 14 34 4
41 -18 11 -50 10 -68 -2z m24 -42 c-8 -28 -22 -38 -51 -38 -18 0 -23 6 -23 24
0 24 12 31 63 35 15 1 17 -4 11 -21z"/>
<path d="M355 550 c-11 -5 -35 -9 -54 -9 -28 -1 -32 -4 -26 -18 4 -10 11 -33
15 -52 9 -35 30 -66 30 -43 0 7 15 12 38 12 20 0 44 5 52 10 8 5 10 10 3 10
-12 0 -6 37 10 57 25 33 -19 54 -68 33z m25 -50 c0 -23 -5 -30 -20 -31 -11 -1
-25 -2 -32 -3 -6 -1 -13 11 -15 26 -3 27 6 34 50 37 13 1 17 -7 17 -29z"/>
<path d="M475 424 c-38 -8 -96 -15 -128 -16 -53 -3 -57 -5 -52 -23 4 -11 11
-40 16 -65 17 -80 15 -79 57 -69 51 12 52 12 52 -10 0 -16 -10 -20 -71 -26
-39 -4 -83 -10 -97 -14 l-27 -7 25 -17 c22 -14 31 -14 80 -1 90 23 90 23 90
-51 0 -104 22 -80 33 35 l3 35 102 3 c56 1 102 7 102 12 0 24 -45 38 -95 30
-77 -13 -105 -12 -105 5 0 17 41 30 69 22 30 -7 41 6 66 77 l23 66 -28 15
c-16 8 -33 15 -37 14 -4 0 -39 -7 -78 -15z m73 -41 c3 -19 -2 -21 -41 -21 -34
1 -44 5 -43 17 1 9 14 19 31 22 41 9 50 6 53 -18z m-134 -9 c8 -21 8 -21 -36
-29 -34 -6 -38 -5 -38 13 0 33 63 46 74 16z m126 -54 c0 -17 -7 -20 -40 -20
-50 0 -57 27 -7 33 17 2 35 5 40 5 4 1 7 -7 7 -18z m-120 -14 c0 -8 -7 -17
-16 -20 -18 -7 -54 -8 -54 -2 0 2 -3 11 -6 20 -5 13 2 16 35 16 28 0 41 -4 41
-14z"/>
</g>
</svg>
