<?xml version="1.0" standalone="no"?>
<!DOCTYPE svg PUBLIC "-//W3C//DTD SVG 20010904//EN"
 "http://www.w3.org/TR/2001/REC-SVG-20010904/DTD/svg10.dtd">
<svg version="1.0" xmlns="http://www.w3.org/2000/svg"
 width="96.000000pt" height="68.000000pt" viewBox="0 0 96.000000 68.000000"
 preserveAspectRatio="xMidYMid meet">
<metadata>
Created by potrace 1.16, written by Peter Selinger 2001-2019
</metadata>
<g transform="translate(0.000000,68.000000) scale(0.100000,-0.100000)"
fill="#000000" stroke="none">
<path d="M477 272 c-17 -36 -88 -118 -127 -145 -20 -14 -20 -14 3 -35 22 -21
26 -21 68 -8 24 8 80 24 123 36 l79 21 24 -30 c29 -37 53 -40 53 -7 0 32 -34
72 -81 96 -42 22 -52 11 -22 -22 14 -16 15 -21 3 -28 -14 -9 -168 -25 -175
-18 -3 2 24 36 60 75 61 67 63 71 46 87 -26 23 -34 20 -54 -22z"/>
</g>
</svg>
