<?xml version="1.0" standalone="no"?>
<!DOCTYPE svg PUBLIC "-//W3C//DTD SVG 20010904//EN"
 "http://www.w3.org/TR/2001/REC-SVG-20010904/DTD/svg10.dtd">
<svg version="1.0" xmlns="http://www.w3.org/2000/svg"
 width="96.000000pt" height="68.000000pt" viewBox="0 0 96.000000 68.000000"
 preserveAspectRatio="xMidYMid meet">
<metadata>
Created by potrace 1.16, written by Peter Selinger 2001-2019
</metadata>
<g transform="translate(0.000000,68.000000) scale(0.100000,-0.100000)"
fill="#000000" stroke="none">
<path d="M424 618 c3 -13 6 -42 6 -65 0 -35 3 -43 19 -43 13 0 20 10 25 31 12
61 8 86 -16 93 -36 9 -41 7 -34 -16z"/>
<path d="M572 584 c-50 -39 -51 -39 28 -17 64 17 72 26 41 43 -24 12 -18 15
-69 -26z"/>
<path d="M290 582 c0 -15 46 -52 63 -52 26 0 20 35 -8 48 -30 14 -55 15 -55 4z"/>
</g>
</svg>
