<?xml version="1.0" standalone="no"?>
<!DOCTYPE svg PUBLIC "-//W3C//DTD SVG 20010904//EN"
 "http://www.w3.org/TR/2001/REC-SVG-20010904/DTD/svg10.dtd">
<svg version="1.0" xmlns="http://www.w3.org/2000/svg"
 width="96.000000pt" height="68.000000pt" viewBox="0 0 96.000000 68.000000"
 preserveAspectRatio="xMidYMid meet">
<metadata>
Created by potrace 1.16, written by Peter Selinger 2001-2019
</metadata>
<g transform="translate(0.000000,68.000000) scale(0.100000,-0.100000)"
fill="#000000" stroke="none">
<path d="M625 595 c-15 -6 -365 -33 -400 -31 -22 1 -29 -3 -25 -14 11 -37 11
-254 0 -347 -9 -75 -9 -106 -1 -122 13 -24 36 -28 44 -8 4 10 43 16 149 21 78
3 170 9 203 12 59 6 60 5 80 -25 11 -17 28 -31 37 -31 34 0 39 35 37 248 -2
114 1 222 5 240 7 30 6 33 -28 47 -33 14 -78 18 -101 10z m44 -49 c8 -9 14
-83 18 -209 l6 -195 -54 1 c-30 1 -130 -2 -222 -7 l-169 -9 7 169 c8 220 10
234 38 235 12 0 74 6 137 13 161 19 225 19 239 2z"/>
<path d="M530 531 c0 -17 30 -40 45 -35 23 9 18 23 -11 34 -31 12 -34 12 -34
1z"/>
<path d="M435 496 l7 -33 -48 -7 c-26 -3 -60 -6 -76 -6 -19 0 -27 -4 -22 -11
5 -8 29 -10 75 -5 69 6 69 6 69 -19 0 -24 -3 -25 -61 -25 -55 0 -60 -2 -53
-17 4 -10 7 -47 6 -83 -2 -73 4 -110 18 -110 5 0 10 17 12 38 3 35 5 37 41 40
l37 3 0 -40 c0 -41 13 -54 24 -25 3 9 6 26 6 39 0 23 22 35 67 35 27 0 36 -14
28 -41 -5 -14 -13 -19 -26 -16 -26 7 -24 -5 7 -32 38 -33 54 -14 54 63 0 33 5
81 11 105 13 56 3 64 -73 57 -56 -4 -58 -3 -58 20 0 23 2 24 84 24 47 0 88 4
91 10 10 16 -41 23 -111 15 l-65 -7 6 25 c5 20 2 25 -17 31 -37 9 -39 8 -33
-28z m132 -121 c7 -20 6 -21 -44 -30 -41 -6 -43 -6 -43 19 0 24 4 26 40 26 27
0 43 -5 47 -15z m-132 -20 c0 -14 -9 -22 -30 -26 -32 -7 -25 -12 13 -9 19 1
23 -3 20 -22 -2 -18 -10 -24 -35 -26 l-33 -3 0 50 c0 39 4 51 18 54 31 9 47 2
47 -18z m132 -40 c7 -20 6 -21 -44 -30 -39 -6 -43 -5 -43 13 0 23 12 30 53 31
16 1 30 -5 34 -14z"/>
</g>
</svg>
