<?xml version="1.0" standalone="no"?>
<!DOCTYPE svg PUBLIC "-//W3C//DTD SVG 20010904//EN"
 "http://www.w3.org/TR/2001/REC-SVG-20010904/DTD/svg10.dtd">
<svg version="1.0" xmlns="http://www.w3.org/2000/svg"
 width="96.000000pt" height="68.000000pt" viewBox="0 0 96.000000 68.000000"
 preserveAspectRatio="xMidYMid meet">
<metadata>
Created by potrace 1.16, written by Peter Selinger 2001-2019
</metadata>
<g transform="translate(0.000000,68.000000) scale(0.100000,-0.100000)"
fill="#000000" stroke="none">
<path d="M284 606 c-3 -7 0 -25 6 -40 5 -15 10 -49 10 -76 l0 -48 -42 -7 c-79
-12 -98 -17 -98 -26 0 -5 32 -9 70 -9 l70 0 0 -49 c0 -38 -4 -50 -17 -54 -10
-3 -55 -21 -100 -39 -82 -35 -89 -44 -45 -67 25 -13 37 -9 110 41 24 17 45 28
48 26 2 -3 0 -31 -4 -64 l-8 -59 -37 2 -38 3 23 -29 c39 -47 69 -65 87 -54 13
8 17 32 19 120 l3 111 41 28 c29 20 36 30 25 32 -9 2 -25 -2 -36 -7 -31 -17
-34 -14 -28 26 7 41 20 53 60 53 37 0 35 27 -3 35 -16 4 -34 4 -40 0 -14 -9
-12 33 5 80 17 47 9 59 -43 75 -25 6 -34 6 -38 -4z"/>
<path d="M738 525 c-9 -10 -279 -36 -290 -28 -7 4 -8 -4 -3 -23 11 -40 7 -245
-5 -300 -7 -32 -7 -51 1 -66 11 -20 12 -21 25 -4 10 15 35 19 136 26 68 4 127
6 131 3 5 -3 12 -16 17 -29 13 -34 45 -31 60 6 9 23 11 68 6 173 -4 82 -3 155
3 174 8 27 6 34 -12 46 -28 18 -62 29 -69 22z m19 -39 c4 -4 7 -77 7 -163 l1
-157 -59 -2 c-33 -1 -97 -5 -144 -9 l-83 -7 6 159 c4 87 8 160 11 162 6 6 197
28 227 26 15 -1 31 -5 34 -9z"/>
<path d="M599 452 c-1 -4 0 -22 1 -39 1 -31 0 -33 -34 -33 -19 0 -38 -4 -41
-10 -4 -6 8 -10 29 -10 49 0 46 -18 -13 -79 -27 -28 -43 -51 -35 -51 8 0 32
18 55 41 l41 41 -2 -54 c-3 -74 -2 -78 20 -78 17 0 20 7 20 50 0 51 8 61 30
35 16 -19 50 -19 50 0 0 8 -17 19 -40 26 -36 11 -40 15 -40 46 0 30 3 33 29
33 33 0 49 15 27 23 -8 3 -24 3 -36 0 -19 -5 -21 -2 -18 22 2 21 -2 30 -19 36
-13 5 -23 5 -24 1z"/>
</g>
</svg>
