<?xml version="1.0" standalone="no"?>
<!DOCTYPE svg PUBLIC "-//W3C//DTD SVG 20010904//EN"
 "http://www.w3.org/TR/2001/REC-SVG-20010904/DTD/svg10.dtd">
<svg version="1.0" xmlns="http://www.w3.org/2000/svg"
 width="96.000000pt" height="68.000000pt" viewBox="0 0 96.000000 68.000000"
 preserveAspectRatio="xMidYMid meet">
<metadata>
Created by potrace 1.16, written by Peter Selinger 2001-2019
</metadata>
<g transform="translate(0.000000,68.000000) scale(0.100000,-0.100000)"
fill="#000000" stroke="none">
<path d="M383 617 c-3 -5 9 -23 27 -38 19 -17 27 -29 19 -30 -103 -7 -233 -26
-231 -34 1 -6 36 -10 80 -10 106 1 433 23 441 30 3 4 -3 13 -14 22 -16 12 -38
14 -112 8 -77 -5 -93 -4 -93 8 0 30 -102 68 -117 44z"/>
<path d="M455 480 c-22 -5 -67 -9 -99 -9 -55 -1 -58 -2 -44 -18 9 -10 20 -31
25 -48 11 -34 5 -33 131 -22 56 5 92 13 92 20 0 6 10 21 22 34 16 17 19 26 11
34 -15 15 -89 20 -138 9z m68 -43 c-4 -21 -12 -25 -79 -33 -59 -8 -75 -7 -79
4 -16 42 -2 48 101 51 59 1 61 0 57 -22z"/>
<path d="M500 345 c-206 -20 -290 -22 -299 -6 -10 16 -53 -73 -49 -102 5 -36
28 -31 44 11 18 45 -15 38 308 70 148 15 179 16 183 5 3 -8 -3 -23 -12 -33
-17 -19 -17 -20 4 -20 41 0 111 22 111 36 0 7 -13 22 -29 33 -34 24 -60 25
-261 6z"/>
<path d="M378 252 c-124 -18 -148 -38 -34 -28 84 8 96 -1 96 -66 0 -66 -9 -80
-46 -76 -40 5 -41 2 -9 -34 28 -32 55 -36 78 -10 13 15 17 39 17 110 l0 92 71
0 c52 0 70 3 67 13 -6 18 -113 18 -240 -1z"/>
</g>
</svg>
