<?xml version="1.0" standalone="no"?>
<!DOCTYPE svg PUBLIC "-//W3C//DTD SVG 20010904//EN"
 "http://www.w3.org/TR/2001/REC-SVG-20010904/DTD/svg10.dtd">
<svg version="1.0" xmlns="http://www.w3.org/2000/svg"
 width="90.000000pt" height="92.000000pt" viewBox="0 0 90.000000 92.000000"
 preserveAspectRatio="xMidYMid meet">
<metadata>
Created by potrace 1.16, written by Peter Selinger 2001-2019
</metadata>
<g transform="translate(0.000000,92.000000) scale(0.100000,-0.100000)"
fill="#000000" stroke="none">
<path d="M417 893 c4 -10 13 -28 21 -41 8 -12 13 -24 11 -26 -2 -2 -65 -11
-139 -20 -74 -9 -136 -18 -137 -20 -2 -1 4 -17 13 -35 13 -27 15 -50 10 -120
-15 -191 -56 -352 -126 -491 l-32 -65 35 34 c20 18 49 59 66 91 34 64 77 212
87 301 4 33 10 59 15 59 4 0 21 11 37 25 l30 25 7 -28 c3 -16 0 -47 -8 -70
-12 -34 -12 -45 0 -74 13 -30 15 -31 25 -14 17 30 26 175 12 194 -10 13 -7 24
18 60 24 35 27 46 18 57 -22 27 -46 17 -58 -22 -7 -21 -28 -63 -47 -93 l-36
-55 6 80 c8 96 12 112 29 118 19 7 251 35 359 43 91 6 106 17 55 41 -20 10
-41 10 -109 -2 -46 -8 -84 -15 -85 -15 0 0 1 13 4 28 3 23 -1 30 -23 40 -39
18 -66 16 -58 -5z"/>
<path d="M550 785 c0 -4 8 -20 17 -36 9 -15 15 -30 12 -33 -2 -2 -26 -7 -53
-11 l-49 -8 16 24 c23 32 22 35 -13 48 -27 9 -30 8 -30 -12 0 -12 -18 -55 -40
-95 -39 -72 -38 -79 8 -39 l22 20 0 -62 c0 -34 -4 -70 -9 -79 -11 -21 14 -87
29 -77 5 3 10 12 10 20 0 9 10 14 28 13 51 -2 282 26 282 34 0 20 -46 30 -106
23 -60 -6 -64 -5 -64 14 0 17 8 21 50 27 28 4 53 10 55 15 8 13 -34 21 -71 14
-29 -5 -34 -3 -34 13 0 21 25 32 72 32 15 0 29 4 33 9 8 14 -32 24 -70 17 -30
-6 -33 -4 -28 13 4 14 17 22 42 27 53 8 63 13 56 24 -3 5 -26 10 -51 10 -31 0
-44 4 -44 14 0 7 -6 18 -12 24 -17 13 -58 25 -58 17z m20 -124 c0 -33 -78 -43
-97 -12 -12 19 -9 20 35 24 26 2 50 4 55 5 4 1 7 -6 7 -17z m0 -72 c0 -13 -11
-19 -45 -25 -52 -7 -56 -6 -49 21 7 28 94 32 94 4z m0 -68 c0 -21 -19 -31 -60
-31 -22 0 -29 5 -32 25 -5 24 -3 25 43 25 41 0 49 -3 49 -19z"/>
<path d="M599 435 c-10 -9 -156 -36 -207 -37 l-53 -2 7 -30 c17 -72 -1 -215
-35 -287 -11 -21 -16 -39 -12 -39 22 0 81 92 81 126 0 15 4 14 26 -7 l25 -24
56 30 c31 16 72 40 91 53 19 12 37 21 39 18 8 -7 -7 -115 -16 -121 -5 -2 -23
0 -40 5 -18 5 -31 5 -29 1 6 -17 78 -91 88 -91 5 0 18 12 27 27 15 23 18 46
15 141 -1 63 3 133 9 155 10 39 10 42 -18 64 -27 22 -45 28 -54 18z m15 -101
c11 -81 12 -78 -71 -107 -43 -14 -95 -29 -116 -33 l-37 -6 6 58 c4 33 8 61 10
62 1 2 22 -8 47 -22 54 -32 97 -35 97 -6 0 26 -30 40 -96 47 -109 11 -39 49
97 52 l56 1 7 -46z"/>
</g>
</svg>
