<?xml version="1.0" standalone="no"?>
<!DOCTYPE svg PUBLIC "-//W3C//DTD SVG 20010904//EN"
 "http://www.w3.org/TR/2001/REC-SVG-20010904/DTD/svg10.dtd">
<svg version="1.0" xmlns="http://www.w3.org/2000/svg"
 width="90.000000pt" height="92.000000pt" viewBox="0 0 90.000000 92.000000"
 preserveAspectRatio="xMidYMid meet">
<metadata>
Created by potrace 1.16, written by Peter Selinger 2001-2019
</metadata>
<g transform="translate(0.000000,92.000000) scale(0.100000,-0.100000)"
fill="#000000" stroke="none">
<path d="M667 843 c-3 -16 -22 -54 -41 -85 -19 -32 -31 -58 -28 -58 18 0 162
118 162 132 0 10 -55 38 -73 38 -8 0 -17 -12 -20 -27z"/>
<path d="M430 807 c0 -23 65 -122 80 -122 8 0 16 11 18 24 7 44 -7 70 -48 91
-46 24 -50 24 -50 7z"/>
<path d="M160 797 c0 -8 13 -39 30 -70 21 -39 26 -57 17 -60 -7 -3 -54 -11
-105 -18 -98 -14 -115 -27 -62 -49 25 -10 40 -10 88 3 31 9 97 23 146 32 49 8
91 17 93 19 11 11 -35 30 -68 29 -38 -2 -39 -1 -39 31 0 41 -16 61 -62 81 -31
13 -38 13 -38 2z"/>
<path d="M620 669 c-41 -10 -105 -21 -142 -25 -38 -4 -71 -11 -75 -16 -11 -19
22 -29 79 -25 55 3 56 3 62 -26 11 -54 9 -56 -54 -63 -41 -4 -60 -11 -60 -20
0 -10 16 -14 60 -14 l60 0 0 -44 0 -44 -63 -11 c-35 -6 -80 -11 -100 -11 -50
0 -53 -14 -8 -34 30 -14 46 -16 77 -8 21 6 51 13 67 16 l27 6 0 -154 c0 -87 4
-157 9 -161 17 -10 32 67 38 192 7 143 -5 133 150 133 56 0 105 4 108 10 3 5
-9 19 -27 30 -25 16 -43 20 -73 15 -22 -3 -66 -8 -97 -12 l-58 -6 0 46 0 46
48 6 c111 15 127 24 73 43 -18 7 -43 7 -68 1 -53 -12 -53 -12 -43 23 6 20 6
36 0 43 -8 9 2 14 36 19 76 10 124 26 124 40 0 31 -42 32 -150 5z"/>
<path d="M178 541 c-31 -9 -60 -19 -63 -23 -15 -15 49 -20 108 -8 70 15 89 26
67 40 -20 13 -44 11 -112 -9z"/>
<path d="M218 455 c-3 -3 -25 -9 -48 -13 -60 -10 -65 -32 -8 -32 50 1 126 14
136 24 3 4 0 11 -8 16 -16 10 -63 13 -72 5z"/>
<path d="M220 349 c-25 -10 -66 -18 -92 -18 -43 -1 -65 -14 -38 -23 6 -2 19
-36 30 -77 20 -78 27 -92 38 -75 4 6 25 14 47 18 93 16 97 17 85 32 -9 10 -6
27 14 70 22 47 24 60 14 70 -23 21 -52 22 -98 3z m36 -51 c-3 -13 -6 -33 -6
-46 0 -17 -10 -27 -36 -38 -43 -18 -50 -13 -57 43 -5 41 -4 43 26 52 18 5 43
10 56 10 19 1 22 -3 17 -21z"/>
</g>
</svg>
