<?xml version="1.0" standalone="no"?>
<!DOCTYPE svg PUBLIC "-//W3C//DTD SVG 20010904//EN"
 "http://www.w3.org/TR/2001/REC-SVG-20010904/DTD/svg10.dtd">
<svg version="1.0" xmlns="http://www.w3.org/2000/svg"
 width="96.000000pt" height="68.000000pt" viewBox="0 0 96.000000 68.000000"
 preserveAspectRatio="xMidYMid meet">
<metadata>
Created by potrace 1.16, written by Peter Selinger 2001-2019
</metadata>
<g transform="translate(0.000000,68.000000) scale(0.100000,-0.100000)"
fill="#000000" stroke="none">
<path d="M575 411 c-3 -6 -4 -15 -1 -20 13 -20 -7 -41 -38 -42 -17 0 -40 -4
-51 -9 -19 -7 -18 -8 5 -13 14 -3 38 -5 54 -4 26 2 29 -1 30 -30 1 -29 -2 -33
-34 -38 -19 -3 -56 -6 -83 -7 -26 0 -50 -4 -52 -8 -10 -15 53 -29 87 -19 18 5
45 9 60 9 l28 0 0 -110 c0 -61 4 -110 9 -110 14 0 31 92 31 165 l0 65 110 0
c68 0 110 4 110 10 0 21 -53 30 -136 24 l-84 -7 0 31 c0 34 4 36 85 47 41 6
46 9 31 17 -10 6 -41 8 -68 5 -44 -6 -49 -4 -43 11 3 9 7 22 8 27 3 14 -50 19
-58 6z"/>
</g>
</svg>
