<?xml version="1.0" standalone="no"?>
<!DOCTYPE svg PUBLIC "-//W3C//DTD SVG 20010904//EN"
 "http://www.w3.org/TR/2001/REC-SVG-20010904/DTD/svg10.dtd">
<svg version="1.0" xmlns="http://www.w3.org/2000/svg"
 width="96.000000pt" height="68.000000pt" viewBox="0 0 96.000000 68.000000"
 preserveAspectRatio="xMidYMid meet">
<metadata>
Created by potrace 1.16, written by Peter Selinger 2001-2019
</metadata>
<g transform="translate(0.000000,68.000000) scale(0.100000,-0.100000)"
fill="#000000" stroke="none">
<path d="M360 605 c-47 -7 -111 -15 -143 -19 -69 -9 -72 -29 -6 -36 l44 -5 3
-91 c3 -101 1 -104 -70 -104 -33 0 -36 -10 -8 -28 17 -10 30 -9 78 9 105 38
124 42 133 27 8 -11 13 -87 7 -89 -2 0 -66 -6 -143 -13 -128 -11 -138 -13
-110 -25 24 -10 50 -11 128 -1 55 6 102 8 105 5 4 -4 -3 -15 -15 -25 -31 -25
-29 -37 10 -45 17 -4 40 -12 51 -17 17 -9 15 -12 -15 -30 -18 -11 -64 -28
-103 -39 l-71 -19 70 3 c50 2 87 11 131 31 l62 28 60 -41 c66 -45 92 -51 92
-21 0 26 -32 54 -80 70 -22 7 -40 16 -39 19 0 3 15 26 33 51 l33 45 104 3
c115 3 138 7 122 23 -19 19 -77 26 -143 18 -49 -6 -71 -4 -93 8 -27 13 -30 13
-48 -6 -12 -12 -32 -21 -50 -21 -26 0 -29 3 -24 20 5 15 0 22 -20 30 -22 8
-26 15 -21 38 3 15 7 71 8 124 l3 98 43 0 c45 0 55 13 23 30 -23 12 -28 12
-141 -5z m30 -60 c0 -23 -4 -25 -45 -25 -37 0 -45 3 -45 18 0 27 9 32 52 32
34 0 38 -3 38 -25z m6 -60 c-3 -20 -5 -21 -53 -29 -38 -5 -43 -4 -43 13 0 14
8 21 28 24 57 9 70 7 68 -8z m-3 -74 c-5 -20 -30 -31 -70 -31 -18 0 -23 6 -23
25 0 23 3 25 49 25 43 0 49 -2 44 -19z m140 -178 c-10 -30 -54 -71 -71 -67
-82 15 -87 22 -50 61 17 18 32 23 74 23 47 0 53 -2 47 -17z"/>
<path d="M628 569 c-9 -5 -43 -14 -75 -20 -32 -6 -62 -13 -66 -16 -5 -3 19
-23 53 -45 71 -45 70 -51 -13 -93 -42 -20 -46 -25 -25 -25 14 0 50 13 80 29
l55 28 44 -33 c53 -40 78 -48 86 -28 6 16 -52 73 -75 74 -27 0 -24 32 7 70 17
21 31 41 31 43 0 6 -59 27 -74 27 -6 0 -19 -5 -28 -11z m24 -59 c-20 -36 -26
-36 -88 -8 l-49 23 40 6 c22 3 57 7 77 8 l37 1 -17 -30z"/>
</g>
</svg>
