<?xml version="1.0" standalone="no"?>
<!DOCTYPE svg PUBLIC "-//W3C//DTD SVG 20010904//EN"
 "http://www.w3.org/TR/2001/REC-SVG-20010904/DTD/svg10.dtd">
<svg version="1.0" xmlns="http://www.w3.org/2000/svg"
 width="96.000000pt" height="68.000000pt" viewBox="0 0 96.000000 68.000000"
 preserveAspectRatio="xMidYMid meet">
<metadata>
Created by potrace 1.16, written by Peter Selinger 2001-2019
</metadata>
<g transform="translate(0.000000,68.000000) scale(0.100000,-0.100000)"
fill="#000000" stroke="none">
<path d="M300 574 c-6 -14 -10 -31 -10 -38 0 -24 -77 -131 -139 -193 -72 -73
-59 -84 28 -23 67 47 111 53 111 16 0 -25 -21 -36 -72 -36 -18 0 -28 -5 -28
-15 0 -12 13 -15 55 -15 l55 0 0 -49 c0 -48 -1 -50 -37 -62 -21 -7 -62 -13
-91 -13 -59 0 -68 -19 -21 -45 24 -13 36 -11 160 28 74 23 140 44 147 46 6 3
12 10 12 16 0 12 -47 8 -97 -7 -22 -6 -23 -4 -23 49 l0 55 45 6 c24 4 47 11
50 16 8 13 -40 24 -70 16 -18 -5 -25 -2 -25 8 0 20 28 46 50 46 10 0 22 5 25
10 11 18 -26 23 -88 12 -34 -6 -63 -9 -65 -7 -5 5 68 115 76 115 2 0 18 -12
35 -26 21 -17 37 -24 53 -20 24 6 34 -13 49 -94 4 -19 11 -50 17 -68 10 -33
10 -34 59 -27 l49 7 0 -125 c0 -119 9 -159 25 -119 4 9 10 67 13 129 l4 111
32 5 c17 2 41 0 54 -6 30 -14 35 -7 70 88 16 44 32 88 37 97 14 33 -37 42
-158 28 -205 -23 -222 -22 -245 10 -11 15 -34 30 -51 33 -21 4 -29 11 -25 20
3 8 -6 21 -20 31 -33 21 -35 21 -46 -10z m468 -137 l3 -37 -55 0 c-53 0 -56 1
-56 24 0 14 -6 28 -12 33 -8 5 9 10 42 14 74 8 75 8 78 -34z m-164 7 c8 -22 8
-54 -1 -55 -5 0 -27 -2 -49 -5 -37 -5 -42 -3 -47 18 -15 52 -10 58 42 58 35 0
51 -4 55 -16z m152 -96 c-8 -43 -13 -46 -63 -40 -39 4 -43 6 -43 32 0 30 10
35 84 39 27 1 28 -1 22 -31z m-146 -17 c0 -26 -4 -29 -36 -33 -26 -3 -38 0
-45 13 -20 38 -11 49 36 49 43 0 45 -1 45 -29z"/>
<path d="M377 235 c-23 -47 -22 -48 16 -29 51 26 59 35 46 50 -20 24 -45 15
-62 -21z"/>
<path d="M202 205 c26 -39 68 -49 68 -16 0 24 -36 51 -67 51 l-23 0 22 -35z"/>
</g>
</svg>
