<?xml version="1.0" standalone="no"?>
<!DOCTYPE svg PUBLIC "-//W3C//DTD SVG 20010904//EN"
 "http://www.w3.org/TR/2001/REC-SVG-20010904/DTD/svg10.dtd">
<svg version="1.0" xmlns="http://www.w3.org/2000/svg"
 width="90.000000pt" height="92.000000pt" viewBox="0 0 90.000000 92.000000"
 preserveAspectRatio="xMidYMid meet">
<metadata>
Created by potrace 1.16, written by Peter Selinger 2001-2019
</metadata>
<g transform="translate(0.000000,92.000000) scale(0.100000,-0.100000)"
fill="#000000" stroke="none">
<path d="M558 820 c5 -65 9 -61 -72 -73 -28 -5 -28 -4 -22 33 6 36 4 39 -26
49 -38 14 -55 2 -39 -27 26 -48 9 -72 -50 -72 -16 0 -29 -4 -29 -10 0 -10 23
-17 70 -22 20 -2 26 -9 28 -35 l3 -33 -53 -2 c-29 0 -65 0 -80 1 -31 2 -36
-10 -14 -29 14 -11 26 -59 41 -155 8 -56 18 -69 41 -57 11 6 83 15 162 22 113
9 147 9 158 -1 23 -19 40 4 84 122 22 57 40 105 40 106 0 1 -16 11 -36 23 -32
21 -40 22 -91 11 -74 -14 -71 -15 -65 17 6 31 18 42 49 42 12 0 34 5 50 11 27
10 28 11 8 25 -14 11 -32 14 -59 9 l-39 -6 6 38 c7 43 -12 73 -48 73 -20 0
-21 -4 -17 -60z m2 -139 c0 -24 -5 -29 -31 -35 -51 -10 -56 -8 -61 24 -6 38
-4 40 49 40 41 0 43 -2 43 -29z m150 -73 c0 -36 -11 -43 -62 -43 -47 0 -48 0
-48 33 l0 32 55 0 c50 0 55 -2 55 -22z m-158 -24 c-4 -34 -6 -35 -41 -32 -29
2 -37 7 -39 27 -4 28 12 41 53 41 30 0 31 -2 27 -36z m-122 -13 c0 -24 -5 -30
-31 -35 -56 -11 -61 -9 -57 27 3 28 7 33 38 38 45 7 50 4 50 -30z m266 -48
c-3 -10 -8 -31 -12 -46 -5 -23 -11 -28 -28 -23 -11 3 -31 6 -43 6 -19 0 -23 5
-23 34 0 37 -4 35 93 44 13 2 17 -3 13 -15z m-146 -37 c0 -26 -5 -35 -22 -40
-42 -11 -48 -7 -48 28 0 35 9 44 48 45 19 1 22 -4 22 -33z m-112 -19 c3 -37 3
-37 -36 -37 -33 0 -41 4 -46 23 -12 46 -8 52 37 52 41 0 42 -1 45 -38z"/>
<path d="M141 753 c64 -72 102 -91 111 -55 12 45 -39 82 -112 82 l-23 0 24
-27z"/>
<path d="M50 570 c0 -18 72 -90 90 -90 21 0 31 20 23 48 -8 30 -113 69 -113
42z"/>
<path d="M190 383 c-19 -36 -55 -88 -79 -115 l-43 -49 12 -44 c12 -44 35 -74
47 -62 6 7 113 316 113 329 0 23 -19 1 -50 -59z"/>
<path d="M535 358 c-39 -11 -90 -17 -115 -15 l-45 4 1 -122 c2 -118 14 -173
35 -160 5 4 9 12 9 20 0 13 14 17 128 29 42 4 44 3 58 -30 17 -41 28 -43 50
-8 14 20 17 51 18 150 1 118 0 126 -21 139 -27 18 -28 18 -118 -7z m86 -40 c1
-7 3 -24 4 -38 3 -24 1 -25 -48 -25 -29 -1 -75 -4 -103 -9 l-50 -8 4 35 c4 33
7 36 50 45 70 15 142 14 143 0z m5 -110 c-3 -13 -5 -31 -5 -41 -1 -12 -9 -17
-28 -16 -16 1 -61 -2 -100 -6 l-73 -8 0 37 c0 36 0 36 43 37 23 0 62 4 87 8
76 14 80 13 76 -11z"/>
</g>
</svg>
