<?xml version="1.0" standalone="no"?>
<!DOCTYPE svg PUBLIC "-//W3C//DTD SVG 20010904//EN"
 "http://www.w3.org/TR/2001/REC-SVG-20010904/DTD/svg10.dtd">
<svg version="1.0" xmlns="http://www.w3.org/2000/svg"
 width="96.000000pt" height="68.000000pt" viewBox="0 0 96.000000 68.000000"
 preserveAspectRatio="xMidYMid meet">
<metadata>
Created by potrace 1.16, written by Peter Selinger 2001-2019
</metadata>
<g transform="translate(0.000000,68.000000) scale(0.100000,-0.100000)"
fill="#000000" stroke="none">
<path d="M460 596 c0 -52 -82 -157 -200 -256 -28 -24 -24 -23 43 10 44 21 114
86 165 150 l20 25 64 -60 c95 -92 118 -105 175 -104 26 1 61 4 77 8 27 5 22 8
-45 30 -85 27 -133 50 -206 98 -47 31 -52 37 -47 63 5 22 1 31 -14 39 -27 14
-32 14 -32 -3z"/>
<path d="M189 522 c15 -28 60 -62 82 -62 13 0 19 7 19 24 0 31 -20 47 -71 53
-39 6 -41 5 -30 -15z"/>
<path d="M475 398 c-74 -15 -85 -22 -40 -25 51 -4 130 10 130 22 0 14 -31 14
-90 3z"/>
<path d="M109 382 c13 -25 59 -62 76 -62 7 0 18 6 24 14 10 11 7 19 -10 35
-13 12 -30 21 -38 21 -9 0 -27 3 -40 7 -21 5 -22 4 -12 -15z"/>
<path d="M638 214 c5 -136 0 -149 -45 -137 -32 8 -27 -7 13 -41 35 -29 36 -29
54 -10 16 16 19 37 21 155 1 75 -1 141 -5 147 -4 7 -15 12 -25 12 -15 0 -17
-11 -13 -126z"/>
<path d="M400 320 c-14 -4 -39 -8 -56 -9 l-31 -1 -6 -92 c-3 -51 -8 -102 -11
-113 -4 -11 -2 -27 4 -35 9 -13 11 -13 20 0 5 8 12 31 15 51 6 36 8 37 52 41
24 2 47 0 50 -5 3 -5 2 -24 -1 -43 -6 -30 -11 -34 -37 -34 l-31 0 30 -25 c17
-14 35 -25 41 -25 20 0 30 47 35 169 4 100 2 120 -10 125 -19 7 -31 6 -64 -4z
m30 -43 c0 -20 -5 -23 -42 -22 -31 0 -43 4 -43 15 0 18 20 28 58 29 22 1 27
-3 27 -22z m10 -66 c0 -14 -10 -21 -36 -25 -19 -4 -42 -10 -51 -13 -11 -4 -14
1 -11 23 3 25 8 30 43 34 48 7 55 4 55 -19z"/>
<path d="M537 293 c-2 -5 -2 -39 1 -76 6 -96 38 -77 41 25 1 27 -4 40 -18 48
-11 5 -22 7 -24 3z"/>
<path d="M201 237 c-16 -24 -46 -57 -66 -75 -36 -30 -37 -33 -25 -61 26 -63
37 -59 76 25 70 153 77 200 15 111z"/>
</g>
</svg>
