<?xml version="1.0" standalone="no"?>
<!DOCTYPE svg PUBLIC "-//W3C//DTD SVG 20010904//EN"
 "http://www.w3.org/TR/2001/REC-SVG-20010904/DTD/svg10.dtd">
<svg version="1.0" xmlns="http://www.w3.org/2000/svg"
 width="90.000000pt" height="92.000000pt" viewBox="0 0 90.000000 92.000000"
 preserveAspectRatio="xMidYMid meet">
<metadata>
Created by potrace 1.16, written by Peter Selinger 2001-2019
</metadata>
<g transform="translate(0.000000,92.000000) scale(0.100000,-0.100000)"
fill="#000000" stroke="none">
<path d="M465 865 c-49 -13 -125 -26 -167 -30 -80 -8 -89 -13 -63 -35 18 -15
55 -11 197 20 60 13 111 20 115 16 12 -13 -89 -97 -107 -90 -8 4 -26 9 -39 12
l-24 5 22 -36 22 -35 -53 -7 c-73 -8 -99 -8 -127 1 -21 6 -23 5 -16 -12 13
-30 18 -167 7 -205 -10 -38 4 -100 24 -106 13 -4 24 28 24 73 0 28 4 32 38 38
20 3 52 6 70 6 30 0 32 -2 32 -34 0 -29 -3 -33 -20 -29 -18 5 -20 0 -20 -43 0
-27 -4 -55 -8 -61 -5 -8 -44 -15 -103 -19 -114 -8 -134 -16 -93 -37 25 -13 39
-13 102 -2 39 6 72 9 72 5 0 -4 -14 -27 -30 -52 -32 -49 -92 -102 -155 -139
-53 -32 -26 -36 37 -6 83 39 132 80 178 150 l42 65 71 7 c40 4 88 5 107 3 35
-3 35 -3 32 -48 -2 -24 -13 -62 -25 -85 -22 -38 -25 -40 -69 -38 l-47 1 36
-49 c19 -27 39 -49 45 -49 6 0 27 17 48 37 31 31 40 51 54 113 10 41 24 85 32
97 19 29 19 28 -20 58 -33 25 -33 25 -107 11 -144 -28 -142 -28 -133 -8 7 16
9 32 13 124 1 36 2 37 49 43 26 3 64 9 85 12 l38 5 -3 -34 c-3 -30 -6 -33 -35
-33 -18 0 -33 0 -33 -1 0 -1 17 -20 38 -43 36 -39 39 -41 54 -24 29 35 33 49
39 158 3 61 10 120 14 132 6 18 1 26 -26 43 -23 13 -43 18 -59 14 -54 -13
-143 -25 -148 -19 -11 10 23 34 110 78 l88 44 -23 20 c-27 25 -61 43 -79 42
-7 -1 -53 -12 -103 -24z m169 -207 c11 -41 8 -43 -74 -44 -72 -1 -80 1 -80 18
0 10 -8 22 -17 26 -20 8 38 18 118 20 41 2 47 -1 53 -20z m-220 -24 c4 -15 5
-29 2 -31 -3 -3 -32 -8 -65 -12 l-61 -7 0 27 c0 25 5 29 43 37 67 15 74 14 81
-14z m222 -60 c-3 -9 -6 -21 -6 -27 0 -8 -27 -13 -80 -14 -73 -2 -80 -1 -80
17 0 23 39 34 139 39 26 1 32 -2 27 -15z m-216 -29 c0 -26 -5 -29 -92 -40
l-48 -6 0 30 0 30 68 4 c37 2 68 4 70 5 1 1 2 -9 2 -23z"/>
</g>
</svg>
