<?xml version="1.0" standalone="no"?>
<!DOCTYPE svg PUBLIC "-//W3C//DTD SVG 20010904//EN"
 "http://www.w3.org/TR/2001/REC-SVG-20010904/DTD/svg10.dtd">
<svg version="1.0" xmlns="http://www.w3.org/2000/svg"
 width="96.000000pt" height="68.000000pt" viewBox="0 0 96.000000 68.000000"
 preserveAspectRatio="xMidYMid meet">
<metadata>
Created by potrace 1.16, written by Peter Selinger 2001-2019
</metadata>
<g transform="translate(0.000000,68.000000) scale(0.100000,-0.100000)"
fill="#000000" stroke="none">
<path d="M440 241 c0 -99 5 -112 45 -140 32 -22 41 -23 184 -19 122 2 153 6
167 19 14 15 14 19 0 47 -9 17 -16 40 -16 51 0 27 -19 37 -26 14 -19 -58 -29
-73 -59 -87 -57 -27 -226 -16 -246 16 -12 18 -11 76 2 121 12 44 10 48 -25 51
-26 3 -26 3 -26 -73z"/>
</g>
</svg>
