<?xml version="1.0" standalone="no"?>
<!DOCTYPE svg PUBLIC "-//W3C//DTD SVG 20010904//EN"
 "http://www.w3.org/TR/2001/REC-SVG-20010904/DTD/svg10.dtd">
<svg version="1.0" xmlns="http://www.w3.org/2000/svg"
 width="96.000000pt" height="68.000000pt" viewBox="0 0 96.000000 68.000000"
 preserveAspectRatio="xMidYMid meet">
<metadata>
Created by potrace 1.16, written by Peter Selinger 2001-2019
</metadata>
<g transform="translate(0.000000,68.000000) scale(0.100000,-0.100000)"
fill="#000000" stroke="none">
<path d="M540 565 c-36 -7 -85 -13 -109 -14 -41 -1 -43 -2 -29 -18 9 -10 21
-48 28 -85 11 -62 14 -67 34 -62 12 3 51 6 87 8 l64 2 23 59 c12 33 27 68 32
77 7 13 4 21 -12 33 -25 17 -28 17 -118 0z m68 -42 c-2 -22 -8 -28 -28 -29
-14 0 -49 -4 -77 -8 -50 -7 -53 -6 -53 13 0 12 0 24 0 29 -1 9 52 19 113 21
47 1 48 0 45 -26z m-8 -60 c0 -10 -4 -23 -8 -29 -8 -12 -122 -27 -122 -16 0 4
-3 17 -6 29 -6 20 -2 22 42 26 27 2 59 4 72 5 15 1 22 -3 22 -15z"/>
<path d="M204 549 c-3 -6 -1 -23 6 -38 6 -16 10 -50 8 -77 l-3 -49 -45 -5
c-59 -7 -58 -24 3 -28 l47 -3 0 -58 0 -58 -60 -18 c-67 -20 -75 -36 -30 -55
28 -11 36 -10 93 20 131 69 154 85 130 88 -12 2 -31 -2 -42 -7 -35 -19 -41
-13 -41 44 l0 55 40 6 c64 10 62 38 -3 36 l-30 -1 7 69 6 70 -27 6 c-16 3 -33
7 -40 9 -7 2 -15 0 -19 -6z"/>
<path d="M570 349 c-30 -4 -93 -13 -140 -20 -70 -10 -81 -14 -63 -22 15 -6 40
-6 75 1 33 6 57 7 64 1 13 -10 28 -124 19 -139 -3 -5 -24 0 -50 12 -43 21 -44
23 -30 44 17 27 10 54 -14 54 -10 0 -23 -18 -35 -48 -11 -26 -45 -73 -75 -106
-50 -53 -53 -57 -23 -42 18 9 53 37 79 61 26 25 48 45 49 45 2 0 54 -32 116
-71 67 -42 128 -73 150 -76 38 -6 138 14 138 26 0 4 -39 13 -87 20 -49 7 -107
22 -131 32 -41 18 -43 20 -40 56 2 24 8 39 18 40 98 13 110 15 104 25 -4 6
-26 8 -59 4 l-53 -6 -4 41 c-2 22 -2 42 1 45 2 2 39 4 82 4 74 0 107 11 73 24
-21 8 -95 6 -164 -5z"/>
</g>
</svg>
