<?xml version="1.0" standalone="no"?>
<!DOCTYPE svg PUBLIC "-//W3C//DTD SVG 20010904//EN"
 "http://www.w3.org/TR/2001/REC-SVG-20010904/DTD/svg10.dtd">
<svg version="1.0" xmlns="http://www.w3.org/2000/svg"
 width="90.000000pt" height="92.000000pt" viewBox="0 0 90.000000 92.000000"
 preserveAspectRatio="xMidYMid meet">
<metadata>
Created by potrace 1.16, written by Peter Selinger 2001-2019
</metadata>
<g transform="translate(0.000000,92.000000) scale(0.100000,-0.100000)"
fill="#000000" stroke="none">
<path d="M240 793 l29 -48 -124 -14 c-69 -8 -125 -18 -125 -23 0 -4 13 -14 28
-22 24 -13 37 -13 96 0 37 8 122 21 189 30 67 9 124 17 126 19 1 2 0 9 -4 16
-6 8 -30 10 -81 6 l-73 -5 6 29 c5 26 2 31 -30 44 -64 26 -70 20 -37 -32z"/>
<path d="M709 766 c-2 -3 -47 -12 -99 -20 -52 -9 -106 -19 -120 -22 -24 -5
-24 -6 -6 -20 11 -8 37 -14 58 -14 46 0 50 -19 15 -71 -19 -28 -28 -33 -51
-31 -25 3 -28 1 -20 -15 9 -19 11 -159 4 -249 -3 -35 0 -57 10 -69 13 -16 15
-16 27 1 12 17 13 16 13 -4 0 -29 -27 -72 -84 -132 -26 -28 -42 -50 -35 -50
22 0 103 58 154 110 l50 51 -24 18 c-23 18 -23 18 50 24 41 4 75 3 77 -2 1 -4
9 -17 17 -27 15 -19 15 -19 30 0 12 15 15 50 15 152 0 72 3 145 6 161 5 25 1
33 -22 48 -25 16 -34 17 -93 6 -36 -7 -76 -15 -89 -18 -20 -5 -18 0 17 37 30
32 38 46 30 56 -15 18 -3 22 94 30 48 4 87 10 87 15 0 24 -93 53 -111 35z m19
-227 c3 -35 2 -36 -27 -31 -26 3 -85 -6 -153 -24 -11 -3 -15 0 -13 13 2 10 4
27 4 39 1 17 11 23 59 31 31 6 73 10 92 9 33 -1 35 -3 38 -37z m10 -94 c0 -31
-2 -34 -23 -29 -20 5 -68 -1 -162 -22 -19 -3 -23 0 -23 18 0 28 15 52 26 45 5
-3 38 1 74 8 106 21 108 20 108 -20z m2 -94 l0 -38 -42 1 c-24 0 -71 -3 -105
-8 l-63 -8 0 37 c0 33 2 37 23 32 12 -3 56 1 97 8 41 7 78 13 83 14 4 1 7 -16
7 -38z"/>
<path d="M305 659 c-38 -11 -105 -21 -147 -22 -43 -1 -77 -4 -75 -7 18 -30 36
-85 42 -127 10 -73 21 -85 66 -73 20 6 74 12 120 13 l84 3 32 90 c18 49 33 92
33 96 0 10 -40 35 -65 41 -11 3 -51 -4 -90 -14z m75 -66 c0 -21 -5 -54 -10
-74 -10 -35 -12 -36 -68 -43 -31 -4 -73 -9 -94 -12 l-36 -6 -12 58 c-6 33 -14
67 -16 77 -4 14 1 17 33 18 21 0 56 4 78 8 22 5 59 9 83 10 l42 1 0 -37z"/>
<path d="M280 589 c-14 -4 -42 -7 -62 -8 l-37 -1 15 -27 c7 -16 14 -33 14 -40
0 -6 5 -15 10 -18 15 -9 101 6 94 17 -3 5 1 20 10 33 9 13 16 27 16 29 0 13
-37 22 -60 15z m11 -41 c-11 -30 -61 -38 -61 -10 0 25 8 32 41 32 25 0 27 -3
20 -22z"/>
<path d="M265 399 c-44 -10 -92 -15 -107 -13 l-28 6 15 -36 c8 -19 15 -46 15
-58 0 -13 5 -40 11 -61 9 -33 12 -37 26 -25 9 7 45 13 86 14 l70 1 23 79 c13
44 23 80 24 81 0 1 -12 8 -27 16 -24 11 -40 10 -108 -4z m73 -47 c3 -19 -1
-22 -30 -20 -18 0 -52 -2 -75 -7 -39 -7 -43 -6 -43 13 0 17 8 22 48 27 26 4
52 8 57 10 22 8 40 -1 43 -23z m-10 -64 c-3 -20 -11 -24 -58 -30 -62 -8 -80
-5 -80 16 0 9 19 17 58 24 85 14 84 14 80 -10z"/>
<path d="M730 161 c33 -43 67 -81 75 -85 23 -9 34 24 21 63 -8 27 -24 42 -71
67 -33 19 -65 34 -72 34 -7 0 15 -36 47 -79z"/>
<path d="M290 184 c-69 -12 -158 -23 -197 -23 -56 -1 -73 -4 -73 -15 0 -23 58
-59 83 -53 12 4 76 22 142 41 66 19 139 40 163 46 23 6 42 15 42 20 0 13 -9
12 -160 -16z"/>
</g>
</svg>
