<?xml version="1.0" standalone="no"?>
<!DOCTYPE svg PUBLIC "-//W3C//DTD SVG 20010904//EN"
 "http://www.w3.org/TR/2001/REC-SVG-20010904/DTD/svg10.dtd">
<svg version="1.0" xmlns="http://www.w3.org/2000/svg"
 width="90.000000pt" height="92.000000pt" viewBox="0 0 90.000000 92.000000"
 preserveAspectRatio="xMidYMid meet">
<metadata>
Created by potrace 1.16, written by Peter Selinger 2001-2019
</metadata>
<g transform="translate(0.000000,92.000000) scale(0.100000,-0.100000)"
fill="#000000" stroke="none">
<path d="M416 801 c5 -34 4 -39 -17 -44 -13 -4 -35 -7 -47 -7 -15 0 -22 -5
-19 -12 2 -8 21 -13 45 -13 36 0 42 -3 42 -21 0 -17 -8 -23 -34 -28 -19 -4
-46 -4 -60 0 -24 6 -39 -10 -16 -18 5 -2 16 -36 23 -76 14 -72 26 -98 34 -74
3 6 15 12 28 12 18 0 22 -4 18 -19 -4 -15 -17 -21 -54 -26 -27 -4 -49 -11 -49
-16 0 -13 46 -22 74 -15 21 5 24 2 28 -32 3 -20 4 -39 2 -41 -4 -4 -177 -21
-180 -18 -1 1 -5 23 -9 49 l-7 46 43 9 c29 6 45 14 47 26 4 19 -22 23 -61 8
-22 -9 -25 -7 -31 21 -9 47 -9 47 34 54 47 8 71 29 42 38 -11 4 -31 2 -46 -4
-36 -13 -34 -14 -41 18 -10 47 9 78 59 97 50 19 56 33 28 58 -27 25 -36 21
-66 -23 -22 -34 -32 -40 -61 -40 -38 0 -40 -2 -25 -28 17 -30 49 -326 36 -334
-6 -4 -46 -8 -88 -8 -84 0 -97 -10 -46 -36 29 -15 39 -15 127 0 116 19 481 40
572 33 109 -9 136 6 77 44 -27 16 -43 19 -86 14 -51 -6 -53 -6 -47 17 2 13 10
55 15 93 6 39 20 107 30 153 11 46 20 87 20 91 0 4 -13 15 -30 24 -28 17 -32
17 -82 1 -29 -10 -55 -19 -58 -21 -11 -10 27 -21 57 -16 l33 6 0 -52 c0 -47
-2 -51 -24 -51 -14 0 -37 -5 -53 -11 -22 -8 -24 -12 -13 -19 8 -6 30 -10 48
-10 31 0 33 -2 30 -32 -3 -29 -8 -35 -45 -46 -54 -18 -55 -32 -2 -32 39 0 41
-1 35 -26 -4 -15 -9 -39 -12 -54 -5 -25 -11 -28 -57 -34 -29 -3 -71 -6 -94 -6
-41 0 -42 1 -33 25 5 14 9 31 7 38 -1 8 14 13 43 15 25 1 52 5 60 8 26 9 -19
34 -61 34 -29 0 -38 4 -42 21 -5 19 -2 20 35 17 l40 -3 28 77 27 78 -24 15
c-13 9 -33 14 -43 11 -11 -4 -29 -9 -41 -12 -17 -5 -20 -2 -17 17 2 19 11 25
41 30 20 3 40 9 43 12 10 10 -41 26 -64 20 -17 -4 -19 -1 -14 22 5 29 -9 45
-41 45 -14 0 -16 -6 -11 -39z m106 -137 c3 -3 4 -13 1 -23 -3 -13 -12 -16 -34
-13 -27 4 -38 20 -22 35 8 8 47 9 55 1z m-102 -24 c0 -25 -48 -40 -61 -19 -14
23 -11 28 24 32 17 2 33 5 35 5 1 1 2 -7 2 -18z m93 -58 c-4 -16 -13 -22 -33
-22 -39 0 -34 33 6 41 36 7 34 8 27 -19z m-93 -12 c0 -15 -7 -20 -25 -20 -14
0 -25 2 -25 4 0 2 -3 11 -6 20 -5 13 1 16 25 16 24 0 31 -4 31 -20z"/>
<path d="M252 237 c-7 -19 -44 -64 -82 -102 -59 -56 -66 -66 -43 -60 50 12
221 129 222 151 1 11 -57 44 -76 44 -5 0 -14 -15 -21 -33z"/>
<path d="M570 265 c0 -4 16 -25 35 -48 19 -23 50 -62 68 -87 35 -48 76 -65 79
-33 5 63 -16 97 -87 138 -43 25 -95 42 -95 30z"/>
</g>
</svg>
