<?xml version="1.0" standalone="no"?>
<!DOCTYPE svg PUBLIC "-//W3C//DTD SVG 20010904//EN"
 "http://www.w3.org/TR/2001/REC-SVG-20010904/DTD/svg10.dtd">
<svg version="1.0" xmlns="http://www.w3.org/2000/svg"
 width="96.000000pt" height="68.000000pt" viewBox="0 0 96.000000 68.000000"
 preserveAspectRatio="xMidYMid meet">
<metadata>
Created by potrace 1.16, written by Peter Selinger 2001-2019
</metadata>
<g transform="translate(0.000000,68.000000) scale(0.100000,-0.100000)"
fill="#000000" stroke="none">
<path d="M460 550 c0 -24 -5 -31 -27 -36 -48 -10 -49 -12 -10 -13 26 -1 37 -5
37 -16 0 -8 9 -15 20 -15 11 0 20 6 20 14 0 15 21 26 51 26 11 0 17 5 14 10
-3 6 -17 10 -31 10 -17 0 -24 6 -24 19 0 17 -18 31 -41 31 -5 0 -9 -13 -9 -30z"/>
</g>
</svg>
