<?xml version="1.0" standalone="no"?>
<!DOCTYPE svg PUBLIC "-//W3C//DTD SVG 20010904//EN"
 "http://www.w3.org/TR/2001/REC-SVG-20010904/DTD/svg10.dtd">
<svg version="1.0" xmlns="http://www.w3.org/2000/svg"
 width="96.000000pt" height="68.000000pt" viewBox="0 0 96.000000 68.000000"
 preserveAspectRatio="xMidYMid meet">
<metadata>
Created by potrace 1.16, written by Peter Selinger 2001-2019
</metadata>
<g transform="translate(0.000000,68.000000) scale(0.100000,-0.100000)"
fill="#000000" stroke="none">
<path d="M316 143 c-8 -16 -38 -47 -66 -70 -54 -44 -53 -55 3 -27 49 25 147
88 147 96 0 5 -54 28 -66 28 -2 0 -10 -12 -18 -27z"/>
<path d="M657 105 c32 -36 64 -67 71 -70 36 -13 43 29 12 68 -16 20 -111 67
-136 67 -3 0 21 -29 53 -65z"/>
</g>
</svg>
