<?xml version="1.0" standalone="no"?>
<!DOCTYPE svg PUBLIC "-//W3C//DTD SVG 20010904//EN"
 "http://www.w3.org/TR/2001/REC-SVG-20010904/DTD/svg10.dtd">
<svg version="1.0" xmlns="http://www.w3.org/2000/svg"
 width="96.000000pt" height="68.000000pt" viewBox="0 0 96.000000 68.000000"
 preserveAspectRatio="xMidYMid meet">
<metadata>
Created by potrace 1.16, written by Peter Selinger 2001-2019
</metadata>
<g transform="translate(0.000000,68.000000) scale(0.100000,-0.100000)"
fill="#000000" stroke="none">
<path d="M530 573 c0 -5 16 -28 35 -50 28 -33 32 -42 19 -47 -26 -10 -134 -7
-134 4 0 6 -6 10 -12 10 -16 0 -62 -105 -53 -119 13 -22 34 -10 52 28 l18 39
110 16 c61 9 125 19 143 22 26 4 32 2 32 -14 0 -10 -5 -23 -12 -30 -20 -20 -3
-24 47 -11 56 14 67 34 34 61 -20 16 -34 18 -88 12 -36 -3 -70 -8 -78 -11 -9
-4 -13 4 -13 24 0 17 -8 37 -18 46 -21 19 -82 34 -82 20z"/>
</g>
</svg>
