<?xml version="1.0" standalone="no"?>
<!DOCTYPE svg PUBLIC "-//W3C//DTD SVG 20010904//EN"
 "http://www.w3.org/TR/2001/REC-SVG-20010904/DTD/svg10.dtd">
<svg version="1.0" xmlns="http://www.w3.org/2000/svg"
 width="90.000000pt" height="92.000000pt" viewBox="0 0 90.000000 92.000000"
 preserveAspectRatio="xMidYMid meet">
<metadata>
Created by potrace 1.16, written by Peter Selinger 2001-2019
</metadata>
<g transform="translate(0.000000,92.000000) scale(0.100000,-0.100000)"
fill="#000000" stroke="none">
<path d="M543 808 c-7 -24 -26 -65 -43 -91 -29 -46 -32 -48 -65 -41 -19 3 -35
4 -35 2 0 -2 9 -21 19 -42 11 -20 23 -66 26 -101 11 -95 12 -97 120 -79 62 10
95 12 106 5 26 -16 43 6 73 94 16 44 32 84 37 89 17 18 9 36 -23 56 -39 23
-71 25 -124 6 -22 -7 -59 -17 -84 -20 l-45 -8 70 67 70 66 -25 19 c-42 33 -64
26 -77 -22z m153 -143 c4 -8 3 -26 0 -39 -4 -18 -11 -22 -30 -19 -13 3 -59 -2
-101 -11 -43 -9 -79 -15 -81 -14 -1 2 -4 17 -6 33 l-3 30 100 16 c55 9 104 17
108 18 4 1 10 -6 13 -14z m-11 -107 c-4 -13 -9 -30 -11 -39 -3 -11 -12 -15
-27 -12 -12 2 -49 -3 -82 -11 -77 -21 -75 -21 -75 18 l0 34 93 15 c50 8 96 15
100 16 5 1 5 -9 2 -21z"/>
<path d="M205 813 c-10 -49 -54 -126 -99 -175 -24 -27 -40 -48 -35 -48 15 0
61 31 99 66 23 21 50 34 79 39 50 8 50 11 -13 -77 -43 -61 -54 -65 -143 -60
-37 2 -39 -3 -19 -44 8 -16 17 -58 21 -94 8 -72 23 -104 41 -89 6 5 48 14 93
21 70 9 84 9 91 -3 15 -23 30 2 51 87 12 43 25 87 31 98 9 16 6 24 -16 43 -32
27 -48 28 -107 8 l-44 -15 81 79 c45 44 78 84 75 90 -14 22 -55 29 -83 15 -16
-8 -40 -19 -54 -24 l-26 -10 22 35 c23 38 19 54 -21 76 -15 8 -19 5 -24 -18z
m135 -288 c0 -35 0 -35 -46 -35 -43 0 -46 2 -40 23 3 12 6 25 6 29 0 6 28 14
63 17 13 1 17 -7 17 -34z m-130 -14 c0 -30 -14 -41 -56 -41 -20 0 -24 5 -24
29 0 26 4 30 33 34 17 2 35 5 40 5 4 1 7 -11 7 -27z m120 -73 c0 -33 -11 -43
-47 -45 -30 -2 -33 0 -33 27 0 31 10 38 53 39 22 1 27 -3 27 -21z m-120 -27
c0 -25 -5 -31 -31 -36 -36 -8 -34 -9 -42 33 -6 32 -6 32 33 32 38 0 40 -2 40
-29z"/>
<path d="M647 410 c-15 -5 -68 -14 -117 -21 -97 -14 -115 -32 -37 -37 33 -2
47 -8 51 -20 2 -9 7 -27 11 -39 6 -20 2 -22 -55 -29 -33 -4 -63 -11 -66 -15
-9 -15 48 -30 88 -24 l38 7 0 -40 c0 -48 -3 -50 -125 -58 -52 -4 -95 -11 -95
-16 0 -5 15 -15 34 -23 29 -12 43 -12 102 0 38 8 142 18 232 21 169 7 186 13
125 45 -28 14 -41 14 -110 3 -118 -19 -113 -21 -113 30 l0 43 60 7 c97 11 91
50 -7 43 l-51 -3 -4 37 -3 38 55 6 c64 7 90 19 75 34 -16 15 -57 20 -88 11z"/>
<path d="M300 285 c0 -2 12 -29 27 -60 30 -60 46 -66 51 -18 2 24 -4 36 -28
57 -29 24 -50 33 -50 21z"/>
<path d="M46 222 c-33 -64 -35 -112 -5 -112 36 0 65 109 40 149 -7 11 -16 1
-35 -37z"/>
<path d="M220 256 c0 -19 43 -80 55 -78 20 3 16 50 -6 71 -26 24 -49 27 -49 7z"/>
<path d="M148 213 c20 -53 45 -64 50 -21 3 29 -27 68 -53 68 -13 0 -12 -7 3
-47z"/>
</g>
</svg>
