<?xml version="1.0" standalone="no"?>
<!DOCTYPE svg PUBLIC "-//W3C//DTD SVG 20010904//EN"
 "http://www.w3.org/TR/2001/REC-SVG-20010904/DTD/svg10.dtd">
<svg version="1.0" xmlns="http://www.w3.org/2000/svg"
 width="90.000000pt" height="92.000000pt" viewBox="0 0 90.000000 92.000000"
 preserveAspectRatio="xMidYMid meet">
<metadata>
Created by potrace 1.16, written by Peter Selinger 2001-2019
</metadata>
<g transform="translate(0.000000,92.000000) scale(0.100000,-0.100000)"
fill="#000000" stroke="none">
<path d="M199 797 c5 -13 11 -66 13 -118 l3 -94 -27 -3 -28 -3 0 74 c0 72 -1
75 -26 81 -15 4 -28 6 -30 4 -1 -2 2 -38 8 -81 5 -43 8 -80 6 -82 -2 -3 -28
-8 -58 -12 -29 -5 -55 -14 -57 -20 -7 -20 41 -33 79 -22 18 5 36 9 40 9 14 0
8 -41 -12 -80 -24 -46 -17 -51 21 -14 27 26 27 26 38 5 7 -12 16 -21 21 -21
15 0 12 50 -4 56 -8 3 -12 13 -9 25 4 13 -1 21 -17 27 -18 7 -12 10 35 19 l57
10 -7 -36 c-4 -19 -13 -48 -21 -63 -18 -35 -2 -36 25 -2 l21 26 18 -22 c11
-13 24 -20 30 -16 18 11 14 34 -8 46 -14 8 -19 17 -15 30 4 12 0 22 -12 28
-14 8 -7 11 32 17 76 10 95 15 95 25 0 17 -49 23 -101 13 l-49 -10 0 38 c0 40
1 41 67 54 42 8 51 23 21 34 -15 5 -34 3 -57 -6 l-34 -14 7 52 c8 58 1 69 -46
69 -25 0 -27 -2 -19 -23z"/>
<path d="M648 683 c1 -43 3 -98 5 -123 l2 -45 -43 0 -43 0 2 95 3 95 -27 9
c-15 5 -29 8 -31 5 -3 -2 -1 -31 3 -64 5 -33 9 -133 10 -221 2 -143 0 -162
-15 -168 -9 -4 -18 -5 -20 -3 -2 2 -6 60 -8 130 -3 70 -8 131 -11 137 -3 5
-15 10 -25 10 -17 0 -18 -6 -14 -47 3 -27 8 -94 12 -150 l7 -102 -25 -6 -25
-7 28 -24 28 -24 72 51 c40 28 81 60 92 72 l20 20 -20 -8 c-57 -21 -55 -25
-55 74 0 80 2 91 18 91 9 0 27 3 40 6 22 6 22 6 23 -112 2 -179 10 -196 101
-202 72 -5 128 16 128 46 0 9 -8 44 -18 77 l-19 60 -5 -49 c-3 -26 -13 -55
-22 -64 -23 -24 -94 -22 -112 3 -15 20 -19 109 -8 187 l6 45 58 6 c65 7 90 15
90 28 0 22 -46 26 -97 8 l-53 -18 0 47 c0 26 5 78 10 116 9 61 8 70 -7 82 -10
7 -27 14 -38 14 -19 0 -20 -5 -17 -77z"/>
<path d="M348 357 l3 -134 -78 -6 c-43 -4 -106 -9 -141 -13 l-62 -7 0 111 c0
102 -2 112 -21 122 -11 7 -27 9 -34 6 -12 -4 -12 -12 1 -48 11 -30 14 -72 12
-139 -3 -121 5 -135 61 -107 22 11 77 26 123 33 46 8 95 17 110 19 19 4 26 1
23 -7 -3 -7 0 -19 5 -27 9 -13 11 -13 20 0 5 8 10 24 10 35 1 11 7 76 14 145
12 111 11 126 -2 138 -9 6 -23 12 -31 12 -14 0 -16 -18 -13 -133z"/>
<path d="M171 394 c-41 -7 -76 -16 -79 -18 -14 -15 42 -18 122 -7 100 15 116
19 116 32 0 12 -70 9 -159 -7z"/>
<path d="M250 323 c-6 -16 -17 -40 -26 -55 -18 -34 -9 -36 23 -6 l23 21 23
-21 c13 -12 27 -19 30 -15 14 14 6 34 -18 45 -20 9 -23 14 -13 25 9 11 9 17
-3 24 -22 14 -29 11 -39 -18z"/>
<path d="M130 318 c0 -13 -9 -38 -20 -55 -22 -37 -14 -42 21 -14 22 18 25 18
42 3 16 -14 19 -14 27 -2 7 11 4 19 -8 28 -9 7 -16 18 -14 24 4 14 -18 38 -34
38 -8 0 -14 -10 -14 -22z"/>
</g>
</svg>
