<?xml version="1.0" standalone="no"?>
<!DOCTYPE svg PUBLIC "-//W3C//DTD SVG 20010904//EN"
 "http://www.w3.org/TR/2001/REC-SVG-20010904/DTD/svg10.dtd">
<svg version="1.0" xmlns="http://www.w3.org/2000/svg"
 width="96.000000pt" height="68.000000pt" viewBox="0 0 96.000000 68.000000"
 preserveAspectRatio="xMidYMid meet">
<metadata>
Created by potrace 1.16, written by Peter Selinger 2001-2019
</metadata>
<g transform="translate(0.000000,68.000000) scale(0.100000,-0.100000)"
fill="#000000" stroke="none">
<path d="M565 479 c-77 -10 -141 -18 -142 -18 -2 -1 6 -10 18 -22 20 -20 21
-28 16 -168 -3 -80 -8 -157 -11 -171 -12 -47 4 -55 76 -39 38 8 114 14 191 13
70 -1 127 2 127 6 0 4 -7 13 -16 20 -12 11 -45 11 -162 3 -81 -5 -153 -7 -161
-5 -11 4 -13 32 -7 156 9 203 5 192 78 200 34 3 94 6 134 6 76 0 96 12 48 30
-14 6 -31 9 -37 9 -7 -1 -75 -10 -152 -20z"/>
</g>
</svg>
