<?xml version="1.0" standalone="no"?>
<!DOCTYPE svg PUBLIC "-//W3C//DTD SVG 20010904//EN"
 "http://www.w3.org/TR/2001/REC-SVG-20010904/DTD/svg10.dtd">
<svg version="1.0" xmlns="http://www.w3.org/2000/svg"
 width="96.000000pt" height="68.000000pt" viewBox="0 0 96.000000 68.000000"
 preserveAspectRatio="xMidYMid meet">
<metadata>
Created by potrace 1.16, written by Peter Selinger 2001-2019
</metadata>
<g transform="translate(0.000000,68.000000) scale(0.100000,-0.100000)"
fill="#000000" stroke="none">
<path d="M687 535 c-15 -31 -27 -58 -27 -61 0 -7 27 13 81 59 35 31 41 40 29
47 -35 22 -55 11 -83 -45z"/>
<path d="M510 544 c0 -20 44 -74 61 -74 31 0 24 43 -10 63 -30 17 -51 22 -51
11z"/>
<path d="M685 450 c-22 -5 -80 -14 -128 -20 -62 -9 -86 -15 -78 -23 7 -7 46
-6 128 2 137 15 178 24 178 37 0 12 -51 14 -100 4z"/>
</g>
</svg>
