<?xml version="1.0" standalone="no"?>
<!DOCTYPE svg PUBLIC "-//W3C//DTD SVG 20010904//EN"
 "http://www.w3.org/TR/2001/REC-SVG-20010904/DTD/svg10.dtd">
<svg version="1.0" xmlns="http://www.w3.org/2000/svg"
 width="96.000000pt" height="68.000000pt" viewBox="0 0 96.000000 68.000000"
 preserveAspectRatio="xMidYMid meet">
<metadata>
Created by potrace 1.16, written by Peter Selinger 2001-2019
</metadata>
<g transform="translate(0.000000,68.000000) scale(0.100000,-0.100000)"
fill="#000000" stroke="none">
<path d="M290 572 c0 -40 -65 -146 -139 -224 -35 -37 -59 -68 -53 -68 31 0
139 100 186 172 28 42 56 77 61 77 6 0 21 -8 35 -19 39 -31 95 -23 58 8 -7 6
-30 13 -50 17 -22 4 -38 13 -38 21 0 13 -37 44 -52 44 -5 0 -8 -12 -8 -28z"/>
</g>
</svg>
