<?xml version="1.0" standalone="no"?>
<!DOCTYPE svg PUBLIC "-//W3C//DTD SVG 20010904//EN"
 "http://www.w3.org/TR/2001/REC-SVG-20010904/DTD/svg10.dtd">
<svg version="1.0" xmlns="http://www.w3.org/2000/svg"
 width="96.000000pt" height="68.000000pt" viewBox="0 0 96.000000 68.000000"
 preserveAspectRatio="xMidYMid meet">
<metadata>
Created by potrace 1.16, written by Peter Selinger 2001-2019
</metadata>
<g transform="translate(0.000000,68.000000) scale(0.100000,-0.100000)"
fill="#000000" stroke="none">
<path d="M530 323 c0 -4 7 -17 15 -27 8 -11 15 -25 15 -32 0 -13 -58 -23 -152
-26 -32 -1 -58 -5 -58 -9 0 -15 57 -25 100 -18 25 4 60 8 78 8 l33 1 -3 -62
c-3 -62 -4 -63 -30 -61 l-28 2 28 -35 c49 -62 70 -41 74 76 l3 85 123 3 c120
3 143 10 101 33 -21 11 -166 6 -211 -7 -14 -4 -18 1 -18 19 0 14 -6 29 -12 35
-19 14 -58 25 -58 15z"/>
</g>
</svg>
