<?xml version="1.0" standalone="no"?>
<!DOCTYPE svg PUBLIC "-//W3C//DTD SVG 20010904//EN"
 "http://www.w3.org/TR/2001/REC-SVG-20010904/DTD/svg10.dtd">
<svg version="1.0" xmlns="http://www.w3.org/2000/svg"
 width="90.000000pt" height="92.000000pt" viewBox="0 0 90.000000 92.000000"
 preserveAspectRatio="xMidYMid meet">
<metadata>
Created by potrace 1.16, written by Peter Selinger 2001-2019
</metadata>
<g transform="translate(0.000000,92.000000) scale(0.100000,-0.100000)"
fill="#000000" stroke="none">
<path d="M513 823 c19 -37 51 -172 43 -180 -3 -4 -52 -17 -107 -29 -109 -25
-121 -30 -99 -44 23 -15 58 -12 135 10 84 24 95 25 95 5 0 -8 19 -71 42 -141
l42 -125 -19 -32 c-10 -18 -34 -51 -53 -74 -19 -24 -32 -43 -28 -43 15 0 86
54 101 76 8 13 19 24 23 24 4 0 19 -22 35 -49 31 -56 88 -117 118 -126 34 -11
42 8 25 59 -9 26 -16 67 -16 91 0 56 -16 67 -25 17 -10 -63 -22 -72 -50 -37
-13 16 -32 44 -41 61 -17 32 -17 33 19 121 20 49 37 94 37 101 0 10 -49 42
-65 42 -3 0 -5 -19 -5 -41 0 -47 -19 -119 -31 -119 -8 0 -69 180 -69 205 0 13
26 19 113 27 37 4 37 19 1 40 -27 16 -34 16 -76 3 -56 -16 -54 -18 -64 92 -4
43 -12 81 -18 85 -6 4 -26 8 -44 8 -32 0 -32 0 -19 -27z"/>
<path d="M160 797 c0 -8 13 -39 30 -70 21 -39 26 -57 17 -60 -7 -3 -54 -11
-105 -18 -98 -14 -115 -27 -62 -49 25 -10 40 -10 88 3 31 9 97 23 146 32 49 8
91 17 93 19 11 11 -35 30 -68 29 -38 -2 -39 -1 -39 31 0 41 -16 61 -62 81 -31
13 -38 13 -38 2z"/>
<path d="M666 801 c-3 -4 16 -32 43 -62 42 -47 50 -52 65 -40 19 16 21 41 3
64 -14 20 -104 50 -111 38z"/>
<path d="M185 543 c-27 -9 -57 -18 -65 -20 -11 -4 -10 -8 8 -16 16 -7 42 -6
93 3 72 14 92 26 68 41 -19 12 -45 10 -104 -8z"/>
<path d="M478 525 c-2 -3 -1 -28 3 -57 8 -63 6 -68 -28 -68 -24 0 -25 3 -20
35 5 28 2 37 -13 45 -31 17 -53 13 -44 -7 4 -10 8 -34 8 -53 1 -30 -3 -35 -24
-38 -42 -6 -47 -21 -11 -33 30 -11 32 -14 27 -43 -3 -17 -17 -53 -31 -81 -13
-27 -22 -51 -20 -54 3 -2 18 10 34 28 28 30 61 106 61 143 0 11 7 18 19 18 11
0 27 3 37 7 16 6 17 -1 11 -95 -7 -105 -4 -132 18 -132 17 0 27 30 25 78 -1
20 -2 63 -1 95 1 52 3 57 24 57 12 0 28 4 36 9 10 7 8 12 -10 25 -13 9 -29 16
-36 16 -9 0 -13 16 -13 49 0 35 -4 51 -16 55 -19 7 -29 8 -36 1z"/>
<path d="M218 455 c-3 -3 -25 -9 -48 -13 -60 -10 -65 -32 -8 -32 50 1 126 14
136 24 3 4 0 11 -8 16 -16 10 -63 13 -72 5z"/>
<path d="M215 344 c-22 -9 -61 -15 -87 -15 -47 0 -47 -1 -33 -22 8 -12 19 -45
25 -74 12 -55 39 -104 40 -70 0 13 9 17 39 17 21 0 53 3 70 6 25 5 29 9 20 20
-8 10 -4 28 16 71 24 54 25 58 9 70 -23 16 -49 15 -99 -3z m36 -36 c6 -68 -14
-98 -63 -98 -24 0 -28 4 -28 29 0 16 -3 36 -6 44 -4 11 6 18 33 25 53 14 63
14 64 0z"/>
</g>
</svg>
