<?xml version="1.0" standalone="no"?>
<!DOCTYPE svg PUBLIC "-//W3C//DTD SVG 20010904//EN"
 "http://www.w3.org/TR/2001/REC-SVG-20010904/DTD/svg10.dtd">
<svg version="1.0" xmlns="http://www.w3.org/2000/svg"
 width="96.000000pt" height="68.000000pt" viewBox="0 0 96.000000 68.000000"
 preserveAspectRatio="xMidYMid meet">
<metadata>
Created by potrace 1.16, written by Peter Selinger 2001-2019
</metadata>
<g transform="translate(0.000000,68.000000) scale(0.100000,-0.100000)"
fill="#000000" stroke="none">
<path d="M284 543 c-11 -46 -54 -124 -64 -118 -5 3 -7 0 -5 -7 3 -8 -25 -45
-65 -86 -38 -40 -70 -75 -70 -77 0 -13 25 -1 85 41 75 51 108 55 113 13 3 -25
0 -27 -52 -33 -72 -9 -72 -26 -1 -26 l55 0 0 -55 c0 -54 0 -54 -37 -64 -21 -6
-62 -11 -90 -11 -64 0 -73 -23 -19 -45 31 -13 40 -13 88 5 29 10 92 31 141 45
54 16 87 31 87 39 0 13 -38 10 -102 -10 -15 -5 -18 1 -18 40 0 49 18 76 53 76
12 0 29 5 37 10 22 15 -3 28 -46 23 -30 -3 -34 -1 -34 20 0 19 8 25 36 33 19
5 35 14 35 19 -2 11 -44 11 -115 0 l-49 -8 39 56 c21 31 43 56 48 57 4 0 21
-11 38 -25 32 -27 37 -29 57 -16 24 16 3 50 -40 62 -25 8 -39 18 -39 29 0 44
-56 55 -66 13z"/>
<path d="M660 430 c-19 -5 -65 -12 -102 -15 -74 -8 -90 -22 -30 -27 l37 -3 -3
-55 c-2 -30 -5 -56 -7 -58 -2 -3 -24 -7 -50 -9 -58 -7 -59 -23 0 -23 47 0 51
-4 36 -42 -5 -13 -12 -35 -15 -51 -6 -25 -10 -27 -54 -27 -26 0 -53 -4 -61 -9
-26 -17 50 -23 133 -12 43 6 131 11 197 11 66 0 119 4 119 9 0 16 -65 32 -104
25 -38 -6 -38 -5 -32 25 3 17 9 44 12 61 5 26 10 30 37 30 18 0 43 3 55 7 32
8 9 23 -35 23 -38 0 -40 8 -17 76 14 43 14 47 -3 60 -20 15 -60 16 -113 4z
m52 -81 c-2 -30 -6 -57 -10 -61 -10 -9 -102 -16 -102 -8 0 4 6 25 14 47 9 24
11 45 5 54 -7 11 1 15 34 20 23 3 47 5 52 4 6 -1 9 -26 7 -56z m-26 -134 c-10
-74 -19 -85 -76 -85 -57 0 -58 3 -34 73 16 47 22 51 93 56 23 1 23 -1 17 -44z"/>
<path d="M377 237 c2 -4 -3 -19 -12 -33 -23 -36 -13 -40 34 -13 44 25 48 31
28 47 -15 13 -58 12 -50 -1z"/>
<path d="M170 212 c0 -14 51 -62 65 -62 23 0 18 37 -7 54 -23 17 -58 21 -58 8z"/>
</g>
</svg>
