<?xml version="1.0" standalone="no"?>
<!DOCTYPE svg PUBLIC "-//W3C//DTD SVG 20010904//EN"
 "http://www.w3.org/TR/2001/REC-SVG-20010904/DTD/svg10.dtd">
<svg version="1.0" xmlns="http://www.w3.org/2000/svg"
 width="96.000000pt" height="68.000000pt" viewBox="0 0 96.000000 68.000000"
 preserveAspectRatio="xMidYMid meet">
<metadata>
Created by potrace 1.16, written by Peter Selinger 2001-2019
</metadata>
<g transform="translate(0.000000,68.000000) scale(0.100000,-0.100000)"
fill="#000000" stroke="none">
<path d="M577 563 c3 -21 7 -40 9 -42 11 -12 -24 -31 -57 -31 -22 0 -39 -4
-39 -10 0 -5 23 -10 50 -10 43 0 50 -3 50 -20 0 -15 -9 -21 -40 -26 -22 -4
-37 -11 -34 -16 3 -5 14 -6 23 -3 26 8 51 -4 51 -25 0 -17 -50 -30 -121 -30
-16 0 -29 -5 -29 -11 0 -12 14 -11 263 11 75 7 137 17 137 21 0 16 -48 20
-106 10 -89 -17 -104 -15 -104 13 0 21 6 24 52 30 37 5 48 10 38 16 -8 5 -32
7 -52 3 -34 -5 -38 -3 -38 15 0 17 8 22 38 27 51 9 62 13 62 24 0 16 -28 20
-60 9 -38 -13 -47 -6 -31 28 10 22 9 28 -6 40 -10 7 -28 14 -40 14 -20 0 -21
-4 -16 -37z"/>
<path d="M265 544 c11 -58 21 -184 15 -194 -3 -4 -42 -11 -88 -15 -45 -4 -85
-11 -87 -15 -8 -13 61 -21 104 -11 31 7 41 6 41 -3 0 -20 -59 -103 -97 -136
-19 -17 -33 -34 -30 -37 10 -9 97 58 120 93 12 18 25 34 29 34 7 0 3 -54 -12
-135 -8 -46 5 -95 25 -95 22 0 24 10 26 123 1 58 5 111 9 117 4 6 18 -6 34
-30 30 -45 56 -53 56 -16 0 25 -35 60 -71 71 -10 4 -19 13 -19 21 0 10 13 14
45 14 25 0 45 5 45 10 0 6 -21 10 -46 10 -44 0 -45 1 -40 28 3 15 8 61 12 103
6 75 5 77 -17 84 -67 19 -62 21 -54 -21z"/>
<path d="M373 440 c-13 -21 -23 -41 -23 -44 0 -3 23 4 50 16 53 22 63 41 31
58 -30 15 -34 13 -58 -30z"/>
<path d="M160 443 c0 -17 53 -73 71 -73 32 0 25 46 -11 65 -30 16 -60 20 -60
8z"/>
<path d="M651 311 c-8 -5 -46 -12 -85 -16 l-71 -6 3 -49 c2 -27 -3 -73 -12
-103 -18 -62 -20 -93 -7 -102 16 -9 41 25 47 65 l6 38 66 7 c36 4 72 9 79 12
11 4 14 -4 11 -38 -3 -44 -3 -44 -38 -41 l-35 2 40 -35 c22 -19 43 -34 46 -35
4 0 13 10 22 23 20 30 28 259 10 276 -14 13 -62 14 -82 2z m37 -48 c3 -18 -1
-23 -20 -23 -13 0 -47 -3 -75 -6 -49 -6 -53 -5 -53 14 0 17 8 22 38 27 20 4
44 8 52 10 34 7 55 -1 58 -22z m2 -60 c0 -24 -4 -28 -27 -28 -16 -1 -49 -4
-75 -8 -46 -8 -48 -7 -48 16 0 22 6 24 73 34 39 5 73 10 75 11 1 1 2 -10 2
-25z"/>
</g>
</svg>
