<?xml version="1.0" standalone="no"?>
<!DOCTYPE svg PUBLIC "-//W3C//DTD SVG 20010904//EN"
 "http://www.w3.org/TR/2001/REC-SVG-20010904/DTD/svg10.dtd">
<svg version="1.0" xmlns="http://www.w3.org/2000/svg"
 width="96.000000pt" height="68.000000pt" viewBox="0 0 96.000000 68.000000"
 preserveAspectRatio="xMidYMid meet">
<metadata>
Created by potrace 1.16, written by Peter Selinger 2001-2019
</metadata>
<g transform="translate(0.000000,68.000000) scale(0.100000,-0.100000)"
fill="#000000" stroke="none">
<path d="M525 342 c0 -100 1 -107 20 -107 18 0 20 8 25 100 6 101 2 115 -30
115 -12 0 -15 -19 -15 -108z"/>
<path d="M646 382 c80 -70 125 -87 132 -49 3 12 -9 23 -40 37 -42 19 -111 28
-92 12z"/>
<path d="M392 346 c-7 -18 -21 -41 -32 -51 -11 -10 -20 -22 -20 -26 0 -15 34
3 83 44 38 31 45 42 36 53 -22 26 -54 17 -67 -20z"/>
</g>
</svg>
