<?xml version="1.0" standalone="no"?>
<!DOCTYPE svg PUBLIC "-//W3C//DTD SVG 20010904//EN"
 "http://www.w3.org/TR/2001/REC-SVG-20010904/DTD/svg10.dtd">
<svg version="1.0" xmlns="http://www.w3.org/2000/svg"
 width="96.000000pt" height="68.000000pt" viewBox="0 0 96.000000 68.000000"
 preserveAspectRatio="xMidYMid meet">
<metadata>
Created by potrace 1.16, written by Peter Selinger 2001-2019
</metadata>
<g transform="translate(0.000000,68.000000) scale(0.100000,-0.100000)"
fill="#000000" stroke="none">
<path d="M310 588 c-8 -28 -36 -65 -90 -119 -74 -76 -76 -98 -3 -43 17 13 35
24 39 24 4 0 4 -38 1 -84 -4 -64 -3 -88 8 -102 13 -17 16 -17 25 -4 12 19 13
193 0 206 -6 6 9 30 41 67 53 60 55 78 10 90 -15 3 -21 -4 -31 -35z"/>
</g>
</svg>
