<?xml version="1.0" standalone="no"?>
<!DOCTYPE svg PUBLIC "-//W3C//DTD SVG 20010904//EN"
 "http://www.w3.org/TR/2001/REC-SVG-20010904/DTD/svg10.dtd">
<svg version="1.0" xmlns="http://www.w3.org/2000/svg"
 width="90.000000pt" height="92.000000pt" viewBox="0 0 90.000000 92.000000"
 preserveAspectRatio="xMidYMid meet">
<metadata>
Created by potrace 1.16, written by Peter Selinger 2001-2019
</metadata>
<g transform="translate(0.000000,92.000000) scale(0.100000,-0.100000)"
fill="#000000" stroke="none">
<path d="M517 868 c23 -64 -4 -186 -58 -256 -39 -52 -39 -52 -10 -38 27 15 64
53 86 91 10 16 15 14 59 -24 51 -45 69 -48 74 -13 3 18 -5 26 -40 42 -24 11
-51 20 -60 20 -37 0 -16 27 48 60 36 19 68 39 71 44 3 4 -4 17 -15 29 l-21 21
-42 -48 c-23 -26 -43 -46 -44 -44 -1 2 1 29 5 61 7 61 -3 77 -45 77 -13 0 -15
-5 -8 -22z"/>
<path d="M296 863 c5 -10 8 -50 8 -89 -2 -76 -30 -158 -65 -190 -20 -18 -25
-34 -10 -34 11 0 52 39 74 70 l17 24 28 -27 c28 -27 62 -36 62 -16 0 24 -22
48 -50 54 -31 7 -34 14 -24 51 5 20 35 35 113 60 11 3 8 10 -9 29 -13 14 -26
25 -29 25 -3 0 -15 -14 -26 -30 -29 -43 -38 -37 -33 20 5 47 4 49 -25 60 -39
13 -41 13 -31 -7z"/>
<path d="M190 753 c0 -18 52 -84 63 -80 19 6 19 42 0 59 -22 19 -63 33 -63 21z"/>
<path d="M409 712 c17 -33 40 -47 54 -33 17 17 -4 45 -37 49 -24 3 -26 1 -17
-16z"/>
<path d="M670 589 c-92 -18 -288 -40 -397 -45 -98 -5 -113 -3 -113 10 0 33
-16 14 -49 -55 -29 -64 -31 -73 -17 -87 19 -20 36 -7 60 46 l17 38 96 13 c52
7 97 10 100 7 11 -11 -42 -75 -90 -109 -15 -10 -16 -15 -4 -30 12 -18 16 -18
72 -3 l60 15 -30 -25 c-16 -14 -51 -36 -77 -50 -27 -13 -48 -28 -48 -32 0 -13
46 -53 52 -46 3 3 29 11 56 19 60 15 62 13 62 -75 0 -81 -5 -90 -45 -83 l-34
6 39 -42 c44 -46 55 -45 75 3 17 41 20 197 4 206 -6 4 11 13 39 20 47 11 53
10 81 -11 35 -26 55 -17 49 21 -4 29 -42 58 -88 67 l-35 6 17 -25 17 -26 -37
-6 c-70 -10 -172 -18 -172 -13 0 2 51 35 113 72 61 38 113 69 115 70 8 6 -13
37 -31 47 -16 8 -22 8 -25 -1 -11 -32 -55 -69 -89 -75 -21 -4 -51 -9 -67 -12
-39 -8 -28 8 36 50 50 34 50 34 30 54 -19 19 -19 19 82 30 191 21 224 23 230
14 3 -5 -7 -26 -21 -47 -19 -27 -21 -37 -10 -32 9 3 43 12 76 18 33 7 62 18
65 25 7 18 -70 84 -97 83 -12 -1 -42 -5 -67 -10z"/>
<path d="M570 173 c86 -97 113 -108 108 -45 -3 34 -7 39 -58 64 -86 43 -101
37 -50 -19z"/>
<path d="M261 173 c-10 -21 -28 -47 -40 -57 -29 -26 -26 -37 7 -25 28 9 66 39
91 72 11 14 11 20 1 32 -20 24 -38 17 -59 -22z"/>
</g>
</svg>
