<?xml version="1.0" standalone="no"?>
<!DOCTYPE svg PUBLIC "-//W3C//DTD SVG 20010904//EN"
 "http://www.w3.org/TR/2001/REC-SVG-20010904/DTD/svg10.dtd">
<svg version="1.0" xmlns="http://www.w3.org/2000/svg"
 width="96.000000pt" height="68.000000pt" viewBox="0 0 96.000000 68.000000"
 preserveAspectRatio="xMidYMid meet">
<metadata>
Created by potrace 1.16, written by Peter Selinger 2001-2019
</metadata>
<g transform="translate(0.000000,68.000000) scale(0.100000,-0.100000)"
fill="#000000" stroke="none">
<path d="M207 574 c-3 -3 -2 -17 4 -31 5 -13 9 -47 9 -74 l0 -49 -65 0 c-36 0
-65 -3 -65 -6 0 -3 7 -12 15 -20 8 -8 19 -34 25 -57 18 -70 17 -69 55 -61 l35
6 0 -56 c0 -31 -3 -55 -7 -54 -14 2 -113 -14 -113 -20 0 -9 35 -31 50 -32 9 0
54 16 100 35 86 36 120 43 120 25 0 -5 10 -10 21 -10 17 0 20 4 15 23 -3 12
-6 25 -6 28 0 4 -8 9 -17 12 -10 2 -26 8 -37 12 -15 7 -17 5 -12 -12 5 -17 1
-23 -25 -32 -18 -6 -34 -11 -35 -11 -2 0 -4 22 -4 49 l0 50 56 7 c40 5 54 10
50 20 -3 7 6 29 20 49 13 20 24 39 24 44 0 18 -51 34 -96 28 l-47 -5 7 64 c6
56 4 64 -13 74 -22 11 -54 13 -64 4z m127 -173 c3 -5 3 -22 0 -39 -5 -24 -12
-31 -35 -34 -28 -4 -29 -3 -29 33 0 20 6 40 13 42 20 9 45 8 51 -2z m-116 -48
c-4 -51 -33 -58 -46 -11 -9 35 -1 48 31 48 15 0 18 -7 15 -37z"/>
<path d="M580 508 c-25 -5 -64 -7 -86 -4 -48 6 -57 1 -43 -26 15 -29 12 -340
-4 -350 -6 -4 -38 -8 -69 -8 -32 0 -58 -4 -58 -9 0 -16 73 -22 145 -12 39 6
135 11 215 11 153 0 183 6 154 31 -11 9 -37 13 -72 12 l-55 -2 7 178 c6 160 6
179 -9 185 -22 8 -69 6 -125 -6z m70 -122 l0 -104 -62 -8 c-35 -5 -67 -8 -73
-9 -14 0 -15 76 -1 80 6 2 37 6 69 10 42 5 57 11 57 22 0 16 -4 15 -102 -4
-27 -5 -28 -4 -28 38 0 67 12 77 93 78 l47 1 0 -104z m5 -187 l0 -54 -69 -7
c-39 -4 -74 -5 -78 -2 -4 3 -8 27 -8 53 l0 49 68 9 c37 6 72 9 77 8 6 -1 10
-26 10 -56z"/>
</g>
</svg>
