<?xml version="1.0" standalone="no"?>
<!DOCTYPE svg PUBLIC "-//W3C//DTD SVG 20010904//EN"
 "http://www.w3.org/TR/2001/REC-SVG-20010904/DTD/svg10.dtd">
<svg version="1.0" xmlns="http://www.w3.org/2000/svg"
 width="96.000000pt" height="68.000000pt" viewBox="0 0 96.000000 68.000000"
 preserveAspectRatio="xMidYMid meet">
<metadata>
Created by potrace 1.16, written by Peter Selinger 2001-2019
</metadata>
<g transform="translate(0.000000,68.000000) scale(0.100000,-0.100000)"
fill="#000000" stroke="none">
<path d="M547 529 c35 -60 73 -75 73 -29 0 22 -45 60 -72 60 -19 0 -19 -1 -1
-31z"/>
<path d="M210 543 c0 -22 53 -93 70 -93 45 0 25 81 -23 94 -29 8 -47 7 -47 -1z"/>
<path d="M605 454 c-49 -8 -110 -13 -134 -11 l-45 2 -15 -47 c-8 -27 -11 -51
-7 -55 13 -13 41 13 46 43 6 32 1 30 189 54 94 12 113 6 87 -31 -22 -32 -20
-40 7 -29 12 5 35 11 50 15 35 7 44 30 22 55 -22 24 -66 25 -200 4z"/>
<path d="M275 440 c-27 -4 -83 -13 -124 -20 -69 -11 -73 -14 -55 -27 13 -10
35 -13 69 -10 61 6 238 37 245 43 2 3 -2 9 -10 14 -17 11 -52 11 -125 0z"/>
<path d="M258 346 c-31 -6 -60 -15 -65 -20 -10 -11 129 2 140 13 15 15 -17 17
-75 7z"/>
<path d="M595 350 c-16 -4 -52 -8 -80 -9 l-50 -1 3 -130 3 -130 -45 0 c-25 0
-46 -4 -46 -9 0 -15 33 -18 100 -10 36 4 131 9 213 10 81 1 150 6 153 10 8 14
-46 30 -91 29 -22 -1 -45 -1 -50 -1 -11 1 -3 146 10 199 11 45 -39 63 -120 42z
m58 -47 c3 -16 2 -31 -1 -34 -4 -4 -35 -9 -69 -13 l-63 -6 0 34 c0 38 8 42 86
45 38 1 42 -2 47 -26z m-3 -90 c0 -28 -1 -28 -70 -31 -68 -3 -70 -3 -67 20 4
25 30 35 95 37 39 1 42 -1 42 -26z m0 -80 l0 -38 -70 -3 -70 -3 0 35 0 35 68
4 c37 2 68 4 70 5 1 1 2 -15 2 -35z"/>
<path d="M248 278 c-79 -14 -76 -33 3 -24 77 9 96 16 77 27 -7 5 -15 8 -18 8
-3 -1 -31 -6 -62 -11z"/>
<path d="M260 198 c-19 -5 -50 -8 -70 -6 l-35 3 17 -33 c9 -18 21 -47 27 -63
9 -26 13 -29 30 -20 11 6 38 11 60 11 35 0 41 3 41 21 0 11 10 34 21 51 18 25
19 32 8 39 -18 11 -54 10 -99 -3z m42 -13 c3 -3 2 -20 -1 -37 -5 -26 -13 -34
-40 -39 -28 -6 -34 -4 -42 18 -16 42 -11 52 29 56 20 2 40 4 43 5 3 1 8 0 11
-3z"/>
</g>
</svg>
