<?xml version="1.0" standalone="no"?>
<!DOCTYPE svg PUBLIC "-//W3C//DTD SVG 20010904//EN"
 "http://www.w3.org/TR/2001/REC-SVG-20010904/DTD/svg10.dtd">
<svg version="1.0" xmlns="http://www.w3.org/2000/svg"
 width="96.000000pt" height="68.000000pt" viewBox="0 0 96.000000 68.000000"
 preserveAspectRatio="xMidYMid meet">
<metadata>
Created by potrace 1.16, written by Peter Selinger 2001-2019
</metadata>
<g transform="translate(0.000000,68.000000) scale(0.100000,-0.100000)"
fill="#000000" stroke="none">
<path d="M220 535 c0 -20 45 -80 60 -80 21 0 25 43 5 65 -20 22 -65 32 -65 15z"/>
<path d="M310 440 c-25 -4 -84 -13 -132 -20 -49 -7 -88 -16 -88 -21 0 -19 71
-19 164 1 54 11 109 20 122 20 13 0 24 5 24 10 0 6 -4 10 -9 10 -5 0 -15 2
-23 4 -7 2 -33 0 -58 -4z"/>
</g>
</svg>
