<?xml version="1.0" standalone="no"?>
<!DOCTYPE svg PUBLIC "-//W3C//DTD SVG 20010904//EN"
 "http://www.w3.org/TR/2001/REC-SVG-20010904/DTD/svg10.dtd">
<svg version="1.0" xmlns="http://www.w3.org/2000/svg"
 width="90.000000pt" height="92.000000pt" viewBox="0 0 90.000000 92.000000"
 preserveAspectRatio="xMidYMid meet">
<metadata>
Created by potrace 1.16, written by Peter Selinger 2001-2019
</metadata>
<g transform="translate(0.000000,92.000000) scale(0.100000,-0.100000)"
fill="#000000" stroke="none">
<path d="M435 884 c-16 -14 -66 -43 -110 -64 -61 -30 -74 -39 -53 -40 29 0
247 68 263 82 12 11 -30 48 -54 48 -9 -1 -29 -12 -46 -26z"/>
<path d="M576 806 c-3 -14 -21 -44 -39 -68 -51 -67 -53 -72 -26 -58 52 26 149
96 149 107 0 12 -49 43 -68 43 -6 0 -13 -11 -16 -24z"/>
<path d="M375 743 c28 -66 44 -86 61 -72 15 12 19 47 6 65 -11 16 -55 44 -69
44 -10 0 -10 -8 2 -37z"/>
<path d="M247 698 c32 -61 56 -69 61 -21 3 28 -2 36 -30 53 -55 33 -62 26 -31
-32z"/>
<path d="M570 654 c-52 -7 -169 -18 -259 -25 -155 -11 -165 -11 -177 6 -17 22
-15 24 -43 -50 -33 -87 -36 -111 -15 -119 23 -9 31 0 54 60 10 27 24 48 30 46
7 -1 76 6 154 18 193 27 368 42 379 31 6 -6 2 -21 -10 -38 -37 -53 -37 -53 14
-38 26 8 57 15 69 15 11 0 29 7 40 15 18 14 18 16 -23 55 -48 46 -55 46 -213
24z"/>
<path d="M537 516 l6 -66 -57 0 c-56 0 -56 0 -56 -30 0 -16 -10 -59 -22 -95
-19 -59 -19 -68 -6 -81 11 -12 21 -13 42 -4 15 5 43 10 62 10 l34 0 0 -102 c0
-95 9 -143 23 -121 10 15 27 135 27 186 l0 47 84 0 c47 0 87 4 91 10 3 5 -6
17 -20 26 -20 13 -39 15 -90 10 l-65 -7 0 60 0 59 65 7 c36 3 65 11 65 15 0
19 -40 30 -84 24 -49 -7 -51 -6 -37 44 7 24 6 35 -5 47 -9 8 -19 15 -24 15 -5
0 -15 3 -24 6 -13 5 -15 -3 -9 -60z m3 -166 l0 -60 -45 0 c-25 0 -45 3 -45 8
0 7 18 76 25 100 3 6 18 12 35 12 l30 0 0 -60z"/>
<path d="M220 532 c0 -21 -47 -98 -97 -159 -35 -43 -33 -56 3 -28 10 8 22 15
26 15 3 0 22 -22 42 -50 l35 -49 -76 -71 c-78 -71 -80 -87 -8 -49 58 30 119
93 175 180 26 41 55 81 64 88 20 17 21 45 1 61 -12 10 -30 10 -75 3 -55 -9
-58 -8 -49 9 5 10 14 18 19 18 18 0 11 29 -9 40 -30 15 -51 12 -51 -8z m110
-97 c0 -7 -45 -94 -59 -115 -8 -12 -13 -10 -31 12 -11 15 -34 29 -50 33 l-30
7 30 28 c17 16 45 31 63 33 55 7 77 7 77 2z"/>
</g>
</svg>
