<?xml version="1.0" standalone="no"?>
<!DOCTYPE svg PUBLIC "-//W3C//DTD SVG 20010904//EN"
 "http://www.w3.org/TR/2001/REC-SVG-20010904/DTD/svg10.dtd">
<svg version="1.0" xmlns="http://www.w3.org/2000/svg"
 width="96.000000pt" height="68.000000pt" viewBox="0 0 96.000000 68.000000"
 preserveAspectRatio="xMidYMid meet">
<metadata>
Created by potrace 1.16, written by Peter Selinger 2001-2019
</metadata>
<g transform="translate(0.000000,68.000000) scale(0.100000,-0.100000)"
fill="#000000" stroke="none">
<path d="M285 560 c-8 -50 -66 -138 -139 -212 -31 -32 -52 -58 -48 -58 15 0
102 62 121 86 10 13 22 24 25 24 10 0 7 -131 -6 -213 -10 -70 -10 -79 6 -95
15 -15 18 -15 26 -2 5 8 10 33 11 55 1 22 4 87 8 145 6 84 4 108 -7 122 -13
15 -11 23 19 70 19 29 37 55 41 56 12 5 9 37 -4 50 -25 25 -46 14 -53 -28z"/>
</g>
</svg>
