<?xml version="1.0" standalone="no"?>
<!DOCTYPE svg PUBLIC "-//W3C//DTD SVG 20010904//EN"
 "http://www.w3.org/TR/2001/REC-SVG-20010904/DTD/svg10.dtd">
<svg version="1.0" xmlns="http://www.w3.org/2000/svg"
 width="96.000000pt" height="68.000000pt" viewBox="0 0 96.000000 68.000000"
 preserveAspectRatio="xMidYMid meet">
<metadata>
Created by potrace 1.16, written by Peter Selinger 2001-2019
</metadata>
<g transform="translate(0.000000,68.000000) scale(0.100000,-0.100000)"
fill="#000000" stroke="none">
<path d="M573 293 l2 -48 -127 -9 c-71 -5 -128 -12 -128 -17 0 -16 70 -21 133
-10 35 6 78 11 95 11 l32 0 0 -90 c0 -50 4 -90 10 -90 14 0 30 68 30 126 0 38
4 53 16 58 9 3 60 6 115 6 102 0 124 10 65 30 -24 8 -52 8 -97 0 -103 -16
-103 -16 -95 29 5 30 2 40 -10 45 -37 14 -44 7 -41 -41z"/>
</g>
</svg>
