<?xml version="1.0" standalone="no"?>
<!DOCTYPE svg PUBLIC "-//W3C//DTD SVG 20010904//EN"
 "http://www.w3.org/TR/2001/REC-SVG-20010904/DTD/svg10.dtd">
<svg version="1.0" xmlns="http://www.w3.org/2000/svg"
 width="90.000000pt" height="92.000000pt" viewBox="0 0 90.000000 92.000000"
 preserveAspectRatio="xMidYMid meet">
<metadata>
Created by potrace 1.16, written by Peter Selinger 2001-2019
</metadata>
<g transform="translate(0.000000,92.000000) scale(0.100000,-0.100000)"
fill="#000000" stroke="none">
<path d="M207 883 c-4 -3 -7 -15 -7 -25 0 -9 -17 -51 -37 -93 -35 -70 -40 -75
-69 -75 l-32 0 14 -37 c16 -46 17 -132 3 -280 -9 -97 -8 -116 6 -143 15 -30
35 -33 35 -5 0 10 26 15 98 20 109 8 118 11 102 31 -13 15 0 70 27 112 31 50
-29 72 -117 42 -91 -31 -100 -28 -100 24 l0 44 88 7 88 7 1 33 c1 18 11 54 23
81 l21 49 -22 17 c-27 23 -36 22 -110 -2 -34 -12 -65 -20 -70 -18 -5 2 23 40
61 85 39 45 70 87 70 92 0 6 -13 17 -30 26 -33 17 -34 17 -43 8z m63 -247 c0
-13 -3 -37 -6 -54 -5 -27 -11 -31 -53 -37 -25 -3 -54 -8 -63 -11 -16 -5 -18 2
-18 49 l0 54 43 10 c75 19 97 16 97 -11z m5 -283 c-4 -27 -10 -51 -13 -55 -4
-4 -38 -11 -75 -16 l-69 -9 6 30 c3 16 6 40 6 52 0 19 8 24 53 32 100 20 100
20 92 -34z"/>
<path d="M565 729 c-60 -11 -125 -22 -142 -25 -18 -2 -33 -9 -33 -13 0 -18 58
-29 100 -20 24 5 44 8 46 6 2 -2 7 -31 10 -64 l7 -60 -51 -7 c-28 -4 -63 -4
-78 0 -26 7 -26 7 -18 -37 9 -53 9 -69 0 -134 -6 -38 -4 -55 7 -70 9 -11 18
-17 21 -14 10 9 26 118 26 170 0 44 2 47 31 53 62 12 58 27 61 -236 2 -156 7
-242 13 -240 20 5 27 62 32 273 l5 217 37 6 c75 12 71 17 71 -95 l0 -102 -35
6 c-19 3 -35 5 -35 3 0 -9 79 -86 88 -86 21 0 40 55 47 130 3 41 8 94 11 117
5 39 3 44 -25 61 -28 17 -36 17 -93 6 -34 -7 -64 -12 -66 -10 -1 2 2 23 7 47
9 39 8 46 -9 60 -18 15 -15 17 48 23 37 3 84 6 105 6 41 0 46 9 19 33 -23 21
-63 20 -207 -4z"/>
</g>
</svg>
