<?xml version="1.0" standalone="no"?>
<!DOCTYPE svg PUBLIC "-//W3C//DTD SVG 20010904//EN"
 "http://www.w3.org/TR/2001/REC-SVG-20010904/DTD/svg10.dtd">
<svg version="1.0" xmlns="http://www.w3.org/2000/svg"
 width="96.000000pt" height="68.000000pt" viewBox="0 0 96.000000 68.000000"
 preserveAspectRatio="xMidYMid meet">
<metadata>
Created by potrace 1.16, written by Peter Selinger 2001-2019
</metadata>
<g transform="translate(0.000000,68.000000) scale(0.100000,-0.100000)"
fill="#000000" stroke="none">
<path d="M675 399 l-30 -8 30 2 c45 2 54 -8 49 -54 -3 -25 0 -47 8 -57 11 -13
11 -14 0 -8 -9 6 -12 3 -10 -10 2 -12 -5 -20 -20 -23 l-24 -6 26 -24 c14 -14
26 -19 26 -12 0 7 4 10 9 7 10 -7 33 42 26 55 -4 5 -1 34 4 65 10 50 9 59 -7
70 -19 15 -42 16 -87 3z m88 -44 c-3 -9 -8 -14 -10 -11 -3 3 -2 9 2 15 9 16
15 13 8 -4z"/>
<path d="M454 372 c11 -32 14 -122 5 -116 -5 3 -9 -2 -9 -10 0 -8 4 -17 8 -20
10 -6 31 31 30 54 0 8 2 34 5 58 4 35 3 42 -9 38 -8 -3 -14 -1 -14 4 0 6 -5
10 -11 10 -6 0 -8 -8 -5 -18z"/>
</g>
</svg>
