<?xml version="1.0" standalone="no"?>
<!DOCTYPE svg PUBLIC "-//W3C//DTD SVG 20010904//EN"
 "http://www.w3.org/TR/2001/REC-SVG-20010904/DTD/svg10.dtd">
<svg version="1.0" xmlns="http://www.w3.org/2000/svg"
 width="96.000000pt" height="68.000000pt" viewBox="0 0 96.000000 68.000000"
 preserveAspectRatio="xMidYMid meet">
<metadata>
Created by potrace 1.16, written by Peter Selinger 2001-2019
</metadata>
<g transform="translate(0.000000,68.000000) scale(0.100000,-0.100000)"
fill="#000000" stroke="none">
<path d="M520 141 c0 -12 23 -31 37 -31 21 0 15 14 -12 27 -14 6 -25 8 -25 4z"/>
<path d="M728 132 c11 -11 30 -25 41 -31 17 -10 20 -9 14 5 -5 13 -3 15 7 9 9
-6 11 -4 5 4 -4 7 -16 11 -26 8 -11 -3 -17 -1 -13 4 3 5 1 9 -5 9 -5 0 -17 3
-27 7 -14 5 -14 3 4 -15z"/>
<path d="M317 105 c-19 -41 -22 -65 -6 -65 5 0 7 4 4 10 -3 5 0 7 8 4 15 -5
27 22 27 64 0 32 -14 27 -33 -13z"/>
<path d="M440 88 c0 -15 50 -56 50 -41 0 5 4 3 8 -4 4 -7 24 -14 44 -17 21 -2
46 -7 57 -11 22 -7 141 23 141 35 0 7 -65 50 -75 50 -3 0 -2 -6 0 -12 11 -29
-13 -42 -73 -42 -64 1 -119 17 -139 42 -12 14 -13 14 -13 0z"/>
</g>
</svg>
