<?xml version="1.0" standalone="no"?>
<!DOCTYPE svg PUBLIC "-//W3C//DTD SVG 20010904//EN"
 "http://www.w3.org/TR/2001/REC-SVG-20010904/DTD/svg10.dtd">
<svg version="1.0" xmlns="http://www.w3.org/2000/svg"
 width="96.000000pt" height="68.000000pt" viewBox="0 0 96.000000 68.000000"
 preserveAspectRatio="xMidYMid meet">
<metadata>
Created by potrace 1.16, written by Peter Selinger 2001-2019
</metadata>
<g transform="translate(0.000000,68.000000) scale(0.100000,-0.100000)"
fill="#000000" stroke="none">
<path d="M511 545 c2 -24 0 -48 -4 -51 -4 -4 -32 -9 -62 -12 -71 -6 -71 -22 0
-22 48 0 55 -2 55 -20 0 -16 -9 -21 -51 -26 -40 -5 -48 -9 -34 -16 9 -6 28 -8
41 -5 13 2 24 0 24 -4 0 -12 38 -11 42 1 2 5 39 15 83 21 44 6 82 12 84 14 10
11 -53 15 -98 7 -50 -9 -52 -9 -49 12 3 18 15 23 76 35 39 7 72 17 72 22 0 14
-35 19 -70 9 -58 -17 -63 -14 -55 26 7 39 -3 54 -38 54 -15 0 -18 -7 -16 -45z"/>
</g>
</svg>
