<?xml version="1.0" standalone="no"?>
<!DOCTYPE svg PUBLIC "-//W3C//DTD SVG 20010904//EN"
 "http://www.w3.org/TR/2001/REC-SVG-20010904/DTD/svg10.dtd">
<svg version="1.0" xmlns="http://www.w3.org/2000/svg"
 width="96.000000pt" height="68.000000pt" viewBox="0 0 96.000000 68.000000"
 preserveAspectRatio="xMidYMid meet">
<metadata>
Created by potrace 1.16, written by Peter Selinger 2001-2019
</metadata>
<g transform="translate(0.000000,68.000000) scale(0.100000,-0.100000)"
fill="#000000" stroke="none">
<path d="M296 559 c4 -19 8 -50 9 -69 0 -33 -2 -35 -47 -45 -68 -15 -70 -25
-5 -25 56 0 57 0 57 -29 0 -34 -1 -35 -122 -52 -49 -7 -88 -16 -88 -20 0 -19
54 -19 151 0 57 12 128 25 157 29 68 9 63 28 -6 24 l-53 -2 3 32 c3 31 6 34
51 42 60 10 61 26 2 26 l-45 0 0 55 c0 37 -4 55 -12 55 -7 0 -24 3 -37 7 -22
6 -23 4 -15 -28z"/>
</g>
</svg>
