<?xml version="1.0" standalone="no"?>
<!DOCTYPE svg PUBLIC "-//W3C//DTD SVG 20010904//EN"
 "http://www.w3.org/TR/2001/REC-SVG-20010904/DTD/svg10.dtd">
<svg version="1.0" xmlns="http://www.w3.org/2000/svg"
 width="96.000000pt" height="68.000000pt" viewBox="0 0 96.000000 68.000000"
 preserveAspectRatio="xMidYMid meet">
<metadata>
Created by potrace 1.16, written by Peter Selinger 2001-2019
</metadata>
<g transform="translate(0.000000,68.000000) scale(0.100000,-0.100000)"
fill="#000000" stroke="none">
<path d="M293 523 l2 -68 -42 -5 c-74 -11 -72 -36 3 -34 42 1 44 -1 44 -27 0
-29 5 -27 -168 -54 -24 -4 -41 -12 -39 -18 6 -20 55 -25 114 -11 99 23 101 22
105 -42 1 -31 0 -58 -4 -60 -3 -2 -18 1 -32 7 -21 10 -23 14 -13 31 10 15 9
21 -3 28 -30 19 -45 10 -62 -38 -10 -26 -34 -67 -54 -90 -57 -67 -30 -63 38 5
l61 61 176 -90 176 -90 95 6 c77 5 175 21 149 25 -240 34 -336 57 -451 105
-33 14 -38 20 -38 51 0 33 1 34 42 37 24 2 43 9 46 17 4 11 -5 12 -41 7 -40
-6 -45 -5 -42 11 2 10 4 25 4 35 1 12 15 18 60 23 48 6 59 10 58 24 0 11 -8
17 -17 15 -8 -1 -34 -5 -57 -7 -42 -5 -43 -4 -43 23 0 30 4 32 68 45 17 4 32
11 32 16 0 13 -46 22 -75 15 -25 -6 -25 -6 -19 47 6 51 5 54 -17 60 -55 15
-57 12 -56 -60z"/>
<path d="M591 515 c-56 -12 -90 -25 -82 -29 7 -4 23 -5 37 -2 18 5 24 2 24
-10 0 -27 -30 -82 -63 -114 -21 -20 -26 -30 -15 -30 35 0 125 114 119 152 -1
12 8 19 33 24 56 10 69 0 61 -43 -11 -59 -23 -76 -51 -69 -28 7 -29 4 -8 -29
33 -51 73 -21 99 72 7 26 16 55 19 64 6 12 -1 19 -25 28 -38 13 -31 14 -148
-14z"/>
<path d="M645 304 c-27 -7 -77 -14 -110 -14 -33 0 -55 -4 -49 -8 6 -4 20 -32
32 -62 22 -61 14 -59 147 -44 50 5 50 5 74 61 24 54 24 56 6 69 -23 17 -35 16
-100 -2z m51 -46 c-3 -13 -6 -30 -6 -39 0 -13 -14 -18 -61 -23 -34 -4 -65 -4
-69 1 -4 4 -11 22 -15 40 -6 30 -5 32 27 36 18 2 55 5 82 5 46 2 48 1 42 -20z"/>
</g>
</svg>
