<?xml version="1.0" standalone="no"?>
<!DOCTYPE svg PUBLIC "-//W3C//DTD SVG 20010904//EN"
 "http://www.w3.org/TR/2001/REC-SVG-20010904/DTD/svg10.dtd">
<svg version="1.0" xmlns="http://www.w3.org/2000/svg"
 width="96.000000pt" height="68.000000pt" viewBox="0 0 96.000000 68.000000"
 preserveAspectRatio="xMidYMid meet">
<metadata>
Created by potrace 1.16, written by Peter Selinger 2001-2019
</metadata>
<g transform="translate(0.000000,68.000000) scale(0.100000,-0.100000)"
fill="#000000" stroke="none">
<path d="M305 352 c-5 -4 -10 -20 -10 -37 0 -29 -2 -30 -62 -38 -35 -5 -63
-13 -63 -18 0 -5 29 -9 65 -9 l65 0 0 -34 c0 -32 -2 -34 -46 -40 -26 -3 -66
-6 -90 -6 -51 0 -56 -13 -13 -35 27 -15 35 -15 77 -1 26 9 96 27 155 40 60 13
111 27 115 30 14 14 -10 15 -76 3 -40 -8 -74 -12 -77 -9 -10 11 -5 63 8 67 6
2 33 6 60 10 66 9 60 28 -8 23 l-55 -3 0 33 c0 32 -20 43 -45 24z"/>
</g>
</svg>
