<?xml version="1.0" standalone="no"?>
<!DOCTYPE svg PUBLIC "-//W3C//DTD SVG 20010904//EN"
 "http://www.w3.org/TR/2001/REC-SVG-20010904/DTD/svg10.dtd">
<svg version="1.0" xmlns="http://www.w3.org/2000/svg"
 width="96.000000pt" height="68.000000pt" viewBox="0 0 96.000000 68.000000"
 preserveAspectRatio="xMidYMid meet">
<metadata>
Created by potrace 1.16, written by Peter Selinger 2001-2019
</metadata>
<g transform="translate(0.000000,68.000000) scale(0.100000,-0.100000)"
fill="#000000" stroke="none">
<path d="M212 577 c6 -15 67 -57 84 -57 20 0 17 38 -3 48 -33 17 -85 23 -81 9z"/>
<path d="M146 428 c45 -55 84 -66 84 -24 0 18 -8 27 -31 35 -18 6 -41 11 -52
11 -20 0 -20 0 -1 -22z"/>
<path d="M247 299 c-16 -21 -45 -51 -65 -66 -20 -15 -41 -30 -45 -34 -12 -9
20 -69 36 -68 13 0 115 194 107 203 -3 2 -18 -13 -33 -35z"/>
</g>
</svg>
