<?xml version="1.0" standalone="no"?>
<!DOCTYPE svg PUBLIC "-//W3C//DTD SVG 20010904//EN"
 "http://www.w3.org/TR/2001/REC-SVG-20010904/DTD/svg10.dtd">
<svg version="1.0" xmlns="http://www.w3.org/2000/svg"
 width="96.000000pt" height="68.000000pt" viewBox="0 0 96.000000 68.000000"
 preserveAspectRatio="xMidYMid meet">
<metadata>
Created by potrace 1.16, written by Peter Selinger 2001-2019
</metadata>
<g transform="translate(0.000000,68.000000) scale(0.100000,-0.100000)"
fill="#000000" stroke="none">
<path d="M200 586 c0 -16 66 -66 88 -66 28 0 40 26 21 46 -15 14 -109 32 -109
20z"/>
<path d="M555 555 c-33 -7 -86 -17 -119 -20 -71 -9 -57 -25 22 -25 l52 0 0
-66 c0 -36 -4 -63 -8 -60 -15 9 -192 -16 -185 -27 6 -10 128 -4 171 9 22 6 22
5 22 -77 0 -46 3 -121 7 -167 5 -75 8 -82 21 -68 12 12 17 48 20 163 3 94 9
151 16 155 6 4 54 8 106 9 52 0 104 4 115 8 19 8 19 8 -4 21 -24 12 -55 11
-185 -6 l-48 -7 7 53 c5 38 4 55 -5 60 -8 5 9 11 42 15 67 8 90 20 68 35 -19
12 -40 11 -115 -5z"/>
<path d="M130 448 c0 -7 12 -26 25 -41 18 -21 33 -27 52 -25 60 7 29 58 -44
73 -24 5 -33 3 -33 -7z"/>
<path d="M231 290 c-23 -28 -56 -57 -72 -65 -16 -9 -29 -22 -29 -31 0 -24 30
-76 42 -72 10 4 117 194 118 211 1 18 -20 3 -59 -43z"/>
</g>
</svg>
