<?xml version="1.0" standalone="no"?>
<!DOCTYPE svg PUBLIC "-//W3C//DTD SVG 20010904//EN"
 "http://www.w3.org/TR/2001/REC-SVG-20010904/DTD/svg10.dtd">
<svg version="1.0" xmlns="http://www.w3.org/2000/svg"
 width="96.000000pt" height="68.000000pt" viewBox="0 0 96.000000 68.000000"
 preserveAspectRatio="xMidYMid meet">
<metadata>
Created by potrace 1.16, written by Peter Selinger 2001-2019
</metadata>
<g transform="translate(0.000000,68.000000) scale(0.100000,-0.100000)"
fill="#000000" stroke="none">
<path d="M610 554 c-63 -7 -131 -10 -150 -7 -43 7 -60 6 -183 -3 -85 -6 -97
-9 -92 -23 15 -36 16 -128 2 -178 -19 -71 -9 -80 70 -64 31 6 74 11 95 11 l38
0 0 -52 c0 -31 -8 -68 -18 -88 -16 -32 -21 -35 -56 -33 l-40 3 33 -34 c28 -29
37 -33 55 -24 12 5 30 24 38 41 24 47 52 187 40 199 -5 5 -28 12 -51 15 -35 5
-41 9 -41 29 0 17 6 24 19 24 26 0 51 10 51 21 0 5 -16 9 -35 9 -28 0 -35 4
-35 20 0 14 7 20 23 20 12 0 28 4 35 9 11 7 10 10 -3 15 -9 3 -25 6 -36 6 -12
0 -19 7 -19 20 0 23 6 26 71 35 l45 6 20 -68 c14 -49 24 -68 36 -68 31 0 29
-13 -6 -40 -20 -15 -33 -31 -30 -36 3 -5 26 -9 52 -9 l47 -1 -24 -19 c-13 -11
-29 -20 -37 -20 -8 0 -14 -4 -14 -9 0 -5 -9 -11 -21 -14 -12 -3 -19 -12 -17
-19 5 -13 22 -14 98 -6 l35 3 3 -74 3 -73 -26 6 c-32 8 -32 3 2 -29 35 -32 47
-32 61 0 15 33 16 162 1 171 -17 10 10 24 48 24 18 0 44 -5 58 -12 32 -15 56
2 34 25 -22 21 -55 37 -80 37 -17 0 -19 -3 -10 -14 13 -16 -4 -20 -109 -31
-74 -8 -77 -11 63 62 70 36 76 43 53 62 -10 9 -21 3 -50 -24 -38 -35 -52 -40
-93 -29 -27 7 -21 21 13 34 13 5 24 16 24 24 0 16 64 30 115 24 27 -3 32 2 64
65 34 67 35 69 16 83 -21 16 -28 16 -185 -2z m130 -33 c0 -28 -2 -29 -50 -29
-46 0 -50 2 -50 24 0 20 6 23 43 27 23 2 45 4 50 5 4 1 7 -11 7 -27z m-148
-16 c-4 -21 -10 -25 -42 -25 -29 0 -39 5 -43 19 -7 27 0 31 48 31 40 0 42 -2
37 -25z m-282 -25 c0 -27 -3 -30 -30 -30 -27 0 -30 3 -30 30 0 27 3 30 30 30
27 0 30 -3 30 -30z m420 -20 c0 -14 -7 -20 -22 -20 -13 0 -33 -3 -45 -6 -18
-5 -23 -2 -23 14 0 17 8 22 38 25 20 2 40 4 45 5 4 1 7 -7 7 -18z m-142 -35
c-2 -2 -17 -5 -33 -7 -24 -2 -30 1 -30 17 0 28 58 39 63 12 2 -10 2 -20 0 -22z
m-278 -14 c0 -20 -18 -31 -51 -31 -12 0 -19 7 -19 18 0 25 9 32 42 32 21 0 28
-5 28 -19z m-2 -73 c-2 -18 -11 -24 -35 -26 -30 -3 -33 -1 -33 22 0 23 4 26
36 26 31 0 35 -3 32 -22z"/>
<path d="M326 225 c16 -24 44 -34 44 -17 0 13 -34 42 -49 42 -8 0 -6 -8 5 -25z"/>
<path d="M180 228 c1 -21 36 -62 44 -50 9 15 -1 35 -24 50 -16 10 -20 10 -20
0z"/>
<path d="M250 233 c1 -14 27 -43 39 -43 16 0 14 16 -5 34 -16 17 -34 21 -34 9z"/>
<path d="M115 196 c-19 -45 -19 -66 0 -66 18 0 35 31 35 64 0 39 -19 41 -35 2z"/>
<path d="M731 162 c29 -34 71 -70 94 -78 14 -6 16 -1 13 22 -2 23 -13 35 -53
56 -65 36 -83 36 -54 0z"/>
<path d="M490 170 c0 -5 -14 -25 -31 -45 -48 -54 2 -41 66 18 17 15 18 19 5
27 -20 13 -40 13 -40 0z"/>
</g>
</svg>
