<?xml version="1.0" standalone="no"?>
<!DOCTYPE svg PUBLIC "-//W3C//DTD SVG 20010904//EN"
 "http://www.w3.org/TR/2001/REC-SVG-20010904/DTD/svg10.dtd">
<svg version="1.0" xmlns="http://www.w3.org/2000/svg"
 width="96.000000pt" height="68.000000pt" viewBox="0 0 96.000000 68.000000"
 preserveAspectRatio="xMidYMid meet">
<metadata>
Created by potrace 1.16, written by Peter Selinger 2001-2019
</metadata>
<g transform="translate(0.000000,68.000000) scale(0.100000,-0.100000)"
fill="#000000" stroke="none">
<path d="M330 557 c-80 -11 -147 -22 -149 -24 -3 -2 1 -9 7 -15 19 -19 14
-155 -8 -244 -11 -43 -35 -109 -53 -146 -33 -68 -26 -72 25 -13 39 45 82 193
94 326 8 86 8 85 171 99 64 5 118 11 121 14 5 6 -44 27 -56 25 -4 -1 -72 -11
-152 -22z"/>
</g>
</svg>
