<?xml version="1.0" standalone="no"?>
<!DOCTYPE svg PUBLIC "-//W3C//DTD SVG 20010904//EN"
 "http://www.w3.org/TR/2001/REC-SVG-20010904/DTD/svg10.dtd">
<svg version="1.0" xmlns="http://www.w3.org/2000/svg"
 width="96.000000pt" height="68.000000pt" viewBox="0 0 96.000000 68.000000"
 preserveAspectRatio="xMidYMid meet">
<metadata>
Created by potrace 1.16, written by Peter Selinger 2001-2019
</metadata>
<g transform="translate(0.000000,68.000000) scale(0.100000,-0.100000)"
fill="#000000" stroke="none">
<path d="M360 554 c-41 -7 -96 -13 -122 -13 -48 -1 -63 -13 -31 -25 9 -4 64 1
121 10 140 23 139 24 118 -123 -16 -116 -39 -197 -63 -225 -11 -12 -24 -15
-51 -11 l-36 6 36 -38 c36 -38 36 -38 62 -22 41 28 64 85 89 234 13 76 29 148
35 160 17 31 15 38 -13 51 -31 14 -46 14 -145 -4z"/>
</g>
</svg>
