<?xml version="1.0" standalone="no"?>
<!DOCTYPE svg PUBLIC "-//W3C//DTD SVG 20010904//EN"
 "http://www.w3.org/TR/2001/REC-SVG-20010904/DTD/svg10.dtd">
<svg version="1.0" xmlns="http://www.w3.org/2000/svg"
 width="96.000000pt" height="68.000000pt" viewBox="0 0 96.000000 68.000000"
 preserveAspectRatio="xMidYMid meet">
<metadata>
Created by potrace 1.16, written by Peter Selinger 2001-2019
</metadata>
<g transform="translate(0.000000,68.000000) scale(0.100000,-0.100000)"
fill="#000000" stroke="none">
<path d="M590 209 c-25 -4 -109 -13 -187 -20 -79 -7 -143 -17 -143 -21 0 -24
25 -104 34 -110 17 -11 27 3 26 36 -4 65 -7 63 98 75 215 26 208 28 197 -48
-6 -45 -5 -51 12 -51 20 0 79 102 69 118 -11 18 -61 28 -106 21z"/>
</g>
</svg>
