<?xml version="1.0" standalone="no"?>
<!DOCTYPE svg PUBLIC "-//W3C//DTD SVG 20010904//EN"
 "http://www.w3.org/TR/2001/REC-SVG-20010904/DTD/svg10.dtd">
<svg version="1.0" xmlns="http://www.w3.org/2000/svg"
 width="96.000000pt" height="68.000000pt" viewBox="0 0 96.000000 68.000000"
 preserveAspectRatio="xMidYMid meet">
<metadata>
Created by potrace 1.16, written by Peter Selinger 2001-2019
</metadata>
<g transform="translate(0.000000,68.000000) scale(0.100000,-0.100000)"
fill="#000000" stroke="none">
<path d="M478 265 c3 -42 -1 -97 -8 -122 -10 -42 -9 -49 6 -60 14 -10 25 -5
75 34 63 49 71 65 20 39 -54 -29 -56 -26 -53 84 3 99 3 100 -20 100 -23 0 -23
-2 -20 -75z"/>
<path d="M676 304 c-40 -35 -60 -42 -71 -24 -3 6 -14 10 -23 10 -11 0 15 -34
73 -95 85 -90 92 -95 130 -95 68 1 70 13 5 44 -57 27 -150 99 -150 115 0 4 27
15 60 24 65 18 73 28 37 44 -19 9 -28 5 -61 -23z"/>
</g>
</svg>
