<?xml version="1.0" standalone="no"?>
<!DOCTYPE svg PUBLIC "-//W3C//DTD SVG 20010904//EN"
 "http://www.w3.org/TR/2001/REC-SVG-20010904/DTD/svg10.dtd">
<svg version="1.0" xmlns="http://www.w3.org/2000/svg"
 width="96.000000pt" height="68.000000pt" viewBox="0 0 96.000000 68.000000"
 preserveAspectRatio="xMidYMid meet">
<metadata>
Created by potrace 1.16, written by Peter Selinger 2001-2019
</metadata>
<g transform="translate(0.000000,68.000000) scale(0.100000,-0.100000)"
fill="#000000" stroke="none">
<path d="M350 594 c-7 -19 -39 -64 -72 -100 -64 -68 -59 -83 12 -35 37 25 53
29 118 30 41 1 78 3 82 6 4 2 37 5 74 6 49 1 71 -2 77 -12 15 -22 6 -309 -11
-342 -15 -30 -19 -30 -90 -10 -23 6 -21 2 18 -45 24 -29 49 -52 56 -52 15 0
58 45 77 80 8 15 16 82 20 175 4 83 10 164 14 181 6 28 4 32 -31 49 -38 18
-42 18 -182 -5 -78 -12 -146 -20 -149 -16 -4 3 10 23 30 44 20 21 37 41 37 45
0 6 -53 37 -64 37 -2 0 -10 -16 -16 -36z"/>
</g>
</svg>
