<?xml version="1.0" standalone="no"?>
<!DOCTYPE svg PUBLIC "-//W3C//DTD SVG 20010904//EN"
 "http://www.w3.org/TR/2001/REC-SVG-20010904/DTD/svg10.dtd">
<svg version="1.0" xmlns="http://www.w3.org/2000/svg"
 width="90.000000pt" height="92.000000pt" viewBox="0 0 90.000000 92.000000"
 preserveAspectRatio="xMidYMid meet">
<metadata>
Created by potrace 1.16, written by Peter Selinger 2001-2019
</metadata>
<g transform="translate(0.000000,92.000000) scale(0.100000,-0.100000)"
fill="#000000" stroke="none">
<path d="M480 835 c0 -23 -36 -91 -86 -162 -24 -35 -40 -63 -35 -63 4 0 25 15
47 34 43 37 54 36 102 -7 l22 -21 -32 -33 c-18 -19 -60 -51 -93 -73 -51 -33
-67 -39 -112 -38 l-51 1 5 34 c4 24 2 33 -8 34 -8 0 6 6 30 12 25 7 46 17 48
23 7 22 -29 24 -100 4 -39 -11 -73 -20 -75 -20 -2 0 7 17 20 38 12 20 37 63
53 94 l31 58 37 -41 c37 -42 60 -47 65 -13 3 24 -21 48 -62 61 -17 5 -30 17
-32 29 -3 18 -38 54 -54 54 -4 0 -11 -21 -15 -47 -4 -25 -18 -71 -31 -102 -31
-69 -106 -191 -133 -215 -12 -11 -21 -23 -21 -28 0 -19 24 -5 77 45 73 69 112
65 113 -9 0 -29 -3 -32 -37 -38 -59 -11 -74 -17 -68 -27 4 -5 28 -9 55 -9 l49
0 3 -84 3 -85 -42 -10 c-23 -6 -62 -11 -87 -11 -53 0 -58 -12 -18 -46 29 -25
52 -30 68 -14 5 5 59 30 119 55 61 26 114 50 119 55 20 20 -7 24 -53 7 -27 -9
-51 -17 -55 -17 -3 0 -6 38 -6 85 0 69 3 85 15 85 53 0 209 73 275 128 l34 29
67 -57 c37 -32 77 -61 89 -65 24 -8 160 13 160 24 0 4 -40 20 -89 35 -91 28
-191 79 -191 96 0 5 25 39 55 75 30 35 55 66 55 69 0 2 -14 13 -31 24 -31 19
-32 19 -85 1 -72 -25 -80 -24 -59 8 17 25 17 27 -1 40 -24 18 -54 17 -54 -2z
m111 -139 c-18 -25 -34 -46 -36 -46 -2 0 -24 11 -49 24 -42 22 -44 25 -30 45
11 15 26 21 52 22 20 0 46 4 57 9 36 14 38 -7 6 -54z"/>
<path d="M526 509 c3 -19 7 -41 8 -51 4 -19 -20 -28 -78 -28 -33 0 -37 -2 -26
-15 8 -9 30 -15 56 -15 40 0 44 -2 44 -24 0 -21 -6 -25 -50 -31 -44 -6 -49 -9
-38 -22 8 -10 25 -14 49 -11 32 3 38 0 42 -19 5 -24 -2 -27 -105 -39 -32 -3
-58 -10 -58 -15 0 -15 49 -22 106 -16 38 4 54 2 55 -6 0 -7 0 -41 0 -77 -1
-36 3 -78 8 -95 l8 -30 13 30 c7 17 15 66 19 110 l6 80 70 2 c39 2 85 5 103 9
33 5 34 6 15 26 -16 18 -25 20 -105 13 -83 -6 -88 -5 -88 13 0 23 18 32 65 32
19 0 36 4 40 9 10 17 -35 33 -71 26 -31 -5 -34 -4 -34 19 0 21 6 25 43 31 73
11 80 15 66 32 -10 11 -24 13 -57 8 l-45 -7 6 30 c7 34 -4 47 -46 57 -26 7
-27 6 -21 -26z"/>
<path d="M289 345 l-25 -55 23 15 c13 8 34 22 48 31 30 19 32 40 6 54 -11 5
-21 10 -23 10 -2 0 -14 -25 -29 -55z"/>
<path d="M80 351 c0 -23 43 -82 59 -79 23 4 25 41 4 60 -23 20 -63 32 -63 19z"/>
</g>
</svg>
