<?xml version="1.0" standalone="no"?>
<!DOCTYPE svg PUBLIC "-//W3C//DTD SVG 20010904//EN"
 "http://www.w3.org/TR/2001/REC-SVG-20010904/DTD/svg10.dtd">
<svg version="1.0" xmlns="http://www.w3.org/2000/svg"
 width="96.000000pt" height="68.000000pt" viewBox="0 0 96.000000 68.000000"
 preserveAspectRatio="xMidYMid meet">
<metadata>
Created by potrace 1.16, written by Peter Selinger 2001-2019
</metadata>
<g transform="translate(0.000000,68.000000) scale(0.100000,-0.100000)"
fill="#000000" stroke="none">
<path d="M568 547 c-55 -15 -46 -29 13 -21 48 6 51 6 41 -12 -6 -11 -20 -28
-31 -38 -20 -19 -23 -19 -57 -3 -39 19 -44 20 -44 9 0 -4 14 -16 32 -26 l31
-19 -34 -29 c-19 -16 -55 -40 -81 -53 -27 -14 -48 -27 -48 -30 0 -13 153 56
165 75 11 18 36 10 94 -30 50 -35 63 -40 111 -39 30 0 64 4 75 8 17 7 12 10
-25 20 -100 27 -200 66 -200 79 0 3 21 27 46 53 26 26 43 52 40 58 -9 13 -77
12 -128 -2z"/>
</g>
</svg>
