<?xml version="1.0" standalone="no"?>
<!DOCTYPE svg PUBLIC "-//W3C//DTD SVG 20010904//EN"
 "http://www.w3.org/TR/2001/REC-SVG-20010904/DTD/svg10.dtd">
<svg version="1.0" xmlns="http://www.w3.org/2000/svg"
 width="96.000000pt" height="68.000000pt" viewBox="0 0 96.000000 68.000000"
 preserveAspectRatio="xMidYMid meet">
<metadata>
Created by potrace 1.16, written by Peter Selinger 2001-2019
</metadata>
<g transform="translate(0.000000,68.000000) scale(0.100000,-0.100000)"
fill="#000000" stroke="none">
<path d="M690 279 c-19 -4 -83 -11 -142 -15 l-108 -7 0 -56 c-1 -31 -7 -74
-15 -95 -10 -29 -11 -45 -3 -60 10 -19 11 -19 24 -1 8 10 14 29 14 42 0 21 5
23 48 23 26 0 84 3 130 7 l84 6 -4 -29 c-3 -26 -6 -29 -38 -26 l-34 3 34 -31
c36 -32 39 -34 56 -22 23 15 32 50 33 130 1 45 4 88 7 96 10 27 -36 46 -86 35z
m28 -45 c3 -20 -4 -22 -98 -33 -145 -16 -148 -16 -143 13 5 23 11 25 82 31 42
4 81 8 86 10 6 2 24 3 40 2 22 -1 31 -8 33 -23z m2 -69 c0 -23 -3 -25 -48 -25
-27 0 -83 -3 -125 -6 -73 -7 -77 -6 -77 14 0 18 8 21 63 26 34 3 78 8 97 9 88
9 90 9 90 -18z"/>
</g>
</svg>
