<?xml version="1.0" standalone="no"?>
<!DOCTYPE svg PUBLIC "-//W3C//DTD SVG 20010904//EN"
 "http://www.w3.org/TR/2001/REC-SVG-20010904/DTD/svg10.dtd">
<svg version="1.0" xmlns="http://www.w3.org/2000/svg"
 width="96.000000pt" height="68.000000pt" viewBox="0 0 96.000000 68.000000"
 preserveAspectRatio="xMidYMid meet">
<metadata>
Created by potrace 1.16, written by Peter Selinger 2001-2019
</metadata>
<g transform="translate(0.000000,68.000000) scale(0.100000,-0.100000)"
fill="#000000" stroke="none">
<path d="M226 553 c12 -36 8 -305 -4 -407 -11 -81 -2 -126 24 -126 19 0 24 25
24 134 0 57 3 131 6 165 l7 61 33 -25 c40 -31 56 -32 52 -2 -2 16 -15 26 -46
37 l-44 15 7 75 c7 75 6 76 -20 88 -41 19 -48 16 -39 -15z"/>
<path d="M138 347 c-23 -55 -24 -90 -1 -85 22 4 47 70 39 103 -9 35 -18 31
-38 -18z"/>
</g>
</svg>
