<?xml version="1.0" standalone="no"?>
<!DOCTYPE svg PUBLIC "-//W3C//DTD SVG 20010904//EN"
 "http://www.w3.org/TR/2001/REC-SVG-20010904/DTD/svg10.dtd">
<svg version="1.0" xmlns="http://www.w3.org/2000/svg"
 width="96.000000pt" height="68.000000pt" viewBox="0 0 96.000000 68.000000"
 preserveAspectRatio="xMidYMid meet">
<metadata>
Created by potrace 1.16, written by Peter Selinger 2001-2019
</metadata>
<g transform="translate(0.000000,68.000000) scale(0.100000,-0.100000)"
fill="#000000" stroke="none">
<path d="M505 589 c-22 -4 -84 -9 -137 -11 -54 -1 -98 -4 -98 -6 0 -2 9 -15
20 -29 11 -14 20 -34 20 -45 0 -10 7 -32 15 -47 l14 -28 133 2 133 3 36 71
c36 72 36 72 15 86 -22 16 -87 18 -151 4z m85 -44 c0 -11 -11 -15 -37 -15 -21
0 -76 -3 -122 -7 -70 -5 -83 -4 -79 8 5 14 68 24 181 27 45 2 57 -1 57 -13z
m-10 -54 c0 -17 -17 -21 -112 -30 -90 -8 -107 -5 -108 21 0 6 49 11 173 16 26
1 47 -2 47 -7z"/>
<path d="M635 406 c-5 -2 -102 -9 -215 -16 -113 -7 -221 -16 -240 -20 l-35 -7
29 -12 c22 -9 54 -8 144 4 67 9 193 15 298 15 172 0 211 6 189 28 -7 7 -153
14 -170 8z"/>
<path d="M480 335 c-58 -8 -128 -14 -156 -14 l-52 -1 18 -36 c10 -19 21 -53
25 -75 l7 -39 65 0 c61 0 64 -1 61 -22 -3 -20 -10 -23 -55 -26 -63 -4 -72 -24
-10 -22 63 3 67 2 67 -19 0 -25 -9 -27 -120 -30 -95 -3 -135 -14 -88 -26 14
-4 85 -2 158 4 74 6 187 11 253 11 88 0 118 3 115 12 -8 23 -62 29 -162 18
-102 -12 -125 -7 -113 24 5 12 21 16 59 17 29 0 62 4 72 8 34 13 0 23 -66 19
-56 -3 -61 -1 -64 18 -3 19 2 23 39 26 23 3 50 1 59 -4 9 -4 23 -5 31 -2 19 7
72 143 60 155 -16 16 -96 18 -203 4z m124 -21 c9 -3 16 -15 16 -25 0 -17 -8
-19 -60 -19 -53 0 -60 2 -60 19 0 16 8 21 43 24 23 2 43 4 44 5 1 1 8 -1 17
-4z m-154 -36 c0 -21 -5 -23 -52 -25 -51 -2 -68 6 -68 35 0 8 19 12 60 12 56
0 60 -2 60 -22z m150 -48 c0 -16 -7 -20 -34 -20 -19 0 -41 -3 -50 -6 -11 -4
-16 0 -16 14 0 22 16 29 68 31 26 1 32 -3 32 -19z m-150 -9 c0 -22 -19 -31
-66 -31 -30 0 -34 3 -34 25 0 23 3 25 50 25 42 0 50 -3 50 -19z"/>
</g>
</svg>
