<?xml version="1.0" standalone="no"?>
<!DOCTYPE svg PUBLIC "-//W3C//DTD SVG 20010904//EN"
 "http://www.w3.org/TR/2001/REC-SVG-20010904/DTD/svg10.dtd">
<svg version="1.0" xmlns="http://www.w3.org/2000/svg"
 width="90.000000pt" height="92.000000pt" viewBox="0 0 90.000000 92.000000"
 preserveAspectRatio="xMidYMid meet">
<metadata>
Created by potrace 1.16, written by Peter Selinger 2001-2019
</metadata>
<g transform="translate(0.000000,92.000000) scale(0.100000,-0.100000)"
fill="#000000" stroke="none">
<path d="M559 796 c-2 -2 -105 -16 -229 -31 -124 -15 -226 -28 -227 -29 -1 -1
7 -21 18 -44 20 -39 21 -58 20 -240 -1 -109 -6 -214 -11 -233 -14 -48 -13 -53
14 -82 l24 -26 61 20 c78 24 321 41 470 32 98 -5 111 -4 111 10 0 21 -38 56
-67 64 -13 3 -121 -4 -241 -16 -119 -12 -239 -21 -266 -21 l-48 0 7 223 c8
270 8 274 43 281 54 11 200 25 325 32 133 7 152 16 105 48 -20 14 -98 23 -109
12z"/>
<path d="M510 594 c-30 -7 -88 -15 -128 -17 -39 -3 -72 -6 -73 -8 0 -2 4 -15
9 -29 6 -15 13 -57 17 -95 8 -89 24 -134 39 -113 7 10 39 17 91 22 143 12 155
16 142 37 -8 14 -7 31 7 76 10 31 25 67 33 79 13 20 12 24 -16 43 -33 24 -45
25 -121 5z m56 -39 c11 -27 -17 -144 -35 -150 -16 -5 -145 -24 -147 -21 -1 0
-5 35 -9 77 l-6 76 73 16 c96 20 117 20 124 2z"/>
</g>
</svg>
