<?xml version="1.0" standalone="no"?>
<!DOCTYPE svg PUBLIC "-//W3C//DTD SVG 20010904//EN"
 "http://www.w3.org/TR/2001/REC-SVG-20010904/DTD/svg10.dtd">
<svg version="1.0" xmlns="http://www.w3.org/2000/svg"
 width="96.000000pt" height="68.000000pt" viewBox="0 0 96.000000 68.000000"
 preserveAspectRatio="xMidYMid meet">
<metadata>
Created by potrace 1.16, written by Peter Selinger 2001-2019
</metadata>
<g transform="translate(0.000000,68.000000) scale(0.100000,-0.100000)"
fill="#000000" stroke="none">
<path d="M506 568 c15 -26 48 -58 61 -58 21 0 15 37 -9 54 -27 19 -62 21 -52
4z"/>
<path d="M543 496 c-83 -11 -155 -24 -158 -28 -14 -14 39 -19 108 -9 39 6 97
13 127 16 30 3 77 8 104 11 48 6 49 7 25 20 -29 16 -19 17 -206 -10z"/>
</g>
</svg>
