<?xml version="1.0" standalone="no"?>
<!DOCTYPE svg PUBLIC "-//W3C//DTD SVG 20010904//EN"
 "http://www.w3.org/TR/2001/REC-SVG-20010904/DTD/svg10.dtd">
<svg version="1.0" xmlns="http://www.w3.org/2000/svg"
 width="96.000000pt" height="68.000000pt" viewBox="0 0 96.000000 68.000000"
 preserveAspectRatio="xMidYMid meet">
<metadata>
Created by potrace 1.16, written by Peter Selinger 2001-2019
</metadata>
<g transform="translate(0.000000,68.000000) scale(0.100000,-0.100000)"
fill="#000000" stroke="none">
<path d="M445 604 c-33 -7 -84 -13 -113 -14 l-53 0 20 -27 c10 -16 24 -56 31
-91 13 -62 26 -84 39 -64 7 12 131 21 131 9 0 -5 10 -7 22 -5 20 3 31 26 73
157 5 18 0 24 -29 36 -41 17 -42 17 -121 -1z m70 -25 c4 -5 4 -20 1 -32 -4
-19 -13 -22 -58 -25 -29 -2 -64 -4 -78 -5 -20 -2 -26 3 -28 25 -3 28 -6 27 88
41 49 8 69 7 75 -4z m-5 -93 c0 -31 -3 -33 -76 -41 -58 -7 -61 -6 -67 16 -3
13 -5 25 -3 27 2 1 32 7 67 11 35 5 67 9 72 10 4 0 7 -10 7 -23z"/>
</g>
</svg>
