<?xml version="1.0" standalone="no"?>
<!DOCTYPE svg PUBLIC "-//W3C//DTD SVG 20010904//EN"
 "http://www.w3.org/TR/2001/REC-SVG-20010904/DTD/svg10.dtd">
<svg version="1.0" xmlns="http://www.w3.org/2000/svg"
 width="96.000000pt" height="68.000000pt" viewBox="0 0 96.000000 68.000000"
 preserveAspectRatio="xMidYMid meet">
<metadata>
Created by potrace 1.16, written by Peter Selinger 2001-2019
</metadata>
<g transform="translate(0.000000,68.000000) scale(0.100000,-0.100000)"
fill="#000000" stroke="none">
<path d="M640 588 c0 -7 -9 -24 -19 -37 l-19 -25 -58 16 c-32 9 -60 15 -62 13
-2 -2 17 -13 43 -24 26 -12 44 -25 40 -31 -4 -6 -30 -26 -58 -46 -61 -42 -30
-37 51 7 l52 29 53 -30 c59 -33 82 -37 90 -16 7 17 -41 49 -88 61 l-30 7 38
30 c30 24 35 33 26 44 -14 17 -59 18 -59 2z"/>
</g>
</svg>
