<?xml version="1.0" standalone="no"?>
<!DOCTYPE svg PUBLIC "-//W3C//DTD SVG 20010904//EN"
 "http://www.w3.org/TR/2001/REC-SVG-20010904/DTD/svg10.dtd">
<svg version="1.0" xmlns="http://www.w3.org/2000/svg"
 width="96.000000pt" height="68.000000pt" viewBox="0 0 96.000000 68.000000"
 preserveAspectRatio="xMidYMid meet">
<metadata>
Created by potrace 1.16, written by Peter Selinger 2001-2019
</metadata>
<g transform="translate(0.000000,68.000000) scale(0.100000,-0.100000)"
fill="#000000" stroke="none">
<path d="M265 444 c-26 -10 -56 -13 -87 -9 l-47 6 18 -43 c10 -24 22 -64 25
-90 8 -50 23 -70 37 -47 4 7 32 16 61 19 39 4 52 9 50 20 -2 7 7 41 19 74 20
57 21 60 3 73 -22 16 -28 16 -79 -3z m29 -61 c-9 -67 -20 -83 -54 -83 -30 0
-34 5 -45 72 -7 36 -7 36 37 46 72 16 70 17 62 -35z"/>
</g>
</svg>
