<?xml version="1.0" standalone="no"?>
<!DOCTYPE svg PUBLIC "-//W3C//DTD SVG 20010904//EN"
 "http://www.w3.org/TR/2001/REC-SVG-20010904/DTD/svg10.dtd">
<svg version="1.0" xmlns="http://www.w3.org/2000/svg"
 width="90.000000pt" height="92.000000pt" viewBox="0 0 90.000000 92.000000"
 preserveAspectRatio="xMidYMid meet">
<metadata>
Created by potrace 1.16, written by Peter Selinger 2001-2019
</metadata>
<g transform="translate(0.000000,92.000000) scale(0.100000,-0.100000)"
fill="#000000" stroke="none">
<path d="M497 816 c6 -74 16 -67 -111 -85 -75 -11 -88 -17 -66 -32 15 -10 102
-6 148 7 20 6 22 3 22 -39 0 -43 -1 -45 -36 -50 -19 -3 -47 -2 -61 4 -32 12
-46 3 -33 -21 5 -10 10 -86 10 -169 l0 -151 -65 0 c-70 0 -82 -11 -36 -35 26
-13 40 -13 128 0 55 8 168 15 260 15 89 0 164 4 167 9 3 4 -4 17 -15 27 -16
15 -36 19 -85 18 l-64 -1 6 96 c3 53 10 121 15 151 9 51 8 56 -13 74 -22 18
-75 18 -121 0 -13 -5 -17 -1 -17 17 1 64 4 66 111 74 104 8 119 17 66 43 -22
10 -39 11 -87 1 -33 -6 -64 -9 -67 -5 -4 4 -2 25 4 47 9 36 8 41 -11 54 -44
31 -54 21 -49 -49z m121 -238 c3 -26 1 -28 -36 -28 -21 0 -64 -5 -96 -11 -31
-7 -59 -9 -62 -6 -4 3 -4 17 0 31 5 21 14 26 68 34 100 16 122 12 126 -20z m2
-80 c0 -32 -1 -33 -47 -34 -27 -1 -74 -5 -105 -9 -58 -8 -58 -8 -58 19 0 23 4
26 33 27 25 0 162 22 175 28 1 0 2 -14 2 -31z m0 -86 c0 -26 -3 -28 -42 -28
-24 0 -71 -4 -105 -9 l-63 -8 0 27 c0 24 3 26 43 27 23 0 60 4 82 8 75 16 85
14 85 -17z m-5 -79 c-4 -16 -7 -28 -8 -29 -1 -1 -46 -4 -99 -8 l-98 -6 0 23
c0 23 5 25 88 34 136 15 125 17 117 -14z"/>
<path d="M147 788 c12 -67 8 -442 -7 -556 -10 -81 -10 -108 0 -132 7 -17 16
-30 20 -30 23 0 30 64 30 290 0 132 3 240 6 240 4 0 23 -19 43 -42 27 -30 42
-40 55 -35 35 14 15 50 -43 77 l-53 25 6 87 c5 82 4 88 -16 103 -39 27 -49 20
-41 -27z"/>
<path d="M41 533 c-24 -69 -25 -123 -4 -130 28 -10 58 125 39 172 -11 26 -12
24 -35 -42z"/>
<path d="M390 200 c0 -18 -104 -130 -122 -130 -4 0 -8 -5 -8 -10 0 -6 16 -4
38 5 47 20 172 104 172 117 0 8 -59 38 -75 38 -3 0 -5 -9 -5 -20z"/>
<path d="M641 140 c67 -74 88 -88 101 -68 9 15 2 57 -14 75 -13 16 -112 63
-133 63 -11 0 5 -24 46 -70z"/>
</g>
</svg>
