<?xml version="1.0" standalone="no"?>
<!DOCTYPE svg PUBLIC "-//W3C//DTD SVG 20010904//EN"
 "http://www.w3.org/TR/2001/REC-SVG-20010904/DTD/svg10.dtd">
<svg version="1.0" xmlns="http://www.w3.org/2000/svg"
 width="90.000000pt" height="92.000000pt" viewBox="0 0 90.000000 92.000000"
 preserveAspectRatio="xMidYMid meet">
<metadata>
Created by potrace 1.16, written by Peter Selinger 2001-2019
</metadata>
<g transform="translate(0.000000,92.000000) scale(0.100000,-0.100000)"
fill="#000000" stroke="none">
<path d="M545 879 c-56 -17 -200 -38 -267 -40 -69 -2 -84 -13 -54 -39 14 -10
26 -55 41 -149 8 -49 24 -74 38 -63 7 5 65 15 130 22 91 9 121 9 132 0 27 -23
44 -1 74 96 17 53 35 102 42 110 15 18 5 31 -41 54 -43 22 -51 23 -95 9z m45
-76 l0 -38 -65 -1 c-65 0 -65 0 -65 28 0 15 -6 29 -12 29 -20 3 62 16 105 18
36 1 37 0 37 -36z m-194 -8 c10 -40 -1 -52 -53 -58 -26 -3 -49 -4 -50 -4 0 1
-4 19 -8 39 l-7 37 44 4 c23 2 49 4 55 5 7 1 15 -9 19 -23z m180 -102 l-7 -38
-54 0 -55 0 0 32 c0 30 2 32 48 38 26 4 52 8 57 9 16 5 17 0 11 -41z m-166
-17 c0 -32 -1 -34 -47 -39 -27 -3 -49 -4 -50 -3 -2 1 -6 16 -9 34 -6 29 -4 31
27 35 80 9 79 10 79 -27z"/>
<path d="M405 546 c7 -42 6 -43 -25 -50 -63 -12 -80 -8 -80 19 0 26 -25 45
-59 45 -25 0 -26 -8 -6 -46 l15 -29 -66 -7 c-36 -3 -68 -9 -71 -11 -12 -13 47
-30 98 -28 l56 2 11 -43 c6 -23 10 -44 8 -45 -1 -2 -51 -6 -109 -10 -59 -3
-107 -10 -107 -14 0 -5 14 -16 31 -24 28 -15 39 -15 128 -1 54 9 117 16 140
16 40 0 41 -1 41 -34 l0 -34 -95 -7 c-52 -4 -95 -11 -95 -16 0 -5 11 -16 25
-25 20 -13 32 -14 75 -5 93 20 90 23 90 -76 0 -153 29 -135 45 30 l7 67 104 0
c108 0 123 7 79 36 -21 14 -40 15 -105 10 l-80 -7 0 35 0 36 179 0 c99 0 182
4 185 9 7 11 -22 37 -53 49 -13 5 -47 5 -75 1 -28 -4 -72 -10 -98 -13 l-47 -6
30 48 30 47 69 6 c79 6 91 12 67 37 -12 11 -34 17 -67 17 -44 0 -49 2 -44 18
7 21 -20 46 -49 47 -13 0 -18 -7 -17 -22 5 -53 2 -56 -53 -60 l-52 -3 3 31 c3
24 -1 32 -23 42 -42 19 -47 16 -40 -32z m155 -95 c0 -10 -5 -32 -11 -50 -10
-28 -15 -31 -50 -31 l-39 0 0 44 c0 48 5 51 73 55 20 1 27 -4 27 -18z m-150
-41 l0 -50 -44 0 c-37 0 -45 4 -50 23 -13 50 -8 66 27 70 71 9 67 11 67 -43z"/>
</g>
</svg>
