<?xml version="1.0" standalone="no"?>
<!DOCTYPE svg PUBLIC "-//W3C//DTD SVG 20010904//EN"
 "http://www.w3.org/TR/2001/REC-SVG-20010904/DTD/svg10.dtd">
<svg version="1.0" xmlns="http://www.w3.org/2000/svg"
 width="96.000000pt" height="68.000000pt" viewBox="0 0 96.000000 68.000000"
 preserveAspectRatio="xMidYMid meet">
<metadata>
Created by potrace 1.16, written by Peter Selinger 2001-2019
</metadata>
<g transform="translate(0.000000,68.000000) scale(0.100000,-0.100000)"
fill="#000000" stroke="none">
<path d="M293 121 c5 -37 3 -39 -25 -45 -17 -3 -50 -6 -74 -6 -48 0 -57 -13
-23 -31 18 -9 51 -5 170 22 82 19 149 38 149 43 0 8 -78 0 -108 -11 -15 -6
-15 7 3 50 5 13 2 17 -14 17 -17 0 -21 -6 -21 -34 0 -51 -27 -55 -35 -5 -9 52
-29 52 -22 0z"/>
</g>
</svg>
