<?xml version="1.0" standalone="no"?>
<!DOCTYPE svg PUBLIC "-//W3C//DTD SVG 20010904//EN"
 "http://www.w3.org/TR/2001/REC-SVG-20010904/DTD/svg10.dtd">
<svg version="1.0" xmlns="http://www.w3.org/2000/svg"
 width="96.000000pt" height="68.000000pt" viewBox="0 0 96.000000 68.000000"
 preserveAspectRatio="xMidYMid meet">
<metadata>
Created by potrace 1.16, written by Peter Selinger 2001-2019
</metadata>
<g transform="translate(0.000000,68.000000) scale(0.100000,-0.100000)"
fill="#000000" stroke="none">
<path d="M590 553 c1 -43 1 -84 1 -90 -1 -9 -23 -13 -76 -13 l-76 0 14 -27 c8
-16 19 -59 26 -97 14 -82 18 -91 36 -76 18 15 80 9 81 -7 1 -7 2 -60 3 -118 0
-60 5 -105 11 -105 16 0 29 70 31 163 l2 87 38 0 c21 0 41 -4 44 -10 3 -5 12
-10 20 -10 11 0 31 43 92 196 8 22 -52 36 -123 29 l-67 -8 5 66 c6 70 2 79
-40 92 -23 7 -23 6 -22 -72z m170 -138 l0 -35 -60 0 c-57 0 -60 1 -56 23 3 12
5 28 5 35 1 8 19 12 56 12 l55 0 0 -35z m-168 -9 c3 -31 1 -35 -25 -40 -57
-11 -65 -8 -69 29 -4 33 -2 34 32 38 19 2 40 4 46 5 7 1 14 -13 16 -32z m145
-81 c-10 -34 -12 -35 -46 -29 -36 7 -51 19 -51 41 0 14 21 20 72 22 l36 1 -11
-35z m-147 -9 c0 -35 -62 -52 -74 -20 -13 35 -7 44 34 44 36 0 40 -3 40 -24z"/>
<path d="M270 602 c0 -18 74 -73 95 -70 23 3 32 40 13 55 -19 16 -108 28 -108
15z"/>
<path d="M280 454 c-25 -7 -64 -13 -87 -13 -24 -1 -43 -6 -43 -11 0 -20 31
-22 89 -6 73 20 105 21 94 2 -20 -35 -180 -189 -206 -199 -7 -2 -9 -7 -5 -11
8 -10 41 7 105 55 29 22 55 39 59 39 3 0 3 -37 0 -82 -10 -127 -10 -138 3
-151 24 -24 36 12 39 118 2 58 7 105 10 105 4 0 16 -7 26 -15 25 -19 56 -19
56 -2 0 17 -35 35 -74 40 -17 2 -31 8 -33 14 -2 5 19 33 47 61 48 47 50 51 31
61 -24 13 -53 12 -111 -5z"/>
</g>
</svg>
