<?xml version="1.0" standalone="no"?>
<!DOCTYPE svg PUBLIC "-//W3C//DTD SVG 20010904//EN"
 "http://www.w3.org/TR/2001/REC-SVG-20010904/DTD/svg10.dtd">
<svg version="1.0" xmlns="http://www.w3.org/2000/svg"
 width="90.000000pt" height="92.000000pt" viewBox="0 0 90.000000 92.000000"
 preserveAspectRatio="xMidYMid meet">
<metadata>
Created by potrace 1.16, written by Peter Selinger 2001-2019
</metadata>
<g transform="translate(0.000000,92.000000) scale(0.100000,-0.100000)"
fill="#000000" stroke="none">
<path d="M635 834 c-27 -7 -72 -14 -99 -14 -45 0 -48 -1 -42 -22 3 -13 9 -70
12 -128 7 -134 6 -131 43 -120 16 4 59 11 95 15 l66 7 -1 -158 c-1 -88 -4
-184 -7 -214 l-7 -55 -54 3 -54 3 58 -53 c32 -29 63 -53 69 -53 6 0 19 16 28
35 16 31 18 70 18 352 0 200 4 327 11 345 9 25 7 31 -16 50 -30 26 -49 27
-120 7z m66 -76 l4 -43 -50 0 c-27 0 -65 -3 -83 -7 l-33 -8 3 43 c3 38 6 43
33 48 17 4 51 7 76 8 l47 1 3 -42z m7 -104 c0 -32 -4 -44 -13 -40 -7 2 -37 -2
-67 -10 -77 -20 -78 -20 -78 31 l0 45 43 1 c23 1 56 5 72 9 17 4 33 8 37 9 4
0 7 -20 6 -45z"/>
<path d="M270 794 c-19 -7 -61 -13 -94 -13 -51 -1 -57 -3 -51 -18 4 -10 12
-46 18 -80 14 -79 -4 -340 -29 -436 -17 -62 -17 -68 -1 -102 37 -77 54 -26 66
198 5 93 12 172 16 175 3 3 37 6 75 6 l70 1 20 90 c11 50 26 103 32 119 11 26
9 31 -16 52 -30 26 -54 28 -106 8z m58 -47 c2 -10 1 -29 -2 -42 -5 -19 -12
-24 -34 -23 -15 1 -44 -2 -64 -6 l-38 -8 0 40 c0 39 0 40 48 50 63 13 86 11
90 -11z m-12 -119 c-3 -13 -6 -30 -6 -39 0 -12 -13 -18 -43 -22 -24 -3 -51 -9
-60 -13 -14 -5 -17 1 -17 39 0 50 1 51 99 55 30 2 33 0 27 -20z"/>
</g>
</svg>
