<?xml version="1.0" standalone="no"?>
<!DOCTYPE svg PUBLIC "-//W3C//DTD SVG 20010904//EN"
 "http://www.w3.org/TR/2001/REC-SVG-20010904/DTD/svg10.dtd">
<svg version="1.0" xmlns="http://www.w3.org/2000/svg"
 width="96.000000pt" height="68.000000pt" viewBox="0 0 96.000000 68.000000"
 preserveAspectRatio="xMidYMid meet">
<metadata>
Created by potrace 1.16, written by Peter Selinger 2001-2019
</metadata>
<g transform="translate(0.000000,68.000000) scale(0.100000,-0.100000)"
fill="#000000" stroke="none">
<path d="M545 239 c-33 -6 -81 -8 -107 -6 -52 4 -55 3 -33 -19 8 -8 19 -34 25
-57 18 -70 29 -92 42 -79 7 7 35 12 63 12 67 0 126 11 119 21 -5 9 21 65 42
90 32 36 -43 55 -151 38z m80 -51 c-4 -18 -9 -40 -11 -49 -5 -18 -45 -29 -104
-29 -37 0 -39 2 -45 40 -4 22 -7 43 -6 47 0 11 54 20 119 22 l54 1 -7 -32z"/>
</g>
</svg>
