<?xml version="1.0" standalone="no"?>
<!DOCTYPE svg PUBLIC "-//W3C//DTD SVG 20010904//EN"
 "http://www.w3.org/TR/2001/REC-SVG-20010904/DTD/svg10.dtd">
<svg version="1.0" xmlns="http://www.w3.org/2000/svg"
 width="96.000000pt" height="68.000000pt" viewBox="0 0 96.000000 68.000000"
 preserveAspectRatio="xMidYMid meet">
<metadata>
Created by potrace 1.16, written by Peter Selinger 2001-2019
</metadata>
<g transform="translate(0.000000,68.000000) scale(0.100000,-0.100000)"
fill="#000000" stroke="none">
<path d="M200 424 c-25 -8 -60 -12 -77 -9 l-33 6 19 -33 c10 -18 24 -57 31
-85 7 -29 16 -53 21 -53 5 0 9 4 9 9 0 5 24 12 53 15 48 6 52 9 53 34 0 15 9
44 19 65 14 30 15 40 5 52 -15 18 -40 18 -100 -1z m42 -64 c-3 -44 -21 -70
-49 -70 -15 0 -30 34 -35 77 -3 23 1 28 27 34 54 12 60 8 57 -41z"/>
</g>
</svg>
