<?xml version="1.0" standalone="no"?>
<!DOCTYPE svg PUBLIC "-//W3C//DTD SVG 20010904//EN"
 "http://www.w3.org/TR/2001/REC-SVG-20010904/DTD/svg10.dtd">
<svg version="1.0" xmlns="http://www.w3.org/2000/svg"
 width="90.000000pt" height="92.000000pt" viewBox="0 0 90.000000 92.000000"
 preserveAspectRatio="xMidYMid meet">
<metadata>
Created by potrace 1.16, written by Peter Selinger 2001-2019
</metadata>
<g transform="translate(0.000000,92.000000) scale(0.100000,-0.100000)"
fill="#000000" stroke="none">
<path d="M486 833 c4 -10 8 -43 9 -73 l0 -55 -60 -9 c-33 -5 -62 -10 -65 -13
-11 -10 30 -23 78 -23 l52 0 0 -34 c0 -33 -1 -34 -50 -40 -27 -4 -50 -11 -50
-16 0 -14 46 -23 75 -16 23 6 25 4 25 -28 l0 -34 -67 -7 c-94 -9 -103 -13 -78
-31 15 -12 34 -14 73 -9 l54 7 -13 -24 c-21 -40 -92 -115 -154 -164 -52 -40
-56 -46 -30 -40 17 4 50 20 75 36 l45 29 7 -27 c4 -15 3 -63 -2 -107 -8 -67
-8 -82 5 -94 13 -14 24 -7 95 64 44 43 78 81 76 83 -2 2 -29 -13 -59 -32 -31
-20 -59 -36 -62 -36 -3 0 -5 36 -4 81 1 54 -2 84 -10 88 -8 5 5 25 39 60 34
35 50 59 47 71 -4 15 4 19 47 24 28 3 80 6 116 6 80 0 98 9 70 35 -20 18 -60
18 -179 -1 l-41 -7 0 36 c0 35 0 35 53 42 67 8 87 14 87 25 0 15 -65 22 -104
12 -40 -11 -44 -5 -27 41 7 19 19 25 53 30 25 3 57 11 72 17 24 9 26 13 15 26
-13 16 -55 15 -117 -2 -23 -7 -24 -5 -21 46 3 58 -13 80 -59 80 -19 0 -23 -3
-16 -17z"/>
<path d="M156 802 c-3 -5 17 -30 43 -56 56 -55 86 -59 86 -11 0 24 -6 33 -35
46 -46 22 -88 31 -94 21z"/>
<path d="M210 630 c-20 -13 -96 -37 -143 -45 -40 -6 -41 -20 -1 -35 17 -7 37
-3 79 15 64 29 79 31 71 10 -13 -35 -120 -188 -168 -240 -28 -31 -48 -58 -46
-61 8 -7 121 79 140 107 16 23 17 21 17 -68 1 -50 -3 -102 -8 -115 -10 -26 7
-89 25 -95 18 -6 24 33 24 148 0 58 3 108 6 112 4 3 21 -5 40 -19 35 -27 54
-25 54 5 0 18 -38 41 -68 41 -9 0 2 11 26 26 45 27 49 33 30 52 -18 18 -23 15
-53 -29 -24 -37 -28 -40 -42 -26 -14 14 -12 21 22 69 21 29 51 67 66 83 30 32
28 45 -8 64 -26 13 -43 14 -63 1z"/>
<path d="M656 370 c-21 -33 -42 -60 -49 -60 -6 0 -25 14 -43 31 -19 18 -34 26
-38 20 -8 -13 187 -238 215 -246 22 -7 108 2 127 14 7 4 -15 19 -58 37 -64 26
-182 103 -187 122 -2 4 27 24 62 45 36 21 65 44 65 51 0 11 -40 46 -53 46 -2
0 -21 -27 -41 -60z"/>
</g>
</svg>
