<?xml version="1.0" standalone="no"?>
<!DOCTYPE svg PUBLIC "-//W3C//DTD SVG 20010904//EN"
 "http://www.w3.org/TR/2001/REC-SVG-20010904/DTD/svg10.dtd">
<svg version="1.0" xmlns="http://www.w3.org/2000/svg"
 width="96.000000pt" height="68.000000pt" viewBox="0 0 96.000000 68.000000"
 preserveAspectRatio="xMidYMid meet">
<metadata>
Created by potrace 1.16, written by Peter Selinger 2001-2019
</metadata>
<g transform="translate(0.000000,68.000000) scale(0.100000,-0.100000)"
fill="#000000" stroke="none">
<path d="M262 525 c52 -48 111 -46 80 3 -9 14 -65 32 -97 32 -17 0 -14 -6 17
-35z"/>
<path d="M280 430 c-8 -5 -45 -14 -82 -21 -38 -7 -68 -15 -68 -19 0 -17 43
-17 97 0 32 10 60 16 62 14 8 -7 -35 -61 -114 -141 -84 -85 -81 -100 8 -37 26
19 50 34 53 34 8 0 -1 -128 -10 -150 -4 -9 0 -24 9 -35 23 -31 35 -3 35 86 0
42 3 79 6 82 4 4 20 -1 35 -10 22 -13 32 -14 41 -5 9 9 4 15 -23 26 l-34 14
33 19 c36 20 39 28 16 37 -10 4 -25 -5 -41 -24 -23 -27 -43 -32 -43 -10 0 5
23 34 52 65 49 54 51 58 33 71 -22 16 -44 18 -65 4z"/>
</g>
</svg>
