<?xml version="1.0" standalone="no"?>
<!DOCTYPE svg PUBLIC "-//W3C//DTD SVG 20010904//EN"
 "http://www.w3.org/TR/2001/REC-SVG-20010904/DTD/svg10.dtd">
<svg version="1.0" xmlns="http://www.w3.org/2000/svg"
 width="96.000000pt" height="68.000000pt" viewBox="0 0 96.000000 68.000000"
 preserveAspectRatio="xMidYMid meet">
<metadata>
Created by potrace 1.16, written by Peter Selinger 2001-2019
</metadata>
<g transform="translate(0.000000,68.000000) scale(0.100000,-0.100000)"
fill="#000000" stroke="none">
<path d="M648 533 c-57 -4 -74 -15 -42 -27 9 -3 34 -1 55 4 49 13 61 7 53 -28
-10 -43 -26 -55 -58 -42 l-27 10 21 -30 c37 -52 72 -35 106 49 17 42 17 44 -1
57 -10 8 -26 13 -34 12 -9 -1 -42 -3 -73 -5z"/>
</g>
</svg>
