<?xml version="1.0" standalone="no"?>
<!DOCTYPE svg PUBLIC "-//W3C//DTD SVG 20010904//EN"
 "http://www.w3.org/TR/2001/REC-SVG-20010904/DTD/svg10.dtd">
<svg version="1.0" xmlns="http://www.w3.org/2000/svg"
 width="96.000000pt" height="68.000000pt" viewBox="0 0 96.000000 68.000000"
 preserveAspectRatio="xMidYMid meet">
<metadata>
Created by potrace 1.16, written by Peter Selinger 2001-2019
</metadata>
<g transform="translate(0.000000,68.000000) scale(0.100000,-0.100000)"
fill="#000000" stroke="none">
<path d="M409 635 c-3 -3 -1 -27 5 -55 5 -27 7 -53 3 -57 -4 -4 -48 -8 -97
-10 -50 -1 -90 -5 -90 -8 0 -3 6 -15 14 -28 8 -12 19 -41 25 -64 13 -47 27
-61 44 -44 6 6 32 11 58 11 40 0 48 -3 52 -22 4 -12 4 -24 2 -26 -2 -2 -50 -5
-107 -8 -57 -2 -105 -4 -108 -4 -3 0 2 -6 11 -13 9 -7 24 -38 33 -70 13 -46
20 -57 34 -53 9 3 44 6 77 7 l60 3 3 -84 c2 -47 7 -89 12 -94 15 -15 30 30 36
108 l7 74 99 7 c77 6 96 10 88 20 -7 9 -1 23 25 51 19 21 35 42 35 46 0 21
-59 30 -154 23 -89 -5 -98 -4 -92 10 3 9 6 20 6 25 0 4 36 11 81 14 66 6 80
10 75 23 -4 8 7 31 24 53 27 34 28 39 13 51 -12 10 -42 13 -106 11 l-90 -2 5
45 c3 25 3 47 -1 49 -13 7 -78 16 -82 11z m186 -162 c-9 -36 -12 -39 -62 -47
l-43 -6 0 40 0 40 56 0 56 0 -7 -27z m-175 -23 l0 -40 -54 0 c-50 0 -54 2 -60
26 -9 33 -1 41 44 47 74 8 70 10 70 -33z m220 -153 c0 -45 -22 -61 -94 -65
l-66 -4 0 46 0 46 80 0 c77 0 80 -1 80 -23z m-212 -29 l-3 -43 -62 -5 c-62 -5
-63 -5 -73 24 -19 56 -15 59 103 64 l38 2 -3 -42z"/>
</g>
</svg>
