<?xml version="1.0" standalone="no"?>
<!DOCTYPE svg PUBLIC "-//W3C//DTD SVG 20010904//EN"
 "http://www.w3.org/TR/2001/REC-SVG-20010904/DTD/svg10.dtd">
<svg version="1.0" xmlns="http://www.w3.org/2000/svg"
 width="96.000000pt" height="68.000000pt" viewBox="0 0 96.000000 68.000000"
 preserveAspectRatio="xMidYMid meet">
<metadata>
Created by potrace 1.16, written by Peter Selinger 2001-2019
</metadata>
<g transform="translate(0.000000,68.000000) scale(0.100000,-0.100000)"
fill="#000000" stroke="none">
<path d="M451 596 c-58 -7 -96 -16 -99 -23 -3 -10 13 -13 57 -13 54 0 61 -2
61 -20 0 -14 -7 -20 -22 -20 -13 0 -53 -3 -91 -6 -47 -4 -72 -2 -82 6 -9 7
-17 11 -18 9 -2 -2 -13 -22 -26 -43 -18 -31 -19 -41 -9 -48 9 -5 21 1 38 21
23 26 33 30 118 38 l92 9 0 -53 c0 -47 12 -74 27 -59 4 3 8 30 11 60 l4 53 61
7 c33 3 80 6 105 6 43 0 44 -1 38 -26 -7 -26 -6 -26 36 -19 59 10 69 22 38 46
-23 18 -35 20 -138 15 -63 -3 -118 -9 -123 -12 -5 -3 -12 2 -16 11 -9 24 14
35 74 35 52 0 77 15 52 31 -17 11 -66 9 -188 -5z"/>
<path d="M578 476 c-27 -20 -22 -23 25 -17 23 3 41 11 40 16 -4 16 -46 16 -65
1z"/>
<path d="M350 460 c20 -13 73 -13 65 0 -3 6 -23 10 -43 10 -28 0 -33 -3 -22
-10z"/>
<path d="M348 423 c-27 -3 -35 -8 -31 -19 6 -17 29 -18 72 -3 33 12 43 30 14
27 -10 -1 -35 -3 -55 -5z"/>
<path d="M598 413 c24 -8 46 -12 50 -8 11 11 -21 25 -58 24 l-35 -1 43 -15z"/>
<path d="M615 384 c-97 -12 -248 -24 -295 -26 l-55 -1 0 -61 c0 -75 -34 -153
-97 -222 -30 -32 -36 -43 -20 -35 77 41 136 128 162 238 11 48 15 53 43 58 38
6 288 25 331 25 28 0 29 1 10 15 -19 14 -24 15 -79 9z"/>
<path d="M607 325 c-20 -14 -41 -25 -46 -25 -6 0 -11 -5 -11 -10 0 -6 11 -8
25 -4 19 5 25 2 25 -9 0 -11 -14 -18 -46 -23 -27 -4 -41 -10 -34 -14 7 -4 21
-5 31 -3 31 8 22 -16 -13 -37 -30 -18 -33 -25 -38 -82 l-5 -63 -40 0 c-39 0
-40 1 -40 35 0 27 -4 36 -20 38 -18 2 -20 -2 -17 -43 l4 -45 -63 0 c-47 0 -60
-3 -52 -11 9 -9 62 -8 208 1 108 7 215 9 238 6 42 -6 78 6 63 21 -4 4 -59 7
-122 5 -106 -2 -114 -1 -114 17 0 15 10 20 62 25 44 5 58 10 47 17 -8 5 -35 7
-61 3 -44 -5 -48 -4 -48 14 0 11 -8 22 -17 24 -13 3 -6 10 24 26 52 27 51 27
55 -5 5 -41 26 -40 30 1 l3 36 45 -30 c46 -31 85 -40 78 -17 -4 11 -33 28
-103 59 l-30 13 45 3 c25 1 52 5 60 8 30 11 -14 24 -58 18 -39 -6 -44 -5 -40
12 2 11 13 20 26 22 27 4 29 18 4 31 -14 8 -27 4 -55 -14z"/>
<path d="M400 297 c-46 -24 -50 -28 -22 -22 29 6 33 5 30 -11 -2 -13 -15 -21
-41 -25 -52 -8 -58 -19 -11 -19 l39 -1 -45 -41 -45 -42 47 26 c46 26 47 26 50
5 5 -34 28 -33 28 3 0 28 2 30 21 20 11 -7 23 -9 26 -6 8 8 -7 26 -23 26 -26
0 -15 17 19 28 l32 10 -31 1 c-20 1 -34 7 -38 17 -8 21 -4 25 23 27 23 1 29
22 9 29 -7 3 -38 -8 -68 -25z"/>
</g>
</svg>
