<?xml version="1.0" standalone="no"?>
<!DOCTYPE svg PUBLIC "-//W3C//DTD SVG 20010904//EN"
 "http://www.w3.org/TR/2001/REC-SVG-20010904/DTD/svg10.dtd">
<svg version="1.0" xmlns="http://www.w3.org/2000/svg"
 width="96.000000pt" height="68.000000pt" viewBox="0 0 96.000000 68.000000"
 preserveAspectRatio="xMidYMid meet">
<metadata>
Created by potrace 1.16, written by Peter Selinger 2001-2019
</metadata>
<g transform="translate(0.000000,68.000000) scale(0.100000,-0.100000)"
fill="#000000" stroke="none">
<path d="M650 539 c-349 -30 -362 -31 -373 -20 -6 6 -15 11 -19 11 -14 0 -50
-82 -40 -92 13 -13 38 0 50 28 10 20 19 24 54 24 24 0 72 5 107 10 36 5 119
12 185 16 l120 7 -18 -27 -18 -28 44 7 c78 12 82 14 63 35 -27 30 -64 36 -155
29z"/>
</g>
</svg>
