<?xml version="1.0" standalone="no"?>
<!DOCTYPE svg PUBLIC "-//W3C//DTD SVG 20010904//EN"
 "http://www.w3.org/TR/2001/REC-SVG-20010904/DTD/svg10.dtd">
<svg version="1.0" xmlns="http://www.w3.org/2000/svg"
 width="96.000000pt" height="68.000000pt" viewBox="0 0 96.000000 68.000000"
 preserveAspectRatio="xMidYMid meet">
<metadata>
Created by potrace 1.16, written by Peter Selinger 2001-2019
</metadata>
<g transform="translate(0.000000,68.000000) scale(0.100000,-0.100000)"
fill="#000000" stroke="none">
<path d="M607 353 c-3 -38 -10 -81 -16 -97 l-11 -28 -40 36 c-38 34 -70 47
-70 28 0 -5 11 -14 24 -21 13 -7 33 -26 45 -42 l21 -28 -27 -26 c-30 -28 -91
-63 -133 -76 -24 -7 -23 -7 7 -8 38 -1 127 31 162 58 l25 19 50 -55 50 -55 69
5 c92 6 101 19 30 41 -57 18 -146 59 -170 78 -9 7 -7 21 7 56 31 83 44 151 30
167 -7 8 -20 15 -30 15 -14 0 -18 -12 -23 -67z"/>
</g>
</svg>
