<?xml version="1.0" standalone="no"?>
<!DOCTYPE svg PUBLIC "-//W3C//DTD SVG 20010904//EN"
 "http://www.w3.org/TR/2001/REC-SVG-20010904/DTD/svg10.dtd">
<svg version="1.0" xmlns="http://www.w3.org/2000/svg"
 width="96.000000pt" height="68.000000pt" viewBox="0 0 96.000000 68.000000"
 preserveAspectRatio="xMidYMid meet">
<metadata>
Created by potrace 1.16, written by Peter Selinger 2001-2019
</metadata>
<g transform="translate(0.000000,68.000000) scale(0.100000,-0.100000)"
fill="#000000" stroke="none">
<path d="M264 588 c4 -13 10 -53 13 -89 5 -63 4 -66 -18 -72 -13 -4 -38 -7
-56 -7 -37 0 -63 -9 -63 -21 0 -5 32 -9 71 -9 l70 0 -3 -42 -3 -42 -87 -36
c-48 -19 -90 -38 -93 -42 -4 -3 8 -14 25 -23 32 -16 33 -16 92 20 32 20 60 35
62 34 1 -2 0 -30 -2 -63 l-4 -58 -39 5 c-21 3 -39 2 -39 -2 0 -4 18 -24 39
-45 70 -68 101 -34 101 111 0 91 0 93 28 107 16 8 35 23 43 32 15 19 17 19
-51 -2 -17 -5 -20 -2 -20 23 0 26 5 31 40 42 22 6 40 16 40 21 0 12 -46 24
-65 16 -20 -7 -20 25 -1 88 l15 48 -34 14 c-51 21 -69 19 -61 -8z"/>
<path d="M570 528 c-30 -5 -70 -11 -88 -14 -19 -3 -30 -9 -26 -15 3 -6 23 -8
46 -5 l41 6 -6 -42 c-6 -46 -18 -57 -62 -59 l-30 -2 33 -6 c38 -7 37 -5 28
-52 -7 -39 -27 -49 -102 -49 -19 0 -34 -5 -34 -11 0 -9 31 -10 113 -5 61 3
164 9 227 12 63 4 117 9 120 11 3 3 -4 11 -15 19 -15 11 -34 13 -72 8 -59 -7
-63 -2 -36 44 15 26 15 32 3 47 -12 14 -24 16 -72 11 -62 -7 -64 -6 -47 25 7
15 7 24 -2 35 -6 8 -8 14 -3 15 10 1 39 5 91 14 18 3 35 10 38 15 8 12 -69 11
-145 -2z m85 -138 c3 -6 1 -25 -6 -44 -11 -29 -18 -35 -53 -39 -23 -3 -44 -2
-49 2 -7 7 14 68 29 84 11 11 72 9 79 -3z"/>
<path d="M585 228 c-33 -5 -81 -7 -107 -4 -51 5 -56 3 -34 -19 8 -8 17 -36 21
-63 8 -59 18 -78 36 -66 15 10 15 10 136 12 76 2 81 3 76 22 -3 11 4 36 16 55
11 20 21 42 21 49 0 26 -57 31 -165 14z m92 -55 c-8 -46 -28 -63 -81 -65 -41
-1 -89 2 -93 6 -1 1 -5 20 -9 43 l-6 42 38 4 c22 2 65 4 98 5 l59 2 -6 -37z"/>
</g>
</svg>
