<?xml version="1.0" standalone="no"?>
<!DOCTYPE svg PUBLIC "-//W3C//DTD SVG 20010904//EN"
 "http://www.w3.org/TR/2001/REC-SVG-20010904/DTD/svg10.dtd">
<svg version="1.0" xmlns="http://www.w3.org/2000/svg"
 width="96.000000pt" height="68.000000pt" viewBox="0 0 96.000000 68.000000"
 preserveAspectRatio="xMidYMid meet">
<metadata>
Created by potrace 1.16, written by Peter Selinger 2001-2019
</metadata>
<g transform="translate(0.000000,68.000000) scale(0.100000,-0.100000)"
fill="#000000" stroke="none">
<path d="M330 250 c-14 -4 -51 -8 -82 -9 l-56 -1 18 -37 c10 -21 23 -51 29
-67 8 -20 15 -25 24 -18 6 5 42 13 78 16 58 6 66 10 62 26 -3 9 3 32 12 50 14
27 15 34 3 41 -16 10 -54 10 -88 -1z m30 -54 c0 -34 -2 -35 -45 -42 -25 -3
-48 -4 -50 -2 -3 2 -8 18 -11 35 -7 34 1 39 74 42 30 1 32 -1 32 -33z"/>
</g>
</svg>
