<?xml version="1.0" standalone="no"?>
<!DOCTYPE svg PUBLIC "-//W3C//DTD SVG 20010904//EN"
 "http://www.w3.org/TR/2001/REC-SVG-20010904/DTD/svg10.dtd">
<svg version="1.0" xmlns="http://www.w3.org/2000/svg"
 width="96.000000pt" height="68.000000pt" viewBox="0 0 96.000000 68.000000"
 preserveAspectRatio="xMidYMid meet">
<metadata>
Created by potrace 1.16, written by Peter Selinger 2001-2019
</metadata>
<g transform="translate(0.000000,68.000000) scale(0.100000,-0.100000)"
fill="#000000" stroke="none">
<path d="M585 600 c-3 -5 -1 -18 5 -29 5 -11 10 -56 10 -99 l0 -80 -70 -7
c-39 -4 -72 -11 -75 -15 -8 -14 38 -19 85 -10 25 5 48 9 53 10 4 0 7 -76 7
-169 0 -168 6 -199 33 -172 8 8 14 72 17 179 l5 167 80 3 c44 2 84 7 89 12 15
15 -41 23 -110 16 l-64 -7 0 100 c0 94 -1 99 -22 105 -31 8 -36 8 -43 -4z"/>
<path d="M260 560 c0 -26 42 -70 66 -70 29 0 33 29 7 53 -24 21 -73 33 -73 17z"/>
<path d="M398 485 c-2 -2 -66 -11 -143 -20 -77 -10 -144 -21 -149 -26 -5 -4 3
-13 18 -21 23 -10 46 -9 129 5 56 9 128 20 160 23 62 7 72 24 19 35 -17 3 -33
5 -34 4z"/>
<path d="M287 385 c-80 -17 -85 -29 -9 -22 87 9 117 17 100 28 -16 10 -18 10
-91 -6z"/>
<path d="M272 310 c-60 -14 -48 -23 23 -16 77 8 115 27 50 25 -22 -1 -55 -5
-73 -9z"/>
<path d="M340 250 c-14 -4 -53 -8 -86 -9 l-61 -1 23 -47 c13 -25 24 -53 24
-60 0 -10 8 -13 28 -9 15 3 51 8 80 11 45 6 52 10 52 28 0 12 7 35 15 51 9 16
14 31 12 32 -9 9 -65 12 -87 4z m20 -54 c0 -36 -15 -46 -72 -46 -23 0 -29 6
-36 33 -8 29 -6 33 17 38 14 4 41 7 59 8 30 1 32 -1 32 -33z"/>
</g>
</svg>
