<?xml version="1.0" standalone="no"?>
<!DOCTYPE svg PUBLIC "-//W3C//DTD SVG 20010904//EN"
 "http://www.w3.org/TR/2001/REC-SVG-20010904/DTD/svg10.dtd">
<svg version="1.0" xmlns="http://www.w3.org/2000/svg"
 width="96.000000pt" height="68.000000pt" viewBox="0 0 96.000000 68.000000"
 preserveAspectRatio="xMidYMid meet">
<metadata>
Created by potrace 1.16, written by Peter Selinger 2001-2019
</metadata>
<g transform="translate(0.000000,68.000000) scale(0.100000,-0.100000)"
fill="#000000" stroke="none">
<path d="M561 483 c1 -113 11 -136 65 -153 45 -15 162 -6 181 13 12 12 12 21
1 55 -14 44 -28 55 -28 22 0 -38 -35 -60 -94 -60 -66 0 -86 16 -86 69 0 38 0
38 48 44 26 3 67 12 92 20 l45 14 -28 13 c-24 12 -32 11 -65 -7 -20 -11 -48
-24 -61 -28 -23 -7 -23 -6 -17 38 6 36 4 46 -9 51 -42 16 -45 10 -44 -91z"/>
</g>
</svg>
