<?xml version="1.0" standalone="no"?>
<!DOCTYPE svg PUBLIC "-//W3C//DTD SVG 20010904//EN"
 "http://www.w3.org/TR/2001/REC-SVG-20010904/DTD/svg10.dtd">
<svg version="1.0" xmlns="http://www.w3.org/2000/svg"
 width="96.000000pt" height="68.000000pt" viewBox="0 0 96.000000 68.000000"
 preserveAspectRatio="xMidYMid meet">
<metadata>
Created by potrace 1.16, written by Peter Selinger 2001-2019
</metadata>
<g transform="translate(0.000000,68.000000) scale(0.100000,-0.100000)"
fill="#000000" stroke="none">
<path d="M431 356 c-5 -22 -26 -67 -45 -98 -19 -32 -31 -58 -27 -58 9 0 63 66
80 98 8 15 21 22 41 22 17 0 30 -3 30 -6 0 -24 -73 -146 -113 -191 -54 -59
-53 -67 5 -27 50 35 173 222 157 239 -9 9 -39 9 -74 0 -25 -6 -28 -5 -17 6 18
19 15 46 -7 52 -16 4 -21 -3 -30 -37z"/>
</g>
</svg>
