<?xml version="1.0" standalone="no"?>
<!DOCTYPE svg PUBLIC "-//W3C//DTD SVG 20010904//EN"
 "http://www.w3.org/TR/2001/REC-SVG-20010904/DTD/svg10.dtd">
<svg version="1.0" xmlns="http://www.w3.org/2000/svg"
 width="90.000000pt" height="92.000000pt" viewBox="0 0 90.000000 92.000000"
 preserveAspectRatio="xMidYMid meet">
<metadata>
Created by potrace 1.16, written by Peter Selinger 2001-2019
</metadata>
<g transform="translate(0.000000,92.000000) scale(0.100000,-0.100000)"
fill="#000000" stroke="none">
<path d="M160 823 c0 -18 79 -95 92 -91 7 3 14 19 16 36 3 27 -1 34 -25 43
-44 17 -83 22 -83 12z"/>
<path d="M556 788 c5 -13 8 -149 9 -303 0 -273 1 -281 23 -323 15 -29 35 -48
57 -58 63 -26 177 -12 215 26 18 18 18 23 6 57 -7 21 -17 61 -21 88 l-8 50
-13 -64 c-7 -35 -21 -72 -30 -82 -39 -43 -154 -27 -174 25 -12 34 -24 171 -16
192 5 14 18 5 72 -47 63 -59 67 -62 80 -44 29 39 -3 79 -93 117 -42 17 -53 26
-53 45 0 18 16 32 75 65 81 47 91 67 50 94 -14 9 -27 15 -29 13 -1 -2 -14 -24
-28 -49 -14 -25 -36 -54 -48 -65 l-22 -20 7 100 c3 55 11 115 17 134 10 31 8
37 -12 53 -12 10 -33 18 -47 18 -21 0 -23 -3 -17 -22z"/>
<path d="M437 713 c-4 -3 -2 -13 5 -20 12 -15 21 -217 12 -264 -6 -28 -76 -76
-125 -86 -35 -7 -36 -16 -8 -44 l21 -21 50 48 50 49 -7 -39 c-9 -51 -46 -126
-86 -171 -17 -19 -27 -35 -22 -35 23 0 94 62 116 102 37 63 46 107 57 263 6
77 13 154 16 171 5 26 2 32 -21 42 -29 13 -48 15 -58 5z"/>
<path d="M180 644 c-36 -13 -80 -23 -97 -24 -35 0 -41 -8 -21 -28 17 -17 49
-15 112 9 31 12 59 19 62 16 10 -10 -110 -180 -175 -250 -35 -37 -62 -69 -59
-72 8 -8 103 62 141 104 20 22 39 41 42 41 10 0 5 -173 -6 -234 -10 -54 -9
-66 6 -95 29 -57 39 -25 46 147 4 86 7 159 8 161 0 2 13 -8 28 -23 28 -28 48
-23 41 10 -2 11 -21 25 -48 35 -24 9 -46 21 -48 27 -4 12 63 107 91 131 25 20
21 46 -8 59 -32 15 -35 14 -115 -14z"/>
<path d="M330 542 c0 -5 15 -26 33 -47 38 -43 67 -43 67 0 0 20 -8 29 -35 41
-38 16 -65 18 -65 6z"/>
</g>
</svg>
