<?xml version="1.0" standalone="no"?>
<!DOCTYPE svg PUBLIC "-//W3C//DTD SVG 20010904//EN"
 "http://www.w3.org/TR/2001/REC-SVG-20010904/DTD/svg10.dtd">
<svg version="1.0" xmlns="http://www.w3.org/2000/svg"
 width="96.000000pt" height="68.000000pt" viewBox="0 0 96.000000 68.000000"
 preserveAspectRatio="xMidYMid meet">
<metadata>
Created by potrace 1.16, written by Peter Selinger 2001-2019
</metadata>
<g transform="translate(0.000000,68.000000) scale(0.100000,-0.100000)"
fill="#000000" stroke="none">
<path d="M210 424 c-25 -8 -58 -14 -75 -13 -45 2 -47 1 -27 -19 10 -10 24 -46
31 -80 12 -63 27 -85 37 -58 4 10 18 16 38 16 41 0 77 10 71 20 -3 4 5 36 17
70 19 53 20 62 8 70 -20 13 -46 11 -100 -6z m46 -66 c-4 -29 -8 -54 -10 -55
-1 -2 -17 -6 -34 -9 -28 -6 -33 -3 -43 22 -6 16 -13 41 -16 56 -5 25 -3 27 33
31 84 8 77 13 70 -45z"/>
</g>
</svg>
