<?xml version="1.0" standalone="no"?>
<!DOCTYPE svg PUBLIC "-//W3C//DTD SVG 20010904//EN"
 "http://www.w3.org/TR/2001/REC-SVG-20010904/DTD/svg10.dtd">
<svg version="1.0" xmlns="http://www.w3.org/2000/svg"
 width="96.000000pt" height="68.000000pt" viewBox="0 0 96.000000 68.000000"
 preserveAspectRatio="xMidYMid meet">
<metadata>
Created by potrace 1.16, written by Peter Selinger 2001-2019
</metadata>
<g transform="translate(0.000000,68.000000) scale(0.100000,-0.100000)"
fill="#000000" stroke="none">
<path d="M365 330 c-16 -4 -45 -8 -64 -9 -19 0 -42 -8 -52 -17 -15 -13 -16
-21 -5 -68 17 -73 21 -77 54 -60 15 7 51 14 80 14 48 0 52 2 52 23 0 12 9 41
20 62 19 38 19 41 3 52 -18 14 -42 15 -88 3z m31 -34 c3 -7 1 -29 -3 -47 -8
-30 -14 -34 -53 -41 -24 -4 -48 -4 -52 0 -4 4 -10 26 -14 49 l-6 42 43 4 c24
2 52 4 62 5 10 1 20 -4 23 -12z"/>
</g>
</svg>
