<?xml version="1.0" standalone="no"?>
<!DOCTYPE svg PUBLIC "-//W3C//DTD SVG 20010904//EN"
 "http://www.w3.org/TR/2001/REC-SVG-20010904/DTD/svg10.dtd">
<svg version="1.0" xmlns="http://www.w3.org/2000/svg"
 width="96.000000pt" height="68.000000pt" viewBox="0 0 96.000000 68.000000"
 preserveAspectRatio="xMidYMid meet">
<metadata>
Created by potrace 1.16, written by Peter Selinger 2001-2019
</metadata>
<g transform="translate(0.000000,68.000000) scale(0.100000,-0.100000)"
fill="#000000" stroke="none">
<path d="M394 618 c3 -18 7 -51 8 -73 l3 -40 -73 -9 c-96 -11 -92 -31 6 -31
l72 0 0 -37 c0 -42 -2 -43 -135 -53 -105 -8 -145 -15 -145 -26 0 -18 55 -21
161 -9 60 7 112 11 114 8 2 -2 7 -42 11 -88 6 -69 5 -82 -7 -78 -8 3 -31 11
-51 19 -21 7 -38 17 -38 22 0 4 -4 5 -10 2 -15 -9 -12 13 6 39 14 23 14 25 -8
40 -12 9 -25 16 -28 16 -3 0 -11 -20 -19 -44 -13 -45 -30 -72 -89 -145 -50
-61 -21 -50 49 19 34 33 66 60 73 60 6 0 36 -14 66 -31 117 -67 250 -129 274
-129 49 0 177 23 169 30 -4 4 -67 16 -139 28 -72 11 -147 29 -168 38 -33 16
-36 21 -36 61 l0 43 39 0 c21 0 59 3 85 6 39 6 44 9 34 21 -9 12 -25 14 -71 8
-32 -3 -65 -9 -73 -12 -11 -4 -14 5 -14 41 0 41 3 46 23 47 109 3 258 16 264
23 4 4 -1 14 -12 23 -20 15 -65 14 -217 -3 l-58 -7 0 37 c0 20 3 36 8 37 94
14 137 26 137 39 0 12 -13 15 -67 13 l-68 -2 0 54 c0 59 0 59 -48 70 -33 7
-33 7 -28 -27z"/>
</g>
</svg>
