<?xml version="1.0" standalone="no"?>
<!DOCTYPE svg PUBLIC "-//W3C//DTD SVG 20010904//EN"
 "http://www.w3.org/TR/2001/REC-SVG-20010904/DTD/svg10.dtd">
<svg version="1.0" xmlns="http://www.w3.org/2000/svg"
 width="90.000000pt" height="92.000000pt" viewBox="0 0 90.000000 92.000000"
 preserveAspectRatio="xMidYMid meet">
<metadata>
Created by potrace 1.16, written by Peter Selinger 2001-2019
</metadata>
<g transform="translate(0.000000,92.000000) scale(0.100000,-0.100000)"
fill="#000000" stroke="none">
<path d="M649 866 c-10 -11 -398 -47 -436 -41 -46 7 -54 -2 -25 -29 11 -9 25
-42 32 -74 16 -73 26 -91 47 -86 10 2 85 10 167 18 110 11 153 12 166 3 23
-14 44 2 70 53 11 21 31 52 46 69 29 35 24 50 -27 77 -31 15 -34 16 -40 10z
m-9 -61 c0 -8 -7 -33 -16 -55 -13 -33 -21 -40 -44 -40 -15 0 -42 -3 -60 -6
l-32 -7 27 48 c25 46 26 50 9 62 -15 11 -8 13 49 13 52 0 67 -3 67 -15z m-156
-4 c4 -5 1 -32 -5 -60 -10 -47 -13 -51 -40 -51 -28 0 -29 2 -29 44 0 24 -3 51
-6 60 -5 13 2 16 34 16 23 0 43 -4 46 -9z m-127 -13 c4 -7 13 -34 19 -60 l11
-48 -43 0 c-23 0 -49 -2 -56 -5 -11 -4 -17 9 -25 50 -10 55 -9 56 16 61 14 3
31 7 36 9 21 7 34 5 42 -7z"/>
<path d="M645 618 c16 -50 23 -170 19 -298 -6 -166 -9 -183 -32 -176 -9 2 -33
8 -52 11 l-35 7 60 -61 c33 -34 65 -61 71 -61 25 0 33 62 37 270 3 146 8 226
17 249 12 33 12 36 -14 58 -15 13 -39 23 -53 23 -22 0 -24 -3 -18 -22z"/>
<path d="M260 596 c0 -8 12 -28 26 -45 l25 -30 -23 -6 c-13 -2 -77 -12 -142
-20 -66 -8 -121 -17 -123 -19 -8 -8 30 -29 55 -29 15 0 81 9 147 20 66 12 146
24 178 28 31 3 57 11 57 16 0 13 -46 22 -84 16 -31 -5 -32 -4 -28 24 3 23 0
30 -19 37 -59 22 -69 24 -69 8z"/>
<path d="M516 433 c6 -133 10 -163 24 -163 15 0 21 58 18 170 -3 100 -4 105
-25 108 -22 3 -22 3 -17 -115z"/>
<path d="M243 423 c-115 -27 -62 -53 56 -28 85 18 99 24 80 36 -19 12 -63 9
-136 -8z"/>
<path d="M242 343 c-47 -11 -61 -18 -53 -26 14 -14 80 -11 144 5 109 29 22 48
-91 21z"/>
<path d="M310 265 c-19 -7 -61 -14 -93 -14 -57 -1 -57 -1 -43 -23 8 -13 19
-49 26 -80 11 -57 23 -77 34 -59 4 5 40 12 82 16 74 7 75 8 69 32 -4 16 2 41
16 70 13 26 18 48 12 54 -16 16 -67 18 -103 4z m37 -72 c-4 -20 -12 -40 -18
-44 -14 -8 -80 -22 -84 -17 -1 2 -6 22 -10 45 -7 46 -3 49 79 52 l39 1 -6 -37z"/>
</g>
</svg>
