<?xml version="1.0" standalone="no"?>
<!DOCTYPE svg PUBLIC "-//W3C//DTD SVG 20010904//EN"
 "http://www.w3.org/TR/2001/REC-SVG-20010904/DTD/svg10.dtd">
<svg version="1.0" xmlns="http://www.w3.org/2000/svg"
 width="96.000000pt" height="68.000000pt" viewBox="0 0 96.000000 68.000000"
 preserveAspectRatio="xMidYMid meet">
<metadata>
Created by potrace 1.16, written by Peter Selinger 2001-2019
</metadata>
<g transform="translate(0.000000,68.000000) scale(0.100000,-0.100000)"
fill="#000000" stroke="none">
<path d="M555 594 c-72 -7 -165 -13 -207 -13 -80 -1 -90 -5 -62 -26 9 -6 24
-34 33 -61 l16 -49 50 1 c106 1 315 11 319 15 21 22 76 101 76 109 0 13 -55
40 -77 39 -10 -1 -76 -8 -148 -15z m135 -33 c0 -4 -5 -21 -10 -37 -9 -26 -15
-29 -60 -32 -28 -2 -50 0 -50 3 0 3 7 17 16 30 9 13 13 29 9 35 -4 6 12 10 44
10 28 0 51 -4 51 -9z m-135 -33 c-4 -18 -11 -37 -15 -41 -16 -18 -42 -1 -55
36 l-13 37 45 0 45 0 -7 -32z m-96 -8 c9 -28 8 -32 -15 -40 -49 -19 -68 -13
-80 25 -12 39 -8 43 48 44 32 1 37 -3 47 -29z"/>
<path d="M704 422 c10 -45 11 -306 2 -320 -5 -9 -21 -12 -43 -10 l-36 4 44
-38 c74 -64 75 -63 84 147 3 77 11 155 16 173 13 39 7 48 -40 62 -32 9 -32 8
-27 -18z"/>
<path d="M360 413 c0 -6 9 -18 20 -28 11 -10 20 -21 20 -24 0 -4 -53 -12 -117
-19 -64 -7 -119 -15 -122 -17 -8 -9 7 -17 31 -17 32 -1 332 34 338 39 12 10
-27 20 -61 16 -32 -5 -38 -3 -34 9 3 8 0 20 -7 26 -19 15 -68 26 -68 15z"/>
<path d="M586 293 c6 -98 9 -113 22 -113 11 0 25 160 16 183 -3 9 -14 17 -25
17 -17 0 -18 -7 -13 -87z"/>
<path d="M345 286 c-87 -16 -51 -30 40 -15 78 12 111 30 53 28 -18 -1 -60 -6
-93 -13z"/>
<path d="M341 229 c-24 -5 -47 -11 -50 -15 -10 -11 162 5 173 16 12 12 -58 12
-123 -1z"/>
<path d="M385 170 c-16 -4 -50 -8 -74 -9 -41 -1 -43 -2 -28 -18 8 -10 19 -34
24 -53 5 -19 13 -35 19 -35 71 4 144 19 140 30 -2 7 5 27 16 45 16 26 17 35 6
41 -15 10 -61 10 -103 -1z m47 -36 c-6 -37 -11 -43 -47 -50 -41 -7 -52 0 -57
36 -3 23 1 26 42 31 59 8 66 6 62 -17z"/>
</g>
</svg>
