<?xml version="1.0" standalone="no"?>
<!DOCTYPE svg PUBLIC "-//W3C//DTD SVG 20010904//EN"
 "http://www.w3.org/TR/2001/REC-SVG-20010904/DTD/svg10.dtd">
<svg version="1.0" xmlns="http://www.w3.org/2000/svg"
 width="96.000000pt" height="68.000000pt" viewBox="0 0 96.000000 68.000000"
 preserveAspectRatio="xMidYMid meet">
<metadata>
Created by potrace 1.16, written by Peter Selinger 2001-2019
</metadata>
<g transform="translate(0.000000,68.000000) scale(0.100000,-0.100000)"
fill="#000000" stroke="none">
<path d="M547 543 c4 -16 8 -48 8 -73 l0 -45 -55 -3 c-83 -5 -87 -22 -6 -22
l69 0 -7 -70 c-13 -125 -46 -187 -133 -247 -57 -39 -57 -52 0 -34 49 16 110
73 132 120 10 23 21 41 25 41 4 0 20 -19 35 -41 15 -23 45 -61 67 -85 39 -42
43 -44 98 -44 31 0 59 3 63 6 3 3 -29 23 -72 45 -53 26 -95 57 -130 94 -52 55
-53 57 -47 103 18 131 11 119 74 126 31 4 63 10 71 15 23 15 -24 24 -81 16
l-51 -7 6 56 c5 54 4 58 -19 67 -44 16 -55 12 -47 -18z"/>
</g>
</svg>
