<?xml version="1.0" standalone="no"?>
<!DOCTYPE svg PUBLIC "-//W3C//DTD SVG 20010904//EN"
 "http://www.w3.org/TR/2001/REC-SVG-20010904/DTD/svg10.dtd">
<svg version="1.0" xmlns="http://www.w3.org/2000/svg"
 width="90.000000pt" height="92.000000pt" viewBox="0 0 90.000000 92.000000"
 preserveAspectRatio="xMidYMid meet">
<metadata>
Created by potrace 1.16, written by Peter Selinger 2001-2019
</metadata>
<g transform="translate(0.000000,92.000000) scale(0.100000,-0.100000)"
fill="#000000" stroke="none">
<path d="M552 808 c-7 -23 -25 -61 -39 -86 -25 -41 -28 -43 -61 -37 l-35 6 7
-43 c4 -24 9 -96 11 -161 4 -124 10 -151 29 -125 8 10 40 17 113 21 96 7 103
6 113 -13 6 -11 16 -18 21 -14 21 12 27 53 30 193 l4 143 -28 15 c-25 13 -37
12 -104 -1 -41 -9 -79 -16 -83 -16 -5 0 18 26 51 57 57 54 59 58 42 74 -10 9
-27 20 -38 23 -17 5 -22 -1 -33 -36z m122 -144 c3 -9 6 -26 6 -39 0 -20 -3
-22 -27 -16 -15 4 -52 2 -83 -6 -90 -21 -102 -19 -98 19 3 31 5 33 63 44 90
17 132 17 139 -2z m6 -115 c0 -39 -1 -40 -27 -35 -16 4 -59 0 -98 -9 -38 -8
-73 -15 -77 -15 -5 0 -8 16 -8 35 0 35 0 35 48 36 36 1 145 19 160 28 1 0 2
-17 2 -40z m0 -94 c0 -31 -2 -34 -27 -33 -16 1 -63 -2 -105 -6 -78 -8 -78 -8
-78 16 0 23 5 25 103 40 56 8 103 16 105 17 1 0 2 -15 2 -34z"/>
<path d="M186 723 c6 -69 -16 -227 -34 -245 -5 -5 -39 -11 -77 -13 -37 -2 -69
-6 -71 -8 -2 -2 9 -16 26 -32 l29 -28 42 17 41 17 -6 -23 c-3 -13 -9 -33 -12
-44 -4 -17 4 -28 40 -54 25 -19 46 -39 46 -46 0 -15 -96 -102 -127 -117 -41
-18 -24 -26 21 -11 25 9 66 34 91 56 l46 41 33 -32 c29 -28 34 -30 46 -17 17
21 5 62 -24 81 l-24 16 19 47 c10 26 26 72 34 104 13 45 21 57 40 62 30 8 33
26 4 26 -14 0 -19 5 -16 14 6 16 -37 50 -56 43 -7 -2 -11 -18 -9 -39 3 -35 3
-35 -45 -45 l-49 -9 33 120 c18 67 32 129 33 138 0 16 -46 48 -70 48 -7 0 -8
-23 -4 -67z m100 -270 c-2 -10 -12 -44 -20 -75 -9 -31 -21 -60 -26 -63 -13 -8
-70 22 -77 41 -3 8 1 31 8 51 11 29 22 39 54 49 57 17 67 17 61 -3z"/>
<path d="M561 313 c30 -41 64 -73 75 -73 15 0 25 25 17 45 -7 20 -55 45 -84
45 -19 0 -20 -2 -8 -17z"/>
<path d="M796 270 c32 -33 59 -60 61 -60 1 0 7 9 13 20 16 29 -4 58 -53 81
-78 35 -84 24 -21 -41z"/>
<path d="M372 230 c-24 -57 -28 -105 -12 -115 33 -20 68 86 46 139 l-12 30
-22 -54z"/>
<path d="M460 225 c26 -74 53 -111 103 -136 76 -39 200 -35 250 9 25 22 21 45
-14 66 -17 10 -46 32 -65 48 -39 34 -39 34 -20 -20 17 -48 9 -60 -46 -68 -81
-14 -163 37 -186 115 -7 23 -19 41 -27 41 -11 0 -10 -10 5 -55z"/>
</g>
</svg>
