<?xml version="1.0" standalone="no"?>
<!DOCTYPE svg PUBLIC "-//W3C//DTD SVG 20010904//EN"
 "http://www.w3.org/TR/2001/REC-SVG-20010904/DTD/svg10.dtd">
<svg version="1.0" xmlns="http://www.w3.org/2000/svg"
 width="96.000000pt" height="68.000000pt" viewBox="0 0 96.000000 68.000000"
 preserveAspectRatio="xMidYMid meet">
<metadata>
Created by potrace 1.16, written by Peter Selinger 2001-2019
</metadata>
<g transform="translate(0.000000,68.000000) scale(0.100000,-0.100000)"
fill="#000000" stroke="none">
<path d="M396 569 c4 -19 8 -47 8 -64 1 -28 -2 -31 -46 -39 -27 -5 -51 -7 -54
-3 -3 3 -1 22 6 42 14 43 7 53 -43 62 l-35 5 5 -60 6 -61 -33 -3 c-46 -4 -52
-28 -7 -28 42 0 47 -12 47 -117 l0 -73 -34 0 c-45 0 -96 -11 -96 -20 0 -5 14
-13 31 -19 23 -8 63 -6 167 9 75 11 159 23 187 26 46 5 48 7 30 20 -10 8 -32
14 -47 14 l-29 0 3 92 3 93 29 5 c36 6 36 22 -1 34 -16 5 -29 10 -30 10 -1 1
2 19 8 40 12 45 7 52 -45 62 l-38 7 8 -34z m14 -162 c0 -16 -6 -23 -22 -24
-13 -1 -38 -5 -55 -8 -30 -5 -33 -4 -33 18 0 33 7 37 62 37 43 0 48 -2 48 -23z
m0 -67 c0 -12 -7 -20 -17 -20 -10 0 -35 -3 -55 -6 -34 -6 -38 -4 -38 14 0 21
16 27 83 31 21 1 27 -3 27 -19z m0 -59 c0 -25 -4 -27 -62 -35 -46 -7 -48 -6
-48 18 0 23 4 25 48 29 26 2 50 4 55 5 4 1 7 -7 7 -17z"/>
<path d="M680 509 c-19 -5 -55 -6 -79 -3 -40 5 -43 4 -37 -13 15 -36 18 -160
7 -232 -12 -77 -54 -169 -93 -203 -12 -10 -16 -18 -11 -18 10 0 54 31 81 57
19 18 62 109 62 131 0 16 9 20 63 25 34 3 66 2 71 -3 5 -5 5 -42 0 -87 l-9
-78 -35 3 -35 2 35 -30 c19 -17 44 -29 55 -28 39 6 45 42 39 208 -5 107 -3
168 5 198 11 38 10 46 -5 63 -18 20 -55 23 -114 8z m58 -36 c10 -20 4 -95 -8
-88 -4 2 -30 1 -58 -4 -50 -8 -52 -7 -52 14 0 57 12 84 39 88 55 8 71 6 79
-10z m12 -160 c0 -33 -1 -33 -47 -33 -27 0 -57 -3 -68 -6 -19 -5 -20 -1 -17
34 l4 39 56 9 c64 10 72 6 72 -43z"/>
<path d="M270 165 c0 -8 -4 -15 -8 -15 -5 0 -14 -10 -21 -22 -6 -13 -28 -33
-47 -46 -39 -25 -40 -41 -2 -21 58 30 138 85 138 95 0 7 -10 14 -22 18 -34 9
-38 8 -38 -9z"/>
<path d="M437 138 c31 -31 46 -39 54 -31 17 17 -5 49 -42 62 -53 18 -55 13
-12 -31z"/>
</g>
</svg>
