<?xml version="1.0" standalone="no"?>
<!DOCTYPE svg PUBLIC "-//W3C//DTD SVG 20010904//EN"
 "http://www.w3.org/TR/2001/REC-SVG-20010904/DTD/svg10.dtd">
<svg version="1.0" xmlns="http://www.w3.org/2000/svg"
 width="96.000000pt" height="68.000000pt" viewBox="0 0 96.000000 68.000000"
 preserveAspectRatio="xMidYMid meet">
<metadata>
Created by potrace 1.16, written by Peter Selinger 2001-2019
</metadata>
<g transform="translate(0.000000,68.000000) scale(0.100000,-0.100000)"
fill="#000000" stroke="none">
<path d="M214 579 c-3 -5 9 -29 25 -53 32 -46 37 -57 24 -54 -5 1 -47 -4 -95
-11 -87 -13 -100 -23 -52 -41 22 -9 61 -4 274 37 24 5 24 5 5 19 -13 10 -34
13 -65 9 -25 -3 -39 -2 -32 1 19 9 14 51 -9 73 -23 21 -67 33 -75 20z"/>
<path d="M630 500 c-19 -5 -68 -12 -108 -16 -89 -8 -105 -24 -24 -24 l59 0 6
-37 c3 -21 6 -84 7 -141 1 -78 -2 -103 -13 -107 -7 -3 -48 -7 -90 -8 -46 -1
-75 -6 -73 -12 1 -5 27 -10 57 -9 108 1 394 16 398 20 14 13 -24 19 -126 19
l-116 0 2 100 c1 55 7 119 12 141 l11 42 59 6 c32 4 61 11 64 15 12 21 -59 26
-125 11z"/>
<path d="M695 378 c-9 -29 -28 -65 -41 -81 -13 -16 -24 -33 -24 -38 0 -15 37
8 54 33 l16 22 33 -32 c36 -35 71 -43 65 -14 -2 9 -20 26 -41 37 -20 11 -37
24 -37 29 0 6 12 23 27 38 26 27 26 28 7 43 -31 24 -41 18 -59 -37z"/>
<path d="M456 366 c-4 -18 -20 -53 -37 -76 -38 -52 -31 -63 12 -20 l32 32 24
-26 c24 -26 53 -35 53 -16 0 11 -40 50 -52 50 -13 0 -9 22 8 41 20 22 12 49
-15 49 -13 0 -21 -9 -25 -34z"/>
<path d="M230 377 c-36 -9 -40 -12 -21 -15 36 -6 131 8 131 19 0 12 -52 10
-110 -4z"/>
<path d="M240 313 c-46 -6 -64 -23 -23 -23 52 0 123 12 123 21 0 9 -34 9 -100
2z"/>
<path d="M280 240 c-14 -4 -49 -8 -79 -9 -52 -1 -53 -2 -38 -19 9 -10 20 -33
23 -50 4 -18 11 -32 16 -32 5 0 6 -5 2 -12 -5 -8 -2 -9 10 -5 10 4 42 10 71
13 37 5 52 10 49 19 -3 7 4 30 15 51 16 29 18 40 8 46 -15 9 -44 9 -77 -2z
m23 -52 c-7 -40 -2 -34 -41 -43 -30 -6 -33 -4 -46 27 -14 31 -13 33 7 40 12 3
37 6 54 7 31 1 32 0 26 -31z"/>
</g>
</svg>
