<?xml version="1.0" standalone="no"?>
<!DOCTYPE svg PUBLIC "-//W3C//DTD SVG 20010904//EN"
 "http://www.w3.org/TR/2001/REC-SVG-20010904/DTD/svg10.dtd">
<svg version="1.0" xmlns="http://www.w3.org/2000/svg"
 width="96.000000pt" height="68.000000pt" viewBox="0 0 96.000000 68.000000"
 preserveAspectRatio="xMidYMid meet">
<metadata>
Created by potrace 1.16, written by Peter Selinger 2001-2019
</metadata>
<g transform="translate(0.000000,68.000000) scale(0.100000,-0.100000)"
fill="#000000" stroke="none">
<path d="M563 541 c-72 -7 -95 -21 -35 -21 l42 0 2 -177 c3 -153 5 -177 18
-174 8 2 40 6 71 9 l57 4 22 78 c12 43 19 84 15 90 -6 9 -28 11 -79 6 l-72 -6
1 26 c0 30 0 30 67 39 26 3 47 9 47 13 -3 19 3 33 28 62 26 31 26 33 8 46 -19
14 -78 16 -192 5z m124 -48 c-7 -41 -29 -63 -61 -63 -19 0 -21 5 -18 50 l4 50
40 0 41 0 -6 -37z m21 -180 c-3 -26 -7 -28 -50 -31 -47 -3 -48 -3 -48 28 0 29
1 30 51 30 49 0 50 -1 47 -27z m-10 -75 c-3 -30 -6 -33 -44 -36 -39 -3 -42 -2
-46 27 -4 28 -2 30 31 34 20 2 42 4 49 5 9 1 12 -8 10 -30z"/>
<path d="M470 370 c0 -16 -3 -29 -7 -28 -5 1 -32 -1 -61 -5 l-52 -8 6 -57 c8
-86 12 -114 16 -117 2 -1 33 2 71 7 l67 10 0 114 c0 107 -1 114 -20 114 -16 0
-20 -7 -20 -30z m0 -74 c0 -29 -4 -34 -28 -38 -42 -6 -52 0 -52 32 0 29 4 31
68 39 7 0 12 -12 12 -33z m0 -81 c0 -34 -1 -35 -40 -35 -38 0 -40 2 -40 29 0
26 4 30 33 34 17 2 35 5 40 5 4 1 7 -14 7 -33z"/>
</g>
</svg>
