<?xml version="1.0" standalone="no"?>
<!DOCTYPE svg PUBLIC "-//W3C//DTD SVG 20010904//EN"
 "http://www.w3.org/TR/2001/REC-SVG-20010904/DTD/svg10.dtd">
<svg version="1.0" xmlns="http://www.w3.org/2000/svg"
 width="96.000000pt" height="68.000000pt" viewBox="0 0 96.000000 68.000000"
 preserveAspectRatio="xMidYMid meet">
<metadata>
Created by potrace 1.16, written by Peter Selinger 2001-2019
</metadata>
<g transform="translate(0.000000,68.000000) scale(0.100000,-0.100000)"
fill="#000000" stroke="none">
<path d="M256 592 c-5 -9 66 -82 80 -82 16 0 44 23 44 35 0 30 -109 71 -124
47z"/>
<path d="M587 558 c4 -18 8 -62 8 -98 l0 -65 -82 -3 c-82 -3 -96 -9 -69 -31 8
-7 14 -27 14 -45 0 -29 10 -90 28 -173 5 -25 24 -32 24 -10 0 11 26 16 103 21
95 6 103 5 119 -14 19 -23 41 -26 57 -6 6 7 20 58 30 112 11 55 22 109 26 121
11 36 -31 56 -102 48 -32 -4 -66 -9 -77 -12 -17 -5 -18 1 -15 78 2 46 0 90 -4
97 -5 6 -22 12 -38 12 -29 0 -30 -1 -22 -32z m193 -213 l0 -45 -65 0 -65 0 0
44 0 43 65 2 65 2 0 -46z m-180 -14 c0 -35 -3 -39 -31 -45 -51 -10 -79 -7 -79
8 0 7 -3 27 -6 44 l-6 31 53 3 c30 2 57 2 62 0 4 -2 7 -20 7 -41z m172 -82
c-8 -66 -11 -72 -44 -65 -17 3 -42 6 -57 6 -25 0 -26 2 -23 40 l4 39 52 4 c69
4 71 4 68 -24z m-211 -72 c-24 -4 -45 -7 -46 -5 -2 2 -6 22 -10 45 l-7 42 49
3 48 3 5 -40 5 -40 -44 -8z"/>
<path d="M290 451 c-8 -5 -51 -14 -94 -20 -86 -12 -98 -17 -76 -31 22 -14 80
-12 135 5 27 8 51 13 52 11 7 -7 -83 -113 -151 -180 -52 -50 -64 -67 -46 -61
43 13 80 35 121 73 l41 36 -6 -80 c-3 -43 -6 -92 -7 -107 -1 -16 6 -36 15 -45
16 -16 18 -16 32 2 10 14 14 48 14 114 l0 94 42 -31 c22 -17 45 -28 50 -25 17
11 7 36 -22 52 -36 20 -37 28 -7 38 37 11 49 25 36 40 -18 22 -41 16 -69 -17
-23 -29 -27 -30 -39 -15 -12 15 -8 23 39 68 l53 51 -22 19 c-25 19 -66 23 -91
9z"/>
</g>
</svg>
