<?xml version="1.0" standalone="no"?>
<!DOCTYPE svg PUBLIC "-//W3C//DTD SVG 20010904//EN"
 "http://www.w3.org/TR/2001/REC-SVG-20010904/DTD/svg10.dtd">
<svg version="1.0" xmlns="http://www.w3.org/2000/svg"
 width="96.000000pt" height="68.000000pt" viewBox="0 0 96.000000 68.000000"
 preserveAspectRatio="xMidYMid meet">
<metadata>
Created by potrace 1.16, written by Peter Selinger 2001-2019
</metadata>
<g transform="translate(0.000000,68.000000) scale(0.100000,-0.100000)"
fill="#000000" stroke="none">
<path d="M630 465 c-30 -7 -79 -14 -108 -14 -52 -1 -52 -1 -38 -23 7 -13 19
-40 26 -60 l12 -38 93 2 94 2 17 46 c9 25 21 50 26 57 7 8 0 17 -21 27 -16 9
-34 15 -38 15 -4 -1 -33 -7 -63 -14z m60 -35 c0 -16 -7 -20 -34 -20 -29 0 -33
3 -29 20 4 14 14 20 34 20 22 0 29 -5 29 -20z m-100 -10 c0 -15 -7 -20 -29
-20 -16 0 -31 6 -34 14 -8 19 1 26 35 26 21 0 28 -5 28 -20z m90 -45 c0 -9 -9
-15 -25 -15 -16 0 -25 6 -25 15 0 9 9 15 25 15 16 0 25 -6 25 -15z m-90 -10
c0 -9 -9 -15 -25 -15 -16 0 -25 6 -25 15 0 9 9 15 25 15 16 0 25 -6 25 -15z"/>
</g>
</svg>
