<?xml version="1.0" standalone="no"?>
<!DOCTYPE svg PUBLIC "-//W3C//DTD SVG 20010904//EN"
 "http://www.w3.org/TR/2001/REC-SVG-20010904/DTD/svg10.dtd">
<svg version="1.0" xmlns="http://www.w3.org/2000/svg"
 width="96.000000pt" height="68.000000pt" viewBox="0 0 96.000000 68.000000"
 preserveAspectRatio="xMidYMid meet">
<metadata>
Created by potrace 1.16, written by Peter Selinger 2001-2019
</metadata>
<g transform="translate(0.000000,68.000000) scale(0.100000,-0.100000)"
fill="#000000" stroke="none">
<path d="M614 329 c-6 -11 5 -16 50 -24 38 -8 38 -8 33 -47 -3 -22 -18 -65
-34 -96 -25 -51 -31 -57 -58 -57 -16 1 -40 4 -53 9 -22 7 -22 7 3 -31 15 -20
31 -41 37 -44 35 -22 99 45 133 137 15 41 31 77 36 80 14 8 11 40 -6 54 -17
14 -134 30 -141 19z"/>
</g>
</svg>
