<?xml version="1.0" standalone="no"?>
<!DOCTYPE svg PUBLIC "-//W3C//DTD SVG 20010904//EN"
 "http://www.w3.org/TR/2001/REC-SVG-20010904/DTD/svg10.dtd">
<svg version="1.0" xmlns="http://www.w3.org/2000/svg"
 width="90.000000pt" height="92.000000pt" viewBox="0 0 90.000000 92.000000"
 preserveAspectRatio="xMidYMid meet">
<metadata>
Created by potrace 1.16, written by Peter Selinger 2001-2019
</metadata>
<g transform="translate(0.000000,92.000000) scale(0.100000,-0.100000)"
fill="#000000" stroke="none">
<path d="M500 867 c0 -22 -47 -100 -101 -171 l-23 -29 25 13 c13 7 41 28 61
48 30 29 47 36 83 38 25 2 45 1 45 -2 0 -20 -45 -86 -63 -93 -12 -4 -65 -14
-117 -20 -101 -13 -113 -17 -90 -31 11 -7 15 -29 14 -92 -2 -151 -43 -328 -99
-425 -24 -44 -22 -57 5 -25 58 68 97 159 119 277 13 68 14 70 38 57 12 -6 45
-5 98 4 44 7 131 16 193 20 62 4 115 11 118 15 2 4 -6 15 -20 24 -21 14 -33
14 -104 2 l-80 -14 1 25 c2 19 -6 30 -31 45 -18 11 -35 17 -38 14 -3 -3 6 -24
20 -46 17 -26 22 -41 14 -41 -7 -1 -55 -7 -106 -14 l-93 -13 5 26 c3 14 8 54
11 87 6 59 8 62 37 68 41 8 58 8 58 -2 0 -5 -16 -34 -35 -66 -19 -32 -35 -60
-35 -63 0 -13 67 38 97 74 35 42 36 62 5 64 -9 1 1 5 23 10 66 13 75 11 75
-15 0 -14 4 -36 9 -49 15 -40 106 -61 152 -36 34 18 5 38 -51 36 -59 -2 -74
10 -65 52 7 31 7 31 71 31 69 0 79 10 38 36 -22 15 -33 16 -95 4 -39 -6 -72
-10 -75 -8 -2 3 19 29 47 58 28 29 48 58 45 66 -8 22 -51 27 -91 10 -56 -24
-73 -21 -47 7 30 31 28 43 -9 56 -41 14 -39 15 -39 -12z"/>
<path d="M225 813 c-21 -100 -88 -224 -176 -326 -28 -32 -49 -61 -46 -64 9 -8
79 50 126 104 34 37 42 42 47 28 11 -28 -3 -287 -18 -335 -12 -36 -12 -52 -3
-80 7 -19 18 -35 25 -35 22 0 29 47 38 250 9 179 9 192 -9 217 l-19 27 37 68
c20 37 45 80 55 95 23 33 23 33 -4 58 -30 27 -47 25 -53 -7z"/>
<path d="M555 376 c-78 -11 -102 -28 -50 -34 31 -4 195 15 204 23 9 10 -22 25
-49 23 -14 0 -61 -6 -105 -12z"/>
<path d="M543 298 c-73 -10 -91 -21 -52 -31 22 -6 210 11 218 19 3 3 -1 9 -9
14 -18 11 -59 11 -157 -2z"/>
<path d="M620 224 c-41 -7 -99 -13 -127 -13 -29 -1 -53 -3 -53 -5 0 -2 7 -17
15 -32 8 -16 15 -39 15 -51 0 -35 21 -74 34 -64 7 6 58 13 114 17 68 5 101 11
99 18 -5 14 17 58 37 75 9 8 16 17 16 22 0 9 -60 50 -70 48 -3 -1 -39 -7 -80
-15z m60 -58 c0 -19 -4 -37 -9 -41 -9 -5 -154 -26 -157 -22 -1 1 -4 18 -6 37
l-3 35 65 11 c108 19 110 19 110 -20z"/>
</g>
</svg>
