<?xml version="1.0" standalone="no"?>
<!DOCTYPE svg PUBLIC "-//W3C//DTD SVG 20010904//EN"
 "http://www.w3.org/TR/2001/REC-SVG-20010904/DTD/svg10.dtd">
<svg version="1.0" xmlns="http://www.w3.org/2000/svg"
 width="96.000000pt" height="68.000000pt" viewBox="0 0 96.000000 68.000000"
 preserveAspectRatio="xMidYMid meet">
<metadata>
Created by potrace 1.16, written by Peter Selinger 2001-2019
</metadata>
<g transform="translate(0.000000,68.000000) scale(0.100000,-0.100000)"
fill="#000000" stroke="none">
<path d="M260 594 c0 -5 11 -21 25 -36 14 -15 21 -29 17 -31 -4 -3 -35 -8 -69
-12 -65 -7 -80 -18 -41 -31 28 -8 42 -24 46 -49 2 -11 8 -25 13 -32 14 -17 0
-22 -80 -29 -67 -7 -84 -15 -61 -29 9 -6 70 2 180 21 14 2 62 7 108 11 63 5
82 9 82 21 0 12 -10 14 -55 8 -30 -3 -55 -4 -55 -2 0 3 9 21 21 40 11 19 18
40 14 45 -3 6 6 13 20 17 14 3 25 13 25 21 0 12 -11 14 -48 11 -41 -2 -48 0
-45 13 3 8 -2 21 -10 28 -19 15 -87 27 -87 15z m91 -177 c-8 -21 -17 -27 -41
-27 -23 0 -30 5 -30 19 0 10 -9 30 -20 44 l-21 26 33 5 c79 13 83 12 86 -15 2
-14 -2 -37 -7 -52z"/>
<path d="M500 571 c0 -11 5 -23 11 -27 8 -4 10 -30 7 -76 -3 -37 -2 -71 2 -73
5 -3 32 1 61 8 69 18 91 12 87 -21 -4 -32 -49 -46 -128 -39 l-55 5 3 -131 c2
-79 7 -136 14 -145 36 -43 167 -64 270 -43 71 15 84 29 64 67 -8 16 -18 38
-22 49 -6 18 -8 16 -21 -15 -8 -19 -22 -40 -31 -47 -22 -16 -162 -17 -197 -1
-29 13 -28 32 1 35 10 1 51 5 89 9 97 9 55 24 -47 17 -74 -6 -78 -5 -78 15 0
18 8 21 78 27 120 10 136 27 19 20 -98 -5 -98 -5 -95 17 2 18 10 24 38 25 93
7 140 15 140 25 0 10 -124 3 -156 -9 -10 -4 -14 3 -14 21 0 32 3 33 103 41 59
5 77 10 73 20 -2 7 4 30 14 49 18 36 18 37 -3 47 -15 9 -38 8 -90 -1 -73 -13
-92 -7 -85 26 2 15 17 21 73 27 101 12 117 16 109 29 -7 10 -84 6 -148 -8 -27
-7 -28 -6 -21 25 6 27 3 32 -20 41 -37 14 -45 13 -45 -9z"/>
<path d="M345 339 c-16 -5 -55 -10 -85 -12 l-55 -4 3 -39 c2 -22 -4 -73 -12
-114 -18 -85 -20 -120 -7 -120 16 0 30 26 37 67 6 42 6 42 59 48 56 7 86 5 86
-7 -1 -5 -1 -24 -1 -43 0 -34 -1 -35 -37 -35 l-38 -1 35 -29 c41 -34 40 -34
65 -16 16 12 20 32 25 147 6 111 4 137 -8 152 -17 19 -23 19 -67 6z m23 -43
c5 -26 -6 -33 -70 -41 -57 -6 -58 -6 -58 19 0 26 9 31 75 39 42 5 50 3 53 -17z
m6 -78 c-3 -13 -7 -24 -8 -24 0 -1 -29 -4 -63 -8 -62 -7 -63 -7 -63 18 0 22 5
25 43 29 100 9 99 9 91 -15z"/>
</g>
</svg>
