<?xml version="1.0" standalone="no"?>
<!DOCTYPE svg PUBLIC "-//W3C//DTD SVG 20010904//EN"
 "http://www.w3.org/TR/2001/REC-SVG-20010904/DTD/svg10.dtd">
<svg version="1.0" xmlns="http://www.w3.org/2000/svg"
 width="96.000000pt" height="68.000000pt" viewBox="0 0 96.000000 68.000000"
 preserveAspectRatio="xMidYMid meet">
<metadata>
Created by potrace 1.16, written by Peter Selinger 2001-2019
</metadata>
<g transform="translate(0.000000,68.000000) scale(0.100000,-0.100000)"
fill="#000000" stroke="none">
<path d="M473 442 c15 -15 27 -31 27 -34 0 -3 -45 -9 -100 -13 -55 -4 -103
-11 -106 -16 -3 -5 2 -9 10 -9 23 0 29 -41 16 -107 -16 -74 -48 -137 -97 -190
-53 -57 -29 -55 35 2 54 49 81 101 108 210 9 39 20 73 23 77 3 4 84 12 178 19
150 11 171 14 161 27 -10 12 -30 13 -105 8 -89 -6 -93 -6 -93 14 0 20 -33 40
-68 40 -12 0 -9 -7 11 -28z"/>
<path d="M206 328 c16 -29 38 -48 56 -48 23 0 24 29 1 46 -23 18 -67 19 -57 2z"/>
<path d="M256 220 c-16 -10 -44 -21 -62 -25 -36 -6 -41 -14 -22 -33 21 -21 43
-13 83 28 43 44 44 59 1 30z"/>
</g>
</svg>
