<?xml version="1.0" standalone="no"?>
<!DOCTYPE svg PUBLIC "-//W3C//DTD SVG 20010904//EN"
 "http://www.w3.org/TR/2001/REC-SVG-20010904/DTD/svg10.dtd">
<svg version="1.0" xmlns="http://www.w3.org/2000/svg"
 width="90.000000pt" height="92.000000pt" viewBox="0 0 90.000000 92.000000"
 preserveAspectRatio="xMidYMid meet">
<metadata>
Created by potrace 1.16, written by Peter Selinger 2001-2019
</metadata>
<g transform="translate(0.000000,92.000000) scale(0.100000,-0.100000)"
fill="#000000" stroke="none">
<path d="M550 833 c0 -27 -4 -53 -8 -60 -4 -6 -28 -14 -54 -18 -68 -10 -58
-35 13 -35 27 0 29 -2 23 -27 -4 -16 -11 -36 -16 -46 -5 -10 -7 -21 -4 -25 8
-7 30 21 56 69 21 41 41 49 117 49 28 0 55 5 59 11 13 21 -17 34 -76 32 -61
-2 -67 6 -36 46 12 16 -25 51 -55 51 -16 0 -19 -8 -19 -47z"/>
<path d="M243 823 c3 -10 11 -32 18 -50 7 -18 10 -35 7 -38 -3 -4 -40 -9 -82
-12 -69 -5 -74 -7 -65 -24 19 -37 46 -42 106 -19 59 22 72 18 73 -21 0 -9 6
-22 14 -28 19 -16 25 2 16 50 -7 36 -6 37 32 48 51 16 51 36 -1 27 -38 -6 -39
-6 -46 32 -8 41 -19 52 -54 52 -18 0 -22 -4 -18 -17z"/>
<path d="M280 594 c0 -9 -10 -34 -22 -55 l-22 -39 -43 24 c-50 29 -57 18 -11
-18 l32 -25 -19 -22 c-11 -12 -42 -39 -68 -60 -27 -22 -44 -39 -37 -39 14 0
87 37 123 62 16 11 30 19 32 17 4 -5 8 -30 6 -51 -2 -27 -116 -143 -184 -188
-69 -45 -64 -50 18 -19 36 13 78 41 117 77 l61 57 -6 -72 c-8 -101 -18 -116
-72 -111 l-43 3 36 -45 c20 -25 37 -47 39 -49 8 -11 57 35 71 67 24 56 23 251
-2 315 l-18 49 43 45 44 44 -28 25 c-33 28 -47 30 -47 8z"/>
<path d="M486 553 c5 -10 9 -72 9 -138 0 -113 -2 -123 -30 -180 -25 -49 -42
-68 -93 -102 -69 -46 -58 -58 20 -24 58 25 104 76 132 145 l23 57 40 -63 c22
-35 62 -87 88 -116 44 -49 50 -52 95 -52 54 0 110 10 110 19 0 3 -40 25 -88
47 -61 29 -105 59 -148 100 -57 56 -101 111 -93 118 19 14 111 65 137 75 36
15 42 40 15 63 -36 31 -42 29 -81 -30 -22 -32 -48 -64 -58 -72 -16 -14 -17
-10 -11 71 8 94 5 99 -50 99 -21 0 -24 -3 -17 -17z"/>
<path d="M350 445 c0 -4 7 -20 16 -38 33 -66 67 -86 79 -47 10 31 -3 59 -35
75 -29 15 -60 20 -60 10z"/>
</g>
</svg>
