<?xml version="1.0" standalone="no"?>
<!DOCTYPE svg PUBLIC "-//W3C//DTD SVG 20010904//EN"
 "http://www.w3.org/TR/2001/REC-SVG-20010904/DTD/svg10.dtd">
<svg version="1.0" xmlns="http://www.w3.org/2000/svg"
 width="96.000000pt" height="68.000000pt" viewBox="0 0 96.000000 68.000000"
 preserveAspectRatio="xMidYMid meet">
<metadata>
Created by potrace 1.16, written by Peter Selinger 2001-2019
</metadata>
<g transform="translate(0.000000,68.000000) scale(0.100000,-0.100000)"
fill="#000000" stroke="none">
<path d="M488 347 c3 -166 5 -195 21 -217 27 -37 83 -52 176 -47 97 5 139 22
130 51 -4 12 -12 41 -19 66 l-13 45 -12 -41 c-6 -22 -19 -48 -29 -57 -37 -34
-163 -34 -197 -1 -19 19 -20 131 -4 271 7 53 8 98 3 103 -5 4 -20 10 -34 13
l-25 6 3 -192z"/>
</g>
</svg>
