<?xml version="1.0" standalone="no"?>
<!DOCTYPE svg PUBLIC "-//W3C//DTD SVG 20010904//EN"
 "http://www.w3.org/TR/2001/REC-SVG-20010904/DTD/svg10.dtd">
<svg version="1.0" xmlns="http://www.w3.org/2000/svg"
 width="96.000000pt" height="68.000000pt" viewBox="0 0 96.000000 68.000000"
 preserveAspectRatio="xMidYMid meet">
<metadata>
Created by potrace 1.16, written by Peter Selinger 2001-2019
</metadata>
<g transform="translate(0.000000,68.000000) scale(0.100000,-0.100000)"
fill="#000000" stroke="none">
<path d="M276 563 c4 -21 8 -58 9 -83 l0 -45 -63 -8 c-77 -11 -72 -27 9 -27
l60 0 -3 -47 -3 -47 -84 -27 c-82 -26 -83 -27 -60 -43 31 -21 38 -21 93 10
l46 26 0 -54 c0 -68 -9 -82 -49 -76 l-32 5 43 -44 c59 -60 71 -47 78 90 l5
102 53 28 c60 32 64 46 7 23 -58 -25 -67 -22 -63 21 3 39 9 43 81 58 46 9 20
28 -30 22 l-45 -5 6 42 c3 22 8 52 11 67 5 20 2 27 -20 37 -48 22 -58 17 -49
-25z"/>
</g>
</svg>
