<?xml version="1.0" standalone="no"?>
<!DOCTYPE svg PUBLIC "-//W3C//DTD SVG 20010904//EN"
 "http://www.w3.org/TR/2001/REC-SVG-20010904/DTD/svg10.dtd">
<svg version="1.0" xmlns="http://www.w3.org/2000/svg"
 width="96.000000pt" height="68.000000pt" viewBox="0 0 96.000000 68.000000"
 preserveAspectRatio="xMidYMid meet">
<metadata>
Created by potrace 1.16, written by Peter Selinger 2001-2019
</metadata>
<g transform="translate(0.000000,68.000000) scale(0.100000,-0.100000)"
fill="#000000" stroke="none">
<path d="M265 583 c4 -10 10 -44 13 -77 5 -66 -2 -76 -58 -76 -19 0 -45 -3
-57 -6 -41 -11 -13 -24 53 -24 l64 0 0 -44 c0 -48 1 -47 -107 -82 -57 -18 -64
-27 -34 -44 30 -15 56 -12 96 11 20 12 39 19 42 15 3 -3 2 -29 -3 -58 l-9 -53
-38 3 c-20 2 -37 0 -37 -3 0 -6 65 -66 84 -77 6 -3 20 0 31 8 17 13 21 30 25
117 l5 102 55 30 c60 32 49 47 -15 21 -21 -9 -39 -16 -42 -16 -2 0 -3 17 -1
37 3 36 5 37 52 48 27 5 51 15 53 21 5 16 -38 25 -76 18 -36 -8 -39 6 -16 71
14 38 14 41 -6 58 -12 9 -35 17 -51 17 -25 0 -29 -3 -23 -17z"/>
<path d="M488 343 c3 -210 8 -227 73 -250 42 -15 152 -16 200 -3 55 15 60 27
39 89 -18 55 -23 56 -34 8 -14 -59 -120 -86 -201 -53 l-35 15 0 86 c0 47 5
129 12 181 12 103 9 113 -37 114 -19 0 -20 -6 -17 -187z"/>
</g>
</svg>
