<?xml version="1.0" standalone="no"?>
<!DOCTYPE svg PUBLIC "-//W3C//DTD SVG 20010904//EN"
 "http://www.w3.org/TR/2001/REC-SVG-20010904/DTD/svg10.dtd">
<svg version="1.0" xmlns="http://www.w3.org/2000/svg"
 width="96.000000pt" height="68.000000pt" viewBox="0 0 96.000000 68.000000"
 preserveAspectRatio="xMidYMid meet">
<metadata>
Created by potrace 1.16, written by Peter Selinger 2001-2019
</metadata>
<g transform="translate(0.000000,68.000000) scale(0.100000,-0.100000)"
fill="#000000" stroke="none">
<path d="M557 560 l6 -50 -34 0 c-54 0 -109 -12 -109 -23 0 -6 25 -7 70 -3
l70 7 0 -29 c0 -32 -14 -42 -61 -42 -16 0 -29 -4 -29 -10 0 -5 13 -10 30 -10
32 0 166 19 190 28 23 8 -30 20 -62 14 -26 -4 -28 -2 -28 27 l0 31 58 1 c31 0
65 2 75 4 60 11 -4 30 -74 22 l-49 -6 0 38 c0 38 -11 51 -45 51 -11 0 -13 -11
-8 -50z"/>
<path d="M197 553 c-3 -5 0 -31 6 -59 15 -74 8 -84 -58 -84 -43 0 -54 -3 -48
-12 4 -7 17 -38 28 -68 20 -53 22 -55 53 -52 31 3 32 2 32 -36 0 -45 -10 -52
-70 -52 -48 0 -57 -13 -25 -34 23 -15 28 -15 68 3 114 52 145 61 157 46 16
-19 29 -19 37 1 3 8 -4 25 -17 40 -26 26 -53 33 -44 10 5 -14 -23 -36 -45 -36
-6 0 -11 15 -11 34 0 38 12 46 66 46 29 0 34 3 30 18 -3 9 3 31 14 47 11 17
20 35 20 42 0 17 -57 33 -92 26 l-31 -6 6 55 c7 56 7 56 -25 67 -37 13 -45 14
-51 4z m113 -172 c0 -33 -11 -51 -31 -51 -15 0 -19 7 -19 35 0 31 3 35 25 35
18 0 25 -5 25 -19z m-105 -32 c0 -23 -5 -34 -14 -34 -19 0 -35 57 -18 67 21
13 32 2 32 -33z"/>
<path d="M527 366 c-51 -7 -75 -14 -69 -21 5 -5 15 -31 22 -58 7 -26 17 -50
21 -53 5 -3 9 -14 9 -25 0 -17 -7 -19 -59 -19 -59 0 -88 -14 -56 -26 9 -4 64
-1 123 5 59 6 158 13 221 16 63 3 117 7 119 10 3 2 -8 9 -24 15 -19 8 -51 8
-96 2 -74 -9 -85 -1 -46 32 l21 19 -24 13 c-13 7 -18 13 -11 14 6 0 12 5 12
12 0 6 9 22 21 34 12 12 18 27 14 33 -8 14 -94 12 -198 -3z m134 -28 c-10 -27
-37 -36 -108 -37 -41 -1 -53 2 -53 14 0 8 0 18 0 23 -1 9 58 19 122 21 45 1
47 0 39 -21z m-13 -106 c-11 -22 -21 -28 -56 -30 -36 -3 -42 0 -42 16 0 11
-11 24 -27 31 -38 18 -18 29 57 33 74 3 88 -7 68 -50z"/>
<path d="M615 145 c-5 -2 -49 -7 -97 -10 -88 -7 -88 -7 -73 -28 9 -12 20 -39
26 -60 10 -37 22 -46 34 -27 3 6 51 10 110 10 95 0 103 1 98 18 -2 11 7 32 22
50 l27 32 -27 10 c-25 9 -98 13 -120 5z m58 -23 c3 -4 3 -19 0 -34 -6 -29 -14
-32 -116 -41 -47 -5 -49 -3 -62 27 -7 17 -12 33 -10 35 13 13 181 25 188 13z"/>
</g>
</svg>
