<?xml version="1.0" standalone="no"?>
<!DOCTYPE svg PUBLIC "-//W3C//DTD SVG 20010904//EN"
 "http://www.w3.org/TR/2001/REC-SVG-20010904/DTD/svg10.dtd">
<svg version="1.0" xmlns="http://www.w3.org/2000/svg"
 width="96.000000pt" height="68.000000pt" viewBox="0 0 96.000000 68.000000"
 preserveAspectRatio="xMidYMid meet">
<metadata>
Created by potrace 1.16, written by Peter Selinger 2001-2019
</metadata>
<g transform="translate(0.000000,68.000000) scale(0.100000,-0.100000)"
fill="#000000" stroke="none">
<path d="M568 548 c2 -35 0 -79 -5 -98 l-9 -35 -96 -10 c-53 -5 -100 -13 -103
-17 -13 -13 62 -19 129 -10 l68 9 -6 -52 c-6 -57 -3 -65 24 -58 12 3 20 18 24
46 10 67 15 70 113 74 48 2 99 6 113 9 25 6 25 6 5 21 -16 11 -37 13 -99 8
-43 -4 -85 -9 -94 -12 -12 -5 -14 1 -7 43 4 27 14 62 22 77 13 26 13 30 -4 43
-10 7 -26 14 -35 14 -9 0 -23 2 -30 5 -11 5 -13 -7 -10 -57z"/>
</g>
</svg>
