<?xml version="1.0" standalone="no"?>
<!DOCTYPE svg PUBLIC "-//W3C//DTD SVG 20010904//EN"
 "http://www.w3.org/TR/2001/REC-SVG-20010904/DTD/svg10.dtd">
<svg version="1.0" xmlns="http://www.w3.org/2000/svg"
 width="96.000000pt" height="68.000000pt" viewBox="0 0 96.000000 68.000000"
 preserveAspectRatio="xMidYMid meet">
<metadata>
Created by potrace 1.16, written by Peter Selinger 2001-2019
</metadata>
<g transform="translate(0.000000,68.000000) scale(0.100000,-0.100000)"
fill="#000000" stroke="none">
<path d="M560 132 c-14 -20 -29 -40 -35 -44 -5 -4 -7 -9 -4 -12 9 -9 69 45 63
56 -4 7 -2 8 4 4 7 -4 21 -1 32 7 18 13 19 15 5 21 -30 11 -40 6 -65 -32z"/>
<path d="M725 126 c11 -8 24 -12 29 -9 5 4 6 1 2 -6 -10 -16 13 -43 31 -37 8
3 11 2 8 -3 -7 -13 15 -25 25 -15 13 13 1 27 -44 58 -41 28 -87 39 -51 12z
m60 -25 c3 -5 2 -12 -3 -15 -5 -3 -9 1 -9 9 0 17 3 19 12 6z"/>
</g>
</svg>
