<?xml version="1.0" standalone="no"?>
<!DOCTYPE svg PUBLIC "-//W3C//DTD SVG 20010904//EN"
 "http://www.w3.org/TR/2001/REC-SVG-20010904/DTD/svg10.dtd">
<svg version="1.0" xmlns="http://www.w3.org/2000/svg"
 width="96.000000pt" height="68.000000pt" viewBox="0 0 96.000000 68.000000"
 preserveAspectRatio="xMidYMid meet">
<metadata>
Created by potrace 1.16, written by Peter Selinger 2001-2019
</metadata>
<g transform="translate(0.000000,68.000000) scale(0.100000,-0.100000)"
fill="#000000" stroke="none">
<path d="M360 585 c-14 -17 -133 -75 -154 -75 -8 0 -18 -5 -22 -11 -5 -8 5 -9
34 -4 37 6 41 4 58 -24 21 -35 44 -41 44 -11 0 11 -11 25 -26 33 -26 13 -25
14 50 41 80 30 97 43 75 57 -21 13 -45 11 -59 -6z"/>
<path d="M373 475 c-18 -18 -74 -54 -125 -80 -68 -34 -84 -45 -58 -41 53 9
282 124 278 139 -9 26 -62 16 -95 -18z"/>
<path d="M160 451 c0 -5 12 -19 28 -31 l27 -22 3 22 c2 13 -2 27 -10 31 -18
12 -48 11 -48 0z"/>
</g>
</svg>
