<?xml version="1.0" standalone="no"?>
<!DOCTYPE svg PUBLIC "-//W3C//DTD SVG 20010904//EN"
 "http://www.w3.org/TR/2001/REC-SVG-20010904/DTD/svg10.dtd">
<svg version="1.0" xmlns="http://www.w3.org/2000/svg"
 width="90.000000pt" height="92.000000pt" viewBox="0 0 90.000000 92.000000"
 preserveAspectRatio="xMidYMid meet">
<metadata>
Created by potrace 1.16, written by Peter Selinger 2001-2019
</metadata>
<g transform="translate(0.000000,92.000000) scale(0.100000,-0.100000)"
fill="#000000" stroke="none">
<path d="M276 893 c5 -10 9 -52 9 -93 l0 -75 -32 -3 -33 -3 0 51 c0 43 -3 52
-22 59 -33 12 -36 7 -25 -47 15 -70 9 -78 -62 -86 -65 -7 -76 -19 -37 -37 18
-9 44 -7 112 9 49 11 93 18 98 15 4 -3 6 -29 3 -58 -6 -57 6 -91 23 -65 8 12
14 74 13 127 0 7 24 14 58 18 33 4 59 11 59 15 0 17 -34 28 -72 23 -37 -6 -38
-5 -38 26 0 28 3 31 39 37 52 8 69 20 54 35 -9 9 -21 10 -47 2 l-35 -11 -3 37
c-3 33 -6 36 -37 39 -30 3 -33 1 -25 -15z"/>
<path d="M570 877 c-63 -11 -117 -21 -120 -24 -10 -9 27 -23 63 -23 29 0 37
-4 37 -19 0 -25 -25 -44 -47 -37 -17 5 -18 -2 -17 -97 1 -109 6 -130 29 -120
24 9 17 -14 -16 -52 -33 -38 -29 -45 11 -18 53 35 70 56 59 70 -9 10 -5 13 19
13 16 0 44 3 61 6 24 5 31 3 31 -10 0 -24 29 -19 34 7 3 12 7 66 9 119 4 97 4
97 -22 107 -19 8 -40 7 -78 -3 l-52 -14 16 24 c8 13 11 24 7 24 -5 0 -2 5 6
10 8 5 44 10 80 10 79 0 105 12 75 34 -25 19 -40 18 -185 -7z m98 -126 c3 -19
0 -23 -14 -17 -9 4 -31 2 -48 -3 -69 -21 -86 -22 -86 -7 0 18 25 33 77 45 53
13 68 9 71 -18z m12 -60 c0 -15 -10 -19 -63 -24 -34 -3 -70 -9 -80 -12 -12 -5
-17 -2 -17 12 0 16 11 21 63 30 94 15 97 15 97 -6z m-2 -58 c-2 -12 -20 -22
-53 -29 -77 -18 -105 -17 -105 4 0 15 13 20 73 29 39 5 76 10 80 11 5 1 7 -6
5 -15z"/>
<path d="M390 630 c0 -43 -103 -132 -219 -191 -43 -22 -50 -29 -31 -29 33 1
132 42 181 76 22 15 58 49 80 75 34 41 39 51 29 69 -14 26 -40 26 -40 0z"/>
<path d="M190 623 c0 -10 -9 -33 -21 -52 -30 -50 -16 -49 38 3 40 38 45 48 33
56 -24 16 -50 12 -50 -7z"/>
<path d="M661 511 c43 -50 62 -61 74 -41 18 29 -20 63 -94 85 -21 6 -18 0 20
-44z"/>
<path d="M390 527 c0 -7 -11 -29 -25 -50 -23 -32 -31 -37 -66 -37 -39 0 -39 0
-25 -22 8 -13 18 -43 22 -68 8 -56 20 -80 39 -80 20 0 19 -10 -4 -39 -16 -21
-28 -24 -110 -29 -50 -2 -94 -9 -97 -13 -3 -5 11 -16 30 -25 32 -16 40 -16
113 -1 43 9 102 20 130 23 l53 7 -2 -77 c0 -42 4 -82 9 -87 17 -17 24 4 30 85
6 73 6 74 36 80 16 3 81 6 143 6 96 0 114 2 114 16 0 8 -16 22 -37 30 -30 13
-48 14 -97 5 -149 -26 -143 -26 -148 8 -4 29 -3 31 28 31 18 0 36 -5 39 -10
12 -19 33 8 50 63 9 29 22 63 28 76 10 20 8 26 -13 43 -28 22 -59 21 -195 -6
-69 -14 -70 -14 -45 4 69 51 67 48 46 65 -24 18 -46 19 -46 2z m190 -110 c0
-21 -4 -23 -57 -23 -53 1 -72 8 -73 28 0 10 28 16 83 17 43 1 47 -1 47 -22z
m-170 -16 c0 -23 -69 -38 -82 -18 -17 27 -8 37 37 37 37 0 45 -3 45 -19z m158
-57 c-2 -11 -17 -17 -56 -19 -29 -2 -62 -7 -73 -10 -17 -6 -18 -4 -8 18 9 20
21 26 73 33 62 9 70 7 64 -22z m-178 -7 c0 -39 -55 -50 -58 -12 -1 22 2 25 28
25 18 0 30 -5 30 -13z m53 -79 c7 -27 -7 -38 -51 -38 l-33 0 21 30 c25 35 55
39 63 8z"/>
</g>
</svg>
