<?xml version="1.0" standalone="no"?>
<!DOCTYPE svg PUBLIC "-//W3C//DTD SVG 20010904//EN"
 "http://www.w3.org/TR/2001/REC-SVG-20010904/DTD/svg10.dtd">
<svg version="1.0" xmlns="http://www.w3.org/2000/svg"
 width="90.000000pt" height="92.000000pt" viewBox="0 0 90.000000 92.000000"
 preserveAspectRatio="xMidYMid meet">
<metadata>
Created by potrace 1.16, written by Peter Selinger 2001-2019
</metadata>
<g transform="translate(0.000000,92.000000) scale(0.100000,-0.100000)"
fill="#000000" stroke="none">
<path d="M628 885 c-9 -9 -217 -45 -259 -45 -55 0 -57 -18 -4 -32 34 -9 47
-18 52 -36 8 -33 -1 -37 -73 -37 -35 0 -64 -1 -64 -3 0 -1 6 -13 14 -25 8 -12
19 -46 26 -75 12 -52 27 -73 39 -55 8 13 261 37 299 28 27 -5 31 -1 70 64 23
39 42 73 42 75 0 3 -14 13 -31 21 -29 16 -74 15 -132 -2 -16 -4 -17 -2 -7 17
8 16 8 25 0 35 -9 10 -3 14 27 20 49 8 71 21 58 33 -14 13 -50 23 -57 17z
m-90 -101 c3 -30 1 -32 -38 -36 -40 -4 -41 -3 -38 27 2 19 10 32 23 37 36 11
50 4 53 -28z m141 -71 c-1 -56 -12 -67 -62 -68 l-47 0 6 35 c8 43 28 60 71 60
30 0 33 -3 32 -27z m-146 -25 c-6 -47 -16 -58 -50 -58 -20 0 -23 5 -23 44 0
47 -2 46 67 55 7 1 9 -12 6 -41z m-109 0 c14 -54 8 -68 -28 -68 -36 0 -46 12
-46 55 0 39 64 50 74 13z"/>
<path d="M130 795 c0 -20 79 -87 98 -83 10 2 18 14 20 30 4 30 -12 42 -77 57
-31 7 -41 6 -41 -4z"/>
<path d="M50 623 c0 -19 72 -93 90 -93 43 0 37 61 -7 78 -46 18 -83 25 -83 15z"/>
<path d="M520 550 c-58 -10 -124 -19 -148 -19 l-43 -1 14 -27 c8 -16 19 -57
25 -92 7 -35 13 -65 15 -67 1 -2 20 1 42 6 22 5 40 8 41 7 1 -1 5 -16 8 -33
l7 -31 -68 -6 c-37 -4 -91 -7 -120 -7 -85 0 -107 -17 -53 -40 24 -10 46 -10
100 -1 38 6 85 11 104 11 l36 0 0 -102 c0 -177 38 -161 48 20 l4 92 147 0
c161 0 183 6 150 36 -24 21 -63 23 -203 10 -83 -8 -89 -8 -82 9 3 10 2 23 -4
30 -8 10 -4 14 16 19 17 5 30 3 35 -5 9 -16 38 -4 45 18 4 10 19 47 35 82 16
35 29 65 29 67 0 6 -64 44 -70 43 -3 -1 -52 -10 -110 -19z m88 -53 c3 -24 0
-28 -15 -23 -10 3 -57 -1 -103 -9 -47 -8 -86 -15 -87 -15 -2 0 -3 11 -3 24 0
22 6 26 53 35 136 27 151 25 155 -12z m-2 -63 c-3 -9 -6 -21 -6 -27 0 -8 -25
-13 -73 -14 -39 -1 -82 -5 -94 -8 -19 -4 -23 -1 -23 18 0 22 6 25 78 34 119
15 125 15 118 -3z"/>
<path d="M171 424 c-25 -47 -60 -103 -79 -125 l-34 -40 18 -51 c19 -51 40 -72
48 -46 2 7 25 82 51 165 26 84 45 159 43 167 -2 9 -23 -23 -47 -70z"/>
</g>
</svg>
