<?xml version="1.0" standalone="no"?>
<!DOCTYPE svg PUBLIC "-//W3C//DTD SVG 20010904//EN"
 "http://www.w3.org/TR/2001/REC-SVG-20010904/DTD/svg10.dtd">
<svg version="1.0" xmlns="http://www.w3.org/2000/svg"
 width="96.000000pt" height="68.000000pt" viewBox="0 0 96.000000 68.000000"
 preserveAspectRatio="xMidYMid meet">
<metadata>
Created by potrace 1.16, written by Peter Selinger 2001-2019
</metadata>
<g transform="translate(0.000000,68.000000) scale(0.100000,-0.100000)"
fill="#000000" stroke="none">
<path d="M275 603 c4 -10 9 -34 12 -54 l5 -37 -51 -7 c-28 -4 -51 -11 -51 -16
0 -13 46 -22 75 -15 22 6 25 3 25 -19 0 -28 -4 -29 -118 -44 -41 -5 -77 -12
-80 -16 -14 -14 26 -26 74 -21 50 4 51 4 68 -30 22 -47 21 -51 -19 -58 -57
-11 -41 -28 23 -24 55 3 57 2 57 -22 0 -24 -4 -26 -95 -38 -98 -14 -108 -17
-96 -29 9 -10 70 -9 133 1 l52 8 3 -69 c2 -52 6 -68 18 -68 12 0 16 17 20 75
l5 75 50 5 c57 6 47 22 -14 24 -32 1 -36 4 -39 29 -3 21 1 27 17 27 26 0 51
10 51 21 0 5 -9 9 -20 9 -26 0 -25 6 6 48 22 28 24 36 13 43 -10 6 -4 9 18 9
17 0 33 -5 35 -11 2 -7 20 -12 38 -13 39 -1 40 -2 40 -52 0 -34 -2 -36 -25
-30 -30 8 -34 -10 -5 -19 26 -8 25 -16 -4 -73 -26 -49 -66 -97 -88 -105 -7 -2
-10 -7 -6 -11 8 -10 67 21 90 48 10 11 27 38 38 59 23 42 20 40 54 27 22 -8
26 -7 26 10 0 11 -9 25 -20 32 -21 13 -25 57 -11 107 7 26 60 49 71 31 3 -5 2
-45 -2 -87 -14 -140 10 -226 72 -258 36 -18 90 -19 114 -2 16 12 16 14 -3 38
-10 14 -24 41 -29 60 l-9 34 -7 -48 c-7 -44 -9 -48 -33 -45 -14 2 -35 16 -47
31 -26 36 -26 147 0 231 18 57 18 58 -1 73 -19 14 -48 13 -103 -3 l-24 -7 8
83 c7 88 2 100 -43 100 -20 0 -21 -3 -12 -32 13 -46 11 -142 -3 -156 -14 -14
-72 -16 -63 -3 10 18 -29 29 -78 24 -46 -6 -49 -5 -45 17 2 18 13 26 48 34 57
14 58 30 3 34 -42 3 -42 3 -45 45 -3 41 -4 42 -42 45 -34 3 -38 1 -31 -15z
m82 -225 c-11 -69 -60 -108 -77 -63 -5 13 -18 33 -30 45 -22 22 -19 25 30 33
66 11 81 8 77 -15z"/>
</g>
</svg>
