<?xml version="1.0" standalone="no"?>
<!DOCTYPE svg PUBLIC "-//W3C//DTD SVG 20010904//EN"
 "http://www.w3.org/TR/2001/REC-SVG-20010904/DTD/svg10.dtd">
<svg version="1.0" xmlns="http://www.w3.org/2000/svg"
 width="96.000000pt" height="68.000000pt" viewBox="0 0 96.000000 68.000000"
 preserveAspectRatio="xMidYMid meet">
<metadata>
Created by potrace 1.16, written by Peter Selinger 2001-2019
</metadata>
<g transform="translate(0.000000,68.000000) scale(0.100000,-0.100000)"
fill="#000000" stroke="none">
<path d="M287 569 c7 -58 -2 -69 -54 -69 -18 0 -33 -4 -33 -10 0 -5 20 -10 45
-10 43 0 45 -1 45 -29 0 -28 0 -28 -92 -40 -51 -7 -95 -14 -97 -17 -10 -10 25
-24 49 -21 198 32 310 53 310 61 0 5 -27 6 -60 3 l-60 -5 0 28 c0 26 5 30 41
37 50 10 47 29 -5 26 l-39 -2 6 44 c7 45 -1 55 -43 55 -17 0 -18 -6 -13 -51z"/>
</g>
</svg>
