<?xml version="1.0" standalone="no"?>
<!DOCTYPE svg PUBLIC "-//W3C//DTD SVG 20010904//EN"
 "http://www.w3.org/TR/2001/REC-SVG-20010904/DTD/svg10.dtd">
<svg version="1.0" xmlns="http://www.w3.org/2000/svg"
 width="96.000000pt" height="68.000000pt" viewBox="0 0 96.000000 68.000000"
 preserveAspectRatio="xMidYMid meet">
<metadata>
Created by potrace 1.16, written by Peter Selinger 2001-2019
</metadata>
<g transform="translate(0.000000,68.000000) scale(0.100000,-0.100000)"
fill="#000000" stroke="none">
<path d="M235 563 c3 -10 9 -48 12 -85 l6 -67 -62 -7 c-83 -9 -87 -24 -7 -24
l66 0 0 -47 0 -48 -85 -40 c-84 -39 -85 -40 -64 -58 28 -23 29 -22 82 18 25
19 48 35 51 35 10 0 6 -149 -4 -155 -5 -3 -19 -1 -31 5 -18 10 -19 9 -11 -7 6
-10 22 -29 36 -42 26 -24 26 -24 41 -5 10 14 14 48 15 126 l0 107 43 41 42 41
-42 -21 -43 -20 0 38 c0 38 1 39 42 48 49 10 49 30 1 28 -32 -1 -33 0 -33 42
0 23 4 54 10 68 8 21 6 27 -10 36 -10 5 -28 10 -40 10 -17 0 -21 -4 -15 -17z"/>
</g>
</svg>
