<?xml version="1.0" standalone="no"?>
<!DOCTYPE svg PUBLIC "-//W3C//DTD SVG 20010904//EN"
 "http://www.w3.org/TR/2001/REC-SVG-20010904/DTD/svg10.dtd">
<svg version="1.0" xmlns="http://www.w3.org/2000/svg"
 width="96.000000pt" height="68.000000pt" viewBox="0 0 96.000000 68.000000"
 preserveAspectRatio="xMidYMid meet">
<metadata>
Created by potrace 1.16, written by Peter Selinger 2001-2019
</metadata>
<g transform="translate(0.000000,68.000000) scale(0.100000,-0.100000)"
fill="#000000" stroke="none">
<path d="M587 553 l5 -49 -48 -11 -49 -10 48 -2 c46 -1 47 -1 47 -35 0 -32 -2
-34 -46 -40 -26 -3 -60 -6 -75 -6 -16 0 -29 -4 -29 -10 0 -10 18 -14 58 -10
23 2 61 -34 62 -57 0 -8 -12 -13 -30 -13 -16 0 -30 -5 -30 -11 0 -6 16 -9 42
-7 34 2 43 0 46 -14 3 -14 -3 -18 -25 -19 -15 0 -37 -4 -48 -9 -16 -7 -11 -9
21 -9 45 -1 55 -7 47 -27 -3 -8 -29 -16 -65 -20 -45 -5 -56 -9 -44 -16 9 -5
38 -8 64 -6 l47 3 3 -37 c4 -43 5 -43 -84 -27 l-62 11 0 35 c0 23 -6 39 -16
45 -23 13 -20 28 15 64 34 35 32 54 -5 54 -26 0 -96 -27 -96 -36 0 -4 14 -4
30 -2 l31 5 -7 -43 c-5 -33 -3 -44 11 -51 11 -7 16 -19 13 -39 -3 -26 -7 -29
-40 -32 -21 -2 -38 -7 -38 -13 0 -5 3 -9 8 -10 4 0 36 -2 72 -3 36 -2 115 -17
175 -34 119 -34 143 -33 225 6 l35 17 -117 5 c-64 3 -118 7 -121 10 -3 3 -2
20 0 38 7 41 31 52 119 52 35 0 64 4 64 9 0 15 -49 22 -112 15 -55 -6 -60 -5
-56 12 2 13 16 21 47 26 62 11 63 18 3 18 -39 0 -52 4 -52 14 0 15 12 20 73
31 22 3 35 10 31 17 -4 5 -20 7 -36 4 -32 -6 -32 -7 -6 46 12 26 18 28 71 28
57 0 75 13 36 25 -20 7 -115 -1 -152 -11 -16 -5 -18 -1 -15 28 2 24 8 34 23
36 48 7 65 13 65 23 0 6 -17 9 -42 7 l-42 -3 0 40 c-1 36 -4 40 -28 43 -27 3
-27 3 -21 -45z m59 -185 c-10 -52 -50 -66 -66 -23 -5 14 -14 25 -20 25 -22 0
-8 19 18 23 72 11 75 10 68 -25z"/>
<path d="M238 501 l5 -89 -62 -7 c-33 -4 -61 -11 -61 -16 0 -13 45 -22 85 -17
l35 4 0 -46 0 -47 -80 -38 c-83 -38 -93 -53 -48 -69 22 -8 34 -3 77 28 l51 38
0 -39 c0 -21 -3 -55 -7 -76 -6 -37 -8 -39 -35 -33 l-29 6 33 -40 c63 -75 88
-40 88 121 l0 97 38 30 c42 34 39 51 -6 28 -35 -18 -42 -14 -33 22 5 19 16 28
42 35 19 5 38 13 43 17 13 12 -36 30 -63 23 -17 -4 -21 -1 -21 18 0 13 5 42
11 64 10 35 9 41 -11 57 -12 10 -30 18 -40 18 -16 0 -17 -9 -12 -89z"/>
<path d="M396 468 c8 -25 34 -49 46 -42 22 14 -8 64 -38 64 -11 0 -13 -6 -8
-22z"/>
</g>
</svg>
