<?xml version="1.0" standalone="no"?>
<!DOCTYPE svg PUBLIC "-//W3C//DTD SVG 20010904//EN"
 "http://www.w3.org/TR/2001/REC-SVG-20010904/DTD/svg10.dtd">
<svg version="1.0" xmlns="http://www.w3.org/2000/svg"
 width="96.000000pt" height="68.000000pt" viewBox="0 0 96.000000 68.000000"
 preserveAspectRatio="xMidYMid meet">
<metadata>
Created by potrace 1.16, written by Peter Selinger 2001-2019
</metadata>
<g transform="translate(0.000000,68.000000) scale(0.100000,-0.100000)"
fill="#000000" stroke="none">
<path d="M535 514 c-27 -7 -88 -16 -135 -20 -137 -11 -148 -24 -15 -19 66 3
141 8 168 11 l47 6 0 -31 c0 -40 -15 -46 -145 -60 -55 -6 -126 -13 -157 -16
l-57 -6 6 -35 c4 -24 1 -40 -11 -53 -21 -23 -11 -51 19 -51 12 0 42 7 65 15
23 8 66 17 94 20 28 3 95 10 149 15 122 14 141 9 133 -33 -4 -17 -13 -42 -22
-55 -16 -24 -27 -25 -81 -5 -10 3 -1 -11 22 -35 22 -23 45 -42 52 -42 21 0 60
50 73 94 6 22 19 49 28 59 14 16 14 19 -5 39 l-21 21 -189 -19 c-103 -10 -204
-18 -223 -18 -33 -1 -35 1 -32 29 2 17 6 32 8 34 4 4 110 15 256 27 83 7 87 8
82 28 -3 14 3 32 15 48 27 34 26 46 -5 58 -32 13 -57 12 -119 -6z"/>
</g>
</svg>
