<?xml version="1.0" standalone="no"?>
<!DOCTYPE svg PUBLIC "-//W3C//DTD SVG 20010904//EN"
 "http://www.w3.org/TR/2001/REC-SVG-20010904/DTD/svg10.dtd">
<svg version="1.0" xmlns="http://www.w3.org/2000/svg"
 width="90.000000pt" height="92.000000pt" viewBox="0 0 90.000000 92.000000"
 preserveAspectRatio="xMidYMid meet">
<metadata>
Created by potrace 1.16, written by Peter Selinger 2001-2019
</metadata>
<g transform="translate(0.000000,92.000000) scale(0.100000,-0.100000)"
fill="#000000" stroke="none">
<path d="M625 789 c-10 -22 -28 -47 -38 -54 -19 -13 -19 -15 10 -39 17 -14 57
-64 89 -112 32 -48 68 -91 80 -96 21 -10 104 6 104 20 0 4 -25 20 -56 36 -31
16 -77 48 -102 71 l-46 42 42 27 c23 14 46 26 51 26 5 0 15 7 22 16 11 14 10
19 -10 35 -32 26 -38 24 -60 -19 -31 -61 -45 -68 -80 -40 l-28 25 43 27 c49
31 52 36 26 59 -25 23 -26 22 -47 -24z"/>
<path d="M197 770 c-8 -65 -72 -201 -143 -302 -30 -44 -53 -83 -49 -86 4 -4
35 22 68 58 51 53 67 64 89 62 21 -2 28 -10 33 -34 8 -36 0 -44 -62 -53 -23
-3 -43 -10 -43 -15 0 -12 45 -21 79 -14 l31 7 0 -80 0 -79 -45 -12 c-25 -7
-65 -12 -90 -12 -25 0 -45 -4 -45 -9 0 -10 57 -61 69 -61 4 0 12 5 17 10 6 6
62 32 124 59 63 26 116 53 118 59 5 16 -17 15 -67 -3 l-41 -14 0 74 c0 82 -8
73 75 90 14 3 25 10 25 15 0 13 -45 24 -70 17 -16 -4 -20 0 -20 18 0 13 -2 30
-6 38 -4 10 6 16 35 21 23 3 41 10 41 15 0 18 -52 21 -102 6 -28 -8 -55 -15
-60 -15 -7 0 64 154 78 169 2 2 15 -11 30 -29 58 -68 68 -73 77 -38 9 31 -16
64 -58 78 -34 11 -35 14 -29 46 5 28 2 38 -12 49 -32 24 -41 17 -47 -35z"/>
<path d="M448 761 c-67 -23 -72 -35 -10 -28 28 3 52 4 52 2 0 -10 -32 -85 -36
-85 -3 0 -18 10 -34 22 -40 29 -45 20 -14 -26 l26 -37 -26 -39 c-14 -21 -40
-52 -58 -69 -24 -22 -28 -31 -16 -31 27 0 120 93 157 156 19 33 43 72 54 88
l20 29 -23 19 c-26 21 -29 21 -92 -1z"/>
<path d="M565 560 c-16 -4 -47 -11 -67 -14 -21 -4 -38 -11 -38 -16 0 -17 49
-22 112 -11 68 12 92 26 68 41 -18 11 -34 11 -75 0z"/>
<path d="M547 460 c-54 -9 -110 -15 -123 -12 -27 5 -31 -3 -10 -24 8 -7 17
-33 21 -56 4 -23 11 -49 16 -58 5 -8 18 -40 29 -70 23 -63 18 -70 -46 -70 -52
0 -104 -10 -104 -20 0 -4 16 -14 36 -22 32 -13 46 -13 103 -1 36 8 138 17 226
21 97 4 160 11 159 17 -1 6 -16 18 -33 29 -29 17 -39 18 -103 7 -39 -6 -72
-10 -74 -8 -3 2 8 26 23 52 l26 48 -22 19 c-19 14 -20 18 -7 18 10 0 14 5 11
11 -4 5 5 29 20 51 l28 42 -27 23 c-15 13 -32 22 -39 22 -7 -1 -56 -9 -110
-19z m88 -30 c4 -6 4 -23 0 -39 -5 -25 -12 -29 -69 -39 -91 -17 -92 -17 -94
23 -3 39 1 42 74 55 70 11 82 11 89 0z m-5 -139 c0 -21 -15 -84 -24 -98 -1 0
-18 -4 -38 -8 l-38 -7 0 37 c0 28 -7 44 -30 65 l-31 29 43 4 c115 10 118 10
118 -22z"/>
<path d="M290 333 c-11 -25 -19 -47 -17 -49 1 -2 20 12 42 30 34 29 38 36 26
50 -21 25 -28 20 -51 -31z"/>
<path d="M90 332 c0 -17 52 -83 63 -79 7 2 13 16 15 30 3 23 -2 30 -32 42 -40
17 -46 18 -46 7z"/>
</g>
</svg>
