<?xml version="1.0" standalone="no"?>
<!DOCTYPE svg PUBLIC "-//W3C//DTD SVG 20010904//EN"
 "http://www.w3.org/TR/2001/REC-SVG-20010904/DTD/svg10.dtd">
<svg version="1.0" xmlns="http://www.w3.org/2000/svg"
 width="96.000000pt" height="68.000000pt" viewBox="0 0 96.000000 68.000000"
 preserveAspectRatio="xMidYMid meet">
<metadata>
Created by potrace 1.16, written by Peter Selinger 2001-2019
</metadata>
<g transform="translate(0.000000,68.000000) scale(0.100000,-0.100000)"
fill="#000000" stroke="none">
<path d="M486 583 c4 -10 10 -43 12 -74 l4 -56 -32 -7 c-18 -3 -45 -6 -61 -6
-54 0 -29 -19 29 -22 l57 -3 0 -55 c0 -30 -3 -84 -8 -120 -5 -51 -4 -70 7 -85
12 -17 17 -18 28 -7 9 9 13 49 13 145 l0 132 59 10 c34 6 61 16 64 24 4 11 -7
13 -58 8 l-62 -5 4 59 c3 63 -6 79 -46 79 -14 0 -16 -4 -10 -17z"/>
<path d="M640 544 c36 -46 80 -60 80 -25 0 24 -5 27 -55 37 -38 7 -39 6 -25
-12z"/>
<path d="M197 500 c51 -48 93 -55 93 -14 0 19 -8 28 -35 40 -19 7 -49 14 -67
14 l-33 -1 42 -39z"/>
<path d="M178 376 c-32 -11 -58 -25 -58 -30 0 -5 24 -6 54 -3 l55 5 -16 -33
c-16 -33 -15 -34 10 -65 15 -17 27 -42 27 -56 0 -23 -2 -24 -75 -24 -57 0 -75
-3 -75 -14 0 -29 26 -36 111 -30 79 5 93 3 244 -40 88 -25 172 -46 187 -46 49
0 198 45 198 60 0 4 -57 11 -127 14 -71 3 -184 15 -253 27 -183 30 -170 25
-170 69 0 32 -5 41 -31 57 l-30 20 43 42 c41 40 42 43 24 56 -25 19 -48 17
-118 -9z"/>
<path d="M600 312 c0 -66 3 -82 20 -97 23 -21 116 -32 139 -17 25 18 0 32 -54
32 -67 0 -75 11 -63 86 9 62 6 74 -23 74 -17 0 -19 -7 -19 -78z"/>
<path d="M393 322 c1 -34 -6 -60 -22 -85 -27 -45 -13 -49 23 -7 23 27 46 86
46 116 0 11 -22 24 -40 24 -4 0 -7 -22 -7 -48z"/>
</g>
</svg>
