<?xml version="1.0" standalone="no"?>
<!DOCTYPE svg PUBLIC "-//W3C//DTD SVG 20010904//EN"
 "http://www.w3.org/TR/2001/REC-SVG-20010904/DTD/svg10.dtd">
<svg version="1.0" xmlns="http://www.w3.org/2000/svg"
 width="96.000000pt" height="68.000000pt" viewBox="0 0 96.000000 68.000000"
 preserveAspectRatio="xMidYMid meet">
<metadata>
Created by potrace 1.16, written by Peter Selinger 2001-2019
</metadata>
<g transform="translate(0.000000,68.000000) scale(0.100000,-0.100000)"
fill="#000000" stroke="none">
<path d="M536 562 l6 -49 -32 -7 c-18 -3 -43 -6 -57 -6 -14 0 -21 -4 -18 -10
3 -5 28 -10 56 -10 l49 0 -1 -92 c0 -51 -3 -101 -7 -110 -12 -29 -104 -119
-155 -151 -26 -16 -46 -31 -44 -34 9 -9 95 32 146 70 l54 40 -6 -80 c-5 -62
-3 -85 8 -99 15 -19 15 -19 31 1 13 17 15 37 10 123 l-7 104 28 -20 c15 -12
52 -46 82 -76 49 -51 58 -56 95 -55 23 0 50 4 61 8 18 7 16 10 -16 23 -20 9
-47 19 -60 23 -13 4 -59 32 -101 62 -82 59 -88 70 -84 148 1 22 3 59 4 82 2
40 4 42 40 48 20 4 48 10 62 14 l25 8 -22 11 c-15 9 -30 9 -48 2 -45 -17 -52
-13 -51 33 1 39 -1 42 -27 45 l-28 3 7 -49z"/>
</g>
</svg>
