<?xml version="1.0" standalone="no"?>
<!DOCTYPE svg PUBLIC "-//W3C//DTD SVG 20010904//EN"
 "http://www.w3.org/TR/2001/REC-SVG-20010904/DTD/svg10.dtd">
<svg version="1.0" xmlns="http://www.w3.org/2000/svg"
 width="96.000000pt" height="68.000000pt" viewBox="0 0 96.000000 68.000000"
 preserveAspectRatio="xMidYMid meet">
<metadata>
Created by potrace 1.16, written by Peter Selinger 2001-2019
</metadata>
<g transform="translate(0.000000,68.000000) scale(0.100000,-0.100000)"
fill="#000000" stroke="none">
<path d="M555 518 l0 -93 -55 -5 c-68 -6 -64 -25 5 -25 l50 0 3 -51 3 -52 -78
-6 c-43 -4 -91 -9 -107 -13 -26 -5 -27 -7 -11 -15 11 -6 52 -8 106 -3 l89 7 0
-109 c0 -182 33 -176 45 8 l8 106 66 7 c36 3 88 6 116 6 43 0 48 2 35 15 -18
18 -54 20 -147 11 l-73 -8 0 50 c0 56 -1 55 83 67 26 3 47 10 47 15 0 16 -39
21 -76 11 -21 -6 -41 -8 -47 -4 -6 3 -7 37 -3 83 8 82 4 90 -42 90 -15 0 -17
-13 -17 -92z"/>
</g>
</svg>
