<?xml version="1.0" standalone="no"?>
<!DOCTYPE svg PUBLIC "-//W3C//DTD SVG 20010904//EN"
 "http://www.w3.org/TR/2001/REC-SVG-20010904/DTD/svg10.dtd">
<svg version="1.0" xmlns="http://www.w3.org/2000/svg"
 width="96.000000pt" height="68.000000pt" viewBox="0 0 96.000000 68.000000"
 preserveAspectRatio="xMidYMid meet">
<metadata>
Created by potrace 1.16, written by Peter Selinger 2001-2019
</metadata>
<g transform="translate(0.000000,68.000000) scale(0.100000,-0.100000)"
fill="#000000" stroke="none">
<path d="M416 503 c4 -10 9 -35 12 -55 l4 -38 -48 -1 c-27 0 -58 -4 -69 -8
-17 -7 -16 -9 13 -15 17 -4 45 -5 61 -1 17 3 32 2 36 -4 12 -20 -32 -96 -73
-126 -49 -36 -53 -47 -12 -35 43 12 88 47 105 81 9 16 17 29 18 29 1 0 29 -25
60 -56 58 -55 79 -63 85 -30 5 25 -42 71 -94 91 -55 21 -61 51 -11 59 17 3 49
8 70 11 54 9 48 28 -8 28 -5 0 -27 -2 -47 -6 l-38 -6 0 44 c0 44 -10 55 -52
55 -15 0 -18 -4 -12 -17z"/>
</g>
</svg>
