<?xml version="1.0" standalone="no"?>
<!DOCTYPE svg PUBLIC "-//W3C//DTD SVG 20010904//EN"
 "http://www.w3.org/TR/2001/REC-SVG-20010904/DTD/svg10.dtd">
<svg version="1.0" xmlns="http://www.w3.org/2000/svg"
 width="96.000000pt" height="68.000000pt" viewBox="0 0 96.000000 68.000000"
 preserveAspectRatio="xMidYMid meet">
<metadata>
Created by potrace 1.16, written by Peter Selinger 2001-2019
</metadata>
<g transform="translate(0.000000,68.000000) scale(0.100000,-0.100000)"
fill="#000000" stroke="none">
<path d="M400 461 c0 -5 7 -14 15 -21 24 -20 4 -27 -101 -35 -52 -4 -94 -11
-94 -17 0 -10 21 -9 288 12 155 13 187 21 141 35 -20 7 -125 -1 -161 -11 -13
-4 -18 0 -18 14 0 11 -7 23 -16 26 -23 9 -54 7 -54 -3z"/>
</g>
</svg>
