<?xml version="1.0" standalone="no"?>
<!DOCTYPE svg PUBLIC "-//W3C//DTD SVG 20010904//EN"
 "http://www.w3.org/TR/2001/REC-SVG-20010904/DTD/svg10.dtd">
<svg version="1.0" xmlns="http://www.w3.org/2000/svg"
 width="96.000000pt" height="68.000000pt" viewBox="0 0 96.000000 68.000000"
 preserveAspectRatio="xMidYMid meet">
<metadata>
Created by potrace 1.16, written by Peter Selinger 2001-2019
</metadata>
<g transform="translate(0.000000,68.000000) scale(0.100000,-0.100000)"
fill="#000000" stroke="none">
<path d="M455 239 c-93 -11 -194 -17 -224 -14 l-53 5 7 -27 c5 -16 11 -62 14
-103 5 -57 10 -75 21 -75 12 0 16 17 18 86 l3 85 112 12 c62 7 158 15 215 19
l102 6 0 -82 c0 -90 -6 -99 -55 -81 -15 6 -29 9 -31 7 -9 -8 60 -77 77 -77 27
0 57 46 64 98 3 26 9 65 15 87 8 35 6 42 -13 57 -27 21 -53 21 -272 -3z"/>
</g>
</svg>
