<?xml version="1.0" standalone="no"?>
<!DOCTYPE svg PUBLIC "-//W3C//DTD SVG 20010904//EN"
 "http://www.w3.org/TR/2001/REC-SVG-20010904/DTD/svg10.dtd">
<svg version="1.0" xmlns="http://www.w3.org/2000/svg"
 width="96.000000pt" height="68.000000pt" viewBox="0 0 96.000000 68.000000"
 preserveAspectRatio="xMidYMid meet">
<metadata>
Created by potrace 1.16, written by Peter Selinger 2001-2019
</metadata>
<g transform="translate(0.000000,68.000000) scale(0.100000,-0.100000)"
fill="#000000" stroke="none">
<path d="M510 613 c0 -10 -13 -42 -29 -70 -33 -60 -27 -66 21 -24 29 25 43 29
122 34 86 6 106 11 93 23 -8 9 -44 8 -105 -1 -48 -7 -52 -6 -46 10 5 12 1 23
-11 31 -26 19 -45 17 -45 -3z"/>
<path d="M274 584 c-4 -15 -27 -51 -51 -80 -24 -30 -41 -54 -38 -54 8 0 56 31
88 57 22 18 42 23 85 24 31 0 66 4 76 8 36 14 -9 21 -65 11 -29 -6 -53 -10
-55 -10 -2 0 2 12 8 26 10 21 9 27 -3 35 -24 15 -38 10 -45 -17z"/>
<path d="M565 510 c29 -32 55 -44 68 -31 16 16 -9 37 -53 46 l-35 7 20 -22z"/>
<path d="M290 492 c0 -12 34 -42 48 -42 22 0 13 37 -10 44 -31 8 -38 7 -38 -2z"/>
</g>
</svg>
