<?xml version="1.0" standalone="no"?>
<!DOCTYPE svg PUBLIC "-//W3C//DTD SVG 20010904//EN"
 "http://www.w3.org/TR/2001/REC-SVG-20010904/DTD/svg10.dtd">
<svg version="1.0" xmlns="http://www.w3.org/2000/svg"
 width="96.000000pt" height="68.000000pt" viewBox="0 0 96.000000 68.000000"
 preserveAspectRatio="xMidYMid meet">
<metadata>
Created by potrace 1.16, written by Peter Selinger 2001-2019
</metadata>
<g transform="translate(0.000000,68.000000) scale(0.100000,-0.100000)"
fill="#000000" stroke="none">
<path d="M264 308 l1 -42 -50 -11 c-38 -9 -46 -14 -32 -20 10 -4 33 -5 52 -2
32 5 35 3 37 -19 0 -13 1 -29 2 -36 1 -16 -67 -36 -126 -37 -53 -1 -60 -12
-24 -36 22 -15 32 -13 167 31 183 60 208 80 62 48 -32 -6 -33 -6 -33 29 0 33
2 35 48 47 l47 13 -30 8 c-16 5 -38 6 -49 3 -17 -6 -18 -2 -12 30 7 36 7 36
-27 36 -33 0 -34 -1 -33 -42z"/>
</g>
</svg>
