<?xml version="1.0" standalone="no"?>
<!DOCTYPE svg PUBLIC "-//W3C//DTD SVG 20010904//EN"
 "http://www.w3.org/TR/2001/REC-SVG-20010904/DTD/svg10.dtd">
<svg version="1.0" xmlns="http://www.w3.org/2000/svg"
 width="96.000000pt" height="68.000000pt" viewBox="0 0 96.000000 68.000000"
 preserveAspectRatio="xMidYMid meet">
<metadata>
Created by potrace 1.16, written by Peter Selinger 2001-2019
</metadata>
<g transform="translate(0.000000,68.000000) scale(0.100000,-0.100000)"
fill="#000000" stroke="none">
<path d="M656 388 c-3 -17 -18 -51 -32 -75 l-26 -44 -53 50 c-31 29 -63 51
-75 51 -18 0 -13 -8 29 -46 72 -64 78 -80 49 -111 -12 -14 -52 -43 -88 -65
-36 -22 -54 -37 -40 -34 14 3 33 6 42 6 9 0 46 20 81 44 l65 43 29 -38 c15
-20 40 -45 55 -53 26 -16 128 -22 141 -9 4 3 -37 28 -92 54 -54 27 -101 55
-105 64 -6 18 53 144 78 164 25 21 19 31 -18 31 -30 0 -34 -4 -40 -32z"/>
</g>
</svg>
