<?xml version="1.0" standalone="no"?>
<!DOCTYPE svg PUBLIC "-//W3C//DTD SVG 20010904//EN"
 "http://www.w3.org/TR/2001/REC-SVG-20010904/DTD/svg10.dtd">
<svg version="1.0" xmlns="http://www.w3.org/2000/svg"
 width="96.000000pt" height="68.000000pt" viewBox="0 0 96.000000 68.000000"
 preserveAspectRatio="xMidYMid meet">
<metadata>
Created by potrace 1.16, written by Peter Selinger 2001-2019
</metadata>
<g transform="translate(0.000000,68.000000) scale(0.100000,-0.100000)"
fill="#000000" stroke="none">
<path d="M670 377 c-3 -3 -83 -13 -179 -23 -159 -16 -172 -19 -145 -31 16 -7
44 -10 62 -7 25 4 32 1 32 -11 0 -28 -50 -115 -92 -161 l-40 -44 30 11 c17 6
45 25 63 42 39 40 89 125 89 153 0 28 15 31 156 33 65 1 120 4 123 7 3 2 0 9
-5 14 -10 10 -87 24 -94 17z"/>
</g>
</svg>
