<?xml version="1.0" standalone="no"?>
<!DOCTYPE svg PUBLIC "-//W3C//DTD SVG 20010904//EN"
 "http://www.w3.org/TR/2001/REC-SVG-20010904/DTD/svg10.dtd">
<svg version="1.0" xmlns="http://www.w3.org/2000/svg"
 width="96.000000pt" height="68.000000pt" viewBox="0 0 96.000000 68.000000"
 preserveAspectRatio="xMidYMid meet">
<metadata>
Created by potrace 1.16, written by Peter Selinger 2001-2019
</metadata>
<g transform="translate(0.000000,68.000000) scale(0.100000,-0.100000)"
fill="#000000" stroke="none">
<path d="M485 591 c-3 -5 -1 -12 5 -16 6 -4 10 -52 10 -113 0 -104 -1 -108
-22 -110 -13 -1 -54 -6 -93 -10 l-70 -8 39 -12 c22 -6 50 -9 63 -6 18 5 23 2
23 -12 0 -18 -45 -112 -59 -124 -3 -3 -22 -22 -41 -43 l-34 -37 30 10 c62 22
154 140 154 199 0 21 22 33 45 25 12 -5 15 -26 15 -104 0 -109 9 -128 69 -148
68 -24 182 -10 214 26 14 15 13 21 -13 66 l-29 49 -6 -36 c-10 -54 -37 -72
-105 -72 -44 0 -63 5 -80 20 -23 21 -23 37 2 153 l11 52 79 0 c82 0 100 11 45
29 -23 8 -49 8 -86 1 -30 -5 -65 -10 -78 -10 l-25 0 3 110 c1 60 1 111 -2 113
-11 11 -58 16 -64 8z"/>
<path d="M205 574 c15 -33 18 -225 5 -355 -13 -130 -7 -169 24 -169 23 0 28
29 33 197 l6 162 27 -19 c34 -24 46 -25 54 -4 8 22 -1 34 -41 51 l-35 14 6 59
c4 32 3 61 -1 63 -5 3 -26 8 -47 13 -36 6 -39 5 -31 -12z"/>
<path d="M670 511 c0 -5 -16 -26 -35 -47 -19 -20 -34 -39 -32 -41 7 -6 127 57
127 67 0 10 -32 30 -49 30 -6 0 -11 -4 -11 -9z"/>
<path d="M380 461 c0 -16 41 -61 56 -61 8 0 14 10 14 25 0 18 -7 28 -26 35
-31 12 -44 13 -44 1z"/>
<path d="M115 376 c-14 -33 -23 -66 -20 -77 9 -26 42 -24 56 3 16 30 17 104 2
119 -10 10 -18 0 -38 -45z"/>
</g>
</svg>
