<?xml version="1.0" standalone="no"?>
<!DOCTYPE svg PUBLIC "-//W3C//DTD SVG 20010904//EN"
 "http://www.w3.org/TR/2001/REC-SVG-20010904/DTD/svg10.dtd">
<svg version="1.0" xmlns="http://www.w3.org/2000/svg"
 width="96.000000pt" height="68.000000pt" viewBox="0 0 96.000000 68.000000"
 preserveAspectRatio="xMidYMid meet">
<metadata>
Created by potrace 1.16, written by Peter Selinger 2001-2019
</metadata>
<g transform="translate(0.000000,68.000000) scale(0.100000,-0.100000)"
fill="#000000" stroke="none">
<path d="M535 558 c4 -13 7 -25 7 -28 1 -87 -2 -100 -24 -100 -13 0 -30 -5
-38 -10 -11 -7 -5 -10 23 -10 34 0 37 -2 37 -29 0 -28 -3 -30 -47 -36 -84 -11
-97 -15 -85 -27 8 -8 33 -9 89 -1 43 5 80 8 83 5 7 -6 -85 -87 -148 -128 -29
-20 -51 -38 -48 -41 2 -3 28 7 56 21 28 14 53 26 55 26 2 0 5 -33 7 -72 l3
-73 81 4 c54 2 89 -2 102 -10 12 -7 25 -10 29 -5 4 4 10 48 13 98 7 116 -1
125 -93 109 -95 -16 -96 -15 -39 39 l52 49 90 7 c107 8 119 28 19 31 -35 0
-67 1 -72 2 -7 1 30 47 68 83 20 19 20 20 1 34 -23 16 -46 19 -46 5 0 -5 -4
-20 -9 -33 -8 -22 -13 -24 -58 -19 l-48 6 3 56 c3 52 2 57 -20 62 -42 12 -50
9 -43 -15z m135 -136 c0 -14 -51 -62 -66 -62 -23 0 -14 52 9 56 11 1 21 5 25
8 8 9 32 7 32 -2z m14 -208 c14 -36 6 -43 -51 -49 -32 -4 -66 -9 -75 -11 -15
-4 -18 1 -18 30 0 32 3 35 33 39 76 9 105 7 111 -9z m4 -101 c-3 -28 -4 -28
-80 -31 -63 -2 -78 0 -78 12 0 38 10 43 86 45 l75 2 -3 -28z"/>
<path d="M250 502 c-47 -8 -87 -17 -90 -19 -10 -8 26 -23 58 -23 17 0 32 -4
32 -9 0 -10 -85 -94 -101 -99 -13 -5 -11 -22 4 -22 6 0 25 7 41 15 65 34 63 0
-6 -66 -61 -59 -46 -65 27 -10 29 22 55 37 59 34 21 -21 -22 -80 -109 -151
-22 -18 -33 -32 -25 -32 18 0 83 43 125 82 l30 28 3 -34 c2 -19 -1 -49 -6 -68
-7 -27 -13 -33 -35 -33 l-27 1 27 -28 c15 -15 33 -28 40 -28 36 0 60 156 34
223 -10 25 -9 27 7 18 9 -5 28 -21 41 -35 26 -27 41 -26 41 3 0 18 -52 51 -79
51 -21 0 -11 15 35 54 43 37 45 41 28 53 -26 19 -30 17 -45 -19 -14 -35 -39
-68 -51 -68 -4 0 -21 13 -38 28 l-31 29 45 37 c29 23 43 42 39 51 -4 11 3 15
27 15 37 0 73 17 65 31 -8 12 -62 9 -165 -9z"/>
</g>
</svg>
