<?xml version="1.0" standalone="no"?>
<!DOCTYPE svg PUBLIC "-//W3C//DTD SVG 20010904//EN"
 "http://www.w3.org/TR/2001/REC-SVG-20010904/DTD/svg10.dtd">
<svg version="1.0" xmlns="http://www.w3.org/2000/svg"
 width="96.000000pt" height="68.000000pt" viewBox="0 0 96.000000 68.000000"
 preserveAspectRatio="xMidYMid meet">
<metadata>
Created by potrace 1.16, written by Peter Selinger 2001-2019
</metadata>
<g transform="translate(0.000000,68.000000) scale(0.100000,-0.100000)"
fill="#000000" stroke="none">
<path d="M555 291 c0 -60 -3 -73 -25 -96 -14 -15 -41 -35 -60 -46 -22 -11 -29
-18 -17 -19 32 0 87 28 117 62 l30 32 32 -30 c68 -61 78 -68 89 -57 19 19 -7
49 -65 74 l-55 24 3 57 c3 50 1 57 -18 62 -11 3 -23 6 -26 6 -3 0 -5 -31 -5
-69z"/>
<path d="M657 299 c-21 -22 -37 -39 -35 -39 10 0 109 38 116 44 7 7 -26 38
-37 35 -3 -1 -23 -19 -44 -40z"/>
<path d="M458 293 c6 -10 19 -27 31 -37 19 -17 21 -18 27 -2 8 20 -10 41 -44
51 -21 6 -22 5 -14 -12z"/>
</g>
</svg>
