<?xml version="1.0" standalone="no"?>
<!DOCTYPE svg PUBLIC "-//W3C//DTD SVG 20010904//EN"
 "http://www.w3.org/TR/2001/REC-SVG-20010904/DTD/svg10.dtd">
<svg version="1.0" xmlns="http://www.w3.org/2000/svg"
 width="90.000000pt" height="92.000000pt" viewBox="0 0 90.000000 92.000000"
 preserveAspectRatio="xMidYMid meet">
<metadata>
Created by potrace 1.16, written by Peter Selinger 2001-2019
</metadata>
<g transform="translate(0.000000,92.000000) scale(0.100000,-0.100000)"
fill="#000000" stroke="none">
<path d="M476 844 c-3 -9 -6 -27 -6 -40 0 -56 -138 -269 -211 -327 -58 -46 -7
-31 58 17 59 43 138 138 174 208 11 21 23 38 28 38 11 0 54 -50 111 -131 80
-112 98 -129 139 -129 41 0 111 18 111 28 0 4 -35 23 -77 42 -62 27 -96 52
-175 128 -84 81 -96 97 -87 113 8 15 5 24 -15 44 -29 29 -41 31 -50 9z"/>
<path d="M226 787 c-3 -12 -6 -31 -6 -42 0 -38 -92 -207 -156 -286 -36 -45
-63 -83 -61 -85 7 -8 103 73 127 105 12 17 26 31 32 31 14 0 4 -261 -13 -310
-9 -29 -8 -43 4 -73 38 -89 54 -24 59 235 2 123 0 151 -13 166 -15 18 -12 26
43 126 32 58 56 111 53 116 -4 6 -19 17 -35 25 -26 14 -28 13 -34 -8z"/>
<path d="M515 535 c-27 -7 -70 -17 -95 -22 l-45 -10 28 -13 c23 -11 41 -11
118 3 50 8 94 19 97 22 8 8 -27 36 -42 34 -6 -1 -33 -7 -61 -14z"/>
<path d="M655 424 c-29 -11 -323 -40 -341 -33 -30 11 -33 4 -18 -39 7 -20 13
-73 14 -118 0 -53 5 -87 14 -100 21 -28 30 -10 29 56 l-2 60 39 0 40 0 0 -44
c0 -47 16 -69 31 -45 5 8 9 28 8 44 -2 53 0 55 36 55 35 0 35 0 36 -47 0 -27
4 -57 8 -67 7 -18 9 -16 19 14 7 18 12 50 12 70 0 37 1 37 46 44 79 10 77 12
69 -46 -10 -71 -19 -81 -68 -73 -36 7 -38 6 -28 -11 6 -11 24 -34 40 -53 28
-34 29 -35 54 -18 39 26 48 49 58 160 5 56 14 115 19 130 8 25 6 30 -23 47
-30 18 -68 24 -92 14z m43 -79 l3 -40 -59 0 c-58 0 -60 1 -55 25 3 14 5 33 5
43 -1 15 6 18 51 15 l52 -3 3 -40z m-158 -4 c0 -40 -11 -51 -51 -51 -13 0 -19
7 -20 25 -1 14 -2 31 -3 38 -2 17 14 27 47 27 25 0 27 -3 27 -39z m-111 -38
c1 -20 -4 -23 -40 -23 l-40 0 3 37 c3 33 7 39 33 43 32 6 42 -7 44 -57z"/>
</g>
</svg>
