<?xml version="1.0" standalone="no"?>
<!DOCTYPE svg PUBLIC "-//W3C//DTD SVG 20010904//EN"
 "http://www.w3.org/TR/2001/REC-SVG-20010904/DTD/svg10.dtd">
<svg version="1.0" xmlns="http://www.w3.org/2000/svg"
 width="96.000000pt" height="68.000000pt" viewBox="0 0 96.000000 68.000000"
 preserveAspectRatio="xMidYMid meet">
<metadata>
Created by potrace 1.16, written by Peter Selinger 2001-2019
</metadata>
<g transform="translate(0.000000,68.000000) scale(0.100000,-0.100000)"
fill="#000000" stroke="none">
<path d="M400 595 c0 -32 -54 -121 -108 -177 -45 -48 -51 -58 -34 -58 11 0 40
15 64 33 48 37 116 51 253 52 l70 0 -2 -120 c-1 -86 -6 -135 -20 -175 -20 -60
-20 -60 -98 -45 l-40 7 28 -26 c15 -15 34 -38 43 -51 21 -33 54 -32 87 2 40
43 55 89 62 203 6 93 13 141 31 202 4 12 -6 23 -34 37 -35 18 -48 19 -98 11
-33 -6 -90 -13 -128 -16 l-69 -6 21 30 c12 16 28 35 37 42 21 18 19 36 -7 54
-29 20 -58 20 -58 1z"/>
<path d="M340 328 c-36 -5 -80 -6 -97 -4 -32 5 -41 -2 -25 -18 4 -4 14 -37 22
-74 11 -48 20 -68 33 -70 10 -2 17 3 17 11 0 8 10 14 23 14 114 -1 149 3 143
19 -4 9 6 34 23 60 l30 44 -22 15 c-23 16 -49 17 -147 3z m84 -56 c-3 -20 -10
-41 -14 -45 -9 -11 -107 -25 -118 -18 -12 7 -19 77 -9 87 8 8 128 22 140 16 4
-2 5 -20 1 -40z"/>
</g>
</svg>
