<?xml version="1.0" standalone="no"?>
<!DOCTYPE svg PUBLIC "-//W3C//DTD SVG 20010904//EN"
 "http://www.w3.org/TR/2001/REC-SVG-20010904/DTD/svg10.dtd">
<svg version="1.0" xmlns="http://www.w3.org/2000/svg"
 width="96.000000pt" height="68.000000pt" viewBox="0 0 96.000000 68.000000"
 preserveAspectRatio="xMidYMid meet">
<metadata>
Created by potrace 1.16, written by Peter Selinger 2001-2019
</metadata>
<g transform="translate(0.000000,68.000000) scale(0.100000,-0.100000)"
fill="#000000" stroke="none">
<path d="M580 563 c0 -5 11 -25 25 -45 14 -20 21 -39 16 -42 -5 -3 -39 -7 -77
-8 l-69 -3 -2 -82 c-1 -93 -22 -174 -63 -251 -34 -62 -19 -64 27 -3 34 44 71
146 79 221 11 91 7 87 81 99 38 5 108 13 158 17 82 6 88 7 70 21 -15 11 -36
13 -87 9 -63 -6 -68 -5 -68 14 0 20 -28 43 -67 55 -13 3 -23 3 -23 -2z"/>
</g>
</svg>
