<?xml version="1.0" standalone="no"?>
<!DOCTYPE svg PUBLIC "-//W3C//DTD SVG 20010904//EN"
 "http://www.w3.org/TR/2001/REC-SVG-20010904/DTD/svg10.dtd">
<svg version="1.0" xmlns="http://www.w3.org/2000/svg"
 width="96.000000pt" height="68.000000pt" viewBox="0 0 96.000000 68.000000"
 preserveAspectRatio="xMidYMid meet">
<metadata>
Created by potrace 1.16, written by Peter Selinger 2001-2019
</metadata>
<g transform="translate(0.000000,68.000000) scale(0.100000,-0.100000)"
fill="#000000" stroke="none">
<path d="M323 547 c-15 -54 -71 -138 -141 -211 -82 -86 -34 -67 62 23 l48 46
-6 -120 c-3 -66 -9 -136 -12 -155 -6 -42 17 -83 36 -63 19 18 30 313 13 334
-18 22 -18 22 33 97 42 61 44 67 28 79 -32 24 -49 15 -61 -30z"/>
</g>
</svg>
