<?xml version="1.0" standalone="no"?>
<!DOCTYPE svg PUBLIC "-//W3C//DTD SVG 20010904//EN"
 "http://www.w3.org/TR/2001/REC-SVG-20010904/DTD/svg10.dtd">
<svg version="1.0" xmlns="http://www.w3.org/2000/svg"
 width="90.000000pt" height="92.000000pt" viewBox="0 0 90.000000 92.000000"
 preserveAspectRatio="xMidYMid meet">
<metadata>
Created by potrace 1.16, written by Peter Selinger 2001-2019
</metadata>
<g transform="translate(0.000000,92.000000) scale(0.100000,-0.100000)"
fill="#000000" stroke="none">
<path d="M230 839 c-12 -45 -67 -110 -143 -171 -56 -44 -42 -50 28 -13 l47 26
43 -40 43 -40 -48 -45 c-26 -25 -71 -59 -100 -77 -28 -17 -49 -34 -46 -36 6
-7 109 41 147 67 20 15 29 17 29 8 0 -30 -72 -114 -153 -179 -51 -40 -45 -53
9 -20 l30 19 47 -53 46 -52 -42 -40 c-23 -22 -67 -57 -97 -77 -68 -45 -45 -47
41 -4 40 20 89 57 129 97 69 70 170 195 170 211 0 5 -11 17 -25 26 -24 15 -30
15 -82 1 -31 -9 -59 -15 -61 -12 -2 2 11 17 29 33 35 31 33 47 -6 62 l-24 9
31 33 c17 18 47 53 66 78 20 25 49 60 66 77 29 32 29 33 11 53 -21 24 -42 25
-115 5 l-55 -14 34 31 34 32 -27 23 c-37 31 -44 29 -56 -18z m120 -91 c0 -7
-17 -37 -37 -66 l-37 -54 -13 27 c-9 15 -26 28 -44 32 -39 8 -43 16 -16 41 13
13 39 22 67 25 25 2 53 4 63 5 9 1 17 -4 17 -10z m-20 -343 c0 -12 -34 -71
-58 -102 l-26 -31 -27 29 c-15 16 -42 32 -59 36 l-32 6 33 26 c31 24 72 36
142 39 15 1 27 0 27 -3z"/>
<path d="M515 833 c-9 -61 -57 -180 -107 -262 -21 -35 -36 -66 -33 -69 3 -3
26 17 52 44 50 51 65 57 224 80 68 10 71 -1 67 -204 -3 -148 -6 -173 -26 -216
l-22 -49 -61 7 -61 7 48 -55 c27 -31 56 -56 65 -56 26 0 87 74 100 122 6 24
15 129 19 233 4 105 9 196 11 203 2 8 -12 27 -31 43 l-36 29 -70 -24 c-75 -25
-154 -42 -154 -32 0 3 21 49 48 102 l47 96 -28 24 c-15 13 -32 24 -36 24 -5 0
-12 -21 -16 -47z"/>
<path d="M540 474 c-19 -7 -52 -13 -74 -13 -31 -1 -36 -4 -27 -15 6 -7 17 -44
24 -82 11 -60 15 -69 32 -66 122 20 132 24 127 47 -2 13 6 45 18 71 20 46 20
49 4 61 -22 16 -58 15 -104 -3z m45 -36 c2 -7 1 -29 -3 -48 -6 -28 -14 -36
-40 -44 -18 -5 -34 -7 -36 -5 -2 2 -7 25 -11 51 -7 45 -6 47 21 51 54 8 65 7
69 -5z"/>
</g>
</svg>
