<?xml version="1.0" standalone="no"?>
<!DOCTYPE svg PUBLIC "-//W3C//DTD SVG 20010904//EN"
 "http://www.w3.org/TR/2001/REC-SVG-20010904/DTD/svg10.dtd">
<svg version="1.0" xmlns="http://www.w3.org/2000/svg"
 width="96.000000pt" height="68.000000pt" viewBox="0 0 96.000000 68.000000"
 preserveAspectRatio="xMidYMid meet">
<metadata>
Created by potrace 1.16, written by Peter Selinger 2001-2019
</metadata>
<g transform="translate(0.000000,68.000000) scale(0.100000,-0.100000)"
fill="#000000" stroke="none">
<path d="M411 578 c6 -13 18 -30 26 -39 12 -15 5 -17 -84 -22 -56 -3 -103 -1
-110 5 -11 9 -14 6 -56 -64 -17 -28 -11 -48 13 -48 11 0 25 14 37 39 l18 38
95 7 c214 15 300 18 300 12 0 -4 -5 -16 -11 -28 -6 -11 -9 -21 -7 -23 7 -8
112 22 116 33 2 6 -11 21 -30 32 -30 18 -43 20 -130 14 -96 -7 -98 -6 -98 15
0 16 -10 26 -35 37 -49 20 -58 18 -44 -8z"/>
</g>
</svg>
