<?xml version="1.0" standalone="no"?>
<!DOCTYPE svg PUBLIC "-//W3C//DTD SVG 20010904//EN"
 "http://www.w3.org/TR/2001/REC-SVG-20010904/DTD/svg10.dtd">
<svg version="1.0" xmlns="http://www.w3.org/2000/svg"
 width="96.000000pt" height="68.000000pt" viewBox="0 0 96.000000 68.000000"
 preserveAspectRatio="xMidYMid meet">
<metadata>
Created by potrace 1.16, written by Peter Selinger 2001-2019
</metadata>
<g transform="translate(0.000000,68.000000) scale(0.100000,-0.100000)"
fill="#000000" stroke="none">
<path d="M530 365 l0 -35 -50 -2 c-27 -1 -58 -2 -67 -2 -14 -1 -17 6 -15 27 2
23 -1 27 -23 27 -21 0 -25 -5 -25 -29 0 -32 -21 -40 -114 -42 -28 -1 -64 -5
-81 -8 l-30 -8 28 -13 c23 -11 43 -12 105 -3 42 6 78 10 80 8 1 -1 -7 -29 -19
-61 -15 -40 -37 -72 -72 -106 -50 -48 -50 -48 -16 -36 50 17 122 95 138 148
19 65 25 70 97 70 l64 0 0 -137 c0 -146 7 -176 31 -147 10 12 15 55 17 156 l4
138 114 0 c63 0 114 4 114 9 0 19 -63 30 -145 24 l-85 -6 0 32 c0 26 -4 31
-25 31 -22 0 -25 -4 -25 -35z"/>
</g>
</svg>
