<?xml version="1.0" standalone="no"?>
<!DOCTYPE svg PUBLIC "-//W3C//DTD SVG 20010904//EN"
 "http://www.w3.org/TR/2001/REC-SVG-20010904/DTD/svg10.dtd">
<svg version="1.0" xmlns="http://www.w3.org/2000/svg"
 width="96.000000pt" height="68.000000pt" viewBox="0 0 96.000000 68.000000"
 preserveAspectRatio="xMidYMid meet">
<metadata>
Created by potrace 1.16, written by Peter Selinger 2001-2019
</metadata>
<g transform="translate(0.000000,68.000000) scale(0.100000,-0.100000)"
fill="#000000" stroke="none">
<path d="M637 557 l5 -44 -47 -6 c-70 -10 -72 -10 -78 23 -5 22 -12 30 -27 30
-18 0 -21 -5 -18 -32 3 -31 1 -33 -29 -36 -44 -4 -42 -22 1 -22 40 0 46 -11
46 -89 l0 -58 87 3 c48 1 89 6 90 11 2 4 6 39 10 78 l8 70 50 11 c44 9 48 12
30 21 -11 6 -33 9 -49 6 -27 -6 -28 -5 -21 25 5 25 2 33 -14 41 -39 22 -49 14
-44 -32z m1 -128 c-1 -67 -7 -73 -79 -81 l-34 -3 -3 67 -3 67 43 4 c24 2 51 4
60 5 14 2 17 -7 16 -59z"/>
</g>
</svg>
