<?xml version="1.0" standalone="no"?>
<!DOCTYPE svg PUBLIC "-//W3C//DTD SVG 20010904//EN"
 "http://www.w3.org/TR/2001/REC-SVG-20010904/DTD/svg10.dtd">
<svg version="1.0" xmlns="http://www.w3.org/2000/svg"
 width="96.000000pt" height="68.000000pt" viewBox="0 0 96.000000 68.000000"
 preserveAspectRatio="xMidYMid meet">
<metadata>
Created by potrace 1.16, written by Peter Selinger 2001-2019
</metadata>
<g transform="translate(0.000000,68.000000) scale(0.100000,-0.100000)"
fill="#000000" stroke="none">
<path d="M655 153 c-9 -53 -13 -63 -25 -63 -5 0 -10 13 -10 29 0 36 -9 61 -22
61 -5 0 -7 -18 -3 -44 l7 -43 -39 -6 c-21 -4 -51 -7 -66 -7 -18 0 -26 -4 -21
-11 5 -8 29 -9 83 -4 42 4 123 11 181 14 95 6 102 8 80 19 -20 10 -43 11 -93
4 -37 -5 -67 -5 -67 0 0 5 7 25 15 45 18 43 18 43 0 43 -9 0 -16 -14 -20 -37z"/>
</g>
</svg>
