<?xml version="1.0" standalone="no"?>
<!DOCTYPE svg PUBLIC "-//W3C//DTD SVG 20010904//EN"
 "http://www.w3.org/TR/2001/REC-SVG-20010904/DTD/svg10.dtd">
<svg version="1.0" xmlns="http://www.w3.org/2000/svg"
 width="96.000000pt" height="68.000000pt" viewBox="0 0 96.000000 68.000000"
 preserveAspectRatio="xMidYMid meet">
<metadata>
Created by potrace 1.16, written by Peter Selinger 2001-2019
</metadata>
<g transform="translate(0.000000,68.000000) scale(0.100000,-0.100000)"
fill="#000000" stroke="none">
<path d="M430 155 c0 -8 -5 -26 -12 -40 -14 -30 -58 -36 -58 -7 0 19 -18 42
-33 42 -5 0 -7 -6 -4 -12 21 -58 21 -58 -27 -58 -25 0 -46 -4 -46 -10 0 -22
52 -20 146 5 105 29 134 42 70 32 -37 -6 -38 -6 -21 13 10 11 15 26 12 35 -8
19 -27 20 -27 0z"/>
</g>
</svg>
