<?xml version="1.0" standalone="no"?>
<!DOCTYPE svg PUBLIC "-//W3C//DTD SVG 20010904//EN"
 "http://www.w3.org/TR/2001/REC-SVG-20010904/DTD/svg10.dtd">
<svg version="1.0" xmlns="http://www.w3.org/2000/svg"
 width="96.000000pt" height="68.000000pt" viewBox="0 0 96.000000 68.000000"
 preserveAspectRatio="xMidYMid meet">
<metadata>
Created by potrace 1.16, written by Peter Selinger 2001-2019
</metadata>
<g transform="translate(0.000000,68.000000) scale(0.100000,-0.100000)"
fill="#000000" stroke="none">
<path d="M508 564 c6 -55 -3 -64 -68 -64 -33 0 -41 -3 -30 -10 8 -5 32 -10 54
-10 31 0 37 -3 32 -16 -3 -9 -6 -19 -6 -24 0 -4 -19 -11 -42 -16 l-43 -8 38
-4 c20 -2 37 -7 37 -13 0 -14 36 -11 49 5 6 7 39 16 73 20 34 3 67 11 73 17 7
9 -9 10 -62 5 -74 -6 -85 -1 -65 31 5 8 101 33 129 33 2 0 3 5 3 11 0 8 -18
10 -60 6 l-61 -7 7 35 c5 31 3 36 -21 45 -41 15 -43 13 -37 -36z"/>
</g>
</svg>
