<?xml version="1.0" standalone="no"?>
<!DOCTYPE svg PUBLIC "-//W3C//DTD SVG 20010904//EN"
 "http://www.w3.org/TR/2001/REC-SVG-20010904/DTD/svg10.dtd">
<svg version="1.0" xmlns="http://www.w3.org/2000/svg"
 width="96.000000pt" height="68.000000pt" viewBox="0 0 96.000000 68.000000"
 preserveAspectRatio="xMidYMid meet">
<metadata>
Created by potrace 1.16, written by Peter Selinger 2001-2019
</metadata>
<g transform="translate(0.000000,68.000000) scale(0.100000,-0.100000)"
fill="#000000" stroke="none">
<path d="M536 431 c3 -16 2 -31 -2 -33 -5 -3 -42 -9 -81 -12 l-73 -7 0 25 c0
16 -6 26 -14 26 -8 0 -22 3 -31 7 -15 5 -16 1 -11 -25 7 -30 7 -30 -46 -40
l-53 -10 52 -1 52 -1 5 -52 c3 -29 7 -71 8 -93 l3 -40 -102 -5 c-56 -3 -104
-8 -108 -12 -16 -16 57 -21 155 -10 58 7 201 15 318 19 117 3 212 9 212 13 0
16 -77 28 -130 20 -30 -5 -69 -9 -86 -9 l-31 -1 13 85 c7 46 15 89 19 95 3 5
24 10 45 10 21 0 42 4 45 10 8 13 -38 24 -64 15 -17 -5 -21 -2 -21 15 0 13 -9
24 -26 30 -44 17 -54 13 -48 -19z m3 -150 l-1 -89 -36 -6 c-21 -3 -56 -6 -79
-6 l-43 0 0 89 0 90 53 4 c28 2 64 4 80 5 l27 2 -1 -89z"/>
</g>
</svg>
