<?xml version="1.0" standalone="no"?>
<!DOCTYPE svg PUBLIC "-//W3C//DTD SVG 20010904//EN"
 "http://www.w3.org/TR/2001/REC-SVG-20010904/DTD/svg10.dtd">
<svg version="1.0" xmlns="http://www.w3.org/2000/svg"
 width="96.000000pt" height="68.000000pt" viewBox="0 0 96.000000 68.000000"
 preserveAspectRatio="xMidYMid meet">
<metadata>
Created by potrace 1.16, written by Peter Selinger 2001-2019
</metadata>
<g transform="translate(0.000000,68.000000) scale(0.100000,-0.100000)"
fill="#000000" stroke="none">
<path d="M295 530 c-16 -4 -55 -8 -85 -9 -41 -1 -51 -4 -38 -11 9 -6 19 -29
23 -53 12 -68 19 -76 67 -71 116 13 127 15 122 28 -3 8 4 34 16 59 12 25 19
51 15 57 -7 11 -75 12 -120 0z m52 -61 c-3 -22 -7 -43 -9 -45 -3 -2 -25 -7
-50 -10 -49 -7 -47 -9 -62 58 -7 29 2 32 93 36 l34 2 -6 -41z"/>
</g>
</svg>
