<?xml version="1.0" standalone="no"?>
<!DOCTYPE svg PUBLIC "-//W3C//DTD SVG 20010904//EN"
 "http://www.w3.org/TR/2001/REC-SVG-20010904/DTD/svg10.dtd">
<svg version="1.0" xmlns="http://www.w3.org/2000/svg"
 width="96.000000pt" height="68.000000pt" viewBox="0 0 96.000000 68.000000"
 preserveAspectRatio="xMidYMid meet">
<metadata>
Created by potrace 1.16, written by Peter Selinger 2001-2019
</metadata>
<g transform="translate(0.000000,68.000000) scale(0.100000,-0.100000)"
fill="#000000" stroke="none">
<path d="M460 625 c0 -9 10 -26 23 -39 l23 -23 -135 -11 c-74 -6 -136 -14
-139 -16 -2 -3 3 -12 12 -21 21 -21 21 -116 0 -199 -19 -75 -74 -187 -121
-243 -28 -35 -31 -43 -16 -43 24 1 72 45 112 104 37 54 66 131 81 219 29 171
28 167 65 167 33 0 45 -13 45 -50 0 -20 -19 -30 -56 -30 -14 0 -22 -4 -19 -10
3 -6 17 -7 31 -4 36 9 30 -11 -22 -66 -57 -61 -44 -65 20 -8 l48 41 -7 -46
c-6 -39 -5 -47 8 -47 15 0 34 -36 24 -46 -2 -3 -29 -7 -58 -11 -78 -8 -97 -24
-29 -22 92 1 100 0 94 -15 -3 -8 -28 -16 -65 -20 -77 -9 -77 -26 1 -19 56 5
60 4 60 -15 0 -18 -10 -22 -90 -33 -49 -7 -90 -16 -90 -20 0 -18 44 -19 93 -4
28 9 57 18 64 20 28 9 20 -15 -18 -59 -44 -50 -43 -56 5 -26 47 29 73 83 81
172 l7 77 -26 7 c-24 6 -26 11 -26 55 0 53 4 57 32 32 13 -11 22 -13 29 -6 13
13 -15 43 -42 43 -30 0 -22 19 11 27 36 10 39 29 4 26 -19 -1 -24 3 -24 23 0
16 -8 28 -22 34 -17 6 -3 9 52 10 41 0 84 3 95 6 15 4 21 0 23 -13 1 -10 3
-27 4 -38 2 -15 -4 -21 -22 -23 -33 -5 -51 -22 -22 -22 31 0 28 -8 -20 -57
-49 -50 -39 -57 18 -13 21 16 42 30 46 30 4 0 5 -20 1 -45 -5 -41 -4 -45 16
-45 18 0 21 6 21 45 0 50 5 54 29 26 33 -37 77 -52 128 -43 l48 9 -45 12 c-51
15 -142 63 -148 79 -1 5 20 13 48 17 48 7 64 19 38 27 -7 3 -29 1 -50 -2 -44
-8 -50 -5 -42 26 4 16 1 23 -13 27 -10 3 5 5 34 6 58 1 75 14 42 31 -14 8 -47
10 -99 5 -77 -7 -78 -6 -73 14 4 17 -2 24 -31 36 -44 19 -46 19 -46 0z"/>
<path d="M560 156 c5 -134 11 -169 26 -153 4 3 9 26 11 50 l5 44 52 7 c28 3
73 6 99 6 34 0 47 4 45 13 -6 16 -60 20 -131 9 -63 -10 -67 -9 -60 17 4 15 19
20 74 25 38 4 69 12 69 18 0 7 -24 8 -70 3 -66 -7 -70 -6 -70 13 0 23 25 32
87 32 23 0 44 4 48 9 9 16 -28 22 -78 12 -29 -5 -47 -5 -47 1 0 15 -23 33 -45
36 -19 2 -20 -2 -15 -142z"/>
</g>
</svg>
