<?xml version="1.0" standalone="no"?>
<!DOCTYPE svg PUBLIC "-//W3C//DTD SVG 20010904//EN"
 "http://www.w3.org/TR/2001/REC-SVG-20010904/DTD/svg10.dtd">
<svg version="1.0" xmlns="http://www.w3.org/2000/svg"
 width="96.000000pt" height="68.000000pt" viewBox="0 0 96.000000 68.000000"
 preserveAspectRatio="xMidYMid meet">
<metadata>
Created by potrace 1.16, written by Peter Selinger 2001-2019
</metadata>
<g transform="translate(0.000000,68.000000) scale(0.100000,-0.100000)"
fill="#000000" stroke="none">
<path d="M680 498 c-14 -5 -53 -11 -88 -11 -58 -2 -63 -4 -58 -22 3 -11 6 -41
6 -68 0 -47 0 -47 28 -40 15 3 57 7 93 7 l67 0 28 55 c16 31 30 59 32 62 3 7
-54 29 -72 28 -6 0 -22 -5 -36 -11z m40 -33 c0 -22 -5 -25 -32 -25 -18 0 -50
-3 -72 -7 -34 -5 -38 -4 -34 13 2 14 18 22 58 30 79 17 80 17 80 -11z m-11
-57 c-9 -20 -19 -23 -70 -25 -45 -2 -59 1 -59 12 0 14 14 19 70 28 64 10 70 9
59 -15z"/>
</g>
</svg>
