<?xml version="1.0" standalone="no"?>
<!DOCTYPE svg PUBLIC "-//W3C//DTD SVG 20010904//EN"
 "http://www.w3.org/TR/2001/REC-SVG-20010904/DTD/svg10.dtd">
<svg version="1.0" xmlns="http://www.w3.org/2000/svg"
 width="96.000000pt" height="68.000000pt" viewBox="0 0 96.000000 68.000000"
 preserveAspectRatio="xMidYMid meet">
<metadata>
Created by potrace 1.16, written by Peter Selinger 2001-2019
</metadata>
<g transform="translate(0.000000,68.000000) scale(0.100000,-0.100000)"
fill="#000000" stroke="none">
<path d="M453 589 c2 -43 1 -43 -35 -50 -39 -6 -46 -1 -26 19 8 8 8 15 -2 27
-20 24 -47 18 -55 -12 -3 -15 -17 -40 -31 -56 -42 -50 -26 -64 29 -25 21 15
48 24 80 25 46 1 47 1 47 -28 0 -26 -4 -29 -32 -30 -18 -1 -42 -3 -53 -4 -11
-1 -65 -6 -120 -10 -55 -4 -101 -8 -102 -9 -1 -1 2 -8 6 -15 7 -11 27 -12 112
-2 57 7 198 18 313 26 114 8 211 17 214 20 4 3 0 11 -8 16 -14 10 -76 8 -222
-7 -68 -7 -68 -7 -68 18 0 21 6 27 31 32 17 3 44 6 60 6 20 0 29 5 29 16 0 13
-10 15 -57 12 l-58 -3 0 35 c0 31 -3 35 -27 38 -26 3 -27 1 -25 -39z"/>
<path d="M455 399 c-33 -5 -72 -7 -87 -5 -28 6 -35 -2 -19 -19 10 -11 41 -110
41 -131 0 -7 -27 -14 -75 -19 -41 -4 -75 -11 -75 -17 0 -6 27 -7 76 -3 71 7
76 6 72 -11 -2 -15 -16 -21 -63 -27 -91 -13 -97 -31 -7 -23 61 6 72 5 72 -8 0
-18 -20 -24 -134 -41 -77 -11 -80 -13 -54 -25 22 -11 37 -10 92 5 37 10 69 15
73 11 4 -3 -9 -22 -27 -41 -36 -37 -31 -46 10 -18 59 41 76 77 82 176 4 59 2
77 -8 77 -7 0 -16 5 -19 10 -4 6 18 10 58 10 45 0 65 -4 64 -12 0 -7 1 -75 1
-151 2 -106 5 -138 15 -135 6 3 13 21 15 41 4 42 5 43 125 52 48 4 87 10 87
15 0 15 -42 19 -98 9 -90 -14 -102 -13 -102 15 0 22 4 24 65 28 61 4 85 11 73
24 -3 3 -36 1 -72 -4 -65 -8 -66 -8 -66 15 0 13 6 24 15 24 8 1 20 3 25 4 6 1
30 3 54 4 31 1 46 6 50 17 6 15 0 16 -46 11 -29 -3 -61 -8 -70 -12 -14 -6 -18
-2 -18 15 0 13 -8 24 -20 27 -25 7 -16 23 13 23 16 0 27 12 41 41 10 22 15 43
12 46 -11 11 -109 12 -171 2z m110 -36 c-4 -16 -7 -29 -8 -29 -8 -7 -157 -14
-157 -8 0 5 -3 19 -6 31 -6 23 5 26 135 31 42 2 43 2 36 -25z"/>
</g>
</svg>
