<?xml version="1.0" standalone="no"?>
<!DOCTYPE svg PUBLIC "-//W3C//DTD SVG 20010904//EN"
 "http://www.w3.org/TR/2001/REC-SVG-20010904/DTD/svg10.dtd">
<svg version="1.0" xmlns="http://www.w3.org/2000/svg"
 width="96.000000pt" height="68.000000pt" viewBox="0 0 96.000000 68.000000"
 preserveAspectRatio="xMidYMid meet">
<metadata>
Created by potrace 1.16, written by Peter Selinger 2001-2019
</metadata>
<g transform="translate(0.000000,68.000000) scale(0.100000,-0.100000)"
fill="#000000" stroke="none">
<path d="M240 426 l0 -56 -40 -6 c-54 -9 -51 -24 5 -24 l45 0 0 -57 0 -58 -60
-17 c-32 -10 -66 -18 -75 -18 -20 0 -19 -10 3 -26 28 -22 52 -16 172 46 118
60 128 71 47 46 l-47 -14 0 54 0 54 40 6 c22 4 43 10 45 15 8 12 -30 21 -60
13 -27 -7 -27 -6 -24 42 4 47 3 49 -23 52 -28 3 -28 2 -28 -52z"/>
</g>
</svg>
