<?xml version="1.0" standalone="no"?>
<!DOCTYPE svg PUBLIC "-//W3C//DTD SVG 20010904//EN"
 "http://www.w3.org/TR/2001/REC-SVG-20010904/DTD/svg10.dtd">
<svg version="1.0" xmlns="http://www.w3.org/2000/svg"
 width="90.000000pt" height="92.000000pt" viewBox="0 0 90.000000 92.000000"
 preserveAspectRatio="xMidYMid meet">
<metadata>
Created by potrace 1.16, written by Peter Selinger 2001-2019
</metadata>
<g transform="translate(0.000000,92.000000) scale(0.100000,-0.100000)"
fill="#000000" stroke="none">
<path d="M596 793 c-22 -7 -65 -16 -95 -19 -76 -9 -93 -19 -59 -34 19 -9 38
-9 77 -1 66 14 91 14 91 0 0 -13 -51 -129 -57 -129 -2 0 -32 18 -67 40 -66 42
-119 59 -130 42 -3 -6 9 -15 27 -21 36 -13 137 -79 137 -91 0 -13 -94 -69
-151 -91 l-54 -20 53 4 c34 3 78 17 124 39 l71 36 66 -45 66 -45 83 4 c99 5
125 21 61 38 -101 26 -157 43 -200 62 l-46 19 42 74 c23 41 48 81 55 90 32 38
-31 71 -94 48z"/>
<path d="M240 764 c-30 -8 -79 -14 -108 -15 -50 -1 -53 -3 -47 -23 13 -44 17
-163 7 -229 -13 -83 -8 -100 27 -94 175 31 173 31 182 16 11 -16 3 -145 -11
-199 -17 -61 -24 -66 -69 -54 -23 6 -41 8 -41 5 1 -3 19 -26 40 -51 33 -37 43
-43 57 -34 32 19 53 79 68 195 8 62 18 121 21 131 7 24 -38 51 -76 46 -29 -4
-30 -3 -30 33 0 36 2 38 40 44 51 9 51 23 -1 31 -36 6 -40 9 -37 33 2 21 9 27
36 31 45 7 45 24 0 28 -36 3 -38 5 -38 38 0 29 3 34 24 34 14 0 37 5 53 11 27
10 27 11 9 25 -23 16 -33 16 -106 -2z m-25 -75 c8 -37 7 -38 -39 -46 l-36 -6
0 39 c0 37 2 39 34 41 31 1 35 -2 41 -28z m3 -103 c-3 -28 -7 -31 -40 -34 -37
-3 -38 -2 -38 30 0 32 2 33 41 34 39 0 40 -1 37 -30z m2 -101 c0 -27 -4 -35
-17 -35 -10 0 -28 -3 -40 -6 -21 -6 -23 -3 -23 35 l0 41 40 0 c39 0 40 -1 40
-35z"/>
<path d="M505 680 c33 -35 55 -39 55 -10 0 22 -28 40 -61 40 -22 0 -22 -1 6
-30z"/>
<path d="M370 608 c0 -22 46 -72 58 -64 16 9 15 41 0 54 -24 18 -58 24 -58 10z"/>
<path d="M504 484 c22 -58 21 -61 -38 -68 -31 -4 -60 -5 -66 -1 -23 14 -30 -7
-10 -32 11 -14 20 -31 20 -37 0 -6 5 -27 10 -47 10 -34 11 -35 57 -35 l48 1 0
-45 c0 -42 -1 -45 -35 -52 -19 -5 -61 -9 -92 -9 -32 -1 -58 -4 -58 -8 0 -11
45 -51 56 -51 6 0 73 20 149 45 76 25 139 44 139 43 27 -54 80 -107 94 -93 12
11 2 70 -16 94 -19 25 -121 86 -129 77 -3 -2 3 -15 12 -29 15 -24 15 -25 -16
-36 -53 -18 -59 -15 -59 33 l0 44 61 7 c42 5 58 10 50 18 -12 12 0 39 31 74
23 25 18 37 -21 57 -20 11 -38 12 -67 6 -55 -13 -57 -13 -50 15 7 27 -15 45
-54 45 -16 0 -20 -4 -16 -16z m141 -84 c10 -16 -15 -80 -30 -80 -7 0 -20 -3
-29 -6 -13 -5 -16 2 -16 39 0 27 5 47 13 50 22 9 56 7 62 -3z m-125 -55 c0
-43 -1 -45 -30 -45 -26 0 -30 4 -36 36 -7 40 4 54 44 54 20 0 22 -5 22 -45z"/>
<path d="M230 374 c0 -15 36 -64 47 -64 21 0 15 48 -6 60 -22 11 -41 13 -41 4z"/>
<path d="M30 345 c0 -8 -7 -30 -16 -49 -19 -38 -12 -86 11 -86 8 0 17 12 21
28 3 15 8 35 11 45 6 23 -6 77 -18 77 -5 0 -9 -7 -9 -15z"/>
<path d="M167 328 c19 -33 43 -43 50 -21 5 15 -32 53 -53 53 -14 0 -13 -4 3
-32z"/>
<path d="M80 345 c0 -18 42 -85 50 -80 16 10 11 57 -7 71 -18 14 -43 19 -43 9z"/>
</g>
</svg>
