<?xml version="1.0" standalone="no"?>
<!DOCTYPE svg PUBLIC "-//W3C//DTD SVG 20010904//EN"
 "http://www.w3.org/TR/2001/REC-SVG-20010904/DTD/svg10.dtd">
<svg version="1.0" xmlns="http://www.w3.org/2000/svg"
 width="96.000000pt" height="68.000000pt" viewBox="0 0 96.000000 68.000000"
 preserveAspectRatio="xMidYMid meet">
<metadata>
Created by potrace 1.16, written by Peter Selinger 2001-2019
</metadata>
<g transform="translate(0.000000,68.000000) scale(0.100000,-0.100000)"
fill="#000000" stroke="none">
<path d="M470 491 c0 -57 24 -71 123 -71 58 0 78 3 75 13 -3 8 -31 13 -83 15
l-77 3 6 39 c6 38 5 40 -19 40 -22 0 -25 -4 -25 -39z"/>
<path d="M341 496 c-5 -12 -31 -42 -58 -64 -53 -46 -39 -58 21 -17 99 67 114
86 80 99 -26 10 -34 7 -43 -18z"/>
</g>
</svg>
