<?xml version="1.0" standalone="no"?>
<!DOCTYPE svg PUBLIC "-//W3C//DTD SVG 20010904//EN"
 "http://www.w3.org/TR/2001/REC-SVG-20010904/DTD/svg10.dtd">
<svg version="1.0" xmlns="http://www.w3.org/2000/svg"
 width="96.000000pt" height="68.000000pt" viewBox="0 0 96.000000 68.000000"
 preserveAspectRatio="xMidYMid meet">
<metadata>
Created by potrace 1.16, written by Peter Selinger 2001-2019
</metadata>
<g transform="translate(0.000000,68.000000) scale(0.100000,-0.100000)"
fill="#000000" stroke="none">
<path d="M370 627 c0 -5 9 -22 21 -39 12 -16 19 -32 16 -35 -4 -3 -47 -8 -97
-11 -64 -3 -90 -1 -90 7 0 27 -28 7 -48 -34 -29 -60 -29 -85 1 -85 17 0 28 10
40 35 10 20 24 35 34 35 10 0 35 3 56 6 32 6 37 4 37 -12 0 -17 -25 -43 -85
-88 -14 -11 -16 -15 -6 -16 19 0 101 53 131 85 21 22 22 28 10 35 -11 7 -7 10
17 10 17 0 38 3 47 6 13 5 16 -1 16 -34 0 -57 29 -74 123 -70 44 2 70 7 67 13
-5 10 -28 12 -114 14 l-39 1 6 37 c8 45 19 53 80 53 51 0 55 -4 30 -32 -24
-27 -13 -30 53 -15 70 16 80 36 32 65 -35 22 -35 22 -215 -2 -23 -3 -30 -1
-27 8 8 20 -33 63 -66 68 -16 3 -30 0 -30 -5z"/>
<path d="M452 263 c-2 -78 2 -138 9 -154 19 -47 66 -61 185 -57 90 3 106 6
125 25 21 21 21 23 5 56 -9 19 -16 40 -16 47 0 22 -17 0 -23 -29 -11 -51 -30
-61 -120 -61 -108 0 -127 12 -127 81 0 27 5 49 10 49 6 0 35 -18 64 -40 61
-46 76 -49 76 -15 0 27 -25 44 -98 66 -23 7 -41 17 -39 22 1 5 34 21 72 35 75
29 89 46 53 62 -21 10 -29 6 -67 -29 -25 -23 -48 -41 -52 -41 -5 0 -6 21 -2
46 6 47 -3 64 -37 64 -12 0 -15 -22 -18 -127z"/>
<path d="M328 301 c2 -38 2 -85 -2 -105 -8 -44 -64 -101 -123 -127 -24 -10
-43 -21 -43 -24 0 -9 53 7 105 32 78 37 102 84 119 234 5 42 3 47 -17 53 -43
11 -45 9 -39 -63z"/>
<path d="M210 322 c0 -17 52 -62 71 -62 11 0 19 5 19 10 0 13 -37 50 -49 50
-5 0 -16 3 -25 6 -9 3 -16 2 -16 -4z"/>
<path d="M223 197 c-40 -11 -73 -23 -73 -27 0 -4 10 -12 23 -19 20 -11 30 -8
81 23 90 54 87 56 -31 23z"/>
</g>
</svg>
