<?xml version="1.0" standalone="no"?>
<!DOCTYPE svg PUBLIC "-//W3C//DTD SVG 20010904//EN"
 "http://www.w3.org/TR/2001/REC-SVG-20010904/DTD/svg10.dtd">
<svg version="1.0" xmlns="http://www.w3.org/2000/svg"
 width="96.000000pt" height="68.000000pt" viewBox="0 0 96.000000 68.000000"
 preserveAspectRatio="xMidYMid meet">
<metadata>
Created by potrace 1.16, written by Peter Selinger 2001-2019
</metadata>
<g transform="translate(0.000000,68.000000) scale(0.100000,-0.100000)"
fill="#000000" stroke="none">
<path d="M558 530 l4 -80 -43 0 c-24 0 -51 -5 -59 -10 -11 -7 2 -10 43 -10
l57 0 0 -39 c0 -35 -3 -39 -31 -45 -17 -3 -51 -6 -75 -6 -43 0 -59 -15 -29
-27 9 -3 57 0 108 6 51 6 127 12 170 13 43 1 83 6 90 10 25 16 -9 23 -100 21
l-95 -3 6 38 c3 20 5 38 6 40 0 1 11 2 24 2 46 0 86 13 86 27 0 12 -11 13 -57
7 l-56 -7 6 66 c6 68 2 77 -41 77 -15 0 -17 -10 -14 -80z"/>
<path d="M247 588 c-2 -7 -1 -22 4 -33 4 -11 8 -45 8 -77 l1 -56 -75 -7 c-54
-5 -75 -11 -75 -21 0 -11 16 -14 65 -14 36 0 65 -4 65 -8 0 -17 -79 -128 -118
-167 -23 -22 -41 -43 -42 -47 -1 -33 115 51 151 108 12 19 23 34 24 32 1 -2
-2 -51 -7 -110 -12 -121 -7 -158 21 -158 26 0 31 19 31 120 0 48 3 102 6 119
l7 32 28 -27 c21 -20 32 -25 40 -17 19 19 5 47 -34 68 -29 16 -37 26 -37 48 0
22 4 27 24 27 14 0 37 5 52 10 38 15 16 35 -36 33 l-39 -2 6 63 c5 58 4 64
-18 80 -28 19 -45 21 -52 4z"/>
<path d="M557 261 l6 -41 -42 -1 c-54 -2 -58 -3 -67 -11 -4 -5 18 -8 49 -8 56
0 56 0 63 -34 3 -19 3 -39 0 -44 -3 -5 -49 -13 -101 -17 -52 -4 -95 -11 -95
-15 0 -14 66 -23 108 -15 20 4 111 10 201 14 166 6 206 17 142 39 -16 6 -31 9
-33 7 -1 -1 -42 -6 -90 -10 l-88 -7 0 40 c0 43 12 51 75 52 17 0 37 5 45 10
23 15 -8 32 -45 24 -54 -12 -59 -10 -65 21 -4 25 -10 31 -37 33 -31 3 -31 3
-26 -37z"/>
</g>
</svg>
