<?xml version="1.0" standalone="no"?>
<!DOCTYPE svg PUBLIC "-//W3C//DTD SVG 20010904//EN"
 "http://www.w3.org/TR/2001/REC-SVG-20010904/DTD/svg10.dtd">
<svg version="1.0" xmlns="http://www.w3.org/2000/svg"
 width="96.000000pt" height="68.000000pt" viewBox="0 0 96.000000 68.000000"
 preserveAspectRatio="xMidYMid meet">
<metadata>
Created by potrace 1.16, written by Peter Selinger 2001-2019
</metadata>
<g transform="translate(0.000000,68.000000) scale(0.100000,-0.100000)"
fill="#000000" stroke="none">
<path d="M555 533 l0 -78 -45 -3 c-69 -5 -74 -22 -7 -22 l57 0 0 -39 0 -40
-57 -6 c-32 -4 -69 -10 -83 -15 l-25 -8 27 -7 c15 -4 64 -2 109 4 45 6 112 12
148 12 36 1 80 4 96 8 l30 7 -23 13 c-17 9 -46 10 -103 5 -73 -6 -79 -5 -79
12 1 51 10 61 68 70 71 11 66 30 -7 26 l-53 -3 3 68 4 68 -30 3 -30 3 0 -78z"/>
</g>
</svg>
