<?xml version="1.0" standalone="no"?>
<!DOCTYPE svg PUBLIC "-//W3C//DTD SVG 20010904//EN"
 "http://www.w3.org/TR/2001/REC-SVG-20010904/DTD/svg10.dtd">
<svg version="1.0" xmlns="http://www.w3.org/2000/svg"
 width="96.000000pt" height="68.000000pt" viewBox="0 0 96.000000 68.000000"
 preserveAspectRatio="xMidYMid meet">
<metadata>
Created by potrace 1.16, written by Peter Selinger 2001-2019
</metadata>
<g transform="translate(0.000000,68.000000) scale(0.100000,-0.100000)"
fill="#000000" stroke="none">
<path d="M257 506 l6 -84 -44 -7 c-114 -17 -118 -20 -41 -25 l73 -5 -25 -50
c-14 -27 -53 -80 -87 -117 -33 -38 -56 -68 -51 -68 20 0 93 62 133 112 l42 53
-9 -95 c-11 -127 -10 -168 5 -182 10 -11 15 -9 27 6 10 15 14 53 14 150 l0
131 31 -32 c31 -34 44 -40 53 -24 11 18 -6 39 -45 56 -31 15 -39 23 -39 45 0
24 5 28 46 36 56 11 58 29 2 28 l-41 -1 7 68 c5 61 4 69 -13 79 -45 23 -49 16
-44 -74z"/>
</g>
</svg>
