<?xml version="1.0" standalone="no"?>
<!DOCTYPE svg PUBLIC "-//W3C//DTD SVG 20010904//EN"
 "http://www.w3.org/TR/2001/REC-SVG-20010904/DTD/svg10.dtd">
<svg version="1.0" xmlns="http://www.w3.org/2000/svg"
 width="96.000000pt" height="68.000000pt" viewBox="0 0 96.000000 68.000000"
 preserveAspectRatio="xMidYMid meet">
<metadata>
Created by potrace 1.16, written by Peter Selinger 2001-2019
</metadata>
<g transform="translate(0.000000,68.000000) scale(0.100000,-0.100000)"
fill="#000000" stroke="none">
<path d="M455 529 c-16 -6 -48 -8 -71 -5 l-40 5 -1 -67 c-1 -73 -22 -138 -61
-190 -35 -48 -20 -50 26 -4 24 24 44 57 53 85 13 44 15 47 49 47 62 0 109 11
104 25 -3 7 4 29 16 50 32 57 3 79 -75 54z m30 -51 c-9 -43 -12 -46 -64 -54
-39 -6 -44 -5 -38 10 4 10 7 28 7 41 0 24 14 31 73 34 27 1 28 -1 22 -31z"/>
</g>
</svg>
