<?xml version="1.0" standalone="no"?>
<!DOCTYPE svg PUBLIC "-//W3C//DTD SVG 20010904//EN"
 "http://www.w3.org/TR/2001/REC-SVG-20010904/DTD/svg10.dtd">
<svg version="1.0" xmlns="http://www.w3.org/2000/svg"
 width="90.000000pt" height="92.000000pt" viewBox="0 0 90.000000 92.000000"
 preserveAspectRatio="xMidYMid meet">
<metadata>
Created by potrace 1.16, written by Peter Selinger 2001-2019
</metadata>
<g transform="translate(0.000000,92.000000) scale(0.100000,-0.100000)"
fill="#000000" stroke="none">
<path d="M580 838 c0 -29 -4 -59 -9 -67 -5 -7 -29 -16 -55 -18 -26 -3 -49 -9
-52 -14 -8 -13 36 -31 67 -27 16 3 29 4 29 3 0 -1 -9 -28 -20 -60 -32 -92 -8
-83 41 15 12 25 24 47 26 50 2 2 41 7 85 10 91 6 111 22 56 45 -25 10 -45 11
-73 5 -22 -5 -41 -7 -44 -4 -3 2 3 20 12 39 16 33 16 35 -5 55 -12 11 -30 20
-40 20 -15 0 -18 -9 -18 -52z"/>
<path d="M230 841 c0 -5 9 -30 21 -56 11 -25 18 -49 16 -52 -3 -2 -37 -5 -76
-6 -80 -2 -89 -13 -41 -47 29 -21 32 -21 71 -6 57 23 64 21 77 -29 7 -25 16
-45 22 -45 11 0 13 7 14 69 1 41 3 45 35 56 55 18 53 38 -3 30 l-45 -7 -7 41
c-4 25 -14 46 -25 51 -22 12 -59 13 -59 1z"/>
<path d="M396 591 c-4 -5 -2 -21 4 -36 5 -14 10 -104 10 -199 l0 -173 -52 -7
c-98 -11 -90 -21 -87 112 3 115 2 117 -22 129 -13 7 -29 13 -36 13 -17 0 -26
-19 -15 -33 6 -7 13 -63 17 -124 l8 -113 -82 0 c-62 0 -81 -3 -81 -14 0 -7 14
-19 31 -27 26 -10 53 -10 148 0 64 7 221 15 349 18 190 5 232 9 232 20 0 8
-19 22 -42 33 -35 15 -54 16 -103 10 -33 -4 -95 -11 -138 -14 l-78 -7 3 88 3
87 112 16 c61 8 115 18 119 22 13 14 -19 38 -50 38 -17 -1 -58 -7 -91 -15 -93
-23 -88 -27 -83 71 l5 86 -33 14 c-39 17 -41 17 -48 5z"/>
</g>
</svg>
