<?xml version="1.0" standalone="no"?>
<!DOCTYPE svg PUBLIC "-//W3C//DTD SVG 20010904//EN"
 "http://www.w3.org/TR/2001/REC-SVG-20010904/DTD/svg10.dtd">
<svg version="1.0" xmlns="http://www.w3.org/2000/svg"
 width="90.000000pt" height="92.000000pt" viewBox="0 0 90.000000 92.000000"
 preserveAspectRatio="xMidYMid meet">
<metadata>
Created by potrace 1.16, written by Peter Selinger 2001-2019
</metadata>
<g transform="translate(0.000000,92.000000) scale(0.100000,-0.100000)"
fill="#000000" stroke="none">
<path d="M437 834 c-3 -4 -2 -15 4 -25 5 -11 9 -52 7 -92 l-3 -72 -64 -10
c-36 -6 -66 -16 -68 -22 -6 -17 40 -26 92 -19 l45 7 -1 -58 c-1 -108 -10 -135
-49 -149 -65 -23 -70 -20 -63 37 5 43 3 54 -12 65 -32 24 -40 16 -40 -38 -1
-29 -4 -66 -9 -83 -5 -20 -3 -36 6 -47 12 -17 17 -16 72 12 85 43 86 42 86
-42 0 -83 24 -147 63 -173 64 -41 259 -39 332 4 34 20 35 30 15 126 -19 91
-22 94 -36 36 -7 -30 -21 -66 -32 -80 -35 -47 -126 -63 -222 -38 -57 15 -70
40 -70 139 l0 76 50 11 c69 15 67 16 66 -26 -1 -27 4 -38 15 -41 19 -3 34 29
49 103 5 28 12 60 16 72 5 18 0 25 -30 40 -47 22 -58 11 -43 -44 6 -23 8 -45
5 -48 -8 -8 -122 -35 -127 -30 -2 2 0 45 4 95 7 87 8 90 34 96 42 9 94 26 114
36 15 7 16 12 6 24 -15 18 -46 18 -99 -1 l-43 -15 6 47 c4 27 9 58 13 70 4 16
0 25 -18 36 -30 19 -63 29 -71 21z"/>
<path d="M110 732 c0 -14 101 -112 116 -112 22 0 38 39 25 66 -13 30 -141 71
-141 46z"/>
<path d="M30 532 c0 -5 19 -32 43 -58 31 -34 48 -46 60 -41 27 10 22 63 -7 82
-30 20 -96 32 -96 17z"/>
<path d="M170 365 c-24 -43 -59 -96 -77 -116 -33 -36 -34 -40 -23 -76 7 -21
18 -46 25 -57 15 -19 35 -14 35 10 0 8 21 78 46 154 25 77 44 145 42 152 -3 7
-24 -23 -48 -67z"/>
</g>
</svg>
