<?xml version="1.0" standalone="no"?>
<!DOCTYPE svg PUBLIC "-//W3C//DTD SVG 20010904//EN"
 "http://www.w3.org/TR/2001/REC-SVG-20010904/DTD/svg10.dtd">
<svg version="1.0" xmlns="http://www.w3.org/2000/svg"
 width="90.000000pt" height="92.000000pt" viewBox="0 0 90.000000 92.000000"
 preserveAspectRatio="xMidYMid meet">
<metadata>
Created by potrace 1.16, written by Peter Selinger 2001-2019
</metadata>
<g transform="translate(0.000000,92.000000) scale(0.100000,-0.100000)"
fill="#000000" stroke="none">
<path d="M245 809 c-43 -12 -83 -17 -104 -13 -32 6 -34 6 -28 -18 10 -37 27
-159 27 -189 0 -23 -5 -28 -33 -32 -17 -2 -35 0 -39 6 -7 12 -17 -8 -39 -81
-9 -32 -9 -46 -1 -54 18 -18 40 7 49 55 l9 42 104 22 c58 12 122 22 144 22 33
1 37 -2 31 -16 -22 -53 -19 -55 34 -22 28 18 51 35 51 38 0 12 -58 41 -83 41
l-25 0 19 85 c10 47 21 90 24 95 7 11 -34 40 -55 39 -8 -1 -46 -10 -85 -20z
m75 -48 c0 -24 -5 -29 -31 -35 -17 -3 -41 -6 -53 -6 -21 0 -22 -4 -22 -72 1
-59 -2 -73 -15 -76 -14 -3 -18 11 -24 88 -4 50 -4 94 0 98 8 8 91 29 123 31
18 1 22 -4 22 -28z m-9 -111 c-4 -56 -6 -60 -37 -60 -24 0 -25 3 -21 46 3 46
19 66 47 61 11 -2 14 -13 11 -47z"/>
<path d="M516 776 c-4 -24 -22 -75 -41 -115 -30 -61 -32 -70 -14 -61 15 9 26
7 48 -9 56 -40 56 -44 3 -108 -27 -32 -70 -77 -95 -100 -26 -24 -41 -43 -34
-43 24 1 113 64 162 115 l49 52 62 -66 c58 -62 64 -66 105 -66 57 1 119 14
119 24 0 5 -12 12 -27 16 -39 9 -183 80 -212 103 l-24 19 43 64 c24 35 52 74
63 86 l19 22 -32 20 c-29 17 -37 18 -59 7 -35 -18 -101 -36 -101 -28 0 4 10
23 21 42 l21 34 -22 18 c-35 28 -47 22 -54 -26z m124 -92 c0 -4 -14 -31 -31
-60 l-31 -54 -28 24 c-16 13 -35 26 -42 28 -10 4 -8 11 5 31 16 25 23 27 110
35 9 1 17 -1 17 -4z"/>
<path d="M240 489 c-36 -10 -78 -15 -94 -12 -26 5 -28 3 -20 -13 5 -11 9 -60
8 -109 -1 -94 -20 -172 -56 -232 -11 -18 -16 -33 -11 -33 24 0 93 109 93 146
0 16 1 16 18 1 26 -24 31 -22 79 22 47 44 52 40 43 -44 -5 -51 -7 -53 -49 -40
-22 7 -21 3 14 -39 20 -25 43 -46 50 -46 24 0 35 63 34 201 0 75 3 147 6 162
6 21 2 28 -22 39 -24 12 -37 12 -93 -3z m58 -67 l3 -41 -35 14 c-19 8 -47 15
-61 15 -48 0 -23 40 31 50 55 11 59 8 62 -38z m-77 -53 c19 -13 39 -19 55 -16
20 3 24 0 24 -18 0 -18 -13 -28 -61 -50 -33 -15 -62 -25 -65 -23 -5 6 7 128
13 128 3 0 18 -9 34 -21z"/>
<path d="M600 339 c-52 -12 -101 -16 -127 -13 -45 7 -49 4 -33 -26 5 -10 15
-52 21 -93 13 -89 23 -110 42 -86 10 13 38 19 120 24 98 7 123 14 98 29 -9 6
23 103 40 121 5 5 9 12 9 16 0 9 -64 49 -76 48 -5 -1 -47 -10 -94 -20z m74
-38 c4 -5 1 -32 -5 -60 -12 -55 -13 -56 -101 -66 l-56 -6 -7 56 c-4 31 -5 59
-1 62 17 17 161 28 170 14z"/>
</g>
</svg>
