<?xml version="1.0" standalone="no"?>
<!DOCTYPE svg PUBLIC "-//W3C//DTD SVG 20010904//EN"
 "http://www.w3.org/TR/2001/REC-SVG-20010904/DTD/svg10.dtd">
<svg version="1.0" xmlns="http://www.w3.org/2000/svg"
 width="96.000000pt" height="68.000000pt" viewBox="0 0 96.000000 68.000000"
 preserveAspectRatio="xMidYMid meet">
<metadata>
Created by potrace 1.16, written by Peter Selinger 2001-2019
</metadata>
<g transform="translate(0.000000,68.000000) scale(0.100000,-0.100000)"
fill="#000000" stroke="none">
<path d="M339 331 c11 -7 13 -35 9 -144 -4 -104 -2 -137 7 -141 12 -4 163 102
164 115 1 3 -25 -7 -56 -22 -32 -16 -62 -29 -67 -29 -5 0 -7 51 -5 113 l4 112
-35 3 c-24 2 -31 0 -21 -7z"/>
<path d="M627 285 c-21 -25 -41 -45 -46 -45 -4 0 -23 14 -41 30 -18 17 -43 30
-54 30 -11 0 -16 -4 -10 -8 5 -4 57 -54 115 -110 116 -110 120 -112 222 -96
46 8 48 20 5 29 -65 15 -164 57 -198 85 l-35 29 68 31 c70 33 75 38 55 58 -22
22 -43 13 -81 -33z"/>
</g>
</svg>
