<?xml version="1.0" standalone="no"?>
<!DOCTYPE svg PUBLIC "-//W3C//DTD SVG 20010904//EN"
 "http://www.w3.org/TR/2001/REC-SVG-20010904/DTD/svg10.dtd">
<svg version="1.0" xmlns="http://www.w3.org/2000/svg"
 width="96.000000pt" height="68.000000pt" viewBox="0 0 96.000000 68.000000"
 preserveAspectRatio="xMidYMid meet">
<metadata>
Created by potrace 1.16, written by Peter Selinger 2001-2019
</metadata>
<g transform="translate(0.000000,68.000000) scale(0.100000,-0.100000)"
fill="#000000" stroke="none">
<path d="M330 591 c0 -28 -81 -131 -133 -170 -26 -19 -45 -36 -43 -38 7 -7 79
27 112 52 18 14 35 25 39 25 3 0 3 -37 0 -82 -4 -50 -2 -89 4 -98 21 -31 33 8
37 121 4 104 6 115 29 139 30 31 31 46 6 60 -30 16 -51 12 -51 -9z"/>
</g>
</svg>
