<?xml version="1.0" standalone="no"?>
<!DOCTYPE svg PUBLIC "-//W3C//DTD SVG 20010904//EN"
 "http://www.w3.org/TR/2001/REC-SVG-20010904/DTD/svg10.dtd">
<svg version="1.0" xmlns="http://www.w3.org/2000/svg"
 width="96.000000pt" height="68.000000pt" viewBox="0 0 96.000000 68.000000"
 preserveAspectRatio="xMidYMid meet">
<metadata>
Created by potrace 1.16, written by Peter Selinger 2001-2019
</metadata>
<g transform="translate(0.000000,68.000000) scale(0.100000,-0.100000)"
fill="#000000" stroke="none">
<path d="M591 198 c-1 -10 6 -18 14 -18 8 0 15 -4 15 -10 0 -5 5 -10 10 -10 7
0 7 7 0 20 -6 11 -15 18 -20 15 -4 -3 -11 1 -13 7 -3 8 -6 6 -6 -4z"/>
<path d="M680 203 c0 -11 33 -43 43 -43 4 0 7 5 7 11 0 5 -5 7 -12 3 -8 -5 -9
-2 -4 12 4 10 4 15 0 11 -4 -4 -13 -2 -21 4 -7 7 -13 7 -13 2z"/>
<path d="M517 181 c2 -10 10 -18 18 -18 16 0 9 23 -10 30 -8 4 -11 -1 -8 -12z"/>
<path d="M432 160 c-25 -40 -19 -70 8 -45 22 20 30 48 20 66 -6 9 -14 3 -28
-21z"/>
</g>
</svg>
