<?xml version="1.0" standalone="no"?>
<!DOCTYPE svg PUBLIC "-//W3C//DTD SVG 20010904//EN"
 "http://www.w3.org/TR/2001/REC-SVG-20010904/DTD/svg10.dtd">
<svg version="1.0" xmlns="http://www.w3.org/2000/svg"
 width="96.000000pt" height="68.000000pt" viewBox="0 0 96.000000 68.000000"
 preserveAspectRatio="xMidYMid meet">
<metadata>
Created by potrace 1.16, written by Peter Selinger 2001-2019
</metadata>
<g transform="translate(0.000000,68.000000) scale(0.100000,-0.100000)"
fill="#000000" stroke="none">
<path d="M205 494 c-27 -7 -59 -14 -70 -14 -19 0 -20 -7 -20 -135 0 -118 2
-135 16 -135 10 0 20 11 23 25 5 21 13 25 46 27 22 0 46 1 53 2 6 1 13 -9 15
-21 2 -16 10 -23 26 -23 22 0 22 1 22 135 -1 130 -2 134 -24 145 -27 12 -23
12 -87 -6z m65 -69 c0 -36 -3 -45 -17 -45 -10 0 -35 -3 -55 -6 l-38 -7 0 46
c0 51 5 55 68 56 l42 1 0 -45z m0 -106 c0 -34 -3 -39 -17 -35 -10 3 -35 1 -55
-3 l-38 -9 0 38 c0 36 2 39 33 43 79 10 77 11 77 -34z"/>
</g>
</svg>
