<?xml version="1.0" standalone="no"?>
<!DOCTYPE svg PUBLIC "-//W3C//DTD SVG 20010904//EN"
 "http://www.w3.org/TR/2001/REC-SVG-20010904/DTD/svg10.dtd">
<svg version="1.0" xmlns="http://www.w3.org/2000/svg"
 width="90.000000pt" height="92.000000pt" viewBox="0 0 90.000000 92.000000"
 preserveAspectRatio="xMidYMid meet">
<metadata>
Created by potrace 1.16, written by Peter Selinger 2001-2019
</metadata>
<g transform="translate(0.000000,92.000000) scale(0.100000,-0.100000)"
fill="#000000" stroke="none">
<path d="M375 800 c-3 -6 7 -35 23 -65 29 -54 30 -55 9 -55 -12 0 -76 -7 -142
-15 -66 -8 -144 -15 -173 -15 -60 0 -66 -15 -16 -39 25 -13 41 -12 129 4 70
12 169 19 331 23 127 2 237 8 244 12 17 10 5 27 -32 46 -31 16 -86 14 -245
-12 -31 -5 -32 -4 -35 38 -3 39 -7 45 -45 66 -26 14 -44 19 -48 12z"/>
<path d="M383 542 c-104 -15 -133 -32 -77 -46 24 -6 231 11 247 21 14 8 7 22
-15 28 -42 12 -53 12 -155 -3z"/>
<path d="M388 422 c-109 -16 -140 -33 -79 -47 28 -6 228 10 256 21 23 9 18 23
-12 30 -51 11 -57 11 -165 -4z"/>
<path d="M390 299 c-74 -9 -139 -18 -144 -18 -5 -1 -2 -9 7 -18 8 -10 20 -47
27 -83 6 -36 16 -75 21 -88 10 -24 29 -30 29 -8 0 11 28 16 128 21 70 4 131 9
135 12 4 3 3 11 -3 18 -11 14 14 69 48 108 16 18 15 21 -16 48 -38 34 -41 34
-232 8z m152 -69 c-7 -75 -8 -76 -133 -86 l-76 -7 -6 33 c-12 59 -9 79 16 84
12 3 31 7 42 10 11 2 52 3 90 3 l70 -2 -3 -35z"/>
</g>
</svg>
