<?xml version="1.0" standalone="no"?>
<!DOCTYPE svg PUBLIC "-//W3C//DTD SVG 20010904//EN"
 "http://www.w3.org/TR/2001/REC-SVG-20010904/DTD/svg10.dtd">
<svg version="1.0" xmlns="http://www.w3.org/2000/svg"
 width="96.000000pt" height="68.000000pt" viewBox="0 0 96.000000 68.000000"
 preserveAspectRatio="xMidYMid meet">
<metadata>
Created by potrace 1.16, written by Peter Selinger 2001-2019
</metadata>
<g transform="translate(0.000000,68.000000) scale(0.100000,-0.100000)"
fill="#000000" stroke="none">
<path d="M245 553 c-3 -16 -29 -58 -56 -95 -27 -38 -45 -68 -40 -68 4 0 28 17
52 39 34 29 55 39 92 43 26 3 47 2 47 -1 0 -4 -16 -26 -36 -49 -26 -30 -31
-42 -19 -42 19 0 143 100 144 117 2 22 -47 26 -99 7 -59 -21 -73 -14 -39 22
24 25 24 26 5 40 -29 21 -43 17 -51 -13z"/>
</g>
</svg>
