<?xml version="1.0" standalone="no"?>
<!DOCTYPE svg PUBLIC "-//W3C//DTD SVG 20010904//EN"
 "http://www.w3.org/TR/2001/REC-SVG-20010904/DTD/svg10.dtd">
<svg version="1.0" xmlns="http://www.w3.org/2000/svg"
 width="90.000000pt" height="92.000000pt" viewBox="0 0 90.000000 92.000000"
 preserveAspectRatio="xMidYMid meet">
<metadata>
Created by potrace 1.16, written by Peter Selinger 2001-2019
</metadata>
<g transform="translate(0.000000,92.000000) scale(0.100000,-0.100000)"
fill="#000000" stroke="none">
<path d="M595 818 c3 -18 9 -76 12 -129 l5 -96 -146 -23 c-80 -13 -146 -27
-146 -31 0 -5 9 -13 20 -19 15 -8 46 -5 121 10 56 11 113 20 128 20 l26 0 -6
-177 c-4 -98 -7 -184 -8 -190 -1 -15 -43 -17 -89 -4 -17 5 -32 8 -32 7 0 -7
136 -146 143 -146 3 0 14 15 24 33 15 28 18 62 18 254 0 122 4 225 8 229 4 5
40 10 80 12 124 5 145 17 85 48 -26 14 -40 14 -86 5 -31 -6 -61 -11 -69 -11
-18 0 -17 51 2 123 8 32 15 62 15 68 0 14 -62 49 -89 49 -21 0 -23 -3 -16 -32z"/>
<path d="M185 647 c-30 -16 -55 -22 -98 -20 -31 1 -57 0 -57 -1 0 -2 6 -16 14
-32 8 -16 19 -73 25 -126 5 -54 13 -102 16 -108 10 -17 25 -11 25 9 0 15 12
21 63 30 35 6 71 11 80 11 9 0 17 5 17 10 0 6 -4 10 -10 10 -16 0 -12 42 11
106 30 86 32 99 17 111 -26 22 -63 22 -103 0z m31 -77 c-3 -22 -9 -58 -12 -80
-5 -36 -10 -41 -45 -51 -21 -7 -41 -10 -43 -8 -3 2 -8 38 -12 79 l-6 75 33 11
c19 6 47 12 62 13 28 1 29 0 23 -39z"/>
<path d="M390 439 c47 -91 102 -117 108 -52 4 37 -23 60 -83 70 -37 6 -37 6
-25 -18z"/>
</g>
</svg>
