<?xml version="1.0" standalone="no"?>
<!DOCTYPE svg PUBLIC "-//W3C//DTD SVG 20010904//EN"
 "http://www.w3.org/TR/2001/REC-SVG-20010904/DTD/svg10.dtd">
<svg version="1.0" xmlns="http://www.w3.org/2000/svg"
 width="90.000000pt" height="92.000000pt" viewBox="0 0 90.000000 92.000000"
 preserveAspectRatio="xMidYMid meet">
<metadata>
Created by potrace 1.16, written by Peter Selinger 2001-2019
</metadata>
<g transform="translate(0.000000,92.000000) scale(0.100000,-0.100000)"
fill="#000000" stroke="none">
<path d="M437 871 c-33 -22 -87 -50 -120 -63 -46 -17 -56 -24 -39 -26 12 -2
44 3 72 11 53 16 60 11 60 -33 0 -23 -9 -26 -145 -41 -60 -6 -114 -15 -119
-20 -5 -4 3 -13 18 -20 21 -10 44 -10 107 0 76 12 107 9 83 -7 -6 -4 -30 -23
-55 -43 -24 -20 -78 -58 -119 -84 -48 -30 -65 -45 -47 -41 68 16 137 50 204
100 l73 55 -3 -55 c-1 -32 -7 -54 -13 -54 -7 0 -15 -15 -18 -34 -11 -56 -142
-164 -293 -241 -75 -38 -67 -45 18 -16 106 36 231 111 284 171 38 42 52 43 98
10 23 -16 77 -59 120 -94 99 -81 106 -82 245 -51 32 8 27 22 -10 30 -89 19
-193 60 -267 104 -46 28 -92 53 -103 57 -11 3 -17 8 -14 11 3 4 2 11 -2 17
-11 14 -3 156 8 156 5 0 30 -16 56 -37 79 -60 135 -92 150 -86 21 8 17 50 -8
72 -20 20 -109 53 -176 66 -59 12 -24 22 98 30 66 4 122 11 125 15 3 5 -6 17
-21 26 -24 17 -34 17 -131 3 l-104 -15 6 24 c3 13 1 30 -6 38 -9 11 -6 16 16
24 14 5 32 10 40 10 24 0 45 12 45 25 0 10 -41 46 -52 45 -2 0 -29 -18 -61
-39z"/>
<path d="M394 394 c12 -56 18 -209 9 -249 -9 -39 -11 -40 -47 -38 l-38 3 29
-34 c15 -18 33 -41 40 -52 11 -18 12 -18 39 8 l28 27 -1 166 c0 91 -4 170 -9
174 -5 5 -20 12 -33 16 -22 7 -23 5 -17 -21z"/>
<path d="M540 334 c-6 -15 -20 -40 -31 -55 l-20 -29 23 9 c106 42 113 52 62
86 -23 15 -25 15 -34 -11z"/>
<path d="M260 312 c0 -15 70 -74 83 -69 15 4 22 46 10 58 -13 13 -93 23 -93
11z"/>
<path d="M327 211 c-15 -10 -60 -29 -100 -42 -40 -13 -74 -25 -76 -26 -6 -4
40 -53 49 -53 13 0 160 120 160 130 0 12 1 13 -33 -9z"/>
<path d="M550 162 c46 -44 84 -71 98 -72 26 0 27 10 7 50 -15 28 -88 70 -150
86 -26 6 -20 -2 45 -64z"/>
</g>
</svg>
