<?xml version="1.0" standalone="no"?>
<!DOCTYPE svg PUBLIC "-//W3C//DTD SVG 20010904//EN"
 "http://www.w3.org/TR/2001/REC-SVG-20010904/DTD/svg10.dtd">
<svg version="1.0" xmlns="http://www.w3.org/2000/svg"
 width="90.000000pt" height="92.000000pt" viewBox="0 0 90.000000 92.000000"
 preserveAspectRatio="xMidYMid meet">
<metadata>
Created by potrace 1.16, written by Peter Selinger 2001-2019
</metadata>
<g transform="translate(0.000000,92.000000) scale(0.100000,-0.100000)"
fill="#000000" stroke="none">
<path d="M560 835 c-30 -7 -81 -14 -112 -14 l-56 -1 14 -29 c8 -15 19 -65 26
-109 13 -96 20 -111 42 -93 11 9 41 12 98 10 l83 -4 36 107 c19 60 33 112 30
116 -21 32 -71 37 -161 17z m80 -62 l0 -38 -47 0 c-27 0 -66 -3 -88 -5 -39 -5
-40 -4 -43 27 -3 30 -1 32 35 38 21 4 43 8 48 10 6 2 29 4 53 4 l42 1 0 -37z
m-10 -80 c-1 -53 -7 -58 -83 -58 l-72 0 -3 32 -3 32 58 4 c32 2 68 4 81 5 15
1 22 -3 22 -15z"/>
<path d="M155 797 c-3 -7 -1 -26 5 -41 5 -15 10 -63 10 -106 l0 -79 -47 -6
c-75 -10 -82 -14 -58 -31 14 -11 32 -13 62 -9 l41 6 4 -66 c1 -37 0 -74 -4
-84 -4 -11 -35 -26 -87 -42 -44 -13 -81 -27 -81 -31 0 -10 51 -48 65 -48 17 0
275 150 275 160 0 5 -25 0 -57 -11 -31 -10 -58 -19 -60 -19 -1 0 -3 33 -3 74
l0 74 50 12 c28 7 53 17 56 22 11 18 -19 29 -63 24 -42 -5 -43 -5 -42 22 0 34
14 112 23 134 5 11 0 21 -16 31 -38 24 -67 30 -73 14z"/>
<path d="M740 557 c-3 -3 -91 -13 -195 -22 -214 -19 -235 -22 -235 -34 0 -15
58 -34 90 -29 16 3 30 2 30 0 0 -17 -51 -80 -102 -127 -34 -30 -56 -55 -50
-55 6 0 41 20 78 45 67 45 104 56 104 31 0 -21 -85 -127 -136 -169 -50 -40
-50 -44 -1 -23 42 18 106 70 157 129 33 37 40 50 31 61 -9 11 -6 15 11 20 65
17 73 -2 32 -80 -31 -59 -101 -134 -169 -180 -56 -39 -38 -46 32 -14 94 42
238 223 214 269 -9 16 -6 19 20 25 17 3 36 3 41 0 24 -15 -18 -218 -54 -261
-8 -10 -22 -12 -50 -8 l-39 7 33 -51 c18 -28 38 -51 44 -51 14 0 59 49 77 86
9 16 28 73 43 125 14 52 33 106 40 121 13 25 12 28 -17 52 -35 30 -59 31 -144
11 -33 -8 -85 -15 -115 -15 -51 1 -54 2 -35 16 16 12 17 18 8 33 -11 17 -7 19
40 25 29 3 114 6 190 6 110 0 137 3 137 14 0 7 -7 19 -15 26 -15 13 -87 25
-95 17z"/>
</g>
</svg>
