<?xml version="1.0" standalone="no"?>
<!DOCTYPE svg PUBLIC "-//W3C//DTD SVG 20010904//EN"
 "http://www.w3.org/TR/2001/REC-SVG-20010904/DTD/svg10.dtd">
<svg version="1.0" xmlns="http://www.w3.org/2000/svg"
 width="96.000000pt" height="68.000000pt" viewBox="0 0 96.000000 68.000000"
 preserveAspectRatio="xMidYMid meet">
<metadata>
Created by potrace 1.16, written by Peter Selinger 2001-2019
</metadata>
<g transform="translate(0.000000,68.000000) scale(0.100000,-0.100000)"
fill="#000000" stroke="none">
<path d="M504 598 c4 -13 10 -51 13 -85 l6 -62 -72 -7 c-91 -9 -94 -27 -3 -23
67 4 67 4 70 -23 4 -34 32 -38 32 -5 0 37 13 46 73 49 77 4 73 24 -5 21 l-60
-2 5 37 c3 20 8 51 12 68 6 26 3 32 -20 42 -42 19 -58 16 -51 -10z"/>
</g>
</svg>
