<?xml version="1.0" standalone="no"?>
<!DOCTYPE svg PUBLIC "-//W3C//DTD SVG 20010904//EN"
 "http://www.w3.org/TR/2001/REC-SVG-20010904/DTD/svg10.dtd">
<svg version="1.0" xmlns="http://www.w3.org/2000/svg"
 width="96.000000pt" height="68.000000pt" viewBox="0 0 96.000000 68.000000"
 preserveAspectRatio="xMidYMid meet">
<metadata>
Created by potrace 1.16, written by Peter Selinger 2001-2019
</metadata>
<g transform="translate(0.000000,68.000000) scale(0.100000,-0.100000)"
fill="#000000" stroke="none">
<path d="M508 614 c-4 -3 -2 -20 3 -37 5 -18 9 -53 9 -79 l0 -46 -65 -7 c-84
-9 -86 -28 -2 -24 l62 4 -2 -154 c-3 -161 -6 -173 -47 -163 l-21 5 20 -24 c37
-43 43 -49 58 -49 23 0 27 23 27 136 0 57 4 104 8 104 5 0 45 -38 89 -85 l81
-85 61 0 c34 0 61 3 61 8 0 4 -35 23 -78 43 -42 21 -99 56 -125 79 l-48 43 28
19 c15 10 43 25 61 33 39 17 41 31 5 48 -23 10 -28 9 -37 -7 -6 -11 -24 -34
-40 -53 -27 -32 -30 -33 -47 -17 -19 17 -25 67 -13 111 5 19 14 22 68 25 80 4
75 24 -6 21 l-60 -2 5 37 c3 20 8 51 12 68 6 29 4 32 -26 43 -38 13 -34 12
-41 5z"/>
<path d="M651 534 c14 -17 62 -44 79 -44 5 0 10 9 10 19 0 20 -43 41 -83 41
-16 0 -18 -2 -6 -16z"/>
<path d="M205 508 c-88 -12 -98 -15 -90 -28 3 -5 26 -10 50 -10 49 0 51 -3 47
-65 -4 -42 -6 -45 -38 -51 -47 -9 -43 -24 6 -24 l40 0 0 -59 0 -59 -65 -17
c-36 -10 -65 -21 -65 -25 0 -4 13 -13 29 -19 26 -11 36 -8 107 31 44 24 91 49
107 57 39 21 27 24 -23 6 -23 -8 -44 -15 -46 -15 -2 0 -4 25 -4 55 l0 55 40 6
c49 8 53 24 6 24 -38 0 -44 14 -37 77 3 30 6 32 45 35 28 2 41 8 41 18 0 19
-52 21 -150 8z"/>
<path d="M397 326 c20 -27 53 -40 66 -27 14 14 -30 51 -58 51 -26 0 -26 0 -8
-24z"/>
<path d="M460 245 c-14 -8 -46 -22 -72 -30 -48 -17 -63 -40 -33 -51 17 -7 40
7 100 60 43 38 44 44 5 21z"/>
</g>
</svg>
