<?xml version="1.0" standalone="no"?>
<!DOCTYPE svg PUBLIC "-//W3C//DTD SVG 20010904//EN"
 "http://www.w3.org/TR/2001/REC-SVG-20010904/DTD/svg10.dtd">
<svg version="1.0" xmlns="http://www.w3.org/2000/svg"
 width="90.000000pt" height="92.000000pt" viewBox="0 0 90.000000 92.000000"
 preserveAspectRatio="xMidYMid meet">
<metadata>
Created by potrace 1.16, written by Peter Selinger 2001-2019
</metadata>
<g transform="translate(0.000000,92.000000) scale(0.100000,-0.100000)"
fill="#000000" stroke="none">
<path d="M216 861 c-3 -4 -1 -23 4 -42 5 -19 12 -78 14 -131 6 -107 11 -99
-63 -113 l-34 -7 21 36 c28 47 28 61 0 80 -36 26 -45 19 -51 -38 -3 -30 -21
-91 -40 -135 -20 -45 -32 -81 -27 -81 11 0 60 58 73 87 9 20 18 23 64 23 l53
0 0 -67 0 -68 -83 -39 c-45 -21 -95 -43 -110 -48 -32 -12 -31 -24 5 -51 l26
-19 76 57 c42 32 78 56 80 54 2 -2 -3 -49 -11 -105 -13 -90 -13 -105 1 -138
34 -81 56 -24 56 148 l0 133 35 24 c52 36 48 51 -5 24 l-30 -16 0 55 c0 60 6
67 68 85 23 6 42 15 42 20 0 16 -50 31 -70 21 -10 -5 -22 -10 -26 -10 -7 0 1
126 12 192 6 35 5 37 -34 57 -23 12 -43 17 -46 12z"/>
<path d="M495 813 c-12 -71 -47 -168 -91 -252 -25 -46 -43 -85 -41 -87 2 -2
19 12 37 31 19 19 40 35 47 35 40 0 13 -68 -75 -182 -48 -64 -44 -72 14 -30
57 42 153 179 140 201 -7 11 46 22 58 11 15 -15 -5 -85 -46 -160 -29 -52 -68
-101 -127 -159 l-86 -84 55 28 c29 15 67 37 83 49 37 27 113 127 142 188 12
26 32 62 43 80 22 35 20 48 -13 65 -17 10 -16 12 16 18 20 4 47 5 60 3 21 -3
24 -9 27 -54 4 -62 -28 -224 -56 -288 -22 -48 -33 -53 -78 -36 -15 6 -29 9
-31 6 -7 -6 67 -106 79 -106 62 0 104 101 138 335 7 44 19 95 28 114 15 33 15
34 -13 58 -32 28 -26 28 -212 -8 -67 -12 -124 -21 -127 -19 -2 3 21 56 52 119
l56 114 -29 23 c-17 13 -33 24 -37 24 -4 0 -10 -17 -13 -37z"/>
</g>
</svg>
