<?xml version="1.0" standalone="no"?>
<!DOCTYPE svg PUBLIC "-//W3C//DTD SVG 20010904//EN"
 "http://www.w3.org/TR/2001/REC-SVG-20010904/DTD/svg10.dtd">
<svg version="1.0" xmlns="http://www.w3.org/2000/svg"
 width="96.000000pt" height="68.000000pt" viewBox="0 0 96.000000 68.000000"
 preserveAspectRatio="xMidYMid meet">
<metadata>
Created by potrace 1.16, written by Peter Selinger 2001-2019
</metadata>
<g transform="translate(0.000000,68.000000) scale(0.100000,-0.100000)"
fill="#000000" stroke="none">
<path d="M295 559 c-10 -45 -89 -156 -159 -221 -35 -34 -54 -58 -45 -58 21 0
83 42 133 88 l38 37 -6 -113 c-4 -63 -11 -125 -17 -138 -12 -33 13 -96 35 -88
22 8 24 21 31 197 5 110 4 157 -4 157 -20 0 -11 23 29 76 45 60 48 69 21 84
-33 17 -49 12 -56 -21z"/>
<path d="M510 582 c0 -11 32 -55 49 -68 12 -9 1 -13 -50 -18 -35 -4 -77 -10
-94 -13 -28 -5 -29 -6 -8 -14 23 -8 87 -125 77 -141 -3 -4 -22 -8 -42 -9 -61
-1 -119 -13 -104 -23 12 -7 90 -2 167 10 11 2 91 7 178 10 87 4 160 11 164 17
13 21 -25 28 -116 22 l-93 -6 23 38 c12 21 28 47 36 57 8 14 9 23 2 32 -7 9
-2 14 21 19 16 4 30 11 30 17 0 7 -23 9 -70 4 -68 -6 -70 -5 -76 18 -4 17 -19
30 -45 40 -45 18 -49 19 -49 8z m120 -132 c0 -40 -22 -110 -35 -110 -5 0 -20
-3 -32 -6 -18 -5 -24 1 -41 39 -11 24 -30 53 -42 65 l-23 21 24 5 c31 7 76 13
117 15 29 1 32 -1 32 -29z"/>
<path d="M610 244 c-36 -7 -93 -14 -127 -15 -59 -2 -76 -10 -53 -24 5 -3 14
-33 21 -66 12 -63 22 -77 42 -61 7 6 58 13 114 17 81 6 100 10 96 21 -5 15 36
84 50 84 16 0 6 26 -15 39 -31 19 -51 20 -128 5z m52 -36 c6 -18 -13 -76 -27
-82 -6 -2 -41 -7 -77 -11 l-65 -7 -7 32 c-3 18 -6 38 -6 46 0 26 174 47 182
22z"/>
</g>
</svg>
