<?xml version="1.0" standalone="no"?>
<!DOCTYPE svg PUBLIC "-//W3C//DTD SVG 20010904//EN"
 "http://www.w3.org/TR/2001/REC-SVG-20010904/DTD/svg10.dtd">
<svg version="1.0" xmlns="http://www.w3.org/2000/svg"
 width="96.000000pt" height="68.000000pt" viewBox="0 0 96.000000 68.000000"
 preserveAspectRatio="xMidYMid meet">
<metadata>
Created by potrace 1.16, written by Peter Selinger 2001-2019
</metadata>
<g transform="translate(0.000000,68.000000) scale(0.100000,-0.100000)"
fill="#000000" stroke="none">
<path d="M510 568 c7 -12 21 -33 32 -44 l20 -22 -54 -6 c-29 -4 -71 -10 -93
-13 l-40 -6 30 -8 c30 -9 293 13 328 26 9 4 17 12 17 18 0 6 -24 8 -70 3 -65
-6 -70 -5 -70 14 0 23 -32 45 -78 55 -33 7 -33 6 -22 -17z"/>
</g>
</svg>
