<?xml version="1.0" standalone="no"?>
<!DOCTYPE svg PUBLIC "-//W3C//DTD SVG 20010904//EN"
 "http://www.w3.org/TR/2001/REC-SVG-20010904/DTD/svg10.dtd">
<svg version="1.0" xmlns="http://www.w3.org/2000/svg"
 width="96.000000pt" height="68.000000pt" viewBox="0 0 96.000000 68.000000"
 preserveAspectRatio="xMidYMid meet">
<metadata>
Created by potrace 1.16, written by Peter Selinger 2001-2019
</metadata>
<g transform="translate(0.000000,68.000000) scale(0.100000,-0.100000)"
fill="#000000" stroke="none">
<path d="M630 454 c0 -14 -5 -45 -11 -69 -9 -36 -15 -44 -41 -49 -38 -7 -44
-3 -51 32 -7 33 -58 92 -80 92 -14 0 -13 -7 5 -47 11 -27 25 -54 31 -61 14
-18 -8 -31 -53 -32 -19 -1 -53 -5 -75 -9 -39 -8 -39 -8 -13 -15 16 -5 90 -1
168 8 77 9 182 16 233 16 89 0 130 10 113 27 -4 4 -54 7 -111 6 l-103 -2 33
59 c18 32 31 61 27 64 -3 3 -20 6 -39 6 -29 0 -33 -3 -33 -26z"/>
</g>
</svg>
