<?xml version="1.0" standalone="no"?>
<!DOCTYPE svg PUBLIC "-//W3C//DTD SVG 20010904//EN"
 "http://www.w3.org/TR/2001/REC-SVG-20010904/DTD/svg10.dtd">
<svg version="1.0" xmlns="http://www.w3.org/2000/svg"
 width="96.000000pt" height="68.000000pt" viewBox="0 0 96.000000 68.000000"
 preserveAspectRatio="xMidYMid meet">
<metadata>
Created by potrace 1.16, written by Peter Selinger 2001-2019
</metadata>
<g transform="translate(0.000000,68.000000) scale(0.100000,-0.100000)"
fill="#000000" stroke="none">
<path d="M488 515 l5 -85 -54 -1 c-30 -1 -65 -1 -79 0 -23 1 -23 0 -8 -12 14
-11 34 -94 30 -124 -1 -5 -23 -10 -49 -13 -44 -5 -46 -6 -26 -18 16 -9 39 -10
90 -2 37 5 69 7 71 5 2 -2 -3 -16 -12 -32 -20 -40 -83 -100 -129 -124 -52 -27
-39 -36 19 -14 60 23 117 74 150 135 l26 47 146 2 c81 1 149 4 151 7 14 14
-26 27 -85 28 -38 1 -69 6 -71 12 -2 6 10 26 27 45 16 19 28 39 27 44 -8 24
-53 36 -116 29 l-64 -6 7 73 c8 77 3 89 -40 89 -21 0 -22 -3 -16 -85z m147
-131 c-12 -69 -24 -84 -67 -84 -38 0 -38 0 -38 41 0 63 13 79 66 79 l46 0 -7
-36z m-145 -22 c0 -53 -12 -72 -47 -72 -18 0 -23 7 -28 38 -3 20 -8 45 -9 54
-3 12 4 18 23 21 62 10 61 10 61 -41z"/>
<path d="M210 523 c0 -20 64 -74 83 -71 31 4 34 38 6 59 -23 18 -89 26 -89 12z"/>
<path d="M150 356 c25 -26 42 -36 59 -34 59 7 25 58 -45 65 l-49 5 35 -36z"/>
<path d="M227 263 c-19 -32 -47 -69 -62 -81 -22 -20 -26 -29 -21 -55 6 -31 23
-49 40 -44 7 2 70 153 92 220 12 36 -15 15 -49 -40z"/>
<path d="M560 235 c0 -2 36 -41 80 -85 89 -88 117 -101 106 -48 -9 45 -41 76
-113 109 -62 29 -73 33 -73 24z"/>
</g>
</svg>
