<?xml version="1.0" standalone="no"?>
<!DOCTYPE svg PUBLIC "-//W3C//DTD SVG 20010904//EN"
 "http://www.w3.org/TR/2001/REC-SVG-20010904/DTD/svg10.dtd">
<svg version="1.0" xmlns="http://www.w3.org/2000/svg"
 width="96.000000pt" height="68.000000pt" viewBox="0 0 96.000000 68.000000"
 preserveAspectRatio="xMidYMid meet">
<metadata>
Created by potrace 1.16, written by Peter Selinger 2001-2019
</metadata>
<g transform="translate(0.000000,68.000000) scale(0.100000,-0.100000)"
fill="#000000" stroke="none">
<path d="M525 438 c-44 -5 -104 -7 -133 -6 -54 3 -62 -1 -37 -22 8 -7 15 -20
15 -29 0 -36 22 -91 36 -91 11 0 13 10 8 54 -6 52 -6 53 23 59 15 3 68 9 116
13 98 8 98 8 72 -65 -14 -41 -14 -41 10 -41 15 0 26 7 30 20 4 11 18 34 33 51
l26 32 -23 18 c-25 21 -49 22 -176 7z"/>
</g>
</svg>
