<?xml version="1.0" standalone="no"?>
<!DOCTYPE svg PUBLIC "-//W3C//DTD SVG 20010904//EN"
 "http://www.w3.org/TR/2001/REC-SVG-20010904/DTD/svg10.dtd">
<svg version="1.0" xmlns="http://www.w3.org/2000/svg"
 width="96.000000pt" height="68.000000pt" viewBox="0 0 96.000000 68.000000"
 preserveAspectRatio="xMidYMid meet">
<metadata>
Created by potrace 1.16, written by Peter Selinger 2001-2019
</metadata>
<g transform="translate(0.000000,68.000000) scale(0.100000,-0.100000)"
fill="#000000" stroke="none">
<path d="M552 407 c-30 -6 -50 -15 -48 -21 3 -6 11 -30 18 -54 8 -29 17 -41
26 -37 7 3 32 5 54 5 29 0 39 4 35 13 -3 8 3 32 13 55 25 56 14 60 -98 39z
m54 -73 c-7 -19 -52 -18 -60 2 -14 37 -7 53 27 56 27 3 32 -1 35 -20 2 -13 1
-30 -2 -38z"/>
</g>
</svg>
