<?xml version="1.0" standalone="no"?>
<!DOCTYPE svg PUBLIC "-//W3C//DTD SVG 20010904//EN"
 "http://www.w3.org/TR/2001/REC-SVG-20010904/DTD/svg10.dtd">
<svg version="1.0" xmlns="http://www.w3.org/2000/svg"
 width="90.000000pt" height="92.000000pt" viewBox="0 0 90.000000 92.000000"
 preserveAspectRatio="xMidYMid meet">
<metadata>
Created by potrace 1.16, written by Peter Selinger 2001-2019
</metadata>
<g transform="translate(0.000000,92.000000) scale(0.100000,-0.100000)"
fill="#000000" stroke="none">
<path d="M560 872 c0 -46 -14 -62 -54 -62 -17 0 -37 -4 -45 -9 -21 -13 17 -30
53 -24 22 5 28 3 24 -8 -3 -8 -9 -25 -13 -39 l-7 -25 26 24 c14 13 28 32 31
41 4 14 21 18 80 22 85 6 99 13 70 35 -14 10 -34 13 -67 9 -49 -5 -55 -2 -38
24 11 18 -15 50 -42 50 -14 0 -18 -8 -18 -38z"/>
<path d="M260 880 c0 -5 8 -25 17 -45 9 -19 14 -38 10 -41 -3 -4 -38 -9 -77
-12 -38 -2 -70 -8 -70 -12 0 -3 11 -17 25 -30 27 -26 27 -26 126 15 12 4 18
-1 23 -20 9 -34 31 -27 31 11 1 23 6 30 33 38 43 12 41 29 -3 24 -33 -4 -35
-3 -35 27 0 24 -6 35 -25 43 -31 15 -55 15 -55 2z"/>
<path d="M395 733 c19 -48 18 -50 -31 -57 -26 -3 -65 -6 -86 -6 -27 0 -38 -4
-36 -12 3 -9 32 -14 86 -16 60 -2 82 -6 82 -16 0 -14 -42 -26 -87 -26 -16 0
-22 -4 -17 -11 8 -13 216 -5 242 10 23 13 -4 24 -55 22 -30 -1 -43 3 -43 12 0
10 27 18 90 26 92 13 108 23 66 42 -17 8 -38 8 -75 0 -70 -15 -71 -15 -71 13
0 25 -16 36 -52 36 -15 0 -18 -4 -13 -17z"/>
<path d="M450 559 c-25 -4 -75 -8 -112 -9 -60 -2 -66 -4 -53 -17 8 -8 15 -21
15 -28 0 -26 21 -70 28 -58 4 6 57 14 120 18 78 5 112 11 109 19 -3 6 5 21 17
34 21 23 21 24 2 38 -21 15 -55 16 -126 3z m70 -37 c0 -16 -13 -21 -82 -30
-107 -15 -108 -15 -108 8 0 19 16 25 100 33 83 9 90 8 90 -11z"/>
<path d="M675 459 c-80 -13 -363 -39 -433 -39 -49 0 -68 4 -77 16 -10 15 -16
10 -42 -35 -19 -34 -28 -61 -25 -77 7 -37 43 -28 64 17 l18 35 162 18 c210 22
368 31 368 20 0 -4 -12 -19 -27 -31 l-28 -23 50 5 c90 10 115 16 115 25 0 9
-80 81 -89 79 -3 -1 -28 -5 -56 -10z"/>
<path d="M440 373 c-52 -7 -114 -16 -138 -19 -55 -7 -45 -24 14 -24 l45 0 -20
-29 c-12 -16 -35 -35 -51 -43 -22 -9 -30 -19 -28 -33 2 -16 9 -19 38 -16 92 9
105 7 108 -15 4 -25 -19 -34 -85 -34 -43 0 -57 -13 -27 -24 9 -3 38 -6 65 -6
41 0 49 -3 49 -19 0 -15 -11 -19 -67 -24 -38 -4 -98 -7 -135 -7 -76 0 -95 -14
-46 -35 27 -10 50 -12 107 -4 41 5 166 11 278 13 113 3 207 6 209 9 2 2 -5 12
-17 23 -17 16 -35 19 -98 17 -42 -1 -102 -4 -133 -8 -57 -6 -58 -5 -58 19 0
23 4 25 65 31 36 4 68 11 70 16 11 17 -33 29 -79 20 -46 -8 -46 -8 -46 20 0
16 -6 29 -12 30 -7 0 16 8 50 16 62 14 65 14 86 -6 20 -19 25 -20 35 -7 28 33
-13 80 -79 92 l-35 7 24 -26 24 -26 -24 -5 c-44 -9 -192 -26 -196 -22 -2 2 11
13 29 24 18 12 40 29 49 40 12 14 35 21 87 25 39 4 78 10 88 14 16 6 16 7 -2
20 -20 15 -18 15 -144 -4z"/>
</g>
</svg>
