<?xml version="1.0" standalone="no"?>
<!DOCTYPE svg PUBLIC "-//W3C//DTD SVG 20010904//EN"
 "http://www.w3.org/TR/2001/REC-SVG-20010904/DTD/svg10.dtd">
<svg version="1.0" xmlns="http://www.w3.org/2000/svg"
 width="96.000000pt" height="68.000000pt" viewBox="0 0 96.000000 68.000000"
 preserveAspectRatio="xMidYMid meet">
<metadata>
Created by potrace 1.16, written by Peter Selinger 2001-2019
</metadata>
<g transform="translate(0.000000,68.000000) scale(0.100000,-0.100000)"
fill="#000000" stroke="none">
<path d="M620 421 c-9 -36 -74 -130 -100 -146 -5 -3 -10 -10 -10 -15 0 -14 31
0 69 31 l34 28 42 -35 c42 -34 69 -42 80 -24 11 18 -15 48 -52 61 -56 18 -56
17 -18 62 40 47 42 53 16 67 -35 18 -50 12 -61 -29z"/>
</g>
</svg>
