<?xml version="1.0" standalone="no"?>
<!DOCTYPE svg PUBLIC "-//W3C//DTD SVG 20010904//EN"
 "http://www.w3.org/TR/2001/REC-SVG-20010904/DTD/svg10.dtd">
<svg version="1.0" xmlns="http://www.w3.org/2000/svg"
 width="96.000000pt" height="68.000000pt" viewBox="0 0 96.000000 68.000000"
 preserveAspectRatio="xMidYMid meet">
<metadata>
Created by potrace 1.16, written by Peter Selinger 2001-2019
</metadata>
<g transform="translate(0.000000,68.000000) scale(0.100000,-0.100000)"
fill="#000000" stroke="none">
<path d="M633 563 c-31 -6 -29 -23 2 -23 21 0 25 -5 25 -30 0 -17 -7 -46 -14
-65 -13 -29 -20 -35 -46 -35 l-31 0 24 -26 c21 -22 28 -24 46 -15 25 14 40 40
56 101 7 25 16 52 19 61 5 11 -1 19 -19 27 -14 7 -29 11 -33 11 -4 -1 -17 -4
-29 -6z"/>
</g>
</svg>
