<?xml version="1.0" standalone="no"?>
<!DOCTYPE svg PUBLIC "-//W3C//DTD SVG 20010904//EN"
 "http://www.w3.org/TR/2001/REC-SVG-20010904/DTD/svg10.dtd">
<svg version="1.0" xmlns="http://www.w3.org/2000/svg"
 width="90.000000pt" height="92.000000pt" viewBox="0 0 90.000000 92.000000"
 preserveAspectRatio="xMidYMid meet">
<metadata>
Created by potrace 1.16, written by Peter Selinger 2001-2019
</metadata>
<g transform="translate(0.000000,92.000000) scale(0.100000,-0.100000)"
fill="#000000" stroke="none">
<path d="M480 795 c0 -41 -46 -142 -101 -223 -46 -68 -48 -74 -23 -58 16 10
40 29 55 42 14 13 29 24 34 24 12 0 75 -49 75 -59 0 -17 -68 -86 -128 -128
-34 -25 -61 -48 -58 -51 11 -10 135 59 183 102 l48 43 65 -59 c36 -32 76 -61
89 -65 27 -7 161 15 161 27 0 4 -28 15 -62 25 -75 21 -158 57 -198 85 l-29 21
35 47 c19 26 48 64 65 85 33 41 32 50 -12 72 -26 14 -35 14 -81 0 -76 -22 -83
-21 -61 16 l18 31 -28 24 c-36 31 -47 30 -47 -1z m114 -174 c-38 -72 -44 -75
-87 -46 -20 14 -41 25 -46 25 -6 0 1 17 15 38 23 33 31 38 77 42 29 3 56 2 61
-1 4 -4 -4 -30 -20 -58z"/>
<path d="M197 756 c-20 -61 -89 -171 -118 -186 -22 -12 -24 -29 -6 -54 13 -18
16 -18 72 3 32 12 59 20 61 18 7 -7 -109 -137 -127 -142 -24 -8 -24 -27 0 -49
18 -16 21 -16 68 7 73 38 131 53 145 39 21 -21 38 -13 38 18 0 23 -7 35 -32
50 -44 26 -51 25 -43 -8 5 -27 4 -28 -57 -44 -34 -10 -64 -16 -65 -14 -2 2 44
53 102 114 58 60 105 117 105 124 0 14 -30 48 -42 48 -3 0 -13 -20 -22 -44 -9
-25 -23 -49 -30 -56 -17 -14 -116 -26 -116 -14 0 5 32 48 70 96 39 48 70 94
70 102 0 13 -36 46 -50 46 -4 0 -14 -24 -23 -54z"/>
<path d="M575 334 c-33 -8 -93 -15 -132 -16 -40 -1 -73 -4 -73 -5 0 -2 9 -16
19 -31 11 -15 24 -57 31 -93 13 -74 26 -101 38 -82 5 7 52 15 125 19 75 4 115
10 108 17 -9 9 22 120 43 146 8 10 3 19 -19 37 -33 27 -53 28 -140 8z m69 -43
c6 -9 -10 -111 -19 -119 -3 -3 -40 -7 -83 -10 l-79 -4 -6 47 c-12 83 -11 83
36 88 85 7 146 7 151 -2z"/>
<path d="M250 335 c0 -3 11 -24 26 -46 28 -44 47 -47 52 -6 3 20 -3 29 -27 41
-30 16 -51 20 -51 11z"/>
<path d="M150 293 c0 -3 11 -26 25 -50 26 -44 48 -55 59 -28 10 27 -11 62 -45
74 -37 13 -39 13 -39 4z"/>
<path d="M30 257 c0 -7 15 -39 33 -72 37 -70 61 -78 65 -22 3 31 -2 43 -27 66
-33 31 -71 46 -71 28z"/>
</g>
</svg>
