<?xml version="1.0" standalone="no"?>
<!DOCTYPE svg PUBLIC "-//W3C//DTD SVG 20010904//EN"
 "http://www.w3.org/TR/2001/REC-SVG-20010904/DTD/svg10.dtd">
<svg version="1.0" xmlns="http://www.w3.org/2000/svg"
 width="96.000000pt" height="68.000000pt" viewBox="0 0 96.000000 68.000000"
 preserveAspectRatio="xMidYMid meet">
<metadata>
Created by potrace 1.16, written by Peter Selinger 2001-2019
</metadata>
<g transform="translate(0.000000,68.000000) scale(0.100000,-0.100000)"
fill="#000000" stroke="none">
<path d="M563 487 c-57 -13 -55 -26 2 -19 33 3 45 1 45 -9 0 -13 -49 -89 -57
-89 -2 0 -21 9 -43 20 -21 11 -41 16 -44 12 -3 -5 10 -16 29 -25 19 -9 35 -21
35 -26 0 -11 -71 -70 -120 -100 -19 -11 -28 -21 -20 -21 18 0 156 76 165 90 4
6 33 -9 69 -35 56 -39 70 -45 112 -44 27 1 60 4 74 8 22 7 17 10 -35 25 -67
19 -185 66 -185 73 0 3 23 32 51 64 42 49 49 62 39 74 -14 17 -54 18 -117 2z"/>
</g>
</svg>
