<?xml version="1.0" standalone="no"?>
<!DOCTYPE svg PUBLIC "-//W3C//DTD SVG 20010904//EN"
 "http://www.w3.org/TR/2001/REC-SVG-20010904/DTD/svg10.dtd">
<svg version="1.0" xmlns="http://www.w3.org/2000/svg"
 width="96.000000pt" height="68.000000pt" viewBox="0 0 96.000000 68.000000"
 preserveAspectRatio="xMidYMid meet">
<metadata>
Created by potrace 1.16, written by Peter Selinger 2001-2019
</metadata>
<g transform="translate(0.000000,68.000000) scale(0.100000,-0.100000)"
fill="#000000" stroke="none">
<path d="M300 210 c0 -5 9 -19 20 -30 26 -26 40 -25 40 0 0 13 -10 24 -26 30
-32 12 -34 12 -34 0z"/>
<path d="M210 183 c1 -18 49 -65 59 -59 18 11 13 34 -11 50 -24 17 -48 21 -48
9z"/>
<path d="M110 156 c0 -21 44 -81 63 -84 19 -4 23 27 7 58 -12 23 -70 45 -70
26z"/>
</g>
</svg>
