<?xml version="1.0" standalone="no"?>
<!DOCTYPE svg PUBLIC "-//W3C//DTD SVG 20010904//EN"
 "http://www.w3.org/TR/2001/REC-SVG-20010904/DTD/svg10.dtd">
<svg version="1.0" xmlns="http://www.w3.org/2000/svg"
 width="96.000000pt" height="68.000000pt" viewBox="0 0 96.000000 68.000000"
 preserveAspectRatio="xMidYMid meet">
<metadata>
Created by potrace 1.16, written by Peter Selinger 2001-2019
</metadata>
<g transform="translate(0.000000,68.000000) scale(0.100000,-0.100000)"
fill="#000000" stroke="none">
<path d="M636 590 c-16 -5 -52 -12 -80 -15 -58 -8 -66 -12 -41 -21 9 -4 49 0
89 9 39 8 75 11 80 7 5 -5 -4 -20 -20 -35 -22 -21 -35 -25 -58 -21 -29 6 -29
6 -11 -14 10 -11 15 -23 12 -26 -3 -3 -35 -9 -69 -11 l-64 -5 6 -48 c3 -25 2
-60 -2 -76 -9 -34 -1 -67 15 -61 7 2 14 17 17 33 5 27 8 29 58 32 l52 3 0 -30
c0 -39 19 -40 26 -2 7 32 25 41 87 41 31 0 37 -3 37 -20 0 -12 -9 -24 -21 -28
l-20 -8 21 -19 c37 -33 53 -11 66 91 6 49 9 94 7 101 -8 20 -41 26 -109 18
-85 -9 -86 10 -1 48 l62 28 -25 19 c-26 21 -66 24 -114 10z m134 -148 c0 -27
-102 -26 -106 1 -2 14 6 17 52 17 45 0 54 -3 54 -18z m-150 -12 c0 -18 -7 -20
-55 -20 -30 0 -55 2 -55 4 0 17 38 36 71 36 32 0 39 -3 39 -20z m150 -40 c0
-18 -7 -20 -55 -20 -41 0 -55 4 -55 14 0 11 14 16 48 19 26 2 50 4 55 5 4 1 7
-7 7 -18z m-150 -15 c0 -14 -8 -17 -55 -18 -43 0 -55 4 -55 18 0 12 13 15 55
15 42 0 55 -3 55 -15z"/>
<path d="M310 534 c-25 -7 -69 -13 -98 -13 l-53 -1 21 -27 c11 -14 26 -46 32
-71 10 -42 12 -44 43 -38 40 8 41 5 44 -101 2 -74 0 -83 -19 -93 -39 -21 -50
-6 -50 65 0 63 -1 65 -26 65 -19 0 -24 -4 -20 -17 2 -10 6 -43 8 -73 l3 -55
-37 -3 c-46 -4 -49 -18 -7 -36 28 -12 38 -11 88 9 31 13 89 33 129 45 39 12
72 26 72 31 0 13 -23 11 -64 -6 l-36 -15 0 55 0 55 35 0 c19 0 35 5 35 10 0 6
-15 10 -34 10 -28 0 -34 4 -38 25 -3 15 -1 22 5 18 6 -4 8 0 4 10 -5 13 -1 17
18 17 20 0 25 5 25 25 0 14 9 44 20 66 l21 39 -26 10 c-31 12 -36 11 -95 -6z
m36 -56 c-7 -39 -30 -58 -66 -58 -20 0 -29 7 -38 33 -17 46 -17 45 31 50 23 2
50 4 61 5 16 2 18 -3 12 -30z"/>
<path d="M580 251 c0 -28 -1 -29 -67 -36 -52 -5 -63 -9 -49 -17 10 -6 37 -7
62 -3 l43 6 -10 -30 c-6 -17 -36 -53 -66 -81 -51 -47 -55 -65 -7 -37 41 24 70
53 112 110 l43 57 54 0 55 0 0 -32 c0 -18 -9 -53 -20 -77 -19 -42 -22 -43 -55
-38 -19 3 -35 4 -35 2 0 -2 12 -16 26 -30 51 -51 93 -16 126 107 17 64 17 73
4 87 -13 12 -26 13 -78 4 -35 -6 -64 -6 -66 -1 -8 18 -34 38 -53 38 -14 0 -19
-7 -19 -29z"/>
</g>
</svg>
