<?xml version="1.0" standalone="no"?>
<!DOCTYPE svg PUBLIC "-//W3C//DTD SVG 20010904//EN"
 "http://www.w3.org/TR/2001/REC-SVG-20010904/DTD/svg10.dtd">
<svg version="1.0" xmlns="http://www.w3.org/2000/svg"
 width="90.000000pt" height="92.000000pt" viewBox="0 0 90.000000 92.000000"
 preserveAspectRatio="xMidYMid meet">
<metadata>
Created by potrace 1.16, written by Peter Selinger 2001-2019
</metadata>
<g transform="translate(0.000000,92.000000) scale(0.100000,-0.100000)"
fill="#000000" stroke="none">
<path d="M610 819 c-41 -35 -164 -99 -191 -99 -11 0 -19 -5 -19 -11 0 -8 14
-10 43 -5 84 13 80 14 89 -28 5 -21 7 -41 4 -43 -2 -2 -35 -6 -72 -8 -38 -3
-71 -5 -73 -5 -2 0 3 -8 12 -17 8 -10 18 -39 22 -64 8 -51 23 -82 32 -61 2 7
22 12 44 12 39 0 39 0 39 -39 0 -22 -3 -42 -7 -44 -5 -3 -32 -8 -60 -12 -43
-6 -53 -4 -53 8 0 15 -20 27 -47 27 -11 0 -14 -7 -9 -25 6 -23 3 -25 -24 -25
-40 0 -38 -16 5 -31 l35 -13 0 -99 c0 -99 13 -154 31 -126 5 8 9 67 9 131 l0
116 30 6 c17 3 44 9 60 12 l30 6 0 -66 0 -66 -50 0 c-47 0 -49 -1 -38 -19 21
-34 52 -45 79 -28 13 8 48 25 78 38 l53 22 18 -23 c21 -28 40 -19 40 20 0 19
-10 36 -31 54 -39 33 -65 35 -48 5 13 -25 5 -35 -34 -45 l-29 -7 7 59 c4 33 8
60 9 61 1 1 39 5 85 9 66 6 85 4 92 -7 18 -29 4 -208 -19 -231 -9 -9 -21 -9
-49 0 -20 6 -38 10 -39 9 -7 -6 69 -107 80 -107 15 0 48 35 65 68 7 12 16 66
21 120 4 53 13 109 19 124 9 25 7 30 -25 55 -34 25 -38 26 -80 15 -24 -6 -68
-15 -99 -18 l-55 -7 0 42 c0 45 -5 42 94 45 24 1 35 11 67 64 l38 63 -32 20
c-18 11 -41 17 -52 14 -11 -3 -40 -8 -64 -12 l-43 -6 6 31 c6 24 3 33 -14 45
-19 13 -18 15 39 41 73 32 81 44 51 68 -28 23 -28 23 -70 -13z m86 -220 c-3
-17 -6 -39 -6 -48 0 -13 -11 -16 -50 -16 l-50 0 0 42 c0 41 1 42 38 46 80 8
75 10 68 -24z m-156 -34 l0 -45 -39 0 c-37 0 -39 2 -43 35 -4 32 -1 36 21 41
15 3 31 7 36 9 22 8 25 3 25 -40z"/>
<path d="M240 744 c-19 -9 -68 -18 -108 -21 -67 -5 -71 -7 -57 -23 8 -9 21
-49 28 -89 15 -79 31 -106 48 -81 8 13 11 12 24 -4 11 -15 15 -50 15 -147 l0
-127 -31 -11 c-18 -6 -36 -11 -42 -11 -6 0 -8 40 -5 105 5 111 1 125 -40 125
-19 0 -23 -4 -17 -17 7 -18 11 -50 19 -161 l4 -62 -39 0 c-47 0 -52 -19 -12
-50 34 -26 39 -25 187 42 150 68 168 100 37 62 -23 -7 -24 -5 -18 26 4 18 7
48 7 66 0 32 2 34 33 34 32 0 57 15 57 33 0 5 -20 7 -46 4 l-45 -5 3 59 c3 58
3 59 34 59 27 0 30 3 30 34 0 19 12 56 26 84 28 54 26 66 -15 81 -35 14 -34
14 -77 -5z m30 -61 c0 -10 -3 -35 -6 -55 -6 -35 -9 -37 -57 -48 -27 -6 -51 -9
-52 -8 -2 2 -6 29 -10 60 -7 56 -7 56 21 61 73 11 104 7 104 -10z"/>
</g>
</svg>
