<?xml version="1.0" standalone="no"?>
<!DOCTYPE svg PUBLIC "-//W3C//DTD SVG 20010904//EN"
 "http://www.w3.org/TR/2001/REC-SVG-20010904/DTD/svg10.dtd">
<svg version="1.0" xmlns="http://www.w3.org/2000/svg"
 width="96.000000pt" height="68.000000pt" viewBox="0 0 96.000000 68.000000"
 preserveAspectRatio="xMidYMid meet">
<metadata>
Created by potrace 1.16, written by Peter Selinger 2001-2019
</metadata>
<g transform="translate(0.000000,68.000000) scale(0.100000,-0.100000)"
fill="#000000" stroke="none">
<path d="M760 280 c0 -7 6 -10 13 -7 10 4 12 -14 11 -77 -1 -44 -3 -82 -4 -83
-1 -2 -3 -8 -4 -13 0 -6 -7 -15 -15 -19 -8 -5 -11 -16 -8 -26 4 -9 3 -14 -3
-10 -6 3 -10 12 -10 20 0 11 -20 25 -36 25 -3 0 4 -14 16 -30 12 -17 30 -30
40 -30 21 0 55 46 40 55 -6 4 -7 11 -4 17 4 7 9 6 14 -2 8 -13 13 32 12 98 -1
23 3 40 8 37 13 -8 18 18 5 31 -17 18 -75 28 -75 14z"/>
<path d="M420 270 c0 -6 5 -8 10 -5 15 9 12 -4 -4 -21 -11 -10 -15 -11 -18 -2
-3 9 -6 9 -12 0 -4 -7 3 -14 19 -18 14 -3 25 -11 26 -18 0 -6 1 -40 2 -75 2
-48 6 -65 17 -68 12 -4 12 -3 1 5 -9 6 -10 12 -2 16 6 4 9 34 7 76 l-4 69 42
16 c28 10 32 13 11 9 -16 -3 -37 -7 -46 -9 -10 -2 -16 3 -15 13 0 9 -7 18 -16
20 -10 2 -18 -2 -18 -8z"/>
<path d="M678 273 c7 -3 16 -2 19 1 4 3 -2 6 -13 5 -11 0 -14 -3 -6 -6z"/>
<path d="M728 273 c7 -3 16 -2 19 1 4 3 -2 6 -13 5 -11 0 -14 -3 -6 -6z"/>
</g>
</svg>
