<?xml version="1.0" standalone="no"?>
<!DOCTYPE svg PUBLIC "-//W3C//DTD SVG 20010904//EN"
 "http://www.w3.org/TR/2001/REC-SVG-20010904/DTD/svg10.dtd">
<svg version="1.0" xmlns="http://www.w3.org/2000/svg"
 width="90.000000pt" height="92.000000pt" viewBox="0 0 90.000000 92.000000"
 preserveAspectRatio="xMidYMid meet">
<metadata>
Created by potrace 1.16, written by Peter Selinger 2001-2019
</metadata>
<g transform="translate(0.000000,92.000000) scale(0.100000,-0.100000)"
fill="#000000" stroke="none">
<path d="M580 854 c0 -8 -7 -28 -15 -44 l-15 -29 -43 14 -42 15 33 -28 33 -28
-23 -29 -23 -30 32 23 c26 18 37 21 52 12 11 -5 24 -10 30 -10 18 0 12 29 -8
42 -19 11 -18 13 5 43 29 39 30 51 4 58 -13 3 -20 0 -20 -9z"/>
<path d="M155 840 c-3 -5 -1 -27 4 -47 6 -21 11 -77 11 -125 l0 -87 -57 -11
c-90 -19 -91 -19 -68 -36 15 -11 34 -13 72 -8 l53 6 0 -66 0 -66 -43 -28 c-24
-15 -62 -36 -85 -46 -46 -21 -46 -38 -2 -61 27 -14 29 -13 76 33 l49 47 3 -35
c1 -19 -1 -62 -6 -95 l-8 -60 -44 3 -45 3 55 -56 c30 -30 55 -55 57 -55 1 0 9
13 18 30 11 22 15 63 15 168 l0 139 39 31 c37 30 39 30 44 11 9 -33 31 -17 47
32 l14 45 129 18 c154 21 287 32 287 22 0 -4 -7 -20 -15 -36 -9 -17 -14 -30
-12 -30 2 0 17 4 33 9 16 5 41 12 57 15 35 8 34 18 -5 56 -28 26 -38 30 -66
25 -29 -5 -33 -4 -28 12 2 10 9 43 15 73 5 30 15 68 21 85 10 26 9 32 -11 48
-14 11 -31 16 -43 12 -12 -3 -36 -8 -53 -12 -46 -8 -41 -21 9 -25 53 -4 67
-33 21 -44 -62 -13 -67 -16 -52 -25 8 -5 26 -6 42 -3 22 5 27 2 27 -15 0 -14
-8 -22 -27 -27 -52 -11 -59 -18 -21 -22 36 -3 38 -5 35 -36 l-2 -34 -98 -11
c-119 -13 -177 -14 -177 -2 0 5 -3 16 -6 25 -4 11 0 16 14 16 28 0 52 10 52
22 0 6 -14 8 -36 4 -33 -7 -35 -6 -32 16 2 15 11 24 26 26 12 2 22 10 22 18 0
17 -1 17 -34 4 -20 -7 -26 -6 -26 4 0 8 -2 21 -5 28 -4 9 8 20 31 31 35 17 36
18 19 37 -25 27 -30 26 -54 -16 -13 -22 -27 -34 -35 -31 -22 9 -26 -3 -10 -28
8 -12 21 -57 28 -99 l13 -76 -23 0 c-13 0 -24 5 -24 10 0 6 -4 10 -9 10 -5 0
-14 -22 -21 -50 -7 -27 -16 -47 -21 -44 -5 3 -22 -4 -38 -15 -16 -12 -32 -21
-36 -21 -3 0 -5 25 -3 56 3 55 4 56 41 69 51 17 56 24 32 41 -12 9 -30 12 -47
9 l-28 -7 6 64 c3 35 10 79 15 98 12 49 13 48 -23 70 -37 23 -44 24 -53 10z"/>
<path d="M563 681 c-9 -25 -15 -28 -39 -24 -28 5 -28 5 -9 -10 20 -15 20 -16
-5 -43 -25 -27 -11 -25 22 3 13 12 21 12 38 3 29 -16 57 -5 40 15 -7 8 -19 15
-28 15 -12 0 -11 5 6 23 17 18 19 26 10 35 -18 18 -22 15 -35 -17z"/>
<path d="M575 494 c-27 -8 -77 -17 -110 -19 -43 -3 -59 -8 -55 -17 2 -7 3 -61
1 -120 -1 -67 2 -109 8 -113 6 -3 11 -1 11 4 0 6 9 11 20 11 43 0 12 -78 -61
-155 -51 -54 -52 -55 -19 -43 18 6 49 27 69 47 39 39 85 126 76 141 -4 6 3 10
14 10 25 0 23 4 26 -83 2 -55 6 -72 25 -92 56 -60 217 -54 269 9 10 12 9 24
-6 65 -10 28 -21 51 -24 51 -4 0 -9 -18 -13 -39 -8 -54 -35 -71 -113 -71 -50
0 -67 4 -83 20 -24 24 -26 60 -5 101 9 16 13 34 10 39 -3 6 -1 10 5 10 6 0 13
-7 16 -15 9 -22 32 -18 40 8 4 12 6 59 5 104 -1 45 3 92 9 103 9 17 6 23 -22
40 -18 11 -35 20 -38 19 -3 0 -27 -7 -55 -15z m43 -36 c18 -18 14 -37 -7 -31
-10 2 -42 -3 -71 -11 -72 -21 -90 -21 -90 4 0 12 9 22 23 25 121 28 129 29
145 13z m12 -77 c0 -14 -10 -20 -47 -25 -27 -3 -67 -10 -90 -15 -41 -8 -43 -7
-43 16 0 17 4 23 13 20 7 -3 40 1 73 8 83 18 94 18 94 -4z m0 -74 c0 -20 -5
-24 -32 -24 -18 0 -61 -3 -95 -8 -62 -8 -63 -8 -63 17 0 21 4 24 28 21 15 -2
45 0 67 5 72 18 95 15 95 -11z"/>
</g>
</svg>
