<?xml version="1.0" standalone="no"?>
<!DOCTYPE svg PUBLIC "-//W3C//DTD SVG 20010904//EN"
 "http://www.w3.org/TR/2001/REC-SVG-20010904/DTD/svg10.dtd">
<svg version="1.0" xmlns="http://www.w3.org/2000/svg"
 width="96.000000pt" height="68.000000pt" viewBox="0 0 96.000000 68.000000"
 preserveAspectRatio="xMidYMid meet">
<metadata>
Created by potrace 1.16, written by Peter Selinger 2001-2019
</metadata>
<g transform="translate(0.000000,68.000000) scale(0.100000,-0.100000)"
fill="#000000" stroke="none">
<path d="M345 89 c-4 -6 -25 -24 -47 -40 -23 -16 -39 -29 -36 -29 16 0 69 28
68 36 -1 5 4 10 11 13 7 2 9 -1 4 -8 -5 -9 -1 -9 14 1 12 7 21 16 21 20 0 4 8
5 18 2 14 -5 15 -4 2 5 -19 14 -47 14 -55 0z"/>
<path d="M580 94 c0 -5 18 -24 39 -41 32 -27 40 -30 45 -17 5 12 2 15 -11 10
-14 -6 -15 -4 -6 5 16 16 32 3 26 -21 -6 -22 4 -25 27 -9 12 9 12 10 -4 5 -15
-5 -17 -4 -7 8 9 11 5 18 -24 35 -20 12 -41 19 -46 15 -6 -3 -16 0 -24 6 -8 7
-15 9 -15 4z"/>
</g>
</svg>
