<?xml version="1.0" standalone="no"?>
<!DOCTYPE svg PUBLIC "-//W3C//DTD SVG 20010904//EN"
 "http://www.w3.org/TR/2001/REC-SVG-20010904/DTD/svg10.dtd">
<svg version="1.0" xmlns="http://www.w3.org/2000/svg"
 width="96.000000pt" height="68.000000pt" viewBox="0 0 96.000000 68.000000"
 preserveAspectRatio="xMidYMid meet">
<metadata>
Created by potrace 1.16, written by Peter Selinger 2001-2019
</metadata>
<g transform="translate(0.000000,68.000000) scale(0.100000,-0.100000)"
fill="#000000" stroke="none">
<path d="M585 126 c17 -26 35 -30 42 -9 2 6 -4 13 -14 17 -10 3 -24 9 -31 12
-10 4 -9 -2 3 -20z"/>
<path d="M635 106 c-16 -12 -17 -16 -6 -30 7 -9 18 -13 24 -9 6 4 8 0 5 -8 -4
-9 1 -15 11 -16 10 -1 17 7 17 23 2 21 0 23 -14 12 -14 -11 -15 -10 -9 7 7 20
7 20 -8 1 -17 -23 -20 -14 -5 15 13 23 10 24 -15 5z"/>
</g>
</svg>
