<?xml version="1.0" standalone="no"?>
<!DOCTYPE svg PUBLIC "-//W3C//DTD SVG 20010904//EN"
 "http://www.w3.org/TR/2001/REC-SVG-20010904/DTD/svg10.dtd">
<svg version="1.0" xmlns="http://www.w3.org/2000/svg"
 width="90.000000pt" height="92.000000pt" viewBox="0 0 90.000000 92.000000"
 preserveAspectRatio="xMidYMid meet">
<metadata>
Created by potrace 1.16, written by Peter Selinger 2001-2019
</metadata>
<g transform="translate(0.000000,92.000000) scale(0.100000,-0.100000)"
fill="#000000" stroke="none">
<path d="M494 834 c3 -16 9 -52 12 -80 8 -60 16 -55 -133 -75 -51 -6 -93 -16
-93 -21 0 -4 11 -13 25 -20 19 -8 43 -7 107 6 46 9 86 16 91 16 4 0 7 -25 7
-55 l0 -54 -37 -7 c-21 -4 -56 -7 -78 -7 l-40 0 0 -123 c0 -84 4 -127 12 -135
22 -22 28 -1 31 111 l4 108 28 5 c15 4 39 9 54 13 l26 6 1 -223 c0 -123 4
-233 8 -244 8 -19 8 -19 19 0 18 36 32 172 32 325 l0 148 56 7 c43 5 59 3 66
-7 7 -10 3 -207 -5 -215 -2 -1 -19 2 -40 6 -20 5 -37 7 -37 5 0 -2 21 -25 46
-51 l46 -47 23 27 c24 27 29 55 39 215 l5 83 -30 18 c-27 17 -35 17 -87 5 -84
-20 -82 -21 -82 40 0 53 1 54 33 59 17 3 76 9 130 13 102 7 120 18 72 44 -25
14 -69 10 -209 -17 l-29 -6 6 66 c3 37 3 68 -1 71 -4 2 -25 7 -46 11 -39 8
-39 8 -32 -21z"/>
<path d="M150 802 c0 -19 78 -92 98 -92 22 0 36 28 26 53 -8 21 -124 57 -124
39z"/>
<path d="M60 613 c0 -19 89 -96 104 -90 26 10 20 62 -8 75 -36 16 -96 26 -96
15z"/>
<path d="M195 424 c-27 -47 -62 -95 -78 -106 -31 -22 -31 -40 0 -105 20 -43
29 -41 43 5 7 20 32 92 56 159 24 68 44 125 44 128 0 20 -22 -7 -65 -81z"/>
</g>
</svg>
