<?xml version="1.0" standalone="no"?>
<!DOCTYPE svg PUBLIC "-//W3C//DTD SVG 20010904//EN"
 "http://www.w3.org/TR/2001/REC-SVG-20010904/DTD/svg10.dtd">
<svg version="1.0" xmlns="http://www.w3.org/2000/svg"
 width="90.000000pt" height="92.000000pt" viewBox="0 0 90.000000 92.000000"
 preserveAspectRatio="xMidYMid meet">
<metadata>
Created by potrace 1.16, written by Peter Selinger 2001-2019
</metadata>
<g transform="translate(0.000000,92.000000) scale(0.100000,-0.100000)"
fill="#000000" stroke="none">
<path d="M196 811 c-4 -5 -2 -21 4 -36 5 -14 10 -84 10 -154 l0 -128 -54 -7
c-30 -3 -68 -3 -86 1 -30 6 -32 5 -21 -15 14 -26 14 -185 0 -236 -13 -46 -4
-106 15 -106 22 0 26 22 33 175 l6 144 51 11 c89 18 191 28 200 19 5 -4 10
-72 10 -149 1 -153 -4 -167 -51 -149 -44 17 -45 9 -2 -41 23 -28 47 -50 53
-50 7 0 20 14 30 31 15 25 19 57 21 182 1 84 4 160 6 171 3 11 -6 26 -23 39
-26 19 -29 20 -84 4 l-57 -16 7 149 6 150 -25 10 c-33 12 -42 13 -49 1z"/>
<path d="M566 783 c-3 -4 -6 -18 -6 -32 0 -40 -35 -158 -70 -236 l-31 -70 33
32 c23 22 42 32 63 31 17 0 41 2 54 7 l24 7 -5 -84 c-6 -113 -10 -118 -64 -68
-24 22 -50 40 -59 40 -19 0 -20 -16 -1 -23 7 -3 30 -26 51 -52 l38 -46 -23
-32 c-27 -37 -48 -53 -104 -84 l-41 -22 30 0 c40 -1 103 29 138 65 l29 29 20
-25 c10 -14 35 -45 55 -69 l36 -43 53 6 c57 7 84 15 84 25 0 3 -37 25 -83 48
-46 24 -95 55 -110 71 l-26 27 20 100 c11 55 18 112 15 127 -5 25 -3 27 46 35
58 9 64 21 23 42 -24 12 -35 10 -105 -18 -44 -17 -84 -31 -89 -31 -13 0 -14
12 -3 25 16 18 72 155 72 175 0 20 -52 55 -64 43z"/>
<path d="M348 654 c-52 -82 -51 -82 50 -16 28 19 52 40 52 47 0 10 -42 46 -52
44 -2 0 -24 -34 -50 -75z"/>
<path d="M60 662 c0 -4 14 -27 31 -51 35 -47 62 -51 67 -9 3 22 -3 32 -30 48
-34 20 -68 26 -68 12z"/>
<path d="M225 393 c-22 -8 -52 -12 -67 -9 -27 5 -38 -6 -19 -19 6 -3 13 -27
17 -53 11 -76 17 -82 61 -66 21 7 50 13 66 14 24 0 27 3 21 24 -3 13 2 41 11
62 15 36 15 39 -1 51 -22 16 -37 15 -89 -4z m43 -60 c-3 -33 -7 -39 -36 -47
-38 -11 -37 -11 -46 36 -7 40 -1 44 57 47 27 1 28 -1 25 -36z"/>
</g>
</svg>
