<?xml version="1.0" standalone="no"?>
<!DOCTYPE svg PUBLIC "-//W3C//DTD SVG 20010904//EN"
 "http://www.w3.org/TR/2001/REC-SVG-20010904/DTD/svg10.dtd">
<svg version="1.0" xmlns="http://www.w3.org/2000/svg"
 width="96.000000pt" height="68.000000pt" viewBox="0 0 96.000000 68.000000"
 preserveAspectRatio="xMidYMid meet">
<metadata>
Created by potrace 1.16, written by Peter Selinger 2001-2019
</metadata>
<g transform="translate(0.000000,68.000000) scale(0.100000,-0.100000)"
fill="#000000" stroke="none">
<path d="M195 570 c-3 -5 -1 -28 5 -52 5 -24 10 -62 10 -85 l0 -41 -50 -7
c-73 -10 -61 -35 16 -35 l34 0 0 -65 c0 -71 -6 -78 -76 -93 -49 -10 -52 -24
-10 -47 l34 -18 101 62 c55 35 101 67 101 72 0 12 -5 12 -47 -6 -19 -8 -39
-15 -44 -15 -5 0 -9 27 -9 60 l0 59 38 7 c60 11 68 19 33 34 -17 7 -37 10 -45
7 -22 -9 -28 22 -16 83 6 30 6 58 2 62 -14 14 -71 27 -77 18z"/>
<path d="M523 562 c-62 -8 -113 -19 -113 -23 0 -4 21 -9 48 -11 47 -3 47 -3
50 -40 l3 -38 -80 0 c-81 0 -81 0 -61 -20 11 -11 22 -32 26 -47 24 -107 20
-101 69 -95 43 4 45 3 45 -21 0 -35 -7 -37 -65 -22 -51 13 -79 10 -69 -6 3 -5
16 -9 29 -9 26 0 75 -19 75 -29 0 -19 -53 -65 -105 -90 -33 -17 -53 -30 -45
-30 34 -2 92 22 135 54 25 19 49 35 54 35 5 0 37 -21 72 -47 81 -59 123 -74
188 -66 29 3 54 9 56 13 2 4 -21 13 -53 20 -76 18 -158 51 -209 83 -40 25 -41
27 -31 59 6 18 14 40 18 48 9 19 62 25 90 10 18 -9 25 -8 41 6 10 9 19 21 19
26 0 5 14 36 30 70 17 33 30 61 30 63 0 1 -13 8 -30 15 -20 8 -51 10 -97 5
-38 -4 -70 -7 -73 -6 -2 0 -5 16 -6 35 l-1 33 60 7 c58 6 75 11 66 20 -12 13
-66 12 -166 -2z m170 -125 c10 -26 -10 -39 -67 -41 -60 -3 -75 7 -62 39 7 20
121 22 129 2z m-173 -26 c0 -33 -83 -43 -100 -12 -15 29 -14 30 38 33 57 4 62
2 62 -21z m160 -36 c0 -2 -5 -16 -12 -30 -10 -22 -17 -25 -60 -25 -44 0 -48 2
-48 24 0 18 7 26 23 29 32 6 97 8 97 2z m-160 -22 c0 -31 -16 -45 -46 -41 -34
4 -48 43 -17 51 41 11 63 7 63 -10z"/>
</g>
</svg>
