<?xml version="1.0" standalone="no"?>
<!DOCTYPE svg PUBLIC "-//W3C//DTD SVG 20010904//EN"
 "http://www.w3.org/TR/2001/REC-SVG-20010904/DTD/svg10.dtd">
<svg version="1.0" xmlns="http://www.w3.org/2000/svg"
 width="96.000000pt" height="68.000000pt" viewBox="0 0 96.000000 68.000000"
 preserveAspectRatio="xMidYMid meet">
<metadata>
Created by potrace 1.16, written by Peter Selinger 2001-2019
</metadata>
<g transform="translate(0.000000,68.000000) scale(0.100000,-0.100000)"
fill="#000000" stroke="none">
<path d="M275 468 l0 -82 -78 -22 c-90 -25 -99 -31 -63 -40 23 -5 85 5 128 21
12 5 16 -9 21 -72 3 -44 9 -86 12 -96 4 -9 32 -29 63 -44 52 -26 69 -28 188
-31 140 -4 221 11 266 48 21 17 22 21 10 52 -8 18 -18 49 -24 68 l-11 35 -13
-44 c-18 -58 -46 -87 -99 -100 -57 -14 -233 -14 -276 0 -62 21 -69 33 -69 125
l0 83 53 15 c35 10 54 21 54 31 0 19 -13 19 -66 0 l-42 -15 3 66 c3 67 -6 83
-42 84 -13 0 -16 -15 -15 -82z"/>
</g>
</svg>
