<?xml version="1.0" standalone="no"?>
<!DOCTYPE svg PUBLIC "-//W3C//DTD SVG 20010904//EN"
 "http://www.w3.org/TR/2001/REC-SVG-20010904/DTD/svg10.dtd">
<svg version="1.0" xmlns="http://www.w3.org/2000/svg"
 width="96.000000pt" height="68.000000pt" viewBox="0 0 96.000000 68.000000"
 preserveAspectRatio="xMidYMid meet">
<metadata>
Created by potrace 1.16, written by Peter Selinger 2001-2019
</metadata>
<g transform="translate(0.000000,68.000000) scale(0.100000,-0.100000)"
fill="#000000" stroke="none">
<path d="M635 370 c-27 -5 -72 -9 -100 -9 l-50 -1 0 -65 0 -65 50 0 c28 0 87
3 132 6 63 5 80 10 76 21 -3 7 7 32 22 54 25 39 26 41 8 55 -20 15 -60 16
-138 4z m80 -20 c3 -5 1 -28 -5 -50 -10 -37 -13 -40 -46 -40 l-36 0 7 43 c4
23 13 45 19 49 16 11 54 10 61 -2z m-105 -54 c0 -43 0 -43 -41 -50 -52 -8 -59
-3 -52 42 7 43 17 52 61 52 31 0 32 -1 32 -44z"/>
</g>
</svg>
