<?xml version="1.0" standalone="no"?>
<!DOCTYPE svg PUBLIC "-//W3C//DTD SVG 20010904//EN"
 "http://www.w3.org/TR/2001/REC-SVG-20010904/DTD/svg10.dtd">
<svg version="1.0" xmlns="http://www.w3.org/2000/svg"
 width="96.000000pt" height="68.000000pt" viewBox="0 0 96.000000 68.000000"
 preserveAspectRatio="xMidYMid meet">
<metadata>
Created by potrace 1.16, written by Peter Selinger 2001-2019
</metadata>
<g transform="translate(0.000000,68.000000) scale(0.100000,-0.100000)"
fill="#000000" stroke="none">
<path d="M550 584 c0 -3 9 -19 20 -34 l20 -29 -57 -7 c-36 -4 -63 -3 -74 4
-19 12 -22 10 -51 -44 -15 -27 -16 -33 -4 -44 12 -9 19 -7 35 9 12 12 21 27
21 35 0 14 33 19 213 32 48 4 87 4 87 0 0 -4 -5 -16 -11 -28 -10 -18 -8 -19
12 -13 38 12 89 35 89 40 0 2 -14 12 -32 21 -25 13 -47 15 -110 9 -74 -6 -78
-5 -78 14 0 11 -9 25 -19 31 -21 11 -61 14 -61 4z"/>
</g>
</svg>
