<?xml version="1.0" standalone="no"?>
<!DOCTYPE svg PUBLIC "-//W3C//DTD SVG 20010904//EN"
 "http://www.w3.org/TR/2001/REC-SVG-20010904/DTD/svg10.dtd">
<svg version="1.0" xmlns="http://www.w3.org/2000/svg"
 width="90.000000pt" height="92.000000pt" viewBox="0 0 90.000000 92.000000"
 preserveAspectRatio="xMidYMid meet">
<metadata>
Created by potrace 1.16, written by Peter Selinger 2001-2019
</metadata>
<g transform="translate(0.000000,92.000000) scale(0.100000,-0.100000)"
fill="#000000" stroke="none">
<path d="M238 774 c-4 -65 -10 -100 -20 -110 -10 -10 -39 -15 -91 -16 -42 -1
-77 -6 -77 -10 0 -12 47 -58 58 -58 5 0 29 7 52 15 53 19 53 19 40 -4 -16 -31
-12 -39 29 -61 22 -11 42 -24 46 -29 8 -14 -31 -48 -95 -82 l-55 -30 40 6 c35
6 82 29 137 67 15 11 23 7 51 -20 39 -38 57 -41 57 -8 0 15 -12 34 -31 50
l-31 26 28 68 c15 37 36 74 47 83 18 15 18 16 -12 48 -37 40 -68 39 -63 -2 4
-28 0 -31 -54 -41 l-32 -5 26 86 26 86 -23 18 c-42 34 -48 26 -53 -77z m112
-146 c-1 -17 -37 -98 -45 -98 -3 0 -21 7 -40 14 -37 16 -43 31 -22 59 20 29
107 48 107 25z"/>
<path d="M605 705 c-27 -7 -71 -14 -98 -14 l-48 -1 15 -27 c8 -16 17 -58 21
-95 4 -37 13 -75 21 -85 7 -10 14 -13 14 -6 0 7 34 14 95 18 94 7 105 11 85
31 -11 11 20 114 40 139 8 10 4 19 -16 34 -30 23 -56 25 -129 6z m61 -79 c-3
-30 -9 -61 -12 -69 -6 -15 -46 -27 -95 -27 -26 0 -29 3 -29 34 0 18 -3 47 -6
64 -6 29 -4 31 37 40 24 5 59 10 78 11 l34 1 -7 -54z"/>
<path d="M431 368 c48 -93 106 -118 91 -40 -5 25 -55 62 -85 62 -15 0 -16 -3
-6 -22z"/>
<path d="M698 319 c60 -60 75 -69 87 -59 21 17 19 53 -4 74 -21 19 -112 56
-139 56 -11 0 8 -25 56 -71z"/>
<path d="M147 276 c-41 -87 -43 -94 -23 -121 12 -17 16 -17 31 -5 35 29 58
132 40 176 -11 28 -11 27 -48 -50z"/>
<path d="M260 333 c0 -5 10 -37 22 -73 45 -129 142 -188 294 -178 130 9 190
62 122 109 -18 12 -48 36 -67 53 l-33 31 7 -52 c8 -64 -4 -73 -97 -73 -105 1
-184 53 -204 135 -4 17 -11 36 -17 43 -10 13 -27 16 -27 5z"/>
</g>
</svg>
