<?xml version="1.0" standalone="no"?>
<!DOCTYPE svg PUBLIC "-//W3C//DTD SVG 20010904//EN"
 "http://www.w3.org/TR/2001/REC-SVG-20010904/DTD/svg10.dtd">
<svg version="1.0" xmlns="http://www.w3.org/2000/svg"
 width="96.000000pt" height="68.000000pt" viewBox="0 0 96.000000 68.000000"
 preserveAspectRatio="xMidYMid meet">
<metadata>
Created by potrace 1.16, written by Peter Selinger 2001-2019
</metadata>
<g transform="translate(0.000000,68.000000) scale(0.100000,-0.100000)"
fill="#000000" stroke="none">
<path d="M500 608 c-8 -13 -19 -29 -23 -36 -6 -9 2 -8 30 3 21 9 44 19 51 22
20 8 8 28 -19 31 -16 2 -29 -5 -39 -20z"/>
<path d="M336 595 c7 -16 35 -35 53 -35 22 0 10 31 -15 40 -35 14 -44 12 -38
-5z"/>
<path d="M417 545 c-124 -14 -149 -25 -57 -25 84 0 240 20 240 31 0 11 -46 10
-183 -6z"/>
</g>
</svg>
