<?xml version="1.0" standalone="no"?>
<!DOCTYPE svg PUBLIC "-//W3C//DTD SVG 20010904//EN"
 "http://www.w3.org/TR/2001/REC-SVG-20010904/DTD/svg10.dtd">
<svg version="1.0" xmlns="http://www.w3.org/2000/svg"
 width="96.000000pt" height="68.000000pt" viewBox="0 0 96.000000 68.000000"
 preserveAspectRatio="xMidYMid meet">
<metadata>
Created by potrace 1.16, written by Peter Selinger 2001-2019
</metadata>
<g transform="translate(0.000000,68.000000) scale(0.100000,-0.100000)"
fill="#000000" stroke="none">
<path d="M232 475 c45 -42 68 -45 68 -10 0 28 -30 45 -78 45 l-27 -1 37 -34z"/>
<path d="M164 345 c45 -40 76 -46 76 -14 0 22 -52 49 -92 49 -21 -1 -19 -4 16
-35z"/>
<path d="M211 192 c-75 -78 -82 -89 -74 -112 15 -43 40 -37 66 17 12 26 40 78
61 116 21 37 36 67 34 66 -1 0 -41 -39 -87 -87z"/>
</g>
</svg>
