<?xml version="1.0" standalone="no"?>
<!DOCTYPE svg PUBLIC "-//W3C//DTD SVG 20010904//EN"
 "http://www.w3.org/TR/2001/REC-SVG-20010904/DTD/svg10.dtd">
<svg version="1.0" xmlns="http://www.w3.org/2000/svg"
 width="96.000000pt" height="68.000000pt" viewBox="0 0 96.000000 68.000000"
 preserveAspectRatio="xMidYMid meet">
<metadata>
Created by potrace 1.16, written by Peter Selinger 2001-2019
</metadata>
<g transform="translate(0.000000,68.000000) scale(0.100000,-0.100000)"
fill="#000000" stroke="none">
<path d="M524 356 c-3 -9 -4 -22 -1 -30 5 -11 -7 -16 -48 -21 -67 -9 -63 -25
6 -25 47 0 49 -1 49 -29 l0 -29 -87 -7 c-66 -5 -83 -9 -69 -17 12 -7 52 -8
110 -3 50 4 130 7 179 6 52 -1 87 3 87 9 0 15 -42 22 -114 18 l-66 -3 0 31 c0
35 16 44 78 44 17 0 32 5 32 10 0 11 -26 14 -78 11 -30 -2 -33 0 -30 21 2 17
-2 24 -20 26 -13 2 -25 -3 -28 -12z"/>
</g>
</svg>
