<?xml version="1.0" standalone="no"?>
<!DOCTYPE svg PUBLIC "-//W3C//DTD SVG 20010904//EN"
 "http://www.w3.org/TR/2001/REC-SVG-20010904/DTD/svg10.dtd">
<svg version="1.0" xmlns="http://www.w3.org/2000/svg"
 width="96.000000pt" height="68.000000pt" viewBox="0 0 96.000000 68.000000"
 preserveAspectRatio="xMidYMid meet">
<metadata>
Created by potrace 1.16, written by Peter Selinger 2001-2019
</metadata>
<g transform="translate(0.000000,68.000000) scale(0.100000,-0.100000)"
fill="#000000" stroke="none">
<path d="M596 300 c-3 -22 -6 -43 -5 -46 1 -10 -35 -33 -41 -26 -3 4 -14 14
-25 22 -14 10 -13 6 5 -14 l25 -28 -27 -23 c-18 -15 -23 -25 -15 -28 7 -3 2
-6 -11 -6 -14 -1 -21 -5 -16 -12 4 -8 -1 -9 -17 -4 -19 6 -22 5 -12 -6 10 -10
19 -9 47 6 19 10 33 23 30 27 -3 4 2 8 10 8 9 0 15 3 15 8 -3 19 2 29 16 29
12 0 12 -3 2 -15 -10 -13 -9 -14 3 -10 8 2 16 11 16 19 1 8 3 19 4 24 1 6 2
13 1 18 0 4 3 7 9 7 5 0 7 7 3 15 -3 10 0 15 8 13 8 -2 13 4 13 14 -1 10 2 15
7 12 5 -3 9 -1 9 5 0 9 -31 31 -43 31 -2 0 -7 -18 -11 -40z"/>
<path d="M478 273 c7 -3 16 -2 19 1 4 3 -2 6 -13 5 -11 0 -14 -3 -6 -6z"/>
<path d="M600 175 c-7 -8 -9 -15 -4 -15 5 0 24 -14 42 -31 17 -16 37 -27 42
-24 5 3 7 0 4 -9 -8 -20 27 -29 60 -16 20 7 25 7 20 -2 -5 -8 -2 -9 12 -3 10
4 28 8 39 7 14 0 10 5 -13 14 -23 10 -38 11 -52 4 -28 -15 -36 -12 -14 6 18
15 18 15 -5 8 -15 -4 -21 -2 -17 4 5 9 -43 34 -71 36 -6 1 -15 5 -20 10 -5 5
-2 6 7 1 13 -8 13 -7 1 8 -16 21 -16 21 -31 2z"/>
<path d="M415 120 c-18 -8 -17 -9 8 -9 16 -1 26 3 22 9 -3 6 -7 10 -8 9 -1 0
-11 -4 -22 -9z"/>
</g>
</svg>
