<?xml version="1.0" standalone="no"?>
<!DOCTYPE svg PUBLIC "-//W3C//DTD SVG 20010904//EN"
 "http://www.w3.org/TR/2001/REC-SVG-20010904/DTD/svg10.dtd">
<svg version="1.0" xmlns="http://www.w3.org/2000/svg"
 width="96.000000pt" height="68.000000pt" viewBox="0 0 96.000000 68.000000"
 preserveAspectRatio="xMidYMid meet">
<metadata>
Created by potrace 1.16, written by Peter Selinger 2001-2019
</metadata>
<g transform="translate(0.000000,68.000000) scale(0.100000,-0.100000)"
fill="#000000" stroke="none">
<path d="M277 506 l6 -54 -49 -7 c-65 -9 -76 -13 -69 -25 3 -5 31 -10 61 -10
50 0 54 -2 54 -23 0 -22 -6 -25 -76 -35 -82 -11 -90 -14 -79 -33 6 -8 30 -9
86 -4 l79 6 0 -75 0 -76 -35 0 c-34 0 -49 20 -25 35 17 11 11 44 -11 55 -11 7
-22 10 -23 8 -1 -2 -10 -30 -21 -62 -11 -32 -32 -76 -47 -97 -20 -28 -24 -39
-14 -39 13 0 27 16 74 80 9 13 99 -4 187 -36 248 -89 275 -94 375 -70 112 28
113 35 5 36 -103 1 -211 16 -325 44 -36 9 -75 18 -88 21 -19 5 -22 11 -20 50
l1 45 46 0 c50 0 81 13 62 24 -6 4 -31 4 -55 1 l-44 -7 -4 40 -3 40 49 6 c55
6 61 10 51 27 -5 7 -23 9 -51 5 -42 -5 -44 -4 -44 20 0 26 4 29 64 39 46 8 36
26 -15 28 -33 2 -34 4 -39 47 -5 42 -7 45 -37 48 l-32 3 6 -55z"/>
<path d="M748 400 c3 -87 1 -175 -2 -195 -7 -34 -9 -36 -37 -30 -36 8 -36 3
-4 -30 30 -30 60 -32 74 -6 6 10 11 103 11 207 2 169 0 189 -16 201 -10 7 -21
13 -24 13 -3 0 -4 -72 -2 -160z"/>
<path d="M565 520 c-22 -4 -62 -11 -90 -15 -42 -6 -47 -9 -27 -16 12 -5 28 -6
36 -3 41 16 25 -48 -32 -128 -32 -45 -33 -64 -3 -35 11 10 15 9 19 -2 3 -8 16
-25 28 -38 13 -13 24 -27 24 -31 0 -3 -17 -23 -37 -44 -20 -21 -31 -38 -24
-38 18 0 112 99 126 135 8 16 23 41 35 55 11 13 20 33 18 45 -2 16 -11 20 -48
21 -65 2 -65 2 -46 23 9 10 16 25 14 32 -2 10 12 15 55 17 58 3 75 15 35 26
-26 7 -29 6 -83 -4z m13 -147 c-16 -60 -58 -110 -58 -70 0 8 -11 19 -25 25
l-26 12 27 35 c21 28 33 35 59 35 l33 0 -10 -37z"/>
<path d="M665 376 c1 -47 4 -88 8 -92 18 -18 28 18 25 92 -2 60 -6 79 -18 82
-12 2 -15 -12 -15 -82z"/>
</g>
</svg>
