<?xml version="1.0" standalone="no"?>
<!DOCTYPE svg PUBLIC "-//W3C//DTD SVG 20010904//EN"
 "http://www.w3.org/TR/2001/REC-SVG-20010904/DTD/svg10.dtd">
<svg version="1.0" xmlns="http://www.w3.org/2000/svg"
 width="90.000000pt" height="92.000000pt" viewBox="0 0 90.000000 92.000000"
 preserveAspectRatio="xMidYMid meet">
<metadata>
Created by potrace 1.16, written by Peter Selinger 2001-2019
</metadata>
<g transform="translate(0.000000,92.000000) scale(0.100000,-0.100000)"
fill="#000000" stroke="none">
<path d="M537 844 c-3 -3 -1 -18 5 -33 6 -14 13 -78 15 -142 l6 -117 -92 -12
c-50 -7 -91 -16 -91 -20 0 -18 56 -29 95 -20 22 5 50 10 63 10 l22 0 0 -237
c0 -131 4 -244 9 -251 21 -33 33 58 38 275 l6 221 30 6 c16 3 58 6 92 6 99 0
121 15 61 44 -28 13 -44 14 -92 5 -33 -5 -67 -13 -78 -16 -17 -5 -18 2 -15
131 3 113 1 138 -11 146 -17 11 -54 13 -63 4z"/>
<path d="M180 758 c0 -7 11 -31 25 -53 13 -22 25 -43 25 -46 0 -3 -42 -11 -92
-18 -134 -17 -142 -19 -128 -35 20 -25 60 -27 158 -6 53 11 126 24 162 28 48
5 65 11 65 22 0 12 -14 15 -62 15 l-63 0 0 33 c0 26 -6 36 -32 52 -38 23 -58
25 -58 8z"/>
<path d="M187 542 c-64 -16 -82 -33 -41 -41 22 -4 147 18 165 30 39 24 -41 31
-124 11z"/>
<path d="M190 440 c-36 -9 -65 -21 -65 -26 0 -20 85 -14 179 13 19 5 19 6 1
19 -23 17 -31 16 -115 -6z"/>
<path d="M255 353 c-22 -8 -66 -16 -97 -16 -60 -2 -68 -6 -44 -26 8 -7 18 -37
21 -66 8 -59 29 -98 43 -78 4 6 41 15 82 19 l75 6 1 42 c0 22 8 55 17 73 16
31 16 32 -5 47 -27 19 -41 19 -93 -1z m35 -78 c0 -43 -1 -44 -37 -50 -21 -4
-45 -9 -54 -11 -18 -5 -29 21 -29 68 0 28 12 33 88 37 32 1 32 0 32 -44z"/>
</g>
</svg>
