<?xml version="1.0" standalone="no"?>
<!DOCTYPE svg PUBLIC "-//W3C//DTD SVG 20010904//EN"
 "http://www.w3.org/TR/2001/REC-SVG-20010904/DTD/svg10.dtd">
<svg version="1.0" xmlns="http://www.w3.org/2000/svg"
 width="96.000000pt" height="68.000000pt" viewBox="0 0 96.000000 68.000000"
 preserveAspectRatio="xMidYMid meet">
<metadata>
Created by potrace 1.16, written by Peter Selinger 2001-2019
</metadata>
<g transform="translate(0.000000,68.000000) scale(0.100000,-0.100000)"
fill="#000000" stroke="none">
<path d="M234 548 c4 -13 10 -50 13 -84 5 -58 4 -61 -18 -67 -13 -4 -38 -7
-56 -7 -17 0 -35 -4 -38 -10 -4 -6 17 -10 54 -10 l61 0 0 -44 c0 -24 -6 -48
-12 -53 -7 -6 -46 -23 -86 -38 -66 -26 -72 -30 -56 -42 27 -19 55 -16 96 12
55 38 61 34 53 -32 -4 -32 -10 -62 -15 -67 -5 -5 -23 -4 -42 3 l-33 12 47 -48
c44 -44 49 -46 64 -31 13 13 16 35 15 115 l-2 100 41 27 c49 32 51 40 5 20
-39 -16 -48 -8 -41 31 3 11 5 25 5 31 1 7 17 15 36 18 46 9 45 26 -1 26 l-37
0 6 43 c4 23 9 54 13 68 5 23 2 28 -27 38 -45 16 -52 14 -45 -11z"/>
</g>
</svg>
