<?xml version="1.0" standalone="no"?>
<!DOCTYPE svg PUBLIC "-//W3C//DTD SVG 20010904//EN"
 "http://www.w3.org/TR/2001/REC-SVG-20010904/DTD/svg10.dtd">
<svg version="1.0" xmlns="http://www.w3.org/2000/svg"
 width="96.000000pt" height="68.000000pt" viewBox="0 0 96.000000 68.000000"
 preserveAspectRatio="xMidYMid meet">
<metadata>
Created by potrace 1.16, written by Peter Selinger 2001-2019
</metadata>
<g transform="translate(0.000000,68.000000) scale(0.100000,-0.100000)"
fill="#000000" stroke="none">
<path d="M274 563 c4 -27 10 -64 13 -85 l5 -36 -66 -7 c-86 -10 -84 -31 3 -28
l61 1 0 -49 c0 -45 -3 -51 -32 -69 -17 -10 -58 -29 -90 -41 -56 -21 -58 -22
-42 -40 24 -27 52 -24 104 11 l45 30 3 -51 c4 -62 -7 -77 -43 -61 -15 7 -25 8
-25 2 0 -14 70 -90 83 -90 26 0 36 38 37 137 l0 101 35 22 c19 12 35 26 35 31
0 12 -6 11 -40 -6 l-30 -16 0 35 c0 52 9 66 41 66 17 0 32 6 36 15 4 11 17 15
42 14 31 -2 197 12 329 27 38 5 42 7 30 21 -10 12 -24 14 -73 8 -105 -13 -107
-13 -112 15 -5 31 -20 47 -55 55 -33 8 -35 1 -8 -43 11 -18 20 -36 20 -41 0
-4 -37 -11 -82 -15 -45 -4 -85 -11 -88 -15 -3 -5 -20 -8 -37 -7 -38 1 -40 10
-19 78 l13 46 -34 16 c-58 27 -66 23 -59 -31z"/>
<path d="M610 403 c-41 -8 -96 -12 -123 -11 -52 3 -53 3 -32 -18 12 -12 36
-78 39 -106 2 -16 17 -20 30 -9 38 31 66 -11 66 -98 0 -50 -11 -64 -43 -55
-35 8 -34 1 4 -36 60 -57 79 -33 79 103 l0 95 45 6 c41 7 45 10 45 35 0 16 9
40 20 54 l21 26 -23 12 c-32 18 -42 18 -128 2z m67 -50 c-4 -20 -10 -40 -16
-46 -5 -5 -39 -9 -77 -10 l-67 -2 -9 34 c-5 18 -8 35 -6 37 4 4 121 21 157 23
22 1 23 -2 18 -36z"/>
<path d="M442 176 c-7 -18 -21 -41 -32 -51 -11 -10 -20 -22 -20 -27 0 -14 53
19 90 57 29 30 32 37 20 45 -28 18 -46 10 -58 -24z"/>
<path d="M735 159 c51 -52 75 -65 86 -48 12 20 -8 47 -51 69 -66 34 -80 26
-35 -21z"/>
</g>
</svg>
