<?xml version="1.0" standalone="no"?>
<!DOCTYPE svg PUBLIC "-//W3C//DTD SVG 20010904//EN"
 "http://www.w3.org/TR/2001/REC-SVG-20010904/DTD/svg10.dtd">
<svg version="1.0" xmlns="http://www.w3.org/2000/svg"
 width="90.000000pt" height="92.000000pt" viewBox="0 0 90.000000 92.000000"
 preserveAspectRatio="xMidYMid meet">
<metadata>
Created by potrace 1.16, written by Peter Selinger 2001-2019
</metadata>
<g transform="translate(0.000000,92.000000) scale(0.100000,-0.100000)"
fill="#000000" stroke="none">
<path d="M610 812 c-108 -21 -102 -19 -89 -40 10 -15 9 -30 -5 -72 -23 -69
-16 -84 30 -76 19 4 42 10 49 12 11 4 9 -6 -5 -46 -20 -54 -35 -77 -80 -119
l-25 -23 25 7 c37 11 90 64 114 115 l21 45 3 -50 c3 -71 9 -92 33 -114 42 -39
137 -33 178 10 19 20 19 21 -2 65 l-22 44 -6 -36 c-3 -20 -12 -40 -20 -45 -74
-48 -152 8 -115 83 9 17 15 33 13 34 -1 2 -16 10 -32 18 -30 16 -30 16 37 16
37 0 70 5 74 11 12 21 -16 33 -70 31 l-55 -2 2 49 2 50 43 11 c37 9 42 13 32
25 -15 18 -30 17 -130 -3z m3 -63 c10 -39 -4 -79 -30 -85 -13 -4 -25 -5 -27
-3 -2 2 1 28 7 57 8 38 16 52 28 52 9 0 19 -10 22 -21z"/>
<path d="M360 779 c-36 -10 -75 -18 -88 -18 -19 -1 -21 -3 -10 -20 10 -16 9
-31 -6 -77 -22 -68 -14 -81 39 -64 20 7 39 9 42 6 13 -13 -31 -98 -72 -137
-24 -24 -43 -45 -40 -47 11 -11 90 48 116 88 l31 45 -2 -55 c-3 -78 -2 -90 13
-90 11 0 127 114 127 125 0 3 -21 -9 -47 -26 l-48 -30 -3 48 c-2 26 -7 52 -13
58 -18 18 -8 25 35 25 25 0 48 5 52 11 11 18 -13 32 -51 31 l-37 -1 7 41 c5
27 3 43 -5 48 -7 4 2 10 24 14 40 8 55 24 35 37 -17 11 -19 10 -99 -12z m-4
-64 c10 -40 -3 -74 -32 -81 -34 -9 -38 -2 -24 41 6 20 9 42 6 50 -4 11 2 15
19 15 18 0 26 -7 31 -25z"/>
<path d="M100 770 c0 -5 18 -28 40 -51 45 -46 73 -49 78 -6 3 23 -2 30 -30 41
-51 21 -88 28 -88 16z"/>
<path d="M62 554 c43 -58 81 -68 86 -22 4 32 -27 56 -84 65 l-38 6 36 -49z"/>
<path d="M560 421 c-24 -14 -155 -41 -196 -41 -36 0 -36 -1 -30 -31 3 -17 6
-77 6 -133 0 -108 11 -144 33 -114 8 10 35 18 72 23 33 3 76 8 95 11 33 5 36
3 48 -30 16 -43 26 -45 49 -9 15 22 17 48 16 162 -1 126 -3 137 -23 153 -24
19 -46 22 -70 9z m38 -89 c3 -40 2 -42 -20 -37 -13 3 -56 -1 -96 -10 -105 -22
-104 -22 -96 23 4 20 7 38 8 39 5 6 147 31 171 30 28 -2 30 -5 33 -45z m2
-111 l0 -48 -42 0 c-24 1 -73 -3 -110 -7 l-68 -9 0 40 0 39 98 16 c53 8 103
16 110 17 8 1 12 -15 12 -48z"/>
<path d="M136 326 c-26 -42 -56 -81 -67 -86 -10 -6 -19 -20 -19 -31 0 -30 28
-91 40 -87 6 2 24 41 41 88 16 47 37 104 45 128 25 72 11 68 -40 -12z"/>
</g>
</svg>
