<?xml version="1.0" standalone="no"?>
<!DOCTYPE svg PUBLIC "-//W3C//DTD SVG 20010904//EN"
 "http://www.w3.org/TR/2001/REC-SVG-20010904/DTD/svg10.dtd">
<svg version="1.0" xmlns="http://www.w3.org/2000/svg"
 width="96.000000pt" height="68.000000pt" viewBox="0 0 96.000000 68.000000"
 preserveAspectRatio="xMidYMid meet">
<metadata>
Created by potrace 1.16, written by Peter Selinger 2001-2019
</metadata>
<g transform="translate(0.000000,68.000000) scale(0.100000,-0.100000)"
fill="#000000" stroke="none">
<path d="M505 265 c-27 -7 -72 -14 -99 -14 -40 -1 -47 -4 -42 -17 3 -9 6 -50
6 -92 0 -87 11 -117 32 -90 9 11 36 18 94 23 79 7 80 6 92 -19 13 -29 37 -26
48 6 3 12 6 61 7 111 0 115 -14 124 -138 92z m95 -43 c0 -27 -2 -28 -78 -40
-110 -17 -112 -17 -112 18 0 26 4 30 38 35 20 4 42 8 47 10 6 2 31 4 58 4 45
1 47 0 47 -27z m0 -82 c0 -36 -1 -37 -107 -44 l-83 -5 0 29 c0 26 4 29 43 34
23 3 53 7 67 10 71 10 80 8 80 -24z"/>
</g>
</svg>
