<?xml version="1.0" standalone="no"?>
<!DOCTYPE svg PUBLIC "-//W3C//DTD SVG 20010904//EN"
 "http://www.w3.org/TR/2001/REC-SVG-20010904/DTD/svg10.dtd">
<svg version="1.0" xmlns="http://www.w3.org/2000/svg"
 width="96.000000pt" height="68.000000pt" viewBox="0 0 96.000000 68.000000"
 preserveAspectRatio="xMidYMid meet">
<metadata>
Created by potrace 1.16, written by Peter Selinger 2001-2019
</metadata>
<g transform="translate(0.000000,68.000000) scale(0.100000,-0.100000)"
fill="#000000" stroke="none">
<path d="M315 220 c-11 -5 -47 -9 -80 -10 -44 0 -56 -3 -43 -10 9 -6 24 -33
33 -61 15 -44 20 -50 39 -45 11 4 43 9 69 13 37 4 47 9 42 21 -3 8 4 30 16 49
18 29 19 37 8 44 -17 11 -57 10 -84 -1z m25 -50 c0 -24 -6 -33 -26 -40 -38
-15 -44 -13 -59 23 -13 30 -12 32 8 39 12 3 34 6 50 7 24 1 27 -3 27 -29z"/>
</g>
</svg>
