<?xml version="1.0" standalone="no"?>
<!DOCTYPE svg PUBLIC "-//W3C//DTD SVG 20010904//EN"
 "http://www.w3.org/TR/2001/REC-SVG-20010904/DTD/svg10.dtd">
<svg version="1.0" xmlns="http://www.w3.org/2000/svg"
 width="96.000000pt" height="68.000000pt" viewBox="0 0 96.000000 68.000000"
 preserveAspectRatio="xMidYMid meet">
<metadata>
Created by potrace 1.16, written by Peter Selinger 2001-2019
</metadata>
<g transform="translate(0.000000,68.000000) scale(0.100000,-0.100000)"
fill="#000000" stroke="none">
<path d="M568 567 l4 -33 -59 -11 -58 -10 63 -2 c55 -1 62 -3 62 -21 0 -16 -7
-20 -34 -20 -19 0 -38 -5 -42 -12 -5 -8 18 -9 92 -5 54 4 105 7 112 7 6 0 12
5 12 11 0 7 -18 10 -50 7 -45 -3 -50 -1 -50 17 0 17 7 21 38 23 60 4 93 13 86
24 -4 7 -29 8 -66 4 l-59 -6 3 28 c3 24 -1 27 -28 30 -29 3 -30 2 -26 -31z"/>
<path d="M257 564 c-3 -4 -2 -15 4 -26 5 -10 7 -24 3 -31 -4 -6 -4 -9 1 -5 5
5 14 -1 22 -12 15 -21 48 -27 58 -10 13 21 -8 58 -41 73 -40 19 -39 19 -47 11z"/>
<path d="M243 448 c-70 -12 -120 -24 -117 -30 16 -25 57 -27 167 -7 177 32
165 28 143 45 -25 18 -42 17 -193 -8z"/>
<path d="M670 429 c-30 -5 -99 -10 -152 -11 -54 -2 -98 -6 -98 -10 0 -5 4 -8
8 -8 5 0 17 -18 27 -41 l19 -41 65 7 c36 3 101 8 144 10 81 3 88 7 118 59 22
37 -27 50 -131 35z m-35 -29 c14 -22 -6 -50 -35 -50 -22 0 -28 4 -25 15 3 8 7
22 10 30 5 17 41 20 50 5z m103 -12 c-2 -19 -10 -24 -45 -26 -47 -3 -49 -1
-31 28 9 13 24 20 46 20 29 0 33 -3 30 -22z m-188 -2 c0 -8 3 -21 6 -30 5 -13
-1 -16 -28 -16 -27 0 -37 5 -46 24 -9 21 -8 25 6 29 36 10 62 7 62 -7z"/>
<path d="M270 357 c-36 -9 -40 -12 -21 -15 36 -6 131 8 131 19 0 12 -52 10
-110 -4z"/>
<path d="M635 299 c-22 -4 -65 -8 -95 -8 l-55 -1 0 -83 c0 -77 1 -82 23 -85
12 -2 22 -6 22 -10 0 -10 -67 -79 -82 -85 -7 -2 -10 -7 -6 -11 7 -8 138 71
138 84 0 5 -6 10 -12 13 -7 2 18 7 55 11 49 6 72 4 83 -5 24 -20 32 0 35 89 4
106 -4 113 -106 91z m60 -28 c9 -15 -5 -19 -93 -26 -71 -7 -82 -5 -82 8 0 17
25 23 112 26 31 0 59 -3 63 -8z m5 -55 c0 -13 -77 -26 -151 -26 -48 0 -36 28
14 33 101 9 137 7 137 -7z m-2 -48 c-5 -13 -71 -26 -145 -27 -33 -1 -41 2 -37
13 9 23 189 36 182 14z"/>
<path d="M267 290 c-86 -16 -33 -27 67 -14 25 4 46 11 46 15 0 10 -58 10 -113
-1z"/>
<path d="M310 220 c-8 -5 -39 -10 -69 -10 -51 0 -53 -1 -39 -17 9 -10 22 -37
29 -60 10 -36 15 -42 33 -38 12 3 41 9 65 13 39 6 44 10 47 36 2 15 10 36 18
45 12 13 13 20 4 29 -14 14 -67 16 -88 2z m30 -50 c0 -23 -6 -33 -26 -42 -32
-15 -55 -2 -65 35 -8 29 1 34 59 36 29 1 32 -2 32 -29z"/>
<path d="M650 105 c0 -11 95 -95 107 -95 19 0 16 34 -4 52 -33 28 -103 57
-103 43z"/>
</g>
</svg>
