<?xml version="1.0" standalone="no"?>
<!DOCTYPE svg PUBLIC "-//W3C//DTD SVG 20010904//EN"
 "http://www.w3.org/TR/2001/REC-SVG-20010904/DTD/svg10.dtd">
<svg version="1.0" xmlns="http://www.w3.org/2000/svg"
 width="96.000000pt" height="68.000000pt" viewBox="0 0 96.000000 68.000000"
 preserveAspectRatio="xMidYMid meet">
<metadata>
Created by potrace 1.16, written by Peter Selinger 2001-2019
</metadata>
<g transform="translate(0.000000,68.000000) scale(0.100000,-0.100000)"
fill="#000000" stroke="none">
<path d="M470 544 c-36 -7 -98 -13 -139 -14 -71 0 -73 -1 -67 -22 3 -13 6 -46
6 -73 l0 -50 103 7 c56 4 116 5 133 2 29 -5 32 -3 67 65 l37 71 -36 15 c-20 8
-37 14 -38 14 0 -1 -30 -7 -66 -15z m54 -23 c16 -26 -7 -38 -82 -45 -42 -3
-87 -9 -99 -12 -19 -5 -23 -2 -23 15 0 11 1 21 3 22 8 2 165 27 179 28 9 0 19
-3 22 -8z m-14 -81 c-7 -12 -21 -20 -38 -20 -15 0 -58 -3 -96 -7 -63 -6 -68
-5 -64 13 3 19 46 28 166 32 40 2 42 1 32 -18z"/>
</g>
</svg>
