<?xml version="1.0" standalone="no"?>
<!DOCTYPE svg PUBLIC "-//W3C//DTD SVG 20010904//EN"
 "http://www.w3.org/TR/2001/REC-SVG-20010904/DTD/svg10.dtd">
<svg version="1.0" xmlns="http://www.w3.org/2000/svg"
 width="96.000000pt" height="68.000000pt" viewBox="0 0 96.000000 68.000000"
 preserveAspectRatio="xMidYMid meet">
<metadata>
Created by potrace 1.16, written by Peter Selinger 2001-2019
</metadata>
<g transform="translate(0.000000,68.000000) scale(0.100000,-0.100000)"
fill="#000000" stroke="none">
<path d="M293 388 c-6 -33 -96 -131 -173 -191 l-35 -27 39 15 c21 8 61 31 88
51 l50 35 -5 -68 c-3 -37 -8 -84 -12 -104 -5 -25 -3 -39 8 -48 13 -10 17 -9
25 6 15 29 23 208 10 221 -8 8 -3 21 18 48 51 63 51 64 30 80 -29 21 -36 18
-43 -18z"/>
</g>
</svg>
