<?xml version="1.0" standalone="no"?>
<!DOCTYPE svg PUBLIC "-//W3C//DTD SVG 20010904//EN"
 "http://www.w3.org/TR/2001/REC-SVG-20010904/DTD/svg10.dtd">
<svg version="1.0" xmlns="http://www.w3.org/2000/svg"
 width="96.000000pt" height="68.000000pt" viewBox="0 0 96.000000 68.000000"
 preserveAspectRatio="xMidYMid meet">
<metadata>
Created by potrace 1.16, written by Peter Selinger 2001-2019
</metadata>
<g transform="translate(0.000000,68.000000) scale(0.100000,-0.100000)"
fill="#000000" stroke="none">
<path d="M219 542 c14 -26 64 -62 85 -62 10 0 16 9 16 25 0 27 -14 36 -78 50
-32 7 -33 6 -23 -13z"/>
<path d="M248 425 c-20 -8 -58 -17 -83 -20 -25 -4 -45 -11 -45 -15 0 -18 47
-18 99 0 30 11 57 20 58 20 20 0 -88 -135 -155 -194 -61 -54 -13 -41 59 15 20
16 40 29 44 29 4 0 4 -33 1 -72 -11 -105 -10 -128 3 -141 21 -21 31 13 31 111
0 50 4 92 8 92 5 0 17 -7 28 -15 10 -8 22 -15 27 -15 14 0 7 29 -10 40 -11 7
-14 13 -7 16 6 3 20 11 30 19 16 13 17 16 4 24 -11 8 -23 3 -46 -20 -28 -27
-44 -29 -44 -7 0 5 23 34 52 64 49 52 50 55 32 69 -23 18 -38 18 -86 0z"/>
</g>
</svg>
