<?xml version="1.0" standalone="no"?>
<!DOCTYPE svg PUBLIC "-//W3C//DTD SVG 20010904//EN"
 "http://www.w3.org/TR/2001/REC-SVG-20010904/DTD/svg10.dtd">
<svg version="1.0" xmlns="http://www.w3.org/2000/svg"
 width="96.000000pt" height="68.000000pt" viewBox="0 0 96.000000 68.000000"
 preserveAspectRatio="xMidYMid meet">
<metadata>
Created by potrace 1.16, written by Peter Selinger 2001-2019
</metadata>
<g transform="translate(0.000000,68.000000) scale(0.100000,-0.100000)"
fill="#000000" stroke="none">
<path d="M574 300 c-7 -7 -29 -18 -50 -25 -35 -13 -36 -14 -11 -15 20 0 27 -5
27 -20 0 -15 -7 -20 -27 -21 -16 0 -37 -4 -48 -9 -15 -6 -6 -9 33 -9 38 -1 52
-5 52 -15 0 -18 -16 -22 -104 -31 -47 -5 -65 -10 -58 -17 13 -13 41 -13 105 0
l48 10 -3 -37 c-3 -35 -4 -36 -42 -34 l-38 3 33 -30 c46 -41 66 -39 78 8 6 20
12 48 13 62 3 24 6 25 88 30 77 5 83 6 62 18 -17 10 -42 11 -88 7 -60 -7 -64
-6 -64 13 0 16 8 23 35 28 47 8 45 24 -4 24 -49 0 -64 26 -20 35 17 4 28 12
26 18 -5 16 -30 20 -43 7z"/>
</g>
</svg>
