<?xml version="1.0" standalone="no"?>
<!DOCTYPE svg PUBLIC "-//W3C//DTD SVG 20010904//EN"
 "http://www.w3.org/TR/2001/REC-SVG-20010904/DTD/svg10.dtd">
<svg version="1.0" xmlns="http://www.w3.org/2000/svg"
 width="96.000000pt" height="68.000000pt" viewBox="0 0 96.000000 68.000000"
 preserveAspectRatio="xMidYMid meet">
<metadata>
Created by potrace 1.16, written by Peter Selinger 2001-2019
</metadata>
<g transform="translate(0.000000,68.000000) scale(0.100000,-0.100000)"
fill="#000000" stroke="none">
<path d="M245 533 c7 -56 -17 -182 -37 -194 -7 -5 -37 -9 -65 -9 -29 0 -53 -4
-53 -8 0 -17 49 -31 85 -25 35 6 35 5 25 -21 -14 -39 -14 -41 25 -59 19 -9 35
-20 35 -25 0 -14 -41 -48 -90 -76 -25 -14 -38 -26 -30 -26 24 0 103 39 128 62
l22 22 34 -33 c35 -34 66 -37 66 -7 0 14 -39 51 -63 59 -8 3 -5 18 11 51 12
25 22 53 22 61 0 8 10 23 22 35 12 11 17 20 10 20 -6 0 -9 7 -5 16 4 11 -1 22
-12 30 -32 23 -45 17 -45 -21 0 -21 -5 -35 -12 -35 -7 0 -23 -3 -35 -6 -30 -8
-30 7 2 115 14 47 25 88 25 91 0 8 -46 30 -61 30 -6 0 -7 -19 -4 -47z m80
-225 c-25 -82 -50 -103 -89 -75 -13 9 -16 20 -11 39 10 38 33 53 88 57 15 1
17 -4 12 -21z"/>
</g>
</svg>
