<?xml version="1.0" standalone="no"?>
<!DOCTYPE svg PUBLIC "-//W3C//DTD SVG 20010904//EN"
 "http://www.w3.org/TR/2001/REC-SVG-20010904/DTD/svg10.dtd">
<svg version="1.0" xmlns="http://www.w3.org/2000/svg"
 width="96.000000pt" height="68.000000pt" viewBox="0 0 96.000000 68.000000"
 preserveAspectRatio="xMidYMid meet">
<metadata>
Created by potrace 1.16, written by Peter Selinger 2001-2019
</metadata>
<g transform="translate(0.000000,68.000000) scale(0.100000,-0.100000)"
fill="#000000" stroke="none">
<path d="M234 578 c4 -13 9 -55 13 -94 l6 -71 -39 -6 c-22 -4 -52 -7 -67 -7
-53 0 -23 -25 37 -30 l57 -5 -29 -45 c-16 -25 -53 -69 -82 -98 -37 -37 -48
-52 -35 -52 21 0 78 41 118 84 l28 31 -6 -116 c-5 -98 -3 -118 10 -129 28 -23
35 2 42 138 6 127 7 132 24 116 19 -17 49 -13 49 6 0 6 -16 18 -35 27 -51 24
-46 50 10 64 38 10 43 14 33 26 -7 9 -23 13 -41 10 l-28 -4 2 73 c2 81 -8 104
-48 104 -22 0 -24 -3 -19 -22z"/>
<path d="M720 570 c-25 -5 -55 -6 -67 -3 -21 5 -21 3 -16 -74 3 -43 8 -81 12
-84 3 -4 33 -3 66 1 33 4 63 5 68 3 9 -5 9 -119 0 -243 l-6 -92 -39 5 -38 5
34 -34 c37 -37 52 -41 78 -21 14 11 17 45 20 274 3 255 2 262 -17 267 -23 7
-35 6 -95 -4z m66 -35 c4 -14 5 -28 3 -30 -2 -2 -29 -5 -59 -6 -53 -3 -55 -2
-58 23 -3 25 0 27 40 31 24 2 49 4 55 5 7 1 15 -9 19 -23z m-1 -70 c0 -21 -29
-32 -83 -34 -29 -1 -33 2 -30 22 2 18 11 23 48 28 59 8 65 6 65 -16z"/>
<path d="M460 529 c-14 -6 -36 -8 -50 -5 l-25 5 0 -119 c0 -76 4 -116 10 -112
6 3 5 -1 -1 -9 -6 -8 -14 -45 -18 -84 -9 -94 -9 -106 4 -119 18 -18 27 9 30
87 1 40 3 83 5 97 2 14 4 44 4 67 l1 42 50 7 c44 6 70 23 67 44 0 3 5 22 12
43 7 21 10 44 7 52 -6 17 -58 19 -96 4z m50 -34 c0 -19 -5 -25 -22 -25 -13 0
-33 -3 -45 -6 -20 -5 -23 -2 -23 19 0 27 12 34 63 36 22 1 27 -3 27 -24z m-7
-65 c-3 -11 -9 -20 -13 -20 -4 0 -22 -3 -39 -6 -27 -6 -31 -4 -31 14 0 23 12
30 57 31 26 1 30 -2 26 -19z"/>
<path d="M562 376 c4 -21 0 -25 -36 -32 l-41 -8 43 -4 c27 -2 42 -8 39 -15 -5
-15 -65 -28 -99 -21 -17 3 -28 1 -28 -5 0 -6 4 -11 9 -11 10 0 14 -10 25 -62
5 -23 12 -28 36 -28 17 0 30 -4 30 -9 0 -11 -77 -81 -90 -81 -6 0 -10 -4 -10
-10 0 -14 29 -1 84 38 l49 34 -6 -38 c-6 -36 5 -64 24 -64 5 0 9 25 9 55 0 30
3 55 6 55 3 0 24 -14 45 -31 43 -34 61 -35 48 -3 -4 13 -23 27 -46 34 -62 20
-65 33 -6 27 l52 -6 21 55 c11 31 17 60 14 66 -4 6 -30 8 -70 3 -44 -4 -64 -3
-64 5 0 11 7 14 53 24 40 9 22 28 -19 20 -26 -5 -34 -3 -34 9 0 13 -19 27 -37
27 -3 0 -3 -11 -1 -24z m130 -106 c-5 -33 -10 -37 -54 -45 l-38 -7 0 35 c0 38
14 46 70 43 21 -1 24 -5 22 -26z m-122 -19 c0 -33 -4 -39 -24 -43 -33 -7 -45
2 -52 39 -6 31 -5 32 32 36 22 2 40 4 42 5 1 1 2 -15 2 -37z"/>
<path d="M639 278 c-7 -25 -5 -36 7 -31 16 6 19 33 4 33 -5 0 -10 -1 -11 -2z"/>
<path d="M522 249 c2 -7 10 -15 17 -17 8 -3 12 1 9 9 -2 7 -10 15 -17 17 -8 3
-12 -1 -9 -9z"/>
</g>
</svg>
