<?xml version="1.0" standalone="no"?>
<!DOCTYPE svg PUBLIC "-//W3C//DTD SVG 20010904//EN"
 "http://www.w3.org/TR/2001/REC-SVG-20010904/DTD/svg10.dtd">
<svg version="1.0" xmlns="http://www.w3.org/2000/svg"
 width="96.000000pt" height="68.000000pt" viewBox="0 0 96.000000 68.000000"
 preserveAspectRatio="xMidYMid meet">
<metadata>
Created by potrace 1.16, written by Peter Selinger 2001-2019
</metadata>
<g transform="translate(0.000000,68.000000) scale(0.100000,-0.100000)"
fill="#000000" stroke="none">
<path d="M640 274 c-47 -8 -95 -13 -108 -10 -18 3 -22 0 -17 -13 4 -9 10 -38
14 -64 8 -64 25 -60 29 7 3 53 3 54 40 60 20 3 56 6 78 6 38 0 42 -3 46 -27 6
-44 -2 -63 -25 -63 -21 0 -20 -1 6 -27 25 -25 28 -26 43 -11 9 9 19 36 21 60
2 24 6 49 9 57 5 14 -23 41 -41 39 -5 0 -48 -7 -95 -14z"/>
</g>
</svg>
