<?xml version="1.0" standalone="no"?>
<!DOCTYPE svg PUBLIC "-//W3C//DTD SVG 20010904//EN"
 "http://www.w3.org/TR/2001/REC-SVG-20010904/DTD/svg10.dtd">
<svg version="1.0" xmlns="http://www.w3.org/2000/svg"
 width="96.000000pt" height="68.000000pt" viewBox="0 0 96.000000 68.000000"
 preserveAspectRatio="xMidYMid meet">
<metadata>
Created by potrace 1.16, written by Peter Selinger 2001-2019
</metadata>
<g transform="translate(0.000000,68.000000) scale(0.100000,-0.100000)"
fill="#000000" stroke="none">
<path d="M586 569 c-15 -12 -48 -32 -74 -45 -59 -29 -31 -31 58 -4 101 31 95
28 75 50 -23 25 -26 25 -59 -1z"/>
<path d="M271 519 c-13 -5 -51 -11 -85 -13 -33 -3 -63 -5 -66 -6 -3 0 3 -7 13
-14 10 -8 25 -38 35 -67 16 -51 19 -54 48 -51 l31 3 6 -97 c4 -54 6 -99 4
-100 -1 -1 -13 -4 -27 -6 -24 -3 -25 -1 -30 67 -5 64 -7 70 -28 73 -21 3 -23
1 -18 -25 3 -15 6 -50 8 -78 l2 -50 -37 -3 c-43 -4 -48 -18 -11 -34 21 -10 35
-9 73 5 25 10 69 25 96 33 77 23 105 35 105 46 0 6 -8 7 -17 3 -10 -4 -33 -9
-50 -12 -33 -6 -33 -5 -33 33 0 51 8 62 50 66 19 2 33 7 30 13 -3 5 -20 8 -39
6 -32 -3 -33 -2 -29 28 3 18 0 31 -6 32 -6 1 2 4 18 8 22 4 29 12 32 32 1 15
10 41 19 59 13 24 14 35 4 46 -13 16 -62 18 -98 3z m35 -45 c-3 -9 -6 -24 -6
-34 0 -14 -11 -22 -41 -30 -23 -6 -42 -10 -44 -8 -2 2 -7 20 -13 40 -11 41 -7
44 72 47 31 1 37 -2 32 -15z"/>
<path d="M685 488 c-4 -12 -16 -35 -27 -50 -26 -37 -14 -35 50 9 54 37 56 47
10 58 -22 6 -27 3 -33 -17z"/>
<path d="M535 470 c-3 -5 -2 -10 4 -10 5 0 12 -9 16 -19 8 -26 34 -35 42 -14
4 10 -2 23 -16 35 -26 20 -37 22 -46 8z"/>
<path d="M431 433 c33 -44 42 -51 55 -46 33 12 -6 63 -49 63 -17 0 -18 -2 -6
-17z"/>
<path d="M550 357 l0 -35 -75 -7 c-41 -4 -75 -11 -75 -16 0 -15 49 -22 90 -11
21 5 41 7 44 4 8 -7 -58 -78 -121 -131 -29 -25 -51 -47 -48 -49 8 -8 93 47
135 88 23 22 45 40 48 40 4 0 7 -46 7 -102 0 -96 1 -103 20 -103 19 0 20 8 23
115 l3 114 32 -37 c108 -121 114 -125 177 -118 45 5 42 15 -15 42 -63 30 -183
125 -184 147 -1 9 24 12 95 12 87 0 94 1 79 16 -12 13 -32 15 -98 13 -79 -4
-82 -3 -85 19 -2 12 -7 22 -12 22 -5 0 -15 3 -24 6 -13 5 -16 -1 -16 -29z"/>
</g>
</svg>
