<?xml version="1.0" standalone="no"?>
<!DOCTYPE svg PUBLIC "-//W3C//DTD SVG 20010904//EN"
 "http://www.w3.org/TR/2001/REC-SVG-20010904/DTD/svg10.dtd">
<svg version="1.0" xmlns="http://www.w3.org/2000/svg"
 width="90.000000pt" height="92.000000pt" viewBox="0 0 90.000000 92.000000"
 preserveAspectRatio="xMidYMid meet">
<metadata>
Created by potrace 1.16, written by Peter Selinger 2001-2019
</metadata>
<g transform="translate(0.000000,92.000000) scale(0.100000,-0.100000)"
fill="#000000" stroke="none">
<path d="M171 828 c5 -18 12 -72 16 -119 7 -99 14 -91 -96 -108 -35 -6 -66
-13 -70 -16 -15 -15 30 -26 91 -21 l67 5 -25 -57 c-30 -69 -95 -170 -129 -202
-25 -24 -32 -40 -16 -40 19 0 103 86 137 141 21 33 38 58 39 57 4 -6 -16 -236
-24 -283 -15 -82 25 -163 49 -100 5 14 10 110 10 213 l0 186 39 -38 c39 -38
39 -38 51 -16 15 28 0 46 -51 62 -32 9 -39 16 -39 37 0 38 10 48 58 60 23 7
42 16 42 21 0 16 -41 32 -66 26 -22 -6 -24 -4 -24 32 0 22 5 64 10 93 10 52
10 55 -15 77 -14 12 -35 22 -45 22 -16 0 -17 -4 -9 -32z"/>
<path d="M585 834 c-33 -7 -98 -18 -144 -23 -46 -6 -86 -13 -89 -16 -10 -10 9
-19 50 -24 37 -5 43 -10 50 -40 5 -18 7 -35 4 -38 -2 -2 -34 -5 -70 -5 l-66 0
19 -24 c11 -14 22 -46 26 -73 8 -57 30 -94 43 -73 6 8 50 13 146 16 l138 4 39
67 c21 37 39 71 39 76 0 19 -64 41 -102 36 l-39 -5 7 34 c5 25 3 34 -7 34 -24
1 12 17 54 24 43 8 48 22 11 36 -29 12 -30 12 -109 -6z m-10 -94 c0 -33 -2
-35 -36 -38 -36 -3 -37 -3 -41 38 l-4 41 41 -3 c39 -3 40 -4 40 -38z m101 -97
c-13 -70 -15 -74 -44 -67 -15 4 -28 7 -29 8 -1 1 3 23 9 49 9 43 12 47 40 47
29 0 30 -1 24 -37z m-108 -20 c-3 -46 -4 -48 -35 -51 l-33 -3 0 50 0 51 36 0
35 0 -3 -47z m-108 25 c0 -7 3 -30 6 -50 6 -37 6 -38 -25 -38 -24 0 -32 5 -35
23 -6 24 -9 58 -7 70 2 13 61 8 61 -5z"/>
<path d="M511 474 c-98 -18 -101 -20 -67 -33 21 -9 49 -9 108 -1 105 15 116
19 92 37 -21 15 -34 15 -133 -3z"/>
<path d="M729 406 c-5 -5 -220 -30 -371 -43 -38 -3 -68 -10 -68 -15 0 -5 15
-15 33 -22 27 -12 43 -12 104 2 40 8 76 12 80 8 5 -4 8 -66 8 -136 0 -80 4
-133 11 -140 22 -22 32 15 38 130 3 63 6 125 7 138 1 22 4 22 124 22 68 0 126
4 130 10 10 17 -81 61 -96 46z"/>
<path d="M642 292 c6 -15 74 -105 105 -140 27 -31 34 -34 43 -22 15 22 12 63
-6 88 -25 37 -155 104 -142 74z"/>
<path d="M387 245 c-9 -19 -33 -53 -54 -76 -24 -27 -31 -40 -20 -36 10 4 23 7
28 7 6 0 35 23 64 51 46 43 53 54 44 70 -16 30 -43 23 -62 -16z"/>
</g>
</svg>
