<?xml version="1.0" standalone="no"?>
<!DOCTYPE svg PUBLIC "-//W3C//DTD SVG 20010904//EN"
 "http://www.w3.org/TR/2001/REC-SVG-20010904/DTD/svg10.dtd">
<svg version="1.0" xmlns="http://www.w3.org/2000/svg"
 width="96.000000pt" height="68.000000pt" viewBox="0 0 96.000000 68.000000"
 preserveAspectRatio="xMidYMid meet">
<metadata>
Created by potrace 1.16, written by Peter Selinger 2001-2019
</metadata>
<g transform="translate(0.000000,68.000000) scale(0.100000,-0.100000)"
fill="#000000" stroke="none">
<path d="M585 394 c-33 -7 -79 -13 -101 -14 -44 0 -69 -26 -41 -42 8 -4 35
-32 62 -63 45 -53 47 -57 29 -71 -25 -19 -76 -42 -144 -65 -47 -15 -50 -18
-24 -18 37 -1 125 24 176 50 l37 19 47 -46 47 -47 75 6 c41 3 79 10 84 15 5 5
-17 16 -53 26 -67 18 -169 65 -169 76 0 4 7 13 16 21 9 7 30 33 47 58 17 25
37 52 44 59 19 20 16 31 -13 42 -31 12 -43 12 -119 -6z m50 -51 c-8 -34 -46
-93 -60 -93 -11 0 -114 100 -105 101 54 5 96 12 99 15 2 2 20 4 39 4 32 0 34
-2 27 -27z"/>
</g>
</svg>
