<?xml version="1.0" standalone="no"?>
<!DOCTYPE svg PUBLIC "-//W3C//DTD SVG 20010904//EN"
 "http://www.w3.org/TR/2001/REC-SVG-20010904/DTD/svg10.dtd">
<svg version="1.0" xmlns="http://www.w3.org/2000/svg"
 width="96.000000pt" height="68.000000pt" viewBox="0 0 96.000000 68.000000"
 preserveAspectRatio="xMidYMid meet">
<metadata>
Created by potrace 1.16, written by Peter Selinger 2001-2019
</metadata>
<g transform="translate(0.000000,68.000000) scale(0.100000,-0.100000)"
fill="#000000" stroke="none">
<path d="M294 574 c4 -10 10 -37 13 -61 5 -41 4 -43 -19 -43 -42 0 -88 -12
-82 -21 3 -5 28 -9 56 -9 l51 0 -7 -82 c-10 -123 -47 -192 -135 -256 -36 -26
-40 -32 -22 -32 49 0 110 51 154 128 l24 44 43 -46 c45 -48 67 -57 76 -31 9
21 -12 43 -66 70 l-47 24 8 48 c4 26 8 67 8 90 1 48 5 51 63 61 23 4 43 13 46
21 4 11 -6 13 -46 9 l-51 -5 -3 51 c-3 50 -4 51 -37 54 -29 3 -33 1 -27 -14z"/>
</g>
</svg>
