<?xml version="1.0" standalone="no"?>
<!DOCTYPE svg PUBLIC "-//W3C//DTD SVG 20010904//EN"
 "http://www.w3.org/TR/2001/REC-SVG-20010904/DTD/svg10.dtd">
<svg version="1.0" xmlns="http://www.w3.org/2000/svg"
 width="96.000000pt" height="68.000000pt" viewBox="0 0 96.000000 68.000000"
 preserveAspectRatio="xMidYMid meet">
<metadata>
Created by potrace 1.16, written by Peter Selinger 2001-2019
</metadata>
<g transform="translate(0.000000,68.000000) scale(0.100000,-0.100000)"
fill="#000000" stroke="none">
<path d="M645 180 c-7 -12 2 -30 15 -30 5 0 7 7 4 15 -5 11 -2 13 12 8 12 -4
15 -3 10 5 -9 15 -33 16 -41 2z"/>
<path d="M615 113 c-32 -43 -39 -61 -10 -25 14 17 32 32 40 32 7 0 35 -18 61
-40 51 -42 78 -51 72 -24 -3 15 -19 26 -93 60 -22 10 -42 20 -45 21 -3 1 -14
-10 -25 -24z m145 -48 c11 -13 10 -14 -4 -9 -9 3 -16 10 -16 15 0 13 6 11 20
-6z"/>
</g>
</svg>
