<?xml version="1.0" standalone="no"?>
<!DOCTYPE svg PUBLIC "-//W3C//DTD SVG 20010904//EN"
 "http://www.w3.org/TR/2001/REC-SVG-20010904/DTD/svg10.dtd">
<svg version="1.0" xmlns="http://www.w3.org/2000/svg"
 width="96.000000pt" height="68.000000pt" viewBox="0 0 96.000000 68.000000"
 preserveAspectRatio="xMidYMid meet">
<metadata>
Created by potrace 1.16, written by Peter Selinger 2001-2019
</metadata>
<g transform="translate(0.000000,68.000000) scale(0.100000,-0.100000)"
fill="#000000" stroke="none">
<path d="M377 198 c3 -33 13 -62 26 -76 30 -33 108 -52 211 -52 106 1 168 13
207 41 29 20 29 21 12 52 -9 18 -19 43 -23 57 -6 23 -8 22 -21 -19 -24 -75
-49 -86 -192 -86 -160 0 -181 9 -185 83 -3 43 -6 52 -22 52 -17 0 -18 -6 -13
-52z"/>
</g>
</svg>
