<?xml version="1.0" standalone="no"?>
<!DOCTYPE svg PUBLIC "-//W3C//DTD SVG 20010904//EN"
 "http://www.w3.org/TR/2001/REC-SVG-20010904/DTD/svg10.dtd">
<svg version="1.0" xmlns="http://www.w3.org/2000/svg"
 width="96.000000pt" height="68.000000pt" viewBox="0 0 96.000000 68.000000"
 preserveAspectRatio="xMidYMid meet">
<metadata>
Created by potrace 1.16, written by Peter Selinger 2001-2019
</metadata>
<g transform="translate(0.000000,68.000000) scale(0.100000,-0.100000)"
fill="#000000" stroke="none">
<path d="M498 327 c-81 -11 -89 -27 -15 -27 l52 0 -1 -37 -1 -38 -79 -10 c-50
-6 -74 -13 -66 -18 7 -5 46 -5 85 -1 96 11 99 11 197 13 78 2 83 3 65 17 -15
11 -35 13 -87 8 l-68 -7 0 41 0 41 50 7 c27 4 47 10 44 15 -7 11 -88 9 -176
-4z"/>
</g>
</svg>
