<?xml version="1.0" standalone="no"?>
<!DOCTYPE svg PUBLIC "-//W3C//DTD SVG 20010904//EN"
 "http://www.w3.org/TR/2001/REC-SVG-20010904/DTD/svg10.dtd">
<svg version="1.0" xmlns="http://www.w3.org/2000/svg"
 width="96.000000pt" height="68.000000pt" viewBox="0 0 96.000000 68.000000"
 preserveAspectRatio="xMidYMid meet">
<metadata>
Created by potrace 1.16, written by Peter Selinger 2001-2019
</metadata>
<g transform="translate(0.000000,68.000000) scale(0.100000,-0.100000)"
fill="#000000" stroke="none">
<path d="M615 349 c-38 -11 -74 -20 -79 -22 -5 -2 14 -20 43 -42 49 -37 50
-40 33 -58 -9 -11 -39 -30 -67 -43 -45 -22 -47 -24 -21 -24 16 0 53 13 82 30
l52 29 38 -34 c21 -19 44 -35 51 -35 26 0 12 39 -22 66 -19 14 -35 32 -35 38
0 6 13 28 30 48 23 27 27 38 17 46 -23 19 -53 19 -122 1z m65 -25 c0 -5 -19
-45 -25 -52 -2 -2 -23 7 -47 19 l-43 23 30 7 c39 9 85 11 85 3z"/>
</g>
</svg>
