<?xml version="1.0" standalone="no"?>
<!DOCTYPE svg PUBLIC "-//W3C//DTD SVG 20010904//EN"
 "http://www.w3.org/TR/2001/REC-SVG-20010904/DTD/svg10.dtd">
<svg version="1.0" xmlns="http://www.w3.org/2000/svg"
 width="96.000000pt" height="68.000000pt" viewBox="0 0 96.000000 68.000000"
 preserveAspectRatio="xMidYMid meet">
<metadata>
Created by potrace 1.16, written by Peter Selinger 2001-2019
</metadata>
<g transform="translate(0.000000,68.000000) scale(0.100000,-0.100000)"
fill="#000000" stroke="none">
<path d="M436 406 c-3 -13 -16 -46 -28 -73 -12 -26 -24 -52 -26 -58 -3 -5 7 1
21 14 18 16 52 28 114 40 77 15 85 19 66 29 -16 9 -32 8 -69 -3 -26 -8 -50
-13 -51 -11 -2 2 2 15 8 29 9 21 9 30 -1 42 -18 21 -27 19 -34 -9z"/>
</g>
</svg>
