<?xml version="1.0" standalone="no"?>
<!DOCTYPE svg PUBLIC "-//W3C//DTD SVG 20010904//EN"
 "http://www.w3.org/TR/2001/REC-SVG-20010904/DTD/svg10.dtd">
<svg version="1.0" xmlns="http://www.w3.org/2000/svg"
 width="90.000000pt" height="92.000000pt" viewBox="0 0 90.000000 92.000000"
 preserveAspectRatio="xMidYMid meet">
<metadata>
Created by potrace 1.16, written by Peter Selinger 2001-2019
</metadata>
<g transform="translate(0.000000,92.000000) scale(0.100000,-0.100000)"
fill="#000000" stroke="none">
<path d="M457 766 c3 -35 3 -80 -1 -99 -6 -34 -8 -35 -63 -42 -39 -5 -59 -3
-61 4 -6 19 -20 12 -26 -15 -4 -14 -16 -46 -28 -70 -21 -46 -19 -74 6 -74 16
0 39 38 50 82 5 22 14 28 57 37 29 6 53 10 55 9 1 -2 -8 -42 -21 -91 -32 -123
-76 -207 -153 -288 -35 -38 -63 -71 -61 -73 7 -8 83 34 112 62 68 63 128 185
156 316 l17 81 70 12 c38 6 72 9 76 7 4 -3 0 -23 -8 -46 -19 -54 -19 -53 21
-28 19 12 48 28 65 36 42 22 38 40 -17 67 -45 23 -51 23 -103 11 -101 -24
-100 -25 -83 58 15 71 15 72 -7 90 -12 10 -30 18 -40 18 -16 0 -17 -7 -13 -64z"/>
<path d="M120 732 c0 -22 82 -113 98 -110 28 5 22 67 -8 89 -30 22 -90 36 -90
21z"/>
<path d="M30 544 c0 -3 13 -25 30 -48 44 -66 80 -72 80 -15 0 22 -8 34 -32 49
-31 19 -78 27 -78 14z"/>
<path d="M497 464 c-3 -3 -1 -17 4 -31 5 -14 7 -73 4 -131 -7 -118 -1 -140 48
-176 21 -15 47 -22 100 -24 85 -5 146 9 184 42 l27 24 -24 73 -24 73 -12 -54
c-7 -32 -21 -61 -33 -72 -40 -32 -172 -36 -208 -6 -18 15 -17 120 3 193 15 59
15 60 -7 77 -21 18 -50 23 -62 12z"/>
<path d="M170 364 c-19 -36 -50 -82 -69 -101 -29 -30 -33 -39 -28 -70 6 -36
31 -83 45 -83 6 0 103 294 102 313 0 21 -19 0 -50 -59z"/>
</g>
</svg>
