<?xml version="1.0" standalone="no"?>
<!DOCTYPE svg PUBLIC "-//W3C//DTD SVG 20010904//EN"
 "http://www.w3.org/TR/2001/REC-SVG-20010904/DTD/svg10.dtd">
<svg version="1.0" xmlns="http://www.w3.org/2000/svg"
 width="96.000000pt" height="68.000000pt" viewBox="0 0 96.000000 68.000000"
 preserveAspectRatio="xMidYMid meet">
<metadata>
Created by potrace 1.16, written by Peter Selinger 2001-2019
</metadata>
<g transform="translate(0.000000,68.000000) scale(0.100000,-0.100000)"
fill="#000000" stroke="none">
<path d="M250 590 c0 -44 -46 -136 -107 -216 -36 -47 -63 -87 -61 -90 6 -6 88
54 110 80 17 20 17 18 18 -67 0 -49 -5 -108 -11 -131 -9 -36 -8 -49 6 -76 16
-30 18 -31 33 -16 14 14 18 46 23 169 4 107 2 158 -6 172 -10 16 -6 29 26 80
44 68 48 90 20 105 -31 16 -51 12 -51 -10z"/>
<path d="M600 559 c-47 -10 -121 -20 -165 -21 l-80 -3 3 -109 c5 -132 -9 -210
-49 -278 -16 -28 -28 -52 -26 -54 1 -2 15 8 30 22 58 53 87 156 87 303 l0 86
113 18 c61 9 126 17 143 17 35 0 34 8 20 -132 -6 -57 12 -187 30 -227 29 -64
86 -111 134 -111 21 0 27 14 10 25 -5 3 -10 31 -10 61 0 60 -12 71 -26 22 -13
-45 -34 -41 -64 12 -23 41 -25 56 -25 160 0 104 2 119 24 158 16 26 21 46 15
51 -18 19 -81 18 -164 0z"/>
<path d="M503 447 c-65 -11 -85 -27 -34 -27 25 0 29 -4 33 -35 4 -37 3 -38
-55 -37 -28 1 -29 0 -23 -41 3 -23 5 -57 5 -74 1 -22 6 -33 16 -33 10 0 15 16
17 63 3 56 5 62 26 65 23 4 23 3 22 -105 -2 -153 -1 -163 9 -163 13 0 21 62
24 180 l2 95 28 3 c27 3 27 2 27 -52 0 -51 -2 -56 -22 -56 -20 0 -21 -1 -3
-20 38 -42 59 -19 68 77 8 71 -3 84 -60 76 -28 -5 -33 -2 -33 15 0 11 -3 27
-6 36 -5 13 2 16 35 16 30 0 41 4 41 15 0 17 -21 17 -117 2z"/>
</g>
</svg>
