<?xml version="1.0" standalone="no"?>
<!DOCTYPE svg PUBLIC "-//W3C//DTD SVG 20010904//EN"
 "http://www.w3.org/TR/2001/REC-SVG-20010904/DTD/svg10.dtd">
<svg version="1.0" xmlns="http://www.w3.org/2000/svg"
 width="96.000000pt" height="68.000000pt" viewBox="0 0 96.000000 68.000000"
 preserveAspectRatio="xMidYMid meet">
<metadata>
Created by potrace 1.16, written by Peter Selinger 2001-2019
</metadata>
<g transform="translate(0.000000,68.000000) scale(0.100000,-0.100000)"
fill="#000000" stroke="none">
<path d="M458 306 c4 -42 3 -43 -28 -50 -18 -3 -47 -6 -66 -6 -18 0 -36 -4
-39 -10 -7 -11 17 -14 83 -10 l43 2 -19 -39 c-25 -47 -63 -83 -122 -117 -25
-14 -37 -26 -28 -26 51 0 144 67 181 130 l22 39 80 -85 80 -84 78 0 c42 0 77
4 77 8 0 5 -19 15 -42 22 -74 22 -170 73 -217 117 l-46 42 45 2 c25 1 49 1 54
0 5 -1 22 1 38 4 29 7 29 7 9 21 -16 11 -36 13 -81 8 l-60 -7 11 33 c13 35 3
50 -36 50 -18 0 -20 -5 -17 -44z"/>
</g>
</svg>
