<?xml version="1.0" standalone="no"?>
<!DOCTYPE svg PUBLIC "-//W3C//DTD SVG 20010904//EN"
 "http://www.w3.org/TR/2001/REC-SVG-20010904/DTD/svg10.dtd">
<svg version="1.0" xmlns="http://www.w3.org/2000/svg"
 width="96.000000pt" height="68.000000pt" viewBox="0 0 96.000000 68.000000"
 preserveAspectRatio="xMidYMid meet">
<metadata>
Created by potrace 1.16, written by Peter Selinger 2001-2019
</metadata>
<g transform="translate(0.000000,68.000000) scale(0.100000,-0.100000)"
fill="#000000" stroke="none">
<path d="M275 422 c0 -99 -2 -112 -31 -173 -18 -37 -49 -85 -69 -108 -42 -46
-41 -50 9 -20 58 34 104 106 125 195 l12 51 154 13 c85 7 152 17 149 21 -6 11
27 69 40 69 5 0 1 9 -9 20 -23 25 -54 25 -175 0 -52 -11 -108 -20 -124 -20
-25 0 -28 3 -24 24 5 25 -7 36 -40 36 -15 0 -17 -14 -17 -108z m325 48 c0 -5
-5 -20 -11 -33 -9 -21 -21 -25 -107 -35 -53 -7 -112 -12 -130 -12 -30 0 -32 2
-26 28 4 15 7 28 8 29 1 0 42 8 91 16 108 17 175 20 175 7z"/>
</g>
</svg>
