<?xml version="1.0" standalone="no"?>
<!DOCTYPE svg PUBLIC "-//W3C//DTD SVG 20010904//EN"
 "http://www.w3.org/TR/2001/REC-SVG-20010904/DTD/svg10.dtd">
<svg version="1.0" xmlns="http://www.w3.org/2000/svg"
 width="96.000000pt" height="68.000000pt" viewBox="0 0 96.000000 68.000000"
 preserveAspectRatio="xMidYMid meet">
<metadata>
Created by potrace 1.16, written by Peter Selinger 2001-2019
</metadata>
<g transform="translate(0.000000,68.000000) scale(0.100000,-0.100000)"
fill="#000000" stroke="none">
<path d="M692 310 c5 -33 -5 -40 -58 -40 -31 0 -33 -2 -22 -19 10 -16 7 -26
-15 -60 -15 -22 -27 -43 -27 -47 0 -3 30 -2 66 2 45 4 65 3 60 -4 -3 -5 -3
-38 1 -71 8 -78 23 -67 30 23 l6 66 53 0 c30 0 54 4 54 9 0 14 -44 22 -80 15
-31 -7 -31 -7 -28 32 3 35 6 39 33 42 36 4 58 21 29 23 -10 1 -27 1 -36 0 -13
-2 -18 5 -18 22 0 23 -16 37 -42 37 -6 0 -8 -13 -6 -30z m-2 -100 c0 -39 -1
-40 -34 -40 l-35 0 17 40 c23 55 52 55 52 0z"/>
</g>
</svg>
