<?xml version="1.0" standalone="no"?>
<!DOCTYPE svg PUBLIC "-//W3C//DTD SVG 20010904//EN"
 "http://www.w3.org/TR/2001/REC-SVG-20010904/DTD/svg10.dtd">
<svg version="1.0" xmlns="http://www.w3.org/2000/svg"
 width="96.000000pt" height="68.000000pt" viewBox="0 0 96.000000 68.000000"
 preserveAspectRatio="xMidYMid meet">
<metadata>
Created by potrace 1.16, written by Peter Selinger 2001-2019
</metadata>
<g transform="translate(0.000000,68.000000) scale(0.100000,-0.100000)"
fill="#000000" stroke="none">
<path d="M410 444 c0 -3 9 -18 20 -34 l19 -27 -107 -6 c-68 -3 -112 -1 -120 5
-15 13 -14 14 -41 -39 -27 -53 -27 -73 0 -73 14 0 25 12 37 40 16 37 20 40 57
40 22 0 121 9 219 20 99 11 184 16 188 12 5 -5 -1 -20 -12 -34 -11 -15 -20
-28 -20 -30 0 -2 29 3 65 11 37 8 65 20 65 27 0 7 -14 23 -31 35 -30 21 -34
21 -130 10 -134 -15 -139 -15 -139 9 0 10 -9 24 -19 30 -21 11 -51 14 -51 4z"/>
</g>
</svg>
