<?xml version="1.0" standalone="no"?>
<!DOCTYPE svg PUBLIC "-//W3C//DTD SVG 20010904//EN"
 "http://www.w3.org/TR/2001/REC-SVG-20010904/DTD/svg10.dtd">
<svg version="1.0" xmlns="http://www.w3.org/2000/svg"
 width="90.000000pt" height="92.000000pt" viewBox="0 0 90.000000 92.000000"
 preserveAspectRatio="xMidYMid meet">
<metadata>
Created by potrace 1.16, written by Peter Selinger 2001-2019
</metadata>
<g transform="translate(0.000000,92.000000) scale(0.100000,-0.100000)"
fill="#000000" stroke="none">
<path d="M426 828 c3 -13 15 -35 26 -50 17 -25 17 -28 3 -28 -29 0 -260 -31
-264 -36 -3 -2 4 -11 15 -18 16 -13 19 -26 18 -99 -3 -163 -58 -343 -143 -467
-23 -33 -37 -60 -32 -60 5 0 34 27 64 59 86 93 123 199 161 459 7 51 16 95 18
97 9 9 212 34 331 41 64 4 117 10 117 14 0 4 -9 15 -20 25 -20 18 -73 18 -184
-1 -29 -5 -37 -4 -32 5 13 21 -2 57 -29 69 -41 19 -57 16 -49 -10z"/>
<path d="M392 624 c-27 -27 -38 -32 -63 -27 -16 3 -29 4 -29 2 0 -2 4 -19 10
-38 6 -22 6 -58 0 -99 -6 -44 -5 -72 2 -85 9 -18 14 -15 68 38 56 55 58 57 69
36 14 -25 29 -27 37 -6 11 27 -6 64 -36 80 -39 20 -41 19 -30 -11 6 -14 8 -29
5 -34 -7 -11 -65 -34 -71 -27 -3 3 -3 30 1 60 7 55 8 56 55 76 27 12 53 21 59
21 17 0 13 21 -6 36 -25 19 -33 16 -71 -22z"/>
<path d="M608 631 c-42 -9 -80 -20 -84 -24 -4 -3 7 -12 24 -20 l30 -12 -18
-51 c-9 -28 -34 -77 -54 -108 -24 -38 -30 -54 -19 -47 31 16 80 74 116 136 31
53 34 62 21 76 -13 15 -12 17 8 23 13 3 33 6 46 6 19 0 22 -5 22 -40 0 -22 -7
-56 -14 -75 -13 -29 -20 -35 -46 -35 l-30 0 22 -35 c13 -19 31 -35 41 -35 25
0 53 51 67 123 7 34 17 71 22 81 9 16 6 23 -12 38 -26 21 -38 21 -142 -1z"/>
<path d="M60 619 c0 -6 12 -33 28 -60 33 -59 62 -67 62 -16 0 40 -7 50 -47 71
-38 19 -43 20 -43 5z"/>
<path d="M116 434 c-22 -19 -54 -39 -73 -46 -43 -15 -43 -33 -1 -66 14 -12 21
-7 56 40 41 57 66 98 60 103 -2 2 -21 -12 -42 -31z"/>
<path d="M678 374 c-12 -12 -307 -55 -345 -51 -24 2 -43 3 -43 2 0 -1 6 -18
14 -36 8 -19 19 -72 24 -118 10 -82 25 -118 40 -94 4 6 58 14 137 18 l130 7
12 -32 c14 -36 28 -36 56 2 14 18 22 52 27 112 5 47 11 99 15 116 5 24 3 35
-12 46 -29 23 -50 34 -55 28z m-14 -50 c10 -4 16 -18 16 -39 l0 -32 -55 -1
c-30 0 -63 -3 -75 -7 -18 -6 -20 -2 -20 34 0 40 0 40 43 44 23 2 50 4 59 5 9
1 23 -1 32 -4z m-183 -21 c0 -5 3 -20 5 -36 5 -31 2 -33 -73 -42 l-53 -6 0 34
c0 36 0 36 113 56 4 0 7 -2 8 -6z m199 -112 c0 -40 -10 -62 -23 -54 -7 4 -38
6 -69 5 l-58 -3 0 35 c0 34 1 35 48 39 109 8 102 10 102 -22z m-190 -21 c0
-34 -3 -36 -72 -44 l-48 -6 0 35 c0 32 2 34 38 38 85 9 82 9 82 -23z"/>
</g>
</svg>
