<?xml version="1.0" standalone="no"?>
<!DOCTYPE svg PUBLIC "-//W3C//DTD SVG 20010904//EN"
 "http://www.w3.org/TR/2001/REC-SVG-20010904/DTD/svg10.dtd">
<svg version="1.0" xmlns="http://www.w3.org/2000/svg"
 width="90.000000pt" height="92.000000pt" viewBox="0 0 90.000000 92.000000"
 preserveAspectRatio="xMidYMid meet">
<metadata>
Created by potrace 1.16, written by Peter Selinger 2001-2019
</metadata>
<g transform="translate(0.000000,92.000000) scale(0.100000,-0.100000)"
fill="#000000" stroke="none">
<path d="M496 843 c4 -10 10 -50 12 -89 4 -83 4 -84 -112 -84 l-68 0 8 -27 c5
-16 9 -86 9 -158 -1 -147 -16 -218 -68 -324 -44 -90 -44 -90 -8 -56 70 66 114
209 127 418 3 59 9 109 13 111 3 2 25 7 47 11 40 6 42 5 47 -22 6 -34 6 -34
-35 -42 -41 -8 -34 -26 10 -25 25 1 32 -3 32 -17 0 -29 39 -49 96 -49 55 0
114 16 114 31 0 18 -46 32 -68 20 -31 -17 -112 -14 -112 3 0 10 19 19 55 26
38 8 55 16 55 27 0 13 -9 15 -54 9 -51 -6 -54 -5 -49 15 3 12 0 25 -7 29 -13
8 13 14 123 26 63 7 71 -2 41 -44 -9 -13 -14 -24 -13 -26 12 -8 129 28 129 39
0 13 -65 75 -78 75 -4 -1 -36 -7 -72 -15 -98 -22 -110 -20 -110 13 0 26 3 29
38 30 65 2 113 13 109 25 -4 13 -65 15 -115 5 l-33 -8 7 34 c5 28 2 36 -14 45
-12 6 -30 11 -42 11 -18 0 -20 -4 -14 -17z"/>
<path d="M148 845 c-3 -3 1 -29 9 -58 7 -28 12 -81 11 -117 l-3 -65 -50 -8
c-27 -5 -59 -12 -70 -17 -18 -7 -17 -9 10 -20 16 -6 44 -9 62 -5 25 4 33 2 33
-9 0 -27 -60 -148 -106 -214 -25 -35 -43 -69 -41 -76 7 -19 102 87 132 147 15
32 29 57 31 57 2 0 2 -19 -1 -42 -26 -249 -28 -288 -15 -317 7 -17 16 -31 20
-31 21 0 30 63 30 223 l0 172 31 -32 c34 -37 59 -43 59 -14 0 24 -19 44 -59
61 -26 10 -31 17 -27 39 2 14 5 31 5 37 1 7 21 17 45 23 25 6 47 15 51 20 10
16 -34 33 -67 26 l-31 -7 7 66 c4 37 9 80 12 96 5 25 2 32 -27 49 -36 22 -43
24 -51 16z"/>
<path d="M595 464 c-33 -7 -84 -13 -114 -14 -47 0 -52 -2 -46 -17 7 -17 18
-58 30 -116 l6 -29 87 8 c48 4 96 7 106 8 14 1 29 21 52 73 l33 73 -29 15
c-34 18 -45 17 -125 -1z m75 -43 c0 -15 -7 -18 -38 -17 -32 0 -38 4 -34 18 7
26 72 25 72 -1z m-117 -10 c4 -16 -2 -20 -29 -23 -27 -3 -34 0 -34 13 0 31 55
40 63 10z m105 -53 c-2 -18 -11 -24 -35 -26 -27 -3 -33 0 -33 17 0 18 13 25
58 30 8 0 12 -7 10 -21z m-108 -18 c0 -16 -7 -20 -30 -20 -23 0 -30 4 -30 20
0 16 7 20 30 20 23 0 30 -4 30 -20z"/>
<path d="M635 274 c-38 -7 -109 -16 -157 -20 -87 -7 -97 -11 -79 -30 5 -5 13
-35 18 -66 l10 -58 -59 0 c-61 0 -75 -13 -34 -32 19 -8 48 -8 114 1 48 6 159
11 245 11 154 0 185 6 158 33 -7 7 -39 14 -72 17 l-60 5 25 50 c32 63 32 69
-1 85 -36 18 -28 18 -108 4z m51 -74 c-10 -72 -14 -80 -47 -80 -34 0 -35 4
-13 56 12 29 13 43 5 56 -10 16 -7 18 25 18 l37 0 -7 -50z m-96 -25 c0 -58 -2
-65 -20 -65 -17 0 -20 7 -21 43 0 23 -2 52 -5 65 -3 18 1 22 21 22 24 0 25 -2
25 -65z m-75 -10 l13 -55 -33 0 c-32 0 -33 1 -37 46 -4 50 -1 58 22 66 20 7
21 7 35 -57z"/>
</g>
</svg>
