<?xml version="1.0" standalone="no"?>
<!DOCTYPE svg PUBLIC "-//W3C//DTD SVG 20010904//EN"
 "http://www.w3.org/TR/2001/REC-SVG-20010904/DTD/svg10.dtd">
<svg version="1.0" xmlns="http://www.w3.org/2000/svg"
 width="96.000000pt" height="68.000000pt" viewBox="0 0 96.000000 68.000000"
 preserveAspectRatio="xMidYMid meet">
<metadata>
Created by potrace 1.16, written by Peter Selinger 2001-2019
</metadata>
<g transform="translate(0.000000,68.000000) scale(0.100000,-0.100000)"
fill="#000000" stroke="none">
<path d="M620 105 c0 -38 -3 -45 -20 -45 -15 0 -21 9 -26 40 -4 24 -12 40 -20
40 -10 0 -12 -9 -7 -32 3 -18 6 -37 7 -42 0 -5 -35 -11 -79 -13 -44 -2 -87 -7
-95 -10 -28 -11 43 -19 110 -11 36 4 131 7 213 7 84 1 147 5 147 10 0 18 -42
23 -131 16 -49 -4 -89 -4 -89 -1 0 4 7 20 15 37 17 32 13 49 -11 49 -10 0 -14
-12 -14 -45z"/>
</g>
</svg>
