<?xml version="1.0" standalone="no"?>
<!DOCTYPE svg PUBLIC "-//W3C//DTD SVG 20010904//EN"
 "http://www.w3.org/TR/2001/REC-SVG-20010904/DTD/svg10.dtd">
<svg version="1.0" xmlns="http://www.w3.org/2000/svg"
 width="96.000000pt" height="68.000000pt" viewBox="0 0 96.000000 68.000000"
 preserveAspectRatio="xMidYMid meet">
<metadata>
Created by potrace 1.16, written by Peter Selinger 2001-2019
</metadata>
<g transform="translate(0.000000,68.000000) scale(0.100000,-0.100000)"
fill="#000000" stroke="none">
<path d="M575 514 c-33 -7 -75 -13 -92 -14 -18 0 -33 -4 -33 -9 0 -18 46 -20
109 -5 35 8 66 12 69 9 3 -2 -8 -21 -23 -40 -15 -20 -25 -39 -21 -42 7 -7 136
68 136 80 0 8 -63 38 -77 36 -4 -1 -35 -7 -68 -15z"/>
</g>
</svg>
