<?xml version="1.0" standalone="no"?>
<!DOCTYPE svg PUBLIC "-//W3C//DTD SVG 20010904//EN"
 "http://www.w3.org/TR/2001/REC-SVG-20010904/DTD/svg10.dtd">
<svg version="1.0" xmlns="http://www.w3.org/2000/svg"
 width="96.000000pt" height="68.000000pt" viewBox="0 0 96.000000 68.000000"
 preserveAspectRatio="xMidYMid meet">
<metadata>
Created by potrace 1.16, written by Peter Selinger 2001-2019
</metadata>
<g transform="translate(0.000000,68.000000) scale(0.100000,-0.100000)"
fill="#000000" stroke="none">
<path d="M226 582 c-2 -4 0 -29 5 -57 15 -96 13 -113 -21 -119 -16 -3 -43 -9
-60 -12 -51 -10 -33 -24 30 -24 l60 0 0 -38 c0 -36 -3 -39 -62 -73 -35 -20
-71 -39 -80 -42 -23 -8 -23 -24 1 -37 31 -16 48 -12 84 20 19 17 38 30 41 30
4 0 6 -28 4 -62 l-3 -63 -32 3 c-18 1 -33 0 -33 -2 0 -9 73 -76 82 -76 27 0
37 37 38 139 0 100 1 106 27 133 29 31 26 46 -6 28 -19 -10 -21 -8 -21 18 0
24 5 30 36 38 45 12 49 28 7 32 -31 3 -33 6 -33 42 0 21 4 50 9 63 8 19 6 28
-7 40 -20 16 -60 28 -66 19z"/>
<path d="M636 529 c-7 -46 -59 -164 -83 -191 -25 -28 1 -21 27 7 16 17 34 25
56 25 37 0 47 -17 39 -66 -3 -19 -8 -51 -11 -71 l-6 -38 -39 45 c-30 35 -41
42 -51 32 -9 -9 -9 -12 0 -12 6 0 24 -19 41 -43 l30 -44 -19 -28 c-10 -16 -31
-35 -45 -43 -15 -7 -25 -16 -22 -18 7 -7 87 27 87 37 0 19 21 8 53 -28 30 -32
41 -37 90 -41 73 -6 74 9 5 43 -29 14 -64 34 -77 44 l-25 19 18 76 c10 42 16
92 13 110 -6 36 7 46 61 46 12 0 22 4 22 9 0 17 -52 18 -110 3 -33 -9 -62 -14
-65 -11 -3 4 11 39 30 79 38 75 39 100 7 100 -15 0 -21 -10 -26 -41z"/>
<path d="M390 542 c0 -5 11 -18 23 -31 21 -19 26 -20 36 -7 10 11 8 17 -11 30
-24 17 -48 21 -48 8z"/>
<path d="M493 494 c-6 -3 -47 -11 -90 -18 -55 -10 -67 -14 -40 -15 45 -1 50
-25 12 -61 -14 -13 -25 -32 -25 -41 0 -20 22 -19 110 7 29 9 48 10 54 4 15
-15 36 -12 36 4 0 16 -59 63 -61 49 -1 -4 -1 -15 0 -25 1 -12 -9 -18 -39 -23
-23 -4 -44 -4 -47 -1 -4 3 6 19 21 35 16 16 25 34 22 40 -7 10 13 17 63 23 29
3 42 28 14 27 -10 0 -23 -3 -30 -5z"/>
<path d="M476 313 c-3 -3 -26 -7 -53 -8 l-48 -3 -8 -84 c-4 -45 -8 -94 -10
-108 -5 -54 25 -35 38 23 5 25 9 27 50 27 l45 0 0 -40 c0 -37 -2 -40 -27 -40
l-28 0 28 -27 c26 -26 28 -27 44 -10 15 14 18 37 19 121 0 57 4 108 8 115 13
20 -40 51 -58 34z m14 -42 c0 -19 -25 -31 -67 -31 -28 0 -32 36 -5 43 44 12
72 7 72 -12z m0 -66 c0 -21 -5 -25 -29 -25 -16 0 -36 -3 -45 -6 -12 -5 -16 0
-16 19 0 26 12 32 68 36 17 1 22 -4 22 -24z"/>
</g>
</svg>
