<?xml version="1.0" standalone="no"?>
<!DOCTYPE svg PUBLIC "-//W3C//DTD SVG 20010904//EN"
 "http://www.w3.org/TR/2001/REC-SVG-20010904/DTD/svg10.dtd">
<svg version="1.0" xmlns="http://www.w3.org/2000/svg"
 width="96.000000pt" height="68.000000pt" viewBox="0 0 96.000000 68.000000"
 preserveAspectRatio="xMidYMid meet">
<metadata>
Created by potrace 1.16, written by Peter Selinger 2001-2019
</metadata>
<g transform="translate(0.000000,68.000000) scale(0.100000,-0.100000)"
fill="#000000" stroke="none">
<path d="M480 582 c0 -6 13 -23 28 -40 l28 -30 -29 -6 c-16 -3 -44 -6 -63 -6
-18 0 -36 -5 -40 -12 -9 -14 173 -5 255 13 73 15 55 33 -25 25 -59 -6 -64 -5
-64 12 0 11 -6 24 -12 30 -19 15 -78 25 -78 14z"/>
</g>
</svg>
