<?xml version="1.0" standalone="no"?>
<!DOCTYPE svg PUBLIC "-//W3C//DTD SVG 20010904//EN"
 "http://www.w3.org/TR/2001/REC-SVG-20010904/DTD/svg10.dtd">
<svg version="1.0" xmlns="http://www.w3.org/2000/svg"
 width="96.000000pt" height="68.000000pt" viewBox="0 0 96.000000 68.000000"
 preserveAspectRatio="xMidYMid meet">
<metadata>
Created by potrace 1.16, written by Peter Selinger 2001-2019
</metadata>
<g transform="translate(0.000000,68.000000) scale(0.100000,-0.100000)"
fill="#000000" stroke="none">
<path d="M456 543 c5 -10 11 -104 14 -209 6 -215 9 -224 80 -245 51 -15 227
-8 265 11 33 17 34 27 13 105 -15 51 -21 51 -32 -1 -4 -18 -15 -39 -24 -47
-49 -44 -195 -44 -239 -1 -20 20 -23 33 -23 102 l0 80 38 6 c67 12 202 56 202
67 0 5 -10 14 -23 20 -19 9 -30 6 -60 -14 -42 -29 -145 -72 -153 -64 -3 3 2
43 10 89 9 47 16 87 16 90 0 7 -58 28 -78 28 -10 0 -12 -5 -6 -17z"/>
</g>
</svg>
