<?xml version="1.0" standalone="no"?>
<!DOCTYPE svg PUBLIC "-//W3C//DTD SVG 20010904//EN"
 "http://www.w3.org/TR/2001/REC-SVG-20010904/DTD/svg10.dtd">
<svg version="1.0" xmlns="http://www.w3.org/2000/svg"
 width="96.000000pt" height="68.000000pt" viewBox="0 0 96.000000 68.000000"
 preserveAspectRatio="xMidYMid meet">
<metadata>
Created by potrace 1.16, written by Peter Selinger 2001-2019
</metadata>
<g transform="translate(0.000000,68.000000) scale(0.100000,-0.100000)"
fill="#000000" stroke="none">
<path d="M294 546 c-3 -17 -19 -53 -35 -81 -31 -55 -120 -164 -131 -162 -10 3
-41 -43 -35 -50 10 -10 78 30 123 73 l46 44 -5 -97 c-3 -54 -9 -114 -12 -133
-8 -43 20 -86 45 -70 12 7 16 43 21 162 3 84 2 160 -2 169 -6 12 0 29 20 56
49 68 53 78 33 99 -28 31 -60 26 -68 -10z"/>
<path d="M456 552 c-2 -4 -1 -14 5 -22 5 -8 9 -96 9 -196 0 -196 0 -198 60
-233 28 -17 52 -21 123 -21 92 0 170 14 185 34 5 6 2 38 -9 76 -9 36 -19 58
-22 50 -2 -8 -8 -28 -13 -44 -16 -51 -53 -69 -139 -69 -87 1 -131 15 -139 46
-3 12 -6 54 -6 93 l0 71 62 13 c85 16 168 49 168 65 0 21 -39 29 -58 12 -20
-17 -145 -77 -161 -77 -13 0 -14 6 -2 67 23 119 24 113 -14 129 -40 16 -42 17
-49 6z"/>
</g>
</svg>
