<?xml version="1.0" standalone="no"?>
<!DOCTYPE svg PUBLIC "-//W3C//DTD SVG 20010904//EN"
 "http://www.w3.org/TR/2001/REC-SVG-20010904/DTD/svg10.dtd">
<svg version="1.0" xmlns="http://www.w3.org/2000/svg"
 width="96.000000pt" height="68.000000pt" viewBox="0 0 96.000000 68.000000"
 preserveAspectRatio="xMidYMid meet">
<metadata>
Created by potrace 1.16, written by Peter Selinger 2001-2019
</metadata>
<g transform="translate(0.000000,68.000000) scale(0.100000,-0.100000)"
fill="#000000" stroke="none">
<path d="M527 574 c-2 -3 -2 -24 0 -48 5 -39 3 -44 -18 -49 -13 -4 -34 -7 -47
-7 -13 0 -20 -4 -17 -10 3 -5 25 -10 49 -10 41 0 42 -1 38 -29 -3 -25 -9 -29
-49 -35 -25 -3 -61 -6 -80 -6 -20 0 -32 -4 -28 -10 3 -5 26 -10 51 -10 55 0
56 -12 4 -61 -44 -42 -49 -52 -22 -42 54 19 116 88 92 103 -7 4 5 10 27 13 70
12 73 11 73 -33 0 -48 20 -60 106 -60 41 0 54 4 54 15 0 8 -8 15 -17 16 -10 0
-38 1 -63 2 -42 2 -45 4 -42 27 5 36 13 40 77 47 53 6 56 7 39 20 -19 14 -58
13 -151 -3 -31 -6 -33 -4 -33 23 0 27 4 30 50 42 61 16 56 36 -6 26 l-44 -6 3
37 c2 29 -2 38 -20 44 -11 5 -23 7 -26 4z"/>
<path d="M244 533 c-17 -55 -52 -118 -76 -138 -29 -25 -34 -40 -19 -64 8 -12
14 -12 40 -2 54 23 59 7 12 -37 -36 -33 -42 -44 -32 -55 10 -12 21 -11 77 10
37 13 75 21 84 18 28 -9 33 12 10 35 -25 25 -38 26 -36 3 1 -19 -63 -47 -77
-34 -4 4 27 42 69 84 65 65 75 79 64 92 -20 24 -36 18 -55 -24 -14 -32 -24
-40 -52 -46 -19 -3 -37 -4 -40 -2 -2 3 19 35 47 71 27 37 50 71 50 76 0 10
-33 30 -50 30 -6 0 -13 -8 -16 -17z"/>
<path d="M503 282 c-16 -53 -57 -104 -108 -138 -14 -9 -24 -19 -21 -21 5 -6
66 25 89 45 16 14 20 14 44 -4 15 -11 28 -25 30 -31 7 -19 -86 -66 -172 -86
-16 -4 -15 -5 6 -6 34 -1 127 26 166 50 l32 20 33 -29 c18 -15 46 -33 61 -40
32 -14 153 -16 161 -3 3 4 -25 17 -62 28 -87 27 -152 55 -152 67 0 14 51 86
61 86 5 0 9 7 9 15 0 21 -41 28 -86 16 -52 -14 -52 -14 -47 13 4 17 0 25 -17
29 -14 4 -23 0 -27 -11z m107 -65 c0 -10 -17 -42 -36 -66 -6 -7 -74 44 -74 56
0 7 18 14 43 16 23 2 48 4 55 5 6 1 12 -4 12 -11z"/>
<path d="M300 222 c0 -12 34 -42 48 -42 17 0 15 15 -6 33 -20 18 -42 22 -42 9z"/>
<path d="M210 192 c0 -12 44 -52 58 -52 16 0 15 25 0 38 -19 15 -58 25 -58 14z"/>
<path d="M110 160 c0 -18 51 -80 66 -80 20 0 17 44 -3 62 -25 21 -63 32 -63
18z"/>
</g>
</svg>
