<?xml version="1.0" standalone="no"?>
<!DOCTYPE svg PUBLIC "-//W3C//DTD SVG 20010904//EN"
 "http://www.w3.org/TR/2001/REC-SVG-20010904/DTD/svg10.dtd">
<svg version="1.0" xmlns="http://www.w3.org/2000/svg"
 width="90.000000pt" height="92.000000pt" viewBox="0 0 90.000000 92.000000"
 preserveAspectRatio="xMidYMid meet">
<metadata>
Created by potrace 1.16, written by Peter Selinger 2001-2019
</metadata>
<g transform="translate(0.000000,92.000000) scale(0.100000,-0.100000)"
fill="#000000" stroke="none">
<path d="M580 800 c-36 -9 -242 -34 -363 -45 -57 -6 -66 -9 -56 -21 7 -9 32
-14 70 -14 66 0 64 3 74 -101 l6 -65 -49 -12 c-27 -6 -66 -9 -85 -5 l-36 5 4
-117 c1 -64 7 -121 12 -126 5 -5 30 -2 57 6 27 8 62 15 79 15 l29 0 -3 -79
c-2 -44 -7 -83 -11 -86 -6 -6 -170 -22 -241 -24 -26 -1 -11 -20 27 -36 25 -10
47 -10 121 2 50 8 205 17 345 21 216 6 255 9 255 22 0 20 -51 43 -90 42 -16
-1 -66 -6 -110 -11 -44 -5 -80 -9 -81 -8 0 1 2 41 4 88 l4 87 84 7 83 7 -5 28
c-5 20 3 45 27 90 l33 62 -28 24 c-31 27 -52 29 -142 12 -35 -6 -66 -9 -68 -7
-3 3 2 38 10 79 15 70 15 75 -2 87 -10 7 -14 13 -8 13 16 0 138 20 157 26 24
7 21 19 -8 32 -29 13 -44 14 -95 2z m-106 -86 c9 -24 7 -130 -3 -157 -13 -33
17 -64 46 -49 24 13 123 31 138 25 12 -4 8 -44 -10 -120 -5 -23 -43 -34 -124
-35 -44 0 -59 -11 -43 -31 5 -7 10 -51 11 -99 l2 -88 -43 0 c-24 0 -54 -3 -66
-7 -23 -6 -24 -5 -17 53 4 32 11 75 16 94 8 30 6 37 -13 53 -16 13 -31 17 -53
12 -16 -3 -52 -9 -78 -12 l-48 -6 7 64 c3 35 10 68 14 72 4 5 38 13 76 19 l69
11 0 91 c0 121 3 126 64 126 35 0 51 -4 55 -16z"/>
</g>
</svg>
