<?xml version="1.0" standalone="no"?>
<!DOCTYPE svg PUBLIC "-//W3C//DTD SVG 20010904//EN"
 "http://www.w3.org/TR/2001/REC-SVG-20010904/DTD/svg10.dtd">
<svg version="1.0" xmlns="http://www.w3.org/2000/svg"
 width="96.000000pt" height="68.000000pt" viewBox="0 0 96.000000 68.000000"
 preserveAspectRatio="xMidYMid meet">
<metadata>
Created by potrace 1.16, written by Peter Selinger 2001-2019
</metadata>
<g transform="translate(0.000000,68.000000) scale(0.100000,-0.100000)"
fill="#000000" stroke="none">
<path d="M377 597 c-8 -18 -38 -54 -67 -80 -50 -45 -52 -48 -37 -70 8 -12 18
-43 22 -67 10 -59 23 -84 38 -72 20 16 228 27 237 12 14 -22 46 7 70 62 12 29
29 61 37 70 14 16 13 18 -12 28 -34 13 -77 15 -135 6 l-45 -7 47 33 c26 18 48
39 48 46 0 24 -46 32 -97 17 -52 -16 -62 -13 -43 10 10 12 10 18 0 30 -21 25
-49 18 -63 -18z m103 -65 c0 -5 -9 -17 -20 -27 -11 -10 -20 -23 -20 -29 0 -8
-22 -12 -59 -11 -33 0 -57 -3 -56 -6 2 -3 -10 -3 -27 -1 l-31 5 32 13 c18 8
45 22 60 33 15 11 45 21 67 24 21 2 42 4 47 5 4 1 7 -2 7 -6z m120 -87 c0 -23
-4 -25 -42 -25 -24 0 -54 -3 -66 -7 -21 -5 -23 -3 -20 18 3 25 26 34 91 37 33
2 37 -1 37 -23z m-170 -18 c0 -20 -6 -22 -55 -25 -49 -3 -55 -1 -55 17 0 15 8
20 33 23 17 2 42 4 55 5 17 2 22 -2 22 -20z m154 -49 c-3 -13 -7 -23 -8 -24 0
0 -25 2 -53 4 -35 3 -53 8 -53 17 0 16 20 22 78 24 41 1 43 0 36 -21z m-154
-13 c0 -23 -4 -25 -50 -25 -43 0 -50 3 -50 19 0 20 10 23 73 28 23 2 27 -2 27
-22z"/>
<path d="M183 275 c-23 -45 -22 -75 4 -75 19 0 46 67 39 96 -9 34 -18 30 -43
-21z"/>
<path d="M694 275 c54 -50 89 -59 84 -22 -3 24 -76 67 -113 67 -16 0 -10 -9
29 -45z"/>
<path d="M480 302 c0 -11 52 -52 66 -52 17 0 19 24 2 37 -14 11 -68 23 -68 15z"/>
<path d="M340 282 c0 -12 34 -42 48 -42 18 0 14 37 -4 44 -22 9 -44 7 -44 -2z"/>
<path d="M480 224 c-36 -7 -89 -13 -117 -14 l-53 0 11 -27 c7 -18 6 -43 -1
-78 -14 -67 -2 -103 26 -75 5 5 47 12 92 16 83 7 84 7 106 -21 l23 -28 21 21
c19 19 21 32 20 111 -1 72 -4 90 -17 94 -9 3 -23 7 -31 10 -8 2 -44 -1 -80 -9z
m80 -48 c0 -22 -5 -24 -72 -30 -40 -3 -84 -7 -98 -9 -19 -1 -26 3 -28 21 -5
30 25 41 121 41 74 1 77 0 77 -23z m0 -70 c0 -14 -3 -27 -7 -29 -5 -3 -51 -6
-103 -8 -90 -4 -95 -3 -92 16 2 11 5 21 6 23 5 4 119 19 159 21 33 1 37 -2 37
-23z"/>
</g>
</svg>
