<?xml version="1.0" standalone="no"?>
<!DOCTYPE svg PUBLIC "-//W3C//DTD SVG 20010904//EN"
 "http://www.w3.org/TR/2001/REC-SVG-20010904/DTD/svg10.dtd">
<svg version="1.0" xmlns="http://www.w3.org/2000/svg"
 width="90.000000pt" height="92.000000pt" viewBox="0 0 90.000000 92.000000"
 preserveAspectRatio="xMidYMid meet">
<metadata>
Created by potrace 1.16, written by Peter Selinger 2001-2019
</metadata>
<g transform="translate(0.000000,92.000000) scale(0.100000,-0.100000)"
fill="#000000" stroke="none">
<path d="M490 879 c0 -12 -26 -48 -62 -85 -54 -56 -58 -64 -33 -54 17 6 40 21
52 32 l22 21 35 -31 35 -30 -26 -17 c-14 -9 -48 -25 -77 -35 l-51 -19 45 0
c28 -1 65 8 96 23 51 24 164 129 164 152 0 20 -37 27 -97 19 -37 -4 -53 -3
-49 3 6 10 -30 42 -46 42 -5 0 -8 -9 -8 -21z m126 -66 c-8 -16 -25 -38 -39
-51 -24 -23 -24 -23 -30 -2 -3 13 -16 22 -35 26 -48 10 -28 30 41 41 34 5 65
11 70 11 4 1 1 -10 -7 -25z"/>
<path d="M295 873 c4 -10 10 -41 12 -69 l5 -51 -47 -7 c-26 -4 -49 -6 -51 -4
-2 2 1 22 7 43 10 33 9 41 -7 52 -29 21 -41 16 -36 -18 3 -17 -1 -48 -8 -69
-9 -29 -10 -42 0 -59 11 -21 13 -21 29 -7 14 12 92 46 107 46 2 0 4 -17 4 -38
l0 -38 -74 -13 c-87 -16 -112 -28 -77 -37 20 -6 22 -11 17 -42 -3 -19 -17 -52
-31 -73 -14 -22 -23 -39 -19 -39 32 0 104 94 104 136 0 17 8 23 37 27 20 4 38
5 39 4 1 -1 -2 -27 -6 -57 -8 -58 4 -113 24 -107 16 5 24 89 25 264 1 141 0
153 -18 163 -30 15 -44 13 -36 -7z"/>
<path d="M438 733 c-24 -4 -27 -7 -18 -24 10 -19 12 -19 35 -2 23 17 33 35 18
32 -5 -1 -20 -4 -35 -6z"/>
<path d="M604 685 c4 -14 5 -25 4 -25 -32 -3 -230 -39 -234 -43 -3 -3 4 -11
16 -17 16 -9 38 -8 97 4 120 25 123 24 123 -30 0 -46 0 -46 -30 -42 -16 3 -30
3 -30 0 0 -2 12 -18 26 -35 l27 -32 -39 -6 c-22 -3 -139 -17 -261 -29 -123
-13 -223 -27 -223 -31 0 -4 12 -15 27 -24 25 -17 31 -17 97 -2 132 30 153 31
160 9 4 -10 4 -26 0 -35 -7 -19 -69 -31 -118 -22 -35 7 -50 -5 -25 -21 8 -5
10 -39 6 -115 -5 -97 -4 -111 13 -131 11 -13 19 -18 20 -12 0 7 44 14 123 18
67 4 150 9 183 13 57 5 62 4 69 -16 9 -29 22 -26 39 7 10 19 15 67 17 147 l3
119 -30 18 c-28 18 -43 18 -126 2 -26 -5 -28 -3 -28 30 l0 36 139 0 c81 0 142
4 146 10 9 14 -55 50 -80 45 -11 -2 -38 -7 -60 -10 -39 -7 -39 -6 -22 12 12
15 17 37 17 86 l0 67 49 0 c58 0 71 13 37 35 -17 12 -35 15 -56 10 -23 -5 -30
-3 -30 8 0 14 -20 27 -42 27 -6 0 -8 -10 -4 -25z m-134 -310 c0 -33 -2 -35
-33 -35 -32 0 -33 2 -33 35 1 33 3 35 34 35 30 0 32 -2 32 -35z m26 -142 c15
-9 47 -16 79 -17 l55 0 0 -54 c0 -36 -4 -51 -11 -46 -9 5 -168 -5 -317 -21
l-43 -5 6 97 c3 53 6 98 8 99 1 1 19 5 40 9 48 9 48 -3 0 -56 -35 -39 -36 -41
-13 -34 33 10 66 40 80 75 10 23 19 30 48 32 35 3 37 1 40 -30 2 -21 12 -38
28 -49z m128 65 c9 -36 9 -36 -38 -43 -54 -9 -86 6 -86 40 0 24 3 25 59 25 52
0 59 -2 65 -22z"/>
<path d="M410 186 c-36 -7 -63 -16 -60 -21 6 -11 148 -12 176 -1 16 6 17 9 4
15 -29 16 -56 18 -120 7z"/>
<path d="M440 575 c0 -9 33 -59 44 -67 24 -17 37 31 14 50 -17 12 -58 25 -58
17z"/>
</g>
</svg>
