<?xml version="1.0" standalone="no"?>
<!DOCTYPE svg PUBLIC "-//W3C//DTD SVG 20010904//EN"
 "http://www.w3.org/TR/2001/REC-SVG-20010904/DTD/svg10.dtd">
<svg version="1.0" xmlns="http://www.w3.org/2000/svg"
 width="96.000000pt" height="68.000000pt" viewBox="0 0 96.000000 68.000000"
 preserveAspectRatio="xMidYMid meet">
<metadata>
Created by potrace 1.16, written by Peter Selinger 2001-2019
</metadata>
<g transform="translate(0.000000,68.000000) scale(0.100000,-0.100000)"
fill="#000000" stroke="none">
<path d="M636 203 c3 -16 9 -39 12 -53 4 -14 7 -34 6 -45 -3 -63 -1 -60 -51
-59 -27 1 -105 -2 -174 -5 -86 -4 -125 -3 -122 4 2 6 -1 29 -6 50 -10 40 -10
40 -8 -15 l2 -55 80 1 c216 3 262 3 284 1 24 -2 24 0 26 73 2 41 4 81 6 89 2
8 -10 19 -29 27 l-32 14 6 -27z"/>
<path d="M468 203 c7 -3 16 -2 19 1 4 3 -2 6 -13 5 -11 0 -14 -3 -6 -6z"/>
<path d="M288 193 c6 -2 12 -14 12 -26 0 -12 5 -29 10 -37 7 -11 10 -7 10 18
0 24 6 35 23 42 18 7 14 9 -23 9 -25 -1 -39 -3 -32 -6z"/>
</g>
</svg>
