<?xml version="1.0" standalone="no"?>
<!DOCTYPE svg PUBLIC "-//W3C//DTD SVG 20010904//EN"
 "http://www.w3.org/TR/2001/REC-SVG-20010904/DTD/svg10.dtd">
<svg version="1.0" xmlns="http://www.w3.org/2000/svg"
 width="96.000000pt" height="68.000000pt" viewBox="0 0 96.000000 68.000000"
 preserveAspectRatio="xMidYMid meet">
<metadata>
Created by potrace 1.16, written by Peter Selinger 2001-2019
</metadata>
<g transform="translate(0.000000,68.000000) scale(0.100000,-0.100000)"
fill="#000000" stroke="none">
<path d="M421 313 c-7 -18 -15 -33 -19 -33 -4 0 -25 12 -46 26 -39 27 -125 47
-113 27 4 -6 19 -14 34 -18 34 -8 103 -56 103 -72 0 -24 -123 -100 -224 -137
-39 -14 -8 -15 56 -1 73 15 128 40 173 79 17 14 33 26 37 26 4 0 48 -31 99
-70 l91 -70 97 0 c53 0 102 4 110 9 14 9 -3 15 -180 66 -49 13 -157 70 -182
94 -5 5 -1 30 7 55 9 26 16 48 16 49 0 2 -11 3 -24 3 -17 0 -26 -8 -35 -33z"/>
</g>
</svg>
