<?xml version="1.0" standalone="no"?>
<!DOCTYPE svg PUBLIC "-//W3C//DTD SVG 20010904//EN"
 "http://www.w3.org/TR/2001/REC-SVG-20010904/DTD/svg10.dtd">
<svg version="1.0" xmlns="http://www.w3.org/2000/svg"
 width="96.000000pt" height="68.000000pt" viewBox="0 0 96.000000 68.000000"
 preserveAspectRatio="xMidYMid meet">
<metadata>
Created by potrace 1.16, written by Peter Selinger 2001-2019
</metadata>
<g transform="translate(0.000000,68.000000) scale(0.100000,-0.100000)"
fill="#000000" stroke="none">
<path d="M524 525 c-2 -5 0 -23 4 -40 6 -22 16 -31 41 -37 45 -12 143 -6 148
9 3 9 -18 13 -74 15 l-78 3 2 30 c2 25 -1 31 -18 31 -12 0 -23 -5 -25 -11z"/>
<path d="M340 506 c0 -24 -41 -66 -88 -91 -39 -20 -43 -24 -23 -25 31 0 96 31
140 68 32 26 33 29 17 45 -21 20 -46 22 -46 3z"/>
</g>
</svg>
