<?xml version="1.0" standalone="no"?>
<!DOCTYPE svg PUBLIC "-//W3C//DTD SVG 20010904//EN"
 "http://www.w3.org/TR/2001/REC-SVG-20010904/DTD/svg10.dtd">
<svg version="1.0" xmlns="http://www.w3.org/2000/svg"
 width="96.000000pt" height="68.000000pt" viewBox="0 0 96.000000 68.000000"
 preserveAspectRatio="xMidYMid meet">
<metadata>
Created by potrace 1.16, written by Peter Selinger 2001-2019
</metadata>
<g transform="translate(0.000000,68.000000) scale(0.100000,-0.100000)"
fill="#000000" stroke="none">
<path d="M596 247 c-27 -39 -14 -38 22 3 8 8 11 9 7 3 -8 -16 5 -16 26 0 9 7
14 18 12 25 -9 24 -38 11 -67 -31z"/>
<path d="M485 238 c11 -7 25 -16 32 -22 34 -32 100 -84 136 -109 35 -24 49
-28 90 -24 74 7 80 31 8 32 -22 0 -37 3 -34 8 4 6 -15 11 -44 10 -7 -1 -13 4
-13 9 0 6 -8 4 -17 -3 -10 -9 -14 -9 -10 -2 5 7 -3 19 -20 30 -15 9 -48 32
-72 50 -24 18 -51 33 -60 33 -13 -1 -12 -3 4 -12z"/>
<path d="M339 193 c-7 -34 -4 -143 3 -143 5 0 6 -6 2 -12 -5 -9 -3 -9 9 1 9 7
14 17 11 22 -3 5 2 6 10 3 9 -3 28 4 43 16 15 12 21 21 13 20 -49 -7 -62 -1
-59 33 3 52 0 67 -16 67 -8 0 -16 -3 -16 -7z m8 -45 c-3 -8 -6 -5 -6 6 -1 11
2 17 5 13 3 -3 4 -12 1 -19z"/>
<path d="M455 110 c-3 -6 1 -7 9 -4 18 7 21 14 7 14 -6 0 -13 -4 -16 -10z"/>
</g>
</svg>
