<?xml version="1.0" standalone="no"?>
<!DOCTYPE svg PUBLIC "-//W3C//DTD SVG 20010904//EN"
 "http://www.w3.org/TR/2001/REC-SVG-20010904/DTD/svg10.dtd">
<svg version="1.0" xmlns="http://www.w3.org/2000/svg"
 width="96.000000pt" height="68.000000pt" viewBox="0 0 96.000000 68.000000"
 preserveAspectRatio="xMidYMid meet">
<metadata>
Created by potrace 1.16, written by Peter Selinger 2001-2019
</metadata>
<g transform="translate(0.000000,68.000000) scale(0.100000,-0.100000)"
fill="#000000" stroke="none">
<path d="M505 606 c14 -47 45 -191 45 -212 0 -19 -7 -22 -67 -28 -38 -4 -76
-10 -85 -12 -15 -4 -18 1 -18 30 0 33 2 35 43 41 24 4 50 11 58 16 25 16 -11
30 -59 24 l-44 -5 4 57 c3 54 2 58 -23 67 -34 12 -68 1 -51 -16 7 -7 12 -35
12 -64 0 -56 -7 -64 -60 -64 -16 0 -31 -4 -34 -9 -8 -12 18 -21 59 -21 30 0
33 -3 37 -32 3 -30 1 -33 -27 -35 -16 -1 -68 -7 -113 -14 -63 -8 -81 -14 -72
-23 19 -19 74 -13 407 40 40 6 42 5 48 -22 4 -16 16 -53 26 -82 21 -57 19 -68
-14 -83 -12 -5 -40 -21 -62 -35 -38 -23 -38 -24 -10 -18 17 4 52 16 79 27 47
20 49 20 62 3 52 -71 127 -126 174 -126 17 0 20 6 20 48 0 26 -3 57 -6 70 -6
21 -8 20 -25 -17 -10 -23 -24 -41 -31 -41 -8 0 -30 17 -49 38 -67 71 -66 66
-15 123 53 59 56 76 20 89 -32 12 -44 6 -44 -23 0 -24 -25 -67 -39 -67 -11 0
-52 110 -45 121 3 5 28 9 55 9 36 0 49 4 46 13 -3 8 -22 11 -59 10 l-55 -3 -7
46 c-3 26 -6 75 -6 109 0 67 -7 79 -53 87 -26 5 -28 3 -22 -16z"/>
<path d="M640 511 c1 -12 74 -61 92 -61 21 0 25 34 6 46 -16 10 -98 22 -98 15z"/>
<path d="M345 250 c-16 -4 -52 -8 -79 -9 -42 -1 -47 -3 -41 -18 6 -15 20 -58
42 -123 4 -13 7 -12 18 4 8 10 18 15 23 12 6 -3 37 -3 69 0 59 6 59 7 60 39 1
18 9 45 19 60 15 23 15 28 3 36 -16 10 -71 10 -114 -1z m50 -62 c-4 -24 -8
-43 -9 -44 -7 -6 -96 -12 -100 -6 -2 4 -7 24 -11 44 -7 34 -5 37 22 41 15 2
45 5 66 6 l39 1 -7 -42z"/>
</g>
</svg>
