<?xml version="1.0" standalone="no"?>
<!DOCTYPE svg PUBLIC "-//W3C//DTD SVG 20010904//EN"
 "http://www.w3.org/TR/2001/REC-SVG-20010904/DTD/svg10.dtd">
<svg version="1.0" xmlns="http://www.w3.org/2000/svg"
 width="96.000000pt" height="68.000000pt" viewBox="0 0 96.000000 68.000000"
 preserveAspectRatio="xMidYMid meet">
<metadata>
Created by potrace 1.16, written by Peter Selinger 2001-2019
</metadata>
<g transform="translate(0.000000,68.000000) scale(0.100000,-0.100000)"
fill="#000000" stroke="none">
<path d="M545 430 c-60 -10 -153 -21 -205 -24 -138 -9 -181 -16 -175 -27 9
-14 83 -11 265 11 187 22 240 25 240 10 0 -6 -7 -24 -15 -40 -9 -17 -12 -30
-7 -30 20 0 142 73 136 82 -10 16 -71 38 -101 37 -15 -1 -77 -10 -138 -19z"/>
</g>
</svg>
