<?xml version="1.0" standalone="no"?>
<!DOCTYPE svg PUBLIC "-//W3C//DTD SVG 20010904//EN"
 "http://www.w3.org/TR/2001/REC-SVG-20010904/DTD/svg10.dtd">
<svg version="1.0" xmlns="http://www.w3.org/2000/svg"
 width="96.000000pt" height="68.000000pt" viewBox="0 0 96.000000 68.000000"
 preserveAspectRatio="xMidYMid meet">
<metadata>
Created by potrace 1.16, written by Peter Selinger 2001-2019
</metadata>
<g transform="translate(0.000000,68.000000) scale(0.100000,-0.100000)"
fill="#000000" stroke="none">
<path d="M275 220 c-11 -5 -45 -9 -75 -10 -41 0 -51 -3 -38 -10 9 -6 22 -27
29 -48 17 -54 26 -63 55 -51 14 5 43 9 65 9 26 0 38 4 34 11 -8 12 14 69 26
69 15 0 10 28 -7 34 -22 8 -65 6 -89 -4z m33 -52 c-3 -28 -8 -33 -36 -39 -26
-5 -35 -3 -42 12 -22 41 -9 55 53 58 26 1 28 -2 25 -31z"/>
</g>
</svg>
