<?xml version="1.0" standalone="no"?>
<!DOCTYPE svg PUBLIC "-//W3C//DTD SVG 20010904//EN"
 "http://www.w3.org/TR/2001/REC-SVG-20010904/DTD/svg10.dtd">
<svg version="1.0" xmlns="http://www.w3.org/2000/svg"
 width="96.000000pt" height="68.000000pt" viewBox="0 0 96.000000 68.000000"
 preserveAspectRatio="xMidYMid meet">
<metadata>
Created by potrace 1.16, written by Peter Selinger 2001-2019
</metadata>
<g transform="translate(0.000000,68.000000) scale(0.100000,-0.100000)"
fill="#000000" stroke="none">
<path d="M691 244 c-17 -14 -31 -31 -31 -37 0 -9 2 -9 8 -1 4 6 22 15 39 19
39 8 48 19 29 34 -11 9 -21 6 -45 -15z m39 11 c0 -2 -10 -9 -22 -15 -22 -11
-22 -10 -4 4 21 17 26 19 26 11z"/>
<path d="M605 187 c17 -14 33 -24 36 -23 3 0 18 -14 33 -32 16 -17 33 -29 38
-25 6 3 8 1 5 -4 -11 -18 39 -44 65 -34 13 4 29 6 36 4 6 -3 12 0 12 6 0 11
-19 16 -53 13 -10 -1 -16 2 -13 7 3 5 -4 11 -17 14 -38 10 -41 11 -65 34 -14
13 -28 20 -33 17 -5 -3 -9 -1 -9 5 0 6 -15 18 -32 26 l-33 16 30 -24z"/>
<path d="M466 163 c-3 -10 -2 -34 3 -53 6 -26 4 -39 -6 -48 -16 -16 -9 -32 14
-32 15 0 123 68 123 77 0 2 -14 -4 -31 -12 -17 -9 -40 -15 -52 -13 -21 3 -24
20 -14 82 3 18 -31 17 -37 -1z m11 -25 c-3 -8 -6 -5 -6 6 -1 11 2 17 5 13 3
-3 4 -12 1 -19z"/>
</g>
</svg>
