<?xml version="1.0" standalone="no"?>
<!DOCTYPE svg PUBLIC "-//W3C//DTD SVG 20010904//EN"
 "http://www.w3.org/TR/2001/REC-SVG-20010904/DTD/svg10.dtd">
<svg version="1.0" xmlns="http://www.w3.org/2000/svg"
 width="90.000000pt" height="92.000000pt" viewBox="0 0 90.000000 92.000000"
 preserveAspectRatio="xMidYMid meet">
<metadata>
Created by potrace 1.16, written by Peter Selinger 2001-2019
</metadata>
<g transform="translate(0.000000,92.000000) scale(0.100000,-0.100000)"
fill="#000000" stroke="none">
<path d="M556 844 c-21 -15 -71 -41 -110 -60 -63 -29 -67 -33 -39 -34 17 0 43
4 58 10 23 9 27 7 35 -16 18 -47 14 -51 -63 -58 -75 -7 -108 -19 -94 -33 9 -9
72 -10 132 -3 l40 5 -3 -35 c-2 -19 -5 -36 -7 -38 -1 -1 -41 -6 -89 -9 -47 -3
-86 -8 -86 -10 0 -3 6 -11 14 -19 8 -8 20 -40 26 -72 11 -61 23 -88 37 -86
107 16 113 16 113 -10 0 -22 -5 -25 -47 -31 -27 -4 -55 -9 -63 -11 -27 -9 11
-24 63 -24 39 0 47 -3 47 -19 0 -22 -18 -31 -68 -32 -20 0 -55 -4 -77 -8 l-40
-8 33 -15 c24 -11 49 -13 95 -7 34 4 111 10 170 14 74 5 107 11 104 18 -6 19
-50 37 -77 33 -105 -18 -100 -19 -100 8 0 21 6 26 38 31 20 4 46 10 57 15 18
7 18 9 -9 19 -16 7 -42 9 -58 6 -25 -6 -28 -4 -28 20 0 27 0 27 66 23 52 -2
69 0 75 12 4 8 23 48 42 89 l34 73 -31 19 c-37 23 -63 23 -135 4 l-53 -14 6
31 c3 17 6 34 6 38 0 5 47 11 105 15 111 8 133 21 76 45 -23 9 -42 9 -81 1
-83 -18 -98 -15 -92 14 3 18 -1 30 -14 39 -16 12 -14 14 23 21 23 3 49 12 58
19 16 12 15 14 -10 34 -34 27 -32 27 -79 -4z m131 -320 c-3 -31 -9 -60 -14
-64 -4 -4 -32 -10 -60 -12 l-53 -5 0 63 0 63 38 4 c20 2 50 4 66 5 l29 2 -6
-56z m-167 -28 l0 -63 -47 -7 c-26 -3 -50 -3 -54 1 -4 5 -10 31 -14 60 -7 57
-8 56 70 66 17 2 33 5 38 6 4 0 7 -28 7 -63z"/>
<path d="M603 500 c-25 -46 -23 -48 23 -19 37 23 40 29 22 47 -18 18 -21 16
-45 -28z"/>
<path d="M420 514 c0 -17 43 -74 56 -74 23 0 17 47 -8 64 -23 16 -48 21 -48
10z"/>
<path d="M157 803 c4 -21 8 -110 8 -198 -1 -217 -27 -315 -116 -422 -21 -26
-36 -49 -34 -51 3 -3 23 7 45 22 47 31 94 92 111 144 18 58 25 59 70 9 47 -54
69 -60 69 -19 0 33 -21 55 -73 77 -20 8 -37 20 -37 25 0 5 5 43 11 84 l11 75
54 33 c59 35 65 49 32 72 -30 21 -35 20 -42 -6 -3 -13 -15 -34 -26 -48 l-20
-25 0 80 c0 44 5 96 10 115 9 31 8 37 -11 53 -12 9 -32 17 -46 17 -22 0 -23
-2 -16 -37z"/>
<path d="M30 604 c0 -4 12 -33 27 -66 30 -67 56 -75 61 -20 3 25 -3 39 -27 62
-26 27 -61 40 -61 24z"/>
<path d="M560 190 c0 -23 52 -111 63 -107 32 10 18 76 -22 100 -34 20 -41 21
-41 7z"/>
<path d="M707 178 c11 -13 34 -44 52 -70 44 -65 84 -61 67 7 -7 28 -87 85
-120 85 -19 0 -19 0 1 -22z"/>
<path d="M278 144 c-32 -51 -35 -76 -13 -94 34 -28 76 53 61 115 -9 35 -17 31
-48 -21z"/>
<path d="M420 176 c0 -26 42 -107 53 -103 7 2 13 20 15 39 2 29 -2 40 -24 57
-31 24 -44 27 -44 7z"/>
</g>
</svg>
