<?xml version="1.0" standalone="no"?>
<!DOCTYPE svg PUBLIC "-//W3C//DTD SVG 20010904//EN"
 "http://www.w3.org/TR/2001/REC-SVG-20010904/DTD/svg10.dtd">
<svg version="1.0" xmlns="http://www.w3.org/2000/svg"
 width="96.000000pt" height="68.000000pt" viewBox="0 0 96.000000 68.000000"
 preserveAspectRatio="xMidYMid meet">
<metadata>
Created by potrace 1.16, written by Peter Selinger 2001-2019
</metadata>
<g transform="translate(0.000000,68.000000) scale(0.100000,-0.100000)"
fill="#000000" stroke="none">
<path d="M267 507 c7 -96 12 -90 -85 -102 -78 -10 -62 -31 22 -28 l66 2 0 -43
c0 -41 -3 -46 -42 -68 -24 -13 -63 -33 -88 -43 -59 -25 -66 -31 -50 -50 22
-27 65 -18 119 25 28 22 53 40 56 40 7 0 6 -61 -1 -99 -6 -27 -10 -31 -40 -31
-19 0 -34 -3 -34 -7 0 -13 77 -73 93 -73 25 0 37 49 37 153 l0 102 35 24 c19
13 35 27 35 32 0 12 -7 11 -40 -6 l-30 -16 0 35 c0 31 3 35 38 43 47 11 50 37
5 41 -37 4 -42 23 -22 81 14 39 1 57 -48 67 l-32 6 6 -85z"/>
<path d="M659 548 c-12 -24 -27 -46 -33 -50 -23 -16 11 -7 47 11 64 32 70 41
51 62 -26 29 -42 23 -65 -23z"/>
<path d="M466 552 c-3 -5 4 -21 15 -36 23 -30 62 -36 57 -9 -4 20 -64 58 -72
45z"/>
<path d="M659 475 c-3 -2 -50 -9 -105 -15 -115 -13 -148 -30 -58 -30 56 0 60
-1 62 -25 2 -22 -2 -25 -36 -26 -20 0 -46 -4 -57 -9 -14 -6 -4 -9 38 -9 56 -1
57 -1 57 -30 0 -29 0 -29 -80 -36 -85 -8 -110 -25 -36 -25 l45 0 -10 -30 c-6
-16 -38 -54 -70 -85 -73 -67 -63 -71 21 -8 54 40 69 46 104 44 46 -2 56 -12
56 -58 0 -33 -1 -33 -47 -34 -27 0 -70 -4 -98 -7 l-50 -7 30 -13 c23 -9 43
-10 84 -2 30 5 116 10 192 10 76 0 140 4 144 9 11 19 -62 32 -141 25 l-77 -7
6 33 c4 18 7 39 7 46 0 9 13 14 38 15 20 0 46 4 57 9 40 16 -13 23 -91 11 -41
-6 -89 -11 -106 -11 l-31 0 20 23 c11 12 18 28 16 35 -3 8 9 12 41 13 25 1 51
3 56 4 6 1 44 3 85 4 63 1 75 4 75 18 0 14 -11 15 -100 9 l-100 -6 0 24 c0 31
7 35 70 43 75 9 76 27 1 21 -58 -4 -61 -3 -61 18 0 20 7 24 48 29 63 9 74 13
67 25 -6 10 -58 14 -66 5z"/>
</g>
</svg>
