<?xml version="1.0" standalone="no"?>
<!DOCTYPE svg PUBLIC "-//W3C//DTD SVG 20010904//EN"
 "http://www.w3.org/TR/2001/REC-SVG-20010904/DTD/svg10.dtd">
<svg version="1.0" xmlns="http://www.w3.org/2000/svg"
 width="96.000000pt" height="68.000000pt" viewBox="0 0 96.000000 68.000000"
 preserveAspectRatio="xMidYMid meet">
<metadata>
Created by potrace 1.16, written by Peter Selinger 2001-2019
</metadata>
<g transform="translate(0.000000,68.000000) scale(0.100000,-0.100000)"
fill="#000000" stroke="none">
<path d="M517 603 c-4 -3 -7 -13 -7 -22 -1 -27 -69 -111 -90 -111 -20 0 -28
-15 -12 -22 5 -1 15 -30 23 -63 13 -57 15 -60 42 -57 51 5 57 -9 57 -141 l0
-120 -37 6 -37 6 37 -37 c31 -30 40 -35 55 -26 14 9 18 29 20 108 1 53 6 96
10 96 5 0 21 -14 38 -31 61 -65 103 -89 158 -89 72 0 87 13 34 30 -55 17 -188
80 -188 89 0 4 26 20 58 35 71 36 67 32 49 51 -16 16 -47 21 -47 7 0 -4 -16
-26 -36 -47 -29 -32 -38 -37 -52 -28 -12 7 -16 22 -14 47 2 20 -2 36 -8 36 -5
0 -10 4 -10 9 0 6 20 8 44 6 50 -4 64 7 86 65 8 19 20 41 27 48 21 22 15 31
-26 42 -29 7 -59 6 -122 -5 -46 -8 -88 -15 -94 -15 -5 0 17 24 50 54 53 47 58
55 46 70 -14 16 -42 21 -54 9z m125 -143 c0 -5 1 -15 2 -21 1 -7 -15 -13 -34
-14 -19 -1 -63 -6 -97 -10 -55 -7 -63 -6 -63 9 0 9 -1 19 -2 23 -2 4 22 8 52
11 30 2 57 6 59 8 9 9 81 3 83 -6z m-2 -64 c0 -24 -23 -33 -97 -40 -49 -5 -73
-4 -73 3 0 6 -1 14 -2 19 -2 4 29 12 67 18 97 16 105 16 105 0z"/>
<path d="M274 519 c-10 -4 -42 -8 -70 -8 l-51 -1 5 -104 c5 -124 -10 -224 -45
-289 -15 -26 -24 -49 -21 -52 11 -11 77 76 94 123 15 41 21 48 40 44 15 -3 27
3 36 17 22 36 28 24 28 -55 l0 -77 -40 7 c-22 3 -40 4 -40 2 0 -3 17 -21 38
-41 77 -73 103 -28 95 162 -4 77 -2 144 6 183 9 45 9 65 1 75 -14 17 -51 24
-76 14z m14 -81 c3 -51 2 -52 -46 -42 -28 6 -31 9 -28 41 3 38 20 55 51 51 16
-3 21 -12 23 -50z m2 -115 c0 -16 -40 -43 -62 -43 -15 0 -18 9 -18 44 l0 45
40 -17 c22 -9 40 -22 40 -29z"/>
<path d="M410 256 c-62 -13 -54 -32 10 -21 36 6 38 5 33 -16 -4 -12 -27 -44
-53 -71 -25 -26 -43 -48 -38 -48 17 0 74 45 117 92 36 40 42 50 31 63 -14 17
-24 17 -100 1z"/>
</g>
</svg>
