<?xml version="1.0" standalone="no"?>
<!DOCTYPE svg PUBLIC "-//W3C//DTD SVG 20010904//EN"
 "http://www.w3.org/TR/2001/REC-SVG-20010904/DTD/svg10.dtd">
<svg version="1.0" xmlns="http://www.w3.org/2000/svg"
 width="90.000000pt" height="92.000000pt" viewBox="0 0 90.000000 92.000000"
 preserveAspectRatio="xMidYMid meet">
<metadata>
Created by potrace 1.16, written by Peter Selinger 2001-2019
</metadata>
<g transform="translate(0.000000,92.000000) scale(0.100000,-0.100000)"
fill="#000000" stroke="none">
<path d="M145 823 c3 -16 9 -76 12 -134 l5 -106 -45 -12 c-25 -6 -57 -11 -71
-11 -14 0 -28 -5 -31 -10 -10 -17 45 -31 96 -24 l48 7 -24 -64 c-28 -70 -96
-189 -119 -209 -17 -14 -22 -40 -7 -40 15 0 86 85 112 135 41 77 42 71 18
-126 -9 -74 -8 -105 1 -133 6 -20 16 -36 20 -36 21 0 28 44 33 205 3 94 6 172
6 175 1 2 19 -14 41 -35 34 -33 42 -37 50 -25 17 27 6 44 -43 69 -45 22 -48
26 -45 59 3 32 6 36 51 49 26 7 47 18 47 24 0 18 -52 31 -79 19 l-24 -11 7 63
c3 35 9 86 12 113 5 47 4 51 -24 68 -43 25 -56 22 -47 -10z"/>
<path d="M368 775 c-3 -3 -1 -22 5 -43 6 -21 7 -66 3 -104 -7 -67 -8 -67 -42
-74 -42 -8 -44 -23 -3 -31 31 -6 31 -6 26 -58 -6 -62 -68 -253 -102 -313 -13
-23 -20 -42 -15 -42 13 0 67 72 94 127 27 53 76 238 76 286 0 25 3 27 40 27
40 0 40 0 40 -37 0 -56 -27 -244 -39 -275 -11 -30 -30 -35 -63 -17 -20 11 -19
7 7 -37 38 -66 41 -69 61 -53 32 26 55 98 75 234 11 74 24 147 29 161 12 31 8
40 -29 59 -22 11 -36 12 -65 3 -20 -6 -38 -9 -41 -6 -4 3 -2 43 3 89 5 46 7
87 3 90 -9 9 -57 19 -63 14z"/>
<path d="M735 543 c-27 -7 -71 -12 -97 -11 -51 3 -52 2 -38 -52 5 -19 12 -66
16 -105 7 -86 22 -145 34 -145 6 0 10 4 10 9 0 6 32 13 71 17 55 5 69 10 65
21 -7 17 28 183 45 215 10 19 8 25 -15 45 -15 13 -30 22 -34 22 -4 -1 -29 -8
-57 -16z m32 -39 c5 -14 -13 -193 -20 -201 -2 -1 -21 -5 -44 -9 l-41 -6 -1
106 -2 105 28 7 c15 3 33 7 38 9 23 8 36 4 42 -11z"/>
</g>
</svg>
