<?xml version="1.0" standalone="no"?>
<!DOCTYPE svg PUBLIC "-//W3C//DTD SVG 20010904//EN"
 "http://www.w3.org/TR/2001/REC-SVG-20010904/DTD/svg10.dtd">
<svg version="1.0" xmlns="http://www.w3.org/2000/svg"
 width="90.000000pt" height="92.000000pt" viewBox="0 0 90.000000 92.000000"
 preserveAspectRatio="xMidYMid meet">
<metadata>
Created by potrace 1.16, written by Peter Selinger 2001-2019
</metadata>
<g transform="translate(0.000000,92.000000) scale(0.100000,-0.100000)"
fill="#000000" stroke="none">
<path d="M406 863 c-3 -3 -6 -18 -6 -32 0 -29 -52 -146 -77 -173 -35 -38 5
-15 47 27 24 24 47 42 51 39 4 -2 41 5 81 16 40 11 78 20 85 20 15 0 18 -36 4
-44 -5 -3 -11 -14 -13 -24 -5 -16 4 -14 61 15 36 19 67 38 69 43 2 5 -18 21
-43 36 l-46 27 -87 -27 c-48 -14 -90 -26 -95 -26 -4 0 0 14 8 31 9 17 14 37
11 44 -6 17 -41 36 -50 28z"/>
<path d="M170 740 c-36 -9 -65 -21 -65 -26 0 -14 76 -17 133 -4 55 12 64 23
33 40 -23 12 -17 12 -101 -10z"/>
<path d="M460 700 c0 -52 -75 -153 -150 -204 -22 -14 -22 -16 -5 -16 28 0 119
54 143 85 11 14 25 25 32 25 7 0 42 -22 79 -49 79 -58 108 -74 121 -66 15 9
12 52 -5 69 -17 17 -105 51 -157 61 l-36 7 16 27 c18 32 12 55 -17 71 -18 9
-21 8 -21 -10z"/>
<path d="M175 577 c-50 -11 -92 -22 -94 -24 -3 -2 3 -11 12 -20 17 -17 44 -13
220 34 14 4 16 8 6 19 -14 18 -32 16 -144 -9z"/>
<path d="M385 480 c-55 -10 -139 -23 -188 -30 -48 -7 -87 -16 -87 -20 0 -18
56 -30 103 -21 l47 8 0 -45 c0 -25 -5 -94 -12 -154 l-12 -107 -30 -6 c-69 -14
-70 -14 -49 -37 38 -42 46 -41 148 19 53 32 92 59 87 61 -6 2 -36 -4 -67 -12
-45 -11 -56 -12 -52 -2 3 8 8 35 12 62 10 75 11 76 48 39 38 -38 61 -44 71
-19 10 25 -22 53 -66 61 -60 9 -46 34 27 49 101 21 95 25 95 -69 0 -72 3 -87
25 -120 49 -72 184 -114 280 -87 68 19 71 27 44 115 l-23 75 -14 -48 c-7 -26
-22 -55 -34 -64 -26 -23 -98 -23 -157 0 -77 30 -91 80 -53 200 11 32 10 34
-24 48 -32 13 -41 13 -100 -6 -83 -25 -88 -25 -81 2 4 13 0 29 -9 39 -16 18
-10 19 194 35 83 7 97 16 65 40 -23 17 -65 16 -188 -6z"/>
</g>
</svg>
