<?xml version="1.0" standalone="no"?>
<!DOCTYPE svg PUBLIC "-//W3C//DTD SVG 20010904//EN"
 "http://www.w3.org/TR/2001/REC-SVG-20010904/DTD/svg10.dtd">
<svg version="1.0" xmlns="http://www.w3.org/2000/svg"
 width="96.000000pt" height="68.000000pt" viewBox="0 0 96.000000 68.000000"
 preserveAspectRatio="xMidYMid meet">
<metadata>
Created by potrace 1.16, written by Peter Selinger 2001-2019
</metadata>
<g transform="translate(0.000000,68.000000) scale(0.100000,-0.100000)"
fill="#000000" stroke="none">
<path d="M425 264 l-40 -14 36 4 c27 3 40 -1 52 -15 9 -10 13 -19 8 -19 -5 0
-8 -18 -7 -39 0 -22 5 -37 10 -34 5 3 7 0 4 -8 -9 -28 68 -87 98 -75 9 3 12 1
9 -5 -4 -6 3 -7 21 -3 18 5 25 3 20 -4 -11 -18 111 -10 130 9 14 15 14 21 1
60 -15 42 -15 43 -22 18 -11 -45 -44 -65 -95 -61 -25 2 -55 4 -67 4 -13 0 -21
3 -18 8 4 7 -43 35 -55 32 -3 0 -6 22 -5 49 0 27 3 49 6 49 4 0 9 9 12 19 3
13 -3 22 -20 30 -28 13 -26 13 -78 -5z m116 -171 c13 -17 13 -17 -6 -3 -11 8
-22 16 -24 17 -2 2 0 3 6 3 6 0 17 -8 24 -17z m196 -28 c-4 -8 -12 -15 -19
-14 -10 0 -10 2 0 6 6 2 12 12 12 21 0 8 3 13 6 9 4 -3 4 -13 1 -22z"/>
</g>
</svg>
