<?xml version="1.0" standalone="no"?>
<!DOCTYPE svg PUBLIC "-//W3C//DTD SVG 20010904//EN"
 "http://www.w3.org/TR/2001/REC-SVG-20010904/DTD/svg10.dtd">
<svg version="1.0" xmlns="http://www.w3.org/2000/svg"
 width="96.000000pt" height="68.000000pt" viewBox="0 0 96.000000 68.000000"
 preserveAspectRatio="xMidYMid meet">
<metadata>
Created by potrace 1.16, written by Peter Selinger 2001-2019
</metadata>
<g transform="translate(0.000000,68.000000) scale(0.100000,-0.100000)"
fill="#000000" stroke="none">
<path d="M300 528 c-25 -5 -66 -7 -91 -5 l-47 4 10 -29 c9 -24 7 -120 -4 -208
-3 -28 5 -29 125 -14 90 10 85 28 -6 21 l-77 -7 6 93 c3 50 7 97 9 103 2 6 37
14 78 17 80 7 107 14 107 28 0 11 -50 10 -110 -3z"/>
</g>
</svg>
