<?xml version="1.0" standalone="no"?>
<!DOCTYPE svg PUBLIC "-//W3C//DTD SVG 20010904//EN"
 "http://www.w3.org/TR/2001/REC-SVG-20010904/DTD/svg10.dtd">
<svg version="1.0" xmlns="http://www.w3.org/2000/svg"
 width="90.000000pt" height="92.000000pt" viewBox="0 0 90.000000 92.000000"
 preserveAspectRatio="xMidYMid meet">
<metadata>
Created by potrace 1.16, written by Peter Selinger 2001-2019
</metadata>
<g transform="translate(0.000000,92.000000) scale(0.100000,-0.100000)"
fill="#000000" stroke="none">
<path d="M115 773 c10 -24 27 -164 21 -170 -3 -3 -32 -5 -66 -5 -53 0 -60 -2
-54 -16 4 -10 11 -39 17 -67 12 -65 27 -105 38 -105 5 0 9 5 9 10 0 6 11 10
25 10 24 0 25 -3 25 -60 l0 -59 -41 -11 c-23 -6 -52 -9 -65 -6 -33 9 -32 -23
2 -47 24 -18 25 -18 118 27 51 25 98 46 104 46 5 0 17 -11 26 -25 25 -38 46
-32 46 13 0 40 -20 67 -68 92 -30 15 -37 8 -22 -20 13 -24 13 -23 -17 -39 -32
-16 -33 -16 -33 43 0 60 6 66 72 66 31 0 39 3 34 15 -3 8 6 39 19 70 14 31 25
58 25 60 0 2 -14 12 -31 20 -21 11 -43 14 -74 10 l-43 -7 5 43 c2 24 9 56 13
71 7 23 5 30 -13 43 -12 8 -34 15 -50 15 -24 0 -28 -3 -22 -17z m130 -230 c-7
-49 -17 -63 -47 -63 -15 0 -18 9 -18 55 l0 55 36 0 36 0 -7 -47z m-105 -23 l0
-60 -30 0 c-30 0 -30 1 -30 54 0 57 -2 55 53 65 4 0 7 -26 7 -59z"/>
<path d="M630 769 c-52 -10 -141 -21 -197 -25 -57 -4 -103 -9 -103 -11 0 -2 6
-14 14 -26 8 -12 17 -41 21 -64 7 -46 33 -86 41 -65 3 6 23 12 44 12 l39 0 -1
-49 0 -48 -51 -6 c-29 -4 -61 -4 -72 -1 -19 5 -20 0 -19 -114 1 -122 7 -150
27 -134 7 5 33 12 60 14 l47 6 1 -32 c1 -59 21 -98 64 -120 77 -40 273 -22
315 29 10 12 9 22 -4 49 -9 19 -19 48 -22 65 -8 40 -24 50 -24 16 0 -37 -25
-92 -48 -104 -12 -6 -59 -11 -107 -11 -78 0 -88 2 -110 25 -29 28 -29 36 -15
345 7 163 6 187 -8 198 -13 10 -10 12 20 12 30 0 37 -4 42 -25 3 -13 6 -118 6
-231 -1 -138 2 -210 10 -218 8 -8 13 -8 18 0 11 18 81 27 98 13 22 -18 30 -4
58 107 14 56 28 108 31 116 4 9 -5 22 -21 33 -25 16 -30 16 -83 1 -32 -9 -60
-16 -64 -16 -4 0 -7 22 -7 49 l0 48 60 7 c33 4 58 11 56 15 -3 5 8 34 25 64
l30 57 -33 20 c-18 11 -35 19 -38 19 -3 -1 -48 -9 -100 -20z m78 -28 c11 -6
11 -17 3 -48 -10 -36 -15 -41 -45 -45 l-34 -4 -4 48 c-3 46 -2 47 27 51 17 2
32 4 35 5 3 1 11 -2 18 -7z m-224 -37 c3 -9 6 -31 6 -50 0 -33 -1 -34 -39 -34
-35 0 -39 3 -45 31 -10 49 -8 57 17 62 44 8 55 7 61 -9z m256 -238 c0 -32 -11
-41 -62 -53 l-48 -10 0 38 c0 36 2 38 43 47 52 11 67 6 67 -22z m-258 -41 c-3
-28 -9 -35 -26 -35 -11 0 -31 -3 -43 -6 -21 -6 -23 -3 -23 29 0 31 3 36 28 40
67 10 68 10 64 -28z m239 -72 c-6 -36 -9 -38 -49 -44 l-42 -5 0 37 c0 37 1 38
43 42 23 2 45 4 48 5 3 1 3 -15 0 -35z m-241 -27 c0 -32 -2 -34 -47 -40 -25
-3 -48 -4 -50 -2 -2 2 -1 19 2 37 6 32 9 34 51 37 44 2 44 2 44 -32z"/>
</g>
</svg>
