<?xml version="1.0" standalone="no"?>
<!DOCTYPE svg PUBLIC "-//W3C//DTD SVG 20010904//EN"
 "http://www.w3.org/TR/2001/REC-SVG-20010904/DTD/svg10.dtd">
<svg version="1.0" xmlns="http://www.w3.org/2000/svg"
 width="90.000000pt" height="92.000000pt" viewBox="0 0 90.000000 92.000000"
 preserveAspectRatio="xMidYMid meet">
<metadata>
Created by potrace 1.16, written by Peter Selinger 2001-2019
</metadata>
<g transform="translate(0.000000,92.000000) scale(0.100000,-0.100000)"
fill="#000000" stroke="none">
<path d="M465 853 c-37 -31 -132 -76 -208 -98 -31 -9 -57 -19 -57 -22 0 -3 39
-3 86 0 l85 6 16 -36 c13 -33 32 -223 22 -223 -2 0 -83 -9 -179 -20 -96 -11
-178 -20 -182 -20 -21 0 -4 -23 25 -35 29 -12 49 -11 157 6 69 10 140 19 158
19 l32 0 -5 -97 c-7 -145 -15 -194 -32 -200 -8 -3 -35 -1 -59 4 -25 6 -43 8
-42 4 10 -21 129 -122 137 -116 6 3 19 21 28 38 14 25 18 67 21 205 3 119 8
172 16 173 6 0 90 6 186 12 190 13 210 22 139 59 -35 18 -39 18 -173 -2 -75
-11 -145 -20 -155 -20 -16 0 -19 14 -25 118 -6 102 -9 119 -27 135 -16 12 -17
17 -6 17 16 0 132 36 148 46 13 7 -16 41 -51 59 -22 12 -28 10 -55 -12z"/>
<path d="M606 683 c-10 -21 -35 -64 -57 -95 -22 -32 -35 -58 -31 -58 12 0 175
110 185 124 8 12 -45 66 -66 66 -7 0 -21 -17 -31 -37z"/>
<path d="M221 593 c51 -77 70 -95 86 -82 19 16 16 63 -5 82 -19 17 -84 47
-102 47 -6 0 3 -21 21 -47z"/>
</g>
</svg>
