<?xml version="1.0" standalone="no"?>
<!DOCTYPE svg PUBLIC "-//W3C//DTD SVG 20010904//EN"
 "http://www.w3.org/TR/2001/REC-SVG-20010904/DTD/svg10.dtd">
<svg version="1.0" xmlns="http://www.w3.org/2000/svg"
 width="96.000000pt" height="68.000000pt" viewBox="0 0 96.000000 68.000000"
 preserveAspectRatio="xMidYMid meet">
<metadata>
Created by potrace 1.16, written by Peter Selinger 2001-2019
</metadata>
<g transform="translate(0.000000,68.000000) scale(0.100000,-0.100000)"
fill="#000000" stroke="none">
<path d="M610 446 c0 -40 3 -45 31 -55 45 -16 132 -15 127 2 -3 7 -29 14 -64
17 l-59 5 3 38 c2 32 0 37 -18 37 -17 0 -20 -6 -20 -44z"/>
<path d="M506 435 c-8 -19 -26 -46 -40 -60 -32 -31 -20 -32 22 -2 36 27 72 70
72 86 0 6 -9 11 -20 11 -13 0 -25 -12 -34 -35z"/>
</g>
</svg>
