<?xml version="1.0" standalone="no"?>
<!DOCTYPE svg PUBLIC "-//W3C//DTD SVG 20010904//EN"
 "http://www.w3.org/TR/2001/REC-SVG-20010904/DTD/svg10.dtd">
<svg version="1.0" xmlns="http://www.w3.org/2000/svg"
 width="96.000000pt" height="68.000000pt" viewBox="0 0 96.000000 68.000000"
 preserveAspectRatio="xMidYMid meet">
<metadata>
Created by potrace 1.16, written by Peter Selinger 2001-2019
</metadata>
<g transform="translate(0.000000,68.000000) scale(0.100000,-0.100000)"
fill="#000000" stroke="none">
<path d="M325 553 c0 -48 0 -48 -36 -51 -33 -3 -37 0 -45 30 -8 28 -15 34 -42
36 l-33 3 21 -38 c19 -35 19 -38 3 -45 -10 -3 -30 -7 -45 -7 -16 -1 -28 -5
-28 -11 0 -10 23 -17 69 -22 19 -2 27 -11 33 -36 8 -30 12 -33 34 -28 19 5 24
3 24 -14 0 -18 -6 -20 -60 -20 -33 0 -60 -4 -60 -10 0 -5 4 -10 10 -10 5 0 12
-16 16 -35 8 -44 11 -46 57 -35 36 8 37 7 37 -20 0 -33 -7 -36 -108 -46 -114
-11 -103 -28 12 -20 l97 6 -6 -67 c-3 -40 -2 -74 4 -83 17 -25 28 0 34 78 3
41 7 76 9 78 2 2 28 4 56 5 29 1 55 6 58 10 7 12 -33 21 -79 17 -38 -3 -41 -1
-41 22 -1 22 5 26 39 30 24 3 41 11 43 20 2 8 10 22 18 31 31 34 17 44 -57 40
-29 -2 -37 2 -42 18 -4 18 -1 21 23 21 26 0 29 4 32 38 3 35 5 37 43 40 58 5
64 18 16 33 -39 12 -41 14 -35 42 7 33 -6 47 -46 47 -23 0 -25 -3 -25 -47z m5
-90 c0 -17 -17 -32 -43 -38 -23 -6 -27 -4 -27 13 0 11 6 23 13 25 19 8 57 8
57 0z m45 -123 c12 -20 -6 -50 -30 -50 -30 0 -35 9 -24 38 9 23 43 30 54 12z
m-95 -31 c0 -28 -2 -30 -32 -27 -27 2 -34 8 -36 29 -3 23 0 26 32 27 34 1 36
-1 36 -29z"/>
<path d="M526 477 c-20 -72 -36 -108 -69 -154 -42 -59 -43 -81 -1 -42 l27 24
-6 -107 c-5 -86 -3 -109 9 -119 8 -6 18 -9 21 -5 13 13 16 207 4 219 -18 18
-13 32 30 95 23 33 39 67 36 75 -7 18 -47 29 -51 14z"/>
<path d="M608 462 c-2 -4 -2 -80 0 -169 l3 -163 31 -16 c24 -12 50 -15 110
-12 43 3 83 9 89 15 10 10 -9 103 -22 103 -3 0 -10 -15 -15 -32 -12 -40 -47
-60 -97 -54 -60 7 -68 19 -65 100 l3 70 68 20 c65 18 86 39 52 52 -16 7 -25 4
-70 -25 -16 -11 -34 -20 -38 -20 -5 -1 -7 27 -5 60 3 56 1 62 -19 70 -12 4
-24 5 -25 1z"/>
</g>
</svg>
