<?xml version="1.0" standalone="no"?>
<!DOCTYPE svg PUBLIC "-//W3C//DTD SVG 20010904//EN"
 "http://www.w3.org/TR/2001/REC-SVG-20010904/DTD/svg10.dtd">
<svg version="1.0" xmlns="http://www.w3.org/2000/svg"
 width="96.000000pt" height="68.000000pt" viewBox="0 0 96.000000 68.000000"
 preserveAspectRatio="xMidYMid meet">
<metadata>
Created by potrace 1.16, written by Peter Selinger 2001-2019
</metadata>
<g transform="translate(0.000000,68.000000) scale(0.100000,-0.100000)"
fill="#000000" stroke="none">
<path d="M655 301 c6 -30 5 -31 -27 -32 -18 -1 -40 -1 -49 0 -12 1 -15 -4 -12
-22 3 -14 -2 -38 -11 -55 -9 -17 -16 -34 -16 -37 0 -4 27 -4 60 0 l60 7 0 -71
c0 -39 4 -71 9 -71 13 0 21 27 21 75 0 71 4 75 76 75 65 0 85 13 39 24 -13 3
-42 3 -64 0 -37 -6 -39 -5 -43 24 -4 30 -3 31 44 37 57 8 54 25 -3 25 -36 0
-40 2 -37 23 2 18 -2 23 -25 25 -27 3 -29 2 -22 -27z m3 -83 c-3 -30 -6 -33
-40 -36 -43 -4 -44 -2 -23 38 11 21 23 30 41 30 22 0 25 -4 22 -32z"/>
</g>
</svg>
