<?xml version="1.0" standalone="no"?>
<!DOCTYPE svg PUBLIC "-//W3C//DTD SVG 20010904//EN"
 "http://www.w3.org/TR/2001/REC-SVG-20010904/DTD/svg10.dtd">
<svg version="1.0" xmlns="http://www.w3.org/2000/svg"
 width="96.000000pt" height="68.000000pt" viewBox="0 0 96.000000 68.000000"
 preserveAspectRatio="xMidYMid meet">
<metadata>
Created by potrace 1.16, written by Peter Selinger 2001-2019
</metadata>
<g transform="translate(0.000000,68.000000) scale(0.100000,-0.100000)"
fill="#000000" stroke="none">
<path d="M640 453 c-43 -11 -131 -18 -240 -18 0 0 11 -22 25 -49 14 -27 25
-60 25 -73 0 -31 18 -65 30 -58 5 3 58 7 117 9 l108 3 41 82 c41 82 41 83 20
96 -35 22 -69 24 -126 8z m58 -50 c-3 -24 -8 -28 -38 -29 -19 -1 -69 -5 -111
-9 -74 -7 -77 -7 -84 14 -4 13 -5 24 -2 27 5 5 138 21 195 23 42 1 43 0 40
-26z m-8 -47 c0 -1 -5 -17 -10 -33 -11 -30 -12 -30 -98 -36 -90 -5 -102 -1
-102 36 0 14 9 17 48 18 38 1 96 7 155 18 4 0 7 -1 7 -3z"/>
</g>
</svg>
