<?xml version="1.0" standalone="no"?>
<!DOCTYPE svg PUBLIC "-//W3C//DTD SVG 20010904//EN"
 "http://www.w3.org/TR/2001/REC-SVG-20010904/DTD/svg10.dtd">
<svg version="1.0" xmlns="http://www.w3.org/2000/svg"
 width="96.000000pt" height="68.000000pt" viewBox="0 0 96.000000 68.000000"
 preserveAspectRatio="xMidYMid meet">
<metadata>
Created by potrace 1.16, written by Peter Selinger 2001-2019
</metadata>
<g transform="translate(0.000000,68.000000) scale(0.100000,-0.100000)"
fill="#000000" stroke="none">
<path d="M450 194 c-85 -8 -163 -12 -173 -10 -21 5 -22 -2 -2 -24 8 -9 19 -41
25 -70 6 -30 14 -57 18 -61 4 -3 39 -3 77 2 115 13 165 11 165 -6 0 -21 24
-29 48 -16 13 7 26 34 37 76 10 36 22 68 27 71 24 15 -19 57 -55 53 -7 -1 -82
-8 -167 -15z m160 -38 c0 -22 -4 -24 -66 -25 -44 -1 -63 2 -59 9 4 6 1 17 -5
25 -11 13 -2 15 59 15 68 0 71 -1 71 -24z m-176 -3 c9 -23 -2 -30 -57 -36 -43
-4 -50 -1 -57 17 -6 17 -3 22 19 27 51 13 89 10 95 -8z m176 -38 c0 -2 -5 -15
-11 -29 -10 -22 -18 -24 -65 -24 -50 1 -54 3 -54 24 0 20 6 23 48 27 26 2 55
4 65 5 9 1 17 0 17 -3z m-170 -34 c0 -31 -93 -45 -104 -15 -12 30 -6 34 49 34
47 0 55 -3 55 -19z"/>
</g>
</svg>
