<?xml version="1.0" standalone="no"?>
<!DOCTYPE svg PUBLIC "-//W3C//DTD SVG 20010904//EN"
 "http://www.w3.org/TR/2001/REC-SVG-20010904/DTD/svg10.dtd">
<svg version="1.0" xmlns="http://www.w3.org/2000/svg"
 width="96.000000pt" height="68.000000pt" viewBox="0 0 96.000000 68.000000"
 preserveAspectRatio="xMidYMid meet">
<metadata>
Created by potrace 1.16, written by Peter Selinger 2001-2019
</metadata>
<g transform="translate(0.000000,68.000000) scale(0.100000,-0.100000)"
fill="#000000" stroke="none">
<path d="M570 572 c0 -5 9 -18 21 -31 12 -12 19 -24 18 -26 -6 -5 -81 -14
-122 -15 -26 0 -36 -4 -31 -11 7 -12 204 -5 274 10 52 10 33 26 -27 23 -47 -2
-53 0 -53 18 0 10 -9 24 -19 30 -23 12 -61 13 -61 2z"/>
<path d="M319 506 c-3 -3 -36 -10 -74 -16 -85 -14 -108 -30 -42 -30 40 0 47
-3 47 -19 0 -30 -11 -52 -23 -44 -6 3 -7 1 -3 -6 8 -13 -54 -102 -115 -163
-21 -21 -34 -40 -30 -42 9 -6 74 36 112 71 l27 25 6 -39 c10 -58 17 -64 56
-53 19 6 49 10 67 10 24 0 31 4 27 15 -3 8 1 29 10 46 9 18 16 38 16 45 0 18
-43 28 -77 19 -16 -4 -40 -9 -56 -11 -32 -4 -30 1 24 81 17 25 28 49 25 54 -7
10 7 16 67 26 39 6 48 19 21 29 -18 7 -79 8 -85 2z m19 -247 c-3 -29 -8 -34
-35 -40 -37 -7 -48 2 -55 44 -4 22 -1 28 16 32 73 15 79 12 74 -36z"/>
<path d="M696 453 c-4 -15 -19 -45 -33 -66 -32 -46 -23 -60 16 -23 l28 27 32
-30 c19 -17 38 -28 47 -24 22 8 12 26 -25 45 -44 22 -46 25 -27 43 17 18 22
45 7 45 -5 0 -16 3 -24 6 -10 3 -17 -4 -21 -23z"/>
<path d="M502 434 c-1 -15 -18 -49 -37 -75 -37 -52 -32 -65 9 -24 30 30 31 30
63 5 31 -24 43 -25 43 -4 0 9 -13 21 -30 27 -35 13 -37 20 -10 55 16 20 18 27
8 34 -25 16 -44 8 -46 -18z"/>
<path d="M590 296 c0 -28 -28 -36 -126 -36 -35 0 -64 -4 -64 -9 0 -16 50 -22
126 -15 l74 7 0 -106 c0 -60 4 -109 10 -112 16 -10 30 40 30 104 0 32 3 72 6
89 l6 31 107 3 c97 3 104 4 81 17 -26 15 -84 17 -150 6 -35 -6 -40 -5 -40 13
0 20 -18 32 -46 32 -8 0 -14 -10 -14 -24z"/>
</g>
</svg>
