<?xml version="1.0" standalone="no"?>
<!DOCTYPE svg PUBLIC "-//W3C//DTD SVG 20010904//EN"
 "http://www.w3.org/TR/2001/REC-SVG-20010904/DTD/svg10.dtd">
<svg version="1.0" xmlns="http://www.w3.org/2000/svg"
 width="96.000000pt" height="68.000000pt" viewBox="0 0 96.000000 68.000000"
 preserveAspectRatio="xMidYMid meet">
<metadata>
Created by potrace 1.16, written by Peter Selinger 2001-2019
</metadata>
<g transform="translate(0.000000,68.000000) scale(0.100000,-0.100000)"
fill="#000000" stroke="none">
<path d="M540 585 c0 -14 -5 -46 -11 -70 -16 -62 -6 -77 21 -32 21 35 25 37
73 38 29 0 70 3 92 7 l40 8 -32 11 c-17 6 -33 10 -35 8 -1 -1 -24 -5 -50 -9
l-46 -7 1 33 c2 29 -1 33 -25 36 -24 3 -28 0 -28 -23z"/>
<path d="M325 573 c20 -50 20 -50 -54 -63 -43 -7 -69 -16 -65 -22 6 -10 76 -5
131 8 17 5 22 0 28 -25 4 -18 13 -31 22 -31 12 0 13 11 7 68 -7 70 -14 82 -53
82 -18 0 -22 -4 -16 -17z"/>
</g>
</svg>
