<?xml version="1.0" standalone="no"?>
<!DOCTYPE svg PUBLIC "-//W3C//DTD SVG 20010904//EN"
 "http://www.w3.org/TR/2001/REC-SVG-20010904/DTD/svg10.dtd">
<svg version="1.0" xmlns="http://www.w3.org/2000/svg"
 width="96.000000pt" height="68.000000pt" viewBox="0 0 96.000000 68.000000"
 preserveAspectRatio="xMidYMid meet">
<metadata>
Created by potrace 1.16, written by Peter Selinger 2001-2019
</metadata>
<g transform="translate(0.000000,68.000000) scale(0.100000,-0.100000)"
fill="#000000" stroke="none">
<path d="M460 595 c-36 -8 -89 -14 -117 -14 -38 -1 -53 -5 -53 -15 0 -23 42
-26 139 -11 51 9 97 12 103 9 5 -4 -7 -23 -29 -46 -33 -34 -42 -38 -70 -33
-40 7 -43 -6 -8 -33 34 -27 31 -42 -7 -42 -70 0 -257 -23 -252 -31 7 -12 115
-11 189 1 32 5 63 6 67 2 15 -15 -96 -116 -204 -188 -29 -18 -46 -34 -39 -34
34 0 148 69 210 126 38 35 71 61 75 57 8 -9 6 -192 -3 -223 -6 -22 -12 -25
-46 -23 l-38 3 39 -35 c46 -40 58 -42 78 -13 24 34 23 316 -1 333 -14 10 -3
13 63 19 43 4 87 10 97 12 22 7 23 -23 2 -53 -25 -36 -2 -34 69 3 75 40 76 54
5 76 -37 11 -76 7 -211 -18 -24 -5 -28 -2 -28 19 0 24 44 59 128 101 39 20 40
27 3 49 -34 20 -71 20 -161 2z"/>
</g>
</svg>
