<?xml version="1.0" standalone="no"?>
<!DOCTYPE svg PUBLIC "-//W3C//DTD SVG 20010904//EN"
 "http://www.w3.org/TR/2001/REC-SVG-20010904/DTD/svg10.dtd">
<svg version="1.0" xmlns="http://www.w3.org/2000/svg"
 width="90.000000pt" height="92.000000pt" viewBox="0 0 90.000000 92.000000"
 preserveAspectRatio="xMidYMid meet">
<metadata>
Created by potrace 1.16, written by Peter Selinger 2001-2019
</metadata>
<g transform="translate(0.000000,92.000000) scale(0.100000,-0.100000)"
fill="#000000" stroke="none">
<path d="M550 848 c0 -29 -4 -58 -8 -64 -4 -6 -29 -14 -56 -18 -36 -6 -45 -11
-37 -19 6 -6 27 -11 47 -10 32 1 35 -1 30 -20 -21 -74 -21 -73 -2 -58 10 8 26
31 36 51 20 39 47 50 132 50 47 0 56 15 22 33 -20 10 -38 12 -67 5 -22 -5 -42
-7 -44 -4 -2 2 3 18 11 34 15 30 15 31 -10 51 -43 34 -54 28 -54 -31z"/>
<path d="M250 853 c0 -4 7 -27 16 -50 9 -24 15 -46 12 -48 -3 -3 -37 -6 -76
-7 -78 -3 -91 -15 -47 -44 22 -15 28 -15 75 1 56 19 60 17 75 -26 15 -42 30
-35 30 14 0 40 2 42 38 51 52 13 47 30 -8 24 l-45 -6 0 39 c0 28 -5 41 -19 49
-23 12 -51 13 -51 3z"/>
<path d="M390 685 c0 -3 9 -23 20 -44 l19 -38 -52 -7 c-99 -11 -189 -7 -201
10 -10 13 -16 3 -39 -54 -15 -39 -24 -77 -21 -86 11 -30 36 -16 56 32 l20 48
107 13 c58 7 138 17 176 22 82 10 205 12 205 3 0 -3 -9 -19 -21 -36 -12 -16
-20 -31 -18 -33 2 -1 36 5 74 15 75 19 80 27 42 68 -38 41 -50 43 -149 27
-129 -21 -151 -20 -143 4 7 23 -29 61 -57 61 -10 0 -18 -2 -18 -5z"/>
<path d="M276 498 c-9 -45 -94 -157 -167 -217 -34 -28 -58 -51 -54 -51 12 0
71 33 116 66 26 19 49 34 53 34 12 0 6 -120 -9 -163 -13 -40 -13 -49 0 -81 30
-70 43 -40 55 124 5 81 4 110 -7 127 -7 12 -13 24 -13 27 0 3 23 33 51 66 49
59 50 62 33 81 -27 30 -51 24 -58 -13z"/>
<path d="M540 475 c-63 -13 -129 -24 -147 -24 -17 -1 -34 -5 -38 -10 -11 -18
35 -32 80 -25 25 3 45 3 45 -1 0 -4 -10 -25 -22 -47 -20 -34 -26 -39 -50 -34
-34 7 -40 -3 -26 -42 9 -23 9 -49 0 -106 -8 -53 -9 -84 -1 -103 6 -16 13 -23
17 -17 4 6 57 14 119 17 l111 6 6 -25 c7 -28 18 -30 36 -9 9 10 14 55 15 128
1 62 4 121 6 131 3 13 -6 25 -27 37 -28 17 -35 18 -100 4 -38 -8 -73 -15 -77
-15 -5 0 5 17 22 39 17 21 28 41 25 44 -8 8 24 15 109 22 42 4 77 11 77 15 0
11 -41 40 -55 39 -5 -1 -62 -12 -125 -24z m88 -196 l3 -36 -68 -7 c-37 -4 -83
-9 -100 -12 -33 -6 -33 -6 -33 35 0 34 4 41 23 45 12 3 31 7 42 10 11 2 45 3
75 3 l55 -2 3 -36z m2 -119 c0 -47 -2 -50 -19 -41 -12 7 -47 7 -102 1 -46 -6
-86 -10 -89 -10 -3 0 -4 18 -2 40 4 39 5 40 46 41 22 0 61 4 86 8 83 15 80 16
80 -39z"/>
</g>
</svg>
