<?xml version="1.0" standalone="no"?>
<!DOCTYPE svg PUBLIC "-//W3C//DTD SVG 20010904//EN"
 "http://www.w3.org/TR/2001/REC-SVG-20010904/DTD/svg10.dtd">
<svg version="1.0" xmlns="http://www.w3.org/2000/svg"
 width="96.000000pt" height="68.000000pt" viewBox="0 0 96.000000 68.000000"
 preserveAspectRatio="xMidYMid meet">
<metadata>
Created by potrace 1.16, written by Peter Selinger 2001-2019
</metadata>
<g transform="translate(0.000000,68.000000) scale(0.100000,-0.100000)"
fill="#000000" stroke="none">
<path d="M450 458 c0 -6 7 -20 16 -30 21 -23 16 -25 -102 -32 -77 -6 -93 -4
-105 10 -11 14 -16 10 -36 -36 -13 -29 -20 -56 -17 -61 11 -19 35 -8 50 24
l16 34 122 12 c295 28 334 27 291 -9 -8 -7 -15 -16 -15 -20 0 -7 118 14 126
23 3 2 -10 17 -28 32 -28 23 -38 26 -77 21 -26 -3 -76 -8 -113 -12 -65 -6 -68
-6 -68 14 0 12 -9 26 -19 32 -26 13 -41 13 -41 -2z"/>
</g>
</svg>
