<?xml version="1.0" standalone="no"?>
<!DOCTYPE svg PUBLIC "-//W3C//DTD SVG 20010904//EN"
 "http://www.w3.org/TR/2001/REC-SVG-20010904/DTD/svg10.dtd">
<svg version="1.0" xmlns="http://www.w3.org/2000/svg"
 width="96.000000pt" height="68.000000pt" viewBox="0 0 96.000000 68.000000"
 preserveAspectRatio="xMidYMid meet">
<metadata>
Created by potrace 1.16, written by Peter Selinger 2001-2019
</metadata>
<g transform="translate(0.000000,68.000000) scale(0.100000,-0.100000)"
fill="#000000" stroke="none">
<path d="M568 458 c3 -92 7 -127 19 -140 29 -32 165 -36 206 -5 16 11 15 15
-5 56 l-22 44 -11 -39 -11 -39 -58 -3 c-71 -4 -86 7 -86 63 l0 43 48 10 c26 6
64 14 85 17 45 9 54 20 27 35 -17 9 -31 6 -72 -14 -77 -38 -82 -36 -74 28 5
50 4 54 -17 60 -12 3 -24 6 -27 6 -3 0 -4 -55 -2 -122z"/>
</g>
</svg>
