<?xml version="1.0" standalone="no"?>
<!DOCTYPE svg PUBLIC "-//W3C//DTD SVG 20010904//EN"
 "http://www.w3.org/TR/2001/REC-SVG-20010904/DTD/svg10.dtd">
<svg version="1.0" xmlns="http://www.w3.org/2000/svg"
 width="96.000000pt" height="68.000000pt" viewBox="0 0 96.000000 68.000000"
 preserveAspectRatio="xMidYMid meet">
<metadata>
Created by potrace 1.16, written by Peter Selinger 2001-2019
</metadata>
<g transform="translate(0.000000,68.000000) scale(0.100000,-0.100000)"
fill="#000000" stroke="none">
<path d="M355 571 c-2 -5 0 -23 5 -42 18 -63 14 -76 -27 -83 -21 -4 -46 -9
-55 -12 -15 -4 -18 1 -18 34 0 27 -5 42 -16 46 -30 11 -33 6 -27 -44 6 -48 5
-50 -18 -50 -13 0 -30 -4 -37 -9 -18 -11 13 -24 39 -16 16 6 19 1 19 -33 0
-21 3 -67 6 -101 l7 -61 -29 0 c-45 0 -104 -12 -104 -20 0 -18 50 -18 139 0
53 10 129 22 169 26 39 3 72 10 72 15 0 12 -38 21 -61 14 -21 -7 -21 -6 -14
86 4 52 9 97 12 102 2 4 15 7 29 7 32 0 31 16 -2 24 -25 7 -26 9 -21 57 3 27
5 49 4 49 -1 0 -17 4 -34 9 -18 5 -35 6 -38 2z m10 -248 c-4 -54 -7 -99 -8
-99 -1 -1 -23 -5 -49 -8 l-48 -7 0 100 0 100 28 4 c15 2 40 5 55 6 l28 1 -6
-97z"/>
</g>
</svg>
