<?xml version="1.0" standalone="no"?>
<!DOCTYPE svg PUBLIC "-//W3C//DTD SVG 20010904//EN"
 "http://www.w3.org/TR/2001/REC-SVG-20010904/DTD/svg10.dtd">
<svg version="1.0" xmlns="http://www.w3.org/2000/svg"
 width="96.000000pt" height="68.000000pt" viewBox="0 0 96.000000 68.000000"
 preserveAspectRatio="xMidYMid meet">
<metadata>
Created by potrace 1.16, written by Peter Selinger 2001-2019
</metadata>
<g transform="translate(0.000000,68.000000) scale(0.100000,-0.100000)"
fill="#000000" stroke="none">
<path d="M425 553 c4 -16 9 -112 12 -215 l5 -186 -89 -7 c-48 -3 -100 -8 -114
-11 -25 -5 -27 -2 -33 42 -3 26 -6 75 -6 110 0 59 -2 64 -25 70 -47 12 -55 1
-38 -48 11 -31 14 -68 10 -130 -2 -47 -1 -92 3 -98 9 -14 38 -11 155 14 39 8
126 20 195 26 69 6 149 13 178 16 l52 6 0 -30 c0 -17 5 -34 11 -38 22 -13 38
23 53 122 9 56 19 115 22 131 5 26 2 31 -25 42 -51 22 -55 15 -52 -97 l3 -102
-39 0 c-21 0 -76 -3 -122 -7 l-83 -6 3 203 4 204 -25 7 c-53 15 -63 11 -55
-18z"/>
<path d="M596 468 c-10 -24 -31 -60 -47 -80 -42 -54 -39 -71 11 -63 22 4 40 4
40 1 0 -8 -29 -43 -60 -72 -19 -19 -22 -26 -12 -36 9 -9 25 -7 74 10 56 20 64
21 74 7 16 -22 44 -19 44 5 0 24 -36 63 -53 57 -7 -2 -11 -11 -9 -19 2 -11 -9
-18 -34 -22 -20 -4 -38 -5 -40 -3 -2 2 23 31 57 65 37 37 59 67 57 78 -5 29
-26 27 -42 -4 -10 -20 -25 -31 -47 -36 -18 -3 -34 -4 -37 -1 -3 2 14 30 37 60
42 56 49 87 20 93 -9 2 -21 -13 -33 -40z"/>
<path d="M300 443 c-12 -27 -33 -60 -47 -75 -42 -44 -18 -71 41 -48 36 13 32
0 -14 -53 -62 -71 -54 -81 40 -48 48 17 57 18 71 5 8 -8 19 -14 22 -14 12 0 8
45 -5 58 -18 18 -46 15 -44 -5 1 -17 -50 -38 -59 -23 -3 5 20 36 51 69 35 38
54 67 50 76 -8 21 -23 19 -36 -5 -15 -28 -45 -41 -70 -32 -20 8 -20 10 20 60
25 31 40 59 36 67 -11 29 -35 15 -56 -32z"/>
</g>
</svg>
