<?xml version="1.0" standalone="no"?>
<!DOCTYPE svg PUBLIC "-//W3C//DTD SVG 20010904//EN"
 "http://www.w3.org/TR/2001/REC-SVG-20010904/DTD/svg10.dtd">
<svg version="1.0" xmlns="http://www.w3.org/2000/svg"
 width="96.000000pt" height="68.000000pt" viewBox="0 0 96.000000 68.000000"
 preserveAspectRatio="xMidYMid meet">
<metadata>
Created by potrace 1.16, written by Peter Selinger 2001-2019
</metadata>
<g transform="translate(0.000000,68.000000) scale(0.100000,-0.100000)"
fill="#000000" stroke="none">
<path d="M249 573 c-1 -5 0 -60 1 -125 2 -116 -11 -211 -35 -258 -7 -14 -32
-47 -56 -74 l-43 -48 42 21 c41 21 95 82 108 123 5 18 10 16 49 -22 40 -40 65
-46 65 -16 0 15 -42 56 -56 56 -6 0 -18 6 -27 13 -16 11 -16 18 -6 65 10 51
13 54 65 80 30 14 54 29 54 32 0 3 -10 11 -22 19 -20 13 -24 11 -48 -18 -15
-17 -30 -31 -35 -31 -4 0 -5 40 -1 89 6 86 6 89 -16 95 -30 8 -38 7 -39 -1z"/>
<path d="M140 388 c0 -23 40 -80 53 -75 21 6 19 45 -2 66 -23 23 -51 28 -51 9z"/>
</g>
</svg>
