<?xml version="1.0" standalone="no"?>
<!DOCTYPE svg PUBLIC "-//W3C//DTD SVG 20010904//EN"
 "http://www.w3.org/TR/2001/REC-SVG-20010904/DTD/svg10.dtd">
<svg version="1.0" xmlns="http://www.w3.org/2000/svg"
 width="90.000000pt" height="92.000000pt" viewBox="0 0 90.000000 92.000000"
 preserveAspectRatio="xMidYMid meet">
<metadata>
Created by potrace 1.16, written by Peter Selinger 2001-2019
</metadata>
<g transform="translate(0.000000,92.000000) scale(0.100000,-0.100000)"
fill="#000000" stroke="none">
<path d="M550 883 c0 -59 -9 -72 -56 -79 -24 -3 -44 -10 -44 -14 0 -11 26 -20
55 -20 22 0 23 -2 13 -31 -12 -35 -32 -45 -114 -53 -104 -12 -125 -16 -118
-28 7 -11 156 -5 224 8 25 6 30 3 30 -14 0 -25 -6 -26 -207 -48 -90 -10 -163
-21 -163 -25 0 -24 42 -28 142 -15 194 26 218 28 218 12 0 -17 -20 -22 -142
-38 -68 -8 -98 -16 -98 -25 0 -16 14 -16 167 -1 116 11 122 13 118 32 -8 35 8
45 83 52 40 4 72 11 72 15 0 22 -49 39 -91 33 -36 -5 -42 -4 -31 7 21 23 13
39 -27 57 -37 17 -38 19 -25 44 12 23 20 26 83 30 79 4 95 13 66 35 -14 10
-34 13 -66 9 l-47 -5 11 29 c12 33 -3 60 -34 60 -14 0 -19 -7 -19 -27z"/>
<path d="M260 881 c0 -5 7 -26 16 -46 20 -48 11 -55 -69 -55 -64 0 -70 -10
-25 -43 25 -19 28 -19 67 -3 53 21 61 20 61 -3 0 -10 7 -24 15 -31 12 -10 16
-9 21 4 3 9 3 27 0 40 -5 21 -1 26 29 36 41 14 36 35 -6 26 -27 -5 -29 -4 -29
28 0 25 -6 35 -25 44 -31 14 -55 15 -55 3z"/>
<path d="M556 483 c-16 -8 -51 -16 -78 -16 -26 0 -48 -2 -48 -4 0 -2 6 -14 14
-26 8 -12 17 -39 20 -60 6 -32 10 -37 27 -32 14 5 21 0 29 -21 6 -15 9 -28 8
-29 -4 -4 -231 -25 -345 -32 -51 -3 -93 -9 -93 -13 0 -4 15 -15 34 -24 30 -14
41 -14 112 0 43 8 128 17 187 21 l108 6 -3 -69 -3 -69 -45 3 -44 4 44 -49 c24
-26 47 -49 50 -51 4 -1 15 7 26 19 16 18 19 36 19 121 l0 101 100 -6 c113 -6
141 1 112 30 -15 15 -33 18 -112 16 -94 -2 -95 -2 -95 22 0 13 -6 26 -12 28
-7 3 1 6 17 6 37 2 62 15 46 25 -8 5 -5 20 11 48 22 39 22 40 3 54 -24 18 -53
17 -89 -3z m32 -55 c-3 -29 -7 -33 -50 -44 -44 -11 -48 -10 -48 6 0 10 -2 25
-5 32 -5 13 26 24 98 37 5 0 7 -13 5 -31z"/>
<path d="M305 459 c-22 -4 -57 -8 -78 -8 -50 -1 -45 -25 6 -29 33 -3 37 -6 37
-32 0 -33 -14 -40 -76 -40 -48 0 -54 -8 -26 -33 26 -24 49 -21 144 14 104 39
116 50 49 42 l-53 -6 4 29 c2 20 9 30 23 32 11 1 31 5 45 8 24 5 24 6 6 20
-22 15 -23 15 -81 3z"/>
<path d="M280 201 c0 -19 62 -81 81 -81 25 0 27 55 2 68 -31 16 -83 24 -83 13z"/>
</g>
</svg>
