<?xml version="1.0" standalone="no"?>
<!DOCTYPE svg PUBLIC "-//W3C//DTD SVG 20010904//EN"
 "http://www.w3.org/TR/2001/REC-SVG-20010904/DTD/svg10.dtd">
<svg version="1.0" xmlns="http://www.w3.org/2000/svg"
 width="96.000000pt" height="68.000000pt" viewBox="0 0 96.000000 68.000000"
 preserveAspectRatio="xMidYMid meet">
<metadata>
Created by potrace 1.16, written by Peter Selinger 2001-2019
</metadata>
<g transform="translate(0.000000,68.000000) scale(0.100000,-0.100000)"
fill="#000000" stroke="none">
<path d="M659 506 c-8 -8 -398 -38 -444 -34 -51 4 -64 -11 -35 -37 25 -22 36
-59 50 -165 6 -47 16 -97 22 -113 10 -26 33 -37 40 -18 5 14 311 30 320 17 28
-44 34 -49 57 -36 32 17 51 68 71 195 10 61 21 120 25 132 6 18 1 26 -26 42
-31 19 -70 27 -80 17z m21 -98 l0 -53 -69 -1 c-38 -1 -81 -4 -96 -8 l-28 -7 6
51 c3 28 9 55 12 60 3 6 44 10 91 10 l84 0 0 -52z m-256 -11 c12 -61 4 -67
-86 -67 l-67 0 -10 38 c-19 65 -17 67 74 75 77 7 79 6 89 -46z m246 -87 c0 -5
-5 -31 -10 -57 l-11 -48 -79 -2 -80 -2 0 49 0 48 68 7 c37 3 74 8 82 9 28 6
30 6 30 -4z m-242 -68 l3 -52 -70 0 c-50 0 -71 4 -71 13 0 6 -3 29 -6 49 l-6
37 63 3 c35 2 69 3 74 3 6 -1 11 -25 13 -53z"/>
</g>
</svg>
