<?xml version="1.0" standalone="no"?>
<!DOCTYPE svg PUBLIC "-//W3C//DTD SVG 20010904//EN"
 "http://www.w3.org/TR/2001/REC-SVG-20010904/DTD/svg10.dtd">
<svg version="1.0" xmlns="http://www.w3.org/2000/svg"
 width="96.000000pt" height="68.000000pt" viewBox="0 0 96.000000 68.000000"
 preserveAspectRatio="xMidYMid meet">
<metadata>
Created by potrace 1.16, written by Peter Selinger 2001-2019
</metadata>
<g transform="translate(0.000000,68.000000) scale(0.100000,-0.100000)"
fill="#000000" stroke="none">
<path d="M225 404 c-22 -7 -56 -13 -75 -13 l-35 -1 1 -115 c0 -77 4 -119 13
-128 9 -9 14 -9 19 0 4 6 28 13 55 14 39 3 50 -1 62 -19 18 -25 41 -20 51 11
8 25 8 233 0 246 -10 15 -50 17 -91 5z m43 -26 c7 -7 12 -26 12 -43 0 -30 -2
-31 -60 -41 l-60 -10 0 43 c0 39 2 43 33 52 45 13 61 13 75 -1z m9 -144 c-3
-20 -7 -38 -9 -39 -2 -1 -27 -5 -55 -9 l-53 -7 0 40 c0 45 6 49 74 50 l49 1
-6 -36z"/>
</g>
</svg>
