<?xml version="1.0" standalone="no"?>
<!DOCTYPE svg PUBLIC "-//W3C//DTD SVG 20010904//EN"
 "http://www.w3.org/TR/2001/REC-SVG-20010904/DTD/svg10.dtd">
<svg version="1.0" xmlns="http://www.w3.org/2000/svg"
 width="96.000000pt" height="68.000000pt" viewBox="0 0 96.000000 68.000000"
 preserveAspectRatio="xMidYMid meet">
<metadata>
Created by potrace 1.16, written by Peter Selinger 2001-2019
</metadata>
<g transform="translate(0.000000,68.000000) scale(0.100000,-0.100000)"
fill="#000000" stroke="none">
<path d="M285 230 c-11 -5 -47 -9 -79 -9 -51 -1 -57 -3 -43 -14 10 -7 24 -32
31 -57 15 -49 10 -47 101 -32 32 5 49 13 47 21 -1 7 6 27 17 45 16 25 18 35 9
44 -14 14 -54 15 -83 2z m23 -52 c-2 -26 -9 -33 -33 -40 -34 -9 -41 -4 -50 34
-7 28 2 33 63 37 20 1 23 -3 20 -31z"/>
</g>
</svg>
