<?xml version="1.0" standalone="no"?>
<!DOCTYPE svg PUBLIC "-//W3C//DTD SVG 20010904//EN"
 "http://www.w3.org/TR/2001/REC-SVG-20010904/DTD/svg10.dtd">
<svg version="1.0" xmlns="http://www.w3.org/2000/svg"
 width="96.000000pt" height="68.000000pt" viewBox="0 0 96.000000 68.000000"
 preserveAspectRatio="xMidYMid meet">
<metadata>
Created by potrace 1.16, written by Peter Selinger 2001-2019
</metadata>
<g transform="translate(0.000000,68.000000) scale(0.100000,-0.100000)"
fill="#000000" stroke="none">
<path d="M566 547 c7 -63 5 -65 -66 -74 -30 -3 -50 -11 -50 -18 0 -13 29 -13
86 0 27 6 32 4 37 -17 12 -42 8 -47 -43 -54 -27 -4 -50 -10 -50 -15 0 -11 64
-11 112 0 39 9 48 2 48 -39 0 -23 -9 -25 -137 -40 -131 -16 -138 -35 -10 -27
50 4 107 9 125 13 l32 6 0 -96 c0 -106 -8 -119 -57 -97 -41 19 -38 6 8 -37 76
-70 104 -31 93 130 l-7 96 82 7 c44 4 81 11 81 15 0 16 -61 29 -108 23 l-49
-5 0 31 c0 27 4 31 29 31 15 0 28 4 28 10 0 16 -48 23 -90 12 l-40 -10 0 38
c0 37 1 37 46 44 26 3 64 6 85 6 44 0 52 16 14 26 -25 6 -74 1 -122 -12 -20
-6 -22 -2 -25 47 -3 51 -5 54 -31 57 l-27 3 6 -54z"/>
<path d="M210 563 c0 -5 12 -25 26 -46 20 -30 31 -38 51 -35 35 4 39 21 11 51
-22 25 -88 47 -88 30z"/>
<path d="M218 456 c-121 -22 -143 -31 -118 -46 23 -15 66 -12 175 11 55 12
111 23 125 26 24 4 24 5 6 19 -25 18 -45 17 -188 -10z"/>
<path d="M235 365 l-50 -13 51 -1 c64 -1 115 9 108 20 -7 12 -48 9 -109 -6z"/>
<path d="M240 297 c-45 -8 -50 -11 -30 -17 30 -7 140 9 140 21 0 11 -39 10
-110 -4z"/>
<path d="M285 230 c-11 -5 -45 -9 -75 -9 -31 -1 -50 -5 -43 -9 7 -5 20 -32 29
-61 12 -42 19 -51 32 -46 9 3 38 9 63 12 44 5 46 7 63 54 9 27 14 54 11 59 -7
12 -52 12 -80 0z m26 -52 c-5 -24 -15 -36 -34 -42 -31 -11 -42 -4 -52 36 -6
23 -4 27 22 31 70 10 71 10 64 -25z"/>
<path d="M470 219 c0 -20 44 -69 62 -69 21 0 25 32 5 48 -22 18 -67 33 -67 21z"/>
</g>
</svg>
