<?xml version="1.0" standalone="no"?>
<!DOCTYPE svg PUBLIC "-//W3C//DTD SVG 20010904//EN"
 "http://www.w3.org/TR/2001/REC-SVG-20010904/DTD/svg10.dtd">
<svg version="1.0" xmlns="http://www.w3.org/2000/svg"
 width="96.000000pt" height="68.000000pt" viewBox="0 0 96.000000 68.000000"
 preserveAspectRatio="xMidYMid meet">
<metadata>
Created by potrace 1.16, written by Peter Selinger 2001-2019
</metadata>
<g transform="translate(0.000000,68.000000) scale(0.100000,-0.100000)"
fill="#000000" stroke="none">
<path d="M440 525 c-19 -7 -54 -14 -77 -14 l-42 -1 10 -32 c5 -18 9 -45 9 -61
0 -26 1 -27 43 -22 104 14 107 15 107 36 0 11 7 35 14 54 14 32 13 36 -4 45
-10 5 -20 10 -22 9 -2 0 -19 -7 -38 -14z m20 -50 c0 -29 -5 -37 -26 -45 -14
-6 -34 -10 -45 -10 -17 0 -20 6 -17 37 2 30 8 39 28 44 52 15 60 11 60 -26z"/>
</g>
</svg>
