<?xml version="1.0" standalone="no"?>
<!DOCTYPE svg PUBLIC "-//W3C//DTD SVG 20010904//EN"
 "http://www.w3.org/TR/2001/REC-SVG-20010904/DTD/svg10.dtd">
<svg version="1.0" xmlns="http://www.w3.org/2000/svg"
 width="96.000000pt" height="68.000000pt" viewBox="0 0 96.000000 68.000000"
 preserveAspectRatio="xMidYMid meet">
<metadata>
Created by potrace 1.16, written by Peter Selinger 2001-2019
</metadata>
<g transform="translate(0.000000,68.000000) scale(0.100000,-0.100000)"
fill="#000000" stroke="none">
<path d="M547 522 c-10 -31 -33 -79 -52 -107 -32 -46 -39 -73 -13 -47 7 7 18
12 25 12 18 0 17 -154 -2 -244 -14 -68 -9 -106 16 -106 21 0 31 63 34 235 l5
179 30 47 c34 52 37 74 14 83 -31 12 -39 5 -57 -52z"/>
</g>
</svg>
