<?xml version="1.0" standalone="no"?>
<!DOCTYPE svg PUBLIC "-//W3C//DTD SVG 20010904//EN"
 "http://www.w3.org/TR/2001/REC-SVG-20010904/DTD/svg10.dtd">
<svg version="1.0" xmlns="http://www.w3.org/2000/svg"
 width="96.000000pt" height="68.000000pt" viewBox="0 0 96.000000 68.000000"
 preserveAspectRatio="xMidYMid meet">
<metadata>
Created by potrace 1.16, written by Peter Selinger 2001-2019
</metadata>
<g transform="translate(0.000000,68.000000) scale(0.100000,-0.100000)"
fill="#000000" stroke="none">
<path d="M277 573 c-2 -5 -7 -24 -11 -44 -8 -46 -70 -143 -134 -208 -26 -28
-43 -51 -37 -51 14 0 90 53 100 69 10 17 62 13 69 -5 13 -35 6 -43 -44 -50
-62 -8 -55 -24 11 -24 l49 0 0 -59 c0 -67 1 -67 -89 -77 -34 -3 -61 -9 -61
-12 0 -10 36 -31 53 -32 24 0 229 70 242 83 7 6 2 8 -15 3 -14 -3 -43 -9 -64
-13 l-39 -6 6 48 c4 26 7 56 7 65 0 13 11 19 43 24 36 6 39 9 24 18 -11 5 -29
8 -42 6 -19 -4 -24 0 -27 24 -5 34 -2 38 33 38 15 0 30 4 33 9 11 17 -28 22
-81 10 -29 -7 -56 -10 -59 -7 -6 7 67 118 78 118 4 0 21 -13 38 -30 35 -34 50
-38 50 -12 0 23 -30 52 -54 52 -9 0 -21 11 -26 24 -9 26 -46 52 -53 39z"/>
<path d="M362 218 c-6 -17 -10 -33 -9 -34 2 -2 16 8 32 21 25 21 28 26 15 35
-22 14 -24 13 -38 -22z"/>
<path d="M192 188 c32 -42 48 -46 48 -14 0 19 -7 29 -26 36 -43 17 -48 11 -22
-22z"/>
</g>
</svg>
