<?xml version="1.0" standalone="no"?>
<!DOCTYPE svg PUBLIC "-//W3C//DTD SVG 20010904//EN"
 "http://www.w3.org/TR/2001/REC-SVG-20010904/DTD/svg10.dtd">
<svg version="1.0" xmlns="http://www.w3.org/2000/svg"
 width="96.000000pt" height="68.000000pt" viewBox="0 0 96.000000 68.000000"
 preserveAspectRatio="xMidYMid meet">
<metadata>
Created by potrace 1.16, written by Peter Selinger 2001-2019
</metadata>
<g transform="translate(0.000000,68.000000) scale(0.100000,-0.100000)"
fill="#000000" stroke="none">
<path d="M255 470 c-11 -5 -45 -9 -76 -9 l-57 -1 19 -37 c10 -21 19 -45 19
-54 0 -10 5 -30 10 -44 8 -20 14 -24 23 -17 6 6 37 13 68 17 49 6 56 10 52 26
-3 10 5 39 17 65 19 38 20 48 9 55 -17 11 -57 10 -84 -1z m25 -57 c0 -49 -9
-61 -48 -69 -35 -7 -36 -5 -47 58 -6 39 -1 43 68 47 25 1 27 -2 27 -36z"/>
</g>
</svg>
