<?xml version="1.0" standalone="no"?>
<!DOCTYPE svg PUBLIC "-//W3C//DTD SVG 20010904//EN"
 "http://www.w3.org/TR/2001/REC-SVG-20010904/DTD/svg10.dtd">
<svg version="1.0" xmlns="http://www.w3.org/2000/svg"
 width="96.000000pt" height="68.000000pt" viewBox="0 0 96.000000 68.000000"
 preserveAspectRatio="xMidYMid meet">
<metadata>
Created by potrace 1.16, written by Peter Selinger 2001-2019
</metadata>
<g transform="translate(0.000000,68.000000) scale(0.100000,-0.100000)"
fill="#000000" stroke="none">
<path d="M610 170 c0 -10 -5 -31 -12 -45 -9 -21 -18 -25 -55 -25 -35 0 -43 3
-43 18 0 21 -36 59 -46 49 -4 -4 -1 -20 6 -37 7 -17 11 -33 8 -35 -3 -4 -68
-11 -123 -14 -19 -2 -19 -2 -1 -13 12 -7 55 -8 125 -4 58 4 157 7 219 8 61 0
112 4 112 9 0 21 -45 31 -111 25 -38 -4 -69 -4 -69 0 0 4 10 18 21 30 25 26
19 54 -11 54 -13 0 -20 -7 -20 -20z"/>
</g>
</svg>
