<?xml version="1.0" standalone="no"?>
<!DOCTYPE svg PUBLIC "-//W3C//DTD SVG 20010904//EN"
 "http://www.w3.org/TR/2001/REC-SVG-20010904/DTD/svg10.dtd">
<svg version="1.0" xmlns="http://www.w3.org/2000/svg"
 width="96.000000pt" height="68.000000pt" viewBox="0 0 96.000000 68.000000"
 preserveAspectRatio="xMidYMid meet">
<metadata>
Created by potrace 1.16, written by Peter Selinger 2001-2019
</metadata>
<g transform="translate(0.000000,68.000000) scale(0.100000,-0.100000)"
fill="#000000" stroke="none">
<path d="M295 300 c-11 -5 -34 -9 -51 -9 -47 -1 -57 -19 -44 -77 16 -74 19
-79 32 -66 7 7 36 12 65 12 51 0 53 1 53 28 0 15 7 40 15 56 21 39 19 53 -7
60 -29 7 -38 7 -63 -4z m22 -61 c-6 -46 -19 -59 -58 -59 -22 0 -28 6 -33 31
-12 59 -8 62 73 68 22 1 23 -2 18 -40z"/>
</g>
</svg>
