<?xml version="1.0" standalone="no"?>
<!DOCTYPE svg PUBLIC "-//W3C//DTD SVG 20010904//EN"
 "http://www.w3.org/TR/2001/REC-SVG-20010904/DTD/svg10.dtd">
<svg version="1.0" xmlns="http://www.w3.org/2000/svg"
 width="90.000000pt" height="92.000000pt" viewBox="0 0 90.000000 92.000000"
 preserveAspectRatio="xMidYMid meet">
<metadata>
Created by potrace 1.16, written by Peter Selinger 2001-2019
</metadata>
<g transform="translate(0.000000,92.000000) scale(0.100000,-0.100000)"
fill="#000000" stroke="none">
<path d="M638 812 c-15 -31 -35 -68 -45 -81 l-18 -24 25 13 c14 7 50 34 80 59
30 25 57 47 60 49 9 6 -41 42 -59 42 -10 -1 -27 -23 -43 -58z"/>
<path d="M157 779 c3 -34 0 -106 -7 -161 -14 -112 -19 -118 -106 -118 -50 0
-54 -7 -19 -40 22 -21 27 -22 55 -10 38 16 42 12 30 -31 -14 -49 -12 -67 8
-74 9 -3 27 -14 40 -25 22 -18 22 -20 7 -43 -9 -14 -42 -44 -75 -68 -33 -24
-58 -44 -56 -46 5 -6 71 20 101 40 17 11 40 31 52 46 l22 26 39 -38 c46 -45
62 -47 62 -8 0 22 -10 37 -37 59 -29 23 -35 33 -26 43 11 14 34 80 53 155 7
28 17 43 30 47 24 6 27 27 4 27 -11 0 -13 6 -9 19 4 13 -1 24 -17 35 -36 25
-50 20 -48 -16 3 -52 2 -55 -28 -62 -15 -4 -35 -9 -46 -12 -16 -5 -17 -2 -11
35 4 23 18 85 31 139 l24 97 -27 22 c-45 37 -52 31 -46 -38z m103 -277 c0 -16
-32 -118 -46 -144 -14 -27 -14 -28 -49 -11 -39 19 -40 24 -23 87 10 40 16 45
57 59 56 18 61 19 61 9z"/>
<path d="M410 804 c0 -3 14 -26 32 -50 37 -52 62 -54 66 -6 3 29 -1 34 -32 47
-36 15 -66 19 -66 9z"/>
<path d="M639 690 c-30 -10 -99 -24 -152 -30 -53 -7 -97 -16 -97 -20 0 -14 30
-20 76 -13 51 7 64 -3 64 -49 0 -28 1 -28 -135 -41 -17 -2 -20 -8 -17 -47 3
-35 -2 -52 -19 -74 -19 -24 -20 -30 -8 -42 12 -12 23 -10 74 11 63 26 95 31
95 16 0 -21 -99 -138 -152 -181 -31 -25 -53 -46 -48 -48 20 -7 99 45 153 100
l58 60 -2 -125 c-2 -92 1 -130 10 -141 36 -44 46 -2 42 188 -2 125 0 160 10
167 8 5 47 9 87 9 70 0 72 -1 72 -25 0 -14 -7 -41 -15 -61 -14 -34 -15 -34
-57 -28 l-43 7 40 -44 c22 -24 46 -44 54 -44 22 0 57 57 65 106 4 22 13 54 21
69 14 27 13 30 -11 49 -30 24 -35 24 -84 12 -19 -5 -59 -12 -88 -15 l-53 -7 3
38 3 38 60 3 c75 3 92 9 77 24 -8 8 -6 21 8 49 11 21 24 40 30 44 21 13 9 36
-25 51 -19 7 -36 14 -37 13 -2 -1 -28 -9 -59 -19z m46 -77 c-4 -21 -8 -39 -8
-39 -1 -1 -21 -4 -44 -7 l-43 -5 0 34 c0 20 -5 34 -12 34 -9 0 -8 4 2 10 8 5
37 10 64 10 l48 0 -7 -37z m-155 -132 c0 -39 0 -39 -50 -50 -67 -15 -70 -14
-70 9 0 42 21 69 59 73 20 2 42 4 49 5 8 1 12 -12 12 -37z"/>
</g>
</svg>
