<?xml version="1.0" standalone="no"?>
<!DOCTYPE svg PUBLIC "-//W3C//DTD SVG 20010904//EN"
 "http://www.w3.org/TR/2001/REC-SVG-20010904/DTD/svg10.dtd">
<svg version="1.0" xmlns="http://www.w3.org/2000/svg"
 width="90.000000pt" height="92.000000pt" viewBox="0 0 90.000000 92.000000"
 preserveAspectRatio="xMidYMid meet">
<metadata>
Created by potrace 1.16, written by Peter Selinger 2001-2019
</metadata>
<g transform="translate(0.000000,92.000000) scale(0.100000,-0.100000)"
fill="#000000" stroke="none">
<path d="M205 779 c-11 -61 -77 -185 -144 -269 -34 -41 -61 -79 -61 -83 0 -14
38 12 89 62 l50 49 7 -35 c8 -44 -3 -243 -17 -299 -16 -63 27 -153 46 -95 10
34 14 91 15 259 2 141 -1 166 -15 182 -16 18 -16 21 3 47 10 15 38 61 61 102
l42 74 -22 23 c-32 34 -46 30 -54 -17z"/>
<path d="M659 815 c-8 -8 -260 -46 -288 -43 -21 2 -25 -1 -23 -17 1 -11 2 -60
2 -109 -1 -154 -42 -332 -106 -459 l-26 -52 30 29 c64 60 118 201 141 370 5
37 11 69 13 71 2 2 69 11 151 21 94 11 144 21 138 27 -11 11 9 58 38 90 15 18
14 21 -17 48 -31 28 -44 34 -53 24z m-9 -77 c0 -18 -4 -38 -8 -44 -8 -13 -93
-33 -185 -44 -47 -5 -57 -4 -52 8 3 7 5 28 5 46 0 32 1 34 58 44 31 7 66 13
77 16 11 2 39 4 63 5 41 1 42 0 42 -31z"/>
<path d="M549 494 c4 -96 -1 -104 -58 -104 -26 0 -32 3 -27 16 18 47 17 63 -2
73 -32 17 -38 13 -34 -23 2 -18 -3 -47 -12 -63 -13 -26 -13 -33 0 -51 14 -21
14 -21 57 -2 71 33 73 31 80 -62 6 -94 4 -98 -61 -98 l-43 0 6 34 c6 28 3 36
-16 50 -34 23 -41 20 -34 -18 5 -22 2 -44 -8 -62 -11 -21 -12 -34 -4 -51 12
-28 13 -28 87 -3 32 11 97 26 144 34 l86 13 0 -28 c0 -32 18 -48 31 -28 5 8
11 34 14 59 4 25 10 57 15 73 8 24 6 29 -21 43 -17 8 -34 13 -37 10 -3 -4 -5
-29 -3 -56 l2 -50 -39 0 c-22 0 -47 -3 -56 -6 -14 -5 -16 6 -16 90 0 87 2 96
19 96 10 0 32 3 49 6 28 6 31 4 34 -22 2 -18 9 -29 18 -29 10 0 19 23 31 78
16 77 15 78 -5 93 -37 26 -46 18 -43 -38 l2 -53 -50 -3 -50 -3 5 76 c5 82 0
95 -39 95 l-26 0 4 -86z"/>
</g>
</svg>
