<?xml version="1.0" standalone="no"?>
<!DOCTYPE svg PUBLIC "-//W3C//DTD SVG 20010904//EN"
 "http://www.w3.org/TR/2001/REC-SVG-20010904/DTD/svg10.dtd">
<svg version="1.0" xmlns="http://www.w3.org/2000/svg"
 width="96.000000pt" height="68.000000pt" viewBox="0 0 96.000000 68.000000"
 preserveAspectRatio="xMidYMid meet">
<metadata>
Created by potrace 1.16, written by Peter Selinger 2001-2019
</metadata>
<g transform="translate(0.000000,68.000000) scale(0.100000,-0.100000)"
fill="#000000" stroke="none">
<path d="M630 196 l0 -63 -41 -7 c-49 -8 -63 -1 -49 24 8 15 5 22 -12 34 -31
22 -39 20 -32 -8 3 -13 1 -33 -5 -44 -17 -32 -3 -55 28 -48 14 4 62 13 106 21
44 8 92 17 108 19 24 5 27 2 27 -20 0 -18 5 -25 17 -22 11 2 21 21 29 58 13
58 11 66 -21 72 -17 3 -19 -2 -17 -33 l3 -37 -50 -3 -51 -4 0 63 c0 55 -2 62
-20 62 -18 0 -20 -7 -20 -64z"/>
</g>
</svg>
