<?xml version="1.0" standalone="no"?>
<!DOCTYPE svg PUBLIC "-//W3C//DTD SVG 20010904//EN"
 "http://www.w3.org/TR/2001/REC-SVG-20010904/DTD/svg10.dtd">
<svg version="1.0" xmlns="http://www.w3.org/2000/svg"
 width="96.000000pt" height="68.000000pt" viewBox="0 0 96.000000 68.000000"
 preserveAspectRatio="xMidYMid meet">
<metadata>
Created by potrace 1.16, written by Peter Selinger 2001-2019
</metadata>
<g transform="translate(0.000000,68.000000) scale(0.100000,-0.100000)"
fill="#000000" stroke="none">
<path d="M507 569 c32 -54 63 -63 63 -19 0 21 -8 28 -51 40 l-29 9 17 -30z"/>
<path d="M590 515 c-36 -7 -85 -14 -110 -15 -25 -1 -54 -5 -65 -9 l-20 -8 20
-6 c11 -4 76 0 145 8 69 8 130 15 135 15 6 0 1 7 -9 15 -11 8 -22 14 -25 14
-3 -1 -35 -7 -71 -14z"/>
</g>
</svg>
