<?xml version="1.0" standalone="no"?>
<!DOCTYPE svg PUBLIC "-//W3C//DTD SVG 20010904//EN"
 "http://www.w3.org/TR/2001/REC-SVG-20010904/DTD/svg10.dtd">
<svg version="1.0" xmlns="http://www.w3.org/2000/svg"
 width="96.000000pt" height="68.000000pt" viewBox="0 0 96.000000 68.000000"
 preserveAspectRatio="xMidYMid meet">
<metadata>
Created by potrace 1.16, written by Peter Selinger 2001-2019
</metadata>
<g transform="translate(0.000000,68.000000) scale(0.100000,-0.100000)"
fill="#000000" stroke="none">
<path d="M500 583 c0 -5 11 -21 25 -38 21 -25 26 -28 35 -15 16 25 12 40 -16
50 -30 12 -44 13 -44 3z"/>
<path d="M555 510 c-22 -5 -67 -12 -100 -16 -33 -4 -50 -9 -38 -11 21 -4 66
-79 56 -95 -2 -5 -33 -8 -68 -8 -62 0 -91 -12 -59 -24 9 -4 87 -2 173 4 246
16 301 21 301 30 0 11 -55 29 -77 25 -47 -10 -133 -13 -133 -5 0 5 7 15 15 24
8 8 14 25 13 38 -3 18 2 24 25 26 15 2 27 8 27 13 0 11 -79 10 -135 -1z m35
-58 c0 -45 -14 -62 -51 -62 -22 0 -30 6 -39 35 -6 19 -16 35 -21 35 -5 0 -9 4
-9 9 0 6 21 12 48 14 26 2 53 4 60 5 8 1 12 -11 12 -36z"/>
<path d="M210 480 c-14 -4 -41 -8 -60 -9 l-35 -1 0 -175 c0 -125 3 -177 12
-186 10 -10 15 -10 25 3 20 25 79 29 98 6 22 -27 48 -14 56 29 4 19 4 65 1
102 -3 36 -2 98 3 136 7 63 6 72 -12 88 -21 18 -47 20 -88 7z m48 -92 c3 -55
2 -58 -20 -58 -13 0 -33 -3 -45 -6 -22 -6 -23 -4 -23 53 0 33 3 63 7 67 4 4
23 6 43 4 l35 -3 3 -57z m2 -148 c0 -65 1 -64 -63 -75 l-38 -6 3 63 3 63 40 6
c22 3 43 7 48 8 4 0 7 -26 7 -59z"/>
<path d="M565 325 c-44 -8 -101 -14 -126 -14 l-45 -1 24 -75 24 -74 44 6 c42
6 44 5 44 -21 0 -25 -3 -26 -50 -26 -64 0 -66 -18 -2 -22 39 -2 48 -7 50 -24
3 -18 -4 -22 -44 -28 -26 -3 -69 -6 -95 -6 -27 0 -49 -4 -49 -9 0 -17 66 -21
161 -11 52 5 143 10 202 10 81 0 108 3 105 12 -7 20 -47 25 -145 20 -88 -5
-93 -4 -93 15 0 22 24 33 73 33 15 0 27 5 27 10 0 6 -22 10 -50 10 -47 0 -50
1 -50 26 0 25 2 26 51 22 56 -3 53 -6 89 71 21 48 25 67 12 75 -20 12 -85 13
-157 1z m105 -35 c0 -17 -7 -20 -50 -20 -35 0 -50 4 -50 13 0 22 11 27 57 27
36 0 43 -3 43 -20z m-152 -3 c7 -17 -5 -28 -35 -31 -34 -5 -48 6 -40 27 5 13
70 17 75 4z m142 -44 c-1 -20 -20 -34 -53 -40 -33 -5 -37 -3 -37 15 0 13 8 22
23 25 39 7 67 7 67 0z m-140 -28 c0 -21 -5 -25 -29 -25 -40 0 -51 37 -12 43
14 2 29 5 34 6 4 0 7 -10 7 -24z"/>
</g>
</svg>
