<?xml version="1.0" standalone="no"?>
<!DOCTYPE svg PUBLIC "-//W3C//DTD SVG 20010904//EN"
 "http://www.w3.org/TR/2001/REC-SVG-20010904/DTD/svg10.dtd">
<svg version="1.0" xmlns="http://www.w3.org/2000/svg"
 width="96.000000pt" height="68.000000pt" viewBox="0 0 96.000000 68.000000"
 preserveAspectRatio="xMidYMid meet">
<metadata>
Created by potrace 1.16, written by Peter Selinger 2001-2019
</metadata>
<g transform="translate(0.000000,68.000000) scale(0.100000,-0.100000)"
fill="#000000" stroke="none">
<path d="M566 255 c8 -31 8 -31 6 -123 l-2 -74 -32 7 -33 7 33 -33 c26 -28 35
-32 50 -23 14 9 17 30 20 138 l3 126 -26 0 c-22 0 -25 -3 -19 -25z"/>
<path d="M683 235 l-23 -34 26 9 c55 21 66 30 53 46 -18 22 -32 17 -56 -21z"/>
<path d="M450 231 c0 -15 30 -41 46 -41 23 0 16 37 -8 44 -31 8 -38 7 -38 -3z"/>
<path d="M515 160 c-3 -5 -33 -19 -66 -31 -60 -22 -73 -42 -28 -46 16 -2 40
11 74 42 27 25 44 45 38 45 -7 0 -14 -4 -18 -10z"/>
<path d="M705 116 c66 -61 85 -68 85 -33 0 23 -22 38 -110 74 -32 13 -31 10
25 -41z"/>
</g>
</svg>
