<?xml version="1.0" standalone="no"?>
<!DOCTYPE svg PUBLIC "-//W3C//DTD SVG 20010904//EN"
 "http://www.w3.org/TR/2001/REC-SVG-20010904/DTD/svg10.dtd">
<svg version="1.0" xmlns="http://www.w3.org/2000/svg"
 width="96.000000pt" height="68.000000pt" viewBox="0 0 96.000000 68.000000"
 preserveAspectRatio="xMidYMid meet">
<metadata>
Created by potrace 1.16, written by Peter Selinger 2001-2019
</metadata>
<g transform="translate(0.000000,68.000000) scale(0.100000,-0.100000)"
fill="#000000" stroke="none">
<path d="M490 536 c0 -35 -7 -86 -16 -114 -18 -55 -31 -62 -123 -62 -33 0 -42
-3 -31 -10 8 -5 39 -10 68 -10 28 0 52 -3 52 -7 0 -5 -9 -19 -20 -33 -34 -43
-29 -50 47 -65 67 -13 49 -41 -62 -97 -58 -29 -59 -30 -21 -24 21 3 65 21 98
41 33 19 67 35 77 35 10 0 56 -25 102 -55 88 -58 109 -65 109 -39 0 41 -26 61
-142 108 -42 17 -47 33 -19 62 10 11 22 31 26 45 13 43 25 49 93 49 63 0 65 1
49 17 -11 11 -32 17 -57 17 -27 -1 -40 3 -40 12 0 16 -31 34 -59 34 -17 0 -21
-6 -21 -30 0 -30 -1 -30 -55 -30 -50 0 -54 2 -45 18 23 39 68 156 64 166 -4
11 -51 36 -66 36 -4 0 -8 -29 -8 -64z m85 -251 c-28 -48 -37 -51 -98 -34 -33
9 -37 13 -31 32 17 54 33 66 92 69 69 4 74 -5 37 -67z"/>
<path d="M227 544 c-10 -11 63 -84 84 -84 29 0 34 38 7 60 -13 11 -27 20 -33
20 -5 0 -19 3 -30 6 -11 3 -24 2 -28 -2z"/>
<path d="M140 408 c0 -25 83 -80 106 -71 18 7 18 37 0 52 -13 11 -106 28 -106
19z"/>
<path d="M250 254 c-29 -31 -66 -62 -82 -70 -33 -17 -35 -27 -8 -65 24 -33 41
-30 63 14 17 31 38 68 78 134 32 52 7 45 -51 -13z"/>
</g>
</svg>
