<?xml version="1.0" standalone="no"?>
<!DOCTYPE svg PUBLIC "-//W3C//DTD SVG 20010904//EN"
 "http://www.w3.org/TR/2001/REC-SVG-20010904/DTD/svg10.dtd">
<svg version="1.0" xmlns="http://www.w3.org/2000/svg"
 width="96.000000pt" height="68.000000pt" viewBox="0 0 96.000000 68.000000"
 preserveAspectRatio="xMidYMid meet">
<metadata>
Created by potrace 1.16, written by Peter Selinger 2001-2019
</metadata>
<g transform="translate(0.000000,68.000000) scale(0.100000,-0.100000)"
fill="#000000" stroke="none">
<path d="M530 551 c0 -5 11 -23 25 -39 14 -17 25 -32 25 -35 0 -3 -31 -8 -70
-12 -38 -4 -67 -11 -64 -16 3 -5 9 -7 13 -5 4 3 12 2 18 -2 13 -8 53 -95 53
-115 0 -15 -40 -27 -87 -27 -15 0 -22 -4 -17 -11 4 -8 29 -9 78 -4 39 4 126
10 193 14 67 4 125 10 129 14 16 16 -12 22 -93 20 l-84 -2 31 56 c25 44 29 58
18 64 -9 6 -3 10 20 15 18 4 31 12 29 18 -4 12 -42 14 -98 4 -34 -6 -37 -4
-42 21 -7 33 -77 71 -77 42z m116 -127 c0 -16 -5 -43 -12 -61 -7 -17 -10 -34
-6 -37 3 -3 -11 -6 -31 -6 -34 0 -37 2 -37 30 0 19 -9 38 -27 54 -34 32 -24
44 42 49 69 5 70 4 71 -29z"/>
<path d="M305 510 c-16 -4 -55 -8 -85 -9 l-55 -1 1 -135 c2 -147 6 -170 30
-161 48 19 30 -28 -40 -102 -28 -29 -34 -41 -21 -36 26 10 145 105 145 117 0
5 -10 11 -22 15 -21 5 -21 6 -2 13 32 13 73 10 99 -7 24 -15 25 -15 34 8 5 13
11 83 12 154 3 128 3 129 -21 141 -27 14 -31 14 -75 3z m35 -64 c0 -32 -2 -34
-46 -40 -73 -10 -74 -9 -74 28 0 37 7 41 88 45 30 1 32 -1 32 -33z m0 -90 c0
-19 -6 -24 -37 -30 -70 -11 -83 -8 -83 18 0 21 5 25 38 29 82 8 82 8 82 -17z
m10 -86 c0 -25 -4 -30 -24 -30 -13 0 -44 -3 -70 -6 l-48 -7 4 29 c3 26 7 30
48 35 90 12 90 12 90 -21z"/>
<path d="M625 230 c-16 -4 -63 -8 -104 -9 -62 -1 -72 -3 -62 -15 7 -8 20 -43
29 -78 10 -35 22 -63 27 -63 6 1 60 4 122 9 103 7 111 9 101 26 -9 13 -6 28
12 64 22 46 22 48 4 61 -20 15 -80 18 -129 5z m63 -70 c-3 -28 -7 -52 -9 -54
-2 -2 -37 -6 -76 -8 -80 -6 -76 -9 -88 64 l-7 37 53 4 c30 2 71 4 93 5 l39 2
-5 -50z"/>
<path d="M320 164 c0 -7 52 -77 65 -86 13 -10 24 10 18 33 -8 29 -83 77 -83
53z"/>
</g>
</svg>
