<?xml version="1.0" standalone="no"?>
<!DOCTYPE svg PUBLIC "-//W3C//DTD SVG 20010904//EN"
 "http://www.w3.org/TR/2001/REC-SVG-20010904/DTD/svg10.dtd">
<svg version="1.0" xmlns="http://www.w3.org/2000/svg"
 width="96.000000pt" height="68.000000pt" viewBox="0 0 96.000000 68.000000"
 preserveAspectRatio="xMidYMid meet">
<metadata>
Created by potrace 1.16, written by Peter Selinger 2001-2019
</metadata>
<g transform="translate(0.000000,68.000000) scale(0.100000,-0.100000)"
fill="#000000" stroke="none">
<path d="M236 546 c6 -50 5 -53 -17 -59 -13 -4 -37 -7 -52 -7 -16 0 -26 -4
-22 -10 3 -5 26 -10 51 -10 40 0 44 -2 44 -25 0 -37 38 -35 42 2 3 24 9 29 51
38 59 13 58 31 -2 28 l-43 -1 5 34 c5 27 1 37 -16 49 -40 28 -48 20 -41 -39z"/>
</g>
</svg>
