<?xml version="1.0" standalone="no"?>
<!DOCTYPE svg PUBLIC "-//W3C//DTD SVG 20010904//EN"
 "http://www.w3.org/TR/2001/REC-SVG-20010904/DTD/svg10.dtd">
<svg version="1.0" xmlns="http://www.w3.org/2000/svg"
 width="90.000000pt" height="92.000000pt" viewBox="0 0 90.000000 92.000000"
 preserveAspectRatio="xMidYMid meet">
<metadata>
Created by potrace 1.16, written by Peter Selinger 2001-2019
</metadata>
<g transform="translate(0.000000,92.000000) scale(0.100000,-0.100000)"
fill="#000000" stroke="none">
<path d="M450 864 c0 -9 41 -68 57 -80 10 -9 -13 -14 -97 -25 -61 -7 -113 -16
-116 -21 -3 -4 5 -13 18 -19 18 -8 47 -6 113 5 50 9 150 21 223 28 72 6 132
15 132 19 0 5 -11 16 -24 24 -24 16 -66 13 -173 -10 -19 -5 -23 -1 -23 20 0
18 -10 31 -32 45 -31 19 -78 27 -78 14z"/>
<path d="M115 800 c-4 -6 -1 -17 5 -25 6 -8 14 -57 17 -109 l6 -95 -39 -6
c-21 -3 -48 -10 -59 -15 -19 -7 -19 -8 5 -18 14 -5 40 -7 58 -5 l33 5 -3 -88
-3 -89 -65 -22 c-36 -12 -67 -22 -69 -23 -12 -1 45 -50 57 -50 19 0 252 149
252 161 0 9 -32 -1 -80 -26 -16 -8 -31 -15 -35 -15 -3 0 -5 36 -5 79 l0 80 48
13 c65 19 65 44 -2 41 l-49 -1 6 61 c3 34 9 76 13 94 5 28 3 33 -24 47 -36 19
-58 20 -67 6z"/>
<path d="M675 705 c-29 -12 -299 -44 -320 -39 -28 7 -32 -2 -11 -25 8 -9 20
-41 28 -71 8 -30 18 -54 23 -54 115 15 112 15 119 -8 3 -13 6 -49 6 -80 0 -57
14 -83 31 -57 5 8 8 49 7 91 l-3 77 65 3 c61 3 65 5 87 38 12 19 31 47 43 62
l21 28 -33 20 c-33 20 -43 22 -63 15z m5 -46 c0 -7 -5 -28 -11 -48 -10 -35
-12 -36 -50 -33 -21 2 -39 6 -39 9 0 2 7 18 16 35 13 25 14 32 2 39 -8 6 4 9
35 9 28 0 47 -4 47 -11z m-120 -31 c0 -37 -8 -52 -32 -61 -18 -6 -28 17 -28
66 0 23 4 27 30 27 27 0 30 -3 30 -32z m-86 -34 c6 -27 4 -32 -16 -38 -36 -9
-46 -7 -52 12 -2 9 -7 27 -11 39 -5 19 -1 24 27 31 37 10 42 5 52 -44z"/>
<path d="M660 495 l-43 -43 72 20 c58 17 69 24 59 35 -29 35 -44 33 -88 -12z"/>
<path d="M374 466 c50 -37 66 -38 66 -6 0 20 -11 25 -75 35 l-40 7 49 -36z"/>
<path d="M664 401 c42 -34 61 -39 69 -18 9 24 -8 37 -59 43 l-49 7 39 -32z"/>
<path d="M368 386 c-66 -22 -67 -23 -52 -44 21 -30 32 -28 89 23 57 51 55 51
-37 21z"/>
<path d="M442 346 c-15 -40 -130 -152 -197 -191 -25 -15 -44 -30 -41 -32 7 -7
115 44 152 72 52 40 57 35 52 -55 -7 -124 1 -128 100 -44 45 38 78 70 73 72
-5 2 -32 -8 -60 -22 -28 -14 -53 -26 -56 -26 -3 0 -5 25 -5 56 0 40 -5 60 -16
68 -14 10 -9 18 32 56 l47 43 -23 19 c-32 26 -44 23 -58 -16z"/>
<path d="M706 342 c-4 -10 -22 -34 -41 -52 -30 -29 -38 -33 -53 -22 -99 71
-109 60 -24 -26 37 -37 87 -89 111 -116 l44 -48 60 5 c67 6 97 24 57 34 -45
12 -175 82 -198 106 l-23 24 63 28 c77 34 74 31 58 50 -25 30 -48 37 -54 17z"/>
</g>
</svg>
