<?xml version="1.0" standalone="no"?>
<!DOCTYPE svg PUBLIC "-//W3C//DTD SVG 20010904//EN"
 "http://www.w3.org/TR/2001/REC-SVG-20010904/DTD/svg10.dtd">
<svg version="1.0" xmlns="http://www.w3.org/2000/svg"
 width="96.000000pt" height="68.000000pt" viewBox="0 0 96.000000 68.000000"
 preserveAspectRatio="xMidYMid meet">
<metadata>
Created by potrace 1.16, written by Peter Selinger 2001-2019
</metadata>
<g transform="translate(0.000000,68.000000) scale(0.100000,-0.100000)"
fill="#000000" stroke="none">
<path d="M719 456 c-6 -6 -314 -36 -371 -36 -44 0 -61 -11 -39 -25 13 -8 28
-58 41 -140 13 -85 23 -104 43 -87 7 6 61 14 118 17 57 3 116 8 131 10 22 4
31 -2 45 -25 39 -66 77 -27 104 106 10 55 24 107 29 116 14 25 14 26 -22 48
-30 18 -69 26 -79 16z m5 -32 c19 -7 22 -86 5 -164 -10 -47 -13 -51 -33 -44
-11 4 -57 6 -101 4 -44 -3 -107 -4 -140 -5 l-59 0 -14 83 c-8 46 -11 86 -7 90
5 5 113 19 322 41 6 0 18 -2 27 -5z"/>
</g>
</svg>
