<?xml version="1.0" standalone="no"?>
<!DOCTYPE svg PUBLIC "-//W3C//DTD SVG 20010904//EN"
 "http://www.w3.org/TR/2001/REC-SVG-20010904/DTD/svg10.dtd">
<svg version="1.0" xmlns="http://www.w3.org/2000/svg"
 width="96.000000pt" height="68.000000pt" viewBox="0 0 96.000000 68.000000"
 preserveAspectRatio="xMidYMid meet">
<metadata>
Created by potrace 1.16, written by Peter Selinger 2001-2019
</metadata>
<g transform="translate(0.000000,68.000000) scale(0.100000,-0.100000)"
fill="#000000" stroke="none">
<path d="M578 526 l4 -65 -46 -6 c-61 -10 -59 -25 4 -25 l50 0 0 -34 0 -35
-57 -6 c-32 -4 -67 -9 -77 -12 -17 -5 -18 -6 -3 -15 11 -6 49 -3 110 7 50 9
134 19 185 22 60 4 91 10 89 17 -4 13 -91 14 -159 3 l-48 -8 0 35 c0 32 3 36
38 45 20 6 45 11 55 11 9 0 17 7 17 16 0 14 -8 16 -50 10 l-50 -7 0 56 0 55
-32 0 -33 0 3 -64z"/>
</g>
</svg>
