<?xml version="1.0" standalone="no"?>
<!DOCTYPE svg PUBLIC "-//W3C//DTD SVG 20010904//EN"
 "http://www.w3.org/TR/2001/REC-SVG-20010904/DTD/svg10.dtd">
<svg version="1.0" xmlns="http://www.w3.org/2000/svg"
 width="96.000000pt" height="68.000000pt" viewBox="0 0 96.000000 68.000000"
 preserveAspectRatio="xMidYMid meet">
<metadata>
Created by potrace 1.16, written by Peter Selinger 2001-2019
</metadata>
<g transform="translate(0.000000,68.000000) scale(0.100000,-0.100000)"
fill="#000000" stroke="none">
<path d="M222 505 c44 -41 68 -45 68 -12 0 27 -34 47 -78 47 l-27 -1 37 -34z"/>
<path d="M120 392 c0 -16 69 -64 87 -60 26 5 26 25 1 42 -31 20 -88 32 -88 18z"/>
<path d="M226 250 c-21 -27 -51 -61 -67 -74 -30 -26 -38 -63 -17 -84 19 -19
36 -14 43 11 4 12 25 57 47 100 21 44 38 83 36 88 -2 6 -21 -13 -42 -41z"/>
</g>
</svg>
