<?xml version="1.0" standalone="no"?>
<!DOCTYPE svg PUBLIC "-//W3C//DTD SVG 20010904//EN"
 "http://www.w3.org/TR/2001/REC-SVG-20010904/DTD/svg10.dtd">
<svg version="1.0" xmlns="http://www.w3.org/2000/svg"
 width="96.000000pt" height="68.000000pt" viewBox="0 0 96.000000 68.000000"
 preserveAspectRatio="xMidYMid meet">
<metadata>
Created by potrace 1.16, written by Peter Selinger 2001-2019
</metadata>
<g transform="translate(0.000000,68.000000) scale(0.100000,-0.100000)"
fill="#000000" stroke="none">
<path d="M475 583 c24 -58 15 -139 -21 -182 -13 -16 -43 -39 -67 -51 l-42 -22
40 7 c41 7 113 49 122 72 8 21 36 15 73 -15 65 -54 100 -63 100 -26 0 18 -50
48 -107 65 l-45 12 4 68 c6 74 -1 89 -40 89 -19 0 -23 -4 -17 -17z"/>
<path d="M190 539 c0 -17 60 -69 80 -69 48 0 34 55 -18 70 -47 13 -62 13 -62
-1z"/>
<path d="M622 529 c-9 -11 -29 -27 -44 -35 -16 -8 -28 -19 -28 -25 0 -8 4 -8
13 -1 6 5 36 17 65 25 69 21 76 26 61 43 -17 20 -46 17 -67 -7z"/>
<path d="M360 501 c0 -13 40 -61 51 -61 19 0 21 31 4 50 -18 20 -55 27 -55 11z"/>
<path d="M120 394 c1 -27 71 -79 95 -70 18 7 20 40 2 54 -17 14 -97 27 -97 16z"/>
<path d="M483 343 c-8 -3 -8 -13 -1 -36 22 -72 -29 -151 -138 -215 -27 -16
-32 -21 -14 -16 48 11 124 56 154 90 16 19 34 34 39 34 5 0 26 -17 46 -38 87
-89 107 -102 169 -102 80 0 95 14 36 30 -95 27 -233 108 -219 130 2 4 19 10
37 14 18 3 52 14 76 23 40 15 42 17 26 34 -17 19 -49 26 -56 12 -7 -17 -80
-73 -94 -73 -12 0 -15 8 -12 33 3 17 8 39 12 47 4 11 -2 19 -22 26 -15 6 -32
9 -39 7z"/>
<path d="M226 255 c-21 -30 -53 -66 -73 -81 -29 -22 -34 -30 -28 -53 15 -61
48 -68 66 -14 6 21 22 56 35 78 63 110 63 163 0 70z"/>
<path d="M356 250 c22 -37 41 -47 57 -31 14 14 -15 45 -52 56 l-23 7 18 -32z"/>
</g>
</svg>
