<?xml version="1.0" standalone="no"?>
<!DOCTYPE svg PUBLIC "-//W3C//DTD SVG 20010904//EN"
 "http://www.w3.org/TR/2001/REC-SVG-20010904/DTD/svg10.dtd">
<svg version="1.0" xmlns="http://www.w3.org/2000/svg"
 width="96.000000pt" height="68.000000pt" viewBox="0 0 96.000000 68.000000"
 preserveAspectRatio="xMidYMid meet">
<metadata>
Created by potrace 1.16, written by Peter Selinger 2001-2019
</metadata>
<g transform="translate(0.000000,68.000000) scale(0.100000,-0.100000)"
fill="#000000" stroke="none">
<path d="M448 522 l4 -79 -66 -8 c-36 -3 -66 -11 -66 -16 0 -5 29 -9 65 -9
l65 0 0 -59 0 -59 -72 -6 c-40 -3 -112 -8 -160 -12 -49 -3 -88 -10 -88 -15 0
-17 76 -22 166 -10 51 6 106 11 123 11 l30 0 3 -125 c4 -191 29 -164 44 48 l6
87 148 0 c147 0 182 8 139 30 -30 16 -157 13 -261 -6 l-28 -6 0 65 0 65 61 7
c33 4 73 10 87 14 l27 8 -24 12 c-22 12 -41 11 -125 -5 l-28 -6 3 73 4 74 -31
3 -31 3 5 -79z"/>
</g>
</svg>
