<?xml version="1.0" standalone="no"?>
<!DOCTYPE svg PUBLIC "-//W3C//DTD SVG 20010904//EN"
 "http://www.w3.org/TR/2001/REC-SVG-20010904/DTD/svg10.dtd">
<svg version="1.0" xmlns="http://www.w3.org/2000/svg"
 width="96.000000pt" height="68.000000pt" viewBox="0 0 96.000000 68.000000"
 preserveAspectRatio="xMidYMid meet">
<metadata>
Created by potrace 1.16, written by Peter Selinger 2001-2019
</metadata>
<g transform="translate(0.000000,68.000000) scale(0.100000,-0.100000)"
fill="#000000" stroke="none">
<path d="M475 294 c-33 -7 -81 -13 -107 -14 l-46 0 10 -37 c6 -21 8 -60 4 -88
-6 -58 1 -95 19 -95 7 0 15 4 17 9 2 4 39 11 84 15 79 7 80 7 94 -18 17 -32
35 -33 54 -3 10 15 14 52 14 125 0 132 -7 137 -143 106z m93 -50 c3 -31 3 -31
-55 -38 -32 -4 -75 -9 -95 -13 -38 -6 -38 -5 -38 30 0 35 1 36 53 45 28 6 70
9 92 9 37 -2 40 -4 43 -33z m0 -90 l-3 -36 -97 -4 c-89 -4 -98 -3 -98 13 0 38
17 43 188 62 9 1 12 -10 10 -35z"/>
</g>
</svg>
