<?xml version="1.0" standalone="no"?>
<!DOCTYPE svg PUBLIC "-//W3C//DTD SVG 20010904//EN"
 "http://www.w3.org/TR/2001/REC-SVG-20010904/DTD/svg10.dtd">
<svg version="1.0" xmlns="http://www.w3.org/2000/svg"
 width="90.000000pt" height="92.000000pt" viewBox="0 0 90.000000 92.000000"
 preserveAspectRatio="xMidYMid meet">
<metadata>
Created by potrace 1.16, written by Peter Selinger 2001-2019
</metadata>
<g transform="translate(0.000000,92.000000) scale(0.100000,-0.100000)"
fill="#000000" stroke="none">
<path d="M535 890 c-3 -5 -3 -14 0 -20 3 -5 3 -25 -1 -44 -6 -32 -10 -36 -50
-42 -55 -8 -57 -22 -4 -30 40 -7 40 -7 34 -42 -9 -44 8 -36 36 18 19 38 20 38
95 45 41 4 78 11 81 16 11 18 -61 39 -97 29 -19 -6 -35 -10 -37 -10 -2 0 0 15
3 33 6 29 3 35 -20 45 -31 15 -32 15 -40 2z"/>
<path d="M237 854 c-3 -4 3 -23 13 -44 23 -46 18 -50 -67 -50 -60 0 -65 -10
-21 -43 25 -19 28 -19 67 -3 23 9 44 16 46 16 3 0 12 -17 20 -37 14 -33 18
-36 26 -21 5 10 9 30 7 45 -3 24 1 28 35 36 53 13 47 31 -8 25 l-45 -6 0 34
c0 23 -6 37 -19 44 -22 11 -45 13 -54 4z"/>
<path d="M350 656 c0 -25 -4 -48 -10 -51 -5 -3 -48 -11 -95 -17 -47 -7 -85
-15 -85 -20 0 -19 55 -29 105 -20 28 6 52 9 54 7 2 -2 -9 -26 -25 -52 -37 -64
-106 -130 -185 -175 -38 -23 -56 -38 -44 -38 21 0 125 49 162 75 20 15 22 15
28 -4 3 -12 12 -54 18 -93 l13 -73 57 3 c57 4 57 4 57 -25 0 -42 35 -92 78
-110 69 -29 282 -4 282 33 0 29 -44 37 -112 20 -35 -9 -87 -16 -115 -16 -59 0
-81 18 -90 75 l-6 38 66 -5 67 -6 25 82 c41 138 41 132 6 150 -24 13 -39 14
-73 6 -72 -16 -78 -14 -68 20 7 25 5 32 -13 45 -12 8 -30 15 -40 15 -17 0 -18
-5 -12 -49 6 -45 5 -49 -17 -55 -13 -3 -39 -6 -59 -6 l-37 0 52 79 c46 70 55
79 90 85 46 8 65 -3 145 -82 116 -115 139 -132 184 -132 46 0 117 17 117 28 0
4 -34 18 -75 31 -76 24 -155 66 -232 124 -23 18 -43 35 -43 40 0 4 33 7 73 8
39 1 83 4 96 8 l25 7 -28 22 c-34 26 -30 26 -126 8 -41 -7 -95 -17 -119 -20
l-44 -7 18 27 c17 27 17 28 -5 46 -12 10 -31 18 -41 18 -16 0 -19 -8 -19 -44z
m210 -268 c0 -36 -11 -43 -69 -46 -51 -3 -53 -2 -47 20 3 13 6 26 6 30 0 9 28
15 73 17 32 1 37 -2 37 -21z m-160 -27 c0 -32 -14 -41 -66 -41 -31 0 -34 3
-34 29 0 33 9 39 63 40 34 1 37 -1 37 -28z m150 -50 c0 -5 -3 -22 -6 -38 -5
-27 -9 -29 -55 -29 -49 0 -49 0 -49 32 0 31 2 33 43 37 23 2 48 4 55 5 6 1 12
-2 12 -7z m-152 -43 c-3 -31 -6 -33 -45 -36 -42 -3 -43 -2 -43 27 0 31 -3 30
78 39 9 1 12 -8 10 -30z"/>
</g>
</svg>
