<?xml version="1.0" standalone="no"?>
<!DOCTYPE svg PUBLIC "-//W3C//DTD SVG 20010904//EN"
 "http://www.w3.org/TR/2001/REC-SVG-20010904/DTD/svg10.dtd">
<svg version="1.0" xmlns="http://www.w3.org/2000/svg"
 width="96.000000pt" height="68.000000pt" viewBox="0 0 96.000000 68.000000"
 preserveAspectRatio="xMidYMid meet">
<metadata>
Created by potrace 1.16, written by Peter Selinger 2001-2019
</metadata>
<g transform="translate(0.000000,68.000000) scale(0.100000,-0.100000)"
fill="#000000" stroke="none">
<path d="M460 214 c-74 -8 -156 -13 -183 -12 -26 2 -47 2 -47 0 0 -2 9 -15 19
-30 11 -15 25 -52 31 -82 13 -69 24 -87 42 -73 7 6 73 13 147 16 125 4 134 4
138 -14 3 -11 11 -19 18 -19 26 0 46 40 61 121 23 120 27 119 -226 93z m187
-62 c-10 -91 -6 -88 -115 -95 -53 -4 -122 -7 -153 -7 l-56 0 -17 61 c-10 33
-15 63 -12 67 7 6 226 29 305 31 l54 1 -6 -58z"/>
</g>
</svg>
