<?xml version="1.0" standalone="no"?>
<!DOCTYPE svg PUBLIC "-//W3C//DTD SVG 20010904//EN"
 "http://www.w3.org/TR/2001/REC-SVG-20010904/DTD/svg10.dtd">
<svg version="1.0" xmlns="http://www.w3.org/2000/svg"
 width="96.000000pt" height="68.000000pt" viewBox="0 0 96.000000 68.000000"
 preserveAspectRatio="xMidYMid meet">
<metadata>
Created by potrace 1.16, written by Peter Selinger 2001-2019
</metadata>
<g transform="translate(0.000000,68.000000) scale(0.100000,-0.100000)"
fill="#000000" stroke="none">
<path d="M474 263 c3 -21 7 -63 8 -93 l3 -55 -60 -7 c-70 -9 -82 -2 -67 41 10
27 8 33 -11 46 -31 22 -37 19 -37 -21 0 -20 -8 -49 -17 -64 -14 -24 -14 -31
-4 -44 15 -18 48 -20 84 -7 21 8 243 41 276 41 5 0 13 -9 16 -20 11 -34 34
-23 45 23 6 23 15 54 20 69 10 30 0 43 -42 53 l-27 7 6 -56 c6 -55 5 -56 -19
-56 -14 0 -46 -3 -73 -6 l-47 -7 3 87 c3 92 -3 105 -44 106 -16 0 -18 -6 -13
-37z"/>
</g>
</svg>
