<?xml version="1.0" standalone="no"?>
<!DOCTYPE svg PUBLIC "-//W3C//DTD SVG 20010904//EN"
 "http://www.w3.org/TR/2001/REC-SVG-20010904/DTD/svg10.dtd">
<svg version="1.0" xmlns="http://www.w3.org/2000/svg"
 width="90.000000pt" height="92.000000pt" viewBox="0 0 90.000000 92.000000"
 preserveAspectRatio="xMidYMid meet">
<metadata>
Created by potrace 1.16, written by Peter Selinger 2001-2019
</metadata>
<g transform="translate(0.000000,92.000000) scale(0.100000,-0.100000)"
fill="#000000" stroke="none">
<path d="M446 828 c-27 -97 -44 -138 -81 -193 -24 -36 -40 -65 -36 -65 4 0 26
16 48 35 23 19 44 35 47 35 9 0 7 -78 -5 -144 -7 -43 -7 -70 0 -89 12 -31 27
-35 33 -9 6 23 44 30 198 38 129 6 160 10 160 23 0 28 -96 36 -172 14 -14 -3
-18 2 -18 21 0 31 6 35 76 46 31 5 59 12 63 15 13 14 -28 26 -76 21 -50 -4
-53 -3 -53 18 0 21 7 24 62 32 34 5 63 14 65 21 6 17 -50 26 -92 14 -34 -9
-36 -9 -29 12 9 29 19 34 74 42 25 3 52 11 60 16 38 24 -64 36 -120 15 -12 -5
-15 1 -15 26 0 28 -6 36 -34 50 -19 9 -38 15 -41 13 -4 -3 3 -26 16 -52 l23
-48 -37 -7 c-20 -4 -50 -7 -65 -7 l-29 -1 21 36 c23 39 19 54 -21 75 -13 7
-19 6 -22 -3z m134 -163 c0 -19 -6 -25 -32 -30 -72 -12 -83 -11 -80 8 2 10 -2
25 -9 33 -10 12 -1 14 55 14 63 0 66 -1 66 -25z m0 -85 c0 -23 -6 -26 -72 -35
-47 -6 -48 -6 -48 22 0 27 2 28 60 31 55 2 60 0 60 -18z m0 -85 c0 -29 -5 -32
-72 -38 -47 -4 -48 -4 -48 24 0 26 3 28 48 32 26 2 53 4 60 5 7 1 12 -9 12
-23z"/>
<path d="M186 798 c-3 -7 -6 -31 -9 -54 -6 -53 -71 -190 -131 -277 -26 -38
-46 -73 -44 -78 4 -11 63 43 99 89 21 28 30 32 52 27 15 -4 27 -14 28 -24 0
-9 2 -24 4 -33 2 -14 -9 -20 -57 -29 -55 -11 -59 -13 -42 -26 13 -9 32 -12 61
-7 l43 6 0 -75 0 -75 -37 -13 c-21 -7 -60 -13 -86 -13 -55 0 -60 -16 -15 -49
l28 -21 37 21 c21 11 76 35 123 53 94 37 105 43 96 59 -4 6 -20 5 -48 -5 -22
-7 -45 -14 -50 -14 -5 0 -8 32 -6 72 l3 72 40 8 c22 5 47 11 55 14 25 9 -9 24
-55 24 -39 0 -40 1 -41 34 0 32 2 34 38 40 44 7 50 21 13 30 -22 6 -58 0 -128
-20 -14 -4 -7 15 30 90 l48 96 38 -45 c43 -50 53 -54 62 -24 8 25 -22 61 -66
80 -16 6 -27 14 -25 17 9 8 -13 41 -34 52 -15 8 -21 8 -24 -2z"/>
<path d="M730 383 c-30 -7 -67 -11 -81 -9 -25 5 -26 4 -26 -55 0 -32 -2 -61
-5 -64 -3 -3 -21 -8 -40 -12 l-35 -5 4 49 c7 67 -10 81 -76 64 -33 -8 -55 -9
-74 -2 -32 12 -41 2 -27 -34 5 -14 10 -65 10 -111 0 -88 14 -139 31 -113 5 8
9 60 9 115 l0 101 41 7 c23 4 44 4 47 1 3 -3 0 -27 -6 -52 -18 -66 -4 -78 62
-55 38 13 50 14 53 5 3 -7 11 -13 18 -13 13 0 35 76 35 119 0 20 26 31 78 31
l32 0 0 -70 c0 -70 -20 -140 -39 -140 -5 0 -21 4 -35 10 -35 13 -32 3 12 -49
35 -40 40 -42 60 -30 29 18 40 49 52 149 5 47 13 99 16 115 5 27 1 33 -23 45
-37 19 -31 18 -93 3z"/>
<path d="M273 329 c-23 -51 -20 -52 35 -11 31 24 32 26 16 43 -10 11 -20 19
-23 19 -3 0 -16 -23 -28 -51z"/>
<path d="M80 328 c0 -22 55 -82 68 -74 30 18 3 66 -45 80 -16 5 -23 3 -23 -6z"/>
</g>
</svg>
