<?xml version="1.0" standalone="no"?>
<!DOCTYPE svg PUBLIC "-//W3C//DTD SVG 20010904//EN"
 "http://www.w3.org/TR/2001/REC-SVG-20010904/DTD/svg10.dtd">
<svg version="1.0" xmlns="http://www.w3.org/2000/svg"
 width="96.000000pt" height="68.000000pt" viewBox="0 0 96.000000 68.000000"
 preserveAspectRatio="xMidYMid meet">
<metadata>
Created by potrace 1.16, written by Peter Selinger 2001-2019
</metadata>
<g transform="translate(0.000000,68.000000) scale(0.100000,-0.100000)"
fill="#000000" stroke="none">
<path d="M260 527 c0 -37 -54 -136 -115 -210 -30 -37 -53 -67 -50 -67 13 0 97
63 102 76 8 22 60 18 68 -6 9 -30 -2 -40 -45 -40 -21 0 -42 -4 -45 -10 -4 -6
13 -10 44 -10 l51 0 0 -54 0 -55 -53 -11 c-30 -6 -61 -8 -69 -5 -27 11 -30
-13 -4 -30 24 -16 30 -15 133 21 106 36 142 54 112 54 -8 0 -29 -4 -47 -9
l-32 -10 0 54 c0 56 8 65 55 65 13 0 27 5 30 10 6 10 -19 14 -62 10 -18 -1
-23 4 -23 23 0 20 6 27 32 32 25 6 28 9 15 16 -9 6 -33 5 -59 -1 -78 -18 -78
-21 1 109 7 12 16 9 45 -17 43 -38 59 -40 54 -9 -2 13 -17 30 -40 42 -21 11
-38 25 -38 31 0 7 -7 15 -16 18 -30 12 -44 6 -44 -17z"/>
<path d="M351 224 c-15 -34 -9 -40 23 -19 30 20 33 30 10 39 -21 8 -19 9 -33
-20z"/>
<path d="M184 197 c21 -32 45 -41 53 -21 7 19 -4 31 -41 40 l-28 7 16 -26z"/>
</g>
</svg>
