<?xml version="1.0" standalone="no"?>
<!DOCTYPE svg PUBLIC "-//W3C//DTD SVG 20010904//EN"
 "http://www.w3.org/TR/2001/REC-SVG-20010904/DTD/svg10.dtd">
<svg version="1.0" xmlns="http://www.w3.org/2000/svg"
 width="96.000000pt" height="68.000000pt" viewBox="0 0 96.000000 68.000000"
 preserveAspectRatio="xMidYMid meet">
<metadata>
Created by potrace 1.16, written by Peter Selinger 2001-2019
</metadata>
<g transform="translate(0.000000,68.000000) scale(0.100000,-0.100000)"
fill="#000000" stroke="none">
<path d="M665 580 c-22 -4 -89 -11 -148 -15 l-108 -7 15 -23 c9 -13 19 -43 22
-67 9 -59 17 -67 67 -61 l42 6 -24 -27 c-14 -14 -30 -26 -37 -26 -15 0 -39
-28 -31 -36 3 -4 26 -9 52 -11 25 -3 45 -9 45 -12 0 -4 -30 -22 -66 -41 -57
-29 -63 -35 -51 -48 12 -12 23 -12 72 -1 69 15 75 10 75 -73 0 -59 -2 -62 -45
-58 -17 1 -16 -3 11 -30 28 -28 34 -30 52 -19 17 11 21 25 24 93 2 49 0 84 -6
88 -17 12 5 25 51 31 33 4 45 1 59 -14 24 -26 44 -24 44 5 0 29 -17 44 -61 53
-30 6 -32 4 -21 -9 11 -13 4 -16 -50 -22 -35 -4 -80 -10 -100 -13 -65 -10 -42
11 62 56 55 24 100 47 100 52 0 5 -9 13 -19 19 -16 8 -26 4 -53 -21 -26 -24
-39 -29 -62 -25 -16 3 -32 6 -37 6 -20 0 -7 20 26 40 19 12 35 28 35 35 0 16
80 26 97 12 23 -17 42 1 76 74 l34 71 -33 14 c-36 15 -49 16 -109 4z m65 -45
c0 -24 -3 -25 -59 -25 -57 0 -58 1 -53 25 4 23 9 25 58 25 51 0 54 -1 54 -25z
m-160 -10 c0 -21 -5 -25 -27 -25 -16 0 -38 -3 -49 -6 -16 -4 -23 0 -27 17 -9
33 -1 39 54 39 46 0 49 -2 49 -25z m141 -68 c-6 -8 -26 -11 -50 -9 -32 3 -41
8 -41 23 0 14 9 18 48 21 48 3 65 -10 43 -35z m-139 17 c3 -3 4 -14 1 -25 -4
-14 -14 -19 -43 -19 -36 0 -50 12 -50 41 0 10 83 13 92 3z"/>
<path d="M222 563 c-9 -4 -10 -9 -2 -17 5 -7 13 -41 16 -75 l7 -61 -62 0 c-56
0 -76 -10 -51 -25 5 -3 17 -30 26 -60 17 -59 29 -74 47 -56 23 23 37 12 37
-28 0 -47 -4 -50 -70 -58 -55 -6 -58 -9 -32 -29 24 -18 42 -17 89 6 23 11 62
25 88 32 42 11 48 11 56 -5 6 -9 17 -17 24 -17 22 0 18 37 -7 60 -24 22 -53
27 -45 7 3 -8 -7 -18 -24 -24 l-29 -11 0 43 0 44 42 3 c35 3 42 7 43 26 1 12
12 33 24 46 39 41 6 70 -66 59 l-36 -6 7 67 c5 50 3 67 -6 70 -31 10 -64 14
-76 9z m118 -192 c0 -33 -11 -51 -31 -51 -14 0 -19 7 -19 28 0 33 7 42 32 42
11 0 18 -7 18 -19z m-100 -26 c0 -39 -22 -48 -40 -16 -17 33 -12 51 15 51 22
0 25 -4 25 -35z"/>
<path d="M710 183 c0 -17 67 -104 84 -109 31 -10 43 12 20 42 -19 26 -104 80
-104 67z"/>
<path d="M450 162 c0 -6 -16 -27 -36 -47 -19 -20 -33 -39 -31 -42 9 -9 119 67
114 80 -4 15 -47 22 -47 9z"/>
</g>
</svg>
