<?xml version="1.0" standalone="no"?>
<!DOCTYPE svg PUBLIC "-//W3C//DTD SVG 20010904//EN"
 "http://www.w3.org/TR/2001/REC-SVG-20010904/DTD/svg10.dtd">
<svg version="1.0" xmlns="http://www.w3.org/2000/svg"
 width="96.000000pt" height="68.000000pt" viewBox="0 0 96.000000 68.000000"
 preserveAspectRatio="xMidYMid meet">
<metadata>
Created by potrace 1.16, written by Peter Selinger 2001-2019
</metadata>
<g transform="translate(0.000000,68.000000) scale(0.100000,-0.100000)"
fill="#000000" stroke="none">
<path d="M500 325 c-36 -7 -82 -13 -102 -14 -42 -1 -49 -14 -17 -32 36 -19
109 -91 103 -100 -10 -16 -86 -51 -153 -70 -35 -10 -66 -21 -70 -25 -13 -14
104 8 167 32 37 14 75 28 84 31 11 3 35 -10 66 -36 46 -39 52 -41 114 -41 72
0 128 9 128 20 0 4 -31 12 -69 19 -69 12 -191 63 -191 79 0 4 23 34 51 65 42
47 49 60 39 72 -15 18 -58 17 -150 0z m63 -42 c-9 -25 -43 -73 -51 -73 -4 1
-25 16 -46 34 l-40 34 45 10 c73 16 99 15 92 -5z"/>
</g>
</svg>
