<?xml version="1.0" standalone="no"?>
<!DOCTYPE svg PUBLIC "-//W3C//DTD SVG 20010904//EN"
 "http://www.w3.org/TR/2001/REC-SVG-20010904/DTD/svg10.dtd">
<svg version="1.0" xmlns="http://www.w3.org/2000/svg"
 width="90.000000pt" height="92.000000pt" viewBox="0 0 90.000000 92.000000"
 preserveAspectRatio="xMidYMid meet">
<metadata>
Created by potrace 1.16, written by Peter Selinger 2001-2019
</metadata>
<g transform="translate(0.000000,92.000000) scale(0.100000,-0.100000)"
fill="#000000" stroke="none">
<path d="M320 859 c0 -16 58 -97 77 -108 25 -13 -43 -26 -130 -25 -60 2 -67 0
-60 -15 13 -27 15 -379 3 -508 -12 -126 -9 -163 15 -163 17 0 190 168 182 176
-3 3 -29 -10 -59 -30 -85 -58 -84 -59 -78 111 l5 148 85 8 c57 6 91 5 102 -2
43 -27 46 -20 98 156 11 40 25 75 30 78 25 15 9 46 -35 67 -39 19 -51 21 -85
12 -37 -10 -39 -10 -29 8 8 14 6 26 -6 45 -24 37 -115 70 -115 42z m185 -149
c4 -6 4 -27 0 -48 l-6 -37 -52 0 c-29 0 -78 -4 -109 -9 l-58 -8 0 39 0 39 88
16 c109 19 129 21 137 8z m-15 -132 c0 -7 -5 -29 -10 -48 -9 -34 -12 -36 -52
-35 -24 0 -69 -4 -100 -9 l-58 -8 0 44 0 45 88 10 c126 14 132 14 132 1z"/>
<path d="M557 422 c-19 -31 -47 -68 -61 -81 l-26 -25 -38 36 c-42 40 -63 50
-82 38 -9 -5 -4 -14 19 -31 17 -13 78 -78 135 -144 124 -144 139 -153 234
-136 75 14 127 36 102 44 -8 3 -49 15 -90 27 -91 26 -177 71 -231 119 l-41 36
86 45 c47 25 88 51 91 59 6 15 -18 47 -46 62 -13 7 -24 -3 -52 -49z"/>
</g>
</svg>
