<?xml version="1.0" standalone="no"?>
<!DOCTYPE svg PUBLIC "-//W3C//DTD SVG 20010904//EN"
 "http://www.w3.org/TR/2001/REC-SVG-20010904/DTD/svg10.dtd">
<svg version="1.0" xmlns="http://www.w3.org/2000/svg"
 width="96.000000pt" height="68.000000pt" viewBox="0 0 96.000000 68.000000"
 preserveAspectRatio="xMidYMid meet">
<metadata>
Created by potrace 1.16, written by Peter Selinger 2001-2019
</metadata>
<g transform="translate(0.000000,68.000000) scale(0.100000,-0.100000)"
fill="#000000" stroke="none">
<path d="M528 515 c2 -31 1 -55 -4 -54 -5 1 -27 1 -48 0 -50 -1 -36 -18 19
-23 36 -3 39 -5 39 -33 0 -34 -19 -42 -111 -44 -64 -1 -71 -21 -8 -21 41 0 45
-2 45 -25 0 -14 -14 -37 -35 -58 -19 -19 -35 -37 -35 -41 0 -14 56 24 94 63
33 34 37 42 26 56 -11 13 -7 15 31 16 24 0 52 2 62 4 15 3 17 -5 17 -55 l0
-58 50 -11 c28 -6 69 -11 90 -11 33 0 40 3 40 19 0 18 -7 20 -70 19 -38 -1
-72 0 -74 3 -3 2 0 26 6 52 l10 47 64 0 c62 0 82 11 47 25 -10 3 -62 3 -116
-1 l-98 -7 3 34 c3 33 5 34 56 42 28 5 52 12 52 17 0 12 -52 19 -77 9 -22 -8
-23 -6 -23 35 0 31 -5 46 -16 50 -36 14 -41 7 -36 -49z"/>
<path d="M235 470 c-16 -4 -46 -8 -65 -9 l-35 -1 1 -166 c1 -97 6 -170 12
-176 7 -7 16 -6 30 1 11 6 37 11 57 11 28 0 38 -5 47 -25 14 -30 34 -32 43 -5
3 11 10 20 14 20 4 0 9 64 10 143 1 78 5 152 8 165 10 43 -44 62 -122 42z m61
-65 c3 -20 5 -37 3 -39 -2 -2 -28 -6 -56 -9 l-53 -6 0 39 c0 42 7 48 62 49 35
1 38 -1 44 -34z m2 -109 c1 -32 0 -34 -32 -34 -19 0 -43 -3 -55 -7 -19 -6 -21
-2 -21 29 0 33 2 35 38 39 20 2 44 4 53 5 11 2 16 -7 17 -32z m2 -101 c0 -23
-5 -35 -14 -35 -7 0 -35 -3 -61 -7 l-47 -6 7 34 c9 42 19 49 73 49 41 0 42 0
42 -35z"/>
<path d="M536 217 l6 -44 -51 -7 c-61 -8 -59 -27 2 -24 42 3 42 3 45 -34 l3
-36 -91 -8 c-164 -12 -80 -23 138 -17 159 5 212 9 212 18 0 20 -42 26 -135 19
l-85 -7 0 36 0 35 60 7 c33 4 60 11 60 15 0 14 -30 20 -74 14 l-43 -6 1 38 c1
35 -2 39 -26 42 -27 3 -28 3 -22 -41z"/>
</g>
</svg>
