<?xml version="1.0" standalone="no"?>
<!DOCTYPE svg PUBLIC "-//W3C//DTD SVG 20010904//EN"
 "http://www.w3.org/TR/2001/REC-SVG-20010904/DTD/svg10.dtd">
<svg version="1.0" xmlns="http://www.w3.org/2000/svg"
 width="90.000000pt" height="92.000000pt" viewBox="0 0 90.000000 92.000000"
 preserveAspectRatio="xMidYMid meet">
<metadata>
Created by potrace 1.16, written by Peter Selinger 2001-2019
</metadata>
<g transform="translate(0.000000,92.000000) scale(0.100000,-0.100000)"
fill="#000000" stroke="none">
<path d="M490 816 l31 -54 -38 -6 c-21 -3 -59 -8 -86 -12 -39 -5 -45 -9 -36
-20 6 -8 19 -14 29 -14 12 0 23 -14 33 -42 8 -24 18 -50 22 -59 5 -14 -6 -18
-79 -24 -88 -7 -105 -17 -62 -37 18 -8 45 -8 103 1 43 6 158 17 256 23 150 10
177 14 175 27 -6 28 -53 36 -150 23 -51 -6 -94 -10 -96 -8 -2 3 9 23 24 45 21
32 24 45 16 53 -18 18 -14 28 11 28 12 0 29 5 37 10 13 9 12 12 -5 26 -12 9
-30 13 -44 9 -78 -20 -83 -19 -81 6 4 43 0 50 -35 65 -54 22 -57 18 -25 -40z
m82 -147 c-2 -29 -5 -55 -7 -57 -2 -2 -22 -6 -44 -9 l-41 -6 0 35 c0 20 -8 43
-20 56 l-20 21 33 5 c68 11 82 13 92 11 6 -1 9 -26 7 -56z"/>
<path d="M145 719 c-27 -10 -65 -18 -84 -19 -28 0 -32 -3 -25 -17 13 -27 16
-295 5 -359 -9 -45 -8 -62 5 -92 16 -36 16 -36 27 -14 7 16 19 22 43 22 18 0
39 2 46 5 9 4 19 -4 26 -20 6 -14 18 -25 26 -25 32 0 38 39 37 273 0 229 0
231 -23 249 -13 10 -25 17 -28 16 -3 0 -27 -9 -55 -19z m55 -126 l5 -93 -30 2
c-16 1 -43 -2 -58 -6 l-28 -8 3 93 c3 90 4 93 28 100 14 4 36 7 50 6 24 -2 25
-4 30 -94z m3 -180 c-1 -38 -2 -83 -3 -100 0 -28 -4 -33 -22 -31 -13 0 -41 -3
-62 -7 l-39 -8 6 69 c4 38 7 81 7 95 0 25 5 28 58 37 31 5 57 10 57 11 0 0 -1
-29 -2 -66z"/>
<path d="M585 514 c-27 -8 -92 -17 -142 -21 -51 -3 -93 -7 -93 -8 0 -1 6 -15
14 -31 8 -16 17 -56 21 -89 8 -68 20 -96 38 -90 6 2 27 6 45 9 30 5 32 4 32
-23 0 -31 -18 -41 -78 -41 -56 0 -32 -25 26 -28 52 -3 52 -3 52 -37 l0 -33
-97 -7 c-124 -8 -133 -11 -103 -32 28 -19 47 -20 172 -5 54 7 156 12 228 12
71 0 130 4 130 8 0 5 -9 17 -21 27 -23 21 -54 23 -177 11 l-83 -9 3 34 c3 33
4 34 55 39 28 3 55 9 60 13 13 14 -20 27 -69 27 -44 0 -48 2 -48 25 0 19 6 25
33 30 17 3 45 4 60 3 28 -3 30 0 63 92 18 52 33 96 34 98 0 1 -15 11 -32 22
-38 23 -55 24 -123 4z m75 -60 c0 -29 -3 -35 -16 -30 -9 3 -33 6 -55 6 -35 0
-39 3 -39 24 0 25 0 25 93 34 13 2 17 -6 17 -34z m-160 -14 c0 -28 -2 -30 -39
-30 -26 0 -41 5 -45 16 -11 27 -7 33 27 37 17 2 38 5 45 5 7 1 12 -10 12 -28z
m149 -57 c-1 -37 -14 -48 -56 -51 -42 -2 -43 -1 -43 27 0 28 3 30 43 34 23 2
45 4 50 5 4 1 7 -6 6 -15z m-149 -32 c0 -24 -5 -29 -32 -35 -37 -7 -34 -9 -43
32 -7 32 -7 32 34 32 38 0 41 -2 41 -29z"/>
</g>
</svg>
