<?xml version="1.0" standalone="no"?>
<!DOCTYPE svg PUBLIC "-//W3C//DTD SVG 20010904//EN"
 "http://www.w3.org/TR/2001/REC-SVG-20010904/DTD/svg10.dtd">
<svg version="1.0" xmlns="http://www.w3.org/2000/svg"
 width="96.000000pt" height="68.000000pt" viewBox="0 0 96.000000 68.000000"
 preserveAspectRatio="xMidYMid meet">
<metadata>
Created by potrace 1.16, written by Peter Selinger 2001-2019
</metadata>
<g transform="translate(0.000000,68.000000) scale(0.100000,-0.100000)"
fill="#000000" stroke="none">
<path d="M530 145 c0 -23 -3 -25 -49 -25 -28 0 -53 -4 -56 -10 -4 -6 15 -10
49 -10 52 0 56 -2 56 -24 0 -20 -6 -24 -46 -30 -26 -3 -69 -6 -95 -6 -27 0
-49 -4 -49 -9 0 -18 58 -22 160 -12 56 6 149 11 206 11 57 0 104 4 104 9 0 15
-66 33 -102 27 -18 -3 -57 -8 -86 -11 l-53 -6 3 28 c3 26 7 28 51 31 63 4 61
22 -3 22 -43 0 -50 3 -50 20 0 13 -7 20 -20 20 -15 0 -20 -7 -20 -25z"/>
</g>
</svg>
