<?xml version="1.0" standalone="no"?>
<!DOCTYPE svg PUBLIC "-//W3C//DTD SVG 20010904//EN"
 "http://www.w3.org/TR/2001/REC-SVG-20010904/DTD/svg10.dtd">
<svg version="1.0" xmlns="http://www.w3.org/2000/svg"
 width="90.000000pt" height="92.000000pt" viewBox="0 0 90.000000 92.000000"
 preserveAspectRatio="xMidYMid meet">
<metadata>
Created by potrace 1.16, written by Peter Selinger 2001-2019
</metadata>
<g transform="translate(0.000000,92.000000) scale(0.100000,-0.100000)"
fill="#000000" stroke="none">
<path d="M247 810 l6 -60 -30 0 c-17 0 -51 -3 -77 -6 -36 -5 -44 -10 -36 -19
17 -20 55 -26 100 -16 l40 9 0 -33 c0 -28 -4 -33 -31 -39 -17 -3 -42 -6 -55
-6 -13 0 -24 -5 -24 -10 0 -16 51 -31 82 -25 27 6 28 5 28 -28 0 -35 0 -35
-64 -47 -35 -6 -74 -10 -86 -8 -34 5 -34 -15 -1 -40 l30 -22 46 20 c65 28 75
26 75 -12 0 -18 4 -39 9 -47 10 -15 15 -4 27 62 6 36 9 38 65 54 34 9 59 22
59 30 0 16 -3 16 -67 -1 l-53 -14 0 34 c0 33 1 33 50 40 63 8 61 28 -4 32 -41
3 -46 6 -44 25 6 38 18 47 64 47 24 0 44 4 44 10 0 17 -42 32 -73 26 -30 -6
-30 -6 -24 34 4 33 1 43 -16 55 -39 27 -46 20 -40 -45z"/>
<path d="M585 750 c-44 -10 -102 -21 -129 -25 -47 -6 -47 -7 -26 -22 14 -10
32 -13 56 -9 28 6 34 4 34 -11 0 -31 -57 -139 -95 -182 -44 -48 -34 -53 22
-12 46 33 69 63 108 140 22 44 25 59 16 73 -10 16 -8 18 16 18 16 0 37 3 48 5
11 3 26 1 34 -4 13 -8 13 -20 -2 -86 -21 -96 -30 -109 -78 -102 l-37 5 31 -44
c56 -79 102 -38 132 116 10 50 21 93 26 96 17 10 9 30 -20 47 -34 20 -32 20
-136 -3z"/>
<path d="M355 406 c8 -53 9 -53 -168 -62 -70 -4 -130 -11 -133 -15 -2 -5 10
-16 27 -25 34 -17 42 -17 193 6 38 6 71 8 73 6 11 -10 -40 -86 -86 -129 -47
-44 -139 -97 -168 -97 -7 0 -13 -5 -13 -11 0 -19 90 -1 158 32 68 33 122 90
155 166 17 37 23 41 64 47 25 3 108 6 184 6 119 0 139 2 139 16 0 8 -16 22
-36 30 -30 13 -52 14 -123 5 -47 -5 -112 -13 -144 -16 l-57 -6 10 26 c13 35
14 32 -20 50 -51 27 -62 21 -55 -29z"/>
<path d="M470 241 c0 -6 4 -11 8 -11 5 0 48 -34 96 -75 98 -84 121 -99 142
-91 19 7 18 32 -3 68 -28 46 -243 143 -243 109z"/>
</g>
</svg>
