<?xml version="1.0" standalone="no"?>
<!DOCTYPE svg PUBLIC "-//W3C//DTD SVG 20010904//EN"
 "http://www.w3.org/TR/2001/REC-SVG-20010904/DTD/svg10.dtd">
<svg version="1.0" xmlns="http://www.w3.org/2000/svg"
 width="96.000000pt" height="68.000000pt" viewBox="0 0 96.000000 68.000000"
 preserveAspectRatio="xMidYMid meet">
<metadata>
Created by potrace 1.16, written by Peter Selinger 2001-2019
</metadata>
<g transform="translate(0.000000,68.000000) scale(0.100000,-0.100000)"
fill="#000000" stroke="none">
<path d="M237 567 c11 -71 8 -240 -7 -369 -12 -111 -6 -148 25 -148 28 0 35
39 35 199 l0 161 33 -20 c38 -24 73 -26 80 -5 7 17 -2 24 -57 40 l-41 12 0 76
c0 41 -3 78 -6 81 -4 4 -21 11 -39 16 l-32 9 9 -52z"/>
<path d="M526 561 l-7 -58 -79 -7 c-101 -9 -109 -30 -10 -24 39 2 70 3 70 2 0
-10 -34 -79 -48 -96 -26 -33 -95 -98 -104 -98 -4 0 -8 -4 -8 -10 0 -16 14 -12
54 15 20 14 41 25 46 25 6 0 10 -27 10 -59 0 -59 14 -86 31 -60 5 8 9 44 9 80
l0 67 39 4 39 3 4 -147 c4 -139 9 -170 25 -155 5 6 16 147 22 295 1 9 15 12
48 10 40 -3 47 -6 50 -28 2 -14 1 -45 -2 -68 -6 -40 -8 -43 -31 -38 -30 8 -30
3 1 -29 50 -49 69 -29 84 90 12 100 5 108 -88 99 -59 -6 -64 -5 -57 11 8 23
-11 45 -40 45 -20 0 -22 -4 -17 -34 5 -33 4 -34 -37 -41 -23 -4 -43 -5 -46 -2
-2 2 11 30 30 62 19 31 37 62 38 67 2 5 59 12 126 15 68 3 125 10 128 14 9 15
-62 20 -145 10 -47 -6 -86 -9 -89 -7 -2 3 2 20 9 40 14 39 2 66 -31 66 -14 0
-19 -12 -24 -59z"/>
<path d="M145 390 c-30 -60 -30 -105 0 -105 38 0 68 116 38 146 -9 9 -18 -1
-38 -41z"/>
</g>
</svg>
