<?xml version="1.0" standalone="no"?>
<!DOCTYPE svg PUBLIC "-//W3C//DTD SVG 20010904//EN"
 "http://www.w3.org/TR/2001/REC-SVG-20010904/DTD/svg10.dtd">
<svg version="1.0" xmlns="http://www.w3.org/2000/svg"
 width="90.000000pt" height="92.000000pt" viewBox="0 0 90.000000 92.000000"
 preserveAspectRatio="xMidYMid meet">
<metadata>
Created by potrace 1.16, written by Peter Selinger 2001-2019
</metadata>
<g transform="translate(0.000000,92.000000) scale(0.100000,-0.100000)"
fill="#000000" stroke="none">
<path d="M547 833 c-4 -3 -7 -18 -7 -32 0 -44 -39 -172 -80 -258 -41 -88 -33
-99 20 -27 23 30 41 44 57 44 13 0 43 5 67 11 24 6 55 9 69 7 l26 -3 -23 -56
-23 -56 74 49 c40 28 73 54 73 58 0 13 -50 50 -76 56 -13 3 -57 -2 -98 -12
-42 -10 -78 -16 -80 -13 -3 3 11 45 31 94 25 62 33 93 26 103 -13 22 -48 43
-56 35z"/>
<path d="M246 778 c-3 -13 -6 -31 -6 -41 0 -49 -118 -241 -195 -319 -22 -23
-31 -38 -23 -38 20 0 99 62 127 100 17 24 27 29 44 24 30 -8 47 -32 47 -65 0
-25 -4 -28 -52 -36 -64 -10 -61 -28 5 -28 l47 1 0 -87 0 -87 -47 -16 c-26 -9
-68 -16 -95 -16 -46 0 -48 -1 -38 -20 20 -38 56 -46 98 -23 20 11 85 39 145
63 101 40 131 60 88 60 -10 0 -35 -7 -54 -15 -20 -8 -39 -15 -42 -15 -3 0 -4
39 -3 87 l3 87 40 8 c22 5 47 11 55 14 28 10 -20 27 -60 20 l-37 -6 1 40 c0
33 4 40 21 40 11 1 30 6 43 14 21 11 22 14 7 26 -14 11 -24 12 -63 1 -82 -23
-113 -29 -110 -23 18 40 92 162 97 162 4 0 20 -14 37 -31 33 -34 78 -61 88
-52 3 4 6 17 6 29 0 28 -28 48 -87 63 -40 11 -42 13 -31 36 9 21 8 28 -7 45
-24 26 -41 25 -49 -2z"/>
<path d="M531 437 c0 -115 -62 -229 -158 -288 -43 -27 -36 -35 14 -18 53 17
138 107 160 169 16 45 33 66 33 40 0 -26 131 -204 162 -221 22 -12 148 -3 148
10 0 4 -38 26 -84 49 -68 34 -98 57 -155 118 -74 79 -82 99 -59 150 11 23 10
28 -7 40 -41 30 -54 19 -54 -49z"/>
<path d="M342 325 c-12 -25 -22 -48 -22 -50 0 -4 76 39 89 51 5 5 -30 44 -39
44 -3 0 -16 -20 -28 -45z"/>
<path d="M110 312 c0 -16 52 -82 65 -82 37 0 29 60 -10 78 -30 14 -55 16 -55
4z"/>
</g>
</svg>
