<?xml version="1.0" standalone="no"?>
<!DOCTYPE svg PUBLIC "-//W3C//DTD SVG 20010904//EN"
 "http://www.w3.org/TR/2001/REC-SVG-20010904/DTD/svg10.dtd">
<svg version="1.0" xmlns="http://www.w3.org/2000/svg"
 width="96.000000pt" height="68.000000pt" viewBox="0 0 96.000000 68.000000"
 preserveAspectRatio="xMidYMid meet">
<metadata>
Created by potrace 1.16, written by Peter Selinger 2001-2019
</metadata>
<g transform="translate(0.000000,68.000000) scale(0.100000,-0.100000)"
fill="#000000" stroke="none">
<path d="M390 573 l-55 -4 1 -117 c1 -96 3 -116 15 -113 8 3 49 6 92 9 53 3
77 8 74 16 -3 7 -29 10 -76 8 l-71 -2 1 86 c1 55 5 87 12 89 7 2 38 6 70 10
60 7 81 26 25 23 -18 -1 -58 -3 -88 -5z"/>
</g>
</svg>
