<?xml version="1.0" standalone="no"?>
<!DOCTYPE svg PUBLIC "-//W3C//DTD SVG 20010904//EN"
 "http://www.w3.org/TR/2001/REC-SVG-20010904/DTD/svg10.dtd">
<svg version="1.0" xmlns="http://www.w3.org/2000/svg"
 width="96.000000pt" height="68.000000pt" viewBox="0 0 96.000000 68.000000"
 preserveAspectRatio="xMidYMid meet">
<metadata>
Created by potrace 1.16, written by Peter Selinger 2001-2019
</metadata>
<g transform="translate(0.000000,68.000000) scale(0.100000,-0.100000)"
fill="#000000" stroke="none">
<path d="M245 583 c4 -10 10 -48 12 -84 l6 -66 -67 -7 c-36 -4 -66 -11 -66
-16 0 -15 41 -22 87 -15 l44 6 -3 -41 -3 -42 -87 -37 c-92 -38 -107 -57 -57
-75 21 -7 36 -2 83 28 32 21 60 35 63 32 3 -2 2 -34 -2 -71 l-8 -67 -33 7
c-19 3 -34 4 -34 2 0 -2 18 -23 40 -46 67 -70 90 -40 90 119 0 93 1 100 25
118 14 11 25 23 25 27 0 4 -11 4 -25 1 -22 -6 -25 -3 -25 22 0 27 4 30 41 35
46 6 54 11 44 27 -4 7 -24 10 -46 8 -45 -4 -49 8 -24 77 14 38 14 41 -6 58
-12 9 -35 17 -51 17 -25 0 -29 -3 -23 -17z"/>
<path d="M497 504 c-19 -61 -80 -152 -136 -201 -20 -18 -30 -33 -22 -33 25 0
109 76 157 143 26 37 50 67 52 67 5 0 19 -15 82 -90 74 -88 77 -89 145 -90 67
0 104 14 70 26 -89 32 -128 51 -180 90 -89 64 -105 80 -105 101 0 21 -18 43
-34 43 -6 0 -19 -25 -29 -56z"/>
<path d="M523 326 c-84 -15 -90 -26 -12 -25 80 2 121 10 127 27 5 15 -27 14
-115 -2z"/>
<path d="M550 224 c-36 -7 -84 -11 -107 -8 l-43 5 14 -28 c8 -15 19 -50 26
-78 13 -60 18 -65 34 -42 11 14 29 17 110 17 72 0 96 3 94 13 -4 20 13 71 30
90 35 39 -47 56 -158 31z m87 -55 c-3 -22 -7 -43 -9 -45 -3 -2 -39 -7 -81 -10
l-76 -7 -7 37 c-3 21 -3 41 2 46 9 8 55 15 138 18 l39 2 -6 -41z"/>
</g>
</svg>
