<?xml version="1.0" standalone="no"?>
<!DOCTYPE svg PUBLIC "-//W3C//DTD SVG 20010904//EN"
 "http://www.w3.org/TR/2001/REC-SVG-20010904/DTD/svg10.dtd">
<svg version="1.0" xmlns="http://www.w3.org/2000/svg"
 width="96.000000pt" height="68.000000pt" viewBox="0 0 96.000000 68.000000"
 preserveAspectRatio="xMidYMid meet">
<metadata>
Created by potrace 1.16, written by Peter Selinger 2001-2019
</metadata>
<g transform="translate(0.000000,68.000000) scale(0.100000,-0.100000)"
fill="#000000" stroke="none">
<path d="M320 292 c-52 -7 -100 -19 -107 -25 -17 -18 -28 -133 -13 -142 18
-11 26 9 29 73 1 31 4 59 7 61 9 9 171 13 177 5 3 -5 3 -31 0 -57 -5 -41 -9
-48 -24 -44 -24 6 -24 -5 -1 -26 20 -18 48 -22 56 -8 3 5 10 39 15 77 15 101
5 107 -139 86z"/>
</g>
</svg>
