<?xml version="1.0" standalone="no"?>
<!DOCTYPE svg PUBLIC "-//W3C//DTD SVG 20010904//EN"
 "http://www.w3.org/TR/2001/REC-SVG-20010904/DTD/svg10.dtd">
<svg version="1.0" xmlns="http://www.w3.org/2000/svg"
 width="96.000000pt" height="68.000000pt" viewBox="0 0 96.000000 68.000000"
 preserveAspectRatio="xMidYMid meet">
<metadata>
Created by potrace 1.16, written by Peter Selinger 2001-2019
</metadata>
<g transform="translate(0.000000,68.000000) scale(0.100000,-0.100000)"
fill="#000000" stroke="none">
<path d="M480 557 c0 -26 -60 -132 -95 -169 -35 -37 -30 -54 6 -22 10 9 23 13
28 9 14 -8 14 -87 0 -195 -5 -46 -8 -94 -4 -107 6 -26 30 -31 39 -7 11 30 7
309 -6 322 -8 8 1 28 40 82 57 77 60 85 36 94 -26 10 -44 7 -44 -7z"/>
</g>
</svg>
