<?xml version="1.0" standalone="no"?>
<!DOCTYPE svg PUBLIC "-//W3C//DTD SVG 20010904//EN"
 "http://www.w3.org/TR/2001/REC-SVG-20010904/DTD/svg10.dtd">
<svg version="1.0" xmlns="http://www.w3.org/2000/svg"
 width="96.000000pt" height="68.000000pt" viewBox="0 0 96.000000 68.000000"
 preserveAspectRatio="xMidYMid meet">
<metadata>
Created by potrace 1.16, written by Peter Selinger 2001-2019
</metadata>
<g transform="translate(0.000000,68.000000) scale(0.100000,-0.100000)"
fill="#000000" stroke="none">
<path d="M296 568 c-3 -7 -7 -28 -10 -46 -9 -53 -112 -190 -178 -236 -12 -9
-19 -18 -16 -22 11 -10 46 6 93 42 56 43 105 47 105 9 0 -24 -5 -27 -88 -38
-7 -1 -13 -6 -13 -12 1 -5 23 -11 51 -13 l50 -3 0 -58 0 -58 -57 -12 c-32 -6
-74 -12 -93 -13 l-35 -3 23 -23 c24 -24 70 -29 100 -12 9 6 66 27 125 48 60
21 108 42 108 47 -1 11 -71 16 -71 5 0 -4 -11 -10 -25 -12 -24 -5 -25 -3 -25
41 0 59 7 68 59 80 23 5 45 12 48 15 9 8 -45 19 -73 13 -22 -4 -25 -1 -22 22
2 19 10 27 28 29 14 2 29 8 34 13 17 16 -23 21 -86 10 -34 -6 -63 -9 -64 -8
-2 2 15 29 37 60 25 35 45 54 52 50 7 -4 24 -15 39 -26 29 -22 48 -16 48 14 0
15 -12 25 -40 36 -22 9 -40 23 -40 31 0 30 -56 56 -64 30z"/>
<path d="M728 491 c-16 -33 -28 -63 -28 -68 0 -4 16 -25 35 -45 36 -39 65 -49
65 -24 0 15 -50 56 -69 56 -20 0 -12 18 29 65 32 37 38 50 29 61 -20 25 -33
15 -61 -45z"/>
<path d="M516 532 c-2 -4 -6 -20 -10 -36 -4 -16 -18 -43 -31 -61 l-25 -31 45
-48 c38 -41 46 -46 52 -31 6 17 -14 41 -55 64 -12 7 -9 16 19 52 19 24 40 50
47 57 7 8 10 17 7 22 -6 10 -44 20 -49 12z"/>
<path d="M627 533 c-4 -3 -7 -12 -7 -20 0 -7 -9 -33 -21 -58 l-21 -44 21 -29
c30 -43 50 -57 62 -45 11 11 -3 29 -42 57 -21 14 -20 15 20 66 46 57 48 65 25
74 -20 8 -29 8 -37 -1z"/>
<path d="M769 296 c-6 -6 -227 -28 -282 -28 -47 0 -48 -1 -33 -23 8 -12 21
-57 29 -99 16 -85 24 -99 38 -73 8 14 25 17 109 17 89 0 100 -2 110 -20 25
-47 64 -2 80 93 5 29 12 66 15 83 6 26 3 32 -20 42 -27 13 -39 15 -46 8z m7
-50 c9 -36 1 -41 -60 -44 -56 -2 -56 -2 -56 27 0 32 10 38 72 40 32 1 39 -3
44 -23z m-166 -25 c0 -26 -4 -29 -46 -36 -25 -3 -48 -4 -50 -2 -3 3 -6 17 -7
33 -2 27 1 29 43 34 56 7 60 5 60 -29z m160 -58 c0 -32 -14 -41 -65 -44 -40
-3 -50 -1 -53 12 -5 28 26 49 74 49 35 0 44 -3 44 -17z m-152 -25 c3 -27 2
-28 -46 -28 -45 0 -50 2 -54 25 -7 33 -1 36 52 33 41 -3 45 -6 48 -30z"/>
<path d="M382 233 c-5 -16 -13 -37 -18 -47 -7 -18 -4 -17 34 4 46 26 53 44 23
60 -27 14 -28 14 -39 -17z"/>
<path d="M180 215 c0 -12 63 -74 71 -69 16 10 9 53 -10 64 -20 10 -61 14 -61
5z"/>
</g>
</svg>
