<?xml version="1.0" standalone="no"?>
<!DOCTYPE svg PUBLIC "-//W3C//DTD SVG 20010904//EN"
 "http://www.w3.org/TR/2001/REC-SVG-20010904/DTD/svg10.dtd">
<svg version="1.0" xmlns="http://www.w3.org/2000/svg"
 width="96.000000pt" height="68.000000pt" viewBox="0 0 96.000000 68.000000"
 preserveAspectRatio="xMidYMid meet">
<metadata>
Created by potrace 1.16, written by Peter Selinger 2001-2019
</metadata>
<g transform="translate(0.000000,68.000000) scale(0.100000,-0.100000)"
fill="#000000" stroke="none">
<path d="M491 601 c6 -16 9 -55 7 -87 -3 -58 -3 -59 -35 -62 l-32 -3 -3 68 -3
68 -30 0 c-20 0 -29 -5 -27 -13 1 -7 6 -40 10 -71 l8 -58 -110 -7 c-125 -8
-151 -16 -110 -35 21 -9 53 -9 150 0 68 7 126 10 128 8 3 -2 6 -29 8 -59 3
-54 2 -55 -27 -61 -16 -4 -63 -7 -103 -8 -71 -1 -72 -1 -66 -25 3 -13 0 -58
-6 -100 -11 -73 -8 -116 9 -116 14 0 31 85 31 153 l0 64 46 7 c26 3 64 6 85 6
l39 0 0 -110 c0 -69 4 -110 10 -110 17 0 22 24 29 128 l6 97 83 3 82 3 0 -106
c0 -58 -4 -105 -9 -105 -5 0 -21 4 -35 10 -37 14 -32 0 16 -39 l41 -35 17 22
c13 16 18 48 23 139 5 104 3 120 -12 136 -16 17 -25 17 -76 8 -32 -6 -76 -11
-97 -11 l-39 0 3 59 3 59 147 7 c82 4 150 10 153 15 10 16 -25 31 -73 32 -27
0 -79 -3 -117 -7 l-67 -8 7 76 7 76 -28 6 c-16 4 -34 8 -41 10 -8 3 -9 -4 -2
-24z"/>
<path d="M645 561 c-3 -10 -17 -31 -30 -47 -13 -15 -22 -30 -20 -32 2 -2 32
14 65 36 57 37 60 41 42 51 -30 16 -50 13 -57 -8z"/>
<path d="M259 513 c23 -40 41 -55 55 -50 30 12 -8 67 -46 67 -15 0 -17 -3 -9
-17z"/>
<path d="M590 403 c0 -10 46 -45 78 -59 50 -22 73 2 30 30 -23 15 -108 38
-108 29z"/>
<path d="M297 364 c-10 -13 -36 -36 -58 -51 -58 -38 -40 -39 33 -2 81 41 103
60 86 71 -23 14 -42 8 -61 -18z"/>
<path d="M360 212 c0 -9 -11 -34 -25 -55 -33 -47 -22 -47 34 1 32 27 43 43 38
55 -9 23 -47 22 -47 -1z"/>
<path d="M561 191 c24 -46 44 -65 59 -56 20 12 9 44 -23 69 -49 37 -60 33 -36
-13z"/>
</g>
</svg>
