<?xml version="1.0" standalone="no"?>
<!DOCTYPE svg PUBLIC "-//W3C//DTD SVG 20010904//EN"
 "http://www.w3.org/TR/2001/REC-SVG-20010904/DTD/svg10.dtd">
<svg version="1.0" xmlns="http://www.w3.org/2000/svg"
 width="96.000000pt" height="68.000000pt" viewBox="0 0 96.000000 68.000000"
 preserveAspectRatio="xMidYMid meet">
<metadata>
Created by potrace 1.16, written by Peter Selinger 2001-2019
</metadata>
<g transform="translate(0.000000,68.000000) scale(0.100000,-0.100000)"
fill="#000000" stroke="none">
<path d="M315 560 c-16 -4 -51 -8 -76 -9 l-46 -1 5 -77 c5 -79 14 -97 43 -87
9 2 41 5 71 6 l54 1 23 74 c13 42 20 78 15 83 -14 14 -57 19 -89 10z m35 -44
c0 -19 -6 -24 -37 -30 -65 -10 -73 -8 -73 18 0 27 13 33 73 35 33 1 37 -2 37
-23z m-6 -68 c-9 -31 -7 -30 -59 -36 -45 -5 -47 -4 -43 19 2 20 10 25 48 30
25 3 49 7 53 7 5 1 5 -8 1 -20z"/>
</g>
</svg>
