<?xml version="1.0" standalone="no"?>
<!DOCTYPE svg PUBLIC "-//W3C//DTD SVG 20010904//EN"
 "http://www.w3.org/TR/2001/REC-SVG-20010904/DTD/svg10.dtd">
<svg version="1.0" xmlns="http://www.w3.org/2000/svg"
 width="96.000000pt" height="68.000000pt" viewBox="0 0 96.000000 68.000000"
 preserveAspectRatio="xMidYMid meet">
<metadata>
Created by potrace 1.16, written by Peter Selinger 2001-2019
</metadata>
<g transform="translate(0.000000,68.000000) scale(0.100000,-0.100000)"
fill="#000000" stroke="none">
<path d="M470 313 c-47 -8 -102 -13 -123 -11 -30 3 -36 1 -31 -12 3 -8 13 -34
21 -57 14 -39 17 -42 41 -36 15 4 68 7 118 7 l92 1 26 46 c14 26 26 49 26 52
0 6 -59 27 -74 26 -6 -1 -49 -8 -96 -16z m104 -50 c-9 -27 -13 -28 -107 -37
-54 -5 -99 -7 -101 -5 -2 2 -7 19 -11 37 l-7 32 59 1 c32 0 81 4 108 8 60 9
72 1 59 -36z"/>
</g>
</svg>
