<?xml version="1.0" standalone="no"?>
<!DOCTYPE svg PUBLIC "-//W3C//DTD SVG 20010904//EN"
 "http://www.w3.org/TR/2001/REC-SVG-20010904/DTD/svg10.dtd">
<svg version="1.0" xmlns="http://www.w3.org/2000/svg"
 width="96.000000pt" height="68.000000pt" viewBox="0 0 96.000000 68.000000"
 preserveAspectRatio="xMidYMid meet">
<metadata>
Created by potrace 1.16, written by Peter Selinger 2001-2019
</metadata>
<g transform="translate(0.000000,68.000000) scale(0.100000,-0.100000)"
fill="#000000" stroke="none">
<path d="M247 594 c-3 -3 -2 -17 4 -31 5 -13 9 -53 9 -87 l0 -64 -67 -8 c-38
-5 -68 -13 -68 -19 0 -5 28 -11 63 -13 34 -2 62 -5 62 -8 0 -13 -74 -114 -124
-169 -30 -33 -51 -61 -46 -63 10 -4 100 47 100 56 1 4 19 27 41 52 l41 45 -7
-65 c-4 -36 -10 -81 -15 -102 -5 -25 -3 -45 8 -67 17 -37 26 -38 46 -9 12 17
16 49 16 130 l0 107 30 -17 c27 -15 32 -15 40 -2 16 25 12 31 -31 48 -36 14
-40 19 -37 46 3 28 7 32 43 36 79 11 85 40 8 40 l-46 0 6 66 c5 46 3 70 -6 78
-15 15 -62 28 -70 20z"/>
<path d="M553 486 c-142 -23 -177 -36 -95 -36 l52 0 0 -55 c0 -60 3 -58 -75
-59 l-30 -1 3 -65 c2 -36 8 -69 12 -74 5 -5 22 -4 41 3 56 19 59 17 59 -53 l0
-64 -65 -7 c-35 -3 -68 -4 -73 -1 -4 2 -14 1 -22 -4 -23 -14 38 -33 80 -25
100 19 147 24 272 24 89 1 139 5 144 12 13 22 -22 30 -105 25 l-83 -5 6 51 c4
29 9 55 12 59 2 4 29 11 59 14 46 6 55 10 50 24 -3 9 3 33 14 53 18 36 18 38
0 53 -14 14 -30 15 -84 10 l-67 -8 7 34 c4 19 7 46 7 62 -1 26 0 27 59 27 57
0 77 11 43 24 -25 10 -81 5 -221 -18z m68 -28 c0 -7 1 -40 2 -73 2 -67 -6 -63
89 -49 30 5 37 3 40 -13 9 -38 -12 -71 -48 -78 -19 -3 -43 -3 -54 0 -18 6 -19
0 -22 -72 l-3 -78 -32 -3 -32 -3 2 73 c2 72 2 73 -23 73 -14 -1 -40 -4 -57 -8
-29 -6 -33 -4 -33 16 0 55 10 66 61 73 47 6 57 13 42 28 -7 7 -4 106 3 118 8
13 64 9 65 -4z"/>
</g>
</svg>
