<?xml version="1.0" standalone="no"?>
<!DOCTYPE svg PUBLIC "-//W3C//DTD SVG 20010904//EN"
 "http://www.w3.org/TR/2001/REC-SVG-20010904/DTD/svg10.dtd">
<svg version="1.0" xmlns="http://www.w3.org/2000/svg"
 width="90.000000pt" height="92.000000pt" viewBox="0 0 90.000000 92.000000"
 preserveAspectRatio="xMidYMid meet">
<metadata>
Created by potrace 1.16, written by Peter Selinger 2001-2019
</metadata>
<g transform="translate(0.000000,92.000000) scale(0.100000,-0.100000)"
fill="#000000" stroke="none">
<path d="M340 806 c0 -7 -13 -40 -30 -72 -16 -32 -30 -61 -30 -62 0 -7 58 34
100 70 l42 37 -33 20 c-40 25 -49 26 -49 7z"/>
<path d="M536 773 c5 -10 10 -73 12 -140 l3 -122 -38 -7 c-21 -3 -44 -10 -52
-14 -23 -12 26 -33 60 -26 19 4 29 1 29 -7 -1 -41 -33 -153 -55 -189 -33 -56
-64 -92 -72 -85 -3 4 -7 77 -9 164 -3 177 -8 189 -72 179 l-32 -5 2 44 3 43
80 7 80 7 -24 20 c-14 10 -33 17 -43 15 -10 -3 -106 -16 -213 -29 -107 -12
-195 -26 -195 -30 0 -20 47 -30 112 -23 l69 6 -3 -43 -3 -43 -50 0 c-39 -1
-49 -4 -45 -15 6 -16 5 -205 -1 -287 -5 -72 19 -96 43 -42 2 3 53 9 113 13
l110 7 12 -31 c14 -38 37 -39 52 -2 8 18 25 33 47 41 43 15 87 74 109 144 9
29 19 58 21 66 3 8 29 -35 58 -95 63 -128 93 -164 134 -164 42 0 92 11 92 21
0 4 -25 22 -55 39 -30 17 -78 57 -107 90 -64 71 -123 177 -107 196 5 7 44 16
85 19 79 8 95 22 47 44 -20 9 -37 9 -74 0 -27 -7 -51 -10 -54 -7 -3 3 -2 57 3
119 6 72 5 119 -1 127 -5 6 -25 12 -44 12 -30 0 -34 -3 -27 -17z m-266 -218
c0 -25 -4 -45 -9 -45 -5 0 -17 -3 -26 -6 -15 -6 -17 -1 -14 37 4 44 13 59 37
59 8 0 12 -16 12 -45z m98 -115 l3 -45 -36 -2 -35 -3 0 51 0 50 33 -3 c30 -3
32 -5 35 -48z m-96 21 c-16 -78 7 -116 66 -107 l32 5 0 -79 0 -79 -34 6 c-18
3 -73 0 -121 -6 -48 -7 -88 -11 -90 -9 -1 2 0 37 2 78 5 71 7 76 37 95 22 14
35 34 45 68 13 43 18 48 40 45 16 -2 25 -8 23 -17z m-96 -23 c-3 -18 -14 -43
-24 -57 l-17 -26 -3 49 c-3 49 6 66 37 66 10 0 12 -8 7 -32z"/>
<path d="M213 307 c-24 -6 -43 -14 -43 -18 0 -21 76 -21 144 -2 19 5 19 6 1
19 -21 16 -41 16 -102 1z"/>
<path d="M120 768 c0 -7 14 -35 31 -61 35 -56 62 -60 67 -11 2 25 -3 37 -28
58 -33 27 -70 35 -70 14z"/>
<path d="M681 713 c8 -11 29 -33 48 -48 25 -21 37 -26 49 -19 43 28 9 68 -67
80 -43 7 -44 6 -30 -13z"/>
</g>
</svg>
