<?xml version="1.0" standalone="no"?>
<!DOCTYPE svg PUBLIC "-//W3C//DTD SVG 20010904//EN"
 "http://www.w3.org/TR/2001/REC-SVG-20010904/DTD/svg10.dtd">
<svg version="1.0" xmlns="http://www.w3.org/2000/svg"
 width="96.000000pt" height="68.000000pt" viewBox="0 0 96.000000 68.000000"
 preserveAspectRatio="xMidYMid meet">
<metadata>
Created by potrace 1.16, written by Peter Selinger 2001-2019
</metadata>
<g transform="translate(0.000000,68.000000) scale(0.100000,-0.100000)"
fill="#000000" stroke="none">
<path d="M546 301 c7 -32 2 -34 -100 -47 -45 -5 -55 -9 -42 -16 10 -6 40 -7
69 -3 l52 7 -20 -22 c-21 -24 -119 -107 -151 -127 -16 -11 -15 -11 9 -3 46 16
81 37 136 80 l52 42 -2 -71 c-3 -56 0 -74 13 -88 22 -22 27 -10 30 79 l3 67
54 -50 c52 -47 56 -49 112 -49 33 0 59 4 59 8 0 5 -24 16 -54 25 -55 18 -176
90 -176 105 0 11 59 22 123 22 48 0 63 14 27 25 -11 4 -50 3 -87 -1 -49 -5
-64 -4 -59 5 10 16 -12 41 -35 41 -15 0 -17 -5 -13 -29z"/>
</g>
</svg>
