<?xml version="1.0" standalone="no"?>
<!DOCTYPE svg PUBLIC "-//W3C//DTD SVG 20010904//EN"
 "http://www.w3.org/TR/2001/REC-SVG-20010904/DTD/svg10.dtd">
<svg version="1.0" xmlns="http://www.w3.org/2000/svg"
 width="96.000000pt" height="68.000000pt" viewBox="0 0 96.000000 68.000000"
 preserveAspectRatio="xMidYMid meet">
<metadata>
Created by potrace 1.16, written by Peter Selinger 2001-2019
</metadata>
<g transform="translate(0.000000,68.000000) scale(0.100000,-0.100000)"
fill="#000000" stroke="none">
<path d="M505 598 c4 -13 9 -47 12 -75 l5 -53 -33 0 c-19 0 -45 -3 -58 -7 -22
-6 -23 -4 -17 34 8 47 -3 60 -54 65 -27 2 -34 0 -31 -12 3 -8 6 -33 9 -56 l4
-41 -61 -7 c-43 -5 -61 -11 -61 -21 0 -12 14 -15 60 -15 l59 0 7 -35 c11 -61
5 -65 -93 -65 -93 0 -131 -11 -103 -30 19 -12 83 -12 139 1 24 5 45 8 47 6 3
-2 -4 -28 -13 -58 -12 -36 -33 -70 -63 -101 -48 -50 -44 -64 6 -26 53 40 84
82 106 140 l21 58 68 0 69 0 0 -139 c0 -143 8 -171 35 -135 11 14 14 54 15
152 l0 134 93 -2 c122 -2 137 -2 137 8 0 22 -54 32 -140 25 -100 -7 -98 -8
-84 66 6 29 9 31 53 31 93 0 94 39 0 48 l-52 5 6 57 c7 63 1 70 -67 70 -25 0
-27 -3 -21 -22z m24 -262 c-2 -2 -32 -6 -66 -10 l-63 -7 0 50 c0 55 3 57 80
63 34 3 35 2 44 -45 5 -26 7 -49 5 -51z"/>
</g>
</svg>
