<?xml version="1.0" standalone="no"?>
<!DOCTYPE svg PUBLIC "-//W3C//DTD SVG 20010904//EN"
 "http://www.w3.org/TR/2001/REC-SVG-20010904/DTD/svg10.dtd">
<svg version="1.0" xmlns="http://www.w3.org/2000/svg"
 width="96.000000pt" height="68.000000pt" viewBox="0 0 96.000000 68.000000"
 preserveAspectRatio="xMidYMid meet">
<metadata>
Created by potrace 1.16, written by Peter Selinger 2001-2019
</metadata>
<g transform="translate(0.000000,68.000000) scale(0.100000,-0.100000)"
fill="#000000" stroke="none">
<path d="M566 593 c4 -10 9 -54 12 -99 4 -78 3 -81 -20 -87 -12 -4 -33 -7 -46
-7 -13 0 -20 -4 -17 -10 3 -5 22 -10 41 -10 19 0 34 -4 34 -8 0 -15 -58 -97
-102 -144 -25 -27 -41 -48 -36 -48 22 0 56 25 101 73 l48 52 -5 -35 c-3 -19
-8 -73 -12 -120 -5 -70 -4 -88 9 -98 25 -21 32 3 37 147 5 127 6 133 20 105 8
-16 32 -53 53 -81 37 -53 38 -53 92 -53 30 0 55 4 55 8 0 5 -19 17 -41 28 -23
10 -58 31 -78 47 -40 31 -100 105 -101 123 0 7 26 16 57 20 33 5 58 15 61 23
4 11 -6 13 -55 7 l-59 -7 4 86 c4 84 4 85 -22 95 -37 14 -39 13 -30 -7z"/>
<path d="M345 558 c4 -13 9 -55 12 -94 l5 -71 -53 -9 -54 -8 48 -4 c26 -2 47
-6 47 -9 0 -19 -75 -135 -101 -157 -21 -18 -26 -26 -14 -26 9 0 39 23 67 52
l51 52 -7 -99 c-7 -111 2 -145 29 -110 10 13 15 40 14 75 0 30 0 77 0 103 l1
48 26 -20 c33 -26 44 -26 44 -3 0 12 -13 23 -35 32 -28 11 -35 19 -35 42 0 21
5 28 19 28 26 0 51 10 51 21 0 5 -15 9 -34 9 l-35 0 6 71 c5 63 4 74 -12 85
-30 22 -49 18 -40 -8z"/>
<path d="M170 519 c0 -19 60 -71 77 -67 25 4 29 44 6 56 -30 15 -83 22 -83 11z"/>
<path d="M106 391 c-8 -12 53 -73 68 -68 6 2 12 15 14 28 2 19 -4 28 -23 37
-31 14 -52 15 -59 3z"/>
<path d="M205 264 c-15 -26 -42 -63 -61 -84 l-33 -37 17 -33 c9 -19 22 -35 29
-37 6 -2 21 25 33 64 13 37 26 73 30 78 4 6 10 22 14 37 3 14 9 33 12 42 13
35 -16 13 -41 -30z"/>
</g>
</svg>
