<?xml version="1.0" standalone="no"?>
<!DOCTYPE svg PUBLIC "-//W3C//DTD SVG 20010904//EN"
 "http://www.w3.org/TR/2001/REC-SVG-20010904/DTD/svg10.dtd">
<svg version="1.0" xmlns="http://www.w3.org/2000/svg"
 width="90.000000pt" height="92.000000pt" viewBox="0 0 90.000000 92.000000"
 preserveAspectRatio="xMidYMid meet">
<metadata>
Created by potrace 1.16, written by Peter Selinger 2001-2019
</metadata>
<g transform="translate(0.000000,92.000000) scale(0.100000,-0.100000)"
fill="#000000" stroke="none">
<path d="M392 882 c-12 -36 -67 -99 -93 -107 -20 -7 -25 -31 -10 -54 7 -11 28
-9 120 16 92 25 113 28 122 17 6 -8 20 -14 30 -14 14 0 19 7 19 30 0 32 -24
53 -72 65 -30 8 -33 4 -18 -25 9 -16 7 -20 -12 -24 -44 -9 -108 -14 -108 -9 0
4 18 21 40 40 45 38 48 52 22 76 -25 23 -28 22 -40 -11z"/>
<path d="M500 694 c-8 -20 -30 -49 -48 -64 -26 -21 -32 -33 -27 -49 8 -26 11
-26 114 3 l83 24 23 -25 c12 -15 27 -23 33 -19 13 8 16 55 4 72 -10 15 -67 44
-88 44 -15 0 -15 -2 -1 -24 15 -22 15 -25 1 -30 -9 -3 -34 -6 -57 -6 l-41 0
32 33 c37 38 37 40 16 61 -22 23 -29 20 -44 -20z"/>
<path d="M227 691 c-3 -15 -27 -49 -53 -75 -38 -39 -45 -51 -40 -72 5 -20 11
-24 24 -19 97 41 232 63 232 37 0 -16 -56 -83 -103 -123 -80 -69 -121 -98
-189 -135 -52 -28 -58 -34 -36 -34 32 0 159 64 220 111 24 18 64 53 90 78 l47
45 99 -76 c131 -100 154 -112 211 -104 56 8 141 35 141 45 0 4 -45 15 -101 25
-55 10 -122 25 -147 35 -76 27 -172 80 -172 95 0 8 -13 26 -30 39 -16 14 -30
35 -30 46 0 13 -11 26 -30 36 -44 23 -53 19 -35 -15 15 -28 14 -30 -3 -30 -11
0 -41 -3 -68 -6 l-49 -7 38 40 c39 41 45 61 25 81 -20 20 -35 14 -41 -17z"/>
<path d="M420 452 c0 -20 -99 -121 -150 -153 -51 -33 -50 -35 9 -14 40 14 121
64 170 106 l25 20 -27 27 c-15 15 -27 21 -27 14z"/>
<path d="M450 347 c0 -20 -90 -103 -154 -141 -66 -40 -62 -46 12 -18 46 18
127 67 182 112 l25 20 -24 20 c-27 23 -41 25 -41 7z"/>
<path d="M470 228 c-42 -49 -125 -107 -223 -154 -70 -35 -71 -36 -29 -30 66
10 163 52 263 116 l91 59 -27 26 c-16 14 -31 25 -34 24 -3 0 -22 -19 -41 -41z"/>
</g>
</svg>
