<?xml version="1.0" standalone="no"?>
<!DOCTYPE svg PUBLIC "-//W3C//DTD SVG 20010904//EN"
 "http://www.w3.org/TR/2001/REC-SVG-20010904/DTD/svg10.dtd">
<svg version="1.0" xmlns="http://www.w3.org/2000/svg"
 width="96.000000pt" height="68.000000pt" viewBox="0 0 96.000000 68.000000"
 preserveAspectRatio="xMidYMid meet">
<metadata>
Created by potrace 1.16, written by Peter Selinger 2001-2019
</metadata>
<g transform="translate(0.000000,68.000000) scale(0.100000,-0.100000)"
fill="#000000" stroke="none">
<path d="M215 520 c-16 -4 -47 -8 -67 -9 -37 -1 -37 -1 -26 -32 7 -20 9 -72 5
-140 -5 -103 -5 -109 14 -109 12 0 19 7 19 20 0 14 9 21 38 25 86 14 82 15 82
-17 0 -24 4 -29 21 -26 20 3 21 9 21 142 1 149 -2 157 -52 155 -14 -1 -38 -5
-55 -9z m59 -36 c3 -9 6 -31 6 -50 0 -33 -1 -34 -39 -34 -22 0 -46 -3 -55 -6
-13 -5 -16 2 -16 44 0 55 5 60 61 61 25 1 39 -4 43 -15z m6 -144 l0 -38 -43 0
c-23 0 -49 -2 -57 -4 -18 -4 -27 49 -11 65 11 11 90 26 104 20 4 -3 7 -22 7
-43z"/>
</g>
</svg>
