<?xml version="1.0" standalone="no"?>
<!DOCTYPE svg PUBLIC "-//W3C//DTD SVG 20010904//EN"
 "http://www.w3.org/TR/2001/REC-SVG-20010904/DTD/svg10.dtd">
<svg version="1.0" xmlns="http://www.w3.org/2000/svg"
 width="96.000000pt" height="68.000000pt" viewBox="0 0 96.000000 68.000000"
 preserveAspectRatio="xMidYMid meet">
<metadata>
Created by potrace 1.16, written by Peter Selinger 2001-2019
</metadata>
<g transform="translate(0.000000,68.000000) scale(0.100000,-0.100000)"
fill="#000000" stroke="none">
<path d="M580 106 c0 -47 3 -56 27 -71 33 -22 139 -31 185 -16 20 7 43 20 53
31 16 18 16 23 3 56 l-15 38 -12 -36 c-9 -27 -20 -39 -43 -47 -34 -12 -110
-14 -147 -4 -22 5 -23 10 -18 54 5 44 4 49 -13 49 -17 0 -20 -7 -20 -54z"/>
</g>
</svg>
