<?xml version="1.0" standalone="no"?>
<!DOCTYPE svg PUBLIC "-//W3C//DTD SVG 20010904//EN"
 "http://www.w3.org/TR/2001/REC-SVG-20010904/DTD/svg10.dtd">
<svg version="1.0" xmlns="http://www.w3.org/2000/svg"
 width="96.000000pt" height="68.000000pt" viewBox="0 0 96.000000 68.000000"
 preserveAspectRatio="xMidYMid meet">
<metadata>
Created by potrace 1.16, written by Peter Selinger 2001-2019
</metadata>
<g transform="translate(0.000000,68.000000) scale(0.100000,-0.100000)"
fill="#000000" stroke="none">
<path d="M470 573 c0 -5 16 -28 36 -51 41 -48 45 -45 -83 -63 -51 -6 -90 -15
-88 -19 10 -16 57 -17 132 -4 43 8 123 17 178 20 116 8 140 15 105 34 -22 12
-92 9 -147 -6 -19 -5 -23 -2 -23 14 0 31 -40 71 -77 78 -19 4 -33 2 -33 -3z"/>
</g>
</svg>
