<?xml version="1.0" standalone="no"?>
<!DOCTYPE svg PUBLIC "-//W3C//DTD SVG 20010904//EN"
 "http://www.w3.org/TR/2001/REC-SVG-20010904/DTD/svg10.dtd">
<svg version="1.0" xmlns="http://www.w3.org/2000/svg"
 width="96.000000pt" height="68.000000pt" viewBox="0 0 96.000000 68.000000"
 preserveAspectRatio="xMidYMid meet">
<metadata>
Created by potrace 1.16, written by Peter Selinger 2001-2019
</metadata>
<g transform="translate(0.000000,68.000000) scale(0.100000,-0.100000)"
fill="#000000" stroke="none">
<path d="M629 536 c-3 -3 -59 -13 -124 -21 -65 -8 -120 -17 -123 -19 -13 -14
33 -16 109 -6 113 14 169 13 169 -2 -1 -7 -9 -51 -18 -98 l-17 -85 -132 -14
c-159 -17 -181 -37 -30 -28 180 11 228 19 217 32 -7 8 -4 32 10 76 43 137 44
139 33 150 -12 12 -85 24 -94 15z"/>
</g>
</svg>
