<?xml version="1.0" standalone="no"?>
<!DOCTYPE svg PUBLIC "-//W3C//DTD SVG 20010904//EN"
 "http://www.w3.org/TR/2001/REC-SVG-20010904/DTD/svg10.dtd">
<svg version="1.0" xmlns="http://www.w3.org/2000/svg"
 width="96.000000pt" height="68.000000pt" viewBox="0 0 96.000000 68.000000"
 preserveAspectRatio="xMidYMid meet">
<metadata>
Created by potrace 1.16, written by Peter Selinger 2001-2019
</metadata>
<g transform="translate(0.000000,68.000000) scale(0.100000,-0.100000)"
fill="#000000" stroke="none">
<path d="M273 548 c-16 -55 -79 -151 -144 -217 -28 -29 -49 -55 -45 -58 10
-11 61 17 103 57 26 26 44 36 49 29 8 -14 -4 -164 -17 -207 -18 -57 19 -116
49 -79 6 6 13 78 17 158 6 124 5 148 -8 160 -13 12 -12 17 6 44 11 17 33 45
49 63 32 38 35 59 11 78 -35 26 -58 17 -70 -28z"/>
<path d="M618 530 c-14 -4 -64 -11 -110 -15 -75 -7 -114 -12 -128 -14 -3 -1 2
-6 10 -11 8 -5 30 -7 48 -4 32 6 32 6 32 -35 0 -22 0 -44 0 -48 0 -3 -17 -8
-37 -10 -21 -1 -58 -6 -83 -9 -41 -6 -43 -7 -21 -15 14 -5 51 -7 83 -3 l59 7
-7 -39 c-9 -54 -10 -54 -60 -54 -28 0 -43 -4 -39 -10 3 -5 22 -10 41 -10 27 0
34 -4 34 -19 0 -27 -38 -95 -77 -138 -38 -41 -36 -54 4 -28 42 26 66 57 103
130 31 62 35 65 69 65 75 0 142 13 137 25 -2 7 1 32 8 56 l13 44 77 3 c110 4
101 32 -11 32 -53 0 -55 1 -48 23 19 61 18 66 -10 77 -30 11 -49 12 -87 0z
m42 -57 c0 -44 -13 -54 -75 -60 l-57 -6 7 31 c5 25 3 33 -10 38 -29 11 2 21
71 23 64 2 64 2 64 -26z m-25 -120 c-3 -21 -10 -41 -13 -44 -4 -4 -31 -9 -59
-11 -49 -5 -53 -3 -53 16 1 62 9 69 89 74 l43 2 -7 -37z"/>
</g>
</svg>
