<?xml version="1.0" standalone="no"?>
<!DOCTYPE svg PUBLIC "-//W3C//DTD SVG 20010904//EN"
 "http://www.w3.org/TR/2001/REC-SVG-20010904/DTD/svg10.dtd">
<svg version="1.0" xmlns="http://www.w3.org/2000/svg"
 width="96.000000pt" height="68.000000pt" viewBox="0 0 96.000000 68.000000"
 preserveAspectRatio="xMidYMid meet">
<metadata>
Created by potrace 1.16, written by Peter Selinger 2001-2019
</metadata>
<g transform="translate(0.000000,68.000000) scale(0.100000,-0.100000)"
fill="#000000" stroke="none">
<path d="M517 584 c-4 -4 -7 -16 -7 -26 0 -28 -63 -119 -115 -167 -54 -50 -47
-52 21 -7 39 27 109 98 141 145 1 2 39 -31 85 -73 l83 -76 57 0 c70 0 81 13
25 30 -86 25 -220 110 -241 152 -12 23 -36 34 -49 22z"/>
</g>
</svg>
