<?xml version="1.0" standalone="no"?>
<!DOCTYPE svg PUBLIC "-//W3C//DTD SVG 20010904//EN"
 "http://www.w3.org/TR/2001/REC-SVG-20010904/DTD/svg10.dtd">
<svg version="1.0" xmlns="http://www.w3.org/2000/svg"
 width="96.000000pt" height="68.000000pt" viewBox="0 0 96.000000 68.000000"
 preserveAspectRatio="xMidYMid meet">
<metadata>
Created by potrace 1.16, written by Peter Selinger 2001-2019
</metadata>
<g transform="translate(0.000000,68.000000) scale(0.100000,-0.100000)"
fill="#000000" stroke="none">
<path d="M190 572 c0 -18 59 -64 74 -59 23 9 20 33 -6 51 -24 17 -68 22 -68 8z"/>
<path d="M120 431 c0 -14 64 -61 83 -61 23 0 22 37 0 48 -31 16 -83 24 -83 13z"/>
<path d="M234 293 c-20 -27 -55 -64 -75 -83 -38 -34 -38 -36 -24 -67 8 -18 18
-33 23 -33 9 0 92 154 113 208 12 32 6 28 -37 -25z"/>
</g>
</svg>
