<?xml version="1.0" standalone="no"?>
<!DOCTYPE svg PUBLIC "-//W3C//DTD SVG 20010904//EN"
 "http://www.w3.org/TR/2001/REC-SVG-20010904/DTD/svg10.dtd">
<svg version="1.0" xmlns="http://www.w3.org/2000/svg"
 width="96.000000pt" height="68.000000pt" viewBox="0 0 96.000000 68.000000"
 preserveAspectRatio="xMidYMid meet">
<metadata>
Created by potrace 1.16, written by Peter Selinger 2001-2019
</metadata>
<g transform="translate(0.000000,68.000000) scale(0.100000,-0.100000)"
fill="#000000" stroke="none">
<path d="M327 547 c-9 -30 -17 -59 -17 -65 0 -23 27 -12 39 16 8 15 17 34 21
42 4 10 25 16 59 18 l51 3 0 -35 c0 -32 -3 -36 -27 -37 -16 0 -37 -4 -48 -9
-15 -6 -8 -9 28 -9 43 -1 47 -3 47 -26 0 -25 -1 -25 -80 -25 l-81 0 21 -22
c11 -12 20 -30 20 -40 0 -10 7 -35 16 -57 15 -38 16 -38 52 -30 52 12 52 12
52 -21 l0 -30 -72 -1 c-40 0 -91 -3 -113 -8 -36 -6 -38 -8 -20 -18 14 -8 44
-9 95 -3 41 5 82 9 91 10 13 0 17 -16 22 -86 3 -48 9 -89 12 -92 12 -13 25 25
25 74 0 28 3 66 6 83 l6 31 144 0 c142 0 173 8 113 29 -21 7 -62 7 -140 -1
-93 -9 -112 -9 -120 3 -14 22 -11 29 18 40 27 10 40 9 75 -6 13 -5 24 9 54 70
37 75 37 78 19 91 -21 16 -47 17 -117 5 -45 -7 -48 -7 -48 14 0 19 7 24 45 29
57 9 60 29 4 24 -41 -3 -42 -2 -43 30 -1 28 2 32 25 32 14 0 47 3 73 6 41 6
46 5 46 -13 0 -10 -5 -24 -12 -31 -15 -15 -9 -15 48 -1 50 13 56 29 17 54 -25
17 -38 17 -157 7 -161 -15 -216 -15 -216 -2 0 28 -18 4 -33 -43z m309 -147 c0
-11 -7 -20 -16 -20 -8 0 -32 -3 -52 -6 -36 -6 -38 -5 -38 20 0 25 2 26 53 26
46 0 53 -3 53 -20z m-156 -16 c0 -24 -2 -25 -47 -22 -35 2 -49 7 -51 20 -2 12
5 18 30 21 68 8 68 8 68 -19z m138 -51 c-2 -13 -16 -20 -46 -24 -39 -5 -42 -4
-42 18 0 21 5 23 46 23 38 0 45 -3 42 -17z m-138 -13 c0 -16 -7 -20 -35 -20
-19 0 -35 2 -35 4 0 2 -3 11 -6 20 -5 13 2 16 35 16 34 0 41 -3 41 -20z"/>
<path d="M180 582 c0 -28 78 -90 94 -75 13 13 5 53 -13 62 -25 14 -81 23 -81
13z"/>
<path d="M110 431 c0 -15 78 -63 97 -59 33 6 27 37 -11 53 -39 17 -86 20 -86
6z"/>
<path d="M222 288 c-29 -36 -63 -73 -77 -82 -28 -18 -31 -33 -13 -71 21 -47
41 -30 96 85 30 60 52 115 50 122 -3 7 -28 -18 -56 -54z"/>
</g>
</svg>
