<?xml version="1.0" standalone="no"?>
<!DOCTYPE svg PUBLIC "-//W3C//DTD SVG 20010904//EN"
 "http://www.w3.org/TR/2001/REC-SVG-20010904/DTD/svg10.dtd">
<svg version="1.0" xmlns="http://www.w3.org/2000/svg"
 width="96.000000pt" height="68.000000pt" viewBox="0 0 96.000000 68.000000"
 preserveAspectRatio="xMidYMid meet">
<metadata>
Created by potrace 1.16, written by Peter Selinger 2001-2019
</metadata>
<g transform="translate(0.000000,68.000000) scale(0.100000,-0.100000)"
fill="#000000" stroke="none">
<path d="M569 578 c-7 -18 -22 -46 -33 -61 -19 -26 -25 -28 -65 -23 -39 5 -42
4 -30 -10 8 -9 20 -44 29 -78 l15 -61 48 3 c47 4 47 4 47 -27 0 -28 -3 -31
-32 -33 -18 -1 -52 0 -76 1 -41 3 -42 2 -33 -22 6 -14 7 -50 4 -80 -4 -37 -2
-57 7 -62 20 -12 29 7 32 72 3 59 4 62 32 67 67 14 66 16 67 -96 1 -57 4 -116
8 -133 6 -28 7 -29 18 -10 6 11 15 73 18 138 l8 117 63 0 64 0 0 -52 c0 -66
-10 -83 -41 -73 -22 7 -23 7 -9 -11 28 -35 43 -42 66 -32 24 11 34 35 34 85 0
17 5 44 11 60 17 44 -9 56 -103 48 l-78 -7 0 31 c0 31 1 31 42 29 l41 -3 33
65 c18 36 33 70 33 77 2 25 -61 34 -139 19 -41 -8 -77 -12 -80 -10 -2 3 12 21
33 40 43 41 45 49 15 58 -34 9 -35 9 -49 -26z m141 -101 c0 -22 -5 -24 -101
-37 -104 -13 -128 -8 -116 24 4 10 20 16 44 17 21 1 52 5 68 9 17 4 47 8 68 9
32 1 37 -2 37 -22z m-10 -66 c0 -26 -3 -27 -98 -35 -70 -6 -83 -5 -88 9 -4 9
-4 18 -2 21 3 2 41 8 84 13 44 5 85 9 92 10 6 0 12 -8 12 -18z"/>
<path d="M265 568 c4 -13 9 -48 12 -79 l5 -56 -32 -7 c-18 -3 -45 -6 -60 -6
-37 0 -61 -10 -54 -21 3 -5 34 -9 70 -9 l65 0 -28 -52 c-15 -29 -52 -78 -80
-109 -29 -31 -53 -59 -53 -62 0 -28 130 69 158 118 15 26 15 17 -2 -86 -15
-93 -12 -131 11 -151 28 -23 43 17 43 118 0 50 3 106 6 123 l7 32 22 -21 c27
-26 60 -23 60 5 0 13 -14 26 -42 39 -59 29 -57 51 7 66 28 7 53 16 56 21 8 14
-37 27 -73 22 -37 -6 -41 5 -24 63 10 35 6 46 -26 63 -37 19 -56 14 -48 -11z"/>
</g>
</svg>
