<?xml version="1.0" standalone="no"?>
<!DOCTYPE svg PUBLIC "-//W3C//DTD SVG 20010904//EN"
 "http://www.w3.org/TR/2001/REC-SVG-20010904/DTD/svg10.dtd">
<svg version="1.0" xmlns="http://www.w3.org/2000/svg"
 width="96.000000pt" height="68.000000pt" viewBox="0 0 96.000000 68.000000"
 preserveAspectRatio="xMidYMid meet">
<metadata>
Created by potrace 1.16, written by Peter Selinger 2001-2019
</metadata>
<g transform="translate(0.000000,68.000000) scale(0.100000,-0.100000)"
fill="#000000" stroke="none">
<path d="M610 295 c-63 -7 -130 -10 -149 -7 -31 5 -33 4 -22 -16 7 -13 9 -43
6 -74 -7 -59 7 -95 25 -68 8 12 16 95 11 123 0 4 0 7 2 8 19 4 259 23 267 21
5 -2 10 -30 10 -63 0 -65 -12 -79 -51 -59 -20 11 -20 10 5 -23 15 -19 34 -34
43 -33 29 5 53 46 53 93 0 24 5 54 11 65 9 18 8 24 -7 35 -21 15 -48 15 -204
-2z"/>
</g>
</svg>
