<?xml version="1.0" standalone="no"?>
<!DOCTYPE svg PUBLIC "-//W3C//DTD SVG 20010904//EN"
 "http://www.w3.org/TR/2001/REC-SVG-20010904/DTD/svg10.dtd">
<svg version="1.0" xmlns="http://www.w3.org/2000/svg"
 width="90.000000pt" height="92.000000pt" viewBox="0 0 90.000000 92.000000"
 preserveAspectRatio="xMidYMid meet">
<metadata>
Created by potrace 1.16, written by Peter Selinger 2001-2019
</metadata>
<g transform="translate(0.000000,92.000000) scale(0.100000,-0.100000)"
fill="#000000" stroke="none">
<path d="M400 889 c0 -7 9 -26 20 -44 l19 -31 -135 -21 c-136 -21 -158 -28
-137 -41 23 -14 34 -65 27 -126 -16 -161 -75 -320 -159 -430 -20 -26 -34 -50
-31 -53 3 -3 30 19 62 48 83 79 138 201 165 364 6 42 17 78 23 80 6 2 31 6 55
8 l44 5 -7 -71 c-3 -42 -2 -78 4 -87 18 -27 30 9 30 90 l0 76 32 9 c47 15 50
39 4 33 -32 -3 -36 -1 -36 18 0 14 -8 24 -21 27 -19 5 -20 3 -15 -27 6 -32 5
-34 -39 -46 -25 -7 -48 -10 -52 -6 -4 3 -2 23 3 43 l9 38 90 17 c50 9 146 22
215 28 69 7 129 16 134 20 5 5 -6 16 -27 26 -33 16 -42 16 -111 2 l-76 -15 0
23 c0 16 -10 28 -30 39 -34 18 -60 19 -60 4z"/>
<path d="M578 751 c3 -25 0 -31 -19 -35 -13 -3 -36 -7 -51 -11 -48 -10 -32
-27 22 -23 44 3 50 1 50 -17 1 -46 11 -149 15 -153 15 -16 25 20 25 93 l0 84
38 6 c78 13 88 41 12 38 -43 -2 -49 0 -52 20 -2 13 -11 23 -24 25 -18 3 -20
-1 -16 -27z"/>
<path d="M659 666 c-2 -3 -2 -33 1 -68 5 -63 5 -63 41 -72 47 -12 91 -1 87 22
-3 13 -13 16 -52 13 l-49 -3 8 48 c5 34 3 49 -7 55 -15 10 -23 11 -29 5z"/>
<path d="M510 608 c-13 -47 -19 -53 -44 -56 -27 -3 -28 -2 -24 33 3 28 0 39
-14 46 -14 7 -20 6 -24 -5 -6 -16 2 -91 11 -107 11 -17 85 -8 85 12 0 4 13 29
30 55 22 36 27 51 19 61 -18 21 -23 16 -39 -39z"/>
<path d="M264 558 c-6 -29 -15 -62 -19 -73 -19 -45 22 5 45 55 20 44 22 53 10
61 -23 14 -25 12 -36 -43z"/>
<path d="M497 499 c-15 -12 -58 -34 -95 -50 l-67 -30 60 3 c54 3 60 1 63 -18
3 -18 -4 -22 -44 -28 -26 -3 -62 -6 -81 -6 -23 0 -33 -4 -31 -12 3 -9 32 -14
86 -16 l82 -3 0 -27 c0 -28 -1 -28 -97 -40 -54 -7 -115 -12 -135 -12 -50 0
-57 -17 -14 -35 30 -13 43 -13 98 -1 35 8 83 17 106 20 l44 7 -7 -53 c-11 -90
-11 -90 -60 -83 l-43 7 48 -51 c26 -28 53 -51 59 -51 20 0 41 67 48 150 l6 79
73 6 c41 4 97 5 126 1 31 -4 59 -2 68 4 13 9 11 14 -10 31 -21 18 -33 20 -82
15 -32 -3 -85 -9 -118 -12 l-60 -7 0 31 c0 32 4 35 93 47 53 8 64 17 41 36
-12 10 -29 10 -75 3 -47 -8 -59 -7 -59 3 0 8 -7 16 -15 19 -28 11 -15 22 35
29 27 4 52 11 55 15 6 10 -42 50 -59 50 -6 0 -24 -10 -39 -21z"/>
</g>
</svg>
