<?xml version="1.0" standalone="no"?>
<!DOCTYPE svg PUBLIC "-//W3C//DTD SVG 20010904//EN"
 "http://www.w3.org/TR/2001/REC-SVG-20010904/DTD/svg10.dtd">
<svg version="1.0" xmlns="http://www.w3.org/2000/svg"
 width="96.000000pt" height="68.000000pt" viewBox="0 0 96.000000 68.000000"
 preserveAspectRatio="xMidYMid meet">
<metadata>
Created by potrace 1.16, written by Peter Selinger 2001-2019
</metadata>
<g transform="translate(0.000000,68.000000) scale(0.100000,-0.100000)"
fill="#000000" stroke="none">
<path d="M485 313 c-64 -28 -73 -33 -42 -29 44 6 67 -1 67 -19 0 -8 -25 -15
-72 -21 l-73 -9 73 -3 c68 -3 72 -4 72 -27 0 -26 5 -24 -174 -41 -55 -5 -66
-8 -52 -16 15 -8 154 -5 211 5 13 2 19 -37 10 -70 -5 -23 -10 -25 -42 -20
l-36 6 33 -34 c59 -61 89 -42 97 59 5 62 7 64 36 70 16 3 73 6 126 6 89 1 94
2 76 16 -17 13 -38 15 -127 9 -103 -6 -108 -6 -108 13 0 23 18 32 63 33 18 0
41 4 52 9 19 7 19 8 2 15 -10 4 -38 5 -63 1 -36 -4 -48 -2 -64 14 -19 19 -18
19 26 26 43 6 44 7 28 25 -21 24 -23 24 -119 -18z"/>
</g>
</svg>
