<?xml version="1.0" standalone="no"?>
<!DOCTYPE svg PUBLIC "-//W3C//DTD SVG 20010904//EN"
 "http://www.w3.org/TR/2001/REC-SVG-20010904/DTD/svg10.dtd">
<svg version="1.0" xmlns="http://www.w3.org/2000/svg"
 width="90.000000pt" height="92.000000pt" viewBox="0 0 90.000000 92.000000"
 preserveAspectRatio="xMidYMid meet">
<metadata>
Created by potrace 1.16, written by Peter Selinger 2001-2019
</metadata>
<g transform="translate(0.000000,92.000000) scale(0.100000,-0.100000)"
fill="#000000" stroke="none">
<path d="M485 843 c-3 -21 -17 -61 -30 -90 -35 -77 -130 -213 -150 -213 -6 0
-1 146 7 194 2 10 -8 26 -22 37 -24 19 -27 19 -74 3 -38 -13 -55 -14 -84 -6
-43 14 -54 8 -43 -21 17 -44 23 -194 12 -312 -12 -131 -30 -204 -67 -277 -18
-36 -20 -46 -9 -41 37 14 90 121 110 221 5 26 10 31 20 22 10 -8 24 2 60 42
l47 53 -7 -123 c-3 -68 -9 -131 -12 -139 -6 -15 -28 -14 -68 3 -13 5 -2 -13
29 -49 47 -55 50 -57 67 -41 34 30 41 86 33 254 -6 148 -6 157 12 164 27 10
50 -23 57 -83 11 -92 8 -90 144 -69 65 10 128 16 139 13 26 -6 31 0 69 83 l29
63 -25 25 -25 25 -90 -16 c-49 -8 -129 -18 -177 -22 l-88 -6 59 60 c32 32 73
89 92 126 19 37 38 67 42 67 4 0 46 -47 93 -105 48 -57 96 -107 107 -111 30
-9 128 10 128 25 0 5 -21 16 -47 26 -27 9 -67 28 -90 41 -53 31 -180 147 -176
161 5 13 -35 53 -53 53 -6 0 -15 -17 -19 -37z m-235 -160 c0 -32 3 -67 6 -79
5 -19 3 -20 -50 -10 -54 10 -56 11 -56 42 0 83 12 100 73 103 26 1 27 0 27
-56z m-58 -128 c16 -14 38 -25 47 -25 13 0 18 -8 19 -31 1 -26 -6 -35 -46 -60
-25 -16 -51 -29 -56 -29 -7 0 -10 30 -8 85 2 47 6 85 9 85 3 0 18 -11 35 -25z
m477 -52 c-1 -55 -11 -78 -34 -79 -11 -1 -37 -5 -59 -9 l-38 -8 3 59 4 59 45
6 c84 11 80 12 79 -28z m-165 -5 c3 -13 6 -39 6 -60 0 -35 -2 -37 -41 -43 -22
-4 -44 -3 -49 1 -4 5 -10 32 -12 61 -5 57 -10 53 73 61 10 1 19 -8 23 -20z"/>
<path d="M593 480 c-24 -45 -23 -46 15 -25 54 29 57 32 43 49 -21 25 -34 19
-58 -24z"/>
<path d="M440 460 c22 -42 40 -45 40 -6 0 15 -9 27 -25 34 -37 17 -38 16 -15
-28z"/>
<path d="M518 641 c-62 -16 -71 -25 -35 -35 29 -8 139 14 134 27 -6 20 -43 23
-99 8z"/>
<path d="M560 329 c-36 -10 -85 -18 -110 -18 l-46 -1 4 -107 c4 -113 16 -160
33 -130 9 16 24 20 121 32 45 6 48 5 63 -24 8 -17 22 -31 31 -31 28 0 41 59
39 169 -2 98 -4 105 -26 117 -29 16 -27 16 -109 -7z m82 -60 c5 -30 4 -31 -25
-25 -16 3 -46 2 -66 -3 -20 -5 -51 -12 -68 -15 -31 -5 -33 -4 -33 24 0 26 4
30 43 38 23 6 65 10 93 11 50 1 52 0 56 -30z m-2 -88 c0 -35 -2 -38 -27 -38
-16 0 -58 -4 -95 -8 l-68 -8 0 37 c0 36 0 36 43 37 23 0 62 4 87 8 25 5 48 9
53 10 4 0 7 -16 7 -38z"/>
</g>
</svg>
