<?xml version="1.0" standalone="no"?>
<!DOCTYPE svg PUBLIC "-//W3C//DTD SVG 20010904//EN"
 "http://www.w3.org/TR/2001/REC-SVG-20010904/DTD/svg10.dtd">
<svg version="1.0" xmlns="http://www.w3.org/2000/svg"
 width="96.000000pt" height="68.000000pt" viewBox="0 0 96.000000 68.000000"
 preserveAspectRatio="xMidYMid meet">
<metadata>
Created by potrace 1.16, written by Peter Selinger 2001-2019
</metadata>
<g transform="translate(0.000000,68.000000) scale(0.100000,-0.100000)"
fill="#000000" stroke="none">
<path d="M539 206 c-30 -7 -68 -11 -83 -9 -25 3 -27 1 -21 -18 4 -13 7 -48 6
-78 -1 -66 12 -95 32 -70 8 10 35 18 75 21 58 6 63 5 83 -20 l21 -27 19 24
c26 31 28 175 3 185 -23 9 -71 6 -135 -8z m99 -36 c3 -25 1 -25 -78 -28 -74
-2 -80 -1 -80 17 0 16 9 21 48 26 26 3 54 8 62 10 31 6 45 -1 48 -25z m6 -57
c10 -25 -2 -31 -86 -38 l-78 -7 0 25 c0 23 5 26 43 30 98 9 115 7 121 -10z"/>
</g>
</svg>
