<?xml version="1.0" standalone="no"?>
<!DOCTYPE svg PUBLIC "-//W3C//DTD SVG 20010904//EN"
 "http://www.w3.org/TR/2001/REC-SVG-20010904/DTD/svg10.dtd">
<svg version="1.0" xmlns="http://www.w3.org/2000/svg"
 width="96.000000pt" height="68.000000pt" viewBox="0 0 96.000000 68.000000"
 preserveAspectRatio="xMidYMid meet">
<metadata>
Created by potrace 1.16, written by Peter Selinger 2001-2019
</metadata>
<g transform="translate(0.000000,68.000000) scale(0.100000,-0.100000)"
fill="#000000" stroke="none">
<path d="M405 430 c-8 -37 -69 -137 -108 -177 -41 -44 -26 -42 36 4 l50 37 -7
-75 c-4 -41 -8 -87 -8 -102 -1 -30 17 -56 29 -43 12 11 20 215 9 233 -6 11 3
30 27 66 37 53 37 70 -3 80 -14 4 -20 -2 -25 -23z"/>
</g>
</svg>
