<?xml version="1.0" standalone="no"?>
<!DOCTYPE svg PUBLIC "-//W3C//DTD SVG 20010904//EN"
 "http://www.w3.org/TR/2001/REC-SVG-20010904/DTD/svg10.dtd">
<svg version="1.0" xmlns="http://www.w3.org/2000/svg"
 width="96.000000pt" height="68.000000pt" viewBox="0 0 96.000000 68.000000"
 preserveAspectRatio="xMidYMid meet">
<metadata>
Created by potrace 1.16, written by Peter Selinger 2001-2019
</metadata>
<g transform="translate(0.000000,68.000000) scale(0.100000,-0.100000)"
fill="#000000" stroke="none">
<path d="M160 533 c0 -5 15 -23 33 -41 32 -31 70 -42 82 -22 9 14 -12 48 -32
54 -47 13 -83 17 -83 9z"/>
<path d="M170 370 l-55 -19 58 0 57 -1 -19 -38 -19 -37 29 -33 c16 -18 29 -43
29 -57 0 -24 -2 -25 -75 -25 -74 0 -86 -5 -63 -28 8 -8 36 -10 93 -6 76 6 92
4 247 -40 91 -25 177 -46 191 -46 34 0 187 48 187 59 0 4 -73 11 -162 14 -138
5 -264 20 -365 42 -18 4 -23 12 -23 38 0 24 -8 39 -32 59 l-33 27 45 46 c37
38 42 47 30 55 -21 14 -57 11 -120 -10z"/>
</g>
</svg>
