<?xml version="1.0" standalone="no"?>
<!DOCTYPE svg PUBLIC "-//W3C//DTD SVG 20010904//EN"
 "http://www.w3.org/TR/2001/REC-SVG-20010904/DTD/svg10.dtd">
<svg version="1.0" xmlns="http://www.w3.org/2000/svg"
 width="96.000000pt" height="68.000000pt" viewBox="0 0 96.000000 68.000000"
 preserveAspectRatio="xMidYMid meet">
<metadata>
Created by potrace 1.16, written by Peter Selinger 2001-2019
</metadata>
<g transform="translate(0.000000,68.000000) scale(0.100000,-0.100000)"
fill="#000000" stroke="none">
<path d="M467 217 c4 -30 2 -35 -18 -40 -13 -4 -41 -7 -61 -7 -21 0 -38 -4
-38 -10 0 -6 27 -10 60 -10 l60 0 0 -34 c0 -33 -1 -33 -52 -40 -29 -3 -78 -6
-108 -7 -30 -1 -66 -4 -80 -8 l-25 -7 23 -12 c17 -10 46 -10 120 -3 53 6 181
13 285 17 103 4 187 10 187 15 0 15 -64 28 -121 24 -32 -3 -86 -7 -119 -10
l-60 -5 0 34 c0 38 0 37 103 51 88 12 48 39 -43 29 l-56 -6 1 28 c0 25 -4 29
-32 32 -31 3 -32 2 -26 -31z"/>
</g>
</svg>
