<?xml version="1.0" standalone="no"?>
<!DOCTYPE svg PUBLIC "-//W3C//DTD SVG 20010904//EN"
 "http://www.w3.org/TR/2001/REC-SVG-20010904/DTD/svg10.dtd">
<svg version="1.0" xmlns="http://www.w3.org/2000/svg"
 width="96.000000pt" height="68.000000pt" viewBox="0 0 96.000000 68.000000"
 preserveAspectRatio="xMidYMid meet">
<metadata>
Created by potrace 1.16, written by Peter Selinger 2001-2019
</metadata>
<g transform="translate(0.000000,68.000000) scale(0.100000,-0.100000)"
fill="#000000" stroke="none">
<path d="M393 602 c-15 -33 -86 -107 -125 -130 -34 -20 -37 -37 -5 -27 12 4
30 7 39 8 9 1 15 3 13 6 -12 12 86 59 133 63 l52 5 -26 -36 c-39 -52 -53 -61
-98 -62 -23 0 -50 -4 -60 -8 -41 -16 17 -18 134 -5 63 7 118 13 123 13 4 1 7
-12 7 -29 0 -16 -3 -30 -7 -30 -69 -3 -376 -30 -380 -34 -14 -14 62 -18 151
-8 56 7 127 12 159 12 50 0 57 -2 57 -20 0 -23 -8 -25 -159 -41 -84 -9 -109
-14 -96 -22 11 -6 62 -7 129 -3 152 10 175 14 169 34 -9 36 18 52 90 53 37 1
70 5 72 9 7 11 -51 30 -91 30 -32 0 -33 2 -28 29 5 23 2 32 -14 40 -23 12 -75
15 -86 4 -9 -10 -46 -11 -46 -2 0 4 21 25 48 45 26 21 51 41 56 46 5 4 3 14
-5 24 -14 17 -50 16 -134 -5 -38 -9 -39 -8 -17 6 27 19 28 31 5 49 -28 21 -47
16 -60 -14z"/>
<path d="M690 208 c72 -70 110 -85 110 -44 0 30 -47 61 -105 71 l-40 7 35 -34z"/>
<path d="M420 210 c13 -25 62 -58 78 -53 34 12 -3 57 -56 66 -30 6 -32 5 -22
-13z"/>
<path d="M290 203 c0 -5 11 -28 24 -53 15 -30 38 -55 71 -75 44 -27 57 -30
154 -33 112 -4 181 13 181 43 0 8 -27 28 -61 45 -43 21 -59 25 -55 15 3 -8 9
-22 12 -30 16 -38 -145 -46 -219 -11 -24 12 -47 35 -63 62 -23 39 -44 57 -44
37z"/>
<path d="M183 172 c-27 -33 -39 -80 -24 -95 23 -23 76 58 64 101 -7 28 -13 27
-40 -6z"/>
</g>
</svg>
