<?xml version="1.0" standalone="no"?>
<!DOCTYPE svg PUBLIC "-//W3C//DTD SVG 20010904//EN"
 "http://www.w3.org/TR/2001/REC-SVG-20010904/DTD/svg10.dtd">
<svg version="1.0" xmlns="http://www.w3.org/2000/svg"
 width="96.000000pt" height="68.000000pt" viewBox="0 0 96.000000 68.000000"
 preserveAspectRatio="xMidYMid meet">
<metadata>
Created by potrace 1.16, written by Peter Selinger 2001-2019
</metadata>
<g transform="translate(0.000000,68.000000) scale(0.100000,-0.100000)"
fill="#000000" stroke="none">
<path d="M465 445 c-44 -8 -102 -17 -130 -21 -42 -5 -46 -8 -28 -15 13 -5 73
-2 145 6 68 8 125 15 127 15 8 0 -7 -79 -21 -106 -14 -31 -1 -28 -201 -49 -43
-4 -65 -10 -61 -17 5 -7 50 -8 138 -4 148 8 177 13 170 29 -2 7 9 44 25 82
l30 70 -22 12 c-28 15 -70 15 -172 -2z"/>
</g>
</svg>
