<?xml version="1.0" standalone="no"?>
<!DOCTYPE svg PUBLIC "-//W3C//DTD SVG 20010904//EN"
 "http://www.w3.org/TR/2001/REC-SVG-20010904/DTD/svg10.dtd">
<svg version="1.0" xmlns="http://www.w3.org/2000/svg"
 width="96.000000pt" height="68.000000pt" viewBox="0 0 96.000000 68.000000"
 preserveAspectRatio="xMidYMid meet">
<metadata>
Created by potrace 1.16, written by Peter Selinger 2001-2019
</metadata>
<g transform="translate(0.000000,68.000000) scale(0.100000,-0.100000)"
fill="#000000" stroke="none">
<path d="M296 578 c-27 -94 -69 -160 -149 -238 -70 -67 -29 -59 53 11 33 29
46 35 52 25 8 -14 -6 -210 -18 -239 -8 -22 24 -73 38 -59 5 5 13 74 17 153 7
119 6 148 -6 166 -14 21 -12 27 31 90 l46 68 -21 18 c-25 20 -38 22 -43 5z"/>
</g>
</svg>
