<?xml version="1.0" standalone="no"?>
<!DOCTYPE svg PUBLIC "-//W3C//DTD SVG 20010904//EN"
 "http://www.w3.org/TR/2001/REC-SVG-20010904/DTD/svg10.dtd">
<svg version="1.0" xmlns="http://www.w3.org/2000/svg"
 width="96.000000pt" height="68.000000pt" viewBox="0 0 96.000000 68.000000"
 preserveAspectRatio="xMidYMid meet">
<metadata>
Created by potrace 1.16, written by Peter Selinger 2001-2019
</metadata>
<g transform="translate(0.000000,68.000000) scale(0.100000,-0.100000)"
fill="#000000" stroke="none">
<path d="M340 150 c0 -5 7 -10 16 -10 8 0 12 5 9 10 -3 6 -10 10 -16 10 -5 0
-9 -4 -9 -10z"/>
<path d="M343 85 c-2 -42 9 -66 21 -46 4 5 2 12 -3 15 -5 4 -7 22 -4 41 3 19
2 35 -3 35 -5 0 -10 -20 -11 -45z"/>
<path d="M600 66 c0 -10 -14 -23 -31 -30 -20 -9 -27 -15 -18 -18 8 -3 -4 -5
-26 -4 -22 1 -45 5 -50 8 -6 4 -17 3 -25 -3 -21 -13 -43 -11 -34 3 5 8 2 9 -9
5 -10 -3 -17 -2 -17 4 0 6 -5 7 -12 3 -7 -5 -5 -11 7 -21 26 -18 172 -17 219
2 20 8 36 17 36 19 0 1 -9 13 -20 26 -16 19 -20 20 -20 6z"/>
</g>
</svg>
