<?xml version="1.0" standalone="no"?>
<!DOCTYPE svg PUBLIC "-//W3C//DTD SVG 20010904//EN"
 "http://www.w3.org/TR/2001/REC-SVG-20010904/DTD/svg10.dtd">
<svg version="1.0" xmlns="http://www.w3.org/2000/svg"
 width="90.000000pt" height="92.000000pt" viewBox="0 0 90.000000 92.000000"
 preserveAspectRatio="xMidYMid meet">
<metadata>
Created by potrace 1.16, written by Peter Selinger 2001-2019
</metadata>
<g transform="translate(0.000000,92.000000) scale(0.100000,-0.100000)"
fill="#000000" stroke="none">
<path d="M207 803 c-4 -3 -7 -13 -7 -22 0 -34 -61 -143 -104 -186 -51 -50 -51
-52 -31 -79 13 -17 15 -17 74 3 34 12 63 21 66 21 9 0 -96 -130 -116 -144 -12
-8 -17 -19 -13 -30 8 -21 41 -39 49 -27 4 8 155 71 169 71 2 0 6 -9 9 -21 7
-28 31 -19 35 13 2 18 -6 33 -28 52 -38 31 -55 34 -40 7 5 -11 10 -22 10 -25
0 -6 -97 -36 -117 -36 -21 0 -5 23 86 127 45 51 81 99 81 106 0 14 -37 53 -44
46 -2 -2 -14 -27 -26 -56 -22 -52 -22 -52 -76 -59 -30 -3 -57 -4 -59 -2 -3 2
29 45 70 96 41 50 75 98 75 106 0 8 -10 22 -22 30 -25 18 -32 19 -41 9z"/>
<path d="M618 764 c-7 -7 -131 -40 -201 -54 -50 -10 -56 -14 -46 -27 9 -10 23
-13 41 -9 25 5 28 3 28 -20 0 -51 -42 -230 -67 -289 -15 -33 -42 -82 -60 -108
-19 -27 -32 -52 -29 -55 9 -8 83 65 109 107 11 19 30 60 42 92 13 36 25 55 31
51 6 -4 32 -39 57 -78 l45 -72 -31 -29 c-49 -45 -92 -73 -165 -104 -66 -28
-66 -28 -29 -29 47 0 144 39 206 84 l48 34 16 -27 c8 -14 32 -45 52 -69 33
-38 41 -42 81 -42 100 0 174 38 107 55 -44 10 -165 72 -196 100 l-28 25 37 77
c20 43 45 90 56 105 10 14 18 33 18 41 0 19 -55 39 -87 31 -23 -6 -25 -4 -18
17 4 13 20 51 36 83 23 46 26 62 17 73 -15 18 -64 44 -70 37z m-16 -57 c1 -4
-5 -46 -12 -92 -12 -77 -15 -85 -35 -85 -13 0 -36 -3 -53 -6 l-30 -6 18 76
c15 68 16 77 2 88 -13 11 -7 15 39 24 58 13 70 13 71 1z m44 -232 c-11 -56
-45 -127 -58 -123 -7 3 -33 33 -59 69 l-46 64 71 11 c39 6 77 12 85 13 10 1
12 -8 7 -34z"/>
<path d="M249 328 c26 -43 49 -57 60 -39 14 23 1 49 -31 60 -47 17 -52 14 -29
-21z"/>
<path d="M140 311 c0 -22 45 -81 60 -78 22 4 23 31 3 55 -21 23 -63 39 -63 23z"/>
<path d="M10 267 c0 -21 64 -112 82 -115 9 -2 19 5 22 16 11 33 -11 70 -53 92
-47 24 -51 24 -51 7z"/>
</g>
</svg>
