<?xml version="1.0" standalone="no"?>
<!DOCTYPE svg PUBLIC "-//W3C//DTD SVG 20010904//EN"
 "http://www.w3.org/TR/2001/REC-SVG-20010904/DTD/svg10.dtd">
<svg version="1.0" xmlns="http://www.w3.org/2000/svg"
 width="96.000000pt" height="68.000000pt" viewBox="0 0 96.000000 68.000000"
 preserveAspectRatio="xMidYMid meet">
<metadata>
Created by potrace 1.16, written by Peter Selinger 2001-2019
</metadata>
<g transform="translate(0.000000,68.000000) scale(0.100000,-0.100000)"
fill="#000000" stroke="none">
<path d="M280 211 c14 -27 30 -35 42 -23 15 15 -8 42 -34 42 -15 0 -17 -3 -8
-19z"/>
<path d="M206 175 c17 -27 44 -34 44 -12 0 19 -21 37 -42 37 -17 0 -17 -1 -2
-25z"/>
<path d="M107 184 c-7 -7 30 -76 46 -86 34 -21 29 31 -6 70 -21 23 -29 26 -40
16z"/>
</g>
</svg>
