<?xml version="1.0" standalone="no"?>
<!DOCTYPE svg PUBLIC "-//W3C//DTD SVG 20010904//EN"
 "http://www.w3.org/TR/2001/REC-SVG-20010904/DTD/svg10.dtd">
<svg version="1.0" xmlns="http://www.w3.org/2000/svg"
 width="90.000000pt" height="92.000000pt" viewBox="0 0 90.000000 92.000000"
 preserveAspectRatio="xMidYMid meet">
<metadata>
Created by potrace 1.16, written by Peter Selinger 2001-2019
</metadata>
<g transform="translate(0.000000,92.000000) scale(0.100000,-0.100000)"
fill="#000000" stroke="none">
<path d="M631 706 c-1 -135 -8 -156 -60 -156 -20 0 -21 -2 -11 -15 7 -8 21
-15 31 -15 25 0 24 -22 -2 -130 -12 -51 -38 -118 -64 -167 -46 -85 -47 -101
-3 -60 38 35 74 104 98 187 32 110 31 108 40 85 5 -11 6 -68 3 -126 -7 -118
-2 -150 27 -179 39 -39 182 -19 192 27 2 10 -4 36 -14 58 -10 22 -18 48 -18
58 0 10 -4 15 -10 12 -5 -3 -10 -21 -10 -40 0 -72 -34 -103 -95 -86 -29 7 -30
9 -33 82 -2 41 2 100 8 132 13 66 4 87 -37 87 -23 0 -24 3 -18 33 4 17 8 32 9
32 0 1 28 7 60 15 33 8 61 20 63 27 6 18 -42 27 -78 14 -18 -6 -34 -9 -37 -6
-3 3 0 51 7 107 12 95 11 103 -5 115 -38 28 -43 18 -43 -91z"/>
<path d="M370 785 c0 -3 12 -28 26 -56 14 -28 24 -52 22 -54 -2 -2 -33 -9 -69
-17 -74 -15 -86 -27 -48 -45 22 -11 33 -10 60 1 31 12 122 36 192 51 25 5 27
8 16 21 -13 16 -61 15 -103 -2 -15 -6 -17 -4 -11 14 3 12 4 30 1 40 -9 26 -86
68 -86 47z"/>
<path d="M192 744 c-18 -8 -60 -17 -92 -21 -61 -6 -68 -11 -49 -30 6 -6 17
-44 25 -83 15 -83 18 -87 38 -71 26 22 36 -21 36 -152 l0 -125 -28 -10 -29
-10 5 105 c5 109 1 122 -38 123 -13 0 -14 -19 -11 -121 l3 -122 -26 5 c-22 4
-26 2 -26 -18 0 -13 10 -30 23 -38 21 -14 30 -11 139 45 126 64 154 86 97 76
-19 -3 -42 -8 -51 -12 -16 -6 -18 0 -18 59 0 64 1 66 26 66 28 0 64 16 64 29
0 15 -29 21 -54 11 -29 -11 -33 -1 -27 67 3 39 5 43 31 43 23 0 27 3 23 24 -3
14 6 49 21 82 14 31 26 58 26 60 0 5 -58 34 -67 33 -4 0 -23 -7 -41 -15z m23
-86 c-9 -67 -9 -66 -51 -74 -44 -8 -54 4 -54 63 0 38 3 43 28 49 15 3 32 7 37
9 41 14 47 6 40 -47z"/>
<path d="M730 724 c0 -22 53 -85 68 -82 21 4 28 51 9 66 -18 15 -77 27 -77 16z"/>
<path d="M435 583 c-16 -9 -51 -17 -78 -17 -38 -1 -46 -4 -41 -16 4 -8 11 -33
17 -55 19 -77 29 -96 42 -85 9 8 14 6 19 -6 8 -21 9 -180 2 -193 -3 -5 -16 -7
-28 -3 -22 5 -22 5 4 -38 32 -55 43 -59 61 -23 14 30 18 248 4 270 -5 8 3 13
24 15 27 2 32 8 35 31 1 16 12 46 23 67 15 29 17 41 8 48 -23 20 -62 22 -92 5z
m25 -65 c0 -43 -9 -55 -44 -64 -33 -8 -46 6 -46 49 0 29 23 45 68 46 18 1 22
-4 22 -31z"/>
<path d="M320 340 c0 -23 -34 -96 -58 -122 -23 -27 2 -21 37 7 37 32 75 91 66
105 -3 5 -15 15 -26 20 -16 9 -19 7 -19 -10z"/>
<path d="M490 321 c24 -48 34 -55 50 -36 17 20 3 54 -27 66 -41 15 -44 11 -23
-30z"/>
</g>
</svg>
