<?xml version="1.0" standalone="no"?>
<!DOCTYPE svg PUBLIC "-//W3C//DTD SVG 20010904//EN"
 "http://www.w3.org/TR/2001/REC-SVG-20010904/DTD/svg10.dtd">
<svg version="1.0" xmlns="http://www.w3.org/2000/svg"
 width="96.000000pt" height="68.000000pt" viewBox="0 0 96.000000 68.000000"
 preserveAspectRatio="xMidYMid meet">
<metadata>
Created by potrace 1.16, written by Peter Selinger 2001-2019
</metadata>
<g transform="translate(0.000000,68.000000) scale(0.100000,-0.100000)"
fill="#000000" stroke="none">
<path d="M440 345 c-8 -20 -17 -25 -47 -26 -163 -6 -268 -15 -265 -24 5 -18
57 -25 117 -16 33 5 90 13 128 17 l67 6 0 -135 c0 -134 9 -172 30 -125 6 13
14 77 18 143 l7 120 160 3 c162 3 203 12 149 33 -21 8 -63 8 -159 0 -164 -14
-155 -15 -155 9 0 30 -38 26 -50 -5z"/>
</g>
</svg>
