<?xml version="1.0" standalone="no"?>
<!DOCTYPE svg PUBLIC "-//W3C//DTD SVG 20010904//EN"
 "http://www.w3.org/TR/2001/REC-SVG-20010904/DTD/svg10.dtd">
<svg version="1.0" xmlns="http://www.w3.org/2000/svg"
 width="90.000000pt" height="92.000000pt" viewBox="0 0 90.000000 92.000000"
 preserveAspectRatio="xMidYMid meet">
<metadata>
Created by potrace 1.16, written by Peter Selinger 2001-2019
</metadata>
<g transform="translate(0.000000,92.000000) scale(0.100000,-0.100000)"
fill="#000000" stroke="none">
<path d="M340 871 c0 -5 6 -24 14 -42 8 -19 26 -101 41 -184 15 -82 32 -161
37 -174 4 -13 6 -26 4 -29 -8 -7 -207 -32 -265 -32 -53 0 -54 0 -36 -20 10
-11 29 -20 42 -20 17 0 23 -6 23 -23 0 -27 -80 -151 -119 -184 -19 -17 -22
-23 -10 -23 25 0 94 54 132 104 l34 45 49 -50 c46 -47 76 -60 89 -39 3 5 -1
23 -9 39 -11 21 -29 34 -66 46 -52 17 -55 21 -41 44 6 9 6 22 1 32 -12 21 6
27 118 35 71 6 82 5 82 -9 0 -9 12 -43 26 -76 31 -72 32 -71 -65 -139 -89 -61
-93 -66 -51 -58 44 8 107 41 140 72 l26 24 70 -68 c70 -69 146 -111 179 -98
13 5 15 16 9 66 -4 33 -10 75 -13 93 -7 32 -7 31 -20 -20 -10 -39 -18 -53 -30
-53 -21 0 -84 45 -125 88 l-29 31 43 43 c31 31 40 46 33 57 -14 22 -45 38 -49
26 -9 -24 -44 -75 -52 -75 -4 0 -20 24 -34 54 l-27 54 62 7 c76 8 97 14 97 26
0 23 -46 30 -108 16 -34 -8 -65 -11 -67 -7 -17 28 -47 194 -52 290 -4 88 -9
118 -21 128 -18 14 -62 16 -62 3z"/>
<path d="M549 838 c-14 -53 -41 -106 -68 -135 -25 -26 -26 -33 -8 -57 13 -17
15 -17 45 -2 66 34 68 18 6 -52 -44 -50 -45 -54 -29 -71 16 -19 18 -18 80 10
76 34 91 36 105 9 18 -33 40 -25 40 15 0 29 -6 39 -32 55 -43 26 -62 26 -48 1
5 -11 10 -22 10 -24 0 -7 -92 -29 -97 -24 -2 3 20 33 49 67 82 96 80 93 62
118 -21 31 -29 28 -42 -17 -11 -35 -16 -39 -54 -44 -24 -3 -44 -4 -46 -2 -2 2
18 35 44 74 48 72 50 92 15 110 -18 10 -21 7 -32 -31z"/>
<path d="M226 806 c-8 -40 -75 -147 -106 -169 -22 -15 -22 -17 -6 -42 15 -23
18 -24 44 -11 15 7 38 17 50 21 21 6 22 5 14 -12 -6 -10 -29 -38 -51 -62 -41
-44 -41 -45 -22 -64 17 -17 21 -18 42 -4 13 8 45 23 72 32 45 17 48 17 67 0
23 -21 40 -12 40 20 0 24 -41 65 -66 65 -16 0 -17 -9 -4 -30 7 -11 0 -17 -33
-27 -80 -24 -78 -17 32 107 23 25 41 48 41 51 0 4 -9 17 -19 30 -19 23 -20 23
-26 4 -17 -52 -27 -66 -51 -75 -29 -11 -74 -13 -74 -3 0 3 27 39 60 80 33 40
60 77 60 82 0 10 -39 41 -51 41 -4 0 -10 -15 -13 -34z"/>
<path d="M671 468 c26 -50 51 -78 70 -78 14 0 19 7 19 28 0 15 -4 32 -8 38
-11 16 -48 34 -72 34 -18 0 -19 -3 -9 -22z"/>
</g>
</svg>
