<?xml version="1.0" standalone="no"?>
<!DOCTYPE svg PUBLIC "-//W3C//DTD SVG 20010904//EN"
 "http://www.w3.org/TR/2001/REC-SVG-20010904/DTD/svg10.dtd">
<svg version="1.0" xmlns="http://www.w3.org/2000/svg"
 width="96.000000pt" height="68.000000pt" viewBox="0 0 96.000000 68.000000"
 preserveAspectRatio="xMidYMid meet">
<metadata>
Created by potrace 1.16, written by Peter Selinger 2001-2019
</metadata>
<g transform="translate(0.000000,68.000000) scale(0.100000,-0.100000)"
fill="#000000" stroke="none">
<path d="M385 583 c16 -36 74 -258 75 -284 0 -13 -15 -18 -72 -23 -40 -4 -99
-7 -131 -8 -38 0 -56 -5 -54 -12 2 -6 12 -13 23 -14 10 -2 22 -7 27 -11 11
-11 -18 -61 -63 -108 -71 -74 -38 -66 48 13 57 50 54 50 111 -3 27 -26 61 -30
61 -9 0 20 -37 44 -76 52 -29 5 -32 9 -31 40 1 30 4 34 28 34 14 0 53 3 86 6
l61 7 26 -53 c14 -28 26 -55 26 -58 0 -4 -27 -25 -61 -47 -33 -22 -55 -41 -49
-43 16 -6 96 26 110 44 18 20 23 18 66 -22 46 -41 114 -74 155 -74 25 0 29 4
28 28 0 15 -4 45 -8 67 l-8 40 -7 -37 c-5 -20 -14 -39 -21 -42 -18 -6 -87 29
-115 59 l-24 25 32 33 c25 26 29 36 20 45 -19 19 -36 14 -54 -13 -9 -14 -20
-25 -25 -25 -9 0 -49 59 -49 73 0 4 21 7 48 8 26 0 56 4 67 9 19 7 19 8 2 15
-10 4 -44 5 -76 1 l-58 -7 -21 65 c-12 36 -24 102 -28 148 -7 86 -13 98 -53
98 -18 0 -22 -4 -16 -17z"/>
<path d="M555 546 c-14 -29 -34 -61 -45 -71 -36 -32 -26 -49 25 -42 25 4 45 4
45 1 0 -3 -16 -20 -35 -38 -36 -34 -45 -56 -22 -56 6 0 43 8 81 17 54 14 70
15 73 6 3 -7 13 -13 23 -13 24 0 15 35 -13 55 -27 19 -41 19 -33 0 4 -10 -3
-17 -22 -21 -15 -3 -35 -8 -44 -11 -29 -7 -20 9 32 62 49 48 59 74 33 82 -7 3
-18 -7 -25 -21 -12 -28 -66 -50 -83 -34 -6 6 -6 11 0 16 16 11 75 82 75 90 0
4 -9 13 -20 20 -18 11 -22 7 -45 -42z"/>
<path d="M260 525 c-12 -25 -26 -42 -31 -39 -5 3 -9 2 -8 -3 4 -22 -3 -34 -26
-45 -14 -6 -25 -19 -25 -29 0 -20 36 -44 44 -30 6 9 56 22 56 14 0 -3 -16 -20
-36 -40 -51 -49 -34 -60 55 -32 54 16 76 18 84 10 6 -6 15 -11 19 -11 12 0 9
35 -4 48 -17 17 -49 15 -42 -2 6 -14 -23 -26 -66 -26 -22 1 -19 6 37 58 50 47
60 61 52 75 -6 9 -13 17 -17 17 -9 0 -43 -56 -37 -61 2 -3 -14 -3 -37 -1 l-40
4 52 53 c56 57 61 85 16 85 -19 0 -29 -10 -46 -45z"/>
<path d="M670 312 c0 -16 58 -64 69 -58 16 10 13 31 -7 49 -19 17 -62 23 -62
9z"/>
</g>
</svg>
