<?xml version="1.0" standalone="no"?>
<!DOCTYPE svg PUBLIC "-//W3C//DTD SVG 20010904//EN"
 "http://www.w3.org/TR/2001/REC-SVG-20010904/DTD/svg10.dtd">
<svg version="1.0" xmlns="http://www.w3.org/2000/svg"
 width="96.000000pt" height="68.000000pt" viewBox="0 0 96.000000 68.000000"
 preserveAspectRatio="xMidYMid meet">
<metadata>
Created by potrace 1.16, written by Peter Selinger 2001-2019
</metadata>
<g transform="translate(0.000000,68.000000) scale(0.100000,-0.100000)"
fill="#000000" stroke="none">
<path d="M433 423 c-8 -3 -13 -24 -13 -54 0 -42 3 -49 20 -49 18 0 20 7 20 55
0 54 -3 58 -27 48z"/>
<path d="M516 388 c-19 -31 -19 -31 0 -24 10 5 27 11 37 13 21 7 22 29 1 37
-9 3 -17 6 -18 6 -1 0 -10 -14 -20 -32z"/>
<path d="M337 365 c20 -27 53 -34 53 -10 0 16 -30 35 -55 35 -14 0 -14 -3 2
-25z"/>
</g>
</svg>
