<?xml version="1.0" standalone="no"?>
<!DOCTYPE svg PUBLIC "-//W3C//DTD SVG 20010904//EN"
 "http://www.w3.org/TR/2001/REC-SVG-20010904/DTD/svg10.dtd">
<svg version="1.0" xmlns="http://www.w3.org/2000/svg"
 width="96.000000pt" height="68.000000pt" viewBox="0 0 96.000000 68.000000"
 preserveAspectRatio="xMidYMid meet">
<metadata>
Created by potrace 1.16, written by Peter Selinger 2001-2019
</metadata>
<g transform="translate(0.000000,68.000000) scale(0.100000,-0.100000)"
fill="#000000" stroke="none">
<path d="M458 451 l4 -50 -47 -6 c-25 -4 -69 -4 -97 -1 -46 6 -50 5 -43 -11
10 -25 26 -105 21 -110 -2 -2 -45 -7 -95 -10 -87 -6 -110 -14 -75 -27 23 -9
103 -7 165 3 30 5 80 11 112 14 l57 4 0 -106 c0 -179 31 -171 45 12 l7 97 159
0 c134 0 159 2 159 15 0 28 -43 32 -207 20 l-113 -8 0 45 c0 53 8 58 108 58
34 0 62 4 62 9 0 15 -49 22 -112 15 l-60 -7 7 47 7 46 -33 0 -34 0 3 -49z m2
-120 l0 -48 -57 -6 c-32 -3 -59 -4 -61 -2 -2 2 -6 21 -9 44 -6 43 -6 43 67 54
60 10 60 10 60 -42z"/>
</g>
</svg>
