<?xml version="1.0" standalone="no"?>
<!DOCTYPE svg PUBLIC "-//W3C//DTD SVG 20010904//EN"
 "http://www.w3.org/TR/2001/REC-SVG-20010904/DTD/svg10.dtd">
<svg version="1.0" xmlns="http://www.w3.org/2000/svg"
 width="96.000000pt" height="68.000000pt" viewBox="0 0 96.000000 68.000000"
 preserveAspectRatio="xMidYMid meet">
<metadata>
Created by potrace 1.16, written by Peter Selinger 2001-2019
</metadata>
<g transform="translate(0.000000,68.000000) scale(0.100000,-0.100000)"
fill="#000000" stroke="none">
<path d="M342 592 c-6 -20 -36 -68 -67 -105 -30 -37 -51 -67 -46 -67 5 0 32
18 60 40 48 38 54 40 118 40 64 0 242 26 253 36 11 11 -27 24 -55 18 -35 -7
-239 -32 -242 -30 -1 1 9 19 23 40 20 30 23 40 14 52 -22 26 -46 16 -58 -24z"/>
</g>
</svg>
