<?xml version="1.0" standalone="no"?>
<!DOCTYPE svg PUBLIC "-//W3C//DTD SVG 20010904//EN"
 "http://www.w3.org/TR/2001/REC-SVG-20010904/DTD/svg10.dtd">
<svg version="1.0" xmlns="http://www.w3.org/2000/svg"
 width="96.000000pt" height="68.000000pt" viewBox="0 0 96.000000 68.000000"
 preserveAspectRatio="xMidYMid meet">
<metadata>
Created by potrace 1.16, written by Peter Selinger 2001-2019
</metadata>
<g transform="translate(0.000000,68.000000) scale(0.100000,-0.100000)"
fill="#000000" stroke="none">
<path d="M526 543 c-6 -43 -59 -159 -83 -186 -25 -27 -9 -30 23 -4 20 16 47
26 84 30 98 10 190 29 184 38 -8 13 -70 10 -139 -6 -76 -19 -91 -19 -77 -2 6
6 26 40 46 74 31 56 33 64 20 78 -28 27 -51 19 -58 -22z"/>
</g>
</svg>
