<?xml version="1.0" standalone="no"?>
<!DOCTYPE svg PUBLIC "-//W3C//DTD SVG 20010904//EN"
 "http://www.w3.org/TR/2001/REC-SVG-20010904/DTD/svg10.dtd">
<svg version="1.0" xmlns="http://www.w3.org/2000/svg"
 width="96.000000pt" height="68.000000pt" viewBox="0 0 96.000000 68.000000"
 preserveAspectRatio="xMidYMid meet">
<metadata>
Created by potrace 1.16, written by Peter Selinger 2001-2019
</metadata>
<g transform="translate(0.000000,68.000000) scale(0.100000,-0.100000)"
fill="#000000" stroke="none">
<path d="M423 167 c-57 -5 -103 -13 -103 -18 0 -4 26 -9 58 -11 l57 -3 3 -47
3 -48 -88 -1 c-48 -1 -92 -2 -98 -4 -5 -1 -26 -3 -45 -4 -31 -1 -33 -3 -16
-13 13 -7 64 -9 160 -4 78 3 203 6 279 7 77 1 137 5 137 10 0 22 -57 29 -173
23 l-120 -7 6 39 c4 21 7 45 7 52 0 7 13 12 34 12 49 0 96 11 90 21 -6 11 -51
10 -191 -4z"/>
</g>
</svg>
