<?xml version="1.0" standalone="no"?>
<!DOCTYPE svg PUBLIC "-//W3C//DTD SVG 20010904//EN"
 "http://www.w3.org/TR/2001/REC-SVG-20010904/DTD/svg10.dtd">
<svg version="1.0" xmlns="http://www.w3.org/2000/svg"
 width="96.000000pt" height="68.000000pt" viewBox="0 0 96.000000 68.000000"
 preserveAspectRatio="xMidYMid meet">
<metadata>
Created by potrace 1.16, written by Peter Selinger 2001-2019
</metadata>
<g transform="translate(0.000000,68.000000) scale(0.100000,-0.100000)"
fill="#000000" stroke="none">
<path d="M321 521 c-17 -59 -85 -154 -153 -216 -34 -30 -57 -55 -51 -55 14 0
126 75 143 95 7 8 16 15 21 15 19 0 7 -193 -16 -251 -3 -9 3 -26 14 -40 33
-40 42 -14 50 142 5 114 4 149 -7 166 -12 20 -10 26 32 80 25 32 46 63 46 69
0 10 -41 34 -59 34 -4 0 -13 -18 -20 -39z"/>
</g>
</svg>
