<?xml version="1.0" standalone="no"?>
<!DOCTYPE svg PUBLIC "-//W3C//DTD SVG 20010904//EN"
 "http://www.w3.org/TR/2001/REC-SVG-20010904/DTD/svg10.dtd">
<svg version="1.0" xmlns="http://www.w3.org/2000/svg"
 width="96.000000pt" height="68.000000pt" viewBox="0 0 96.000000 68.000000"
 preserveAspectRatio="xMidYMid meet">
<metadata>
Created by potrace 1.16, written by Peter Selinger 2001-2019
</metadata>
<g transform="translate(0.000000,68.000000) scale(0.100000,-0.100000)"
fill="#000000" stroke="none">
<path d="M367 273 c-4 -3 -7 -15 -7 -25 0 -21 -45 -115 -68 -141 -8 -9 -12
-20 -9 -23 7 -8 78 60 94 90 10 18 20 13 140 -62 72 -45 144 -85 161 -88 33
-7 162 13 162 25 0 4 -46 15 -102 24 -83 14 -126 29 -220 74 -65 31 -118 58
-118 60 0 2 6 12 13 24 10 17 9 22 -7 35 -22 16 -30 17 -39 7z"/>
</g>
</svg>
