<?xml version="1.0" standalone="no"?>
<!DOCTYPE svg PUBLIC "-//W3C//DTD SVG 20010904//EN"
 "http://www.w3.org/TR/2001/REC-SVG-20010904/DTD/svg10.dtd">
<svg version="1.0" xmlns="http://www.w3.org/2000/svg"
 width="90.000000pt" height="92.000000pt" viewBox="0 0 90.000000 92.000000"
 preserveAspectRatio="xMidYMid meet">
<metadata>
Created by potrace 1.16, written by Peter Selinger 2001-2019
</metadata>
<g transform="translate(0.000000,92.000000) scale(0.100000,-0.100000)"
fill="#000000" stroke="none">
<path d="M510 792 c0 -83 -64 -244 -135 -336 -20 -27 -35 -50 -32 -52 9 -9 88
58 117 101 28 40 72 129 94 190 6 17 13 9 40 -45 37 -73 97 -170 121 -194 18
-18 149 -23 160 -7 3 5 -20 22 -50 37 -76 39 -147 103 -205 187 -39 54 -47 73
-40 87 12 22 -13 55 -47 65 -21 6 -23 3 -23 -33z"/>
<path d="M166 751 c4 -32 1 -97 -6 -144 -13 -97 -9 -93 -120 -99 l-45 -3 28
-29 c25 -25 33 -28 68 -22 44 7 46 3 24 -54 l-13 -35 52 -47 51 -46 -40 -42
c-22 -23 -61 -55 -87 -72 -55 -36 -56 -45 -1 -28 47 16 114 61 136 92 l16 23
23 -30 c54 -70 67 -81 78 -65 20 30 10 62 -29 102 l-40 39 19 43 c10 23 26 75
35 115 16 66 20 73 46 78 36 7 38 23 4 23 -14 0 -25 4 -25 8 0 9 -44 32 -60
32 -5 0 -10 -12 -12 -27 -3 -24 -8 -29 -43 -33 l-41 -6 32 118 31 119 -26 18
c-56 39 -61 36 -55 -28z m104 -275 c0 -27 -38 -156 -46 -156 -11 0 -61 29 -72
42 -8 10 -7 27 4 65 14 46 19 52 52 61 56 15 62 14 62 -12z"/>
<path d="M528 472 c-100 -28 -59 -51 53 -31 78 14 93 24 54 39 -31 12 -34 12
-107 -8z"/>
<path d="M611 368 c-18 -5 -75 -15 -125 -22 l-91 -12 28 -18 c27 -18 32 -18
112 -2 135 26 130 29 89 -61 -19 -43 -46 -95 -60 -116 -14 -22 -24 -41 -21
-43 10 -10 85 69 116 122 19 33 46 74 59 93 l25 34 -22 19 c-25 20 -57 22
-110 6z"/>
</g>
</svg>
