<?xml version="1.0" standalone="no"?>
<!DOCTYPE svg PUBLIC "-//W3C//DTD SVG 20010904//EN"
 "http://www.w3.org/TR/2001/REC-SVG-20010904/DTD/svg10.dtd">
<svg version="1.0" xmlns="http://www.w3.org/2000/svg"
 width="96.000000pt" height="68.000000pt" viewBox="0 0 96.000000 68.000000"
 preserveAspectRatio="xMidYMid meet">
<metadata>
Created by potrace 1.16, written by Peter Selinger 2001-2019
</metadata>
<g transform="translate(0.000000,68.000000) scale(0.100000,-0.100000)"
fill="#000000" stroke="none">
<path d="M284 573 c-13 -52 -62 -139 -110 -193 -26 -30 -57 -66 -68 -79 l-21
-24 30 18 c17 10 51 38 76 63 41 38 48 42 53 26 7 -22 -9 -218 -19 -234 -12
-19 4 -80 21 -80 23 0 31 36 37 181 6 113 4 139 -9 157 -15 21 -13 26 30 90
41 62 43 68 29 85 -23 25 -42 21 -49 -10z"/>
</g>
</svg>
