<?xml version="1.0" standalone="no"?>
<!DOCTYPE svg PUBLIC "-//W3C//DTD SVG 20010904//EN"
 "http://www.w3.org/TR/2001/REC-SVG-20010904/DTD/svg10.dtd">
<svg version="1.0" xmlns="http://www.w3.org/2000/svg"
 width="96.000000pt" height="68.000000pt" viewBox="0 0 96.000000 68.000000"
 preserveAspectRatio="xMidYMid meet">
<metadata>
Created by potrace 1.16, written by Peter Selinger 2001-2019
</metadata>
<g transform="translate(0.000000,68.000000) scale(0.100000,-0.100000)"
fill="#000000" stroke="none">
<path d="M475 560 c-11 -5 -37 -9 -58 -9 -36 -1 -37 -2 -23 -23 7 -13 17 -36
20 -51 5 -20 11 -27 24 -23 9 3 38 8 64 11 34 5 45 11 41 21 -3 8 2 25 11 39
9 14 14 30 11 35 -7 12 -62 12 -90 0z m35 -39 c0 -29 -14 -41 -50 -41 -18 0
-30 19 -30 45 0 8 14 15 33 18 17 2 35 5 40 5 4 1 7 -11 7 -27z"/>
</g>
</svg>
