<?xml version="1.0" standalone="no"?>
<!DOCTYPE svg PUBLIC "-//W3C//DTD SVG 20010904//EN"
 "http://www.w3.org/TR/2001/REC-SVG-20010904/DTD/svg10.dtd">
<svg version="1.0" xmlns="http://www.w3.org/2000/svg"
 width="96.000000pt" height="68.000000pt" viewBox="0 0 96.000000 68.000000"
 preserveAspectRatio="xMidYMid meet">
<metadata>
Created by potrace 1.16, written by Peter Selinger 2001-2019
</metadata>
<g transform="translate(0.000000,68.000000) scale(0.100000,-0.100000)"
fill="#000000" stroke="none">
<path d="M286 567 c-7 -18 -32 -49 -55 -69 -76 -65 -48 -81 74 -43 l87 26 23
-21 c25 -24 45 -20 45 9 0 23 -38 57 -73 65 -25 6 -27 5 -18 -12 9 -17 5 -21
-28 -31 -59 -17 -67 -14 -40 17 49 53 53 61 39 77 -20 24 -39 18 -54 -18z"/>
<path d="M500 541 c0 -49 4 -65 24 -88 23 -27 28 -28 106 -27 86 2 117 14 82
33 -13 7 -31 7 -53 1 -57 -17 -107 -13 -119 9 -17 33 -12 38 43 46 28 3 66 12
82 19 53 24 4 29 -61 7 l-59 -20 -5 37 c-3 25 -11 38 -22 40 -16 2 -18 -6 -18
-57z"/>
<path d="M350 420 c-14 -4 -50 -8 -80 -9 l-56 -1 4 -70 c3 -56 0 -77 -17 -110
-11 -22 -17 -40 -12 -40 12 0 61 58 61 72 0 6 10 8 25 4 16 -4 40 1 67 14 23
11 43 20 45 20 3 0 3 -17 1 -37 -2 -31 -7 -39 -26 -41 l-24 -4 23 -24 c12 -13
25 -24 29 -24 18 0 37 62 39 125 1 39 4 78 7 88 4 11 -1 24 -13 32 -20 16 -36
17 -73 5z m40 -64 c0 -49 0 -49 -82 -65 l-48 -8 0 39 c0 40 0 40 23 25 30 -20
87 -32 87 -18 0 15 -35 31 -69 31 -16 0 -32 4 -36 9 -9 16 27 30 78 31 l47 0
0 -44z"/>
<path d="M500 346 c0 -65 3 -79 24 -103 22 -26 29 -27 102 -28 89 0 134 9 134
28 -1 20 -42 64 -47 49 -11 -31 -36 -42 -97 -42 -56 0 -64 3 -75 24 -16 29 -8
46 23 46 13 0 36 4 52 9 16 5 41 12 57 15 15 4 27 11 27 16 0 14 -47 12 -78
-4 -15 -7 -39 -16 -54 -20 -23 -5 -28 -3 -28 13 0 11 5 23 10 26 17 10 11 21
-15 33 -14 7 -28 12 -30 12 -3 0 -5 -33 -5 -74z"/>
<path d="M449 183 c16 -30 51 -63 66 -63 9 0 15 10 15 26 0 19 -8 28 -35 40
-46 19 -58 18 -46 -3z"/>
<path d="M680 174 c0 -11 74 -74 87 -74 35 0 19 44 -22 60 -45 17 -65 21 -65
14z"/>
<path d="M310 131 c42 -82 125 -122 253 -120 79 1 151 19 155 39 1 10 -11 23
-30 33 -18 9 -43 24 -55 33 l-23 16 17 -32 c22 -45 8 -52 -102 -48 -110 5
-161 26 -190 80 -28 53 -52 51 -25 -1z"/>
<path d="M197 117 c-35 -44 -32 -96 5 -82 27 11 45 105 19 105 -3 0 -14 -10
-24 -23z"/>
</g>
</svg>
