<?xml version="1.0" standalone="no"?>
<!DOCTYPE svg PUBLIC "-//W3C//DTD SVG 20010904//EN"
 "http://www.w3.org/TR/2001/REC-SVG-20010904/DTD/svg10.dtd">
<svg version="1.0" xmlns="http://www.w3.org/2000/svg"
 width="96.000000pt" height="68.000000pt" viewBox="0 0 96.000000 68.000000"
 preserveAspectRatio="xMidYMid meet">
<metadata>
Created by potrace 1.16, written by Peter Selinger 2001-2019
</metadata>
<g transform="translate(0.000000,68.000000) scale(0.100000,-0.100000)"
fill="#000000" stroke="none">
<path d="M290 554 c0 -3 9 -18 20 -32 27 -34 17 -39 -88 -48 -78 -7 -96 -14
-71 -30 8 -4 9 -32 5 -88 -9 -101 -30 -185 -63 -250 -21 -42 -23 -48 -7 -36
10 8 27 24 36 35 33 38 78 208 78 296 0 21 5 41 10 44 6 4 67 12 135 18 69 6
125 15 125 19 0 12 -47 21 -75 14 -20 -5 -25 -3 -25 14 0 12 -12 26 -30 35
-30 16 -50 19 -50 9z"/>
</g>
</svg>
