<?xml version="1.0" standalone="no"?>
<!DOCTYPE svg PUBLIC "-//W3C//DTD SVG 20010904//EN"
 "http://www.w3.org/TR/2001/REC-SVG-20010904/DTD/svg10.dtd">
<svg version="1.0" xmlns="http://www.w3.org/2000/svg"
 width="96.000000pt" height="68.000000pt" viewBox="0 0 96.000000 68.000000"
 preserveAspectRatio="xMidYMid meet">
<metadata>
Created by potrace 1.16, written by Peter Selinger 2001-2019
</metadata>
<g transform="translate(0.000000,68.000000) scale(0.100000,-0.100000)"
fill="#000000" stroke="none">
<path d="M758 123 c17 -7 -50 -72 -75 -74 -138 -11 -225 -1 -241 28 -5 9 -14
13 -21 9 -17 -11 -13 -29 5 -22 11 4 15 2 11 -8 -4 -11 -1 -13 10 -9 12 5 14
3 8 -7 -6 -10 -4 -12 8 -7 9 3 19 1 23 -4 4 -7 21 -8 41 -4 19 3 33 2 30 -2
-5 -7 73 -7 171 -1 6 1 12 6 12 11 0 5 7 7 15 3 8 -3 14 0 12 6 -1 6 4 13 12
16 8 3 11 0 7 -7 -4 -6 -3 -11 2 -11 16 0 23 32 11 46 -9 11 -15 12 -28 2 -13
-10 -14 -10 -3 2 17 20 15 40 -5 39 -12 0 -13 -2 -5 -6z m-51 -89 c-3 -3 -12
-4 -19 -1 -8 3 -5 6 6 6 11 1 17 -2 13 -5z"/>
</g>
</svg>
