<?xml version="1.0" standalone="no"?>
<!DOCTYPE svg PUBLIC "-//W3C//DTD SVG 20010904//EN"
 "http://www.w3.org/TR/2001/REC-SVG-20010904/DTD/svg10.dtd">
<svg version="1.0" xmlns="http://www.w3.org/2000/svg"
 width="96.000000pt" height="68.000000pt" viewBox="0 0 96.000000 68.000000"
 preserveAspectRatio="xMidYMid meet">
<metadata>
Created by potrace 1.16, written by Peter Selinger 2001-2019
</metadata>
<g transform="translate(0.000000,68.000000) scale(0.100000,-0.100000)"
fill="#000000" stroke="none">
<path d="M430 606 c0 -7 9 -25 21 -40 l20 -26 -98 0 c-58 0 -103 4 -110 11 -8
8 -22 -4 -52 -43 -23 -30 -41 -60 -41 -66 0 -7 13 -12 30 -12 23 0 35 8 52 34
l22 33 150 12 c83 7 174 15 201 18 l50 6 -19 -22 c-11 -11 -17 -24 -14 -26 3
-3 35 -3 72 1 76 8 85 22 34 55 -30 18 -43 20 -130 14 -92 -6 -98 -5 -98 13 0
10 -8 26 -18 35 -23 21 -72 23 -72 3z"/>
<path d="M401 473 c33 -44 59 -54 59 -23 0 13 -10 24 -26 30 -38 15 -48 12
-33 -7z"/>
<path d="M482 423 c-30 -29 -61 -53 -69 -53 -9 0 -33 19 -55 42 -45 49 -50 38
-8 -20 l30 -42 -40 -25 c-22 -14 -68 -36 -103 -49 -49 -20 -56 -25 -34 -25 29
-1 145 41 184 66 16 11 39 12 95 7 74 -6 182 8 193 26 3 5 -17 21 -45 35 l-51
26 3 -23 c3 -20 -3 -24 -43 -32 -26 -5 -55 -6 -64 -2 -14 5 -10 12 26 41 24
19 49 35 55 35 14 0 26 28 18 41 -11 19 -41 4 -92 -48z"/>
<path d="M680 406 c50 -50 94 -62 88 -24 -3 22 -51 52 -103 63 -30 7 -30 7 15
-39z"/>
<path d="M238 390 c-30 -32 -35 -54 -16 -66 16 -10 58 42 58 72 0 31 -9 30
-42 -6z"/>
<path d="M433 291 c8 -33 -4 -38 -98 -40 l-65 -1 25 -57 c29 -64 36 -73 42
-55 7 19 103 16 104 -3 4 -55 3 -60 -16 -62 -11 -1 -64 -5 -117 -9 -54 -4 -98
-11 -98 -16 0 -19 62 -36 94 -26 17 5 51 13 76 17 25 5 91 19 148 31 l102 21
26 -30 c31 -37 54 -40 54 -8 0 27 -19 47 -67 71 -41 21 -60 21 -44 2 15 -18 8
-22 -56 -31 l-53 -7 0 30 c0 29 1 29 70 36 58 6 70 10 70 25 0 10 9 26 20 36
11 10 20 22 20 26 0 19 -48 33 -103 30 -42 -2 -62 2 -70 12 -7 8 -25 18 -41
21 -25 6 -28 5 -23 -13z m157 -64 c0 -33 -18 -47 -60 -47 -35 0 -36 1 -32 29
4 31 16 38 65 40 22 1 27 -3 27 -22z m-152 -25 l3 -32 -50 0 c-28 0 -51 3 -51
8 0 4 -3 17 -6 29 -5 19 -1 22 33 26 63 6 68 4 71 -31z"/>
</g>
</svg>
