<?xml version="1.0" standalone="no"?>
<!DOCTYPE svg PUBLIC "-//W3C//DTD SVG 20010904//EN"
 "http://www.w3.org/TR/2001/REC-SVG-20010904/DTD/svg10.dtd">
<svg version="1.0" xmlns="http://www.w3.org/2000/svg"
 width="96.000000pt" height="68.000000pt" viewBox="0 0 96.000000 68.000000"
 preserveAspectRatio="xMidYMid meet">
<metadata>
Created by potrace 1.16, written by Peter Selinger 2001-2019
</metadata>
<g transform="translate(0.000000,68.000000) scale(0.100000,-0.100000)"
fill="#000000" stroke="none">
<path d="M261 559 c29 -38 66 -50 75 -24 9 23 -16 45 -62 52 l-39 6 26 -34z"/>
<path d="M280 470 c-8 -5 -45 -14 -82 -21 -37 -7 -65 -16 -62 -21 8 -12 46
-10 110 7 32 8 59 13 61 11 6 -6 -94 -135 -145 -188 -59 -61 -26 -55 47 9 29
25 55 43 58 40 3 -4 0 -55 -6 -115 -11 -110 -8 -146 13 -139 16 5 23 50 25
145 0 45 4 82 9 82 4 0 18 -9 32 -20 30 -24 50 -25 50 -5 0 9 -18 24 -42 34
l-41 17 32 13 c32 14 37 34 9 39 -9 2 -19 -6 -23 -17 -3 -12 -13 -21 -21 -21
-28 0 -13 39 32 85 25 26 44 48 42 50 -28 23 -74 31 -98 15z"/>
</g>
</svg>
