<?xml version="1.0" standalone="no"?>
<!DOCTYPE svg PUBLIC "-//W3C//DTD SVG 20010904//EN"
 "http://www.w3.org/TR/2001/REC-SVG-20010904/DTD/svg10.dtd">
<svg version="1.0" xmlns="http://www.w3.org/2000/svg"
 width="96.000000pt" height="68.000000pt" viewBox="0 0 96.000000 68.000000"
 preserveAspectRatio="xMidYMid meet">
<metadata>
Created by potrace 1.16, written by Peter Selinger 2001-2019
</metadata>
<g transform="translate(0.000000,68.000000) scale(0.100000,-0.100000)"
fill="#000000" stroke="none">
<path d="M246 591 c-4 -5 -2 -21 4 -36 5 -14 10 -53 10 -85 0 -62 -6 -70 -58
-70 -37 0 -72 -11 -72 -21 0 -5 30 -9 66 -9 l65 0 -3 -42 -3 -43 -82 -35 c-96
-41 -100 -44 -82 -66 19 -23 67 -13 120 25 23 17 44 29 47 27 2 -3 1 -30 -3
-61 l-7 -56 -41 6 -42 7 33 -34 c18 -19 29 -38 25 -42 -5 -4 -3 -7 2 -5 6 1
18 -1 29 -6 14 -6 23 -2 37 16 15 19 19 42 19 121 l0 96 35 22 c36 22 40 49 5
30 -31 -16 -40 -12 -40 20 0 24 5 31 28 36 51 11 56 14 44 26 -6 6 -25 11 -42
10 -26 -1 -30 3 -30 26 1 15 7 45 15 67 19 53 19 52 -15 70 -33 17 -56 19 -64
6z"/>
<path d="M522 507 c-6 -44 -17 -84 -24 -89 -7 -4 -28 -8 -45 -8 -18 0 -33 -4
-33 -10 0 -5 16 -10 36 -10 35 0 35 -1 29 -32 -11 -49 -49 -122 -100 -189 -26
-32 -41 -59 -34 -59 17 0 115 102 123 128 4 12 12 22 18 22 12 0 88 -76 88
-88 0 -10 -97 -68 -127 -77 -13 -3 -23 -11 -23 -16 0 -6 8 -8 18 -5 9 3 31 8
47 11 37 8 95 37 95 47 0 20 37 5 71 -28 25 -25 48 -37 75 -40 44 -6 114 6
117 20 1 5 -23 15 -53 23 -30 8 -78 25 -107 38 l-52 23 29 69 c34 78 36 98 14
107 -36 14 -44 7 -44 -36 0 -48 -19 -108 -35 -108 -5 0 -31 21 -57 45 l-47 45
19 52 c10 30 26 55 37 59 10 3 57 10 106 14 48 4 87 11 87 16 0 17 -53 21
-122 10 -39 -6 -72 -10 -74 -9 -1 2 4 30 12 63 17 76 18 70 -9 82 -23 11 -23
9 -35 -70z"/>
<path d="M680 521 c37 -32 70 -40 70 -17 0 21 -21 33 -65 41 l-40 6 35 -30z"/>
</g>
</svg>
