<?xml version="1.0" standalone="no"?>
<!DOCTYPE svg PUBLIC "-//W3C//DTD SVG 20010904//EN"
 "http://www.w3.org/TR/2001/REC-SVG-20010904/DTD/svg10.dtd">
<svg version="1.0" xmlns="http://www.w3.org/2000/svg"
 width="90.000000pt" height="92.000000pt" viewBox="0 0 90.000000 92.000000"
 preserveAspectRatio="xMidYMid meet">
<metadata>
Created by potrace 1.16, written by Peter Selinger 2001-2019
</metadata>
<g transform="translate(0.000000,92.000000) scale(0.100000,-0.100000)"
fill="#000000" stroke="none">
<path d="M555 864 c-11 -9 -56 -34 -100 -56 l-80 -40 50 5 c28 3 57 7 65 9 11
2 16 -8 18 -38 l3 -40 -87 -12 c-48 -6 -89 -14 -93 -17 -15 -15 30 -25 88 -20
l64 6 -33 -37 c-37 -43 -70 -71 -124 -108 -27 -18 -33 -26 -20 -26 34 1 98 36
150 83 l52 47 -2 -65 c-1 -71 -5 -75 -78 -75 -42 0 -55 -12 -33 -30 12 -10 32
-9 100 5 47 10 88 15 92 12 10 -11 -41 -77 -59 -77 -22 0 -22 -9 -3 -34 8 -11
15 -25 15 -31 0 -12 -138 -35 -208 -35 -51 0 -54 -16 -7 -35 30 -13 41 -13 92
0 31 8 72 15 90 15 31 0 33 -2 33 -37 0 -21 -3 -55 -7 -77 l-6 -38 -46 6 -45
6 49 -50 c27 -27 53 -50 57 -50 4 0 15 15 24 33 12 23 18 59 18 124 l1 93 123
0 c101 0 122 3 122 15 0 8 -14 22 -32 31 -28 14 -41 15 -94 5 -100 -18 -118
-16 -131 19 -11 29 -10 31 30 59 23 15 52 32 65 35 13 4 21 13 19 19 -6 19
-70 58 -85 52 -8 -3 -25 -8 -40 -12 -21 -5 -24 -3 -19 11 4 10 7 42 7 72 0 30
4 54 8 54 4 0 37 -25 72 -55 105 -88 157 -103 134 -38 -12 37 -63 69 -146 94
-73 22 -81 39 -19 39 66 0 161 13 161 21 0 5 -13 15 -30 24 -29 15 -40 14
-159 -11 -22 -5 -23 -3 -16 32 4 26 3 39 -6 45 -15 9 -11 11 59 29 48 12 52
21 17 44 -30 20 -44 20 -70 0z"/>
<path d="M167 808 c13 -67 9 -441 -6 -565 -11 -91 -11 -118 -1 -143 32 -76 50
-14 50 169 0 81 3 196 6 254 l7 106 40 -34 c42 -36 67 -34 67 5 0 17 -62 50
-95 50 -11 0 -14 9 -11 33 19 138 20 125 -16 147 -46 28 -51 26 -41 -22z"/>
<path d="M62 536 c-36 -74 -39 -94 -17 -122 15 -19 15 -19 34 3 30 36 45 113
29 152 l-13 32 -33 -65z"/>
</g>
</svg>
