<?xml version="1.0" standalone="no"?>
<!DOCTYPE svg PUBLIC "-//W3C//DTD SVG 20010904//EN"
 "http://www.w3.org/TR/2001/REC-SVG-20010904/DTD/svg10.dtd">
<svg version="1.0" xmlns="http://www.w3.org/2000/svg"
 width="96.000000pt" height="68.000000pt" viewBox="0 0 96.000000 68.000000"
 preserveAspectRatio="xMidYMid meet">
<metadata>
Created by potrace 1.16, written by Peter Selinger 2001-2019
</metadata>
<g transform="translate(0.000000,68.000000) scale(0.100000,-0.100000)"
fill="#000000" stroke="none">
<path d="M570 614 c-14 -8 -50 -25 -80 -39 l-55 -24 46 6 c42 5 47 3 52 -18 9
-34 -1 -39 -81 -46 -43 -3 -69 -10 -65 -16 3 -5 31 -7 64 -4 33 3 59 1 59 -3
0 -12 -78 -72 -119 -92 -21 -10 -29 -17 -18 -18 27 0 78 24 113 53 18 15 34
27 37 27 3 0 7 -20 9 -44 3 -42 1 -45 -26 -50 -16 -3 -39 -6 -52 -6 -13 0 -24
-4 -24 -10 0 -13 52 -12 109 1 63 14 80 5 51 -26 -13 -14 -29 -25 -37 -25 -7
0 -13 -4 -13 -10 0 -5 5 -10 10 -10 6 0 10 -8 10 -19 0 -15 -11 -19 -61 -25
-34 -3 -79 -6 -100 -6 -21 0 -40 -4 -44 -9 -10 -17 57 -23 125 -12 36 6 69 11
73 11 4 0 7 -24 5 -52 l-3 -53 -38 0 -38 0 37 -32 c20 -18 42 -33 50 -33 22 0
34 35 34 103 0 77 -1 77 134 77 81 0 87 1 75 16 -12 14 -28 16 -109 10 -94 -6
-95 -6 -106 18 -11 23 -9 26 37 45 26 12 50 25 53 30 11 17 -27 35 -69 33
l-43 -1 -4 49 c-2 29 1 50 7 50 6 0 40 -20 77 -45 73 -49 108 -57 108 -26 0
23 -59 53 -137 71 -66 15 -59 30 15 31 31 1 71 5 87 9 53 12 1 23 -79 17 l-73
-6 0 34 c0 30 4 35 31 41 43 9 49 14 35 30 -14 17 -36 17 -69 -2z"/>
<path d="M225 588 c14 -46 17 -227 5 -355 -13 -146 -10 -183 19 -183 24 0 31
19 31 89 0 32 3 112 6 178 l7 121 34 -21 c29 -17 36 -18 44 -6 15 24 11 29
-37 49 l-45 20 6 55 c7 53 6 55 -20 65 -44 17 -58 13 -50 -12z"/>
<path d="M135 381 c-16 -33 -25 -66 -21 -76 9 -24 48 -15 63 15 17 33 16 95 0
109 -11 8 -20 -2 -42 -48z"/>
</g>
</svg>
