<?xml version="1.0" standalone="no"?>
<!DOCTYPE svg PUBLIC "-//W3C//DTD SVG 20010904//EN"
 "http://www.w3.org/TR/2001/REC-SVG-20010904/DTD/svg10.dtd">
<svg version="1.0" xmlns="http://www.w3.org/2000/svg"
 width="96.000000pt" height="68.000000pt" viewBox="0 0 96.000000 68.000000"
 preserveAspectRatio="xMidYMid meet">
<metadata>
Created by potrace 1.16, written by Peter Selinger 2001-2019
</metadata>
<g transform="translate(0.000000,68.000000) scale(0.100000,-0.100000)"
fill="#000000" stroke="none">
<path d="M500 551 c-19 -5 -75 -14 -123 -21 -53 -8 -86 -18 -84 -24 6 -18 86
-18 213 -2 110 15 147 27 131 42 -11 11 -99 14 -137 5z"/>
<path d="M650 414 c-8 -2 -107 -12 -220 -24 -271 -26 -300 -30 -300 -40 0 -18
68 -21 173 -7 81 10 107 11 107 2 0 -14 -35 -62 -65 -88 -11 -10 -33 -31 -50
-45 -16 -15 -42 -33 -57 -41 -33 -17 -35 -31 -8 -56 19 -17 23 -17 92 -1 40 9
122 27 183 39 l109 23 39 -40 c37 -39 39 -40 53 -22 8 11 14 26 14 34 0 21
-77 92 -100 92 -10 0 -22 5 -25 10 -3 6 -15 10 -26 10 -19 0 -19 -2 7 -32 l27
-33 -84 -11 c-181 -24 -199 -25 -199 -12 0 7 20 27 43 45 23 18 55 44 71 58
16 14 33 25 38 25 13 0 9 38 -4 43 -35 12 18 21 174 29 94 4 174 10 176 13 2
2 -3 11 -11 20 -15 14 -111 20 -157 9z"/>
</g>
</svg>
