<?xml version="1.0" standalone="no"?>
<!DOCTYPE svg PUBLIC "-//W3C//DTD SVG 20010904//EN"
 "http://www.w3.org/TR/2001/REC-SVG-20010904/DTD/svg10.dtd">
<svg version="1.0" xmlns="http://www.w3.org/2000/svg"
 width="90.000000pt" height="92.000000pt" viewBox="0 0 90.000000 92.000000"
 preserveAspectRatio="xMidYMid meet">
<metadata>
Created by potrace 1.16, written by Peter Selinger 2001-2019
</metadata>
<g transform="translate(0.000000,92.000000) scale(0.100000,-0.100000)"
fill="#000000" stroke="none">
<path d="M190 810 c0 -63 -75 -232 -152 -341 -23 -32 -39 -61 -36 -64 8 -8 94
80 126 128 l27 41 3 -137 c2 -92 -2 -156 -12 -199 -13 -55 -12 -66 1 -100 8
-21 21 -38 28 -38 18 0 24 48 34 265 7 169 7 182 -12 216 l-19 37 45 87 45 87
-25 24 c-35 33 -53 31 -53 -6z"/>
<path d="M650 764 c-91 -24 -253 -41 -284 -31 -33 11 -41 5 -27 -21 7 -13 11
-85 11 -182 0 -171 -15 -278 -51 -359 -11 -24 -17 -46 -15 -48 2 -2 17 12 34
32 32 40 60 115 69 185 l5 45 64 -3 64 -4 1 -101 c0 -56 4 -111 9 -122 7 -18
9 -18 19 10 7 16 15 73 18 126 l6 97 71 9 71 8 3 -70 c1 -38 -1 -88 -6 -110
-7 -34 -12 -40 -33 -39 -13 0 -35 4 -48 8 -21 7 -17 0 24 -53 27 -34 55 -60
63 -59 8 2 24 16 36 31 20 27 21 44 27 305 3 152 8 286 10 296 3 14 -7 27 -30
43 -38 26 -36 26 -111 7z m60 -53 c5 -11 10 -47 10 -81 0 -59 -1 -60 -22 -49
-13 7 -41 9 -75 5 -50 -6 -53 -5 -53 16 0 13 4 38 9 55 6 20 6 35 0 38 -22 14
-5 24 44 28 28 2 57 4 64 5 7 1 17 -7 23 -17z m-190 -82 l0 -56 -46 -7 c-80
-11 -77 -13 -72 54 2 33 7 62 10 65 12 12 93 21 100 11 4 -6 8 -36 8 -67z
m200 -131 l0 -63 -75 0 -75 -1 0 52 0 52 68 9 c37 6 70 11 75 12 4 0 7 -27 7
-61z m-200 -24 c0 -39 -4 -54 -14 -54 -7 0 -34 -3 -60 -6 l-46 -7 0 64 0 64
60 -3 60 -4 0 -54z"/>
</g>
</svg>
