<?xml version="1.0" standalone="no"?>
<!DOCTYPE svg PUBLIC "-//W3C//DTD SVG 20010904//EN"
 "http://www.w3.org/TR/2001/REC-SVG-20010904/DTD/svg10.dtd">
<svg version="1.0" xmlns="http://www.w3.org/2000/svg"
 width="96.000000pt" height="68.000000pt" viewBox="0 0 96.000000 68.000000"
 preserveAspectRatio="xMidYMid meet">
<metadata>
Created by potrace 1.16, written by Peter Selinger 2001-2019
</metadata>
<g transform="translate(0.000000,68.000000) scale(0.100000,-0.100000)"
fill="#000000" stroke="none">
<path d="M527 583 c4 -15 7 -39 8 -53 0 -23 -3 -25 -57 -28 -77 -4 -74 -22 3
-22 l62 0 -7 -95 c-11 -158 -59 -249 -169 -316 -32 -19 -32 -19 -6 -19 53 0
153 89 183 163 2 7 16 -3 32 -23 16 -19 51 -59 78 -87 l49 -53 68 0 c37 0 70
4 73 9 4 5 -27 21 -66 36 -77 29 -114 53 -179 115 -33 31 -39 42 -34 63 4 14
10 68 13 119 l7 93 75 12 c41 6 76 12 78 12 2 1 0 6 -4 12 -4 8 -29 9 -75 5
l-68 -7 -3 43 c-3 41 -5 43 -36 46 -31 3 -32 2 -25 -25z"/>
</g>
</svg>
