<?xml version="1.0" standalone="no"?>
<!DOCTYPE svg PUBLIC "-//W3C//DTD SVG 20010904//EN"
 "http://www.w3.org/TR/2001/REC-SVG-20010904/DTD/svg10.dtd">
<svg version="1.0" xmlns="http://www.w3.org/2000/svg"
 width="96.000000pt" height="68.000000pt" viewBox="0 0 96.000000 68.000000"
 preserveAspectRatio="xMidYMid meet">
<metadata>
Created by potrace 1.16, written by Peter Selinger 2001-2019
</metadata>
<g transform="translate(0.000000,68.000000) scale(0.100000,-0.100000)"
fill="#000000" stroke="none">
<path d="M296 558 c-2 -7 -9 -32 -15 -55 -13 -48 -79 -139 -147 -203 -36 -34
-44 -46 -31 -48 16 -3 92 43 115 71 9 10 22 12 45 8 26 -6 32 -12 32 -31 0
-23 -6 -26 -57 -34 -32 -5 -58 -13 -58 -18 0 -4 27 -8 60 -8 l60 0 0 -54 c0
-32 -5 -58 -12 -62 -6 -4 -47 -10 -90 -12 -43 -3 -78 -8 -78 -13 0 -9 54 -49
66 -49 5 0 38 11 74 24 36 14 98 34 138 46 39 11 72 25 72 30 0 13 -46 13 -88
1 l-32 -10 0 54 0 54 38 6 c54 9 64 14 57 25 -3 5 -26 10 -49 10 -40 0 -43 2
-39 24 4 18 14 27 41 33 39 9 54 29 25 35 -10 2 -48 -3 -85 -11 -38 -8 -70
-12 -73 -9 -3 3 14 34 38 70 l44 65 39 -37 c40 -38 74 -43 74 -10 0 22 -28 47
-68 61 -18 6 -32 15 -32 19 0 14 -30 40 -46 40 -8 0 -16 -6 -18 -12z"/>
<path d="M615 533 c3 -15 3 -59 0 -99 l-7 -72 -79 -6 c-43 -4 -81 -11 -84 -16
-8 -13 36 -20 97 -13 l58 6 -2 -49 -3 -49 -66 0 -67 0 18 -22 c10 -13 23 -51
30 -86 l12 -64 76 4 c147 7 162 11 162 40 0 14 10 45 22 69 18 37 19 45 7 60
-11 14 -25 15 -83 10 l-69 -6 7 47 c3 25 9 49 12 52 3 3 44 8 91 11 50 3 88
10 90 16 6 18 -52 24 -112 12 -31 -6 -58 -8 -62 -5 -5 6 3 51 24 143 3 15 -3
23 -22 32 -44 20 -58 16 -50 -15z m111 -354 c-11 -69 -19 -77 -91 -84 -35 -4
-71 -5 -78 -2 -8 3 -19 28 -24 56 l-10 51 31 5 c52 8 89 12 135 14 l44 1 -7
-41z"/>
<path d="M412 238 c-5 -7 -17 -28 -26 -45 -20 -39 -8 -43 42 -13 37 22 41 39
12 47 -11 3 -17 9 -14 14 8 14 -2 11 -14 -3z"/>
<path d="M180 204 c1 -17 49 -64 65 -64 22 0 31 29 14 46 -17 16 -79 30 -79
18z"/>
</g>
</svg>
