<?xml version="1.0" standalone="no"?>
<!DOCTYPE svg PUBLIC "-//W3C//DTD SVG 20010904//EN"
 "http://www.w3.org/TR/2001/REC-SVG-20010904/DTD/svg10.dtd">
<svg version="1.0" xmlns="http://www.w3.org/2000/svg"
 width="90.000000pt" height="92.000000pt" viewBox="0 0 90.000000 92.000000"
 preserveAspectRatio="xMidYMid meet">
<metadata>
Created by potrace 1.16, written by Peter Selinger 2001-2019
</metadata>
<g transform="translate(0.000000,92.000000) scale(0.100000,-0.100000)"
fill="#000000" stroke="none">
<path d="M158 835 c-3 -3 1 -29 9 -57 22 -88 12 -448 -17 -591 -8 -37 -6 -56
6 -87 9 -22 20 -40 25 -40 26 0 33 53 37 288 l4 244 44 -43 c46 -46 69 -45 62
2 -2 18 -16 29 -55 45 -29 11 -51 23 -49 25 2 2 6 43 10 91 l7 88 -33 20 c-35
21 -42 23 -50 15z"/>
<path d="M585 689 c-44 -11 -113 -20 -152 -20 -67 -1 -88 -9 -63 -24 14 -9 28
-68 40 -175 6 -52 13 -105 16 -117 4 -23 29 -32 36 -13 2 5 39 15 83 21 69 9
81 9 91 -5 17 -24 42 -9 54 33 17 65 60 259 60 274 0 12 -61 49 -78 46 -4 -1
-43 -10 -87 -20z m75 -84 c0 -54 -1 -55 -29 -55 -16 0 -61 -7 -100 -16 -40 -9
-74 -15 -75 -13 -2 2 -6 29 -7 59 l-4 55 65 11 c36 6 84 12 108 13 l42 1 0
-55z m-11 -132 c-1 -58 -9 -68 -54 -69 -22 0 -61 -4 -87 -8 l-48 -8 0 49 0 50
73 10 c123 17 117 18 116 -24z"/>
<path d="M47 506 c-33 -73 -33 -119 -1 -124 17 -2 25 6 38 38 22 55 20 151 -3
150 -3 0 -19 -29 -34 -64z"/>
<path d="M675 269 c-75 -12 -316 -39 -347 -39 -38 0 -35 -14 7 -35 34 -15 41
-15 108 0 42 10 139 19 235 22 125 5 162 9 162 19 0 18 -53 44 -87 43 -15 -1
-50 -5 -78 -10z"/>
</g>
</svg>
