<?xml version="1.0" standalone="no"?>
<!DOCTYPE svg PUBLIC "-//W3C//DTD SVG 20010904//EN"
 "http://www.w3.org/TR/2001/REC-SVG-20010904/DTD/svg10.dtd">
<svg version="1.0" xmlns="http://www.w3.org/2000/svg"
 width="96.000000pt" height="68.000000pt" viewBox="0 0 96.000000 68.000000"
 preserveAspectRatio="xMidYMid meet">
<metadata>
Created by potrace 1.16, written by Peter Selinger 2001-2019
</metadata>
<g transform="translate(0.000000,68.000000) scale(0.100000,-0.100000)"
fill="#000000" stroke="none">
<path d="M195 469 c-16 -4 -38 -6 -50 -3 -20 5 -20 1 -20 -150 1 -158 8 -193
35 -161 19 22 77 19 92 -5 16 -25 40 -26 54 -2 16 25 8 313 -8 324 -16 10 -64
9 -103 -3z m75 -78 l0 -58 -50 -2 -50 -1 0 54 c0 60 4 64 63 65 l37 1 0 -59z
m-2 -138 l-3 -58 -47 -3 -48 -3 0 54 c0 29 3 57 7 60 3 4 26 7 50 7 l44 0 -3
-57z"/>
</g>
</svg>
