<?xml version="1.0" standalone="no"?>
<!DOCTYPE svg PUBLIC "-//W3C//DTD SVG 20010904//EN"
 "http://www.w3.org/TR/2001/REC-SVG-20010904/DTD/svg10.dtd">
<svg version="1.0" xmlns="http://www.w3.org/2000/svg"
 width="96.000000pt" height="68.000000pt" viewBox="0 0 96.000000 68.000000"
 preserveAspectRatio="xMidYMid meet">
<metadata>
Created by potrace 1.16, written by Peter Selinger 2001-2019
</metadata>
<g transform="translate(0.000000,68.000000) scale(0.100000,-0.100000)"
fill="#000000" stroke="none">
<path d="M501 535 c-36 -87 -76 -135 -111 -135 -31 0 -31 0 -26 -47 3 -27 8
-92 12 -146 4 -67 10 -97 17 -94 8 2 13 46 15 130 l3 126 52 10 c80 17 240 31
266 24 23 -6 23 -6 16 -116 -8 -126 -18 -162 -41 -153 -9 3 -27 9 -42 13 l-25
6 33 -41 c18 -23 41 -42 50 -42 40 0 79 81 80 166 0 28 5 77 11 109 10 57 10
60 -12 78 -19 15 -33 18 -69 13 -25 -4 -79 -11 -120 -16 -41 -5 -97 -12 -125
-16 l-50 -7 42 44 c67 70 103 112 103 120 0 9 -33 29 -48 29 -4 0 -18 -25 -31
-55z"/>
<path d="M175 463 l-50 -4 0 -154 c0 -157 8 -193 35 -160 21 25 75 19 94 -10
18 -27 24 -29 46 -15 12 7 16 42 20 172 4 107 2 166 -5 170 -10 8 -43 8 -140
1z m83 -35 c7 -7 12 -31 12 -55 0 -41 -1 -43 -29 -43 -16 0 -36 -3 -45 -6 -13
-5 -16 3 -16 49 0 50 2 56 23 60 39 8 43 7 55 -5z m10 -180 l-3 -53 -47 -3
-48 -3 0 50 c0 53 3 56 73 60 28 1 28 0 25 -51z"/>
<path d="M555 330 c-16 -4 -47 -8 -68 -9 -36 -1 -37 -2 -23 -23 8 -13 18 -40
21 -60 7 -37 18 -48 30 -28 3 6 31 10 61 10 37 0 54 4 54 13 0 7 9 30 20 51
10 22 17 43 14 47 -6 11 -67 10 -109 -1z m52 -26 c3 -8 1 -26 -5 -40 -9 -19
-19 -24 -51 -24 -40 0 -51 11 -51 50 0 15 9 20 43 23 23 2 46 4 50 5 4 1 10
-5 14 -14z"/>
</g>
</svg>
