<?xml version="1.0" standalone="no"?>
<!DOCTYPE svg PUBLIC "-//W3C//DTD SVG 20010904//EN"
 "http://www.w3.org/TR/2001/REC-SVG-20010904/DTD/svg10.dtd">
<svg version="1.0" xmlns="http://www.w3.org/2000/svg"
 width="96.000000pt" height="68.000000pt" viewBox="0 0 96.000000 68.000000"
 preserveAspectRatio="xMidYMid meet">
<metadata>
Created by potrace 1.16, written by Peter Selinger 2001-2019
</metadata>
<g transform="translate(0.000000,68.000000) scale(0.100000,-0.100000)"
fill="#000000" stroke="none">
<path d="M225 460 c-16 -4 -47 -8 -67 -9 -37 -1 -37 -2 -27 -28 10 -26 5 -176
-7 -228 -6 -25 22 -65 33 -48 5 6 25 14 45 18 34 6 38 5 52 -24 20 -37 30 -39
50 -9 11 17 15 59 17 167 1 129 -1 146 -17 158 -19 14 -33 15 -79 3z m43 -82
l3 -58 -51 0 -50 0 0 54 c0 59 7 66 65 63 29 -2 30 -3 33 -59z m2 -128 l0 -60
-56 0 -56 0 6 31 c3 17 6 42 6 55 0 19 6 23 38 27 20 2 43 4 50 5 8 2 12 -16
12 -58z"/>
</g>
</svg>
