<?xml version="1.0" standalone="no"?>
<!DOCTYPE svg PUBLIC "-//W3C//DTD SVG 20010904//EN"
 "http://www.w3.org/TR/2001/REC-SVG-20010904/DTD/svg10.dtd">
<svg version="1.0" xmlns="http://www.w3.org/2000/svg"
 width="96.000000pt" height="68.000000pt" viewBox="0 0 96.000000 68.000000"
 preserveAspectRatio="xMidYMid meet">
<metadata>
Created by potrace 1.16, written by Peter Selinger 2001-2019
</metadata>
<g transform="translate(0.000000,68.000000) scale(0.100000,-0.100000)"
fill="#000000" stroke="none">
<path d="M460 594 c-74 -8 -157 -11 -185 -8 l-50 6 21 -20 c11 -11 27 -41 34
-66 14 -51 25 -63 43 -47 7 5 79 11 164 13 l152 2 40 48 c23 26 41 51 41 56 0
15 -49 32 -88 31 -20 -1 -98 -8 -172 -15z m173 -21 c2 -5 -2 -22 -9 -39 -13
-31 -13 -31 -111 -37 -54 -4 -119 -7 -144 -7 -43 0 -46 2 -56 35 l-11 34 42 5
c87 12 104 13 193 15 50 0 94 -2 96 -6z"/>
</g>
</svg>
