<?xml version="1.0" standalone="no"?>
<!DOCTYPE svg PUBLIC "-//W3C//DTD SVG 20010904//EN"
 "http://www.w3.org/TR/2001/REC-SVG-20010904/DTD/svg10.dtd">
<svg version="1.0" xmlns="http://www.w3.org/2000/svg"
 width="96.000000pt" height="68.000000pt" viewBox="0 0 96.000000 68.000000"
 preserveAspectRatio="xMidYMid meet">
<metadata>
Created by potrace 1.16, written by Peter Selinger 2001-2019
</metadata>
<g transform="translate(0.000000,68.000000) scale(0.100000,-0.100000)"
fill="#000000" stroke="none">
<path d="M262 559 c5 -15 65 -59 80 -59 16 0 21 31 7 45 -8 7 -31 17 -53 21
-31 5 -38 4 -34 -7z"/>
<path d="M285 435 c-27 -7 -71 -14 -97 -14 -27 -1 -48 -6 -48 -11 0 -20 32
-22 108 -7 42 8 79 14 80 12 10 -9 -62 -100 -140 -177 -31 -32 -52 -58 -46
-58 14 0 72 42 121 89 l37 35 0 -50 c0 -28 -5 -76 -11 -108 -9 -43 -9 -63 0
-83 19 -43 34 -13 38 79 2 46 6 94 9 107 l5 24 28 -27 c26 -25 61 -35 61 -17
0 12 -27 34 -59 47 l-26 11 32 7 c42 10 49 22 22 36 -17 10 -23 8 -36 -9 -17
-25 -31 -27 -40 -5 -4 10 9 31 38 60 42 42 42 44 24 59 -23 17 -33 17 -100 0z"/>
</g>
</svg>
