<?xml version="1.0" standalone="no"?>
<!DOCTYPE svg PUBLIC "-//W3C//DTD SVG 20010904//EN"
 "http://www.w3.org/TR/2001/REC-SVG-20010904/DTD/svg10.dtd">
<svg version="1.0" xmlns="http://www.w3.org/2000/svg"
 width="96.000000pt" height="68.000000pt" viewBox="0 0 96.000000 68.000000"
 preserveAspectRatio="xMidYMid meet">
<metadata>
Created by potrace 1.16, written by Peter Selinger 2001-2019
</metadata>
<g transform="translate(0.000000,68.000000) scale(0.100000,-0.100000)"
fill="#000000" stroke="none">
<path d="M247 521 c6 -78 5 -80 -18 -85 -13 -2 -44 -9 -69 -14 l-45 -10 68 -1
68 -1 -3 -47 -3 -47 -83 -42 -83 -43 26 -17 c18 -12 31 -14 40 -8 7 5 33 24
59 42 l46 33 -1 -58 c-2 -70 -12 -118 -25 -117 -5 1 -20 5 -34 9 -22 6 -20 2
17 -36 41 -42 44 -43 60 -26 15 15 18 37 18 137 l0 120 38 26 c43 32 42 43 -2
19 l-31 -16 0 39 c0 38 1 40 40 46 52 8 52 26 -1 26 -46 0 -45 -4 -24 96 6 26
3 32 -20 42 -14 7 -30 12 -35 12 -6 0 -7 -33 -3 -79z"/>
</g>
</svg>
