<?xml version="1.0" standalone="no"?>
<!DOCTYPE svg PUBLIC "-//W3C//DTD SVG 20010904//EN"
 "http://www.w3.org/TR/2001/REC-SVG-20010904/DTD/svg10.dtd">
<svg version="1.0" xmlns="http://www.w3.org/2000/svg"
 width="96.000000pt" height="68.000000pt" viewBox="0 0 96.000000 68.000000"
 preserveAspectRatio="xMidYMid meet">
<metadata>
Created by potrace 1.16, written by Peter Selinger 2001-2019
</metadata>
<g transform="translate(0.000000,68.000000) scale(0.100000,-0.100000)"
fill="#000000" stroke="none">
<path d="M605 562 c-5 -4 -10 -38 -10 -77 l0 -70 -109 -14 c-79 -10 -104 -16
-92 -23 11 -6 47 -6 98 1 109 15 108 15 108 -14 0 -34 16 -31 29 5 9 28 13 30
65 30 31 0 56 4 56 10 0 14 -46 23 -81 16 l-31 -6 4 72 c2 59 0 73 -12 75 -8
2 -19 0 -25 -5z"/>
</g>
</svg>
