<?xml version="1.0" standalone="no"?>
<!DOCTYPE svg PUBLIC "-//W3C//DTD SVG 20010904//EN"
 "http://www.w3.org/TR/2001/REC-SVG-20010904/DTD/svg10.dtd">
<svg version="1.0" xmlns="http://www.w3.org/2000/svg"
 width="96.000000pt" height="68.000000pt" viewBox="0 0 96.000000 68.000000"
 preserveAspectRatio="xMidYMid meet">
<metadata>
Created by potrace 1.16, written by Peter Selinger 2001-2019
</metadata>
<g transform="translate(0.000000,68.000000) scale(0.100000,-0.100000)"
fill="#000000" stroke="none">
<path d="M510 421 c0 -28 -3 -31 -29 -31 -17 0 -33 -4 -36 -10 -4 -6 10 -10
35 -10 37 0 41 -2 38 -22 -2 -16 -12 -25 -33 -29 -29 -6 -29 -7 -4 -8 45 -2
119 11 119 21 0 6 -11 7 -25 4 -21 -5 -25 -3 -25 18 0 20 6 24 42 30 32 5 39
9 28 16 -8 6 -27 7 -42 4 -22 -4 -27 -1 -30 18 -2 12 -11 24 -20 26 -14 3 -18
-3 -18 -27z"/>
</g>
</svg>
