<?xml version="1.0" standalone="no"?>
<!DOCTYPE svg PUBLIC "-//W3C//DTD SVG 20010904//EN"
 "http://www.w3.org/TR/2001/REC-SVG-20010904/DTD/svg10.dtd">
<svg version="1.0" xmlns="http://www.w3.org/2000/svg"
 width="96.000000pt" height="68.000000pt" viewBox="0 0 96.000000 68.000000"
 preserveAspectRatio="xMidYMid meet">
<metadata>
Created by potrace 1.16, written by Peter Selinger 2001-2019
</metadata>
<g transform="translate(0.000000,68.000000) scale(0.100000,-0.100000)"
fill="#000000" stroke="none">
<path d="M547 546 c-10 -23 -42 -73 -73 -110 -30 -36 -52 -66 -49 -66 4 0 25
13 48 28 34 23 60 31 142 40 71 8 103 8 112 0 19 -16 18 -267 -2 -314 -15 -37
-18 -37 -75 -16 -14 6 42 -72 61 -83 16 -10 56 44 68 90 6 24 11 96 11 159 0
63 4 126 10 140 7 19 6 29 -6 41 -25 25 -59 28 -137 10 -42 -9 -85 -15 -97
-13 -21 3 -19 7 26 57 46 51 47 54 29 67 -32 24 -49 16 -68 -30z"/>
</g>
</svg>
