<?xml version="1.0" standalone="no"?>
<!DOCTYPE svg PUBLIC "-//W3C//DTD SVG 20010904//EN"
 "http://www.w3.org/TR/2001/REC-SVG-20010904/DTD/svg10.dtd">
<svg version="1.0" xmlns="http://www.w3.org/2000/svg"
 width="96.000000pt" height="68.000000pt" viewBox="0 0 96.000000 68.000000"
 preserveAspectRatio="xMidYMid meet">
<metadata>
Created by potrace 1.16, written by Peter Selinger 2001-2019
</metadata>
<g transform="translate(0.000000,68.000000) scale(0.100000,-0.100000)"
fill="#000000" stroke="none">
<path d="M515 594 c32 -78 44 -116 47 -150 l3 -39 -87 -14 c-115 -18 -117 -36
-2 -27 47 4 91 9 99 12 8 4 22 -18 40 -66 24 -63 57 -116 126 -204 24 -30 99
-70 111 -58 4 4 0 32 -8 62 -8 30 -15 64 -15 75 -1 17 -2 17 -6 2 -2 -9 -9
-17 -14 -17 -5 0 -9 -9 -9 -20 0 -31 -25 -24 -59 17 -30 36 -111 190 -111 211
0 5 21 14 47 18 33 6 49 15 51 27 3 13 -3 17 -27 17 -16 0 -33 -4 -36 -10 -8
-12 -42 -13 -49 -1 -3 5 -11 44 -17 87 -7 44 -12 80 -13 81 0 0 -19 5 -40 9
-36 6 -39 5 -31 -12z"/>
<path d="M254 573 c3 -16 9 -55 12 -89 7 -69 12 -65 -88 -79 -67 -10 -50 -25
28 -25 l65 0 -3 -42 -3 -41 -90 -38 c-86 -36 -102 -52 -72 -71 24 -16 59 -7
109 27 29 19 53 33 54 32 1 -1 -1 -27 -5 -57 l-6 -55 -35 3 -35 2 48 -46 c45
-44 50 -46 65 -30 14 14 17 35 15 117 l-1 100 39 26 c38 25 50 43 29 43 -6 0
-22 -7 -35 -16 -25 -16 -25 -16 -25 19 0 36 12 47 50 47 10 0 22 5 26 11 10
17 -17 30 -48 25 -24 -5 -28 -2 -28 19 0 14 6 45 12 71 12 42 11 47 -7 60 -10
8 -32 14 -48 14 -27 0 -29 -2 -23 -27z"/>
<path d="M685 520 c34 -35 75 -41 75 -10 0 22 -34 40 -78 40 l-26 0 29 -30z"/>
<path d="M490 300 c-14 -4 -43 -12 -65 -16 l-40 -8 35 -5 c33 -6 35 -9 38 -48
3 -41 3 -42 -35 -48 -21 -4 -47 -10 -58 -14 -19 -8 -18 -9 7 -21 23 -11 38 -8
127 26 55 22 101 42 101 46 0 4 -12 3 -26 -2 -14 -6 -39 -10 -55 -10 -31 0
-36 11 -19 54 7 20 16 26 41 26 20 0 29 4 27 13 -5 15 -44 19 -78 7z"/>
</g>
</svg>
