<?xml version="1.0" standalone="no"?>
<!DOCTYPE svg PUBLIC "-//W3C//DTD SVG 20010904//EN"
 "http://www.w3.org/TR/2001/REC-SVG-20010904/DTD/svg10.dtd">
<svg version="1.0" xmlns="http://www.w3.org/2000/svg"
 width="96.000000pt" height="68.000000pt" viewBox="0 0 96.000000 68.000000"
 preserveAspectRatio="xMidYMid meet">
<metadata>
Created by potrace 1.16, written by Peter Selinger 2001-2019
</metadata>
<g transform="translate(0.000000,68.000000) scale(0.100000,-0.100000)"
fill="#000000" stroke="none">
<path d="M615 375 c-22 -7 -64 -14 -94 -14 -44 -1 -52 -4 -47 -17 3 -9 6 -34
6 -56 l0 -41 68 7 c112 11 143 18 139 30 -3 6 5 28 16 48 11 21 18 40 16 43
-13 12 -68 12 -104 0z m35 -44 c0 -37 -7 -41 -76 -48 l-56 -6 4 29 c3 25 9 31
48 41 72 18 80 17 80 -16z"/>
</g>
</svg>
