<?xml version="1.0" standalone="no"?>
<!DOCTYPE svg PUBLIC "-//W3C//DTD SVG 20010904//EN"
 "http://www.w3.org/TR/2001/REC-SVG-20010904/DTD/svg10.dtd">
<svg version="1.0" xmlns="http://www.w3.org/2000/svg"
 width="96.000000pt" height="68.000000pt" viewBox="0 0 96.000000 68.000000"
 preserveAspectRatio="xMidYMid meet">
<metadata>
Created by potrace 1.16, written by Peter Selinger 2001-2019
</metadata>
<g transform="translate(0.000000,68.000000) scale(0.100000,-0.100000)"
fill="#000000" stroke="none">
<path d="M560 520 c11 -22 26 -40 33 -41 6 -1 1 -5 -13 -9 -36 -12 -108 -12
-115 0 -12 19 -21 10 -39 -40 -26 -72 -1 -101 31 -35 9 20 26 38 38 40 62 14
248 36 253 30 4 -3 -1 -20 -11 -36 -9 -17 -14 -29 -10 -27 5 2 32 15 61 27 28
13 52 27 52 31 0 4 -16 15 -36 25 -36 17 -54 17 -141 -1 -29 -6 -33 -4 -33 14
0 24 -44 62 -72 62 -18 0 -18 -1 2 -40z"/>
</g>
</svg>
