<?xml version="1.0" standalone="no"?>
<!DOCTYPE svg PUBLIC "-//W3C//DTD SVG 20010904//EN"
 "http://www.w3.org/TR/2001/REC-SVG-20010904/DTD/svg10.dtd">
<svg version="1.0" xmlns="http://www.w3.org/2000/svg"
 width="90.000000pt" height="92.000000pt" viewBox="0 0 90.000000 92.000000"
 preserveAspectRatio="xMidYMid meet">
<metadata>
Created by potrace 1.16, written by Peter Selinger 2001-2019
</metadata>
<g transform="translate(0.000000,92.000000) scale(0.100000,-0.100000)"
fill="#000000" stroke="none">
<path d="M157 808 c12 -65 9 -460 -6 -571 -9 -74 -10 -105 -1 -132 6 -19 15
-35 19 -35 23 0 30 64 32 292 0 134 3 256 6 272 l6 28 37 -37 c39 -38 60 -39
60 -4 0 15 -13 26 -50 42 l-51 21 7 67 6 67 -30 16 c-43 22 -45 21 -35 -26z"/>
<path d="M440 836 c0 -4 13 -27 30 -51 l30 -43 -81 -7 c-53 -5 -79 -11 -76
-19 2 -6 13 -12 24 -14 21 -3 45 -42 58 -93 l7 -27 -81 -7 c-45 -4 -81 -11
-81 -16 0 -21 47 -24 158 -8 64 10 172 21 240 25 67 4 125 10 128 15 2 4 -9
15 -25 23 -24 13 -41 14 -88 6 -32 -6 -70 -12 -85 -15 l-27 -4 30 47 c16 26
28 55 25 65 -3 13 2 17 20 17 29 0 33 26 5 35 -10 3 -38 1 -62 -4 -60 -14 -60
-14 -55 13 3 15 -2 30 -13 40 -18 17 -81 33 -81 22z m135 -128 c3 -7 -1 -33
-8 -58 -13 -46 -29 -57 -88 -59 -23 -1 -26 2 -21 25 3 18 -3 33 -23 54 l-27
28 58 7 c33 3 66 8 74 9 28 6 31 6 35 -6z"/>
<path d="M45 517 c-28 -79 -27 -121 3 -115 21 4 41 60 41 118 1 80 -14 78 -44
-3z"/>
<path d="M535 524 c-33 -7 -90 -15 -127 -16 -38 -1 -68 -3 -68 -4 0 -1 6 -17
14 -35 8 -19 17 -57 21 -84 7 -58 21 -86 33 -69 9 14 200 26 208 13 12 -19 32
12 50 77 9 36 21 67 26 70 16 10 8 24 -24 44 -37 22 -49 23 -133 4z m85 -49
c0 -20 -5 -24 -27 -23 -16 1 -61 -5 -101 -12 -63 -11 -75 -11 -83 1 -19 30 -8
37 79 46 137 16 132 16 132 -12z m-5 -72 c-4 -16 -8 -29 -9 -30 -1 -1 -44 -4
-96 -5 -93 -3 -95 -3 -98 21 -3 18 0 22 11 18 8 -3 52 0 98 8 46 7 88 13 93
14 4 0 5 -11 1 -26z"/>
<path d="M742 253 c60 -59 84 -63 76 -12 -3 26 -74 69 -113 69 -16 0 -8 -12
37 -57z"/>
<path d="M510 283 c0 -5 15 -27 33 -48 23 -27 39 -37 50 -32 24 9 21 44 -5 61
-30 19 -78 31 -78 19z"/>
<path d="M415 213 c14 -32 39 -70 55 -85 41 -38 129 -62 201 -55 65 6 134 35
134 56 0 8 -28 31 -62 52 -35 21 -63 36 -63 33 0 -3 7 -16 16 -30 24 -36 7
-48 -74 -52 -91 -4 -146 23 -182 90 -37 70 -56 62 -25 -9z"/>
<path d="M307 205 c-30 -62 -33 -87 -13 -104 12 -10 18 -7 32 13 20 31 30 107
17 130 -7 13 -14 5 -36 -39z"/>
</g>
</svg>
