<?xml version="1.0" standalone="no"?>
<!DOCTYPE svg PUBLIC "-//W3C//DTD SVG 20010904//EN"
 "http://www.w3.org/TR/2001/REC-SVG-20010904/DTD/svg10.dtd">
<svg version="1.0" xmlns="http://www.w3.org/2000/svg"
 width="96.000000pt" height="68.000000pt" viewBox="0 0 96.000000 68.000000"
 preserveAspectRatio="xMidYMid meet">
<metadata>
Created by potrace 1.16, written by Peter Selinger 2001-2019
</metadata>
<g transform="translate(0.000000,68.000000) scale(0.100000,-0.100000)"
fill="#000000" stroke="none">
<path d="M238 422 c2 -93 -1 -208 -7 -256 -11 -94 -2 -139 28 -134 18 3 28
107 30 306 l1 103 29 -22 c33 -24 64 -19 59 8 -2 11 -20 23 -44 31 l-41 13 5
47 c4 44 2 49 -22 60 -15 7 -30 12 -34 12 -4 0 -5 -76 -4 -168z"/>
<path d="M500 573 c0 -3 9 -17 21 -31 l21 -27 -39 -7 c-21 -4 -53 -7 -71 -7
-20 -1 -31 -5 -27 -11 4 -6 43 -8 106 -4 87 6 99 5 99 -9 0 -29 -22 -65 -44
-71 -45 -12 -66 -7 -66 17 0 12 -10 28 -21 36 -24 14 -23 18 -3 -49 6 -18 1
-20 -52 -22 -33 0 -65 -1 -71 -1 -7 1 -10 -3 -7 -8 5 -8 32 -8 269 5 143 8
185 14 185 25 0 17 -51 21 -116 11 -37 -6 -69 -9 -71 -6 -3 3 7 17 21 33 14
15 26 33 26 39 0 7 8 15 17 18 32 13 -7 25 -58 19 -44 -5 -48 -4 -51 18 -2 17
-11 25 -35 30 -18 4 -33 4 -33 2z"/>
<path d="M141 365 c-24 -55 -24 -98 0 -103 30 -5 58 101 36 133 -14 17 -16 16
-36 -30z"/>
<path d="M575 354 c-38 -7 -94 -12 -123 -11 -28 1 -52 1 -52 -1 0 -1 7 -19 15
-39 8 -19 15 -43 15 -52 0 -10 7 -26 15 -37 12 -15 16 -16 23 -6 7 10 33 13
102 11 l93 -3 23 53 c13 30 24 59 24 66 0 22 -61 31 -135 19z m73 -36 c3 -14
-11 -17 -87 -23 -50 -4 -94 -8 -98 -9 -5 0 -9 8 -11 20 -3 20 2 21 75 23 43 1
80 4 82 7 10 10 36 -2 39 -18z m-8 -51 c0 -17 -49 -27 -127 -27 -38 0 -53 4
-53 13 0 21 3 22 94 25 69 3 86 0 86 -11z"/>
<path d="M724 191 c4 -5 24 -23 45 -40 32 -25 41 -28 50 -17 17 20 -16 53 -62
61 -25 4 -37 3 -33 -4z"/>
<path d="M550 179 c0 -11 51 -49 66 -49 8 0 14 8 14 18 0 12 -12 21 -40 29
-22 5 -40 7 -40 2z"/>
<path d="M460 158 c0 -25 38 -75 72 -96 45 -28 155 -38 222 -20 27 7 51 18 53
24 3 9 -77 64 -92 64 -1 0 0 -11 2 -25 4 -20 0 -25 -22 -31 -77 -19 -198 23
-211 74 -7 23 -24 31 -24 10z"/>
<path d="M371 126 c-24 -38 -27 -61 -9 -72 16 -10 48 33 48 67 0 41 -16 44
-39 5z"/>
</g>
</svg>
