<?xml version="1.0" standalone="no"?>
<!DOCTYPE svg PUBLIC "-//W3C//DTD SVG 20010904//EN"
 "http://www.w3.org/TR/2001/REC-SVG-20010904/DTD/svg10.dtd">
<svg version="1.0" xmlns="http://www.w3.org/2000/svg"
 width="90.000000pt" height="92.000000pt" viewBox="0 0 90.000000 92.000000"
 preserveAspectRatio="xMidYMid meet">
<metadata>
Created by potrace 1.16, written by Peter Selinger 2001-2019
</metadata>
<g transform="translate(0.000000,92.000000) scale(0.100000,-0.100000)"
fill="#000000" stroke="none">
<path d="M360 776 c17 -30 27 -57 23 -59 -4 -3 -32 -8 -60 -12 -74 -10 -66
-35 10 -35 52 1 189 28 201 40 18 18 -14 31 -64 25 l-45 -5 0 32 c0 27 -6 35
-35 50 -59 29 -64 23 -30 -36z"/>
<path d="M609 747 c-9 -45 -33 -123 -53 -172 -52 -126 -51 -124 -14 -83 27 29
42 37 78 40 l45 3 0 -85 c-1 -47 -5 -93 -11 -103 -9 -15 -14 -12 -42 28 -32
45 -57 64 -69 51 -4 -3 5 -19 19 -34 14 -15 35 -46 46 -68 l21 -41 -34 -40
c-19 -23 -55 -50 -80 -62 -55 -26 -57 -34 -7 -25 44 8 103 36 121 58 20 24 28
20 57 -29 32 -56 49 -65 116 -65 85 0 89 13 18 51 -34 18 -80 49 -102 69 l-41
36 16 49 c8 28 21 81 28 119 11 66 11 70 -9 87 -26 20 -18 25 58 35 57 7 66
26 20 42 -24 9 -43 6 -102 -14 -40 -13 -75 -23 -79 -22 -3 2 11 46 32 98 21
52 39 103 39 112 0 15 -35 48 -50 48 -3 0 -12 -37 -21 -83z"/>
<path d="M135 729 c-27 -12 -51 -16 -74 -12 -33 6 -34 5 -26 -23 13 -52 16
-206 7 -314 -7 -80 -6 -113 4 -138 12 -31 29 -42 36 -24 2 5 22 12 46 16 39 6
43 4 54 -19 14 -32 23 -31 44 1 14 21 16 44 12 152 -3 70 -2 174 2 232 7 102
6 106 -17 128 -28 26 -36 26 -88 1z m55 -118 l0 -88 -32 -6 c-18 -3 -41 -8
-50 -12 -16 -7 -18 1 -18 88 0 104 0 105 63 106 l37 1 0 -89z m-2 -228 c-3
-97 -5 -108 -21 -105 -9 2 -33 -1 -52 -7 l-35 -9 0 42 c0 24 3 70 6 103 6 59
7 60 43 70 65 19 62 23 59 -94z"/>
<path d="M426 633 c-17 -8 -58 -18 -92 -21 -54 -4 -61 -7 -49 -19 8 -7 17 -30
21 -51 11 -63 20 -72 53 -61 16 6 51 13 77 17 44 7 47 9 49 39 2 18 10 44 18
57 13 19 14 26 4 34 -24 19 -52 21 -81 5z m24 -53 c0 -33 -25 -54 -77 -65 -29
-6 -32 -4 -38 25 -4 17 -4 34 0 38 5 6 76 26 108 31 4 0 7 -12 7 -29z"/>
<path d="M380 434 c-19 -7 -46 -13 -60 -14 -14 -1 -34 -5 -45 -9 -19 -8 -19
-9 6 -21 21 -9 33 -9 64 4 37 16 75 21 75 11 0 -4 -7 -19 -15 -35 -10 -19 -20
-27 -30 -24 -17 7 -21 -11 -5 -21 6 -3 10 -19 10 -34 0 -25 -5 -28 -70 -45
-68 -18 -70 -19 -54 -37 22 -24 35 -24 84 1 22 11 41 20 43 20 5 0 -1 -58 -9
-82 -4 -13 -12 -16 -37 -11 l-31 6 39 -47 c38 -47 39 -47 58 -28 15 16 20 37
22 103 l3 83 54 27 c57 30 46 38 -21 14 -38 -13 -41 -13 -41 3 0 10 -4 22 -10
28 -7 7 9 21 45 43 30 18 55 37 55 42 0 12 -55 39 -77 38 -10 -1 -34 -7 -53
-15z"/>
</g>
</svg>
