<?xml version="1.0" standalone="no"?>
<!DOCTYPE svg PUBLIC "-//W3C//DTD SVG 20010904//EN"
 "http://www.w3.org/TR/2001/REC-SVG-20010904/DTD/svg10.dtd">
<svg version="1.0" xmlns="http://www.w3.org/2000/svg"
 width="96.000000pt" height="68.000000pt" viewBox="0 0 96.000000 68.000000"
 preserveAspectRatio="xMidYMid meet">
<metadata>
Created by potrace 1.16, written by Peter Selinger 2001-2019
</metadata>
<g transform="translate(0.000000,68.000000) scale(0.100000,-0.100000)"
fill="#000000" stroke="none">
<path d="M401 221 c19 -29 4 -48 -43 -55 -61 -9 -80 -23 -44 -32 18 -4 40 -1
63 10 l34 16 -3 -32 c-2 -25 -8 -34 -25 -36 l-23 -3 22 -30 c12 -16 28 -29 35
-29 19 0 33 43 33 99 0 45 2 48 36 60 43 16 40 24 -5 11 -26 -7 -33 -6 -38 8
-8 20 -23 32 -41 32 -9 0 -10 -4 -1 -19z"/>
</g>
</svg>
