<?xml version="1.0" standalone="no"?>
<!DOCTYPE svg PUBLIC "-//W3C//DTD SVG 20010904//EN"
 "http://www.w3.org/TR/2001/REC-SVG-20010904/DTD/svg10.dtd">
<svg version="1.0" xmlns="http://www.w3.org/2000/svg"
 width="96.000000pt" height="68.000000pt" viewBox="0 0 96.000000 68.000000"
 preserveAspectRatio="xMidYMid meet">
<metadata>
Created by potrace 1.16, written by Peter Selinger 2001-2019
</metadata>
<g transform="translate(0.000000,68.000000) scale(0.100000,-0.100000)"
fill="#000000" stroke="none">
<path d="M523 562 c-53 -53 -89 -72 -120 -66 l-29 6 2 -74 c2 -50 -4 -93 -18
-137 -21 -68 -22 -70 -82 -131 -45 -47 -36 -52 21 -11 51 37 83 82 105 146 19
58 26 60 178 67 69 3 85 6 85 19 0 8 8 27 18 42 21 33 21 34 -3 47 -13 7 -41
7 -87 1 -145 -21 -163 -22 -163 -9 0 13 17 23 117 69 55 25 61 37 25 50 -16 6
-28 2 -49 -19z m107 -129 c0 -33 -15 -40 -99 -52 -117 -15 -113 -16 -109 21 3
32 4 32 63 36 33 2 62 6 64 8 2 2 22 4 43 4 30 0 38 -4 38 -17z"/>
<path d="M230 434 c-29 -9 -61 -12 -89 -8 l-45 7 21 -27 c12 -14 24 -48 28
-74 3 -26 12 -58 20 -72 12 -22 14 -23 20 -8 5 12 23 19 64 24 56 6 57 7 57
38 0 17 9 48 19 69 10 22 14 42 9 47 -17 17 -59 18 -104 4z m27 -75 c-6 -47
-4 -44 -39 -53 -25 -6 -27 -3 -36 36 -5 24 -7 46 -5 51 2 4 23 7 45 7 l41 0
-6 -41z"/>
<path d="M517 291 l6 -41 -46 0 c-25 0 -49 -4 -52 -10 -4 -6 12 -10 39 -10 36
0 46 -4 46 -16 0 -16 -60 -79 -111 -117 l-24 -18 25 7 c42 11 114 61 133 93
10 17 21 31 26 31 4 0 35 -31 70 -70 l62 -70 63 0 c34 0 66 3 69 7 4 3 -25 19
-65 35 -68 26 -204 119 -183 124 6 1 31 5 58 9 68 9 60 28 -10 23 l-57 -3 -1
30 c0 25 -5 31 -27 33 -25 3 -26 2 -21 -37z"/>
<path d="M682 308 c8 -12 24 -28 36 -36 19 -13 22 -12 28 2 9 23 -23 56 -54
56 -23 0 -24 -1 -10 -22z"/>
</g>
</svg>
