<?xml version="1.0" standalone="no"?>
<!DOCTYPE svg PUBLIC "-//W3C//DTD SVG 20010904//EN"
 "http://www.w3.org/TR/2001/REC-SVG-20010904/DTD/svg10.dtd">
<svg version="1.0" xmlns="http://www.w3.org/2000/svg"
 width="96.000000pt" height="68.000000pt" viewBox="0 0 96.000000 68.000000"
 preserveAspectRatio="xMidYMid meet">
<metadata>
Created by potrace 1.16, written by Peter Selinger 2001-2019
</metadata>
<g transform="translate(0.000000,68.000000) scale(0.100000,-0.100000)"
fill="#000000" stroke="none">
<path d="M226 603 c-2 -3 -1 -16 5 -30 12 -33 11 -250 -2 -374 -11 -99 -4
-149 19 -149 22 0 32 60 33 203 1 84 4 163 8 175 l6 24 19 -21 c11 -12 28 -21
38 -21 32 0 17 33 -25 54 -38 18 -39 19 -32 65 5 34 3 50 -7 58 -16 12 -55 23
-62 16z"/>
<path d="M135 384 c-27 -56 -26 -82 1 -91 15 -5 46 55 47 93 2 62 -18 61 -48
-2z"/>
</g>
</svg>
