<?xml version="1.0" standalone="no"?>
<!DOCTYPE svg PUBLIC "-//W3C//DTD SVG 20010904//EN"
 "http://www.w3.org/TR/2001/REC-SVG-20010904/DTD/svg10.dtd">
<svg version="1.0" xmlns="http://www.w3.org/2000/svg"
 width="96.000000pt" height="68.000000pt" viewBox="0 0 96.000000 68.000000"
 preserveAspectRatio="xMidYMid meet">
<metadata>
Created by potrace 1.16, written by Peter Selinger 2001-2019
</metadata>
<g transform="translate(0.000000,68.000000) scale(0.100000,-0.100000)"
fill="#000000" stroke="none">
<path d="M425 622 c9 -36 23 -52 49 -53 23 -2 -238 -27 -291 -28 -40 -1 -43
-18 -5 -32 25 -10 113 -3 210 17 15 3 22 0 22 -10 0 -15 -50 -68 -92 -98 -20
-15 -21 -18 -8 -32 13 -14 22 -14 75 -2 33 8 95 19 138 26 68 10 81 9 102 -4
35 -23 55 -20 55 7 0 18 -12 30 -47 49 -27 14 -61 28 -78 32 l-30 6 29 -26
c23 -20 26 -28 16 -34 -17 -10 -146 -23 -180 -18 -21 3 -18 7 33 47 31 24 55
47 52 51 -2 4 68 10 157 14 89 4 164 9 167 12 3 2 -2 11 -10 20 -19 18 -74 21
-196 10 -88 -8 -92 -8 -87 11 6 23 -12 40 -56 53 -31 9 -32 8 -25 -18z"/>
<path d="M475 354 c-38 -7 -87 -10 -109 -7 -37 6 -38 5 -31 -18 12 -35 6 -125
-11 -192 -11 -43 -12 -62 -3 -78 15 -28 28 -13 44 48 l12 48 88 8 c48 4 92 4
96 0 5 -5 5 -22 0 -38 -7 -27 -12 -30 -42 -27 l-34 3 35 -36 c39 -40 50 -43
75 -15 16 17 19 39 20 138 1 64 5 126 9 138 6 16 2 23 -19 32 -30 14 -36 14
-130 -4z m86 -35 c6 -12 7 -24 2 -28 -11 -10 -161 -33 -172 -27 -4 3 -6 17 -4
31 4 19 13 26 42 30 20 4 43 8 51 10 44 9 70 4 81 -16z m4 -94 c0 -17 -11 -22
-75 -32 -110 -17 -110 -17 -110 16 0 29 2 30 53 34 104 8 132 4 132 -18z"/>
</g>
</svg>
