<?xml version="1.0" standalone="no"?>
<!DOCTYPE svg PUBLIC "-//W3C//DTD SVG 20010904//EN"
 "http://www.w3.org/TR/2001/REC-SVG-20010904/DTD/svg10.dtd">
<svg version="1.0" xmlns="http://www.w3.org/2000/svg"
 width="90.000000pt" height="92.000000pt" viewBox="0 0 90.000000 92.000000"
 preserveAspectRatio="xMidYMid meet">
<metadata>
Created by potrace 1.16, written by Peter Selinger 2001-2019
</metadata>
<g transform="translate(0.000000,92.000000) scale(0.100000,-0.100000)"
fill="#000000" stroke="none">
<path d="M280 864 c0 -33 -61 -150 -107 -203 -19 -23 -30 -41 -25 -41 16 0 90
58 102 80 7 13 21 20 39 20 15 0 52 7 82 16 29 9 93 24 142 33 48 9 88 21 89
26 2 18 -43 33 -71 25 -86 -28 -235 -70 -237 -68 -1 2 11 23 28 48 l30 44 -26
23 c-35 30 -46 29 -46 -3z"/>
<path d="M425 694 c-27 -8 -72 -17 -99 -22 -51 -7 -64 -25 -22 -30 26 -3 224
32 233 42 21 21 -53 28 -112 10z"/>
<path d="M535 629 c-32 -10 -227 -44 -312 -54 -59 -8 -66 -16 -27 -34 21 -9
51 -6 161 14 75 14 151 25 168 25 l32 0 6 -152 c7 -214 33 -288 124 -352 54
-37 128 -47 161 -20 l22 19 -19 55 c-11 30 -23 69 -27 85 -7 29 -7 29 -15 -15
-16 -88 -17 -90 -49 -90 -45 0 -104 59 -131 128 -29 78 -29 214 0 300 26 77
26 76 -4 90 -30 14 -48 14 -90 1z"/>
<path d="M350 504 c-25 -8 -78 -17 -118 -20 -61 -6 -70 -9 -60 -21 6 -8 19
-49 28 -91 14 -67 18 -77 35 -74 11 1 56 4 100 6 l79 4 28 84 c15 45 27 84 28
86 0 4 -64 42 -70 41 -3 0 -25 -7 -50 -15z m47 -90 c-4 -37 -8 -68 -9 -69 -2
-1 -35 -5 -75 -9 l-71 -7 -6 28 c-3 15 -8 45 -12 66 l-6 37 36 0 c34 0 35 -1
26 -25 -5 -14 -17 -36 -26 -50 -20 -31 -8 -33 22 -4 l23 21 27 -21 c33 -26 44
-27 44 -1 0 15 -9 22 -30 27 -31 6 -38 17 -19 28 6 4 8 13 5 20 -6 16 8 23 48
24 l29 1 -6 -66z"/>
<path d="M365 274 c-44 -7 -117 -16 -163 -20 -66 -5 -80 -9 -71 -20 6 -7 16
-35 24 -63 12 -47 12 -49 -9 -55 -11 -3 -40 -6 -63 -6 -48 0 -55 -12 -20 -34
19 -12 31 -12 87 -1 84 18 322 35 381 28 32 -4 49 -1 54 7 12 20 -24 40 -72
40 -24 0 -43 3 -43 6 0 4 10 24 22 46 l23 40 -28 24 c-16 13 -31 23 -35 23 -4
-1 -43 -8 -87 -15z m69 -33 c3 -5 3 -30 0 -55 -7 -46 -7 -46 -45 -46 l-38 0
14 41 c8 23 13 45 10 49 -3 5 1 11 7 13 21 9 46 8 52 -2z m-98 -41 c1 -50 -6
-70 -26 -70 -13 0 -19 11 -24 45 -8 53 -2 67 27 63 18 -2 22 -10 23 -38z m-81
-31 c6 -34 5 -37 -20 -43 -15 -4 -29 -6 -30 -4 -2 2 -6 24 -10 50 -7 43 -6 47
16 50 28 4 35 -4 44 -53z"/>
</g>
</svg>
