<?xml version="1.0" standalone="no"?>
<!DOCTYPE svg PUBLIC "-//W3C//DTD SVG 20010904//EN"
 "http://www.w3.org/TR/2001/REC-SVG-20010904/DTD/svg10.dtd">
<svg version="1.0" xmlns="http://www.w3.org/2000/svg"
 width="90.000000pt" height="92.000000pt" viewBox="0 0 90.000000 92.000000"
 preserveAspectRatio="xMidYMid meet">
<metadata>
Created by potrace 1.16, written by Peter Selinger 2001-2019
</metadata>
<g transform="translate(0.000000,92.000000) scale(0.100000,-0.100000)"
fill="#000000" stroke="none">
<path d="M540 840 c0 -45 -2 -50 -25 -55 -87 -18 -82 -15 -61 -30 11 -8 30
-12 47 -8 l29 5 -14 -46 c-18 -60 -3 -59 32 3 29 53 45 61 128 61 53 0 64 14
26 34 -23 12 -38 13 -63 6 -46 -13 -52 -13 -45 5 3 8 9 21 12 29 4 10 -5 20
-25 30 -16 9 -32 16 -36 16 -3 0 -5 -22 -5 -50z"/>
<path d="M240 847 c0 -2 9 -21 19 -43 24 -48 17 -54 -66 -54 -35 0 -63 -4 -63
-9 0 -5 11 -19 25 -30 24 -18 28 -19 71 -4 55 18 69 14 77 -26 4 -17 11 -31
17 -31 11 0 13 10 10 56 -1 29 2 32 34 38 48 9 46 28 -1 24 -37 -3 -38 -2 -48
37 -9 35 -14 40 -42 43 -18 2 -33 2 -33 -1z"/>
<path d="M589 656 c-2 -2 -105 -16 -229 -31 -124 -16 -227 -29 -229 -31 -2 -2
5 -11 14 -21 15 -15 17 -29 12 -108 -10 -135 -61 -297 -115 -357 -8 -10 -11
-18 -6 -18 20 0 84 77 108 131 26 56 61 204 69 292 2 26 6 50 9 52 10 10 221
35 348 42 72 3 133 10 136 14 13 21 -96 54 -117 35z"/>
<path d="M399 568 c0 -2 -2 -16 -3 -33 -2 -16 -10 -46 -19 -66 -12 -30 -21
-37 -53 -43 -81 -14 -94 -18 -88 -27 3 -5 20 -9 39 -9 37 0 45 -12 45 -71 0
-33 -4 -41 -26 -49 -42 -16 -46 -13 -39 29 6 37 1 46 -30 50 -5 0 -8 -17 -6
-38 1 -21 -2 -42 -8 -46 -14 -8 -14 -38 0 -52 8 -8 20 -6 45 9 18 11 38 18 44
16 17 -5 -38 -104 -76 -138 -44 -38 -20 -39 33 -1 38 27 93 115 93 148 0 7 9
13 19 13 11 0 27 3 36 6 14 6 16 2 13 -22 -2 -21 1 -29 12 -29 10 0 19 20 28
65 15 75 11 90 -21 90 -23 0 -24 -3 -17 -39 7 -39 7 -39 -27 -43 l-34 -4 3 58
3 57 41 7 c55 8 74 20 54 34 -8 6 -25 9 -37 7 -13 -2 -23 -3 -23 -1 0 2 15 24
32 50 32 44 32 46 14 60 -17 12 -45 19 -47 12z"/>
<path d="M545 533 c-3 -20 -20 -63 -36 -95 -28 -55 -28 -58 -8 -46 54 33 67
38 117 49 28 7 55 10 58 7 3 -3 -2 -23 -10 -43 -9 -21 -16 -39 -16 -42 0 -2
19 9 43 25 23 16 50 32 60 35 26 10 16 29 -28 53 -38 22 -38 22 -93 3 -30 -10
-58 -17 -60 -14 -3 3 4 19 16 35 27 36 27 46 3 60 -31 16 -38 12 -46 -27z"/>
<path d="M260 520 c0 -21 35 -80 47 -80 23 0 16 57 -9 74 -26 18 -38 20 -38 6z"/>
<path d="M550 378 c-1 -2 -2 -24 -4 -50 -5 -65 -49 -155 -104 -210 -53 -54
-46 -61 19 -20 52 34 61 43 97 110 l28 51 69 -95 c65 -89 70 -94 105 -94 47 0
100 10 100 19 0 4 -28 21 -62 37 -41 19 -86 52 -130 96 -60 60 -67 70 -62 96
5 23 1 33 -17 46 -21 14 -38 20 -39 14z"/>
</g>
</svg>
