<?xml version="1.0" standalone="no"?>
<!DOCTYPE svg PUBLIC "-//W3C//DTD SVG 20010904//EN"
 "http://www.w3.org/TR/2001/REC-SVG-20010904/DTD/svg10.dtd">
<svg version="1.0" xmlns="http://www.w3.org/2000/svg"
 width="90.000000pt" height="92.000000pt" viewBox="0 0 90.000000 92.000000"
 preserveAspectRatio="xMidYMid meet">
<metadata>
Created by potrace 1.16, written by Peter Selinger 2001-2019
</metadata>
<g transform="translate(0.000000,92.000000) scale(0.100000,-0.100000)"
fill="#000000" stroke="none">
<path d="M456 848 c-7 -37 -66 -139 -104 -180 -47 -51 -14 -41 43 13 55 52 56
53 113 50 31 -1 58 -4 60 -6 6 -6 -39 -86 -51 -91 -7 -2 -30 2 -50 11 -51 21
-70 7 -23 -17 20 -10 36 -22 36 -27 0 -11 -62 -67 -122 -110 -27 -19 -48 -36
-48 -37 0 -2 19 3 41 11 47 17 100 48 142 82 33 27 23 32 138 -66 l63 -54 66
6 c67 6 100 14 100 26 0 3 -46 21 -103 38 -56 18 -126 48 -156 67 l-53 33 34
39 c60 69 62 72 48 89 -10 12 -7 15 14 20 14 3 37 7 51 10 31 7 33 31 3 38
-13 3 -68 -5 -123 -17 -55 -13 -102 -22 -104 -20 -2 2 10 22 27 43 39 48 39
55 7 69 -38 17 -42 15 -49 -20z"/>
<path d="M206 796 c-8 -53 -86 -186 -156 -267 -28 -32 -50 -60 -50 -64 0 -11
43 17 85 56 23 22 45 39 49 39 11 0 6 -264 -7 -326 -13 -63 -4 -123 20 -131
23 -8 28 28 34 237 5 172 4 219 -7 237 -12 19 -10 27 25 80 21 32 49 78 62
101 l24 44 -24 19 c-36 29 -48 24 -55 -25z"/>
<path d="M255 441 c0 -77 3 -143 8 -147 20 -21 32 24 38 139 4 102 3 124 -10
135 -32 26 -36 14 -36 -127z"/>
<path d="M540 496 c0 -20 -95 -103 -149 -131 -46 -24 -46 -24 -15 -25 43 0 89
21 162 74 63 47 70 66 31 86 -24 13 -29 13 -29 -4z"/>
<path d="M572 371 c-27 -36 -123 -111 -180 -140 -55 -28 -48 -37 15 -22 55 14
94 36 176 99 61 48 69 65 38 82 -26 13 -24 14 -49 -19z"/>
<path d="M636 275 c-31 -47 -156 -130 -275 -181 -75 -33 -75 -34 -36 -34 62 0
163 41 271 110 126 81 120 74 100 104 -21 33 -39 33 -60 1z"/>
</g>
</svg>
