<?xml version="1.0" standalone="no"?>
<!DOCTYPE svg PUBLIC "-//W3C//DTD SVG 20010904//EN"
 "http://www.w3.org/TR/2001/REC-SVG-20010904/DTD/svg10.dtd">
<svg version="1.0" xmlns="http://www.w3.org/2000/svg"
 width="96.000000pt" height="68.000000pt" viewBox="0 0 96.000000 68.000000"
 preserveAspectRatio="xMidYMid meet">
<metadata>
Created by potrace 1.16, written by Peter Selinger 2001-2019
</metadata>
<g transform="translate(0.000000,68.000000) scale(0.100000,-0.100000)"
fill="#000000" stroke="none">
<path d="M496 597 c-7 -18 -32 -56 -55 -84 -23 -29 -38 -53 -35 -53 4 0 26 16
50 35 23 19 48 35 55 35 7 0 9 3 6 7 -4 4 5 19 19 34 28 29 26 43 -6 52 -16 4
-23 -2 -34 -26z"/>
<path d="M270 577 c0 -35 -68 -134 -134 -196 -31 -29 -55 -55 -53 -58 7 -7 81
33 96 51 29 34 34 16 28 -96 -4 -62 -9 -127 -13 -143 -7 -37 22 -80 44 -66 17
11 33 317 18 343 -8 13 -5 24 12 45 12 15 35 47 52 70 27 38 29 43 14 57 -8 9
-26 16 -40 16 -19 0 -24 -5 -24 -23z"/>
<path d="M617 555 c-85 -14 -110 -25 -59 -25 40 0 43 -28 7 -64 -24 -24 -26
-24 -60 -10 -41 17 -48 3 -7 -15 l27 -13 -30 -24 c-16 -14 -47 -34 -68 -45
-22 -11 -36 -23 -33 -26 7 -7 80 23 118 49 38 26 52 23 122 -27 61 -43 66 -45
134 -45 39 0 73 4 76 9 3 5 -31 19 -76 31 -45 12 -106 33 -136 47 l-54 25 37
38 c24 25 35 44 32 54 -6 15 3 20 58 28 22 4 24 22 3 25 -7 0 -48 -5 -91 -12z"/>
<path d="M320 310 c0 -91 2 -101 18 -98 15 3 17 16 17 98 0 82 -2 95 -17 98
-16 3 -18 -7 -18 -98z"/>
<path d="M563 347 c-12 -20 -85 -74 -110 -81 -30 -10 -30 -29 0 -21 45 12 103
40 135 63 25 19 30 28 21 38 -14 17 -36 18 -46 1z"/>
<path d="M579 249 c-19 -17 -60 -45 -91 -62 -32 -18 -58 -35 -58 -39 0 -17
111 29 189 77 43 26 42 26 30 41 -17 21 -32 17 -70 -17z"/>
<path d="M658 202 c-3 -10 -94 -75 -118 -85 -8 -3 -53 -22 -100 -41 -50 -21
-75 -35 -61 -36 48 0 149 33 231 77 110 60 113 62 99 79 -13 15 -45 19 -51 6z"/>
</g>
</svg>
