<?xml version="1.0" standalone="no"?>
<!DOCTYPE svg PUBLIC "-//W3C//DTD SVG 20010904//EN"
 "http://www.w3.org/TR/2001/REC-SVG-20010904/DTD/svg10.dtd">
<svg version="1.0" xmlns="http://www.w3.org/2000/svg"
 width="90.000000pt" height="92.000000pt" viewBox="0 0 90.000000 92.000000"
 preserveAspectRatio="xMidYMid meet">
<metadata>
Created by potrace 1.16, written by Peter Selinger 2001-2019
</metadata>
<g transform="translate(0.000000,92.000000) scale(0.100000,-0.100000)"
fill="#000000" stroke="none">
<path d="M155 813 c10 -26 25 -131 25 -179 l0 -41 -57 -12 c-31 -6 -69 -11
-85 -11 -15 0 -28 -5 -28 -10 0 -18 43 -28 99 -22 52 5 53 4 46 -19 -13 -43
-86 -173 -122 -217 -19 -23 -33 -47 -31 -53 6 -19 96 72 134 136 l36 60 -6
-97 c-4 -53 -11 -120 -16 -148 -8 -40 -6 -59 7 -91 14 -37 17 -39 32 -24 13
13 17 49 21 202 l5 187 25 -37 c27 -40 48 -53 63 -38 18 18 -5 52 -49 74 -40
19 -45 25 -42 52 2 21 9 31 23 33 51 9 95 24 95 33 0 20 -47 32 -79 21 l-31
-11 0 47 c1 26 5 67 10 92 8 41 7 47 -16 68 -31 27 -70 31 -59 5z"/>
<path d="M580 769 c-52 -10 -132 -20 -177 -21 -46 -2 -83 -5 -83 -7 0 -2 7
-12 15 -21 9 -9 22 -52 30 -96 9 -43 19 -82 23 -86 4 -4 23 -3 42 2 19 6 89
12 155 14 l120 4 32 73 c49 115 50 125 14 143 -36 19 -49 19 -171 -5z m108
-56 c2 -17 -2 -49 -8 -71 -10 -38 -12 -40 -55 -44 -37 -3 -44 0 -39 12 22 54
42 120 36 120 -4 0 0 5 8 10 29 19 55 7 58 -27z m-118 -17 c0 -75 -10 -104
-36 -109 -23 -4 -24 -2 -24 54 0 31 -3 64 -6 72 -4 11 2 17 23 20 15 2 31 5
36 6 4 0 7 -19 7 -43z m-106 -8 c3 -18 8 -50 11 -70 5 -36 5 -37 -27 -40 l-33
-3 -11 65 c-12 70 -8 80 33 80 17 0 23 -7 27 -32z"/>
<path d="M510 528 c0 -6 11 -25 24 -43 l25 -32 -115 -13 c-63 -7 -114 -17
-114 -22 0 -20 50 -27 114 -16 37 6 69 8 72 5 13 -13 -53 -106 -131 -185 -45
-45 -78 -82 -73 -82 37 0 144 86 211 168 l27 33 56 -11 56 -12 -5 -38 c-7 -55
-53 -150 -72 -150 -8 0 -32 7 -52 15 -54 23 -56 19 -11 -40 22 -30 46 -55 53
-55 37 0 88 68 115 155 7 22 19 55 28 74 15 33 15 34 -12 57 -19 17 -39 24
-71 24 -38 0 -45 4 -58 29 l-14 29 45 6 c25 3 79 6 121 6 121 0 150 15 89 46
-31 16 -71 14 -209 -13 -24 -5 -26 -2 -22 20 4 21 -1 28 -25 41 -37 19 -52 20
-52 4z"/>
</g>
</svg>
