<?xml version="1.0" standalone="no"?>
<!DOCTYPE svg PUBLIC "-//W3C//DTD SVG 20010904//EN"
 "http://www.w3.org/TR/2001/REC-SVG-20010904/DTD/svg10.dtd">
<svg version="1.0" xmlns="http://www.w3.org/2000/svg"
 width="90.000000pt" height="92.000000pt" viewBox="0 0 90.000000 92.000000"
 preserveAspectRatio="xMidYMid meet">
<metadata>
Created by potrace 1.16, written by Peter Selinger 2001-2019
</metadata>
<g transform="translate(0.000000,92.000000) scale(0.100000,-0.100000)"
fill="#000000" stroke="none">
<path d="M299 858 c-13 -11 -51 -38 -83 -59 -71 -47 -50 -50 44 -9 38 17 73
30 78 30 5 0 15 6 21 14 9 10 6 17 -13 29 -22 15 -26 15 -47 -5z"/>
<path d="M580 821 c-55 -13 -82 -15 -102 -7 -36 13 -42 6 -29 -41 14 -49 14
-185 0 -292 -9 -72 -8 -86 6 -100 14 -14 21 -10 75 44 64 63 65 76 5 51 -21
-9 -39 -16 -41 -16 -2 0 -4 33 -4 73 l0 73 81 -1 c92 0 81 -10 118 105 12 36
24 73 27 82 4 11 -3 21 -25 32 -16 9 -31 15 -33 15 -2 -1 -37 -9 -78 -18z m62
-33 c2 -7 2 -24 -1 -38 -6 -23 -11 -25 -68 -27 -63 -1 -63 -1 -63 27 0 22 6
31 28 38 39 15 99 14 104 0z m-10 -117 c-4 -35 -6 -39 -24 -32 -12 4 -40 4
-64 1 -43 -7 -44 -6 -44 20 0 26 4 28 63 37 34 6 64 11 67 12 3 0 4 -17 2 -38z"/>
<path d="M343 753 c-18 -26 -21 -26 -36 -11 -19 19 -56 33 -64 24 -3 -2 4 -18
16 -35 l21 -29 -34 -22 c-19 -11 -70 -37 -113 -56 -73 -33 -75 -35 -34 -29 24
3 69 14 100 25 30 10 59 16 63 14 15 -10 -47 -77 -116 -125 -38 -27 -64 -49
-57 -49 25 0 116 54 161 96 52 49 55 50 63 29 10 -25 -67 -110 -150 -165 -43
-29 -67 -49 -53 -45 56 16 114 50 165 96 55 51 70 51 59 2 -13 -63 -25 -82
-54 -85 l-29 -3 28 -34 28 -35 26 26 c33 33 51 99 42 157 -9 59 -26 92 -66
126 -26 21 -29 28 -18 35 57 32 118 77 116 84 -2 5 -12 15 -23 23 -18 11 -22
10 -41 -14z"/>
<path d="M120 732 c0 -15 60 -73 70 -67 5 3 10 17 10 30 0 17 -8 26 -31 34
-38 13 -49 14 -49 3z"/>
<path d="M710 631 c0 -5 -16 -30 -35 -55 -19 -25 -31 -46 -26 -46 16 0 121 51
121 59 0 9 -44 51 -53 51 -4 0 -7 -4 -7 -9z"/>
<path d="M530 570 c0 -5 5 -10 11 -10 6 0 53 -40 104 -90 101 -98 117 -104
194 -76 38 14 36 17 -24 36 -62 20 -114 48 -186 101 -63 47 -99 61 -99 39z"/>
<path d="M385 360 c-3 -5 -1 -18 5 -29 5 -11 10 -33 10 -49 l0 -30 -75 -7
c-63 -6 -74 -10 -64 -21 8 -9 33 -14 75 -14 l64 0 0 -35 c0 -42 -3 -43 -159
-53 -120 -7 -146 -19 -91 -42 31 -13 53 -12 190 10 36 5 154 13 263 17 207 7
220 10 158 47 -29 17 -40 17 -104 8 -40 -6 -102 -14 -139 -18 l-68 -6 0 39 0
40 82 11 c92 13 111 24 78 42 -22 12 -98 8 -135 -6 -12 -5 -15 3 -15 40 0 41
-3 48 -26 56 -32 13 -41 13 -49 0z"/>
</g>
</svg>
