<?xml version="1.0" standalone="no"?>
<!DOCTYPE svg PUBLIC "-//W3C//DTD SVG 20010904//EN"
 "http://www.w3.org/TR/2001/REC-SVG-20010904/DTD/svg10.dtd">
<svg version="1.0" xmlns="http://www.w3.org/2000/svg"
 width="96.000000pt" height="68.000000pt" viewBox="0 0 96.000000 68.000000"
 preserveAspectRatio="xMidYMid meet">
<metadata>
Created by potrace 1.16, written by Peter Selinger 2001-2019
</metadata>
<g transform="translate(0.000000,68.000000) scale(0.100000,-0.100000)"
fill="#000000" stroke="none">
<path d="M620 138 c0 -7 -5 -30 -11 -50 -10 -37 -11 -38 -55 -38 -30 0 -44 4
-43 13 4 33 -3 48 -31 62 -35 18 -38 9 -9 -39 l21 -35 -24 -6 c-13 -2 -52 -6
-88 -8 -61 -2 -63 -3 -37 -15 23 -9 62 -10 175 -2 81 5 183 10 227 10 74 1 78
2 60 16 -15 11 -40 14 -98 12 -42 -2 -77 -1 -77 1 0 3 12 17 27 33 22 23 24
30 13 43 -15 18 -50 20 -50 3z"/>
</g>
</svg>
