<?xml version="1.0" standalone="no"?>
<!DOCTYPE svg PUBLIC "-//W3C//DTD SVG 20010904//EN"
 "http://www.w3.org/TR/2001/REC-SVG-20010904/DTD/svg10.dtd">
<svg version="1.0" xmlns="http://www.w3.org/2000/svg"
 width="96.000000pt" height="68.000000pt" viewBox="0 0 96.000000 68.000000"
 preserveAspectRatio="xMidYMid meet">
<metadata>
Created by potrace 1.16, written by Peter Selinger 2001-2019
</metadata>
<g transform="translate(0.000000,68.000000) scale(0.100000,-0.100000)"
fill="#000000" stroke="none">
<path d="M535 587 c-2 -6 -6 -33 -10 -59 -3 -26 -22 -80 -42 -118 -37 -75 -39
-99 -5 -56 11 15 30 26 44 26 13 0 50 7 83 15 66 18 82 11 64 -29 -7 -14 -10
-28 -7 -31 3 -3 29 9 57 26 56 35 56 49 -3 69 -25 8 -48 6 -106 -9 -41 -10
-77 -17 -79 -15 -2 2 1 14 7 27 41 81 60 136 49 145 -23 17 -48 22 -52 9z"/>
<path d="M339 544 c-7 -9 -32 -29 -55 -45 -33 -22 -49 -27 -72 -23 l-30 6 5
-78 c6 -91 -17 -177 -68 -251 -38 -54 -17 -58 32 -5 36 37 71 108 84 170 6 31
10 34 63 36 15 1 18 -14 22 -133 3 -89 9 -136 17 -138 14 -5 21 43 25 172 2
55 8 103 13 107 6 4 20 8 33 8 12 0 22 5 22 11 0 12 -86 7 -152 -7 -27 -6 -28
-5 -28 33 l0 40 73 28 c105 42 116 53 72 73 -34 16 -40 15 -56 -4z"/>
<path d="M542 306 c1 -61 -28 -113 -90 -163 -56 -46 -54 -55 6 -24 41 21 70
50 99 98 l19 32 44 -56 c73 -91 94 -104 156 -101 30 2 54 8 53 13 -1 6 -25 19
-53 29 -60 22 -96 45 -152 99 -37 35 -41 43 -34 67 9 31 -3 50 -32 50 -14 0
-17 -8 -16 -44z"/>
</g>
</svg>
