<?xml version="1.0" standalone="no"?>
<!DOCTYPE svg PUBLIC "-//W3C//DTD SVG 20010904//EN"
 "http://www.w3.org/TR/2001/REC-SVG-20010904/DTD/svg10.dtd">
<svg version="1.0" xmlns="http://www.w3.org/2000/svg"
 width="96.000000pt" height="68.000000pt" viewBox="0 0 96.000000 68.000000"
 preserveAspectRatio="xMidYMid meet">
<metadata>
Created by potrace 1.16, written by Peter Selinger 2001-2019
</metadata>
<g transform="translate(0.000000,68.000000) scale(0.100000,-0.100000)"
fill="#000000" stroke="none">
<path d="M650 546 c0 -57 -7 -66 -56 -66 -18 0 -24 5 -24 23 0 43 -12 67 -32
67 -15 0 -18 -4 -13 -17 4 -10 9 -33 12 -50 5 -29 3 -33 -16 -33 -11 0 -21 -4
-21 -10 0 -5 9 -10 19 -10 20 0 31 -18 31 -52 0 -16 5 -19 23 -14 12 3 39 6
60 6 32 0 37 3 37 24 0 49 8 56 71 56 32 0 59 4 59 9 0 13 -27 21 -71 21 -42
0 -45 5 -27 46 11 23 10 28 -7 40 -35 26 -45 18 -45 -40z m-12 -108 c-2 -17
-11 -24 -33 -26 -26 -3 -31 1 -33 23 -2 22 2 25 34 25 31 0 35 -3 32 -22z"/>
</g>
</svg>
