<?xml version="1.0" standalone="no"?>
<!DOCTYPE svg PUBLIC "-//W3C//DTD SVG 20010904//EN"
 "http://www.w3.org/TR/2001/REC-SVG-20010904/DTD/svg10.dtd">
<svg version="1.0" xmlns="http://www.w3.org/2000/svg"
 width="96.000000pt" height="68.000000pt" viewBox="0 0 96.000000 68.000000"
 preserveAspectRatio="xMidYMid meet">
<metadata>
Created by potrace 1.16, written by Peter Selinger 2001-2019
</metadata>
<g transform="translate(0.000000,68.000000) scale(0.100000,-0.100000)"
fill="#000000" stroke="none">
<path d="M475 569 c-121 -15 -222 -28 -224 -28 -3 -1 4 -7 14 -15 16 -12 17
-22 12 -97 -10 -130 -51 -244 -112 -318 -33 -38 -18 -41 25 -4 66 55 99 132
130 307 11 60 21 110 22 111 7 5 213 25 311 31 95 6 123 14 100 27 -26 14 -81
11 -278 -14z"/>
</g>
</svg>
