<?xml version="1.0" standalone="no"?>
<!DOCTYPE svg PUBLIC "-//W3C//DTD SVG 20010904//EN"
 "http://www.w3.org/TR/2001/REC-SVG-20010904/DTD/svg10.dtd">
<svg version="1.0" xmlns="http://www.w3.org/2000/svg"
 width="90.000000pt" height="92.000000pt" viewBox="0 0 90.000000 92.000000"
 preserveAspectRatio="xMidYMid meet">
<metadata>
Created by potrace 1.16, written by Peter Selinger 2001-2019
</metadata>
<g transform="translate(0.000000,92.000000) scale(0.100000,-0.100000)"
fill="#000000" stroke="none">
<path d="M360 813 c0 -55 -107 -235 -203 -343 -16 -17 -26 -34 -23 -37 8 -9
57 31 128 105 65 67 70 70 125 77 32 3 68 9 81 12 30 7 29 -14 -7 -85 -66
-131 -242 -325 -358 -395 -29 -18 -53 -35 -53 -39 0 -16 29 -7 99 28 74 37
215 160 262 229 13 19 27 35 31 35 4 0 17 -19 29 -42 30 -60 121 -179 171
-223 l41 -38 80 6 c43 3 84 10 90 16 7 7 -17 22 -76 49 -108 51 -159 85 -231
160 -95 99 -93 91 -45 169 23 37 56 83 73 101 l31 34 -30 24 c-36 29 -50 29
-137 7 -37 -9 -70 -14 -74 -11 -7 7 45 86 70 107 27 23 19 51 -19 67 -48 20
-55 18 -55 -13z"/>
</g>
</svg>
