<?xml version="1.0" standalone="no"?>
<!DOCTYPE svg PUBLIC "-//W3C//DTD SVG 20010904//EN"
 "http://www.w3.org/TR/2001/REC-SVG-20010904/DTD/svg10.dtd">
<svg version="1.0" xmlns="http://www.w3.org/2000/svg"
 width="96.000000pt" height="68.000000pt" viewBox="0 0 96.000000 68.000000"
 preserveAspectRatio="xMidYMid meet">
<metadata>
Created by potrace 1.16, written by Peter Selinger 2001-2019
</metadata>
<g transform="translate(0.000000,68.000000) scale(0.100000,-0.100000)"
fill="#000000" stroke="none">
<path d="M390 585 c0 -35 -53 -117 -124 -192 -41 -43 -73 -79 -71 -81 7 -7 48
21 109 73 59 50 66 53 135 60 l73 7 -21 -40 c-50 -99 -210 -251 -323 -308 -59
-30 -58 -40 1 -19 91 32 167 81 246 160 79 79 185 199 185 209 0 3 -14 13 -31
21 -29 16 -80 12 -161 -11 -28 -8 -21 9 24 55 32 34 39 47 31 60 -14 22 -73
28 -73 6z"/>
</g>
</svg>
