<?xml version="1.0" standalone="no"?>
<!DOCTYPE svg PUBLIC "-//W3C//DTD SVG 20010904//EN"
 "http://www.w3.org/TR/2001/REC-SVG-20010904/DTD/svg10.dtd">
<svg version="1.0" xmlns="http://www.w3.org/2000/svg"
 width="96.000000pt" height="68.000000pt" viewBox="0 0 96.000000 68.000000"
 preserveAspectRatio="xMidYMid meet">
<metadata>
Created by potrace 1.16, written by Peter Selinger 2001-2019
</metadata>
<g transform="translate(0.000000,68.000000) scale(0.100000,-0.100000)"
fill="#000000" stroke="none">
<path d="M227 614 c-2 -3 -2 -45 1 -94 5 -99 8 -96 -78 -102 -54 -4 -37 -23
25 -26 l55 -3 0 -38 c0 -46 -6 -51 -87 -82 -35 -13 -61 -28 -60 -34 2 -5 15
-17 30 -25 24 -14 29 -13 73 18 l46 33 -4 -65 c-2 -36 -7 -68 -10 -72 -4 -3
-21 -2 -37 4 -17 6 -31 9 -31 6 0 -12 75 -84 86 -84 31 0 44 43 44 145 l0 100
37 25 c35 24 36 25 13 28 -14 2 -26 -1 -28 -7 -8 -24 -22 -9 -22 24 0 30 4 35
28 41 44 9 52 13 52 23 0 12 -44 23 -64 15 -20 -8 -21 22 -2 92 13 50 13 52
-8 62 -32 15 -54 21 -59 16z"/>
<path d="M449 583 c-1 -14 -5 -76 -7 -125 -2 -48 -2 -48 -42 -54 -54 -9 -61
-24 -11 -24 40 0 40 0 35 -32 -12 -64 -48 -152 -81 -195 -35 -46 -38 -53 -24
-53 31 0 109 122 137 215 7 23 10 4 14 -85 l5 -115 40 -20 c75 -38 323 -21
339 22 3 8 -2 32 -12 54 -18 38 -32 42 -32 9 0 -9 -12 -27 -26 -41 -23 -22
-35 -24 -127 -27 -156 -4 -174 14 -143 147 14 60 14 65 -2 77 -9 8 -23 14 -30
14 -8 0 -12 9 -10 22 2 18 12 24 41 29 53 8 58 19 8 19 l-42 0 3 82 c3 72 1
83 -14 86 -10 2 -18 0 -19 -5z"/>
<path d="M664 493 c-9 -56 -10 -58 -41 -61 -41 -4 -43 -22 -3 -22 17 0 30 -2
30 -5 0 -17 -54 -135 -77 -167 -30 -44 -28 -54 5 -28 32 26 91 127 104 178 9
38 14 43 37 40 25 -3 26 -6 23 -53 -1 -27 -8 -72 -15 -100 -11 -43 -17 -50
-40 -53 -32 -4 -34 -13 -7 -37 41 -37 71 7 101 152 23 108 21 113 -44 113 -36
0 -37 1 -31 28 3 15 8 33 10 41 5 15 -12 31 -32 31 -6 0 -15 -26 -20 -57z"/>
</g>
</svg>
