<?xml version="1.0" standalone="no"?>
<!DOCTYPE svg PUBLIC "-//W3C//DTD SVG 20010904//EN"
 "http://www.w3.org/TR/2001/REC-SVG-20010904/DTD/svg10.dtd">
<svg version="1.0" xmlns="http://www.w3.org/2000/svg"
 width="96.000000pt" height="68.000000pt" viewBox="0 0 96.000000 68.000000"
 preserveAspectRatio="xMidYMid meet">
<metadata>
Created by potrace 1.16, written by Peter Selinger 2001-2019
</metadata>
<g transform="translate(0.000000,68.000000) scale(0.100000,-0.100000)"
fill="#000000" stroke="none">
<path d="M395 240 c-11 -5 -42 -9 -69 -9 -37 -1 -46 -4 -38 -13 5 -7 15 -33
22 -58 18 -73 19 -75 32 -62 7 7 26 12 43 12 39 0 51 9 59 43 3 15 9 39 12 53
10 38 -17 53 -61 34z m13 -57 c-2 -31 -8 -39 -30 -47 -33 -12 -34 -11 -41 36
-6 39 0 44 51 47 21 1 23 -3 20 -36z"/>
</g>
</svg>
