<?xml version="1.0" standalone="no"?>
<!DOCTYPE svg PUBLIC "-//W3C//DTD SVG 20010904//EN"
 "http://www.w3.org/TR/2001/REC-SVG-20010904/DTD/svg10.dtd">
<svg version="1.0" xmlns="http://www.w3.org/2000/svg"
 width="96.000000pt" height="68.000000pt" viewBox="0 0 96.000000 68.000000"
 preserveAspectRatio="xMidYMid meet">
<metadata>
Created by potrace 1.16, written by Peter Selinger 2001-2019
</metadata>
<g transform="translate(0.000000,68.000000) scale(0.100000,-0.100000)"
fill="#000000" stroke="none">
<path d="M460 546 c-5 -14 -26 -43 -46 -65 -20 -23 -32 -41 -28 -41 15 0 66
35 109 73 33 30 37 38 25 47 -26 17 -50 11 -60 -14z"/>
<path d="M662 515 c31 -30 61 -55 68 -55 7 0 10 13 8 33 -2 27 -10 36 -48 55
-24 12 -53 22 -65 22 -16 0 -8 -12 37 -55z"/>
</g>
</svg>
