<?xml version="1.0" standalone="no"?>
<!DOCTYPE svg PUBLIC "-//W3C//DTD SVG 20010904//EN"
 "http://www.w3.org/TR/2001/REC-SVG-20010904/DTD/svg10.dtd">
<svg version="1.0" xmlns="http://www.w3.org/2000/svg"
 width="90.000000pt" height="92.000000pt" viewBox="0 0 90.000000 92.000000"
 preserveAspectRatio="xMidYMid meet">
<metadata>
Created by potrace 1.16, written by Peter Selinger 2001-2019
</metadata>
<g transform="translate(0.000000,92.000000) scale(0.100000,-0.100000)"
fill="#000000" stroke="none">
<path d="M158 835 c-3 -3 1 -29 9 -58 18 -66 11 -427 -11 -561 -13 -79 -13
-93 1 -127 8 -22 19 -39 24 -39 26 0 33 54 37 293 3 136 7 247 10 247 3 0 17
-14 32 -32 30 -36 60 -33 60 6 0 17 -9 28 -34 40 -19 9 -40 16 -46 16 -10 0
-11 21 -6 90 l7 90 -33 20 c-35 21 -42 23 -50 15z"/>
<path d="M604 714 c-40 -7 -113 -17 -164 -23 -51 -6 -95 -13 -99 -16 -9 -10
22 -25 54 -25 45 0 55 -16 55 -86 0 -61 0 -62 -31 -68 -17 -3 -58 -6 -90 -6
-33 0 -59 -2 -59 -3 0 -2 7 -18 16 -35 8 -18 21 -87 29 -154 7 -68 17 -131 20
-140 8 -21 21 -23 28 -4 4 9 38 15 124 20 65 4 139 9 164 12 l45 6 13 -41 c13
-46 20 -49 45 -22 24 27 42 92 51 186 4 44 14 100 22 123 18 53 13 66 -28 88
-29 14 -41 15 -106 4 -40 -7 -76 -10 -80 -6 -4 3 -1 34 5 69 9 49 9 63 -1 66
-6 3 17 10 52 15 73 12 87 28 40 45 -18 6 -32 10 -33 10 -1 -1 -33 -7 -72 -15z
m-40 -70 c3 -9 6 -42 6 -75 l0 -59 -36 0 -35 0 2 58 c1 33 -1 64 -4 70 -8 12
8 20 39 21 12 1 25 -6 28 -15z m193 -179 c3 -20 -14 -183 -23 -220 -4 -18 -13
-20 -92 -20 -48 0 -130 -4 -183 -9 l-96 -8 -7 117 c-4 65 -5 120 -2 122 3 3
25 8 50 10 l44 5 -9 -42 c-5 -23 -18 -59 -29 -81 -25 -48 -14 -50 27 -6 35 35
53 75 53 113 0 13 4 24 9 24 5 0 23 3 40 6 l31 6 -6 -45 c-12 -87 33 -137 113
-124 41 7 57 25 41 45 -9 10 -24 12 -54 7 -37 -5 -44 -3 -54 15 -13 24 -11 79
4 98 6 9 30 12 74 10 56 -3 66 -6 69 -23z"/>
<path d="M47 506 c-33 -73 -33 -119 -1 -124 17 -2 25 6 38 38 22 55 20 151 -3
150 -3 0 -19 -29 -34 -64z"/>
</g>
</svg>
