<?xml version="1.0" standalone="no"?>
<!DOCTYPE svg PUBLIC "-//W3C//DTD SVG 20010904//EN"
 "http://www.w3.org/TR/2001/REC-SVG-20010904/DTD/svg10.dtd">
<svg version="1.0" xmlns="http://www.w3.org/2000/svg"
 width="96.000000pt" height="68.000000pt" viewBox="0 0 96.000000 68.000000"
 preserveAspectRatio="xMidYMid meet">
<metadata>
Created by potrace 1.16, written by Peter Selinger 2001-2019
</metadata>
<g transform="translate(0.000000,68.000000) scale(0.100000,-0.100000)"
fill="#000000" stroke="none">
<path d="M549 461 c6 -11 11 -31 11 -44 0 -24 -3 -25 -95 -32 -52 -4 -98 -11
-100 -15 -10 -16 52 -21 116 -11 35 6 67 11 71 11 4 0 9 -62 10 -137 3 -130 4
-138 23 -138 19 0 20 8 25 140 l5 140 108 7 c108 6 127 11 113 26 -9 9 -152 8
-190 -2 -26 -6 -27 -5 -24 31 l3 38 -43 3 c-41 3 -43 2 -33 -17z"/>
</g>
</svg>
