<?xml version="1.0" standalone="no"?>
<!DOCTYPE svg PUBLIC "-//W3C//DTD SVG 20010904//EN"
 "http://www.w3.org/TR/2001/REC-SVG-20010904/DTD/svg10.dtd">
<svg version="1.0" xmlns="http://www.w3.org/2000/svg"
 width="96.000000pt" height="68.000000pt" viewBox="0 0 96.000000 68.000000"
 preserveAspectRatio="xMidYMid meet">
<metadata>
Created by potrace 1.16, written by Peter Selinger 2001-2019
</metadata>
<g transform="translate(0.000000,68.000000) scale(0.100000,-0.100000)"
fill="#000000" stroke="none">
<path d="M528 557 l4 -54 -54 -10 -53 -10 53 -2 52 -1 0 -35 0 -35 -72 -1
c-40 -1 -87 0 -103 1 l-31 1 1 -58 c0 -56 -1 -58 -28 -61 l-29 -3 4 128 3 128
-39 3 c-36 3 -38 2 -32 -20 4 -13 10 -74 13 -135 5 -93 3 -113 -8 -113 -8 0
-25 -3 -37 -7 -23 -6 -24 -5 -17 50 6 49 5 56 -13 66 -34 18 -44 14 -37 -17 3
-15 -1 -47 -10 -71 -18 -53 -6 -86 28 -77 12 3 60 14 107 24 84 18 85 18 90
-2 7 -26 27 -31 38 -9 5 10 15 47 21 83 l12 65 40 -3 c21 -2 39 -6 39 -9 0
-15 -34 -65 -56 -82 -31 -24 -16 -28 26 -6 35 18 74 71 66 90 -4 10 7 16 39
20 54 9 65 2 65 -39 0 -51 26 -68 101 -64 39 2 64 8 67 16 3 9 -13 12 -55 12
-74 0 -85 7 -77 48 6 32 7 32 70 32 35 0 64 4 64 10 0 19 -37 27 -95 19 -107
-13 -107 -13 -103 24 2 26 8 33 28 35 66 7 90 14 84 24 -4 6 -26 8 -58 4 l-51
-7 0 48 c0 46 -1 48 -30 51 l-30 3 3 -54z"/>
<path d="M510 305 c0 -25 -30 -66 -84 -117 -57 -53 -54 -60 11 -23 l43 26 30
-23 c16 -12 30 -25 30 -29 0 -13 -58 -49 -118 -74 -31 -13 -52 -24 -47 -24 22
-1 113 28 156 49 l46 23 59 -37 c54 -33 66 -36 132 -36 39 0 72 3 72 8 0 4
-47 22 -105 40 -147 48 -147 47 -90 107 43 46 45 50 28 63 -18 13 -64 12 -111
-3 -22 -7 -23 -6 -11 12 7 11 9 28 6 37 -8 20 -47 21 -47 1z m110 -72 c0 -17
-41 -73 -52 -73 -7 1 -26 12 -43 25 -42 34 -29 44 78 53 9 1 17 -1 17 -5z"/>
</g>
</svg>
