<?xml version="1.0" standalone="no"?>
<!DOCTYPE svg PUBLIC "-//W3C//DTD SVG 20010904//EN"
 "http://www.w3.org/TR/2001/REC-SVG-20010904/DTD/svg10.dtd">
<svg version="1.0" xmlns="http://www.w3.org/2000/svg"
 width="96.000000pt" height="68.000000pt" viewBox="0 0 96.000000 68.000000"
 preserveAspectRatio="xMidYMid meet">
<metadata>
Created by potrace 1.16, written by Peter Selinger 2001-2019
</metadata>
<g transform="translate(0.000000,68.000000) scale(0.100000,-0.100000)"
fill="#000000" stroke="none">
<path d="M638 261 l4 -39 -49 -7 c-26 -3 -57 -10 -68 -15 -19 -8 -18 -9 5 -11
35 -2 31 -2 68 4 24 5 32 3 32 -8 0 -20 -55 -80 -96 -106 -44 -27 -39 -34 10
-14 48 20 110 77 126 115 12 29 15 30 74 31 33 1 72 4 85 8 l24 6 -25 12 c-17
7 -40 8 -74 2 -64 -12 -75 -7 -68 31 6 28 4 30 -23 30 -27 0 -28 -2 -25 -39z"/>
<path d="M739 117 c40 -58 59 -73 73 -59 18 18 -7 56 -52 81 -53 29 -55 27
-21 -22z"/>
</g>
</svg>
