<?xml version="1.0" standalone="no"?>
<!DOCTYPE svg PUBLIC "-//W3C//DTD SVG 20010904//EN"
 "http://www.w3.org/TR/2001/REC-SVG-20010904/DTD/svg10.dtd">
<svg version="1.0" xmlns="http://www.w3.org/2000/svg"
 width="90.000000pt" height="92.000000pt" viewBox="0 0 90.000000 92.000000"
 preserveAspectRatio="xMidYMid meet">
<metadata>
Created by potrace 1.16, written by Peter Selinger 2001-2019
</metadata>
<g transform="translate(0.000000,92.000000) scale(0.100000,-0.100000)"
fill="#000000" stroke="none">
<path d="M485 823 c-9 -20 -27 -52 -42 -71 -22 -29 -30 -33 -57 -29 l-31 5 3
-177 c3 -163 10 -206 29 -187 5 4 10 76 13 159 l5 152 90 17 c50 10 116 17
148 18 l57 0 1 -32 c1 -18 3 -66 5 -105 1 -40 0 -92 -4 -115 -7 -40 -10 -43
-36 -40 -21 2 -26 0 -20 -10 74 -123 101 -82 105 157 l3 159 -27 19 c-25 19
-29 20 -104 4 -43 -9 -100 -19 -128 -22 l-50 -7 49 44 c27 23 56 48 64 54 13
9 11 13 -9 27 -35 25 -47 21 -64 -20z"/>
<path d="M155 831 c-3 -5 -1 -21 5 -35 25 -67 19 -462 -10 -614 -8 -42 -6 -60
7 -93 14 -37 17 -39 32 -24 14 13 17 55 22 273 3 141 6 259 7 261 1 2 19 -14
40 -37 45 -49 59 -52 68 -15 8 31 -9 47 -68 65 -36 11 -38 13 -38 52 1 23 5
60 9 83 4 23 5 46 2 51 -11 17 -70 42 -76 33z"/>
<path d="M549 674 c-7 -8 -33 -26 -58 -39 l-46 -24 40 2 c39 2 40 1 43 -35 l3
-36 -55 -7 c-81 -10 -74 -31 7 -25 25 1 27 0 18 -18 -6 -10 -26 -33 -46 -51
-20 -17 -31 -31 -24 -31 12 0 72 40 77 52 9 21 22 4 22 -27 0 -51 18 -43 26
12 l7 47 23 -27 c28 -33 47 -35 42 -5 -2 15 -13 25 -35 32 -46 13 -41 24 15
31 71 10 81 14 58 27 -10 6 -38 8 -64 4 l-45 -6 6 35 c4 26 2 37 -10 44 -13 7
-9 10 18 16 46 10 52 14 38 31 -15 19 -43 18 -60 -2z"/>
<path d="M606 604 c-28 -36 -28 -36 -5 -29 13 4 34 13 47 19 22 12 22 13 5 29
-18 15 -20 14 -47 -19z"/>
<path d="M440 594 c0 -16 23 -44 35 -44 22 0 18 28 -4 40 -22 11 -31 13 -31 4z"/>
<path d="M62 560 c-5 -14 -17 -42 -26 -64 -20 -47 -20 -80 -2 -95 39 -33 78
111 46 169 -7 12 -10 10 -18 -10z"/>
<path d="M496 383 c-3 -4 -4 -21 0 -39 l6 -32 -74 -6 c-40 -4 -93 -7 -117 -9
-53 -2 -64 -21 -21 -35 22 -8 53 -8 110 0 44 7 82 9 86 6 10 -11 -33 -74 -71
-102 -19 -15 -58 -38 -87 -51 -49 -23 -51 -25 -22 -25 86 0 178 62 219 148
l20 42 148 0 c89 0 147 4 147 10 0 5 -11 17 -25 26 -22 14 -40 15 -141 8 -106
-8 -115 -8 -111 8 7 25 -50 67 -67 51z"/>
<path d="M601 234 c2 -18 161 -154 179 -154 26 0 27 49 3 78 -32 38 -185 101
-182 76z"/>
</g>
</svg>
