<?xml version="1.0" standalone="no"?>
<!DOCTYPE svg PUBLIC "-//W3C//DTD SVG 20010904//EN"
 "http://www.w3.org/TR/2001/REC-SVG-20010904/DTD/svg10.dtd">
<svg version="1.0" xmlns="http://www.w3.org/2000/svg"
 width="96.000000pt" height="68.000000pt" viewBox="0 0 96.000000 68.000000"
 preserveAspectRatio="xMidYMid meet">
<metadata>
Created by potrace 1.16, written by Peter Selinger 2001-2019
</metadata>
<g transform="translate(0.000000,68.000000) scale(0.100000,-0.100000)"
fill="#000000" stroke="none">
<path d="M556 563 c-8 -30 -55 -101 -104 -155 -19 -21 -31 -38 -27 -38 7 0 66
40 75 50 10 13 214 29 227 18 17 -14 18 -254 1 -309 -12 -40 -25 -47 -59 -29
-26 14 -24 3 7 -37 30 -39 56 -42 78 -8 24 37 34 105 39 262 4 140 4 141 -19
152 -18 8 -49 6 -124 -6 -54 -10 -102 -14 -106 -10 -4 4 1 15 12 25 10 10 33
32 49 51 29 32 29 33 11 47 -30 22 -53 17 -60 -13z"/>
<path d="M285 527 c-13 -30 -45 -73 -70 -98 -70 -69 -57 -100 31 -73 26 8 49
12 51 11 2 -2 -24 -30 -57 -61 -85 -81 -66 -96 60 -47 30 12 65 19 77 16 31
-7 37 10 11 34 -27 26 -41 27 -34 4 5 -15 -5 -21 -51 -35 -32 -9 -59 -15 -61
-14 -2 3 125 130 146 146 25 19 34 41 22 55 -19 23 -28 18 -47 -22 -16 -33
-23 -38 -67 -46 -27 -4 -51 -6 -53 -3 -3 2 21 32 53 66 76 79 82 90 58 107
-30 22 -42 15 -69 -40z"/>
<path d="M502 346 c-41 -6 -71 -14 -67 -18 4 -4 8 -41 9 -82 0 -41 3 -77 6
-79 3 -3 31 0 63 5 52 9 60 8 72 -8 9 -13 17 -16 23 -9 12 12 23 197 11 190
-4 -3 -10 -1 -14 5 -7 11 -4 11 -103 -4z m78 -40 c0 -18 -7 -25 -31 -30 -60
-12 -69 -8 -69 24 0 29 1 30 50 30 46 0 50 -2 50 -24z m-2 -101 c-2 -1 -24 -6
-50 -9 l-48 -7 0 30 c0 29 2 30 48 33 43 3 47 1 50 -20 2 -13 2 -25 0 -27z"/>
<path d="M340 242 c0 -10 43 -52 53 -52 14 0 7 27 -11 43 -20 18 -42 22 -42 9z"/>
<path d="M266 198 c15 -27 37 -47 45 -42 15 9 10 41 -7 48 -27 10 -46 7 -38
-6z"/>
<path d="M140 175 c0 -19 56 -85 71 -85 33 0 24 47 -13 70 -32 19 -58 26 -58
15z"/>
</g>
</svg>
