<?xml version="1.0" standalone="no"?>
<!DOCTYPE svg PUBLIC "-//W3C//DTD SVG 20010904//EN"
 "http://www.w3.org/TR/2001/REC-SVG-20010904/DTD/svg10.dtd">
<svg version="1.0" xmlns="http://www.w3.org/2000/svg"
 width="96.000000pt" height="68.000000pt" viewBox="0 0 96.000000 68.000000"
 preserveAspectRatio="xMidYMid meet">
<metadata>
Created by potrace 1.16, written by Peter Selinger 2001-2019
</metadata>
<g transform="translate(0.000000,68.000000) scale(0.100000,-0.100000)"
fill="#000000" stroke="none">
<path d="M213 537 c-72 -14 -69 -32 3 -23 l57 6 -7 -41 c-4 -23 -9 -45 -11
-50 -3 -4 -32 -10 -66 -14 -44 -5 -58 -10 -50 -18 16 -16 14 -59 -4 -83 -8
-12 -11 -24 -8 -28 4 -3 35 -3 70 0 l63 7 0 -32 c0 -47 -20 -119 -37 -133 -11
-9 -22 -9 -44 -1 -37 14 -37 4 0 -31 41 -39 70 -32 99 24 12 24 22 61 22 81 0
20 5 51 11 69 16 44 1 52 -79 44 l-63 -6 16 31 c9 18 13 35 11 40 -7 11 28 21
72 21 19 0 31 4 27 10 -3 5 6 35 21 66 36 77 22 85 -103 61z"/>
</g>
</svg>
