<?xml version="1.0" standalone="no"?>
<!DOCTYPE svg PUBLIC "-//W3C//DTD SVG 20010904//EN"
 "http://www.w3.org/TR/2001/REC-SVG-20010904/DTD/svg10.dtd">
<svg version="1.0" xmlns="http://www.w3.org/2000/svg"
 width="96.000000pt" height="68.000000pt" viewBox="0 0 96.000000 68.000000"
 preserveAspectRatio="xMidYMid meet">
<metadata>
Created by potrace 1.16, written by Peter Selinger 2001-2019
</metadata>
<g transform="translate(0.000000,68.000000) scale(0.100000,-0.100000)"
fill="#000000" stroke="none">
<path d="M449 338 c-7 -18 -32 -53 -54 -78 -36 -40 -37 -43 -10 -25 16 10 41
29 55 42 23 22 70 32 70 16 0 -5 -13 -30 -29 -58 -32 -55 -79 -108 -126 -142
-48 -35 -12 -26 41 10 54 37 179 192 168 209 -4 6 -23 8 -45 5 -41 -5 -49 2
-24 23 18 15 11 30 -14 30 -11 0 -24 -13 -32 -32z"/>
</g>
</svg>
