<?xml version="1.0" standalone="no"?>
<!DOCTYPE svg PUBLIC "-//W3C//DTD SVG 20010904//EN"
 "http://www.w3.org/TR/2001/REC-SVG-20010904/DTD/svg10.dtd">
<svg version="1.0" xmlns="http://www.w3.org/2000/svg"
 width="96.000000pt" height="68.000000pt" viewBox="0 0 96.000000 68.000000"
 preserveAspectRatio="xMidYMid meet">
<metadata>
Created by potrace 1.16, written by Peter Selinger 2001-2019
</metadata>
<g transform="translate(0.000000,68.000000) scale(0.100000,-0.100000)"
fill="#000000" stroke="none">
<path d="M343 529 c-18 -39 -27 -69 -21 -67 7 3 34 30 62 62 41 46 47 59 36
66 -31 20 -45 9 -77 -61z"/>
<path d="M170 542 c0 -18 46 -62 64 -62 19 0 22 33 3 48 -19 16 -67 26 -67 14z"/>
<path d="M350 440 c-19 -4 -74 -13 -122 -20 -55 -7 -86 -16 -82 -22 10 -16
212 4 284 28 13 4 13 6 0 14 -17 11 -31 11 -80 0z"/>
</g>
</svg>
