<?xml version="1.0" standalone="no"?>
<!DOCTYPE svg PUBLIC "-//W3C//DTD SVG 20010904//EN"
 "http://www.w3.org/TR/2001/REC-SVG-20010904/DTD/svg10.dtd">
<svg version="1.0" xmlns="http://www.w3.org/2000/svg"
 width="96.000000pt" height="68.000000pt" viewBox="0 0 96.000000 68.000000"
 preserveAspectRatio="xMidYMid meet">
<metadata>
Created by potrace 1.16, written by Peter Selinger 2001-2019
</metadata>
<g transform="translate(0.000000,68.000000) scale(0.100000,-0.100000)"
fill="#000000" stroke="none">
<path d="M275 583 c4 -10 10 -50 12 -89 5 -68 4 -71 -18 -77 -13 -4 -37 -7
-54 -7 -16 0 -37 -5 -45 -10 -11 -7 5 -10 53 -10 l67 0 0 -48 0 -48 -90 -34
c-49 -19 -90 -38 -90 -41 0 -4 14 -12 30 -19 28 -12 34 -10 86 24 31 21 58 36
60 33 2 -2 1 -31 -2 -65 -7 -62 -7 -62 -39 -62 l-33 0 39 -42 c37 -41 38 -42
59 -23 18 16 20 30 20 122 l0 104 37 21 c36 22 32 39 -6 19 -29 -16 -31 -15
-31 28 0 37 1 38 42 47 50 11 48 29 -2 29 -35 0 -35 0 -31 40 1 22 7 48 12 57
15 28 10 44 -16 56 -40 18 -69 16 -60 -5z"/>
</g>
</svg>
