<?xml version="1.0" standalone="no"?>
<!DOCTYPE svg PUBLIC "-//W3C//DTD SVG 20010904//EN"
 "http://www.w3.org/TR/2001/REC-SVG-20010904/DTD/svg10.dtd">
<svg version="1.0" xmlns="http://www.w3.org/2000/svg"
 width="96.000000pt" height="68.000000pt" viewBox="0 0 96.000000 68.000000"
 preserveAspectRatio="xMidYMid meet">
<metadata>
Created by potrace 1.16, written by Peter Selinger 2001-2019
</metadata>
<g transform="translate(0.000000,68.000000) scale(0.100000,-0.100000)"
fill="#000000" stroke="none">
<path d="M237 563 c11 -51 6 -302 -7 -387 -9 -58 -8 -72 5 -93 16 -24 17 -24
30 -6 11 13 14 55 15 159 0 78 3 155 6 173 l6 31 28 -20 c36 -25 50 -25 50 0
0 21 -4 24 -54 35 -28 6 -29 7 -22 60 5 48 4 55 -16 69 -38 27 -50 21 -41 -21z"/>
<path d="M130 373 c-23 -53 -23 -86 1 -91 20 -4 39 38 39 88 0 56 -16 57 -40
3z"/>
</g>
</svg>
