<?xml version="1.0" standalone="no"?>
<!DOCTYPE svg PUBLIC "-//W3C//DTD SVG 20010904//EN"
 "http://www.w3.org/TR/2001/REC-SVG-20010904/DTD/svg10.dtd">
<svg version="1.0" xmlns="http://www.w3.org/2000/svg"
 width="96.000000pt" height="68.000000pt" viewBox="0 0 96.000000 68.000000"
 preserveAspectRatio="xMidYMid meet">
<metadata>
Created by potrace 1.16, written by Peter Selinger 2001-2019
</metadata>
<g transform="translate(0.000000,68.000000) scale(0.100000,-0.100000)"
fill="#000000" stroke="none">
<path d="M340 319 c-14 -6 -47 -9 -73 -6 l-49 4 6 -30 c3 -16 6 -42 6 -58 0
-26 3 -29 33 -29 17 0 55 3 82 6 41 5 51 10 52 26 1 11 9 28 17 37 42 46 -6
77 -74 50z m30 -41 c0 -35 -11 -45 -58 -53 l-43 -7 3 33 c2 26 9 35 28 40 51
14 70 10 70 -13z"/>
</g>
</svg>
