<?xml version="1.0" standalone="no"?>
<!DOCTYPE svg PUBLIC "-//W3C//DTD SVG 20010904//EN"
 "http://www.w3.org/TR/2001/REC-SVG-20010904/DTD/svg10.dtd">
<svg version="1.0" xmlns="http://www.w3.org/2000/svg"
 width="96.000000pt" height="68.000000pt" viewBox="0 0 96.000000 68.000000"
 preserveAspectRatio="xMidYMid meet">
<metadata>
Created by potrace 1.16, written by Peter Selinger 2001-2019
</metadata>
<g transform="translate(0.000000,68.000000) scale(0.100000,-0.100000)"
fill="#000000" stroke="none">
<path d="M403 313 c-10 -29 -41 -65 -94 -110 -28 -24 -48 -43 -44 -43 15 0
102 50 119 69 15 16 31 21 73 21 29 0 53 -4 53 -9 0 -33 -133 -157 -215 -199
-24 -13 -33 -21 -22 -22 24 0 113 46 160 82 45 36 144 139 148 153 5 23 -42
33 -94 19 -58 -15 -71 -11 -38 12 17 13 20 19 10 30 -16 19 -48 18 -56 -3z"/>
</g>
</svg>
