<?xml version="1.0" standalone="no"?>
<!DOCTYPE svg PUBLIC "-//W3C//DTD SVG 20010904//EN"
 "http://www.w3.org/TR/2001/REC-SVG-20010904/DTD/svg10.dtd">
<svg version="1.0" xmlns="http://www.w3.org/2000/svg"
 width="96.000000pt" height="68.000000pt" viewBox="0 0 96.000000 68.000000"
 preserveAspectRatio="xMidYMid meet">
<metadata>
Created by potrace 1.16, written by Peter Selinger 2001-2019
</metadata>
<g transform="translate(0.000000,68.000000) scale(0.100000,-0.100000)"
fill="#000000" stroke="none">
<path d="M530 572 c0 -17 51 -61 65 -56 22 9 18 30 -7 48 -23 17 -58 21 -58 8z"/>
<path d="M195 541 c-3 -6 -1 -19 5 -30 5 -11 10 -38 10 -60 l0 -41 -60 0 c-60
0 -72 -8 -46 -29 7 -6 16 -28 20 -49 6 -43 34 -85 42 -64 3 6 14 12 25 12 16
0 19 -7 19 -45 0 -40 -3 -45 -27 -51 -15 -4 -40 -7 -55 -7 -35 0 -36 -20 -4
-35 21 -9 37 -6 104 23 93 41 97 41 115 15 16 -23 27 -17 27 16 0 22 -33 54
-56 54 -7 0 -11 -7 -10 -16 0 -9 -9 -20 -21 -25 -22 -8 -23 -6 -23 36 l0 44
48 3 c39 3 47 6 48 24 1 11 8 31 17 45 15 22 20 68 7 67 -3 0 -29 0 -58 1
l-54 1 7 49 c4 27 3 51 -2 54 -20 12 -72 17 -78 8z m119 -149 c10 -16 -10 -67
-27 -70 -14 -3 -17 5 -17 37 0 34 3 41 19 41 11 0 22 -4 25 -8z m-104 -42 c0
-33 -4 -40 -19 -40 -11 0 -21 9 -25 23 -10 37 -7 45 17 50 12 2 23 5 25 6 1 0
2 -17 2 -39z"/>
<path d="M655 509 c-22 -6 -82 -16 -134 -24 -52 -8 -95 -16 -97 -18 -2 -2 1
-18 7 -35 21 -60 -36 -277 -88 -334 -9 -10 -13 -21 -10 -25 18 -17 100 108
118 180 l11 47 55 0 c51 0 54 -2 51 -22 -2 -19 -10 -24 -40 -26 -21 -2 -38 -8
-38 -14 0 -6 16 -9 39 -6 37 3 40 1 45 -26 8 -38 -7 -48 -67 -43 -33 3 -44 1
-38 -7 5 -6 16 -33 24 -61 14 -49 15 -50 53 -48 98 4 184 16 184 24 0 5 11 27
25 49 l25 40 -27 11 c-16 6 -55 9 -91 5 l-63 -5 6 32 c10 46 11 47 66 47 47 0
49 1 49 28 0 40 17 52 72 52 47 0 63 12 32 24 -9 3 -29 6 -45 6 -24 0 -29 4
-29 24 0 29 -31 39 -91 30 -40 -7 -42 -6 -37 14 4 12 2 25 -3 28 -22 14 -4 22
61 26 65 5 90 12 79 22 -11 10 -69 13 -104 5z m-87 -76 c3 -28 0 -33 -25 -39
-48 -10 -49 -12 -10 -13 36 -1 38 -3 35 -28 -3 -26 -7 -28 -50 -31 -54 -3 -54
-4 -40 88 6 36 12 45 32 51 42 12 55 6 58 -28z m130 -65 c-2 -19 -10 -24 -40
-26 -35 -3 -38 -1 -38 22 0 24 4 26 41 26 36 0 40 -2 37 -22z m-20 -70 c-2
-18 -11 -24 -34 -26 -28 -3 -31 -1 -27 20 3 18 12 24 34 26 26 2 30 -1 27 -20z
m14 -150 c2 -6 2 -23 0 -38 -4 -25 -9 -28 -55 -34 -96 -11 -105 -9 -112 25 -4
17 -5 32 -2 35 4 5 106 21 144 23 12 0 23 -4 25 -11z"/>
</g>
</svg>
