<?xml version="1.0" standalone="no"?>
<!DOCTYPE svg PUBLIC "-//W3C//DTD SVG 20010904//EN"
 "http://www.w3.org/TR/2001/REC-SVG-20010904/DTD/svg10.dtd">
<svg version="1.0" xmlns="http://www.w3.org/2000/svg"
 width="96.000000pt" height="68.000000pt" viewBox="0 0 96.000000 68.000000"
 preserveAspectRatio="xMidYMid meet">
<metadata>
Created by potrace 1.16, written by Peter Selinger 2001-2019
</metadata>
<g transform="translate(0.000000,68.000000) scale(0.100000,-0.100000)"
fill="#000000" stroke="none">
<path d="M540 574 c0 -5 9 -20 20 -34 11 -14 20 -30 20 -36 0 -14 -124 -27
-128 -13 -8 20 -23 7 -47 -41 -23 -45 -24 -51 -9 -57 17 -6 53 30 54 53 0 6
46 16 108 23 59 6 124 15 145 18 32 5 37 3 37 -14 0 -10 -6 -25 -12 -32 -11
-11 -10 -13 2 -9 60 22 100 42 100 50 0 5 -17 16 -37 24 -35 15 -118 13 -160
-3 -9 -3 -13 3 -13 20 0 13 -6 29 -13 35 -17 14 -67 26 -67 16z"/>
</g>
</svg>
