<?xml version="1.0" standalone="no"?>
<!DOCTYPE svg PUBLIC "-//W3C//DTD SVG 20010904//EN"
 "http://www.w3.org/TR/2001/REC-SVG-20010904/DTD/svg10.dtd">
<svg version="1.0" xmlns="http://www.w3.org/2000/svg"
 width="96.000000pt" height="68.000000pt" viewBox="0 0 96.000000 68.000000"
 preserveAspectRatio="xMidYMid meet">
<metadata>
Created by potrace 1.16, written by Peter Selinger 2001-2019
</metadata>
<g transform="translate(0.000000,68.000000) scale(0.100000,-0.100000)"
fill="#000000" stroke="none">
<path d="M600 393 c-26 -8 -64 -12 -90 -9 l-45 5 3 -66 4 -65 81 6 c106 9 127
15 127 33 0 8 8 31 17 50 16 34 16 36 -2 49 -23 17 -37 16 -95 -3z m50 -22 c0
-5 -3 -22 -6 -39 -5 -27 -11 -31 -62 -41 -82 -16 -82 -16 -75 27 3 20 7 38 8
40 3 4 90 19 118 21 9 0 17 -3 17 -8z"/>
</g>
</svg>
