<?xml version="1.0" standalone="no"?>
<!DOCTYPE svg PUBLIC "-//W3C//DTD SVG 20010904//EN"
 "http://www.w3.org/TR/2001/REC-SVG-20010904/DTD/svg10.dtd">
<svg version="1.0" xmlns="http://www.w3.org/2000/svg"
 width="96.000000pt" height="68.000000pt" viewBox="0 0 96.000000 68.000000"
 preserveAspectRatio="xMidYMid meet">
<metadata>
Created by potrace 1.16, written by Peter Selinger 2001-2019
</metadata>
<g transform="translate(0.000000,68.000000) scale(0.100000,-0.100000)"
fill="#000000" stroke="none">
<path d="M455 243 c-4 -21 -13 -45 -21 -54 -13 -15 -13 -17 0 -22 21 -8 79 86
63 102 -20 20 -35 11 -42 -26z m-2 -58 c-3 -9 -8 -14 -10 -11 -3 3 -2 9 2 15
9 16 15 13 8 -4z"/>
<path d="M544 176 c11 -9 24 -16 30 -16 12 0 7 5 -24 19 -24 11 -24 11 -6 -3z"/>
<path d="M388 129 c-15 -16 -22 -29 -18 -29 15 0 61 48 52 54 -5 3 -20 -8 -34
-25z"/>
<path d="M587 154 c-8 -9 90 -75 118 -80 70 -12 106 -8 99 11 -4 10 -20 15
-44 15 -20 0 -51 7 -68 16 -18 8 -37 12 -43 8 -8 -5 -9 -3 -4 6 6 9 2 10 -15
5 -17 -5 -21 -4 -15 5 5 8 4 11 -3 6 -5 -3 -12 -1 -14 5 -2 5 -7 7 -11 3z"/>
</g>
</svg>
