<?xml version="1.0" standalone="no"?>
<!DOCTYPE svg PUBLIC "-//W3C//DTD SVG 20010904//EN"
 "http://www.w3.org/TR/2001/REC-SVG-20010904/DTD/svg10.dtd">
<svg version="1.0" xmlns="http://www.w3.org/2000/svg"
 width="96.000000pt" height="68.000000pt" viewBox="0 0 96.000000 68.000000"
 preserveAspectRatio="xMidYMid meet">
<metadata>
Created by potrace 1.16, written by Peter Selinger 2001-2019
</metadata>
<g transform="translate(0.000000,68.000000) scale(0.100000,-0.100000)"
fill="#000000" stroke="none">
<path d="M304 500 c-11 -4 -46 -11 -77 -15 -60 -8 -78 -25 -27 -25 26 0 30 -4
30 -28 0 -32 -35 -90 -103 -174 -26 -32 -43 -58 -39 -58 19 0 99 69 123 106
62 95 79 125 79 143 0 15 10 20 48 26 56 8 69 15 51 26 -17 11 -57 10 -85 -1z"/>
</g>
</svg>
