<?xml version="1.0" standalone="no"?>
<!DOCTYPE svg PUBLIC "-//W3C//DTD SVG 20010904//EN"
 "http://www.w3.org/TR/2001/REC-SVG-20010904/DTD/svg10.dtd">
<svg version="1.0" xmlns="http://www.w3.org/2000/svg"
 width="90.000000pt" height="92.000000pt" viewBox="0 0 90.000000 92.000000"
 preserveAspectRatio="xMidYMid meet">
<metadata>
Created by potrace 1.16, written by Peter Selinger 2001-2019
</metadata>
<g transform="translate(0.000000,92.000000) scale(0.100000,-0.100000)"
fill="#000000" stroke="none">
<path d="M655 850 c-4 -6 -2 -25 4 -43 5 -17 13 -64 16 -103 8 -83 14 -78
-107 -94 -113 -16 -119 -18 -85 -36 26 -14 71 -11 174 11 l23 5 -5 -177 c-3
-98 -8 -193 -11 -210 -5 -36 -16 -40 -73 -23 -19 5 -36 8 -38 6 -4 -4 114
-119 127 -124 5 -2 16 10 24 27 13 25 16 72 16 264 l0 234 70 5 c39 3 74 9 78
13 4 3 -4 16 -18 27 -20 16 -33 19 -72 14 l-48 -7 0 46 c0 25 7 62 15 82 17
41 11 54 -36 79 -33 17 -46 18 -54 4z"/>
<path d="M335 730 c-16 -5 -74 -15 -128 -23 -54 -8 -101 -17 -105 -21 -14 -15
26 -27 81 -23 36 2 57 -1 57 -7 0 -6 -13 -39 -30 -73 -32 -69 -34 -70 -134
-63 -34 2 -38 0 -32 -16 14 -36 28 -148 23 -185 -3 -24 0 -45 9 -56 25 -33 35
4 32 114 l-3 101 28 5 c15 2 29 1 32 -1 3 -3 5 -43 5 -88 0 -74 10 -109 24
-86 3 5 8 49 12 99 6 88 8 91 33 96 14 3 30 3 35 0 5 -3 6 -50 3 -103 -5 -96
3 -140 22 -112 4 8 14 60 20 115 6 56 15 105 20 110 5 5 21 7 35 3 28 -7 31
-27 27 -151 -3 -79 -8 -87 -42 -80 l-30 7 23 -46 c14 -27 30 -46 40 -46 34 0
50 45 65 187 l14 138 -28 23 c-17 14 -36 20 -48 17 -18 -5 -175 -35 -183 -35
-2 0 20 26 48 59 31 36 48 64 45 73 -5 12 5 17 45 22 63 8 80 15 80 31 0 24
-40 30 -95 15z"/>
<path d="M500 465 c0 -3 14 -27 31 -55 31 -50 61 -65 73 -35 10 28 -12 64 -50
80 -38 15 -54 19 -54 10z"/>
</g>
</svg>
