<?xml version="1.0" standalone="no"?>
<!DOCTYPE svg PUBLIC "-//W3C//DTD SVG 20010904//EN"
 "http://www.w3.org/TR/2001/REC-SVG-20010904/DTD/svg10.dtd">
<svg version="1.0" xmlns="http://www.w3.org/2000/svg"
 width="96.000000pt" height="68.000000pt" viewBox="0 0 96.000000 68.000000"
 preserveAspectRatio="xMidYMid meet">
<metadata>
Created by potrace 1.16, written by Peter Selinger 2001-2019
</metadata>
<g transform="translate(0.000000,68.000000) scale(0.100000,-0.100000)"
fill="#000000" stroke="none">
<path d="M207 548 c11 -62 8 -289 -6 -390 -12 -91 -5 -128 23 -128 23 0 26 25
26 195 0 89 3 176 6 194 l6 31 28 -20 c35 -25 63 -26 58 -2 -2 10 -20 22 -46
31 l-44 13 7 48 c6 42 4 50 -14 59 -41 22 -52 15 -44 -31z"/>
<path d="M118 374 c-23 -44 -24 -94 -3 -94 26 0 51 88 32 113 -11 14 -14 12
-29 -19z"/>
</g>
</svg>
