<?xml version="1.0" standalone="no"?>
<!DOCTYPE svg PUBLIC "-//W3C//DTD SVG 20010904//EN"
 "http://www.w3.org/TR/2001/REC-SVG-20010904/DTD/svg10.dtd">
<svg version="1.0" xmlns="http://www.w3.org/2000/svg"
 width="90.000000pt" height="92.000000pt" viewBox="0 0 90.000000 92.000000"
 preserveAspectRatio="xMidYMid meet">
<metadata>
Created by potrace 1.16, written by Peter Selinger 2001-2019
</metadata>
<g transform="translate(0.000000,92.000000) scale(0.100000,-0.100000)"
fill="#000000" stroke="none">
<path d="M340 831 c-16 -41 -44 -63 -72 -59 -17 2 -22 -1 -18 -12 3 -8 5 -57
5 -107 1 -120 10 -129 65 -64 41 49 44 50 62 34 26 -23 42 -6 29 30 -10 26
-55 56 -67 44 -3 -3 -1 -14 5 -25 9 -17 6 -23 -14 -36 -13 -9 -27 -16 -30 -16
-3 0 -5 31 -5 69 l0 68 50 24 c54 26 60 37 32 62 -25 23 -28 22 -42 -12z"/>
<path d="M735 818 c11 -51 17 -462 8 -568 l-8 -95 -47 2 c-27 1 -48 -3 -48 -8
0 -5 3 -9 8 -9 4 0 29 -21 56 -47 l49 -46 19 23 c16 20 18 45 18 284 1 240 7
350 25 433 6 28 4 33 -23 47 -50 26 -65 22 -57 -16z"/>
<path d="M505 794 c-27 -7 -60 -14 -72 -14 -31 0 -29 -18 2 -26 15 -4 25 -13
25 -25 0 -31 -40 -128 -59 -141 -10 -7 -24 -31 -31 -53 -9 -28 -38 -66 -95
-122 -53 -52 -74 -78 -58 -72 43 16 109 66 156 119 25 27 48 50 51 50 3 0 30
-16 60 -35 58 -37 96 -45 96 -20 0 27 -35 51 -93 64 -34 7 -57 18 -57 26 0 7
-7 16 -16 19 -13 5 -11 11 14 34 16 15 42 52 57 82 25 50 26 54 10 66 -16 12
-15 14 8 19 47 12 62 3 59 -35 -1 -19 -7 -50 -13 -68 -10 -30 -15 -33 -40 -30
l-28 4 17 -29 c39 -67 72 -38 102 88 20 85 20 90 3 102 -20 16 -33 15 -98 -3z"/>
<path d="M80 791 c0 -6 20 -32 45 -58 42 -43 47 -46 61 -31 23 23 11 63 -23
76 -49 20 -83 25 -83 13z"/>
<path d="M30 603 c0 -5 16 -28 36 -52 44 -51 79 -54 79 -6 0 22 -7 33 -26 42
-38 18 -89 27 -89 16z"/>
<path d="M617 482 c3 -64 9 -121 14 -127 21 -22 30 16 27 120 -3 100 -5 108
-25 116 -21 8 -21 7 -16 -109z"/>
<path d="M156 417 c-21 -37 -60 -91 -87 -118 -27 -28 -49 -54 -49 -59 0 -23
33 -90 45 -90 6 0 24 30 38 68 14 37 42 104 62 150 48 108 42 140 -9 49z"/>
<path d="M387 433 c-43 -13 -56 -33 -22 -33 13 0 25 -21 25 -45 0 -8 -19 -17
-50 -22 -63 -10 -61 -28 2 -28 l47 0 3 -59 c4 -70 -4 -77 -104 -84 -37 -3 -68
-8 -68 -12 0 -3 11 -17 25 -30 24 -22 28 -23 58 -11 18 7 85 29 150 49 79 24
117 40 117 50 0 10 -7 12 -22 8 -13 -4 -36 -9 -53 -12 l-30 -5 24 18 c62 45
67 51 55 70 -19 32 -40 26 -59 -16 -10 -22 -26 -48 -36 -57 -18 -17 -19 -15
-19 44 l0 60 43 7 c23 4 49 11 57 15 22 13 -36 32 -72 25 -25 -6 -28 -4 -26
19 2 18 11 29 33 37 27 10 28 12 10 19 -26 11 -31 11 -88 -7z"/>
<path d="M286 258 c23 -40 47 -68 59 -68 14 0 26 33 16 47 -17 26 -90 46 -75
21z"/>
</g>
</svg>
