<?xml version="1.0" standalone="no"?>
<!DOCTYPE svg PUBLIC "-//W3C//DTD SVG 20010904//EN"
 "http://www.w3.org/TR/2001/REC-SVG-20010904/DTD/svg10.dtd">
<svg version="1.0" xmlns="http://www.w3.org/2000/svg"
 width="96.000000pt" height="68.000000pt" viewBox="0 0 96.000000 68.000000"
 preserveAspectRatio="xMidYMid meet">
<metadata>
Created by potrace 1.16, written by Peter Selinger 2001-2019
</metadata>
<g transform="translate(0.000000,68.000000) scale(0.100000,-0.100000)"
fill="#000000" stroke="none">
<path d="M375 500 c-11 -5 -37 -9 -57 -9 l-37 -1 11 -31 c7 -20 9 -71 5 -135
-6 -98 -5 -104 14 -104 10 0 19 6 19 14 0 9 15 15 45 18 31 2 45 -1 45 -9 0
-7 9 -13 19 -13 17 0 19 10 23 128 4 105 2 129 -11 140 -17 14 -47 15 -76 2z
m45 -65 c0 -42 -1 -44 -37 -54 -54 -15 -53 -16 -53 38 0 53 5 59 58 60 31 1
32 0 32 -44z m0 -115 c0 -27 -4 -40 -14 -40 -7 0 -28 -3 -45 -6 -31 -6 -31 -6
-31 34 0 43 7 48 63 51 25 1 27 -2 27 -39z"/>
</g>
</svg>
