<?xml version="1.0" standalone="no"?>
<!DOCTYPE svg PUBLIC "-//W3C//DTD SVG 20010904//EN"
 "http://www.w3.org/TR/2001/REC-SVG-20010904/DTD/svg10.dtd">
<svg version="1.0" xmlns="http://www.w3.org/2000/svg"
 width="96.000000pt" height="68.000000pt" viewBox="0 0 96.000000 68.000000"
 preserveAspectRatio="xMidYMid meet">
<metadata>
Created by potrace 1.16, written by Peter Selinger 2001-2019
</metadata>
<g transform="translate(0.000000,68.000000) scale(0.100000,-0.100000)"
fill="#000000" stroke="none">
<path d="M673 303 c-7 -3 -13 -18 -13 -33 0 -26 -4 -29 -45 -36 -53 -7 -51
-19 3 -19 35 0 37 -2 40 -36 l3 -37 -50 -7 c-28 -4 -51 -12 -51 -17 0 -7 15
-8 38 -5 20 3 82 9 136 13 88 6 97 9 80 21 -14 10 -34 12 -72 7 l-53 -6 3 38
c3 36 5 39 41 45 53 8 58 19 9 19 -33 0 -42 4 -42 18 0 24 -13 40 -27 35z"/>
</g>
</svg>
