<?xml version="1.0" standalone="no"?>
<!DOCTYPE svg PUBLIC "-//W3C//DTD SVG 20010904//EN"
 "http://www.w3.org/TR/2001/REC-SVG-20010904/DTD/svg10.dtd">
<svg version="1.0" xmlns="http://www.w3.org/2000/svg"
 width="96.000000pt" height="68.000000pt" viewBox="0 0 96.000000 68.000000"
 preserveAspectRatio="xMidYMid meet">
<metadata>
Created by potrace 1.16, written by Peter Selinger 2001-2019
</metadata>
<g transform="translate(0.000000,68.000000) scale(0.100000,-0.100000)"
fill="#000000" stroke="none">
<path d="M475 539 c-16 -5 -43 -6 -59 -3 -25 5 -28 4 -21 -12 4 -11 10 -44 13
-75 l4 -57 64 2 65 1 10 40 c5 22 14 52 19 66 7 23 5 28 -16 38 -29 13 -38 13
-79 0z m43 -37 c3 -16 -2 -22 -16 -22 -11 0 -27 -3 -36 -6 -12 -5 -16 0 -16
19 0 19 6 27 23 30 33 6 42 2 45 -21z m-8 -62 c0 -11 -6 -20 -12 -20 -7 0 -23
-3 -35 -6 -20 -5 -23 -2 -23 20 0 23 4 26 35 26 28 0 35 -4 35 -20z"/>
</g>
</svg>
