<?xml version="1.0" standalone="no"?>
<!DOCTYPE svg PUBLIC "-//W3C//DTD SVG 20010904//EN"
 "http://www.w3.org/TR/2001/REC-SVG-20010904/DTD/svg10.dtd">
<svg version="1.0" xmlns="http://www.w3.org/2000/svg"
 width="90.000000pt" height="92.000000pt" viewBox="0 0 90.000000 92.000000"
 preserveAspectRatio="xMidYMid meet">
<metadata>
Created by potrace 1.16, written by Peter Selinger 2001-2019
</metadata>
<g transform="translate(0.000000,92.000000) scale(0.100000,-0.100000)"
fill="#000000" stroke="none">
<path d="M556 838 c-4 -18 -20 -55 -37 -81 -26 -43 -33 -48 -56 -42 -24 6 -25
4 -17 -22 10 -30 9 -188 0 -263 -7 -53 12 -92 35 -73 21 16 116 34 200 36 l74
2 -1 -90 c0 -68 -5 -101 -20 -130 -18 -39 -20 -40 -66 -38 -27 2 -48 -1 -48
-5 0 -4 18 -25 39 -46 44 -43 68 -43 99 2 27 39 40 85 51 184 6 48 15 96 21
107 9 17 6 23 -17 38 -33 22 -110 21 -229 -2 -99 -19 -94 -19 -94 10 0 22 4
25 36 25 51 0 177 20 188 30 17 16 -43 22 -107 11 -94 -16 -117 -15 -117 8 0
22 44 33 145 35 l59 2 29 74 c15 41 32 79 38 84 15 16 11 25 -21 41 -36 18
-63 19 -115 1 -22 -7 -56 -16 -75 -20 l-35 -6 60 60 60 61 -24 20 c-33 27 -48
24 -55 -13z m134 -145 c0 -31 -14 -40 -70 -46 -30 -3 -70 -9 -87 -13 -32 -6
-33 -5 -33 25 0 28 3 31 33 32 17 1 43 5 57 9 14 4 42 8 63 9 29 1 37 -3 37
-16z m-21 -92 c-9 -25 -16 -29 -62 -35 -29 -3 -67 -9 -86 -12 -31 -6 -33 -5
-26 17 4 13 8 25 9 26 1 2 129 26 168 32 4 1 2 -12 -3 -28z"/>
<path d="M270 797 c0 -7 20 -34 44 -60 30 -33 48 -46 60 -41 19 7 21 43 3 67
-16 23 -107 51 -107 34z"/>
<path d="M130 781 c0 -25 -28 -82 -64 -130 -14 -19 -24 -37 -21 -39 9 -9 86
52 127 100 45 54 42 70 -14 83 -24 6 -28 4 -28 -14z"/>
<path d="M210 661 c0 -61 -78 -197 -169 -294 -24 -26 -42 -50 -39 -52 3 -3 24
9 48 26 56 41 65 31 83 -89 14 -94 22 -116 36 -94 4 6 44 17 89 24 52 7 79 15
73 21 -10 10 17 100 44 140 14 22 14 26 0 40 -27 27 -54 29 -110 8 -56 -21
-120 -27 -142 -13 -9 5 -2 20 22 51 19 23 46 62 60 87 14 24 30 44 34 44 5 0
32 -27 61 -60 61 -70 90 -78 90 -26 0 39 -34 72 -103 101 -37 15 -37 15 -22
45 14 28 14 31 -5 50 -29 29 -50 26 -50 -9z m86 -314 c3 -8 1 -36 -3 -63 -8
-47 -10 -49 -53 -61 -25 -7 -50 -11 -56 -9 -6 2 -12 29 -13 59 l-2 56 43 11
c24 6 48 13 53 15 19 7 26 5 31 -8z"/>
<path d="M660 294 c34 -48 63 -56 68 -18 4 27 -40 64 -75 64 l-24 0 31 -46z"/>
<path d="M566 280 c30 -45 54 -52 54 -16 0 27 -33 56 -62 56 -16 0 -15 -5 8
-40z"/>
<path d="M392 262 c-26 -52 -26 -97 -2 -97 24 0 53 70 46 110 -4 19 -10 35
-14 35 -4 0 -18 -22 -30 -48z"/>
<path d="M480 271 c22 -45 36 -56 45 -41 12 20 -4 56 -30 68 -37 17 -38 16
-15 -27z"/>
</g>
</svg>
