<?xml version="1.0" standalone="no"?>
<!DOCTYPE svg PUBLIC "-//W3C//DTD SVG 20010904//EN"
 "http://www.w3.org/TR/2001/REC-SVG-20010904/DTD/svg10.dtd">
<svg version="1.0" xmlns="http://www.w3.org/2000/svg"
 width="96.000000pt" height="68.000000pt" viewBox="0 0 96.000000 68.000000"
 preserveAspectRatio="xMidYMid meet">
<metadata>
Created by potrace 1.16, written by Peter Selinger 2001-2019
</metadata>
<g transform="translate(0.000000,68.000000) scale(0.100000,-0.100000)"
fill="#000000" stroke="none">
<path d="M535 420 c-27 -4 -103 -11 -168 -15 -65 -5 -114 -11 -109 -14 5 -3
17 -21 26 -40 l18 -33 76 7 c42 4 119 9 170 10 87 2 95 4 123 31 16 15 29 33
29 40 0 23 -65 29 -165 14z m93 -32 c-3 -22 -10 -24 -128 -35 -171 -16 -177
-16 -184 3 -4 9 -5 18 -3 20 4 4 245 31 290 33 24 1 28 -3 25 -21z"/>
</g>
</svg>
