<?xml version="1.0" standalone="no"?>
<!DOCTYPE svg PUBLIC "-//W3C//DTD SVG 20010904//EN"
 "http://www.w3.org/TR/2001/REC-SVG-20010904/DTD/svg10.dtd">
<svg version="1.0" xmlns="http://www.w3.org/2000/svg"
 width="96.000000pt" height="68.000000pt" viewBox="0 0 96.000000 68.000000"
 preserveAspectRatio="xMidYMid meet">
<metadata>
Created by potrace 1.16, written by Peter Selinger 2001-2019
</metadata>
<g transform="translate(0.000000,68.000000) scale(0.100000,-0.100000)"
fill="#000000" stroke="none">
<path d="M440 165 c-58 -7 -105 -14 -106 -14 -6 -5 -12 -103 -7 -120 6 -23 33
-29 33 -7 0 20 13 22 125 25 102 3 119 6 97 20 -8 5 -3 17 18 43 24 29 27 38
16 47 -22 18 -66 20 -176 6z m100 -42 c0 -16 -4 -33 -8 -39 -8 -13 -156 -23
-159 -11 -2 4 -3 20 -3 36 0 33 10 36 118 39 51 2 52 1 52 -25z"/>
</g>
</svg>
