<?xml version="1.0" standalone="no"?>
<!DOCTYPE svg PUBLIC "-//W3C//DTD SVG 20010904//EN"
 "http://www.w3.org/TR/2001/REC-SVG-20010904/DTD/svg10.dtd">
<svg version="1.0" xmlns="http://www.w3.org/2000/svg"
 width="96.000000pt" height="68.000000pt" viewBox="0 0 96.000000 68.000000"
 preserveAspectRatio="xMidYMid meet">
<metadata>
Created by potrace 1.16, written by Peter Selinger 2001-2019
</metadata>
<g transform="translate(0.000000,68.000000) scale(0.100000,-0.100000)"
fill="#000000" stroke="none">
<path d="M290 518 c-25 -5 -63 -7 -85 -5 l-40 4 1 -119 c0 -65 3 -121 7 -124
3 -3 21 -1 39 5 18 5 57 13 86 17 28 4 52 11 52 17 0 10 -92 3 -124 -9 -14 -5
-16 6 -16 89 l0 95 28 6 c15 2 57 8 95 11 37 4 65 11 62 16 -7 11 -44 10 -105
-3z"/>
</g>
</svg>
