<?xml version="1.0" standalone="no"?>
<!DOCTYPE svg PUBLIC "-//W3C//DTD SVG 20010904//EN"
 "http://www.w3.org/TR/2001/REC-SVG-20010904/DTD/svg10.dtd">
<svg version="1.0" xmlns="http://www.w3.org/2000/svg"
 width="90.000000pt" height="92.000000pt" viewBox="0 0 90.000000 92.000000"
 preserveAspectRatio="xMidYMid meet">
<metadata>
Created by potrace 1.16, written by Peter Selinger 2001-2019
</metadata>
<g transform="translate(0.000000,92.000000) scale(0.100000,-0.100000)"
fill="#000000" stroke="none">
<path d="M625 814 c-33 -8 -99 -16 -146 -20 l-87 -7 5 -56 c6 -62 -10 -202
-33 -296 -24 -97 -76 -214 -132 -295 l-17 -25 32 23 c84 60 145 196 184 413
l12 66 138 13 c128 12 155 19 130 35 -11 6 13 71 35 96 12 13 11 18 -9 36 -32
29 -45 31 -112 17z m45 -46 c0 -7 -3 -29 -6 -49 -6 -36 -8 -37 -63 -47 -31 -6
-79 -14 -107 -17 l-51 -6 7 50 c3 28 9 53 11 56 8 7 109 23 162 24 32 1 47 -3
47 -11z"/>
<path d="M130 764 c0 -3 4 -13 9 -22 4 -9 11 -87 14 -173 6 -156 6 -157 -16
-163 -55 -15 -58 -11 -51 59 6 55 4 69 -11 85 -29 32 -45 26 -38 -16 3 -20 0
-67 -7 -105 -12 -61 -11 -72 2 -85 14 -14 19 -14 49 2 29 15 159 53 182 54 5
0 6 -4 3 -8 -2 -4 0 -14 5 -22 14 -23 37 12 45 69 3 25 10 64 16 85 8 34 7 42
-8 53 -40 29 -49 18 -49 -62 0 -81 -8 -95 -53 -95 l-24 0 3 166 c2 135 0 167
-12 175 -15 10 -59 12 -59 3z"/>
<path d="M578 486 l4 -93 -43 -6 c-24 -3 -45 -4 -47 -2 -2 2 1 19 6 39 9 32 8
38 -11 51 -31 22 -36 19 -30 -18 3 -21 -1 -46 -11 -65 -13 -26 -14 -35 -4 -52
15 -24 17 -24 54 -6 16 8 41 18 57 21 l27 7 0 -91 c0 -82 -2 -91 -19 -91 -10
0 -33 -3 -50 -6 l-32 -7 7 40 c5 35 3 41 -20 56 -14 9 -27 17 -29 17 -2 0 -4
-21 -4 -47 0 -27 -3 -59 -7 -73 -4 -15 -1 -32 8 -43 14 -17 16 -18 47 -2 33
17 195 55 237 55 18 0 21 -4 17 -23 -7 -28 10 -56 25 -41 6 6 17 46 25 90 15
73 14 80 -2 91 -9 7 -24 13 -33 13 -14 0 -16 -8 -12 -49 l4 -49 -56 -7 c-31
-4 -59 -6 -61 -4 -2 2 -1 43 2 92 6 84 7 88 32 93 74 15 71 16 71 -10 0 -29
14 -41 28 -23 9 12 36 147 30 152 -15 12 -51 25 -56 21 -3 -4 -5 -29 -3 -56
l2 -50 -34 0 c-20 0 -43 -3 -53 -7 -16 -6 -17 1 -12 74 6 86 0 103 -37 103
-20 0 -21 -4 -17 -94z"/>
</g>
</svg>
