<?xml version="1.0" standalone="no"?>
<!DOCTYPE svg PUBLIC "-//W3C//DTD SVG 20010904//EN"
 "http://www.w3.org/TR/2001/REC-SVG-20010904/DTD/svg10.dtd">
<svg version="1.0" xmlns="http://www.w3.org/2000/svg"
 width="90.000000pt" height="92.000000pt" viewBox="0 0 90.000000 92.000000"
 preserveAspectRatio="xMidYMid meet">
<metadata>
Created by potrace 1.16, written by Peter Selinger 2001-2019
</metadata>
<g transform="translate(0.000000,92.000000) scale(0.100000,-0.100000)"
fill="#000000" stroke="none">
<path d="M569 846 c-2 -2 -107 -13 -234 -25 -126 -13 -236 -24 -244 -27 -11
-4 -11 -7 2 -22 12 -14 17 -69 24 -310 l8 -294 28 -23 c15 -13 44 -29 65 -35
92 -28 457 -21 575 11 33 9 36 12 27 29 -15 27 -50 34 -107 20 -26 -6 -142
-14 -258 -16 -189 -5 -213 -3 -245 13 -27 14 -37 27 -45 57 -8 36 -7 40 20 59
17 12 48 38 69 59 21 21 41 36 43 34 3 -2 6 -38 8 -80 4 -81 11 -116 25 -116
14 0 23 65 15 106 -5 32 -4 36 10 30 9 -3 28 -6 41 -6 21 0 24 -5 24 -33 0
-18 7 -42 15 -53 13 -17 14 -14 15 37 l0 57 35 4 35 4 0 -63 c0 -96 22 -83 34
20 2 21 7 41 10 44 3 3 28 8 56 11 54 5 57 1 40 -44 -9 -24 -14 -26 -45 -21
-26 4 -34 3 -28 -6 47 -81 53 -87 73 -77 34 18 50 55 60 136 5 44 12 88 15 99
8 26 -45 60 -80 51 -36 -9 -293 -46 -320 -46 -22 0 -23 2 -14 30 13 35 13 35
167 51 107 11 122 15 117 30 -3 10 5 29 20 47 14 16 25 32 25 35 0 10 -55 41
-70 39 -8 0 -61 -10 -117 -20 -106 -19 -131 -14 -66 13 30 13 117 63 142 82 8
6 -23 31 -46 38 -17 4 -23 2 -23 -8 0 -9 -22 -35 -49 -59 -44 -39 -53 -43 -90
-40 -45 5 -45 5 -31 -33 24 -63 -30 -236 -99 -315 l-30 -35 -1 165 c0 140 12
295 24 307 8 8 177 24 338 31 98 5 181 12 185 16 18 18 -39 46 -91 46 -29 0
-55 -2 -57 -4z m-9 -255 c0 -27 -4 -30 -52 -41 -29 -6 -78 -13 -109 -17 l-56
-6 5 32 c2 17 7 31 11 31 3 1 29 7 56 15 28 7 71 14 98 14 45 1 47 0 47 -28z
m108 -188 l3 -33 -54 0 -55 0 1 35 1 36 50 -3 c49 -3 51 -4 54 -35z m-150 -9
c3 -26 -1 -33 -20 -38 -38 -10 -46 -7 -41 14 3 11 0 26 -6 34 -10 11 -8 15 6
19 41 11 58 3 61 -29z m-106 -14 c5 -31 -5 -40 -48 -40 -20 0 -24 5 -24 29 0
30 10 39 46 40 17 1 23 -6 26 -29z"/>
</g>
</svg>
