<?xml version="1.0" standalone="no"?>
<!DOCTYPE svg PUBLIC "-//W3C//DTD SVG 20010904//EN"
 "http://www.w3.org/TR/2001/REC-SVG-20010904/DTD/svg10.dtd">
<svg version="1.0" xmlns="http://www.w3.org/2000/svg"
 width="96.000000pt" height="68.000000pt" viewBox="0 0 96.000000 68.000000"
 preserveAspectRatio="xMidYMid meet">
<metadata>
Created by potrace 1.16, written by Peter Selinger 2001-2019
</metadata>
<g transform="translate(0.000000,68.000000) scale(0.100000,-0.100000)"
fill="#000000" stroke="none">
<path d="M280 565 c-30 -7 -71 -14 -89 -14 -27 -1 -32 -4 -23 -13 9 -9 25 -9
70 0 32 7 66 12 76 12 17 0 17 -1 1 -26 -9 -14 -15 -27 -13 -29 2 -2 28 9 58
25 l54 27 -31 17 c-18 9 -36 15 -40 15 -4 -1 -33 -7 -63 -14z"/>
</g>
</svg>
