<?xml version="1.0" standalone="no"?>
<!DOCTYPE svg PUBLIC "-//W3C//DTD SVG 20010904//EN"
 "http://www.w3.org/TR/2001/REC-SVG-20010904/DTD/svg10.dtd">
<svg version="1.0" xmlns="http://www.w3.org/2000/svg"
 width="96.000000pt" height="68.000000pt" viewBox="0 0 96.000000 68.000000"
 preserveAspectRatio="xMidYMid meet">
<metadata>
Created by potrace 1.16, written by Peter Selinger 2001-2019
</metadata>
<g transform="translate(0.000000,68.000000) scale(0.100000,-0.100000)"
fill="#000000" stroke="none">
<path d="M530 561 c0 -4 9 -20 20 -34 l20 -25 -27 -6 c-84 -15 -106 -16 -118
-6 -10 8 -18 2 -34 -25 -27 -46 -27 -65 0 -65 14 0 24 10 32 30 7 19 20 31 37
34 56 11 242 28 247 23 3 -3 0 -20 -6 -37 -6 -17 -7 -30 -3 -28 67 32 102 54
99 63 -2 5 -21 16 -43 23 -36 13 -76 11 -133 -4 -20 -6 -22 -4 -17 14 5 15 0
25 -16 36 -24 17 -58 21 -58 7z"/>
</g>
</svg>
