<?xml version="1.0" standalone="no"?>
<!DOCTYPE svg PUBLIC "-//W3C//DTD SVG 20010904//EN"
 "http://www.w3.org/TR/2001/REC-SVG-20010904/DTD/svg10.dtd">
<svg version="1.0" xmlns="http://www.w3.org/2000/svg"
 width="96.000000pt" height="68.000000pt" viewBox="0 0 96.000000 68.000000"
 preserveAspectRatio="xMidYMid meet">
<metadata>
Created by potrace 1.16, written by Peter Selinger 2001-2019
</metadata>
<g transform="translate(0.000000,68.000000) scale(0.100000,-0.100000)"
fill="#000000" stroke="none">
<path d="M611 285 c0 -141 3 -243 8 -235 13 23 21 91 10 85 -5 -4 -9 0 -9 9 0
8 6 17 13 19 9 4 8 8 -3 16 -10 8 -12 13 -4 19 7 4 12 58 13 150 0 78 2 146 4
150 1 4 -2 8 -7 9 -5 1 -12 7 -17 14 -4 8 -8 -99 -8 -236z"/>
</g>
</svg>
