<?xml version="1.0" standalone="no"?>
<!DOCTYPE svg PUBLIC "-//W3C//DTD SVG 20010904//EN"
 "http://www.w3.org/TR/2001/REC-SVG-20010904/DTD/svg10.dtd">
<svg version="1.0" xmlns="http://www.w3.org/2000/svg"
 width="96.000000pt" height="68.000000pt" viewBox="0 0 96.000000 68.000000"
 preserveAspectRatio="xMidYMid meet">
<metadata>
Created by potrace 1.16, written by Peter Selinger 2001-2019
</metadata>
<g transform="translate(0.000000,68.000000) scale(0.100000,-0.100000)"
fill="#000000" stroke="none">
<path d="M699 376 c-2 -2 -71 -9 -153 -15 -104 -8 -152 -8 -161 -1 -10 8 -18
0 -34 -33 -12 -24 -21 -49 -21 -55 0 -24 29 -11 49 21 l20 33 168 16 c92 9
170 15 172 12 3 -3 -1 -14 -8 -25 -7 -12 -11 -22 -9 -24 2 -2 27 2 56 7 59 12
67 30 22 53 -26 14 -91 21 -101 11z"/>
</g>
</svg>
