<?xml version="1.0" standalone="no"?>
<!DOCTYPE svg PUBLIC "-//W3C//DTD SVG 20010904//EN"
 "http://www.w3.org/TR/2001/REC-SVG-20010904/DTD/svg10.dtd">
<svg version="1.0" xmlns="http://www.w3.org/2000/svg"
 width="90.000000pt" height="92.000000pt" viewBox="0 0 90.000000 92.000000"
 preserveAspectRatio="xMidYMid meet">
<metadata>
Created by potrace 1.16, written by Peter Selinger 2001-2019
</metadata>
<g transform="translate(0.000000,92.000000) scale(0.100000,-0.100000)"
fill="#000000" stroke="none">
<path d="M450 840 c0 -35 -41 -130 -85 -196 -24 -35 -39 -64 -35 -64 5 0 33
23 63 50 39 36 63 50 83 50 16 0 67 6 114 14 47 8 106 17 133 21 52 7 53 19 5
40 -26 10 -44 8 -140 -17 -60 -16 -112 -27 -115 -24 -3 2 8 28 24 56 l28 51
-24 20 c-30 24 -51 24 -51 -1z"/>
<path d="M155 694 c-29 -11 -47 -12 -69 -4 -16 5 -31 8 -33 6 -3 -2 0 -21 6
-43 14 -49 14 -136 0 -263 -8 -78 -8 -108 1 -131 14 -33 26 -37 34 -11 5 14
18 19 55 21 45 2 49 0 61 -29 15 -35 21 -37 45 -10 17 19 19 40 17 237 -1 215
-1 217 -24 229 -29 17 -43 16 -93 -2z m49 -30 c13 -5 16 -22 16 -83 0 -72 -1
-76 -22 -77 -13 0 -38 -4 -55 -8 l-33 -8 0 82 c0 74 2 81 23 90 27 11 50 12
71 4z m16 -268 l0 -83 -57 -6 c-32 -3 -58 -5 -59 -4 -1 1 1 38 3 83 l5 81 46
2 c25 1 48 3 50 6 11 10 12 2 12 -79z"/>
<path d="M545 595 c-51 -7 -100 -9 -112 -4 -30 11 -34 1 -22 -51 6 -24 7 -61
4 -82 -7 -39 -13 -42 -100 -50 l-30 -3 32 -18 c21 -11 42 -15 58 -11 34 8 33
-8 -5 -82 -32 -64 -34 -72 -21 -93 7 -12 13 -12 24 -3 25 21 119 33 200 26 42
-3 77 -11 77 -16 0 -5 -10 -23 -21 -40 -21 -29 -24 -30 -73 -23 l-50 6 51 -51
c40 -41 55 -51 72 -45 24 7 66 75 76 122 l6 32 52 -19 c62 -24 77 -25 77 -6 0
27 -60 76 -92 76 l-31 0 7 53 c3 28 6 62 6 75 0 21 4 22 71 22 52 0 70 3 67
13 -8 22 -51 37 -90 30 -37 -5 -38 -5 -38 24 0 17 5 45 12 63 10 30 9 35 -12
52 -25 21 -60 21 -195 3z m145 -77 c0 -29 -4 -58 -8 -65 -7 -11 -210 -35 -221
-27 -2 2 0 32 4 68 l6 65 42 4 c23 2 72 4 110 5 l67 2 0 -52z m-11 -140 c0
-18 -3 -50 -7 -71 l-7 -39 -128 -3 c-118 -4 -128 -3 -122 13 4 9 12 35 18 57
5 22 13 44 18 49 5 5 50 12 101 16 51 4 101 8 111 8 13 2 17 -5 16 -30z"/>
<path d="M510 527 c0 -17 63 -75 76 -70 18 7 18 37 1 52 -16 12 -77 27 -77 18z"/>
<path d="M510 364 c0 -13 53 -74 65 -74 16 0 26 25 19 44 -7 19 -84 47 -84 30z"/>
</g>
</svg>
