<?xml version="1.0" standalone="no"?>
<!DOCTYPE svg PUBLIC "-//W3C//DTD SVG 20010904//EN"
 "http://www.w3.org/TR/2001/REC-SVG-20010904/DTD/svg10.dtd">
<svg version="1.0" xmlns="http://www.w3.org/2000/svg"
 width="96.000000pt" height="68.000000pt" viewBox="0 0 96.000000 68.000000"
 preserveAspectRatio="xMidYMid meet">
<metadata>
Created by potrace 1.16, written by Peter Selinger 2001-2019
</metadata>
<g transform="translate(0.000000,68.000000) scale(0.100000,-0.100000)"
fill="#000000" stroke="none">
<path d="M555 419 c-38 -4 -83 -5 -100 -3 l-30 5 0 -78 c0 -75 -7 -100 -45
-159 -7 -12 -10 -29 -7 -38 6 -14 10 -15 29 -5 29 16 223 25 232 11 3 -5 -4
-22 -16 -37 -18 -23 -26 -26 -57 -20 l-36 7 34 -36 c19 -20 40 -36 46 -36 17
0 62 51 75 84 9 24 14 27 38 22 89 -22 101 -18 59 22 -13 12 -36 22 -51 22
l-28 0 7 87 c4 48 12 98 18 111 9 20 8 27 -8 38 -20 15 -50 16 -160 3z m104
-18 c11 -7 12 -27 5 -107 l-9 -99 -109 -8 c-60 -4 -110 -6 -112 -4 -2 2 5 30
15 63 11 32 22 80 26 106 l6 47 72 4 c40 1 77 4 82 5 6 1 16 -2 24 -7z"/>
</g>
</svg>
