<?xml version="1.0" standalone="no"?>
<!DOCTYPE svg PUBLIC "-//W3C//DTD SVG 20010904//EN"
 "http://www.w3.org/TR/2001/REC-SVG-20010904/DTD/svg10.dtd">
<svg version="1.0" xmlns="http://www.w3.org/2000/svg"
 width="96.000000pt" height="68.000000pt" viewBox="0 0 96.000000 68.000000"
 preserveAspectRatio="xMidYMid meet">
<metadata>
Created by potrace 1.16, written by Peter Selinger 2001-2019
</metadata>
<g transform="translate(0.000000,68.000000) scale(0.100000,-0.100000)"
fill="#000000" stroke="none">
<path d="M474 553 c-14 -66 -73 -155 -149 -226 -29 -28 -33 -35 -15 -26 60 29
102 65 146 125 26 35 50 64 52 64 3 0 49 -43 103 -95 93 -92 98 -95 140 -94
24 0 53 4 64 9 17 7 14 11 -25 26 -81 33 -147 71 -213 124 -57 45 -64 55 -54
70 8 14 8 22 -2 34 -20 24 -40 19 -47 -11z"/>
<path d="M190 531 c0 -5 15 -23 32 -40 37 -36 71 -38 76 -5 2 17 -6 25 -38 38
-45 18 -70 20 -70 7z"/>
<path d="M100 402 c0 -19 72 -73 93 -70 31 4 33 34 4 53 -31 20 -97 32 -97 17z"/>
<path d="M490 332 c-104 -20 -114 -26 -52 -30 67 -4 165 15 159 31 -5 17 -21
17 -107 -1z"/>
<path d="M211 259 c-19 -28 -50 -62 -68 -76 -36 -28 -39 -39 -21 -78 22 -48
41 -30 91 83 26 59 47 110 47 115 0 18 -18 3 -49 -44z"/>
<path d="M510 239 c-25 -4 -73 -8 -108 -8 l-63 -1 20 -27 c10 -16 24 -52 31
-80 11 -47 14 -52 30 -43 10 6 36 10 58 10 77 0 162 13 160 24 -2 6 5 33 16
59 14 38 15 51 6 62 -14 16 -74 18 -150 4z m85 -61 c-4 -24 -10 -46 -14 -50
-3 -4 -40 -10 -82 -14 l-75 -6 -12 39 c-7 22 -12 45 -12 51 0 11 43 17 143 20
l59 2 -7 -42z"/>
</g>
</svg>
