<?xml version="1.0" standalone="no"?>
<!DOCTYPE svg PUBLIC "-//W3C//DTD SVG 20010904//EN"
 "http://www.w3.org/TR/2001/REC-SVG-20010904/DTD/svg10.dtd">
<svg version="1.0" xmlns="http://www.w3.org/2000/svg"
 width="96.000000pt" height="68.000000pt" viewBox="0 0 96.000000 68.000000"
 preserveAspectRatio="xMidYMid meet">
<metadata>
Created by potrace 1.16, written by Peter Selinger 2001-2019
</metadata>
<g transform="translate(0.000000,68.000000) scale(0.100000,-0.100000)"
fill="#000000" stroke="none">
<path d="M490 359 c-52 -4 -142 -8 -199 -7 l-103 1 -26 -46 c-14 -26 -22 -53
-18 -62 10 -27 40 -12 60 30 l19 41 235 17 c130 9 238 15 240 12 3 -3 0 -17
-7 -31 -6 -15 -10 -28 -9 -29 7 -7 112 22 115 32 2 6 -8 20 -23 32 -30 23 -97
26 -284 10z"/>
</g>
</svg>
