<?xml version="1.0" standalone="no"?>
<!DOCTYPE svg PUBLIC "-//W3C//DTD SVG 20010904//EN"
 "http://www.w3.org/TR/2001/REC-SVG-20010904/DTD/svg10.dtd">
<svg version="1.0" xmlns="http://www.w3.org/2000/svg"
 width="96.000000pt" height="68.000000pt" viewBox="0 0 96.000000 68.000000"
 preserveAspectRatio="xMidYMid meet">
<metadata>
Created by potrace 1.16, written by Peter Selinger 2001-2019
</metadata>
<g transform="translate(0.000000,68.000000) scale(0.100000,-0.100000)"
fill="#000000" stroke="none">
<path d="M564 273 c1 -23 -4 -38 -11 -39 -7 -1 -47 -2 -89 -3 -56 -1 -75 -4
-71 -13 3 -9 27 -13 80 -12 43 1 77 -2 77 -5 0 -12 -72 -76 -122 -110 -58 -38
-61 -47 -10 -26 33 14 63 33 130 81 l22 16 0 -60 c0 -68 6 -92 25 -92 19 0 25
24 25 94 l0 63 53 -54 c49 -48 58 -53 98 -52 83 1 88 13 18 38 -77 27 -169 85
-169 106 0 12 19 15 112 15 107 0 111 1 95 18 -15 14 -32 16 -95 14 -42 -1
-85 -5 -94 -8 -14 -4 -18 1 -18 24 0 18 -6 32 -16 36 -33 13 -41 6 -40 -31z"/>
</g>
</svg>
