<?xml version="1.0" standalone="no"?>
<!DOCTYPE svg PUBLIC "-//W3C//DTD SVG 20010904//EN"
 "http://www.w3.org/TR/2001/REC-SVG-20010904/DTD/svg10.dtd">
<svg version="1.0" xmlns="http://www.w3.org/2000/svg"
 width="96.000000pt" height="68.000000pt" viewBox="0 0 96.000000 68.000000"
 preserveAspectRatio="xMidYMid meet">
<metadata>
Created by potrace 1.16, written by Peter Selinger 2001-2019
</metadata>
<g transform="translate(0.000000,68.000000) scale(0.100000,-0.100000)"
fill="#000000" stroke="none">
<path d="M545 563 c-29 -8 -72 -12 -103 -9 l-53 5 5 -32 c7 -45 14 -124 22
-254 l7 -113 -64 -1 c-35 -1 -77 -5 -94 -9 -27 -6 -28 -8 -11 -15 25 -11 62
-11 146 -1 36 4 144 9 240 12 203 6 211 8 186 32 -13 13 -32 17 -86 15 -60 -2
-70 0 -70 15 0 46 21 297 26 318 5 21 1 26 -30 39 -41 18 -54 17 -121 -2z m80
-33 c6 -20 6 -96 -2 -170 -4 -45 -5 -46 -36 -42 -18 2 -52 -1 -77 -7 -24 -5
-45 -9 -47 -8 -1 1 -3 22 -5 47 l-3 45 55 8 c88 13 100 17 100 29 0 10 -14 10
-135 -5 -18 -2 -20 4 -20 48 l0 50 75 11 c41 7 78 12 82 13 4 0 9 -8 13 -19z
m-3 -291 l3 -59 -30 0 c-16 0 -54 -3 -82 -6 l-53 -7 0 55 0 55 63 9 c34 5 69
10 79 11 13 1 17 -10 20 -58z"/>
<path d="M240 490 c-14 -4 -51 -8 -82 -9 -58 -1 -70 -9 -44 -30 7 -6 19 -39
26 -74 6 -34 14 -70 17 -79 5 -22 33 -24 33 -3 0 11 11 15 43 15 60 0 89 10
83 27 -3 7 4 41 15 74 11 33 18 66 15 74 -6 16 -63 19 -106 5z m31 -80 c-4
-55 -15 -70 -52 -70 -34 0 -35 2 -44 62 -7 45 -6 47 21 51 16 2 40 4 54 3 23
-1 24 -4 21 -46z"/>
</g>
</svg>
