<?xml version="1.0" standalone="no"?>
<!DOCTYPE svg PUBLIC "-//W3C//DTD SVG 20010904//EN"
 "http://www.w3.org/TR/2001/REC-SVG-20010904/DTD/svg10.dtd">
<svg version="1.0" xmlns="http://www.w3.org/2000/svg"
 width="96.000000pt" height="68.000000pt" viewBox="0 0 96.000000 68.000000"
 preserveAspectRatio="xMidYMid meet">
<metadata>
Created by potrace 1.16, written by Peter Selinger 2001-2019
</metadata>
<g transform="translate(0.000000,68.000000) scale(0.100000,-0.100000)"
fill="#000000" stroke="none">
<path d="M570 569 c-14 -7 -62 -12 -107 -13 -77 -1 -97 -6 -74 -20 4 -3 11
-52 15 -108 16 -249 17 -258 37 -258 16 0 19 8 19 54 l0 54 58 7 c31 3 67 9
80 12 21 5 22 2 22 -55 0 -56 1 -59 24 -60 24 0 24 3 31 107 3 58 11 140 16
180 7 60 7 78 -4 89 -19 18 -86 24 -117 11z m58 -84 l3 -50 -53 0 c-29 0 -69
-3 -88 -5 l-35 -5 0 50 c0 49 1 50 35 56 19 4 58 6 85 5 l50 -1 3 -50z m1 -92
c-3 -66 -11 -78 -54 -78 -22 0 -57 -3 -77 -7 l-38 -7 0 48 0 48 68 10 c106 16
102 16 101 -14z"/>
</g>
</svg>
