<?xml version="1.0" standalone="no"?>
<!DOCTYPE svg PUBLIC "-//W3C//DTD SVG 20010904//EN"
 "http://www.w3.org/TR/2001/REC-SVG-20010904/DTD/svg10.dtd">
<svg version="1.0" xmlns="http://www.w3.org/2000/svg"
 width="96.000000pt" height="68.000000pt" viewBox="0 0 96.000000 68.000000"
 preserveAspectRatio="xMidYMid meet">
<metadata>
Created by potrace 1.16, written by Peter Selinger 2001-2019
</metadata>
<g transform="translate(0.000000,68.000000) scale(0.100000,-0.100000)"
fill="#000000" stroke="none">
<path d="M495 603 c4 -10 10 -30 12 -45 5 -29 9 -27 -82 -45 l-40 -7 60 -6 60
-5 3 -68 c2 -57 -1 -73 -19 -100 -27 -38 -69 -78 -123 -118 -21 -16 -33 -29
-26 -29 16 0 107 55 139 84 l23 21 -6 -60 c-6 -47 -4 -64 8 -80 15 -19 17 -19
30 -3 10 14 12 52 9 165 -5 200 -5 199 62 208 30 3 57 10 60 15 7 12 -31 23
-55 16 -11 -3 -29 -9 -41 -12 -18 -5 -20 -3 -14 29 6 29 3 37 -13 46 -33 17
-55 14 -47 -6z"/>
<path d="M625 251 c52 -54 81 -69 97 -53 17 17 -10 52 -55 71 -91 39 -96 37
-42 -18z"/>
</g>
</svg>
