<?xml version="1.0" standalone="no"?>
<!DOCTYPE svg PUBLIC "-//W3C//DTD SVG 20010904//EN"
 "http://www.w3.org/TR/2001/REC-SVG-20010904/DTD/svg10.dtd">
<svg version="1.0" xmlns="http://www.w3.org/2000/svg"
 width="90.000000pt" height="92.000000pt" viewBox="0 0 90.000000 92.000000"
 preserveAspectRatio="xMidYMid meet">
<metadata>
Created by potrace 1.16, written by Peter Selinger 2001-2019
</metadata>
<g transform="translate(0.000000,92.000000) scale(0.100000,-0.100000)"
fill="#000000" stroke="none">
<path d="M214 833 c3 -16 9 -49 12 -74 6 -42 5 -47 -17 -52 -13 -4 -39 -7 -57
-7 -56 0 -32 -25 26 -28 l52 -3 0 -45 c0 -44 0 -44 -37 -46 -74 -4 -98 -5
-106 -7 -4 0 -1 -11 7 -23 8 -13 19 -58 25 -102 6 -43 14 -82 17 -87 8 -14 24
-10 24 6 0 10 11 15 35 15 35 0 35 0 29 -37 -3 -21 -7 -40 -9 -41 -2 -2 -49
-11 -104 -19 -56 -9 -101 -19 -101 -23 0 -4 10 -12 23 -17 17 -8 44 -7 100 5
43 8 79 13 81 11 2 -2 -1 -33 -6 -68 -7 -46 -7 -76 1 -103 26 -84 61 -20 61
109 l0 72 80 7 c44 3 80 10 80 15 0 5 -11 16 -25 25 -20 13 -32 14 -75 5 -28
-6 -53 -11 -56 -11 -3 0 -4 17 -2 38 2 30 7 38 26 40 13 2 30 -2 38 -8 20 -17
40 2 48 45 4 19 15 60 26 92 17 52 17 59 4 74 -22 25 -61 32 -101 18 -19 -6
-37 -9 -39 -6 -3 3 -2 21 1 40 6 33 10 35 52 42 79 12 92 23 48 43 -17 8 -33
8 -51 2 -42 -16 -45 -13 -38 38 6 45 4 51 -21 70 -39 31 -59 29 -51 -5z m144
-288 c3 -29 2 -30 -43 -30 -42 0 -45 2 -45 27 0 21 5 28 28 31 48 7 57 3 60
-28z m-128 -14 c0 -21 -6 -30 -22 -35 -47 -12 -58 -7 -58 23 0 26 4 30 33 34
17 2 35 5 40 5 4 1 7 -11 7 -27z m116 -63 c-3 -13 -6 -29 -6 -35 0 -8 -14 -13
-35 -13 -32 0 -35 2 -35 29 0 30 11 37 59 40 20 1 22 -3 17 -21z m-116 -28 c0
-17 -5 -30 -12 -30 -7 0 -23 -3 -35 -6 -20 -6 -23 -3 -23 24 0 30 10 38 53 41
13 1 17 -7 17 -29z"/>
<path d="M640 665 c-69 -13 -141 -24 -160 -24 -19 -1 -42 -5 -49 -10 -12 -8
-10 -12 11 -21 20 -9 47 -8 124 4 77 12 100 13 106 3 15 -24 19 -95 16 -287
-3 -217 1 -205 -73 -185 -28 8 -27 6 25 -54 l54 -62 25 26 26 25 -1 273 c-2
306 -8 285 79 286 53 1 64 20 22 39 -34 16 -56 14 -205 -13z"/>
<path d="M535 494 c-27 -8 -60 -14 -72 -14 -23 0 -31 -14 -13 -25 5 -3 12 -33
16 -66 7 -62 18 -79 37 -60 6 6 25 11 42 12 40 1 72 13 57 23 -8 5 -5 20 9 53
32 74 7 99 -76 77z m35 -57 c0 -38 -16 -62 -46 -70 -18 -4 -23 1 -28 25 -13
65 -7 74 52 77 19 1 22 -4 22 -32z"/>
</g>
</svg>
