<?xml version="1.0" standalone="no"?>
<!DOCTYPE svg PUBLIC "-//W3C//DTD SVG 20010904//EN"
 "http://www.w3.org/TR/2001/REC-SVG-20010904/DTD/svg10.dtd">
<svg version="1.0" xmlns="http://www.w3.org/2000/svg"
 width="96.000000pt" height="68.000000pt" viewBox="0 0 96.000000 68.000000"
 preserveAspectRatio="xMidYMid meet">
<metadata>
Created by potrace 1.16, written by Peter Selinger 2001-2019
</metadata>
<g transform="translate(0.000000,68.000000) scale(0.100000,-0.100000)"
fill="#000000" stroke="none">
<path d="M290 241 c0 -35 -26 -49 -110 -56 -44 -4 -80 -12 -80 -18 0 -7 30 -8
89 -4 l89 7 -5 -63 c-4 -51 -2 -65 12 -77 25 -21 35 2 35 81 l0 66 66 6 c36 2
68 8 71 11 14 14 -12 21 -68 19 -57 -2 -59 -2 -59 22 0 18 -5 25 -20 25 -13 0
-20 -7 -20 -19z"/>
</g>
</svg>
