<?xml version="1.0" standalone="no"?>
<!DOCTYPE svg PUBLIC "-//W3C//DTD SVG 20010904//EN"
 "http://www.w3.org/TR/2001/REC-SVG-20010904/DTD/svg10.dtd">
<svg version="1.0" xmlns="http://www.w3.org/2000/svg"
 width="90.000000pt" height="92.000000pt" viewBox="0 0 90.000000 92.000000"
 preserveAspectRatio="xMidYMid meet">
<metadata>
Created by potrace 1.16, written by Peter Selinger 2001-2019
</metadata>
<g transform="translate(0.000000,92.000000) scale(0.100000,-0.100000)"
fill="#000000" stroke="none">
<path d="M236 848 c-3 -7 -7 -31 -10 -52 -11 -78 -131 -290 -201 -356 -14 -13
-25 -30 -25 -37 0 -20 32 0 91 56 27 26 50 42 53 35 5 -13 0 -191 -10 -311 -8
-110 2 -113 99 -34 41 34 79 61 83 61 4 0 18 -10 31 -22 30 -28 48 -13 38 32
-5 24 -17 36 -51 52 -50 25 -62 20 -40 -15 16 -24 16 -24 -43 -51 -32 -14 -61
-26 -65 -26 -3 0 -6 34 -6 75 l0 75 48 2 c26 1 63 2 82 2 34 1 34 1 56 77 12
42 27 85 33 96 8 16 7 24 -7 35 -38 34 -53 36 -114 17 -59 -19 -108 -25 -108
-13 0 3 8 19 17 35 13 22 25 29 50 29 45 0 133 20 133 30 0 15 -63 22 -93 11
-54 -21 -58 -15 -27 44 16 31 31 56 34 58 3 1 30 -13 61 -32 41 -25 59 -31 67
-23 20 20 -7 60 -49 71 -21 6 -45 11 -54 11 -12 0 -15 7 -12 24 7 34 -52 75
-61 44z m102 -350 c-3 -30 -6 -33 -38 -34 -19 0 -52 -4 -72 -8 -36 -8 -38 -7
-38 17 0 39 25 51 118 56 32 1 33 -1 30 -31z m-13 -90 c-4 -18 -8 -34 -9 -34
0 -1 -29 -4 -63 -8 l-63 -7 0 29 c0 28 2 30 63 39 34 6 66 11 70 12 5 0 5 -14
2 -31z"/>
<path d="M646 759 c-33 -11 -90 -22 -128 -26 -37 -3 -68 -10 -68 -14 0 -5 10
-15 23 -23 20 -14 29 -13 87 5 36 11 84 19 110 17 l45 -3 8 -70 c8 -74 1 -444
-10 -471 -5 -13 -15 -15 -57 -9 l-50 6 49 -54 c28 -31 56 -54 64 -54 8 1 23
15 35 30 20 27 21 43 26 320 3 161 8 297 13 304 5 8 -6 21 -30 37 -44 30 -40
30 -117 5z"/>
<path d="M491 606 c-30 -7 -56 -17 -58 -23 -9 -27 72 -27 172 -1 37 9 38 11
20 24 -22 16 -57 16 -134 0z"/>
<path d="M545 495 c-22 -8 -60 -14 -84 -14 -37 -1 -42 -3 -36 -18 4 -10 13
-47 19 -82 6 -36 17 -66 24 -69 6 -2 12 1 12 7 0 6 15 11 33 11 60 0 108 12
98 24 -6 7 -4 26 6 51 27 73 27 77 8 91 -22 16 -27 16 -80 -1z m35 -44 c0 -10
-3 -32 -6 -49 -5 -26 -11 -30 -47 -35 -47 -6 -57 2 -57 50 0 26 5 34 23 37 55
12 63 14 75 15 6 0 12 -7 12 -18z"/>
</g>
</svg>
