<?xml version="1.0" standalone="no"?>
<!DOCTYPE svg PUBLIC "-//W3C//DTD SVG 20010904//EN"
 "http://www.w3.org/TR/2001/REC-SVG-20010904/DTD/svg10.dtd">
<svg version="1.0" xmlns="http://www.w3.org/2000/svg"
 width="96.000000pt" height="68.000000pt" viewBox="0 0 96.000000 68.000000"
 preserveAspectRatio="xMidYMid meet">
<metadata>
Created by potrace 1.16, written by Peter Selinger 2001-2019
</metadata>
<g transform="translate(0.000000,68.000000) scale(0.100000,-0.100000)"
fill="#000000" stroke="none">
<path d="M300 222 c0 -16 32 -52 46 -52 17 0 19 24 2 37 -19 15 -48 23 -48 15z"/>
<path d="M220 191 c0 -14 52 -61 61 -55 16 9 10 32 -13 48 -25 18 -48 21 -48
7z"/>
<path d="M151 135 c25 -42 37 -51 51 -37 15 15 1 48 -28 60 -40 19 -45 14 -23
-23z"/>
</g>
</svg>
