<?xml version="1.0" standalone="no"?>
<!DOCTYPE svg PUBLIC "-//W3C//DTD SVG 20010904//EN"
 "http://www.w3.org/TR/2001/REC-SVG-20010904/DTD/svg10.dtd">
<svg version="1.0" xmlns="http://www.w3.org/2000/svg"
 width="96.000000pt" height="68.000000pt" viewBox="0 0 96.000000 68.000000"
 preserveAspectRatio="xMidYMid meet">
<metadata>
Created by potrace 1.16, written by Peter Selinger 2001-2019
</metadata>
<g transform="translate(0.000000,68.000000) scale(0.100000,-0.100000)"
fill="#000000" stroke="none">
<path d="M524 536 c30 -40 30 -40 -69 -52 -52 -6 -56 -8 -35 -16 16 -6 48 -6
90 1 36 6 98 14 138 17 62 6 71 9 60 21 -9 12 -25 14 -70 9 -48 -6 -58 -4 -58
8 0 18 -38 46 -63 46 -18 0 -17 -3 7 -34z"/>
<path d="M264 543 c-15 -47 -43 -91 -82 -130 -36 -37 -41 -47 -32 -63 12 -23
11 -23 42 -11 76 28 80 23 19 -31 -33 -29 -60 -57 -60 -61 -2 -20 34 -17 96 7
40 15 69 22 71 16 5 -15 32 -12 32 4 0 28 -12 46 -31 46 -11 0 -16 -5 -13 -13
5 -15 -82 -55 -93 -43 -3 3 31 41 76 84 44 43 81 81 81 85 0 3 -9 11 -19 17
-17 9 -23 5 -41 -27 -18 -33 -26 -38 -62 -41 l-40 -3 43 51 c83 96 84 97 69
115 -17 20 -49 19 -56 -2z"/>
<path d="M551 425 c-36 -7 -71 -11 -78 -8 -7 3 -13 0 -13 -6 0 -6 4 -11 8 -11
4 0 14 -16 21 -36 13 -36 14 -36 58 -30 25 3 58 6 72 6 20 0 31 9 47 39 34 63
13 71 -115 46z m79 -30 c0 -29 -30 -45 -84 -45 -26 0 -35 5 -39 22 -4 12 -5
23 -3 25 2 2 56 12 119 22 4 0 7 -10 7 -24z"/>
<path d="M695 304 c-62 -14 -254 -30 -277 -23 l-27 7 6 -96 c3 -53 10 -101 15
-107 17 -19 27 20 23 91 -4 84 -21 75 173 95 137 14 142 12 137 -45 -1 -17 -3
-52 -4 -78 l-1 -48 -40 0 -41 0 18 -25 c26 -37 62 -43 84 -16 10 12 20 37 23
54 2 18 9 61 15 97 8 51 8 67 -2 78 -15 14 -70 23 -102 16z"/>
<path d="M580 225 c-25 -7 -58 -10 -74 -7 -29 5 -29 5 -13 -19 9 -13 17 -31
17 -40 0 -23 11 -26 71 -19 45 5 50 8 69 44 11 22 19 41 17 42 -11 9 -50 9
-87 -1z m53 -12 c-7 -2 -13 -13 -13 -23 0 -23 -6 -27 -50 -32 -32 -3 -35 -1
-35 22 0 22 5 26 45 31 60 8 67 8 53 2z"/>
<path d="M310 211 c0 -12 29 -41 41 -41 17 0 9 29 -10 40 -24 12 -31 13 -31 1z"/>
<path d="M226 188 c13 -23 37 -48 46 -48 16 0 7 29 -14 44 -27 19 -42 21 -32
4z"/>
<path d="M147 164 c-7 -7 32 -74 43 -74 16 0 17 39 1 53 -24 21 -38 27 -44 21z"/>
</g>
</svg>
