<?xml version="1.0" standalone="no"?>
<!DOCTYPE svg PUBLIC "-//W3C//DTD SVG 20010904//EN"
 "http://www.w3.org/TR/2001/REC-SVG-20010904/DTD/svg10.dtd">
<svg version="1.0" xmlns="http://www.w3.org/2000/svg"
 width="96.000000pt" height="68.000000pt" viewBox="0 0 96.000000 68.000000"
 preserveAspectRatio="xMidYMid meet">
<metadata>
Created by potrace 1.16, written by Peter Selinger 2001-2019
</metadata>
<g transform="translate(0.000000,68.000000) scale(0.100000,-0.100000)"
fill="#000000" stroke="none">
<path d="M600 433 c-25 -7 -66 -14 -92 -15 -31 -2 -44 -6 -39 -13 5 -5 14 -26
20 -46 12 -36 12 -37 49 -28 20 5 56 9 80 9 24 0 41 4 38 8 -3 5 4 23 15 41
31 51 5 67 -71 44z m22 -43 c-3 -32 -6 -34 -58 -34 -39 -1 -48 3 -55 21 -7 20
-4 22 44 31 66 12 73 10 69 -18z"/>
</g>
</svg>
