<?xml version="1.0" standalone="no"?>
<!DOCTYPE svg PUBLIC "-//W3C//DTD SVG 20010904//EN"
 "http://www.w3.org/TR/2001/REC-SVG-20010904/DTD/svg10.dtd">
<svg version="1.0" xmlns="http://www.w3.org/2000/svg"
 width="96.000000pt" height="68.000000pt" viewBox="0 0 96.000000 68.000000"
 preserveAspectRatio="xMidYMid meet">
<metadata>
Created by potrace 1.16, written by Peter Selinger 2001-2019
</metadata>
<g transform="translate(0.000000,68.000000) scale(0.100000,-0.100000)"
fill="#000000" stroke="none">
<path d="M379 113 c-12 -14 -12 -16 0 -8 10 5 12 4 7 -3 -4 -7 -13 -12 -19
-12 -7 0 -28 -14 -47 -30 -19 -16 -30 -30 -24 -30 6 0 14 3 18 8 4 4 13 7 19
7 7 0 13 6 13 13 3 25 5 27 14 12 5 -8 10 -10 10 -4 0 7 9 14 21 17 12 3 18
10 14 16 -3 7 0 8 9 5 22 -9 20 3 -3 15 -14 8 -22 7 -32 -6z"/>
<path d="M526 102 c77 -68 134 -99 134 -74 0 14 -41 43 -52 36 -6 -4 -8 -3 -5
3 4 6 -10 18 -33 27 -45 18 -59 20 -44 8z"/>
</g>
</svg>
