<?xml version="1.0" standalone="no"?>
<!DOCTYPE svg PUBLIC "-//W3C//DTD SVG 20010904//EN"
 "http://www.w3.org/TR/2001/REC-SVG-20010904/DTD/svg10.dtd">
<svg version="1.0" xmlns="http://www.w3.org/2000/svg"
 width="96.000000pt" height="68.000000pt" viewBox="0 0 96.000000 68.000000"
 preserveAspectRatio="xMidYMid meet">
<metadata>
Created by potrace 1.16, written by Peter Selinger 2001-2019
</metadata>
<g transform="translate(0.000000,68.000000) scale(0.100000,-0.100000)"
fill="#000000" stroke="none">
<path d="M504 252 c-5 -26 -11 -30 -51 -36 -25 -3 -63 -6 -85 -6 -26 0 -37 -4
-32 -11 4 -8 30 -10 76 -7 l69 5 -16 -23 c-15 -24 -15 -24 30 -36 25 -7 44
-17 42 -23 -2 -5 -39 -23 -83 -38 l-79 -28 58 6 c32 3 81 17 108 30 l49 25 58
-31 c31 -17 62 -36 69 -41 7 -5 22 -8 33 -6 l22 3 -21 27 c-12 14 -43 34 -69
44 -26 9 -51 20 -55 24 -4 4 2 23 15 43 l23 36 98 1 c53 0 97 4 97 9 0 20 -59
30 -125 20 -49 -7 -70 -6 -85 4 -15 9 -22 9 -28 1 -7 -12 -31 -17 -63 -15 -9
1 -15 10 -15 23 1 36 -33 36 -40 0z m107 -59 c-27 -49 -35 -54 -79 -47 -47 7
-51 15 -22 44 14 14 33 20 65 20 41 0 45 -2 36 -17z"/>
</g>
</svg>
