<?xml version="1.0" standalone="no"?>
<!DOCTYPE svg PUBLIC "-//W3C//DTD SVG 20010904//EN"
 "http://www.w3.org/TR/2001/REC-SVG-20010904/DTD/svg10.dtd">
<svg version="1.0" xmlns="http://www.w3.org/2000/svg"
 width="96.000000pt" height="68.000000pt" viewBox="0 0 96.000000 68.000000"
 preserveAspectRatio="xMidYMid meet">
<metadata>
Created by potrace 1.16, written by Peter Selinger 2001-2019
</metadata>
<g transform="translate(0.000000,68.000000) scale(0.100000,-0.100000)"
fill="#000000" stroke="none">
<path d="M440 305 c-41 -7 -81 -10 -89 -7 -11 4 -13 1 -7 -14 5 -10 12 -31 18
-45 8 -24 13 -26 56 -22 84 7 112 14 112 25 0 6 8 20 17 31 17 18 17 19 -2 33
-10 8 -21 13 -24 13 -3 -1 -40 -7 -81 -14z m68 -37 c-3 -20 -10 -23 -57 -26
-50 -3 -70 5 -71 30 0 9 33 15 88 17 40 1 43 -1 40 -21z"/>
</g>
</svg>
