<?xml version="1.0" standalone="no"?>
<!DOCTYPE svg PUBLIC "-//W3C//DTD SVG 20010904//EN"
 "http://www.w3.org/TR/2001/REC-SVG-20010904/DTD/svg10.dtd">
<svg version="1.0" xmlns="http://www.w3.org/2000/svg"
 width="96.000000pt" height="68.000000pt" viewBox="0 0 96.000000 68.000000"
 preserveAspectRatio="xMidYMid meet">
<metadata>
Created by potrace 1.16, written by Peter Selinger 2001-2019
</metadata>
<g transform="translate(0.000000,68.000000) scale(0.100000,-0.100000)"
fill="#000000" stroke="none">
<path d="M216 428 c16 -29 38 -48 56 -48 24 0 24 36 -1 50 -28 14 -64 13 -55
-2z"/>
<path d="M149 312 c23 -33 71 -45 71 -18 0 19 -22 35 -60 43 l-34 6 23 -31z"/>
<path d="M262 227 c-17 -24 -47 -58 -67 -76 -35 -30 -36 -34 -25 -62 8 -17 19
-29 28 -27 14 3 107 197 98 205 -2 3 -18 -15 -34 -40z"/>
</g>
</svg>
