<?xml version="1.0" standalone="no"?>
<!DOCTYPE svg PUBLIC "-//W3C//DTD SVG 20010904//EN"
 "http://www.w3.org/TR/2001/REC-SVG-20010904/DTD/svg10.dtd">
<svg version="1.0" xmlns="http://www.w3.org/2000/svg"
 width="90.000000pt" height="92.000000pt" viewBox="0 0 90.000000 92.000000"
 preserveAspectRatio="xMidYMid meet">
<metadata>
Created by potrace 1.16, written by Peter Selinger 2001-2019
</metadata>
<g transform="translate(0.000000,92.000000) scale(0.100000,-0.100000)"
fill="#000000" stroke="none">
<path d="M577 834 c-3 -31 -8 -58 -10 -60 -3 -3 -22 -7 -43 -10 -66 -9 -72
-14 -41 -30 15 -8 37 -12 47 -9 25 8 25 3 0 -62 -32 -86 -8 -66 65 51 7 11 32
18 83 22 40 4 75 11 78 15 10 17 -55 39 -96 33 l-41 -7 18 38 c18 37 18 37 -6
56 -38 31 -48 24 -54 -37z"/>
<path d="M240 854 c0 -4 8 -28 17 -55 10 -26 14 -51 11 -55 -4 -3 -38 -8 -75
-10 -73 -4 -81 -14 -40 -46 27 -22 35 -22 80 -3 20 8 40 15 45 15 4 0 13 -20
20 -45 7 -25 16 -45 22 -45 12 0 13 11 11 66 -2 39 -1 41 41 57 50 20 38 39
-18 27 l-34 -8 0 44 c0 33 -5 46 -19 54 -21 11 -61 14 -61 4z"/>
<path d="M617 600 c26 -45 70 -90 87 -90 18 0 30 33 21 61 -7 21 -75 58 -108
59 -17 0 -17 -1 0 -30z"/>
<path d="M243 567 c-17 -62 -82 -154 -163 -231 -39 -36 -65 -66 -58 -66 17 0
73 34 124 76 l42 34 7 -36 c7 -38 0 -121 -16 -196 -9 -37 -7 -52 5 -77 33 -63
46 -36 47 97 0 53 4 121 8 150 6 39 4 58 -7 73 -13 18 -9 26 37 94 28 40 51
76 51 79 0 9 -43 46 -55 46 -6 0 -16 -19 -22 -43z"/>
<path d="M446 583 c4 -10 10 -50 12 -89 4 -82 10 -77 -105 -90 -68 -7 -79 -18
-36 -35 24 -9 78 -6 125 7 15 4 15 0 -2 -58 -23 -73 -76 -154 -137 -207 -23
-21 -43 -41 -43 -45 0 -8 76 31 112 57 37 27 91 109 114 170 l17 48 31 -58
c37 -67 110 -177 137 -204 15 -15 34 -19 92 -19 107 0 114 11 31 53 -39 19
-95 56 -126 81 -58 47 -160 174 -152 188 3 4 26 8 52 8 66 0 152 11 152 20 0
4 -15 15 -34 25 -30 16 -41 17 -91 7 -32 -7 -63 -12 -68 -12 -6 0 -8 29 -4 74
5 71 4 74 -19 85 -14 6 -34 11 -46 11 -16 0 -18 -4 -12 -17z"/>
</g>
</svg>
