<?xml version="1.0" standalone="no"?>
<!DOCTYPE svg PUBLIC "-//W3C//DTD SVG 20010904//EN"
 "http://www.w3.org/TR/2001/REC-SVG-20010904/DTD/svg10.dtd">
<svg version="1.0" xmlns="http://www.w3.org/2000/svg"
 width="96.000000pt" height="68.000000pt" viewBox="0 0 96.000000 68.000000"
 preserveAspectRatio="xMidYMid meet">
<metadata>
Created by potrace 1.16, written by Peter Selinger 2001-2019
</metadata>
<g transform="translate(0.000000,68.000000) scale(0.100000,-0.100000)"
fill="#000000" stroke="none">
<path d="M495 396 c-38 -8 -105 -17 -149 -21 -54 -5 -75 -10 -68 -17 7 -7 44
-7 119 1 141 15 176 14 171 -1 -5 -16 -111 -35 -198 -37 -36 -1 -82 -4 -102
-7 -34 -6 -37 -9 -32 -31 4 -16 0 -31 -12 -44 -31 -34 -6 -43 72 -25 101 22
324 40 338 26 20 -20 -7 -45 -45 -42 l-34 3 33 -33 c38 -39 53 -34 94 33 33
55 33 53 2 67 -18 9 -49 9 -112 3 -48 -5 -135 -13 -194 -16 -104 -7 -107 -7
-101 13 6 25 28 29 196 38 95 5 127 10 127 20 0 7 10 22 22 34 43 39 -16 56
-127 36z"/>
</g>
</svg>
