<?xml version="1.0" standalone="no"?>
<!DOCTYPE svg PUBLIC "-//W3C//DTD SVG 20010904//EN"
 "http://www.w3.org/TR/2001/REC-SVG-20010904/DTD/svg10.dtd">
<svg version="1.0" xmlns="http://www.w3.org/2000/svg"
 width="96.000000pt" height="68.000000pt" viewBox="0 0 96.000000 68.000000"
 preserveAspectRatio="xMidYMid meet">
<metadata>
Created by potrace 1.16, written by Peter Selinger 2001-2019
</metadata>
<g transform="translate(0.000000,68.000000) scale(0.100000,-0.100000)"
fill="#000000" stroke="none">
<path d="M575 638 c-2 -7 -5 -26 -7 -43 -2 -21 -9 -31 -23 -33 -57 -8 -69 -13
-54 -23 7 -5 24 -9 37 -9 22 0 22 -1 7 -30 -21 -40 -2 -38 30 4 23 30 31 34
92 39 36 4 68 9 71 12 12 12 -13 20 -59 19 -54 -1 -53 -1 -39 26 7 14 6 23 -6
34 -19 19 -43 21 -49 4z"/>
<path d="M270 613 c1 -5 7 -19 15 -33 8 -14 14 -28 15 -32 0 -5 -29 -8 -65 -8
-69 0 -80 -8 -41 -29 16 -9 40 -11 74 -6 48 6 50 6 56 -20 9 -37 32 -26 28 13
-3 28 0 32 20 32 13 0 30 5 38 10 11 7 6 10 -21 10 -38 0 -49 12 -49 51 0 15
-7 19 -35 19 -19 0 -35 -3 -35 -7z"/>
</g>
</svg>
