<?xml version="1.0" standalone="no"?>
<!DOCTYPE svg PUBLIC "-//W3C//DTD SVG 20010904//EN"
 "http://www.w3.org/TR/2001/REC-SVG-20010904/DTD/svg10.dtd">
<svg version="1.0" xmlns="http://www.w3.org/2000/svg"
 width="96.000000pt" height="68.000000pt" viewBox="0 0 96.000000 68.000000"
 preserveAspectRatio="xMidYMid meet">
<metadata>
Created by potrace 1.16, written by Peter Selinger 2001-2019
</metadata>
<g transform="translate(0.000000,68.000000) scale(0.100000,-0.100000)"
fill="#000000" stroke="none">
<path d="M557 323 c-4 -3 -7 -21 -7 -40 0 -32 -1 -33 -42 -34 -24 0 -63 -4
-88 -8 -43 -7 -44 -8 -17 -15 15 -5 55 -6 87 -4 l60 4 0 -97 c0 -55 4 -101 10
-104 17 -11 30 43 30 125 l0 78 122 8 c109 6 119 8 102 21 -15 12 -39 13 -117
8 l-99 -7 3 24 c5 37 -23 63 -44 41z"/>
</g>
</svg>
