<?xml version="1.0" standalone="no"?>
<!DOCTYPE svg PUBLIC "-//W3C//DTD SVG 20010904//EN"
 "http://www.w3.org/TR/2001/REC-SVG-20010904/DTD/svg10.dtd">
<svg version="1.0" xmlns="http://www.w3.org/2000/svg"
 width="96.000000pt" height="68.000000pt" viewBox="0 0 96.000000 68.000000"
 preserveAspectRatio="xMidYMid meet">
<metadata>
Created by potrace 1.16, written by Peter Selinger 2001-2019
</metadata>
<g transform="translate(0.000000,68.000000) scale(0.100000,-0.100000)"
fill="#000000" stroke="none">
<path d="M308 233 c15 -28 39 -46 52 -38 22 14 5 41 -34 51 -26 6 -27 5 -18
-13z"/>
<path d="M229 188 c24 -39 51 -49 51 -19 0 21 -34 51 -58 51 -10 0 -9 -8 7
-32z"/>
<path d="M110 192 c0 -17 52 -82 65 -82 23 0 18 38 -10 65 -23 24 -55 34 -55
17z"/>
</g>
</svg>
