<?xml version="1.0" standalone="no"?>
<!DOCTYPE svg PUBLIC "-//W3C//DTD SVG 20010904//EN"
 "http://www.w3.org/TR/2001/REC-SVG-20010904/DTD/svg10.dtd">
<svg version="1.0" xmlns="http://www.w3.org/2000/svg"
 width="96.000000pt" height="68.000000pt" viewBox="0 0 96.000000 68.000000"
 preserveAspectRatio="xMidYMid meet">
<metadata>
Created by potrace 1.16, written by Peter Selinger 2001-2019
</metadata>
<g transform="translate(0.000000,68.000000) scale(0.100000,-0.100000)"
fill="#000000" stroke="none">
<path d="M615 555 c-38 -7 -100 -14 -137 -14 -67 -1 -78 -7 -57 -28 6 -6 19
-35 29 -65 14 -42 22 -52 36 -50 11 2 64 5 119 7 l100 3 32 64 c17 34 32 66
32 70 1 6 -67 29 -79 27 -3 -1 -36 -7 -75 -14z m79 -24 c13 -21 -6 -36 -49
-38 -37 -1 -45 2 -45 16 0 10 3 21 7 24 10 10 81 8 87 -2z m-139 -26 c0 -16
-8 -21 -42 -23 -37 -3 -43 0 -43 17 0 12 8 21 23 24 42 9 62 3 62 -18z m125
-50 c0 -22 -4 -25 -40 -25 -33 0 -40 3 -40 19 0 15 8 21 33 24 17 2 35 5 40 5
4 1 7 -9 7 -23z m-122 -12 c-5 -25 -71 -25 -76 0 -3 14 4 17 38 17 34 0 41 -3
38 -17z"/>
</g>
</svg>
