<?xml version="1.0" standalone="no"?>
<!DOCTYPE svg PUBLIC "-//W3C//DTD SVG 20010904//EN"
 "http://www.w3.org/TR/2001/REC-SVG-20010904/DTD/svg10.dtd">
<svg version="1.0" xmlns="http://www.w3.org/2000/svg"
 width="90.000000pt" height="92.000000pt" viewBox="0 0 90.000000 92.000000"
 preserveAspectRatio="xMidYMid meet">
<metadata>
Created by potrace 1.16, written by Peter Selinger 2001-2019
</metadata>
<g transform="translate(0.000000,92.000000) scale(0.100000,-0.100000)"
fill="#000000" stroke="none">
<path d="M506 863 c5 -10 10 -56 12 -102 4 -92 -1 -101 -53 -101 l-30 0 4 56
c3 58 -5 74 -40 74 -14 0 -16 -9 -11 -66 6 -74 -1 -84 -55 -84 -37 0 -43 -14
-13 -30 15 -8 43 -6 106 6 94 17 104 14 118 -33 8 -24 12 -23 -149 -48 -130
-21 -133 -22 -109 -40 15 -11 19 -25 17 -74 -3 -116 -47 -222 -127 -309 -32
-36 -36 -42 -16 -32 96 50 157 149 188 309 11 54 25 97 33 101 25 14 170 33
178 24 5 -5 24 -56 43 -114 20 -58 39 -112 42 -121 5 -12 -11 -35 -59 -83 -36
-36 -62 -66 -58 -66 14 0 108 57 122 74 19 23 28 20 47 -16 40 -80 144 -171
174 -153 5 3 3 26 -5 53 -8 26 -15 65 -15 87 0 65 -17 75 -25 16 -4 -31 -12
-51 -20 -51 -14 0 -77 66 -94 99 -9 17 -7 30 13 68 14 27 34 61 45 77 23 34
19 49 -15 65 -38 17 -43 14 -42 -27 0 -42 -29 -109 -42 -96 -10 11 -60 169
-60 190 0 10 13 14 49 14 55 0 72 14 45 36 -13 9 -34 13 -61 11 -40 -4 -43 -3
-43 20 0 15 -8 26 -22 32 -17 6 -10 9 33 14 30 4 77 7 104 7 66 0 82 11 55 35
-16 15 -29 17 -72 11 -155 -21 -140 -22 -136 10 3 27 7 30 77 44 41 8 76 20
78 27 7 21 -43 26 -98 10 l-51 -16 4 44 c6 50 -4 65 -45 65 -24 0 -28 -3 -21
-17z"/>
<path d="M140 639 c-25 -10 -58 -18 -75 -17 -35 2 -38 -4 -25 -52 5 -19 12
-61 15 -93 7 -54 24 -85 33 -59 2 7 16 12 30 12 15 0 43 3 63 6 35 6 37 9 43
53 3 25 14 68 23 94 17 47 17 49 -2 63 -24 18 -49 16 -105 -7z m41 -89 c-3
-62 -12 -75 -58 -85 l-33 -7 0 67 c0 59 2 67 23 75 12 5 33 8 47 7 23 -2 24
-5 21 -57z"/>
<path d="M750 575 c32 -47 53 -56 64 -29 8 22 -11 53 -40 64 -51 20 -57 12
-24 -35z"/>
<path d="M465 445 c-22 -8 -52 -14 -67 -14 -16 -1 -28 -5 -28 -11 0 -5 12 -12
28 -16 51 -11 52 -12 52 -61 0 -55 15 -89 25 -61 4 10 5 42 3 72 l-3 55 45 11
c42 11 44 12 26 26 -23 16 -28 16 -81 -1z"/>
<path d="M380 355 c0 -9 -9 -34 -20 -55 -27 -52 -11 -51 34 3 32 38 34 43 19
55 -22 16 -33 15 -33 -3z"/>
<path d="M530 337 c0 -48 -88 -142 -190 -202 l-45 -26 35 7 c78 15 162 72 215
145 38 53 42 68 23 87 -19 19 -38 14 -38 -11z"/>
</g>
</svg>
