<?xml version="1.0" standalone="no"?>
<!DOCTYPE svg PUBLIC "-//W3C//DTD SVG 20010904//EN"
 "http://www.w3.org/TR/2001/REC-SVG-20010904/DTD/svg10.dtd">
<svg version="1.0" xmlns="http://www.w3.org/2000/svg"
 width="96.000000pt" height="68.000000pt" viewBox="0 0 96.000000 68.000000"
 preserveAspectRatio="xMidYMid meet">
<metadata>
Created by potrace 1.16, written by Peter Selinger 2001-2019
</metadata>
<g transform="translate(0.000000,68.000000) scale(0.100000,-0.100000)"
fill="#000000" stroke="none">
<path d="M205 434 c-22 -8 -57 -14 -77 -12 -43 4 -43 5 -24 -25 8 -12 17 -40
21 -62 8 -55 20 -74 37 -57 6 6 35 12 63 12 48 0 50 1 51 28 1 16 8 44 17 62
22 44 21 57 -5 64 -31 8 -36 7 -83 -10z m35 -63 c0 -52 -8 -61 -55 -61 -19 0
-24 7 -29 42 -7 44 -3 53 29 61 51 12 55 10 55 -42z"/>
</g>
</svg>
