<?xml version="1.0" standalone="no"?>
<!DOCTYPE svg PUBLIC "-//W3C//DTD SVG 20010904//EN"
 "http://www.w3.org/TR/2001/REC-SVG-20010904/DTD/svg10.dtd">
<svg version="1.0" xmlns="http://www.w3.org/2000/svg"
 width="96.000000pt" height="68.000000pt" viewBox="0 0 96.000000 68.000000"
 preserveAspectRatio="xMidYMid meet">
<metadata>
Created by potrace 1.16, written by Peter Selinger 2001-2019
</metadata>
<g transform="translate(0.000000,68.000000) scale(0.100000,-0.100000)"
fill="#000000" stroke="none">
<path d="M600 319 c-22 -8 -22 -8 6 -4 28 3 31 1 29 -19 -2 -19 2 -23 21 -23
22 0 29 8 25 30 -1 5 3 6 8 3 5 -4 12 -2 16 4 3 5 0 11 -7 11 -49 6 -76 5 -98
-2z"/>
<path d="M535 305 c-5 -2 -23 -6 -39 -10 l-29 -6 24 -16 c33 -22 89 -75 89
-85 0 -17 -57 -59 -94 -69 -21 -6 -36 -12 -34 -14 8 -8 77 16 93 31 8 9 15 13
15 10 0 -3 12 2 27 9 25 13 28 13 35 -4 4 -11 16 -22 27 -26 12 -3 19 -10 16
-15 -16 -26 143 -46 168 -21 8 8 5 11 -11 11 -18 0 -99 27 -166 55 -15 6 -17
5 -11 -5 5 -9 4 -11 -4 -6 -6 4 -9 11 -6 16 3 5 1 11 -4 14 -10 6 15 66 32 77
5 4 5 9 -1 13 -6 3 -13 2 -17 -4 -4 -6 -10 -8 -14 -5 -5 2 -11 -9 -14 -25 -8
-37 -28 -32 -74 16 l-32 34 32 14 c27 12 21 21 -8 11z m75 -125 c0 -5 -4 -10
-10 -10 -5 0 -10 5 -10 10 0 6 5 10 10 10 6 0 10 -4 10 -10z m157 -86 c-3 -3
-12 -4 -19 -1 -8 3 -5 6 6 6 11 1 17 -2 13 -5z"/>
</g>
</svg>
