<?xml version="1.0" standalone="no"?>
<!DOCTYPE svg PUBLIC "-//W3C//DTD SVG 20010904//EN"
 "http://www.w3.org/TR/2001/REC-SVG-20010904/DTD/svg10.dtd">
<svg version="1.0" xmlns="http://www.w3.org/2000/svg"
 width="96.000000pt" height="68.000000pt" viewBox="0 0 96.000000 68.000000"
 preserveAspectRatio="xMidYMid meet">
<metadata>
Created by potrace 1.16, written by Peter Selinger 2001-2019
</metadata>
<g transform="translate(0.000000,68.000000) scale(0.100000,-0.100000)"
fill="#000000" stroke="none">
<path d="M330 559 c-14 -6 -55 -11 -92 -12 -37 -1 -68 -5 -68 -8 0 -3 5 -20
11 -38 8 -24 8 -52 0 -108 -14 -97 -8 -106 56 -87 25 8 63 14 85 14 21 0 38 5
38 11 0 8 -21 9 -70 4 l-70 -7 0 94 0 94 85 11 c94 13 115 21 94 34 -18 11
-38 10 -69 -2z"/>
</g>
</svg>
