<?xml version="1.0" standalone="no"?>
<!DOCTYPE svg PUBLIC "-//W3C//DTD SVG 20010904//EN"
 "http://www.w3.org/TR/2001/REC-SVG-20010904/DTD/svg10.dtd">
<svg version="1.0" xmlns="http://www.w3.org/2000/svg"
 width="90.000000pt" height="92.000000pt" viewBox="0 0 90.000000 92.000000"
 preserveAspectRatio="xMidYMid meet">
<metadata>
Created by potrace 1.16, written by Peter Selinger 2001-2019
</metadata>
<g transform="translate(0.000000,92.000000) scale(0.100000,-0.100000)"
fill="#000000" stroke="none">
<path d="M380 813 c-1 -63 -70 -166 -189 -282 -36 -35 -86 -77 -110 -94 -64
-44 -34 -45 49 -1 85 44 187 138 255 233 28 38 55 70 61 70 14 1 54 -42 153
-167 46 -57 94 -108 107 -114 18 -8 42 -8 91 1 37 7 71 15 76 18 5 3 -39 29
-99 58 -80 37 -126 67 -173 111 -35 32 -81 75 -103 94 -21 20 -38 40 -38 46 0
16 -44 54 -63 54 -12 0 -17 -8 -17 -27z"/>
<path d="M388 544 c-3 -3 0 -17 7 -32 7 -16 15 -89 19 -179 l6 -153 -60 0 -60
0 -2 58 c-1 31 -2 73 -3 92 0 47 -10 60 -46 60 -28 0 -39 -13 -20 -24 4 -3 11
-31 15 -63 4 -32 9 -75 13 -95 5 -37 4 -38 -23 -38 -53 0 -105 -13 -101 -24 7
-20 67 -33 111 -24 22 5 140 12 261 16 182 6 220 10 220 21 0 8 -14 23 -30 33
-28 15 -40 16 -122 6 -51 -7 -94 -10 -97 -7 -2 2 -6 36 -8 75 l-3 71 40 -1
c58 0 135 14 135 25 0 24 -46 31 -105 15 -46 -12 -61 -12 -67 -3 -9 13 -1 83
13 109 14 27 11 37 -21 53 -29 15 -62 20 -72 9z"/>
</g>
</svg>
