<?xml version="1.0" standalone="no"?>
<!DOCTYPE svg PUBLIC "-//W3C//DTD SVG 20010904//EN"
 "http://www.w3.org/TR/2001/REC-SVG-20010904/DTD/svg10.dtd">
<svg version="1.0" xmlns="http://www.w3.org/2000/svg"
 width="96.000000pt" height="68.000000pt" viewBox="0 0 96.000000 68.000000"
 preserveAspectRatio="xMidYMid meet">
<metadata>
Created by potrace 1.16, written by Peter Selinger 2001-2019
</metadata>
<g transform="translate(0.000000,68.000000) scale(0.100000,-0.100000)"
fill="#000000" stroke="none">
<path d="M255 423 c-10 -16 -29 -40 -43 -55 -32 -35 -18 -36 30 -3 21 14 51
25 69 25 l33 0 -29 -30 c-40 -42 -12 -38 46 7 58 44 52 63 -13 46 -48 -13 -56
-10 -39 11 9 11 8 15 -5 20 -25 10 -31 7 -49 -21z"/>
</g>
</svg>
