<?xml version="1.0" standalone="no"?>
<!DOCTYPE svg PUBLIC "-//W3C//DTD SVG 20010904//EN"
 "http://www.w3.org/TR/2001/REC-SVG-20010904/DTD/svg10.dtd">
<svg version="1.0" xmlns="http://www.w3.org/2000/svg"
 width="96.000000pt" height="68.000000pt" viewBox="0 0 96.000000 68.000000"
 preserveAspectRatio="xMidYMid meet">
<metadata>
Created by potrace 1.16, written by Peter Selinger 2001-2019
</metadata>
<g transform="translate(0.000000,68.000000) scale(0.100000,-0.100000)"
fill="#000000" stroke="none">
<path d="M200 526 c0 -17 46 -66 61 -66 27 0 33 20 13 40 -19 19 -74 38 -74
26z"/>
<path d="M150 371 c5 -11 20 -27 32 -35 20 -14 24 -14 37 -1 13 13 12 17 -4
35 -10 11 -31 20 -47 20 -25 0 -27 -2 -18 -19z"/>
<path d="M224 238 c-22 -29 -51 -64 -66 -76 -33 -28 -35 -51 -9 -83 l20 -24
14 35 c9 19 31 71 51 114 20 44 34 81 32 83 -2 2 -21 -20 -42 -49z"/>
</g>
</svg>
