<?xml version="1.0" standalone="no"?>
<!DOCTYPE svg PUBLIC "-//W3C//DTD SVG 20010904//EN"
 "http://www.w3.org/TR/2001/REC-SVG-20010904/DTD/svg10.dtd">
<svg version="1.0" xmlns="http://www.w3.org/2000/svg"
 width="96.000000pt" height="68.000000pt" viewBox="0 0 96.000000 68.000000"
 preserveAspectRatio="xMidYMid meet">
<metadata>
Created by potrace 1.16, written by Peter Selinger 2001-2019
</metadata>
<g transform="translate(0.000000,68.000000) scale(0.100000,-0.100000)"
fill="#000000" stroke="none">
<path d="M590 211 c15 -29 12 -97 -5 -111 -8 -6 -23 -9 -36 -5 -21 7 -21 7 2
-24 26 -35 48 -39 72 -13 13 14 17 38 17 95 l0 77 -30 0 c-27 0 -30 -2 -20
-19z"/>
<path d="M480 165 c0 -8 -14 -30 -31 -50 -17 -19 -28 -35 -24 -35 13 0 51 23
77 48 21 19 25 29 17 39 -15 17 -39 17 -39 -2z"/>
<path d="M743 135 c50 -49 77 -51 62 -5 -7 21 -31 34 -83 46 -25 5 -23 2 21
-41z"/>
</g>
</svg>
