<?xml version="1.0" standalone="no"?>
<!DOCTYPE svg PUBLIC "-//W3C//DTD SVG 20010904//EN"
 "http://www.w3.org/TR/2001/REC-SVG-20010904/DTD/svg10.dtd">
<svg version="1.0" xmlns="http://www.w3.org/2000/svg"
 width="96.000000pt" height="68.000000pt" viewBox="0 0 96.000000 68.000000"
 preserveAspectRatio="xMidYMid meet">
<metadata>
Created by potrace 1.16, written by Peter Selinger 2001-2019
</metadata>
<g transform="translate(0.000000,68.000000) scale(0.100000,-0.100000)"
fill="#000000" stroke="none">
<path d="M585 569 c-16 -5 -108 -20 -204 -34 -96 -14 -177 -28 -180 -31 -22
-22 128 -30 180 -9 15 5 16 1 12 -32 -9 -68 -105 -231 -189 -322 -31 -33 -23
-38 19 -12 66 41 144 138 211 264 40 76 43 92 20 105 -10 6 10 12 66 21 45 7
84 10 87 7 8 -7 -25 -74 -55 -114 -20 -27 -23 -37 -15 -50 6 -10 16 -16 23
-14 6 1 38 5 71 9 l60 6 -6 -39 c-11 -63 -35 -131 -56 -158 -33 -42 -54 -49
-94 -32 -43 18 -44 11 -4 -41 37 -47 59 -47 114 1 29 25 44 53 76 141 22 61
40 114 42 119 4 18 -47 37 -83 31 -71 -13 -80 -13 -80 -4 0 14 81 119 92 119
5 0 6 5 3 10 -3 6 -1 10 4 10 6 0 11 9 11 20 0 14 -11 22 -37 29 -44 12 -47
12 -88 0z"/>
</g>
</svg>
