<?xml version="1.0" standalone="no"?>
<!DOCTYPE svg PUBLIC "-//W3C//DTD SVG 20010904//EN"
 "http://www.w3.org/TR/2001/REC-SVG-20010904/DTD/svg10.dtd">
<svg version="1.0" xmlns="http://www.w3.org/2000/svg"
 width="96.000000pt" height="68.000000pt" viewBox="0 0 96.000000 68.000000"
 preserveAspectRatio="xMidYMid meet">
<metadata>
Created by potrace 1.16, written by Peter Selinger 2001-2019
</metadata>
<g transform="translate(0.000000,68.000000) scale(0.100000,-0.100000)"
fill="#000000" stroke="none">
<path d="M440 191 c0 -16 -9 -21 -47 -26 -84 -11 -103 -16 -97 -27 4 -6 32 -7
75 -3 76 8 75 9 60 -57 -6 -26 -5 -42 4 -54 21 -30 35 -6 35 61 0 68 6 75 60
75 16 0 32 5 35 10 7 11 -5 14 -56 11 -25 -2 -38 2 -42 13 -9 22 -27 20 -27
-3z"/>
</g>
</svg>
