<?xml version="1.0" standalone="no"?>
<!DOCTYPE svg PUBLIC "-//W3C//DTD SVG 20010904//EN"
 "http://www.w3.org/TR/2001/REC-SVG-20010904/DTD/svg10.dtd">
<svg version="1.0" xmlns="http://www.w3.org/2000/svg"
 width="96.000000pt" height="68.000000pt" viewBox="0 0 96.000000 68.000000"
 preserveAspectRatio="xMidYMid meet">
<metadata>
Created by potrace 1.16, written by Peter Selinger 2001-2019
</metadata>
<g transform="translate(0.000000,68.000000) scale(0.100000,-0.100000)"
fill="#000000" stroke="none">
<path d="M534 354 c-6 -3 -47 -8 -90 -12 l-79 -7 3 -40 c2 -21 -4 -78 -14
-126 -16 -82 -15 -119 4 -119 11 0 29 39 37 83 l7 34 94 9 95 9 -3 -45 c-3
-45 -3 -45 -38 -42 l-35 4 34 -36 c40 -42 51 -44 77 -15 17 18 19 34 16 124
-1 56 2 115 8 130 9 23 7 30 -7 41 -17 13 -85 18 -109 8z m56 -48 c0 -21 -5
-24 -67 -30 -38 -4 -78 -9 -90 -13 -20 -4 -23 -1 -23 25 0 34 8 37 128 40 48
2 52 0 52 -22z m0 -75 l0 -28 -87 -6 c-90 -7 -108 -2 -98 25 5 11 28 19 78 26
112 15 107 15 107 -17z"/>
</g>
</svg>
