<?xml version="1.0" standalone="no"?>
<!DOCTYPE svg PUBLIC "-//W3C//DTD SVG 20010904//EN"
 "http://www.w3.org/TR/2001/REC-SVG-20010904/DTD/svg10.dtd">
<svg version="1.0" xmlns="http://www.w3.org/2000/svg"
 width="96.000000pt" height="68.000000pt" viewBox="0 0 96.000000 68.000000"
 preserveAspectRatio="xMidYMid meet">
<metadata>
Created by potrace 1.16, written by Peter Selinger 2001-2019
</metadata>
<g transform="translate(0.000000,68.000000) scale(0.100000,-0.100000)"
fill="#000000" stroke="none">
<path d="M305 583 c4 -10 10 -52 12 -94 l5 -77 -71 -7 c-39 -4 -71 -11 -71
-16 0 -5 32 -9 70 -9 l70 0 0 -48 0 -47 -87 -30 c-49 -16 -92 -32 -97 -36 -4
-4 4 -15 19 -25 28 -18 28 -18 98 20 51 27 68 33 63 21 -3 -9 -6 -38 -6 -63 0
-64 -8 -74 -50 -62 l-34 10 39 -40 c70 -72 95 -44 95 103 l0 92 35 19 c19 11
41 26 47 34 10 11 5 11 -26 -2 -53 -22 -56 -21 -56 23 0 42 1 43 68 56 49 10
38 25 -18 25 -46 0 -50 2 -50 23 0 13 7 46 15 72 8 27 13 50 12 51 -15 11 -50
24 -67 24 -17 0 -20 -4 -15 -17z"/>
</g>
</svg>
