<?xml version="1.0" standalone="no"?>
<!DOCTYPE svg PUBLIC "-//W3C//DTD SVG 20010904//EN"
 "http://www.w3.org/TR/2001/REC-SVG-20010904/DTD/svg10.dtd">
<svg version="1.0" xmlns="http://www.w3.org/2000/svg"
 width="96.000000pt" height="68.000000pt" viewBox="0 0 96.000000 68.000000"
 preserveAspectRatio="xMidYMid meet">
<metadata>
Created by potrace 1.16, written by Peter Selinger 2001-2019
</metadata>
<g transform="translate(0.000000,68.000000) scale(0.100000,-0.100000)"
fill="#000000" stroke="none">
<path d="M635 264 c-49 -8 -111 -14 -138 -12 -51 3 -54 -1 -33 -35 7 -12 16
-44 20 -71 6 -50 24 -85 35 -67 4 5 51 12 106 16 132 8 172 14 156 25 -11 6
-11 15 -1 46 7 22 20 47 28 57 14 16 14 19 1 33 -23 22 -73 24 -174 8z m93
-22 c10 -7 10 -19 2 -59 l-11 -50 -76 -7 c-124 -10 -118 -12 -131 42 -6 26 -7
50 -4 54 4 4 43 11 87 16 109 13 118 13 133 4z"/>
</g>
</svg>
