<?xml version="1.0" standalone="no"?>
<!DOCTYPE svg PUBLIC "-//W3C//DTD SVG 20010904//EN"
 "http://www.w3.org/TR/2001/REC-SVG-20010904/DTD/svg10.dtd">
<svg version="1.0" xmlns="http://www.w3.org/2000/svg"
 width="90.000000pt" height="92.000000pt" viewBox="0 0 90.000000 92.000000"
 preserveAspectRatio="xMidYMid meet">
<metadata>
Created by potrace 1.16, written by Peter Selinger 2001-2019
</metadata>
<g transform="translate(0.000000,92.000000) scale(0.100000,-0.100000)"
fill="#000000" stroke="none">
<path d="M441 809 c-36 -10 -102 -23 -148 -28 -46 -5 -87 -12 -91 -16 -9 -9
27 -35 48 -35 10 0 59 9 111 20 149 31 152 30 88 -55 -31 -41 -48 -55 -66 -55
-20 0 -24 -4 -18 -17 28 -66 34 -98 35 -179 0 -50 -3 -106 -6 -124 -7 -30 -9
-32 -49 -28 l-43 3 40 -48 c47 -55 65 -57 91 -7 15 29 18 55 15 158 -2 67 0
122 4 122 3 0 42 -39 85 -87 43 -49 97 -108 121 -132 l42 -44 75 6 c40 3 82
10 92 16 17 9 17 10 -2 17 -130 46 -215 92 -290 157 l-40 35 93 27 c53 16 92
33 92 41 0 7 -16 22 -35 34 l-35 22 -61 -56 -61 -55 -42 27 c-22 14 -42 26
-43 27 0 0 -4 16 -8 35 -6 34 -4 37 57 81 35 26 77 54 95 63 42 21 35 40 -28
71 -27 14 -50 24 -51 24 -2 -1 -32 -10 -67 -20z"/>
<path d="M190 529 c-36 -10 -80 -18 -97 -18 -40 -1 -44 -23 -8 -39 20 -9 38
-7 91 9 36 11 70 19 75 17 15 -5 -84 -145 -149 -211 -62 -63 -59 -72 9 -29 41
27 78 65 192 195 l47 55 -26 21 c-31 24 -46 24 -134 0z"/>
<path d="M490 200 c-36 -4 -131 -13 -212 -20 -82 -7 -148 -17 -148 -22 0 -5
16 -16 36 -24 30 -13 45 -13 88 -3 28 6 137 14 241 16 105 3 194 9 198 13 5 4
-4 17 -19 29 -29 23 -62 25 -184 11z"/>
</g>
</svg>
