<?xml version="1.0" standalone="no"?>
<!DOCTYPE svg PUBLIC "-//W3C//DTD SVG 20010904//EN"
 "http://www.w3.org/TR/2001/REC-SVG-20010904/DTD/svg10.dtd">
<svg version="1.0" xmlns="http://www.w3.org/2000/svg"
 width="96.000000pt" height="68.000000pt" viewBox="0 0 96.000000 68.000000"
 preserveAspectRatio="xMidYMid meet">
<metadata>
Created by potrace 1.16, written by Peter Selinger 2001-2019
</metadata>
<g transform="translate(0.000000,68.000000) scale(0.100000,-0.100000)"
fill="#000000" stroke="none">
<path d="M297 593 c-4 -3 -7 -17 -7 -30 0 -29 -65 -137 -126 -209 -50 -58 -41
-75 15 -28 17 14 36 22 42 18 7 -4 9 -3 6 3 -4 6 1 17 10 24 15 13 16 6 9 -87
-4 -56 -11 -116 -16 -133 -17 -59 24 -121 48 -74 15 30 23 302 9 324 -8 13 -9
24 -2 33 79 113 87 128 74 141 -18 17 -53 27 -62 18z"/>
<path d="M605 565 c-22 -8 -53 -14 -70 -14 -16 -1 -37 -6 -45 -12 -11 -7 7 -8
63 -4 76 7 77 6 77 -17 -1 -44 -21 -56 -106 -64 -43 -4 -88 -10 -99 -14 -17
-6 -16 -8 10 -13 17 -4 39 -6 50 -4 16 2 19 -3 17 -23 -1 -14 -7 -26 -12 -28
-6 -2 -10 -9 -10 -15 0 -6 -10 -21 -22 -34 -27 -28 -6 -31 25 -3 12 11 27 18
35 15 7 -3 25 -5 38 -5 21 0 24 -5 24 -35 0 -39 -1 -39 -104 -50 -78 -9 -59
-28 23 -23 34 1 61 -1 61 -5 0 -20 -57 -80 -98 -104 -56 -33 -41 -42 21 -13
53 25 80 49 112 101 24 37 27 39 79 39 72 0 146 11 146 21 0 16 -49 21 -119
12 -69 -9 -71 -9 -64 11 3 12 6 29 5 38 0 12 10 19 36 24 20 4 44 10 52 15 34
18 -23 21 -111 4 -50 -9 -94 -14 -97 -11 -3 4 4 16 16 29 12 13 22 30 22 39 0
13 18 17 98 23 142 9 143 9 140 20 -2 6 -33 10 -70 9 -38 0 -68 3 -68 7 0 3 9
18 20 32 25 32 25 44 1 57 -23 12 -24 12 -76 -5z"/>
<path d="M358 336 c2 -41 0 -82 -6 -91 -13 -24 -3 -57 17 -53 22 4 39 197 19
210 -29 18 -33 7 -30 -66z"/>
<path d="M693 131 c49 -46 65 -55 95 -52 42 4 -23 73 -86 91 -62 17 -63 12 -9
-39z"/>
</g>
</svg>
