<?xml version="1.0" standalone="no"?>
<!DOCTYPE svg PUBLIC "-//W3C//DTD SVG 20010904//EN"
 "http://www.w3.org/TR/2001/REC-SVG-20010904/DTD/svg10.dtd">
<svg version="1.0" xmlns="http://www.w3.org/2000/svg"
 width="96.000000pt" height="68.000000pt" viewBox="0 0 96.000000 68.000000"
 preserveAspectRatio="xMidYMid meet">
<metadata>
Created by potrace 1.16, written by Peter Selinger 2001-2019
</metadata>
<g transform="translate(0.000000,68.000000) scale(0.100000,-0.100000)"
fill="#000000" stroke="none">
<path d="M327 193 c-4 -3 -7 -14 -7 -24 0 -12 -9 -19 -27 -22 l-28 -4 28 -2
c21 -1 27 -6 27 -25 0 -21 -6 -25 -50 -31 -27 -4 -50 -10 -50 -15 0 -20 48
-16 118 8 68 24 73 27 44 30 -17 2 -32 7 -32 11 0 14 24 31 45 31 18 1 19 1 2
11 -9 5 -22 7 -27 4 -6 -3 -10 3 -10 14 0 20 -19 28 -33 14z"/>
</g>
</svg>
