<?xml version="1.0" standalone="no"?>
<!DOCTYPE svg PUBLIC "-//W3C//DTD SVG 20010904//EN"
 "http://www.w3.org/TR/2001/REC-SVG-20010904/DTD/svg10.dtd">
<svg version="1.0" xmlns="http://www.w3.org/2000/svg"
 width="90.000000pt" height="92.000000pt" viewBox="0 0 90.000000 92.000000"
 preserveAspectRatio="xMidYMid meet">
<metadata>
Created by potrace 1.16, written by Peter Selinger 2001-2019
</metadata>
<g transform="translate(0.000000,92.000000) scale(0.100000,-0.100000)"
fill="#000000" stroke="none">
<path d="M461 858 c-12 -24 -39 -63 -61 -87 -22 -25 -40 -46 -40 -48 0 -7 45
20 82 49 23 18 45 27 56 24 9 -3 32 -2 50 3 42 13 42 -4 0 -52 -29 -31 -41
-36 -104 -45 -39 -5 -83 -8 -97 -5 -28 6 -35 -5 -16 -24 6 -6 16 -34 22 -62
15 -65 32 -63 32 4 l0 50 47 9 c27 5 51 7 54 3 9 -9 -5 -45 -33 -77 -32 -39
-18 -38 30 1 l37 30 26 -20 c30 -24 64 -28 64 -7 0 18 -19 33 -53 41 -15 4
-26 10 -23 13 3 3 1 11 -4 17 -12 15 5 21 98 31 69 7 71 5 47 -53 -8 -19 -15
-44 -15 -54 0 -26 27 -24 41 4 7 12 25 39 41 60 54 68 13 98 -101 74 l-72 -15
22 24 c12 13 39 35 60 50 22 15 39 30 39 35 0 5 -13 15 -30 24 -26 14 -34 14
-57 1 -16 -7 -45 -19 -67 -24 l-39 -11 23 24 c25 27 25 27 -7 44 -30 15 -29
16 -52 -31z"/>
<path d="M180 709 c-36 -10 -79 -18 -97 -18 -63 -2 -48 -32 18 -35 39 -2 49
-19 49 -88 0 -55 -1 -58 -27 -64 -53 -11 -63 -15 -63 -25 0 -5 20 -9 45 -9
l45 0 0 -74 0 -75 -54 -15 c-30 -9 -61 -16 -70 -16 -9 0 -16 -4 -16 -9 0 -11
48 -51 61 -51 7 0 246 127 258 136 2 2 2 6 -1 9 -2 3 -31 -4 -63 -15 -32 -11
-60 -20 -62 -20 -1 0 -3 31 -3 70 0 66 1 70 25 75 14 3 36 7 50 10 14 3 25 9
25 14 0 13 -56 24 -81 16 -22 -7 -22 -6 -16 63 5 52 4 71 -6 75 -6 2 8 7 33
11 25 3 52 11 60 16 13 9 12 12 -4 25 -23 17 -22 18 -106 -6z"/>
<path d="M530 555 c-30 -7 -75 -14 -100 -14 l-45 -1 1 -115 c0 -63 3 -118 7
-121 4 -4 13 -1 22 6 12 10 15 10 15 -4 0 -18 -103 -127 -155 -164 l-30 -22
45 15 c25 8 68 32 96 54 45 34 58 39 122 43 41 3 72 1 72 -4 0 -14 -30 -68
-38 -68 -4 0 -26 7 -50 15 -60 21 -75 7 -21 -21 l44 -22 -59 -27 c-32 -14 -78
-28 -102 -32 -48 -6 -60 -23 -16 -23 42 0 151 28 182 47 28 16 30 15 98 -25
52 -31 81 -42 112 -42 47 0 130 19 130 30 0 4 -33 12 -72 19 -65 12 -187 46
-197 57 -2 2 8 22 23 45 15 22 25 47 22 54 -3 9 8 16 35 20 24 4 38 12 36 18
-7 23 -76 20 -207 -10 -14 -3 -22 -2 -17 2 4 5 -2 18 -13 30 l-21 22 81 7 c69
6 85 5 100 -9 17 -16 19 -15 28 2 5 10 11 66 14 125 3 104 3 107 -20 117 -28
13 -50 12 -122 -4z m90 -44 c0 -14 -6 -17 -25 -14 -13 3 -48 0 -77 -6 -101
-23 -98 -23 -98 -3 0 15 11 21 53 29 28 6 73 11 100 12 40 1 47 -2 47 -18z m3
-57 c4 -22 2 -25 -16 -20 -11 3 -48 -1 -81 -9 -85 -20 -106 -19 -106 5 0 16 7
20 33 20 25 1 158 24 163 29 1 0 4 -11 7 -25z m2 -61 c-2 -10 -4 -21 -4 -24
-1 -3 -16 -6 -33 -6 -18 0 -63 -4 -100 -8 -57 -7 -68 -5 -68 7 0 10 25 19 88
30 118 21 121 21 117 1z"/>
</g>
</svg>
