<?xml version="1.0" standalone="no"?>
<!DOCTYPE svg PUBLIC "-//W3C//DTD SVG 20010904//EN"
 "http://www.w3.org/TR/2001/REC-SVG-20010904/DTD/svg10.dtd">
<svg version="1.0" xmlns="http://www.w3.org/2000/svg"
 width="90.000000pt" height="92.000000pt" viewBox="0 0 90.000000 92.000000"
 preserveAspectRatio="xMidYMid meet">
<metadata>
Created by potrace 1.16, written by Peter Selinger 2001-2019
</metadata>
<g transform="translate(0.000000,92.000000) scale(0.100000,-0.100000)"
fill="#000000" stroke="none">
<path d="M480 875 c0 -3 11 -27 24 -54 l25 -48 -52 -7 c-81 -9 -127 -7 -127 6
0 21 -15 -4 -39 -65 -26 -66 -23 -101 8 -73 10 9 23 33 29 54 10 33 15 37 47
39 26 1 35 -2 35 -14 0 -17 -42 -79 -69 -102 -14 -11 -13 -12 9 -6 28 7 110
90 110 111 0 8 -6 14 -12 15 -7 1 7 5 32 10 51 10 63 0 56 -43 -8 -40 27 -60
95 -56 42 2 55 7 57 21 3 15 -5 17 -57 17 -65 0 -69 4 -55 58 6 20 12 22 74
22 l69 0 -10 -32 c-5 -17 -8 -33 -6 -34 6 -6 111 23 114 32 2 5 -12 25 -32 44
l-35 34 -88 -12 c-124 -17 -120 -17 -118 20 1 28 -4 35 -34 50 -37 18 -50 21
-50 13z"/>
<path d="M155 823 c3 -16 9 -74 12 -129 l5 -102 -33 -10 c-19 -6 -51 -14 -72
-18 -62 -11 -38 -29 36 -28 l67 1 0 -52 c0 -52 0 -52 -53 -87 -28 -19 -67 -43
-85 -52 -33 -17 -41 -43 -20 -64 22 -22 42 -13 101 46 l59 57 -7 -95 c-4 -52
-9 -99 -12 -103 -3 -5 -21 -6 -40 -2 l-34 6 41 -53 c23 -29 46 -54 50 -56 5
-2 17 9 27 24 16 25 18 46 15 167 l-4 140 43 43 c50 51 48 64 -4 28 l-37 -25
0 45 c0 42 2 45 35 56 43 14 46 38 5 47 -29 5 -30 7 -30 62 1 31 7 73 14 93 7
20 10 40 7 45 -12 18 -56 43 -74 43 -16 0 -18 -5 -12 -27z"/>
<path d="M460 632 c0 -5 -14 -23 -31 -40 -24 -24 -37 -30 -55 -26 -23 6 -34
-9 -15 -20 5 -3 12 -32 16 -64 3 -32 10 -63 13 -69 5 -7 44 -6 126 4 90 10
121 10 127 2 13 -21 28 1 50 74 11 40 25 76 30 81 15 16 10 25 -22 41 -28 15
-34 15 -70 1 -22 -9 -48 -16 -59 -16 -10 0 -22 -5 -26 -12 -6 -10 38 -8 98 4
8 2 14 -8 16 -26 3 -22 0 -27 -11 -23 -8 3 -33 1 -56 -5 -53 -13 -40 -32 19
-26 39 3 41 2 38 -22 -2 -19 -9 -25 -33 -27 -16 -1 -60 -7 -97 -13 -96 -15
-105 -14 -110 14 -4 22 -1 24 43 30 27 4 51 11 54 16 9 15 -38 22 -69 11 -36
-14 -36 -14 -36 12 0 18 10 27 51 42 58 23 65 30 49 50 -13 16 -40 20 -40 7z"/>
<path d="M470 391 c0 -6 5 -13 10 -16 14 -9 13 -179 -2 -227 -10 -33 -9 -41 5
-56 16 -15 21 -12 85 51 l67 68 -45 -20 c-62 -28 -70 -27 -70 14 0 34 1 35 43
35 43 0 77 14 65 25 -10 10 -49 10 -75 1 -20 -6 -23 -4 -23 17 0 21 6 25 40
31 22 3 40 10 40 15 0 13 -34 23 -54 15 -12 -4 -16 -1 -16 15 0 21 -26 41 -54
41 -9 0 -16 -4 -16 -9z"/>
<path d="M624 383 c3 -10 10 -49 16 -88 12 -78 40 -148 73 -183 31 -34 94 -64
125 -60 30 3 29 -1 14 118 l-8 65 -18 -57 c-10 -32 -22 -58 -29 -58 -20 0 -75
44 -93 75 -13 21 -19 52 -20 104 -1 59 -5 77 -20 88 -26 19 -46 17 -40 -4z"/>
<path d="M327 343 c11 -52 5 -203 -8 -220 -9 -10 -7 -20 6 -39 l17 -26 59 58
c32 32 57 60 55 62 -2 2 -21 -4 -41 -12 -52 -22 -56 -21 -53 18 2 33 3 34 50
38 27 3 51 8 55 12 17 17 -35 26 -74 12 -20 -6 -23 -4 -23 17 0 22 6 26 45 31
25 4 45 11 45 16 0 13 -30 20 -56 14 -20 -5 -24 -2 -24 15 0 11 -9 25 -19 31
-35 18 -42 13 -34 -27z"/>
</g>
</svg>
