<?xml version="1.0" standalone="no"?>
<!DOCTYPE svg PUBLIC "-//W3C//DTD SVG 20010904//EN"
 "http://www.w3.org/TR/2001/REC-SVG-20010904/DTD/svg10.dtd">
<svg version="1.0" xmlns="http://www.w3.org/2000/svg"
 width="96.000000pt" height="68.000000pt" viewBox="0 0 96.000000 68.000000"
 preserveAspectRatio="xMidYMid meet">
<metadata>
Created by potrace 1.16, written by Peter Selinger 2001-2019
</metadata>
<g transform="translate(0.000000,68.000000) scale(0.100000,-0.100000)"
fill="#000000" stroke="none">
<path d="M510 593 c0 -18 47 -66 58 -59 16 9 15 31 0 44 -19 14 -58 25 -58 15z"/>
<path d="M227 487 l6 -96 -39 -6 c-82 -13 -94 -17 -88 -26 3 -5 32 -9 65 -9
l59 0 0 -38 c0 -37 -1 -38 -75 -75 -41 -20 -75 -41 -75 -46 0 -5 14 -14 30
-21 33 -13 36 -12 93 39 l27 25 0 -45 c0 -74 -8 -89 -41 -82 -16 3 -29 1 -29
-4 0 -13 74 -83 88 -83 22 0 32 48 32 148 l0 97 37 32 c40 33 41 57 1 29 -32
-23 -40 -20 -36 11 2 19 10 29 23 31 42 7 48 11 35 27 -7 8 -23 15 -36 15 -21
0 -22 3 -18 38 3 20 10 50 16 65 13 34 -2 53 -49 63 l-32 6 6 -95z"/>
<path d="M625 529 c-38 -5 -109 -10 -157 -11 l-86 -3 -21 -42 c-13 -26 -17
-45 -10 -48 14 -9 36 11 43 40 5 21 13 25 41 25 43 0 44 -9 4 -55 -40 -45 -24
-45 30 1 24 21 40 42 37 50 -4 10 5 14 34 14 37 0 40 -2 40 -29 0 -17 6 -31
16 -35 26 -10 124 -7 124 4 0 6 -22 10 -48 10 -53 0 -72 12 -65 40 5 18 47 30
106 30 29 0 35 -17 15 -39 -11 -11 -5 -12 32 -6 60 9 71 21 41 46 -25 21 -57
22 -176 8z"/>
<path d="M470 395 l-23 -25 46 16 c26 9 44 20 41 25 -10 17 -40 9 -64 -16z"/>
<path d="M603 403 c-13 -2 -23 -9 -23 -14 0 -5 11 -7 25 -3 45 11 59 9 63 -8
2 -13 -7 -18 -42 -23 -25 -4 -44 -11 -41 -15 3 -5 21 -6 41 -3 32 5 36 4 32
-13 -3 -15 -16 -20 -63 -26 -33 -4 -79 -9 -102 -12 -41 -5 -43 -4 -43 19 0 22
4 25 37 25 20 0 33 3 29 7 -4 4 -23 6 -42 4 -25 -2 -34 1 -34 13 0 18 -16 30
-29 21 -6 -3 -6 -16 -1 -33 4 -15 11 -39 14 -53 6 -26 8 -27 58 -23 29 2 85 5
123 6 l71 2 22 57 c12 31 22 61 22 68 0 11 -69 13 -117 4z"/>
<path d="M518 170 c3 -50 0 -85 -7 -94 -12 -14 -5 -46 10 -46 12 0 110 73 104
78 -2 2 -19 -2 -39 -9 -42 -15 -53 -8 -38 25 9 20 20 26 54 29 l43 4 -49 1
c-39 2 -47 5 -42 18 3 9 6 18 6 20 0 2 17 4 38 4 24 0 32 3 23 9 -7 5 -22 6
-33 3 -14 -3 -21 1 -25 17 -3 13 -13 21 -27 21 -20 0 -21 -4 -18 -80z"/>
<path d="M646 208 c3 -24 18 -68 33 -98 30 -62 83 -100 139 -100 l33 0 -7 47
c-9 65 -14 71 -30 34 -17 -40 -45 -40 -86 -2 -26 24 -32 38 -37 92 -5 57 -9
64 -29 67 -21 3 -22 1 -16 -40z"/>
<path d="M375 133 c1 -108 8 -128 36 -100 8 7 26 21 42 31 38 26 34 39 -8 22
l-35 -15 0 30 c0 27 2 29 40 29 22 0 40 5 40 10 0 6 -18 10 -40 10 -31 0 -38
3 -34 15 4 8 19 15 34 15 16 0 32 5 35 10 4 6 -8 10 -29 10 -24 0 -36 5 -36
14 0 12 -20 26 -38 26 -4 0 -7 -48 -7 -107z"/>
</g>
</svg>
