<?xml version="1.0" standalone="no"?>
<!DOCTYPE svg PUBLIC "-//W3C//DTD SVG 20010904//EN"
 "http://www.w3.org/TR/2001/REC-SVG-20010904/DTD/svg10.dtd">
<svg version="1.0" xmlns="http://www.w3.org/2000/svg"
 width="96.000000pt" height="68.000000pt" viewBox="0 0 96.000000 68.000000"
 preserveAspectRatio="xMidYMid meet">
<metadata>
Created by potrace 1.16, written by Peter Selinger 2001-2019
</metadata>
<g transform="translate(0.000000,68.000000) scale(0.100000,-0.100000)"
fill="#000000" stroke="none">
<path d="M625 607 c-7 -18 -23 -41 -34 -51 -35 -31 -27 -49 17 -42 l37 7 -33
-28 c-18 -15 -32 -34 -32 -42 0 -14 1 -14 85 8 22 5 50 8 63 4 28 -7 31 22 3
37 -26 13 -31 13 -31 -4 0 -12 -58 -32 -67 -22 -2 2 19 21 47 42 53 40 59 51
35 60 -9 4 -23 -4 -36 -20 -21 -27 -59 -36 -59 -13 0 6 11 25 25 41 29 34 31
42 9 50 -10 4 -19 -4 -29 -27z"/>
<path d="M450 615 c0 -8 5 -15 10 -15 6 0 10 -7 10 -15 0 -11 -11 -15 -41 -15
-26 0 -38 -4 -34 -11 5 -7 30 -8 74 -3 74 7 117 23 65 24 -18 0 -34 6 -37 14
-3 8 -15 20 -26 26 -17 9 -21 8 -21 -5z"/>
<path d="M270 596 c-5 -13 -23 -40 -40 -60 -50 -56 -29 -80 45 -51 11 5 2 -8
-20 -28 -34 -30 -37 -37 -23 -42 10 -4 38 1 62 10 25 10 53 15 62 11 26 -10
37 4 18 25 -17 19 -18 19 -36 -1 -10 -11 -29 -20 -41 -20 -19 0 -14 8 32 52
50 48 52 53 35 65 -16 12 -19 11 -26 -6 -8 -23 -38 -41 -69 -41 -20 0 -17 5
20 38 30 27 40 43 35 55 -9 25 -43 21 -54 -7z"/>
<path d="M430 520 c-11 -7 -8 -9 15 -9 17 1 41 5 55 9 22 7 20 8 -15 9 -22 0
-47 -4 -55 -9z"/>
<path d="M460 493 c-45 -8 -49 -26 -5 -19 22 3 46 6 53 6 6 0 12 5 12 10 0 10
-15 11 -60 3z"/>
<path d="M443 453 c-24 -2 -43 -5 -43 -7 0 -2 7 -17 16 -35 10 -20 21 -30 30
-27 18 7 18 2 -1 -34 -13 -25 -22 -30 -53 -30 l-37 0 -1 -91 -1 -92 57 6 c31
4 100 9 153 13 106 8 112 3 95 -60 -9 -36 -25 -47 -58 -39 l-25 6 24 -27 c31
-33 54 -33 79 -1 22 28 48 122 37 133 -9 9 -190 8 -272 -2 -53 -6 -63 -5 -63
9 0 12 12 15 58 16 70 0 143 13 122 20 -8 3 -51 2 -94 -3 -44 -4 -81 -6 -84
-3 -15 14 22 25 102 29 86 5 90 6 117 38 16 18 28 38 29 45 0 20 -67 36 -102
24 -17 -6 -40 -11 -52 -11 -20 0 -20 1 4 20 14 11 19 20 13 20 -23 0 -13 20
10 20 14 0 26 10 34 26 21 45 15 47 -94 37z m57 -28 c0 -15 -35 -30 -50 -20
-20 12 -9 30 20 32 20 1 30 -2 30 -12z m70 -113 c0 -10 -170 -30 -176 -20 -5
7 14 13 66 21 47 8 110 7 110 -1z m-10 -41 c0 -12 -51 -21 -116 -21 -61 0 -73
17 -16 23 74 7 132 7 132 -2z"/>
<path d="M730 415 c26 -28 50 -33 50 -10 0 16 -30 35 -56 35 -15 0 -14 -4 6
-25z"/>
<path d="M642 418 c6 -16 36 -34 44 -25 9 9 -15 37 -33 37 -8 0 -13 -5 -11
-12z"/>
<path d="M340 402 c0 -13 39 -32 45 -22 3 5 -3 14 -14 19 -23 13 -31 14 -31 3z"/>
<path d="M580 401 c0 -12 29 -35 36 -28 11 10 -5 37 -21 37 -8 0 -15 -4 -15
-9z"/>
<path d="M276 376 c6 -16 34 -30 42 -21 8 7 -19 35 -34 35 -7 0 -11 -6 -8 -14z"/>
<path d="M176 368 c15 -27 38 -48 51 -48 23 0 14 36 -12 48 -34 15 -48 15 -39
0z"/>
<path d="M550 134 c0 -18 24 -44 40 -44 31 0 24 27 -10 39 -16 5 -30 8 -30 5z"/>
<path d="M274 95 c-18 -27 -13 -55 9 -55 17 0 42 54 32 69 -10 17 -23 13 -41
-14z"/>
<path d="M370 108 c1 -19 29 -53 37 -45 8 8 -17 57 -29 57 -4 0 -8 -6 -8 -12z"/>
<path d="M460 115 c0 -14 21 -45 31 -45 18 0 5 45 -13 48 -10 2 -18 1 -18 -3z"/>
</g>
</svg>
