<?xml version="1.0" standalone="no"?>
<!DOCTYPE svg PUBLIC "-//W3C//DTD SVG 20010904//EN"
 "http://www.w3.org/TR/2001/REC-SVG-20010904/DTD/svg10.dtd">
<svg version="1.0" xmlns="http://www.w3.org/2000/svg"
 width="90.000000pt" height="92.000000pt" viewBox="0 0 90.000000 92.000000"
 preserveAspectRatio="xMidYMid meet">
<metadata>
Created by potrace 1.16, written by Peter Selinger 2001-2019
</metadata>
<g transform="translate(0.000000,92.000000) scale(0.100000,-0.100000)"
fill="#000000" stroke="none">
<path d="M509 829 c2 -35 -1 -54 -10 -60 -7 -4 -46 -11 -86 -15 -103 -9 -92
-29 15 -28 79 1 82 0 82 -21 0 -27 -22 -35 -97 -35 l-52 0 10 -32 c5 -18 9
-69 9 -113 0 -85 12 -122 30 -95 5 8 10 27 10 43 0 24 4 27 34 27 19 0 41 3
50 6 13 5 16 -2 16 -45 0 -65 14 -66 30 -2 13 53 24 61 93 61 31 0 37 -3 37
-21 0 -17 -5 -20 -25 -17 -32 7 -31 1 6 -42 l30 -35 19 25 c18 24 23 48 34
187 5 59 4 64 -19 79 -22 14 -33 15 -90 4 -36 -7 -68 -10 -71 -7 -10 10 7 47
22 47 33 0 154 32 154 41 0 20 -45 26 -95 13 -76 -21 -78 -20 -72 26 5 43 -9
60 -50 60 -15 0 -18 -7 -14 -51z m176 -180 c4 -11 5 -22 3 -23 -1 -2 -31 -6
-65 -9 -61 -5 -63 -4 -63 18 0 19 6 25 33 28 75 9 86 7 92 -14z m-175 -23 c0
-18 -7 -25 -31 -30 -54 -10 -69 -7 -69 14 0 13 10 22 33 29 54 16 67 13 67
-13z m180 -51 c0 -23 -4 -25 -42 -25 -24 0 -53 -3 -65 -6 -18 -5 -23 -2 -23
14 0 17 8 22 48 27 26 4 52 8 57 10 21 7 25 4 25 -20z m-180 -25 c0 -17 -7
-20 -44 -20 -34 0 -45 4 -49 19 -4 16 2 19 44 20 43 0 49 -2 49 -19z"/>
<path d="M610 866 c6 -8 32 -25 57 -37 47 -23 68 -17 61 17 -4 20 -35 32 -92
33 -32 1 -37 -1 -26 -13z"/>
<path d="M184 819 c9 -28 24 -191 19 -201 -2 -4 -37 -12 -78 -19 -98 -17 -93
-34 9 -33 l76 1 -6 -66 c-7 -77 -11 -81 -126 -137 -55 -27 -78 -43 -78 -56 0
-23 44 -45 62 -31 7 6 40 32 73 58 l60 49 3 -55 c1 -30 -1 -72 -6 -94 -7 -38
-10 -40 -50 -45 l-43 -5 51 -50 50 -49 23 22 c21 21 22 32 24 166 l1 144 39
36 c37 35 29 51 -11 21 -27 -21 -31 -14 -28 48 4 52 6 56 33 62 53 12 46 44
-10 45 -23 0 -24 2 -17 55 3 30 11 66 18 80 10 22 9 29 -8 45 -10 11 -34 23
-53 26 -33 7 -34 6 -27 -17z"/>
<path d="M605 401 c7 -35 14 -33 -183 -55 -68 -8 -126 -16 -129 -20 -3 -3 5
-10 19 -16 19 -9 56 -8 154 4 71 9 135 16 142 16 14 0 17 -177 3 -199 -6 -10
-20 -11 -52 -6 l-44 7 52 -53 53 -54 22 23 c22 21 23 31 23 151 l0 129 50 6
c28 3 67 6 88 6 25 0 37 5 37 14 0 24 -55 39 -115 31 -46 -5 -55 -4 -55 9 0
17 -29 36 -55 36 -13 0 -15 -6 -10 -29z"/>
<path d="M410 285 c0 -4 12 -29 27 -56 33 -61 63 -67 63 -14 0 25 -6 38 -22
49 -29 17 -68 30 -68 21z"/>
</g>
</svg>
