<?xml version="1.0" standalone="no"?>
<!DOCTYPE svg PUBLIC "-//W3C//DTD SVG 20010904//EN"
 "http://www.w3.org/TR/2001/REC-SVG-20010904/DTD/svg10.dtd">
<svg version="1.0" xmlns="http://www.w3.org/2000/svg"
 width="96.000000pt" height="68.000000pt" viewBox="0 0 96.000000 68.000000"
 preserveAspectRatio="xMidYMid meet">
<metadata>
Created by potrace 1.16, written by Peter Selinger 2001-2019
</metadata>
<g transform="translate(0.000000,68.000000) scale(0.100000,-0.100000)"
fill="#000000" stroke="none">
<path d="M264 574 c4 -16 10 -57 13 -90 l5 -62 -63 -7 c-35 -4 -68 -10 -73
-12 -18 -11 22 -23 77 -23 l58 0 -3 -42 c-3 -43 -4 -43 -78 -80 -41 -20 -83
-37 -92 -37 -27 -1 -22 -26 7 -39 36 -16 37 -16 94 23 28 19 53 35 56 35 3 0
5 -28 5 -61 l0 -62 -40 6 c-22 3 -40 3 -40 1 0 -9 86 -84 97 -84 24 0 33 39
33 138 l0 99 40 27 c55 36 55 63 0 31 -37 -21 -42 -19 -38 22 3 35 5 38 46 46
52 10 51 31 -1 35 -32 3 -37 7 -37 29 0 14 5 43 12 65 14 46 6 56 -47 65 -38
6 -38 6 -31 -23z"/>
<path d="M583 582 l-102 -15 -3 -36 c-3 -35 -5 -36 -45 -39 -52 -4 -57 -22 -7
-22 35 0 36 -1 31 -29 -7 -36 8 -52 38 -41 31 12 153 16 191 7 31 -8 32 -8 40
40 l9 48 53 3 c51 3 73 20 30 24 -13 1 -30 2 -38 4 -8 1 -19 2 -24 3 -6 1 -5
6 2 13 16 16 15 23 -4 42 -18 19 -35 19 -171 -2z m117 -37 c0 -14 -4 -25 -9
-25 -5 0 -21 -3 -37 -6 -27 -5 -29 -3 -30 25 -1 29 1 31 37 31 35 0 39 -3 39
-25z m-110 -3 c0 -26 -20 -42 -52 -42 -23 0 -28 4 -28 23 0 31 7 37 47 37 25
0 33 -4 33 -18z m100 -77 c0 -23 -4 -25 -45 -25 -45 0 -50 5 -39 34 4 11 19
16 45 16 35 0 39 -3 39 -25z m-110 7 c0 -20 -28 -43 -59 -48 -29 -5 -33 -3
-27 11 3 9 6 23 6 31 0 10 12 14 40 14 22 0 40 -4 40 -8z"/>
<path d="M585 370 c-16 -4 -54 -8 -83 -9 -50 -1 -52 -2 -41 -22 10 -19 6 -104
-7 -150 -5 -20 25 -59 32 -41 8 17 24 15 24 -3 0 -9 -19 -36 -41 -60 -23 -25
-37 -45 -32 -45 6 0 38 19 72 42 48 32 61 46 57 61 -4 17 1 18 77 16 79 -3 81
-3 88 21 12 43 10 175 -3 188 -13 13 -95 14 -143 2z m103 -37 c3 -19 -1 -23
-25 -23 -15 0 -58 -3 -95 -7 -64 -5 -68 -5 -68 14 0 17 10 22 63 30 93 16 121
12 125 -14z m2 -62 c0 -15 -14 -19 -95 -27 -93 -9 -95 -9 -95 12 0 19 8 22 88
30 98 11 102 10 102 -15z m-2 -63 c-3 -23 -5 -23 -126 -28 -68 -3 -75 -1 -66
23 6 16 24 19 157 25 34 2 38 0 35 -20z"/>
<path d="M702 75 c58 -56 88 -69 88 -37 0 24 -36 57 -82 77 -64 26 -65 17 -6
-40z"/>
</g>
</svg>
