<?xml version="1.0" standalone="no"?>
<!DOCTYPE svg PUBLIC "-//W3C//DTD SVG 20010904//EN"
 "http://www.w3.org/TR/2001/REC-SVG-20010904/DTD/svg10.dtd">
<svg version="1.0" xmlns="http://www.w3.org/2000/svg"
 width="96.000000pt" height="68.000000pt" viewBox="0 0 96.000000 68.000000"
 preserveAspectRatio="xMidYMid meet">
<metadata>
Created by potrace 1.16, written by Peter Selinger 2001-2019
</metadata>
<g transform="translate(0.000000,68.000000) scale(0.100000,-0.100000)"
fill="#000000" stroke="none">
<path d="M320 549 c-19 -4 -74 -11 -122 -15 l-87 -7 19 -28 c11 -15 23 -47 26
-72 9 -65 13 -68 59 -56 22 7 75 12 118 13 42 0 77 5 77 9 0 5 12 38 26 74 26
64 26 67 8 80 -20 14 -70 16 -124 2z m74 -27 c3 -5 0 -31 -7 -57 -12 -49 -12
-49 -56 -52 -24 -2 -61 -8 -82 -13 -22 -6 -43 -8 -48 -5 -10 5 -36 104 -29
110 2 2 32 6 68 10 35 3 66 8 69 10 8 9 80 5 85 -3z"/>
</g>
</svg>
