<?xml version="1.0" standalone="no"?>
<!DOCTYPE svg PUBLIC "-//W3C//DTD SVG 20010904//EN"
 "http://www.w3.org/TR/2001/REC-SVG-20010904/DTD/svg10.dtd">
<svg version="1.0" xmlns="http://www.w3.org/2000/svg"
 width="96.000000pt" height="68.000000pt" viewBox="0 0 96.000000 68.000000"
 preserveAspectRatio="xMidYMid meet">
<metadata>
Created by potrace 1.16, written by Peter Selinger 2001-2019
</metadata>
<g transform="translate(0.000000,68.000000) scale(0.100000,-0.100000)"
fill="#000000" stroke="none">
<path d="M656 242 c-3 -3 -18 -7 -33 -8 -75 -8 -113 -16 -113 -26 0 -6 7 -7
18 -3 9 4 46 9 80 12 l64 6 -22 -43 c-12 -23 -23 -52 -26 -64 -2 -11 -8 -22
-14 -24 -5 -2 -10 -11 -10 -20 0 -20 19 2 80 91 44 65 47 72 24 63 -8 -3 -13
-2 -10 3 6 10 -30 22 -38 13z"/>
</g>
</svg>
