<?xml version="1.0" standalone="no"?>
<!DOCTYPE svg PUBLIC "-//W3C//DTD SVG 20010904//EN"
 "http://www.w3.org/TR/2001/REC-SVG-20010904/DTD/svg10.dtd">
<svg version="1.0" xmlns="http://www.w3.org/2000/svg"
 width="96.000000pt" height="68.000000pt" viewBox="0 0 96.000000 68.000000"
 preserveAspectRatio="xMidYMid meet">
<metadata>
Created by potrace 1.16, written by Peter Selinger 2001-2019
</metadata>
<g transform="translate(0.000000,68.000000) scale(0.100000,-0.100000)"
fill="#000000" stroke="none">
<path d="M628 381 l4 -49 -44 -7 c-90 -13 -101 -17 -87 -26 8 -5 40 -7 72 -3
l57 6 0 -135 c0 -75 4 -138 9 -142 17 -10 31 68 31 176 l0 107 85 7 c47 4 85
11 85 15 0 16 -42 22 -107 15 l-65 -7 7 34 c4 18 8 38 9 43 0 6 -12 11 -29 13
l-30 3 3 -50z"/>
</g>
</svg>
