<?xml version="1.0" standalone="no"?>
<!DOCTYPE svg PUBLIC "-//W3C//DTD SVG 20010904//EN"
 "http://www.w3.org/TR/2001/REC-SVG-20010904/DTD/svg10.dtd">
<svg version="1.0" xmlns="http://www.w3.org/2000/svg"
 width="96.000000pt" height="68.000000pt" viewBox="0 0 96.000000 68.000000"
 preserveAspectRatio="xMidYMid meet">
<metadata>
Created by potrace 1.16, written by Peter Selinger 2001-2019
</metadata>
<g transform="translate(0.000000,68.000000) scale(0.100000,-0.100000)"
fill="#000000" stroke="none">
<path d="M500 595 c0 -21 -35 -88 -54 -104 -17 -14 -21 -31 -8 -31 5 0 27 16
49 35 36 30 48 35 95 35 73 0 129 11 121 22 -3 7 -36 8 -86 3 -75 -6 -80 -6
-67 10 12 15 12 19 -5 31 -25 18 -45 18 -45 -1z"/>
<path d="M257 547 c-10 -24 -36 -62 -58 -85 -22 -23 -37 -42 -34 -42 11 0 50
23 85 51 27 21 51 29 103 34 37 4 70 11 73 16 8 14 -32 16 -93 4 l-38 -7 20
22 c19 22 19 22 0 36 -29 22 -39 17 -58 -29z"/>
<path d="M555 477 c25 -39 65 -47 65 -12 0 17 -6 21 -48 30 l-34 7 17 -25z"/>
<path d="M310 445 c26 -28 50 -33 50 -10 0 16 -30 35 -56 35 -15 0 -14 -4 6
-25z"/>
</g>
</svg>
