<?xml version="1.0" standalone="no"?>
<!DOCTYPE svg PUBLIC "-//W3C//DTD SVG 20010904//EN"
 "http://www.w3.org/TR/2001/REC-SVG-20010904/DTD/svg10.dtd">
<svg version="1.0" xmlns="http://www.w3.org/2000/svg"
 width="96.000000pt" height="68.000000pt" viewBox="0 0 96.000000 68.000000"
 preserveAspectRatio="xMidYMid meet">
<metadata>
Created by potrace 1.16, written by Peter Selinger 2001-2019
</metadata>
<g transform="translate(0.000000,68.000000) scale(0.100000,-0.100000)"
fill="#000000" stroke="none">
<path d="M517 276 c5 -34 4 -36 -23 -36 -16 0 -36 -5 -44 -10 -11 -7 -4 -10
28 -10 38 0 42 -2 42 -24 0 -23 -4 -25 -75 -31 -46 -5 -72 -11 -68 -17 3 -7
32 -8 74 -4 l69 6 0 -57 c0 -60 12 -95 24 -74 4 6 10 39 14 74 7 60 8 62 37
65 144 12 159 14 140 24 -11 7 -48 8 -96 4 -61 -5 -79 -4 -79 6 0 24 15 35 53
42 46 9 39 30 -9 24 -29 -3 -33 -1 -36 22 -2 19 -10 26 -30 28 -26 3 -27 2
-21 -32z"/>
</g>
</svg>
