<?xml version="1.0" standalone="no"?>
<!DOCTYPE svg PUBLIC "-//W3C//DTD SVG 20010904//EN"
 "http://www.w3.org/TR/2001/REC-SVG-20010904/DTD/svg10.dtd">
<svg version="1.0" xmlns="http://www.w3.org/2000/svg"
 width="96.000000pt" height="68.000000pt" viewBox="0 0 96.000000 68.000000"
 preserveAspectRatio="xMidYMid meet">
<metadata>
Created by potrace 1.16, written by Peter Selinger 2001-2019
</metadata>
<g transform="translate(0.000000,68.000000) scale(0.100000,-0.100000)"
fill="#000000" stroke="none">
<path d="M224 553 c4 -9 9 -42 13 -73 6 -64 10 -61 -89 -75 -68 -10 -50 -29
19 -21 53 6 54 6 48 -16 -12 -39 -51 -101 -96 -152 l-44 -50 43 24 c24 14 60
46 79 73 19 26 37 46 39 45 2 -2 -2 -50 -7 -107 -11 -110 -7 -151 15 -151 22
0 26 24 26 151 0 65 3 119 6 119 3 0 15 -11 26 -25 17 -21 23 -24 35 -13 13
11 12 15 -10 33 -13 11 -32 25 -42 30 -31 18 -11 52 35 60 22 4 42 11 45 16 8
12 -39 22 -65 14 -20 -6 -21 -5 -15 52 7 57 6 59 -19 71 -37 16 -49 15 -42 -5z"/>
</g>
</svg>
