<?xml version="1.0" standalone="no"?>
<!DOCTYPE svg PUBLIC "-//W3C//DTD SVG 20010904//EN"
 "http://www.w3.org/TR/2001/REC-SVG-20010904/DTD/svg10.dtd">
<svg version="1.0" xmlns="http://www.w3.org/2000/svg"
 width="96.000000pt" height="68.000000pt" viewBox="0 0 96.000000 68.000000"
 preserveAspectRatio="xMidYMid meet">
<metadata>
Created by potrace 1.16, written by Peter Selinger 2001-2019
</metadata>
<g transform="translate(0.000000,68.000000) scale(0.100000,-0.100000)"
fill="#000000" stroke="none">
<path d="M396 641 c-3 -4 1 -25 7 -48 6 -24 9 -45 6 -48 -3 -3 -39 -9 -80 -13
-41 -4 -73 -11 -72 -17 2 -5 37 -11 78 -13 72 -3 75 -4 75 -27 0 -23 -4 -25
-47 -27 -162 -7 -150 -5 -131 -20 9 -7 26 -46 38 -85 11 -40 25 -73 30 -73 6
0 10 5 10 10 0 6 19 10 42 10 l42 0 -29 -30 c-35 -36 -152 -118 -215 -150 -25
-13 -39 -25 -33 -27 31 -11 202 68 242 111 41 43 49 35 39 -41 -10 -71 -4
-128 13 -139 6 -3 19 2 30 12 16 15 19 31 19 118 l0 100 43 -40 c23 -22 62
-57 86 -77 44 -36 46 -37 125 -36 45 1 92 4 106 8 22 6 21 8 -21 24 -24 9 -50
17 -55 17 -46 0 -284 128 -284 153 0 6 24 8 66 4 l65 -5 25 57 c14 31 29 64
34 73 15 27 12 34 -17 47 -24 11 -106 8 -156 -6 -15 -4 -18 0 -15 18 3 20 12
24 70 34 73 12 84 17 73 36 -6 8 -27 10 -71 6 l-63 -6 -3 42 c-3 38 -6 42 -36
48 -18 4 -34 4 -36 0z m190 -214 c3 -21 -4 -24 -73 -30 -53 -4 -53 -4 -53 25
l0 29 62 -3 c50 -2 62 -6 64 -21z m-176 -16 c0 -28 -2 -29 -52 -33 -53 -4 -68
3 -68 33 0 11 12 16 47 18 26 1 49 4 52 7 12 12 21 1 21 -25z m161 -54 c-6
-17 -19 -23 -55 -27 -52 -7 -56 -5 -56 21 0 18 14 24 70 32 39 5 50 -2 41 -26z
m-173 -38 c-7 -5 -29 -8 -48 -7 -27 2 -36 8 -38 25 -3 20 2 22 45 25 41 3 49
0 51 -16 2 -10 -2 -23 -10 -27z"/>
</g>
</svg>
