<?xml version="1.0" standalone="no"?>
<!DOCTYPE svg PUBLIC "-//W3C//DTD SVG 20010904//EN"
 "http://www.w3.org/TR/2001/REC-SVG-20010904/DTD/svg10.dtd">
<svg version="1.0" xmlns="http://www.w3.org/2000/svg"
 width="96.000000pt" height="68.000000pt" viewBox="0 0 96.000000 68.000000"
 preserveAspectRatio="xMidYMid meet">
<metadata>
Created by potrace 1.16, written by Peter Selinger 2001-2019
</metadata>
<g transform="translate(0.000000,68.000000) scale(0.100000,-0.100000)"
fill="#000000" stroke="none">
<path d="M206 563 c5 -10 8 -45 9 -78 l0 -60 -60 -5 c-33 -3 -55 -8 -49 -12 7
-5 17 -30 24 -58 7 -28 15 -52 20 -55 4 -2 21 0 39 5 l31 9 0 -45 c0 -41 2
-45 23 -42 18 2 23 10 25 43 4 45 14 55 60 55 26 0 32 4 32 23 0 12 7 31 15
41 8 11 15 25 15 31 0 20 -50 36 -87 29 l-36 -7 7 48 c4 26 10 53 12 59 5 14
-37 36 -68 36 -16 0 -18 -4 -12 -17z m112 -180 c-2 -31 -7 -39 -25 -41 -21 -3
-23 1 -23 37 0 37 2 41 26 41 23 0 25 -3 22 -37z m-98 -13 c0 -36 -3 -40 -24
-40 -19 0 -26 7 -31 31 -8 33 4 49 38 49 13 0 17 -9 17 -40z"/>
</g>
</svg>
