<?xml version="1.0" standalone="no"?>
<!DOCTYPE svg PUBLIC "-//W3C//DTD SVG 20010904//EN"
 "http://www.w3.org/TR/2001/REC-SVG-20010904/DTD/svg10.dtd">
<svg version="1.0" xmlns="http://www.w3.org/2000/svg"
 width="96.000000pt" height="68.000000pt" viewBox="0 0 96.000000 68.000000"
 preserveAspectRatio="xMidYMid meet">
<metadata>
Created by potrace 1.16, written by Peter Selinger 2001-2019
</metadata>
<g transform="translate(0.000000,68.000000) scale(0.100000,-0.100000)"
fill="#000000" stroke="none">
<path d="M322 335 c-13 -13 -47 -36 -77 -51 -30 -16 -52 -30 -51 -32 5 -4 119
39 131 49 26 25 90 -19 106 -74 15 -53 11 -112 -10 -138 -17 -21 -22 -22 -56
-12 l-38 12 39 -40 c45 -46 67 -47 98 -6 17 23 21 43 21 95 -1 95 -17 134 -67
162 -36 20 -39 25 -25 35 9 7 14 15 10 18 -14 14 -59 4 -81 -18z"/>
</g>
</svg>
