<?xml version="1.0" standalone="no"?>
<!DOCTYPE svg PUBLIC "-//W3C//DTD SVG 20010904//EN"
 "http://www.w3.org/TR/2001/REC-SVG-20010904/DTD/svg10.dtd">
<svg version="1.0" xmlns="http://www.w3.org/2000/svg"
 width="96.000000pt" height="68.000000pt" viewBox="0 0 96.000000 68.000000"
 preserveAspectRatio="xMidYMid meet">
<metadata>
Created by potrace 1.16, written by Peter Selinger 2001-2019
</metadata>
<g transform="translate(0.000000,68.000000) scale(0.100000,-0.100000)"
fill="#000000" stroke="none">
<path d="M200 501 c-69 -11 -100 -20 -91 -25 11 -7 13 -37 7 -166 -7 -146 -6
-158 13 -181 17 -22 28 -24 113 -27 101 -3 186 8 178 23 -3 6 -55 9 -130 6
-160 -4 -155 -9 -147 139 4 60 12 129 18 154 l11 44 62 11 c35 6 80 11 102 11
50 0 85 10 78 21 -8 13 -93 9 -214 -10z"/>
</g>
</svg>
