<?xml version="1.0" standalone="no"?>
<!DOCTYPE svg PUBLIC "-//W3C//DTD SVG 20010904//EN"
 "http://www.w3.org/TR/2001/REC-SVG-20010904/DTD/svg10.dtd">
<svg version="1.0" xmlns="http://www.w3.org/2000/svg"
 width="96.000000pt" height="68.000000pt" viewBox="0 0 96.000000 68.000000"
 preserveAspectRatio="xMidYMid meet">
<metadata>
Created by potrace 1.16, written by Peter Selinger 2001-2019
</metadata>
<g transform="translate(0.000000,68.000000) scale(0.100000,-0.100000)"
fill="#000000" stroke="none">
<path d="M530 621 c0 -49 -9 -61 -45 -61 -45 0 -54 -18 -16 -31 34 -12 36 -16
21 -53 -15 -41 10 -32 43 14 27 39 30 40 85 40 69 0 95 12 64 29 -11 6 -39 11
-61 11 -40 0 -40 0 -29 26 11 22 10 28 -7 40 -32 24 -55 18 -55 -15z"/>
<path d="M245 620 c-3 -5 1 -23 10 -39 8 -17 15 -32 15 -36 0 -3 -24 -5 -54
-5 -60 0 -72 -8 -52 -35 13 -18 51 -22 98 -10 23 6 27 4 30 -16 5 -35 32 -30
36 7 2 24 9 32 35 40 40 11 37 29 -6 29 -27 0 -33 4 -35 25 -5 40 -60 68 -77
40z"/>
<path d="M345 460 c3 -5 18 -10 31 -10 l26 0 -23 -28 c-34 -40 -138 -125 -186
-152 -63 -35 -44 -36 30 -2 72 34 161 94 193 132 l22 25 82 -83 c45 -46 93
-88 107 -93 13 -5 58 -9 100 -9 63 0 74 2 64 14 -7 8 -28 17 -49 21 -52 9
-134 48 -173 82 -105 88 -146 113 -188 113 -26 0 -40 -4 -36 -10z"/>
<path d="M395 295 c-49 -7 -92 -14 -95 -16 -3 -1 18 -5 45 -8 48 -6 50 -7 50
-36 0 -28 -4 -31 -50 -41 -27 -7 -47 -13 -42 -14 20 -6 30 -8 63 -9 34 -1 35
-3 32 -33 -3 -31 -6 -33 -43 -35 -130 -8 -186 -16 -178 -24 13 -13 63 -13 163
0 46 6 147 11 224 11 124 0 139 2 125 15 -18 19 -41 20 -155 11 l-91 -8 -1 36
c-1 34 0 35 43 42 51 7 51 24 -1 24 -19 0 -34 3 -35 8 0 4 -2 17 -3 30 -2 12
-2 22 -2 23 1 0 21 3 46 6 52 6 60 11 40 23 -18 11 -18 11 -135 -5z"/>
</g>
</svg>
