<?xml version="1.0" standalone="no"?>
<!DOCTYPE svg PUBLIC "-//W3C//DTD SVG 20010904//EN"
 "http://www.w3.org/TR/2001/REC-SVG-20010904/DTD/svg10.dtd">
<svg version="1.0" xmlns="http://www.w3.org/2000/svg"
 width="96.000000pt" height="68.000000pt" viewBox="0 0 96.000000 68.000000"
 preserveAspectRatio="xMidYMid meet">
<metadata>
Created by potrace 1.16, written by Peter Selinger 2001-2019
</metadata>
<g transform="translate(0.000000,68.000000) scale(0.100000,-0.100000)"
fill="#000000" stroke="none">
<path d="M268 565 c-3 -3 -3 -39 0 -79 l5 -75 -39 -6 c-84 -13 -91 -20 -26
-23 l62 -3 0 -43 0 -44 -91 -38 c-89 -38 -90 -39 -69 -56 31 -25 46 -23 102
18 27 20 51 34 55 31 3 -3 2 -38 -2 -77 l-7 -72 -34 7 -34 6 37 -41 c20 -22
41 -40 46 -40 27 0 36 39 37 146 0 109 1 112 26 129 30 19 26 32 -5 15 -20
-10 -21 -8 -21 29 0 38 2 40 35 47 53 10 43 29 -14 26 -10 0 -12 10 -8 41 2
23 8 50 12 59 5 12 -2 21 -24 32 -33 18 -35 18 -43 11z"/>
</g>
</svg>
