<?xml version="1.0" standalone="no"?>
<!DOCTYPE svg PUBLIC "-//W3C//DTD SVG 20010904//EN"
 "http://www.w3.org/TR/2001/REC-SVG-20010904/DTD/svg10.dtd">
<svg version="1.0" xmlns="http://www.w3.org/2000/svg"
 width="96.000000pt" height="68.000000pt" viewBox="0 0 96.000000 68.000000"
 preserveAspectRatio="xMidYMid meet">
<metadata>
Created by potrace 1.16, written by Peter Selinger 2001-2019
</metadata>
<g transform="translate(0.000000,68.000000) scale(0.100000,-0.100000)"
fill="#000000" stroke="none">
<path d="M223 473 l2 -78 -58 0 c-59 0 -67 -4 -42 -25 7 -6 17 -31 21 -55 3
-25 12 -50 20 -56 10 -8 14 -8 14 0 0 6 11 11 24 11 20 0 24 -6 30 -40 9 -58
36 -55 36 5 0 45 0 45 34 45 45 0 66 9 66 28 0 8 12 31 26 50 36 47 21 57 -75
52 l-44 -2 6 65 c6 69 2 77 -43 77 -17 0 -18 -8 -17 -77z m114 -119 c-7 -43
-7 -43 -38 -46 -21 -3 -24 2 -27 31 -4 37 9 51 47 51 22 0 23 -3 18 -36z
m-107 -24 c0 -35 -3 -40 -24 -40 -16 0 -26 7 -30 23 -12 46 -8 57 24 57 28 0
30 -2 30 -40z"/>
</g>
</svg>
