<?xml version="1.0" standalone="no"?>
<!DOCTYPE svg PUBLIC "-//W3C//DTD SVG 20010904//EN"
 "http://www.w3.org/TR/2001/REC-SVG-20010904/DTD/svg10.dtd">
<svg version="1.0" xmlns="http://www.w3.org/2000/svg"
 width="96.000000pt" height="68.000000pt" viewBox="0 0 96.000000 68.000000"
 preserveAspectRatio="xMidYMid meet">
<metadata>
Created by potrace 1.16, written by Peter Selinger 2001-2019
</metadata>
<g transform="translate(0.000000,68.000000) scale(0.100000,-0.100000)"
fill="#000000" stroke="none">
<path d="M300 538 c-19 -5 -51 -8 -70 -5 l-35 4 -1 -141 c0 -148 -12 -207 -56
-269 -11 -15 -15 -27 -9 -27 18 0 71 74 86 121 14 41 18 46 41 41 18 -3 33 3
55 24 l29 28 0 -56 c0 -30 -3 -70 -6 -88 -7 -30 -8 -31 -43 -25 l-36 7 34 -36
c39 -40 65 -46 81 -17 6 11 10 90 10 183 0 90 5 179 10 198 9 31 8 37 -11 53
-24 19 -29 19 -79 5z m34 -34 c3 -9 6 -38 6 -66 0 -39 -3 -48 -12 -40 -7 6
-30 13 -50 17 -34 7 -38 10 -38 39 0 17 4 36 8 42 17 26 77 32 86 8z m-60
-119 c11 -8 30 -15 43 -15 53 0 8 -61 -53 -72 -24 -4 -24 -3 -24 57 0 48 4 52
34 30z"/>
</g>
</svg>
