<?xml version="1.0" standalone="no"?>
<!DOCTYPE svg PUBLIC "-//W3C//DTD SVG 20010904//EN"
 "http://www.w3.org/TR/2001/REC-SVG-20010904/DTD/svg10.dtd">
<svg version="1.0" xmlns="http://www.w3.org/2000/svg"
 width="96.000000pt" height="68.000000pt" viewBox="0 0 96.000000 68.000000"
 preserveAspectRatio="xMidYMid meet">
<metadata>
Created by potrace 1.16, written by Peter Selinger 2001-2019
</metadata>
<g transform="translate(0.000000,68.000000) scale(0.100000,-0.100000)"
fill="#000000" stroke="none">
<path d="M473 471 c5 -26 3 -29 -25 -35 -61 -12 -78 -8 -78 19 0 21 -5 25 -30
25 -27 0 -30 -3 -24 -24 5 -21 1 -25 -28 -32 l-33 -8 35 -6 c27 -4 36 -10 38
-27 3 -17 -2 -23 -17 -23 -11 0 -23 -4 -26 -10 -7 -11 112 -13 218 -3 64 6 95
23 42 23 -20 0 -25 5 -25 24 0 19 7 25 35 30 39 8 38 26 -1 26 -14 0 -24 6
-24 15 0 15 -29 35 -51 35 -7 0 -10 -10 -6 -29z m-3 -76 c0 -23 -3 -25 -50
-25 -43 0 -50 3 -50 19 0 15 8 21 38 24 20 2 43 4 50 5 7 1 12 -9 12 -23z"/>
</g>
</svg>
