<?xml version="1.0" standalone="no"?>
<!DOCTYPE svg PUBLIC "-//W3C//DTD SVG 20010904//EN"
 "http://www.w3.org/TR/2001/REC-SVG-20010904/DTD/svg10.dtd">
<svg version="1.0" xmlns="http://www.w3.org/2000/svg"
 width="96.000000pt" height="68.000000pt" viewBox="0 0 96.000000 68.000000"
 preserveAspectRatio="xMidYMid meet">
<metadata>
Created by potrace 1.16, written by Peter Selinger 2001-2019
</metadata>
<g transform="translate(0.000000,68.000000) scale(0.100000,-0.100000)"
fill="#000000" stroke="none">
<path d="M595 604 c-71 -45 -146 -74 -191 -74 -43 0 -43 -1 -34 -26 6 -14 10
-42 10 -63 0 -42 -25 -144 -43 -177 -7 -12 -20 -36 -30 -53 -21 -37 -17 -39
16 -9 60 58 82 114 95 242 l7 69 80 24 c44 14 98 30 120 35 54 14 63 25 39 43
-24 18 -22 19 -69 -11z"/>
<path d="M538 486 c4 -48 -2 -53 -65 -58 -32 -2 -32 -2 -26 -49 8 -67 -19
-141 -70 -191 l-42 -40 48 29 c36 21 54 40 72 80 14 28 25 61 25 72 0 17 6 21
36 21 20 0 33 -4 29 -10 -3 -5 6 -17 20 -26 19 -12 41 -15 90 -12 68 4 85 12
68 29 -8 8 -25 8 -57 1 -53 -11 -96 -5 -96 13 0 8 17 16 40 20 22 4 43 12 46
17 5 8 -6 9 -35 4 -40 -6 -42 -5 -39 16 2 19 11 24 49 28 59 7 74 3 58 -16
-14 -17 -5 -18 38 -2 90 32 -19 60 -139 36 -7 -2 -13 4 -13 12 0 10 15 17 48
22 51 7 65 13 54 24 -3 4 -24 2 -46 -3 -39 -10 -66 -4 -59 13 1 5 -6 10 -17
12 -18 2 -20 -2 -17 -42z m2 -91 c0 -18 -5 -25 -20 -25 -30 0 -35 3 -32 20 9
36 52 40 52 5z"/>
<path d="M146 511 c-8 -13 70 -81 93 -81 20 0 33 22 25 43 -4 12 -31 24 -91
42 -12 3 -24 2 -27 -4z"/>
<path d="M158 348 c-32 -11 -58 -25 -58 -29 0 -5 23 -9 50 -9 47 0 63 -11 40
-25 -12 -8 -13 -45 -2 -45 13 0 45 -77 38 -89 -4 -6 -34 -11 -67 -11 -43 0
-59 -4 -59 -14 0 -29 27 -38 77 -28 61 13 114 4 283 -48 74 -23 155 -42 180
-43 42 -1 217 50 207 60 -3 2 -78 9 -168 14 -166 10 -217 16 -344 45 l-71 15
0 36 c0 26 -7 42 -27 59 l-28 24 42 37 41 37 -22 18 c-27 22 -40 22 -112 -4z"/>
<path d="M498 228 c-3 -47 -7 -55 -37 -75 -23 -16 -28 -23 -17 -23 50 0 123
102 96 135 -25 30 -39 17 -42 -37z"/>
<path d="M610 216 c0 -82 16 -96 106 -96 47 0 65 4 78 19 17 18 17 21 0 47
l-18 27 -13 -31 c-12 -28 -18 -32 -52 -32 -22 0 -46 3 -55 6 -17 7 -20 45 -7
79 9 22 -4 45 -25 45 -10 0 -14 -16 -14 -64z"/>
</g>
</svg>
