<?xml version="1.0" standalone="no"?>
<!DOCTYPE svg PUBLIC "-//W3C//DTD SVG 20010904//EN"
 "http://www.w3.org/TR/2001/REC-SVG-20010904/DTD/svg10.dtd">
<svg version="1.0" xmlns="http://www.w3.org/2000/svg"
 width="96.000000pt" height="68.000000pt" viewBox="0 0 96.000000 68.000000"
 preserveAspectRatio="xMidYMid meet">
<metadata>
Created by potrace 1.16, written by Peter Selinger 2001-2019
</metadata>
<g transform="translate(0.000000,68.000000) scale(0.100000,-0.100000)"
fill="#000000" stroke="none">
<path d="M504 563 c-15 -51 -64 -134 -106 -177 -26 -27 -46 -51 -44 -54 9 -8
92 56 121 94 17 21 39 49 51 63 l21 25 82 -80 c45 -43 91 -83 101 -88 20 -9
110 1 110 12 0 4 -27 15 -59 26 -32 10 -81 34 -107 53 -27 18 -66 45 -87 60
-24 17 -36 32 -32 41 3 8 -3 21 -12 28 -24 18 -33 17 -39 -3z"/>
<path d="M265 530 c-11 -5 -42 -9 -70 -9 l-50 -1 4 -142 c3 -154 -8 -231 -41
-286 -28 -45 -15 -52 22 -12 27 28 60 110 60 147 0 10 7 12 21 8 15 -5 29 1
50 21 l30 29 -3 -85 -3 -85 -32 1 c-41 2 -41 -4 -2 -39 74 -65 87 -33 91 231
2 180 1 214 -12 222 -18 12 -38 12 -65 0z m25 -81 c0 -43 -3 -50 -16 -45 -9 3
-27 6 -40 6 -21 0 -24 4 -24 39 0 33 4 40 23 44 56 11 57 10 57 -44z m-45 -89
c3 -6 15 -10 26 -10 28 0 23 -26 -10 -49 -49 -35 -61 -29 -61 34 0 52 1 55 19
45 11 -5 23 -15 26 -20z"/>
<path d="M528 381 c-73 -14 -105 -31 -56 -31 35 0 152 22 161 30 16 15 -29 15
-105 1z"/>
<path d="M631 318 c-19 -5 -45 -8 -58 -5 -13 2 -23 3 -23 2 0 -1 6 -21 14 -43
8 -22 12 -43 9 -46 -4 -3 26 -6 66 -6 46 0 70 4 66 10 -4 6 4 26 16 46 18 30
19 38 8 45 -18 11 -54 10 -98 -3z m37 -45 c-3 -24 -8 -28 -39 -31 -29 -2 -36
1 -36 15 -2 33 4 39 42 41 34 3 36 1 33 -25z"/>
<path d="M440 299 c-14 -6 -38 -9 -53 -6 -19 2 -26 0 -23 -9 2 -6 10 -30 17
-53 11 -36 15 -40 36 -35 17 5 23 2 23 -11 0 -19 -34 -70 -65 -98 -20 -19 -20
-19 0 -12 11 4 32 12 48 18 24 10 30 8 53 -16 26 -29 39 -33 49 -17 7 12 -30
50 -50 50 -20 0 -19 19 1 41 18 20 11 39 -13 39 -16 0 -9 14 8 16 5 1 13 2 18
3 5 0 12 14 16 31 4 16 10 32 15 35 5 3 7 12 3 20 -6 17 -46 19 -83 4z m30
-49 c0 -26 -3 -30 -29 -30 -28 0 -41 14 -41 46 0 9 11 14 35 14 32 0 35 -2 35
-30z"/>
<path d="M584 145 c-26 -52 -28 -63 -13 -55 10 6 21 15 24 20 12 19 38 10 81
-30 49 -45 87 -54 82 -18 -3 21 -59 58 -108 71 -22 6 -22 7 -7 30 12 18 13 27
4 36 -21 21 -32 11 -63 -54z"/>
</g>
</svg>
