<?xml version="1.0" standalone="no"?>
<!DOCTYPE svg PUBLIC "-//W3C//DTD SVG 20010904//EN"
 "http://www.w3.org/TR/2001/REC-SVG-20010904/DTD/svg10.dtd">
<svg version="1.0" xmlns="http://www.w3.org/2000/svg"
 width="96.000000pt" height="68.000000pt" viewBox="0 0 96.000000 68.000000"
 preserveAspectRatio="xMidYMid meet">
<metadata>
Created by potrace 1.16, written by Peter Selinger 2001-2019
</metadata>
<g transform="translate(0.000000,68.000000) scale(0.100000,-0.100000)"
fill="#000000" stroke="none">
<path d="M585 295 c-66 -7 -132 -11 -146 -8 l-27 5 11 -52 c7 -37 7 -66 -1
-102 -8 -34 -9 -55 -2 -69 25 -46 40 -10 40 101 0 41 4 80 8 87 4 7 62 14 160
19 l152 7 0 -79 c0 -43 -3 -90 -7 -103 -5 -21 -10 -22 -47 -17 l-41 7 36 -37
c63 -63 94 -31 109 111 5 44 11 87 15 96 10 27 -32 49 -90 48 -27 -1 -104 -7
-170 -14z"/>
</g>
</svg>
