<?xml version="1.0" standalone="no"?>
<!DOCTYPE svg PUBLIC "-//W3C//DTD SVG 20010904//EN"
 "http://www.w3.org/TR/2001/REC-SVG-20010904/DTD/svg10.dtd">
<svg version="1.0" xmlns="http://www.w3.org/2000/svg"
 width="96.000000pt" height="68.000000pt" viewBox="0 0 96.000000 68.000000"
 preserveAspectRatio="xMidYMid meet">
<metadata>
Created by potrace 1.16, written by Peter Selinger 2001-2019
</metadata>
<g transform="translate(0.000000,68.000000) scale(0.100000,-0.100000)"
fill="#000000" stroke="none">
<path d="M267 318 c-26 -29 -72 -71 -102 -92 -30 -22 -52 -42 -50 -44 8 -8 70
22 115 56 l45 34 3 -64 c2 -34 -2 -82 -8 -104 -13 -45 -2 -84 24 -84 20 0 26
33 26 138 0 50 4 92 8 92 5 0 17 -9 27 -20 20 -22 55 -27 55 -9 0 15 -30 38
-50 39 -9 0 -26 7 -38 16 l-23 15 26 31 c25 29 25 48 1 48 -7 0 -34 -24 -59
-52z"/>
</g>
</svg>
