<?xml version="1.0" standalone="no"?>
<!DOCTYPE svg PUBLIC "-//W3C//DTD SVG 20010904//EN"
 "http://www.w3.org/TR/2001/REC-SVG-20010904/DTD/svg10.dtd">
<svg version="1.0" xmlns="http://www.w3.org/2000/svg"
 width="90.000000pt" height="92.000000pt" viewBox="0 0 90.000000 92.000000"
 preserveAspectRatio="xMidYMid meet">
<metadata>
Created by potrace 1.16, written by Peter Selinger 2001-2019
</metadata>
<g transform="translate(0.000000,92.000000) scale(0.100000,-0.100000)"
fill="#000000" stroke="none">
<path d="M380 873 c0 -5 13 -34 29 -65 15 -32 25 -58 22 -58 -30 -1 -266 -32
-270 -36 -3 -3 0 -8 6 -12 39 -24 35 -158 -8 -299 -23 -75 -83 -184 -132 -240
l-32 -36 30 16 c50 26 112 98 145 168 28 61 70 224 85 330 6 44 8 47 43 52 38
6 203 22 345 33 83 6 94 17 43 43 -23 10 -43 11 -102 2 -97 -14 -94 -15 -94
13 0 40 -11 56 -51 76 -40 21 -59 25 -59 13z"/>
<path d="M420 662 c0 -4 4 -12 9 -17 5 -6 12 -35 16 -66 8 -65 12 -63 -113
-75 -40 -3 -75 -10 -78 -15 -11 -19 40 -31 104 -24 l65 7 -23 -39 c-47 -76
-111 -152 -169 -200 -33 -26 -60 -51 -60 -55 -1 -12 70 23 116 57 44 33 102
98 130 146 10 16 20 29 23 29 8 0 1 -135 -11 -215 -9 -60 -9 -77 5 -110 16
-37 17 -38 34 -22 15 15 17 43 20 198 2 99 7 179 12 177 5 -2 39 -41 75 -87
101 -129 128 -158 153 -166 25 -7 152 12 152 24 0 3 -44 26 -97 51 -78 36
-113 60 -188 130 -51 47 -94 88 -94 91 -1 3 47 9 106 13 59 4 110 9 113 12 3
3 -6 15 -20 26 -26 21 -48 21 -164 1 l-39 -6 7 60 c6 57 6 60 -19 71 -30 14
-65 16 -65 4z"/>
</g>
</svg>
