<?xml version="1.0" standalone="no"?>
<!DOCTYPE svg PUBLIC "-//W3C//DTD SVG 20010904//EN"
 "http://www.w3.org/TR/2001/REC-SVG-20010904/DTD/svg10.dtd">
<svg version="1.0" xmlns="http://www.w3.org/2000/svg"
 width="90.000000pt" height="92.000000pt" viewBox="0 0 90.000000 92.000000"
 preserveAspectRatio="xMidYMid meet">
<metadata>
Created by potrace 1.16, written by Peter Selinger 2001-2019
</metadata>
<g transform="translate(0.000000,92.000000) scale(0.100000,-0.100000)"
fill="#000000" stroke="none">
<path d="M334 742 c0 -70 -6 -127 -17 -163 l-17 -56 -52 -7 c-29 -3 -74 -6
-99 -6 -74 0 -140 -12 -136 -24 2 -6 17 -19 34 -29 28 -16 36 -16 94 -3 35 8
83 17 107 20 l42 6 -29 -59 c-35 -68 -31 -79 35 -104 23 -9 56 -25 73 -35 l32
-19 -53 -43 c-57 -45 -120 -80 -182 -100 -32 -10 -36 -14 -22 -22 42 -24 192
31 266 98 47 42 46 43 162 -57 44 -38 88 -69 97 -67 10 2 17 15 19 35 4 44
-51 103 -136 146 l-67 33 25 45 c13 24 34 71 46 104 l22 60 48 3 c27 2 86 -2
133 -8 104 -14 123 -4 73 41 -32 29 -35 30 -110 24 -42 -4 -87 -8 -99 -11 -18
-3 -23 0 -23 16 0 18 -51 60 -72 60 -5 0 -8 -18 -8 -40 0 -22 -1 -40 -2 -41
-2 0 -40 -4 -86 -7 -71 -6 -82 -5 -76 8 15 36 84 250 84 260 0 14 -60 50 -85
50 -19 0 -20 -7 -21 -108z m176 -268 c0 -21 -68 -164 -78 -164 -19 1 -137 49
-137 56 0 26 41 114 54 117 9 3 49 5 89 6 61 1 72 -2 72 -15z"/>
</g>
</svg>
