<?xml version="1.0" standalone="no"?>
<!DOCTYPE svg PUBLIC "-//W3C//DTD SVG 20010904//EN"
 "http://www.w3.org/TR/2001/REC-SVG-20010904/DTD/svg10.dtd">
<svg version="1.0" xmlns="http://www.w3.org/2000/svg"
 width="96.000000pt" height="68.000000pt" viewBox="0 0 96.000000 68.000000"
 preserveAspectRatio="xMidYMid meet">
<metadata>
Created by potrace 1.16, written by Peter Selinger 2001-2019
</metadata>
<g transform="translate(0.000000,68.000000) scale(0.100000,-0.100000)"
fill="#000000" stroke="none">
<path d="M408 470 l4 -110 -25 0 c-24 0 -26 4 -29 53 -3 45 -6 52 -25 55 -20
3 -21 0 -16 -57 l6 -61 -44 0 c-41 0 -42 -1 -22 -15 17 -12 34 -13 82 -7 69
10 68 11 62 -84 -2 -43 6 -58 26 -46 12 8 21 118 10 129 -12 11 -8 20 11 20
61 0 92 4 92 13 0 6 -20 10 -45 10 l-45 0 0 39 c0 37 1 39 40 45 51 8 53 29 3
24 l-38 -3 3 48 c2 36 0 47 -12 47 -8 0 -20 2 -28 5 -11 4 -13 -15 -10 -105z"/>
<path d="M638 522 c-92 -15 -116 -32 -48 -32 42 0 47 -8 34 -57 -5 -17 -14
-23 -33 -23 l-26 0 2 -106 c2 -126 5 -134 34 -127 19 5 20 4 10 -13 -18 -31
-34 -48 -74 -78 -59 -45 -35 -43 42 3 70 42 114 81 93 81 -7 0 -12 5 -12 10 0
14 84 12 98 -2 22 -22 30 5 35 120 5 111 4 114 -18 122 -13 5 -49 6 -82 3
l-58 -6 24 26 c19 21 21 29 12 40 -9 12 -3 15 35 21 26 3 60 6 76 6 45 0 29
25 -18 26 -21 1 -78 -5 -126 -14z m106 -138 c9 -22 7 -23 -60 -34 -81 -14 -82
-13 -77 14 5 27 20 32 89 35 31 1 44 -4 48 -15z m6 -73 c0 -14 -10 -20 -42
-25 -24 -4 -58 -9 -76 -13 -31 -5 -33 -4 -30 18 3 25 30 35 111 38 30 1 37 -3
37 -18z m0 -71 c0 -11 -3 -20 -7 -21 -11 -1 -62 -7 -105 -13 -36 -5 -38 -4
-38 23 0 27 0 27 75 29 69 2 75 1 75 -18z"/>
<path d="M180 522 c0 -15 70 -74 83 -69 18 6 20 42 3 56 -19 16 -86 27 -86 13z"/>
<path d="M120 388 c0 -26 48 -70 73 -66 51 7 21 57 -45 73 -21 5 -28 3 -28 -7z"/>
<path d="M314 278 c-3 -13 -15 -35 -26 -50 -11 -16 -15 -28 -11 -28 15 0 94
86 87 93 -15 15 -43 6 -50 -15z"/>
<path d="M486 258 c-9 -54 -73 -118 -160 -159 -40 -19 -53 -29 -38 -29 45 0
160 70 212 128 55 63 62 87 28 96 -35 9 -35 9 -42 -36z"/>
<path d="M206 240 c-21 -28 -52 -62 -69 -76 -28 -23 -29 -28 -21 -62 16 -64
35 -51 92 63 28 58 52 110 52 115 0 21 -17 8 -54 -40z"/>
<path d="M716 147 c5 -6 26 -31 48 -54 46 -50 69 -56 64 -17 -2 18 -15 33 -43
48 -56 31 -78 39 -69 23z"/>
</g>
</svg>
