<?xml version="1.0" standalone="no"?>
<!DOCTYPE svg PUBLIC "-//W3C//DTD SVG 20010904//EN"
 "http://www.w3.org/TR/2001/REC-SVG-20010904/DTD/svg10.dtd">
<svg version="1.0" xmlns="http://www.w3.org/2000/svg"
 width="96.000000pt" height="68.000000pt" viewBox="0 0 96.000000 68.000000"
 preserveAspectRatio="xMidYMid meet">
<metadata>
Created by potrace 1.16, written by Peter Selinger 2001-2019
</metadata>
<g transform="translate(0.000000,68.000000) scale(0.100000,-0.100000)"
fill="#000000" stroke="none">
<path d="M479 458 c-16 -37 -39 -49 -39 -20 0 12 -11 24 -30 32 -17 7 -33 11
-35 9 -2 -3 12 -25 31 -49 35 -44 36 -47 29 -109 -5 -51 -4 -62 7 -59 8 3 15
29 19 73 6 64 8 71 44 100 38 32 40 55 6 55 -10 0 -23 -14 -32 -32z"/>
<path d="M605 449 c-26 -25 -46 -38 -57 -35 -16 4 -18 -4 -18 -70 0 -87 10
-93 69 -42 20 18 27 29 16 24 -11 -4 -26 -10 -32 -13 -10 -4 -13 9 -13 45 0
41 3 51 20 55 14 4 29 -8 59 -47 60 -80 68 -86 115 -86 59 0 63 10 14 32 -23
10 -66 40 -96 65 l-55 47 31 13 c37 15 39 21 15 39 -25 19 -24 19 -68 -27z"/>
<path d="M245 410 c-64 -10 -93 -18 -82 -23 10 -4 30 -7 43 -7 l25 0 -18 -31
c-10 -17 -33 -49 -52 -71 l-35 -40 34 17 c50 26 119 103 113 126 -4 16 0 19
25 19 40 0 45 -10 30 -57 -10 -30 -19 -39 -40 -41 -24 -3 -26 -5 -15 -23 25
-40 65 -15 87 56 7 22 17 45 21 51 9 11 -1 24 -26 36 -5 2 -55 -3 -110 -12z"/>
<path d="M585 226 c7 -36 7 -36 -19 -26 -18 6 -49 7 -94 0 -104 -15 -124 -14
-117 9 4 14 0 20 -17 25 -43 11 -46 8 -41 -38 7 -58 -11 -110 -56 -159 l-36
-41 43 24 c23 13 51 37 61 53 l18 28 129 2 129 1 3 -52 c3 -43 6 -52 21 -52
17 0 20 13 26 121 4 66 6 122 4 124 -2 2 -17 7 -32 10 -28 7 -28 7 -22 -29z
m5 -70 c0 -21 -4 -24 -37 -23 -21 1 -77 -2 -125 -7 -72 -7 -88 -6 -88 5 1 37
23 43 183 47 65 2 67 1 67 -22z"/>
</g>
</svg>
