<?xml version="1.0" standalone="no"?>
<!DOCTYPE svg PUBLIC "-//W3C//DTD SVG 20010904//EN"
 "http://www.w3.org/TR/2001/REC-SVG-20010904/DTD/svg10.dtd">
<svg version="1.0" xmlns="http://www.w3.org/2000/svg"
 width="96.000000pt" height="68.000000pt" viewBox="0 0 96.000000 68.000000"
 preserveAspectRatio="xMidYMid meet">
<metadata>
Created by potrace 1.16, written by Peter Selinger 2001-2019
</metadata>
<g transform="translate(0.000000,68.000000) scale(0.100000,-0.100000)"
fill="#000000" stroke="none">
<path d="M406 578 c10 -13 25 -28 33 -34 11 -9 -13 -14 -105 -23 -156 -16
-148 -15 -146 -26 4 -18 56 -25 117 -15 33 5 141 15 240 21 99 6 184 15 189
19 4 5 -2 14 -14 20 -16 9 -52 10 -121 5 -93 -6 -97 -6 -104 15 -7 23 -42 40
-82 40 -26 0 -26 0 -7 -22z"/>
<path d="M479 458 c-17 -38 -35 -46 -42 -19 -4 19 -54 47 -64 38 -2 -2 13 -22
33 -43 34 -37 35 -42 32 -101 -4 -87 15 -85 24 2 6 65 9 72 45 102 40 34 40
37 7 47 -16 5 -23 0 -35 -26z"/>
<path d="M612 454 c-18 -18 -43 -36 -57 -40 -24 -6 -25 -10 -25 -75 0 -77 5
-82 57 -46 35 24 46 44 14 27 -30 -15 -31 -14 -31 39 0 59 24 77 53 39 82
-106 97 -118 141 -118 60 0 62 9 8 36 -26 13 -69 43 -97 67 l-49 44 33 11 c33
12 34 24 3 41 -14 7 -25 2 -50 -25z"/>
<path d="M280 414 c-30 -7 -70 -13 -87 -14 -18 0 -33 -4 -33 -10 0 -5 16 -10
35 -10 19 0 35 -2 35 -5 0 -6 -31 -56 -40 -65 -3 -3 -18 -20 -35 -39 -29 -32
-29 -33 -5 -21 46 23 128 110 123 131 -4 16 0 19 26 19 39 0 47 -17 27 -64
-11 -26 -21 -36 -37 -36 -15 0 -19 -4 -15 -16 3 -9 6 -18 6 -20 0 -12 39 -1
53 14 19 21 51 118 43 131 -10 16 -41 18 -96 5z"/>
<path d="M588 189 c5 -67 4 -71 -14 -61 -24 12 -226 -6 -218 -20 4 -5 56 -8
118 -7 l111 3 3 -52 c3 -46 6 -52 25 -52 21 0 22 4 25 124 4 122 3 123 -20
129 -13 4 -26 7 -29 7 -4 0 -4 -32 -1 -71z"/>
<path d="M297 188 c5 -60 -12 -108 -52 -150 -16 -17 -21 -28 -12 -28 30 0 107
95 107 132 l0 26 120 7 c66 4 120 11 120 15 0 15 -55 20 -115 10 -88 -14 -118
-13 -111 5 5 15 -21 35 -47 35 -10 0 -13 -12 -10 -52z"/>
</g>
</svg>
