<?xml version="1.0" standalone="no"?>
<!DOCTYPE svg PUBLIC "-//W3C//DTD SVG 20010904//EN"
 "http://www.w3.org/TR/2001/REC-SVG-20010904/DTD/svg10.dtd">
<svg version="1.0" xmlns="http://www.w3.org/2000/svg"
 width="96.000000pt" height="68.000000pt" viewBox="0 0 96.000000 68.000000"
 preserveAspectRatio="xMidYMid meet">
<metadata>
Created by potrace 1.16, written by Peter Selinger 2001-2019
</metadata>
<g transform="translate(0.000000,68.000000) scale(0.100000,-0.100000)"
fill="#000000" stroke="none">
<path d="M625 309 c-16 -5 -76 -12 -131 -15 l-102 -7 9 -31 c5 -17 9 -50 9
-73 0 -39 13 -63 28 -49 3 4 8 35 10 70 5 73 -2 69 134 82 79 8 84 2 74 -71
-7 -42 -9 -45 -38 -45 l-31 0 29 -25 c55 -47 78 -31 88 63 4 35 9 69 12 76 3
9 -7 18 -27 25 -18 6 -32 11 -33 10 -1 0 -14 -5 -31 -10z"/>
</g>
</svg>
