<?xml version="1.0" standalone="no"?>
<!DOCTYPE svg PUBLIC "-//W3C//DTD SVG 20010904//EN"
 "http://www.w3.org/TR/2001/REC-SVG-20010904/DTD/svg10.dtd">
<svg version="1.0" xmlns="http://www.w3.org/2000/svg"
 width="96.000000pt" height="68.000000pt" viewBox="0 0 96.000000 68.000000"
 preserveAspectRatio="xMidYMid meet">
<metadata>
Created by potrace 1.16, written by Peter Selinger 2001-2019
</metadata>
<g transform="translate(0.000000,68.000000) scale(0.100000,-0.100000)"
fill="#000000" stroke="none">
<path d="M700 399 c-25 -4 -112 -11 -195 -14 l-150 -5 -25 -45 c-20 -35 -22
-46 -13 -56 16 -16 48 11 57 47 4 13 12 24 19 24 6 0 75 7 152 15 188 20 209
20 200 -2 -21 -51 -20 -51 34 -37 28 7 56 16 62 19 13 9 -6 32 -42 51 -31 15
-33 15 -99 3z"/>
</g>
</svg>
