<?xml version="1.0" standalone="no"?>
<!DOCTYPE svg PUBLIC "-//W3C//DTD SVG 20010904//EN"
 "http://www.w3.org/TR/2001/REC-SVG-20010904/DTD/svg10.dtd">
<svg version="1.0" xmlns="http://www.w3.org/2000/svg"
 width="96.000000pt" height="68.000000pt" viewBox="0 0 96.000000 68.000000"
 preserveAspectRatio="xMidYMid meet">
<metadata>
Created by potrace 1.16, written by Peter Selinger 2001-2019
</metadata>
<g transform="translate(0.000000,68.000000) scale(0.100000,-0.100000)"
fill="#000000" stroke="none">
<path d="M578 541 l4 -68 -76 -8 c-42 -3 -76 -11 -76 -16 0 -5 5 -9 10 -9 16
0 12 -125 -6 -193 -8 -33 -27 -83 -40 -110 -30 -59 -26 -70 8 -25 43 56 69
129 84 232 8 55 15 100 16 102 2 1 20 5 41 9 35 7 37 6 37 -18 0 -19 -7 -28
-27 -35 -25 -9 -26 -10 -5 -11 12 -1 31 -10 42 -21 16 -16 33 -20 84 -20 69 0
99 7 91 21 -3 4 -42 6 -85 2 -68 -5 -80 -4 -80 9 0 11 14 18 45 23 25 3 43 10
40 15 -3 5 -22 6 -41 3 -34 -6 -36 -5 -29 17 5 15 4 20 -4 16 -6 -4 -11 -3
-11 2 0 10 129 26 138 17 4 -3 1 -14 -6 -25 -11 -18 -10 -18 33 -3 25 8 45 18
45 23 0 4 -14 13 -31 20 -24 10 -46 11 -93 3 -68 -12 -76 -10 -76 16 0 15 11
20 60 25 33 4 60 11 60 16 0 12 -23 12 -72 1 -37 -9 -38 -8 -38 19 0 25 -15
40 -39 40 -3 0 -5 -31 -3 -69z"/>
<path d="M230 562 c0 -11 -18 -55 -39 -98 -22 -43 -38 -80 -37 -82 2 -1 17 9
34 23 16 14 42 25 56 25 24 0 26 -4 26 -39 l0 -38 -57 -7 c-79 -9 -104 -16
-97 -28 8 -12 106 -3 135 13 18 9 19 5 19 -59 0 -64 -2 -70 -22 -76 -41 -11
-48 -7 -48 25 0 29 -19 59 -37 59 -4 0 -9 -27 -10 -60 -3 -63 12 -85 40 -62 6
5 45 18 84 27 55 13 76 15 87 6 11 -9 16 -6 24 16 22 55 25 85 11 94 -24 15
-28 10 -31 -38 -3 -44 -5 -48 -30 -51 -21 -3 -28 1 -29 15 0 10 -2 27 -5 38
-2 11 -2 35 1 53 5 29 9 32 43 33 20 0 46 4 57 9 22 10 15 12 -49 14 -38 1
-39 2 -40 39 -1 31 2 37 19 37 30 0 65 11 65 20 0 17 -53 20 -100 6 l-50 -15
15 27 c8 15 21 35 27 44 15 21 5 34 -34 43 -24 6 -28 4 -28 -13z"/>
<path d="M590 299 c-54 -28 -55 -28 -16 -22 45 7 56 -4 56 -59 l0 -36 -75 -7
c-44 -4 -72 -11 -69 -17 4 -6 33 -7 75 -3 l69 7 0 -28 c0 -16 -3 -39 -6 -52
-6 -20 -11 -22 -38 -16 l-31 6 29 -31 c17 -17 35 -31 40 -31 20 0 38 42 43
101 6 56 6 57 42 63 20 3 55 6 79 6 25 0 42 5 42 11 0 9 -23 10 -80 6 l-80 -6
0 44 c0 34 -4 45 -16 45 -8 0 -12 5 -9 10 3 6 15 10 26 10 10 0 19 7 19 15 0
22 -37 16 -100 -16z"/>
<path d="M744 278 c-4 -7 -14 -24 -23 -37 l-15 -23 43 21 c41 22 50 43 19 49
-9 2 -20 -3 -24 -10z"/>
<path d="M520 239 c0 -14 25 -39 39 -39 17 0 13 21 -6 36 -22 16 -33 17 -33 3z"/>
</g>
</svg>
