<?xml version="1.0" standalone="no"?>
<!DOCTYPE svg PUBLIC "-//W3C//DTD SVG 20010904//EN"
 "http://www.w3.org/TR/2001/REC-SVG-20010904/DTD/svg10.dtd">
<svg version="1.0" xmlns="http://www.w3.org/2000/svg"
 width="96.000000pt" height="68.000000pt" viewBox="0 0 96.000000 68.000000"
 preserveAspectRatio="xMidYMid meet">
<metadata>
Created by potrace 1.16, written by Peter Selinger 2001-2019
</metadata>
<g transform="translate(0.000000,68.000000) scale(0.100000,-0.100000)"
fill="#000000" stroke="none">
<path d="M573 588 c4 -12 7 -42 7 -65 0 -31 4 -43 14 -43 8 0 16 10 18 22 2
19 11 24 52 30 26 4 55 9 65 13 32 12 -13 25 -50 15 -50 -15 -57 -13 -61 18
-2 20 -9 28 -27 30 -21 3 -23 1 -18 -20z"/>
</g>
</svg>
