<?xml version="1.0" standalone="no"?>
<!DOCTYPE svg PUBLIC "-//W3C//DTD SVG 20010904//EN"
 "http://www.w3.org/TR/2001/REC-SVG-20010904/DTD/svg10.dtd">
<svg version="1.0" xmlns="http://www.w3.org/2000/svg"
 width="96.000000pt" height="68.000000pt" viewBox="0 0 96.000000 68.000000"
 preserveAspectRatio="xMidYMid meet">
<metadata>
Created by potrace 1.16, written by Peter Selinger 2001-2019
</metadata>
<g transform="translate(0.000000,68.000000) scale(0.100000,-0.100000)"
fill="#000000" stroke="none">
<path d="M578 433 c-2 -22 -9 -29 -33 -34 l-30 -7 28 -1 c15 0 36 -10 47 -21
16 -16 33 -20 84 -20 69 0 99 7 90 21 -3 5 -39 6 -79 2 -64 -5 -75 -4 -75 10
0 11 14 18 46 23 33 5 42 9 32 15 -8 5 -29 4 -46 -1 -29 -8 -31 -6 -29 13 1
13 -4 23 -15 25 -12 2 -17 -5 -20 -25z"/>
</g>
</svg>
