<?xml version="1.0" standalone="no"?>
<!DOCTYPE svg PUBLIC "-//W3C//DTD SVG 20010904//EN"
 "http://www.w3.org/TR/2001/REC-SVG-20010904/DTD/svg10.dtd">
<svg version="1.0" xmlns="http://www.w3.org/2000/svg"
 width="96.000000pt" height="68.000000pt" viewBox="0 0 96.000000 68.000000"
 preserveAspectRatio="xMidYMid meet">
<metadata>
Created by potrace 1.16, written by Peter Selinger 2001-2019
</metadata>
<g transform="translate(0.000000,68.000000) scale(0.100000,-0.100000)"
fill="#000000" stroke="none">
<path d="M317 588 c4 -18 8 -62 8 -98 l0 -65 -69 -8 c-76 -8 -81 -10 -71 -28
6 -8 28 -10 76 -5 l69 6 0 -44 0 -43 -100 -42 c-55 -22 -105 -41 -110 -41 -16
0 -11 -22 8 -36 29 -23 59 -16 129 30 38 24 69 43 70 43 0 -1 -1 -33 -4 -71
l-6 -68 -38 6 c-22 3 -39 4 -39 1 0 -9 86 -85 97 -85 27 0 43 58 43 154 l0 94
35 22 c19 12 35 26 35 32 0 10 -8 8 -61 -9 -14 -4 -16 0 -10 28 6 30 12 34 49
42 55 11 50 31 -7 35 l-43 3 6 51 c4 28 11 59 16 68 5 9 6 21 2 27 -11 16 -48
33 -72 33 -19 0 -21 -3 -13 -32z"/>
<path d="M705 398 c-22 -5 -82 -10 -132 -11 -51 -1 -93 -6 -93 -10 0 -5 6 -15
14 -22 8 -8 20 -47 26 -87 15 -87 26 -114 43 -99 7 5 48 13 92 16 124 10 122
9 127 57 4 35 22 85 46 130 4 8 -52 38 -70 37 -7 -1 -31 -5 -53 -11z m33 -31
c8 -9 7 -31 -2 -75 -7 -34 -14 -64 -17 -66 -2 -2 -38 -7 -80 -11 l-76 -7 -12
72 c-6 40 -10 74 -9 75 2 1 39 7 83 12 44 6 85 11 91 12 6 0 16 -5 22 -12z"/>
</g>
</svg>
