<?xml version="1.0" standalone="no"?>
<!DOCTYPE svg PUBLIC "-//W3C//DTD SVG 20010904//EN"
 "http://www.w3.org/TR/2001/REC-SVG-20010904/DTD/svg10.dtd">
<svg version="1.0" xmlns="http://www.w3.org/2000/svg"
 width="90.000000pt" height="92.000000pt" viewBox="0 0 90.000000 92.000000"
 preserveAspectRatio="xMidYMid meet">
<metadata>
Created by potrace 1.16, written by Peter Selinger 2001-2019
</metadata>
<g transform="translate(0.000000,92.000000) scale(0.100000,-0.100000)"
fill="#000000" stroke="none">
<path d="M267 763 c-30 -27 -85 -66 -123 -88 -53 -31 -64 -41 -47 -43 12 -2
43 6 69 17 26 12 50 19 53 16 3 -4 6 -32 6 -63 l0 -57 -70 -12 c-38 -7 -86
-15 -105 -19 l-35 -6 24 -19 c28 -23 48 -23 119 -5 39 11 52 11 52 2 0 -24
-90 -164 -143 -221 -30 -33 -54 -61 -52 -63 2 -2 22 6 44 18 49 25 109 84 136
134 11 20 23 36 27 36 9 0 1 -117 -13 -191 -9 -45 -8 -62 5 -92 17 -43 26 -46
46 -14 11 17 13 57 12 177 l-3 155 50 -55 c42 -45 52 -52 61 -40 25 38 -5 82
-72 102 -32 9 -38 15 -38 39 0 34 10 41 79 54 53 10 54 11 36 28 -15 15 -27
17 -63 12 l-45 -7 7 52 c5 35 3 57 -5 66 -15 18 -16 17 51 42 64 23 70 43 23
73 l-31 20 -55 -48z"/>
<path d="M515 768 c14 -40 17 -277 5 -347 -21 -119 -53 -172 -153 -252 -50
-40 -43 -50 17 -25 55 23 117 86 148 151 15 33 28 68 28 77 0 31 18 28 29 -5
18 -51 119 -215 143 -232 31 -21 149 -18 148 4 0 3 -28 22 -61 41 -33 19 -83
57 -111 85 -47 47 -118 145 -118 164 0 4 41 32 91 61 50 30 93 58 95 62 10 16
-6 44 -35 61 l-29 17 -27 -54 c-15 -30 -45 -72 -67 -93 l-39 -38 6 120 c3 66
8 139 11 162 6 46 -10 63 -62 63 -23 0 -25 -3 -19 -22z"/>
<path d="M400 505 c0 -24 50 -97 63 -92 7 2 13 18 15 35 3 27 -2 35 -30 52
-40 24 -48 25 -48 5z"/>
</g>
</svg>
