<?xml version="1.0" standalone="no"?>
<!DOCTYPE svg PUBLIC "-//W3C//DTD SVG 20010904//EN"
 "http://www.w3.org/TR/2001/REC-SVG-20010904/DTD/svg10.dtd">
<svg version="1.0" xmlns="http://www.w3.org/2000/svg"
 width="96.000000pt" height="68.000000pt" viewBox="0 0 96.000000 68.000000"
 preserveAspectRatio="xMidYMid meet">
<metadata>
Created by potrace 1.16, written by Peter Selinger 2001-2019
</metadata>
<g transform="translate(0.000000,68.000000) scale(0.100000,-0.100000)"
fill="#000000" stroke="none">
<path d="M325 554 c-16 -14 -64 -42 -105 -62 -66 -33 -72 -37 -47 -40 16 -2
42 1 59 7 43 15 45 15 52 -20 8 -44 -5 -56 -72 -63 -73 -9 -92 -15 -92 -28 0
-11 100 -6 133 7 45 19 -17 -79 -99 -154 -31 -29 -55 -53 -53 -55 12 -11 96
43 136 88 l46 51 -7 -80 c-10 -115 -10 -126 6 -142 13 -12 17 -12 28 2 10 12
13 45 12 121 -2 57 0 104 5 104 4 0 19 -12 34 -26 18 -17 34 -24 44 -20 27 10
13 29 -39 54 -38 18 -47 27 -44 45 2 18 13 24 51 31 59 12 61 26 2 26 l-44 0
2 50 c1 33 6 50 15 50 23 0 72 30 72 44 0 11 -40 37 -58 36 -4 -1 -20 -12 -37
-26z"/>
<path d="M538 459 c7 -193 -14 -253 -113 -324 -31 -21 -43 -35 -32 -35 56 0
129 62 163 137 17 39 34 56 34 34 0 -11 69 -112 103 -151 25 -27 33 -30 87
-30 33 0 60 4 60 8 0 4 -26 20 -59 36 -32 15 -80 49 -107 74 -52 50 -88 92
-82 97 2 2 39 22 83 45 44 24 82 44 84 46 2 2 -4 13 -14 24 -18 20 -55 28 -55
11 0 -14 -81 -101 -94 -101 -9 0 -10 26 -3 107 9 113 6 123 -38 123 -19 0 -20
-5 -17 -101z"/>
<path d="M430 364 c0 -15 43 -64 56 -64 20 0 17 23 -6 48 -19 20 -50 30 -50
16z"/>
</g>
</svg>
