<?xml version="1.0" standalone="no"?>
<!DOCTYPE svg PUBLIC "-//W3C//DTD SVG 20010904//EN"
 "http://www.w3.org/TR/2001/REC-SVG-20010904/DTD/svg10.dtd">
<svg version="1.0" xmlns="http://www.w3.org/2000/svg"
 width="96.000000pt" height="68.000000pt" viewBox="0 0 96.000000 68.000000"
 preserveAspectRatio="xMidYMid meet">
<metadata>
Created by potrace 1.16, written by Peter Selinger 2001-2019
</metadata>
<g transform="translate(0.000000,68.000000) scale(0.100000,-0.100000)"
fill="#000000" stroke="none">
<path d="M345 590 c-3 -11 -29 -40 -58 -65 -55 -48 -52 -59 7 -24 34 20 146
37 146 22 0 -5 -14 -21 -32 -36 -29 -24 -30 -27 -10 -22 30 9 142 77 142 87 0
17 -56 20 -108 5 -64 -18 -77 -14 -42 10 22 15 22 17 5 30 -26 18 -43 16 -50
-7z"/>
</g>
</svg>
