<?xml version="1.0" standalone="no"?>
<!DOCTYPE svg PUBLIC "-//W3C//DTD SVG 20010904//EN"
 "http://www.w3.org/TR/2001/REC-SVG-20010904/DTD/svg10.dtd">
<svg version="1.0" xmlns="http://www.w3.org/2000/svg"
 width="96.000000pt" height="68.000000pt" viewBox="0 0 96.000000 68.000000"
 preserveAspectRatio="xMidYMid meet">
<metadata>
Created by potrace 1.16, written by Peter Selinger 2001-2019
</metadata>
<g transform="translate(0.000000,68.000000) scale(0.100000,-0.100000)"
fill="#000000" stroke="none">
<path d="M292 543 c-35 -35 -61 -67 -58 -70 3 -3 28 6 55 21 35 18 66 26 98
26 l48 -1 -39 -34 c-38 -34 -42 -35 -120 -35 -66 0 -77 -2 -64 -12 9 -7 21
-30 28 -50 11 -37 12 -37 56 -31 27 3 44 2 44 -5 0 -10 -64 -53 -125 -85 -49
-26 -19 -19 61 14 96 40 127 33 70 -16 -21 -19 -65 -47 -98 -62 -33 -15 -55
-29 -49 -31 17 -6 87 24 152 64 31 19 59 34 63 34 3 0 6 -10 6 -22 -1 -30 -63
-76 -171 -127 -46 -22 -76 -41 -67 -41 29 0 165 56 212 89 l46 30 0 -42 c0
-23 -7 -53 -16 -66 -14 -19 -22 -22 -53 -16 l-36 7 38 -37 c43 -41 61 -42 91
-2 18 24 21 42 20 108 -1 44 2 78 6 77 4 -2 40 -32 79 -68 85 -76 101 -84 161
-75 70 11 69 16 -7 41 -68 22 -98 38 -193 104 -25 17 -68 44 -97 60 -48 28
-51 31 -40 54 11 23 16 24 91 22 74 -1 80 0 94 24 9 14 24 34 34 46 19 21 18
21 -11 34 -17 6 -40 12 -53 13 -27 0 -109 -13 -120 -19 -5 -3 -8 -3 -8 -1 0 6
100 67 111 67 5 0 9 7 9 15 0 27 -43 35 -96 19 -62 -18 -74 -18 -45 3 23 15
23 17 6 30 -30 21 -47 14 -113 -54z m258 -102 c0 -44 -10 -51 -71 -51 -59 0
-59 0 -59 29 0 34 3 35 76 38 47 2 54 0 54 -16z m-170 -12 c4 -6 5 -20 3 -30
-4 -16 -15 -19 -58 -19 -46 0 -53 3 -58 22 -4 12 -2 25 3 28 19 12 103 11 110
-1z"/>
<path d="M540 300 c-30 -27 -39 -40 -28 -40 9 0 20 5 23 10 3 6 13 10 21 10 8
0 31 7 51 15 30 13 33 17 23 30 -19 23 -41 17 -90 -25z"/>
</g>
</svg>
