<?xml version="1.0" standalone="no"?>
<!DOCTYPE svg PUBLIC "-//W3C//DTD SVG 20010904//EN"
 "http://www.w3.org/TR/2001/REC-SVG-20010904/DTD/svg10.dtd">
<svg version="1.0" xmlns="http://www.w3.org/2000/svg"
 width="90.000000pt" height="92.000000pt" viewBox="0 0 90.000000 92.000000"
 preserveAspectRatio="xMidYMid meet">
<metadata>
Created by potrace 1.16, written by Peter Selinger 2001-2019
</metadata>
<g transform="translate(0.000000,92.000000) scale(0.100000,-0.100000)"
fill="#000000" stroke="none">
<path d="M525 818 c11 -31 18 -281 10 -334 -6 -41 -7 -42 -51 -49 -25 -3 -47
-5 -49 -3 -2 2 -6 19 -10 39 l-7 36 46 7 c28 5 46 12 46 20 0 19 -39 27 -63
14 -24 -12 -38 5 -35 42 2 19 15 31 51 50 53 28 59 52 20 77 -21 14 -23 14
-33 -12 -6 -15 -20 -41 -31 -57 -17 -23 -27 -28 -45 -24 -25 7 -33 -11 -14
-30 5 -5 14 -45 20 -89 14 -98 26 -133 42 -117 11 11 98 17 98 7 0 -2 -9 -30
-21 -60 -25 -67 -63 -113 -143 -172 -44 -33 -53 -43 -37 -43 65 0 160 81 207
175 l37 74 50 -87 c27 -48 65 -106 84 -130 l34 -42 69 0 c38 0 72 4 75 10 3 5
-21 23 -53 39 -73 37 -155 110 -210 189 l-42 60 31 6 c52 10 77 7 83 -11 12
-30 33 6 66 112 48 153 47 141 3 163 -34 18 -42 18 -63 6 -14 -7 -35 -13 -48
-14 -15 0 -22 -5 -19 -12 3 -8 19 -12 46 -10 l41 2 0 -39 c0 -36 -2 -40 -32
-46 -57 -11 -68 -16 -63 -26 4 -5 24 -9 46 -9 41 0 41 0 34 -32 -4 -18 -8 -34
-9 -34 0 -1 -25 -4 -53 -6 l-53 -5 6 121 c3 67 9 147 13 179 7 52 6 60 -13 73
-11 7 -31 14 -44 14 -21 0 -23 -3 -17 -22z"/>
<path d="M170 790 c0 -5 13 -34 29 -64 35 -64 39 -61 -90 -78 -93 -12 -105
-22 -55 -46 23 -11 38 -10 109 7 46 11 108 23 139 27 31 4 62 10 69 15 25 15
-8 33 -56 31 -44 -2 -45 -1 -45 31 0 40 -7 50 -47 71 -36 18 -53 20 -53 6z"/>
<path d="M188 541 c-69 -20 -79 -28 -43 -37 23 -6 95 4 159 23 19 5 19 6 1 19
-23 17 -44 16 -117 -5z"/>
<path d="M205 450 c-16 -4 -43 -11 -58 -14 -17 -4 -25 -11 -21 -18 5 -7 31 -9
79 -5 83 7 107 15 102 31 -4 14 -62 17 -102 6z"/>
<path d="M230 345 c-19 -7 -59 -14 -87 -14 -56 -1 -61 -5 -39 -30 7 -9 19 -44
26 -79 12 -60 29 -89 38 -64 2 7 12 12 22 12 11 0 41 5 67 10 45 10 48 13 49
43 0 18 9 49 19 71 18 38 18 39 0 52 -23 17 -49 17 -95 -1z m40 -44 c0 -59
-12 -81 -51 -93 -22 -6 -41 -9 -43 -7 -2 2 -6 25 -10 50 l-7 47 38 10 c59 15
73 14 73 -7z"/>
</g>
</svg>
