<?xml version="1.0" standalone="no"?>
<!DOCTYPE svg PUBLIC "-//W3C//DTD SVG 20010904//EN"
 "http://www.w3.org/TR/2001/REC-SVG-20010904/DTD/svg10.dtd">
<svg version="1.0" xmlns="http://www.w3.org/2000/svg"
 width="96.000000pt" height="68.000000pt" viewBox="0 0 96.000000 68.000000"
 preserveAspectRatio="xMidYMid meet">
<metadata>
Created by potrace 1.16, written by Peter Selinger 2001-2019
</metadata>
<g transform="translate(0.000000,68.000000) scale(0.100000,-0.100000)"
fill="#000000" stroke="none">
<path d="M220 549 c0 -24 42 -79 61 -79 33 0 24 47 -13 70 -38 23 -48 25 -48
9z"/>
<path d="M221 439 c-68 -10 -126 -21 -129 -23 -2 -2 6 -10 18 -16 16 -9 45 -7
129 9 59 12 120 21 134 21 30 0 44 15 21 24 -21 8 -29 7 -173 -15z"/>
</g>
</svg>
