<?xml version="1.0" standalone="no"?>
<!DOCTYPE svg PUBLIC "-//W3C//DTD SVG 20010904//EN"
 "http://www.w3.org/TR/2001/REC-SVG-20010904/DTD/svg10.dtd">
<svg version="1.0" xmlns="http://www.w3.org/2000/svg"
 width="90.000000pt" height="92.000000pt" viewBox="0 0 90.000000 92.000000"
 preserveAspectRatio="xMidYMid meet">
<metadata>
Created by potrace 1.16, written by Peter Selinger 2001-2019
</metadata>
<g transform="translate(0.000000,92.000000) scale(0.100000,-0.100000)"
fill="#000000" stroke="none">
<path d="M346 808 c4 -7 20 -32 35 -54 l29 -42 -23 -5 c-12 -3 -44 -9 -70 -12
-59 -9 -57 -29 3 -33 46 -4 191 23 224 40 19 10 19 11 0 25 -18 14 -48 13 -88
-3 -15 -6 -17 -3 -12 13 10 32 -2 50 -45 67 -48 19 -63 20 -53 4z"/>
<path d="M610 762 c0 -58 -30 -180 -58 -237 -26 -52 -18 -59 19 -17 24 27 36
33 62 30 l32 -3 -1 -60 c0 -33 -4 -77 -8 -99 l-7 -39 -38 37 c-35 35 -61 46
-61 27 0 -5 7 -11 15 -14 8 -4 26 -24 40 -46 25 -37 26 -41 12 -68 -18 -34
-61 -75 -102 -96 l-30 -16 28 -1 c36 0 100 33 125 65 11 14 22 25 25 25 2 0
24 -29 47 -65 45 -68 62 -80 107 -69 81 18 82 23 4 64 -70 38 -144 107 -136
129 3 8 13 59 22 114 14 94 14 101 -2 113 -14 11 -9 14 38 24 62 12 81 35 42
50 -18 7 -42 3 -95 -15 -38 -13 -70 -23 -70 -22 0 1 14 40 30 87 36 101 37
114 8 134 -38 27 -48 20 -48 -32z"/>
<path d="M105 750 c-3 -5 -2 -18 3 -27 6 -10 11 -55 13 -101 l4 -82 -35 -6
c-52 -8 -62 -13 -55 -24 3 -5 24 -10 45 -10 35 0 39 -3 42 -27 2 -16 2 -51 0
-78 l-4 -51 -59 -23 c-32 -12 -59 -27 -59 -32 0 -5 14 -18 32 -29 l32 -19 45
37 c25 21 72 57 104 81 32 23 56 45 54 48 -3 2 -26 -4 -51 -16 l-46 -20 0 69
0 70 45 11 c25 6 48 15 50 20 10 15 -33 29 -66 22 l-32 -6 6 62 c4 34 11 71
17 81 9 17 6 23 -22 40 -37 22 -54 25 -63 10z"/>
<path d="M435 625 c-16 -8 -56 -17 -87 -21 -39 -4 -55 -10 -50 -18 4 -6 12
-33 17 -61 6 -27 15 -50 20 -49 6 0 42 4 81 8 66 8 72 10 72 32 0 13 9 40 21
60 12 20 18 40 14 45 -16 15 -59 17 -88 4z m23 -57 c-3 -29 -8 -34 -51 -46
-27 -8 -51 -12 -53 -10 -2 3 -7 18 -10 35 -6 30 -5 31 43 41 75 15 75 15 71
-20z"/>
<path d="M395 435 c-22 -8 -55 -14 -72 -14 -18 -1 -33 -6 -33 -11 0 -20 33
-23 83 -7 28 9 53 14 56 11 3 -2 -3 -20 -13 -39 -12 -22 -23 -32 -33 -28 -12
5 -14 1 -8 -18 15 -48 12 -52 -60 -75 -38 -13 -78 -23 -87 -23 -27 -1 -21 -30
8 -43 23 -11 33 -8 85 20 31 18 60 32 63 32 10 0 7 -46 -4 -75 -9 -24 -14 -26
-43 -20 l-32 7 43 -44 c41 -41 44 -42 58 -24 9 13 14 45 14 98 l0 78 51 26
c61 30 58 42 -4 21 -45 -15 -45 -15 -50 9 -4 20 4 30 44 56 27 17 49 35 49 39
0 12 -43 39 -60 38 -8 -1 -33 -7 -55 -14z"/>
</g>
</svg>
