<?xml version="1.0" standalone="no"?>
<!DOCTYPE svg PUBLIC "-//W3C//DTD SVG 20010904//EN"
 "http://www.w3.org/TR/2001/REC-SVG-20010904/DTD/svg10.dtd">
<svg version="1.0" xmlns="http://www.w3.org/2000/svg"
 width="96.000000pt" height="68.000000pt" viewBox="0 0 96.000000 68.000000"
 preserveAspectRatio="xMidYMid meet">
<metadata>
Created by potrace 1.16, written by Peter Selinger 2001-2019
</metadata>
<g transform="translate(0.000000,68.000000) scale(0.100000,-0.100000)"
fill="#000000" stroke="none">
<path d="M660 306 c0 -36 -5 -68 -10 -71 -6 -4 -24 5 -41 20 -18 14 -34 23
-37 20 -4 -3 8 -17 26 -31 51 -40 39 -69 -48 -124 l-35 -21 35 6 c42 9 82 28
99 49 11 13 17 9 49 -27 48 -55 52 -57 87 -56 70 1 71 14 3 47 -35 17 -74 42
-86 55 -22 23 -22 25 -7 86 20 77 17 105 -12 109 -22 3 -23 0 -23 -62z"/>
</g>
</svg>
