<?xml version="1.0" standalone="no"?>
<!DOCTYPE svg PUBLIC "-//W3C//DTD SVG 20010904//EN"
 "http://www.w3.org/TR/2001/REC-SVG-20010904/DTD/svg10.dtd">
<svg version="1.0" xmlns="http://www.w3.org/2000/svg"
 width="96.000000pt" height="68.000000pt" viewBox="0 0 96.000000 68.000000"
 preserveAspectRatio="xMidYMid meet">
<metadata>
Created by potrace 1.16, written by Peter Selinger 2001-2019
</metadata>
<g transform="translate(0.000000,68.000000) scale(0.100000,-0.100000)"
fill="#000000" stroke="none">
<path d="M510 391 c0 -55 3 -71 15 -71 8 0 17 14 21 35 6 35 7 35 58 36 28 0
69 4 91 8 l40 8 -28 11 c-20 8 -41 9 -70 2 -67 -15 -85 -13 -89 12 -2 13 -11
24 -20 26 -16 3 -18 -5 -18 -67z"/>
</g>
</svg>
