<?xml version="1.0" standalone="no"?>
<!DOCTYPE svg PUBLIC "-//W3C//DTD SVG 20010904//EN"
 "http://www.w3.org/TR/2001/REC-SVG-20010904/DTD/svg10.dtd">
<svg version="1.0" xmlns="http://www.w3.org/2000/svg"
 width="96.000000pt" height="68.000000pt" viewBox="0 0 96.000000 68.000000"
 preserveAspectRatio="xMidYMid meet">
<metadata>
Created by potrace 1.16, written by Peter Selinger 2001-2019
</metadata>
<g transform="translate(0.000000,68.000000) scale(0.100000,-0.100000)"
fill="#000000" stroke="none">
<path d="M255 480 c-11 -5 -46 -9 -78 -9 -57 -1 -57 -1 -46 -23 7 -13 20 -52
28 -87 15 -59 41 -95 41 -57 0 12 11 16 48 16 59 0 68 6 77 50 4 19 14 48 22
63 8 16 12 35 9 43 -6 16 -68 18 -101 4z m33 -70 c-3 -28 -7 -52 -9 -54 -2 -2
-20 -6 -40 -10 -35 -6 -38 -5 -48 25 -6 18 -11 42 -11 55 0 23 14 29 84 33 28
1 29 1 24 -49z"/>
</g>
</svg>
