<?xml version="1.0" standalone="no"?>
<!DOCTYPE svg PUBLIC "-//W3C//DTD SVG 20010904//EN"
 "http://www.w3.org/TR/2001/REC-SVG-20010904/DTD/svg10.dtd">
<svg version="1.0" xmlns="http://www.w3.org/2000/svg"
 width="96.000000pt" height="68.000000pt" viewBox="0 0 96.000000 68.000000"
 preserveAspectRatio="xMidYMid meet">
<metadata>
Created by potrace 1.16, written by Peter Selinger 2001-2019
</metadata>
<g transform="translate(0.000000,68.000000) scale(0.100000,-0.100000)"
fill="#000000" stroke="none">
<path d="M416 611 c-4 -5 -1 -16 6 -23 7 -7 22 -24 33 -37 l20 -23 -121 4
-121 3 -26 -48 c-31 -54 -34 -75 -12 -83 20 -8 43 12 60 53 13 31 17 33 62 33
26 0 117 7 202 15 85 8 157 13 159 10 2 -2 -6 -18 -18 -35 l-22 -31 38 5 c102
13 139 31 109 56 -8 7 -12 17 -8 23 3 6 1 7 -6 3 -6 -4 -19 -2 -27 5 -11 9
-43 10 -119 6 -100 -6 -105 -6 -105 13 0 31 -90 75 -104 51z"/>
<path d="M427 473 c-3 -5 -8 -23 -12 -41 -10 -49 -29 -62 -91 -62 -34 0 -53
-4 -49 -10 3 -5 26 -10 51 -10 24 0 44 -3 44 -7 -1 -15 -55 -78 -133 -156 -43
-42 -74 -77 -69 -77 5 0 31 15 58 32 54 36 116 98 172 171 34 45 39 47 87 48
78 1 148 13 152 25 6 19 -32 22 -101 9 -36 -6 -68 -10 -71 -7 -2 2 2 14 10 26
21 29 19 41 -10 54 -31 14 -32 14 -38 5z"/>
<path d="M481 273 c-10 -21 -47 -66 -81 -101 -51 -52 -60 -65 -50 -77 17 -21
31 -19 161 15 107 28 115 29 126 12 35 -49 63 -58 63 -18 0 29 -33 72 -70 91
-42 22 -53 19 -34 -10 9 -14 15 -28 12 -30 -10 -10 -120 -26 -154 -23 l-36 3
65 70 c61 65 64 71 50 88 -23 25 -30 22 -52 -20z"/>
</g>
</svg>
