<?xml version="1.0" standalone="no"?>
<!DOCTYPE svg PUBLIC "-//W3C//DTD SVG 20010904//EN"
 "http://www.w3.org/TR/2001/REC-SVG-20010904/DTD/svg10.dtd">
<svg version="1.0" xmlns="http://www.w3.org/2000/svg"
 width="96.000000pt" height="68.000000pt" viewBox="0 0 96.000000 68.000000"
 preserveAspectRatio="xMidYMid meet">
<metadata>
Created by potrace 1.16, written by Peter Selinger 2001-2019
</metadata>
<g transform="translate(0.000000,68.000000) scale(0.100000,-0.100000)"
fill="#000000" stroke="none">
<path d="M285 405 c-33 -8 -86 -14 -118 -14 -54 -1 -57 -2 -47 -20 12 -24 13
-139 0 -201 -7 -35 -5 -50 7 -68 13 -21 16 -22 26 -9 9 11 36 16 94 19 73 3
84 1 97 -17 12 -16 18 -18 33 -9 16 10 19 30 23 155 5 131 4 146 -14 162 -21
20 -22 20 -101 2z m59 -21 c13 -5 16 -26 16 -125 l0 -119 -47 0 c-27 0 -72 -3
-100 -6 l-53 -7 3 119 2 119 75 11 c41 7 78 12 82 13 3 0 13 -2 22 -5z"/>
</g>
</svg>
