<?xml version="1.0" standalone="no"?>
<!DOCTYPE svg PUBLIC "-//W3C//DTD SVG 20010904//EN"
 "http://www.w3.org/TR/2001/REC-SVG-20010904/DTD/svg10.dtd">
<svg version="1.0" xmlns="http://www.w3.org/2000/svg"
 width="96.000000pt" height="68.000000pt" viewBox="0 0 96.000000 68.000000"
 preserveAspectRatio="xMidYMid meet">
<metadata>
Created by potrace 1.16, written by Peter Selinger 2001-2019
</metadata>
<g transform="translate(0.000000,68.000000) scale(0.100000,-0.100000)"
fill="#000000" stroke="none">
<path d="M290 290 c-14 -4 -40 -8 -59 -9 -25 -1 -31 -4 -24 -13 6 -7 16 -30
23 -51 9 -28 15 -36 23 -28 6 6 29 11 52 11 38 0 41 2 53 40 6 22 12 44 12 50
0 12 -44 12 -80 0z m32 -15 c3 -3 3 -17 0 -30 -4 -21 -10 -25 -38 -25 -29 0
-34 3 -34 24 0 24 12 32 51 35 9 0 18 -1 21 -4z"/>
</g>
</svg>
