<?xml version="1.0" standalone="no"?>
<!DOCTYPE svg PUBLIC "-//W3C//DTD SVG 20010904//EN"
 "http://www.w3.org/TR/2001/REC-SVG-20010904/DTD/svg10.dtd">
<svg version="1.0" xmlns="http://www.w3.org/2000/svg"
 width="96.000000pt" height="68.000000pt" viewBox="0 0 96.000000 68.000000"
 preserveAspectRatio="xMidYMid meet">
<metadata>
Created by potrace 1.16, written by Peter Selinger 2001-2019
</metadata>
<g transform="translate(0.000000,68.000000) scale(0.100000,-0.100000)"
fill="#000000" stroke="none">
<path d="M492 330 c5 -34 3 -35 -89 -45 -37 -4 -60 -11 -57 -17 4 -6 34 -7 78
-3 l71 7 -3 -82 -4 -82 -30 6 -30 6 29 -34 c33 -41 47 -44 67 -14 12 16 16 47
16 114 l0 91 46 7 c26 3 65 6 88 6 l41 1 -28 15 c-23 13 -40 14 -85 6 -67 -12
-74 -9 -66 24 5 21 3 24 -21 24 -25 0 -27 -3 -23 -30z"/>
<path d="M375 193 c-10 -16 -29 -40 -43 -56 l-26 -27 29 10 c17 6 45 24 63 41
26 25 31 34 21 45 -16 20 -24 18 -44 -13z"/>
<path d="M635 171 c50 -52 70 -61 78 -38 11 31 -24 59 -103 82 -21 6 -17 -1
25 -44z"/>
</g>
</svg>
