<?xml version="1.0" standalone="no"?>
<!DOCTYPE svg PUBLIC "-//W3C//DTD SVG 20010904//EN"
 "http://www.w3.org/TR/2001/REC-SVG-20010904/DTD/svg10.dtd">
<svg version="1.0" xmlns="http://www.w3.org/2000/svg"
 width="90.000000pt" height="92.000000pt" viewBox="0 0 90.000000 92.000000"
 preserveAspectRatio="xMidYMid meet">
<metadata>
Created by potrace 1.16, written by Peter Selinger 2001-2019
</metadata>
<g transform="translate(0.000000,92.000000) scale(0.100000,-0.100000)"
fill="#000000" stroke="none">
<path d="M511 833 c-29 -20 -83 -49 -120 -65 l-66 -29 66 5 c76 6 79 3 79 -85
0 -53 5 -50 -125 -65 -80 -9 -98 -19 -63 -35 21 -9 40 -9 89 0 33 7 63 11 65
8 9 -9 -74 -92 -140 -139 -55 -39 -64 -49 -41 -44 53 13 113 48 156 92 24 24
46 44 49 44 4 0 4 -26 2 -58 -3 -44 0 -62 11 -74 14 -14 11 -16 -36 -22 -29
-3 -78 -6 -110 -6 l-57 0 15 -24 c9 -13 20 -65 26 -117 5 -52 14 -105 20 -118
9 -21 11 -22 22 -8 9 11 41 17 122 22 l111 6 17 -35 c19 -42 35 -45 65 -13 24
26 29 45 42 157 5 47 12 95 15 106 5 17 -1 26 -29 44 -34 20 -41 21 -100 11
-98 -17 -92 -21 -88 67 2 42 6 78 7 80 5 5 74 -32 169 -92 97 -61 142 -73 130
-33 -15 51 -79 88 -219 128 -44 12 -82 24 -85 26 -14 12 36 22 137 28 62 4
116 11 118 16 3 4 -6 16 -20 25 -25 16 -32 16 -123 0 -53 -9 -101 -16 -106
-16 -5 0 -6 27 -2 61 5 51 3 64 -11 74 -14 10 -6 14 50 25 84 17 95 23 77 45
-7 9 -25 22 -40 30 -24 12 -30 11 -79 -22z m133 -505 c13 -50 10 -53 -64 -54
l-70 -1 0 33 c0 18 -6 35 -12 37 -7 3 21 6 63 6 71 1 77 -1 83 -21z m-196 0
c7 -7 12 -25 12 -40 0 -29 -7 -32 -77 -41 -25 -3 -33 0 -33 12 0 9 -3 26 -6
38 -6 21 4 26 87 42 3 1 10 -4 17 -11z m196 -120 c-4 -24 -9 -45 -13 -49 -3
-3 -34 -3 -68 -1 -62 4 -63 4 -63 33 0 33 8 38 83 49 28 4 55 8 60 9 4 0 4
-18 1 -41z m-184 -22 c0 -32 -2 -34 -47 -40 -51 -7 -63 1 -63 44 0 23 4 25 55
27 l55 3 0 -34z"/>
<path d="M148 743 c42 -53 59 -66 77 -59 21 8 19 50 -4 70 -11 10 -39 20 -62
23 l-43 6 32 -40z"/>
<path d="M630 750 c0 -6 -18 -29 -40 -50 -23 -22 -39 -40 -36 -40 6 0 86 27
125 42 l24 9 -23 24 c-24 26 -50 33 -50 15z"/>
<path d="M320 690 c0 -20 44 -70 61 -70 19 0 31 23 23 44 -3 8 -19 19 -36 25
-39 14 -48 14 -48 1z"/>
<path d="M36 572 c-9 -15 91 -105 108 -99 17 7 21 43 8 64 -13 21 -107 49
-116 35z"/>
<path d="M191 400 c-32 -60 -94 -151 -120 -174 -11 -11 -21 -28 -21 -38 0 -31
29 -90 42 -86 6 2 21 33 34 69 12 35 38 104 58 152 41 98 45 152 7 77z"/>
</g>
</svg>
