<?xml version="1.0" standalone="no"?>
<!DOCTYPE svg PUBLIC "-//W3C//DTD SVG 20010904//EN"
 "http://www.w3.org/TR/2001/REC-SVG-20010904/DTD/svg10.dtd">
<svg version="1.0" xmlns="http://www.w3.org/2000/svg"
 width="96.000000pt" height="68.000000pt" viewBox="0 0 96.000000 68.000000"
 preserveAspectRatio="xMidYMid meet">
<metadata>
Created by potrace 1.16, written by Peter Selinger 2001-2019
</metadata>
<g transform="translate(0.000000,68.000000) scale(0.100000,-0.100000)"
fill="#000000" stroke="none">
<path d="M210 535 c0 -10 65 -64 76 -65 10 0 24 21 24 36 0 3 -16 12 -35 20
-35 14 -65 18 -65 9z"/>
<path d="M163 354 c40 -37 69 -41 75 -11 4 19 -50 47 -90 47 -21 -1 -20 -3 15
-36z"/>
<path d="M255 250 c-15 -25 -47 -63 -71 -86 -46 -43 -52 -58 -30 -86 20 -27
36 -22 52 20 9 20 31 68 50 105 41 80 40 113 -1 47z"/>
</g>
</svg>
