<?xml version="1.0" standalone="no"?>
<!DOCTYPE svg PUBLIC "-//W3C//DTD SVG 20010904//EN"
 "http://www.w3.org/TR/2001/REC-SVG-20010904/DTD/svg10.dtd">
<svg version="1.0" xmlns="http://www.w3.org/2000/svg"
 width="96.000000pt" height="68.000000pt" viewBox="0 0 96.000000 68.000000"
 preserveAspectRatio="xMidYMid meet">
<metadata>
Created by potrace 1.16, written by Peter Selinger 2001-2019
</metadata>
<g transform="translate(0.000000,68.000000) scale(0.100000,-0.100000)"
fill="#000000" stroke="none">
<path d="M629 203 c0 -10 -2 -39 -3 -65 l-1 -47 70 7 c38 3 85 6 103 6 20 0
29 3 23 9 -10 10 -101 5 -138 -8 -21 -7 -23 -4 -23 23 0 17 -6 33 -12 35 -7 3
4 6 25 6 20 1 37 5 37 10 0 4 -11 6 -25 3 -20 -3 -25 0 -25 17 0 25 -30 29
-31 4z"/>
</g>
</svg>
