<?xml version="1.0" standalone="no"?>
<!DOCTYPE svg PUBLIC "-//W3C//DTD SVG 20010904//EN"
 "http://www.w3.org/TR/2001/REC-SVG-20010904/DTD/svg10.dtd">
<svg version="1.0" xmlns="http://www.w3.org/2000/svg"
 width="96.000000pt" height="68.000000pt" viewBox="0 0 96.000000 68.000000"
 preserveAspectRatio="xMidYMid meet">
<metadata>
Created by potrace 1.16, written by Peter Selinger 2001-2019
</metadata>
<g transform="translate(0.000000,68.000000) scale(0.100000,-0.100000)"
fill="#000000" stroke="none">
<path d="M665 304 c-11 -3 -74 -10 -140 -18 -102 -11 -123 -11 -140 0 -25 18
-35 18 -35 0 0 -8 -10 -16 -22 -19 -20 -3 -19 -5 10 -12 31 -7 32 -9 32 -59 0
-28 5 -58 10 -66 18 -27 30 10 23 72 -6 56 -5 58 18 59 13 0 80 6 149 13 165
16 164 16 156 -50 -9 -81 -13 -87 -54 -80 l-35 5 28 -29 c16 -17 34 -30 41
-30 21 0 52 49 59 93 3 23 11 55 17 71 10 24 9 31 -7 42 -18 13 -64 16 -110 8z"/>
</g>
</svg>
