<?xml version="1.0" standalone="no"?>
<!DOCTYPE svg PUBLIC "-//W3C//DTD SVG 20010904//EN"
 "http://www.w3.org/TR/2001/REC-SVG-20010904/DTD/svg10.dtd">
<svg version="1.0" xmlns="http://www.w3.org/2000/svg"
 width="90.000000pt" height="92.000000pt" viewBox="0 0 90.000000 92.000000"
 preserveAspectRatio="xMidYMid meet">
<metadata>
Created by potrace 1.16, written by Peter Selinger 2001-2019
</metadata>
<g transform="translate(0.000000,92.000000) scale(0.100000,-0.100000)"
fill="#000000" stroke="none">
<path d="M540 858 c0 -57 -9 -68 -59 -75 -22 -3 -41 -9 -41 -13 0 -11 26 -20
55 -20 22 0 23 -2 13 -31 -16 -45 -3 -46 27 -1 28 43 52 52 136 52 57 0 70 14
31 34 -21 11 -38 12 -68 6 -56 -13 -56 -13 -38 22 16 31 16 32 -6 50 -37 30
-50 23 -50 -24z"/>
<path d="M248 864 c-4 -3 2 -24 12 -47 l19 -42 -47 -8 c-26 -4 -59 -5 -74 -2
-35 6 -35 -5 -3 -35 23 -21 29 -23 58 -13 76 26 74 26 87 -12 15 -46 30 -45
30 4 0 36 3 40 35 51 48 16 45 34 -4 25 l-38 -6 -7 39 c-4 30 -11 41 -28 46
-29 7 -33 7 -40 0z"/>
<path d="M625 670 c-3 -5 -3 -15 1 -21 3 -6 9 -37 13 -69 l7 -58 -90 -13 c-50
-7 -102 -15 -116 -19 l-25 -7 31 -16 c29 -15 39 -15 109 -2 42 8 79 15 81 15
7 0 2 -272 -5 -305 -7 -32 -29 -38 -81 -21 -20 7 -14 -2 29 -50 30 -32 57 -60
62 -62 5 -2 18 11 29 30 19 30 20 43 14 135 -3 55 -3 142 1 192 l7 91 67 0
c79 0 100 9 74 32 -27 23 -54 28 -98 18 -22 -5 -41 -7 -43 -6 -1 2 4 23 12 47
20 56 20 54 -6 71 -34 22 -65 30 -73 18z"/>
<path d="M325 644 c-22 -9 -71 -16 -110 -16 l-70 -1 -2 -96 c-2 -140 -38 -249
-121 -360 -21 -28 -22 -32 -5 -23 30 17 97 94 112 129 11 27 16 31 31 23 11
-6 36 -6 64 -1 l47 9 -1 -112 c-2 -123 4 -153 26 -135 10 8 14 38 15 103 1 50
4 105 8 121 6 29 9 30 64 33 59 3 68 10 41 33 -13 11 -37 9 -142 -9 -69 -12
-127 -20 -128 -19 -1 1 8 39 19 83 l21 82 71 6 c114 11 147 18 136 29 -11 11
1 37 33 75 17 20 18 24 5 37 -22 22 -70 26 -114 9z m41 -56 c-3 -13 -6 -28 -6
-34 0 -9 -110 -34 -149 -34 -6 0 -11 15 -11 34 0 34 1 35 48 41 26 4 52 8 57
10 6 2 23 4 39 4 25 1 28 -2 22 -21z"/>
<path d="M263 426 c-28 -6 -55 -14 -58 -18 -15 -15 44 -19 106 -8 74 14 86 19
68 31 -18 11 -51 10 -116 -5z"/>
<path d="M480 393 c1 -17 56 -107 67 -111 17 -5 27 22 19 53 -8 31 -87 84 -86
58z"/>
<path d="M185 230 c-3 -11 -24 -42 -46 -70 -38 -48 -39 -49 -12 -39 31 11 79
54 95 82 6 13 6 23 -3 33 -16 19 -26 18 -34 -6z"/>
<path d="M367 233 c6 -18 17 -36 49 -89 13 -21 18 -24 25 -13 17 27 9 61 -22
90 -35 33 -62 39 -52 12z"/>
</g>
</svg>
