<?xml version="1.0" standalone="no"?>
<!DOCTYPE svg PUBLIC "-//W3C//DTD SVG 20010904//EN"
 "http://www.w3.org/TR/2001/REC-SVG-20010904/DTD/svg10.dtd">
<svg version="1.0" xmlns="http://www.w3.org/2000/svg"
 width="96.000000pt" height="68.000000pt" viewBox="0 0 96.000000 68.000000"
 preserveAspectRatio="xMidYMid meet">
<metadata>
Created by potrace 1.16, written by Peter Selinger 2001-2019
</metadata>
<g transform="translate(0.000000,68.000000) scale(0.100000,-0.100000)"
fill="#000000" stroke="none">
<path d="M375 434 c-29 -9 -72 -13 -103 -10 l-53 5 7 -34 c13 -72 -33 -207
-97 -280 -37 -42 -29 -45 19 -9 44 34 87 103 107 169 l15 53 90 7 c72 6 90 10
90 23 0 9 10 26 22 39 38 41 -15 61 -97 37z m45 -36 c0 -28 -18 -37 -83 -44
-68 -7 -80 0 -59 32 14 23 142 33 142 12z"/>
</g>
</svg>
