<?xml version="1.0" standalone="no"?>
<!DOCTYPE svg PUBLIC "-//W3C//DTD SVG 20010904//EN"
 "http://www.w3.org/TR/2001/REC-SVG-20010904/DTD/svg10.dtd">
<svg version="1.0" xmlns="http://www.w3.org/2000/svg"
 width="96.000000pt" height="68.000000pt" viewBox="0 0 96.000000 68.000000"
 preserveAspectRatio="xMidYMid meet">
<metadata>
Created by potrace 1.16, written by Peter Selinger 2001-2019
</metadata>
<g transform="translate(0.000000,68.000000) scale(0.100000,-0.100000)"
fill="#000000" stroke="none">
<path d="M417 606 l5 -33 -83 -7 c-56 -5 -78 -11 -68 -17 8 -5 44 -6 81 -3 58
6 69 4 74 -11 9 -24 -12 -35 -68 -35 -27 0 -48 -4 -48 -10 0 -6 27 -10 60 -10
54 0 60 -2 60 -21 0 -29 44 -22 48 7 3 19 12 22 73 28 93 10 92 30 -1 24 -67
-3 -71 -2 -68 17 3 17 13 21 78 28 96 10 111 15 87 28 -12 7 -40 7 -87 0 -38
-6 -72 -11 -75 -11 -4 0 -4 11 -1 24 6 26 -7 36 -49 36 -21 0 -23 -3 -18 -34z"/>
</g>
</svg>
