<?xml version="1.0" standalone="no"?>
<!DOCTYPE svg PUBLIC "-//W3C//DTD SVG 20010904//EN"
 "http://www.w3.org/TR/2001/REC-SVG-20010904/DTD/svg10.dtd">
<svg version="1.0" xmlns="http://www.w3.org/2000/svg"
 width="96.000000pt" height="68.000000pt" viewBox="0 0 96.000000 68.000000"
 preserveAspectRatio="xMidYMid meet">
<metadata>
Created by potrace 1.16, written by Peter Selinger 2001-2019
</metadata>
<g transform="translate(0.000000,68.000000) scale(0.100000,-0.100000)"
fill="#000000" stroke="none">
<path d="M578 473 c-14 -4 -18 -15 -18 -48 0 -42 1 -44 38 -54 63 -18 142 -12
142 10 0 5 -29 9 -64 9 -73 0 -95 14 -76 50 13 25 4 39 -22 33z"/>
<path d="M458 443 c-10 -3 -18 -11 -18 -19 0 -8 -16 -32 -36 -54 -41 -45 -28
-53 23 -14 62 47 80 98 31 87z"/>
</g>
</svg>
