<?xml version="1.0" standalone="no"?>
<!DOCTYPE svg PUBLIC "-//W3C//DTD SVG 20010904//EN"
 "http://www.w3.org/TR/2001/REC-SVG-20010904/DTD/svg10.dtd">
<svg version="1.0" xmlns="http://www.w3.org/2000/svg"
 width="90.000000pt" height="92.000000pt" viewBox="0 0 90.000000 92.000000"
 preserveAspectRatio="xMidYMid meet">
<metadata>
Created by potrace 1.16, written by Peter Selinger 2001-2019
</metadata>
<g transform="translate(0.000000,92.000000) scale(0.100000,-0.100000)"
fill="#000000" stroke="none">
<path d="M517 873 c-4 -3 -7 -18 -7 -32 0 -30 -61 -175 -84 -200 -22 -24 -20
-34 4 -21 11 6 36 33 56 59 l36 48 87 6 c102 8 131 15 131 33 0 24 -44 26
-123 6 -42 -11 -77 -18 -77 -16 0 3 9 23 20 44 l20 40 -20 20 c-21 21 -32 24
-43 13z"/>
<path d="M236 843 c-3 -4 -6 -17 -6 -29 0 -32 -65 -152 -102 -191 -51 -52 -9
-41 53 15 49 44 58 48 143 62 68 11 91 19 91 30 0 21 -34 23 -99 7 -31 -9 -56
-12 -56 -9 0 4 11 20 24 37 13 16 21 35 19 43 -7 16 -58 43 -67 35z"/>
<path d="M541 663 c59 -79 99 -96 99 -42 0 25 -6 32 -35 45 -19 7 -44 14 -56
14 -19 0 -20 -2 -8 -17z"/>
<path d="M256 653 c-10 -10 48 -83 67 -83 20 0 24 42 4 58 -19 16 -64 32 -71
25z"/>
<path d="M465 534 c-38 -7 -109 -16 -157 -20 -49 -4 -88 -11 -88 -16 0 -17 56
-30 107 -25 29 3 55 2 58 -2 2 -4 7 -78 11 -163 l7 -155 -25 -6 c-14 -4 -89
-10 -167 -13 -146 -7 -164 -15 -105 -43 24 -12 49 -12 154 -3 69 7 217 12 330
12 209 0 244 6 222 33 -28 34 -66 39 -191 28 -65 -6 -131 -11 -146 -11 l-27 0
3 170 3 170 36 0 c44 1 118 15 128 25 11 11 -29 35 -57 34 -14 -1 -57 -8 -96
-15z"/>
<path d="M563 420 c-7 -27 -29 -75 -50 -107 -21 -32 -42 -64 -46 -70 -20 -32
20 -9 66 37 l51 51 57 -57 c49 -49 60 -55 73 -44 39 31 4 79 -76 106 l-48 16
25 32 c14 18 25 38 25 43 0 13 -19 29 -45 37 -18 5 -22 -1 -32 -44z"/>
<path d="M232 409 c-3 -41 -33 -97 -87 -164 -25 -30 -43 -55 -40 -55 19 0 68
36 103 75 l39 45 51 -51 c54 -54 72 -56 72 -8 0 27 -6 33 -55 55 l-55 25 27
36 27 35 -23 19 c-35 29 -56 24 -59 -12z"/>
</g>
</svg>
