<?xml version="1.0" standalone="no"?>
<!DOCTYPE svg PUBLIC "-//W3C//DTD SVG 20010904//EN"
 "http://www.w3.org/TR/2001/REC-SVG-20010904/DTD/svg10.dtd">
<svg version="1.0" xmlns="http://www.w3.org/2000/svg"
 width="90.000000pt" height="92.000000pt" viewBox="0 0 90.000000 92.000000"
 preserveAspectRatio="xMidYMid meet">
<metadata>
Created by potrace 1.16, written by Peter Selinger 2001-2019
</metadata>
<g transform="translate(0.000000,92.000000) scale(0.100000,-0.100000)"
fill="#000000" stroke="none">
<path d="M507 864 c-3 -4 -2 -14 3 -23 4 -9 10 -46 12 -81 l3 -65 -60 -20
c-94 -33 -95 -35 -12 -31 l77 4 0 -33 c0 -33 -2 -34 -47 -40 -64 -9 -83 -15
-83 -25 0 -15 40 -22 86 -15 47 7 50 3 38 -42 -5 -18 -16 -23 -72 -29 -36 -4
-77 -10 -91 -14 l-26 -7 27 -13 c19 -9 41 -10 82 -3 l56 10 -26 -46 c-37 -64
-108 -146 -167 -192 -57 -46 -43 -51 28 -10 47 27 112 89 163 156 l23 30 -7
-105 c-10 -148 -8 -188 6 -205 12 -15 15 -14 29 0 13 13 17 46 19 171 l3 155
40 -62 c59 -91 109 -147 137 -154 31 -8 132 4 132 16 0 5 -35 25 -77 45 -62
29 -94 54 -155 116 -43 43 -78 83 -78 88 0 6 35 10 79 10 87 0 141 8 141 21 0
5 -13 15 -29 24 -28 14 -66 12 -168 -10 -20 -5 -23 -1 -23 29 0 33 3 36 38 41
79 13 92 17 92 26 0 20 -55 28 -102 16 -27 -7 -28 -6 -28 30 l0 38 76 23 c82
25 87 34 34 69 l-32 23 -30 -25 c-35 -29 -51 -32 -45 -7 3 9 8 34 12 55 6 36
4 38 -29 52 -40 17 -41 17 -49 9z"/>
<path d="M156 758 c9 -18 25 -45 36 -60 10 -15 15 -29 11 -31 -5 -3 -50 -11
-100 -18 -96 -13 -114 -26 -67 -48 21 -9 47 -7 142 13 65 14 135 28 156 31 36
6 38 8 22 23 -11 11 -31 16 -61 14 -41 -1 -45 0 -45 22 0 14 -3 32 -6 41 -8
19 -55 45 -84 45 -20 0 -20 -1 -4 -32z"/>
<path d="M178 541 c-31 -9 -60 -19 -63 -23 -15 -15 49 -20 108 -8 70 15 89 26
67 40 -20 13 -44 11 -112 -9z"/>
<path d="M195 450 c-16 -4 -43 -11 -58 -14 -40 -9 -23 -26 26 -26 49 1 125 14
135 24 10 11 -20 26 -48 25 -14 0 -38 -4 -55 -9z"/>
<path d="M210 344 c-19 -7 -56 -13 -82 -13 -53 -1 -54 -2 -34 -34 7 -12 19
-48 25 -79 13 -59 27 -80 41 -59 4 7 34 17 66 23 l59 12 1 37 c1 20 10 51 20
68 19 32 19 33 0 47 -23 17 -49 16 -96 -2z m40 -48 c0 -44 -18 -73 -51 -85
-18 -6 -33 -10 -35 -9 -1 2 -5 24 -9 50 -7 46 -6 47 21 53 16 4 34 8 39 10 25
9 35 3 35 -19z"/>
</g>
</svg>
