<?xml version="1.0" standalone="no"?>
<!DOCTYPE svg PUBLIC "-//W3C//DTD SVG 20010904//EN"
 "http://www.w3.org/TR/2001/REC-SVG-20010904/DTD/svg10.dtd">
<svg version="1.0" xmlns="http://www.w3.org/2000/svg"
 width="90.000000pt" height="92.000000pt" viewBox="0 0 90.000000 92.000000"
 preserveAspectRatio="xMidYMid meet">
<metadata>
Created by potrace 1.16, written by Peter Selinger 2001-2019
</metadata>
<g transform="translate(0.000000,92.000000) scale(0.100000,-0.100000)"
fill="#000000" stroke="none">
<path d="M537 840 c-15 -5 -68 -14 -117 -21 -102 -15 -115 -32 -27 -37 l57 -3
0 -44 0 -45 -80 0 c-47 0 -80 4 -80 10 0 28 -18 3 -38 -52 -28 -79 -29 -108
-3 -108 15 0 24 13 37 54 l17 54 59 6 c33 4 66 10 74 13 13 5 15 -9 13 -91 -2
-60 1 -100 8 -107 24 -24 33 4 33 105 l0 103 61 7 c103 10 149 8 149 -8 0 -8
-4 -18 -10 -21 -5 -3 -14 -14 -20 -24 -9 -18 -7 -18 57 -2 37 9 68 22 71 29 5
16 -55 72 -79 72 -10 0 -64 -7 -119 -16 -56 -9 -103 -14 -105 -12 -2 2 -1 22
2 45 l5 41 64 12 c71 14 85 24 55 39 -23 13 -45 13 -84 1z"/>
<path d="M106 781 c-7 -10 76 -101 92 -101 16 0 33 36 26 55 -11 27 -107 65
-118 46z"/>
<path d="M552 614 c-36 -38 -28 -43 41 -23 42 11 45 19 19 42 -23 21 -21 22
-60 -19z"/>
<path d="M320 606 c0 -2 16 -14 36 -26 25 -16 39 -19 46 -12 21 21 0 42 -42
42 -22 0 -40 -2 -40 -4z"/>
<path d="M41 563 c7 -10 26 -33 43 -50 44 -48 85 -42 72 11 -6 25 -67 56 -107
56 -19 0 -20 -2 -8 -17z"/>
<path d="M551 541 c-11 -7 -7 -14 20 -30 19 -12 42 -21 51 -21 28 0 33 22 8
42 -24 19 -56 23 -79 9z"/>
<path d="M348 512 c-43 -19 -45 -24 -21 -47 16 -16 18 -15 45 16 43 53 39 58
-24 31z"/>
<path d="M533 454 c-34 -7 -96 -17 -138 -21 -85 -9 -104 -26 -32 -31 41 -3 47
-6 47 -26 0 -44 -23 -61 -87 -62 -46 0 -57 -3 -54 -15 3 -7 7 -54 9 -104 4
-90 17 -129 33 -103 5 7 9 52 9 99 l0 87 38 5 c20 2 40 2 45 0 4 -2 7 -34 7
-71 0 -67 12 -104 27 -88 4 4 10 46 12 92 l3 84 33 0 c42 0 45 -9 45 -121 0
-54 4 -89 10 -89 15 0 19 15 29 115 7 66 6 92 -2 97 -7 4 21 8 61 8 l72 0 0
-59 c0 -32 -3 -73 -6 -91 -7 -32 -8 -32 -50 -26 -24 3 -44 3 -44 0 0 -15 66
-84 81 -84 30 0 57 47 64 108 3 31 10 80 16 107 10 49 10 50 -23 78 -19 16
-39 25 -48 21 -8 -3 -70 -13 -137 -23 l-122 -17 20 28 c11 15 18 32 14 38 -6
10 12 15 90 25 100 13 116 22 70 43 -14 7 -27 11 -28 11 -1 -1 -30 -8 -64 -15z"/>
<path d="M157 372 c-32 -50 -71 -101 -88 -112 -33 -25 -35 -35 -13 -90 20 -50
39 -51 54 -2 7 20 35 88 62 151 27 63 48 121 46 129 -2 9 -29 -25 -61 -76z"/>
</g>
</svg>
