<?xml version="1.0" standalone="no"?>
<!DOCTYPE svg PUBLIC "-//W3C//DTD SVG 20010904//EN"
 "http://www.w3.org/TR/2001/REC-SVG-20010904/DTD/svg10.dtd">
<svg version="1.0" xmlns="http://www.w3.org/2000/svg"
 width="90.000000pt" height="92.000000pt" viewBox="0 0 90.000000 92.000000"
 preserveAspectRatio="xMidYMid meet">
<metadata>
Created by potrace 1.16, written by Peter Selinger 2001-2019
</metadata>
<g transform="translate(0.000000,92.000000) scale(0.100000,-0.100000)"
fill="#000000" stroke="none">
<path d="M526 791 c-7 -56 -54 -198 -85 -258 -11 -23 -21 -45 -21 -49 0 -12
42 30 70 71 27 40 30 41 116 54 119 18 116 22 112 -179 -3 -138 -6 -160 -26
-202 -28 -56 -45 -63 -100 -44 -23 8 -42 13 -42 11 0 -11 94 -125 103 -125 5
0 29 19 52 43 57 56 67 96 74 304 3 94 9 175 13 178 12 12 -11 44 -43 61 -29
14 -35 14 -81 -1 -53 -17 -138 -35 -138 -29 0 3 4 12 10 22 19 33 60 135 60
148 0 14 -38 44 -56 44 -6 0 -14 -22 -18 -49z"/>
<path d="M286 765 c-27 -8 -89 -19 -138 -26 -48 -7 -88 -16 -88 -20 0 -14 22
-22 61 -22 36 0 39 -2 45 -32 3 -17 4 -45 2 -61 -3 -28 -5 -29 -61 -32 -51 -3
-58 -5 -50 -20 8 -18 10 -225 2 -324 -3 -45 0 -61 13 -75 15 -15 18 -15 18 -2
0 12 22 18 113 26 118 11 115 12 144 -34 11 -17 12 -17 33 3 21 20 21 29 22
229 l0 209 -26 19 c-22 16 -32 17 -57 8 l-30 -10 3 58 3 59 45 6 c61 9 78 20
61 40 -16 19 -48 19 -115 1z m-38 -118 c3 -52 1 -57 -18 -57 -20 0 -21 5 -19
53 2 59 6 70 22 64 7 -2 13 -29 15 -60z m0 -153 c-3 -74 7 -88 69 -100 l33 -6
0 -78 0 -77 -72 -7 c-40 -3 -97 -9 -127 -13 l-54 -6 6 78 c6 70 10 81 41 116
32 34 56 91 56 130 0 21 9 29 31 29 16 0 18 -8 17 -66z m102 5 l0 -60 -32 3
c-33 3 -33 4 -36 61 l-3 57 36 0 35 0 0 -61z m-183 27 c-3 -8 -9 -30 -12 -48
-4 -18 -15 -44 -25 -58 l-20 -25 0 73 0 72 31 0 c23 0 30 -4 26 -14z"/>
<path d="M192 317 c-89 -24 -38 -48 58 -27 67 15 76 20 59 31 -18 11 -64 10
-117 -4z"/>
<path d="M447 442 c-3 -4 10 -31 29 -59 41 -65 74 -73 74 -19 0 18 -6 39 -13
45 -22 18 -86 41 -90 33z"/>
</g>
</svg>
