<?xml version="1.0" standalone="no"?>
<!DOCTYPE svg PUBLIC "-//W3C//DTD SVG 20010904//EN"
 "http://www.w3.org/TR/2001/REC-SVG-20010904/DTD/svg10.dtd">
<svg version="1.0" xmlns="http://www.w3.org/2000/svg"
 width="96.000000pt" height="68.000000pt" viewBox="0 0 96.000000 68.000000"
 preserveAspectRatio="xMidYMid meet">
<metadata>
Created by potrace 1.16, written by Peter Selinger 2001-2019
</metadata>
<g transform="translate(0.000000,68.000000) scale(0.100000,-0.100000)"
fill="#000000" stroke="none">
<path d="M290 212 c0 -14 35 -42 53 -42 22 0 21 13 -1 33 -20 18 -52 23 -52 9z"/>
<path d="M210 192 c0 -5 13 -21 30 -37 27 -26 30 -27 36 -10 5 12 0 24 -15 37
-24 19 -51 24 -51 10z"/>
<path d="M110 183 c0 -18 52 -83 65 -83 16 0 20 27 7 46 -10 15 -72 47 -72 37z"/>
</g>
</svg>
