<?xml version="1.0" standalone="no"?>
<!DOCTYPE svg PUBLIC "-//W3C//DTD SVG 20010904//EN"
 "http://www.w3.org/TR/2001/REC-SVG-20010904/DTD/svg10.dtd">
<svg version="1.0" xmlns="http://www.w3.org/2000/svg"
 width="96.000000pt" height="68.000000pt" viewBox="0 0 96.000000 68.000000"
 preserveAspectRatio="xMidYMid meet">
<metadata>
Created by potrace 1.16, written by Peter Selinger 2001-2019
</metadata>
<g transform="translate(0.000000,68.000000) scale(0.100000,-0.100000)"
fill="#000000" stroke="none">
<path d="M729 376 c-9 -10 -295 -36 -323 -30 -27 6 -28 5 -22 -17 4 -13 13
-75 18 -136 8 -79 15 -113 24 -113 7 0 14 4 16 9 2 4 62 12 134 16 l131 7 13
-32 c14 -35 26 -35 53 2 16 21 39 152 47 259 0 7 -63 39 -77 39 -5 0 -12 -2
-14 -4z m19 -111 c2 -44 1 -93 -3 -110 l-5 -30 -149 -3 -148 -3 -7 97 c-4 53
-4 99 -1 103 9 9 201 29 260 27 l50 -1 3 -80z"/>
</g>
</svg>
