<?xml version="1.0" standalone="no"?>
<!DOCTYPE svg PUBLIC "-//W3C//DTD SVG 20010904//EN"
 "http://www.w3.org/TR/2001/REC-SVG-20010904/DTD/svg10.dtd">
<svg version="1.0" xmlns="http://www.w3.org/2000/svg"
 width="96.000000pt" height="68.000000pt" viewBox="0 0 96.000000 68.000000"
 preserveAspectRatio="xMidYMid meet">
<metadata>
Created by potrace 1.16, written by Peter Selinger 2001-2019
</metadata>
<g transform="translate(0.000000,68.000000) scale(0.100000,-0.100000)"
fill="#000000" stroke="none">
<path d="M446 473 l6 -59 -168 -13 c-166 -14 -168 -14 -145 -32 28 -22 36 -23
166 -4 152 22 142 25 150 -47 3 -35 2 -94 -2 -133 -8 -66 -9 -70 -33 -69 -14
1 -36 5 -50 9 -21 6 -18 0 21 -40 37 -38 51 -46 69 -40 40 13 49 57 43 208
l-5 137 161 0 c98 0 161 4 161 10 0 5 -14 17 -31 25 -26 14 -43 15 -117 6 -48
-6 -106 -11 -130 -11 l-43 0 3 53 3 52 -32 3 -33 3 6 -58z"/>
</g>
</svg>
