<?xml version="1.0" standalone="no"?>
<!DOCTYPE svg PUBLIC "-//W3C//DTD SVG 20010904//EN"
 "http://www.w3.org/TR/2001/REC-SVG-20010904/DTD/svg10.dtd">
<svg version="1.0" xmlns="http://www.w3.org/2000/svg"
 width="96.000000pt" height="68.000000pt" viewBox="0 0 96.000000 68.000000"
 preserveAspectRatio="xMidYMid meet">
<metadata>
Created by potrace 1.16, written by Peter Selinger 2001-2019
</metadata>
<g transform="translate(0.000000,68.000000) scale(0.100000,-0.100000)"
fill="#000000" stroke="none">
<path d="M320 505 c-36 -7 -87 -16 -114 -20 -55 -7 -47 -25 12 -25 27 0 32 -4
32 -22 -1 -47 -72 -168 -144 -245 -57 -62 -3 -34 60 31 61 62 152 216 139 236
-3 5 16 12 42 16 65 9 82 19 57 31 -13 7 -41 6 -84 -2z"/>
</g>
</svg>
