<?xml version="1.0" standalone="no"?>
<!DOCTYPE svg PUBLIC "-//W3C//DTD SVG 20010904//EN"
 "http://www.w3.org/TR/2001/REC-SVG-20010904/DTD/svg10.dtd">
<svg version="1.0" xmlns="http://www.w3.org/2000/svg"
 width="96.000000pt" height="68.000000pt" viewBox="0 0 96.000000 68.000000"
 preserveAspectRatio="xMidYMid meet">
<metadata>
Created by potrace 1.16, written by Peter Selinger 2001-2019
</metadata>
<g transform="translate(0.000000,68.000000) scale(0.100000,-0.100000)"
fill="#000000" stroke="none">
<path d="M691 224 c-39 -39 -32 -42 36 -13 45 19 47 21 29 35 -26 18 -25 18
-65 -22z"/>
<path d="M570 193 c0 -27 -3 -65 -7 -86 -6 -37 -8 -39 -36 -34 l-31 4 40 -33
c35 -31 40 -32 52 -17 8 11 12 52 12 115 0 80 -3 98 -15 98 -11 0 -15 -12 -15
-47z"/>
<path d="M460 205 c25 -27 50 -33 50 -12 0 20 -22 37 -49 37 l-24 0 23 -25z"/>
<path d="M480 144 c-30 -13 -65 -24 -78 -24 -26 0 -26 -17 0 -34 12 -7 31 0
77 30 33 21 61 42 61 47 0 4 -1 6 -2 6 -2 -1 -28 -12 -58 -25z"/>
<path d="M651 156 c24 -23 116 -86 126 -86 19 0 16 24 -5 43 -23 21 -142 63
-121 43z"/>
</g>
</svg>
