<?xml version="1.0" standalone="no"?>
<!DOCTYPE svg PUBLIC "-//W3C//DTD SVG 20010904//EN"
 "http://www.w3.org/TR/2001/REC-SVG-20010904/DTD/svg10.dtd">
<svg version="1.0" xmlns="http://www.w3.org/2000/svg"
 width="96.000000pt" height="68.000000pt" viewBox="0 0 96.000000 68.000000"
 preserveAspectRatio="xMidYMid meet">
<metadata>
Created by potrace 1.16, written by Peter Selinger 2001-2019
</metadata>
<g transform="translate(0.000000,68.000000) scale(0.100000,-0.100000)"
fill="#000000" stroke="none">
<path d="M438 352 c-10 -2 -18 -12 -18 -23 0 -16 -7 -19 -55 -19 -30 0 -55 -4
-55 -10 0 -6 27 -10 60 -10 45 0 60 -3 60 -14 0 -20 -18 -24 -137 -32 -57 -3
-103 -10 -103 -15 0 -17 69 -19 160 -5 54 9 156 16 238 16 78 0 142 4 142 9 0
5 -13 14 -29 20 -22 10 -52 10 -126 1 -97 -10 -126 -5 -111 19 4 6 20 11 35
11 45 0 91 12 91 23 0 6 -23 8 -61 4 -51 -4 -61 -2 -67 12 -4 9 -15 15 -24 13z"/>
</g>
</svg>
