<?xml version="1.0" standalone="no"?>
<!DOCTYPE svg PUBLIC "-//W3C//DTD SVG 20010904//EN"
 "http://www.w3.org/TR/2001/REC-SVG-20010904/DTD/svg10.dtd">
<svg version="1.0" xmlns="http://www.w3.org/2000/svg"
 width="90.000000pt" height="92.000000pt" viewBox="0 0 90.000000 92.000000"
 preserveAspectRatio="xMidYMid meet">
<metadata>
Created by potrace 1.16, written by Peter Selinger 2001-2019
</metadata>
<g transform="translate(0.000000,92.000000) scale(0.100000,-0.100000)"
fill="#000000" stroke="none">
<path d="M505 840 c-72 -15 -148 -31 -170 -35 -36 -6 -38 -8 -22 -20 48 -35
13 -295 -58 -437 -30 -59 -15 -62 26 -5 39 54 56 94 78 187 10 41 23 75 30 74
44 -4 43 -1 39 -81 -2 -43 -7 -85 -11 -93 -4 -9 -1 -24 7 -35 14 -19 17 -17
80 44 36 36 64 67 62 69 -2 2 -22 -8 -45 -22 -22 -14 -43 -26 -46 -26 -13 0
-2 149 11 154 6 2 68 10 136 16 67 7 125 14 128 17 3 3 -4 11 -15 20 -22 16
-29 16 -222 -13 -67 -10 -125 -16 -128 -12 -3 3 -3 17 0 30 5 20 11 24 33 20
27 -4 241 34 251 44 8 8 -21 24 -45 24 -11 0 -60 -9 -110 -20 -49 -11 -97 -20
-106 -20 -21 0 -24 32 -5 48 17 14 102 30 199 38 109 9 122 16 77 43 -19 11
-36 20 -39 20 -3 -1 -63 -14 -135 -29z"/>
<path d="M129 802 c19 -35 78 -92 95 -92 38 0 32 70 -8 88 -13 6 -41 14 -61
18 -35 6 -37 6 -26 -14z"/>
<path d="M681 608 c-5 -13 -18 -31 -29 -42 -20 -18 -23 -18 -63 -2 -23 9 -43
15 -45 13 -5 -5 195 -161 211 -165 24 -5 29 27 9 50 -11 11 -41 33 -69 49
l-49 28 36 16 c21 8 42 15 48 15 19 0 10 28 -15 44 -24 16 -26 16 -34 -6z"/>
<path d="M46 602 c-9 -14 79 -102 102 -102 47 0 39 64 -11 84 -48 20 -85 27
-91 18z"/>
<path d="M185 379 c-22 -39 -61 -94 -86 -121 -41 -44 -46 -54 -39 -78 12 -42
30 -72 42 -68 6 2 23 37 38 78 15 41 41 107 58 145 16 39 33 80 37 93 13 44
-11 21 -50 -49z"/>
<path d="M613 406 c7 -41 14 -38 -166 -62 -113 -15 -127 -19 -114 -32 19 -18
36 -18 171 2 60 9 111 15 113 12 5 -4 5 -50 4 -171 -1 -35 -1 -35 -48 -35
l-47 0 44 -45 c50 -51 62 -54 84 -23 13 18 16 51 16 150 l0 127 58 6 c31 3 65
7 75 8 26 3 24 20 -4 35 -15 8 -43 11 -76 7 -46 -4 -52 -3 -46 11 7 20 -21 44
-50 44 -17 0 -19 -5 -14 -34z"/>
<path d="M431 224 c40 -55 72 -65 77 -23 4 33 -25 58 -74 66 l-38 6 35 -49z"/>
</g>
</svg>
