<?xml version="1.0" standalone="no"?>
<!DOCTYPE svg PUBLIC "-//W3C//DTD SVG 20010904//EN"
 "http://www.w3.org/TR/2001/REC-SVG-20010904/DTD/svg10.dtd">
<svg version="1.0" xmlns="http://www.w3.org/2000/svg"
 width="90.000000pt" height="92.000000pt" viewBox="0 0 90.000000 92.000000"
 preserveAspectRatio="xMidYMid meet">
<metadata>
Created by potrace 1.16, written by Peter Selinger 2001-2019
</metadata>
<g transform="translate(0.000000,92.000000) scale(0.100000,-0.100000)"
fill="#000000" stroke="none">
<path d="M240 793 c-25 -8 -73 -15 -107 -16 -65 -2 -73 -6 -49 -26 7 -6 19
-37 25 -69 13 -65 27 -93 39 -76 4 7 49 15 100 19 50 4 92 11 92 16 0 5 -4 9
-10 9 -11 0 17 77 37 101 42 50 -29 74 -127 42z m60 -47 c0 -7 -3 -27 -6 -44
-6 -28 -10 -31 -71 -42 -35 -7 -66 -11 -68 -8 -2 2 -5 24 -7 48 l-3 45 40 6
c75 12 115 10 115 -5z"/>
<path d="M655 784 c-27 -8 -83 -17 -123 -20 -76 -7 -87 -19 -41 -41 20 -10 35
-9 74 2 26 8 72 15 101 15 53 0 53 0 60 -35 8 -47 -1 -485 -11 -509 -8 -19
-42 -19 -90 0 -12 5 0 -16 34 -54 50 -59 55 -62 75 -49 48 32 51 54 48 333 -1
171 1 272 9 290 10 27 8 31 -22 57 -37 30 -44 31 -114 11z"/>
<path d="M525 620 c-68 -16 -69 -17 -42 -29 21 -8 46 -8 95 -1 77 13 84 17 58
36 -23 17 -21 17 -111 -6z"/>
<path d="M270 554 c-36 -8 -106 -15 -157 -16 -87 -2 -91 -3 -81 -22 7 -12 8
-61 4 -135 -11 -173 -11 -178 4 -196 20 -24 29 -2 31 70 2 94 9 110 47 111 32
2 32 1 32 -43 0 -48 15 -87 31 -78 5 4 9 32 9 64 0 52 2 59 23 65 12 3 25 6
30 6 4 0 7 -29 7 -64 0 -59 11 -88 28 -71 3 3 8 37 10 76 4 68 5 69 32 69 16
0 35 3 44 6 13 5 16 -2 16 -39 0 -24 -3 -65 -6 -91 l-7 -48 -33 7 c-19 3 -34
3 -34 0 0 -13 66 -85 77 -85 7 0 21 12 30 27 15 23 18 51 19 168 0 77 3 154 7
170 7 27 4 33 -22 48 -34 20 -52 20 -141 1z m86 -32 c7 -4 13 -29 15 -55 4
-44 3 -48 -16 -43 -11 3 -30 6 -42 6 -21 0 -23 4 -20 50 2 46 4 50 27 50 14 0
30 -4 36 -8z m-108 -54 c-3 -49 -5 -53 -29 -56 -26 -3 -27 -1 -30 47 -4 53 0
59 39 60 22 1 23 -2 20 -51z m-115 25 c3 -5 8 -27 12 -49 l6 -42 -35 -4 -36
-4 0 53 c0 50 2 53 24 53 14 0 27 -3 29 -7z"/>
<path d="M565 495 c-16 -8 -50 -14 -74 -15 -35 0 -41 -3 -32 -14 6 -7 17 -42
24 -77 11 -54 16 -64 33 -61 104 15 106 16 109 48 1 18 10 47 19 65 21 42 21
44 -9 57 -31 14 -32 14 -70 -3z m26 -38 c-1 -4 -1 -23 -1 -42 0 -30 -4 -35
-32 -43 -42 -12 -50 -4 -46 44 3 34 7 40 33 45 35 7 47 6 46 -4z"/>
</g>
</svg>
