<?xml version="1.0" standalone="no"?>
<!DOCTYPE svg PUBLIC "-//W3C//DTD SVG 20010904//EN"
 "http://www.w3.org/TR/2001/REC-SVG-20010904/DTD/svg10.dtd">
<svg version="1.0" xmlns="http://www.w3.org/2000/svg"
 width="96.000000pt" height="68.000000pt" viewBox="0 0 96.000000 68.000000"
 preserveAspectRatio="xMidYMid meet">
<metadata>
Created by potrace 1.16, written by Peter Selinger 2001-2019
</metadata>
<g transform="translate(0.000000,68.000000) scale(0.100000,-0.100000)"
fill="#000000" stroke="none">
<path d="M277 593 c-3 -5 -8 -24 -12 -43 -10 -49 -47 -110 -116 -191 -33 -38
-54 -69 -46 -69 8 0 39 18 70 40 65 47 87 51 87 15 0 -22 -5 -25 -50 -31 -27
-4 -50 -10 -50 -14 0 -13 54 -22 84 -14 26 6 26 6 26 -54 0 -59 0 -60 -31 -66
-17 -3 -49 -6 -71 -6 -47 0 -47 -16 0 -43 26 -15 35 -16 54 -6 13 7 63 27 113
45 49 17 91 37 93 44 5 13 -13 12 -82 -6 l-27 -6 3 53 c3 53 4 54 41 63 48 12
47 24 -2 32 -31 5 -39 11 -38 25 1 13 12 21 35 25 56 11 31 29 -37 27 -33 -2
-61 0 -61 3 0 2 15 26 33 53 l32 48 29 -29 c31 -32 61 -34 61 -3 0 13 -13 26
-37 38 -23 11 -38 26 -38 36 0 10 -11 23 -25 29 -31 14 -32 14 -38 5z"/>
<path d="M630 565 c-36 -7 -95 -13 -132 -14 l-66 -1 19 -52 c10 -29 19 -53 19
-53 0 0 24 0 52 0 42 0 53 -4 56 -17 3 -15 -4 -18 -37 -18 -23 0 -41 -4 -41
-10 0 -5 18 -10 40 -10 33 0 40 -3 40 -20 0 -16 -7 -20 -34 -20 -18 0 -55 -3
-82 -7 -36 -5 -43 -8 -29 -14 11 -4 34 -5 51 -2 24 4 32 1 36 -14 3 -10 9 -26
13 -36 6 -14 2 -17 -24 -17 -17 0 -31 -4 -31 -10 0 -5 23 -10 50 -10 46 0 50
-2 50 -24 0 -23 -4 -25 -80 -32 -44 -3 -83 -11 -87 -17 -4 -7 22 -8 80 -4 l87
6 0 -59 c0 -32 5 -71 11 -87 l12 -28 8 30 c4 17 11 57 16 90 l8 60 92 5 c50 3
94 8 98 11 12 13 -51 20 -119 14 -71 -7 -71 -7 -71 18 0 22 5 26 48 31 49 7
66 26 22 26 -30 0 -29 -1 -10 38 11 20 21 29 31 25 24 -9 128 7 116 19 -13 13
-71 15 -154 5 -63 -8 -68 -7 -68 10 0 12 8 19 23 20 42 4 68 14 61 24 -4 7
-23 9 -44 6 -31 -4 -39 -1 -43 13 -4 14 3 19 36 23 22 3 50 2 62 -3 19 -7 27
-2 54 35 38 53 38 63 5 75 -31 12 -59 11 -144 -5z m102 -45 c-4 -33 -12 -39
-43 -33 -25 5 -26 7 -15 34 8 24 16 29 36 27 20 -2 24 -8 22 -28z m-95 -7 c-3
-23 -9 -29 -35 -31 -30 -3 -32 -1 -32 27 0 29 3 31 35 31 33 0 35 -2 32 -27z
m-93 1 c13 -34 6 -44 -28 -44 -30 0 -34 3 -38 30 -4 28 -2 30 28 30 20 0 34
-6 38 -16z m104 -206 c-3 -31 -6 -33 -45 -36 -34 -3 -42 0 -37 11 3 9 -4 22
-17 30 -21 15 -21 16 12 20 88 10 91 10 87 -25z"/>
<path d="M354 245 c-19 -47 -19 -47 21 -24 37 22 45 43 19 53 -23 9 -24 9 -40
-29z"/>
<path d="M169 233 c21 -36 39 -53 54 -53 37 0 31 41 -9 59 -38 17 -57 15 -45
-6z"/>
</g>
</svg>
