<?xml version="1.0" standalone="no"?>
<!DOCTYPE svg PUBLIC "-//W3C//DTD SVG 20010904//EN"
 "http://www.w3.org/TR/2001/REC-SVG-20010904/DTD/svg10.dtd">
<svg version="1.0" xmlns="http://www.w3.org/2000/svg"
 width="96.000000pt" height="68.000000pt" viewBox="0 0 96.000000 68.000000"
 preserveAspectRatio="xMidYMid meet">
<metadata>
Created by potrace 1.16, written by Peter Selinger 2001-2019
</metadata>
<g transform="translate(0.000000,68.000000) scale(0.100000,-0.100000)"
fill="#000000" stroke="none">
<path d="M580 216 c0 -24 -3 -25 -80 -32 -44 -3 -80 -11 -80 -17 0 -6 29 -8
80 -4 89 6 83 12 81 -78 -1 -54 12 -87 27 -70 5 6 12 44 16 85 3 41 6 76 6 78
0 1 33 3 73 3 39 1 86 4 102 8 29 7 29 7 7 15 -13 4 -60 5 -104 1 -74 -7 -79
-6 -76 11 2 14 -4 20 -24 22 -24 3 -28 0 -28 -22z"/>
</g>
</svg>
