<?xml version="1.0" standalone="no"?>
<!DOCTYPE svg PUBLIC "-//W3C//DTD SVG 20010904//EN"
 "http://www.w3.org/TR/2001/REC-SVG-20010904/DTD/svg10.dtd">
<svg version="1.0" xmlns="http://www.w3.org/2000/svg"
 width="96.000000pt" height="68.000000pt" viewBox="0 0 96.000000 68.000000"
 preserveAspectRatio="xMidYMid meet">
<metadata>
Created by potrace 1.16, written by Peter Selinger 2001-2019
</metadata>
<g transform="translate(0.000000,68.000000) scale(0.100000,-0.100000)"
fill="#000000" stroke="none">
<path d="M488 581 c6 -44 -13 -71 -51 -72 -18 0 -41 -4 -52 -9 -15 -6 -8 -9
28 -9 52 -1 58 -11 30 -51 -9 -14 -17 -26 -18 -28 -1 -1 -16 5 -33 14 -47 23
-58 13 -27 -25 l28 -33 -29 -23 c-16 -14 -32 -24 -36 -25 -5 0 -8 -4 -8 -10 0
-6 9 -6 26 0 46 18 52 13 67 -52 14 -63 14 -63 47 -60 42 5 50 -8 50 -87 0
-62 0 -63 -25 -57 -31 8 -31 2 0 -32 25 -27 25 -27 45 -7 16 17 20 35 21 108
l2 89 33 -6 c31 -6 33 -5 50 41 9 26 21 52 26 58 14 16 9 34 -14 49 -20 12
-37 13 -123 1 -55 -7 -103 -11 -107 -9 -4 3 1 15 12 27 10 12 28 33 39 46 11
13 23 32 26 42 11 34 22 29 125 -61 77 -67 97 -79 135 -80 38 0 75 10 75 20 0
5 -15 12 -32 15 -18 4 -57 16 -86 27 -42 16 -51 23 -42 33 6 8 25 17 41 20 32
7 34 22 5 39 -14 9 -22 6 -41 -18 -28 -34 -52 -32 -105 13 l-35 29 58 7 c55 7
73 20 43 31 -8 3 -33 0 -56 -6 -50 -13 -57 -9 -41 26 14 32 0 54 -33 54 -19 0
-22 -4 -18 -29z m119 -257 c9 -25 -7 -32 -89 -39 -67 -6 -79 -5 -84 9 -11 29
-1 32 149 44 10 1 20 -5 24 -14z m-7 -74 c0 -14 -7 -20 -22 -20 -13 0 -47 -3
-75 -6 -49 -6 -53 -5 -53 14 0 23 18 28 103 31 41 1 47 -2 47 -19z"/>
<path d="M210 510 c-14 -4 -43 -8 -65 -9 l-40 -1 2 -172 c2 -112 7 -176 14
-182 8 -8 13 -7 16 2 3 7 23 12 53 12 40 0 50 -4 55 -20 8 -25 31 -26 44 -2 5
10 10 86 10 169 1 84 4 158 7 166 6 17 -32 48 -56 46 -8 -1 -26 -5 -40 -9z
m38 -71 c3 -35 1 -37 -33 -43 -20 -4 -42 -9 -50 -12 -10 -4 -12 4 -8 38 7 50
17 59 58 56 27 -3 30 -7 33 -39z m2 -104 c0 -20 -7 -26 -40 -35 -47 -13 -60
-7 -60 24 0 31 7 36 57 36 39 0 43 -2 43 -25z m2 -82 c2 -10 2 -29 -2 -43 -4
-22 -11 -25 -57 -28 -52 -4 -52 -4 -49 25 2 15 4 33 5 40 1 13 22 20 67 22 23
1 33 -4 36 -16z"/>
<path d="M380 151 c0 -5 -16 -26 -35 -47 -19 -20 -33 -39 -31 -42 6 -5 44 15
84 45 26 20 31 28 21 39 -13 15 -39 19 -39 5z"/>
<path d="M630 152 c0 -12 94 -92 104 -89 22 7 17 44 -7 60 -26 17 -97 39 -97
29z"/>
</g>
</svg>
