<?xml version="1.0" standalone="no"?>
<!DOCTYPE svg PUBLIC "-//W3C//DTD SVG 20010904//EN"
 "http://www.w3.org/TR/2001/REC-SVG-20010904/DTD/svg10.dtd">
<svg version="1.0" xmlns="http://www.w3.org/2000/svg"
 width="96.000000pt" height="68.000000pt" viewBox="0 0 96.000000 68.000000"
 preserveAspectRatio="xMidYMid meet">
<metadata>
Created by potrace 1.16, written by Peter Selinger 2001-2019
</metadata>
<g transform="translate(0.000000,68.000000) scale(0.100000,-0.100000)"
fill="#000000" stroke="none">
<path d="M375 558 c-93 -11 -172 -22 -174 -24 -3 -2 1 -10 8 -17 8 -8 40 -11
92 -10 58 1 79 -2 79 -11 0 -38 -65 -188 -102 -235 -23 -30 -15 -41 12 -16 16
15 21 15 33 3 23 -23 95 -51 113 -44 16 6 16 8 2 22 -9 9 -37 20 -64 25 -57
11 -58 12 -45 37 16 30 39 34 81 12 41 -21 80 -26 80 -11 0 17 -28 31 -74 37
-51 7 -54 12 -28 42 18 21 132 49 151 38 23 -15 4 -117 -42 -217 l-20 -46
-170 -11 c-93 -6 -171 -13 -175 -16 -12 -13 12 -21 61 -20 131 2 621 25 626
29 2 3 0 10 -7 17 -16 16 -96 21 -187 10 -44 -5 -84 -6 -88 -2 -4 3 6 40 23
81 17 41 36 88 42 104 6 17 15 34 19 40 18 19 8 43 -22 55 -25 11 -43 10 -102
-3 -40 -8 -76 -12 -80 -7 -5 4 -1 20 9 35 14 21 15 31 7 45 -10 16 -5 18 55
24 37 3 96 6 132 6 78 0 105 13 76 35 -26 20 -106 18 -321 -7z"/>
</g>
</svg>
