<?xml version="1.0" standalone="no"?>
<!DOCTYPE svg PUBLIC "-//W3C//DTD SVG 20010904//EN"
 "http://www.w3.org/TR/2001/REC-SVG-20010904/DTD/svg10.dtd">
<svg version="1.0" xmlns="http://www.w3.org/2000/svg"
 width="90.000000pt" height="92.000000pt" viewBox="0 0 90.000000 92.000000"
 preserveAspectRatio="xMidYMid meet">
<metadata>
Created by potrace 1.16, written by Peter Selinger 2001-2019
</metadata>
<g transform="translate(0.000000,92.000000) scale(0.100000,-0.100000)"
fill="#000000" stroke="none">
<path d="M540 858 c0 -57 -9 -68 -59 -75 -22 -3 -41 -9 -41 -13 0 -11 26 -20
55 -20 22 0 23 -2 13 -31 -16 -45 -3 -46 27 -1 28 43 52 52 136 52 57 0 70 14
31 34 -21 11 -38 12 -68 6 -56 -13 -56 -13 -38 22 16 31 16 32 -6 50 -37 30
-50 23 -50 -24z"/>
<path d="M248 864 c-4 -3 2 -24 12 -47 l19 -42 -47 -8 c-26 -4 -59 -5 -74 -2
-35 6 -35 -5 -3 -35 23 -21 29 -23 58 -13 76 26 74 26 87 -12 15 -46 30 -45
30 4 0 36 3 40 35 51 48 16 45 34 -4 25 l-38 -6 -7 39 c-4 30 -11 41 -28 46
-29 7 -33 7 -40 0z"/>
<path d="M390 699 c0 -6 9 -26 20 -44 l20 -32 -108 -13 c-127 -15 -145 -22
-105 -39 23 -9 48 -9 123 4 52 8 145 18 207 22 125 7 149 15 118 39 -20 16
-90 15 -172 -2 -30 -6 -33 -4 -33 19 0 27 -13 41 -47 51 -15 5 -23 3 -23 -5z"/>
<path d="M465 545 c-33 -8 -88 -17 -123 -21 -57 -6 -62 -8 -48 -23 8 -9 18
-32 23 -51 l9 -35 55 3 c94 4 168 14 166 20 -1 4 9 25 22 46 l24 39 -22 18
c-26 22 -25 22 -106 4z m51 -51 c-3 -15 -7 -28 -8 -30 -2 -1 -38 -6 -79 -10
-74 -6 -76 -6 -82 17 -3 13 -5 24 -3 26 4 5 109 21 144 22 30 1 32 -1 28 -25z"/>
<path d="M689 405 c-3 -2 -118 -16 -256 -30 -186 -19 -258 -23 -278 -15 -15 6
-30 8 -33 6 -2 -3 3 -26 12 -52 10 -29 16 -81 16 -134 0 -61 4 -92 15 -106 28
-36 36 1 29 127 l-6 116 77 12 c110 16 408 36 428 28 30 -11 19 -212 -13 -232
-5 -3 -26 -2 -45 4 -19 5 -35 7 -35 4 0 -8 60 -92 71 -98 13 -8 55 19 69 44 5
11 14 63 20 118 6 54 15 112 21 128 9 27 7 33 -23 58 -29 25 -58 34 -69 22z"/>
<path d="M460 294 c-36 -7 -91 -14 -123 -15 -52 -1 -57 -2 -45 -16 7 -9 20
-41 29 -72 10 -39 19 -55 30 -53 7 2 56 6 107 9 64 4 92 10 89 17 -3 7 8 31
24 54 16 24 29 47 29 52 0 10 -53 41 -67 39 -4 -1 -37 -8 -73 -15z m60 -59 c0
-42 -13 -49 -106 -58 l-62 -6 -5 37 c-2 20 -3 38 -2 39 1 3 124 19 158 22 13
1 17 -7 17 -34z"/>
</g>
</svg>
