<?xml version="1.0" standalone="no"?>
<!DOCTYPE svg PUBLIC "-//W3C//DTD SVG 20010904//EN"
 "http://www.w3.org/TR/2001/REC-SVG-20010904/DTD/svg10.dtd">
<svg version="1.0" xmlns="http://www.w3.org/2000/svg"
 width="96.000000pt" height="68.000000pt" viewBox="0 0 96.000000 68.000000"
 preserveAspectRatio="xMidYMid meet">
<metadata>
Created by potrace 1.16, written by Peter Selinger 2001-2019
</metadata>
<g transform="translate(0.000000,68.000000) scale(0.100000,-0.100000)"
fill="#000000" stroke="none">
<path d="M545 473 c-60 -8 -112 -17 -114 -19 -14 -14 20 -15 106 -3 54 8 108
13 120 11 19 -3 20 -6 11 -33 -5 -16 -11 -29 -11 -29 -1 0 -40 -7 -87 -15 -47
-8 -104 -15 -127 -15 -41 0 -42 -1 -32 -24 9 -19 8 -31 -4 -56 -9 -17 -13 -38
-10 -46 6 -17 2 -17 52 1 44 15 167 34 244 37 62 2 73 -9 57 -57 -12 -36 -14
-37 -51 -32 l-39 5 34 -35 c40 -42 59 -39 81 12 8 19 22 52 31 72 15 35 14 38
-2 50 -10 7 -29 13 -43 13 -27 0 -183 -16 -263 -26 -46 -6 -48 -5 -48 17 0 13
4 29 8 36 4 7 59 18 127 26 100 11 120 16 117 29 -1 9 12 27 29 41 l31 24 -23
17 c-27 19 -46 19 -194 -1z"/>
</g>
</svg>
