<?xml version="1.0" standalone="no"?>
<!DOCTYPE svg PUBLIC "-//W3C//DTD SVG 20010904//EN"
 "http://www.w3.org/TR/2001/REC-SVG-20010904/DTD/svg10.dtd">
<svg version="1.0" xmlns="http://www.w3.org/2000/svg"
 width="96.000000pt" height="68.000000pt" viewBox="0 0 96.000000 68.000000"
 preserveAspectRatio="xMidYMid meet">
<metadata>
Created by potrace 1.16, written by Peter Selinger 2001-2019
</metadata>
<g transform="translate(0.000000,68.000000) scale(0.100000,-0.100000)"
fill="#000000" stroke="none">
<path d="M180 424 c-25 -8 -58 -12 -74 -8 -28 6 -28 6 -12 -17 9 -13 19 -45
22 -71 6 -47 24 -74 32 -50 2 7 14 12 27 12 53 0 83 12 78 30 -3 10 3 35 12
55 26 54 -7 73 -85 49z m36 -56 c-7 -44 -19 -58 -47 -58 -20 0 -29 20 -29 60
0 29 10 35 64 39 16 1 18 -4 12 -41z"/>
</g>
</svg>
