<?xml version="1.0" standalone="no"?>
<!DOCTYPE svg PUBLIC "-//W3C//DTD SVG 20010904//EN"
 "http://www.w3.org/TR/2001/REC-SVG-20010904/DTD/svg10.dtd">
<svg version="1.0" xmlns="http://www.w3.org/2000/svg"
 width="96.000000pt" height="68.000000pt" viewBox="0 0 96.000000 68.000000"
 preserveAspectRatio="xMidYMid meet">
<metadata>
Created by potrace 1.16, written by Peter Selinger 2001-2019
</metadata>
<g transform="translate(0.000000,68.000000) scale(0.100000,-0.100000)"
fill="#000000" stroke="none">
<path d="M540 581 c0 -38 -1 -39 -42 -45 -36 -6 -40 -9 -25 -17 9 -6 26 -7 37
-4 17 5 18 3 10 -27 l-10 -33 36 38 c33 35 39 37 95 37 59 0 78 13 38 25 -11
4 -36 4 -56 0 -32 -6 -34 -5 -28 15 8 25 -10 50 -36 50 -15 0 -19 -8 -19 -39z"/>
<path d="M304 568 c9 -12 16 -26 16 -30 0 -5 -29 -8 -65 -8 -68 0 -80 -8 -42
-29 17 -9 34 -9 71 -1 48 11 65 5 66 -22 0 -5 5 -8 11 -8 6 0 8 9 4 20 -5 17
0 23 27 33 l33 12 -35 5 c-27 4 -36 10 -38 28 -3 17 -10 22 -33 22 -29 0 -30
-1 -15 -22z"/>
</g>
</svg>
