<?xml version="1.0" standalone="no"?>
<!DOCTYPE svg PUBLIC "-//W3C//DTD SVG 20010904//EN"
 "http://www.w3.org/TR/2001/REC-SVG-20010904/DTD/svg10.dtd">
<svg version="1.0" xmlns="http://www.w3.org/2000/svg"
 width="96.000000pt" height="68.000000pt" viewBox="0 0 96.000000 68.000000"
 preserveAspectRatio="xMidYMid meet">
<metadata>
Created by potrace 1.16, written by Peter Selinger 2001-2019
</metadata>
<g transform="translate(0.000000,68.000000) scale(0.100000,-0.100000)"
fill="#000000" stroke="none">
<path d="M670 147 c0 -45 -18 -66 -62 -71 -35 -4 -38 -2 -38 19 0 23 -34 65
-52 65 -11 0 -10 -5 7 -47 8 -20 14 -38 12 -40 -2 -2 -37 -7 -78 -11 -71 -8
-73 -9 -46 -22 22 -11 37 -11 80 -1 28 7 121 15 206 18 136 5 152 8 135 20
-13 10 -38 13 -81 11 -35 -2 -63 -1 -63 2 0 3 9 16 20 30 26 33 25 46 -2 54
-36 9 -38 8 -38 -27z"/>
</g>
</svg>
