<?xml version="1.0" standalone="no"?>
<!DOCTYPE svg PUBLIC "-//W3C//DTD SVG 20010904//EN"
 "http://www.w3.org/TR/2001/REC-SVG-20010904/DTD/svg10.dtd">
<svg version="1.0" xmlns="http://www.w3.org/2000/svg"
 width="96.000000pt" height="68.000000pt" viewBox="0 0 96.000000 68.000000"
 preserveAspectRatio="xMidYMid meet">
<metadata>
Created by potrace 1.16, written by Peter Selinger 2001-2019
</metadata>
<g transform="translate(0.000000,68.000000) scale(0.100000,-0.100000)"
fill="#000000" stroke="none">
<path d="M555 410 c-27 -5 -75 -9 -105 -10 -30 -1 -49 -4 -42 -7 8 -3 22 -25
32 -48 18 -43 19 -43 57 -35 21 5 69 12 106 15 37 4 65 10 62 13 -3 3 5 16 17
30 23 23 23 24 4 38 -21 15 -52 16 -131 4z m75 -34 c0 -20 -6 -25 -37 -30 -81
-12 -114 -11 -123 4 -15 24 -12 30 18 31 15 0 36 4 47 9 11 5 37 9 58 9 33 1
37 -2 37 -23z"/>
</g>
</svg>
