<?xml version="1.0" standalone="no"?>
<!DOCTYPE svg PUBLIC "-//W3C//DTD SVG 20010904//EN"
 "http://www.w3.org/TR/2001/REC-SVG-20010904/DTD/svg10.dtd">
<svg version="1.0" xmlns="http://www.w3.org/2000/svg"
 width="96.000000pt" height="68.000000pt" viewBox="0 0 96.000000 68.000000"
 preserveAspectRatio="xMidYMid meet">
<metadata>
Created by potrace 1.16, written by Peter Selinger 2001-2019
</metadata>
<g transform="translate(0.000000,68.000000) scale(0.100000,-0.100000)"
fill="#000000" stroke="none">
<path d="M169 483 c24 -47 101 -72 101 -33 0 23 -21 35 -74 45 -36 7 -37 6
-27 -12z"/>
<path d="M227 354 c-3 -4 -30 -15 -59 -25 l-53 -18 58 0 c60 -1 66 -5 43 -36
-13 -18 -11 -23 16 -53 20 -23 28 -42 26 -60 -3 -26 -5 -27 -75 -30 -75 -3
-86 -9 -55 -28 12 -8 34 -8 72 -2 51 10 68 7 239 -42 202 -57 208 -58 331 -19
l75 24 -65 2 c-218 9 -522 55 -500 77 21 21 11 65 -21 88 l-30 23 43 37 c41
37 42 39 24 53 -20 15 -58 20 -69 9z"/>
</g>
</svg>
