<?xml version="1.0" standalone="no"?>
<!DOCTYPE svg PUBLIC "-//W3C//DTD SVG 20010904//EN"
 "http://www.w3.org/TR/2001/REC-SVG-20010904/DTD/svg10.dtd">
<svg version="1.0" xmlns="http://www.w3.org/2000/svg"
 width="96.000000pt" height="68.000000pt" viewBox="0 0 96.000000 68.000000"
 preserveAspectRatio="xMidYMid meet">
<metadata>
Created by potrace 1.16, written by Peter Selinger 2001-2019
</metadata>
<g transform="translate(0.000000,68.000000) scale(0.100000,-0.100000)"
fill="#000000" stroke="none">
<path d="M450 545 c-25 -13 -74 -31 -110 -40 -92 -25 -100 -39 -18 -32 l67 6
6 -33 c14 -71 7 -80 -65 -88 -127 -15 -150 -19 -145 -29 8 -11 108 -11 158 0
52 12 57 -6 18 -67 -39 -62 -100 -114 -184 -157 -57 -30 -27 -30 44 0 104 44
162 95 206 179 13 26 17 28 27 14 31 -43 86 -108 129 -155 55 -58 89 -69 181
-58 58 8 65 18 19 30 -40 10 -132 54 -180 87 -55 37 -144 128 -137 139 3 5 26
9 52 9 74 0 182 12 182 20 0 4 -13 13 -28 19 -22 9 -49 9 -120 -2 l-92 -13 0
52 c0 33 -5 54 -12 57 -7 2 22 10 65 17 77 13 92 25 63 49 -26 22 -79 20 -126
-4z"/>
</g>
</svg>
