<?xml version="1.0" standalone="no"?>
<!DOCTYPE svg PUBLIC "-//W3C//DTD SVG 20010904//EN"
 "http://www.w3.org/TR/2001/REC-SVG-20010904/DTD/svg10.dtd">
<svg version="1.0" xmlns="http://www.w3.org/2000/svg"
 width="96.000000pt" height="68.000000pt" viewBox="0 0 96.000000 68.000000"
 preserveAspectRatio="xMidYMid meet">
<metadata>
Created by potrace 1.16, written by Peter Selinger 2001-2019
</metadata>
<g transform="translate(0.000000,68.000000) scale(0.100000,-0.100000)"
fill="#000000" stroke="none">
<path d="M291 554 c-15 -57 -71 -142 -150 -225 -33 -35 -59 -65 -57 -67 7 -7
71 31 117 70 52 43 84 49 92 16 8 -28 8 -28 -49 -36 -70 -10 -70 -32 0 -32
l56 0 0 -54 c0 -63 1 -62 -105 -72 -41 -4 -75 -10 -75 -15 0 -16 32 -39 53
-39 40 1 282 75 277 85 -6 12 -33 12 -72 2 -28 -7 -28 -7 -28 47 l0 54 47 8
c66 13 69 34 5 34 -46 0 -50 2 -48 24 1 20 8 25 39 30 24 4 37 11 34 19 -5 17
-54 21 -104 6 -24 -6 -46 -10 -48 -7 -2 2 13 30 34 61 l37 57 35 -25 c39 -30
74 -30 74 0 0 15 -11 23 -48 34 -29 9 -46 19 -43 27 6 15 -25 44 -46 44 -10 0
-20 -16 -27 -46z"/>
<path d="M623 435 c-1 -120 2 -155 12 -155 26 0 33 29 37 162 4 112 2 138 -10
143 -35 13 -37 7 -39 -150z"/>
<path d="M751 434 c58 -69 74 -84 91 -84 12 0 18 7 18 24 0 27 -43 59 -95 72
-29 7 -29 6 -14 -12z"/>
<path d="M500 390 c-13 -27 -27 -50 -32 -50 -4 0 -8 -5 -8 -10 0 -18 58 19 84
53 32 42 33 57 3 57 -18 0 -29 -11 -47 -50z"/>
<path d="M732 328 c-7 -7 -12 -20 -12 -31 0 -41 -175 -193 -288 -251 -47 -24
-34 -30 19 -9 43 16 150 76 177 97 42 34 162 157 162 167 0 11 -28 38 -40 39
-4 0 -11 -5 -18 -12z"/>
<path d="M390 248 c-19 -32 -25 -48 -16 -48 4 0 74 39 85 47 8 5 -22 33 -35
33 -8 0 -23 -15 -34 -32z"/>
<path d="M180 246 c0 -20 46 -76 61 -76 27 0 25 45 -3 64 -21 15 -58 22 -58
12z"/>
</g>
</svg>
