<?xml version="1.0" standalone="no"?>
<!DOCTYPE svg PUBLIC "-//W3C//DTD SVG 20010904//EN"
 "http://www.w3.org/TR/2001/REC-SVG-20010904/DTD/svg10.dtd">
<svg version="1.0" xmlns="http://www.w3.org/2000/svg"
 width="90.000000pt" height="92.000000pt" viewBox="0 0 90.000000 92.000000"
 preserveAspectRatio="xMidYMid meet">
<metadata>
Created by potrace 1.16, written by Peter Selinger 2001-2019
</metadata>
<g transform="translate(0.000000,92.000000) scale(0.100000,-0.100000)"
fill="#000000" stroke="none">
<path d="M496 888 c-3 -7 -12 -39 -21 -71 -9 -32 -21 -60 -28 -62 -7 -2 -51
-9 -99 -15 -49 -7 -88 -16 -88 -20 0 -20 61 -32 113 -22 28 6 54 9 56 7 5 -6
-38 -66 -77 -107 -34 -36 -35 -38 -18 -62 18 -29 28 -31 58 -15 11 6 73 24
137 39 l116 29 26 -24 c35 -34 49 -32 49 8 0 44 -39 77 -119 102 l-24 7 23
-31 c12 -18 21 -34 19 -35 -6 -5 -189 -46 -205 -46 -22 0 -17 13 27 84 40 64
41 65 94 71 30 4 98 10 151 14 55 3 99 11 101 17 2 6 -12 19 -30 29 -32 17
-38 17 -123 1 -119 -22 -119 -22 -95 13 26 36 26 53 4 73 -30 25 -43 30 -47
16z"/>
<path d="M165 643 c-22 -8 -64 -15 -92 -15 -29 -1 -53 -3 -53 -5 0 -2 7 -14
14 -26 8 -12 20 -64 27 -114 12 -93 31 -134 44 -95 5 16 18 21 73 27 l67 7 1
46 c1 26 11 73 22 104 l20 58 -21 15 c-26 18 -50 18 -102 -2z m39 -105 c-4
-40 -8 -75 -10 -76 -4 -5 -86 -23 -89 -20 -2 2 -5 36 -7 77 -3 72 -2 75 22 82
14 4 40 7 58 8 l32 1 -6 -72z"/>
<path d="M560 499 c-71 -21 -152 -27 -189 -14 -22 7 -23 6 -16 -11 14 -31 18
-209 6 -265 -6 -29 -22 -74 -36 -100 -27 -54 -21 -61 18 -25 31 29 53 71 62
119 6 33 25 53 25 27 0 -6 11 -15 24 -21 21 -10 33 -6 88 26 35 21 71 45 81
53 16 14 17 11 17 -59 0 -94 -6 -104 -56 -94 l-38 7 44 -50 c25 -28 50 -50 55
-51 6 -1 17 9 25 22 12 17 15 58 16 182 0 88 4 178 8 200 6 37 5 41 -23 58
-34 20 -28 20 -111 -4z m72 -41 c3 -7 6 -43 7 -80 l2 -67 -68 -21 c-37 -12
-87 -24 -110 -27 l-43 -6 0 67 c0 36 3 66 6 66 3 0 32 -16 65 -36 61 -38 89
-39 89 -5 0 26 -20 36 -94 50 -33 6 -62 13 -64 16 -12 11 19 28 75 40 77 17
130 18 135 3z"/>
</g>
</svg>
