<?xml version="1.0" standalone="no"?>
<!DOCTYPE svg PUBLIC "-//W3C//DTD SVG 20010904//EN"
 "http://www.w3.org/TR/2001/REC-SVG-20010904/DTD/svg10.dtd">
<svg version="1.0" xmlns="http://www.w3.org/2000/svg"
 width="96.000000pt" height="68.000000pt" viewBox="0 0 96.000000 68.000000"
 preserveAspectRatio="xMidYMid meet">
<metadata>
Created by potrace 1.16, written by Peter Selinger 2001-2019
</metadata>
<g transform="translate(0.000000,68.000000) scale(0.100000,-0.100000)"
fill="#000000" stroke="none">
<path d="M437 412 c5 -39 5 -39 -33 -45 -22 -4 -63 -7 -92 -7 -33 0 -51 -4
-47 -10 3 -5 44 -10 91 -10 l84 0 0 -34 c0 -32 -1 -34 -47 -39 -27 -4 -99 -9
-160 -13 -62 -4 -113 -11 -113 -15 0 -16 73 -21 140 -10 38 6 94 11 124 11
l56 0 0 -109 c0 -172 36 -152 47 25 l6 92 163 7 c90 4 164 11 164 15 0 21 -70
31 -145 21 -42 -6 -101 -11 -131 -11 l-54 0 0 34 0 34 93 8 c119 11 117 30 -2
26 l-89 -2 2 32 c1 30 -2 33 -31 36 -31 3 -31 3 -26 -36z"/>
</g>
</svg>
