<?xml version="1.0" standalone="no"?>
<!DOCTYPE svg PUBLIC "-//W3C//DTD SVG 20010904//EN"
 "http://www.w3.org/TR/2001/REC-SVG-20010904/DTD/svg10.dtd">
<svg version="1.0" xmlns="http://www.w3.org/2000/svg"
 width="96.000000pt" height="68.000000pt" viewBox="0 0 96.000000 68.000000"
 preserveAspectRatio="xMidYMid meet">
<metadata>
Created by potrace 1.16, written by Peter Selinger 2001-2019
</metadata>
<g transform="translate(0.000000,68.000000) scale(0.100000,-0.100000)"
fill="#000000" stroke="none">
<path d="M585 503 c19 -46 18 -53 -6 -53 -13 0 -31 -5 -39 -10 -12 -8 -11 -10
8 -10 31 0 28 -7 -20 -52 -37 -34 -39 -38 -18 -33 14 4 34 15 45 25 42 36 47
35 43 -11 -2 -35 0 -44 15 -47 14 -3 17 4 17 43 l0 47 35 -30 c40 -36 86 -47
135 -35 l34 9 -49 13 c-56 16 -145 60 -145 73 0 4 12 8 28 8 39 0 72 11 72 23
0 6 -20 7 -56 3 -52 -6 -55 -5 -49 13 4 14 0 23 -14 30 -30 16 -44 14 -36 -6z"/>
</g>
</svg>
