<?xml version="1.0" standalone="no"?>
<!DOCTYPE svg PUBLIC "-//W3C//DTD SVG 20010904//EN"
 "http://www.w3.org/TR/2001/REC-SVG-20010904/DTD/svg10.dtd">
<svg version="1.0" xmlns="http://www.w3.org/2000/svg"
 width="96.000000pt" height="68.000000pt" viewBox="0 0 96.000000 68.000000"
 preserveAspectRatio="xMidYMid meet">
<metadata>
Created by potrace 1.16, written by Peter Selinger 2001-2019
</metadata>
<g transform="translate(0.000000,68.000000) scale(0.100000,-0.100000)"
fill="#000000" stroke="none">
<path d="M636 329 c-29 -31 -29 -31 -101 -13 -11 3 16 -15 60 -40 89 -51 105
-55 105 -27 0 12 -13 24 -37 34 l-38 15 28 11 c16 6 35 11 43 11 23 0 12 35
-11 37 -11 2 -32 -11 -49 -28z"/>
<path d="M364 265 c-1 -51 2 -65 14 -65 16 0 115 70 109 76 -2 2 -20 -3 -41
-11 -41 -17 -49 -10 -44 35 2 18 -2 26 -17 28 -18 2 -20 -3 -21 -63z"/>
</g>
</svg>
