<?xml version="1.0" standalone="no"?>
<!DOCTYPE svg PUBLIC "-//W3C//DTD SVG 20010904//EN"
 "http://www.w3.org/TR/2001/REC-SVG-20010904/DTD/svg10.dtd">
<svg version="1.0" xmlns="http://www.w3.org/2000/svg"
 width="90.000000pt" height="92.000000pt" viewBox="0 0 90.000000 92.000000"
 preserveAspectRatio="xMidYMid meet">
<metadata>
Created by potrace 1.16, written by Peter Selinger 2001-2019
</metadata>
<g transform="translate(0.000000,92.000000) scale(0.100000,-0.100000)"
fill="#000000" stroke="none">
<path d="M540 868 c0 -64 -8 -75 -58 -83 -44 -6 -45 -8 -27 -22 11 -8 30 -12
43 -10 25 5 25 6 12 -27 -14 -37 3 -32 34 9 26 33 30 35 89 35 75 0 102 13 73
35 -23 17 -36 18 -88 6 -31 -7 -36 -6 -31 8 4 9 11 22 16 29 12 16 -18 52 -45
52 -14 0 -18 -8 -18 -32z"/>
<path d="M247 864 c-3 -4 2 -23 13 -44 11 -21 16 -40 13 -44 -4 -3 -37 -6 -75
-6 -75 0 -82 -9 -37 -42 22 -16 28 -16 64 -3 58 20 63 19 82 -22 l17 -38 4 46
c3 45 5 47 38 53 48 10 44 30 -5 23 -38 -5 -39 -4 -45 33 -4 28 -12 39 -28 44
-29 7 -33 7 -41 0z"/>
<path d="M440 684 c0 -4 9 -21 20 -40 24 -38 24 -38 -75 -50 -59 -7 -60 -6
-42 13 24 27 22 32 -18 49 -45 18 -45 18 -45 -9 0 -32 -46 -96 -139 -191 -65
-66 -71 -76 -41 -61 19 10 63 40 98 67 l62 50 0 -72 c0 -39 -5 -91 -11 -115
-8 -32 -8 -53 1 -79 14 -43 25 -46 37 -10 10 30 -9 28 281 39 100 5 182 12
182 16 0 12 -45 40 -67 41 -10 0 -53 -3 -95 -7 l-78 -8 0 31 c0 30 1 31 58 37
92 10 107 14 93 28 -8 7 -39 11 -82 10 l-69 -2 0 28 c0 28 2 29 68 35 37 4 73
11 81 15 24 15 -48 31 -96 22 l-43 -8 0 33 0 32 90 8 c60 4 90 10 87 18 -7 22
-55 30 -117 20 -58 -10 -60 -9 -60 12 0 13 -10 30 -22 38 -22 16 -58 22 -58
10z m28 -146 l-3 -33 -74 -9 c-71 -8 -75 -7 -92 15 -10 13 -17 28 -16 32 1 5
29 10 61 12 32 2 60 6 64 9 3 3 18 6 34 6 27 0 29 -3 26 -32z m2 -97 c0 -29
-1 -30 -67 -36 -38 -3 -78 -8 -90 -10 -16 -4 -20 -1 -18 13 2 9 4 25 4 34 1
14 13 18 64 21 34 2 72 4 85 5 18 2 22 -3 22 -27z m0 -100 c0 -29 -2 -31 -39
-31 -21 0 -59 -3 -85 -6 l-46 -7 0 34 0 34 85 3 85 4 0 -31z"/>
<path d="M681 136 c55 -82 73 -101 89 -91 16 10 11 68 -8 92 -23 29 -91 73
-112 73 -14 0 -8 -15 31 -74z"/>
<path d="M160 159 c-46 -75 -48 -81 -43 -100 17 -62 101 40 89 106 -4 19 -10
35 -14 35 -4 0 -18 -19 -32 -41z"/>
<path d="M316 168 c19 -61 45 -108 59 -108 8 0 16 5 16 10 1 6 2 16 3 23 4 27
-16 64 -43 80 -38 22 -44 21 -35 -5z"/>
<path d="M471 178 c2 -27 55 -113 69 -113 17 0 25 35 16 71 -9 34 -87 72 -85
42z"/>
</g>
</svg>
