<?xml version="1.0" standalone="no"?>
<!DOCTYPE svg PUBLIC "-//W3C//DTD SVG 20010904//EN"
 "http://www.w3.org/TR/2001/REC-SVG-20010904/DTD/svg10.dtd">
<svg version="1.0" xmlns="http://www.w3.org/2000/svg"
 width="96.000000pt" height="68.000000pt" viewBox="0 0 96.000000 68.000000"
 preserveAspectRatio="xMidYMid meet">
<metadata>
Created by potrace 1.16, written by Peter Selinger 2001-2019
</metadata>
<g transform="translate(0.000000,68.000000) scale(0.100000,-0.100000)"
fill="#000000" stroke="none">
<path d="M695 65 c47 -55 69 -66 78 -42 9 25 -14 58 -55 77 -68 31 -73 24 -23
-35z"/>
<path d="M218 71 c-32 -45 -34 -56 -13 -65 28 -10 78 66 60 93 -10 18 -19 13
-47 -28z"/>
<path d="M370 101 c0 -22 34 -81 47 -81 14 0 18 38 5 56 -11 17 -52 36 -52 25z"/>
<path d="M514 84 c37 -69 66 -84 66 -35 0 33 -13 46 -53 57 l-29 7 16 -29z"/>
</g>
</svg>
