<?xml version="1.0" standalone="no"?>
<!DOCTYPE svg PUBLIC "-//W3C//DTD SVG 20010904//EN"
 "http://www.w3.org/TR/2001/REC-SVG-20010904/DTD/svg10.dtd">
<svg version="1.0" xmlns="http://www.w3.org/2000/svg"
 width="96.000000pt" height="68.000000pt" viewBox="0 0 96.000000 68.000000"
 preserveAspectRatio="xMidYMid meet">
<metadata>
Created by potrace 1.16, written by Peter Selinger 2001-2019
</metadata>
<g transform="translate(0.000000,68.000000) scale(0.100000,-0.100000)"
fill="#000000" stroke="none">
<path d="M465 209 c-16 -5 -58 -9 -92 -10 -59 -1 -61 -2 -54 -23 5 -11 6 -51
4 -89 -5 -69 3 -83 32 -54 8 8 41 14 84 15 61 2 72 0 81 -18 13 -25 29 -26 46
-2 17 22 19 163 2 180 -14 14 -60 14 -103 1z m75 -45 c0 -21 -5 -24 -34 -24
-18 0 -60 -3 -93 -6 l-61 -7 5 26 c4 22 12 27 52 32 25 4 53 7 61 8 8 2 27 1
43 -1 21 -3 27 -10 27 -28z m0 -59 c0 -31 -3 -32 -107 -39 -82 -5 -83 -5 -83
18 0 23 4 25 78 31 42 4 82 8 87 10 21 7 25 4 25 -20z"/>
</g>
</svg>
