<?xml version="1.0" standalone="no"?>
<!DOCTYPE svg PUBLIC "-//W3C//DTD SVG 20010904//EN"
 "http://www.w3.org/TR/2001/REC-SVG-20010904/DTD/svg10.dtd">
<svg version="1.0" xmlns="http://www.w3.org/2000/svg"
 width="96.000000pt" height="68.000000pt" viewBox="0 0 96.000000 68.000000"
 preserveAspectRatio="xMidYMid meet">
<metadata>
Created by potrace 1.16, written by Peter Selinger 2001-2019
</metadata>
<g transform="translate(0.000000,68.000000) scale(0.100000,-0.100000)"
fill="#000000" stroke="none">
<path d="M400 590 c0 -12 -12 -37 -27 -57 -29 -38 -167 -145 -220 -171 -34
-16 -43 -32 -19 -32 21 0 168 76 201 105 17 14 49 44 72 67 l43 40 36 -27 c19
-15 54 -44 76 -66 23 -21 44 -39 48 -39 4 0 17 -11 30 -25 18 -20 33 -25 69
-25 57 0 121 10 121 19 0 4 -26 15 -57 25 -127 40 -284 131 -307 177 -16 33
-66 39 -66 9z"/>
<path d="M445 438 c-16 -5 -45 -9 -63 -9 -21 0 -30 -4 -26 -10 4 -7 31 -8 78
-4 85 8 108 14 101 25 -7 11 -50 10 -90 -2z"/>
<path d="M565 384 c-19 -7 -250 -31 -291 -30 -40 2 -41 1 -29 -19 8 -11 19
-39 25 -63 11 -43 12 -43 48 -38 20 3 93 8 161 10 l123 5 24 50 c13 28 21 58
18 65 -8 20 -45 27 -63 13 -12 -9 -13 -9 -7 1 8 13 7 13 -9 6z m25 -38 c0 -7
-3 -26 -6 -42 -5 -28 -8 -29 -68 -32 l-62 -2 2 27 c3 49 4 51 22 56 9 3 38 5
65 6 34 1 47 -3 47 -13z m-170 -41 l0 -45 -55 0 c-59 0 -57 -2 -69 67 0 5 19
11 44 14 85 11 80 13 80 -36z"/>
<path d="M506 319 c-8 -13 -13 -25 -11 -28 8 -8 56 22 52 33 -6 19 -25 17 -41
-5z"/>
<path d="M342 300 c13 -20 38 -28 38 -12 0 12 -23 32 -37 32 -11 0 -11 -4 -1
-20z"/>
<path d="M455 210 c-16 -4 -54 -8 -82 -9 l-53 -1 0 -90 c0 -81 8 -107 24 -81
4 5 41 13 83 16 72 7 77 6 94 -16 17 -23 18 -23 38 -5 18 16 21 31 21 101 0
66 -3 84 -16 89 -20 8 -70 6 -109 -4z m85 -45 c0 -23 -4 -25 -44 -25 -24 0
-64 -3 -90 -6 -44 -6 -46 -6 -46 19 0 30 12 34 113 36 65 1 67 0 67 -24z m-2
-67 c-3 -21 -10 -24 -88 -29 -47 -4 -88 -5 -92 -2 -5 2 -8 13 -8 23 0 20 22
25 133 28 55 2 58 1 55 -20z"/>
</g>
</svg>
