<?xml version="1.0" standalone="no"?>
<!DOCTYPE svg PUBLIC "-//W3C//DTD SVG 20010904//EN"
 "http://www.w3.org/TR/2001/REC-SVG-20010904/DTD/svg10.dtd">
<svg version="1.0" xmlns="http://www.w3.org/2000/svg"
 width="96.000000pt" height="68.000000pt" viewBox="0 0 96.000000 68.000000"
 preserveAspectRatio="xMidYMid meet">
<metadata>
Created by potrace 1.16, written by Peter Selinger 2001-2019
</metadata>
<g transform="translate(0.000000,68.000000) scale(0.100000,-0.100000)"
fill="#000000" stroke="none">
<path d="M552 501 c-11 -53 -26 -95 -53 -143 -15 -29 -10 -33 14 -10 23 22 90
41 145 42 17 0 32 -1 32 -3 0 -1 -4 -17 -9 -35 -9 -30 0 -44 14 -22 3 5 21 17
40 26 43 20 44 38 4 55 -26 10 -46 10 -102 1 -38 -7 -72 -11 -74 -8 -2 2 11
30 29 63 28 52 31 63 19 77 -27 33 -46 19 -59 -43z"/>
<path d="M240 512 c-52 -10 -95 -21 -95 -27 0 -5 28 -11 63 -13 l62 -3 0 -34
c0 -34 0 -34 -57 -40 -32 -3 -74 -8 -93 -12 -34 -5 -35 -5 -10 -15 23 -9 71
-6 143 8 l28 6 -3 -139 -3 -138 -44 0 c-42 0 -45 2 -53 34 -5 18 -8 35 -6 36
2 2 18 5 37 7 19 2 37 10 39 17 4 11 -5 12 -40 7 -41 -6 -46 -5 -51 15 -8 30
-2 37 44 56 42 16 47 24 26 42 -11 8 -20 4 -40 -19 -27 -30 -36 -34 -69 -31
-10 1 -18 -3 -18 -8 0 -6 4 -11 9 -11 11 0 27 -49 35 -110 10 -68 10 -68 101
-58 44 5 106 7 137 5 35 -3 61 -1 64 5 12 19 52 193 47 201 -14 23 -53 25
-109 6 l-59 -19 50 2 c49 3 50 3 53 -28 3 -30 1 -32 -42 -38 -26 -4 -46 -12
-46 -17 0 -7 15 -8 41 -4 l40 7 -3 -42 -3 -43 -50 0 -50 0 2 128 c2 71 5 130
8 133 3 3 41 7 85 10 108 6 103 27 -6 27 l-79 0 4 30 c4 38 15 45 73 45 52 0
69 13 39 29 -27 15 -87 12 -201 -7z"/>
<path d="M570 292 c0 -75 -28 -144 -81 -194 -50 -49 -47 -63 5 -29 34 23 86
81 86 97 0 6 6 17 14 23 11 9 25 -4 72 -68 l59 -80 58 -1 c31 0 57 4 57 9 0 6
-26 24 -59 41 -52 28 -171 131 -171 149 0 3 4 21 9 39 8 27 7 34 -9 42 -32 17
-40 11 -40 -28z"/>
</g>
</svg>
