<?xml version="1.0" standalone="no"?>
<!DOCTYPE svg PUBLIC "-//W3C//DTD SVG 20010904//EN"
 "http://www.w3.org/TR/2001/REC-SVG-20010904/DTD/svg10.dtd">
<svg version="1.0" xmlns="http://www.w3.org/2000/svg"
 width="90.000000pt" height="92.000000pt" viewBox="0 0 90.000000 92.000000"
 preserveAspectRatio="xMidYMid meet">
<metadata>
Created by potrace 1.16, written by Peter Selinger 2001-2019
</metadata>
<g transform="translate(0.000000,92.000000) scale(0.100000,-0.100000)"
fill="#000000" stroke="none">
<path d="M323 813 c-34 -7 -96 -16 -138 -20 -71 -8 -102 -24 -59 -31 35 -6 44
-32 44 -123 l0 -87 -60 -7 c-63 -7 -74 -17 -39 -35 16 -9 37 -8 87 4 37 9 88
20 115 25 l47 8 0 -33 c0 -19 4 -34 9 -34 11 0 21 25 21 51 0 14 10 20 40 25
48 8 48 28 1 32 l-33 3 3 82 c2 46 0 88 -4 94 -5 7 7 14 33 18 45 8 51 17 18
31 -16 7 -44 6 -85 -3z m-9 -59 c11 -29 7 -42 -13 -37 -10 2 -35 0 -55 -5 -34
-10 -49 -1 -25 13 6 4 8 13 5 20 -5 15 12 22 55 24 16 1 29 -5 33 -15z m6 -84
c0 -14 -6 -19 -22 -18 -13 1 -38 -2 -55 -6 -30 -7 -33 -5 -33 16 0 21 5 23 55
26 49 2 55 0 55 -18z m0 -65 c0 -20 -6 -25 -37 -30 -21 -4 -46 -9 -55 -12 -14
-3 -18 2 -18 26 0 29 2 30 53 34 28 2 53 4 55 5 1 1 2 -9 2 -23z"/>
<path d="M739 806 c-2 -3 -61 -14 -129 -25 -69 -12 -136 -24 -150 -27 -25 -6
-25 -6 -5 -21 14 -10 35 -13 68 -10 42 4 47 2 47 -16 0 -11 -11 -40 -25 -63
-23 -40 -28 -43 -56 -37 -30 6 -31 5 -19 -16 13 -25 15 -103 5 -226 -5 -63 -3
-84 9 -100 13 -19 15 -19 21 -2 9 23 35 22 35 -1 0 -21 -57 -119 -89 -153 -28
-31 -19 -36 21 -11 40 25 148 135 148 151 0 6 -8 15 -17 18 -15 6 -15 7 3 14
10 4 41 8 67 8 39 1 53 -4 68 -21 19 -23 19 -23 34 -4 12 16 15 51 15 160 0
78 3 151 6 163 4 16 -1 26 -21 39 -24 16 -34 16 -98 6 -40 -7 -83 -15 -97 -19
-23 -6 -21 -2 19 45 34 42 41 55 32 66 -12 14 11 19 148 29 45 3 50 22 12 41
-31 16 -44 19 -52 12z m-15 -229 c11 -40 7 -50 -16 -44 -12 3 -49 0 -82 -8
-95 -23 -106 -21 -106 18 l0 34 73 12 c100 18 101 18 114 13 6 -2 14 -13 17
-25z m6 -110 c0 -31 -2 -33 -30 -29 -16 2 -53 -1 -82 -7 -107 -24 -98 -25 -98
14 0 35 0 35 48 36 26 1 61 5 77 9 17 4 42 8 58 9 24 1 27 -2 27 -32z m0 -99
l0 -43 -111 -3 c-100 -3 -111 -1 -105 13 3 9 6 25 6 35 0 12 6 17 18 14 9 -2
51 2 92 10 41 8 81 14 88 15 8 1 12 -14 12 -41z"/>
<path d="M320 472 c-41 -8 -77 -16 -79 -18 -2 -2 4 -10 13 -19 12 -13 16 -37
16 -111 0 -93 0 -94 -27 -100 -24 -6 -25 -8 -9 -20 12 -8 28 -9 49 -4 18 4 45
11 60 14 l29 7 -7 -54 c-7 -55 6 -103 26 -92 5 4 9 37 9 75 l0 69 33 3 c40 4
41 20 2 33 l-30 10 0 93 c0 54 4 92 10 92 6 0 17 5 25 10 13 9 13 11 0 20 -18
12 -24 11 -120 -8z m48 -57 c2 -14 -3 -21 -15 -21 -10 -1 -27 -5 -37 -9 -16
-7 -18 -5 -13 9 4 10 7 24 7 32 0 25 54 14 58 -11z m2 -70 c0 -17 -4 -23 -14
-19 -8 3 -24 1 -35 -6 -19 -9 -21 -8 -21 14 0 19 6 26 28 29 15 2 30 5 35 6 4
0 7 -10 7 -24z m0 -69 c0 -16 -7 -26 -22 -30 -40 -10 -48 -7 -48 22 0 24 4 27
35 29 31 3 35 0 35 -21z"/>
<path d="M90 447 c-36 -5 -67 -12 -69 -14 -3 -2 5 -10 17 -19 20 -14 22 -24
22 -105 l0 -89 -30 0 c-33 0 -40 -19 -15 -40 13 -11 22 -10 53 5 20 10 52 24
70 32 l34 14 -7 -54 c-7 -57 8 -108 26 -90 11 11 17 313 6 329 -4 7 2 14 14
17 12 3 18 10 14 16 -7 13 -44 12 -135 -2z m80 -52 c0 -18 -5 -25 -19 -25 -11
0 -26 -3 -35 -6 -12 -5 -15 1 -13 25 2 28 5 31 35 31 28 0 32 -3 32 -25z m0
-64 c0 -14 -9 -20 -37 -23 -45 -6 -45 -6 -37 15 3 9 18 18 32 20 15 2 30 5 35
6 4 0 7 -8 7 -18z m0 -60 c0 -12 -9 -21 -24 -25 -13 -3 -31 -9 -40 -12 -12 -5
-16 0 -16 22 0 27 3 29 40 31 33 2 40 -1 40 -16z"/>
<path d="M660 231 c0 -6 5 -13 10 -16 6 -3 35 -40 66 -81 63 -86 90 -95 88
-31 -2 46 -30 79 -96 113 -51 26 -68 29 -68 15z"/>
</g>
</svg>
