<?xml version="1.0" standalone="no"?>
<!DOCTYPE svg PUBLIC "-//W3C//DTD SVG 20010904//EN"
 "http://www.w3.org/TR/2001/REC-SVG-20010904/DTD/svg10.dtd">
<svg version="1.0" xmlns="http://www.w3.org/2000/svg"
 width="90.000000pt" height="92.000000pt" viewBox="0 0 90.000000 92.000000"
 preserveAspectRatio="xMidYMid meet">
<metadata>
Created by potrace 1.16, written by Peter Selinger 2001-2019
</metadata>
<g transform="translate(0.000000,92.000000) scale(0.100000,-0.100000)"
fill="#000000" stroke="none">
<path d="M250 794 c0 -18 -50 -114 -59 -114 -3 0 -26 14 -51 30 -69 46 -81 35
-21 -18 l54 -48 -78 -72 c-42 -39 -74 -72 -71 -72 14 0 72 33 119 68 40 28 51
32 58 21 26 -39 -32 -140 -138 -240 -36 -33 -63 -62 -62 -64 2 -2 28 8 56 21
33 16 73 48 108 86 l55 61 0 -54 c-1 -81 -17 -180 -33 -196 -10 -11 -23 -12
-55 -5 l-41 10 46 -54 c39 -45 49 -52 65 -43 11 6 30 32 41 57 19 42 22 64 21
202 0 131 -4 164 -21 212 l-21 56 49 61 c41 50 48 64 40 80 -17 31 -61 42 -61
15z"/>
<path d="M409 803 c0 -5 0 -49 1 -100 1 -101 -9 -133 -43 -133 -35 0 -67 -11
-61 -21 3 -5 25 -9 49 -9 l45 0 -7 -62 c-3 -35 -8 -65 -10 -68 -3 -3 -25 -4
-49 -3 -34 1 -43 -1 -35 -10 5 -7 15 -43 21 -80 12 -65 25 -90 39 -70 3 6 36
14 74 17 60 7 67 10 67 30 0 12 9 39 20 61 26 52 25 60 -9 75 -22 9 -34 9 -51
0 -12 -6 -24 -9 -27 -6 -3 3 -1 31 3 62 9 55 11 58 44 66 63 16 64 16 49 34
-9 11 -22 14 -46 9 l-34 -6 6 38 c10 56 22 106 29 124 5 11 -2 24 -20 38 -27
21 -53 28 -55 14z m61 -427 c0 -7 -3 -27 -6 -44 -5 -26 -12 -31 -55 -39 -44
-9 -49 -8 -49 7 0 10 -3 31 -6 48 -6 28 -4 31 22 35 64 9 94 7 94 -7z"/>
<path d="M690 760 c-48 -13 -72 -15 -93 -7 -15 5 -30 7 -33 4 -3 -2 0 -25 7
-51 7 -30 10 -100 7 -199 -6 -170 -23 -244 -78 -331 -17 -26 -29 -50 -27 -52
2 -3 25 16 50 41 42 44 76 110 92 179 6 27 6 28 26 10 19 -17 21 -16 69 31
l50 49 0 -109 c0 -136 -5 -159 -34 -151 -76 22 -77 21 -21 -38 30 -31 58 -56
64 -56 6 0 18 15 27 33 15 28 18 69 18 307 1 151 5 285 10 297 7 18 3 25 -25
42 -19 12 -36 20 -39 20 -3 -1 -34 -10 -70 -19z m64 -46 c3 -9 6 -51 6 -95 0
-78 0 -79 -19 -60 -11 11 -40 23 -65 26 -50 8 -53 15 -40 97 5 30 11 38 33 41
58 9 79 7 85 -9z m-69 -175 c26 -18 50 -29 59 -26 12 5 16 -1 16 -23 0 -24 -8
-34 -42 -54 -24 -13 -56 -28 -72 -32 -27 -6 -29 -5 -23 17 4 13 7 52 7 87 0
34 3 62 6 62 3 0 25 -14 49 -31z"/>
</g>
</svg>
