<?xml version="1.0" standalone="no"?>
<!DOCTYPE svg PUBLIC "-//W3C//DTD SVG 20010904//EN"
 "http://www.w3.org/TR/2001/REC-SVG-20010904/DTD/svg10.dtd">
<svg version="1.0" xmlns="http://www.w3.org/2000/svg"
 width="96.000000pt" height="68.000000pt" viewBox="0 0 96.000000 68.000000"
 preserveAspectRatio="xMidYMid meet">
<metadata>
Created by potrace 1.16, written by Peter Selinger 2001-2019
</metadata>
<g transform="translate(0.000000,68.000000) scale(0.100000,-0.100000)"
fill="#000000" stroke="none">
<path d="M463 476 c0 -41 -4 -80 -8 -85 -3 -6 -22 -11 -41 -11 -19 0 -34 -4
-34 -10 0 -5 16 -10 36 -10 l37 0 -6 -45 c-6 -40 -4 -45 13 -45 15 0 20 10 26
45 5 38 10 46 33 51 52 12 61 16 56 25 -4 5 -22 9 -41 9 -38 0 -38 3 -12 88
11 38 -2 62 -36 62 -19 0 -21 -6 -23 -74z"/>
</g>
</svg>
