<?xml version="1.0" standalone="no"?>
<!DOCTYPE svg PUBLIC "-//W3C//DTD SVG 20010904//EN"
 "http://www.w3.org/TR/2001/REC-SVG-20010904/DTD/svg10.dtd">
<svg version="1.0" xmlns="http://www.w3.org/2000/svg"
 width="96.000000pt" height="68.000000pt" viewBox="0 0 96.000000 68.000000"
 preserveAspectRatio="xMidYMid meet">
<metadata>
Created by potrace 1.16, written by Peter Selinger 2001-2019
</metadata>
<g transform="translate(0.000000,68.000000) scale(0.100000,-0.100000)"
fill="#000000" stroke="none">
<path d="M624 583 l-61 -4 19 -59 c19 -58 30 -71 43 -50 3 6 27 10 53 10 45 0
48 1 60 38 26 74 26 73 -114 65z m78 -58 c-9 -20 -19 -25 -47 -25 -19 0 -35 3
-35 8 0 4 -3 17 -6 29 -5 20 -2 22 37 25 55 4 66 -4 51 -37z"/>
</g>
</svg>
