<?xml version="1.0" standalone="no"?>
<!DOCTYPE svg PUBLIC "-//W3C//DTD SVG 20010904//EN"
 "http://www.w3.org/TR/2001/REC-SVG-20010904/DTD/svg10.dtd">
<svg version="1.0" xmlns="http://www.w3.org/2000/svg"
 width="96.000000pt" height="68.000000pt" viewBox="0 0 96.000000 68.000000"
 preserveAspectRatio="xMidYMid meet">
<metadata>
Created by potrace 1.16, written by Peter Selinger 2001-2019
</metadata>
<g transform="translate(0.000000,68.000000) scale(0.100000,-0.100000)"
fill="#000000" stroke="none">
<path d="M540 246 c0 -23 -3 -24 -112 -31 -105 -7 -111 -9 -83 -21 17 -7 41
-11 55 -9 14 2 51 6 83 10 l57 6 0 -90 c0 -86 9 -113 25 -74 4 10 9 50 12 90
l6 72 61 6 c34 3 87 5 118 3 57 -2 79 5 64 20 -4 4 -61 6 -127 4 -114 -2 -119
-2 -119 18 0 13 -7 20 -20 20 -14 0 -20 -7 -20 -24z"/>
</g>
</svg>
