<?xml version="1.0" standalone="no"?>
<!DOCTYPE svg PUBLIC "-//W3C//DTD SVG 20010904//EN"
 "http://www.w3.org/TR/2001/REC-SVG-20010904/DTD/svg10.dtd">
<svg version="1.0" xmlns="http://www.w3.org/2000/svg"
 width="96.000000pt" height="68.000000pt" viewBox="0 0 96.000000 68.000000"
 preserveAspectRatio="xMidYMid meet">
<metadata>
Created by potrace 1.16, written by Peter Selinger 2001-2019
</metadata>
<g transform="translate(0.000000,68.000000) scale(0.100000,-0.100000)"
fill="#000000" stroke="none">
<path d="M235 516 c6 -36 -6 -135 -21 -188 -4 -14 -17 -18 -60 -18 -30 0 -54
-4 -54 -9 0 -13 26 -21 66 -21 37 0 39 -2 24 -30 -9 -17 -4 -24 30 -46 39 -26
40 -28 23 -47 -10 -10 -37 -30 -61 -44 -24 -14 -41 -28 -38 -30 9 -9 68 16
104 44 23 17 39 23 47 17 59 -44 67 -47 75 -34 11 18 -3 43 -34 59 l-25 14 19
36 c10 20 24 51 31 69 7 19 22 38 33 42 16 7 17 9 4 9 -9 1 -18 11 -20 24 -2
16 -11 23 -30 25 -26 3 -27 1 -22 -27 5 -26 3 -31 -12 -31 -11 0 -29 -3 -41
-6 -30 -8 -29 2 2 111 28 94 25 109 -21 118 -24 4 -25 3 -19 -37z m90 -228
c-4 -13 -16 -37 -27 -55 -17 -29 -21 -31 -48 -21 -39 13 -41 17 -25 55 13 31
29 38 83 42 20 1 22 -2 17 -21z"/>
</g>
</svg>
