<?xml version="1.0" standalone="no"?>
<!DOCTYPE svg PUBLIC "-//W3C//DTD SVG 20010904//EN"
 "http://www.w3.org/TR/2001/REC-SVG-20010904/DTD/svg10.dtd">
<svg version="1.0" xmlns="http://www.w3.org/2000/svg"
 width="96.000000pt" height="68.000000pt" viewBox="0 0 96.000000 68.000000"
 preserveAspectRatio="xMidYMid meet">
<metadata>
Created by potrace 1.16, written by Peter Selinger 2001-2019
</metadata>
<g transform="translate(0.000000,68.000000) scale(0.100000,-0.100000)"
fill="#000000" stroke="none">
<path d="M610 418 c-19 -6 -59 -8 -87 -5 l-53 6 0 -108 c0 -126 -13 -174 -66
-238 -19 -23 -31 -43 -25 -43 23 0 91 73 106 114 l17 44 81 7 c45 4 84 8 87 8
8 3 12 -65 5 -100 -7 -37 -20 -41 -68 -17 -28 13 -25 9 21 -37 l54 -52 21 22
c21 20 22 34 28 204 4 155 3 184 -10 195 -17 14 -62 14 -111 0z m65 -58 c0
-35 -1 -35 -50 -41 -27 -4 -65 -10 -83 -14 l-34 -7 7 38 c3 21 9 42 13 45 11
11 52 17 102 15 45 -1 45 -1 45 -36z m3 -97 c-3 -32 -6 -36 -33 -38 -16 -1
-54 -5 -82 -10 l-53 -8 0 35 0 35 63 10 c110 18 109 18 105 -24z"/>
</g>
</svg>
