<?xml version="1.0" standalone="no"?>
<!DOCTYPE svg PUBLIC "-//W3C//DTD SVG 20010904//EN"
 "http://www.w3.org/TR/2001/REC-SVG-20010904/DTD/svg10.dtd">
<svg version="1.0" xmlns="http://www.w3.org/2000/svg"
 width="90.000000pt" height="92.000000pt" viewBox="0 0 90.000000 92.000000"
 preserveAspectRatio="xMidYMid meet">
<metadata>
Created by potrace 1.16, written by Peter Selinger 2001-2019
</metadata>
<g transform="translate(0.000000,92.000000) scale(0.100000,-0.100000)"
fill="#000000" stroke="none">
<path d="M506 861 c-4 -5 -2 -21 4 -36 5 -14 10 -48 10 -75 l0 -49 -57 -6
c-78 -9 -89 -13 -75 -27 7 -7 38 -11 72 -10 60 2 60 2 60 -27 0 -30 -18 -41
-72 -41 -15 0 -30 -5 -33 -10 -9 -15 40 -30 75 -24 28 6 30 5 30 -24 0 -35 -5
-37 -102 -47 -37 -4 -70 -10 -73 -15 -8 -13 47 -28 83 -22 27 4 32 1 32 -17 0
-46 -98 -172 -128 -164 -10 2 -36 -3 -59 -11 -32 -11 -43 -12 -44 -3 -4 60 5
153 14 159 7 4 23 8 37 8 14 0 32 5 40 10 23 15 -7 31 -52 28 l-37 -3 1 42 c0
36 4 43 20 43 23 0 58 17 58 29 0 16 -39 19 -77 6 -21 -7 -53 -16 -71 -20
l-32 -7 30 52 c17 28 37 68 45 88 l15 36 38 -37 c47 -46 72 -49 72 -7 0 26 -6
33 -45 52 -26 13 -45 29 -45 38 0 21 -31 50 -52 50 -11 0 -17 -14 -20 -49 -6
-59 -57 -170 -122 -264 -26 -38 -45 -74 -43 -80 2 -7 29 13 59 43 43 42 62 54
81 52 20 -2 26 -10 31 -38 4 -19 4 -38 1 -43 -3 -5 -28 -12 -56 -16 -67 -9
-60 -30 10 -29 l51 2 0 -88 0 -87 -59 -13 c-33 -7 -71 -10 -85 -6 -37 9 -34
-16 5 -48 32 -28 44 -31 53 -17 7 11 217 103 223 98 2 -3 -8 -14 -23 -26 -15
-11 -21 -21 -15 -21 16 0 70 28 107 56 17 13 34 24 37 24 6 0 1 -146 -6 -158
-8 -12 12 -52 25 -52 7 1 47 32 88 70 74 69 72 77 -10 35 -50 -26 -53 -22 -48
65 3 45 1 83 -4 86 -5 3 8 28 28 55 34 47 35 51 20 68 -19 21 -15 21 197 37
91 7 105 17 56 41 -19 9 -44 9 -112 -1 l-87 -13 0 32 c0 32 1 33 57 41 31 5
58 14 60 21 5 15 -49 26 -87 18 -28 -6 -30 -5 -30 24 0 27 4 31 38 36 54 10
102 25 102 34 0 4 -11 13 -24 19 -18 8 -36 7 -71 -4 l-48 -14 7 43 c4 23 9 52
13 65 4 18 -1 25 -31 37 -42 18 -43 18 -50 6z"/>
<path d="M655 380 l-49 -50 -28 27 c-75 71 -12 -41 92 -167 49 -58 52 -60 99
-60 26 0 63 5 80 11 l33 12 -90 42 c-86 41 -177 109 -167 125 2 4 32 18 65 30
33 12 63 27 66 32 7 11 -24 48 -40 48 -7 0 -34 -22 -61 -50z"/>
<path d="M294 363 c-3 -10 -14 -35 -25 -55 -23 -45 -19 -47 29 -11 57 42 57
41 37 63 -22 25 -34 25 -41 3z"/>
<path d="M60 321 c0 -17 46 -76 63 -79 13 -3 17 4 17 28 0 26 -6 33 -35 46
-40 16 -45 17 -45 5z"/>
</g>
</svg>
