<?xml version="1.0" standalone="no"?>
<!DOCTYPE svg PUBLIC "-//W3C//DTD SVG 20010904//EN"
 "http://www.w3.org/TR/2001/REC-SVG-20010904/DTD/svg10.dtd">
<svg version="1.0" xmlns="http://www.w3.org/2000/svg"
 width="96.000000pt" height="68.000000pt" viewBox="0 0 96.000000 68.000000"
 preserveAspectRatio="xMidYMid meet">
<metadata>
Created by potrace 1.16, written by Peter Selinger 2001-2019
</metadata>
<g transform="translate(0.000000,68.000000) scale(0.100000,-0.100000)"
fill="#000000" stroke="none">
<path d="M687 270 c-7 -11 -26 -29 -41 -41 l-27 -21 -25 23 c-13 12 -24 18
-24 12 0 -5 35 -47 78 -91 72 -77 79 -82 117 -81 22 1 51 4 65 9 l25 7 -30 12
c-105 41 -134 55 -164 80 l-34 28 58 20 c67 22 77 35 41 51 -22 10 -27 8 -39
-8z"/>
<path d="M483 197 c-6 -6 -13 -46 -16 -89 -5 -59 -4 -77 7 -81 13 -5 140 82
132 90 -2 2 -22 -5 -45 -16 -22 -12 -43 -21 -46 -21 -3 0 -5 27 -5 59 0 61
-10 81 -27 58z"/>
</g>
</svg>
