<?xml version="1.0" standalone="no"?>
<!DOCTYPE svg PUBLIC "-//W3C//DTD SVG 20010904//EN"
 "http://www.w3.org/TR/2001/REC-SVG-20010904/DTD/svg10.dtd">
<svg version="1.0" xmlns="http://www.w3.org/2000/svg"
 width="90.000000pt" height="92.000000pt" viewBox="0 0 90.000000 92.000000"
 preserveAspectRatio="xMidYMid meet">
<metadata>
Created by potrace 1.16, written by Peter Selinger 2001-2019
</metadata>
<g transform="translate(0.000000,92.000000) scale(0.100000,-0.100000)"
fill="#000000" stroke="none">
<path d="M256 833 c-3 -4 -6 -16 -6 -27 0 -17 -31 -89 -46 -105 -1 -2 -26 11
-55 28 -28 18 -54 30 -57 26 -3 -3 16 -25 42 -48 l49 -42 -73 -73 c-40 -39
-69 -72 -66 -72 16 0 75 36 119 72 l47 39 14 -32 c10 -23 11 -41 4 -59 -14
-42 -111 -154 -173 -201 -60 -45 -71 -65 -27 -48 56 21 111 60 160 114 28 30
54 55 57 55 9 0 -3 -162 -16 -222 -12 -52 -26 -61 -78 -52 l-35 7 43 -51 c23
-29 47 -52 51 -52 17 0 60 62 71 102 14 55 14 301 -2 363 -6 28 -19 62 -27 76
-14 26 -13 29 32 88 26 34 45 68 42 76 -6 17 -61 47 -70 38z"/>
<path d="M480 831 c0 -5 16 -37 35 -70 23 -42 30 -63 22 -66 -7 -2 -48 -9 -92
-15 -147 -20 -161 -27 -106 -49 22 -10 44 -9 102 2 110 23 143 27 266 36 62 4
116 11 120 15 12 12 -37 46 -66 46 -14 0 -58 -6 -98 -14 l-71 -13 5 31 c4 24
-1 36 -19 53 -27 26 -98 57 -98 44z"/>
<path d="M535 573 c-38 -8 -80 -17 -92 -19 -31 -6 -29 -22 3 -30 30 -8 200 14
229 29 19 10 18 11 -10 23 -36 16 -41 15 -130 -3z"/>
<path d="M517 460 c-54 -10 -101 -21 -105 -24 -10 -11 20 -26 50 -26 27 0 162
17 206 26 41 8 22 27 -38 38 -8 2 -59 -5 -113 -14z"/>
<path d="M605 354 c-27 -8 -90 -17 -138 -21 -48 -3 -86 -9 -84 -12 21 -38 36
-87 42 -138 4 -34 13 -70 21 -80 13 -17 14 -17 20 3 5 20 15 22 130 29 115 6
141 13 113 30 -13 9 -3 57 24 114 l20 44 -29 24 c-33 26 -49 27 -119 7z m50
-81 c-14 -100 -2 -91 -136 -109 l-46 -6 -6 39 c-4 21 -7 52 -7 69 0 30 2 31
58 41 31 6 77 11 101 12 l43 1 -7 -47z"/>
</g>
</svg>
