<?xml version="1.0" standalone="no"?>
<!DOCTYPE svg PUBLIC "-//W3C//DTD SVG 20010904//EN"
 "http://www.w3.org/TR/2001/REC-SVG-20010904/DTD/svg10.dtd">
<svg version="1.0" xmlns="http://www.w3.org/2000/svg"
 width="96.000000pt" height="68.000000pt" viewBox="0 0 96.000000 68.000000"
 preserveAspectRatio="xMidYMid meet">
<metadata>
Created by potrace 1.16, written by Peter Selinger 2001-2019
</metadata>
<g transform="translate(0.000000,68.000000) scale(0.100000,-0.100000)"
fill="#000000" stroke="none">
<path d="M273 603 c-10 -4 -10 -10 -2 -25 6 -12 12 -53 13 -92 l1 -71 -55 -8
c-86 -13 -100 -17 -100 -27 0 -5 32 -10 70 -12 l71 -3 -39 -60 c-22 -33 -60
-79 -85 -102 -28 -26 -40 -43 -31 -43 32 0 85 34 124 78 39 44 40 44 40 18 0
-15 -5 -59 -12 -97 -10 -61 -9 -75 6 -106 16 -34 18 -35 34 -19 14 13 18 42
22 142 l5 126 22 -26 c25 -28 58 -34 66 -13 8 22 -7 37 -49 52 -30 10 -40 19
-42 39 -3 23 1 26 36 32 49 8 67 18 57 34 -5 8 -22 10 -49 7 l-42 -6 9 69 c5
38 7 75 4 83 -6 16 -56 36 -74 30z"/>
<path d="M530 554 c0 -3 13 -19 30 -37 16 -18 30 -35 30 -38 0 -4 -36 -10 -80
-14 -44 -4 -80 -11 -80 -16 0 -5 8 -10 18 -10 20 -2 14 -2 80 7 l52 7 0 -46
c0 -45 -1 -46 -35 -53 -19 -3 -49 -4 -65 -2 -33 5 -34 4 -21 -20 5 -10 5 -44
0 -80 -6 -43 -5 -70 2 -84 18 -34 32 -5 37 82 4 75 6 80 27 80 13 0 30 3 39 6
14 5 16 -11 16 -142 0 -135 8 -189 25 -172 5 5 19 187 25 321 0 4 22 7 49 7
l48 0 7 -58 c8 -75 2 -92 -36 -92 l-30 0 30 -25 c17 -14 37 -25 46 -25 24 0
42 52 49 137 7 90 -2 99 -100 88 l-65 -7 3 34 c2 18 0 38 -4 44 -7 12 76 24
159 24 24 0 44 4 44 9 0 16 -51 22 -121 15 -75 -7 -85 -6 -82 14 1 16 -54 52
-79 52 -10 0 -18 -2 -18 -6z"/>
</g>
</svg>
