<?xml version="1.0" standalone="no"?>
<!DOCTYPE svg PUBLIC "-//W3C//DTD SVG 20010904//EN"
 "http://www.w3.org/TR/2001/REC-SVG-20010904/DTD/svg10.dtd">
<svg version="1.0" xmlns="http://www.w3.org/2000/svg"
 width="90.000000pt" height="92.000000pt" viewBox="0 0 90.000000 92.000000"
 preserveAspectRatio="xMidYMid meet">
<metadata>
Created by potrace 1.16, written by Peter Selinger 2001-2019
</metadata>
<g transform="translate(0.000000,92.000000) scale(0.100000,-0.100000)"
fill="#000000" stroke="none">
<path d="M404 873 c12 -56 19 -211 12 -267 l-8 -57 -40 6 -41 7 43 -51 c24
-28 47 -51 51 -51 4 0 15 10 23 22 12 16 16 47 16 110 0 49 3 88 7 88 3 0 55
-36 116 -81 60 -44 116 -78 123 -75 8 3 14 17 14 31 0 30 -40 58 -150 104 -41
18 -75 33 -77 35 -2 1 36 17 83 36 91 35 100 49 52 78 -27 16 -27 16 -89 -46
-34 -34 -67 -62 -72 -62 -6 0 -8 31 -3 84 6 80 5 86 -16 100 -35 25 -51 21
-44 -11z"/>
<path d="M253 746 c-40 -12 -73 -25 -73 -30 0 -5 27 -6 60 -3 47 5 60 4 60 -7
0 -16 -86 -136 -97 -136 -5 -1 -24 -14 -43 -31 l-35 -30 30 11 c48 18 87 46
131 92 41 44 94 112 94 122 0 3 -12 11 -27 19 -24 11 -38 10 -100 -7z"/>
<path d="M554 463 c11 -42 19 -268 12 -299 -6 -24 -10 -26 -47 -21 -21 3 -39
3 -39 1 0 -2 21 -24 46 -50 l45 -47 22 22 c20 19 22 32 22 116 0 52 1 95 1 95
1 0 30 -38 65 -85 l64 -85 55 1 c98 1 102 11 19 51 -66 31 -169 109 -169 126
0 4 29 23 65 41 36 19 65 38 65 42 0 11 -42 39 -57 39 -8 0 -18 -10 -23 -22
-17 -44 -56 -82 -75 -74 -16 6 -17 15 -12 81 5 66 3 76 -13 85 -10 6 -26 10
-36 10 -13 0 -15 -6 -10 -27z"/>
<path d="M226 443 c4 -10 9 -82 12 -160 5 -156 2 -164 -51 -144 -39 15 -33 1
19 -49 44 -43 46 -44 60 -26 10 14 14 47 14 108 0 48 3 88 6 88 3 0 26 -18 51
-40 48 -42 63 -43 63 -5 0 18 -11 28 -50 46 l-50 22 60 36 c33 20 60 39 60 43
0 7 -52 38 -63 38 -3 0 -7 -10 -11 -22 -3 -13 -19 -39 -36 -58 l-30 -35 1 76
c2 87 -2 99 -38 99 -20 0 -24 -3 -17 -17z"/>
<path d="M100 321 c-43 -13 -51 -19 -36 -24 10 -4 34 -5 52 -1 19 3 34 3 34 0
0 -22 -70 -110 -118 -149 -32 -25 -33 -28 -12 -22 44 13 102 59 151 120 48 60
48 60 28 78 -25 20 -28 20 -99 -2z"/>
<path d="M438 326 c-56 -17 -58 -29 -5 -25 27 3 47 0 47 -6 0 -21 -60 -114
-94 -146 -41 -38 -40 -47 1 -26 35 19 90 77 133 141 31 47 32 50 15 63 -22 15
-46 15 -97 -1z"/>
</g>
</svg>
