<?xml version="1.0" standalone="no"?>
<!DOCTYPE svg PUBLIC "-//W3C//DTD SVG 20010904//EN"
 "http://www.w3.org/TR/2001/REC-SVG-20010904/DTD/svg10.dtd">
<svg version="1.0" xmlns="http://www.w3.org/2000/svg"
 width="90.000000pt" height="92.000000pt" viewBox="0 0 90.000000 92.000000"
 preserveAspectRatio="xMidYMid meet">
<metadata>
Created by potrace 1.16, written by Peter Selinger 2001-2019
</metadata>
<g transform="translate(0.000000,92.000000) scale(0.100000,-0.100000)"
fill="#000000" stroke="none">
<path d="M476 851 c-4 -6 -2 -19 4 -30 25 -48 6 -71 -63 -71 -48 0 -25 -25 26
-28 46 -3 47 -4 47 -36 l0 -34 -75 -7 c-74 -7 -92 -16 -58 -30 22 -8 343 16
343 26 0 4 -7 12 -15 19 -17 14 -54 15 -115 5 l-36 -6 4 34 c4 33 6 35 53 41
26 4 51 11 54 16 10 16 -36 32 -73 27 -33 -6 -34 -5 -29 21 3 16 3 33 -1 39
-10 16 -59 27 -66 14z"/>
<path d="M165 684 c-25 -10 -55 -13 -79 -9 -37 5 -38 4 -32 -17 15 -48 18
-169 7 -268 -10 -79 -10 -109 0 -131 13 -34 25 -37 34 -9 3 11 14 20 23 20 9
0 27 3 38 6 17 4 26 -2 43 -30 27 -43 36 -45 54 -9 11 22 13 74 11 232 -3 181
-5 205 -21 217 -22 16 -28 16 -78 -2z m33 -33 c7 -4 15 -38 19 -79 6 -72 6
-72 -19 -72 -14 0 -40 -3 -57 -6 l-31 -6 0 75 c0 73 1 76 28 85 34 13 44 14
60 3z m20 -208 c2 -16 0 -51 -3 -78 l-6 -51 -52 -2 -52 -2 3 74 4 75 41 4 c23
2 47 4 52 5 6 1 12 -10 13 -25z"/>
<path d="M616 570 c7 -41 7 -42 -59 -52 -35 -6 -21 -23 21 -26 39 -3 42 -5 42
-31 0 -31 -18 -41 -77 -41 -35 0 -53 -17 -29 -26 18 -7 277 14 286 22 3 3 -4
12 -14 20 -14 10 -35 12 -74 7 l-54 -6 4 29 c3 25 9 31 48 41 25 6 47 12 50
12 17 4 -31 21 -57 21 -28 0 -33 4 -33 25 0 14 -8 29 -19 35 -35 18 -42 12
-35 -30z"/>
<path d="M354 564 c21 -56 19 -62 -23 -69 -53 -9 -53 -25 -1 -25 39 0 40 -1
40 -34 0 -33 -2 -35 -45 -42 -25 -3 -45 -10 -45 -14 0 -10 35 -40 47 -40 15 0
175 92 169 97 -3 3 -19 0 -37 -6 -46 -16 -49 -14 -49 19 0 24 5 31 28 36 54
12 58 14 42 24 -8 6 -25 10 -37 10 -15 0 -23 6 -23 18 0 25 -20 42 -48 42 -18
0 -23 -4 -18 -16z"/>
<path d="M472 337 c-131 -20 -167 -38 -89 -45 20 -2 37 -8 37 -13 0 -45 -109
-166 -189 -210 l-36 -20 35 6 c76 12 161 75 221 164 21 31 27 47 19 55 -14 18
-2 26 37 26 37 0 35 8 37 -122 1 -66 4 -80 25 -102 49 -53 191 -56 262 -5 34
24 35 33 12 102 l-17 52 -9 -42 c-12 -62 -44 -83 -124 -83 -88 0 -103 10 -103
65 0 24 5 56 11 72 6 15 11 40 11 56 -1 25 3 27 36 27 39 0 71 14 59 26 -14
15 -107 11 -235 -9z"/>
</g>
</svg>
