<?xml version="1.0" standalone="no"?>
<!DOCTYPE svg PUBLIC "-//W3C//DTD SVG 20010904//EN"
 "http://www.w3.org/TR/2001/REC-SVG-20010904/DTD/svg10.dtd">
<svg version="1.0" xmlns="http://www.w3.org/2000/svg"
 width="96.000000pt" height="68.000000pt" viewBox="0 0 96.000000 68.000000"
 preserveAspectRatio="xMidYMid meet">
<metadata>
Created by potrace 1.16, written by Peter Selinger 2001-2019
</metadata>
<g transform="translate(0.000000,68.000000) scale(0.100000,-0.100000)"
fill="#000000" stroke="none">
<path d="M205 513 c5 -10 10 -48 13 -85 l4 -68 -51 0 c-67 0 -66 -18 2 -22
l52 -3 0 -64 0 -65 -65 -19 c-36 -10 -67 -21 -69 -23 -7 -7 33 -33 50 -34 16
0 177 81 214 108 19 14 19 14 -5 8 -14 -4 -37 -9 -52 -12 l-28 -6 0 60 0 60
40 7 c22 4 42 11 45 15 8 13 -30 22 -61 14 -27 -7 -27 -7 -21 37 3 24 9 54 12
65 6 18 1 23 -26 33 -47 16 -63 14 -54 -6z"/>
</g>
</svg>
