<?xml version="1.0" standalone="no"?>
<!DOCTYPE svg PUBLIC "-//W3C//DTD SVG 20010904//EN"
 "http://www.w3.org/TR/2001/REC-SVG-20010904/DTD/svg10.dtd">
<svg version="1.0" xmlns="http://www.w3.org/2000/svg"
 width="90.000000pt" height="92.000000pt" viewBox="0 0 90.000000 92.000000"
 preserveAspectRatio="xMidYMid meet">
<metadata>
Created by potrace 1.16, written by Peter Selinger 2001-2019
</metadata>
<g transform="translate(0.000000,92.000000) scale(0.100000,-0.100000)"
fill="#000000" stroke="none">
<path d="M630 794 c0 -28 -38 -104 -52 -104 -5 0 -31 12 -59 26 -71 35 -82 25
-21 -20 29 -21 52 -42 52 -48 0 -6 -29 -39 -65 -74 -35 -35 -57 -60 -47 -57
31 12 88 51 119 82 l31 30 43 -37 c24 -20 53 -45 64 -55 24 -21 39 -17 43 12
4 27 -19 55 -75 91 l-42 27 32 44 c17 24 35 46 39 47 15 7 8 31 -14 46 -33 23
-48 20 -48 -10z"/>
<path d="M250 768 c-48 -10 -102 -16 -124 -13 -34 5 -37 4 -30 -12 5 -10 9
-88 9 -173 0 -85 4 -160 8 -167 6 -9 18 -8 50 3 23 9 74 16 112 17 l70 2 -1
-75 c-2 -134 -31 -198 -81 -179 -14 5 -28 8 -30 5 -2 -2 10 -24 28 -49 27 -39
35 -44 51 -36 31 17 56 82 68 175 6 49 16 107 22 128 9 36 8 41 -14 58 -17 14
-33 16 -65 12 l-43 -6 0 35 c0 34 2 36 38 42 54 9 64 14 57 25 -3 5 -26 10
-51 10 -40 0 -44 2 -44 25 0 18 6 26 25 30 14 3 37 7 51 11 38 7 15 28 -31 28
-34 0 -35 1 -35 38 0 33 3 38 24 38 12 0 37 5 55 11 25 9 29 14 20 25 -14 17
-31 16 -139 -8z m-14 -74 c7 -41 -4 -54 -47 -54 -34 0 -36 3 -31 44 3 29 9 36
31 39 14 2 29 5 33 6 4 0 10 -15 14 -35z m2 -111 c-3 -25 -7 -28 -45 -31 -40
-3 -43 -1 -43 21 0 32 7 37 52 37 37 0 39 -2 36 -27z m2 -98 c0 -32 -2 -35
-29 -35 -16 0 -36 -3 -45 -6 -13 -5 -16 2 -16 35 l0 41 45 0 c45 0 45 0 45
-35z"/>
<path d="M616 465 c4 -28 1 -64 -6 -91 l-13 -45 -63 62 c-35 33 -69 59 -76 57
-18 -6 -22 -28 -5 -28 17 0 117 -108 117 -126 0 -21 -81 -85 -144 -114 -33
-16 -54 -29 -45 -29 34 -2 120 31 168 64 28 19 52 35 53 35 2 0 24 -27 48 -59
58 -77 75 -85 153 -70 34 6 66 13 71 16 5 3 -37 29 -93 58 -56 29 -112 62
-125 74 l-23 22 33 82 c19 45 34 88 34 94 0 14 -51 43 -75 43 -14 0 -15 -8 -9
-45z"/>
<path d="M250 371 c0 -20 43 -81 56 -81 24 0 16 47 -12 69 -29 23 -44 27 -44
12z"/>
<path d="M17 325 c-23 -66 -23 -128 0 -123 28 5 43 104 24 153 -6 16 -11 10
-24 -30z"/>
<path d="M90 342 c0 -31 31 -92 47 -92 17 0 17 51 1 71 -7 8 -21 21 -30 28
-16 12 -18 11 -18 -7z"/>
<path d="M182 318 c26 -46 41 -51 46 -14 2 16 -4 29 -20 40 -42 29 -52 20 -26
-26z"/>
</g>
</svg>
