<?xml version="1.0" standalone="no"?>
<!DOCTYPE svg PUBLIC "-//W3C//DTD SVG 20010904//EN"
 "http://www.w3.org/TR/2001/REC-SVG-20010904/DTD/svg10.dtd">
<svg version="1.0" xmlns="http://www.w3.org/2000/svg"
 width="96.000000pt" height="68.000000pt" viewBox="0 0 96.000000 68.000000"
 preserveAspectRatio="xMidYMid meet">
<metadata>
Created by potrace 1.16, written by Peter Selinger 2001-2019
</metadata>
<g transform="translate(0.000000,68.000000) scale(0.100000,-0.100000)"
fill="#000000" stroke="none">
<path d="M484 586 l25 -34 -22 -5 c-12 -3 -68 -9 -124 -13 -97 -6 -123 -14
-88 -28 10 -4 15 -20 15 -50 0 -112 -49 -234 -127 -317 -52 -55 -46 -63 14
-20 81 59 119 130 153 286 11 54 22 101 24 102 2 2 88 8 192 15 104 6 193 14
197 18 18 16 -58 29 -118 21 -66 -9 -77 -7 -69 13 7 19 -34 46 -69 46 l-29 0
26 -34z"/>
</g>
</svg>
