<?xml version="1.0" standalone="no"?>
<!DOCTYPE svg PUBLIC "-//W3C//DTD SVG 20010904//EN"
 "http://www.w3.org/TR/2001/REC-SVG-20010904/DTD/svg10.dtd">
<svg version="1.0" xmlns="http://www.w3.org/2000/svg"
 width="90.000000pt" height="92.000000pt" viewBox="0 0 90.000000 92.000000"
 preserveAspectRatio="xMidYMid meet">
<metadata>
Created by potrace 1.16, written by Peter Selinger 2001-2019
</metadata>
<g transform="translate(0.000000,92.000000) scale(0.100000,-0.100000)"
fill="#000000" stroke="none">
<path d="M260 854 c-36 -7 -80 -13 -97 -14 -32 0 -46 -21 -23 -35 14 -8 13
-221 -1 -246 -8 -16 -7 -25 6 -39 16 -18 20 -18 48 -4 20 11 65 17 136 19 58
2 108 4 110 4 2 1 -4 10 -15 22 -16 18 -27 20 -67 15 l-48 -5 3 32 c3 29 8 33
46 42 24 6 40 14 36 17 -3 4 3 23 15 43 11 20 21 40 21 45 0 14 -54 28 -75 19
-37 -14 -45 -10 -43 22 3 34 3 34 61 44 32 5 36 9 27 21 -15 17 -52 16 -140
-2z m12 -69 c3 -30 1 -35 -17 -35 -11 0 -30 -3 -42 -6 -21 -6 -23 -3 -23 29 0
37 0 37 66 46 7 0 14 -15 16 -34z m91 -79 c-5 -26 -8 -27 -130 -42 l-53 -6 0
31 c0 33 5 34 141 39 44 2 46 1 42 -22z m-91 -103 c3 -21 5 -39 4 -39 -1 -1
-22 -5 -48 -8 l-48 -7 0 43 0 43 44 3 44 3 4 -38z"/>
<path d="M565 824 c-38 -13 -78 -23 -87 -23 -28 -1 -22 -13 33 -70 l51 -53
-29 -30 c-15 -16 -45 -39 -66 -50 -22 -10 -37 -22 -34 -24 9 -9 84 16 120 40
l35 24 45 -49 c40 -44 49 -49 88 -49 54 0 125 19 113 30 -5 4 -34 15 -64 24
-30 9 -78 29 -107 46 l-51 29 29 56 c17 30 35 57 40 60 18 11 9 35 -18 48 -25
12 -36 11 -98 -9z m55 -39 c0 -18 -31 -85 -40 -85 -4 0 -21 18 -38 39 l-31 39
37 10 c54 14 72 14 72 -3z"/>
<path d="M475 524 c-44 -8 -110 -15 -148 -16 -55 -3 -66 -6 -61 -18 14 -31 16
-133 5 -190 -10 -51 -10 -64 4 -91 15 -28 18 -29 29 -13 8 11 19 15 31 11 16
-7 16 -9 3 -30 -17 -25 -128 -122 -149 -129 -8 -3 -12 -8 -9 -11 15 -17 243
117 236 138 -1 6 -12 15 -25 21 -19 10 -13 12 40 18 94 9 121 7 141 -10 14
-14 20 -14 33 -4 12 10 15 37 15 126 0 62 4 124 10 139 8 20 6 29 -10 45 -11
11 -24 20 -29 20 -5 0 -15 2 -23 4 -7 2 -49 -3 -93 -10z m85 -62 l0 -28 -102
-12 c-149 -17 -145 -18 -140 22 4 34 6 35 51 39 25 2 79 4 119 5 l72 2 0 -28z
m8 -89 c2 -13 -1 -23 -7 -23 -5 0 -43 -4 -83 -9 -183 -23 -168 -24 -168 8 0
29 0 29 88 39 133 15 166 12 170 -15z m-2 -80 c-2 -16 -5 -30 -5 -33 -1 -3
-27 -6 -59 -7 -31 -1 -87 -5 -124 -8 l-68 -6 0 29 0 29 118 10 c64 5 123 10
130 11 9 1 11 -7 8 -25z"/>
<path d="M567 109 c45 -44 87 -78 93 -74 15 9 12 47 -6 74 -17 23 -126 81
-154 81 -8 0 22 -37 67 -81z"/>
</g>
</svg>
