<?xml version="1.0" standalone="no"?>
<!DOCTYPE svg PUBLIC "-//W3C//DTD SVG 20010904//EN"
 "http://www.w3.org/TR/2001/REC-SVG-20010904/DTD/svg10.dtd">
<svg version="1.0" xmlns="http://www.w3.org/2000/svg"
 width="96.000000pt" height="68.000000pt" viewBox="0 0 96.000000 68.000000"
 preserveAspectRatio="xMidYMid meet">
<metadata>
Created by potrace 1.16, written by Peter Selinger 2001-2019
</metadata>
<g transform="translate(0.000000,68.000000) scale(0.100000,-0.100000)"
fill="#000000" stroke="none">
<path d="M261 594 c-102 -15 -115 -20 -88 -35 14 -8 17 -24 17 -79 0 -38 -4
-80 -9 -94 -15 -38 9 -54 57 -36 20 8 75 14 120 15 66 1 86 4 93 17 6 11 5 16
-4 15 -6 0 -34 1 -60 1 -44 2 -48 4 -45 25 2 16 11 23 33 25 23 2 34 11 44 32
17 40 7 52 -42 48 -36 -3 -42 0 -42 17 0 15 10 21 43 28 43 8 54 20 26 31 -19
7 -26 7 -143 -10z m39 -59 c0 -22 -4 -25 -35 -25 -27 0 -35 4 -35 18 0 25 9
32 42 32 23 0 28 -4 28 -25z m78 -47 c-3 -21 -9 -23 -76 -26 -66 -3 -73 -1
-70 15 2 13 15 19 48 23 106 12 102 12 98 -12z m-78 -73 c0 -18 -7 -26 -25
-31 -36 -9 -55 2 -55 31 0 23 4 25 40 25 36 0 40 -3 40 -25z"/>
<path d="M535 563 c-68 -18 -74 -21 -58 -31 37 -24 73 -57 73 -68 0 -7 -18
-24 -40 -36 -22 -13 -40 -26 -40 -30 0 -11 4 -10 64 16 l54 24 33 -34 c29 -30
38 -34 83 -33 28 1 62 4 76 8 24 7 23 8 -15 19 -22 7 -46 12 -53 12 -23 0
-102 42 -102 54 0 7 14 31 31 54 17 24 29 45 26 48 -12 13 -78 11 -132 -3z
m75 -18 c0 -13 -24 -55 -34 -58 -11 -4 -66 35 -66 47 0 2 8 7 18 9 23 6 82 8
82 2z"/>
<path d="M392 347 c-98 -9 -102 -11 -96 -31 5 -16 7 -113 2 -155 0 -3 0 -14 1
-23 1 -20 27 -25 33 -6 3 8 9 8 22 1 16 -9 16 -12 -8 -40 -13 -16 -43 -38 -65
-48 -23 -10 -41 -22 -41 -27 0 -14 -7 -17 149 62 l45 22 -24 18 c-22 17 -21
17 60 19 64 2 86 -1 100 -14 17 -15 19 -15 28 2 6 10 12 62 13 116 3 79 1 100
-11 107 -18 11 -66 11 -208 -3z m158 -16 c0 -5 3 -16 6 -24 4 -12 -9 -16 -63
-21 -37 -4 -87 -9 -110 -13 -41 -5 -43 -4 -43 20 0 29 15 34 115 40 28 2 60 4
73 5 12 1 22 -2 22 -7z m10 -80 c0 -21 -10 -24 -152 -36 -68 -7 -68 -6 -68 19
0 24 3 25 68 29 160 8 152 9 152 -12z m0 -66 c0 -25 -1 -25 -85 -27 -47 -1
-97 -2 -112 -2 -22 -1 -28 4 -28 19 0 18 9 21 85 26 47 3 97 6 113 7 23 2 27
-2 27 -23z"/>
<path d="M526 89 c24 -27 99 -79 113 -79 17 0 13 35 -6 52 -21 19 -89 48 -111
48 -12 0 -12 -4 4 -21z"/>
</g>
</svg>
