<?xml version="1.0" standalone="no"?>
<!DOCTYPE svg PUBLIC "-//W3C//DTD SVG 20010904//EN"
 "http://www.w3.org/TR/2001/REC-SVG-20010904/DTD/svg10.dtd">
<svg version="1.0" xmlns="http://www.w3.org/2000/svg"
 width="90.000000pt" height="92.000000pt" viewBox="0 0 90.000000 92.000000"
 preserveAspectRatio="xMidYMid meet">
<metadata>
Created by potrace 1.16, written by Peter Selinger 2001-2019
</metadata>
<g transform="translate(0.000000,92.000000) scale(0.100000,-0.100000)"
fill="#000000" stroke="none">
<path d="M615 805 c-73 -21 -221 -37 -262 -29 -33 6 -35 5 -27 -12 5 -10 10
-89 12 -174 3 -151 -8 -230 -43 -315 l-8 -20 22 20 c36 31 61 89 74 170 10 65
14 74 29 69 10 -3 51 -1 91 5 39 6 98 12 130 14 l57 4 0 -108 c0 -59 -4 -119
-10 -134 -9 -24 -13 -25 -47 -19 l-37 7 44 -52 44 -52 25 26 26 25 5 258 c3
141 9 263 13 269 11 17 -39 63 -67 62 -12 0 -43 -7 -71 -14z m73 -90 l3 -50
-66 0 -67 0 5 32 c5 26 1 36 -15 47 -19 14 -18 15 28 19 107 9 109 8 112 -48z
m-184 13 c3 -13 6 -35 6 -49 0 -23 -5 -27 -37 -33 -72 -11 -73 -11 -73 43 0
54 -4 51 81 59 10 1 19 -8 23 -20z m186 -129 c0 -50 0 -50 -22 -35 -12 9 -32
13 -45 11 -75 -16 -69 -17 -65 19 4 36 -4 33 125 55 4 0 7 -22 7 -50z m-175
-8 c8 -32 0 -38 -67 -46 l-58 -6 0 38 0 38 60 0 c54 0 60 -2 65 -24z"/>
<path d="M100 780 c0 -18 82 -100 100 -100 23 0 43 24 38 46 -2 10 -17 26 -33
35 -38 21 -105 34 -105 19z"/>
<path d="M156 571 c-16 -11 -48 -25 -72 -31 -67 -19 -55 -34 20 -27 l64 6 -14
-44 c-15 -42 -15 -45 10 -82 15 -22 27 -56 29 -79 l2 -39 -85 -3 c-47 -2 -89
-7 -93 -11 -14 -14 35 -53 58 -46 11 3 48 9 82 12 74 7 94 0 297 -94 76 -36
156 -68 176 -70 36 -5 198 40 240 67 22 14 2 18 -145 25 -164 8 -258 26 -401
77 -102 36 -113 42 -104 58 19 36 11 77 -20 108 -16 17 -30 33 -30 37 0 3 18
28 40 54 22 26 40 52 40 57 0 8 -50 44 -62 44 -1 0 -16 -9 -32 -19z"/>
<path d="M525 464 c-27 -8 -60 -12 -72 -9 -23 5 -32 -8 -14 -20 5 -3 15 -30
21 -61 8 -37 16 -54 24 -51 7 3 38 8 69 12 47 6 57 11 57 26 0 11 7 36 15 57
15 34 15 38 -1 49 -21 15 -33 15 -99 -3z m55 -58 c0 -32 -2 -35 -41 -41 -22
-4 -42 -5 -43 -3 -2 1 -6 17 -9 35 -7 35 0 40 61 42 30 1 32 -1 32 -33z"/>
</g>
</svg>
