<?xml version="1.0" standalone="no"?>
<!DOCTYPE svg PUBLIC "-//W3C//DTD SVG 20010904//EN"
 "http://www.w3.org/TR/2001/REC-SVG-20010904/DTD/svg10.dtd">
<svg version="1.0" xmlns="http://www.w3.org/2000/svg"
 width="96.000000pt" height="68.000000pt" viewBox="0 0 96.000000 68.000000"
 preserveAspectRatio="xMidYMid meet">
<metadata>
Created by potrace 1.16, written by Peter Selinger 2001-2019
</metadata>
<g transform="translate(0.000000,68.000000) scale(0.100000,-0.100000)"
fill="#000000" stroke="none">
<path d="M645 571 c-31 -13 -222 -34 -247 -28 l-23 6 3 -127 c3 -108 1 -135
-16 -180 -21 -55 -16 -66 17 -31 19 20 41 89 41 127 0 17 10 20 93 25 50 4
109 10 130 13 l37 7 0 -98 0 -97 -35 4 c-43 5 -44 -1 -5 -35 39 -35 54 -34 74
7 13 27 16 68 16 208 0 95 -4 178 -8 185 -10 16 -53 24 -77 14z m35 -103 l0
-73 -54 -2 c-46 -1 -55 2 -59 19 -6 22 25 38 74 38 16 0 29 5 29 10 0 6 -22
10 -50 10 -47 0 -50 2 -50 25 0 14 -5 25 -11 25 -5 0 -7 5 -4 10 3 6 33 10 66
10 l59 0 0 -72z m-155 32 c8 -39 0 -50 -36 -50 -16 0 -29 -4 -29 -10 0 -5 16
-10 35 -10 31 0 35 -3 35 -25 0 -24 -3 -25 -54 -25 -52 0 -55 1 -50 23 3 12 5
43 4 69 -1 41 2 47 22 51 57 11 66 8 73 -23z"/>
<path d="M170 553 c0 -26 82 -88 105 -79 22 8 19 53 -5 66 -27 14 -100 24
-100 13z"/>
<path d="M178 388 c-74 -26 -76 -43 -4 -34 l54 6 -15 -31 c-14 -28 -14 -32 11
-68 39 -56 35 -67 -26 -74 -29 -4 -63 -4 -74 -1 -29 8 -42 -15 -19 -32 12 -9
40 -11 99 -7 81 5 82 5 246 -57 182 -68 201 -70 325 -32 91 27 80 38 -47 46
-156 10 -237 22 -351 54 l-97 27 6 32 c5 26 1 37 -22 58 l-28 26 40 40 c38 39
38 41 20 55 -25 18 -48 17 -118 -8z"/>
<path d="M559 326 c-3 -3 -24 -6 -47 -7 -46 -3 -47 -5 -31 -59 12 -41 18 -42
105 -24 26 5 59 75 40 86 -12 8 -60 11 -67 4z m29 -43 c-3 -25 -7 -28 -42 -28
-32 0 -40 4 -42 22 -3 17 2 23 24 26 61 9 64 9 60 -20z"/>
</g>
</svg>
