<?xml version="1.0" standalone="no"?>
<!DOCTYPE svg PUBLIC "-//W3C//DTD SVG 20010904//EN"
 "http://www.w3.org/TR/2001/REC-SVG-20010904/DTD/svg10.dtd">
<svg version="1.0" xmlns="http://www.w3.org/2000/svg"
 width="96.000000pt" height="68.000000pt" viewBox="0 0 96.000000 68.000000"
 preserveAspectRatio="xMidYMid meet">
<metadata>
Created by potrace 1.16, written by Peter Selinger 2001-2019
</metadata>
<g transform="translate(0.000000,68.000000) scale(0.100000,-0.100000)"
fill="#000000" stroke="none">
<path d="M206 583 c13 -40 9 -304 -5 -400 -13 -87 -5 -123 24 -123 20 0 24 25
27 187 2 78 6 145 11 149 4 4 18 -3 31 -15 27 -25 59 -25 64 1 2 12 -10 22
-47 35 -56 19 -57 23 -42 102 11 54 7 65 -25 80 -39 18 -47 14 -38 -16z"/>
<path d="M122 382 c-24 -51 -28 -77 -12 -87 27 -17 69 72 55 115 -9 30 -18 24
-43 -28z"/>
</g>
</svg>
