<?xml version="1.0" standalone="no"?>
<!DOCTYPE svg PUBLIC "-//W3C//DTD SVG 20010904//EN"
 "http://www.w3.org/TR/2001/REC-SVG-20010904/DTD/svg10.dtd">
<svg version="1.0" xmlns="http://www.w3.org/2000/svg"
 width="90.000000pt" height="92.000000pt" viewBox="0 0 90.000000 92.000000"
 preserveAspectRatio="xMidYMid meet">
<metadata>
Created by potrace 1.16, written by Peter Selinger 2001-2019
</metadata>
<g transform="translate(0.000000,92.000000) scale(0.100000,-0.100000)"
fill="#000000" stroke="none">
<path d="M470 857 c0 -7 4 -17 9 -22 10 -10 51 -162 51 -188 0 -11 -23 -20
-77 -31 -43 -10 -87 -21 -98 -25 -18 -8 -17 -10 15 -24 19 -8 38 -13 43 -10 4
2 37 13 72 23 50 14 65 16 65 6 0 -17 41 -146 68 -212 24 -61 23 -64 -67 -157
-73 -76 -13 -57 71 22 21 19 39 33 41 30 2 -2 24 -35 49 -74 50 -78 80 -109
119 -124 41 -15 50 2 28 60 -11 27 -19 66 -19 87 0 56 -16 73 -24 26 -13 -74
-21 -75 -72 -9 -59 76 -59 74 -8 166 44 79 45 83 27 99 -10 10 -28 21 -40 25
-21 6 -23 3 -23 -35 0 -22 -7 -57 -16 -78 -18 -44 -22 -40 -57 69 -44 137 -47
125 33 133 39 4 70 11 70 16 0 5 -12 17 -26 27 -23 14 -32 15 -71 4 -25 -6
-48 -10 -50 -7 -3 2 -10 49 -16 104 -9 88 -13 101 -31 106 -36 10 -66 6 -66
-7z"/>
<path d="M620 802 c0 -18 80 -92 99 -92 21 0 35 28 26 52 -10 26 -125 63 -125
40z"/>
<path d="M124 728 c3 -13 9 -56 13 -95 l6 -73 -34 -2 c-19 -1 -49 -1 -66 1
-31 2 -44 -11 -24 -24 5 -3 15 -31 21 -63 19 -94 16 -91 60 -85 l40 6 0 -56
c0 -31 -5 -59 -11 -62 -6 -4 -37 -9 -70 -12 -67 -6 -76 -25 -28 -52 25 -14 33
-12 129 33 96 44 103 46 116 29 7 -10 14 -22 14 -27 0 -5 7 -3 15 4 24 20 18
56 -16 84 -34 29 -71 37 -49 11 15 -18 7 -31 -30 -43 l-30 -11 0 53 c0 60 6
66 71 66 36 0 40 2 34 20 -4 13 4 35 24 66 17 25 29 50 26 55 -10 15 -63 39
-77 35 -7 -2 -25 -7 -40 -10 -26 -6 -28 -4 -28 26 0 18 5 51 11 73 10 35 9 41
-11 57 -12 10 -33 18 -47 18 -21 0 -24 -4 -19 -22z m126 -214 c0 -36 -17 -64
-40 -64 -17 0 -20 7 -20 45 0 43 1 45 30 45 26 0 30 -4 30 -26z m-110 -33 c0
-44 -2 -49 -25 -53 -20 -4 -26 -1 -30 18 -3 13 -7 35 -10 48 -2 12 -2 26 2 30
3 3 19 6 35 6 27 0 28 -2 28 -49z"/>
<path d="M455 485 c-16 -8 -47 -14 -69 -15 -32 0 -37 -3 -31 -17 5 -10 13 -44
19 -75 6 -31 14 -60 18 -63 4 -4 35 -2 70 5 l63 13 1 36 c0 20 7 51 16 68 16
32 16 34 -5 48 -26 18 -42 18 -82 0z m35 -52 c0 -50 -11 -71 -43 -82 -16 -6
-31 -10 -33 -9 -1 2 -5 24 -9 49 -7 45 -6 47 22 57 49 18 63 15 63 -15z"/>
<path d="M456 254 c-39 -13 -92 -24 -118 -24 -26 0 -48 -4 -48 -8 0 -11 44
-52 56 -52 18 0 209 90 212 100 6 16 -27 11 -102 -16z"/>
</g>
</svg>
