<?xml version="1.0" standalone="no"?>
<!DOCTYPE svg PUBLIC "-//W3C//DTD SVG 20010904//EN"
 "http://www.w3.org/TR/2001/REC-SVG-20010904/DTD/svg10.dtd">
<svg version="1.0" xmlns="http://www.w3.org/2000/svg"
 width="96.000000pt" height="68.000000pt" viewBox="0 0 96.000000 68.000000"
 preserveAspectRatio="xMidYMid meet">
<metadata>
Created by potrace 1.16, written by Peter Selinger 2001-2019
</metadata>
<g transform="translate(0.000000,68.000000) scale(0.100000,-0.100000)"
fill="#000000" stroke="none">
<path d="M435 159 c29 -51 75 -76 75 -40 0 23 -16 37 -54 47 -23 5 -27 4 -21
-7z"/>
<path d="M700 126 c48 -50 84 -61 78 -24 -3 24 -45 52 -93 64 -30 7 -30 7 15
-40z"/>
<path d="M320 144 c0 -4 11 -26 25 -50 37 -63 88 -84 202 -84 93 0 153 13 153
33 -1 11 -110 81 -110 71 0 -3 7 -16 16 -29 16 -24 15 -25 -12 -36 -36 -13
-141 -6 -180 12 -15 8 -39 30 -52 49 -22 34 -42 50 -42 34z"/>
<path d="M198 93 c-27 -42 -26 -63 3 -63 23 0 55 60 46 84 -10 25 -22 19 -49
-21z"/>
</g>
</svg>
