<?xml version="1.0" standalone="no"?>
<!DOCTYPE svg PUBLIC "-//W3C//DTD SVG 20010904//EN"
 "http://www.w3.org/TR/2001/REC-SVG-20010904/DTD/svg10.dtd">
<svg version="1.0" xmlns="http://www.w3.org/2000/svg"
 width="96.000000pt" height="68.000000pt" viewBox="0 0 96.000000 68.000000"
 preserveAspectRatio="xMidYMid meet">
<metadata>
Created by potrace 1.16, written by Peter Selinger 2001-2019
</metadata>
<g transform="translate(0.000000,68.000000) scale(0.100000,-0.100000)"
fill="#000000" stroke="none">
<path d="M500 638 c0 -27 -44 -125 -67 -150 -14 -16 -14 -18 -1 -18 9 0 33 17
54 38 37 37 42 39 123 45 86 7 109 16 96 37 -7 12 -44 10 -123 -6 -32 -7 -33
-6 -21 20 11 23 10 28 -7 41 -29 22 -54 19 -54 -7z"/>
<path d="M264 612 c-9 -38 -47 -102 -78 -131 -57 -54 -16 -56 45 -3 38 33 55
40 117 49 81 12 91 18 74 35 -9 9 -25 9 -62 2 -46 -10 -65 -4 -40 11 21 13 10
43 -20 53 -28 10 -30 9 -36 -16z"/>
<path d="M540 512 c0 -16 52 -62 69 -62 21 0 33 21 22 38 -13 21 -91 42 -91
24z"/>
<path d="M290 497 c0 -7 13 -26 30 -42 24 -23 32 -26 45 -15 22 19 18 34 -14
53 -35 20 -61 22 -61 4z"/>
<path d="M475 433 c-27 -7 -87 -16 -133 -20 -86 -6 -124 -23 -53 -23 32 0 41
-4 41 -17 -1 -54 -88 -177 -164 -234 -46 -34 -33 -38 26 -8 40 20 128 103 128
120 0 22 39 5 85 -36 28 -24 53 -45 58 -45 4 0 7 -4 7 -8 0 -15 -84 -56 -160
-79 -41 -12 -67 -22 -57 -22 33 -1 155 30 193 50 51 25 63 24 102 -11 48 -42
93 -54 175 -46 104 10 111 20 25 40 -120 28 -208 59 -208 73 0 13 12 30 69 94
l33 39 -28 10 c-16 6 -39 9 -51 5 -31 -7 -30 12 3 60 25 38 26 64 2 66 -7 0
-20 2 -28 3 -8 2 -37 -3 -65 -11z m41 -50 c-18 -75 -23 -80 -93 -87 -36 -4
-68 -5 -70 -2 -2 2 3 19 12 37 13 25 15 37 7 50 -10 16 -7 18 26 22 20 2 57 4
81 5 42 2 43 1 37 -25z m18 -149 c-10 -20 -25 -38 -32 -41 -7 -3 -30 7 -52 22
-70 48 -69 52 12 62 40 5 77 6 82 1 6 -4 2 -22 -10 -44z"/>
</g>
</svg>
