<?xml version="1.0" standalone="no"?>
<!DOCTYPE svg PUBLIC "-//W3C//DTD SVG 20010904//EN"
 "http://www.w3.org/TR/2001/REC-SVG-20010904/DTD/svg10.dtd">
<svg version="1.0" xmlns="http://www.w3.org/2000/svg"
 width="96.000000pt" height="68.000000pt" viewBox="0 0 96.000000 68.000000"
 preserveAspectRatio="xMidYMid meet">
<metadata>
Created by potrace 1.16, written by Peter Selinger 2001-2019
</metadata>
<g transform="translate(0.000000,68.000000) scale(0.100000,-0.100000)"
fill="#000000" stroke="none">
<path d="M710 296 c-16 -96 -22 -106 -51 -81 l-23 20 20 -26 c10 -15 23 -25
27 -22 22 13 -17 -38 -45 -61 -18 -14 -28 -26 -21 -26 6 0 18 7 26 15 8 8 17
11 21 8 3 -4 6 -1 6 5 0 22 20 12 51 -23 27 -30 37 -35 73 -34 22 0 34 3 26 6
-8 3 -17 9 -20 12 -3 4 -26 20 -51 37 l-46 30 14 39 c24 68 32 138 18 158 -10
15 -14 7 -25 -57z m65 -206 c3 -5 2 -10 -4 -10 -5 0 -13 5 -16 10 -3 6 -2 10
4 10 5 0 13 -4 16 -10z"/>
<path d="M610 266 c0 -2 8 -10 18 -17 15 -13 16 -12 3 4 -13 16 -21 21 -21 13z"/>
</g>
</svg>
