<?xml version="1.0" standalone="no"?>
<!DOCTYPE svg PUBLIC "-//W3C//DTD SVG 20010904//EN"
 "http://www.w3.org/TR/2001/REC-SVG-20010904/DTD/svg10.dtd">
<svg version="1.0" xmlns="http://www.w3.org/2000/svg"
 width="90.000000pt" height="92.000000pt" viewBox="0 0 90.000000 92.000000"
 preserveAspectRatio="xMidYMid meet">
<metadata>
Created by potrace 1.16, written by Peter Selinger 2001-2019
</metadata>
<g transform="translate(0.000000,92.000000) scale(0.100000,-0.100000)"
fill="#000000" stroke="none">
<path d="M716 858 c14 -40 16 -495 3 -598 -6 -52 -12 -105 -11 -118 0 -34 23
-83 36 -79 30 10 35 57 39 382 3 195 9 343 15 363 10 31 9 34 -21 52 -18 11
-40 20 -51 20 -15 0 -17 -4 -10 -22z"/>
<path d="M165 798 c5 -13 10 -63 12 -112 5 -104 4 -106 -79 -106 -32 0 -58 -4
-58 -10 0 -5 4 -10 9 -10 11 0 28 -49 37 -107 7 -45 27 -72 39 -53 3 5 17 10
31 10 23 0 24 -3 24 -64 0 -63 -1 -64 -31 -75 -18 -6 -52 -11 -75 -11 -24 0
-44 -4 -44 -9 0 -5 14 -21 31 -35 l31 -26 32 19 c26 16 191 91 201 91 1 0 8
-13 15 -30 14 -35 25 -38 40 -10 16 29 2 66 -36 100 -39 34 -60 39 -49 13 18
-45 17 -50 -16 -62 -17 -6 -36 -11 -40 -11 -5 0 -9 27 -9 59 0 66 5 71 71 71
37 0 51 12 29 25 -5 3 4 28 20 56 36 61 36 64 5 85 -19 12 -36 14 -75 9 -58
-8 -56 -13 -40 115 11 84 3 100 -53 100 -26 0 -28 -3 -22 -22z m130 -270 c-8
-50 -20 -68 -46 -68 -16 0 -19 8 -19 48 0 57 4 62 43 62 28 0 29 -1 22 -42z
m-112 0 c-1 -18 -2 -45 -2 -60 -1 -23 -6 -28 -25 -28 -26 0 -36 21 -36 77 0
31 5 35 55 42 6 0 9 -14 8 -31z"/>
<path d="M505 739 c-27 -10 -60 -18 -72 -19 -13 0 -23 -4 -23 -9 0 -17 38 -22
77 -12 65 18 66 17 60 -44 -3 -30 -8 -59 -12 -64 -3 -6 -32 -15 -65 -22 -59
-11 -59 -11 -44 -35 19 -28 11 -79 -17 -110 -18 -19 -18 -22 -4 -34 14 -11 24
-11 65 4 27 10 59 16 72 14 21 -3 23 -9 26 -66 4 -85 -21 -172 -49 -172 -11 0
-29 5 -41 11 -11 6 -22 9 -24 6 -9 -8 70 -97 86 -97 17 0 70 53 70 69 0 49 24
229 32 239 8 9 6 18 -7 32 -26 28 -47 32 -88 15 -20 -8 -47 -15 -61 -15 -23 0
-24 1 -14 43 6 23 11 47 11 54 0 7 13 15 29 18 15 3 40 7 56 10 24 5 27 10 28
43 1 21 11 57 23 82 17 36 19 47 8 57 -21 21 -69 22 -122 2z"/>
</g>
</svg>
