<?xml version="1.0" standalone="no"?>
<!DOCTYPE svg PUBLIC "-//W3C//DTD SVG 20010904//EN"
 "http://www.w3.org/TR/2001/REC-SVG-20010904/DTD/svg10.dtd">
<svg version="1.0" xmlns="http://www.w3.org/2000/svg"
 width="96.000000pt" height="68.000000pt" viewBox="0 0 96.000000 68.000000"
 preserveAspectRatio="xMidYMid meet">
<metadata>
Created by potrace 1.16, written by Peter Selinger 2001-2019
</metadata>
<g transform="translate(0.000000,68.000000) scale(0.100000,-0.100000)"
fill="#000000" stroke="none">
<path d="M412 608 c-7 -7 -12 -17 -12 -24 0 -6 -20 -34 -45 -62 -58 -65 -58
-76 1 -67 58 8 56 -4 -11 -47 -81 -54 -55 -66 80 -35 61 14 72 14 86 1 22 -20
39 -18 39 5 0 18 -26 40 -63 54 -15 5 -17 3 -12 -12 5 -16 -3 -20 -56 -30 -33
-7 -63 -10 -66 -8 -2 3 34 31 81 62 47 32 86 61 86 65 0 19 -36 20 -50 2 -21
-26 -53 -42 -84 -42 -41 0 -38 14 19 70 42 41 52 57 43 67 -13 16 -21 16 -36
1z"/>
<path d="M584 363 c8 -205 16 -257 44 -272 54 -29 206 -18 219 15 5 14 -23
101 -39 119 -4 5 -8 -3 -8 -19 0 -29 -16 -66 -34 -78 -6 -4 -32 -8 -58 -8 -75
0 -80 16 -72 191 3 79 10 161 14 182 7 32 5 39 -13 52 -12 8 -30 15 -40 15
-19 0 -19 -8 -13 -197z"/>
<path d="M197 513 c5 -16 8 -75 8 -133 0 -128 -18 -183 -83 -252 -25 -26 -42
-48 -38 -48 24 0 76 33 107 67 42 47 63 118 77 268 11 113 7 125 -44 125 -33
0 -34 -1 -27 -27z"/>
<path d="M455 341 c-11 -5 -46 -11 -77 -15 l-58 -7 0 -57 c0 -32 -4 -72 -10
-91 -10 -35 -4 -81 10 -81 4 0 14 20 21 45 9 30 19 45 30 45 9 0 37 3 63 6
l46 7 0 -37 c0 -34 -2 -36 -32 -36 l-33 -1 30 -24 c60 -49 71 -30 77 122 3
109 3 112 -20 122 -13 6 -24 11 -25 10 -1 0 -11 -4 -22 -8z m23 -48 c3 -19 -1
-23 -26 -23 -16 0 -44 -3 -62 -6 -29 -6 -31 -5 -28 17 2 19 11 25 38 30 56 11
75 6 78 -18z m2 -62 c0 -12 -6 -21 -14 -21 -7 0 -34 -3 -60 -6 -44 -6 -46 -5
-46 17 0 22 4 24 60 27 55 3 60 1 60 -17z"/>
</g>
</svg>
