<?xml version="1.0" standalone="no"?>
<!DOCTYPE svg PUBLIC "-//W3C//DTD SVG 20010904//EN"
 "http://www.w3.org/TR/2001/REC-SVG-20010904/DTD/svg10.dtd">
<svg version="1.0" xmlns="http://www.w3.org/2000/svg"
 width="90.000000pt" height="92.000000pt" viewBox="0 0 90.000000 92.000000"
 preserveAspectRatio="xMidYMid meet">
<metadata>
Created by potrace 1.16, written by Peter Selinger 2001-2019
</metadata>
<g transform="translate(0.000000,92.000000) scale(0.100000,-0.100000)"
fill="#000000" stroke="none">
<path d="M550 807 c0 -28 -28 -128 -40 -140 -4 -5 -29 -11 -55 -15 -59 -8 -61
-23 -6 -37 l41 -11 -31 -49 c-17 -28 -40 -60 -52 -72 -17 -20 -19 -26 -8 -49
10 -23 16 -26 43 -20 30 6 30 5 24 -24 -11 -59 -62 -145 -121 -207 -65 -67
-59 -85 11 -34 56 40 91 85 131 166 28 58 32 74 23 94 -13 29 -10 32 32 34
l33 2 5 -146 c4 -129 8 -150 25 -169 55 -62 173 -65 242 -6 l27 23 -26 79
c-28 83 -28 83 -43 -8 -8 -53 -47 -81 -103 -75 -70 8 -82 26 -82 121 1 45 7
99 15 121 8 22 15 41 15 42 0 1 -9 11 -21 21 l-20 20 27 6 c23 6 31 2 51 -23
28 -35 49 -40 58 -12 13 42 -19 81 -93 110 -40 16 -52 8 -27 -19 17 -19 17
-20 -11 -31 -46 -17 -133 -34 -140 -26 -9 9 44 122 65 141 9 8 36 17 61 21 25
4 61 14 80 22 34 14 34 15 15 29 -19 15 -33 14 -98 -2 l-27 -6 25 43 c31 54
31 73 3 93 -32 22 -48 20 -48 -7z"/>
<path d="M195 773 c-9 -64 -71 -191 -140 -287 -31 -43 -54 -83 -52 -89 2 -6
32 17 67 51 88 86 129 84 130 -4 0 -19 -8 -23 -57 -30 -82 -13 -85 -37 -4 -32
l61 3 0 -51 c0 -28 3 -65 6 -81 6 -28 4 -30 -46 -41 -28 -7 -71 -12 -96 -12
-51 0 -55 -11 -18 -45 27 -26 58 -32 69 -16 3 5 59 31 125 56 141 56 162 87
33 49 -23 -6 -23 -5 -23 75 0 89 -8 79 75 96 14 3 25 10 25 15 0 14 -45 23
-75 16 -23 -6 -24 -4 -22 34 2 38 5 41 40 51 20 5 37 14 37 20 0 19 -32 21
-89 5 -94 -26 -95 -25 -45 62 24 42 44 83 44 90 0 21 13 14 52 -29 40 -44 58
-44 58 0 0 23 -8 32 -44 52 -25 13 -42 28 -39 35 5 15 -31 54 -51 54 -9 0 -16
-17 -21 -47z"/>
<path d="M293 320 c-12 -27 -18 -50 -14 -50 3 0 23 14 44 31 36 30 37 32 21
50 -9 11 -20 19 -24 19 -3 0 -16 -22 -27 -50z"/>
<path d="M87 299 c37 -63 73 -75 73 -24 0 25 -41 55 -75 55 -14 0 -14 -3 2
-31z"/>
</g>
</svg>
