<?xml version="1.0" standalone="no"?>
<!DOCTYPE svg PUBLIC "-//W3C//DTD SVG 20010904//EN"
 "http://www.w3.org/TR/2001/REC-SVG-20010904/DTD/svg10.dtd">
<svg version="1.0" xmlns="http://www.w3.org/2000/svg"
 width="96.000000pt" height="68.000000pt" viewBox="0 0 96.000000 68.000000"
 preserveAspectRatio="xMidYMid meet">
<metadata>
Created by potrace 1.16, written by Peter Selinger 2001-2019
</metadata>
<g transform="translate(0.000000,68.000000) scale(0.100000,-0.100000)"
fill="#000000" stroke="none">
<path d="M525 414 c-10 -19 -36 -51 -58 -70 -41 -38 -43 -64 -5 -64 13 0 57 9
98 20 95 25 113 25 135 0 22 -24 31 -25 39 -4 9 23 -17 59 -54 74 -34 14 -49
8 -31 -14 10 -11 1 -16 -52 -25 -67 -12 -97 -14 -97 -7 0 3 23 27 52 54 52 50
57 72 15 72 -15 0 -29 -11 -42 -36z"/>
</g>
</svg>
