<?xml version="1.0" standalone="no"?>
<!DOCTYPE svg PUBLIC "-//W3C//DTD SVG 20010904//EN"
 "http://www.w3.org/TR/2001/REC-SVG-20010904/DTD/svg10.dtd">
<svg version="1.0" xmlns="http://www.w3.org/2000/svg"
 width="90.000000pt" height="92.000000pt" viewBox="0 0 90.000000 92.000000"
 preserveAspectRatio="xMidYMid meet">
<metadata>
Created by potrace 1.16, written by Peter Selinger 2001-2019
</metadata>
<g transform="translate(0.000000,92.000000) scale(0.100000,-0.100000)"
fill="#000000" stroke="none">
<path d="M207 832 c-3 -4 -6 -51 -6 -104 -1 -53 -4 -104 -7 -112 -4 -10 -26
-17 -65 -22 -33 -4 -62 -10 -65 -15 -10 -16 37 -30 81 -24 l43 7 -18 -83 c-31
-141 -60 -204 -135 -303 -50 -66 -18 -61 49 8 62 63 108 165 134 298 l17 87
35 6 c74 13 110 26 110 40 0 22 -38 28 -86 15 -25 -7 -46 -11 -48 -9 -3 3 6
72 24 186 1 7 -60 32 -63 25z"/>
<path d="M486 788 c-8 -52 -50 -157 -88 -221 -15 -26 -28 -50 -28 -53 0 -13
53 33 78 67 16 21 31 37 34 34 3 -3 39 0 82 7 56 8 79 9 88 0 21 -21 -1 -236
-33 -314 -13 -32 -27 -34 -72 -12 -31 16 -32 16 -16 -2 9 -11 26 -38 38 -62
24 -46 24 -46 52 -32 41 22 72 125 95 310 3 30 12 70 19 87 13 31 12 34 -12
53 -30 23 -37 24 -138 9 -42 -6 -78 -9 -81 -6 -3 2 10 35 28 71 l33 67 -25 19
c-37 29 -47 25 -54 -22z"/>
<path d="M268 534 c-4 -3 -3 -18 1 -32 5 -15 6 -64 3 -109 -10 -177 16 -238
120 -283 130 -57 409 -25 457 52 10 17 9 27 -7 62 -11 22 -24 52 -29 65 -9 23
-11 20 -29 -35 -16 -51 -24 -62 -59 -79 -34 -17 -60 -20 -180 -20 -116 0 -146
3 -173 18 -59 32 -74 107 -51 262 9 66 8 71 -12 88 -22 18 -32 21 -41 11z"/>
<path d="M436 502 c-5 -9 39 -99 61 -124 8 -9 21 -14 29 -11 16 6 19 56 4 84
-12 22 -87 63 -94 51z"/>
</g>
</svg>
