<?xml version="1.0" standalone="no"?>
<!DOCTYPE svg PUBLIC "-//W3C//DTD SVG 20010904//EN"
 "http://www.w3.org/TR/2001/REC-SVG-20010904/DTD/svg10.dtd">
<svg version="1.0" xmlns="http://www.w3.org/2000/svg"
 width="96.000000pt" height="68.000000pt" viewBox="0 0 96.000000 68.000000"
 preserveAspectRatio="xMidYMid meet">
<metadata>
Created by potrace 1.16, written by Peter Selinger 2001-2019
</metadata>
<g transform="translate(0.000000,68.000000) scale(0.100000,-0.100000)"
fill="#000000" stroke="none">
<path d="M265 526 c0 -41 -3 -77 -6 -80 -3 -3 -29 -9 -59 -13 -67 -10 -67 -27
1 -31 l50 -3 -7 -32 c-18 -86 -59 -162 -122 -229 -37 -39 -38 -54 -3 -43 62
19 134 120 167 233 23 82 25 83 107 97 40 6 50 29 17 38 -12 3 -35 1 -53 -4
-17 -5 -35 -9 -38 -9 -6 0 9 111 16 119 11 10 -19 31 -44 31 -26 0 -26 -1 -26
-74z"/>
<path d="M520 578 c0 -35 -22 -96 -42 -118 -10 -11 -16 -20 -13 -20 4 0 -3
-13 -15 -30 -29 -40 -12 -38 29 4 31 32 35 34 115 35 l82 2 2 -27 c3 -34 -24
-178 -38 -204 -8 -15 -17 -18 -41 -13 l-31 6 23 -36 c13 -20 28 -37 32 -37 5
0 21 13 36 28 22 22 33 49 50 127 12 55 27 113 32 129 14 45 0 51 -112 48
l-100 -3 17 28 c10 15 24 36 33 46 13 16 13 19 0 33 -8 8 -25 16 -37 19 -17 3
-22 -1 -22 -17z"/>
<path d="M330 283 c0 -114 7 -135 55 -175 71 -58 374 -58 447 1 l22 19 -24 45
-25 46 -20 -42 c-17 -36 -26 -43 -70 -55 -33 -8 -91 -12 -167 -9 -100 3 -122
6 -145 24 -28 20 -28 22 -27 132 0 61 -3 111 -7 111 -4 0 -14 3 -23 6 -14 5
-16 -8 -16 -103z"/>
<path d="M480 351 c0 -20 48 -76 65 -76 27 0 23 44 -6 68 -22 18 -59 23 -59 8z"/>
</g>
</svg>
