<?xml version="1.0" standalone="no"?>
<!DOCTYPE svg PUBLIC "-//W3C//DTD SVG 20010904//EN"
 "http://www.w3.org/TR/2001/REC-SVG-20010904/DTD/svg10.dtd">
<svg version="1.0" xmlns="http://www.w3.org/2000/svg"
 width="96.000000pt" height="68.000000pt" viewBox="0 0 96.000000 68.000000"
 preserveAspectRatio="xMidYMid meet">
<metadata>
Created by potrace 1.16, written by Peter Selinger 2001-2019
</metadata>
<g transform="translate(0.000000,68.000000) scale(0.100000,-0.100000)"
fill="#000000" stroke="none">
<path d="M233 563 c-20 -57 -35 -83 -73 -125 -52 -60 -38 -62 33 -4 53 43 117
65 117 40 0 -7 -4 -15 -10 -19 -5 -3 -19 -19 -30 -35 -33 -47 -3 -37 65 21 33
28 61 55 63 60 2 4 -6 13 -17 19 -16 8 -29 7 -57 -5 -55 -23 -68 -20 -48 10
13 20 14 28 4 40 -17 20 -39 19 -47 -2z"/>
</g>
</svg>
