<?xml version="1.0" standalone="no"?>
<!DOCTYPE svg PUBLIC "-//W3C//DTD SVG 20010904//EN"
 "http://www.w3.org/TR/2001/REC-SVG-20010904/DTD/svg10.dtd">
<svg version="1.0" xmlns="http://www.w3.org/2000/svg"
 width="90.000000pt" height="92.000000pt" viewBox="0 0 90.000000 92.000000"
 preserveAspectRatio="xMidYMid meet">
<metadata>
Created by potrace 1.16, written by Peter Selinger 2001-2019
</metadata>
<g transform="translate(0.000000,92.000000) scale(0.100000,-0.100000)"
fill="#000000" stroke="none">
<path d="M170 749 c-31 -10 -68 -16 -84 -12 l-28 5 8 -43 c10 -56 6 -312 -6
-364 -14 -58 -12 -89 5 -111 14 -18 16 -18 26 -1 8 13 23 17 68 17 56 0 59 -2
71 -30 16 -39 35 -38 56 2 15 28 15 46 4 174 -6 79 -10 147 -7 151 3 5 7 51 8
103 l3 94 -29 18 c-17 10 -32 17 -35 17 -3 -1 -30 -9 -60 -20z m68 -95 l3 -61
-33 -6 c-18 -3 -48 -9 -65 -13 l-33 -6 0 70 c0 79 2 81 80 79 l45 -2 3 -61z
m2 -153 l0 -58 -47 -6 c-27 -3 -56 -9 -65 -12 -16 -6 -18 0 -18 52 l0 59 63
11 c34 5 63 11 65 11 1 1 2 -24 2 -57z m0 -148 c0 -32 -4 -62 -8 -68 -4 -5
-36 -12 -71 -13 l-64 -4 5 56 c3 31 8 59 12 63 6 6 56 16 114 22 8 1 12 -16
12 -56z"/>
<path d="M605 730 c-88 -15 -182 -31 -209 -35 -44 -6 -47 -8 -33 -23 18 -17
56 -20 138 -8 l56 8 6 -39 c8 -48 9 -371 1 -400 -6 -21 -10 -22 -62 -16 l-55
6 59 -56 c66 -64 87 -67 110 -11 11 26 14 91 14 284 l0 250 38 0 c84 0 172 13
172 25 0 11 -61 48 -72 44 -1 -1 -75 -14 -163 -29z"/>
</g>
</svg>
