<?xml version="1.0" standalone="no"?>
<!DOCTYPE svg PUBLIC "-//W3C//DTD SVG 20010904//EN"
 "http://www.w3.org/TR/2001/REC-SVG-20010904/DTD/svg10.dtd">
<svg version="1.0" xmlns="http://www.w3.org/2000/svg"
 width="90.000000pt" height="92.000000pt" viewBox="0 0 90.000000 92.000000"
 preserveAspectRatio="xMidYMid meet">
<metadata>
Created by potrace 1.16, written by Peter Selinger 2001-2019
</metadata>
<g transform="translate(0.000000,92.000000) scale(0.100000,-0.100000)"
fill="#000000" stroke="none">
<path d="M656 730 c97 -96 124 -109 124 -61 0 42 -42 86 -115 121 -107 51
-109 39 -9 -60z"/>
<path d="M216 759 c-49 -16 -66 -17 -94 -8 -42 14 -48 8 -32 -31 9 -22 11 -79
7 -213 -5 -199 -16 -251 -69 -344 -36 -64 -23 -68 29 -9 39 45 68 111 79 183
6 41 7 41 29 27 21 -14 24 -12 64 31 23 25 43 45 46 45 7 0 -8 -215 -16 -232
-7 -14 -15 -15 -41 -7 -18 5 -34 9 -36 9 -2 0 15 -23 38 -50 23 -28 48 -50 56
-50 7 0 21 15 31 33 15 28 17 61 15 277 -2 151 1 258 8 280 10 32 8 37 -17 57
-16 13 -30 22 -33 22 -3 -1 -32 -10 -64 -20z m54 -109 l0 -81 -27 14 c-16 8
-40 17 -55 21 -25 6 -28 11 -28 49 0 62 13 75 78 76 l32 1 0 -80z m-14 -127
c21 4 23 0 22 -28 -1 -29 -7 -35 -55 -59 -29 -14 -58 -26 -63 -26 -11 0 -14
153 -4 163 4 4 23 -7 42 -24 24 -21 42 -29 58 -26z"/>
<path d="M440 762 c0 -21 -41 -84 -83 -129 -17 -18 -28 -33 -24 -33 23 0 88
45 130 88 l47 51 -22 20 c-27 26 -48 27 -48 3z"/>
<path d="M555 615 c-44 -8 -104 -14 -132 -14 -56 -1 -61 -5 -38 -34 7 -11 16
-38 20 -60 13 -86 35 -130 48 -94 2 6 8 8 13 4 24 -22 -47 -173 -114 -242 -30
-31 -32 -35 -14 -35 35 0 119 89 157 165 30 63 32 72 20 91 -16 25 -11 34 21
34 19 0 24 -7 29 -42 3 -24 4 -86 3 -140 -3 -90 -1 -98 21 -122 45 -47 176
-57 243 -18 38 22 41 38 19 96 -11 28 -23 60 -27 71 -5 15 -9 8 -16 -30 -12
-67 -43 -95 -106 -95 -73 0 -92 19 -92 90 0 32 5 82 11 110 8 37 8 54 0 64
-13 16 5 26 46 26 21 0 23 3 14 14 -14 17 -6 38 37 95 l25 34 -27 24 c-30 26
-45 26 -161 8z m90 -35 c4 -6 -1 -32 -10 -59 -15 -47 -17 -49 -62 -55 -25 -3
-63 -6 -85 -6 l-39 0 3 53 3 52 65 11 c85 15 117 16 125 4z"/>
</g>
</svg>
