<?xml version="1.0" standalone="no"?>
<!DOCTYPE svg PUBLIC "-//W3C//DTD SVG 20010904//EN"
 "http://www.w3.org/TR/2001/REC-SVG-20010904/DTD/svg10.dtd">
<svg version="1.0" xmlns="http://www.w3.org/2000/svg"
 width="90.000000pt" height="92.000000pt" viewBox="0 0 90.000000 92.000000"
 preserveAspectRatio="xMidYMid meet">
<metadata>
Created by potrace 1.16, written by Peter Selinger 2001-2019
</metadata>
<g transform="translate(0.000000,92.000000) scale(0.100000,-0.100000)"
fill="#000000" stroke="none">
<path d="M482 838 c5 -24 7 -80 3 -125 -6 -71 -5 -84 10 -89 9 -4 19 -3 23 0
3 4 9 60 13 124 7 123 4 132 -37 132 -21 0 -21 -3 -12 -42z"/>
<path d="M200 843 c0 -5 16 -28 36 -51 44 -52 84 -58 84 -14 0 20 -8 32 -27
44 -35 20 -93 33 -93 21z"/>
<path d="M636 755 c34 -46 81 -78 99 -71 21 7 19 50 -2 68 -21 17 -77 38 -105
38 -17 0 -16 -3 8 -35z"/>
<path d="M370 753 c0 -10 -11 -42 -25 -71 -28 -61 -28 -62 -16 -62 15 0 70 59
87 93 15 28 15 31 -2 44 -25 18 -44 16 -44 -4z"/>
<path d="M130 701 c0 -5 16 -26 34 -46 41 -43 69 -44 74 -2 3 23 -2 30 -32 42
-40 17 -76 20 -76 6z"/>
<path d="M600 656 c-21 -63 -138 -144 -285 -197 l-50 -18 36 0 c83 -2 236 66
322 143 43 39 48 46 38 65 -6 11 -20 25 -30 31 -17 8 -21 5 -31 -24z"/>
<path d="M210 561 c-30 -31 -66 -64 -79 -72 -24 -15 -24 -16 -9 -54 8 -22 20
-41 26 -43 6 -2 22 18 35 45 13 26 40 75 61 107 58 96 48 100 -34 17z"/>
<path d="M540 411 c0 -35 -3 -39 -31 -45 -17 -3 -44 -6 -59 -6 -24 0 -27 3
-23 21 7 24 -18 49 -49 49 -13 0 -18 -8 -18 -27 0 -16 -4 -33 -8 -40 -4 -7
-66 -14 -171 -20 -102 -5 -166 -12 -168 -19 -2 -6 12 -19 30 -29 32 -17 39
-17 118 -2 46 9 105 18 132 21 l47 6 -22 -43 c-13 -23 -23 -46 -23 -51 0 -4
31 -18 69 -30 l69 -21 -55 -38 c-31 -21 -84 -50 -119 -63 l-64 -25 71 4 c73 4
153 37 190 78 16 18 18 18 53 -3 20 -12 56 -37 80 -55 53 -40 81 -43 81 -9 0
36 -42 80 -102 107 l-53 23 35 69 35 69 137 -5 c151 -6 171 0 122 40 -26 21
-36 23 -104 18 -41 -3 -90 -8 -107 -11 -27 -4 -32 -2 -27 11 7 18 -31 65 -53
65 -8 0 -13 -13 -13 -39z m-20 -94 c0 -7 -13 -34 -29 -59 -29 -45 -31 -46 -63
-38 -18 4 -45 11 -61 14 l-27 6 22 40 c19 32 29 40 58 43 78 8 100 7 100 -6z"/>
</g>
</svg>
