<?xml version="1.0" standalone="no"?>
<!DOCTYPE svg PUBLIC "-//W3C//DTD SVG 20010904//EN"
 "http://www.w3.org/TR/2001/REC-SVG-20010904/DTD/svg10.dtd">
<svg version="1.0" xmlns="http://www.w3.org/2000/svg"
 width="96.000000pt" height="68.000000pt" viewBox="0 0 96.000000 68.000000"
 preserveAspectRatio="xMidYMid meet">
<metadata>
Created by potrace 1.16, written by Peter Selinger 2001-2019
</metadata>
<g transform="translate(0.000000,68.000000) scale(0.100000,-0.100000)"
fill="#000000" stroke="none">
<path d="M665 588 c-65 -17 -73 -21 -45 -26 14 -2 50 2 80 8 44 10 51 14 35
21 -23 9 -19 9 -70 -3z"/>
<path d="M246 536 c-18 -59 -60 -129 -123 -204 -25 -29 -43 -56 -39 -59 9 -9
57 25 94 65 l32 37 0 -91 c0 -50 -6 -112 -14 -138 -15 -49 -9 -87 14 -101 26
-16 35 21 46 173 10 134 9 159 -3 174 -13 14 -9 24 33 87 45 69 46 72 28 86
-41 30 -52 26 -68 -29z"/>
<path d="M449 575 c-3 -2 -19 -5 -37 -7 -39 -3 -43 -18 -4 -18 45 0 102 12
102 21 0 9 -53 13 -61 4z"/>
<path d="M685 530 c-22 -5 -57 -9 -78 -9 -32 -1 -36 -3 -28 -18 6 -10 13 -35
16 -55 9 -54 25 -47 25 11 l0 49 55 4 c48 3 55 1 55 -15 0 -10 -5 -27 -10 -38
-7 -12 -7 -26 -2 -35 8 -14 11 -14 23 -1 16 15 45 94 38 101 -10 11 -58 13
-94 6z"/>
<path d="M465 510 c-16 -4 -46 -8 -66 -9 l-36 -1 15 -55 c18 -66 36 -73 26
-10 -7 49 -4 53 55 57 l35 3 -3 -47 c-3 -53 11 -63 27 -20 19 47 25 82 14 82
-6 0 -16 2 -24 4 -7 2 -26 0 -43 -4z"/>
<path d="M650 474 c0 -13 21 -44 30 -44 16 0 11 37 -6 44 -19 7 -24 8 -24 0z"/>
<path d="M430 451 c0 -12 29 -35 36 -28 11 10 -5 37 -21 37 -8 0 -15 -4 -15
-9z"/>
<path d="M540 411 c0 -6 5 -13 10 -16 23 -14 6 -23 -57 -29 -129 -12 -145 -16
-132 -32 16 -19 5 -133 -17 -176 -9 -18 -30 -51 -47 -72 -23 -28 -26 -36 -11
-28 30 16 70 63 94 111 13 26 25 40 31 34 11 -11 14 -88 5 -130 -11 -47 8 -49
70 -8 52 35 70 59 26 36 -36 -19 -52 -14 -52 19 0 28 2 30 40 30 22 0 40 5 40
10 0 6 -15 8 -40 4 -36 -6 -40 -5 -40 15 0 11 -6 21 -12 22 -27 2 39 17 80 18
39 1 42 -1 42 -26 1 -52 12 -108 25 -129 25 -39 151 -58 221 -32 37 13 48 31
35 56 -5 9 -13 26 -16 37 -6 17 -9 15 -22 -17 -12 -30 -21 -39 -50 -44 -53
-10 -125 1 -140 22 -19 26 -12 57 12 59 48 4 155 29 155 37 0 19 -33 19 -80
-1 -55 -24 -94 -28 -87 -8 2 6 -5 22 -16 35 l-20 22 49 0 c42 0 55 5 84 31 33
30 33 32 14 46 -12 10 -35 13 -66 10 -42 -4 -47 -2 -51 20 -4 22 -2 23 55 23
43 0 58 3 55 13 -2 8 -25 12 -64 12 -43 0 -64 5 -77 18 -19 18 -46 23 -46 8z
m-61 -108 c1 -8 -11 -13 -29 -13 -23 0 -30 4 -30 20 0 27 42 44 52 21 4 -9 7
-22 7 -28z m101 22 c0 -21 -5 -25 -30 -25 -16 0 -30 4 -30 9 0 5 -3 16 -6 25
-5 13 1 16 30 16 32 0 36 -3 36 -25z m-2 -57 c-2 -18 -11 -24 -35 -26 -27 -3
-33 0 -33 17 0 14 8 21 28 24 15 2 31 5 35 6 5 0 7 -9 5 -21z m102 8 c0 -15
-21 -26 -51 -26 -12 0 -19 7 -19 20 0 16 7 20 35 20 23 0 35 -5 35 -14z m-192
-18 c-2 -19 -10 -24 -45 -26 -37 -3 -41 -1 -36 17 3 13 15 21 37 24 17 2 35 5
39 5 5 1 7 -8 5 -20z"/>
</g>
</svg>
