<?xml version="1.0" standalone="no"?>
<!DOCTYPE svg PUBLIC "-//W3C//DTD SVG 20010904//EN"
 "http://www.w3.org/TR/2001/REC-SVG-20010904/DTD/svg10.dtd">
<svg version="1.0" xmlns="http://www.w3.org/2000/svg"
 width="90.000000pt" height="92.000000pt" viewBox="0 0 90.000000 92.000000"
 preserveAspectRatio="xMidYMid meet">
<metadata>
Created by potrace 1.16, written by Peter Selinger 2001-2019
</metadata>
<g transform="translate(0.000000,92.000000) scale(0.100000,-0.100000)"
fill="#000000" stroke="none">
<path d="M507 818 c4 -13 8 -59 8 -103 l0 -80 -45 -6 c-25 -4 -47 -5 -49 -3
-2 2 4 15 13 28 23 36 20 61 -9 74 -14 7 -27 12 -29 12 -2 0 -7 -21 -11 -46
-3 -25 -19 -77 -35 -115 -31 -76 -22 -85 25 -23 28 37 32 39 87 39 l56 0 4
-47 c3 -53 10 -50 -145 -64 -83 -7 -102 -17 -65 -35 18 -8 53 -6 133 5 61 8
165 18 233 22 126 7 148 17 97 44 -20 11 -40 11 -103 2 -109 -17 -104 -19
-100 35 l3 47 53 11 c29 7 56 15 60 19 14 15 -25 27 -71 21 l-49 -6 3 86 c3
93 -2 105 -49 105 -20 0 -22 -3 -15 -22z"/>
<path d="M90 743 c0 -5 22 -31 49 -57 55 -54 81 -56 81 -7 0 21 -7 35 -22 45
-28 18 -108 32 -108 19z"/>
<path d="M159 525 c-8 -9 -36 -23 -61 -33 -25 -9 -47 -21 -49 -27 -6 -15 39
-18 72 -4 16 6 32 10 34 8 2 -3 -1 -24 -7 -47 -10 -39 -8 -45 11 -66 25 -27
43 -83 35 -108 -5 -15 -18 -18 -90 -18 -67 0 -84 -3 -84 -15 0 -8 11 -21 23
-30 19 -12 30 -13 56 -4 64 23 174 6 354 -55 92 -31 175 -56 185 -56 24 0 196
58 217 74 15 11 -8 14 -149 20 -153 6 -310 27 -443 59 -42 10 -50 15 -43 27
19 29 11 76 -16 104 -15 14 -31 26 -36 26 -5 0 5 18 24 41 65 80 64 76 26 99
-40 24 -40 24 -59 5z"/>
<path d="M545 405 c-44 -8 -99 -14 -123 -14 -42 -1 -42 -1 -28 -23 8 -13 19
-50 25 -83 6 -32 15 -63 19 -67 4 -4 23 -3 42 2 19 6 62 10 95 10 79 0 104 7
98 28 -2 10 8 40 22 67 l25 50 -25 23 c-29 25 -37 25 -150 7z m86 -80 c-1 -27
-4 -51 -5 -52 -1 -1 -38 -5 -83 -9 l-80 -7 -7 48 c-4 26 -5 49 -3 52 9 8 101
21 142 20 l39 -2 -3 -50z"/>
</g>
</svg>
