<?xml version="1.0" standalone="no"?>
<!DOCTYPE svg PUBLIC "-//W3C//DTD SVG 20010904//EN"
 "http://www.w3.org/TR/2001/REC-SVG-20010904/DTD/svg10.dtd">
<svg version="1.0" xmlns="http://www.w3.org/2000/svg"
 width="96.000000pt" height="68.000000pt" viewBox="0 0 96.000000 68.000000"
 preserveAspectRatio="xMidYMid meet">
<metadata>
Created by potrace 1.16, written by Peter Selinger 2001-2019
</metadata>
<g transform="translate(0.000000,68.000000) scale(0.100000,-0.100000)"
fill="#000000" stroke="none">
<path d="M170 531 c0 -17 62 -61 86 -61 45 0 26 45 -27 60 -42 12 -59 13 -59
1z"/>
<path d="M237 384 c-3 -3 -31 -17 -64 -30 l-58 -25 53 4 53 4 -6 -28 c-5 -21
-1 -36 14 -55 12 -15 21 -39 21 -54 0 -24 -5 -28 -37 -34 -21 -3 -55 -6 -77
-6 -33 0 -37 -2 -26 -15 10 -12 29 -13 99 -9 79 6 98 3 243 -35 180 -47 213
-49 311 -19 91 27 76 33 -113 42 -125 6 -282 24 -357 41 -20 5 -21 8 -11 31
11 24 9 29 -21 56 l-33 30 36 37 c29 29 34 40 24 48 -18 14 -45 23 -51 17z"/>
</g>
</svg>
