<?xml version="1.0" standalone="no"?>
<!DOCTYPE svg PUBLIC "-//W3C//DTD SVG 20010904//EN"
 "http://www.w3.org/TR/2001/REC-SVG-20010904/DTD/svg10.dtd">
<svg version="1.0" xmlns="http://www.w3.org/2000/svg"
 width="96.000000pt" height="68.000000pt" viewBox="0 0 96.000000 68.000000"
 preserveAspectRatio="xMidYMid meet">
<metadata>
Created by potrace 1.16, written by Peter Selinger 2001-2019
</metadata>
<g transform="translate(0.000000,68.000000) scale(0.100000,-0.100000)"
fill="#000000" stroke="none">
<path d="M465 596 c10 -14 27 -27 39 -27 33 -2 -60 -16 -161 -24 -88 -7 -112
-16 -78 -29 22 -8 20 -115 -4 -208 -22 -85 -57 -159 -107 -231 -19 -26 -32
-47 -29 -47 3 0 29 21 56 47 79 74 117 165 144 344 8 50 16 93 19 96 6 7 124
20 249 28 80 6 106 10 97 19 -6 6 -40 10 -83 9 -66 -2 -73 -1 -82 20 -7 15
-20 23 -43 25 l-33 3 16 -25z"/>
</g>
</svg>
