<?xml version="1.0" standalone="no"?>
<!DOCTYPE svg PUBLIC "-//W3C//DTD SVG 20010904//EN"
 "http://www.w3.org/TR/2001/REC-SVG-20010904/DTD/svg10.dtd">
<svg version="1.0" xmlns="http://www.w3.org/2000/svg"
 width="96.000000pt" height="68.000000pt" viewBox="0 0 96.000000 68.000000"
 preserveAspectRatio="xMidYMid meet">
<metadata>
Created by potrace 1.16, written by Peter Selinger 2001-2019
</metadata>
<g transform="translate(0.000000,68.000000) scale(0.100000,-0.100000)"
fill="#000000" stroke="none">
<path d="M396 552 c-3 -5 1 -26 10 -47 10 -24 14 -60 12 -103 l-3 -67 -73 -7
c-40 -3 -76 -8 -79 -11 -16 -17 16 -27 83 -27 l74 0 0 -74 0 -74 -62 -6 c-35
-4 -99 -10 -142 -14 -44 -4 -81 -12 -83 -18 -6 -18 53 -36 99 -31 189 21 433
38 499 35 68 -3 79 -1 79 13 0 33 -52 42 -190 34 l-130 -7 0 76 c0 54 4 76 13
76 6 0 43 5 82 10 73 11 96 23 79 40 -14 14 -56 16 -121 6 l-53 -8 0 44 c0 25
6 66 14 92 l14 47 -26 10 c-43 17 -89 22 -96 11z"/>
</g>
</svg>
