<?xml version="1.0" standalone="no"?>
<!DOCTYPE svg PUBLIC "-//W3C//DTD SVG 20010904//EN"
 "http://www.w3.org/TR/2001/REC-SVG-20010904/DTD/svg10.dtd">
<svg version="1.0" xmlns="http://www.w3.org/2000/svg"
 width="96.000000pt" height="68.000000pt" viewBox="0 0 96.000000 68.000000"
 preserveAspectRatio="xMidYMid meet">
<metadata>
Created by potrace 1.16, written by Peter Selinger 2001-2019
</metadata>
<g transform="translate(0.000000,68.000000) scale(0.100000,-0.100000)"
fill="#000000" stroke="none">
<path d="M317 279 c-16 -16 -45 -38 -65 -49 -28 -14 -32 -19 -17 -20 12 0 36
8 55 18 36 18 122 26 280 27 l85 0 3 -55 c2 -30 -2 -72 -8 -93 -11 -37 -13
-39 -46 -33 -40 8 -42 1 -8 -37 50 -58 96 -10 113 118 5 39 12 78 16 87 4 11
-2 22 -19 34 -24 15 -38 16 -154 5 -70 -7 -140 -15 -157 -18 -26 -5 -28 -4
-16 10 7 9 10 21 6 27 -11 18 -39 10 -68 -21z"/>
</g>
</svg>
