<?xml version="1.0" standalone="no"?>
<!DOCTYPE svg PUBLIC "-//W3C//DTD SVG 20010904//EN"
 "http://www.w3.org/TR/2001/REC-SVG-20010904/DTD/svg10.dtd">
<svg version="1.0" xmlns="http://www.w3.org/2000/svg"
 width="96.000000pt" height="68.000000pt" viewBox="0 0 96.000000 68.000000"
 preserveAspectRatio="xMidYMid meet">
<metadata>
Created by potrace 1.16, written by Peter Selinger 2001-2019
</metadata>
<g transform="translate(0.000000,68.000000) scale(0.100000,-0.100000)"
fill="#000000" stroke="none">
<path d="M559 623 c-1 -5 -2 -12 -4 -18 -1 -5 -3 -20 -3 -32 -2 -20 -8 -23
-43 -23 -24 0 -38 -4 -34 -10 3 -5 19 -10 35 -10 23 0 27 -3 23 -20 -7 -28 11
-25 31 5 14 21 24 24 83 27 81 4 87 22 9 26 -46 2 -54 6 -49 19 4 9 -1 21 -12
29 -21 16 -34 18 -36 7z"/>
<path d="M290 603 c1 -5 7 -19 15 -33 8 -14 14 -28 15 -32 0 -5 -30 -8 -67 -8
l-68 -1 24 -20 c17 -14 33 -18 49 -14 75 19 79 18 86 -9 9 -36 26 -33 26 4 0
26 5 31 30 37 42 8 38 23 -5 16 -31 -5 -35 -3 -35 15 0 11 -7 28 -16 36 -16
16 -54 22 -54 9z"/>
</g>
</svg>
