<?xml version="1.0" standalone="no"?>
<!DOCTYPE svg PUBLIC "-//W3C//DTD SVG 20010904//EN"
 "http://www.w3.org/TR/2001/REC-SVG-20010904/DTD/svg10.dtd">
<svg version="1.0" xmlns="http://www.w3.org/2000/svg"
 width="90.000000pt" height="92.000000pt" viewBox="0 0 90.000000 92.000000"
 preserveAspectRatio="xMidYMid meet">
<metadata>
Created by potrace 1.16, written by Peter Selinger 2001-2019
</metadata>
<g transform="translate(0.000000,92.000000) scale(0.100000,-0.100000)"
fill="#000000" stroke="none">
<path d="M490 813 c0 -41 -60 -171 -113 -247 -51 -73 -47 -84 11 -31 l38 34
30 -18 c16 -10 37 -27 47 -39 18 -20 18 -21 -25 -69 -58 -65 -93 -96 -156
-140 -28 -20 -50 -38 -49 -40 8 -7 74 22 125 54 29 18 76 58 105 88 l53 54 54
-54 c78 -79 105 -90 191 -74 38 7 72 15 74 19 2 4 -42 24 -98 45 -112 41 -201
93 -188 110 4 5 23 35 43 65 20 30 45 64 57 74 30 27 26 44 -13 63 -32 15 -39
15 -93 0 -33 -10 -62 -17 -66 -17 -4 0 5 23 19 52 l26 52 -26 23 c-35 30 -46
29 -46 -4z m130 -148 c0 -9 -47 -98 -62 -118 -14 -18 -16 -18 -61 13 -26 17
-47 34 -47 37 0 20 47 59 78 64 51 8 92 10 92 4z"/>
<path d="M190 720 c-41 -10 -92 -19 -113 -19 -57 -1 -42 -25 19 -29 27 -2 52
-6 56 -10 3 -4 9 -39 13 -79 l7 -72 -51 -7 c-84 -11 -84 -38 -1 -36 l50 1 0
-84 0 -83 -80 -27 c-44 -15 -80 -30 -80 -35 0 -10 49 -50 60 -50 13 0 265 160
268 171 2 5 -26 -2 -63 -16 l-66 -25 6 73 c9 96 7 93 55 100 23 3 45 8 48 12
11 11 -22 25 -61 25 l-37 0 2 75 3 75 35 6 c19 4 46 11 59 16 19 7 21 11 11
23 -15 19 -44 17 -140 -5z"/>
<path d="M590 314 c-36 -7 -98 -14 -137 -16 -68 -3 -86 -9 -64 -23 5 -3 15
-31 21 -63 22 -111 30 -134 44 -123 6 5 60 14 119 19 108 9 133 16 108 31 -10
6 -6 23 19 77 l31 69 -26 23 c-29 25 -26 25 -115 6z m60 -44 c0 -5 -5 -31 -11
-59 -11 -55 -10 -54 -120 -67 l-57 -6 -7 43 c-3 24 -9 51 -11 60 -4 13 7 19
53 27 77 13 153 14 153 2z"/>
</g>
</svg>
