<?xml version="1.0" standalone="no"?>
<!DOCTYPE svg PUBLIC "-//W3C//DTD SVG 20010904//EN"
 "http://www.w3.org/TR/2001/REC-SVG-20010904/DTD/svg10.dtd">
<svg version="1.0" xmlns="http://www.w3.org/2000/svg"
 width="90.000000pt" height="92.000000pt" viewBox="0 0 90.000000 92.000000"
 preserveAspectRatio="xMidYMid meet">
<metadata>
Created by potrace 1.16, written by Peter Selinger 2001-2019
</metadata>
<g transform="translate(0.000000,92.000000) scale(0.100000,-0.100000)"
fill="#000000" stroke="none">
<path d="M195 808 c3 -18 6 -67 7 -108 l3 -75 -70 -8 c-98 -12 -105 -15 -80
-34 15 -11 36 -13 88 -9 l67 6 0 -44 0 -44 -60 -7 c-33 -4 -60 -11 -60 -15 0
-15 55 -27 89 -19 19 4 70 10 113 14 43 4 78 11 78 15 0 19 -33 32 -70 28
l-40 -4 0 42 c0 40 1 42 38 48 54 10 102 26 102 36 0 17 -56 31 -84 20 -57
-21 -59 -19 -54 80 6 98 0 110 -52 110 -18 0 -20 -4 -15 -32z"/>
<path d="M595 784 c-77 -13 -152 -23 -167 -23 -16 -1 -28 -6 -28 -11 0 -17 52
-31 91 -25 48 8 54 -4 34 -65 -16 -47 -19 -50 -51 -50 -32 0 -35 -2 -27 -22 9
-25 10 -155 3 -254 -4 -43 -1 -66 9 -78 13 -15 15 -15 26 1 8 10 16 15 20 11
12 -12 -28 -73 -94 -142 -51 -53 -60 -67 -41 -61 53 17 220 150 220 176 0 5
-8 13 -17 17 -14 5 -12 8 12 13 17 4 48 7 71 8 34 1 43 -3 52 -24 13 -27 26
-32 39 -12 4 6 11 86 14 177 3 91 7 171 10 179 2 8 -10 22 -28 33 -32 19 -33
19 -122 0 l-91 -20 35 41 c39 45 43 62 19 75 -18 10 70 22 162 22 59 0 72 10
46 32 -29 26 -52 26 -197 2z m93 -186 c7 -7 12 -27 12 -45 0 -30 -2 -33 -24
-27 -12 3 -57 -2 -99 -10 -42 -9 -78 -16 -79 -16 -10 0 6 80 16 81 6 0 38 6
71 14 77 17 88 18 103 3z m14 -155 c-3 -17 -9 -22 -23 -18 -10 3 -52 -1 -93
-9 -41 -9 -80 -16 -86 -16 -5 0 -10 18 -10 40 0 37 2 40 23 35 12 -3 58 1 102
8 88 14 97 10 87 -40z m0 -85 l-4 -43 -81 -2 c-45 -1 -92 -5 -104 -8 -21 -5
-23 -2 -23 33 0 36 2 38 28 35 21 -3 101 9 182 26 3 1 4 -18 2 -41z"/>
<path d="M250 384 c-36 -7 -86 -13 -112 -14 -48 0 -57 -7 -38 -26 6 -6 17 -43
24 -83 15 -78 31 -106 45 -82 5 8 43 17 95 24 76 9 86 12 81 28 -4 10 5 42 19
71 l26 53 -26 23 c-28 25 -25 25 -114 6z m60 -71 c0 -53 -8 -61 -74 -75 -66
-13 -76 -7 -76 50 0 17 -1 35 -2 39 -4 10 46 20 105 22 l47 1 0 -37z"/>
<path d="M640 235 c0 -3 29 -42 65 -89 83 -107 105 -118 105 -51 0 40 -30 80
-81 106 -49 25 -89 40 -89 34z"/>
</g>
</svg>
