<?xml version="1.0" standalone="no"?>
<!DOCTYPE svg PUBLIC "-//W3C//DTD SVG 20010904//EN"
 "http://www.w3.org/TR/2001/REC-SVG-20010904/DTD/svg10.dtd">
<svg version="1.0" xmlns="http://www.w3.org/2000/svg"
 width="90.000000pt" height="92.000000pt" viewBox="0 0 90.000000 92.000000"
 preserveAspectRatio="xMidYMid meet">
<metadata>
Created by potrace 1.16, written by Peter Selinger 2001-2019
</metadata>
<g transform="translate(0.000000,92.000000) scale(0.100000,-0.100000)"
fill="#000000" stroke="none">
<path d="M174 818 c3 -18 9 -64 13 -102 7 -79 5 -82 -77 -91 -81 -9 -89 -13
-65 -31 14 -11 35 -13 82 -8 l63 7 0 -65 0 -66 -67 -40 c-38 -22 -80 -46 -95
-53 -36 -16 -38 -55 -4 -70 21 -10 30 -5 86 47 34 33 66 61 72 63 10 3 4 -126
-9 -192 -5 -28 -6 -29 -52 -22 l-46 7 34 -34 c19 -18 40 -43 49 -55 20 -31 39
-29 57 7 11 22 15 64 15 181 l0 151 43 39 c40 36 35 55 -7 24 -31 -23 -36 -18
-36 35 l0 49 43 11 c71 19 77 21 77 30 0 20 -41 32 -72 21 -17 -6 -33 -11 -36
-11 -5 0 4 85 13 135 6 26 2 32 -23 48 -48 28 -65 23 -58 -15z"/>
<path d="M600 733 c-41 -6 -103 -13 -138 -13 -55 -2 -63 -4 -57 -18 14 -35 17
-83 10 -146 l-7 -66 -64 0 c-35 0 -64 -4 -64 -10 0 -18 60 -42 91 -35 16 4 29
5 29 2 0 -10 -39 -115 -53 -140 -8 -15 -12 -38 -9 -52 5 -30 1 -29 43 -8 24
13 66 19 147 21 126 5 125 6 92 -67 l-20 -44 -46 7 -45 6 42 -50 c23 -28 47
-50 54 -50 30 0 84 102 85 157 l0 32 48 -15 c82 -27 92 -28 92 -9 0 29 -58 75
-95 75 l-33 0 5 68 c2 37 6 73 8 80 3 8 27 12 74 12 38 0 72 4 75 9 3 4 -4 17
-15 27 -15 14 -36 19 -76 19 l-55 0 6 63 c4 34 12 73 18 87 24 53 -33 77 -142
58z m68 -125 l-3 -93 -100 -7 c-54 -4 -100 -6 -102 -4 -2 1 0 44 3 94 l7 91
41 4 c23 2 67 4 99 5 l58 2 -3 -92z m-3 -170 c-3 -18 -7 -54 -10 -79 l-6 -47
-117 -4 c-64 -2 -119 -3 -121 -2 -2 2 5 37 15 78 l19 75 40 4 c22 2 72 4 112
5 l72 2 -4 -32z"/>
<path d="M522 579 c12 -22 28 -45 35 -51 21 -17 43 -1 43 32 0 26 -6 33 -35
46 -61 25 -70 20 -43 -27z"/>
<path d="M490 415 c0 -18 56 -85 71 -85 20 0 33 29 24 52 -10 24 -95 54 -95
33z"/>
</g>
</svg>
