<?xml version="1.0" standalone="no"?>
<!DOCTYPE svg PUBLIC "-//W3C//DTD SVG 20010904//EN"
 "http://www.w3.org/TR/2001/REC-SVG-20010904/DTD/svg10.dtd">
<svg version="1.0" xmlns="http://www.w3.org/2000/svg"
 width="90.000000pt" height="92.000000pt" viewBox="0 0 90.000000 92.000000"
 preserveAspectRatio="xMidYMid meet">
<metadata>
Created by potrace 1.16, written by Peter Selinger 2001-2019
</metadata>
<g transform="translate(0.000000,92.000000) scale(0.100000,-0.100000)"
fill="#000000" stroke="none">
<path d="M540 858 c0 -57 -9 -68 -59 -75 -22 -3 -41 -9 -41 -13 0 -11 26 -20
56 -20 21 0 23 -3 14 -26 -16 -41 -11 -51 13 -23 12 14 27 34 32 44 8 14 28
19 88 23 43 2 80 8 83 13 2 4 -8 15 -24 23 -21 11 -38 12 -68 6 -56 -13 -56
-13 -38 22 16 31 16 32 -6 50 -37 30 -50 23 -50 -24z"/>
<path d="M248 864 c-4 -3 2 -24 12 -47 l19 -42 -47 -8 c-26 -4 -59 -5 -74 -2
-35 6 -35 -5 -3 -35 23 -22 28 -22 66 -11 23 7 47 15 54 17 8 4 17 -8 25 -30
15 -47 30 -46 30 3 0 36 3 40 35 51 48 16 45 34 -4 25 l-38 -6 -7 39 c-4 30
-11 41 -28 46 -29 7 -33 7 -40 0z"/>
<path d="M606 640 c3 -68 2 -71 -22 -80 -53 -20 -64 -14 -64 35 0 40 -3 47
-27 56 -33 12 -49 -1 -34 -29 6 -11 11 -34 11 -50 0 -31 -14 -42 -53 -42 -22
-1 -22 -1 -3 -15 11 -8 27 -15 37 -15 11 0 19 -11 23 -31 10 -53 8 -56 -44
-63 -40 -5 -54 -3 -67 9 -12 13 -27 15 -65 10 -48 -7 -50 -6 -46 16 2 20 12
26 51 34 60 13 61 30 1 30 -44 0 -45 1 -42 29 3 26 9 31 56 44 55 15 66 34 32
52 -17 9 -28 7 -54 -9 l-32 -20 4 29 c4 25 0 31 -23 40 -48 18 -52 10 -29 -71
5 -17 -15 -28 -86 -48 -32 -10 -29 -10 27 -8 63 3 63 3 63 -24 0 -25 -4 -28
-50 -34 -27 -4 -52 -11 -55 -15 -8 -14 34 -22 72 -15 33 6 34 5 31 -22 -3 -27
-7 -29 -100 -48 -54 -10 -98 -23 -98 -27 0 -5 12 -14 26 -20 25 -12 33 -10
138 20 29 8 -51 -104 -119 -166 -31 -29 -52 -52 -45 -52 28 0 92 44 140 97
l53 58 -8 -85 c-10 -111 -8 -141 8 -157 12 -12 16 -11 28 3 10 13 13 45 11
135 -1 66 1 119 6 119 4 0 22 -20 40 -45 33 -47 57 -57 64 -27 9 34 -10 60
-61 83 -71 32 -69 54 7 65 45 7 63 6 89 -7 28 -14 40 -15 102 -3 39 7 127 18
197 24 70 5 129 12 131 13 2 2 -6 12 -16 21 -22 20 -44 22 -118 11 l-53 -8 0
34 c0 47 8 56 63 69 26 7 47 16 47 21 0 16 -40 29 -66 23 l-27 -7 7 51 c6 45
4 52 -16 66 -40 28 -46 21 -42 -54z m-6 -164 c0 -37 -4 -45 -22 -50 -51 -13
-58 -9 -58 38 0 47 -1 46 68 55 8 0 12 -14 12 -43z"/>
<path d="M570 338 c-41 -12 -79 -17 -103 -13 -36 5 -38 4 -31 -17 7 -24 7
-139 -2 -172 -6 -25 11 -76 26 -76 5 0 10 6 10 14 0 10 20 14 77 15 42 1 80 4
85 7 4 3 15 -12 23 -33 l16 -38 24 27 c22 26 23 33 20 153 -4 167 -11 173
-145 133z m90 -62 c0 -32 -2 -33 -47 -40 -27 -3 -67 -10 -90 -15 l-43 -8 0 37
c0 35 3 39 38 48 20 5 61 10 90 11 l52 1 0 -34z m0 -110 l0 -33 -91 -7 c-50
-4 -94 -5 -96 -2 -8 7 8 67 16 62 4 -3 29 -1 57 3 27 5 64 9 82 10 30 1 32 -1
32 -33z"/>
</g>
</svg>
