<?xml version="1.0" standalone="no"?>
<!DOCTYPE svg PUBLIC "-//W3C//DTD SVG 20010904//EN"
 "http://www.w3.org/TR/2001/REC-SVG-20010904/DTD/svg10.dtd">
<svg version="1.0" xmlns="http://www.w3.org/2000/svg"
 width="96.000000pt" height="68.000000pt" viewBox="0 0 96.000000 68.000000"
 preserveAspectRatio="xMidYMid meet">
<metadata>
Created by potrace 1.16, written by Peter Selinger 2001-2019
</metadata>
<g transform="translate(0.000000,68.000000) scale(0.100000,-0.100000)"
fill="#000000" stroke="none">
<path d="M580 591 c0 -38 -23 -61 -63 -61 -24 0 -28 -3 -17 -10 8 -5 25 -10
36 -10 18 0 20 -5 17 -27 l-4 -28 28 33 c22 26 36 32 68 33 22 1 54 5 70 9
l30 7 -27 11 c-15 6 -43 8 -62 5 -39 -6 -42 -3 -26 28 9 16 7 21 -15 29 -36
14 -35 14 -35 -19z"/>
<path d="M324 589 c-3 -5 0 -18 6 -29 17 -31 4 -40 -58 -40 l-57 -1 24 -20
c14 -11 31 -17 40 -14 9 4 30 9 46 12 26 4 33 1 45 -24 l14 -28 5 35 c5 29 11
36 34 38 38 5 34 20 -5 18 -29 -1 -33 3 -36 25 -2 19 -10 28 -28 32 -13 2 -27
1 -30 -4z"/>
</g>
</svg>
