<?xml version="1.0" standalone="no"?>
<!DOCTYPE svg PUBLIC "-//W3C//DTD SVG 20010904//EN"
 "http://www.w3.org/TR/2001/REC-SVG-20010904/DTD/svg10.dtd">
<svg version="1.0" xmlns="http://www.w3.org/2000/svg"
 width="90.000000pt" height="92.000000pt" viewBox="0 0 90.000000 92.000000"
 preserveAspectRatio="xMidYMid meet">
<metadata>
Created by potrace 1.16, written by Peter Selinger 2001-2019
</metadata>
<g transform="translate(0.000000,92.000000) scale(0.100000,-0.100000)"
fill="#000000" stroke="none">
<path d="M176 862 c-3 -4 -1 -26 4 -48 5 -21 10 -78 10 -126 l0 -86 -52 -12
c-29 -6 -64 -14 -78 -16 -25 -6 -25 -6 -5 -21 14 -10 33 -13 68 -8 29 3 47 2
47 -4 0 -32 -66 -143 -133 -223 -43 -53 -39 -61 11 -24 41 29 75 68 113 126
l30 45 -6 -105 c-4 -58 -11 -134 -16 -169 -10 -64 1 -131 21 -131 23 0 30 50
30 224 0 102 3 186 6 186 4 0 21 -17 39 -37 32 -37 55 -39 55 -3 0 22 -31 45
-72 55 -49 12 -30 73 27 89 21 6 40 17 43 24 6 18 -45 34 -69 22 -18 -10 -19
-7 -18 42 0 29 4 75 8 103 5 27 6 56 4 63 -7 17 -60 44 -67 34z"/>
<path d="M630 833 c0 -32 -29 -100 -61 -144 -32 -45 -14 -48 31 -4 21 21 50
39 62 41 13 1 50 7 83 13 32 6 60 11 62 11 2 0 3 5 3 10 0 23 -52 31 -92 15
-55 -22 -62 -19 -37 16 l22 32 -22 18 c-33 27 -51 24 -51 -8z"/>
<path d="M395 793 c-3 -21 -22 -67 -41 -102 -18 -36 -32 -67 -29 -69 2 -3 24
15 47 38 24 24 52 44 63 45 56 5 115 18 115 26 0 18 -33 22 -74 11 -22 -6 -42
-9 -44 -8 -1 2 8 16 20 31 l22 28 -23 18 c-34 28 -48 23 -56 -18z"/>
<path d="M635 682 c-9 -9 57 -72 77 -72 18 0 24 25 10 46 -8 14 -78 35 -87 26z"/>
<path d="M420 662 c0 -17 49 -54 64 -49 24 9 19 35 -6 42 -13 4 -31 9 -40 11
-10 3 -18 1 -18 -4z"/>
<path d="M450 574 c-25 -8 -62 -14 -82 -12 -43 3 -56 -6 -39 -26 15 -18 16
-256 1 -306 -13 -45 -13 -53 4 -75 13 -18 17 -16 72 30 33 27 67 55 76 63 14
12 19 11 35 -7 27 -32 53 -27 53 9 0 34 -26 56 -79 66 l-33 7 16 -25 c16 -24
16 -24 -37 -46 -29 -12 -56 -22 -60 -22 -4 0 -7 27 -7 60 0 66 6 73 72 83 27
4 38 2 42 -10 10 -26 31 1 50 69 11 35 25 75 33 90 13 27 12 29 -19 48 -38 23
-38 23 -98 4z m49 -66 c-2 -80 -9 -91 -67 -104 l-52 -12 0 28 c0 27 4 29 55
40 68 14 74 34 10 33 -5 0 -20 -3 -33 -7 -21 -7 -23 -5 -20 21 2 22 9 29 33
34 70 15 75 13 74 -33z"/>
<path d="M725 564 c-24 -9 -56 -13 -80 -10 l-40 5 3 -257 c2 -141 7 -261 12
-266 17 -17 28 71 34 269 4 110 11 204 15 208 5 5 27 11 50 14 l41 6 0 -96 c0
-118 -3 -127 -45 -127 l-33 0 35 -35 c20 -20 42 -34 50 -31 25 10 43 73 43
148 0 40 5 89 10 108 9 32 8 37 -15 58 -30 25 -28 25 -80 6z"/>
</g>
</svg>
