<?xml version="1.0" standalone="no"?>
<!DOCTYPE svg PUBLIC "-//W3C//DTD SVG 20010904//EN"
 "http://www.w3.org/TR/2001/REC-SVG-20010904/DTD/svg10.dtd">
<svg version="1.0" xmlns="http://www.w3.org/2000/svg"
 width="96.000000pt" height="68.000000pt" viewBox="0 0 96.000000 68.000000"
 preserveAspectRatio="xMidYMid meet">
<metadata>
Created by potrace 1.16, written by Peter Selinger 2001-2019
</metadata>
<g transform="translate(0.000000,68.000000) scale(0.100000,-0.100000)"
fill="#000000" stroke="none">
<path d="M288 605 c-3 -4 -2 -21 3 -38 5 -18 9 -57 9 -88 l0 -56 -66 -6 c-37
-4 -69 -9 -73 -12 -14 -15 29 -26 82 -21 l57 6 0 -41 0 -40 -96 -46 -96 -46
20 -20 c26 -26 54 -19 115 29 26 20 49 35 52 32 3 -2 2 -34 -2 -71 -6 -71 -11
-75 -57 -57 -37 14 -32 3 20 -46 74 -68 94 -43 94 116 0 99 0 100 30 122 30
22 41 45 18 35 -51 -21 -50 -21 -46 8 2 23 10 30 42 39 52 15 51 30 -1 34 -50
4 -53 13 -27 88 13 39 14 49 2 60 -15 16 -70 29 -80 19z"/>
<path d="M560 569 c0 -28 -53 -132 -90 -177 -51 -61 -38 -63 27 -4 20 18 43
24 121 32 53 5 108 10 121 10 l24 0 -6 -122 c-2 -68 -11 -141 -18 -163 -14
-39 -15 -40 -62 -40 -26 0 -47 -1 -47 -2 0 -7 72 -73 80 -73 12 0 43 30 65 63
10 15 19 64 25 133 5 60 12 132 16 159 5 48 4 52 -20 63 -21 9 -48 9 -132 -4
-58 -8 -107 -14 -110 -12 -2 2 12 30 31 61 39 64 43 82 19 91 -29 11 -44 6
-44 -15z"/>
<path d="M545 319 c-22 -4 -57 -8 -77 -8 l-36 -1 13 -37 c8 -21 16 -51 20 -66
6 -30 -3 -29 110 -12 23 4 35 11 35 22 0 8 10 33 22 55 19 33 20 40 8 48 -17
11 -39 11 -95 -1z m41 -51 c-9 -44 -23 -58 -61 -58 -30 0 -33 3 -38 37 -8 45
2 53 62 53 l44 0 -7 -32z"/>
</g>
</svg>
