<?xml version="1.0" standalone="no"?>
<!DOCTYPE svg PUBLIC "-//W3C//DTD SVG 20010904//EN"
 "http://www.w3.org/TR/2001/REC-SVG-20010904/DTD/svg10.dtd">
<svg version="1.0" xmlns="http://www.w3.org/2000/svg"
 width="90.000000pt" height="92.000000pt" viewBox="0 0 90.000000 92.000000"
 preserveAspectRatio="xMidYMid meet">
<metadata>
Created by potrace 1.16, written by Peter Selinger 2001-2019
</metadata>
<g transform="translate(0.000000,92.000000) scale(0.100000,-0.100000)"
fill="#000000" stroke="none">
<path d="M371 833 c6 -15 20 -43 31 -61 11 -18 19 -35 16 -37 -2 -2 -53 -7
-114 -11 -108 -6 -110 -6 -120 17 -10 21 -13 18 -43 -46 -35 -76 -36 -99 -5
-103 17 -2 27 7 44 42 19 40 26 46 53 46 18 0 68 6 112 14 114 20 305 39 313
31 4 -3 -3 -25 -15 -47 l-23 -40 23 6 c12 3 48 11 80 17 50 10 58 15 55 32 -2
12 -22 35 -45 53 l-41 31 -69 -12 c-37 -7 -87 -15 -110 -19 l-42 -6 -3 37 c-2
30 -10 42 -37 60 -19 13 -42 23 -52 23 -16 0 -17 -4 -8 -27z"/>
<path d="M452 614 c-24 -7 -79 -18 -123 -25 -43 -6 -79 -15 -79 -19 0 -4 11
-12 24 -18 18 -8 44 -5 121 15 53 13 99 22 102 19 4 -3 -9 -28 -28 -56 -24
-35 -41 -50 -56 -50 -27 0 -27 1 -7 -39 9 -18 14 -34 13 -35 -6 -5 -292 -36
-328 -36 -42 0 -39 -14 6 -35 36 -17 42 -17 118 -2 44 10 109 20 144 24 l63 6
-4 -106 c-2 -59 -8 -111 -14 -117 -8 -8 -24 -7 -55 4 -24 8 -44 14 -46 12 -1
-1 24 -29 57 -61 50 -49 61 -56 74 -46 26 21 36 80 36 204 l0 117 171 0 c157
0 170 1 167 18 -2 9 -20 25 -41 35 -32 16 -44 17 -87 8 -28 -6 -89 -14 -135
-17 -73 -6 -85 -5 -85 9 0 8 -3 22 -6 30 -4 11 19 31 74 68 44 29 78 58 76 64
-7 18 -60 45 -86 44 -12 -1 -42 -7 -66 -15z"/>
</g>
</svg>
