<?xml version="1.0" standalone="no"?>
<!DOCTYPE svg PUBLIC "-//W3C//DTD SVG 20010904//EN"
 "http://www.w3.org/TR/2001/REC-SVG-20010904/DTD/svg10.dtd">
<svg version="1.0" xmlns="http://www.w3.org/2000/svg"
 width="90.000000pt" height="92.000000pt" viewBox="0 0 90.000000 92.000000"
 preserveAspectRatio="xMidYMid meet">
<metadata>
Created by potrace 1.16, written by Peter Selinger 2001-2019
</metadata>
<g transform="translate(0.000000,92.000000) scale(0.100000,-0.100000)"
fill="#000000" stroke="none">
<path d="M185 802 c-9 -50 -60 -143 -107 -197 -22 -25 -35 -45 -30 -45 16 0
89 57 111 88 13 19 29 30 43 29 13 -1 35 2 51 6 35 10 34 1 -8 -71 -38 -65
-50 -72 -132 -72 -52 0 -63 -6 -43 -26 5 -5 14 -43 20 -84 6 -41 13 -83 16
-92 6 -19 20 -24 26 -9 2 5 40 15 86 21 65 9 87 8 98 -1 22 -18 32 -3 55 82
11 41 24 82 30 92 22 39 -50 70 -112 48 -18 -6 -34 -10 -35 -8 -2 2 28 37 67
77 l71 74 -22 18 c-27 22 -42 22 -82 2 -18 -9 -45 -20 -61 -25 l-28 -8 25 44
c29 48 27 67 -9 83 -21 10 -23 8 -30 -26z m145 -286 c0 -32 -1 -33 -41 -33
-35 0 -40 2 -36 18 3 11 0 22 -6 26 -7 5 0 10 18 14 60 13 65 11 65 -25z
m-125 -17 c8 -25 -8 -39 -47 -39 -24 0 -28 4 -28 30 0 28 3 30 34 30 27 0 36
-5 41 -21z m119 -66 c-3 -16 -7 -33 -9 -39 -3 -11 -75 -7 -75 5 1 32 15 50 44
54 17 2 34 5 39 5 4 1 5 -10 1 -25z m-114 -23 c0 -20 -6 -29 -22 -34 -48 -12
-58 -8 -58 27 0 31 2 32 40 33 37 1 40 0 40 -26z"/>
<path d="M670 769 c-41 -11 -117 -22 -167 -26 -93 -6 -105 -11 -80 -32 8 -6
19 -42 26 -81 12 -67 26 -93 40 -73 6 10 152 33 208 33 17 0 33 -5 35 -12 9
-26 35 4 57 66 13 36 27 69 32 72 20 12 7 35 -31 54 -21 11 -41 20 -42 19 -2
-1 -37 -10 -78 -20z m79 -61 c-2 -67 -11 -80 -56 -82 l-41 -2 20 39 c11 22 17
48 15 58 -4 16 1 19 29 19 32 0 34 -2 33 -32z m-110 -33 c-2 -44 -6 -56 -21
-61 -25 -8 -25 -8 -36 53 -10 56 -7 61 36 62 22 1 23 -2 21 -54z m-85 -27 l7
-48 -34 0 c-32 0 -35 3 -41 38 -10 60 -7 70 17 74 31 6 44 -10 51 -64z"/>
<path d="M590 525 c15 -18 14 -290 -2 -335 -11 -33 3 -110 21 -110 29 0 36 37
38 204 1 94 6 183 12 198 9 23 7 30 -12 43 -12 8 -32 15 -45 15 -20 0 -22 -3
-12 -15z"/>
<path d="M749 478 c-12 -24 -31 -54 -43 -67 l-21 -25 40 24 c22 13 52 30 67
39 33 19 35 32 10 54 -26 24 -29 22 -53 -25z"/>
<path d="M450 473 c0 -18 77 -96 88 -89 16 10 15 41 -1 55 -20 16 -87 42 -87
34z"/>
<path d="M736 284 c65 -76 73 -84 92 -84 19 0 14 54 -8 78 -21 23 -77 54 -119
67 -20 6 -14 -5 35 -61z"/>
<path d="M516 304 c-27 -18 -62 -36 -78 -39 -15 -4 -28 -10 -28 -14 0 -14 32
-51 44 -51 21 0 126 123 115 134 -2 2 -26 -11 -53 -30z"/>
<path d="M300 303 c1 -16 65 -116 75 -117 6 0 11 16 13 36 3 33 -1 39 -35 62
-39 27 -53 32 -53 19z"/>
<path d="M46 239 c-29 -53 -30 -99 -1 -99 31 0 64 127 37 144 -4 2 -20 -18
-36 -45z"/>
<path d="M220 276 c0 -19 43 -80 55 -78 23 3 16 50 -11 71 -31 24 -44 27 -44
7z"/>
<path d="M130 275 c0 -19 45 -95 54 -92 22 7 18 46 -8 72 -23 23 -46 33 -46
20z"/>
</g>
</svg>
