<?xml version="1.0" standalone="no"?>
<!DOCTYPE svg PUBLIC "-//W3C//DTD SVG 20010904//EN"
 "http://www.w3.org/TR/2001/REC-SVG-20010904/DTD/svg10.dtd">
<svg version="1.0" xmlns="http://www.w3.org/2000/svg"
 width="96.000000pt" height="68.000000pt" viewBox="0 0 96.000000 68.000000"
 preserveAspectRatio="xMidYMid meet">
<metadata>
Created by potrace 1.16, written by Peter Selinger 2001-2019
</metadata>
<g transform="translate(0.000000,68.000000) scale(0.100000,-0.100000)"
fill="#000000" stroke="none">
<path d="M624 346 c-3 -8 -3 -62 0 -120 2 -58 2 -106 -2 -106 -4 0 -8 -13 -9
-29 -2 -34 21 -61 31 -35 3 9 3 21 -1 26 -3 6 -2 8 4 5 9 -6 9 30 0 141 -2 17
1 32 5 32 4 0 8 9 8 21 0 13 -4 18 -12 13 -9 -6 -9 -3 0 9 8 9 11 25 7 37 -7
23 -23 26 -31 6z"/>
<path d="M749 309 c-20 -28 -20 -30 -3 -21 10 6 28 18 39 26 19 15 19 16 1 9
-13 -4 -17 -3 -12 5 16 25 -4 10 -25 -19z"/>
<path d="M520 285 c24 -25 50 -33 50 -16 0 6 -5 13 -12 17 -7 5 -8 2 -3 -7 4
-8 -2 -4 -14 9 -12 12 -27 22 -33 22 -6 0 -1 -11 12 -25z"/>
<path d="M715 210 c4 -6 13 -10 21 -10 8 0 13 -4 10 -9 -4 -5 8 -21 25 -35 46
-39 65 -33 33 12 -8 12 -20 20 -25 17 -5 -4 -9 -2 -9 3 0 6 -14 15 -30 21 -18
6 -28 6 -25 1z m85 -53 c0 -9 -36 9 -44 22 -4 5 5 4 19 -2 14 -7 25 -16 25
-20z"/>
<path d="M555 190 c-3 -6 -26 -15 -50 -21 -25 -6 -42 -15 -39 -20 3 -5 9 -7
14 -4 4 3 10 0 12 -7 3 -7 20 3 44 25 21 20 36 37 32 37 -4 0 -10 -5 -13 -10z"/>
</g>
</svg>
