<?xml version="1.0" standalone="no"?>
<!DOCTYPE svg PUBLIC "-//W3C//DTD SVG 20010904//EN"
 "http://www.w3.org/TR/2001/REC-SVG-20010904/DTD/svg10.dtd">
<svg version="1.0" xmlns="http://www.w3.org/2000/svg"
 width="96.000000pt" height="68.000000pt" viewBox="0 0 96.000000 68.000000"
 preserveAspectRatio="xMidYMid meet">
<metadata>
Created by potrace 1.16, written by Peter Selinger 2001-2019
</metadata>
<g transform="translate(0.000000,68.000000) scale(0.100000,-0.100000)"
fill="#000000" stroke="none">
<path d="M455 405 c-60 -7 -120 -11 -132 -8 l-23 5 20 -43 c13 -30 25 -43 37
-42 10 1 66 5 126 9 78 5 107 10 107 20 0 7 10 20 22 28 25 18 17 32 -22 39
-14 3 -74 -1 -135 -8z m105 -29 c0 -19 -15 -23 -119 -31 -88 -7 -91 -7 -91 13
0 18 7 21 58 25 135 8 152 7 152 -7z"/>
</g>
</svg>
