<?xml version="1.0" standalone="no"?>
<!DOCTYPE svg PUBLIC "-//W3C//DTD SVG 20010904//EN"
 "http://www.w3.org/TR/2001/REC-SVG-20010904/DTD/svg10.dtd">
<svg version="1.0" xmlns="http://www.w3.org/2000/svg"
 width="96.000000pt" height="68.000000pt" viewBox="0 0 96.000000 68.000000"
 preserveAspectRatio="xMidYMid meet">
<metadata>
Created by potrace 1.16, written by Peter Selinger 2001-2019
</metadata>
<g transform="translate(0.000000,68.000000) scale(0.100000,-0.100000)"
fill="#000000" stroke="none">
<path d="M278 522 c5 -102 11 -95 -85 -107 -76 -10 -65 -25 18 -25 l70 0 -3
-52 -3 -53 -85 -32 c-47 -17 -89 -34 -95 -36 -15 -7 27 -36 53 -37 12 0 46 16
75 35 60 41 63 37 52 -52 -7 -55 -7 -55 -36 -49 l-30 6 32 -40 c58 -72 79 -47
79 99 l0 99 35 22 c34 21 47 37 23 27 -58 -21 -58 -21 -58 27 0 30 4 46 13 46
6 0 30 5 52 11 37 11 38 12 20 25 -12 9 -30 12 -47 8 -26 -5 -28 -3 -28 28 0
18 5 50 11 72 12 44 6 53 -38 62 l-31 6 6 -90z"/>
</g>
</svg>
