<?xml version="1.0" standalone="no"?>
<!DOCTYPE svg PUBLIC "-//W3C//DTD SVG 20010904//EN"
 "http://www.w3.org/TR/2001/REC-SVG-20010904/DTD/svg10.dtd">
<svg version="1.0" xmlns="http://www.w3.org/2000/svg"
 width="96.000000pt" height="68.000000pt" viewBox="0 0 96.000000 68.000000"
 preserveAspectRatio="xMidYMid meet">
<metadata>
Created by potrace 1.16, written by Peter Selinger 2001-2019
</metadata>
<g transform="translate(0.000000,68.000000) scale(0.100000,-0.100000)"
fill="#000000" stroke="none">
<path d="M237 568 c4 -18 8 -60 8 -93 l0 -60 -63 -9 c-76 -11 -78 -31 -4 -31
47 0 51 -2 46 -20 -10 -31 -58 -96 -105 -142 -23 -24 -40 -45 -37 -49 12 -12
68 27 117 83 59 65 58 67 40 -82 -11 -96 -4 -135 25 -135 22 0 26 24 26 155
l0 124 30 -17 c27 -15 32 -15 40 -2 11 18 -12 46 -46 54 -26 7 -35 46 -10 46
8 0 27 5 42 10 33 13 20 33 -22 33 l-27 0 6 68 c5 63 4 70 -16 84 -12 8 -30
15 -40 15 -16 0 -17 -5 -10 -32z"/>
<path d="M561 545 c-6 -25 -17 -48 -24 -51 -14 -5 -22 -170 -8 -178 4 -3 23
-1 40 4 23 6 39 5 51 -3 11 -6 21 -9 23 -7 3 3 7 44 9 92 4 82 3 87 -18 97
-12 5 -31 7 -43 4 -28 -7 -27 2 4 35 28 30 28 46 -2 50 -17 3 -22 -5 -32 -43z
m49 -93 c0 -24 -4 -28 -29 -30 -27 -2 -30 0 -27 25 2 16 4 29 5 31 0 1 12 2
26 2 21 0 25 -5 25 -28z m0 -74 c0 -15 -3 -28 -7 -28 -5 0 -18 -3 -30 -6 -20
-5 -23 -2 -23 19 0 26 19 44 46 44 9 0 14 -11 14 -29z"/>
<path d="M723 543 c-14 -43 -46 -103 -54 -103 -5 0 -9 -9 -9 -20 0 -19 4 -20
36 -14 33 6 35 5 26 -12 -6 -11 -22 -30 -35 -43 -25 -23 -26 -51 -3 -51 7 0
32 9 55 21 31 15 46 18 54 10 15 -15 37 -14 37 2 0 17 -32 47 -49 47 -7 0 -11
-6 -8 -14 4 -9 -3 -16 -16 -20 -40 -11 -40 -6 7 48 30 35 44 60 40 70 -9 23
-28 20 -39 -6 -9 -21 -65 -40 -65 -23 0 4 14 26 31 50 18 26 29 50 26 59 -8
21 -26 20 -34 -1z"/>
<path d="M435 505 c-8 -21 -15 -40 -15 -42 0 -3 -9 -16 -20 -30 -35 -45 -23
-60 33 -38 26 11 21 -10 -13 -48 -48 -55 -38 -69 30 -45 26 9 35 9 38 0 4 -14
32 -16 32 -3 0 21 -13 42 -33 52 -17 10 -19 9 -13 -7 7 -18 -8 -34 -31 -34
-22 0 -15 15 28 64 24 27 39 52 35 61 -8 22 -33 18 -39 -5 -3 -12 -14 -20 -26
-20 -27 0 -27 0 8 59 25 41 27 52 16 61 -11 9 -17 4 -30 -25z"/>
<path d="M564 276 c5 -21 2 -24 -32 -30 -20 -3 -57 -6 -82 -7 -25 0 -56 -4
-70 -9 l-25 -7 29 -12 c22 -9 43 -9 88 0 32 6 61 9 65 5 9 -9 -32 -50 -102
-103 -38 -29 -51 -43 -35 -38 38 11 102 50 129 79 38 40 45 33 38 -41 -7 -72
4 -103 29 -82 10 8 14 35 14 82 l0 71 48 -46 c63 -61 85 -71 138 -63 42 6 62
25 27 25 -46 0 -220 101 -208 121 4 5 61 9 128 9 l122 0 -25 20 c-22 17 -35
19 -100 14 -41 -3 -85 -7 -97 -10 -18 -3 -23 0 -23 15 0 19 -18 31 -47 31 -11
0 -14 -7 -9 -24z"/>
</g>
</svg>
