<?xml version="1.0" standalone="no"?>
<!DOCTYPE svg PUBLIC "-//W3C//DTD SVG 20010904//EN"
 "http://www.w3.org/TR/2001/REC-SVG-20010904/DTD/svg10.dtd">
<svg version="1.0" xmlns="http://www.w3.org/2000/svg"
 width="96.000000pt" height="68.000000pt" viewBox="0 0 96.000000 68.000000"
 preserveAspectRatio="xMidYMid meet">
<metadata>
Created by potrace 1.16, written by Peter Selinger 2001-2019
</metadata>
<g transform="translate(0.000000,68.000000) scale(0.100000,-0.100000)"
fill="#000000" stroke="none">
<path d="M366 584 c-10 -37 -49 -97 -99 -149 -24 -25 -41 -47 -39 -50 3 -2 26
8 53 22 l47 27 36 -19 c20 -11 36 -25 36 -31 0 -22 -122 -105 -245 -168 -47
-24 -48 -25 -15 -20 48 8 205 88 257 130 l43 35 61 -43 c34 -24 69 -47 78 -53
9 -5 18 -13 21 -16 14 -17 53 -29 92 -29 59 0 148 11 148 19 0 3 -46 17 -102
31 -98 24 -258 95 -265 117 -2 6 25 37 61 69 l64 57 -24 20 c-24 18 -28 18
-104 1 -14 -3 -36 -8 -50 -11 l-25 -6 24 27 c24 25 24 26 6 46 -25 28 -51 25
-59 -6z m144 -83 c0 -5 -18 -28 -40 -52 l-39 -43 -47 23 -47 22 25 24 c23 21
46 27 126 33 12 1 22 -2 22 -7z"/>
<path d="M480 234 c-41 -7 -108 -13 -147 -13 -40 -1 -73 -5 -73 -10 0 -5 4
-11 10 -13 5 -1 16 -32 25 -68 23 -95 24 -95 37 -82 7 7 45 12 93 12 44 0 97
3 118 6 30 6 35 9 26 21 -9 11 -5 26 18 72 l30 59 -26 13 c-35 17 -27 17 -111
3z m46 -76 c-4 -29 -10 -56 -14 -59 -10 -9 -171 -18 -176 -10 -3 4 -8 30 -12
58 l-6 52 43 4 c24 2 73 4 108 5 l64 2 -7 -52z"/>
</g>
</svg>
