<?xml version="1.0" standalone="no"?>
<!DOCTYPE svg PUBLIC "-//W3C//DTD SVG 20010904//EN"
 "http://www.w3.org/TR/2001/REC-SVG-20010904/DTD/svg10.dtd">
<svg version="1.0" xmlns="http://www.w3.org/2000/svg"
 width="96.000000pt" height="68.000000pt" viewBox="0 0 96.000000 68.000000"
 preserveAspectRatio="xMidYMid meet">
<metadata>
Created by potrace 1.16, written by Peter Selinger 2001-2019
</metadata>
<g transform="translate(0.000000,68.000000) scale(0.100000,-0.100000)"
fill="#000000" stroke="none">
<path d="M470 604 c24 -62 8 -84 -63 -84 -16 0 -26 -4 -22 -10 3 -5 26 -10 49
-10 l44 0 0 -87 c0 -66 -5 -97 -19 -124 -18 -36 -98 -111 -174 -163 -30 -21
-34 -26 -15 -21 52 14 107 46 153 90 l48 45 -3 -99 c-2 -70 1 -104 10 -112 27
-28 37 7 35 127 -1 63 2 114 5 114 4 -1 45 -37 92 -80 l85 -80 57 0 c31 0 59
4 62 9 3 4 -25 19 -62 33 -63 24 -218 125 -234 153 -4 7 -5 55 -1 108 l6 95
49 5 c58 7 76 16 57 28 -8 5 -36 6 -63 2 l-49 -6 7 38 c8 41 -2 55 -41 55 -20
0 -21 -3 -13 -26z"/>
</g>
</svg>
