<?xml version="1.0" standalone="no"?>
<!DOCTYPE svg PUBLIC "-//W3C//DTD SVG 20010904//EN"
 "http://www.w3.org/TR/2001/REC-SVG-20010904/DTD/svg10.dtd">
<svg version="1.0" xmlns="http://www.w3.org/2000/svg"
 width="90.000000pt" height="92.000000pt" viewBox="0 0 90.000000 92.000000"
 preserveAspectRatio="xMidYMid meet">
<metadata>
Created by potrace 1.16, written by Peter Selinger 2001-2019
</metadata>
<g transform="translate(0.000000,92.000000) scale(0.100000,-0.100000)"
fill="#000000" stroke="none">
<path d="M380 827 c0 -7 -12 -30 -26 -50 -32 -47 -26 -56 18 -26 67 46 70 50
52 71 -20 21 -44 24 -44 5z"/>
<path d="M180 795 c-19 -7 -45 -14 -57 -14 -13 -1 -23 -6 -23 -12 0 -8 17 -10
55 -6 64 6 67 1 34 -68 -19 -41 -42 -69 -38 -48 4 22 -3 32 -30 43 -49 20 -54
7 -14 -37 l38 -41 -33 -43 c-18 -24 -51 -61 -75 -81 -50 -45 -29 -52 29 -10
54 40 116 109 149 168 15 27 39 66 54 88 l25 38 -23 19 c-27 22 -43 23 -91 4z"/>
<path d="M458 752 c-9 -15 -26 -36 -37 -46 -21 -19 -22 -19 -72 8 -28 16 -52
26 -54 24 -3 -2 42 -51 99 -107 73 -73 109 -102 120 -98 38 15 8 69 -68 124
l-30 21 52 26 c29 14 52 30 52 35 0 8 -33 41 -41 41 -3 0 -12 -12 -21 -28z"/>
<path d="M680 744 c-41 -18 -65 -22 -97 -18 l-41 6 8 -38 c5 -22 9 -174 10
-339 0 -165 4 -303 9 -308 18 -18 30 103 36 358 4 143 8 267 11 276 4 15 100
46 111 36 5 -6 -30 -115 -47 -148 -7 -12 -4 -21 10 -34 28 -25 70 -114 70
-147 0 -24 -4 -28 -28 -28 -15 0 -43 4 -61 10 -39 11 -38 10 42 -55 33 -26 65
-44 73 -41 36 14 44 107 15 172 -18 40 -85 114 -103 114 -5 0 18 36 52 79 33
44 60 84 60 90 0 11 -53 42 -67 40 -4 -1 -33 -12 -63 -25z"/>
<path d="M253 587 c-35 -6 -63 -14 -63 -19 0 -16 53 -20 117 -10 71 12 78 15
68 31 -7 13 -34 12 -122 -2z"/>
<path d="M330 504 c-30 -8 -90 -16 -133 -20 -75 -7 -77 -7 -58 -25 10 -10 22
-36 26 -59 4 -22 13 -53 20 -68 8 -15 23 -50 34 -78 l20 -52 -37 -6 c-20 -3
-61 -6 -89 -6 -29 0 -53 -3 -53 -7 0 -4 12 -20 27 -35 29 -30 61 -35 96 -16
12 6 87 31 166 55 79 24 147 45 150 48 2 3 0 10 -5 15 -6 6 -31 4 -69 -5 -33
-8 -63 -14 -67 -15 -4 0 8 24 27 54 21 33 31 57 25 61 -6 4 -7 12 -3 18 4 6 8
22 9 34 2 13 9 37 17 53 16 31 13 37 -28 57 -13 6 -38 5 -75 -3z m38 -62 c4
-38 -16 -49 -109 -59 -53 -5 -59 -4 -59 13 0 10 -3 29 -6 40 -5 20 -1 23 68
32 99 13 102 12 106 -26z m-13 -109 c-16 -77 -29 -113 -39 -113 -6 0 -21 -3
-34 -6 -18 -5 -21 -3 -16 10 9 24 -14 72 -43 91 -32 21 -24 28 40 36 99 12 98
12 92 -18z"/>
</g>
</svg>
