<?xml version="1.0" standalone="no"?>
<!DOCTYPE svg PUBLIC "-//W3C//DTD SVG 20010904//EN"
 "http://www.w3.org/TR/2001/REC-SVG-20010904/DTD/svg10.dtd">
<svg version="1.0" xmlns="http://www.w3.org/2000/svg"
 width="96.000000pt" height="68.000000pt" viewBox="0 0 96.000000 68.000000"
 preserveAspectRatio="xMidYMid meet">
<metadata>
Created by potrace 1.16, written by Peter Selinger 2001-2019
</metadata>
<g transform="translate(0.000000,68.000000) scale(0.100000,-0.100000)"
fill="#000000" stroke="none">
<path d="M495 454 c-55 -7 -106 -13 -112 -13 -7 -1 -13 -6 -13 -12 0 -7 28 -8
90 -3 l90 7 0 -52 c0 -32 -5 -53 -12 -56 -7 -2 -110 -10 -228 -18 -194 -12
-212 -14 -187 -27 23 -11 51 -11 165 -2 75 7 230 15 345 18 114 3 207 10 207
14 0 22 -64 32 -156 25 l-97 -7 8 33 c4 19 8 44 9 57 1 16 7 22 26 22 35 0 70
11 70 21 0 12 -85 9 -205 -7z"/>
</g>
</svg>
