<?xml version="1.0" standalone="no"?>
<!DOCTYPE svg PUBLIC "-//W3C//DTD SVG 20010904//EN"
 "http://www.w3.org/TR/2001/REC-SVG-20010904/DTD/svg10.dtd">
<svg version="1.0" xmlns="http://www.w3.org/2000/svg"
 width="90.000000pt" height="92.000000pt" viewBox="0 0 90.000000 92.000000"
 preserveAspectRatio="xMidYMid meet">
<metadata>
Created by potrace 1.16, written by Peter Selinger 2001-2019
</metadata>
<g transform="translate(0.000000,92.000000) scale(0.100000,-0.100000)"
fill="#000000" stroke="none">
<path d="M486 843 c-3 -4 -6 -20 -6 -37 0 -41 -57 -179 -98 -238 -18 -27 -28
-48 -22 -48 12 0 100 87 100 100 0 4 28 10 63 13 216 22 195 22 202 -6 4 -14
5 -101 3 -194 -3 -144 -6 -174 -23 -208 -20 -39 -21 -40 -68 -37 l-48 3 38
-53 c20 -29 38 -55 40 -57 9 -12 57 28 78 64 33 57 45 137 45 301 0 79 4 154
10 168 13 34 5 51 -36 77 l-34 21 -105 -27 c-58 -14 -111 -25 -119 -23 -11 2
-7 18 18 68 18 36 31 71 28 78 -5 16 -57 43 -66 35z"/>
<path d="M160 797 c0 -8 13 -39 30 -70 21 -39 26 -57 17 -60 -7 -3 -54 -11
-105 -18 -98 -14 -115 -27 -62 -49 25 -10 40 -10 88 3 31 9 97 23 146 32 49 8
91 17 93 19 11 11 -35 30 -68 29 -38 -2 -39 -1 -39 31 0 41 -16 61 -62 81 -31
13 -38 13 -38 2z"/>
<path d="M178 541 c-31 -9 -60 -19 -63 -23 -15 -15 49 -20 108 -8 70 15 89 26
67 40 -20 13 -44 11 -112 -9z"/>
<path d="M505 524 c-27 -8 -61 -12 -75 -9 l-25 5 0 -124 c0 -87 4 -129 13
-137 7 -8 12 -9 12 -2 0 6 29 13 68 15 59 5 69 3 83 -15 16 -20 17 -20 27 -1
5 10 11 72 13 137 4 118 3 119 -21 133 -30 16 -32 16 -95 -2z m60 -60 c3 -20
5 -37 3 -39 -2 -1 -29 -5 -61 -9 l-58 -6 3 37 c3 39 19 50 79 52 23 1 28 -4
34 -35z m5 -114 l0 -40 -42 0 c-24 0 -54 -3 -66 -7 -22 -5 -24 -3 -21 33 4 37
6 39 44 45 86 13 85 13 85 -31z"/>
<path d="M218 455 c-3 -3 -25 -9 -48 -13 -60 -10 -65 -32 -8 -32 50 1 126 14
136 24 3 4 0 11 -8 16 -16 10 -63 13 -72 5z"/>
<path d="M215 344 c-22 -9 -61 -15 -87 -15 -47 0 -47 -1 -33 -22 8 -12 19 -45
25 -74 12 -55 39 -104 40 -70 0 13 9 17 39 17 21 0 53 3 70 6 24 5 29 9 21 20
-8 9 -4 28 16 70 26 55 26 58 9 71 -23 16 -49 16 -100 -3z m36 -36 c6 -68 -14
-98 -63 -98 -24 0 -28 4 -28 29 0 16 -3 36 -6 44 -4 11 6 18 33 25 53 14 63
14 64 0z"/>
</g>
</svg>
