<?xml version="1.0" standalone="no"?>
<!DOCTYPE svg PUBLIC "-//W3C//DTD SVG 20010904//EN"
 "http://www.w3.org/TR/2001/REC-SVG-20010904/DTD/svg10.dtd">
<svg version="1.0" xmlns="http://www.w3.org/2000/svg"
 width="96.000000pt" height="68.000000pt" viewBox="0 0 96.000000 68.000000"
 preserveAspectRatio="xMidYMid meet">
<metadata>
Created by potrace 1.16, written by Peter Selinger 2001-2019
</metadata>
<g transform="translate(0.000000,68.000000) scale(0.100000,-0.100000)"
fill="#000000" stroke="none">
<path d="M546 558 c-16 -56 -41 -111 -71 -157 -20 -30 -34 -55 -32 -57 2 -2
21 14 43 36 35 35 44 40 89 40 28 1 73 5 100 9 82 14 85 9 85 -126 0 -171 -24
-226 -86 -203 -15 6 -28 9 -30 8 -1 -2 12 -21 31 -43 33 -39 34 -40 61 -25 59
33 68 58 74 213 3 78 8 147 13 153 4 7 -1 22 -12 35 -22 27 -58 29 -173 9 -43
-7 -80 -11 -84 -8 -3 4 6 24 20 45 31 45 32 59 7 73 -25 13 -31 13 -35 -2z"/>
<path d="M250 547 c0 -12 41 -80 53 -88 10 -7 -7 -11 -122 -30 -67 -10 -73
-13 -56 -25 24 -18 64 -18 162 1 43 8 92 15 110 15 17 0 35 5 39 11 12 19 -19
30 -71 24 -38 -4 -46 -3 -32 5 22 14 22 31 -3 62 -19 25 -80 44 -80 25z"/>
<path d="M268 353 c-21 -2 -38 -9 -38 -15 0 -12 130 -1 145 13 9 9 -31 10
-107 2z"/>
<path d="M550 339 c-25 -5 -53 -6 -62 -3 -16 5 -18 -3 -18 -84 0 -49 2 -91 5
-94 3 -2 33 -1 66 4 42 7 65 6 72 -1 6 -6 19 -11 28 -11 14 0 18 14 21 88 6
115 -2 123 -112 101z m58 -21 c24 -24 14 -45 -25 -52 -68 -11 -75 -9 -71 21 2
19 10 29 28 34 39 11 55 10 68 -3z m10 -100 c3 -23 -1 -26 -38 -31 -67 -9 -94
6 -72 40 6 10 70 22 97 18 6 -1 11 -13 13 -27z"/>
<path d="M263 283 c-18 -2 -33 -9 -33 -15 0 -13 110 -5 137 11 15 8 9 10 -27
9 -25 -1 -60 -3 -77 -5z"/>
<path d="M305 210 c-11 -5 -44 -9 -74 -9 -45 -1 -52 -3 -40 -13 9 -7 23 -34
33 -60 17 -46 18 -46 49 -37 17 5 47 9 64 9 27 0 33 4 33 20 0 12 7 34 15 51
9 16 13 34 10 39 -7 12 -62 12 -90 0z m35 -38 c0 -36 -16 -52 -52 -52 -21 0
-31 6 -38 26 -15 39 -13 43 33 47 23 2 45 4 50 5 4 1 7 -11 7 -26z"/>
</g>
</svg>
