<?xml version="1.0" standalone="no"?>
<!DOCTYPE svg PUBLIC "-//W3C//DTD SVG 20010904//EN"
 "http://www.w3.org/TR/2001/REC-SVG-20010904/DTD/svg10.dtd">
<svg version="1.0" xmlns="http://www.w3.org/2000/svg"
 width="96.000000pt" height="68.000000pt" viewBox="0 0 96.000000 68.000000"
 preserveAspectRatio="xMidYMid meet">
<metadata>
Created by potrace 1.16, written by Peter Selinger 2001-2019
</metadata>
<g transform="translate(0.000000,68.000000) scale(0.100000,-0.100000)"
fill="#000000" stroke="none">
<path d="M256 588 c12 -32 9 -383 -4 -437 -8 -35 -8 -52 3 -78 8 -18 19 -33
24 -33 25 0 34 51 39 213 l5 168 23 -21 c26 -26 59 -23 59 5 0 14 -11 22 -40
31 -23 6 -40 17 -39 25 0 8 4 37 8 66 6 46 4 53 -16 67 -12 9 -33 16 -46 16
-21 0 -23 -3 -16 -22z"/>
<path d="M539 583 c-27 -75 -36 -92 -76 -145 -45 -61 -39 -77 12 -29 26 25 43
30 133 41 79 9 106 10 115 1 16 -16 19 -201 4 -275 -13 -64 -33 -81 -76 -64
-34 12 -35 6 -4 -35 36 -47 64 -47 98 -3 28 37 41 117 47 290 l3 100 -30 17
c-29 17 -33 17 -104 -2 -72 -18 -131 -25 -131 -14 0 3 5 11 10 18 25 29 60 89
60 101 0 13 -21 26 -41 26 -5 0 -14 -12 -20 -27z"/>
<path d="M155 370 c-29 -58 -29 -60 -11 -85 14 -19 15 -19 35 -1 23 21 36 74
27 111 -9 37 -23 31 -51 -25z"/>
<path d="M529 356 c-3 -3 -56 -11 -99 -15 -8 -1 1 -155 9 -164 4 -4 35 -3 69
1 49 7 65 6 74 -5 9 -12 14 -12 24 -1 14 14 22 157 10 177 -7 10 -77 16 -87 7z
m46 -37 c8 -23 -7 -39 -36 -39 -9 0 -30 -3 -46 -6 -26 -5 -29 -3 -28 22 2 30
21 42 72 43 24 1 33 -4 38 -20z m5 -83 c0 -19 -6 -24 -37 -30 -70 -11 -83 -8
-83 18 0 27 13 33 78 35 38 1 42 -1 42 -23z"/>
</g>
</svg>
