<?xml version="1.0" standalone="no"?>
<!DOCTYPE svg PUBLIC "-//W3C//DTD SVG 20010904//EN"
 "http://www.w3.org/TR/2001/REC-SVG-20010904/DTD/svg10.dtd">
<svg version="1.0" xmlns="http://www.w3.org/2000/svg"
 width="96.000000pt" height="68.000000pt" viewBox="0 0 96.000000 68.000000"
 preserveAspectRatio="xMidYMid meet">
<metadata>
Created by potrace 1.16, written by Peter Selinger 2001-2019
</metadata>
<g transform="translate(0.000000,68.000000) scale(0.100000,-0.100000)"
fill="#000000" stroke="none">
<path d="M487 573 c-3 -2 -1 -19 4 -36 13 -46 11 -107 -3 -112 -7 -2 -43 -7
-80 -10 -96 -9 -89 -29 8 -22 60 4 76 3 81 -9 3 -8 0 -80 -6 -159 -8 -107 -8
-151 0 -167 10 -19 12 -19 27 -4 13 13 16 44 16 183 l1 168 50 7 c74 10 95 17
95 29 0 8 -22 9 -72 5 l-71 -8 6 60 c6 60 6 60 -22 70 -16 6 -32 8 -34 5z"/>
<path d="M640 558 c0 -16 63 -68 83 -68 21 0 23 33 2 50 -20 17 -85 31 -85 18z"/>
<path d="M200 532 c0 -25 72 -77 95 -68 19 7 19 40 0 56 -19 16 -95 26 -95 12z"/>
<path d="M140 400 c0 -18 59 -70 80 -70 15 0 20 7 20 26 0 19 -8 28 -35 40
-40 16 -65 18 -65 4z"/>
<path d="M617 283 c-9 -115 16 -143 129 -143 41 0 54 4 54 15 0 11 -12 15 -44
15 -25 0 -57 5 -71 10 -27 10 -27 11 -24 93 4 77 3 82 -17 85 -19 3 -21 -3
-27 -75z"/>
<path d="M365 312 c7 -48 -17 -128 -46 -153 -32 -28 -16 -35 21 -9 35 25 54
59 64 113 4 21 9 44 12 52 3 8 -7 17 -26 23 l-31 11 6 -37z"/>
<path d="M240 265 c-24 -31 -45 -54 -47 -52 -6 6 -63 -50 -63 -62 0 -5 5 -22
12 -36 18 -39 44 -31 67 21 12 25 37 72 56 104 58 96 42 112 -25 25z"/>
</g>
</svg>
