<?xml version="1.0" standalone="no"?>
<!DOCTYPE svg PUBLIC "-//W3C//DTD SVG 20010904//EN"
 "http://www.w3.org/TR/2001/REC-SVG-20010904/DTD/svg10.dtd">
<svg version="1.0" xmlns="http://www.w3.org/2000/svg"
 width="96.000000pt" height="68.000000pt" viewBox="0 0 96.000000 68.000000"
 preserveAspectRatio="xMidYMid meet">
<metadata>
Created by potrace 1.16, written by Peter Selinger 2001-2019
</metadata>
<g transform="translate(0.000000,68.000000) scale(0.100000,-0.100000)"
fill="#000000" stroke="none">
<path d="M487 573 c-3 -2 -1 -21 4 -41 5 -20 9 -51 9 -69 0 -36 -4 -38 -103
-48 -43 -4 -65 -10 -61 -17 5 -7 33 -8 80 -5 44 4 75 3 79 -3 3 -6 1 -78 -4
-161 -11 -146 -6 -189 19 -189 18 0 24 49 25 205 l0 160 69 10 c43 6 71 15 74
24 4 11 -8 13 -68 7 l-72 -7 3 62 c4 61 3 63 -23 70 -15 4 -29 5 -31 2z"/>
</g>
</svg>
