<?xml version="1.0" standalone="no"?>
<!DOCTYPE svg PUBLIC "-//W3C//DTD SVG 20010904//EN"
 "http://www.w3.org/TR/2001/REC-SVG-20010904/DTD/svg10.dtd">
<svg version="1.0" xmlns="http://www.w3.org/2000/svg"
 width="96.000000pt" height="68.000000pt" viewBox="0 0 96.000000 68.000000"
 preserveAspectRatio="xMidYMid meet">
<metadata>
Created by potrace 1.16, written by Peter Selinger 2001-2019
</metadata>
<g transform="translate(0.000000,68.000000) scale(0.100000,-0.100000)"
fill="#000000" stroke="none">
<path d="M633 392 c-5 -4 -11 -31 -12 -59 -1 -29 -6 -64 -11 -79 l-10 -25 -31
30 c-17 17 -40 31 -52 31 -19 0 -18 -3 10 -21 17 -11 38 -30 47 -43 14 -22 13
-25 -14 -51 -15 -15 -50 -38 -77 -51 -45 -22 -46 -23 -18 -23 35 -1 104 29
124 52 20 24 26 22 72 -28 41 -44 43 -45 103 -44 33 0 70 4 81 8 16 7 8 12
-40 25 -64 19 -130 50 -157 73 -15 13 -15 18 2 66 31 88 34 120 12 134 -10 6
-23 8 -29 5z"/>
</g>
</svg>
