<?xml version="1.0" standalone="no"?>
<!DOCTYPE svg PUBLIC "-//W3C//DTD SVG 20010904//EN"
 "http://www.w3.org/TR/2001/REC-SVG-20010904/DTD/svg10.dtd">
<svg version="1.0" xmlns="http://www.w3.org/2000/svg"
 width="90.000000pt" height="92.000000pt" viewBox="0 0 90.000000 92.000000"
 preserveAspectRatio="xMidYMid meet">
<metadata>
Created by potrace 1.16, written by Peter Selinger 2001-2019
</metadata>
<g transform="translate(0.000000,92.000000) scale(0.100000,-0.100000)"
fill="#000000" stroke="none">
<path d="M237 833 c-2 -5 -4 -24 -5 -43 -3 -50 -79 -202 -150 -296 -33 -45
-65 -85 -71 -88 -6 -4 -11 -11 -11 -17 0 -22 27 -5 94 61 93 90 136 95 136 15
0 -20 -6 -24 -52 -30 -72 -10 -88 -19 -59 -34 13 -8 39 -10 66 -5 l45 6 0 -85
0 -85 -44 -11 c-25 -6 -69 -11 -99 -11 -29 0 -57 -3 -60 -7 -11 -10 44 -63 65
-63 11 0 31 6 46 14 15 7 77 30 137 51 61 21 116 43 123 48 25 19 -9 26 -57
11 -25 -8 -50 -14 -54 -14 -4 0 -7 37 -5 82 l3 82 45 8 c25 4 52 11 60 14 25
11 -40 34 -77 28 -31 -6 -32 -5 -30 29 2 33 5 37 45 47 46 11 53 24 22 40 -15
8 -36 6 -86 -10 -85 -26 -89 -25 -66 8 11 15 34 55 51 90 17 34 33 62 36 62 2
0 20 -14 39 -31 41 -36 71 -35 71 1 0 21 -8 27 -48 40 -40 12 -47 18 -43 35 8
32 -53 85 -67 58z"/>
<path d="M749 833 c0 -5 0 -179 1 -387 1 -338 7 -447 23 -396 3 8 8 24 12 35
4 11 12 166 17 345 5 179 10 338 11 354 2 24 -3 31 -30 43 -18 7 -33 10 -34 6z"/>
<path d="M587 683 c-3 -2 0 -21 5 -41 7 -23 8 -95 5 -185 -4 -90 -2 -158 4
-174 9 -25 11 -25 27 -9 14 14 18 45 22 198 3 114 1 186 -5 193 -11 13 -51 26
-58 18z"/>
<path d="M446 643 c4 -10 10 -65 12 -122 6 -166 -22 -271 -93 -350 -21 -22
-33 -41 -27 -41 22 0 98 68 120 107 30 55 52 160 52 253 0 41 4 90 9 108 8 27
7 34 -12 47 -12 8 -32 15 -45 15 -19 0 -23 -4 -16 -17z"/>
<path d="M327 330 c-14 -27 -24 -50 -21 -50 12 0 94 62 94 70 0 8 -31 30 -43
30 -2 0 -16 -22 -30 -50z"/>
<path d="M100 333 c0 -18 53 -93 65 -93 16 0 21 46 7 66 -14 22 -72 44 -72 27z"/>
</g>
</svg>
