<?xml version="1.0" standalone="no"?>
<!DOCTYPE svg PUBLIC "-//W3C//DTD SVG 20010904//EN"
 "http://www.w3.org/TR/2001/REC-SVG-20010904/DTD/svg10.dtd">
<svg version="1.0" xmlns="http://www.w3.org/2000/svg"
 width="96.000000pt" height="68.000000pt" viewBox="0 0 96.000000 68.000000"
 preserveAspectRatio="xMidYMid meet">
<metadata>
Created by potrace 1.16, written by Peter Selinger 2001-2019
</metadata>
<g transform="translate(0.000000,68.000000) scale(0.100000,-0.100000)"
fill="#000000" stroke="none">
<path d="M600 228 c-36 -4 -83 -6 -104 -3 -38 6 -39 5 -24 -12 9 -10 24 -45
33 -78 20 -68 23 -74 33 -58 5 7 48 15 105 19 74 5 97 10 93 20 -3 7 6 29 20
49 29 43 30 51 5 65 -23 12 -69 11 -161 -2z m102 -53 c-2 -22 -5 -41 -6 -42
-1 -2 -37 -6 -79 -11 l-77 -8 -11 39 c-6 21 -7 42 -4 45 8 8 108 20 150 18 29
-1 30 -3 27 -41z"/>
</g>
</svg>
