<?xml version="1.0" standalone="no"?>
<!DOCTYPE svg PUBLIC "-//W3C//DTD SVG 20010904//EN"
 "http://www.w3.org/TR/2001/REC-SVG-20010904/DTD/svg10.dtd">
<svg version="1.0" xmlns="http://www.w3.org/2000/svg"
 width="96.000000pt" height="68.000000pt" viewBox="0 0 96.000000 68.000000"
 preserveAspectRatio="xMidYMid meet">
<metadata>
Created by potrace 1.16, written by Peter Selinger 2001-2019
</metadata>
<g transform="translate(0.000000,68.000000) scale(0.100000,-0.100000)"
fill="#000000" stroke="none">
<path d="M715 450 c-16 -4 -54 -8 -82 -9 -48 -1 -67 -11 -44 -25 5 -3 12 -23
15 -43 18 -103 28 -143 37 -143 5 0 9 7 9 15 0 12 13 15 58 15 l58 0 12 73 c7
41 18 79 24 85 9 9 7 15 -8 27 -21 16 -34 17 -79 5z m20 -75 c-1 -82 -7 -95
-48 -95 l-34 0 -11 67 c-6 37 -8 71 -4 75 8 7 58 16 82 14 12 -1 15 -15 15
-61z"/>
</g>
</svg>
