<?xml version="1.0" standalone="no"?>
<!DOCTYPE svg PUBLIC "-//W3C//DTD SVG 20010904//EN"
 "http://www.w3.org/TR/2001/REC-SVG-20010904/DTD/svg10.dtd">
<svg version="1.0" xmlns="http://www.w3.org/2000/svg"
 width="90.000000pt" height="92.000000pt" viewBox="0 0 90.000000 92.000000"
 preserveAspectRatio="xMidYMid meet">
<metadata>
Created by potrace 1.16, written by Peter Selinger 2001-2019
</metadata>
<g transform="translate(0.000000,92.000000) scale(0.100000,-0.100000)"
fill="#000000" stroke="none">
<path d="M385 890 c-3 -5 -1 -19 5 -30 6 -11 10 -53 8 -93 l-3 -72 -100 -3
-100 -3 -1 -137 c-1 -166 -29 -287 -98 -426 l-44 -88 35 33 c48 46 76 92 106
175 26 72 67 288 67 353 l0 37 61 12 c34 6 66 9 70 6 5 -3 9 -22 9 -43 0 -38
0 -38 -55 -51 -31 -7 -58 -17 -61 -21 -9 -16 16 -19 63 -9 38 9 49 8 52 -2 2
-7 17 -25 32 -40 25 -26 34 -28 101 -28 77 0 143 14 154 31 3 6 -1 18 -10 27
-13 14 -22 14 -63 4 -74 -19 -152 -20 -163 -2 -16 25 -13 27 60 49 67 21 85
36 56 47 -12 5 -72 -7 -111 -22 -11 -4 -11 2 -3 35 10 37 13 40 52 45 162 20
174 17 137 -31 -12 -14 -20 -27 -18 -29 1 -2 20 1 42 6 22 5 54 10 72 10 49 0
51 19 5 62 -46 43 -50 43 -182 23 -52 -8 -98 -15 -102 -15 -5 0 -8 19 -8 41 0
38 2 41 22 35 35 -9 158 15 158 30 0 28 -50 28 -152 -2 -15 -5 -18 1 -18 36 0
34 -4 42 -26 50 -32 13 -41 13 -49 0z"/>
<path d="M400 444 c0 -4 9 -21 20 -39 l20 -33 -75 -11 c-42 -6 -85 -11 -95
-11 -28 0 -25 -19 5 -30 16 -6 51 -4 107 5 113 20 128 20 128 -5 0 -28 -27
-90 -38 -90 -6 0 -33 16 -62 35 -53 36 -90 45 -90 22 0 -7 15 -18 33 -25 18
-7 46 -26 63 -43 l29 -30 -25 -20 c-38 -31 -140 -79 -183 -85 -69 -12 -55 -28
17 -21 72 7 165 43 203 79 l22 20 78 -57 78 -57 80 5 c44 3 98 11 120 17 49
15 42 19 -98 48 -90 20 -217 67 -217 81 0 3 14 30 30 60 28 51 29 55 13 73
-15 17 -13 18 55 18 76 0 98 13 66 37 -19 15 -68 14 -166 -3 -36 -6 -38 -5
-38 20 0 19 -7 29 -26 36 -29 11 -54 13 -54 4z"/>
</g>
</svg>
