<?xml version="1.0" standalone="no"?>
<!DOCTYPE svg PUBLIC "-//W3C//DTD SVG 20010904//EN"
 "http://www.w3.org/TR/2001/REC-SVG-20010904/DTD/svg10.dtd">
<svg version="1.0" xmlns="http://www.w3.org/2000/svg"
 width="96.000000pt" height="68.000000pt" viewBox="0 0 96.000000 68.000000"
 preserveAspectRatio="xMidYMid meet">
<metadata>
Created by potrace 1.16, written by Peter Selinger 2001-2019
</metadata>
<g transform="translate(0.000000,68.000000) scale(0.100000,-0.100000)"
fill="#000000" stroke="none">
<path d="M690 370 c-59 -14 -298 -32 -330 -25 -33 7 -35 4 -19 -27 6 -11 18
-61 26 -112 14 -92 27 -122 41 -99 5 8 57 15 153 19 l145 7 12 -27 c6 -14 16
-26 21 -26 24 0 49 55 65 142 10 51 21 97 26 103 11 13 2 29 -27 44 -24 12
-61 13 -113 1z m67 -93 c-11 -127 2 -118 -184 -124 l-161 -4 -5 23 c-3 13 -9
51 -13 86 -6 56 -5 62 12 63 11 0 69 6 129 13 61 8 137 14 169 15 l59 1 -6
-73z"/>
</g>
</svg>
