<?xml version="1.0" standalone="no"?>
<!DOCTYPE svg PUBLIC "-//W3C//DTD SVG 20010904//EN"
 "http://www.w3.org/TR/2001/REC-SVG-20010904/DTD/svg10.dtd">
<svg version="1.0" xmlns="http://www.w3.org/2000/svg"
 width="96.000000pt" height="68.000000pt" viewBox="0 0 96.000000 68.000000"
 preserveAspectRatio="xMidYMid meet">
<metadata>
Created by potrace 1.16, written by Peter Selinger 2001-2019
</metadata>
<g transform="translate(0.000000,68.000000) scale(0.100000,-0.100000)"
fill="#000000" stroke="none">
<path d="M605 622 c-3 -3 -5 -22 -5 -43 0 -36 -2 -38 -37 -44 -55 -9 -65 -14
-58 -25 3 -5 22 -10 42 -10 37 0 38 -4 18 -52 -13 -32 21 -20 46 16 25 37 44
46 97 46 48 0 43 28 -8 36 -35 6 -38 9 -29 26 7 13 7 23 -1 33 -11 14 -56 26
-65 17z"/>
<path d="M290 598 c1 -7 7 -24 15 -38 22 -38 19 -40 -40 -40 -42 0 -55 -4 -55
-15 0 -23 39 -38 81 -31 31 5 40 3 49 -13 5 -11 18 -19 28 -18 14 1 17 8 14
28 -3 22 0 27 27 32 42 9 39 27 -4 27 -32 0 -35 3 -35 28 0 15 -5 33 -12 40
-16 16 -68 16 -68 0z"/>
<path d="M624 425 c-3 -14 -9 -25 -13 -25 -4 0 -14 -13 -24 -29 l-17 -29 45
-47 c38 -38 49 -44 60 -35 19 16 13 25 -37 57 l-41 25 49 44 c40 36 46 46 34
54 -26 17 -49 11 -56 -15z"/>
<path d="M315 413 c-3 -16 -18 -42 -31 -60 l-24 -32 38 -40 c42 -44 62 -52 62
-23 0 11 -14 27 -35 38 -19 10 -35 22 -35 25 0 4 19 22 43 40 23 18 44 35 47
37 6 4 -39 42 -50 42 -4 0 -11 -12 -15 -27z"/>
<path d="M460 421 c0 -10 -11 -34 -23 -53 l-24 -34 37 -42 c41 -46 60 -53 60
-23 0 11 -15 28 -35 41 -33 20 -46 40 -26 40 4 0 23 13 42 29 28 25 31 31 20
45 -19 22 -51 21 -51 -3z"/>
<path d="M525 229 c-44 -4 -124 -9 -177 -11 -54 -1 -98 -4 -98 -6 0 -1 6 -13
14 -25 8 -12 18 -49 21 -82 8 -65 21 -91 39 -76 6 5 69 10 140 12 135 4 130 6
153 -39 1 -2 11 -1 22 3 20 6 43 63 57 138 3 20 10 40 15 43 17 10 9 31 -16
42 -28 13 -51 13 -170 1z m123 -46 c-3 -28 -4 -28 -81 -31 l-78 -3 5 28 c2 15
5 29 5 31 1 1 35 2 77 2 l75 0 -3 -27z m-198 -11 c0 -29 -2 -30 -60 -36 -70
-8 -80 -4 -80 32 0 27 1 28 70 30 l70 3 0 -29z m190 -59 c0 -33 -15 -39 -87
-42 -54 -1 -73 2 -73 11 1 34 25 43 118 47 34 1 42 -2 42 -16z m-195 -24 c0
-22 -4 -24 -60 -27 -58 -3 -61 -2 -63 22 -1 22 3 25 36 28 75 6 87 3 87 -23z"/>
</g>
</svg>
