<?xml version="1.0" standalone="no"?>
<!DOCTYPE svg PUBLIC "-//W3C//DTD SVG 20010904//EN"
 "http://www.w3.org/TR/2001/REC-SVG-20010904/DTD/svg10.dtd">
<svg version="1.0" xmlns="http://www.w3.org/2000/svg"
 width="90.000000pt" height="92.000000pt" viewBox="0 0 90.000000 92.000000"
 preserveAspectRatio="xMidYMid meet">
<metadata>
Created by potrace 1.16, written by Peter Selinger 2001-2019
</metadata>
<g transform="translate(0.000000,92.000000) scale(0.100000,-0.100000)"
fill="#000000" stroke="none">
<path d="M599 863 c-13 -20 -52 -58 -87 -85 -35 -26 -58 -48 -52 -48 38 0 229
114 230 138 0 11 -38 32 -59 32 -4 0 -19 -17 -32 -37z"/>
<path d="M320 874 c-30 -8 -72 -12 -93 -9 -38 5 -39 5 -33 -22 2 -16 8 -71 11
-124 l7 -96 -59 -7 c-89 -10 -114 -17 -107 -27 14 -24 56 -29 110 -15 30 8 54
11 54 8 0 -14 -47 -72 -67 -83 -24 -13 -29 -34 -14 -58 7 -10 13 -11 31 -1 12
7 64 25 114 41 79 25 92 27 102 14 6 -8 16 -15 22 -15 14 0 24 33 16 54 -7 18
-54 46 -79 46 -14 0 -14 -3 1 -25 19 -29 21 -27 -74 -49 -34 -8 -62 -11 -62
-7 0 4 14 20 31 35 20 18 28 33 24 45 -5 16 5 20 90 31 52 7 95 16 95 21 0 19
-37 27 -85 18 -126 -22 -115 -23 -115 9 l0 29 81 6 c44 3 83 8 87 12 13 13
-24 26 -58 20 -114 -19 -110 -20 -110 7 0 23 4 25 45 26 97 1 154 21 109 39
-14 5 -106 -11 -142 -25 -10 -3 -13 3 -10 24 3 28 6 29 82 41 107 16 117 20
92 39 -23 16 -24 16 -96 -2z"/>
<path d="M616 735 c-9 -14 -48 -46 -86 -72 -39 -25 -70 -48 -70 -50 0 -12 220
79 250 105 9 7 -41 42 -60 42 -10 0 -25 -11 -34 -25z"/>
<path d="M650 616 c0 -20 -50 -57 -134 -101 -37 -19 -59 -35 -49 -35 53 0 273
89 273 110 0 11 -58 40 -80 40 -5 0 -10 -7 -10 -14z"/>
<path d="M540 469 c-19 -4 -87 -15 -150 -24 -63 -9 -131 -20 -150 -24 l-35 -7
26 -17 c22 -15 34 -16 74 -7 26 6 49 9 52 7 8 -9 -17 -56 -49 -93 -18 -20 -66
-59 -107 -86 -56 -36 -68 -48 -50 -48 13 0 43 9 67 20 l42 19 14 -22 c8 -12
18 -46 22 -74 8 -60 28 -96 42 -75 6 9 54 17 151 25 131 10 157 16 131 32 -7
4 3 26 25 56 19 27 35 53 35 57 0 5 -15 17 -33 26 -31 17 -39 17 -187 -2 -171
-21 -198 -19 -152 10 27 17 112 116 112 131 0 3 -7 12 -15 20 -12 13 -5 16 61
26 99 15 111 14 123 -6 10 -18 -2 -63 -21 -74 -5 -4 -25 -3 -43 1 l-33 7 31
-43 c17 -24 38 -44 46 -44 26 0 51 33 67 89 9 31 21 62 27 70 9 10 5 19 -16
37 -29 25 -49 28 -107 13z m40 -278 c0 -10 -3 -32 -6 -49 l-6 -30 -109 -12
c-60 -7 -111 -11 -113 -9 -2 2 -6 23 -10 46 l-5 42 52 10 c67 13 102 18 155
20 35 1 42 -2 42 -18z"/>
</g>
</svg>
