<?xml version="1.0" standalone="no"?>
<!DOCTYPE svg PUBLIC "-//W3C//DTD SVG 20010904//EN"
 "http://www.w3.org/TR/2001/REC-SVG-20010904/DTD/svg10.dtd">
<svg version="1.0" xmlns="http://www.w3.org/2000/svg"
 width="96.000000pt" height="68.000000pt" viewBox="0 0 96.000000 68.000000"
 preserveAspectRatio="xMidYMid meet">
<metadata>
Created by potrace 1.16, written by Peter Selinger 2001-2019
</metadata>
<g transform="translate(0.000000,68.000000) scale(0.100000,-0.100000)"
fill="#000000" stroke="none">
<path d="M635 151 c-3 -6 1 -13 9 -18 18 -10 21 -24 8 -32 -14 -9 -19 -53 -6
-58 6 -2 17 9 25 24 7 16 22 35 31 44 16 15 15 17 -18 32 -41 20 -41 20 -49 8z"/>
<path d="M578 143 c7 -3 16 -2 19 1 4 3 -2 6 -13 5 -11 0 -14 -3 -6 -6z"/>
<path d="M445 130 c-29 -8 -29 -8 7 -7 20 1 34 5 32 9 -3 4 -6 7 -7 7 -1 -1
-15 -5 -32 -9z"/>
<path d="M370 128 c0 -2 9 -28 20 -58 11 -30 20 -56 20 -59 0 -2 7 2 16 10 13
11 13 15 2 24 -13 10 -15 16 -22 58 -1 12 -10 23 -19 25 -10 2 -17 2 -17 0z"/>
<path d="M580 46 c0 -2 9 -6 20 -9 11 -3 20 -1 20 4 0 5 -9 9 -20 9 -11 0 -20
-2 -20 -4z"/>
<path d="M493 33 c9 -2 25 -2 35 0 9 3 1 5 -18 5 -19 0 -27 -2 -17 -5z"/>
</g>
</svg>
