<?xml version="1.0" standalone="no"?>
<!DOCTYPE svg PUBLIC "-//W3C//DTD SVG 20010904//EN"
 "http://www.w3.org/TR/2001/REC-SVG-20010904/DTD/svg10.dtd">
<svg version="1.0" xmlns="http://www.w3.org/2000/svg"
 width="90.000000pt" height="92.000000pt" viewBox="0 0 90.000000 92.000000"
 preserveAspectRatio="xMidYMid meet">
<metadata>
Created by potrace 1.16, written by Peter Selinger 2001-2019
</metadata>
<g transform="translate(0.000000,92.000000) scale(0.100000,-0.100000)"
fill="#000000" stroke="none">
<path d="M317 823 c5 -16 8 -55 8 -87 l0 -60 -50 -11 c-48 -11 -49 -12 -24
-22 14 -6 37 -9 52 -6 25 5 27 3 27 -25 0 -38 -10 -44 -70 -44 l-48 0 14 -34
c8 -18 14 -45 14 -59 0 -15 5 -35 10 -45 9 -16 15 -18 36 -10 34 13 34 13 27
-7 -12 -35 -73 -120 -115 -161 -23 -23 -37 -42 -31 -42 18 0 87 50 120 88 l32
37 0 -45 c0 -25 -4 -67 -8 -94 -8 -50 2 -116 19 -116 19 0 25 30 30 155 l5
130 42 -39 c45 -40 73 -43 73 -7 0 24 -23 38 -79 47 -37 6 -41 10 -41 34 0 32
15 40 71 40 36 0 39 2 34 23 -4 15 3 35 19 60 15 21 26 40 26 43 0 2 -14 13
-30 23 -26 15 -37 16 -70 8 -46 -13 -53 -8 -45 25 5 19 17 27 56 37 48 13 64
33 34 45 -8 3 -27 1 -41 -4 -45 -17 -47 -14 -40 56 6 57 4 68 -11 80 -10 7
-26 14 -36 14 -14 0 -16 -5 -10 -27z m110 -299 c-7 -43 -5 -41 -40 -49 -27 -7
-27 -6 -27 39 l0 46 36 0 c36 0 37 0 31 -36z m-97 -20 c0 -44 -1 -45 -27 -42
-24 3 -28 8 -31 40 -3 37 -4 37 51 47 4 0 7 -20 7 -45z"/>
<path d="M583 735 c-11 -64 -50 -196 -77 -257 -14 -32 8 -19 38 22 16 21 36
38 45 38 9 0 37 5 63 13 26 7 50 11 53 8 3 -3 -2 -25 -10 -49 -19 -54 -19 -56
3 -38 9 8 38 27 65 42 52 30 55 36 29 59 -38 35 -75 40 -138 18 -32 -11 -60
-18 -62 -16 -2 2 3 16 11 32 8 15 25 59 38 97 l23 68 -23 19 c-38 31 -46 24
-58 -56z"/>
<path d="M132 708 c20 -24 45 -44 57 -46 17 -3 21 2 21 27 0 24 -7 34 -30 46
-16 8 -41 15 -56 15 l-27 0 35 -42z"/>
<path d="M30 553 c0 -21 63 -94 79 -91 26 5 26 54 -1 72 -30 19 -78 31 -78 19z"/>
<path d="M572 418 c0 -105 -42 -189 -125 -249 -47 -34 -32 -38 30 -8 44 21
100 88 125 148 l14 34 27 -54 c16 -30 45 -79 66 -109 l38 -55 63 0 c35 0 65 5
66 10 2 6 -20 21 -48 35 -60 29 -135 99 -177 164 -25 40 -28 52 -20 79 8 27 6
35 -12 50 -38 31 -46 22 -47 -45z"/>
<path d="M152 375 c-19 -35 -52 -85 -74 -110 -39 -45 -40 -48 -29 -83 15 -51
28 -69 39 -57 15 17 104 282 100 299 -2 9 -17 -12 -36 -49z"/>
</g>
</svg>
