<?xml version="1.0" standalone="no"?>
<!DOCTYPE svg PUBLIC "-//W3C//DTD SVG 20010904//EN"
 "http://www.w3.org/TR/2001/REC-SVG-20010904/DTD/svg10.dtd">
<svg version="1.0" xmlns="http://www.w3.org/2000/svg"
 width="96.000000pt" height="68.000000pt" viewBox="0 0 96.000000 68.000000"
 preserveAspectRatio="xMidYMid meet">
<metadata>
Created by potrace 1.16, written by Peter Selinger 2001-2019
</metadata>
<g transform="translate(0.000000,68.000000) scale(0.100000,-0.100000)"
fill="#000000" stroke="none">
<path d="M587 544 c-4 -4 -7 -20 -7 -35 0 -28 -15 -39 -56 -39 -13 0 -24 -4
-24 -10 0 -5 18 -10 40 -10 37 0 40 -2 40 -29 0 -26 -4 -29 -46 -36 -53 -8
-53 -13 2 -20 21 -2 40 -9 42 -15 5 -15 42 -12 42 4 0 8 13 17 30 20 17 3 44
9 61 12 51 10 12 25 -45 18 -43 -6 -48 -4 -43 11 4 9 7 23 7 30 0 8 15 17 38
20 20 4 46 10 57 15 18 8 16 9 -10 11 -16 1 -42 1 -57 0 -22 -2 -27 2 -30 26
-3 27 -26 42 -41 27z"/>
</g>
</svg>
