<?xml version="1.0" standalone="no"?>
<!DOCTYPE svg PUBLIC "-//W3C//DTD SVG 20010904//EN"
 "http://www.w3.org/TR/2001/REC-SVG-20010904/DTD/svg10.dtd">
<svg version="1.0" xmlns="http://www.w3.org/2000/svg"
 width="96.000000pt" height="68.000000pt" viewBox="0 0 96.000000 68.000000"
 preserveAspectRatio="xMidYMid meet">
<metadata>
Created by potrace 1.16, written by Peter Selinger 2001-2019
</metadata>
<g transform="translate(0.000000,68.000000) scale(0.100000,-0.100000)"
fill="#000000" stroke="none">
<path d="M298 524 c-3 -3 -4 -23 -1 -44 l5 -39 -61 -7 c-78 -9 -79 -24 -1 -24
l60 0 0 -34 0 -34 -72 -12 c-116 -18 -129 -21 -122 -31 7 -12 62 -11 124 2 28
6 54 9 56 6 9 -8 -45 -118 -83 -169 -29 -40 -32 -48 -15 -39 57 30 107 97 132
176 15 48 24 54 70 56 19 0 44 4 55 9 18 7 19 8 2 15 -9 4 -37 4 -62 1 -44 -7
-45 -7 -45 21 0 39 9 49 53 57 49 9 48 26 -3 26 -37 0 -40 2 -40 29 0 32 -33
54 -52 35z"/>
</g>
</svg>
