<?xml version="1.0" standalone="no"?>
<!DOCTYPE svg PUBLIC "-//W3C//DTD SVG 20010904//EN"
 "http://www.w3.org/TR/2001/REC-SVG-20010904/DTD/svg10.dtd">
<svg version="1.0" xmlns="http://www.w3.org/2000/svg"
 width="96.000000pt" height="68.000000pt" viewBox="0 0 96.000000 68.000000"
 preserveAspectRatio="xMidYMid meet">
<metadata>
Created by potrace 1.16, written by Peter Selinger 2001-2019
</metadata>
<g transform="translate(0.000000,68.000000) scale(0.100000,-0.100000)"
fill="#000000" stroke="none">
<path d="M350 299 c-25 -4 -69 -8 -98 -8 -52 -1 -52 -1 -38 -23 7 -13 19 -47
26 -76 11 -48 15 -53 34 -48 11 3 58 9 104 12 53 5 82 11 82 19 0 6 11 34 25
61 23 45 24 50 8 62 -18 13 -73 14 -143 1z m77 -60 c-3 -22 -7 -42 -9 -44 -8
-9 -133 -24 -139 -17 -4 4 -9 26 -13 49 l-6 42 37 4 c21 2 60 4 87 5 l49 2 -6
-41z"/>
</g>
</svg>
