<?xml version="1.0" standalone="no"?>
<!DOCTYPE svg PUBLIC "-//W3C//DTD SVG 20010904//EN"
 "http://www.w3.org/TR/2001/REC-SVG-20010904/DTD/svg10.dtd">
<svg version="1.0" xmlns="http://www.w3.org/2000/svg"
 width="96.000000pt" height="68.000000pt" viewBox="0 0 96.000000 68.000000"
 preserveAspectRatio="xMidYMid meet">
<metadata>
Created by potrace 1.16, written by Peter Selinger 2001-2019
</metadata>
<g transform="translate(0.000000,68.000000) scale(0.100000,-0.100000)"
fill="#000000" stroke="none">
<path d="M440 306 c0 -31 -2 -34 -42 -41 l-43 -9 45 -5 c33 -4 46 -11 48 -25
6 -27 -7 -34 -71 -38 -59 -3 -68 -14 -28 -34 17 -9 41 -5 119 18 124 36 127
38 67 36 -46 -2 -50 -1 -50 21 0 19 8 27 40 36 32 10 36 14 22 20 -9 4 -26 5
-37 2 -15 -4 -20 0 -20 14 0 16 -26 39 -44 39 -3 0 -6 -15 -6 -34z"/>
</g>
</svg>
