<?xml version="1.0" standalone="no"?>
<!DOCTYPE svg PUBLIC "-//W3C//DTD SVG 20010904//EN"
 "http://www.w3.org/TR/2001/REC-SVG-20010904/DTD/svg10.dtd">
<svg version="1.0" xmlns="http://www.w3.org/2000/svg"
 width="96.000000pt" height="68.000000pt" viewBox="0 0 96.000000 68.000000"
 preserveAspectRatio="xMidYMid meet">
<metadata>
Created by potrace 1.16, written by Peter Selinger 2001-2019
</metadata>
<g transform="translate(0.000000,68.000000) scale(0.100000,-0.100000)"
fill="#000000" stroke="none">
<path d="M555 584 c-44 -7 -119 -13 -167 -13 l-88 -1 11 -27 c16 -42 -6 -157
-46 -238 -18 -38 -57 -96 -86 -129 l-53 -58 40 20 c79 40 146 132 178 244 20
66 13 63 204 74 100 5 122 9 118 21 -6 15 19 60 44 80 13 10 9 14 -22 27 -21
9 -41 15 -45 15 -4 -1 -44 -8 -88 -15z m72 -30 c3 -8 1 -26 -5 -38 -11 -26
-33 -31 -169 -42 l-83 -7 0 29 c0 16 4 34 8 40 6 9 87 21 225 33 10 0 20 -6
24 -15z"/>
</g>
</svg>
