<?xml version="1.0" standalone="no"?>
<!DOCTYPE svg PUBLIC "-//W3C//DTD SVG 20010904//EN"
 "http://www.w3.org/TR/2001/REC-SVG-20010904/DTD/svg10.dtd">
<svg version="1.0" xmlns="http://www.w3.org/2000/svg"
 width="96.000000pt" height="68.000000pt" viewBox="0 0 96.000000 68.000000"
 preserveAspectRatio="xMidYMid meet">
<metadata>
Created by potrace 1.16, written by Peter Selinger 2001-2019
</metadata>
<g transform="translate(0.000000,68.000000) scale(0.100000,-0.100000)"
fill="#000000" stroke="none">
<path d="M525 550 c-18 -27 -24 -30 -55 -25 l-35 6 42 -38 c23 -21 70 -72 105
-113 34 -41 68 -81 75 -88 17 -18 61 -23 118 -14 l50 8 -86 41 c-47 23 -104
59 -128 81 l-43 39 54 19 c32 12 53 25 53 34 0 27 -39 22 -70 -10 -35 -36 -54
-38 -84 -6 l-23 25 47 21 c46 21 55 43 19 48 -12 2 -26 -9 -39 -28z"/>
<path d="M278 528 c-63 -13 -61 -28 2 -28 28 0 50 -3 50 -7 0 -10 -50 -93 -57
-93 -3 0 -11 7 -17 16 -7 9 -22 14 -35 12 l-22 -3 20 -21 c11 -12 25 -24 32
-26 17 -6 -42 -71 -101 -111 -32 -23 -40 -33 -28 -35 45 -9 168 92 232 190 20
31 41 60 46 63 16 10 12 42 -6 49 -21 8 -58 6 -116 -6z"/>
<path d="M382 369 c-13 -5 -28 -7 -33 -3 -5 3 -9 0 -9 -5 0 -6 17 -11 39 -11
59 0 131 12 131 21 0 12 -99 10 -128 -2z"/>
<path d="M405 299 c-44 -5 -90 -7 -102 -4 -22 5 -32 -8 -14 -19 5 -3 14 -28
21 -56 12 -50 24 -68 34 -52 3 5 39 10 81 11 70 2 75 0 75 -19 0 -24 -18 -61
-34 -72 -6 -4 -23 -8 -39 -8 -20 0 -30 7 -37 25 -10 25 -55 54 -66 42 -4 -4 1
-18 10 -32 9 -14 15 -29 12 -34 -3 -4 -36 -9 -73 -10 -75 -2 -97 -13 -64 -30
15 -9 37 -9 79 -2 53 10 329 34 348 30 5 -1 25 -1 44 0 34 2 34 2 15 17 -16
13 -36 15 -102 10 -46 -3 -83 -5 -83 -3 0 2 11 17 25 33 27 32 30 40 15 49
-16 10 -11 48 10 75 17 23 17 26 3 42 -17 20 -34 20 -158 7z m105 -41 c0 -39
-13 -47 -84 -54 -60 -6 -71 -5 -83 11 -20 28 -16 53 10 58 12 2 52 5 90 6 63
1 67 0 67 -21z"/>
</g>
</svg>
