<?xml version="1.0" standalone="no"?>
<!DOCTYPE svg PUBLIC "-//W3C//DTD SVG 20010904//EN"
 "http://www.w3.org/TR/2001/REC-SVG-20010904/DTD/svg10.dtd">
<svg version="1.0" xmlns="http://www.w3.org/2000/svg"
 width="96.000000pt" height="68.000000pt" viewBox="0 0 96.000000 68.000000"
 preserveAspectRatio="xMidYMid meet">
<metadata>
Created by potrace 1.16, written by Peter Selinger 2001-2019
</metadata>
<g transform="translate(0.000000,68.000000) scale(0.100000,-0.100000)"
fill="#000000" stroke="none">
<path d="M565 580 c-7 -11 34 -60 51 -60 20 0 29 27 15 44 -13 16 -59 27 -66
16z"/>
<path d="M540 499 c-74 -9 -137 -18 -140 -19 -3 0 3 -5 13 -11 38 -22 6 -252
-53 -377 l-31 -66 26 24 c55 51 95 161 115 315 6 50 15 94 19 98 5 5 71 13
147 19 77 6 141 13 144 15 2 2 -2 8 -10 13 -20 13 -71 11 -230 -11z"/>
</g>
</svg>
