<?xml version="1.0" standalone="no"?>
<!DOCTYPE svg PUBLIC "-//W3C//DTD SVG 20010904//EN"
 "http://www.w3.org/TR/2001/REC-SVG-20010904/DTD/svg10.dtd">
<svg version="1.0" xmlns="http://www.w3.org/2000/svg"
 width="96.000000pt" height="68.000000pt" viewBox="0 0 96.000000 68.000000"
 preserveAspectRatio="xMidYMid meet">
<metadata>
Created by potrace 1.16, written by Peter Selinger 2001-2019
</metadata>
<g transform="translate(0.000000,68.000000) scale(0.100000,-0.100000)"
fill="#000000" stroke="none">
<path d="M495 214 c-60 -6 -146 -13 -190 -13 -58 -1 -75 -4 -63 -11 9 -6 24
-35 33 -65 10 -35 21 -55 30 -55 17 0 20 36 5 74 -5 14 -8 26 -7 27 19 6 216
26 257 25 60 -1 61 -3 47 -73 -6 -29 -4 -33 16 -33 17 0 28 13 49 55 l27 55
-29 15 c-16 8 -37 14 -47 14 -10 -1 -67 -8 -128 -15z"/>
</g>
</svg>
