<?xml version="1.0" standalone="no"?>
<!DOCTYPE svg PUBLIC "-//W3C//DTD SVG 20010904//EN"
 "http://www.w3.org/TR/2001/REC-SVG-20010904/DTD/svg10.dtd">
<svg version="1.0" xmlns="http://www.w3.org/2000/svg"
 width="96.000000pt" height="68.000000pt" viewBox="0 0 96.000000 68.000000"
 preserveAspectRatio="xMidYMid meet">
<metadata>
Created by potrace 1.16, written by Peter Selinger 2001-2019
</metadata>
<g transform="translate(0.000000,68.000000) scale(0.100000,-0.100000)"
fill="#000000" stroke="none">
<path d="M257 564 c-3 -3 -17 -30 -32 -60 -14 -29 -44 -69 -67 -88 -32 -27
-38 -39 -33 -56 5 -16 13 -21 28 -17 12 3 38 8 57 12 l35 8 -41 -39 c-23 -21
-49 -45 -58 -52 -19 -15 -13 -32 11 -32 9 0 45 12 81 26 46 18 67 23 75 15 15
-15 37 -14 37 2 0 21 -14 35 -43 42 -21 6 -26 4 -22 -7 4 -10 -7 -20 -36 -31
-24 -9 -45 -14 -48 -11 -3 3 31 41 77 85 73 69 82 81 72 99 -15 29 -26 25 -51
-19 -21 -39 -42 -51 -87 -51 -21 0 -17 8 37 67 34 37 61 73 61 80 0 7 -9 17
-19 23 -23 12 -26 12 -34 4z"/>
<path d="M580 549 c-19 -5 -65 -9 -102 -10 -69 0 -78 -5 -56 -27 7 -7 18 -40
25 -73 7 -34 14 -63 15 -64 2 -2 32 1 67 6 46 7 68 6 78 -3 19 -15 27 -4 48
62 10 30 21 59 26 64 15 16 10 25 -21 41 -32 17 -31 17 -80 4z m40 -44 c0 -19
-5 -25 -22 -25 -13 0 -47 -3 -75 -6 -52 -7 -53 -6 -53 19 0 28 13 33 103 36
44 1 47 -1 47 -24z m-6 -67 c-3 -13 -7 -24 -8 -24 0 -1 -29 -5 -63 -9 -63 -7
-63 -7 -63 18 0 27 -7 25 118 35 20 2 22 -1 16 -20z"/>
<path d="M665 356 c-5 -2 -64 -9 -130 -16 -151 -15 -189 -28 -82 -29 l77 -1 0
-80 c0 -44 -4 -80 -9 -80 -6 0 -26 9 -45 21 -32 19 -34 22 -23 46 9 21 8 27
-8 39 -27 20 -33 18 -40 -18 -8 -40 -46 -106 -74 -132 -12 -11 -21 -23 -21
-28 0 -15 39 11 82 54 l40 40 37 -20 c20 -11 52 -30 71 -41 19 -12 60 -33 90
-47 52 -24 58 -25 115 -13 80 16 87 25 23 32 -29 3 -86 13 -125 23 l-73 17 0
42 0 43 65 7 c36 3 65 11 65 17 0 7 -22 9 -65 5 -71 -7 -70 -7 -56 57 6 28 7
28 90 32 82 4 100 8 88 20 -7 7 -78 15 -92 10z"/>
<path d="M290 242 c0 -10 43 -52 53 -52 14 0 7 27 -11 43 -20 18 -42 22 -42 9z"/>
<path d="M230 202 c1 -13 38 -52 49 -52 15 0 14 25 -1 37 -19 14 -48 24 -48
15z"/>
<path d="M140 184 c0 -12 44 -84 51 -84 4 0 9 9 12 21 4 14 -2 29 -18 45 -23
23 -45 31 -45 18z"/>
</g>
</svg>
