<?xml version="1.0" standalone="no"?>
<!DOCTYPE svg PUBLIC "-//W3C//DTD SVG 20010904//EN"
 "http://www.w3.org/TR/2001/REC-SVG-20010904/DTD/svg10.dtd">
<svg version="1.0" xmlns="http://www.w3.org/2000/svg"
 width="96.000000pt" height="68.000000pt" viewBox="0 0 96.000000 68.000000"
 preserveAspectRatio="xMidYMid meet">
<metadata>
Created by potrace 1.16, written by Peter Selinger 2001-2019
</metadata>
<g transform="translate(0.000000,68.000000) scale(0.100000,-0.100000)"
fill="#000000" stroke="none">
<path d="M205 500 c-11 -5 -36 -9 -55 -9 l-35 -1 0 -168 c1 -167 6 -201 28
-184 7 5 26 12 44 15 26 5 33 3 38 -13 7 -23 28 -26 43 -7 6 7 12 85 14 184 3
154 1 172 -14 182 -21 13 -35 13 -63 1z m33 -91 l3 -67 -41 -4 -40 -4 0 67 c0
71 5 79 50 76 24 -2 25 -6 28 -68z m2 -153 c0 -36 -3 -67 -8 -70 -4 -2 -24 -7
-45 -11 l-37 -7 0 38 c0 22 3 56 6 77 6 35 8 37 45 37 l39 0 0 -64z"/>
</g>
</svg>
