<?xml version="1.0" standalone="no"?>
<!DOCTYPE svg PUBLIC "-//W3C//DTD SVG 20010904//EN"
 "http://www.w3.org/TR/2001/REC-SVG-20010904/DTD/svg10.dtd">
<svg version="1.0" xmlns="http://www.w3.org/2000/svg"
 width="96.000000pt" height="68.000000pt" viewBox="0 0 96.000000 68.000000"
 preserveAspectRatio="xMidYMid meet">
<metadata>
Created by potrace 1.16, written by Peter Selinger 2001-2019
</metadata>
<g transform="translate(0.000000,68.000000) scale(0.100000,-0.100000)"
fill="#000000" stroke="none">
<path d="M594 502 c3 -5 8 -22 10 -39 5 -28 3 -31 -25 -37 -17 -3 -42 -6 -55
-6 -13 0 -24 -5 -24 -11 0 -6 20 -9 53 -7 50 3 52 2 55 -23 3 -22 -2 -27 -29
-33 -17 -3 -42 -6 -55 -6 -13 0 -24 -5 -24 -11 0 -10 39 -8 199 7 42 4 59 10
50 15 -8 5 -35 7 -61 3 -41 -5 -48 -3 -48 11 0 34 20 55 53 55 18 0 43 3 56 7
23 6 23 7 5 14 -10 4 -39 5 -63 1 -44 -5 -44 -5 -37 22 5 22 2 28 -19 36 -32
12 -48 13 -41 2z"/>
</g>
</svg>
