<?xml version="1.0" standalone="no"?>
<!DOCTYPE svg PUBLIC "-//W3C//DTD SVG 20010904//EN"
 "http://www.w3.org/TR/2001/REC-SVG-20010904/DTD/svg10.dtd">
<svg version="1.0" xmlns="http://www.w3.org/2000/svg"
 width="96.000000pt" height="68.000000pt" viewBox="0 0 96.000000 68.000000"
 preserveAspectRatio="xMidYMid meet">
<metadata>
Created by potrace 1.16, written by Peter Selinger 2001-2019
</metadata>
<g transform="translate(0.000000,68.000000) scale(0.100000,-0.100000)"
fill="#000000" stroke="none">
<path d="M562 523 c3 -36 2 -38 -29 -41 -18 -2 -33 -8 -33 -14 0 -6 15 -8 35
-6 31 3 35 1 35 -18 0 -20 -7 -23 -56 -30 -37 -4 -52 -9 -43 -15 8 -5 28 -6
44 -3 17 4 75 10 129 13 72 4 101 10 104 20 4 12 -8 13 -67 8 -65 -5 -71 -4
-71 13 0 14 10 20 40 25 56 9 60 25 6 25 -41 0 -45 2 -48 28 -2 19 -9 28 -26
30 -21 3 -23 0 -20 -35z"/>
<path d="M275 518 c-33 -5 -77 -6 -99 -3 -34 5 -37 4 -30 -12 5 -10 9 -72 9
-138 0 -136 -9 -125 90 -106 28 5 67 10 89 10 l38 1 -7 -67 c-10 -99 -19 -116
-55 -111 -36 5 -38 -1 -6 -31 28 -27 57 -22 74 12 13 28 43 197 36 208 -3 5
-27 11 -55 15 -43 6 -50 9 -47 28 2 15 14 23 47 29 32 6 40 11 30 18 -8 5 -26
9 -41 9 -21 0 -28 5 -28 19 0 15 10 22 43 29 l42 9 -42 8 c-32 6 -43 12 -43
26 0 13 10 20 38 24 54 9 64 14 57 25 -7 12 -56 11 -140 -2z m-2 -57 c6 -25 0
-31 -35 -31 -23 0 -28 4 -28 25 0 21 5 25 29 25 20 0 30 -6 34 -19z m3 -73
c-2 -18 -11 -24 -34 -26 -28 -3 -32 0 -32 22 0 23 4 26 35 26 31 0 34 -3 31
-22z m-4 -54 c3 -3 4 -14 1 -25 -4 -14 -14 -19 -39 -19 -30 0 -34 3 -34 25 0
22 4 25 33 25 19 0 36 -3 39 -6z"/>
<path d="M654 366 c5 -20 1 -26 -22 -34 l-27 -10 28 -1 c20 -1 27 -6 27 -20 0
-20 -18 -31 -51 -31 -10 0 -19 -4 -19 -10 0 -13 47 -12 140 4 51 9 69 16 57
21 -9 4 -33 5 -52 3 -31 -4 -35 -1 -35 19 0 18 6 23 25 23 14 0 25 5 25 10 0
6 -11 10 -25 10 -14 0 -24 3 -24 8 4 23 -4 32 -27 32 -23 0 -25 -3 -20 -24z"/>
<path d="M480 346 c0 -16 -7 -26 -22 -31 l-23 -7 25 -7 c33 -9 32 -33 -4 -50
-19 -9 -25 -16 -16 -21 17 -11 73 8 107 36 l28 24 -27 -10 c-25 -8 -28 -7 -28
10 0 13 7 20 19 20 11 0 23 5 26 10 4 6 -5 10 -19 10 -19 0 -26 5 -26 20 0 13
-7 20 -20 20 -14 0 -20 -7 -20 -24z"/>
<path d="M297 234 c-3 -6 3 -21 14 -32 25 -27 29 -27 29 -2 0 11 -6 20 -14 20
-8 0 -16 5 -18 12 -3 8 -7 9 -11 2z"/>
<path d="M568 211 c-95 -16 -136 -31 -85 -31 15 0 27 -5 27 -10 0 -24 -32 -70
-72 -103 -41 -34 -41 -35 -13 -29 36 6 135 104 135 132 0 15 7 20 25 20 23 0
25 -3 25 -50 0 -68 20 -106 61 -114 77 -15 172 1 184 32 5 14 -24 72 -36 72
-4 0 -10 -12 -14 -27 -3 -15 -12 -31 -18 -35 -21 -13 -114 -9 -126 5 -6 8 -10
39 -8 69 l2 55 39 1 c45 2 57 9 36 22 -20 13 -46 11 -162 -9z"/>
<path d="M230 212 c0 -15 38 -44 51 -40 9 3 6 11 -9 26 -22 22 -42 29 -42 14z"/>
<path d="M95 176 c-18 -41 -14 -66 9 -66 18 0 33 77 17 93 -7 7 -15 0 -26 -27z"/>
<path d="M156 198 c13 -23 37 -48 46 -48 15 0 9 26 -10 43 -22 20 -46 23 -36
5z"/>
</g>
</svg>
