<?xml version="1.0" standalone="no"?>
<!DOCTYPE svg PUBLIC "-//W3C//DTD SVG 20010904//EN"
 "http://www.w3.org/TR/2001/REC-SVG-20010904/DTD/svg10.dtd">
<svg version="1.0" xmlns="http://www.w3.org/2000/svg"
 width="96.000000pt" height="68.000000pt" viewBox="0 0 96.000000 68.000000"
 preserveAspectRatio="xMidYMid meet">
<metadata>
Created by potrace 1.16, written by Peter Selinger 2001-2019
</metadata>
<g transform="translate(0.000000,68.000000) scale(0.100000,-0.100000)"
fill="#000000" stroke="none">
<path d="M504 548 c3 -18 6 -114 7 -213 l2 -180 -24 -6 c-13 -4 -39 -7 -57 -8
l-33 -1 4 168 c2 92 8 179 12 194 6 24 4 28 -21 33 -16 4 -37 9 -47 12 -17 4
-18 0 -12 -50 l7 -54 -76 -8 c-100 -9 -101 -28 -1 -23 l75 3 0 -32 c0 -34 1
-34 -98 -48 -71 -11 -38 -28 39 -21 l69 6 0 -34 0 -34 -67 -7 c-103 -11 -114
-27 -15 -22 l82 4 0 -47 0 -48 -97 -1 c-54 -1 -102 -6 -106 -10 -18 -18 50
-29 124 -21 41 5 179 12 307 16 127 4 232 11 232 15 0 27 -125 40 -217 23
l-33 -6 0 45 0 44 46 7 c26 3 62 6 80 6 36 0 45 13 18 24 -9 4 -45 3 -80 0
l-64 -7 0 36 c0 40 11 47 73 48 23 0 51 4 62 8 19 8 19 8 -3 15 -12 4 -47 4
-77 1 l-55 -7 0 35 0 35 65 7 c35 4 72 14 82 22 16 13 11 14 -44 9 -34 -3 -68
-7 -75 -8 -9 -2 -13 11 -13 45 0 51 -12 67 -54 67 -21 0 -23 -3 -17 -32z"/>
</g>
</svg>
