<?xml version="1.0" standalone="no"?>
<!DOCTYPE svg PUBLIC "-//W3C//DTD SVG 20010904//EN"
 "http://www.w3.org/TR/2001/REC-SVG-20010904/DTD/svg10.dtd">
<svg version="1.0" xmlns="http://www.w3.org/2000/svg"
 width="90.000000pt" height="92.000000pt" viewBox="0 0 90.000000 92.000000"
 preserveAspectRatio="xMidYMid meet">
<metadata>
Created by potrace 1.16, written by Peter Selinger 2001-2019
</metadata>
<g transform="translate(0.000000,92.000000) scale(0.100000,-0.100000)"
fill="#000000" stroke="none">
<path d="M510 881 c0 -34 -3 -39 -32 -49 -32 -10 -32 -10 -10 -18 20 -6 23
-11 18 -37 -3 -17 -8 -32 -10 -35 -8 -8 -199 -33 -212 -28 -7 3 -16 1 -19 -4
-3 -4 0 -10 6 -12 6 -2 19 -37 28 -78 10 -41 22 -74 27 -73 100 17 104 16 104
-11 0 -18 -5 -26 -17 -27 -10 0 -49 -4 -88 -8 -60 -7 -72 -5 -82 9 -15 22 -53
33 -53 16 0 -7 5 -17 12 -24 9 -9 4 -12 -25 -12 -20 0 -37 -4 -37 -10 0 -15
40 -32 61 -27 18 5 19 0 17 -52 -1 -31 1 -62 6 -69 15 -25 26 1 26 62 0 73 -3
71 114 82 l68 7 -7 -24 c-10 -34 -11 -34 -66 -34 -27 0 -49 -3 -49 -7 0 -18
42 -49 58 -43 9 4 54 16 100 28 79 21 84 21 93 5 15 -26 39 -22 39 6 0 26 -13
40 -53 55 -25 10 -27 9 -17 -8 8 -17 5 -19 -30 -23 -38 -3 -40 -2 -40 23 0 24
5 27 46 33 26 3 82 6 125 6 l79 0 0 -32 c0 -63 -10 -81 -40 -74 l-28 5 25 -44
c28 -51 33 -53 57 -26 14 16 56 151 56 182 0 5 -14 16 -31 24 -28 15 -39 15
-128 1 -54 -9 -113 -16 -130 -16 -28 0 -32 3 -29 23 2 18 10 23 47 25 27 2 47
-1 52 -9 13 -21 35 6 60 74 12 34 27 68 32 75 20 26 -66 62 -113 47 -22 -7
-22 -7 -4 23 13 23 27 32 56 36 21 3 56 9 78 12 44 6 60 21 39 35 -13 9 -64 6
-117 -8 -21 -5 -22 -4 -10 22 13 29 1 45 -34 45 -14 0 -18 -8 -18 -39z m50
-183 c0 -21 -5 -23 -60 -24 -52 -2 -60 1 -60 16 0 20 19 26 83 29 32 1 37 -2
37 -21z m-160 -17 c0 -31 -83 -44 -94 -15 -9 22 -9 22 22 27 61 9 72 7 72 -12z
m150 -43 c0 -25 -15 -33 -62 -36 -42 -2 -48 0 -48 17 0 14 8 21 28 24 57 8 82
7 82 -5z m-147 -28 c4 -15 -2 -20 -35 -25 -44 -8 -43 -8 -52 21 -6 20 -3 22
38 22 35 1 45 -3 49 -18z"/>
<path d="M267 894 c-3 -3 3 -23 14 -43 l19 -36 -37 -7 c-21 -4 -56 -7 -78 -7
l-40 -1 27 -26 c26 -27 27 -27 67 -10 56 22 70 20 77 -9 9 -35 24 -31 24 5 0
24 6 33 33 44 l32 14 -37 1 c-35 1 -38 3 -38 31 0 24 -6 33 -26 40 -30 12 -29
12 -37 4z"/>
<path d="M440 364 c-41 -7 -95 -13 -120 -14 -27 0 -40 -4 -32 -8 7 -5 20 -33
30 -63 16 -52 18 -54 50 -51 34 4 36 1 46 -55 6 -38 3 -39 -74 -22 -51 11 -51
11 -33 31 17 19 17 20 -6 39 -33 27 -51 24 -51 -9 0 -38 -52 -114 -103 -152
-22 -16 -35 -30 -29 -30 26 0 110 50 135 80 l26 31 189 -61 c104 -33 201 -60
215 -60 35 0 178 60 171 71 -3 5 -51 9 -107 9 -92 0 -194 10 -269 26 -18 4
-28 12 -28 23 0 15 12 19 62 25 34 3 64 9 67 12 13 13 -28 24 -70 19 -40 -5
-47 -3 -52 14 -4 17 2 20 44 26 28 4 46 11 43 17 -3 5 6 27 20 48 l26 40 -30
15 c-16 8 -33 14 -37 14 -4 -1 -42 -7 -83 -15z m65 -51 c-4 -16 -8 -29 -10
-31 -7 -7 -135 -26 -140 -21 -2 3 -8 19 -11 37 -6 29 -4 31 27 35 19 2 58 5
88 5 l53 2 -7 -27z"/>
</g>
</svg>
