<?xml version="1.0" standalone="no"?>
<!DOCTYPE svg PUBLIC "-//W3C//DTD SVG 20010904//EN"
 "http://www.w3.org/TR/2001/REC-SVG-20010904/DTD/svg10.dtd">
<svg version="1.0" xmlns="http://www.w3.org/2000/svg"
 width="90.000000pt" height="92.000000pt" viewBox="0 0 90.000000 92.000000"
 preserveAspectRatio="xMidYMid meet">
<metadata>
Created by potrace 1.16, written by Peter Selinger 2001-2019
</metadata>
<g transform="translate(0.000000,92.000000) scale(0.100000,-0.100000)"
fill="#000000" stroke="none">
<path d="M185 783 c-11 -74 -52 -165 -121 -270 -35 -54 -63 -102 -61 -108 2
-5 34 21 71 58 76 77 100 82 112 20 8 -41 -1 -49 -63 -59 -24 -3 -43 -10 -43
-15 0 -13 47 -22 80 -15 26 5 30 3 30 -18 0 -13 3 -50 6 -84 l7 -60 -39 -11
c-22 -6 -62 -11 -91 -11 -60 0 -62 -12 -12 -50 l31 -22 66 30 c37 17 95 40
130 53 60 21 80 34 69 45 -3 3 -29 -2 -58 -10 -29 -9 -54 -16 -56 -16 -2 0 -2
39 -1 87 l3 88 38 6 c20 3 40 9 44 13 13 12 -21 27 -54 23 -31 -3 -31 -2 -30
39 2 40 4 43 34 49 41 7 49 21 23 35 -15 8 -34 7 -76 -6 -30 -9 -58 -14 -60
-11 -3 3 13 42 36 87 l42 83 43 -43 c41 -40 44 -41 54 -22 6 11 8 27 5 36 -5
14 -62 46 -83 46 -6 0 -8 7 -5 15 6 14 -37 65 -54 65 -6 0 -13 -21 -17 -47z"/>
<path d="M705 800 c-22 -5 -102 -16 -177 -26 -96 -12 -135 -21 -129 -28 5 -6
18 -46 30 -89 25 -91 21 -104 -50 -174 -23 -24 -39 -43 -35 -43 12 0 48 21 83
47 29 21 46 24 150 29 64 3 121 8 125 10 19 12 48 -9 53 -39 8 -43 -11 -305
-25 -341 -9 -26 -13 -28 -46 -21 -19 3 -43 9 -51 12 -9 4 3 -19 27 -51 26 -34
49 -56 59 -54 20 4 59 62 70 107 8 29 24 207 34 365 2 24 -5 35 -32 53 -18 12
-37 20 -42 18 -8 -5 -220 -35 -247 -35 -13 0 -12 3 2 19 17 19 10 32 -24 43
-24 8 204 30 232 23 23 -6 29 0 67 65 22 40 41 76 41 81 0 9 -54 40 -67 38 -4
-1 -26 -5 -48 -9z m29 -39 c3 -4 0 -28 -7 -52 -12 -41 -14 -43 -54 -44 l-41
-1 19 38 c11 21 17 43 14 48 -3 5 7 11 22 13 16 2 31 5 35 6 4 0 9 -3 12 -8z
m-117 -47 c-5 -45 -18 -64 -44 -64 -9 0 -13 16 -13 49 0 51 0 51 54 60 5 0 6
-20 3 -45z m-91 -1 c3 -16 8 -34 10 -42 6 -17 -13 -31 -43 -31 -18 0 -24 8
-31 43 -11 52 -8 57 28 57 24 0 31 -5 36 -27z"/>
<path d="M467 446 l6 -46 -57 0 c-31 0 -56 -2 -56 -4 0 -2 7 -17 15 -32 8 -16
15 -37 15 -46 0 -38 10 -46 51 -41 l39 6 0 -41 c0 -40 0 -40 -45 -46 -25 -4
-54 -4 -65 -1 -31 10 -25 -20 10 -45 28 -20 31 -20 62 -4 17 9 62 27 99 39
l68 23 16 -24 c19 -29 32 -31 40 -4 8 27 -10 57 -46 76 -34 17 -48 12 -30 -10
9 -11 6 -15 -16 -20 -16 -4 -36 -9 -45 -12 -14 -4 -18 1 -18 23 0 40 17 53 68
53 34 0 43 3 39 14 -3 8 3 32 14 53 11 21 17 44 14 51 -8 23 -48 30 -87 16
l-37 -13 -3 37 c-3 32 -7 37 -29 40 -26 3 -27 2 -22 -42z m113 -86 c0 -23 -5
-31 -24 -36 -30 -7 -47 2 -41 21 3 8 7 22 10 30 2 8 16 15 30 15 21 0 25 -5
25 -30z m-100 -21 c0 -26 -3 -29 -30 -29 -19 0 -30 5 -30 14 0 8 -3 21 -6 29
-4 11 2 17 23 19 38 5 43 1 43 -33z"/>
<path d="M292 343 c-6 -16 -14 -39 -17 -53 -6 -23 -4 -22 31 12 32 31 36 39
25 52 -19 22 -27 20 -39 -11z"/>
<path d="M80 322 c0 -5 14 -28 31 -52 29 -39 33 -42 44 -26 7 9 11 26 8 37 -8
28 -83 65 -83 41z"/>
</g>
</svg>
