<?xml version="1.0" standalone="no"?>
<!DOCTYPE svg PUBLIC "-//W3C//DTD SVG 20010904//EN"
 "http://www.w3.org/TR/2001/REC-SVG-20010904/DTD/svg10.dtd">
<svg version="1.0" xmlns="http://www.w3.org/2000/svg"
 width="96.000000pt" height="68.000000pt" viewBox="0 0 96.000000 68.000000"
 preserveAspectRatio="xMidYMid meet">
<metadata>
Created by potrace 1.16, written by Peter Selinger 2001-2019
</metadata>
<g transform="translate(0.000000,68.000000) scale(0.100000,-0.100000)"
fill="#000000" stroke="none">
<path d="M516 543 c-10 -10 -7 -19 14 -43 34 -40 28 -43 -88 -44 -29 -1 -35
-6 -51 -42 -19 -42 -14 -73 9 -59 7 4 18 22 25 40 13 31 17 32 102 44 48 7
101 15 117 18 27 5 28 3 22 -21 -3 -14 -3 -26 1 -26 17 0 93 33 93 41 0 5 -17
16 -37 25 -30 12 -47 14 -83 6 -25 -6 -45 -10 -45 -9 0 1 -7 15 -15 31 -15 28
-52 51 -64 39z"/>
<path d="M228 492 c-10 -27 -36 -70 -59 -95 -30 -35 -39 -52 -34 -68 5 -16 12
-19 28 -15 12 4 37 10 56 13 l33 6 -51 -48 c-28 -26 -51 -52 -51 -57 0 -18 32
-20 68 -2 20 10 57 19 82 19 50 1 61 21 25 42 -29 18 -51 17 -36 -1 7 -8 8
-16 4 -19 -17 -11 -83 -19 -83 -11 0 5 32 41 70 79 73 73 79 85 56 104 -11 10
-19 4 -38 -31 -20 -36 -28 -43 -61 -46 -45 -4 -45 -6 22 82 36 46 43 61 34 74
-5 10 -19 18 -29 20 -15 2 -23 -8 -36 -46z"/>
<path d="M575 359 c-22 -4 -59 -9 -82 -10 -24 -1 -43 -6 -43 -11 0 -9 14 -11
44 -8 28 3 36 -17 36 -92 0 -75 -4 -78 -59 -49 -21 11 -30 21 -22 25 16 10 14
43 -5 50 -26 10 -34 7 -34 -14 0 -33 -32 -93 -74 -137 -22 -24 -37 -43 -32
-43 26 0 84 50 117 99 l15 24 90 -58 c136 -89 158 -97 232 -83 34 6 62 14 62
18 0 3 -35 12 -77 19 -43 7 -97 21 -120 31 -23 10 -44 16 -47 12 -3 -3 -6 19
-6 50 l0 55 51 2 c57 2 78 9 59 21 -6 4 -30 4 -53 -1 -49 -8 -57 -5 -57 22 0
37 18 56 60 63 23 4 38 11 35 16 -7 11 -33 11 -90 -1z"/>
<path d="M280 202 c0 -12 34 -42 48 -42 14 0 15 10 4 26 -9 15 -52 28 -52 16z"/>
<path d="M210 172 c0 -13 30 -52 41 -52 14 0 11 27 -7 44 -16 17 -34 21 -34 8z"/>
<path d="M110 147 c0 -22 55 -81 68 -73 19 11 14 25 -17 57 -31 31 -51 37 -51
16z"/>
</g>
</svg>
