<?xml version="1.0" standalone="no"?>
<!DOCTYPE svg PUBLIC "-//W3C//DTD SVG 20010904//EN"
 "http://www.w3.org/TR/2001/REC-SVG-20010904/DTD/svg10.dtd">
<svg version="1.0" xmlns="http://www.w3.org/2000/svg"
 width="96.000000pt" height="68.000000pt" viewBox="0 0 96.000000 68.000000"
 preserveAspectRatio="xMidYMid meet">
<metadata>
Created by potrace 1.16, written by Peter Selinger 2001-2019
</metadata>
<g transform="translate(0.000000,68.000000) scale(0.100000,-0.100000)"
fill="#000000" stroke="none">
<path d="M655 532 c-95 -23 -108 -33 -37 -27 35 4 71 9 79 12 14 6 15 0 10
-42 -4 -27 -9 -50 -11 -52 -2 -3 -36 -9 -76 -15 -51 -8 -68 -14 -61 -21 16
-16 14 -41 -6 -82 -23 -47 -9 -62 40 -41 20 8 60 16 89 18 l53 3 3 -43 c4 -51
-24 -141 -46 -149 -8 -4 -28 -1 -43 4 -36 14 -36 9 -3 -34 30 -40 43 -41 82
-8 24 20 35 45 57 126 28 100 28 102 9 116 -15 12 -38 13 -106 8 -49 -4 -88
-3 -88 2 0 5 7 18 15 29 8 10 15 27 15 37 0 14 9 17 50 17 40 0 52 4 56 18 3
9 14 39 24 66 31 78 13 88 -105 58z"/>
</g>
</svg>
