<?xml version="1.0" standalone="no"?>
<!DOCTYPE svg PUBLIC "-//W3C//DTD SVG 20010904//EN"
 "http://www.w3.org/TR/2001/REC-SVG-20010904/DTD/svg10.dtd">
<svg version="1.0" xmlns="http://www.w3.org/2000/svg"
 width="96.000000pt" height="68.000000pt" viewBox="0 0 96.000000 68.000000"
 preserveAspectRatio="xMidYMid meet">
<metadata>
Created by potrace 1.16, written by Peter Selinger 2001-2019
</metadata>
<g transform="translate(0.000000,68.000000) scale(0.100000,-0.100000)"
fill="#000000" stroke="none">
<path d="M576 541 l6 -49 -46 -7 c-55 -9 -52 -26 3 -21 34 3 40 0 44 -20 5
-26 -13 -34 -81 -34 -43 0 -43 0 -28 -22 9 -12 16 -36 16 -53 0 -46 14 -60 55
-57 29 3 35 0 35 -16 0 -23 -18 -32 -65 -32 -19 0 -37 -4 -40 -10 -4 -6 14
-10 45 -10 50 0 52 -1 46 -24 -8 -31 10 -79 27 -74 6 3 14 27 17 54 l5 49 83
3 c81 3 106 15 56 28 -14 4 -52 3 -85 0 -59 -7 -60 -7 -57 16 3 20 8 23 52 23
43 0 50 3 59 25 6 14 19 43 29 64 17 37 17 40 0 53 -12 10 -33 12 -74 8 -53
-6 -58 -4 -58 14 0 20 10 25 73 37 38 6 51 23 20 25 -23 2 -24 2 -56 -6 -25
-7 -27 -5 -27 23 0 30 -11 44 -43 55 -16 6 -17 2 -11 -42z m134 -151 c0 -17
-7 -20 -45 -20 -38 0 -45 3 -45 20 0 17 7 20 45 20 38 0 45 -3 45 -20z m-127
-10 c3 -11 0 -21 -6 -21 -7 -1 -24 -3 -39 -4 -19 -3 -27 2 -31 15 -6 24 -3 27
37 28 26 1 35 -3 39 -18z m110 -50 c-4 -16 -14 -20 -44 -20 -32 0 -39 3 -39
20 0 17 7 20 44 20 39 0 44 -2 39 -20z m-113 -10 c0 -16 -7 -20 -30 -20 -23 0
-30 4 -30 20 0 16 7 20 30 20 23 0 30 -4 30 -20z"/>
<path d="M220 552 c0 -15 78 -72 98 -72 18 0 32 18 32 41 0 6 -16 17 -35 25
-37 15 -95 19 -95 6z"/>
<path d="M230 425 c-25 -7 -62 -16 -83 -20 -20 -3 -37 -10 -37 -15 0 -20 55
-23 103 -6 27 10 51 15 54 12 9 -8 -44 -73 -120 -149 -38 -38 -67 -71 -63 -74
6 -7 88 40 106 61 27 33 33 17 27 -73 -4 -67 -2 -94 8 -108 25 -33 40 0 44 98
l3 90 25 -16 c28 -18 53 -14 53 10 0 9 -12 18 -31 22 l-32 6 37 19 c39 20 39
34 0 48 -31 12 -30 25 1 46 28 18 33 49 9 58 -22 9 -52 6 -104 -9z m59 -126
c-15 -22 -25 -27 -32 -20 -8 8 -4 18 13 36 31 33 46 21 19 -16z"/>
<path d="M380 418 c1 -24 28 -51 46 -44 13 5 14 9 3 22 -20 24 -49 37 -49 22z"/>
<path d="M385 294 c-43 -22 -44 -27 -7 -22 17 2 32 3 32 2 0 -2 -5 -15 -10
-29 -8 -20 -6 -32 5 -48 28 -40 20 -54 -35 -61 -29 -4 -48 -11 -45 -17 4 -5
26 -7 53 -3 37 5 63 0 122 -21 41 -15 105 -37 141 -48 l66 -20 74 23 74 24
-140 11 c-77 7 -158 17 -180 23 -22 5 -52 13 -67 16 -22 5 -28 12 -28 33 0 14
-7 34 -16 44 -15 17 -15 20 10 49 30 36 32 46 10 54 -22 8 -25 8 -59 -10z"/>
</g>
</svg>
