<?xml version="1.0" standalone="no"?>
<!DOCTYPE svg PUBLIC "-//W3C//DTD SVG 20010904//EN"
 "http://www.w3.org/TR/2001/REC-SVG-20010904/DTD/svg10.dtd">
<svg version="1.0" xmlns="http://www.w3.org/2000/svg"
 width="96.000000pt" height="68.000000pt" viewBox="0 0 96.000000 68.000000"
 preserveAspectRatio="xMidYMid meet">
<metadata>
Created by potrace 1.16, written by Peter Selinger 2001-2019
</metadata>
<g transform="translate(0.000000,68.000000) scale(0.100000,-0.100000)"
fill="#000000" stroke="none">
<path d="M259 528 c-7 -18 -36 -54 -63 -81 -52 -51 -38 -53 30 -5 31 22 50 29
78 26 l37 -3 -31 -42 c-45 -61 -15 -56 57 9 32 28 59 55 61 59 8 18 -54 25
-90 11 -43 -17 -63 -8 -33 14 20 15 20 15 1 30 -28 20 -32 18 -47 -18z"/>
</g>
</svg>
