<?xml version="1.0" standalone="no"?>
<!DOCTYPE svg PUBLIC "-//W3C//DTD SVG 20010904//EN"
 "http://www.w3.org/TR/2001/REC-SVG-20010904/DTD/svg10.dtd">
<svg version="1.0" xmlns="http://www.w3.org/2000/svg"
 width="90.000000pt" height="92.000000pt" viewBox="0 0 90.000000 92.000000"
 preserveAspectRatio="xMidYMid meet">
<metadata>
Created by potrace 1.16, written by Peter Selinger 2001-2019
</metadata>
<g transform="translate(0.000000,92.000000) scale(0.100000,-0.100000)"
fill="#000000" stroke="none">
<path d="M575 789 c-16 -5 -68 -16 -115 -24 -139 -25 -134 -24 -119 -42 11
-12 26 -14 76 -10 35 4 63 3 63 -2 0 -16 -57 -87 -109 -135 -29 -26 -51 -50
-48 -52 4 -4 59 23 98 49 21 14 28 15 43 4 25 -18 16 -42 -39 -100 l-46 -48
-30 21 c-32 24 -37 16 -13 -18 15 -22 15 -24 -2 -38 -18 -14 -17 -15 8 -10 22
5 31 0 48 -24 12 -16 18 -35 14 -41 -3 -6 -40 -33 -81 -60 -42 -27 -71 -49
-65 -49 20 0 115 41 145 62 l30 21 17 -23 c23 -31 44 -17 37 25 -4 27 0 38 24
61 l29 28 0 -30 c0 -43 -18 -145 -31 -176 -12 -30 -36 -36 -71 -17 -33 18 -29
6 21 -50 44 -50 48 -52 64 -36 44 43 67 129 67 255 1 92 1 94 18 70 9 -13 39
-50 65 -82 l48 -58 59 0 c32 0 71 5 87 11 28 10 27 11 -39 39 -85 37 -163 87
-211 137 l-37 39 74 47 c41 26 76 54 80 62 4 13 -36 55 -53 55 -3 0 -16 -17
-29 -38 -13 -20 -38 -55 -56 -76 l-32 -39 -24 37 c-12 21 -36 46 -52 56 l-29
18 51 43 c51 43 51 44 31 60 -20 16 -20 17 11 23 17 3 51 6 75 6 36 0 44 3 41
17 -4 24 -57 42 -93 32z m-45 -324 c0 -7 -16 -33 -36 -58 l-36 -47 -29 23
c-15 12 -28 24 -28 27 -1 3 13 14 29 24 17 9 40 31 52 47 21 28 24 29 35 13 7
-10 13 -23 13 -29z"/>
<path d="M155 729 c-38 -10 -83 -21 -99 -24 -39 -8 -20 -27 31 -30 l38 -3 7
-58 c10 -82 5 -92 -48 -100 -24 -3 -44 -10 -44 -15 0 -13 46 -22 75 -15 l25 6
0 -83 0 -84 -70 -24 c-39 -13 -69 -28 -67 -33 2 -5 15 -18 29 -29 l26 -19 117
76 c64 43 115 80 112 83 -3 3 -26 -3 -52 -12 -25 -10 -47 -16 -49 -14 -2 2 0
38 3 79 6 73 6 74 37 81 67 13 64 39 -5 39 l-34 0 7 61 c5 44 4 64 -5 69 -7 5
5 11 29 15 47 8 78 27 68 43 -10 16 -47 13 -131 -9z"/>
</g>
</svg>
