<?xml version="1.0" standalone="no"?>
<!DOCTYPE svg PUBLIC "-//W3C//DTD SVG 20010904//EN"
 "http://www.w3.org/TR/2001/REC-SVG-20010904/DTD/svg10.dtd">
<svg version="1.0" xmlns="http://www.w3.org/2000/svg"
 width="90.000000pt" height="92.000000pt" viewBox="0 0 90.000000 92.000000"
 preserveAspectRatio="xMidYMid meet">
<metadata>
Created by potrace 1.16, written by Peter Selinger 2001-2019
</metadata>
<g transform="translate(0.000000,92.000000) scale(0.100000,-0.100000)"
fill="#000000" stroke="none">
<path d="M256 833 c-3 -3 -6 -20 -6 -37 0 -65 -105 -243 -203 -345 -26 -27
-47 -52 -47 -55 0 -15 69 31 122 82 55 52 60 54 90 46 30 -9 33 -13 33 -49 l0
-40 -58 -9 c-78 -11 -70 -31 12 -30 l61 1 0 -82 0 -82 -57 -12 c-31 -6 -80
-11 -110 -11 -29 0 -53 -4 -53 -9 0 -15 61 -62 74 -57 12 5 216 70 280 90 22
7 42 18 44 26 5 14 -17 12 -100 -9 l-38 -9 0 47 c0 25 3 62 6 82 6 34 10 38
57 50 28 8 52 19 54 26 6 18 -42 27 -78 14 -30 -10 -30 -10 -28 22 2 18 0 37
-4 44 -5 7 6 14 33 18 44 7 60 22 39 36 -15 10 -42 7 -130 -15 l-56 -13 49 80
c26 44 50 82 53 85 2 2 26 -14 53 -37 53 -45 82 -52 82 -21 0 28 -32 57 -80
71 -37 11 -40 15 -35 39 4 18 0 31 -12 42 -26 22 -39 28 -47 21z"/>
<path d="M630 634 c-80 -13 -161 -27 -180 -30 -33 -6 -34 -6 -15 -21 15 -11
34 -13 78 -8 32 3 64 8 72 11 22 9 35 -83 35 -241 0 -79 -4 -155 -9 -168 -9
-22 -14 -24 -55 -20 l-45 5 50 -51 c36 -38 55 -50 68 -46 37 11 42 51 39 298
l-3 237 82 0 c116 0 142 14 83 45 -34 18 -19 19 -200 -11z"/>
<path d="M349 334 c-14 -29 -23 -54 -20 -54 3 0 28 16 54 36 47 34 48 36 31
55 -26 29 -37 23 -65 -37z"/>
<path d="M130 338 c0 -20 38 -78 56 -85 36 -13 46 49 12 71 -37 23 -68 29 -68
14z"/>
</g>
</svg>
