<?xml version="1.0" standalone="no"?>
<!DOCTYPE svg PUBLIC "-//W3C//DTD SVG 20010904//EN"
 "http://www.w3.org/TR/2001/REC-SVG-20010904/DTD/svg10.dtd">
<svg version="1.0" xmlns="http://www.w3.org/2000/svg"
 width="96.000000pt" height="68.000000pt" viewBox="0 0 96.000000 68.000000"
 preserveAspectRatio="xMidYMid meet">
<metadata>
Created by potrace 1.16, written by Peter Selinger 2001-2019
</metadata>
<g transform="translate(0.000000,68.000000) scale(0.100000,-0.100000)"
fill="#000000" stroke="none">
<path d="M513 250 l4 -40 -39 0 c-34 0 -39 2 -33 19 4 14 0 23 -15 31 -18 10
-20 8 -20 -18 0 -15 -5 -33 -12 -40 -9 -10 -9 -15 2 -27 13 -12 21 -12 55 -1
22 8 68 17 103 21 59 7 62 6 62 -15 0 -38 24 -16 38 35 12 40 12 49 0 56 -25
16 -36 9 -34 -22 1 -29 -2 -32 -36 -36 l-38 -4 0 41 c0 34 -3 40 -21 40 -18 0
-20 -5 -16 -40z"/>
</g>
</svg>
