<?xml version="1.0" standalone="no"?>
<!DOCTYPE svg PUBLIC "-//W3C//DTD SVG 20010904//EN"
 "http://www.w3.org/TR/2001/REC-SVG-20010904/DTD/svg10.dtd">
<svg version="1.0" xmlns="http://www.w3.org/2000/svg"
 width="90.000000pt" height="92.000000pt" viewBox="0 0 90.000000 92.000000"
 preserveAspectRatio="xMidYMid meet">
<metadata>
Created by potrace 1.16, written by Peter Selinger 2001-2019
</metadata>
<g transform="translate(0.000000,92.000000) scale(0.100000,-0.100000)"
fill="#000000" stroke="none">
<path d="M155 830 c-3 -5 -3 -15 0 -21 4 -5 11 -56 16 -112 6 -74 5 -103 -3
-108 -6 -4 -38 -11 -70 -14 -82 -10 -71 -30 16 -30 62 0 67 -1 62 -20 -3 -11
-6 -41 -6 -66 l0 -46 -85 -39 c-69 -32 -84 -43 -85 -62 0 -14 9 -26 24 -34 22
-9 30 -6 78 36 29 25 56 46 60 46 9 0 10 -80 2 -132 -6 -34 -9 -37 -44 -40
l-38 -3 48 -53 48 -54 19 28 c15 23 18 51 20 163 l2 136 41 33 c48 40 53 60 8
32 -18 -11 -37 -20 -41 -20 -4 0 -7 24 -5 52 l3 52 43 9 c23 4 42 12 42 17 0
16 -41 32 -67 25 l-26 -6 7 66 c4 36 11 76 16 90 13 34 5 49 -36 68 -41 20
-41 20 -49 7z"/>
<path d="M561 769 c-10 -26 -43 -59 -103 -103 -34 -25 -41 -27 -69 -17 -18 6
-34 9 -37 7 -2 -3 1 -27 8 -53 25 -96 -14 -296 -77 -396 -30 -48 -25 -56 15
-22 60 50 111 204 112 335 0 41 4 80 8 85 4 6 62 37 130 70 l123 59 -23 22
c-13 13 -35 26 -50 29 -23 6 -29 3 -37 -16z"/>
<path d="M486 365 c1 -243 6 -277 39 -245 11 12 14 58 16 237 0 122 -2 226 -6
232 -3 6 -16 11 -28 11 l-22 0 1 -235z"/>
<path d="M576 591 c-4 -6 2 -23 13 -38 11 -16 38 -77 61 -138 22 -60 53 -132
68 -160 l27 -50 64 0 c35 0 65 5 67 10 1 6 -25 31 -59 56 -70 51 -122 121
-163 221 -30 71 -67 118 -78 99z"/>
</g>
</svg>
