<?xml version="1.0" standalone="no"?>
<!DOCTYPE svg PUBLIC "-//W3C//DTD SVG 20010904//EN"
 "http://www.w3.org/TR/2001/REC-SVG-20010904/DTD/svg10.dtd">
<svg version="1.0" xmlns="http://www.w3.org/2000/svg"
 width="96.000000pt" height="68.000000pt" viewBox="0 0 96.000000 68.000000"
 preserveAspectRatio="xMidYMid meet">
<metadata>
Created by potrace 1.16, written by Peter Selinger 2001-2019
</metadata>
<g transform="translate(0.000000,68.000000) scale(0.100000,-0.100000)"
fill="#000000" stroke="none">
<path d="M524 261 c-6 -28 -7 -29 -97 -36 -82 -6 -90 -8 -72 -21 23 -17 61
-18 104 -3 42 15 48 7 22 -30 l-22 -30 28 -6 c15 -4 39 -11 52 -16 l24 -10
-24 -17 c-13 -9 -53 -27 -89 -40 l-65 -22 55 5 c30 2 77 16 103 30 27 14 54
25 61 25 7 0 38 -16 70 -35 69 -41 89 -44 84 -12 -2 16 -20 30 -65 52 l-61 31
26 48 27 48 78 -4 c81 -5 98 1 71 23 -17 14 -204 20 -204 7 0 -5 -13 -8 -30
-8 -21 0 -28 4 -24 14 3 8 -3 19 -15 25 -28 16 -31 14 -37 -18z m106 -53 c0
-7 -9 -28 -20 -46 -19 -30 -23 -32 -58 -26 -53 9 -55 15 -21 52 23 24 39 32
65 32 20 0 34 -5 34 -12z"/>
</g>
</svg>
