<?xml version="1.0" standalone="no"?>
<!DOCTYPE svg PUBLIC "-//W3C//DTD SVG 20010904//EN"
 "http://www.w3.org/TR/2001/REC-SVG-20010904/DTD/svg10.dtd">
<svg version="1.0" xmlns="http://www.w3.org/2000/svg"
 width="96.000000pt" height="68.000000pt" viewBox="0 0 96.000000 68.000000"
 preserveAspectRatio="xMidYMid meet">
<metadata>
Created by potrace 1.16, written by Peter Selinger 2001-2019
</metadata>
<g transform="translate(0.000000,68.000000) scale(0.100000,-0.100000)"
fill="#000000" stroke="none">
<path d="M585 233 c-77 -7 -164 -12 -193 -9 -47 4 -53 3 -47 -12 4 -9 10 -47
14 -84 11 -108 33 -108 41 0 l5 67 155 13 c199 16 200 16 200 -51 0 -72 -9
-84 -54 -70 l-36 11 28 -39 c30 -43 49 -48 81 -22 15 13 25 40 35 98 14 78 13
80 -8 97 -24 20 -33 20 -221 1z"/>
</g>
</svg>
