<?xml version="1.0" standalone="no"?>
<!DOCTYPE svg PUBLIC "-//W3C//DTD SVG 20010904//EN"
 "http://www.w3.org/TR/2001/REC-SVG-20010904/DTD/svg10.dtd">
<svg version="1.0" xmlns="http://www.w3.org/2000/svg"
 width="96.000000pt" height="68.000000pt" viewBox="0 0 96.000000 68.000000"
 preserveAspectRatio="xMidYMid meet">
<metadata>
Created by potrace 1.16, written by Peter Selinger 2001-2019
</metadata>
<g transform="translate(0.000000,68.000000) scale(0.100000,-0.100000)"
fill="#000000" stroke="none">
<path d="M455 337 c-2 -6 -6 -57 -8 -112 -3 -55 -10 -113 -16 -128 -12 -30 0
-67 20 -67 6 0 41 27 80 60 38 33 67 60 64 60 -3 0 -23 -9 -45 -20 -71 -36
-72 -35 -64 93 6 101 5 115 -10 120 -10 4 -18 1 -21 -6z"/>
<path d="M676 322 c-4 -10 -19 -31 -35 -46 l-29 -28 -38 26 c-40 27 -64 33
-64 16 0 -5 5 -10 11 -10 6 0 56 -43 111 -95 l99 -95 52 5 c29 4 55 9 59 13 4
4 -30 22 -75 40 -45 18 -97 46 -115 63 -19 17 -32 31 -30 32 1 1 33 18 70 37
60 31 66 37 51 48 -25 18 -61 15 -67 -6z"/>
</g>
</svg>
