<?xml version="1.0" standalone="no"?>
<!DOCTYPE svg PUBLIC "-//W3C//DTD SVG 20010904//EN"
 "http://www.w3.org/TR/2001/REC-SVG-20010904/DTD/svg10.dtd">
<svg version="1.0" xmlns="http://www.w3.org/2000/svg"
 width="90.000000pt" height="92.000000pt" viewBox="0 0 90.000000 92.000000"
 preserveAspectRatio="xMidYMid meet">
<metadata>
Created by potrace 1.16, written by Peter Selinger 2001-2019
</metadata>
<g transform="translate(0.000000,92.000000) scale(0.100000,-0.100000)"
fill="#000000" stroke="none">
<path d="M95 818 c31 -96 28 -376 -7 -603 -8 -59 -7 -77 5 -108 9 -20 20 -37
25 -37 24 0 32 59 32 229 0 98 3 206 7 241 l6 63 27 -33 c30 -36 60 -36 60 0
0 15 -12 27 -46 41 l-45 20 6 47 c3 26 8 63 11 83 5 31 1 40 -22 58 -15 11
-36 21 -47 21 -16 0 -18 -4 -12 -22z"/>
<path d="M360 736 c-32 -9 -53 -9 -72 -2 -34 13 -43 4 -27 -25 16 -31 6 -410
-12 -455 -11 -28 -10 -36 5 -59 l18 -27 72 71 72 71 22 -25 c27 -31 42 -25 42
17 0 33 -43 81 -81 91 -17 5 -20 2 -15 -14 3 -10 8 -27 11 -36 4 -13 -6 -26
-37 -45 l-43 -27 -3 91 c-1 50 -1 93 2 95 2 3 28 6 56 6 58 2 49 -15 87 165
l20 93 -21 15 c-24 16 -35 16 -96 0z m50 -71 c0 -41 -2 -45 -24 -45 -14 0 -37
-5 -52 -10 -25 -10 -26 -9 -20 12 3 13 6 33 6 46 0 24 27 40 68 41 20 1 22 -4
22 -44z m-10 -107 c0 -35 -8 -52 -25 -54 -5 -1 -22 -4 -37 -8 -27 -6 -28 -5
-28 38 0 43 1 45 33 49 17 2 38 5 45 5 7 1 12 -10 12 -30z"/>
<path d="M620 725 c-30 -7 -68 -14 -84 -14 -23 -1 -27 -4 -18 -13 18 -18 14
-80 -10 -153 -19 -59 -19 -68 -6 -81 11 -12 21 -13 42 -4 15 5 38 10 51 10 22
0 23 -2 13 -37 -21 -79 -70 -162 -129 -218 -33 -31 -59 -58 -59 -61 0 -14 82
33 118 69 41 40 112 163 112 194 0 8 5 11 11 7 8 -4 9 -45 4 -134 l-7 -127 27
-21 c39 -31 104 -38 149 -17 43 20 54 51 33 91 -8 16 -18 43 -22 59 -8 29 -8
28 -16 -18 -4 -27 -13 -55 -19 -63 -16 -19 -84 -18 -100 1 -15 19 -8 151 10
185 9 18 8 25 -6 41 -9 10 -25 21 -35 24 -11 4 -19 13 -19 22 0 13 9 15 61 9
68 -7 99 5 78 30 -7 9 -32 14 -69 14 l-57 0 15 76 c13 64 13 77 1 84 -15 10
-10 13 46 25 29 6 29 7 11 21 -23 16 -50 16 -126 -1z m20 -93 c0 -26 -3 -64
-6 -84 -6 -33 -11 -38 -41 -44 -19 -4 -37 -4 -40 0 -3 3 3 44 13 90 15 70 22
86 39 89 31 5 35 -1 35 -51z"/>
<path d="M21 523 c-26 -76 -25 -126 1 -131 13 -2 21 10 32 49 19 63 20 96 3
127 -12 21 -14 18 -36 -45z"/>
</g>
</svg>
