<?xml version="1.0" standalone="no"?>
<!DOCTYPE svg PUBLIC "-//W3C//DTD SVG 20010904//EN"
 "http://www.w3.org/TR/2001/REC-SVG-20010904/DTD/svg10.dtd">
<svg version="1.0" xmlns="http://www.w3.org/2000/svg"
 width="90.000000pt" height="92.000000pt" viewBox="0 0 90.000000 92.000000"
 preserveAspectRatio="xMidYMid meet">
<metadata>
Created by potrace 1.16, written by Peter Selinger 2001-2019
</metadata>
<g transform="translate(0.000000,92.000000) scale(0.100000,-0.100000)"
fill="#000000" stroke="none">
<path d="M465 858 c2 -24 7 -64 9 -90 6 -53 6 -53 -79 -63 -97 -12 -95 -11
-79 -45 13 -25 13 -45 4 -131 -17 -151 -67 -294 -137 -387 -14 -18 -23 -35
-20 -38 11 -11 98 90 122 143 25 52 65 196 80 286 5 34 8 37 40 37 18 0 40 3
49 6 11 4 16 0 16 -14 0 -29 46 -62 88 -62 l35 0 -24 -19 c-13 -10 -49 -31
-79 -46 -58 -30 -55 -45 6 -25 45 15 54 5 54 -61 0 -56 -1 -57 -116 -66 -47
-3 -87 -10 -90 -15 -3 -5 10 -15 29 -23 29 -12 40 -12 82 1 27 7 59 14 72 14
23 0 24 -2 21 -67 l-3 -68 -37 1 -37 1 37 -43 c20 -24 42 -44 48 -44 18 0 32
53 40 148 l7 82 103 0 c87 0 104 2 104 16 0 24 -61 45 -101 35 -19 -5 -53 -12
-76 -15 l-43 -6 0 58 c0 32 -5 63 -12 70 -9 9 -9 12 0 12 7 0 29 7 49 15 28
12 33 18 24 28 -13 16 -5 27 19 27 28 0 43 25 25 40 -12 10 -24 10 -58 1 -23
-7 -63 -11 -87 -9 -37 2 -45 7 -45 23 0 15 9 21 45 27 76 13 90 18 90 33 0 18
-38 20 -93 4 -22 -6 -42 -8 -45 -5 -3 4 2 22 11 40 15 33 18 34 92 41 42 4 79
5 82 2 3 -4 -2 -18 -12 -33 -13 -20 -14 -26 -4 -22 8 3 38 14 67 24 28 10 52
24 52 30 0 7 -21 22 -46 34 -45 22 -47 22 -120 6 -98 -21 -104 -21 -104 8 0
27 4 29 97 47 62 11 71 23 29 39 -14 5 -38 1 -68 -10 -27 -10 -48 -15 -49 -12
-1 4 0 19 1 34 1 27 -22 48 -54 48 -12 0 -15 -9 -11 -42z m3 -215 c3 -30 1
-32 -45 -41 -26 -6 -49 -10 -50 -8 -1 1 0 18 4 39 6 37 19 46 63 44 20 -2 26
-8 28 -34z"/>
<path d="M140 802 c0 -22 81 -112 101 -112 49 0 35 70 -18 93 -56 23 -83 30
-83 19z"/>
<path d="M50 622 c0 -5 19 -32 43 -58 32 -35 48 -46 61 -41 28 11 18 69 -15
84 -39 19 -89 27 -89 15z"/>
<path d="M194 428 c-21 -39 -61 -94 -87 -121 -44 -45 -48 -54 -43 -83 4 -18
15 -43 26 -56 l18 -23 12 30 c7 17 18 46 25 65 7 19 27 67 45 105 44 97 60
144 51 149 -4 3 -26 -27 -47 -66z"/>
<path d="M676 408 c-8 -18 -24 -45 -36 -60 -24 -31 -27 -31 63 11 41 19 46 24
37 41 -6 11 -19 24 -31 30 -17 10 -21 7 -33 -22z"/>
<path d="M432 338 c33 -43 58 -48 58 -13 0 18 -7 28 -26 35 -50 19 -59 13 -32
-22z"/>
</g>
</svg>
