<?xml version="1.0" standalone="no"?>
<!DOCTYPE svg PUBLIC "-//W3C//DTD SVG 20010904//EN"
 "http://www.w3.org/TR/2001/REC-SVG-20010904/DTD/svg10.dtd">
<svg version="1.0" xmlns="http://www.w3.org/2000/svg"
 width="96.000000pt" height="68.000000pt" viewBox="0 0 96.000000 68.000000"
 preserveAspectRatio="xMidYMid meet">
<metadata>
Created by potrace 1.16, written by Peter Selinger 2001-2019
</metadata>
<g transform="translate(0.000000,68.000000) scale(0.100000,-0.100000)"
fill="#000000" stroke="none">
<path d="M570 241 c4 -22 4 -44 1 -50 -4 -6 -46 -14 -94 -17 -48 -4 -87 -10
-87 -14 0 -15 50 -20 92 -10 24 5 54 10 68 10 25 0 25 -2 20 -52 -3 -29 -10
-52 -15 -52 -6 1 -21 5 -35 9 -23 7 -23 5 10 -29 19 -19 40 -36 47 -36 16 0
33 63 33 123 l0 47 95 0 c52 0 95 4 95 9 0 16 -51 22 -121 15 l-69 -7 0 31 c0
43 -9 62 -30 62 -15 0 -16 -6 -10 -39z"/>
</g>
</svg>
