<?xml version="1.0" standalone="no"?>
<!DOCTYPE svg PUBLIC "-//W3C//DTD SVG 20010904//EN"
 "http://www.w3.org/TR/2001/REC-SVG-20010904/DTD/svg10.dtd">
<svg version="1.0" xmlns="http://www.w3.org/2000/svg"
 width="96.000000pt" height="68.000000pt" viewBox="0 0 96.000000 68.000000"
 preserveAspectRatio="xMidYMid meet">
<metadata>
Created by potrace 1.16, written by Peter Selinger 2001-2019
</metadata>
<g transform="translate(0.000000,68.000000) scale(0.100000,-0.100000)"
fill="#000000" stroke="none">
<path d="M210 543 c0 -18 67 -73 88 -73 30 0 29 35 0 54 -29 18 -88 31 -88 19z"/>
<path d="M140 401 c24 -46 90 -68 90 -31 0 21 -46 50 -80 50 -17 0 -19 -3 -10
-19z"/>
<path d="M246 268 c-25 -35 -60 -72 -76 -83 -17 -11 -30 -28 -30 -38 0 -25 18
-57 33 -57 14 0 134 226 125 235 -3 3 -26 -22 -52 -57z"/>
</g>
</svg>
