<?xml version="1.0" standalone="no"?>
<!DOCTYPE svg PUBLIC "-//W3C//DTD SVG 20010904//EN"
 "http://www.w3.org/TR/2001/REC-SVG-20010904/DTD/svg10.dtd">
<svg version="1.0" xmlns="http://www.w3.org/2000/svg"
 width="96.000000pt" height="68.000000pt" viewBox="0 0 96.000000 68.000000"
 preserveAspectRatio="xMidYMid meet">
<metadata>
Created by potrace 1.16, written by Peter Selinger 2001-2019
</metadata>
<g transform="translate(0.000000,68.000000) scale(0.100000,-0.100000)"
fill="#000000" stroke="none">
<path d="M675 576 c-27 -6 -45 -14 -39 -18 15 -10 105 5 105 17 1 14 -10 14
-66 1z"/>
<path d="M477 560 c-50 -9 -58 -20 -15 -20 49 0 98 11 98 21 0 10 -28 10 -83
-1z"/>
<path d="M214 543 c-12 -41 -40 -86 -71 -116 -18 -18 -33 -35 -33 -39 0 -11
51 11 85 36 30 23 85 42 85 30 0 -4 -16 -27 -36 -50 -34 -42 -38 -44 -90 -44
-30 0 -54 -2 -54 -4 0 -2 6 -16 14 -31 8 -15 17 -50 21 -76 4 -31 12 -49 20
-49 7 0 15 4 17 10 2 5 42 11 89 12 l86 3 13 45 c7 25 18 53 24 63 17 29 -18
50 -74 44 l-44 -5 57 51 c32 29 57 57 57 63 0 19 -50 23 -86 8 -45 -19 -47
-18 -28 11 13 20 14 28 4 40 -17 20 -49 19 -56 -2z m116 -208 c0 -21 -5 -25
-28 -25 -35 0 -41 6 -35 31 4 13 14 19 34 19 24 0 29 -4 29 -25z m-102 -11 c2
-18 -3 -23 -30 -27 -41 -6 -48 -2 -48 26 0 19 6 22 38 22 30 0 38 -4 40 -21z
m102 -46 c0 -23 -15 -35 -37 -33 -29 2 -37 10 -30 30 8 18 67 21 67 3z m-100
-17 c0 -12 -9 -20 -27 -24 -16 -3 -29 -5 -29 -4 -1 1 -5 12 -8 25 -7 20 -4 22
28 22 29 0 36 -4 36 -19z"/>
<path d="M668 517 c-58 -10 -58 -10 -58 -46 0 -35 14 -70 24 -61 2 3 6 23 8
45 4 37 6 40 43 47 21 5 43 7 49 5 6 -2 9 -25 7 -51 -4 -63 17 -58 41 9 25 69
12 74 -114 52z"/>
<path d="M475 500 c-22 -4 -42 -6 -45 -5 -3 2 -5 -17 -4 -43 3 -63 3 -62 14
-62 6 0 10 20 10 44 0 48 9 56 61 56 28 0 29 -2 29 -46 0 -28 4 -44 11 -42 6
2 10 7 10 11 0 3 7 23 15 42 8 20 12 40 9 45 -7 11 -52 11 -110 0z"/>
<path d="M676 473 c-7 -7 23 -43 36 -43 4 0 8 6 8 13 0 14 -35 39 -44 30z"/>
<path d="M480 453 c1 -18 19 -35 29 -28 9 5 9 10 0 21 -12 15 -29 19 -29 7z"/>
<path d="M585 400 c4 -13 2 -20 -7 -21 -7 0 -22 -2 -33 -4 -11 -2 -42 -5 -70
-6 l-50 -2 0 -81 c0 -83 -19 -151 -52 -189 -9 -9 -13 -20 -9 -25 11 -10 52 44
73 95 32 77 52 51 48 -61 -2 -38 1 -66 6 -66 16 0 89 44 89 54 0 4 -12 5 -27
2 -16 -5 -29 -3 -34 5 -13 22 2 39 37 39 19 0 34 5 34 11 0 8 -12 10 -34 6
-32 -5 -34 -3 -38 24 l-5 30 56 -3 56 -3 3 -67 c4 -85 26 -108 107 -108 97 0
135 27 101 73 -17 23 -26 22 -26 -3 0 -23 -34 -40 -81 -40 -46 0 -69 17 -69
49 0 26 4 28 65 40 36 7 68 17 71 22 11 18 -28 21 -69 5 -51 -19 -57 -20 -57
-4 0 6 -7 20 -17 30 -15 17 -14 18 35 18 42 0 52 3 52 17 0 9 8 25 17 36 17
18 17 19 -2 33 -10 8 -33 14 -50 14 -19 0 -39 8 -50 20 -18 20 -17 20 11 20
49 0 104 12 104 22 0 6 -27 9 -67 6 -55 -3 -70 -1 -85 14 -24 24 -41 23 -33
-2z m35 -66 c0 -13 -3 -24 -7 -24 -5 0 -18 -3 -30 -6 -19 -5 -23 -2 -23 15 0
11 -4 21 -10 21 -5 0 -10 4 -10 9 0 5 18 9 40 9 36 1 40 -2 40 -24z m-101 -5
c11 -18 11 -23 -1 -30 -31 -20 -54 -3 -43 31 8 26 27 25 44 -1z m186 -39 c3
-6 3 -19 0 -30 -9 -27 -55 -28 -55 0 0 28 42 51 55 30z m-87 -27 c-2 -22 -9
-29 -30 -31 -24 -3 -28 0 -28 22 0 25 11 34 43 35 14 1 18 -5 15 -26z m-84 -8
c9 -25 -55 -48 -69 -25 -4 6 -4 17 -1 25 7 20 62 19 70 0z"/>
<path d="M330 175 c0 -13 24 -55 32 -55 15 0 21 30 8 45 -11 14 -40 21 -40 10z"/>
<path d="M101 142 c-23 -33 -25 -72 -3 -80 18 -6 46 66 35 91 -9 19 -11 18
-32 -11z"/>
<path d="M177 164 c-8 -9 21 -64 33 -64 6 0 10 8 10 18 0 21 -33 56 -43 46z"/>
<path d="M250 162 c0 -13 30 -52 41 -52 17 0 9 39 -10 50 -23 12 -31 13 -31 2z"/>
</g>
</svg>
