<?xml version="1.0" standalone="no"?>
<!DOCTYPE svg PUBLIC "-//W3C//DTD SVG 20010904//EN"
 "http://www.w3.org/TR/2001/REC-SVG-20010904/DTD/svg10.dtd">
<svg version="1.0" xmlns="http://www.w3.org/2000/svg"
 width="96.000000pt" height="68.000000pt" viewBox="0 0 96.000000 68.000000"
 preserveAspectRatio="xMidYMid meet">
<metadata>
Created by potrace 1.16, written by Peter Selinger 2001-2019
</metadata>
<g transform="translate(0.000000,68.000000) scale(0.100000,-0.100000)"
fill="#000000" stroke="none">
<path d="M205 508 c-15 -29 -40 -68 -58 -85 -17 -18 -27 -33 -23 -33 13 0 50
22 76 45 22 20 90 40 90 27 0 -3 -16 -26 -35 -53 -43 -60 -23 -55 60 15 33 27
62 52 65 54 2 2 -2 8 -10 13 -15 10 -50 7 -100 -7 -24 -7 -24 -7 -8 18 17 27
15 32 -19 52 -7 4 -21 -13 -38 -46z"/>
</g>
</svg>
