<?xml version="1.0" standalone="no"?>
<!DOCTYPE svg PUBLIC "-//W3C//DTD SVG 20010904//EN"
 "http://www.w3.org/TR/2001/REC-SVG-20010904/DTD/svg10.dtd">
<svg version="1.0" xmlns="http://www.w3.org/2000/svg"
 width="96.000000pt" height="68.000000pt" viewBox="0 0 96.000000 68.000000"
 preserveAspectRatio="xMidYMid meet">
<metadata>
Created by potrace 1.16, written by Peter Selinger 2001-2019
</metadata>
<g transform="translate(0.000000,68.000000) scale(0.100000,-0.100000)"
fill="#000000" stroke="none">
<path d="M645 404 c-120 -17 -202 -17 -208 -1 -4 13 -47 -68 -47 -90 0 -27 29
-12 41 22 12 31 17 35 49 35 19 0 88 7 153 17 64 9 120 14 123 10 3 -3 -2 -17
-12 -32 -18 -27 -17 -27 1 -22 11 3 37 8 58 12 43 7 46 19 15 46 -26 21 -47
21 -173 3z"/>
</g>
</svg>
