<?xml version="1.0" standalone="no"?>
<!DOCTYPE svg PUBLIC "-//W3C//DTD SVG 20010904//EN"
 "http://www.w3.org/TR/2001/REC-SVG-20010904/DTD/svg10.dtd">
<svg version="1.0" xmlns="http://www.w3.org/2000/svg"
 width="90.000000pt" height="92.000000pt" viewBox="0 0 90.000000 92.000000"
 preserveAspectRatio="xMidYMid meet">
<metadata>
Created by potrace 1.16, written by Peter Selinger 2001-2019
</metadata>
<g transform="translate(0.000000,92.000000) scale(0.100000,-0.100000)"
fill="#000000" stroke="none">
<path d="M380 891 c0 -17 -51 -70 -113 -117 -58 -43 -52 -52 13 -19 24 12 26
10 52 -32 l28 -44 -63 -40 c-66 -43 -49 -43 46 -2 31 14 59 24 60 22 18 -25
38 -61 35 -64 -2 -2 -63 -7 -136 -11 -119 -6 -134 -5 -152 11 -15 14 -20 15
-20 4 0 -8 -14 -43 -30 -78 -32 -67 -32 -101 -1 -101 13 0 26 16 40 49 11 27
21 53 21 58 0 15 521 70 542 57 5 -3 0 -21 -12 -40 -25 -44 -26 -58 -2 -46 9
5 41 15 70 22 45 10 53 16 50 33 -2 11 -19 33 -40 50 l-36 29 -117 -16 c-149
-20 -145 -21 -145 8 0 14 -10 32 -22 41 l-23 16 25 20 c81 66 160 135 160 140
0 3 -15 14 -34 24 -33 18 -35 18 -84 -3 -59 -26 -84 -29 -56 -7 19 15 19 15 0
30 -22 17 -56 20 -56 6z m120 -77 c0 -3 -23 -30 -52 -60 -50 -53 -51 -54 -62
-32 -7 13 -24 29 -39 36 -27 13 -27 15 -10 28 10 7 32 14 48 15 17 0 41 5 55
9 31 10 60 12 60 4z"/>
<path d="M390 512 c-58 -8 -107 -17 -110 -19 -11 -10 29 -23 71 -23 44 0 47
-2 51 -29 4 -29 4 -29 -57 -36 -34 -3 -74 -3 -88 0 -30 8 -36 -5 -12 -25 8 -6
22 -47 31 -90 10 -44 20 -83 23 -88 3 -4 59 -4 125 1 95 8 120 7 126 -3 15
-24 37 7 76 106 20 52 35 96 33 98 -2 2 -18 11 -35 19 -26 13 -43 15 -90 7
-83 -14 -84 -14 -84 19 0 28 3 30 53 36 61 8 83 18 73 34 -9 14 -52 12 -186
-7z m188 -143 c3 -26 2 -27 -62 -27 -63 0 -66 1 -66 23 0 20 6 24 38 28 73 8
87 4 90 -24z m-168 -13 c0 -27 -16 -36 -65 -36 -25 0 -34 5 -38 22 -9 32 -1
38 54 38 45 0 49 -2 49 -24z m156 -66 c-3 -11 -9 -29 -12 -40 -4 -17 -9 -18
-26 -9 -11 6 -33 9 -49 7 -26 -4 -29 -2 -29 23 0 24 5 28 33 32 79 10 89 8 83
-13z m-156 -25 c0 -20 -6 -25 -34 -31 -43 -7 -56 0 -56 32 0 22 4 24 45 24 41
0 45 -2 45 -25z"/>
<path d="M510 162 c0 -12 124 -132 138 -132 6 0 15 11 18 26 9 34 -25 68 -93
94 -61 23 -63 23 -63 12z"/>
<path d="M317 136 c-9 -13 -44 -43 -79 -66 -50 -34 -57 -41 -33 -36 45 10 195
84 195 95 0 12 -33 31 -53 31 -8 0 -22 -11 -30 -24z"/>
</g>
</svg>
