<?xml version="1.0" standalone="no"?>
<!DOCTYPE svg PUBLIC "-//W3C//DTD SVG 20010904//EN"
 "http://www.w3.org/TR/2001/REC-SVG-20010904/DTD/svg10.dtd">
<svg version="1.0" xmlns="http://www.w3.org/2000/svg"
 width="96.000000pt" height="68.000000pt" viewBox="0 0 96.000000 68.000000"
 preserveAspectRatio="xMidYMid meet">
<metadata>
Created by potrace 1.16, written by Peter Selinger 2001-2019
</metadata>
<g transform="translate(0.000000,68.000000) scale(0.100000,-0.100000)"
fill="#000000" stroke="none">
<path d="M220 460 c-14 -4 -49 -8 -79 -9 -52 -1 -53 -2 -37 -20 9 -10 21 -44
26 -76 10 -61 25 -89 38 -68 4 6 33 14 65 18 49 6 57 10 57 29 0 11 9 41 21
65 11 25 17 51 15 58 -6 14 -65 16 -106 3z m36 -72 c-4 -29 -8 -53 -9 -54 -1
-1 -19 -4 -39 -8 -41 -7 -39 -10 -52 71 -6 35 2 39 73 42 l34 1 -7 -52z"/>
</g>
</svg>
