<?xml version="1.0" standalone="no"?>
<!DOCTYPE svg PUBLIC "-//W3C//DTD SVG 20010904//EN"
 "http://www.w3.org/TR/2001/REC-SVG-20010904/DTD/svg10.dtd">
<svg version="1.0" xmlns="http://www.w3.org/2000/svg"
 width="96.000000pt" height="68.000000pt" viewBox="0 0 96.000000 68.000000"
 preserveAspectRatio="xMidYMid meet">
<metadata>
Created by potrace 1.16, written by Peter Selinger 2001-2019
</metadata>
<g transform="translate(0.000000,68.000000) scale(0.100000,-0.100000)"
fill="#000000" stroke="none">
<path d="M605 578 c-14 -45 -49 -88 -74 -88 -18 0 -22 -4 -16 -17 4 -10 6 -49
5 -88 -6 -156 -7 -150 15 -148 11 1 44 7 73 13 29 6 76 10 105 8 l52 -3 3 -55
c2 -37 -3 -66 -15 -90 -16 -30 -22 -35 -51 -32 -29 2 -32 0 -23 -16 5 -9 18
-25 29 -35 40 -36 85 20 102 124 5 35 13 76 16 91 10 42 -28 52 -143 39 -118
-14 -133 -14 -133 3 0 9 22 15 77 20 42 4 81 10 86 13 20 12 -16 20 -56 12
-23 -4 -56 -8 -74 -9 -26 0 -31 4 -30 20 1 20 13 23 125 24 27 1 36 7 55 41
38 67 39 73 9 89 -23 12 -37 12 -92 0 -35 -7 -66 -11 -69 -9 -4 5 19 28 68 66
26 21 22 32 -16 43 -17 5 -23 2 -28 -16z m95 -118 c0 -16 -7 -20 -32 -20 -18
0 -50 -3 -70 -6 -31 -5 -38 -4 -38 10 0 15 13 20 70 29 59 10 70 7 70 -13z
m-10 -49 c0 -14 -10 -20 -46 -25 -69 -9 -84 -8 -84 9 0 13 9 16 90 28 14 3 28
5 33 6 4 0 7 -7 7 -18z"/>
<path d="M358 506 c4 -59 3 -63 -19 -69 -43 -12 -48 -8 -51 36 -3 38 -6 42
-32 45 l-28 4 7 -50 c6 -47 5 -51 -16 -54 -33 -5 -35 -26 -2 -30 22 -2 28 -8
28 -28 0 -24 -4 -26 -72 -34 -40 -5 -73 -13 -73 -18 0 -14 53 -29 80 -23 14 4
87 15 163 25 77 10 141 21 144 24 3 2 2 10 -2 16 -5 8 -22 10 -53 5 -39 -6
-44 -5 -38 10 3 9 6 23 6 30 0 7 16 16 35 19 42 8 45 22 8 38 -16 7 -29 13
-31 14 -2 1 2 21 9 44 14 47 5 60 -41 60 -26 0 -26 -1 -22 -64z m-8 -130 c0
-23 -16 -36 -46 -36 -21 0 -18 48 4 53 35 9 42 6 42 -17z"/>
<path d="M342 282 c-6 -5 -33 -9 -59 -11 -26 -1 -48 -3 -50 -4 -6 -7 -7 -167
0 -173 4 -4 13 -2 19 4 7 7 34 12 61 12 38 0 53 -5 66 -22 l18 -22 16 25 c12
18 15 44 13 100 -1 41 -6 80 -10 87 -8 14 -54 16 -74 4z m48 -47 c0 -19 -5
-25 -22 -25 -13 0 -40 -3 -60 -6 -37 -6 -38 -6 -38 25 l0 31 60 0 c57 0 60 -1
60 -25z m-2 -72 c-3 -27 -6 -28 -65 -31 -61 -3 -63 -2 -63 22 0 21 5 25 38 29
93 9 94 9 90 -20z"/>
<path d="M680 217 c1 -19 37 -57 55 -57 12 0 15 5 9 23 -3 12 -7 22 -8 22 0 1
-13 6 -28 13 -22 9 -28 9 -28 -1z"/>
<path d="M606 201 c-3 -4 6 -18 19 -31 22 -21 25 -21 31 -6 9 24 -37 59 -50
37z"/>
<path d="M476 168 c-20 -39 -20 -58 -2 -58 19 0 23 7 31 53 9 46 -7 49 -29 5z"/>
<path d="M540 188 c0 -7 7 -22 15 -32 12 -15 18 -17 27 -8 9 9 7 16 -7 32 -21
23 -35 26 -35 8z"/>
</g>
</svg>
