<?xml version="1.0" standalone="no"?>
<!DOCTYPE svg PUBLIC "-//W3C//DTD SVG 20010904//EN"
 "http://www.w3.org/TR/2001/REC-SVG-20010904/DTD/svg10.dtd">
<svg version="1.0" xmlns="http://www.w3.org/2000/svg"
 width="96.000000pt" height="68.000000pt" viewBox="0 0 96.000000 68.000000"
 preserveAspectRatio="xMidYMid meet">
<metadata>
Created by potrace 1.16, written by Peter Selinger 2001-2019
</metadata>
<g transform="translate(0.000000,68.000000) scale(0.100000,-0.100000)"
fill="#000000" stroke="none">
<path d="M443 392 c-101 -14 -183 -29 -183 -33 0 -13 52 -20 96 -13 40 6 44 5
37 -12 -15 -43 -80 -100 -229 -202 -41 -28 36 -2 103 35 81 45 199 159 183
178 -11 14 15 18 178 31 84 7 101 17 56 34 -31 12 -18 13 -241 -18z"/>
</g>
</svg>
