<?xml version="1.0" standalone="no"?>
<!DOCTYPE svg PUBLIC "-//W3C//DTD SVG 20010904//EN"
 "http://www.w3.org/TR/2001/REC-SVG-20010904/DTD/svg10.dtd">
<svg version="1.0" xmlns="http://www.w3.org/2000/svg"
 width="96.000000pt" height="68.000000pt" viewBox="0 0 96.000000 68.000000"
 preserveAspectRatio="xMidYMid meet">
<metadata>
Created by potrace 1.16, written by Peter Selinger 2001-2019
</metadata>
<g transform="translate(0.000000,68.000000) scale(0.100000,-0.100000)"
fill="#000000" stroke="none">
<path d="M420 607 c0 -7 14 -29 31 -50 l30 -37 -54 0 c-30 0 -75 -3 -101 -6
-38 -6 -46 -4 -46 10 0 27 -27 18 -40 -14 -7 -16 -18 -35 -26 -41 -8 -6 -14
-24 -14 -40 0 -24 4 -29 24 -29 19 0 29 9 43 40 17 36 21 40 58 40 22 0 108 7
191 17 83 9 159 13 169 9 16 -6 16 -8 2 -30 -9 -13 -14 -26 -12 -28 5 -5 137
20 143 27 10 10 -10 36 -40 56 -34 21 -34 21 -195 2 -51 -6 -53 -5 -53 19 0
34 -39 68 -78 68 -19 0 -32 -5 -32 -13z"/>
<path d="M446 392 c-165 -22 -186 -27 -170 -39 14 -10 34 -12 71 -7 29 3 53 3
53 -1 0 -36 -77 -108 -205 -192 -27 -18 -44 -33 -37 -33 13 0 133 60 164 82
23 16 27 10 47 -69 10 -37 21 -68 27 -68 5 1 63 5 130 9 l120 8 13 43 c7 24
24 53 37 66 32 30 30 44 -6 59 -32 13 -86 11 -239 -10 -41 -5 -76 -8 -79 -5
-2 2 14 23 37 47 26 25 40 49 38 59 -5 18 7 20 186 35 42 4 77 11 77 16 0 10
-45 29 -63 27 -7 -1 -97 -13 -201 -27z m174 -178 c0 -8 -5 -35 -11 -59 l-11
-44 -72 -8 c-112 -12 -108 -14 -128 42 -10 27 -14 53 -10 56 10 10 116 26 180
28 41 1 52 -2 52 -15z"/>
</g>
</svg>
