<?xml version="1.0" standalone="no"?>
<!DOCTYPE svg PUBLIC "-//W3C//DTD SVG 20010904//EN"
 "http://www.w3.org/TR/2001/REC-SVG-20010904/DTD/svg10.dtd">
<svg version="1.0" xmlns="http://www.w3.org/2000/svg"
 width="96.000000pt" height="68.000000pt" viewBox="0 0 96.000000 68.000000"
 preserveAspectRatio="xMidYMid meet">
<metadata>
Created by potrace 1.16, written by Peter Selinger 2001-2019
</metadata>
<g transform="translate(0.000000,68.000000) scale(0.100000,-0.100000)"
fill="#000000" stroke="none">
<path d="M465 156 c29 -38 53 -52 68 -37 13 13 -10 50 -39 61 -49 19 -57 12
-29 -24z"/>
<path d="M660 187 c0 -3 26 -27 57 -52 51 -42 58 -45 69 -30 17 23 8 41 -31
59 -37 18 -95 32 -95 23z"/>
<path d="M300 175 c0 -3 10 -26 22 -51 38 -82 128 -120 266 -112 74 4 134 23
136 42 1 8 -17 21 -107 76 -17 11 -17 10 -2 -20 22 -42 11 -53 -64 -58 -100
-7 -182 32 -220 106 -10 19 -31 31 -31 17z"/>
<path d="M185 121 c-29 -47 -32 -69 -8 -78 23 -9 53 32 53 73 0 48 -16 50 -45
5z"/>
</g>
</svg>
