<?xml version="1.0" standalone="no"?>
<!DOCTYPE svg PUBLIC "-//W3C//DTD SVG 20010904//EN"
 "http://www.w3.org/TR/2001/REC-SVG-20010904/DTD/svg10.dtd">
<svg version="1.0" xmlns="http://www.w3.org/2000/svg"
 width="96.000000pt" height="68.000000pt" viewBox="0 0 96.000000 68.000000"
 preserveAspectRatio="xMidYMid meet">
<metadata>
Created by potrace 1.16, written by Peter Selinger 2001-2019
</metadata>
<g transform="translate(0.000000,68.000000) scale(0.100000,-0.100000)"
fill="#000000" stroke="none">
<path d="M435 519 c-72 -10 -147 -16 -167 -13 -29 4 -38 2 -38 -9 0 -8 6 -20
13 -26 18 -14 34 -71 43 -148 10 -93 10 -93 138 -81 83 8 110 8 116 -2 4 -6
18 -10 31 -8 20 3 28 17 57 113 51 164 51 162 8 180 -42 18 -36 18 -201 -6z
m135 -69 l0 -40 -42 1 c-24 1 -79 -2 -124 -6 l-81 -8 -7 33 c-3 18 -5 35 -3
37 6 5 146 20 205 22 l52 1 0 -40z m-14 -112 c-4 -23 -8 -43 -9 -44 -1 -1 -48
-5 -104 -9 l-102 -7 -7 37 c-3 20 -3 40 2 45 5 5 47 11 94 13 47 1 96 4 109 5
22 2 23 0 17 -40z"/>
<path d="M655 165 c-5 -2 -120 -11 -255 -20 -134 -9 -247 -18 -249 -21 -3 -3
1 -9 9 -14 19 -12 94 -12 178 -1 37 6 154 12 260 15 107 2 196 6 198 9 19 18
-106 47 -141 32z"/>
</g>
</svg>
