<?xml version="1.0" standalone="no"?>
<!DOCTYPE svg PUBLIC "-//W3C//DTD SVG 20010904//EN"
 "http://www.w3.org/TR/2001/REC-SVG-20010904/DTD/svg10.dtd">
<svg version="1.0" xmlns="http://www.w3.org/2000/svg"
 width="90.000000pt" height="92.000000pt" viewBox="0 0 90.000000 92.000000"
 preserveAspectRatio="xMidYMid meet">
<metadata>
Created by potrace 1.16, written by Peter Selinger 2001-2019
</metadata>
<g transform="translate(0.000000,92.000000) scale(0.100000,-0.100000)"
fill="#000000" stroke="none">
<path d="M590 774 c-151 -18 -457 -45 -513 -44 -53 0 -60 -15 -16 -37 31 -16
56 -16 154 2 121 22 162 20 172 -7 12 -35 4 -388 -11 -475 -12 -68 -12 -83 1
-115 8 -21 19 -38 24 -38 21 0 29 51 38 235 5 108 11 199 14 201 3 3 36 -15
74 -40 110 -72 153 -79 139 -22 -9 35 -49 58 -140 80 l-75 17 -3 95 -3 94 175
0 c96 0 181 4 189 9 19 12 5 30 -35 47 -38 16 -41 16 -184 -2z"/>
</g>
</svg>
