<?xml version="1.0" standalone="no"?>
<!DOCTYPE svg PUBLIC "-//W3C//DTD SVG 20010904//EN"
 "http://www.w3.org/TR/2001/REC-SVG-20010904/DTD/svg10.dtd">
<svg version="1.0" xmlns="http://www.w3.org/2000/svg"
 width="96.000000pt" height="68.000000pt" viewBox="0 0 96.000000 68.000000"
 preserveAspectRatio="xMidYMid meet">
<metadata>
Created by potrace 1.16, written by Peter Selinger 2001-2019
</metadata>
<g transform="translate(0.000000,68.000000) scale(0.100000,-0.100000)"
fill="#000000" stroke="none">
<path d="M523 372 c-6 -4 -13 -18 -14 -32 -3 -21 -11 -26 -46 -31 -55 -7 -67
-19 -20 -19 50 0 67 -9 67 -35 0 -19 -7 -23 -46 -29 -26 -3 -65 -6 -87 -6 -30
0 -38 -3 -30 -11 8 -8 62 -8 205 1 214 13 233 16 204 32 -11 6 -52 8 -112 3
l-94 -7 0 25 c0 19 6 26 31 31 17 3 42 6 55 6 13 0 24 5 24 10 0 6 -25 10 -55
10 -52 0 -55 1 -55 24 0 28 -10 38 -27 28z"/>
</g>
</svg>
