<?xml version="1.0" standalone="no"?>
<!DOCTYPE svg PUBLIC "-//W3C//DTD SVG 20010904//EN"
 "http://www.w3.org/TR/2001/REC-SVG-20010904/DTD/svg10.dtd">
<svg version="1.0" xmlns="http://www.w3.org/2000/svg"
 width="96.000000pt" height="68.000000pt" viewBox="0 0 96.000000 68.000000"
 preserveAspectRatio="xMidYMid meet">
<metadata>
Created by potrace 1.16, written by Peter Selinger 2001-2019
</metadata>
<g transform="translate(0.000000,68.000000) scale(0.100000,-0.100000)"
fill="#000000" stroke="none">
<path d="M530 369 c-47 -4 -137 -7 -201 -8 l-115 -1 -22 -30 c-12 -16 -22 -36
-22 -45 0 -26 40 -17 57 13 l16 28 220 18 c121 9 222 14 225 11 4 -3 0 -15 -7
-26 -7 -12 -11 -22 -9 -24 7 -6 118 17 118 25 0 5 -13 18 -29 29 -32 23 -70
25 -231 10z"/>
</g>
</svg>
