<?xml version="1.0" standalone="no"?>
<!DOCTYPE svg PUBLIC "-//W3C//DTD SVG 20010904//EN"
 "http://www.w3.org/TR/2001/REC-SVG-20010904/DTD/svg10.dtd">
<svg version="1.0" xmlns="http://www.w3.org/2000/svg"
 width="90.000000pt" height="92.000000pt" viewBox="0 0 90.000000 92.000000"
 preserveAspectRatio="xMidYMid meet">
<metadata>
Created by potrace 1.16, written by Peter Selinger 2001-2019
</metadata>
<g transform="translate(0.000000,92.000000) scale(0.100000,-0.100000)"
fill="#000000" stroke="none">
<path d="M555 764 c-5 -2 -99 -14 -208 -27 -108 -13 -200 -27 -204 -30 -3 -4
9 -13 28 -21 25 -10 48 -12 84 -6 28 5 62 9 78 9 26 1 27 -1 26 -46 0 -27 -6
-73 -12 -103 l-12 -55 -78 -9 c-98 -11 -100 -31 -4 -31 37 0 67 -4 67 -8 0 -5
-14 -57 -32 -117 -35 -120 -35 -120 -133 -120 -60 0 -135 -11 -135 -21 0 -4
15 -17 34 -28 29 -18 40 -20 87 -11 105 18 297 32 499 35 176 2 205 5 208 18
2 10 -11 23 -36 36 -36 18 -47 19 -146 9 -59 -5 -109 -8 -112 -6 -2 3 12 52
31 109 52 153 52 142 12 163 -32 18 -39 18 -115 4 -51 -10 -82 -12 -82 -5 0 5
11 41 25 80 23 63 24 72 11 92 -14 22 -14 22 37 29 29 3 84 6 124 6 80 0 99
13 63 42 -20 16 -78 23 -105 12z m-16 -307 c12 -15 -2 -81 -39 -178 l-20 -56
-83 -5 c-45 -3 -83 -4 -85 -3 -4 3 66 226 73 234 4 3 34 9 68 12 34 3 65 7 68
7 4 1 12 -4 18 -11z"/>
</g>
</svg>
