<?xml version="1.0" standalone="no"?>
<!DOCTYPE svg PUBLIC "-//W3C//DTD SVG 20010904//EN"
 "http://www.w3.org/TR/2001/REC-SVG-20010904/DTD/svg10.dtd">
<svg version="1.0" xmlns="http://www.w3.org/2000/svg"
 width="96.000000pt" height="68.000000pt" viewBox="0 0 96.000000 68.000000"
 preserveAspectRatio="xMidYMid meet">
<metadata>
Created by potrace 1.16, written by Peter Selinger 2001-2019
</metadata>
<g transform="translate(0.000000,68.000000) scale(0.100000,-0.100000)"
fill="#000000" stroke="none">
<path d="M405 570 c-116 -10 -221 -19 -235 -19 -23 -2 -24 -3 -7 -15 15 -12
17 -34 17 -195 0 -140 3 -189 15 -210 22 -44 81 -63 217 -69 121 -5 374 14
384 29 3 5 -7 14 -21 21 -20 9 -46 9 -114 0 -49 -7 -147 -12 -218 -12 -235 0
-231 -4 -215 224 6 88 14 170 17 182 7 24 46 29 308 41 81 3 147 10 147 15 0
11 -45 28 -68 27 -9 -1 -111 -10 -227 -19z"/>
</g>
</svg>
