<?xml version="1.0" standalone="no"?>
<!DOCTYPE svg PUBLIC "-//W3C//DTD SVG 20010904//EN"
 "http://www.w3.org/TR/2001/REC-SVG-20010904/DTD/svg10.dtd">
<svg version="1.0" xmlns="http://www.w3.org/2000/svg"
 width="90.000000pt" height="92.000000pt" viewBox="0 0 90.000000 92.000000"
 preserveAspectRatio="xMidYMid meet">
<metadata>
Created by potrace 1.16, written by Peter Selinger 2001-2019
</metadata>
<g transform="translate(0.000000,92.000000) scale(0.100000,-0.100000)"
fill="#000000" stroke="none">
<path d="M496 864 c-3 -9 -6 -25 -6 -37 0 -42 -50 -173 -99 -257 -27 -47 -47
-87 -44 -90 5 -6 74 66 89 93 14 25 60 13 68 -16 10 -37 7 -261 -5 -366 -11
-90 -10 -103 6 -127 27 -42 37 -16 43 115 l5 121 56 1 c130 2 198 25 138 48
-15 6 -45 5 -88 -5 -107 -22 -109 -22 -109 35 l0 48 68 7 c133 13 159 24 109
47 -17 8 -42 7 -93 -4 l-69 -14 -5 61 c-3 34 -4 64 -3 67 1 3 51 14 110 23
147 24 153 25 153 35 0 16 -60 34 -93 27 -17 -3 -75 -17 -127 -31 -52 -14
-103 -25 -112 -25 -14 0 -7 20 34 107 l50 108 -27 22 c-31 27 -41 29 -49 7z"/>
<path d="M185 838 c4 -13 9 -86 12 -164 8 -224 -25 -354 -119 -467 -22 -27
-38 -50 -35 -53 7 -7 104 73 123 101 9 14 26 50 39 81 l23 56 43 -55 c60 -75
89 -85 89 -31 0 30 -34 64 -90 89 -35 16 -40 22 -36 44 3 14 8 50 11 79 5 39
13 56 28 66 137 82 140 87 90 118 l-26 16 -41 -62 c-32 -47 -42 -56 -45 -41
-4 25 5 164 14 192 6 17 1 25 -24 37 -45 24 -65 21 -56 -6z"/>
<path d="M45 573 c40 -95 67 -121 85 -81 16 33 -2 73 -42 98 -51 31 -61 27
-43 -17z"/>
</g>
</svg>
