<?xml version="1.0" standalone="no"?>
<!DOCTYPE svg PUBLIC "-//W3C//DTD SVG 20010904//EN"
 "http://www.w3.org/TR/2001/REC-SVG-20010904/DTD/svg10.dtd">
<svg version="1.0" xmlns="http://www.w3.org/2000/svg"
 width="96.000000pt" height="68.000000pt" viewBox="0 0 96.000000 68.000000"
 preserveAspectRatio="xMidYMid meet">
<metadata>
Created by potrace 1.16, written by Peter Selinger 2001-2019
</metadata>
<g transform="translate(0.000000,68.000000) scale(0.100000,-0.100000)"
fill="#000000" stroke="none">
<path d="M258 496 c7 -176 -17 -259 -98 -346 -32 -35 -33 -46 -3 -36 31 10 90
69 113 115 l22 44 42 -42 c48 -47 76 -53 76 -18 0 29 -23 51 -74 72 -35 15
-38 19 -32 47 3 17 6 39 6 49 0 14 19 29 65 51 36 18 65 37 65 43 0 31 -56 48
-66 20 -4 -8 -11 -12 -17 -8 -5 3 -7 1 -4 -4 4 -6 -2 -18 -12 -27 -27 -25 -33
-7 -21 66 5 35 10 66 10 69 0 8 -47 29 -64 29 -10 0 -12 -26 -8 -124z"/>
<path d="M530 597 c0 -29 -52 -136 -96 -199 -19 -27 -31 -48 -28 -48 3 0 24
16 47 35 44 38 71 44 81 19 10 -25 6 -235 -5 -283 -8 -35 -7 -48 6 -68 9 -13
20 -21 25 -18 4 3 11 43 15 89 l7 85 77 6 c104 8 105 9 103 20 -3 12 -67 13
-134 3 l-48 -8 0 39 0 39 79 3 c76 4 102 11 88 25 -9 9 -52 9 -114 -1 l-53 -8
0 47 c0 29 5 49 13 52 7 2 56 10 110 17 54 6 99 17 100 22 3 17 -70 17 -141 1
-95 -21 -155 -29 -151 -19 2 4 21 38 43 76 31 55 36 70 26 82 -20 24 -50 19
-50 -8z"/>
<path d="M120 435 c0 -12 43 -90 54 -97 31 -21 47 11 30 57 -9 23 -84 59 -84
40z"/>
</g>
</svg>
