<?xml version="1.0" standalone="no"?>
<!DOCTYPE svg PUBLIC "-//W3C//DTD SVG 20010904//EN"
 "http://www.w3.org/TR/2001/REC-SVG-20010904/DTD/svg10.dtd">
<svg version="1.0" xmlns="http://www.w3.org/2000/svg"
 width="96.000000pt" height="68.000000pt" viewBox="0 0 96.000000 68.000000"
 preserveAspectRatio="xMidYMid meet">
<metadata>
Created by potrace 1.16, written by Peter Selinger 2001-2019
</metadata>
<g transform="translate(0.000000,68.000000) scale(0.100000,-0.100000)"
fill="#000000" stroke="none">
<path d="M212 573 c15 -36 14 -268 -2 -382 -12 -88 -3 -141 25 -141 23 0 29
33 34 212 3 97 9 179 13 183 4 4 17 0 30 -9 12 -9 33 -16 46 -16 19 0 23 5 20
23 -2 17 -14 25 -50 36 -47 14 -48 15 -42 51 7 44 -13 70 -56 70 -28 0 -29 -1
-18 -27z"/>
<path d="M585 590 c-16 -4 -63 -8 -103 -9 -42 0 -71 -5 -67 -10 9 -16 17 -219
8 -224 -4 -3 -31 -6 -58 -8 -28 -1 -54 -4 -59 -7 -15 -8 19 -22 56 -22 34 0
38 -3 44 -35 6 -33 1 -103 -13 -182 -8 -52 16 -51 92 4 65 47 75 69 16 39 -51
-27 -61 -22 -61 32 0 26 3 70 6 98 l7 52 96 6 c163 11 221 18 221 27 0 21
-166 19 -294 -4 -6 -1 -11 12 -11 28 l0 30 93 9 c51 4 92 13 92 18 0 7 -30 9
-90 4 l-90 -7 0 26 c0 15 4 24 9 21 14 -9 161 16 161 27 0 10 -73 5 -138 -9
-33 -7 -33 -6 -30 27 l3 34 95 12 c52 6 96 12 98 12 2 1 0 6 -3 11 -7 11 -36
11 -80 0z"/>
<path d="M119 395 c-24 -55 -22 -89 7 -93 33 -5 54 57 38 116 -9 34 -23 27
-45 -23z"/>
<path d="M630 280 c-19 -46 -33 -53 -62 -31 -13 11 -38 23 -54 26 l-29 7 26
-19 c15 -10 63 -53 108 -95 80 -77 81 -78 133 -78 83 0 88 14 16 39 -60 22
-158 79 -158 93 0 3 21 18 46 33 37 22 43 29 33 41 -19 23 -46 16 -59 -16z"/>
</g>
</svg>
