<?xml version="1.0" standalone="no"?>
<!DOCTYPE svg PUBLIC "-//W3C//DTD SVG 20010904//EN"
 "http://www.w3.org/TR/2001/REC-SVG-20010904/DTD/svg10.dtd">
<svg version="1.0" xmlns="http://www.w3.org/2000/svg"
 width="90.000000pt" height="92.000000pt" viewBox="0 0 90.000000 92.000000"
 preserveAspectRatio="xMidYMid meet">
<metadata>
Created by potrace 1.16, written by Peter Selinger 2001-2019
</metadata>
<g transform="translate(0.000000,92.000000) scale(0.100000,-0.100000)"
fill="#000000" stroke="none">
<path d="M670 820 c-19 -5 -86 -17 -147 -26 -62 -10 -113 -21 -113 -24 0 -17
56 -29 93 -21 36 9 37 8 32 -12 -4 -12 -16 -42 -28 -67 -21 -43 -24 -45 -61
-42 -34 3 -38 1 -30 -15 9 -19 11 -180 3 -269 -3 -35 0 -56 10 -68 13 -15 15
-16 23 -2 10 18 38 22 38 6 0 -22 -44 -96 -91 -154 -27 -33 -46 -62 -44 -64
14 -15 205 166 205 194 0 7 -8 17 -17 23 -16 8 -15 10 7 15 14 2 47 7 73 9 47
5 50 3 69 -29 11 -19 27 -34 34 -34 31 0 41 59 38 230 -3 162 -3 165 -27 184
-23 17 -28 17 -88 3 -35 -9 -80 -19 -99 -22 l-34 -7 47 52 c31 35 46 59 42 70
-5 15 5 18 85 24 49 4 90 11 90 16 0 26 -59 42 -110 30z m40 -239 c0 -39 0
-40 -32 -34 -18 2 -71 -2 -117 -11 -46 -9 -85 -16 -88 -16 -2 0 -3 17 -1 38
l3 37 65 11 c36 7 89 12 118 13 l52 1 0 -39z m0 -101 c0 -38 -1 -39 -28 -34
-15 3 -65 -2 -111 -10 -46 -9 -87 -16 -92 -16 -5 0 -9 17 -9 39 0 34 2 38 23
35 12 -2 60 2 107 10 47 7 91 14 98 15 8 1 12 -13 12 -39z m0 -104 l0 -45 -29
10 c-20 7 -47 7 -87 0 -32 -6 -75 -11 -96 -11 -36 0 -38 2 -38 30 0 28 3 30
38 31 20 0 73 6 117 14 44 7 83 13 88 14 4 0 7 -19 7 -43z"/>
<path d="M215 739 c-44 -9 -93 -18 -108 -18 -48 -2 -25 -26 26 -29 42 -3 47
-5 47 -28 0 -48 -107 -243 -166 -302 -14 -14 -19 -32 -8 -32 3 0 32 25 64 56
67 64 72 61 84 -36 8 -67 22 -93 36 -69 7 11 31 18 79 23 63 6 69 9 60 24 -8
13 -5 33 10 80 12 35 19 68 15 73 -14 23 -55 29 -84 14 -30 -16 -120 -32 -120
-22 0 3 15 31 33 64 56 101 72 143 58 152 -8 6 1 11 26 15 21 4 53 12 72 18
32 10 33 12 16 24 -23 17 -37 16 -140 -7z m73 -330 c-6 -59 -11 -65 -60 -74
l-38 -7 0 60 c0 58 1 61 28 65 76 11 75 12 70 -44z"/>
<path d="M620 234 c0 -5 40 -54 111 -137 31 -37 59 -32 59 11 0 43 -67 101
-141 122 -16 5 -29 6 -29 4z"/>
</g>
</svg>
