<?xml version="1.0" standalone="no"?>
<!DOCTYPE svg PUBLIC "-//W3C//DTD SVG 20010904//EN"
 "http://www.w3.org/TR/2001/REC-SVG-20010904/DTD/svg10.dtd">
<svg version="1.0" xmlns="http://www.w3.org/2000/svg"
 width="96.000000pt" height="68.000000pt" viewBox="0 0 96.000000 68.000000"
 preserveAspectRatio="xMidYMid meet">
<metadata>
Created by potrace 1.16, written by Peter Selinger 2001-2019
</metadata>
<g transform="translate(0.000000,68.000000) scale(0.100000,-0.100000)"
fill="#000000" stroke="none">
<path d="M710 570 c-14 -4 -48 -8 -77 -9 l-52 -1 5 -32 c4 -30 12 -115 13
-146 1 -9 6 -10 20 -2 11 5 43 10 71 10 l51 0 -3 -147 -3 -148 -35 3 -35 4 40
-36 c45 -41 47 -42 67 -18 13 14 17 58 20 264 l3 247 -23 10 c-26 12 -27 12
-62 1z m28 -52 c3 -26 0 -28 -30 -28 -18 0 -43 -3 -55 -6 -20 -6 -23 -3 -23
24 0 34 13 41 70 39 30 -2 35 -6 38 -29z m2 -72 c0 -26 -12 -33 -70 -38 -31
-3 -35 0 -38 24 -3 29 7 35 71 37 33 1 37 -2 37 -23z"/>
<path d="M200 535 c0 -17 66 -75 86 -75 33 0 32 33 -2 59 -23 18 -84 30 -84
16z"/>
<path d="M392 523 c-53 -4 -54 -5 -47 -31 4 -15 7 -74 6 -132 -1 -92 -6 -133
-28 -251 -5 -28 21 -59 37 -43 5 5 14 70 20 144 6 74 12 136 14 137 2 2 25 5
52 7 l49 4 11 79 c6 43 9 81 7 86 -4 7 -16 7 -121 0z m78 -43 c0 -27 -3 -30
-30 -30 -16 0 -33 0 -37 -1 -5 0 -10 8 -12 17 -4 22 25 44 56 44 19 0 23 -5
23 -30z m0 -65 c0 -18 -7 -28 -26 -35 -43 -17 -54 -13 -54 22 0 17 3 29 6 26
3 -3 17 -2 32 2 41 12 42 12 42 -15z"/>
<path d="M167 359 c43 -44 73 -48 73 -10 0 27 -37 51 -80 51 l-35 0 42 -41z"/>
<path d="M540 319 c-59 -10 -89 -19 -79 -23 10 -4 23 -7 30 -5 31 4 40 -2 37
-23 -2 -17 -11 -24 -30 -26 -38 -4 -36 -22 2 -22 25 0 30 -4 30 -24 0 -21 -6
-25 -51 -31 -31 -4 -47 -11 -42 -16 6 -6 37 -5 79 1 38 5 93 10 122 10 40 0
52 3 52 16 0 13 -11 15 -57 13 -53 -3 -58 -1 -61 18 -3 18 3 23 32 29 42 7 38
24 -5 24 -48 0 -34 33 19 44 42 10 53 20 30 28 -7 2 -56 -4 -108 -13z"/>
<path d="M249 253 c-24 -32 -47 -60 -50 -63 -3 -3 -18 -15 -33 -27 -26 -21
-27 -25 -16 -57 12 -37 33 -52 48 -33 29 38 113 237 99 237 -2 0 -24 -26 -48
-57z"/>
</g>
</svg>
