<?xml version="1.0" standalone="no"?>
<!DOCTYPE svg PUBLIC "-//W3C//DTD SVG 20010904//EN"
 "http://www.w3.org/TR/2001/REC-SVG-20010904/DTD/svg10.dtd">
<svg version="1.0" xmlns="http://www.w3.org/2000/svg"
 width="90.000000pt" height="92.000000pt" viewBox="0 0 90.000000 92.000000"
 preserveAspectRatio="xMidYMid meet">
<metadata>
Created by potrace 1.16, written by Peter Selinger 2001-2019
</metadata>
<g transform="translate(0.000000,92.000000) scale(0.100000,-0.100000)"
fill="#000000" stroke="none">
<path d="M459 845 c-5 -19 -7 -28 -8 -48 0 -12 -21 -57 -45 -100 -24 -42 -40
-77 -35 -77 4 0 25 17 46 38 39 39 40 39 241 73 78 14 92 30 42 48 -21 7 -39
7 -57 0 -57 -21 -163 -47 -163 -40 0 5 10 21 22 36 15 20 19 32 12 43 -10 15
-53 36 -55 27z"/>
<path d="M200 818 c0 -7 19 -36 43 -63 32 -36 48 -47 61 -42 29 11 17 67 -19
88 -45 26 -85 34 -85 17z"/>
<path d="M557 650 c-43 -10 -88 -15 -99 -12 -17 4 -20 2 -15 -12 4 -10 7 -54
7 -99 0 -45 4 -88 9 -95 6 -10 25 -11 95 -2 62 8 92 8 101 0 24 -20 40 18 41
100 1 42 4 82 8 88 6 10 -50 54 -64 51 -3 -1 -40 -9 -83 -19z m83 -60 c0 -25
-3 -29 -27 -28 -16 0 -49 -3 -75 -7 l-48 -8 0 31 c0 34 9 38 103 41 46 1 47 0
47 -29z m0 -88 c0 -19 -5 -28 -17 -29 -10 0 -44 -4 -75 -8 l-58 -8 0 31 c0 29
3 31 43 35 107 9 107 9 107 -21z"/>
<path d="M225 613 c-22 -8 -72 -19 -112 -25 -77 -12 -88 -21 -48 -40 20 -9 40
-6 105 12 44 13 83 20 87 17 10 -10 -131 -190 -197 -251 -33 -30 -60 -58 -60
-61 0 -16 100 52 153 103 l57 56 1 -39 c2 -91 -2 -153 -13 -196 -11 -45 -7
-80 11 -109 23 -34 35 9 41 144 3 74 8 137 11 141 4 3 19 -6 35 -20 31 -29 59
-29 59 0 0 12 -14 27 -38 41 l-38 21 41 18 c56 25 64 38 39 61 -23 21 -20 23
-72 -51 -22 -30 -28 -31 -45 -4 -12 18 -9 26 25 67 21 26 48 55 60 65 30 24
29 33 -7 52 -34 18 -42 17 -95 -2z"/>
<path d="M480 362 l-15 -47 -42 3 c-26 2 -43 -1 -43 -7 0 -6 6 -11 13 -11 6 0
19 -5 27 -10 12 -8 6 -18 -35 -60 -27 -27 -46 -50 -42 -50 15 0 84 39 96 54
20 23 33 20 70 -18 l33 -34 -34 -25 c-37 -29 -108 -61 -156 -72 -31 -6 -45
-25 -19 -25 39 0 147 40 239 88 4 2 27 -15 51 -37 62 -57 86 -64 174 -50 40 6
73 15 73 20 0 4 -37 20 -82 35 -46 15 -104 38 -131 51 l-48 24 31 44 c16 24
30 48 30 53 0 5 9 17 20 27 27 25 25 44 -7 56 -19 7 -40 7 -70 0 -55 -14 -63
-14 -63 4 0 13 -29 35 -47 35 -4 0 -15 -21 -23 -48z m140 -42 c0 -12 -24 -69
-39 -89 -9 -14 -24 -7 -90 46 -11 8 35 42 63 46 59 7 66 7 66 -3z"/>
</g>
</svg>
