<?xml version="1.0" standalone="no"?>
<!DOCTYPE svg PUBLIC "-//W3C//DTD SVG 20010904//EN"
 "http://www.w3.org/TR/2001/REC-SVG-20010904/DTD/svg10.dtd">
<svg version="1.0" xmlns="http://www.w3.org/2000/svg"
 width="90.000000pt" height="92.000000pt" viewBox="0 0 90.000000 92.000000"
 preserveAspectRatio="xMidYMid meet">
<metadata>
Created by potrace 1.16, written by Peter Selinger 2001-2019
</metadata>
<g transform="translate(0.000000,92.000000) scale(0.100000,-0.100000)"
fill="#000000" stroke="none">
<path d="M265 805 c-27 -7 -76 -14 -107 -14 -58 -1 -68 -7 -47 -28 6 -6 17
-42 25 -79 15 -72 29 -98 42 -77 11 18 142 29 152 13 13 -21 28 -3 51 68 12
37 27 73 33 81 8 10 5 18 -13 32 -26 21 -63 22 -136 4z m79 -23 c3 -5 3 -17 0
-28 -4 -16 -12 -19 -34 -16 -15 2 -52 -1 -81 -7 -41 -9 -54 -9 -61 1 -17 27
-6 35 65 45 101 14 105 14 111 5z m-4 -69 c-1 -34 -14 -52 -39 -51 -14 1 -47
-2 -73 -6 -32 -6 -48 -5 -48 2 0 6 -3 17 -6 26 -5 13 1 16 32 17 22 0 57 4 79
8 55 12 55 12 55 4z"/>
<path d="M583 771 c-84 -15 -155 -29 -158 -32 -12 -13 56 -31 90 -25 32 6 35
5 35 -16 0 -13 -11 -40 -25 -61 -22 -32 -30 -36 -52 -31 -23 6 -25 5 -17 -12
9 -20 12 -168 4 -261 -3 -41 0 -57 13 -70 11 -11 17 -13 17 -5 0 7 7 12 15 12
33 0 4 -60 -72 -147 -30 -35 -51 -63 -46 -63 20 0 101 62 158 120 55 56 58 62
43 74 -10 7 -18 15 -18 18 0 3 32 8 71 11 65 6 73 4 90 -16 19 -22 19 -22 34
-3 11 15 15 53 17 158 1 76 2 150 2 165 1 21 -6 31 -28 42 -25 12 -39 11 -103
-3 -117 -26 -122 -24 -74 30 22 26 37 52 34 60 -3 8 -4 14 -2 14 2 1 48 5 102
9 53 4 100 11 104 15 11 11 -20 35 -52 40 -17 2 -98 -8 -182 -23z m131 -187
c15 -40 7 -54 -31 -54 -21 0 -54 -4 -73 -9 -19 -5 -50 -12 -68 -15 -33 -6 -33
-6 -30 31 3 37 4 38 58 49 83 18 137 17 144 -2z m6 -120 c0 -30 -3 -35 -17
-29 -10 3 -57 -2 -105 -11 -48 -10 -90 -15 -94 -12 -3 4 -3 20 1 36 4 21 11
29 23 26 9 -2 51 2 92 10 105 20 100 21 100 -20z m0 -97 l0 -43 -42 0 c-24 0
-73 -4 -110 -8 l-68 -9 0 37 c0 35 1 36 38 37 28 0 166 22 180 28 1 0 2 -18 2
-42z"/>
<path d="M206 598 c4 -7 13 -20 21 -30 13 -14 11 -17 -14 -22 -15 -3 -55 -8
-88 -11 -119 -12 -143 -24 -88 -42 19 -7 58 -4 123 8 52 9 127 20 165 24 108
10 119 13 104 31 -10 13 -26 14 -81 9 -58 -6 -68 -5 -68 9 0 18 -30 36 -60 36
-14 0 -19 -4 -14 -12z"/>
<path d="M275 474 c-33 -7 -81 -14 -107 -15 -45 -2 -60 -11 -39 -23 5 -4 12
-25 16 -49 11 -63 22 -79 44 -65 10 6 26 8 35 5 14 -6 16 -20 14 -94 l-3 -88
-35 3 -35 3 22 -20 c12 -11 29 -31 38 -43 l16 -23 19 25 c18 24 27 107 23 223
-1 24 2 27 33 27 31 0 47 14 25 22 -5 2 4 22 20 46 16 23 29 45 29 47 0 3 -12
11 -27 18 -23 12 -38 12 -88 1z m40 -56 c-10 -45 -12 -46 -78 -54 l-58 -7 3
39 c3 36 6 39 38 45 19 4 50 7 68 8 33 1 33 0 27 -31z"/>
<path d="M320 291 c0 -17 66 -96 83 -99 13 -3 17 4 17 25 0 38 -9 50 -53 68
-42 18 -47 18 -47 6z"/>
<path d="M111 248 c-7 -18 -23 -50 -36 -70 -28 -42 -27 -45 15 -23 44 23 86
83 73 103 -18 30 -40 25 -52 -10z"/>
<path d="M640 234 c0 -3 16 -24 35 -47 19 -23 50 -62 68 -87 35 -47 69 -59 75
-27 10 52 -27 101 -110 143 -47 24 -68 29 -68 18z"/>
</g>
</svg>
