<?xml version="1.0" standalone="no"?>
<!DOCTYPE svg PUBLIC "-//W3C//DTD SVG 20010904//EN"
 "http://www.w3.org/TR/2001/REC-SVG-20010904/DTD/svg10.dtd">
<svg version="1.0" xmlns="http://www.w3.org/2000/svg"
 width="96.000000pt" height="68.000000pt" viewBox="0 0 96.000000 68.000000"
 preserveAspectRatio="xMidYMid meet">
<metadata>
Created by potrace 1.16, written by Peter Selinger 2001-2019
</metadata>
<g transform="translate(0.000000,68.000000) scale(0.100000,-0.100000)"
fill="#000000" stroke="none">
<path d="M570 565 c-63 -6 -121 -10 -127 -7 -7 2 -13 -1 -13 -7 0 -6 4 -11 9
-11 4 0 18 -27 30 -60 l22 -60 -27 -35 c-14 -19 -30 -35 -35 -35 -5 0 -9 -5
-9 -11 0 -6 15 -2 33 9 43 26 280 50 304 30 13 -10 14 -30 9 -120 -4 -59 -12
-122 -18 -139 -10 -29 -13 -31 -50 -25 l-39 6 27 -35 c63 -83 117 -11 128 173
3 57 11 112 16 122 7 13 5 21 -8 32 -29 25 -52 29 -111 19 -31 -6 -87 -13
-126 -17 -58 -5 -68 -4 -57 7 18 19 15 28 -10 39 -24 9 4 12 156 15 l70 1 33
44 c65 85 43 91 -207 65z m170 -26 c0 -39 -17 -56 -49 -51 -31 4 -40 16 -21
27 6 3 10 15 10 26 0 14 7 19 30 19 24 0 30 -4 30 -21z m-102 -21 c-5 -57 -57
-48 -58 10 0 18 5 22 31 22 28 0 30 -2 27 -32z m-84 0 c10 -40 7 -48 -23 -48
-24 0 -31 6 -40 31 -6 18 -11 34 -11 35 0 2 15 4 34 4 26 0 35 -5 40 -22z"/>
<path d="M290 523 c-25 -7 -66 -13 -92 -11 -52 2 -72 -8 -46 -23 9 -5 21 -33
28 -64 13 -62 21 -71 50 -53 32 20 40 -4 38 -107 l-3 -90 -27 -3 c-28 -3 -28
-3 -28 61 0 50 -4 66 -16 71 -29 11 -36 6 -30 -21 2 -16 8 -49 11 -75 l6 -48
-35 0 c-43 0 -46 -10 -9 -32 27 -15 31 -15 98 12 39 15 90 34 115 41 25 7 49
16 54 21 13 11 -21 10 -62 -1 l-32 -10 0 49 c0 47 1 49 32 52 41 4 50 28 10
28 -25 0 -30 4 -34 30 -5 36 -2 40 28 40 17 0 22 4 17 15 -3 9 2 36 12 61 26
68 1 84 -85 57z m30 -50 c0 -42 -13 -54 -61 -60 -24 -3 -41 -2 -37 2 4 4 3 17
-2 30 -13 34 2 43 88 54 7 0 12 -10 12 -26z"/>
<path d="M508 331 c4 -27 1 -30 -31 -36 -19 -4 -46 -4 -58 0 -22 7 -22 7 -6
-9 9 -10 17 -28 17 -41 0 -29 16 -40 52 -36 16 1 28 -1 29 -6 0 -4 2 -18 3
-30 3 -22 -1 -23 -57 -23 -40 0 -57 -4 -55 -12 10 -30 36 -31 133 -4 88 24 99
25 115 11 22 -20 30 -19 30 4 0 20 -35 51 -57 51 -7 0 -13 -6 -13 -14 0 -15
-58 -28 -66 -14 -3 4 -2 17 1 28 5 16 15 20 51 20 36 0 44 3 44 19 0 10 7 24
15 31 38 31 6 54 -61 44 -39 -6 -43 -4 -46 17 -2 15 -11 25 -24 27 -18 3 -20
-1 -16 -27z m100 -63 c-2 -17 -11 -24 -30 -26 -24 -3 -28 0 -28 22 0 22 4 26
31 26 26 0 30 -3 27 -22z m-98 -14 c0 -22 -4 -25 -27 -22 -20 2 -29 9 -31 26
-3 19 1 22 27 22 27 0 31 -4 31 -26z"/>
</g>
</svg>
