<?xml version="1.0" standalone="no"?>
<!DOCTYPE svg PUBLIC "-//W3C//DTD SVG 20010904//EN"
 "http://www.w3.org/TR/2001/REC-SVG-20010904/DTD/svg10.dtd">
<svg version="1.0" xmlns="http://www.w3.org/2000/svg"
 width="90.000000pt" height="92.000000pt" viewBox="0 0 90.000000 92.000000"
 preserveAspectRatio="xMidYMid meet">
<metadata>
Created by potrace 1.16, written by Peter Selinger 2001-2019
</metadata>
<g transform="translate(0.000000,92.000000) scale(0.100000,-0.100000)"
fill="#000000" stroke="none">
<path d="M548 768 c3 -144 6 -154 44 -174 44 -23 163 -23 205 -1 41 22 48 34
34 60 -6 12 -16 36 -22 52 l-12 30 -9 -35 c-13 -50 -41 -70 -98 -70 -27 0 -60
4 -74 10 -23 8 -26 15 -26 56 0 39 3 45 16 40 21 -8 134 14 134 26 0 19 -45
24 -92 10 -27 -7 -52 -12 -54 -9 -3 3 -1 22 5 44 10 34 9 40 -10 56 -40 33
-44 24 -41 -95z"/>
<path d="M365 860 c-3 -5 -2 -18 3 -27 6 -10 13 -61 17 -114 7 -94 7 -97 -15
-104 -12 -4 -24 -5 -26 -2 -3 2 -6 37 -7 76 -2 66 -4 72 -25 78 -13 3 -25 4
-27 1 -2 -2 2 -41 9 -86 l13 -82 -30 0 -30 0 23 -25 c28 -30 39 -31 88 -6 95
48 105 35 37 -51 -49 -63 -48 -69 5 -37 32 20 130 36 130 22 0 -4 -10 -22 -22
-40 -26 -38 -62 -48 -139 -41 -50 5 -50 5 -44 -21 10 -35 6 -146 -6 -201 -6
-25 -21 -65 -35 -89 -13 -24 -22 -46 -19 -49 9 -10 64 60 80 103 15 37 20 42
38 36 11 -4 39 -4 61 0 23 4 83 11 134 15 l92 7 0 -31 c0 -52 -9 -62 -52 -62
l-39 0 38 -45 c20 -25 43 -45 50 -45 7 0 21 12 30 27 14 22 19 57 23 177 4 83
8 157 10 164 3 8 -7 23 -22 34 -25 19 -31 20 -90 9 -35 -7 -72 -14 -83 -17
-12 -3 3 17 38 50 l59 55 -28 14 c-25 13 -34 13 -81 -4 -29 -10 -53 -14 -53
-10 0 5 7 11 15 15 23 8 18 36 -7 45 -22 8 -21 9 15 24 20 9 37 19 37 23 0 7
-54 0 -82 -11 -16 -6 -18 -1 -18 39 0 39 3 46 23 50 86 18 84 16 63 32 -18 13
-32 12 -73 -3 -9 -4 -13 9 -13 46 0 46 -3 53 -26 61 -31 12 -31 12 -39 0z
m303 -482 c3 -36 2 -37 -25 -29 -15 4 -48 6 -72 3 -41 -4 -44 -3 -38 17 3 11
0 24 -6 28 -13 9 59 21 108 19 27 -1 30 -5 33 -38z m-190 -7 c5 -29 -12 -41
-60 -41 -35 0 -38 2 -38 29 0 26 4 30 33 34 52 7 62 3 65 -22z m192 -86 c0
-43 -1 -45 -21 -35 -12 7 -41 9 -76 4 l-56 -7 7 29 c10 38 6 35 73 44 32 4 61
8 66 9 4 0 7 -19 7 -44z m-190 -15 c0 -26 -4 -30 -37 -35 -84 -13 -79 -15 -75
27 l4 38 54 0 c53 0 54 0 54 -30z"/>
<path d="M130 654 c-19 -7 -52 -13 -72 -13 -43 -1 -43 0 -24 -36 8 -15 17 -58
21 -96 4 -39 13 -73 21 -80 9 -7 14 -8 14 -1 0 6 29 14 65 17 60 7 78 16 56
29 -10 7 2 72 24 128 13 33 13 39 -1 53 -18 18 -55 18 -104 -1z m40 -93 c0
-72 -6 -81 -51 -81 -20 0 -27 18 -31 89 -3 40 0 45 22 52 58 16 60 15 60 -60z"/>
</g>
</svg>
