<?xml version="1.0" standalone="no"?>
<!DOCTYPE svg PUBLIC "-//W3C//DTD SVG 20010904//EN"
 "http://www.w3.org/TR/2001/REC-SVG-20010904/DTD/svg10.dtd">
<svg version="1.0" xmlns="http://www.w3.org/2000/svg"
 width="90.000000pt" height="92.000000pt" viewBox="0 0 90.000000 92.000000"
 preserveAspectRatio="xMidYMid meet">
<metadata>
Created by potrace 1.16, written by Peter Selinger 2001-2019
</metadata>
<g transform="translate(0.000000,92.000000) scale(0.100000,-0.100000)"
fill="#000000" stroke="none">
<path d="M220 802 c0 -34 -69 -161 -109 -201 -37 -37 -40 -43 -29 -66 13 -30
8 -29 82 -5 33 11 61 20 63 20 8 0 -92 -123 -114 -140 -26 -20 -29 -42 -9 -59
12 -10 30 -5 88 22 107 51 113 52 132 22 20 -31 36 -24 36 15 0 30 -48 80 -76
80 -13 0 -13 -3 1 -22 15 -22 14 -23 -52 -45 -36 -13 -68 -21 -70 -20 -1 2 37
50 85 106 114 135 108 125 94 155 -18 39 -36 31 -56 -25 -21 -56 -41 -69 -108
-69 l-40 0 18 28 c10 15 44 60 76 101 l59 74 -22 23 c-27 28 -49 31 -49 6z"/>
<path d="M595 734 c-27 -7 -76 -16 -108 -20 -31 -4 -60 -10 -63 -15 -8 -13 32
-29 75 -29 48 0 54 -12 49 -105 l-3 -60 -87 -10 c-47 -5 -90 -13 -93 -17 -17
-17 42 -30 112 -25 l73 5 0 -104 c0 -118 11 -106 -110 -121 l-64 -8 28 -18
c25 -17 36 -18 109 -8 44 6 127 11 184 11 56 0 103 4 103 8 0 5 -9 17 -21 28
-21 19 -86 22 -153 8 l-29 -6 6 68 c4 38 7 88 7 112 l0 42 63 1 c80 1 148 11
148 24 1 5 -12 16 -29 25 -24 13 -41 14 -100 6 -40 -5 -74 -8 -76 -5 -2 2 -1
35 3 72 4 38 4 70 -1 73 -19 12 -5 22 40 28 26 3 54 11 62 16 13 9 12 12 -4
25 -24 18 -54 18 -121 -1z"/>
<path d="M288 323 c24 -46 47 -67 62 -58 30 18 -6 80 -53 91 l-29 7 20 -40z"/>
<path d="M170 314 c1 -19 57 -89 70 -89 22 0 24 48 3 67 -21 19 -73 34 -73 22z"/>
<path d="M56 268 c23 -75 66 -130 86 -110 21 21 -3 84 -41 109 -43 29 -54 29
-45 1z"/>
</g>
</svg>
