<?xml version="1.0" standalone="no"?>
<!DOCTYPE svg PUBLIC "-//W3C//DTD SVG 20010904//EN"
 "http://www.w3.org/TR/2001/REC-SVG-20010904/DTD/svg10.dtd">
<svg version="1.0" xmlns="http://www.w3.org/2000/svg"
 width="90.000000pt" height="92.000000pt" viewBox="0 0 90.000000 92.000000"
 preserveAspectRatio="xMidYMid meet">
<metadata>
Created by potrace 1.16, written by Peter Selinger 2001-2019
</metadata>
<g transform="translate(0.000000,92.000000) scale(0.100000,-0.100000)"
fill="#000000" stroke="none">
<path d="M575 900 c-4 -6 -6 -20 -5 -33 5 -59 1 -66 -42 -78 -42 -11 -42 -11
-18 -24 13 -7 30 -11 37 -8 10 4 9 -6 -2 -43 -18 -61 -18 -59 1 -43 8 7 25 31
36 53 26 52 32 56 95 56 61 0 75 13 35 34 -21 11 -38 13 -60 7 l-30 -9 10 30
c10 27 8 33 -13 49 -28 21 -35 23 -44 9z"/>
<path d="M320 848 c1 -7 7 -24 15 -38 24 -42 19 -50 -32 -50 l-46 0 23 -25
c23 -24 31 -25 76 -8 7 2 17 -12 24 -31 16 -49 30 -45 30 9 0 39 3 45 25 51
36 9 32 28 -5 21 -27 -6 -30 -4 -36 31 -4 20 -12 40 -18 44 -18 12 -56 9 -56
-4z"/>
<path d="M110 790 c0 -5 20 -31 45 -57 42 -43 47 -46 61 -31 29 29 11 64 -43
82 -54 19 -63 19 -63 6z"/>
<path d="M600 649 c-52 -10 -141 -21 -198 -25 -92 -6 -104 -5 -116 11 -12 16
-15 12 -35 -45 -24 -74 -27 -110 -7 -110 18 0 31 17 45 63 10 29 18 37 36 37
13 0 76 9 140 20 113 19 225 26 225 14 0 -3 -9 -19 -21 -35 -23 -33 -21 -34
65 -16 33 7 61 17 63 23 5 14 -72 84 -90 83 -6 -1 -55 -10 -107 -20z"/>
<path d="M60 600 c0 -19 82 -100 101 -100 25 0 34 36 16 64 -20 30 -117 60
-117 36z"/>
<path d="M423 553 c-65 -15 -78 -27 -42 -36 31 -8 200 24 196 37 -5 16 -84 16
-154 -1z"/>
<path d="M433 476 c-67 -12 -125 -24 -128 -28 -12 -12 43 -21 82 -13 l38 7
-20 -23 c-11 -12 -47 -42 -80 -67 -66 -49 -46 -49 44 -1 61 32 71 35 71 16 0
-17 -62 -76 -130 -122 -38 -26 -47 -36 -29 -32 47 12 96 36 143 72 53 40 56
41 56 18 -1 -33 -76 -102 -174 -159 -27 -15 -45 -29 -39 -31 20 -7 119 38 171
77 29 22 55 40 58 40 9 0 -6 -91 -18 -113 -7 -15 -19 -18 -47 -15 l-38 3 36
-42 c19 -24 41 -43 47 -43 7 0 23 13 37 30 30 35 41 103 29 178 -5 28 -8 52
-6 52 1 0 30 -29 63 -64 34 -34 77 -71 95 -81 33 -18 36 -18 96 0 57 17 78 30
67 41 -2 3 -41 14 -86 24 -86 21 -134 42 -190 84 l-35 26 72 32 c40 18 72 38
72 44 0 13 -33 44 -47 44 -6 0 -23 -18 -38 -40 -15 -21 -38 -46 -51 -55 -23
-15 -26 -14 -65 26 -31 32 -38 44 -27 50 7 5 17 9 22 9 4 0 6 6 3 14 -6 15 38
26 106 26 39 0 45 8 25 28 -15 15 -35 14 -185 -12z"/>
<path d="M195 405 c-48 -80 -88 -134 -115 -158 -25 -22 -28 -30 -21 -55 12
-40 30 -72 41 -72 4 0 14 17 20 38 7 20 32 86 57 145 44 108 53 159 18 102z"/>
</g>
</svg>
