<?xml version="1.0" standalone="no"?>
<!DOCTYPE svg PUBLIC "-//W3C//DTD SVG 20010904//EN"
 "http://www.w3.org/TR/2001/REC-SVG-20010904/DTD/svg10.dtd">
<svg version="1.0" xmlns="http://www.w3.org/2000/svg"
 width="96.000000pt" height="68.000000pt" viewBox="0 0 96.000000 68.000000"
 preserveAspectRatio="xMidYMid meet">
<metadata>
Created by potrace 1.16, written by Peter Selinger 2001-2019
</metadata>
<g transform="translate(0.000000,68.000000) scale(0.100000,-0.100000)"
fill="#000000" stroke="none">
<path d="M500 446 c0 -31 -3 -34 -37 -40 -21 -3 -54 -6 -74 -6 l-37 0 19 -37
c10 -21 19 -42 19 -49 0 -6 7 -17 15 -24 10 -9 15 -9 15 -1 0 6 17 11 40 11
l40 0 0 -55 c0 -48 3 -55 20 -55 16 0 19 8 22 58 l3 57 73 3 c46 2 70 7 66 13
-3 6 6 28 20 49 14 22 26 41 26 44 0 2 -12 9 -28 15 -19 8 -42 9 -81 1 -78
-15 -81 -14 -81 20 0 23 -4 30 -20 30 -16 0 -20 -7 -20 -34z m160 -54 c0 -32
-24 -50 -72 -57 l-48 -7 0 35 c0 39 8 44 78 46 34 1 42 -2 42 -17z m-164 -58
c-3 -8 -19 -14 -40 -14 -29 0 -36 4 -45 30 -12 35 -8 37 49 42 30 3 35 0 38
-20 2 -13 1 -30 -2 -38z"/>
</g>
</svg>
