<?xml version="1.0" standalone="no"?>
<!DOCTYPE svg PUBLIC "-//W3C//DTD SVG 20010904//EN"
 "http://www.w3.org/TR/2001/REC-SVG-20010904/DTD/svg10.dtd">
<svg version="1.0" xmlns="http://www.w3.org/2000/svg"
 width="96.000000pt" height="68.000000pt" viewBox="0 0 96.000000 68.000000"
 preserveAspectRatio="xMidYMid meet">
<metadata>
Created by potrace 1.16, written by Peter Selinger 2001-2019
</metadata>
<g transform="translate(0.000000,68.000000) scale(0.100000,-0.100000)"
fill="#000000" stroke="none">
<path d="M520 513 c-10 -2 -15 -15 -14 -41 1 -34 4 -38 40 -50 46 -15 126 -12
132 6 3 9 -13 12 -55 12 -74 0 -91 10 -76 43 13 27 3 37 -27 30z"/>
<path d="M366 475 c-3 -13 -27 -42 -52 -64 -55 -48 -48 -52 21 -11 98 58 114
84 58 94 -16 3 -23 -2 -27 -19z"/>
</g>
</svg>
