<?xml version="1.0" standalone="no"?>
<!DOCTYPE svg PUBLIC "-//W3C//DTD SVG 20010904//EN"
 "http://www.w3.org/TR/2001/REC-SVG-20010904/DTD/svg10.dtd">
<svg version="1.0" xmlns="http://www.w3.org/2000/svg"
 width="96.000000pt" height="68.000000pt" viewBox="0 0 96.000000 68.000000"
 preserveAspectRatio="xMidYMid meet">
<metadata>
Created by potrace 1.16, written by Peter Selinger 2001-2019
</metadata>
<g transform="translate(0.000000,68.000000) scale(0.100000,-0.100000)"
fill="#000000" stroke="none">
<path d="M409 582 c5 -10 17 -24 25 -32 9 -7 16 -16 16 -20 0 -12 -182 -22
-194 -10 -5 5 -13 10 -17 10 -12 0 -60 -93 -55 -107 9 -23 36 -14 56 20 19 32
22 33 132 50 170 25 290 39 296 32 3 -3 -2 -18 -11 -34 l-17 -28 56 13 c31 7
59 15 62 18 3 4 -5 18 -19 32 -26 28 -42 28 -201 8 -44 -6 -48 -5 -48 14 0 25
-35 52 -68 52 -19 0 -21 -3 -13 -18z"/>
</g>
</svg>
