<?xml version="1.0" standalone="no"?>
<!DOCTYPE svg PUBLIC "-//W3C//DTD SVG 20010904//EN"
 "http://www.w3.org/TR/2001/REC-SVG-20010904/DTD/svg10.dtd">
<svg version="1.0" xmlns="http://www.w3.org/2000/svg"
 width="96.000000pt" height="68.000000pt" viewBox="0 0 96.000000 68.000000"
 preserveAspectRatio="xMidYMid meet">
<metadata>
Created by potrace 1.16, written by Peter Selinger 2001-2019
</metadata>
<g transform="translate(0.000000,68.000000) scale(0.100000,-0.100000)"
fill="#000000" stroke="none">
<path d="M390 316 c0 -24 -2 -24 -115 -31 -63 -4 -117 -11 -120 -15 -10 -16
43 -19 127 -8 48 6 90 9 94 6 11 -11 -46 -95 -95 -141 -26 -25 -67 -55 -91
-67 -53 -27 -45 -38 11 -16 74 30 128 75 184 156 63 88 52 84 235 90 52 1 118
5 145 9 l50 7 -29 13 c-23 9 -59 9 -176 -4 -81 -8 -149 -15 -152 -15 -3 0 -8
9 -11 20 -3 14 -14 20 -31 20 -21 0 -26 -5 -26 -24z"/>
</g>
</svg>
