<?xml version="1.0" standalone="no"?>
<!DOCTYPE svg PUBLIC "-//W3C//DTD SVG 20010904//EN"
 "http://www.w3.org/TR/2001/REC-SVG-20010904/DTD/svg10.dtd">
<svg version="1.0" xmlns="http://www.w3.org/2000/svg"
 width="96.000000pt" height="68.000000pt" viewBox="0 0 96.000000 68.000000"
 preserveAspectRatio="xMidYMid meet">
<metadata>
Created by potrace 1.16, written by Peter Selinger 2001-2019
</metadata>
<g transform="translate(0.000000,68.000000) scale(0.100000,-0.100000)"
fill="#000000" stroke="none">
<path d="M460 610 c0 -6 6 -23 14 -38 7 -15 17 -41 20 -58 l7 -32 -58 -6
c-145 -17 -153 -19 -153 -32 0 -14 -1 -14 148 5 34 4 64 5 66 2 2 -3 16 -49
30 -101 15 -52 34 -105 42 -117 23 -36 17 -48 -41 -99 -30 -26 -53 -49 -51
-52 6 -5 73 34 103 61 l22 20 45 -41 c54 -50 115 -82 156 -82 l31 0 -7 47 c-4
26 -10 59 -14 73 -7 23 -8 23 -15 -13 -4 -21 -14 -41 -22 -44 -15 -6 -77 34
-114 73 l-24 25 40 75 c39 73 40 76 20 90 -27 20 -39 13 -46 -27 -3 -19 -13
-50 -21 -69 l-16 -35 -30 65 c-17 36 -34 86 -37 113 l-7 47 55 0 c31 0 58 4
62 9 10 17 -37 33 -81 28 l-44 -5 0 54 c0 49 -2 55 -26 64 -33 13 -54 13 -54
0z"/>
<path d="M620 582 c0 -16 78 -74 90 -67 20 12 10 43 -17 53 -51 19 -73 23 -73
14z"/>
</g>
</svg>
