<?xml version="1.0" standalone="no"?>
<!DOCTYPE svg PUBLIC "-//W3C//DTD SVG 20010904//EN"
 "http://www.w3.org/TR/2001/REC-SVG-20010904/DTD/svg10.dtd">
<svg version="1.0" xmlns="http://www.w3.org/2000/svg"
 width="96.000000pt" height="68.000000pt" viewBox="0 0 96.000000 68.000000"
 preserveAspectRatio="xMidYMid meet">
<metadata>
Created by potrace 1.16, written by Peter Selinger 2001-2019
</metadata>
<g transform="translate(0.000000,68.000000) scale(0.100000,-0.100000)"
fill="#000000" stroke="none">
<path d="M596 539 c8 -47 -3 -59 -53 -59 -18 0 -33 -4 -33 -10 0 -5 20 -10 45
-10 37 0 45 -3 45 -19 0 -21 -26 -31 -84 -31 -31 0 -36 -3 -28 -13 7 -7 16
-37 23 -65 11 -52 11 -52 50 -52 35 0 39 -3 39 -25 0 -23 -3 -25 -52 -25 -58
0 -92 -13 -64 -23 8 -3 38 -4 65 0 l49 6 4 -57 c3 -64 5 -63 -82 -42 -49 11
-55 15 -55 39 -1 14 -9 35 -19 46 -18 19 -18 22 -2 46 9 14 21 25 26 25 6 0
10 7 10 15 0 18 -34 20 -78 4 -26 -9 -35 -8 -48 5 -8 9 -26 16 -40 16 -37 0
-32 36 7 44 53 10 23 29 -38 23 -61 -6 -62 -6 -19 62 l26 40 25 -25 c28 -28
50 -27 50 2 0 12 -12 25 -32 34 -18 8 -31 20 -28 27 6 16 -22 43 -45 43 -13 0
-20 -10 -25 -37 -9 -54 -58 -146 -111 -210 -57 -71 -58 -94 -1 -45 13 12 20
13 29 4 7 -7 28 -12 49 -12 36 0 36 -1 43 -47 3 -26 3 -50 -2 -55 -4 -4 -36
-11 -70 -14 -50 -6 -62 -10 -60 -23 2 -8 15 -20 29 -25 20 -7 46 -1 122 29 98
37 128 63 62 52 l-35 -6 0 49 c0 46 2 49 30 55 16 4 35 3 42 -1 7 -5 24 -7 37
-5 21 2 23 0 17 -24 -4 -16 -1 -34 9 -48 8 -12 15 -32 15 -44 0 -24 -3 -25
-83 -25 -16 -1 -26 -5 -24 -12 3 -7 27 -10 65 -8 49 2 83 -5 184 -39 130 -43
151 -44 223 -13 39 17 39 17 15 25 -14 4 -62 7 -107 8 -45 1 -84 4 -86 9 -2 4
1 33 6 65 l11 57 73 0 c62 0 71 2 66 16 -5 13 -17 15 -75 9 -69 -7 -70 -7 -66
16 3 21 8 24 48 23 l45 -2 27 66 c25 61 26 66 10 79 -12 10 -34 12 -74 9 -52
-5 -58 -4 -58 13 0 14 11 21 46 27 58 11 57 30 -2 27 -40 -1 -44 1 -39 18 10
32 -4 59 -31 59 -23 0 -24 -2 -18 -41z m124 -144 c0 -22 -4 -25 -40 -25 -33 0
-40 3 -40 19 0 19 9 23 68 30 7 0 12 -10 12 -24z m-120 -15 c0 -16 -7 -20 -34
-20 -20 0 -36 6 -39 14 -7 17 7 24 46 25 21 1 27 -4 27 -19z m108 -47 c-2 -13
-13 -18 -36 -18 -17 -1 -32 4 -32 10 0 18 11 25 42 25 23 0 29 -4 26 -17z
m-470 -20 c3 -18 -1 -23 -20 -23 -13 0 -34 -3 -48 -7 l-24 -6 24 31 c29 37 63
39 68 5z m362 6 c0 -16 -5 -20 -27 -17 -17 2 -29 10 -31 21 -3 13 3 17 27 17
25 0 31 -4 31 -21z"/>
<path d="M373 396 c7 -13 15 -22 19 -20 5 3 8 0 8 -5 0 -6 7 -11 15 -11 22 0
18 27 -7 44 -34 24 -48 21 -35 -8z"/>
<path d="M315 224 c-20 -48 -20 -47 16 -29 35 19 48 43 28 56 -23 14 -28 11
-44 -27z"/>
<path d="M160 217 c0 -19 29 -57 44 -57 16 0 27 23 18 37 -7 10 -46 33 -56 33
-3 0 -6 -6 -6 -13z"/>
</g>
</svg>
