<?xml version="1.0" standalone="no"?>
<!DOCTYPE svg PUBLIC "-//W3C//DTD SVG 20010904//EN"
 "http://www.w3.org/TR/2001/REC-SVG-20010904/DTD/svg10.dtd">
<svg version="1.0" xmlns="http://www.w3.org/2000/svg"
 width="90.000000pt" height="92.000000pt" viewBox="0 0 90.000000 92.000000"
 preserveAspectRatio="xMidYMid meet">
<metadata>
Created by potrace 1.16, written by Peter Selinger 2001-2019
</metadata>
<g transform="translate(0.000000,92.000000) scale(0.100000,-0.100000)"
fill="#000000" stroke="none">
<path d="M366 831 c-3 -5 1 -25 9 -45 12 -28 15 -68 13 -164 l-3 -127 -105
-11 c-58 -6 -135 -15 -173 -19 -37 -3 -67 -10 -67 -15 0 -4 17 -18 37 -30 37
-22 39 -22 108 -6 62 14 197 36 202 32 1 0 3 -56 5 -123 l3 -121 -45 -6 c-25
-3 -75 -8 -112 -12 -38 -4 -68 -11 -68 -16 0 -5 16 -16 35 -24 27 -11 44 -12
77 -3 24 5 122 12 218 15 189 5 220 9 220 25 0 14 -84 50 -102 44 -7 -3 -48
-9 -90 -13 l-78 -8 0 122 c0 76 4 125 11 129 5 4 92 8 192 9 196 2 212 7 155
49 -30 23 -35 23 -223 3 -71 -7 -130 -13 -130 -12 -4 7 15 239 20 263 7 29 4
34 -26 52 -36 22 -74 27 -83 12z"/>
</g>
</svg>
