<?xml version="1.0" standalone="no"?>
<!DOCTYPE svg PUBLIC "-//W3C//DTD SVG 20010904//EN"
 "http://www.w3.org/TR/2001/REC-SVG-20010904/DTD/svg10.dtd">
<svg version="1.0" xmlns="http://www.w3.org/2000/svg"
 width="90.000000pt" height="92.000000pt" viewBox="0 0 90.000000 92.000000"
 preserveAspectRatio="xMidYMid meet">
<metadata>
Created by potrace 1.16, written by Peter Selinger 2001-2019
</metadata>
<g transform="translate(0.000000,92.000000) scale(0.100000,-0.100000)"
fill="#000000" stroke="none">
<path d="M619 765 c-3 -2 -48 -12 -99 -21 -52 -9 -97 -18 -99 -20 -3 -2 1 -10
7 -16 16 -16 15 -62 -4 -128 -34 -119 -29 -129 51 -108 24 7 47 9 50 6 11 -11
-37 -119 -80 -177 -24 -33 -73 -80 -111 -107 -79 -57 -69 -69 21 -25 76 38
142 107 187 199 17 34 33 62 35 62 2 0 3 -51 1 -112 -3 -128 7 -165 52 -191
65 -39 175 -30 219 17 l23 25 -21 44 c-11 24 -21 51 -21 60 0 37 -18 23 -25
-19 -3 -25 -15 -54 -26 -65 -31 -31 -126 -22 -151 15 -13 19 -8 126 7 163 14
33 14 38 -1 54 -9 10 -25 21 -35 24 -11 4 -19 15 -19 26 0 17 8 19 94 19 99 0
125 11 90 37 -14 11 -37 13 -91 9 -40 -3 -73 -3 -73 0 0 3 8 37 17 75 16 67
16 70 -2 83 -18 13 -18 14 1 19 10 3 36 9 57 13 38 6 50 27 21 38 -18 7 -69 8
-75 1z m-65 -102 c3 -21 3 -60 -2 -88 -7 -47 -9 -50 -45 -58 -21 -5 -40 -7
-43 -5 -2 3 3 36 12 74 8 38 14 79 11 91 -4 20 0 23 29 23 30 0 33 -3 38 -37z"/>
<path d="M215 739 c-37 -14 -64 -17 -104 -13 -50 5 -53 4 -46 -13 28 -64 28
-374 1 -454 -11 -30 -10 -41 1 -63 16 -31 34 -33 58 -5 11 11 50 45 88 76 l69
57 25 -32 c32 -42 53 -42 53 1 0 37 -23 63 -78 92 -39 19 -52 13 -29 -13 10
-10 17 -22 17 -25 0 -6 -133 -77 -145 -77 -8 0 -5 164 3 177 5 8 40 14 90 17
46 2 85 6 88 9 3 3 16 52 28 109 13 57 26 111 30 120 6 13 -1 22 -26 38 -39
24 -56 24 -123 -1z m69 -27 c3 -5 3 -25 -1 -45 -4 -29 -10 -37 -27 -37 -11 0
-43 -7 -69 -15 l-48 -14 3 46 3 47 50 12 c64 15 83 16 89 6z m-9 -164 c-6 -42
-9 -44 -38 -44 -18 0 -49 -4 -69 -8 l-38 -8 0 46 0 46 43 1 c23 1 56 4 72 8
17 4 31 6 33 5 2 -1 1 -22 -3 -46z"/>
</g>
</svg>
