<?xml version="1.0" standalone="no"?>
<!DOCTYPE svg PUBLIC "-//W3C//DTD SVG 20010904//EN"
 "http://www.w3.org/TR/2001/REC-SVG-20010904/DTD/svg10.dtd">
<svg version="1.0" xmlns="http://www.w3.org/2000/svg"
 width="96.000000pt" height="68.000000pt" viewBox="0 0 96.000000 68.000000"
 preserveAspectRatio="xMidYMid meet">
<metadata>
Created by potrace 1.16, written by Peter Selinger 2001-2019
</metadata>
<g transform="translate(0.000000,68.000000) scale(0.100000,-0.100000)"
fill="#000000" stroke="none">
<path d="M450 468 c0 -18 -9 -52 -19 -75 -25 -54 -12 -70 46 -53 21 6 91 13
156 17 112 6 138 13 100 27 -20 8 -121 0 -201 -16 -30 -5 -56 -8 -58 -5 -3 3
2 31 11 62 14 48 15 59 4 66 -27 17 -39 9 -39 -23z"/>
</g>
</svg>
