<?xml version="1.0" standalone="no"?>
<!DOCTYPE svg PUBLIC "-//W3C//DTD SVG 20010904//EN"
 "http://www.w3.org/TR/2001/REC-SVG-20010904/DTD/svg10.dtd">
<svg version="1.0" xmlns="http://www.w3.org/2000/svg"
 width="90.000000pt" height="92.000000pt" viewBox="0 0 90.000000 92.000000"
 preserveAspectRatio="xMidYMid meet">
<metadata>
Created by potrace 1.16, written by Peter Selinger 2001-2019
</metadata>
<g transform="translate(0.000000,92.000000) scale(0.100000,-0.100000)"
fill="#000000" stroke="none">
<path d="M377 884 c-3 -4 -2 -14 2 -23 5 -9 11 -62 12 -118 l4 -101 -35 -6
c-67 -11 -198 -7 -203 7 -6 16 -8 13 -43 -68 -32 -76 -33 -105 -4 -105 20 0
37 23 56 75 13 35 20 37 242 65 145 19 282 26 282 15 0 -3 -12 -24 -26 -47
-22 -35 -23 -40 -8 -34 11 4 45 13 76 20 85 17 90 28 37 77 -49 46 -27 44
-236 15 l-93 -13 1 26 c0 14 4 64 9 111 7 73 6 87 -8 98 -17 13 -54 16 -65 6z"/>
<path d="M579 818 c-6 -13 -29 -47 -51 -75 -21 -29 -36 -53 -32 -53 14 0 164
83 164 90 0 11 -27 38 -50 50 -15 8 -21 6 -31 -12z"/>
<path d="M230 762 c0 -18 63 -82 81 -82 33 0 24 47 -13 70 -33 20 -68 26 -68
12z"/>
<path d="M430 554 c-36 -7 -83 -14 -105 -15 -50 -3 -60 -8 -42 -22 8 -7 22
-38 31 -69 9 -32 21 -58 26 -58 6 0 10 5 10 10 0 6 17 10 38 10 78 0 143 12
138 26 -3 7 6 29 20 49 30 45 30 59 -1 73 -30 14 -29 14 -115 -4z m65 -56 c-4
-18 -12 -36 -17 -39 -11 -7 -119 -21 -123 -17 -2 2 -5 19 -7 38 -3 34 -2 35
37 41 22 3 57 7 78 8 38 1 39 1 32 -31z"/>
<path d="M520 370 c-25 -4 -103 -14 -175 -20 -71 -7 -131 -14 -133 -16 -2 -1
3 -15 12 -32 8 -16 20 -70 27 -120 13 -101 21 -121 41 -105 7 6 49 14 93 17
44 4 98 9 120 12 39 4 41 3 54 -31 25 -71 63 -13 86 130 9 55 21 106 28 113 9
11 5 19 -18 38 -31 25 -56 27 -135 14z m78 -75 l3 -40 -70 -1 -69 0 -4 37 c-3
37 -2 38 32 42 19 2 51 4 70 3 33 -1 35 -3 38 -41z m-194 9 c3 -9 6 -26 6 -38
0 -20 -7 -24 -46 -30 -83 -11 -84 -10 -84 33 0 36 3 40 28 44 62 9 90 7 96 -9z
m182 -121 l-7 -38 -64 0 -65 0 0 32 c0 34 -6 32 110 46 33 4 33 4 26 -40z
m-180 -39 c-4 -11 -19 -14 -58 -12 -52 3 -53 4 -56 35 l-3 32 58 3 c54 3 58 1
61 -20 2 -13 1 -30 -2 -38z"/>
</g>
</svg>
