<?xml version="1.0" standalone="no"?>
<!DOCTYPE svg PUBLIC "-//W3C//DTD SVG 20010904//EN"
 "http://www.w3.org/TR/2001/REC-SVG-20010904/DTD/svg10.dtd">
<svg version="1.0" xmlns="http://www.w3.org/2000/svg"
 width="96.000000pt" height="68.000000pt" viewBox="0 0 96.000000 68.000000"
 preserveAspectRatio="xMidYMid meet">
<metadata>
Created by potrace 1.16, written by Peter Selinger 2001-2019
</metadata>
<g transform="translate(0.000000,68.000000) scale(0.100000,-0.100000)"
fill="#000000" stroke="none">
<path d="M615 449 c-33 -4 -134 -13 -223 -20 -138 -10 -165 -10 -172 2 -11 17
-12 16 -43 -47 -16 -31 -22 -55 -17 -64 13 -21 40 -3 58 39 l17 38 80 6 c44 3
142 11 218 18 75 7 140 10 143 7 3 -4 -1 -19 -10 -35 l-15 -30 67 15 c37 8 68
16 70 17 8 7 -12 33 -37 48 -31 18 -41 19 -136 6z"/>
</g>
</svg>
