<?xml version="1.0" standalone="no"?>
<!DOCTYPE svg PUBLIC "-//W3C//DTD SVG 20010904//EN"
 "http://www.w3.org/TR/2001/REC-SVG-20010904/DTD/svg10.dtd">
<svg version="1.0" xmlns="http://www.w3.org/2000/svg"
 width="96.000000pt" height="68.000000pt" viewBox="0 0 96.000000 68.000000"
 preserveAspectRatio="xMidYMid meet">
<metadata>
Created by potrace 1.16, written by Peter Selinger 2001-2019
</metadata>
<g transform="translate(0.000000,68.000000) scale(0.100000,-0.100000)"
fill="#000000" stroke="none">
<path d="M410 591 c5 -11 10 -37 10 -59 0 -66 11 -102 30 -102 14 0 18 13 23
81 4 45 4 86 1 90 -3 5 -21 9 -40 9 -31 0 -34 -2 -24 -19z"/>
<path d="M552 520 c-24 -28 -41 -50 -38 -50 9 0 131 53 140 62 11 9 -21 37
-44 38 -8 0 -34 -23 -58 -50z"/>
<path d="M305 490 c33 -35 55 -39 55 -10 0 22 -28 40 -61 40 -22 0 -22 -1 6
-30z"/>
</g>
</svg>
