<?xml version="1.0" standalone="no"?>
<!DOCTYPE svg PUBLIC "-//W3C//DTD SVG 20010904//EN"
 "http://www.w3.org/TR/2001/REC-SVG-20010904/DTD/svg10.dtd">
<svg version="1.0" xmlns="http://www.w3.org/2000/svg"
 width="96.000000pt" height="68.000000pt" viewBox="0 0 96.000000 68.000000"
 preserveAspectRatio="xMidYMid meet">
<metadata>
Created by potrace 1.16, written by Peter Selinger 2001-2019
</metadata>
<g transform="translate(0.000000,68.000000) scale(0.100000,-0.100000)"
fill="#000000" stroke="none">
<path d="M514 547 c-1 -72 -26 -164 -60 -223 -13 -23 -49 -65 -81 -94 -52 -48
-55 -53 -29 -46 75 19 160 116 189 216 50 176 51 210 3 210 -19 0 -21 -6 -22
-63z"/>
<path d="M626 529 c-14 -23 -24 -44 -22 -47 7 -6 106 58 106 68 0 7 -33 19
-51 20 -3 0 -18 -19 -33 -41z"/>
<path d="M399 522 c25 -46 71 -64 71 -27 0 17 -38 45 -63 45 -14 0 -16 -4 -8
-18z"/>
<path d="M646 287 c93 -72 107 -79 152 -71 59 11 58 15 -12 39 -36 13 -91 37
-121 54 -85 48 -94 37 -19 -22z"/>
</g>
</svg>
