<?xml version="1.0" standalone="no"?>
<!DOCTYPE svg PUBLIC "-//W3C//DTD SVG 20010904//EN"
 "http://www.w3.org/TR/2001/REC-SVG-20010904/DTD/svg10.dtd">
<svg version="1.0" xmlns="http://www.w3.org/2000/svg"
 width="96.000000pt" height="68.000000pt" viewBox="0 0 96.000000 68.000000"
 preserveAspectRatio="xMidYMid meet">
<metadata>
Created by potrace 1.16, written by Peter Selinger 2001-2019
</metadata>
<g transform="translate(0.000000,68.000000) scale(0.100000,-0.100000)"
fill="#000000" stroke="none">
<path d="M410 623 c0 -3 11 -21 25 -38 l24 -32 -101 -8 c-78 -5 -103 -4 -109
6 -9 15 -8 16 -37 -34 -42 -73 -12 -110 33 -41 19 30 24 32 145 49 161 22 290
30 290 19 0 -5 -7 -18 -15 -28 -24 -32 -18 -35 43 -17 65 20 72 36 26 63 -27
16 -40 17 -100 8 -101 -14 -145 -13 -138 4 6 16 -41 56 -67 56 -11 0 -19 -3
-19 -7z"/>
</g>
</svg>
