<?xml version="1.0" standalone="no"?>
<!DOCTYPE svg PUBLIC "-//W3C//DTD SVG 20010904//EN"
 "http://www.w3.org/TR/2001/REC-SVG-20010904/DTD/svg10.dtd">
<svg version="1.0" xmlns="http://www.w3.org/2000/svg"
 width="90.000000pt" height="92.000000pt" viewBox="0 0 90.000000 92.000000"
 preserveAspectRatio="xMidYMid meet">
<metadata>
Created by potrace 1.16, written by Peter Selinger 2001-2019
</metadata>
<g transform="translate(0.000000,92.000000) scale(0.100000,-0.100000)"
fill="#000000" stroke="none">
<path d="M588 862 c-2 -4 -1 -72 2 -152 4 -116 9 -150 23 -172 34 -50 128 -63
205 -28 46 21 48 25 28 90 l-13 45 -7 -32 c-10 -43 -40 -63 -97 -63 -60 0 -89
22 -96 76 l-5 40 73 13 c93 17 115 27 98 47 -15 19 -35 18 -102 -5 -30 -11
-57 -17 -60 -15 -2 3 0 26 5 52 17 79 16 84 -19 98 -18 8 -34 10 -35 6z"/>
<path d="M160 797 c0 -8 13 -39 30 -70 21 -39 26 -57 17 -60 -7 -3 -54 -11
-105 -18 -98 -14 -115 -27 -62 -49 25 -10 40 -10 88 3 31 9 97 23 146 32 49 8
91 17 93 19 11 11 -35 30 -68 29 -38 -2 -39 -1 -39 31 0 41 -16 61 -62 81 -31
13 -38 13 -38 2z"/>
<path d="M387 763 c10 -35 10 -138 1 -219 -5 -43 -4 -66 5 -78 12 -16 19 -12
82 39 91 74 98 88 32 60 -59 -24 -67 -21 -67 29 l0 44 48 7 c57 8 77 18 67 35
-7 12 -39 10 -94 -6 -24 -7 -24 -6 -18 44 5 44 3 53 -13 62 -36 19 -51 13 -43
-17z"/>
<path d="M178 541 c-31 -9 -60 -19 -63 -23 -15 -15 49 -20 108 -8 70 15 89 26
67 40 -20 13 -44 11 -112 -9z"/>
<path d="M527 483 c-3 -16 -20 -47 -37 -70 -25 -34 -35 -41 -48 -34 -16 8 -17
-2 -16 -118 1 -137 8 -178 27 -162 7 5 41 12 77 16 36 3 89 8 118 11 47 5 52
4 52 -15 0 -26 19 -37 35 -20 9 10 14 55 17 153 3 135 2 139 -20 154 -21 14
-32 13 -116 -1 -50 -10 -98 -17 -106 -17 -8 0 11 22 41 50 52 48 53 50 35 65
-30 23 -53 19 -59 -12z m167 -144 c12 -60 9 -68 -21 -60 -15 4 -59 2 -98 -5
-109 -20 -107 -21 -103 28 l3 43 70 11 c39 6 86 12 106 13 33 1 37 -2 43 -30z
m6 -132 l0 -44 -52 1 c-29 1 -82 -2 -118 -7 l-66 -7 4 39 4 38 86 10 c152 17
142 19 142 -30z"/>
<path d="M218 455 c-3 -3 -25 -9 -48 -13 -60 -10 -65 -32 -8 -32 50 1 126 14
136 24 3 4 0 11 -8 16 -16 10 -63 13 -72 5z"/>
<path d="M215 344 c-22 -9 -61 -15 -86 -15 l-46 0 18 -37 c11 -20 19 -44 19
-54 0 -30 30 -94 38 -81 4 6 25 14 47 18 94 15 97 16 85 30 -9 10 -5 28 16 71
26 55 26 58 9 71 -23 16 -49 16 -100 -3z m37 -36 c2 -7 2 -29 -2 -48 -4 -29
-11 -37 -40 -46 -40 -13 -44 -10 -53 48 -5 35 -4 37 31 46 52 14 59 14 64 0z"/>
</g>
</svg>
