<?xml version="1.0" standalone="no"?>
<!DOCTYPE svg PUBLIC "-//W3C//DTD SVG 20010904//EN"
 "http://www.w3.org/TR/2001/REC-SVG-20010904/DTD/svg10.dtd">
<svg version="1.0" xmlns="http://www.w3.org/2000/svg"
 width="96.000000pt" height="68.000000pt" viewBox="0 0 96.000000 68.000000"
 preserveAspectRatio="xMidYMid meet">
<metadata>
Created by potrace 1.16, written by Peter Selinger 2001-2019
</metadata>
<g transform="translate(0.000000,68.000000) scale(0.100000,-0.100000)"
fill="#000000" stroke="none">
<path d="M270 214 c-27 -9 -61 -13 -84 -9 -38 6 -39 5 -25 -12 9 -10 23 -39
33 -65 16 -43 36 -64 36 -38 0 6 17 10 38 10 49 0 83 10 76 22 -4 5 2 28 12
50 15 34 16 41 3 49 -18 11 -34 10 -89 -7z m40 -36 c0 -33 -12 -47 -47 -54
-27 -5 -31 -3 -41 25 -12 34 -11 34 33 44 45 10 55 7 55 -15z"/>
</g>
</svg>
