<?xml version="1.0" standalone="no"?>
<!DOCTYPE svg PUBLIC "-//W3C//DTD SVG 20010904//EN"
 "http://www.w3.org/TR/2001/REC-SVG-20010904/DTD/svg10.dtd">
<svg version="1.0" xmlns="http://www.w3.org/2000/svg"
 width="96.000000pt" height="68.000000pt" viewBox="0 0 96.000000 68.000000"
 preserveAspectRatio="xMidYMid meet">
<metadata>
Created by potrace 1.16, written by Peter Selinger 2001-2019
</metadata>
<g transform="translate(0.000000,68.000000) scale(0.100000,-0.100000)"
fill="#000000" stroke="none">
<path d="M768 359 c2 -117 1 -223 -3 -236 -5 -23 -9 -24 -43 -18 l-37 7 30
-34 c38 -42 46 -48 67 -48 24 0 41 93 33 173 -6 56 7 256 21 318 4 20 1 27
-21 37 -51 23 -50 27 -47 -199z"/>
<path d="M206 510 c4 -21 4 -51 0 -65 -6 -23 -11 -25 -62 -25 -51 0 -55 -2
-43 -16 8 -9 21 -37 30 -63 15 -43 18 -46 48 -43 31 3 31 3 31 -43 0 -50 -10
-59 -67 -59 -39 0 -42 -10 -10 -31 22 -14 29 -13 100 20 77 36 107 43 107 25
0 -13 27 -13 35 -1 9 16 -16 58 -42 70 -24 11 -25 10 -19 -13 4 -17 1 -26 -10
-30 -29 -11 -34 -6 -34 34 0 35 3 40 23 40 45 0 68 12 62 31 -4 11 2 26 14 38
42 42 10 78 -60 66 -43 -7 -44 -6 -29 44 12 44 -1 61 -46 61 -34 0 -34 0 -28
-40z m102 -131 c-1 -13 -11 -25 -20 -27 -14 -3 -18 3 -18 26 0 30 17 46 33 32
5 -4 7 -18 5 -31z m-98 -14 c0 -28 -4 -35 -19 -35 -22 0 -36 50 -18 62 25 16
37 8 37 -27z"/>
<path d="M537 530 c-14 -11 -45 -32 -69 -46 -33 -20 -37 -24 -17 -20 33 7 52
-13 47 -51 -3 -26 -8 -29 -62 -38 -53 -9 -57 -12 -42 -24 14 -12 26 -13 57 -4
28 7 39 7 39 -1 0 -19 -44 -83 -88 -131 -45 -46 -45 -58 -2 -28 26 18 53 45
76 77 22 32 25 13 13 -83 -9 -72 -9 -94 1 -106 24 -29 37 2 42 100 3 53 8 98
12 102 3 4 17 -4 30 -16 24 -23 46 -21 46 3 0 14 -41 36 -65 36 -10 0 -15 11
-15 34 0 32 2 35 43 41 23 4 46 10 51 12 17 11 -20 22 -53 16 -33 -6 -34 -5
-29 21 4 20 0 31 -13 39 -28 18 -24 24 31 42 42 14 49 19 39 31 -16 20 -42 17
-72 -6z"/>
<path d="M666 331 c2 -91 9 -131 24 -131 15 0 20 31 20 120 0 86 -5 100 -38
100 -4 0 -6 -40 -6 -89z"/>
</g>
</svg>
