<?xml version="1.0" standalone="no"?>
<!DOCTYPE svg PUBLIC "-//W3C//DTD SVG 20010904//EN"
 "http://www.w3.org/TR/2001/REC-SVG-20010904/DTD/svg10.dtd">
<svg version="1.0" xmlns="http://www.w3.org/2000/svg"
 width="96.000000pt" height="68.000000pt" viewBox="0 0 96.000000 68.000000"
 preserveAspectRatio="xMidYMid meet">
<metadata>
Created by potrace 1.16, written by Peter Selinger 2001-2019
</metadata>
<g transform="translate(0.000000,68.000000) scale(0.100000,-0.100000)"
fill="#000000" stroke="none">
<path d="M491 528 c-12 -39 -40 -95 -80 -158 -14 -21 -14 -23 -1 -16 8 5 26
18 39 30 l24 21 -6 -97 c-6 -101 -2 -138 15 -138 5 0 12 9 15 20 4 16 14 20
47 21 22 0 59 2 81 4 22 2 70 7 108 10 37 4 67 10 67 15 0 12 -51 19 -102 13
-47 -6 -48 -5 -48 21 0 22 4 26 28 26 15 0 34 5 42 10 11 7 3 10 -28 10 -39 0
-43 2 -40 23 2 18 10 23 41 25 20 2 37 7 37 13 0 9 -28 13 -63 9 -14 -1 -18 4
-15 22 2 17 11 24 38 28 20 4 42 10 49 14 23 15 -10 27 -53 20 -33 -5 -38 -4
-33 9 7 19 -9 33 -47 43 l-30 7 23 -36 c12 -19 18 -38 14 -40 -14 -8 -113 -19
-113 -13 0 4 12 25 26 47 29 46 28 73 -2 77 -17 2 -23 -5 -33 -40z m119 -127
c0 -14 -10 -20 -37 -25 -65 -10 -73 -8 -73 19 0 24 3 25 55 25 47 0 55 -3 55
-19z m0 -65 c0 -19 -6 -24 -37 -30 -65 -10 -73 -8 -73 18 0 22 5 25 48 29 26
2 50 4 55 5 4 1 7 -9 7 -22z m-2 -73 c-3 -26 -7 -28 -55 -31 -51 -3 -53 -3
-53 22 0 26 12 31 83 35 25 1 28 -2 25 -26z"/>
<path d="M216 523 c-49 -7 -92 -16 -95 -18 -9 -9 7 -17 49 -22 40 -6 41 -6 38
-42 -3 -35 -4 -36 -48 -39 l-45 -3 0 -149 c0 -82 4 -152 7 -156 4 -4 14 -1 23
6 8 7 49 14 92 17 71 4 78 3 94 -19 17 -22 19 -22 35 -6 14 14 17 40 18 167 1
144 0 151 -20 162 -12 6 -31 8 -43 4 -18 -5 -21 -2 -21 22 0 34 16 53 45 53
11 0 27 5 35 10 13 9 13 11 0 20 -19 12 -52 11 -164 -7z m52 -70 c-4 -48 -28
-57 -28 -10 0 18 3 37 7 40 16 16 24 4 21 -30z m73 -55 c0 -2 3 -24 6 -50 5
-46 4 -48 -21 -48 -25 0 -26 3 -26 50 0 43 3 50 20 50 11 0 20 -1 21 -2z m-71
-58 c0 -52 19 -74 58 -68 15 3 17 -6 17 -61 l0 -63 -99 -5 -98 -4 6 53 c3 29
5 83 5 121 0 66 0 67 26 67 29 0 29 -6 -1 -79 -8 -19 -12 -36 -10 -39 11 -11
38 31 49 78 9 37 16 50 29 50 15 0 18 -9 18 -50z"/>
<path d="M235 213 c-43 -6 -56 -23 -18 -23 44 0 93 11 93 21 0 9 -20 10 -75 2z"/>
<path d="M730 165 c0 -14 76 -105 87 -105 8 0 13 12 13 30 0 24 -8 34 -43 55
-44 25 -57 30 -57 20z"/>
<path d="M421 126 c-27 -43 -28 -76 -2 -76 12 0 23 11 30 31 24 69 5 99 -28
45z"/>
<path d="M610 150 c0 -5 4 -10 10 -10 5 0 12 -11 16 -24 6 -25 29 -40 45 -30
15 9 10 24 -16 49 -24 25 -55 33 -55 15z"/>
<path d="M510 144 c0 -18 47 -67 58 -60 12 7 -4 56 -19 56 -4 0 -14 3 -23 6
-9 3 -16 2 -16 -2z"/>
</g>
</svg>
