<?xml version="1.0" standalone="no"?>
<!DOCTYPE svg PUBLIC "-//W3C//DTD SVG 20010904//EN"
 "http://www.w3.org/TR/2001/REC-SVG-20010904/DTD/svg10.dtd">
<svg version="1.0" xmlns="http://www.w3.org/2000/svg"
 width="96.000000pt" height="68.000000pt" viewBox="0 0 96.000000 68.000000"
 preserveAspectRatio="xMidYMid meet">
<metadata>
Created by potrace 1.16, written by Peter Selinger 2001-2019
</metadata>
<g transform="translate(0.000000,68.000000) scale(0.100000,-0.100000)"
fill="#000000" stroke="none">
<path d="M422 443 c-34 -3 -42 -8 -38 -19 3 -9 6 -38 6 -65 l0 -50 31 16 c21
11 43 14 69 10 l37 -6 5 53 c7 71 7 71 -110 61z m68 -28 c0 -8 -6 -15 -12 -15
-7 0 -23 -3 -35 -6 -17 -5 -23 -2 -23 9 0 17 14 25 48 26 13 1 22 -5 22 -14z
m-11 -56 c-8 -5 -24 -9 -37 -9 -33 0 -22 24 14 30 31 6 45 -7 23 -21z"/>
</g>
</svg>
