<?xml version="1.0" standalone="no"?>
<!DOCTYPE svg PUBLIC "-//W3C//DTD SVG 20010904//EN"
 "http://www.w3.org/TR/2001/REC-SVG-20010904/DTD/svg10.dtd">
<svg version="1.0" xmlns="http://www.w3.org/2000/svg"
 width="96.000000pt" height="68.000000pt" viewBox="0 0 96.000000 68.000000"
 preserveAspectRatio="xMidYMid meet">
<metadata>
Created by potrace 1.16, written by Peter Selinger 2001-2019
</metadata>
<g transform="translate(0.000000,68.000000) scale(0.100000,-0.100000)"
fill="#000000" stroke="none">
<path d="M651 574 c-18 -40 -23 -44 -55 -44 -31 0 -36 3 -36 23 0 28 -17 47
-42 47 -23 0 -23 -5 2 -40 11 -15 17 -30 13 -34 -3 -3 -29 -6 -57 -7 -28 -1
-62 -4 -76 -9 -22 -6 -23 -8 -7 -15 18 -8 62 -4 202 15 39 5 113 10 165 10 86
1 93 2 75 16 -15 11 -37 13 -95 9 l-75 -6 29 24 c30 26 29 41 -4 50 -16 4 -24
-4 -39 -39z"/>
</g>
</svg>
