<?xml version="1.0" standalone="no"?>
<!DOCTYPE svg PUBLIC "-//W3C//DTD SVG 20010904//EN"
 "http://www.w3.org/TR/2001/REC-SVG-20010904/DTD/svg10.dtd">
<svg version="1.0" xmlns="http://www.w3.org/2000/svg"
 width="90.000000pt" height="92.000000pt" viewBox="0 0 90.000000 92.000000"
 preserveAspectRatio="xMidYMid meet">
<metadata>
Created by potrace 1.16, written by Peter Selinger 2001-2019
</metadata>
<g transform="translate(0.000000,92.000000) scale(0.100000,-0.100000)"
fill="#000000" stroke="none">
<path d="M190 842 c0 -19 70 -83 87 -80 28 5 23 50 -7 64 -37 17 -80 26 -80
16z"/>
<path d="M515 819 c-44 -9 -97 -18 -117 -18 -21 -1 -38 -5 -38 -11 0 -17 41
-31 72 -25 l30 7 -7 -43 c-4 -24 -11 -52 -16 -61 -9 -17 -12 -17 -47 2 -67 36
-79 25 -27 -26 l47 -47 -66 -64 c-45 -43 -59 -62 -44 -58 35 11 80 40 111 73
40 41 120 203 107 216 -20 20 -9 26 46 26 l56 0 -7 -52 c-10 -76 -34 -154 -51
-169 -12 -9 -25 -10 -53 -3 l-37 10 35 -48 c20 -26 42 -48 49 -48 34 0 92 106
92 167 0 21 10 16 47 -23 40 -40 68 -42 68 -4 0 19 -10 30 -44 47 -24 12 -49
24 -55 26 -8 3 -5 20 8 57 l18 53 -23 18 c-29 22 -49 22 -154 -2z"/>
<path d="M146 705 c46 -61 84 -69 84 -19 0 19 -8 28 -35 40 -19 7 -44 14 -55
14 -20 0 -20 -2 6 -35z"/>
<path d="M239 614 c-18 -20 -51 -44 -71 -55 -21 -11 -38 -22 -38 -25 0 -18 31
-74 39 -70 11 7 109 150 117 171 10 26 -11 16 -47 -21z"/>
<path d="M407 451 l5 -48 -68 -7 c-38 -4 -113 -9 -166 -13 -107 -6 -130 -23
-60 -44 30 -9 55 -8 118 4 43 9 100 18 127 22 l47 6 0 -150 c0 -155 4 -181 25
-181 21 0 25 25 25 179 l0 148 46 7 c26 3 102 6 170 6 99 0 124 3 124 14 0 7
-16 21 -35 30 -32 16 -43 16 -139 1 -153 -22 -156 -22 -156 20 0 29 -5 37 -26
45 -40 16 -43 13 -37 -39z"/>
<path d="M277 271 c-9 -21 -49 -68 -87 -106 -39 -37 -69 -69 -67 -71 2 -2 31
10 64 26 56 28 163 126 163 149 0 9 -39 41 -50 41 -3 0 -13 -18 -23 -39z"/>
<path d="M602 238 c103 -116 125 -138 143 -138 15 0 17 6 11 43 -9 52 -47 94
-126 136 -93 50 -99 40 -28 -41z"/>
</g>
</svg>
