<?xml version="1.0" standalone="no"?>
<!DOCTYPE svg PUBLIC "-//W3C//DTD SVG 20010904//EN"
 "http://www.w3.org/TR/2001/REC-SVG-20010904/DTD/svg10.dtd">
<svg version="1.0" xmlns="http://www.w3.org/2000/svg"
 width="96.000000pt" height="68.000000pt" viewBox="0 0 96.000000 68.000000"
 preserveAspectRatio="xMidYMid meet">
<metadata>
Created by potrace 1.16, written by Peter Selinger 2001-2019
</metadata>
<g transform="translate(0.000000,68.000000) scale(0.100000,-0.100000)"
fill="#000000" stroke="none">
<path d="M635 550 c-22 -4 -71 -11 -108 -15 -69 -7 -84 -19 -24 -20 l32 0 5
-172 c3 -94 8 -175 13 -179 4 -4 13 -2 19 4 16 16 95 16 101 0 2 -7 8 -10 12
-6 7 7 54 164 55 184 0 19 -48 34 -76 24 -14 -6 -39 -10 -55 -10 -25 0 -29 4
-29 29 0 27 2 29 60 35 33 4 58 11 55 15 -2 5 6 25 20 45 14 20 25 41 25 45 0
7 -60 35 -64 30 -1 -1 -19 -5 -41 -9z m31 -52 c-8 -40 -14 -46 -54 -54 l-32
-6 0 46 0 46 46 0 47 0 -7 -32z m12 -179 c3 -22 -2 -27 -29 -33 -59 -12 -69
-8 -69 23 0 26 4 30 33 34 53 7 62 3 65 -24z m-8 -83 c0 -26 -16 -36 -61 -36
-26 0 -29 4 -29 30 0 29 2 30 45 30 41 0 45 -2 45 -24z"/>
<path d="M447 403 c-4 -3 -7 -17 -7 -29 0 -18 -8 -25 -37 -33 -20 -6 -48 -8
-61 -4 -24 6 -25 5 -19 -33 4 -21 7 -63 7 -92 l0 -52 38 6 c20 3 53 6 72 7
l35 2 3 118 c2 93 0 117 -11 117 -8 0 -17 -3 -20 -7z m-7 -103 c0 -17 -5 -30
-12 -30 -7 0 -23 -3 -35 -6 -20 -6 -23 -3 -23 24 0 24 5 32 23 35 44 9 47 7
47 -23z m0 -74 c0 -24 -16 -36 -51 -36 -13 0 -19 7 -19 24 0 26 11 34 48 35
17 1 22 -5 22 -23z"/>
</g>
</svg>
