<?xml version="1.0" standalone="no"?>
<!DOCTYPE svg PUBLIC "-//W3C//DTD SVG 20010904//EN"
 "http://www.w3.org/TR/2001/REC-SVG-20010904/DTD/svg10.dtd">
<svg version="1.0" xmlns="http://www.w3.org/2000/svg"
 width="90.000000pt" height="92.000000pt" viewBox="0 0 90.000000 92.000000"
 preserveAspectRatio="xMidYMid meet">
<metadata>
Created by potrace 1.16, written by Peter Selinger 2001-2019
</metadata>
<g transform="translate(0.000000,92.000000) scale(0.100000,-0.100000)"
fill="#000000" stroke="none">
<path d="M531 854 c-7 -26 -23 -69 -37 -96 -24 -47 -20 -52 15 -24 8 6 34 11
58 11 37 1 43 -2 43 -21 0 -26 -20 -84 -28 -84 -4 0 -18 9 -32 20 -26 21 -60
27 -60 11 0 -5 8 -12 19 -16 10 -3 26 -14 35 -24 15 -16 15 -19 -2 -34 -10
-10 -36 -26 -58 -37 l-39 -19 33 -1 c18 0 51 9 73 20 l40 21 51 -41 c34 -27
61 -40 81 -40 36 0 107 20 107 31 0 4 -19 10 -42 14 -43 7 -131 38 -156 53
-10 7 -7 21 14 66 24 54 25 58 9 76 -16 18 -14 19 39 25 61 8 71 20 30 35 -19
8 -43 5 -95 -11 -39 -12 -72 -19 -75 -16 -3 3 6 23 20 45 23 37 24 41 8 54
-35 30 -40 28 -51 -18z"/>
<path d="M258 811 l4 -78 -39 -6 c-21 -4 -52 -7 -69 -7 l-30 0 4 -92 c7 -157
42 -173 42 -20 0 88 -1 86 58 96 31 5 32 5 32 -31 0 -29 -3 -34 -12 -25 -20
20 -32 13 -50 -28 -19 -47 -11 -50 31 -14 l31 26 0 -61 c0 -56 11 -84 25 -62
3 6 8 53 12 105 l6 96 33 6 c51 9 64 0 64 -44 0 -22 -3 -54 -6 -71 -6 -26 -11
-31 -36 -31 l-29 0 30 -32 c17 -18 31 -38 31 -45 0 -6 -26 -34 -57 -62 -63
-56 -63 -62 0 -29 23 12 64 23 90 25 l48 3 -20 -29 c-18 -25 -28 -29 -96 -35
-41 -4 -91 -4 -110 0 -40 7 -42 3 -16 -34 11 -15 22 -49 26 -77 8 -57 22 -88
36 -80 17 11 253 25 262 16 19 -19 40 5 78 87 37 79 38 85 22 98 -29 23 -57
26 -118 15 -32 -6 -60 -9 -63 -7 -2 3 15 17 37 32 23 14 41 33 41 40 0 22 -42
26 -82 9 -46 -19 -59 -19 -34 0 21 16 15 45 -9 45 -18 0 -18 5 -5 30 5 10 14
56 19 102 12 104 5 113 -83 103 l-59 -6 7 65 c6 58 4 66 -13 76 -34 17 -36 12
-33 -69z m326 -459 c8 -14 -5 -52 -16 -46 -6 4 -32 6 -58 5 -39 0 -49 3 -53
19 -4 14 1 20 22 23 49 8 100 7 105 -1z m-180 -28 c9 -23 6 -24 -58 -31 -52
-5 -56 -4 -56 15 0 25 12 30 66 31 30 1 44 -4 48 -15z m166 -53 c0 -32 -14
-41 -66 -41 -47 0 -54 3 -54 19 0 11 8 22 18 24 32 9 102 7 102 -2z m-160 -26
c0 -22 -4 -25 -39 -25 -22 0 -46 -3 -55 -6 -12 -5 -16 0 -16 19 0 24 4 26 48
30 26 2 50 4 55 5 4 1 7 -9 7 -23z"/>
<path d="M380 851 c0 -4 -11 -24 -24 -44 l-25 -36 52 20 c65 26 64 25 42 49
-18 20 -45 27 -45 11z"/>
<path d="M150 812 c0 -12 44 -52 57 -52 19 0 23 29 7 45 -16 16 -64 21 -64 7z"/>
<path d="M310 652 c0 -10 43 -52 53 -52 12 0 8 35 -5 48 -14 14 -48 16 -48 4z"/>
<path d="M640 169 c0 -17 80 -119 94 -119 17 0 25 30 15 56 -10 30 -109 87
-109 63z"/>
<path d="M167 120 c-27 -36 -36 -57 -32 -71 19 -60 97 31 79 92 l-9 30 -38
-51z"/>
<path d="M470 148 c1 -22 55 -93 70 -93 10 0 16 12 18 32 3 28 -2 36 -30 53
-38 23 -58 26 -58 8z"/>
<path d="M327 98 c32 -61 56 -69 61 -21 3 28 -2 36 -30 53 -55 33 -62 26 -31
-32z"/>
</g>
</svg>
