<?xml version="1.0" standalone="no"?>
<!DOCTYPE svg PUBLIC "-//W3C//DTD SVG 20010904//EN"
 "http://www.w3.org/TR/2001/REC-SVG-20010904/DTD/svg10.dtd">
<svg version="1.0" xmlns="http://www.w3.org/2000/svg"
 width="96.000000pt" height="68.000000pt" viewBox="0 0 96.000000 68.000000"
 preserveAspectRatio="xMidYMid meet">
<metadata>
Created by potrace 1.16, written by Peter Selinger 2001-2019
</metadata>
<g transform="translate(0.000000,68.000000) scale(0.100000,-0.100000)"
fill="#000000" stroke="none">
<path d="M603 484 c0 -14 -7 -33 -16 -41 -13 -13 -17 -13 -41 2 -14 9 -31 15
-38 13 -7 -3 1 -12 20 -22 28 -14 31 -20 21 -32 -7 -9 -26 -21 -43 -29 -43
-18 -4 -19 47 0 37 13 41 12 85 -17 41 -26 53 -29 96 -24 62 7 86 26 33 26
-29 0 -140 32 -155 45 -2 2 9 21 23 44 29 43 27 61 -9 61 -19 0 -23 -5 -23
-26z"/>
</g>
</svg>
