<?xml version="1.0" standalone="no"?>
<!DOCTYPE svg PUBLIC "-//W3C//DTD SVG 20010904//EN"
 "http://www.w3.org/TR/2001/REC-SVG-20010904/DTD/svg10.dtd">
<svg version="1.0" xmlns="http://www.w3.org/2000/svg"
 width="96.000000pt" height="68.000000pt" viewBox="0 0 96.000000 68.000000"
 preserveAspectRatio="xMidYMid meet">
<metadata>
Created by potrace 1.16, written by Peter Selinger 2001-2019
</metadata>
<g transform="translate(0.000000,68.000000) scale(0.100000,-0.100000)"
fill="#000000" stroke="none">
<path d="M213 443 c-94 -15 -116 -33 -42 -33 41 0 41 0 34 -32 -8 -34 -39 -93
-87 -165 -16 -24 -25 -43 -21 -43 17 0 91 86 133 153 33 53 40 70 31 81 -10
12 -4 15 31 21 70 11 83 16 67 26 -17 11 -31 10 -146 -8z"/>
</g>
</svg>
