<?xml version="1.0" standalone="no"?>
<!DOCTYPE svg PUBLIC "-//W3C//DTD SVG 20010904//EN"
 "http://www.w3.org/TR/2001/REC-SVG-20010904/DTD/svg10.dtd">
<svg version="1.0" xmlns="http://www.w3.org/2000/svg"
 width="96.000000pt" height="68.000000pt" viewBox="0 0 96.000000 68.000000"
 preserveAspectRatio="xMidYMid meet">
<metadata>
Created by potrace 1.16, written by Peter Selinger 2001-2019
</metadata>
<g transform="translate(0.000000,68.000000) scale(0.100000,-0.100000)"
fill="#000000" stroke="none">
<path d="M610 450 c0 -109 0 -110 -25 -116 -14 -4 -28 -4 -31 -2 -2 3 -5 46
-6 97 -2 79 -5 94 -21 103 -32 17 -47 3 -37 -34 5 -18 10 -64 12 -103 3 -70 3
-70 -24 -73 -37 -4 -36 -22 1 -22 23 0 30 -5 35 -26 4 -15 4 -29 1 -33 -4 -3
-43 -11 -88 -17 -76 -10 -80 -11 -54 -22 20 -8 47 -9 95 -2 37 5 140 12 230
16 89 4 162 10 162 14 0 15 -32 20 -121 20 l-89 0 0 34 c0 31 3 35 38 43 l37
10 -33 7 -34 8 7 89 c7 95 0 119 -36 119 -17 0 -19 -9 -19 -110z m0 -176 c0
-33 -2 -35 -27 -32 -23 2 -29 8 -31 36 -3 30 -1 32 27 32 29 0 31 -3 31 -36z"/>
</g>
</svg>
