<?xml version="1.0" standalone="no"?>
<!DOCTYPE svg PUBLIC "-//W3C//DTD SVG 20010904//EN"
 "http://www.w3.org/TR/2001/REC-SVG-20010904/DTD/svg10.dtd">
<svg version="1.0" xmlns="http://www.w3.org/2000/svg"
 width="96.000000pt" height="68.000000pt" viewBox="0 0 96.000000 68.000000"
 preserveAspectRatio="xMidYMid meet">
<metadata>
Created by potrace 1.16, written by Peter Selinger 2001-2019
</metadata>
<g transform="translate(0.000000,68.000000) scale(0.100000,-0.100000)"
fill="#000000" stroke="none">
<path d="M488 528 c4 -114 4 -113 44 -138 55 -33 217 -21 242 18 3 5 -5 24
-16 43 l-21 34 -12 -28 c-17 -40 -31 -47 -106 -47 -78 0 -102 13 -96 55 3 27
8 31 48 36 24 4 63 12 87 18 36 10 41 15 32 27 -17 19 -27 18 -84 -11 -72 -36
-80 -34 -73 20 6 37 3 46 -13 55 -10 5 -23 10 -27 10 -5 0 -7 -42 -5 -92z"/>
<path d="M309 601 c0 -3 0 -51 1 -106 l1 -101 -25 -2 c-25 -2 -26 0 -26 58 0
33 -4 60 -9 60 -5 0 -16 3 -24 6 -12 4 -14 -6 -9 -65 l5 -71 -30 0 c-39 0 -47
-10 -22 -28 18 -12 30 -11 104 9 46 13 82 26 80 29 -2 3 13 6 32 7 20 1 41 7
47 13 8 9 1 11 -31 6 l-43 -5 0 33 c0 33 1 34 55 41 40 5 55 11 55 22 0 13 -9
15 -55 9 l-55 -6 0 44 c0 39 -3 44 -25 48 -14 3 -25 2 -26 -1z"/>
<path d="M420 372 c0 -13 36 -52 48 -52 21 0 24 21 6 41 -17 19 -54 26 -54 11z"/>
<path d="M669 325 c-5 -4 -144 -15 -411 -32 -54 -3 -98 -10 -98 -14 0 -18 58
-22 150 -11 52 7 142 12 200 12 128 0 270 10 270 20 0 19 -96 40 -111 25z"/>
<path d="M417 239 c-38 -4 -72 -11 -75 -15 -11 -11 231 5 242 16 12 12 -64 11
-167 -1z"/>
<path d="M470 189 c-25 -4 -64 -8 -87 -8 -25 -1 -43 -6 -43 -12 0 -8 29 -10
103 -5 123 9 155 15 135 27 -15 10 -45 10 -108 -2z"/>
<path d="M417 126 c-72 -7 -105 -14 -98 -21 5 -5 16 -28 23 -50 l13 -40 80 3
c126 4 165 12 165 31 0 9 7 27 17 40 15 23 15 25 -2 37 -21 16 -46 16 -198 0z
m143 -39 c0 -30 -12 -35 -102 -44 -75 -7 -88 0 -88 43 0 20 5 22 95 23 95 2
95 2 95 -22z"/>
</g>
</svg>
