<?xml version="1.0" standalone="no"?>
<!DOCTYPE svg PUBLIC "-//W3C//DTD SVG 20010904//EN"
 "http://www.w3.org/TR/2001/REC-SVG-20010904/DTD/svg10.dtd">
<svg version="1.0" xmlns="http://www.w3.org/2000/svg"
 width="96.000000pt" height="68.000000pt" viewBox="0 0 96.000000 68.000000"
 preserveAspectRatio="xMidYMid meet">
<metadata>
Created by potrace 1.16, written by Peter Selinger 2001-2019
</metadata>
<g transform="translate(0.000000,68.000000) scale(0.100000,-0.100000)"
fill="#000000" stroke="none">
<path d="M311 548 c4 -29 8 -74 8 -100 1 -36 5 -48 16 -48 11 0 15 11 15 39
l0 39 55 7 c72 9 86 30 18 28 -7 0 -24 -4 -38 -7 -24 -6 -25 -4 -25 38 0 31
-5 46 -16 50 -36 14 -41 8 -33 -46z"/>
</g>
</svg>
