<?xml version="1.0" standalone="no"?>
<!DOCTYPE svg PUBLIC "-//W3C//DTD SVG 20010904//EN"
 "http://www.w3.org/TR/2001/REC-SVG-20010904/DTD/svg10.dtd">
<svg version="1.0" xmlns="http://www.w3.org/2000/svg"
 width="96.000000pt" height="68.000000pt" viewBox="0 0 96.000000 68.000000"
 preserveAspectRatio="xMidYMid meet">
<metadata>
Created by potrace 1.16, written by Peter Selinger 2001-2019
</metadata>
<g transform="translate(0.000000,68.000000) scale(0.100000,-0.100000)"
fill="#000000" stroke="none">
<path d="M288 584 c-3 -3 -2 -22 3 -42 5 -20 9 -56 9 -78 l0 -42 -47 -6 c-93
-13 -113 -18 -107 -27 3 -5 39 -9 80 -9 l75 0 -3 -41 -3 -41 -92 -42 c-51 -22
-93 -45 -93 -50 -1 -5 10 -16 24 -25 29 -18 28 -18 115 43 23 16 44 26 47 23
4 -3 3 -37 -2 -74 l-9 -68 -38 2 c-20 1 -37 1 -37 0 0 -8 80 -87 88 -87 6 0
20 12 31 26 18 23 21 41 21 138 l0 111 35 24 c19 13 35 27 35 32 0 12 -7 11
-40 -6 l-30 -16 0 31 c0 26 5 31 30 37 17 3 33 10 36 14 6 11 -44 31 -57 23
-13 -8 -11 24 5 78 l15 46 -34 16 c-35 17 -48 19 -57 10z"/>
<path d="M550 572 c0 -4 11 -19 25 -34 27 -29 33 -50 13 -47 -7 2 -52 -1 -101
-5 -101 -9 -111 -30 -12 -24 35 1 66 0 70 -4 4 -3 -14 -26 -39 -49 -25 -24
-46 -48 -46 -53 0 -5 27 -6 63 -2 l62 7 -45 -29 c-25 -16 -55 -32 -68 -36 -26
-9 -28 -19 -7 -36 13 -11 36 -9 132 14 l116 26 22 -20 c24 -23 41 -26 48 -7 7
19 -11 45 -43 62 -39 20 -53 19 -45 -4 5 -17 0 -20 -42 -26 -26 -3 -63 -8 -80
-11 -54 -8 -38 10 52 61 84 47 94 59 63 78 -12 8 -22 3 -44 -21 -23 -25 -38
-32 -74 -33 -25 -2 -47 1 -49 6 -3 9 27 32 67 51 9 5 10 10 1 20 -15 19 -5 21
124 29 59 4 107 11 107 15 0 16 -40 21 -110 14 -67 -6 -70 -6 -70 15 0 16 -10
26 -35 37 -38 16 -55 18 -55 6z"/>
<path d="M605 224 c-55 -7 -116 -13 -135 -12 -26 2 -34 -2 -31 -12 2 -8 11
-48 20 -88 15 -69 17 -72 41 -68 14 3 64 8 112 11 86 6 88 6 99 -18 7 -16 17
-23 28 -20 24 6 51 55 51 90 0 15 5 44 10 63 9 31 8 37 -11 53 -24 20 -46 20
-184 1z m133 -44 c3 -24 1 -25 -53 -24 -64 2 -69 5 -60 34 6 18 13 21 58 18
47 -3 52 -5 55 -28z m-158 -8 c0 -26 -3 -28 -44 -31 -39 -2 -44 1 -48 23 -4
21 -1 26 21 29 65 10 71 8 71 -21z m158 -59 c-3 -27 -6 -28 -61 -31 -56 -3
-58 -2 -55 20 3 23 12 26 106 36 9 1 12 -7 10 -25z m-158 -18 c0 -22 -4 -25
-40 -25 -36 0 -40 3 -40 25 0 23 4 25 40 25 36 0 40 -2 40 -25z"/>
</g>
</svg>
