<?xml version="1.0" standalone="no"?>
<!DOCTYPE svg PUBLIC "-//W3C//DTD SVG 20010904//EN"
 "http://www.w3.org/TR/2001/REC-SVG-20010904/DTD/svg10.dtd">
<svg version="1.0" xmlns="http://www.w3.org/2000/svg"
 width="96.000000pt" height="68.000000pt" viewBox="0 0 96.000000 68.000000"
 preserveAspectRatio="xMidYMid meet">
<metadata>
Created by potrace 1.16, written by Peter Selinger 2001-2019
</metadata>
<g transform="translate(0.000000,68.000000) scale(0.100000,-0.100000)"
fill="#000000" stroke="none">
<path d="M433 240 c-2 -22 4 -24 26 -11 15 10 7 31 -12 31 -7 0 -13 -9 -14
-20z"/>
<path d="M444 195 c-8 -32 1 -55 22 -55 12 0 14 3 6 13 -6 7 -9 25 -8 40 4 34
-11 36 -20 2z"/>
<path d="M625 151 c-6 -5 -23 -11 -40 -14 -19 -2 -11 -5 22 -6 51 -1 77 11 47
23 -20 8 -18 8 -29 -3z"/>
</g>
</svg>
