<?xml version="1.0" standalone="no"?>
<!DOCTYPE svg PUBLIC "-//W3C//DTD SVG 20010904//EN"
 "http://www.w3.org/TR/2001/REC-SVG-20010904/DTD/svg10.dtd">
<svg version="1.0" xmlns="http://www.w3.org/2000/svg"
 width="96.000000pt" height="68.000000pt" viewBox="0 0 96.000000 68.000000"
 preserveAspectRatio="xMidYMid meet">
<metadata>
Created by potrace 1.16, written by Peter Selinger 2001-2019
</metadata>
<g transform="translate(0.000000,68.000000) scale(0.100000,-0.100000)"
fill="#000000" stroke="none">
<path d="M615 563 c-33 -8 -90 -15 -126 -16 -56 -2 -65 -4 -57 -17 5 -8 16
-40 26 -70 14 -44 21 -55 37 -53 11 1 60 3 108 4 l88 1 32 62 c17 33 33 64 35
68 4 8 -25 23 -58 31 -14 2 -52 -2 -85 -10z m65 -37 c0 -23 -4 -24 -89 -31
-93 -7 -111 -4 -111 21 0 10 12 14 43 15 23 0 60 4 82 8 68 14 75 13 75 -13z
m-12 -63 c-4 -22 -56 -35 -121 -31 -38 2 -52 7 -52 18 0 11 15 17 55 21 108
11 122 10 118 -8z"/>
</g>
</svg>
