<?xml version="1.0" standalone="no"?>
<!DOCTYPE svg PUBLIC "-//W3C//DTD SVG 20010904//EN"
 "http://www.w3.org/TR/2001/REC-SVG-20010904/DTD/svg10.dtd">
<svg version="1.0" xmlns="http://www.w3.org/2000/svg"
 width="90.000000pt" height="92.000000pt" viewBox="0 0 90.000000 92.000000"
 preserveAspectRatio="xMidYMid meet">
<metadata>
Created by potrace 1.16, written by Peter Selinger 2001-2019
</metadata>
<g transform="translate(0.000000,92.000000) scale(0.100000,-0.100000)"
fill="#000000" stroke="none">
<path d="M480 878 c-1 -29 -34 -103 -66 -145 -13 -17 -24 -34 -24 -38 0 -12
39 15 71 50 18 19 40 35 49 35 32 0 200 35 200 43 0 4 -11 12 -24 18 -20 9
-39 6 -100 -14 -42 -14 -76 -24 -76 -21 0 3 7 16 16 30 16 23 15 26 -1 44 -24
27 -45 25 -45 -2z"/>
<path d="M220 865 c0 -3 14 -24 30 -47 36 -50 38 -49 -83 -69 -43 -7 -77 -17
-77 -21 0 -21 49 -31 96 -19 25 7 49 10 51 7 20 -19 -75 -169 -138 -219 -30
-24 -32 -27 -12 -27 32 0 102 58 146 120 40 57 64 66 95 35 12 -11 11 -20 -6
-59 -20 -44 -22 -45 -53 -39 l-32 6 19 -33 c10 -18 25 -35 32 -37 20 -8 48 24
71 80 12 29 26 59 31 68 12 23 -15 45 -65 53 -37 6 -40 9 -40 39 0 31 1 32 58
41 31 5 57 13 57 17 0 15 -40 29 -65 23 -23 -6 -25 -3 -25 25 0 24 -7 34 -30
46 -28 15 -60 20 -60 10z"/>
<path d="M549 744 c-23 -44 -67 -76 -89 -64 -24 13 -30 2 -21 -40 3 -19 4 -63
0 -100 -5 -41 -3 -70 3 -78 18 -21 2 -26 -81 -26 l-78 0 13 -25 c9 -16 14 -61
14 -118 0 -98 -20 -173 -57 -216 -18 -21 -18 -21 17 0 19 12 44 39 55 60 19
34 23 37 46 29 21 -7 37 -1 97 38 40 25 75 46 78 46 8 0 -2 -119 -10 -128 -4
-3 -26 -5 -49 -4 l-42 3 47 -47 c53 -54 71 -53 95 3 12 30 14 61 10 143 -3 58
-1 130 5 160 9 51 8 56 -13 73 -23 19 -43 19 -109 1 -20 -5 -14 5 35 55 62 64
65 75 9 40 -19 -11 -37 -18 -41 -16 -5 3 -6 32 -5 66 l4 60 69 28 c38 15 69
33 69 39 0 13 -33 44 -47 44 -5 0 -16 -12 -24 -26z m-11 -326 c7 -7 12 -40 12
-78 l0 -67 -77 -26 c-117 -41 -120 -40 -115 36 2 34 4 66 5 70 1 4 25 -8 52
-28 54 -38 82 -44 92 -19 9 24 -16 41 -81 58 -93 24 -91 32 16 51 40 7 75 14
79 14 3 1 10 -4 17 -11z"/>
<path d="M650 670 c-6 -15 -20 -36 -29 -44 -16 -15 -19 -14 -36 4 -19 21 -55
27 -55 10 0 -5 4 -10 9 -10 5 0 44 -36 88 -80 88 -88 108 -96 181 -64 l37 17
-50 14 c-68 19 -142 53 -160 74 -15 15 -12 18 34 35 43 15 48 20 40 36 -5 9
-18 22 -28 28 -16 8 -21 5 -31 -20z"/>
</g>
</svg>
