<?xml version="1.0" standalone="no"?>
<!DOCTYPE svg PUBLIC "-//W3C//DTD SVG 20010904//EN"
 "http://www.w3.org/TR/2001/REC-SVG-20010904/DTD/svg10.dtd">
<svg version="1.0" xmlns="http://www.w3.org/2000/svg"
 width="90.000000pt" height="92.000000pt" viewBox="0 0 90.000000 92.000000"
 preserveAspectRatio="xMidYMid meet">
<metadata>
Created by potrace 1.16, written by Peter Selinger 2001-2019
</metadata>
<g transform="translate(0.000000,92.000000) scale(0.100000,-0.100000)"
fill="#000000" stroke="none">
<path d="M460 821 c0 -92 18 -124 78 -141 79 -21 247 -6 258 25 3 6 -4 28 -14
49 -18 37 -19 38 -25 14 -10 -39 -50 -53 -143 -52 -86 1 -114 12 -114 44 0 14
14 18 88 23 105 8 132 15 132 33 0 24 -43 26 -130 5 -47 -11 -87 -18 -89 -15
-3 2 1 20 8 39 15 41 9 55 -25 55 -23 0 -24 -2 -24 -79z"/>
<path d="M315 846 c8 -40 6 -41 -103 -51 -63 -6 -71 -9 -60 -22 10 -12 28 -14
95 -8 l83 7 0 -26 c0 -30 -37 -44 -147 -53 -40 -3 -73 -9 -73 -13 0 -3 11 -17
25 -30 27 -25 22 -26 149 22 l88 34 0 76 c0 88 -4 98 -38 98 -23 0 -24 -3 -19
-34z"/>
<path d="M495 644 c-44 -7 -124 -16 -177 -20 -54 -4 -98 -10 -98 -14 0 -3 6
-12 13 -18 6 -7 19 -45 27 -85 l15 -72 35 2 c19 1 89 3 156 5 l121 3 44 85
c24 46 45 87 47 90 4 10 -56 40 -80 39 -12 -1 -59 -8 -103 -15z m93 -50 c-3
-24 -6 -25 -70 -28 -64 -2 -68 -1 -68 20 0 24 15 29 103 32 36 2 38 0 35 -24z
m-186 -18 c4 -22 1 -24 -50 -30 -30 -4 -56 -5 -57 -4 -1 2 -6 13 -9 25 -6 18
-2 22 21 26 73 11 90 8 95 -17z m168 -62 c-10 -27 -15 -29 -65 -31 -52 -2 -55
-1 -55 22 0 21 6 25 48 30 26 3 54 7 62 9 21 3 21 3 10 -30z m-170 -19 c0 -23
-3 -25 -50 -25 -47 0 -50 2 -50 25 0 23 3 25 50 25 47 0 50 -2 50 -25z"/>
<path d="M515 401 l6 -38 -53 -6 c-29 -4 -66 -7 -82 -7 -25 0 -27 3 -22 24 5
20 1 26 -24 34 -36 13 -42 5 -30 -37 l9 -31 -54 0 c-53 0 -77 -12 -53 -26 7
-4 34 -7 60 -7 50 1 50 1 52 -54 1 -16 -15 -19 -124 -28 l-125 -10 29 -19 c27
-19 34 -19 135 -7 58 7 215 15 349 18 133 3 242 9 242 13 0 4 -9 15 -21 26
-23 21 -63 23 -181 11 -78 -9 -78 -9 -78 15 0 38 21 55 73 61 26 2 51 8 54 11
14 14 -21 31 -61 29 -39 -1 -43 1 -39 18 6 22 -21 48 -50 49 -16 0 -18 -5 -12
-39z m-5 -115 c0 -30 -4 -34 -31 -40 -17 -3 -49 -6 -70 -6 -32 0 -39 4 -39 19
0 11 -3 26 -6 35 -4 12 4 16 43 19 111 8 103 10 103 -27z"/>
<path d="M298 147 c-14 -18 -53 -48 -86 -67 -34 -19 -62 -38 -62 -42 0 -11 86
17 167 54 79 36 88 53 37 74 -28 12 -32 11 -56 -19z"/>
<path d="M566 108 c85 -81 94 -86 111 -62 17 23 17 27 -7 57 -20 26 -113 67
-151 67 -15 0 -3 -16 47 -62z"/>
</g>
</svg>
