<?xml version="1.0" standalone="no"?>
<!DOCTYPE svg PUBLIC "-//W3C//DTD SVG 20010904//EN"
 "http://www.w3.org/TR/2001/REC-SVG-20010904/DTD/svg10.dtd">
<svg version="1.0" xmlns="http://www.w3.org/2000/svg"
 width="96.000000pt" height="68.000000pt" viewBox="0 0 96.000000 68.000000"
 preserveAspectRatio="xMidYMid meet">
<metadata>
Created by potrace 1.16, written by Peter Selinger 2001-2019
</metadata>
<g transform="translate(0.000000,68.000000) scale(0.100000,-0.100000)"
fill="#000000" stroke="none">
<path d="M528 531 l4 -50 -62 -7 c-48 -5 -58 -9 -45 -17 10 -5 35 -7 56 -4 28
4 39 1 39 -8 0 -23 -30 -45 -63 -45 -24 0 -28 -3 -17 -10 8 -5 25 -10 38 -10
12 0 22 -4 22 -10 0 -5 9 -10 20 -10 11 0 20 6 20 14 0 10 19 16 60 21 98 11
89 30 -12 25 -38 -2 -44 4 -30 27 5 8 101 33 129 33 2 0 1 5 -3 11 -4 8 -25 9
-60 5 l-53 -6 2 42 c2 39 0 43 -23 46 -24 3 -25 1 -22 -47z"/>
</g>
</svg>
