<?xml version="1.0" standalone="no"?>
<!DOCTYPE svg PUBLIC "-//W3C//DTD SVG 20010904//EN"
 "http://www.w3.org/TR/2001/REC-SVG-20010904/DTD/svg10.dtd">
<svg version="1.0" xmlns="http://www.w3.org/2000/svg"
 width="96.000000pt" height="68.000000pt" viewBox="0 0 96.000000 68.000000"
 preserveAspectRatio="xMidYMid meet">
<metadata>
Created by potrace 1.16, written by Peter Selinger 2001-2019
</metadata>
<g transform="translate(0.000000,68.000000) scale(0.100000,-0.100000)"
fill="#000000" stroke="none">
<path d="M244 565 c3 -13 9 -51 12 -83 l7 -59 -33 -6 c-18 -4 -48 -7 -66 -7
-19 0 -34 -4 -34 -10 0 -6 27 -10 60 -10 l60 0 -19 -39 c-11 -21 -46 -66 -78
-100 -32 -34 -54 -61 -48 -61 19 0 70 39 110 85 l41 46 -10 -98 c-13 -139 -12
-169 4 -188 13 -16 15 -16 27 1 9 13 13 57 13 151 0 73 2 133 5 133 2 0 16
-11 30 -26 14 -14 30 -22 35 -19 21 13 8 35 -31 55 -31 16 -40 26 -37 43 2 18
13 24 51 31 71 14 60 33 -16 27 l-28 -2 6 68 c7 68 7 69 -19 81 -40 18 -49 15
-42 -13z"/>
</g>
</svg>
