<?xml version="1.0" standalone="no"?>
<!DOCTYPE svg PUBLIC "-//W3C//DTD SVG 20010904//EN"
 "http://www.w3.org/TR/2001/REC-SVG-20010904/DTD/svg10.dtd">
<svg version="1.0" xmlns="http://www.w3.org/2000/svg"
 width="96.000000pt" height="68.000000pt" viewBox="0 0 96.000000 68.000000"
 preserveAspectRatio="xMidYMid meet">
<metadata>
Created by potrace 1.16, written by Peter Selinger 2001-2019
</metadata>
<g transform="translate(0.000000,68.000000) scale(0.100000,-0.100000)"
fill="#000000" stroke="none">
<path d="M235 163 l0 -68 -29 2 -30 2 32 -32 c32 -31 32 -31 51 -12 15 15 20
37 23 95 3 74 3 75 -22 78 -25 3 -25 2 -25 -65z"/>
<path d="M320 192 c0 -12 44 -52 58 -52 16 0 15 25 0 38 -19 15 -58 25 -58 14z"/>
<path d="M124 148 c-9 -18 -23 -41 -32 -50 -26 -30 2 -20 52 18 49 37 55 57
18 62 -15 2 -25 -6 -38 -30z"/>
</g>
</svg>
