<?xml version="1.0" standalone="no"?>
<!DOCTYPE svg PUBLIC "-//W3C//DTD SVG 20010904//EN"
 "http://www.w3.org/TR/2001/REC-SVG-20010904/DTD/svg10.dtd">
<svg version="1.0" xmlns="http://www.w3.org/2000/svg"
 width="96.000000pt" height="68.000000pt" viewBox="0 0 96.000000 68.000000"
 preserveAspectRatio="xMidYMid meet">
<metadata>
Created by potrace 1.16, written by Peter Selinger 2001-2019
</metadata>
<g transform="translate(0.000000,68.000000) scale(0.100000,-0.100000)"
fill="#000000" stroke="none">
<path d="M458 635 c-3 -4 -2 -21 3 -38 5 -18 9 -45 9 -60 0 -22 4 -28 18 -25
9 2 18 13 20 24 3 18 13 22 70 30 37 5 66 14 64 19 -3 12 -41 12 -94 2 -36 -8
-38 -7 -38 18 0 14 -4 25 -9 25 -5 0 -16 2 -23 5 -8 3 -17 3 -20 0z"/>
</g>
</svg>
