<?xml version="1.0" standalone="no"?>
<!DOCTYPE svg PUBLIC "-//W3C//DTD SVG 20010904//EN"
 "http://www.w3.org/TR/2001/REC-SVG-20010904/DTD/svg10.dtd">
<svg version="1.0" xmlns="http://www.w3.org/2000/svg"
 width="90.000000pt" height="92.000000pt" viewBox="0 0 90.000000 92.000000"
 preserveAspectRatio="xMidYMid meet">
<metadata>
Created by potrace 1.16, written by Peter Selinger 2001-2019
</metadata>
<g transform="translate(0.000000,92.000000) scale(0.100000,-0.100000)"
fill="#000000" stroke="none">
<path d="M381 860 c-15 -44 -106 -128 -167 -155 -44 -19 -54 -28 -54 -48 0
-37 20 -49 61 -36 19 5 113 25 209 44 l174 35 31 -30 c37 -35 51 -38 58 -9 11
41 -10 69 -75 99 -91 43 -110 40 -61 -12 24 -25 25 -28 7 -28 -10 0 -82 -7
-158 -15 -77 -8 -142 -13 -144 -11 -2 2 40 32 92 66 53 34 96 68 96 76 0 16
-35 54 -49 54 -5 0 -14 -14 -20 -30z"/>
<path d="M425 599 c-77 -10 -152 -16 -168 -13 -31 6 -33 2 -13 -29 8 -12 20
-49 26 -82 14 -67 28 -94 41 -74 9 16 15 16 171 25 123 7 127 8 122 28 -3 13
7 39 27 71 l31 49 -26 23 c-31 26 -26 26 -211 2z m148 -39 c-1 -8 -4 -31 -7
-51 l-6 -36 -116 -13 c-66 -7 -119 -9 -123 -4 -5 5 -11 28 -15 51 l-6 41 39 7
c153 26 237 27 234 5z"/>
<path d="M380 401 c0 -6 5 -13 10 -16 6 -3 10 -30 10 -59 0 -106 -69 -188
-217 -258 -35 -17 -63 -31 -63 -33 0 -6 80 15 137 36 43 17 74 38 120 85 l62
63 83 -80 c106 -104 129 -114 219 -99 38 7 71 16 74 20 3 5 -14 14 -37 20 -80
22 -173 63 -243 108 l-70 45 65 30 c36 17 85 38 110 47 53 21 64 49 28 74 -34
24 -51 20 -75 -19 -23 -34 -116 -115 -134 -115 -6 0 -8 15 -5 33 3 17 8 48 11
68 5 31 2 37 -20 47 -31 14 -65 16 -65 3z"/>
<path d="M195 313 c56 -89 88 -113 101 -78 17 43 -39 105 -95 105 -23 0 -23 0
-6 -27z"/>
</g>
</svg>
