<?xml version="1.0" standalone="no"?>
<!DOCTYPE svg PUBLIC "-//W3C//DTD SVG 20010904//EN"
 "http://www.w3.org/TR/2001/REC-SVG-20010904/DTD/svg10.dtd">
<svg version="1.0" xmlns="http://www.w3.org/2000/svg"
 width="96.000000pt" height="68.000000pt" viewBox="0 0 96.000000 68.000000"
 preserveAspectRatio="xMidYMid meet">
<metadata>
Created by potrace 1.16, written by Peter Selinger 2001-2019
</metadata>
<g transform="translate(0.000000,68.000000) scale(0.100000,-0.100000)"
fill="#000000" stroke="none">
<path d="M475 509 c-44 -9 -114 -21 -155 -26 -71 -8 -74 -10 -49 -22 22 -11
43 -11 128 3 131 21 125 21 117 -14 -5 -30 -60 -148 -75 -163 -4 -4 -41 20
-81 53 -57 46 -82 60 -107 60 -45 0 -41 -14 10 -34 24 -9 65 -39 92 -67 l50
-50 -30 -25 c-38 -32 -145 -86 -213 -108 -28 -10 -52 -20 -52 -23 0 -11 96 6
151 26 30 12 81 37 113 56 32 19 63 35 68 35 5 0 38 -25 71 -56 92 -83 126
-98 214 -91 69 5 115 19 97 29 -5 3 -59 22 -121 42 -101 34 -223 98 -223 119
0 9 76 138 117 199 20 30 23 41 14 52 -18 22 -50 23 -136 5z"/>
</g>
</svg>
