<?xml version="1.0" standalone="no"?>
<!DOCTYPE svg PUBLIC "-//W3C//DTD SVG 20010904//EN"
 "http://www.w3.org/TR/2001/REC-SVG-20010904/DTD/svg10.dtd">
<svg version="1.0" xmlns="http://www.w3.org/2000/svg"
 width="96.000000pt" height="68.000000pt" viewBox="0 0 96.000000 68.000000"
 preserveAspectRatio="xMidYMid meet">
<metadata>
Created by potrace 1.16, written by Peter Selinger 2001-2019
</metadata>
<g transform="translate(0.000000,68.000000) scale(0.100000,-0.100000)"
fill="#000000" stroke="none">
<path d="M485 201 c-6 -19 -80 -92 -125 -123 l-25 -18 27 10 c32 11 97 51 153
94 22 17 42 32 45 34 9 6 -25 22 -47 22 -13 0 -24 -8 -28 -19z"/>
<path d="M695 140 c38 -38 75 -70 82 -70 20 0 15 44 -7 68 -22 24 -111 72
-132 72 -7 0 19 -31 57 -70z"/>
</g>
</svg>
