<?xml version="1.0" standalone="no"?>
<!DOCTYPE svg PUBLIC "-//W3C//DTD SVG 20010904//EN"
 "http://www.w3.org/TR/2001/REC-SVG-20010904/DTD/svg10.dtd">
<svg version="1.0" xmlns="http://www.w3.org/2000/svg"
 width="96.000000pt" height="68.000000pt" viewBox="0 0 96.000000 68.000000"
 preserveAspectRatio="xMidYMid meet">
<metadata>
Created by potrace 1.16, written by Peter Selinger 2001-2019
</metadata>
<g transform="translate(0.000000,68.000000) scale(0.100000,-0.100000)"
fill="#000000" stroke="none">
<path d="M251 519 c-19 -38 -39 -69 -45 -68 -26 3 -80 -3 -69 -8 7 -2 17 -22
23 -44 5 -21 15 -57 20 -79 8 -30 16 -40 30 -40 49 0 3 -110 -74 -178 -21 -18
-36 -36 -33 -38 8 -9 60 22 94 56 39 38 95 138 82 146 -16 9 -10 24 10 24 25
0 34 -38 26 -114 -6 -53 -4 -65 14 -87 40 -51 74 -59 251 -59 162 0 240 11
261 36 8 10 7 25 -7 61 -24 65 -33 73 -40 35 -11 -53 -46 -79 -127 -92 -86
-15 -246 -6 -288 16 -25 13 -29 20 -29 58 0 24 7 62 14 85 14 37 13 41 -2 50
-14 9 -11 10 15 11 29 0 33 4 53 63 34 100 35 104 9 117 -20 11 -64 10 -126
-5 -55 -12 -63 -14 -63 -9 0 3 23 27 52 53 57 52 61 82 11 80 -24 0 -32 -9
-62 -70z m149 -89 c0 -26 -4 -30 -30 -31 -16 -1 -36 -2 -42 -3 -7 -1 -13 6
-13 14 0 8 -4 20 -8 27 -5 8 4 13 30 16 21 2 44 4 51 5 7 1 12 -10 12 -28z
m-129 -2 c4 -5 4 -19 2 -29 -4 -15 -15 -19 -44 -19 -38 0 -39 1 -39 34 0 32 1
33 37 29 21 -2 40 -9 44 -15z m125 -64 c-3 -9 -6 -22 -6 -29 0 -8 -16 -14 -40
-17 -38 -3 -40 -2 -40 24 0 28 12 35 64 37 22 1 27 -3 22 -15z m-121 -34 c0
-21 -5 -26 -32 -28 -24 -2 -33 1 -33 12 0 8 -3 22 -6 31 -6 14 0 16 32 13 34
-3 39 -6 39 -28z"/>
<path d="M625 561 c-3 -5 -1 -12 5 -16 6 -4 10 -52 10 -115 0 -124 9 -113
-103 -125 -88 -10 -61 -29 29 -21 l74 7 0 -96 c0 -89 8 -113 27 -82 4 6 10 50
13 97 l5 84 60 12 c64 11 59 22 -15 26 l-45 3 -1 109 c-1 80 -5 111 -15 117
-18 11 -36 11 -44 0z"/>
<path d="M520 504 c0 -9 44 -43 57 -44 21 0 26 23 8 37 -19 13 -65 18 -65 7z"/>
<path d="M530 385 c28 -30 50 -32 50 -6 0 20 -18 31 -53 31 -20 0 -20 0 3 -25z"/>
<path d="M438 232 c-12 -20 -30 -46 -40 -57 -16 -16 -16 -21 -4 -33 13 -13 20
-13 55 2 46 18 91 21 91 6 0 -5 5 -10 10 -10 18 0 11 49 -9 60 -28 15 -39 12
-37 -7 1 -13 -8 -19 -31 -21 -39 -4 -41 5 -8 37 28 26 32 46 11 54 -10 4 -23
-7 -38 -31z"/>
</g>
</svg>
