<?xml version="1.0" standalone="no"?>
<!DOCTYPE svg PUBLIC "-//W3C//DTD SVG 20010904//EN"
 "http://www.w3.org/TR/2001/REC-SVG-20010904/DTD/svg10.dtd">
<svg version="1.0" xmlns="http://www.w3.org/2000/svg"
 width="96.000000pt" height="68.000000pt" viewBox="0 0 96.000000 68.000000"
 preserveAspectRatio="xMidYMid meet">
<metadata>
Created by potrace 1.16, written by Peter Selinger 2001-2019
</metadata>
<g transform="translate(0.000000,68.000000) scale(0.100000,-0.100000)"
fill="#000000" stroke="none">
<path d="M670 425 c-36 -8 -85 -14 -109 -14 -35 -1 -42 -4 -37 -17 3 -9 6 -51
6 -95 0 -72 2 -79 20 -79 11 0 20 7 20 15 0 11 12 15 48 15 26 0 64 3 85 6 31
6 37 4 37 -10 0 -12 7 -16 23 -14 20 3 22 9 27 92 5 88 5 88 -22 102 -15 8
-28 14 -30 13 -2 -1 -32 -7 -68 -14z m68 -46 c3 -25 0 -26 -55 -32 -32 -4 -70
-10 -85 -13 -26 -6 -28 -4 -28 24 0 29 3 31 53 40 84 16 111 12 115 -19z m2
-68 c0 -27 -2 -28 -60 -34 -33 -4 -72 -10 -85 -13 -23 -6 -25 -3 -25 25 0 30
1 31 48 32 26 1 61 5 77 9 17 4 33 8 38 9 4 0 7 -12 7 -28z"/>
</g>
</svg>
