<?xml version="1.0" standalone="no"?>
<!DOCTYPE svg PUBLIC "-//W3C//DTD SVG 20010904//EN"
 "http://www.w3.org/TR/2001/REC-SVG-20010904/DTD/svg10.dtd">
<svg version="1.0" xmlns="http://www.w3.org/2000/svg"
 width="90.000000pt" height="92.000000pt" viewBox="0 0 90.000000 92.000000"
 preserveAspectRatio="xMidYMid meet">
<metadata>
Created by potrace 1.16, written by Peter Selinger 2001-2019
</metadata>
<g transform="translate(0.000000,92.000000) scale(0.100000,-0.100000)"
fill="#000000" stroke="none">
<path d="M457 822 c-9 -107 -18 -119 -93 -128 -70 -7 -86 -17 -54 -34 18 -9
39 -8 94 7 17 5 16 1 -5 -38 -13 -24 -55 -77 -94 -118 -54 -57 -64 -72 -45
-66 36 11 114 70 143 109 14 18 36 54 48 80 15 30 29 46 42 46 10 0 67 -47
126 -105 105 -102 109 -105 152 -104 54 1 91 11 96 25 2 6 -23 18 -54 28 -79
25 -115 45 -202 110 l-73 55 83 3 c66 2 84 6 84 18 0 28 -50 35 -135 18 -74
-14 -80 -13 -74 1 3 9 14 40 25 69 l18 53 -32 19 c-18 11 -35 20 -38 20 -3 0
-9 -31 -12 -68z"/>
<path d="M117 803 c-4 -3 -2 -12 4 -20 6 -7 14 -53 17 -102 l5 -89 -57 -7
c-81 -10 -74 -37 9 -37 l45 0 0 -97 0 -97 -71 -23 -71 -23 23 -24 c12 -13 29
-24 37 -24 15 0 180 99 215 128 25 22 14 25 -28 8 -21 -9 -41 -16 -46 -16 -5
0 -9 40 -9 89 l0 89 38 7 c20 3 44 10 52 16 25 16 -18 41 -57 34 l-33 -6 0 48
c0 27 5 64 10 83 9 31 8 37 -11 53 -21 17 -60 23 -72 10z"/>
<path d="M485 535 c-22 -8 -53 -14 -68 -14 -43 -1 -28 -25 19 -29 45 -4 144
15 144 28 0 10 -34 31 -47 29 -4 -1 -26 -7 -48 -14z"/>
<path d="M600 450 c-19 -5 -95 -16 -167 -26 -73 -10 -133 -21 -133 -24 0 -14
52 -30 76 -24 21 5 24 3 24 -19 0 -13 -9 -36 -20 -50 -23 -29 -24 -39 -9 -54
9 -9 19 -9 38 2 15 7 54 19 88 26 51 11 64 10 78 -1 20 -16 14 -64 -16 -122
-24 -47 -49 -61 -84 -48 -43 16 -45 12 -18 -36 30 -54 42 -60 80 -41 46 24 64
51 89 138 13 45 28 87 34 94 8 10 2 20 -24 40 -35 26 -38 27 -99 16 -35 -6
-74 -11 -87 -11 l-23 0 23 25 c18 20 21 27 11 39 -10 12 -2 15 53 20 219 20
201 16 180 36 -25 24 -52 29 -94 20z"/>
</g>
</svg>
