<?xml version="1.0" standalone="no"?>
<!DOCTYPE svg PUBLIC "-//W3C//DTD SVG 20010904//EN"
 "http://www.w3.org/TR/2001/REC-SVG-20010904/DTD/svg10.dtd">
<svg version="1.0" xmlns="http://www.w3.org/2000/svg"
 width="96.000000pt" height="68.000000pt" viewBox="0 0 96.000000 68.000000"
 preserveAspectRatio="xMidYMid meet">
<metadata>
Created by potrace 1.16, written by Peter Selinger 2001-2019
</metadata>
<g transform="translate(0.000000,68.000000) scale(0.100000,-0.100000)"
fill="#000000" stroke="none">
<path d="M490 602 c0 -38 -17 -94 -32 -104 -7 -4 -32 -8 -55 -8 -23 0 -45 -5
-49 -11 -4 -7 10 -10 42 -8 36 2 48 -1 46 -11 -5 -21 -70 -95 -96 -110 -31
-16 -42 -40 -15 -33 10 3 19 9 19 14 0 5 6 9 13 9 17 0 115 97 123 122 12 38
76 9 169 -75 42 -39 93 -58 135 -51 52 9 59 20 15 28 -38 8 -177 75 -215 106
l-25 20 25 1 c14 1 30 3 35 4 6 2 28 3 50 4 27 1 36 4 29 11 -14 14 -55 15
-126 6 -32 -5 -58 -6 -58 -2 0 3 7 24 17 47 16 40 15 42 -2 55 -29 22 -45 17
-45 -14z"/>
<path d="M194 559 c4 -13 10 -50 13 -81 l5 -58 -30 0 c-69 0 -85 -27 -19 -32
l42 -3 3 -66 3 -66 -61 -17 c-33 -9 -60 -20 -60 -23 0 -10 34 -32 50 -33 24
-1 200 93 200 107 0 9 -9 9 -40 -2 l-41 -14 3 62 3 62 35 5 c49 7 47 34 -2 38
-32 3 -38 7 -38 26 0 13 5 38 11 55 14 39 6 50 -46 58 -37 6 -38 5 -31 -18z"/>
<path d="M478 373 c-21 -2 -38 -8 -38 -14 0 -5 17 -9 38 -9 54 0 112 11 112
21 0 9 -39 9 -112 2z"/>
<path d="M488 302 c-71 -9 -128 -20 -128 -24 0 -4 16 -8 35 -8 45 0 55 -23 26
-54 -18 -19 -19 -25 -8 -34 10 -8 26 -7 62 3 26 8 66 15 88 15 l40 0 -6 -37
c-10 -58 -38 -88 -81 -87 -42 1 -44 -5 -13 -42 l23 -26 41 20 c35 18 43 30 63
84 13 35 27 68 32 74 5 8 -3 17 -25 27 -28 13 -45 15 -93 7 -32 -6 -62 -10
-66 -10 -13 0 -9 21 7 37 8 8 13 19 10 24 -4 5 11 9 32 9 21 0 69 3 107 7 61
5 67 8 51 20 -22 15 -29 15 -197 -5z"/>
</g>
</svg>
