<?xml version="1.0" standalone="no"?>
<!DOCTYPE svg PUBLIC "-//W3C//DTD SVG 20010904//EN"
 "http://www.w3.org/TR/2001/REC-SVG-20010904/DTD/svg10.dtd">
<svg version="1.0" xmlns="http://www.w3.org/2000/svg"
 width="90.000000pt" height="92.000000pt" viewBox="0 0 90.000000 92.000000"
 preserveAspectRatio="xMidYMid meet">
<metadata>
Created by potrace 1.16, written by Peter Selinger 2001-2019
</metadata>
<g transform="translate(0.000000,92.000000) scale(0.100000,-0.100000)"
fill="#000000" stroke="none">
<path d="M334 818 c3 -13 9 -88 12 -168 l7 -145 -57 -27 c-31 -16 -61 -28 -68
-28 -7 0 -8 19 -4 60 7 58 7 59 -24 75 -16 8 -30 12 -31 8 0 -5 -1 -46 -2 -93
l-2 -84 -83 -35 c-73 -31 -81 -37 -66 -48 25 -18 59 -16 104 7 22 11 42 20 45
20 3 0 5 -15 5 -32 1 -102 49 -166 156 -209 52 -20 76 -23 204 -24 124 0 156
3 218 23 40 12 86 35 103 50 l31 28 -20 40 c-11 21 -25 59 -32 83 -6 23 -14
41 -16 38 -3 -3 -11 -28 -19 -57 -24 -92 -60 -114 -212 -131 -116 -12 -243 -1
-300 27 -45 23 -63 56 -70 133 l-5 56 66 33 c37 17 69 32 71 32 3 0 5 -40 5
-90 0 -50 4 -90 10 -90 13 0 29 62 36 143 l7 68 75 34 c41 19 79 35 83 35 22
0 -2 -107 -46 -213 -6 -13 -3 -16 9 -11 22 8 90 113 112 171 9 27 23 55 31 64
21 25 15 39 -22 55 -51 21 -64 18 -151 -31 -43 -25 -82 -45 -87 -45 -8 0 -3
132 9 227 4 35 1 44 -18 57 -12 9 -33 16 -46 16 -20 0 -23 -4 -18 -22z"/>
</g>
</svg>
