<?xml version="1.0" standalone="no"?>
<!DOCTYPE svg PUBLIC "-//W3C//DTD SVG 20010904//EN"
 "http://www.w3.org/TR/2001/REC-SVG-20010904/DTD/svg10.dtd">
<svg version="1.0" xmlns="http://www.w3.org/2000/svg"
 width="96.000000pt" height="68.000000pt" viewBox="0 0 96.000000 68.000000"
 preserveAspectRatio="xMidYMid meet">
<metadata>
Created by potrace 1.16, written by Peter Selinger 2001-2019
</metadata>
<g transform="translate(0.000000,68.000000) scale(0.100000,-0.100000)"
fill="#000000" stroke="none">
<path d="M465 574 c-44 -8 -121 -15 -170 -16 l-91 -2 4 -90 c4 -97 -13 -194
-48 -273 -21 -48 -12 -57 19 -17 33 42 61 130 72 232 6 53 13 102 15 109 3 13
83 22 219 26 l90 2 3 -130 c2 -72 0 -145 -3 -163 -7 -35 -12 -36 -72 -16 -10
4 4 -15 30 -42 l48 -49 25 28 c23 27 24 34 24 165 0 75 4 154 9 175 9 36 7 39
-22 58 -36 21 -41 21 -152 3z"/>
</g>
</svg>
