<?xml version="1.0" standalone="no"?>
<!DOCTYPE svg PUBLIC "-//W3C//DTD SVG 20010904//EN"
 "http://www.w3.org/TR/2001/REC-SVG-20010904/DTD/svg10.dtd">
<svg version="1.0" xmlns="http://www.w3.org/2000/svg"
 width="96.000000pt" height="68.000000pt" viewBox="0 0 96.000000 68.000000"
 preserveAspectRatio="xMidYMid meet">
<metadata>
Created by potrace 1.16, written by Peter Selinger 2001-2019
</metadata>
<g transform="translate(0.000000,68.000000) scale(0.100000,-0.100000)"
fill="#000000" stroke="none">
<path d="M337 603 c-4 -3 -7 -14 -7 -23 0 -31 -75 -140 -149 -215 -41 -41 -69
-75 -62 -75 15 0 114 64 131 85 28 33 33 15 26 -87 -3 -57 -9 -119 -12 -138
-6 -42 17 -83 36 -63 19 18 31 292 14 320 -12 19 -9 27 36 87 28 36 50 72 50
81 0 8 -12 20 -26 25 -30 12 -29 12 -37 3z"/>
</g>
</svg>
