<?xml version="1.0" standalone="no"?>
<!DOCTYPE svg PUBLIC "-//W3C//DTD SVG 20010904//EN"
 "http://www.w3.org/TR/2001/REC-SVG-20010904/DTD/svg10.dtd">
<svg version="1.0" xmlns="http://www.w3.org/2000/svg"
 width="96.000000pt" height="68.000000pt" viewBox="0 0 96.000000 68.000000"
 preserveAspectRatio="xMidYMid meet">
<metadata>
Created by potrace 1.16, written by Peter Selinger 2001-2019
</metadata>
<g transform="translate(0.000000,68.000000) scale(0.100000,-0.100000)"
fill="#000000" stroke="none">
<path d="M330 600 c-14 -5 -49 -8 -78 -9 -30 -1 -52 -4 -50 -8 3 -5 13 -27 23
-51 15 -36 22 -42 39 -37 12 3 45 8 73 12 29 3 51 9 48 12 -2 4 3 21 12 39 9
18 14 34 12 36 -11 9 -57 13 -79 6z m20 -44 c0 -8 -15 -16 -37 -19 -41 -7 -53
-3 -53 19 0 10 12 14 45 14 31 0 45 -4 45 -14z"/>
<path d="M548 604 c-3 -3 -34 -5 -69 -5 -52 -1 -61 -3 -48 -12 9 -7 20 -27 24
-45 5 -24 11 -32 23 -28 10 3 43 8 75 12 44 5 57 10 57 23 0 9 5 22 11 28 6 6
8 16 5 22 -7 11 -68 15 -78 5z m42 -21 c-1 -22 -22 -34 -68 -40 -48 -5 -52 -4
-52 15 0 22 17 28 83 31 20 0 37 -2 37 -6z"/>
<path d="M410 484 c-52 -8 -108 -13 -123 -11 -22 3 -27 0 -21 -12 3 -9 10 -30
14 -47 12 -50 13 -51 107 -41 48 4 105 6 126 4 37 -5 38 -4 64 49 14 30 23 57
20 61 -13 12 -94 11 -187 -3z m133 -18 c8 -21 -2 -26 -55 -26 -35 0 -48 4 -48
14 0 24 94 35 103 12z m-143 -16 c0 -17 -7 -20 -50 -20 -37 0 -50 4 -50 14 0
11 14 16 48 19 26 2 48 4 50 5 1 1 2 -7 2 -18z m138 -37 c-2 -12 -14 -16 -47
-16 -78 0 -62 29 17 32 26 1 33 -3 30 -16z m-135 -8 c1 -5 -19 -11 -45 -13
-54 -3 -67 14 -15 21 44 6 58 4 60 -8z"/>
<path d="M393 346 c-134 -11 -243 -23 -243 -27 0 -15 65 -20 110 -10 25 6 141
14 258 18 116 3 212 10 212 15 0 12 -46 28 -73 26 -12 0 -131 -10 -264 -22z"/>
<path d="M535 305 c-5 -2 -76 -9 -157 -15 l-146 -12 18 -32 c16 -28 21 -31 63
-29 32 2 47 -2 51 -12 7 -20 -2 -24 -83 -31 -66 -6 -84 -15 -62 -28 4 -3 11
-23 14 -44 l7 -38 65 4 c50 3 69 1 78 -11 31 -38 181 -57 306 -37 109 17 115
22 94 83 l-16 49 -22 -43 c-26 -53 -38 -57 -178 -58 -113 -1 -162 12 -169 45
-2 9 -2 54 0 101 3 80 5 84 25 81 21 -3 22 -8 22 -98 l0 -95 77 0 78 0 20 48
c12 26 18 53 14 59 -5 7 -31 9 -80 4 -69 -5 -74 -4 -74 14 0 18 7 20 55 20 48
0 59 4 79 27 22 25 22 29 7 40 -15 11 -63 16 -86 8z m32 -30 c7 -20 6 -21 -44
-28 -34 -4 -42 -2 -46 14 -4 13 2 19 22 22 52 8 62 7 68 -8z m-199 -21 c-4
-21 -77 -31 -89 -12 -11 17 9 28 54 28 30 0 38 -3 35 -16z m222 -89 c0 -8 -8
-12 -19 -10 -10 2 -35 0 -55 -5 -31 -7 -36 -5 -36 11 0 14 9 18 48 21 55 4 62
2 62 -17z m-220 -10 c0 -8 -38 -21 -82 -29 -30 -5 -38 -4 -38 8 0 8 12 16 28
19 43 6 92 7 92 2z m210 -30 c0 -11 -12 -15 -45 -15 -25 0 -47 0 -50 0 -3 0
-5 3 -5 8 -1 6 37 15 88 21 6 0 12 -6 12 -14z m-219 -20 c-1 -13 -101 -19
-101 -6 0 5 17 12 38 14 51 5 63 4 63 -8z"/>
</g>
</svg>
