<?xml version="1.0" standalone="no"?>
<!DOCTYPE svg PUBLIC "-//W3C//DTD SVG 20010904//EN"
 "http://www.w3.org/TR/2001/REC-SVG-20010904/DTD/svg10.dtd">
<svg version="1.0" xmlns="http://www.w3.org/2000/svg"
 width="90.000000pt" height="92.000000pt" viewBox="0 0 90.000000 92.000000"
 preserveAspectRatio="xMidYMid meet">
<metadata>
Created by potrace 1.16, written by Peter Selinger 2001-2019
</metadata>
<g transform="translate(0.000000,92.000000) scale(0.100000,-0.100000)"
fill="#000000" stroke="none">
<path d="M219 823 c-7 -27 -37 -83 -66 -125 -29 -43 -49 -78 -45 -78 4 0 31
18 60 40 29 22 61 40 71 40 22 0 35 -37 25 -74 -6 -26 -20 -31 -166 -56 -73
-13 -83 -23 -42 -42 20 -10 40 -8 107 10 45 12 83 19 85 17 7 -7 -35 -90 -62
-122 -14 -17 -47 -44 -71 -60 -57 -36 -57 -46 -1 -27 60 21 129 83 159 143
l24 49 49 -49 c50 -50 71 -60 80 -35 12 32 -25 63 -109 90 -37 12 -9 31 61 42
77 11 88 16 77 33 -8 13 -59 14 -103 2 -36 -11 -42 2 -21 41 10 18 8 24 -9 38
-20 16 -18 17 40 28 67 13 73 16 63 32 -9 15 -68 8 -138 -14 l-48 -15 22 37
c13 20 28 40 33 44 12 8 -31 58 -49 58 -7 0 -18 -21 -26 -47z"/>
<path d="M615 704 c-33 -8 -79 -12 -101 -10 -49 6 -60 -1 -39 -24 9 -9 22 -55
30 -100 15 -87 29 -116 44 -91 7 11 108 29 175 31 14 0 16 3 7 13 -12 15 11
99 35 128 19 21 18 28 -8 50 -26 21 -59 22 -143 3z m75 -56 c0 -18 -5 -49 -10
-69 -9 -32 -15 -37 -48 -43 -78 -13 -79 -12 -86 55 -4 34 -5 63 -3 65 6 6 87
22 120 23 24 1 27 -2 27 -31z"/>
<path d="M495 413 c-27 -8 -87 -15 -133 -16 -78 -2 -83 -3 -76 -22 13 -41 16
-157 5 -202 -17 -65 11 -132 36 -89 5 8 39 15 100 19 l92 7 21 -36 c25 -39 35
-39 63 -2 16 22 19 44 19 174 l1 149 -29 17 c-34 21 -34 21 -99 1z m65 -88 c0
-43 -1 -45 -23 -40 -13 4 -61 -1 -107 -9 -45 -9 -84 -16 -86 -16 -7 0 -4 75 4
87 9 14 45 20 140 22 l72 1 0 -45z m-2 -170 c-2 -1 -51 -6 -110 -9 l-108 -7 0
49 c0 45 2 49 23 46 12 -2 60 2 107 9 l85 12 3 -48 c2 -27 2 -50 0 -52z"/>
</g>
</svg>
