<?xml version="1.0" standalone="no"?>
<!DOCTYPE svg PUBLIC "-//W3C//DTD SVG 20010904//EN"
 "http://www.w3.org/TR/2001/REC-SVG-20010904/DTD/svg10.dtd">
<svg version="1.0" xmlns="http://www.w3.org/2000/svg"
 width="90.000000pt" height="92.000000pt" viewBox="0 0 90.000000 92.000000"
 preserveAspectRatio="xMidYMid meet">
<metadata>
Created by potrace 1.16, written by Peter Selinger 2001-2019
</metadata>
<g transform="translate(0.000000,92.000000) scale(0.100000,-0.100000)"
fill="#000000" stroke="none">
<path d="M540 858 c0 -56 -7 -64 -59 -73 -42 -7 -44 -8 -25 -22 10 -8 29 -12
42 -10 25 5 26 0 12 -39 -22 -56 13 -32 45 31 9 16 23 21 82 25 80 6 97 15 69
36 -23 16 -36 17 -88 5 l-37 -9 15 30 c14 27 14 31 -2 49 -9 10 -25 19 -36 19
-15 0 -18 -8 -18 -42z"/>
<path d="M247 864 c-3 -4 2 -23 13 -44 11 -21 16 -40 13 -44 -4 -3 -37 -6 -75
-6 -75 0 -82 -9 -37 -42 22 -16 27 -17 68 -2 50 17 71 13 71 -14 0 -11 7 -25
15 -32 13 -11 15 -6 15 33 0 43 1 45 35 51 49 10 46 30 -4 23 -38 -5 -39 -4
-45 33 -4 28 -12 39 -28 44 -29 7 -33 7 -41 0z"/>
<path d="M210 675 c0 -3 9 -24 19 -45 11 -22 16 -42 12 -44 -4 -3 -35 -8 -69
-12 -64 -7 -80 -19 -39 -29 16 -4 30 -22 44 -55 l21 -50 -49 -6 c-57 -8 -69
-18 -38 -34 15 -9 33 -9 64 -1 62 15 65 15 65 -18 0 -28 -3 -30 -52 -40 -29
-6 -74 -13 -100 -17 -53 -7 -61 -19 -23 -36 20 -9 40 -8 94 5 38 10 72 17 76
17 5 0 5 -50 2 -112 -6 -119 2 -159 29 -137 11 9 14 40 14 134 0 140 -6 131
95 141 68 7 79 16 44 34 -15 8 -34 8 -70 1 -67 -15 -66 -15 -61 18 5 33 22 41
95 41 51 0 59 10 25 34 -16 11 -33 14 -57 10 l-35 -7 27 32 c30 36 32 42 16
58 -7 7 -1 14 23 22 32 12 32 13 13 27 -11 8 -29 12 -40 9 -65 -18 -77 -18
-75 1 4 35 0 42 -31 53 -37 13 -39 13 -39 6z m100 -140 c0 -40 -21 -75 -49
-81 -14 -3 -31 -7 -37 -9 -6 -2 -9 9 -6 26 3 19 -2 37 -13 49 -19 21 -23 18
50 33 46 10 55 7 55 -18z"/>
<path d="M645 660 c-10 -11 -41 -33 -69 -49 -39 -23 -54 -27 -69 -19 -28 15
-50 3 -37 -21 15 -28 12 -167 -4 -254 -8 -41 -30 -103 -48 -138 -18 -35 -35
-68 -37 -73 -2 -5 9 0 26 12 51 36 84 113 117 273 5 22 13 28 56 36 27 6 52 8
55 5 3 -3 5 -87 6 -186 0 -100 4 -190 9 -201 17 -43 33 38 39 202 3 89 9 165
13 169 4 4 3 13 -3 21 -9 10 -2 13 37 13 62 0 96 9 91 24 -11 32 -99 29 -274
-11 -21 -5 -23 -2 -23 38 0 24 4 49 8 55 4 6 48 24 97 40 110 34 117 40 86 65
-30 24 -53 24 -76 -1z"/>
<path d="M320 283 c0 -3 11 -26 25 -50 35 -58 69 -57 57 3 -5 26 -82 70 -82
47z"/>
<path d="M146 236 c-3 -14 -28 -48 -55 -75 -26 -28 -44 -51 -39 -51 21 0 86
42 121 78 36 36 37 40 22 56 -23 23 -42 20 -49 -8z"/>
</g>
</svg>
