<?xml version="1.0" standalone="no"?>
<!DOCTYPE svg PUBLIC "-//W3C//DTD SVG 20010904//EN"
 "http://www.w3.org/TR/2001/REC-SVG-20010904/DTD/svg10.dtd">
<svg version="1.0" xmlns="http://www.w3.org/2000/svg"
 width="96.000000pt" height="68.000000pt" viewBox="0 0 96.000000 68.000000"
 preserveAspectRatio="xMidYMid meet">
<metadata>
Created by potrace 1.16, written by Peter Selinger 2001-2019
</metadata>
<g transform="translate(0.000000,68.000000) scale(0.100000,-0.100000)"
fill="#000000" stroke="none">
<path d="M463 322 c-22 -3 -23 -7 -23 -106 l0 -103 -37 -7 c-55 -9 -123 -7
-123 3 0 5 7 26 16 47 15 37 15 39 -6 56 -36 29 -52 24 -44 -16 4 -26 0 -47
-17 -81 -21 -42 -22 -47 -6 -62 15 -15 24 -15 129 5 62 11 140 23 173 27 33 3
77 8 98 11 32 5 37 3 37 -13 0 -11 6 -28 14 -39 24 -32 39 -3 46 93 7 93 0
113 -42 113 -16 0 -18 -9 -18 -65 l0 -65 -54 0 c-29 0 -67 -3 -84 -6 l-31 -6
-3 108 c-3 107 -3 109 -25 106z"/>
</g>
</svg>
