<?xml version="1.0" standalone="no"?>
<!DOCTYPE svg PUBLIC "-//W3C//DTD SVG 20010904//EN"
 "http://www.w3.org/TR/2001/REC-SVG-20010904/DTD/svg10.dtd">
<svg version="1.0" xmlns="http://www.w3.org/2000/svg"
 width="96.000000pt" height="68.000000pt" viewBox="0 0 96.000000 68.000000"
 preserveAspectRatio="xMidYMid meet">
<metadata>
Created by potrace 1.16, written by Peter Selinger 2001-2019
</metadata>
<g transform="translate(0.000000,68.000000) scale(0.100000,-0.100000)"
fill="#000000" stroke="none">
<path d="M645 248 c-38 -5 -91 -7 -117 -5 -52 4 -55 3 -34 -18 7 -8 19 -42 25
-76 6 -34 12 -63 14 -65 2 -2 30 1 63 6 32 6 86 10 119 10 l60 0 1 40 c1 22 9
52 19 66 17 26 17 28 -1 41 -20 15 -47 15 -149 1z m92 -59 c-4 -29 -8 -54 -11
-56 -9 -9 -160 -23 -167 -15 -4 4 -10 28 -14 54 l-7 46 58 7 c33 3 66 8 74 9
8 2 28 4 44 5 l29 1 -6 -51z"/>
</g>
</svg>
