<?xml version="1.0" standalone="no"?>
<!DOCTYPE svg PUBLIC "-//W3C//DTD SVG 20010904//EN"
 "http://www.w3.org/TR/2001/REC-SVG-20010904/DTD/svg10.dtd">
<svg version="1.0" xmlns="http://www.w3.org/2000/svg"
 width="96.000000pt" height="68.000000pt" viewBox="0 0 96.000000 68.000000"
 preserveAspectRatio="xMidYMid meet">
<metadata>
Created by potrace 1.16, written by Peter Selinger 2001-2019
</metadata>
<g transform="translate(0.000000,68.000000) scale(0.100000,-0.100000)"
fill="#000000" stroke="none">
<path d="M478 568 c12 -58 9 -112 -8 -115 -8 -1 -37 -5 -64 -8 -63 -8 -43 -25
30 -25 58 0 58 0 42 -95 -16 -101 -53 -148 -168 -217 -59 -36 -26 -37 50 -2
56 26 100 67 127 118 l15 28 81 -86 82 -86 65 0 c89 0 104 12 43 35 -81 30
-155 71 -209 114 -51 40 -52 42 -43 79 5 20 9 51 9 67 1 45 11 55 78 67 34 6
62 15 62 19 0 14 -40 20 -86 13 l-47 -7 5 61 c6 65 2 72 -48 72 -21 0 -23 -3
-16 -32z"/>
</g>
</svg>
