<?xml version="1.0" standalone="no"?>
<!DOCTYPE svg PUBLIC "-//W3C//DTD SVG 20010904//EN"
 "http://www.w3.org/TR/2001/REC-SVG-20010904/DTD/svg10.dtd">
<svg version="1.0" xmlns="http://www.w3.org/2000/svg"
 width="96.000000pt" height="68.000000pt" viewBox="0 0 96.000000 68.000000"
 preserveAspectRatio="xMidYMid meet">
<metadata>
Created by potrace 1.16, written by Peter Selinger 2001-2019
</metadata>
<g transform="translate(0.000000,68.000000) scale(0.100000,-0.100000)"
fill="#000000" stroke="none">
<path d="M270 558 c0 -50 -91 -202 -162 -272 -11 -10 -17 -20 -15 -23 8 -7 47
16 85 48 49 43 102 37 102 -12 0 -5 -11 -9 -24 -9 -14 0 -37 -5 -53 -11 -25
-9 -26 -11 -10 -21 10 -5 34 -7 53 -4 l34 7 0 -60 0 -60 -42 -11 c-22 -7 -56
-9 -75 -5 -24 4 -33 2 -33 -8 0 -25 37 -50 67 -44 53 10 228 76 223 84 -6 10
-35 9 -74 -2 -27 -7 -29 -6 -23 16 4 13 7 40 7 61 0 35 2 37 40 43 22 4 40 10
40 15 0 10 -26 20 -55 20 -18 0 -22 4 -18 20 3 11 16 23 29 26 13 3 24 10 24
15 0 18 -32 22 -87 10 -30 -7 -57 -11 -59 -8 -6 5 63 117 72 117 3 0 20 -11
38 -25 41 -31 56 -32 56 -1 0 19 -9 29 -40 42 -25 11 -40 25 -40 36 0 17 -27
38 -49 38 -6 0 -11 -10 -11 -22z"/>
<path d="M696 488 c-4 -32 -12 -61 -19 -63 -49 -14 -53 -18 -22 -25 30 -6 32
-10 20 -42 -13 -34 15 -18 32 17 15 31 23 36 75 46 66 13 68 34 2 26 -47 -5
-49 -2 -34 39 12 30 2 49 -29 57 -16 4 -20 -4 -25 -55z"/>
<path d="M470 490 c0 -3 9 -24 20 -45 l21 -40 -46 -9 c-62 -13 -58 -30 5 -22
28 4 50 3 50 -2 0 -4 7 -17 16 -28 15 -18 15 -17 10 19 -4 30 -2 37 12 38 12
0 11 3 -5 9 -18 7 -23 17 -23 44 0 30 -3 34 -30 38 -16 3 -30 2 -30 -2z"/>
<path d="M562 292 c-93 -11 -129 -18 -123 -26 8 -10 23 -61 27 -91 12 -91 24
-115 47 -97 10 9 111 16 178 13 9 -1 20 -12 23 -26 8 -32 35 -32 58 -1 9 13
24 59 32 102 8 44 17 88 21 100 5 15 0 23 -20 32 -31 14 -70 14 -243 -6z m198
-49 l0 -38 -60 3 -60 4 0 34 0 34 60 0 60 0 0 -37z m-172 -10 c-3 -36 -5 -38
-40 -39 -45 -1 -53 4 -61 38 -8 29 2 34 71 37 32 1 33 0 30 -36z m171 -55 c-4
-52 -13 -60 -67 -62 l-52 -1 0 32 c0 35 9 40 78 42 28 1 42 -3 41 -11z m-159
-35 c0 -32 -1 -33 -44 -33 -39 0 -45 3 -50 25 -9 36 -4 40 48 41 46 0 46 0 46
-33z"/>
<path d="M367 238 c-2 -13 -8 -31 -12 -40 -11 -26 14 -23 50 7 29 24 29 25 11
40 -28 21 -43 19 -49 -7z"/>
<path d="M180 220 c0 -22 33 -60 51 -60 27 0 24 35 -3 54 -26 18 -48 21 -48 6z"/>
</g>
</svg>
