<?xml version="1.0" standalone="no"?>
<!DOCTYPE svg PUBLIC "-//W3C//DTD SVG 20010904//EN"
 "http://www.w3.org/TR/2001/REC-SVG-20010904/DTD/svg10.dtd">
<svg version="1.0" xmlns="http://www.w3.org/2000/svg"
 width="96.000000pt" height="68.000000pt" viewBox="0 0 96.000000 68.000000"
 preserveAspectRatio="xMidYMid meet">
<metadata>
Created by potrace 1.16, written by Peter Selinger 2001-2019
</metadata>
<g transform="translate(0.000000,68.000000) scale(0.100000,-0.100000)"
fill="#000000" stroke="none">
<path d="M550 616 c0 -41 -22 -66 -56 -66 -14 0 -22 -4 -19 -10 3 -5 17 -10
31 -10 28 0 27 0 14 -35 -14 -37 8 -29 35 12 23 36 40 43 113 43 39 0 52 4 49
13 -3 8 -24 11 -65 10 l-61 -3 11 26 c11 22 9 28 -7 40 -31 23 -45 17 -45 -20z"/>
<path d="M270 602 c0 -4 7 -18 16 -30 9 -13 13 -26 10 -30 -4 -3 -36 -8 -71
-10 -70 -5 -81 -13 -37 -31 19 -8 37 -8 62 -1 52 15 66 12 78 -15 16 -36 34
-31 30 7 -2 26 1 33 17 36 37 7 41 23 5 20 -31 -3 -35 0 -39 22 -1 14 -8 28
-15 32 -15 10 -56 10 -56 0z"/>
</g>
</svg>
