<?xml version="1.0" standalone="no"?>
<!DOCTYPE svg PUBLIC "-//W3C//DTD SVG 20010904//EN"
 "http://www.w3.org/TR/2001/REC-SVG-20010904/DTD/svg10.dtd">
<svg version="1.0" xmlns="http://www.w3.org/2000/svg"
 width="96.000000pt" height="68.000000pt" viewBox="0 0 96.000000 68.000000"
 preserveAspectRatio="xMidYMid meet">
<metadata>
Created by potrace 1.16, written by Peter Selinger 2001-2019
</metadata>
<g transform="translate(0.000000,68.000000) scale(0.100000,-0.100000)"
fill="#000000" stroke="none">
<path d="M420 463 c0 -7 7 -24 15 -37 15 -23 15 -23 -22 -30 -60 -9 -191 -7
-198 4 -12 19 -22 10 -45 -39 -22 -47 -22 -81 -1 -81 12 0 51 49 51 64 0 13
445 60 462 50 5 -4 -1 -17 -14 -31 l-23 -25 30 5 c17 4 47 9 68 13 44 7 46 15
10 44 -26 20 -35 22 -113 16 -47 -4 -102 -10 -123 -13 -31 -5 -36 -3 -31 10 3
8 1 24 -5 35 -13 24 -61 36 -61 15z"/>
</g>
</svg>
