<?xml version="1.0" standalone="no"?>
<!DOCTYPE svg PUBLIC "-//W3C//DTD SVG 20010904//EN"
 "http://www.w3.org/TR/2001/REC-SVG-20010904/DTD/svg10.dtd">
<svg version="1.0" xmlns="http://www.w3.org/2000/svg"
 width="96.000000pt" height="68.000000pt" viewBox="0 0 96.000000 68.000000"
 preserveAspectRatio="xMidYMid meet">
<metadata>
Created by potrace 1.16, written by Peter Selinger 2001-2019
</metadata>
<g transform="translate(0.000000,68.000000) scale(0.100000,-0.100000)"
fill="#000000" stroke="none">
<path d="M450 602 c0 -19 -23 -67 -55 -117 l-20 -30 45 35 c36 29 60 38 119
48 41 7 76 10 80 7 3 -3 0 -15 -7 -25 -18 -30 -16 -30 38 -7 28 12 49 26 47
32 -8 22 -75 29 -147 13 -72 -15 -79 -12 -57 22 10 17 9 22 -3 30 -23 15 -40
12 -40 -8z"/>
<path d="M232 521 c-58 -11 -35 -26 38 -25 77 2 104 9 95 24 -7 11 -79 11
-133 1z"/>
<path d="M478 468 c5 -43 -23 -79 -84 -107 -25 -12 -44 -24 -42 -27 11 -11
103 32 134 62 18 19 36 34 39 34 3 0 38 -22 77 -50 71 -50 108 -62 108 -37 0
25 -45 55 -115 77 -64 20 -71 25 -70 49 0 21 -5 27 -26 29 -23 3 -25 0 -21
-30z"/>
<path d="M245 405 c-33 -7 -62 -13 -64 -14 -3 -1 0 -6 6 -12 9 -9 33 -7 97 7
87 19 113 35 54 33 -18 -1 -60 -7 -93 -14z"/>
<path d="M388 293 c-4 -34 -25 -40 -138 -43 -47 -1 -96 -5 -110 -10 l-25 -7
29 -8 c28 -8 160 0 204 11 25 7 29 -7 7 -30 -18 -18 -19 -36 -2 -36 29 0 88
-22 85 -32 -4 -12 -76 -42 -153 -64 l-50 -14 68 5 c40 3 91 16 124 30 65 29
78 30 118 5 75 -48 107 -62 118 -51 18 18 -3 43 -61 73 -29 15 -58 29 -65 31
-8 3 -5 12 9 28 12 13 27 34 33 47 11 21 17 22 133 22 117 0 121 1 105 18 -15
14 -34 17 -118 14 -79 -2 -105 1 -125 14 -24 16 -25 16 -31 -4 -4 -17 -13 -22
-38 -22 -19 0 -41 -3 -51 -7 -14 -5 -16 -3 -11 12 9 21 -9 45 -34 45 -12 0
-19 -9 -21 -27z m142 -62 c0 -23 -49 -73 -66 -67 -7 3 -29 8 -48 12 -64 12
-33 60 44 67 25 2 51 4 58 5 6 1 12 -6 12 -17z"/>
</g>
</svg>
