<?xml version="1.0" standalone="no"?>
<!DOCTYPE svg PUBLIC "-//W3C//DTD SVG 20010904//EN"
 "http://www.w3.org/TR/2001/REC-SVG-20010904/DTD/svg10.dtd">
<svg version="1.0" xmlns="http://www.w3.org/2000/svg"
 width="96.000000pt" height="68.000000pt" viewBox="0 0 96.000000 68.000000"
 preserveAspectRatio="xMidYMid meet">
<metadata>
Created by potrace 1.16, written by Peter Selinger 2001-2019
</metadata>
<g transform="translate(0.000000,68.000000) scale(0.100000,-0.100000)"
fill="#000000" stroke="none">
<path d="M478 465 c4 -30 -1 -40 -30 -68 -20 -18 -55 -39 -79 -46 -24 -8 -38
-16 -32 -18 25 -9 115 30 148 63 19 19 36 34 39 34 2 0 37 -22 77 -50 72 -50
109 -62 109 -37 0 26 -45 55 -117 77 -68 20 -72 23 -62 42 13 23 -1 38 -36 38
-18 0 -20 -5 -17 -35z"/>
</g>
</svg>
