<?xml version="1.0" standalone="no"?>
<!DOCTYPE svg PUBLIC "-//W3C//DTD SVG 20010904//EN"
 "http://www.w3.org/TR/2001/REC-SVG-20010904/DTD/svg10.dtd">
<svg version="1.0" xmlns="http://www.w3.org/2000/svg"
 width="90.000000pt" height="92.000000pt" viewBox="0 0 90.000000 92.000000"
 preserveAspectRatio="xMidYMid meet">
<metadata>
Created by potrace 1.16, written by Peter Selinger 2001-2019
</metadata>
<g transform="translate(0.000000,92.000000) scale(0.100000,-0.100000)"
fill="#000000" stroke="none">
<path d="M595 825 c-70 -20 -223 -37 -257 -30 -30 7 -37 -5 -15 -24 8 -6 19
-34 26 -63 13 -62 28 -88 39 -73 4 6 21 12 39 13 28 2 32 -1 38 -29 4 -17 4
-33 1 -36 -3 -3 -26 -8 -51 -11 -58 -6 -54 -25 6 -32 42 -5 44 -7 44 -36 0
-32 -1 -32 -60 -38 -128 -14 -148 -22 -101 -44 18 -8 44 -7 103 3 133 24 133
24 41 -61 -46 -42 -119 -98 -163 -125 -45 -28 -71 -49 -60 -49 25 0 112 40
162 74 21 14 41 26 45 26 12 0 10 -116 -3 -142 -7 -16 -7 -32 0 -51 12 -31 31
-35 38 -8 4 16 16 20 73 23 l69 3 15 -32 c18 -39 26 -40 52 -12 16 18 18 36
17 152 l-1 131 -28 14 c-24 13 -34 12 -97 -7 -39 -12 -72 -20 -73 -18 -2 2 21
27 50 56 l54 54 115 5 c131 5 151 12 124 39 -19 20 -81 24 -157 10 l-45 -8 45
46 44 45 -26 26 c-29 30 -43 26 -52 -12 -10 -40 -57 -105 -84 -115 -46 -18
-58 -12 -54 25 4 32 6 34 53 40 26 4 51 11 55 17 11 18 -18 30 -57 24 -36 -5
-37 -4 -41 30 -4 35 -4 35 37 37 22 1 60 2 85 3 44 0 46 1 70 51 14 28 31 58
38 67 12 14 9 19 -20 37 -38 23 -63 24 -133 5z m79 -33 c3 -5 0 -26 -5 -48
-10 -38 -12 -40 -50 -39 -21 0 -39 1 -39 3 0 2 7 17 16 33 8 17 13 37 10 45
-4 10 3 14 29 14 18 0 36 -4 39 -8z m-114 -40 c0 -43 -14 -62 -47 -62 -21 0
-23 5 -23 44 0 38 3 45 23 49 45 9 47 8 47 -31z m-104 -29 l13 -43 -40 0 c-26
0 -39 4 -39 14 0 7 -3 28 -6 45 -7 32 -6 32 27 29 30 -3 35 -8 45 -45z m182
-430 c3 -42 3 -43 -22 -33 -18 7 -42 5 -79 -4 -52 -13 -52 -13 -55 11 -2 14
-1 31 2 38 6 16 77 34 121 32 28 -2 30 -5 33 -44z m2 -96 l0 -44 -42 0 c-24 0
-60 -3 -80 -7 l-38 -7 0 40 c0 28 4 39 13 36 9 -3 129 17 145 24 1 0 2 -18 2
-42z"/>
<path d="M155 674 c-24 -9 -54 -13 -74 -9 -32 6 -33 5 -27 -17 15 -49 18 -161
7 -252 -10 -74 -10 -100 0 -118 17 -33 18 -33 32 -15 6 9 30 19 52 22 37 6 41
4 59 -26 l19 -32 22 25 c21 24 21 32 18 219 -3 168 -5 196 -20 207 -21 15 -38
14 -88 -4z m59 -61 c3 -21 6 -55 6 -75 0 -33 -3 -38 -24 -38 -13 0 -38 -3 -55
-6 l-31 -6 0 71 c0 78 9 89 71 90 23 1 27 -4 33 -36z m1 -154 c4 -6 4 -38 0
-72 l-6 -62 -56 -3 c-47 -2 -54 0 -49 14 3 8 6 40 6 69 l0 54 43 4 c23 2 45 4
49 5 4 1 10 -3 13 -9z"/>
</g>
</svg>
