<?xml version="1.0" standalone="no"?>
<!DOCTYPE svg PUBLIC "-//W3C//DTD SVG 20010904//EN"
 "http://www.w3.org/TR/2001/REC-SVG-20010904/DTD/svg10.dtd">
<svg version="1.0" xmlns="http://www.w3.org/2000/svg"
 width="96.000000pt" height="68.000000pt" viewBox="0 0 96.000000 68.000000"
 preserveAspectRatio="xMidYMid meet">
<metadata>
Created by potrace 1.16, written by Peter Selinger 2001-2019
</metadata>
<g transform="translate(0.000000,68.000000) scale(0.100000,-0.100000)"
fill="#000000" stroke="none">
<path d="M609 483 c0 -27 -1 -86 -2 -133 l-2 -85 -137 -21 c-165 -27 -171 -28
-135 -43 22 -8 45 -7 110 8 45 10 101 21 125 25 l42 6 0 -92 c0 -161 31 -152
45 13 l7 86 75 6 c41 3 78 8 81 12 16 16 -28 25 -92 20 l-69 -6 5 120 c4 124
2 131 -38 131 -10 0 -14 -13 -15 -47z"/>
</g>
</svg>
