<?xml version="1.0" standalone="no"?>
<!DOCTYPE svg PUBLIC "-//W3C//DTD SVG 20010904//EN"
 "http://www.w3.org/TR/2001/REC-SVG-20010904/DTD/svg10.dtd">
<svg version="1.0" xmlns="http://www.w3.org/2000/svg"
 width="90.000000pt" height="92.000000pt" viewBox="0 0 90.000000 92.000000"
 preserveAspectRatio="xMidYMid meet">
<metadata>
Created by potrace 1.16, written by Peter Selinger 2001-2019
</metadata>
<g transform="translate(0.000000,92.000000) scale(0.100000,-0.100000)"
fill="#000000" stroke="none">
<path d="M368 825 c-5 -6 -189 -43 -232 -47 -16 -2 -31 -9 -34 -15 -3 -9 12
-13 52 -13 l56 0 0 -44 0 -44 -88 -12 c-48 -6 -96 -15 -107 -19 -19 -8 -18 -9
8 -22 23 -10 42 -11 99 -1 39 7 73 10 76 7 3 -2 -2 -21 -9 -42 -14 -36 -18
-38 -69 -46 -81 -11 -83 -27 -4 -37 l44 -5 -33 -70 c-19 -38 -55 -98 -81 -133
-25 -34 -46 -67 -46 -73 0 -20 77 50 115 105 21 31 41 53 45 51 4 -3 11 -33
14 -68 8 -75 19 -98 38 -79 6 6 33 12 59 12 74 0 140 12 136 24 -4 12 33 96
52 120 16 18 8 32 -27 50 -23 11 -42 11 -131 -4 -57 -10 -110 -16 -117 -13 -9
3 -8 14 6 45 10 22 24 44 30 48 7 4 50 11 96 15 79 6 107 16 85 29 -5 4 -4 25
3 53 12 47 13 48 57 51 24 2 48 7 53 12 11 11 -54 52 -71 45 -16 -6 -16 -2 2
42 20 46 20 46 -14 66 -29 17 -53 22 -63 12z m12 -77 c0 -47 -10 -57 -63 -67
l-47 -8 6 37 c4 26 2 40 -7 46 -16 10 23 21 79 23 30 1 32 -1 32 -31z m-20
-120 c-1 -41 -13 -57 -55 -67 -72 -18 -74 -17 -63 28 11 42 20 47 86 50 20 0
32 -4 32 -11z m16 -290 c-4 -29 -8 -54 -10 -55 -5 -5 -140 -22 -145 -18 -2 3
-6 27 -9 54 -5 54 -10 49 63 64 11 3 40 5 64 6 l44 1 -7 -52z"/>
<path d="M670 784 c-37 -16 -70 -23 -100 -22 -40 3 -45 1 -43 -17 2 -11 3
-160 3 -330 0 -299 4 -375 20 -375 17 0 22 59 29 350 5 168 11 312 15 321 7
16 67 39 100 39 22 0 20 -32 -8 -105 l-23 -59 33 -43 c37 -49 60 -112 50 -138
-6 -17 -30 -17 -101 1 -15 4 -12 -1 10 -18 17 -13 46 -38 66 -55 20 -18 41
-33 47 -33 22 0 42 45 42 95 -1 65 -27 123 -79 167 l-41 35 50 71 c27 39 54
73 60 77 17 11 -7 42 -41 54 -18 6 -32 10 -33 10 -1 -1 -26 -12 -56 -25z"/>
</g>
</svg>
