<?xml version="1.0" standalone="no"?>
<!DOCTYPE svg PUBLIC "-//W3C//DTD SVG 20010904//EN"
 "http://www.w3.org/TR/2001/REC-SVG-20010904/DTD/svg10.dtd">
<svg version="1.0" xmlns="http://www.w3.org/2000/svg"
 width="96.000000pt" height="68.000000pt" viewBox="0 0 96.000000 68.000000"
 preserveAspectRatio="xMidYMid meet">
<metadata>
Created by potrace 1.16, written by Peter Selinger 2001-2019
</metadata>
<g transform="translate(0.000000,68.000000) scale(0.100000,-0.100000)"
fill="#000000" stroke="none">
<path d="M182 486 c41 -39 65 -45 75 -20 9 23 -17 42 -67 49 l-45 7 37 -36z"/>
<path d="M165 347 l-60 -22 57 -3 58 -3 -15 -28 c-13 -26 -13 -30 4 -46 25
-22 45 -71 37 -90 -4 -11 -22 -15 -71 -15 -49 0 -65 -3 -65 -14 0 -19 40 -27
79 -16 44 12 83 5 264 -51 87 -27 169 -49 183 -49 15 0 65 12 113 27 l86 28
-125 7 c-147 9 -232 21 -357 49 -86 20 -92 23 -82 41 15 28 4 63 -27 83 l-26
17 38 40 c38 38 38 40 20 54 -25 18 -38 17 -111 -9z"/>
</g>
</svg>
