<?xml version="1.0" standalone="no"?>
<!DOCTYPE svg PUBLIC "-//W3C//DTD SVG 20010904//EN"
 "http://www.w3.org/TR/2001/REC-SVG-20010904/DTD/svg10.dtd">
<svg version="1.0" xmlns="http://www.w3.org/2000/svg"
 width="96.000000pt" height="68.000000pt" viewBox="0 0 96.000000 68.000000"
 preserveAspectRatio="xMidYMid meet">
<metadata>
Created by potrace 1.16, written by Peter Selinger 2001-2019
</metadata>
<g transform="translate(0.000000,68.000000) scale(0.100000,-0.100000)"
fill="#000000" stroke="none">
<path d="M520 433 c-85 -7 -196 -12 -245 -11 l-91 3 -21 -46 c-13 -29 -17 -52
-12 -60 12 -20 42 1 53 38 8 29 11 31 65 32 31 1 135 10 231 20 96 11 179 15
184 11 5 -5 2 -20 -8 -35 -17 -26 -17 -27 2 -21 11 4 39 10 63 14 54 9 60 26
17 52 -37 23 -29 22 -238 3z"/>
</g>
</svg>
