<?xml version="1.0" standalone="no"?>
<!DOCTYPE svg PUBLIC "-//W3C//DTD SVG 20010904//EN"
 "http://www.w3.org/TR/2001/REC-SVG-20010904/DTD/svg10.dtd">
<svg version="1.0" xmlns="http://www.w3.org/2000/svg"
 width="96.000000pt" height="68.000000pt" viewBox="0 0 96.000000 68.000000"
 preserveAspectRatio="xMidYMid meet">
<metadata>
Created by potrace 1.16, written by Peter Selinger 2001-2019
</metadata>
<g transform="translate(0.000000,68.000000) scale(0.100000,-0.100000)"
fill="#000000" stroke="none">
<path d="M361 608 c-6 -18 -23 -44 -37 -59 -29 -31 -29 -65 1 -63 11 1 51 8
88 17 62 13 68 13 65 -1 -4 -19 -67 -32 -203 -42 -5 0 -3 -5 6 -10 10 -6 48
-6 100 0 46 5 124 12 172 15 78 6 86 9 70 21 -13 10 -34 12 -77 7 l-59 -6 29
39 c16 21 35 45 42 52 21 23 2 35 -47 29 -25 -3 -56 -9 -68 -12 -17 -6 -23 -3
-23 8 0 14 -28 37 -43 37 -3 0 -10 -14 -16 -32z m129 -42 c0 -25 -1 -26 -94
-41 -39 -7 -39 -6 -24 16 9 15 33 28 64 35 27 6 50 12 52 13 1 0 2 -10 2 -23z"/>
<path d="M465 429 c-188 -18 -229 -19 -265 -5 -11 4 -20 -6 -32 -37 -22 -52
-23 -77 -2 -77 9 0 23 17 32 40 17 40 17 40 74 40 48 0 131 8 375 35 48 5 59
-4 38 -31 -8 -10 -15 -22 -15 -25 0 -10 114 17 117 28 6 16 -61 53 -93 52 -16
-1 -119 -10 -229 -20z"/>
<path d="M465 384 c-44 -7 -101 -13 -128 -13 -47 -1 -47 -1 -33 -23 8 -13 18
-42 22 -65 7 -43 7 -43 50 -43 30 0 44 -4 44 -14 0 -13 -95 -26 -192 -26 -21
0 -38 -4 -38 -9 0 -14 45 -17 120 -9 36 3 67 4 70 1 9 -8 -43 -43 -125 -83
-44 -22 -72 -39 -63 -40 27 0 120 37 171 70 26 16 50 30 52 30 2 0 5 -33 7
-73 2 -56 6 -72 18 -72 12 0 16 17 18 78 2 42 6 77 10 77 5 0 47 -24 94 -54
47 -30 96 -57 108 -61 26 -8 130 3 130 14 0 4 -28 13 -62 20 -35 7 -97 28
-138 46 -41 18 -84 35 -95 39 -40 14 10 26 115 26 97 1 103 2 85 16 -16 13
-38 14 -120 9 -55 -4 -104 -8 -109 -9 -6 0 -12 7 -14 18 -4 17 1 18 45 14 l49
-5 32 62 c18 33 32 63 32 67 0 3 -11 9 -24 12 -13 3 -30 8 -38 10 -7 2 -49 -3
-93 -10z m85 -34 c0 -17 -7 -20 -40 -20 -33 0 -40 3 -40 20 0 17 7 20 40 20
33 0 40 -3 40 -20z m-132 -11 c4 -21 -68 -35 -80 -16 -12 18 -10 25 10 30 32
9 67 2 70 -14z m118 -54 c-5 -15 -64 -17 -65 -2 -2 22 2 26 32 29 34 3 42 -4
33 -27z m-113 -5 c-4 -15 -14 -20 -39 -20 -27 0 -34 4 -34 20 0 17 7 20 39 20
34 0 38 -3 34 -20z"/>
</g>
</svg>
