<?xml version="1.0" standalone="no"?>
<!DOCTYPE svg PUBLIC "-//W3C//DTD SVG 20010904//EN"
 "http://www.w3.org/TR/2001/REC-SVG-20010904/DTD/svg10.dtd">
<svg version="1.0" xmlns="http://www.w3.org/2000/svg"
 width="96.000000pt" height="68.000000pt" viewBox="0 0 96.000000 68.000000"
 preserveAspectRatio="xMidYMid meet">
<metadata>
Created by potrace 1.16, written by Peter Selinger 2001-2019
</metadata>
<g transform="translate(0.000000,68.000000) scale(0.100000,-0.100000)"
fill="#000000" stroke="none">
<path d="M425 221 c3 -5 -4 -12 -14 -16 -11 -3 -22 -14 -26 -24 -4 -15 -32
-36 -95 -71 -8 -5 -11 -13 -6 -17 5 -4 11 -2 13 5 3 6 9 12 13 12 5 0 32 13
60 30 27 16 50 26 50 22 0 -4 5 0 11 8 9 12 9 11 4 -5 -14 -37 -17 -113 -5
-120 18 -11 22 0 25 65 1 33 5 63 8 66 3 3 18 -2 34 -12 l28 -17 -30 26 c-16
15 -26 26 -22 27 5 0 2 7 -7 15 -16 16 -51 21 -41 6z m25 -98 c0 -21 -3 -24
-9 -14 -5 8 -7 20 -4 28 8 21 13 15 13 -14z"/>
<path d="M627 223 c-4 -3 -35 -9 -69 -13 l-63 -7 67 -2 c37 0 70 4 73 9 3 6
11 10 16 10 6 0 7 -4 4 -10 -4 -6 7 -10 27 -10 l33 1 -25 14 c-27 15 -53 19
-63 8z"/>
<path d="M230 191 c0 -10 68 -13 74 -2 3 5 -12 9 -34 9 -22 0 -40 -3 -40 -7z"/>
<path d="M320 192 c0 -5 14 -7 30 -4 17 2 30 6 30 8 0 2 -13 4 -30 4 -16 0
-30 -4 -30 -8z"/>
<path d="M530 152 c0 -13 41 -33 52 -26 7 4 8 3 4 -4 -4 -7 10 -20 36 -34 50
-27 101 -41 91 -25 -4 7 5 8 25 4 19 -4 32 -2 32 3 0 6 -9 11 -20 11 -11 1
-24 3 -30 4 -5 1 -24 3 -41 4 -16 0 -28 4 -25 9 2 4 -25 19 -60 34 -35 15 -64
24 -64 20z"/>
</g>
</svg>
