<?xml version="1.0" standalone="no"?>
<!DOCTYPE svg PUBLIC "-//W3C//DTD SVG 20010904//EN"
 "http://www.w3.org/TR/2001/REC-SVG-20010904/DTD/svg10.dtd">
<svg version="1.0" xmlns="http://www.w3.org/2000/svg"
 width="96.000000pt" height="68.000000pt" viewBox="0 0 96.000000 68.000000"
 preserveAspectRatio="xMidYMid meet">
<metadata>
Created by potrace 1.16, written by Peter Selinger 2001-2019
</metadata>
<g transform="translate(0.000000,68.000000) scale(0.100000,-0.100000)"
fill="#000000" stroke="none">
<path d="M605 589 c-16 -4 -103 -13 -192 -19 l-162 -13 19 -26 c10 -14 24 -50
30 -79 12 -50 39 -81 48 -54 2 7 25 12 58 12 46 0 54 -3 54 -19 0 -21 -26 -31
-82 -31 -21 0 -38 -4 -38 -10 0 -6 27 -10 60 -10 52 0 60 -3 60 -19 0 -20 -49
-31 -146 -31 -34 0 -54 -4 -54 -12 0 -8 39 -9 148 -4 258 11 313 17 301 32 -8
10 -34 12 -110 7 -97 -6 -99 -5 -99 15 0 19 6 22 38 22 20 0 47 3 59 6 39 11
14 24 -43 24 -39 0 -54 4 -54 14 0 24 86 36 108 14 14 -14 38 3 48 35 4 12 17
44 30 71 13 28 20 54 16 58 -16 16 -67 25 -97 17z m25 -50 c0 -7 -5 -29 -12
-50 l-11 -39 -54 0 -55 0 3 43 c1 23 4 45 6 50 7 12 123 8 123 -4z m-170 -44
c0 -39 -3 -45 -24 -51 -13 -3 -38 -4 -56 -2 -29 3 -34 8 -46 48 -8 25 -14 46
-14 48 0 1 32 2 70 2 l70 0 0 -45z"/>
<path d="M546 505 c-15 -19 -25 -35 -23 -35 8 0 87 41 87 45 0 2 -9 9 -19 14
-16 9 -23 5 -45 -24z"/>
<path d="M350 512 c0 -15 45 -52 63 -52 20 0 23 23 5 37 -18 14 -68 25 -68 15z"/>
<path d="M520 264 c0 -19 37 -64 52 -64 23 0 24 33 2 54 -15 15 -54 22 -54 10z"/>
<path d="M680 262 c0 -4 21 -29 47 -55 42 -43 48 -46 62 -32 21 20 7 43 -45
72 -40 23 -64 29 -64 15z"/>
<path d="M350 256 c0 -19 34 -76 43 -73 16 5 12 58 -5 69 -13 8 -38 11 -38 4z"/>
<path d="M186 221 c-28 -29 -32 -61 -9 -68 18 -6 53 38 53 69 0 35 -9 35 -44
-1z"/>
<path d="M447 180 l6 -40 -62 0 c-34 0 -61 -4 -61 -10 0 -6 29 -10 66 -10 l65
0 -3 -27 c-3 -27 -6 -28 -63 -30 -117 -5 -189 -15 -174 -24 14 -9 510 -2 539
8 12 4 11 7 -5 19 -16 12 -42 14 -138 8 l-119 -7 4 28 c3 24 8 28 38 31 70 7
101 15 94 25 -4 6 -32 9 -68 7 -58 -3 -61 -2 -61 20 -1 25 -19 42 -47 42 -13
0 -15 -7 -11 -40z"/>
</g>
</svg>
