<?xml version="1.0" standalone="no"?>
<!DOCTYPE svg PUBLIC "-//W3C//DTD SVG 20010904//EN"
 "http://www.w3.org/TR/2001/REC-SVG-20010904/DTD/svg10.dtd">
<svg version="1.0" xmlns="http://www.w3.org/2000/svg"
 width="96.000000pt" height="68.000000pt" viewBox="0 0 96.000000 68.000000"
 preserveAspectRatio="xMidYMid meet">
<metadata>
Created by potrace 1.16, written by Peter Selinger 2001-2019
</metadata>
<g transform="translate(0.000000,68.000000) scale(0.100000,-0.100000)"
fill="#000000" stroke="none">
<path d="M665 590 c-16 -4 -54 -8 -84 -9 -51 -1 -53 -2 -46 -23 4 -13 10 -52
13 -88 6 -49 11 -64 21 -62 8 2 43 7 78 11 l63 7 0 -155 c0 -192 -3 -204 -41
-196 -44 10 -34 -12 21 -48 25 -16 27 -16 45 6 19 21 20 38 20 282 0 143 -4
266 -9 273 -9 13 -34 14 -81 2z m45 -45 c0 -29 -4 -31 -77 -40 l-53 -6 0 36 0
35 65 0 c63 0 65 -1 65 -25z m3 -75 c4 -14 0 -20 -11 -20 -10 0 -41 -3 -69 -6
-49 -6 -53 -5 -53 14 0 23 15 29 81 31 39 1 48 -2 52 -19z"/>
<path d="M310 570 c-14 -4 -49 -8 -78 -9 l-54 -1 7 -40 c13 -76 8 -264 -10
-342 -13 -59 -14 -81 -5 -98 6 -12 16 -20 23 -17 17 5 25 50 32 189 l7 127 33
7 c18 3 47 3 64 -1 22 -5 32 -3 35 7 2 7 12 40 22 73 10 33 20 65 22 72 2 6
-10 19 -27 27 -33 17 -35 18 -71 6z m30 -55 c0 -21 -5 -25 -27 -25 -16 0 -38
-3 -50 -6 -20 -5 -23 -2 -23 19 0 27 13 33 73 36 23 1 27 -3 27 -24z m-8 -70
c-3 -20 -10 -25 -32 -25 -16 0 -35 -3 -44 -6 -12 -5 -16 0 -16 19 0 23 5 26
43 30 23 2 45 4 48 5 3 1 4 -9 1 -23z"/>
<path d="M527 370 c-11 -13 -13 -20 -4 -20 17 1 48 26 40 33 -10 11 -17 8 -36
-13z"/>
<path d="M345 355 l-30 -13 28 -1 c22 -1 28 -5 25 -18 -3 -14 -12 -17 -43 -16
l-38 3 22 -24 22 -24 -28 -26 c-15 -14 -22 -26 -15 -26 18 0 142 119 142 136
0 25 -40 30 -85 9z"/>
<path d="M470 351 c0 -5 10 -16 23 -24 12 -9 45 -36 72 -61 53 -48 75 -57 75
-30 0 17 -36 54 -52 54 -18 0 -7 21 17 30 16 6 23 14 19 25 -8 20 -13 19 -41
-7 l-23 -22 -45 22 c-25 12 -45 18 -45 13z"/>
<path d="M475 265 c-5 -2 -32 -7 -60 -11 -41 -6 -45 -8 -25 -13 15 -4 26 -15
28 -28 3 -20 -3 -23 -57 -29 -71 -8 -72 -24 -1 -24 61 0 59 -17 -6 -51 -24
-13 -44 -27 -44 -31 0 -16 74 19 108 53 35 34 44 38 115 44 42 4 77 11 77 15
0 13 -39 19 -93 13 -48 -5 -53 -4 -53 15 0 15 9 23 28 27 31 7 39 25 11 24
-10 0 -22 -2 -28 -4z"/>
<path d="M526 115 c44 -38 64 -44 64 -17 0 11 -14 25 -35 35 -60 28 -72 21
-29 -18z"/>
</g>
</svg>
