<?xml version="1.0" standalone="no"?>
<!DOCTYPE svg PUBLIC "-//W3C//DTD SVG 20010904//EN"
 "http://www.w3.org/TR/2001/REC-SVG-20010904/DTD/svg10.dtd">
<svg version="1.0" xmlns="http://www.w3.org/2000/svg"
 width="96.000000pt" height="68.000000pt" viewBox="0 0 96.000000 68.000000"
 preserveAspectRatio="xMidYMid meet">
<metadata>
Created by potrace 1.16, written by Peter Selinger 2001-2019
</metadata>
<g transform="translate(0.000000,68.000000) scale(0.100000,-0.100000)"
fill="#000000" stroke="none">
<path d="M297 539 c-14 -37 -38 -70 -87 -120 -38 -38 -66 -69 -62 -69 12 0 99
56 106 69 4 6 11 11 17 11 11 0 12 -105 0 -145 -10 -35 3 -79 21 -73 19 6 32
196 17 225 -10 19 -8 27 17 59 51 63 51 64 30 80 -31 23 -40 17 -59 -37z"/>
</g>
</svg>
