<?xml version="1.0" standalone="no"?>
<!DOCTYPE svg PUBLIC "-//W3C//DTD SVG 20010904//EN"
 "http://www.w3.org/TR/2001/REC-SVG-20010904/DTD/svg10.dtd">
<svg version="1.0" xmlns="http://www.w3.org/2000/svg"
 width="90.000000pt" height="92.000000pt" viewBox="0 0 90.000000 92.000000"
 preserveAspectRatio="xMidYMid meet">
<metadata>
Created by potrace 1.16, written by Peter Selinger 2001-2019
</metadata>
<g transform="translate(0.000000,92.000000) scale(0.100000,-0.100000)"
fill="#000000" stroke="none">
<path d="M395 743 c-77 -13 -155 -26 -172 -29 -41 -6 -42 -18 -3 -34 23 -9 46
-10 90 -3 46 7 63 7 71 -3 6 -7 13 -53 16 -102 l6 -89 -59 -6 c-33 -4 -114
-12 -182 -18 -128 -12 -140 -19 -86 -51 26 -14 36 -15 94 -3 36 8 102 18 148
23 l82 8 0 -108 0 -108 -27 0 c-51 0 -203 -23 -203 -30 0 -4 12 -15 26 -25 25
-16 32 -16 128 0 57 10 164 19 244 20 78 1 146 5 149 9 4 4 -3 17 -15 29 -25
24 -75 28 -184 14 l-58 -7 0 104 0 103 46 7 c26 3 107 6 180 6 73 0 135 4 139
9 3 5 -7 19 -22 31 -30 24 -47 24 -275 3 l-68 -6 0 60 c0 33 5 74 11 92 8 23
8 35 0 45 -9 11 -2 15 35 20 26 3 69 6 95 6 55 0 65 17 27 44 -28 20 -60 19
-233 -11z"/>
</g>
</svg>
