<?xml version="1.0" standalone="no"?>
<!DOCTYPE svg PUBLIC "-//W3C//DTD SVG 20010904//EN"
 "http://www.w3.org/TR/2001/REC-SVG-20010904/DTD/svg10.dtd">
<svg version="1.0" xmlns="http://www.w3.org/2000/svg"
 width="96.000000pt" height="68.000000pt" viewBox="0 0 96.000000 68.000000"
 preserveAspectRatio="xMidYMid meet">
<metadata>
Created by potrace 1.16, written by Peter Selinger 2001-2019
</metadata>
<g transform="translate(0.000000,68.000000) scale(0.100000,-0.100000)"
fill="#000000" stroke="none">
<path d="M582 583 c5 -76 2 -82 -49 -85 -59 -4 -63 -22 -6 -26 l43 -3 -15 -29
c-8 -16 -15 -39 -15 -51 0 -18 2 -20 16 -9 8 8 27 33 41 57 23 40 28 43 66 43
57 0 117 11 117 21 0 15 -68 27 -105 19 -40 -9 -41 -8 -18 27 16 25 16 26 -6
44 -13 11 -34 19 -47 19 -20 0 -24 -5 -22 -27z"/>
<path d="M290 560 c0 -6 7 -25 16 -41 8 -17 14 -33 12 -35 -2 -2 -37 -7 -76
-10 -40 -4 -72 -11 -72 -15 0 -5 11 -16 25 -25 20 -13 31 -14 53 -6 15 6 41
14 59 17 29 6 32 4 43 -29 17 -52 40 -47 40 9 0 38 3 45 19 45 28 0 52 11 45
21 -3 5 -23 6 -45 3 l-39 -7 0 36 c0 37 -12 47 -56 47 -13 0 -24 -5 -24 -10z"/>
<path d="M490 350 c-85 -10 -179 -19 -207 -19 -53 -1 -63 -7 -42 -28 7 -7 20
-56 30 -109 17 -89 35 -127 49 -104 3 4 52 11 110 14 58 4 120 9 138 12 28 4
35 1 50 -25 9 -17 22 -31 28 -31 22 0 44 49 60 137 8 48 20 98 24 110 11 26
-13 51 -56 57 -16 2 -99 -4 -184 -14z m154 -16 c11 -4 16 -19 16 -44 l0 -37
-80 -2 -80 -2 2 40 c1 38 3 40 37 44 66 7 89 7 105 1z m-200 -30 c3 -9 6 -26
6 -39 0 -27 -22 -35 -97 -35 -52 0 -53 0 -53 30 0 17 0 33 0 38 -1 8 50 19
101 21 25 1 39 -4 43 -15z m206 -96 c-1 -62 -7 -68 -81 -68 l-69 0 0 39 0 40
48 4 c106 8 102 9 102 -15z m-192 -40 l3 -36 -66 -7 c-36 -4 -68 -6 -70 -3 -2
2 -7 23 -11 46 l-7 43 74 -3 73 -3 4 -37z"/>
</g>
</svg>
