<?xml version="1.0" standalone="no"?>
<!DOCTYPE svg PUBLIC "-//W3C//DTD SVG 20010904//EN"
 "http://www.w3.org/TR/2001/REC-SVG-20010904/DTD/svg10.dtd">
<svg version="1.0" xmlns="http://www.w3.org/2000/svg"
 width="96.000000pt" height="68.000000pt" viewBox="0 0 96.000000 68.000000"
 preserveAspectRatio="xMidYMid meet">
<metadata>
Created by potrace 1.16, written by Peter Selinger 2001-2019
</metadata>
<g transform="translate(0.000000,68.000000) scale(0.100000,-0.100000)"
fill="#000000" stroke="none">
<path d="M434 204 c3 -8 2 -13 -3 -10 -7 5 -21 -15 -21 -30 0 -6 38 1 46 8 3
4 13 4 22 2 14 -5 14 -4 0 6 -10 6 -18 18 -18 25 0 8 -7 15 -16 15 -10 0 -14
-5 -10 -16z"/>
<path d="M540 188 c0 -4 4 -8 9 -8 6 0 12 4 15 8 3 5 -1 9 -9 9 -8 0 -15 -4
-15 -9z"/>
<path d="M378 173 c7 -3 16 -2 19 1 4 3 -2 6 -13 5 -11 0 -14 -3 -6 -6z"/>
<path d="M397 119 c-21 -22 -30 -36 -20 -30 20 10 66 61 61 66 -2 2 -20 -15
-41 -36z"/>
<path d="M500 125 c0 -2 17 -15 37 -29 37 -25 63 -26 40 -2 -9 10 -14 11 -19
2 -5 -7 -8 -5 -8 6 0 11 -5 15 -15 12 -8 -4 -15 -1 -15 5 0 6 -4 11 -10 11 -5
0 -10 -2 -10 -5z"/>
</g>
</svg>
