<?xml version="1.0" standalone="no"?>
<!DOCTYPE svg PUBLIC "-//W3C//DTD SVG 20010904//EN"
 "http://www.w3.org/TR/2001/REC-SVG-20010904/DTD/svg10.dtd">
<svg version="1.0" xmlns="http://www.w3.org/2000/svg"
 width="90.000000pt" height="92.000000pt" viewBox="0 0 90.000000 92.000000"
 preserveAspectRatio="xMidYMid meet">
<metadata>
Created by potrace 1.16, written by Peter Selinger 2001-2019
</metadata>
<g transform="translate(0.000000,92.000000) scale(0.100000,-0.100000)"
fill="#000000" stroke="none">
<path d="M669 835 c-12 -11 -248 -41 -268 -33 -32 11 -46 0 -26 -22 8 -9 22
-52 29 -94 13 -75 33 -116 43 -88 3 6 15 12 28 12 69 0 225 24 222 34 -5 14
37 98 57 115 9 8 16 17 16 22 0 18 -89 66 -101 54z m-7 -84 c-7 -69 -15 -78
-85 -90 -35 -6 -77 -11 -94 -11 -30 0 -31 2 -38 51 -4 27 -5 53 -2 55 9 10
151 33 187 31 34 -2 35 -3 32 -36z"/>
<path d="M157 774 c-3 -4 -1 -16 5 -28 6 -11 12 -64 12 -116 l1 -95 -58 -10
c-32 -5 -59 -14 -60 -20 -1 -6 26 -11 61 -13 l63 -3 -3 -92 -3 -91 -76 -27
c-65 -22 -75 -28 -67 -42 5 -10 21 -23 36 -31 26 -13 31 -11 151 73 127 87
171 132 92 91 -92 -46 -87 -49 -81 49 4 76 7 86 25 89 57 10 95 24 95 37 0 17
-33 28 -60 21 -11 -3 -29 -9 -40 -12 -18 -5 -20 -1 -20 33 1 40 13 107 25 135
11 28 -76 74 -98 52z"/>
<path d="M645 564 c-31 -24 -113 -64 -195 -96 l-75 -29 55 5 c30 3 65 8 76 11
24 7 34 -14 34 -72 0 -31 0 -31 -72 -43 -103 -16 -108 -19 -74 -37 27 -14 90
-12 132 4 11 4 14 -8 14 -55 l0 -59 -77 -7 c-168 -14 -191 -22 -133 -46 23
-10 47 -10 106 -1 42 6 154 16 250 23 136 9 174 14 174 25 0 27 -62 43 -126
34 -33 -5 -78 -12 -101 -15 l-43 -6 0 59 0 59 90 8 c50 3 90 10 90 15 0 5 -11
16 -25 25 -19 13 -37 15 -75 10 -28 -4 -56 -9 -63 -11 -9 -4 -12 11 -12 55 l0
61 40 9 c22 6 53 14 69 18 41 10 43 28 4 52 -39 24 -38 24 -63 4z"/>
</g>
</svg>
