<?xml version="1.0" standalone="no"?>
<!DOCTYPE svg PUBLIC "-//W3C//DTD SVG 20010904//EN"
 "http://www.w3.org/TR/2001/REC-SVG-20010904/DTD/svg10.dtd">
<svg version="1.0" xmlns="http://www.w3.org/2000/svg"
 width="96.000000pt" height="68.000000pt" viewBox="0 0 96.000000 68.000000"
 preserveAspectRatio="xMidYMid meet">
<metadata>
Created by potrace 1.16, written by Peter Selinger 2001-2019
</metadata>
<g transform="translate(0.000000,68.000000) scale(0.100000,-0.100000)"
fill="#000000" stroke="none">
<path d="M445 213 c-4 -49 -12 -96 -17 -106 -11 -22 -2 -67 13 -67 11 0 139
98 139 106 0 3 -12 -2 -27 -9 -16 -8 -38 -18 -51 -22 l-23 -7 3 96 c3 84 1 96
-14 96 -13 0 -17 -16 -23 -87z"/>
<path d="M659 257 l-36 -41 -32 27 c-18 15 -42 27 -54 27 -21 0 -20 -1 3 -17
14 -9 64 -54 111 -100 48 -45 95 -83 105 -83 36 0 94 13 94 20 0 4 -28 17 -62
30 -35 12 -85 38 -112 58 l-48 35 61 25 c58 24 60 26 44 44 -23 26 -34 22 -74
-25z"/>
</g>
</svg>
