<?xml version="1.0" standalone="no"?>
<!DOCTYPE svg PUBLIC "-//W3C//DTD SVG 20010904//EN"
 "http://www.w3.org/TR/2001/REC-SVG-20010904/DTD/svg10.dtd">
<svg version="1.0" xmlns="http://www.w3.org/2000/svg"
 width="96.000000pt" height="68.000000pt" viewBox="0 0 96.000000 68.000000"
 preserveAspectRatio="xMidYMid meet">
<metadata>
Created by potrace 1.16, written by Peter Selinger 2001-2019
</metadata>
<g transform="translate(0.000000,68.000000) scale(0.100000,-0.100000)"
fill="#000000" stroke="none">
<path d="M415 584 c-233 -27 -221 -25 -201 -36 11 -6 50 -8 93 -5 l74 6 -34
-42 c-30 -36 -60 -60 -173 -135 -17 -11 -17 -12 6 -6 80 20 265 150 254 178
-4 11 20 15 115 21 67 4 121 11 121 15 0 23 -82 25 -255 4z"/>
</g>
</svg>
