<?xml version="1.0" standalone="no"?>
<!DOCTYPE svg PUBLIC "-//W3C//DTD SVG 20010904//EN"
 "http://www.w3.org/TR/2001/REC-SVG-20010904/DTD/svg10.dtd">
<svg version="1.0" xmlns="http://www.w3.org/2000/svg"
 width="96.000000pt" height="68.000000pt" viewBox="0 0 96.000000 68.000000"
 preserveAspectRatio="xMidYMid meet">
<metadata>
Created by potrace 1.16, written by Peter Selinger 2001-2019
</metadata>
<g transform="translate(0.000000,68.000000) scale(0.100000,-0.100000)"
fill="#000000" stroke="none">
<path d="M234 568 c4 -13 9 -53 13 -89 l6 -67 -54 -7 c-30 -3 -62 -9 -73 -12
-34 -9 5 -23 67 -23 l58 0 -3 -41 -3 -41 -80 -34 c-76 -32 -91 -48 -62 -66 23
-15 49 -8 93 24 24 17 45 29 47 27 2 -2 1 -31 -2 -64 l-6 -60 -40 3 -40 3 50
-49 50 -49 22 30 c20 27 23 43 23 129 0 95 1 100 28 124 l27 25 -27 -4 c-25
-4 -28 -1 -28 24 0 30 3 33 41 42 21 6 25 3 25 -15 -2 -37 23 -32 40 9 21 49
28 53 96 53 l57 0 3 -32 c2 -18 -1 -47 -6 -64 -10 -38 0 -87 17 -81 8 2 13 34
15 92 2 49 7 92 12 95 13 8 160 13 160 5 0 -3 -5 -15 -11 -26 -10 -20 -8 -20
38 -13 71 10 80 22 41 51 -30 22 -39 24 -98 19 -36 -4 -80 -9 -97 -12 -32 -6
-33 -5 -33 30 l0 36 50 0 c38 0 50 4 50 15 0 18 -15 19 -134 3 -104 -13 -135
-28 -58 -28 l52 0 0 -36 0 -36 -85 3 c-81 4 -84 3 -90 -20 -5 -18 -11 -22 -28
-17 -12 3 -30 6 -39 6 -21 0 -23 22 -6 86 12 42 11 47 -7 60 -10 8 -32 14 -48
14 -26 0 -29 -3 -23 -22z"/>
<path d="M650 405 c-30 -32 -22 -39 23 -20 42 17 44 21 18 34 -14 8 -23 5 -41
-14z"/>
<path d="M470 380 c31 -24 53 -26 48 -2 -2 11 -14 18 -38 20 l-35 3 25 -21z"/>
<path d="M457 320 c-45 -16 -47 -18 -32 -33 19 -20 37 -13 74 27 28 30 25 30
-42 6z"/>
<path d="M649 316 c26 -28 71 -36 71 -12 0 19 -7 23 -55 31 l-40 8 24 -27z"/>
<path d="M605 238 c-38 -5 -101 -7 -138 -5 -60 4 -67 2 -61 -12 4 -9 13 -47
21 -86 20 -97 21 -99 36 -87 7 6 60 14 118 18 103 7 106 6 112 -15 6 -24 38
-28 56 -7 7 8 17 45 22 83 5 37 11 73 14 80 6 18 -40 43 -77 42 -18 -1 -64 -6
-103 -11z m113 -45 c3 -22 0 -23 -52 -23 -53 0 -56 1 -56 26 0 24 2 25 53 22
45 -3 52 -6 55 -25z m-158 -8 c0 -23 -3 -25 -50 -25 -42 0 -50 3 -50 18 0 27
9 32 57 32 39 0 43 -2 43 -25z m160 -60 l0 -35 -57 3 c-51 2 -58 5 -61 24 -4
24 17 32 106 42 7 0 12 -12 12 -34z m-160 -15 c0 -29 -2 -30 -44 -30 -37 0
-46 4 -51 21 -9 27 8 39 58 39 35 0 37 -2 37 -30z"/>
</g>
</svg>
