<?xml version="1.0" standalone="no"?>
<!DOCTYPE svg PUBLIC "-//W3C//DTD SVG 20010904//EN"
 "http://www.w3.org/TR/2001/REC-SVG-20010904/DTD/svg10.dtd">
<svg version="1.0" xmlns="http://www.w3.org/2000/svg"
 width="96.000000pt" height="68.000000pt" viewBox="0 0 96.000000 68.000000"
 preserveAspectRatio="xMidYMid meet">
<metadata>
Created by potrace 1.16, written by Peter Selinger 2001-2019
</metadata>
<g transform="translate(0.000000,68.000000) scale(0.100000,-0.100000)"
fill="#000000" stroke="none">
<path d="M515 564 c9 -14 15 -27 13 -29 -2 -2 -48 -8 -103 -14 -55 -6 -115
-14 -134 -17 -33 -5 -33 -6 -12 -20 16 -11 21 -26 21 -57 -1 -115 -64 -287
-135 -366 -57 -63 -17 -50 44 14 68 72 95 134 121 280 12 66 26 123 32 126 11
7 173 25 311 35 48 3 87 10 87 14 0 16 -41 22 -115 15 -71 -7 -75 -6 -75 13 0
21 -18 32 -52 32 -20 0 -20 -1 -3 -26z"/>
<path d="M181 379 c24 -35 46 -46 60 -32 16 16 0 41 -33 52 -47 17 -51 14 -27
-20z"/>
<path d="M170 259 c-64 -35 -69 -43 -40 -59 18 -10 26 -8 47 12 31 29 67 78
56 77 -4 0 -33 -14 -63 -30z"/>
</g>
</svg>
