<?xml version="1.0" standalone="no"?>
<!DOCTYPE svg PUBLIC "-//W3C//DTD SVG 20010904//EN"
 "http://www.w3.org/TR/2001/REC-SVG-20010904/DTD/svg10.dtd">
<svg version="1.0" xmlns="http://www.w3.org/2000/svg"
 width="96.000000pt" height="68.000000pt" viewBox="0 0 96.000000 68.000000"
 preserveAspectRatio="xMidYMid meet">
<metadata>
Created by potrace 1.16, written by Peter Selinger 2001-2019
</metadata>
<g transform="translate(0.000000,68.000000) scale(0.100000,-0.100000)"
fill="#000000" stroke="none">
<path d="M780 122 c39 -34 46 -37 56 -21 10 16 -17 38 -56 45 l-35 6 35 -30z"/>
<path d="M610 132 c0 -14 23 -32 42 -32 22 0 24 26 2 34 -22 8 -44 7 -44 -2z"/>
<path d="M454 98 c-10 -21 -14 -44 -10 -55 7 -17 9 -16 27 6 21 25 24 48 10
70 -7 12 -13 7 -27 -21z"/>
<path d="M525 109 c25 -81 156 -124 252 -84 39 17 38 20 -20 55 l-39 23 4 -24
c3 -20 -2 -24 -32 -29 -60 -10 -118 7 -135 40 -20 38 -40 51 -30 19z"/>
</g>
</svg>
