<?xml version="1.0" standalone="no"?>
<!DOCTYPE svg PUBLIC "-//W3C//DTD SVG 20010904//EN"
 "http://www.w3.org/TR/2001/REC-SVG-20010904/DTD/svg10.dtd">
<svg version="1.0" xmlns="http://www.w3.org/2000/svg"
 width="90.000000pt" height="92.000000pt" viewBox="0 0 90.000000 92.000000"
 preserveAspectRatio="xMidYMid meet">
<metadata>
Created by potrace 1.16, written by Peter Selinger 2001-2019
</metadata>
<g transform="translate(0.000000,92.000000) scale(0.100000,-0.100000)"
fill="#000000" stroke="none">
<path d="M316 863 c-3 -4 -6 -17 -6 -30 0 -30 -50 -131 -104 -208 -57 -82 -59
-85 -47 -85 6 0 39 26 73 58 59 53 66 57 113 57 l49 0 8 -45 c5 -25 7 -63 6
-85 l-3 -40 -100 -12 c-55 -6 -131 -13 -170 -14 -116 -4 -133 -15 -64 -43 37
-15 47 -15 117 0 42 8 110 18 150 21 l72 6 -2 -201 c-2 -154 0 -204 10 -214
11 -10 14 -10 22 2 15 25 28 162 29 318 l1 102 173 0 c188 0 218 7 178 40 -36
31 -60 33 -175 16 -119 -18 -162 -20 -170 -8 -2 4 -1 39 4 77 8 58 6 72 -6 81
-21 17 -3 22 106 30 99 8 116 22 54 46 -32 13 -47 12 -170 -15 -74 -16 -137
-27 -140 -24 -5 5 20 46 62 105 13 17 14 25 5 36 -14 17 -67 37 -75 29z"/>
</g>
</svg>
