<?xml version="1.0" standalone="no"?>
<!DOCTYPE svg PUBLIC "-//W3C//DTD SVG 20010904//EN"
 "http://www.w3.org/TR/2001/REC-SVG-20010904/DTD/svg10.dtd">
<svg version="1.0" xmlns="http://www.w3.org/2000/svg"
 width="90.000000pt" height="92.000000pt" viewBox="0 0 90.000000 92.000000"
 preserveAspectRatio="xMidYMid meet">
<metadata>
Created by potrace 1.16, written by Peter Selinger 2001-2019
</metadata>
<g transform="translate(0.000000,92.000000) scale(0.100000,-0.100000)"
fill="#000000" stroke="none">
<path d="M185 830 c-3 -5 -1 -28 5 -52 5 -24 10 -77 10 -119 0 -87 5 -82 -103
-95 -85 -10 -67 -29 27 -29 l77 0 -3 -60 -3 -60 -97 -55 c-74 -42 -97 -60 -98
-76 0 -12 9 -25 23 -31 19 -9 31 -2 96 53 41 35 76 62 78 60 7 -6 -9 -184 -18
-197 -6 -10 -16 -10 -43 -2 -20 6 -36 8 -36 5 1 -4 23 -32 50 -62 43 -48 51
-53 63 -40 28 29 34 75 29 204 l-5 129 44 38 c51 43 48 60 -5 28 l-36 -21 0
50 0 50 45 6 c25 4 45 11 45 16 0 14 -38 31 -62 28 -20 -3 -22 1 -19 55 1 33
9 76 16 97 12 34 12 40 -3 53 -24 22 -70 38 -77 27z"/>
<path d="M475 818 c3 -13 9 -57 12 -99 5 -74 5 -76 -18 -82 -13 -4 -43 -7 -66
-7 -43 0 -63 -13 -41 -26 7 -5 39 -7 72 -7 l59 2 -6 -97 c-10 -165 -43 -246
-137 -340 -69 -70 -58 -84 23 -32 53 33 97 96 129 183 l21 58 20 -33 c44 -74
113 -173 143 -205 25 -26 39 -33 70 -33 56 0 114 11 114 21 0 5 -33 25 -74 44
-82 40 -145 91 -217 178 l-49 58 5 82 c10 130 4 121 89 136 77 12 100 26 75
43 -14 9 -52 6 -118 -8 l-34 -7 5 86 c4 82 3 86 -19 96 -13 6 -33 11 -45 11
-16 0 -19 -4 -13 -22z"/>
<path d="M646 574 c-3 -9 -6 -24 -6 -33 0 -10 -18 -46 -40 -79 -43 -68 -39
-78 13 -32 l34 29 38 -39 c46 -48 68 -52 63 -12 -3 24 -33 49 -83 65 -5 2 3
18 18 36 32 38 34 57 8 71 -27 14 -38 13 -45 -6z"/>
<path d="M376 538 c-3 -7 -7 -24 -10 -38 -3 -14 -24 -49 -46 -78 -22 -29 -40
-55 -40 -57 0 -13 60 27 80 52 l22 28 30 -38 c35 -43 48 -47 48 -13 0 15 -11
33 -30 48 l-31 24 22 28 c22 28 22 29 4 42 -23 17 -44 18 -49 2z"/>
</g>
</svg>
