<?xml version="1.0" standalone="no"?>
<!DOCTYPE svg PUBLIC "-//W3C//DTD SVG 20010904//EN"
 "http://www.w3.org/TR/2001/REC-SVG-20010904/DTD/svg10.dtd">
<svg version="1.0" xmlns="http://www.w3.org/2000/svg"
 width="90.000000pt" height="92.000000pt" viewBox="0 0 90.000000 92.000000"
 preserveAspectRatio="xMidYMid meet">
<metadata>
Created by potrace 1.16, written by Peter Selinger 2001-2019
</metadata>
<g transform="translate(0.000000,92.000000) scale(0.100000,-0.100000)"
fill="#000000" stroke="none">
<path d="M165 803 c12 -96 14 -159 6 -171 -5 -9 -32 -14 -80 -15 -39 -1 -71
-3 -71 -4 0 -2 7 -14 15 -27 9 -13 22 -65 29 -116 14 -93 29 -129 42 -97 4 11
17 17 37 17 l30 0 -8 -112 c-11 -154 -9 -188 8 -205 29 -29 40 19 41 176 1
144 1 146 24 149 13 2 29 -2 37 -8 8 -6 18 -9 23 -6 6 3 22 56 37 118 l27 112
-23 19 c-19 15 -33 18 -74 12 l-51 -6 8 88 c7 77 6 90 -9 101 -9 6 -25 12 -35
12 -15 0 -17 -6 -13 -37z m131 -208 c4 -8 3 -26 0 -39 -5 -22 -11 -25 -46 -23
-38 1 -40 3 -40 33 0 18 6 35 13 37 26 11 68 6 73 -8z m-120 -32 c-3 -37 -5
-38 -45 -41 -41 -3 -41 -3 -41 32 0 33 2 35 38 39 20 2 40 4 44 5 4 1 6 -15 4
-35z m110 -107 c-4 -18 -13 -23 -41 -24 -33 -1 -35 0 -35 33 0 32 2 34 38 37
40 3 48 -7 38 -46z m-116 -1 c0 -32 -3 -35 -29 -35 -21 0 -30 6 -35 23 -11 41
-7 47 29 47 33 0 35 -2 35 -35z"/>
<path d="M600 824 c-25 -8 -78 -16 -117 -17 -40 -1 -73 -5 -73 -8 0 -4 6 -22
14 -40 7 -19 17 -65 21 -104 4 -38 12 -79 17 -89 9 -17 12 -18 22 -4 13 18
143 33 161 18 20 -16 32 8 49 95 9 44 19 91 22 105 5 22 0 28 -31 43 -19 9
-37 17 -38 16 -1 0 -22 -7 -47 -15z m45 -67 l0 -38 -82 -4 -82 -4 -6 30 c-4
17 -5 32 -3 33 5 5 141 23 158 22 10 -1 15 -13 15 -39z m-5 -101 l0 -33 -71
-7 c-39 -4 -72 -6 -74 -4 -1 2 -6 17 -10 35 l-6 32 48 4 c120 9 113 11 113
-27z"/>
<path d="M685 540 c-22 -5 -106 -16 -187 -26 -82 -10 -148 -21 -148 -26 0 -14
36 -27 58 -21 12 3 22 1 22 -3 0 -18 -41 -75 -88 -124 -71 -74 -19 -65 63 11
23 21 37 26 58 22 15 -3 27 -10 27 -16 0 -6 -33 -43 -73 -84 -40 -40 -70 -73
-65 -73 44 0 204 139 194 167 -3 7 1 13 8 13 8 0 22 3 32 7 15 5 16 2 11 -26
-12 -57 -110 -181 -200 -252 -27 -22 -43 -39 -37 -39 22 0 114 58 156 98 68
65 144 174 144 205 0 26 3 28 33 25 29 -3 32 -6 35 -39 4 -44 -22 -148 -50
-202 -19 -38 -21 -39 -64 -34 -24 2 -44 3 -44 1 0 -14 67 -94 78 -94 8 0 29
15 47 33 36 36 58 98 76 207 5 35 17 79 25 97 18 36 14 47 -24 67 -23 12 -38
12 -100 0 -41 -8 -105 -18 -143 -22 -67 -8 -68 -8 -52 10 13 15 15 23 6 37
-11 17 -4 19 101 30 62 6 142 11 178 11 73 0 90 10 56 34 -24 17 -68 19 -133
6z"/>
</g>
</svg>
