<?xml version="1.0" standalone="no"?>
<!DOCTYPE svg PUBLIC "-//W3C//DTD SVG 20010904//EN"
 "http://www.w3.org/TR/2001/REC-SVG-20010904/DTD/svg10.dtd">
<svg version="1.0" xmlns="http://www.w3.org/2000/svg"
 width="90.000000pt" height="92.000000pt" viewBox="0 0 90.000000 92.000000"
 preserveAspectRatio="xMidYMid meet">
<metadata>
Created by potrace 1.16, written by Peter Selinger 2001-2019
</metadata>
<g transform="translate(0.000000,92.000000) scale(0.100000,-0.100000)"
fill="#000000" stroke="none">
<path d="M566 861 c-10 -11 -56 -39 -103 -62 -46 -24 -79 -45 -72 -48 16 -5
251 60 267 74 11 10 8 16 -16 34 -37 26 -54 26 -76 2z"/>
<path d="M645 751 c-3 -16 -20 -50 -36 -76 -16 -26 -25 -45 -19 -43 26 8 137
104 133 114 -4 11 -46 34 -63 34 -4 0 -11 -13 -15 -29z"/>
<path d="M180 747 c-30 -10 -72 -19 -93 -20 -20 -1 -38 -4 -38 -7 -1 -3 4 -25
11 -50 10 -35 10 -83 2 -218 -8 -127 -8 -179 0 -197 12 -28 28 -33 28 -10 0
11 11 15 39 15 22 0 46 3 55 6 11 4 21 -5 33 -30 19 -41 36 -45 57 -13 12 17
15 65 15 237 1 118 2 226 4 238 1 17 -7 31 -28 46 l-30 22 -55 -19z m58 -104
l3 -63 -34 0 c-19 0 -49 -3 -66 -6 l-31 -6 0 61 c0 55 3 63 23 71 12 5 40 8
62 7 l40 -2 3 -62z m2 -138 l0 -55 -32 0 c-18 0 -50 -4 -70 -9 -42 -10 -43 -8
-32 60 6 35 7 36 68 46 33 5 62 11 64 11 1 1 2 -23 2 -53z m0 -122 c0 -54 -10
-82 -25 -77 -7 3 -36 1 -64 -4 l-51 -9 0 58 0 58 48 4 c26 2 57 4 70 5 19 2
22 -3 22 -35z"/>
<path d="M479 702 c25 -49 48 -69 63 -54 17 17 0 60 -32 77 -45 23 -52 18 -31
-23z"/>
<path d="M350 700 c0 -19 50 -90 64 -90 29 0 25 52 -5 77 -22 17 -59 26 -59
13z"/>
<path d="M575 609 c-38 -11 -105 -22 -147 -25 -43 -4 -78 -11 -78 -15 0 -14
49 -22 101 -16 35 4 49 3 49 -6 0 -7 3 -22 6 -33 6 -21 2 -22 -90 -29 -101 -8
-123 -17 -83 -36 17 -8 46 -8 98 -1 41 5 75 8 77 7 2 -1 5 -18 9 -38 l5 -35
-71 -7 c-51 -5 -71 -11 -71 -21 0 -11 17 -14 70 -14 l70 0 -6 -87 c-8 -119 -7
-117 -55 -109 l-41 6 44 -50 c24 -27 46 -50 50 -50 4 0 16 10 28 22 18 20 20
35 20 149 l0 126 38 7 c20 3 52 6 70 6 30 0 42 12 23 24 -5 4 -5 22 1 45 9 34
14 39 46 45 21 3 57 6 82 6 l45 1 -29 25 c-24 21 -34 24 -72 18 -47 -7 -51 -2
-29 36 20 35 19 37 -15 55 -35 18 -55 18 -145 -6z m85 -64 c0 -21 -5 -35 -12
-35 -7 0 -30 -3 -51 -7 -37 -6 -38 -5 -31 21 5 20 2 28 -12 33 -15 6 -10 9 21
14 84 13 85 12 85 -26z m-15 -107 c-4 -18 -8 -33 -9 -34 0 -1 -18 -4 -38 -7
-38 -6 -38 -5 -38 28 0 35 9 42 63 44 27 1 28 -1 22 -31z"/>
</g>
</svg>
