<?xml version="1.0" standalone="no"?>
<!DOCTYPE svg PUBLIC "-//W3C//DTD SVG 20010904//EN"
 "http://www.w3.org/TR/2001/REC-SVG-20010904/DTD/svg10.dtd">
<svg version="1.0" xmlns="http://www.w3.org/2000/svg"
 width="96.000000pt" height="68.000000pt" viewBox="0 0 96.000000 68.000000"
 preserveAspectRatio="xMidYMid meet">
<metadata>
Created by potrace 1.16, written by Peter Selinger 2001-2019
</metadata>
<g transform="translate(0.000000,68.000000) scale(0.100000,-0.100000)"
fill="#000000" stroke="none">
<path d="M530 361 c0 -5 7 -16 15 -24 13 -13 13 -16 -1 -21 -8 -3 -12 -2 -9 4
3 6 1 10 -4 10 -6 0 -11 -5 -11 -11 0 -7 -10 -9 -26 -5 -17 5 -23 3 -19 -4 3
-5 19 -10 35 -10 28 0 29 -1 26 -50 -2 -28 1 -50 7 -50 5 0 4 -7 -3 -15 -7 -8
-10 -35 -8 -69 l4 -54 -30 4 c-28 3 -29 2 -13 -10 9 -7 17 -18 17 -25 0 -6 7
-11 16 -11 8 0 12 5 9 10 -3 6 1 10 9 10 9 0 17 8 18 18 4 53 3 222 -3 222 -3
0 -6 7 -6 15 0 8 4 15 8 15 16 0 3 55 -14 58 -9 2 -17 -1 -17 -7z"/>
<path d="M695 330 c-43 -6 -38 -7 33 -6 45 0 76 3 70 8 -14 8 -28 8 -103 -2z"/>
<path d="M584 319 c-3 -5 9 -9 25 -9 17 0 31 3 31 8 0 10 -49 12 -56 1z"/>
<path d="M373 299 c9 -5 32 -5 54 0 38 9 38 9 -16 9 -36 -1 -49 -4 -38 -9z"/>
</g>
</svg>
