<?xml version="1.0" standalone="no"?>
<!DOCTYPE svg PUBLIC "-//W3C//DTD SVG 20010904//EN"
 "http://www.w3.org/TR/2001/REC-SVG-20010904/DTD/svg10.dtd">
<svg version="1.0" xmlns="http://www.w3.org/2000/svg"
 width="90.000000pt" height="92.000000pt" viewBox="0 0 90.000000 92.000000"
 preserveAspectRatio="xMidYMid meet">
<metadata>
Created by potrace 1.16, written by Peter Selinger 2001-2019
</metadata>
<g transform="translate(0.000000,92.000000) scale(0.100000,-0.100000)"
fill="#000000" stroke="none">
<path d="M525 863 c-22 -8 -64 -15 -93 -16 -42 -2 -51 -5 -45 -17 3 -8 11 -53
18 -100 l11 -85 34 2 c19 1 60 3 90 5 l55 3 20 77 c11 42 23 80 28 84 13 14 7
24 -25 44 -38 23 -41 23 -93 3z m48 -42 c7 -29 -3 -36 -70 -47 -51 -8 -63 -7
-68 4 -12 31 -3 39 48 49 77 15 84 15 90 -6z m-7 -95 c-5 -19 -17 -28 -60 -40
-30 -9 -57 -16 -60 -16 -3 0 -6 16 -6 35 0 34 1 35 38 36 20 1 48 4 62 8 31
10 34 8 26 -23z"/>
<path d="M190 813 c0 -16 71 -84 83 -80 6 2 13 16 15 30 3 23 -2 30 -32 42
-38 16 -66 19 -66 8z"/>
<path d="M153 643 c44 -41 50 -44 64 -30 33 33 -16 77 -86 77 -25 0 -24 -3 22
-47z"/>
<path d="M670 649 c-19 -4 -107 -17 -195 -29 -195 -27 -196 -27 -171 -46 11
-8 30 -14 43 -14 36 0 28 -19 -32 -77 -62 -61 -51 -69 24 -18 59 41 99 48 81
14 -6 -11 -37 -45 -67 -75 -31 -30 -53 -54 -49 -54 36 0 183 121 170 141 -5 9
44 24 52 16 11 -11 -20 -53 -95 -130 -59 -61 -70 -76 -48 -68 52 20 113 69
156 125 35 45 41 59 31 70 -9 12 -5 16 24 21 63 12 70 -9 31 -94 -24 -50 -27
-53 -55 -47 -36 7 -37 1 -5 -46 l25 -37 -43 -5 c-128 -18 -300 -36 -333 -36
-35 0 -36 -1 -21 -17 8 -10 22 -46 30 -80 l14 -61 -99 -7 c-54 -4 -98 -11 -98
-17 0 -5 15 -15 33 -23 28 -12 48 -11 132 1 55 8 220 17 368 21 212 5 267 9
267 19 0 29 -60 47 -137 40 -40 -4 -73 -4 -73 -1 0 12 40 84 50 90 21 13 9 44
-24 65 l-35 21 24 35 c13 20 34 61 45 92 12 31 26 62 32 69 7 9 2 19 -16 38
-29 29 -37 30 -108 11 -67 -17 -188 -30 -170 -18 7 5 10 15 7 24 -5 12 11 17
95 27 55 6 122 11 148 11 26 0 57 3 70 6 55 15 -20 56 -78 43z m-70 -406 c0
-10 -6 -40 -13 -68 l-13 -50 -47 -3 c-26 -2 -47 -1 -47 1 0 2 9 30 20 62 11
31 17 61 14 66 -3 5 15 9 40 9 37 0 46 -3 46 -17z m-134 -55 c-4 -35 -8 -63
-9 -64 -1 -1 -17 -4 -34 -7 l-33 -6 0 53 c0 30 -3 61 -6 70 -5 13 2 16 41 16
l48 0 -7 -62z m-127 35 c5 -10 12 -39 16 -65 l7 -48 -46 0 c-32 0 -46 4 -46
14 0 7 -3 34 -6 59 -6 44 -6 46 22 50 16 2 32 5 36 6 4 0 12 -7 17 -16z"/>
<path d="M226 551 c-9 -16 -36 -49 -61 -74 -25 -25 -45 -51 -45 -57 0 -18 31
-80 40 -80 4 0 16 24 27 53 11 28 32 82 47 120 26 67 20 93 -8 38z"/>
</g>
</svg>
