<?xml version="1.0" standalone="no"?>
<!DOCTYPE svg PUBLIC "-//W3C//DTD SVG 20010904//EN"
 "http://www.w3.org/TR/2001/REC-SVG-20010904/DTD/svg10.dtd">
<svg version="1.0" xmlns="http://www.w3.org/2000/svg"
 width="96.000000pt" height="68.000000pt" viewBox="0 0 96.000000 68.000000"
 preserveAspectRatio="xMidYMid meet">
<metadata>
Created by potrace 1.16, written by Peter Selinger 2001-2019
</metadata>
<g transform="translate(0.000000,68.000000) scale(0.100000,-0.100000)"
fill="#000000" stroke="none">
<path d="M494 110 c-6 -47 -9 -50 -35 -50 -25 0 -29 5 -36 42 -5 27 -15 44
-25 46 -14 3 -15 -3 -6 -43 5 -26 8 -48 6 -50 -2 -3 -66 -7 -141 -11 -75 -4
-137 -11 -137 -15 0 -16 71 -20 175 -10 60 6 195 11 301 11 188 0 224 3 224
21 0 17 -67 25 -140 18 -41 -4 -98 -8 -127 -8 l-52 -1 19 46 c24 56 24 54 0
54 -16 0 -21 -9 -26 -50z"/>
</g>
</svg>
