<?xml version="1.0" standalone="no"?>
<!DOCTYPE svg PUBLIC "-//W3C//DTD SVG 20010904//EN"
 "http://www.w3.org/TR/2001/REC-SVG-20010904/DTD/svg10.dtd">
<svg version="1.0" xmlns="http://www.w3.org/2000/svg"
 width="96.000000pt" height="68.000000pt" viewBox="0 0 96.000000 68.000000"
 preserveAspectRatio="xMidYMid meet">
<metadata>
Created by potrace 1.16, written by Peter Selinger 2001-2019
</metadata>
<g transform="translate(0.000000,68.000000) scale(0.100000,-0.100000)"
fill="#000000" stroke="none">
<path d="M650 429 c-19 -5 -65 -10 -103 -10 -61 -2 -66 -4 -53 -18 8 -9 21
-34 28 -56 7 -22 18 -40 23 -40 57 2 184 18 182 24 -1 3 7 26 17 49 17 37 18
45 5 53 -17 11 -52 10 -99 -2z m40 -53 l0 -33 -61 -7 c-67 -8 -74 -5 -84 36
-7 26 -5 27 37 31 111 10 108 10 108 -27z"/>
</g>
</svg>
