<?xml version="1.0" standalone="no"?>
<!DOCTYPE svg PUBLIC "-//W3C//DTD SVG 20010904//EN"
 "http://www.w3.org/TR/2001/REC-SVG-20010904/DTD/svg10.dtd">
<svg version="1.0" xmlns="http://www.w3.org/2000/svg"
 width="90.000000pt" height="92.000000pt" viewBox="0 0 90.000000 92.000000"
 preserveAspectRatio="xMidYMid meet">
<metadata>
Created by potrace 1.16, written by Peter Selinger 2001-2019
</metadata>
<g transform="translate(0.000000,92.000000) scale(0.100000,-0.100000)"
fill="#000000" stroke="none">
<path d="M224 858 c4 -18 10 -54 13 -80 l6 -46 -49 -7 c-75 -10 -84 -15 -49
-31 17 -7 44 -11 63 -7 32 5 32 5 32 -36 l0 -41 -42 -2 c-24 -1 -60 -1 -81 0
-37 2 -38 2 -23 -21 9 -12 22 -58 31 -102 15 -80 27 -106 39 -86 4 6 20 11 37
11 26 0 29 -3 29 -33 l0 -34 -87 -12 c-125 -17 -143 -21 -143 -32 0 -26 47
-29 135 -10 49 11 90 19 91 18 0 -1 -3 -39 -9 -84 -7 -62 -7 -90 3 -113 28
-68 50 -20 50 109 l0 100 58 6 c97 10 106 13 91 32 -10 12 -25 14 -65 9 -29
-3 -59 -9 -68 -12 -13 -5 -16 1 -16 29 0 33 2 35 38 40 20 2 42 1 47 -4 18
-14 31 4 55 76 12 39 27 76 32 82 15 19 3 40 -33 58 -30 16 -48 16 -106 -1
-21 -6 -23 -3 -23 28 0 34 1 35 55 47 30 7 57 16 60 21 10 16 -34 31 -72 24
l-36 -7 6 51 c5 47 4 53 -20 72 -40 31 -57 27 -49 -12z m146 -285 c0 -27 -2
-28 -49 -28 -34 0 -47 4 -45 13 2 6 6 19 9 27 3 10 18 15 45 15 37 0 40 -2 40
-27z m-130 -12 c0 -25 -4 -29 -37 -34 -39 -7 -53 3 -53 35 0 13 11 18 43 21
23 2 43 4 45 5 1 1 2 -11 2 -27z m118 -69 c-9 -36 -10 -37 -49 -34 -33 4 -39
8 -39 27 0 19 8 24 48 33 26 5 48 10 48 11 1 0 -2 -16 -8 -37z m-118 -16 c0
-13 -7 -27 -16 -30 -27 -10 -54 -7 -54 8 0 8 -3 21 -6 30 -5 13 2 16 35 16 37
0 41 -3 41 -24z"/>
<path d="M656 806 c-4 -15 -30 -45 -63 -70 -49 -39 -60 -44 -91 -39 -32 6 -35
4 -26 -13 16 -34 9 -253 -10 -319 -19 -65 -60 -150 -84 -177 -22 -26 -4 -22
34 7 45 34 92 135 112 238 l16 85 49 7 c36 4 52 2 58 -7 5 -7 9 -115 9 -240 0
-141 4 -229 10 -233 22 -13 33 58 41 245 4 107 10 204 14 216 5 15 1 23 -17
31 -19 8 -10 12 60 23 45 7 82 15 82 18 0 11 -36 31 -57 32 -12 0 -72 -14
-133 -31 -61 -17 -114 -29 -117 -26 -3 3 -2 32 2 65 7 58 7 59 53 81 38 18
130 72 151 88 10 8 -26 33 -55 39 -28 5 -32 3 -38 -20z"/>
</g>
</svg>
