<?xml version="1.0" standalone="no"?>
<!DOCTYPE svg PUBLIC "-//W3C//DTD SVG 20010904//EN"
 "http://www.w3.org/TR/2001/REC-SVG-20010904/DTD/svg10.dtd">
<svg version="1.0" xmlns="http://www.w3.org/2000/svg"
 width="96.000000pt" height="68.000000pt" viewBox="0 0 96.000000 68.000000"
 preserveAspectRatio="xMidYMid meet">
<metadata>
Created by potrace 1.16, written by Peter Selinger 2001-2019
</metadata>
<g transform="translate(0.000000,68.000000) scale(0.100000,-0.100000)"
fill="#000000" stroke="none">
<path d="M310 281 c0 -28 -9 -31 -115 -44 -59 -6 -94 -15 -92 -21 4 -13 58
-13 139 -2 l57 8 -5 -63 c-4 -47 -2 -69 9 -83 25 -33 37 -9 37 73 0 86 3 90
75 91 17 0 36 4 44 9 23 15 -5 22 -59 15 -46 -6 -50 -5 -50 15 0 14 -6 21 -20
21 -13 0 -20 -7 -20 -19z"/>
</g>
</svg>
