<?xml version="1.0" standalone="no"?>
<!DOCTYPE svg PUBLIC "-//W3C//DTD SVG 20010904//EN"
 "http://www.w3.org/TR/2001/REC-SVG-20010904/DTD/svg10.dtd">
<svg version="1.0" xmlns="http://www.w3.org/2000/svg"
 width="90.000000pt" height="92.000000pt" viewBox="0 0 90.000000 92.000000"
 preserveAspectRatio="xMidYMid meet">
<metadata>
Created by potrace 1.16, written by Peter Selinger 2001-2019
</metadata>
<g transform="translate(0.000000,92.000000) scale(0.100000,-0.100000)"
fill="#000000" stroke="none">
<path d="M495 771 c-9 -53 -53 -145 -106 -219 -56 -78 -74 -87 -65 -33 5 33 3
42 -13 51 -42 22 -46 15 -46 -89 0 -55 -2 -101 -5 -104 -3 -2 -18 -7 -35 -10
l-30 -6 3 92 c2 51 7 139 11 197 4 59 4 110 -1 117 -5 6 -21 14 -35 18 -32 8
-51 -8 -34 -28 8 -10 11 -71 9 -208 l-3 -194 -34 -3 -34 -3 6 77 c6 64 4 80
-10 96 -27 30 -46 23 -39 -14 5 -30 -5 -125 -19 -168 -3 -9 3 -27 12 -39 17
-21 20 -21 49 -6 17 8 62 23 99 32 69 17 75 15 88 -22 2 -6 10 -5 20 3 14 12
36 119 29 143 -1 4 12 12 28 19 41 17 121 105 161 177 19 35 39 61 44 60 6 -2
50 -48 99 -103 l90 -99 53 2 c93 3 95 15 10 57 -94 47 -243 166 -239 191 4 19
-25 55 -44 55 -7 0 -15 -18 -19 -39z"/>
<path d="M508 542 c-38 -9 -68 -20 -68 -24 0 -15 43 -18 102 -7 72 14 101 26
93 40 -8 12 -47 10 -127 -9z"/>
<path d="M660 463 c-19 -8 -52 -15 -72 -15 -42 1 -43 0 -28 -26 6 -9 16 -39
23 -67 10 -38 16 -49 30 -47 35 6 10 -60 -65 -171 -50 -73 -23 -63 49 18 l50
55 61 -65 c67 -73 92 -82 92 -35 0 38 -35 73 -96 96 -24 9 -44 20 -44 24 0 4
9 19 20 33 18 23 19 27 4 41 -14 15 -13 16 15 16 27 0 31 3 26 23 -3 13 3 39
15 62 l21 40 -22 18 c-25 20 -33 20 -79 0z m22 -73 c-3 -33 -9 -41 -29 -46
-30 -8 -32 -5 -40 39 -6 37 1 43 52 46 18 1 20 -4 17 -39z"/>
<path d="M455 435 c-16 -8 -47 -14 -67 -15 -36 0 -49 -12 -29 -25 5 -3 15 -30
21 -61 10 -47 14 -54 31 -49 10 4 19 3 19 -2 0 -19 -45 -91 -89 -142 -43 -50
-44 -53 -16 -38 17 9 50 34 74 57 l45 41 31 -37 c33 -38 55 -40 55 -3 0 14
-13 26 -40 38 l-39 17 22 23 c21 21 21 23 5 35 -21 15 -13 26 18 26 17 0 22 4
17 15 -3 9 2 36 12 61 10 25 13 49 9 54 -18 16 -50 18 -79 5z m21 -67 c-8 -50
-4 -45 -39 -53 -29 -8 -28 -9 -31 62 -1 10 9 20 24 24 50 14 53 12 46 -33z"/>
</g>
</svg>
