<?xml version="1.0" standalone="no"?>
<!DOCTYPE svg PUBLIC "-//W3C//DTD SVG 20010904//EN"
 "http://www.w3.org/TR/2001/REC-SVG-20010904/DTD/svg10.dtd">
<svg version="1.0" xmlns="http://www.w3.org/2000/svg"
 width="96.000000pt" height="68.000000pt" viewBox="0 0 96.000000 68.000000"
 preserveAspectRatio="xMidYMid meet">
<metadata>
Created by potrace 1.16, written by Peter Selinger 2001-2019
</metadata>
<g transform="translate(0.000000,68.000000) scale(0.100000,-0.100000)"
fill="#000000" stroke="none">
<path d="M516 533 c-9 -35 -60 -116 -105 -166 -33 -36 -39 -64 -8 -32 9 8 18
15 20 15 11 0 65 59 96 103 36 53 46 53 97 -5 16 -18 47 -48 69 -65 33 -28 48
-33 92 -33 28 0 55 5 58 10 3 6 1 10 -6 10 -18 0 -167 77 -212 110 -22 16 -45
39 -51 52 -17 34 -42 34 -50 1z"/>
<path d="M205 398 l0 -153 -27 -3 c-31 -4 -32 -1 -19 66 7 37 6 45 -13 57 -28
21 -50 19 -42 -2 4 -10 1 -48 -5 -86 -12 -64 -11 -71 6 -83 12 -9 23 -10 35
-4 10 5 39 14 66 20 27 5 59 12 72 15 15 4 22 1 22 -10 0 -17 26 -20 36 -4 3
6 14 48 24 93 19 86 16 96 -27 96 -20 0 -22 -5 -25 -66 -2 -50 -7 -70 -20 -78
-9 -5 -20 -7 -24 -4 -3 4 -2 67 3 140 6 83 6 138 0 146 -5 6 -21 12 -36 12
l-26 0 0 -152z"/>
<path d="M598 385 c-2 -3 -33 -12 -69 -20 l-64 -15 77 4 c83 5 109 13 87 27
-16 10 -24 11 -31 4z"/>
<path d="M650 314 c-19 -7 -48 -13 -65 -14 -17 0 -25 -4 -19 -8 7 -4 17 -26
24 -49 7 -24 19 -43 27 -43 7 0 13 -6 13 -13 0 -11 -45 -84 -59 -97 -3 -3 -12
-13 -20 -22 -26 -34 4 -18 51 26 l46 44 58 -49 c63 -53 72 -57 81 -33 5 15
-32 64 -49 64 -5 0 -25 7 -45 15 -34 14 -35 16 -19 33 19 22 21 38 4 45 -7 3
0 6 15 6 16 1 26 5 23 9 -2 4 3 22 11 40 24 49 -13 70 -77 46z m30 -38 c0 -30
-13 -46 -36 -46 -13 0 -24 3 -24 8 0 4 -3 17 -6 30 -6 20 -3 22 30 22 24 0 36
-5 36 -14z"/>
<path d="M465 290 c-11 -5 -32 -9 -47 -9 l-26 -1 16 -41 c9 -23 22 -43 29 -46
24 -9 13 -39 -32 -83 -24 -24 -43 -46 -40 -48 2 -3 27 12 56 33 l51 37 27 -26
c32 -31 41 -32 41 -6 0 13 -9 22 -25 26 -26 7 -34 29 -12 38 8 3 6 9 -7 20
-20 16 -20 16 0 17 10 1 22 1 27 0 4 0 7 10 7 24 0 14 5 25 10 25 6 0 10 11
10 25 0 22 -4 25 -32 24 -18 0 -42 -4 -53 -9z m35 -40 c0 -23 -5 -31 -25 -36
-30 -8 -31 -7 -40 28 -6 23 -4 27 22 31 15 2 31 5 36 6 4 0 7 -12 7 -29z"/>
</g>
</svg>
