<?xml version="1.0" standalone="no"?>
<!DOCTYPE svg PUBLIC "-//W3C//DTD SVG 20010904//EN"
 "http://www.w3.org/TR/2001/REC-SVG-20010904/DTD/svg10.dtd">
<svg version="1.0" xmlns="http://www.w3.org/2000/svg"
 width="90.000000pt" height="92.000000pt" viewBox="0 0 90.000000 92.000000"
 preserveAspectRatio="xMidYMid meet">
<metadata>
Created by potrace 1.16, written by Peter Selinger 2001-2019
</metadata>
<g transform="translate(0.000000,92.000000) scale(0.100000,-0.100000)"
fill="#000000" stroke="none">
<path d="M500 840 c-32 -25 -158 -74 -232 -91 -32 -6 -58 -16 -58 -21 0 -10 9
-10 90 2 73 11 90 1 90 -51 0 -31 8 -29 -205 -50 -60 -6 -114 -14 -118 -18 -4
-5 6 -14 24 -21 26 -11 53 -11 153 -1 66 7 129 15 139 17 16 5 17 -7 17 -150
l0 -154 -27 -6 c-16 -3 -63 -8 -106 -12 -42 -3 -77 -10 -77 -15 0 -23 49 -31
128 -22 90 10 92 9 92 -63 l0 -32 -87 -6 c-151 -11 -203 -18 -203 -26 0 -4 17
-15 37 -23 29 -11 50 -13 88 -6 28 5 153 12 278 15 125 4 230 10 232 14 3 4
-5 16 -16 26 -18 16 -36 19 -123 17 -55 -1 -116 -5 -133 -8 l-33 -6 0 54 0 54
68 6 c37 4 86 7 110 7 31 0 42 4 42 15 0 29 -44 39 -136 29 l-85 -10 3 147 c2
81 6 150 10 154 3 4 75 11 160 16 183 12 187 13 163 39 -26 29 -63 32 -184 16
-147 -21 -143 -21 -131 9 12 31 5 50 -23 62 -18 8 -10 12 51 28 98 26 103 30
69 60 -34 30 -35 30 -67 5z"/>
<path d="M590 530 c0 -65 8 -58 -80 -76 l-25 -6 24 -12 c13 -7 34 -11 48 -8
24 5 24 4 18 -44 l-6 -49 25 40 c14 22 26 45 26 51 0 11 66 24 121 24 16 0 29
4 29 10 0 18 -43 32 -81 27 -42 -6 -44 -2 -28 40 9 24 7 30 -11 45 -12 10 -31
18 -41 18 -17 0 -19 -8 -19 -60z"/>
<path d="M200 536 c0 -7 7 -30 15 -49 8 -20 15 -38 15 -41 0 -2 -17 -7 -37
-10 -105 -18 -114 -25 -65 -45 20 -9 36 -9 56 -1 51 19 63 14 75 -35 15 -62
31 -57 31 10 l0 55 35 0 c19 0 35 4 35 10 0 15 -39 32 -59 25 -19 -6 -31 17
-31 61 0 12 -7 25 -16 28 -27 10 -54 7 -54 -8z"/>
</g>
</svg>
