<?xml version="1.0" standalone="no"?>
<!DOCTYPE svg PUBLIC "-//W3C//DTD SVG 20010904//EN"
 "http://www.w3.org/TR/2001/REC-SVG-20010904/DTD/svg10.dtd">
<svg version="1.0" xmlns="http://www.w3.org/2000/svg"
 width="96.000000pt" height="68.000000pt" viewBox="0 0 96.000000 68.000000"
 preserveAspectRatio="xMidYMid meet">
<metadata>
Created by potrace 1.16, written by Peter Selinger 2001-2019
</metadata>
<g transform="translate(0.000000,68.000000) scale(0.100000,-0.100000)"
fill="#000000" stroke="none">
<path d="M480 558 c0 -2 7 -21 15 -43 8 -22 14 -72 15 -111 l0 -71 -31 -7
c-17 -3 -47 -6 -65 -6 -19 0 -34 -4 -34 -10 0 -6 28 -10 65 -10 l65 0 0 -74
c0 -41 -4 -77 -8 -80 -4 -2 -58 -8 -120 -12 -62 -4 -112 -11 -112 -15 0 -17
77 -22 174 -11 56 6 164 11 240 12 138 1 156 3 156 20 0 22 -64 30 -157 19
-52 -6 -102 -8 -109 -5 -12 4 -14 22 -12 78 l3 73 74 7 c40 3 78 11 84 17 17
17 -30 29 -77 20 -86 -17 -86 -17 -80 56 2 36 9 76 14 90 14 37 13 40 -15 53
-22 10 -85 17 -85 10z"/>
<path d="M236 397 c-46 -16 -64 -18 -86 -10 -31 12 -65 -1 -42 -15 7 -5 19
-44 27 -87 17 -88 32 -116 50 -92 6 9 38 17 83 22 69 7 72 8 66 31 -4 14 4 44
20 80 14 31 26 60 26 64 0 9 -56 31 -74 29 -6 0 -37 -10 -70 -22z m49 -73 c-3
-26 -9 -52 -11 -59 -6 -14 -75 -28 -85 -17 -4 4 -10 28 -13 54 -7 44 -5 48 16
52 105 23 101 24 93 -30z"/>
</g>
</svg>
