<?xml version="1.0" standalone="no"?>
<!DOCTYPE svg PUBLIC "-//W3C//DTD SVG 20010904//EN"
 "http://www.w3.org/TR/2001/REC-SVG-20010904/DTD/svg10.dtd">
<svg version="1.0" xmlns="http://www.w3.org/2000/svg"
 width="96.000000pt" height="68.000000pt" viewBox="0 0 96.000000 68.000000"
 preserveAspectRatio="xMidYMid meet">
<metadata>
Created by potrace 1.16, written by Peter Selinger 2001-2019
</metadata>
<g transform="translate(0.000000,68.000000) scale(0.100000,-0.100000)"
fill="#000000" stroke="none">
<path d="M245 394 c-24 -9 -59 -14 -87 -11 -44 4 -61 -4 -39 -18 5 -3 15 -38
21 -79 14 -81 25 -109 38 -89 4 6 32 15 62 18 84 9 106 15 92 24 -13 8 0 57
32 119 15 29 15 32 -3 42 -27 14 -68 12 -116 -6z m45 -53 c0 -16 -3 -42 -6
-59 -6 -28 -11 -32 -51 -38 -24 -3 -46 -4 -49 -1 -3 3 -8 30 -11 60 l-6 56 39
4 c86 9 84 9 84 -22z"/>
</g>
</svg>
