<?xml version="1.0" standalone="no"?>
<!DOCTYPE svg PUBLIC "-//W3C//DTD SVG 20010904//EN"
 "http://www.w3.org/TR/2001/REC-SVG-20010904/DTD/svg10.dtd">
<svg version="1.0" xmlns="http://www.w3.org/2000/svg"
 width="96.000000pt" height="68.000000pt" viewBox="0 0 96.000000 68.000000"
 preserveAspectRatio="xMidYMid meet">
<metadata>
Created by potrace 1.16, written by Peter Selinger 2001-2019
</metadata>
<g transform="translate(0.000000,68.000000) scale(0.100000,-0.100000)"
fill="#000000" stroke="none">
<path d="M545 460 c-16 -5 -72 -13 -123 -16 -51 -4 -89 -10 -84 -13 15 -10 29
-42 42 -99 10 -44 15 -52 30 -47 10 3 67 7 126 9 l109 4 29 71 c21 53 26 75
18 83 -15 15 -109 20 -147 8z m75 -43 c0 -20 -5 -23 -50 -25 -43 -2 -50 1 -50
17 0 23 13 29 63 30 32 1 37 -2 37 -22z m-142 -9 c-3 -20 -9 -23 -43 -23 -29
0 -41 4 -43 17 -3 17 14 25 61 27 24 1 28 -3 25 -21z m138 -50 c-3 -13 -6 -26
-6 -30 0 -5 -22 -8 -50 -8 -46 0 -50 2 -50 24 0 22 5 25 43 29 23 2 48 4 56 5
9 1 11 -5 7 -20z m-136 -23 c0 -22 -4 -25 -34 -25 -28 0 -34 4 -38 25 -5 23
-2 25 33 25 35 0 39 -3 39 -25z"/>
</g>
</svg>
