<?xml version="1.0" standalone="no"?>
<!DOCTYPE svg PUBLIC "-//W3C//DTD SVG 20010904//EN"
 "http://www.w3.org/TR/2001/REC-SVG-20010904/DTD/svg10.dtd">
<svg version="1.0" xmlns="http://www.w3.org/2000/svg"
 width="96.000000pt" height="68.000000pt" viewBox="0 0 96.000000 68.000000"
 preserveAspectRatio="xMidYMid meet">
<metadata>
Created by potrace 1.16, written by Peter Selinger 2001-2019
</metadata>
<g transform="translate(0.000000,68.000000) scale(0.100000,-0.100000)"
fill="#000000" stroke="none">
<path d="M689 326 c-2 -2 -24 -7 -49 -11 -64 -9 -66 -19 -2 -12 61 7 66 -3 31
-60 -21 -34 -22 -34 -43 -16 -11 11 -30 25 -41 32 -11 7 -5 0 13 -16 17 -16
32 -39 32 -50 0 -18 -36 -62 -46 -55 -2 1 -3 -1 -2 -5 4 -11 16 -6 45 17 l24
19 43 -45 c40 -41 46 -44 92 -43 27 1 41 3 31 6 -9 2 -15 9 -11 14 3 5 2 8 -3
7 -4 -1 -22 5 -39 15 -17 9 -34 13 -38 10 -3 -4 -6 -1 -6 5 0 7 -5 12 -11 12
-6 0 -9 -7 -5 -15 8 -22 -2 -18 -15 6 -8 15 -8 19 0 15 18 -11 13 2 -9 24 -21
21 -27 42 -10 38 13 -4 70 83 63 96 -4 6 -8 6 -11 -2 -2 -7 -8 -12 -13 -12 -4
0 -6 7 -3 15 6 14 -7 21 -17 11z m12 -59 c-10 -9 -11 -8 -5 6 3 10 9 15 12 12
3 -3 0 -11 -7 -18z"/>
<path d="M535 110 c-8 -13 5 -13 25 0 13 8 13 10 -2 10 -9 0 -20 -4 -23 -10z"/>
</g>
</svg>
