<?xml version="1.0" standalone="no"?>
<!DOCTYPE svg PUBLIC "-//W3C//DTD SVG 20010904//EN"
 "http://www.w3.org/TR/2001/REC-SVG-20010904/DTD/svg10.dtd">
<svg version="1.0" xmlns="http://www.w3.org/2000/svg"
 width="96.000000pt" height="68.000000pt" viewBox="0 0 96.000000 68.000000"
 preserveAspectRatio="xMidYMid meet">
<metadata>
Created by potrace 1.16, written by Peter Selinger 2001-2019
</metadata>
<g transform="translate(0.000000,68.000000) scale(0.100000,-0.100000)"
fill="#000000" stroke="none">
<path d="M243 568 c13 -53 19 -117 12 -137 -5 -16 -18 -21 -66 -27 -82 -9 -85
-24 -5 -24 36 0 66 -4 66 -8 0 -18 -60 -100 -108 -149 -29 -29 -52 -55 -52
-58 0 -20 112 68 143 113 l19 27 -6 -95 c-3 -52 -8 -108 -12 -125 -7 -41 17
-75 40 -56 13 11 16 37 16 153 l0 140 31 -26 c36 -31 59 -33 59 -7 0 17 -15
26 -72 45 -11 3 -18 15 -18 29 0 20 7 26 42 33 51 11 52 29 2 29 l-37 0 7 72
c5 65 4 74 -13 83 -34 18 -54 13 -48 -12z"/>
</g>
</svg>
