<?xml version="1.0" standalone="no"?>
<!DOCTYPE svg PUBLIC "-//W3C//DTD SVG 20010904//EN"
 "http://www.w3.org/TR/2001/REC-SVG-20010904/DTD/svg10.dtd">
<svg version="1.0" xmlns="http://www.w3.org/2000/svg"
 width="96.000000pt" height="68.000000pt" viewBox="0 0 96.000000 68.000000"
 preserveAspectRatio="xMidYMid meet">
<metadata>
Created by potrace 1.16, written by Peter Selinger 2001-2019
</metadata>
<g transform="translate(0.000000,68.000000) scale(0.100000,-0.100000)"
fill="#000000" stroke="none">
<path d="M205 480 c-11 -5 -44 -9 -74 -9 -51 -1 -53 -2 -38 -18 8 -10 21 -40
28 -68 17 -69 28 -90 42 -76 6 6 23 11 38 11 49 0 88 12 83 25 -3 7 4 39 15
71 14 44 16 61 8 66 -16 10 -77 9 -102 -2z m45 -59 c0 -57 -19 -84 -58 -79
-26 3 -27 6 -45 80 -7 25 -4 27 35 36 69 16 68 16 68 -37z"/>
</g>
</svg>
