<?xml version="1.0" standalone="no"?>
<!DOCTYPE svg PUBLIC "-//W3C//DTD SVG 20010904//EN"
 "http://www.w3.org/TR/2001/REC-SVG-20010904/DTD/svg10.dtd">
<svg version="1.0" xmlns="http://www.w3.org/2000/svg"
 width="96.000000pt" height="68.000000pt" viewBox="0 0 96.000000 68.000000"
 preserveAspectRatio="xMidYMid meet">
<metadata>
Created by potrace 1.16, written by Peter Selinger 2001-2019
</metadata>
<g transform="translate(0.000000,68.000000) scale(0.100000,-0.100000)"
fill="#000000" stroke="none">
<path d="M395 615 c-49 -7 -114 -14 -144 -14 l-55 -1 26 -27 c17 -18 32 -51
41 -91 8 -35 19 -67 23 -72 5 -5 50 -4 99 1 50 5 106 7 126 4 43 -7 46 -5 92
102 31 72 33 84 20 95 -21 17 -122 19 -228 3z m145 -48 c0 -21 -6 -24 -92 -35
-122 -16 -145 -15 -152 5 -4 9 -3 20 1 24 10 9 129 26 196 28 43 1 47 -1 47
-22z m-16 -79 c-3 -13 -7 -23 -8 -24 0 0 -34 -6 -74 -12 -87 -14 -122 -15
-122 -3 0 5 -2 16 -5 24 -5 11 13 16 82 24 141 16 135 16 127 -9z"/>
<path d="M448 262 c4 -150 11 -173 68 -202 44 -22 152 -25 217 -6 31 9 59 21
62 26 4 6 -3 29 -14 51 -12 22 -21 46 -21 55 0 8 -4 12 -10 9 -5 -3 -10 -15
-10 -25 0 -11 -5 -31 -12 -44 -28 -62 -204 -60 -238 3 -12 24 -11 101 2 101 9
0 59 -30 68 -40 3 -4 16 -14 30 -23 33 -23 60 -22 60 3 0 24 -56 54 -117 65
-24 4 -43 11 -43 16 0 5 34 24 75 44 41 19 75 39 75 45 0 6 -12 16 -26 22 -22
10 -27 9 -36 -5 -14 -26 -66 -77 -78 -77 -12 0 -13 16 -1 56 11 37 5 49 -29
57 l-25 6 3 -137z"/>
<path d="M317 358 c4 -13 8 -45 8 -73 0 -49 0 -49 -45 -67 -25 -10 -64 -22
-88 -28 -48 -12 -52 -33 -8 -38 17 -2 44 8 75 27 59 38 65 38 56 4 -10 -44
-33 -72 -83 -105 -41 -27 -43 -29 -17 -24 52 12 105 55 125 99 10 23 21 81 25
128 7 85 7 86 -16 92 -37 10 -41 9 -32 -15z"/>
<path d="M240 285 c38 -39 60 -45 60 -15 0 13 -12 25 -36 35 -56 23 -61 18
-24 -20z"/>
</g>
</svg>
