<?xml version="1.0" standalone="no"?>
<!DOCTYPE svg PUBLIC "-//W3C//DTD SVG 20010904//EN"
 "http://www.w3.org/TR/2001/REC-SVG-20010904/DTD/svg10.dtd">
<svg version="1.0" xmlns="http://www.w3.org/2000/svg"
 width="90.000000pt" height="92.000000pt" viewBox="0 0 90.000000 92.000000"
 preserveAspectRatio="xMidYMid meet">
<metadata>
Created by potrace 1.16, written by Peter Selinger 2001-2019
</metadata>
<g transform="translate(0.000000,92.000000) scale(0.100000,-0.100000)"
fill="#000000" stroke="none">
<path d="M716 842 c-2 -4 2 -32 11 -62 12 -45 14 -102 9 -310 -3 -140 -8 -266
-12 -278 -6 -21 -12 -23 -55 -20 -27 1 -49 2 -49 1 0 -6 117 -123 123 -123 4
0 15 12 24 27 16 24 19 62 23 338 4 261 8 315 21 342 19 35 14 47 -31 77 -26
17 -56 21 -64 8z"/>
<path d="M110 775 c0 -4 16 -28 36 -51 24 -31 43 -44 60 -44 22 0 25 4 22 32
-2 24 -10 36 -29 45 -35 17 -89 28 -89 18z"/>
<path d="M390 744 c-30 -8 -70 -12 -89 -8 -30 5 -33 3 -25 -13 14 -30 16 -170
5 -258 -8 -56 -8 -91 -1 -109 10 -28 30 -35 30 -11 0 17 16 20 25 5 9 -14 -32
-87 -88 -159 -46 -57 -48 -62 -21 -48 54 29 188 172 178 189 -4 5 -15 13 -27
17 -16 6 -9 9 32 15 46 6 54 4 69 -15 17 -20 19 -20 32 -3 12 13 15 51 16 168
0 83 4 165 8 183 7 29 4 33 -23 47 -35 19 -47 19 -121 0z m71 -51 c0 -16 2
-35 4 -44 2 -13 -8 -18 -50 -23 -29 -3 -60 -9 -69 -12 -13 -5 -16 2 -16 44 0
56 2 57 93 61 34 1 37 -1 38 -26z m9 -132 l0 -38 -52 -6 c-29 -4 -63 -9 -75
-13 -22 -6 -23 -3 -23 39 l0 46 53 4 c28 2 62 4 75 5 19 2 22 -3 22 -37z m0
-104 l0 -42 -65 -13 c-88 -16 -85 -18 -85 33 l0 45 43 1 c33 1 89 10 105 18 1
0 2 -18 2 -42z"/>
<path d="M598 508 c5 -147 14 -190 35 -169 8 8 13 64 15 151 l4 140 -27 10
c-14 5 -28 10 -29 10 -2 0 -1 -64 2 -142z"/>
<path d="M65 553 c43 -68 72 -86 94 -59 28 34 -28 86 -92 86 -19 0 -19 -1 -2
-27z"/>
<path d="M161 386 c-22 -35 -57 -78 -77 -95 -32 -29 -35 -36 -30 -66 4 -18 15
-44 25 -56 l18 -23 21 55 c11 30 32 81 47 114 66 146 64 176 -4 71z"/>
<path d="M440 303 c1 -18 87 -128 100 -128 26 0 24 58 -2 82 -25 24 -98 58
-98 46z"/>
</g>
</svg>
