<?xml version="1.0" standalone="no"?>
<!DOCTYPE svg PUBLIC "-//W3C//DTD SVG 20010904//EN"
 "http://www.w3.org/TR/2001/REC-SVG-20010904/DTD/svg10.dtd">
<svg version="1.0" xmlns="http://www.w3.org/2000/svg"
 width="96.000000pt" height="68.000000pt" viewBox="0 0 96.000000 68.000000"
 preserveAspectRatio="xMidYMid meet">
<metadata>
Created by potrace 1.16, written by Peter Selinger 2001-2019
</metadata>
<g transform="translate(0.000000,68.000000) scale(0.100000,-0.100000)"
fill="#000000" stroke="none">
<path d="M620 597 c0 -7 -13 -26 -29 -41 l-28 -27 -57 16 c-78 23 -90 14 -21
-14 l56 -24 -48 -34 c-26 -19 -57 -39 -68 -43 -15 -7 -16 -9 -4 -9 9 -1 48 15
87 34 l70 36 62 -32 c61 -31 90 -33 90 -6 0 14 -84 57 -112 57 -7 1 5 16 26
35 33 29 37 37 26 50 -15 18 -50 20 -50 2z"/>
</g>
</svg>
