<?xml version="1.0" standalone="no"?>
<!DOCTYPE svg PUBLIC "-//W3C//DTD SVG 20010904//EN"
 "http://www.w3.org/TR/2001/REC-SVG-20010904/DTD/svg10.dtd">
<svg version="1.0" xmlns="http://www.w3.org/2000/svg"
 width="96.000000pt" height="68.000000pt" viewBox="0 0 96.000000 68.000000"
 preserveAspectRatio="xMidYMid meet">
<metadata>
Created by potrace 1.16, written by Peter Selinger 2001-2019
</metadata>
<g transform="translate(0.000000,68.000000) scale(0.100000,-0.100000)"
fill="#000000" stroke="none">
<path d="M526 438 c-9 -44 -33 -68 -70 -68 -51 0 -106 -12 -100 -21 3 -5 30
-9 60 -9 l56 0 -23 -27 c-13 -16 -45 -47 -72 -70 -26 -24 -45 -43 -42 -43 22
0 97 51 147 101 41 40 69 59 87 60 243 12 256 14 234 27 -28 15 -48 16 -153 4
-47 -6 -87 -8 -89 -6 -2 2 4 16 14 30 17 26 17 28 -1 41 -28 21 -41 16 -48
-19z"/>
</g>
</svg>
