<?xml version="1.0" standalone="no"?>
<!DOCTYPE svg PUBLIC "-//W3C//DTD SVG 20010904//EN"
 "http://www.w3.org/TR/2001/REC-SVG-20010904/DTD/svg10.dtd">
<svg version="1.0" xmlns="http://www.w3.org/2000/svg"
 width="96.000000pt" height="68.000000pt" viewBox="0 0 96.000000 68.000000"
 preserveAspectRatio="xMidYMid meet">
<metadata>
Created by potrace 1.16, written by Peter Selinger 2001-2019
</metadata>
<g transform="translate(0.000000,68.000000) scale(0.100000,-0.100000)"
fill="#000000" stroke="none">
<path d="M364 418 c3 -13 6 -51 6 -85 0 -55 2 -63 19 -63 16 0 19 11 25 75 4
42 4 80 1 85 -3 6 -18 10 -32 10 -21 0 -24 -3 -19 -22z"/>
<path d="M468 360 c-14 -27 -24 -50 -23 -50 1 0 24 12 49 26 49 28 53 39 19
61 -19 13 -22 10 -45 -37z"/>
<path d="M280 354 c0 -12 35 -64 42 -64 18 0 19 32 3 50 -17 19 -45 27 -45 14z"/>
</g>
</svg>
