<?xml version="1.0" standalone="no"?>
<!DOCTYPE svg PUBLIC "-//W3C//DTD SVG 20010904//EN"
 "http://www.w3.org/TR/2001/REC-SVG-20010904/DTD/svg10.dtd">
<svg version="1.0" xmlns="http://www.w3.org/2000/svg"
 width="96.000000pt" height="68.000000pt" viewBox="0 0 96.000000 68.000000"
 preserveAspectRatio="xMidYMid meet">
<metadata>
Created by potrace 1.16, written by Peter Selinger 2001-2019
</metadata>
<g transform="translate(0.000000,68.000000) scale(0.100000,-0.100000)"
fill="#000000" stroke="none">
<path d="M520 590 c-36 -4 -113 -8 -172 -9 -107 -1 -108 -1 -89 -20 11 -11 25
-38 31 -61 10 -37 13 -40 38 -33 15 3 95 7 178 7 l152 1 23 34 c13 19 30 41
38 48 23 23 -3 37 -72 39 -34 1 -91 -2 -127 -6z m127 -26 c8 -22 -15 -67 -32
-61 -7 3 -73 1 -145 -5 -73 -5 -136 -6 -140 -1 -5 4 -12 20 -15 36 l-7 27 73
1 c41 1 106 5 144 9 111 11 115 11 122 -6z"/>
</g>
</svg>
