<?xml version="1.0" standalone="no"?>
<!DOCTYPE svg PUBLIC "-//W3C//DTD SVG 20010904//EN"
 "http://www.w3.org/TR/2001/REC-SVG-20010904/DTD/svg10.dtd">
<svg version="1.0" xmlns="http://www.w3.org/2000/svg"
 width="96.000000pt" height="68.000000pt" viewBox="0 0 96.000000 68.000000"
 preserveAspectRatio="xMidYMid meet">
<metadata>
Created by potrace 1.16, written by Peter Selinger 2001-2019
</metadata>
<g transform="translate(0.000000,68.000000) scale(0.100000,-0.100000)"
fill="#000000" stroke="none">
<path d="M535 258 c-33 -5 -80 -13 -105 -17 l-45 -9 61 -1 c68 -1 74 -7 74
-65 l0 -33 -67 -6 c-38 -4 -92 -7 -120 -7 -55 0 -71 -13 -29 -24 13 -3 79 -1
147 4 68 5 180 10 249 10 118 0 123 1 107 18 -14 14 -33 17 -95 15 -42 -2 -94
-6 -115 -9 l-37 -6 2 55 3 55 58 6 c31 4 57 11 57 16 0 12 -62 11 -145 -2z"/>
</g>
</svg>
