<?xml version="1.0" standalone="no"?>
<!DOCTYPE svg PUBLIC "-//W3C//DTD SVG 20010904//EN"
 "http://www.w3.org/TR/2001/REC-SVG-20010904/DTD/svg10.dtd">
<svg version="1.0" xmlns="http://www.w3.org/2000/svg"
 width="96.000000pt" height="68.000000pt" viewBox="0 0 96.000000 68.000000"
 preserveAspectRatio="xMidYMid meet">
<metadata>
Created by potrace 1.16, written by Peter Selinger 2001-2019
</metadata>
<g transform="translate(0.000000,68.000000) scale(0.100000,-0.100000)"
fill="#000000" stroke="none">
<path d="M340 594 c-25 -8 -69 -14 -98 -12 -28 2 -52 -1 -52 -5 0 -5 9 -20 20
-34 11 -14 20 -35 20 -47 0 -11 5 -38 11 -59 l10 -39 42 8 c23 4 62 8 86 8
l44 1 24 70 c32 93 32 97 3 112 -31 16 -52 15 -110 -3z m60 -42 c0 -26 -3 -28
-32 -28 -18 0 -49 -3 -69 -8 -32 -7 -37 -5 -42 13 -4 17 1 21 32 27 20 3 50
10 66 14 45 12 45 12 45 -18z m-12 -74 c-2 -19 -12 -25 -52 -32 -37 -7 -50 -6
-57 5 -18 29 -4 36 99 47 8 1 12 -6 10 -20z"/>
<path d="M544 544 c3 -9 6 -76 6 -149 0 -171 4 -178 113 -183 75 -4 147 10
147 29 0 19 -34 22 -107 10 -105 -18 -113 -13 -113 62 0 70 -5 65 114 106 32
11 61 22 63 24 2 3 -9 10 -25 16 -26 11 -33 9 -81 -24 -29 -19 -57 -35 -62
-35 -12 0 -11 44 2 99 11 49 3 61 -40 61 -17 0 -22 -4 -17 -16z"/>
<path d="M420 380 c-19 -5 -57 -11 -85 -14 -225 -25 -270 -34 -217 -46 19 -4
67 -2 113 6 44 8 85 12 90 9 5 -4 9 -37 9 -75 l0 -68 -40 10 c-43 11 -48 22
-25 53 14 17 13 20 -7 32 -33 18 -35 17 -42 -26 -4 -29 -18 -50 -56 -87 -27
-26 -48 -50 -45 -52 6 -6 68 34 90 58 10 11 24 20 32 20 7 0 100 -34 205 -76
178 -69 197 -75 248 -70 62 5 165 34 156 43 -3 4 -37 8 -74 10 -105 5 -219 22
-312 47 l-85 22 -3 37 -3 36 60 7 c71 8 84 25 21 26 -3 1 -20 -2 -37 -5 -33
-6 -33 -6 -33 33 0 39 1 40 38 41 20 1 51 5 67 9 l30 7 -28 11 c-16 7 -29 12
-30 11 -1 -1 -18 -5 -37 -9z"/>
</g>
</svg>
