<?xml version="1.0" standalone="no"?>
<!DOCTYPE svg PUBLIC "-//W3C//DTD SVG 20010904//EN"
 "http://www.w3.org/TR/2001/REC-SVG-20010904/DTD/svg10.dtd">
<svg version="1.0" xmlns="http://www.w3.org/2000/svg"
 width="96.000000pt" height="68.000000pt" viewBox="0 0 96.000000 68.000000"
 preserveAspectRatio="xMidYMid meet">
<metadata>
Created by potrace 1.16, written by Peter Selinger 2001-2019
</metadata>
<g transform="translate(0.000000,68.000000) scale(0.100000,-0.100000)"
fill="#000000" stroke="none">
<path d="M650 241 c0 -33 -14 -41 -68 -41 -26 0 -33 -3 -25 -11 6 -6 30 -10
52 -7 l41 4 0 -83 c0 -78 10 -108 26 -81 4 6 10 47 12 90 4 76 5 78 31 78 14
0 43 3 64 7 52 8 28 23 -39 23 -49 0 -51 1 -46 25 4 22 1 25 -22 25 -22 0 -26
-4 -26 -29z"/>
</g>
</svg>
