<?xml version="1.0" standalone="no"?>
<!DOCTYPE svg PUBLIC "-//W3C//DTD SVG 20010904//EN"
 "http://www.w3.org/TR/2001/REC-SVG-20010904/DTD/svg10.dtd">
<svg version="1.0" xmlns="http://www.w3.org/2000/svg"
 width="96.000000pt" height="68.000000pt" viewBox="0 0 96.000000 68.000000"
 preserveAspectRatio="xMidYMid meet">
<metadata>
Created by potrace 1.16, written by Peter Selinger 2001-2019
</metadata>
<g transform="translate(0.000000,68.000000) scale(0.100000,-0.100000)"
fill="#000000" stroke="none">
<path d="M247 522 l6 -90 -49 -7 c-65 -9 -76 -13 -69 -25 3 -5 31 -10 61 -10
l54 0 0 -44 0 -45 -85 -32 c-47 -18 -84 -37 -82 -43 2 -6 16 -17 31 -25 26
-12 31 -11 69 16 74 52 71 53 64 -17 -4 -35 -11 -68 -15 -72 -5 -5 -21 -4 -37
2 -15 6 -30 8 -32 6 -3 -3 15 -25 39 -51 71 -74 98 -43 98 110 0 93 0 94 33
120 l32 27 -32 -6 c-32 -5 -33 -4 -33 28 0 32 3 35 40 41 22 4 43 11 46 17 10
17 -18 29 -55 24 l-33 -5 7 46 c4 25 12 54 18 64 15 24 -5 46 -50 55 l-32 6 6
-90z"/>
<path d="M567 574 c-3 -3 -1 -18 4 -33 7 -16 8 -72 4 -148 -4 -68 -4 -153 0
-190 6 -57 12 -71 37 -95 27 -25 37 -28 102 -28 85 0 143 23 138 55 -2 11 -6
35 -9 53 -6 35 -23 44 -23 12 0 -12 -11 -32 -25 -45 -20 -21 -34 -25 -82 -25
-85 1 -93 10 -93 111 l0 84 70 45 c70 45 83 63 54 74 -31 12 -41 5 -73 -44
-40 -62 -55 -64 -47 -7 3 23 8 70 12 103 l6 61 -32 12 c-39 13 -35 13 -43 5z"/>
<path d="M459 524 c-1 -5 0 -59 1 -121 l2 -112 -46 -20 c-24 -12 -52 -21 -60
-21 -24 0 -30 -20 -10 -35 25 -19 24 -19 64 16 19 17 36 26 38 20 7 -22 -21
-85 -55 -122 -40 -44 -32 -50 17 -17 19 13 45 47 61 78 25 49 28 70 35 193 5
94 4 137 -4 137 -6 0 -17 3 -26 6 -9 3 -16 2 -17 -2z"/>
<path d="M380 371 c0 -5 5 -13 10 -16 6 -4 8 -10 5 -15 -5 -8 17 -20 36 -20
21 0 7 31 -21 45 -16 9 -30 11 -30 6z"/>
<path d="M637 286 c7 -17 91 -76 108 -76 24 0 17 36 -9 54 -33 21 -106 38 -99
22z"/>
</g>
</svg>
