<?xml version="1.0" standalone="no"?>
<!DOCTYPE svg PUBLIC "-//W3C//DTD SVG 20010904//EN"
 "http://www.w3.org/TR/2001/REC-SVG-20010904/DTD/svg10.dtd">
<svg version="1.0" xmlns="http://www.w3.org/2000/svg"
 width="96.000000pt" height="68.000000pt" viewBox="0 0 96.000000 68.000000"
 preserveAspectRatio="xMidYMid meet">
<metadata>
Created by potrace 1.16, written by Peter Selinger 2001-2019
</metadata>
<g transform="translate(0.000000,68.000000) scale(0.100000,-0.100000)"
fill="#000000" stroke="none">
<path d="M310 304 c-19 -7 -58 -13 -86 -13 -49 -1 -52 -2 -58 -32 -10 -50 -7
-104 6 -117 18 -18 28 -15 28 8 0 18 7 20 63 21 51 1 131 14 105 18 -5 1 1 24
12 53 10 28 17 54 15 58 -9 14 -51 16 -85 4z m20 -63 c0 -35 -3 -39 -31 -45
-17 -3 -44 -6 -60 -6 -27 0 -29 3 -29 39 0 37 2 40 33 44 87 11 87 10 87 -32z"/>
</g>
</svg>
