<?xml version="1.0" standalone="no"?>
<!DOCTYPE svg PUBLIC "-//W3C//DTD SVG 20010904//EN"
 "http://www.w3.org/TR/2001/REC-SVG-20010904/DTD/svg10.dtd">
<svg version="1.0" xmlns="http://www.w3.org/2000/svg"
 width="90.000000pt" height="92.000000pt" viewBox="0 0 90.000000 92.000000"
 preserveAspectRatio="xMidYMid meet">
<metadata>
Created by potrace 1.16, written by Peter Selinger 2001-2019
</metadata>
<g transform="translate(0.000000,92.000000) scale(0.100000,-0.100000)"
fill="#000000" stroke="none">
<path d="M450 798 c-75 -12 -137 -17 -179 -13 -58 5 -63 4 -56 -12 12 -27 18
-147 11 -197 l-7 -43 -109 -8 c-117 -7 -140 -20 -79 -45 24 -10 44 -11 94 -2
34 7 67 12 74 12 17 0 13 -35 -14 -116 -24 -70 -31 -124 -20 -136 3 -3 25 5
50 17 25 13 74 26 115 30 83 8 210 -2 210 -18 0 -6 -9 -30 -21 -54 -23 -49
-42 -53 -104 -27 -20 8 -38 14 -40 12 -2 -2 26 -34 60 -72 l64 -69 29 29 c29
30 72 128 72 165 0 23 7 22 103 -16 33 -13 60 -19 63 -13 24 38 -53 108 -119
108 l-37 0 6 83 c3 45 7 88 10 95 2 9 35 12 119 12 63 0 115 4 115 8 0 5 -10
17 -21 28 -18 16 -35 19 -115 17 l-94 -1 0 36 c1 34 6 62 26 144 5 23 1 30
-27 47 -39 24 -30 24 -179 -1z m128 -130 l-3 -103 -55 -6 c-30 -4 -96 -9 -147
-12 l-92 -6 6 92 c3 51 10 96 14 102 12 12 145 33 222 34 l58 1 -3 -102z m-12
-235 c-4 -49 -10 -91 -14 -94 -10 -9 -312 -19 -312 -11 0 4 8 44 17 90 12 58
22 82 33 83 8 1 65 5 125 9 61 3 121 7 134 8 l24 2 -7 -87z"/>
<path d="M373 677 c9 -15 24 -38 33 -53 22 -33 58 -29 62 7 4 33 -25 58 -74
66 l-38 6 17 -26z"/>
<path d="M360 457 c0 -22 59 -97 75 -97 20 0 29 23 21 54 -4 16 -19 29 -46 40
-49 19 -50 19 -50 3z"/>
</g>
</svg>
