<?xml version="1.0" standalone="no"?>
<!DOCTYPE svg PUBLIC "-//W3C//DTD SVG 20010904//EN"
 "http://www.w3.org/TR/2001/REC-SVG-20010904/DTD/svg10.dtd">
<svg version="1.0" xmlns="http://www.w3.org/2000/svg"
 width="96.000000pt" height="68.000000pt" viewBox="0 0 96.000000 68.000000"
 preserveAspectRatio="xMidYMid meet">
<metadata>
Created by potrace 1.16, written by Peter Selinger 2001-2019
</metadata>
<g transform="translate(0.000000,68.000000) scale(0.100000,-0.100000)"
fill="#000000" stroke="none">
<path d="M488 303 c-3 -35 -6 -38 -38 -44 -27 -4 -31 -7 -17 -13 9 -5 26 -6
37 -3 17 4 20 0 20 -24 0 -27 -3 -29 -37 -30 -21 0 -56 -4 -78 -8 -35 -6 -37
-8 -17 -15 12 -4 47 -4 77 -1 l55 7 1 -43 c0 -24 4 -62 8 -84 l8 -40 11 28 c7
16 12 45 12 65 0 79 4 82 89 82 84 0 125 14 77 26 -15 3 -54 3 -87 0 -67 -8
-79 -4 -72 23 3 14 17 22 44 26 47 8 42 25 -8 25 -31 0 -35 3 -30 21 4 15 -1
22 -19 30 -14 5 -27 9 -29 9 -2 0 -5 -17 -7 -37z"/>
</g>
</svg>
