<?xml version="1.0" standalone="no"?>
<!DOCTYPE svg PUBLIC "-//W3C//DTD SVG 20010904//EN"
 "http://www.w3.org/TR/2001/REC-SVG-20010904/DTD/svg10.dtd">
<svg version="1.0" xmlns="http://www.w3.org/2000/svg"
 width="90.000000pt" height="92.000000pt" viewBox="0 0 90.000000 92.000000"
 preserveAspectRatio="xMidYMid meet">
<metadata>
Created by potrace 1.16, written by Peter Selinger 2001-2019
</metadata>
<g transform="translate(0.000000,92.000000) scale(0.100000,-0.100000)"
fill="#000000" stroke="none">
<path d="M171 764 c-15 -61 -53 -135 -91 -177 -34 -39 -35 -45 -16 -69 12 -17
16 -17 60 -2 26 9 49 14 52 12 5 -6 -75 -119 -95 -134 -13 -10 -13 -16 -3 -38
11 -25 13 -26 34 -12 13 8 47 24 77 36 51 20 54 20 66 3 18 -24 38 -5 33 33
-2 20 -13 34 -37 48 l-34 20 6 -31 c6 -30 4 -32 -40 -47 -26 -9 -48 -14 -50
-12 -2 2 33 52 77 111 82 110 92 133 65 155 -19 16 -19 16 -43 -45 -19 -49
-20 -50 -66 -53 -25 -2 -46 0 -46 3 0 4 27 48 60 99 33 51 60 98 60 104 0 11
-38 42 -51 42 -4 0 -12 -21 -18 -46z"/>
<path d="M535 769 c-77 -10 -162 -18 -189 -18 -42 -1 -47 -3 -36 -16 7 -9 20
-53 29 -98 17 -88 15 -87 83 -73 25 5 27 3 25 -28 -2 -33 -3 -34 -64 -46 -34
-6 -67 -9 -74 -4 -9 5 -10 1 -5 -17 4 -13 10 -70 13 -126 6 -101 16 -139 31
-117 4 6 26 13 49 15 l41 4 6 -46 c7 -52 41 -94 85 -107 51 -14 243 -7 283 11
47 21 62 47 44 73 -8 11 -20 40 -27 64 l-12 45 -16 -54 c-10 -31 -25 -60 -38
-68 -32 -21 -168 -28 -218 -11 -67 22 -70 35 -59 318 6 135 6 247 2 248 -21 9
-4 22 27 22 31 0 35 -3 41 -37 4 -21 4 -127 1 -238 -6 -191 -2 -235 21 -221
22 13 107 24 118 15 18 -15 30 9 52 106 11 50 23 100 27 112 11 34 -32 57 -82
45 -21 -6 -52 -12 -68 -15 -30 -6 -30 -5 -27 34 3 24 9 39 18 39 7 0 36 5 64
11 39 8 50 15 46 26 -6 15 15 63 46 103 l20 25 -29 22 c-33 27 -40 27 -228 2z
m155 -41 c0 -55 -20 -96 -52 -107 -17 -6 -33 -9 -36 -7 -2 3 -5 34 -6 70 l-1
66 48 0 c42 0 47 -2 47 -22z m-246 -20 c3 -13 6 -42 6 -65 0 -38 -2 -42 -31
-48 -17 -4 -32 -5 -33 -3 -2 1 -6 31 -10 65 l-7 62 28 4 c15 2 31 5 34 6 4 0
9 -9 13 -21z m264 -259 l3 -35 -58 -2 c-63 -2 -61 -4 -54 60 1 7 61 16 91 14
10 -1 16 -14 18 -37z m-266 4 c8 -33 -6 -68 -27 -69 -11 0 -30 -4 -42 -8 -22
-7 -23 -5 -23 38 0 43 1 45 33 49 17 2 37 5 43 5 7 1 14 -6 16 -15z m258 -100
c0 -41 -10 -50 -60 -58 l-45 -7 3 46 4 46 49 0 c47 0 49 -1 49 -27z m-260 -36
c0 -34 -4 -43 -17 -43 -10 0 -28 -4 -39 -7 -17 -6 -23 -3 -28 15 -13 51 -8 67
27 71 17 2 38 5 45 5 8 1 12 -12 12 -41z"/>
<path d="M230 329 c0 -23 35 -69 53 -69 14 0 18 6 15 27 -2 19 -12 30 -35 40
-23 9 -33 10 -33 2z"/>
<path d="M130 304 c0 -10 43 -78 54 -86 16 -11 26 1 26 33 0 25 -6 33 -35 45
-38 16 -45 17 -45 8z"/>
<path d="M41 218 c35 -71 48 -83 67 -65 31 32 -28 127 -79 127 -18 0 -17 -5
12 -62z"/>
</g>
</svg>
