<?xml version="1.0" standalone="no"?>
<!DOCTYPE svg PUBLIC "-//W3C//DTD SVG 20010904//EN"
 "http://www.w3.org/TR/2001/REC-SVG-20010904/DTD/svg10.dtd">
<svg version="1.0" xmlns="http://www.w3.org/2000/svg"
 width="96.000000pt" height="68.000000pt" viewBox="0 0 96.000000 68.000000"
 preserveAspectRatio="xMidYMid meet">
<metadata>
Created by potrace 1.16, written by Peter Selinger 2001-2019
</metadata>
<g transform="translate(0.000000,68.000000) scale(0.100000,-0.100000)"
fill="#000000" stroke="none">
<path d="M284 555 c3 -8 8 -44 12 -80 6 -54 10 -65 25 -65 14 0 19 7 19 30 0
29 2 30 44 30 25 0 47 4 50 9 10 15 -21 21 -56 10 -18 -5 -34 -9 -35 -9 -2 0
-3 17 -3 39 0 32 -4 40 -22 45 -35 9 -41 7 -34 -9z"/>
</g>
</svg>
