<?xml version="1.0" standalone="no"?>
<!DOCTYPE svg PUBLIC "-//W3C//DTD SVG 20010904//EN"
 "http://www.w3.org/TR/2001/REC-SVG-20010904/DTD/svg10.dtd">
<svg version="1.0" xmlns="http://www.w3.org/2000/svg"
 width="96.000000pt" height="68.000000pt" viewBox="0 0 96.000000 68.000000"
 preserveAspectRatio="xMidYMid meet">
<metadata>
Created by potrace 1.16, written by Peter Selinger 2001-2019
</metadata>
<g transform="translate(0.000000,68.000000) scale(0.100000,-0.100000)"
fill="#000000" stroke="none">
<path d="M634 218 c-5 -7 -3 -8 7 -3 11 7 12 6 3 -6 -5 -8 -9 -20 -8 -26 1 -7
2 -17 3 -23 2 -14 20 -12 37 4 9 10 10 17 4 21 -6 4 -7 11 -4 17 4 6 0 14 -7
19 -19 12 -26 11 -35 -3z"/>
<path d="M738 183 c7 -3 16 -2 19 1 4 3 -2 6 -13 5 -11 0 -14 -3 -6 -6z"/>
<path d="M645 131 c3 -5 -5 -17 -17 -25 -22 -15 -20 -16 35 -16 31 0 57 4 57
8 0 4 -12 8 -27 7 -21 0 -28 5 -27 18 1 9 -5 17 -13 17 -8 0 -12 -4 -8 -9z"/>
<path d="M741 111 c-20 -13 2 -22 50 -19 36 2 39 3 23 15 -20 15 -53 17 -73 4z"/>
<path d="M500 88 c0 -5 20 -8 45 -8 25 0 45 5 45 10 0 6 -20 9 -45 8 -25 -2
-45 -6 -45 -10z"/>
</g>
</svg>
