<?xml version="1.0" standalone="no"?>
<!DOCTYPE svg PUBLIC "-//W3C//DTD SVG 20010904//EN"
 "http://www.w3.org/TR/2001/REC-SVG-20010904/DTD/svg10.dtd">
<svg version="1.0" xmlns="http://www.w3.org/2000/svg"
 width="96.000000pt" height="68.000000pt" viewBox="0 0 96.000000 68.000000"
 preserveAspectRatio="xMidYMid meet">
<metadata>
Created by potrace 1.16, written by Peter Selinger 2001-2019
</metadata>
<g transform="translate(0.000000,68.000000) scale(0.100000,-0.100000)"
fill="#000000" stroke="none">
<path d="M490 613 c1 -5 20 -21 43 -36 23 -16 57 -39 76 -53 41 -29 67 -31 74
-5 7 28 -27 55 -99 80 -63 22 -94 26 -94 14z"/>
<path d="M316 576 c-3 -13 -32 -48 -63 -77 -52 -47 -55 -52 -29 -45 17 4 43
17 59 28 22 16 33 18 50 10 12 -5 37 -15 55 -22 17 -7 32 -15 32 -19 0 -7 -77
-60 -145 -100 -22 -13 -71 -36 -110 -52 -82 -33 -67 -38 23 -8 34 12 69 18 77
15 11 -4 14 -27 13 -112 -2 -101 -1 -107 22 -124 58 -44 355 -37 404 10 9 9
-13 100 -25 100 -3 0 -10 -15 -15 -32 -6 -21 -20 -38 -39 -48 -37 -18 -248
-26 -287 -11 -25 9 -28 16 -28 54 l0 44 88 6 c140 10 184 18 178 33 -3 7 3 28
13 47 32 63 9 71 -150 51 -67 -8 -128 -13 -136 -10 -17 7 -17 26 0 26 7 0 43
18 80 40 36 22 70 40 76 40 6 0 50 -26 98 -57 l88 -58 88 1 c118 2 129 16 30
39 -100 23 -199 57 -242 83 l-34 20 41 29 c48 32 50 42 18 65 -23 17 -24 16
-55 -28 -18 -24 -38 -44 -44 -44 -7 1 -36 9 -64 19 -50 17 -52 19 -35 34 10
10 22 14 27 10 4 -5 5 -3 1 4 -3 6 1 16 11 21 14 9 15 13 4 26 -7 9 -26 16
-41 16 -21 0 -29 -6 -34 -24z m226 -296 c-5 -34 -21 -48 -62 -52 -35 -3 -35
-3 -32 32 5 49 8 51 55 48 38 -3 42 -5 39 -28z m-132 -19 c0 -43 -10 -51 -66
-51 -32 0 -34 2 -34 35 0 39 19 53 73 54 25 1 27 -2 27 -38z"/>
</g>
</svg>
