<?xml version="1.0" standalone="no"?>
<!DOCTYPE svg PUBLIC "-//W3C//DTD SVG 20010904//EN"
 "http://www.w3.org/TR/2001/REC-SVG-20010904/DTD/svg10.dtd">
<svg version="1.0" xmlns="http://www.w3.org/2000/svg"
 width="96.000000pt" height="68.000000pt" viewBox="0 0 96.000000 68.000000"
 preserveAspectRatio="xMidYMid meet">
<metadata>
Created by potrace 1.16, written by Peter Selinger 2001-2019
</metadata>
<g transform="translate(0.000000,68.000000) scale(0.100000,-0.100000)"
fill="#000000" stroke="none">
<path d="M435 324 c-49 -7 -108 -10 -129 -7 -34 5 -38 3 -33 -12 4 -9 7 -41 7
-70 0 -50 2 -53 23 -50 30 5 238 20 260 19 11 0 16 4 13 13 -3 7 3 33 14 58
19 44 19 45 0 55 -22 12 -36 11 -155 -6z m105 -37 c0 -33 -20 -54 -57 -59 -32
-4 -33 -3 -33 32 0 46 4 50 52 50 33 0 38 -3 38 -23z m-130 -26 c0 -43 -10
-51 -66 -51 -32 0 -34 2 -34 35 0 39 19 53 73 54 25 1 27 -2 27 -38z"/>
</g>
</svg>
