<?xml version="1.0" standalone="no"?>
<!DOCTYPE svg PUBLIC "-//W3C//DTD SVG 20010904//EN"
 "http://www.w3.org/TR/2001/REC-SVG-20010904/DTD/svg10.dtd">
<svg version="1.0" xmlns="http://www.w3.org/2000/svg"
 width="90.000000pt" height="92.000000pt" viewBox="0 0 90.000000 92.000000"
 preserveAspectRatio="xMidYMid meet">
<metadata>
Created by potrace 1.16, written by Peter Selinger 2001-2019
</metadata>
<g transform="translate(0.000000,92.000000) scale(0.100000,-0.100000)"
fill="#000000" stroke="none">
<path d="M260 759 c-25 -23 -76 -60 -115 -82 -55 -33 -65 -43 -48 -45 12 -2
43 6 69 18 26 11 51 17 55 13 5 -5 11 -34 15 -65 8 -67 15 -62 -114 -80 -51
-8 -93 -18 -94 -23 0 -6 12 -16 28 -24 24 -12 37 -12 91 1 35 8 63 13 63 10 0
-2 -14 -30 -32 -61 -37 -67 -88 -132 -142 -183 -44 -42 -36 -49 22 -19 44 23
109 89 147 149 14 24 28 42 31 39 6 -6 -15 -193 -27 -239 -7 -28 -6 -46 7 -77
9 -23 20 -41 25 -41 24 0 33 54 37 224 l5 178 36 -43 c27 -30 42 -41 54 -36
42 16 -1 78 -63 92 -33 7 -40 31 -12 38 9 3 38 8 65 12 26 3 47 10 47 15 0 19
-40 30 -81 24 l-42 -7 7 56 c7 50 5 57 -15 71 l-22 15 24 9 c69 27 99 42 99
51 0 12 -49 51 -64 51 -6 -1 -31 -19 -56 -41z"/>
<path d="M660 779 c-48 -20 -175 -40 -212 -34 -41 7 -47 1 -23 -25 8 -9 21
-52 30 -95 8 -43 18 -82 22 -86 5 -4 33 -3 63 3 30 5 81 8 112 5 38 -3 60 -1
65 6 6 10 56 149 65 181 3 10 -70 56 -87 55 -5 0 -21 -5 -35 -10z m40 -75 c0
-33 -2 -36 -24 -30 -14 3 -59 1 -101 -5 -42 -6 -77 -10 -80 -8 -2 2 -6 16 -10
30 -6 25 -6 26 77 36 144 17 138 18 138 -23z m-14 -76 c-3 -13 -6 -27 -6 -33
0 -6 -39 -11 -90 -13 -89 -2 -90 -2 -90 22 0 23 4 25 78 31 42 4 82 8 87 10
22 8 27 4 21 -17z"/>
<path d="M580 494 c-41 -7 -92 -13 -114 -13 -32 -1 -37 -3 -26 -15 6 -8 33
-16 58 -18 46 -3 47 -4 50 -39 4 -44 -2 -46 -130 -56 -49 -3 -88 -10 -88 -15
0 -5 15 -15 33 -23 28 -11 42 -11 97 0 36 8 71 14 78 15 9 0 12 -27 12 -104 0
-254 43 -263 57 -11 3 62 11 113 17 117 6 4 64 8 129 8 128 0 144 9 76 42 -26
13 -44 15 -79 9 -25 -5 -67 -11 -93 -15 l-49 -6 7 30 c4 18 2 36 -4 44 -9 11
2 15 59 20 48 5 70 11 70 21 0 28 -40 30 -160 9z"/>
</g>
</svg>
