<?xml version="1.0" standalone="no"?>
<!DOCTYPE svg PUBLIC "-//W3C//DTD SVG 20010904//EN"
 "http://www.w3.org/TR/2001/REC-SVG-20010904/DTD/svg10.dtd">
<svg version="1.0" xmlns="http://www.w3.org/2000/svg"
 width="96.000000pt" height="68.000000pt" viewBox="0 0 96.000000 68.000000"
 preserveAspectRatio="xMidYMid meet">
<metadata>
Created by potrace 1.16, written by Peter Selinger 2001-2019
</metadata>
<g transform="translate(0.000000,68.000000) scale(0.100000,-0.100000)"
fill="#000000" stroke="none">
<path d="M302 501 c-8 -4 -11 -25 -10 -56 l3 -49 -88 -12 c-48 -6 -90 -14 -93
-17 -3 -3 3 -10 14 -16 14 -8 37 -8 77 0 31 6 59 8 62 5 9 -9 -65 -102 -119
-151 -27 -25 -44 -45 -36 -45 25 0 102 55 146 105 23 26 42 44 42 39 0 -5 -7
-53 -15 -106 -15 -102 -9 -148 19 -148 20 0 26 32 26 163 0 64 3 117 7 117 4
0 19 -12 34 -26 18 -17 34 -24 44 -20 26 9 13 29 -33 51 -54 26 -54 45 1 45
47 0 77 13 58 24 -6 4 -31 6 -54 5 -39 -3 -42 -2 -39 21 2 14 5 31 5 38 3 19
-35 43 -51 33z"/>
</g>
</svg>
