<?xml version="1.0" standalone="no"?>
<!DOCTYPE svg PUBLIC "-//W3C//DTD SVG 20010904//EN"
 "http://www.w3.org/TR/2001/REC-SVG-20010904/DTD/svg10.dtd">
<svg version="1.0" xmlns="http://www.w3.org/2000/svg"
 width="96.000000pt" height="68.000000pt" viewBox="0 0 96.000000 68.000000"
 preserveAspectRatio="xMidYMid meet">
<metadata>
Created by potrace 1.16, written by Peter Selinger 2001-2019
</metadata>
<g transform="translate(0.000000,68.000000) scale(0.100000,-0.100000)"
fill="#000000" stroke="none">
<path d="M580 319 c0 -4 5 -9 12 -11 8 -3 4 -12 -9 -25 -14 -14 -18 -24 -11
-31 5 -5 10 -54 11 -108 1 -55 3 -91 5 -81 2 9 7 15 11 13 4 -3 8 21 9 52 1
31 4 70 7 87 4 24 3 26 -4 10 -7 -15 -10 -16 -10 -4 -2 35 30 46 136 45 56 -1
99 2 97 6 -3 4 -50 8 -104 8 -95 0 -99 1 -102 23 -2 15 -10 22 -25 23 -13 1
-23 -2 -23 -7z"/>
<path d="M397 248 c5 -10 87 -8 128 2 20 5 2 7 -52 6 -44 -1 -79 -4 -76 -8z"/>
</g>
</svg>
