<?xml version="1.0" standalone="no"?>
<!DOCTYPE svg PUBLIC "-//W3C//DTD SVG 20010904//EN"
 "http://www.w3.org/TR/2001/REC-SVG-20010904/DTD/svg10.dtd">
<svg version="1.0" xmlns="http://www.w3.org/2000/svg"
 width="90.000000pt" height="92.000000pt" viewBox="0 0 90.000000 92.000000"
 preserveAspectRatio="xMidYMid meet">
<metadata>
Created by potrace 1.16, written by Peter Selinger 2001-2019
</metadata>
<g transform="translate(0.000000,92.000000) scale(0.100000,-0.100000)"
fill="#000000" stroke="none">
<path d="M450 845 c0 -9 11 -33 25 -54 l24 -39 -62 -10 c-34 -6 -82 -14 -106
-17 -41 -7 -43 -9 -26 -21 10 -8 31 -14 47 -14 15 0 28 -5 28 -10 0 -21 -33
-75 -83 -139 -40 -49 -45 -61 -26 -51 13 7 37 24 52 39 28 25 29 26 43 7 8
-11 14 -30 14 -43 0 -13 6 -38 14 -57 10 -25 11 -37 2 -52 -25 -45 -73 -98
-140 -156 -45 -39 -62 -58 -46 -53 43 13 83 36 129 73 l44 36 -5 -95 c-5 -101
-3 -119 15 -119 13 0 170 140 164 146 -2 2 -28 -9 -58 -26 -30 -16 -57 -30
-61 -30 -5 0 -8 32 -8 70 0 53 -4 72 -15 76 -11 5 -8 14 18 46 l32 40 -22 18
c-22 17 -21 17 45 24 114 12 141 18 136 30 -3 7 7 29 21 50 28 41 26 50 -13
70 -24 12 -41 11 -135 -6 -63 -12 -112 -17 -117 -12 -5 5 8 28 31 53 38 41 45
70 17 72 -28 1 34 18 91 25 l61 7 0 -45 c0 -57 23 -79 89 -86 66 -6 103 4 99
26 -3 14 -17 18 -73 22 -68 5 -70 6 -67 30 1 14 4 33 5 43 1 13 11 17 49 17
36 0 48 4 48 15 0 35 -51 41 -158 19 -31 -6 -33 -5 -27 17 7 30 -1 42 -42 63
-40 20 -53 20 -53 1z m134 -294 c3 -5 3 -22 0 -38 -5 -28 -11 -31 -69 -41 -90
-17 -92 -17 -97 22 -4 33 -2 35 37 45 77 20 122 24 129 12z"/>
<path d="M130 787 c0 -7 20 -33 45 -57 37 -37 46 -41 60 -30 34 28 10 67 -54
89 -43 14 -51 14 -51 -2z"/>
<path d="M60 583 c0 -13 46 -73 68 -88 25 -18 44 -4 40 31 -2 19 -12 33 -28
41 -38 18 -80 26 -80 16z"/>
<path d="M175 368 c-22 -39 -60 -91 -84 -115 -46 -47 -49 -68 -15 -120 21 -34
30 -29 49 29 9 29 34 93 55 143 21 49 41 100 45 113 13 44 -11 21 -50 -50z"/>
<path d="M620 380 c-19 -28 -39 -50 -43 -50 -5 0 -20 9 -34 20 -27 21 -63 27
-63 11 0 -5 9 -12 20 -16 11 -3 64 -53 117 -111 54 -58 107 -107 119 -110 25
-6 134 14 134 24 0 4 -37 22 -83 40 -47 18 -107 52 -141 79 l-58 47 68 34 68
34 -27 24 c-16 13 -31 24 -35 24 -4 -1 -23 -23 -42 -50z"/>
</g>
</svg>
