<?xml version="1.0" standalone="no"?>
<!DOCTYPE svg PUBLIC "-//W3C//DTD SVG 20010904//EN"
 "http://www.w3.org/TR/2001/REC-SVG-20010904/DTD/svg10.dtd">
<svg version="1.0" xmlns="http://www.w3.org/2000/svg"
 width="96.000000pt" height="68.000000pt" viewBox="0 0 96.000000 68.000000"
 preserveAspectRatio="xMidYMid meet">
<metadata>
Created by potrace 1.16, written by Peter Selinger 2001-2019
</metadata>
<g transform="translate(0.000000,68.000000) scale(0.100000,-0.100000)"
fill="#000000" stroke="none">
<path d="M460 583 c0 -13 32 -62 42 -66 7 -2 -29 -10 -80 -17 -64 -9 -90 -16
-83 -23 8 -8 55 -5 153 6 79 10 157 17 175 17 17 0 35 4 38 10 10 16 -44 23
-106 13 -57 -9 -59 -9 -59 12 0 13 -6 27 -12 32 -13 11 -68 23 -68 16z"/>
</g>
</svg>
