<?xml version="1.0" standalone="no"?>
<!DOCTYPE svg PUBLIC "-//W3C//DTD SVG 20010904//EN"
 "http://www.w3.org/TR/2001/REC-SVG-20010904/DTD/svg10.dtd">
<svg version="1.0" xmlns="http://www.w3.org/2000/svg"
 width="96.000000pt" height="68.000000pt" viewBox="0 0 96.000000 68.000000"
 preserveAspectRatio="xMidYMid meet">
<metadata>
Created by potrace 1.16, written by Peter Selinger 2001-2019
</metadata>
<g transform="translate(0.000000,68.000000) scale(0.100000,-0.100000)"
fill="#000000" stroke="none">
<path d="M500 383 l-55 -4 5 -87 5 -87 65 3 c36 2 67 6 69 8 2 2 10 -4 17 -14
8 -11 16 -14 23 -7 11 12 17 167 7 184 -7 11 -20 11 -136 4z m98 -41 c4 -24
-2 -27 -65 -36 -42 -6 -43 -6 -43 23 0 33 14 40 70 38 28 -2 36 -6 38 -25z m2
-82 c0 -30 -1 -30 -55 -30 -54 0 -55 0 -55 30 0 30 1 30 55 30 54 0 55 0 55
-30z"/>
</g>
</svg>
