<?xml version="1.0" standalone="no"?>
<!DOCTYPE svg PUBLIC "-//W3C//DTD SVG 20010904//EN"
 "http://www.w3.org/TR/2001/REC-SVG-20010904/DTD/svg10.dtd">
<svg version="1.0" xmlns="http://www.w3.org/2000/svg"
 width="96.000000pt" height="68.000000pt" viewBox="0 0 96.000000 68.000000"
 preserveAspectRatio="xMidYMid meet">
<metadata>
Created by potrace 1.16, written by Peter Selinger 2001-2019
</metadata>
<g transform="translate(0.000000,68.000000) scale(0.100000,-0.100000)"
fill="#000000" stroke="none">
<path d="M661 523 c0 -73 -11 -104 -48 -131 -18 -14 -23 -21 -13 -22 18 0 61
28 73 47 12 19 28 16 58 -13 27 -26 49 -26 49 0 0 14 -41 36 -65 36 -8 0 -15
9 -15 19 0 14 14 24 50 37 39 14 47 21 38 31 -15 18 -31 16 -51 -7 -25 -30
-34 -25 -33 18 1 31 -3 38 -21 40 -20 3 -21 -1 -22 -55z"/>
<path d="M467 508 c2 -66 -10 -95 -51 -130 -20 -18 -20 -18 -1 -12 11 4 32 18
48 32 l27 26 28 -27 c33 -32 42 -34 42 -8 0 11 -12 23 -30 31 -43 18 -40 47 5
56 42 8 50 17 30 34 -13 10 -19 10 -33 -4 -27 -24 -32 -20 -29 21 2 31 -2 39
-18 41 -18 3 -20 -2 -18 -60z"/>
<path d="M197 543 c-4 -3 -2 -12 3 -18 7 -8 9 -64 8 -141 -3 -127 -3 -129 -27
-132 -23 -4 -24 -2 -17 48 8 56 -3 80 -35 80 -16 0 -19 -8 -19 -50 0 -27 -5
-61 -12 -75 -9 -21 -9 -29 5 -42 15 -15 22 -15 89 5 86 26 108 27 108 8 0 -20
19 -31 32 -18 5 5 17 46 27 90 19 88 15 102 -28 102 -26 0 -26 -1 -23 -65 4
-61 2 -65 -18 -65 -22 0 -22 2 -19 131 4 124 3 132 -16 140 -26 10 -50 11 -58
2z"/>
<path d="M600 501 c0 -15 31 -42 41 -35 13 8 -8 44 -26 44 -8 0 -15 -4 -15 -9z"/>
<path d="M390 483 c1 -14 27 -43 39 -43 15 0 14 23 -1 38 -13 13 -38 16 -38 5z"/>
<path d="M645 345 c-55 -7 -130 -12 -167 -11 -66 2 -66 1 -82 -31 -9 -19 -16
-40 -16 -48 0 -23 29 -6 46 26 13 26 20 29 64 29 l50 0 0 -35 c0 -40 -23 -55
-86 -55 -21 0 -33 -4 -29 -10 3 -5 26 -10 50 -10 37 0 42 -3 38 -19 -5 -21
-51 -71 -103 -114 -19 -15 -29 -27 -24 -27 22 0 103 60 130 96 16 22 31 41 35
44 3 3 8 13 12 23 5 13 18 17 52 17 45 0 45 0 45 -35 0 -19 -8 -51 -17 -70
-15 -32 -21 -36 -49 -33 l-31 4 20 -28 c24 -32 48 -36 73 -11 20 20 44 75 44
100 0 10 7 30 14 45 13 25 13 29 -6 42 -14 10 -36 13 -75 9 -54 -6 -55 -5 -44
15 9 17 8 23 -10 35 -11 8 -17 17 -12 20 16 9 183 19 183 10 0 -5 -8 -19 -17
-33 -16 -22 -16 -23 2 -16 11 4 38 10 62 13 51 7 55 23 14 52 -32 23 -27 23
-166 6z"/>
</g>
</svg>
