<?xml version="1.0" standalone="no"?>
<!DOCTYPE svg PUBLIC "-//W3C//DTD SVG 20010904//EN"
 "http://www.w3.org/TR/2001/REC-SVG-20010904/DTD/svg10.dtd">
<svg version="1.0" xmlns="http://www.w3.org/2000/svg"
 width="96.000000pt" height="68.000000pt" viewBox="0 0 96.000000 68.000000"
 preserveAspectRatio="xMidYMid meet">
<metadata>
Created by potrace 1.16, written by Peter Selinger 2001-2019
</metadata>
<g transform="translate(0.000000,68.000000) scale(0.100000,-0.100000)"
fill="#000000" stroke="none">
<path d="M550 575 c0 -31 -40 -112 -86 -177 -45 -64 -20 -64 43 0 46 46 48 47
146 62 97 14 130 31 88 45 -10 3 -50 -1 -87 -10 -37 -8 -69 -13 -71 -11 -3 2
7 22 21 43 l27 38 -22 18 c-32 26 -59 22 -59 -8z"/>
<path d="M280 552 c-12 -48 -56 -115 -109 -169 -23 -24 -36 -43 -29 -43 18 0
89 49 110 76 14 18 32 22 110 28 97 7 123 17 91 34 -13 7 -37 6 -82 -4 -35 -8
-65 -13 -67 -11 -2 2 10 23 26 46 34 47 33 54 -10 69 -29 10 -30 10 -40 -26z"/>
<path d="M590 413 c0 -18 67 -73 88 -73 30 0 29 35 0 54 -29 18 -88 31 -88 19z"/>
<path d="M310 380 c14 -26 56 -54 70 -45 29 18 -12 65 -58 65 -20 0 -21 -3
-12 -20z"/>
</g>
</svg>
