<?xml version="1.0" standalone="no"?>
<!DOCTYPE svg PUBLIC "-//W3C//DTD SVG 20010904//EN"
 "http://www.w3.org/TR/2001/REC-SVG-20010904/DTD/svg10.dtd">
<svg version="1.0" xmlns="http://www.w3.org/2000/svg"
 width="96.000000pt" height="68.000000pt" viewBox="0 0 96.000000 68.000000"
 preserveAspectRatio="xMidYMid meet">
<metadata>
Created by potrace 1.16, written by Peter Selinger 2001-2019
</metadata>
<g transform="translate(0.000000,68.000000) scale(0.100000,-0.100000)"
fill="#000000" stroke="none">
<path d="M515 573 c-49 -8 -100 -16 -113 -19 -39 -8 -14 -24 38 -24 49 0 60
-9 60 -50 0 -16 -11 -20 -80 -26 -74 -6 -79 -8 -66 -23 8 -9 20 -47 27 -85
l11 -68 51 6 50 7 -7 -32 c-3 -17 -6 -35 -6 -39 0 -22 -34 -15 -77 16 -47 33
-83 44 -83 24 0 -5 5 -10 11 -10 14 0 109 -63 109 -72 0 -12 -83 -64 -130 -82
l-45 -16 41 4 c22 2 68 18 103 35 70 34 66 35 150 -28 54 -41 55 -41 140 -40
47 1 100 5 116 9 l30 7 -28 11 c-16 7 -39 12 -51 12 -54 0 -234 58 -265 86 -2
2 7 28 20 59 26 62 51 76 103 57 23 -9 33 -9 42 1 11 11 74 154 74 168 0 4
-14 12 -30 19 -29 12 -82 10 -136 -6 -19 -5 -22 -1 -26 30 l-4 35 56 12 c77
16 82 18 75 29 -8 13 -48 11 -160 -7z m145 -138 c0 -28 -4 -30 -67 -39 -42 -6
-43 -6 -43 23 0 32 10 37 78 40 28 1 32 -2 32 -24z m-160 -25 c0 -29 -1 -30
-50 -30 -46 0 -50 2 -50 24 0 26 13 33 68 35 29 1 32 -2 32 -29z m146 -52 c-3
-13 -6 -26 -6 -30 0 -5 -23 -8 -51 -8 -47 0 -50 2 -47 23 2 16 12 24 38 28 67
12 73 11 66 -13z m-146 -23 c0 -20 -5 -25 -24 -25 -13 0 -31 -3 -39 -6 -9 -3
-16 3 -20 17 -9 32 -1 39 44 39 35 0 39 -3 39 -25z"/>
<path d="M195 459 c-16 -5 -43 -9 -60 -8 -45 2 -47 1 -34 -23 7 -13 17 -47 23
-78 l11 -55 45 5 c25 2 59 4 76 5 29 0 32 3 31 32 -1 17 8 50 18 73 16 35 17
43 4 51 -18 11 -75 10 -114 -2z m47 -66 c-2 -27 -5 -49 -6 -49 0 -1 -18 -4
-38 -8 -41 -8 -38 -13 -42 72 -1 16 20 24 80 31 8 1 10 -15 6 -46z"/>
</g>
</svg>
