<?xml version="1.0" standalone="no"?>
<!DOCTYPE svg PUBLIC "-//W3C//DTD SVG 20010904//EN"
 "http://www.w3.org/TR/2001/REC-SVG-20010904/DTD/svg10.dtd">
<svg version="1.0" xmlns="http://www.w3.org/2000/svg"
 width="96.000000pt" height="68.000000pt" viewBox="0 0 96.000000 68.000000"
 preserveAspectRatio="xMidYMid meet">
<metadata>
Created by potrace 1.16, written by Peter Selinger 2001-2019
</metadata>
<g transform="translate(0.000000,68.000000) scale(0.100000,-0.100000)"
fill="#000000" stroke="none">
<path d="M310 534 c-25 -7 -69 -13 -99 -13 -52 -1 -53 -2 -38 -19 10 -10 24
-42 32 -70 16 -52 23 -60 41 -43 5 5 37 11 72 13 48 2 61 6 57 16 -3 8 4 35
15 60 11 25 17 49 13 53 -16 14 -49 16 -93 3z m35 -56 c-4 -24 -8 -44 -9 -45
-2 -2 -23 -6 -48 -9 -46 -6 -46 -6 -58 30 -7 21 -9 40 -6 44 6 5 71 18 109 21
17 1 18 -4 12 -41z"/>
</g>
</svg>
