<?xml version="1.0" standalone="no"?>
<!DOCTYPE svg PUBLIC "-//W3C//DTD SVG 20010904//EN"
 "http://www.w3.org/TR/2001/REC-SVG-20010904/DTD/svg10.dtd">
<svg version="1.0" xmlns="http://www.w3.org/2000/svg"
 width="90.000000pt" height="92.000000pt" viewBox="0 0 90.000000 92.000000"
 preserveAspectRatio="xMidYMid meet">
<metadata>
Created by potrace 1.16, written by Peter Selinger 2001-2019
</metadata>
<g transform="translate(0.000000,92.000000) scale(0.100000,-0.100000)"
fill="#000000" stroke="none">
<path d="M528 855 c-3 -3 -2 -25 3 -48 4 -23 8 -74 9 -113 l0 -71 -46 -7 c-26
-3 -72 -6 -102 -6 -53 0 -54 -1 -38 -19 9 -10 23 -54 31 -97 9 -43 18 -87 21
-96 6 -18 30 -25 36 -10 2 5 24 12 51 15 l47 7 0 -185 c0 -111 4 -185 10 -185
17 0 29 73 36 220 4 87 11 148 18 152 6 4 41 8 79 8 61 0 82 9 58 25 -11 6 21
84 51 128 16 23 18 30 7 43 -24 29 -65 44 -96 35 -15 -5 -47 -12 -70 -15 l-43
-6 0 57 c0 32 4 75 9 96 9 37 -4 67 -29 67 -5 0 -15 2 -22 5 -8 3 -17 3 -20 0z
m186 -253 c2 -4 -1 -34 -8 -67 -11 -55 -14 -61 -41 -66 -75 -16 -75 -16 -75
60 0 46 4 71 13 74 20 8 105 8 111 -1z m-175 -82 l-1 -69 -44 -7 c-25 -3 -47
-5 -48 -3 -2 2 -8 32 -13 67 -10 62 -10 62 16 68 14 3 31 7 36 9 6 2 20 4 32
4 21 1 22 -3 22 -69z"/>
<path d="M158 835 c-3 -3 1 -29 9 -58 18 -66 11 -427 -11 -561 -13 -79 -13
-93 1 -127 8 -22 19 -39 24 -39 27 0 33 54 37 305 l4 260 39 -45 c36 -41 40
-43 55 -28 26 25 9 54 -43 74 l-45 18 6 83 7 83 -33 20 c-35 21 -42 23 -50 15z"/>
<path d="M51 524 c-35 -75 -38 -96 -15 -119 22 -22 39 -6 59 55 16 47 13 114
-5 125 -5 3 -22 -25 -39 -61z"/>
</g>
</svg>
