<?xml version="1.0" standalone="no"?>
<!DOCTYPE svg PUBLIC "-//W3C//DTD SVG 20010904//EN"
 "http://www.w3.org/TR/2001/REC-SVG-20010904/DTD/svg10.dtd">
<svg version="1.0" xmlns="http://www.w3.org/2000/svg"
 width="96.000000pt" height="68.000000pt" viewBox="0 0 96.000000 68.000000"
 preserveAspectRatio="xMidYMid meet">
<metadata>
Created by potrace 1.16, written by Peter Selinger 2001-2019
</metadata>
<g transform="translate(0.000000,68.000000) scale(0.100000,-0.100000)"
fill="#000000" stroke="none">
<path d="M596 571 c-6 -49 -7 -50 -49 -59 l-42 -10 33 -7 c34 -8 35 -13 17
-57 -12 -30 12 -20 36 15 35 51 48 57 121 57 37 0 68 4 68 9 0 16 -39 23 -91
16 -54 -8 -54 -7 -37 31 11 23 10 28 -7 40 -32 24 -42 16 -49 -35z"/>
<path d="M317 574 c-3 -3 3 -20 14 -38 l19 -33 -37 -7 c-21 -3 -55 -6 -75 -6
-44 0 -49 -15 -13 -32 20 -9 37 -8 80 4 l55 15 13 -25 c6 -14 18 -28 26 -30
11 -4 12 3 7 32 -7 35 -5 37 24 42 42 9 38 24 -5 17 -31 -5 -35 -3 -35 15 0
36 -51 68 -73 46z"/>
</g>
</svg>
