<?xml version="1.0" standalone="no"?>
<!DOCTYPE svg PUBLIC "-//W3C//DTD SVG 20010904//EN"
 "http://www.w3.org/TR/2001/REC-SVG-20010904/DTD/svg10.dtd">
<svg version="1.0" xmlns="http://www.w3.org/2000/svg"
 width="96.000000pt" height="68.000000pt" viewBox="0 0 96.000000 68.000000"
 preserveAspectRatio="xMidYMid meet">
<metadata>
Created by potrace 1.16, written by Peter Selinger 2001-2019
</metadata>
<g transform="translate(0.000000,68.000000) scale(0.100000,-0.100000)"
fill="#000000" stroke="none">
<path d="M520 615 c0 -28 -4 -35 -19 -35 -28 0 -52 -11 -45 -21 3 -5 16 -9 30
-9 23 0 24 -3 18 -36 -6 -33 -5 -35 13 -24 10 7 26 25 35 40 16 28 53 40 126
40 17 0 32 5 32 10 0 17 -46 29 -84 23 -30 -5 -35 -3 -30 10 6 17 -23 37 -55
37 -17 0 -21 -6 -21 -35z"/>
<path d="M278 624 c-4 -3 0 -17 9 -30 9 -14 13 -27 10 -30 -3 -3 -33 -8 -66
-11 -63 -6 -71 -12 -46 -33 15 -12 79 -9 118 5 12 5 18 0 23 -19 8 -35 34 -34
34 2 0 22 7 31 33 42 l32 14 -37 3 c-31 4 -37 8 -40 31 -2 22 -9 28 -33 30
-17 2 -34 0 -37 -4z"/>
<path d="M389 507 c-1 -1 -3 -12 -4 -23 -8 -77 -9 -78 -149 -90 -60 -5 -75 -9
-61 -17 10 -5 48 -7 91 -3 45 4 74 3 74 -3 0 -17 -94 -93 -155 -124 -33 -16
-55 -32 -48 -34 14 -5 93 30 144 64 44 29 59 24 59 -21 0 -29 -4 -34 -31 -40
-17 -3 -42 -6 -56 -6 -14 0 -21 -4 -18 -10 3 -5 26 -10 51 -10 33 0 44 -4 44
-16 0 -20 -17 -54 -43 -81 -11 -13 -18 -26 -14 -29 12 -13 58 33 83 84 22 44
31 52 54 52 15 0 48 3 74 6 l46 7 0 -87 c0 -66 3 -87 13 -84 7 3 16 37 21 86
l9 81 51 6 c45 7 48 9 31 21 -10 8 -33 14 -51 14 -30 0 -32 2 -29 30 3 25 0
33 -18 39 -32 12 -40 3 -33 -39 6 -37 5 -38 -32 -44 -20 -3 -52 -6 -69 -6 -31
0 -33 2 -33 35 0 21 -5 35 -12 35 -7 0 -19 4 -27 9 -11 7 -9 16 13 44 23 30
34 35 79 40 28 2 61 0 72 -6 17 -9 114 -87 153 -125 30 -27 55 -34 108 -27 30
3 54 10 54 14 0 5 -28 16 -62 26 -34 9 -79 28 -100 41 -21 13 -40 24 -43 24
-3 0 -24 13 -47 30 l-41 30 54 1 c30 0 74 4 99 8 l45 7 -27 13 c-21 11 -48 11
-135 2 -148 -15 -157 -15 -148 7 17 41 16 48 -9 60 -14 6 -27 11 -27 9z"/>
<path d="M570 475 c26 -27 60 -33 60 -10 0 17 -30 35 -61 35 l-22 0 23 -25z"/>
</g>
</svg>
