<?xml version="1.0" standalone="no"?>
<!DOCTYPE svg PUBLIC "-//W3C//DTD SVG 20010904//EN"
 "http://www.w3.org/TR/2001/REC-SVG-20010904/DTD/svg10.dtd">
<svg version="1.0" xmlns="http://www.w3.org/2000/svg"
 width="96.000000pt" height="68.000000pt" viewBox="0 0 96.000000 68.000000"
 preserveAspectRatio="xMidYMid meet">
<metadata>
Created by potrace 1.16, written by Peter Selinger 2001-2019
</metadata>
<g transform="translate(0.000000,68.000000) scale(0.100000,-0.100000)"
fill="#000000" stroke="none">
<path d="M635 444 c-44 -7 -102 -13 -130 -13 l-50 -1 2 -86 c0 -47 4 -88 7
-91 10 -10 288 19 291 31 2 6 5 44 7 83 4 70 3 73 -22 81 -15 5 -58 3 -105 -4z
m79 -30 c14 -37 3 -130 -14 -119 -5 3 -30 1 -57 -4 -26 -5 -72 -12 -100 -16
l-53 -6 0 71 0 70 38 1 c20 1 51 5 67 9 55 14 112 11 119 -6z"/>
</g>
</svg>
