<?xml version="1.0" standalone="no"?>
<!DOCTYPE svg PUBLIC "-//W3C//DTD SVG 20010904//EN"
 "http://www.w3.org/TR/2001/REC-SVG-20010904/DTD/svg10.dtd">
<svg version="1.0" xmlns="http://www.w3.org/2000/svg"
 width="96.000000pt" height="68.000000pt" viewBox="0 0 96.000000 68.000000"
 preserveAspectRatio="xMidYMid meet">
<metadata>
Created by potrace 1.16, written by Peter Selinger 2001-2019
</metadata>
<g transform="translate(0.000000,68.000000) scale(0.100000,-0.100000)"
fill="#000000" stroke="none">
<path d="M371 602 c-11 -21 -38 -55 -62 -75 -49 -44 -29 -50 28 -8 34 24 55
30 142 40 143 15 161 15 161 -7 0 -28 -30 -134 -41 -148 -7 -9 -18 -10 -35 -4
-29 12 -30 6 -3 -31 26 -37 42 -37 72 4 21 27 77 174 77 200 0 4 -14 14 -31
21 -25 11 -41 11 -87 0 -32 -8 -83 -14 -116 -14 -48 0 -56 2 -47 14 8 10 8 16
-1 23 -32 24 -38 23 -57 -15z"/>
</g>
</svg>
