<?xml version="1.0" standalone="no"?>
<!DOCTYPE svg PUBLIC "-//W3C//DTD SVG 20010904//EN"
 "http://www.w3.org/TR/2001/REC-SVG-20010904/DTD/svg10.dtd">
<svg version="1.0" xmlns="http://www.w3.org/2000/svg"
 width="96.000000pt" height="68.000000pt" viewBox="0 0 96.000000 68.000000"
 preserveAspectRatio="xMidYMid meet">
<metadata>
Created by potrace 1.16, written by Peter Selinger 2001-2019
</metadata>
<g transform="translate(0.000000,68.000000) scale(0.100000,-0.100000)"
fill="#000000" stroke="none">
<path d="M357 303 c4 -11 8 -13 11 -5 2 7 8 10 13 6 5 -3 9 0 9 5 0 6 -9 11
-20 11 -14 0 -18 -5 -13 -17z"/>
<path d="M375 282 c-12 -8 -16 -92 -5 -92 5 0 10 23 12 50 1 28 3 50 3 50 0 0
-5 -4 -10 -8z"/>
<path d="M359 160 c-1 -11 -2 -26 -3 -32 -1 -7 7 -12 17 -12 9 1 17 -3 17 -9
0 -7 4 -7 12 1 7 7 44 12 98 12 47 0 99 4 117 9 20 6 47 5 74 -2 32 -8 44 -7
47 1 2 7 8 12 13 12 6 0 7 -4 4 -10 -8 -12 5 -13 24 -1 19 12 -15 29 -49 25
-14 -1 -60 -4 -102 -5 -42 -1 -75 -5 -73 -8 2 -4 -36 -6 -83 -5 -81 1 -87 2
-90 22 -4 28 -21 29 -23 2z"/>
</g>
</svg>
