<?xml version="1.0" standalone="no"?>
<!DOCTYPE svg PUBLIC "-//W3C//DTD SVG 20010904//EN"
 "http://www.w3.org/TR/2001/REC-SVG-20010904/DTD/svg10.dtd">
<svg version="1.0" xmlns="http://www.w3.org/2000/svg"
 width="96.000000pt" height="68.000000pt" viewBox="0 0 96.000000 68.000000"
 preserveAspectRatio="xMidYMid meet">
<metadata>
Created by potrace 1.16, written by Peter Selinger 2001-2019
</metadata>
<g transform="translate(0.000000,68.000000) scale(0.100000,-0.100000)"
fill="#000000" stroke="none">
<path d="M400 604 c-108 -56 -93 -57 113 -3 38 10 49 32 21 43 -27 10 -47 5
-134 -40z"/>
<path d="M585 551 c-3 -11 -24 -36 -45 -55 -22 -20 -37 -36 -33 -36 15 0 163
74 163 81 0 12 -35 29 -59 29 -11 0 -22 -9 -26 -19z"/>
<path d="M394 524 c15 -58 70 -91 64 -37 -2 18 -14 33 -37 47 l-34 20 7 -30z"/>
<path d="M256 518 c25 -42 50 -68 66 -68 18 0 24 25 10 46 -18 27 -91 48 -76
22z"/>
</g>
</svg>
