<?xml version="1.0" standalone="no"?>
<!DOCTYPE svg PUBLIC "-//W3C//DTD SVG 20010904//EN"
 "http://www.w3.org/TR/2001/REC-SVG-20010904/DTD/svg10.dtd">
<svg version="1.0" xmlns="http://www.w3.org/2000/svg"
 width="96.000000pt" height="68.000000pt" viewBox="0 0 96.000000 68.000000"
 preserveAspectRatio="xMidYMid meet">
<metadata>
Created by potrace 1.16, written by Peter Selinger 2001-2019
</metadata>
<g transform="translate(0.000000,68.000000) scale(0.100000,-0.100000)"
fill="#000000" stroke="none">
<path d="M475 355 c-5 -3 -50 -11 -100 -18 l-90 -13 40 -26 c22 -14 55 -41 73
-60 l33 -35 -43 -28 c-24 -16 -74 -39 -113 -51 -54 -18 -63 -23 -39 -24 35 0
120 27 183 59 l42 22 52 -44 c76 -65 91 -70 161 -63 144 16 160 27 64 46 -87
17 -177 46 -216 70 l-33 20 33 48 c17 26 38 53 45 61 8 7 12 18 10 25 -3 11
-82 19 -102 11z m25 -30 c0 -13 -41 -85 -48 -85 -4 1 -25 16 -46 34 l-40 34
45 10 c51 11 89 14 89 7z"/>
</g>
</svg>
