<?xml version="1.0" standalone="no"?>
<!DOCTYPE svg PUBLIC "-//W3C//DTD SVG 20010904//EN"
 "http://www.w3.org/TR/2001/REC-SVG-20010904/DTD/svg10.dtd">
<svg version="1.0" xmlns="http://www.w3.org/2000/svg"
 width="90.000000pt" height="92.000000pt" viewBox="0 0 90.000000 92.000000"
 preserveAspectRatio="xMidYMid meet">
<metadata>
Created by potrace 1.16, written by Peter Selinger 2001-2019
</metadata>
<g transform="translate(0.000000,92.000000) scale(0.100000,-0.100000)"
fill="#000000" stroke="none">
<path d="M174 828 c4 -18 10 -79 13 -134 6 -115 14 -103 -89 -124 -94 -19 -62
-48 38 -35 l54 6 0 -58 0 -58 -63 -36 c-34 -21 -77 -44 -94 -53 -40 -20 -44
-52 -9 -68 23 -10 31 -5 89 46 35 31 67 56 71 56 7 0 0 -106 -11 -163 -5 -27
-7 -28 -46 -21 l-42 7 50 -54 c27 -30 53 -55 57 -57 4 -2 14 10 22 27 12 23
16 62 16 167 l0 136 45 40 c53 46 52 60 0 29 -20 -11 -38 -21 -41 -21 -3 0 -4
21 -2 47 3 45 4 47 42 57 22 6 41 16 43 22 5 14 -40 34 -64 28 -17 -5 -18 0
-12 68 4 40 10 87 14 105 7 29 4 34 -26 52 -50 30 -63 28 -55 -11z"/>
<path d="M500 810 c0 -6 14 -29 30 -52 36 -50 35 -51 -70 -68 -109 -17 -112
-18 -100 -40 14 -27 12 -154 -4 -231 -16 -73 -58 -179 -88 -222 -31 -44 -15
-42 25 2 43 47 70 99 87 161 6 25 15 61 20 80 9 34 10 35 55 32 l45 -4 0 -47
c0 -73 11 -81 95 -67 58 9 70 14 67 28 -2 10 2 43 8 73 l11 55 49 0 c27 0 51
4 55 10 9 15 -42 43 -71 37 -24 -4 -26 -2 -20 23 6 32 -18 60 -51 60 -18 0
-20 -5 -15 -49 4 -49 4 -49 -29 -56 -19 -3 -42 -9 -51 -11 -14 -4 -18 1 -18
23 0 35 -16 53 -46 53 -22 0 -22 -1 -7 -40 9 -22 14 -42 12 -44 -2 -2 -20 -6
-40 -9 l-36 -5 5 51 c8 91 10 93 109 110 48 9 121 19 161 22 39 4 72 11 72 16
0 5 -14 16 -30 24 -24 13 -38 14 -68 5 -55 -15 -60 -13 -58 22 1 25 -4 35 -24
44 -40 18 -80 26 -80 14z m130 -355 c0 -40 -3 -47 -26 -55 -54 -21 -64 -15
-64 39 0 46 2 50 28 54 63 9 62 10 62 -38z"/>
<path d="M710 286 c0 -2 15 -28 33 -59 17 -30 40 -69 49 -86 20 -36 34 -39 43
-11 12 38 -6 79 -52 120 -39 34 -73 51 -73 36z"/>
<path d="M388 227 c-41 -78 -34 -143 11 -102 35 30 53 155 23 155 -4 0 -19
-24 -34 -53z"/>
<path d="M600 275 c0 -13 43 -95 55 -105 20 -17 35 -3 35 30 0 19 -10 36 -31
54 -27 23 -59 34 -59 21z"/>
<path d="M490 255 c0 -24 43 -105 56 -105 13 0 24 22 24 47 0 17 -53 73 -69
73 -6 0 -11 -7 -11 -15z"/>
</g>
</svg>
