<?xml version="1.0" standalone="no"?>
<!DOCTYPE svg PUBLIC "-//W3C//DTD SVG 20010904//EN"
 "http://www.w3.org/TR/2001/REC-SVG-20010904/DTD/svg10.dtd">
<svg version="1.0" xmlns="http://www.w3.org/2000/svg"
 width="90.000000pt" height="92.000000pt" viewBox="0 0 90.000000 92.000000"
 preserveAspectRatio="xMidYMid meet">
<metadata>
Created by potrace 1.16, written by Peter Selinger 2001-2019
</metadata>
<g transform="translate(0.000000,92.000000) scale(0.100000,-0.100000)"
fill="#000000" stroke="none">
<path d="M509 828 c-13 -29 -40 -71 -59 -92 -43 -49 -26 -44 77 21 83 53 90
74 37 105 l-31 18 -24 -52z"/>
<path d="M270 772 c16 -27 38 -56 48 -65 25 -23 44 -7 40 34 -2 25 -12 39 -37
56 -19 13 -45 23 -57 23 l-24 0 30 -48z"/>
<path d="M497 675 c-26 -7 -98 -21 -160 -29 -61 -9 -113 -19 -116 -21 -11 -12
16 -20 82 -25 l72 -5 6 -42 5 -42 -65 -6 c-36 -4 -75 -9 -85 -12 -19 -5 -19
-6 0 -20 14 -10 36 -12 86 -7 l68 7 0 -50 0 -50 -88 -12 c-49 -6 -100 -11
-115 -11 -33 0 -35 -17 -3 -31 18 -9 52 -7 137 6 63 9 171 19 242 22 78 4 134
11 144 18 16 12 14 15 -20 31 -36 17 -42 17 -144 1 -58 -10 -107 -16 -108 -15
-1 2 0 24 3 49 l4 47 71 13 c39 8 72 19 74 25 5 16 -39 32 -67 24 -86 -23 -80
-25 -78 25 3 50 -1 47 101 65 37 7 70 16 72 20 7 11 -35 40 -55 39 -8 0 -37
-7 -63 -14z"/>
<path d="M111 186 c-44 -81 -50 -106 -26 -126 12 -10 18 -10 31 1 40 33 68
151 45 187 -6 10 -20 -8 -50 -62z"/>
<path d="M460 249 c0 -6 16 -42 36 -80 49 -93 87 -88 69 7 -4 24 -17 41 -43
59 -39 27 -62 32 -62 14z"/>
<path d="M640 256 c0 -10 107 -171 122 -184 40 -33 50 67 11 111 -32 35 -133
91 -133 73z"/>
<path d="M291 233 c0 -10 10 -45 22 -78 24 -66 51 -83 66 -43 14 38 2 75 -36
108 -38 34 -53 38 -52 13z"/>
</g>
</svg>
