<?xml version="1.0" standalone="no"?>
<!DOCTYPE svg PUBLIC "-//W3C//DTD SVG 20010904//EN"
 "http://www.w3.org/TR/2001/REC-SVG-20010904/DTD/svg10.dtd">
<svg version="1.0" xmlns="http://www.w3.org/2000/svg"
 width="96.000000pt" height="68.000000pt" viewBox="0 0 96.000000 68.000000"
 preserveAspectRatio="xMidYMid meet">
<metadata>
Created by potrace 1.16, written by Peter Selinger 2001-2019
</metadata>
<g transform="translate(0.000000,68.000000) scale(0.100000,-0.100000)"
fill="#000000" stroke="none">
<path d="M420 396 l0 -34 -72 -7 c-87 -9 -71 -28 20 -23 56 3 57 3 60 -26 2
-16 0 -32 -5 -37 -4 -4 -50 -11 -100 -15 -51 -4 -93 -10 -93 -15 0 -16 41 -20
118 -10 44 6 140 13 213 17 148 7 176 14 139 34 -22 12 -88 10 -192 -7 -37 -5
-38 -4 -38 23 0 43 9 50 74 58 63 7 74 11 62 23 -8 8 -78 7 -107 -2 -16 -5
-19 -2 -19 24 0 28 -3 31 -30 31 -27 0 -30 -3 -30 -34z"/>
</g>
</svg>
