<?xml version="1.0" standalone="no"?>
<!DOCTYPE svg PUBLIC "-//W3C//DTD SVG 20010904//EN"
 "http://www.w3.org/TR/2001/REC-SVG-20010904/DTD/svg10.dtd">
<svg version="1.0" xmlns="http://www.w3.org/2000/svg"
 width="90.000000pt" height="92.000000pt" viewBox="0 0 90.000000 92.000000"
 preserveAspectRatio="xMidYMid meet">
<metadata>
Created by potrace 1.16, written by Peter Selinger 2001-2019
</metadata>
<g transform="translate(0.000000,92.000000) scale(0.100000,-0.100000)"
fill="#000000" stroke="none">
<path d="M297 893 c-2 -5 -7 -21 -11 -37 -10 -42 -55 -103 -125 -169 -67 -64
-52 -69 36 -11 l52 33 3 -27 c2 -15 0 -40 -4 -57 -10 -36 -2 -79 17 -95 10 -9
15 -4 21 22 9 42 9 162 0 177 -8 12 18 51 65 100 l23 24 -30 23 c-31 25 -40
29 -47 17z"/>
<path d="M438 768 c2 -62 9 -124 16 -138 25 -56 221 -80 304 -36 l32 17 -15
35 c-8 20 -15 47 -15 60 0 33 -16 30 -23 -4 -3 -16 -15 -39 -26 -53 -18 -22
-26 -24 -109 -24 -101 0 -122 10 -122 59 0 64 9 76 54 77 66 2 141 22 141 39
0 22 -45 24 -106 6 -78 -24 -82 -22 -74 20 7 40 -3 54 -41 54 -20 0 -20 -4
-16 -112z"/>
<path d="M435 519 c-55 -11 -120 -17 -144 -14 -38 4 -42 3 -35 -13 14 -32 16
-99 5 -170 -14 -93 -4 -124 39 -116 63 13 29 -45 -69 -116 -34 -25 -57 -46
-51 -48 14 -5 106 39 178 86 63 41 63 41 43 61 -10 10 -17 22 -13 25 3 3 47 6
98 6 77 0 93 -3 98 -17 6 -15 8 -15 24 1 13 13 17 38 19 119 1 56 4 120 7 143
5 36 2 42 -23 57 -34 20 -46 20 -176 -4z m125 -45 c14 -36 12 -46 -7 -40 -10
3 -67 -1 -128 -9 -60 -8 -113 -15 -117 -15 -14 0 -9 60 5 61 6 0 50 7 97 14
130 20 139 19 150 -11z m10 -93 c0 -28 -1 -28 -72 -34 -40 -4 -101 -10 -135
-13 l-63 -7 0 32 c0 18 3 30 8 27 6 -3 249 18 260 23 1 0 2 -12 2 -28z m0 -93
l0 -33 -135 -3 -135 -2 0 24 c0 23 3 24 108 33 175 16 162 18 162 -19z"/>
<path d="M560 115 c41 -41 80 -75 87 -75 22 0 26 41 6 69 -21 29 -115 81 -147
81 -16 0 -4 -17 54 -75z"/>
</g>
</svg>
