<?xml version="1.0" standalone="no"?>
<!DOCTYPE svg PUBLIC "-//W3C//DTD SVG 20010904//EN"
 "http://www.w3.org/TR/2001/REC-SVG-20010904/DTD/svg10.dtd">
<svg version="1.0" xmlns="http://www.w3.org/2000/svg"
 width="90.000000pt" height="92.000000pt" viewBox="0 0 90.000000 92.000000"
 preserveAspectRatio="xMidYMid meet">
<metadata>
Created by potrace 1.16, written by Peter Selinger 2001-2019
</metadata>
<g transform="translate(0.000000,92.000000) scale(0.100000,-0.100000)"
fill="#000000" stroke="none">
<path d="M389 883 c0 -5 -1 -80 -2 -168 l-2 -160 -80 -8 c-85 -8 -90 -10 -80
-26 3 -6 41 -11 88 -11 l82 0 -3 -49 -4 -48 -99 -12 c-55 -6 -129 -11 -164
-11 -35 0 -67 -5 -70 -10 -4 -6 13 -19 37 -30 39 -17 49 -18 108 -5 36 7 92
16 126 19 l61 7 6 -92 c4 -51 7 -127 7 -170 0 -43 4 -80 9 -83 18 -12 32 62
38 201 l6 141 30 6 c16 3 99 6 183 6 85 0 154 4 154 8 0 13 -32 39 -61 50 -15
6 -43 7 -70 2 -24 -5 -88 -12 -141 -16 l-98 -7 0 51 0 50 83 12 c104 15 118
22 84 45 -22 14 -34 15 -77 6 -88 -19 -89 -18 -85 42 3 28 7 94 9 145 l5 94
-34 14 c-39 16 -45 17 -46 7z"/>
<path d="M599 789 c-6 -13 -32 -44 -57 -71 -25 -27 -43 -50 -41 -52 5 -5 177
59 187 69 10 9 -10 34 -45 56 l-32 20 -12 -22z"/>
<path d="M210 736 c0 -25 64 -101 89 -104 20 -3 22 0 19 34 -2 30 -9 42 -33
55 -48 27 -75 33 -75 15z"/>
</g>
</svg>
