<?xml version="1.0" standalone="no"?>
<!DOCTYPE svg PUBLIC "-//W3C//DTD SVG 20010904//EN"
 "http://www.w3.org/TR/2001/REC-SVG-20010904/DTD/svg10.dtd">
<svg version="1.0" xmlns="http://www.w3.org/2000/svg"
 width="90.000000pt" height="92.000000pt" viewBox="0 0 90.000000 92.000000"
 preserveAspectRatio="xMidYMid meet">
<metadata>
Created by potrace 1.16, written by Peter Selinger 2001-2019
</metadata>
<g transform="translate(0.000000,92.000000) scale(0.100000,-0.100000)"
fill="#000000" stroke="none">
<path d="M327 801 c9 -76 -1 -101 -40 -102 -17 -1 -43 -4 -57 -8 l-25 -7 24
-13 c13 -7 39 -11 58 -9 l35 4 -6 -40 c-8 -49 -18 -56 -80 -56 -42 0 -47 -2
-41 -17 4 -10 13 -53 20 -95 11 -76 23 -106 32 -80 3 6 15 12 29 12 17 0 25
-7 30 -24 13 -52 4 -60 -75 -71 -65 -9 -72 -12 -58 -24 19 -15 48 -17 100 -7
36 8 37 7 37 -20 0 -16 -5 -49 -11 -73 -10 -43 4 -111 23 -111 19 0 30 58 24
125 -3 39 -2 76 3 84 5 7 30 16 55 18 61 7 55 28 -7 28 -44 0 -47 2 -47 26 0
14 -5 30 -11 36 -16 16 36 29 55 14 19 -16 31 2 50 74 8 33 21 62 28 64 24 8
77 73 111 138 l34 65 29 -42 c59 -85 105 -139 123 -145 20 -6 111 13 111 24 0
3 -32 21 -70 39 -42 19 -91 53 -124 86 -54 52 -55 54 -43 86 11 28 10 33 -7
46 -32 23 -44 16 -51 -28 -9 -55 -36 -122 -76 -194 -29 -50 -33 -54 -40 -36
-12 31 -41 43 -80 32 -18 -5 -34 -8 -36 -7 -1 2 0 20 4 40 6 38 10 40 76 52
20 3 37 10 37 15 0 17 -38 30 -68 24 -30 -6 -30 -6 -23 29 5 19 11 40 15 45 9
15 -29 52 -54 52 -17 0 -18 -5 -13 -49z m83 -262 c0 -26 -3 -31 -20 -26 -11 3
-44 -1 -73 -9 -68 -18 -67 -18 -67 15 0 25 5 29 43 38 23 6 59 11 80 12 35 1
37 -1 37 -30z m-12 -76 c-2 -19 -9 -29 -23 -30 -11 -1 -44 -5 -72 -9 -52 -7
-53 -6 -53 20 0 23 4 26 38 27 20 1 51 5 67 9 17 4 34 8 38 9 5 0 7 -11 5 -26z"/>
<path d="M70 748 c0 -22 68 -88 90 -88 32 0 24 61 -10 76 -45 20 -80 26 -80
12z"/>
<path d="M20 564 c0 -16 81 -104 95 -104 19 0 28 35 15 60 -6 12 -22 25 -36
30 -44 17 -74 22 -74 14z"/>
<path d="M715 514 c-16 -7 -43 -13 -58 -14 -18 0 -27 -4 -24 -12 3 -9 21 -12
56 -10 l51 4 -2 -169 -3 -168 -39 2 -38 3 38 -44 c22 -24 42 -45 46 -45 4 -1
16 11 25 26 15 23 18 51 18 193 0 91 4 176 8 190 7 21 3 28 -20 41 -24 14 -32
14 -58 3z"/>
<path d="M517 492 c-43 -19 -40 -32 10 -32 l33 0 0 -134 c0 -74 -3 -141 -6
-149 -4 -12 -15 -14 -42 -10 l-36 6 33 -41 c42 -54 45 -55 67 -31 17 18 20 43
24 193 3 94 9 176 13 183 5 7 0 16 -12 22 -26 14 -38 13 -84 -7z"/>
<path d="M117 365 c-27 -36 -62 -72 -78 -80 -34 -18 -35 -26 -9 -82 17 -39 40
-58 40 -33 0 6 23 60 50 122 28 61 49 118 48 125 -2 7 -25 -16 -51 -52z"/>
<path d="M450 405 c0 -16 52 -75 66 -75 17 0 19 43 1 58 -16 14 -67 26 -67 17z"/>
<path d="M630 402 c0 -14 51 -62 65 -62 9 0 15 10 15 25 0 18 -7 28 -26 35
-30 12 -54 13 -54 2z"/>
<path d="M670 283 c-51 -27 -57 -35 -35 -53 12 -10 18 -10 30 0 19 16 59 70
54 73 -2 2 -24 -8 -49 -20z"/>
<path d="M490 280 c-19 -11 -43 -19 -52 -20 -22 0 -23 -23 -3 -40 13 -11 21
-8 46 16 26 25 56 65 47 64 -2 -1 -19 -9 -38 -20z"/>
</g>
</svg>
