<?xml version="1.0" standalone="no"?>
<!DOCTYPE svg PUBLIC "-//W3C//DTD SVG 20010904//EN"
 "http://www.w3.org/TR/2001/REC-SVG-20010904/DTD/svg10.dtd">
<svg version="1.0" xmlns="http://www.w3.org/2000/svg"
 width="96.000000pt" height="68.000000pt" viewBox="0 0 96.000000 68.000000"
 preserveAspectRatio="xMidYMid meet">
<metadata>
Created by potrace 1.16, written by Peter Selinger 2001-2019
</metadata>
<g transform="translate(0.000000,68.000000) scale(0.100000,-0.100000)"
fill="#000000" stroke="none">
<path d="M549 592 c-1 -4 0 -24 1 -45 1 -21 -1 -55 -5 -77 l-7 -39 -53 2 c-52
2 -53 2 -69 -34 -21 -47 -20 -59 3 -59 13 0 24 11 32 34 11 30 17 34 46 34
l34 0 -6 -41 c-10 -63 -58 -160 -105 -211 -48 -52 -33 -64 22 -18 67 55 89 94
124 212 l22 75 47 6 c55 6 65 -6 40 -45 -10 -14 -13 -26 -8 -26 15 0 107 32
116 40 5 4 -6 19 -24 34 -33 28 -60 30 -148 9 -23 -6 -24 -4 -17 28 21 104 21
105 -13 117 -17 6 -31 8 -32 4z"/>
<path d="M359 556 c-3 -3 -54 -12 -114 -21 -117 -16 -147 -29 -96 -40 l31 -7
2 -99 c4 -194 9 -172 -40 -184 -50 -12 -58 -26 -22 -38 20 -7 42 -1 109 32 46
23 88 41 92 41 4 0 6 -30 3 -67 -5 -68 6 -107 25 -88 5 6 12 102 16 215 4 113
9 208 12 213 2 4 15 7 29 7 38 0 28 34 -11 38 -17 2 -33 1 -36 -2z m-29 -92
c0 -33 -2 -36 -24 -30 -14 3 -37 1 -51 -4 -23 -9 -26 -8 -21 6 3 8 6 27 6 40
0 22 4 24 45 24 l45 0 0 -36z m0 -86 c0 -33 -1 -33 -50 -35 -49 -2 -50 -2 -50
27 0 26 4 29 38 33 20 2 43 4 50 5 7 1 12 -10 12 -30z m0 -88 c0 -31 -12 -40
-75 -56 -23 -6 -25 -4 -25 34 0 38 2 41 33 45 68 8 67 9 67 -23z"/>
<path d="M578 233 c-6 -96 1 -116 44 -134 78 -33 251 -4 233 39 -4 9 -10 27
-12 40 -7 29 -21 28 -29 -3 -9 -36 -32 -45 -118 -45 -72 0 -76 1 -82 25 -3 14
-4 37 0 50 3 14 9 36 12 50 7 27 -10 55 -31 55 -9 0 -14 -24 -17 -77z"/>
</g>
</svg>
