<?xml version="1.0" standalone="no"?>
<!DOCTYPE svg PUBLIC "-//W3C//DTD SVG 20010904//EN"
 "http://www.w3.org/TR/2001/REC-SVG-20010904/DTD/svg10.dtd">
<svg version="1.0" xmlns="http://www.w3.org/2000/svg"
 width="96.000000pt" height="68.000000pt" viewBox="0 0 96.000000 68.000000"
 preserveAspectRatio="xMidYMid meet">
<metadata>
Created by potrace 1.16, written by Peter Selinger 2001-2019
</metadata>
<g transform="translate(0.000000,68.000000) scale(0.100000,-0.100000)"
fill="#000000" stroke="none">
<path d="M243 514 c39 -36 82 -44 82 -14 0 18 -61 50 -95 50 -24 -1 -24 -2 13
-36z"/>
<path d="M140 415 c0 -12 66 -64 82 -65 38 0 32 40 -8 59 -25 11 -74 15 -74 6z"/>
<path d="M259 273 c-18 -26 -49 -62 -67 -79 -29 -27 -33 -35 -27 -62 6 -31 31
-60 41 -49 11 11 96 229 91 234 -3 2 -20 -17 -38 -44z"/>
</g>
</svg>
