<?xml version="1.0" standalone="no"?>
<!DOCTYPE svg PUBLIC "-//W3C//DTD SVG 20010904//EN"
 "http://www.w3.org/TR/2001/REC-SVG-20010904/DTD/svg10.dtd">
<svg version="1.0" xmlns="http://www.w3.org/2000/svg"
 width="90.000000pt" height="92.000000pt" viewBox="0 0 90.000000 92.000000"
 preserveAspectRatio="xMidYMid meet">
<metadata>
Created by potrace 1.16, written by Peter Selinger 2001-2019
</metadata>
<g transform="translate(0.000000,92.000000) scale(0.100000,-0.100000)"
fill="#000000" stroke="none">
<path d="M498 772 l5 -89 -39 -6 c-22 -4 -52 -7 -67 -7 -19 0 -27 -4 -25 -12
3 -8 29 -14 71 -16 l67 -3 0 -48 0 -49 -105 -13 c-58 -6 -108 -15 -110 -19 -9
-14 50 -30 100 -28 l50 3 3 -60 c6 -112 -29 -228 -93 -304 -34 -40 -20 -40 28
0 72 59 113 166 119 311 l2 67 35 6 c20 4 38 2 45 -5 7 -7 12 -76 14 -192 l4
-181 -29 6 c-15 4 -39 9 -53 13 -21 6 -16 -3 30 -50 30 -31 58 -56 63 -56 4 0
15 16 23 36 12 29 14 76 12 240 l-3 204 85 0 c104 0 122 9 84 39 -32 25 -25
25 -139 6 -122 -20 -115 -22 -115 34 l0 49 43 7 c83 13 127 27 127 41 0 22
-40 26 -105 11 l-60 -14 6 66 c6 58 4 68 -13 84 -11 9 -30 17 -43 17 -22 0
-22 -2 -17 -88z"/>
<path d="M155 599 c-27 -10 -69 -18 -92 -19 -48 0 -49 -1 -29 -33 8 -12 17
-54 21 -93 8 -82 17 -103 37 -87 7 6 46 15 86 18 67 7 85 16 63 30 -11 6 12
92 36 139 15 28 14 31 -7 48 -27 22 -49 21 -115 -3z m50 -76 c-11 -86 -14 -92
-43 -99 -15 -3 -34 -8 -43 -10 -20 -5 -29 22 -29 88 0 45 2 48 33 57 17 5 45
10 60 10 28 1 28 1 22 -46z"/>
<path d="M690 416 c0 -17 96 -186 106 -186 19 0 25 47 10 82 -7 18 -24 43 -37
54 -31 27 -79 58 -79 50z"/>
<path d="M330 380 c0 -31 -23 -80 -63 -132 -20 -27 -34 -48 -31 -48 34 0 139
102 150 147 7 27 -11 53 -37 53 -12 0 -19 -7 -19 -20z"/>
</g>
</svg>
