<?xml version="1.0" standalone="no"?>
<!DOCTYPE svg PUBLIC "-//W3C//DTD SVG 20010904//EN"
 "http://www.w3.org/TR/2001/REC-SVG-20010904/DTD/svg10.dtd">
<svg version="1.0" xmlns="http://www.w3.org/2000/svg"
 width="90.000000pt" height="92.000000pt" viewBox="0 0 90.000000 92.000000"
 preserveAspectRatio="xMidYMid meet">
<metadata>
Created by potrace 1.16, written by Peter Selinger 2001-2019
</metadata>
<g transform="translate(0.000000,92.000000) scale(0.100000,-0.100000)"
fill="#000000" stroke="none">
<path d="M460 804 c-82 -16 -145 -22 -182 -19 -63 5 -63 6 -48 -45 12 -43 -3
-187 -31 -290 -24 -87 -86 -210 -141 -276 -21 -25 -38 -48 -38 -51 0 -2 14 4
31 14 65 37 137 138 179 248 9 23 12 24 31 14 14 -7 41 -9 76 -4 54 7 55 6 48
-17 -28 -93 -69 -155 -137 -209 -53 -42 -50 -49 10 -23 71 29 129 101 168 208
21 60 22 61 68 70 26 4 49 7 50 5 2 -2 -2 -35 -10 -74 -28 -148 -14 -209 59
-247 60 -32 193 -33 234 -2 30 23 31 26 10 124 l-14 65 -17 -60 c-10 -33 -22
-65 -27 -71 -27 -33 -179 -21 -199 16 -21 40 -5 150 36 233 18 37 18 38 -4 59
-21 22 -23 22 -88 6 l-66 -16 5 28 c4 15 9 39 12 52 5 21 1 27 -26 41 -18 8
-36 14 -40 11 -4 -2 -5 -28 -2 -57 8 -80 -3 -94 -82 -102 -36 -4 -68 -5 -71
-2 -4 4 23 159 29 163 1 0 75 9 165 19 129 15 162 21 157 32 -5 15 38 107 55
118 5 3 10 10 10 16 0 11 -60 50 -75 48 -5 -1 -66 -12 -135 -25z m112 -29 c3
-3 1 -27 -4 -53 l-10 -47 -106 -18 c-59 -9 -120 -17 -136 -17 -28 0 -28 1 -22
47 3 25 9 50 13 54 16 16 253 46 265 34z"/>
</g>
</svg>
