<?xml version="1.0" standalone="no"?>
<!DOCTYPE svg PUBLIC "-//W3C//DTD SVG 20010904//EN"
 "http://www.w3.org/TR/2001/REC-SVG-20010904/DTD/svg10.dtd">
<svg version="1.0" xmlns="http://www.w3.org/2000/svg"
 width="90.000000pt" height="92.000000pt" viewBox="0 0 90.000000 92.000000"
 preserveAspectRatio="xMidYMid meet">
<metadata>
Created by potrace 1.16, written by Peter Selinger 2001-2019
</metadata>
<g transform="translate(0.000000,92.000000) scale(0.100000,-0.100000)"
fill="#000000" stroke="none">
<path d="M170 825 c0 -31 -40 -123 -79 -181 -40 -58 -22 -56 40 6 43 43 55 50
90 50 l40 0 -33 -61 c-37 -69 -55 -79 -135 -79 l-55 0 15 -23 c8 -13 18 -46
22 -73 13 -95 25 -126 43 -119 9 4 50 12 91 17 57 8 75 7 81 -2 17 -27 37 1
59 81 23 83 44 128 54 112 3 -4 11 -36 17 -71 12 -61 26 -84 39 -66 8 12 23
13 165 18 l120 4 32 64 c18 34 33 68 34 74 0 6 -13 17 -29 24 -24 10 -52 9
-147 -5 -146 -21 -241 -23 -282 -6 -31 13 -64 11 -107 -5 -16 -6 -13 0 13 33
17 22 46 55 62 73 36 39 37 47 6 61 -19 9 -35 8 -72 -5 -26 -9 -49 -14 -52
-11 -3 2 3 16 12 29 22 34 20 52 -6 70 -31 22 -38 20 -38 -9z m570 -262 c0 -2
-5 -23 -11 -46 -10 -41 -11 -42 -53 -42 l-44 0 19 38 c11 21 17 42 14 47 -3 5
7 10 22 12 28 4 53 0 53 -9z m-123 -39 c-5 -45 -18 -64 -44 -64 -7 0 -13 11
-13 24 0 14 -4 36 -10 50 -8 22 -6 25 18 29 57 9 55 10 49 -39z m-303 11 c-1
-11 -5 -46 -9 -77 l-6 -58 -35 0 c-32 0 -34 2 -34 35 0 28 4 35 19 35 26 0 51
10 51 21 0 5 -15 9 -34 9 -35 0 -38 7 -27 58 1 2 18 2 39 0 30 -2 37 -7 36
-23z m206 -11 c18 -45 12 -62 -21 -69 -17 -4 -32 -5 -33 -3 -2 1 -7 24 -10 51
l-7 47 31 0 c24 0 33 -6 40 -26z m-335 -13 c0 -19 -7 -26 -29 -32 -36 -10 -46
-4 -46 26 0 26 13 35 50 32 19 -2 25 -8 25 -26z m5 -90 c0 -21 -6 -30 -22 -35
-42 -11 -48 -7 -48 29 0 33 2 35 35 35 32 0 35 -3 35 -29z"/>
<path d="M580 814 c-36 -7 -89 -14 -117 -15 -29 -1 -53 -3 -53 -4 0 -1 6 -18
14 -36 7 -19 17 -55 20 -81 4 -25 14 -52 23 -60 14 -12 15 -5 11 70 -4 77 -3
83 16 87 24 5 161 25 172 25 4 0 4 -38 0 -85 -4 -47 -3 -85 1 -85 20 1 32 20
56 92 l26 78 -22 15 c-25 18 -58 17 -147 -1z"/>
<path d="M550 733 c-8 -2 -22 -7 -30 -9 -13 -5 -13 -6 0 -15 22 -13 115 5 105
22 -6 9 -49 11 -75 2z"/>
<path d="M543 663 c-13 -2 -23 -9 -23 -14 0 -17 27 -21 69 -9 69 18 30 38 -46
23z"/>
<path d="M645 389 c-16 -5 -69 -14 -117 -20 -49 -7 -88 -15 -88 -20 0 -4 12
-15 28 -24 35 -22 105 -112 97 -125 -10 -16 -115 -66 -181 -86 -50 -16 -55
-19 -31 -22 34 -4 157 32 210 61 l38 21 42 -46 c23 -26 54 -49 69 -53 32 -8
150 15 155 31 2 6 -26 19 -63 29 -54 15 -146 54 -163 71 -5 5 71 117 87 127 6
4 12 14 12 21 0 30 -50 49 -95 35z m5 -55 c0 -19 -40 -94 -51 -94 -9 0 -82 81
-77 86 4 3 51 12 121 23 4 0 7 -6 7 -15z"/>
<path d="M310 315 c0 -3 14 -27 31 -55 34 -55 54 -60 54 -15 0 22 -9 35 -34
52 -32 22 -51 29 -51 18z"/>
<path d="M220 298 c0 -19 43 -91 55 -92 6 -1 11 13 13 30 2 25 -3 37 -24 53
-30 24 -44 27 -44 9z"/>
<path d="M130 286 c0 -8 9 -35 20 -60 14 -33 23 -44 35 -40 32 13 9 81 -36
104 -15 8 -19 7 -19 -4z"/>
<path d="M46 242 c-29 -57 -33 -94 -12 -111 10 -9 17 -6 30 14 21 32 31 107
18 131 -8 15 -13 11 -36 -34z"/>
</g>
</svg>
