<?xml version="1.0" standalone="no"?>
<!DOCTYPE svg PUBLIC "-//W3C//DTD SVG 20010904//EN"
 "http://www.w3.org/TR/2001/REC-SVG-20010904/DTD/svg10.dtd">
<svg version="1.0" xmlns="http://www.w3.org/2000/svg"
 width="96.000000pt" height="68.000000pt" viewBox="0 0 96.000000 68.000000"
 preserveAspectRatio="xMidYMid meet">
<metadata>
Created by potrace 1.16, written by Peter Selinger 2001-2019
</metadata>
<g transform="translate(0.000000,68.000000) scale(0.100000,-0.100000)"
fill="#000000" stroke="none">
<path d="M640 240 c0 -5 4 -11 8 -14 16 -9 6 -45 -17 -65 -13 -11 -20 -24 -17
-29 3 -5 -1 -9 -9 -9 -8 0 -12 4 -10 8 3 3 -11 20 -31 37 -20 17 -33 35 -30
40 5 9 -23 21 -48 22 -5 0 14 -21 42 -46 64 -58 67 -79 11 -94 -23 -6 -39 -13
-36 -16 2 -3 30 4 61 15 31 11 56 16 56 11 0 -4 18 -22 41 -38 35 -26 48 -30
86 -26 25 2 53 9 62 14 12 8 9 9 -11 4 -16 -3 -28 -2 -28 4 0 5 -12 12 -27 15
-16 3 -39 10 -53 15 -14 5 -29 10 -34 10 -10 0 -26 23 -26 38 0 6 11 17 25 24
22 12 42 44 37 62 -1 4 6 5 16 1 13 -4 14 -3 6 6 -13 15 -74 24 -74 11z"/>
<path d="M585 230 c-8 -13 5 -13 25 0 13 8 13 10 -2 10 -9 0 -20 -4 -23 -10z"/>
</g>
</svg>
