<?xml version="1.0" standalone="no"?>
<!DOCTYPE svg PUBLIC "-//W3C//DTD SVG 20010904//EN"
 "http://www.w3.org/TR/2001/REC-SVG-20010904/DTD/svg10.dtd">
<svg version="1.0" xmlns="http://www.w3.org/2000/svg"
 width="90.000000pt" height="92.000000pt" viewBox="0 0 90.000000 92.000000"
 preserveAspectRatio="xMidYMid meet">
<metadata>
Created by potrace 1.16, written by Peter Selinger 2001-2019
</metadata>
<g transform="translate(0.000000,92.000000) scale(0.100000,-0.100000)"
fill="#000000" stroke="none">
<path d="M485 880 c-3 -5 -1 -18 5 -29 29 -56 6 -73 -97 -74 -35 0 -63 -2 -63
-5 0 -2 7 -10 15 -18 8 -9 15 -24 15 -35 0 -30 30 -95 38 -83 4 6 28 13 55 16
44 5 47 4 47 -17 0 -26 -13 -29 -140 -41 -94 -8 -115 -18 -78 -34 21 -10 49
-9 140 4 62 9 171 19 241 23 70 3 131 11 134 16 3 6 -3 17 -13 24 -19 15 -53
14 -191 -3 -49 -6 -53 -5 -53 14 0 25 18 32 81 32 45 0 50 3 60 28 6 15 19 37
30 48 l20 22 -27 21 c-23 18 -35 20 -78 15 -28 -3 -57 -8 -65 -10 -11 -3 -12
4 -7 36 6 37 4 41 -20 50 -32 13 -41 13 -49 0z m159 -137 c-4 -16 -7 -29 -8
-29 -1 -1 -20 -5 -43 -9 l-43 -7 0 36 0 36 50 0 c50 0 50 0 44 -27z m-144 -17
c0 -38 -12 -46 -66 -46 -34 0 -35 1 -32 32 2 27 8 34 33 39 61 13 65 11 65
-25z"/>
<path d="M90 751 c0 -6 19 -32 42 -57 50 -55 81 -57 86 -6 3 29 -1 34 -30 46
-52 21 -98 29 -98 17z"/>
<path d="M550 543 c-41 -7 -97 -12 -123 -9 l-49 5 7 -27 c8 -32 8 -165 -1
-237 -4 -37 -1 -55 10 -70 14 -18 17 -18 26 -4 8 13 36 18 140 24 71 4 130 10
130 14 0 4 -4 11 -10 17 -6 6 1 23 22 48 l32 39 -23 18 c-28 23 -38 23 -161 4
-122 -19 -120 -19 -120 9 0 22 5 24 73 30 158 14 176 18 170 32 -3 7 9 31 26
53 l32 40 -30 16 c-35 18 -51 18 -151 -2z m90 -32 c0 -5 -4 -21 -9 -34 -8 -22
-18 -25 -78 -31 -37 -4 -81 -9 -97 -12 -27 -6 -28 -5 -21 27 4 19 8 35 9 36 5
5 114 21 154 22 23 0 42 -3 42 -8z m0 -201 c0 -38 -17 -45 -127 -55 l-83 -7 0
35 c0 35 1 36 48 42 26 3 54 8 62 9 8 2 34 4 58 5 40 1 42 0 42 -29z"/>
<path d="M155 532 c-17 -9 -52 -23 -80 -32 -46 -16 -48 -18 -28 -29 15 -8 35
-8 63 -2 22 5 42 5 45 1 3 -4 -1 -25 -8 -46 -13 -37 -13 -40 20 -82 24 -32 33
-54 33 -81 l0 -38 -52 -7 c-29 -3 -70 -6 -90 -6 -42 0 -47 -9 -19 -34 17 -15
25 -16 80 -5 80 17 120 8 329 -70 90 -34 176 -61 191 -61 23 0 147 38 213 65
37 15 4 25 -81 25 -133 0 -296 19 -401 47 -52 14 -108 28 -123 31 -21 3 -27 8
-21 21 25 60 15 103 -32 135 l-36 24 47 51 c51 55 53 71 8 95 -25 12 -32 12
-58 -2z"/>
</g>
</svg>
