<?xml version="1.0" standalone="no"?>
<!DOCTYPE svg PUBLIC "-//W3C//DTD SVG 20010904//EN"
 "http://www.w3.org/TR/2001/REC-SVG-20010904/DTD/svg10.dtd">
<svg version="1.0" xmlns="http://www.w3.org/2000/svg"
 width="90.000000pt" height="92.000000pt" viewBox="0 0 90.000000 92.000000"
 preserveAspectRatio="xMidYMid meet">
<metadata>
Created by potrace 1.16, written by Peter Selinger 2001-2019
</metadata>
<g transform="translate(0.000000,92.000000) scale(0.100000,-0.100000)"
fill="#000000" stroke="none">
<path d="M360 836 c0 -8 5 -27 11 -43 15 -41 12 -258 -5 -342 -28 -132 -93
-215 -231 -292 -64 -36 -57 -51 13 -28 132 43 231 141 264 263 7 25 15 46 18
46 3 0 24 -33 48 -73 60 -102 168 -236 200 -248 29 -12 181 -4 195 10 4 4 -29
24 -75 45 -134 61 -233 141 -329 267 l-35 47 7 78 c4 44 9 120 12 170 5 90 5
92 -19 103 -35 16 -74 14 -74 -3z"/>
<path d="M609 668 c-7 -18 -47 -68 -88 -110 -40 -43 -71 -78 -67 -78 16 0 86
41 157 92 41 30 83 57 92 61 9 3 17 10 17 15 0 16 -36 42 -67 48 -27 5 -31 2
-44 -28z"/>
<path d="M160 625 c0 -13 61 -124 75 -139 38 -38 65 -2 45 59 -7 22 -26 45
-48 60 -33 23 -72 33 -72 20z"/>
</g>
</svg>
