<?xml version="1.0" standalone="no"?>
<!DOCTYPE svg PUBLIC "-//W3C//DTD SVG 20010904//EN"
 "http://www.w3.org/TR/2001/REC-SVG-20010904/DTD/svg10.dtd">
<svg version="1.0" xmlns="http://www.w3.org/2000/svg"
 width="90.000000pt" height="92.000000pt" viewBox="0 0 90.000000 92.000000"
 preserveAspectRatio="xMidYMid meet">
<metadata>
Created by potrace 1.16, written by Peter Selinger 2001-2019
</metadata>
<g transform="translate(0.000000,92.000000) scale(0.100000,-0.100000)"
fill="#000000" stroke="none">
<path d="M420 802 c0 -22 -74 -149 -108 -184 -14 -16 -21 -28 -15 -28 24 0 81
51 137 123 58 75 60 79 41 93 -26 20 -55 18 -55 -4z"/>
<path d="M717 725 c-4 -24 -18 -72 -32 -106 -15 -34 -24 -63 -22 -65 2 -3 18
11 35 31 l31 35 27 -35 c21 -28 29 -33 40 -24 23 19 16 39 -21 60 -19 12 -35
24 -35 27 0 4 9 22 20 40 26 43 25 56 -5 70 -14 7 -27 12 -29 12 -2 0 -6 -20
-9 -45z"/>
<path d="M185 735 c-16 -8 -56 -17 -87 -21 -32 -3 -58 -8 -58 -9 0 -1 6 -15
14 -31 8 -16 17 -52 21 -79 7 -56 23 -89 32 -67 7 17 40 15 47 -4 3 -9 6 -69
6 -134 l0 -118 -30 -10 -29 -11 -3 97 -3 97 -29 3 c-25 3 -28 1 -23 -20 3 -13
9 -60 13 -105 l7 -83 -32 0 c-23 0 -31 -5 -31 -18 0 -36 51 -57 76 -32 6 6 57
30 115 55 128 55 148 87 31 50 -23 -8 -24 -7 -20 63 l3 70 42 7 c46 7 62 20
44 38 -7 7 -20 7 -45 0 l-34 -11 -4 44 c-3 36 0 44 16 46 13 2 20 13 23 38 2
19 12 53 23 75 26 53 25 59 -5 73 -32 15 -42 14 -80 -3z m30 -82 c-8 -58 -13
-63 -63 -73 -40 -7 -40 -7 -46 29 -14 83 -11 85 83 90 l33 1 -7 -47z"/>
<path d="M547 743 c-4 -3 -7 -20 -7 -37 0 -18 -16 -65 -35 -105 -20 -41 -34
-75 -32 -78 2 -2 22 15 43 37 l39 40 27 -32 c23 -28 29 -31 38 -18 16 24 12
39 -17 57 -16 9 -30 18 -32 20 -2 1 7 23 20 48 24 45 24 46 5 61 -21 15 -39
18 -49 7z"/>
<path d="M387 566 c-10 -32 -43 -89 -82 -140 -35 -47 -60 -86 -55 -86 5 0 34
23 64 51 l56 51 0 -113 c0 -63 -5 -131 -11 -152 -11 -40 3 -107 22 -107 20 0
27 51 30 197 2 123 0 155 -13 175 -15 22 -14 26 28 80 45 60 45 78 -2 92 -18
5 -23 -1 -37 -48z"/>
<path d="M616 438 c3 -46 6 -102 8 -125 2 -24 0 -43 -3 -43 -4 0 -26 14 -49
31 l-42 30 15 36 c14 33 14 38 -1 55 -28 30 -41 21 -48 -29 -4 -27 -18 -75
-32 -108 -14 -33 -28 -67 -31 -75 -10 -24 57 42 74 73 l14 29 88 -85 c49 -47
103 -93 121 -102 31 -16 35 -16 92 6 32 12 56 25 51 29 -4 4 -39 15 -77 24
-38 9 -82 24 -97 32 -28 14 -29 18 -29 84 l0 70 49 0 c54 0 81 7 81 21 0 19
-44 26 -85 13 l-41 -12 4 54 c4 51 3 54 -22 64 -15 5 -31 10 -36 10 -4 0 -6
-37 -4 -82z"/>
</g>
</svg>
