<?xml version="1.0" standalone="no"?>
<!DOCTYPE svg PUBLIC "-//W3C//DTD SVG 20010904//EN"
 "http://www.w3.org/TR/2001/REC-SVG-20010904/DTD/svg10.dtd">
<svg version="1.0" xmlns="http://www.w3.org/2000/svg"
 width="96.000000pt" height="68.000000pt" viewBox="0 0 96.000000 68.000000"
 preserveAspectRatio="xMidYMid meet">
<metadata>
Created by potrace 1.16, written by Peter Selinger 2001-2019
</metadata>
<g transform="translate(0.000000,68.000000) scale(0.100000,-0.100000)"
fill="#000000" stroke="none">
<path d="M440 402 c0 -21 -46 -89 -93 -139 -39 -42 -27 -42 25 -1 32 25 42 28
49 17 12 -19 11 -51 -2 -124 -13 -73 -13 -95 0 -108 21 -21 29 8 36 118 5 89
3 114 -9 130 -14 18 -12 23 21 57 40 41 39 68 -2 68 -18 0 -25 -5 -25 -18z"/>
</g>
</svg>
