<?xml version="1.0" standalone="no"?>
<!DOCTYPE svg PUBLIC "-//W3C//DTD SVG 20010904//EN"
 "http://www.w3.org/TR/2001/REC-SVG-20010904/DTD/svg10.dtd">
<svg version="1.0" xmlns="http://www.w3.org/2000/svg"
 width="96.000000pt" height="68.000000pt" viewBox="0 0 96.000000 68.000000"
 preserveAspectRatio="xMidYMid meet">
<metadata>
Created by potrace 1.16, written by Peter Selinger 2001-2019
</metadata>
<g transform="translate(0.000000,68.000000) scale(0.100000,-0.100000)"
fill="#000000" stroke="none">
<path d="M567 290 c3 -11 10 -17 15 -14 6 4 2 -5 -7 -20 -17 -25 -34 -38 -19
-14 5 8 2 9 -10 5 -10 -4 -22 -7 -27 -7 -5 0 -9 -5 -9 -11 0 -6 8 -8 19 -4 13
4 20 0 24 -15 3 -11 0 -23 -5 -27 -7 -3 -8 -1 -4 5 16 27 -11 10 -29 -18 -11
-16 -24 -30 -30 -30 -5 -1 -23 -12 -40 -26 -16 -14 -25 -24 -20 -22 63 27 76
35 81 51 3 10 8 16 11 13 3 -3 12 1 20 9 18 18 58 20 47 3 -21 -33 -9 -156 12
-135 12 12 13 91 2 105 -7 8 -7 12 0 12 6 0 9 7 6 15 -4 10 0 15 15 15 12 0
21 -5 21 -12 0 -6 3 -8 7 -5 3 4 -4 18 -17 32 -20 21 -21 27 -9 41 13 16 12
17 -8 12 -19 -5 -21 -3 -13 12 5 9 6 20 3 24 -3 3 0 6 8 6 12 0 12 2 -1 10 -9
6 -17 5 -22 -3 -6 -9 -8 -9 -8 1 0 6 -4 12 -9 12 -5 0 -7 -9 -4 -20z m38 -90
c3 -6 -1 -7 -9 -4 -18 7 -21 14 -7 14 6 0 13 -4 16 -10z"/>
<path d="M675 250 c-29 -7 -29 -8 10 -9 22 -1 51 -4 65 -6 22 -5 23 -4 5 5
-15 8 -9 9 25 4 33 -4 41 -2 30 5 -17 12 -90 12 -135 1z"/>
<path d="M442 233 c-12 -2 -20 -9 -17 -14 10 -15 62 -10 69 6 6 15 -5 17 -52
8z"/>
<path d="M661 159 c0 -9 15 -29 36 -44 27 -22 48 -29 85 -29 26 -1 48 2 48 7
0 4 -6 7 -14 7 -7 0 -34 9 -60 21 -25 11 -51 17 -58 13 -7 -5 -8 -3 -3 6 6 10
4 12 -8 7 -10 -4 -17 0 -20 11 -4 15 -5 15 -6 1z"/>
</g>
</svg>
