<?xml version="1.0" standalone="no"?>
<!DOCTYPE svg PUBLIC "-//W3C//DTD SVG 20010904//EN"
 "http://www.w3.org/TR/2001/REC-SVG-20010904/DTD/svg10.dtd">
<svg version="1.0" xmlns="http://www.w3.org/2000/svg"
 width="96.000000pt" height="68.000000pt" viewBox="0 0 96.000000 68.000000"
 preserveAspectRatio="xMidYMid meet">
<metadata>
Created by potrace 1.16, written by Peter Selinger 2001-2019
</metadata>
<g transform="translate(0.000000,68.000000) scale(0.100000,-0.100000)"
fill="#000000" stroke="none">
<path d="M640 536 c0 -58 -2 -64 -22 -70 -40 -10 -45 -7 -51 35 -5 41 -25 65
-39 51 -4 -4 -3 -25 3 -46 12 -44 3 -59 -32 -54 -19 2 -24 9 -23 33 1 32 -10
45 -39 45 -14 0 -16 -4 -7 -19 17 -33 13 -71 -9 -71 -10 0 -21 7 -25 15 -4 10
-20 15 -54 15 l-48 0 4 34 c3 30 0 36 -26 50 -35 18 -62 21 -62 6 0 -18 50
-90 63 -91 6 -1 -32 -9 -86 -18 -54 -9 -98 -21 -99 -26 -4 -24 52 -28 139 -12
163 30 166 31 159 18 -5 -7 3 -11 24 -11 31 0 31 0 29 -50 -2 -28 2 -54 7 -59
5 -6 28 -5 56 1 27 6 50 9 53 6 3 -2 8 -18 11 -35 6 -29 4 -30 -33 -36 -21 -4
-59 -7 -85 -7 -38 0 -48 -4 -48 -16 0 -15 10 -16 77 -10 l77 6 -39 -41 c-22
-23 -62 -56 -90 -75 -27 -19 -44 -34 -37 -34 21 0 86 37 131 74 24 20 45 36
47 36 2 0 4 -32 3 -71 -1 -42 3 -75 10 -82 20 -20 31 11 31 86 0 37 3 67 8 67
4 0 29 -23 57 -50 50 -50 50 -50 115 -50 59 1 63 2 46 15 -11 8 -26 15 -33 15
-39 0 -183 88 -183 112 0 4 45 8 100 8 103 0 125 10 66 30 -30 9 -77 8 -143
-6 -19 -4 -23 0 -23 21 0 17 -7 29 -22 35 -21 8 -22 9 -3 10 11 1 52 1 91 0
70 -2 105 12 63 25 -20 7 -188 -1 -241 -11 -28 -5 -28 -5 -28 44 0 48 1 50 30
54 27 4 30 2 30 -24 0 -29 24 -42 65 -34 11 3 30 5 43 5 18 1 22 7 22 35 0 31
3 34 38 40 20 3 49 6 65 6 15 0 27 4 27 9 0 15 -29 21 -75 14 -50 -6 -50 -7
-33 50 11 35 10 41 -7 53 -37 27 -45 18 -45 -50z m-5 -104 c-3 -7 -5 -18 -5
-23 0 -5 -13 -9 -30 -9 -23 0 -30 5 -30 19 0 19 15 26 53 27 11 0 15 -6 12
-14z"/>
<path d="M248 366 c-82 -16 -86 -30 -6 -22 83 8 105 15 86 27 -7 5 -15 8 -18
8 -3 -1 -31 -7 -62 -13z"/>
<path d="M237 296 c-59 -14 -52 -26 11 -20 69 7 94 13 87 24 -8 12 -35 11 -98
-4z"/>
<path d="M261 224 c-25 -9 -59 -14 -78 -11 -18 3 -33 2 -33 -4 0 -5 4 -9 9 -9
5 0 17 -23 26 -51 16 -46 19 -50 43 -45 15 3 44 8 65 12 22 4 36 11 34 18 -3
6 5 26 16 45 20 33 20 34 2 47 -23 17 -29 17 -84 -2z m39 -28 c0 -34 -20 -64
-45 -68 -21 -5 -28 -1 -36 19 -14 38 -11 51 14 56 47 9 67 7 67 -7z"/>
</g>
</svg>
