<?xml version="1.0" standalone="no"?>
<!DOCTYPE svg PUBLIC "-//W3C//DTD SVG 20010904//EN"
 "http://www.w3.org/TR/2001/REC-SVG-20010904/DTD/svg10.dtd">
<svg version="1.0" xmlns="http://www.w3.org/2000/svg"
 width="96.000000pt" height="68.000000pt" viewBox="0 0 96.000000 68.000000"
 preserveAspectRatio="xMidYMid meet">
<metadata>
Created by potrace 1.16, written by Peter Selinger 2001-2019
</metadata>
<g transform="translate(0.000000,68.000000) scale(0.100000,-0.100000)"
fill="#000000" stroke="none">
<path d="M494 598 c-9 -18 -34 -54 -56 -80 -43 -53 -37 -63 12 -22 22 19 45
28 80 30 46 3 50 2 50 -19 0 -13 -9 -33 -20 -45 -18 -20 -22 -20 -54 -7 -18 8
-36 11 -40 8 -3 -4 7 -12 24 -19 16 -7 30 -17 30 -22 0 -4 -33 -25 -72 -45
-59 -29 -66 -35 -38 -31 19 3 60 18 90 33 l55 28 70 -34 c64 -31 76 -34 138
-30 95 6 106 22 20 30 -71 7 -171 32 -187 48 -6 6 3 22 23 43 25 25 31 39 26
55 -6 19 -2 21 29 21 36 0 49 16 21 26 -8 4 -52 -1 -97 -10 -44 -9 -83 -14
-86 -11 -3 3 7 19 23 35 26 27 27 30 9 36 -10 4 -22 9 -26 11 -4 2 -15 -11
-24 -29z"/>
<path d="M270 583 c0 -41 -61 -143 -124 -209 -37 -38 -62 -70 -56 -72 13 -5
79 36 103 63 18 19 18 17 12 -95 -10 -170 -10 -179 7 -197 15 -14 17 -14 26 4
17 30 27 300 13 317 -10 12 -5 26 30 75 23 33 45 58 49 56 11 -7 10 48 -1 61
-17 21 -59 18 -59 -3z"/>
<path d="M308 323 c-3 -83 6 -124 23 -106 4 4 9 48 11 98 3 78 1 90 -14 93
-14 3 -17 -9 -20 -85z"/>
<path d="M502 304 l3 -49 -57 -9 c-71 -11 -77 -29 -8 -24 43 3 50 1 50 -16 0
-19 -60 -84 -95 -104 -32 -17 -10 -25 24 -8 47 25 97 72 111 106 14 34 22 36
133 45 42 4 77 10 77 15 0 13 -53 18 -105 10 -88 -15 -88 -15 -80 30 5 32 4
40 -8 40 -9 0 -22 3 -31 6 -14 5 -16 -2 -14 -42z"/>
<path d="M600 334 c0 -9 44 -43 56 -44 7 0 15 7 18 15 4 11 -3 19 -20 25 -28
11 -54 13 -54 4z"/>
<path d="M580 186 c0 -9 100 -100 121 -110 53 -25 32 46 -24 78 -42 25 -97 43
-97 32z"/>
</g>
</svg>
