<?xml version="1.0" standalone="no"?>
<!DOCTYPE svg PUBLIC "-//W3C//DTD SVG 20010904//EN"
 "http://www.w3.org/TR/2001/REC-SVG-20010904/DTD/svg10.dtd">
<svg version="1.0" xmlns="http://www.w3.org/2000/svg"
 width="96.000000pt" height="68.000000pt" viewBox="0 0 96.000000 68.000000"
 preserveAspectRatio="xMidYMid meet">
<metadata>
Created by potrace 1.16, written by Peter Selinger 2001-2019
</metadata>
<g transform="translate(0.000000,68.000000) scale(0.100000,-0.100000)"
fill="#000000" stroke="none">
<path d="M580 524 c-30 -8 -74 -13 -98 -12 -39 3 -42 1 -36 -17 3 -11 8 -52
11 -92 l5 -72 99 2 99 2 25 81 c14 45 25 86 25 92 0 9 -55 34 -69 31 -3 -1
-31 -8 -61 -15z m66 -29 c4 -8 4 -25 0 -38 -5 -20 -12 -22 -76 -24 l-70 -3 0
29 c0 26 3 28 58 38 82 14 82 14 88 -2z m-11 -97 c-10 -33 -14 -35 -77 -43
l-58 -6 0 30 c0 32 -9 29 118 39 20 2 22 -1 17 -20z"/>
</g>
</svg>
