<?xml version="1.0" standalone="no"?>
<!DOCTYPE svg PUBLIC "-//W3C//DTD SVG 20010904//EN"
 "http://www.w3.org/TR/2001/REC-SVG-20010904/DTD/svg10.dtd">
<svg version="1.0" xmlns="http://www.w3.org/2000/svg"
 width="90.000000pt" height="92.000000pt" viewBox="0 0 90.000000 92.000000"
 preserveAspectRatio="xMidYMid meet">
<metadata>
Created by potrace 1.16, written by Peter Selinger 2001-2019
</metadata>
<g transform="translate(0.000000,92.000000) scale(0.100000,-0.100000)"
fill="#000000" stroke="none">
<path d="M525 814 c-44 -7 -136 -20 -205 -29 -160 -20 -152 -17 -133 -56 12
-25 14 -50 10 -113 -12 -171 -62 -323 -144 -443 -50 -73 -32 -71 39 5 44 47
82 115 106 192 16 50 49 214 57 288 5 43 12 65 24 71 23 12 151 29 316 42 77
6 142 13 145 16 3 2 -6 13 -19 24 -27 22 -77 23 -196 3z"/>
<path d="M490 659 c-58 -10 -122 -18 -142 -18 -38 -1 -49 -13 -26 -27 6 -4 38
-7 70 -6 32 1 58 -2 58 -6 0 -24 -82 -117 -122 -138 -29 -15 -37 -45 -15 -62
8 -7 31 -5 75 6 73 19 82 14 82 -50 0 -41 0 -41 -92 -53 -82 -11 -55 -35 38
-35 l54 0 0 -44 c0 -43 -1 -44 -38 -50 -21 -3 -77 -9 -125 -12 -48 -4 -87 -10
-87 -14 0 -4 12 -15 26 -25 24 -15 35 -16 98 -6 105 17 303 29 368 24 65 -6
90 0 82 20 -11 30 -54 38 -165 31 l-109 -7 0 45 c0 43 2 46 31 52 17 3 46 6
63 6 18 0 40 6 51 13 17 13 16 15 -14 25 -18 6 -52 9 -77 5 l-44 -6 0 51 c0
30 -5 52 -12 54 -7 3 16 10 50 18 62 13 62 13 83 -14 32 -40 59 -30 59 23 0
32 -93 101 -135 101 -13 0 -9 -9 15 -37 l30 -38 -87 -12 c-49 -6 -101 -11
-118 -12 -30 0 -29 0 28 52 50 45 58 56 52 77 -6 25 -5 26 81 37 91 13 121 26
94 43 -20 13 -56 11 -180 -11z"/>
</g>
</svg>
