<?xml version="1.0" standalone="no"?>
<!DOCTYPE svg PUBLIC "-//W3C//DTD SVG 20010904//EN"
 "http://www.w3.org/TR/2001/REC-SVG-20010904/DTD/svg10.dtd">
<svg version="1.0" xmlns="http://www.w3.org/2000/svg"
 width="90.000000pt" height="92.000000pt" viewBox="0 0 90.000000 92.000000"
 preserveAspectRatio="xMidYMid meet">
<metadata>
Created by potrace 1.16, written by Peter Selinger 2001-2019
</metadata>
<g transform="translate(0.000000,92.000000) scale(0.100000,-0.100000)"
fill="#000000" stroke="none">
<path d="M591 825 c-11 -25 -30 -59 -41 -75 -12 -17 -19 -30 -15 -30 3 0 37
17 75 38 43 23 70 43 70 54 0 16 -44 58 -61 58 -4 0 -17 -20 -28 -45z"/>
<path d="M370 814 c0 -15 73 -104 85 -104 20 0 28 18 21 45 -8 31 -106 85
-106 59z"/>
<path d="M585 709 c-44 -9 -115 -20 -158 -24 -94 -9 -99 -29 -9 -33 l61 -3 7
-36 c8 -41 -4 -53 -53 -53 -17 0 -38 -3 -47 -6 -30 -12 -5 -24 50 -24 l54 0 0
-39 0 -39 -47 -6 c-27 -3 -74 -8 -105 -12 -32 -3 -58 -10 -58 -15 0 -14 47
-22 91 -16 21 3 39 1 39 -4 0 -46 -111 -177 -209 -249 -33 -24 -58 -46 -56
-48 2 -2 33 9 68 25 106 50 285 235 258 267 -16 19 9 24 172 32 76 4 140 11
143 15 2 5 -10 16 -27 25 -29 14 -43 15 -126 4 -51 -7 -96 -11 -98 -8 -2 2 -2
21 2 41 5 36 6 36 63 43 107 12 109 40 4 37 l-65 -1 3 36 3 37 80 15 c54 10
80 20 80 29 0 24 -38 27 -120 10z"/>
<path d="M185 662 c-19 -10 -54 -16 -92 -17 -35 0 -63 -1 -63 -1 0 -1 6 -17
14 -35 8 -19 17 -63 21 -99 4 -36 11 -73 16 -82 11 -21 29 -24 29 -4 0 14 49
26 108 26 28 0 32 3 27 19 -7 23 12 107 32 140 14 21 13 25 -3 41 -29 27 -56
31 -89 12z m18 -104 c-3 -35 -7 -65 -9 -66 -1 -2 -20 -6 -42 -9 -35 -5 -40 -3
-45 18 -4 13 -7 43 -7 66 0 46 6 50 72 52 l38 1 -7 -62z"/>
<path d="M585 320 c-22 -4 -67 -11 -100 -15 -54 -6 -58 -8 -40 -21 10 -8 33
-14 51 -14 37 0 47 -22 38 -82 l-6 -37 -62 -5 c-33 -4 -79 -7 -100 -9 -50 -3
-57 -22 -13 -36 25 -9 52 -9 98 -1 35 5 142 13 237 17 94 3 172 10 172 15 0 5
-18 17 -40 27 -32 14 -52 16 -93 10 -28 -4 -75 -9 -103 -12 l-52 -4 15 49 c11
37 11 53 3 63 -9 11 -2 15 37 20 69 9 85 15 80 28 -4 15 -68 18 -122 7z"/>
</g>
</svg>
