<?xml version="1.0" standalone="no"?>
<!DOCTYPE svg PUBLIC "-//W3C//DTD SVG 20010904//EN"
 "http://www.w3.org/TR/2001/REC-SVG-20010904/DTD/svg10.dtd">
<svg version="1.0" xmlns="http://www.w3.org/2000/svg"
 width="90.000000pt" height="92.000000pt" viewBox="0 0 90.000000 92.000000"
 preserveAspectRatio="xMidYMid meet">
<metadata>
Created by potrace 1.16, written by Peter Selinger 2001-2019
</metadata>
<g transform="translate(0.000000,92.000000) scale(0.100000,-0.100000)"
fill="#000000" stroke="none">
<path d="M310 771 c0 -5 19 -38 43 -74 l43 -64 -135 -18 c-162 -21 -180 -28
-131 -48 32 -13 47 -12 160 9 69 13 145 23 169 24 l44 0 -6 -52 c-5 -53 -32
-126 -60 -163 -14 -19 -16 -18 -68 26 -69 59 -118 89 -146 89 -33 0 -28 -15 9
-31 18 -7 61 -42 97 -77 l66 -64 -42 -37 c-54 -48 -150 -99 -238 -127 -87 -27
-67 -43 34 -27 86 13 163 47 228 100 l53 43 87 -89 c54 -55 99 -93 117 -97 37
-9 228 15 224 28 -2 6 -60 32 -128 59 -69 27 -154 69 -192 95 -37 25 -68 48
-68 50 0 2 15 32 34 66 19 35 44 87 56 116 l23 53 -22 23 -22 23 53 6 c29 4
70 7 91 7 41 0 46 9 20 32 -30 26 -50 28 -130 13 -43 -8 -90 -17 -105 -20 -26
-4 -28 -2 -28 26 0 45 -17 68 -63 90 -46 21 -67 24 -67 10z"/>
</g>
</svg>
