<?xml version="1.0" standalone="no"?>
<!DOCTYPE svg PUBLIC "-//W3C//DTD SVG 20010904//EN"
 "http://www.w3.org/TR/2001/REC-SVG-20010904/DTD/svg10.dtd">
<svg version="1.0" xmlns="http://www.w3.org/2000/svg"
 width="96.000000pt" height="68.000000pt" viewBox="0 0 96.000000 68.000000"
 preserveAspectRatio="xMidYMid meet">
<metadata>
Created by potrace 1.16, written by Peter Selinger 2001-2019
</metadata>
<g transform="translate(0.000000,68.000000) scale(0.100000,-0.100000)"
fill="#000000" stroke="none">
<path d="M330 564 c0 -8 53 -77 69 -90 15 -12 -6 -17 -134 -29 -101 -10 -125
-15 -125 -29 0 -24 51 -25 194 -5 181 25 176 25 175 -8 -1 -50 -48 -143 -72
-143 -4 0 -34 17 -65 38 -31 21 -72 44 -91 50 -40 14 -41 14 -41 4 0 -5 16
-16 36 -25 46 -22 124 -87 124 -104 0 -18 -112 -80 -188 -104 -119 -37 -122
-39 -44 -33 88 6 166 32 228 75 31 21 51 29 59 23 7 -5 48 -38 91 -73 l79 -64
103 6 c57 3 109 10 115 16 8 8 6 11 -9 11 -60 0 -362 128 -350 148 107 173
110 183 79 201 -14 8 1 11 57 11 89 0 116 12 85 36 -20 16 -76 16 -197 -2 -46
-6 -48 -6 -48 17 -1 31 -20 56 -54 69 -29 11 -76 14 -76 4z"/>
</g>
</svg>
