<?xml version="1.0" standalone="no"?>
<!DOCTYPE svg PUBLIC "-//W3C//DTD SVG 20010904//EN"
 "http://www.w3.org/TR/2001/REC-SVG-20010904/DTD/svg10.dtd">
<svg version="1.0" xmlns="http://www.w3.org/2000/svg"
 width="96.000000pt" height="68.000000pt" viewBox="0 0 96.000000 68.000000"
 preserveAspectRatio="xMidYMid meet">
<metadata>
Created by potrace 1.16, written by Peter Selinger 2001-2019
</metadata>
<g transform="translate(0.000000,68.000000) scale(0.100000,-0.100000)"
fill="#000000" stroke="none">
<path d="M340 561 c0 -4 16 -29 35 -54 19 -25 35 -48 35 -50 0 -2 -61 -10
-135 -17 -74 -7 -135 -16 -135 -21 0 -21 65 -21 220 -1 91 12 209 25 263 28
53 4 97 10 97 14 0 4 -13 13 -29 20 -28 11 -103 5 -213 -16 -25 -5 -28 -3 -28
23 0 37 -17 58 -59 72 -41 13 -51 14 -51 2z"/>
</g>
</svg>
