<?xml version="1.0" standalone="no"?>
<!DOCTYPE svg PUBLIC "-//W3C//DTD SVG 20010904//EN"
 "http://www.w3.org/TR/2001/REC-SVG-20010904/DTD/svg10.dtd">
<svg version="1.0" xmlns="http://www.w3.org/2000/svg"
 width="90.000000pt" height="92.000000pt" viewBox="0 0 90.000000 92.000000"
 preserveAspectRatio="xMidYMid meet">
<metadata>
Created by potrace 1.16, written by Peter Selinger 2001-2019
</metadata>
<g transform="translate(0.000000,92.000000) scale(0.100000,-0.100000)"
fill="#000000" stroke="none">
<path d="M428 538 c3 -259 5 -287 23 -325 27 -55 71 -73 186 -73 94 0 154 14
179 41 15 16 15 23 0 82 -9 35 -16 74 -17 88 -1 22 -2 21 -10 -6 -4 -16 -10
-41 -13 -55 -3 -14 -16 -38 -29 -54 -21 -26 -30 -29 -99 -34 -99 -6 -145 9
-164 54 -15 36 -18 106 -8 192 7 52 7 52 43 52 50 0 192 28 208 41 16 14 8 28
-23 39 -19 7 -48 2 -118 -20 -51 -17 -96 -30 -100 -30 -10 0 4 187 15 217 11
30 3 48 -27 62 -50 23 -49 30 -46 -271z"/>
<path d="M116 688 c15 -38 11 -445 -3 -460 -19 -18 -16 -52 7 -73 24 -22 27
-21 130 56 48 35 97 71 110 80 50 34 8 30 -84 -7 -53 -20 -98 -35 -102 -32 -3
3 -2 51 2 107 l7 101 43 0 c101 0 183 36 125 55 -16 5 -95 -12 -150 -33 -11
-4 -12 8 -8 64 3 38 9 81 12 96 6 23 2 30 -26 47 -19 12 -42 21 -53 21 -15 0
-17 -4 -10 -22z"/>
</g>
</svg>
