<?xml version="1.0" standalone="no"?>
<!DOCTYPE svg PUBLIC "-//W3C//DTD SVG 20010904//EN"
 "http://www.w3.org/TR/2001/REC-SVG-20010904/DTD/svg10.dtd">
<svg version="1.0" xmlns="http://www.w3.org/2000/svg"
 width="90.000000pt" height="92.000000pt" viewBox="0 0 90.000000 92.000000"
 preserveAspectRatio="xMidYMid meet">
<metadata>
Created by potrace 1.16, written by Peter Selinger 2001-2019
</metadata>
<g transform="translate(0.000000,92.000000) scale(0.100000,-0.100000)"
fill="#000000" stroke="none">
<path d="M635 784 c-107 -20 -265 -29 -265 -16 0 25 -20 10 -28 -20 -6 -18
-17 -49 -26 -69 -13 -32 -13 -39 -1 -55 15 -19 15 -19 30 1 9 11 20 37 26 57
5 21 14 36 18 34 5 -3 54 3 110 14 96 19 201 26 201 15 0 -3 -6 -21 -14 -39
l-14 -33 62 15 c71 17 81 24 69 46 -11 20 -74 66 -87 65 -6 -1 -42 -7 -81 -15z"/>
<path d="M160 724 c-19 -7 -52 -13 -74 -13 -33 -1 -37 -3 -30 -18 10 -19 12
-273 4 -384 -4 -47 -1 -71 9 -83 12 -14 15 -14 25 -2 6 9 34 18 61 22 48 6 52
4 63 -20 14 -31 26 -33 44 -7 11 16 14 70 11 258 -2 212 -4 239 -20 250 -21
16 -47 15 -93 -3z m68 -95 c3 -56 3 -56 -25 -55 -15 0 -43 -3 -60 -8 l-33 -8
0 60 c0 68 4 72 70 69 l45 -2 3 -56z m2 -141 l0 -53 -38 -3 c-20 -1 -47 -3
-59 -5 -12 -1 -22 1 -23 6 0 4 0 27 0 51 0 43 1 45 33 49 90 11 87 13 87 -45z
m-4 -184 c-3 -7 -13 -12 -23 -12 -10 1 -37 -2 -60 -6 l-43 -8 0 55 0 54 63 9
62 9 3 -44 c2 -24 1 -49 -2 -57z"/>
<path d="M560 639 c-36 -10 -90 -18 -120 -17 -43 1 -54 -2 -51 -13 8 -28 20
-95 28 -149 7 -47 11 -55 28 -53 128 15 187 15 196 2 14 -24 31 5 44 78 7 37
16 82 20 100 7 29 4 34 -26 52 -39 24 -34 24 -119 0z m80 -63 c0 -33 -1 -34
-37 -33 -21 1 -66 -3 -100 -7 l-63 -9 0 31 c0 29 3 31 48 37 26 4 52 8 57 10
6 2 29 4 53 4 41 1 42 0 42 -33z m-7 -93 c-4 -27 -9 -32 -27 -28 -11 3 -51 2
-88 -3 l-68 -8 0 27 c0 27 1 27 93 36 50 5 93 8 93 8 1 0 -1 -15 -3 -32z"/>
<path d="M513 383 c2 -10 8 -25 11 -34 9 -21 -12 -27 -132 -35 -51 -4 -95 -11
-98 -16 -3 -4 11 -15 31 -24 32 -13 44 -13 110 1 41 8 149 18 240 22 174 6
190 12 124 45 -26 13 -43 15 -74 8 -22 -4 -68 -11 -102 -15 -60 -7 -61 -6 -56
16 4 15 0 26 -12 35 -27 20 -48 18 -42 -3z"/>
<path d="M430 229 c0 -13 -26 -46 -65 -85 -36 -35 -63 -64 -60 -64 34 0 204
113 205 136 0 12 -42 34 -65 34 -9 0 -15 -9 -15 -21z"/>
<path d="M620 245 c0 -8 119 -153 132 -161 13 -8 28 14 28 42 0 33 -36 70 -95
98 -55 27 -65 30 -65 21z"/>
</g>
</svg>
