<?xml version="1.0" standalone="no"?>
<!DOCTYPE svg PUBLIC "-//W3C//DTD SVG 20010904//EN"
 "http://www.w3.org/TR/2001/REC-SVG-20010904/DTD/svg10.dtd">
<svg version="1.0" xmlns="http://www.w3.org/2000/svg"
 width="90.000000pt" height="92.000000pt" viewBox="0 0 90.000000 92.000000"
 preserveAspectRatio="xMidYMid meet">
<metadata>
Created by potrace 1.16, written by Peter Selinger 2001-2019
</metadata>
<g transform="translate(0.000000,92.000000) scale(0.100000,-0.100000)"
fill="#000000" stroke="none">
<path d="M502 689 c-134 -27 -258 -37 -303 -25 -47 12 -58 3 -37 -32 22 -38
26 -62 43 -227 14 -139 25 -185 45 -185 5 0 11 9 15 19 7 22 24 25 243 42 83
7 152 15 152 19 0 4 -7 13 -15 20 -16 13 -17 9 21 165 14 55 32 110 40 122 22
34 17 50 -23 78 -43 29 -55 29 -181 4z m95 -55 c7 -18 -10 -164 -29 -243 l-11
-49 -86 -10 c-47 -6 -111 -14 -142 -17 l-57 -6 -6 43 c-3 24 -8 93 -12 154
l-7 111 119 12 c66 7 124 14 129 16 6 2 29 4 53 4 31 1 44 -4 49 -15z"/>
</g>
</svg>
