<?xml version="1.0" standalone="no"?>
<!DOCTYPE svg PUBLIC "-//W3C//DTD SVG 20010904//EN"
 "http://www.w3.org/TR/2001/REC-SVG-20010904/DTD/svg10.dtd">
<svg version="1.0" xmlns="http://www.w3.org/2000/svg"
 width="96.000000pt" height="68.000000pt" viewBox="0 0 96.000000 68.000000"
 preserveAspectRatio="xMidYMid meet">
<metadata>
Created by potrace 1.16, written by Peter Selinger 2001-2019
</metadata>
<g transform="translate(0.000000,68.000000) scale(0.100000,-0.100000)"
fill="#000000" stroke="none">
<path d="M481 319 c6 -13 8 -39 4 -66 -8 -57 -59 -114 -134 -153 -31 -16 -48
-29 -39 -30 35 0 127 49 164 89 22 23 42 41 46 41 4 0 39 -31 79 -70 l71 -70
62 0 c81 0 100 13 44 29 -68 20 -181 77 -207 105 l-23 25 73 22 c41 12 76 23
77 25 2 1 1 12 -3 23 -4 14 -15 21 -31 21 -13 0 -24 -4 -24 -8 0 -11 -85 -72
-99 -72 -14 0 -14 45 0 72 13 25 -1 38 -44 38 -25 0 -27 -2 -16 -21z"/>
<path d="M340 273 c0 -17 45 -63 61 -63 41 0 12 55 -33 62 -16 3 -28 3 -28 1z"/>
</g>
</svg>
