<?xml version="1.0" standalone="no"?>
<!DOCTYPE svg PUBLIC "-//W3C//DTD SVG 20010904//EN"
 "http://www.w3.org/TR/2001/REC-SVG-20010904/DTD/svg10.dtd">
<svg version="1.0" xmlns="http://www.w3.org/2000/svg"
 width="96.000000pt" height="68.000000pt" viewBox="0 0 96.000000 68.000000"
 preserveAspectRatio="xMidYMid meet">
<metadata>
Created by potrace 1.16, written by Peter Selinger 2001-2019
</metadata>
<g transform="translate(0.000000,68.000000) scale(0.100000,-0.100000)"
fill="#000000" stroke="none">
<path d="M594 155 c-11 -12 -26 -25 -34 -28 -12 -4 -12 -6 2 -6 9 -1 23 6 32
14 8 8 23 12 33 9 14 -4 15 -3 4 4 -11 8 -11 10 0 14 10 3 10 6 -2 10 -8 3
-24 -4 -35 -17z"/>
<path d="M332 110 c1 -37 22 -34 26 3 2 19 -1 27 -12 27 -10 0 -14 -10 -14
-30z"/>
<path d="M504 98 c-4 -7 -3 -8 4 -4 7 4 12 2 12 -3 0 -6 5 -11 10 -11 6 0 20
-9 32 -20 24 -22 87 -54 95 -47 10 11 -21 44 -37 40 -10 -3 -21 0 -24 6 -5 7
0 9 11 5 17 -5 17 -5 0 6 -9 6 -26 13 -37 15 -10 2 -28 8 -39 14 -14 8 -22 8
-27 -1z"/>
<path d="M313 51 c-10 -15 -9 -22 2 -31 12 -10 24 -6 62 19 49 33 51 37 9 21
-17 -6 -26 -6 -26 0 0 18 -35 11 -47 -9z"/>
</g>
</svg>
