<?xml version="1.0" standalone="no"?>
<!DOCTYPE svg PUBLIC "-//W3C//DTD SVG 20010904//EN"
 "http://www.w3.org/TR/2001/REC-SVG-20010904/DTD/svg10.dtd">
<svg version="1.0" xmlns="http://www.w3.org/2000/svg"
 width="90.000000pt" height="92.000000pt" viewBox="0 0 90.000000 92.000000"
 preserveAspectRatio="xMidYMid meet">
<metadata>
Created by potrace 1.16, written by Peter Selinger 2001-2019
</metadata>
<g transform="translate(0.000000,92.000000) scale(0.100000,-0.100000)"
fill="#000000" stroke="none">
<path d="M438 820 c-9 -16 -55 -55 -102 -85 -77 -50 -89 -55 -122 -49 l-36 7
8 -44 c12 -61 6 -192 -12 -264 -21 -86 -54 -151 -113 -222 -57 -70 -54 -79 10
-30 58 44 103 104 128 172 25 67 51 208 51 279 0 29 6 59 13 67 6 9 73 44 147
79 74 35 137 65 140 68 3 2 -8 15 -23 28 -38 33 -68 31 -89 -6z"/>
<path d="M356 652 c-3 -4 0 -28 6 -53 6 -27 8 -130 5 -264 -4 -208 1 -265 24
-265 22 0 28 57 31 303 l3 267 -29 10 c-35 12 -34 12 -40 2z"/>
<path d="M486 628 c4 -7 16 -24 25 -38 10 -14 39 -83 64 -155 67 -186 106
-267 138 -284 19 -10 42 -12 84 -7 31 4 59 9 62 12 4 4 -10 18 -29 33 -19 14
-66 58 -105 96 -69 70 -80 87 -164 268 -32 67 -46 87 -62 87 -13 0 -18 -4 -13
-12z"/>
</g>
</svg>
