<?xml version="1.0" standalone="no"?>
<!DOCTYPE svg PUBLIC "-//W3C//DTD SVG 20010904//EN"
 "http://www.w3.org/TR/2001/REC-SVG-20010904/DTD/svg10.dtd">
<svg version="1.0" xmlns="http://www.w3.org/2000/svg"
 width="96.000000pt" height="68.000000pt" viewBox="0 0 96.000000 68.000000"
 preserveAspectRatio="xMidYMid meet">
<metadata>
Created by potrace 1.16, written by Peter Selinger 2001-2019
</metadata>
<g transform="translate(0.000000,68.000000) scale(0.100000,-0.100000)"
fill="#000000" stroke="none">
<path d="M510 365 c-21 -26 -133 -101 -174 -117 l-39 -15 22 -22 c12 -12 25
-19 30 -17 4 3 59 16 122 30 99 21 116 23 130 10 16 -15 41 -18 52 -8 20 20
-52 74 -99 74 -16 0 -16 -1 0 -19 16 -17 16 -19 -6 -25 -13 -3 -54 -5 -93 -5
l-70 1 88 42 c48 24 91 46 95 50 7 7 -24 36 -39 36 -3 0 -12 -7 -19 -15z"/>
</g>
</svg>
