<?xml version="1.0" standalone="no"?>
<!DOCTYPE svg PUBLIC "-//W3C//DTD SVG 20010904//EN"
 "http://www.w3.org/TR/2001/REC-SVG-20010904/DTD/svg10.dtd">
<svg version="1.0" xmlns="http://www.w3.org/2000/svg"
 width="90.000000pt" height="92.000000pt" viewBox="0 0 90.000000 92.000000"
 preserveAspectRatio="xMidYMid meet">
<metadata>
Created by potrace 1.16, written by Peter Selinger 2001-2019
</metadata>
<g transform="translate(0.000000,92.000000) scale(0.100000,-0.100000)"
fill="#000000" stroke="none">
<path d="M498 817 c-169 -29 -176 -31 -166 -50 6 -11 10 -59 9 -106 -2 -166
-47 -358 -111 -478 -33 -63 -24 -69 19 -14 57 72 110 227 126 371 3 30 8 67
11 83 5 25 7 26 26 13 18 -13 25 -13 50 0 17 9 31 14 33 12 1 -2 8 -13 14 -26
16 -30 34 -17 26 19 -5 22 -3 29 9 29 9 0 16 5 16 11 0 6 -9 9 -20 6 -17 -4
-22 0 -27 23 -4 22 -13 31 -35 35 -40 9 -44 1 -19 -31 30 -38 27 -44 -25 -44
l-47 0 7 42 c4 23 8 44 10 45 9 10 174 34 263 40 57 3 106 10 109 15 10 16
-29 37 -66 36 -19 0 -115 -15 -212 -31z"/>
<path d="M637 774 c-3 -3 -3 -12 0 -20 9 -25 -6 -61 -29 -69 l-23 -8 22 -4
c18 -4 20 -8 13 -34 -11 -38 5 -38 24 0 13 25 23 30 71 36 64 8 71 28 12 33
-33 3 -36 6 -31 27 4 17 0 26 -14 34 -23 12 -36 14 -45 5z"/>
<path d="M190 710 c-36 -10 -77 -18 -92 -19 -70 -3 -72 -31 -2 -31 l46 0 -7
-32 c-9 -45 -67 -168 -105 -223 -41 -60 -34 -78 13 -32 20 21 38 37 41 37 3 0
8 -21 12 -47 13 -94 12 -93 98 -75 59 11 74 18 66 27 -8 9 -5 31 10 76 21 60
21 64 4 76 -23 17 -32 16 -84 -2 -83 -29 -85 -25 -33 76 38 73 45 94 36 108
-10 15 -4 19 48 30 32 6 59 16 59 21 0 8 -34 32 -42 29 -2 -1 -32 -10 -68 -19z
m30 -324 c0 -52 -1 -55 -31 -65 -45 -16 -48 -15 -53 22 -13 79 -13 81 19 88
64 14 65 14 65 -45z"/>
<path d="M615 599 c-44 -10 -106 -19 -137 -21 -60 -2 -68 -7 -44 -27 8 -7 17
-40 21 -74 10 -85 15 -92 64 -88 36 2 41 0 41 -18 0 -12 -1 -21 -2 -21 -2 0
-29 -4 -60 -10 -45 -7 -64 -6 -85 5 -25 13 -28 13 -31 0 -2 -8 -12 -15 -23
-15 -28 0 -23 -19 9 -33 38 -17 42 -24 42 -97 0 -36 5 -72 10 -80 19 -29 29
11 23 96 -3 47 -2 84 4 87 5 3 32 9 60 13 l51 6 4 -36 c4 -40 -3 -46 -63 -46
-44 0 -50 -12 -16 -34 20 -14 29 -13 106 17 l84 32 15 -23 c20 -31 42 -28 42
6 0 33 -8 45 -37 61 -30 16 -36 14 -30 -9 3 -11 0 -20 -6 -20 -7 0 -22 -3 -34
-6 -21 -6 -23 -3 -23 29 l0 35 81 7 c98 9 102 6 96 -87 -5 -83 -18 -102 -64
-93 -37 7 -42 -4 -13 -30 11 -10 22 -26 25 -36 9 -26 37 -24 64 5 16 17 25 45
32 92 6 38 14 87 19 109 7 32 5 44 -8 58 -29 32 -45 35 -112 21 -94 -20 -120
-18 -120 6 0 20 6 22 75 24 28 1 31 6 61 89 l32 89 -32 19 c-17 10 -33 18 -36
18 -3 -1 -41 -10 -85 -20z m75 -47 c0 -27 -2 -29 -43 -29 -37 0 -43 3 -43 21
1 24 18 34 59 35 23 1 27 -3 27 -27z m-145 -22 c0 -21 -5 -26 -31 -28 -27 -3
-32 1 -36 22 -4 19 0 26 16 29 39 8 51 2 51 -23z m133 -57 c-3 -24 -8 -28 -40
-31 -35 -3 -38 -1 -38 22 0 24 6 27 68 35 9 0 12 -8 10 -26z m-118 -23 c0 -19
-19 -30 -51 -30 -13 0 -19 7 -19 24 0 19 6 25 28 28 35 5 42 1 42 -22z"/>
</g>
</svg>
