<?xml version="1.0" standalone="no"?>
<!DOCTYPE svg PUBLIC "-//W3C//DTD SVG 20010904//EN"
 "http://www.w3.org/TR/2001/REC-SVG-20010904/DTD/svg10.dtd">
<svg version="1.0" xmlns="http://www.w3.org/2000/svg"
 width="96.000000pt" height="68.000000pt" viewBox="0 0 96.000000 68.000000"
 preserveAspectRatio="xMidYMid meet">
<metadata>
Created by potrace 1.16, written by Peter Selinger 2001-2019
</metadata>
<g transform="translate(0.000000,68.000000) scale(0.100000,-0.100000)"
fill="#000000" stroke="none">
<path d="M406 612 c-2 -4 -1 -14 5 -22 5 -8 9 -25 9 -37 0 -21 -4 -23 -62 -24
-35 0 -81 -4 -103 -8 l-40 -8 30 -12 c20 -9 53 -10 103 -6 l72 7 0 -26 c0 -23
-4 -26 -34 -26 -51 0 -96 -11 -90 -22 6 -9 290 -1 307 9 4 3 2 12 -5 20 -9 12
-25 14 -65 10 -50 -5 -53 -4 -53 18 0 22 4 23 95 30 99 7 120 16 84 35 -20 11
-52 10 -145 -6 -29 -5 -31 -4 -27 23 4 24 0 31 -22 41 -30 14 -52 15 -59 4z"/>
<path d="M450 393 c-63 -7 -123 -12 -132 -9 -10 2 -18 0 -18 -5 0 -5 5 -9 11
-9 5 0 17 -16 25 -35 17 -42 17 -43 0 -47 -12 -2 -11 -10 5 -42 10 -22 17 -41
15 -43 -1 -2 -53 -6 -114 -10 -62 -3 -112 -10 -112 -14 0 -16 68 -20 146 -9
43 6 182 14 307 17 125 3 230 10 233 15 12 20 -54 30 -155 24 -102 -7 -104 -6
-88 12 21 23 22 52 3 52 -12 0 -12 4 0 29 8 16 21 34 29 41 44 37 -15 49 -155
33z m103 -37 c-5 -25 1 -23 -141 -43 -44 -6 -46 -4 -55 42 -2 11 59 21 144 23
54 2 56 1 52 -22z m-20 -88 c-9 -51 -20 -58 -84 -58 -56 0 -59 1 -59 25 0 14
-4 25 -10 25 -5 0 -10 6 -10 14 0 16 28 22 112 25 l58 1 -7 -32z"/>
<path d="M425 138 c-33 -5 -77 -7 -97 -4 -21 2 -41 0 -44 -5 -3 -5 -1 -9 5 -9
6 0 18 -25 26 -55 17 -56 29 -73 40 -55 3 5 45 10 93 10 107 0 162 9 156 24
-2 6 9 26 26 44 26 29 28 35 16 48 -17 16 -123 17 -221 2z m138 -14 c18 -7 10
-52 -12 -63 -9 -5 -56 -10 -105 -12 l-89 -4 -8 29 c-5 17 -7 31 -5 33 3 4 133
20 173 22 17 0 38 -1 46 -5z"/>
</g>
</svg>
