<?xml version="1.0" standalone="no"?>
<!DOCTYPE svg PUBLIC "-//W3C//DTD SVG 20010904//EN"
 "http://www.w3.org/TR/2001/REC-SVG-20010904/DTD/svg10.dtd">
<svg version="1.0" xmlns="http://www.w3.org/2000/svg"
 width="96.000000pt" height="68.000000pt" viewBox="0 0 96.000000 68.000000"
 preserveAspectRatio="xMidYMid meet">
<metadata>
Created by potrace 1.16, written by Peter Selinger 2001-2019
</metadata>
<g transform="translate(0.000000,68.000000) scale(0.100000,-0.100000)"
fill="#000000" stroke="none">
<path d="M417 572 l5 -39 -53 -6 c-30 -4 -73 -7 -97 -7 -26 0 -41 -4 -37 -10
3 -6 48 -10 101 -10 92 0 94 0 94 -24 0 -19 -6 -24 -37 -30 -21 -3 -51 -6 -68
-6 -23 0 -27 -3 -15 -10 14 -10 147 -7 248 6 61 8 41 24 -29 24 -57 0 -60 1
-57 23 3 23 10 25 151 42 30 4 45 10 41 17 -5 7 -36 8 -95 4 l-88 -7 -3 33
c-3 29 -7 33 -35 36 -31 3 -31 3 -26 -36z"/>
</g>
</svg>
