<?xml version="1.0" standalone="no"?>
<!DOCTYPE svg PUBLIC "-//W3C//DTD SVG 20010904//EN"
 "http://www.w3.org/TR/2001/REC-SVG-20010904/DTD/svg10.dtd">
<svg version="1.0" xmlns="http://www.w3.org/2000/svg"
 width="96.000000pt" height="68.000000pt" viewBox="0 0 96.000000 68.000000"
 preserveAspectRatio="xMidYMid meet">
<metadata>
Created by potrace 1.16, written by Peter Selinger 2001-2019
</metadata>
<g transform="translate(0.000000,68.000000) scale(0.100000,-0.100000)"
fill="#000000" stroke="none">
<path d="M180 522 c0 -18 69 -74 86 -70 27 5 24 28 -6 48 -29 21 -80 34 -80
22z"/>
<path d="M106 372 c-9 -8 65 -62 85 -62 19 0 27 34 11 44 -15 9 -91 24 -96 18z"/>
<path d="M201 214 c-24 -30 -57 -62 -73 -70 -27 -14 -27 -16 -15 -47 18 -44
38 -40 64 11 12 24 28 54 37 66 21 32 46 96 38 96 -4 -1 -27 -26 -51 -56z"/>
</g>
</svg>
