<?xml version="1.0" standalone="no"?>
<!DOCTYPE svg PUBLIC "-//W3C//DTD SVG 20010904//EN"
 "http://www.w3.org/TR/2001/REC-SVG-20010904/DTD/svg10.dtd">
<svg version="1.0" xmlns="http://www.w3.org/2000/svg"
 width="96.000000pt" height="68.000000pt" viewBox="0 0 96.000000 68.000000"
 preserveAspectRatio="xMidYMid meet">
<metadata>
Created by potrace 1.16, written by Peter Selinger 2001-2019
</metadata>
<g transform="translate(0.000000,68.000000) scale(0.100000,-0.100000)"
fill="#000000" stroke="none">
<path d="M425 234 c-60 -7 -116 -13 -123 -13 -7 -1 -10 -5 -7 -11 3 -5 27 -10
53 -10 l47 -1 -43 -38 c-23 -22 -82 -60 -130 -86 -79 -42 -83 -46 -47 -41 68
9 265 126 265 157 0 14 15 18 83 24 94 7 117 13 117 26 0 12 -79 10 -215 -7z"/>
</g>
</svg>
