<?xml version="1.0" standalone="no"?>
<!DOCTYPE svg PUBLIC "-//W3C//DTD SVG 20010904//EN"
 "http://www.w3.org/TR/2001/REC-SVG-20010904/DTD/svg10.dtd">
<svg version="1.0" xmlns="http://www.w3.org/2000/svg"
 width="96.000000pt" height="68.000000pt" viewBox="0 0 96.000000 68.000000"
 preserveAspectRatio="xMidYMid meet">
<metadata>
Created by potrace 1.16, written by Peter Selinger 2001-2019
</metadata>
<g transform="translate(0.000000,68.000000) scale(0.100000,-0.100000)"
fill="#000000" stroke="none">
<path d="M474 356 c-41 -9 -50 -14 -43 -26 4 -8 13 -30 20 -48 9 -24 16 -31
28 -26 9 3 35 9 59 11 36 5 42 9 42 29 0 12 5 26 10 29 6 3 10 15 10 26 0 16
-7 19 -37 18 -21 -1 -61 -7 -89 -13z m76 -23 c0 -29 -15 -44 -46 -46 -25 -2
-29 2 -32 25 -3 21 2 27 20 31 47 9 58 7 58 -10z"/>
</g>
</svg>
