<?xml version="1.0" standalone="no"?>
<!DOCTYPE svg PUBLIC "-//W3C//DTD SVG 20010904//EN"
 "http://www.w3.org/TR/2001/REC-SVG-20010904/DTD/svg10.dtd">
<svg version="1.0" xmlns="http://www.w3.org/2000/svg"
 width="90.000000pt" height="92.000000pt" viewBox="0 0 90.000000 92.000000"
 preserveAspectRatio="xMidYMid meet">
<metadata>
Created by potrace 1.16, written by Peter Selinger 2001-2019
</metadata>
<g transform="translate(0.000000,92.000000) scale(0.100000,-0.100000)"
fill="#000000" stroke="none">
<path d="M548 825 c-15 -15 -218 -46 -267 -41 l-53 6 7 -37 c32 -162 -52 -405
-193 -555 -56 -60 -42 -61 35 -4 62 45 105 104 146 197 l25 55 94 13 c51 7
148 15 216 18 l122 6 0 -104 c0 -111 -19 -206 -45 -225 -10 -8 -28 -9 -53 -3
-20 4 -37 7 -39 6 -1 -1 11 -22 28 -46 16 -24 29 -48 29 -53 0 -22 50 -5 79
27 36 42 47 81 56 200 6 83 12 123 30 181 5 17 -1 26 -31 44 -20 13 -42 23
-48 22 -6 0 -103 -12 -216 -25 -113 -14 -206 -24 -208 -22 -1 1 3 25 9 53 14
59 5 56 186 73 124 12 132 14 131 33 -1 12 10 47 25 80 15 32 27 60 27 62 0 4
-76 44 -83 44 -2 0 -6 -2 -9 -5z m-6 -95 c-2 -25 -10 -50 -18 -56 -14 -11
-223 -48 -230 -41 -4 4 14 108 19 113 7 8 166 32 197 31 l35 -2 -3 -45z"/>
<path d="M410 369 c-36 -10 -82 -18 -102 -18 -38 -1 -46 -9 -28 -27 6 -6 15
-37 21 -70 13 -73 25 -96 38 -75 6 9 32 16 68 18 83 6 103 11 97 27 -3 7 4 37
15 67 12 30 21 57 21 61 0 7 -56 40 -62 37 -2 -1 -32 -10 -68 -20z m60 -48 c0
-10 -3 -32 -6 -49 -6 -29 -10 -31 -61 -38 -62 -7 -73 0 -73 53 0 27 4 34 28
39 15 3 32 7 37 9 6 2 25 4 43 4 25 1 32 -3 32 -18z"/>
</g>
</svg>
