<?xml version="1.0" standalone="no"?>
<!DOCTYPE svg PUBLIC "-//W3C//DTD SVG 20010904//EN"
 "http://www.w3.org/TR/2001/REC-SVG-20010904/DTD/svg10.dtd">
<svg version="1.0" xmlns="http://www.w3.org/2000/svg"
 width="96.000000pt" height="68.000000pt" viewBox="0 0 96.000000 68.000000"
 preserveAspectRatio="xMidYMid meet">
<metadata>
Created by potrace 1.16, written by Peter Selinger 2001-2019
</metadata>
<g transform="translate(0.000000,68.000000) scale(0.100000,-0.100000)"
fill="#000000" stroke="none">
<path d="M510 583 c-41 -8 -98 -12 -127 -10 l-51 3 5 -70 c9 -120 -35 -216
-149 -328 -49 -48 -64 -68 -51 -68 54 0 178 117 213 199 10 26 15 28 78 30 89
4 135 7 209 16 34 4 72 4 84 0 21 -7 22 -11 15 -89 -10 -136 -30 -169 -90
-146 -26 10 -26 9 -12 -18 24 -46 51 -65 74 -53 42 22 63 68 78 169 7 53 16
107 20 119 5 17 0 25 -23 36 -25 13 -48 13 -183 1 -85 -7 -171 -14 -191 -14
-33 0 -36 2 -32 25 3 13 11 29 18 35 11 9 169 29 238 30 19 0 27 4 24 13 -2 6
7 34 20 60 13 27 23 50 21 52 -33 28 -75 30 -188 8z m98 -50 c-4 -37 -34 -50
-132 -59 l-79 -7 7 29 c4 16 12 33 17 39 10 10 80 22 147 24 42 1 43 0 40 -26z"/>
<path d="M480 269 c-19 -5 -52 -9 -72 -10 -21 -1 -38 -6 -38 -11 0 -4 4 -8 8
-8 5 0 14 -23 21 -51 10 -37 17 -49 28 -45 8 3 41 6 73 6 l59 0 25 52 c18 38
22 56 14 65 -12 14 -65 15 -118 2z m63 -51 c-3 -18 -6 -34 -7 -34 -1 -1 -24
-5 -51 -8 -49 -7 -50 -7 -62 24 -11 28 -10 32 10 40 12 5 43 9 69 9 l48 1 -7
-32z"/>
</g>
</svg>
