<?xml version="1.0" standalone="no"?>
<!DOCTYPE svg PUBLIC "-//W3C//DTD SVG 20010904//EN"
 "http://www.w3.org/TR/2001/REC-SVG-20010904/DTD/svg10.dtd">
<svg version="1.0" xmlns="http://www.w3.org/2000/svg"
 width="96.000000pt" height="68.000000pt" viewBox="0 0 96.000000 68.000000"
 preserveAspectRatio="xMidYMid meet">
<metadata>
Created by potrace 1.16, written by Peter Selinger 2001-2019
</metadata>
<g transform="translate(0.000000,68.000000) scale(0.100000,-0.100000)"
fill="#000000" stroke="none">
<path d="M644 269 c1 -27 -2 -53 -6 -56 -5 -2 -4 -10 1 -17 8 -10 4 -12 -19
-11 -26 2 -29 -1 -24 -20 4 -17 -3 -29 -35 -52 -22 -16 -38 -33 -34 -36 11
-12 25 -8 17 5 -5 7 -2 9 8 5 18 -6 52 25 41 37 -4 4 1 4 10 0 15 -5 17 -2 13
21 -3 15 -2 25 1 22 12 -13 43 15 43 38 0 14 4 25 9 25 5 0 12 14 16 31 5 23
3 34 -12 44 -28 22 -32 18 -29 -36z"/>
<path d="M627 154 c-8 -8 3 -34 15 -34 5 0 16 -7 25 -16 10 -10 19 -12 25 -6
15 15 0 32 -19 25 -12 -5 -14 -3 -8 7 6 10 4 12 -9 7 -9 -4 -14 -3 -11 2 6 11
-9 23 -18 15z"/>
<path d="M703 95 c-11 -8 -24 -11 -28 -7 -5 4 -5 1 0 -6 4 -8 16 -12 26 -9 10
3 17 0 16 -7 -1 -6 13 -12 36 -13 45 -1 52 23 10 33 -16 4 -30 11 -33 15 -4 5
-15 2 -27 -6z"/>
<path d="M800 70 c0 -6 7 -10 15 -10 8 0 15 2 15 4 0 2 -7 6 -15 10 -8 3 -15
1 -15 -4z"/>
</g>
</svg>
