<?xml version="1.0" standalone="no"?>
<!DOCTYPE svg PUBLIC "-//W3C//DTD SVG 20010904//EN"
 "http://www.w3.org/TR/2001/REC-SVG-20010904/DTD/svg10.dtd">
<svg version="1.0" xmlns="http://www.w3.org/2000/svg"
 width="96.000000pt" height="68.000000pt" viewBox="0 0 96.000000 68.000000"
 preserveAspectRatio="xMidYMid meet">
<metadata>
Created by potrace 1.16, written by Peter Selinger 2001-2019
</metadata>
<g transform="translate(0.000000,68.000000) scale(0.100000,-0.100000)"
fill="#000000" stroke="none">
<path d="M225 558 c4 -13 9 -46 12 -74 l5 -51 -35 -7 c-20 -4 -48 -4 -63 0
-24 6 -26 5 -19 -12 4 -10 13 -43 21 -72 13 -57 24 -75 31 -54 3 6 18 12 34
12 28 0 29 -2 29 -45 0 -38 3 -45 19 -45 17 0 20 8 23 48 l3 47 50 6 c28 3 44
7 37 7 -15 2 7 50 33 72 14 12 14 14 -1 31 -12 14 -31 19 -67 19 l-50 0 6 43
c3 24 9 50 12 59 5 11 -3 19 -26 27 -50 17 -62 15 -54 -11z m15 -193 c0 -43
-1 -45 -30 -45 -28 0 -30 2 -30 39 0 36 3 40 28 44 15 2 28 5 30 6 1 0 2 -19
2 -44z m110 40 c0 -3 -7 -22 -15 -41 -10 -25 -20 -35 -32 -32 -10 2 -18 9 -17
16 1 6 2 23 3 37 1 21 6 25 31 25 17 0 30 -2 30 -5z"/>
</g>
</svg>
