<?xml version="1.0" standalone="no"?>
<!DOCTYPE svg PUBLIC "-//W3C//DTD SVG 20010904//EN"
 "http://www.w3.org/TR/2001/REC-SVG-20010904/DTD/svg10.dtd">
<svg version="1.0" xmlns="http://www.w3.org/2000/svg"
 width="96.000000pt" height="68.000000pt" viewBox="0 0 96.000000 68.000000"
 preserveAspectRatio="xMidYMid meet">
<metadata>
Created by potrace 1.16, written by Peter Selinger 2001-2019
</metadata>
<g transform="translate(0.000000,68.000000) scale(0.100000,-0.100000)"
fill="#000000" stroke="none">
<path d="M574 426 c4 -17 1 -26 -10 -30 -31 -12 -44 -6 -44 19 0 20 -5 25 -24
25 -19 0 -22 -4 -19 -25 4 -20 0 -25 -23 -30 -48 -11 -50 -13 -13 -14 24 -1
39 -7 43 -17 9 -25 -2 -34 -42 -35 -20 0 -46 -4 -57 -9 -19 -7 -19 -8 -2 -15
10 -4 35 -5 56 -1 28 4 40 2 44 -7 8 -22 -5 -34 -48 -42 l-40 -9 40 -5 c37 -6
40 -9 43 -40 2 -19 -1 -53 -7 -76 -12 -46 -5 -85 15 -85 14 0 23 47 27 145 l2
60 34 3 34 3 -4 -113 c-4 -101 -2 -113 14 -116 15 -3 17 7 17 101 0 58 3 112
6 121 4 11 19 16 53 16 45 0 46 1 47 31 2 39 17 49 79 49 47 1 49 2 30 16 -11
8 -33 14 -50 12 -30 -2 -32 2 -20 34 13 34 -56 47 -117 23 -14 -5 -18 -2 -18
14 0 16 -6 21 -26 21 -23 0 -25 -3 -20 -24z m111 -36 c3 -6 3 -19 0 -30 -5
-15 -15 -20 -41 -20 -29 0 -34 3 -34 24 0 24 13 32 52 35 9 0 20 -4 23 -9z
m-107 -32 c-2 -17 -11 -24 -30 -26 -24 -3 -28 0 -28 22 0 22 4 26 31 26 26 0
30 -3 27 -22z m102 -53 c0 -19 -49 -40 -63 -26 -5 5 -7 17 -4 25 8 21 67 22
67 1z m-102 -17 c-2 -17 -11 -24 -30 -26 -24 -3 -28 0 -28 22 0 22 4 26 31 26
26 0 30 -3 27 -22z"/>
</g>
</svg>
