<?xml version="1.0" standalone="no"?>
<!DOCTYPE svg PUBLIC "-//W3C//DTD SVG 20010904//EN"
 "http://www.w3.org/TR/2001/REC-SVG-20010904/DTD/svg10.dtd">
<svg version="1.0" xmlns="http://www.w3.org/2000/svg"
 width="96.000000pt" height="68.000000pt" viewBox="0 0 96.000000 68.000000"
 preserveAspectRatio="xMidYMid meet">
<metadata>
Created by potrace 1.16, written by Peter Selinger 2001-2019
</metadata>
<g transform="translate(0.000000,68.000000) scale(0.100000,-0.100000)"
fill="#000000" stroke="none">
<path d="M482 418 l3 -42 -44 -9 c-50 -10 -40 -27 17 -27 31 0 32 -2 32 -40
l0 -40 -60 -17 c-33 -10 -60 -23 -60 -29 0 -20 50 -26 76 -9 13 8 28 15 34 15
11 0 13 -52 3 -88 -6 -24 -12 -24 -58 -7 -14 6 -10 -2 14 -28 19 -21 42 -37
51 -37 26 0 40 44 40 125 0 41 3 75 8 75 4 0 18 9 32 20 l25 20 -29 -10 c-34
-12 -31 -14 -39 28 -6 28 -3 34 18 42 30 11 33 30 5 30 -16 0 -20 7 -20 35 0
31 -3 35 -26 35 -24 0 -26 -3 -22 -42z"/>
</g>
</svg>
