<?xml version="1.0" standalone="no"?>
<!DOCTYPE svg PUBLIC "-//W3C//DTD SVG 20010904//EN"
 "http://www.w3.org/TR/2001/REC-SVG-20010904/DTD/svg10.dtd">
<svg version="1.0" xmlns="http://www.w3.org/2000/svg"
 width="90.000000pt" height="92.000000pt" viewBox="0 0 90.000000 92.000000"
 preserveAspectRatio="xMidYMid meet">
<metadata>
Created by potrace 1.16, written by Peter Selinger 2001-2019
</metadata>
<g transform="translate(0.000000,92.000000) scale(0.100000,-0.100000)"
fill="#000000" stroke="none">
<path d="M505 755 c-27 -8 -105 -22 -172 -32 -136 -19 -156 -36 -48 -41 l68
-3 -6 -72 c-11 -126 -14 -134 -56 -141 -20 -4 -89 -9 -154 -13 -64 -3 -117
-10 -117 -14 0 -5 14 -16 31 -25 29 -15 40 -15 145 2 63 10 116 15 120 12 5
-6 -4 -65 -27 -169 l-10 -47 -90 -7 c-49 -3 -89 -10 -89 -15 0 -4 12 -16 27
-26 25 -16 36 -16 108 -6 135 20 376 35 457 28 90 -6 106 5 63 42 -27 23 -33
24 -113 17 -79 -7 -84 -6 -78 12 5 16 36 180 36 189 0 2 57 4 126 4 135 0 148
7 85 44 -30 17 -40 18 -114 7 -44 -6 -82 -9 -85 -7 -2 3 6 42 18 88 37 139 37
144 -1 167 -39 24 -55 25 -124 6z m59 -62 c6 -15 -9 -156 -20 -195 -4 -13 -20
-17 -83 -20 l-78 -3 14 60 c7 33 17 72 22 86 7 21 5 31 -11 47 l-21 20 49 7
c27 4 54 8 59 10 28 9 63 4 69 -12z m-35 -285 c-4 -24 -14 -71 -22 -105 -8
-34 -13 -64 -11 -66 2 -2 -33 -7 -78 -10 -45 -4 -83 -5 -85 -3 -2 2 6 51 18
109 l22 106 66 4 c36 2 73 4 82 5 14 2 15 -4 8 -40z"/>
</g>
</svg>
