<?xml version="1.0" standalone="no"?>
<!DOCTYPE svg PUBLIC "-//W3C//DTD SVG 20010904//EN"
 "http://www.w3.org/TR/2001/REC-SVG-20010904/DTD/svg10.dtd">
<svg version="1.0" xmlns="http://www.w3.org/2000/svg"
 width="96.000000pt" height="68.000000pt" viewBox="0 0 96.000000 68.000000"
 preserveAspectRatio="xMidYMid meet">
<metadata>
Created by potrace 1.16, written by Peter Selinger 2001-2019
</metadata>
<g transform="translate(0.000000,68.000000) scale(0.100000,-0.100000)"
fill="#000000" stroke="none">
<path d="M472 534 c0 -51 -11 -64 -54 -64 -22 0 -27 5 -30 28 -2 20 -9 28 -26
30 -21 3 -22 1 -13 -17 18 -33 13 -51 -14 -51 -14 0 -25 -4 -25 -10 0 -5 13
-10 29 -10 29 0 41 -14 41 -50 0 -16 6 -18 38 -14 80 11 82 12 82 48 0 28 4
35 28 41 26 7 26 7 5 16 -19 7 -21 12 -13 38 6 23 5 35 -6 46 -29 28 -42 18
-42 -31z m-2 -103 c0 -20 -18 -31 -51 -31 -14 0 -19 7 -19 25 0 22 4 25 35 25
28 0 35 -4 35 -19z"/>
</g>
</svg>
