<?xml version="1.0" standalone="no"?>
<!DOCTYPE svg PUBLIC "-//W3C//DTD SVG 20010904//EN"
 "http://www.w3.org/TR/2001/REC-SVG-20010904/DTD/svg10.dtd">
<svg version="1.0" xmlns="http://www.w3.org/2000/svg"
 width="90.000000pt" height="92.000000pt" viewBox="0 0 90.000000 92.000000"
 preserveAspectRatio="xMidYMid meet">
<metadata>
Created by potrace 1.16, written by Peter Selinger 2001-2019
</metadata>
<g transform="translate(0.000000,92.000000) scale(0.100000,-0.100000)"
fill="#000000" stroke="none">
<path d="M695 779 c-55 -17 -258 -39 -293 -33 l-34 7 8 -34 c15 -56 8 -365
-10 -448 -14 -65 -14 -76 0 -102 30 -58 42 -35 49 94 13 223 14 257 15 348 l0
97 98 11 c53 6 124 13 157 14 l60 2 3 -260 c3 -298 2 -302 -61 -284 -21 5 -43
9 -48 7 -5 -2 17 -30 50 -62 52 -52 62 -58 76 -46 37 31 40 52 46 335 3 154 9
290 13 301 6 17 1 25 -27 43 -37 23 -55 24 -102 10z"/>
<path d="M156 763 c5 -10 10 -96 12 -192 3 -186 2 -191 -47 -191 -24 0 -24 1
-17 76 6 64 4 79 -10 95 -9 11 -25 19 -35 19 -14 0 -16 -5 -10 -27 7 -25 3
-62 -13 -158 -5 -28 -3 -46 6 -58 13 -18 17 -17 88 6 41 14 92 28 113 32 35 6
38 4 33 -13 -4 -11 0 -24 8 -31 21 -17 31 7 45 104 7 44 16 92 21 107 7 23 5
30 -13 43 -46 32 -52 23 -49 -75 4 -89 4 -90 -23 -100 -52 -20 -53 -18 -48 88
3 53 8 137 12 185 8 97 3 107 -54 107 -22 0 -26 -3 -19 -17z"/>
<path d="M543 616 c-74 -21 -89 -38 -40 -44 26 -3 184 32 196 43 10 11 -23 25
-54 24 -16 -1 -63 -11 -102 -23z"/>
<path d="M600 503 c-19 -8 -57 -16 -83 -16 -39 -1 -46 -4 -41 -16 4 -9 12 -44
19 -79 7 -35 14 -64 16 -66 2 -1 38 2 80 7 l75 10 1 33 c1 17 9 48 18 69 15
31 16 38 4 50 -23 21 -52 24 -89 8z m30 -57 c0 -14 -4 -36 -10 -50 -8 -22 -16
-26 -50 -26 l-40 0 0 44 c0 48 5 51 73 55 22 1 27 -3 27 -23z"/>
</g>
</svg>
