<?xml version="1.0" standalone="no"?>
<!DOCTYPE svg PUBLIC "-//W3C//DTD SVG 20010904//EN"
 "http://www.w3.org/TR/2001/REC-SVG-20010904/DTD/svg10.dtd">
<svg version="1.0" xmlns="http://www.w3.org/2000/svg"
 width="96.000000pt" height="68.000000pt" viewBox="0 0 96.000000 68.000000"
 preserveAspectRatio="xMidYMid meet">
<metadata>
Created by potrace 1.16, written by Peter Selinger 2001-2019
</metadata>
<g transform="translate(0.000000,68.000000) scale(0.100000,-0.100000)"
fill="#000000" stroke="none">
<path d="M240 573 c0 -5 9 -23 20 -41 15 -24 27 -32 42 -30 31 4 33 24 4 53
-23 23 -66 35 -66 18z"/>
<path d="M525 503 c-3 -16 -18 -43 -32 -61 -39 -51 -18 -50 32 1 47 49 55 71
29 81 -22 8 -21 9 -29 -21z"/>
<path d="M640 524 c0 -3 11 -16 25 -30 14 -14 25 -30 25 -36 0 -11 29 -37 43
-38 18 0 4 45 -23 70 -26 24 -70 46 -70 34z"/>
<path d="M369 506 c-2 -3 -42 -10 -88 -15 -62 -8 -88 -8 -98 1 -16 13 -15 14
-42 -39 -28 -56 -27 -73 3 -73 19 0 28 8 37 34 13 37 17 38 153 52 67 7 68 7
57 -14 -6 -11 -7 -23 -2 -26 10 -6 87 29 96 44 12 19 -99 53 -116 36z"/>
<path d="M266 411 c6 -38 5 -39 -32 -50 l-39 -11 38 5 c34 3 37 2 37 -21 0
-20 -5 -24 -27 -24 -16 0 -35 -5 -43 -10 -11 -7 -4 -10 26 -10 45 0 55 -5 48
-25 -3 -8 -39 -18 -90 -26 -46 -7 -84 -15 -84 -19 0 -15 44 -18 102 -8 65 11
63 12 72 -19 7 -22 4 -23 -39 -23 -39 0 -46 -3 -41 -16 4 -9 11 -36 17 -61 9
-33 16 -42 28 -39 9 3 40 8 69 11 43 6 52 10 52 26 0 11 10 33 22 50 19 26 20
31 8 40 -8 5 -34 8 -57 5 -48 -6 -47 -7 -32 28 10 20 21 25 70 31 33 4 59 11
59 17 0 6 -22 7 -60 3 -56 -6 -60 -6 -60 13 0 16 9 22 40 27 50 9 53 28 3 23
-30 -2 -38 1 -41 15 -3 13 7 22 37 34 23 9 40 21 38 27 -4 12 -22 12 -49 1
-14 -5 -18 -2 -18 13 0 20 -18 32 -46 32 -11 0 -13 -9 -8 -39z m67 -283 c-3
-18 -6 -34 -7 -35 -1 -1 -19 -3 -41 -5 -38 -3 -40 -2 -43 29 -3 34 5 40 65 42
31 1 32 0 26 -31z"/>
<path d="M561 392 c-11 -39 -60 -104 -119 -156 -39 -34 -36 -45 5 -19 54 35
98 74 130 118 l22 30 62 -63 c68 -69 91 -79 152 -66 l42 9 -65 25 c-68 25
-102 43 -134 72 -11 10 -23 18 -28 18 -4 0 -8 10 -8 21 0 20 -24 48 -42 49 -4
0 -12 -17 -17 -38z"/>
<path d="M610 205 c-41 -6 -90 -11 -108 -11 -25 1 -31 -2 -26 -14 7 -16 18
-59 28 -103 6 -23 9 -26 26 -17 10 5 45 10 77 10 88 0 95 5 120 67 20 53 21
57 5 70 -20 15 -24 15 -122 -2z m62 -63 l-4 -39 -65 -7 c-36 -4 -67 -5 -69 -4
-1 2 -4 21 -6 43 l-3 39 70 11 c39 6 72 7 75 3 3 -4 4 -25 2 -46z"/>
</g>
</svg>
