<?xml version="1.0" standalone="no"?>
<!DOCTYPE svg PUBLIC "-//W3C//DTD SVG 20010904//EN"
 "http://www.w3.org/TR/2001/REC-SVG-20010904/DTD/svg10.dtd">
<svg version="1.0" xmlns="http://www.w3.org/2000/svg"
 width="96.000000pt" height="68.000000pt" viewBox="0 0 96.000000 68.000000"
 preserveAspectRatio="xMidYMid meet">
<metadata>
Created by potrace 1.16, written by Peter Selinger 2001-2019
</metadata>
<g transform="translate(0.000000,68.000000) scale(0.100000,-0.100000)"
fill="#000000" stroke="none">
<path d="M561 390 c-8 -26 -36 -66 -78 -110 -36 -39 -61 -70 -55 -70 10 0 101
65 112 80 3 4 18 22 33 40 l28 32 68 -66 c72 -69 92 -76 161 -57 21 6 16 10
-40 30 -94 34 -184 100 -173 126 4 11 -24 35 -40 35 -2 0 -9 -18 -16 -40z"/>
</g>
</svg>
