<?xml version="1.0" standalone="no"?>
<!DOCTYPE svg PUBLIC "-//W3C//DTD SVG 20010904//EN"
 "http://www.w3.org/TR/2001/REC-SVG-20010904/DTD/svg10.dtd">
<svg version="1.0" xmlns="http://www.w3.org/2000/svg"
 width="90.000000pt" height="92.000000pt" viewBox="0 0 90.000000 92.000000"
 preserveAspectRatio="xMidYMid meet">
<metadata>
Created by potrace 1.16, written by Peter Selinger 2001-2019
</metadata>
<g transform="translate(0.000000,92.000000) scale(0.100000,-0.100000)"
fill="#000000" stroke="none">
<path d="M236 832 c-2 -4 0 -41 4 -82 5 -41 9 -80 10 -87 0 -7 -26 -17 -60
-24 -77 -15 -74 -34 4 -33 l56 1 0 -43 c0 -50 4 -48 -141 -73 -55 -9 -100 -21
-101 -26 0 -6 12 -16 27 -24 24 -12 36 -11 99 8 89 26 113 27 121 1 8 -26 2
-150 -8 -150 -4 0 -22 7 -39 16 -22 12 -27 19 -19 27 19 19 12 46 -17 61 l-28
14 -12 -50 c-12 -53 -63 -149 -110 -208 l-27 -35 30 19 c46 29 74 57 108 109
16 26 36 47 42 47 7 0 72 -39 146 -87 178 -116 270 -163 319 -163 21 0 72 7
112 15 108 22 121 26 115 31 -2 3 -58 14 -123 25 -175 30 -227 45 -347 102
-107 50 -109 51 -103 80 3 16 6 35 6 42 0 8 21 15 55 20 30 3 57 11 60 16 11
16 -41 29 -77 18 -18 -5 -33 -9 -34 -9 -1 0 -1 22 0 50 1 54 -4 51 94 65 46 7
53 18 22 35 -13 7 -33 7 -62 0 -65 -15 -64 -15 -58 37 l5 48 53 11 c30 7 56
14 59 17 12 13 -43 29 -80 23 l-40 -7 6 75 7 74 -32 11 c-37 13 -36 13 -42 3z"/>
<path d="M510 800 c0 -6 5 -21 11 -32 12 -23 49 -151 45 -156 -2 -1 -31 -8
-65 -14 -51 -10 -60 -14 -54 -27 4 -9 8 -80 8 -158 1 -78 4 -146 9 -150 8 -8
126 114 126 130 0 5 -17 -5 -37 -22 -21 -17 -41 -31 -46 -31 -5 0 -7 49 -6
109 l2 109 36 6 c20 3 38 2 42 -2 4 -4 14 -32 24 -62 10 -30 27 -72 37 -94
l20 -39 -64 -64 -63 -65 41 20 c23 12 56 33 73 48 18 14 33 25 35 23 1 -2 17
-25 35 -51 37 -56 89 -98 119 -98 26 0 26 1 2 70 -11 30 -19 72 -20 93 0 50
-16 47 -23 -4 -3 -22 -8 -43 -11 -46 -7 -8 -32 13 -57 48 l-20 28 25 50 c14
27 30 52 36 56 19 12 10 34 -20 50 -39 20 -40 20 -40 -19 0 -19 -5 -47 -11
-63 l-12 -28 -23 51 c-13 28 -27 64 -30 81 -5 28 -3 31 26 37 18 3 47 6 66 6
45 0 51 16 13 35 -26 14 -39 15 -76 5 -25 -6 -47 -9 -50 -6 -2 2 -8 38 -12 80
-4 42 -11 80 -16 85 -17 15 -75 24 -75 11z"/>
<path d="M686 715 c35 -47 58 -59 74 -40 26 32 -21 75 -82 75 -17 0 -16 -3 8
-35z"/>
</g>
</svg>
