<?xml version="1.0" standalone="no"?>
<!DOCTYPE svg PUBLIC "-//W3C//DTD SVG 20010904//EN"
 "http://www.w3.org/TR/2001/REC-SVG-20010904/DTD/svg10.dtd">
<svg version="1.0" xmlns="http://www.w3.org/2000/svg"
 width="96.000000pt" height="68.000000pt" viewBox="0 0 96.000000 68.000000"
 preserveAspectRatio="xMidYMid meet">
<metadata>
Created by potrace 1.16, written by Peter Selinger 2001-2019
</metadata>
<g transform="translate(0.000000,68.000000) scale(0.100000,-0.100000)"
fill="#000000" stroke="none">
<path d="M540 569 c0 -2 11 -31 25 -64 32 -78 31 -85 -5 -85 -21 0 -30 -5 -30
-16 0 -13 7 -15 40 -9 30 5 40 3 40 -7 0 -7 13 -41 29 -75 l30 -63 -45 -36
c-57 -47 -49 -56 16 -16 l49 31 30 -38 c32 -40 95 -80 108 -68 4 4 2 28 -5 52
-7 25 -12 57 -12 71 0 33 -16 23 -23 -16 -8 -36 -19 -38 -47 -8 -26 28 -25 36
5 80 14 20 25 41 25 46 0 5 -11 14 -25 20 -23 10 -25 9 -25 -11 -1 -12 -7 -33
-14 -46 l-14 -25 -20 40 c-40 80 -40 81 29 89 41 5 58 10 51 17 -10 10 -71 13
-102 6 -14 -3 -26 24 -35 85 -4 27 -11 37 -25 37 -10 0 -25 3 -34 6 -9 3 -16
5 -16 3z"/>
<path d="M680 521 c0 -13 50 -51 66 -51 24 0 15 36 -11 48 -31 14 -55 15 -55
3z"/>
</g>
</svg>
