<?xml version="1.0" standalone="no"?>
<!DOCTYPE svg PUBLIC "-//W3C//DTD SVG 20010904//EN"
 "http://www.w3.org/TR/2001/REC-SVG-20010904/DTD/svg10.dtd">
<svg version="1.0" xmlns="http://www.w3.org/2000/svg"
 width="96.000000pt" height="68.000000pt" viewBox="0 0 96.000000 68.000000"
 preserveAspectRatio="xMidYMid meet">
<metadata>
Created by potrace 1.16, written by Peter Selinger 2001-2019
</metadata>
<g transform="translate(0.000000,68.000000) scale(0.100000,-0.100000)"
fill="#000000" stroke="none">
<path d="M275 232 c7 -36 4 -38 -109 -48 -72 -6 -78 -8 -60 -21 18 -14 62 -13
146 4 l29 6 -3 -62 c-1 -37 2 -65 10 -73 20 -20 31 3 34 72 l3 64 58 11 c70
12 65 25 -9 25 -47 0 -53 2 -56 23 -2 14 -11 23 -26 25 -22 3 -23 1 -17 -26z"/>
</g>
</svg>
