<?xml version="1.0" standalone="no"?>
<!DOCTYPE svg PUBLIC "-//W3C//DTD SVG 20010904//EN"
 "http://www.w3.org/TR/2001/REC-SVG-20010904/DTD/svg10.dtd">
<svg version="1.0" xmlns="http://www.w3.org/2000/svg"
 width="96.000000pt" height="68.000000pt" viewBox="0 0 96.000000 68.000000"
 preserveAspectRatio="xMidYMid meet">
<metadata>
Created by potrace 1.16, written by Peter Selinger 2001-2019
</metadata>
<g transform="translate(0.000000,68.000000) scale(0.100000,-0.100000)"
fill="#000000" stroke="none">
<path d="M259 552 c-16 -46 -32 -71 -67 -112 -40 -48 -30 -51 27 -9 32 23 51
29 78 27 l35 -3 -36 -45 c-19 -25 -31 -46 -26 -48 9 -3 142 104 148 120 2 4
-9 13 -24 18 -22 9 -36 7 -66 -6 -48 -21 -56 -14 -28 24 24 33 22 47 -10 55
-16 4 -23 -1 -31 -21z"/>
</g>
</svg>
