<?xml version="1.0" standalone="no"?>
<!DOCTYPE svg PUBLIC "-//W3C//DTD SVG 20010904//EN"
 "http://www.w3.org/TR/2001/REC-SVG-20010904/DTD/svg10.dtd">
<svg version="1.0" xmlns="http://www.w3.org/2000/svg"
 width="96.000000pt" height="68.000000pt" viewBox="0 0 96.000000 68.000000"
 preserveAspectRatio="xMidYMid meet">
<metadata>
Created by potrace 1.16, written by Peter Selinger 2001-2019
</metadata>
<g transform="translate(0.000000,68.000000) scale(0.100000,-0.100000)"
fill="#000000" stroke="none">
<path d="M561 514 c25 -41 17 -53 -36 -55 -16 0 -41 -4 -55 -9 -54 -16 13 -23
114 -12 56 7 118 12 140 12 34 0 37 2 25 16 -11 13 -26 15 -71 11 -51 -5 -58
-3 -58 13 0 20 -44 60 -67 60 -11 0 -10 -8 8 -36z"/>
</g>
</svg>
