<?xml version="1.0" standalone="no"?>
<!DOCTYPE svg PUBLIC "-//W3C//DTD SVG 20010904//EN"
 "http://www.w3.org/TR/2001/REC-SVG-20010904/DTD/svg10.dtd">
<svg version="1.0" xmlns="http://www.w3.org/2000/svg"
 width="96.000000pt" height="68.000000pt" viewBox="0 0 96.000000 68.000000"
 preserveAspectRatio="xMidYMid meet">
<metadata>
Created by potrace 1.16, written by Peter Selinger 2001-2019
</metadata>
<g transform="translate(0.000000,68.000000) scale(0.100000,-0.100000)"
fill="#000000" stroke="none">
<path d="M554 563 c4 -21 10 -56 13 -79 l5 -41 -63 -7 c-35 -4 -95 -10 -133
-13 -60 -5 -67 -8 -51 -19 15 -11 17 -25 13 -101 -5 -90 -26 -152 -63 -183 -9
-7 -21 -22 -27 -33 -10 -19 -8 -19 21 2 66 47 108 135 112 236 3 69 7 75 43
75 18 0 58 5 90 11 32 6 60 8 62 6 2 -2 18 -59 35 -126 l32 -123 -42 -42 c-22
-23 -41 -45 -41 -49 0 -11 51 17 77 42 l22 21 47 -50 c29 -31 61 -54 85 -62
22 -6 41 -9 43 -7 2 2 -4 36 -13 74 l-18 70 -6 -42 c-4 -24 -10 -43 -13 -43
-18 0 -48 26 -69 61 l-26 40 31 44 c16 24 30 48 30 54 0 6 6 20 13 32 10 17 9
22 -7 35 -33 24 -46 17 -46 -23 -1 -21 -9 -53 -19 -72 l-18 -33 -11 28 c-17
40 -42 166 -36 176 3 4 30 8 60 8 30 0 54 4 54 10 0 14 -46 23 -86 17 -33 -6
-34 -5 -35 31 -3 86 -3 85 -38 99 l-34 14 7 -38z"/>
<path d="M670 542 c0 -12 50 -62 62 -62 16 0 21 31 7 45 -17 16 -69 28 -69 17z"/>
<path d="M210 394 c-25 -8 -58 -14 -75 -13 -46 2 -47 1 -29 -27 9 -14 22 -51
29 -82 9 -48 14 -56 31 -53 10 2 40 5 67 8 45 5 47 6 47 36 1 18 7 43 15 57
23 40 19 69 -11 80 -14 6 -26 10 -27 9 -1 -1 -22 -7 -47 -15z m30 -48 c0 -58
-12 -86 -37 -86 -25 0 -28 5 -38 62 -5 36 -5 37 27 41 18 2 36 5 41 5 4 1 7
-9 7 -22z"/>
<path d="M450 320 c0 -66 -1 -70 -22 -70 -13 0 -30 -5 -38 -10 -11 -7 -6 -10
22 -10 34 0 38 -3 43 -33 11 -57 3 -102 -18 -100 -17 1 -16 -1 4 -23 33 -35
46 -16 51 77 5 85 13 99 56 99 12 0 22 5 22 11 0 7 -15 10 -40 7 -36 -3 -40
-1 -40 19 0 17 7 23 35 29 19 3 38 10 41 15 8 14 -26 23 -39 10 -17 -17 -27
-13 -27 9 0 16 -26 40 -44 40 -3 0 -6 -31 -6 -70z"/>
<path d="M530 193 c0 -17 38 -64 44 -55 7 12 -3 44 -18 54 -14 10 -26 10 -26
1z"/>
<path d="M376 148 c-15 -22 -25 -43 -22 -45 5 -5 76 57 76 67 0 4 -6 10 -14
13 -8 3 -24 -10 -40 -35z"/>
</g>
</svg>
