<?xml version="1.0" standalone="no"?>
<!DOCTYPE svg PUBLIC "-//W3C//DTD SVG 20010904//EN"
 "http://www.w3.org/TR/2001/REC-SVG-20010904/DTD/svg10.dtd">
<svg version="1.0" xmlns="http://www.w3.org/2000/svg"
 width="90.000000pt" height="92.000000pt" viewBox="0 0 90.000000 92.000000"
 preserveAspectRatio="xMidYMid meet">
<metadata>
Created by potrace 1.16, written by Peter Selinger 2001-2019
</metadata>
<g transform="translate(0.000000,92.000000) scale(0.100000,-0.100000)"
fill="#000000" stroke="none">
<path d="M260 863 c0 -28 -61 -128 -108 -178 -69 -72 -17 -51 64 27 38 37 46
40 110 44 77 5 104 11 104 24 0 17 -50 22 -96 11 -26 -7 -48 -10 -50 -8 -3 2
5 16 16 30 l21 26 -21 21 c-25 25 -40 26 -40 3z"/>
<path d="M510 864 c0 -24 -41 -115 -68 -152 -40 -55 -16 -48 43 13 31 31 61
55 68 52 12 -5 128 9 160 19 14 5 16 9 6 20 -15 18 -40 18 -109 -1 -30 -8 -56
-13 -58 -10 -2 2 1 12 7 23 8 15 6 23 -8 36 -22 20 -41 21 -41 0z"/>
<path d="M570 740 c0 -15 51 -70 65 -70 16 0 26 25 19 44 -6 15 -84 39 -84 26z"/>
<path d="M280 724 c0 -17 44 -64 61 -64 31 0 26 48 -7 60 -29 11 -54 13 -54 4z"/>
<path d="M500 672 c0 -23 -36 -91 -66 -123 -20 -21 -22 -28 -11 -43 12 -16 16
-16 84 3 l72 19 -12 -26 c-6 -15 -12 -28 -13 -30 -1 -2 -51 -11 -111 -21 -98
-15 -106 -18 -85 -30 19 -10 37 -10 93 0 38 7 72 9 76 6 10 -10 18 -134 15
-219 l-3 -78 -42 0 -42 0 43 -42 c34 -35 45 -41 59 -32 27 17 32 57 28 225
l-3 158 41 6 c23 3 66 6 96 8 61 2 76 18 34 36 -22 8 -45 8 -100 -3 l-71 -13
55 75 c53 71 55 76 38 89 -24 17 -34 16 -78 -2 -45 -19 -76 -20 -59 -3 13 13
1 43 -23 52 -10 3 -15 -1 -15 -12z m100 -92 c0 -10 -8 -23 -17 -28 -26 -14
-113 -25 -113 -15 0 25 33 52 68 56 20 2 43 4 50 5 6 1 12 -7 12 -18z"/>
<path d="M210 644 c0 -40 -53 -124 -125 -198 -68 -69 -70 -82 -6 -42 26 17 51
24 79 23 38 -2 42 -4 42 -29 0 -23 -6 -29 -37 -37 -21 -6 -46 -11 -55 -11 -10
0 -18 -4 -18 -9 0 -14 30 -18 70 -10 19 5 35 7 36 6 3 -3 6 -69 5 -113 -1 -38
-3 -42 -40 -52 -21 -7 -55 -12 -75 -12 -42 0 -45 -8 -12 -39 l25 -23 125 61
c69 33 126 65 126 71 0 14 -15 13 -57 -5 -19 -8 -39 -15 -44 -15 -5 0 -9 31
-9 70 l0 70 45 11 c69 17 55 36 -22 29 -42 -3 -25 42 22 60 l30 12 -24 9 c-17
7 -38 5 -70 -6 -71 -24 -74 -19 -24 45 l47 61 38 -38 c32 -31 40 -35 48 -23
23 35 7 63 -43 75 -29 8 -33 15 -17 31 14 14 -16 54 -41 54 -14 0 -19 -7 -19
-26z"/>
<path d="M677 388 c-9 -18 -24 -44 -34 -57 -16 -22 -14 -22 45 8 34 17 62 35
62 40 0 11 -34 41 -46 41 -6 0 -18 -15 -27 -32z"/>
<path d="M400 366 c0 -25 45 -70 63 -63 30 11 20 47 -18 63 -43 17 -45 17 -45
0z"/>
<path d="M290 288 c-11 -23 -20 -43 -20 -45 0 -2 18 7 40 19 42 24 48 36 28
56 -19 19 -26 15 -48 -30z"/>
<path d="M100 281 c0 -5 12 -24 26 -41 23 -27 29 -29 41 -17 19 19 7 44 -29
56 -38 13 -38 13 -38 2z"/>
<path d="M450 244 c-25 -18 -60 -39 -78 -45 -36 -12 -40 -34 -10 -53 14 -9 25
-3 59 29 43 42 84 94 78 99 -2 2 -24 -12 -49 -30z"/>
<path d="M651 243 c20 -21 54 -58 76 -82 42 -46 63 -48 63 -6 0 27 -42 66
-111 101 -65 32 -69 31 -28 -13z"/>
</g>
</svg>
