<?xml version="1.0" standalone="no"?>
<!DOCTYPE svg PUBLIC "-//W3C//DTD SVG 20010904//EN"
 "http://www.w3.org/TR/2001/REC-SVG-20010904/DTD/svg10.dtd">
<svg version="1.0" xmlns="http://www.w3.org/2000/svg"
 width="90.000000pt" height="92.000000pt" viewBox="0 0 90.000000 92.000000"
 preserveAspectRatio="xMidYMid meet">
<metadata>
Created by potrace 1.16, written by Peter Selinger 2001-2019
</metadata>
<g transform="translate(0.000000,92.000000) scale(0.100000,-0.100000)"
fill="#000000" stroke="none">
<path d="M544 848 c4 -13 9 -80 13 -149 l6 -126 -36 -7 c-19 -4 -54 -4 -76 0
-41 7 -51 -2 -30 -23 14 -14 6 -293 -10 -345 -6 -20 -27 -60 -46 -87 -38 -58
-35 -63 15 -22 35 28 73 97 85 155 l6 29 24 -23 c14 -13 31 -20 40 -17 39 15
174 118 154 117 -2 0 -42 -14 -89 -30 -128 -45 -126 -46 -122 50 2 44 5 80 7
80 2 0 26 -16 55 -35 63 -43 100 -46 100 -10 0 29 -36 51 -98 61 -53 8 -65 17
-58 42 8 25 49 35 146 36 l65 1 3 -168 c1 -92 -1 -182 -6 -200 -9 -34 -20 -37
-77 -22 -29 8 -29 7 20 -46 28 -30 56 -54 64 -54 8 0 24 15 34 33 17 29 20 56
22 230 1 108 4 208 6 221 3 17 -4 29 -23 44 -25 19 -32 20 -79 9 -29 -7 -53
-11 -54 -10 -1 2 2 62 6 133 9 142 5 155 -49 155 -20 0 -23 -4 -18 -22z"/>
<path d="M719 748 c-12 -24 -31 -53 -42 -65 -11 -13 -18 -25 -16 -28 8 -8 149
69 149 82 0 12 -47 53 -61 53 -5 0 -18 -19 -30 -42z"/>
<path d="M400 725 c0 -4 7 -20 16 -38 33 -65 67 -86 79 -48 8 26 -13 67 -42
80 -26 12 -53 15 -53 6z"/>
<path d="M242 700 c-35 -10 -88 -22 -118 -26 -65 -8 -68 -27 -6 -32 37 -3 42
-6 42 -28 0 -56 -82 -249 -137 -322 -14 -18 -23 -36 -20 -38 9 -10 75 56 108
108 l34 52 11 -67 c11 -66 31 -106 41 -80 2 7 35 15 74 19 65 6 70 8 65 27 -3
11 4 47 14 78 25 73 25 77 -3 90 -18 8 -37 6 -85 -10 -105 -36 -106 -34 -65
62 26 61 32 86 24 98 -8 14 -4 18 27 23 98 16 141 43 96 60 -21 8 -28 7 -102
-14z m58 -302 c0 -56 -7 -65 -57 -76 l-41 -9 -6 50 c-9 63 1 73 77 76 25 1 27
-1 27 -41z"/>
</g>
</svg>
