<?xml version="1.0" standalone="no"?>
<!DOCTYPE svg PUBLIC "-//W3C//DTD SVG 20010904//EN"
 "http://www.w3.org/TR/2001/REC-SVG-20010904/DTD/svg10.dtd">
<svg version="1.0" xmlns="http://www.w3.org/2000/svg"
 width="96.000000pt" height="68.000000pt" viewBox="0 0 96.000000 68.000000"
 preserveAspectRatio="xMidYMid meet">
<metadata>
Created by potrace 1.16, written by Peter Selinger 2001-2019
</metadata>
<g transform="translate(0.000000,68.000000) scale(0.100000,-0.100000)"
fill="#000000" stroke="none">
<path d="M660 394 c-36 -7 -88 -13 -116 -14 l-50 0 4 -61 c3 -36 -3 -96 -14
-150 -14 -72 -15 -92 -5 -102 18 -17 38 13 47 69 l6 44 52 1 c28 0 72 4 99 8
l47 8 0 -46 c0 -64 -10 -75 -55 -67 l-36 7 40 -36 c78 -71 102 -35 100 150 -1
72 1 140 5 152 6 18 1 25 -23 37 -17 9 -31 15 -33 15 -2 -1 -32 -7 -68 -15z
m68 -50 l3 -31 -78 -12 c-43 -7 -86 -14 -95 -16 -14 -2 -18 4 -18 30 0 19 5
37 10 40 12 7 135 23 160 21 9 -1 16 -13 18 -32z m2 -87 l0 -34 -85 -12 c-99
-15 -114 -12 -108 22 5 23 12 26 96 40 51 8 93 15 95 16 1 0 2 -14 2 -32z"/>
</g>
</svg>
