<?xml version="1.0" standalone="no"?>
<!DOCTYPE svg PUBLIC "-//W3C//DTD SVG 20010904//EN"
 "http://www.w3.org/TR/2001/REC-SVG-20010904/DTD/svg10.dtd">
<svg version="1.0" xmlns="http://www.w3.org/2000/svg"
 width="90.000000pt" height="92.000000pt" viewBox="0 0 90.000000 92.000000"
 preserveAspectRatio="xMidYMid meet">
<metadata>
Created by potrace 1.16, written by Peter Selinger 2001-2019
</metadata>
<g transform="translate(0.000000,92.000000) scale(0.100000,-0.100000)"
fill="#000000" stroke="none">
<path d="M458 758 c2 -79 8 -151 13 -160 25 -48 163 -69 250 -40 51 18 77 48
61 70 -7 9 -18 29 -25 45 -15 36 -22 34 -33 -10 -11 -47 -41 -63 -116 -63 -97
0 -124 21 -112 84 5 31 6 32 90 43 97 14 110 19 93 39 -15 19 -42 18 -118 -6
l-63 -19 6 42 c4 23 9 52 12 64 5 17 -1 25 -25 37 -16 9 -31 16 -33 16 -2 0
-2 -64 0 -142z"/>
<path d="M255 728 l0 -141 -28 -8 -29 -8 3 77 c4 87 -2 102 -37 102 -19 0 -24
-4 -20 -17 2 -10 8 -54 12 -97 l7 -79 -42 6 c-22 3 -43 2 -46 -2 -2 -5 9 -21
26 -37 28 -27 31 -27 62 -15 17 7 79 31 137 52 117 44 149 65 85 56 -22 -3
-50 -9 -62 -13 -20 -5 -23 -3 -23 22 0 62 8 71 63 78 67 9 84 18 62 36 -14 12
-34 11 -93 -6 -23 -7 -23 -5 -21 55 3 64 -6 80 -41 81 -13 0 -15 -22 -15 -142z"/>
<path d="M380 545 c0 -3 9 -23 20 -44 l19 -39 -117 -11 c-64 -6 -144 -15 -177
-19 l-60 -7 28 -19 c34 -23 55 -23 172 -2 56 11 169 19 300 22 116 3 216 8
224 10 11 4 10 8 -4 24 -25 28 -66 33 -163 21 -48 -6 -104 -14 -124 -16 -35
-5 -38 -3 -38 18 0 13 -8 31 -17 39 -20 17 -63 33 -63 23z"/>
<path d="M490 384 c-8 -3 -55 -10 -104 -17 -99 -14 -130 -37 -50 -37 67 0 227
21 238 31 5 5 -2 13 -18 19 -28 10 -39 11 -66 4z"/>
<path d="M430 295 c-36 -7 -82 -13 -102 -14 -39 -1 -51 -17 -21 -28 20 -8 242
15 263 27 12 7 9 11 -13 19 -33 13 -40 12 -127 -4z"/>
<path d="M495 219 c-22 -5 -85 -11 -140 -14 -55 -2 -102 -5 -104 -5 -2 0 3 -8
11 -17 9 -10 21 -44 28 -75 6 -31 18 -62 26 -68 8 -7 14 -8 14 -3 0 6 35 13
78 17 172 15 180 17 175 37 -3 10 4 35 16 54 27 46 27 47 -8 68 -32 19 -37 19
-96 6z m34 -38 c11 -7 12 -17 5 -43 -10 -33 -10 -33 -99 -45 -49 -6 -93 -9
-97 -7 -4 3 -8 23 -8 44 l0 38 78 7 c42 4 82 8 87 10 16 6 19 5 34 -4z"/>
</g>
</svg>
