<?xml version="1.0" standalone="no"?>
<!DOCTYPE svg PUBLIC "-//W3C//DTD SVG 20010904//EN"
 "http://www.w3.org/TR/2001/REC-SVG-20010904/DTD/svg10.dtd">
<svg version="1.0" xmlns="http://www.w3.org/2000/svg"
 width="96.000000pt" height="68.000000pt" viewBox="0 0 96.000000 68.000000"
 preserveAspectRatio="xMidYMid meet">
<metadata>
Created by potrace 1.16, written by Peter Selinger 2001-2019
</metadata>
<g transform="translate(0.000000,68.000000) scale(0.100000,-0.100000)"
fill="#000000" stroke="none">
<path d="M225 510 c-16 -4 -47 -8 -68 -9 -34 -1 -37 -3 -27 -20 5 -11 10 -67
10 -125 0 -85 3 -106 14 -106 8 0 16 6 18 13 5 14 102 17 130 4 15 -8 17 4 20
110 5 146 -3 157 -97 133z m53 -67 c3 -41 2 -43 -25 -43 -15 0 -38 -3 -50 -6
-21 -6 -23 -3 -23 39 0 50 8 57 65 54 28 -2 30 -5 33 -44z m2 -103 c0 -40 0
-40 -40 -41 -22 -1 -46 -2 -52 -3 -13 -1 -20 45 -9 62 7 11 35 19 74 21 25 1
27 -2 27 -39z"/>
</g>
</svg>
