<?xml version="1.0" standalone="no"?>
<!DOCTYPE svg PUBLIC "-//W3C//DTD SVG 20010904//EN"
 "http://www.w3.org/TR/2001/REC-SVG-20010904/DTD/svg10.dtd">
<svg version="1.0" xmlns="http://www.w3.org/2000/svg"
 width="96.000000pt" height="68.000000pt" viewBox="0 0 96.000000 68.000000"
 preserveAspectRatio="xMidYMid meet">
<metadata>
Created by potrace 1.16, written by Peter Selinger 2001-2019
</metadata>
<g transform="translate(0.000000,68.000000) scale(0.100000,-0.100000)"
fill="#000000" stroke="none">
<path d="M564 446 c-28 -7 -74 -12 -101 -12 l-51 1 13 -25 c7 -14 16 -49 20
-78 6 -46 9 -52 26 -47 10 4 60 7 109 8 l90 2 11 40 c5 22 14 50 19 63 15 34
13 39 -21 51 -38 13 -49 13 -115 -3z m80 -38 c-3 -13 -7 -24 -8 -25 -1 -1 -39
-3 -86 -5 -81 -3 -85 -2 -88 19 -3 20 2 22 50 26 139 9 140 9 132 -15z m-4
-70 c0 -22 -4 -23 -85 -25 -78 -2 -85 -1 -85 17 0 20 21 25 118 28 48 2 52 0
52 -20z"/>
</g>
</svg>
