<?xml version="1.0" standalone="no"?>
<!DOCTYPE svg PUBLIC "-//W3C//DTD SVG 20010904//EN"
 "http://www.w3.org/TR/2001/REC-SVG-20010904/DTD/svg10.dtd">
<svg version="1.0" xmlns="http://www.w3.org/2000/svg"
 width="96.000000pt" height="68.000000pt" viewBox="0 0 96.000000 68.000000"
 preserveAspectRatio="xMidYMid meet">
<metadata>
Created by potrace 1.16, written by Peter Selinger 2001-2019
</metadata>
<g transform="translate(0.000000,68.000000) scale(0.100000,-0.100000)"
fill="#000000" stroke="none">
<path d="M470 572 c0 -4 9 -23 19 -43 l20 -36 -61 -7 c-35 -3 -66 -2 -73 4
-16 13 -62 -97 -47 -112 15 -15 31 -1 48 42 l15 37 122 17 c67 9 132 16 145
16 23 0 28 -15 13 -40 -6 -8 -8 -18 -5 -22 6 -10 104 41 104 54 0 5 -17 16
-37 25 -36 14 -92 13 -160 -4 -20 -4 -23 -1 -23 21 0 21 -7 30 -35 42 -39 16
-45 17 -45 6z"/>
<path d="M200 555 c0 -3 16 -21 35 -40 48 -49 91 -45 77 7 -5 22 -112 53 -112
33z"/>
<path d="M120 412 c0 -17 67 -72 87 -72 22 0 38 25 27 42 -15 24 -114 50 -114
30z"/>
<path d="M487 400 c-66 -12 -71 -20 -11 -20 64 0 124 10 124 21 0 11 -46 10
-113 -1z"/>
<path d="M520 320 c-58 -11 -120 -19 -137 -19 -18 -1 -33 -5 -33 -11 0 -5 20
-10 44 -10 41 0 44 -2 38 -22 -9 -36 -32 -69 -91 -131 -49 -51 -52 -57 -27
-47 68 25 166 137 166 189 0 24 39 39 51 20 5 -8 8 -50 6 -95 -2 -87 6 -104
58 -124 56 -21 189 -7 214 24 8 10 7 25 -6 60 -10 25 -20 46 -24 46 -3 0 -9
-17 -13 -38 -8 -56 -61 -74 -155 -56 -40 8 -47 35 -28 110 10 36 12 63 6 69
-19 19 -7 25 56 25 64 0 86 12 43 24 -32 8 -48 7 -168 -14z"/>
<path d="M244 273 c-23 -32 -46 -57 -53 -55 -7 1 -10 -1 -7 -6 3 -5 -6 -19
-19 -30 -30 -27 -31 -36 -4 -74 13 -18 25 -26 31 -20 10 10 96 194 105 225 11
34 -14 16 -53 -40z"/>
</g>
</svg>
