<?xml version="1.0" standalone="no"?>
<!DOCTYPE svg PUBLIC "-//W3C//DTD SVG 20010904//EN"
 "http://www.w3.org/TR/2001/REC-SVG-20010904/DTD/svg10.dtd">
<svg version="1.0" xmlns="http://www.w3.org/2000/svg"
 width="96.000000pt" height="68.000000pt" viewBox="0 0 96.000000 68.000000"
 preserveAspectRatio="xMidYMid meet">
<metadata>
Created by potrace 1.16, written by Peter Selinger 2001-2019
</metadata>
<g transform="translate(0.000000,68.000000) scale(0.100000,-0.100000)"
fill="#000000" stroke="none">
<path d="M470 569 c0 -6 9 -24 21 -41 12 -16 20 -31 18 -32 -11 -9 -129 -14
-129 -6 0 6 -4 10 -8 10 -14 0 -54 -99 -48 -116 9 -25 29 -12 50 33 l19 40
139 18 c76 10 142 15 145 11 3 -3 1 -18 -6 -32 -6 -15 -10 -29 -7 -31 7 -7
106 46 106 57 0 5 -14 17 -32 26 -31 16 -96 15 -165 -2 -20 -5 -23 -2 -23 20
0 18 -8 30 -30 41 -34 18 -50 19 -50 4z"/>
</g>
</svg>
