<?xml version="1.0" standalone="no"?>
<!DOCTYPE svg PUBLIC "-//W3C//DTD SVG 20010904//EN"
 "http://www.w3.org/TR/2001/REC-SVG-20010904/DTD/svg10.dtd">
<svg version="1.0" xmlns="http://www.w3.org/2000/svg"
 width="96.000000pt" height="68.000000pt" viewBox="0 0 96.000000 68.000000"
 preserveAspectRatio="xMidYMid meet">
<metadata>
Created by potrace 1.16, written by Peter Selinger 2001-2019
</metadata>
<g transform="translate(0.000000,68.000000) scale(0.100000,-0.100000)"
fill="#000000" stroke="none">
<path d="M545 426 c8 -38 3 -43 -64 -62 l-46 -14 58 6 c52 5 57 4 57 -15 0
-16 -9 -21 -45 -27 -58 -8 -58 -24 0 -24 38 0 45 -3 45 -20 0 -13 7 -20 20
-20 15 0 20 7 20 24 0 22 7 26 56 36 66 14 64 22 -5 22 -33 -1 -51 3 -51 11 0
23 15 34 54 40 21 3 41 9 44 12 12 11 -23 26 -51 22 -20 -3 -31 1 -35 12 -7
20 -22 31 -45 31 -15 0 -17 -6 -12 -34z"/>
</g>
</svg>
