<?xml version="1.0" standalone="no"?>
<!DOCTYPE svg PUBLIC "-//W3C//DTD SVG 20010904//EN"
 "http://www.w3.org/TR/2001/REC-SVG-20010904/DTD/svg10.dtd">
<svg version="1.0" xmlns="http://www.w3.org/2000/svg"
 width="90.000000pt" height="92.000000pt" viewBox="0 0 90.000000 92.000000"
 preserveAspectRatio="xMidYMid meet">
<metadata>
Created by potrace 1.16, written by Peter Selinger 2001-2019
</metadata>
<g transform="translate(0.000000,92.000000) scale(0.100000,-0.100000)"
fill="#000000" stroke="none">
<path d="M350 848 c0 -7 14 -33 30 -58 l30 -45 -93 -12 c-182 -24 -180 -24
-168 -36 7 -7 45 -12 94 -12 l82 0 3 -55 c4 -72 -12 -127 -51 -167 -17 -18
-27 -33 -23 -33 21 0 85 45 100 71 20 34 39 181 24 190 -14 9 17 19 56 19 32
0 33 -1 39 -51 4 -28 4 -85 1 -127 -6 -82 5 -117 28 -94 15 15 28 251 15 270
-7 9 8 12 71 12 88 0 112 5 112 25 0 24 -59 36 -124 25 -134 -23 -123 -23
-123 5 0 32 -19 55 -60 72 -40 16 -43 16 -43 1z"/>
<path d="M163 530 c-22 -44 -37 -80 -31 -80 16 0 120 109 116 122 -2 6 -13 17
-24 25 -19 12 -23 8 -61 -67z"/>
<path d="M616 545 c58 -66 80 -78 90 -50 13 34 -6 65 -56 90 -27 14 -59 25
-70 25 -18 0 -12 -11 36 -65z"/>
<path d="M367 403 l5 -50 -38 -7 c-22 -3 -81 -9 -132 -13 -51 -3 -95 -10 -98
-15 -3 -5 11 -15 32 -24 34 -14 45 -14 123 0 47 9 89 16 93 16 16 0 -16 -61
-50 -95 -49 -49 -98 -81 -169 -111 l-58 -24 42 0 c103 0 216 73 269 175 16 30
37 56 49 59 11 3 88 6 172 6 83 0 154 4 157 9 3 4 -4 17 -15 27 -24 21 -87 23
-236 7 -84 -9 -91 -7 -73 26 11 22 -11 46 -52 56 l-27 7 6 -49z"/>
<path d="M565 157 c104 -103 135 -118 135 -67 0 57 -103 137 -202 157 -29 6
-23 -3 67 -90z"/>
</g>
</svg>
