<?xml version="1.0" standalone="no"?>
<!DOCTYPE svg PUBLIC "-//W3C//DTD SVG 20010904//EN"
 "http://www.w3.org/TR/2001/REC-SVG-20010904/DTD/svg10.dtd">
<svg version="1.0" xmlns="http://www.w3.org/2000/svg"
 width="96.000000pt" height="68.000000pt" viewBox="0 0 96.000000 68.000000"
 preserveAspectRatio="xMidYMid meet">
<metadata>
Created by potrace 1.16, written by Peter Selinger 2001-2019
</metadata>
<g transform="translate(0.000000,68.000000) scale(0.100000,-0.100000)"
fill="#000000" stroke="none">
<path d="M406 608 c18 -32 50 -58 71 -58 23 0 29 15 15 36 -19 28 -102 49 -86
22z"/>
<path d="M465 530 c-82 -10 -169 -20 -192 -21 -24 -2 -43 -6 -43 -10 0 -16 47
-16 168 -3 70 8 171 17 225 20 94 6 120 15 75 28 -32 8 -61 6 -233 -14z"/>
</g>
</svg>
