<?xml version="1.0" standalone="no"?>
<!DOCTYPE svg PUBLIC "-//W3C//DTD SVG 20010904//EN"
 "http://www.w3.org/TR/2001/REC-SVG-20010904/DTD/svg10.dtd">
<svg version="1.0" xmlns="http://www.w3.org/2000/svg"
 width="90.000000pt" height="92.000000pt" viewBox="0 0 90.000000 92.000000"
 preserveAspectRatio="xMidYMid meet">
<metadata>
Created by potrace 1.16, written by Peter Selinger 2001-2019
</metadata>
<g transform="translate(0.000000,92.000000) scale(0.100000,-0.100000)"
fill="#000000" stroke="none">
<path d="M190 820 c0 -16 71 -90 86 -90 19 0 33 32 24 56 -12 31 -110 61 -110
34z"/>
<path d="M536 821 c-4 -6 -2 -19 4 -30 5 -11 10 -60 10 -109 l0 -89 -37 -7
c-21 -3 -50 -6 -65 -6 -29 0 -37 -13 -17 -26 6 -4 36 -6 65 -6 l54 0 0 -58 c0
-66 3 -64 -110 -76 -85 -9 -101 -17 -61 -34 23 -9 47 -10 95 -3 l65 9 -27 -50
c-15 -27 -52 -76 -83 -109 l-56 -58 20 -25 c12 -15 26 -24 36 -21 9 3 74 21
144 40 l128 35 19 -37 c10 -21 26 -43 34 -50 13 -11 17 -9 25 12 11 29 1 75
-24 113 -17 27 -92 80 -101 71 -3 -3 4 -24 16 -47 12 -23 20 -43 18 -45 -5 -5
-223 -33 -227 -29 -4 4 20 36 83 109 42 48 48 59 38 75 -15 24 0 27 156 36 94
5 122 10 122 21 0 29 -56 41 -133 27 -40 -7 -84 -13 -99 -13 -27 -1 -28 0 -28
57 l0 58 66 11 c73 13 99 28 74 43 -19 12 -56 12 -99 0 l-34 -9 5 99 c3 66 1
103 -6 109 -19 16 -63 23 -70 12z"/>
<path d="M220 650 c-25 -10 -71 -22 -103 -26 -67 -8 -77 -17 -42 -40 24 -16
29 -15 99 10 83 29 86 30 86 17 0 -21 -147 -230 -203 -288 -33 -35 -57 -63
-53 -63 21 0 79 41 139 98 l67 65 0 -83 c0 -45 -5 -111 -12 -145 -9 -50 -8
-70 2 -94 31 -75 50 -16 50 153 0 73 3 136 7 139 4 4 19 -4 34 -19 27 -26 27
-26 38 -6 14 26 -5 47 -49 57 -50 11 -53 32 -10 94 21 31 47 65 59 75 27 24
27 41 -1 60 -28 20 -51 19 -108 -4z"/>
</g>
</svg>
