<?xml version="1.0" standalone="no"?>
<!DOCTYPE svg PUBLIC "-//W3C//DTD SVG 20010904//EN"
 "http://www.w3.org/TR/2001/REC-SVG-20010904/DTD/svg10.dtd">
<svg version="1.0" xmlns="http://www.w3.org/2000/svg"
 width="96.000000pt" height="68.000000pt" viewBox="0 0 96.000000 68.000000"
 preserveAspectRatio="xMidYMid meet">
<metadata>
Created by potrace 1.16, written by Peter Selinger 2001-2019
</metadata>
<g transform="translate(0.000000,68.000000) scale(0.100000,-0.100000)"
fill="#000000" stroke="none">
<path d="M484 393 c1 -36 -1 -38 -31 -41 -47 -5 -41 -22 7 -22 l40 0 0 -45 c0
-38 3 -45 20 -45 17 0 20 7 20 49 0 46 1 49 31 55 55 11 62 8 55 -19 -4 -14
-5 -25 -3 -25 17 0 97 34 97 41 0 22 -71 40 -127 33 -54 -6 -55 -6 -48 16 8
25 -7 40 -41 40 -18 0 -21 -6 -20 -37z"/>
</g>
</svg>
