<?xml version="1.0" standalone="no"?>
<!DOCTYPE svg PUBLIC "-//W3C//DTD SVG 20010904//EN"
 "http://www.w3.org/TR/2001/REC-SVG-20010904/DTD/svg10.dtd">
<svg version="1.0" xmlns="http://www.w3.org/2000/svg"
 width="96.000000pt" height="68.000000pt" viewBox="0 0 96.000000 68.000000"
 preserveAspectRatio="xMidYMid meet">
<metadata>
Created by potrace 1.16, written by Peter Selinger 2001-2019
</metadata>
<g transform="translate(0.000000,68.000000) scale(0.100000,-0.100000)"
fill="#000000" stroke="none">
<path d="M448 375 c4 -52 3 -55 -19 -55 -13 0 -31 -5 -39 -10 -11 -7 -5 -10
24 -10 l39 0 -6 -113 c-5 -117 1 -153 24 -130 8 8 12 49 12 120 0 60 2 113 4
119 2 7 19 15 36 19 l32 7 -33 11 c-29 9 -33 14 -31 41 4 38 -6 56 -30 56 -15
0 -17 -7 -13 -55z"/>
</g>
</svg>
