<?xml version="1.0" standalone="no"?>
<!DOCTYPE svg PUBLIC "-//W3C//DTD SVG 20010904//EN"
 "http://www.w3.org/TR/2001/REC-SVG-20010904/DTD/svg10.dtd">
<svg version="1.0" xmlns="http://www.w3.org/2000/svg"
 width="96.000000pt" height="68.000000pt" viewBox="0 0 96.000000 68.000000"
 preserveAspectRatio="xMidYMid meet">
<metadata>
Created by potrace 1.16, written by Peter Selinger 2001-2019
</metadata>
<g transform="translate(0.000000,68.000000) scale(0.100000,-0.100000)"
fill="#000000" stroke="none">
<path d="M766 163 c15 -24 31 -43 36 -43 5 0 7 -4 4 -9 -3 -5 1 -14 9 -21 12
-10 15 -10 15 1 0 11 2 11 10 -1 7 -12 9 -10 7 7 0 12 -5 19 -11 16 -5 -4 -7
1 -3 10 4 11 -4 23 -23 37 -18 13 -30 17 -30 10 0 -7 -9 -2 -21 11 -12 15 -10
8 7 -18z"/>
</g>
</svg>
