<?xml version="1.0" standalone="no"?>
<!DOCTYPE svg PUBLIC "-//W3C//DTD SVG 20010904//EN"
 "http://www.w3.org/TR/2001/REC-SVG-20010904/DTD/svg10.dtd">
<svg version="1.0" xmlns="http://www.w3.org/2000/svg"
 width="96.000000pt" height="68.000000pt" viewBox="0 0 96.000000 68.000000"
 preserveAspectRatio="xMidYMid meet">
<metadata>
Created by potrace 1.16, written by Peter Selinger 2001-2019
</metadata>
<g transform="translate(0.000000,68.000000) scale(0.100000,-0.100000)"
fill="#000000" stroke="none">
<path d="M530 560 c0 -22 -4 -41 -10 -41 -5 -1 -14 -3 -20 -4 -5 -1 -19 -3
-31 -4 -31 -2 -12 -21 22 -21 33 0 33 1 18 -36 -10 -28 -10 -28 10 -10 11 10
23 26 26 36 4 13 21 19 72 23 36 4 68 9 71 12 12 12 -13 20 -59 18 -48 -2 -49
-2 -43 23 7 28 -7 44 -38 44 -14 0 -18 -9 -18 -40z"/>
<path d="M284 558 c4 -13 10 -31 13 -40 4 -15 -4 -17 -58 -20 -61 -3 -62 -4
-44 -21 11 -12 25 -16 39 -12 68 20 83 18 90 -9 9 -36 24 -33 28 6 2 24 9 34
23 36 36 7 38 20 4 19 -29 -2 -35 2 -38 23 -3 28 -17 40 -45 40 -14 0 -17 -5
-12 -22z"/>
</g>
</svg>
