<?xml version="1.0" standalone="no"?>
<!DOCTYPE svg PUBLIC "-//W3C//DTD SVG 20010904//EN"
 "http://www.w3.org/TR/2001/REC-SVG-20010904/DTD/svg10.dtd">
<svg version="1.0" xmlns="http://www.w3.org/2000/svg"
 width="96.000000pt" height="68.000000pt" viewBox="0 0 96.000000 68.000000"
 preserveAspectRatio="xMidYMid meet">
<metadata>
Created by potrace 1.16, written by Peter Selinger 2001-2019
</metadata>
<g transform="translate(0.000000,68.000000) scale(0.100000,-0.100000)"
fill="#000000" stroke="none">
<path d="M615 560 c-16 -10 -51 -25 -77 -32 -57 -14 -63 -28 -11 -25 32 2 38
-1 41 -20 3 -19 -3 -22 -55 -28 -112 -12 -135 -25 -35 -20 l92 5 0 -24 c0 -22
-6 -26 -45 -32 -25 -3 -56 -3 -70 0 -24 6 -35 -7 -16 -19 5 -3 17 -28 26 -55
l17 -50 45 0 c37 0 44 -3 41 -18 -2 -12 -14 -18 -41 -20 -46 -4 -39 -22 9 -22
22 0 34 -5 34 -14 0 -10 -20 -16 -71 -21 -49 -5 -68 -10 -60 -18 7 -7 35 -7
93 1 46 7 130 12 188 12 97 1 103 2 85 16 -16 12 -37 14 -107 9 -74 -6 -88 -5
-88 8 0 16 29 27 73 27 15 0 27 5 27 11 0 8 -17 10 -50 7 -45 -5 -50 -3 -50
15 0 18 5 19 60 15 l60 -4 27 53 c16 29 31 53 36 53 18 0 4 19 -22 30 -20 8
-51 9 -95 5 -66 -7 -66 -7 -66 18 0 25 0 25 104 29 100 3 128 9 112 26 -9 8
-150 5 -178 -4 -13 -4 -18 0 -18 15 0 12 -5 21 -11 21 -5 0 -7 5 -4 10 3 6 12
10 20 10 8 0 26 5 42 11 l28 11 -25 13 c-32 18 -30 18 -65 -5z m110 -180 c4
-6 1 -26 -5 -45 -9 -28 -17 -35 -38 -35 -15 0 -37 -3 -49 -6 -21 -6 -23 -3
-23 39 l0 46 43 4 c23 2 47 4 54 5 6 1 15 -3 18 -8z m-155 -55 c0 -45 0 -45
-34 -45 -40 0 -42 2 -51 53 l-7 37 46 0 46 0 0 -45z"/>
<path d="M645 339 c-4 -11 -5 -22 -3 -25 8 -7 48 27 43 37 -11 16 -33 10 -40
-12z"/>
<path d="M510 330 c0 -13 28 -25 38 -16 3 4 0 11 -8 16 -20 13 -30 12 -30 0z"/>
<path d="M322 533 c-8 -3 -53 -10 -100 -17 -90 -11 -110 -27 -45 -36 37 -5 38
-6 38 -45 l0 -40 -45 -3 -45 -3 1 -137 c0 -75 1 -143 2 -149 2 -14 32 -18 32
-4 0 4 37 11 83 14 73 5 84 3 103 -14 l22 -20 16 22 c13 19 16 51 16 161 0
137 0 139 -24 148 -13 5 -34 6 -47 3 -19 -5 -21 -3 -16 18 4 13 7 32 7 42 0 9
6 17 14 17 8 0 27 5 43 11 27 10 27 11 9 25 -20 14 -40 17 -64 7z m-42 -93 c0
-32 -4 -40 -18 -40 -14 0 -17 7 -14 40 3 26 9 40 18 40 10 0 14 -12 14 -40z
m0 -106 c0 -55 8 -64 56 -64 24 0 25 -2 22 -62 l-3 -63 -35 -1 c-19 0 -64 -4
-99 -8 l-64 -8 6 68 c4 38 7 93 7 122 0 48 2 52 24 52 22 0 23 -3 17 -33 -5
-18 -13 -42 -20 -55 -8 -14 -8 -22 -1 -22 16 0 50 62 50 91 0 30 4 36 25 36
11 0 15 -13 15 -53z m78 4 c3 -46 2 -48 -22 -48 -24 0 -26 3 -26 51 0 47 2 50
23 47 19 -3 22 -10 25 -50z"/>
<path d="M235 205 c-37 -9 -44 -13 -25 -15 30 -4 57 -2 89 6 20 4 22 7 10 15
-7 5 -16 8 -19 8 -3 -1 -27 -7 -55 -14z"/>
<path d="M716 118 c38 -66 94 -110 94 -74 0 30 -14 47 -51 66 -45 23 -53 25
-43 8z"/>
<path d="M423 83 c-26 -35 -30 -63 -10 -63 19 0 39 42 35 71 -3 24 -3 24 -25
-8z"/>
<path d="M525 83 c8 -35 20 -47 35 -38 12 8 3 46 -14 57 -21 14 -28 8 -21 -19z"/>
<path d="M625 80 c15 -30 38 -39 50 -20 7 12 -30 50 -50 50 -14 0 -14 -3 0
-30z"/>
</g>
</svg>
