<?xml version="1.0" standalone="no"?>
<!DOCTYPE svg PUBLIC "-//W3C//DTD SVG 20010904//EN"
 "http://www.w3.org/TR/2001/REC-SVG-20010904/DTD/svg10.dtd">
<svg version="1.0" xmlns="http://www.w3.org/2000/svg"
 width="96.000000pt" height="68.000000pt" viewBox="0 0 96.000000 68.000000"
 preserveAspectRatio="xMidYMid meet">
<metadata>
Created by potrace 1.16, written by Peter Selinger 2001-2019
</metadata>
<g transform="translate(0.000000,68.000000) scale(0.100000,-0.100000)"
fill="#000000" stroke="none">
<path d="M610 377 c0 -61 -6 -66 -68 -68 -20 -1 -48 -4 -62 -8 l-25 -7 23 -8
c12 -4 47 -4 77 -1 l55 7 1 -93 c1 -52 4 -119 8 -149 7 -52 8 -54 19 -28 6 14
14 83 18 152 l7 126 66 1 c62 2 74 3 111 8 9 2 3 8 -14 15 -19 9 -53 11 -98 8
l-69 -5 3 49 c3 47 2 49 -24 52 -28 3 -28 2 -28 -51z"/>
</g>
</svg>
