<?xml version="1.0" standalone="no"?>
<!DOCTYPE svg PUBLIC "-//W3C//DTD SVG 20010904//EN"
 "http://www.w3.org/TR/2001/REC-SVG-20010904/DTD/svg10.dtd">
<svg version="1.0" xmlns="http://www.w3.org/2000/svg"
 width="90.000000pt" height="92.000000pt" viewBox="0 0 90.000000 92.000000"
 preserveAspectRatio="xMidYMid meet">
<metadata>
Created by potrace 1.16, written by Peter Selinger 2001-2019
</metadata>
<g transform="translate(0.000000,92.000000) scale(0.100000,-0.100000)"
fill="#000000" stroke="none">
<path d="M595 814 c-22 -9 -63 -14 -92 -12 -29 2 -53 1 -54 -2 0 -3 4 -17 9
-31 6 -14 15 -67 21 -119 11 -88 27 -132 40 -112 3 5 29 12 57 16 41 5 53 3
58 -9 7 -20 32 -19 41 3 6 16 49 167 62 219 4 17 -2 26 -28 42 -40 24 -59 25
-114 5z m65 -56 c0 -52 -11 -67 -39 -62 -15 3 -44 1 -64 -4 l-37 -10 0 43 c0
48 4 50 98 54 37 1 42 -1 42 -21z m-16 -125 c-4 -21 -8 -40 -10 -41 -1 -2 -25
-5 -53 -7 -35 -3 -51 0 -51 8 0 7 -3 22 -6 34 -5 19 0 22 48 31 83 15 80 16
72 -25z"/>
<path d="M165 778 c4 -13 10 -58 14 -101 l6 -77 -40 -1 c-22 -1 -53 0 -68 1
-26 2 -28 0 -17 -20 6 -11 17 -53 23 -93 13 -76 14 -77 72 -63 25 6 25 6 25
-53 l0 -60 -42 -11 c-23 -7 -54 -9 -69 -6 -39 7 -43 -4 -12 -36 26 -28 57 -36
67 -19 3 5 47 25 98 46 l91 36 22 -27 c28 -35 47 -24 44 26 -3 35 1 41 44 74
44 34 97 48 97 27 0 -40 -69 -127 -145 -184 l-40 -30 34 7 c18 3 54 21 80 39
53 38 123 133 117 160 -2 9 1 17 7 17 7 0 22 3 35 6 31 9 29 -22 -7 -94 -32
-62 -162 -196 -221 -228 -60 -31 -7 -30 58 2 74 36 157 120 210 212 45 79 49
91 30 110 -9 9 -4 12 25 12 25 0 40 -5 44 -16 9 -25 -27 -181 -56 -238 -26
-52 -32 -55 -84 -41 l-29 8 37 -57 c21 -31 41 -56 45 -56 4 0 24 18 43 40 28
30 43 63 67 142 17 57 40 127 52 156 20 52 20 53 2 73 -34 37 -50 40 -131 25
-43 -8 -105 -17 -138 -20 -52 -5 -58 -4 -42 8 24 19 21 35 -9 47 -15 5 -28 8
-29 7 -1 -2 -7 -17 -14 -34 -7 -17 -31 -53 -55 -79 l-42 -49 -38 23 c-43 27
-54 23 -31 -12 15 -24 15 -25 -16 -36 -48 -17 -50 -15 -47 42 l3 52 53 3 c48
3 52 5 47 23 -4 12 4 37 24 69 17 28 31 54 31 58 0 16 -60 42 -85 37 -14 -3
-37 -7 -51 -10 -25 -6 -26 -5 -20 32 19 131 20 128 -9 141 -14 7 -35 12 -47
12 -17 0 -19 -4 -13 -22z m141 -215 c-2 -10 -7 -33 -11 -50 -4 -18 -10 -33
-13 -33 -4 0 -17 -3 -29 -6 -22 -6 -23 -4 -23 50 l0 56 41 0 c34 0 40 -3 35
-17z m-121 -48 l0 -55 -32 0 -33 0 0 55 0 55 33 0 32 0 0 -55z"/>
</g>
</svg>
