<?xml version="1.0" standalone="no"?>
<!DOCTYPE svg PUBLIC "-//W3C//DTD SVG 20010904//EN"
 "http://www.w3.org/TR/2001/REC-SVG-20010904/DTD/svg10.dtd">
<svg version="1.0" xmlns="http://www.w3.org/2000/svg"
 width="96.000000pt" height="68.000000pt" viewBox="0 0 96.000000 68.000000"
 preserveAspectRatio="xMidYMid meet">
<metadata>
Created by potrace 1.16, written by Peter Selinger 2001-2019
</metadata>
<g transform="translate(0.000000,68.000000) scale(0.100000,-0.100000)"
fill="#000000" stroke="none">
<path d="M563 311 c0 -9 5 -22 11 -30 8 -11 8 -13 -1 -7 -10 5 -12 -2 -9 -26
2 -18 4 -39 5 -45 2 -24 19 -13 30 19 8 23 8 34 0 38 -14 10 -14 21 3 31 10 7
10 9 0 9 -7 0 -11 4 -8 9 3 5 -2 11 -12 13 -12 4 -19 0 -19 -11z"/>
<path d="M620 251 c0 -4 11 -6 25 -3 14 2 25 6 25 8 0 2 -11 4 -25 4 -14 0
-25 -4 -25 -9z"/>
<path d="M510 240 c-12 -8 -12 -10 5 -10 11 0 27 5 35 10 12 8 12 10 -5 10
-11 0 -27 -5 -35 -10z"/>
<path d="M690 185 c-24 -13 -22 -13 33 -14 53 0 57 2 40 14 -23 18 -41 18 -73
0z"/>
<path d="M534 169 c-4 -8 1 -9 16 -4 15 5 20 4 16 -4 -4 -7 1 -11 13 -11 12 0
21 4 21 9 0 5 10 12 23 14 12 2 -1 5 -30 6 -29 0 -55 -4 -59 -10z"/>
<path d="M444 161 c3 -5 3 -11 -1 -14 -5 -2 -2 -2 5 0 8 1 23 3 34 3 27 0 21
5 -15 14 -17 4 -26 3 -23 -3z"/>
<path d="M566 134 c8 -3 9 -19 3 -47 -4 -23 -5 -44 -3 -46 2 -2 4 2 4 10 0 11
2 11 10 -1 7 -11 10 -6 10 22 0 20 3 43 6 52 5 12 0 16 -17 15 -13 0 -19 -3
-13 -5z"/>
</g>
</svg>
