<?xml version="1.0" standalone="no"?>
<!DOCTYPE svg PUBLIC "-//W3C//DTD SVG 20010904//EN"
 "http://www.w3.org/TR/2001/REC-SVG-20010904/DTD/svg10.dtd">
<svg version="1.0" xmlns="http://www.w3.org/2000/svg"
 width="96.000000pt" height="68.000000pt" viewBox="0 0 96.000000 68.000000"
 preserveAspectRatio="xMidYMid meet">
<metadata>
Created by potrace 1.16, written by Peter Selinger 2001-2019
</metadata>
<g transform="translate(0.000000,68.000000) scale(0.100000,-0.100000)"
fill="#000000" stroke="none">
<path d="M530 603 c0 -3 9 -16 20 -30 27 -34 25 -43 -7 -43 -50 0 -103 -12
-97 -22 8 -12 168 -1 262 18 13 3 20 9 16 16 -4 7 -26 8 -60 4 -42 -5 -54 -3
-54 7 0 8 -8 21 -17 29 -18 15 -63 30 -63 21z"/>
</g>
</svg>
