<?xml version="1.0" standalone="no"?>
<!DOCTYPE svg PUBLIC "-//W3C//DTD SVG 20010904//EN"
 "http://www.w3.org/TR/2001/REC-SVG-20010904/DTD/svg10.dtd">
<svg version="1.0" xmlns="http://www.w3.org/2000/svg"
 width="96.000000pt" height="68.000000pt" viewBox="0 0 96.000000 68.000000"
 preserveAspectRatio="xMidYMid meet">
<metadata>
Created by potrace 1.16, written by Peter Selinger 2001-2019
</metadata>
<g transform="translate(0.000000,68.000000) scale(0.100000,-0.100000)"
fill="#000000" stroke="none">
<path d="M595 499 c-22 -4 -58 -8 -80 -8 l-40 -1 3 -97 c2 -54 6 -100 8 -102
2 -2 14 1 27 7 32 16 157 26 157 13 0 -6 11 -11 24 -11 23 0 24 3 28 93 6 121
-7 131 -127 106z m75 -48 c0 -28 -3 -29 -63 -40 -88 -15 -87 -15 -87 23 0 39
7 42 98 45 51 1 52 0 52 -28z m-2 -106 c-2 -1 -36 -6 -75 -9 -72 -7 -73 -7
-73 17 0 23 5 25 73 33 71 9 72 9 75 -14 2 -13 2 -25 0 -27z"/>
</g>
</svg>
