<?xml version="1.0" standalone="no"?>
<!DOCTYPE svg PUBLIC "-//W3C//DTD SVG 20010904//EN"
 "http://www.w3.org/TR/2001/REC-SVG-20010904/DTD/svg10.dtd">
<svg version="1.0" xmlns="http://www.w3.org/2000/svg"
 width="96.000000pt" height="68.000000pt" viewBox="0 0 96.000000 68.000000"
 preserveAspectRatio="xMidYMid meet">
<metadata>
Created by potrace 1.16, written by Peter Selinger 2001-2019
</metadata>
<g transform="translate(0.000000,68.000000) scale(0.100000,-0.100000)"
fill="#000000" stroke="none">
<path d="M466 583 c-3 -4 5 -21 19 -39 14 -18 22 -35 18 -37 -5 -3 -44 -8 -88
-11 -44 -4 -89 -10 -100 -13 -19 -6 -19 -6 3 -14 26 -10 29 -47 11 -145 -11
-65 -55 -191 -70 -199 -5 -4 -14 -16 -20 -27 -11 -20 -10 -20 19 3 45 37 78
93 97 167 9 37 19 73 21 80 2 7 20 12 44 12 39 0 40 -1 40 -34 0 -19 5 -36 11
-38 6 -2 39 3 74 12 62 15 63 16 69 53 l6 37 65 0 c36 0 65 4 65 10 0 14 -43
23 -85 18 -30 -3 -34 -1 -37 22 -2 17 -10 26 -25 28 -20 3 -23 -1 -23 -31 0
-20 -5 -34 -12 -34 -7 0 -29 -3 -49 -7 -33 -6 -37 -4 -43 19 -4 16 -13 25 -27
25 -16 0 -18 -3 -9 -19 17 -33 12 -42 -22 -39 -32 3 -33 4 -30 43 2 22 5 42 7
43 2 2 73 9 159 16 85 6 158 15 162 18 12 13 -47 20 -107 14 -54 -6 -59 -5
-59 12 0 11 -6 24 -13 30 -19 16 -64 32 -71 25z m114 -222 c0 -24 -17 -37 -57
-44 -31 -6 -33 -5 -33 22 0 32 10 39 58 40 25 1 32 -3 32 -18z"/>
<path d="M166 532 c-3 -5 13 -26 35 -48 32 -32 43 -37 57 -28 9 6 17 17 17 24
0 27 -96 73 -109 52z"/>
<path d="M90 392 c0 -17 67 -72 88 -72 17 0 22 6 22 26 0 19 -8 28 -35 40 -38
15 -75 19 -75 6z"/>
<path d="M220 249 c-19 -28 -52 -66 -74 -84 -32 -26 -38 -37 -33 -56 10 -36
23 -52 39 -47 15 6 118 201 118 224 0 25 -15 15 -50 -37z"/>
<path d="M558 255 c-3 -3 -41 -9 -84 -13 l-79 -8 35 -21 c52 -33 79 -59 72
-69 -13 -19 -60 -43 -123 -63 l-64 -22 56 5 c32 2 81 16 113 31 l57 27 57 -44
c50 -38 63 -43 107 -43 63 1 125 13 125 25 0 6 -12 10 -27 10 -59 0 -223 55
-223 75 0 7 12 23 28 36 48 42 58 59 41 70 -15 9 -82 12 -91 4z m32 -25 c0
-11 -49 -60 -59 -60 -12 1 -54 41 -48 46 17 17 107 28 107 14z"/>
</g>
</svg>
