<?xml version="1.0" standalone="no"?>
<!DOCTYPE svg PUBLIC "-//W3C//DTD SVG 20010904//EN"
 "http://www.w3.org/TR/2001/REC-SVG-20010904/DTD/svg10.dtd">
<svg version="1.0" xmlns="http://www.w3.org/2000/svg"
 width="90.000000pt" height="92.000000pt" viewBox="0 0 90.000000 92.000000"
 preserveAspectRatio="xMidYMid meet">
<metadata>
Created by potrace 1.16, written by Peter Selinger 2001-2019
</metadata>
<g transform="translate(0.000000,92.000000) scale(0.100000,-0.100000)"
fill="#000000" stroke="none">
<path d="M245 783 c-14 -77 -102 -219 -199 -320 -50 -54 -34 -56 31 -4 65 51
133 130 175 202 18 32 36 59 40 59 4 0 43 -27 86 -60 44 -33 84 -60 90 -60 13
0 23 27 16 45 -5 13 -111 69 -168 89 -15 5 -17 9 -8 18 17 17 15 24 -10 48
-32 29 -45 25 -53 -17z"/>
<path d="M617 793 c-4 -3 -7 -20 -7 -38 0 -40 -51 -193 -85 -252 -33 -59 -32
-63 8 -25 27 26 39 31 77 29 51 -2 51 -1 38 -119 -11 -103 -18 -109 -61 -49
-23 32 -44 51 -57 51 -26 0 -25 -6 8 -39 15 -15 37 -46 50 -68 l22 -41 -45
-50 c-26 -28 -62 -57 -81 -64 -33 -12 -46 -28 -21 -28 36 0 90 25 130 60 l45
40 17 -28 c10 -15 29 -39 43 -55 24 -25 32 -27 98 -27 40 0 75 4 78 9 3 5 -32
28 -77 50 -46 23 -96 54 -111 70 -26 27 -27 32 -16 65 6 20 15 62 20 93 5 32
12 72 15 89 5 22 2 35 -9 47 -15 15 -13 17 32 23 56 7 77 17 68 32 -14 24 -63
22 -130 -3 -38 -14 -71 -24 -73 -21 -2 2 6 26 20 53 13 26 34 75 47 107 l24
59 -23 18 c-25 20 -34 23 -44 12z"/>
<path d="M283 568 c-40 -12 -73 -25 -73 -29 0 -13 86 -10 140 4 28 8 45 18 45
27 0 21 -30 21 -112 -2z"/>
<path d="M390 493 c-19 -8 -47 -12 -63 -9 -26 5 -28 4 -21 -17 4 -12 13 -47
19 -77 8 -41 15 -55 28 -54 28 3 20 -29 -32 -131 -27 -52 -45 -95 -41 -95 9 0
68 64 92 100 l16 25 38 -44 c33 -39 39 -42 50 -27 19 26 6 52 -37 71 -43 20
-46 26 -24 45 20 17 19 40 -2 56 -16 12 -14 13 21 14 33 0 37 2 26 15 -10 12
-9 25 4 66 10 29 14 55 9 59 -17 16 -49 18 -83 3z m30 -67 c0 -39 -3 -45 -25
-50 -36 -9 -45 0 -45 44 0 39 7 46 53 49 14 1 17 -7 17 -43z"/>
<path d="M195 465 c-16 -8 -48 -14 -70 -15 -22 0 -35 -4 -28 -8 15 -10 33 -57
33 -87 0 -13 7 -30 15 -39 8 -8 15 -20 15 -26 0 -18 -51 -113 -82 -152 -45
-58 -11 -46 48 16 l51 54 35 -35 c38 -38 58 -37 58 1 0 28 -15 42 -53 51 -33
9 -33 12 -5 42 21 22 21 23 3 43 -18 20 -18 20 15 20 26 0 31 3 26 17 -4 9 1
38 10 65 9 27 14 51 12 53 -11 12 -57 12 -83 0z m25 -60 c0 -28 -5 -38 -25
-47 -30 -14 -31 -13 -40 34 -6 30 -4 37 12 41 46 12 53 8 53 -28z"/>
</g>
</svg>
