<?xml version="1.0" standalone="no"?>
<!DOCTYPE svg PUBLIC "-//W3C//DTD SVG 20010904//EN"
 "http://www.w3.org/TR/2001/REC-SVG-20010904/DTD/svg10.dtd">
<svg version="1.0" xmlns="http://www.w3.org/2000/svg"
 width="96.000000pt" height="68.000000pt" viewBox="0 0 96.000000 68.000000"
 preserveAspectRatio="xMidYMid meet">
<metadata>
Created by potrace 1.16, written by Peter Selinger 2001-2019
</metadata>
<g transform="translate(0.000000,68.000000) scale(0.100000,-0.100000)"
fill="#000000" stroke="none">
<path d="M292 532 c-17 -55 -63 -120 -131 -185 -33 -31 -54 -57 -46 -57 28 0
158 119 207 189 l17 24 71 -47 c68 -45 90 -50 90 -21 0 17 -24 31 -94 55 -38
13 -50 22 -48 35 3 17 -23 44 -44 45 -6 0 -16 -17 -22 -38z"/>
</g>
</svg>
