<?xml version="1.0" standalone="no"?>
<!DOCTYPE svg PUBLIC "-//W3C//DTD SVG 20010904//EN"
 "http://www.w3.org/TR/2001/REC-SVG-20010904/DTD/svg10.dtd">
<svg version="1.0" xmlns="http://www.w3.org/2000/svg"
 width="96.000000pt" height="68.000000pt" viewBox="0 0 96.000000 68.000000"
 preserveAspectRatio="xMidYMid meet">
<metadata>
Created by potrace 1.16, written by Peter Selinger 2001-2019
</metadata>
<g transform="translate(0.000000,68.000000) scale(0.100000,-0.100000)"
fill="#000000" stroke="none">
<path d="M611 507 c-6 -24 -28 -78 -49 -120 -28 -56 -33 -73 -20 -66 10 5 18
13 18 17 0 4 44 14 97 21 105 14 116 17 108 32 -9 14 -65 11 -112 -7 -24 -9
-46 -14 -49 -11 -3 3 11 37 31 77 38 75 39 100 7 100 -15 0 -22 -11 -31 -43z"/>
</g>
</svg>
