<?xml version="1.0" standalone="no"?>
<!DOCTYPE svg PUBLIC "-//W3C//DTD SVG 20010904//EN"
 "http://www.w3.org/TR/2001/REC-SVG-20010904/DTD/svg10.dtd">
<svg version="1.0" xmlns="http://www.w3.org/2000/svg"
 width="96.000000pt" height="68.000000pt" viewBox="0 0 96.000000 68.000000"
 preserveAspectRatio="xMidYMid meet">
<metadata>
Created by potrace 1.16, written by Peter Selinger 2001-2019
</metadata>
<g transform="translate(0.000000,68.000000) scale(0.100000,-0.100000)"
fill="#000000" stroke="none">
<path d="M569 583 c-1 -5 0 -12 1 -18 2 -10 30 -169 30 -171 0 -1 -48 -7 -107
-14 -129 -15 -173 -34 -63 -26 41 3 99 8 128 12 39 5 52 3 52 -7 0 -7 10 -48
21 -92 35 -128 120 -237 187 -237 25 0 26 5 8 80 l-13 55 -7 -37 c-10 -52 -25
-57 -58 -18 -47 57 -98 184 -98 248 0 20 5 22 54 22 30 0 58 4 61 10 9 14 -40
23 -85 16 -39 -6 -40 -6 -42 26 -1 18 -1 56 1 84 2 50 1 52 -30 63 -38 13 -39
13 -40 4z"/>
</g>
</svg>
