<?xml version="1.0" standalone="no"?>
<!DOCTYPE svg PUBLIC "-//W3C//DTD SVG 20010904//EN"
 "http://www.w3.org/TR/2001/REC-SVG-20010904/DTD/svg10.dtd">
<svg version="1.0" xmlns="http://www.w3.org/2000/svg"
 width="96.000000pt" height="68.000000pt" viewBox="0 0 96.000000 68.000000"
 preserveAspectRatio="xMidYMid meet">
<metadata>
Created by potrace 1.16, written by Peter Selinger 2001-2019
</metadata>
<g transform="translate(0.000000,68.000000) scale(0.100000,-0.100000)"
fill="#000000" stroke="none">
<path d="M665 543 c-9 -21 -23 -45 -32 -55 -12 -13 -13 -18 -3 -18 15 0 110
71 110 82 0 7 -42 28 -56 28 -2 0 -11 -17 -19 -37z"/>
<path d="M470 536 c0 -12 63 -76 75 -76 7 0 15 7 19 15 6 17 -27 55 -48 55 -8
0 -21 3 -30 6 -9 3 -16 4 -16 0z"/>
<path d="M582 440 c-62 -9 -115 -20 -119 -23 -16 -17 221 0 277 19 13 4 13 6
0 14 -18 11 -15 12 -158 -10z"/>
</g>
</svg>
