<?xml version="1.0" standalone="no"?>
<!DOCTYPE svg PUBLIC "-//W3C//DTD SVG 20010904//EN"
 "http://www.w3.org/TR/2001/REC-SVG-20010904/DTD/svg10.dtd">
<svg version="1.0" xmlns="http://www.w3.org/2000/svg"
 width="96.000000pt" height="68.000000pt" viewBox="0 0 96.000000 68.000000"
 preserveAspectRatio="xMidYMid meet">
<metadata>
Created by potrace 1.16, written by Peter Selinger 2001-2019
</metadata>
<g transform="translate(0.000000,68.000000) scale(0.100000,-0.100000)"
fill="#000000" stroke="none">
<path d="M356 220 c22 -36 43 -45 51 -23 7 18 -29 53 -54 53 -12 0 -11 -5 3
-30z"/>
<path d="M249 203 c23 -40 41 -55 56 -50 20 8 19 23 -5 47 -26 26 -65 28 -51
3z"/>
<path d="M147 173 c12 -33 44 -73 59 -73 21 0 17 33 -7 64 -24 30 -62 37 -52
9z"/>
</g>
</svg>
