<?xml version="1.0" standalone="no"?>
<!DOCTYPE svg PUBLIC "-//W3C//DTD SVG 20010904//EN"
 "http://www.w3.org/TR/2001/REC-SVG-20010904/DTD/svg10.dtd">
<svg version="1.0" xmlns="http://www.w3.org/2000/svg"
 width="96.000000pt" height="68.000000pt" viewBox="0 0 96.000000 68.000000"
 preserveAspectRatio="xMidYMid meet">
<metadata>
Created by potrace 1.16, written by Peter Selinger 2001-2019
</metadata>
<g transform="translate(0.000000,68.000000) scale(0.100000,-0.100000)"
fill="#000000" stroke="none">
<path d="M645 565 c-44 -7 -110 -15 -147 -19 -84 -9 -89 -26 -9 -26 60 0 60 0
55 -27 -7 -40 -52 -101 -101 -137 -23 -17 -42 -34 -43 -39 0 -17 84 37 124 80
50 52 93 123 76 123 -6 0 -8 5 -5 10 3 6 34 10 67 10 l61 0 -6 -56 c-8 -76
-29 -107 -68 -99 -35 8 -36 4 -5 -29 47 -52 88 -23 117 83 10 36 21 75 24 87
13 43 -32 56 -140 39z"/>
<path d="M265 534 c-27 -7 -68 -11 -89 -7 -38 6 -39 5 -32 -18 15 -51 18 -138
7 -227 -10 -94 -4 -142 20 -142 7 0 17 6 23 14 6 7 30 16 54 19 39 5 44 3 54
-19 13 -28 29 -31 51 -6 13 14 16 48 18 189 2 213 -3 223 -106 197z m45 -73
c0 -22 2 -45 5 -53 8 -23 -8 -35 -57 -41 l-48 -7 0 64 c0 34 3 66 7 69 3 4 26
7 50 7 l43 0 0 -39z m8 -155 c2 -16 1 -44 -2 -62 -6 -31 -8 -32 -61 -36 l-55
-3 0 40 c0 81 14 95 90 91 20 -1 26 -7 28 -30z"/>
<path d="M650 284 c-47 -7 -115 -13 -153 -13 l-67 -1 17 -27 c10 -15 23 -50
28 -77 8 -42 14 -51 30 -49 11 1 72 5 135 9 l115 7 1 33 c0 19 11 48 23 65 13
17 19 34 15 38 -28 23 -63 27 -144 15z m70 -34 c0 -6 -6 -28 -12 -50 l-13 -39
-65 -6 c-36 -4 -72 -8 -80 -11 -8 -2 -20 0 -26 4 -16 10 -38 82 -28 92 17 17
224 26 224 10z"/>
</g>
</svg>
