<?xml version="1.0" standalone="no"?>
<!DOCTYPE svg PUBLIC "-//W3C//DTD SVG 20010904//EN"
 "http://www.w3.org/TR/2001/REC-SVG-20010904/DTD/svg10.dtd">
<svg version="1.0" xmlns="http://www.w3.org/2000/svg"
 width="96.000000pt" height="68.000000pt" viewBox="0 0 96.000000 68.000000"
 preserveAspectRatio="xMidYMid meet">
<metadata>
Created by potrace 1.16, written by Peter Selinger 2001-2019
</metadata>
<g transform="translate(0.000000,68.000000) scale(0.100000,-0.100000)"
fill="#000000" stroke="none">
<path d="M705 549 c-4 -17 -16 -47 -27 -66 -11 -18 -19 -35 -17 -37 24 -20
111 -76 119 -76 5 0 10 9 10 19 0 14 -15 26 -50 42 -27 12 -50 26 -50 31 0 5
15 25 33 44 37 42 41 68 10 72 -17 3 -23 -3 -28 -29z"/>
<path d="M565 531 c-3 -22 -13 -47 -20 -58 -20 -26 -20 -27 27 -72 32 -30 46
-37 55 -29 21 17 15 26 -27 48 -22 11 -40 25 -40 31 0 6 14 28 31 49 33 41 33
70 0 70 -15 0 -21 -9 -26 -39z"/>
<path d="M248 461 c2 -54 -1 -164 -7 -245 -12 -150 -8 -186 24 -186 20 0 24
23 33 203 l7 159 27 -21 c36 -29 70 -28 66 2 -2 17 -14 25 -50 36 l-48 14 7
55 c5 47 3 57 -12 68 -11 8 -26 14 -35 14 -15 0 -16 -12 -12 -99z"/>
<path d="M450 548 c0 -7 -11 -36 -24 -65 l-25 -52 50 -38 c27 -20 49 -40 49
-44 0 -4 -8 -22 -17 -39 -16 -27 -22 -31 -50 -26 -33 5 -44 -9 -24 -29 5 -6
15 -48 21 -95 6 -46 16 -93 22 -103 8 -16 11 -17 21 -3 9 11 41 17 123 22
l111 7 7 -27 c7 -30 18 -33 40 -10 26 26 33 46 40 114 4 36 9 77 12 93 8 40
-38 57 -126 47 -182 -23 -205 -24 -191 -6 7 9 17 16 22 16 5 0 18 9 29 20 19
19 19 20 0 30 -11 6 -25 8 -30 5 -6 -3 -10 2 -10 13 0 11 -14 26 -35 38 -19
10 -35 22 -35 27 0 4 16 29 35 54 19 25 32 49 29 54 -8 14 -44 11 -44 -3z
m281 -278 c20 -11 24 -51 11 -123 l-7 -38 -110 -5 c-61 -3 -119 -6 -129 -7
-21 -2 -26 14 -40 114 -5 34 -3 46 6 46 7 0 43 3 81 7 71 8 77 4 56 -35 -8
-16 -17 -19 -47 -14 -33 5 -34 4 -14 -6 29 -16 28 -23 -10 -53 -43 -33 -32
-42 15 -11 42 29 56 31 83 10 10 -8 27 -15 37 -15 28 0 16 33 -17 49 l-30 14
22 18 c12 9 22 27 22 38 0 16 6 21 26 21 14 0 34 -5 45 -10z"/>
<path d="M160 365 c-17 -42 -24 -111 -13 -118 36 -22 70 88 40 128 -15 20 -16
19 -27 -10z"/>
</g>
</svg>
