<?xml version="1.0" standalone="no"?>
<!DOCTYPE svg PUBLIC "-//W3C//DTD SVG 20010904//EN"
 "http://www.w3.org/TR/2001/REC-SVG-20010904/DTD/svg10.dtd">
<svg version="1.0" xmlns="http://www.w3.org/2000/svg"
 width="90.000000pt" height="92.000000pt" viewBox="0 0 90.000000 92.000000"
 preserveAspectRatio="xMidYMid meet">
<metadata>
Created by potrace 1.16, written by Peter Selinger 2001-2019
</metadata>
<g transform="translate(0.000000,92.000000) scale(0.100000,-0.100000)"
fill="#000000" stroke="none">
<path d="M252 813 c-6 -27 -20 -70 -31 -96 -20 -47 -22 -48 -52 -42 -30 7 -31
6 -24 -16 4 -13 9 -67 12 -120 l5 -97 -40 -7 c-23 -4 -58 -5 -78 -3 -47 4 -54
-13 -17 -42 21 -16 35 -20 58 -15 16 4 40 9 52 12 21 5 21 5 8 -65 -14 -74
-41 -135 -84 -191 -22 -29 -23 -33 -6 -24 38 20 87 75 105 117 11 23 24 73 30
111 6 38 12 70 13 71 1 0 30 8 65 16 l62 16 0 -103 c0 -56 -5 -115 -10 -131
-10 -27 -14 -30 -48 -26 -35 4 -36 4 -22 -14 31 -41 64 -74 75 -74 6 0 19 15
30 33 17 28 19 52 20 177 0 117 3 147 15 157 13 10 13 13 -4 19 -17 6 -18 15
-13 78 4 39 9 85 13 103 5 28 3 34 -19 44 -20 9 -35 8 -77 -6 -28 -9 -53 -15
-55 -13 -2 2 19 34 46 72 54 72 54 85 3 100 -18 5 -22 0 -32 -41z m76 -248 c2
-48 -1 -92 -5 -96 -4 -4 -35 -11 -67 -14 l-59 -8 6 93 c3 51 8 94 10 96 6 6
90 22 102 20 6 -2 11 -42 13 -91z"/>
<path d="M240 531 c23 -47 39 -59 51 -40 18 29 -16 78 -54 79 -16 0 -16 -3 3
-39z"/>
<path d="M566 749 c-33 -13 -59 -18 -79 -13 -27 5 -29 4 -22 -12 25 -59 16
-155 -20 -208 -27 -40 -27 -41 9 -24 40 18 58 56 66 135 4 41 9 76 12 78 2 2
23 7 46 11 l42 7 0 -82 c0 -74 2 -84 25 -106 20 -21 34 -25 84 -25 72 0 91 6
91 30 0 25 -24 32 -91 24 l-58 -6 -6 34 c-4 23 0 50 14 86 12 29 21 55 21 57
0 7 -58 35 -72 34 -7 0 -35 -9 -62 -20z"/>
<path d="M571 439 c-35 -10 -81 -20 -102 -22 -22 -2 -42 -6 -45 -10 -3 -3 10
-20 30 -37 19 -17 52 -54 73 -82 l37 -51 -44 -40 c-25 -21 -65 -50 -90 -63
l-45 -25 48 4 c34 3 64 16 103 42 l56 37 52 -56 c46 -50 56 -56 91 -56 50 0
138 23 142 36 2 6 -19 16 -46 23 -51 13 -153 59 -185 83 -17 14 -17 17 14 79
18 35 41 74 52 86 25 26 18 50 -17 63 -34 13 -46 12 -124 -11z m79 -46 c0 -27
-60 -127 -70 -117 -5 5 -27 32 -49 59 l-41 50 57 11 c87 17 103 17 103 -3z"/>
<path d="M220 374 c0 -13 46 -84 58 -89 16 -6 26 18 18 48 -6 27 -76 65 -76
41z"/>
</g>
</svg>
