<?xml version="1.0" standalone="no"?>
<!DOCTYPE svg PUBLIC "-//W3C//DTD SVG 20010904//EN"
 "http://www.w3.org/TR/2001/REC-SVG-20010904/DTD/svg10.dtd">
<svg version="1.0" xmlns="http://www.w3.org/2000/svg"
 width="96.000000pt" height="68.000000pt" viewBox="0 0 96.000000 68.000000"
 preserveAspectRatio="xMidYMid meet">
<metadata>
Created by potrace 1.16, written by Peter Selinger 2001-2019
</metadata>
<g transform="translate(0.000000,68.000000) scale(0.100000,-0.100000)"
fill="#000000" stroke="none">
<path d="M525 475 c-33 -7 -77 -16 -99 -20 -28 -5 -36 -9 -28 -17 8 -8 35 -7
99 4 48 9 90 15 91 13 2 -2 -6 -17 -19 -34 -12 -17 -20 -33 -17 -36 5 -6 136
57 137 66 1 9 -68 39 -87 38 -9 -1 -44 -7 -77 -14z"/>
</g>
</svg>
