<?xml version="1.0" standalone="no"?>
<!DOCTYPE svg PUBLIC "-//W3C//DTD SVG 20010904//EN"
 "http://www.w3.org/TR/2001/REC-SVG-20010904/DTD/svg10.dtd">
<svg version="1.0" xmlns="http://www.w3.org/2000/svg"
 width="90.000000pt" height="92.000000pt" viewBox="0 0 90.000000 92.000000"
 preserveAspectRatio="xMidYMid meet">
<metadata>
Created by potrace 1.16, written by Peter Selinger 2001-2019
</metadata>
<g transform="translate(0.000000,92.000000) scale(0.100000,-0.100000)"
fill="#000000" stroke="none">
<path d="M175 828 c4 -13 9 -70 12 -127 6 -118 7 -117 -75 -127 -88 -11 -77
-38 15 -36 l52 1 -25 -57 c-29 -65 -61 -114 -117 -178 -22 -25 -37 -47 -35
-49 8 -8 84 48 110 80 14 17 37 50 52 75 l27 45 -6 -95 c-4 -52 -11 -121 -16
-153 -11 -64 -5 -109 16 -127 27 -22 35 24 35 199 0 94 3 171 8 171 4 0 17
-16 30 -35 26 -41 52 -46 52 -12 0 27 -23 51 -63 66 -17 7 -27 18 -27 31 0 31
18 60 38 60 9 1 27 6 40 14 19 10 21 15 10 23 -21 17 -42 21 -60 11 -16 -8
-18 -3 -17 44 0 29 4 76 9 103 8 46 7 52 -16 73 -14 12 -32 22 -41 22 -11 0
-14 -6 -8 -22z"/>
<path d="M420 790 c0 -50 -41 -141 -118 -257 -22 -35 -7 -28 45 20 l46 42 -6
-139 c-3 -90 -2 -147 5 -162 14 -31 26 -30 34 0 5 20 12 24 42 24 86 -1 322
16 334 24 10 7 9 12 -7 24 -16 13 -36 15 -102 10 l-83 -6 0 29 c0 24 5 29 31
35 17 3 46 6 65 6 18 0 36 5 39 10 11 18 -42 30 -90 21 l-45 -8 0 32 c0 32 1
33 58 41 70 11 67 29 -5 29 l-53 -1 0 37 c0 34 2 37 38 43 20 3 52 6 70 6 17
0 32 4 32 10 0 20 -43 32 -93 26 -44 -6 -49 -5 -43 10 4 9 0 27 -8 39 -17 25
-76 51 -76 33 0 -23 34 -80 53 -87 13 -5 -7 -11 -63 -20 -45 -7 -84 -10 -87
-7 -3 2 10 32 28 67 l33 61 -23 19 c-34 28 -51 24 -51 -11z m143 -197 c4 -20
5 -38 4 -39 -2 -2 -33 -6 -71 -10 -64 -7 -68 -6 -62 12 3 10 1 26 -4 34 -8 12
-1 17 38 27 81 19 89 18 95 -24z m7 -103 c0 -32 -3 -33 -92 -45 l-48 -6 0 35
0 35 53 4 c28 2 60 4 70 5 13 2 17 -5 17 -28z m0 -99 c0 -23 -5 -31 -17 -31
-10 0 -42 -3 -70 -6 l-53 -7 0 34 0 34 70 3 70 3 0 -30z"/>
<path d="M730 256 c0 -6 70 -109 87 -128 12 -14 19 -15 30 -7 31 26 5 80 -57
113 -46 25 -60 30 -60 22z"/>
<path d="M336 200 c-28 -51 -32 -100 -9 -107 19 -6 53 57 53 97 0 62 -14 65
-44 10z"/>
<path d="M605 203 c37 -64 54 -83 71 -76 21 8 17 60 -6 83 -20 20 -61 40 -82
40 -5 0 2 -21 17 -47z"/>
<path d="M460 230 c0 -18 30 -83 47 -102 21 -24 33 -14 33 27 0 25 -8 40 -31
59 -32 27 -49 33 -49 16z"/>
</g>
</svg>
