<?xml version="1.0" standalone="no"?>
<!DOCTYPE svg PUBLIC "-//W3C//DTD SVG 20010904//EN"
 "http://www.w3.org/TR/2001/REC-SVG-20010904/DTD/svg10.dtd">
<svg version="1.0" xmlns="http://www.w3.org/2000/svg"
 width="96.000000pt" height="68.000000pt" viewBox="0 0 96.000000 68.000000"
 preserveAspectRatio="xMidYMid meet">
<metadata>
Created by potrace 1.16, written by Peter Selinger 2001-2019
</metadata>
<g transform="translate(0.000000,68.000000) scale(0.100000,-0.100000)"
fill="#000000" stroke="none">
<path d="M290 529 c-14 -6 -43 -8 -65 -5 l-40 5 -1 -147 c-1 -155 -10 -201
-54 -263 -12 -16 -17 -29 -11 -29 18 0 78 79 90 120 8 26 18 40 29 40 9 0 31
9 47 20 17 11 33 20 38 20 8 0 9 -105 1 -138 -4 -13 -12 -21 -18 -19 -59 22
-61 19 -19 -24 41 -42 43 -43 63 -24 19 17 20 30 20 179 0 89 5 179 11 201 10
35 9 41 -11 57 -25 20 -43 22 -80 7z m38 -76 c3 -59 2 -60 -59 -41 -33 9 -39
15 -39 39 0 38 25 61 64 57 30 -3 31 -5 34 -55z m-9 -98 c7 4 11 -4 11 -19 0
-20 -7 -27 -37 -35 -61 -17 -63 -16 -63 44 l0 55 39 -26 c22 -14 45 -23 50
-19z"/>
</g>
</svg>
