<?xml version="1.0" standalone="no"?>
<!DOCTYPE svg PUBLIC "-//W3C//DTD SVG 20010904//EN"
 "http://www.w3.org/TR/2001/REC-SVG-20010904/DTD/svg10.dtd">
<svg version="1.0" xmlns="http://www.w3.org/2000/svg"
 width="96.000000pt" height="68.000000pt" viewBox="0 0 96.000000 68.000000"
 preserveAspectRatio="xMidYMid meet">
<metadata>
Created by potrace 1.16, written by Peter Selinger 2001-2019
</metadata>
<g transform="translate(0.000000,68.000000) scale(0.100000,-0.100000)"
fill="#000000" stroke="none">
<path d="M280 464 c-30 -7 -70 -13 -87 -14 -18 0 -33 -4 -33 -10 0 -5 14 -10
30 -10 25 0 30 -4 30 -23 0 -27 -61 -133 -108 -188 -19 -22 -30 -39 -26 -39
10 0 75 50 97 75 37 42 97 154 91 169 -5 12 1 16 22 16 37 0 74 10 74 20 0 15
-36 16 -90 4z"/>
</g>
</svg>
