<?xml version="1.0" standalone="no"?>
<!DOCTYPE svg PUBLIC "-//W3C//DTD SVG 20010904//EN"
 "http://www.w3.org/TR/2001/REC-SVG-20010904/DTD/svg10.dtd">
<svg version="1.0" xmlns="http://www.w3.org/2000/svg"
 width="96.000000pt" height="68.000000pt" viewBox="0 0 96.000000 68.000000"
 preserveAspectRatio="xMidYMid meet">
<metadata>
Created by potrace 1.16, written by Peter Selinger 2001-2019
</metadata>
<g transform="translate(0.000000,68.000000) scale(0.100000,-0.100000)"
fill="#000000" stroke="none">
<path d="M675 444 c-33 -7 -80 -13 -105 -14 l-45 0 3 -95 c3 -93 11 -111 38
-86 8 8 132 31 168 31 9 0 16 -7 16 -15 0 -8 9 -15 20 -15 18 0 20 7 20 58 0
31 3 73 6 93 6 34 4 37 -26 48 -18 6 -33 11 -34 10 -1 -1 -28 -7 -61 -15z m69
-30 c14 -36 7 -44 -36 -45 -24 0 -64 -4 -90 -8 -48 -8 -48 -8 -48 21 0 15 3
28 8 29 31 2 98 12 101 15 12 11 60 2 65 -12z m6 -87 c0 -31 -2 -33 -32 -33
-18 0 -59 -3 -90 -7 l-58 -8 0 29 c0 29 0 29 83 39 45 5 85 10 90 11 4 1 7
-13 7 -31z"/>
</g>
</svg>
