<?xml version="1.0" standalone="no"?>
<!DOCTYPE svg PUBLIC "-//W3C//DTD SVG 20010904//EN"
 "http://www.w3.org/TR/2001/REC-SVG-20010904/DTD/svg10.dtd">
<svg version="1.0" xmlns="http://www.w3.org/2000/svg"
 width="90.000000pt" height="92.000000pt" viewBox="0 0 90.000000 92.000000"
 preserveAspectRatio="xMidYMid meet">
<metadata>
Created by potrace 1.16, written by Peter Selinger 2001-2019
</metadata>
<g transform="translate(0.000000,92.000000) scale(0.100000,-0.100000)"
fill="#000000" stroke="none">
<path d="M516 892 c-2 -4 -1 -14 5 -22 14 -24 11 -67 -7 -74 -9 -3 -45 -6 -81
-6 -62 0 -65 -1 -51 -17 9 -10 22 -40 30 -68 8 -27 20 -49 26 -48 77 16 92 15
92 -4 0 -18 -9 -21 -72 -27 -157 -15 -169 -17 -156 -34 13 -16 59 -14 278 8
52 5 127 10 167 10 79 0 93 8 63 35 -20 18 -54 18 -197 -2 -34 -5 -43 -3 -43
9 0 19 30 28 98 28 34 0 51 4 47 10 -4 6 5 26 19 45 33 43 33 47 -4 68 -29 17
-49 17 -129 1 -23 -5 -23 -3 -17 36 6 37 4 41 -20 50 -31 12 -41 12 -48 2z
m159 -123 c4 -5 4 -21 1 -34 -5 -19 -13 -24 -51 -27 -45 -3 -45 -3 -45 29 0
17 6 34 13 36 22 10 76 7 82 -4z m-145 -33 c0 -31 -3 -34 -36 -41 -43 -8 -42
-8 -46 30 -3 31 -6 30 75 44 4 0 7 -14 7 -33z"/>
<path d="M100 741 c0 -20 89 -103 107 -99 25 4 29 50 6 70 -32 27 -113 48
-113 29z"/>
<path d="M580 563 c-41 -8 -97 -12 -123 -9 l-49 5 7 -27 c12 -43 13 -93 5
-147 -9 -60 4 -98 32 -89 40 12 7 -36 -60 -89 l-44 -34 -63 15 -63 15 14 34
c19 44 9 76 -33 113 l-35 31 29 35 c15 20 37 47 48 60 l20 25 -25 19 c-32 25
-37 25 -104 -5 -31 -14 -65 -25 -76 -25 -11 0 -20 -5 -20 -10 0 -18 32 -24 82
-13 55 11 57 7 33 -51 -15 -34 -14 -38 6 -59 28 -29 49 -79 49 -115 0 -27 -3
-30 -46 -36 -26 -3 -66 -6 -90 -6 -47 0 -54 -9 -27 -35 12 -13 24 -15 52 -8
82 18 141 8 329 -56 152 -53 191 -63 226 -58 52 7 208 66 201 76 -2 5 -78 11
-167 14 -162 5 -308 23 -308 37 0 5 8 11 18 15 9 3 43 23 74 43 55 35 73 61
46 63 -38 2 36 18 86 18 45 1 62 -3 72 -16 22 -31 42 35 36 117 -2 38 0 82 6
100 11 29 9 32 -21 50 -18 11 -34 19 -37 19 -3 -1 -39 -8 -80 -16z m74 -39
c10 -27 7 -36 -11 -30 -9 4 -39 2 -67 -3 -121 -23 -116 -23 -116 3 0 22 6 25
63 34 97 15 124 14 131 -4z m6 -78 c0 -21 -5 -24 -68 -29 -38 -4 -83 -10 -100
-13 -29 -6 -32 -4 -32 18 0 23 4 25 83 35 45 5 90 10 100 11 12 2 17 -5 17
-22z m0 -81 c0 -22 -5 -25 -32 -25 -18 0 -63 -3 -100 -7 l-68 -6 0 26 c0 25 3
26 58 30 146 9 142 9 142 -18z"/>
<path d="M661 220 c61 -69 75 -77 89 -49 18 33 1 59 -53 85 -87 40 -95 32 -36
-36z"/>
</g>
</svg>
