<?xml version="1.0" standalone="no"?>
<!DOCTYPE svg PUBLIC "-//W3C//DTD SVG 20010904//EN"
 "http://www.w3.org/TR/2001/REC-SVG-20010904/DTD/svg10.dtd">
<svg version="1.0" xmlns="http://www.w3.org/2000/svg"
 width="96.000000pt" height="68.000000pt" viewBox="0 0 96.000000 68.000000"
 preserveAspectRatio="xMidYMid meet">
<metadata>
Created by potrace 1.16, written by Peter Selinger 2001-2019
</metadata>
<g transform="translate(0.000000,68.000000) scale(0.100000,-0.100000)"
fill="#000000" stroke="none">
<path d="M605 530 c-22 -5 -82 -11 -134 -15 -83 -7 -92 -9 -76 -21 10 -8 34
-14 52 -14 37 0 47 -19 41 -86 l-3 -39 -73 1 c-59 2 -71 -1 -62 -11 6 -8 18
-56 26 -107 21 -133 23 -141 37 -130 7 5 73 15 147 21 l135 11 27 -32 27 -33
30 30 c25 25 31 42 40 110 6 44 14 94 17 111 5 28 2 32 -33 48 -32 14 -47 15
-83 7 -81 -19 -81 -19 -78 54 l2 64 46 6 c60 9 72 13 65 25 -7 11 -91 11 -150
0z m-10 -91 c8 -69 3 -79 -36 -79 l-30 0 2 65 c2 64 6 70 46 71 7 1 14 -23 18
-57z m163 -91 c13 -13 15 -70 6 -143 -7 -46 -8 -47 -37 -41 -17 3 -90 1 -163
-6 -73 -7 -136 -10 -138 -7 -6 5 -11 39 -21 122 l-6 57 35 0 c20 0 39 0 44 0
11 -1 2 -41 -15 -67 -9 -13 -14 -25 -12 -27 9 -10 46 32 61 69 14 35 20 40 52
43 36 3 36 3 36 -36 0 -55 33 -84 91 -80 34 2 45 7 47 22 4 17 0 18 -34 13
-47 -8 -64 5 -64 48 0 36 9 42 71 44 19 0 40 -4 47 -11z"/>
<path d="M225 453 c-27 -7 -67 -11 -88 -8 l-39 6 20 -28 c11 -16 22 -49 26
-74 11 -75 19 -80 104 -67 71 11 72 12 72 42 0 17 9 51 20 75 32 71 -1 87
-115 54z m55 -55 c0 -58 -10 -75 -43 -82 -38 -8 -44 -2 -52 56 -8 51 -4 54 63
57 30 1 32 -1 32 -31z"/>
</g>
</svg>
