<?xml version="1.0" standalone="no"?>
<!DOCTYPE svg PUBLIC "-//W3C//DTD SVG 20010904//EN"
 "http://www.w3.org/TR/2001/REC-SVG-20010904/DTD/svg10.dtd">
<svg version="1.0" xmlns="http://www.w3.org/2000/svg"
 width="90.000000pt" height="92.000000pt" viewBox="0 0 90.000000 92.000000"
 preserveAspectRatio="xMidYMid meet">
<metadata>
Created by potrace 1.16, written by Peter Selinger 2001-2019
</metadata>
<g transform="translate(0.000000,92.000000) scale(0.100000,-0.100000)"
fill="#000000" stroke="none">
<path d="M385 866 c8 -40 4 -42 -96 -52 -41 -4 -83 -10 -94 -14 -19 -7 -18 -7
3 -19 18 -9 40 -9 103 0 68 11 82 11 89 -2 13 -20 -9 -29 -79 -31 -57 -1 -74
-9 -52 -23 5 -3 13 -20 16 -38 11 -49 24 -70 38 -59 7 5 29 12 50 14 30 3 37
1 37 -14 0 -22 -16 -25 -146 -32 -70 -4 -104 -2 -112 6 -6 6 -13 10 -14 7 -2
-2 -15 -30 -30 -61 -28 -58 -28 -88 -2 -88 17 0 54 57 54 84 0 11 5 16 14 13
8 -3 76 3 152 13 184 25 397 41 407 31 4 -4 -4 -25 -18 -45 l-26 -38 23 6 c13
4 46 12 73 20 29 8 51 20 53 28 2 9 -14 29 -36 46 l-38 31 -100 -14 c-211 -28
-204 -28 -204 -7 0 23 25 32 93 32 42 0 48 3 45 19 -2 11 8 31 20 44 l24 25
-26 17 c-21 14 -38 16 -91 10 -53 -5 -65 -4 -65 8 0 19 43 27 136 27 80 0 98
10 59 36 -21 14 -34 15 -88 5 -90 -16 -108 -15 -100 5 8 21 -21 44 -54 44 -22
0 -23 -3 -18 -34z m155 -141 c0 -14 -3 -25 -7 -25 -5 0 -25 -4 -45 -9 -37 -9
-38 -8 -38 19 0 25 4 29 33 33 17 2 38 5 45 5 7 1 12 -9 12 -23z m-140 -25 c0
-28 -2 -30 -40 -30 -22 0 -40 4 -40 9 0 5 -3 16 -6 24 -6 16 11 24 59 26 24 1
27 -3 27 -29z"/>
<path d="M405 548 c-88 -11 -171 -22 -185 -25 l-25 -6 28 -12 c18 -7 46 -9 74
-5 l46 7 -39 -33 c-22 -18 -75 -52 -119 -75 -79 -41 -79 -42 -36 -36 24 3 70
19 101 36 l58 30 11 -45 c9 -35 15 -44 29 -40 9 2 49 7 87 11 91 8 116 15 109
27 -4 5 3 23 15 39 26 35 26 33 -3 53 -20 13 -35 14 -83 6 -124 -21 -120 -21
-99 -5 10 7 15 18 12 24 -7 11 32 17 167 27 87 6 104 14 68 34 -23 12 -11 12
-216 -12z m105 -118 c0 -23 -23 -34 -99 -48 l-51 -9 0 33 c0 31 2 33 43 37
101 9 107 8 107 -13z"/>
<path d="M558 394 c-3 -3 -1 -18 5 -34 6 -16 8 -32 4 -36 -3 -4 -36 -7 -72 -7
-58 -1 -83 -9 -55 -19 6 -2 17 -27 25 -57 18 -68 24 -74 64 -60 38 13 51 3 51
-42 0 -33 -14 -39 -90 -39 -49 0 -61 3 -70 20 -9 17 -58 50 -75 50 -4 0 -3 -9
0 -20 4 -13 2 -20 -7 -20 -7 0 -23 -3 -35 -6 -20 -6 -23 -3 -23 25 0 31 1 31
51 31 47 0 51 2 46 20 -3 13 4 31 19 49 30 36 30 37 -4 55 -18 9 -43 13 -70 9
-38 -5 -42 -4 -36 12 8 20 -18 45 -47 45 -15 0 -17 -6 -12 -35 5 -31 3 -35
-21 -41 -15 -3 -45 -4 -67 -1 -21 3 -42 1 -45 -4 -3 -5 -1 -9 4 -9 5 0 15 -13
21 -30 6 -16 16 -43 22 -59 10 -28 13 -29 55 -24 43 5 44 5 44 -25 0 -28 -3
-31 -50 -41 -28 -6 -69 -11 -91 -11 -45 0 -48 -13 -8 -41 23 -17 28 -16 143
22 66 21 123 39 128 39 5 0 14 -11 20 -25 12 -27 38 -34 38 -10 0 21 5 19 35
-11 18 -18 33 -24 48 -20 12 3 66 17 120 32 l98 27 29 -34 c25 -28 31 -32 40
-19 26 40 0 81 -70 110 -35 14 -49 8 -30 -15 14 -16 9 -20 -43 -28 -27 -4 -28
-3 -25 37 l3 41 58 3 c50 3 57 5 52 21 -3 10 5 33 20 55 14 20 25 39 25 41 0
3 -14 12 -31 20 -28 15 -53 15 -110 -1 -13 -3 -15 1 -12 21 4 20 0 27 -22 35
-30 11 -39 12 -47 4z m135 -116 c-7 -40 -2 -34 -40 -43 -32 -6 -33 -6 -33 28
0 37 9 45 52 46 26 1 27 -1 21 -31z m-123 -18 c0 -37 -2 -40 -29 -40 -23 0
-30 5 -35 26 -8 31 -1 41 34 47 14 2 26 5 28 6 1 0 2 -17 2 -39z m-232 -7 c-2
-19 -10 -29 -30 -34 -27 -7 -28 -5 -28 27 0 31 2 34 31 34 27 0 30 -3 27 -27z
m-100 -20 c3 -32 2 -33 -32 -33 -33 0 -36 3 -36 28 0 36 8 44 40 40 20 -2 26
-9 28 -35z"/>
</g>
</svg>
