<?xml version="1.0" standalone="no"?>
<!DOCTYPE svg PUBLIC "-//W3C//DTD SVG 20010904//EN"
 "http://www.w3.org/TR/2001/REC-SVG-20010904/DTD/svg10.dtd">
<svg version="1.0" xmlns="http://www.w3.org/2000/svg"
 width="96.000000pt" height="68.000000pt" viewBox="0 0 96.000000 68.000000"
 preserveAspectRatio="xMidYMid meet">
<metadata>
Created by potrace 1.16, written by Peter Selinger 2001-2019
</metadata>
<g transform="translate(0.000000,68.000000) scale(0.100000,-0.100000)"
fill="#000000" stroke="none">
<path d="M410 586 c0 -4 11 -22 25 -40 l25 -33 -106 -7 c-79 -6 -109 -4 -114
5 -8 13 -30 4 -30 -13 0 -5 -9 -23 -20 -38 -18 -25 -19 -60 -1 -60 12 0 37 24
54 53 16 25 23 27 80 27 34 1 123 7 197 14 152 15 165 13 149 -16 -6 -11 -8
-22 -5 -25 7 -8 106 18 106 27 0 5 -12 18 -27 30 -26 20 -35 22 -118 15 -49
-3 -98 -8 -107 -11 -14 -4 -18 1 -18 19 0 14 -6 30 -13 36 -17 13 -77 26 -77
17z"/>
</g>
</svg>
