<?xml version="1.0" standalone="no"?>
<!DOCTYPE svg PUBLIC "-//W3C//DTD SVG 20010904//EN"
 "http://www.w3.org/TR/2001/REC-SVG-20010904/DTD/svg10.dtd">
<svg version="1.0" xmlns="http://www.w3.org/2000/svg"
 width="90.000000pt" height="92.000000pt" viewBox="0 0 90.000000 92.000000"
 preserveAspectRatio="xMidYMid meet">
<metadata>
Created by potrace 1.16, written by Peter Selinger 2001-2019
</metadata>
<g transform="translate(0.000000,92.000000) scale(0.100000,-0.100000)"
fill="#000000" stroke="none">
<path d="M460 832 c0 -4 13 -29 29 -54 l29 -46 -74 -7 c-54 -5 -79 -3 -90 6
-17 14 -13 18 -54 -58 -33 -64 -33 -83 1 -83 13 0 26 14 41 45 25 51 18 48
198 70 177 21 171 22 158 -17 -6 -18 -15 -39 -21 -45 -5 -7 -7 -13 -4 -13 13
0 147 74 147 82 0 4 -23 19 -51 33 -53 27 -56 27 -187 -1 -14 -3 -21 -1 -18 5
11 18 -13 60 -43 76 -33 16 -61 20 -61 7z"/>
<path d="M410 613 c-6 -26 -32 -76 -57 -111 -25 -35 -43 -65 -40 -68 2 -3 24
10 49 29 46 35 56 36 101 4 l28 -19 -28 -30 c-44 -46 -126 -106 -195 -144 -72
-38 -52 -45 32 -11 61 25 134 73 192 125 l37 33 61 -50 c73 -61 109 -81 148
-81 41 0 142 21 142 30 0 4 -43 19 -96 34 -87 24 -180 63 -211 88 -10 8 -5 21
19 54 17 24 42 51 55 59 32 21 29 39 -10 60 -31 16 -36 16 -80 1 -55 -19 -81
-21 -72 -5 9 14 -24 49 -45 49 -13 0 -21 -14 -30 -47z m166 -50 c-10 -25 -50
-83 -57 -83 -4 0 -27 9 -53 20 -45 21 -46 21 -30 45 12 18 26 25 62 28 26 2
55 4 66 5 13 2 16 -2 12 -15z"/>
<path d="M135 614 c-22 -9 -61 -15 -86 -15 l-47 0 14 -28 c8 -16 19 -66 25
-112 13 -94 25 -121 45 -94 8 11 32 19 71 22 l58 5 1 47 c1 25 11 72 22 103
l20 58 -21 15 c-26 18 -50 18 -102 -1z m39 -106 c-4 -40 -8 -75 -10 -76 -1 -2
-21 -6 -43 -9 -40 -6 -41 -5 -41 24 0 17 -3 51 -6 76 -7 50 -5 51 79 56 l27 1
-6 -72z"/>
<path d="M550 294 c-41 -7 -99 -14 -127 -14 -29 -1 -53 -3 -53 -5 0 -1 6 -15
14 -30 8 -15 17 -58 21 -96 7 -67 26 -106 38 -75 4 10 34 16 107 21 90 6 100
9 95 25 -5 14 19 76 53 142 3 7 -58 49 -68 47 -3 -1 -39 -8 -80 -15z m60 -58
c0 -18 -3 -47 -6 -64 -6 -29 -8 -31 -78 -39 -46 -5 -74 -5 -78 2 -4 5 -8 33
-8 61 l0 52 48 10 c26 5 64 10 85 11 36 1 37 0 37 -33z"/>
</g>
</svg>
