<?xml version="1.0" standalone="no"?>
<!DOCTYPE svg PUBLIC "-//W3C//DTD SVG 20010904//EN"
 "http://www.w3.org/TR/2001/REC-SVG-20010904/DTD/svg10.dtd">
<svg version="1.0" xmlns="http://www.w3.org/2000/svg"
 width="96.000000pt" height="68.000000pt" viewBox="0 0 96.000000 68.000000"
 preserveAspectRatio="xMidYMid meet">
<metadata>
Created by potrace 1.16, written by Peter Selinger 2001-2019
</metadata>
<g transform="translate(0.000000,68.000000) scale(0.100000,-0.100000)"
fill="#000000" stroke="none">
<path d="M215 424 c-16 -7 -49 -13 -73 -14 l-43 0 15 -27 c7 -16 17 -47 21
-70 7 -44 22 -64 34 -45 3 5 27 13 54 17 42 7 47 10 47 34 1 14 7 37 15 51 21
36 18 47 -12 57 -20 7 -37 6 -58 -3z m18 -71 c-4 -34 -9 -42 -30 -48 -32 -8
-40 0 -48 47 -7 35 -5 37 21 43 16 4 34 8 39 10 18 5 22 -9 18 -52z"/>
</g>
</svg>
