<?xml version="1.0" standalone="no"?>
<!DOCTYPE svg PUBLIC "-//W3C//DTD SVG 20010904//EN"
 "http://www.w3.org/TR/2001/REC-SVG-20010904/DTD/svg10.dtd">
<svg version="1.0" xmlns="http://www.w3.org/2000/svg"
 width="96.000000pt" height="68.000000pt" viewBox="0 0 96.000000 68.000000"
 preserveAspectRatio="xMidYMid meet">
<metadata>
Created by potrace 1.16, written by Peter Selinger 2001-2019
</metadata>
<g transform="translate(0.000000,68.000000) scale(0.100000,-0.100000)"
fill="#000000" stroke="none">
<path d="M267 544 l6 -82 -57 -7 c-72 -9 -73 -25 -1 -25 l55 0 0 -44 0 -43
-91 -40 c-90 -40 -91 -41 -68 -57 32 -22 35 -21 95 24 29 22 56 40 59 40 7 0
6 -110 -2 -139 -5 -20 -11 -22 -37 -18 l-31 5 37 -39 c42 -44 46 -46 64 -22 9
13 13 53 14 130 0 109 1 112 27 132 14 12 23 24 19 28 -3 4 -12 1 -18 -5 -20
-20 -28 -14 -28 22 0 36 12 46 57 46 15 0 23 5 20 13 -2 6 -18 12 -35 12 -18
0 -33 4 -33 10 -3 21 2 51 13 78 13 34 0 53 -42 59 l-29 4 6 -82z"/>
</g>
</svg>
