<?xml version="1.0" standalone="no"?>
<!DOCTYPE svg PUBLIC "-//W3C//DTD SVG 20010904//EN"
 "http://www.w3.org/TR/2001/REC-SVG-20010904/DTD/svg10.dtd">
<svg version="1.0" xmlns="http://www.w3.org/2000/svg"
 width="96.000000pt" height="68.000000pt" viewBox="0 0 96.000000 68.000000"
 preserveAspectRatio="xMidYMid meet">
<metadata>
Created by potrace 1.16, written by Peter Selinger 2001-2019
</metadata>
<g transform="translate(0.000000,68.000000) scale(0.100000,-0.100000)"
fill="#000000" stroke="none">
<path d="M225 420 c-11 -5 -44 -9 -72 -9 -56 -1 -61 -5 -38 -34 7 -11 16 -36
20 -57 11 -64 21 -70 89 -56 57 12 59 13 63 46 2 19 10 44 18 57 8 12 15 29
15 37 0 25 -53 34 -95 16z m29 -67 c-8 -56 -10 -59 -46 -68 -28 -7 -31 -3 -43
67 -7 39 -2 43 67 47 27 1 28 0 22 -46z"/>
</g>
</svg>
