<?xml version="1.0" standalone="no"?>
<!DOCTYPE svg PUBLIC "-//W3C//DTD SVG 20010904//EN"
 "http://www.w3.org/TR/2001/REC-SVG-20010904/DTD/svg10.dtd">
<svg version="1.0" xmlns="http://www.w3.org/2000/svg"
 width="90.000000pt" height="92.000000pt" viewBox="0 0 90.000000 92.000000"
 preserveAspectRatio="xMidYMid meet">
<metadata>
Created by potrace 1.16, written by Peter Selinger 2001-2019
</metadata>
<g transform="translate(0.000000,92.000000) scale(0.100000,-0.100000)"
fill="#000000" stroke="none">
<path d="M556 903 c-3 -4 -6 -28 -6 -54 0 -26 -4 -51 -10 -54 -5 -3 -32 -9
-60 -12 -27 -3 -50 -10 -50 -14 0 -12 46 -22 76 -16 20 4 25 1 21 -12 -3 -9
-10 -31 -15 -48 -14 -45 0 -41 34 10 40 61 51 67 115 67 67 0 82 13 41 34 -20
11 -39 12 -65 6 -42 -9 -42 -9 -22 29 13 26 13 30 -3 43 -21 19 -48 28 -56 21z"/>
<path d="M220 860 c0 -6 9 -29 21 -51 11 -23 18 -43 15 -46 -11 -11 -88 -23
-111 -17 -33 8 -32 -6 3 -39 l28 -27 39 20 c52 27 62 25 70 -10 13 -59 40 -52
37 10 -3 37 0 40 33 54 64 27 37 45 -29 20 -12 -5 -17 3 -22 36 -5 32 -13 44
-31 51 -32 12 -53 11 -53 -1z"/>
<path d="M465 634 c-38 -7 -110 -16 -158 -20 -87 -7 -109 -20 -55 -35 38 -10
352 21 368 37 10 10 -34 34 -59 33 -14 -1 -57 -8 -96 -15z"/>
<path d="M567 553 c-4 -3 -7 -14 -7 -23 0 -10 -12 -34 -26 -56 l-26 -38 58
-53 c33 -29 65 -52 72 -53 7 0 12 12 12 29 0 25 -7 32 -57 56 l-58 27 43 36
c47 41 52 56 23 72 -23 12 -26 12 -34 3z"/>
<path d="M236 503 c-9 -26 -26 -57 -38 -70 l-22 -24 56 -56 c55 -54 78 -61 78
-23 0 19 -48 61 -85 74 -18 7 -14 13 35 57 l55 50 -24 19 c-13 11 -27 20 -31
20 -5 0 -15 -21 -24 -47z"/>
<path d="M400 534 c0 -8 -10 -38 -22 -65 l-21 -50 49 -50 c42 -42 50 -47 63
-35 7 8 11 22 8 30 -6 14 -54 49 -82 60 -5 2 7 21 28 43 42 44 45 58 18 73
-28 14 -41 13 -41 -6z"/>
<path d="M519 296 c-2 -2 -62 -12 -134 -21 -71 -9 -132 -19 -135 -21 -13 -14
33 -24 93 -22 l67 4 0 -52 0 -51 -42 -7 c-24 -3 -94 -9 -155 -12 -119 -7 -142
-20 -83 -44 25 -11 52 -10 150 4 65 9 205 19 310 21 106 2 195 6 197 9 9 8 -8
26 -38 42 -25 12 -43 13 -102 5 -40 -5 -100 -13 -135 -16 l-63 -6 7 38 c4 21
8 46 8 55 0 18 12 22 99 34 50 7 59 17 28 34 -19 10 -64 14 -72 6z"/>
</g>
</svg>
