<?xml version="1.0" standalone="no"?>
<!DOCTYPE svg PUBLIC "-//W3C//DTD SVG 20010904//EN"
 "http://www.w3.org/TR/2001/REC-SVG-20010904/DTD/svg10.dtd">
<svg version="1.0" xmlns="http://www.w3.org/2000/svg"
 width="90.000000pt" height="92.000000pt" viewBox="0 0 90.000000 92.000000"
 preserveAspectRatio="xMidYMid meet">
<metadata>
Created by potrace 1.16, written by Peter Selinger 2001-2019
</metadata>
<g transform="translate(0.000000,92.000000) scale(0.100000,-0.100000)"
fill="#000000" stroke="none">
<path d="M255 769 c-46 -10 -98 -15 -123 -12 l-42 5 11 -28 c11 -31 13 -173 3
-264 -7 -64 9 -90 44 -71 24 13 189 37 197 29 11 -11 7 -136 -6 -180 -15 -54
-46 -90 -71 -83 -10 3 -28 8 -39 11 -20 6 -18 1 12 -41 18 -26 37 -49 42 -52
9 -5 63 42 77 67 4 8 15 62 25 120 9 58 21 116 26 129 16 39 -17 65 -80 62
l-51 -1 0 34 c0 32 1 34 45 39 26 2 49 8 53 11 13 13 -24 27 -60 22 -36 -4
-38 -3 -38 25 0 22 5 30 25 34 14 3 37 7 51 11 38 7 15 28 -31 28 -32 0 -35 3
-35 28 0 15 0 31 -1 36 0 4 8 8 18 10 10 2 35 8 56 13 32 8 36 13 27 25 -15
17 -32 16 -135 -7z m-15 -95 c0 -23 -17 -34 -56 -34 -21 0 -24 4 -24 39 0 36
3 40 28 43 31 4 52 -15 52 -48z m0 -94 c0 -29 -2 -30 -45 -30 -40 0 -45 2 -45
23 0 32 7 37 52 37 36 0 38 -2 38 -30z m0 -95 c0 -30 -3 -35 -22 -35 -13 0
-33 -3 -45 -6 -21 -6 -23 -3 -23 35 l0 41 45 0 c45 0 45 0 45 -35z"/>
<path d="M540 766 c0 -8 15 -37 34 -65 l35 -51 -42 0 c-23 0 -51 -3 -63 -6
-15 -4 -23 1 -31 18 -10 23 -11 22 -25 -12 -42 -98 -47 -140 -18 -140 13 0 50
59 50 80 0 11 26 19 108 33 59 9 119 17 135 17 l27 0 -20 -40 c-11 -21 -20
-41 -20 -43 0 -3 17 1 38 9 20 7 44 13 53 14 8 0 24 6 34 14 19 13 18 16 -20
51 -41 38 -57 40 -141 19 -18 -5 -21 -1 -22 26 -1 36 -14 56 -53 76 -35 18
-59 18 -59 0z"/>
<path d="M498 333 c3 -141 6 -160 24 -180 45 -48 191 -58 276 -18 29 13 55 31
58 39 3 8 -4 41 -15 73 -11 32 -22 67 -24 78 -2 11 -7 0 -11 -25 -13 -79 -24
-98 -72 -116 -51 -19 -158 -15 -180 8 -10 11 -19 71 -15 114 1 6 13 16 29 23
59 26 182 106 182 118 0 7 -11 20 -25 29 -25 16 -25 16 -96 -60 -39 -42 -75
-76 -81 -76 -6 0 -9 26 -7 63 4 67 -3 87 -29 87 -15 0 -17 -15 -14 -157z"/>
<path d="M250 363 c1 -17 46 -86 55 -85 23 3 16 50 -11 71 -27 22 -44 27 -44
14z"/>
<path d="M170 335 c24 -63 60 -88 60 -42 0 24 -22 49 -52 60 -14 5 -16 2 -8
-18z"/>
<path d="M17 307 c-22 -54 -23 -107 -1 -107 22 0 47 66 39 106 -9 48 -18 48
-38 1z"/>
<path d="M94 320 c8 -42 34 -83 46 -75 16 10 11 61 -7 77 -40 34 -47 33 -39
-2z"/>
</g>
</svg>
