<?xml version="1.0" standalone="no"?>
<!DOCTYPE svg PUBLIC "-//W3C//DTD SVG 20010904//EN"
 "http://www.w3.org/TR/2001/REC-SVG-20010904/DTD/svg10.dtd">
<svg version="1.0" xmlns="http://www.w3.org/2000/svg"
 width="90.000000pt" height="92.000000pt" viewBox="0 0 90.000000 92.000000"
 preserveAspectRatio="xMidYMid meet">
<metadata>
Created by potrace 1.16, written by Peter Selinger 2001-2019
</metadata>
<g transform="translate(0.000000,92.000000) scale(0.100000,-0.100000)"
fill="#000000" stroke="none">
<path d="M550 848 c0 -29 -4 -58 -8 -64 -4 -6 -29 -14 -56 -18 -36 -6 -45 -11
-37 -19 6 -6 27 -11 47 -10 l35 1 -7 -41 c-6 -36 -4 -40 8 -29 8 6 23 27 33
46 15 28 25 35 63 40 25 3 60 6 78 6 23 0 34 5 34 14 0 19 -49 34 -80 25 -14
-4 -33 -7 -43 -8 -16 -1 -16 2 -3 34 14 33 14 35 -11 55 -42 33 -53 27 -53
-32z"/>
<path d="M250 853 c0 -4 7 -27 16 -50 9 -24 15 -46 12 -48 -3 -3 -37 -6 -76
-7 -78 -3 -91 -15 -47 -44 22 -15 28 -15 75 1 28 9 54 14 58 11 3 -4 11 -21
17 -39 14 -43 31 -32 27 19 -3 40 -2 42 32 48 56 11 58 30 2 24 l-46 -6 0 39
c0 28 -5 41 -19 49 -23 12 -51 13 -51 3z"/>
<path d="M488 634 c-3 -3 -2 -22 3 -42 5 -20 9 -73 8 -117 -2 -251 2 -435 10
-435 15 0 23 31 28 115 l6 80 41 3 c22 2 81 7 130 10 99 8 120 23 64 46 -28
12 -44 12 -98 1 -36 -7 -82 -15 -104 -18 l-39 -6 6 51 c4 28 8 52 10 54 7 7
109 24 143 24 43 0 51 15 18 33 -23 12 -35 12 -78 1 -82 -22 -86 -20 -86 30 0
52 0 52 117 66 48 6 89 13 91 15 2 2 -8 11 -23 21 -27 17 -35 17 -164 -13 -21
-5 -23 -3 -16 25 6 27 3 33 -24 46 -34 18 -35 18 -43 10z"/>
<path d="M315 593 c24 -56 21 -60 -47 -67 -146 -16 -163 -23 -110 -45 20 -9
41 -9 73 -2 24 6 56 11 70 11 24 0 27 -4 31 -39 l3 -40 -61 -10 c-33 -6 -73
-11 -87 -11 -34 0 -35 -17 -3 -32 18 -8 37 -8 70 1 73 18 78 16 74 -26 -3 -38
-3 -38 -83 -65 -44 -15 -101 -28 -127 -28 -27 0 -48 -4 -48 -8 0 -5 13 -21 29
-36 l30 -29 86 42 c47 23 90 41 95 39 4 -2 2 -20 -5 -41 -12 -34 -28 -61 -82
-136 l-17 -24 29 16 c93 48 144 172 145 352 1 44 5 100 10 125 10 52 -3 70
-53 70 -24 0 -28 -3 -22 -17z"/>
</g>
</svg>
