<?xml version="1.0" standalone="no"?>
<!DOCTYPE svg PUBLIC "-//W3C//DTD SVG 20010904//EN"
 "http://www.w3.org/TR/2001/REC-SVG-20010904/DTD/svg10.dtd">
<svg version="1.0" xmlns="http://www.w3.org/2000/svg"
 width="96.000000pt" height="68.000000pt" viewBox="0 0 96.000000 68.000000"
 preserveAspectRatio="xMidYMid meet">
<metadata>
Created by potrace 1.16, written by Peter Selinger 2001-2019
</metadata>
<g transform="translate(0.000000,68.000000) scale(0.100000,-0.100000)"
fill="#000000" stroke="none">
<path d="M385 231 c5 -15 -2 -19 -41 -25 -26 -3 -62 -6 -80 -6 -18 0 -36 -5
-40 -12 -5 -8 14 -10 74 -5 76 5 82 4 82 -14 0 -11 -9 -20 -22 -23 -24 -5
-185 -26 -200 -26 -5 0 -6 -4 -3 -10 8 -13 60 -13 147 2 55 9 73 9 76 0 5 -17
32 -15 32 2 0 11 27 16 118 21 139 8 158 12 119 29 -19 9 -46 10 -85 5 -164
-23 -152 -23 -152 -1 0 25 11 29 99 38 39 3 71 11 71 17 0 6 -29 7 -80 3 -69
-6 -80 -5 -80 8 0 10 -9 16 -21 16 -15 0 -19 -5 -14 -19z"/>
</g>
</svg>
