<?xml version="1.0" standalone="no"?>
<!DOCTYPE svg PUBLIC "-//W3C//DTD SVG 20010904//EN"
 "http://www.w3.org/TR/2001/REC-SVG-20010904/DTD/svg10.dtd">
<svg version="1.0" xmlns="http://www.w3.org/2000/svg"
 width="96.000000pt" height="68.000000pt" viewBox="0 0 96.000000 68.000000"
 preserveAspectRatio="xMidYMid meet">
<metadata>
Created by potrace 1.16, written by Peter Selinger 2001-2019
</metadata>
<g transform="translate(0.000000,68.000000) scale(0.100000,-0.100000)"
fill="#000000" stroke="none">
<path d="M274 585 c3 -8 8 -37 12 -65 7 -53 23 -62 35 -19 13 45 10 87 -7 93
-28 11 -46 7 -40 -9z"/>
<path d="M399 558 c-7 -13 -19 -28 -28 -35 -22 -17 -4 -16 46 3 47 18 53 28
24 44 -27 14 -29 13 -42 -12z"/>
<path d="M172 528 c3 -7 16 -20 31 -28 22 -12 29 -12 39 -2 11 11 9 16 -6 28
-25 18 -69 19 -64 2z"/>
</g>
</svg>
