<?xml version="1.0" standalone="no"?>
<!DOCTYPE svg PUBLIC "-//W3C//DTD SVG 20010904//EN"
 "http://www.w3.org/TR/2001/REC-SVG-20010904/DTD/svg10.dtd">
<svg version="1.0" xmlns="http://www.w3.org/2000/svg"
 width="96.000000pt" height="68.000000pt" viewBox="0 0 96.000000 68.000000"
 preserveAspectRatio="xMidYMid meet">
<metadata>
Created by potrace 1.16, written by Peter Selinger 2001-2019
</metadata>
<g transform="translate(0.000000,68.000000) scale(0.100000,-0.100000)"
fill="#000000" stroke="none">
<path d="M689 305 c-3 -2 -43 -7 -89 -10 -47 -4 -86 -8 -89 -11 -4 -3 62 -8
81 -5 4 0 4 -7 1 -16 -5 -13 -2 -15 12 -9 18 7 18 6 1 -13 -12 -14 -16 -32
-14 -67 l3 -48 -45 -8 c-24 -4 -48 -4 -53 1 -7 7 -12 38 -16 104 -1 18 -31 25
-31 6 0 -5 3 -8 8 -6 4 3 8 -22 8 -54 2 -76 9 -95 29 -79 8 7 48 12 95 13 45
0 83 4 86 9 3 4 14 3 25 -2 11 -6 24 -8 30 -4 7 4 9 -1 4 -15 -8 -26 18 -39
40 -21 12 10 12 17 3 34 -11 20 -10 20 8 6 10 -8 16 -11 12 -6 -4 5 -3 17 3
27 5 10 11 38 13 62 2 24 9 53 15 65 12 22 3 35 -21 29 -7 -2 -10 -2 -5 0 4 3
5 9 1 14 -7 12 -74 12 -74 -1 0 -5 9 -10 20 -10 11 0 20 -4 20 -10 0 -5 8 -10
18 -11 14 0 14 -2 -3 -9 l-20 -9 20 -1 20 -1 -20 -9 c-12 -5 -14 -9 -6 -9 11
-1 10 -5 -5 -15 -18 -14 -18 -15 6 -25 19 -7 21 -10 6 -10 -12 -1 -16 -6 -12
-17 3 -8 2 -12 -4 -9 -6 3 -10 -2 -10 -13 0 -17 -7 -19 -67 -17 -86 4 -81 2
-78 22 7 54 13 58 75 56 37 -1 60 2 60 9 0 7 -17 9 -47 6 -59 -7 -86 1 -73 22
5 9 5 19 -1 27 -8 9 -1 14 28 19 45 8 78 23 52 24 -9 0 -18 -2 -20 -5z"/>
<path d="M430 282 c0 -4 4 -13 9 -21 8 -12 12 -12 26 2 9 10 15 17 13 18 -30
7 -48 7 -48 1z"/>
<path d="M555 200 c-19 -8 -19 -9 3 -9 12 -1 22 4 22 9 0 6 -1 10 -2 9 -2 0
-12 -4 -23 -9z"/>
</g>
</svg>
