<?xml version="1.0" standalone="no"?>
<!DOCTYPE svg PUBLIC "-//W3C//DTD SVG 20010904//EN"
 "http://www.w3.org/TR/2001/REC-SVG-20010904/DTD/svg10.dtd">
<svg version="1.0" xmlns="http://www.w3.org/2000/svg"
 width="96.000000pt" height="68.000000pt" viewBox="0 0 96.000000 68.000000"
 preserveAspectRatio="xMidYMid meet">
<metadata>
Created by potrace 1.16, written by Peter Selinger 2001-2019
</metadata>
<g transform="translate(0.000000,68.000000) scale(0.100000,-0.100000)"
fill="#000000" stroke="none">
<path d="M496 290 c-11 -30 -38 -71 -68 -102 -37 -40 -47 -57 -40 -68 12 -19
32 -17 165 15 l107 26 24 -27 c41 -48 65 -1 25 50 -18 23 -86 66 -104 66 -4 0
3 -14 15 -31 12 -16 20 -32 17 -35 -15 -15 -187 -48 -187 -36 0 4 21 33 48 63
79 91 77 87 57 109 -28 31 -39 24 -59 -30z"/>
</g>
</svg>
