<?xml version="1.0" standalone="no"?>
<!DOCTYPE svg PUBLIC "-//W3C//DTD SVG 20010904//EN"
 "http://www.w3.org/TR/2001/REC-SVG-20010904/DTD/svg10.dtd">
<svg version="1.0" xmlns="http://www.w3.org/2000/svg"
 width="96.000000pt" height="68.000000pt" viewBox="0 0 96.000000 68.000000"
 preserveAspectRatio="xMidYMid meet">
<metadata>
Created by potrace 1.16, written by Peter Selinger 2001-2019
</metadata>
<g transform="translate(0.000000,68.000000) scale(0.100000,-0.100000)"
fill="#000000" stroke="none">
<path d="M548 585 c6 -55 -4 -65 -61 -65 -23 0 -36 -4 -32 -10 3 -5 26 -10 50
-10 30 0 45 -5 49 -16 14 -37 7 -42 -74 -49 -79 -7 -102 -19 -57 -30 12 -3 78
1 147 10 68 8 153 15 188 15 59 0 63 2 51 16 -12 14 -28 16 -111 10 l-98 -6 0
29 c0 27 3 30 50 36 75 10 65 30 -12 25 -25 -1 -27 2 -30 42 -3 40 -5 43 -34
46 l-32 3 6 -46z"/>
</g>
</svg>
