<?xml version="1.0" standalone="no"?>
<!DOCTYPE svg PUBLIC "-//W3C//DTD SVG 20010904//EN"
 "http://www.w3.org/TR/2001/REC-SVG-20010904/DTD/svg10.dtd">
<svg version="1.0" xmlns="http://www.w3.org/2000/svg"
 width="96.000000pt" height="68.000000pt" viewBox="0 0 96.000000 68.000000"
 preserveAspectRatio="xMidYMid meet">
<metadata>
Created by potrace 1.16, written by Peter Selinger 2001-2019
</metadata>
<g transform="translate(0.000000,68.000000) scale(0.100000,-0.100000)"
fill="#000000" stroke="none">
<path d="M553 397 c-149 -18 -171 -22 -160 -35 6 -8 17 -31 23 -51 7 -23 16
-35 25 -32 8 2 21 5 29 6 8 2 68 4 132 4 l117 1 36 46 c19 26 35 50 35 54 0 7
-60 33 -64 29 -1 -1 -79 -11 -173 -22z m166 -24 c-2 -48 -14 -57 -75 -59 -32
-1 -91 -5 -129 -8 l-70 -8 -12 33 c-7 18 -12 34 -10 35 3 3 205 21 255 23 34
1 42 -2 41 -16z"/>
</g>
</svg>
