<?xml version="1.0" standalone="no"?>
<!DOCTYPE svg PUBLIC "-//W3C//DTD SVG 20010904//EN"
 "http://www.w3.org/TR/2001/REC-SVG-20010904/DTD/svg10.dtd">
<svg version="1.0" xmlns="http://www.w3.org/2000/svg"
 width="90.000000pt" height="92.000000pt" viewBox="0 0 90.000000 92.000000"
 preserveAspectRatio="xMidYMid meet">
<metadata>
Created by potrace 1.16, written by Peter Selinger 2001-2019
</metadata>
<g transform="translate(0.000000,92.000000) scale(0.100000,-0.100000)"
fill="#000000" stroke="none">
<path d="M635 771 c-11 -4 -73 -19 -137 -32 -65 -13 -118 -27 -118 -31 0 -14
41 -29 61 -23 20 7 21 4 14 -62 -15 -137 -67 -305 -132 -421 -29 -52 -31 -62
-15 -53 32 17 92 117 125 207 16 46 34 84 38 84 5 0 21 -19 35 -42 15 -24 39
-62 55 -85 l28 -42 -42 -36 c-23 -20 -73 -51 -110 -70 -72 -34 -78 -52 -11
-33 51 14 147 62 163 82 19 22 24 20 45 -15 10 -17 32 -46 48 -65 24 -28 37
-34 69 -34 48 0 139 19 139 29 0 5 -21 16 -47 26 -67 25 -159 74 -178 95 -15
17 -13 25 31 117 25 54 54 106 63 116 15 18 14 20 -9 39 -18 15 -34 19 -61 15
l-37 -5 19 57 c11 31 28 68 39 83 27 37 25 52 -11 82 -33 28 -34 28 -64 17z
m3 -50 c14 -9 12 -23 -19 -133 -21 -72 -19 -71 -102 -82 -34 -4 -37 -3 -32 17
2 12 12 53 20 91 11 49 12 72 5 81 -9 11 0 15 42 23 71 13 71 13 86 3z m32
-250 c0 -28 -51 -161 -61 -161 -5 0 -33 35 -63 78 l-55 77 67 11 c103 17 112
17 112 -5z"/>
<path d="M241 749 c-29 -11 -78 -20 -107 -20 -30 -1 -54 -3 -54 -5 0 -3 6 -15
14 -27 8 -12 17 -49 21 -82 9 -81 19 -99 46 -82 32 20 39 -6 39 -146 l0 -127
-26 -10 c-45 -18 -46 -15 -42 92 l3 103 -27 9 c-15 5 -30 8 -32 5 -2 -2 0 -24
4 -49 5 -25 9 -78 10 -117 l0 -73 -45 0 c-53 0 -59 -17 -19 -49 28 -22 59 -27
68 -12 3 5 60 33 126 62 73 32 120 59 120 67 0 11 -8 13 -32 7 -53 -11 -63
-11 -62 3 1 6 2 32 3 57 1 43 2 45 30 45 40 0 61 9 61 27 0 13 -9 15 -46 10
l-45 -5 3 59 3 59 38 0 c35 0 48 12 28 25 -12 7 10 85 33 120 9 13 16 27 16
30 0 6 -62 45 -70 44 -3 0 -29 -10 -59 -20z m39 -61 c0 -13 -3 -40 -6 -60 -6
-35 -9 -37 -57 -48 -27 -6 -52 -8 -55 -6 -2 3 -5 31 -6 63 l-1 58 35 6 c74 13
90 11 90 -13z"/>
</g>
</svg>
