<?xml version="1.0" standalone="no"?>
<!DOCTYPE svg PUBLIC "-//W3C//DTD SVG 20010904//EN"
 "http://www.w3.org/TR/2001/REC-SVG-20010904/DTD/svg10.dtd">
<svg version="1.0" xmlns="http://www.w3.org/2000/svg"
 width="96.000000pt" height="68.000000pt" viewBox="0 0 96.000000 68.000000"
 preserveAspectRatio="xMidYMid meet">
<metadata>
Created by potrace 1.16, written by Peter Selinger 2001-2019
</metadata>
<g transform="translate(0.000000,68.000000) scale(0.100000,-0.100000)"
fill="#000000" stroke="none">
<path d="M590 570 c-30 -5 -85 -8 -121 -9 l-65 -1 4 -62 c3 -33 -1 -92 -8
-131 -8 -45 -9 -72 -2 -79 6 -6 35 -6 83 1 41 6 115 12 164 13 l90 3 0 -60 c0
-104 -43 -163 -100 -137 -32 15 -31 9 1 -34 31 -40 54 -43 86 -11 34 33 45 57
62 138 9 41 19 84 22 95 9 32 -37 44 -145 37 -90 -6 -90 -6 -86 17 6 31 8 32
65 38 68 6 64 22 -6 22 -52 0 -55 1 -52 23 3 19 12 23 61 31 31 5 57 13 57 18
0 5 -26 8 -57 7 l-58 -3 0 30 c0 27 3 29 40 32 59 4 87 11 80 22 -7 11 -33 11
-115 0z m-62 -66 c3 -30 1 -32 -38 -36 -23 -2 -43 -1 -45 2 -8 13 9 59 24 63
39 11 56 3 59 -29z m7 -72 c8 -22 -6 -33 -54 -39 -38 -5 -41 -4 -41 19 0 32 1
33 48 35 29 1 42 -4 47 -15z m3 -86 c0 -26 -20 -36 -75 -36 -28 0 -33 4 -33
23 0 33 7 37 60 37 44 0 48 -2 48 -24z"/>
<path d="M181 482 c18 -28 77 -65 94 -58 8 3 15 15 15 26 0 23 -51 50 -95 50
-22 0 -24 -2 -14 -18z"/>
<path d="M259 327 c-25 -23 -67 -53 -93 -65 -50 -25 -59 -54 -24 -76 13 -8 21
-5 38 17 12 15 43 50 68 78 79 86 85 113 11 46z"/>
<path d="M610 254 c0 -7 18 -23 58 -51 26 -18 47 -7 36 20 -7 20 -94 48 -94
31z"/>
<path d="M520 232 c0 -16 48 -54 59 -47 19 11 12 31 -14 43 -30 14 -45 15 -45
4z"/>
<path d="M300 187 c-25 -47 -22 -81 6 -75 31 6 53 118 24 118 -4 0 -18 -20
-30 -43z"/>
<path d="M410 224 c0 -18 43 -62 55 -57 24 9 17 31 -15 48 -32 16 -40 18 -40
9z"/>
</g>
</svg>
