<?xml version="1.0" standalone="no"?>
<!DOCTYPE svg PUBLIC "-//W3C//DTD SVG 20010904//EN"
 "http://www.w3.org/TR/2001/REC-SVG-20010904/DTD/svg10.dtd">
<svg version="1.0" xmlns="http://www.w3.org/2000/svg"
 width="96.000000pt" height="68.000000pt" viewBox="0 0 96.000000 68.000000"
 preserveAspectRatio="xMidYMid meet">
<metadata>
Created by potrace 1.16, written by Peter Selinger 2001-2019
</metadata>
<g transform="translate(0.000000,68.000000) scale(0.100000,-0.100000)"
fill="#000000" stroke="none">
<path d="M318 504 c-3 -3 -33 -5 -66 -6 l-60 -1 10 -26 c5 -15 7 -63 3 -118
-7 -90 -7 -93 14 -93 14 0 21 6 21 20 0 14 7 20 23 20 12 0 46 3 75 6 48 6 52
5 52 -15 0 -14 6 -21 19 -21 17 0 19 11 23 113 3 75 1 114 -6 119 -13 9 -100
11 -108 2z m65 -47 c5 -16 5 -33 1 -37 -5 -5 -39 -12 -76 -16 l-68 -7 0 36 c0
38 1 39 70 51 48 7 63 2 73 -27z m7 -97 c0 -26 -3 -30 -29 -30 -15 0 -49 -3
-75 -6 l-46 -7 0 31 c0 30 2 31 48 35 109 8 102 10 102 -23z"/>
</g>
</svg>
