<?xml version="1.0" standalone="no"?>
<!DOCTYPE svg PUBLIC "-//W3C//DTD SVG 20010904//EN"
 "http://www.w3.org/TR/2001/REC-SVG-20010904/DTD/svg10.dtd">
<svg version="1.0" xmlns="http://www.w3.org/2000/svg"
 width="96.000000pt" height="68.000000pt" viewBox="0 0 96.000000 68.000000"
 preserveAspectRatio="xMidYMid meet">
<metadata>
Created by potrace 1.16, written by Peter Selinger 2001-2019
</metadata>
<g transform="translate(0.000000,68.000000) scale(0.100000,-0.100000)"
fill="#000000" stroke="none">
<path d="M216 582 c-8 -14 72 -84 92 -80 10 2 18 15 20 31 3 22 -2 29 -25 38
-46 17 -80 22 -87 11z"/>
<path d="M580 519 c-25 -5 -73 -11 -108 -13 -71 -4 -77 -7 -63 -33 6 -10 15
-44 21 -75 8 -41 16 -58 27 -58 12 0 14 -7 8 -37 -8 -45 -37 -95 -82 -143 -37
-40 -36 -47 4 -26 54 27 144 176 123 201 -8 9 -4 14 15 17 36 7 45 -15 45
-106 0 -127 28 -156 150 -156 106 0 155 40 116 95 -7 11 -16 29 -18 40 -5 22
-11 13 -22 -35 -11 -47 -22 -54 -89 -58 -58 -4 -66 -2 -81 19 -19 27 -21 101
-5 148 10 28 9 34 -7 46 -17 13 -15 14 24 15 37 0 43 3 38 18 -4 10 5 40 19
68 14 27 25 52 25 56 0 8 -58 28 -79 27 -9 -1 -36 -5 -61 -10z m48 -70 c-3
-28 -11 -55 -18 -59 -18 -11 -133 -21 -141 -13 -4 5 -9 31 -11 58 l-3 50 50 6
c28 3 67 7 89 7 l39 2 -5 -51z"/>
<path d="M280 449 c-14 -6 -61 -19 -105 -29 -59 -13 -75 -20 -61 -25 17 -7 82
2 154 21 12 4 22 2 22 -4 0 -14 -126 -170 -161 -200 -17 -13 -28 -26 -26 -29
7 -6 57 19 57 29 0 4 5 8 12 8 7 0 32 19 55 42 l43 42 0 -60 c0 -34 -5 -75
-11 -93 -8 -24 -8 -39 1 -62 22 -53 35 -27 45 97 8 97 13 118 25 115 51 -13
60 -13 60 2 0 19 -30 37 -59 37 -30 0 -26 19 10 56 l31 32 -30 16 c-17 9 -32
16 -34 15 -2 0 -14 -5 -28 -10z"/>
</g>
</svg>
