<?xml version="1.0" standalone="no"?>
<!DOCTYPE svg PUBLIC "-//W3C//DTD SVG 20010904//EN"
 "http://www.w3.org/TR/2001/REC-SVG-20010904/DTD/svg10.dtd">
<svg version="1.0" xmlns="http://www.w3.org/2000/svg"
 width="90.000000pt" height="92.000000pt" viewBox="0 0 90.000000 92.000000"
 preserveAspectRatio="xMidYMid meet">
<metadata>
Created by potrace 1.16, written by Peter Selinger 2001-2019
</metadata>
<g transform="translate(0.000000,92.000000) scale(0.100000,-0.100000)"
fill="#000000" stroke="none">
<path d="M380 778 c-27 -12 -64 -20 -95 -20 l-50 0 -1 -121 c-1 -135 -24 -251
-68 -352 -15 -31 -26 -63 -26 -69 0 -14 68 80 76 106 4 13 11 17 22 13 10 -4
76 2 149 12 125 17 131 19 116 35 -9 10 -27 18 -40 18 -22 0 -24 4 -21 37 2
29 8 38 26 43 28 6 30 24 3 28 -16 3 -21 12 -23 45 -3 37 -6 42 -31 45 -25 3
-26 2 -17 -23 13 -33 13 -75 1 -75 -5 0 -16 -3 -25 -6 -13 -5 -16 1 -16 29 0
23 -6 37 -16 41 -34 13 -40 7 -40 -41 1 -43 -2 -48 -22 -51 -22 -3 -23 -2 -17
50 4 29 8 58 10 64 2 7 43 17 92 24 113 15 120 17 105 32 -17 17 -15 38 9 82
17 32 18 41 7 52 -23 23 -61 23 -108 2z m37 -69 c-3 -23 -11 -46 -19 -50 -17
-11 -110 -31 -115 -25 -3 2 -1 23 4 47 8 40 11 43 53 54 80 22 83 21 77 -26z
m-10 -286 c-2 -33 -5 -38 -29 -41 -26 -3 -28 -1 -28 31 0 40 6 47 36 47 20 0
23 -4 21 -37z m-120 21 c15 -4 22 -15 25 -40 4 -30 1 -35 -21 -40 -66 -13 -63
-14 -57 9 4 12 9 34 12 50 7 29 8 30 41 21z"/>
<path d="M625 773 c-16 -9 -45 -16 -63 -14 -31 2 -32 0 -21 -20 12 -23 6 -130
-11 -189 -5 -18 -5 -30 0 -30 19 0 49 79 56 143 6 55 10 66 28 71 44 12 46 9
46 -73 0 -56 4 -84 15 -94 32 -33 137 -28 143 6 5 24 -31 39 -63 27 -46 -18
-55 -13 -55 29 0 21 7 55 15 74 20 49 19 54 -15 72 -35 18 -38 18 -75 -2z"/>
<path d="M78 754 c19 -34 70 -76 89 -72 10 2 19 13 21 25 4 27 -30 51 -83 60
-34 6 -36 4 -27 -13z"/>
<path d="M40 530 c28 -36 58 -60 74 -60 3 0 10 9 16 20 21 39 -29 80 -97 80
l-25 0 32 -40z"/>
<path d="M650 474 c-30 -13 -66 -24 -80 -24 -14 0 -32 -5 -40 -10 -13 -8 -12
-12 7 -29 11 -11 35 -45 52 -75 26 -44 30 -59 22 -75 -12 -22 -72 -71 -116
-94 l-30 -16 28 -1 c31 0 75 20 124 56 l31 24 17 -28 c45 -70 64 -82 134 -82
101 0 105 12 19 54 -40 20 -88 49 -107 65 l-35 28 16 34 c9 19 24 54 34 79 9
25 21 49 26 55 16 17 8 42 -17 53 -14 7 -27 11 -28 11 -1 -1 -27 -12 -57 -25z
m30 -35 c0 -15 -31 -119 -35 -119 -2 0 -18 20 -35 45 l-30 44 37 20 c43 23 63
26 63 10z"/>
<path d="M106 357 c-20 -37 -53 -83 -73 -102 l-36 -35 18 -45 c27 -72 26 -73
116 175 29 80 18 83 -25 7z"/>
<path d="M422 312 c16 -37 63 -112 70 -112 5 0 11 7 14 15 11 28 -6 63 -40 84
-35 22 -50 26 -44 13z"/>
<path d="M300 292 c0 -17 -36 -77 -80 -134 -40 -52 -1 -28 76 44 l76 72 -22
18 c-28 23 -50 23 -50 0z"/>
</g>
</svg>
