<?xml version="1.0" standalone="no"?>
<!DOCTYPE svg PUBLIC "-//W3C//DTD SVG 20010904//EN"
 "http://www.w3.org/TR/2001/REC-SVG-20010904/DTD/svg10.dtd">
<svg version="1.0" xmlns="http://www.w3.org/2000/svg"
 width="96.000000pt" height="68.000000pt" viewBox="0 0 96.000000 68.000000"
 preserveAspectRatio="xMidYMid meet">
<metadata>
Created by potrace 1.16, written by Peter Selinger 2001-2019
</metadata>
<g transform="translate(0.000000,68.000000) scale(0.100000,-0.100000)"
fill="#000000" stroke="none">
<path d="M180 495 c34 -35 54 -43 64 -26 11 17 -6 40 -36 50 -57 20 -64 13
-28 -24z"/>
<path d="M110 382 c0 -14 55 -62 72 -62 20 0 25 34 7 46 -17 10 -79 23 -79 16z"/>
<path d="M186 238 c-15 -24 -44 -57 -64 -74 -34 -31 -35 -33 -22 -63 7 -18 17
-30 23 -28 11 3 100 197 94 203 -2 3 -16 -15 -31 -38z"/>
</g>
</svg>
