<?xml version="1.0" standalone="no"?>
<!DOCTYPE svg PUBLIC "-//W3C//DTD SVG 20010904//EN"
 "http://www.w3.org/TR/2001/REC-SVG-20010904/DTD/svg10.dtd">
<svg version="1.0" xmlns="http://www.w3.org/2000/svg"
 width="96.000000pt" height="68.000000pt" viewBox="0 0 96.000000 68.000000"
 preserveAspectRatio="xMidYMid meet">
<metadata>
Created by potrace 1.16, written by Peter Selinger 2001-2019
</metadata>
<g transform="translate(0.000000,68.000000) scale(0.100000,-0.100000)"
fill="#000000" stroke="none">
<path d="M525 310 c-5 -17 -15 -20 -65 -20 -32 0 -61 -4 -65 -9 -7 -12 56 -25
90 -19 52 10 16 -68 -68 -145 -45 -40 -48 -46 -23 -37 75 27 124 78 151 157
l13 38 84 7 c45 4 108 5 139 2 61 -6 85 7 48 27 -22 11 -85 9 -211 -7 -40 -6
-48 -4 -48 10 0 23 -37 20 -45 -4z"/>
<path d="M670 163 c67 -74 99 -103 111 -103 19 0 9 61 -15 85 -25 24 -117 75
-137 75 -7 0 12 -26 41 -57z"/>
</g>
</svg>
