<?xml version="1.0" standalone="no"?>
<!DOCTYPE svg PUBLIC "-//W3C//DTD SVG 20010904//EN"
 "http://www.w3.org/TR/2001/REC-SVG-20010904/DTD/svg10.dtd">
<svg version="1.0" xmlns="http://www.w3.org/2000/svg"
 width="96.000000pt" height="68.000000pt" viewBox="0 0 96.000000 68.000000"
 preserveAspectRatio="xMidYMid meet">
<metadata>
Created by potrace 1.16, written by Peter Selinger 2001-2019
</metadata>
<g transform="translate(0.000000,68.000000) scale(0.100000,-0.100000)"
fill="#000000" stroke="none">
<path d="M602 490 c-137 -22 -144 -25 -111 -38 31 -13 39 -42 39 -153 0 -72 2
-79 20 -79 17 0 20 7 20 40 l0 40 55 0 c30 0 55 5 55 10 0 11 -8 13 -67 10
-39 -1 -43 1 -43 23 0 22 5 25 60 31 33 4 60 12 60 18 0 7 -20 8 -60 4 -58 -7
-60 -6 -60 16 0 39 13 47 85 53 39 3 90 8 115 11 41 5 43 7 25 20 -24 17 -51
17 -193 -6z"/>
</g>
</svg>
