<?xml version="1.0" standalone="no"?>
<!DOCTYPE svg PUBLIC "-//W3C//DTD SVG 20010904//EN"
 "http://www.w3.org/TR/2001/REC-SVG-20010904/DTD/svg10.dtd">
<svg version="1.0" xmlns="http://www.w3.org/2000/svg"
 width="96.000000pt" height="68.000000pt" viewBox="0 0 96.000000 68.000000"
 preserveAspectRatio="xMidYMid meet">
<metadata>
Created by potrace 1.16, written by Peter Selinger 2001-2019
</metadata>
<g transform="translate(0.000000,68.000000) scale(0.100000,-0.100000)"
fill="#000000" stroke="none">
<path d="M605 309 c-71 -11 -150 -16 -174 -13 -40 5 -43 4 -36 -13 4 -10 12
-59 19 -108 12 -92 23 -126 35 -107 4 6 59 14 123 18 l117 7 12 -27 c7 -14 18
-26 25 -26 19 0 52 39 58 69 7 32 26 161 26 178 0 12 -51 44 -67 42 -4 -1 -66
-10 -138 -20z m133 -55 l3 -31 -108 -7 c-59 -3 -125 -9 -145 -12 -34 -6 -38
-4 -44 21 -3 14 -3 30 2 35 13 12 147 28 224 26 l65 -1 3 -31z m2 -81 c0 -53
-4 -54 -215 -57 l-70 -1 -3 31 -3 31 133 10 c73 5 139 10 146 11 7 1 12 -9 12
-25z"/>
</g>
</svg>
