<?xml version="1.0" standalone="no"?>
<!DOCTYPE svg PUBLIC "-//W3C//DTD SVG 20010904//EN"
 "http://www.w3.org/TR/2001/REC-SVG-20010904/DTD/svg10.dtd">
<svg version="1.0" xmlns="http://www.w3.org/2000/svg"
 width="96.000000pt" height="68.000000pt" viewBox="0 0 96.000000 68.000000"
 preserveAspectRatio="xMidYMid meet">
<metadata>
Created by potrace 1.16, written by Peter Selinger 2001-2019
</metadata>
<g transform="translate(0.000000,68.000000) scale(0.100000,-0.100000)"
fill="#000000" stroke="none">
<path d="M629 181 c11 -7 11 -9 0 -14 -12 -4 -11 -7 1 -16 10 -7 11 -11 3 -11
-7 0 -13 -12 -13 -28 0 -22 5 -28 25 -30 18 -1 23 2 18 14 -3 8 -12 13 -19 10
-8 -3 -14 -1 -14 4 0 6 7 10 15 10 18 0 19 9 5 44 -5 14 -15 26 -22 26 -10 0
-10 -2 1 -9z"/>
<path d="M773 158 c2 -7 0 -24 -5 -37 -5 -13 -6 -32 -2 -43 9 -30 37 -2 29 30
-3 13 -2 21 3 18 13 -8 11 28 -2 36 -17 12 -28 9 -23 -4z"/>
<path d="M480 150 c0 -6 4 -10 9 -10 12 0 9 -18 -8 -49 -10 -19 -11 -25 0 -31
14 -10 39 -2 39 12 0 5 5 6 10 3 6 -3 10 -1 10 4 0 6 -7 11 -15 11 -16 0 -17
30 -2 41 4 3 -4 11 -18 17 -15 7 -25 8 -25 2z m17 -82 c-3 -8 -6 -5 -6 6 -1
11 2 17 5 13 3 -3 4 -12 1 -19z"/>
<path d="M550 80 c0 -6 7 -10 15 -10 8 0 15 2 15 4 0 2 -7 6 -15 10 -8 3 -15
1 -15 -4z"/>
<path d="M590 79 c0 -5 5 -7 10 -4 6 3 10 8 10 11 0 2 -4 4 -10 4 -5 0 -10 -5
-10 -11z"/>
</g>
</svg>
