<?xml version="1.0" standalone="no"?>
<!DOCTYPE svg PUBLIC "-//W3C//DTD SVG 20010904//EN"
 "http://www.w3.org/TR/2001/REC-SVG-20010904/DTD/svg10.dtd">
<svg version="1.0" xmlns="http://www.w3.org/2000/svg"
 width="96.000000pt" height="68.000000pt" viewBox="0 0 96.000000 68.000000"
 preserveAspectRatio="xMidYMid meet">
<metadata>
Created by potrace 1.16, written by Peter Selinger 2001-2019
</metadata>
<g transform="translate(0.000000,68.000000) scale(0.100000,-0.100000)"
fill="#000000" stroke="none">
<path d="M237 507 c-10 -24 -41 -70 -69 -102 -49 -54 -50 -56 -19 -41 18 10
49 32 69 50 24 22 50 35 75 38 45 5 46 -5 6 -52 -44 -51 -17 -49 48 5 31 25
64 50 72 55 14 9 14 12 -3 25 -25 19 -38 19 -83 0 -56 -24 -68 -20 -44 13 15
22 17 32 9 40 -23 23 -43 12 -61 -31z"/>
</g>
</svg>
