<?xml version="1.0" standalone="no"?>
<!DOCTYPE svg PUBLIC "-//W3C//DTD SVG 20010904//EN"
 "http://www.w3.org/TR/2001/REC-SVG-20010904/DTD/svg10.dtd">
<svg version="1.0" xmlns="http://www.w3.org/2000/svg"
 width="96.000000pt" height="68.000000pt" viewBox="0 0 96.000000 68.000000"
 preserveAspectRatio="xMidYMid meet">
<metadata>
Created by potrace 1.16, written by Peter Selinger 2001-2019
</metadata>
<g transform="translate(0.000000,68.000000) scale(0.100000,-0.100000)"
fill="#000000" stroke="none">
<path d="M575 390 c-121 -19 -226 -30 -286 -30 l-64 0 1 -78 c2 -143 34 -168
47 -37 4 44 9 81 11 82 8 8 228 33 293 33 83 0 90 -8 78 -87 -7 -50 -24 -61
-62 -44 -14 6 -27 10 -29 8 -9 -9 51 -77 68 -77 49 0 69 32 83 134 4 27 9 54
12 62 6 16 -47 44 -79 43 -13 -1 -45 -5 -73 -9z"/>
</g>
</svg>
