<?xml version="1.0" standalone="no"?>
<!DOCTYPE svg PUBLIC "-//W3C//DTD SVG 20010904//EN"
 "http://www.w3.org/TR/2001/REC-SVG-20010904/DTD/svg10.dtd">
<svg version="1.0" xmlns="http://www.w3.org/2000/svg"
 width="96.000000pt" height="68.000000pt" viewBox="0 0 96.000000 68.000000"
 preserveAspectRatio="xMidYMid meet">
<metadata>
Created by potrace 1.16, written by Peter Selinger 2001-2019
</metadata>
<g transform="translate(0.000000,68.000000) scale(0.100000,-0.100000)"
fill="#000000" stroke="none">
<path d="M735 301 c-3 -5 4 -12 15 -16 22 -7 23 -10 24 -72 1 -24 -3 -43 -8
-43 -5 0 -6 -13 -3 -29 7 -32 -7 -51 -37 -52 -21 0 -21 0 -1 -9 11 -5 15 -9 8
-9 -18 -1 -4 -31 14 -31 9 0 22 8 29 18 16 20 18 36 4 27 -5 -3 -10 -2 -10 4
0 5 5 11 11 13 14 5 31 87 24 116 -3 13 -2 21 3 18 6 -3 12 6 15 20 3 20 -1
28 -24 39 -32 17 -55 19 -64 6z"/>
<path d="M620 290 c-21 -7 -19 -8 17 -9 23 -1 45 4 48 9 7 12 -29 12 -65 0z"/>
<path d="M495 270 c-3 -5 -3 -14 0 -20 3 -5 1 -10 -4 -10 -15 0 -14 -25 2 -39
11 -8 13 -4 12 25 -1 28 4 38 20 44 20 9 19 9 -2 9 -12 1 -25 -3 -28 -9z"/>
<path d="M485 134 c1 -25 5 -47 8 -50 8 -8 20 74 12 86 -14 23 -23 7 -20 -36z"/>
</g>
</svg>
