<?xml version="1.0" standalone="no"?>
<!DOCTYPE svg PUBLIC "-//W3C//DTD SVG 20010904//EN"
 "http://www.w3.org/TR/2001/REC-SVG-20010904/DTD/svg10.dtd">
<svg version="1.0" xmlns="http://www.w3.org/2000/svg"
 width="96.000000pt" height="68.000000pt" viewBox="0 0 96.000000 68.000000"
 preserveAspectRatio="xMidYMid meet">
<metadata>
Created by potrace 1.16, written by Peter Selinger 2001-2019
</metadata>
<g transform="translate(0.000000,68.000000) scale(0.100000,-0.100000)"
fill="#000000" stroke="none">
<path d="M275 570 c-9 -43 -74 -137 -139 -202 -32 -32 -54 -58 -51 -58 13 0
51 24 94 58 l44 35 -7 -129 c-10 -192 -10 -194 2 -206 27 -27 37 11 43 170 6
123 4 160 -6 171 -11 11 -5 26 38 88 50 72 51 75 33 89 -30 21 -44 17 -51 -16z"/>
</g>
</svg>
