<?xml version="1.0" standalone="no"?>
<!DOCTYPE svg PUBLIC "-//W3C//DTD SVG 20010904//EN"
 "http://www.w3.org/TR/2001/REC-SVG-20010904/DTD/svg10.dtd">
<svg version="1.0" xmlns="http://www.w3.org/2000/svg"
 width="96.000000pt" height="68.000000pt" viewBox="0 0 96.000000 68.000000"
 preserveAspectRatio="xMidYMid meet">
<metadata>
Created by potrace 1.16, written by Peter Selinger 2001-2019
</metadata>
<g transform="translate(0.000000,68.000000) scale(0.100000,-0.100000)"
fill="#000000" stroke="none">
<path d="M314 613 c-15 -50 -46 -94 -114 -161 -79 -78 -71 -91 19 -29 l44 30
-6 -89 c-7 -93 0 -121 28 -111 14 6 16 23 14 119 l-1 112 41 53 c47 60 49 68
22 83 -28 14 -41 12 -47 -7z"/>
<path d="M577 570 c-15 -5 -58 -12 -95 -15 -37 -4 -71 -10 -76 -12 -16 -10 19
-23 62 -23 l42 0 0 -39 0 -39 -67 -7 c-86 -8 -105 -14 -78 -25 11 -4 31 -6 45
-4 14 2 42 5 63 8 l37 4 0 -49 0 -48 -60 -7 c-33 -4 -60 -11 -60 -17 0 -6 21
-7 58 -3 31 3 105 9 165 13 98 5 105 7 86 21 -16 11 -35 13 -80 8 l-59 -7 0
44 c0 53 6 57 93 58 34 1 75 4 91 8 26 5 28 7 12 20 -16 13 -56 12 -154 -6
l-33 -5 3 43 3 44 48 3 c50 3 60 15 28 32 -23 12 -35 12 -74 0z"/>
<path d="M690 251 c0 -12 95 -101 108 -101 26 0 12 49 -20 73 -32 23 -88 41
-88 28z"/>
<path d="M440 234 c0 -15 61 -64 80 -64 35 0 25 39 -15 56 -36 15 -65 18 -65
8z"/>
<path d="M310 226 c0 -4 11 -28 25 -55 47 -95 110 -124 260 -125 92 0 156 19
155 47 -1 6 -28 29 -61 49 l-59 37 6 -39 c6 -36 4 -39 -21 -46 -14 -4 -58 -4
-96 -2 -83 6 -137 37 -165 94 -17 33 -44 58 -44 40z"/>
<path d="M207 172 c-27 -49 -27 -92 -1 -92 23 0 44 43 44 92 0 27 -4 48 -8 48
-5 0 -21 -22 -35 -48z"/>
</g>
</svg>
