<?xml version="1.0" standalone="no"?>
<!DOCTYPE svg PUBLIC "-//W3C//DTD SVG 20010904//EN"
 "http://www.w3.org/TR/2001/REC-SVG-20010904/DTD/svg10.dtd">
<svg version="1.0" xmlns="http://www.w3.org/2000/svg"
 width="90.000000pt" height="92.000000pt" viewBox="0 0 90.000000 92.000000"
 preserveAspectRatio="xMidYMid meet">
<metadata>
Created by potrace 1.16, written by Peter Selinger 2001-2019
</metadata>
<g transform="translate(0.000000,92.000000) scale(0.100000,-0.100000)"
fill="#000000" stroke="none">
<path d="M370 878 c0 -7 9 -28 21 -47 11 -18 17 -37 12 -41 -4 -4 -55 -13
-113 -19 -194 -22 -206 -26 -155 -49 20 -9 51 -8 148 8 67 11 192 25 277 31
191 14 190 14 162 42 -25 24 -51 25 -179 4 l-83 -14 0 34 c0 29 -5 36 -35 49
-42 17 -55 18 -55 2z"/>
<path d="M410 699 c-52 -10 -107 -17 -122 -14 -27 4 -38 -8 -19 -20 5 -3 17
-30 26 -61 13 -46 19 -54 34 -49 20 6 173 25 205 25 12 0 16 5 12 15 -3 8 6
28 19 44 32 37 31 47 -5 66 -34 18 -28 18 -150 -6z m100 -31 c-1 -46 -12 -56
-68 -62 -32 -4 -70 -9 -85 -12 -27 -6 -28 -4 -25 28 3 31 6 34 53 45 69 16
125 16 125 1z"/>
<path d="M450 529 c-41 -10 -105 -21 -142 -25 -71 -7 -84 -17 -45 -35 18 -8
47 -6 120 10 141 31 149 28 101 -29 -21 -24 -32 -30 -50 -26 -24 6 -33 -7 -14
-19 11 -7 13 -67 3 -104 -5 -21 -10 -23 -44 -18 l-39 5 38 -44 c66 -78 95 -52
90 81 l-3 84 77 38 c43 21 76 43 74 48 -4 13 -66 55 -80 54 -6 -1 -45 -10 -86
-20z"/>
<path d="M650 236 c0 -2 24 -39 53 -82 60 -91 87 -106 87 -49 0 20 -5 45 -11
56 -17 33 -129 97 -129 75z"/>
<path d="M127 175 c-37 -56 -44 -79 -28 -103 24 -39 83 29 85 98 1 65 -16 66
-57 5z"/>
<path d="M313 148 c28 -78 57 -92 57 -28 0 31 -6 47 -26 65 -47 44 -56 32 -31
-37z"/>
<path d="M480 205 c0 -15 62 -125 70 -125 18 0 30 38 20 64 -11 31 -90 83 -90
61z"/>
</g>
</svg>
