<?xml version="1.0" standalone="no"?>
<!DOCTYPE svg PUBLIC "-//W3C//DTD SVG 20010904//EN"
 "http://www.w3.org/TR/2001/REC-SVG-20010904/DTD/svg10.dtd">
<svg version="1.0" xmlns="http://www.w3.org/2000/svg"
 width="90.000000pt" height="92.000000pt" viewBox="0 0 90.000000 92.000000"
 preserveAspectRatio="xMidYMid meet">
<metadata>
Created by potrace 1.16, written by Peter Selinger 2001-2019
</metadata>
<g transform="translate(0.000000,92.000000) scale(0.100000,-0.100000)"
fill="#000000" stroke="none">
<path d="M516 850 c-10 -33 -36 -85 -57 -115 -21 -30 -34 -55 -28 -55 6 0 34
23 64 51 30 28 59 48 64 44 13 -7 169 13 191 25 12 7 9 11 -12 21 -22 10 -42
9 -103 -3 -41 -8 -75 -13 -75 -11 0 3 8 18 17 34 16 27 16 29 -2 49 -28 31
-39 24 -59 -40z"/>
<path d="M254 853 c-10 -43 -53 -113 -102 -165 -25 -27 -40 -48 -35 -48 15 0
123 80 123 91 0 5 21 9 48 10 64 0 141 14 154 27 7 7 4 13 -11 21 -16 9 -35 8
-82 -4 -34 -9 -63 -14 -66 -11 -3 2 6 19 19 36 l23 32 -24 19 c-31 25 -39 24
-47 -8z"/>
<path d="M550 733 c0 -16 71 -84 83 -80 20 6 21 54 0 65 -27 15 -83 25 -83 15z"/>
<path d="M280 697 c0 -19 56 -70 69 -63 15 10 14 41 -1 53 -23 18 -68 25 -68
10z"/>
<path d="M546 653 c-3 -3 -6 -21 -6 -39 0 -54 -8 -64 -51 -64 -40 0 -52 -13
-23 -24 9 -3 27 -6 41 -6 19 0 24 -4 19 -16 -3 -9 -9 -28 -13 -42 -6 -27 -6
-27 15 -9 11 10 26 32 32 48 12 28 15 29 76 29 34 0 66 5 69 10 9 15 -45 32
-82 26 -36 -5 -38 -4 -22 25 8 15 7 24 -2 35 -17 20 -45 35 -53 27z"/>
<path d="M267 614 c-3 -3 4 -21 15 -40 11 -19 18 -38 14 -41 -4 -4 -33 -9 -66
-11 -33 -2 -60 -8 -60 -12 0 -5 12 -18 26 -29 20 -15 31 -18 44 -11 10 6 30
14 44 20 24 9 27 6 41 -26 18 -43 38 -36 29 11 -5 31 -4 34 30 45 49 16 47 34
-4 25 -39 -7 -40 -6 -40 24 0 20 -7 34 -19 41 -22 11 -45 13 -54 4z"/>
<path d="M384 430 c0 -22 -4 -44 -9 -49 -12 -12 -157 -31 -232 -31 -61 0 -69
-14 -19 -35 29 -12 43 -12 102 0 38 8 79 15 92 15 l23 0 -28 -36 c-29 -39 -97
-92 -190 -150 -46 -28 -52 -34 -28 -29 48 10 137 53 178 86 21 17 41 29 43 26
3 -3 10 -38 16 -79 11 -74 25 -108 38 -88 3 5 54 13 114 17 88 5 106 9 101 21
-3 8 10 43 30 79 l35 63 -33 20 c-23 15 -41 18 -67 13 -85 -16 -196 -29 -207
-25 -8 2 1 19 23 47 34 40 39 43 102 49 37 3 129 6 205 6 117 0 137 2 137 16
0 8 -16 22 -36 30 -28 12 -46 13 -91 5 -30 -6 -98 -14 -150 -17 -95 -7 -95 -7
-84 14 17 31 14 40 -19 57 -42 22 -48 19 -46 -25z m171 -247 c-4 -32 -8 -59
-9 -60 -1 -1 -37 -5 -80 -9 -89 -8 -96 -4 -96 63 l0 42 58 6 c31 3 66 7 77 9
59 9 58 11 50 -51z"/>
</g>
</svg>
