<?xml version="1.0" standalone="no"?>
<!DOCTYPE svg PUBLIC "-//W3C//DTD SVG 20010904//EN"
 "http://www.w3.org/TR/2001/REC-SVG-20010904/DTD/svg10.dtd">
<svg version="1.0" xmlns="http://www.w3.org/2000/svg"
 width="90.000000pt" height="92.000000pt" viewBox="0 0 90.000000 92.000000"
 preserveAspectRatio="xMidYMid meet">
<metadata>
Created by potrace 1.16, written by Peter Selinger 2001-2019
</metadata>
<g transform="translate(0.000000,92.000000) scale(0.100000,-0.100000)"
fill="#000000" stroke="none">
<path d="M477 805 c-9 -59 -59 -179 -106 -252 -58 -90 -56 -86 -35 -75 11 6
32 24 48 41 16 17 33 28 38 25 12 -7 10 -174 -3 -315 -11 -107 -10 -121 6
-145 22 -34 34 -18 36 46 1 63 8 75 49 76 19 1 91 5 160 8 200 11 223 18 158
52 -30 16 -46 16 -145 -2 l-33 -6 0 46 c0 50 -1 50 88 60 87 9 59 40 -30 32
l-58 -4 0 38 0 38 58 7 c32 3 65 10 72 15 23 15 -34 30 -84 24 l-44 -6 1 40 2
40 64 10 c71 12 95 27 71 43 -15 10 -80 6 -111 -6 -12 -5 -16 1 -16 26 0 35
-42 79 -75 79 -23 0 -23 -7 7 -59 14 -23 25 -47 25 -51 0 -5 -30 -11 -67 -15
-38 -4 -76 -9 -85 -11 -13 -4 -4 19 32 88 27 51 50 101 50 110 0 17 -36 48
-56 48 -6 0 -14 -20 -17 -45z m117 -241 c3 -9 6 -28 6 -43 0 -26 -4 -29 -46
-35 -84 -11 -84 -11 -84 38 0 44 0 45 38 49 73 7 80 7 86 -9z m6 -143 l0 -40
-47 -6 c-27 -3 -56 -8 -65 -10 -15 -3 -18 4 -18 40 l0 44 58 4 c31 2 60 4 65
5 4 1 7 -16 7 -37z m8 -128 c3 -40 1 -43 -21 -43 -13 0 -45 -3 -71 -6 l-46 -7
0 49 0 49 68 0 67 0 3 -42z"/>
<path d="M160 797 c0 -8 13 -39 30 -70 21 -39 26 -57 17 -60 -7 -3 -54 -11
-105 -18 -98 -14 -115 -27 -62 -49 25 -10 40 -10 88 3 31 9 97 23 146 32 49 8
91 17 93 19 11 11 -35 30 -68 29 -38 -2 -39 -1 -39 31 0 41 -16 61 -62 81 -31
13 -38 13 -38 2z"/>
<path d="M185 543 c-27 -9 -57 -18 -65 -20 -11 -4 -10 -8 8 -16 16 -7 42 -6
93 3 72 14 92 26 68 41 -19 12 -45 10 -104 -8z"/>
<path d="M176 446 c-105 -25 -41 -49 72 -27 50 10 62 19 42 31 -19 12 -52 11
-114 -4z"/>
<path d="M215 344 c-22 -9 -61 -15 -86 -15 l-46 0 18 -37 c11 -20 19 -44 19
-54 0 -30 30 -94 38 -81 4 6 25 14 47 18 95 15 97 16 85 31 -9 10 -6 27 15 71
24 54 25 58 9 70 -23 16 -49 15 -99 -3z m37 -36 c2 -7 2 -29 -2 -48 -4 -29
-11 -37 -40 -46 -40 -13 -44 -10 -53 48 -5 35 -4 37 31 46 52 14 59 14 64 0z"/>
</g>
</svg>
