<?xml version="1.0" standalone="no"?>
<!DOCTYPE svg PUBLIC "-//W3C//DTD SVG 20010904//EN"
 "http://www.w3.org/TR/2001/REC-SVG-20010904/DTD/svg10.dtd">
<svg version="1.0" xmlns="http://www.w3.org/2000/svg"
 width="96.000000pt" height="68.000000pt" viewBox="0 0 96.000000 68.000000"
 preserveAspectRatio="xMidYMid meet">
<metadata>
Created by potrace 1.16, written by Peter Selinger 2001-2019
</metadata>
<g transform="translate(0.000000,68.000000) scale(0.100000,-0.100000)"
fill="#000000" stroke="none">
<path d="M247 507 c-20 -65 -63 -133 -124 -198 -57 -61 -35 -64 34 -4 62 54
93 59 93 15 0 -27 -4 -30 -40 -36 -49 -8 -45 -16 7 -18 l38 -1 3 -56 c3 -65 2
-66 -90 -76 -63 -6 -73 -17 -32 -35 20 -9 32 -9 57 1 18 7 67 24 110 38 42 13
77 28 77 33 0 5 -15 4 -32 -1 -53 -15 -58 -12 -58 29 0 60 10 82 35 82 31 0
55 10 55 22 0 7 -16 9 -39 5 -37 -5 -39 -3 -43 24 -4 26 -1 29 29 35 18 3 33
10 33 15 0 12 -47 11 -89 -1 -19 -5 -37 -8 -39 -5 -2 2 7 23 21 47 47 77 42
74 77 45 37 -32 60 -35 60 -8 0 13 -13 24 -40 35 -27 11 -40 22 -40 35 0 17
-18 31 -39 31 -4 0 -15 -24 -24 -53z"/>
<path d="M346 241 c-3 -4 -10 -20 -16 -35 -11 -29 -11 -29 38 2 17 11 20 18
11 28 -13 16 -25 18 -33 5z"/>
<path d="M160 211 c0 -21 37 -54 54 -48 10 4 16 12 14 19 -5 15 -68 42 -68 29z"/>
</g>
</svg>
