<?xml version="1.0" standalone="no"?>
<!DOCTYPE svg PUBLIC "-//W3C//DTD SVG 20010904//EN"
 "http://www.w3.org/TR/2001/REC-SVG-20010904/DTD/svg10.dtd">
<svg version="1.0" xmlns="http://www.w3.org/2000/svg"
 width="96.000000pt" height="68.000000pt" viewBox="0 0 96.000000 68.000000"
 preserveAspectRatio="xMidYMid meet">
<metadata>
Created by potrace 1.16, written by Peter Selinger 2001-2019
</metadata>
<g transform="translate(0.000000,68.000000) scale(0.100000,-0.100000)"
fill="#000000" stroke="none">
<path d="M434 82 c-22 -39 -22 -62 1 -62 14 0 35 50 35 81 0 29 -13 22 -36
-19z"/>
<path d="M540 110 c0 -20 29 -80 38 -80 16 0 23 30 12 50 -13 24 -50 46 -50
30z"/>
<path d="M650 110 c0 -21 37 -70 52 -70 18 0 17 32 -2 55 -13 15 -50 27 -50
15z"/>
<path d="M771 103 c26 -36 63 -73 71 -73 4 0 8 11 8 25 0 24 -13 35 -66 55
-25 10 -26 9 -13 -7z"/>
</g>
</svg>
