<?xml version="1.0" standalone="no"?>
<!DOCTYPE svg PUBLIC "-//W3C//DTD SVG 20010904//EN"
 "http://www.w3.org/TR/2001/REC-SVG-20010904/DTD/svg10.dtd">
<svg version="1.0" xmlns="http://www.w3.org/2000/svg"
 width="96.000000pt" height="68.000000pt" viewBox="0 0 96.000000 68.000000"
 preserveAspectRatio="xMidYMid meet">
<metadata>
Created by potrace 1.16, written by Peter Selinger 2001-2019
</metadata>
<g transform="translate(0.000000,68.000000) scale(0.100000,-0.100000)"
fill="#000000" stroke="none">
<path d="M580 550 c24 -33 47 -39 57 -14 8 21 -21 44 -55 44 l-23 0 21 -30z"/>
<path d="M250 543 c0 -54 -58 -155 -137 -242 -18 -20 -33 -39 -33 -44 0 -13
56 21 96 58 43 40 69 42 69 5 0 -21 -5 -25 -32 -25 -17 0 -29 -3 -26 -7 2 -5
-1 -8 -6 -8 -6 0 -11 -4 -11 -10 0 -5 18 -10 40 -10 l40 0 0 -54 c0 -62 -6
-66 -97 -66 -52 0 -60 -4 -45 -26 18 -28 51 -35 89 -18 32 13 182 64 190 64 2
0 -8 -25 -22 -56 -31 -70 -31 -75 -1 -43 45 49 89 162 101 263 7 56 7 56 42
56 30 0 34 -3 31 -22 -2 -17 -10 -23 -28 -23 -17 -1 -24 -5 -21 -15 3 -8 5
-50 5 -92 0 -89 3 -91 74 -52 l47 26 -38 -7 c-45 -7 -57 -1 -50 25 3 13 14 20
29 20 12 0 26 5 30 11 5 8 -3 10 -25 7 -27 -4 -31 -2 -31 19 0 14 -6 23 -15
23 -8 0 -15 5 -15 10 0 6 30 10 70 10 l70 0 0 -73 c0 -69 2 -74 25 -85 35 -16
137 -15 159 1 16 11 16 15 2 42 l-15 29 -10 -26 c-18 -47 -131 -51 -131 -4 0
18 10 26 56 42 31 10 56 24 55 29 -1 13 -51 20 -51 7 0 -5 -11 -14 -25 -20
-21 -10 -25 -9 -25 3 0 8 1 17 3 18 1 2 -4 11 -12 20 -11 14 -11 18 2 23 9 3
24 1 35 -5 21 -11 31 -3 66 53 23 36 11 49 -48 49 -42 0 -46 2 -46 23 0 13 -5
24 -11 24 -5 0 -7 5 -4 10 3 6 31 10 61 10 30 0 54 4 54 10 0 19 -72 22 -179
6 -60 -9 -125 -16 -145 -16 -35 0 -55 -13 -36 -25 15 -9 12 -121 -6 -200 -9
-38 -16 -74 -17 -80 0 -5 -22 -11 -49 -12 l-49 -3 3 53 3 52 39 5 c58 7 59 30
2 30 -42 0 -46 2 -46 24 0 19 7 25 35 30 19 4 35 11 35 16 0 13 -41 17 -83 6
-21 -5 -40 -6 -43 -3 -7 6 45 97 55 97 4 0 22 -11 41 -25 40 -29 46 -30 54 -9
9 23 -18 50 -56 58 -21 4 -28 10 -25 21 6 15 -27 45 -50 45 -7 0 -13 -12 -13
-27z m390 -98 c0 -33 -2 -35 -35 -35 -30 0 -35 3 -35 23 0 13 -5 28 -12 35 -9
9 -2 12 35 12 l47 0 0 -35z m-110 4 c16 -29 5 -49 -25 -49 -22 0 -25 4 -25 35
0 28 4 35 20 35 10 0 24 -9 30 -21z m200 -58 c0 -27 -15 -41 -41 -41 -32 0
-34 3 -19 31 11 19 60 27 60 10z m-90 -26 c0 -22 -4 -25 -35 -25 -27 0 -35 4
-35 18 0 25 9 32 42 32 23 0 28 -4 28 -25z"/>
<path d="M330 220 c-17 -41 -8 -47 30 -20 34 24 35 43 3 48 -15 2 -24 -6 -33
-28z"/>
<path d="M150 212 c0 -14 52 -63 63 -59 20 6 20 40 1 54 -19 14 -64 18 -64 5z"/>
<path d="M450 109 c0 -6 -7 -17 -15 -25 -16 -17 -21 -64 -6 -64 15 0 29 24 36
63 5 25 4 37 -4 37 -6 0 -11 -5 -11 -11z"/>
<path d="M540 111 c0 -4 5 -22 11 -40 13 -36 47 -40 41 -6 -6 33 -52 74 -52
46z"/>
<path d="M646 108 c21 -37 46 -68 55 -68 21 0 20 32 -1 56 -24 25 -67 35 -54
12z"/>
<path d="M786 83 c44 -60 64 -68 64 -28 0 19 -10 29 -40 45 -54 28 -57 26 -24
-17z"/>
</g>
</svg>
