<?xml version="1.0" standalone="no"?>
<!DOCTYPE svg PUBLIC "-//W3C//DTD SVG 20010904//EN"
 "http://www.w3.org/TR/2001/REC-SVG-20010904/DTD/svg10.dtd">
<svg version="1.0" xmlns="http://www.w3.org/2000/svg"
 width="96.000000pt" height="68.000000pt" viewBox="0 0 96.000000 68.000000"
 preserveAspectRatio="xMidYMid meet">
<metadata>
Created by potrace 1.16, written by Peter Selinger 2001-2019
</metadata>
<g transform="translate(0.000000,68.000000) scale(0.100000,-0.100000)"
fill="#000000" stroke="none">
<path d="M327 263 c-4 -3 -7 -17 -7 -29 0 -19 -7 -24 -42 -28 -166 -22 -165
-22 -136 -34 20 -8 43 -9 79 -2 99 19 100 18 97 -50 -2 -57 12 -94 29 -77 4 4
9 40 12 80 5 63 9 72 26 74 108 10 135 16 129 25 -4 6 -33 8 -80 3 l-74 -7 0
26 c0 24 -18 35 -33 19z"/>
</g>
</svg>
