<?xml version="1.0" standalone="no"?>
<!DOCTYPE svg PUBLIC "-//W3C//DTD SVG 20010904//EN"
 "http://www.w3.org/TR/2001/REC-SVG-20010904/DTD/svg10.dtd">
<svg version="1.0" xmlns="http://www.w3.org/2000/svg"
 width="96.000000pt" height="68.000000pt" viewBox="0 0 96.000000 68.000000"
 preserveAspectRatio="xMidYMid meet">
<metadata>
Created by potrace 1.16, written by Peter Selinger 2001-2019
</metadata>
<g transform="translate(0.000000,68.000000) scale(0.100000,-0.100000)"
fill="#000000" stroke="none">
<path d="M401 445 c-14 -39 -24 -43 -43 -17 -16 23 -57 46 -66 37 -4 -4 10
-22 31 -40 36 -32 38 -36 35 -87 -3 -45 -6 -53 -22 -51 -17 1 -17 0 3 -20 32
-32 48 -8 54 76 3 61 7 71 32 91 16 13 25 28 21 34 -13 22 -32 12 -45 -23z"/>
<path d="M507 445 c-17 -21 -37 -35 -50 -35 -20 0 -22 -5 -22 -65 0 -53 3 -65
16 -65 15 0 49 30 49 43 0 4 -7 7 -15 7 -18 0 -21 50 -3 68 19 19 24 15 49
-48 19 -48 28 -60 46 -60 30 0 37 16 16 32 -25 18 -73 77 -73 89 0 5 11 14 25
19 28 11 31 20 13 38 -17 17 -20 16 -51 -23z"/>
<path d="M190 406 c-45 -10 -51 -14 -32 -20 28 -9 28 -21 -3 -75 -32 -55 -31
-61 1 -30 33 31 65 84 62 100 -2 8 7 15 20 17 22 3 23 1 20 -45 -2 -32 -7 -47
-15 -45 -17 3 -16 -10 1 -34 21 -27 34 -10 56 69 16 57 16 66 3 71 -20 8 -48
6 -113 -8z"/>
<path d="M477 247 c5 -23 2 -24 -68 -31 -40 -3 -82 -9 -94 -12 -17 -4 -24 0
-28 15 -3 14 -13 21 -30 21 -24 0 -25 -3 -20 -34 8 -54 -5 -103 -39 -141 -18
-21 -25 -35 -17 -35 19 1 53 29 73 61 15 24 24 27 104 33 48 4 95 9 104 12 15
4 17 -4 20 -57 2 -36 8 -64 15 -66 17 -6 21 20 25 142 l3 110 -26 3 c-23 3
-26 0 -22 -21z m3 -69 c0 -21 -5 -23 -58 -25 -31 -1 -76 -5 -99 -8 -38 -6 -43
-4 -43 14 0 17 9 20 68 26 37 4 72 8 77 10 6 2 20 4 33 4 16 1 22 -5 22 -21z"/>
</g>
</svg>
