<?xml version="1.0" standalone="no"?>
<!DOCTYPE svg PUBLIC "-//W3C//DTD SVG 20010904//EN"
 "http://www.w3.org/TR/2001/REC-SVG-20010904/DTD/svg10.dtd">
<svg version="1.0" xmlns="http://www.w3.org/2000/svg"
 width="96.000000pt" height="68.000000pt" viewBox="0 0 96.000000 68.000000"
 preserveAspectRatio="xMidYMid meet">
<metadata>
Created by potrace 1.16, written by Peter Selinger 2001-2019
</metadata>
<g transform="translate(0.000000,68.000000) scale(0.100000,-0.100000)"
fill="#000000" stroke="none">
<path d="M507 278 c4 -7 10 -53 13 -102 5 -83 7 -90 33 -110 51 -38 223 -21
247 24 7 13 7 21 -1 26 -6 3 -17 20 -25 38 -10 25 -13 27 -14 10 0 -12 -9 -33
-21 -48 -18 -23 -27 -26 -88 -26 -56 0 -71 4 -86 20 -16 18 -17 27 -8 68 6 26
14 57 18 68 5 18 1 23 -26 33 -41 14 -52 14 -42 -1z"/>
</g>
</svg>
