<?xml version="1.0" standalone="no"?>
<!DOCTYPE svg PUBLIC "-//W3C//DTD SVG 20010904//EN"
 "http://www.w3.org/TR/2001/REC-SVG-20010904/DTD/svg10.dtd">
<svg version="1.0" xmlns="http://www.w3.org/2000/svg"
 width="96.000000pt" height="68.000000pt" viewBox="0 0 96.000000 68.000000"
 preserveAspectRatio="xMidYMid meet">
<metadata>
Created by potrace 1.16, written by Peter Selinger 2001-2019
</metadata>
<g transform="translate(0.000000,68.000000) scale(0.100000,-0.100000)"
fill="#000000" stroke="none">
<path d="M590 426 l0 -64 -95 -7 c-52 -4 -95 -11 -95 -15 0 -16 41 -22 114
-15 l73 7 6 -47 c4 -26 7 -94 7 -151 0 -97 7 -122 26 -92 4 7 11 74 14 150 4
76 10 141 13 145 4 3 49 8 102 11 96 5 112 12 74 33 -20 10 -53 9 -148 -8
l-34 -6 5 52 c4 43 2 53 -13 61 -41 22 -49 14 -49 -54z"/>
</g>
</svg>
