<?xml version="1.0" standalone="no"?>
<!DOCTYPE svg PUBLIC "-//W3C//DTD SVG 20010904//EN"
 "http://www.w3.org/TR/2001/REC-SVG-20010904/DTD/svg10.dtd">
<svg version="1.0" xmlns="http://www.w3.org/2000/svg"
 width="90.000000pt" height="92.000000pt" viewBox="0 0 90.000000 92.000000"
 preserveAspectRatio="xMidYMid meet">
<metadata>
Created by potrace 1.16, written by Peter Selinger 2001-2019
</metadata>
<g transform="translate(0.000000,92.000000) scale(0.100000,-0.100000)"
fill="#000000" stroke="none">
<path d="M602 851 c-68 -17 -78 -38 -16 -32 21 2 53 4 69 5 l30 1 3 -75 c4
-105 -2 -123 -38 -118 -19 3 -27 1 -23 -6 40 -69 54 -85 68 -79 30 11 45 59
45 145 0 46 4 97 9 115 8 28 6 34 -15 47 -28 19 -48 18 -132 -3z"/>
<path d="M415 835 c-16 -8 -42 -14 -57 -15 -29 0 -38 -17 -14 -26 8 -3 33 0
56 6 55 15 60 8 60 -92 0 -80 -8 -95 -44 -89 -20 3 -20 1 13 -51 19 -32 26
-36 42 -28 24 14 42 81 34 133 -4 23 -1 64 5 92 10 46 10 51 -11 67 -25 21
-43 21 -84 3z"/>
<path d="M205 774 c-27 -10 -56 -13 -89 -8 -45 6 -48 5 -41 -12 24 -57 27
-252 5 -389 -6 -38 -26 -103 -45 -142 -19 -40 -30 -73 -25 -73 24 0 83 90 102
157 19 62 24 71 39 62 25 -13 22 -14 63 38 l36 46 0 -84 c0 -46 -3 -101 -7
-122 l-6 -38 -40 6 -40 7 44 -51 c24 -28 47 -51 50 -51 3 0 14 9 25 21 15 17
20 40 22 119 l4 98 46 18 c60 22 139 73 176 113 17 17 34 31 38 31 5 0 44 -33
88 -74 43 -41 89 -77 100 -81 24 -8 120 13 120 25 0 5 -30 18 -67 30 -74 24
-226 117 -217 132 8 13 -25 48 -46 48 -11 0 -20 -10 -23 -29 -3 -15 -18 -42
-32 -59 -31 -38 -155 -132 -172 -132 -17 0 -18 295 -2 337 9 25 7 30 -18 50
-32 26 -35 27 -88 7z m39 -50 c3 -9 6 -42 6 -75 l0 -59 -37 16 c-62 27 -68 31
-67 43 1 6 2 26 3 45 1 36 10 43 62 45 16 1 29 -5 33 -15z m-61 -160 c17 -15
38 -23 49 -21 15 4 18 -1 18 -29 0 -30 -6 -38 -47 -64 -26 -17 -51 -30 -55
-30 -5 0 -8 38 -7 85 1 47 4 85 6 85 3 0 19 -12 36 -26z"/>
<path d="M560 776 c0 -18 49 -58 61 -50 19 11 9 45 -17 54 -35 13 -44 13 -44
-4z"/>
<path d="M340 752 c0 -17 49 -54 64 -49 22 9 20 34 -3 47 -23 12 -61 13 -61 2z"/>
<path d="M620 699 c-30 -16 -63 -29 -72 -29 -23 0 -23 -13 2 -35 19 -17 21
-17 65 19 35 29 78 80 63 75 -2 0 -28 -14 -58 -30z"/>
<path d="M373 666 c-34 -17 -62 -36 -62 -43 -1 -16 32 -34 45 -25 20 16 87 92
83 95 -2 2 -32 -10 -66 -27z"/>
<path d="M526 452 c-17 -32 -45 -63 -106 -116 -42 -36 -43 -38 -16 -32 28 7
110 59 171 109 24 21 27 27 17 40 -24 28 -51 27 -66 -1z"/>
<path d="M580 375 c0 -21 -83 -103 -150 -148 -30 -20 -48 -37 -39 -37 28 0
132 58 189 105 30 25 58 45 62 45 19 0 6 28 -17 38 -35 16 -45 15 -45 -3z"/>
<path d="M640 285 c-18 -47 -147 -157 -251 -215 -45 -24 -50 -30 -29 -30 41 0
189 80 278 150 l81 65 -26 27 c-33 34 -41 35 -53 3z"/>
</g>
</svg>
