<?xml version="1.0" standalone="no"?>
<!DOCTYPE svg PUBLIC "-//W3C//DTD SVG 20010904//EN"
 "http://www.w3.org/TR/2001/REC-SVG-20010904/DTD/svg10.dtd">
<svg version="1.0" xmlns="http://www.w3.org/2000/svg"
 width="90.000000pt" height="92.000000pt" viewBox="0 0 90.000000 92.000000"
 preserveAspectRatio="xMidYMid meet">
<metadata>
Created by potrace 1.16, written by Peter Selinger 2001-2019
</metadata>
<g transform="translate(0.000000,92.000000) scale(0.100000,-0.100000)"
fill="#000000" stroke="none">
<path d="M546 848 c-8 -44 -82 -151 -118 -172 -49 -30 -32 -95 21 -75 14 6 80
24 145 40 117 28 120 28 133 9 20 -28 43 -50 54 -50 17 0 22 53 8 79 -17 30
-83 77 -124 87 l-29 7 32 -41 33 -41 -33 -6 c-39 -6 -169 -25 -181 -25 -4 0
22 39 58 86 61 80 65 88 52 108 -23 34 -43 31 -51 -6z"/>
<path d="M155 778 c4 -13 10 -62 12 -110 l5 -88 -34 -2 c-18 -1 -50 0 -70 1
l-36 2 18 -35 c10 -20 21 -64 24 -99 9 -78 20 -100 40 -74 7 9 23 17 35 17 19
0 21 -5 21 -70 l0 -69 -37 -10 c-21 -6 -57 -11 -80 -11 -24 0 -43 -4 -43 -10
0 -5 16 -20 36 -34 36 -24 36 -24 67 -6 18 10 69 35 114 54 l82 35 13 -27 c16
-32 28 -34 38 -7 12 34 -8 81 -46 110 -42 32 -55 26 -30 -16 l17 -29 -35 -15
c-19 -8 -38 -15 -41 -15 -3 0 -5 29 -5 64 0 71 5 76 83 76 38 0 45 8 27 26
-12 12 22 118 41 129 33 21 -29 63 -76 51 -14 -3 -37 -9 -51 -12 l-27 -7 7 54
c4 30 9 70 12 89 5 32 3 37 -21 48 -14 7 -35 12 -47 12 -17 0 -19 -4 -13 -22z
m145 -225 c-1 -36 -19 -96 -32 -104 -7 -5 -21 -9 -30 -9 -15 0 -18 10 -18 65
l0 65 40 0 c32 0 40 -4 40 -17z m-132 -65 c-3 -60 -4 -63 -28 -63 -23 0 -25 5
-31 55 -3 30 -4 58 -2 63 2 4 18 7 34 7 l30 0 -3 -62z"/>
<path d="M567 557 l6 -64 -39 -6 c-63 -11 -65 -10 -46 23 16 30 16 32 -2 45
-28 21 -46 18 -46 -6 0 -11 -14 -55 -30 -96 -17 -42 -29 -78 -26 -80 2 -2 19
14 38 37 33 38 38 40 91 40 l57 0 0 -49 0 -49 -100 -12 c-55 -7 -100 -16 -100
-21 0 -5 12 -15 26 -22 22 -12 35 -12 83 -1 97 23 91 31 91 -113 0 -117 9
-170 23 -146 12 18 27 139 27 211 l0 72 120 0 c99 0 120 3 120 15 0 8 -13 21
-30 30 -24 12 -42 13 -97 5 -116 -16 -113 -17 -113 40 0 28 3 50 8 50 29 0
139 23 146 30 20 20 -39 33 -94 21 -29 -6 -55 -10 -57 -8 -2 3 1 23 6 47 9 41
9 42 -25 56 -18 8 -36 14 -38 14 -3 0 -3 -29 1 -63z"/>
</g>
</svg>
