<?xml version="1.0" standalone="no"?>
<!DOCTYPE svg PUBLIC "-//W3C//DTD SVG 20010904//EN"
 "http://www.w3.org/TR/2001/REC-SVG-20010904/DTD/svg10.dtd">
<svg version="1.0" xmlns="http://www.w3.org/2000/svg"
 width="96.000000pt" height="68.000000pt" viewBox="0 0 96.000000 68.000000"
 preserveAspectRatio="xMidYMid meet">
<metadata>
Created by potrace 1.16, written by Peter Selinger 2001-2019
</metadata>
<g transform="translate(0.000000,68.000000) scale(0.100000,-0.100000)"
fill="#000000" stroke="none">
<path d="M239 512 c0 -43 -6 -95 -12 -116 -10 -33 -18 -41 -47 -49 -19 -5 -47
-7 -62 -5 -18 3 -28 0 -28 -8 0 -17 51 -33 75 -23 39 15 42 9 20 -43 -5 -12 4
-23 35 -43 41 -26 42 -27 23 -47 -10 -11 -35 -29 -55 -39 -20 -10 -39 -23 -43
-28 -11 -18 59 8 101 38 l41 29 29 -24 c33 -27 64 -31 64 -9 0 17 -30 50 -51
57 -11 4 -8 17 13 64 14 32 29 67 32 77 3 9 16 22 28 27 18 7 19 9 6 9 -10 1
-18 5 -18 9 0 12 -49 34 -60 27 -4 -3 -6 -13 -3 -24 4 -15 -3 -20 -32 -25 -20
-4 -39 -6 -41 -3 -2 2 10 45 26 96 29 89 30 94 13 107 -46 34 -53 27 -54 -54z
m87 -185 c-11 -44 -36 -97 -47 -97 -5 0 -23 7 -39 15 -27 14 -28 16 -17 50 8
26 18 37 36 41 14 3 31 7 36 9 28 9 37 4 31 -18z"/>
</g>
</svg>
