<?xml version="1.0" standalone="no"?>
<!DOCTYPE svg PUBLIC "-//W3C//DTD SVG 20010904//EN"
 "http://www.w3.org/TR/2001/REC-SVG-20010904/DTD/svg10.dtd">
<svg version="1.0" xmlns="http://www.w3.org/2000/svg"
 width="96.000000pt" height="68.000000pt" viewBox="0 0 96.000000 68.000000"
 preserveAspectRatio="xMidYMid meet">
<metadata>
Created by potrace 1.16, written by Peter Selinger 2001-2019
</metadata>
<g transform="translate(0.000000,68.000000) scale(0.100000,-0.100000)"
fill="#000000" stroke="none">
<path d="M568 579 c18 -19 15 -76 -4 -83 -9 -3 -38 -6 -65 -6 -27 0 -49 -4
-49 -10 0 -6 28 -10 65 -10 50 0 65 -3 65 -15 0 -9 -14 -16 -37 -20 -67 -11
-69 -13 -15 -14 45 -1 52 -4 52 -21 0 -13 7 -20 20 -20 13 0 20 7 20 20 0 16
9 21 50 26 62 8 66 24 5 24 -63 0 -62 25 1 35 60 9 75 15 68 27 -3 5 -29 6
-60 2 l-54 -6 3 38 c2 39 2 39 -38 42 -32 3 -38 1 -27 -9z"/>
</g>
</svg>
