<?xml version="1.0" standalone="no"?>
<!DOCTYPE svg PUBLIC "-//W3C//DTD SVG 20010904//EN"
 "http://www.w3.org/TR/2001/REC-SVG-20010904/DTD/svg10.dtd">
<svg version="1.0" xmlns="http://www.w3.org/2000/svg"
 width="96.000000pt" height="68.000000pt" viewBox="0 0 96.000000 68.000000"
 preserveAspectRatio="xMidYMid meet">
<metadata>
Created by potrace 1.16, written by Peter Selinger 2001-2019
</metadata>
<g transform="translate(0.000000,68.000000) scale(0.100000,-0.100000)"
fill="#000000" stroke="none">
<path d="M546 118 c5 -7 2 -9 -8 -6 -8 3 -19 -2 -25 -11 -8 -13 -7 -17 8 -17
9 0 15 5 12 10 -4 5 1 7 10 3 16 -6 41 15 30 26 -11 12 -35 8 -27 -5z"/>
<path d="M666 98 c3 -5 10 -6 15 -3 13 9 11 12 -6 12 -8 0 -12 -4 -9 -9z"/>
<path d="M694 89 c-3 -5 2 -12 10 -15 9 -3 13 -11 9 -18 -3 -6 -3 -8 2 -4 4 4
14 0 22 -8 8 -8 20 -11 26 -7 8 5 8 8 0 10 -7 3 -9 12 -6 20 5 13 2 15 -11 10
-9 -4 -15 -3 -12 2 3 5 -3 11 -14 14 -11 3 -23 1 -26 -4z"/>
<path d="M459 53 c-13 -16 -12 -17 4 -4 16 13 21 21 13 21 -2 0 -10 -8 -17
-17z"/>
</g>
</svg>
