<?xml version="1.0" standalone="no"?>
<!DOCTYPE svg PUBLIC "-//W3C//DTD SVG 20010904//EN"
 "http://www.w3.org/TR/2001/REC-SVG-20010904/DTD/svg10.dtd">
<svg version="1.0" xmlns="http://www.w3.org/2000/svg"
 width="96.000000pt" height="68.000000pt" viewBox="0 0 96.000000 68.000000"
 preserveAspectRatio="xMidYMid meet">
<metadata>
Created by potrace 1.16, written by Peter Selinger 2001-2019
</metadata>
<g transform="translate(0.000000,68.000000) scale(0.100000,-0.100000)"
fill="#000000" stroke="none">
<path d="M597 403 c4 -206 8 -246 34 -269 34 -31 171 -32 213 -1 16 12 16 16
3 47 -9 19 -19 44 -23 55 -5 16 -8 13 -16 -19 -4 -21 -16 -45 -26 -52 -25 -20
-116 -18 -133 3 -19 22 -19 180 -1 192 7 4 45 14 83 21 41 8 69 18 69 26 0 23
-30 23 -82 -1 -29 -14 -59 -25 -65 -25 -15 0 -16 36 -4 117 8 57 1 73 -33 73
-20 0 -21 -4 -19 -167z"/>
<path d="M280 495 c-25 -7 -66 -16 -92 -20 -59 -8 -63 -25 -7 -25 41 0 41 0
35 -31 -7 -34 -29 -69 -93 -145 -24 -28 -43 -54 -43 -58 0 -4 24 6 54 24 l54
30 7 -32 c17 -76 16 -75 88 -65 45 7 64 14 60 23 -2 6 5 33 17 59 18 39 19 49
8 56 -18 12 -49 11 -86 -2 -17 -6 -40 -9 -51 -7 -18 3 -17 8 20 62 24 36 37
66 34 76 -5 14 3 19 39 24 55 9 67 22 31 36 -14 6 -27 10 -28 9 -1 -1 -22 -7
-47 -14z m37 -241 c-5 -50 -18 -64 -59 -64 -23 0 -27 5 -33 41 -8 45 -2 55 35
62 63 11 63 11 57 -39z"/>
<path d="M427 478 c12 -33 5 -258 -8 -291 -10 -23 -9 -31 3 -44 14 -13 22 -10
77 33 62 48 76 63 42 44 -11 -5 -32 -15 -46 -20 l-27 -10 3 147 c3 137 2 147
-17 154 -31 12 -36 10 -27 -13z"/>
<path d="M498 353 c-10 -2 -18 -9 -18 -14 0 -5 8 -9 18 -9 28 0 62 12 62 21 0
9 -31 10 -62 2z"/>
</g>
</svg>
