<?xml version="1.0" standalone="no"?>
<!DOCTYPE svg PUBLIC "-//W3C//DTD SVG 20010904//EN"
 "http://www.w3.org/TR/2001/REC-SVG-20010904/DTD/svg10.dtd">
<svg version="1.0" xmlns="http://www.w3.org/2000/svg"
 width="96.000000pt" height="68.000000pt" viewBox="0 0 96.000000 68.000000"
 preserveAspectRatio="xMidYMid meet">
<metadata>
Created by potrace 1.16, written by Peter Selinger 2001-2019
</metadata>
<g transform="translate(0.000000,68.000000) scale(0.100000,-0.100000)"
fill="#000000" stroke="none">
<path d="M297 561 c-11 -51 -74 -145 -146 -216 -39 -38 -69 -71 -67 -73 10 -9
51 13 112 58 l64 49 0 -61 c0 -33 -5 -89 -11 -123 -14 -75 -7 -115 21 -115 11
0 20 1 21 3 1 1 7 67 13 147 10 122 10 148 -2 167 -15 24 -14 26 40 99 43 58
46 69 19 84 -36 19 -58 12 -64 -19z"/>
<path d="M500 535 c0 -12 35 -61 53 -76 19 -16 17 -17 -46 -23 -36 -4 -79 -11
-94 -15 l-28 -8 30 -15 c27 -14 33 -28 58 -115 15 -54 27 -103 27 -109 0 -12
-54 -24 -112 -24 -21 0 -38 -4 -38 -10 0 -17 67 -22 156 -11 49 6 144 11 212
11 70 0 122 4 122 9 0 6 -10 17 -22 25 -17 12 -38 14 -101 9 -67 -5 -79 -4
-74 8 84 196 88 211 70 225 -16 12 -14 13 19 14 20 0 39 4 43 10 10 16 -66 30
-115 20 -62 -12 -60 -13 -60 15 0 18 -10 31 -32 45 -31 19 -68 27 -68 15z
m155 -125 c7 -11 -9 -112 -31 -187 -14 -50 -16 -53 -48 -53 -33 0 -34 1 -40
51 -7 52 -35 119 -64 152 -20 22 -14 27 45 37 69 11 131 12 138 0z"/>
</g>
</svg>
