<?xml version="1.0" standalone="no"?>
<!DOCTYPE svg PUBLIC "-//W3C//DTD SVG 20010904//EN"
 "http://www.w3.org/TR/2001/REC-SVG-20010904/DTD/svg10.dtd">
<svg version="1.0" xmlns="http://www.w3.org/2000/svg"
 width="96.000000pt" height="68.000000pt" viewBox="0 0 96.000000 68.000000"
 preserveAspectRatio="xMidYMid meet">
<metadata>
Created by potrace 1.16, written by Peter Selinger 2001-2019
</metadata>
<g transform="translate(0.000000,68.000000) scale(0.100000,-0.100000)"
fill="#000000" stroke="none">
<path d="M208 564 c-4 -3 -4 -14 1 -23 5 -9 11 -50 14 -92 l5 -77 -54 -7 c-30
-3 -54 -10 -54 -15 0 -10 55 -21 85 -17 18 2 20 -4 20 -68 l0 -70 -62 -15
c-35 -8 -63 -19 -63 -24 0 -13 33 -35 53 -36 20 0 232 105 242 120 9 14 -17
12 -58 -5 -56 -23 -58 -21 -55 47 3 61 4 62 34 69 18 3 40 9 50 13 27 11 -1
26 -48 26 -37 0 -38 1 -38 38 0 20 4 54 9 74 6 27 5 40 -4 48 -16 13 -68 23
-77 14z"/>
<path d="M580 514 c-41 -7 -106 -13 -144 -13 -67 -1 -69 -2 -52 -20 9 -10 24
-54 33 -97 17 -86 25 -102 45 -88 7 5 20 9 28 8 8 -1 23 -2 33 -3 13 -1 17
-10 17 -41 0 -22 -3 -39 -7 -39 -5 1 -29 1 -55 0 -67 -1 -60 -21 7 -21 l55 0
0 -39 c0 -38 0 -38 -46 -45 -26 -3 -71 -6 -100 -6 -56 0 -73 -15 -29 -26 14
-4 88 -1 163 5 76 6 174 11 219 11 89 0 110 10 62 30 -23 10 -54 11 -125 4
l-94 -9 0 37 c0 35 2 37 38 43 79 13 92 17 92 27 0 6 -24 9 -65 6 l-65 -4 0
38 c0 34 3 38 28 39 15 1 32 0 37 -1 41 -11 48 -5 80 80 18 47 36 93 40 102 5
13 0 20 -20 28 -33 13 -79 11 -175 -6z m120 -42 c0 -16 -7 -52 -15 -80 -16
-51 -16 -52 -55 -52 -37 0 -40 2 -40 29 0 26 4 29 45 35 57 9 58 26 2 26 -43
0 -44 0 -44 35 l0 35 54 0 c51 0 53 -1 53 -28z m-175 2 c9 -9 15 -26 13 -37
-2 -17 -12 -21 -49 -24 -42 -4 -47 -2 -53 19 -10 40 -7 47 27 51 17 2 35 5 39
5 4 1 14 -5 23 -14z m15 -113 c0 -20 -6 -31 -17 -33 -35 -7 -61 4 -66 28 -5
31 -1 34 45 34 35 0 38 -2 38 -29z"/>
</g>
</svg>
