<?xml version="1.0" standalone="no"?>
<!DOCTYPE svg PUBLIC "-//W3C//DTD SVG 20010904//EN"
 "http://www.w3.org/TR/2001/REC-SVG-20010904/DTD/svg10.dtd">
<svg version="1.0" xmlns="http://www.w3.org/2000/svg"
 width="90.000000pt" height="92.000000pt" viewBox="0 0 90.000000 92.000000"
 preserveAspectRatio="xMidYMid meet">
<metadata>
Created by potrace 1.16, written by Peter Selinger 2001-2019
</metadata>
<g transform="translate(0.000000,92.000000) scale(0.100000,-0.100000)"
fill="#000000" stroke="none">
<path d="M473 855 c-36 -25 -134 -67 -208 -88 l-50 -15 50 -1 c28 0 66 3 87 8
l36 8 4 -46 c3 -25 4 -47 3 -49 -2 -1 -64 -10 -140 -20 -75 -9 -138 -21 -138
-27 -1 -23 54 -29 144 -16 50 7 93 10 96 7 12 -12 -146 -155 -227 -205 -71
-44 -79 -52 -50 -46 75 14 161 64 236 137 l74 71 0 -52 c0 -64 15 -98 36 -80
10 8 14 33 14 80 0 38 2 69 6 69 8 0 160 -98 229 -147 66 -48 90 -53 100 -22
15 46 -66 96 -314 191 -45 17 -7 27 133 35 150 9 175 20 112 49 -33 16 -41 16
-135 1 -136 -23 -127 -26 -125 35 l2 53 61 19 c66 22 74 35 36 60 -30 20 -33
20 -72 -9z"/>
<path d="M465 424 c-27 -9 -83 -16 -122 -17 -40 -1 -73 -4 -73 -7 0 -3 5 -22
9 -44 6 -23 5 -76 -1 -135 -7 -71 -7 -104 2 -126 12 -29 13 -29 22 -9 8 17 22
22 76 28 118 11 121 10 138 -29 18 -43 29 -44 54 -3 19 30 20 44 14 149 -5 78
-3 122 5 136 9 18 7 25 -20 47 -35 29 -36 30 -104 10z m65 -90 c0 -41 -2 -45
-20 -39 -17 5 -63 -1 -157 -21 -21 -4 -23 -1 -23 45 0 57 -1 57 128 60 l72 1
0 -46z m-2 -124 l-3 -50 -103 -5 -103 -5 3 47 3 48 75 6 c147 11 131 16 128
-41z"/>
</g>
</svg>
