<?xml version="1.0" standalone="no"?>
<!DOCTYPE svg PUBLIC "-//W3C//DTD SVG 20010904//EN"
 "http://www.w3.org/TR/2001/REC-SVG-20010904/DTD/svg10.dtd">
<svg version="1.0" xmlns="http://www.w3.org/2000/svg"
 width="90.000000pt" height="92.000000pt" viewBox="0 0 90.000000 92.000000"
 preserveAspectRatio="xMidYMid meet">
<metadata>
Created by potrace 1.16, written by Peter Selinger 2001-2019
</metadata>
<g transform="translate(0.000000,92.000000) scale(0.100000,-0.100000)"
fill="#000000" stroke="none">
<path d="M504 828 c14 -47 36 -154 36 -174 0 -19 -10 -24 -77 -39 -111 -23
-112 -24 -89 -41 25 -18 41 -18 102 1 27 8 54 15 61 15 6 0 17 -26 23 -57 6
-32 21 -94 32 -138 l21 -79 -58 -53 c-32 -29 -56 -53 -53 -53 14 0 76 30 100
49 l26 21 28 -47 c61 -105 174 -192 209 -163 8 7 12 17 8 22 -3 6 -11 47 -18
92 -10 67 -13 76 -19 51 -13 -57 -21 -78 -32 -82 -15 -5 -89 73 -115 123 -21
39 -22 44 -7 61 8 10 34 49 57 87 40 67 41 70 24 87 -10 10 -26 19 -36 21 -15
2 -19 -5 -22 -39 -3 -40 -41 -123 -56 -123 -9 0 -47 145 -51 195 l-3 40 85 11
c47 6 87 12 89 13 2 0 -3 8 -10 17 -23 27 -51 32 -103 17 -73 -22 -78 -17 -75
78 2 90 -8 109 -59 109 -21 0 -23 -4 -18 -22z"/>
<path d="M650 791 c0 -19 62 -81 81 -81 28 0 25 46 -3 64 -31 19 -78 29 -78
17z"/>
<path d="M195 755 c-27 -6 -65 -10 -84 -7 -31 5 -33 3 -25 -14 5 -10 9 -100 9
-200 0 -141 3 -185 14 -198 11 -13 16 -14 22 -4 7 10 9 8 9 -5 0 -28 -34 -88
-80 -140 -23 -26 -40 -50 -38 -53 9 -9 84 54 138 115 49 57 52 65 37 76 -27
19 -20 25 29 25 33 0 51 -5 60 -17 10 -15 15 -16 26 -5 9 9 15 67 19 210 5
186 4 198 -14 215 -22 19 -50 20 -122 2z m73 -80 c3 -46 1 -50 -20 -51 -13 0
-42 -4 -65 -8 l-43 -8 0 51 c0 48 1 51 33 60 17 5 46 9 62 8 29 -2 30 -4 33
-52z m8 -120 c3 -20 5 -38 3 -39 -2 -2 -34 -7 -71 -11 l-68 -7 0 40 c0 38 2
41 33 45 91 11 96 10 103 -28z m4 -109 c0 -62 -5 -66 -81 -66 -65 0 -69 1 -69
23 0 57 9 66 69 70 31 2 62 4 69 5 7 1 12 -10 12 -32z"/>
<path d="M428 460 c5 -53 5 -52 -52 -65 -23 -5 -27 -8 -15 -16 7 -5 26 -9 42
-9 25 0 27 -3 21 -27 -3 -16 -16 -49 -28 -75 -13 -27 -20 -48 -16 -48 18 0 65
65 81 112 16 48 21 54 53 59 20 3 39 9 42 12 10 9 -47 29 -64 22 -12 -4 -14 2
-9 30 5 28 2 37 -13 45 -39 21 -47 13 -42 -40z"/>
<path d="M240 306 c0 -17 80 -141 91 -141 26 0 22 50 -7 84 -23 28 -84 69 -84
57z"/>
</g>
</svg>
