<?xml version="1.0" standalone="no"?>
<!DOCTYPE svg PUBLIC "-//W3C//DTD SVG 20010904//EN"
 "http://www.w3.org/TR/2001/REC-SVG-20010904/DTD/svg10.dtd">
<svg version="1.0" xmlns="http://www.w3.org/2000/svg"
 width="96.000000pt" height="68.000000pt" viewBox="0 0 96.000000 68.000000"
 preserveAspectRatio="xMidYMid meet">
<metadata>
Created by potrace 1.16, written by Peter Selinger 2001-2019
</metadata>
<g transform="translate(0.000000,68.000000) scale(0.100000,-0.100000)"
fill="#000000" stroke="none">
<path d="M517 560 l6 -50 -34 0 c-19 0 -41 -5 -49 -10 -11 -7 -2 -10 31 -10
39 0 48 -3 52 -22 8 -30 1 -38 -36 -38 -60 0 -137 -13 -137 -23 0 -10 36 -8
278 14 78 7 142 16 142 21 0 15 -46 19 -110 9 -88 -15 -90 -14 -90 13 0 26 7
29 73 41 56 9 35 28 -25 23 l-50 -5 5 33 c6 37 5 38 -35 48 l-27 6 6 -50z"/>
</g>
</svg>
