<?xml version="1.0" standalone="no"?>
<!DOCTYPE svg PUBLIC "-//W3C//DTD SVG 20010904//EN"
 "http://www.w3.org/TR/2001/REC-SVG-20010904/DTD/svg10.dtd">
<svg version="1.0" xmlns="http://www.w3.org/2000/svg"
 width="96.000000pt" height="68.000000pt" viewBox="0 0 96.000000 68.000000"
 preserveAspectRatio="xMidYMid meet">
<metadata>
Created by potrace 1.16, written by Peter Selinger 2001-2019
</metadata>
<g transform="translate(0.000000,68.000000) scale(0.100000,-0.100000)"
fill="#000000" stroke="none">
<path d="M517 556 l6 -46 -36 0 c-20 0 -39 -4 -42 -10 -4 -6 10 -10 33 -10 34
0 40 -3 44 -25 3 -14 3 -27 -1 -29 -3 -2 -41 -7 -83 -11 -84 -7 -107 -25 -34
-25 35 0 48 -5 60 -22 24 -34 20 -48 -14 -48 -55 0 -31 -19 28 -22 43 -2 57
-7 57 -18 0 -10 -13 -16 -40 -18 -59 -5 -68 -22 -12 -22 34 0 49 -5 54 -15 9
-24 -1 -28 -82 -33 -98 -6 -99 -25 -1 -20 l74 3 4 -42 c3 -42 2 -43 -26 -43
-17 0 -71 12 -121 26 l-91 26 4 33 c3 26 -2 37 -27 57 -29 25 -30 26 -10 43
10 10 19 15 19 10 0 -4 10 5 22 20 21 27 21 28 3 41 -26 19 -51 18 -123 -7
-78 -26 -82 -44 -7 -36 30 3 55 4 55 2 0 -2 -5 -15 -11 -28 -9 -20 -6 -30 16
-62 40 -60 33 -70 -58 -73 -68 -2 -78 -5 -75 -20 3 -15 15 -17 93 -14 86 3 97
1 255 -53 96 -32 181 -55 205 -54 47 0 177 40 182 55 2 7 -43 13 -134 18 -75
4 -138 8 -138 9 -1 1 0 23 3 50 l4 47 52 0 c68 0 127 11 120 21 -3 5 -43 9
-90 9 -77 0 -84 2 -84 20 0 16 7 20 33 21 17 1 43 4 57 8 l25 7 -23 8 c-12 4
-36 5 -52 1 -22 -5 -31 -2 -39 13 -9 18 -6 20 46 25 67 7 97 27 40 27 -41 0
-44 4 -22 26 8 9 15 24 15 35 0 17 7 19 60 19 33 0 60 4 60 10 0 17 -44 21
-110 11 -91 -15 -92 -15 -88 16 3 25 8 29 56 36 67 11 59 32 -9 24 l-48 -6 -3
37 c-3 32 -7 37 -29 40 -26 3 -27 2 -22 -42z m89 -151 c10 -25 -22 -62 -56
-67 -26 -4 -33 -1 -40 17 -4 11 -16 27 -26 35 -16 14 -14 15 22 21 70 11 94
10 100 -6z"/>
<path d="M175 531 c-8 -14 72 -83 91 -79 23 4 30 40 12 56 -18 14 -97 32 -103
23z"/>
</g>
</svg>
