<?xml version="1.0" standalone="no"?>
<!DOCTYPE svg PUBLIC "-//W3C//DTD SVG 20010904//EN"
 "http://www.w3.org/TR/2001/REC-SVG-20010904/DTD/svg10.dtd">
<svg version="1.0" xmlns="http://www.w3.org/2000/svg"
 width="96.000000pt" height="68.000000pt" viewBox="0 0 96.000000 68.000000"
 preserveAspectRatio="xMidYMid meet">
<metadata>
Created by potrace 1.16, written by Peter Selinger 2001-2019
</metadata>
<g transform="translate(0.000000,68.000000) scale(0.100000,-0.100000)"
fill="#000000" stroke="none">
<path d="M336 476 c8 -63 11 -61 -111 -72 -44 -3 -87 -10 -95 -14 -28 -16 41
-24 114 -13 39 5 73 9 75 7 11 -9 -87 -119 -140 -156 -33 -23 -56 -44 -50 -46
17 -6 95 39 154 90 65 56 63 59 46 -74 -9 -68 -9 -95 0 -115 11 -23 14 -25 27
-11 11 10 17 48 21 136 l6 121 34 -29 c35 -31 57 -37 68 -20 11 18 -13 37 -60
50 -39 11 -45 16 -45 40 0 27 3 28 60 35 76 9 78 25 4 25 l-56 0 6 36 c8 42
-6 64 -40 64 -23 0 -24 -2 -18 -54z"/>
</g>
</svg>
