<?xml version="1.0" standalone="no"?>
<!DOCTYPE svg PUBLIC "-//W3C//DTD SVG 20010904//EN"
 "http://www.w3.org/TR/2001/REC-SVG-20010904/DTD/svg10.dtd">
<svg version="1.0" xmlns="http://www.w3.org/2000/svg"
 width="90.000000pt" height="92.000000pt" viewBox="0 0 90.000000 92.000000"
 preserveAspectRatio="xMidYMid meet">
<metadata>
Created by potrace 1.16, written by Peter Selinger 2001-2019
</metadata>
<g transform="translate(0.000000,92.000000) scale(0.100000,-0.100000)"
fill="#000000" stroke="none">
<path d="M526 825 c-55 -18 -76 -20 -99 -13 -34 12 -42 6 -28 -20 28 -52 6
-164 -41 -217 l-30 -35 28 10 c62 24 92 71 102 163 l7 62 58 14 c32 7 60 11
63 9 2 -3 6 -46 7 -96 2 -77 5 -95 23 -112 38 -38 185 -37 192 2 4 22 -51 40
-84 28 -86 -33 -116 20 -75 138 19 56 17 63 -29 80 -18 6 -44 2 -94 -13z"/>
<path d="M124 758 c15 -49 22 -126 17 -178 l-6 -55 -42 -6 c-24 -3 -46 -9 -50
-13 -13 -13 21 -27 59 -24 44 4 44 3 40 -98 l-4 -74 -71 -21 -70 -22 32 -29
32 -29 32 21 c18 11 74 46 125 78 93 57 107 78 31 48 -21 -9 -44 -16 -49 -16
-11 0 -13 80 -4 127 5 27 12 32 60 42 59 14 67 25 30 42 -18 9 -33 9 -56 0
l-32 -11 5 78 c3 42 8 89 12 105 7 24 4 29 -29 42 -52 22 -70 20 -62 -7z"/>
<path d="M506 521 l7 -58 -59 -7 c-33 -4 -83 -9 -111 -12 -61 -7 -66 -16 -22
-34 24 -10 44 -11 94 -2 107 20 98 34 94 -145 -3 -161 2 -203 26 -203 22 0 25
25 25 201 l0 169 135 0 c112 0 135 2 135 15 0 8 -14 22 -32 31 -27 14 -41 15
-99 5 -37 -6 -84 -11 -105 -11 l-36 0 7 46 c7 51 -1 64 -42 64 -22 0 -22 -3
-17 -59z"/>
<path d="M630 351 c0 -6 4 -13 10 -16 5 -3 37 -42 70 -85 72 -94 97 -112 106
-76 9 37 -23 93 -72 127 -53 36 -114 63 -114 50z"/>
<path d="M371 309 c-7 -17 -41 -60 -75 -96 -48 -53 -56 -64 -36 -58 50 15 84
38 132 88 50 53 56 65 36 85 -21 21 -43 13 -57 -19z"/>
</g>
</svg>
