<?xml version="1.0" standalone="no"?>
<!DOCTYPE svg PUBLIC "-//W3C//DTD SVG 20010904//EN"
 "http://www.w3.org/TR/2001/REC-SVG-20010904/DTD/svg10.dtd">
<svg version="1.0" xmlns="http://www.w3.org/2000/svg"
 width="90.000000pt" height="92.000000pt" viewBox="0 0 90.000000 92.000000"
 preserveAspectRatio="xMidYMid meet">
<metadata>
Created by potrace 1.16, written by Peter Selinger 2001-2019
</metadata>
<g transform="translate(0.000000,92.000000) scale(0.100000,-0.100000)"
fill="#000000" stroke="none">
<path d="M380 843 c0 -3 11 -26 25 -50 l26 -43 -29 0 c-16 0 -70 -3 -120 -6
-81 -6 -92 -5 -92 10 0 32 -18 15 -49 -48 -35 -71 -38 -94 -16 -103 21 -7 52
22 66 62 l12 32 166 17 c91 9 197 16 234 16 l68 0 -21 -31 c-12 -16 -20 -32
-18 -34 9 -10 148 20 148 31 0 17 -60 73 -85 80 -12 3 -59 0 -105 -5 -106 -14
-123 -14 -115 0 12 19 -4 55 -30 67 -28 13 -65 16 -65 5z"/>
<path d="M284 623 c3 -16 8 -53 12 -84 l6 -56 -39 -6 c-71 -12 -72 -12 -61 33
9 36 8 43 -8 55 -29 22 -32 19 -37 -32 -3 -27 -8 -60 -12 -76 -13 -48 7 -58
62 -31 53 25 81 33 82 22 1 -5 1 -23 1 -42 l0 -34 -95 -17 c-79 -14 -93 -20
-84 -31 6 -8 20 -14 30 -14 41 0 7 -100 -62 -182 -46 -55 -40 -61 19 -18 62
44 128 161 111 193 -8 13 -4 18 18 23 15 3 36 8 46 11 15 4 17 -4 17 -59 0
-35 -5 -80 -11 -101 -10 -38 3 -107 21 -107 26 0 33 36 31 151 l-2 121 23 -8
c29 -10 45 -10 188 4 63 7 151 12 195 12 l79 0 -22 22 c-17 18 -32 22 -69 20
-25 -1 -55 -4 -65 -8 -25 -8 -23 11 7 62 l25 43 -31 16 c-28 15 -34 15 -70 1
-55 -22 -60 -21 -47 14 5 17 8 36 5 44 -4 10 9 15 51 20 70 8 89 18 68 35 -19
16 -32 15 -153 -6 -106 -19 -128 -36 -54 -41 l42 -3 -7 -37 c-9 -51 -20 -62
-63 -62 -34 -1 -35 -2 -17 -15 11 -8 29 -12 39 -9 17 5 18 2 12 -28 -11 -50
-22 -58 -83 -58 l-55 0 7 105 c4 59 9 118 12 133 5 23 1 30 -21 40 -39 18 -47
15 -41 -15z m322 -195 c-4 -23 -8 -43 -9 -44 -1 -1 -26 -5 -54 -9 -59 -8 -60
-5 -38 48 15 36 28 44 79 46 28 1 28 0 22 -41z"/>
<path d="M550 274 c-36 -7 -84 -13 -108 -14 -42 0 -42 0 -28 -22 8 -13 18 -47
22 -75 6 -47 33 -107 34 -75 0 8 16 12 48 12 71 0 152 12 147 21 -3 4 8 36 25
70 16 34 29 63 27 64 -1 1 -13 9 -27 18 -28 20 -50 20 -140 1z m80 -63 c0 -57
-19 -71 -95 -71 l-63 0 -4 45 c-3 39 0 46 17 50 28 6 74 12 113 14 31 1 32 0
32 -38z"/>
</g>
</svg>
