<?xml version="1.0" standalone="no"?>
<!DOCTYPE svg PUBLIC "-//W3C//DTD SVG 20010904//EN"
 "http://www.w3.org/TR/2001/REC-SVG-20010904/DTD/svg10.dtd">
<svg version="1.0" xmlns="http://www.w3.org/2000/svg"
 width="90.000000pt" height="92.000000pt" viewBox="0 0 90.000000 92.000000"
 preserveAspectRatio="xMidYMid meet">
<metadata>
Created by potrace 1.16, written by Peter Selinger 2001-2019
</metadata>
<g transform="translate(0.000000,92.000000) scale(0.100000,-0.100000)"
fill="#000000" stroke="none">
<path d="M408 904 c-4 -3 0 -22 8 -41 9 -19 13 -41 11 -47 -3 -8 -61 -20 -146
-31 -78 -10 -141 -20 -141 -22 0 -3 7 -11 15 -19 9 -10 15 -34 15 -62 0 -95
-41 -197 -113 -280 l-32 -37 30 19 c94 59 141 145 169 317 6 35 8 37 64 47 31
6 80 13 107 17 l50 6 52 -111 c29 -60 54 -113 55 -118 1 -4 -23 -27 -52 -51
-58 -47 -42 -49 39 -5 l43 24 64 -60 c44 -40 75 -61 99 -66 43 -8 52 -1 37 29
-7 12 -16 49 -20 82 l-7 60 -18 -47 c-17 -44 -20 -47 -40 -37 -12 6 -36 25
-54 41 l-31 30 44 62 45 61 -22 18 c-31 25 -60 23 -55 -5 2 -13 -5 -41 -16
-62 -23 -45 -22 -46 -74 59 -49 100 -48 105 31 105 52 0 65 3 65 15 0 22 -48
37 -96 30 -40 -6 -42 -5 -47 24 -7 34 -62 72 -79 55z"/>
<path d="M600 892 c0 -12 84 -92 97 -92 16 0 22 22 13 46 -11 28 -110 69 -110
46z"/>
<path d="M304 718 c3 -13 7 -43 8 -68 l3 -45 -42 -5 c-24 -4 -45 -9 -49 -13
-9 -9 43 -20 71 -15 28 6 29 5 29 -105 1 -74 -8 -84 -58 -71 -27 6 -37 -10
-12 -19 7 -3 19 -28 26 -56 11 -46 40 -91 40 -62 0 18 77 14 84 -5 8 -21 8
-104 -1 -104 -3 0 -30 8 -60 17 -51 16 -53 19 -48 44 5 21 1 31 -17 43 -30 21
-38 20 -38 -4 0 -32 -34 -91 -85 -148 -26 -29 -42 -52 -36 -52 20 0 86 47 119
85 l33 37 137 -65 c151 -71 193 -87 230 -87 33 0 185 41 177 48 -2 3 -55 11
-117 18 -62 7 -143 20 -180 30 -63 15 -68 18 -68 44 0 26 2 27 66 33 72 7 83
12 67 28 -12 12 -36 14 -88 4 -39 -7 -40 -6 -40 24 0 29 1 30 63 37 48 5 60 9
52 19 -7 9 -1 24 20 53 l30 42 -31 16 c-28 14 -39 14 -130 0 -125 -20 -122
-20 -110 2 5 9 10 49 12 87 2 39 8 73 14 77 5 4 29 8 53 8 23 0 42 5 42 10 0
18 -46 29 -84 20 -33 -7 -36 -6 -36 15 0 18 7 25 33 30 57 11 67 16 61 27 -4
6 -24 8 -50 4 -39 -5 -43 -3 -46 17 -2 14 -11 23 -26 25 -19 3 -22 0 -18 -20z
m226 -340 c-1 -50 -9 -55 -107 -68 -52 -6 -97 -10 -99 -8 -2 3 -7 18 -10 35
-6 31 -6 32 42 38 27 3 56 8 64 9 42 9 110 5 110 -6z"/>
<path d="M390 533 c0 -16 58 -65 69 -59 15 9 14 31 -2 44 -18 15 -67 26 -67
15z"/>
<path d="M223 475 c-12 -25 -19 -45 -14 -45 18 0 84 67 77 78 -15 24 -41 10
-63 -33z"/>
</g>
</svg>
