<?xml version="1.0" standalone="no"?>
<!DOCTYPE svg PUBLIC "-//W3C//DTD SVG 20010904//EN"
 "http://www.w3.org/TR/2001/REC-SVG-20010904/DTD/svg10.dtd">
<svg version="1.0" xmlns="http://www.w3.org/2000/svg"
 width="96.000000pt" height="68.000000pt" viewBox="0 0 96.000000 68.000000"
 preserveAspectRatio="xMidYMid meet">
<metadata>
Created by potrace 1.16, written by Peter Selinger 2001-2019
</metadata>
<g transform="translate(0.000000,68.000000) scale(0.100000,-0.100000)"
fill="#000000" stroke="none">
<path d="M520 585 c-47 -7 -108 -14 -135 -14 l-51 -1 4 -63 c8 -122 -49 -270
-144 -376 -53 -59 -46 -66 18 -17 78 60 141 178 163 303 8 48 8 48 170 58 112
8 147 14 139 26 -3 5 5 23 17 40 22 31 22 32 4 45 -22 17 -71 16 -185 -1z
m130 -32 c-1 -41 -7 -43 -187 -59 l-73 -7 0 25 c0 45 21 51 198 56 53 2 62 0
62 -15z"/>
</g>
</svg>
