<?xml version="1.0" standalone="no"?>
<!DOCTYPE svg PUBLIC "-//W3C//DTD SVG 20010904//EN"
 "http://www.w3.org/TR/2001/REC-SVG-20010904/DTD/svg10.dtd">
<svg version="1.0" xmlns="http://www.w3.org/2000/svg"
 width="96.000000pt" height="68.000000pt" viewBox="0 0 96.000000 68.000000"
 preserveAspectRatio="xMidYMid meet">
<metadata>
Created by potrace 1.16, written by Peter Selinger 2001-2019
</metadata>
<g transform="translate(0.000000,68.000000) scale(0.100000,-0.100000)"
fill="#000000" stroke="none">
<path d="M504 286 c6 -24 4 -24 -72 -31 -42 -3 -93 -8 -112 -12 -33 -5 -34 -6
-12 -16 16 -7 48 -7 102 -1 59 7 80 6 80 -2 0 -15 -69 -77 -128 -116 -41 -27
-43 -29 -17 -23 36 8 86 38 132 78 21 18 33 24 34 16 0 -8 1 -45 2 -84 2 -55
5 -70 17 -70 12 0 16 18 18 88 1 48 7 87 12 87 5 0 35 -24 67 -53 32 -30 67
-59 78 -65 22 -11 115 -4 115 8 0 5 -25 16 -56 26 -54 17 -110 49 -169 98
l-30 25 30 1 c17 1 68 2 114 3 55 1 86 6 88 14 7 19 -54 25 -146 15 -81 -8
-83 -8 -94 15 -7 15 -19 23 -35 23 -21 0 -23 -4 -18 -24z"/>
</g>
</svg>
