<?xml version="1.0" standalone="no"?>
<!DOCTYPE svg PUBLIC "-//W3C//DTD SVG 20010904//EN"
 "http://www.w3.org/TR/2001/REC-SVG-20010904/DTD/svg10.dtd">
<svg version="1.0" xmlns="http://www.w3.org/2000/svg"
 width="90.000000pt" height="92.000000pt" viewBox="0 0 90.000000 92.000000"
 preserveAspectRatio="xMidYMid meet">
<metadata>
Created by potrace 1.16, written by Peter Selinger 2001-2019
</metadata>
<g transform="translate(0.000000,92.000000) scale(0.100000,-0.100000)"
fill="#000000" stroke="none">
<path d="M480 873 c0 -5 5 -37 11 -72 6 -40 6 -68 1 -73 -6 -6 -42 -10 -81
-10 -65 -1 -70 -2 -57 -17 8 -9 18 -28 21 -43 7 -26 5 -28 -26 -29 -19 0 -43
-4 -54 -9 -18 -7 -18 -9 9 -19 16 -7 41 -9 56 -6 24 5 27 2 36 -32 l9 -38 48
3 c42 3 47 2 47 -17 0 -23 -45 -36 -118 -34 -40 1 -43 0 -29 -15 9 -9 18 -34
22 -54 7 -35 35 -75 35 -49 0 6 16 11 36 11 35 0 35 -1 29 -32 -4 -18 -9 -35
-10 -36 -2 -2 -49 -6 -104 -9 -56 -3 -101 -10 -101 -15 0 -5 14 -15 31 -22 30
-13 44 -12 138 10 24 5 24 5 7 -21 -23 -35 -15 -51 28 -59 20 -4 36 -11 36
-16 0 -12 -95 -57 -160 -75 l-55 -15 78 3 c63 3 89 10 139 35 l61 32 59 -38
c33 -20 73 -45 88 -55 31 -20 50 -16 50 10 0 25 -65 79 -118 98 l-50 18 30 46
29 46 107 5 c86 4 107 8 107 20 0 31 -47 41 -135 28 -63 -9 -87 -9 -101 0 -27
17 -52 15 -45 -3 4 -12 -3 -15 -35 -15 -38 0 -39 1 -27 23 7 12 11 28 10 35
-2 9 19 12 79 12 78 0 81 1 76 21 -4 14 2 29 20 46 25 26 25 26 5 45 -22 22
-43 25 -119 13 -49 -7 -53 -6 -53 13 0 24 53 41 74 23 17 -14 28 -2 51 57 l17
42 64 0 c35 0 64 4 64 10 0 20 -46 40 -78 34 -31 -6 -45 7 -22 21 18 11 10 22
-30 40 -34 15 -46 16 -79 7 -58 -18 -59 -17 -50 36 11 68 11 68 -16 80 -30 14
-55 16 -55 5z m160 -177 c0 -27 -16 -36 -66 -36 -29 0 -34 3 -34 24 0 26 13
33 68 35 27 1 32 -2 32 -23z m-140 -21 c0 -20 -6 -25 -34 -31 -41 -7 -56 0
-56 26 0 13 9 20 28 23 59 9 62 8 62 -18z m123 -66 c-6 -21 -9 -23 -55 -33
-25 -6 -28 -3 -28 18 0 27 11 34 57 35 27 1 30 -2 26 -20z m-123 -19 c0 -17
-5 -30 -12 -30 -7 0 -23 -3 -35 -6 -20 -6 -23 -3 -23 24 0 26 4 31 28 35 15 2
30 5 35 6 4 0 7 -12 7 -29z m142 -139 c-3 -31 1 -28 -54 -36 l-48 -7 0 30 c0
35 10 42 65 39 36 -2 40 -4 37 -26z m-142 -21 c0 -29 -2 -30 -45 -30 -41 0
-45 2 -45 24 0 26 13 33 63 35 24 1 27 -3 27 -29z m80 -164 c0 -8 -10 -27 -23
-41 -20 -23 -27 -26 -60 -20 -39 8 -45 19 -24 46 22 29 107 40 107 15z"/>
<path d="M164 823 c4 -16 10 -78 13 -139 6 -127 14 -116 -94 -130 -29 -3 -53
-10 -53 -15 0 -14 47 -22 95 -17 l43 5 -15 -36 c-29 -69 -53 -109 -104 -176
-28 -37 -49 -68 -47 -71 14 -13 93 68 160 166 16 25 17 24 12 -30 -3 -30 -10
-99 -16 -152 -10 -97 -6 -141 15 -166 8 -11 13 -9 23 10 10 16 13 76 14 206 0
100 2 182 5 182 3 0 20 -17 39 -37 l33 -37 12 23 c15 28 3 45 -45 63 -27 10
-34 17 -34 39 0 23 5 27 40 33 22 3 40 11 40 16 0 15 -40 32 -62 27 -20 -6
-20 -3 -14 86 4 51 10 102 13 114 4 17 -3 27 -29 43 -44 27 -52 25 -44 -7z"/>
</g>
</svg>
