<?xml version="1.0" standalone="no"?>
<!DOCTYPE svg PUBLIC "-//W3C//DTD SVG 20010904//EN"
 "http://www.w3.org/TR/2001/REC-SVG-20010904/DTD/svg10.dtd">
<svg version="1.0" xmlns="http://www.w3.org/2000/svg"
 width="96.000000pt" height="68.000000pt" viewBox="0 0 96.000000 68.000000"
 preserveAspectRatio="xMidYMid meet">
<metadata>
Created by potrace 1.16, written by Peter Selinger 2001-2019
</metadata>
<g transform="translate(0.000000,68.000000) scale(0.100000,-0.100000)"
fill="#000000" stroke="none">
<path d="M241 548 c5 -18 9 -61 9 -95 l0 -62 -37 -6 c-21 -3 -51 -10 -68 -14
-25 -8 -20 -9 33 -10 34 -1 62 -5 62 -9 0 -17 -99 -149 -132 -177 -30 -25 -31
-27 -8 -20 38 11 88 52 117 96 14 22 28 38 30 36 2 -3 -2 -57 -8 -122 -10
-105 -10 -119 5 -134 28 -28 36 3 36 148 l0 134 23 -21 c28 -27 60 -29 55 -5
-2 10 -18 22 -36 28 -24 7 -32 15 -32 32 0 16 6 23 19 23 11 0 27 3 36 6 22 9
0 24 -34 24 -23 0 -23 1 -16 81 8 87 3 99 -42 99 -20 0 -21 -3 -12 -32z"/>
</g>
</svg>
