<?xml version="1.0" standalone="no"?>
<!DOCTYPE svg PUBLIC "-//W3C//DTD SVG 20010904//EN"
 "http://www.w3.org/TR/2001/REC-SVG-20010904/DTD/svg10.dtd">
<svg version="1.0" xmlns="http://www.w3.org/2000/svg"
 width="96.000000pt" height="68.000000pt" viewBox="0 0 96.000000 68.000000"
 preserveAspectRatio="xMidYMid meet">
<metadata>
Created by potrace 1.16, written by Peter Selinger 2001-2019
</metadata>
<g transform="translate(0.000000,68.000000) scale(0.100000,-0.100000)"
fill="#000000" stroke="none">
<path d="M255 230 c-11 -5 -47 -9 -79 -9 -53 -1 -58 -3 -41 -15 10 -7 26 -33
35 -57 10 -24 22 -44 26 -43 5 0 33 4 62 9 45 6 55 12 63 34 5 14 14 36 20 48
6 11 8 26 5 32 -8 13 -62 13 -91 1z m33 -56 c-2 -22 -10 -30 -37 -37 -38 -9
-47 -4 -56 35 -6 25 -4 27 37 36 51 10 61 4 56 -34z"/>
</g>
</svg>
