<?xml version="1.0" standalone="no"?>
<!DOCTYPE svg PUBLIC "-//W3C//DTD SVG 20010904//EN"
 "http://www.w3.org/TR/2001/REC-SVG-20010904/DTD/svg10.dtd">
<svg version="1.0" xmlns="http://www.w3.org/2000/svg"
 width="96.000000pt" height="68.000000pt" viewBox="0 0 96.000000 68.000000"
 preserveAspectRatio="xMidYMid meet">
<metadata>
Created by potrace 1.16, written by Peter Selinger 2001-2019
</metadata>
<g transform="translate(0.000000,68.000000) scale(0.100000,-0.100000)"
fill="#000000" stroke="none">
<path d="M550 223 c0 -14 64 -83 76 -83 21 0 17 37 -7 59 -19 17 -69 35 -69
24z"/>
<path d="M440 205 c0 -15 31 -63 44 -68 19 -7 29 19 16 43 -12 22 -60 42 -60
25z"/>
<path d="M211 160 c-35 -43 -39 -67 -14 -77 23 -9 63 40 63 77 0 43 -14 44
-49 0z"/>
<path d="M336 178 c16 -50 52 -87 55 -55 4 37 -21 77 -48 77 -10 0 -12 -6 -7
-22z"/>
</g>
</svg>
