<?xml version="1.0" standalone="no"?>
<!DOCTYPE svg PUBLIC "-//W3C//DTD SVG 20010904//EN"
 "http://www.w3.org/TR/2001/REC-SVG-20010904/DTD/svg10.dtd">
<svg version="1.0" xmlns="http://www.w3.org/2000/svg"
 width="96.000000pt" height="68.000000pt" viewBox="0 0 96.000000 68.000000"
 preserveAspectRatio="xMidYMid meet">
<metadata>
Created by potrace 1.16, written by Peter Selinger 2001-2019
</metadata>
<g transform="translate(0.000000,68.000000) scale(0.100000,-0.100000)"
fill="#000000" stroke="none">
<path d="M321 565 c-29 -19 -73 -42 -97 -52 -50 -21 -59 -39 -14 -29 17 3 44
9 60 12 26 6 30 4 30 -15 0 -11 4 -21 9 -21 4 0 6 -11 4 -24 -5 -27 -5 -27
-135 -48 -43 -6 -78 -15 -78 -19 0 -17 83 -14 168 6 14 3 22 1 22 -7 0 -19
-99 -120 -148 -153 -23 -15 -40 -30 -38 -33 11 -11 118 52 155 91 22 23 42 39
45 36 3 -3 1 -54 -5 -114 -8 -84 -8 -113 2 -131 23 -43 38 1 40 117 1 57 5
112 8 122 6 16 9 16 31 -8 28 -30 50 -32 50 -6 0 13 -13 25 -40 37 -29 13 -40
24 -40 40 0 20 7 23 55 29 74 10 70 25 -7 26 -35 0 -57 3 -50 6 15 6 16 70 0
75 -17 6 0 28 22 28 24 0 70 21 70 31 0 10 -41 39 -55 39 -5 0 -34 -16 -64
-35z"/>
<path d="M610 520 c6 -12 9 -80 8 -177 l-3 -158 -53 -3 -52 -3 6 55 c5 39 3
60 -6 71 -25 30 -37 16 -43 -47 -3 -35 -8 -72 -12 -83 -3 -11 -1 -27 4 -35 9
-13 18 -13 78 3 64 16 188 36 225 37 12 0 16 -8 15 -27 -2 -22 2 -28 18 -28
18 0 22 13 38 104 10 57 14 107 10 112 -4 4 -19 10 -33 14 -25 6 -25 6 -26
-69 0 -42 -2 -78 -5 -80 -2 -2 -29 -6 -59 -7 l-55 -4 3 110 c2 61 8 134 14
164 11 61 5 71 -50 71 -30 0 -32 -2 -22 -20z"/>
</g>
</svg>
