<?xml version="1.0" standalone="no"?>
<!DOCTYPE svg PUBLIC "-//W3C//DTD SVG 20010904//EN"
 "http://www.w3.org/TR/2001/REC-SVG-20010904/DTD/svg10.dtd">
<svg version="1.0" xmlns="http://www.w3.org/2000/svg"
 width="96.000000pt" height="68.000000pt" viewBox="0 0 96.000000 68.000000"
 preserveAspectRatio="xMidYMid meet">
<metadata>
Created by potrace 1.16, written by Peter Selinger 2001-2019
</metadata>
<g transform="translate(0.000000,68.000000) scale(0.100000,-0.100000)"
fill="#000000" stroke="none">
<path d="M605 540 c-3 -5 -1 -20 5 -35 5 -14 10 -91 10 -170 0 -159 2 -155
-71 -155 l-39 0 7 61 c5 47 3 63 -8 70 -29 18 -39 10 -39 -34 0 -23 -4 -58
-10 -77 -12 -42 -5 -70 19 -70 10 0 51 8 92 19 41 10 104 21 141 25 l67 6 -2
-27 c-1 -19 3 -28 15 -31 18 -4 25 15 48 141 13 73 10 82 -30 92 l-26 6 1 -75
c0 -41 -2 -76 -5 -79 -3 -3 -30 -7 -60 -8 l-55 -4 3 105 c2 58 8 131 13 164 6
32 8 60 5 63 -10 10 -76 21 -81 13z"/>
</g>
</svg>
