<?xml version="1.0" standalone="no"?>
<!DOCTYPE svg PUBLIC "-//W3C//DTD SVG 20010904//EN"
 "http://www.w3.org/TR/2001/REC-SVG-20010904/DTD/svg10.dtd">
<svg version="1.0" xmlns="http://www.w3.org/2000/svg"
 width="90.000000pt" height="92.000000pt" viewBox="0 0 90.000000 92.000000"
 preserveAspectRatio="xMidYMid meet">
<metadata>
Created by potrace 1.16, written by Peter Selinger 2001-2019
</metadata>
<g transform="translate(0.000000,92.000000) scale(0.100000,-0.100000)"
fill="#000000" stroke="none">
<path d="M490 803 l-45 -4 1 -118 c0 -64 3 -122 7 -128 4 -7 22 -8 54 -1 42 7
50 6 64 -12 22 -26 58 -39 91 -33 20 4 27 0 32 -19 12 -42 18 -252 9 -308 -9
-60 -11 -61 -81 -45 l-33 8 53 -56 c42 -45 55 -54 70 -46 37 20 41 48 41 264
0 146 3 212 11 217 6 4 32 8 59 8 53 0 64 19 21 39 -21 9 -47 7 -136 -10 -60
-11 -110 -19 -111 -17 -1 1 0 57 3 123 3 66 1 126 -3 133 -5 6 -21 11 -36 10
-14 -1 -46 -3 -71 -5z m68 -45 c3 -22 -1 -28 -17 -28 -10 0 -26 -3 -35 -6 -12
-5 -16 1 -16 24 0 32 12 42 45 39 14 -1 21 -11 23 -29z m2 -72 c0 -17 -5 -24
-17 -24 -10 1 -28 -2 -40 -6 -20 -6 -23 -4 -23 18 0 21 5 25 38 29 20 2 38 4
40 5 1 1 2 -9 2 -22z m0 -71 c0 -14 -4 -25 -9 -25 -5 0 -23 -3 -40 -6 -28 -6
-31 -4 -31 19 0 22 5 26 33 30 17 2 35 5 40 5 4 1 7 -9 7 -23z"/>
<path d="M330 790 c-14 -4 -34 -6 -45 -3 -19 4 -20 -1 -19 -114 1 -65 2 -123
3 -129 1 -8 14 -8 47 -1 34 8 51 8 64 -1 11 -7 21 -8 25 -2 3 5 7 63 8 129 2
95 0 122 -11 126 -17 6 -40 5 -72 -5z m42 -40 c3 -16 1 -30 -2 -30 -4 0 -22
-3 -39 -6 -29 -6 -31 -5 -31 24 0 30 6 35 56 41 7 0 14 -12 16 -29z m6 -95
c-2 -1 -20 -5 -40 -9 -33 -6 -38 -4 -38 12 0 13 11 21 38 28 32 8 37 7 40 -9
2 -10 2 -20 0 -22z m2 -49 c0 -20 -6 -24 -41 -30 -49 -8 -54 -5 -40 23 7 12
24 21 44 24 17 2 33 5 35 5 1 1 2 -9 2 -22z"/>
<path d="M157 783 c-4 -3 -7 -15 -7 -25 0 -28 -35 -91 -85 -153 -25 -30 -41
-55 -37 -55 30 0 127 95 178 174 18 28 18 29 -5 47 -25 20 -34 23 -44 12z"/>
<path d="M683 681 c-35 -9 -63 -19 -63 -23 0 -16 56 -20 113 -10 68 13 91 27
67 42 -19 12 -41 11 -117 -9z"/>
<path d="M170 572 c-13 -50 -76 -146 -129 -197 -72 -69 -40 -68 47 2 l42 34 0
-91 c0 -50 -5 -111 -11 -134 -9 -36 -8 -49 6 -76 29 -56 39 -23 46 138 4 112
2 152 -8 169 -12 20 -9 28 33 88 45 64 46 67 29 85 -27 30 -43 24 -55 -18z"/>
<path d="M301 488 c-6 -18 -29 -57 -52 -87 -22 -29 -38 -55 -36 -57 2 -2 23 9
45 26 l42 30 0 -82 c0 -46 -5 -101 -10 -123 -6 -26 -6 -51 1 -72 17 -52 41
-39 41 21 0 30 2 32 37 32 77 1 242 17 247 25 11 18 -51 37 -94 29 -40 -7 -42
-6 -42 16 0 20 5 24 33 24 17 0 39 5 47 10 13 9 13 11 0 20 -8 5 -30 10 -47
10 -26 0 -33 4 -33 20 0 16 7 20 33 20 17 0 39 5 47 10 13 9 13 11 0 20 -8 5
-30 10 -47 10 -23 0 -33 5 -33 15 0 17 7 20 63 30 33 5 37 8 26 22 -9 11 -24
14 -52 10 -30 -4 -37 -2 -33 9 6 16 -19 44 -40 44 -16 0 -18 -14 -4 -40 13
-23 8 -26 -60 -35 l-55 -7 25 27 c24 26 25 27 6 41 -30 22 -43 17 -55 -18z
m134 -92 c-1 -15 -10 -23 -31 -27 -50 -11 -61 -10 -68 9 -3 9 -8 22 -11 27 -3
6 18 11 53 11 54 1 58 0 57 -20z m5 -75 c0 -25 -4 -27 -62 -35 -46 -7 -48 -6
-48 18 0 23 4 25 48 29 26 2 50 4 55 5 4 1 7 -7 7 -17z m0 -83 c0 -18 -14 -23
-77 -31 -30 -3 -33 -1 -33 22 0 25 3 26 55 27 47 0 55 -2 55 -18z"/>
</g>
</svg>
