<?xml version="1.0" standalone="no"?>
<!DOCTYPE svg PUBLIC "-//W3C//DTD SVG 20010904//EN"
 "http://www.w3.org/TR/2001/REC-SVG-20010904/DTD/svg10.dtd">
<svg version="1.0" xmlns="http://www.w3.org/2000/svg"
 width="96.000000pt" height="68.000000pt" viewBox="0 0 96.000000 68.000000"
 preserveAspectRatio="xMidYMid meet">
<metadata>
Created by potrace 1.16, written by Peter Selinger 2001-2019
</metadata>
<g transform="translate(0.000000,68.000000) scale(0.100000,-0.100000)"
fill="#000000" stroke="none">
<path d="M505 595 c-38 -8 -109 -15 -158 -16 l-87 -2 19 -21 c11 -12 26 -49
34 -84 17 -73 21 -79 41 -63 11 9 51 12 137 10 l121 -3 38 79 c32 67 36 82 25
94 -19 19 -89 22 -170 6z m95 -42 c0 -27 -2 -28 -55 -29 -50 0 -55 2 -55 22 0
24 15 30 78 33 29 1 32 -2 32 -26z m-155 -18 c0 -16 -9 -21 -45 -26 -49 -7
-70 3 -70 33 0 17 6 19 58 16 49 -3 57 -6 57 -23z m145 -39 c0 -36 -12 -46
-56 -46 -40 0 -44 2 -44 24 0 22 5 25 43 29 23 2 45 4 50 5 4 1 7 -4 7 -12z
m-140 -30 c0 -20 -6 -24 -42 -29 -44 -6 -58 2 -58 36 0 14 9 17 50 17 46 0 50
-2 50 -24z"/>
</g>
</svg>
