<?xml version="1.0" standalone="no"?>
<!DOCTYPE svg PUBLIC "-//W3C//DTD SVG 20010904//EN"
 "http://www.w3.org/TR/2001/REC-SVG-20010904/DTD/svg10.dtd">
<svg version="1.0" xmlns="http://www.w3.org/2000/svg"
 width="96.000000pt" height="68.000000pt" viewBox="0 0 96.000000 68.000000"
 preserveAspectRatio="xMidYMid meet">
<metadata>
Created by potrace 1.16, written by Peter Selinger 2001-2019
</metadata>
<g transform="translate(0.000000,68.000000) scale(0.100000,-0.100000)"
fill="#000000" stroke="none">
<path d="M567 583 c-3 -5 -8 -24 -12 -43 -4 -19 -27 -73 -51 -119 -24 -46 -43
-85 -41 -87 1 -1 18 10 36 27 22 19 45 29 65 29 17 0 66 7 109 15 43 8 81 15
83 15 2 0 4 5 4 10 0 15 -65 12 -139 -5 -35 -9 -66 -14 -68 -12 -2 2 15 35 37
73 l40 69 -21 18 c-23 18 -35 21 -42 10z"/>
</g>
</svg>
