<?xml version="1.0" standalone="no"?>
<!DOCTYPE svg PUBLIC "-//W3C//DTD SVG 20010904//EN"
 "http://www.w3.org/TR/2001/REC-SVG-20010904/DTD/svg10.dtd">
<svg version="1.0" xmlns="http://www.w3.org/2000/svg"
 width="96.000000pt" height="68.000000pt" viewBox="0 0 96.000000 68.000000"
 preserveAspectRatio="xMidYMid meet">
<metadata>
Created by potrace 1.16, written by Peter Selinger 2001-2019
</metadata>
<g transform="translate(0.000000,68.000000) scale(0.100000,-0.100000)"
fill="#000000" stroke="none">
<path d="M625 415 c-44 -8 -101 -14 -126 -14 l-46 -1 5 -56 c2 -30 -1 -89 -7
-129 -12 -72 -9 -115 9 -115 16 0 31 67 37 172 l6 107 46 7 c25 4 82 8 126 8
l80 1 -1 -133 c-1 -138 -9 -167 -38 -143 -9 7 -20 11 -26 9 -6 -2 7 -20 28
-41 l39 -38 24 19 c22 19 23 24 21 130 -1 61 2 132 8 157 9 41 8 49 -7 61 -22
16 -72 16 -178 -1z"/>
</g>
</svg>
