<?xml version="1.0" standalone="no"?>
<!DOCTYPE svg PUBLIC "-//W3C//DTD SVG 20010904//EN"
 "http://www.w3.org/TR/2001/REC-SVG-20010904/DTD/svg10.dtd">
<svg version="1.0" xmlns="http://www.w3.org/2000/svg"
 width="96.000000pt" height="68.000000pt" viewBox="0 0 96.000000 68.000000"
 preserveAspectRatio="xMidYMid meet">
<metadata>
Created by potrace 1.16, written by Peter Selinger 2001-2019
</metadata>
<g transform="translate(0.000000,68.000000) scale(0.100000,-0.100000)"
fill="#000000" stroke="none">
<path d="M605 548 c-22 -5 -58 -7 -80 -5 l-41 4 4 -118 4 -119 -26 0 c-31 0
-33 -11 -5 -28 20 -13 21 -20 18 -124 -3 -69 0 -112 6 -114 6 -2 33 17 60 42
49 44 47 49 -13 26 -10 -4 -13 16 -11 90 l2 95 75 7 c41 3 99 6 129 6 29 0 53
4 53 10 0 18 -46 22 -124 11 -116 -16 -126 -15 -126 13 0 22 5 24 75 31 41 4
78 12 81 17 5 8 -18 9 -75 4 -81 -6 -82 -6 -79 16 3 19 13 24 81 37 52 10 74
18 68 24 -7 7 -27 7 -62 -1 -79 -19 -91 -17 -87 16 3 26 6 27 81 36 50 5 77
12 74 20 -5 15 -33 16 -82 4z"/>
<path d="M325 526 c-45 -14 -28 -28 18 -15 24 7 27 5 27 -16 0 -53 -16 -72
-65 -79 -41 -7 -45 -9 -33 -23 14 -17 12 -52 -3 -68 -5 -5 -9 -18 -9 -28 0
-18 5 -19 50 -13 l50 7 0 -53 c0 -68 -26 -123 -57 -122 -28 1 -29 -7 -5 -36
18 -22 20 -22 44 -6 33 22 49 59 55 131 3 33 10 68 14 77 11 21 -19 33 -74 29
-37 -3 -38 -1 -32 21 21 65 24 68 60 68 32 0 35 3 35 29 0 15 9 40 21 55 41
52 -3 71 -96 42z"/>
<path d="M169 513 c16 -30 56 -62 68 -55 6 4 13 16 15 26 3 22 -32 46 -70 46
-19 0 -21 -3 -13 -17z"/>
<path d="M100 388 c0 -21 50 -69 68 -66 21 4 26 29 10 50 -17 22 -78 35 -78
16z"/>
<path d="M198 268 c-9 -18 -34 -54 -57 -80 -45 -51 -50 -74 -22 -109 l18 -23
12 23 c15 26 81 202 81 214 0 18 -18 4 -32 -25z"/>
<path d="M669 258 l-26 -33 -42 23 c-22 13 -41 22 -41 19 0 -14 179 -179 195
-180 44 -2 85 3 85 11 0 5 -19 15 -42 22 -48 15 -148 77 -148 91 0 5 17 17 38
27 20 9 37 24 37 32 0 27 -30 21 -56 -12z"/>
</g>
</svg>
