<?xml version="1.0" standalone="no"?>
<!DOCTYPE svg PUBLIC "-//W3C//DTD SVG 20010904//EN"
 "http://www.w3.org/TR/2001/REC-SVG-20010904/DTD/svg10.dtd">
<svg version="1.0" xmlns="http://www.w3.org/2000/svg"
 width="90.000000pt" height="92.000000pt" viewBox="0 0 90.000000 92.000000"
 preserveAspectRatio="xMidYMid meet">
<metadata>
Created by potrace 1.16, written by Peter Selinger 2001-2019
</metadata>
<g transform="translate(0.000000,92.000000) scale(0.100000,-0.100000)"
fill="#000000" stroke="none">
<path d="M664 813 c3 -21 8 -84 12 -139 l7 -102 -29 -6 c-16 -3 -47 -8 -69
-12 -22 -3 -48 -8 -57 -11 -16 -4 -18 5 -18 81 0 91 -11 116 -52 116 -22 0
-22 7 -1 -162 l6 -48 -34 -1 c-19 -1 -45 -4 -59 -9 -25 -7 -25 -7 11 -23 20
-9 46 -13 57 -10 25 6 22 26 27 -200 2 -65 7 -123 13 -129 14 -14 32 -1 32 23
0 17 7 19 64 19 l64 0 27 -45 c28 -49 40 -50 60 -1 10 24 12 73 8 204 l-6 172
44 1 c24 1 55 4 68 8 l25 7 -30 23 c-23 18 -37 22 -66 17 l-38 -6 1 37 c0 21
4 70 8 108 9 81 3 99 -40 114 -43 15 -42 16 -35 -26z m16 -350 l0 -58 -47 0
c-27 0 -65 -4 -85 -9 l-38 -8 0 56 c0 60 -5 55 65 69 11 3 39 5 63 6 l42 1 0
-57z m0 -151 l0 -68 -47 0 c-27 0 -65 -4 -85 -8 l-38 -7 0 64 0 64 73 10 c39
5 78 10 85 11 8 2 12 -17 12 -66z"/>
<path d="M183 707 c-51 -11 -93 -23 -93 -27 0 -17 50 -29 82 -19 18 5 34 9 35
9 2 0 3 -27 3 -59 0 -68 9 -62 -119 -86 -47 -8 -87 -18 -90 -21 -9 -8 30 -34
51 -34 10 0 50 9 89 20 l71 19 -6 -31 c-3 -17 -6 -45 -6 -63 l0 -33 -66 -7
c-62 -6 -65 -8 -49 -24 8 -10 22 -53 29 -95 15 -85 22 -99 40 -74 9 12 36 18
104 23 86 7 91 9 81 27 -11 20 13 112 32 123 18 12 8 35 -22 50 -28 15 -34 15
-71 0 l-40 -16 6 38 c18 102 7 91 109 109 41 7 47 18 17 34 -12 7 -33 7 -60 1
-44 -10 -48 -4 -30 45 8 21 7 31 -6 45 -16 18 -15 19 27 19 61 0 78 13 48 34
-29 20 -49 19 -166 -7z m117 -359 c0 -13 -3 -39 -6 -59 -6 -36 -7 -37 -68 -47
-33 -5 -64 -7 -67 -3 -4 3 -10 29 -14 57 l-6 51 68 10 c37 5 74 11 81 11 6 1
12 -8 12 -20z"/>
</g>
</svg>
