<?xml version="1.0" standalone="no"?>
<!DOCTYPE svg PUBLIC "-//W3C//DTD SVG 20010904//EN"
 "http://www.w3.org/TR/2001/REC-SVG-20010904/DTD/svg10.dtd">
<svg version="1.0" xmlns="http://www.w3.org/2000/svg"
 width="96.000000pt" height="68.000000pt" viewBox="0 0 96.000000 68.000000"
 preserveAspectRatio="xMidYMid meet">
<metadata>
Created by potrace 1.16, written by Peter Selinger 2001-2019
</metadata>
<g transform="translate(0.000000,68.000000) scale(0.100000,-0.100000)"
fill="#000000" stroke="none">
<path d="M684 578 c13 -49 19 -165 8 -172 -6 -4 -41 -9 -77 -13 l-65 -6 0 61
c0 50 -3 63 -19 72 -43 22 -48 15 -39 -56 9 -66 6 -95 -9 -93 -4 1 -21 1 -36
0 -42 -2 -22 -21 22 -21 l38 0 2 -112 c2 -125 10 -152 32 -120 10 14 28 21 65
23 46 4 53 1 77 -26 25 -29 26 -29 44 -12 15 15 19 38 22 147 l3 130 43 0 c24
0 46 4 50 9 8 14 -28 31 -67 31 l-33 0 6 73 c6 81 -5 107 -49 107 -20 0 -23
-4 -18 -22z m16 -249 c0 -34 -3 -39 -22 -39 -13 0 -47 -3 -75 -6 l-53 -7 0 41
c0 45 -10 40 110 55 36 4 40 0 40 -44z m-1 -108 l-2 -50 -74 -3 -73 -3 0 47 0
47 53 4 c28 2 62 4 75 5 21 2 22 -2 21 -47z"/>
<path d="M237 503 c-87 -17 -93 -33 -13 -33 58 0 69 -11 59 -63 -4 -23 -11
-25 -75 -32 -39 -3 -80 -10 -92 -15 -43 -16 14 -24 87 -12 39 7 71 11 73 10 1
-2 0 -22 -3 -46 l-6 -42 -53 0 c-30 0 -54 -4 -54 -10 0 -5 4 -10 9 -10 5 0 17
-29 26 -65 10 -36 22 -65 26 -65 5 0 9 4 9 9 0 5 38 12 85 16 72 6 83 10 76
23 -6 10 -1 30 15 60 29 55 21 65 -50 58 l-48 -5 7 37 c9 48 21 62 54 62 39 0
72 11 65 21 -3 5 -28 6 -56 3 -51 -7 -51 -7 -44 17 5 13 8 32 9 42 1 12 13 19
39 24 40 6 49 17 22 27 -24 9 -81 6 -167 -11z m123 -270 c0 -44 -14 -56 -72
-61 -53 -4 -53 -4 -66 30 -6 19 -12 37 -12 41 0 7 44 13 108 15 40 2 42 0 42
-25z"/>
</g>
</svg>
