<?xml version="1.0" standalone="no"?>
<!DOCTYPE svg PUBLIC "-//W3C//DTD SVG 20010904//EN"
 "http://www.w3.org/TR/2001/REC-SVG-20010904/DTD/svg10.dtd">
<svg version="1.0" xmlns="http://www.w3.org/2000/svg"
 width="90.000000pt" height="92.000000pt" viewBox="0 0 90.000000 92.000000"
 preserveAspectRatio="xMidYMid meet">
<metadata>
Created by potrace 1.16, written by Peter Selinger 2001-2019
</metadata>
<g transform="translate(0.000000,92.000000) scale(0.100000,-0.100000)"
fill="#000000" stroke="none">
<path d="M147 824 c-3 -4 -2 -15 4 -26 6 -11 13 -62 16 -113 l6 -93 -39 -10
c-21 -6 -59 -14 -83 -17 -42 -7 -44 -8 -25 -22 14 -11 34 -13 76 -9 l57 6 -9
-25 c-26 -69 -101 -197 -137 -233 -19 -20 -16 -35 5 -23 29 16 89 84 116 131
l26 45 0 -50 c0 -27 -5 -96 -12 -151 -9 -82 -9 -108 2 -133 7 -17 16 -31 20
-31 21 0 30 62 30 220 0 94 4 170 8 170 5 0 16 -16 25 -35 21 -44 47 -47 47
-5 0 24 -7 33 -40 50 -43 22 -45 26 -31 63 7 17 20 26 45 31 22 4 36 13 36 21
0 17 -42 30 -66 21 -15 -6 -16 2 -10 66 4 40 10 83 13 95 4 17 -3 27 -29 43
-36 22 -41 23 -51 14z"/>
<path d="M399 812 c-1 -4 0 -37 1 -74 l2 -66 -56 -7 c-31 -4 -53 -11 -50 -17
11 -17 48 -25 76 -17 26 7 28 5 28 -21 0 -29 -18 -40 -69 -40 -20 0 -21 -2
-11 -15 7 -8 28 -15 46 -15 31 0 34 -3 34 -30 0 -32 -13 -37 -82 -32 -33 2
-36 -10 -8 -38 22 -22 45 -26 55 -10 13 22 35 10 35 -19 0 -45 18 -47 29 -4 6
21 11 43 11 48 0 6 18 18 41 26 22 8 39 19 37 24 -3 11 -10 11 -50 0 -26 -7
-28 -5 -28 23 0 27 4 30 40 36 40 6 52 19 27 29 -7 3 -25 3 -40 0 -20 -4 -27
-1 -27 10 0 31 13 47 39 47 14 0 32 4 40 9 20 13 -19 32 -49 24 -22 -6 -23 -4
-18 51 3 34 0 60 -6 65 -17 13 -46 21 -47 13z"/>
<path d="M660 690 c-36 -10 -76 -19 -90 -19 -24 -2 -24 -2 -6 -16 11 -8 28
-15 38 -15 27 0 22 -21 -26 -114 -38 -75 -41 -83 -19 -66 30 24 52 52 88 114
23 39 26 52 17 66 -9 15 -7 19 11 24 52 14 67 8 67 -27 0 -40 -24 -125 -43
-151 -12 -16 -18 -17 -45 -8 l-31 11 26 -42 c15 -23 28 -44 30 -46 6 -9 54 31
67 57 7 15 21 63 30 106 9 44 22 86 28 94 10 11 8 18 -11 33 -27 22 -44 22
-131 -1z"/>
<path d="M497 424 c-3 -4 -4 -25 -1 -48 l6 -42 -90 -12 c-49 -7 -101 -12 -116
-12 -33 0 -34 -17 -1 -32 20 -9 44 -8 108 5 45 8 84 14 86 11 2 -2 -4 -23 -13
-47 -19 -52 -71 -106 -141 -148 -42 -26 -45 -30 -20 -24 98 20 181 90 223 188
l21 47 145 0 c122 0 146 2 146 15 0 8 -14 22 -32 31 -29 15 -39 15 -127 0
-128 -21 -134 -21 -121 3 14 28 14 29 -22 51 -36 22 -41 23 -51 14z"/>
<path d="M637 198 c133 -141 149 -151 147 -89 -3 48 -26 74 -102 114 -103 54
-114 48 -45 -25z"/>
</g>
</svg>
