<?xml version="1.0" standalone="no"?>
<!DOCTYPE svg PUBLIC "-//W3C//DTD SVG 20010904//EN"
 "http://www.w3.org/TR/2001/REC-SVG-20010904/DTD/svg10.dtd">
<svg version="1.0" xmlns="http://www.w3.org/2000/svg"
 width="90.000000pt" height="92.000000pt" viewBox="0 0 90.000000 92.000000"
 preserveAspectRatio="xMidYMid meet">
<metadata>
Created by potrace 1.16, written by Peter Selinger 2001-2019
</metadata>
<g transform="translate(0.000000,92.000000) scale(0.100000,-0.100000)"
fill="#000000" stroke="none">
<path d="M545 838 c4 -13 12 -54 18 -91 9 -55 8 -70 -2 -77 -8 -4 -64 -15
-125 -25 -146 -22 -143 -21 -121 -45 37 -41 -1 -269 -62 -383 -23 -41 -26 -53
-13 -44 28 17 85 110 99 158 l12 44 50 -3 50 -4 -3 -86 -3 -87 -27 2 c-35 2
-35 -3 2 -47 l29 -35 20 20 c17 17 20 35 22 138 2 105 4 117 20 117 10 0 30 5
46 11 26 10 26 11 9 21 -10 6 -33 8 -52 5 -23 -4 -34 -2 -33 6 1 27 16 42 44
45 17 2 34 8 40 13 15 15 -15 30 -36 18 -29 -15 -38 -10 -41 24 -3 27 -8 33
-31 35 -26 3 -27 2 -18 -17 6 -11 11 -46 11 -79 0 -53 -2 -60 -22 -66 -38 -10
-68 -7 -67 7 0 6 6 50 13 97 l11 85 50 11 c28 6 71 13 96 17 l46 6 17 -105
c10 -58 26 -135 37 -170 23 -73 22 -75 -47 -159 -24 -30 -41 -55 -36 -55 12 0
54 30 92 66 l35 33 27 -48 c27 -47 118 -141 137 -141 19 0 23 21 12 68 -5 26
-13 65 -17 87 l-7 40 -11 -34 c-7 -19 -17 -36 -22 -38 -12 -4 -44 30 -71 77
l-21 35 25 55 c14 30 34 73 44 96 25 54 24 69 -6 82 -39 18 -45 15 -45 -25 0
-38 -29 -143 -40 -143 -10 0 -31 88 -45 185 -14 102 -13 105 52 105 53 0 60
11 22 34 -21 12 -39 15 -61 11 l-31 -7 6 48 c3 27 9 59 12 71 6 18 1 26 -26
42 -47 29 -74 28 -64 -1z"/>
<path d="M145 803 c4 -16 9 -76 12 -135 l5 -106 -76 -13 c-64 -11 -73 -15 -63
-27 9 -11 26 -13 74 -9 46 5 63 3 63 -6 0 -22 -81 -160 -122 -209 -22 -26 -38
-53 -36 -58 6 -19 72 39 111 98 22 31 41 59 44 62 6 6 -3 -81 -19 -186 -15
-101 13 -186 44 -132 9 16 15 83 18 208 l5 185 30 -44 c34 -50 49 -56 53 -23
4 29 -14 51 -55 69 -49 20 -44 47 12 63 25 7 48 17 52 22 10 17 -20 29 -56 24
l-34 -5 7 82 c4 45 9 92 12 103 4 16 -2 26 -29 43 -48 29 -61 28 -52 -6z"/>
<path d="M680 803 c0 -5 15 -26 33 -47 38 -44 67 -45 67 -1 0 20 -8 29 -35 41
-38 15 -65 18 -65 7z"/>
<path d="M520 322 c0 -17 52 -83 63 -79 7 2 13 15 15 30 3 20 -3 29 -27 41
-33 17 -51 20 -51 8z"/>
<path d="M353 260 c-18 -33 -28 -60 -23 -60 15 0 81 84 78 99 -6 32 -26 18
-55 -39z"/>
</g>
</svg>
