<?xml version="1.0" standalone="no"?>
<!DOCTYPE svg PUBLIC "-//W3C//DTD SVG 20010904//EN"
 "http://www.w3.org/TR/2001/REC-SVG-20010904/DTD/svg10.dtd">
<svg version="1.0" xmlns="http://www.w3.org/2000/svg"
 width="96.000000pt" height="68.000000pt" viewBox="0 0 96.000000 68.000000"
 preserveAspectRatio="xMidYMid meet">
<metadata>
Created by potrace 1.16, written by Peter Selinger 2001-2019
</metadata>
<g transform="translate(0.000000,68.000000) scale(0.100000,-0.100000)"
fill="#000000" stroke="none">
<path d="M535 598 c2 -13 6 -48 7 -78 l3 -54 -38 -9 c-45 -11 -53 -6 -37 23
15 27 6 50 -19 50 -14 0 -21 -10 -26 -37 -3 -21 -18 -57 -31 -80 -29 -51 -24
-55 15 -12 24 26 37 31 80 33 l52 1 -3 -40 -3 -40 -77 -10 c-42 -5 -80 -14
-85 -19 -5 -5 -1 -7 9 -3 9 3 18 1 20 -5 3 -7 20 -7 57 1 30 6 56 9 59 6 9 -9
-53 -79 -116 -129 -34 -28 -60 -51 -58 -53 10 -11 102 45 146 89 l53 53 -7
-106 c-7 -111 -3 -139 20 -139 28 0 37 41 30 147 -3 57 -2 103 2 103 8 0 19
-12 72 -80 49 -63 59 -69 115 -70 57 0 92 15 60 25 -56 18 -148 72 -194 113
-28 26 -51 50 -51 53 0 3 40 9 90 12 103 7 124 14 89 32 -17 9 -39 10 -74 4
-27 -4 -63 -8 -78 -8 -27 -1 -28 1 -25 37 3 36 4 37 48 42 52 6 73 17 64 32
-6 10 -64 5 -100 -9 -16 -6 -17 0 -11 60 5 59 4 68 -13 77 -33 17 -51 13 -45
-12z"/>
<path d="M237 511 l6 -88 -72 -7 c-49 -5 -71 -11 -68 -19 3 -8 26 -11 66 -10
33 1 61 -1 61 -4 0 -17 -74 -135 -110 -176 -24 -27 -36 -47 -28 -47 22 0 76
44 111 89 17 22 33 39 35 36 2 -2 -1 -42 -8 -89 -16 -115 -1 -176 35 -146 12
10 15 41 15 143 l0 130 23 -26 c26 -31 57 -36 57 -9 0 20 -24 45 -52 55 -11 4
-18 17 -18 32 0 21 6 26 40 31 40 7 53 27 24 38 -8 3 -26 3 -39 0 -24 -6 -24
-6 -18 65 6 70 6 71 -21 81 -15 5 -31 10 -36 10 -5 0 -6 -40 -3 -89z"/>
</g>
</svg>
