<?xml version="1.0" standalone="no"?>
<!DOCTYPE svg PUBLIC "-//W3C//DTD SVG 20010904//EN"
 "http://www.w3.org/TR/2001/REC-SVG-20010904/DTD/svg10.dtd">
<svg version="1.0" xmlns="http://www.w3.org/2000/svg"
 width="90.000000pt" height="92.000000pt" viewBox="0 0 90.000000 92.000000"
 preserveAspectRatio="xMidYMid meet">
<metadata>
Created by potrace 1.16, written by Peter Selinger 2001-2019
</metadata>
<g transform="translate(0.000000,92.000000) scale(0.100000,-0.100000)"
fill="#000000" stroke="none">
<path d="M455 853 c-13 -73 -94 -194 -190 -285 -61 -58 -49 -61 31 -10 61 40
131 114 178 190 14 23 30 42 34 42 5 0 55 -49 111 -110 95 -101 105 -110 139
-110 44 0 112 18 112 29 0 5 -21 16 -47 26 -27 10 -69 28 -95 41 -57 29 -204
151 -200 166 4 14 -37 58 -54 58 -6 0 -15 -17 -19 -37z"/>
<path d="M125 833 c15 -38 26 -182 20 -268 -13 -191 -36 -275 -102 -371 -24
-36 -43 -68 -40 -70 2 -3 27 16 55 41 49 44 102 131 102 166 0 36 18 27 54
-26 37 -56 59 -68 70 -39 12 32 -42 98 -94 116 -6 2 -7 40 -3 92 l6 88 61 45
c34 25 62 49 64 53 5 12 -35 50 -52 50 -8 0 -17 -12 -20 -28 -4 -15 -15 -41
-26 -57 l-20 -30 0 87 c0 48 4 98 10 112 8 21 6 28 -13 41 -12 8 -34 15 -50
15 -24 0 -28 -3 -22 -17z"/>
<path d="M473 662 c-59 -19 -66 -28 -25 -36 25 -6 127 15 140 28 21 22 -55 27
-115 8z"/>
<path d="M659 596 c-8 -8 -223 -37 -285 -38 -35 0 -64 -3 -64 -5 0 -2 6 -14
14 -26 8 -12 20 -49 26 -83 16 -81 21 -89 49 -74 13 6 71 12 135 13 l113 2 42
85 42 85 -28 22 c-28 23 -36 26 -44 19z m-9 -59 c0 -13 -7 -43 -15 -68 l-15
-44 -50 0 -50 0 0 62 0 62 43 4 c90 8 87 8 87 -16z m-170 -62 l0 -65 -44 0
-44 0 -7 46 c-3 26 -9 52 -12 60 -4 12 16 18 85 22 21 2 22 -2 22 -63z"/>
<path d="M559 485 c-9 -25 -13 -45 -10 -45 4 0 23 16 41 35 29 30 32 37 20 45
-26 17 -35 11 -51 -35z"/>
<path d="M390 492 c0 -16 32 -52 46 -52 21 0 17 38 -5 50 -23 12 -41 13 -41 2z"/>
<path d="M10 573 c0 -4 12 -32 27 -61 36 -71 78 -62 59 14 -8 30 -86 73 -86
47z"/>
<path d="M510 334 c-25 -8 -64 -15 -88 -16 -36 0 -42 -3 -36 -17 4 -9 8 -65 9
-126 0 -60 4 -116 8 -122 12 -19 27 -16 27 6 0 14 10 20 38 25 51 8 92 8 92
-1 0 -5 9 -19 19 -32 l19 -24 16 31 c11 21 16 57 16 116 0 47 5 97 11 112 9
24 7 30 -13 46 -27 21 -57 21 -118 2z m68 -66 c3 -35 2 -37 -25 -36 -15 1 -49
-2 -75 -6 l-48 -8 0 35 c0 34 2 35 48 45 81 17 97 13 100 -30z m2 -100 l0 -43
-75 -2 -75 -2 0 33 0 33 73 10 c39 5 73 10 75 11 1 1 2 -17 2 -40z"/>
</g>
</svg>
