<?xml version="1.0" standalone="no"?>
<!DOCTYPE svg PUBLIC "-//W3C//DTD SVG 20010904//EN"
 "http://www.w3.org/TR/2001/REC-SVG-20010904/DTD/svg10.dtd">
<svg version="1.0" xmlns="http://www.w3.org/2000/svg"
 width="96.000000pt" height="68.000000pt" viewBox="0 0 96.000000 68.000000"
 preserveAspectRatio="xMidYMid meet">
<metadata>
Created by potrace 1.16, written by Peter Selinger 2001-2019
</metadata>
<g transform="translate(0.000000,68.000000) scale(0.100000,-0.100000)"
fill="#000000" stroke="none">
<path d="M484 588 c4 -13 13 -53 20 -89 l13 -65 -74 -10 -74 -9 3 24 c3 21 11
27 53 36 61 12 61 30 0 30 -40 0 -45 3 -45 22 0 12 5 25 10 28 25 16 -38 50
-71 40 -18 -6 -18 -8 -4 -28 8 -12 15 -34 15 -49 0 -25 -4 -28 -32 -28 -45 0
-79 -10 -72 -21 3 -5 27 -9 55 -9 45 0 49 -2 49 -24 0 -22 -5 -25 -57 -31
-106 -11 -133 -17 -133 -27 0 -6 25 -8 63 -6 57 3 62 1 59 -17 -5 -28 -49 -85
-99 -127 -53 -45 -34 -51 25 -8 23 17 45 30 48 30 4 0 4 -46 1 -102 -7 -105 2
-150 23 -118 5 8 10 25 10 37 0 23 1 23 175 38 38 3 72 8 74 11 13 12 -28 23
-66 18 -38 -5 -43 -3 -43 15 0 16 9 21 45 27 25 3 42 10 39 15 -8 14 -72 11
-78 -3 -3 -7 -4 -2 -3 11 2 19 11 27 42 36 42 13 32 28 -14 23 -43 -5 -35 21
8 28 54 9 63 24 14 24 -30 0 -40 5 -48 23 -6 12 -20 23 -32 25 -27 4 -29 -5
-6 -30 22 -24 16 -28 -53 -35 l-59 -6 30 32 c29 31 29 33 11 46 -15 11 -16 15
-5 19 29 10 214 25 220 18 3 -4 16 -45 29 -91 12 -46 29 -100 38 -119 l17 -34
-53 -49 c-29 -27 -57 -49 -62 -49 -6 0 -10 -4 -10 -9 0 -16 36 0 89 40 l53 40
40 -41 c57 -58 139 -96 160 -75 3 3 1 24 -5 48 -16 71 -19 74 -29 40 -11 -42
-32 -42 -79 0 -62 57 -63 60 -30 108 16 24 37 61 47 82 17 36 17 37 -2 52 -32
24 -44 18 -44 -22 -1 -21 -11 -57 -23 -81 l-23 -42 -16 28 c-17 29 -60 174
-53 180 2 3 35 6 72 9 88 6 104 11 80 25 -22 12 -68 13 -126 3 l-41 -7 0 75 0
75 -31 11 c-42 15 -42 14 -35 -11z m-110 -323 c7 -18 -29 -35 -73 -35 -20 0
-30 6 -34 19 -4 17 1 21 37 24 22 2 46 4 52 5 7 1 15 -5 18 -13z m-4 -57 c0
-5 0 -12 0 -18 0 -5 -12 -10 -27 -11 -16 0 -37 -4 -48 -9 -15 -6 -8 -9 28 -9
39 -1 47 -4 47 -20 0 -14 -10 -20 -37 -25 -63 -10 -63 -10 -63 47 l0 52 50 0
c28 0 50 -3 50 -7z"/>
<path d="M640 532 c24 -32 46 -46 60 -37 15 9 -2 43 -25 49 -13 3 -31 9 -41
13 -14 5 -13 1 6 -25z"/>
</g>
</svg>
