<?xml version="1.0" standalone="no"?>
<!DOCTYPE svg PUBLIC "-//W3C//DTD SVG 20010904//EN"
 "http://www.w3.org/TR/2001/REC-SVG-20010904/DTD/svg10.dtd">
<svg version="1.0" xmlns="http://www.w3.org/2000/svg"
 width="96.000000pt" height="68.000000pt" viewBox="0 0 96.000000 68.000000"
 preserveAspectRatio="xMidYMid meet">
<metadata>
Created by potrace 1.16, written by Peter Selinger 2001-2019
</metadata>
<g transform="translate(0.000000,68.000000) scale(0.100000,-0.100000)"
fill="#000000" stroke="none">
<path d="M236 568 c5 -24 9 -63 9 -88 0 -41 -2 -45 -25 -48 -105 -11 -125 -32
-30 -32 l60 0 0 -34 c0 -40 -5 -45 -95 -84 -75 -33 -86 -51 -43 -66 22 -8 35
-4 75 22 l48 32 3 -32 c2 -17 1 -47 -3 -66 -6 -33 -7 -34 -43 -27 l-36 7 39
-45 c45 -51 55 -55 78 -29 14 15 17 40 17 124 l0 106 36 22 c23 15 32 26 26
32 -6 6 -17 6 -30 -1 -30 -16 -34 -14 -30 16 2 22 10 29 41 36 31 7 36 12 26
23 -6 8 -22 14 -35 14 -28 0 -32 27 -12 93 11 35 10 41 -7 53 -10 8 -32 14
-48 14 -28 0 -29 0 -21 -42z"/>
<path d="M620 571 c-36 -4 -99 -7 -140 -6 l-74 0 -22 -44 c-21 -41 -22 -71 -3
-71 5 0 17 17 28 39 23 43 34 47 216 58 l99 6 -17 -26 c-10 -15 -13 -27 -7
-27 25 0 100 23 100 31 0 4 -13 17 -29 28 -30 22 -41 22 -151 12z"/>
<path d="M580 485 c0 -47 8 -64 41 -80 42 -22 129 -18 129 6 0 5 -24 9 -53 9
-62 0 -77 11 -77 60 0 29 -4 36 -20 37 -16 1 -20 -4 -20 -32z"/>
<path d="M486 498 c-3 -7 -7 -24 -10 -38 -3 -14 -17 -38 -32 -53 -14 -16 -24
-31 -21 -33 10 -10 55 27 82 66 23 33 25 42 15 55 -15 18 -29 19 -34 3z"/>
<path d="M529 383 c0 -5 -2 -21 -2 -38 -2 -30 -3 -30 -80 -40 -90 -11 -92 -25
-5 -25 32 0 58 -4 58 -9 0 -14 -116 -116 -153 -136 l-32 -16 30 6 c39 8 113
51 148 87 16 15 30 28 32 28 3 0 6 -42 7 -92 3 -79 6 -93 21 -96 15 -3 17 7
17 97 0 55 4 102 8 105 5 3 40 -26 77 -64 l69 -70 64 0 c77 0 80 16 6 38 -64
18 -204 112 -204 137 0 3 36 5 81 5 60 0 80 3 76 13 -3 8 -29 12 -85 12 -78 0
-82 1 -82 22 0 26 -48 59 -51 36z"/>
</g>
</svg>
