<?xml version="1.0" standalone="no"?>
<!DOCTYPE svg PUBLIC "-//W3C//DTD SVG 20010904//EN"
 "http://www.w3.org/TR/2001/REC-SVG-20010904/DTD/svg10.dtd">
<svg version="1.0" xmlns="http://www.w3.org/2000/svg"
 width="96.000000pt" height="68.000000pt" viewBox="0 0 96.000000 68.000000"
 preserveAspectRatio="xMidYMid meet">
<metadata>
Created by potrace 1.16, written by Peter Selinger 2001-2019
</metadata>
<g transform="translate(0.000000,68.000000) scale(0.100000,-0.100000)"
fill="#000000" stroke="none">
<path d="M572 438 c1 -13 7 -30 13 -38 13 -16 16 -52 4 -44 -4 2 -10 0 -14 -6
-3 -5 2 -10 12 -10 12 0 28 -21 51 -70 33 -67 128 -180 152 -180 6 0 8 6 5 13
-4 6 0 4 8 -5 28 -35 39 -22 31 40 -7 58 -14 81 -14 46 -1 -19 -32 -64 -45
-64 -3 0 -4 4 -1 9 6 10 -44 47 -58 43 -5 -2 -6 4 -2 13 3 9 2 13 -4 10 -6 -3
-10 -2 -10 4 0 6 -13 32 -29 60 -16 27 -27 52 -24 55 4 3 -2 6 -13 6 -14 0
-16 2 -6 9 8 4 14 12 14 17 0 5 4 8 9 6 5 -1 9 2 9 8 0 12 -6 13 -28 1 -15 -8
-17 -3 -17 36 0 28 -6 48 -15 53 -23 15 -29 12 -28 -12z m92 -184 c3 -8 2 -12
-4 -9 -6 3 -10 10 -10 16 0 14 7 11 14 -7z"/>
<path d="M677 366 c-4 -9 3 -12 21 -9 15 3 35 5 44 6 28 2 10 11 -27 14 -20 1
-35 -3 -38 -11z"/>
<path d="M524 341 c4 -5 0 -12 -6 -15 -7 -3 -4 -5 6 -3 24 3 34 27 11 27 -9 0
-14 -4 -11 -9z"/>
</g>
</svg>
