<?xml version="1.0" standalone="no"?>
<!DOCTYPE svg PUBLIC "-//W3C//DTD SVG 20010904//EN"
 "http://www.w3.org/TR/2001/REC-SVG-20010904/DTD/svg10.dtd">
<svg version="1.0" xmlns="http://www.w3.org/2000/svg"
 width="96.000000pt" height="68.000000pt" viewBox="0 0 96.000000 68.000000"
 preserveAspectRatio="xMidYMid meet">
<metadata>
Created by potrace 1.16, written by Peter Selinger 2001-2019
</metadata>
<g transform="translate(0.000000,68.000000) scale(0.100000,-0.100000)"
fill="#000000" stroke="none">
<path d="M375 226 c19 -29 45 -40 58 -27 15 15 -21 51 -50 51 -23 0 -23 -1 -8
-24z"/>
<path d="M290 190 c24 -34 50 -39 50 -10 0 20 -27 40 -55 40 -14 0 -13 -4 5
-30z"/>
<path d="M160 192 c0 -15 51 -77 63 -77 7 0 13 12 15 27 3 21 -3 30 -27 42
-33 18 -51 20 -51 8z"/>
</g>
</svg>
