<?xml version="1.0" standalone="no"?>
<!DOCTYPE svg PUBLIC "-//W3C//DTD SVG 20010904//EN"
 "http://www.w3.org/TR/2001/REC-SVG-20010904/DTD/svg10.dtd">
<svg version="1.0" xmlns="http://www.w3.org/2000/svg"
 width="96.000000pt" height="68.000000pt" viewBox="0 0 96.000000 68.000000"
 preserveAspectRatio="xMidYMid meet">
<metadata>
Created by potrace 1.16, written by Peter Selinger 2001-2019
</metadata>
<g transform="translate(0.000000,68.000000) scale(0.100000,-0.100000)"
fill="#000000" stroke="none">
<path d="M490 459 c-25 -5 -81 -10 -125 -12 l-80 -2 2 -92 c1 -100 6 -116 31
-109 10 3 75 10 147 16 100 9 134 8 152 -1 13 -7 26 -9 30 -5 5 4 11 49 14 99
4 74 2 94 -10 105 -17 14 -94 14 -161 1z m107 -21 c6 -7 11 -41 12 -74 2 -61
1 -61 -29 -68 -17 -3 -80 -9 -141 -12 l-109 -7 0 71 0 71 43 6 c23 3 67 9 97
14 82 13 116 12 127 -1z"/>
</g>
</svg>
