<?xml version="1.0" standalone="no"?>
<!DOCTYPE svg PUBLIC "-//W3C//DTD SVG 20010904//EN"
 "http://www.w3.org/TR/2001/REC-SVG-20010904/DTD/svg10.dtd">
<svg version="1.0" xmlns="http://www.w3.org/2000/svg"
 width="90.000000pt" height="92.000000pt" viewBox="0 0 90.000000 92.000000"
 preserveAspectRatio="xMidYMid meet">
<metadata>
Created by potrace 1.16, written by Peter Selinger 2001-2019
</metadata>
<g transform="translate(0.000000,92.000000) scale(0.100000,-0.100000)"
fill="#000000" stroke="none">
<path d="M412 865 c0 -25 -2 -48 -5 -52 -4 -3 -47 -10 -97 -16 -49 -5 -90 -14
-90 -18 0 -15 50 -22 119 -16 l67 5 -4 -33 c-4 -36 -25 -45 -103 -45 -22 0
-39 -3 -39 -6 0 -3 12 -31 26 -63 l26 -56 47 3 c42 3 48 1 58 -21 l12 -25
-105 -13 c-57 -6 -104 -15 -104 -19 0 -12 28 -20 69 -20 35 0 39 -3 50 -40 7
-22 10 -44 7 -49 -3 -4 -54 -11 -113 -15 -60 -4 -123 -9 -141 -13 -30 -5 -32
-7 -19 -21 18 -17 61 -17 192 -2 144 16 145 16 145 -24 0 -20 -6 -36 -15 -39
-8 -4 -59 -9 -115 -13 -55 -4 -103 -11 -106 -16 -3 -4 10 -15 30 -23 27 -11
47 -13 83 -6 26 5 65 12 86 15 l37 5 0 -92 c0 -107 13 -141 29 -81 6 21 13 69
16 107 l7 67 118 0 c65 0 121 4 124 9 3 4 -4 17 -15 27 -23 21 -68 24 -167 11
l-63 -8 3 39 3 40 168 7 c92 4 167 11 167 16 0 5 -11 16 -25 25 -21 14 -41 16
-113 10 -48 -4 -102 -9 -120 -13 l-33 -5 26 38 c14 21 24 46 22 56 -4 15 2 18
44 18 51 0 60 8 34 30 -11 9 -37 11 -95 6 -68 -6 -80 -5 -80 8 0 8 -8 19 -17
24 -12 7 4 12 61 17 50 5 75 11 73 19 -3 6 6 29 19 52 l23 40 -30 18 c-26 15
-37 16 -85 6 -31 -7 -58 -9 -62 -6 -3 4 -1 18 4 33 8 25 16 28 98 40 100 14
122 26 84 44 -19 8 -39 8 -77 0 -29 -6 -61 -11 -71 -11 -17 0 -18 3 -8 26 11
23 10 29 -11 45 -38 31 -50 25 -49 -26z m128 -200 c0 -13 -8 -28 -17 -33 -21
-11 -183 -35 -189 -29 -3 3 -6 17 -7 33 -2 28 -1 29 68 40 39 7 87 12 108 13
33 1 37 -2 37 -24z m-43 -220 c-2 -26 -7 -48 -9 -51 -3 -2 -29 -7 -57 -11
l-52 -6 6 26 c5 20 1 32 -18 51 l-25 25 36 4 c21 2 57 4 81 5 l44 2 -6 -45z"/>
</g>
</svg>
