<?xml version="1.0" standalone="no"?>
<!DOCTYPE svg PUBLIC "-//W3C//DTD SVG 20010904//EN"
 "http://www.w3.org/TR/2001/REC-SVG-20010904/DTD/svg10.dtd">
<svg version="1.0" xmlns="http://www.w3.org/2000/svg"
 width="90.000000pt" height="92.000000pt" viewBox="0 0 90.000000 92.000000"
 preserveAspectRatio="xMidYMid meet">
<metadata>
Created by potrace 1.16, written by Peter Selinger 2001-2019
</metadata>
<g transform="translate(0.000000,92.000000) scale(0.100000,-0.100000)"
fill="#000000" stroke="none">
<path d="M176 831 c-3 -5 -2 -20 3 -33 5 -12 10 -68 12 -123 l4 -100 -82 -14
c-46 -8 -83 -18 -83 -22 0 -15 50 -22 106 -15 l54 6 -25 -57 c-33 -74 -78
-146 -128 -206 -22 -26 -37 -51 -34 -54 12 -11 93 65 132 124 22 32 43 63 48
68 11 11 1 -138 -14 -231 -9 -50 -8 -68 6 -99 15 -37 16 -38 33 -22 14 15 18
46 22 209 l5 191 32 -51 c18 -29 36 -52 42 -52 15 0 21 28 11 54 -9 24 -59 66
-79 66 -6 0 -11 15 -11 34 0 32 3 35 39 41 22 3 47 12 57 19 17 13 16 14 -5
25 -13 7 -35 10 -53 6 l-30 -7 3 108 4 108 -32 18 c-18 11 -34 15 -37 9z"/>
<path d="M685 724 c-81 -22 -271 -46 -311 -38 -36 7 -37 6 -28 -17 5 -13 9
-135 9 -271 0 -182 3 -250 12 -259 7 -7 16 -9 20 -5 5 4 10 120 12 256 l3 249
27 5 c46 10 154 24 228 31 70 7 72 6 78 -17 11 -45 1 -486 -12 -499 -9 -9 -21
-8 -52 5 -23 9 -41 12 -41 8 1 -4 24 -33 53 -65 46 -50 55 -56 70 -45 40 29
46 80 40 318 -5 171 -3 235 7 265 13 38 12 39 -21 67 -18 15 -36 28 -39 27 -3
0 -27 -7 -55 -15z"/>
<path d="M530 555 c-36 -7 -69 -13 -73 -14 -5 -1 -5 -5 -2 -11 8 -13 87 -13
155 0 61 12 70 17 50 30 -18 12 -47 11 -130 -5z"/>
<path d="M570 444 c-19 -7 -57 -13 -83 -13 -44 -1 -47 -2 -37 -21 6 -11 15
-43 20 -72 6 -29 14 -56 18 -60 5 -5 42 -3 83 3 l75 11 0 31 c0 18 8 48 17 67
18 34 17 35 -4 53 -24 20 -40 20 -89 1z m30 -78 c0 -44 0 -44 -41 -51 -22 -4
-42 -5 -44 -3 -2 2 -7 22 -11 45 -7 45 -2 50 64 52 31 1 32 0 32 -43z"/>
</g>
</svg>
