<?xml version="1.0" standalone="no"?>
<!DOCTYPE svg PUBLIC "-//W3C//DTD SVG 20010904//EN"
 "http://www.w3.org/TR/2001/REC-SVG-20010904/DTD/svg10.dtd">
<svg version="1.0" xmlns="http://www.w3.org/2000/svg"
 width="96.000000pt" height="68.000000pt" viewBox="0 0 96.000000 68.000000"
 preserveAspectRatio="xMidYMid meet">
<metadata>
Created by potrace 1.16, written by Peter Selinger 2001-2019
</metadata>
<g transform="translate(0.000000,68.000000) scale(0.100000,-0.100000)"
fill="#000000" stroke="none">
<path d="M275 573 c4 -10 10 -50 12 -90 6 -81 13 -75 -89 -88 -72 -9 -61 -29
11 -22 32 4 61 4 63 1 10 -9 -49 -106 -102 -165 -28 -33 -48 -59 -43 -59 18 0
71 42 116 92 48 52 48 53 43 21 -3 -17 -8 -71 -11 -120 -7 -96 2 -126 29 -104
13 11 16 36 17 115 1 55 4 113 8 129 l6 27 20 -30 c23 -34 45 -39 45 -11 0 23
-22 47 -50 56 -14 4 -20 15 -20 36 0 23 4 29 23 29 35 0 67 11 61 21 -3 5 -23
9 -46 9 l-40 0 7 70 c8 79 -1 100 -42 100 -20 0 -24 -4 -18 -17z"/>
</g>
</svg>
