<?xml version="1.0" standalone="no"?>
<!DOCTYPE svg PUBLIC "-//W3C//DTD SVG 20010904//EN"
 "http://www.w3.org/TR/2001/REC-SVG-20010904/DTD/svg10.dtd">
<svg version="1.0" xmlns="http://www.w3.org/2000/svg"
 width="96.000000pt" height="68.000000pt" viewBox="0 0 96.000000 68.000000"
 preserveAspectRatio="xMidYMid meet">
<metadata>
Created by potrace 1.16, written by Peter Selinger 2001-2019
</metadata>
<g transform="translate(0.000000,68.000000) scale(0.100000,-0.100000)"
fill="#000000" stroke="none">
<path d="M251 447 c-6 -19 -34 -61 -61 -95 -28 -34 -46 -62 -41 -62 5 0 30 20
57 44 35 33 58 45 86 48 29 3 38 0 38 -12 0 -29 -75 -143 -135 -207 -69 -72
-62 -83 15 -22 33 26 74 75 116 140 35 55 64 104 64 109 0 17 -48 22 -85 10
-20 -7 -38 -10 -40 -8 -3 2 9 20 25 39 37 43 37 49 1 49 -24 0 -31 -6 -40 -33z"/>
</g>
</svg>
