<?xml version="1.0" standalone="no"?>
<!DOCTYPE svg PUBLIC "-//W3C//DTD SVG 20010904//EN"
 "http://www.w3.org/TR/2001/REC-SVG-20010904/DTD/svg10.dtd">
<svg version="1.0" xmlns="http://www.w3.org/2000/svg"
 width="96.000000pt" height="68.000000pt" viewBox="0 0 96.000000 68.000000"
 preserveAspectRatio="xMidYMid meet">
<metadata>
Created by potrace 1.16, written by Peter Selinger 2001-2019
</metadata>
<g transform="translate(0.000000,68.000000) scale(0.100000,-0.100000)"
fill="#000000" stroke="none">
<path d="M574 549 c-3 -5 0 -18 7 -30 7 -15 10 -61 7 -138 -5 -132 -18 -171
-79 -243 -44 -52 -42 -59 8 -28 35 21 78 82 89 124 3 14 10 24 14 21 4 -3 26
-35 48 -72 57 -96 75 -113 120 -113 66 0 69 14 10 48 -73 42 -168 135 -168
164 0 7 32 33 70 58 70 45 83 63 54 74 -27 10 -30 8 -73 -49 -39 -51 -66 -71
-56 -42 2 6 6 60 10 118 l6 107 -31 4 c-17 3 -33 1 -36 -3z"/>
<path d="M507 330 c7 -28 31 -46 44 -33 15 15 -7 53 -30 53 -14 0 -18 -5 -14
-20z"/>
</g>
</svg>
