<?xml version="1.0" standalone="no"?>
<!DOCTYPE svg PUBLIC "-//W3C//DTD SVG 20010904//EN"
 "http://www.w3.org/TR/2001/REC-SVG-20010904/DTD/svg10.dtd">
<svg version="1.0" xmlns="http://www.w3.org/2000/svg"
 width="96.000000pt" height="68.000000pt" viewBox="0 0 96.000000 68.000000"
 preserveAspectRatio="xMidYMid meet">
<metadata>
Created by potrace 1.16, written by Peter Selinger 2001-2019
</metadata>
<g transform="translate(0.000000,68.000000) scale(0.100000,-0.100000)"
fill="#000000" stroke="none">
<path d="M582 577 c-5 -6 -13 -26 -16 -44 -8 -34 -55 -112 -95 -155 -33 -37
-18 -36 29 2 27 21 49 30 76 30 20 0 66 5 102 11 53 9 66 9 73 -2 16 -26 11
-235 -7 -280 -18 -43 -17 -43 -84 -24 -22 7 -20 2 18 -36 47 -49 59 -48 98 9
22 32 29 86 36 277 3 66 2 70 -23 82 -21 10 -43 9 -125 -7 -54 -10 -100 -17
-103 -15 -2 3 15 32 38 65 23 34 39 65 36 71 -13 19 -43 29 -53 16z"/>
<path d="M384 557 c-10 -30 -37 -66 -50 -67 -6 0 -32 12 -58 26 -54 30 -60 18
-11 -24 40 -36 39 -38 -46 -93 -47 -30 -51 -34 -30 -37 13 -2 50 10 82 27 33
17 61 31 64 31 3 0 5 -15 5 -33 0 -26 -10 -43 -52 -84 -29 -28 -75 -65 -103
-83 -43 -27 -46 -31 -20 -25 38 8 105 47 152 88 l36 32 -7 -75 c-10 -102 -18
-114 -67 -106 -21 3 -39 3 -39 -1 0 -14 67 -73 82 -73 19 0 54 38 68 75 19 49
16 223 -4 270 l-17 40 51 46 c54 49 54 57 -2 78 -24 9 -28 7 -34 -12z"/>
<path d="M550 324 c-25 -7 -58 -10 -74 -7 -25 5 -28 3 -21 -13 4 -11 13 -41
19 -67 9 -44 12 -47 36 -43 14 3 47 8 73 11 36 5 47 10 43 20 -3 8 2 31 10 52
15 34 15 38 -2 50 -21 15 -23 15 -84 -3z m38 -51 c-3 -35 -6 -39 -40 -47 -21
-5 -39 -8 -42 -5 -2 2 -6 21 -9 41 -5 36 -5 37 31 41 20 2 43 4 50 5 9 2 12
-9 10 -35z"/>
</g>
</svg>
