<?xml version="1.0" standalone="no"?>
<!DOCTYPE svg PUBLIC "-//W3C//DTD SVG 20010904//EN"
 "http://www.w3.org/TR/2001/REC-SVG-20010904/DTD/svg10.dtd">
<svg version="1.0" xmlns="http://www.w3.org/2000/svg"
 width="90.000000pt" height="92.000000pt" viewBox="0 0 90.000000 92.000000"
 preserveAspectRatio="xMidYMid meet">
<metadata>
Created by potrace 1.16, written by Peter Selinger 2001-2019
</metadata>
<g transform="translate(0.000000,92.000000) scale(0.100000,-0.100000)"
fill="#000000" stroke="none">
<path d="M440 820 c-12 -51 -60 -139 -111 -202 -16 -21 -27 -38 -23 -38 15 0
75 43 94 68 18 23 27 25 74 23 30 -1 92 3 138 10 115 16 145 34 95 56 -17 8
-50 4 -135 -15 -62 -13 -116 -22 -119 -18 -3 3 10 30 30 61 21 30 37 59 37 64
0 10 -44 41 -59 41 -5 0 -14 -22 -21 -50z"/>
<path d="M160 773 c0 -7 43 -64 66 -87 33 -33 62 -11 50 39 -4 16 -19 30 -42
40 -38 16 -74 20 -74 8z"/>
<path d="M530 610 c-63 -12 -102 -15 -118 -9 -33 13 -42 3 -31 -30 6 -16 9
-53 7 -82 l-3 -54 -70 -10 -70 -11 27 -18 c21 -13 37 -16 67 -11 l40 7 -15
-54 c-9 -29 -20 -58 -26 -65 -5 -6 -8 -24 -6 -40 3 -31 12 -32 73 -9 24 9 74
15 127 16 l87 0 -10 -29 c-6 -16 -19 -37 -30 -47 -16 -15 -24 -16 -58 -6 -56
17 -57 17 -7 -40 25 -29 46 -56 46 -60 0 -13 24 -8 45 10 28 23 53 67 68 120
l12 42 62 -29 c34 -16 64 -27 67 -24 13 13 5 34 -25 68 -24 27 -39 35 -65 35
-38 0 -40 6 -27 95 l6 47 85 -3 c60 -3 86 0 89 8 8 23 -49 40 -113 36 l-61 -5
7 43 c4 24 10 56 15 71 6 23 3 29 -24 42 -36 19 -50 19 -171 -4z m120 -89 l0
-69 -105 -7 c-58 -4 -107 -6 -109 -4 -1 2 0 31 3 64 l6 60 55 11 c30 7 76 12
103 13 l47 1 0 -69z m-12 -173 c-4 -34 -9 -62 -11 -63 -1 -1 -53 -5 -114 -8
-126 -7 -120 -11 -100 68 13 49 14 50 58 56 24 3 74 7 110 7 l66 2 -9 -62z"/>
<path d="M490 541 c0 -17 46 -76 60 -76 9 0 16 12 18 28 3 23 -2 30 -32 42
-41 17 -46 18 -46 6z"/>
<path d="M480 371 c0 -15 41 -81 50 -81 15 0 28 32 22 52 -6 26 -72 52 -72 29z"/>
<path d="M68 574 c6 -10 26 -34 46 -53 39 -38 66 -36 66 3 0 31 -32 54 -85 63
-34 6 -36 4 -27 -13z"/>
<path d="M181 383 c-23 -45 -61 -103 -83 -128 l-41 -47 19 -45 c10 -25 24 -45
29 -45 12 -1 127 310 122 332 -1 8 -22 -22 -46 -67z"/>
</g>
</svg>
