<?xml version="1.0" standalone="no"?>
<!DOCTYPE svg PUBLIC "-//W3C//DTD SVG 20010904//EN"
 "http://www.w3.org/TR/2001/REC-SVG-20010904/DTD/svg10.dtd">
<svg version="1.0" xmlns="http://www.w3.org/2000/svg"
 width="96.000000pt" height="68.000000pt" viewBox="0 0 96.000000 68.000000"
 preserveAspectRatio="xMidYMid meet">
<metadata>
Created by potrace 1.16, written by Peter Selinger 2001-2019
</metadata>
<g transform="translate(0.000000,68.000000) scale(0.100000,-0.100000)"
fill="#000000" stroke="none">
<path d="M502 360 c25 -34 36 -37 45 -14 7 19 -21 44 -49 44 -17 0 -17 -2 4
-30z"/>
<path d="M680 327 c-3 -3 -61 -8 -129 -12 -69 -4 -159 -11 -200 -15 -66 -5
-73 -8 -51 -17 18 -7 55 -7 130 2 58 6 166 13 240 14 132 2 150 4 136 18 -8 8
-119 17 -126 10z"/>
</g>
</svg>
