<?xml version="1.0" standalone="no"?>
<!DOCTYPE svg PUBLIC "-//W3C//DTD SVG 20010904//EN"
 "http://www.w3.org/TR/2001/REC-SVG-20010904/DTD/svg10.dtd">
<svg version="1.0" xmlns="http://www.w3.org/2000/svg"
 width="96.000000pt" height="68.000000pt" viewBox="0 0 96.000000 68.000000"
 preserveAspectRatio="xMidYMid meet">
<metadata>
Created by potrace 1.16, written by Peter Selinger 2001-2019
</metadata>
<g transform="translate(0.000000,68.000000) scale(0.100000,-0.100000)"
fill="#000000" stroke="none">
<path d="M635 545 c-27 -7 -83 -14 -124 -14 -72 -1 -74 -1 -57 -20 10 -10 25
-52 35 -93 14 -62 20 -73 36 -70 11 1 63 4 115 6 l95 4 23 59 c12 32 29 70 36
85 13 23 12 28 0 39 -21 18 -101 20 -159 4z m90 -49 c0 -29 -2 -30 -47 -31
-46 0 -48 1 -48 27 0 29 15 37 65 35 26 -2 30 -6 30 -31z m-137 -18 c3 -27 1
-28 -37 -28 -23 0 -41 3 -41 8 0 4 -3 17 -6 30 -6 22 -4 23 37 20 40 -3 44 -6
47 -30z m123 -59 c-5 -28 -11 -32 -44 -35 -35 -3 -37 -1 -37 26 0 25 4 29 33
33 17 2 37 5 43 5 8 1 9 -9 5 -29z m-121 -19 c0 -26 -3 -30 -29 -30 -28 0 -41
14 -41 46 0 9 11 14 35 14 32 0 35 -2 35 -30z"/>
</g>
</svg>
