<?xml version="1.0" standalone="no"?>
<!DOCTYPE svg PUBLIC "-//W3C//DTD SVG 20010904//EN"
 "http://www.w3.org/TR/2001/REC-SVG-20010904/DTD/svg10.dtd">
<svg version="1.0" xmlns="http://www.w3.org/2000/svg"
 width="96.000000pt" height="68.000000pt" viewBox="0 0 96.000000 68.000000"
 preserveAspectRatio="xMidYMid meet">
<metadata>
Created by potrace 1.16, written by Peter Selinger 2001-2019
</metadata>
<g transform="translate(0.000000,68.000000) scale(0.100000,-0.100000)"
fill="#000000" stroke="none">
<path d="M645 190 c3 -5 1 -19 -5 -30 -12 -22 -1 -27 18 -8 17 17 15 48 -4 48
-8 0 -12 -4 -9 -10z"/>
<path d="M557 138 c3 -24 9 -50 14 -58 5 -9 6 3 3 30 -2 25 -5 51 -6 58 -1 6
-5 12 -9 12 -4 0 -5 -19 -2 -42z"/>
<path d="M631 123 c0 -6 -3 -18 -6 -25 -4 -10 4 -14 25 -16 19 -1 29 2 25 7
-3 6 -12 8 -20 5 -8 -4 -15 3 -18 18 -2 13 -5 18 -6 11z"/>
<path d="M758 102 c-46 -6 -31 -17 21 -17 27 0 47 3 45 6 -6 10 -36 15 -66 11z"/>
<path d="M428 73 c7 -3 16 -2 19 1 4 3 -2 6 -13 5 -11 0 -14 -3 -6 -6z"/>
<path d="M538 73 c7 -3 16 -2 19 1 4 3 -2 6 -13 5 -11 0 -14 -3 -6 -6z"/>
</g>
</svg>
