<?xml version="1.0" standalone="no"?>
<!DOCTYPE svg PUBLIC "-//W3C//DTD SVG 20010904//EN"
 "http://www.w3.org/TR/2001/REC-SVG-20010904/DTD/svg10.dtd">
<svg version="1.0" xmlns="http://www.w3.org/2000/svg"
 width="96.000000pt" height="68.000000pt" viewBox="0 0 96.000000 68.000000"
 preserveAspectRatio="xMidYMid meet">
<metadata>
Created by potrace 1.16, written by Peter Selinger 2001-2019
</metadata>
<g transform="translate(0.000000,68.000000) scale(0.100000,-0.100000)"
fill="#000000" stroke="none">
<path d="M584 421 c10 -11 16 -23 13 -28 -3 -5 -36 -10 -73 -11 -78 -4 -111
-16 -72 -25 14 -4 51 -2 84 3 32 6 60 10 62 10 2 0 2 -17 0 -37 -3 -35 -5 -38
-32 -36 l-29 2 28 -29 c48 -50 65 -37 65 50 l0 48 78 7 c97 8 101 9 77 22 -13
7 -43 9 -83 4 -57 -7 -65 -5 -88 16 -30 28 -54 31 -30 4z"/>
</g>
</svg>
