<?xml version="1.0" standalone="no"?>
<!DOCTYPE svg PUBLIC "-//W3C//DTD SVG 20010904//EN"
 "http://www.w3.org/TR/2001/REC-SVG-20010904/DTD/svg10.dtd">
<svg version="1.0" xmlns="http://www.w3.org/2000/svg"
 width="90.000000pt" height="92.000000pt" viewBox="0 0 90.000000 92.000000"
 preserveAspectRatio="xMidYMid meet">
<metadata>
Created by potrace 1.16, written by Peter Selinger 2001-2019
</metadata>
<g transform="translate(0.000000,92.000000) scale(0.100000,-0.100000)"
fill="#000000" stroke="none">
<path d="M406 826 c-9 -55 -64 -171 -122 -254 -25 -35 -43 -66 -41 -69 3 -2
29 19 60 47 l55 50 7 -40 c8 -48 -2 -284 -16 -387 -8 -58 -7 -78 6 -109 21
-50 38 -33 45 44 5 55 6 57 35 58 17 0 93 6 170 13 77 6 160 12 184 14 55 3
64 23 19 41 -24 10 -47 12 -83 6 -27 -5 -63 -9 -78 -9 -26 -1 -27 1 -23 36 3
21 5 43 5 50 1 7 28 14 66 18 36 4 68 12 71 17 12 19 -21 29 -78 24 l-58 -6 0
49 0 49 58 7 c32 3 65 10 72 15 24 15 -39 32 -89 25 l-43 -7 7 40 c4 28 3 42
-7 48 -8 5 16 14 66 24 44 8 81 20 83 26 4 13 -51 39 -65 30 -5 -3 -26 -9 -48
-14 l-40 -9 4 33 c3 25 -2 39 -21 58 -24 24 -73 44 -83 33 -5 -4 38 -88 58
-113 5 -7 3 -14 -5 -17 -26 -10 -147 -19 -172 -13 l-25 6 23 38 c13 20 37 63
53 95 l29 59 -24 19 c-36 29 -48 24 -55 -25z m154 -252 c6 -14 10 -36 10 -49
0 -20 -6 -24 -40 -29 -134 -20 -120 -22 -120 16 0 68 7 77 64 81 28 2 57 4 64
5 7 1 17 -10 22 -24z m10 -163 c0 -56 1 -56 -97 -66 l-63 -7 0 56 0 55 63 4
c34 2 70 4 80 5 14 2 17 -6 17 -47z m0 -141 c0 -56 3 -54 -102 -65 l-58 -6 0
55 0 55 68 4 c37 2 73 4 80 5 8 1 12 -14 12 -48z"/>
<path d="M90 723 c0 -16 105 -113 123 -113 22 0 31 22 23 56 -5 17 -19 30 -43
41 -47 19 -103 28 -103 16z"/>
<path d="M226 399 c-16 -29 -56 -79 -89 -112 l-60 -60 13 -36 c18 -52 30 -64
46 -50 8 6 14 17 14 23 0 7 27 68 60 136 33 68 60 130 60 137 0 26 -16 12 -44
-38z"/>
</g>
</svg>
