<?xml version="1.0" standalone="no"?>
<!DOCTYPE svg PUBLIC "-//W3C//DTD SVG 20010904//EN"
 "http://www.w3.org/TR/2001/REC-SVG-20010904/DTD/svg10.dtd">
<svg version="1.0" xmlns="http://www.w3.org/2000/svg"
 width="90.000000pt" height="92.000000pt" viewBox="0 0 90.000000 92.000000"
 preserveAspectRatio="xMidYMid meet">
<metadata>
Created by potrace 1.16, written by Peter Selinger 2001-2019
</metadata>
<g transform="translate(0.000000,92.000000) scale(0.100000,-0.100000)"
fill="#000000" stroke="none">
<path d="M228 776 l4 -74 -51 -7 c-67 -9 -62 -29 7 -33 l52 -3 0 -43 0 -44
-62 -10 c-35 -6 -82 -14 -106 -17 -51 -8 -51 -26 -1 -38 24 -6 58 -3 114 11
44 11 82 17 85 15 10 -10 -224 -212 -262 -226 -7 -2 -10 -8 -6 -12 11 -11 79
21 147 69 53 37 85 50 155 63 l30 6 -22 -34 c-12 -19 -30 -36 -41 -39 -15 -4
-18 -9 -11 -20 5 -8 10 -25 10 -37 0 -22 -11 -27 -150 -63 l-45 -12 28 -24 28
-24 69 35 70 35 0 -46 c0 -66 -14 -87 -52 -79 l-31 7 39 -46 c21 -25 43 -45
49 -43 22 8 35 56 35 138 l0 86 50 23 c60 28 66 45 9 25 -54 -19 -56 -19 -61
9 -4 20 4 29 48 58 29 18 53 39 54 45 0 7 -14 20 -32 29 -26 14 -38 14 -71 4
-21 -6 -40 -10 -42 -8 -2 2 17 25 40 51 40 43 49 48 97 53 76 8 83 11 68 29
-7 8 -28 15 -46 15 -19 0 -34 2 -34 5 0 2 15 25 33 51 l32 46 -28 24 c-35 30
-47 30 -47 0 0 -24 -1 -24 -30 -10 -16 9 -38 13 -48 10 -16 -6 -18 -1 -14 50
4 60 -4 74 -44 74 -20 0 -21 -4 -16 -74z m142 -97 c0 -24 -55 -99 -72 -99 -15
0 -18 9 -18 44 0 42 1 44 38 54 51 14 52 14 52 1z"/>
<path d="M587 788 c-8 -80 -68 -213 -156 -347 -15 -23 -15 -24 6 -13 12 7 36
29 55 50 25 30 43 41 74 45 38 6 42 5 48 -17 3 -14 2 -55 -4 -93 -5 -37 -10
-71 -10 -75 0 -17 -17 -6 -34 22 -23 41 -63 67 -78 52 -8 -8 -4 -17 16 -33 37
-29 69 -94 57 -117 -18 -33 -76 -81 -123 -102 -27 -11 -48 -24 -48 -27 0 -10
80 7 114 23 17 9 46 30 65 48 31 29 34 30 45 12 31 -53 75 -102 100 -114 29
-15 141 -8 151 9 3 4 -28 24 -69 43 -42 19 -97 55 -125 81 -43 40 -48 50 -40
68 5 12 18 62 28 110 14 74 15 91 4 107 -17 24 -12 26 70 40 71 13 82 27 33
44 -20 8 -46 4 -112 -18 -47 -15 -88 -26 -90 -23 -3 2 20 55 50 118 l55 114
-21 22 c-37 39 -54 30 -61 -29z"/>
</g>
</svg>
