<?xml version="1.0" standalone="no"?>
<!DOCTYPE svg PUBLIC "-//W3C//DTD SVG 20010904//EN"
 "http://www.w3.org/TR/2001/REC-SVG-20010904/DTD/svg10.dtd">
<svg version="1.0" xmlns="http://www.w3.org/2000/svg"
 width="96.000000pt" height="68.000000pt" viewBox="0 0 96.000000 68.000000"
 preserveAspectRatio="xMidYMid meet">
<metadata>
Created by potrace 1.16, written by Peter Selinger 2001-2019
</metadata>
<g transform="translate(0.000000,68.000000) scale(0.100000,-0.100000)"
fill="#000000" stroke="none">
<path d="M627 602 c-3 -4 -10 -25 -17 -47 -19 -61 -58 -134 -101 -192 -22 -29
-37 -53 -33 -53 4 0 25 15 48 33 24 20 58 37 81 41 157 26 186 32 188 41 4 18
-49 16 -127 -3 -42 -11 -76 -18 -76 -16 0 3 20 40 45 83 25 43 45 82 45 88 0
12 -48 35 -53 25z"/>
</g>
</svg>
