<?xml version="1.0" standalone="no"?>
<!DOCTYPE svg PUBLIC "-//W3C//DTD SVG 20010904//EN"
 "http://www.w3.org/TR/2001/REC-SVG-20010904/DTD/svg10.dtd">
<svg version="1.0" xmlns="http://www.w3.org/2000/svg"
 width="96.000000pt" height="68.000000pt" viewBox="0 0 96.000000 68.000000"
 preserveAspectRatio="xMidYMid meet">
<metadata>
Created by potrace 1.16, written by Peter Selinger 2001-2019
</metadata>
<g transform="translate(0.000000,68.000000) scale(0.100000,-0.100000)"
fill="#000000" stroke="none">
<path d="M437 600 l5 -47 -53 -7 c-30 -3 -82 -9 -116 -12 -35 -4 -63 -10 -63
-14 0 -15 62 -22 129 -15 l66 7 -30 -32 c-16 -17 -68 -57 -115 -88 -59 -40
-79 -58 -66 -60 20 -4 149 56 181 85 12 10 31 27 44 38 l24 20 -6 -38 c-3 -21
-2 -49 3 -62 10 -27 -7 -35 -75 -35 -22 0 -47 -5 -55 -11 -17 -11 147 -6 188
6 15 5 22 3 21 -6 0 -20 -57 -62 -75 -55 -11 4 -14 -1 -12 -22 l3 -27 -125 -8
c-69 -5 -127 -11 -130 -13 -23 -23 109 -27 233 -7 l38 6 -3 -59 c-3 -57 -4
-59 -30 -57 -35 2 -35 -5 -1 -34 54 -47 73 -26 73 83 l0 61 140 8 c77 4 140
11 140 15 0 20 -68 31 -131 20 -35 -5 -85 -10 -111 -10 -39 0 -48 3 -48 18 0
11 21 27 65 46 36 16 65 33 65 38 0 17 -62 39 -95 34 -33 -6 -34 -5 -25 20 6
14 10 36 10 50 0 13 2 24 4 24 2 0 44 -20 92 -44 101 -50 139 -62 148 -47 21
34 -55 76 -182 101 -47 10 -62 17 -62 30 0 18 57 30 152 30 53 0 69 13 36 31
-15 8 -48 10 -104 5 l-83 -6 -3 37 c-3 33 -7 38 -35 44 l-32 6 6 -47z"/>
</g>
</svg>
