<?xml version="1.0" standalone="no"?>
<!DOCTYPE svg PUBLIC "-//W3C//DTD SVG 20010904//EN"
 "http://www.w3.org/TR/2001/REC-SVG-20010904/DTD/svg10.dtd">
<svg version="1.0" xmlns="http://www.w3.org/2000/svg"
 width="96.000000pt" height="68.000000pt" viewBox="0 0 96.000000 68.000000"
 preserveAspectRatio="xMidYMid meet">
<metadata>
Created by potrace 1.16, written by Peter Selinger 2001-2019
</metadata>
<g transform="translate(0.000000,68.000000) scale(0.100000,-0.100000)"
fill="#000000" stroke="none">
<path d="M545 598 c-2 -7 -9 -30 -15 -50 -13 -42 -72 -137 -120 -191 -18 -21
-31 -40 -28 -42 7 -7 68 43 106 86 29 33 38 37 99 43 38 3 78 9 91 12 35 10
28 -16 -27 -98 -65 -96 -158 -190 -251 -251 -54 -35 -67 -47 -45 -42 97 23
249 143 327 258 21 32 53 74 70 93 25 28 29 39 21 52 -15 24 -45 26 -140 7
-46 -9 -87 -15 -89 -12 -3 3 11 30 32 61 30 46 35 58 24 71 -15 18 -49 20 -55
3z"/>
</g>
</svg>
