<?xml version="1.0" standalone="no"?>
<!DOCTYPE svg PUBLIC "-//W3C//DTD SVG 20010904//EN"
 "http://www.w3.org/TR/2001/REC-SVG-20010904/DTD/svg10.dtd">
<svg version="1.0" xmlns="http://www.w3.org/2000/svg"
 width="90.000000pt" height="92.000000pt" viewBox="0 0 90.000000 92.000000"
 preserveAspectRatio="xMidYMid meet">
<metadata>
Created by potrace 1.16, written by Peter Selinger 2001-2019
</metadata>
<g transform="translate(0.000000,92.000000) scale(0.100000,-0.100000)"
fill="#000000" stroke="none">
<path d="M434 879 c-3 -6 -1 -16 5 -22 6 -6 11 -34 11 -63 l0 -52 -65 -7 c-94
-10 -84 -35 15 -35 l48 0 4 -39 3 -40 -61 -10 c-33 -6 -81 -11 -107 -11 -57 0
-67 -14 -26 -35 25 -13 40 -15 70 -7 24 6 39 6 39 1 0 -27 -46 -92 -86 -124
-30 -22 -41 -35 -29 -35 31 0 87 33 126 74 40 41 47 64 27 84 -17 17 -11 19
70 27 79 8 73 13 77 -60 1 -16 3 -38 3 -48 3 -24 60 -47 121 -47 58 0 81 7 81
26 0 21 -30 32 -71 27 -21 -3 -50 -2 -64 1 -23 6 -26 11 -22 34 3 15 7 36 9
47 3 17 13 21 78 25 83 6 99 23 46 49 -23 11 -42 11 -105 2 -42 -7 -88 -14
-103 -16 -26 -4 -28 -2 -28 30 0 45 18 61 79 69 28 4 53 11 57 17 12 20 -20
30 -74 24 l-54 -7 3 54 c3 47 1 54 -21 65 -31 16 -47 16 -56 2z"/>
<path d="M86 701 c10 -17 33 -46 51 -63 40 -38 66 -33 61 13 -4 39 -38 67 -92
76 l-39 6 19 -32z"/>
<path d="M163 417 c-35 -52 -76 -105 -93 -117 -35 -25 -37 -40 -10 -99 25 -54
39 -46 69 37 11 31 38 99 61 151 22 51 40 100 38 108 -2 8 -31 -28 -65 -80z"/>
<path d="M436 453 c-4 -16 -23 -52 -43 -80 -29 -44 -38 -51 -53 -43 -23 12
-60 13 -60 1 0 -5 11 -12 25 -15 34 -9 32 -17 -15 -62 -21 -21 -37 -40 -35
-42 5 -5 68 28 91 49 21 19 21 19 64 -19 l43 -38 -52 -34 c-29 -18 -80 -44
-114 -57 l-62 -24 62 5 c46 3 79 13 132 41 l71 38 50 -47 c75 -70 106 -80 204
-66 45 6 85 14 90 18 5 3 -47 24 -116 48 -68 23 -141 52 -161 64 l-36 21 34
47 c19 26 46 61 60 78 33 42 32 51 -12 69 -35 15 -40 14 -86 -5 -55 -24 -67
-22 -37 5 25 22 25 37 2 58 -26 24 -39 21 -46 -10z m113 -120 c-5 -16 -22 -43
-38 -62 l-28 -34 -47 32 -48 33 22 24 c21 21 34 25 127 32 20 2 21 -1 12 -25z"/>
</g>
</svg>
