<?xml version="1.0" standalone="no"?>
<!DOCTYPE svg PUBLIC "-//W3C//DTD SVG 20010904//EN"
 "http://www.w3.org/TR/2001/REC-SVG-20010904/DTD/svg10.dtd">
<svg version="1.0" xmlns="http://www.w3.org/2000/svg"
 width="96.000000pt" height="68.000000pt" viewBox="0 0 96.000000 68.000000"
 preserveAspectRatio="xMidYMid meet">
<metadata>
Created by potrace 1.16, written by Peter Selinger 2001-2019
</metadata>
<g transform="translate(0.000000,68.000000) scale(0.100000,-0.100000)"
fill="#000000" stroke="none">
<path d="M478 581 l5 -51 -39 -1 c-71 -1 -85 -18 -16 -18 l63 -1 -3 -32 c-3
-38 -22 -45 -125 -47 -34 0 -64 -5 -68 -10 -7 -12 56 -25 90 -18 22 4 25 1 19
-17 -8 -27 -54 -76 -71 -76 -7 0 -13 -5 -13 -11 0 -16 39 -1 87 34 49 34 59
53 36 66 -14 8 -14 9 3 14 10 3 41 7 68 9 l50 3 11 -43 c5 -24 19 -50 30 -58
25 -18 136 -15 143 4 3 9 -13 12 -56 12 -64 0 -84 12 -72 45 4 11 5 26 3 33
-4 9 13 12 66 12 69 0 92 12 50 25 -12 4 -64 4 -115 0 l-94 -7 0 31 c0 33 12
39 77 44 20 1 33 7 33 16 0 11 -11 12 -49 7 l-50 -7 -3 43 c-3 40 -5 43 -34
46 l-31 3 5 -50z"/>
<path d="M150 517 c0 -16 71 -87 88 -87 16 0 33 35 26 53 -6 16 -72 47 -99 47
-8 0 -15 -6 -15 -13z"/>
<path d="M251 324 c-14 -20 -49 -57 -79 -84 l-54 -48 17 -36 c10 -20 21 -36
26 -36 6 0 18 19 28 43 10 23 31 65 47 92 38 64 56 105 46 105 -4 0 -18 -16
-31 -36z"/>
<path d="M466 315 c-6 -25 -69 -95 -120 -133 -36 -27 -23 -28 27 -2 l37 20 35
-22 c19 -13 35 -25 35 -28 0 -7 -75 -46 -125 -65 l-40 -15 48 5 c26 2 70 15
98 27 45 19 54 20 73 8 123 -78 108 -73 201 -65 47 4 83 10 81 14 -3 3 -54 20
-115 36 -61 17 -120 37 -131 45 -20 15 -19 17 31 74 41 46 49 60 38 67 -19 12
-81 11 -113 -1 -28 -10 -35 0 -11 20 12 10 12 14 0 26 -21 21 -42 17 -49 -11z
m104 -70 c0 -8 -12 -29 -28 -46 l-27 -31 -43 25 c-40 22 -41 25 -25 40 10 8
36 17 58 20 22 2 46 4 53 5 6 1 12 -5 12 -13z"/>
</g>
</svg>
