<?xml version="1.0" standalone="no"?>
<!DOCTYPE svg PUBLIC "-//W3C//DTD SVG 20010904//EN"
 "http://www.w3.org/TR/2001/REC-SVG-20010904/DTD/svg10.dtd">
<svg version="1.0" xmlns="http://www.w3.org/2000/svg"
 width="96.000000pt" height="68.000000pt" viewBox="0 0 96.000000 68.000000"
 preserveAspectRatio="xMidYMid meet">
<metadata>
Created by potrace 1.16, written by Peter Selinger 2001-2019
</metadata>
<g transform="translate(0.000000,68.000000) scale(0.100000,-0.100000)"
fill="#000000" stroke="none">
<path d="M390 632 c0 -4 11 -19 25 -34 14 -15 25 -30 25 -33 0 -3 -17 -5 -37
-6 -21 0 -81 -6 -133 -13 -87 -11 -93 -13 -67 -24 22 -9 51 -9 130 2 56 8 164
18 240 22 76 4 140 11 143 15 13 21 -52 31 -137 20 -111 -14 -107 -15 -102 13
4 21 0 26 -33 35 -46 13 -54 13 -54 3z"/>
</g>
</svg>
