<?xml version="1.0" standalone="no"?>
<!DOCTYPE svg PUBLIC "-//W3C//DTD SVG 20010904//EN"
 "http://www.w3.org/TR/2001/REC-SVG-20010904/DTD/svg10.dtd">
<svg version="1.0" xmlns="http://www.w3.org/2000/svg"
 width="96.000000pt" height="68.000000pt" viewBox="0 0 96.000000 68.000000"
 preserveAspectRatio="xMidYMid meet">
<metadata>
Created by potrace 1.16, written by Peter Selinger 2001-2019
</metadata>
<g transform="translate(0.000000,68.000000) scale(0.100000,-0.100000)"
fill="#000000" stroke="none">
<path d="M420 494 c-41 -8 -88 -12 -105 -9 -27 5 -28 5 -12 -8 9 -8 23 -32 31
-53 10 -28 19 -38 32 -37 11 1 56 5 102 9 45 4 82 10 82 15 0 4 12 22 27 39
26 31 26 33 8 46 -23 17 -66 16 -165 -2z m104 -36 c-8 -28 -22 -38 -54 -38
-14 0 -41 -3 -61 -6 -32 -5 -38 -3 -44 16 -4 12 -4 24 -1 28 8 7 80 19 129 21
35 1 38 -1 31 -21z"/>
</g>
</svg>
