<?xml version="1.0" standalone="no"?>
<!DOCTYPE svg PUBLIC "-//W3C//DTD SVG 20010904//EN"
 "http://www.w3.org/TR/2001/REC-SVG-20010904/DTD/svg10.dtd">
<svg version="1.0" xmlns="http://www.w3.org/2000/svg"
 width="96.000000pt" height="68.000000pt" viewBox="0 0 96.000000 68.000000"
 preserveAspectRatio="xMidYMid meet">
<metadata>
Created by potrace 1.16, written by Peter Selinger 2001-2019
</metadata>
<g transform="translate(0.000000,68.000000) scale(0.100000,-0.100000)"
fill="#000000" stroke="none">
<path d="M539 516 c-2 -2 -3 -38 -1 -80 3 -73 5 -76 28 -76 22 0 24 4 24 49 0
27 3 63 6 80 6 29 5 31 -23 31 -16 0 -32 -2 -34 -4z"/>
<path d="M690 477 c0 -7 -12 -30 -26 -50 -14 -21 -23 -41 -21 -44 3 -2 31 14
63 37 57 43 57 43 33 56 -31 17 -49 17 -49 1z"/>
<path d="M400 441 c0 -16 51 -71 65 -71 41 0 21 53 -26 69 -39 13 -39 13 -39
2z"/>
</g>
</svg>
