<?xml version="1.0" standalone="no"?>
<!DOCTYPE svg PUBLIC "-//W3C//DTD SVG 20010904//EN"
 "http://www.w3.org/TR/2001/REC-SVG-20010904/DTD/svg10.dtd">
<svg version="1.0" xmlns="http://www.w3.org/2000/svg"
 width="90.000000pt" height="92.000000pt" viewBox="0 0 90.000000 92.000000"
 preserveAspectRatio="xMidYMid meet">
<metadata>
Created by potrace 1.16, written by Peter Selinger 2001-2019
</metadata>
<g transform="translate(0.000000,92.000000) scale(0.100000,-0.100000)"
fill="#000000" stroke="none">
<path d="M324 795 c-9 -52 -77 -150 -159 -232 -40 -40 -68 -73 -61 -73 6 0 40
19 76 43 47 30 75 42 102 42 32 0 38 -3 38 -21 0 -34 -58 -115 -138 -192 -68
-67 -71 -72 -38 -58 61 26 124 74 177 138 68 82 77 103 55 127 -16 17 -14 18
52 27 l68 10 -6 -41 c-8 -49 -35 -102 -90 -175 -52 -70 -163 -185 -214 -221
-53 -39 -18 -39 49 0 86 49 178 143 259 264 42 62 76 119 76 127 0 7 -7 21
-16 31 -14 16 -12 18 25 24 68 11 81 2 81 -59 0 -109 -49 -324 -87 -382 -17
-26 -45 -30 -89 -14 -15 6 -28 9 -30 7 -2 -2 15 -29 37 -60 44 -62 62 -68 102
-37 52 41 88 156 118 375 6 44 19 99 29 123 23 52 20 63 -28 89 -28 15 -45 18
-72 12 -65 -15 -341 -51 -346 -46 -3 3 22 40 56 82 l62 76 -23 25 c-33 35 -57
31 -65 -11z"/>
</g>
</svg>
