<?xml version="1.0" standalone="no"?>
<!DOCTYPE svg PUBLIC "-//W3C//DTD SVG 20010904//EN"
 "http://www.w3.org/TR/2001/REC-SVG-20010904/DTD/svg10.dtd">
<svg version="1.0" xmlns="http://www.w3.org/2000/svg"
 width="90.000000pt" height="92.000000pt" viewBox="0 0 90.000000 92.000000"
 preserveAspectRatio="xMidYMid meet">
<metadata>
Created by potrace 1.16, written by Peter Selinger 2001-2019
</metadata>
<g transform="translate(0.000000,92.000000) scale(0.100000,-0.100000)"
fill="#000000" stroke="none">
<path d="M166 831 c-3 -5 -1 -23 4 -42 6 -19 10 -68 10 -110 0 -77 0 -77 -31
-88 -17 -6 -53 -13 -80 -17 -27 -4 -49 -11 -49 -16 0 -18 50 -27 101 -18 29 6
53 10 55 10 2 0 4 -27 4 -59 l0 -60 -90 -43 c-71 -34 -89 -47 -87 -63 1 -11
13 -24 29 -29 23 -8 33 -4 85 42 l58 51 3 -37 c2 -20 1 -70 -3 -111 l-7 -73
-31 5 c-18 3 -41 9 -52 13 -13 5 -5 -9 22 -37 24 -24 49 -53 58 -64 15 -20 15
-20 35 5 18 22 20 40 20 176 l0 150 30 29 c17 16 30 33 30 37 0 5 -13 2 -30
-7 l-30 -16 0 49 c0 48 1 49 43 66 40 16 41 18 23 31 -11 8 -28 15 -38 15 -15
0 -18 8 -18 46 0 26 5 64 11 85 9 29 9 42 0 53 -15 18 -69 37 -75 27z"/>
<path d="M715 803 c-22 -7 -66 -16 -97 -20 -59 -6 -66 -11 -47 -30 6 -6 12
-49 14 -96 4 -98 9 -110 37 -101 11 3 44 9 74 13 l54 8 0 -201 c0 -111 -3
-212 -7 -224 -5 -22 -9 -23 -51 -17 l-45 7 54 -50 c54 -50 54 -51 74 -31 19
19 20 36 25 367 3 203 1 352 -4 360 -18 25 -41 30 -81 15z m33 -69 c3 -30 2
-31 -45 -37 -26 -3 -56 -9 -66 -13 -16 -6 -18 -2 -15 32 3 34 7 40 33 45 17 4
44 6 60 6 26 -2 30 -6 33 -33z m2 -88 c0 -33 -2 -34 -47 -40 -27 -4 -56 -9
-65 -12 -14 -4 -18 1 -18 25 0 24 5 32 23 35 23 4 100 23 105 25 1 0 2 -14 2
-33z"/>
<path d="M406 744 c-24 -9 -53 -12 -74 -8 -32 6 -34 5 -26 -12 17 -38 16 -311
-1 -420 -17 -98 -17 -105 0 -130 15 -24 19 -25 27 -11 5 9 13 90 18 179 10
174 12 180 65 176 45 -3 52 5 65 79 6 38 17 81 23 97 9 25 8 31 -12 47 -27 22
-33 22 -85 3z m44 -52 c0 -36 -1 -38 -45 -48 l-45 -10 0 37 c0 34 3 38 38 47
20 5 40 10 45 11 4 1 7 -16 7 -37z m-8 -107 c-4 -33 -6 -35 -43 -35 -36 0 -39
2 -39 29 0 30 10 36 65 40 18 1 20 -4 17 -34z"/>
<path d="M504 528 c-4 -12 -32 -48 -62 -80 -54 -56 -59 -77 -11 -39 23 18 26
18 58 2 l33 -18 -38 -32 c-22 -17 -57 -40 -79 -51 -22 -11 -33 -20 -24 -20 25
0 88 29 135 60 l40 29 74 -41 c68 -36 75 -38 86 -23 7 9 10 23 7 31 -5 14
-102 54 -130 54 -12 0 -6 12 22 41 l40 40 -24 20 c-13 11 -31 17 -39 14 -7 -3
-26 -8 -40 -12 -25 -6 -26 -5 -13 11 13 15 13 19 0 27 -21 13 -27 11 -35 -13z
m76 -57 c0 -5 -8 -19 -18 -31 -15 -18 -24 -21 -55 -15 -71 14 -40 41 61 54 6
0 12 -3 12 -8z"/>
<path d="M571 319 c-13 -5 -44 -10 -68 -11 -23 -2 -43 -5 -43 -8 0 -3 4 -21 9
-40 5 -19 12 -48 16 -64 4 -22 9 -26 18 -17 6 6 27 11 47 11 52 0 79 10 73 26
-3 8 5 31 17 51 21 35 21 38 4 50 -21 15 -39 16 -73 2z m19 -58 c0 -30 -18
-41 -67 -41 -19 0 -23 6 -23 29 0 30 10 36 68 40 18 1 22 -4 22 -28z"/>
</g>
</svg>
