<?xml version="1.0" standalone="no"?>
<!DOCTYPE svg PUBLIC "-//W3C//DTD SVG 20010904//EN"
 "http://www.w3.org/TR/2001/REC-SVG-20010904/DTD/svg10.dtd">
<svg version="1.0" xmlns="http://www.w3.org/2000/svg"
 width="96.000000pt" height="68.000000pt" viewBox="0 0 96.000000 68.000000"
 preserveAspectRatio="xMidYMid meet">
<metadata>
Created by potrace 1.16, written by Peter Selinger 2001-2019
</metadata>
<g transform="translate(0.000000,68.000000) scale(0.100000,-0.100000)"
fill="#000000" stroke="none">
<path d="M490 594 c0 -4 9 -21 20 -40 12 -18 17 -34 13 -37 -4 -2 -46 -7 -93
-11 -47 -4 -100 -10 -119 -13 l-35 -6 24 -19 c21 -17 22 -23 17 -93 -10 -108
-64 -241 -130 -313 -33 -36 3 -28 49 12 66 56 119 180 139 327 4 25 10 51 14
57 4 6 66 16 146 22 241 18 265 21 265 31 0 26 -116 34 -191 13 -12 -3 -18 4
-22 25 -4 21 -15 32 -38 40 -36 12 -59 14 -59 5z"/>
<path d="M470 434 c17 -44 12 -51 -37 -62 l-48 -10 48 -1 c40 -1 47 -4 47 -21
0 -23 -34 -35 -81 -28 -24 4 -29 2 -23 -11 3 -9 11 -31 16 -49 8 -29 13 -33
33 -28 55 14 23 -32 -70 -101 -16 -12 -24 -23 -18 -23 18 0 113 60 113 71 0 5
5 9 10 9 6 0 9 -29 8 -72 -3 -59 0 -73 12 -73 12 0 16 16 18 73 2 39 6 72 10
72 5 0 23 -11 42 -25 39 -29 63 -32 58 -8 -2 10 -24 26 -53 37 -28 11 -52 21
-53 22 -6 4 12 33 21 33 4 1 23 1 43 1 28 0 35 3 30 15 -3 9 3 20 14 27 43 27
9 53 -61 46 -25 -2 -34 1 -37 13 -3 18 24 29 71 29 19 0 27 4 24 13 -3 7 -19
11 -46 9 -39 -2 -41 -1 -41 27 0 28 -14 41 -46 41 -10 0 -11 -6 -4 -26z m100
-133 c0 -27 -15 -41 -41 -41 -30 0 -34 6 -23 34 7 17 64 23 64 7z m-92 -23
c-2 -18 -10 -23 -33 -23 -34 0 -48 30 -18 38 43 11 54 7 51 -15z"/>
<path d="M762 388 c5 -35 7 -117 5 -183 l-3 -120 -27 0 c-34 1 -34 -5 3 -40
25 -24 34 -27 48 -19 15 10 18 36 22 205 3 107 1 200 -4 207 -5 6 -18 12 -31
12 -21 0 -21 -2 -13 -62z"/>
<path d="M160 412 c0 -5 15 -26 33 -46 23 -27 37 -36 50 -31 28 12 21 52 -13
70 -31 16 -70 20 -70 7z"/>
<path d="M665 273 c8 -84 11 -96 26 -88 5 4 9 39 9 80 0 70 -7 85 -37 85 -2 0
-2 -35 2 -77z"/>
<path d="M210 280 c-30 -16 -63 -29 -72 -30 -9 0 -19 -4 -23 -9 -7 -12 22 -41
40 -41 15 0 105 72 117 95 12 21 1 18 -62 -15z"/>
</g>
</svg>
