<?xml version="1.0" standalone="no"?>
<!DOCTYPE svg PUBLIC "-//W3C//DTD SVG 20010904//EN"
 "http://www.w3.org/TR/2001/REC-SVG-20010904/DTD/svg10.dtd">
<svg version="1.0" xmlns="http://www.w3.org/2000/svg"
 width="96.000000pt" height="68.000000pt" viewBox="0 0 96.000000 68.000000"
 preserveAspectRatio="xMidYMid meet">
<metadata>
Created by potrace 1.16, written by Peter Selinger 2001-2019
</metadata>
<g transform="translate(0.000000,68.000000) scale(0.100000,-0.100000)"
fill="#000000" stroke="none">
<path d="M553 580 c12 -30 40 -40 53 -18 8 12 -30 48 -51 48 -11 0 -11 -6 -2
-30z"/>
<path d="M195 533 c4 -10 10 -37 12 -60 l6 -43 -57 0 c-59 0 -64 -4 -41 -34 8
-10 17 -39 21 -63 6 -43 33 -71 42 -45 2 7 10 12 18 12 10 0 14 -13 14 -48 0
-38 -4 -48 -17 -50 -10 0 -38 -5 -63 -10 l-45 -8 28 -18 c27 -18 28 -18 80 6
102 49 124 54 145 35 20 -19 32 -13 32 14 0 17 -44 59 -62 59 -5 0 -6 -9 -3
-20 3 -11 2 -20 -4 -20 -5 0 -17 -3 -26 -6 -14 -6 -16 0 -13 32 3 38 4 39 43
42 39 3 40 4 58 59 21 67 15 77 -49 78 l-46 0 6 46 c7 52 0 59 -56 59 -25 0
-29 -3 -23 -17z m105 -158 c0 -28 -4 -35 -20 -35 -16 0 -20 7 -20 35 0 28 4
35 20 35 16 0 20 -7 20 -35z m-90 -10 c0 -40 -24 -49 -34 -12 -10 37 -7 47 14
47 16 0 20 -7 20 -35z"/>
<path d="M660 544 c-14 -2 -76 -11 -137 -20 -65 -9 -110 -20 -107 -26 7 -10
134 0 147 12 12 11 47 0 47 -14 0 -6 -3 -21 -6 -33 -7 -26 -24 -31 -24 -8 0
16 -39 36 -52 28 -4 -2 3 -15 17 -29 21 -21 25 -34 25 -89 0 -53 -3 -65 -16
-65 -13 0 -14 -3 -5 -14 7 -8 21 -12 31 -9 18 5 20 14 20 82 0 72 2 79 29 105
16 16 27 34 24 42 -4 10 11 14 59 16 34 2 63 8 63 13 0 10 -71 16 -115 9z"/>
<path d="M705 460 c-10 -11 -31 -20 -47 -20 -24 0 -28 -3 -23 -22 9 -34 9 -59
0 -100 -9 -47 6 -50 47 -11 33 31 37 48 8 33 -17 -9 -20 -8 -20 14 0 59 25 73
52 29 32 -53 68 -83 98 -83 41 0 38 16 -7 39 -21 11 -56 37 -78 57 l-40 38 43
9 c43 8 54 20 26 31 -26 10 -40 7 -59 -14z"/>
<path d="M430 425 c-25 -7 -37 -14 -27 -14 28 -1 26 -41 -5 -84 -32 -45 -14
-42 26 5 21 25 35 51 34 63 -2 14 3 21 20 23 19 3 22 -1 22 -33 0 -46 -16 -76
-35 -69 -18 7 -20 -7 -3 -24 25 -25 46 -13 63 38 9 27 15 62 13 77 -2 23 -8
28 -33 29 -16 1 -50 -4 -75 -11z"/>
<path d="M670 256 c0 -22 -5 -26 -27 -26 -16 0 -52 -3 -80 -6 -44 -6 -53 -4
-53 9 0 8 -12 18 -26 21 -29 8 -45 -1 -26 -13 21 -13 -4 -135 -35 -172 -14
-16 -20 -29 -14 -29 15 0 71 54 71 68 0 14 21 20 113 28 l77 6 0 -53 c0 -66
11 -89 34 -70 13 11 16 36 16 132 0 66 -4 119 -9 119 -5 0 -16 3 -25 6 -12 5
-16 0 -16 -20z m0 -71 c0 -22 -5 -25 -32 -25 -18 0 -57 -3 -86 -7 -52 -6 -54
-5 -50 18 3 20 9 24 48 27 24 2 46 5 49 8 2 2 19 4 38 4 29 0 33 -3 33 -25z"/>
</g>
</svg>
