<?xml version="1.0" standalone="no"?>
<!DOCTYPE svg PUBLIC "-//W3C//DTD SVG 20010904//EN"
 "http://www.w3.org/TR/2001/REC-SVG-20010904/DTD/svg10.dtd">
<svg version="1.0" xmlns="http://www.w3.org/2000/svg"
 width="90.000000pt" height="92.000000pt" viewBox="0 0 90.000000 92.000000"
 preserveAspectRatio="xMidYMid meet">
<metadata>
Created by potrace 1.16, written by Peter Selinger 2001-2019
</metadata>
<g transform="translate(0.000000,92.000000) scale(0.100000,-0.100000)"
fill="#000000" stroke="none">
<path d="M515 835 c-33 -13 -79 -29 -103 -35 -23 -6 -40 -15 -37 -20 3 -5 30
-23 61 -41 66 -37 63 -45 -32 -85 l-59 -25 52 5 c28 3 70 14 93 26 l42 21 37
-25 c46 -32 61 -33 61 -2 0 16 -10 31 -30 43 l-30 19 31 42 c17 23 35 42 40
42 5 0 9 7 9 15 0 8 -2 15 -4 15 -2 0 -19 6 -37 14 -31 13 -39 12 -94 -9z m40
-65 c-20 -39 -23 -39 -75 -19 -28 11 -39 19 -30 22 69 24 106 34 112 30 5 -2
1 -17 -7 -33z"/>
<path d="M165 633 c-16 -9 -55 -18 -85 -19 -30 -1 -57 -2 -59 -3 -2 -1 3 -9
12 -18 8 -10 21 -54 27 -99 14 -93 25 -118 40 -92 7 11 30 19 75 23 52 6 63
10 55 20 -11 14 12 120 31 140 15 16 10 44 -10 55 -27 14 -51 12 -86 -7z m31
-85 c-8 -70 -17 -83 -63 -93 l-33 -7 -2 46 c-1 25 -2 56 -2 68 -1 18 8 24 44
34 25 7 49 12 54 13 5 1 5 -27 2 -61z"/>
<path d="M606 613 c-44 -13 -81 -25 -83 -27 -2 -2 19 -21 46 -42 46 -35 49
-39 35 -55 -8 -9 -36 -25 -62 -36 l-47 -19 -27 32 -28 31 30 42 c17 22 30 43
30 46 0 2 -13 11 -29 20 -27 14 -34 13 -75 -5 -25 -10 -61 -22 -81 -26 -19 -3
-35 -11 -35 -18 1 -6 21 -24 46 -40 25 -15 43 -33 41 -40 -2 -6 -30 -25 -63
-43 -32 -18 -52 -33 -44 -33 28 0 95 22 121 41 25 17 28 18 40 2 8 -9 29 -22
47 -30 34 -14 44 -46 17 -57 -8 -3 -63 -8 -122 -12 -130 -8 -147 -14 -108 -40
26 -17 31 -17 129 -1 55 10 105 17 109 17 5 0 6 -42 3 -92 -9 -135 -8 -146 7
-168 27 -39 41 1 45 133 2 67 6 124 9 127 3 3 65 7 139 8 76 2 134 8 134 13 0
6 -18 18 -41 28 -30 14 -50 16 -77 11 -20 -5 -66 -11 -101 -15 -60 -7 -63 -6
-57 13 4 12 1 26 -9 35 -14 15 -12 17 22 26 21 6 48 18 61 27 22 15 24 14 63
-21 42 -38 62 -41 68 -10 2 13 -10 30 -35 51 l-38 33 32 40 c36 45 35 55 -5
68 -21 7 -49 3 -107 -14z m74 -31 c0 -4 -7 -17 -15 -29 -15 -22 -17 -22 -50
-6 -42 20 -44 30 -7 36 49 7 72 7 72 -1z m-250 -24 c0 -7 -7 -21 -14 -31 -13
-17 -16 -17 -57 -1 l-43 18 40 12 c52 16 74 17 74 2z"/>
<path d="M621 273 c1 -17 126 -158 140 -158 7 0 15 8 17 18 7 36 -9 67 -46 92
-45 29 -112 58 -111 48z"/>
<path d="M358 237 c-9 -18 -40 -59 -69 -91 l-53 -58 38 16 c51 21 91 51 122
91 27 35 26 48 -5 64 -15 8 -21 4 -33 -22z"/>
</g>
</svg>
