<?xml version="1.0" standalone="no"?>
<!DOCTYPE svg PUBLIC "-//W3C//DTD SVG 20010904//EN"
 "http://www.w3.org/TR/2001/REC-SVG-20010904/DTD/svg10.dtd">
<svg version="1.0" xmlns="http://www.w3.org/2000/svg"
 width="90.000000pt" height="92.000000pt" viewBox="0 0 90.000000 92.000000"
 preserveAspectRatio="xMidYMid meet">
<metadata>
Created by potrace 1.16, written by Peter Selinger 2001-2019
</metadata>
<g transform="translate(0.000000,92.000000) scale(0.100000,-0.100000)"
fill="#000000" stroke="none">
<path d="M698 825 c-3 -3 1 -29 9 -57 22 -86 14 -560 -10 -584 -4 -4 -27 -3
-52 3 -25 6 -45 8 -45 6 0 -2 29 -33 64 -70 l64 -65 18 28 c17 25 20 58 24
324 4 244 8 300 21 326 19 37 11 57 -31 79 -30 15 -53 19 -62 10z"/>
<path d="M350 791 c-54 -29 -135 -43 -164 -30 -14 7 -32 9 -41 5 -13 -5 -14
-10 -4 -28 14 -26 6 -148 -15 -249 -17 -80 -59 -187 -98 -250 -38 -62 -35 -70
8 -28 42 40 77 97 99 159 28 81 25 76 35 60 13 -20 12 -124 -1 -152 -11 -25 2
-78 20 -78 15 0 23 32 28 122 6 86 6 87 36 97 16 6 32 11 34 11 3 0 4 -73 3
-163 -2 -153 2 -197 20 -197 24 0 29 36 29 195 0 92 2 169 3 171 2 1 21 4 43
6 l40 3 3 -40 c2 -22 1 -59 -3 -82 -6 -40 -9 -43 -36 -43 l-30 0 28 -35 c32
-40 43 -43 67 -16 13 15 20 47 27 123 8 98 7 104 -13 121 -14 12 -30 16 -46
12 -13 -3 -38 -9 -55 -12 l-30 -6 5 52 c3 30 1 54 -5 58 -14 8 19 21 57 22 20
1 27 5 23 16 -7 17 20 103 39 126 22 25 17 39 -21 55 -42 17 -42 17 -85 -5z
m30 -65 c0 -74 -6 -81 -88 -99 -100 -23 -106 -22 -98 6 3 12 6 36 6 53 0 29 3
31 63 46 95 24 117 23 117 -6z m-94 -169 c3 -13 4 -41 2 -63 -3 -36 -6 -39
-38 -44 -19 -3 -46 -1 -60 4 -25 8 -25 10 -16 62 9 49 12 53 41 57 62 8 65 7
71 -16z"/>
<path d="M555 599 c4 -28 8 -92 10 -142 1 -51 6 -101 10 -111 8 -18 9 -18 22
0 9 13 13 56 13 151 l0 133 -26 10 c-37 14 -37 15 -29 -41z"/>
</g>
</svg>
