<?xml version="1.0" standalone="no"?>
<!DOCTYPE svg PUBLIC "-//W3C//DTD SVG 20010904//EN"
 "http://www.w3.org/TR/2001/REC-SVG-20010904/DTD/svg10.dtd">
<svg version="1.0" xmlns="http://www.w3.org/2000/svg"
 width="90.000000pt" height="92.000000pt" viewBox="0 0 90.000000 92.000000"
 preserveAspectRatio="xMidYMid meet">
<metadata>
Created by potrace 1.16, written by Peter Selinger 2001-2019
</metadata>
<g transform="translate(0.000000,92.000000) scale(0.100000,-0.100000)"
fill="#000000" stroke="none">
<path d="M258 771 l5 -99 -49 -8 c-27 -4 -66 -7 -87 -7 -35 0 -38 -1 -31 -21
4 -11 9 -61 11 -111 4 -86 15 -121 34 -109 5 3 9 50 9 104 0 54 3 101 8 103 4
3 28 8 55 12 l47 7 0 -41 c0 -38 -2 -41 -19 -31 -30 16 -41 12 -41 -13 0 -12
-7 -33 -16 -45 -25 -36 -10 -37 29 -3 19 17 37 31 41 31 3 0 6 -29 6 -64 0
-36 4 -67 9 -70 14 -9 31 85 31 169 l0 75 55 0 55 0 0 -64 c0 -35 -3 -78 -6
-96 -6 -28 -10 -31 -34 -28 l-28 4 27 -33 c14 -18 32 -33 38 -33 23 0 43 57
43 122 0 35 5 79 10 98 9 32 8 37 -16 58 -15 14 -33 21 -42 17 -9 -3 -35 -9
-59 -12 l-43 -6 0 56 c0 31 4 67 9 81 11 27 2 39 -35 50 -21 6 -21 4 -16 -93z"/>
<path d="M554 843 c-18 -79 -28 -112 -50 -155 -29 -56 -21 -61 24 -15 24 25
42 34 67 35 41 2 43 -7 20 -86 l-16 -51 -46 20 c-25 11 -48 18 -50 15 -2 -2
14 -17 37 -34 l41 -30 -30 -30 c-17 -17 -44 -36 -61 -44 -35 -15 -39 -28 -10
-28 29 0 81 24 107 49 12 11 25 21 29 21 4 0 34 -23 66 -51 61 -53 92 -59 86
-17 -3 19 -23 38 -111 100 -17 12 -16 15 3 66 25 64 25 88 3 101 -14 7 -10 10
22 16 96 15 108 25 55 43 -24 9 -42 7 -87 -9 -31 -10 -60 -19 -65 -19 -5 0 1
18 12 41 23 43 18 58 -21 80 -15 8 -20 5 -25 -18z"/>
<path d="M380 798 c-8 -18 -22 -45 -32 -60 -25 -36 -19 -35 47 9 52 34 55 37
41 57 -21 33 -42 31 -56 -6z"/>
<path d="M159 736 c35 -50 54 -55 59 -14 4 30 -13 46 -58 55 l-33 6 32 -47z"/>
<path d="M316 568 c11 -21 47 -58 55 -58 17 0 17 32 -1 50 -22 22 -66 28 -54
8z"/>
<path d="M620 382 c1 -4 31 -40 69 -81 49 -54 72 -73 84 -68 25 9 21 59 -5 84
-38 34 -149 83 -148 65z"/>
<path d="M416 318 c45 -73 84 -91 84 -39 0 33 -20 58 -57 72 -49 18 -55 12
-27 -33z"/>
<path d="M256 268 c28 -85 69 -140 126 -169 59 -30 146 -41 224 -29 125 20
157 58 87 102 -21 12 -55 38 -75 56 -43 39 -46 37 -18 -18 36 -71 26 -80 -95
-80 -118 0 -190 49 -223 151 -10 33 -23 55 -34 57 -15 3 -14 -5 8 -70z"/>
<path d="M122 266 c-44 -67 -55 -122 -27 -132 47 -19 103 112 77 179 -6 14
-16 5 -50 -47z"/>
</g>
</svg>
