<?xml version="1.0" standalone="no"?>
<!DOCTYPE svg PUBLIC "-//W3C//DTD SVG 20010904//EN"
 "http://www.w3.org/TR/2001/REC-SVG-20010904/DTD/svg10.dtd">
<svg version="1.0" xmlns="http://www.w3.org/2000/svg"
 width="96.000000pt" height="68.000000pt" viewBox="0 0 96.000000 68.000000"
 preserveAspectRatio="xMidYMid meet">
<metadata>
Created by potrace 1.16, written by Peter Selinger 2001-2019
</metadata>
<g transform="translate(0.000000,68.000000) scale(0.100000,-0.100000)"
fill="#000000" stroke="none">
<path d="M341 590 c-13 -11 -54 -30 -92 -41 -74 -23 -84 -45 -15 -34 67 11
196 47 202 57 10 15 -17 38 -45 38 -14 -1 -37 -10 -50 -20z"/>
<path d="M549 573 c-1 -5 0 -12 1 -18 2 -5 2 -101 1 -213 -2 -236 2 -252 76
-273 49 -13 144 -8 186 12 27 12 38 51 18 64 -5 3 -12 19 -16 35 -7 32 -25 32
-25 -1 0 -11 -11 -31 -25 -44 -19 -20 -34 -25 -75 -25 -72 0 -100 29 -100 102
0 69 19 253 30 298 7 25 6 38 -3 46 -15 15 -67 27 -68 17z"/>
<path d="M413 480 c-18 -27 -33 -52 -33 -55 0 -2 27 9 60 26 62 31 74 51 41
69 -30 15 -34 13 -68 -40z"/>
<path d="M270 491 c0 -15 45 -61 60 -61 18 0 24 31 9 45 -20 19 -69 30 -69 16z"/>
<path d="M160 467 c0 -7 14 -26 30 -42 27 -26 32 -27 46 -14 20 21 9 45 -28
58 -40 14 -48 14 -48 -2z"/>
<path d="M389 406 c-3 -3 -52 -13 -109 -22 -77 -13 -98 -20 -84 -26 12 -6 54
-4 107 5 48 7 87 10 87 6 0 -15 -44 -49 -63 -49 -14 0 -17 -4 -12 -17 17 -41
11 -47 -65 -64 -41 -10 -90 -18 -107 -19 -35 0 -41 -8 -21 -28 18 -18 51 -15
124 13 92 35 94 34 94 -26 0 -69 -13 -91 -46 -79 -40 15 -40 12 -4 -25 19 -19
41 -35 50 -35 30 0 45 47 42 131 l-3 77 53 22 c52 20 42 21 -39 3 -19 -4 -23
-1 -23 18 1 19 12 29 58 50 l57 25 -25 16 c-29 19 -64 30 -71 24z"/>
</g>
</svg>
