<?xml version="1.0" standalone="no"?>
<!DOCTYPE svg PUBLIC "-//W3C//DTD SVG 20010904//EN"
 "http://www.w3.org/TR/2001/REC-SVG-20010904/DTD/svg10.dtd">
<svg version="1.0" xmlns="http://www.w3.org/2000/svg"
 width="96.000000pt" height="68.000000pt" viewBox="0 0 96.000000 68.000000"
 preserveAspectRatio="xMidYMid meet">
<metadata>
Created by potrace 1.16, written by Peter Selinger 2001-2019
</metadata>
<g transform="translate(0.000000,68.000000) scale(0.100000,-0.100000)"
fill="#000000" stroke="none">
<path d="M618 442 c4 -66 2 -80 -12 -85 -38 -15 -48 2 -44 77 3 66 1 71 -18
74 -20 3 -21 0 -16 -76 l4 -79 -28 -5 c-16 -3 -51 -6 -79 -7 -27 -1 -54 -6
-58 -10 -13 -13 74 -21 116 -11 48 10 52 3 44 -95 -5 -54 -3 -76 7 -84 22 -18
26 -2 26 95 0 89 1 92 25 96 22 5 25 1 31 -39 3 -24 4 -61 0 -83 -7 -44 0 -70
20 -70 10 0 14 23 16 98 l3 97 55 2 c95 5 143 14 132 25 -11 11 -62 14 -137 8
l-50 -4 1 77 c1 73 0 77 -21 77 -21 0 -22 -3 -17 -78z"/>
</g>
</svg>
