<?xml version="1.0" standalone="no"?>
<!DOCTYPE svg PUBLIC "-//W3C//DTD SVG 20010904//EN"
 "http://www.w3.org/TR/2001/REC-SVG-20010904/DTD/svg10.dtd">
<svg version="1.0" xmlns="http://www.w3.org/2000/svg"
 width="96.000000pt" height="68.000000pt" viewBox="0 0 96.000000 68.000000"
 preserveAspectRatio="xMidYMid meet">
<metadata>
Created by potrace 1.16, written by Peter Selinger 2001-2019
</metadata>
<g transform="translate(0.000000,68.000000) scale(0.100000,-0.100000)"
fill="#000000" stroke="none">
<path d="M344 537 c-23 -34 -47 -61 -53 -59 -7 1 -10 -2 -7 -7 10 -15 -41 -41
-80 -41 l-37 0 22 -24 c21 -23 26 -42 52 -206 12 -72 23 -100 39 -100 4 0 10
8 13 19 4 16 20 19 158 24 162 6 156 7 185 -40 10 -14 16 -16 30 -7 31 18 46
62 66 184 11 63 23 119 29 124 16 17 10 34 -20 55 -28 20 -33 20 -125 7 -144
-20 -143 -30 2 -26 l73 2 -2 -56 -2 -56 -51 0 c-66 0 -126 -10 -126 -21 0 -5
39 -9 86 -9 l86 0 -6 -27 c-4 -16 -11 -44 -17 -64 l-9 -36 -63 1 c-34 0 -114
-3 -178 -7 l-116 -9 -7 39 c-4 21 -10 48 -12 59 -5 21 -1 22 70 26 71 3 97 11
83 24 -8 8 -40 8 -109 -1 -50 -7 -58 -6 -58 9 0 21 0 21 -10 56 -8 27 -6 32
18 47 15 9 61 39 102 66 41 28 80 50 87 50 7 0 13 8 13 17 0 17 -49 50 -72 49
-7 0 -32 -28 -54 -62z"/>
</g>
</svg>
