<?xml version="1.0" standalone="no"?>
<!DOCTYPE svg PUBLIC "-//W3C//DTD SVG 20010904//EN"
 "http://www.w3.org/TR/2001/REC-SVG-20010904/DTD/svg10.dtd">
<svg version="1.0" xmlns="http://www.w3.org/2000/svg"
 width="96.000000pt" height="68.000000pt" viewBox="0 0 96.000000 68.000000"
 preserveAspectRatio="xMidYMid meet">
<metadata>
Created by potrace 1.16, written by Peter Selinger 2001-2019
</metadata>
<g transform="translate(0.000000,68.000000) scale(0.100000,-0.100000)"
fill="#000000" stroke="none">
<path d="M602 466 c-45 -6 -82 -15 -82 -21 0 -6 35 -10 83 -10 l82 0 3 -52 3
-53 -53 0 c-68 0 -128 -10 -128 -21 0 -5 38 -9 85 -9 95 0 93 2 70 -76 l-15
-50 -57 0 c-32 1 -113 -3 -179 -7 l-121 -9 -7 39 c-4 21 -10 48 -13 61 -5 21
-2 22 50 22 64 0 117 9 117 21 0 17 -39 19 -104 5 -36 -7 -68 -11 -71 -7 -2 4
-7 30 -11 59 -7 59 -21 75 -59 70 l-27 -3 22 -28 c16 -20 28 -62 44 -150 11
-67 25 -128 29 -134 12 -19 24 -16 30 7 5 18 14 20 94 20 48 0 118 3 156 7
l67 6 11 -31 c15 -42 34 -46 63 -12 26 32 27 35 51 179 9 52 20 103 26 112 16
31 10 45 -26 62 -20 9 -39 16 -43 16 -4 -1 -44 -7 -90 -13z"/>
</g>
</svg>
