<?xml version="1.0" standalone="no"?>
<!DOCTYPE svg PUBLIC "-//W3C//DTD SVG 20010904//EN"
 "http://www.w3.org/TR/2001/REC-SVG-20010904/DTD/svg10.dtd">
<svg version="1.0" xmlns="http://www.w3.org/2000/svg"
 width="96.000000pt" height="68.000000pt" viewBox="0 0 96.000000 68.000000"
 preserveAspectRatio="xMidYMid meet">
<metadata>
Created by potrace 1.16, written by Peter Selinger 2001-2019
</metadata>
<g transform="translate(0.000000,68.000000) scale(0.100000,-0.100000)"
fill="#000000" stroke="none">
<path d="M729 406 c-2 -2 -66 -12 -142 -21 -101 -13 -142 -14 -150 -6 -8 8
-17 -1 -34 -30 -24 -42 -29 -69 -15 -69 11 0 37 30 45 51 4 12 28 19 94 27
136 18 233 25 233 19 0 -3 -4 -17 -10 -31 l-10 -26 50 25 c28 14 50 27 50 30
0 17 -97 45 -111 31z"/>
</g>
</svg>
