<?xml version="1.0" standalone="no"?>
<!DOCTYPE svg PUBLIC "-//W3C//DTD SVG 20010904//EN"
 "http://www.w3.org/TR/2001/REC-SVG-20010904/DTD/svg10.dtd">
<svg version="1.0" xmlns="http://www.w3.org/2000/svg"
 width="96.000000pt" height="68.000000pt" viewBox="0 0 96.000000 68.000000"
 preserveAspectRatio="xMidYMid meet">
<metadata>
Created by potrace 1.16, written by Peter Selinger 2001-2019
</metadata>
<g transform="translate(0.000000,68.000000) scale(0.100000,-0.100000)"
fill="#000000" stroke="none">
<path d="M275 220 c-11 -5 -44 -9 -74 -9 -51 -1 -53 -2 -39 -18 9 -10 22 -37
29 -61 11 -37 16 -42 33 -37 12 4 42 9 68 12 31 4 45 9 42 18 -3 7 4 29 16 50
17 30 19 40 8 46 -16 11 -57 10 -83 -1z m25 -49 c0 -33 -3 -35 -42 -45 -23 -5
-27 -2 -37 26 -6 17 -11 32 -11 34 0 5 34 12 63 13 24 1 27 -3 27 -28z"/>
</g>
</svg>
