<?xml version="1.0" standalone="no"?>
<!DOCTYPE svg PUBLIC "-//W3C//DTD SVG 20010904//EN"
 "http://www.w3.org/TR/2001/REC-SVG-20010904/DTD/svg10.dtd">
<svg version="1.0" xmlns="http://www.w3.org/2000/svg"
 width="90.000000pt" height="92.000000pt" viewBox="0 0 90.000000 92.000000"
 preserveAspectRatio="xMidYMid meet">
<metadata>
Created by potrace 1.16, written by Peter Selinger 2001-2019
</metadata>
<g transform="translate(0.000000,92.000000) scale(0.100000,-0.100000)"
fill="#000000" stroke="none">
<path d="M185 829 c19 -61 31 -274 17 -297 -5 -7 -36 -17 -70 -23 -34 -6 -62
-15 -62 -19 0 -15 41 -22 87 -15 l46 7 -6 -39 c-4 -21 -7 -43 -7 -49 0 -7 -42
-19 -97 -29 l-97 -18 23 -18 c28 -23 55 -24 110 -4 38 13 41 13 41 -4 0 -33
-61 -141 -112 -196 -27 -30 -47 -55 -42 -55 4 0 27 11 51 26 73 42 121 114
168 250 2 6 36 16 75 22 78 12 89 17 73 33 -14 14 -45 15 -102 5 -39 -7 -43
-6 -38 9 4 9 7 29 7 45 0 27 4 29 55 40 64 13 76 25 41 41 -18 8 -33 9 -55 1
l-31 -11 0 108 c0 59 5 123 11 140 14 41 -1 59 -56 68 -37 6 -38 5 -30 -18z"/>
<path d="M335 713 c-3 -15 -15 -45 -26 -67 -10 -22 -17 -41 -15 -43 2 -2 28
18 57 45 54 50 54 50 35 71 -26 28 -42 26 -51 -6z"/>
<path d="M670 736 c-3 -2 -62 -15 -132 -27 l-126 -22 15 -35 c34 -82 -31 -375
-107 -482 -32 -45 -23 -47 21 -5 46 44 104 158 115 224 7 45 14 50 36 24 24
-29 88 -143 88 -158 0 -20 -87 -93 -150 -126 -51 -26 -53 -28 -25 -29 36 0
138 47 180 83 l29 26 33 -47 c53 -73 73 -79 186 -51 20 6 37 13 37 18 0 5 -26
18 -57 30 -51 19 -163 85 -163 95 0 5 56 131 82 183 36 74 3 95 -109 70 -38
-9 -85 -19 -107 -22 l-38 -6 6 58 c14 118 15 121 51 127 18 4 74 10 124 15 50
5 95 11 98 15 11 11 -20 35 -52 42 -17 3 -32 3 -35 0z m-10 -284 c0 -28 -28
-115 -43 -136 -12 -17 -17 -13 -62 53 -27 39 -47 72 -44 74 7 7 93 25 122 26
20 1 27 -4 27 -17z"/>
<path d="M70 672 c0 -14 59 -92 69 -92 17 0 33 29 26 50 -10 31 -95 68 -95 42z"/>
</g>
</svg>
