<?xml version="1.0" standalone="no"?>
<!DOCTYPE svg PUBLIC "-//W3C//DTD SVG 20010904//EN"
 "http://www.w3.org/TR/2001/REC-SVG-20010904/DTD/svg10.dtd">
<svg version="1.0" xmlns="http://www.w3.org/2000/svg"
 width="96.000000pt" height="68.000000pt" viewBox="0 0 96.000000 68.000000"
 preserveAspectRatio="xMidYMid meet">
<metadata>
Created by potrace 1.16, written by Peter Selinger 2001-2019
</metadata>
<g transform="translate(0.000000,68.000000) scale(0.100000,-0.100000)"
fill="#000000" stroke="none">
<path d="M248 605 c-3 -3 -2 -23 3 -43 5 -20 9 -63 9 -94 0 -55 1 -58 25 -58
24 0 25 3 25 54 0 30 5 67 10 82 8 21 8 31 -2 40 -15 15 -61 28 -70 19z"/>
<path d="M368 480 c-14 -27 -23 -50 -21 -50 10 0 93 64 93 71 0 8 -32 29 -43
29 -2 0 -16 -22 -29 -50z"/>
<path d="M150 472 c0 -12 44 -52 58 -52 20 0 24 21 6 41 -17 19 -64 27 -64 11z"/>
</g>
</svg>
