<?xml version="1.0" standalone="no"?>
<!DOCTYPE svg PUBLIC "-//W3C//DTD SVG 20010904//EN"
 "http://www.w3.org/TR/2001/REC-SVG-20010904/DTD/svg10.dtd">
<svg version="1.0" xmlns="http://www.w3.org/2000/svg"
 width="96.000000pt" height="68.000000pt" viewBox="0 0 96.000000 68.000000"
 preserveAspectRatio="xMidYMid meet">
<metadata>
Created by potrace 1.16, written by Peter Selinger 2001-2019
</metadata>
<g transform="translate(0.000000,68.000000) scale(0.100000,-0.100000)"
fill="#000000" stroke="none">
<path d="M620 310 c-30 -4 -79 -11 -108 -13 -73 -7 -82 -17 -82 -92 0 -46 -6
-74 -25 -111 -14 -27 -25 -50 -25 -52 0 -2 14 6 30 18 39 28 60 79 60 144 0
28 4 57 9 64 8 14 204 37 222 27 11 -8 12 -185 0 -204 -6 -10 -19 -12 -42 -7
l-33 6 34 -35 c39 -40 50 -42 73 -17 13 14 17 38 17 98 0 43 4 95 9 115 5 21
5 42 1 49 -10 16 -73 20 -140 10z"/>
</g>
</svg>
