<?xml version="1.0" standalone="no"?>
<!DOCTYPE svg PUBLIC "-//W3C//DTD SVG 20010904//EN"
 "http://www.w3.org/TR/2001/REC-SVG-20010904/DTD/svg10.dtd">
<svg version="1.0" xmlns="http://www.w3.org/2000/svg"
 width="90.000000pt" height="92.000000pt" viewBox="0 0 90.000000 92.000000"
 preserveAspectRatio="xMidYMid meet">
<metadata>
Created by potrace 1.16, written by Peter Selinger 2001-2019
</metadata>
<g transform="translate(0.000000,92.000000) scale(0.100000,-0.100000)"
fill="#000000" stroke="none">
<path d="M307 796 c6 -62 5 -63 -87 -68 -43 -3 -45 -2 -48 27 -4 32 -16 45
-46 45 -14 0 -17 -5 -12 -22 20 -73 22 -68 -24 -68 -55 0 -49 -24 8 -28 40 -3
41 -4 57 -58 15 -52 29 -68 37 -42 2 6 10 -3 17 -21 8 -17 11 -35 7 -39 -4 -3
-38 -8 -76 -10 -68 -4 -69 -5 -55 -26 7 -11 18 -40 25 -64 8 -33 15 -42 28
-38 9 2 32 7 50 11 29 6 32 5 32 -19 0 -22 -5 -26 -29 -26 -45 0 -91 -12 -85
-21 3 -5 30 -9 60 -9 50 0 54 -2 54 -24 0 -21 -5 -24 -60 -30 -33 -4 -60 -11
-60 -15 0 -14 40 -21 84 -15 40 6 41 5 42 -25 1 -29 -1 -31 -55 -42 -30 -6
-77 -11 -103 -11 -26 0 -48 -4 -48 -7 0 -4 11 -18 24 -31 29 -26 19 -28 210
33 77 24 142 49 144 55 5 15 -11 15 -75 -2 l-53 -14 0 28 c0 27 3 29 55 35 71
9 68 30 -3 30 -47 -1 -52 1 -52 21 0 19 7 23 55 29 30 3 55 11 55 16 0 12 -45
22 -80 17 -23 -4 -30 -1 -30 12 0 18 36 30 87 30 14 0 22 4 18 10 -4 6 5 31
20 57 20 36 23 48 13 55 -26 16 -58 20 -89 9 -45 -15 -46 -15 -45 19 1 27 5
31 39 37 29 4 35 8 27 19 -7 7 -8 27 -4 48 6 32 10 37 44 42 74 12 80 44 9 44
-42 0 -43 1 -22 56 5 13 -14 29 -44 38 -21 7 -21 5 -16 -48z m-7 -136 c0 -26
-4 -30 -37 -35 -21 -4 -46 -9 -55 -12 -11 -2 -18 1 -18 9 0 7 -3 23 -6 35 -7
24 6 30 74 32 40 1 42 0 42 -29z m46 -176 c-3 -9 -6 -22 -6 -30 0 -9 -11 -14
-35 -14 -32 0 -35 2 -35 30 0 28 2 30 41 30 33 0 40 -3 35 -16z m-126 -24 c0
-27 -3 -30 -30 -30 -16 0 -33 -1 -37 -2 -5 -2 -9 9 -11 24 -3 27 7 34 56 37
18 1 22 -4 22 -29z"/>
<path d="M600 764 c-36 -7 -84 -13 -107 -14 l-41 0 10 -37 c7 -24 8 -89 4
-174 -5 -106 -3 -139 7 -154 10 -12 16 -14 21 -7 14 23 24 11 17 -20 -14 -62
-54 -123 -123 -191 -48 -48 -63 -67 -46 -62 69 21 139 89 193 189 31 57 35 73
26 88 -9 15 -8 18 8 18 25 0 31 -26 31 -148 0 -57 5 -112 10 -123 17 -30 64
-49 125 -49 65 0 116 19 138 50 14 20 13 26 -11 75 l-27 53 -11 -46 c-15 -57
-35 -72 -97 -72 -75 0 -87 10 -87 79 0 32 7 80 15 106 10 36 11 52 3 62 -8 10
-6 13 5 13 9 0 22 -11 29 -25 10 -18 17 -22 28 -15 12 7 16 43 21 177 3 92 9
176 13 185 6 13 0 22 -26 38 -37 23 -39 23 -128 4z m78 -73 c3 -42 2 -43 -22
-37 -13 3 -35 2 -48 -3 -13 -4 -40 -11 -60 -15 l-38 -7 0 45 0 44 53 10 c28 6
66 9 82 9 28 -2 30 -5 33 -46z m2 -90 c0 -11 3 -26 6 -34 4 -11 -6 -16 -43
-20 -26 -3 -67 -9 -90 -13 l-43 -7 0 35 0 34 63 11 c99 16 107 15 107 -6z m7
-123 l0 -43 -92 -2 -91 -3 4 35 c4 34 6 35 46 36 22 0 59 4 81 8 22 5 43 9 46
10 4 0 6 -18 6 -41z"/>
</g>
</svg>
