<?xml version="1.0" standalone="no"?>
<!DOCTYPE svg PUBLIC "-//W3C//DTD SVG 20010904//EN"
 "http://www.w3.org/TR/2001/REC-SVG-20010904/DTD/svg10.dtd">
<svg version="1.0" xmlns="http://www.w3.org/2000/svg"
 width="96.000000pt" height="68.000000pt" viewBox="0 0 96.000000 68.000000"
 preserveAspectRatio="xMidYMid meet">
<metadata>
Created by potrace 1.16, written by Peter Selinger 2001-2019
</metadata>
<g transform="translate(0.000000,68.000000) scale(0.100000,-0.100000)"
fill="#000000" stroke="none">
<path d="M505 574 c-49 -7 -138 -15 -197 -16 -60 -2 -108 -6 -108 -10 0 -5 4
-8 9 -8 15 0 38 -63 51 -143 13 -79 33 -122 47 -101 11 15 269 28 278 14 3 -5
15 -10 25 -10 13 0 24 15 38 53 10 28 29 80 42 115 12 34 27 65 31 68 18 11 8
25 -26 40 -41 17 -70 16 -190 -2z m130 -24 c3 -5 3 -25 0 -43 l-7 -34 -71 -6
c-39 -3 -72 -5 -73 -4 -1 1 -4 20 -6 42 l-3 40 55 6 c90 9 99 9 105 -1z m-221
-32 c14 -55 9 -65 -40 -72 -79 -10 -82 -9 -93 32 -15 51 -15 50 22 55 86 10
104 8 111 -15z m206 -79 c0 -7 -5 -29 -12 -50 l-11 -39 -64 0 c-62 0 -63 0
-63 28 0 42 10 50 75 60 33 5 63 10 68 11 4 0 7 -4 7 -10z m-200 -58 l0 -39
-51 -7 c-27 -4 -53 -5 -55 -2 -3 3 -8 24 -11 46 l-6 41 62 0 61 0 0 -39z"/>
</g>
</svg>
