<?xml version="1.0" standalone="no"?>
<!DOCTYPE svg PUBLIC "-//W3C//DTD SVG 20010904//EN"
 "http://www.w3.org/TR/2001/REC-SVG-20010904/DTD/svg10.dtd">
<svg version="1.0" xmlns="http://www.w3.org/2000/svg"
 width="96.000000pt" height="68.000000pt" viewBox="0 0 96.000000 68.000000"
 preserveAspectRatio="xMidYMid meet">
<metadata>
Created by potrace 1.16, written by Peter Selinger 2001-2019
</metadata>
<g transform="translate(0.000000,68.000000) scale(0.100000,-0.100000)"
fill="#000000" stroke="none">
<path d="M732 267 c-27 -28 -27 -34 -4 -34 24 0 52 26 45 43 -7 20 -16 18 -41
-9z"/>
<path d="M670 199 c-17 -16 -33 -28 -35 -29 -15 0 -54 -34 -49 -42 3 -5 0 -9
-7 -7 -31 4 -43 -1 -32 -12 14 -14 77 17 67 33 -5 8 -1 9 10 5 10 -4 19 -1 22
8 4 8 10 12 15 9 5 -3 6 3 2 13 -6 16 -5 16 10 4 9 -7 18 -11 18 -7 1 3 2 10
3 15 0 5 5 13 10 18 6 5 6 2 1 -7 -8 -13 -7 -13 8 -1 9 7 17 17 17 21 0 16
-31 5 -60 -21z"/>
<path d="M713 172 c1 -4 21 -26 45 -47 30 -27 46 -35 54 -27 13 13 0 35 -17
28 -7 -2 -12 2 -11 11 0 9 -5 18 -13 21 -9 3 -11 0 -7 -9 4 -8 1 -6 -8 5 -8
10 -19 15 -24 12 -6 -3 -13 -1 -15 4 -3 6 -5 7 -4 2z"/>
</g>
</svg>
