<?xml version="1.0" standalone="no"?>
<!DOCTYPE svg PUBLIC "-//W3C//DTD SVG 20010904//EN"
 "http://www.w3.org/TR/2001/REC-SVG-20010904/DTD/svg10.dtd">
<svg version="1.0" xmlns="http://www.w3.org/2000/svg"
 width="96.000000pt" height="68.000000pt" viewBox="0 0 96.000000 68.000000"
 preserveAspectRatio="xMidYMid meet">
<metadata>
Created by potrace 1.16, written by Peter Selinger 2001-2019
</metadata>
<g transform="translate(0.000000,68.000000) scale(0.100000,-0.100000)"
fill="#000000" stroke="none">
<path d="M475 583 c18 -42 45 -167 38 -174 -4 -4 -43 -11 -86 -15 l-79 -7 4
29 c2 16 10 30 18 31 80 10 91 14 79 29 -9 11 -25 15 -51 12 l-38 -4 0 42 c0
43 -10 54 -51 54 -16 0 -18 -6 -13 -54 l5 -53 -51 -7 c-61 -8 -57 -26 6 -26
42 0 44 -1 44 -29 0 -26 -3 -29 -46 -35 -26 -3 -63 -6 -83 -6 -20 0 -42 -4
-50 -9 -25 -16 24 -23 109 -15 69 6 80 4 80 -9 0 -9 7 -22 15 -31 17 -17 7
-20 -97 -32 -78 -9 -65 -28 13 -21 33 3 59 1 59 -3 0 -10 -65 -63 -122 -100
-51 -34 -40 -37 20 -6 60 31 67 25 57 -50 -8 -65 5 -70 63 -27 20 15 39 28 41
30 2 2 2 6 -1 9 -4 3 -16 0 -28 -6 -28 -15 -31 -11 -36 48 -3 45 -1 51 27 71
17 13 28 29 26 36 -5 13 51 25 115 25 17 0 27 4 23 10 -3 6 -31 10 -61 10 -40
0 -54 4 -54 15 0 7 -8 18 -17 24 -27 15 -15 19 82 26 l90 7 33 -97 33 -97 -29
-28 c-16 -15 -46 -39 -68 -54 -21 -14 -33 -26 -27 -26 21 0 87 34 113 58 l25
22 38 -40 c60 -63 99 -88 145 -96 23 -4 42 -3 42 2 0 23 -38 126 -39 107 -3
-67 -31 -69 -94 -5 -48 49 -56 71 -34 94 29 32 57 79 57 97 0 12 -9 21 -26 25
-32 8 -31 9 -37 -30 -6 -36 -24 -74 -36 -74 -7 0 -42 79 -56 128 -6 21 -4 22
72 23 43 0 87 4 98 8 19 8 19 8 -3 20 -16 9 -47 10 -103 5 l-79 -7 0 85 c0 93
-8 108 -53 108 -24 0 -28 -3 -22 -17z"/>
<path d="M629 520 c36 -32 81 -40 81 -15 0 19 -51 45 -87 45 l-28 0 34 -30z"/>
<path d="M421 221 c-15 -21 -27 -28 -41 -24 -11 3 -20 3 -20 0 0 -11 88 -97
98 -97 21 0 13 21 -19 53 -29 29 -30 32 -13 44 10 7 26 13 36 13 21 0 23 11 6
28 -18 18 -24 15 -47 -17z"/>
</g>
</svg>
