<?xml version="1.0" standalone="no"?>
<!DOCTYPE svg PUBLIC "-//W3C//DTD SVG 20010904//EN"
 "http://www.w3.org/TR/2001/REC-SVG-20010904/DTD/svg10.dtd">
<svg version="1.0" xmlns="http://www.w3.org/2000/svg"
 width="96.000000pt" height="68.000000pt" viewBox="0 0 96.000000 68.000000"
 preserveAspectRatio="xMidYMid meet">
<metadata>
Created by potrace 1.16, written by Peter Selinger 2001-2019
</metadata>
<g transform="translate(0.000000,68.000000) scale(0.100000,-0.100000)"
fill="#000000" stroke="none">
<path d="M748 479 c2 -72 0 -135 -5 -140 -5 -5 -42 -17 -82 -27 l-73 -19 4 94
c2 75 0 96 -12 103 -25 16 -43 12 -35 -7 6 -16 7 -135 2 -213 -3 -37 22 -36
108 4 43 20 81 33 86 30 5 -3 9 -65 9 -139 0 -74 4 -136 10 -140 18 -11 28 74
35 300 3 127 9 238 12 249 6 21 -12 36 -42 36 -19 0 -20 -5 -17 -131z"/>
<path d="M274 548 c4 -13 10 -39 13 -59 l5 -37 -50 -7 c-28 -4 -60 -4 -71 0
-24 7 -37 -11 -15 -23 9 -5 24 -33 34 -63 20 -56 28 -61 78 -45 21 7 22 5 22
-41 0 -46 -2 -50 -33 -61 -18 -7 -55 -12 -82 -12 -48 0 -48 0 -29 -21 22 -25
31 -24 177 24 104 34 108 34 120 16 17 -27 37 -24 37 5 0 27 -45 66 -75 66
-15 0 -15 -3 -5 -15 16 -20 11 -24 -33 -32 l-36 -5 6 38 c3 22 7 41 9 43 2 2
26 6 54 9 41 4 50 8 50 24 0 11 9 31 20 45 11 14 20 32 20 39 0 24 -40 37 -97
30 -57 -7 -59 -5 -41 44 9 29 9 35 -7 47 -11 7 -32 13 -48 13 -26 0 -29 -3
-23 -22z m132 -140 c-3 -13 -6 -28 -6 -34 0 -7 -13 -14 -30 -16 -29 -4 -30 -3
-30 34 0 37 1 38 36 38 33 0 36 -2 30 -22z m-118 -25 c-2 -30 -8 -39 -24 -41
-17 -2 -24 5 -33 29 -13 37 -4 49 37 49 21 0 23 -4 20 -37z"/>
</g>
</svg>
