<?xml version="1.0" standalone="no"?>
<!DOCTYPE svg PUBLIC "-//W3C//DTD SVG 20010904//EN"
 "http://www.w3.org/TR/2001/REC-SVG-20010904/DTD/svg10.dtd">
<svg version="1.0" xmlns="http://www.w3.org/2000/svg"
 width="96.000000pt" height="68.000000pt" viewBox="0 0 96.000000 68.000000"
 preserveAspectRatio="xMidYMid meet">
<metadata>
Created by potrace 1.16, written by Peter Selinger 2001-2019
</metadata>
<g transform="translate(0.000000,68.000000) scale(0.100000,-0.100000)"
fill="#000000" stroke="none">
<path d="M450 601 c5 -11 15 -23 20 -26 26 -16 -1 -23 -135 -35 -80 -7 -145
-17 -145 -21 0 -5 10 -13 21 -20 20 -10 21 -17 16 -98 -6 -95 -38 -200 -88
-289 -16 -30 -29 -56 -26 -58 2 -2 22 12 44 31 57 49 98 151 119 297 9 62 17
114 18 115 1 2 236 21 359 29 72 4 97 9 97 20 0 7 -10 18 -21 25 -20 10 -42 9
-151 -7 -33 -5 -38 -3 -38 14 0 21 -37 42 -76 42 -21 0 -23 -3 -14 -19z"/>
<path d="M467 460 c5 -38 4 -40 -20 -40 -14 0 -32 -3 -41 -6 -11 -4 -16 0 -16
15 0 21 -34 46 -49 37 -5 -3 -6 -17 -4 -31 4 -19 0 -27 -18 -33 l-23 -9 27 -7
c29 -7 28 -5 31 -143 1 -16 -5 -29 -11 -29 -7 -1 -30 -2 -50 -3 -33 -2 -35 -4
-17 -12 14 -7 63 -6 158 3 l137 14 -7 -30 c-3 -17 -14 -46 -25 -63 -23 -41 -9
-43 25 -3 26 31 40 71 52 148 6 39 9 42 39 42 32 0 32 0 39 -61 3 -34 6 -102
6 -150 0 -87 12 -117 25 -61 8 39 23 265 18 274 -2 4 14 11 37 14 22 4 40 10
40 14 0 15 -32 19 -78 11 -93 -18 -122 -20 -122 -8 1 36 17 59 67 92 56 37 58
49 13 60 -22 5 -28 0 -45 -37 -17 -35 -27 -44 -51 -46 l-29 -3 0 -87 0 -87
-30 0 c-30 0 -30 0 -33 65 -4 77 3 110 23 110 22 0 18 17 -5 23 -11 3 -18 11
-15 19 7 18 -5 34 -32 42 -20 6 -21 4 -16 -34z m3 -84 c0 -8 -18 -18 -40 -24
-38 -9 -40 -9 -40 14 0 21 4 24 40 24 27 0 40 -4 40 -14z m3 -55 c3 -15 -2
-20 -25 -25 -48 -10 -58 -7 -58 13 0 18 15 26 61 30 9 0 19 -8 22 -18z m0 -60
c7 -27 0 -31 -45 -31 -31 0 -38 4 -38 19 0 19 7 22 66 30 7 0 14 -8 17 -18z"/>
<path d="M472 156 c12 -28 37 -41 50 -28 15 15 -14 52 -39 52 -20 0 -21 -2
-11 -24z"/>
<path d="M350 158 c0 -7 -21 -32 -47 -56 l-48 -44 37 16 c21 8 55 27 75 43 21
15 40 29 43 31 7 5 -24 22 -42 22 -10 0 -18 -6 -18 -12z"/>
</g>
</svg>
