<?xml version="1.0" standalone="no"?>
<!DOCTYPE svg PUBLIC "-//W3C//DTD SVG 20010904//EN"
 "http://www.w3.org/TR/2001/REC-SVG-20010904/DTD/svg10.dtd">
<svg version="1.0" xmlns="http://www.w3.org/2000/svg"
 width="96.000000pt" height="68.000000pt" viewBox="0 0 96.000000 68.000000"
 preserveAspectRatio="xMidYMid meet">
<metadata>
Created by potrace 1.16, written by Peter Selinger 2001-2019
</metadata>
<g transform="translate(0.000000,68.000000) scale(0.100000,-0.100000)"
fill="#000000" stroke="none">
<path d="M486 623 c-3 -4 -6 -23 -6 -44 0 -39 -14 -49 -72 -49 -16 0 -28 -4
-28 -10 0 -5 23 -10 51 -10 43 0 50 -3 45 -16 -3 -9 -6 -20 -6 -25 0 -5 -18
-9 -39 -9 -22 0 -43 -4 -46 -10 -4 -6 8 -10 29 -10 75 0 45 -45 -37 -55 -70
-9 -76 -28 -7 -23 28 1 50 -1 50 -6 0 -20 -73 -96 -122 -127 -66 -41 -62 -38
-57 -44 3 -2 32 8 65 24 61 29 121 81 151 131 12 21 25 29 54 32 35 3 44 -2
125 -76 l87 -78 56 6 c53 6 97 26 58 26 -10 0 -25 4 -35 10 -9 5 -35 14 -57
20 -41 10 -176 92 -159 96 5 1 45 6 89 9 73 7 78 8 60 22 -20 15 -38 15 -187
-3 -39 -4 -58 -3 -58 4 0 25 33 40 100 47 38 4 72 11 75 15 9 14 -48 21 -85
10 -51 -15 -60 -13 -60 14 0 22 5 24 63 30 62 7 97 19 85 31 -9 9 -37 9 -90 0
-32 -5 -48 -4 -48 3 0 6 5 14 10 17 6 3 10 10 10 15 0 12 -56 41 -64 33z"/>
<path d="M205 463 c-23 -8 -55 -12 -76 -9 -46 7 -53 -1 -29 -31 11 -14 23 -47
26 -74 4 -27 10 -51 13 -54 4 -2 38 2 77 8 63 11 69 14 66 35 -2 12 7 42 19
67 15 29 19 49 13 55 -17 17 -68 19 -109 3z m31 -70 c-7 -54 -4 -50 -38 -58
-26 -7 -28 -5 -34 31 -3 22 -6 43 -7 49 -1 5 12 13 28 16 58 13 58 13 51 -38z"/>
<path d="M489 333 c0 -5 -2 -21 -2 -38 -2 -26 -7 -31 -37 -36 -27 -4 -31 -7
-17 -13 9 -5 26 -6 37 -3 17 4 20 0 20 -24 0 -26 -3 -29 -32 -29 -55 0 -108
-12 -102 -22 4 -6 32 -7 69 -3 l63 6 4 -70 c2 -38 7 -73 11 -78 14 -14 27 21
27 77 0 30 4 60 8 66 4 6 41 12 82 13 41 1 81 6 90 11 25 14 -33 23 -105 15
-64 -7 -65 -6 -65 18 0 22 6 26 40 32 52 9 53 28 1 23 -36 -3 -39 -1 -36 20 2
17 -4 26 -22 33 -29 11 -33 11 -34 2z"/>
</g>
</svg>
