<?xml version="1.0" standalone="no"?>
<!DOCTYPE svg PUBLIC "-//W3C//DTD SVG 20010904//EN"
 "http://www.w3.org/TR/2001/REC-SVG-20010904/DTD/svg10.dtd">
<svg version="1.0" xmlns="http://www.w3.org/2000/svg"
 width="96.000000pt" height="68.000000pt" viewBox="0 0 96.000000 68.000000"
 preserveAspectRatio="xMidYMid meet">
<metadata>
Created by potrace 1.16, written by Peter Selinger 2001-2019
</metadata>
<g transform="translate(0.000000,68.000000) scale(0.100000,-0.100000)"
fill="#000000" stroke="none">
<path d="M670 520 c-19 -4 -52 -11 -74 -15 -37 -6 -38 -7 -17 -21 11 -8 34
-34 50 -58 34 -49 31 -55 -34 -89 -40 -21 -7 -22 42 -2 37 16 38 15 66 -15 22
-23 36 -30 65 -29 20 0 46 4 57 9 l20 8 -20 7 c-65 25 -91 37 -107 52 -17 15
-17 17 1 42 10 14 28 45 39 68 19 36 19 42 6 47 -20 7 -49 6 -94 -4z m40 -32
c0 -24 -25 -78 -36 -78 -10 0 -64 61 -64 74 0 6 35 13 73 15 15 0 27 -4 27
-11z"/>
</g>
</svg>
