<?xml version="1.0" standalone="no"?>
<!DOCTYPE svg PUBLIC "-//W3C//DTD SVG 20010904//EN"
 "http://www.w3.org/TR/2001/REC-SVG-20010904/DTD/svg10.dtd">
<svg version="1.0" xmlns="http://www.w3.org/2000/svg"
 width="96.000000pt" height="68.000000pt" viewBox="0 0 96.000000 68.000000"
 preserveAspectRatio="xMidYMid meet">
<metadata>
Created by potrace 1.16, written by Peter Selinger 2001-2019
</metadata>
<g transform="translate(0.000000,68.000000) scale(0.100000,-0.100000)"
fill="#000000" stroke="none">
<path d="M663 588 c-9 -15 -43 -81 -43 -84 0 -4 88 -54 94 -54 3 0 6 7 6 16 0
8 -17 22 -37 31 l-38 15 34 29 c29 24 32 30 21 44 -15 18 -26 19 -37 3z"/>
<path d="M530 534 l-23 -46 29 -24 c30 -24 54 -31 54 -14 0 5 -11 17 -25 26
-14 9 -25 21 -25 26 0 13 26 38 39 38 14 0 14 13 -1 28 -19 19 -25 15 -48 -34z"/>
<path d="M415 517 c-11 -23 -21 -44 -23 -48 -1 -3 11 -12 28 -19 16 -7 30 -16
30 -21 0 -5 7 -9 15 -9 26 0 16 27 -15 40 -16 7 -30 15 -30 18 0 3 12 18 26
33 14 15 23 32 20 38 -13 21 -31 10 -51 -32z"/>
<path d="M195 518 c3 -18 9 -50 12 -70 l6 -38 -62 0 c-62 0 -73 -7 -46 -30 8
-7 15 -18 15 -24 0 -6 5 -28 11 -49 10 -36 12 -38 40 -32 29 7 29 6 29 -39 l0
-46 -50 0 c-37 0 -50 -4 -50 -14 0 -28 38 -26 126 3 83 28 90 29 107 13 16
-14 19 -14 27 -2 15 23 13 27 -23 54 -35 27 -61 36 -39 14 16 -16 15 -35 0
-35 -7 0 -20 -2 -28 -4 -10 -3 -16 5 -18 26 -4 35 18 55 62 55 26 0 31 4 32
24 1 13 10 35 19 50 24 36 41 20 52 -49 7 -41 12 -50 28 -48 11 1 70 4 130 6
l110 4 33 62 33 61 -28 11 c-20 8 -61 8 -148 -1 -137 -13 -189 -11 -225 7 -15
8 -39 10 -59 7 -33 -7 -34 -6 -28 22 4 16 9 38 12 50 5 15 0 23 -20 32 -14 7
-35 12 -47 12 -18 0 -20 -4 -13 -32z m477 -153 c-2 -22 -7 -43 -10 -47 -9 -9
-202 -25 -207 -17 -2 3 -7 25 -11 47 -6 38 -4 42 13 42 11 0 35 3 52 6 40 8
41 -8 2 -47 -21 -21 -25 -29 -14 -29 9 0 25 8 35 17 16 14 24 15 52 5 40 -15
56 -15 56 -2 0 5 -11 12 -25 16 -28 7 -52 40 -34 46 6 2 30 4 53 3 l41 0 -3
-40z m-372 23 c0 -30 -13 -58 -26 -58 -9 0 -14 12 -14 35 0 28 4 35 20 35 11
0 20 -6 20 -12z m-90 -22 c0 -54 -32 -78 -44 -33 -9 35 -7 45 12 50 30 8 32 7
32 -17z"/>
<path d="M391 177 c0 -45 -4 -95 -7 -113 -9 -47 9 -49 66 -8 55 39 61 55 11
29 l-31 -16 0 66 0 65 40 0 c23 0 40 5 40 11 0 8 -13 9 -40 5 -35 -5 -40 -4
-40 13 0 10 -9 21 -19 24 -18 4 -19 -2 -20 -76z"/>
<path d="M534 145 c0 -68 4 -115 9 -115 14 0 97 53 97 62 0 4 -12 3 -26 -2
-39 -15 -46 -12 -42 18 2 22 9 28 36 32 43 7 37 25 -6 21 -28 -2 -33 0 -30 16
2 12 15 20 36 23 43 7 41 26 -2 22 -27 -2 -35 2 -39 18 -3 11 -11 20 -19 20
-10 0 -13 -26 -14 -115z"/>
<path d="M665 208 c10 -75 37 -131 78 -162 33 -25 107 -47 107 -32 0 4 -8 31
-17 59 l-17 52 -9 -32 c-6 -18 -16 -33 -22 -33 -21 0 -75 69 -76 98 -1 15 -2
43 -3 62 -1 29 -5 36 -25 38 -22 4 -23 2 -16 -50z"/>
<path d="M463 163 c-35 -7 -27 -25 10 -21 17 2 31 7 30 13 -2 12 -11 13 -40 8z"/>
</g>
</svg>
