<?xml version="1.0" standalone="no"?>
<!DOCTYPE svg PUBLIC "-//W3C//DTD SVG 20010904//EN"
 "http://www.w3.org/TR/2001/REC-SVG-20010904/DTD/svg10.dtd">
<svg version="1.0" xmlns="http://www.w3.org/2000/svg"
 width="96.000000pt" height="68.000000pt" viewBox="0 0 96.000000 68.000000"
 preserveAspectRatio="xMidYMid meet">
<metadata>
Created by potrace 1.16, written by Peter Selinger 2001-2019
</metadata>
<g transform="translate(0.000000,68.000000) scale(0.100000,-0.100000)"
fill="#000000" stroke="none">
<path d="M296 533 c5 -10 9 -67 9 -128 -1 -99 -4 -115 -27 -160 -14 -28 -41
-66 -60 -84 -21 -22 -26 -32 -15 -27 10 3 23 6 27 6 5 0 26 15 46 32 56 49 75
103 85 236 8 104 7 116 -9 128 -9 7 -28 14 -41 14 -19 0 -22 -3 -15 -17z"/>
</g>
</svg>
