<?xml version="1.0" standalone="no"?>
<!DOCTYPE svg PUBLIC "-//W3C//DTD SVG 20010904//EN"
 "http://www.w3.org/TR/2001/REC-SVG-20010904/DTD/svg10.dtd">
<svg version="1.0" xmlns="http://www.w3.org/2000/svg"
 width="90.000000pt" height="92.000000pt" viewBox="0 0 90.000000 92.000000"
 preserveAspectRatio="xMidYMid meet">
<metadata>
Created by potrace 1.16, written by Peter Selinger 2001-2019
</metadata>
<g transform="translate(0.000000,92.000000) scale(0.100000,-0.100000)"
fill="#000000" stroke="none">
<path d="M360 894 c0 -5 11 -28 24 -50 l23 -41 -60 -7 c-33 -3 -86 -6 -117 -6
-51 0 -58 3 -64 23 -6 19 -12 12 -40 -48 -24 -51 -31 -75 -24 -88 13 -26 30
-17 53 30 20 40 21 40 85 46 36 4 123 13 195 22 136 15 245 19 245 9 0 -4 -10
-23 -22 -42 -21 -34 -21 -35 -2 -28 10 4 41 12 69 18 64 13 73 22 49 49 -51
56 -62 59 -165 44 -138 -21 -159 -20 -159 8 0 13 -8 31 -17 40 -21 18 -73 33
-73 21z"/>
<path d="M440 740 c0 -12 -9 -39 -20 -60 -22 -43 -14 -53 15 -20 19 21 52 19
67 -4 16 -24 12 -26 -91 -42 -66 -10 -25 -28 45 -20 l54 6 0 -34 c0 -33 -13
-46 -46 -46 -8 0 -11 6 -7 15 3 9 -2 22 -13 30 -28 21 -35 18 -28 -10 3 -14 1
-31 -5 -38 -8 -10 -7 -18 2 -31 12 -17 16 -17 72 2 93 31 135 36 135 17 0 -28
21 -16 36 22 15 34 15 38 -2 50 -29 21 -45 16 -38 -12 6 -23 4 -25 -30 -25
-34 0 -36 1 -36 35 0 34 1 35 38 35 20 0 54 3 75 6 31 6 35 9 25 21 -9 12 -26
13 -73 8 -60 -6 -62 -6 -60 16 1 17 10 25 33 31 18 5 32 13 32 18 0 17 -36 19
-84 5 -64 -19 -69 -19 -54 5 11 17 10 22 -2 30 -24 16 -40 11 -40 -10z"/>
<path d="M238 682 c-82 -16 -103 -32 -43 -32 29 0 36 -4 41 -26 7 -29 -7 -44
-43 -44 -12 0 -24 -4 -27 -9 -7 -11 37 -23 58 -15 13 5 16 -1 16 -25 0 -37
-13 -44 -82 -45 -26 -1 -48 -4 -48 -8 0 -4 12 -16 26 -27 23 -18 29 -19 53 -7
14 7 63 26 109 40 109 36 113 61 5 30 -20 -6 -23 -3 -23 24 0 26 4 31 35 36
56 11 42 33 -18 28 -14 -2 -17 4 -14 25 3 22 10 29 36 34 40 8 50 17 31 29
-18 11 -14 12 -112 -8z"/>
<path d="M425 443 c-38 -8 -92 -12 -118 -9 -45 5 -48 4 -41 -16 10 -34 13
-109 4 -162 -11 -71 0 -102 33 -98 15 1 27 -1 27 -6 0 -10 -68 -74 -115 -109
-16 -12 -24 -23 -17 -23 22 0 85 30 151 72 62 41 63 42 43 59 -21 16 -18 17
64 24 75 6 87 5 98 -11 7 -9 18 -14 24 -10 15 9 21 51 24 178 3 103 3 107 -20
117 -29 14 -69 12 -157 -6z m113 -39 c3 -19 -5 -21 -95 -33 -54 -7 -106 -14
-115 -17 -14 -4 -18 1 -18 20 0 20 6 26 33 31 158 29 191 29 195 -1z m10 -80
c3 -19 -5 -22 -100 -33 -57 -7 -111 -15 -120 -17 -14 -4 -18 1 -18 24 l0 30
98 9 c126 13 136 12 140 -13z m-3 -76 c-1 -13 -3 -25 -4 -28 0 -3 -18 -5 -38
-6 -21 0 -73 -4 -115 -8 l-78 -9 0 25 c0 25 2 26 108 35 59 6 112 11 118 11 6
1 10 -8 9 -20z"/>
<path d="M533 86 c36 -36 72 -66 80 -66 19 0 25 18 17 50 -6 27 -71 65 -128
76 -34 7 -34 6 31 -60z"/>
</g>
</svg>
