<?xml version="1.0" standalone="no"?>
<!DOCTYPE svg PUBLIC "-//W3C//DTD SVG 20010904//EN"
 "http://www.w3.org/TR/2001/REC-SVG-20010904/DTD/svg10.dtd">
<svg version="1.0" xmlns="http://www.w3.org/2000/svg"
 width="96.000000pt" height="68.000000pt" viewBox="0 0 96.000000 68.000000"
 preserveAspectRatio="xMidYMid meet">
<metadata>
Created by potrace 1.16, written by Peter Selinger 2001-2019
</metadata>
<g transform="translate(0.000000,68.000000) scale(0.100000,-0.100000)"
fill="#000000" stroke="none">
<path d="M570 409 c-47 -5 -106 -9 -131 -10 -46 -2 -46 -3 -33 -27 7 -14 16
-43 19 -64 6 -36 9 -39 33 -33 15 3 80 7 144 9 l118 4 35 52 c19 29 35 56 35
60 0 21 -64 24 -220 9z m150 -26 c-1 -10 -6 -31 -13 -46 l-12 -28 -122 -5
-122 -6 -7 37 c-3 20 -4 38 -2 40 5 5 173 21 241 24 29 1 37 -3 37 -16z"/>
</g>
</svg>
