<?xml version="1.0" standalone="no"?>
<!DOCTYPE svg PUBLIC "-//W3C//DTD SVG 20010904//EN"
 "http://www.w3.org/TR/2001/REC-SVG-20010904/DTD/svg10.dtd">
<svg version="1.0" xmlns="http://www.w3.org/2000/svg"
 width="96.000000pt" height="68.000000pt" viewBox="0 0 96.000000 68.000000"
 preserveAspectRatio="xMidYMid meet">
<metadata>
Created by potrace 1.16, written by Peter Selinger 2001-2019
</metadata>
<g transform="translate(0.000000,68.000000) scale(0.100000,-0.100000)"
fill="#000000" stroke="none">
<path d="M540 547 l0 -55 -55 -7 c-64 -8 -64 -25 1 -25 38 0 43 -3 41 -20 -5
-32 -19 -40 -78 -43 -55 -2 -55 -2 -43 -26 7 -13 16 -41 19 -63 7 -37 7 -38
43 -33 21 3 86 7 146 8 97 2 110 5 120 22 6 11 21 35 34 53 42 58 28 66 -99
58 l-111 -7 6 23 c3 13 6 26 6 29 0 4 21 10 48 13 81 11 102 17 102 28 0 7
-22 9 -65 4 -70 -7 -80 1 -53 44 15 23 5 36 -34 45 -28 7 -28 7 -28 -48z m180
-153 c0 -4 -5 -24 -12 -45 -11 -38 -13 -39 -55 -39 -46 0 -50 5 -28 34 8 11
15 28 15 38 0 14 8 18 40 18 22 0 40 -3 40 -6z m-122 -46 c-3 -40 -5 -43 -33
-46 -29 -3 -30 -2 -31 43 -1 45 -1 45 33 45 34 0 34 0 31 -42z m-94 12 c3 -11
9 -29 12 -40 5 -17 1 -20 -28 -20 -31 0 -35 3 -45 40 l-10 40 33 0 c24 0 34
-5 38 -20z"/>
<path d="M287 523 c-25 -41 -73 -91 -114 -119 -36 -24 -36 -24 -9 -24 34 0 94
34 152 84 49 44 51 48 28 70 -22 23 -37 20 -57 -11z"/>
<path d="M305 421 c16 -27 -76 -139 -170 -208 -44 -33 -8 -29 46 5 24 15 50
32 57 36 11 6 13 -12 10 -97 -2 -75 1 -110 10 -118 7 -8 15 -9 21 -4 11 12 18
221 8 232 -12 12 -8 20 33 65 22 23 40 49 40 55 0 7 -14 20 -31 29 -17 8 -28
11 -24 5z"/>
<path d="M590 244 c-8 -1 -41 -6 -74 -9 -38 -4 -55 -10 -49 -16 12 -12 223 10
223 23 0 8 -68 9 -100 2z"/>
<path d="M716 188 c8 -20 89 -78 107 -78 22 0 22 32 -1 50 -18 15 -80 40 -100
40 -6 0 -9 -6 -6 -12z"/>
<path d="M438 174 c-8 -7 31 -85 52 -106 43 -41 187 -60 259 -34 49 17 49 31
1 61 -62 39 -65 39 -65 3 l0 -33 -57 -3 c-75 -4 -130 23 -158 78 -21 42 -23
44 -32 34z"/>
<path d="M540 175 c0 -17 50 -57 64 -52 22 9 20 34 -3 47 -21 11 -61 14 -61 5z"/>
<path d="M361 125 c-25 -47 -19 -74 12 -62 29 11 47 107 20 107 -5 0 -19 -20
-32 -45z"/>
</g>
</svg>
