<?xml version="1.0" standalone="no"?>
<!DOCTYPE svg PUBLIC "-//W3C//DTD SVG 20010904//EN"
 "http://www.w3.org/TR/2001/REC-SVG-20010904/DTD/svg10.dtd">
<svg version="1.0" xmlns="http://www.w3.org/2000/svg"
 width="96.000000pt" height="68.000000pt" viewBox="0 0 96.000000 68.000000"
 preserveAspectRatio="xMidYMid meet">
<metadata>
Created by potrace 1.16, written by Peter Selinger 2001-2019
</metadata>
<g transform="translate(0.000000,68.000000) scale(0.100000,-0.100000)"
fill="#000000" stroke="none">
<path d="M436 252 l6 -30 -141 -7 c-132 -7 -164 -14 -125 -29 21 -8 106 -6
174 3 30 5 57 7 59 5 12 -10 -35 -42 -133 -90 -61 -29 -109 -54 -106 -54 25
-1 166 47 207 71 29 16 56 29 59 29 4 0 4 -26 1 -58 -7 -62 2 -88 27 -79 12 5
16 21 16 73 0 77 -2 77 92 13 67 -46 121 -57 193 -42 l40 9 -100 28 c-103 29
-215 79 -215 96 0 5 60 11 142 12 93 2 143 7 145 14 6 17 -66 30 -127 23 -30
-4 -78 -7 -107 -8 -46 -1 -52 1 -55 22 -2 16 -11 23 -30 25 -26 3 -27 1 -22
-26z"/>
</g>
</svg>
