<?xml version="1.0" standalone="no"?>
<!DOCTYPE svg PUBLIC "-//W3C//DTD SVG 20010904//EN"
 "http://www.w3.org/TR/2001/REC-SVG-20010904/DTD/svg10.dtd">
<svg version="1.0" xmlns="http://www.w3.org/2000/svg"
 width="96.000000pt" height="68.000000pt" viewBox="0 0 96.000000 68.000000"
 preserveAspectRatio="xMidYMid meet">
<metadata>
Created by potrace 1.16, written by Peter Selinger 2001-2019
</metadata>
<g transform="translate(0.000000,68.000000) scale(0.100000,-0.100000)"
fill="#000000" stroke="none">
<path d="M320 237 c0 -8 9 -22 20 -32 16 -15 23 -16 33 -6 9 10 7 16 -12 32
-27 22 -41 24 -41 6z"/>
<path d="M240 215 c0 -18 33 -66 42 -63 21 7 20 26 -1 47 -20 20 -41 28 -41
16z"/>
<path d="M140 188 c0 -22 40 -80 53 -75 25 8 13 50 -20 70 -25 14 -33 16 -33
5z"/>
</g>
</svg>
