<?xml version="1.0" standalone="no"?>
<!DOCTYPE svg PUBLIC "-//W3C//DTD SVG 20010904//EN"
 "http://www.w3.org/TR/2001/REC-SVG-20010904/DTD/svg10.dtd">
<svg version="1.0" xmlns="http://www.w3.org/2000/svg"
 width="96.000000pt" height="68.000000pt" viewBox="0 0 96.000000 68.000000"
 preserveAspectRatio="xMidYMid meet">
<metadata>
Created by potrace 1.16, written by Peter Selinger 2001-2019
</metadata>
<g transform="translate(0.000000,68.000000) scale(0.100000,-0.100000)"
fill="#000000" stroke="none">
<path d="M481 546 c-113 -18 -131 -23 -118 -34 13 -11 34 -10 122 4 126 21
135 17 112 -48 -8 -24 -18 -51 -22 -60 -6 -14 -2 -18 18 -18 17 0 28 7 32 20
4 11 22 40 41 65 l34 45 -28 25 c-31 29 -18 29 -191 1z"/>
</g>
</svg>
