<?xml version="1.0" standalone="no"?>
<!DOCTYPE svg PUBLIC "-//W3C//DTD SVG 20010904//EN"
 "http://www.w3.org/TR/2001/REC-SVG-20010904/DTD/svg10.dtd">
<svg version="1.0" xmlns="http://www.w3.org/2000/svg"
 width="96.000000pt" height="68.000000pt" viewBox="0 0 96.000000 68.000000"
 preserveAspectRatio="xMidYMid meet">
<metadata>
Created by potrace 1.16, written by Peter Selinger 2001-2019
</metadata>
<g transform="translate(0.000000,68.000000) scale(0.100000,-0.100000)"
fill="#000000" stroke="none">
<path d="M560 613 c0 -55 -11 -72 -46 -79 -40 -7 -44 -21 -8 -30 21 -5 25 -11
21 -30 -6 -35 16 -30 46 10 24 31 31 34 97 38 39 3 74 8 78 12 14 15 -26 27
-79 23 l-56 -3 11 29 c9 24 8 31 -8 43 -33 23 -56 18 -56 -13z"/>
<path d="M280 589 c0 -6 9 -22 20 -37 26 -33 16 -39 -72 -48 -62 -6 -67 -8
-57 -25 15 -28 50 -32 109 -13 53 17 54 17 68 -4 22 -33 45 -29 37 7 -5 26 -3
29 25 34 45 9 41 37 -5 30 -33 -5 -35 -4 -41 25 -4 19 -14 32 -28 36 -33 9
-56 7 -56 -5z"/>
<path d="M525 429 c-33 -4 -106 -13 -162 -20 -98 -11 -125 -21 -84 -32 22 -5
28 -33 37 -184 l6 -112 -38 -6 c-22 -3 -46 -8 -54 -9 -9 -2 -3 -8 15 -15 24
-10 56 -10 155 0 69 7 182 12 253 12 70 0 127 3 127 8 0 31 -139 36 -357 13
l-63 -7 0 49 0 49 58 2 c31 2 94 5 138 9 72 5 81 8 77 24 -3 10 3 32 12 51 16
31 16 33 -1 46 -22 16 -13 16 -159 -2 -65 -8 -120 -15 -122 -15 -1 0 -1 20 0
44 2 53 -3 51 190 62 115 6 136 13 98 34 -22 11 -39 11 -126 -1z m65 -153 c0
-8 -4 -26 -9 -39 -9 -23 -17 -25 -98 -32 -48 -5 -96 -9 -105 -10 -15 -1 -18 6
-18 42 0 24 3 42 8 40 4 -3 34 -2 67 3 104 13 155 12 155 -4z"/>
</g>
</svg>
