<?xml version="1.0" standalone="no"?>
<!DOCTYPE svg PUBLIC "-//W3C//DTD SVG 20010904//EN"
 "http://www.w3.org/TR/2001/REC-SVG-20010904/DTD/svg10.dtd">
<svg version="1.0" xmlns="http://www.w3.org/2000/svg"
 width="96.000000pt" height="68.000000pt" viewBox="0 0 96.000000 68.000000"
 preserveAspectRatio="xMidYMid meet">
<metadata>
Created by potrace 1.16, written by Peter Selinger 2001-2019
</metadata>
<g transform="translate(0.000000,68.000000) scale(0.100000,-0.100000)"
fill="#000000" stroke="none">
<path d="M498 131 c7 -71 1 -82 -40 -70 l-33 9 38 -38 38 -37 20 24 c16 20 19
36 17 90 -3 58 -5 66 -24 69 -20 3 -21 -1 -16 -47z"/>
<path d="M360 136 c0 -7 -13 -30 -30 -51 -16 -21 -30 -39 -30 -42 0 -8 57 27
90 56 29 25 33 32 20 41 -22 14 -50 12 -50 -4z"/>
<path d="M659 100 c51 -52 81 -63 81 -32 0 22 -22 43 -67 66 -60 30 -65 18
-14 -34z"/>
</g>
</svg>
