<?xml version="1.0" standalone="no"?>
<!DOCTYPE svg PUBLIC "-//W3C//DTD SVG 20010904//EN"
 "http://www.w3.org/TR/2001/REC-SVG-20010904/DTD/svg10.dtd">
<svg version="1.0" xmlns="http://www.w3.org/2000/svg"
 width="90.000000pt" height="92.000000pt" viewBox="0 0 90.000000 92.000000"
 preserveAspectRatio="xMidYMid meet">
<metadata>
Created by potrace 1.16, written by Peter Selinger 2001-2019
</metadata>
<g transform="translate(0.000000,92.000000) scale(0.100000,-0.100000)"
fill="#000000" stroke="none">
<path d="M540 868 c0 -64 -8 -75 -58 -83 -44 -6 -45 -8 -27 -22 11 -8 30 -12
42 -10 19 3 20 1 12 -21 -13 -33 -2 -41 16 -14 33 46 45 52 108 52 75 0 102
13 73 35 -23 17 -36 18 -88 6 -42 -10 -45 -6 -22 27 15 21 15 25 -2 43 -28 31
-54 25 -54 -13z"/>
<path d="M247 864 c-3 -4 2 -23 13 -44 11 -21 16 -40 13 -44 -4 -3 -37 -6 -75
-6 -75 0 -82 -9 -37 -42 22 -16 28 -16 64 -3 58 20 63 19 82 -22 l17 -38 4 46
c3 45 5 47 38 53 48 10 44 30 -5 23 -38 -5 -39 -4 -45 33 -4 28 -12 39 -28 44
-29 7 -33 7 -41 0z"/>
<path d="M410 695 c-7 -9 -45 -31 -84 -51 l-71 -36 45 6 c25 3 53 8 62 11 18
7 28 -20 28 -76 l0 -36 -140 -13 c-77 -7 -140 -17 -140 -21 0 -3 14 -12 31
-20 26 -10 46 -10 108 0 42 7 84 14 93 17 13 4 16 1 12 -10 -7 -19 -129 -103
-225 -155 -41 -23 -71 -41 -68 -41 4 0 38 9 75 21 74 22 161 67 207 105 16 13
32 24 35 24 4 0 6 -19 4 -42 -1 -24 2 -50 7 -58 17 -25 34 3 39 65 l5 55 76
-42 c187 -103 231 -118 231 -78 0 46 -103 98 -257 131 -108 22 -50 39 134 39
134 0 151 9 82 41 -30 15 -43 15 -119 3 -154 -24 -165 -20 -149 54 4 17 3 35
-2 38 -17 10 -9 24 14 24 12 0 29 4 37 10 12 7 12 12 -4 29 -23 25 -49 27 -66
6z"/>
<path d="M502 593 c-29 -30 -47 -53 -40 -51 7 3 43 16 81 29 37 13 67 29 67
36 0 11 -38 44 -50 42 -3 0 -29 -25 -58 -56z"/>
<path d="M230 585 c0 -3 10 -19 22 -35 27 -37 58 -40 58 -6 0 18 -8 27 -31 35
-35 12 -49 14 -49 6z"/>
<path d="M450 309 c-63 -10 -148 -19 -188 -20 l-72 -2 15 -23 c8 -13 20 -58
26 -101 13 -98 25 -129 43 -114 10 8 190 30 251 31 6 0 16 -14 22 -31 10 -26
15 -29 31 -20 27 14 39 51 52 161 l11 95 -26 23 c-14 12 -31 21 -38 21 -7 -1
-64 -10 -127 -20z m128 -64 l3 -30 -76 -1 c-62 -1 -75 2 -70 13 3 8 5 23 5 34
0 18 6 20 68 17 66 -3 67 -3 70 -33z m-190 -13 c3 -29 1 -32 -26 -32 -16 0
-43 -3 -60 -6 -27 -6 -32 -3 -38 20 -8 33 -7 35 47 45 65 13 74 10 77 -27z
m192 -69 c0 -42 -9 -48 -82 -50 l-68 -2 0 29 c0 33 9 37 90 43 25 2 48 4 53 5
4 1 7 -10 7 -25z m-188 -28 l4 -35 -58 0 c-32 0 -58 3 -58 8 0 4 -3 17 -6 29
-6 20 -2 22 42 26 27 2 54 4 60 5 7 1 14 -14 16 -33z"/>
</g>
</svg>
