<?xml version="1.0" standalone="no"?>
<!DOCTYPE svg PUBLIC "-//W3C//DTD SVG 20010904//EN"
 "http://www.w3.org/TR/2001/REC-SVG-20010904/DTD/svg10.dtd">
<svg version="1.0" xmlns="http://www.w3.org/2000/svg"
 width="90.000000pt" height="92.000000pt" viewBox="0 0 90.000000 92.000000"
 preserveAspectRatio="xMidYMid meet">
<metadata>
Created by potrace 1.16, written by Peter Selinger 2001-2019
</metadata>
<g transform="translate(0.000000,92.000000) scale(0.100000,-0.100000)"
fill="#000000" stroke="none">
<path d="M461 855 c-19 -13 -74 -40 -124 -60 -81 -32 -92 -35 -123 -23 -43 15
-49 8 -34 -38 15 -44 7 -262 -10 -294 -13 -25 8 -73 29 -67 20 5 223 159 217
164 -2 3 -42 -12 -88 -32 -45 -20 -89 -39 -96 -42 -10 -4 -12 10 -10 63 l3 69
45 2 c25 2 69 7 99 13 87 16 95 14 120 -30 59 -105 243 -240 327 -240 39 0 39
1 19 55 -8 22 -14 61 -15 87 0 59 -16 71 -25 19 -3 -22 -12 -47 -20 -57 -13
-18 -15 -18 -60 4 -66 32 -147 95 -179 139 l-26 38 27 7 c16 4 55 10 88 14
l60 6 -25 20 c-21 17 -33 19 -80 13 -95 -13 -93 -13 -102 25 -5 19 -18 42 -29
52 -10 9 -19 18 -19 21 0 2 26 9 58 16 85 18 92 21 92 36 0 16 -43 45 -67 45
-10 -1 -33 -12 -52 -25z m-48 -140 c31 -63 34 -59 -63 -75 -36 -6 -77 -13 -92
-16 -26 -5 -28 -3 -28 24 0 77 7 88 73 104 34 9 67 16 72 17 6 0 23 -24 38
-54z"/>
<path d="M465 408 c-38 -11 -101 -21 -140 -23 -38 -2 -72 -4 -74 -4 -2 -1 2
-7 8 -15 13 -16 16 -139 5 -212 -9 -65 24 -137 41 -85 6 20 63 31 160 31 45 0
52 -3 67 -30 20 -36 33 -38 52 -7 19 30 21 47 12 159 -5 61 -5 108 2 126 5 16
7 33 3 38 -7 10 -59 45 -63 43 -2 -1 -34 -10 -73 -21z m69 -44 c9 -8 16 -31
16 -51 0 -34 -1 -35 -30 -31 -17 3 -58 -1 -93 -9 -103 -21 -107 -20 -107 31
l0 45 53 10 c50 10 92 16 129 20 9 0 24 -6 32 -15z m15 -136 c-1 -64 -9 -86
-32 -85 -12 0 -64 -3 -116 -8 l-94 -8 6 33 c4 18 7 41 7 51 0 16 8 19 48 20
26 0 65 4 87 8 75 16 94 13 94 -11z"/>
</g>
</svg>
