<?xml version="1.0" standalone="no"?>
<!DOCTYPE svg PUBLIC "-//W3C//DTD SVG 20010904//EN"
 "http://www.w3.org/TR/2001/REC-SVG-20010904/DTD/svg10.dtd">
<svg version="1.0" xmlns="http://www.w3.org/2000/svg"
 width="96.000000pt" height="68.000000pt" viewBox="0 0 96.000000 68.000000"
 preserveAspectRatio="xMidYMid meet">
<metadata>
Created by potrace 1.16, written by Peter Selinger 2001-2019
</metadata>
<g transform="translate(0.000000,68.000000) scale(0.100000,-0.100000)"
fill="#000000" stroke="none">
<path d="M440 615 c-44 -26 -191 -67 -222 -63 -33 5 -45 -6 -27 -28 9 -11 10
-38 5 -102 -12 -154 -13 -147 9 -150 11 -1 54 20 95 48 41 27 70 50 64 50 -11
0 -87 -23 -117 -35 -16 -7 -18 -3 -15 41 l3 49 94 11 94 12 67 -67 c72 -71
166 -125 238 -137 l44 -7 -8 49 c-4 27 -10 60 -14 74 -6 24 -7 24 -20 -12 -10
-27 -20 -38 -34 -38 -32 0 -138 57 -180 96 -45 43 -40 50 41 56 102 8 65 30
-41 26 -59 -3 -59 -3 -68 29 -4 17 -16 33 -26 35 -9 2 13 10 51 17 74 15 90
27 62 48 -24 17 -63 16 -95 -2z m-42 -105 c11 -22 18 -41 14 -44 -4 -2 -36 -7
-72 -11 -36 -3 -73 -9 -82 -11 -15 -5 -18 1 -18 36 0 24 5 42 13 44 6 2 35 8
62 14 28 5 53 10 56 11 3 0 15 -17 27 -39z"/>
<path d="M410 283 c-41 -7 -92 -12 -113 -11 l-37 4 6 -36 c4 -19 7 -37 7 -40
1 -3 -2 -33 -7 -68 -5 -44 -4 -68 5 -78 15 -18 29 -18 29 0 0 9 23 15 84 20
91 6 116 2 116 -20 0 -24 30 -28 45 -8 10 14 14 49 15 126 0 140 0 139 -150
111z m100 -47 l0 -33 -68 -6 c-38 -4 -83 -10 -100 -13 -31 -6 -32 -6 -32 29 0
35 1 36 43 41 161 21 157 22 157 -18z m-2 -131 c-2 -1 -47 -5 -100 -8 l-98 -6
0 34 c0 33 0 34 58 40 31 4 75 10 97 14 l40 7 3 -39 c2 -22 2 -40 0 -42z"/>
</g>
</svg>
