<?xml version="1.0" standalone="no"?>
<!DOCTYPE svg PUBLIC "-//W3C//DTD SVG 20010904//EN"
 "http://www.w3.org/TR/2001/REC-SVG-20010904/DTD/svg10.dtd">
<svg version="1.0" xmlns="http://www.w3.org/2000/svg"
 width="96.000000pt" height="68.000000pt" viewBox="0 0 96.000000 68.000000"
 preserveAspectRatio="xMidYMid meet">
<metadata>
Created by potrace 1.16, written by Peter Selinger 2001-2019
</metadata>
<g transform="translate(0.000000,68.000000) scale(0.100000,-0.100000)"
fill="#000000" stroke="none">
<path d="M488 550 c-3 -28 -8 -53 -11 -56 -3 -3 -24 -8 -46 -11 -46 -6 -46
-23 0 -23 16 0 29 -5 29 -10 0 -21 -32 -73 -72 -116 -43 -47 -41 -56 6 -25 36
24 89 89 106 131 16 38 38 34 95 -20 65 -60 116 -104 131 -113 15 -8 114 2
114 12 0 3 -25 14 -56 24 -55 17 -214 112 -214 127 0 4 20 11 45 14 24 4 47
11 50 17 11 17 -26 22 -78 10 -27 -6 -52 -9 -55 -7 -2 3 0 19 6 35 9 27 8 33
-11 46 -32 22 -34 20 -39 -35z"/>
</g>
</svg>
