<?xml version="1.0" standalone="no"?>
<!DOCTYPE svg PUBLIC "-//W3C//DTD SVG 20010904//EN"
 "http://www.w3.org/TR/2001/REC-SVG-20010904/DTD/svg10.dtd">
<svg version="1.0" xmlns="http://www.w3.org/2000/svg"
 width="96.000000pt" height="68.000000pt" viewBox="0 0 96.000000 68.000000"
 preserveAspectRatio="xMidYMid meet">
<metadata>
Created by potrace 1.16, written by Peter Selinger 2001-2019
</metadata>
<g transform="translate(0.000000,68.000000) scale(0.100000,-0.100000)"
fill="#000000" stroke="none">
<path d="M410 627 c0 -8 7 -20 15 -27 8 -7 12 -17 8 -23 -3 -5 -1 -7 5 -3 6 3
13 2 17 -4 9 -14 -178 -13 -192 1 -6 6 -13 7 -16 2 -50 -82 -58 -106 -45 -120
20 -19 42 -8 64 33 12 22 26 34 40 34 12 0 41 3 66 6 36 5 46 3 51 -10 12 -30
-4 -45 -54 -52 -63 -8 -64 -24 -1 -24 l47 -1 -30 -27 c-17 -15 -41 -35 -55
-44 -25 -17 -25 -17 12 -6 21 6 54 26 74 44 l36 33 54 -36 c43 -29 57 -34 67
-24 16 17 -22 48 -70 57 -40 7 -27 24 19 24 34 0 58 9 58 22 0 7 -20 8 -55 3
l-56 -7 7 26 c4 18 2 26 -7 27 -26 3 86 17 139 18 l53 1 -21 -31 c-12 -16 -20
-32 -18 -34 2 -2 22 0 43 5 22 5 52 11 68 15 41 8 36 40 -12 65 -35 17 -48 19
-113 10 -103 -13 -107 -13 -101 8 6 24 -13 38 -59 47 -30 6 -38 4 -38 -8z"/>
<path d="M635 360 c-38 -5 -166 -14 -283 -21 -117 -7 -215 -16 -218 -20 -9
-16 71 -21 155 -11 47 6 123 14 168 17 l82 5 6 -32 c3 -18 5 -69 3 -113 l-3
-80 -42 1 -43 1 33 -34 c72 -74 107 -27 101 135 -2 57 -6 108 -9 113 -4 5 41
9 109 9 118 0 150 10 94 29 -34 12 -50 12 -153 1z"/>
<path d="M404 280 c-6 -6 -36 -11 -67 -13 -46 -2 -56 -5 -51 -17 3 -8 13 -34
21 -57 13 -39 16 -41 39 -32 14 5 43 9 65 9 29 0 39 4 39 15 0 9 7 30 16 46
12 24 13 34 3 45 -13 16 -50 19 -65 4z m16 -32 c-1 -37 -14 -56 -43 -62 -35
-7 -42 -2 -51 36 -5 23 -3 27 21 31 55 8 73 7 73 -5z"/>
</g>
</svg>
