<?xml version="1.0" standalone="no"?>
<!DOCTYPE svg PUBLIC "-//W3C//DTD SVG 20010904//EN"
 "http://www.w3.org/TR/2001/REC-SVG-20010904/DTD/svg10.dtd">
<svg version="1.0" xmlns="http://www.w3.org/2000/svg"
 width="96.000000pt" height="68.000000pt" viewBox="0 0 96.000000 68.000000"
 preserveAspectRatio="xMidYMid meet">
<metadata>
Created by potrace 1.16, written by Peter Selinger 2001-2019
</metadata>
<g transform="translate(0.000000,68.000000) scale(0.100000,-0.100000)"
fill="#000000" stroke="none">
<path d="M357 355 c-12 -27 -42 -66 -79 -100 -41 -38 -58 -61 -54 -72 7 -18
22 -16 171 16 89 19 90 19 111 0 26 -25 44 -24 44 2 0 34 -18 58 -61 80 -45
22 -61 19 -35 -7 9 -9 15 -21 13 -28 -4 -12 -164 -43 -174 -33 -3 4 29 40 73
81 69 65 77 75 65 90 -26 31 -54 20 -74 -29z"/>
</g>
</svg>
