<?xml version="1.0" standalone="no"?>
<!DOCTYPE svg PUBLIC "-//W3C//DTD SVG 20010904//EN"
 "http://www.w3.org/TR/2001/REC-SVG-20010904/DTD/svg10.dtd">
<svg version="1.0" xmlns="http://www.w3.org/2000/svg"
 width="96.000000pt" height="68.000000pt" viewBox="0 0 96.000000 68.000000"
 preserveAspectRatio="xMidYMid meet">
<metadata>
Created by potrace 1.16, written by Peter Selinger 2001-2019
</metadata>
<g transform="translate(0.000000,68.000000) scale(0.100000,-0.100000)"
fill="#000000" stroke="none">
<path d="M258 238 l-3 -33 -77 -9 c-103 -12 -103 -31 -2 -23 l77 6 -7 -55 c-7
-63 0 -104 20 -104 22 0 34 35 34 104 l0 66 59 0 c33 0 63 4 66 10 8 14 -39
23 -86 17 -38 -5 -39 -4 -39 24 0 22 -5 29 -19 29 -15 0 -21 -8 -23 -32z"/>
</g>
</svg>
