<?xml version="1.0" standalone="no"?>
<!DOCTYPE svg PUBLIC "-//W3C//DTD SVG 20010904//EN"
 "http://www.w3.org/TR/2001/REC-SVG-20010904/DTD/svg10.dtd">
<svg version="1.0" xmlns="http://www.w3.org/2000/svg"
 width="96.000000pt" height="68.000000pt" viewBox="0 0 96.000000 68.000000"
 preserveAspectRatio="xMidYMid meet">
<metadata>
Created by potrace 1.16, written by Peter Selinger 2001-2019
</metadata>
<g transform="translate(0.000000,68.000000) scale(0.100000,-0.100000)"
fill="#000000" stroke="none">
<path d="M700 180 c0 -6 3 -10 8 -10 4 0 7 -20 7 -44 0 -24 -3 -42 -7 -40 -4
2 -9 0 -13 -6 -3 -5 1 -10 10 -10 8 0 18 8 22 18 3 9 15 29 25 44 24 34 23 41
-4 33 -18 -5 -20 -4 -8 4 8 6 13 11 10 12 -3 0 -15 2 -27 5 -13 2 -23 -1 -23
-6z"/>
<path d="M500 169 c0 -3 3 -9 7 -13 4 -4 9 -19 11 -33 2 -14 10 -35 18 -47 17
-24 18 -17 3 16 -16 36 2 73 37 76 54 4 38 13 -19 10 -31 -2 -57 -6 -57 -9z"/>
<path d="M575 71 c19 -9 93 -15 84 -7 -2 2 -26 6 -54 10 -34 4 -43 3 -30 -3z"/>
</g>
</svg>
