<?xml version="1.0" standalone="no"?>
<!DOCTYPE svg PUBLIC "-//W3C//DTD SVG 20010904//EN"
 "http://www.w3.org/TR/2001/REC-SVG-20010904/DTD/svg10.dtd">
<svg version="1.0" xmlns="http://www.w3.org/2000/svg"
 width="96.000000pt" height="68.000000pt" viewBox="0 0 96.000000 68.000000"
 preserveAspectRatio="xMidYMid meet">
<metadata>
Created by potrace 1.16, written by Peter Selinger 2001-2019
</metadata>
<g transform="translate(0.000000,68.000000) scale(0.100000,-0.100000)"
fill="#000000" stroke="none">
<path d="M680 111 c14 -12 40 -35 58 -52 19 -16 39 -26 44 -22 7 4 6 10 -4 17
-8 6 -13 16 -11 23 6 17 -34 37 -43 21 -5 -7 -3 -8 6 -3 9 5 11 4 6 -4 -10
-16 -26 -4 -19 14 3 9 -1 15 -10 15 -9 0 -24 3 -34 7 -13 4 -11 0 7 -16z m80
-31 c0 -5 -5 -10 -11 -10 -5 0 -7 5 -4 10 3 6 8 10 11 10 2 0 4 -4 4 -10z"/>
</g>
</svg>
