<?xml version="1.0" standalone="no"?>
<!DOCTYPE svg PUBLIC "-//W3C//DTD SVG 20010904//EN"
 "http://www.w3.org/TR/2001/REC-SVG-20010904/DTD/svg10.dtd">
<svg version="1.0" xmlns="http://www.w3.org/2000/svg"
 width="96.000000pt" height="68.000000pt" viewBox="0 0 96.000000 68.000000"
 preserveAspectRatio="xMidYMid meet">
<metadata>
Created by potrace 1.16, written by Peter Selinger 2001-2019
</metadata>
<g transform="translate(0.000000,68.000000) scale(0.100000,-0.100000)"
fill="#000000" stroke="none">
<path d="M599 583 c0 -5 0 -43 1 -85 1 -76 1 -78 -23 -78 -26 0 -37 28 -37 91
0 25 -4 29 -26 29 -23 0 -25 -3 -20 -22 3 -13 9 -42 12 -64 l6 -42 -62 -7
c-52 -6 -60 -9 -45 -18 14 -7 43 -7 100 1 44 7 123 14 175 18 118 7 143 11
134 26 -5 7 -34 9 -91 5 l-84 -6 6 47 c3 26 8 57 11 70 3 17 -2 25 -21 32 -31
12 -35 12 -36 3z"/>
</g>
</svg>
