<?xml version="1.0" standalone="no"?>
<!DOCTYPE svg PUBLIC "-//W3C//DTD SVG 20010904//EN"
 "http://www.w3.org/TR/2001/REC-SVG-20010904/DTD/svg10.dtd">
<svg version="1.0" xmlns="http://www.w3.org/2000/svg"
 width="96.000000pt" height="68.000000pt" viewBox="0 0 96.000000 68.000000"
 preserveAspectRatio="xMidYMid meet">
<metadata>
Created by potrace 1.16, written by Peter Selinger 2001-2019
</metadata>
<g transform="translate(0.000000,68.000000) scale(0.100000,-0.100000)"
fill="#000000" stroke="none">
<path d="M550 592 c0 -18 33 -52 51 -52 25 0 25 36 0 50 -23 12 -51 13 -51 2z"/>
<path d="M600 528 c-87 -14 -119 -16 -133 -8 -11 6 -20 10 -21 8 -24 -43 -35
-82 -26 -92 11 -11 19 -5 45 39 7 12 43 21 140 35 72 10 133 16 137 13 4 -2 0
-15 -9 -29 l-16 -25 54 20 c30 12 55 21 57 21 1 0 2 4 2 9 0 12 -57 31 -89 30
-14 -1 -78 -10 -141 -21z"/>
</g>
</svg>
