<?xml version="1.0" standalone="no"?>
<!DOCTYPE svg PUBLIC "-//W3C//DTD SVG 20010904//EN"
 "http://www.w3.org/TR/2001/REC-SVG-20010904/DTD/svg10.dtd">
<svg version="1.0" xmlns="http://www.w3.org/2000/svg"
 width="96.000000pt" height="68.000000pt" viewBox="0 0 96.000000 68.000000"
 preserveAspectRatio="xMidYMid meet">
<metadata>
Created by potrace 1.16, written by Peter Selinger 2001-2019
</metadata>
<g transform="translate(0.000000,68.000000) scale(0.100000,-0.100000)"
fill="#000000" stroke="none">
<path d="M238 548 c4 -18 7 -60 7 -93 l0 -60 -65 -11 c-74 -12 -61 -30 15 -21
25 2 45 3 45 0 0 -20 -54 -99 -103 -150 -33 -35 -56 -63 -51 -63 19 0 70 41
111 87 23 26 43 46 46 43 2 -3 0 -52 -5 -110 -10 -113 -6 -150 16 -150 22 0
26 24 26 156 0 68 4 124 9 124 5 0 14 -7 21 -15 16 -19 40 -19 40 -1 0 8 -16
20 -35 27 -45 17 -50 55 -7 65 46 10 53 14 47 24 -3 5 -21 10 -38 10 l-33 0 7
73 c8 77 -1 97 -43 97 -15 0 -16 -5 -10 -32z"/>
</g>
</svg>
