<?xml version="1.0" standalone="no"?>
<!DOCTYPE svg PUBLIC "-//W3C//DTD SVG 20010904//EN"
 "http://www.w3.org/TR/2001/REC-SVG-20010904/DTD/svg10.dtd">
<svg version="1.0" xmlns="http://www.w3.org/2000/svg"
 width="96.000000pt" height="68.000000pt" viewBox="0 0 96.000000 68.000000"
 preserveAspectRatio="xMidYMid meet">
<metadata>
Created by potrace 1.16, written by Peter Selinger 2001-2019
</metadata>
<g transform="translate(0.000000,68.000000) scale(0.100000,-0.100000)"
fill="#000000" stroke="none">
<path d="M615 564 c-33 -7 -100 -15 -150 -16 l-90 -3 3 -115 c3 -107 -6 -170
-33 -233 -13 -30 22 -9 44 27 20 32 41 158 41 247 0 55 0 54 155 65 l95 7 0
-170 c0 -180 -5 -199 -45 -182 -38 15 -39 9 -5 -26 19 -19 42 -35 52 -35 37 0
47 47 49 239 1 101 -2 186 -7 191 -18 16 -50 17 -109 4z"/>
</g>
</svg>
