<?xml version="1.0" standalone="no"?>
<!DOCTYPE svg PUBLIC "-//W3C//DTD SVG 20010904//EN"
 "http://www.w3.org/TR/2001/REC-SVG-20010904/DTD/svg10.dtd">
<svg version="1.0" xmlns="http://www.w3.org/2000/svg"
 width="96.000000pt" height="68.000000pt" viewBox="0 0 96.000000 68.000000"
 preserveAspectRatio="xMidYMid meet">
<metadata>
Created by potrace 1.16, written by Peter Selinger 2001-2019
</metadata>
<g transform="translate(0.000000,68.000000) scale(0.100000,-0.100000)"
fill="#000000" stroke="none">
<path d="M523 493 c2 -37 1 -38 -33 -41 -55 -5 -61 -22 -7 -22 43 0 47 -2 47
-25 0 -23 -3 -25 -50 -25 -31 0 -50 -4 -50 -11 0 -12 150 -5 220 10 33 7 33 8
12 15 -13 4 -39 5 -58 1 -31 -5 -34 -4 -34 19 0 23 5 26 50 32 28 4 50 10 50
15 0 5 -22 9 -50 9 -46 0 -50 2 -50 24 0 21 -16 36 -41 36 -4 0 -7 -17 -6 -37z"/>
</g>
</svg>
