<?xml version="1.0" standalone="no"?>
<!DOCTYPE svg PUBLIC "-//W3C//DTD SVG 20010904//EN"
 "http://www.w3.org/TR/2001/REC-SVG-20010904/DTD/svg10.dtd">
<svg version="1.0" xmlns="http://www.w3.org/2000/svg"
 width="90.000000pt" height="92.000000pt" viewBox="0 0 90.000000 92.000000"
 preserveAspectRatio="xMidYMid meet">
<metadata>
Created by potrace 1.16, written by Peter Selinger 2001-2019
</metadata>
<g transform="translate(0.000000,92.000000) scale(0.100000,-0.100000)"
fill="#000000" stroke="none">
<path d="M367 831 c4 -49 2 -70 -7 -76 -7 -4 -44 -10 -82 -13 -38 -3 -71 -9
-75 -14 -11 -19 23 -29 85 -25 65 5 67 3 56 -39 -5 -18 -16 -23 -60 -29 -73
-9 -69 -35 7 -35 33 0 32 2 18 -37 -10 -31 -12 -31 -98 -38 -48 -4 -94 -11
-102 -15 -26 -17 3 -25 82 -24 l78 1 -19 -27 c-28 -39 -100 -103 -164 -146
-31 -20 -54 -39 -52 -42 10 -10 108 32 158 67 29 22 73 66 98 99 43 59 44 61
102 67 63 8 83 -2 154 -73 112 -110 154 -142 188 -142 43 0 136 19 136 28 0 4
-41 20 -91 36 -65 20 -118 46 -180 88 -49 33 -89 63 -89 68 0 5 46 11 103 12
82 2 102 6 102 18 0 8 -12 20 -26 27 -21 10 -53 9 -173 -7 -82 -11 -152 -20
-157 -20 -8 0 7 46 21 62 3 5 44 13 90 19 106 14 126 23 85 39 -28 11 -81 8
-143 -7 -21 -5 -22 -3 -16 23 4 16 8 30 9 32 2 3 186 31 208 32 4 0 7 6 7 14
0 22 -48 28 -122 15 -37 -7 -71 -9 -74 -6 -4 4 1 26 10 50 21 55 21 54 -14 72
-54 28 -59 23 -53 -54z"/>
<path d="M400 443 c-14 -10 -52 -32 -85 -50 -60 -33 -54 -43 15 -23 25 7 36 7
42 -3 10 -15 10 -57 1 -57 -25 -1 -196 -30 -200 -34 -3 -3 7 -10 23 -17 21 -8
47 -8 96 0 37 6 72 11 79 11 9 0 10 -27 5 -109 -6 -113 -3 -141 19 -141 22 0
35 59 35 160 l0 97 53 7 c28 3 71 6 95 6 48 0 54 12 17 36 -21 14 -34 15 -88
5 -35 -6 -66 -11 -69 -11 -3 0 -5 18 -4 40 0 29 5 40 16 40 8 0 22 4 30 10 12
7 12 12 -4 29 -23 26 -44 26 -76 4z"/>
<path d="M257 197 c-4 -12 -29 -48 -57 -80 -29 -31 -49 -57 -45 -57 39 0 165
96 165 127 0 12 -30 33 -48 33 -6 0 -12 -10 -15 -23z"/>
<path d="M541 163 c72 -68 85 -77 105 -69 23 9 16 53 -12 75 -25 20 -112 51
-141 51 -8 0 14 -26 48 -57z"/>
</g>
</svg>
