<?xml version="1.0" standalone="no"?>
<!DOCTYPE svg PUBLIC "-//W3C//DTD SVG 20010904//EN"
 "http://www.w3.org/TR/2001/REC-SVG-20010904/DTD/svg10.dtd">
<svg version="1.0" xmlns="http://www.w3.org/2000/svg"
 width="96.000000pt" height="68.000000pt" viewBox="0 0 96.000000 68.000000"
 preserveAspectRatio="xMidYMid meet">
<metadata>
Created by potrace 1.16, written by Peter Selinger 2001-2019
</metadata>
<g transform="translate(0.000000,68.000000) scale(0.100000,-0.100000)"
fill="#000000" stroke="none">
<path d="M468 612 c-10 -2 -18 -9 -18 -16 0 -21 30 -55 53 -58 12 -2 -39 -9
-113 -16 -175 -17 -174 -17 -154 -47 12 -19 14 -38 9 -92 -13 -119 -56 -234
-121 -320 -36 -48 -6 -43 46 8 38 37 100 146 100 177 0 6 6 12 14 12 7 0 36
18 64 40 l51 41 -2 -43 c-2 -32 2 -43 13 -43 11 0 16 13 18 47 l3 48 24 -16
c23 -15 45 -12 45 6 0 5 -16 14 -36 22 -32 11 -33 14 -18 25 10 7 26 13 36 13
10 0 18 5 18 10 0 6 -15 10 -34 10 -30 0 -33 3 -29 24 4 18 0 26 -17 31 -28 9
-33 3 -22 -26 13 -34 5 -49 -26 -49 -15 0 -34 -5 -42 -10 -11 -7 -7 -10 18
-10 17 0 32 -4 32 -8 0 -4 -23 -30 -51 -57 l-50 -50 5 35 c3 19 10 64 16 99 5
36 13 68 18 73 5 5 98 15 207 23 109 8 200 17 203 20 3 3 0 11 -7 18 -8 8 -42
11 -102 10 -66 -2 -89 1 -88 10 1 7 1 17 0 23 -2 17 -43 41 -63 36z"/>
<path d="M585 473 c20 -48 18 -53 -13 -53 -17 0 -34 -4 -37 -10 -3 -5 3 -10
14 -10 30 0 26 -9 -21 -57 -48 -49 -31 -59 22 -13 19 16 38 29 42 30 5 0 7
-21 5 -47 -2 -38 1 -48 16 -51 14 -3 17 4 17 48 l0 52 42 -36 c36 -32 48 -36
95 -36 29 0 53 3 53 8 0 4 -31 20 -69 35 -64 26 -111 56 -111 71 0 3 17 6 38
6 20 0 43 4 51 9 23 15 -7 24 -55 16 -40 -6 -45 -4 -44 12 4 36 0 43 -26 43
-21 0 -25 -3 -19 -17z"/>
<path d="M480 226 c-52 -7 -96 -13 -97 -14 -2 -1 -12 -2 -24 -2 -11 0 -17 -4
-14 -10 3 -5 25 -10 48 -10 l42 0 -37 -34 c-45 -41 -81 -67 -133 -95 -35 -18
-37 -21 -15 -21 14 0 49 14 79 30 30 17 58 30 62 30 4 0 10 -18 14 -40 7 -44
21 -58 38 -41 7 7 52 11 114 11 88 0 103 2 103 16 0 9 9 29 21 45 41 57 -6 71
-166 48 -42 -6 -80 -8 -83 -5 -3 4 8 19 24 35 23 23 42 30 89 35 99 11 125 16
125 26 0 13 -69 11 -190 -4z m148 -132 c3 -31 2 -31 -50 -37 -29 -4 -74 -7
-100 -7 -45 0 -48 2 -48 25 0 14 7 28 15 31 24 10 117 22 150 20 26 -1 30 -5
33 -32z"/>
</g>
</svg>
