<?xml version="1.0" standalone="no"?>
<!DOCTYPE svg PUBLIC "-//W3C//DTD SVG 20010904//EN"
 "http://www.w3.org/TR/2001/REC-SVG-20010904/DTD/svg10.dtd">
<svg version="1.0" xmlns="http://www.w3.org/2000/svg"
 width="90.000000pt" height="92.000000pt" viewBox="0 0 90.000000 92.000000"
 preserveAspectRatio="xMidYMid meet">
<metadata>
Created by potrace 1.16, written by Peter Selinger 2001-2019
</metadata>
<g transform="translate(0.000000,92.000000) scale(0.100000,-0.100000)"
fill="#000000" stroke="none">
<path d="M516 768 c3 -35 6 -87 9 -115 4 -58 9 -54 -72 -67 -37 -6 -36 -7 -23
49 9 42 3 57 -33 77 -19 10 -20 8 -14 -26 4 -23 0 -57 -10 -87 -15 -46 -15
-51 0 -66 14 -14 19 -14 56 0 32 13 222 57 246 57 3 0 4 -4 1 -9 -3 -4 0 -16
7 -26 12 -16 15 -16 29 -1 9 9 22 42 28 74 7 31 16 62 22 69 6 7 2 16 -14 27
-36 26 -80 18 -57 -10 7 -9 9 -31 5 -58 l-7 -44 -60 -4 -59 -3 1 45 c0 25 4
69 8 98 7 47 5 55 -13 68 -44 30 -54 20 -50 -48z"/>
<path d="M126 673 c14 -32 30 -62 35 -67 22 -23 6 -35 -61 -46 -59 -10 -69
-14 -59 -26 6 -8 18 -14 25 -14 8 0 14 -1 14 -3 0 -7 49 -195 55 -208 8 -20
-39 -39 -96 -39 -22 0 -39 -4 -39 -8 0 -10 53 -62 63 -62 3 0 23 12 44 26 21
14 67 41 103 59 91 46 109 62 90 74 -10 7 -22 5 -38 -5 -29 -19 -37 -13 -22
17 7 12 23 53 35 91 19 58 20 70 8 80 -12 9 -8 14 19 25 32 14 32 15 13 29
-19 15 -32 14 -82 -1 -21 -7 -23 -4 -23 29 0 48 -13 72 -50 91 -55 29 -62 21
-34 -42z m104 -170 c0 -51 -21 -166 -32 -180 -23 -28 -38 -14 -38 36 0 33 -9
66 -28 104 l-29 56 41 10 c79 17 86 15 86 -26z"/>
<path d="M605 499 c-16 -5 -74 -14 -128 -21 -103 -13 -125 -31 -44 -36 55 -4
60 -17 25 -69 -23 -34 -39 -38 -107 -34 -32 3 -33 2 -26 -26 4 -15 9 -65 10
-111 1 -47 7 -88 14 -95 21 -21 31 13 31 104 l0 86 31 7 c17 3 35 6 40 6 5 0
9 -38 9 -84 0 -60 4 -87 14 -95 19 -16 24 3 28 102 2 83 11 97 56 97 27 0 32
-18 32 -126 0 -52 4 -94 9 -94 13 0 31 81 31 137 0 86 6 94 59 91 l46 -3 3
-66 c2 -36 -2 -78 -8 -94 -10 -25 -14 -27 -51 -22 l-40 5 15 -24 c9 -13 23
-35 32 -49 20 -31 44 -32 73 -1 17 18 25 45 35 123 7 55 17 106 21 112 7 13
-18 47 -47 62 -11 6 -60 2 -140 -11 -68 -11 -130 -20 -138 -20 -8 0 1 16 24
39 29 29 35 41 25 47 -9 5 18 13 70 21 47 7 87 15 89 18 3 2 -1 11 -8 20 -14
17 -39 18 -85 4z"/>
</g>
</svg>
