<?xml version="1.0" standalone="no"?>
<!DOCTYPE svg PUBLIC "-//W3C//DTD SVG 20010904//EN"
 "http://www.w3.org/TR/2001/REC-SVG-20010904/DTD/svg10.dtd">
<svg version="1.0" xmlns="http://www.w3.org/2000/svg"
 width="96.000000pt" height="68.000000pt" viewBox="0 0 96.000000 68.000000"
 preserveAspectRatio="xMidYMid meet">
<metadata>
Created by potrace 1.16, written by Peter Selinger 2001-2019
</metadata>
<g transform="translate(0.000000,68.000000) scale(0.100000,-0.100000)"
fill="#000000" stroke="none">
<path d="M424 618 c3 -18 8 -54 11 -80 5 -38 10 -48 25 -48 12 0 21 10 25 29
6 28 8 29 86 35 55 5 79 11 76 19 -4 14 -40 14 -111 2 l-49 -8 6 31 c7 34 -11
52 -53 52 -18 0 -20 -5 -16 -32z"/>
</g>
</svg>
