<?xml version="1.0" standalone="no"?>
<!DOCTYPE svg PUBLIC "-//W3C//DTD SVG 20010904//EN"
 "http://www.w3.org/TR/2001/REC-SVG-20010904/DTD/svg10.dtd">
<svg version="1.0" xmlns="http://www.w3.org/2000/svg"
 width="96.000000pt" height="68.000000pt" viewBox="0 0 96.000000 68.000000"
 preserveAspectRatio="xMidYMid meet">
<metadata>
Created by potrace 1.16, written by Peter Selinger 2001-2019
</metadata>
<g transform="translate(0.000000,68.000000) scale(0.100000,-0.100000)"
fill="#000000" stroke="none">
<path d="M450 424 c0 -3 5 -14 10 -25 10 -18 7 -19 -57 -21 -37 -1 -88 -2
-112 -3 -40 0 -45 -3 -62 -38 -11 -21 -17 -42 -14 -47 13 -20 36 -9 50 23 l14
34 178 16 c216 21 253 21 253 4 0 -7 -5 -18 -12 -25 -16 -16 -2 -16 58 -1 49
13 51 23 12 52 -24 18 -32 18 -136 7 -107 -12 -110 -12 -131 9 -19 19 -51 29
-51 15z"/>
</g>
</svg>
