<?xml version="1.0" standalone="no"?>
<!DOCTYPE svg PUBLIC "-//W3C//DTD SVG 20010904//EN"
 "http://www.w3.org/TR/2001/REC-SVG-20010904/DTD/svg10.dtd">
<svg version="1.0" xmlns="http://www.w3.org/2000/svg"
 width="96.000000pt" height="68.000000pt" viewBox="0 0 96.000000 68.000000"
 preserveAspectRatio="xMidYMid meet">
<metadata>
Created by potrace 1.16, written by Peter Selinger 2001-2019
</metadata>
<g transform="translate(0.000000,68.000000) scale(0.100000,-0.100000)"
fill="#000000" stroke="none">
<path d="M550 237 c0 -22 -5 -25 -52 -31 -29 -3 -69 -6 -88 -7 l-35 -1 30 -13
c27 -13 68 -12 118 2 10 2 17 -1 17 -10 0 -25 -40 -67 -94 -98 -41 -25 -45
-29 -21 -24 52 11 95 36 125 74 17 19 30 41 30 47 0 19 18 21 145 23 66 1 121
4 124 7 14 14 -24 19 -130 17 -100 -3 -119 -1 -119 12 0 8 -4 15 -9 15 -5 0
-16 3 -25 6 -12 5 -16 0 -16 -19z"/>
<path d="M650 135 c35 -37 125 -105 139 -105 8 0 11 12 9 32 -3 28 -10 36 -58
59 -30 15 -68 30 -85 34 l-30 7 25 -27z"/>
</g>
</svg>
