<?xml version="1.0" standalone="no"?>
<!DOCTYPE svg PUBLIC "-//W3C//DTD SVG 20010904//EN"
 "http://www.w3.org/TR/2001/REC-SVG-20010904/DTD/svg10.dtd">
<svg version="1.0" xmlns="http://www.w3.org/2000/svg"
 width="96.000000pt" height="68.000000pt" viewBox="0 0 96.000000 68.000000"
 preserveAspectRatio="xMidYMid meet">
<metadata>
Created by potrace 1.16, written by Peter Selinger 2001-2019
</metadata>
<g transform="translate(0.000000,68.000000) scale(0.100000,-0.100000)"
fill="#000000" stroke="none">
<path d="M215 559 c48 -58 87 -75 99 -42 10 25 -25 54 -75 60 l-44 6 20 -24z"/>
<path d="M503 551 c-45 -9 -85 -19 -89 -23 -11 -12 124 -8 193 5 34 7 64 17
65 22 5 16 -80 14 -169 -4z"/>
<path d="M560 451 c-69 -10 -151 -21 -182 -25 -86 -11 -75 -30 12 -22 69 6 70
6 70 -18 0 -13 -9 -35 -20 -49 -39 -49 -25 -61 50 -41 30 8 74 14 99 14 l44 0
-6 -60 c-7 -66 -29 -118 -54 -127 -9 -4 -30 -1 -46 5 -45 17 -45 7 -3 -37 26
-27 44 -37 55 -33 31 13 61 37 61 49 0 6 4 13 8 15 8 3 52 161 52 184 0 24
-51 34 -137 27 -91 -7 -93 -5 -55 39 8 10 12 24 9 33 -5 11 1 15 26 16 82 1
247 16 253 22 27 27 -79 30 -236 8z"/>
<path d="M130 442 c0 -18 73 -72 97 -72 31 0 31 34 1 54 -29 17 -98 30 -98 18z"/>
<path d="M271 296 c-24 -38 -105 -116 -121 -116 -13 0 -13 -33 2 -65 21 -46
41 -30 101 85 31 60 57 114 57 120 0 20 -19 9 -39 -24z"/>
</g>
</svg>
