<?xml version="1.0" standalone="no"?>
<!DOCTYPE svg PUBLIC "-//W3C//DTD SVG 20010904//EN"
 "http://www.w3.org/TR/2001/REC-SVG-20010904/DTD/svg10.dtd">
<svg version="1.0" xmlns="http://www.w3.org/2000/svg"
 width="96.000000pt" height="68.000000pt" viewBox="0 0 96.000000 68.000000"
 preserveAspectRatio="xMidYMid meet">
<metadata>
Created by potrace 1.16, written by Peter Selinger 2001-2019
</metadata>
<g transform="translate(0.000000,68.000000) scale(0.100000,-0.100000)"
fill="#000000" stroke="none">
<path d="M659 400 l-36 -40 -36 15 c-21 8 -37 13 -37 11 0 -3 36 -32 79 -66
79 -59 111 -73 111 -47 0 18 -25 40 -74 64 l-39 20 47 18 c54 21 62 30 46 50
-17 21 -21 19 -61 -25z"/>
<path d="M494 412 c-6 -4 -16 -32 -21 -62 -6 -30 -13 -62 -17 -70 -3 -8 -2
-22 3 -30 8 -12 14 -12 33 -2 34 19 96 75 75 68 -11 -3 -30 -9 -44 -12 l-26
-7 5 62 c2 33 4 61 4 61 -1 0 -6 -4 -12 -8z"/>
</g>
</svg>
