<?xml version="1.0" standalone="no"?>
<!DOCTYPE svg PUBLIC "-//W3C//DTD SVG 20010904//EN"
 "http://www.w3.org/TR/2001/REC-SVG-20010904/DTD/svg10.dtd">
<svg version="1.0" xmlns="http://www.w3.org/2000/svg"
 width="90.000000pt" height="92.000000pt" viewBox="0 0 90.000000 92.000000"
 preserveAspectRatio="xMidYMid meet">
<metadata>
Created by potrace 1.16, written by Peter Selinger 2001-2019
</metadata>
<g transform="translate(0.000000,92.000000) scale(0.100000,-0.100000)"
fill="#000000" stroke="none">
<path d="M202 780 c-73 -15 -136 -30 -139 -34 -3 -3 7 -11 21 -18 22 -10 42
-9 109 5 45 9 117 20 160 23 78 7 91 16 60 40 -25 18 -57 16 -211 -16z"/>
<path d="M586 746 c4 -25 3 -78 -1 -120 l-7 -75 -36 -6 c-91 -15 -94 -16 -81
-31 13 -16 47 -18 83 -4 31 11 31 13 7 -83 -31 -121 -80 -214 -151 -290 -34
-37 -61 -69 -59 -71 2 -2 23 5 47 16 92 44 175 175 218 346 13 51 26 98 29
103 4 5 28 9 56 9 l49 0 0 -47 c-1 -74 -35 -253 -58 -307 -23 -51 -23 -51 -96
-29 -15 4 -12 -4 15 -42 39 -55 50 -61 79 -45 45 24 80 141 105 350 4 30 14
70 23 89 15 33 15 34 -12 57 -32 28 -44 29 -108 9 -47 -14 -48 -14 -48 8 0 12
7 54 15 92 l15 70 -25 23 c-15 12 -35 22 -45 22 -17 0 -19 -5 -14 -44z"/>
<path d="M370 675 c-5 -14 -10 -31 -10 -37 0 -7 -10 -31 -21 -56 l-22 -44 48
-48 c51 -51 65 -55 65 -15 0 16 -11 30 -37 46 -21 12 -40 24 -42 25 -2 2 15
27 38 55 45 57 46 65 13 87 -20 13 -22 12 -32 -13z"/>
<path d="M236 663 c-2 -10 -8 -34 -12 -53 -3 -19 -14 -49 -22 -67 l-15 -32 47
-46 c47 -46 66 -50 66 -15 0 17 -22 39 -64 65 -15 9 -13 16 19 62 38 56 42 72
23 91 -17 17 -36 15 -42 -5z"/>
<path d="M107 663 c-3 -4 -8 -28 -12 -53 -4 -25 -16 -62 -26 -82 l-19 -38 52
-50 c29 -27 56 -50 60 -50 10 0 20 38 13 50 -4 6 -24 19 -46 30 -21 11 -39 25
-39 31 0 6 17 38 37 71 29 47 35 63 26 76 -11 19 -39 28 -46 15z"/>
<path d="M323 394 c-24 -7 -77 -18 -118 -25 -88 -15 -94 -33 -11 -37 l57 -3
-3 -61 -3 -61 -45 -13 c-25 -8 -71 -14 -102 -14 -32 0 -58 -4 -58 -10 0 -16
54 -60 73 -60 10 0 28 6 40 14 12 8 82 35 155 62 81 29 132 52 132 60 0 19
-17 18 -84 -6 l-57 -19 3 61 3 62 50 11 c31 6 50 15 50 24 0 22 -37 29 -82 15z"/>
</g>
</svg>
