<?xml version="1.0" standalone="no"?>
<!DOCTYPE svg PUBLIC "-//W3C//DTD SVG 20010904//EN"
 "http://www.w3.org/TR/2001/REC-SVG-20010904/DTD/svg10.dtd">
<svg version="1.0" xmlns="http://www.w3.org/2000/svg"
 width="96.000000pt" height="68.000000pt" viewBox="0 0 96.000000 68.000000"
 preserveAspectRatio="xMidYMid meet">
<metadata>
Created by potrace 1.16, written by Peter Selinger 2001-2019
</metadata>
<g transform="translate(0.000000,68.000000) scale(0.100000,-0.100000)"
fill="#000000" stroke="none">
<path d="M253 557 c-62 -11 -113 -24 -113 -28 0 -17 53 -21 118 -11 37 6 102
14 145 18 78 7 92 15 58 34 -27 14 -78 11 -208 -13z"/>
<path d="M615 497 c-1 -81 -10 -114 -32 -114 -54 1 -83 -4 -83 -14 0 -8 17 -9
50 -6 59 7 60 5 24 -84 -32 -78 -52 -109 -118 -176 -55 -58 -55 -60 -4 -39 73
31 160 154 188 269 11 42 16 47 46 53 57 11 64 3 58 -65 -7 -75 -39 -190 -59
-210 -11 -12 -21 -12 -50 -4 -19 6 -35 9 -35 6 0 -10 65 -73 75 -73 17 0 60
51 73 85 7 17 21 75 33 130 12 55 23 110 26 122 8 34 -34 49 -95 35 -26 -5
-48 -9 -50 -7 -2 2 2 31 8 66 10 57 10 64 -6 76 -38 28 -49 17 -49 -50z"/>
<path d="M414 462 c-8 -20 -19 -45 -25 -55 -7 -13 -7 -23 2 -33 21 -26 69 -55
78 -49 17 10 1 33 -30 44 -37 13 -37 30 1 66 35 34 38 51 9 58 -17 5 -23 -2
-35 -31z"/>
<path d="M187 474 c-4 -4 -7 -19 -7 -33 0 -14 -9 -40 -19 -58 l-20 -32 45 -36
c40 -33 64 -39 64 -15 0 5 -18 19 -40 30 -22 11 -40 24 -40 28 0 4 16 27 35
51 35 44 42 61 26 61 -5 0 -16 2 -23 5 -8 3 -17 2 -21 -1z"/>
<path d="M300 453 c-5 -16 -17 -41 -25 -57 -16 -29 -15 -30 17 -58 34 -29 73
-38 66 -15 -2 6 -18 19 -36 27 -40 19 -40 28 -1 68 19 19 29 38 25 47 -9 24
-36 17 -46 -12z"/>
<path d="M355 274 c-27 -7 -69 -14 -92 -14 -24 0 -43 -4 -43 -10 0 -5 23 -10
51 -10 l50 0 -3 -47 -3 -48 -60 -13 c-33 -6 -72 -10 -87 -7 -19 3 -28 0 -28
-8 0 -36 50 -48 98 -23 15 7 75 26 134 42 60 16 108 33 108 38 0 8 -24 5 -92
-10 -27 -6 -28 -5 -28 39 l0 45 43 7 c54 9 66 17 41 26 -25 10 -30 10 -89 -7z"/>
</g>
</svg>
