<?xml version="1.0" standalone="no"?>
<!DOCTYPE svg PUBLIC "-//W3C//DTD SVG 20010904//EN"
 "http://www.w3.org/TR/2001/REC-SVG-20010904/DTD/svg10.dtd">
<svg version="1.0" xmlns="http://www.w3.org/2000/svg"
 width="96.000000pt" height="68.000000pt" viewBox="0 0 96.000000 68.000000"
 preserveAspectRatio="xMidYMid meet">
<metadata>
Created by potrace 1.16, written by Peter Selinger 2001-2019
</metadata>
<g transform="translate(0.000000,68.000000) scale(0.100000,-0.100000)"
fill="#000000" stroke="none">
<path d="M573 253 c-7 -2 -13 -13 -13 -23 0 -21 -44 -31 -142 -34 -32 -2 -61
-5 -64 -9 -12 -12 49 -19 114 -13 l67 6 -35 -31 c-19 -17 -57 -47 -85 -66 -33
-23 -41 -32 -25 -28 43 13 98 44 136 78 l37 32 -6 -65 c-6 -67 2 -98 22 -86 6
4 11 36 11 77 0 38 3 69 7 69 3 0 32 -25 64 -55 55 -53 59 -55 113 -55 68 0
79 13 23 30 -52 15 -121 50 -165 83 l-34 25 44 7 c23 3 72 5 107 3 42 -2 65 1
68 9 6 16 -48 26 -109 18 -111 -14 -107 -14 -105 8 2 21 -10 29 -30 20z"/>
</g>
</svg>
