<?xml version="1.0" standalone="no"?>
<!DOCTYPE svg PUBLIC "-//W3C//DTD SVG 20010904//EN"
 "http://www.w3.org/TR/2001/REC-SVG-20010904/DTD/svg10.dtd">
<svg version="1.0" xmlns="http://www.w3.org/2000/svg"
 width="96.000000pt" height="68.000000pt" viewBox="0 0 96.000000 68.000000"
 preserveAspectRatio="xMidYMid meet">
<metadata>
Created by potrace 1.16, written by Peter Selinger 2001-2019
</metadata>
<g transform="translate(0.000000,68.000000) scale(0.100000,-0.100000)"
fill="#000000" stroke="none">
<path d="M256 601 c-3 -4 -1 -23 4 -42 6 -19 10 -57 10 -86 l0 -52 -37 -7
c-104 -18 -110 -22 -35 -23 l72 -1 0 -49 0 -48 -80 -37 c-43 -20 -84 -36 -90
-36 -16 0 -12 -27 6 -34 29 -11 44 -6 99 31 31 20 57 34 60 31 3 -2 1 -31 -3
-64 -7 -58 -8 -59 -40 -59 -17 0 -32 -2 -32 -5 0 -9 78 -70 89 -70 22 0 31 42
31 139 0 97 1 100 28 120 l27 21 -27 -6 c-27 -6 -28 -5 -28 35 0 34 3 41 19
41 11 0 32 5 48 11 l28 11 -23 9 c-13 5 -35 6 -49 3 -24 -7 -25 -6 -18 42 4
27 11 57 16 66 14 26 11 32 -20 51 -32 19 -47 21 -55 8z"/>
</g>
</svg>
