<?xml version="1.0" standalone="no"?>
<!DOCTYPE svg PUBLIC "-//W3C//DTD SVG 20010904//EN"
 "http://www.w3.org/TR/2001/REC-SVG-20010904/DTD/svg10.dtd">
<svg version="1.0" xmlns="http://www.w3.org/2000/svg"
 width="90.000000pt" height="92.000000pt" viewBox="0 0 90.000000 92.000000"
 preserveAspectRatio="xMidYMid meet">
<metadata>
Created by potrace 1.16, written by Peter Selinger 2001-2019
</metadata>
<g transform="translate(0.000000,92.000000) scale(0.100000,-0.100000)"
fill="#000000" stroke="none">
<path d="M210 820 c0 -31 -44 -112 -95 -175 -25 -30 -41 -55 -36 -55 11 0 106
74 116 90 3 5 26 10 51 10 l45 0 -36 -69 c-41 -78 -48 -81 -151 -82 -35 -1
-64 -3 -64 -5 0 -3 7 -15 15 -27 8 -13 20 -57 26 -98 6 -42 14 -81 18 -87 5
-8 34 -7 105 4 76 11 102 12 113 3 20 -17 31 -3 53 77 23 82 50 144 61 144 5
0 27 16 49 36 22 20 44 33 51 28 6 -3 44 1 84 11 105 26 109 23 101 -79 -7
-99 -25 -161 -46 -160 -8 1 -25 4 -37 8 -21 7 -20 4 10 -43 35 -55 46 -60 69
-33 29 32 38 60 57 174 11 62 22 123 26 135 5 16 1 25 -20 39 -26 17 -31 17
-118 0 -51 -10 -100 -20 -109 -23 -11 -3 0 21 34 72 l50 77 -23 24 c-12 13
-28 24 -34 24 -6 0 -19 -26 -28 -57 -16 -57 -67 -153 -111 -208 -22 -27 -22
-27 -55 -10 -32 16 -61 16 -106 -1 -15 -6 -12 2 15 36 19 24 50 59 68 78 19
19 31 39 28 47 -9 24 -52 28 -101 10 -25 -10 -47 -16 -50 -13 -2 2 7 20 20 40
l25 37 -26 20 c-33 26 -44 26 -44 1z m130 -321 c0 -33 -3 -40 -16 -35 -9 3
-29 6 -46 6 -25 0 -29 3 -25 20 3 11 0 23 -6 27 -12 8 27 20 71 22 19 1 22 -4
22 -40z m-138 -5 c14 -31 0 -44 -49 -44 -26 0 -33 4 -33 20 0 11 -1 23 -2 27
-3 6 26 16 65 22 4 0 13 -11 19 -25z m128 -66 c-1 -43 -13 -58 -46 -58 -31 0
-34 3 -34 29 0 30 11 37 58 40 12 0 22 -5 22 -11z m-122 -40 c-3 -30 -6 -33
-40 -36 -32 -3 -38 0 -38 17 0 10 -3 26 -6 35 -5 13 2 16 41 16 46 0 46 0 43
-32z"/>
<path d="M530 513 c-21 -9 -48 -13 -70 -9 l-35 5 3 -127 c1 -70 5 -142 8 -160
8 -48 56 -98 116 -118 99 -32 263 -1 302 58 15 22 14 27 -4 63 -11 22 -20 47
-20 57 0 38 -18 25 -25 -18 -4 -28 -16 -56 -29 -69 -43 -43 -189 -56 -260 -23
-31 14 -46 48 -46 108 l0 48 43 7 c62 10 78 15 72 26 -3 5 5 37 19 71 20 49
23 65 13 74 -21 20 -51 23 -87 7z m24 -80 c-8 -57 -10 -61 -52 -69 -31 -6 -32
-5 -32 27 0 71 11 85 67 88 21 1 22 -2 17 -46z"/>
<path d="M321 302 c1 -15 55 -96 66 -99 19 -7 26 36 9 61 -14 22 -77 53 -75
38z"/>
<path d="M32 223 c-26 -51 -30 -67 -22 -88 13 -34 30 -28 52 16 19 36 22 80 9
114 -7 17 -13 11 -39 -42z"/>
<path d="M220 273 c0 -14 51 -93 61 -93 14 0 22 27 15 53 -7 28 -76 64 -76 40z"/>
<path d="M135 243 c8 -36 37 -86 50 -87 6 -1 11 15 13 35 3 30 -2 41 -24 58
-36 28 -48 27 -39 -6z"/>
</g>
</svg>
