<?xml version="1.0" standalone="no"?>
<!DOCTYPE svg PUBLIC "-//W3C//DTD SVG 20010904//EN"
 "http://www.w3.org/TR/2001/REC-SVG-20010904/DTD/svg10.dtd">
<svg version="1.0" xmlns="http://www.w3.org/2000/svg"
 width="96.000000pt" height="68.000000pt" viewBox="0 0 96.000000 68.000000"
 preserveAspectRatio="xMidYMid meet">
<metadata>
Created by potrace 1.16, written by Peter Selinger 2001-2019
</metadata>
<g transform="translate(0.000000,68.000000) scale(0.100000,-0.100000)"
fill="#000000" stroke="none">
<path d="M388 159 c24 -39 52 -50 52 -21 0 22 -15 36 -49 47 l-25 7 22 -33z"/>
<path d="M110 131 c-23 -45 -25 -67 -9 -77 18 -11 40 20 46 63 7 56 -12 63
-37 14z"/>
<path d="M297 138 c21 -37 38 -45 47 -23 7 18 -27 55 -50 55 -14 0 -14 -4 3
-32z"/>
<path d="M213 124 c24 -39 40 -45 45 -19 5 21 -26 55 -50 55 -17 0 -17 -2 5
-36z"/>
</g>
</svg>
