<?xml version="1.0" standalone="no"?>
<!DOCTYPE svg PUBLIC "-//W3C//DTD SVG 20010904//EN"
 "http://www.w3.org/TR/2001/REC-SVG-20010904/DTD/svg10.dtd">
<svg version="1.0" xmlns="http://www.w3.org/2000/svg"
 width="96.000000pt" height="68.000000pt" viewBox="0 0 96.000000 68.000000"
 preserveAspectRatio="xMidYMid meet">
<metadata>
Created by potrace 1.16, written by Peter Selinger 2001-2019
</metadata>
<g transform="translate(0.000000,68.000000) scale(0.100000,-0.100000)"
fill="#000000" stroke="none">
<path d="M355 539 c-16 -6 -66 -11 -111 -12 l-81 -2 15 -35 c12 -29 12 -49 2
-124 -10 -73 -10 -90 1 -97 8 -5 21 -6 29 -3 8 3 48 11 88 17 39 6 72 15 72
20 0 5 -34 6 -77 2 l-78 -7 3 99 c2 54 5 99 6 100 0 1 30 4 66 7 121 11 168
24 134 37 -24 10 -32 9 -69 -2z"/>
</g>
</svg>
