<?xml version="1.0" standalone="no"?>
<!DOCTYPE svg PUBLIC "-//W3C//DTD SVG 20010904//EN"
 "http://www.w3.org/TR/2001/REC-SVG-20010904/DTD/svg10.dtd">
<svg version="1.0" xmlns="http://www.w3.org/2000/svg"
 width="96.000000pt" height="68.000000pt" viewBox="0 0 96.000000 68.000000"
 preserveAspectRatio="xMidYMid meet">
<metadata>
Created by potrace 1.16, written by Peter Selinger 2001-2019
</metadata>
<g transform="translate(0.000000,68.000000) scale(0.100000,-0.100000)"
fill="#000000" stroke="none">
<path d="M575 344 c-33 -8 -75 -11 -93 -8 l-33 5 6 -43 c4 -27 1 -67 -10 -108
-25 -97 -27 -114 -16 -130 9 -13 12 -12 25 5 9 11 19 37 22 58 5 29 11 37 28
37 11 0 52 3 89 7 l68 6 -3 -39 c-3 -38 -4 -39 -41 -39 -20 0 -37 -2 -36 -5 0
-3 19 -20 41 -38 l41 -33 21 21 c19 18 22 37 27 158 3 75 3 141 -1 145 -13 15
-75 15 -135 1z m85 -43 c0 -27 -2 -28 -61 -35 -103 -10 -109 -9 -109 19 0 19
7 26 28 31 15 3 32 7 37 9 6 2 31 4 58 4 45 1 47 0 47 -28z m0 -75 c0 -21 -5
-24 -57 -30 -32 -4 -70 -9 -85 -12 -26 -5 -28 -3 -28 25 l0 30 68 4 c37 2 75
4 85 5 12 1 17 -5 17 -22z"/>
</g>
</svg>
