<?xml version="1.0" standalone="no"?>
<!DOCTYPE svg PUBLIC "-//W3C//DTD SVG 20010904//EN"
 "http://www.w3.org/TR/2001/REC-SVG-20010904/DTD/svg10.dtd">
<svg version="1.0" xmlns="http://www.w3.org/2000/svg"
 width="90.000000pt" height="92.000000pt" viewBox="0 0 90.000000 92.000000"
 preserveAspectRatio="xMidYMid meet">
<metadata>
Created by potrace 1.16, written by Peter Selinger 2001-2019
</metadata>
<g transform="translate(0.000000,92.000000) scale(0.100000,-0.100000)"
fill="#000000" stroke="none">
<path d="M360 873 c1 -5 16 -30 35 -58 l34 -50 -62 -6 c-119 -12 -177 -10
-177 6 0 33 -18 11 -50 -61 -30 -69 -32 -77 -17 -91 21 -22 41 -6 62 51 l17
43 61 6 c34 3 64 4 66 2 11 -11 -28 -71 -77 -120 -44 -45 -50 -54 -28 -45 39
14 105 62 145 104 33 34 34 36 17 55 -17 19 -17 20 21 26 21 4 46 9 56 12 15
4 17 -4 17 -60 0 -48 4 -68 17 -78 20 -17 161 -24 183 -10 29 20 -7 36 -80 36
-37 0 -72 4 -76 8 -4 4 -3 26 3 48 9 33 8 41 -6 48 -22 13 38 23 106 19 l53
-3 -25 -48 c-20 -41 -21 -48 -7 -42 9 4 37 14 62 22 75 26 81 37 38 80 l-37
37 -88 -12 c-48 -7 -105 -16 -126 -19 -32 -5 -36 -3 -31 11 11 28 -5 65 -36
81 -31 16 -70 20 -70 8z"/>
<path d="M450 540 c-52 -10 -115 -19 -140 -19 -48 -1 -80 -15 -66 -28 4 -4 32
-10 62 -13 l55 -5 -36 -43 c-21 -23 -55 -52 -76 -63 -39 -19 -50 -44 -28 -66
7 -7 28 -5 72 9 34 10 73 18 87 16 21 -3 25 -9 28 -40 4 -41 1 -42 -91 -53
-50 -6 -56 -9 -46 -22 10 -11 29 -14 76 -11 67 3 73 -2 65 -49 -4 -20 -11 -22
-120 -28 -164 -9 -165 -9 -170 -22 -8 -27 49 -36 148 -24 52 7 189 15 303 18
114 3 210 9 212 13 3 4 -5 16 -16 26 -24 22 -70 24 -216 10 l-93 -9 0 36 c0
31 4 36 28 41 15 3 53 10 85 16 62 12 71 24 33 42 -18 8 -37 8 -70 -1 -74 -18
-79 -16 -71 25 4 25 2 39 -6 44 -6 5 18 14 57 23 l68 16 35 -31 c33 -29 35
-29 48 -12 18 25 16 40 -9 64 -24 22 -127 64 -136 55 -3 -3 5 -15 17 -27 18
-16 20 -23 10 -28 -17 -9 -241 -42 -246 -36 -2 2 22 24 54 48 33 25 57 51 55
60 -2 12 19 18 99 31 55 8 104 18 107 22 10 10 -29 35 -52 34 -12 -1 -64 -10
-116 -19z"/>
</g>
</svg>
