<?xml version="1.0" standalone="no"?>
<!DOCTYPE svg PUBLIC "-//W3C//DTD SVG 20010904//EN"
 "http://www.w3.org/TR/2001/REC-SVG-20010904/DTD/svg10.dtd">
<svg version="1.0" xmlns="http://www.w3.org/2000/svg"
 width="96.000000pt" height="68.000000pt" viewBox="0 0 96.000000 68.000000"
 preserveAspectRatio="xMidYMid meet">
<metadata>
Created by potrace 1.16, written by Peter Selinger 2001-2019
</metadata>
<g transform="translate(0.000000,68.000000) scale(0.100000,-0.100000)"
fill="#000000" stroke="none">
<path d="M445 211 c4 -23 1 -33 -10 -37 -8 -4 -15 -10 -15 -16 0 -5 5 -6 10
-3 6 3 10 -3 10 -13 0 -11 9 -22 20 -25 16 -4 20 0 20 17 0 12 5 27 12 34 9 9
9 12 1 12 -7 0 -13 12 -15 27 -2 17 -10 29 -21 31 -15 3 -17 -2 -12 -27z"/>
<path d="M517 183 c-17 -16 -4 -25 31 -19 20 3 45 6 55 7 9 0 15 4 12 10 -7
10 -88 13 -98 2z"/>
<path d="M380 166 c0 -2 7 -6 15 -10 8 -3 15 -1 15 4 0 6 -7 10 -15 10 -8 0
-15 -2 -15 -4z"/>
<path d="M444 96 c-3 -9 -10 -13 -15 -10 -5 3 -9 0 -9 -5 0 -6 7 -11 15 -11 8
0 15 6 15 13 0 8 3 8 8 2 8 -12 216 -14 227 -3 4 4 17 3 28 -3 15 -9 18 -8 12
2 -6 9 -3 10 11 5 14 -5 16 -4 8 4 -17 17 -84 17 -95 0 -5 -10 -9 -11 -9 -3 0
9 -20 11 -72 7 -40 -3 -79 -7 -85 -9 -7 -2 -12 1 -10 7 3 17 -22 21 -29 4z"/>
<path d="M369 85 c-3 -2 -37 -5 -77 -7 -45 -1 -71 -6 -69 -13 2 -5 17 -9 33
-7 16 2 57 4 92 4 45 1 62 5 62 15 0 12 -31 19 -41 8z m28 -11 c-3 -3 -12 -4
-19 -1 -8 3 -5 6 6 6 11 1 17 -2 13 -5z"/>
<path d="M190 70 c0 -5 5 -10 11 -10 5 0 7 5 4 10 -3 6 -8 10 -11 10 -2 0 -4
-4 -4 -10z"/>
</g>
</svg>
