<?xml version="1.0" standalone="no"?>
<!DOCTYPE svg PUBLIC "-//W3C//DTD SVG 20010904//EN"
 "http://www.w3.org/TR/2001/REC-SVG-20010904/DTD/svg10.dtd">
<svg version="1.0" xmlns="http://www.w3.org/2000/svg"
 width="90.000000pt" height="92.000000pt" viewBox="0 0 90.000000 92.000000"
 preserveAspectRatio="xMidYMid meet">
<metadata>
Created by potrace 1.16, written by Peter Selinger 2001-2019
</metadata>
<g transform="translate(0.000000,92.000000) scale(0.100000,-0.100000)"
fill="#000000" stroke="none">
<path d="M176 841 c-4 -5 -2 -20 3 -34 5 -14 13 -67 17 -120 8 -108 15 -98
-90 -116 -67 -12 -77 -18 -56 -32 9 -6 44 -7 83 -4 l67 6 0 -58 c0 -32 -4 -63
-8 -69 -9 -13 -115 -75 -160 -93 -38 -16 -41 -45 -7 -67 18 -12 27 -7 92 47
l73 61 0 -65 c0 -35 -3 -79 -6 -96 -6 -29 -9 -31 -49 -31 l-43 0 54 -56 c31
-31 56 -55 58 -53 34 45 36 56 36 193 l0 140 32 33 c23 24 28 33 16 33 -9 0
-20 -4 -23 -10 -15 -24 -25 -6 -25 45 l0 55 45 11 c25 6 48 16 51 21 15 24
-40 40 -77 24 -18 -8 -18 -12 -4 113 3 24 10 50 16 57 14 17 -1 39 -42 60 -32
16 -46 18 -53 5z"/>
<path d="M554 712 c-28 -26 -81 -65 -118 -87 -68 -39 -75 -57 -14 -36 41 15
48 4 48 -76 0 -69 6 -64 -98 -84 -34 -6 -65 -15 -67 -19 -3 -4 9 -13 26 -21
25 -10 41 -10 75 -1 25 7 48 12 52 12 4 0 7 -42 7 -93 1 -110 14 -143 72 -175
86 -47 248 -36 301 21 21 23 22 25 7 68 -8 24 -17 62 -21 84 l-6 40 -18 -64
c-12 -41 -27 -71 -41 -82 -49 -37 -182 -31 -223 10 -18 19 -21 34 -23 115 l-2
94 63 11 c34 6 97 14 139 17 85 8 99 22 47 49 -29 15 -37 14 -132 -10 -56 -14
-103 -23 -106 -21 -2 3 1 29 8 58 10 51 10 54 -14 74 l-25 22 70 31 c38 17 73
31 78 31 5 0 15 7 22 16 11 14 10 20 -14 40 -16 13 -31 24 -35 24 -4 -1 -30
-22 -58 -48z"/>
</g>
</svg>
