<?xml version="1.0" standalone="no"?>
<!DOCTYPE svg PUBLIC "-//W3C//DTD SVG 20010904//EN"
 "http://www.w3.org/TR/2001/REC-SVG-20010904/DTD/svg10.dtd">
<svg version="1.0" xmlns="http://www.w3.org/2000/svg"
 width="90.000000pt" height="92.000000pt" viewBox="0 0 90.000000 92.000000"
 preserveAspectRatio="xMidYMid meet">
<metadata>
Created by potrace 1.16, written by Peter Selinger 2001-2019
</metadata>
<g transform="translate(0.000000,92.000000) scale(0.100000,-0.100000)"
fill="#000000" stroke="none">
<path d="M475 758 c-50 -12 -120 -20 -187 -21 -60 -1 -108 -4 -108 -5 0 -2 9
-15 19 -28 12 -15 23 -55 31 -112 12 -94 27 -152 39 -152 4 0 11 4 17 10 10
10 196 30 282 30 52 0 62 6 41 27 -13 13 33 164 57 183 23 20 16 43 -19 68
-39 26 -65 26 -172 0z m85 -38 c13 -8 13 -19 -2 -92 -10 -46 -24 -88 -33 -94
-15 -11 -223 -39 -231 -31 -7 6 -34 181 -29 185 4 4 232 39 265 41 8 0 22 -4
30 -9z"/>
<path d="M250 346 c-12 -39 -102 -141 -154 -177 -20 -13 -36 -28 -36 -32 0
-25 126 47 216 124 32 27 62 49 66 49 4 0 8 9 8 19 0 13 -13 24 -40 35 -22 9
-42 16 -44 16 -3 0 -9 -15 -16 -34z"/>
<path d="M531 343 c20 -21 62 -71 93 -111 67 -85 103 -113 117 -91 12 17 3 85
-15 110 -32 46 -168 129 -212 129 -14 0 -10 -8 17 -37z"/>
</g>
</svg>
