<?xml version="1.0" standalone="no"?>
<!DOCTYPE svg PUBLIC "-//W3C//DTD SVG 20010904//EN"
 "http://www.w3.org/TR/2001/REC-SVG-20010904/DTD/svg10.dtd">
<svg version="1.0" xmlns="http://www.w3.org/2000/svg"
 width="96.000000pt" height="68.000000pt" viewBox="0 0 96.000000 68.000000"
 preserveAspectRatio="xMidYMid meet">
<metadata>
Created by potrace 1.16, written by Peter Selinger 2001-2019
</metadata>
<g transform="translate(0.000000,68.000000) scale(0.100000,-0.100000)"
fill="#000000" stroke="none">
<path d="M438 591 c-15 -38 -17 -39 -74 -46 -33 -3 -75 -8 -94 -12 -34 -5 -34
-6 -11 -14 14 -6 43 -7 65 -4 84 11 124 16 240 25 65 5 120 11 123 13 12 13
-58 24 -102 16 -28 -4 -63 -8 -79 -8 -29 -1 -29 -1 -10 20 18 20 18 21 -1 35
-30 22 -41 17 -57 -25z"/>
</g>
</svg>
