<?xml version="1.0" standalone="no"?>
<!DOCTYPE svg PUBLIC "-//W3C//DTD SVG 20010904//EN"
 "http://www.w3.org/TR/2001/REC-SVG-20010904/DTD/svg10.dtd">
<svg version="1.0" xmlns="http://www.w3.org/2000/svg"
 width="96.000000pt" height="68.000000pt" viewBox="0 0 96.000000 68.000000"
 preserveAspectRatio="xMidYMid meet">
<metadata>
Created by potrace 1.16, written by Peter Selinger 2001-2019
</metadata>
<g transform="translate(0.000000,68.000000) scale(0.100000,-0.100000)"
fill="#000000" stroke="none">
<path d="M292 555 c21 -19 46 -35 57 -35 20 0 33 21 23 37 -9 12 -69 33 -96
33 -18 -1 -16 -5 16 -35z"/>
<path d="M275 451 c-11 -5 -50 -12 -87 -15 -38 -4 -68 -11 -68 -16 0 -18 41
-20 100 -5 107 28 105 19 -18 -104 -69 -69 -104 -110 -90 -106 26 9 92 53 125
84 12 12 25 21 28 21 9 0 6 -80 -6 -147 -12 -66 -4 -93 27 -93 11 0 14 21 14
93 0 50 3 102 6 115 l6 22 34 -25 c40 -30 44 -31 44 -5 0 12 -9 24 -22 29 -22
8 -22 8 -3 19 40 23 46 29 39 45 -10 27 -29 20 -50 -18 -21 -39 -38 -44 -53
-16 -9 15 -3 26 35 61 36 34 43 45 33 56 -12 15 -62 18 -94 5z"/>
</g>
</svg>
