<?xml version="1.0" standalone="no"?>
<!DOCTYPE svg PUBLIC "-//W3C//DTD SVG 20010904//EN"
 "http://www.w3.org/TR/2001/REC-SVG-20010904/DTD/svg10.dtd">
<svg version="1.0" xmlns="http://www.w3.org/2000/svg"
 width="96.000000pt" height="68.000000pt" viewBox="0 0 96.000000 68.000000"
 preserveAspectRatio="xMidYMid meet">
<metadata>
Created by potrace 1.16, written by Peter Selinger 2001-2019
</metadata>
<g transform="translate(0.000000,68.000000) scale(0.100000,-0.100000)"
fill="#000000" stroke="none">
<path d="M617 281 l5 -38 -58 -6 c-33 -4 -92 -9 -131 -13 -45 -4 -70 -10 -66
-17 6 -10 116 -5 211 9 l42 7 0 -108 c0 -81 3 -106 13 -103 16 6 24 48 26 141
l1 77 94 0 c52 0 97 4 101 9 10 17 -35 23 -114 16 l-78 -7 5 30 c3 24 0 30
-20 35 -36 10 -36 9 -31 -32z"/>
</g>
</svg>
