<?xml version="1.0" standalone="no"?>
<!DOCTYPE svg PUBLIC "-//W3C//DTD SVG 20010904//EN"
 "http://www.w3.org/TR/2001/REC-SVG-20010904/DTD/svg10.dtd">
<svg version="1.0" xmlns="http://www.w3.org/2000/svg"
 width="96.000000pt" height="68.000000pt" viewBox="0 0 96.000000 68.000000"
 preserveAspectRatio="xMidYMid meet">
<metadata>
Created by potrace 1.16, written by Peter Selinger 2001-2019
</metadata>
<g transform="translate(0.000000,68.000000) scale(0.100000,-0.100000)"
fill="#000000" stroke="none">
<path d="M329 573 c-6 -15 -19 -38 -30 -49 l-21 -22 -41 24 c-23 13 -51 24
-62 24 -19 -1 -19 -2 3 -20 13 -11 35 -28 50 -39 l26 -19 -30 -25 c-16 -14
-44 -34 -61 -44 -18 -10 -33 -21 -33 -24 0 -11 61 6 106 29 46 23 54 21 54
-17 0 -28 -81 -114 -155 -165 -39 -27 -39 -28 -10 -21 41 9 105 47 144 87 l34
33 -6 -80 c-3 -44 -8 -88 -12 -97 -8 -20 -40 -23 -80 -8 -24 9 -24 7 12 -35
51 -62 87 -57 118 18 20 48 20 226 0 293 l-14 49 44 42 c25 23 45 46 45 51 0
13 -20 28 -47 36 -19 6 -25 2 -34 -21z"/>
<path d="M625 515 c-38 -8 -107 -14 -152 -14 -81 -1 -96 -7 -69 -30 7 -6 21
-47 30 -91 17 -75 35 -109 44 -82 2 7 21 12 43 12 39 0 39 0 39 -40 l0 -40
-40 0 c-22 0 -40 -4 -40 -10 0 -5 18 -10 40 -10 39 0 40 -1 40 -34 l0 -33 -92
-7 c-51 -4 -94 -9 -97 -12 -15 -14 26 -16 166 -5 87 6 191 11 231 11 39 0 72
4 72 9 0 17 -60 23 -151 16 l-89 -7 0 36 c0 36 0 36 44 36 51 0 76 8 76 22 0
7 -21 9 -61 5 l-60 -7 3 38 c3 37 3 37 48 37 25 -1 51 -3 59 -5 9 -4 23 21 45
75 17 44 35 86 40 93 13 21 -16 43 -60 47 -22 2 -70 -2 -109 -10z m95 -50 c0
-33 -2 -35 -35 -37 -79 -4 -80 -4 -80 17 0 11 -4 25 -8 32 -8 12 17 19 86 22
36 1 37 0 37 -34z m-176 -1 c15 -40 7 -52 -39 -56 -42 -3 -45 -1 -55 26 -13
39 -6 46 45 46 30 0 45 -5 49 -16z m160 -81 c-10 -42 -12 -43 -55 -43 -37 0
-39 2 -39 29 0 31 9 35 78 40 20 1 22 -2 16 -26z m-152 -23 c-4 -26 -8 -30
-37 -30 -32 0 -45 13 -45 46 0 10 13 14 43 14 43 0 43 -1 39 -30z"/>
</g>
</svg>
