<?xml version="1.0" standalone="no"?>
<!DOCTYPE svg PUBLIC "-//W3C//DTD SVG 20010904//EN"
 "http://www.w3.org/TR/2001/REC-SVG-20010904/DTD/svg10.dtd">
<svg version="1.0" xmlns="http://www.w3.org/2000/svg"
 width="90.000000pt" height="92.000000pt" viewBox="0 0 90.000000 92.000000"
 preserveAspectRatio="xMidYMid meet">
<metadata>
Created by potrace 1.16, written by Peter Selinger 2001-2019
</metadata>
<g transform="translate(0.000000,92.000000) scale(0.100000,-0.100000)"
fill="#000000" stroke="none">
<path d="M524 818 c4 -13 10 -82 13 -154 l6 -131 -64 -11 c-35 -7 -90 -14
-121 -18 -63 -7 -72 -18 -33 -36 22 -10 134 0 197 18 16 5 18 -12 20 -223 2
-145 7 -227 13 -226 22 3 36 96 42 274 l6 187 120 8 c130 10 151 21 95 50 -29
15 -41 15 -111 5 -43 -7 -86 -15 -94 -18 -14 -5 -15 8 -10 108 3 63 8 124 12
136 6 17 1 25 -24 37 -16 9 -40 16 -52 16 -17 0 -20 -4 -15 -22z"/>
<path d="M259 823 c-11 -102 -84 -229 -202 -352 -33 -34 -53 -61 -45 -61 18 0
129 84 151 115 10 14 23 25 28 25 15 0 10 -224 -6 -305 -14 -66 -14 -78 -1
-110 34 -82 56 -26 57 148 0 73 4 158 8 190 6 47 4 64 -11 88 l-18 29 42 68
c23 37 50 77 61 89 l20 22 -31 30 c-29 30 -51 39 -53 24z"/>
</g>
</svg>
