<?xml version="1.0" standalone="no"?>
<!DOCTYPE svg PUBLIC "-//W3C//DTD SVG 20010904//EN"
 "http://www.w3.org/TR/2001/REC-SVG-20010904/DTD/svg10.dtd">
<svg version="1.0" xmlns="http://www.w3.org/2000/svg"
 width="96.000000pt" height="68.000000pt" viewBox="0 0 96.000000 68.000000"
 preserveAspectRatio="xMidYMid meet">
<metadata>
Created by potrace 1.16, written by Peter Selinger 2001-2019
</metadata>
<g transform="translate(0.000000,68.000000) scale(0.100000,-0.100000)"
fill="#000000" stroke="none">
<path d="M297 573 c4 -21 8 -56 8 -78 l0 -40 -65 -10 c-36 -6 -65 -15 -65 -20
0 -6 30 -11 68 -13 l67 -3 0 -39 0 -39 -90 -28 c-49 -15 -88 -32 -87 -38 2 -5
16 -17 30 -25 26 -14 31 -13 89 17 l61 32 -7 -72 c-4 -39 -10 -75 -15 -80 -4
-4 -20 -3 -36 3 -15 6 -30 9 -32 6 -7 -7 80 -96 94 -96 24 0 33 40 33 149 l0
111 50 25 c28 14 50 30 50 35 0 12 -23 13 -36 1 -5 -4 -22 -11 -38 -15 -26 -6
-28 -5 -22 16 3 13 6 30 6 39 0 10 15 18 43 25 54 12 54 28 0 32 -48 4 -50 9
-28 71 l14 41 -29 15 c-16 8 -38 15 -50 15 -19 0 -20 -4 -13 -37z"/>
<path d="M577 527 c-72 -12 -113 -23 -105 -28 7 -5 25 -9 41 -9 21 0 27 -5 27
-20 0 -35 -42 -105 -97 -162 -24 -25 -3 -22 33 5 43 31 57 47 80 87 10 19 25
41 32 48 6 7 12 24 12 37 0 20 6 23 56 30 67 8 76 0 67 -60 -13 -85 -17 -90
-56 -90 -21 0 -37 -2 -37 -3 0 -10 56 -62 67 -62 26 0 60 59 73 129 7 40 17
74 22 77 15 9 9 21 -17 32 -32 15 -52 14 -198 -11z"/>
<path d="M665 260 c-16 -5 -73 -12 -127 -16 -91 -6 -97 -8 -84 -23 9 -9 21
-41 27 -71 14 -65 28 -97 38 -82 3 6 47 13 96 17 142 10 157 13 150 35 -3 11
5 41 20 71 18 35 23 55 16 62 -14 14 -100 18 -136 7z m57 -32 c3 -7 0 -33 -7
-57 -8 -32 -16 -45 -30 -47 -11 -1 -50 -5 -87 -8 -75 -7 -80 -4 -93 66 l-7 36
59 7 c32 3 65 8 73 9 39 9 89 5 92 -6z"/>
</g>
</svg>
