<?xml version="1.0" standalone="no"?>
<!DOCTYPE svg PUBLIC "-//W3C//DTD SVG 20010904//EN"
 "http://www.w3.org/TR/2001/REC-SVG-20010904/DTD/svg10.dtd">
<svg version="1.0" xmlns="http://www.w3.org/2000/svg"
 width="96.000000pt" height="68.000000pt" viewBox="0 0 96.000000 68.000000"
 preserveAspectRatio="xMidYMid meet">
<metadata>
Created by potrace 1.16, written by Peter Selinger 2001-2019
</metadata>
<g transform="translate(0.000000,68.000000) scale(0.100000,-0.100000)"
fill="#000000" stroke="none">
<path d="M665 258 c-22 -5 -82 -10 -132 -11 -51 -1 -93 -5 -93 -8 0 -4 7 -12
14 -19 8 -6 20 -37 27 -68 16 -76 27 -96 43 -83 7 6 49 14 92 17 43 3 88 8 99
9 11 2 27 4 37 4 11 1 15 7 11 20 -3 10 7 43 21 72 23 49 24 54 8 66 -20 14
-70 15 -127 1z m60 -54 c-12 -68 -22 -84 -53 -84 -16 0 -56 -3 -88 -6 l-60 -6
-13 51 c-7 29 -11 54 -9 57 8 7 118 21 177 23 l53 1 -7 -36z"/>
</g>
</svg>
