<?xml version="1.0" standalone="no"?>
<!DOCTYPE svg PUBLIC "-//W3C//DTD SVG 20010904//EN"
 "http://www.w3.org/TR/2001/REC-SVG-20010904/DTD/svg10.dtd">
<svg version="1.0" xmlns="http://www.w3.org/2000/svg"
 width="96.000000pt" height="68.000000pt" viewBox="0 0 96.000000 68.000000"
 preserveAspectRatio="xMidYMid meet">
<metadata>
Created by potrace 1.16, written by Peter Selinger 2001-2019
</metadata>
<g transform="translate(0.000000,68.000000) scale(0.100000,-0.100000)"
fill="#000000" stroke="none">
<path d="M600 509 c-74 -11 -152 -17 -172 -15 l-37 4 14 -28 c8 -15 20 -61 26
-102 13 -79 25 -104 43 -89 15 12 225 21 232 10 14 -23 43 17 78 106 33 83 36
99 25 111 -23 22 -66 23 -209 3z m128 -21 c6 -7 8 -25 5 -40 -5 -27 -8 -28
-65 -28 l-59 0 3 32 c2 27 8 34 33 39 49 11 72 10 83 -3z m-168 -42 c0 -26 -5
-35 -22 -40 -41 -11 -76 -6 -82 10 -14 37 -7 53 27 57 77 9 77 10 77 -27z
m160 -60 c0 -8 -4 -26 -10 -40 -8 -23 -15 -26 -55 -26 -45 0 -45 0 -45 34 0
32 3 35 33 39 66 8 77 7 77 -7z m-160 -42 l0 -35 -42 3 c-36 3 -43 7 -49 30
-9 34 -5 38 48 38 43 0 43 0 43 -36z"/>
</g>
</svg>
