<?xml version="1.0" standalone="no"?>
<!DOCTYPE svg PUBLIC "-//W3C//DTD SVG 20010904//EN"
 "http://www.w3.org/TR/2001/REC-SVG-20010904/DTD/svg10.dtd">
<svg version="1.0" xmlns="http://www.w3.org/2000/svg"
 width="96.000000pt" height="68.000000pt" viewBox="0 0 96.000000 68.000000"
 preserveAspectRatio="xMidYMid meet">
<metadata>
Created by potrace 1.16, written by Peter Selinger 2001-2019
</metadata>
<g transform="translate(0.000000,68.000000) scale(0.100000,-0.100000)"
fill="#000000" stroke="none">
<path d="M250 571 c5 -11 10 -53 10 -95 l0 -75 -75 -12 c-91 -14 -91 -34 1
-24 39 4 64 3 64 -3 0 -20 -83 -133 -123 -167 -24 -20 -34 -35 -25 -35 26 0
103 66 140 120 l17 25 0 -29 c1 -16 -4 -69 -11 -118 -11 -80 -10 -90 6 -106
28 -28 36 0 36 126 0 110 5 127 30 97 16 -19 40 -19 40 0 0 8 -13 21 -30 30
-23 12 -30 22 -30 45 0 25 4 30 35 36 19 3 35 10 35 15 0 11 -46 23 -59 14
-13 -8 -14 42 -1 105 10 50 -3 70 -47 70 -20 0 -22 -3 -13 -19z"/>
</g>
</svg>
