<?xml version="1.0" standalone="no"?>
<!DOCTYPE svg PUBLIC "-//W3C//DTD SVG 20010904//EN"
 "http://www.w3.org/TR/2001/REC-SVG-20010904/DTD/svg10.dtd">
<svg version="1.0" xmlns="http://www.w3.org/2000/svg"
 width="96.000000pt" height="68.000000pt" viewBox="0 0 96.000000 68.000000"
 preserveAspectRatio="xMidYMid meet">
<metadata>
Created by potrace 1.16, written by Peter Selinger 2001-2019
</metadata>
<g transform="translate(0.000000,68.000000) scale(0.100000,-0.100000)"
fill="#000000" stroke="none">
<path d="M195 519 c43 -51 77 -64 89 -32 10 24 -13 41 -64 49 l-45 7 20 -24z"/>
<path d="M131 389 c31 -41 79 -53 79 -20 0 23 -19 35 -70 46 l-35 8 26 -34z"/>
<path d="M225 258 c-22 -28 -56 -62 -76 -75 -30 -19 -36 -29 -30 -46 11 -37
28 -60 40 -53 14 9 123 226 113 226 -4 -1 -25 -24 -47 -52z"/>
</g>
</svg>
