<?xml version="1.0" standalone="no"?>
<!DOCTYPE svg PUBLIC "-//W3C//DTD SVG 20010904//EN"
 "http://www.w3.org/TR/2001/REC-SVG-20010904/DTD/svg10.dtd">
<svg version="1.0" xmlns="http://www.w3.org/2000/svg"
 width="90.000000pt" height="92.000000pt" viewBox="0 0 90.000000 92.000000"
 preserveAspectRatio="xMidYMid meet">
<metadata>
Created by potrace 1.16, written by Peter Selinger 2001-2019
</metadata>
<g transform="translate(0.000000,92.000000) scale(0.100000,-0.100000)"
fill="#000000" stroke="none">
<path d="M575 779 c-55 -10 -116 -18 -135 -18 l-35 -1 -1 -128 c0 -151 -23
-251 -87 -382 -54 -113 -54 -112 -6 -60 44 47 95 143 105 196 5 29 9 31 42 31
21 -1 54 2 74 6 37 8 38 7 33 -20 -2 -15 -7 -44 -10 -64 -6 -41 -21 -49 -92
-49 -40 0 -55 -11 -34 -25 5 -3 15 -38 21 -79 13 -80 25 -108 38 -90 4 6 60
17 125 24 108 11 117 14 112 32 -4 11 5 40 25 74 17 30 28 59 25 64 -17 27
-65 40 -107 30 -75 -17 -77 -16 -67 38 16 84 8 79 132 88 114 9 132 18 84 42
-22 10 -41 10 -107 -1 -91 -16 -84 -21 -63 45 3 11 -5 22 -27 33 -46 24 -54
17 -51 -47 l2 -56 -66 -7 c-36 -4 -68 -5 -70 -3 -3 2 0 20 5 39 6 18 10 46 10
60 0 25 3 27 78 38 42 7 103 14 135 18 54 6 69 14 47 28 -10 6 22 79 40 90 20
12 10 45 -20 60 -34 17 -25 18 -155 -6z m101 -61 c-4 -24 -12 -48 -19 -54 -10
-10 -157 -44 -188 -44 -9 0 -3 98 7 109 7 8 127 29 168 30 l39 1 -7 -42z m7
-468 c-6 -75 -8 -77 -76 -89 -113 -20 -115 -19 -119 43 l-3 54 55 11 c30 6 64
13 75 15 11 2 31 3 45 3 22 -2 25 -6 23 -37z"/>
<path d="M220 743 c-25 -8 -71 -15 -102 -15 -32 -1 -58 -3 -58 -5 0 -2 6 -14
14 -26 8 -12 18 -49 21 -82 10 -81 20 -99 46 -82 32 20 39 -6 39 -150 l0 -131
-31 -11 c-18 -6 -35 -11 -39 -11 -4 0 -5 49 -2 109 l5 110 -26 6 c-34 9 -50
-1 -38 -23 5 -9 11 -61 13 -115 l4 -97 -33 0 c-26 0 -33 -4 -33 -20 0 -11 12
-27 26 -37 25 -16 28 -16 68 5 22 12 81 40 131 62 50 21 91 46 93 55 4 19 -6
19 -53 -1 -20 -8 -39 -13 -41 -11 -2 2 -1 31 2 65 l7 62 36 0 c36 0 61 14 61
33 0 6 -21 7 -50 4 l-51 -6 3 59 3 60 35 0 c34 0 35 1 35 43 0 23 10 62 23 87
l22 45 -21 18 c-25 20 -48 20 -109 0z m45 -80 c-4 -27 -8 -53 -10 -60 -3 -10
-104 -38 -111 -30 -2 2 -7 31 -10 65 l-7 61 39 4 c22 2 54 4 72 5 l33 2 -6
-47z"/>
</g>
</svg>
