<?xml version="1.0" standalone="no"?>
<!DOCTYPE svg PUBLIC "-//W3C//DTD SVG 20010904//EN"
 "http://www.w3.org/TR/2001/REC-SVG-20010904/DTD/svg10.dtd">
<svg version="1.0" xmlns="http://www.w3.org/2000/svg"
 width="96.000000pt" height="68.000000pt" viewBox="0 0 96.000000 68.000000"
 preserveAspectRatio="xMidYMid meet">
<metadata>
Created by potrace 1.16, written by Peter Selinger 2001-2019
</metadata>
<g transform="translate(0.000000,68.000000) scale(0.100000,-0.100000)"
fill="#000000" stroke="none">
<path d="M252 535 c37 -35 62 -43 72 -26 17 26 -31 61 -82 61 l-27 -1 37 -34z"/>
<path d="M235 424 c-27 -7 -64 -14 -82 -14 -17 0 -34 -4 -38 -9 -11 -20 39
-22 101 -5 35 9 67 14 71 11 9 -9 -81 -122 -147 -184 -30 -29 -51 -53 -47 -53
17 0 70 33 108 67 33 30 42 34 50 22 5 -8 7 -27 5 -44 -12 -78 -16 -161 -7
-174 19 -29 29 3 36 114 4 63 10 115 13 115 3 0 16 -10 28 -21 25 -24 57 -19
48 6 -4 8 -17 18 -30 21 -33 8 -30 20 7 33 34 12 35 34 2 39 -14 2 -24 -6 -33
-27 -7 -17 -18 -31 -26 -31 -30 0 -22 23 26 74 49 51 50 55 31 65 -25 14 -53
13 -116 -5z"/>
</g>
</svg>
