<?xml version="1.0" standalone="no"?>
<!DOCTYPE svg PUBLIC "-//W3C//DTD SVG 20010904//EN"
 "http://www.w3.org/TR/2001/REC-SVG-20010904/DTD/svg10.dtd">
<svg version="1.0" xmlns="http://www.w3.org/2000/svg"
 width="90.000000pt" height="92.000000pt" viewBox="0 0 90.000000 92.000000"
 preserveAspectRatio="xMidYMid meet">
<metadata>
Created by potrace 1.16, written by Peter Selinger 2001-2019
</metadata>
<g transform="translate(0.000000,92.000000) scale(0.100000,-0.100000)"
fill="#000000" stroke="none">
<path d="M464 843 c4 -16 9 -65 13 -110 l6 -82 -34 -5 c-19 -3 -63 -10 -98
-16 -71 -10 -82 -16 -61 -31 15 -10 122 -5 168 7 20 6 22 3 22 -40 l0 -46 -47
-2 c-27 -1 -65 -1 -87 0 -34 2 -37 0 -30 -15 5 -10 9 -98 9 -195 0 -127 3
-180 12 -189 19 -19 22 -10 29 73 l7 76 53 4 54 3 0 -87 c0 -81 9 -113 26 -87
4 6 12 50 18 98 l12 86 77 11 78 10 -2 -63 c-3 -82 -13 -96 -58 -83 -19 5 -36
9 -37 7 -5 -5 82 -106 92 -106 6 -1 19 8 30 20 17 19 20 43 24 213 3 105 9
198 14 207 5 12 -2 24 -26 43 -33 24 -35 25 -88 12 -121 -30 -110 -32 -110 18
0 43 1 44 38 49 20 3 83 9 140 13 56 4 102 10 102 14 0 17 -39 40 -67 40 -17
0 -67 -7 -110 -15 -116 -22 -107 -29 -100 80 6 86 5 95 -13 105 -10 5 -29 10
-41 10 -18 0 -20 -4 -15 -27z m220 -349 c3 -9 6 -29 6 -45 0 -27 -1 -28 -27
-18 -25 9 -68 7 -115 -7 -15 -4 -18 1 -18 35 0 45 5 48 91 50 43 1 58 -3 63
-15z m-204 -44 c0 -35 -3 -40 -24 -40 -13 0 -38 -3 -55 -6 -31 -6 -31 -6 -31
34 0 44 4 46 83 51 25 1 27 -2 27 -39z m210 -82 l0 -43 -80 -1 -80 -1 0 33 c0
31 2 33 43 38 23 3 53 7 67 10 14 2 31 4 38 5 8 1 12 -13 12 -41z m-210 -22
c0 -37 -15 -46 -77 -46 -31 0 -33 2 -33 34 0 32 3 35 33 39 77 9 77 10 77 -27z"/>
<path d="M628 808 c24 -30 92 -70 107 -64 17 6 21 51 5 61 -6 4 -36 9 -68 12
-51 6 -56 5 -44 -9z"/>
<path d="M159 751 c16 -30 80 -81 102 -81 25 0 35 25 21 54 -7 16 -25 27 -56
35 -66 16 -79 15 -67 -8z"/>
<path d="M70 549 c0 -6 20 -31 44 -55 51 -52 79 -52 74 0 -3 33 -24 48 -85 61
-23 4 -33 3 -33 -6z"/>
<path d="M188 336 c-20 -41 -51 -90 -69 -110 l-32 -37 18 -44 c9 -25 22 -45
28 -45 7 0 32 64 56 142 24 79 46 149 49 156 2 6 0 12 -5 12 -5 0 -25 -33 -45
-74z"/>
</g>
</svg>
