<?xml version="1.0" standalone="no"?>
<!DOCTYPE svg PUBLIC "-//W3C//DTD SVG 20010904//EN"
 "http://www.w3.org/TR/2001/REC-SVG-20010904/DTD/svg10.dtd">
<svg version="1.0" xmlns="http://www.w3.org/2000/svg"
 width="96.000000pt" height="68.000000pt" viewBox="0 0 96.000000 68.000000"
 preserveAspectRatio="xMidYMid meet">
<metadata>
Created by potrace 1.16, written by Peter Selinger 2001-2019
</metadata>
<g transform="translate(0.000000,68.000000) scale(0.100000,-0.100000)"
fill="#000000" stroke="none">
<path d="M485 603 c5 -10 10 -46 13 -79 l4 -61 -58 -7 c-33 -4 -75 -10 -94
-13 -33 -6 -34 -6 -10 -15 14 -5 55 -6 93 -3 l67 7 0 -173 c0 -181 6 -213 31
-183 11 13 15 60 17 190 l4 173 51 5 c29 3 83 8 122 12 64 6 68 7 50 21 -20
15 -54 14 -179 -3 l-49 -7 6 70 c5 67 4 71 -16 77 -42 11 -60 7 -52 -11z"/>
</g>
</svg>
