<?xml version="1.0" standalone="no"?>
<!DOCTYPE svg PUBLIC "-//W3C//DTD SVG 20010904//EN"
 "http://www.w3.org/TR/2001/REC-SVG-20010904/DTD/svg10.dtd">
<svg version="1.0" xmlns="http://www.w3.org/2000/svg"
 width="96.000000pt" height="68.000000pt" viewBox="0 0 96.000000 68.000000"
 preserveAspectRatio="xMidYMid meet">
<metadata>
Created by potrace 1.16, written by Peter Selinger 2001-2019
</metadata>
<g transform="translate(0.000000,68.000000) scale(0.100000,-0.100000)"
fill="#000000" stroke="none">
<path d="M510 513 c0 -62 -9 -73 -56 -73 -36 0 -44 3 -44 19 0 24 -37 71 -56
71 -18 0 -18 -3 6 -52 11 -23 18 -43 17 -45 -2 -1 -62 -8 -133 -15 -126 -11
-128 -12 -94 -26 30 -12 48 -12 145 4 60 9 194 20 298 23 103 3 188 10 190 15
1 5 -16 15 -37 23 -31 10 -53 11 -95 3 -30 -5 -72 -10 -94 -10 l-39 0 27 31
c31 37 28 53 -8 57 -24 3 -27 0 -27 -25z"/>
</g>
</svg>
