<?xml version="1.0" standalone="no"?>
<!DOCTYPE svg PUBLIC "-//W3C//DTD SVG 20010904//EN"
 "http://www.w3.org/TR/2001/REC-SVG-20010904/DTD/svg10.dtd">
<svg version="1.0" xmlns="http://www.w3.org/2000/svg"
 width="96.000000pt" height="68.000000pt" viewBox="0 0 96.000000 68.000000"
 preserveAspectRatio="xMidYMid meet">
<metadata>
Created by potrace 1.16, written by Peter Selinger 2001-2019
</metadata>
<g transform="translate(0.000000,68.000000) scale(0.100000,-0.100000)"
fill="#000000" stroke="none">
<path d="M765 280 c-11 -5 -40 -9 -64 -9 -41 -1 -43 -2 -28 -18 8 -10 18 -35
22 -56 8 -39 19 -54 30 -37 3 5 24 10 46 10 28 0 39 4 36 13 -2 6 2 29 11 50
8 21 13 39 11 41 -11 10 -47 13 -64 6z m13 -52 c-2 -27 -8 -34 -30 -36 -22 -3
-29 2 -34 23 -8 30 7 45 44 45 20 0 23 -4 20 -32z"/>
</g>
</svg>
