<?xml version="1.0" standalone="no"?>
<!DOCTYPE svg PUBLIC "-//W3C//DTD SVG 20010904//EN"
 "http://www.w3.org/TR/2001/REC-SVG-20010904/DTD/svg10.dtd">
<svg version="1.0" xmlns="http://www.w3.org/2000/svg"
 width="96.000000pt" height="68.000000pt" viewBox="0 0 96.000000 68.000000"
 preserveAspectRatio="xMidYMid meet">
<metadata>
Created by potrace 1.16, written by Peter Selinger 2001-2019
</metadata>
<g transform="translate(0.000000,68.000000) scale(0.100000,-0.100000)"
fill="#000000" stroke="none">
<path d="M260 455 c-30 -7 -68 -14 -83 -14 -37 -1 -25 -21 14 -21 23 0 29 -4
29 -21 0 -29 -35 -91 -92 -166 -53 -69 -51 -79 8 -32 56 44 147 187 137 215
-2 7 14 14 42 18 25 4 45 11 45 17 0 5 -4 9 -9 9 -5 0 -15 2 -23 4 -7 2 -38
-3 -68 -9z"/>
</g>
</svg>
