<?xml version="1.0" standalone="no"?>
<!DOCTYPE svg PUBLIC "-//W3C//DTD SVG 20010904//EN"
 "http://www.w3.org/TR/2001/REC-SVG-20010904/DTD/svg10.dtd">
<svg version="1.0" xmlns="http://www.w3.org/2000/svg"
 width="96.000000pt" height="68.000000pt" viewBox="0 0 96.000000 68.000000"
 preserveAspectRatio="xMidYMid meet">
<metadata>
Created by potrace 1.16, written by Peter Selinger 2001-2019
</metadata>
<g transform="translate(0.000000,68.000000) scale(0.100000,-0.100000)"
fill="#000000" stroke="none">
<path d="M528 272 c4 -15 7 -63 7 -107 l0 -80 -27 0 c-35 1 -35 -5 2 -40 47
-45 58 -25 61 111 1 61 0 115 -4 121 -4 6 -16 13 -27 16 -17 4 -19 2 -12 -21z"/>
<path d="M621 229 c-13 -17 -21 -33 -18 -35 6 -6 77 36 77 46 0 6 -23 20 -34
20 -1 0 -12 -14 -25 -31z"/>
<path d="M444 211 c32 -34 46 -39 46 -17 0 17 -17 31 -50 41 -25 7 -25 7 4
-24z"/>
<path d="M435 134 c-27 -13 -56 -24 -62 -24 -19 0 -16 -27 3 -34 18 -7 39 5
94 53 42 36 32 38 -35 5z"/>
<path d="M640 128 c32 -32 70 -58 84 -58 3 0 6 11 6 24 0 25 -35 48 -95 61
l-30 7 35 -34z"/>
</g>
</svg>
