<?xml version="1.0" standalone="no"?>
<!DOCTYPE svg PUBLIC "-//W3C//DTD SVG 20010904//EN"
 "http://www.w3.org/TR/2001/REC-SVG-20010904/DTD/svg10.dtd">
<svg version="1.0" xmlns="http://www.w3.org/2000/svg"
 width="96.000000pt" height="68.000000pt" viewBox="0 0 96.000000 68.000000"
 preserveAspectRatio="xMidYMid meet">
<metadata>
Created by potrace 1.16, written by Peter Selinger 2001-2019
</metadata>
<g transform="translate(0.000000,68.000000) scale(0.100000,-0.100000)"
fill="#000000" stroke="none">
<path d="M490 574 c6 -14 10 -72 10 -130 0 -103 0 -104 24 -104 24 0 24 1 28
123 2 74 -1 125 -7 129 -5 4 -22 8 -37 8 -25 0 -27 -2 -18 -26z"/>
<path d="M672 500 c-6 -15 -24 -43 -42 -63 -18 -21 -28 -37 -23 -37 8 0 127
72 142 86 8 8 -21 32 -44 36 -19 4 -26 0 -33 -22z"/>
<path d="M364 432 c8 -16 22 -34 30 -41 17 -14 46 -8 46 9 0 19 -48 60 -70 60
-19 0 -20 -2 -6 -28z"/>
</g>
</svg>
