<?xml version="1.0" standalone="no"?>
<!DOCTYPE svg PUBLIC "-//W3C//DTD SVG 20010904//EN"
 "http://www.w3.org/TR/2001/REC-SVG-20010904/DTD/svg10.dtd">
<svg version="1.0" xmlns="http://www.w3.org/2000/svg"
 width="96.000000pt" height="68.000000pt" viewBox="0 0 96.000000 68.000000"
 preserveAspectRatio="xMidYMid meet">
<metadata>
Created by potrace 1.16, written by Peter Selinger 2001-2019
</metadata>
<g transform="translate(0.000000,68.000000) scale(0.100000,-0.100000)"
fill="#000000" stroke="none">
<path d="M570 374 c-47 -7 -104 -13 -127 -13 -25 -1 -43 -6 -43 -12 0 -8 18
-10 63 -5 182 20 187 20 187 2 0 -9 -1 -16 -2 -16 -2 0 -59 -7 -128 -15 -69
-8 -131 -15 -138 -15 -9 0 -11 -7 -7 -21 4 -13 1 -27 -10 -39 -22 -25 -10 -44
24 -36 82 19 204 36 254 36 55 0 58 -1 55 -22 -2 -19 -9 -23 -35 -22 l-33 2
23 -29 c32 -42 57 -34 89 28 26 51 27 53 7 63 -13 8 -61 6 -165 -5 -181 -19
-174 -19 -174 4 0 21 22 26 173 37 65 4 97 11 97 19 0 6 9 20 20 30 l21 19
-23 13 c-13 7 -27 12 -33 11 -5 0 -48 -6 -95 -14z"/>
</g>
</svg>
