<?xml version="1.0" standalone="no"?>
<!DOCTYPE svg PUBLIC "-//W3C//DTD SVG 20010904//EN"
 "http://www.w3.org/TR/2001/REC-SVG-20010904/DTD/svg10.dtd">
<svg version="1.0" xmlns="http://www.w3.org/2000/svg"
 width="96.000000pt" height="68.000000pt" viewBox="0 0 96.000000 68.000000"
 preserveAspectRatio="xMidYMid meet">
<metadata>
Created by potrace 1.16, written by Peter Selinger 2001-2019
</metadata>
<g transform="translate(0.000000,68.000000) scale(0.100000,-0.100000)"
fill="#000000" stroke="none">
<path d="M460 614 c0 -5 11 -26 25 -45 l24 -36 -87 -8 c-169 -13 -186 -18
-153 -42 54 -37 -4 -268 -94 -379 -54 -66 -23 -64 44 3 68 68 95 130 119 271
10 64 20 96 32 102 9 5 92 14 186 20 187 12 214 16 214 29 0 21 -67 32 -131
21 -85 -13 -88 -13 -82 8 2 10 -4 25 -15 35 -21 19 -82 34 -82 21z"/>
<path d="M494 455 l7 -35 -43 -2 c-24 -1 -51 -2 -60 -1 -10 0 -18 -4 -18 -9 0
-9 22 -11 89 -8 37 1 43 -1 37 -15 -3 -9 -6 -19 -6 -21 0 -2 -22 -4 -50 -4
-30 0 -50 -4 -50 -11 0 -8 17 -10 50 -7 43 4 50 3 50 -12 0 -14 -12 -19 -63
-24 -63 -7 -64 -8 -64 -37 0 -17 -5 -34 -12 -38 -9 -6 -8 -11 4 -21 12 -10 21
-10 41 -1 36 16 74 14 74 -5 0 -21 -90 -108 -129 -124 -39 -16 -41 -31 -3 -21
67 20 162 94 162 128 0 7 3 13 6 13 6 0 95 -72 139 -113 47 -44 62 -49 125
-42 33 4 62 11 65 15 3 5 -21 14 -52 21 -32 7 -80 23 -108 35 -50 22 -155 93
-155 105 0 11 43 19 108 19 60 0 63 -1 60 -22 -3 -20 -8 -23 -38 -20 l-35 3
32 -32 c38 -38 56 -34 81 18 9 21 22 41 27 46 6 4 2 13 -10 22 -15 12 -36 14
-95 10 -41 -4 -85 -8 -97 -11 -18 -3 -23 0 -23 15 0 16 9 21 58 26 31 3 64 7
72 8 8 1 15 8 15 15 0 8 8 19 18 26 9 7 17 16 17 19 0 13 -60 22 -112 17 -49
-4 -58 -3 -58 11 0 21 29 29 108 29 47 0 62 3 59 13 -3 8 -28 11 -87 9 -71 -2
-82 0 -76 13 4 11 -3 19 -20 25 -42 16 -47 13 -40 -25z m159 -110 c-3 -16 -93
-29 -106 -16 -9 9 -8 14 3 22 19 12 106 7 103 -6z m-153 -76 c0 -20 -20 -29
-61 -29 -40 0 -42 37 -1 42 48 7 62 4 62 -13z"/>
<path d="M130 428 c0 -21 53 -68 77 -68 35 0 30 36 -9 60 -37 22 -68 26 -68 8z"/>
<path d="M181 299 c-30 -16 -61 -29 -71 -29 -24 0 -31 -10 -19 -31 16 -31 51
-22 102 27 26 26 47 50 47 55 0 11 4 13 -59 -22z"/>
</g>
</svg>
