<?xml version="1.0" standalone="no"?>
<!DOCTYPE svg PUBLIC "-//W3C//DTD SVG 20010904//EN"
 "http://www.w3.org/TR/2001/REC-SVG-20010904/DTD/svg10.dtd">
<svg version="1.0" xmlns="http://www.w3.org/2000/svg"
 width="96.000000pt" height="68.000000pt" viewBox="0 0 96.000000 68.000000"
 preserveAspectRatio="xMidYMid meet">
<metadata>
Created by potrace 1.16, written by Peter Selinger 2001-2019
</metadata>
<g transform="translate(0.000000,68.000000) scale(0.100000,-0.100000)"
fill="#000000" stroke="none">
<path d="M494 455 c7 -35 7 -35 -31 -36 -21 -1 -49 -4 -63 -8 l-25 -7 25 -7
c14 -3 42 -4 64 0 l39 6 -5 -84 c-7 -127 -38 -174 -161 -245 -49 -28 -38 -31
30 -8 59 20 106 56 134 100 l21 34 32 -27 c18 -16 61 -52 96 -81 l63 -54 61 7
c88 10 96 20 29 34 -77 17 -135 43 -211 94 -49 33 -61 46 -57 62 2 11 8 54 11
96 l7 77 36 6 c20 3 58 6 84 6 35 0 47 4 44 13 -3 8 -27 11 -87 9 -71 -3 -82
-1 -77 12 7 17 -20 36 -48 36 -14 0 -16 -6 -11 -35z"/>
</g>
</svg>
