<?xml version="1.0" standalone="no"?>
<!DOCTYPE svg PUBLIC "-//W3C//DTD SVG 20010904//EN"
 "http://www.w3.org/TR/2001/REC-SVG-20010904/DTD/svg10.dtd">
<svg version="1.0" xmlns="http://www.w3.org/2000/svg"
 width="90.000000pt" height="92.000000pt" viewBox="0 0 90.000000 92.000000"
 preserveAspectRatio="xMidYMid meet">
<metadata>
Created by potrace 1.16, written by Peter Selinger 2001-2019
</metadata>
<g transform="translate(0.000000,92.000000) scale(0.100000,-0.100000)"
fill="#000000" stroke="none">
<path d="M488 746 l4 -93 -38 -6 c-22 -4 -51 -7 -66 -7 -15 0 -30 -5 -34 -11
-12 -20 20 -30 79 -24 l57 6 0 -115 0 -114 -51 -7 c-27 -4 -52 -5 -54 -4 -2 2
2 28 7 58 11 51 10 54 -13 72 -35 27 -40 24 -33 -20 4 -25 0 -57 -11 -90 -12
-38 -14 -55 -5 -70 13 -26 17 -26 71 -1 24 11 54 20 67 20 20 0 22 -4 22 -62
0 -70 20 -115 65 -144 58 -38 256 -27 303 16 19 18 19 19 -4 101 -14 46 -26
84 -28 86 -2 2 -7 -16 -10 -41 -9 -57 -43 -107 -81 -118 -30 -9 -127 -4 -159
8 -27 10 -46 59 -46 117 l0 55 38 6 c20 4 45 9 55 12 12 4 17 0 17 -16 0 -24
28 -39 40 -20 4 7 15 54 25 104 15 86 15 91 -2 104 -23 17 -60 11 -53 -8 6
-19 2 -121 -5 -128 -6 -6 -108 -21 -113 -17 -2 2 -1 53 3 114 l8 110 46 10
c26 5 59 15 75 21 24 9 26 13 15 26 -13 16 -68 15 -112 -2 -14 -5 -17 0 -17
22 0 16 4 44 9 62 12 41 7 56 -25 71 -48 22 -50 18 -46 -83z"/>
<path d="M155 719 c-27 -10 -67 -18 -89 -19 -33 0 -37 -2 -30 -17 13 -26 17
-323 6 -384 -11 -59 1 -119 23 -119 8 0 15 6 15 14 0 9 19 16 57 21 59 7 60 7
89 -41 13 -23 32 -11 50 32 11 26 12 49 3 111 -5 43 -9 149 -7 236 l3 159 -25
13 c-30 17 -32 17 -95 -6z m65 -84 c0 -68 -1 -71 -22 -68 -9 2 -35 -4 -57 -12
-47 -16 -48 -14 -43 71 4 58 7 61 80 63 l42 1 0 -55z m0 -159 l0 -53 -42 -6
c-24 -3 -53 -9 -65 -13 -22 -6 -23 -4 -23 56 0 54 2 61 18 56 9 -3 31 -2 47 3
61 19 65 16 65 -43z m2 -148 c-2 -35 -5 -64 -6 -64 0 -1 -29 -4 -63 -8 l-63
-7 0 65 c0 57 2 64 18 59 10 -2 34 0 53 5 65 19 65 18 61 -50z"/>
</g>
</svg>
