<?xml version="1.0" standalone="no"?>
<!DOCTYPE svg PUBLIC "-//W3C//DTD SVG 20010904//EN"
 "http://www.w3.org/TR/2001/REC-SVG-20010904/DTD/svg10.dtd">
<svg version="1.0" xmlns="http://www.w3.org/2000/svg"
 width="96.000000pt" height="68.000000pt" viewBox="0 0 96.000000 68.000000"
 preserveAspectRatio="xMidYMid meet">
<metadata>
Created by potrace 1.16, written by Peter Selinger 2001-2019
</metadata>
<g transform="translate(0.000000,68.000000) scale(0.100000,-0.100000)"
fill="#000000" stroke="none">
<path d="M220 514 c-25 -7 -60 -13 -78 -13 -30 -1 -33 -3 -25 -23 4 -13 7 -74
5 -135 -3 -108 -2 -113 18 -113 13 0 20 7 20 20 0 16 7 20 33 20 17 0 42 3 55
6 19 5 22 2 22 -20 0 -21 5 -26 25 -26 l25 0 0 138 0 139 -25 11 c-14 7 -27
11 -28 11 -1 -1 -22 -7 -47 -15z m34 -20 c11 -4 16 -19 16 -50 0 -41 -2 -44
-27 -44 -16 0 -38 -3 -50 -6 -22 -6 -23 -3 -23 44 0 48 2 51 28 55 15 2 30 5
34 6 3 0 13 -2 22 -5z m16 -154 c0 -31 -4 -40 -17 -40 -10 0 -35 -3 -55 -6
l-38 -7 0 41 c0 41 0 41 43 45 23 2 48 4 55 5 8 1 12 -12 12 -38z"/>
</g>
</svg>
