<?xml version="1.0" standalone="no"?>
<!DOCTYPE svg PUBLIC "-//W3C//DTD SVG 20010904//EN"
 "http://www.w3.org/TR/2001/REC-SVG-20010904/DTD/svg10.dtd">
<svg version="1.0" xmlns="http://www.w3.org/2000/svg"
 width="96.000000pt" height="68.000000pt" viewBox="0 0 96.000000 68.000000"
 preserveAspectRatio="xMidYMid meet">
<metadata>
Created by potrace 1.16, written by Peter Selinger 2001-2019
</metadata>
<g transform="translate(0.000000,68.000000) scale(0.100000,-0.100000)"
fill="#000000" stroke="none">
<path d="M503 533 l2 -68 -64 -8 c-50 -7 -61 -11 -47 -19 9 -5 38 -8 64 -6
l47 3 -3 -80 c-2 -46 -9 -83 -15 -87 -7 -4 -27 -8 -44 -8 -35 0 -40 10 -24 53
11 28 3 44 -24 49 -16 2 -19 -3 -20 -32 0 -19 -4 -50 -9 -68 -10 -42 8 -49 71
-28 61 21 63 21 63 -12 0 -113 60 -151 221 -140 69 5 125 30 113 49 -3 6 -14
34 -25 62 -10 29 -18 44 -19 34 0 -36 -31 -85 -61 -97 -17 -7 -55 -11 -90 -8
-75 5 -99 28 -99 93 0 41 1 43 38 49 56 9 65 8 58 -9 -3 -9 0 -15 10 -15 17 0
41 50 50 108 5 35 4 40 -17 45 -13 4 -27 7 -30 7 -4 0 -7 -23 -7 -51 0 -59 -9
-69 -66 -69 l-39 0 7 61 c3 34 6 73 6 85 0 18 6 24 23 24 12 0 39 5 60 11 54
15 36 33 -26 26 l-50 -6 6 49 c6 53 6 54 -35 64 l-27 6 2 -67z"/>
<path d="M220 519 c-14 -6 -45 -11 -70 -13 -34 -1 -44 -5 -40 -16 3 -8 5 -91
5 -183 0 -138 3 -169 15 -177 10 -6 16 -5 19 3 6 19 23 27 63 27 27 0 41 -6
50 -20 7 -11 18 -20 24 -20 29 0 34 31 36 205 1 162 0 179 -17 191 -22 16 -50
17 -85 3z m48 -70 c3 -34 1 -37 -30 -42 -18 -3 -41 -8 -50 -12 -15 -6 -18 -1
-18 32 0 49 15 65 60 61 32 -3 35 -6 38 -39z m2 -107 c0 -36 -2 -39 -30 -40
-17 0 -39 -4 -50 -7 -18 -6 -20 -2 -20 34 l0 40 48 4 c26 2 48 4 50 5 1 1 2
-15 2 -36z m2 -99 c8 -56 1 -63 -57 -63 -30 0 -56 3 -58 8 -2 4 0 21 5 39 8
32 21 39 79 42 22 1 27 -4 31 -26z"/>
</g>
</svg>
