<?xml version="1.0" standalone="no"?>
<!DOCTYPE svg PUBLIC "-//W3C//DTD SVG 20010904//EN"
 "http://www.w3.org/TR/2001/REC-SVG-20010904/DTD/svg10.dtd">
<svg version="1.0" xmlns="http://www.w3.org/2000/svg"
 width="96.000000pt" height="68.000000pt" viewBox="0 0 96.000000 68.000000"
 preserveAspectRatio="xMidYMid meet">
<metadata>
Created by potrace 1.16, written by Peter Selinger 2001-2019
</metadata>
<g transform="translate(0.000000,68.000000) scale(0.100000,-0.100000)"
fill="#000000" stroke="none">
<path d="M523 303 c-7 -2 -13 -18 -13 -34 0 -16 -1 -29 -2 -30 -2 0 -46 -6
-98 -13 -95 -12 -95 -12 -55 -24 27 -8 53 -8 80 -2 76 18 75 19 76 -67 0 -43
4 -87 9 -98 7 -18 9 -18 20 10 6 17 13 62 15 100 l4 70 111 3 c110 3 136 13
83 33 -18 7 -48 7 -94 -1 -103 -15 -102 -16 -95 25 6 30 4 35 -11 34 -10 0
-24 -3 -30 -6z"/>
</g>
</svg>
