<?xml version="1.0" standalone="no"?>
<!DOCTYPE svg PUBLIC "-//W3C//DTD SVG 20010904//EN"
 "http://www.w3.org/TR/2001/REC-SVG-20010904/DTD/svg10.dtd">
<svg version="1.0" xmlns="http://www.w3.org/2000/svg"
 width="96.000000pt" height="68.000000pt" viewBox="0 0 96.000000 68.000000"
 preserveAspectRatio="xMidYMid meet">
<metadata>
Created by potrace 1.16, written by Peter Selinger 2001-2019
</metadata>
<g transform="translate(0.000000,68.000000) scale(0.100000,-0.100000)"
fill="#000000" stroke="none">
<path d="M390 518 c0 -24 -54 -89 -97 -115 -31 -20 -43 -34 -41 -48 4 -26 25
-25 201 9 l138 27 26 -21 c29 -23 43 -18 43 14 0 35 -43 65 -130 91 -24 7 -23
5 9 -28 l34 -36 -34 -5 c-59 -11 -173 -26 -194 -26 -15 0 -4 15 44 64 35 36
60 69 57 75 -10 15 -56 14 -56 -1z"/>
</g>
</svg>
