<?xml version="1.0" standalone="no"?>
<!DOCTYPE svg PUBLIC "-//W3C//DTD SVG 20010904//EN"
 "http://www.w3.org/TR/2001/REC-SVG-20010904/DTD/svg10.dtd">
<svg version="1.0" xmlns="http://www.w3.org/2000/svg"
 width="96.000000pt" height="68.000000pt" viewBox="0 0 96.000000 68.000000"
 preserveAspectRatio="xMidYMid meet">
<metadata>
Created by potrace 1.16, written by Peter Selinger 2001-2019
</metadata>
<g transform="translate(0.000000,68.000000) scale(0.100000,-0.100000)"
fill="#000000" stroke="none">
<path d="M685 545 c-8 -3 -401 -38 -535 -47 -41 -3 -45 -19 -7 -32 18 -7 68
-4 154 7 71 9 158 19 194 21 l67 5 6 -37 c3 -20 6 -105 6 -188 0 -172 -5 -185
-61 -165 -53 18 -54 13 -10 -29 48 -46 78 -50 104 -15 16 22 17 46 15 230 l-3
204 109 3 c112 3 140 14 91 36 -24 11 -107 15 -130 7z"/>
<path d="M350 394 c-25 -8 -61 -14 -80 -13 -49 1 -57 0 -45 -9 16 -11 35 -50
35 -71 0 -11 5 -32 11 -48 9 -25 12 -26 20 -10 8 13 23 17 74 17 55 0 64 2 62
18 0 10 10 39 22 66 20 40 21 50 10 57 -19 12 -56 10 -109 -7z m54 -23 c7 -11
-14 -74 -28 -83 -6 -4 -27 -8 -47 -8 -34 0 -37 2 -44 36 -3 20 -3 40 2 44 17
17 109 25 117 11z"/>
</g>
</svg>
