<?xml version="1.0" standalone="no"?>
<!DOCTYPE svg PUBLIC "-//W3C//DTD SVG 20010904//EN"
 "http://www.w3.org/TR/2001/REC-SVG-20010904/DTD/svg10.dtd">
<svg version="1.0" xmlns="http://www.w3.org/2000/svg"
 width="90.000000pt" height="92.000000pt" viewBox="0 0 90.000000 92.000000"
 preserveAspectRatio="xMidYMid meet">
<metadata>
Created by potrace 1.16, written by Peter Selinger 2001-2019
</metadata>
<g transform="translate(0.000000,92.000000) scale(0.100000,-0.100000)"
fill="#000000" stroke="none">
<path d="M645 793 c-38 -7 -83 -17 -100 -22 l-30 -8 25 -10 c14 -6 37 -7 51
-3 26 8 26 8 18 -35 -10 -51 -37 -118 -38 -92 -1 17 -44 41 -63 35 -4 -2 5
-20 22 -40 30 -36 30 -39 16 -66 -8 -16 -27 -44 -42 -61 -28 -34 -15 -43 24
-16 56 40 151 241 131 278 -9 15 -5 17 27 17 l37 0 -6 -72 c-3 -40 -12 -91
-19 -113 -12 -36 -17 -40 -45 -39 l-32 2 26 -39 c29 -44 34 -46 56 -21 27 29
45 82 56 165 6 43 16 88 22 99 10 18 8 24 -12 39 -27 21 -30 21 -124 2z"/>
<path d="M140 744 c36 -51 54 -62 74 -44 14 11 14 39 1 60 -6 9 -69 30 -93 30
-8 0 -1 -18 18 -46z"/>
<path d="M430 781 c-8 -5 -40 -14 -70 -21 -98 -21 -97 -21 -70 -35 13 -7 31
-10 39 -7 12 4 13 -3 8 -42 -4 -26 -9 -51 -12 -56 -2 -4 -23 1 -45 12 -23 11
-43 19 -45 16 -3 -2 11 -22 30 -42 19 -21 35 -42 35 -45 0 -4 -13 -28 -30 -54
-34 -54 -22 -62 22 -15 55 59 111 205 89 232 -9 11 -7 15 11 20 55 14 59 6 47
-98 -12 -111 -15 -119 -49 -114 l-28 4 26 -38 c14 -21 30 -37 36 -35 21 6 48
79 62 165 7 48 16 97 20 109 5 17 0 25 -25 37 -35 18 -31 18 -51 7z"/>
<path d="M71 539 c55 -71 109 -88 109 -35 0 32 -35 56 -92 64 l-43 5 26 -34z"/>
<path d="M617 444 c-3 -4 -3 -14 2 -23 5 -9 12 -67 16 -128 l7 -113 -37 0 -38
0 5 80 c5 82 1 90 -39 90 -11 0 -14 -7 -10 -22 3 -13 9 -53 12 -89 l7 -66 -54
-9 -53 -9 28 -19 c25 -17 33 -17 90 -6 34 7 114 15 177 16 63 2 118 4 122 4 4
0 5 6 2 14 -10 25 -54 37 -115 30 l-59 -7 0 55 0 55 60 7 c40 5 60 11 60 20 0
19 -35 26 -73 15 -49 -14 -50 -13 -44 41 5 42 3 51 -13 60 -21 11 -44 13 -53
4z"/>
<path d="M147 350 c-27 -44 -59 -88 -73 -96 -13 -9 -24 -25 -24 -35 0 -31 29
-91 41 -87 7 2 24 37 39 78 15 41 37 101 49 133 36 91 20 95 -32 7z"/>
<path d="M346 422 c-2 -4 -1 -14 5 -22 5 -8 9 -58 9 -111 0 -79 -3 -98 -16
-103 -39 -15 -43 -8 -46 72 -3 75 -4 77 -30 80 -26 3 -26 2 -18 -30 5 -18 10
-58 12 -88 l3 -55 -42 1 c-47 1 -47 1 -33 -26 20 -38 46 -42 97 -17 27 13 83
36 126 52 49 17 77 33 77 42 0 15 -2 15 -67 -3 -21 -6 -23 -3 -23 39 0 45 0
45 40 52 22 4 40 10 40 15 0 13 -30 20 -56 14 -23 -6 -24 -4 -24 39 0 32 -5
47 -16 51 -21 8 -32 8 -38 -2z"/>
</g>
</svg>
