<?xml version="1.0" standalone="no"?>
<!DOCTYPE svg PUBLIC "-//W3C//DTD SVG 20010904//EN"
 "http://www.w3.org/TR/2001/REC-SVG-20010904/DTD/svg10.dtd">
<svg version="1.0" xmlns="http://www.w3.org/2000/svg"
 width="96.000000pt" height="68.000000pt" viewBox="0 0 96.000000 68.000000"
 preserveAspectRatio="xMidYMid meet">
<metadata>
Created by potrace 1.16, written by Peter Selinger 2001-2019
</metadata>
<g transform="translate(0.000000,68.000000) scale(0.100000,-0.100000)"
fill="#000000" stroke="none">
<path d="M530 541 l0 -48 -42 -9 -43 -8 41 -4 c33 -2 43 -8 48 -25 3 -11 3
-23 0 -26 -3 -3 -32 -5 -64 -6 -33 0 -60 -2 -60 -5 0 -3 7 -13 15 -23 7 -11
17 -38 20 -60 4 -23 12 -50 17 -60 8 -15 11 -16 24 -3 8 8 21 13 30 9 19 -7
15 -57 -6 -60 -105 -13 -113 -15 -99 -24 8 -5 40 -6 72 -3 l57 7 0 -47 c0 -53
4 -51 -105 -33 l-70 12 3 32 c3 24 -2 35 -17 45 -28 17 -27 26 10 64 17 18 28
37 25 43 -8 12 -49 15 -60 3 -4 -4 -22 -12 -39 -19 l-32 -11 38 -1 c42 -1 41
-1 25 -35 -9 -21 -8 -29 5 -44 10 -10 17 -31 17 -45 0 -26 -2 -27 -50 -27 -27
0 -50 -4 -50 -10 0 -12 4 -12 95 -15 44 -1 92 -10 130 -24 33 -12 93 -30 132
-41 67 -17 78 -17 137 -3 35 8 72 20 82 28 17 13 13 14 -42 15 -34 0 -95 3
-137 6 l-76 7 6 51 c3 28 8 53 10 56 3 3 41 7 86 10 106 6 104 26 -2 23 -65
-2 -80 1 -85 14 -10 25 9 36 57 35 44 -2 45 -2 65 45 44 106 37 120 -58 110
-58 -7 -60 -6 -60 17 0 20 6 25 40 31 52 9 52 25 0 25 -39 0 -39 1 -34 30 6
25 3 31 -20 40 -15 5 -29 10 -32 10 -2 0 -4 -22 -4 -49z m135 -146 c0 -16 -8
-21 -42 -23 -37 -3 -43 0 -43 17 0 21 20 30 60 28 18 -2 25 -8 25 -22z m-128
-15 c-1 -11 -8 -20 -17 -21 -8 0 -23 -2 -32 -4 -21 -4 -32 10 -24 30 3 9 19
15 40 15 29 0 34 -4 33 -20z m117 -29 c13 -21 -7 -41 -40 -41 -27 0 -34 4 -34
19 0 14 8 21 28 24 15 2 30 5 34 6 4 0 9 -3 12 -8z m-121 -30 c3 -14 -2 -21
-17 -25 -33 -9 -36 -8 -36 19 0 20 5 25 24 25 15 0 26 -7 29 -19z"/>
<path d="M192 485 c45 -42 78 -46 78 -12 0 28 -35 47 -83 47 l-32 -1 37 -34z"/>
<path d="M310 400 c24 -34 50 -39 50 -10 0 20 -27 40 -55 40 -14 0 -13 -4 5
-30z"/>
<path d="M110 384 c0 -15 58 -64 80 -66 21 -3 25 1 25 22 0 16 -8 29 -25 37
-25 13 -80 18 -80 7z"/>
<path d="M215 239 c-10 -18 -37 -52 -61 -75 -24 -23 -44 -46 -44 -52 0 -22 24
-62 36 -62 13 0 44 49 44 69 0 6 14 39 30 73 18 38 27 65 21 71 -6 6 -16 -4
-26 -24z"/>
</g>
</svg>
