<?xml version="1.0" standalone="no"?>
<!DOCTYPE svg PUBLIC "-//W3C//DTD SVG 20010904//EN"
 "http://www.w3.org/TR/2001/REC-SVG-20010904/DTD/svg10.dtd">
<svg version="1.0" xmlns="http://www.w3.org/2000/svg"
 width="90.000000pt" height="92.000000pt" viewBox="0 0 90.000000 92.000000"
 preserveAspectRatio="xMidYMid meet">
<metadata>
Created by potrace 1.16, written by Peter Selinger 2001-2019
</metadata>
<g transform="translate(0.000000,92.000000) scale(0.100000,-0.100000)"
fill="#000000" stroke="none">
<path d="M525 843 c5 -10 10 -61 13 -114 l4 -96 -67 -8 c-51 -5 -70 -4 -76 6
-6 10 -10 7 -17 -11 -5 -14 -17 -43 -26 -64 -12 -29 -13 -42 -5 -52 6 -8 15
-14 18 -14 9 0 41 66 41 84 0 9 19 16 58 21 175 22 278 32 284 28 4 -2 1 -20
-7 -39 -8 -20 -11 -34 -7 -32 4 2 31 15 59 29 29 13 53 30 53 37 0 7 -20 22
-43 32 -42 19 -49 19 -128 5 -46 -8 -85 -15 -87 -15 -2 0 -2 45 -1 101 2 108
-3 119 -50 119 -18 0 -22 -4 -16 -17z"/>
<path d="M197 823 c-4 -3 -7 -22 -7 -41 0 -46 -66 -185 -135 -283 -31 -44 -55
-85 -53 -91 2 -6 31 17 64 51 81 81 124 83 124 6 0 -21 -7 -25 -55 -35 -30 -6
-55 -15 -55 -20 0 -12 38 -19 74 -13 33 5 33 5 39 -42 14 -99 11 -112 -30
-126 -21 -7 -62 -13 -91 -12 -28 0 -52 -3 -52 -8 0 -10 52 -59 63 -59 4 0 26
9 48 21 23 11 82 36 132 55 51 19 96 39 100 43 19 19 -14 20 -67 1 l-56 -19 0
84 0 84 45 7 c25 3 47 10 50 14 7 11 -52 30 -70 24 -11 -5 -15 2 -15 24 0 17
-6 32 -12 34 -7 3 9 10 35 16 26 7 47 17 47 22 0 19 -42 27 -79 15 -47 -16
-91 -26 -91 -22 0 2 20 43 43 91 l44 86 41 -40 c42 -41 56 -48 67 -29 16 25
-6 58 -50 75 -36 13 -44 21 -40 35 4 11 -2 26 -14 38 -22 22 -33 25 -44 14z"/>
<path d="M680 769 c-8 -17 -24 -46 -36 -65 -13 -19 -22 -34 -19 -34 10 0 125
73 125 80 0 7 -26 32 -46 43 -7 4 -17 -6 -24 -24z"/>
<path d="M420 744 c0 -11 23 -49 43 -71 15 -17 23 -20 34 -12 15 13 16 28 5
46 -8 13 -82 47 -82 37z"/>
<path d="M575 545 c-27 -7 -67 -14 -87 -14 l-37 -1 15 -35 c7 -19 14 -45 14
-57 0 -31 17 -57 28 -42 4 6 30 14 57 18 107 15 113 17 108 36 -3 10 2 31 11
48 15 30 15 32 -6 46 -26 18 -35 18 -103 1z m53 -52 c3 -31 2 -32 -52 -44 -31
-7 -58 -10 -61 -7 -3 2 -7 18 -11 34 -6 29 -4 31 43 41 69 15 78 12 81 -24z"/>
<path d="M685 374 c-22 -8 -257 -32 -276 -27 -23 6 -23 3 -5 -32 8 -15 18 -65
21 -111 4 -46 13 -91 21 -101 11 -15 13 -16 14 -2 0 12 12 16 53 17 28 1 76 5
105 8 52 6 53 6 65 -25 24 -64 61 -20 77 91 6 40 15 91 21 112 10 36 9 41 -13
58 -21 16 -59 22 -83 12z m35 -71 l0 -38 -60 0 -60 0 0 32 c0 36 8 41 73 42
l47 1 0 -37z m-172 -20 c3 -32 2 -33 -32 -33 -19 0 -41 -3 -49 -6 -11 -4 -16
4 -19 30 -5 41 2 46 57 43 37 -2 40 -4 43 -34z m165 -75 c-3 -18 -7 -34 -9
-36 -1 -2 -27 -5 -58 -6 -52 -3 -56 -1 -56 19 0 31 18 43 70 48 25 2 48 4 52
5 4 1 5 -13 1 -30z m-163 -24 c0 -34 0 -34 -45 -34 -44 0 -45 1 -45 33 0 31 1
32 45 34 45 1 45 1 45 -33z"/>
<path d="M294 353 c-3 -10 -10 -29 -15 -42 -14 -34 -7 -34 31 -2 30 25 33 31
21 45 -17 21 -30 20 -37 -1z"/>
<path d="M80 333 c1 -16 45 -87 57 -91 17 -5 27 22 19 51 -7 29 -76 64 -76 40z"/>
</g>
</svg>
