<?xml version="1.0" standalone="no"?>
<!DOCTYPE svg PUBLIC "-//W3C//DTD SVG 20010904//EN"
 "http://www.w3.org/TR/2001/REC-SVG-20010904/DTD/svg10.dtd">
<svg version="1.0" xmlns="http://www.w3.org/2000/svg"
 width="96.000000pt" height="68.000000pt" viewBox="0 0 96.000000 68.000000"
 preserveAspectRatio="xMidYMid meet">
<metadata>
Created by potrace 1.16, written by Peter Selinger 2001-2019
</metadata>
<g transform="translate(0.000000,68.000000) scale(0.100000,-0.100000)"
fill="#000000" stroke="none">
<path d="M630 220 c0 -5 7 -7 16 -3 13 5 15 -2 13 -48 -1 -30 -9 -63 -16 -75
-7 -11 -10 -24 -6 -29 5 -4 4 -6 -2 -3 -5 3 -20 2 -32 -3 -27 -10 -21 -39 9
-39 28 0 61 40 82 101 10 30 24 60 30 68 8 11 8 13 -1 7 -7 -4 -21 -2 -30 3
-10 6 -13 11 -8 11 6 0 3 5 -5 10 -19 13 -50 13 -50 0z m58 -55 c-3 -3 -9 2
-12 12 -6 14 -5 15 5 6 7 -7 10 -15 7 -18z"/>
<path d="M492 201 c-11 -7 -11 -9 2 -14 10 -4 16 -1 16 8 0 17 -1 17 -18 6z"/>
<path d="M538 203 c6 -2 18 -2 25 0 6 3 1 5 -13 5 -14 0 -19 -2 -12 -5z"/>
</g>
</svg>
