<?xml version="1.0" standalone="no"?>
<!DOCTYPE svg PUBLIC "-//W3C//DTD SVG 20010904//EN"
 "http://www.w3.org/TR/2001/REC-SVG-20010904/DTD/svg10.dtd">
<svg version="1.0" xmlns="http://www.w3.org/2000/svg"
 width="96.000000pt" height="68.000000pt" viewBox="0 0 96.000000 68.000000"
 preserveAspectRatio="xMidYMid meet">
<metadata>
Created by potrace 1.16, written by Peter Selinger 2001-2019
</metadata>
<g transform="translate(0.000000,68.000000) scale(0.100000,-0.100000)"
fill="#000000" stroke="none">
<path d="M660 470 c-118 -24 -134 -30 -100 -39 l25 -7 0 -187 c0 -126 4 -190
12 -198 22 -22 33 2 33 74 0 40 4 77 8 82 4 6 41 12 82 13 80 4 94 8 84 24 -4
6 -35 7 -85 3 l-79 -7 0 46 0 46 53 1 c28 1 66 5 82 9 56 13 -2 24 -69 13 -34
-6 -63 -9 -65 -7 -2 1 -4 21 -4 43 -1 23 -5 41 -9 41 -4 0 -8 4 -8 8 0 5 48
14 107 20 101 11 122 16 112 27 -14 14 -96 11 -179 -5z"/>
</g>
</svg>
