<?xml version="1.0" standalone="no"?>
<!DOCTYPE svg PUBLIC "-//W3C//DTD SVG 20010904//EN"
 "http://www.w3.org/TR/2001/REC-SVG-20010904/DTD/svg10.dtd">
<svg version="1.0" xmlns="http://www.w3.org/2000/svg"
 width="90.000000pt" height="92.000000pt" viewBox="0 0 90.000000 92.000000"
 preserveAspectRatio="xMidYMid meet">
<metadata>
Created by potrace 1.16, written by Peter Selinger 2001-2019
</metadata>
<g transform="translate(0.000000,92.000000) scale(0.100000,-0.100000)"
fill="#000000" stroke="none">
<path d="M525 803 c-77 -13 -156 -26 -175 -29 -33 -6 -34 -6 -15 -21 15 -11
36 -13 83 -9 72 6 73 5 41 -73 -22 -51 -22 -51 -57 -45 -32 6 -34 5 -28 -12
14 -36 18 -159 8 -232 -7 -50 -7 -83 0 -103 11 -32 25 -38 34 -14 6 14 34 22
34 10 0 -22 -42 -80 -98 -137 -37 -38 -62 -68 -57 -68 35 0 230 147 230 173 0
6 -10 17 -23 23 -21 10 -19 12 24 18 92 12 134 8 155 -16 16 -20 20 -21 29 -8
11 18 11 15 14 195 2 77 5 149 7 159 3 13 -6 25 -27 38 -30 17 -33 17 -124 -2
-51 -12 -96 -19 -101 -18 -5 2 9 22 31 46 44 48 47 57 24 70 -21 12 13 18 144
28 50 4 92 10 92 15 0 16 -45 39 -75 38 -16 -1 -93 -12 -170 -26z m136 -220
l4 -38 -60 -1 c-33 0 -86 -5 -117 -11 l-58 -10 0 33 c0 32 2 33 63 47 34 9 85
16 113 16 l52 1 3 -37z m9 -104 c0 -39 -1 -41 -25 -35 -14 4 -56 2 -93 -4 -37
-6 -79 -13 -94 -15 -26 -4 -28 -2 -28 28 l0 33 113 16 c61 8 115 16 120 17 4
0 7 -17 7 -40z m0 -111 l0 -43 -126 -2 -125 -2 5 30 c2 17 6 32 8 33 3 3 167
22 211 24 25 2 27 0 27 -40z"/>
<path d="M78 725 c-3 -3 1 -25 9 -48 12 -33 14 -68 8 -162 -3 -66 -11 -136
-17 -157 -12 -41 -4 -86 17 -94 9 -4 56 29 120 82 135 114 140 127 25 69 -100
-50 -100 -51 -100 49 l0 83 76 6 c80 6 111 20 84 38 -14 9 -42 8 -121 -7 l-36
-6 9 57 c7 49 6 61 -8 76 -16 18 -54 26 -66 14z"/>
<path d="M597 226 c10 -13 31 -41 47 -62 51 -67 79 -94 98 -94 34 0 19 85 -21
118 -27 21 -109 62 -127 62 -14 0 -14 -3 3 -24z"/>
</g>
</svg>
