<?xml version="1.0" standalone="no"?>
<!DOCTYPE svg PUBLIC "-//W3C//DTD SVG 20010904//EN"
 "http://www.w3.org/TR/2001/REC-SVG-20010904/DTD/svg10.dtd">
<svg version="1.0" xmlns="http://www.w3.org/2000/svg"
 width="96.000000pt" height="68.000000pt" viewBox="0 0 96.000000 68.000000"
 preserveAspectRatio="xMidYMid meet">
<metadata>
Created by potrace 1.16, written by Peter Selinger 2001-2019
</metadata>
<g transform="translate(0.000000,68.000000) scale(0.100000,-0.100000)"
fill="#000000" stroke="none">
<path d="M510 184 c0 -19 -4 -33 -9 -30 -5 4 -20 2 -33 -3 -21 -9 -19 -10 14
-10 20 -1 43 -4 52 -7 10 -4 16 -1 16 8 0 10 10 13 33 11 32 -4 67 10 55 22
-3 4 -15 2 -25 -3 -23 -13 -82 -4 -61 9 9 6 9 9 1 9 -7 0 -10 7 -7 15 4 10 0
15 -15 15 -17 0 -21 -6 -21 -36z"/>
<path d="M523 106 c3 -7 1 -18 -5 -24 -7 -7 35 -10 137 -9 126 1 144 3 128 15
-13 10 -36 12 -83 7 -144 -14 -150 -14 -150 6 0 11 -7 19 -16 19 -10 0 -14 -6
-11 -14z"/>
<path d="M371 70 c-7 -3 18 -7 54 -8 35 0 67 3 69 7 6 10 -108 11 -123 1z"/>
</g>
</svg>
