<?xml version="1.0" standalone="no"?>
<!DOCTYPE svg PUBLIC "-//W3C//DTD SVG 20010904//EN"
 "http://www.w3.org/TR/2001/REC-SVG-20010904/DTD/svg10.dtd">
<svg version="1.0" xmlns="http://www.w3.org/2000/svg"
 width="96.000000pt" height="68.000000pt" viewBox="0 0 96.000000 68.000000"
 preserveAspectRatio="xMidYMid meet">
<metadata>
Created by potrace 1.16, written by Peter Selinger 2001-2019
</metadata>
<g transform="translate(0.000000,68.000000) scale(0.100000,-0.100000)"
fill="#000000" stroke="none">
<path d="M410 603 c5 -15 12 -49 15 -75 5 -38 10 -48 25 -48 13 0 20 8 22 27
3 28 3 29 111 47 20 4 37 11 37 15 0 13 -40 21 -64 12 -11 -5 -33 -11 -48 -15
-24 -6 -27 -3 -30 26 -3 30 -6 33 -40 36 -36 3 -37 3 -28 -25z"/>
</g>
</svg>
