<?xml version="1.0" standalone="no"?>
<!DOCTYPE svg PUBLIC "-//W3C//DTD SVG 20010904//EN"
 "http://www.w3.org/TR/2001/REC-SVG-20010904/DTD/svg10.dtd">
<svg version="1.0" xmlns="http://www.w3.org/2000/svg"
 width="96.000000pt" height="68.000000pt" viewBox="0 0 96.000000 68.000000"
 preserveAspectRatio="xMidYMid meet">
<metadata>
Created by potrace 1.16, written by Peter Selinger 2001-2019
</metadata>
<g transform="translate(0.000000,68.000000) scale(0.100000,-0.100000)"
fill="#000000" stroke="none">
<path d="M404 618 c4 -13 10 -50 13 -83 l5 -60 -28 -2 c-86 -6 -174 -15 -174
-19 0 -2 10 -14 21 -25 19 -19 21 -29 15 -90 -8 -94 -37 -164 -92 -226 -48
-55 -47 -69 2 -31 90 69 130 155 136 290 l3 78 48 0 c31 0 47 -4 47 -12 0 -7
3 -23 6 -34 5 -19 1 -23 -35 -29 -24 -4 -38 -11 -35 -17 4 -5 18 -8 32 -5 32
6 52 -1 52 -19 0 -7 12 -21 26 -30 29 -19 163 -21 197 -2 36 19 -3 27 -99 21
-87 -6 -91 -5 -96 15 -7 24 -5 25 89 43 72 13 76 35 4 25 -25 -3 -57 -9 -70
-12 -22 -6 -23 -5 -19 20 4 17 0 29 -10 35 -17 10 39 19 135 22 69 3 82 -3 63
-26 -7 -9 -11 -17 -9 -19 6 -6 109 35 109 43 0 4 -18 16 -39 26 -34 15 -48 16
-104 6 -99 -17 -117 -15 -117 13 0 22 5 24 65 31 66 7 86 18 66 38 -9 9 -27 8
-71 -4 l-60 -16 0 28 c0 30 -23 49 -61 49 -17 0 -20 -4 -15 -22z"/>
<path d="M520 175 c0 -89 1 -93 26 -110 33 -22 155 -31 211 -16 22 6 50 19 62
29 l21 17 -30 44 c-17 24 -30 49 -30 55 0 24 -20 -21 -20 -46 0 -44 -35 -59
-121 -56 l-74 3 -2 70 c0 39 -2 75 -2 81 -1 7 -10 14 -21 17 -19 5 -20 0 -20
-88z"/>
<path d="M386 235 c12 -47 -57 -165 -96 -165 -5 0 -10 -4 -10 -9 0 -16 55 8
89 38 29 26 61 94 61 131 0 17 -19 30 -41 30 -5 0 -7 -11 -3 -25z"/>
</g>
</svg>
