<?xml version="1.0" standalone="no"?>
<!DOCTYPE svg PUBLIC "-//W3C//DTD SVG 20010904//EN"
 "http://www.w3.org/TR/2001/REC-SVG-20010904/DTD/svg10.dtd">
<svg version="1.0" xmlns="http://www.w3.org/2000/svg"
 width="96.000000pt" height="68.000000pt" viewBox="0 0 96.000000 68.000000"
 preserveAspectRatio="xMidYMid meet">
<metadata>
Created by potrace 1.16, written by Peter Selinger 2001-2019
</metadata>
<g transform="translate(0.000000,68.000000) scale(0.100000,-0.100000)"
fill="#000000" stroke="none">
<path d="M344 286 l-81 -11 8 -27 c4 -14 3 -48 -2 -74 -5 -26 -7 -56 -3 -66 6
-19 34 -25 34 -8 0 6 28 10 64 10 55 0 66 -3 79 -22 14 -21 17 -21 30 -8 17
17 28 185 14 208 -9 14 -29 13 -143 -2z m111 -37 c4 -11 5 -22 3 -23 -1 -2
-36 -6 -75 -10 -72 -6 -73 -6 -73 18 0 30 10 34 82 35 49 1 58 -2 63 -20z m5
-68 c0 -46 -9 -51 -84 -51 l-73 0 5 29 c4 32 14 35 115 39 30 2 37 -1 37 -17z"/>
</g>
</svg>
