<?xml version="1.0" standalone="no"?>
<!DOCTYPE svg PUBLIC "-//W3C//DTD SVG 20010904//EN"
 "http://www.w3.org/TR/2001/REC-SVG-20010904/DTD/svg10.dtd">
<svg version="1.0" xmlns="http://www.w3.org/2000/svg"
 width="96.000000pt" height="68.000000pt" viewBox="0 0 96.000000 68.000000"
 preserveAspectRatio="xMidYMid meet">
<metadata>
Created by potrace 1.16, written by Peter Selinger 2001-2019
</metadata>
<g transform="translate(0.000000,68.000000) scale(0.100000,-0.100000)"
fill="#000000" stroke="none">
<path d="M236 520 c41 -42 64 -46 64 -11 0 26 -22 41 -67 48 l-38 5 41 -42z"/>
<path d="M120 410 c0 -16 62 -70 81 -70 22 0 26 32 7 48 -18 14 -88 32 -88 22z"/>
<path d="M251 281 c-18 -28 -49 -65 -70 -84 -52 -47 -54 -52 -36 -87 19 -37
32 -38 46 -2 5 15 31 69 56 120 51 102 53 130 4 53z"/>
</g>
</svg>
