<?xml version="1.0" standalone="no"?>
<!DOCTYPE svg PUBLIC "-//W3C//DTD SVG 20010904//EN"
 "http://www.w3.org/TR/2001/REC-SVG-20010904/DTD/svg10.dtd">
<svg version="1.0" xmlns="http://www.w3.org/2000/svg"
 width="90.000000pt" height="92.000000pt" viewBox="0 0 90.000000 92.000000"
 preserveAspectRatio="xMidYMid meet">
<metadata>
Created by potrace 1.16, written by Peter Selinger 2001-2019
</metadata>
<g transform="translate(0.000000,92.000000) scale(0.100000,-0.100000)"
fill="#000000" stroke="none">
<path d="M455 818 c4 -13 9 -46 12 -74 6 -58 11 -55 -105 -69 -83 -11 -60 -30
34 -29 l79 1 -3 -42 c-4 -40 -6 -43 -40 -49 -21 -3 -56 -6 -79 -6 -40 0 -55
-11 -34 -24 4 -3 14 -39 20 -81 7 -41 16 -77 19 -79 4 -2 26 -1 50 4 l43 8 -7
-32 c-9 -44 -18 -50 -52 -32 -32 17 -107 22 -98 7 3 -4 26 -14 51 -21 68 -19
74 -33 38 -83 -17 -23 -55 -62 -84 -86 l-54 -44 35 6 c48 10 106 50 138 97 15
22 31 39 35 40 5 0 43 -29 85 -65 42 -36 96 -74 119 -86 37 -18 49 -19 124 -9
46 5 87 14 92 19 6 6 -13 16 -49 26 -109 30 -179 57 -264 102 -47 25 -86 47
-88 48 -2 2 4 28 14 58 19 62 29 67 135 67 55 0 81 11 59 25 -11 7 37 105 52
105 16 0 7 21 -19 46 -29 27 -47 28 -158 8 l-30 -5 3 44 4 45 51 6 c72 10 127
25 127 36 0 5 -9 14 -21 20 -15 9 -36 8 -83 -4 -34 -9 -66 -16 -71 -16 -4 0
-5 27 -2 60 7 66 -3 80 -59 80 -23 0 -25 -3 -19 -22z m184 -325 c-5 -25 -11
-48 -13 -50 -4 -4 -110 -22 -113 -19 -1 1 1 27 4 59 l6 57 62 0 62 0 -8 -47z
m-169 15 c0 -13 -3 -40 -6 -60 -6 -36 -8 -38 -45 -38 -38 0 -39 1 -39 34 0 19
-2 41 -5 49 -5 12 30 27 88 36 4 0 7 -9 7 -21z"/>
<path d="M216 766 c-10 -66 -75 -191 -150 -289 -36 -48 -66 -89 -66 -93 0 -11
63 39 110 89 l48 50 8 -38 c8 -47 -1 -206 -18 -286 -10 -51 -10 -63 5 -94 9
-19 21 -35 26 -35 18 0 30 91 32 260 2 152 1 179 -14 201 -17 26 -17 27 38
125 31 54 54 103 51 110 -3 7 -18 20 -34 28 l-30 15 -6 -43z"/>
</g>
</svg>
