<?xml version="1.0" standalone="no"?>
<!DOCTYPE svg PUBLIC "-//W3C//DTD SVG 20010904//EN"
 "http://www.w3.org/TR/2001/REC-SVG-20010904/DTD/svg10.dtd">
<svg version="1.0" xmlns="http://www.w3.org/2000/svg"
 width="90.000000pt" height="92.000000pt" viewBox="0 0 90.000000 92.000000"
 preserveAspectRatio="xMidYMid meet">
<metadata>
Created by potrace 1.16, written by Peter Selinger 2001-2019
</metadata>
<g transform="translate(0.000000,92.000000) scale(0.100000,-0.100000)"
fill="#000000" stroke="none">
<path d="M450 875 c0 -3 9 -23 20 -45 11 -21 16 -41 12 -44 -4 -2 -40 -8 -80
-11 -72 -8 -92 -23 -43 -35 16 -4 28 -19 41 -52 21 -56 24 -55 -100 -64 -93
-7 -114 -20 -66 -42 19 -8 46 -6 118 8 118 24 357 44 424 35 58 -7 73 3 44 30
-22 19 -36 20 -165 6 -44 -4 -82 -7 -84 -5 -1 1 9 18 24 38 14 19 25 43 23 52
-2 13 5 20 26 24 16 3 31 11 34 18 6 18 -38 31 -73 21 -51 -15 -65 -11 -65 16
0 17 -9 29 -30 40 -29 15 -60 20 -60 10z m110 -131 c0 -26 -25 -94 -35 -94 -7
0 -27 -3 -44 -6 -29 -6 -31 -5 -31 25 0 19 -8 38 -20 49 -21 17 -20 17 17 23
52 8 113 10 113 3z"/>
<path d="M120 798 c0 -13 47 -78 69 -94 22 -17 41 -6 41 26 0 31 -21 53 -69
69 -42 14 -41 14 -41 -1z"/>
<path d="M36 591 c-3 -4 14 -29 38 -56 30 -35 47 -47 59 -42 18 7 22 43 8 65
-10 16 -99 44 -105 33z"/>
<path d="M545 565 c-27 -8 -92 -18 -143 -22 -86 -6 -91 -7 -77 -23 9 -9 21
-49 29 -87 7 -39 16 -75 20 -81 3 -6 23 -8 45 -5 35 5 39 3 45 -22 4 -15 5
-29 3 -31 -2 -2 -43 -6 -93 -9 -49 -4 -100 -8 -113 -11 -23 -5 -23 -6 -7 -22
18 -19 69 -21 159 -8 l57 8 0 -103 c0 -57 4 -110 9 -117 14 -23 32 44 38 140
l6 88 139 0 c149 0 163 6 101 43 -27 15 -40 16 -95 7 -94 -15 -141 -13 -134 5
3 8 -4 21 -15 29 -19 13 -17 14 28 18 26 2 50 0 51 -4 2 -4 11 -8 20 -8 12 0
32 31 62 95 l46 96 -25 16 c-34 22 -96 25 -156 8z m83 -58 c3 -25 1 -27 -22
-21 -13 3 -59 -1 -101 -10 -105 -22 -115 -21 -115 8 0 21 6 26 43 31 201 28
191 29 195 -8z m-8 -51 c0 -1 -5 -16 -10 -32 l-10 -29 -100 -3 c-93 -3 -100
-1 -100 17 0 16 11 21 73 31 39 6 79 13 87 14 22 5 60 7 60 2z"/>
<path d="M187 414 c-21 -39 -61 -96 -88 -128 -50 -55 -50 -56 -38 -93 16 -53
28 -66 45 -52 8 6 14 18 14 25 0 8 25 75 56 150 62 153 69 207 11 98z"/>
</g>
</svg>
