<?xml version="1.0" standalone="no"?>
<!DOCTYPE svg PUBLIC "-//W3C//DTD SVG 20010904//EN"
 "http://www.w3.org/TR/2001/REC-SVG-20010904/DTD/svg10.dtd">
<svg version="1.0" xmlns="http://www.w3.org/2000/svg"
 width="96.000000pt" height="68.000000pt" viewBox="0 0 96.000000 68.000000"
 preserveAspectRatio="xMidYMid meet">
<metadata>
Created by potrace 1.16, written by Peter Selinger 2001-2019
</metadata>
<g transform="translate(0.000000,68.000000) scale(0.100000,-0.100000)"
fill="#000000" stroke="none">
<path d="M510 567 c0 -27 -70 -157 -106 -196 -20 -23 -34 -44 -31 -47 9 -10
94 75 127 127 18 27 34 49 37 49 3 0 39 -31 79 -70 l74 -70 64 0 c36 0 67 4
70 9 4 5 -18 17 -46 27 -135 44 -234 110 -222 147 4 11 1 23 -7 28 -20 13 -39
11 -39 -4z"/>
<path d="M285 503 c-33 -6 -82 -15 -109 -18 -58 -8 -50 -23 16 -27 l47 -3 -19
-44 c-11 -24 -38 -65 -60 -91 -37 -44 -56 -80 -28 -52 21 21 45 13 73 -23 32
-42 28 -50 -51 -127 -27 -27 -44 -48 -38 -48 16 0 77 50 111 91 15 19 31 36
36 37 4 2 7 7 7 12 0 9 66 120 80 134 28 28 -17 52 -65 35 -45 -17 -52 -8 -26
34 11 19 18 37 15 40 -3 3 21 11 55 18 36 7 61 17 61 24 0 19 -38 22 -105 8z
m4 -190 c-29 -68 -37 -75 -58 -55 -10 9 -26 22 -36 28 -18 10 -18 12 4 42 19
28 28 32 66 32 l44 0 -20 -47z"/>
<path d="M508 377 c-68 -15 -61 -31 10 -24 66 7 92 15 92 28 0 11 -40 10 -102
-4z"/>
<path d="M621 308 c-19 -5 -43 -7 -53 -5 -10 3 -18 4 -18 4 0 -1 9 -24 19 -52
14 -36 24 -49 36 -47 13 3 15 -1 9 -20 -8 -27 -51 -86 -79 -110 -11 -9 -17
-19 -13 -23 3 -4 24 10 46 29 22 20 45 36 51 36 6 0 36 -20 67 -45 57 -47 69
-52 79 -35 11 18 -21 56 -57 69 -18 7 -44 17 -57 22 l-24 10 24 25 c24 25 24
26 5 40 -19 13 -18 14 13 14 23 0 32 4 28 13 -3 7 1 24 9 38 7 13 13 30 14 37
0 14 -49 15 -99 0z m44 -38 c0 -18 -7 -26 -29 -31 -35 -10 -33 -11 -38 20 -2
19 3 26 22 32 36 10 45 6 45 -21z"/>
<path d="M440 289 c-14 -6 -38 -8 -53 -5 -21 4 -27 2 -23 -7 3 -6 10 -31 16
-53 10 -35 15 -41 32 -36 34 9 14 -42 -32 -84 -57 -51 -50 -63 11 -19 l51 36
22 -20 c28 -26 46 -27 46 -2 0 12 -9 21 -25 25 -23 6 -24 9 -14 28 9 17 9 23
0 26 -19 6 -1 22 27 22 19 0 23 3 15 11 -9 9 -9 19 2 39 23 44 -14 63 -75 39z
m32 -49 c-4 -26 -8 -30 -36 -30 -28 0 -32 3 -34 30 -2 29 0 30 36 30 37 0 38
-1 34 -30z"/>
</g>
</svg>
