<?xml version="1.0" standalone="no"?>
<!DOCTYPE svg PUBLIC "-//W3C//DTD SVG 20010904//EN"
 "http://www.w3.org/TR/2001/REC-SVG-20010904/DTD/svg10.dtd">
<svg version="1.0" xmlns="http://www.w3.org/2000/svg"
 width="96.000000pt" height="68.000000pt" viewBox="0 0 96.000000 68.000000"
 preserveAspectRatio="xMidYMid meet">
<metadata>
Created by potrace 1.16, written by Peter Selinger 2001-2019
</metadata>
<g transform="translate(0.000000,68.000000) scale(0.100000,-0.100000)"
fill="#000000" stroke="none">
<path d="M271 531 c-17 -65 -59 -131 -139 -213 -78 -81 -61 -94 29 -23 45 35
58 42 61 29 3 -15 -6 -159 -14 -239 -5 -45 25 -44 93 4 48 34 63 40 78 31 11
-5 21 -15 23 -22 5 -15 28 -1 28 17 0 18 -48 55 -73 55 -16 0 -17 -3 -7 -15
10 -12 7 -17 -16 -26 -16 -6 -42 -13 -57 -16 l-28 -6 3 54 3 54 48 5 c26 3 53
3 59 -1 19 -12 37 9 52 60 8 25 17 53 21 62 7 19 -45 45 -72 35 -9 -4 -41 -9
-71 -13 l-54 -6 17 27 c10 15 24 25 32 22 21 -8 116 16 101 26 -19 11 -62 10
-75 -3 -6 -6 -16 -10 -22 -8 -7 3 -1 19 14 41 l26 38 49 -28 c50 -28 78 -24
65 9 -6 16 -59 39 -88 39 -10 0 -14 6 -11 14 6 17 -22 46 -45 46 -12 0 -21
-14 -30 -49z m106 -201 c1 -11 -4 -20 -11 -20 -7 0 -34 -3 -60 -6 -42 -6 -46
-5 -46 14 0 22 17 28 80 31 29 1 36 -3 37 -19z m-7 -59 c0 -26 -5 -28 -65 -32
-45 -4 -50 -2 -50 16 0 15 9 22 35 26 67 12 80 10 80 -10z"/>
<path d="M625 535 c-27 -19 -72 -42 -98 -51 -67 -22 -52 -29 19 -9 33 10 85
24 117 33 59 17 71 34 38 52 -25 13 -18 15 -76 -25z"/>
<path d="M742 457 c-12 -13 -22 -28 -22 -33 0 -6 -11 -21 -25 -34 -30 -28 -26
-37 7 -17 12 8 43 27 66 42 42 25 43 27 26 46 -22 24 -26 24 -52 -4z"/>
<path d="M560 444 c0 -14 59 -66 69 -60 16 10 14 23 -9 46 -18 18 -60 28 -60
14z"/>
<path d="M471 395 c24 -41 49 -46 49 -10 0 24 -25 45 -54 45 -13 0 -12 -6 5
-35z"/>
<path d="M559 353 c-2 -9 -5 -36 -7 -70 -2 -21 -7 -23 -62 -23 -33 0 -60 -4
-60 -9 0 -13 26 -21 66 -21 37 0 43 -10 19 -30 -20 -17 -4 -37 38 -46 18 -3
36 -9 40 -11 14 -9 -26 -31 -99 -54 -38 -12 -63 -24 -57 -26 20 -7 117 16 159
37 21 11 42 20 46 20 5 0 38 -18 74 -40 70 -42 94 -49 94 -26 0 20 -43 52 -88
67 -20 6 -41 15 -46 19 -5 5 6 31 24 59 l33 51 58 0 c32 0 60 4 64 9 7 13 -56
30 -88 24 -13 -3 -28 0 -31 6 -11 16 -46 13 -46 -4 0 -11 -12 -15 -49 -15
l-50 0 11 31 c9 25 7 32 -8 44 -21 16 -33 19 -35 8z m131 -113 c0 -5 -14 -26
-32 -45 -28 -33 -35 -36 -67 -30 -51 9 -57 19 -32 54 20 28 27 31 77 31 30 0
54 -4 54 -10z"/>
</g>
</svg>
