<?xml version="1.0" standalone="no"?>
<!DOCTYPE svg PUBLIC "-//W3C//DTD SVG 20010904//EN"
 "http://www.w3.org/TR/2001/REC-SVG-20010904/DTD/svg10.dtd">
<svg version="1.0" xmlns="http://www.w3.org/2000/svg"
 width="96.000000pt" height="68.000000pt" viewBox="0 0 96.000000 68.000000"
 preserveAspectRatio="xMidYMid meet">
<metadata>
Created by potrace 1.16, written by Peter Selinger 2001-2019
</metadata>
<g transform="translate(0.000000,68.000000) scale(0.100000,-0.100000)"
fill="#000000" stroke="none">
<path d="M555 561 c-7 -24 -70 -88 -109 -112 -42 -26 -13 -24 39 2 l41 21 36
-24 c34 -23 35 -25 16 -37 -15 -9 -22 -9 -33 3 -19 18 -54 30 -63 21 -4 -4 0
-10 8 -15 8 -5 23 -15 34 -23 17 -13 16 -15 -20 -34 -22 -11 -56 -26 -77 -32
-51 -17 -40 -25 13 -11 23 6 44 9 47 7 6 -7 -15 -47 -40 -74 -28 -31 -7 -29
29 2 19 17 41 25 65 25 31 0 38 -4 43 -26 7 -25 2 -38 -12 -40 -4 0 -47 -4
-95 -8 -53 -5 -85 -12 -79 -18 12 -12 54 -13 130 -3 l63 8 -3 -54 -3 -53 -43
-4 -43 -4 3 34 c3 29 0 33 -23 36 -23 3 -26 0 -26 -30 0 -18 -3 -43 -7 -55
-11 -29 21 -38 70 -19 52 20 136 36 184 36 33 0 40 -3 40 -20 0 -27 19 -25 29
3 19 48 21 95 6 107 -23 19 -43 6 -37 -25 6 -34 -10 -45 -65 -45 l-43 0 0 49
0 48 97 7 c53 4 99 9 102 11 13 14 -20 20 -101 18 l-89 -2 3 32 c3 31 5 32 53
35 59 4 80 18 41 28 -23 6 -59 1 -176 -22 -23 -4 -26 -1 -25 21 0 16 8 31 20
37 40 22 151 98 184 126 l35 30 -33 16 c-26 14 -39 15 -63 7 -40 -14 -71 -14
-63 -1 9 15 -14 40 -36 40 -10 0 -20 -8 -24 -19z m125 -59 c0 -5 -14 -21 -31
-38 -27 -26 -32 -27 -42 -13 -7 9 -24 19 -39 23 -40 9 -35 24 10 29 71 7 102
7 102 -1z"/>
<path d="M245 482 c-112 -18 -118 -20 -110 -32 3 -5 26 -10 50 -10 39 0 45 -3
51 -24 3 -13 4 -38 2 -57 -3 -31 -6 -34 -40 -37 -50 -4 -49 -22 1 -22 42 0 51
-13 51 -76 0 -38 -10 -47 -75 -64 -67 -18 -70 -20 -45 -37 28 -20 70 -11 129
26 25 16 63 37 84 47 20 10 37 21 37 26 0 11 -3 10 -36 -7 -50 -26 -55 -21
-52 42 3 55 4 58 32 63 43 7 47 33 5 28 l-34 -3 0 52 c-1 53 -1 53 35 59 53 8
64 14 54 23 -18 17 -50 18 -139 3z"/>
</g>
</svg>
