<?xml version="1.0" standalone="no"?>
<!DOCTYPE svg PUBLIC "-//W3C//DTD SVG 20010904//EN"
 "http://www.w3.org/TR/2001/REC-SVG-20010904/DTD/svg10.dtd">
<svg version="1.0" xmlns="http://www.w3.org/2000/svg"
 width="90.000000pt" height="92.000000pt" viewBox="0 0 90.000000 92.000000"
 preserveAspectRatio="xMidYMid meet">
<metadata>
Created by potrace 1.16, written by Peter Selinger 2001-2019
</metadata>
<g transform="translate(0.000000,92.000000) scale(0.100000,-0.100000)"
fill="#000000" stroke="none">
<path d="M174 828 c4 -18 10 -81 13 -139 l5 -107 -51 -11 c-29 -6 -65 -11 -81
-11 -38 0 -47 -17 -17 -31 16 -7 43 -8 85 -2 l62 10 0 -61 0 -61 -63 -36 c-34
-21 -77 -44 -94 -53 -26 -13 -33 -23 -33 -45 0 -18 6 -31 16 -35 18 -7 19 -6
103 67 29 26 57 47 63 47 9 0 4 -113 -8 -168 -4 -22 -8 -23 -46 -17 l-41 7 49
-56 c27 -31 52 -56 56 -56 4 0 14 10 22 22 13 18 16 53 16 169 l0 146 40 32
c49 39 53 61 6 32 -18 -12 -36 -21 -40 -21 -12 0 -6 91 7 95 6 2 31 9 55 15
48 12 53 25 18 41 -17 8 -33 8 -55 1 l-30 -11 6 72 c3 40 11 89 18 109 13 40
7 51 -42 77 -37 19 -46 14 -39 -21z"/>
<path d="M625 770 c-10 -17 -116 -67 -178 -85 -31 -9 -57 -19 -57 -22 0 -3 32
-3 71 1 l71 6 -4 -74 c-2 -41 -6 -77 -10 -81 -3 -3 -47 -12 -98 -20 -51 -8
-94 -16 -97 -19 -3 -2 5 -10 18 -16 17 -10 39 -10 96 0 41 6 76 10 78 8 2 -1
1 -33 -2 -70 l-6 -68 -41 -2 c-77 -3 -81 -4 -77 -19 25 -89 31 -118 31 -144 1
-16 7 -43 15 -60 13 -28 14 -29 20 -9 6 20 16 22 131 29 113 6 141 14 115 30
-11 6 25 122 46 146 12 15 11 19 -14 39 -29 23 -58 23 -152 4 l-34 -7 7 64 c4
35 12 68 17 74 5 5 53 11 107 12 53 2 107 6 120 9 31 6 28 29 -7 43 -27 12
-63 9 -183 -15 -25 -5 -28 -3 -28 22 0 14 5 44 12 65 9 33 9 42 -6 57 -16 18
-14 20 49 37 36 9 65 21 65 25 0 10 -49 50 -61 50 -4 0 -11 -5 -14 -10z m45
-469 c0 -40 -24 -120 -37 -125 -7 -3 -49 -9 -92 -12 l-78 -7 -6 39 c-4 22 -7
53 -7 71 l0 31 73 10 c122 16 147 15 147 -7z"/>
</g>
</svg>
