<?xml version="1.0" standalone="no"?>
<!DOCTYPE svg PUBLIC "-//W3C//DTD SVG 20010904//EN"
 "http://www.w3.org/TR/2001/REC-SVG-20010904/DTD/svg10.dtd">
<svg version="1.0" xmlns="http://www.w3.org/2000/svg"
 width="96.000000pt" height="68.000000pt" viewBox="0 0 96.000000 68.000000"
 preserveAspectRatio="xMidYMid meet">
<metadata>
Created by potrace 1.16, written by Peter Selinger 2001-2019
</metadata>
<g transform="translate(0.000000,68.000000) scale(0.100000,-0.100000)"
fill="#000000" stroke="none">
<path d="M590 443 c0 -76 -5 -81 -78 -88 -84 -8 -104 -14 -96 -27 4 -6 35 -7
85 -3 l78 7 -6 -51 c-5 -42 -3 -51 10 -51 16 0 20 9 33 70 3 19 12 38 18 42 6
4 52 8 101 8 101 0 135 11 87 28 -21 7 -54 7 -107 0 -42 -5 -79 -8 -81 -5 -3
3 0 24 6 46 13 49 8 61 -26 61 -21 0 -24 -4 -24 -37z"/>
</g>
</svg>
