<?xml version="1.0" standalone="no"?>
<!DOCTYPE svg PUBLIC "-//W3C//DTD SVG 20010904//EN"
 "http://www.w3.org/TR/2001/REC-SVG-20010904/DTD/svg10.dtd">
<svg version="1.0" xmlns="http://www.w3.org/2000/svg"
 width="96.000000pt" height="68.000000pt" viewBox="0 0 96.000000 68.000000"
 preserveAspectRatio="xMidYMid meet">
<metadata>
Created by potrace 1.16, written by Peter Selinger 2001-2019
</metadata>
<g transform="translate(0.000000,68.000000) scale(0.100000,-0.100000)"
fill="#000000" stroke="none">
<path d="M675 490 c-86 -17 -214 -30 -229 -24 -15 6 -16 -2 -10 -87 4 -52 8
-96 10 -98 1 -1 7 0 13 4 6 3 11 39 11 80 0 86 -12 77 131 95 116 14 119 12
117 -66 -1 -61 -3 -64 -27 -64 l-24 0 24 -26 24 -25 22 26 c16 18 23 39 23 69
0 24 3 57 6 73 5 24 2 31 -21 41 -14 7 -27 12 -28 11 -1 -1 -20 -5 -42 -9z"/>
</g>
</svg>
