<?xml version="1.0" standalone="no"?>
<!DOCTYPE svg PUBLIC "-//W3C//DTD SVG 20010904//EN"
 "http://www.w3.org/TR/2001/REC-SVG-20010904/DTD/svg10.dtd">
<svg version="1.0" xmlns="http://www.w3.org/2000/svg"
 width="96.000000pt" height="68.000000pt" viewBox="0 0 96.000000 68.000000"
 preserveAspectRatio="xMidYMid meet">
<metadata>
Created by potrace 1.16, written by Peter Selinger 2001-2019
</metadata>
<g transform="translate(0.000000,68.000000) scale(0.100000,-0.100000)"
fill="#000000" stroke="none">
<path d="M265 529 c-16 -4 -47 -6 -69 -2 -36 6 -39 4 -31 -13 14 -32 18 -188
6 -265 -7 -41 -23 -98 -36 -128 -30 -65 -31 -69 -4 -45 28 26 66 92 74 131 4
21 11 30 20 27 8 -3 31 6 52 20 l38 26 3 -71 c4 -96 1 -103 -46 -96 l-37 6 40
-34 c75 -66 85 -47 85 172 1 92 5 188 10 213 7 37 6 47 -8 58 -18 14 -53 14
-97 1z m53 -83 c2 -56 0 -67 -10 -59 -7 6 -30 14 -50 18 -36 7 -38 9 -38 45 0
39 11 54 45 63 45 11 50 5 53 -67z m-58 -77 c16 -12 36 -19 44 -16 12 5 16 0
16 -24 0 -30 -10 -38 -72 -53 l-28 -6 0 60 c0 33 2 60 5 60 3 0 19 -10 35 -21z"/>
</g>
</svg>
