<?xml version="1.0" standalone="no"?>
<!DOCTYPE svg PUBLIC "-//W3C//DTD SVG 20010904//EN"
 "http://www.w3.org/TR/2001/REC-SVG-20010904/DTD/svg10.dtd">
<svg version="1.0" xmlns="http://www.w3.org/2000/svg"
 width="96.000000pt" height="68.000000pt" viewBox="0 0 96.000000 68.000000"
 preserveAspectRatio="xMidYMid meet">
<metadata>
Created by potrace 1.16, written by Peter Selinger 2001-2019
</metadata>
<g transform="translate(0.000000,68.000000) scale(0.100000,-0.100000)"
fill="#000000" stroke="none">
<path d="M430 393 c-58 -7 -120 -12 -138 -9 -36 5 -39 0 -16 -25 8 -9 23 -39
34 -65 15 -40 23 -49 42 -48 13 1 68 4 123 7 l100 4 44 64 c41 59 42 63 25 76
-22 16 -75 15 -214 -4z m148 -30 c-3 -15 -18 -19 -90 -25 -48 -3 -101 -9 -118
-13 -23 -5 -32 -3 -36 10 -4 9 -4 19 0 22 7 8 114 20 189 22 51 1 58 -1 55
-16z m-18 -62 c0 -16 -11 -19 -95 -25 -98 -7 -115 -5 -115 19 0 10 17 15 63
18 149 8 147 8 147 -12z"/>
</g>
</svg>
