<?xml version="1.0" standalone="no"?>
<!DOCTYPE svg PUBLIC "-//W3C//DTD SVG 20010904//EN"
 "http://www.w3.org/TR/2001/REC-SVG-20010904/DTD/svg10.dtd">
<svg version="1.0" xmlns="http://www.w3.org/2000/svg"
 width="96.000000pt" height="68.000000pt" viewBox="0 0 96.000000 68.000000"
 preserveAspectRatio="xMidYMid meet">
<metadata>
Created by potrace 1.16, written by Peter Selinger 2001-2019
</metadata>
<g transform="translate(0.000000,68.000000) scale(0.100000,-0.100000)"
fill="#000000" stroke="none">
<path d="M445 385 l-30 -13 28 -1 c25 -1 27 -4 27 -43 0 -24 -9 -62 -20 -86
-17 -39 -22 -42 -46 -36 l-27 7 19 -26 c39 -54 75 -26 103 84 11 41 22 81 26
90 4 10 -3 19 -20 27 -14 7 -27 12 -28 12 -1 -1 -15 -7 -32 -15z"/>
</g>
</svg>
