<?xml version="1.0" standalone="no"?>
<!DOCTYPE svg PUBLIC "-//W3C//DTD SVG 20010904//EN"
 "http://www.w3.org/TR/2001/REC-SVG-20010904/DTD/svg10.dtd">
<svg version="1.0" xmlns="http://www.w3.org/2000/svg"
 width="90.000000pt" height="92.000000pt" viewBox="0 0 90.000000 92.000000"
 preserveAspectRatio="xMidYMid meet">
<metadata>
Created by potrace 1.16, written by Peter Selinger 2001-2019
</metadata>
<g transform="translate(0.000000,92.000000) scale(0.100000,-0.100000)"
fill="#000000" stroke="none">
<path d="M374 793 c3 -16 9 -56 12 -89 7 -68 14 -61 -73 -84 -65 -16 -54 -33
17 -28 l61 4 -3 -55 -3 -56 -80 -40 c-44 -22 -82 -41 -84 -42 -8 -5 33 -43 46
-43 8 0 36 18 62 40 26 22 49 40 52 40 5 0 0 -85 -7 -118 -4 -20 -9 -23 -36
-17 l-31 7 38 -46 c20 -25 41 -46 46 -46 20 0 29 46 29 149 0 61 3 111 8 111
11 1 75 61 69 66 -2 3 -21 -5 -41 -17 l-37 -22 3 54 c3 51 4 53 36 60 18 4 36
10 40 13 9 10 -19 26 -47 26 -22 0 -23 3 -18 43 3 23 9 52 12 64 6 17 1 25
-24 37 -44 23 -54 21 -47 -11z"/>
<path d="M657 703 c-54 -51 -60 -55 -93 -48 l-36 6 7 -33 c10 -45 8 -172 -5
-236 -5 -29 -21 -81 -34 -114 l-25 -60 29 27 c32 31 65 119 76 203 4 31 12 52
19 52 7 0 27 3 44 6 l31 7 1 -159 c0 -88 4 -168 9 -179 15 -39 33 34 38 160 2
66 9 129 14 139 8 15 7 22 -6 31 -13 10 -6 13 40 18 66 7 76 13 49 34 -21 15
-46 14 -160 -11 l-60 -13 -3 39 c-2 22 2 45 7 52 6 7 43 24 83 37 96 31 103
37 81 61 -37 41 -46 39 -106 -19z"/>
<path d="M98 714 c6 -10 26 -34 45 -52 43 -41 72 -40 72 3 0 33 -27 52 -91 62
-33 6 -35 4 -26 -13z"/>
<path d="M106 525 c-27 -13 -58 -26 -70 -29 -40 -11 5 -27 57 -20 l48 6 -15
-37 c-15 -35 -14 -38 10 -75 15 -22 29 -60 32 -85 l5 -45 -72 0 c-77 0 -89
-11 -51 -45 16 -14 24 -15 51 -6 78 27 148 11 387 -88 74 -31 138 -51 161 -51
33 0 113 23 206 59 47 19 13 31 -88 31 -116 0 -262 17 -345 39 -221 61 -232
65 -225 86 14 39 4 78 -28 111 l-31 32 41 45 c23 24 41 49 41 55 0 10 -52 44
-62 41 -2 0 -25 -11 -52 -24z"/>
</g>
</svg>
