<?xml version="1.0" standalone="no"?>
<!DOCTYPE svg PUBLIC "-//W3C//DTD SVG 20010904//EN"
 "http://www.w3.org/TR/2001/REC-SVG-20010904/DTD/svg10.dtd">
<svg version="1.0" xmlns="http://www.w3.org/2000/svg"
 width="90.000000pt" height="92.000000pt" viewBox="0 0 90.000000 92.000000"
 preserveAspectRatio="xMidYMid meet">
<metadata>
Created by potrace 1.16, written by Peter Selinger 2001-2019
</metadata>
<g transform="translate(0.000000,92.000000) scale(0.100000,-0.100000)"
fill="#000000" stroke="none">
<path d="M449 738 c-2 -134 -7 -152 -47 -158 -43 -7 -46 -24 -4 -28 28 -3 32
-7 32 -31 0 -16 -3 -43 -6 -60 -6 -29 -9 -31 -50 -31 -39 0 -60 -13 -34 -22 5
-1 16 -36 23 -76 15 -79 24 -95 38 -71 6 11 30 19 74 24 58 6 65 9 60 25 -3
11 4 41 15 69 12 27 19 54 16 60 -10 16 -64 23 -86 11 -21 -11 -22 -10 -16 19
3 17 8 44 12 60 4 24 11 30 44 35 21 3 42 11 46 17 10 17 -17 30 -50 24 l-29
-5 7 51 c4 28 14 72 22 97 16 45 15 46 -8 63 -12 10 -31 19 -40 19 -16 0 -18
-11 -19 -92z m47 -370 c-4 -23 -9 -44 -11 -46 -2 -2 -22 -6 -44 -9 l-41 -6 0
46 c0 49 5 54 69 56 l34 1 -7 -42z"/>
<path d="M125 780 c-4 -6 -2 -16 3 -23 6 -7 13 -48 17 -93 l7 -81 -41 -7 c-23
-3 -53 -3 -66 0 -29 7 -31 2 -11 -29 8 -12 19 -49 25 -82 12 -62 26 -88 39
-69 4 6 17 14 29 18 17 5 21 3 18 -11 -2 -10 -4 -37 -4 -60 -1 -38 -3 -42 -33
-49 -18 -4 -50 -6 -71 -6 -44 2 -47 -8 -10 -43 29 -26 48 -31 57 -16 3 4 44
25 91 46 l86 39 24 -30 23 -29 12 26 c16 36 1 63 -50 89 -33 17 -40 18 -40 6
0 -8 5 -18 11 -22 8 -4 3 -12 -12 -20 -37 -21 -40 -18 -37 39 l3 52 44 5 c36
4 45 9 46 26 1 12 11 38 23 58 29 48 28 58 -7 79 -22 13 -35 14 -62 7 -19 -6
-36 -10 -39 -10 -7 0 4 116 14 147 6 18 1 25 -23 37 -35 19 -57 20 -66 6z
m122 -261 c-5 -41 -19 -59 -44 -59 -9 0 -13 17 -13 50 0 49 0 50 31 50 31 0
32 0 26 -41z m-102 -13 c-3 -50 -10 -66 -29 -66 -20 0 -32 90 -14 101 33 21
46 10 43 -35z"/>
<path d="M715 705 c-24 -8 -60 -11 -89 -8 -46 6 -49 5 -41 -13 41 -99 28 -323
-24 -439 -16 -33 -47 -81 -70 -107 -48 -54 -42 -62 15 -19 58 42 80 70 110
136 33 73 30 70 48 56 11 -9 23 -2 60 36 l46 48 0 -102 c0 -113 -11 -159 -36
-149 -9 3 -28 9 -42 13 -24 6 -23 2 22 -50 27 -32 55 -57 62 -57 7 0 21 15 31
33 16 28 18 63 18 287 0 140 4 269 8 285 8 27 5 32 -21 48 -34 20 -42 20 -97
2z m53 -120 c1 -49 -1 -75 -7 -66 -5 7 -29 16 -55 18 l-46 6 0 58 c0 64 5 68
70 66 l35 -2 3 -80z m-8 -110 c8 5 10 -4 8 -26 -3 -30 -10 -37 -58 -62 -65
-33 -66 -31 -55 69 l7 64 43 -26 c25 -14 49 -22 55 -19z"/>
</g>
</svg>
