<?xml version="1.0" standalone="no"?>
<!DOCTYPE svg PUBLIC "-//W3C//DTD SVG 20010904//EN"
 "http://www.w3.org/TR/2001/REC-SVG-20010904/DTD/svg10.dtd">
<svg version="1.0" xmlns="http://www.w3.org/2000/svg"
 width="90.000000pt" height="92.000000pt" viewBox="0 0 90.000000 92.000000"
 preserveAspectRatio="xMidYMid meet">
<metadata>
Created by potrace 1.16, written by Peter Selinger 2001-2019
</metadata>
<g transform="translate(0.000000,92.000000) scale(0.100000,-0.100000)"
fill="#000000" stroke="none">
<path d="M485 850 c-3 -5 -1 -18 5 -29 5 -11 10 -53 10 -94 l0 -75 -55 -7
c-30 -3 -55 -11 -55 -16 0 -12 45 -22 80 -17 30 4 30 4 30 -43 l0 -47 -62 -7
c-35 -4 -72 -11 -83 -15 -19 -7 -18 -9 8 -21 23 -10 42 -10 103 0 42 7 78 11
80 8 6 -6 -125 -148 -174 -188 -23 -18 -38 -35 -33 -37 10 -3 71 27 109 54
l22 16 0 -106 c0 -104 13 -163 30 -137 4 8 41 15 89 18 72 5 83 4 96 -13 15
-19 15 -19 30 0 11 15 15 46 15 122 0 56 3 114 6 130 5 25 1 32 -24 47 -28 16
-35 16 -94 2 -70 -16 -98 -19 -98 -7 0 4 24 32 53 64 l52 56 113 7 c112 8 129
15 95 41 -21 16 -72 17 -132 3 -24 -5 -46 -8 -48 -6 -3 4 55 104 100 170 10
16 8 22 -18 42 l-30 24 -20 -62 c-47 -145 -145 -255 -145 -163 0 46 9 66 30
66 9 0 31 5 49 11 26 9 30 14 19 26 -9 11 -23 13 -51 9 l-40 -7 5 87 c4 83 4
86 -19 95 -31 11 -40 11 -48 -1z m180 -492 c2 -7 6 -30 10 -52 5 -32 4 -38 -9
-33 -8 3 -47 0 -86 -7 l-70 -14 0 48 0 48 58 10 c81 14 92 14 97 0z m15 -163
c0 -41 -2 -45 -24 -45 -12 0 -51 -3 -85 -6 l-61 -7 0 46 0 46 48 4 c26 2 64 4
85 5 l37 2 0 -45z"/>
<path d="M195 755 c-33 -7 -73 -11 -89 -8 -26 6 -28 4 -20 -18 10 -26 11 -166
4 -296 -4 -69 -2 -85 13 -100 10 -11 17 -13 17 -5 0 7 4 12 9 12 24 0 -25
-102 -87 -180 l-27 -34 35 21 c19 12 62 54 95 93 l60 72 -24 19 -23 19 60 0
c48 0 63 -4 71 -17 8 -15 12 -16 23 -5 9 9 15 67 19 210 5 187 5 198 -14 215
-22 20 -39 20 -122 2z m79 -76 c4 -28 6 -53 4 -54 -2 -2 -36 -6 -77 -10 l-74
-7 6 23 c4 13 7 36 7 51 0 22 6 29 33 37 17 5 46 10 63 10 30 1 32 -1 38 -50z
m6 -132 l0 -43 -56 -2 c-31 -1 -65 -4 -75 -7 -17 -6 -19 -1 -19 39 l0 45 53 4
c28 2 62 4 75 5 20 2 22 -3 22 -41z m0 -119 l0 -43 -75 -3 -75 -2 0 45 0 45
75 0 75 0 0 -42z"/>
<path d="M231 313 c1 -20 65 -128 74 -126 17 4 17 53 1 78 -16 24 -77 63 -75
48z"/>
</g>
</svg>
