<?xml version="1.0" standalone="no"?>
<!DOCTYPE svg PUBLIC "-//W3C//DTD SVG 20010904//EN"
 "http://www.w3.org/TR/2001/REC-SVG-20010904/DTD/svg10.dtd">
<svg version="1.0" xmlns="http://www.w3.org/2000/svg"
 width="96.000000pt" height="68.000000pt" viewBox="0 0 96.000000 68.000000"
 preserveAspectRatio="xMidYMid meet">
<metadata>
Created by potrace 1.16, written by Peter Selinger 2001-2019
</metadata>
<g transform="translate(0.000000,68.000000) scale(0.100000,-0.100000)"
fill="#000000" stroke="none">
<path d="M265 508 c-22 -5 -53 -8 -70 -6 l-30 3 -1 -127 c0 -118 1 -128 18
-128 13 0 18 7 18 25 0 21 5 25 28 25 15 0 44 3 65 6 35 6 37 5 37 -20 0 -21
5 -26 25 -26 24 0 24 0 18 78 -3 43 -1 94 5 114 9 34 8 40 -11 53 -24 17 -44
17 -102 3z m63 -58 c3 -35 2 -36 -35 -38 -21 -2 -49 -4 -63 -5 -21 -2 -25 3
-28 31 -4 38 20 52 83 49 38 -2 40 -4 43 -37z m2 -90 c0 -23 -5 -30 -19 -30
-10 0 -39 -3 -65 -6 l-46 -7 0 31 c0 34 10 38 88 41 40 1 42 0 42 -29z"/>
</g>
</svg>
