<?xml version="1.0" standalone="no"?>
<!DOCTYPE svg PUBLIC "-//W3C//DTD SVG 20010904//EN"
 "http://www.w3.org/TR/2001/REC-SVG-20010904/DTD/svg10.dtd">
<svg version="1.0" xmlns="http://www.w3.org/2000/svg"
 width="96.000000pt" height="68.000000pt" viewBox="0 0 96.000000 68.000000"
 preserveAspectRatio="xMidYMid meet">
<metadata>
Created by potrace 1.16, written by Peter Selinger 2001-2019
</metadata>
<g transform="translate(0.000000,68.000000) scale(0.100000,-0.100000)"
fill="#000000" stroke="none">
<path d="M272 553 c-16 -58 -46 -105 -129 -199 -35 -40 -63 -75 -63 -78 0 -13
58 24 110 71 l53 48 -5 -105 c-4 -58 -11 -117 -17 -132 -20 -53 23 -118 47
-70 15 28 23 301 10 322 -10 15 -5 29 30 80 23 33 42 64 42 69 0 12 -21 27
-45 35 -18 5 -23 -1 -33 -41z"/>
<path d="M580 539 c-19 -5 -72 -10 -117 -11 -79 -3 -82 -4 -69 -23 7 -11 18
-46 25 -77 13 -60 27 -80 41 -58 5 8 34 15 72 17 99 5 149 13 143 24 -4 5 7
30 24 55 17 25 31 49 31 55 0 25 -82 35 -150 18z m70 -25 c0 -3 -5 -25 -11
-48 -11 -43 -11 -43 -62 -50 -29 -3 -68 -6 -88 -6 -35 0 -37 2 -43 41 -4 23
-5 44 -2 46 13 14 206 30 206 17z"/>
<path d="M638 243 c3 -83 8 -122 17 -132 28 -29 193 -23 202 6 7 20 -43 26
-97 12 -66 -17 -85 -6 -84 47 3 77 8 119 17 138 10 21 -13 46 -42 46 -14 0
-16 -16 -13 -117z"/>
<path d="M518 250 c-1 -50 -2 -100 -2 -112 -1 -17 5 -23 19 -23 18 0 20 8 25
100 4 80 3 102 -9 113 -8 6 -18 12 -23 12 -4 0 -9 -40 -10 -90z"/>
<path d="M401 270 c0 -46 -6 -70 -26 -105 -15 -25 -34 -49 -43 -55 -10 -5 -13
-10 -8 -10 20 0 74 45 90 74 18 35 39 134 30 147 -3 5 -14 9 -24 9 -16 0 -18
-8 -19 -60z"/>
</g>
</svg>
