<?xml version="1.0" standalone="no"?>
<!DOCTYPE svg PUBLIC "-//W3C//DTD SVG 20010904//EN"
 "http://www.w3.org/TR/2001/REC-SVG-20010904/DTD/svg10.dtd">
<svg version="1.0" xmlns="http://www.w3.org/2000/svg"
 width="96.000000pt" height="68.000000pt" viewBox="0 0 96.000000 68.000000"
 preserveAspectRatio="xMidYMid meet">
<metadata>
Created by potrace 1.16, written by Peter Selinger 2001-2019
</metadata>
<g transform="translate(0.000000,68.000000) scale(0.100000,-0.100000)"
fill="#000000" stroke="none">
<path d="M285 578 c-2 -7 -9 -30 -15 -50 -15 -48 -58 -108 -133 -185 -34 -35
-57 -63 -51 -63 15 0 82 49 123 90 l33 34 -5 -115 c-4 -63 -9 -130 -12 -150
-5 -27 -2 -40 11 -53 16 -17 18 -17 27 -1 5 10 13 81 17 159 5 108 4 146 -6
162 -11 19 -8 28 31 87 40 62 42 67 26 81 -21 19 -40 21 -46 4z"/>
</g>
</svg>
