<?xml version="1.0" standalone="no"?>
<!DOCTYPE svg PUBLIC "-//W3C//DTD SVG 20010904//EN"
 "http://www.w3.org/TR/2001/REC-SVG-20010904/DTD/svg10.dtd">
<svg version="1.0" xmlns="http://www.w3.org/2000/svg"
 width="96.000000pt" height="68.000000pt" viewBox="0 0 96.000000 68.000000"
 preserveAspectRatio="xMidYMid meet">
<metadata>
Created by potrace 1.16, written by Peter Selinger 2001-2019
</metadata>
<g transform="translate(0.000000,68.000000) scale(0.100000,-0.100000)"
fill="#000000" stroke="none">
<path d="M310 510 c-14 -4 -51 -8 -82 -9 -53 -1 -72 -11 -49 -26 5 -3 15 -30
22 -61 11 -48 15 -55 33 -50 12 3 49 8 84 12 48 5 62 10 62 23 0 9 9 31 20 49
11 18 20 39 20 46 0 25 -56 33 -110 16z m35 -62 c-4 -24 -8 -44 -9 -45 0 0
-22 -4 -48 -8 -52 -8 -49 -13 -52 63 -1 12 9 19 39 23 80 12 78 14 70 -33z"/>
</g>
</svg>
