<?xml version="1.0" standalone="no"?>
<!DOCTYPE svg PUBLIC "-//W3C//DTD SVG 20010904//EN"
 "http://www.w3.org/TR/2001/REC-SVG-20010904/DTD/svg10.dtd">
<svg version="1.0" xmlns="http://www.w3.org/2000/svg"
 width="96.000000pt" height="68.000000pt" viewBox="0 0 96.000000 68.000000"
 preserveAspectRatio="xMidYMid meet">
<metadata>
Created by potrace 1.16, written by Peter Selinger 2001-2019
</metadata>
<g transform="translate(0.000000,68.000000) scale(0.100000,-0.100000)"
fill="#000000" stroke="none">
<path d="M679 331 c-6 -47 -4 -98 4 -108 6 -8 6 -13 0 -13 -6 0 -9 -33 -7 -77
3 -103 3 -101 15 -80 15 26 19 177 5 177 -6 0 -4 5 4 10 8 5 11 10 5 10 -5 0
-3 5 5 10 8 5 38 10 65 11 44 1 46 2 22 9 -16 5 -34 7 -40 5 -7 -2 -25 -6 -42
-10 -27 -6 -28 -5 -11 8 22 16 18 50 -7 55 -9 2 -18 -1 -18 -7z"/>
<path d="M625 260 c27 -12 43 -12 25 0 -8 5 -22 9 -30 9 -10 0 -8 -3 5 -9z"/>
</g>
</svg>
