<?xml version="1.0" standalone="no"?>
<!DOCTYPE svg PUBLIC "-//W3C//DTD SVG 20010904//EN"
 "http://www.w3.org/TR/2001/REC-SVG-20010904/DTD/svg10.dtd">
<svg version="1.0" xmlns="http://www.w3.org/2000/svg"
 width="90.000000pt" height="92.000000pt" viewBox="0 0 90.000000 92.000000"
 preserveAspectRatio="xMidYMid meet">
<metadata>
Created by potrace 1.16, written by Peter Selinger 2001-2019
</metadata>
<g transform="translate(0.000000,92.000000) scale(0.100000,-0.100000)"
fill="#000000" stroke="none">
<path d="M550 798 c-41 -10 -103 -21 -137 -24 -88 -9 -85 -44 3 -44 l35 0 -30
-44 c-17 -24 -53 -64 -82 -90 -28 -26 -49 -49 -47 -52 3 -2 35 15 72 40 61 41
96 50 96 24 0 -20 -43 -70 -104 -120 -53 -45 -57 -50 -31 -44 41 10 102 52
144 98 32 35 37 38 48 22 9 -13 9 -22 1 -38 -25 -48 -87 -112 -152 -157 -38
-27 -62 -49 -54 -49 30 0 133 62 181 108 l47 46 0 -51 c0 -55 -14 -103 -33
-115 -7 -4 -28 -5 -47 -2 l-35 6 44 -45 c26 -27 49 -43 58 -40 30 12 55 84 57
165 0 43 3 78 6 78 3 0 37 -29 75 -65 67 -62 97 -77 110 -55 9 15 -24 77 -52
95 -13 9 -51 26 -83 39 l-59 22 69 59 c38 33 70 63 70 67 0 7 -52 38 -63 38
-3 0 -7 -10 -11 -23 -6 -26 -64 -117 -74 -117 -4 0 -17 18 -30 41 -13 22 -40
50 -59 62 l-36 21 37 32 c21 18 35 38 31 43 -7 13 -3 14 85 31 77 14 84 18 70
35 -18 21 -41 22 -120 3z"/>
<path d="M110 781 c0 -17 70 -100 90 -106 38 -12 53 22 29 67 -17 32 -119 66
-119 39z"/>
<path d="M150 561 c-19 -10 -54 -25 -77 -31 -24 -7 -43 -16 -43 -20 0 -14 39
-18 77 -9 63 14 64 13 43 -35 -16 -39 -17 -46 -4 -57 20 -17 44 -75 44 -109 0
-24 -5 -28 -37 -34 -21 -3 -59 -6 -85 -6 -52 0 -58 -8 -28 -35 17 -16 25 -16
83 -5 80 16 109 10 312 -70 83 -33 164 -62 181 -66 44 -9 254 55 254 77 0 5
-33 9 -72 9 -130 0 -307 20 -401 45 -51 14 -112 30 -137 37 -57 15 -54 13 -40
38 16 31 2 80 -32 112 l-29 27 45 49 c25 27 46 54 46 60 0 9 -51 43 -62 42 -2
-1 -19 -9 -38 -19z"/>
</g>
</svg>
