<?xml version="1.0" standalone="no"?>
<!DOCTYPE svg PUBLIC "-//W3C//DTD SVG 20010904//EN"
 "http://www.w3.org/TR/2001/REC-SVG-20010904/DTD/svg10.dtd">
<svg version="1.0" xmlns="http://www.w3.org/2000/svg"
 width="96.000000pt" height="68.000000pt" viewBox="0 0 96.000000 68.000000"
 preserveAspectRatio="xMidYMid meet">
<metadata>
Created by potrace 1.16, written by Peter Selinger 2001-2019
</metadata>
<g transform="translate(0.000000,68.000000) scale(0.100000,-0.100000)"
fill="#000000" stroke="none">
<path d="M497 561 c-103 -15 -133 -31 -60 -31 18 0 33 -4 33 -10 0 -11 -43
-55 -90 -92 -44 -35 -29 -36 29 -3 48 28 71 32 71 11 0 -15 -65 -77 -102 -97
-14 -8 -18 -14 -10 -17 16 -5 101 45 128 75 18 21 22 22 33 9 7 -9 9 -21 5
-28 -21 -34 -64 -73 -117 -105 -31 -20 -55 -38 -52 -41 8 -8 108 46 145 78
l35 30 3 -40 c4 -56 -12 -83 -49 -78 -35 5 -36 -2 -6 -30 50 -47 88 -13 96 84
l6 65 60 -45 c57 -43 105 -59 105 -35 0 18 -57 69 -77 70 -10 0 -36 8 -58 18
l-39 17 62 43 c34 23 60 46 57 52 -10 15 -65 11 -65 -6 0 -8 -13 -29 -29 -47
l-28 -32 -32 37 c-18 20 -41 39 -52 42 -26 8 -24 19 5 35 13 7 26 20 29 30 3
12 19 19 56 24 69 9 87 16 69 27 -16 11 -27 10 -161 -10z"/>
<path d="M179 551 c16 -29 70 -71 92 -71 20 0 26 33 11 57 -10 15 -57 33 -88
33 -21 0 -23 -3 -15 -19z"/>
<path d="M225 411 c-6 -5 -32 -16 -59 -24 -73 -21 -74 -42 -2 -33 l57 6 -15
-27 c-13 -26 -12 -30 10 -56 13 -16 24 -39 24 -51 0 -27 -21 -36 -92 -36 -36
0 -48 -4 -48 -15 0 -18 -2 -17 120 -19 83 -2 113 -8 240 -49 80 -26 163 -47
186 -47 48 0 191 41 193 55 1 6 -59 13 -151 17 -105 5 -194 15 -283 34 l-131
27 4 35 c4 28 -1 38 -24 57 l-28 22 43 40 44 40 -24 17 c-26 18 -50 21 -64 7z"/>
</g>
</svg>
