<?xml version="1.0" standalone="no"?>
<!DOCTYPE svg PUBLIC "-//W3C//DTD SVG 20010904//EN"
 "http://www.w3.org/TR/2001/REC-SVG-20010904/DTD/svg10.dtd">
<svg version="1.0" xmlns="http://www.w3.org/2000/svg"
 width="96.000000pt" height="68.000000pt" viewBox="0 0 96.000000 68.000000"
 preserveAspectRatio="xMidYMid meet">
<metadata>
Created by potrace 1.16, written by Peter Selinger 2001-2019
</metadata>
<g transform="translate(0.000000,68.000000) scale(0.100000,-0.100000)"
fill="#000000" stroke="none">
<path d="M312 380 c-35 -9 -68 -23 -73 -31 -11 -16 -2 -104 13 -133 10 -17 11
-18 20 -3 5 10 21 17 36 17 15 0 43 3 63 6 31 5 35 9 32 29 -3 12 5 42 16 65
12 24 21 45 21 46 0 2 -63 25 -64 23 -1 -1 -29 -9 -64 -19z m48 -69 c0 -42 -3
-49 -22 -55 -61 -16 -78 -2 -78 66 0 28 12 35 68 37 32 1 32 1 32 -48z"/>
</g>
</svg>
