<?xml version="1.0" standalone="no"?>
<!DOCTYPE svg PUBLIC "-//W3C//DTD SVG 20010904//EN"
 "http://www.w3.org/TR/2001/REC-SVG-20010904/DTD/svg10.dtd">
<svg version="1.0" xmlns="http://www.w3.org/2000/svg"
 width="96.000000pt" height="68.000000pt" viewBox="0 0 96.000000 68.000000"
 preserveAspectRatio="xMidYMid meet">
<metadata>
Created by potrace 1.16, written by Peter Selinger 2001-2019
</metadata>
<g transform="translate(0.000000,68.000000) scale(0.100000,-0.100000)"
fill="#000000" stroke="none">
<path d="M370 320 c-69 -10 -133 -19 -143 -19 -11 -1 -15 -6 -11 -12 4 -7 29
-10 65 -7 69 5 71 -1 31 -59 -28 -43 -60 -72 -127 -116 -44 -30 -28 -36 31
-11 51 21 102 62 148 119 30 36 35 49 26 59 -6 8 -7 16 -3 19 4 3 63 8 131 12
67 4 122 11 122 15 0 25 -94 25 -270 0z"/>
</g>
</svg>
