<?xml version="1.0" standalone="no"?>
<!DOCTYPE svg PUBLIC "-//W3C//DTD SVG 20010904//EN"
 "http://www.w3.org/TR/2001/REC-SVG-20010904/DTD/svg10.dtd">
<svg version="1.0" xmlns="http://www.w3.org/2000/svg"
 width="96.000000pt" height="68.000000pt" viewBox="0 0 96.000000 68.000000"
 preserveAspectRatio="xMidYMid meet">
<metadata>
Created by potrace 1.16, written by Peter Selinger 2001-2019
</metadata>
<g transform="translate(0.000000,68.000000) scale(0.100000,-0.100000)"
fill="#000000" stroke="none">
<path d="M400 576 c0 -7 9 -25 20 -38 l20 -26 -31 -6 c-18 -3 -63 -6 -101 -6
-52 0 -70 4 -74 15 -4 8 -11 15 -18 14 -15 0 -70 -114 -62 -128 17 -27 64 -3
79 42 4 9 12 17 19 17 7 0 101 9 207 20 115 12 199 16 204 11 5 -5 2 -20 -8
-35 -10 -15 -16 -28 -14 -31 6 -5 132 25 142 34 13 13 -3 38 -37 56 -30 16
-46 17 -139 9 l-106 -9 -5 26 c-7 38 -96 71 -96 35z"/>
<path d="M450 419 c-41 -5 -93 -10 -115 -11 l-41 -1 23 -46 c12 -25 23 -52 23
-59 0 -10 9 -12 31 -7 29 7 30 6 26 -22 -8 -59 -14 -63 -85 -63 -54 0 -63 -2
-50 -12 8 -7 24 -44 33 -81 14 -52 22 -67 33 -62 8 3 56 8 106 11 152 8 176
13 176 33 0 10 13 36 29 58 31 42 30 53 -6 72 -17 8 -39 9 -85 1 -35 -5 -81
-10 -102 -10 l-40 0 26 28 c14 15 24 32 21 38 -2 7 16 14 48 18 28 4 49 10 45
13 -3 3 5 21 19 39 14 18 25 37 25 43 0 12 -33 32 -52 30 -7 -1 -47 -6 -88
-10z m74 -18 c3 -5 1 -22 -5 -39 -11 -33 -37 -42 -114 -42 -39 0 -44 3 -53 30
-13 36 -9 39 71 49 88 12 95 12 101 2z m52 -244 l-12 -42 -89 -12 c-145 -18
-141 -19 -153 29 -14 53 -11 55 92 62 45 4 97 7 116 9 57 4 60 1 46 -46z"/>
</g>
</svg>
