<?xml version="1.0" standalone="no"?>
<!DOCTYPE svg PUBLIC "-//W3C//DTD SVG 20010904//EN"
 "http://www.w3.org/TR/2001/REC-SVG-20010904/DTD/svg10.dtd">
<svg version="1.0" xmlns="http://www.w3.org/2000/svg"
 width="96.000000pt" height="68.000000pt" viewBox="0 0 96.000000 68.000000"
 preserveAspectRatio="xMidYMid meet">
<metadata>
Created by potrace 1.16, written by Peter Selinger 2001-2019
</metadata>
<g transform="translate(0.000000,68.000000) scale(0.100000,-0.100000)"
fill="#000000" stroke="none">
<path d="M500 225 c-52 -6 -130 -11 -173 -11 -78 1 -88 -3 -63 -23 7 -6 21
-40 31 -77 13 -48 21 -64 32 -60 15 6 62 11 207 22 49 3 83 9 76 14 -9 5 -5
18 14 48 14 22 30 43 36 47 18 11 11 22 -24 39 -19 9 -36 15 -38 14 -1 0 -46
-6 -98 -13z m84 -26 c2 -2 0 -23 -7 -46 -12 -46 -10 -46 -168 -59 l-76 -6 -6
28 c-3 16 -9 37 -12 46 -8 19 14 25 137 37 78 8 125 8 132 0z"/>
</g>
</svg>
