<?xml version="1.0" standalone="no"?>
<!DOCTYPE svg PUBLIC "-//W3C//DTD SVG 20010904//EN"
 "http://www.w3.org/TR/2001/REC-SVG-20010904/DTD/svg10.dtd">
<svg version="1.0" xmlns="http://www.w3.org/2000/svg"
 width="96.000000pt" height="68.000000pt" viewBox="0 0 96.000000 68.000000"
 preserveAspectRatio="xMidYMid meet">
<metadata>
Created by potrace 1.16, written by Peter Selinger 2001-2019
</metadata>
<g transform="translate(0.000000,68.000000) scale(0.100000,-0.100000)"
fill="#000000" stroke="none">
<path d="M478 566 l21 -35 -27 -5 c-15 -3 -52 -8 -82 -11 -30 -3 -72 -8 -93
-11 -38 -6 -38 -6 -17 -21 20 -14 21 -21 15 -72 -14 -121 -53 -219 -124 -309
-54 -67 -34 -67 32 1 68 68 100 137 127 274 l23 112 36 5 c20 3 65 8 101 10
223 16 235 18 215 32 -17 13 -62 13 -160 0 -5 0 -11 9 -13 20 -3 20 -38 44
-63 44 -6 0 -2 -15 9 -34z"/>
<path d="M148 404 c26 -49 82 -70 82 -31 0 20 -21 36 -60 43 -29 6 -31 5 -22
-12z"/>
<path d="M195 298 c-10 -6 -37 -17 -59 -23 -47 -14 -57 -32 -22 -41 18 -4 36
3 70 28 56 41 64 66 11 36z"/>
</g>
</svg>
