<?xml version="1.0" standalone="no"?>
<!DOCTYPE svg PUBLIC "-//W3C//DTD SVG 20010904//EN"
 "http://www.w3.org/TR/2001/REC-SVG-20010904/DTD/svg10.dtd">
<svg version="1.0" xmlns="http://www.w3.org/2000/svg"
 width="96.000000pt" height="68.000000pt" viewBox="0 0 96.000000 68.000000"
 preserveAspectRatio="xMidYMid meet">
<metadata>
Created by potrace 1.16, written by Peter Selinger 2001-2019
</metadata>
<g transform="translate(0.000000,68.000000) scale(0.100000,-0.100000)"
fill="#000000" stroke="none">
<path d="M245 563 c3 -27 7 -82 9 -123 l5 -76 -27 -1 c-70 -2 -82 -4 -82 -12
0 -6 24 -11 53 -13 51 -3 52 -3 49 -33 -2 -16 -5 -31 -6 -32 -1 -2 -37 -8 -79
-14 -42 -6 -77 -15 -77 -19 0 -14 67 -21 95 -10 16 6 35 8 42 5 18 -6 -17 -67
-76 -132 -23 -25 -41 -47 -38 -49 2 -2 28 13 58 34 49 33 77 74 115 160 1 2
35 9 75 16 83 15 74 32 -11 24 -52 -5 -59 0 -52 38 3 16 14 23 50 30 55 10 54
29 0 28 -44 -1 -44 0 -27 122 10 71 9 79 -7 91 -10 7 -30 13 -45 13 -27 0 -28
-1 -24 -47z"/>
<path d="M362 479 c-13 -28 -21 -53 -19 -55 7 -8 97 67 97 80 0 14 -21 26 -43
26 -7 0 -22 -23 -35 -51z"/>
<path d="M688 525 c-2 -2 -41 -8 -88 -14 -155 -20 -152 -19 -139 -43 16 -29 4
-139 -20 -204 -24 -63 -60 -132 -72 -140 -5 -3 -9 -10 -9 -17 0 -27 98 93 115
142 11 28 23 51 28 51 20 0 98 -105 91 -123 -7 -20 -67 -61 -124 -86 -31 -13
-38 -20 -24 -20 30 -1 100 24 134 49 39 27 51 25 90 -15 28 -29 41 -35 76 -35
51 0 104 10 104 20 0 4 -27 14 -60 24 -64 17 -130 54 -130 71 0 6 6 19 14 30
7 11 28 47 45 79 45 82 32 89 -111 60 -104 -21 -108 -19 -95 48 5 29 14 58 19
65 5 6 55 14 113 18 58 4 105 11 105 15 0 8 -56 31 -62 25z m-18 -195 c0 -14
-31 -93 -43 -108 -8 -10 -19 -4 -48 30 -21 24 -38 48 -39 55 0 6 19 16 43 21
57 13 87 14 87 2z"/>
<path d="M140 481 c0 -17 60 -73 73 -68 18 5 20 42 4 55 -21 18 -77 27 -77 13z"/>
</g>
</svg>
