<?xml version="1.0" standalone="no"?>
<!DOCTYPE svg PUBLIC "-//W3C//DTD SVG 20010904//EN"
 "http://www.w3.org/TR/2001/REC-SVG-20010904/DTD/svg10.dtd">
<svg version="1.0" xmlns="http://www.w3.org/2000/svg"
 width="96.000000pt" height="68.000000pt" viewBox="0 0 96.000000 68.000000"
 preserveAspectRatio="xMidYMid meet">
<metadata>
Created by potrace 1.16, written by Peter Selinger 2001-2019
</metadata>
<g transform="translate(0.000000,68.000000) scale(0.100000,-0.100000)"
fill="#000000" stroke="none">
<path d="M480 296 c0 -10 -19 -16 -67 -21 -100 -9 -120 -14 -102 -26 8 -6 45
-7 88 -3 48 4 71 2 67 -4 -9 -15 -104 -76 -174 -112 -34 -17 -62 -33 -62 -35
0 -11 114 31 178 65 l72 39 -1 -27 c-1 -15 -4 -40 -8 -57 -9 -36 6 -85 25 -85
25 0 34 36 27 115 -7 90 -11 90 97 0 63 -53 67 -55 125 -55 116 0 117 10 4 47
-97 31 -182 76 -209 109 -11 12 -2 14 61 15 41 1 88 5 104 8 l30 8 -27 13
c-20 9 -45 10 -102 3 -61 -7 -76 -6 -76 4 0 7 -11 13 -25 13 -15 0 -25 -6 -25
-14z"/>
</g>
</svg>
