<?xml version="1.0" standalone="no"?>
<!DOCTYPE svg PUBLIC "-//W3C//DTD SVG 20010904//EN"
 "http://www.w3.org/TR/2001/REC-SVG-20010904/DTD/svg10.dtd">
<svg version="1.0" xmlns="http://www.w3.org/2000/svg"
 width="96.000000pt" height="68.000000pt" viewBox="0 0 96.000000 68.000000"
 preserveAspectRatio="xMidYMid meet">
<metadata>
Created by potrace 1.16, written by Peter Selinger 2001-2019
</metadata>
<g transform="translate(0.000000,68.000000) scale(0.100000,-0.100000)"
fill="#000000" stroke="none">
<path d="M425 501 c6 -29 6 -29 -57 -39 l-63 -9 63 -2 c59 -1 62 -2 62 -26 0
-18 5 -25 20 -25 14 0 20 7 20 24 0 25 28 36 91 36 16 0 29 5 29 10 0 12 -11
13 -67 10 -37 -1 -43 1 -43 18 0 12 -9 22 -22 26 -37 9 -40 7 -33 -23z"/>
</g>
</svg>
