<?xml version="1.0" standalone="no"?>
<!DOCTYPE svg PUBLIC "-//W3C//DTD SVG 20010904//EN"
 "http://www.w3.org/TR/2001/REC-SVG-20010904/DTD/svg10.dtd">
<svg version="1.0" xmlns="http://www.w3.org/2000/svg"
 width="96.000000pt" height="68.000000pt" viewBox="0 0 96.000000 68.000000"
 preserveAspectRatio="xMidYMid meet">
<metadata>
Created by potrace 1.16, written by Peter Selinger 2001-2019
</metadata>
<g transform="translate(0.000000,68.000000) scale(0.100000,-0.100000)"
fill="#000000" stroke="none">
<path d="M573 313 c-13 -5 -2 -55 19 -81 11 -13 10 -15 -4 -9 -11 4 -18 2 -18
-6 0 -8 -4 -7 -11 3 -8 11 -12 12 -16 3 -3 -8 -14 -11 -30 -7 -18 5 -24 3 -19
-5 4 -6 22 -11 41 -11 36 0 42 -8 40 -59 -2 -31 -5 -34 -41 -38 -21 -3 -61 -6
-89 -7 -27 -1 -59 -3 -70 -5 -19 -2 -19 -2 -1 -12 10 -7 38 -9 65 -5 25 3 118
9 206 12 88 3 162 10 163 16 2 5 10 4 18 -3 9 -8 14 -8 14 -1 0 13 -69 34 -83
25 -8 -5 -138 -6 -143 0 -1 1 -5 21 -9 45 -6 40 -6 42 19 42 20 0 24 4 19 17
-4 11 -8 12 -11 5 -2 -7 -8 -12 -13 -12 -6 0 -7 5 -4 10 3 6 1 10 -5 10 -7 0
-10 6 -7 13 3 6 8 20 12 29 7 18 -21 39 -42 31z"/>
<path d="M672 243 c-30 -6 -18 -23 16 -23 37 0 60 15 37 24 -9 3 -20 5 -23 5
-4 -1 -17 -4 -30 -6z"/>
</g>
</svg>
