<?xml version="1.0" standalone="no"?>
<!DOCTYPE svg PUBLIC "-//W3C//DTD SVG 20010904//EN"
 "http://www.w3.org/TR/2001/REC-SVG-20010904/DTD/svg10.dtd">
<svg version="1.0" xmlns="http://www.w3.org/2000/svg"
 width="96.000000pt" height="68.000000pt" viewBox="0 0 96.000000 68.000000"
 preserveAspectRatio="xMidYMid meet">
<metadata>
Created by potrace 1.16, written by Peter Selinger 2001-2019
</metadata>
<g transform="translate(0.000000,68.000000) scale(0.100000,-0.100000)"
fill="#000000" stroke="none">
<path d="M210 546 c0 -8 5 -18 10 -21 6 -3 10 -36 10 -72 l0 -66 -60 6 c-58 5
-70 1 -51 -19 5 -5 16 -34 24 -64 l14 -55 36 3 37 3 0 -46 c0 -42 2 -46 23
-43 19 3 22 10 25 49 l3 47 57 7 c31 4 51 10 45 12 -19 7 -16 26 13 68 33 49
21 61 -57 58 -66 -2 -68 1 -50 80 8 35 7 38 -19 52 -37 19 -60 19 -60 1z m134
-164 c3 -5 1 -25 -5 -44 -7 -26 -16 -37 -34 -40 -23 -5 -25 -3 -25 38 0 36 3
43 23 47 12 2 25 5 29 6 4 0 9 -3 12 -7z m-114 -57 c0 -38 -3 -45 -19 -45 -24
0 -27 5 -36 53 -7 36 -7 37 24 37 30 0 31 -1 31 -45z"/>
</g>
</svg>
