<?xml version="1.0" standalone="no"?>
<!DOCTYPE svg PUBLIC "-//W3C//DTD SVG 20010904//EN"
 "http://www.w3.org/TR/2001/REC-SVG-20010904/DTD/svg10.dtd">
<svg version="1.0" xmlns="http://www.w3.org/2000/svg"
 width="96.000000pt" height="68.000000pt" viewBox="0 0 96.000000 68.000000"
 preserveAspectRatio="xMidYMid meet">
<metadata>
Created by potrace 1.16, written by Peter Selinger 2001-2019
</metadata>
<g transform="translate(0.000000,68.000000) scale(0.100000,-0.100000)"
fill="#000000" stroke="none">
<path d="M678 290 c-21 -37 -44 -47 -69 -32 -25 16 -44 15 -27 0 104 -97 160
-140 171 -129 17 17 0 40 -57 78 l-48 33 46 20 c50 21 57 34 27 50 -26 13 -24
14 -43 -20z"/>
<path d="M456 228 c-11 -33 -15 -108 -6 -113 5 -3 37 13 70 36 63 43 75 62 21
35 -42 -22 -49 -20 -53 16 -3 32 -25 50 -32 26z"/>
</g>
</svg>
