<?xml version="1.0" standalone="no"?>
<!DOCTYPE svg PUBLIC "-//W3C//DTD SVG 20010904//EN"
 "http://www.w3.org/TR/2001/REC-SVG-20010904/DTD/svg10.dtd">
<svg version="1.0" xmlns="http://www.w3.org/2000/svg"
 width="96.000000pt" height="68.000000pt" viewBox="0 0 96.000000 68.000000"
 preserveAspectRatio="xMidYMid meet">
<metadata>
Created by potrace 1.16, written by Peter Selinger 2001-2019
</metadata>
<g transform="translate(0.000000,68.000000) scale(0.100000,-0.100000)"
fill="#000000" stroke="none">
<path d="M518 575 l4 -45 -51 0 c-28 0 -51 -4 -51 -10 0 -5 25 -10 56 -10 52
0 55 -1 52 -22 -3 -21 -11 -24 -103 -34 -71 -7 -94 -13 -81 -19 12 -5 71 -4
140 3 67 7 153 12 191 13 39 0 79 4 90 9 17 7 16 9 -15 16 -19 5 -37 8 -40 7
-3 0 -38 -4 -78 -7 -73 -7 -74 -7 -70 16 3 20 11 24 66 31 77 11 73 31 -5 25
-53 -5 -54 -4 -51 21 3 34 -8 51 -35 51 -20 0 -22 -4 -19 -45z"/>
</g>
</svg>
