<?xml version="1.0" standalone="no"?>
<!DOCTYPE svg PUBLIC "-//W3C//DTD SVG 20010904//EN"
 "http://www.w3.org/TR/2001/REC-SVG-20010904/DTD/svg10.dtd">
<svg version="1.0" xmlns="http://www.w3.org/2000/svg"
 width="96.000000pt" height="68.000000pt" viewBox="0 0 96.000000 68.000000"
 preserveAspectRatio="xMidYMid meet">
<metadata>
Created by potrace 1.16, written by Peter Selinger 2001-2019
</metadata>
<g transform="translate(0.000000,68.000000) scale(0.100000,-0.100000)"
fill="#000000" stroke="none">
<path d="M406 551 c10 -17 22 -31 26 -31 4 0 8 -4 8 -10 0 -5 -27 -12 -61 -16
-63 -7 -64 -24 -2 -24 63 0 184 22 180 34 -5 15 -47 20 -59 8 -17 -17 -35 -3
-31 23 5 23 5 23 -61 42 -18 5 -18 4 0 -26z"/>
<path d="M632 508 c-6 -35 -25 -89 -41 -120 -20 -40 -25 -58 -16 -58 7 0 20
11 29 25 12 18 25 25 48 25 l31 0 -5 -70 c-3 -39 -8 -73 -11 -77 -4 -3 -20 6
-37 21 -48 40 -59 31 -16 -13 l38 -39 -20 -29 c-11 -16 -37 -38 -56 -48 -40
-22 -48 -40 -13 -30 33 11 97 48 97 57 0 21 29 4 56 -31 32 -44 52 -53 96 -44
47 9 42 20 -25 52 -78 37 -102 62 -88 88 14 27 31 127 24 152 -4 16 -1 21 15
21 27 0 52 10 52 20 0 15 -44 16 -84 3 -54 -18 -72 -17 -56 2 7 8 10 15 6 15
-3 0 6 23 20 52 l26 52 -22 18 c-12 10 -25 18 -29 18 -4 0 -13 -28 -19 -62z"/>
<path d="M198 453 c-81 -16 -104 -33 -43 -33 28 0 35 -4 35 -19 0 -21 -61
-145 -85 -171 -31 -34 -11 -42 24 -9 19 18 25 19 32 8 5 -8 9 -25 9 -39 1 -47
13 -54 71 -44 48 8 53 11 56 39 2 17 9 41 15 54 11 20 10 25 -7 37 -11 8 -29
12 -40 9 -11 -3 -35 -9 -54 -12 l-35 -6 29 49 c35 60 42 74 49 97 3 11 16 17
33 17 15 0 35 5 43 10 13 9 13 11 0 20 -19 12 -36 11 -132 -7z m67 -235 c-8
-44 -18 -58 -46 -58 -11 0 -19 12 -23 31 -12 63 -10 69 35 69 l41 0 -7 -42z"/>
<path d="M470 430 c-14 -4 -47 -8 -73 -9 -45 -1 -48 -2 -42 -23 19 -67 26 -77
54 -73 14 2 42 7 61 10 29 4 38 12 54 45 11 22 17 42 15 44 -11 10 -47 13 -69
6z m20 -44 c0 -25 -21 -36 -71 -36 -20 0 -28 6 -31 24 -5 27 5 32 70 35 27 1
32 -2 32 -23z"/>
<path d="M405 283 c-16 -3 -34 -9 -39 -14 -14 -12 36 -12 70 1 37 14 49 -1 25
-32 -11 -14 -18 -33 -15 -44 5 -17 -4 -22 -66 -38 -41 -11 -69 -23 -67 -30 6
-20 47 -18 88 3 22 12 42 21 45 21 3 0 4 -15 2 -32 -2 -25 -8 -34 -25 -36 -13
-2 -23 -6 -23 -9 0 -8 41 -43 50 -43 17 0 29 29 32 80 3 52 5 56 43 77 45 25
44 28 -4 12 -24 -8 -35 -8 -47 1 -13 11 -9 16 26 37 22 13 40 28 40 32 0 19
-56 25 -135 14z"/>
</g>
</svg>
