<?xml version="1.0" standalone="no"?>
<!DOCTYPE svg PUBLIC "-//W3C//DTD SVG 20010904//EN"
 "http://www.w3.org/TR/2001/REC-SVG-20010904/DTD/svg10.dtd">
<svg version="1.0" xmlns="http://www.w3.org/2000/svg"
 width="96.000000pt" height="68.000000pt" viewBox="0 0 96.000000 68.000000"
 preserveAspectRatio="xMidYMid meet">
<metadata>
Created by potrace 1.16, written by Peter Selinger 2001-2019
</metadata>
<g transform="translate(0.000000,68.000000) scale(0.100000,-0.100000)"
fill="#000000" stroke="none">
<path d="M268 459 c-14 -4 -54 -10 -87 -14 -61 -7 -76 -25 -20 -25 23 0 29 -4
29 -22 -1 -30 -31 -96 -71 -154 -25 -37 -27 -44 -11 -35 42 22 146 179 136
205 -4 10 7 15 40 20 25 4 46 11 46 15 0 13 -32 18 -62 10z"/>
</g>
</svg>
