<?xml version="1.0" standalone="no"?>
<!DOCTYPE svg PUBLIC "-//W3C//DTD SVG 20010904//EN"
 "http://www.w3.org/TR/2001/REC-SVG-20010904/DTD/svg10.dtd">
<svg version="1.0" xmlns="http://www.w3.org/2000/svg"
 width="96.000000pt" height="68.000000pt" viewBox="0 0 96.000000 68.000000"
 preserveAspectRatio="xMidYMid meet">
<metadata>
Created by potrace 1.16, written by Peter Selinger 2001-2019
</metadata>
<g transform="translate(0.000000,68.000000) scale(0.100000,-0.100000)"
fill="#000000" stroke="none">
<path d="M224 558 c16 -57 18 -160 6 -322 -10 -144 -10 -179 0 -191 12 -15 15
-15 29 0 13 13 17 48 21 179 3 91 8 168 12 172 5 4 17 -1 27 -10 25 -22 56
-17 56 9 0 15 -12 24 -43 35 l-43 15 6 57 c6 50 5 58 -13 67 -12 6 -31 11 -43
11 -17 0 -20 -4 -15 -22z"/>
<path d="M595 544 c-27 -8 -82 -15 -121 -17 l-71 -2 18 -25 c10 -14 22 -50 28
-80 l11 -55 108 1 107 2 27 83 c15 46 24 87 19 92 -15 15 -76 16 -126 1z m65
-48 c0 -30 -3 -33 -24 -29 -13 3 -54 0 -92 -6 -71 -11 -83 -6 -84 30 0 12 17
18 73 26 128 18 127 18 127 -21z m-10 -71 c0 -20 -5 -25 -24 -25 -12 0 -51 -3
-85 -6 -61 -7 -61 -7 -61 19 0 24 4 26 53 30 123 8 117 9 117 -18z"/>
<path d="M127 377 c-24 -60 -23 -107 3 -107 24 0 40 35 40 89 0 60 -22 68 -43
18z"/>
<path d="M539 352 c-1 -4 0 -22 1 -39 1 -31 0 -33 -34 -33 -36 0 -52 23 -23
33 9 3 9 7 -2 20 -19 24 -30 21 -42 -9 -5 -15 -23 -44 -39 -64 -39 -49 -38
-57 3 -26 27 21 45 26 88 26 53 0 55 -1 57 -29 2 -32 -14 -41 -76 -41 -20 0
-31 -4 -27 -10 3 -5 29 -10 56 -10 l50 0 -3 -31 c-3 -31 -5 -32 -58 -35 -114
-8 -163 -16 -150 -24 18 -11 472 0 484 11 21 19 -50 31 -142 25 l-93 -6 3 32
c3 32 5 33 68 44 70 12 65 22 -15 26 -46 3 -50 5 -50 28 0 14 6 26 15 27 8 1
36 5 63 8 69 9 59 27 -13 23 -56 -3 -59 -2 -62 21 -2 17 -11 27 -30 32 -16 4
-28 4 -29 1z"/>
</g>
</svg>
