<?xml version="1.0" standalone="no"?>
<!DOCTYPE svg PUBLIC "-//W3C//DTD SVG 20010904//EN"
 "http://www.w3.org/TR/2001/REC-SVG-20010904/DTD/svg10.dtd">
<svg version="1.0" xmlns="http://www.w3.org/2000/svg"
 width="90.000000pt" height="92.000000pt" viewBox="0 0 90.000000 92.000000"
 preserveAspectRatio="xMidYMid meet">
<metadata>
Created by potrace 1.16, written by Peter Selinger 2001-2019
</metadata>
<g transform="translate(0.000000,92.000000) scale(0.100000,-0.100000)"
fill="#000000" stroke="none">
<path d="M360 884 c0 -5 13 -29 30 -54 21 -32 26 -46 17 -51 -6 -4 -55 -10
-109 -14 -93 -7 -96 -7 -108 15 -12 22 -14 19 -46 -49 -34 -74 -35 -101 -4
-101 12 0 26 16 40 45 19 39 26 45 53 45 18 0 47 4 65 9 25 8 32 7 32 -4 0
-19 -47 -73 -95 -108 -39 -29 -39 -29 -10 -23 36 9 98 45 144 85 29 26 32 32
21 46 -17 20 -14 22 43 30 l47 7 0 -56 c0 -64 6 -70 87 -81 69 -9 113 1 113
26 0 10 -6 19 -12 20 -7 1 -42 2 -78 2 l-65 2 3 43 c2 29 -1 42 -10 43 -19 2
81 17 120 18 39 1 39 -5 7 -53 -14 -20 -25 -38 -25 -40 0 -2 24 5 53 15 28 10
60 18 70 19 29 0 32 29 6 56 -41 44 -52 46 -146 29 -49 -8 -99 -17 -113 -19
-22 -4 -25 -1 -25 26 0 21 -8 36 -25 49 -29 21 -80 35 -80 23z"/>
<path d="M470 585 c-41 -8 -119 -17 -172 -21 -92 -6 -117 -15 -84 -27 8 -3 22
-39 31 -84 21 -95 28 -105 61 -92 14 5 41 9 60 9 29 0 34 -3 34 -24 0 -22 -6
-24 -75 -35 -42 -6 -100 -11 -130 -11 -65 0 -78 -14 -32 -36 31 -15 40 -15
105 0 39 9 79 16 89 16 29 -1 -74 -88 -174 -149 -73 -44 -82 -52 -53 -47 52 9
169 68 218 109 24 21 45 37 46 37 1 0 0 -30 -2 -68 -4 -67 9 -122 27 -122 16
0 31 70 31 148 0 41 4 72 9 70 5 -1 29 -21 53 -44 24 -22 67 -62 97 -88 l55
-49 72 6 c76 6 123 21 94 31 -8 2 -46 14 -85 27 -86 27 -111 39 -200 98 l-70
46 134 5 c144 5 168 15 110 46 -32 16 -73 14 -241 -11 -25 -4 -28 -2 -28 26
l0 31 65 -4 c35 -1 69 2 74 7 6 6 22 42 35 80 13 39 27 78 31 87 5 12 -2 21
-24 32 -35 18 -58 18 -161 1z m100 -50 c0 -18 -5 -25 -19 -25 -10 0 -39 -3
-65 -6 -44 -6 -46 -6 -44 17 4 30 20 37 81 38 44 1 47 -1 47 -24z m-170 -14
c0 -25 -4 -29 -37 -35 -68 -11 -80 -8 -85 19 -6 29 -4 30 110 44 7 0 12 -11
12 -28z m164 -68 c-4 -16 -7 -29 -8 -29 -1 -1 -25 -4 -53 -8 l-53 -7 0 30 c0
29 2 30 53 34 28 2 55 4 60 5 4 1 4 -10 1 -25z m-164 -22 c0 -26 -3 -29 -47
-35 -25 -3 -47 -5 -49 -4 -1 2 -5 15 -9 30 -7 26 -5 27 37 31 23 2 49 4 56 5
7 1 12 -9 12 -27z"/>
</g>
</svg>
