<?xml version="1.0" standalone="no"?>
<!DOCTYPE svg PUBLIC "-//W3C//DTD SVG 20010904//EN"
 "http://www.w3.org/TR/2001/REC-SVG-20010904/DTD/svg10.dtd">
<svg version="1.0" xmlns="http://www.w3.org/2000/svg"
 width="96.000000pt" height="68.000000pt" viewBox="0 0 96.000000 68.000000"
 preserveAspectRatio="xMidYMid meet">
<metadata>
Created by potrace 1.16, written by Peter Selinger 2001-2019
</metadata>
<g transform="translate(0.000000,68.000000) scale(0.100000,-0.100000)"
fill="#000000" stroke="none">
<path d="M547 583 c14 -80 16 -77 -69 -87 -43 -5 -78 -13 -78 -18 0 -6 34 -8
78 -6 l77 3 3 -37 c3 -36 2 -37 -35 -43 -97 -16 -100 -17 -76 -26 12 -4 50 -4
85 1 34 4 98 11 142 15 94 8 91 30 -4 28 l-60 -2 0 39 0 40 80 0 c80 0 98 9
59 30 -19 10 -72 7 -121 -6 -16 -5 -18 2 -18 50 l0 56 -34 0 c-35 0 -35 0 -29
-37z"/>
</g>
</svg>
