<?xml version="1.0" standalone="no"?>
<!DOCTYPE svg PUBLIC "-//W3C//DTD SVG 20010904//EN"
 "http://www.w3.org/TR/2001/REC-SVG-20010904/DTD/svg10.dtd">
<svg version="1.0" xmlns="http://www.w3.org/2000/svg"
 width="96.000000pt" height="68.000000pt" viewBox="0 0 96.000000 68.000000"
 preserveAspectRatio="xMidYMid meet">
<metadata>
Created by potrace 1.16, written by Peter Selinger 2001-2019
</metadata>
<g transform="translate(0.000000,68.000000) scale(0.100000,-0.100000)"
fill="#000000" stroke="none">
<path d="M437 280 c4 -14 0 -20 -11 -21 -9 -1 -20 -3 -26 -4 -5 -1 -23 -3 -39
-4 -24 -1 -28 -5 -24 -21 3 -11 0 -27 -7 -35 -22 -26 1 -38 46 -26 60 17 64
15 64 -30 0 -48 16 -44 26 6 l6 35 64 0 c35 0 64 4 64 9 0 16 -31 22 -81 15
-45 -6 -49 -5 -49 14 0 23 18 32 66 32 23 0 33 4 28 11 -4 7 -22 9 -45 6 -34
-4 -39 -2 -39 14 0 13 -7 19 -24 19 -19 0 -23 -4 -19 -20z m1 -62 c-2 -19 -10
-24 -41 -26 -37 -3 -37 -3 -25 22 8 19 19 26 40 26 25 0 29 -4 26 -22z"/>
</g>
</svg>
