<?xml version="1.0" standalone="no"?>
<!DOCTYPE svg PUBLIC "-//W3C//DTD SVG 20010904//EN"
 "http://www.w3.org/TR/2001/REC-SVG-20010904/DTD/svg10.dtd">
<svg version="1.0" xmlns="http://www.w3.org/2000/svg"
 width="90.000000pt" height="92.000000pt" viewBox="0 0 90.000000 92.000000"
 preserveAspectRatio="xMidYMid meet">
<metadata>
Created by potrace 1.16, written by Peter Selinger 2001-2019
</metadata>
<g transform="translate(0.000000,92.000000) scale(0.100000,-0.100000)"
fill="#000000" stroke="none">
<path d="M515 843 c4 -10 9 -52 10 -95 l2 -76 -71 -7 c-39 -4 -80 -11 -91 -15
-18 -7 -18 -9 9 -19 20 -8 44 -9 84 -1 31 5 59 10 62 10 7 0 -6 -125 -14 -138
-2 -4 2 -23 10 -41 23 -55 38 -25 44 87 l5 97 35 2 c19 2 63 6 98 9 63 6 63 6
45 26 -18 21 -55 21 -153 2 l-33 -7 7 81 c6 74 5 82 -13 92 -30 15 -44 13 -36
-7z"/>
<path d="M651 797 c-5 -13 -21 -37 -36 -55 -15 -18 -23 -32 -18 -32 15 0 123
61 123 69 0 12 -35 41 -49 41 -6 0 -15 -10 -20 -23z"/>
<path d="M400 769 c0 -18 41 -69 55 -69 18 0 28 30 15 45 -16 19 -70 37 -70
24z"/>
<path d="M190 720 c-41 -10 -92 -19 -113 -19 -57 -1 -42 -25 19 -29 27 -2 52
-6 56 -10 3 -4 9 -39 13 -79 l7 -72 -51 -7 c-84 -11 -84 -38 -1 -36 l50 1 0
-83 0 -83 -80 -27 c-44 -16 -80 -32 -80 -36 0 -10 49 -50 61 -50 14 0 251 161
246 167 -3 3 -26 -3 -52 -12 -25 -10 -47 -16 -49 -14 -2 2 0 38 3 79 l6 75 44
7 c24 4 46 10 50 13 10 11 -24 25 -62 25 l-37 0 2 75 3 75 35 6 c19 4 46 11
59 16 19 7 21 11 11 23 -15 19 -44 17 -140 -5z"/>
<path d="M591 603 c1 -13 130 -113 146 -113 10 0 13 9 11 28 -2 22 -14 32 -58
54 -65 31 -100 42 -99 31z"/>
<path d="M420 585 c0 -8 -19 -35 -43 -60 -24 -25 -40 -45 -35 -45 29 0 138 76
138 96 0 13 -22 24 -46 24 -8 0 -14 -7 -14 -15z"/>
<path d="M647 440 l6 -50 -34 0 c-59 0 -76 -9 -71 -35 2 -13 -3 -46 -13 -74
-9 -28 -14 -55 -10 -61 4 -7 28 -8 66 -4 l59 7 0 -84 c0 -100 13 -131 29 -73
6 21 11 64 11 95 0 67 5 70 84 62 47 -5 57 -3 62 12 10 25 -12 35 -78 35 l-58
0 0 45 0 44 50 7 c28 4 53 10 56 15 9 15 -38 31 -73 26 l-35 -6 6 35 c6 30 4
35 -19 44 -42 16 -44 13 -38 -40z m3 -129 c0 -48 0 -49 -35 -53 -38 -4 -38 -3
-29 54 5 30 11 38 33 41 14 2 27 5 29 6 1 0 2 -21 2 -48z"/>
<path d="M370 440 c0 -28 -35 -96 -77 -147 -36 -45 -32 -56 9 -24 l24 19 31
-34 31 -35 -64 -64 c-55 -55 -60 -63 -35 -54 50 17 120 88 181 181 l58 89 -24
15 c-23 15 -43 15 -91 -3 -17 -6 -17 -5 2 16 23 26 12 54 -24 59 -16 3 -21 -2
-21 -18z m76 -106 c-4 -14 -14 -37 -23 -51 -14 -21 -18 -23 -27 -11 -6 9 -21
18 -34 22 l-22 7 22 29 c17 21 32 29 57 29 31 1 33 -1 27 -25z"/>
</g>
</svg>
