<?xml version="1.0" standalone="no"?>
<!DOCTYPE svg PUBLIC "-//W3C//DTD SVG 20010904//EN"
 "http://www.w3.org/TR/2001/REC-SVG-20010904/DTD/svg10.dtd">
<svg version="1.0" xmlns="http://www.w3.org/2000/svg"
 width="96.000000pt" height="68.000000pt" viewBox="0 0 96.000000 68.000000"
 preserveAspectRatio="xMidYMid meet">
<metadata>
Created by potrace 1.16, written by Peter Selinger 2001-2019
</metadata>
<g transform="translate(0.000000,68.000000) scale(0.100000,-0.100000)"
fill="#000000" stroke="none">
<path d="M283 575 c31 -27 52 -32 63 -13 10 16 -25 38 -60 38 l-31 -1 28 -24z"/>
<path d="M229 516 c26 -28 61 -35 61 -12 0 18 -6 22 -50 31 l-35 7 24 -26z"/>
<path d="M263 432 c-52 -25 -68 -52 -42 -68 11 -6 108 81 99 89 -3 3 -29 -7
-57 -21z"/>
</g>
</svg>
