<?xml version="1.0" standalone="no"?>
<!DOCTYPE svg PUBLIC "-//W3C//DTD SVG 20010904//EN"
 "http://www.w3.org/TR/2001/REC-SVG-20010904/DTD/svg10.dtd">
<svg version="1.0" xmlns="http://www.w3.org/2000/svg"
 width="96.000000pt" height="68.000000pt" viewBox="0 0 96.000000 68.000000"
 preserveAspectRatio="xMidYMid meet">
<metadata>
Created by potrace 1.16, written by Peter Selinger 2001-2019
</metadata>
<g transform="translate(0.000000,68.000000) scale(0.100000,-0.100000)"
fill="#000000" stroke="none">
<path d="M729 266 c-12 -12 -231 -37 -281 -33 -32 3 -58 3 -58 1 0 -3 6 -15
14 -27 8 -12 17 -40 20 -62 14 -83 27 -117 39 -107 7 5 60 12 118 15 102 6
107 6 121 -15 30 -44 79 11 89 101 4 31 10 65 14 77 5 17 0 24 -28 37 -38 18
-41 19 -48 13z m11 -88 c0 -88 -4 -93 -63 -93 -29 0 -86 -4 -129 -8 l-76 -9
-11 52 c-19 87 -19 86 57 97 37 6 102 11 145 12 l77 1 0 -52z"/>
</g>
</svg>
