<?xml version="1.0" standalone="no"?>
<!DOCTYPE svg PUBLIC "-//W3C//DTD SVG 20010904//EN"
 "http://www.w3.org/TR/2001/REC-SVG-20010904/DTD/svg10.dtd">
<svg version="1.0" xmlns="http://www.w3.org/2000/svg"
 width="96.000000pt" height="68.000000pt" viewBox="0 0 96.000000 68.000000"
 preserveAspectRatio="xMidYMid meet">
<metadata>
Created by potrace 1.16, written by Peter Selinger 2001-2019
</metadata>
<g transform="translate(0.000000,68.000000) scale(0.100000,-0.100000)"
fill="#000000" stroke="none">
<path d="M453 292 c-6 -4 -13 -23 -15 -42 l-3 -35 -100 -11 c-80 -8 -94 -12
-72 -18 16 -5 55 -6 88 -3 32 3 59 1 59 -3 0 -19 -56 -72 -112 -107 -72 -44
-63 -54 17 -19 36 17 78 47 116 86 56 57 61 60 108 60 55 0 81 7 81 22 0 6
-22 7 -60 3 -39 -5 -60 -3 -60 3 0 6 5 14 10 17 6 3 10 10 10 15 0 14 -55 40
-67 32z"/>
</g>
</svg>
