<?xml version="1.0" standalone="no"?>
<!DOCTYPE svg PUBLIC "-//W3C//DTD SVG 20010904//EN"
 "http://www.w3.org/TR/2001/REC-SVG-20010904/DTD/svg10.dtd">
<svg version="1.0" xmlns="http://www.w3.org/2000/svg"
 width="96.000000pt" height="68.000000pt" viewBox="0 0 96.000000 68.000000"
 preserveAspectRatio="xMidYMid meet">
<metadata>
Created by potrace 1.16, written by Peter Selinger 2001-2019
</metadata>
<g transform="translate(0.000000,68.000000) scale(0.100000,-0.100000)"
fill="#000000" stroke="none">
<path d="M675 255 c-44 -8 -111 -14 -148 -14 -61 -1 -67 -3 -54 -16 9 -8 20
-36 26 -63 5 -26 15 -60 21 -76 9 -24 13 -26 25 -16 9 8 65 16 133 21 64 4
119 8 121 8 2 1 -2 7 -8 15 -8 10 -4 26 17 70 22 42 26 59 17 66 -20 17 -67
18 -150 5z m85 -36 c0 -12 -5 -39 -11 -60 -12 -37 -13 -38 -73 -44 -34 -4 -77
-5 -96 -3 -33 3 -35 6 -46 55 l-12 52 57 6 c31 3 65 7 76 9 11 2 39 4 63 5 37
1 42 -2 42 -20z"/>
</g>
</svg>
