<?xml version="1.0" standalone="no"?>
<!DOCTYPE svg PUBLIC "-//W3C//DTD SVG 20010904//EN"
 "http://www.w3.org/TR/2001/REC-SVG-20010904/DTD/svg10.dtd">
<svg version="1.0" xmlns="http://www.w3.org/2000/svg"
 width="96.000000pt" height="68.000000pt" viewBox="0 0 96.000000 68.000000"
 preserveAspectRatio="xMidYMid meet">
<metadata>
Created by potrace 1.16, written by Peter Selinger 2001-2019
</metadata>
<g transform="translate(0.000000,68.000000) scale(0.100000,-0.100000)"
fill="#000000" stroke="none">
<path d="M260 398 c-13 -18 -31 -39 -39 -45 -9 -7 -26 -21 -38 -30 -13 -11
-20 -23 -15 -29 5 -9 34 -5 105 14 79 21 103 23 118 14 27 -17 39 -15 39 8 0
20 -27 40 -54 40 -9 0 -15 -5 -13 -12 1 -7 -22 -16 -60 -24 -35 -6 -63 -9 -63
-6 0 3 17 20 38 38 34 29 36 34 21 48 -14 15 -17 13 -39 -16z"/>
</g>
</svg>
