<?xml version="1.0" standalone="no"?>
<!DOCTYPE svg PUBLIC "-//W3C//DTD SVG 20010904//EN"
 "http://www.w3.org/TR/2001/REC-SVG-20010904/DTD/svg10.dtd">
<svg version="1.0" xmlns="http://www.w3.org/2000/svg"
 width="96.000000pt" height="68.000000pt" viewBox="0 0 96.000000 68.000000"
 preserveAspectRatio="xMidYMid meet">
<metadata>
Created by potrace 1.16, written by Peter Selinger 2001-2019
</metadata>
<g transform="translate(0.000000,68.000000) scale(0.100000,-0.100000)"
fill="#000000" stroke="none">
<path d="M490 566 c0 -13 -16 -47 -36 -76 -19 -28 -33 -54 -31 -57 3 -2 20 9
38 25 30 26 48 31 153 46 66 9 122 18 124 21 14 14 -64 16 -132 3 -45 -9 -83
-14 -85 -12 -2 2 3 12 12 22 23 25 21 39 -5 46 -35 9 -38 8 -38 -18z"/>
<path d="M260 575 c0 -12 73 -85 85 -85 19 0 36 26 29 44 -8 21 -56 46 -89 46
-14 0 -25 -2 -25 -5z"/>
<path d="M600 450 c-14 -4 -45 -8 -70 -9 l-45 -1 3 -75 c4 -85 -1 -82 109 -66
29 4 59 3 69 -2 24 -14 32 1 39 75 5 60 4 68 -14 77 -22 12 -55 13 -91 1z m60
-39 c0 -14 -11 -20 -46 -25 -78 -10 -94 -8 -94 13 0 16 9 21 48 26 26 3 54 7
62 9 22 4 30 -3 30 -23z m0 -60 c0 -15 -12 -21 -63 -30 -82 -14 -77 -15 -77
13 0 23 4 25 53 29 28 2 60 4 70 5 11 1 17 -5 17 -17z"/>
<path d="M302 430 c-12 -5 -56 -14 -98 -19 -82 -10 -97 -17 -74 -32 15 -10 67
-6 148 10 43 8 43 8 25 -12 -50 -57 -152 -150 -185 -169 -37 -21 -49 -38 -27
-38 21 0 84 34 125 67 23 18 44 33 48 33 10 0 7 -110 -5 -151 -10 -32 -9 -42
5 -64 33 -50 46 -27 53 98 3 48 9 87 12 87 3 0 15 -7 25 -15 29 -22 56 -19 56
5 0 13 -10 24 -25 30 -33 13 -32 17 13 36 l37 15 -24 20 c-29 24 -38 24 -46 0
-3 -10 -14 -26 -24 -35 -15 -14 -20 -14 -30 -2 -9 11 -2 23 39 62 27 26 50 51
50 54 0 9 -47 30 -63 29 -7 0 -22 -4 -35 -9z"/>
<path d="M517 247 c-13 -30 -36 -55 -96 -107 -33 -28 -8 -25 43 5 l42 25 34
-29 34 -28 -50 -26 c-27 -14 -67 -28 -87 -32 -21 -4 -39 -11 -42 -15 -8 -12
102 9 150 30 59 25 58 26 110 -10 38 -26 52 -30 107 -29 101 1 110 12 26 33
-81 21 -148 51 -148 66 0 6 18 30 41 55 22 24 38 48 35 53 -9 16 -56 20 -94
10 -32 -9 -38 -8 -50 11 -20 30 -40 26 -55 -12z m123 -29 c0 -7 -9 -28 -20
-46 l-20 -32 -41 21 c-38 19 -40 22 -26 37 9 8 36 19 59 23 24 3 44 7 46 8 1
0 2 -5 2 -11z"/>
</g>
</svg>
