<?xml version="1.0" standalone="no"?>
<!DOCTYPE svg PUBLIC "-//W3C//DTD SVG 20010904//EN"
 "http://www.w3.org/TR/2001/REC-SVG-20010904/DTD/svg10.dtd">
<svg version="1.0" xmlns="http://www.w3.org/2000/svg"
 width="90.000000pt" height="92.000000pt" viewBox="0 0 90.000000 92.000000"
 preserveAspectRatio="xMidYMid meet">
<metadata>
Created by potrace 1.16, written by Peter Selinger 2001-2019
</metadata>
<g transform="translate(0.000000,92.000000) scale(0.100000,-0.100000)"
fill="#000000" stroke="none">
<path d="M422 825 c1 -10 22 -25 45 -34 34 -13 59 -37 122 -117 107 -136 118
-144 200 -144 88 0 109 14 56 35 -144 59 -170 75 -260 170 -74 78 -97 95 -128
101 -34 6 -38 4 -35 -11z"/>
<path d="M216 769 c-12 -76 -91 -212 -175 -302 -79 -85 -25 -69 71 21 l48 45
0 -119 c0 -66 -7 -150 -15 -188 -12 -58 -12 -73 -1 -101 17 -41 32 -50 41 -27
5 9 11 111 15 227 6 180 5 212 -8 228 -13 15 -13 19 0 35 9 9 37 53 63 97 l47
80 -27 22 c-38 33 -51 29 -59 -18z"/>
<path d="M361 663 c-12 -47 -32 -79 -99 -162 -19 -23 -30 -41 -25 -41 23 0 77
46 143 120 70 80 71 83 54 100 -11 10 -28 21 -40 24 -17 5 -22 0 -33 -41z"/>
<path d="M604 500 c-12 -5 -80 -18 -150 -30 -71 -12 -131 -23 -132 -25 -9 -8
58 -34 72 -29 12 5 16 -1 16 -25 0 -57 -40 -141 -94 -198 -55 -56 -55 -63 0
-37 49 23 97 82 139 169 30 62 34 79 24 91 -17 21 -9 25 75 31 l76 6 0 -44 c0
-49 -24 -169 -41 -211 -12 -30 -32 -34 -86 -19 l-32 9 37 -48 c45 -59 56 -64
86 -44 34 22 62 94 80 212 9 57 21 112 26 122 16 29 12 39 -22 60 -36 22 -43
23 -74 10z"/>
</g>
</svg>
