<?xml version="1.0" standalone="no"?>
<!DOCTYPE svg PUBLIC "-//W3C//DTD SVG 20010904//EN"
 "http://www.w3.org/TR/2001/REC-SVG-20010904/DTD/svg10.dtd">
<svg version="1.0" xmlns="http://www.w3.org/2000/svg"
 width="96.000000pt" height="68.000000pt" viewBox="0 0 96.000000 68.000000"
 preserveAspectRatio="xMidYMid meet">
<metadata>
Created by potrace 1.16, written by Peter Selinger 2001-2019
</metadata>
<g transform="translate(0.000000,68.000000) scale(0.100000,-0.100000)"
fill="#000000" stroke="none">
<path d="M460 570 c0 -5 16 -14 36 -19 25 -7 65 -38 124 -96 l87 -85 79 0 c87
1 85 6 -14 39 -75 26 -120 53 -182 111 -25 23 -53 46 -62 51 -22 12 -68 12
-68 -1z"/>
<path d="M405 463 c-3 -16 -32 -54 -63 -85 -31 -32 -50 -58 -42 -58 25 1 56
22 120 84 57 55 61 61 44 73 -29 21 -51 16 -59 -14z"/>
</g>
</svg>
