<?xml version="1.0" standalone="no"?>
<!DOCTYPE svg PUBLIC "-//W3C//DTD SVG 20010904//EN"
 "http://www.w3.org/TR/2001/REC-SVG-20010904/DTD/svg10.dtd">
<svg version="1.0" xmlns="http://www.w3.org/2000/svg"
 width="90.000000pt" height="92.000000pt" viewBox="0 0 90.000000 92.000000"
 preserveAspectRatio="xMidYMid meet">
<metadata>
Created by potrace 1.16, written by Peter Selinger 2001-2019
</metadata>
<g transform="translate(0.000000,92.000000) scale(0.100000,-0.100000)"
fill="#000000" stroke="none">
<path d="M194 808 c3 -24 9 -82 13 -129 7 -99 15 -90 -101 -110 -64 -11 -68
-13 -50 -26 14 -11 35 -13 87 -8 l67 6 0 -48 c0 -27 -6 -58 -14 -69 -17 -23
-166 -124 -184 -124 -21 0 -13 -27 13 -44 13 -9 28 -16 33 -16 4 0 37 28 72
63 l65 62 3 -55 c1 -30 -1 -73 -6 -95 -8 -40 -8 -40 -53 -37 l-44 3 50 -51
c27 -27 55 -50 61 -50 6 0 19 15 28 34 14 29 15 55 10 161 l-7 126 48 49 c54
55 57 73 5 35 -44 -33 -50 -32 -50 8 0 43 16 61 68 76 24 7 40 16 36 22 -11
18 -48 27 -73 17 l-24 -9 6 87 c3 48 11 92 16 97 14 14 2 36 -30 52 -46 24
-52 20 -45 -27z"/>
<path d="M600 824 c-30 -7 -94 -18 -143 -25 -93 -13 -113 -32 -40 -37 37 -3
41 -6 46 -35 2 -18 3 -34 0 -37 -2 -2 -29 -4 -59 -4 -50 1 -67 -7 -45 -21 5
-3 13 -31 17 -63 9 -77 21 -107 37 -94 16 14 231 35 272 28 33 -7 34 -6 54 50
12 30 28 68 36 84 14 27 13 29 -11 45 -20 13 -37 15 -75 10 -49 -7 -50 -7 -44
18 5 18 2 28 -12 36 -16 9 -15 10 9 11 15 0 39 5 55 11 27 10 27 11 9 25 -23
16 -33 16 -106 -2z m-15 -85 c0 -32 -2 -34 -38 -37 -38 -3 -38 -3 -35 30 2 26
9 34 28 39 38 10 45 5 45 -32z m122 -65 c3 -8 0 -33 -6 -55 -11 -36 -15 -39
-46 -39 -38 0 -41 8 -29 68 6 29 16 36 62 41 7 0 15 -6 19 -15z m-121 -26 c-3
-13 -6 -35 -6 -49 0 -22 -5 -28 -30 -31 -29 -4 -30 -3 -30 33 0 21 -3 44 -6
53 -5 13 2 16 36 16 39 0 42 -2 36 -22z m-110 -33 c7 -52 8 -50 -28 -59 -28
-6 -28 -6 -28 49 0 52 1 55 24 55 22 0 26 -6 32 -45z"/>
<path d="M511 474 c-98 -18 -100 -19 -73 -33 19 -10 43 -10 110 -1 48 6 96 13
106 17 19 5 19 6 1 19 -22 16 -44 16 -144 -2z"/>
<path d="M709 406 c-5 -6 -200 -30 -341 -43 -38 -3 -68 -9 -68 -13 0 -4 16
-14 36 -22 31 -13 45 -13 97 -1 33 8 66 12 74 9 12 -5 14 -31 12 -136 -2 -90
1 -134 9 -142 27 -27 37 10 40 152 l4 140 119 0 c65 0 119 4 119 8 0 25 -84
64 -101 48z"/>
<path d="M677 228 c93 -119 113 -130 113 -62 0 42 -30 76 -93 104 -67 31 -71
24 -20 -42z"/>
<path d="M400 267 c0 -7 -18 -40 -41 -72 -22 -31 -38 -60 -35 -62 10 -10 69
32 100 70 24 30 28 41 20 55 -14 22 -44 28 -44 9z"/>
</g>
</svg>
