<?xml version="1.0" standalone="no"?>
<!DOCTYPE svg PUBLIC "-//W3C//DTD SVG 20010904//EN"
 "http://www.w3.org/TR/2001/REC-SVG-20010904/DTD/svg10.dtd">
<svg version="1.0" xmlns="http://www.w3.org/2000/svg"
 width="96.000000pt" height="68.000000pt" viewBox="0 0 96.000000 68.000000"
 preserveAspectRatio="xMidYMid meet">
<metadata>
Created by potrace 1.16, written by Peter Selinger 2001-2019
</metadata>
<g transform="translate(0.000000,68.000000) scale(0.100000,-0.100000)"
fill="#000000" stroke="none">
<path d="M425 96 c-16 -17 -41 -38 -54 -47 -15 -10 -22 -21 -19 -31 6 -14 18
-13 110 8 129 29 154 30 170 4 23 -37 58 -18 38 20 -9 17 -77 60 -95 60 -3 0
-1 -9 5 -19 13 -26 7 -29 -86 -36 l-79 -6 30 25 c17 14 33 26 38 26 4 0 7 7 7
15 0 24 -33 15 -65 -19z"/>
</g>
</svg>
