<?xml version="1.0" standalone="no"?>
<!DOCTYPE svg PUBLIC "-//W3C//DTD SVG 20010904//EN"
 "http://www.w3.org/TR/2001/REC-SVG-20010904/DTD/svg10.dtd">
<svg version="1.0" xmlns="http://www.w3.org/2000/svg"
 width="90.000000pt" height="92.000000pt" viewBox="0 0 90.000000 92.000000"
 preserveAspectRatio="xMidYMid meet">
<metadata>
Created by potrace 1.16, written by Peter Selinger 2001-2019
</metadata>
<g transform="translate(0.000000,92.000000) scale(0.100000,-0.100000)"
fill="#000000" stroke="none">
<path d="M520 852 c0 -6 6 -37 14 -69 8 -32 17 -79 20 -105 6 -53 15 -48 -109
-73 -44 -9 -90 -18 -103 -21 -20 -4 -21 -7 -9 -24 31 -44 -1 -237 -58 -353
l-35 -72 45 48 c51 56 87 154 105 291 6 44 12 82 15 84 5 5 130 31 151 32 7 0
15 -25 19 -56 4 -31 18 -99 31 -152 l24 -95 -24 -31 c-13 -17 -42 -51 -65 -75
-23 -24 -41 -46 -41 -48 0 -11 81 41 110 71 19 20 38 36 41 36 3 0 14 -18 24
-41 10 -22 43 -65 72 -95 51 -52 91 -73 112 -59 10 5 8 64 -4 140 -2 11 -4 27
-5 35 -1 8 -9 -7 -18 -34 -9 -27 -23 -51 -30 -54 -17 -5 -69 52 -97 107 l-23
46 51 103 c50 101 51 103 31 121 -10 11 -28 21 -39 23 -17 3 -20 -3 -22 -41
-1 -46 -29 -131 -42 -131 -8 0 -34 111 -47 197 l-6 42 61 7 c33 3 61 11 61 16
0 18 -62 36 -94 27 -17 -5 -32 -9 -33 -9 -2 0 -3 42 -3 94 0 63 -4 97 -13 104
-19 16 -67 26 -67 14z"/>
<path d="M186 778 c-2 -7 -10 -35 -16 -61 -13 -48 -64 -143 -94 -173 -19 -19
-20 -25 -2 -49 13 -18 15 -18 56 -1 23 9 45 15 47 12 7 -6 -64 -106 -90 -127
-16 -13 -17 -20 -8 -37 7 -12 15 -22 19 -22 4 0 38 16 76 35 77 39 91 42 100
19 5 -13 9 -14 21 -4 23 19 18 46 -11 69 -36 28 -59 28 -44 0 7 -11 10 -22 8
-23 -10 -9 -99 -38 -103 -35 -5 5 105 161 138 197 17 18 19 27 11 49 -15 43
-29 37 -53 -22 -13 -30 -26 -57 -29 -59 -18 -9 -82 -16 -82 -8 0 5 27 52 60
105 50 79 59 100 51 116 -9 16 -32 31 -47 31 -3 0 -6 -6 -8 -12z"/>
<path d="M650 743 c0 -18 69 -83 88 -83 49 0 32 64 -20 75 -18 4 -41 9 -50 11
-10 3 -18 1 -18 -3z"/>
<path d="M448 481 c-50 -17 -59 -27 -33 -38 18 -6 133 16 140 27 4 6 -55 34
-59 29 -1 -1 -22 -9 -48 -18z"/>
<path d="M476 384 c-21 -7 -49 -11 -62 -8 -23 6 -34 -9 -15 -20 5 -4 12 -28
16 -54 7 -56 21 -83 33 -65 4 6 31 15 60 19 47 6 52 9 46 27 -3 11 0 38 7 59
11 34 11 41 -2 49 -19 12 -36 10 -83 -7z m40 -56 c-7 -38 -5 -35 -39 -43 -26
-7 -27 -5 -27 27 0 42 5 48 43 48 28 0 29 -2 23 -32z"/>
<path d="M230 333 c0 -15 40 -73 49 -73 15 0 23 18 16 39 -7 22 -65 53 -65 34z"/>
<path d="M140 291 c0 -17 47 -76 63 -79 21 -4 24 40 4 56 -19 16 -67 33 -67
23z"/>
<path d="M30 258 c1 -21 54 -122 66 -126 17 -4 24 34 13 73 -7 23 -20 40 -39
50 -35 18 -40 19 -40 3z"/>
</g>
</svg>
