<?xml version="1.0" standalone="no"?>
<!DOCTYPE svg PUBLIC "-//W3C//DTD SVG 20010904//EN"
 "http://www.w3.org/TR/2001/REC-SVG-20010904/DTD/svg10.dtd">
<svg version="1.0" xmlns="http://www.w3.org/2000/svg"
 width="96.000000pt" height="68.000000pt" viewBox="0 0 96.000000 68.000000"
 preserveAspectRatio="xMidYMid meet">
<metadata>
Created by potrace 1.16, written by Peter Selinger 2001-2019
</metadata>
<g transform="translate(0.000000,68.000000) scale(0.100000,-0.100000)"
fill="#000000" stroke="none">
<path d="M529 251 c21 -14 6 -55 -26 -68 l-28 -12 30 6 c17 3 30 6 30 7 0 1 7
15 17 33 18 35 15 43 -16 43 -16 0 -18 -2 -7 -9z"/>
<path d="M433 235 c0 -8 4 -12 9 -9 4 3 8 9 8 15 0 5 -4 9 -8 9 -5 0 -9 -7 -9
-15z"/>
<path d="M445 210 c-7 -11 14 -55 22 -47 2 3 0 14 -6 25 -6 11 -7 22 -4 26 3
3 4 6 0 6 -3 0 -9 -4 -12 -10z"/>
</g>
</svg>
