<?xml version="1.0" standalone="no"?>
<!DOCTYPE svg PUBLIC "-//W3C//DTD SVG 20010904//EN"
 "http://www.w3.org/TR/2001/REC-SVG-20010904/DTD/svg10.dtd">
<svg version="1.0" xmlns="http://www.w3.org/2000/svg"
 width="90.000000pt" height="92.000000pt" viewBox="0 0 90.000000 92.000000"
 preserveAspectRatio="xMidYMid meet">
<metadata>
Created by potrace 1.16, written by Peter Selinger 2001-2019
</metadata>
<g transform="translate(0.000000,92.000000) scale(0.100000,-0.100000)"
fill="#000000" stroke="none">
<path d="M156 843 c-3 -3 -6 -16 -6 -27 0 -27 -41 -114 -81 -172 -40 -58 -12
-46 51 22 34 37 51 48 81 50 l37 4 -24 -58 c-39 -89 -44 -93 -113 -95 -59 -2
-73 -11 -51 -33 5 -5 14 -43 20 -84 6 -41 13 -83 16 -92 6 -19 20 -24 26 -9 5
16 151 32 160 18 13 -22 31 10 56 96 32 113 32 119 -1 135 -23 11 -35 11 -76
-1 l-49 -14 50 68 c27 38 54 71 59 74 5 4 9 13 9 20 0 23 -46 29 -91 11 -50
-20 -57 -15 -35 19 10 15 15 33 12 40 -6 17 -41 37 -50 28z m138 -272 c3 -5 3
-22 0 -38 -5 -26 -10 -28 -45 -28 -34 0 -39 3 -39 22 0 13 0 26 0 31 -1 4 14
10 32 13 18 4 36 7 40 8 4 0 9 -3 12 -8z m-130 -48 c8 -29 -5 -43 -41 -43 -19
0 -23 6 -23 28 0 34 6 42 36 42 15 0 24 -8 28 -27z m120 -70 c-10 -40 -10 -40
-49 -45 -30 -3 -34 -1 -30 17 2 11 4 25 4 32 1 11 23 19 64 22 14 1 16 -4 11
-26z m-116 -25 c-2 -28 -8 -34 -30 -36 -25 -3 -28 0 -28 27 0 29 3 31 53 40 5
0 7 -14 5 -31z"/>
<path d="M497 734 c-31 -17 -71 -20 -105 -9 -23 7 -23 6 -15 -31 12 -57 7
-378 -7 -419 -13 -41 -5 -75 18 -75 9 0 45 28 79 62 l63 63 24 -30 24 -30 11
28 c14 36 2 61 -42 87 -48 30 -62 26 -37 -10 l21 -29 -53 -30 c-29 -17 -57
-31 -61 -31 -4 0 -6 19 -3 43 3 23 5 65 5 93 l1 52 46 4 c33 2 48 -1 54 -12
16 -28 30 5 56 130 l25 124 -23 18 c-28 21 -44 22 -81 2z m38 -72 c1 -40 0
-42 -30 -41 -16 1 -40 -2 -52 -6 -21 -7 -23 -4 -23 32 0 39 1 40 43 50 58 14
62 12 62 -35z m-5 -86 c0 -7 -3 -26 -6 -42 -5 -27 -9 -29 -56 -31 -41 -2 -49
0 -44 13 3 9 6 26 6 39 0 18 6 25 28 28 56 8 72 7 72 -7z"/>
<path d="M736 725 c-33 -9 -56 -11 -73 -4 -13 5 -25 9 -27 9 -1 0 0 -66 1
-147 2 -82 3 -239 3 -350 0 -188 7 -237 25 -180 4 12 10 155 13 317 4 162 10
300 14 306 9 14 63 25 83 18 12 -5 15 -24 14 -88 -1 -116 -7 -131 -51 -130
l-35 1 29 -43 c25 -37 32 -42 48 -34 32 17 42 48 56 179 l14 126 -22 17 c-27
20 -28 20 -92 3z"/>
<path d="M281 313 c5 -16 17 -37 25 -48 13 -17 16 -18 24 -5 18 28 -13 80 -46
80 -10 0 -10 -7 -3 -27z"/>
<path d="M23 263 c-26 -67 -28 -84 -11 -101 18 -18 24 -15 36 16 19 48 22 86
9 115 l-12 28 -22 -58z"/>
<path d="M190 315 c0 -20 35 -85 46 -85 24 0 17 57 -8 74 -22 16 -38 20 -38
11z"/>
<path d="M110 288 c0 -26 34 -98 44 -95 22 7 18 64 -5 86 -26 24 -39 27 -39 9z"/>
</g>
</svg>
