<?xml version="1.0" standalone="no"?>
<!DOCTYPE svg PUBLIC "-//W3C//DTD SVG 20010904//EN"
 "http://www.w3.org/TR/2001/REC-SVG-20010904/DTD/svg10.dtd">
<svg version="1.0" xmlns="http://www.w3.org/2000/svg"
 width="96.000000pt" height="68.000000pt" viewBox="0 0 96.000000 68.000000"
 preserveAspectRatio="xMidYMid meet">
<metadata>
Created by potrace 1.16, written by Peter Selinger 2001-2019
</metadata>
<g transform="translate(0.000000,68.000000) scale(0.100000,-0.100000)"
fill="#000000" stroke="none">
<path d="M525 513 c-23 -8 -53 -11 -73 -7 -31 6 -34 5 -28 -11 3 -10 9 -51 13
-92 l6 -74 48 2 c27 2 52 0 55 -4 18 -17 34 -4 44 36 6 23 17 62 25 87 21 67
-12 90 -90 63z m40 -47 c0 -26 -3 -28 -47 -32 -41 -3 -48 -1 -48 15 0 21 16
37 45 44 38 9 50 3 50 -27z m-7 -78 c-3 -31 -6 -33 -46 -36 -42 -3 -43 -2 -40
25 3 28 6 30 81 42 5 0 7 -14 5 -31z"/>
</g>
</svg>
