<?xml version="1.0" standalone="no"?>
<!DOCTYPE svg PUBLIC "-//W3C//DTD SVG 20010904//EN"
 "http://www.w3.org/TR/2001/REC-SVG-20010904/DTD/svg10.dtd">
<svg version="1.0" xmlns="http://www.w3.org/2000/svg"
 width="96.000000pt" height="68.000000pt" viewBox="0 0 96.000000 68.000000"
 preserveAspectRatio="xMidYMid meet">
<metadata>
Created by potrace 1.16, written by Peter Selinger 2001-2019
</metadata>
<g transform="translate(0.000000,68.000000) scale(0.100000,-0.100000)"
fill="#000000" stroke="none">
<path d="M450 250 c-14 -4 -42 -8 -62 -9 -21 -1 -38 -3 -38 -5 0 -3 21 -65 35
-105 4 -11 8 -12 17 -3 7 7 23 12 38 12 37 0 73 12 61 19 -7 5 -5 19 8 44 18
36 18 38 1 47 -21 11 -25 11 -60 0z m18 -52 c-2 -27 -8 -33 -34 -39 -29 -5
-32 -3 -42 27 -11 37 -6 42 46 43 32 1 33 -1 30 -31z"/>
</g>
</svg>
