<?xml version="1.0" standalone="no"?>
<!DOCTYPE svg PUBLIC "-//W3C//DTD SVG 20010904//EN"
 "http://www.w3.org/TR/2001/REC-SVG-20010904/DTD/svg10.dtd">
<svg version="1.0" xmlns="http://www.w3.org/2000/svg"
 width="90.000000pt" height="92.000000pt" viewBox="0 0 90.000000 92.000000"
 preserveAspectRatio="xMidYMid meet">
<metadata>
Created by potrace 1.16, written by Peter Selinger 2001-2019
</metadata>
<g transform="translate(0.000000,92.000000) scale(0.100000,-0.100000)"
fill="#000000" stroke="none">
<path d="M467 878 c4 -7 10 -77 13 -155 5 -136 6 -144 30 -168 50 -49 218 -55
287 -10 28 19 28 21 3 70 -11 22 -20 47 -20 57 0 10 -4 18 -10 18 -5 0 -10
-10 -10 -22 0 -13 -9 -37 -19 -54 -22 -37 -73 -50 -142 -39 -55 9 -79 35 -79
84 l0 38 74 6 c106 9 131 23 85 48 -16 8 -36 7 -85 -7 -35 -9 -66 -15 -68 -13
-2 2 1 33 6 68 9 58 8 66 -8 78 -24 17 -68 18 -57 1z"/>
<path d="M264 835 c3 -13 11 -81 16 -151 11 -134 9 -143 -32 -144 -16 0 -18
11 -18 84 0 88 -4 96 -51 96 -20 0 -24 -10 -10 -26 5 -5 11 -45 13 -89 l3 -80
-37 3 c-46 4 -47 -5 -9 -42 l30 -28 73 29 c40 17 102 40 138 53 36 13 69 27
74 31 19 17 -26 20 -71 5 -25 -9 -48 -16 -50 -16 -2 0 -3 26 -3 58 l0 58 53
10 c35 6 52 14 52 24 0 21 -38 24 -74 5 l-31 -16 0 75 c0 78 -5 86 -52 86 -16
0 -19 -5 -14 -25z"/>
<path d="M530 449 c-360 -40 -370 -41 -358 -56 24 -30 46 -33 104 -18 71 18
74 18 74 1 0 -36 -146 -168 -251 -226 -30 -16 -46 -30 -36 -30 28 0 116 39
179 81 65 42 62 45 77 -65 10 -72 25 -102 37 -73 5 13 19 17 64 17 31 0 91 3
133 6 73 7 76 8 71 29 -3 13 5 49 20 86 14 34 23 66 20 71 -16 25 -64 38 -111
29 -26 -5 -84 -12 -127 -16 l-80 -8 37 44 c25 28 35 49 31 61 -4 14 0 18 18
19 13 1 88 4 168 8 l145 6 -22 23 c-25 24 -56 26 -193 11z m53 -196 c3 -5 1
-34 -5 -65 l-10 -56 -76 -7 c-43 -3 -89 -8 -103 -10 -26 -4 -26 -2 -32 58 -3
34 -3 64 -1 67 14 14 220 25 227 13z"/>
</g>
</svg>
