<?xml version="1.0" standalone="no"?>
<!DOCTYPE svg PUBLIC "-//W3C//DTD SVG 20010904//EN"
 "http://www.w3.org/TR/2001/REC-SVG-20010904/DTD/svg10.dtd">
<svg version="1.0" xmlns="http://www.w3.org/2000/svg"
 width="96.000000pt" height="68.000000pt" viewBox="0 0 96.000000 68.000000"
 preserveAspectRatio="xMidYMid meet">
<metadata>
Created by potrace 1.16, written by Peter Selinger 2001-2019
</metadata>
<g transform="translate(0.000000,68.000000) scale(0.100000,-0.100000)"
fill="#000000" stroke="none">
<path d="M516 503 c6 -103 7 -109 35 -135 27 -26 35 -28 112 -27 81 1 153 17
151 35 0 5 -9 28 -20 51 l-19 41 -20 -41 -20 -42 -72 -3 c-62 -2 -75 0 -93 18
-24 24 -24 69 0 80 8 5 48 14 88 21 72 14 88 25 59 43 -10 6 -31 1 -68 -17
-29 -15 -62 -27 -72 -27 -18 0 -19 5 -14 45 6 42 5 46 -19 55 -14 6 -27 10
-30 10 -3 0 -2 -48 2 -107z"/>
</g>
</svg>
