<?xml version="1.0" standalone="no"?>
<!DOCTYPE svg PUBLIC "-//W3C//DTD SVG 20010904//EN"
 "http://www.w3.org/TR/2001/REC-SVG-20010904/DTD/svg10.dtd">
<svg version="1.0" xmlns="http://www.w3.org/2000/svg"
 width="96.000000pt" height="68.000000pt" viewBox="0 0 96.000000 68.000000"
 preserveAspectRatio="xMidYMid meet">
<metadata>
Created by potrace 1.16, written by Peter Selinger 2001-2019
</metadata>
<g transform="translate(0.000000,68.000000) scale(0.100000,-0.100000)"
fill="#000000" stroke="none">
<path d="M516 498 c8 -135 21 -151 127 -156 77 -4 155 11 163 32 7 17 -25 88
-36 81 -6 -3 -10 -14 -10 -24 0 -35 -32 -51 -101 -51 -74 0 -94 11 -102 57 -8
40 2 47 88 62 87 15 106 25 77 40 -17 9 -30 6 -70 -14 -28 -14 -60 -25 -72
-25 -20 0 -21 4 -18 48 3 45 2 47 -25 50 l-28 3 7 -103z"/>
<path d="M325 568 c4 -13 9 -65 12 -115 5 -90 5 -93 -16 -93 -19 0 -21 6 -21
60 0 60 0 60 -30 60 -28 0 -29 -2 -20 -26 6 -14 10 -43 10 -65 0 -37 -2 -39
-30 -39 -16 0 -30 -4 -30 -8 0 -15 24 -32 44 -32 32 0 246 64 246 74 0 8 -26
5 -77 -10 -21 -6 -23 -3 -23 34 0 38 1 40 38 46 47 8 67 20 57 36 -7 12 -39 9
-77 -5 -16 -6 -18 -1 -18 43 0 52 -8 62 -52 62 -17 0 -19 -4 -13 -22z"/>
<path d="M490 284 c-69 -8 -154 -16 -190 -20 -61 -6 -63 -7 -40 -19 18 -9 38
-11 70 -5 25 5 51 9 58 10 17 0 15 -24 -5 -47 -23 -25 -125 -92 -181 -117 -23
-10 -42 -23 -42 -29 0 -6 5 -6 13 0 6 6 30 16 52 23 22 7 59 23 82 35 49 27
53 24 72 -50 13 -54 21 -67 28 -47 3 8 25 12 62 12 97 0 180 11 175 24 -2 6 6
33 19 59 38 73 26 78 -168 63 l-100 -8 33 29 c18 15 32 35 32 44 0 14 21 17
141 24 122 6 138 9 122 21 -22 16 -68 16 -233 -2z m116 -166 c-4 -24 -10 -46
-14 -49 -4 -4 -46 -10 -93 -13 l-86 -7 -7 32 c-14 74 -25 69 163 77 l44 2 -7
-42z"/>
</g>
</svg>
