<?xml version="1.0" standalone="no"?>
<!DOCTYPE svg PUBLIC "-//W3C//DTD SVG 20010904//EN"
 "http://www.w3.org/TR/2001/REC-SVG-20010904/DTD/svg10.dtd">
<svg version="1.0" xmlns="http://www.w3.org/2000/svg"
 width="96.000000pt" height="68.000000pt" viewBox="0 0 96.000000 68.000000"
 preserveAspectRatio="xMidYMid meet">
<metadata>
Created by potrace 1.16, written by Peter Selinger 2001-2019
</metadata>
<g transform="translate(0.000000,68.000000) scale(0.100000,-0.100000)"
fill="#000000" stroke="none">
<path d="M290 538 c-19 -5 -56 -8 -82 -5 -47 6 -47 6 -43 -21 21 -134 8 -287
-30 -363 -15 -28 -25 -53 -22 -55 10 -10 62 61 77 107 15 44 22 53 44 54 14 0
36 11 49 23 13 12 27 22 31 22 4 0 5 -39 4 -87 l-3 -88 -35 3 -35 3 35 -36
c19 -19 39 -35 46 -35 33 0 39 32 44 249 6 255 7 254 -80 229z m30 -77 l0 -49
-47 12 c-43 11 -48 15 -51 43 -3 34 6 40 66 42 32 1 32 1 32 -48z m-15 -87
c11 4 15 -1 15 -19 0 -19 -10 -30 -40 -45 -63 -32 -74 -28 -66 26 3 26 6 55 6
66 0 17 3 17 35 -8 19 -14 42 -24 50 -20z"/>
</g>
</svg>
