<?xml version="1.0" standalone="no"?>
<!DOCTYPE svg PUBLIC "-//W3C//DTD SVG 20010904//EN"
 "http://www.w3.org/TR/2001/REC-SVG-20010904/DTD/svg10.dtd">
<svg version="1.0" xmlns="http://www.w3.org/2000/svg"
 width="96.000000pt" height="68.000000pt" viewBox="0 0 96.000000 68.000000"
 preserveAspectRatio="xMidYMid meet">
<metadata>
Created by potrace 1.16, written by Peter Selinger 2001-2019
</metadata>
<g transform="translate(0.000000,68.000000) scale(0.100000,-0.100000)"
fill="#000000" stroke="none">
<path d="M628 323 c2 -148 5 -274 7 -281 11 -32 24 5 30 87 l7 88 82 9 c48 5
79 13 76 19 -6 12 -48 12 -107 1 l-43 -8 0 40 0 40 55 4 c30 3 58 8 62 11 14
15 -9 19 -61 10 l-56 -10 0 44 c0 42 1 43 34 43 52 0 97 12 93 24 -5 12 -11
12 -82 2 l-48 -8 7 70 c7 67 6 70 -16 76 -13 3 -27 6 -33 6 -6 0 -9 -94 -7
-267z"/>
<path d="M280 539 c-14 -6 -45 -7 -70 -4 l-45 6 0 -163 0 -163 -33 -64 c-18
-35 -31 -65 -29 -68 13 -13 69 55 88 107 15 40 25 57 35 53 7 -3 32 9 54 27
l40 32 0 -69 c0 -85 -8 -116 -27 -109 -8 4 -27 9 -41 12 -26 6 -25 5 13 -35
66 -69 105 -51 105 49 0 50 1 52 23 46 14 -3 38 2 60 14 20 11 38 16 41 12 5
-8 -29 -81 -58 -124 -23 -36 -10 -35 29 0 61 56 83 129 87 297 l3 130 -29 3
-28 4 7 -50 6 -49 -32 -7 c-17 -3 -42 -6 -55 -6 -13 0 -24 -5 -24 -11 0 -7 19
-10 53 -7 l52 3 2 -32 c1 -31 0 -32 -53 -39 -30 -3 -54 -11 -54 -17 0 -6 20
-7 55 -3 58 7 61 4 49 -41 -6 -22 -17 -27 -106 -47 l-28 -6 0 107 c0 60 5 128
11 152 8 37 7 45 -8 57 -21 16 -58 17 -93 3z m38 -82 c3 -46 2 -47 -20 -38
-13 5 -35 12 -50 15 -22 5 -28 12 -28 32 0 28 29 45 70 41 22 -2 25 -7 28 -50z
m-53 -77 c3 -6 17 -10 31 -10 38 0 31 -33 -11 -53 -59 -28 -65 -24 -65 38 0
52 1 55 19 45 11 -5 23 -15 26 -20z"/>
</g>
</svg>
