<?xml version="1.0" standalone="no"?>
<!DOCTYPE svg PUBLIC "-//W3C//DTD SVG 20010904//EN"
 "http://www.w3.org/TR/2001/REC-SVG-20010904/DTD/svg10.dtd">
<svg version="1.0" xmlns="http://www.w3.org/2000/svg"
 width="96.000000pt" height="68.000000pt" viewBox="0 0 96.000000 68.000000"
 preserveAspectRatio="xMidYMid meet">
<metadata>
Created by potrace 1.16, written by Peter Selinger 2001-2019
</metadata>
<g transform="translate(0.000000,68.000000) scale(0.100000,-0.100000)"
fill="#000000" stroke="none">
<path d="M430 590 c0 -5 12 -20 27 -34 l26 -24 -34 -6 c-19 -3 -61 -8 -94 -11
-33 -3 -79 -8 -103 -12 -41 -5 -42 -6 -26 -24 15 -17 16 -28 5 -106 -13 -97
-55 -200 -110 -267 -17 -22 -29 -41 -27 -44 10 -9 87 63 111 104 26 45 70 189
80 266 7 57 1 55 242 73 101 7 186 15 189 18 3 3 -4 11 -16 17 -21 11 -131 7
-167 -7 -8 -3 -13 3 -13 16 0 16 -10 26 -35 37 -40 16 -55 18 -55 4z"/>
</g>
</svg>
