<?xml version="1.0" standalone="no"?>
<!DOCTYPE svg PUBLIC "-//W3C//DTD SVG 20010904//EN"
 "http://www.w3.org/TR/2001/REC-SVG-20010904/DTD/svg10.dtd">
<svg version="1.0" xmlns="http://www.w3.org/2000/svg"
 width="96.000000pt" height="68.000000pt" viewBox="0 0 96.000000 68.000000"
 preserveAspectRatio="xMidYMid meet">
<metadata>
Created by potrace 1.16, written by Peter Selinger 2001-2019
</metadata>
<g transform="translate(0.000000,68.000000) scale(0.100000,-0.100000)"
fill="#000000" stroke="none">
<path d="M558 186 c-25 -6 -49 -14 -52 -17 -4 -3 12 -18 35 -33 l41 -28 -23
-16 c-13 -9 -35 -22 -49 -29 -19 -9 -21 -12 -7 -12 10 -1 37 8 59 19 l42 20
38 -27 c22 -14 41 -30 44 -35 10 -16 34 -8 34 12 0 13 -16 30 -44 48 l-44 28
25 33 c21 27 23 35 12 42 -18 11 -51 10 -111 -5z m62 -24 c0 -4 -4 -13 -8 -20
-7 -10 -17 -9 -48 5 l-39 17 40 6 c41 6 55 4 55 -8z"/>
</g>
</svg>
