<?xml version="1.0" standalone="no"?>
<!DOCTYPE svg PUBLIC "-//W3C//DTD SVG 20010904//EN"
 "http://www.w3.org/TR/2001/REC-SVG-20010904/DTD/svg10.dtd">
<svg version="1.0" xmlns="http://www.w3.org/2000/svg"
 width="96.000000pt" height="68.000000pt" viewBox="0 0 96.000000 68.000000"
 preserveAspectRatio="xMidYMid meet">
<metadata>
Created by potrace 1.16, written by Peter Selinger 2001-2019
</metadata>
<g transform="translate(0.000000,68.000000) scale(0.100000,-0.100000)"
fill="#000000" stroke="none">
<path d="M210 542 c0 -14 68 -72 85 -72 19 0 20 44 1 59 -19 16 -86 26 -86 13z"/>
<path d="M157 370 c49 -46 73 -51 73 -15 0 28 -42 55 -87 55 l-28 -1 42 -39z"/>
<path d="M235 240 c-27 -38 -62 -76 -77 -85 -15 -9 -28 -20 -28 -25 0 -19 24
-60 34 -60 12 0 133 226 126 234 -3 2 -27 -27 -55 -64z"/>
</g>
</svg>
