<?xml version="1.0" standalone="no"?>
<!DOCTYPE svg PUBLIC "-//W3C//DTD SVG 20010904//EN"
 "http://www.w3.org/TR/2001/REC-SVG-20010904/DTD/svg10.dtd">
<svg version="1.0" xmlns="http://www.w3.org/2000/svg"
 width="96.000000pt" height="68.000000pt" viewBox="0 0 96.000000 68.000000"
 preserveAspectRatio="xMidYMid meet">
<metadata>
Created by potrace 1.16, written by Peter Selinger 2001-2019
</metadata>
<g transform="translate(0.000000,68.000000) scale(0.100000,-0.100000)"
fill="#000000" stroke="none">
<path d="M615 494 c-38 -7 -97 -13 -130 -13 l-60 -1 3 -127 c2 -71 8 -132 12
-137 15 -15 20 12 22 124 l3 104 85 18 c47 10 101 17 120 15 l35 -2 3 -92 c2
-78 0 -93 -13 -93 -19 0 -19 -10 1 -38 18 -26 39 -28 49 -5 4 10 9 61 10 114
1 53 5 101 9 107 8 14 -32 42 -59 41 -11 -1 -51 -7 -90 -15z"/>
</g>
</svg>
