<?xml version="1.0" standalone="no"?>
<!DOCTYPE svg PUBLIC "-//W3C//DTD SVG 20010904//EN"
 "http://www.w3.org/TR/2001/REC-SVG-20010904/DTD/svg10.dtd">
<svg version="1.0" xmlns="http://www.w3.org/2000/svg"
 width="96.000000pt" height="68.000000pt" viewBox="0 0 96.000000 68.000000"
 preserveAspectRatio="xMidYMid meet">
<metadata>
Created by potrace 1.16, written by Peter Selinger 2001-2019
</metadata>
<g transform="translate(0.000000,68.000000) scale(0.100000,-0.100000)"
fill="#000000" stroke="none">
<path d="M192 528 c2 -6 21 -25 41 -41 30 -25 39 -28 51 -17 22 17 5 45 -35
59 -41 14 -62 14 -57 -1z"/>
<path d="M116 398 c31 -55 94 -80 94 -37 0 13 -11 25 -35 35 -43 18 -69 18
-59 2z"/>
<path d="M235 260 c-16 -20 -47 -50 -68 -66 -28 -21 -36 -33 -31 -48 8 -26 23
-46 35 -46 10 0 101 178 97 190 -2 4 -16 -9 -33 -30z"/>
</g>
</svg>
