<?xml version="1.0" standalone="no"?>
<!DOCTYPE svg PUBLIC "-//W3C//DTD SVG 20010904//EN"
 "http://www.w3.org/TR/2001/REC-SVG-20010904/DTD/svg10.dtd">
<svg version="1.0" xmlns="http://www.w3.org/2000/svg"
 width="90.000000pt" height="92.000000pt" viewBox="0 0 90.000000 92.000000"
 preserveAspectRatio="xMidYMid meet">
<metadata>
Created by potrace 1.16, written by Peter Selinger 2001-2019
</metadata>
<g transform="translate(0.000000,92.000000) scale(0.100000,-0.100000)"
fill="#000000" stroke="none">
<path d="M363 860 c8 -60 -11 -183 -31 -197 -8 -7 -37 -13 -64 -13 -34 0 -48
-4 -48 -14 0 -15 30 -26 77 -26 31 0 31 0 21 -34 -10 -33 -12 -34 -77 -40 -36
-4 -83 -9 -105 -12 -34 -6 -37 -8 -23 -21 18 -18 52 -21 120 -9 l48 7 -17 -33
c-30 -59 -80 -112 -163 -173 -47 -35 -75 -61 -66 -63 28 -6 125 47 178 97 30
28 57 48 60 44 10 -10 8 -106 -3 -182 -8 -46 -8 -76 -1 -94 11 -28 31 -37 31
-13 0 21 181 29 195 9 34 -52 42 -58 59 -44 27 22 35 75 24 153 -9 68 -6 156
8 191 3 9 -6 23 -25 37 l-31 21 -82 -20 c-45 -12 -99 -21 -120 -21 l-38 0 27
49 c25 45 32 49 72 55 93 13 91 14 206 -104 65 -66 118 -111 134 -114 31 -7
134 15 133 28 -1 5 -39 23 -85 41 -51 19 -113 52 -155 83 -108 81 -108 82 -16
82 122 0 149 13 99 46 -23 15 -36 14 -181 -6 -86 -12 -158 -20 -160 -17 -6 5
17 67 24 67 18 0 192 30 206 36 24 9 20 23 -11 35 -19 7 -46 5 -100 -7 -41 -9
-77 -14 -80 -10 -3 3 4 47 16 98 l23 92 -22 18 c-12 10 -31 18 -42 18 -18 0
-20 -5 -15 -40z m148 -470 c10 -6 19 -21 19 -34 0 -19 -4 -23 -20 -19 -11 3
-59 -3 -105 -12 -47 -10 -87 -16 -89 -14 -2 2 -1 18 1 36 5 31 6 32 77 41 39
5 77 10 84 11 7 0 22 -4 33 -9z m19 -116 c0 -33 -2 -36 -23 -30 -13 3 -55 -1
-93 -9 -99 -21 -104 -20 -104 15 0 28 3 30 38 31 20 0 66 6 102 14 36 7 68 13
73 14 4 1 7 -15 7 -35z m-2 -95 l-3 -31 -70 -3 c-38 -2 -87 -6 -107 -10 -37
-7 -38 -7 -38 24 0 29 2 31 38 32 20 0 55 4 77 8 22 5 55 9 73 10 31 1 33 -1
30 -30z"/>
<path d="M560 841 c-6 -17 -28 -46 -47 -66 -19 -20 -34 -38 -32 -40 2 -1 39
11 82 29 87 35 95 52 41 87 l-31 19 -13 -29z"/>
<path d="M201 770 c13 -22 33 -50 46 -62 22 -20 24 -21 40 -5 35 34 -25 105
-90 107 -17 0 -17 -3 4 -40z"/>
</g>
</svg>
