<?xml version="1.0" standalone="no"?>
<!DOCTYPE svg PUBLIC "-//W3C//DTD SVG 20010904//EN"
 "http://www.w3.org/TR/2001/REC-SVG-20010904/DTD/svg10.dtd">
<svg version="1.0" xmlns="http://www.w3.org/2000/svg"
 width="90.000000pt" height="92.000000pt" viewBox="0 0 90.000000 92.000000"
 preserveAspectRatio="xMidYMid meet">
<metadata>
Created by potrace 1.16, written by Peter Selinger 2001-2019
</metadata>
<g transform="translate(0.000000,92.000000) scale(0.100000,-0.100000)"
fill="#000000" stroke="none">
<path d="M267 783 c-4 -3 -7 -14 -7 -23 0 -9 -12 -34 -27 -57 l-26 -41 -54 40
c-29 23 -56 38 -59 35 -3 -3 15 -28 40 -55 l45 -48 -47 -46 c-26 -24 -60 -54
-76 -66 -16 -12 -23 -22 -17 -22 17 0 90 38 128 66 35 26 37 25 48 -23 10 -50
-19 -98 -124 -202 -93 -92 -95 -103 -11 -61 19 10 59 44 89 75 l54 57 -5 -104
c-6 -132 -15 -151 -72 -146 l-43 3 45 -54 46 -53 27 30 c16 17 32 52 38 81 21
100 9 375 -19 431 -5 10 9 33 46 75 30 33 54 65 54 72 0 24 -57 52 -73 36z"/>
<path d="M486 768 c3 -13 15 -39 25 -59 l18 -36 -82 -13 c-105 -16 -121 -24
-84 -41 22 -10 43 -9 115 4 48 10 116 20 152 23 95 8 130 14 130 23 0 4 -15
16 -32 25 -30 16 -38 16 -95 3 l-63 -15 0 34 c0 28 -6 38 -32 54 -44 27 -61
26 -52 -2z"/>
<path d="M580 591 c0 -4 32 -38 71 -75 57 -54 74 -65 85 -55 19 16 18 53 -3
71 -36 32 -153 77 -153 59z"/>
<path d="M425 550 c-4 -11 -32 -47 -62 -80 -47 -51 -51 -59 -29 -50 49 18 156
100 156 119 0 11 -31 31 -49 31 -5 0 -13 -9 -16 -20z"/>
<path d="M589 478 c0 -2 -2 -24 -3 -49 -1 -25 -10 -64 -20 -87 l-19 -42 -56
60 c-55 58 -91 76 -91 45 0 -8 4 -15 8 -15 10 0 81 -69 100 -98 14 -21 13 -25
-9 -48 -36 -38 -109 -81 -161 -95 -66 -18 -61 -33 8 -26 64 7 149 44 183 81
l24 25 62 -67 c59 -64 65 -67 106 -66 53 1 149 23 149 34 0 4 -33 18 -72 30
-79 24 -150 57 -187 87 l-24 19 37 77 c19 42 33 82 31 90 -5 12 -64 52 -66 45z"/>
</g>
</svg>
