<?xml version="1.0" standalone="no"?>
<!DOCTYPE svg PUBLIC "-//W3C//DTD SVG 20010904//EN"
 "http://www.w3.org/TR/2001/REC-SVG-20010904/DTD/svg10.dtd">
<svg version="1.0" xmlns="http://www.w3.org/2000/svg"
 width="96.000000pt" height="68.000000pt" viewBox="0 0 96.000000 68.000000"
 preserveAspectRatio="xMidYMid meet">
<metadata>
Created by potrace 1.16, written by Peter Selinger 2001-2019
</metadata>
<g transform="translate(0.000000,68.000000) scale(0.100000,-0.100000)"
fill="#000000" stroke="none">
<path d="M514 265 c-3 -8 -3 -18 0 -24 3 -5 -3 -7 -14 -4 -15 4 -20 0 -20 -14
0 -23 -28 -50 -95 -92 -27 -17 -46 -31 -42 -31 16 0 103 49 129 73 l28 26 6
-22 c5 -23 1 -59 -11 -97 -3 -11 0 -29 8 -41 15 -20 15 -20 21 8 8 37 5 133
-4 133 -4 0 -10 10 -13 21 -4 16 -3 19 5 11 6 -6 16 -8 22 -6 6 2 21 -3 31
-13 27 -24 142 -103 150 -103 3 0 4 4 1 9 -3 4 5 6 17 4 12 -2 33 0 47 6 l25
10 -30 2 c-43 3 -46 4 -89 22 -21 9 -43 17 -48 17 -5 0 -14 5 -21 11 -7 5 -30
21 -52 34 -25 15 -33 24 -22 25 9 0 17 4 17 10 0 5 -7 7 -15 4 -13 -6 -20 6
-16 29 2 13 -9 7 -15 -8z"/>
<path d="M635 249 c-15 -7 -11 -8 17 -4 20 3 39 1 42 -4 7 -11 46 -11 46 0 0
7 -53 20 -74 18 -6 0 -20 -5 -31 -10z"/>
<path d="M390 230 c0 -5 5 -10 11 -10 5 0 7 5 4 10 -3 6 -8 10 -11 10 -2 0 -4
-4 -4 -10z"/>
<path d="M455 230 c-3 -5 -1 -10 4 -10 6 0 11 5 11 10 0 6 -2 10 -4 10 -3 0
-8 -4 -11 -10z"/>
</g>
</svg>
