<?xml version="1.0" standalone="no"?>
<!DOCTYPE svg PUBLIC "-//W3C//DTD SVG 20010904//EN"
 "http://www.w3.org/TR/2001/REC-SVG-20010904/DTD/svg10.dtd">
<svg version="1.0" xmlns="http://www.w3.org/2000/svg"
 width="96.000000pt" height="68.000000pt" viewBox="0 0 96.000000 68.000000"
 preserveAspectRatio="xMidYMid meet">
<metadata>
Created by potrace 1.16, written by Peter Selinger 2001-2019
</metadata>
<g transform="translate(0.000000,68.000000) scale(0.100000,-0.100000)"
fill="#000000" stroke="none">
<path d="M467 564 c-3 -4 2 -19 13 -34 11 -16 20 -30 20 -33 0 -12 -130 -19
-144 -8 -11 9 -18 3 -35 -32 -37 -77 -17 -109 23 -36 l19 35 146 17 c80 9 150
12 154 8 5 -5 4 -18 -2 -30 -7 -12 -9 -21 -6 -21 15 0 105 43 105 50 0 12 -58
33 -88 33 -15 0 -53 -4 -85 -8 -48 -7 -57 -5 -52 6 10 27 -49 72 -68 53z"/>
<path d="M170 542 c0 -18 69 -74 86 -70 28 5 24 41 -6 54 -37 17 -80 26 -80
16z"/>
<path d="M396 397 c-3 -13 -17 -36 -30 -52 -45 -53 -10 -41 58 19 31 28 30 56
-3 56 -11 0 -21 -9 -25 -23z"/>
<path d="M560 416 c0 -27 94 -94 105 -76 9 15 -2 43 -23 56 -21 14 -82 28 -82
20z"/>
<path d="M100 401 c0 -18 59 -71 79 -71 47 0 36 55 -12 65 -18 4 -40 9 -49 11
-10 3 -18 1 -18 -5z"/>
<path d="M472 330 c-22 -40 -118 -127 -180 -163 -48 -28 -31 -33 22 -6 57 28
70 19 86 -57 9 -44 15 -54 28 -50 9 3 59 8 110 12 81 6 92 9 87 24 -3 9 1 30
10 46 19 36 19 48 1 64 -12 9 -36 8 -110 -4 -86 -13 -131 -14 -143 -3 -2 3 19
22 47 43 27 21 50 41 50 44 0 3 9 11 19 17 17 11 31 4 112 -54 90 -64 94 -66
148 -64 81 3 92 15 27 30 -80 18 -257 106 -250 125 3 8 -3 19 -15 25 -26 14
-23 16 -49 -29z m126 -162 c2 -8 -1 -26 -7 -39 -8 -21 -20 -27 -77 -38 -62
-11 -69 -11 -81 5 -7 10 -13 28 -13 40 0 20 9 24 78 37 87 17 96 16 100 -5z"/>
<path d="M237 275 c-21 -39 -75 -98 -110 -121 -23 -14 -27 -22 -22 -43 8 -31
23 -51 39 -51 15 0 120 213 114 231 -3 9 -10 4 -21 -16z"/>
</g>
</svg>
