<?xml version="1.0" standalone="no"?>
<!DOCTYPE svg PUBLIC "-//W3C//DTD SVG 20010904//EN"
 "http://www.w3.org/TR/2001/REC-SVG-20010904/DTD/svg10.dtd">
<svg version="1.0" xmlns="http://www.w3.org/2000/svg"
 width="90.000000pt" height="92.000000pt" viewBox="0 0 90.000000 92.000000"
 preserveAspectRatio="xMidYMid meet">
<metadata>
Created by potrace 1.16, written by Peter Selinger 2001-2019
</metadata>
<g transform="translate(0.000000,92.000000) scale(0.100000,-0.100000)"
fill="#000000" stroke="none">
<path d="M225 843 c-11 -48 -57 -143 -69 -144 -6 -1 -23 0 -39 1 l-27 2 6 -54
c3 -29 6 -100 7 -158 l2 -105 -53 -3 c-28 -2 -52 -7 -52 -12 0 -4 14 -20 30
-34 l30 -25 63 29 c34 16 86 38 115 50 l53 20 -15 -22 c-31 -45 -152 -161
-214 -205 -35 -25 -61 -48 -58 -51 14 -13 141 65 210 129 l76 71 0 -70 c0 -38
-3 -84 -6 -102 -7 -31 -9 -32 -45 -27 l-39 5 37 -44 c42 -52 61 -53 86 -4 14
29 17 59 16 168 -1 123 1 135 20 156 l21 22 -26 25 c-25 23 -26 27 -21 109 3
47 9 95 12 107 5 16 1 25 -20 39 -26 17 -48 15 -124 -14 -9 -3 11 25 43 62
l60 69 -23 18 c-32 26 -48 24 -56 -8z m63 -195 c3 -37 2 -38 -30 -38 -18 0
-50 -4 -71 -9 l-38 -9 3 36 c3 35 6 38 48 49 71 19 84 14 88 -29z m2 -95 c0
-25 -4 -28 -32 -28 -18 0 -50 -4 -70 -8 -37 -8 -38 -7 -38 22 0 28 3 30 43 34
100 9 97 9 97 -20z m-7 -113 c-7 -7 -112 -40 -127 -40 -3 0 -6 20 -6 45 l0 44
68 3 c64 3 67 2 70 -21 2 -13 0 -27 -5 -31z"/>
<path d="M538 731 c-139 -24 -148 -27 -141 -46 4 -11 6 -124 4 -251 l-3 -232
29 -31 c39 -44 119 -56 270 -42 125 13 143 17 143 37 0 21 -43 27 -100 15 -82
-18 -251 -14 -279 5 l-23 17 5 206 c8 279 4 265 82 279 34 7 98 15 141 18 44
3 90 8 104 10 l25 6 -24 19 c-29 24 -48 23 -233 -10z"/>
<path d="M625 638 c-27 -9 -65 -17 -82 -18 -32 0 -43 -12 -24 -25 5 -3 13 -29
16 -59 7 -57 23 -91 32 -68 2 6 17 12 31 12 15 0 43 3 63 6 29 5 36 10 32 24
-3 10 5 39 16 65 12 26 21 49 21 51 0 2 -12 9 -27 17 -24 11 -35 11 -78 -5z
m35 -68 c0 -29 -5 -42 -19 -50 -28 -15 -71 -13 -71 4 0 7 -3 27 -6 44 -6 28
-4 31 22 35 73 11 74 10 74 -33z"/>
<path d="M745 414 c-16 -7 -43 -13 -59 -14 -20 0 -27 -4 -23 -14 3 -7 8 -35
12 -62 3 -27 8 -60 11 -74 5 -22 7 -23 15 -7 7 12 23 17 55 17 39 0 45 3 40
18 -3 9 3 41 13 70 18 53 16 62 -19 74 -8 3 -28 -1 -45 -8z m22 -69 c-5 -53
-4 -50 -39 -59 -28 -6 -28 -6 -28 43 0 43 3 50 23 54 50 10 50 9 44 -38z"/>
<path d="M569 400 c-10 -6 -33 -11 -53 -12 -32 -3 -36 -6 -31 -23 3 -11 10
-46 14 -77 7 -58 20 -84 28 -60 3 6 19 12 36 12 43 0 51 8 55 50 2 19 8 50 14
69 8 26 7 35 -3 42 -18 11 -40 11 -60 -1z m21 -70 c0 -45 -2 -50 -25 -56 -33
-8 -36 -4 -42 50 -5 41 -3 45 18 49 49 9 49 9 49 -43z"/>
</g>
</svg>
