<?xml version="1.0" standalone="no"?>
<!DOCTYPE svg PUBLIC "-//W3C//DTD SVG 20010904//EN"
 "http://www.w3.org/TR/2001/REC-SVG-20010904/DTD/svg10.dtd">
<svg version="1.0" xmlns="http://www.w3.org/2000/svg"
 width="96.000000pt" height="68.000000pt" viewBox="0 0 96.000000 68.000000"
 preserveAspectRatio="xMidYMid meet">
<metadata>
Created by potrace 1.16, written by Peter Selinger 2001-2019
</metadata>
<g transform="translate(0.000000,68.000000) scale(0.100000,-0.100000)"
fill="#000000" stroke="none">
<path d="M558 578 c3 -29 6 -66 7 -83 l0 -30 -73 0 c-70 0 -73 -1 -85 -27 -14
-34 -20 -34 -56 -7 -31 23 -51 19 -51 -10 0 -13 -9 -20 -30 -23 -20 -3 -29 -1
-27 6 2 6 13 44 23 84 19 73 19 74 0 88 -11 8 -29 14 -40 14 -19 0 -21 -5 -18
-57 1 -32 -1 -78 -5 -103 l-8 -45 -53 -3 c-37 -2 -52 -7 -52 -17 0 -21 38 -38
67 -30 24 6 25 4 18 -22 -3 -15 -7 -32 -8 -36 -1 -5 15 -18 35 -29 20 -11 35
-25 32 -31 -2 -7 -35 -31 -72 -55 -59 -36 -64 -42 -39 -42 32 0 79 22 121 57
l29 24 26 -25 c32 -31 71 -35 71 -8 0 20 -39 62 -58 62 -9 0 -8 9 4 31 9 17
22 53 30 80 16 52 29 60 49 32 17 -23 40 -5 49 37 4 23 11 30 28 31 13 0 82 6
153 13 72 8 133 12 138 9 4 -2 2 -13 -4 -24 -10 -19 -8 -20 28 -14 75 13 82
25 32 51 -27 13 -43 14 -111 5 -44 -6 -85 -8 -90 -5 -7 4 -8 31 -5 71 6 61 5
64 -19 73 -41 16 -43 13 -36 -42z m-258 -223 c0 -31 -33 -95 -49 -95 -35 0
-45 16 -35 57 9 37 17 42 77 52 4 0 7 -6 7 -14z"/>
<path d="M720 591 c0 -5 -15 -24 -32 -42 l-33 -32 29 7 c17 4 46 14 65 22 l34
14 -21 20 c-22 21 -42 26 -42 11z"/>
<path d="M450 542 c0 -5 11 -19 25 -32 20 -19 28 -21 38 -11 9 10 7 16 -12 32
-24 20 -51 25 -51 11z"/>
<path d="M564 406 c-68 -9 -80 -14 -73 -26 5 -8 13 -27 19 -42 6 -18 17 -28
30 -28 24 0 38 -26 22 -42 -6 -6 -31 -10 -57 -10 -46 1 -46 1 -40 -27 3 -15 1
-40 -4 -54 -12 -30 -5 -57 14 -57 8 0 16 22 21 58 9 55 10 57 42 60 l32 3 0
-116 c0 -86 3 -116 12 -113 18 6 27 53 29 150 l1 88 49 0 49 0 0 -51 c0 -46
-2 -51 -20 -46 -17 4 -18 2 -10 -14 6 -10 19 -23 30 -29 30 -16 50 22 50 96 0
73 -7 78 -87 68 -52 -6 -53 -6 -53 20 0 21 5 26 25 26 14 0 25 6 25 13 0 7 10
24 22 37 21 22 21 23 3 36 -21 15 -17 15 -131 0z m86 -23 c0 -30 -13 -40 -62
-46 -42 -6 -49 -4 -59 14 -15 28 -3 37 56 42 28 2 53 4 58 5 4 1 7 -6 7 -15z"/>
</g>
</svg>
