<?xml version="1.0" standalone="no"?>
<!DOCTYPE svg PUBLIC "-//W3C//DTD SVG 20010904//EN"
 "http://www.w3.org/TR/2001/REC-SVG-20010904/DTD/svg10.dtd">
<svg version="1.0" xmlns="http://www.w3.org/2000/svg"
 width="90.000000pt" height="92.000000pt" viewBox="0 0 90.000000 92.000000"
 preserveAspectRatio="xMidYMid meet">
<metadata>
Created by potrace 1.16, written by Peter Selinger 2001-2019
</metadata>
<g transform="translate(0.000000,92.000000) scale(0.100000,-0.100000)"
fill="#000000" stroke="none">
<path d="M540 821 c0 -31 -97 -131 -127 -131 -21 0 -24 -3 -17 -17 14 -27 7
-156 -12 -231 -20 -79 -68 -180 -119 -246 l-36 -48 31 19 c42 24 86 75 112
129 12 23 25 41 30 38 4 -3 8 -44 8 -92 0 -48 4 -93 9 -101 15 -23 31 21 31
83 0 56 0 56 30 56 28 0 30 -3 30 -37 0 -21 5 -45 10 -53 9 -13 11 -13 20 0 5
8 10 31 10 51 0 38 12 49 52 49 19 0 20 -4 14 -69 -7 -68 1 -94 22 -68 5 6 13
42 17 78 l7 67 52 5 c28 3 52 4 53 3 5 -4 -14 -117 -21 -123 -4 -4 -20 -2 -36
4 -17 6 -30 9 -30 7 0 -16 58 -104 68 -104 38 0 61 53 72 168 5 54 12 116 16
139 6 38 4 41 -31 62 -20 11 -40 19 -45 16 -11 -7 -274 -45 -309 -45 -28 0
-28 0 -18 44 l10 43 93 12 c51 6 109 11 128 11 40 0 55 14 30 28 -16 9 -15 14
9 57 34 60 34 73 0 86 -22 8 -40 7 -80 -6 -29 -9 -76 -18 -105 -21 -60 -6 -65
-13 45 67 54 41 56 44 40 60 -10 9 -28 20 -40 24 -19 5 -23 2 -23 -14z m120
-158 c0 -5 -5 -25 -10 -45 -11 -39 -22 -44 -159 -63 l-44 -6 7 32 c3 17 6 40
6 50 0 15 8 19 38 20 20 1 51 5 67 9 41 10 95 12 95 3z m100 -252 c5 -11 10
-34 10 -51 0 -25 -3 -31 -16 -26 -9 3 -31 6 -50 6 -33 0 -34 0 -32 45 2 45 2
45 40 45 27 0 40 -6 48 -19z m-140 -35 c0 -45 -10 -56 -52 -56 -17 0 -19 6
-16 43 3 46 12 57 46 57 19 0 22 -5 22 -44z m-110 -21 c0 -45 0 -45 -35 -45
-34 0 -35 1 -35 39 0 40 8 49 48 50 20 1 22 -4 22 -44z"/>
<path d="M207 793 c-4 -3 -7 -13 -7 -22 0 -30 -57 -136 -93 -175 -40 -42 -44
-53 -25 -79 12 -16 16 -16 66 3 29 11 57 20 63 20 13 0 -43 -79 -90 -125 l-35
-36 21 -21 21 -21 34 21 c18 11 52 28 76 37 40 16 44 16 62 0 17 -16 19 -16
30 4 14 28 0 54 -42 74 -35 17 -49 14 -30 -5 21 -21 13 -34 -35 -51 -27 -9
-52 -17 -56 -17 -8 0 88 122 140 180 26 28 28 47 9 73 -20 26 -33 21 -40 -15
-10 -52 -26 -65 -90 -73 -69 -9 -70 -10 23 105 33 41 61 80 61 86 0 13 -33 44
-47 44 -5 0 -13 -3 -16 -7z"/>
<path d="M220 354 c0 -16 43 -74 55 -74 15 0 26 25 19 44 -8 21 -74 47 -74 30z"/>
<path d="M140 289 c30 -58 70 -79 70 -36 0 33 -12 46 -49 53 -33 7 -33 6 -21
-17z"/>
<path d="M20 279 c0 -19 64 -119 77 -119 40 0 25 81 -21 109 -37 23 -56 27
-56 10z"/>
</g>
</svg>
