<?xml version="1.0" standalone="no"?>
<!DOCTYPE svg PUBLIC "-//W3C//DTD SVG 20010904//EN"
 "http://www.w3.org/TR/2001/REC-SVG-20010904/DTD/svg10.dtd">
<svg version="1.0" xmlns="http://www.w3.org/2000/svg"
 width="96.000000pt" height="68.000000pt" viewBox="0 0 96.000000 68.000000"
 preserveAspectRatio="xMidYMid meet">
<metadata>
Created by potrace 1.16, written by Peter Selinger 2001-2019
</metadata>
<g transform="translate(0.000000,68.000000) scale(0.100000,-0.100000)"
fill="#000000" stroke="none">
<path d="M740 300 c0 -6 8 -23 18 -37 9 -15 12 -24 6 -20 -8 4 -11 -14 -10
-63 1 -39 -2 -70 -6 -70 -5 0 -8 -7 -8 -16 0 -11 -6 -15 -20 -11 -11 3 -20 1
-20 -4 0 -5 5 -9 10 -9 6 0 10 -6 10 -13 0 -25 32 -14 51 17 21 33 23 100 5
125 -8 11 -8 13 0 8 14 -8 24 14 24 52 0 20 -7 31 -25 39 -32 15 -35 15 -35 2z
m31 -203 c-10 -9 -11 -8 -5 6 3 10 9 15 12 12 3 -3 0 -11 -7 -18z"/>
<path d="M620 290 l-45 -7 47 -1 c26 -1 50 3 53 8 3 6 3 9 -2 8 -4 0 -28 -4
-53 -8z"/>
<path d="M698 293 c7 -3 16 -2 19 1 4 3 -2 6 -13 5 -11 0 -14 -3 -6 -6z"/>
<path d="M474 268 c-14 -22 -13 -100 0 -120 12 -17 14 -12 11 44 -1 34 2 69 7
76 7 8 7 12 0 12 -6 0 -14 -5 -18 -12z"/>
<path d="M518 273 c7 -3 16 -2 19 1 4 3 -2 6 -13 5 -11 0 -14 -3 -6 -6z"/>
<path d="M464 120 c2 -14 5 -31 5 -37 1 -7 6 -13 11 -13 15 0 12 32 -6 55 -14
19 -14 19 -10 -5z"/>
</g>
</svg>
