<?xml version="1.0" standalone="no"?>
<!DOCTYPE svg PUBLIC "-//W3C//DTD SVG 20010904//EN"
 "http://www.w3.org/TR/2001/REC-SVG-20010904/DTD/svg10.dtd">
<svg version="1.0" xmlns="http://www.w3.org/2000/svg"
 width="96.000000pt" height="68.000000pt" viewBox="0 0 96.000000 68.000000"
 preserveAspectRatio="xMidYMid meet">
<metadata>
Created by potrace 1.16, written by Peter Selinger 2001-2019
</metadata>
<g transform="translate(0.000000,68.000000) scale(0.100000,-0.100000)"
fill="#000000" stroke="none">
<path d="M501 93 c-34 -38 -41 -54 -13 -32 9 8 29 21 45 29 30 15 34 25 13 33
-8 3 -27 -10 -45 -30z"/>
<path d="M695 60 c42 -43 59 -50 53 -22 -2 9 -10 16 -16 15 -7 -2 -11 3 -9 10
1 7 -6 11 -17 9 -10 -2 -15 1 -12 6 3 6 -1 13 -10 16 -30 11 -28 6 11 -34z"/>
<path d="M435 40 c-3 -6 1 -7 9 -4 18 7 21 14 7 14 -6 0 -13 -4 -16 -10z"/>
</g>
</svg>
