<?xml version="1.0" standalone="no"?>
<!DOCTYPE svg PUBLIC "-//W3C//DTD SVG 20010904//EN"
 "http://www.w3.org/TR/2001/REC-SVG-20010904/DTD/svg10.dtd">
<svg version="1.0" xmlns="http://www.w3.org/2000/svg"
 width="96.000000pt" height="68.000000pt" viewBox="0 0 96.000000 68.000000"
 preserveAspectRatio="xMidYMid meet">
<metadata>
Created by potrace 1.16, written by Peter Selinger 2001-2019
</metadata>
<g transform="translate(0.000000,68.000000) scale(0.100000,-0.100000)"
fill="#000000" stroke="none">
<path d="M390 591 c0 -5 14 -14 30 -20 17 -5 72 -45 122 -87 50 -42 102 -83
117 -90 34 -18 142 -18 166 0 17 12 14 15 -41 30 -106 30 -139 46 -234 111
-69 48 -103 65 -127 65 -18 0 -33 -4 -33 -9z"/>
<path d="M301 494 c-17 -31 -45 -60 -88 -91 -35 -25 -62 -48 -59 -50 16 -17
125 45 196 111 40 36 41 39 24 57 -27 30 -47 23 -73 -27z"/>
<path d="M500 440 c-19 -4 -70 -13 -113 -20 -75 -12 -92 -21 -45 -24 13 -1 24
-8 26 -19 4 -20 -60 -87 -108 -112 -47 -24 -29 -30 22 -7 57 26 140 109 133
132 -4 14 2 19 32 24 21 3 49 6 62 6 23 0 23 -2 17 -46 -8 -58 -22 -77 -53
-69 -13 3 -23 2 -23 -2 1 -16 39 -53 53 -53 21 0 54 44 62 83 3 18 11 45 17
60 16 43 -16 61 -82 47z"/>
<path d="M390 224 c-69 -7 -137 -11 -152 -8 -26 5 -41 -10 -18 -18 11 -3 42
-107 35 -117 -2 -4 -32 -8 -67 -9 -34 -2 -65 -5 -67 -8 -12 -11 16 -19 67 -19
166 2 602 19 602 25 0 20 -31 30 -97 30 -40 0 -73 3 -73 6 0 4 12 28 27 55 26
48 26 50 7 64 -23 18 -93 17 -264 -1z m178 -10 c21 -6 23 -11 16 -48 -10 -65
-20 -76 -64 -76 -45 0 -48 9 -24 55 8 16 13 37 11 47 -4 15 3 21 33 27 3 0 15
-2 28 -5z m-108 -64 c0 -60 0 -60 -29 -60 -28 0 -30 3 -37 45 -8 59 -1 75 36
75 l30 0 0 -60z m-111 31 c6 -10 13 -37 17 -60 l7 -41 -40 0 -40 0 -10 55 c-9
51 -8 54 11 58 40 8 45 7 55 -12z"/>
</g>
</svg>
