<?xml version="1.0" standalone="no"?>
<!DOCTYPE svg PUBLIC "-//W3C//DTD SVG 20010904//EN"
 "http://www.w3.org/TR/2001/REC-SVG-20010904/DTD/svg10.dtd">
<svg version="1.0" xmlns="http://www.w3.org/2000/svg"
 width="96.000000pt" height="68.000000pt" viewBox="0 0 96.000000 68.000000"
 preserveAspectRatio="xMidYMid meet">
<metadata>
Created by potrace 1.16, written by Peter Selinger 2001-2019
</metadata>
<g transform="translate(0.000000,68.000000) scale(0.100000,-0.100000)"
fill="#000000" stroke="none">
<path d="M424 528 c3 -13 6 -58 6 -100 0 -70 2 -78 19 -78 18 0 20 9 23 93 3
94 -1 107 -36 107 -14 0 -17 -5 -12 -22z"/>
<path d="M520 448 c-11 -23 -20 -44 -20 -46 0 -4 70 36 84 49 11 10 -11 39
-30 39 -7 0 -23 -19 -34 -42z"/>
<path d="M340 447 c1 -16 35 -57 49 -57 14 0 22 16 15 33 -7 20 -64 41 -64 24z"/>
</g>
</svg>
