<?xml version="1.0" standalone="no"?>
<!DOCTYPE svg PUBLIC "-//W3C//DTD SVG 20010904//EN"
 "http://www.w3.org/TR/2001/REC-SVG-20010904/DTD/svg10.dtd">
<svg version="1.0" xmlns="http://www.w3.org/2000/svg"
 width="96.000000pt" height="68.000000pt" viewBox="0 0 96.000000 68.000000"
 preserveAspectRatio="xMidYMid meet">
<metadata>
Created by potrace 1.16, written by Peter Selinger 2001-2019
</metadata>
<g transform="translate(0.000000,68.000000) scale(0.100000,-0.100000)"
fill="#000000" stroke="none">
<path d="M713 362 c-5 -4 -13 -32 -16 -64 -11 -91 -14 -95 -53 -52 -19 20 -38
34 -42 30 -4 -4 0 -13 9 -19 8 -7 24 -26 34 -43 18 -31 18 -32 -4 -63 -12 -17
-32 -37 -44 -46 -21 -15 -21 -15 -1 -15 11 0 36 11 55 25 l34 26 28 -36 c27
-32 33 -35 83 -35 30 0 54 3 54 8 0 4 -30 23 -68 42 -76 40 -78 44 -49 155 9
33 16 65 17 71 0 15 -23 24 -37 16z"/>
</g>
</svg>
