<?xml version="1.0" standalone="no"?>
<!DOCTYPE svg PUBLIC "-//W3C//DTD SVG 20010904//EN"
 "http://www.w3.org/TR/2001/REC-SVG-20010904/DTD/svg10.dtd">
<svg version="1.0" xmlns="http://www.w3.org/2000/svg"
 width="96.000000pt" height="68.000000pt" viewBox="0 0 96.000000 68.000000"
 preserveAspectRatio="xMidYMid meet">
<metadata>
Created by potrace 1.16, written by Peter Selinger 2001-2019
</metadata>
<g transform="translate(0.000000,68.000000) scale(0.100000,-0.100000)"
fill="#000000" stroke="none">
<path d="M450 212 c0 -13 64 -72 78 -72 7 0 12 11 12 26 0 19 -8 28 -35 40
-39 16 -55 18 -55 6z"/>
<path d="M315 163 c24 -59 48 -86 101 -113 40 -20 66 -26 144 -28 148 -5 225
32 148 70 -18 10 -49 27 -68 40 l-35 23 23 -37 23 -37 -22 -11 c-13 -7 -52
-11 -98 -8 -96 4 -148 29 -176 84 -33 64 -65 77 -40 17z"/>
<path d="M710 150 c50 -44 80 -51 80 -20 0 22 -65 60 -102 60 -20 -1 -18 -5
22 -40z"/>
<path d="M187 131 c-27 -49 -27 -81 -1 -81 22 0 44 42 44 87 0 24 -4 43 -8 43
-5 0 -21 -22 -35 -49z"/>
</g>
</svg>
