<?xml version="1.0" standalone="no"?>
<!DOCTYPE svg PUBLIC "-//W3C//DTD SVG 20010904//EN"
 "http://www.w3.org/TR/2001/REC-SVG-20010904/DTD/svg10.dtd">
<svg version="1.0" xmlns="http://www.w3.org/2000/svg"
 width="96.000000pt" height="68.000000pt" viewBox="0 0 96.000000 68.000000"
 preserveAspectRatio="xMidYMid meet">
<metadata>
Created by potrace 1.16, written by Peter Selinger 2001-2019
</metadata>
<g transform="translate(0.000000,68.000000) scale(0.100000,-0.100000)"
fill="#000000" stroke="none">
<path d="M553 539 c-2 -51 -4 -93 -6 -95 -2 -2 -25 -6 -53 -9 -102 -11 -134
-16 -134 -25 0 -16 60 -21 115 -9 30 7 57 10 60 7 3 -2 0 -32 -6 -66 l-11 -62
-60 0 c-53 0 -59 -2 -53 -17 5 -10 14 -47 22 -83 20 -96 22 -99 39 -76 12 17
30 20 134 24 66 3 120 8 120 13 0 5 -4 9 -10 9 -16 0 -12 26 12 77 l22 46 -25
19 c-19 16 -33 19 -71 14 -27 -4 -55 -9 -63 -12 -18 -7 -19 7 -4 76 l11 50
119 0 c118 0 141 7 98 31 -15 8 -52 9 -116 4 l-94 -7 7 39 c4 21 13 52 21 70
7 18 13 36 13 41 0 8 -57 32 -76 32 -5 0 -10 -41 -11 -91z m97 -311 c0 -24 -4
-48 -8 -55 -4 -6 -44 -14 -88 -18 -91 -8 -89 -9 -96 65 -3 34 -2 35 37 41 22
3 66 7 98 8 l57 1 0 -42z"/>
<path d="M240 479 c-14 -6 -49 -8 -77 -4 -29 4 -53 4 -53 2 0 -3 7 -18 15 -33
8 -16 19 -52 25 -81 12 -56 23 -71 43 -55 7 6 42 13 80 17 37 4 67 11 67 16 0
5 -4 9 -10 9 -15 0 -12 35 6 74 23 47 14 66 -33 65 -21 0 -49 -5 -63 -10z m30
-74 l0 -45 -40 0 c-22 0 -40 4 -40 9 0 5 -3 22 -6 39 -5 26 -3 31 17 35 66 12
69 10 69 -38z"/>
</g>
</svg>
