<?xml version="1.0" standalone="no"?>
<!DOCTYPE svg PUBLIC "-//W3C//DTD SVG 20010904//EN"
 "http://www.w3.org/TR/2001/REC-SVG-20010904/DTD/svg10.dtd">
<svg version="1.0" xmlns="http://www.w3.org/2000/svg"
 width="90.000000pt" height="92.000000pt" viewBox="0 0 90.000000 92.000000"
 preserveAspectRatio="xMidYMid meet">
<metadata>
Created by potrace 1.16, written by Peter Selinger 2001-2019
</metadata>
<g transform="translate(0.000000,92.000000) scale(0.100000,-0.100000)"
fill="#000000" stroke="none">
<path d="M630 828 c-2 -72 -61 -278 -104 -369 l-17 -34 33 36 c40 44 113 64
125 33 8 -20 -13 -174 -25 -186 -4 -4 -22 12 -40 37 -21 30 -39 45 -54 45
l-21 0 23 -25 c12 -13 33 -41 46 -62 20 -33 21 -40 9 -64 -16 -29 -70 -73
-112 -91 -23 -9 -25 -12 -9 -16 26 -6 99 24 126 53 13 14 26 25 30 25 3 0 23
-23 43 -50 21 -28 50 -55 64 -61 28 -10 133 -2 133 11 0 4 -33 23 -72 43 -40
20 -88 51 -106 70 -29 29 -31 37 -23 60 20 53 43 209 32 220 -19 19 -12 25 39
32 55 8 63 19 25 37 -21 9 -39 7 -98 -12 -40 -13 -76 -25 -80 -28 -5 -2 0 13
11 34 23 44 82 209 82 228 0 17 -60 51 -60 34z"/>
<path d="M175 801 c-9 -42 -70 -139 -118 -190 l-42 -43 40 20 c55 28 185 169
185 201 0 10 -39 41 -51 41 -4 0 -10 -13 -14 -29z"/>
<path d="M368 705 l4 -114 -26 -7 c-35 -8 -37 -6 -26 39 7 32 5 41 -13 57 -30
28 -40 25 -32 -11 4 -17 1 -51 -5 -76 -11 -38 -11 -47 2 -60 14 -13 18 -13 39
0 19 12 131 47 152 47 2 0 7 -10 11 -22 10 -40 33 0 49 85 15 81 12 92 -27 99
-18 3 -19 -3 -17 -61 3 -68 -5 -81 -47 -81 -22 0 -22 1 -15 101 6 105 2 118
-37 119 -13 0 -15 -17 -12 -115z"/>
<path d="M170 584 c0 -39 -36 -104 -107 -194 -35 -44 -63 -82 -63 -85 0 -12
46 20 92 63 39 36 48 41 49 26 3 -62 -4 -195 -12 -226 -12 -46 13 -120 34 -99
17 17 28 329 12 356 -10 16 -7 28 22 75 38 64 39 71 15 93 -27 24 -42 21 -42
-9z"/>
<path d="M415 489 c-16 -5 -63 -15 -103 -22 -40 -7 -74 -17 -75 -22 -3 -17 79
-17 165 -1 87 17 113 30 88 46 -18 12 -35 11 -75 -1z"/>
<path d="M405 263 c1 -79 5 -128 11 -130 6 -2 33 22 60 54 66 76 75 92 36 65
-17 -13 -34 -27 -37 -32 -18 -29 -27 -4 -24 68 3 82 -2 102 -29 102 -15 0 -17
-14 -17 -127z"/>
<path d="M296 358 c21 -62 -3 -137 -65 -201 l-36 -38 30 11 c63 24 100 77 120
173 12 53 11 58 -6 67 -33 18 -51 13 -43 -12z"/>
</g>
</svg>
