<?xml version="1.0" standalone="no"?>
<!DOCTYPE svg PUBLIC "-//W3C//DTD SVG 20010904//EN"
 "http://www.w3.org/TR/2001/REC-SVG-20010904/DTD/svg10.dtd">
<svg version="1.0" xmlns="http://www.w3.org/2000/svg"
 width="96.000000pt" height="68.000000pt" viewBox="0 0 96.000000 68.000000"
 preserveAspectRatio="xMidYMid meet">
<metadata>
Created by potrace 1.16, written by Peter Selinger 2001-2019
</metadata>
<g transform="translate(0.000000,68.000000) scale(0.100000,-0.100000)"
fill="#000000" stroke="none">
<path d="M686 332 c-2 -4 -7 -32 -11 -62 -9 -75 -14 -90 -30 -90 -8 0 -22 14
-32 30 -9 17 -21 30 -26 30 -4 0 3 -15 17 -33 15 -19 26 -41 26 -50 0 -16 -54
-67 -72 -67 -6 0 -9 -2 -6 -5 10 -10 68 18 69 33 0 12 2 13 6 4 4 -10 9 -9 20
5 8 10 11 12 7 4 -5 -11 -3 -13 9 -8 9 3 16 3 16 -1 -3 -20 2 -33 11 -27 6 3
10 1 10 -5 0 -6 4 -8 10 -5 5 3 7 0 4 -9 -6 -15 34 -26 84 -23 22 1 32 17 10
17 -25 0 -104 43 -120 65 -15 19 -16 29 -7 52 6 15 14 46 19 68 4 22 11 47 14
56 7 16 -19 36 -28 21z"/>
</g>
</svg>
