<?xml version="1.0" standalone="no"?>
<!DOCTYPE svg PUBLIC "-//W3C//DTD SVG 20010904//EN"
 "http://www.w3.org/TR/2001/REC-SVG-20010904/DTD/svg10.dtd">
<svg version="1.0" xmlns="http://www.w3.org/2000/svg"
 width="96.000000pt" height="68.000000pt" viewBox="0 0 96.000000 68.000000"
 preserveAspectRatio="xMidYMid meet">
<metadata>
Created by potrace 1.16, written by Peter Selinger 2001-2019
</metadata>
<g transform="translate(0.000000,68.000000) scale(0.100000,-0.100000)"
fill="#000000" stroke="none">
<path d="M375 574 c-10 -26 -45 -78 -78 -116 -56 -65 -57 -69 -26 -53 19 10
45 26 59 35 36 25 337 50 352 29 20 -30 -8 -335 -35 -367 -11 -14 -45 -12 -80
3 -15 6 -13 -1 10 -33 35 -51 51 -58 82 -34 46 34 61 80 76 238 8 82 17 161
21 176 5 21 1 30 -19 43 -24 15 -37 15 -187 0 -89 -9 -163 -15 -166 -12 -2 2
14 25 37 51 45 50 43 65 -7 80 -18 5 -24 -1 -39 -40z"/>
</g>
</svg>
