<?xml version="1.0" standalone="no"?>
<!DOCTYPE svg PUBLIC "-//W3C//DTD SVG 20010904//EN"
 "http://www.w3.org/TR/2001/REC-SVG-20010904/DTD/svg10.dtd">
<svg version="1.0" xmlns="http://www.w3.org/2000/svg"
 width="96.000000pt" height="68.000000pt" viewBox="0 0 96.000000 68.000000"
 preserveAspectRatio="xMidYMid meet">
<metadata>
Created by potrace 1.16, written by Peter Selinger 2001-2019
</metadata>
<g transform="translate(0.000000,68.000000) scale(0.100000,-0.100000)"
fill="#000000" stroke="none">
<path d="M260 281 c0 -64 0 -65 -43 -75 -28 -7 -28 -6 -21 30 5 26 3 39 -7 45
-26 16 -42 10 -35 -13 3 -13 0 -38 -6 -55 -18 -48 -2 -60 54 -39 23 9 69 23
100 30 54 13 57 12 62 -8 8 -32 23 -9 34 54 11 62 9 70 -19 70 -16 0 -19 -7
-19 -45 0 -43 -1 -45 -30 -45 -30 0 -30 1 -30 55 0 48 -2 55 -20 55 -18 0 -20
-7 -20 -59z"/>
</g>
</svg>
