<?xml version="1.0" standalone="no"?>
<!DOCTYPE svg PUBLIC "-//W3C//DTD SVG 20010904//EN"
 "http://www.w3.org/TR/2001/REC-SVG-20010904/DTD/svg10.dtd">
<svg version="1.0" xmlns="http://www.w3.org/2000/svg"
 width="96.000000pt" height="68.000000pt" viewBox="0 0 96.000000 68.000000"
 preserveAspectRatio="xMidYMid meet">
<metadata>
Created by potrace 1.16, written by Peter Selinger 2001-2019
</metadata>
<g transform="translate(0.000000,68.000000) scale(0.100000,-0.100000)"
fill="#000000" stroke="none">
<path d="M639 553 c-6 -16 -20 -38 -31 -50 -34 -37 -1 -27 49 14 41 34 43 38
27 50 -26 19 -33 16 -45 -14z"/>
<path d="M196 524 c-15 -9 -38 -14 -50 -12 -21 4 -21 2 -21 -161 0 -91 -3
-187 -7 -212 -5 -34 -3 -51 7 -65 31 -40 36 11 37 342 0 61 4 69 42 78 25 6
28 5 21 -11 -14 -32 -18 -73 -7 -73 9 0 24 -43 23 -67 0 -5 -10 -10 -22 -13
-22 -5 -22 -6 6 -24 21 -14 33 -16 44 -9 26 16 24 42 -4 79 -33 43 -29 73 12
99 47 29 41 59 -12 62 -22 2 -53 -4 -69 -13z"/>
<path d="M470 532 c0 -18 33 -52 51 -52 25 0 25 36 0 50 -23 12 -51 13 -51 2z"/>
<path d="M575 454 c-5 -1 -36 -5 -67 -9 -32 -4 -58 -11 -58 -17 0 -7 13 -8 35
-5 19 3 37 2 40 -3 7 -11 -31 -47 -75 -70 -19 -11 -31 -19 -27 -20 14 0 111
44 125 57 7 7 18 13 24 13 5 0 8 6 5 14 -5 11 9 16 59 21 35 4 64 12 64 17 0
8 -96 10 -125 2z"/>
<path d="M342 418 c30 -39 58 -48 58 -19 0 23 -35 51 -64 51 -17 0 -17 -3 6
-32z"/>
<path d="M647 355 l-28 -36 -30 26 c-34 28 -49 32 -49 11 0 -8 -23 -33 -51
-55 -29 -23 -49 -41 -45 -41 11 0 69 31 95 51 30 24 41 24 41 0 0 -20 -53 -67
-108 -95 -19 -10 -32 -19 -30 -22 8 -7 71 18 108 43 l35 23 3 -26 c2 -15 -2
-38 -9 -51 -10 -19 -18 -23 -39 -18 l-25 7 24 -26 c47 -50 80 -22 90 77 l6 57
45 -40 c49 -43 67 -49 77 -25 7 19 -16 39 -74 65 -24 11 -43 24 -43 29 0 5 17
20 38 32 49 30 48 29 32 39 -24 16 -34 12 -63 -25z"/>
<path d="M325 300 l-40 -19 36 0 c33 -1 36 -3 36 -33 1 -18 4 -48 8 -65 7 -30
5 -33 -16 -34 -40 -1 -92 -9 -98 -15 -10 -10 24 -24 44 -17 45 14 119 2 247
-41 l135 -46 67 19 c107 30 100 37 -41 44 -84 5 -159 15 -218 31 -80 21 -90
26 -88 45 2 12 -4 33 -13 47 -16 24 -16 26 10 52 20 22 23 31 14 40 -16 16
-35 14 -83 -8z"/>
</g>
</svg>
