<?xml version="1.0" standalone="no"?>
<!DOCTYPE svg PUBLIC "-//W3C//DTD SVG 20010904//EN"
 "http://www.w3.org/TR/2001/REC-SVG-20010904/DTD/svg10.dtd">
<svg version="1.0" xmlns="http://www.w3.org/2000/svg"
 width="90.000000pt" height="92.000000pt" viewBox="0 0 90.000000 92.000000"
 preserveAspectRatio="xMidYMid meet">
<metadata>
Created by potrace 1.16, written by Peter Selinger 2001-2019
</metadata>
<g transform="translate(0.000000,92.000000) scale(0.100000,-0.100000)"
fill="#000000" stroke="none">
<path d="M430 856 c0 -3 9 -20 20 -38 11 -18 20 -36 20 -39 0 -3 -64 -14 -142
-23 -179 -22 -180 -22 -149 -45 23 -18 24 -21 19 -132 -4 -68 -15 -148 -28
-199 -25 -99 -86 -235 -130 -291 -43 -53 -22 -49 33 7 88 89 134 210 167 437
12 78 23 149 26 158 3 12 26 20 82 28 83 13 247 29 327 33 57 3 68 24 24 45
-25 12 -96 6 -163 -14 -14 -4 -18 -1 -13 10 9 23 -23 56 -60 63 -18 4 -33 4
-33 0z"/>
<path d="M605 720 c-4 -7 -34 -32 -67 -56 -33 -24 -54 -44 -47 -44 28 0 164
59 164 71 0 18 -42 43 -50 29z"/>
<path d="M673 616 l-31 -43 54 21 c30 11 54 24 54 28 0 9 -30 38 -39 38 -4 0
-21 -20 -38 -44z"/>
<path d="M351 611 c-18 -10 -44 -16 -57 -13 -22 4 -23 2 -14 -29 13 -44 12
-234 -1 -324 -5 -38 -12 -88 -16 -111 -3 -25 0 -50 7 -64 12 -22 14 -22 25 -7
15 21 23 108 31 327 3 91 7 170 9 176 2 6 13 14 25 17 20 5 21 3 15 -33 -4
-24 -1 -55 9 -84 22 -64 21 -69 -14 -64 -17 3 -27 2 -23 -1 4 -4 20 -17 35
-30 23 -20 30 -22 43 -11 22 18 19 46 -12 101 l-26 49 32 46 c32 43 32 46 15
59 -25 19 -42 18 -83 -4z"/>
<path d="M550 623 c0 -18 48 -66 58 -59 19 11 14 44 -7 56 -23 12 -51 13 -51
3z"/>
<path d="M50 593 c1 -5 13 -26 28 -48 30 -43 58 -56 68 -31 12 31 -5 64 -37
75 -37 13 -59 14 -59 4z"/>
<path d="M485 569 c17 -32 38 -34 43 -4 4 19 -13 35 -41 35 -16 0 -16 -2 -2
-31z"/>
<path d="M605 545 c-33 -7 -77 -16 -98 -19 -54 -10 -36 -30 19 -21 42 6 44 5
44 -19 0 -23 -4 -26 -37 -27 -21 -1 -49 -4 -63 -9 l-25 -7 23 -10 c15 -5 52
-4 105 4 45 6 106 12 135 12 54 1 66 13 32 31 -15 8 -36 8 -76 0 -62 -13 -70
-10 -55 18 7 12 25 21 51 25 47 6 55 11 45 26 -8 13 -23 13 -100 -4z"/>
<path d="M81 399 c-30 -21 -60 -39 -68 -39 -19 0 -16 -34 5 -53 10 -10 21 -17
24 -17 8 0 102 139 97 144 -2 2 -28 -14 -58 -35z"/>
<path d="M610 414 c-25 -7 -61 -13 -80 -14 -19 -1 -44 -5 -55 -10 -40 -16 13
-23 85 -11 93 15 120 14 120 -4 0 -8 -1 -15 -2 -16 -2 0 -63 -8 -136 -17 -76
-10 -131 -21 -130 -27 4 -12 75 -12 181 -1 65 7 77 6 77 -7 0 -11 -17 -16 -67
-21 -130 -13 -145 -16 -132 -32 8 -10 25 -13 53 -10 23 3 76 8 119 12 64 5 76
8 67 19 -8 10 -8 19 0 34 9 17 20 21 60 21 28 0 50 4 50 10 0 14 -35 30 -64
30 -19 0 -24 4 -20 15 16 42 -39 54 -126 29z"/>
<path d="M710 243 c1 -17 88 -95 99 -89 32 20 2 65 -58 85 -40 13 -41 13 -41
4z"/>
<path d="M550 225 c0 -4 9 -20 21 -36 26 -37 59 -39 59 -5 0 14 -3 27 -7 29
-16 9 -73 18 -73 12z"/>
<path d="M381 164 c-17 -38 -20 -54 -12 -71 14 -32 27 -29 40 8 13 38 14 79 2
98 -7 10 -15 1 -30 -35z"/>
<path d="M466 168 c30 -86 84 -122 184 -123 69 0 123 19 128 46 2 10 -16 27
-48 47 l-50 31 3 -31 c2 -27 -2 -32 -28 -40 -69 -19 -145 15 -171 79 -21 48
-35 41 -18 -9z"/>
</g>
</svg>
