<?xml version="1.0" standalone="no"?>
<!DOCTYPE svg PUBLIC "-//W3C//DTD SVG 20010904//EN"
 "http://www.w3.org/TR/2001/REC-SVG-20010904/DTD/svg10.dtd">
<svg version="1.0" xmlns="http://www.w3.org/2000/svg"
 width="90.000000pt" height="92.000000pt" viewBox="0 0 90.000000 92.000000"
 preserveAspectRatio="xMidYMid meet">
<metadata>
Created by potrace 1.16, written by Peter Selinger 2001-2019
</metadata>
<g transform="translate(0.000000,92.000000) scale(0.100000,-0.100000)"
fill="#000000" stroke="none">
<path d="M465 870 c-4 -16 -29 -51 -58 -79 -58 -57 -52 -66 14 -22 24 16 47
27 51 25 4 -3 24 -1 43 5 44 12 44 4 0 -39 -31 -30 -42 -35 -100 -38 -47 -3
-63 -8 -56 -16 5 -6 13 -27 19 -47 8 -32 8 -36 -7 -32 -14 3 -16 -8 -16 -86 0
-49 3 -93 7 -96 3 -4 38 15 77 41 39 26 70 48 68 50 -2 2 -25 -3 -52 -11 -63
-19 -65 -19 -65 8 0 19 6 22 46 25 26 1 54 6 63 12 28 15 -14 24 -61 12 -49
-13 -53 -11 -39 17 7 12 25 22 44 25 17 3 49 8 70 11 l37 6 1 -38 c1 -39 3
-59 13 -99 13 -48 140 -59 210 -18 19 11 19 13 3 45 -9 19 -17 29 -17 22 0
-29 -32 -43 -95 -43 -53 0 -66 3 -75 19 -13 25 -4 30 59 38 52 6 80 18 69 28
-9 10 -46 10 -89 1 -33 -7 -36 -6 -35 16 1 16 8 24 26 28 14 3 25 11 25 18 0
7 10 24 23 37 l23 24 -25 16 c-20 13 -37 15 -83 9 l-58 -7 43 37 c24 20 48 36
53 36 5 0 9 7 9 15 0 23 -43 28 -85 11 -49 -21 -62 -20 -42 2 23 25 21 37 -7
50 -23 10 -25 9 -31 -18z m145 -164 c0 -23 -21 -32 -97 -45 -99 -15 -103 -15
-103 13 0 23 5 25 68 31 37 4 72 8 77 10 25 9 55 4 55 -9z"/>
<path d="M176 808 c-3 -7 -7 -26 -11 -43 -10 -46 -64 -151 -91 -176 -25 -23
-30 -44 -15 -68 7 -11 16 -11 55 4 26 10 48 16 51 13 6 -6 -94 -128 -105 -128
-15 0 -12 -36 4 -49 11 -9 21 -7 47 7 19 11 57 28 86 38 50 17 53 17 72 0 20
-18 20 -17 27 10 6 22 2 32 -20 51 -15 13 -34 23 -42 23 -13 0 -13 -3 0 -22
16 -22 15 -23 -50 -40 -37 -10 -68 -17 -70 -15 -2 1 38 49 87 105 90 101 91
103 75 127 -23 35 -31 32 -50 -19 -13 -33 -24 -46 -44 -51 -15 -3 -35 -8 -44
-11 -31 -9 -20 20 43 115 52 77 60 93 49 107 -22 25 -50 37 -54 22z"/>
<path d="M474 475 c-3 -13 -26 -42 -50 -65 -48 -44 -39 -54 16 -16 37 25 100
43 100 29 0 -4 -11 -21 -24 -38 -21 -26 -30 -30 -95 -33 -61 -4 -70 -6 -60
-19 7 -8 18 -35 25 -61 8 -31 17 -46 25 -43 47 14 69 13 69 -3 0 -28 -89 -114
-147 -142 -30 -14 -53 -28 -50 -31 3 -3 31 3 62 12 69 20 136 78 162 141 10
24 21 44 24 44 11 0 19 -41 19 -93 0 -40 5 -54 29 -78 28 -27 35 -29 108 -29
83 0 145 21 151 50 1 9 -5 34 -14 55 l-16 39 -13 -38 c-7 -20 -16 -40 -19 -43
-13 -13 -101 -22 -138 -14 -59 13 -69 36 -47 101 9 25 9 34 0 40 -16 9 10 20
50 20 21 0 27 4 23 15 -3 8 6 26 20 40 14 14 26 28 26 31 0 2 -14 13 -31 23
-24 15 -38 17 -62 10 -18 -5 -43 -9 -56 -9 -24 0 -24 1 14 40 l38 39 -25 12
c-19 8 -31 8 -46 0 -25 -13 -43 -15 -23 -2 12 8 12 12 2 25 -20 23 -40 19 -47
-9z m156 -150 c0 -27 -30 -45 -72 -45 -15 0 -19 5 -15 20 3 11 0 23 -6 27 -14
9 19 21 61 22 28 1 32 -2 32 -24z m-139 -7 c2 -24 -3 -43 -14 -50 -20 -13 -57
-9 -57 6 0 8 -3 21 -6 29 -4 11 2 17 18 20 44 8 58 7 59 -5z"/>
<path d="M220 364 c0 -4 9 -22 21 -40 29 -47 65 -45 53 3 -7 25 -74 59 -74 37z"/>
<path d="M130 335 c0 -15 52 -105 60 -105 16 0 23 27 16 55 -7 26 -76 72 -76
50z"/>
<path d="M32 298 c3 -7 13 -37 24 -67 20 -56 39 -74 55 -50 15 22 1 71 -28
101 -27 29 -59 38 -51 16z"/>
<path d="M630 213 c0 -15 72 -83 81 -78 5 4 9 17 9 30 0 17 -9 27 -40 39 -46
18 -50 19 -50 9z"/>
</g>
</svg>
