<?xml version="1.0" standalone="no"?>
<!DOCTYPE svg PUBLIC "-//W3C//DTD SVG 20010904//EN"
 "http://www.w3.org/TR/2001/REC-SVG-20010904/DTD/svg10.dtd">
<svg version="1.0" xmlns="http://www.w3.org/2000/svg"
 width="96.000000pt" height="68.000000pt" viewBox="0 0 96.000000 68.000000"
 preserveAspectRatio="xMidYMid meet">
<metadata>
Created by potrace 1.16, written by Peter Selinger 2001-2019
</metadata>
<g transform="translate(0.000000,68.000000) scale(0.100000,-0.100000)"
fill="#000000" stroke="none">
<path d="M271 526 c-13 -54 -63 -123 -139 -193 -75 -70 -39 -71 49 -2 20 16
40 29 43 29 9 0 -3 -190 -14 -229 -10 -36 4 -81 26 -81 18 0 22 23 28 182 3
88 1 140 -5 144 -15 9 -7 24 47 93 51 66 50 79 -2 95 -19 6 -23 1 -33 -38z"/>
</g>
</svg>
