<?xml version="1.0" standalone="no"?>
<!DOCTYPE svg PUBLIC "-//W3C//DTD SVG 20010904//EN"
 "http://www.w3.org/TR/2001/REC-SVG-20010904/DTD/svg10.dtd">
<svg version="1.0" xmlns="http://www.w3.org/2000/svg"
 width="96.000000pt" height="68.000000pt" viewBox="0 0 96.000000 68.000000"
 preserveAspectRatio="xMidYMid meet">
<metadata>
Created by potrace 1.16, written by Peter Selinger 2001-2019
</metadata>
<g transform="translate(0.000000,68.000000) scale(0.100000,-0.100000)"
fill="#000000" stroke="none">
<path d="M251 109 c-21 -34 -18 -61 5 -52 9 3 13 12 10 20 -3 8 -2 12 3 9 5
-3 8 8 7 24 0 17 -2 30 -4 30 -1 0 -11 -14 -21 -31z"/>
<path d="M466 115 c9 -14 20 -25 25 -25 5 0 -1 11 -13 25 -12 14 -23 25 -25
25 -2 0 4 -11 13 -25z"/>
<path d="M567 134 c-10 -10 13 -34 32 -34 12 0 13 2 3 9 -8 4 -13 12 -12 17 2
11 -14 16 -23 8z"/>
<path d="M350 123 c0 -4 5 -15 10 -23 8 -13 10 -13 10 2 0 9 -4 20 -10 23 -5
3 -10 3 -10 -2z"/>
</g>
</svg>
