<?xml version="1.0" standalone="no"?>
<!DOCTYPE svg PUBLIC "-//W3C//DTD SVG 20010904//EN"
 "http://www.w3.org/TR/2001/REC-SVG-20010904/DTD/svg10.dtd">
<svg version="1.0" xmlns="http://www.w3.org/2000/svg"
 width="90.000000pt" height="92.000000pt" viewBox="0 0 90.000000 92.000000"
 preserveAspectRatio="xMidYMid meet">
<metadata>
Created by potrace 1.16, written by Peter Selinger 2001-2019
</metadata>
<g transform="translate(0.000000,92.000000) scale(0.100000,-0.100000)"
fill="#000000" stroke="none">
<path d="M516 883 c4 -10 9 -39 12 -64 l4 -47 -61 -7 c-53 -6 -60 -9 -49 -22
9 -11 26 -14 65 -11 49 4 53 3 53 -18 0 -28 -17 -34 -91 -34 -32 0 -59 -2 -59
-5 0 -3 6 -16 14 -28 8 -12 17 -47 21 -77 9 -67 22 -95 38 -82 7 4 27 9 45 10
29 2 32 0 32 -27 0 -17 -4 -32 -9 -35 -5 -3 -41 -9 -81 -12 l-72 -7 26 -25 25
-25 87 26 c49 14 89 25 90 24 1 -1 5 -16 8 -33 l7 -31 -156 -18 c-85 -10 -155
-21 -155 -25 0 -4 13 -13 28 -19 22 -9 50 -8 130 4 56 8 113 15 127 15 l26 0
-3 -93 -3 -92 -42 1 c-24 0 -43 -2 -43 -6 0 -3 21 -26 46 -50 l45 -45 25 28
c23 26 24 35 24 148 l0 119 73 0 c117 0 145 15 86 45 -28 15 -84 14 -142 -2
-13 -3 -16 1 -15 18 2 15 -5 27 -20 35 -23 11 -22 12 13 18 31 6 40 4 52 -13
18 -26 30 -27 38 -2 9 30 -4 48 -46 65 -50 20 -52 20 -40 -3 9 -16 6 -19 -21
-25 -52 -10 -58 -8 -58 24 l0 30 64 0 64 0 33 82 c19 45 35 85 37 89 2 4 -16
16 -40 28 -41 19 -46 20 -92 6 -64 -19 -66 -19 -66 8 0 19 9 24 62 37 62 15
84 34 52 47 -9 3 -37 1 -62 -6 -25 -6 -47 -9 -50 -7 -2 3 1 20 7 38 11 29 9
35 -10 51 -12 9 -35 17 -51 17 -25 0 -29 -3 -22 -17z m184 -230 c0 -27 -2 -28
-54 -29 -49 0 -55 2 -59 22 -4 24 8 29 81 33 29 1 32 -2 32 -26z m-160 -17 c0
-42 -74 -53 -82 -12 -4 21 -1 26 21 29 57 9 61 8 61 -17z m150 -56 c0 -22 -6
-26 -62 -34 -35 -4 -38 -3 -38 19 0 24 14 31 73 34 21 1 27 -3 27 -19z m-150
-27 c0 -19 -5 -23 -34 -23 -27 0 -35 4 -38 23 -4 20 0 22 34 22 33 1 38 -2 38
-22z"/>
<path d="M206 808 c5 -24 8 -81 9 -128 l0 -85 -63 -11 c-34 -6 -66 -14 -69
-18 -14 -14 12 -21 73 -19 l64 1 0 -57 0 -57 -77 -46 c-43 -26 -90 -52 -105
-59 -16 -7 -28 -16 -28 -22 0 -10 41 -46 54 -47 5 0 40 27 77 60 37 33 70 60
74 60 6 0 -3 -153 -12 -183 -4 -15 -11 -17 -51 -11 l-47 7 55 -57 c30 -31 58
-56 62 -56 4 0 14 13 23 30 11 22 15 63 15 169 l0 140 47 45 c54 51 54 67 0
31 -20 -14 -38 -25 -41 -25 -4 0 -6 20 -6 44 0 45 0 45 47 58 54 15 65 33 30
49 -18 8 -30 8 -46 0 -20 -11 -21 -10 -21 49 0 33 6 76 14 95 16 36 9 48 -41
74 -40 20 -46 15 -37 -31z"/>
<path d="M450 275 c0 -19 56 -85 69 -83 26 5 26 54 -1 72 -21 15 -68 22 -68
11z"/>
</g>
</svg>
