<?xml version="1.0" standalone="no"?>
<!DOCTYPE svg PUBLIC "-//W3C//DTD SVG 20010904//EN"
 "http://www.w3.org/TR/2001/REC-SVG-20010904/DTD/svg10.dtd">
<svg version="1.0" xmlns="http://www.w3.org/2000/svg"
 width="90.000000pt" height="92.000000pt" viewBox="0 0 90.000000 92.000000"
 preserveAspectRatio="xMidYMid meet">
<metadata>
Created by potrace 1.16, written by Peter Selinger 2001-2019
</metadata>
<g transform="translate(0.000000,92.000000) scale(0.100000,-0.100000)"
fill="#000000" stroke="none">
<path d="M210 825 c0 -47 -66 -197 -108 -248 -31 -36 -2 -27 41 12 31 29 53
41 74 41 34 0 43 -17 43 -82 0 -42 7 -39 -148 -61 -45 -7 -83 -16 -84 -22 0
-5 12 -16 27 -24 24 -12 39 -11 114 6 l86 20 3 -115 c1 -64 -1 -119 -5 -123
-4 -4 -25 -11 -46 -14 l-38 -7 2 75 c2 82 -8 107 -43 107 -15 0 -18 -4 -13
-17 14 -37 17 -110 6 -166 -12 -65 -7 -87 20 -87 26 0 318 154 299 158 -8 1
-41 -6 -73 -17 l-57 -20 0 53 0 54 70 17 c39 9 70 21 70 26 0 16 -52 22 -85
10 -50 -18 -55 -15 -55 33 l0 44 48 6 c26 4 66 9 90 13 46 6 53 16 21 34 -15
8 -38 8 -86 -1 -36 -6 -67 -10 -68 -8 -2 2 1 25 7 52 9 42 8 51 -6 62 -14 10
-9 13 31 19 102 14 115 24 62 46 -28 11 -41 9 -112 -14 -45 -15 -82 -25 -84
-23 -2 2 12 31 32 66 41 73 42 84 13 104 -32 23 -48 20 -48 -9z"/>
<path d="M650 644 c-47 -11 -71 -12 -88 -4 -48 21 -47 28 -44 -291 2 -165 7
-311 12 -322 8 -21 8 -21 20 8 11 26 28 310 29 492 l1 62 41 11 c22 6 57 10
77 8 l37 -3 -3 -60 c-4 -85 -21 -165 -35 -165 -7 0 -27 4 -45 9 l-33 10 37
-52 c21 -29 39 -53 40 -55 1 -2 11 2 22 9 30 19 50 72 67 182 8 55 20 107 25
117 8 15 4 23 -16 39 -30 24 -53 25 -144 5z"/>
</g>
</svg>
