<?xml version="1.0" standalone="no"?>
<!DOCTYPE svg PUBLIC "-//W3C//DTD SVG 20010904//EN"
 "http://www.w3.org/TR/2001/REC-SVG-20010904/DTD/svg10.dtd">
<svg version="1.0" xmlns="http://www.w3.org/2000/svg"
 width="96.000000pt" height="68.000000pt" viewBox="0 0 96.000000 68.000000"
 preserveAspectRatio="xMidYMid meet">
<metadata>
Created by potrace 1.16, written by Peter Selinger 2001-2019
</metadata>
<g transform="translate(0.000000,68.000000) scale(0.100000,-0.100000)"
fill="#000000" stroke="none">
<path d="M284 583 c-10 -41 -49 -116 -79 -152 -34 -40 -10 -43 29 -2 24 25 36
29 104 34 93 7 142 17 142 27 0 17 -49 19 -107 4 -35 -9 -68 -14 -74 -12 -5 2
4 23 21 47 30 41 31 44 14 62 -24 27 -42 24 -50 -8z"/>
</g>
</svg>
