<?xml version="1.0" standalone="no"?>
<!DOCTYPE svg PUBLIC "-//W3C//DTD SVG 20010904//EN"
 "http://www.w3.org/TR/2001/REC-SVG-20010904/DTD/svg10.dtd">
<svg version="1.0" xmlns="http://www.w3.org/2000/svg"
 width="96.000000pt" height="68.000000pt" viewBox="0 0 96.000000 68.000000"
 preserveAspectRatio="xMidYMid meet">
<metadata>
Created by potrace 1.16, written by Peter Selinger 2001-2019
</metadata>
<g transform="translate(0.000000,68.000000) scale(0.100000,-0.100000)"
fill="#000000" stroke="none">
<path d="M410 465 c0 -40 -121 -133 -255 -197 -45 -22 -52 -27 -27 -22 81 15
200 75 276 141 22 18 45 33 52 33 7 0 60 -31 118 -70 100 -67 107 -70 163 -70
111 0 115 11 12 40 -103 29 -264 106 -291 139 -20 24 -48 28 -48 6z"/>
</g>
</svg>
