<?xml version="1.0" standalone="no"?>
<!DOCTYPE svg PUBLIC "-//W3C//DTD SVG 20010904//EN"
 "http://www.w3.org/TR/2001/REC-SVG-20010904/DTD/svg10.dtd">
<svg version="1.0" xmlns="http://www.w3.org/2000/svg"
 width="96.000000pt" height="68.000000pt" viewBox="0 0 96.000000 68.000000"
 preserveAspectRatio="xMidYMid meet">
<metadata>
Created by potrace 1.16, written by Peter Selinger 2001-2019
</metadata>
<g transform="translate(0.000000,68.000000) scale(0.100000,-0.100000)"
fill="#000000" stroke="none">
<path d="M645 549 c-115 -16 -130 -20 -114 -30 8 -5 31 -9 52 -9 41 0 45 -9
23 -52 -19 -37 -5 -35 40 4 32 28 34 33 20 44 -14 10 -12 12 15 18 17 3 53 6
80 6 26 0 50 4 53 9 14 22 -57 26 -169 10z"/>
</g>
</svg>
