<?xml version="1.0" standalone="no"?>
<!DOCTYPE svg PUBLIC "-//W3C//DTD SVG 20010904//EN"
 "http://www.w3.org/TR/2001/REC-SVG-20010904/DTD/svg10.dtd">
<svg version="1.0" xmlns="http://www.w3.org/2000/svg"
 width="96.000000pt" height="68.000000pt" viewBox="0 0 96.000000 68.000000"
 preserveAspectRatio="xMidYMid meet">
<metadata>
Created by potrace 1.16, written by Peter Selinger 2001-2019
</metadata>
<g transform="translate(0.000000,68.000000) scale(0.100000,-0.100000)"
fill="#000000" stroke="none">
<path d="M547 575 c-2 -26 -7 -48 -10 -51 -3 -3 -24 -8 -47 -11 -44 -6 -37
-23 9 -23 24 0 25 -7 6 -52 -12 -30 12 -20 36 15 34 50 48 57 110 57 32 0 60
4 64 9 8 13 -58 25 -96 17 -27 -5 -30 -3 -24 12 18 44 17 52 -10 62 -14 5 -28
10 -29 10 -2 0 -6 -20 -9 -45z"/>
<path d="M260 580 c0 -6 8 -22 17 -36 22 -34 7 -44 -64 -44 -57 0 -67 -10 -29
-28 15 -7 37 -7 62 -1 57 13 61 12 68 -16 4 -14 14 -25 22 -25 12 0 15 6 10
27 -8 29 5 43 42 43 12 0 22 4 22 9 0 4 -17 8 -37 7 -35 -1 -38 1 -41 29 -2
16 -9 33 -15 37 -18 11 -57 10 -57 -2z"/>
</g>
</svg>
