<?xml version="1.0" standalone="no"?>
<!DOCTYPE svg PUBLIC "-//W3C//DTD SVG 20010904//EN"
 "http://www.w3.org/TR/2001/REC-SVG-20010904/DTD/svg10.dtd">
<svg version="1.0" xmlns="http://www.w3.org/2000/svg"
 width="90.000000pt" height="92.000000pt" viewBox="0 0 90.000000 92.000000"
 preserveAspectRatio="xMidYMid meet">
<metadata>
Created by potrace 1.16, written by Peter Selinger 2001-2019
</metadata>
<g transform="translate(0.000000,92.000000) scale(0.100000,-0.100000)"
fill="#000000" stroke="none">
<path d="M532 770 c-29 -63 -35 -70 -62 -70 -28 0 -28 -1 -15 -27 10 -22 12
-55 6 -143 -6 -90 -5 -123 7 -150 13 -32 15 -33 22 -14 7 18 20 22 85 27 70 6
78 5 94 -14 16 -20 18 -20 31 -4 11 13 14 45 12 134 -1 64 2 131 7 149 8 28 7
36 -10 53 -27 27 -33 27 -134 3 l-60 -13 58 51 c55 48 57 51 41 69 -30 33 -47
22 -82 -51z m126 -121 c1 -18 0 -30 -3 -27 -4 3 -32 0 -63 -8 -88 -21 -92 -20
-92 25 l0 38 63 10 c75 11 92 4 95 -38z m2 -83 c0 -22 -6 -25 -72 -36 -40 -7
-76 -14 -80 -17 -5 -2 -8 12 -8 31 l0 35 53 4 c28 2 64 4 80 5 22 2 27 -2 27
-22z m0 -94 c0 -37 -1 -38 -36 -39 -20 -1 -56 -4 -80 -8 l-44 -6 0 41 c0 23 4
39 8 36 7 -4 88 3 145 13 4 0 7 -16 7 -37z"/>
<path d="M250 778 c-52 -10 -106 -21 -120 -24 l-25 -6 25 -13 c16 -9 41 -12
68 -8 l42 6 0 -51 0 -50 -100 -12 c-55 -7 -100 -17 -100 -22 0 -5 12 -14 26
-20 19 -9 39 -9 85 1 33 6 66 14 74 18 11 4 15 -3 15 -30 0 -51 -23 -70 -77
-64 -46 5 -51 -1 -29 -36 8 -12 17 -42 21 -67 4 -25 12 -54 17 -64 10 -18 12
-18 22 -4 10 13 124 38 173 38 3 0 3 6 0 14 -3 7 5 37 19 66 13 28 24 55 24
60 0 4 -14 13 -30 20 -24 10 -37 10 -56 1 -51 -23 -65 -7 -48 56 5 19 15 23
75 29 74 7 88 14 63 34 -11 10 -28 11 -70 3 l-55 -10 3 46 c4 55 10 61 66 61
42 0 53 9 30 27 -24 19 -44 19 -138 1z m84 -330 c-4 -24 -7 -44 -8 -45 -3 -4
-121 -21 -124 -18 -2 2 -5 23 -5 47 -2 42 -1 43 33 49 19 4 52 7 73 8 l37 1
-6 -42z"/>
<path d="M401 318 c23 -43 61 -88 76 -88 7 0 16 7 20 16 10 26 -15 64 -52 80
-49 20 -58 18 -44 -8z"/>
<path d="M630 337 c0 -7 126 -137 133 -137 3 0 11 9 17 20 18 34 2 60 -53 85
-58 26 -97 39 -97 32z"/>
<path d="M230 308 c0 -14 46 -118 61 -140 65 -91 281 -126 405 -66 37 17 43
51 12 65 -13 6 -44 27 -70 47 -53 39 -59 35 -27 -18 l20 -35 -23 -12 c-38 -20
-176 -16 -229 8 -47 21 -91 68 -104 113 -7 24 -22 40 -37 40 -5 0 -8 -1 -8 -2z"/>
<path d="M116 216 c-38 -71 -42 -108 -11 -120 34 -13 75 98 58 157 l-9 32 -38
-69z"/>
</g>
</svg>
