<?xml version="1.0" standalone="no"?>
<!DOCTYPE svg PUBLIC "-//W3C//DTD SVG 20010904//EN"
 "http://www.w3.org/TR/2001/REC-SVG-20010904/DTD/svg10.dtd">
<svg version="1.0" xmlns="http://www.w3.org/2000/svg"
 width="96.000000pt" height="68.000000pt" viewBox="0 0 96.000000 68.000000"
 preserveAspectRatio="xMidYMid meet">
<metadata>
Created by potrace 1.16, written by Peter Selinger 2001-2019
</metadata>
<g transform="translate(0.000000,68.000000) scale(0.100000,-0.100000)"
fill="#000000" stroke="none">
<path d="M378 451 c-33 -66 -144 -201 -194 -235 l-36 -24 22 -22 c12 -12 29
-20 38 -16 10 3 59 19 110 36 l94 32 14 -21 c22 -31 44 -27 44 8 0 21 -10 38
-35 60 -46 40 -73 43 -49 5 10 -14 13 -28 8 -33 -11 -10 -95 -31 -124 -31 -29
0 -23 9 93 140 82 92 96 113 88 129 -21 39 -45 30 -73 -28z"/>
</g>
</svg>
