<?xml version="1.0" standalone="no"?>
<!DOCTYPE svg PUBLIC "-//W3C//DTD SVG 20010904//EN"
 "http://www.w3.org/TR/2001/REC-SVG-20010904/DTD/svg10.dtd">
<svg version="1.0" xmlns="http://www.w3.org/2000/svg"
 width="96.000000pt" height="68.000000pt" viewBox="0 0 96.000000 68.000000"
 preserveAspectRatio="xMidYMid meet">
<metadata>
Created by potrace 1.16, written by Peter Selinger 2001-2019
</metadata>
<g transform="translate(0.000000,68.000000) scale(0.100000,-0.100000)"
fill="#000000" stroke="none">
<path d="M316 550 l7 -40 -39 -1 c-68 -1 -87 -17 -21 -18 50 -1 57 -3 57 -21
0 -16 -7 -20 -32 -20 -18 0 -40 -5 -48 -10 -11 -7 -2 -10 33 -10 40 0 47 -3
47 -19 0 -14 5 -18 20 -14 11 3 20 14 20 24 0 14 7 19 29 19 42 0 48 18 9 22
-44 4 -53 38 -11 39 15 0 37 4 47 8 31 12 1 24 -41 16 -34 -6 -35 -6 -28 23 5
25 3 30 -17 36 -37 9 -39 8 -32 -34z"/>
</g>
</svg>
