<?xml version="1.0" standalone="no"?>
<!DOCTYPE svg PUBLIC "-//W3C//DTD SVG 20010904//EN"
 "http://www.w3.org/TR/2001/REC-SVG-20010904/DTD/svg10.dtd">
<svg version="1.0" xmlns="http://www.w3.org/2000/svg"
 width="96.000000pt" height="68.000000pt" viewBox="0 0 96.000000 68.000000"
 preserveAspectRatio="xMidYMid meet">
<metadata>
Created by potrace 1.16, written by Peter Selinger 2001-2019
</metadata>
<g transform="translate(0.000000,68.000000) scale(0.100000,-0.100000)"
fill="#000000" stroke="none">
<path d="M502 567 c-5 -6 -15 -28 -21 -49 -7 -20 -30 -57 -52 -82 -45 -51 -43
-59 7 -21 18 14 36 25 40 25 4 0 4 -35 1 -78 -7 -86 2 -114 27 -93 9 8 71 16
158 23 78 5 144 11 146 13 2 2 1 9 -3 15 -5 9 -28 10 -75 6 -38 -4 -71 -3 -73
1 -12 19 13 35 57 40 67 8 67 23 1 23 -48 0 -56 3 -53 18 2 12 16 18 50 22 68
8 71 20 5 20 -82 0 -73 32 11 43 24 3 47 8 50 12 9 8 -20 26 -35 20 -6 -2 -28
-7 -47 -11 -29 -5 -35 -3 -31 8 6 15 -18 41 -47 51 -22 8 -23 -3 -3 -29 24
-32 17 -41 -36 -48 -59 -8 -69 -3 -46 22 22 24 21 39 -2 51 -13 8 -22 7 -29
-2z m118 -112 c0 -31 -102 -34 -108 -2 -3 14 5 17 52 17 43 0 56 -4 56 -15z
m-2 -62 c-2 -14 -15 -19 -51 -21 -42 -3 -47 -1 -47 17 0 18 6 21 51 21 43 0
50 -3 47 -17z m2 -63 c0 -18 -7 -20 -55 -20 -48 0 -55 2 -55 20 0 18 7 20 55
20 48 0 55 -2 55 -20z"/>
<path d="M260 538 c-1 -48 -88 -195 -157 -264 -14 -14 -23 -28 -20 -30 7 -8
77 39 106 70 32 34 71 35 71 2 0 -22 -6 -26 -45 -32 -65 -9 -61 -34 5 -34 l50
0 0 -45 c0 -42 -1 -44 -37 -54 -21 -6 -55 -11 -75 -11 -39 0 -49 -15 -26 -38
19 -19 45 -15 166 26 112 38 141 59 79 55 -30 -1 -31 -1 -12 12 46 33 49 37
29 52 -10 7 -21 13 -26 13 -11 0 -39 -70 -32 -81 3 -5 -2 -9 -11 -9 -13 0 -16
9 -13 48 3 47 3 47 46 56 51 11 50 31 -1 31 -31 0 -37 3 -37 21 0 16 8 23 30
27 17 4 30 11 30 17 0 12 -48 12 -106 1 l-41 -8 36 58 c20 33 41 59 47 59 6 0
21 -11 34 -25 30 -32 50 -32 50 0 0 21 -9 30 -42 45 -24 11 -39 20 -34 20 5 0
1 9 -9 20 -25 28 -55 26 -55 -2z"/>
<path d="M707 253 c-55 -4 -57 -5 -51 -29 11 -45 -2 -69 -40 -71 l-34 -3 5 39
c5 34 3 39 -19 44 -14 4 -40 2 -58 -3 -18 -5 -43 -7 -56 -4 -22 6 -22 5 -17
-78 9 -136 43 -145 43 -10 l0 72 36 0 37 0 -6 -45 c-6 -40 -4 -45 13 -45 10 0
31 5 45 12 21 9 31 9 46 0 22 -14 21 -15 39 54 10 39 13 42 51 46 53 5 62 -8
53 -74 -8 -64 -20 -81 -51 -73 -29 7 -29 -6 0 -33 47 -45 78 -15 92 88 4 30
11 62 16 71 12 23 -20 49 -57 47 -16 -1 -55 -3 -87 -5z"/>
<path d="M170 210 c0 -13 41 -50 56 -50 19 0 24 28 8 45 -17 17 -64 21 -64 5z"/>
</g>
</svg>
