<?xml version="1.0" standalone="no"?>
<!DOCTYPE svg PUBLIC "-//W3C//DTD SVG 20010904//EN"
 "http://www.w3.org/TR/2001/REC-SVG-20010904/DTD/svg10.dtd">
<svg version="1.0" xmlns="http://www.w3.org/2000/svg"
 width="96.000000pt" height="68.000000pt" viewBox="0 0 96.000000 68.000000"
 preserveAspectRatio="xMidYMid meet">
<metadata>
Created by potrace 1.16, written by Peter Selinger 2001-2019
</metadata>
<g transform="translate(0.000000,68.000000) scale(0.100000,-0.100000)"
fill="#000000" stroke="none">
<path d="M550 586 c0 -33 -2 -34 -47 -41 -38 -5 -44 -9 -30 -17 10 -5 27 -8
40 -6 19 3 22 -1 19 -27 l-3 -30 20 23 c11 12 21 28 23 34 3 7 32 14 71 16 37
2 67 8 67 13 0 13 -47 22 -81 15 -27 -5 -30 -4 -24 15 8 23 -8 39 -37 39 -14
0 -18 -8 -18 -34z"/>
<path d="M295 583 c22 -53 21 -53 -44 -53 -64 0 -77 -10 -37 -28 17 -7 36 -7
67 0 29 8 44 8 46 1 2 -6 10 -19 18 -29 13 -18 14 -17 15 13 0 28 5 34 33 42
l32 9 -37 1 c-32 1 -37 4 -40 29 -2 21 -9 28 -32 30 -24 3 -28 1 -21 -15z"/>
</g>
</svg>
