<?xml version="1.0" standalone="no"?>
<!DOCTYPE svg PUBLIC "-//W3C//DTD SVG 20010904//EN"
 "http://www.w3.org/TR/2001/REC-SVG-20010904/DTD/svg10.dtd">
<svg version="1.0" xmlns="http://www.w3.org/2000/svg"
 width="96.000000pt" height="68.000000pt" viewBox="0 0 96.000000 68.000000"
 preserveAspectRatio="xMidYMid meet">
<metadata>
Created by potrace 1.16, written by Peter Selinger 2001-2019
</metadata>
<g transform="translate(0.000000,68.000000) scale(0.100000,-0.100000)"
fill="#000000" stroke="none">
<path d="M582 291 c3 -112 7 -153 18 -167 26 -30 76 -45 133 -39 119 13 125
18 98 91 l-18 47 -7 -36 c-4 -20 -17 -43 -29 -52 -28 -20 -106 -19 -135 1 -19
13 -22 24 -22 83 l0 68 85 18 c47 10 85 22 85 26 0 5 -9 13 -20 19 -15 8 -30
5 -69 -15 -60 -30 -85 -32 -77 -7 3 9 8 34 12 54 6 34 4 39 -21 48 -14 5 -29
10 -31 10 -3 0 -4 -67 -2 -149z"/>
</g>
</svg>
