<?xml version="1.0" standalone="no"?>
<!DOCTYPE svg PUBLIC "-//W3C//DTD SVG 20010904//EN"
 "http://www.w3.org/TR/2001/REC-SVG-20010904/DTD/svg10.dtd">
<svg version="1.0" xmlns="http://www.w3.org/2000/svg"
 width="96.000000pt" height="68.000000pt" viewBox="0 0 96.000000 68.000000"
 preserveAspectRatio="xMidYMid meet">
<metadata>
Created by potrace 1.16, written by Peter Selinger 2001-2019
</metadata>
<g transform="translate(0.000000,68.000000) scale(0.100000,-0.100000)"
fill="#000000" stroke="none">
<path d="M574 246 c-3 -8 -1 -23 5 -33 5 -11 7 -39 4 -63 -4 -31 -3 -41 5 -36
16 10 15 -17 0 -32 -9 -9 -9 -15 0 -24 14 -14 14 -10 16 89 1 36 -3 63 -9 63
-5 0 -2 7 9 15 10 7 15 18 11 24 -9 16 -35 13 -41 -3z"/>
</g>
</svg>
