<?xml version="1.0" standalone="no"?>
<!DOCTYPE svg PUBLIC "-//W3C//DTD SVG 20010904//EN"
 "http://www.w3.org/TR/2001/REC-SVG-20010904/DTD/svg10.dtd">
<svg version="1.0" xmlns="http://www.w3.org/2000/svg"
 width="96.000000pt" height="68.000000pt" viewBox="0 0 96.000000 68.000000"
 preserveAspectRatio="xMidYMid meet">
<metadata>
Created by potrace 1.16, written by Peter Selinger 2001-2019
</metadata>
<g transform="translate(0.000000,68.000000) scale(0.100000,-0.100000)"
fill="#000000" stroke="none">
<path d="M381 340 c0 -33 4 -62 10 -65 12 -8 16 6 23 73 4 46 3 52 -14 52 -16
0 -18 -8 -19 -60z"/>
<path d="M450 361 c0 -12 35 -41 49 -41 24 0 6 34 -21 41 -16 4 -28 4 -28 0z"/>
<path d="M293 325 c-31 -48 -17 -45 57 12 4 4 -21 23 -30 22 -3 0 -15 -15 -27
-34z"/>
</g>
</svg>
