<?xml version="1.0" standalone="no"?>
<!DOCTYPE svg PUBLIC "-//W3C//DTD SVG 20010904//EN"
 "http://www.w3.org/TR/2001/REC-SVG-20010904/DTD/svg10.dtd">
<svg version="1.0" xmlns="http://www.w3.org/2000/svg"
 width="96.000000pt" height="68.000000pt" viewBox="0 0 96.000000 68.000000"
 preserveAspectRatio="xMidYMid meet">
<metadata>
Created by potrace 1.16, written by Peter Selinger 2001-2019
</metadata>
<g transform="translate(0.000000,68.000000) scale(0.100000,-0.100000)"
fill="#000000" stroke="none">
<path d="M516 578 c-9 -12 -16 -28 -16 -35 0 -8 -19 -34 -41 -58 -33 -36 -39
-48 -30 -59 10 -12 20 -12 69 1 75 21 92 37 30 28 -27 -4 -48 -4 -48 0 0 4 20
30 45 58 25 29 45 55 45 59 0 4 -9 12 -19 18 -16 8 -23 6 -35 -12z"/>
</g>
</svg>
