<?xml version="1.0" standalone="no"?>
<!DOCTYPE svg PUBLIC "-//W3C//DTD SVG 20010904//EN"
 "http://www.w3.org/TR/2001/REC-SVG-20010904/DTD/svg10.dtd">
<svg version="1.0" xmlns="http://www.w3.org/2000/svg"
 width="96.000000pt" height="68.000000pt" viewBox="0 0 96.000000 68.000000"
 preserveAspectRatio="xMidYMid meet">
<metadata>
Created by potrace 1.16, written by Peter Selinger 2001-2019
</metadata>
<g transform="translate(0.000000,68.000000) scale(0.100000,-0.100000)"
fill="#000000" stroke="none">
<path d="M560 355 c-25 -7 -78 -16 -117 -20 -40 -4 -73 -10 -73 -14 0 -4 15
-15 34 -25 18 -10 55 -39 81 -66 l47 -47 -36 -23 c-20 -12 -69 -32 -109 -45
-43 -14 -62 -23 -47 -24 30 -1 146 31 185 52 28 14 30 14 78 -27 l49 -41 90 1
c121 1 130 15 26 43 -90 24 -168 55 -168 68 0 4 25 41 55 81 30 40 55 77 55
81 0 24 -77 26 -150 6z m56 -45 c-6 -30 -52 -100 -65 -100 -4 0 -31 22 -61 48
l-54 49 74 15 c112 24 114 23 106 -12z"/>
</g>
</svg>
