<?xml version="1.0" standalone="no"?>
<!DOCTYPE svg PUBLIC "-//W3C//DTD SVG 20010904//EN"
 "http://www.w3.org/TR/2001/REC-SVG-20010904/DTD/svg10.dtd">
<svg version="1.0" xmlns="http://www.w3.org/2000/svg"
 width="96.000000pt" height="68.000000pt" viewBox="0 0 96.000000 68.000000"
 preserveAspectRatio="xMidYMid meet">
<metadata>
Created by potrace 1.16, written by Peter Selinger 2001-2019
</metadata>
<g transform="translate(0.000000,68.000000) scale(0.100000,-0.100000)"
fill="#000000" stroke="none">
<path d="M560 577 c0 -32 -70 -168 -104 -202 -9 -9 -16 -18 -16 -21 0 -11 18
-1 50 29 28 26 49 35 108 45 105 17 139 16 152 -7 13 -26 13 -190 -1 -249 -17
-68 -30 -79 -78 -66 -36 10 -39 9 -31 -5 16 -31 69 -74 83 -68 8 3 27 22 42
42 26 34 29 45 36 170 4 74 10 148 14 164 5 23 2 32 -17 45 -28 20 -59 20
-144 0 -37 -8 -75 -14 -85 -12 -20 3 -22 -1 33 92 l27 46 -22 15 c-34 24 -47
19 -47 -18z"/>
<path d="M248 410 l4 -140 -31 0 -32 0 7 50 c7 56 -5 80 -40 80 -19 0 -21 -4
-18 -36 3 -20 -1 -54 -9 -76 -9 -29 -10 -44 -2 -56 12 -20 34 -19 123 2 86 20
97 20 105 -4 3 -11 12 -20 19 -20 17 0 32 39 46 120 11 58 10 65 -6 77 -36 26
-47 12 -48 -57 -1 -64 -1 -65 -30 -68 l-29 -4 5 131 c5 139 4 141 -45 141 -22
0 -22 -2 -19 -140z"/>
<path d="M580 330 c-14 -4 -50 -9 -80 -9 -30 -1 -50 -5 -43 -9 6 -4 19 -33 28
-65 15 -52 20 -58 38 -54 12 3 43 9 70 12 38 6 47 11 47 27 0 12 9 36 20 54
21 33 21 33 1 43 -22 12 -45 13 -81 1z m24 -57 c-8 -45 -3 -39 -41 -48 -29 -6
-34 -4 -43 20 -20 52 -12 58 68 64 21 1 22 -2 16 -36z"/>
</g>
</svg>
