<?xml version="1.0" standalone="no"?>
<!DOCTYPE svg PUBLIC "-//W3C//DTD SVG 20010904//EN"
 "http://www.w3.org/TR/2001/REC-SVG-20010904/DTD/svg10.dtd">
<svg version="1.0" xmlns="http://www.w3.org/2000/svg"
 width="90.000000pt" height="92.000000pt" viewBox="0 0 90.000000 92.000000"
 preserveAspectRatio="xMidYMid meet">
<metadata>
Created by potrace 1.16, written by Peter Selinger 2001-2019
</metadata>
<g transform="translate(0.000000,92.000000) scale(0.100000,-0.100000)"
fill="#000000" stroke="none">
<path d="M470 845 c0 -9 11 -33 25 -55 13 -21 21 -41 17 -44 -4 -3 -47 -10
-95 -17 -48 -7 -87 -16 -87 -21 0 -5 11 -14 25 -20 19 -9 42 -7 102 6 42 9
132 22 200 29 68 6 123 14 123 18 0 3 -9 14 -20 24 -20 18 -44 18 -152 -1 -37
-6 -38 -6 -38 24 0 27 -6 35 -40 52 -47 24 -60 25 -60 5z"/>
<path d="M158 835 c-3 -3 1 -29 9 -58 18 -66 11 -427 -11 -561 -13 -79 -13
-93 1 -127 8 -22 19 -39 24 -39 26 0 33 54 37 293 l4 249 38 -37 c40 -39 60
-39 60 0 0 20 -9 27 -49 42 -27 9 -47 22 -46 27 2 6 6 48 10 93 l6 82 -33 21
c-35 21 -42 23 -50 15z"/>
<path d="M540 659 c-47 -10 -100 -18 -119 -19 -27 0 -31 -2 -22 -14 6 -8 20
-38 29 -67 12 -37 23 -53 32 -51 15 4 199 31 212 32 4 0 5 7 2 15 -4 8 6 31
21 50 l26 36 -23 19 c-28 23 -48 23 -158 -1z m93 -27 c3 -4 3 -19 0 -33 -4
-22 -13 -27 -62 -37 -66 -14 -101 -15 -101 -4 0 4 -3 17 -6 29 -5 19 0 24 42
37 53 16 120 21 127 8z"/>
<path d="M47 506 c-33 -73 -33 -119 -1 -124 17 -2 25 6 38 38 22 55 20 151 -3
150 -3 0 -19 -29 -34 -64z"/>
<path d="M560 479 c-36 -10 -82 -18 -102 -18 -53 -1 -71 -10 -57 -27 15 -18
48 -17 139 5 41 10 79 16 83 14 14 -8 -55 -73 -77 -73 -18 0 -18 -1 -3 -18 10
-10 17 -23 17 -28 0 -11 -143 -34 -213 -34 -57 0 -65 -23 -13 -40 27 -9 46 -8
88 4 29 8 75 18 102 22 l49 7 -6 -69 c-8 -93 -14 -107 -43 -100 -13 3 -36 9
-50 12 -21 6 -17 -2 28 -44 29 -28 58 -52 63 -54 24 -8 45 66 45 158 0 109 -7
104 148 104 111 0 126 10 64 41 -27 14 -39 14 -99 3 -95 -18 -116 -17 -131 6
-12 20 -8 23 63 56 41 19 75 39 75 44 0 15 -62 50 -85 49 -11 -1 -49 -10 -85
-20z"/>
</g>
</svg>
