<?xml version="1.0" standalone="no"?>
<!DOCTYPE svg PUBLIC "-//W3C//DTD SVG 20010904//EN"
 "http://www.w3.org/TR/2001/REC-SVG-20010904/DTD/svg10.dtd">
<svg version="1.0" xmlns="http://www.w3.org/2000/svg"
 width="96.000000pt" height="68.000000pt" viewBox="0 0 96.000000 68.000000"
 preserveAspectRatio="xMidYMid meet">
<metadata>
Created by potrace 1.16, written by Peter Selinger 2001-2019
</metadata>
<g transform="translate(0.000000,68.000000) scale(0.100000,-0.100000)"
fill="#000000" stroke="none">
<path d="M267 603 c-4 -3 -7 -16 -7 -27 -1 -37 -38 -106 -106 -192 -36 -46
-62 -84 -58 -84 24 0 118 89 155 145 28 43 46 62 53 56 109 -85 136 -97 136
-61 0 23 -45 54 -101 71 -35 11 -36 13 -26 40 10 24 8 31 -8 44 -23 16 -29 18
-38 8z"/>
</g>
</svg>
