<?xml version="1.0" standalone="no"?>
<!DOCTYPE svg PUBLIC "-//W3C//DTD SVG 20010904//EN"
 "http://www.w3.org/TR/2001/REC-SVG-20010904/DTD/svg10.dtd">
<svg version="1.0" xmlns="http://www.w3.org/2000/svg"
 width="96.000000pt" height="68.000000pt" viewBox="0 0 96.000000 68.000000"
 preserveAspectRatio="xMidYMid meet">
<metadata>
Created by potrace 1.16, written by Peter Selinger 2001-2019
</metadata>
<g transform="translate(0.000000,68.000000) scale(0.100000,-0.100000)"
fill="#000000" stroke="none">
<path d="M364 461 c-11 -5 -56 -12 -100 -16 -43 -4 -83 -10 -88 -13 -14 -8 23
-20 62 -21 l32 -1 0 -79 c0 -89 3 -85 -83 -96 -32 -4 -57 -11 -57 -16 0 -11
41 -39 59 -39 21 0 275 104 263 108 -6 2 -36 -4 -68 -12 -32 -8 -59 -14 -61
-12 -2 1 0 37 3 80 8 84 1 77 88 91 22 4 35 10 30 15 -15 14 -58 20 -80 11z"/>
</g>
</svg>
