<?xml version="1.0" standalone="no"?>
<!DOCTYPE svg PUBLIC "-//W3C//DTD SVG 20010904//EN"
 "http://www.w3.org/TR/2001/REC-SVG-20010904/DTD/svg10.dtd">
<svg version="1.0" xmlns="http://www.w3.org/2000/svg"
 width="90.000000pt" height="92.000000pt" viewBox="0 0 90.000000 92.000000"
 preserveAspectRatio="xMidYMid meet">
<metadata>
Created by potrace 1.16, written by Peter Selinger 2001-2019
</metadata>
<g transform="translate(0.000000,92.000000) scale(0.100000,-0.100000)"
fill="#000000" stroke="none">
<path d="M168 844 c-4 -3 -2 -20 3 -37 5 -18 12 -69 15 -113 l7 -82 -44 -7
c-118 -18 -114 -16 -93 -32 14 -11 35 -13 75 -9 l56 5 -1 -56 -1 -56 -92 -51
c-73 -40 -92 -56 -93 -73 0 -12 9 -27 20 -33 18 -10 29 -3 84 44 35 31 66 56
70 56 8 0 7 -115 -2 -165 -8 -40 -8 -40 -51 -37 l-43 3 49 -56 c26 -30 51 -55
56 -55 4 0 16 15 27 32 17 29 20 51 20 180 l0 146 42 34 c23 18 39 28 35 22
-8 -13 34 -34 69 -34 22 0 24 -2 13 -22 -6 -13 -32 -47 -56 -75 -51 -61 -44
-68 20 -19 37 29 47 32 65 22 20 -11 21 -13 6 -41 -8 -17 -36 -51 -62 -77 -25
-27 -43 -48 -39 -48 23 0 88 44 125 84 44 48 49 60 30 72 -15 9 16 22 55 23
59 2 24 -73 -92 -193 -36 -37 -79 -77 -96 -87 -25 -16 -27 -19 -10 -19 24 0
115 58 164 103 18 18 55 63 82 101 39 55 46 72 39 87 -9 15 -6 20 14 25 51 12
61 3 60 -56 0 -64 -26 -154 -53 -189 -17 -22 -21 -23 -51 -12 -18 6 -34 10
-36 8 -6 -6 61 -97 72 -97 7 0 26 12 43 26 33 27 53 81 72 194 6 36 18 77 25
92 20 38 18 46 -16 63 -29 15 -40 14 -152 -4 -66 -12 -134 -21 -151 -21 l-31
0 28 29 c16 16 26 34 22 39 -7 12 105 29 240 37 155 10 169 16 114 48 -28 17
-34 17 -142 -2 -193 -34 -338 -53 -366 -46 -17 3 -35 0 -47 -9 -30 -23 -35
-20 -35 28 0 43 1 44 38 51 20 3 44 10 52 16 26 16 -17 41 -58 33 l-34 -7 7
59 c4 33 12 69 16 82 14 35 12 41 -23 62 -34 20 -50 24 -60 14z"/>
<path d="M560 834 c-25 -8 -73 -15 -108 -16 -49 0 -60 -3 -52 -13 6 -7 15 -52
21 -101 16 -136 14 -134 95 -117 51 11 69 11 75 2 13 -22 38 0 49 43 6 24 19
71 30 106 11 34 20 66 20 70 0 8 -65 43 -78 41 -4 0 -27 -7 -52 -15z m50 -63
l0 -38 -72 -6 c-40 -3 -73 -5 -74 -4 -1 1 -5 16 -8 34 l-7 31 63 10 c102 16
98 17 98 -27z m-12 -98 c-3 -28 -13 -33 -110 -57 -27 -6 -28 -5 -28 33 0 40 0
40 43 44 101 9 99 9 95 -20z"/>
</g>
</svg>
