<?xml version="1.0" standalone="no"?>
<!DOCTYPE svg PUBLIC "-//W3C//DTD SVG 20010904//EN"
 "http://www.w3.org/TR/2001/REC-SVG-20010904/DTD/svg10.dtd">
<svg version="1.0" xmlns="http://www.w3.org/2000/svg"
 width="96.000000pt" height="68.000000pt" viewBox="0 0 96.000000 68.000000"
 preserveAspectRatio="xMidYMid meet">
<metadata>
Created by potrace 1.16, written by Peter Selinger 2001-2019
</metadata>
<g transform="translate(0.000000,68.000000) scale(0.100000,-0.100000)"
fill="#000000" stroke="none">
<path d="M515 373 c-4 -32 -12 -61 -19 -65 -6 -4 -35 -8 -63 -8 -29 0 -53 -4
-53 -9 0 -16 38 -23 82 -16 l41 7 -8 -58 c-4 -33 -12 -62 -19 -66 -6 -4 -35
-8 -63 -8 -29 0 -53 -4 -53 -10 0 -19 50 -22 151 -10 55 6 154 11 220 11 118
0 144 8 95 30 -17 8 -62 8 -161 0 -76 -7 -139 -10 -142 -8 -6 7 19 112 30 118
5 4 74 10 153 14 137 7 175 17 118 31 -27 7 -167 -1 -236 -12 l-36 -6 9 38
c15 67 12 84 -15 84 -21 0 -24 -6 -31 -57z"/>
</g>
</svg>
