<?xml version="1.0" standalone="no"?>
<!DOCTYPE svg PUBLIC "-//W3C//DTD SVG 20010904//EN"
 "http://www.w3.org/TR/2001/REC-SVG-20010904/DTD/svg10.dtd">
<svg version="1.0" xmlns="http://www.w3.org/2000/svg"
 width="90.000000pt" height="92.000000pt" viewBox="0 0 90.000000 92.000000"
 preserveAspectRatio="xMidYMid meet">
<metadata>
Created by potrace 1.16, written by Peter Selinger 2001-2019
</metadata>
<g transform="translate(0.000000,92.000000) scale(0.100000,-0.100000)"
fill="#000000" stroke="none">
<path d="M595 880 c3 -10 3 -35 -1 -55 -5 -31 -10 -35 -38 -36 -17 -1 -42 -4
-56 -8 l-25 -7 23 -13 c14 -7 35 -10 54 -6 28 7 30 5 23 -16 -20 -69 -20 -66
3 -46 11 10 26 32 32 48 12 27 16 29 70 29 90 0 116 17 61 39 -16 7 -43 10
-64 6 l-36 -7 12 32 c11 28 10 33 -7 46 -30 21 -59 18 -51 -6z"/>
<path d="M248 864 c-4 -3 2 -24 12 -47 l19 -42 -47 -8 c-26 -4 -59 -5 -74 -2
-35 6 -35 -5 -3 -35 23 -21 29 -23 58 -13 76 26 74 26 87 -12 15 -46 30 -45
30 4 0 36 3 40 35 51 47 16 45 32 -4 24 l-38 -6 -6 40 c-5 30 -12 41 -29 46
-29 7 -33 7 -40 0z"/>
<path d="M488 648 c-8 -18 -37 -57 -63 -86 -27 -30 -39 -49 -28 -46 24 9 112
76 143 109 24 26 25 27 6 41 -29 21 -41 17 -58 -18z"/>
<path d="M254 620 c-28 -10 -74 -21 -103 -25 -28 -4 -51 -11 -51 -16 0 -18 54
-21 105 -5 59 18 85 20 85 6 0 -5 -12 -29 -27 -54 -23 -38 -31 -44 -50 -40
-22 6 -34 -11 -13 -18 5 -1 14 -24 18 -50 l9 -46 -79 -36 c-44 -20 -86 -36
-95 -36 -20 0 -12 -20 19 -43 l26 -19 55 41 c31 22 61 41 68 41 11 0 7 -89 -7
-163 -6 -30 -16 -31 -70 -10 -11 4 1 -15 26 -45 25 -29 50 -52 56 -52 24 0 37
59 42 182 l4 128 50 36 c58 41 58 54 -1 25 -57 -30 -63 -27 -59 21 3 40 8 46
65 88 34 25 60 50 59 55 -3 11 -65 56 -75 54 -3 -1 -29 -9 -57 -19z"/>
<path d="M554 595 c-7 -27 -80 -99 -119 -117 -28 -13 -30 -18 -12 -41 11 -14
18 -15 70 -2 31 7 57 12 57 10 0 -6 -111 -86 -135 -97 -28 -13 -32 -30 -10
-48 13 -11 27 -10 76 5 76 23 79 20 79 -99 l0 -89 -41 7 -41 6 43 -51 44 -51
17 22 c20 25 20 25 22 172 1 66 -3 108 -9 109 -5 1 13 7 40 14 49 12 50 12 73
-17 27 -32 42 -29 42 8 0 36 -16 61 -50 79 -39 20 -41 19 -34 -10 3 -14 5 -25
3 -25 -2 0 -42 -7 -89 -15 -47 -8 -94 -15 -105 -15 -11 0 34 32 100 72 66 39
122 73 124 75 8 6 -19 53 -30 53 -6 0 -28 -18 -48 -41 -35 -40 -37 -40 -96
-37 l-60 3 75 49 c41 27 77 51 80 53 6 6 -38 43 -51 43 -5 0 -11 -11 -15 -25z"/>
<path d="M660 265 c0 -10 89 -143 100 -150 32 -20 30 58 -2 92 -22 24 -98 69
-98 58z"/>
<path d="M422 225 c-7 -14 -33 -48 -58 -75 -26 -28 -43 -50 -37 -50 19 0 117
66 137 93 21 28 21 29 2 43 -27 19 -31 18 -44 -11z"/>
</g>
</svg>
