<?xml version="1.0" standalone="no"?>
<!DOCTYPE svg PUBLIC "-//W3C//DTD SVG 20010904//EN"
 "http://www.w3.org/TR/2001/REC-SVG-20010904/DTD/svg10.dtd">
<svg version="1.0" xmlns="http://www.w3.org/2000/svg"
 width="96.000000pt" height="68.000000pt" viewBox="0 0 96.000000 68.000000"
 preserveAspectRatio="xMidYMid meet">
<metadata>
Created by potrace 1.16, written by Peter Selinger 2001-2019
</metadata>
<g transform="translate(0.000000,68.000000) scale(0.100000,-0.100000)"
fill="#000000" stroke="none">
<path d="M725 251 c11 -5 24 -6 28 -4 4 3 -4 -18 -19 -46 -16 -28 -33 -51 -38
-51 -6 0 -22 15 -35 33 -25 35 -25 30 3 -25 l19 -37 -24 -22 -24 -21 28 16
c25 15 30 15 49 1 13 -8 18 -15 13 -15 -30 -1 36 -23 71 -25 52 -1 49 7 -11
29 -25 10 -45 21 -45 26 0 5 -8 10 -17 12 -15 3 -15 5 -1 18 8 8 13 21 10 29
-3 8 0 11 7 7 6 -4 11 -1 11 8 0 9 5 16 11 16 6 0 9 6 6 14 -3 8 1 17 9 20 26
10 4 26 -34 25 -29 0 -33 -2 -17 -8z"/>
<path d="M618 233 c7 -3 16 -2 19 1 4 3 -2 6 -13 5 -11 0 -14 -3 -6 -6z"/>
</g>
</svg>
