<?xml version="1.0" standalone="no"?>
<!DOCTYPE svg PUBLIC "-//W3C//DTD SVG 20010904//EN"
 "http://www.w3.org/TR/2001/REC-SVG-20010904/DTD/svg10.dtd">
<svg version="1.0" xmlns="http://www.w3.org/2000/svg"
 width="96.000000pt" height="68.000000pt" viewBox="0 0 96.000000 68.000000"
 preserveAspectRatio="xMidYMid meet">
<metadata>
Created by potrace 1.16, written by Peter Selinger 2001-2019
</metadata>
<g transform="translate(0.000000,68.000000) scale(0.100000,-0.100000)"
fill="#000000" stroke="none">
<path d="M400 606 c0 -7 9 -25 20 -38 10 -14 16 -29 12 -32 -4 -4 -1 -6 7 -4
7 2 15 -2 18 -8 3 -8 -37 -14 -129 -19 -73 -4 -141 -11 -151 -14 -17 -6 -17
-9 -4 -20 19 -15 65 -18 135 -7 l52 8 0 -84 c0 -45 -7 -110 -16 -143 -22 -82
-26 -127 -15 -144 27 -41 57 55 71 228 5 73 7 137 4 143 -3 5 20 8 57 6 l64
-3 7 -40 c9 -52 9 -218 0 -270 l-7 -40 -45 4 -45 3 30 -23 c17 -13 34 -29 38
-36 13 -21 52 -15 65 10 8 14 13 91 15 212 l2 190 93 2 c115 2 134 7 103 29
-26 19 -58 20 -183 10 l-98 -8 0 23 c0 34 -11 46 -53 64 -44 18 -47 18 -47 1z"/>
<path d="M630 371 c0 -5 3 -11 8 -13 4 -1 30 -31 57 -66 51 -66 78 -76 83 -31
4 32 -37 75 -96 100 -50 22 -52 22 -52 10z"/>
<path d="M231 328 c-11 -24 -29 -58 -41 -75 -31 -46 -10 -41 42 10 75 74 84
87 68 97 -30 19 -49 10 -69 -32z"/>
</g>
</svg>
