<?xml version="1.0" standalone="no"?>
<!DOCTYPE svg PUBLIC "-//W3C//DTD SVG 20010904//EN"
 "http://www.w3.org/TR/2001/REC-SVG-20010904/DTD/svg10.dtd">
<svg version="1.0" xmlns="http://www.w3.org/2000/svg"
 width="90.000000pt" height="92.000000pt" viewBox="0 0 90.000000 92.000000"
 preserveAspectRatio="xMidYMid meet">
<metadata>
Created by potrace 1.16, written by Peter Selinger 2001-2019
</metadata>
<g transform="translate(0.000000,92.000000) scale(0.100000,-0.100000)"
fill="#000000" stroke="none">
<path d="M360 818 c0 -6 11 -31 25 -55 31 -51 34 -49 -96 -58 -86 -5 -97 -4
-103 11 -9 23 -17 12 -50 -68 -30 -72 -31 -101 -3 -106 13 -3 24 11 44 55 14
32 27 59 28 60 9 14 465 63 465 50 0 -3 -9 -26 -20 -51 -10 -25 -18 -46 -17
-46 39 9 142 50 145 58 6 19 -70 82 -98 82 -14 0 -68 -7 -120 -15 -117 -18
-111 -18 -104 0 4 8 4 25 0 38 -9 36 -96 78 -96 45z"/>
<path d="M489 596 c-2 -3 -56 -12 -119 -21 -63 -10 -117 -19 -120 -22 -10 -10
28 -23 68 -23 l43 0 -15 -29 c-18 -33 -76 -86 -105 -96 -24 -7 -28 -46 -7 -64
10 -8 21 -8 41 -1 15 6 45 14 66 19 43 10 49 3 49 -59 0 -34 -3 -38 -31 -44
-17 -3 -46 -6 -65 -6 -18 0 -35 -4 -39 -9 -8 -14 54 -28 103 -23 l42 4 0 -45
c0 -42 -2 -45 -32 -51 -18 -4 -82 -9 -141 -13 -59 -3 -110 -10 -113 -14 -2 -5
10 -16 27 -25 30 -15 41 -15 150 0 64 9 197 19 294 21 98 2 180 6 182 9 10 9
-10 28 -43 42 -26 11 -49 12 -101 5 -38 -6 -94 -13 -125 -16 l-58 -6 0 28 c0
61 8 70 65 77 87 10 106 23 61 44 -15 7 -37 7 -62 1 -22 -4 -42 -9 -46 -9 -5
0 -8 23 -8 50 0 31 -4 50 -12 50 -25 0 4 13 56 25 l54 13 21 -29 c12 -16 28
-29 36 -29 19 0 29 43 16 68 -11 20 -110 76 -119 67 -3 -2 2 -15 11 -29 15
-23 15 -24 -6 -30 -12 -3 -60 -8 -107 -11 -95 -7 -94 -9 -10 55 28 22 31 29
22 46 -10 20 -7 21 75 32 47 6 89 14 92 18 10 10 -31 34 -59 34 -15 0 -29 -2
-31 -4z"/>
</g>
</svg>
