<?xml version="1.0" standalone="no"?>
<!DOCTYPE svg PUBLIC "-//W3C//DTD SVG 20010904//EN"
 "http://www.w3.org/TR/2001/REC-SVG-20010904/DTD/svg10.dtd">
<svg version="1.0" xmlns="http://www.w3.org/2000/svg"
 width="96.000000pt" height="68.000000pt" viewBox="0 0 96.000000 68.000000"
 preserveAspectRatio="xMidYMid meet">
<metadata>
Created by potrace 1.16, written by Peter Selinger 2001-2019
</metadata>
<g transform="translate(0.000000,68.000000) scale(0.100000,-0.100000)"
fill="#000000" stroke="none">
<path d="M295 275 c-22 -8 -59 -14 -83 -14 -42 -1 -42 -1 -28 -23 8 -13 18
-40 21 -61 7 -38 26 -60 33 -39 2 8 27 12 64 12 54 0 59 2 53 19 -3 10 2 36
12 56 17 36 17 37 -2 51 -22 16 -17 16 -70 -1z m25 -55 c0 -34 -4 -41 -24 -46
-40 -10 -59 -1 -67 30 -5 17 -6 32 -4 35 4 3 52 14 88 20 4 0 7 -17 7 -39z"/>
</g>
</svg>
