<?xml version="1.0" standalone="no"?>
<!DOCTYPE svg PUBLIC "-//W3C//DTD SVG 20010904//EN"
 "http://www.w3.org/TR/2001/REC-SVG-20010904/DTD/svg10.dtd">
<svg version="1.0" xmlns="http://www.w3.org/2000/svg"
 width="96.000000pt" height="68.000000pt" viewBox="0 0 96.000000 68.000000"
 preserveAspectRatio="xMidYMid meet">
<metadata>
Created by potrace 1.16, written by Peter Selinger 2001-2019
</metadata>
<g transform="translate(0.000000,68.000000) scale(0.100000,-0.100000)"
fill="#000000" stroke="none">
<path d="M496 588 c4 -7 16 -26 27 -41 10 -16 18 -30 16 -31 -2 -2 -58 -8
-124 -15 -65 -6 -122 -14 -125 -17 -3 -3 3 -12 13 -19 15 -11 18 -26 16 -82
-3 -89 -45 -209 -99 -281 -44 -58 -46 -62 -26 -62 22 0 106 97 131 153 13 29
31 90 40 137 9 47 18 95 21 107 6 29 17 32 226 46 97 7 180 16 184 20 15 14
-17 31 -59 32 -23 0 -66 -4 -94 -8 -52 -8 -53 -7 -53 18 0 20 -8 29 -35 41
-43 18 -69 18 -59 2z"/>
<path d="M717 423 c-8 -8 -202 -33 -259 -33 l-47 0 6 -55 c3 -30 0 -104 -7
-165 -10 -87 -10 -114 -1 -123 10 -9 14 -8 22 5 10 17 36 22 195 33 l81 6 21
-35 c12 -20 28 -36 35 -36 29 0 37 48 31 175 -5 91 -4 132 6 155 8 18 9 35 4
40 -14 14 -81 40 -87 33z m14 -63 c4 -14 7 -74 8 -135 l1 -110 -103 -4 c-56
-2 -122 -5 -146 -5 l-43 -1 1 125 c1 68 3 126 5 127 1 2 25 7 52 12 54 10 64
4 64 -40 0 -23 -6 -27 -47 -36 l-48 -10 43 -2 c37 -1 42 -4 42 -25 0 -24 -16
-36 -51 -36 -16 0 -18 -3 -9 -19 5 -11 10 -30 10 -42 0 -17 4 -20 23 -15 12 3
41 6 65 6 30 0 42 4 42 15 0 8 10 24 22 35 19 18 21 22 8 31 -8 5 -32 8 -52 5
-25 -3 -38 0 -38 7 0 26 20 40 61 44 64 7 76 25 14 22 l-50 -3 3 32 c2 19 -1
32 -8 32 -6 0 -8 5 -5 10 4 6 33 10 68 8 56 -3 62 -5 68 -28z m-101 -157 c-1
-21 -21 -35 -57 -40 -34 -4 -41 -2 -45 15 -3 12 -3 23 0 26 8 9 102 7 102 -1z"/>
<path d="M160 417 c0 -4 14 -22 31 -42 22 -25 39 -35 60 -35 37 0 40 32 5 55
-25 16 -96 32 -96 22z"/>
<path d="M254 294 c-12 -8 -45 -23 -75 -33 -60 -21 -75 -47 -35 -57 21 -5 37
2 81 36 30 23 55 49 55 56 0 17 0 17 -26 -2z"/>
</g>
</svg>
