<?xml version="1.0" standalone="no"?>
<!DOCTYPE svg PUBLIC "-//W3C//DTD SVG 20010904//EN"
 "http://www.w3.org/TR/2001/REC-SVG-20010904/DTD/svg10.dtd">
<svg version="1.0" xmlns="http://www.w3.org/2000/svg"
 width="96.000000pt" height="68.000000pt" viewBox="0 0 96.000000 68.000000"
 preserveAspectRatio="xMidYMid meet">
<metadata>
Created by potrace 1.16, written by Peter Selinger 2001-2019
</metadata>
<g transform="translate(0.000000,68.000000) scale(0.100000,-0.100000)"
fill="#000000" stroke="none">
<path d="M285 610 c-3 -5 -1 -27 4 -47 6 -21 11 -61 11 -90 l0 -51 -60 -9
c-34 -4 -62 -12 -63 -18 -1 -6 26 -11 61 -13 l63 -3 -3 -37 c-3 -36 -6 -38
-95 -82 -51 -25 -92 -48 -93 -52 0 -4 11 -15 24 -23 27 -18 41 -13 121 45 22
16 41 25 43 21 1 -4 -1 -32 -5 -62 l-8 -54 -45 -5 -45 -5 53 -38 c30 -22 59
-37 67 -33 25 9 35 52 35 149 0 91 0 92 32 120 l33 29 -33 -6 c-32 -5 -33 -4
-30 22 2 21 9 28 33 32 41 7 40 34 -2 38 -39 4 -42 20 -18 98 8 27 15 50 15
50 0 4 -69 34 -78 34 -6 0 -14 -4 -17 -10z"/>
<path d="M555 583 c-8 -33 -60 -118 -89 -144 -27 -25 -5 -24 27 1 17 14 40 20
72 20 26 0 76 5 111 12 97 17 97 16 92 -167 -6 -180 -15 -210 -65 -202 -40 7
-40 3 -8 -39 28 -36 46 -36 78 -1 25 29 35 77 41 217 4 69 9 142 12 162 5 34
3 38 -27 53 -30 16 -37 16 -113 0 -45 -9 -94 -15 -109 -13 l-29 3 37 48 c30
39 34 51 25 62 -20 24 -47 18 -55 -12z"/>
<path d="M528 361 l4 -60 -49 -6 c-90 -12 -104 -25 -25 -22 l73 2 -2 -88 c-1
-48 1 -90 4 -94 4 -3 13 -3 22 0 12 5 15 25 15 97 0 64 4 90 13 92 39 4 56 6
96 7 39 1 42 3 30 17 -11 13 -25 15 -75 9 l-63 -6 -3 53 c-2 44 -6 53 -23 56
-18 3 -20 -2 -17 -57z"/>
<path d="M654 408 c-4 -7 -14 -23 -22 -35 -13 -22 -13 -22 18 -13 18 5 39 15
47 22 13 10 13 14 -3 25 -22 16 -31 16 -40 1z"/>
<path d="M440 362 c0 -5 9 -17 20 -27 26 -23 52 -6 30 20 -13 16 -50 21 -50 7z"/>
<path d="M610 241 c0 -11 71 -81 82 -81 16 0 21 31 7 45 -18 17 -89 46 -89 36z"/>
<path d="M426 194 c-21 -24 -36 -44 -32 -44 14 0 116 70 116 80 0 25 -48 5
-84 -36z"/>
</g>
</svg>
