<?xml version="1.0" standalone="no"?>
<!DOCTYPE svg PUBLIC "-//W3C//DTD SVG 20010904//EN"
 "http://www.w3.org/TR/2001/REC-SVG-20010904/DTD/svg10.dtd">
<svg version="1.0" xmlns="http://www.w3.org/2000/svg"
 width="96.000000pt" height="68.000000pt" viewBox="0 0 96.000000 68.000000"
 preserveAspectRatio="xMidYMid meet">
<metadata>
Created by potrace 1.16, written by Peter Selinger 2001-2019
</metadata>
<g transform="translate(0.000000,68.000000) scale(0.100000,-0.100000)"
fill="#000000" stroke="none">
<path d="M378 540 c4 -66 3 -70 -17 -70 -19 0 -21 6 -21 50 0 44 -3 52 -25 62
-34 15 -38 9 -26 -43 20 -83 27 -77 -117 -95 -28 -3 -49 -10 -46 -15 8 -13 78
-11 164 5 41 8 109 17 150 21 41 4 82 9 90 11 32 11 -15 24 -64 17 l-48 -6 3
64 c4 62 3 64 -21 67 -26 3 -26 3 -22 -68z"/>
</g>
</svg>
