<?xml version="1.0" standalone="no"?>
<!DOCTYPE svg PUBLIC "-//W3C//DTD SVG 20010904//EN"
 "http://www.w3.org/TR/2001/REC-SVG-20010904/DTD/svg10.dtd">
<svg version="1.0" xmlns="http://www.w3.org/2000/svg"
 width="96.000000pt" height="68.000000pt" viewBox="0 0 96.000000 68.000000"
 preserveAspectRatio="xMidYMid meet">
<metadata>
Created by potrace 1.16, written by Peter Selinger 2001-2019
</metadata>
<g transform="translate(0.000000,68.000000) scale(0.100000,-0.100000)"
fill="#000000" stroke="none">
<path d="M287 543 c-3 -5 -8 -22 -11 -39 -9 -42 -56 -115 -125 -193 -53 -60
-54 -63 -22 -47 18 10 53 36 77 58 l44 41 0 -79 c0 -44 -7 -108 -14 -144 -14
-65 -9 -101 15 -115 6 -4 15 -2 19 5 13 21 23 321 11 333 -17 17 -13 30 30 97
38 60 40 65 23 77 -20 14 -41 17 -47 6z"/>
</g>
</svg>
