<?xml version="1.0" standalone="no"?>
<!DOCTYPE svg PUBLIC "-//W3C//DTD SVG 20010904//EN"
 "http://www.w3.org/TR/2001/REC-SVG-20010904/DTD/svg10.dtd">
<svg version="1.0" xmlns="http://www.w3.org/2000/svg"
 width="96.000000pt" height="68.000000pt" viewBox="0 0 96.000000 68.000000"
 preserveAspectRatio="xMidYMid meet">
<metadata>
Created by potrace 1.16, written by Peter Selinger 2001-2019
</metadata>
<g transform="translate(0.000000,68.000000) scale(0.100000,-0.100000)"
fill="#000000" stroke="none">
<path d="M225 460 c-11 -5 -38 -9 -60 -9 l-40 -1 0 -135 c1 -99 4 -138 14
-147 11 -10 14 -10 18 0 7 18 89 16 97 -3 8 -21 43 -19 50 3 3 9 4 77 3 150
-2 105 -5 135 -17 142 -18 12 -38 12 -65 0z m43 -72 c3 -42 1 -48 -16 -48 -11
0 -34 -3 -51 -6 -31 -6 -31 -6 -31 34 0 51 21 74 64 70 29 -3 31 -5 34 -50z
m0 -125 c3 -52 3 -53 -25 -53 -15 0 -38 -3 -50 -6 -22 -6 -23 -4 -23 49 0 53
1 56 28 60 62 10 67 6 70 -50z"/>
</g>
</svg>
