<?xml version="1.0" standalone="no"?>
<!DOCTYPE svg PUBLIC "-//W3C//DTD SVG 20010904//EN"
 "http://www.w3.org/TR/2001/REC-SVG-20010904/DTD/svg10.dtd">
<svg version="1.0" xmlns="http://www.w3.org/2000/svg"
 width="96.000000pt" height="68.000000pt" viewBox="0 0 96.000000 68.000000"
 preserveAspectRatio="xMidYMid meet">
<metadata>
Created by potrace 1.16, written by Peter Selinger 2001-2019
</metadata>
<g transform="translate(0.000000,68.000000) scale(0.100000,-0.100000)"
fill="#000000" stroke="none">
<path d="M635 309 c-27 -5 -98 -10 -157 -12 l-106 -2 5 -90 c5 -101 8 -115 23
-115 6 0 10 35 10 89 l0 89 58 6 c31 3 96 8 145 12 l87 6 0 -78 c0 -94 -7
-109 -45 -100 l-27 7 22 -31 c46 -65 82 -25 99 115 10 75 9 81 -10 98 -23 19
-30 19 -104 6z"/>
</g>
</svg>
