<?xml version="1.0" standalone="no"?>
<!DOCTYPE svg PUBLIC "-//W3C//DTD SVG 20010904//EN"
 "http://www.w3.org/TR/2001/REC-SVG-20010904/DTD/svg10.dtd">
<svg version="1.0" xmlns="http://www.w3.org/2000/svg"
 width="90.000000pt" height="92.000000pt" viewBox="0 0 90.000000 92.000000"
 preserveAspectRatio="xMidYMid meet">
<metadata>
Created by potrace 1.16, written by Peter Selinger 2001-2019
</metadata>
<g transform="translate(0.000000,92.000000) scale(0.100000,-0.100000)"
fill="#000000" stroke="none">
<path d="M310 818 c0 -13 -13 -51 -30 -86 -36 -76 -18 -72 53 12 52 60 56 71
28 86 -32 17 -51 12 -51 -12z"/>
<path d="M610 820 c-41 -10 -101 -19 -132 -19 -62 -1 -67 -5 -43 -31 8 -9 22
-54 31 -101 9 -46 20 -89 26 -96 11 -14 -16 -64 -65 -120 -34 -39 -25 -42 23
-10 35 24 162 47 258 47 38 0 41 -2 47 -32 9 -45 -12 -230 -29 -273 -19 -45
-37 -51 -87 -32 -21 8 -39 14 -39 12 0 -12 85 -115 94 -115 22 0 56 32 76 70
14 27 23 76 30 162 6 68 15 139 20 158 6 19 10 41 10 47 0 13 -74 56 -82 48
-2 -3 -40 -9 -84 -15 -43 -6 -95 -13 -114 -15 l-35 -5 23 19 c12 11 22 24 22
29 0 6 -10 14 -22 18 l-23 7 25 7 c54 15 130 21 130 10 0 -17 29 -11 39 8 11
21 63 203 59 206 -57 41 -52 41 -158 16z m76 -60 l1 -35 -46 -1 c-25 0 -67 -4
-92 -8 -45 -8 -46 -7 -53 19 -4 15 -5 29 -2 32 7 7 148 32 171 30 16 -2 20
-10 21 -37z m-8 -87 c-3 -23 -10 -29 -52 -39 -28 -7 -64 -14 -80 -16 -28 -3
-31 0 -34 28 l-3 31 68 10 c108 16 105 16 101 -14z"/>
<path d="M120 767 c0 -21 58 -97 74 -97 20 0 29 35 16 60 -6 12 -27 28 -45 36
-42 17 -45 17 -45 1z"/>
<path d="M230 644 c-47 -12 -98 -23 -113 -23 -51 -1 -24 -26 34 -31 l54 -5 3
-37 3 -37 -60 -12 c-34 -6 -61 -15 -61 -20 0 -14 40 -21 80 -14 l40 7 0 -40 0
-39 -92 -20 c-96 -20 -118 -36 -72 -53 25 -10 56 -4 141 27 9 4 9 -4 1 -34
-15 -57 -43 -106 -93 -168 -49 -59 -48 -66 2 -36 51 32 110 115 134 190 l22
69 64 12 c38 8 63 17 63 25 0 18 -35 25 -76 13 -20 -5 -38 -7 -41 -4 -3 3 -2
21 1 40 7 35 12 39 74 51 17 4 32 11 32 16 0 13 -46 22 -74 15 -23 -6 -25 -4
-23 33 1 37 3 39 37 45 19 3 42 11 50 16 13 9 12 12 -4 25 -23 18 -19 18 -126
-11z"/>
<path d="M561 430 c-6 -21 -22 -52 -34 -67 -47 -59 -50 -63 -38 -63 6 0 32 19
56 41 l45 42 49 -42 c55 -46 66 -49 76 -24 8 22 -23 49 -76 65 -38 11 -39 12
-22 31 17 18 17 20 -6 38 -32 26 -36 25 -50 -21z"/>
<path d="M424 318 c8 -90 19 -108 65 -108 54 0 206 21 214 29 5 5 -2 17 -17
26 -21 14 -32 16 -50 7 -32 -14 -130 -25 -156 -17 -19 6 -21 11 -14 61 7 57
-4 84 -34 84 -12 0 -14 -13 -8 -82z"/>
</g>
</svg>
