<?xml version="1.0" standalone="no"?>
<!DOCTYPE svg PUBLIC "-//W3C//DTD SVG 20010904//EN"
 "http://www.w3.org/TR/2001/REC-SVG-20010904/DTD/svg10.dtd">
<svg version="1.0" xmlns="http://www.w3.org/2000/svg"
 width="96.000000pt" height="68.000000pt" viewBox="0 0 96.000000 68.000000"
 preserveAspectRatio="xMidYMid meet">
<metadata>
Created by potrace 1.16, written by Peter Selinger 2001-2019
</metadata>
<g transform="translate(0.000000,68.000000) scale(0.100000,-0.100000)"
fill="#000000" stroke="none">
<path d="M590 565 c-41 -6 -87 -10 -102 -9 -27 3 -27 2 -12 -21 8 -13 22 -47
29 -75 8 -29 16 -54 18 -57 3 -2 38 0 78 6 50 7 77 7 86 0 19 -17 28 -5 58 77
23 63 25 78 14 85 -18 11 -74 9 -169 -6z m110 -35 c0 -28 -3 -30 -32 -28 -18
1 -56 -2 -85 -6 -47 -7 -52 -6 -58 14 -4 12 -5 23 -3 25 4 3 123 22 156 24 18
1 22 -4 22 -29z m-10 -59 c0 -26 -5 -28 -78 -37 -52 -6 -63 -4 -68 10 -9 23
-7 24 66 34 36 5 68 10 73 11 4 0 7 -8 7 -18z"/>
</g>
</svg>
