<?xml version="1.0" standalone="no"?>
<!DOCTYPE svg PUBLIC "-//W3C//DTD SVG 20010904//EN"
 "http://www.w3.org/TR/2001/REC-SVG-20010904/DTD/svg10.dtd">
<svg version="1.0" xmlns="http://www.w3.org/2000/svg"
 width="96.000000pt" height="68.000000pt" viewBox="0 0 96.000000 68.000000"
 preserveAspectRatio="xMidYMid meet">
<metadata>
Created by potrace 1.16, written by Peter Selinger 2001-2019
</metadata>
<g transform="translate(0.000000,68.000000) scale(0.100000,-0.100000)"
fill="#000000" stroke="none">
<path d="M530 382 c0 -11 -18 -36 -40 -56 -44 -40 -39 -46 12 -17 24 14 63 20
146 25 l112 6 0 -73 c0 -40 -7 -97 -16 -126 l-15 -53 -45 4 c-24 2 -44 1 -44
-2 0 -4 16 -21 35 -40 33 -32 35 -33 59 -16 42 27 54 56 69 166 8 58 18 113
22 122 5 12 -1 21 -23 32 -23 12 -42 13 -93 6 -115 -16 -149 -18 -149 -10 0 4
8 11 17 14 19 8 9 21 -24 31 -18 5 -23 2 -23 -13z"/>
</g>
</svg>
