<?xml version="1.0" standalone="no"?>
<!DOCTYPE svg PUBLIC "-//W3C//DTD SVG 20010904//EN"
 "http://www.w3.org/TR/2001/REC-SVG-20010904/DTD/svg10.dtd">
<svg version="1.0" xmlns="http://www.w3.org/2000/svg"
 width="96.000000pt" height="68.000000pt" viewBox="0 0 96.000000 68.000000"
 preserveAspectRatio="xMidYMid meet">
<metadata>
Created by potrace 1.16, written by Peter Selinger 2001-2019
</metadata>
<g transform="translate(0.000000,68.000000) scale(0.100000,-0.100000)"
fill="#000000" stroke="none">
<path d="M233 589 c3 -13 9 -52 13 -85 l6 -62 -61 -8 c-34 -5 -63 -13 -64 -19
-1 -6 26 -11 61 -13 l63 -3 -3 -41 c-3 -40 -4 -41 -78 -74 -41 -18 -79 -35
-85 -38 -14 -7 25 -36 48 -36 11 0 41 16 68 35 l49 35 -6 -63 c-8 -87 -7 -87
-51 -81 l-38 6 49 -48 49 -48 18 23 c16 19 19 41 19 129 l0 106 33 27 c37 31
31 50 -8 25 l-26 -17 3 38 c3 37 4 38 51 47 63 11 65 36 2 36 -51 0 -55 10
-33 82 14 46 6 56 -47 65 -36 6 -38 5 -32 -18z"/>
<path d="M510 575 c0 -44 -48 -122 -129 -207 -19 -21 -32 -38 -27 -38 24 0
105 72 148 131 28 38 54 69 59 69 11 0 43 -33 108 -113 30 -37 63 -69 73 -73
21 -6 108 5 108 15 0 3 -35 23 -78 43 -75 37 -185 127 -207 173 -6 11 -21 21
-33 23 -18 3 -22 -1 -22 -23z"/>
<path d="M535 388 c-27 -6 -59 -14 -70 -18 -16 -7 -12 -9 18 -9 35 -1 37 -3
37 -34 0 -31 -2 -33 -37 -35 -89 -5 -137 -14 -120 -24 9 -5 44 -6 77 -2 73 8
75 8 74 -11 -1 -8 -2 -24 -3 -35 -1 -17 -8 -20 -51 -20 -45 0 -50 -2 -42 -17
6 -10 13 -36 16 -58 9 -50 23 -75 34 -58 5 8 41 13 101 14 58 1 94 6 95 13 2
6 9 27 15 46 19 53 18 63 -7 75 -16 9 -35 9 -67 2 -25 -6 -47 -8 -50 -5 -3 3
-2 18 1 35 l6 30 91 7 c50 3 93 9 96 12 14 14 -29 24 -79 17 -94 -11 -94 -11
-94 22 0 22 5 31 20 33 41 7 50 14 29 22 -24 10 -25 10 -90 -2z m88 -233 c-2
-21 -4 -40 -6 -41 -2 -2 -35 -6 -74 -10 l-71 -7 -11 39 c-6 21 -8 40 -6 42 6
6 121 18 150 16 17 -1 20 -7 18 -39z"/>
</g>
</svg>
