<?xml version="1.0" standalone="no"?>
<!DOCTYPE svg PUBLIC "-//W3C//DTD SVG 20010904//EN"
 "http://www.w3.org/TR/2001/REC-SVG-20010904/DTD/svg10.dtd">
<svg version="1.0" xmlns="http://www.w3.org/2000/svg"
 width="96.000000pt" height="68.000000pt" viewBox="0 0 96.000000 68.000000"
 preserveAspectRatio="xMidYMid meet">
<metadata>
Created by potrace 1.16, written by Peter Selinger 2001-2019
</metadata>
<g transform="translate(0.000000,68.000000) scale(0.100000,-0.100000)"
fill="#000000" stroke="none">
<path d="M500 505 c0 -3 18 -25 41 -49 l40 -45 -80 -7 c-45 -3 -81 -11 -81
-15 0 -12 153 -11 221 1 30 5 72 12 94 16 38 5 39 7 20 21 -19 14 -36 14 -112
-3 -32 -6 -33 -5 -33 24 0 26 -6 32 -40 46 -40 16 -70 21 -70 11z"/>
</g>
</svg>
