<?xml version="1.0" standalone="no"?>
<!DOCTYPE svg PUBLIC "-//W3C//DTD SVG 20010904//EN"
 "http://www.w3.org/TR/2001/REC-SVG-20010904/DTD/svg10.dtd">
<svg version="1.0" xmlns="http://www.w3.org/2000/svg"
 width="96.000000pt" height="68.000000pt" viewBox="0 0 96.000000 68.000000"
 preserveAspectRatio="xMidYMid meet">
<metadata>
Created by potrace 1.16, written by Peter Selinger 2001-2019
</metadata>
<g transform="translate(0.000000,68.000000) scale(0.100000,-0.100000)"
fill="#000000" stroke="none">
<path d="M589 547 c0 -1 -3 -22 -5 -47 -6 -59 -30 -133 -66 -199 -43 -83 -48
-87 -70 -59 -10 13 -20 37 -24 55 -3 17 -12 34 -20 37 -22 9 -17 -23 15 -86
l29 -56 -37 -34 c-20 -19 -49 -44 -65 -56 -24 -19 -26 -22 -9 -22 11 0 46 19
78 42 l58 42 48 -17 c70 -25 204 -23 248 4 19 12 30 24 25 29 -15 15 -134 90
-134 84 0 -3 7 -19 16 -36 9 -18 12 -34 7 -39 -16 -16 -108 -22 -147 -9 l-37
12 20 31 c68 111 137 283 121 302 -9 11 -48 27 -51 22z"/>
<path d="M229 522 c28 -53 93 -69 99 -25 4 26 -28 43 -79 43 -25 0 -28 -3 -20
-18z"/>
<path d="M420 454 c1 -19 57 -77 68 -70 16 10 15 41 -1 54 -17 14 -67 26 -67
16z"/>
<path d="M130 401 c0 -19 65 -71 85 -69 34 5 31 44 -4 62 -33 18 -81 21 -81 7z"/>
<path d="M720 356 c69 -49 93 -54 98 -20 3 24 -46 49 -118 59 l-45 7 65 -46z"/>
<path d="M300 288 c-24 -49 -25 -64 -6 -71 20 -8 37 16 43 61 8 56 -12 61 -37
10z"/>
<path d="M228 282 c-10 -16 -38 -52 -63 -80 l-46 -51 15 -35 c8 -20 21 -36 28
-36 7 0 30 45 52 104 39 105 45 151 14 98z"/>
</g>
</svg>
