<?xml version="1.0" standalone="no"?>
<!DOCTYPE svg PUBLIC "-//W3C//DTD SVG 20010904//EN"
 "http://www.w3.org/TR/2001/REC-SVG-20010904/DTD/svg10.dtd">
<svg version="1.0" xmlns="http://www.w3.org/2000/svg"
 width="90.000000pt" height="92.000000pt" viewBox="0 0 90.000000 92.000000"
 preserveAspectRatio="xMidYMid meet">
<metadata>
Created by potrace 1.16, written by Peter Selinger 2001-2019
</metadata>
<g transform="translate(0.000000,92.000000) scale(0.100000,-0.100000)"
fill="#000000" stroke="none">
<path d="M638 810 c-15 -4 -80 -16 -145 -25 -65 -9 -120 -19 -123 -22 -10 -9
27 -23 63 -23 l37 0 0 -49 0 -50 -54 -6 c-30 -4 -59 -4 -65 0 -21 13 -29 -5
-15 -34 8 -16 19 -67 25 -114 12 -89 23 -121 37 -101 10 16 297 30 306 15 15
-24 38 6 61 83 14 45 32 91 40 102 22 29 18 50 -12 74 -28 22 -41 22 -152 3
-29 -5 -32 -3 -27 13 3 11 7 34 8 52 2 33 6 36 70 47 42 6 58 23 37 36 -17 11
-54 10 -91 -1z m-63 -110 c0 -42 -2 -45 -27 -48 -26 -3 -28 -1 -28 35 0 22 -6
45 -12 52 -11 10 -5 12 27 9 l40 -3 0 -45z m159 -69 c3 -5 -1 -48 -10 -96 -15
-78 -19 -86 -36 -82 -11 3 -76 -1 -145 -10 -69 -8 -129 -11 -133 -6 -4 4 -10
42 -13 84 l-7 76 37 6 c20 4 39 4 42 1 3 -2 -5 -27 -16 -54 -21 -48 -21 -49
-2 -39 24 12 59 67 59 92 0 10 8 17 19 17 11 0 26 3 34 6 12 4 14 -3 10 -39
-5 -38 -2 -47 18 -61 43 -30 119 -16 105 19 -5 14 -14 16 -46 11 l-40 -6 0 39
c0 37 2 40 33 44 61 7 86 7 91 -2z"/>
<path d="M135 790 c-4 -6 -1 -18 7 -27 9 -11 13 -47 13 -117 l0 -101 -58 -9
c-73 -12 -69 -30 7 -34 l57 -3 -3 -86 -3 -86 -80 -27 -80 -27 29 -26 c16 -15
33 -27 38 -27 4 0 39 20 76 43 37 24 93 61 125 81 33 21 57 40 54 42 -2 3 -27
-4 -56 -15 l-51 -21 0 79 0 80 56 16 c50 14 55 18 42 31 -16 17 -41 19 -75 9
-21 -7 -23 -4 -22 31 0 44 13 121 24 146 12 30 -83 76 -100 48z"/>
<path d="M505 368 c24 -76 24 -75 -59 -83 -63 -6 -75 -10 -65 -21 8 -9 33 -14
75 -14 l64 0 0 -44 0 -44 -67 -7 c-38 -4 -95 -10 -128 -14 l-60 -7 28 -18 c27
-18 35 -18 120 -7 51 7 172 15 270 18 124 4 177 10 177 18 0 17 -68 46 -93 40
-12 -3 -61 -9 -109 -13 l-88 -8 0 47 0 46 82 11 c45 7 84 15 87 18 3 3 -3 12
-14 20 -19 14 -74 13 -127 -2 -15 -4 -18 1 -18 30 0 38 -20 56 -61 56 -18 0
-20 -4 -14 -22z"/>
</g>
</svg>
