<?xml version="1.0" standalone="no"?>
<!DOCTYPE svg PUBLIC "-//W3C//DTD SVG 20010904//EN"
 "http://www.w3.org/TR/2001/REC-SVG-20010904/DTD/svg10.dtd">
<svg version="1.0" xmlns="http://www.w3.org/2000/svg"
 width="96.000000pt" height="68.000000pt" viewBox="0 0 96.000000 68.000000"
 preserveAspectRatio="xMidYMid meet">
<metadata>
Created by potrace 1.16, written by Peter Selinger 2001-2019
</metadata>
<g transform="translate(0.000000,68.000000) scale(0.100000,-0.100000)"
fill="#000000" stroke="none">
<path d="M249 588 c0 -2 -2 -14 -5 -28 -10 -59 -49 -129 -117 -212 -46 -57
-36 -62 23 -13 23 19 53 35 66 35 21 0 24 -5 24 -35 0 -31 -3 -35 -27 -36 -16
0 -37 -4 -48 -9 -22 -9 -18 -10 45 -13 l35 -2 3 -56 c3 -65 -2 -69 -96 -69
-58 0 -66 -14 -21 -39 23 -12 34 -10 119 23 149 58 152 60 45 43 -13 -3 -18
38 -10 79 5 30 10 35 45 40 52 8 51 24 0 24 -38 0 -40 2 -40 30 0 24 4 30 23
30 12 0 29 4 37 10 25 16 -13 23 -57 11 -21 -6 -48 -11 -60 -11 -21 0 -20 2
12 56 19 31 36 61 38 67 2 6 19 -1 39 -16 39 -30 68 -35 68 -12 0 15 -49 45
-75 45 -8 0 -15 8 -15 18 0 21 -18 42 -37 42 -7 0 -13 -1 -14 -2z"/>
<path d="M329 243 c-7 -16 -15 -32 -17 -36 -2 -5 15 1 38 13 34 17 39 24 30
36 -19 21 -35 17 -51 -13z"/>
<path d="M150 235 c0 -17 35 -55 51 -55 25 0 24 15 -1 40 -18 18 -50 28 -50
15z"/>
</g>
</svg>
