<?xml version="1.0" standalone="no"?>
<!DOCTYPE svg PUBLIC "-//W3C//DTD SVG 20010904//EN"
 "http://www.w3.org/TR/2001/REC-SVG-20010904/DTD/svg10.dtd">
<svg version="1.0" xmlns="http://www.w3.org/2000/svg"
 width="96.000000pt" height="68.000000pt" viewBox="0 0 96.000000 68.000000"
 preserveAspectRatio="xMidYMid meet">
<metadata>
Created by potrace 1.16, written by Peter Selinger 2001-2019
</metadata>
<g transform="translate(0.000000,68.000000) scale(0.100000,-0.100000)"
fill="#000000" stroke="none">
<path d="M240 554 c39 -52 90 -72 90 -35 0 25 -17 38 -65 47 -38 7 -39 6 -25
-12z"/>
<path d="M176 398 c50 -60 84 -73 84 -33 0 27 -41 55 -81 55 -22 0 -22 0 -3
-22z"/>
<path d="M269 261 c-36 -36 -73 -72 -82 -79 -16 -12 -16 -15 -1 -43 8 -17 21
-28 27 -26 15 5 133 205 125 211 -2 2 -32 -27 -69 -63z"/>
</g>
</svg>
