<?xml version="1.0" standalone="no"?>
<!DOCTYPE svg PUBLIC "-//W3C//DTD SVG 20010904//EN"
 "http://www.w3.org/TR/2001/REC-SVG-20010904/DTD/svg10.dtd">
<svg version="1.0" xmlns="http://www.w3.org/2000/svg"
 width="96.000000pt" height="68.000000pt" viewBox="0 0 96.000000 68.000000"
 preserveAspectRatio="xMidYMid meet">
<metadata>
Created by potrace 1.16, written by Peter Selinger 2001-2019
</metadata>
<g transform="translate(0.000000,68.000000) scale(0.100000,-0.100000)"
fill="#000000" stroke="none">
<path d="M566 618 c-3 -7 -7 -24 -10 -38 -3 -14 -21 -51 -40 -82 -19 -32 -31
-58 -27 -58 5 0 28 17 52 38 39 34 53 40 127 50 89 13 106 18 97 33 -9 13 -51
11 -112 -5 -29 -8 -53 -12 -53 -10 0 3 7 15 15 28 14 22 14 25 0 40 -20 19
-44 21 -49 4z"/>
<path d="M310 608 c0 -26 -50 -114 -85 -152 -20 -21 -34 -41 -31 -44 7 -7 83
46 105 73 13 17 32 23 90 29 78 8 101 14 101 26 0 15 -40 17 -95 5 l-56 -14
17 27 c16 25 16 26 -6 44 -26 21 -40 23 -40 6z"/>
<path d="M610 491 c0 -13 68 -71 84 -71 16 0 29 27 20 42 -11 18 -104 44 -104
29z"/>
<path d="M367 448 c26 -26 35 -30 45 -20 20 20 -4 47 -43 50 l-34 3 32 -33z"/>
</g>
</svg>
