<?xml version="1.0" standalone="no"?>
<!DOCTYPE svg PUBLIC "-//W3C//DTD SVG 20010904//EN"
 "http://www.w3.org/TR/2001/REC-SVG-20010904/DTD/svg10.dtd">
<svg version="1.0" xmlns="http://www.w3.org/2000/svg"
 width="90.000000pt" height="92.000000pt" viewBox="0 0 90.000000 92.000000"
 preserveAspectRatio="xMidYMid meet">
<metadata>
Created by potrace 1.16, written by Peter Selinger 2001-2019
</metadata>
<g transform="translate(0.000000,92.000000) scale(0.100000,-0.100000)"
fill="#000000" stroke="none">
<path d="M542 799 c-52 -19 -105 -25 -147 -18 -16 3 -19 -1 -17 -21 23 -184
24 -230 13 -403 -15 -239 -16 -227 6 -248 17 -17 20 -16 86 57 37 41 67 79 67
85 0 6 -25 -4 -55 -21 -68 -39 -70 -36 -61 98 3 53 6 116 6 138 l0 41 61 7
c41 5 65 3 75 -5 27 -22 42 -1 63 90 11 50 27 107 36 127 18 43 10 57 -43 80
-19 8 -35 14 -36 13 0 0 -25 -9 -54 -20z m58 -80 c0 -46 -2 -50 -20 -44 -12 4
-43 1 -70 -6 -27 -7 -52 -10 -55 -7 -3 3 -3 24 1 46 6 38 8 41 53 50 90 19 91
18 91 -39z m-10 -93 c0 -7 -3 -28 -6 -45 -5 -26 -11 -31 -33 -29 -14 0 -44 -2
-66 -6 l-41 -7 4 40 c4 38 6 40 50 49 69 14 92 14 92 -2z"/>
<path d="M215 774 c-37 -17 -59 -22 -84 -17 -34 6 -34 5 -25 -23 16 -53 9
-390 -10 -486 -15 -74 -16 -90 -4 -114 7 -15 18 -29 25 -31 24 -8 34 73 42
342 5 152 11 278 13 279 1 2 20 6 41 10 43 8 44 4 20 -64 -16 -46 -16 -49 5
-98 12 -28 22 -65 22 -82 0 -30 -1 -31 -37 -24 l-38 7 30 -24 c68 -55 64 -53
85 -34 29 26 24 61 -15 135 -19 35 -35 71 -35 80 0 8 20 38 45 67 25 28 45 56
45 63 0 9 -61 42 -72 39 -2 0 -25 -11 -53 -25z"/>
<path d="M645 459 c-16 -28 -38 -58 -49 -67 -17 -16 -20 -15 -62 31 -29 33
-44 43 -44 32 0 -21 118 -193 175 -254 l40 -44 77 6 c42 3 82 8 88 12 7 4 -29
28 -87 56 -54 26 -120 68 -146 91 l-49 43 71 38 c39 21 73 43 77 48 7 12 -34
59 -50 59 -6 0 -24 -23 -41 -51z"/>
</g>
</svg>
