<?xml version="1.0" standalone="no"?>
<!DOCTYPE svg PUBLIC "-//W3C//DTD SVG 20010904//EN"
 "http://www.w3.org/TR/2001/REC-SVG-20010904/DTD/svg10.dtd">
<svg version="1.0" xmlns="http://www.w3.org/2000/svg"
 width="96.000000pt" height="68.000000pt" viewBox="0 0 96.000000 68.000000"
 preserveAspectRatio="xMidYMid meet">
<metadata>
Created by potrace 1.16, written by Peter Selinger 2001-2019
</metadata>
<g transform="translate(0.000000,68.000000) scale(0.100000,-0.100000)"
fill="#000000" stroke="none">
<path d="M510 564 c-33 -9 -72 -13 -97 -9 l-43 6 10 -26 c13 -33 14 -362 2
-395 -10 -27 4 -70 22 -70 13 1 116 92 116 103 0 4 -12 1 -28 -7 -64 -33 -66
-31 -63 74 3 135 -1 130 82 126 38 -1 69 -2 69 -1 0 0 13 39 30 85 16 47 30
90 30 96 0 12 -43 34 -63 33 -7 0 -37 -7 -67 -15z m58 -43 c5 -32 -4 -38 -70
-46 -56 -7 -58 -7 -58 16 0 34 11 47 45 52 59 9 80 4 83 -22z m-8 -73 c-1 -47
-11 -56 -66 -60 l-55 -3 3 30 c3 26 8 31 38 36 59 11 80 10 80 -3z"/>
<path d="M232 550 c-27 -12 -53 -18 -68 -14 -22 6 -24 4 -18 -27 3 -19 7 -38
8 -44 7 -23 -13 -293 -23 -319 -9 -23 -8 -33 5 -53 10 -17 19 -22 26 -15 12
12 27 182 29 329 l2 102 29 6 c38 9 43 2 29 -34 -11 -25 -10 -35 8 -70 25 -47
27 -81 6 -81 -23 0 -18 -15 11 -31 23 -12 27 -12 40 6 17 22 10 48 -22 92 -13
17 -24 37 -24 43 0 6 19 31 42 56 26 28 38 48 32 54 -20 20 -69 20 -112 0z"/>
<path d="M604 323 c-27 -37 -43 -53 -54 -53 -3 0 -20 14 -37 31 -48 44 -40 12
10 -42 23 -25 56 -61 73 -81 54 -61 74 -70 143 -62 34 3 61 10 61 14 0 5 -24
16 -52 25 -42 14 -152 71 -178 92 -8 7 43 41 82 54 42 13 43 16 24 42 -20 26
-41 21 -72 -20z"/>
</g>
</svg>
