<?xml version="1.0" standalone="no"?>
<!DOCTYPE svg PUBLIC "-//W3C//DTD SVG 20010904//EN"
 "http://www.w3.org/TR/2001/REC-SVG-20010904/DTD/svg10.dtd">
<svg version="1.0" xmlns="http://www.w3.org/2000/svg"
 width="90.000000pt" height="92.000000pt" viewBox="0 0 90.000000 92.000000"
 preserveAspectRatio="xMidYMid meet">
<metadata>
Created by potrace 1.16, written by Peter Selinger 2001-2019
</metadata>
<g transform="translate(0.000000,92.000000) scale(0.100000,-0.100000)"
fill="#000000" stroke="none">
<path d="M385 853 c10 -16 28 -40 42 -54 l23 -26 -142 -16 c-79 -10 -156 -18
-172 -20 -40 -3 -42 -19 -6 -40 29 -18 33 -18 113 2 115 28 260 43 410 43 101
0 127 3 127 14 0 7 -12 21 -26 30 -23 15 -37 16 -132 6 -139 -15 -132 -16
-132 16 0 15 -4 32 -8 39 -10 16 -57 33 -89 33 -25 0 -25 0 -8 -27z"/>
<path d="M425 675 c-60 -13 -122 -21 -137 -18 -29 6 -39 -10 -14 -20 8 -3 20
-31 27 -61 7 -31 18 -61 26 -67 8 -7 13 -8 13 -1 0 5 54 15 120 22 95 10 118
16 109 26 -8 9 -1 23 25 52 20 22 36 42 36 45 0 9 -67 47 -81 46 -8 -1 -63
-11 -124 -24z m92 -23 c15 -10 5 -60 -16 -71 -9 -5 -38 -12 -66 -16 -27 -3
-60 -8 -72 -11 -20 -4 -23 0 -23 30 0 42 3 43 83 61 75 16 79 17 94 7z"/>
<path d="M525 494 c-69 -19 -221 -44 -272 -44 -50 0 -58 -20 -17 -38 21 -10
49 -8 151 13 133 26 173 30 173 17 0 -4 -17 -25 -38 -45 -33 -32 -42 -36 -70
-31 l-32 7 15 -29 c15 -30 19 -111 9 -176 -6 -33 -10 -38 -35 -38 -15 0 -39 4
-53 10 -38 14 -30 1 35 -59 49 -45 61 -52 74 -41 24 20 35 79 35 196 l0 111
93 43 c111 52 103 46 87 65 -35 42 -92 57 -155 39z"/>
</g>
</svg>
