<?xml version="1.0" standalone="no"?>
<!DOCTYPE svg PUBLIC "-//W3C//DTD SVG 20010904//EN"
 "http://www.w3.org/TR/2001/REC-SVG-20010904/DTD/svg10.dtd">
<svg version="1.0" xmlns="http://www.w3.org/2000/svg"
 width="96.000000pt" height="68.000000pt" viewBox="0 0 96.000000 68.000000"
 preserveAspectRatio="xMidYMid meet">
<metadata>
Created by potrace 1.16, written by Peter Selinger 2001-2019
</metadata>
<g transform="translate(0.000000,68.000000) scale(0.100000,-0.100000)"
fill="#000000" stroke="none">
<path d="M482 571 c-14 -45 -72 -113 -141 -167 -28 -21 -49 -40 -46 -42 11
-11 131 68 180 118 l55 59 33 -27 c17 -15 54 -47 80 -72 60 -56 70 -60 132
-53 48 5 88 23 52 23 -58 0 -287 129 -287 162 0 14 -27 38 -43 38 -2 0 -9 -17
-15 -39z"/>
</g>
</svg>
