<?xml version="1.0" standalone="no"?>
<!DOCTYPE svg PUBLIC "-//W3C//DTD SVG 20010904//EN"
 "http://www.w3.org/TR/2001/REC-SVG-20010904/DTD/svg10.dtd">
<svg version="1.0" xmlns="http://www.w3.org/2000/svg"
 width="96.000000pt" height="68.000000pt" viewBox="0 0 96.000000 68.000000"
 preserveAspectRatio="xMidYMid meet">
<metadata>
Created by potrace 1.16, written by Peter Selinger 2001-2019
</metadata>
<g transform="translate(0.000000,68.000000) scale(0.100000,-0.100000)"
fill="#000000" stroke="none">
<path d="M453 413 l2 -48 -45 -3 c-72 -4 -80 -16 -15 -22 l60 -5 0 -40 0 -40
-70 -6 c-38 -4 -105 -7 -147 -8 -81 -1 -106 -13 -65 -32 19 -9 51 -7 135 5
168 24 152 34 152 -88 0 -58 4 -107 9 -110 15 -10 31 44 31 107 0 111 -9 104
156 112 79 4 144 11 144 15 0 4 -14 13 -31 20 -25 11 -51 11 -133 2 -135 -16
-126 -18 -126 27 0 43 -3 41 98 56 23 4 42 10 42 15 0 14 -44 19 -85 10 -57
-13 -57 -14 -50 24 6 28 3 36 -13 45 -41 22 -50 14 -49 -36z"/>
</g>
</svg>
