<?xml version="1.0" standalone="no"?>
<!DOCTYPE svg PUBLIC "-//W3C//DTD SVG 20010904//EN"
 "http://www.w3.org/TR/2001/REC-SVG-20010904/DTD/svg10.dtd">
<svg version="1.0" xmlns="http://www.w3.org/2000/svg"
 width="96.000000pt" height="68.000000pt" viewBox="0 0 96.000000 68.000000"
 preserveAspectRatio="xMidYMid meet">
<metadata>
Created by potrace 1.16, written by Peter Selinger 2001-2019
</metadata>
<g transform="translate(0.000000,68.000000) scale(0.100000,-0.100000)"
fill="#000000" stroke="none">
<path d="M563 559 c-17 -5 -71 -15 -120 -22 l-88 -12 45 -27 c25 -14 60 -42
78 -61 l34 -35 -35 -26 c-19 -14 -65 -37 -103 -51 -55 -19 -63 -24 -38 -25 35
0 130 30 173 56 30 17 30 17 84 -24 60 -47 98 -52 199 -31 l53 12 -89 22 c-49
13 -110 33 -137 45 l-47 23 26 41 c14 22 34 50 44 62 21 23 24 54 6 54 -7 0
-22 2 -33 4 -11 3 -34 0 -52 -5z m17 -39 c0 -14 -39 -90 -46 -90 -10 0 -95 73
-90 78 18 17 136 28 136 12z"/>
</g>
</svg>
