<?xml version="1.0" standalone="no"?>
<!DOCTYPE svg PUBLIC "-//W3C//DTD SVG 20010904//EN"
 "http://www.w3.org/TR/2001/REC-SVG-20010904/DTD/svg10.dtd">
<svg version="1.0" xmlns="http://www.w3.org/2000/svg"
 width="96.000000pt" height="68.000000pt" viewBox="0 0 96.000000 68.000000"
 preserveAspectRatio="xMidYMid meet">
<metadata>
Created by potrace 1.16, written by Peter Selinger 2001-2019
</metadata>
<g transform="translate(0.000000,68.000000) scale(0.100000,-0.100000)"
fill="#000000" stroke="none">
<path d="M493 312 c-10 -6 -10 -15 -1 -40 7 -17 10 -34 6 -37 -3 -3 -28 -8
-56 -12 -64 -7 -58 -23 9 -23 l49 0 0 -40 0 -40 -47 -1 c-27 0 -68 -4 -93 -8
-44 -7 -44 -8 -19 -19 18 -7 49 -8 95 -2 38 5 129 9 202 10 83 0 132 4 132 10
0 21 -53 30 -136 24 l-84 -7 0 41 0 40 60 7 c33 4 62 11 65 15 8 13 -35 20
-83 13 l-45 -6 6 32 c6 28 3 33 -19 41 -30 12 -26 12 -41 2z"/>
</g>
</svg>
