<?xml version="1.0" standalone="no"?>
<!DOCTYPE svg PUBLIC "-//W3C//DTD SVG 20010904//EN"
 "http://www.w3.org/TR/2001/REC-SVG-20010904/DTD/svg10.dtd">
<svg version="1.0" xmlns="http://www.w3.org/2000/svg"
 width="96.000000pt" height="68.000000pt" viewBox="0 0 96.000000 68.000000"
 preserveAspectRatio="xMidYMid meet">
<metadata>
Created by potrace 1.16, written by Peter Selinger 2001-2019
</metadata>
<g transform="translate(0.000000,68.000000) scale(0.100000,-0.100000)"
fill="#000000" stroke="none">
<path d="M216 573 c13 -41 10 -328 -4 -405 -14 -74 -3 -118 29 -118 24 0 27
13 34 202 l7 168 25 -20 c36 -28 63 -26 63 5 0 20 -7 26 -41 36 -49 15 -53 23
-40 80 10 39 8 46 -10 62 -12 9 -32 17 -46 17 -23 0 -24 -3 -17 -27z"/>
<path d="M592 563 c-7 -3 -61 -13 -120 -22 l-107 -17 40 -26 c22 -14 55 -42
74 -62 l34 -35 -24 -20 c-13 -11 -58 -34 -99 -50 -41 -17 -69 -30 -61 -31 28
0 137 32 169 51 18 10 37 19 42 19 4 0 32 -19 61 -41 l52 -42 80 6 c89 7 118
21 65 32 -59 12 -162 45 -195 62 l-31 17 35 55 c20 31 40 58 44 59 18 7 8 33
-17 42 -14 6 -26 10 -27 9 -1 0 -8 -3 -15 -6z m-17 -60 c-7 -29 -34 -73 -44
-73 -13 0 -92 72 -86 78 8 9 119 30 128 25 5 -3 6 -16 2 -30z"/>
<path d="M123 371 c-29 -60 -30 -91 -4 -91 23 0 39 19 51 61 11 37 3 79 -14
79 -6 -1 -21 -22 -33 -49z"/>
<path d="M484 309 c-3 -6 -1 -16 5 -22 16 -16 13 -54 -5 -61 -9 -3 -31 -6 -50
-6 -19 0 -34 -4 -34 -10 0 -5 23 -10 50 -10 l50 0 0 -39 0 -38 -92 -8 c-62 -4
-87 -10 -76 -16 19 -10 438 1 438 12 0 20 -78 31 -148 22 l-72 -9 0 42 0 42
60 7 c33 4 60 10 60 15 0 13 -43 20 -84 13 l-39 -6 6 32 c6 28 3 33 -19 41
-32 13 -41 13 -50 -1z"/>
</g>
</svg>
