<?xml version="1.0" standalone="no"?>
<!DOCTYPE svg PUBLIC "-//W3C//DTD SVG 20010904//EN"
 "http://www.w3.org/TR/2001/REC-SVG-20010904/DTD/svg10.dtd">
<svg version="1.0" xmlns="http://www.w3.org/2000/svg"
 width="96.000000pt" height="68.000000pt" viewBox="0 0 96.000000 68.000000"
 preserveAspectRatio="xMidYMid meet">
<metadata>
Created by potrace 1.16, written by Peter Selinger 2001-2019
</metadata>
<g transform="translate(0.000000,68.000000) scale(0.100000,-0.100000)"
fill="#000000" stroke="none">
<path d="M520 563 c1 -15 2 -43 1 -60 -1 -31 -3 -33 -35 -33 -19 0 -38 -4 -41
-10 -4 -6 10 -10 34 -10 47 0 55 -10 47 -55 l-7 -33 -84 -7 c-47 -4 -85 -12
-85 -18 0 -8 149 -4 178 6 4 1 9 -3 12 -8 5 -10 -115 -107 -155 -126 -17 -8
-17 -9 5 -4 14 3 36 8 49 12 l24 6 -6 -91 c-7 -94 3 -123 28 -89 9 13 28 17
73 17 51 0 63 -3 72 -20 6 -11 17 -20 24 -20 30 0 41 33 43 130 4 126 1 128
-110 112 -44 -6 -82 -11 -83 -9 -2 1 25 23 59 49 61 45 64 46 160 53 53 4 97
11 97 16 0 15 -42 21 -103 14 l-62 -7 20 23 c11 13 34 39 52 56 38 38 41 58
11 74 -18 10 -24 8 -35 -7 -7 -10 -13 -24 -13 -31 0 -7 -4 -13 -10 -13 -5 0
-10 -4 -10 -10 0 -5 -10 -22 -22 -36 -60 -70 -89 -83 -84 -36 2 15 4 35 5 45
1 12 9 17 30 17 16 0 36 3 45 6 30 12 16 24 -28 24 l-45 0 -3 48 c-3 41 -6 47
-26 50 -20 3 -23 0 -22 -25z m108 -319 c29 -8 33 -64 3 -64 -10 0 -45 -3 -78
-6 l-59 -6 0 31 c0 28 3 31 35 37 20 3 43 7 51 9 8 1 17 3 20 4 3 0 15 -2 28
-5z m20 -149 c-2 -1 -38 -5 -81 -9 l-78 -6 3 35 c2 33 4 35 38 36 19 0 53 3
75 7 40 7 40 7 43 -26 2 -19 2 -35 0 -37z"/>
<path d="M240 504 c-19 -7 -53 -13 -75 -13 l-40 -1 0 -163 c0 -108 5 -169 13
-182 8 -14 14 -17 20 -8 4 7 27 15 50 19 37 6 46 3 68 -17 25 -24 26 -24 40
-5 16 23 16 24 16 215 0 141 -1 145 -24 157 -27 15 -23 15 -68 -2z m38 -76 c2
-26 -1 -38 -10 -38 -7 0 -30 -3 -50 -6 l-38 -7 0 41 c0 44 10 51 65 49 27 -2
30 -6 33 -39z m2 -103 c0 -33 -2 -35 -34 -35 -19 0 -41 -3 -50 -6 -13 -5 -16
1 -16 29 0 35 1 36 43 40 23 2 45 4 50 5 4 1 7 -14 7 -33z m2 -100 c4 -39 2
-41 -65 -44 l-49 -2 7 33 c10 47 12 48 59 48 42 0 44 -1 48 -35z"/>
</g>
</svg>
