<?xml version="1.0" standalone="no"?>
<!DOCTYPE svg PUBLIC "-//W3C//DTD SVG 20010904//EN"
 "http://www.w3.org/TR/2001/REC-SVG-20010904/DTD/svg10.dtd">
<svg version="1.0" xmlns="http://www.w3.org/2000/svg"
 width="96.000000pt" height="68.000000pt" viewBox="0 0 96.000000 68.000000"
 preserveAspectRatio="xMidYMid meet">
<metadata>
Created by potrace 1.16, written by Peter Selinger 2001-2019
</metadata>
<g transform="translate(0.000000,68.000000) scale(0.100000,-0.100000)"
fill="#000000" stroke="none">
<path d="M518 530 c4 -58 3 -60 -21 -60 -14 0 -34 -3 -44 -7 -13 -6 -6 -9 27
-13 44 -5 45 -6 48 -42 5 -54 28 -49 36 7 7 41 10 45 36 45 36 0 60 9 60 22 0
7 -18 9 -46 5 l-47 -5 6 48 c6 50 -1 60 -41 60 -14 0 -16 -9 -14 -60z"/>
</g>
</svg>
