<?xml version="1.0" standalone="no"?>
<!DOCTYPE svg PUBLIC "-//W3C//DTD SVG 20010904//EN"
 "http://www.w3.org/TR/2001/REC-SVG-20010904/DTD/svg10.dtd">
<svg version="1.0" xmlns="http://www.w3.org/2000/svg"
 width="96.000000pt" height="68.000000pt" viewBox="0 0 96.000000 68.000000"
 preserveAspectRatio="xMidYMid meet">
<metadata>
Created by potrace 1.16, written by Peter Selinger 2001-2019
</metadata>
<g transform="translate(0.000000,68.000000) scale(0.100000,-0.100000)"
fill="#000000" stroke="none">
<path d="M591 394 c11 -32 13 -30 -31 -42 -25 -7 -29 -10 -12 -11 30 -1 28 -9
-15 -53 -43 -44 -34 -49 19 -13 46 31 52 31 45 -2 -6 -33 1 -53 19 -53 10 0
14 12 14 40 0 22 3 40 6 40 4 0 22 -13 41 -30 29 -26 42 -30 88 -30 30 0 55 3
55 8 0 4 -26 15 -58 25 -76 24 -128 57 -110 68 7 5 27 9 45 9 17 0 34 4 38 9
9 15 -27 22 -62 12 -35 -10 -44 -6 -36 16 7 17 -13 33 -39 33 -15 0 -16 -4 -7
-26z"/>
</g>
</svg>
