<?xml version="1.0" standalone="no"?>
<!DOCTYPE svg PUBLIC "-//W3C//DTD SVG 20010904//EN"
 "http://www.w3.org/TR/2001/REC-SVG-20010904/DTD/svg10.dtd">
<svg version="1.0" xmlns="http://www.w3.org/2000/svg"
 width="90.000000pt" height="92.000000pt" viewBox="0 0 90.000000 92.000000"
 preserveAspectRatio="xMidYMid meet">
<metadata>
Created by potrace 1.16, written by Peter Selinger 2001-2019
</metadata>
<g transform="translate(0.000000,92.000000) scale(0.100000,-0.100000)"
fill="#000000" stroke="none">
<path d="M350 859 c0 -8 14 -31 30 -51 37 -45 46 -41 -155 -63 -82 -10 -154
-21 -159 -25 -14 -14 36 -33 89 -34 50 -1 50 -1 53 -36 5 -69 10 -78 57 -95
79 -31 405 -10 405 26 0 5 -10 15 -23 24 -21 13 -31 13 -93 0 -85 -18 -275
-20 -292 -3 -15 15 -15 50 -1 81 10 22 20 25 122 36 62 7 169 15 239 18 70 3
132 9 139 13 15 10 4 27 -30 45 -27 14 -97 8 -252 -19 -23 -4 -25 -2 -21 24 3
22 -2 32 -20 44 -36 23 -88 32 -88 15z"/>
<path d="M475 503 c-33 -8 -100 -16 -150 -17 -49 -2 -91 -7 -91 -12 -1 -5 2
-19 7 -32 12 -32 11 -132 -2 -229 -9 -71 -8 -85 6 -114 15 -28 19 -31 29 -17
8 11 36 18 91 22 44 4 104 9 133 12 l52 5 15 -35 c18 -43 27 -44 55 -9 21 26
22 34 14 113 -10 107 -11 204 -2 253 6 35 5 39 -25 57 -36 23 -49 23 -132 3z
m93 -79 c3 -40 2 -41 -25 -37 -16 3 -66 -2 -112 -11 -46 -9 -96 -16 -112 -16
-28 0 -29 2 -29 44 l0 44 93 10 c50 5 112 9 137 8 l45 -1 3 -41z m2 -115 c0
-40 -1 -40 -29 -34 -16 3 -66 -1 -111 -9 -45 -9 -95 -16 -111 -16 -26 0 -29 3
-29 33 l0 33 108 15 c59 9 122 17 140 18 31 1 32 0 32 -40z m0 -108 l0 -38
-87 -7 c-49 -3 -112 -9 -140 -13 l-53 -6 0 41 c0 29 4 40 13 37 6 -3 57 1 112
9 160 22 155 23 155 -23z"/>
</g>
</svg>
