<?xml version="1.0" standalone="no"?>
<!DOCTYPE svg PUBLIC "-//W3C//DTD SVG 20010904//EN"
 "http://www.w3.org/TR/2001/REC-SVG-20010904/DTD/svg10.dtd">
<svg version="1.0" xmlns="http://www.w3.org/2000/svg"
 width="96.000000pt" height="68.000000pt" viewBox="0 0 96.000000 68.000000"
 preserveAspectRatio="xMidYMid meet">
<metadata>
Created by potrace 1.16, written by Peter Selinger 2001-2019
</metadata>
<g transform="translate(0.000000,68.000000) scale(0.100000,-0.100000)"
fill="#000000" stroke="none">
<path d="M410 613 c0 -4 10 -17 22 -30 12 -13 19 -25 16 -29 -4 -4 -243 -32
-290 -34 -5 0 -8 -4 -8 -10 0 -14 74 -31 109 -24 30 6 31 6 31 -29 0 -61 30
-70 226 -65 166 3 210 13 165 37 -14 8 -39 9 -83 2 -35 -6 -105 -11 -156 -12
-74 -2 -96 1 -109 14 -13 13 -14 21 -5 41 12 27 34 32 217 41 187 9 245 16
245 29 0 25 -59 35 -146 25 -98 -12 -129 -10 -129 11 0 8 -11 20 -25 27 -27
14 -80 18 -80 6z"/>
<path d="M505 354 c-44 -7 -105 -13 -135 -13 l-55 -1 0 -123 c0 -67 4 -132 8
-144 9 -24 23 -30 29 -12 2 5 53 13 117 17 110 7 114 7 131 -15 10 -13 25 -23
33 -23 25 0 33 49 31 179 -3 118 -4 125 -26 138 -27 14 -28 14 -133 -3z m105
-53 c0 -28 -2 -29 -47 -30 -27 0 -79 -5 -118 -10 -38 -6 -73 -11 -77 -11 -5 0
-8 15 -8 34 0 33 2 35 38 39 20 2 76 4 125 5 l87 2 0 -29z m0 -79 l0 -29 -92
-6 c-51 -4 -108 -9 -125 -13 -32 -6 -33 -5 -33 25 0 31 1 31 53 32 28 0 75 4
102 9 91 14 95 13 95 -18z m-2 -79 c-2 -20 -9 -28 -23 -30 -11 0 -68 -4 -127
-8 l-107 -8 4 23 c2 12 6 24 7 25 3 2 175 20 226 24 20 1 23 -3 20 -26z"/>
</g>
</svg>
