<?xml version="1.0" standalone="no"?>
<!DOCTYPE svg PUBLIC "-//W3C//DTD SVG 20010904//EN"
 "http://www.w3.org/TR/2001/REC-SVG-20010904/DTD/svg10.dtd">
<svg version="1.0" xmlns="http://www.w3.org/2000/svg"
 width="96.000000pt" height="68.000000pt" viewBox="0 0 96.000000 68.000000"
 preserveAspectRatio="xMidYMid meet">
<metadata>
Created by potrace 1.16, written by Peter Selinger 2001-2019
</metadata>
<g transform="translate(0.000000,68.000000) scale(0.100000,-0.100000)"
fill="#000000" stroke="none">
<path d="M310 592 c0 -10 7 -26 15 -36 20 -27 19 -36 -5 -36 -10 0 -53 -5 -95
-11 -91 -14 -89 -34 2 -26 176 16 293 31 293 38 0 14 -49 22 -100 16 -41 -5
-48 -3 -43 9 6 18 -20 50 -48 57 -13 4 -19 0 -19 -11z"/>
</g>
</svg>
