<?xml version="1.0" standalone="no"?>
<!DOCTYPE svg PUBLIC "-//W3C//DTD SVG 20010904//EN"
 "http://www.w3.org/TR/2001/REC-SVG-20010904/DTD/svg10.dtd">
<svg version="1.0" xmlns="http://www.w3.org/2000/svg"
 width="96.000000pt" height="68.000000pt" viewBox="0 0 96.000000 68.000000"
 preserveAspectRatio="xMidYMid meet">
<metadata>
Created by potrace 1.16, written by Peter Selinger 2001-2019
</metadata>
<g transform="translate(0.000000,68.000000) scale(0.100000,-0.100000)"
fill="#000000" stroke="none">
<path d="M440 606 c0 -8 11 -28 25 -44 31 -37 30 -38 -100 -48 -49 -4 -99 -10
-110 -14 -19 -7 -18 -8 4 -15 23 -7 23 -10 19 -84 -8 -122 -52 -220 -142 -315
-42 -45 -22 -47 36 -3 73 56 126 155 153 289 8 40 17 82 20 94 4 18 16 22 112
32 60 7 140 12 180 12 39 0 79 3 88 6 14 6 13 8 -5 21 -16 11 -38 13 -99 8
-73 -7 -78 -6 -83 13 -9 35 -98 79 -98 48z"/>
</g>
</svg>
