<?xml version="1.0" standalone="no"?>
<!DOCTYPE svg PUBLIC "-//W3C//DTD SVG 20010904//EN"
 "http://www.w3.org/TR/2001/REC-SVG-20010904/DTD/svg10.dtd">
<svg version="1.0" xmlns="http://www.w3.org/2000/svg"
 width="90.000000pt" height="92.000000pt" viewBox="0 0 90.000000 92.000000"
 preserveAspectRatio="xMidYMid meet">
<metadata>
Created by potrace 1.16, written by Peter Selinger 2001-2019
</metadata>
<g transform="translate(0.000000,92.000000) scale(0.100000,-0.100000)"
fill="#000000" stroke="none">
<path d="M175 840 c-4 -6 -2 -25 4 -43 17 -52 17 -157 0 -168 -8 -4 -40 -11
-72 -15 -102 -12 -84 -49 20 -40 l61 5 4 -48 c6 -96 3 -101 -99 -151 -99 -47
-116 -70 -68 -92 21 -10 31 -5 92 40 l68 51 3 -47 c2 -26 1 -76 -3 -111 l-7
-63 -49 6 -49 7 57 -56 c31 -30 60 -55 64 -55 4 0 14 16 23 35 14 30 16 55 10
173 l-7 137 47 39 c54 44 55 55 2 30 -19 -10 -37 -16 -39 -13 -1 2 -1 32 1 65
l4 62 51 13 c56 16 69 32 37 49 -16 8 -30 9 -52 1 -17 -6 -34 -9 -36 -6 -6 6
10 102 23 142 6 18 1 26 -26 42 -38 23 -55 26 -64 11z"/>
<path d="M580 654 c-47 -12 -111 -26 -142 -30 -39 -4 -58 -11 -58 -20 0 -10
14 -14 46 -14 l47 0 -5 -81 c-5 -88 -12 -99 -64 -99 -44 0 -94 -11 -94 -20 0
-15 55 -27 99 -22 l44 4 -7 -73 c-4 -41 -11 -78 -16 -83 -4 -4 -38 -11 -74
-13 -36 -3 -66 -8 -66 -12 0 -3 12 -15 27 -25 23 -17 32 -18 87 -8 104 20 308
34 379 27 62 -7 67 -6 67 13 0 21 -58 55 -82 48 -7 -2 -33 -7 -59 -10 l-45 -5
15 84 14 85 63 0 c97 0 120 16 64 45 -20 10 -42 13 -70 9 -37 -6 -40 -5 -40
18 0 23 21 115 35 149 4 12 -4 23 -28 38 -19 11 -38 20 -43 20 -5 -1 -47 -12
-94 -25z m73 -119 c-1 -48 -4 -89 -6 -91 -5 -5 -131 -22 -135 -19 -2 2 3 35
11 74 13 62 12 71 -1 85 -13 13 -13 16 -1 20 23 9 113 24 124 21 6 -1 9 -38 8
-90z m-16 -167 c-3 -13 -10 -48 -17 -79 -12 -63 -20 -69 -97 -69 -49 0 -49 -1
-32 96 12 70 13 70 103 73 45 1 48 0 43 -21z"/>
</g>
</svg>
