<?xml version="1.0" standalone="no"?>
<!DOCTYPE svg PUBLIC "-//W3C//DTD SVG 20010904//EN"
 "http://www.w3.org/TR/2001/REC-SVG-20010904/DTD/svg10.dtd">
<svg version="1.0" xmlns="http://www.w3.org/2000/svg"
 width="90.000000pt" height="92.000000pt" viewBox="0 0 90.000000 92.000000"
 preserveAspectRatio="xMidYMid meet">
<metadata>
Created by potrace 1.16, written by Peter Selinger 2001-2019
</metadata>
<g transform="translate(0.000000,92.000000) scale(0.100000,-0.100000)"
fill="#000000" stroke="none">
<path d="M234 853 c4 -16 9 -58 13 -94 l6 -67 -59 -21 c-33 -12 -68 -26 -79
-31 -18 -8 -18 -9 6 -9 14 -1 48 6 75 14 27 8 50 15 52 15 1 0 2 -13 2 -30 0
-31 -1 -31 -105 -55 -29 -6 -29 -7 -11 -21 23 -16 39 -17 84 -5 l32 10 0 -43
0 -43 -93 -16 c-51 -10 -103 -17 -114 -17 -36 0 -37 -19 -2 -34 28 -12 41 -11
98 5 36 11 70 19 75 19 23 0 -85 -130 -154 -185 -28 -22 -46 -41 -41 -43 22
-7 110 47 163 101 l58 59 0 -32 c0 -18 -5 -72 -12 -120 -9 -70 -9 -94 2 -119
29 -71 50 -22 51 121 1 62 4 123 7 136 7 23 7 23 50 -13 41 -36 72 -41 72 -12
0 21 -30 44 -77 58 -37 10 -43 16 -43 39 0 25 4 28 48 34 118 17 133 24 94 45
-17 9 -35 7 -127 -14 -18 -4 -20 0 -17 40 4 42 6 45 40 51 56 9 72 14 72 24 0
13 -45 23 -81 18 -28 -4 -30 -3 -27 26 3 29 7 32 65 46 75 19 81 24 58 50 -19
21 -60 27 -70 10 -3 -5 -16 -15 -27 -21 -21 -11 -21 -10 -14 53 6 63 6 64 -23
81 -42 25 -55 22 -47 -10z"/>
<path d="M675 703 c-27 -8 -87 -15 -131 -16 l-82 -1 14 -40 c17 -46 12 -310
-7 -406 -9 -46 -8 -63 2 -86 18 -36 39 -43 39 -12 1 63 3 65 118 72 59 4 122
10 141 14 29 6 32 9 18 20 -14 12 -14 18 -1 55 8 23 20 53 26 66 11 21 10 26
-17 48 -32 26 -35 26 -155 -1 -36 -9 -78 -15 -93 -16 -26 0 -28 2 -25 41 3 50
9 54 138 69 52 6 96 13 99 16 3 2 0 9 -7 16 -8 8 -6 24 8 61 11 28 24 54 30
57 11 7 -43 61 -58 59 -4 0 -29 -8 -57 -16z m35 -49 c0 -8 -5 -35 -11 -59 -11
-42 -13 -44 -61 -54 -27 -6 -62 -11 -78 -11 -30 0 -30 0 -30 59 l0 58 53 10
c84 16 127 16 127 -3z m16 -310 c-3 -26 -6 -52 -6 -59 0 -14 -100 -35 -163
-35 l-37 0 0 58 0 58 63 11 c34 5 82 11 106 11 l44 2 -7 -46z"/>
</g>
</svg>
