<?xml version="1.0" standalone="no"?>
<!DOCTYPE svg PUBLIC "-//W3C//DTD SVG 20010904//EN"
 "http://www.w3.org/TR/2001/REC-SVG-20010904/DTD/svg10.dtd">
<svg version="1.0" xmlns="http://www.w3.org/2000/svg"
 width="96.000000pt" height="68.000000pt" viewBox="0 0 96.000000 68.000000"
 preserveAspectRatio="xMidYMid meet">
<metadata>
Created by potrace 1.16, written by Peter Selinger 2001-2019
</metadata>
<g transform="translate(0.000000,68.000000) scale(0.100000,-0.100000)"
fill="#000000" stroke="none">
<path d="M476 603 c-3 -3 -1 -14 5 -24 9 -17 69 -257 69 -277 0 -5 -35 -15
-77 -21 -43 -7 -91 -15 -108 -18 -30 -6 -30 -6 -5 -13 14 -3 45 -3 70 2 25 4
64 10 87 14 l41 7 31 -61 c17 -34 31 -65 31 -69 0 -4 -21 -23 -47 -40 -54 -38
-46 -42 23 -13 l48 21 25 -21 c64 -51 103 -72 142 -77 41 -6 42 -5 34 18 -4
13 -9 41 -12 62 -6 45 -18 48 -26 7 -8 -38 -34 -39 -79 -3 -50 41 -50 45 -11
86 34 34 36 38 21 53 -20 20 -48 12 -48 -14 0 -10 -8 -26 -18 -35 -17 -15 -20
-14 -45 25 -34 53 -34 68 1 69 15 1 32 2 37 4 6 1 21 3 35 4 23 1 24 2 6 13
-11 6 -40 8 -70 4 l-52 -6 -18 68 c-9 37 -17 102 -18 145 -1 42 -2 77 -2 77
-1 0 -15 4 -33 9 -17 5 -34 7 -37 4z"/>
<path d="M710 331 c0 -14 61 -62 71 -55 18 11 8 34 -21 49 -33 17 -50 19 -50
6z"/>
</g>
</svg>
