<?xml version="1.0" standalone="no"?>
<!DOCTYPE svg PUBLIC "-//W3C//DTD SVG 20010904//EN"
 "http://www.w3.org/TR/2001/REC-SVG-20010904/DTD/svg10.dtd">
<svg version="1.0" xmlns="http://www.w3.org/2000/svg"
 width="96.000000pt" height="68.000000pt" viewBox="0 0 96.000000 68.000000"
 preserveAspectRatio="xMidYMid meet">
<metadata>
Created by potrace 1.16, written by Peter Selinger 2001-2019
</metadata>
<g transform="translate(0.000000,68.000000) scale(0.100000,-0.100000)"
fill="#000000" stroke="none">
<path d="M470 563 c-64 -5 -90 -12 -90 -24 0 -7 12 -9 35 -5 l35 7 0 -178 c0
-98 4 -184 9 -192 7 -11 15 -11 41 -2 18 6 58 11 89 11 l56 0 29 85 c27 79 28
87 13 102 -13 14 -25 14 -92 4 -105 -15 -105 -15 -105 18 0 25 4 29 38 35 20
3 49 6 64 6 22 0 32 8 49 43 12 23 28 50 36 59 13 15 12 18 -6 27 -18 10 -98
12 -201 4z m135 -55 c-4 -24 -9 -45 -11 -47 -1 -2 -23 -6 -49 -8 l-45 -6 0 46
c0 50 4 53 78 56 l34 1 -7 -42z m33 -189 c-3 -30 -3 -30 -75 -35 l-73 -4 0 29
c0 33 10 37 98 40 l53 1 -3 -31z m-14 -76 c-4 -16 -8 -29 -9 -30 -1 -2 -29 -6
-63 -9 l-62 -7 0 31 c0 30 2 31 48 35 26 2 57 4 70 5 20 2 22 -1 16 -25z"/>
<path d="M358 383 c-4 -31 -13 -33 -121 -36 -65 -2 -76 -4 -70 -17 4 -8 7 -55
8 -104 1 -98 6 -106 53 -82 16 8 58 20 92 25 34 6 64 12 65 13 1 2 5 54 7 116
5 103 4 112 -13 112 -12 0 -19 -9 -21 -27z m0 -80 c-3 -26 -7 -28 -67 -36 -49
-6 -66 -5 -73 5 -23 36 8 51 115 56 25 2 28 -1 25 -25z m2 -77 c0 -31 -2 -32
-77 -41 l-63 -7 0 30 c0 35 9 39 88 41 49 1 52 0 52 -23z"/>
</g>
</svg>
