<?xml version="1.0" standalone="no"?>
<!DOCTYPE svg PUBLIC "-//W3C//DTD SVG 20010904//EN"
 "http://www.w3.org/TR/2001/REC-SVG-20010904/DTD/svg10.dtd">
<svg version="1.0" xmlns="http://www.w3.org/2000/svg"
 width="96.000000pt" height="68.000000pt" viewBox="0 0 96.000000 68.000000"
 preserveAspectRatio="xMidYMid meet">
<metadata>
Created by potrace 1.16, written by Peter Selinger 2001-2019
</metadata>
<g transform="translate(0.000000,68.000000) scale(0.100000,-0.100000)"
fill="#000000" stroke="none">
<path d="M466 546 c9 -61 -2 -110 -32 -146 -36 -42 -10 -38 33 5 l36 36 22
-21 c23 -22 45 -26 45 -9 0 5 -16 17 -35 25 -41 17 -44 28 -10 49 86 52 80 46
60 61 -17 12 -22 10 -47 -19 l-28 -32 2 39 c2 31 -1 41 -17 47 -33 13 -35 11
-29 -35z"/>
<path d="M400 485 c0 -14 21 -45 31 -45 18 0 5 45 -13 48 -10 2 -18 1 -18 -3z"/>
</g>
</svg>
