<?xml version="1.0" standalone="no"?>
<!DOCTYPE svg PUBLIC "-//W3C//DTD SVG 20010904//EN"
 "http://www.w3.org/TR/2001/REC-SVG-20010904/DTD/svg10.dtd">
<svg version="1.0" xmlns="http://www.w3.org/2000/svg"
 width="96.000000pt" height="68.000000pt" viewBox="0 0 96.000000 68.000000"
 preserveAspectRatio="xMidYMid meet">
<metadata>
Created by potrace 1.16, written by Peter Selinger 2001-2019
</metadata>
<g transform="translate(0.000000,68.000000) scale(0.100000,-0.100000)"
fill="#000000" stroke="none">
<path d="M218 405 l4 -135 -31 0 c-30 0 -30 0 -28 53 2 46 0 52 -19 55 -19 3
-22 -3 -27 -64 -7 -75 3 -100 33 -84 15 8 148 40 166 40 2 0 4 -7 4 -15 0 -31
29 -14 39 23 27 108 24 131 -19 132 -12 0 -14 -11 -12 -50 4 -57 -8 -80 -44
-80 -20 0 -22 4 -19 33 2 17 7 73 9 123 5 89 5 92 -17 98 -12 3 -26 6 -32 6
-6 0 -9 -49 -7 -135z"/>
</g>
</svg>
