<?xml version="1.0" standalone="no"?>
<!DOCTYPE svg PUBLIC "-//W3C//DTD SVG 20010904//EN"
 "http://www.w3.org/TR/2001/REC-SVG-20010904/DTD/svg10.dtd">
<svg version="1.0" xmlns="http://www.w3.org/2000/svg"
 width="96.000000pt" height="68.000000pt" viewBox="0 0 96.000000 68.000000"
 preserveAspectRatio="xMidYMid meet">
<metadata>
Created by potrace 1.16, written by Peter Selinger 2001-2019
</metadata>
<g transform="translate(0.000000,68.000000) scale(0.100000,-0.100000)"
fill="#000000" stroke="none">
<path d="M554 511 l5 -79 -42 -4 c-23 -2 -58 -1 -78 2 -36 7 -37 6 -48 -30 -6
-21 -11 -45 -11 -54 0 -26 23 -14 39 20 13 30 15 31 135 47 66 10 136 17 154
17 30 0 32 -2 26 -25 -6 -25 -5 -25 37 -19 84 11 88 19 29 53 -36 20 -45 21
-97 12 -31 -6 -69 -11 -83 -11 -26 0 -26 1 -22 60 5 62 -6 90 -35 90 -11 0
-13 -15 -9 -79z"/>
<path d="M670 520 c-17 -22 -27 -40 -22 -40 13 0 102 38 102 43 0 3 -11 12
-24 21 -24 15 -26 14 -56 -24z"/>
<path d="M450 500 c9 -18 40 -40 54 -40 3 0 6 9 6 20 0 20 -27 40 -55 40 -13
0 -14 -4 -5 -20z"/>
<path d="M320 496 c-3 -2 -43 -9 -90 -16 -47 -6 -92 -13 -100 -16 -27 -9 11
-24 63 -24 l48 0 -3 -57 -3 -58 -37 -3 c-51 -4 -48 -20 5 -24 l42 -3 0 -60 0
-60 -68 -15 c-70 -15 -80 -28 -33 -45 23 -8 40 -3 109 32 45 23 95 47 111 53
47 17 21 24 -29 7 l-46 -16 3 57 c3 55 4 57 36 67 40 11 42 25 3 25 -28 0 -29
2 -33 55 l-3 55 53 11 c60 12 66 32 11 37 -19 2 -37 1 -39 -2z"/>
<path d="M534 363 l-61 -4 15 -44 c13 -42 16 -44 46 -40 17 2 50 4 74 4 25 1
42 6 42 13 0 6 10 22 22 35 19 20 20 25 8 33 -8 5 -31 9 -50 8 -19 -1 -62 -3
-96 -5z m96 -19 c0 -3 -5 -14 -10 -25 -14 -25 -95 -28 -104 -3 -9 22 -9 22 22
27 44 7 92 7 92 1z"/>
<path d="M590 234 c-58 -8 -124 -11 -147 -8 l-42 5 14 -28 c7 -15 19 -56 26
-91 11 -57 14 -63 33 -58 12 3 59 8 104 12 84 7 84 7 106 -21 l23 -29 27 27
c17 17 26 37 26 59 0 18 5 51 11 73 10 35 9 41 -11 57 -25 20 -27 20 -170 2z
m118 -41 c3 -17 -2 -23 -15 -23 -10 0 -35 -3 -55 -6 -37 -6 -38 -6 -38 25 l0
32 53 -3 c45 -3 52 -6 55 -25z m-158 -13 c0 -28 -3 -30 -35 -30 -19 0 -38 -1
-42 -2 -4 -2 -10 9 -14 24 -6 25 -4 27 25 31 67 8 66 9 66 -23z m160 -59 c0
-28 -1 -28 -55 -28 -58 0 -69 5 -59 31 5 13 20 17 97 24 12 2 17 -5 17 -27z
m-150 -12 c0 -16 -7 -19 -45 -19 -38 0 -45 3 -45 19 0 16 8 21 38 23 46 4 52
2 52 -23z"/>
</g>
</svg>
