<?xml version="1.0" standalone="no"?>
<!DOCTYPE svg PUBLIC "-//W3C//DTD SVG 20010904//EN"
 "http://www.w3.org/TR/2001/REC-SVG-20010904/DTD/svg10.dtd">
<svg version="1.0" xmlns="http://www.w3.org/2000/svg"
 width="96.000000pt" height="68.000000pt" viewBox="0 0 96.000000 68.000000"
 preserveAspectRatio="xMidYMid meet">
<metadata>
Created by potrace 1.16, written by Peter Selinger 2001-2019
</metadata>
<g transform="translate(0.000000,68.000000) scale(0.100000,-0.100000)"
fill="#000000" stroke="none">
<path d="M215 253 c-22 -8 -53 -12 -69 -9 -23 5 -26 4 -17 -8 6 -8 18 -33 25
-57 8 -29 18 -43 27 -40 8 2 25 6 39 8 59 10 70 14 65 23 -3 5 2 24 11 41 15
31 15 33 -2 46 -21 15 -27 15 -79 -4z m33 -45 c-2 -25 -9 -33 -31 -39 -24 -6
-29 -4 -38 17 -16 43 -14 44 59 53 9 1 12 -9 10 -31z"/>
</g>
</svg>
