<?xml version="1.0" standalone="no"?>
<!DOCTYPE svg PUBLIC "-//W3C//DTD SVG 20010904//EN"
 "http://www.w3.org/TR/2001/REC-SVG-20010904/DTD/svg10.dtd">
<svg version="1.0" xmlns="http://www.w3.org/2000/svg"
 width="90.000000pt" height="92.000000pt" viewBox="0 0 90.000000 92.000000"
 preserveAspectRatio="xMidYMid meet">
<metadata>
Created by potrace 1.16, written by Peter Selinger 2001-2019
</metadata>
<g transform="translate(0.000000,92.000000) scale(0.100000,-0.100000)"
fill="#000000" stroke="none">
<path d="M635 887 c-2 -6 -6 -34 -7 -62 -3 -47 -5 -50 -33 -53 -44 -5 -52 -19
-15 -27 30 -7 32 -9 26 -39 l-6 -31 25 30 c14 17 25 33 25 36 0 4 32 10 70 13
39 4 70 11 70 15 0 16 -53 31 -88 25 -32 -6 -34 -5 -27 12 20 47 17 70 -9 82
-21 9 -28 9 -31 -1z"/>
<path d="M167 854 c-3 -3 -1 -18 4 -33 6 -14 13 -71 16 -127 l6 -101 -58 -11
c-32 -7 -69 -12 -82 -12 -30 0 -31 -30 0 -31 12 -1 43 -1 70 1 26 1 47 0 47
-2 0 -27 -83 -160 -138 -220 -19 -21 -32 -43 -30 -50 6 -17 114 86 145 139 14
24 27 43 30 43 8 0 -5 -213 -16 -270 -10 -48 4 -110 26 -118 24 -7 33 51 33
221 l1 172 22 -27 c13 -16 31 -28 41 -28 13 0 17 7 14 28 -2 21 -11 29 -38 38
-32 10 -35 15 -38 53 -3 37 -1 41 20 41 13 1 36 6 52 13 26 11 27 14 12 26 -9
8 -31 14 -48 13 l-31 -1 7 82 c3 45 9 92 12 104 5 17 -1 26 -27 42 -37 23 -42
24 -52 15z"/>
<path d="M380 815 c0 -4 7 -20 16 -36 8 -17 13 -33 10 -37 -3 -3 -26 -5 -51
-5 -50 0 -54 -6 -25 -32 19 -17 43 -17 82 -1 12 6 17 2 20 -15 5 -36 28 -36
28 1 0 26 5 33 30 41 37 14 31 27 -10 21 -28 -4 -30 -2 -30 26 0 30 -14 42
-51 42 -10 0 -19 -2 -19 -5z"/>
<path d="M595 655 c-27 -8 -75 -17 -105 -20 -70 -8 -90 -14 -90 -26 0 -5 24
-9 54 -9 65 0 66 -2 66 -115 l0 -83 -32 -6 c-18 -3 -64 -8 -103 -12 -90 -8
-109 -18 -73 -35 22 -9 43 -9 97 -1 109 18 113 18 109 -20 l-3 -33 -77 -9
c-43 -4 -78 -12 -78 -16 0 -3 11 -12 24 -19 18 -10 35 -11 75 -2 29 6 54 11
56 11 3 0 5 -44 6 -97 0 -54 4 -107 9 -118 7 -18 9 -18 19 9 7 16 15 71 18
123 l6 93 104 0 c106 0 122 7 79 35 -24 16 -44 16 -153 -1 -32 -5 -33 -4 -33
30 0 33 1 34 48 40 26 3 86 8 135 11 48 4 87 11 87 16 0 5 -11 16 -24 24 -21
14 -33 14 -117 0 -134 -21 -129 -22 -129 28 0 23 5 60 10 82 8 35 7 42 -11 58
l-21 17 20 0 c47 0 122 22 122 36 0 8 -4 14 -9 14 -5 0 -15 2 -23 4 -7 2 -35
-2 -63 -9z"/>
<path d="M678 573 c-3 -34 -6 -38 -36 -43 -43 -7 -46 -24 -3 -28 31 -3 33 -5
27 -35 l-6 -32 25 30 c14 17 25 33 25 38 0 4 23 7 50 7 36 0 50 4 50 14 0 16
-21 26 -56 26 -18 0 -22 4 -17 16 4 11 -1 22 -12 30 -31 23 -44 16 -47 -23z"/>
<path d="M360 565 c0 -4 7 -19 15 -35 13 -25 13 -29 -1 -34 -9 -3 -26 -6 -39
-6 -13 0 -26 -4 -29 -9 -9 -13 42 -31 73 -25 24 5 29 2 35 -20 9 -36 24 -33
28 7 2 25 8 33 26 35 31 5 23 26 -11 30 -19 2 -27 9 -27 22 0 11 -9 24 -19 30
-21 11 -51 14 -51 5z"/>
</g>
</svg>
