<?xml version="1.0" standalone="no"?>
<!DOCTYPE svg PUBLIC "-//W3C//DTD SVG 20010904//EN"
 "http://www.w3.org/TR/2001/REC-SVG-20010904/DTD/svg10.dtd">
<svg version="1.0" xmlns="http://www.w3.org/2000/svg"
 width="96.000000pt" height="68.000000pt" viewBox="0 0 96.000000 68.000000"
 preserveAspectRatio="xMidYMid meet">
<metadata>
Created by potrace 1.16, written by Peter Selinger 2001-2019
</metadata>
<g transform="translate(0.000000,68.000000) scale(0.100000,-0.100000)"
fill="#000000" stroke="none">
<path d="M666 575 c-7 -42 -9 -45 -39 -46 -32 -2 -32 -2 -3 -6 24 -4 27 -8 23
-29 -5 -31 0 -30 25 1 16 21 28 25 68 25 27 0 52 4 55 10 8 13 -39 24 -70 16
-29 -7 -29 -6 -13 29 10 22 9 28 -3 36 -27 17 -37 9 -43 -36z"/>
<path d="M455 544 c21 -32 7 -47 -37 -41 -30 4 -36 -4 -15 -22 9 -7 24 -8 46
-1 25 7 33 6 38 -6 8 -21 23 -17 23 6 0 13 7 20 19 20 11 0 23 5 27 11 5 9 -1
10 -20 5 -23 -6 -26 -3 -26 18 0 25 -16 36 -52 36 -20 0 -20 -1 -3 -26z"/>
</g>
</svg>
