<?xml version="1.0" standalone="no"?>
<!DOCTYPE svg PUBLIC "-//W3C//DTD SVG 20010904//EN"
 "http://www.w3.org/TR/2001/REC-SVG-20010904/DTD/svg10.dtd">
<svg version="1.0" xmlns="http://www.w3.org/2000/svg"
 width="96.000000pt" height="68.000000pt" viewBox="0 0 96.000000 68.000000"
 preserveAspectRatio="xMidYMid meet">
<metadata>
Created by potrace 1.16, written by Peter Selinger 2001-2019
</metadata>
<g transform="translate(0.000000,68.000000) scale(0.100000,-0.100000)"
fill="#000000" stroke="none">
<path d="M266 611 c-3 -5 -1 -22 5 -39 6 -16 9 -50 7 -73 l-3 -44 -63 -10
c-80 -13 -77 -30 6 -28 l62 1 0 -44 0 -44 -67 -30 c-37 -17 -78 -33 -90 -36
-26 -7 -29 -17 -10 -32 29 -23 57 -23 89 0 18 13 44 29 57 36 23 12 24 12 17
-25 -3 -21 -6 -53 -6 -72 0 -33 -1 -33 -35 -28 -19 3 -35 3 -35 -1 0 -4 21
-26 47 -50 l48 -42 17 22 c14 19 18 44 18 134 l0 111 40 27 c22 14 40 29 40
32 0 6 -34 0 -65 -12 -14 -6 -16 -1 -13 27 3 28 8 34 38 42 19 5 37 11 40 13
8 8 -24 24 -49 24 -22 0 -23 3 -18 38 3 20 9 46 12 57 5 15 -1 24 -24 38 -32
19 -57 22 -65 8z"/>
<path d="M575 504 c-60 -8 -120 -12 -132 -9 -13 3 -23 1 -23 -5 0 -5 4 -10 9
-10 14 0 28 -50 41 -139 l12 -79 54 5 54 6 0 -122 c0 -94 3 -122 13 -119 17 6
24 49 26 157 l1 93 67 -3 67 -4 34 108 c26 86 31 111 21 123 -14 17 -91 17
-244 -2z m185 -49 l0 -45 -59 0 -59 0 -4 40 c-4 43 0 45 85 49 l37 1 0 -45z
m-182 23 c7 -7 12 -26 12 -44 0 -27 -4 -32 -31 -38 -59 -11 -66 -8 -77 34 -9
37 -8 40 12 45 31 6 60 13 67 14 3 0 10 -4 17 -11z m172 -107 c0 -11 -4 -31
-10 -45 -8 -23 -15 -26 -60 -26 l-50 0 0 39 c0 43 5 46 88 50 25 1 32 -3 32
-18z m-160 -28 c0 -37 -9 -47 -42 -51 -29 -3 -48 19 -48 57 0 18 6 21 45 21
42 0 45 -2 45 -27z"/>
</g>
</svg>
