<?xml version="1.0" standalone="no"?>
<!DOCTYPE svg PUBLIC "-//W3C//DTD SVG 20010904//EN"
 "http://www.w3.org/TR/2001/REC-SVG-20010904/DTD/svg10.dtd">
<svg version="1.0" xmlns="http://www.w3.org/2000/svg"
 width="90.000000pt" height="92.000000pt" viewBox="0 0 90.000000 92.000000"
 preserveAspectRatio="xMidYMid meet">
<metadata>
Created by potrace 1.16, written by Peter Selinger 2001-2019
</metadata>
<g transform="translate(0.000000,92.000000) scale(0.100000,-0.100000)"
fill="#000000" stroke="none">
<path d="M595 784 c-77 -13 -152 -23 -167 -23 -16 -1 -28 -6 -28 -11 0 -17 52
-31 91 -25 48 8 54 -4 34 -65 -16 -47 -18 -50 -52 -50 -30 0 -34 -3 -27 -17
10 -19 11 -147 4 -254 -4 -47 -1 -71 9 -83 13 -15 15 -15 26 1 8 10 17 15 21
11 12 -12 -27 -74 -90 -145 -46 -51 -55 -64 -36 -58 32 10 92 54 157 116 57
54 63 66 36 77 -14 5 -12 8 12 13 17 4 48 7 71 8 34 1 43 -3 52 -24 13 -27 26
-32 39 -12 4 6 11 86 14 177 3 91 7 171 10 179 2 8 -10 22 -28 33 -32 19 -33
19 -122 0 l-91 -20 35 41 c39 45 43 62 19 75 -18 10 70 22 162 22 59 0 72 10
46 32 -29 26 -52 26 -197 2z m93 -186 c7 -7 12 -27 12 -45 0 -30 -2 -33 -24
-27 -12 3 -57 -2 -99 -10 -42 -9 -78 -16 -79 -16 -10 0 6 80 16 81 6 0 38 6
71 14 77 17 88 18 103 3z m14 -155 c-3 -17 -9 -22 -23 -18 -10 3 -52 -1 -93
-9 -41 -9 -80 -16 -86 -16 -5 0 -10 18 -10 40 0 37 2 40 23 35 12 -3 58 1 102
8 88 14 97 10 87 -40z m0 -85 l-4 -43 -81 -2 c-45 -1 -92 -5 -104 -8 -21 -5
-23 -2 -23 33 0 36 2 38 28 35 21 -3 101 9 182 26 3 1 4 -18 2 -41z"/>
<path d="M197 737 c-42 -12 -76 -26 -74 -32 5 -15 75 -18 138 -5 67 14 88 25
74 39 -20 19 -61 18 -138 -2z"/>
<path d="M170 572 c-80 -14 -147 -27 -150 -30 -3 -2 4 -10 15 -19 13 -10 34
-13 64 -10 l43 5 -5 -40 c-7 -52 -56 -152 -101 -205 -36 -42 -45 -63 -25 -63
23 0 116 108 143 165 15 33 32 68 37 77 13 26 11 44 -7 59 -14 12 -14 14 3 20
10 4 30 8 45 8 23 1 28 -4 34 -35 4 -20 4 -84 0 -143 -14 -199 -12 -201 84
-106 38 38 68 71 66 73 -3 2 -24 -8 -49 -22 -24 -14 -47 -26 -51 -26 -5 0 -7
55 -5 123 2 67 1 127 -3 133 -11 16 1 24 38 24 48 0 67 9 53 26 -15 19 -58 16
-229 -14z"/>
<path d="M640 235 c0 -3 29 -42 65 -89 83 -107 105 -118 105 -51 0 40 -30 80
-81 106 -49 25 -89 40 -89 34z"/>
</g>
</svg>
