<?xml version="1.0" standalone="no"?>
<!DOCTYPE svg PUBLIC "-//W3C//DTD SVG 20010904//EN"
 "http://www.w3.org/TR/2001/REC-SVG-20010904/DTD/svg10.dtd">
<svg version="1.0" xmlns="http://www.w3.org/2000/svg"
 width="96.000000pt" height="68.000000pt" viewBox="0 0 96.000000 68.000000"
 preserveAspectRatio="xMidYMid meet">
<metadata>
Created by potrace 1.16, written by Peter Selinger 2001-2019
</metadata>
<g transform="translate(0.000000,68.000000) scale(0.100000,-0.100000)"
fill="#000000" stroke="none">
<path d="M319 448 c-16 -39 -138 -169 -186 -199 -19 -12 -32 -24 -29 -26 7 -8
93 36 126 64 43 36 53 23 45 -55 -4 -36 -10 -75 -15 -86 -5 -13 -2 -32 6 -48
30 -58 40 -30 47 130 3 51 1 95 -4 98 -15 9 -11 17 35 69 42 46 44 51 29 67
-24 26 -39 22 -54 -14z"/>
</g>
</svg>
