<?xml version="1.0" standalone="no"?>
<!DOCTYPE svg PUBLIC "-//W3C//DTD SVG 20010904//EN"
 "http://www.w3.org/TR/2001/REC-SVG-20010904/DTD/svg10.dtd">
<svg version="1.0" xmlns="http://www.w3.org/2000/svg"
 width="96.000000pt" height="68.000000pt" viewBox="0 0 96.000000 68.000000"
 preserveAspectRatio="xMidYMid meet">
<metadata>
Created by potrace 1.16, written by Peter Selinger 2001-2019
</metadata>
<g transform="translate(0.000000,68.000000) scale(0.100000,-0.100000)"
fill="#000000" stroke="none">
<path d="M281 583 c-7 -20 -44 -67 -81 -105 -51 -51 -63 -68 -48 -68 26 0 55
17 93 51 16 16 33 29 37 29 4 0 24 21 44 46 l38 46 -23 19 c-33 27 -45 24 -60
-18z"/>
<path d="M550 573 c0 -4 11 -25 25 -45 14 -20 25 -39 25 -41 0 -3 -30 -8 -67
-11 -38 -4 -83 -10 -102 -13 -61 -10 -7 -26 64 -18 l64 6 -11 -37 c-14 -53
-47 -102 -122 -180 -36 -37 -63 -70 -61 -73 16 -15 172 125 200 180 14 26 21
30 42 24 14 -3 39 -9 55 -12 37 -7 43 -22 28 -70 -41 -128 -70 -160 -120 -133
-32 17 -34 7 -8 -34 27 -42 52 -46 89 -13 30 26 69 88 69 109 0 8 11 37 25 64
14 27 25 56 25 66 0 20 -49 38 -104 38 -52 0 -61 7 -62 47 l-1 31 86 7 c47 3
102 10 121 14 l35 8 -29 12 c-22 9 -47 9 -97 1 -37 -5 -70 -10 -73 -10 -3 0
-6 11 -6 23 0 13 -8 31 -17 40 -21 18 -73 33 -73 20z"/>
<path d="M312 438 c-27 -51 -101 -133 -156 -174 -60 -44 -24 -40 45 6 41 27
65 38 72 31 7 -7 6 -39 -2 -98 -7 -49 -9 -96 -5 -106 8 -22 31 -22 38 1 8 27
10 215 2 233 -4 10 7 31 34 61 45 52 48 63 21 78 -26 13 -23 16 -49 -32z"/>
</g>
</svg>
