<?xml version="1.0" standalone="no"?>
<!DOCTYPE svg PUBLIC "-//W3C//DTD SVG 20010904//EN"
 "http://www.w3.org/TR/2001/REC-SVG-20010904/DTD/svg10.dtd">
<svg version="1.0" xmlns="http://www.w3.org/2000/svg"
 width="90.000000pt" height="92.000000pt" viewBox="0 0 90.000000 92.000000"
 preserveAspectRatio="xMidYMid meet">
<metadata>
Created by potrace 1.16, written by Peter Selinger 2001-2019
</metadata>
<g transform="translate(0.000000,92.000000) scale(0.100000,-0.100000)"
fill="#000000" stroke="none">
<path d="M534 828 c3 -13 9 -80 12 -149 l7 -126 -39 -6 c-22 -4 -56 -4 -77 0
-24 4 -37 2 -37 -6 0 -6 4 -11 10 -11 18 0 31 -80 25 -153 -9 -107 -24 -166
-56 -224 -16 -29 -25 -53 -20 -53 20 0 93 96 104 137 10 38 27 59 27 33 0 -19
48 -22 81 -5 52 26 119 69 119 76 0 4 -30 -1 -67 -11 -38 -9 -85 -20 -105 -23
l-38 -6 0 75 0 75 28 -15 c15 -8 41 -24 57 -35 36 -25 71 -27 79 -4 11 27 -17
44 -93 56 -57 9 -71 15 -71 29 0 9 8 21 18 27 28 15 173 34 183 24 14 -14 22
-258 12 -323 l-9 -55 -47 2 -48 3 48 -55 c26 -30 51 -55 54 -55 3 0 16 12 30
26 23 25 24 31 29 232 3 114 7 212 9 217 7 20 0 31 -29 48 -27 17 -34 17 -81
3 l-51 -16 3 133 c2 72 0 138 -4 145 -5 6 -22 12 -39 12 -27 0 -30 -3 -24 -22z"/>
<path d="M154 784 c4 -16 10 -64 13 -106 l5 -76 -45 -7 c-25 -4 -54 -4 -66 0
-23 7 -29 -13 -11 -31 6 -6 13 -35 16 -65 6 -60 22 -109 35 -109 5 0 9 5 9 10
0 6 14 10 30 10 30 0 30 0 30 -59 l0 -59 -65 -13 c-82 -16 -93 -22 -75 -44 33
-40 46 -39 160 19 l108 56 22 -35 c37 -60 69 -35 46 36 -7 23 -23 40 -48 54
-41 22 -55 17 -38 -14 9 -18 7 -22 -15 -31 -42 -16 -45 -13 -45 44 l0 55 55 6
c30 4 55 11 55 16 0 5 -4 9 -9 9 -11 0 25 77 48 104 15 17 14 20 -19 47 -19
16 -40 27 -47 25 -6 -3 -27 -8 -46 -11 l-35 -7 5 49 c2 26 9 61 14 78 12 36
-9 61 -60 71 -33 7 -34 7 -27 -22z m134 -255 c-5 -51 -18 -69 -50 -69 -15 0
-18 9 -18 60 l0 60 36 0 37 0 -5 -51z m-118 -18 c0 -58 -1 -59 -30 -63 l-30
-5 0 58 c0 60 -2 58 53 68 4 0 7 -25 7 -58z"/>
<path d="M720 764 c-6 -14 -10 -29 -10 -33 0 -4 -13 -28 -30 -54 -16 -26 -27
-47 -24 -47 2 0 36 19 74 42 78 46 86 65 41 97 -37 27 -39 26 -51 -5z"/>
<path d="M380 724 c0 -16 62 -103 77 -108 41 -16 44 56 3 85 -27 18 -80 34
-80 23z"/>
</g>
</svg>
