<?xml version="1.0" standalone="no"?>
<!DOCTYPE svg PUBLIC "-//W3C//DTD SVG 20010904//EN"
 "http://www.w3.org/TR/2001/REC-SVG-20010904/DTD/svg10.dtd">
<svg version="1.0" xmlns="http://www.w3.org/2000/svg"
 width="96.000000pt" height="68.000000pt" viewBox="0 0 96.000000 68.000000"
 preserveAspectRatio="xMidYMid meet">
<metadata>
Created by potrace 1.16, written by Peter Selinger 2001-2019
</metadata>
<g transform="translate(0.000000,68.000000) scale(0.100000,-0.100000)"
fill="#000000" stroke="none">
<path d="M591 203 c1 -38 4 -79 8 -92 9 -35 52 -62 104 -68 47 -6 143 12 152
28 8 11 -16 89 -27 89 -4 0 -8 -9 -8 -20 0 -11 -9 -29 -20 -40 -29 -29 -122
-28 -151 1 -34 34 -21 60 38 79 28 9 64 25 79 35 l28 18 -23 11 c-16 7 -27 6
-39 -2 -82 -60 -107 -66 -92 -26 12 31 -2 54 -31 54 -17 0 -19 -8 -18 -67z"/>
</g>
</svg>
