<?xml version="1.0" standalone="no"?>
<!DOCTYPE svg PUBLIC "-//W3C//DTD SVG 20010904//EN"
 "http://www.w3.org/TR/2001/REC-SVG-20010904/DTD/svg10.dtd">
<svg version="1.0" xmlns="http://www.w3.org/2000/svg"
 width="96.000000pt" height="68.000000pt" viewBox="0 0 96.000000 68.000000"
 preserveAspectRatio="xMidYMid meet">
<metadata>
Created by potrace 1.16, written by Peter Selinger 2001-2019
</metadata>
<g transform="translate(0.000000,68.000000) scale(0.100000,-0.100000)"
fill="#000000" stroke="none">
<path d="M641 538 c5 -18 9 -56 9 -85 0 -51 -1 -52 -32 -58 -48 -8 -171 -25
-185 -25 -7 0 -13 -5 -13 -11 0 -12 106 -8 194 7 l39 7 -5 -132 c-3 -73 -9
-135 -12 -139 -4 -3 -25 -1 -47 5 l-40 10 48 -43 c53 -49 55 -50 77 -28 13 13
16 43 16 175 l0 159 63 0 c74 0 101 12 68 30 -14 7 -41 9 -76 5 l-54 -7 5 38
c3 22 10 52 16 67 9 23 8 30 -8 42 -11 8 -31 15 -46 15 -25 0 -26 -2 -17 -32z"/>
</g>
</svg>
