<?xml version="1.0" standalone="no"?>
<!DOCTYPE svg PUBLIC "-//W3C//DTD SVG 20010904//EN"
 "http://www.w3.org/TR/2001/REC-SVG-20010904/DTD/svg10.dtd">
<svg version="1.0" xmlns="http://www.w3.org/2000/svg"
 width="96.000000pt" height="68.000000pt" viewBox="0 0 96.000000 68.000000"
 preserveAspectRatio="xMidYMid meet">
<metadata>
Created by potrace 1.16, written by Peter Selinger 2001-2019
</metadata>
<g transform="translate(0.000000,68.000000) scale(0.100000,-0.100000)"
fill="#000000" stroke="none">
<path d="M740 474 l-25 -15 26 5 c19 4 29 1 33 -11 5 -12 10 -13 18 -5 6 6 17
8 24 5 8 -3 14 -1 14 5 0 7 -55 35 -64 32 -1 -1 -12 -8 -26 -16z"/>
<path d="M628 457 c5 -7 7 -25 5 -40 -2 -18 0 -26 7 -22 5 3 10 1 10 -4 0 -6
-5 -11 -11 -11 -6 0 -8 -16 -5 -42 2 -24 5 -46 5 -50 1 -5 6 -8 11 -8 7 0 8
13 4 35 -4 23 -2 35 5 35 6 0 11 5 11 11 0 5 -4 8 -8 5 -17 -10 -6 74 11 86
15 11 13 13 -19 15 -26 1 -33 -1 -26 -10z"/>
<path d="M794 435 c-5 -11 -9 -13 -14 -5 -4 6 -6 -30 -6 -80 1 -76 3 -89 16
-84 12 4 13 3 3 -7 -7 -7 -13 -26 -13 -41 0 -16 6 -28 13 -28 8 0 7 -3 -3 -10
-17 -11 -22 -72 -6 -82 13 -9 -49 -2 -64 7 -22 13 3 -21 32 -44 30 -24 31 -24
45 -6 7 11 11 25 8 33 -2 7 0 10 5 7 7 -4 10 53 8 170 -2 163 -9 211 -24 170z
m16 -55 c0 -5 -5 -10 -11 -10 -5 0 -7 5 -4 10 3 6 8 10 11 10 2 0 4 -4 4 -10z"/>
<path d="M685 360 c-8 -13 5 -13 25 0 13 8 13 10 -2 10 -9 0 -20 -4 -23 -10z"/>
<path d="M616 241 c-3 -21 -3 -54 0 -72 4 -26 3 -30 -5 -19 -9 13 -11 12 -11
-5 0 -33 12 -65 21 -59 5 3 6 10 3 16 -4 6 -1 14 6 18 6 4 13 30 15 57 1 27 6
59 10 72 5 16 4 21 -4 17 -6 -4 -11 -2 -11 3 0 6 -4 11 -9 11 -5 0 -11 -18
-15 -39z"/>
<path d="M720 276 c0 -2 7 -6 15 -10 8 -3 15 -1 15 4 0 6 -7 10 -15 10 -8 0
-15 -2 -15 -4z"/>
</g>
</svg>
