<?xml version="1.0" standalone="no"?>
<!DOCTYPE svg PUBLIC "-//W3C//DTD SVG 20010904//EN"
 "http://www.w3.org/TR/2001/REC-SVG-20010904/DTD/svg10.dtd">
<svg version="1.0" xmlns="http://www.w3.org/2000/svg"
 width="90.000000pt" height="92.000000pt" viewBox="0 0 90.000000 92.000000"
 preserveAspectRatio="xMidYMid meet">
<metadata>
Created by potrace 1.16, written by Peter Selinger 2001-2019
</metadata>
<g transform="translate(0.000000,92.000000) scale(0.100000,-0.100000)"
fill="#000000" stroke="none">
<path d="M516 828 c5 -18 9 -53 9 -78 l0 -45 -48 -7 c-27 -3 -52 -9 -55 -13
-13 -13 25 -26 66 -22 l42 5 0 -39 c0 -21 -4 -40 -9 -44 -5 -3 -44 -6 -85 -8
-42 -1 -76 -3 -76 -5 0 -1 6 -13 14 -25 8 -12 19 -56 26 -97 12 -82 15 -89 32
-72 7 7 27 12 45 12 l34 0 -23 -42 c-13 -23 -62 -81 -109 -130 -47 -48 -80
-88 -73 -88 24 0 135 91 176 145 23 29 43 53 44 52 1 -2 -14 -210 -17 -223 -4
-23 2 -52 16 -70 15 -19 15 -19 30 0 12 16 15 52 16 165 0 141 1 145 17 121 9
-14 43 -60 75 -102 l58 -78 62 1 c110 1 112 10 17 60 -81 42 -230 166 -230
192 0 6 26 8 70 5 45 -4 73 -1 78 6 5 6 19 38 32 71 13 33 29 67 37 76 21 25
16 37 -29 60 -40 21 -44 21 -100 5 -78 -22 -88 -21 -88 8 0 39 10 56 34 56 31
0 96 20 96 29 0 17 -50 31 -76 21 -44 -17 -47 -14 -40 49 6 53 5 61 -13 70
-11 6 -29 11 -41 11 -19 0 -21 -3 -14 -32z m193 -285 c0 -21 -6 -53 -13 -72
-12 -33 -14 -34 -69 -36 l-57 -1 0 67 0 68 33 4 c17 2 49 5 70 5 37 2 37 2 36
-35z m-179 -53 l0 -70 -44 0 c-49 0 -50 1 -61 82 l-6 47 48 4 c26 2 51 4 56 5
4 1 7 -29 7 -68z"/>
<path d="M620 509 c-11 -23 -19 -43 -17 -45 6 -6 70 39 74 53 2 6 -5 16 -15
22 -18 9 -23 5 -42 -30z"/>
<path d="M459 478 c23 -37 44 -43 49 -14 5 22 -22 46 -51 46 -18 0 -18 -1 2
-32z"/>
<path d="M215 783 c-15 -89 -67 -189 -162 -308 -29 -36 -53 -68 -53 -70 0 -16
27 2 84 55 58 55 66 59 90 50 14 -5 26 -15 26 -22 0 -7 3 -23 6 -34 5 -20 1
-22 -56 -29 -78 -9 -76 -30 3 -30 l57 1 0 -83 0 -82 -37 -10 c-21 -6 -59 -11
-85 -11 -56 0 -63 -17 -22 -49 28 -22 59 -27 68 -12 3 5 52 28 108 52 118 49
133 58 119 72 -6 6 -24 4 -51 -7 -23 -9 -44 -14 -48 -12 -4 2 -6 38 -4 79 l3
75 37 6 c47 8 67 20 57 36 -5 8 -22 10 -50 7 -43 -6 -43 -6 -47 29 -4 32 -2
35 34 46 41 12 47 22 22 36 -11 6 -37 3 -77 -10 -33 -10 -64 -17 -68 -16 -4 2
13 38 38 81 l45 78 46 -42 c42 -39 46 -41 58 -24 19 26 2 50 -50 70 -42 16
-44 19 -34 41 12 25 1 46 -33 65 -16 8 -19 4 -24 -28z"/>
<path d="M314 373 c-4 -16 -13 -41 -21 -56 -13 -26 -13 -28 4 -18 10 5 31 21
47 34 30 25 29 39 -4 57 -17 9 -20 6 -26 -17z"/>
<path d="M90 344 c0 -4 10 -23 22 -43 32 -52 51 -63 62 -36 10 27 -11 62 -45
74 -37 13 -39 13 -39 5z"/>
</g>
</svg>
