<?xml version="1.0" standalone="no"?>
<!DOCTYPE svg PUBLIC "-//W3C//DTD SVG 20010904//EN"
 "http://www.w3.org/TR/2001/REC-SVG-20010904/DTD/svg10.dtd">
<svg version="1.0" xmlns="http://www.w3.org/2000/svg"
 width="96.000000pt" height="68.000000pt" viewBox="0 0 96.000000 68.000000"
 preserveAspectRatio="xMidYMid meet">
<metadata>
Created by potrace 1.16, written by Peter Selinger 2001-2019
</metadata>
<g transform="translate(0.000000,68.000000) scale(0.100000,-0.100000)"
fill="#000000" stroke="none">
<path d="M590 414 c-36 -7 -93 -13 -128 -14 -62 0 -62 0 -48 -22 8 -13 17 -39
21 -58 13 -67 15 -71 34 -60 10 5 69 11 131 13 l112 4 34 64 c32 59 33 65 17
76 -21 16 -88 15 -173 -3z m115 -13 c3 -6 1 -30 -6 -54 l-11 -44 -105 -7 c-59
-4 -110 -3 -114 1 -4 4 -11 25 -14 46 -7 37 -7 37 26 38 55 3 101 8 149 18 62
12 68 12 75 2z"/>
</g>
</svg>
