<?xml version="1.0" standalone="no"?>
<!DOCTYPE svg PUBLIC "-//W3C//DTD SVG 20010904//EN"
 "http://www.w3.org/TR/2001/REC-SVG-20010904/DTD/svg10.dtd">
<svg version="1.0" xmlns="http://www.w3.org/2000/svg"
 width="96.000000pt" height="68.000000pt" viewBox="0 0 96.000000 68.000000"
 preserveAspectRatio="xMidYMid meet">
<metadata>
Created by potrace 1.16, written by Peter Selinger 2001-2019
</metadata>
<g transform="translate(0.000000,68.000000) scale(0.100000,-0.100000)"
fill="#000000" stroke="none">
<path d="M732 477 c-11 -23 -39 -61 -63 -84 -46 -43 -44 -42 -196 -59 -35 -4
-63 -10 -63 -14 0 -15 60 -19 116 -9 31 6 58 8 61 6 7 -8 -91 -83 -169 -129
-38 -22 -67 -42 -65 -44 7 -7 81 23 135 55 29 17 80 53 113 81 56 47 64 50
117 51 31 0 75 4 97 8 l40 8 -30 12 c-19 8 -48 10 -79 6 l-48 -6 21 30 c12 16
35 41 51 55 36 30 38 49 5 64 -23 11 -26 9 -43 -31z"/>
</g>
</svg>
