<?xml version="1.0" standalone="no"?>
<!DOCTYPE svg PUBLIC "-//W3C//DTD SVG 20010904//EN"
 "http://www.w3.org/TR/2001/REC-SVG-20010904/DTD/svg10.dtd">
<svg version="1.0" xmlns="http://www.w3.org/2000/svg"
 width="96.000000pt" height="68.000000pt" viewBox="0 0 96.000000 68.000000"
 preserveAspectRatio="xMidYMid meet">
<metadata>
Created by potrace 1.16, written by Peter Selinger 2001-2019
</metadata>
<g transform="translate(0.000000,68.000000) scale(0.100000,-0.100000)"
fill="#000000" stroke="none">
<path d="M274 555 c3 -13 9 -51 12 -84 l7 -59 -49 -7 c-86 -11 -96 -24 -21
-24 l67 -1 0 -37 c0 -21 -4 -43 -8 -49 -8 -13 -149 -74 -169 -74 -18 0 -16
-27 3 -34 30 -11 49 -6 101 29 29 19 55 35 58 35 3 0 5 -30 3 -67 l-3 -68 -31
0 -31 0 30 -38 c58 -72 88 -31 80 108 l-6 92 39 28 c21 15 32 25 24 23 -62
-20 -60 -21 -60 9 0 37 9 48 43 57 24 6 27 9 17 21 -7 8 -21 15 -31 15 -24 0
-26 51 -5 92 14 26 13 29 -7 43 -12 8 -32 15 -45 15 -21 0 -23 -4 -18 -25z"/>
</g>
</svg>
