<?xml version="1.0" standalone="no"?>
<!DOCTYPE svg PUBLIC "-//W3C//DTD SVG 20010904//EN"
 "http://www.w3.org/TR/2001/REC-SVG-20010904/DTD/svg10.dtd">
<svg version="1.0" xmlns="http://www.w3.org/2000/svg"
 width="96.000000pt" height="68.000000pt" viewBox="0 0 96.000000 68.000000"
 preserveAspectRatio="xMidYMid meet">
<metadata>
Created by potrace 1.16, written by Peter Selinger 2001-2019
</metadata>
<g transform="translate(0.000000,68.000000) scale(0.100000,-0.100000)"
fill="#000000" stroke="none">
<path d="M225 544 c4 -10 10 -46 13 -80 l4 -61 -32 -7 c-18 -3 -43 -6 -56 -6
-13 0 -24 -4 -24 -10 0 -5 25 -10 55 -10 l55 0 0 -64 0 -63 -65 -18 c-69 -18
-79 -29 -42 -46 20 -9 41 -2 143 50 65 33 111 60 101 60 -10 1 -33 -5 -52 -13
-20 -9 -37 -11 -40 -6 -3 5 -3 32 1 59 7 52 8 53 72 66 17 4 32 10 32 15 0 14
-38 22 -70 15 -28 -6 -30 -5 -30 24 0 16 5 42 10 57 13 33 5 43 -45 51 -35 6
-38 4 -30 -13z"/>
</g>
</svg>
