<?xml version="1.0" standalone="no"?>
<!DOCTYPE svg PUBLIC "-//W3C//DTD SVG 20010904//EN"
 "http://www.w3.org/TR/2001/REC-SVG-20010904/DTD/svg10.dtd">
<svg version="1.0" xmlns="http://www.w3.org/2000/svg"
 width="96.000000pt" height="68.000000pt" viewBox="0 0 96.000000 68.000000"
 preserveAspectRatio="xMidYMid meet">
<metadata>
Created by potrace 1.16, written by Peter Selinger 2001-2019
</metadata>
<g transform="translate(0.000000,68.000000) scale(0.100000,-0.100000)"
fill="#000000" stroke="none">
<path d="M498 635 c-3 -4 -2 -19 4 -35 5 -16 8 -43 6 -62 -2 -27 -8 -34 -28
-36 -65 -7 -90 -14 -84 -23 3 -6 29 -9 58 -7 46 3 51 1 54 -19 5 -34 40 -30
44 5 3 25 7 28 62 34 65 8 71 11 61 29 -5 8 -25 9 -63 5 l-55 -6 5 44 c3 24 3
49 -1 54 -8 13 -54 25 -63 17z"/>
</g>
</svg>
