<?xml version="1.0" standalone="no"?>
<!DOCTYPE svg PUBLIC "-//W3C//DTD SVG 20010904//EN"
 "http://www.w3.org/TR/2001/REC-SVG-20010904/DTD/svg10.dtd">
<svg version="1.0" xmlns="http://www.w3.org/2000/svg"
 width="96.000000pt" height="68.000000pt" viewBox="0 0 96.000000 68.000000"
 preserveAspectRatio="xMidYMid meet">
<metadata>
Created by potrace 1.16, written by Peter Selinger 2001-2019
</metadata>
<g transform="translate(0.000000,68.000000) scale(0.100000,-0.100000)"
fill="#000000" stroke="none">
<path d="M215 474 c-26 -10 -55 -13 -82 -9 -44 6 -55 -3 -29 -24 7 -6 19 -39
26 -74 15 -70 23 -85 42 -69 7 6 40 14 73 17 l60 7 1 37 c1 21 9 52 19 70 9
18 14 39 11 47 -7 18 -69 17 -121 -2z m49 -66 c-4 -29 -9 -56 -13 -59 -3 -4
-22 -9 -43 -12 -36 -5 -36 -5 -47 38 -16 62 -15 63 32 73 79 18 79 18 71 -40z"/>
</g>
</svg>
