<?xml version="1.0" standalone="no"?>
<!DOCTYPE svg PUBLIC "-//W3C//DTD SVG 20010904//EN"
 "http://www.w3.org/TR/2001/REC-SVG-20010904/DTD/svg10.dtd">
<svg version="1.0" xmlns="http://www.w3.org/2000/svg"
 width="96.000000pt" height="68.000000pt" viewBox="0 0 96.000000 68.000000"
 preserveAspectRatio="xMidYMid meet">
<metadata>
Created by potrace 1.16, written by Peter Selinger 2001-2019
</metadata>
<g transform="translate(0.000000,68.000000) scale(0.100000,-0.100000)"
fill="#000000" stroke="none">
<path d="M506 412 c-3 -5 39 -51 94 -101 98 -89 102 -91 148 -90 26 1 58 4 72
8 22 6 14 11 -58 39 -46 17 -112 53 -148 79 -36 27 -74 54 -84 61 -11 8 -20 9
-24 4z"/>
<path d="M340 392 c0 -29 -74 -98 -158 -148 -53 -32 -68 -44 -47 -40 52 11
170 75 224 123 50 43 51 46 35 64 -22 24 -54 25 -54 1z"/>
</g>
</svg>
