<?xml version="1.0" standalone="no"?>
<!DOCTYPE svg PUBLIC "-//W3C//DTD SVG 20010904//EN"
 "http://www.w3.org/TR/2001/REC-SVG-20010904/DTD/svg10.dtd">
<svg version="1.0" xmlns="http://www.w3.org/2000/svg"
 width="96.000000pt" height="68.000000pt" viewBox="0 0 96.000000 68.000000"
 preserveAspectRatio="xMidYMid meet">
<metadata>
Created by potrace 1.16, written by Peter Selinger 2001-2019
</metadata>
<g transform="translate(0.000000,68.000000) scale(0.100000,-0.100000)"
fill="#000000" stroke="none">
<path d="M435 470 c20 -22 40 -26 51 -9 8 14 -14 29 -45 29 -23 0 -24 -1 -6
-20z"/>
<path d="M585 466 c33 -28 65 -34 65 -12 0 19 -6 22 -55 30 l-40 7 30 -25z"/>
<path d="M291 434 c-25 -32 -26 -43 -5 -51 21 -8 44 21 44 54 0 30 -14 29 -39
-3z"/>
<path d="M380 430 c28 -40 125 -57 203 -37 35 10 31 25 -11 43 -30 12 -32 12
-32 -6 0 -17 -7 -20 -54 -20 -43 0 -60 5 -84 25 -40 33 -48 32 -22 -5z"/>
</g>
</svg>
