<?xml version="1.0" standalone="no"?>
<!DOCTYPE svg PUBLIC "-//W3C//DTD SVG 20010904//EN"
 "http://www.w3.org/TR/2001/REC-SVG-20010904/DTD/svg10.dtd">
<svg version="1.0" xmlns="http://www.w3.org/2000/svg"
 width="90.000000pt" height="92.000000pt" viewBox="0 0 90.000000 92.000000"
 preserveAspectRatio="xMidYMid meet">
<metadata>
Created by potrace 1.16, written by Peter Selinger 2001-2019
</metadata>
<g transform="translate(0.000000,92.000000) scale(0.100000,-0.100000)"
fill="#000000" stroke="none">
<path d="M511 848 c-7 -24 -31 -74 -53 -111 -22 -38 -37 -71 -34 -74 3 -3 31
21 63 53 55 56 61 59 108 60 70 1 145 14 145 24 0 24 -41 30 -105 15 -37 -8
-68 -15 -70 -15 -2 0 4 13 13 30 19 33 13 45 -29 55 -23 6 -27 3 -38 -37z"/>
<path d="M240 841 c0 -31 -25 -76 -81 -148 -27 -35 -47 -63 -44 -63 16 0 55
27 96 67 45 43 47 44 123 47 84 4 107 15 81 36 -13 11 -26 11 -66 2 -71 -17
-76 -15 -49 13 21 22 22 27 9 40 -8 7 -26 17 -41 20 -24 6 -28 4 -28 -14z"/>
<path d="M588 699 c47 -44 65 -46 70 -7 3 23 -2 27 -42 37 -70 17 -74 13 -28
-30z"/>
<path d="M260 699 c0 -19 60 -68 76 -62 20 7 18 40 -3 51 -33 17 -73 23 -73
11z"/>
<path d="M555 614 c-16 -13 -61 -40 -99 -59 -60 -31 -65 -35 -38 -35 17 0 43
5 58 10 20 8 29 8 35 -1 8 -14 24 -217 17 -224 -2 -3 -19 -8 -38 -11 l-33 -7
5 76 c5 80 2 87 -43 87 -16 0 -18 -4 -12 -27 5 -16 8 -53 8 -83 l0 -55 -35 -6
-35 -5 27 -14 c23 -11 51 -11 155 -1 71 6 149 11 175 11 55 0 68 13 34 35 -20
13 -39 15 -95 9 l-71 -7 0 56 0 55 45 0 c61 0 107 11 102 25 -4 14 -54 15
-110 3 l-39 -9 7 47 c6 39 4 49 -10 60 -16 11 -12 14 31 26 66 18 74 27 44 50
-33 26 -49 24 -85 -6z"/>
<path d="M178 552 c-32 -15 -58 -31 -58 -36 0 -9 54 -3 98 10 30 9 28 -2 -13
-70 -19 -32 -35 -63 -35 -68 0 -5 19 -6 45 -2 51 7 56 -1 31 -60 l-14 -33 -71
5 c-45 3 -71 1 -71 -6 0 -14 25 -22 65 -22 58 0 53 -19 -28 -97 -42 -40 -72
-73 -66 -73 25 0 97 46 140 91 l48 49 43 -23 c242 -133 310 -168 334 -173 27
-5 198 42 232 64 7 5 -50 13 -132 20 -159 12 -264 40 -395 107 l-70 35 35 61
c43 78 36 94 -39 84 l-50 -6 52 65 c28 36 51 70 51 75 0 13 -34 31 -57 30 -10
0 -44 -13 -75 -27z"/>
</g>
</svg>
