<?xml version="1.0" standalone="no"?>
<!DOCTYPE svg PUBLIC "-//W3C//DTD SVG 20010904//EN"
 "http://www.w3.org/TR/2001/REC-SVG-20010904/DTD/svg10.dtd">
<svg version="1.0" xmlns="http://www.w3.org/2000/svg"
 width="96.000000pt" height="68.000000pt" viewBox="0 0 96.000000 68.000000"
 preserveAspectRatio="xMidYMid meet">
<metadata>
Created by potrace 1.16, written by Peter Selinger 2001-2019
</metadata>
<g transform="translate(0.000000,68.000000) scale(0.100000,-0.100000)"
fill="#000000" stroke="none">
<path d="M500 181 c0 -16 -11 -20 -75 -26 -99 -9 -99 -28 0 -23 l75 3 0 -27
c0 -28 -1 -28 -64 -28 -56 0 -88 -11 -73 -26 6 -6 398 14 406 21 17 18 -33 26
-126 20 l-103 -6 0 24 c0 27 27 37 99 37 20 0 43 5 51 10 10 7 -11 10 -67 10
-67 0 -83 3 -83 15 0 8 -9 15 -20 15 -13 0 -20 -7 -20 -19z"/>
</g>
</svg>
