<?xml version="1.0" standalone="no"?>
<!DOCTYPE svg PUBLIC "-//W3C//DTD SVG 20010904//EN"
 "http://www.w3.org/TR/2001/REC-SVG-20010904/DTD/svg10.dtd">
<svg version="1.0" xmlns="http://www.w3.org/2000/svg"
 width="96.000000pt" height="68.000000pt" viewBox="0 0 96.000000 68.000000"
 preserveAspectRatio="xMidYMid meet">
<metadata>
Created by potrace 1.16, written by Peter Selinger 2001-2019
</metadata>
<g transform="translate(0.000000,68.000000) scale(0.100000,-0.100000)"
fill="#000000" stroke="none">
<path d="M505 384 c-77 -7 -177 -13 -222 -13 -46 -1 -83 -3 -83 -4 0 -2 7 -18
16 -36 9 -18 22 -80 30 -138 15 -111 29 -147 49 -120 7 11 42 16 125 21 63 4
136 9 161 12 41 5 46 3 57 -20 14 -32 47 -34 63 -4 6 12 20 74 29 137 10 64
21 124 25 133 5 12 -2 21 -24 32 -34 18 -33 18 -226 0z m174 -76 c-1 -35 -4
-87 -7 -116 l-7 -53 -120 -6 c-66 -4 -149 -7 -185 -8 l-65 0 -13 104 c-7 57
-10 106 -7 109 6 7 253 29 343 31 l62 1 -1 -62z"/>
</g>
</svg>
