<?xml version="1.0" standalone="no"?>
<!DOCTYPE svg PUBLIC "-//W3C//DTD SVG 20010904//EN"
 "http://www.w3.org/TR/2001/REC-SVG-20010904/DTD/svg10.dtd">
<svg version="1.0" xmlns="http://www.w3.org/2000/svg"
 width="96.000000pt" height="68.000000pt" viewBox="0 0 96.000000 68.000000"
 preserveAspectRatio="xMidYMid meet">
<metadata>
Created by potrace 1.16, written by Peter Selinger 2001-2019
</metadata>
<g transform="translate(0.000000,68.000000) scale(0.100000,-0.100000)"
fill="#000000" stroke="none">
<path d="M215 568 c15 -52 16 -218 1 -336 -16 -126 -11 -172 18 -172 20 0 26
32 26 165 1 66 4 137 8 159 l7 38 19 -21 c24 -26 56 -28 56 -3 0 13 -13 24
-40 35 l-40 15 6 59 c6 56 5 59 -20 71 -39 18 -49 15 -41 -10z"/>
<path d="M116 370 c-19 -40 -22 -58 -15 -72 6 -11 16 -17 22 -15 30 10 48 94
27 127 -7 11 -15 2 -34 -40z"/>
</g>
</svg>
