<?xml version="1.0" standalone="no"?>
<!DOCTYPE svg PUBLIC "-//W3C//DTD SVG 20010904//EN"
 "http://www.w3.org/TR/2001/REC-SVG-20010904/DTD/svg10.dtd">
<svg version="1.0" xmlns="http://www.w3.org/2000/svg"
 width="90.000000pt" height="92.000000pt" viewBox="0 0 90.000000 92.000000"
 preserveAspectRatio="xMidYMid meet">
<metadata>
Created by potrace 1.16, written by Peter Selinger 2001-2019
</metadata>
<g transform="translate(0.000000,92.000000) scale(0.100000,-0.100000)"
fill="#000000" stroke="none">
<path d="M396 893 c4 -10 8 -31 8 -48 1 -26 -3 -30 -29 -33 -130 -11 -152 -32
-34 -32 61 0 69 -2 69 -19 0 -16 -10 -21 -52 -28 -55 -8 -64 -29 -13 -27 50 2
189 15 215 20 25 6 25 6 5 21 -14 10 -33 13 -67 8 -43 -5 -48 -4 -48 13 0 16
10 21 63 26 97 11 110 16 95 33 -9 12 -25 14 -71 8 -32 -3 -64 -8 -71 -11 -9
-3 -11 6 -8 32 5 40 -7 54 -47 54 -18 0 -22 -4 -15 -17z"/>
<path d="M510 690 c-52 -10 -144 -24 -205 -31 -115 -13 -139 -21 -109 -37 13
-6 59 -3 139 9 139 21 295 35 295 26 0 -3 -4 -17 -10 -31 -5 -14 -8 -26 -6
-26 2 0 29 11 61 25 49 22 55 28 44 41 -19 23 -65 44 -91 43 -13 -1 -66 -10
-118 -19z"/>
<path d="M373 606 c-39 -6 -74 -14 -78 -18 -12 -11 35 -20 75 -13 38 6 40 5
40 -18 0 -23 -4 -25 -70 -31 -69 -7 -88 -19 -51 -31 19 -6 281 22 290 31 14
13 -29 25 -76 20 -51 -4 -53 -4 -53 20 0 21 5 24 34 24 42 0 68 9 60 21 -7 11
-78 9 -171 -5z"/>
<path d="M485 470 c-322 -33 -395 -43 -395 -51 0 -5 14 -16 31 -24 23 -12 38
-14 62 -6 82 25 332 51 493 51 116 0 135 7 97 36 -23 17 -76 16 -288 -6z"/>
<path d="M560 411 c17 -33 12 -38 -37 -45 -27 -4 -63 -10 -82 -13 -33 -6 -33
-6 -11 -18 15 -8 36 -9 64 -4 72 14 86 12 86 -15 0 -60 -11 -85 -41 -88 l-28
-3 29 -35 c28 -34 29 -34 49 -16 18 16 21 31 21 98 l0 78 50 0 c28 0 50 4 50
10 0 17 -42 32 -72 26 -24 -5 -29 -3 -24 9 6 16 -21 35 -49 35 -12 0 -14 -4
-5 -19z"/>
<path d="M288 359 c-10 -5 -38 -10 -63 -11 -39 0 -45 -3 -39 -17 4 -9 12 -37
18 -63 6 -25 13 -49 16 -52 5 -4 37 1 118 19 19 5 22 8 12 20 -10 12 -8 22 10
52 21 35 21 38 4 50 -21 15 -52 16 -76 2z m22 -51 c0 -34 -13 -49 -45 -51 -25
-2 -29 2 -32 30 -4 33 4 39 55 42 17 1 22 -4 22 -21z"/>
<path d="M420 293 c1 -21 39 -56 54 -50 24 10 19 36 -10 47 -30 12 -44 13 -44
3z"/>
<path d="M150 170 c0 -6 -12 -29 -26 -51 -29 -47 -30 -102 -1 -107 25 -5 61
78 53 124 -6 31 -26 58 -26 34z"/>
<path d="M650 165 c0 -2 20 -33 45 -68 60 -87 85 -96 85 -32 0 36 -16 53 -77
84 -43 21 -53 25 -53 16z"/>
<path d="M290 150 c0 -11 38 -81 52 -95 14 -15 36 20 31 49 -3 14 -18 29 -39
40 -40 19 -44 19 -44 6z"/>
<path d="M483 118 c30 -51 52 -67 68 -51 22 22 2 60 -41 77 -22 9 -43 16 -46
16 -3 0 5 -19 19 -42z"/>
</g>
</svg>
