<?xml version="1.0" standalone="no"?>
<!DOCTYPE svg PUBLIC "-//W3C//DTD SVG 20010904//EN"
 "http://www.w3.org/TR/2001/REC-SVG-20010904/DTD/svg10.dtd">
<svg version="1.0" xmlns="http://www.w3.org/2000/svg"
 width="96.000000pt" height="68.000000pt" viewBox="0 0 96.000000 68.000000"
 preserveAspectRatio="xMidYMid meet">
<metadata>
Created by potrace 1.16, written by Peter Selinger 2001-2019
</metadata>
<g transform="translate(0.000000,68.000000) scale(0.100000,-0.100000)"
fill="#000000" stroke="none">
<path d="M431 419 c-85 -11 -97 -17 -33 -18 45 -1 53 -4 50 -18 -2 -14 -15
-19 -58 -21 -30 -2 -59 -8 -65 -14 -11 -12 202 -2 252 11 27 8 28 8 5 15 -13
4 -40 5 -62 1 -33 -6 -38 -4 -36 12 2 13 13 19 37 21 19 2 38 8 44 13 11 11
-42 10 -134 -2z"/>
</g>
</svg>
