<?xml version="1.0" standalone="no"?>
<!DOCTYPE svg PUBLIC "-//W3C//DTD SVG 20010904//EN"
 "http://www.w3.org/TR/2001/REC-SVG-20010904/DTD/svg10.dtd">
<svg version="1.0" xmlns="http://www.w3.org/2000/svg"
 width="90.000000pt" height="92.000000pt" viewBox="0 0 90.000000 92.000000"
 preserveAspectRatio="xMidYMid meet">
<metadata>
Created by potrace 1.16, written by Peter Selinger 2001-2019
</metadata>
<g transform="translate(0.000000,92.000000) scale(0.100000,-0.100000)"
fill="#000000" stroke="none">
<path d="M198 767 c-22 -89 -85 -217 -150 -303 -27 -37 -47 -69 -44 -72 7 -6
122 109 149 148 17 24 18 19 13 -130 -2 -85 -10 -180 -16 -211 -10 -48 -10
-60 4 -87 19 -36 30 -40 41 -14 4 9 11 114 14 232 6 178 5 219 -7 241 -14 25
-12 32 32 123 26 53 44 100 41 106 -3 6 -18 16 -33 24 l-27 14 -17 -71z"/>
<path d="M650 759 c-19 -4 -111 -20 -205 -35 -93 -15 -172 -29 -175 -31 -3 -3
4 -11 15 -19 19 -14 20 -27 20 -247 0 -261 3 -276 73 -319 35 -22 45 -23 227
-22 194 1 248 9 253 35 6 30 -41 39 -123 24 -93 -18 -294 -20 -330 -3 -47 21
-55 53 -55 210 0 79 5 175 11 213 7 39 12 78 12 87 1 12 16 20 51 28 59 13
287 40 333 40 38 0 42 12 11 34 -24 17 -63 19 -118 5z"/>
<path d="M625 643 c-27 -7 -81 -16 -120 -18 -38 -3 -71 -5 -73 -5 -1 0 4 -10
12 -22 8 -13 18 -45 21 -73 10 -67 20 -84 46 -78 18 5 20 2 17 -28 -3 -38 -21
-46 -100 -48 -53 -1 -63 -16 -21 -32 18 -7 36 -6 56 1 36 12 45 7 27 -15 -16
-19 -7 -29 44 -45 37 -12 39 -13 20 -27 -29 -23 -96 -53 -119 -53 -14 0 -16
-3 -8 -11 15 -15 105 4 152 32 l34 20 54 -37 c42 -29 56 -35 63 -24 13 20 -9
56 -46 76 -19 10 -34 21 -34 23 0 3 9 24 21 48 l21 43 64 0 c35 0 64 4 64 10
0 20 -44 32 -96 26 -31 -4 -55 -2 -59 4 -10 15 -35 12 -35 -5 0 -10 -10 -15
-30 -15 -28 0 -29 2 -18 20 11 17 10 22 -2 30 -12 8 -12 10 3 16 10 3 30 4 45
1 15 -3 33 -3 39 1 6 4 23 42 38 84 37 105 19 128 -80 101z m45 -37 c0 -33
-11 -45 -34 -36 -14 5 -44 3 -79 -5 -59 -14 -67 -12 -67 15 0 13 14 20 53 27
81 16 127 15 127 -1z m-16 -83 c-4 -16 -7 -29 -8 -29 -1 -1 -34 -5 -73 -9 -73
-7 -73 -7 -73 17 0 23 5 26 68 35 37 5 73 11 80 11 9 2 10 -6 6 -25z m-36
-194 c-10 -30 -13 -31 -51 -25 -51 8 -51 9 -35 35 10 16 23 21 55 21 l42 0
-11 -31z"/>
</g>
</svg>
