<?xml version="1.0" standalone="no"?>
<!DOCTYPE svg PUBLIC "-//W3C//DTD SVG 20010904//EN"
 "http://www.w3.org/TR/2001/REC-SVG-20010904/DTD/svg10.dtd">
<svg version="1.0" xmlns="http://www.w3.org/2000/svg"
 width="96.000000pt" height="68.000000pt" viewBox="0 0 96.000000 68.000000"
 preserveAspectRatio="xMidYMid meet">
<metadata>
Created by potrace 1.16, written by Peter Selinger 2001-2019
</metadata>
<g transform="translate(0.000000,68.000000) scale(0.100000,-0.100000)"
fill="#000000" stroke="none">
<path d="M558 308 c-3 -20 -12 -24 -68 -34 -51 -8 -60 -12 -42 -18 12 -4 36
-5 52 -1 19 4 30 3 30 -4 0 -6 -4 -11 -10 -11 -22 0 -8 -20 18 -26 54 -12 57
-13 36 -29 -10 -8 -26 -15 -34 -15 -8 -1 -28 -7 -45 -16 l-30 -14 46 5 c26 2
63 12 83 22 35 16 37 16 75 -5 45 -25 61 -28 61 -9 0 8 -16 22 -35 33 -19 10
-35 20 -35 23 0 2 11 19 26 38 23 30 30 33 77 33 38 0 48 3 37 10 -8 6 -35 10
-60 9 -25 0 -56 3 -69 7 -17 5 -22 4 -17 -4 5 -8 -4 -12 -27 -12 -30 0 -34 3
-30 20 4 15 0 20 -15 20 -14 0 -22 -8 -24 -22z m92 -48 c0 -21 -39 -48 -62
-43 -51 11 -52 12 -33 33 19 21 95 29 95 10z"/>
</g>
</svg>
