<?xml version="1.0" standalone="no"?>
<!DOCTYPE svg PUBLIC "-//W3C//DTD SVG 20010904//EN"
 "http://www.w3.org/TR/2001/REC-SVG-20010904/DTD/svg10.dtd">
<svg version="1.0" xmlns="http://www.w3.org/2000/svg"
 width="96.000000pt" height="68.000000pt" viewBox="0 0 96.000000 68.000000"
 preserveAspectRatio="xMidYMid meet">
<metadata>
Created by potrace 1.16, written by Peter Selinger 2001-2019
</metadata>
<g transform="translate(0.000000,68.000000) scale(0.100000,-0.100000)"
fill="#000000" stroke="none">
<path d="M555 509 c-16 -4 -52 -7 -78 -8 l-48 -1 7 -36 c3 -19 7 -60 8 -90 l1
-55 98 5 99 4 34 78 c19 43 34 84 34 91 0 23 -78 30 -155 12z m85 -44 c0 -34
-1 -35 -37 -35 -21 0 -55 -3 -75 -6 -37 -6 -38 -6 -38 24 0 28 4 32 38 37 20
4 44 8 52 10 51 10 60 6 60 -30z m-16 -77 c-3 -13 -8 -24 -9 -26 -5 -6 -125
-25 -129 -21 -2 2 -2 16 1 31 5 28 16 32 111 36 30 2 33 0 26 -20z"/>
</g>
</svg>
