<?xml version="1.0" standalone="no"?>
<!DOCTYPE svg PUBLIC "-//W3C//DTD SVG 20010904//EN"
 "http://www.w3.org/TR/2001/REC-SVG-20010904/DTD/svg10.dtd">
<svg version="1.0" xmlns="http://www.w3.org/2000/svg"
 width="96.000000pt" height="68.000000pt" viewBox="0 0 96.000000 68.000000"
 preserveAspectRatio="xMidYMid meet">
<metadata>
Created by potrace 1.16, written by Peter Selinger 2001-2019
</metadata>
<g transform="translate(0.000000,68.000000) scale(0.100000,-0.100000)"
fill="#000000" stroke="none">
<path d="M555 523 c-27 -8 -80 -14 -117 -15 -62 0 -83 -8 -59 -22 4 -3 11 -61
15 -128 11 -193 15 -216 37 -211 15 4 19 15 19 54 l0 49 64 0 c35 0 72 3 82 7
15 6 16 1 10 -45 -6 -50 -6 -52 18 -52 23 0 25 4 30 63 13 139 25 243 31 264
6 17 1 25 -24 37 -35 18 -39 18 -106 -1z m55 -78 l0 -55 -32 0 c-18 0 -57 -3
-85 -6 l-53 -7 0 51 0 51 38 6 c20 4 44 8 52 10 8 1 30 3 48 4 l32 1 0 -55z
m0 -119 l0 -43 -61 -7 c-103 -10 -99 -12 -99 39 l0 44 58 4 c31 2 67 4 80 5
20 2 22 -2 22 -42z"/>
</g>
</svg>
