<?xml version="1.0" standalone="no"?>
<!DOCTYPE svg PUBLIC "-//W3C//DTD SVG 20010904//EN"
 "http://www.w3.org/TR/2001/REC-SVG-20010904/DTD/svg10.dtd">
<svg version="1.0" xmlns="http://www.w3.org/2000/svg"
 width="90.000000pt" height="92.000000pt" viewBox="0 0 90.000000 92.000000"
 preserveAspectRatio="xMidYMid meet">
<metadata>
Created by potrace 1.16, written by Peter Selinger 2001-2019
</metadata>
<g transform="translate(0.000000,92.000000) scale(0.100000,-0.100000)"
fill="#000000" stroke="none">
<path d="M467 816 l6 -64 -72 -7 c-91 -9 -91 -29 0 -33 63 -3 79 -12 79 -44 0
-12 -14 -18 -60 -23 -77 -9 -75 -29 3 -33 l57 -3 0 -33 0 -33 -112 -12 c-142
-16 -150 -18 -118 -36 32 -18 70 -18 145 1 38 9 133 17 258 21 154 5 197 9
197 19 0 8 -14 21 -32 30 -27 14 -41 15 -93 6 -33 -6 -93 -15 -134 -18 l-73
-7 7 34 c9 40 19 48 60 50 43 1 76 12 75 24 -1 16 -51 25 -92 16 -37 -9 -38
-8 -38 19 0 27 3 28 78 41 78 14 92 25 53 45 -16 8 -36 8 -78 -2 l-55 -13 6
49 c6 42 4 50 -13 59 -11 6 -28 11 -39 11 -18 0 -19 -5 -15 -64z"/>
<path d="M178 710 c43 -43 55 -50 67 -40 39 33 -1 78 -77 87 l-43 5 53 -52z"/>
<path d="M85 521 c56 -58 88 -65 93 -19 4 34 -27 56 -94 64 l-49 7 50 -52z"/>
<path d="M540 459 c-36 -10 -93 -18 -128 -18 l-62 -1 16 -25 c27 -41 16 -213
-19 -289 -34 -73 -34 -76 3 -41 16 15 39 52 51 80 l22 52 61 7 c33 3 73 9 89
12 27 6 27 6 27 -43 0 -59 -12 -74 -53 -66 -29 6 -30 5 -16 -13 71 -98 79
-102 106 -51 14 25 18 61 19 177 1 80 4 157 6 173 2 22 -3 31 -27 45 -29 17
-33 17 -95 1z m44 -35 c10 -4 16 -18 16 -36 0 -27 -2 -29 -27 -24 -16 3 -53
-1 -83 -9 -30 -8 -58 -15 -61 -15 -7 0 -5 58 2 65 3 2 34 8 69 13 36 5 66 10
67 11 1 0 8 -2 17 -5z m16 -118 c0 -33 0 -33 -57 -40 -32 -3 -73 -9 -90 -12
-31 -6 -33 -5 -33 23 0 29 1 29 88 45 48 8 88 16 90 17 1 0 2 -14 2 -33z"/>
<path d="M209 370 c-18 -35 -56 -88 -83 -117 l-49 -54 18 -44 c18 -49 40 -58
50 -22 4 12 30 79 57 149 56 143 59 186 7 88z"/>
</g>
</svg>
