<?xml version="1.0" standalone="no"?>
<!DOCTYPE svg PUBLIC "-//W3C//DTD SVG 20010904//EN"
 "http://www.w3.org/TR/2001/REC-SVG-20010904/DTD/svg10.dtd">
<svg version="1.0" xmlns="http://www.w3.org/2000/svg"
 width="96.000000pt" height="68.000000pt" viewBox="0 0 96.000000 68.000000"
 preserveAspectRatio="xMidYMid meet">
<metadata>
Created by potrace 1.16, written by Peter Selinger 2001-2019
</metadata>
<g transform="translate(0.000000,68.000000) scale(0.100000,-0.100000)"
fill="#000000" stroke="none">
<path d="M235 400 c-16 -4 -50 -8 -75 -9 l-45 -1 3 -117 c3 -119 10 -145 34
-126 7 6 37 13 66 17 49 6 53 5 64 -19 6 -14 17 -25 24 -25 26 0 37 44 38 154
1 138 -10 151 -109 126z m63 -62 l3 -36 -63 -9 c-35 -5 -66 -8 -70 -6 -5 3 -8
22 -8 43 0 44 10 49 90 46 44 -1 45 -2 48 -38z m2 -95 c0 -43 -10 -50 -77 -57
l-63 -7 0 40 c0 45 5 48 88 50 50 1 52 0 52 -26z"/>
</g>
</svg>
