<?xml version="1.0" standalone="no"?>
<!DOCTYPE svg PUBLIC "-//W3C//DTD SVG 20010904//EN"
 "http://www.w3.org/TR/2001/REC-SVG-20010904/DTD/svg10.dtd">
<svg version="1.0" xmlns="http://www.w3.org/2000/svg"
 width="96.000000pt" height="68.000000pt" viewBox="0 0 96.000000 68.000000"
 preserveAspectRatio="xMidYMid meet">
<metadata>
Created by potrace 1.16, written by Peter Selinger 2001-2019
</metadata>
<g transform="translate(0.000000,68.000000) scale(0.100000,-0.100000)"
fill="#000000" stroke="none">
<path d="M450 600 c0 -6 9 -24 20 -40 l20 -27 -58 -6 c-31 -4 -96 -9 -144 -13
-87 -7 -104 -14 -72 -32 14 -8 16 -23 12 -98 -6 -103 -43 -205 -108 -297 -21
-31 -36 -58 -33 -61 10 -10 94 67 118 108 36 61 54 119 76 235 10 57 21 106
23 109 3 2 78 8 168 13 245 14 308 20 308 28 0 22 -57 32 -142 25 -77 -6 -88
-5 -88 9 0 19 -33 43 -72 52 -19 5 -28 3 -28 -5z"/>
<path d="M406 445 c5 -28 3 -33 -18 -38 -12 -4 -38 -7 -56 -7 -20 0 -31 -4
-27 -10 3 -5 29 -10 56 -10 47 0 50 -2 47 -22 -2 -19 -11 -24 -43 -28 -24 -3
-35 -8 -28 -13 7 -4 49 -3 95 3 45 5 86 10 91 10 4 0 5 5 2 11 -4 6 -23 9 -44
7 -31 -2 -36 0 -33 17 5 26 2 25 61 32 50 6 64 16 38 26 -7 3 -32 2 -55 -3
-41 -7 -42 -7 -42 20 0 22 -6 29 -25 32 -24 5 -25 3 -19 -27z"/>
<path d="M686 428 c4 -24 7 -47 7 -53 0 -41 -4 -45 -40 -46 -46 -2 -104 -15
-83 -20 8 -1 39 -3 69 -3 l53 -1 -1 -104 c-1 -58 -5 -109 -8 -114 -3 -5 -19
-6 -35 -3 l-29 6 33 -40 c61 -74 72 -57 78 125 l5 140 53 3 c67 4 66 26 -2 30
-52 3 -52 3 -31 78 5 15 0 23 -20 32 -48 22 -56 17 -49 -30z"/>
<path d="M447 284 c-4 -4 -82 -13 -112 -14 -26 -1 -28 -2 -13 -13 9 -7 21 -35
27 -63 5 -27 13 -61 17 -76 l6 -28 -62 0 c-62 0 -63 0 -45 -20 23 -26 25 -26
182 12 131 32 177 54 86 41 -43 -6 -46 -5 -38 13 4 10 9 34 11 53 2 19 13 44
24 56 18 19 19 24 6 34 -11 9 -80 13 -89 5z m43 -33 c0 -26 -5 -28 -70 -32
-49 -4 -55 -2 -55 16 0 21 29 32 93 34 25 1 32 -3 32 -18z m-24 -93 c-8 -49
-5 -44 -33 -52 -18 -6 -23 -3 -23 12 0 10 -9 27 -20 37 -11 10 -20 22 -20 26
0 8 30 16 74 18 28 1 28 0 22 -41z"/>
<path d="M587 244 c-9 -10 35 -54 55 -54 23 0 23 29 1 46 -19 14 -46 18 -56 8z"/>
</g>
</svg>
