<?xml version="1.0" standalone="no"?>
<!DOCTYPE svg PUBLIC "-//W3C//DTD SVG 20010904//EN"
 "http://www.w3.org/TR/2001/REC-SVG-20010904/DTD/svg10.dtd">
<svg version="1.0" xmlns="http://www.w3.org/2000/svg"
 width="90.000000pt" height="92.000000pt" viewBox="0 0 90.000000 92.000000"
 preserveAspectRatio="xMidYMid meet">
<metadata>
Created by potrace 1.16, written by Peter Selinger 2001-2019
</metadata>
<g transform="translate(0.000000,92.000000) scale(0.100000,-0.100000)"
fill="#000000" stroke="none">
<path d="M640 859 c0 -6 -12 -32 -27 -56 -22 -34 -32 -43 -49 -39 -35 9 -35
-6 0 -40 19 -18 59 -68 90 -111 97 -136 100 -138 171 -119 27 6 50 17 52 22 2
6 -25 23 -59 40 -57 26 -148 96 -148 113 0 4 27 20 60 36 33 16 60 34 60 41 0
6 -12 20 -27 29 -26 17 -27 17 -47 -11 -12 -16 -31 -40 -43 -54 l-21 -25 -31
29 -30 29 54 34 c30 19 55 38 55 42 0 8 -26 33 -47 45 -8 4 -13 2 -13 -5z"/>
<path d="M420 800 c-14 -4 -38 -11 -55 -15 -27 -6 -28 -8 -10 -15 11 -4 37 -5
58 -2 20 2 37 2 37 -1 0 -20 -43 -118 -49 -110 -10 16 -48 33 -72 33 -20 0
-19 -3 15 -45 42 -51 41 -56 -26 -137 -21 -27 -36 -48 -32 -48 20 0 88 58 118
99 36 49 116 200 116 217 0 12 -44 34 -63 33 -7 0 -23 -4 -37 -9z"/>
<path d="M165 705 c-22 -8 -59 -14 -82 -14 l-42 -1 11 -31 c7 -22 9 -99 5
-235 -4 -156 -3 -206 7 -220 12 -15 14 -15 22 -2 5 9 31 18 62 22 49 6 53 5
64 -19 15 -33 34 -32 53 4 12 25 13 49 5 154 -5 68 -8 133 -6 144 2 10 6 54 7
97 3 72 2 80 -20 97 -26 22 -31 22 -86 4z m55 -95 c0 -56 -2 -60 -22 -60 -13
0 -40 -3 -60 -6 l-38 -7 0 61 c0 67 2 69 78 71 l42 1 0 -60z m2 -100 c2 -6 2
-30 0 -54 -3 -37 -7 -44 -25 -43 -12 0 -39 -3 -59 -7 l-38 -8 0 55 0 56 38 4
c71 7 80 7 84 -3z m-2 -184 l0 -53 -61 -7 c-34 -4 -63 -5 -66 -3 -2 3 -1 27 3
55 7 55 8 55 97 60 26 2 27 1 27 -52z"/>
<path d="M488 583 c-62 -16 -73 -29 -33 -39 37 -9 150 18 150 36 0 21 -47 22
-117 3z"/>
<path d="M555 484 c-38 -7 -94 -14 -123 -15 -44 -2 -52 -5 -46 -18 6 -16 17
-58 29 -113 4 -23 9 -27 33 -23 15 2 54 7 86 10 l59 6 -6 -66 c-4 -36 -9 -70
-12 -75 -4 -6 -21 -10 -39 -10 -32 0 -34 2 -39 42 -6 41 -36 77 -64 78 -18 0
-16 -12 11 -74 l24 -54 -99 -7 c-54 -4 -99 -11 -99 -15 0 -19 62 -32 118 -25
31 4 143 11 247 14 159 5 190 8 190 21 0 30 -50 42 -140 33 -47 -5 -85 -8 -85
-6 0 1 14 24 30 50 34 54 37 68 13 77 -15 6 -15 8 -3 16 8 5 11 12 8 16 -9 8
15 56 36 73 24 20 19 39 -16 61 -18 11 -35 19 -38 19 -3 -1 -36 -8 -75 -15z
m51 -32 c6 -4 9 -23 6 -43 l-4 -37 -74 -11 c-41 -6 -79 -11 -83 -11 -5 0 -11
18 -13 40 -4 46 -4 45 95 60 28 4 54 8 57 9 3 0 10 -3 16 -7z"/>
</g>
</svg>
