<?xml version="1.0" standalone="no"?>
<!DOCTYPE svg PUBLIC "-//W3C//DTD SVG 20010904//EN"
 "http://www.w3.org/TR/2001/REC-SVG-20010904/DTD/svg10.dtd">
<svg version="1.0" xmlns="http://www.w3.org/2000/svg"
 width="96.000000pt" height="68.000000pt" viewBox="0 0 96.000000 68.000000"
 preserveAspectRatio="xMidYMid meet">
<metadata>
Created by potrace 1.16, written by Peter Selinger 2001-2019
</metadata>
<g transform="translate(0.000000,68.000000) scale(0.100000,-0.100000)"
fill="#000000" stroke="none">
<path d="M527 301 c5 -38 5 -38 -33 -44 -22 -4 -67 -7 -101 -7 -64 0 -84 -14
-37 -26 14 -4 50 -4 80 0 30 3 54 2 54 -3 0 -13 -89 -93 -134 -121 -22 -13
-35 -25 -29 -27 19 -7 89 34 143 82 28 25 53 45 57 45 3 0 3 -35 0 -77 -7 -82
1 -110 27 -100 12 5 16 25 18 91 l3 86 35 -32 c19 -17 52 -47 73 -67 34 -33
41 -35 93 -33 31 1 61 5 66 8 5 3 -21 17 -58 30 -61 21 -122 57 -194 114 l-25
20 113 0 c61 0 112 4 112 9 0 19 -65 30 -135 22 -38 -5 -73 -7 -77 -5 -3 2 -4
13 -1 24 6 24 -13 50 -37 50 -15 0 -17 -6 -13 -39z"/>
</g>
</svg>
