<?xml version="1.0" standalone="no"?>
<!DOCTYPE svg PUBLIC "-//W3C//DTD SVG 20010904//EN"
 "http://www.w3.org/TR/2001/REC-SVG-20010904/DTD/svg10.dtd">
<svg version="1.0" xmlns="http://www.w3.org/2000/svg"
 width="90.000000pt" height="92.000000pt" viewBox="0 0 90.000000 92.000000"
 preserveAspectRatio="xMidYMid meet">
<metadata>
Created by potrace 1.16, written by Peter Selinger 2001-2019
</metadata>
<g transform="translate(0.000000,92.000000) scale(0.100000,-0.100000)"
fill="#000000" stroke="none">
<path d="M174 813 c12 -48 19 -214 9 -224 -5 -5 -43 -14 -86 -21 -100 -15 -96
-33 6 -33 43 1 77 0 77 -2 0 -21 -86 -168 -127 -219 -30 -36 -52 -68 -49 -71
14 -15 100 71 168 167 18 25 18 24 13 -40 -3 -36 -10 -106 -16 -155 -10 -78
-9 -96 6 -130 15 -38 17 -39 31 -21 10 14 14 52 15 130 2 97 4 176 8 226 1 11
5 10 17 -5 39 -52 56 -67 66 -57 21 21 3 56 -39 80 -40 22 -43 26 -43 67 l0
43 50 12 c28 7 52 16 55 21 10 15 -36 31 -71 24 -39 -7 -38 -13 -23 105 l10
85 -26 22 c-37 33 -59 31 -51 -4z"/>
<path d="M400 765 c0 -8 14 -17 34 -21 l35 -6 -24 -54 c-28 -64 -73 -131 -124
-184 -48 -51 -26 -53 40 -4 30 22 69 67 102 115 l52 80 100 -106 c73 -77 108
-107 130 -111 35 -5 131 17 128 30 -1 5 -35 21 -75 36 -97 36 -141 64 -242
160 -74 69 -90 80 -121 80 -24 0 -35 -5 -35 -15z"/>
<path d="M609 486 c-4 -4 -122 -28 -202 -41 -32 -5 -36 -9 -27 -21 8 -9 31
-14 61 -14 l49 0 0 -49 0 -49 -52 -9 c-66 -10 -65 -27 2 -31 27 -2 50 -6 51
-10 0 -4 2 -26 5 -48 7 -49 4 -50 -124 -60 -87 -7 -99 -18 -48 -42 24 -12 40
-12 109 3 45 9 151 19 235 22 160 6 173 12 114 46 -29 17 -36 17 -133 3 -57
-9 -105 -14 -107 -12 -2 3 0 28 5 57 l8 54 50 8 c77 12 84 16 60 33 -14 11
-33 14 -67 9 -53 -6 -55 -3 -42 63 5 27 11 30 53 36 25 3 53 11 61 16 13 9 12
12 -4 25 -19 14 -48 20 -57 11z"/>
</g>
</svg>
