<?xml version="1.0" standalone="no"?>
<!DOCTYPE svg PUBLIC "-//W3C//DTD SVG 20010904//EN"
 "http://www.w3.org/TR/2001/REC-SVG-20010904/DTD/svg10.dtd">
<svg version="1.0" xmlns="http://www.w3.org/2000/svg"
 width="96.000000pt" height="68.000000pt" viewBox="0 0 96.000000 68.000000"
 preserveAspectRatio="xMidYMid meet">
<metadata>
Created by potrace 1.16, written by Peter Selinger 2001-2019
</metadata>
<g transform="translate(0.000000,68.000000) scale(0.100000,-0.100000)"
fill="#000000" stroke="none">
<path d="M247 593 c-3 -2 -1 -17 4 -33 6 -15 9 -54 7 -86 l-3 -59 -67 -9 c-38
-4 -68 -12 -68 -17 0 -5 27 -9 60 -9 44 0 60 -4 60 -13 0 -19 -53 -93 -108
-150 -30 -30 -41 -47 -30 -47 21 0 87 54 117 96 32 45 43 43 37 -8 -20 -162
-18 -218 9 -218 21 0 25 25 25 146 0 63 4 114 8 114 5 0 19 -11 32 -25 15 -16
27 -22 33 -16 16 16 0 40 -38 55 -32 14 -35 18 -29 43 10 40 12 43 37 43 27 0
54 16 44 26 -4 4 -23 7 -43 6 l-36 -1 7 73 7 73 -30 11 c-17 6 -33 8 -35 5z"/>
</g>
</svg>
