<?xml version="1.0" standalone="no"?>
<!DOCTYPE svg PUBLIC "-//W3C//DTD SVG 20010904//EN"
 "http://www.w3.org/TR/2001/REC-SVG-20010904/DTD/svg10.dtd">
<svg version="1.0" xmlns="http://www.w3.org/2000/svg"
 width="96.000000pt" height="68.000000pt" viewBox="0 0 96.000000 68.000000"
 preserveAspectRatio="xMidYMid meet">
<metadata>
Created by potrace 1.16, written by Peter Selinger 2001-2019
</metadata>
<g transform="translate(0.000000,68.000000) scale(0.100000,-0.100000)"
fill="#000000" stroke="none">
<path d="M260 582 c0 -16 46 -52 68 -52 34 0 29 36 -5 44 -16 4 -36 9 -45 12
-10 3 -18 1 -18 -4z"/>
<path d="M215 460 c31 -32 75 -41 75 -14 0 15 -56 44 -87 44 -13 0 -11 -6 12
-30z"/>
<path d="M300 380 c-19 -16 -47 -34 -62 -41 -32 -13 -35 -27 -13 -55 15 -18
16 -18 40 11 45 54 86 115 78 115 -4 0 -24 -14 -43 -30z"/>
</g>
</svg>
