<?xml version="1.0" standalone="no"?>
<!DOCTYPE svg PUBLIC "-//W3C//DTD SVG 20010904//EN"
 "http://www.w3.org/TR/2001/REC-SVG-20010904/DTD/svg10.dtd">
<svg version="1.0" xmlns="http://www.w3.org/2000/svg"
 width="96.000000pt" height="68.000000pt" viewBox="0 0 96.000000 68.000000"
 preserveAspectRatio="xMidYMid meet">
<metadata>
Created by potrace 1.16, written by Peter Selinger 2001-2019
</metadata>
<g transform="translate(0.000000,68.000000) scale(0.100000,-0.100000)"
fill="#000000" stroke="none">
<path d="M439 273 c-1 -5 -1 -15 0 -24 2 -18 -23 -22 -211 -35 -54 -3 -98 -10
-98 -14 0 -18 75 -23 166 -11 156 19 144 25 144 -71 0 -92 11 -124 29 -90 6
11 11 43 11 70 0 27 3 64 6 81 l7 31 158 0 c156 0 184 6 138 30 -19 11 -207 7
-267 -6 -15 -3 -25 1 -29 13 -10 28 -51 47 -54 26z"/>
</g>
</svg>
