<?xml version="1.0" standalone="no"?>
<!DOCTYPE svg PUBLIC "-//W3C//DTD SVG 20010904//EN"
 "http://www.w3.org/TR/2001/REC-SVG-20010904/DTD/svg10.dtd">
<svg version="1.0" xmlns="http://www.w3.org/2000/svg"
 width="96.000000pt" height="68.000000pt" viewBox="0 0 96.000000 68.000000"
 preserveAspectRatio="xMidYMid meet">
<metadata>
Created by potrace 1.16, written by Peter Selinger 2001-2019
</metadata>
<g transform="translate(0.000000,68.000000) scale(0.100000,-0.100000)"
fill="#000000" stroke="none">
<path d="M180 542 c0 -17 56 -62 80 -64 38 -4 40 36 3 50 -44 16 -83 23 -83
14z"/>
<path d="M190 381 c-75 -28 -77 -31 -17 -26 60 5 63 3 47 -40 -9 -23 -6 -32
20 -63 54 -65 38 -82 -79 -82 -56 0 -62 -2 -50 -16 10 -13 27 -14 98 -9 83 6
92 5 256 -44 93 -28 179 -51 190 -51 20 0 184 46 192 53 2 2 -72 9 -164 14
-95 6 -217 21 -281 34 -112 24 -113 24 -107 50 5 22 0 33 -26 57 l-32 30 31
40 c36 45 39 57 16 66 -22 9 -43 6 -94 -13z"/>
</g>
</svg>
