<?xml version="1.0" standalone="no"?>
<!DOCTYPE svg PUBLIC "-//W3C//DTD SVG 20010904//EN"
 "http://www.w3.org/TR/2001/REC-SVG-20010904/DTD/svg10.dtd">
<svg version="1.0" xmlns="http://www.w3.org/2000/svg"
 width="96.000000pt" height="68.000000pt" viewBox="0 0 96.000000 68.000000"
 preserveAspectRatio="xMidYMid meet">
<metadata>
Created by potrace 1.16, written by Peter Selinger 2001-2019
</metadata>
<g transform="translate(0.000000,68.000000) scale(0.100000,-0.100000)"
fill="#000000" stroke="none">
<path d="M625 520 c7 -67 6 -70 -14 -70 -12 0 -21 -4 -21 -10 0 -5 9 -10 20
-10 15 0 20 -7 20 -29 0 -25 -5 -29 -42 -38 -34 -8 -37 -11 -16 -12 41 -2 44
-19 8 -56 -35 -36 -36 -74 -2 -60 9 4 44 15 76 24 46 12 60 13 63 4 6 -17 43
-17 43 0 0 18 -28 43 -58 52 -21 6 -23 4 -18 -13 6 -16 1 -20 -31 -25 -47 -8
-52 -3 -24 26 12 14 19 31 16 39 -7 19 21 28 87 28 26 0 49 4 52 9 9 14 -51
22 -81 10 -30 -11 -47 -1 -41 27 2 13 13 20 33 22 46 5 55 22 12 22 l-36 0 -3
56 c-3 49 -6 58 -27 65 l-23 9 7 -70z"/>
<path d="M384 460 c6 -116 6 -120 -14 -120 -25 0 -26 18 -2 36 16 13 16 13 0
14 -20 0 -24 15 -7 25 6 5 4 12 -8 20 -17 13 -17 14 0 20 21 9 23 25 2 25 -9
0 -15 9 -15 25 0 16 -6 25 -16 25 -11 0 -15 -8 -13 -28 2 -15 0 -33 -4 -40 -5
-7 -3 -12 4 -12 6 0 9 -8 6 -20 -3 -10 0 -21 7 -23 8 -3 7 -9 -3 -20 -9 -11
-10 -17 -2 -17 6 0 11 -9 11 -20 0 -13 -7 -20 -19 -20 -15 0 -20 10 -25 54 -6
43 -11 55 -28 59 -17 5 -19 3 -12 -21 5 -15 8 -48 9 -74 0 -25 3 -49 7 -53 4
-4 28 0 55 9 84 27 166 37 179 20 6 -8 14 -14 17 -14 7 0 24 55 32 107 6 36 4
44 -11 50 -10 4 -19 2 -22 -5 -6 -20 -32 -13 -32 8 0 12 7 20 18 21 10 0 12 3
5 6 -7 2 -13 15 -13 28 0 12 -7 25 -15 29 -11 4 -15 -2 -15 -24 0 -22 -5 -30
-17 -30 -11 0 -14 -3 -7 -8 20 -14 25 -42 6 -43 -10 0 -12 -3 -4 -6 6 -2 12
-13 12 -23 0 -10 -6 -21 -12 -23 -10 -4 -10 -6 0 -6 19 -1 15 -41 -5 -41 -16
0 -18 10 -15 106 3 105 -1 123 -31 124 -5 0 -6 -54 -3 -120z m126 -49 c0 -16
-3 -36 -6 -45 -9 -23 -34 -20 -34 4 0 12 7 20 17 20 15 0 15 1 -2 13 -19 15
-13 37 11 37 9 0 14 -10 14 -29z"/>
<path d="M152 518 c7 -20 68 -57 84 -51 23 8 16 39 -11 51 -35 16 -78 16 -73
0z"/>
<path d="M95 391 c-8 -13 55 -73 72 -69 40 8 17 53 -34 67 -18 5 -35 6 -38 2z"/>
<path d="M362 280 c-18 -4 -36 -11 -40 -15 -9 -10 90 3 121 15 19 8 18 9 -13
8 -19 0 -50 -4 -68 -8z"/>
<path d="M201 224 c-18 -32 -44 -71 -58 -86 -23 -24 -24 -29 -13 -62 22 -66
41 -47 78 74 19 60 32 115 30 121 -2 7 -19 -14 -37 -47z"/>
<path d="M409 240 c-8 -5 -34 -10 -58 -11 -34 -2 -40 -6 -34 -18 4 -9 7 -32 7
-53 1 -20 4 -40 9 -44 20 -21 5 -34 -40 -34 -44 0 -46 -1 -31 -17 16 -15 22
-15 93 2 69 16 77 20 91 52 9 18 14 36 11 40 -4 3 0 22 9 41 12 28 12 37 2 44
-17 10 -39 10 -59 -2z m19 -36 c-2 -8 -6 -15 -10 -15 -4 0 -21 -4 -38 -9 -25
-7 -32 -5 -40 10 -11 21 1 27 58 29 25 1 33 -3 30 -15z m2 -53 c0 -32 -21 -61
-45 -61 -14 0 -25 6 -25 13 0 6 -3 22 -6 35 -6 20 -3 22 35 22 22 0 41 -4 41
-9z"/>
<path d="M675 209 c-27 -5 -74 -10 -102 -11 -49 -2 -52 -4 -46 -23 4 -11 7
-36 8 -55 0 -32 -3 -35 -35 -41 -28 -4 -31 -7 -17 -13 10 -5 60 -3 112 4 52 6
119 11 148 10 80 -3 97 -1 97 10 0 5 -22 12 -50 16 -27 4 -50 11 -50 16 0 6 9
23 21 40 21 28 21 30 3 43 -21 16 -20 16 -89 4z m45 -28 c0 -38 -22 -81 -41
-81 -23 0 -23 1 -4 46 8 20 12 40 9 45 -3 5 4 9 15 9 14 0 21 -6 21 -19z m-67
-33 c-5 -41 -18 -67 -27 -57 -4 4 -9 74 -7 92 1 4 10 7 20 7 17 0 18 -6 14
-42z m-59 1 c10 -49 7 -59 -13 -59 -15 0 -20 9 -23 41 -2 22 -2 42 1 45 13 13
29 0 35 -27z"/>
<path d="M450 100 c0 -12 8 -12 35 0 18 8 17 9 -7 9 -16 1 -28 -3 -28 -9z"/>
</g>
</svg>
