<?xml version="1.0" standalone="no"?>
<!DOCTYPE svg PUBLIC "-//W3C//DTD SVG 20010904//EN"
 "http://www.w3.org/TR/2001/REC-SVG-20010904/DTD/svg10.dtd">
<svg version="1.0" xmlns="http://www.w3.org/2000/svg"
 width="96.000000pt" height="68.000000pt" viewBox="0 0 96.000000 68.000000"
 preserveAspectRatio="xMidYMid meet">
<metadata>
Created by potrace 1.16, written by Peter Selinger 2001-2019
</metadata>
<g transform="translate(0.000000,68.000000) scale(0.100000,-0.100000)"
fill="#000000" stroke="none">
<path d="M178 499 c34 -30 62 -35 70 -11 4 13 -55 42 -85 42 -14 -1 -10 -7 15
-31z"/>
<path d="M109 372 c19 -36 71 -56 71 -28 0 18 -19 33 -54 42 -26 6 -27 5 -17
-14z"/>
<path d="M197 211 c-20 -38 -44 -74 -52 -81 -8 -7 -15 -21 -15 -32 0 -24 18
-58 30 -58 9 0 85 229 78 235 -2 2 -20 -27 -41 -64z"/>
</g>
</svg>
