<?xml version="1.0" standalone="no"?>
<!DOCTYPE svg PUBLIC "-//W3C//DTD SVG 20010904//EN"
 "http://www.w3.org/TR/2001/REC-SVG-20010904/DTD/svg10.dtd">
<svg version="1.0" xmlns="http://www.w3.org/2000/svg"
 width="96.000000pt" height="68.000000pt" viewBox="0 0 96.000000 68.000000"
 preserveAspectRatio="xMidYMid meet">
<metadata>
Created by potrace 1.16, written by Peter Selinger 2001-2019
</metadata>
<g transform="translate(0.000000,68.000000) scale(0.100000,-0.100000)"
fill="#000000" stroke="none">
<path d="M480 216 c-100 -19 -106 -24 -114 -104 -4 -37 -4 -76 0 -85 7 -18 24
-23 24 -7 0 6 38 10 95 10 57 0 95 -4 95 -10 0 -18 29 -11 40 10 6 11 10 46 9
78 -1 31 1 67 5 78 5 16 0 23 -19 32 -31 14 -48 14 -135 -2z m94 -38 c5 -15 7
-30 5 -33 -3 -2 -45 -8 -93 -11 l-88 -7 4 29 c3 27 7 29 68 40 86 15 93 14
104 -18z m4 -96 l3 -32 -59 0 c-33 0 -74 -3 -91 -6 -30 -6 -31 -5 -31 29 l0
36 73 4 c104 5 102 6 105 -31z"/>
</g>
</svg>
