<?xml version="1.0" standalone="no"?>
<!DOCTYPE svg PUBLIC "-//W3C//DTD SVG 20010904//EN"
 "http://www.w3.org/TR/2001/REC-SVG-20010904/DTD/svg10.dtd">
<svg version="1.0" xmlns="http://www.w3.org/2000/svg"
 width="96.000000pt" height="68.000000pt" viewBox="0 0 96.000000 68.000000"
 preserveAspectRatio="xMidYMid meet">
<metadata>
Created by potrace 1.16, written by Peter Selinger 2001-2019
</metadata>
<g transform="translate(0.000000,68.000000) scale(0.100000,-0.100000)"
fill="#000000" stroke="none">
<path d="M260 519 c-14 -6 -45 -8 -69 -5 -41 6 -43 5 -37 -17 27 -99 12 -270
-32 -360 -16 -31 -25 -57 -21 -57 17 0 70 75 81 116 10 38 16 44 38 44 15 0
37 11 50 25 37 39 43 32 38 -50 -6 -85 -16 -104 -56 -97 l-27 5 29 -32 c35
-37 59 -39 80 -9 13 18 16 55 16 195 0 97 5 184 11 200 8 23 7 30 -7 40 -21
15 -59 16 -94 2z m48 -61 c3 -41 2 -42 -60 -32 -32 6 -38 11 -38 31 0 26 29
43 70 40 21 -2 25 -8 28 -39z m2 -118 c0 -22 -13 -32 -67 -53 l-43 -17 0 38
c0 20 3 53 6 73 l6 37 49 -31 c28 -17 49 -37 49 -47z"/>
</g>
</svg>
