<?xml version="1.0" standalone="no"?>
<!DOCTYPE svg PUBLIC "-//W3C//DTD SVG 20010904//EN"
 "http://www.w3.org/TR/2001/REC-SVG-20010904/DTD/svg10.dtd">
<svg version="1.0" xmlns="http://www.w3.org/2000/svg"
 width="96.000000pt" height="68.000000pt" viewBox="0 0 96.000000 68.000000"
 preserveAspectRatio="xMidYMid meet">
<metadata>
Created by potrace 1.16, written by Peter Selinger 2001-2019
</metadata>
<g transform="translate(0.000000,68.000000) scale(0.100000,-0.100000)"
fill="#000000" stroke="none">
<path d="M297 565 c-7 -44 -83 -161 -149 -231 -76 -80 -23 -68 64 14 21 20 41
33 44 29 4 -4 1 -60 -6 -124 -16 -155 -16 -172 4 -191 32 -32 41 -1 47 171 4
121 3 166 -7 177 -10 12 -3 27 36 85 45 65 47 71 33 87 -9 10 -26 18 -38 18
-18 0 -24 -7 -28 -35z"/>
<path d="M590 575 c-30 -7 -74 -14 -97 -14 -24 -1 -43 -6 -43 -12 0 -8 22 -9
73 -3 119 13 132 12 135 -13 2 -16 -3 -22 -25 -27 -26 -5 -232 -26 -260 -26
-7 0 -13 -4 -13 -10 0 -10 107 -7 219 6 59 7 63 6 59 -12 -3 -16 -20 -22 -98
-35 -106 -17 -108 -34 -2 -24 139 13 139 13 146 51 l7 34 59 0 c58 0 85 12 54
24 -9 3 -33 6 -55 6 -37 0 -38 1 -29 24 8 22 5 26 -22 35 -35 13 -34 13 -108
-4z"/>
<path d="M719 375 c-3 -2 -72 -11 -154 -20 -138 -14 -151 -14 -162 1 -10 14
-15 9 -38 -36 -16 -32 -23 -56 -17 -62 15 -15 40 2 47 31 6 27 7 27 148 44 78
9 157 17 176 17 l33 0 -17 -26 c-9 -14 -15 -28 -12 -30 8 -9 117 19 117 31 0
22 -50 55 -83 55 -19 0 -36 -2 -38 -5z"/>
<path d="M560 279 c-25 -4 -60 -11 -77 -14 -36 -6 -43 -20 -15 -29 26 -9 83
-66 76 -78 -10 -16 -87 -61 -129 -75 l-40 -13 47 5 c27 2 70 16 98 30 27 14
54 25 59 25 5 0 31 -19 57 -41 48 -41 48 -41 115 -37 100 8 104 18 14 44 -99
28 -155 55 -155 73 0 8 16 34 36 58 30 36 34 47 23 54 -17 10 -48 10 -109 -2z
m35 -29 c5 -8 -8 -44 -21 -59 -5 -6 -54 40 -54 50 0 16 66 24 75 9z"/>
</g>
</svg>
