<?xml version="1.0" standalone="no"?>
<!DOCTYPE svg PUBLIC "-//W3C//DTD SVG 20010904//EN"
 "http://www.w3.org/TR/2001/REC-SVG-20010904/DTD/svg10.dtd">
<svg version="1.0" xmlns="http://www.w3.org/2000/svg"
 width="96.000000pt" height="68.000000pt" viewBox="0 0 96.000000 68.000000"
 preserveAspectRatio="xMidYMid meet">
<metadata>
Created by potrace 1.16, written by Peter Selinger 2001-2019
</metadata>
<g transform="translate(0.000000,68.000000) scale(0.100000,-0.100000)"
fill="#000000" stroke="none">
<path d="M660 220 c-20 -5 -91 -16 -158 -25 -110 -14 -124 -14 -138 0 -23 22
-47 20 -39 -5 5 -17 2 -20 -27 -20 -25 0 -29 -3 -18 -10 8 -5 25 -10 37 -10
19 0 22 -6 25 -52 2 -39 7 -53 18 -53 11 0 15 13 16 54 1 47 4 56 24 63 32 12
275 32 294 25 17 -7 21 -52 9 -96 -5 -20 -10 -22 -39 -18 -41 7 -42 1 -6 -42
24 -29 31 -32 48 -23 26 14 39 43 53 120 12 61 11 64 -11 82 -25 21 -35 22
-88 10z"/>
</g>
</svg>
