<?xml version="1.0" standalone="no"?>
<!DOCTYPE svg PUBLIC "-//W3C//DTD SVG 20010904//EN"
 "http://www.w3.org/TR/2001/REC-SVG-20010904/DTD/svg10.dtd">
<svg version="1.0" xmlns="http://www.w3.org/2000/svg"
 width="96.000000pt" height="68.000000pt" viewBox="0 0 96.000000 68.000000"
 preserveAspectRatio="xMidYMid meet">
<metadata>
Created by potrace 1.16, written by Peter Selinger 2001-2019
</metadata>
<g transform="translate(0.000000,68.000000) scale(0.100000,-0.100000)"
fill="#000000" stroke="none">
<path d="M515 594 c-55 -8 -130 -17 -167 -20 -38 -3 -68 -10 -68 -15 0 -22 55
-30 144 -20 205 23 196 23 207 -7 15 -36 6 -379 -9 -394 -8 -8 -22 -7 -53 5
-24 9 -44 15 -46 13 -2 -2 18 -26 45 -55 54 -57 81 -64 110 -26 11 13 22 22
25 18 4 -3 6 84 5 193 -1 110 1 218 6 241 7 37 5 43 -16 56 -36 23 -75 25
-183 11z"/>
<path d="M410 470 c-19 -5 -66 -12 -104 -15 -55 -6 -66 -9 -52 -17 13 -7 53
-6 129 2 121 13 140 18 131 31 -6 11 -56 10 -104 -1z"/>
<path d="M385 358 c-45 -12 -87 -17 -118 -14 -27 3 -47 2 -45 -2 16 -32 28
-63 38 -100 8 -30 16 -42 25 -38 12 4 64 11 165 20 29 3 36 8 41 33 3 16 13
44 22 63 10 18 17 34 17 36 0 3 -62 24 -69 23 -3 -1 -37 -10 -76 -21z m70 -55
c-4 -21 -9 -40 -11 -42 -2 -2 -35 -9 -73 -16 l-70 -12 -15 43 -14 42 56 10
c32 5 74 10 96 11 l38 1 -7 -37z"/>
</g>
</svg>
