<?xml version="1.0" standalone="no"?>
<!DOCTYPE svg PUBLIC "-//W3C//DTD SVG 20010904//EN"
 "http://www.w3.org/TR/2001/REC-SVG-20010904/DTD/svg10.dtd">
<svg version="1.0" xmlns="http://www.w3.org/2000/svg"
 width="96.000000pt" height="68.000000pt" viewBox="0 0 96.000000 68.000000"
 preserveAspectRatio="xMidYMid meet">
<metadata>
Created by potrace 1.16, written by Peter Selinger 2001-2019
</metadata>
<g transform="translate(0.000000,68.000000) scale(0.100000,-0.100000)"
fill="#000000" stroke="none">
<path d="M458 138 c3 -57 8 -88 19 -100 35 -39 206 -48 272 -13 l29 14 -17 47
-16 46 -14 -36 c-15 -39 -49 -56 -115 -56 -68 0 -115 18 -122 45 -8 34 0 42
49 50 23 4 58 11 77 15 19 5 48 12 65 15 29 6 29 7 11 21 -27 19 -41 18 -100
-10 -28 -14 -62 -28 -75 -31 -22 -7 -24 -5 -18 22 6 32 -7 53 -32 53 -14 0
-15 -13 -13 -82z"/>
</g>
</svg>
