<?xml version="1.0" standalone="no"?>
<!DOCTYPE svg PUBLIC "-//W3C//DTD SVG 20010904//EN"
 "http://www.w3.org/TR/2001/REC-SVG-20010904/DTD/svg10.dtd">
<svg version="1.0" xmlns="http://www.w3.org/2000/svg"
 width="96.000000pt" height="68.000000pt" viewBox="0 0 96.000000 68.000000"
 preserveAspectRatio="xMidYMid meet">
<metadata>
Created by potrace 1.16, written by Peter Selinger 2001-2019
</metadata>
<g transform="translate(0.000000,68.000000) scale(0.100000,-0.100000)"
fill="#000000" stroke="none">
<path d="M475 570 c8 -16 15 -31 15 -33 0 -3 -52 -10 -115 -17 l-115 -13 21
-20 c18 -17 20 -27 14 -76 -15 -126 -54 -211 -139 -300 l-51 -54 44 24 c84 46
155 154 180 274 28 133 28 133 69 139 55 9 115 14 225 22 86 5 96 8 85 21 -10
13 -27 14 -90 10 -73 -6 -78 -5 -78 13 0 21 -28 40 -60 40 -20 0 -20 -1 -5
-30z"/>
<path d="M158 423 c40 -56 72 -67 72 -24 0 24 -19 39 -60 48 l-34 6 22 -30z"/>
<path d="M185 314 c-33 -18 -68 -34 -77 -34 -21 0 -23 -11 -6 -28 19 -19 38
-14 84 24 35 28 75 76 62 73 -2 0 -30 -16 -63 -35z"/>
</g>
</svg>
