<?xml version="1.0" standalone="no"?>
<!DOCTYPE svg PUBLIC "-//W3C//DTD SVG 20010904//EN"
 "http://www.w3.org/TR/2001/REC-SVG-20010904/DTD/svg10.dtd">
<svg version="1.0" xmlns="http://www.w3.org/2000/svg"
 width="96.000000pt" height="68.000000pt" viewBox="0 0 96.000000 68.000000"
 preserveAspectRatio="xMidYMid meet">
<metadata>
Created by potrace 1.16, written by Peter Selinger 2001-2019
</metadata>
<g transform="translate(0.000000,68.000000) scale(0.100000,-0.100000)"
fill="#000000" stroke="none">
<path d="M580 508 c-47 -10 -104 -17 -127 -16 -46 3 -52 -2 -28 -22 23 -19 18
-40 -11 -40 -14 0 -23 -4 -19 -10 3 -5 16 -10 28 -10 16 0 26 -9 34 -31 7 -17
16 -28 21 -25 5 3 52 7 103 10 l94 3 20 37 c19 34 23 36 73 36 28 0 52 4 52 9
0 12 -26 21 -61 21 -20 0 -27 4 -23 14 13 35 -55 45 -156 24z m90 -27 c0 -21
-19 -31 -61 -31 -22 0 -29 5 -29 19 0 20 16 28 63 30 20 1 27 -4 27 -18z
m-132 -18 c-4 -20 -54 -31 -70 -15 -17 17 1 32 38 32 28 0 35 -4 32 -17z m122
-37 c0 -23 -17 -36 -46 -36 -27 0 -34 4 -34 20 0 17 7 20 40 20 22 0 40 -2 40
-4z m-122 -23 c-4 -22 -58 -31 -58 -10 0 20 10 27 37 27 18 0 24 -5 21 -17z"/>
</g>
</svg>
