<?xml version="1.0" standalone="no"?>
<!DOCTYPE svg PUBLIC "-//W3C//DTD SVG 20010904//EN"
 "http://www.w3.org/TR/2001/REC-SVG-20010904/DTD/svg10.dtd">
<svg version="1.0" xmlns="http://www.w3.org/2000/svg"
 width="96.000000pt" height="68.000000pt" viewBox="0 0 96.000000 68.000000"
 preserveAspectRatio="xMidYMid meet">
<metadata>
Created by potrace 1.16, written by Peter Selinger 2001-2019
</metadata>
<g transform="translate(0.000000,68.000000) scale(0.100000,-0.100000)"
fill="#000000" stroke="none">
<path d="M478 563 c-12 -3 -18 -14 -18 -32 0 -32 -7 -34 -152 -47 -43 -4 -78
-10 -78 -15 0 -15 55 -19 109 -9 29 5 65 10 80 10 24 0 21 -3 -24 -36 -28 -20
-90 -56 -140 -80 -62 -31 -79 -42 -55 -38 54 10 158 51 212 84 l48 30 0 -38
c0 -21 6 -47 14 -57 13 -18 14 -18 25 3 6 11 11 39 11 61 0 23 5 41 11 41 6 0
52 -22 103 -50 93 -50 146 -63 146 -35 0 36 -76 69 -227 100 -78 16 -16 35
111 35 94 0 122 11 79 29 -21 8 -47 9 -98 1 -113 -16 -124 -14 -122 16 2 28
-6 35 -35 27z"/>
</g>
</svg>
