<?xml version="1.0" standalone="no"?>
<!DOCTYPE svg PUBLIC "-//W3C//DTD SVG 20010904//EN"
 "http://www.w3.org/TR/2001/REC-SVG-20010904/DTD/svg10.dtd">
<svg version="1.0" xmlns="http://www.w3.org/2000/svg"
 width="96.000000pt" height="68.000000pt" viewBox="0 0 96.000000 68.000000"
 preserveAspectRatio="xMidYMid meet">
<metadata>
Created by potrace 1.16, written by Peter Selinger 2001-2019
</metadata>
<g transform="translate(0.000000,68.000000) scale(0.100000,-0.100000)"
fill="#000000" stroke="none">
<path d="M273 558 c-15 -54 -74 -146 -142 -220 -29 -32 -50 -58 -47 -58 17 0
73 36 112 72 l44 41 0 -92 c0 -50 -5 -110 -12 -135 -9 -34 -9 -50 1 -75 16
-37 38 -40 50 -8 15 38 17 323 3 340 -9 11 -3 26 28 75 46 70 47 77 21 92 -34
18 -47 11 -58 -32z"/>
<path d="M595 552 c-50 -30 -145 -62 -183 -62 l-37 0 2 -173 c2 -212 1 -197
14 -197 5 0 38 19 72 42 34 24 66 46 71 50 15 10 0 21 -16 12 -7 -5 -29 -14
-48 -21 -45 -16 -51 -6 -48 77 l3 65 75 10 75 10 41 -72 c56 -97 90 -139 142
-179 45 -34 93 -45 91 -21 0 6 -8 43 -18 81 l-18 70 -12 -37 c-7 -20 -19 -37
-26 -37 -34 0 -163 176 -144 195 4 3 26 9 49 13 24 4 45 13 48 21 4 11 -8 13
-57 9 l-61 -4 -6 35 c-3 20 -8 44 -10 53 -4 13 4 18 41 23 50 8 58 26 20 43
-31 15 -24 15 -60 -6z m-45 -110 c8 -23 12 -43 9 -46 -2 -2 -32 -11 -67 -19
l-62 -14 0 53 0 53 43 9 c57 13 60 12 77 -36z"/>
<path d="M505 116 c-86 -17 -53 -30 53 -21 94 8 112 13 91 26 -18 11 -69 9
-144 -5z"/>
</g>
</svg>
