<?xml version="1.0" standalone="no"?>
<!DOCTYPE svg PUBLIC "-//W3C//DTD SVG 20010904//EN"
 "http://www.w3.org/TR/2001/REC-SVG-20010904/DTD/svg10.dtd">
<svg version="1.0" xmlns="http://www.w3.org/2000/svg"
 width="96.000000pt" height="68.000000pt" viewBox="0 0 96.000000 68.000000"
 preserveAspectRatio="xMidYMid meet">
<metadata>
Created by potrace 1.16, written by Peter Selinger 2001-2019
</metadata>
<g transform="translate(0.000000,68.000000) scale(0.100000,-0.100000)"
fill="#000000" stroke="none">
<path d="M413 613 c20 -73 22 -70 -46 -79 l-62 -9 63 -3 c53 -2 63 -6 60 -20
-3 -14 -25 -19 -142 -29 -76 -6 -140 -14 -143 -17 -14 -13 56 -17 153 -7 138
14 134 14 134 -8 0 -16 -11 -20 -67 -26 -53 -5 -63 -9 -49 -17 10 -6 40 -7 67
-4 31 4 49 3 49 -4 0 -16 40 -12 46 5 4 10 20 15 48 16 48 1 71 9 72 27 1 6 2
16 3 21 0 5 45 12 98 16 89 7 96 8 78 22 -15 11 -38 14 -87 10 -38 -2 -68 -2
-68 0 0 2 5 13 10 23 16 29 -19 43 -83 35 -29 -4 -54 -6 -57 -4 -3 2 -4 15 -2
28 4 28 -12 41 -51 41 -22 0 -27 -4 -24 -17z m153 -85 c10 -15 -24 -38 -58
-38 -21 0 -28 5 -28 19 0 27 71 43 86 19z m-6 -68 c0 -13 -34 -30 -59 -30 -14
0 -21 6 -21 20 0 17 7 20 40 20 22 0 40 -4 40 -10z"/>
</g>
</svg>
