<?xml version="1.0" standalone="no"?>
<!DOCTYPE svg PUBLIC "-//W3C//DTD SVG 20010904//EN"
 "http://www.w3.org/TR/2001/REC-SVG-20010904/DTD/svg10.dtd">
<svg version="1.0" xmlns="http://www.w3.org/2000/svg"
 width="96.000000pt" height="68.000000pt" viewBox="0 0 96.000000 68.000000"
 preserveAspectRatio="xMidYMid meet">
<metadata>
Created by potrace 1.16, written by Peter Selinger 2001-2019
</metadata>
<g transform="translate(0.000000,68.000000) scale(0.100000,-0.100000)"
fill="#000000" stroke="none">
<path d="M480 525 c-8 -2 -37 -7 -64 -10 -26 -4 -44 -10 -40 -15 5 -4 41 -3
81 3 105 14 107 12 99 -81 -3 -42 -14 -111 -24 -152 -18 -75 -18 -75 -50 -74
l-32 2 21 -30 c28 -39 59 -34 81 12 9 19 24 88 33 154 9 65 22 127 28 137 21
34 -2 54 -64 56 -30 0 -61 0 -69 -2z"/>
</g>
</svg>
