<?xml version="1.0" standalone="no"?>
<!DOCTYPE svg PUBLIC "-//W3C//DTD SVG 20010904//EN"
 "http://www.w3.org/TR/2001/REC-SVG-20010904/DTD/svg10.dtd">
<svg version="1.0" xmlns="http://www.w3.org/2000/svg"
 width="96.000000pt" height="68.000000pt" viewBox="0 0 96.000000 68.000000"
 preserveAspectRatio="xMidYMid meet">
<metadata>
Created by potrace 1.16, written by Peter Selinger 2001-2019
</metadata>
<g transform="translate(0.000000,68.000000) scale(0.100000,-0.100000)"
fill="#000000" stroke="none">
<path d="M437 582 l6 -69 -33 -6 c-18 -4 -50 -7 -72 -7 -33 0 -39 3 -34 16 18
47 17 63 -2 73 -35 18 -44 14 -37 -18 4 -19 0 -41 -10 -62 -15 -28 -15 -33 -2
-46 13 -13 23 -13 83 0 38 9 114 21 168 28 93 11 100 11 113 -7 11 -16 15 -16
27 -4 7 8 21 37 30 65 15 47 15 51 -1 62 -9 7 -24 13 -34 13 -14 0 -16 -7 -12
-44 3 -24 1 -46 -3 -49 -5 -3 -36 -7 -69 -8 l-60 -4 0 59 c0 50 -4 60 -20 67
-42 16 -44 12 -38 -59z"/>
</g>
</svg>
