<?xml version="1.0" standalone="no"?>
<!DOCTYPE svg PUBLIC "-//W3C//DTD SVG 20010904//EN"
 "http://www.w3.org/TR/2001/REC-SVG-20010904/DTD/svg10.dtd">
<svg version="1.0" xmlns="http://www.w3.org/2000/svg"
 width="96.000000pt" height="68.000000pt" viewBox="0 0 96.000000 68.000000"
 preserveAspectRatio="xMidYMid meet">
<metadata>
Created by potrace 1.16, written by Peter Selinger 2001-2019
</metadata>
<g transform="translate(0.000000,68.000000) scale(0.100000,-0.100000)"
fill="#000000" stroke="none">
<path d="M610 523 c0 -33 -48 -121 -89 -166 -27 -29 -39 -50 -35 -60 7 -19 39
-31 54 -22 6 3 61 17 123 30 111 24 112 24 126 5 20 -29 51 -26 51 5 0 28 -25
57 -70 80 -43 22 -56 15 -30 -18 25 -31 26 -31 -71 -46 -83 -14 -109 -14 -109
0 0 6 20 36 43 67 74 96 81 110 67 127 -18 21 -60 20 -60 -2z"/>
</g>
</svg>
