<?xml version="1.0" standalone="no"?>
<!DOCTYPE svg PUBLIC "-//W3C//DTD SVG 20010904//EN"
 "http://www.w3.org/TR/2001/REC-SVG-20010904/DTD/svg10.dtd">
<svg version="1.0" xmlns="http://www.w3.org/2000/svg"
 width="96.000000pt" height="68.000000pt" viewBox="0 0 96.000000 68.000000"
 preserveAspectRatio="xMidYMid meet">
<metadata>
Created by potrace 1.16, written by Peter Selinger 2001-2019
</metadata>
<g transform="translate(0.000000,68.000000) scale(0.100000,-0.100000)"
fill="#000000" stroke="none">
<path d="M450 342 c0 -9 -14 -34 -31 -55 -36 -44 -34 -57 4 -27 32 25 31 25
62 -6 28 -28 51 -24 35 7 -6 10 -14 19 -18 19 -4 0 -14 4 -22 10 -12 7 -11 12
5 30 16 18 17 23 5 30 -23 15 -40 12 -40 -8z"/>
</g>
</svg>
