<?xml version="1.0" standalone="no"?>
<!DOCTYPE svg PUBLIC "-//W3C//DTD SVG 20010904//EN"
 "http://www.w3.org/TR/2001/REC-SVG-20010904/DTD/svg10.dtd">
<svg version="1.0" xmlns="http://www.w3.org/2000/svg"
 width="96.000000pt" height="68.000000pt" viewBox="0 0 96.000000 68.000000"
 preserveAspectRatio="xMidYMid meet">
<metadata>
Created by potrace 1.16, written by Peter Selinger 2001-2019
</metadata>
<g transform="translate(0.000000,68.000000) scale(0.100000,-0.100000)"
fill="#000000" stroke="none">
<path d="M246 593 c4 -10 10 -51 12 -91 l4 -74 -49 3 -48 3 -1 -49 c-1 -28 -5
-62 -9 -77 -4 -15 -4 -36 0 -45 6 -16 8 -16 26 6 14 17 19 39 19 82 0 32 3 59
8 59 4 0 17 3 30 6 21 6 22 4 22 -62 0 -38 -5 -111 -10 -161 -10 -95 -2 -143
25 -143 25 0 36 51 30 139 -3 47 -2 120 2 161 8 72 9 75 36 78 l27 3 0 -65 c0
-52 -3 -66 -15 -66 -18 0 -19 -12 -3 -28 37 -37 63 2 71 105 5 62 5 62 -24 68
-16 4 -43 3 -61 0 l-31 -7 6 75 c6 83 0 97 -46 97 -24 0 -28 -3 -21 -17z"/>
<path d="M547 583 c-4 -3 -3 -11 2 -17 5 -6 11 -78 13 -161 l3 -150 -68 -3
c-61 -3 -67 -5 -55 -19 7 -8 20 -47 28 -86 8 -39 21 -72 28 -75 6 -2 12 3 12
11 0 12 25 16 130 22 117 7 153 15 118 28 -10 3 -5 19 15 58 15 30 27 57 27
61 0 3 -16 12 -36 18 -32 11 -65 9 -131 -7 -22 -5 -23 -3 -23 65 l0 69 38 7
c20 3 47 6 59 6 12 0 34 5 50 11 27 11 27 12 7 21 -13 6 -40 5 -83 -5 -81 -19
-82 -15 -55 104 5 23 2 28 -27 38 -37 13 -43 13 -52 4z m166 -347 c3 -7 1 -32
-5 -54 l-10 -41 -67 -6 c-36 -3 -78 -8 -93 -10 -29 -5 -31 -1 -42 66 l-6 37
77 9 c116 15 140 15 146 -1z"/>
</g>
</svg>
