<?xml version="1.0" standalone="no"?>
<!DOCTYPE svg PUBLIC "-//W3C//DTD SVG 20010904//EN"
 "http://www.w3.org/TR/2001/REC-SVG-20010904/DTD/svg10.dtd">
<svg version="1.0" xmlns="http://www.w3.org/2000/svg"
 width="90.000000pt" height="92.000000pt" viewBox="0 0 90.000000 92.000000"
 preserveAspectRatio="xMidYMid meet">
<metadata>
Created by potrace 1.16, written by Peter Selinger 2001-2019
</metadata>
<g transform="translate(0.000000,92.000000) scale(0.100000,-0.100000)"
fill="#000000" stroke="none">
<path d="M530 835 c0 -3 9 -24 21 -46 11 -23 18 -44 15 -47 -3 -3 -31 -7 -62
-10 -47 -4 -58 -2 -66 13 -9 14 -14 7 -34 -41 -13 -33 -22 -65 -19 -71 9 -25
32 -13 49 25 14 31 23 39 44 39 15 1 67 8 116 17 96 17 146 20 146 9 -1 -5 -7
-19 -15 -33 -8 -14 -14 -28 -15 -31 0 -3 28 2 63 11 35 10 62 23 62 30 0 7
-16 26 -36 42 l-37 30 -76 -15 -77 -14 6 28 c6 24 2 31 -27 49 -32 19 -58 26
-58 15z"/>
<path d="M260 813 c-25 -8 -74 -16 -110 -17 -50 -2 -64 -6 -61 -17 10 -37 22
-145 19 -182 -3 -36 -7 -43 -27 -45 -13 -2 -27 2 -32 9 -6 11 -9 11 -12 -1 -3
-8 -12 -36 -21 -61 -17 -47 -13 -79 9 -79 14 0 35 44 38 78 1 23 0 23 141 47
116 20 150 20 142 0 -3 -8 -9 -22 -12 -31 -5 -12 5 -10 45 10 28 15 51 30 51
34 0 12 -56 42 -79 42 -12 0 -21 2 -21 4 0 3 10 46 21 97 l22 93 -23 18 c-26
21 -30 21 -90 1z m48 -61 c3 -30 1 -32 -30 -34 -18 0 -46 0 -61 1 -24 2 -28
-1 -24 -16 3 -10 9 -44 13 -75 5 -48 4 -58 -9 -58 -8 0 -22 -3 -31 -6 -14 -5
-16 7 -16 98 l0 104 63 11 c87 14 92 13 95 -25z m-12 -104 c-7 -51 -18 -68
-43 -68 -9 0 -13 17 -13 54 0 57 0 56 54 65 5 0 5 -22 2 -51z"/>
<path d="M625 700 c-3 -5 -4 -14 -1 -18 3 -5 -1 -35 -9 -68 -7 -32 -12 -60
-10 -62 2 -2 11 8 20 22 15 22 25 26 64 26 60 0 86 15 50 28 -14 6 -37 8 -52
5 -27 -5 -27 -5 -15 22 11 24 10 29 -7 41 -22 17 -32 17 -40 4z"/>
<path d="M480 663 c0 -5 7 -17 15 -27 18 -24 5 -36 -42 -36 -24 0 -31 -4 -27
-14 9 -23 34 -27 57 -11 28 20 34 19 40 -5 3 -11 10 -20 17 -20 9 0 10 15 5
53 -9 64 -10 67 -41 67 -13 0 -24 -3 -24 -7z"/>
<path d="M590 535 c-30 -7 -75 -14 -100 -14 l-45 -1 1 -118 c0 -65 3 -123 7
-129 4 -6 18 -8 32 -5 14 2 25 0 25 -6 0 -24 -69 -109 -115 -140 -49 -34 -49
-35 -17 -29 73 14 190 126 177 168 -4 13 -1 19 8 19 20 0 27 -22 27 -86 0 -68
12 -92 55 -110 61 -25 177 -11 211 27 16 18 16 21 -7 64 l-24 45 -10 -38 c-7
-22 -20 -41 -35 -49 -30 -15 -99 -17 -136 -3 -25 10 -26 13 -19 58 4 26 8 59
8 75 2 31 23 36 43 10 26 -36 39 1 41 115 2 58 5 112 7 118 13 33 -54 48 -134
29z m67 -27 c20 -33 13 -43 -30 -43 -23 -1 -66 -5 -94 -9 -50 -8 -53 -7 -53
13 0 21 6 24 90 40 65 13 78 12 87 -1z m13 -90 c0 -20 -5 -23 -42 -23 -24 -1
-67 -5 -95 -9 -52 -8 -53 -8 -53 16 0 21 4 24 28 21 15 -2 47 0 72 6 77 15 90
14 90 -11z m0 -74 c0 -20 -4 -24 -19 -19 -11 3 -39 1 -63 -4 -104 -24 -108
-23 -108 8 0 24 3 28 23 24 12 -2 47 0 77 5 88 15 90 15 90 -14z"/>
<path d="M225 484 c-27 -8 -67 -13 -87 -10 -42 5 -43 3 -27 -43 19 -55 -4
-202 -45 -283 -27 -53 -30 -66 -16 -58 29 15 59 59 77 111 l17 48 23 -20 22
-21 50 47 51 48 0 -64 c0 -79 -8 -92 -45 -83 l-29 7 22 -29 c56 -75 51 -72 72
-44 27 35 32 76 24 188 -4 65 -2 112 6 142 11 41 10 45 -10 62 -26 21 -38 21
-105 2z m65 -94 c0 -69 -1 -71 -32 -90 -38 -23 -97 -44 -104 -37 -3 3 -2 32 2
65 l6 61 37 -24 c39 -27 66 -32 77 -13 11 17 -29 44 -75 52 -41 6 -47 12 -33
32 9 14 35 21 85 23 l37 1 0 -70z"/>
<path d="M670 233 c0 -14 54 -63 71 -63 19 0 31 21 20 38 -12 21 -91 42 -91
25z"/>
</g>
</svg>
