<?xml version="1.0" standalone="no"?>
<!DOCTYPE svg PUBLIC "-//W3C//DTD SVG 20010904//EN"
 "http://www.w3.org/TR/2001/REC-SVG-20010904/DTD/svg10.dtd">
<svg version="1.0" xmlns="http://www.w3.org/2000/svg"
 width="96.000000pt" height="68.000000pt" viewBox="0 0 96.000000 68.000000"
 preserveAspectRatio="xMidYMid meet">
<metadata>
Created by potrace 1.16, written by Peter Selinger 2001-2019
</metadata>
<g transform="translate(0.000000,68.000000) scale(0.100000,-0.100000)"
fill="#000000" stroke="none">
<path d="M584 445 c3 -9 9 -58 12 -109 6 -85 9 -93 25 -89 15 4 19 15 19 54
l0 49 58 1 c31 1 68 4 82 9 47 14 -7 23 -67 11 -78 -15 -76 -16 -70 29 4 32 2
42 -13 50 -29 15 -53 12 -46 -5z"/>
</g>
</svg>
