<?xml version="1.0" standalone="no"?>
<!DOCTYPE svg PUBLIC "-//W3C//DTD SVG 20010904//EN"
 "http://www.w3.org/TR/2001/REC-SVG-20010904/DTD/svg10.dtd">
<svg version="1.0" xmlns="http://www.w3.org/2000/svg"
 width="96.000000pt" height="68.000000pt" viewBox="0 0 96.000000 68.000000"
 preserveAspectRatio="xMidYMid meet">
<metadata>
Created by potrace 1.16, written by Peter Selinger 2001-2019
</metadata>
<g transform="translate(0.000000,68.000000) scale(0.100000,-0.100000)"
fill="#000000" stroke="none">
<path d="M390 598 c-12 -24 -40 -62 -63 -85 -50 -52 -30 -58 34 -11 31 23 60
34 97 38 28 3 52 3 52 0 0 -3 -19 -25 -43 -48 -46 -45 -64 -50 -176 -51 -63
-1 -64 -1 -46 -20 14 -17 45 -137 45 -178 0 -9 -22 -13 -75 -13 -41 0 -75 -4
-75 -9 0 -18 61 -22 154 -11 52 7 100 10 107 8 16 -5 -41 -70 -88 -99 -19 -12
-60 -30 -91 -41 l-57 -19 55 5 c82 8 167 54 214 115 l38 51 163 0 c93 0 166 4
170 9 11 18 -40 34 -102 33 -35 -1 -63 2 -63 7 0 5 14 41 31 81 24 58 28 74
18 86 -24 29 -44 32 -129 19 l-84 -12 39 33 c22 18 55 41 73 51 70 38 16 72
-78 48 -72 -19 -75 -19 -56 1 22 22 20 33 -10 44 -14 6 -27 10 -29 10 -1 0
-13 -19 -25 -42z m227 -200 c-3 -24 -11 -64 -18 -90 -12 -45 -14 -48 -55 -54
-46 -7 -64 -1 -64 21 0 7 -14 18 -30 24 -33 11 -35 9 -42 -34 -2 -15 -12 -21
-39 -23 -43 -4 -45 0 -55 97 -7 79 -10 76 69 85 41 5 47 3 47 -13 0 -11 -18
-39 -39 -63 -22 -23 -38 -45 -36 -47 2 -1 24 11 49 29 l45 33 47 -32 c30 -20
51 -28 57 -22 18 18 -1 38 -46 52 -44 12 -45 13 -30 36 8 13 11 23 7 23 -5 0
-3 4 4 9 7 4 40 9 74 10 l60 2 -5 -43z"/>
<path d="M540 170 c0 -5 4 -10 8 -10 5 0 41 -25 81 -55 77 -58 98 -65 108 -38
8 20 -48 71 -87 79 -14 3 -42 12 -63 20 -45 17 -47 17 -47 4z"/>
</g>
</svg>
