<?xml version="1.0" standalone="no"?>
<!DOCTYPE svg PUBLIC "-//W3C//DTD SVG 20010904//EN"
 "http://www.w3.org/TR/2001/REC-SVG-20010904/DTD/svg10.dtd">
<svg version="1.0" xmlns="http://www.w3.org/2000/svg"
 width="96.000000pt" height="68.000000pt" viewBox="0 0 96.000000 68.000000"
 preserveAspectRatio="xMidYMid meet">
<metadata>
Created by potrace 1.16, written by Peter Selinger 2001-2019
</metadata>
<g transform="translate(0.000000,68.000000) scale(0.100000,-0.100000)"
fill="#000000" stroke="none">
<path d="M521 631 c-9 -6 -10 -11 -2 -15 6 -4 11 -29 11 -55 0 -46 -1 -49 -31
-55 -17 -3 -47 -6 -67 -6 l-35 0 7 49 7 50 -36 7 c-20 3 -38 4 -41 1 -3 -3 -1
-28 4 -56 5 -28 7 -53 3 -55 -3 -2 -27 -7 -53 -10 -65 -10 -61 -26 6 -26 l55
0 7 -45 c3 -25 4 -48 1 -51 -3 -3 -57 -8 -121 -11 -83 -4 -116 -10 -116 -18 0
-29 63 -32 185 -11 44 8 178 18 298 22 120 4 220 11 223 16 19 31 -70 42 -202
25 l-61 -8 10 51 c9 49 10 50 46 50 20 0 42 4 50 9 23 15 2 31 -40 31 -44 0
-44 0 -27 47 10 27 10 36 -2 47 -20 19 -62 28 -79 17z m-1 -201 c0 -45 -18
-60 -74 -60 -36 0 -36 0 -36 44 0 48 3 50 83 55 25 1 27 -2 27 -39z"/>
<path d="M465 294 c-69 -10 -109 -11 -129 -4 -28 10 -28 9 -22 -23 3 -17 9
-71 12 -120 5 -61 11 -87 20 -87 7 0 16 5 19 10 3 5 46 10 94 10 80 0 89 -2
94 -20 6 -25 29 -26 51 -1 14 15 44 159 46 213 0 10 -56 38 -72 37 -7 -1 -58
-8 -113 -15z m90 -24 c21 -8 26 -16 23 -36 -3 -24 -7 -27 -48 -29 -25 -1 -73
-5 -107 -10 l-62 -8 4 33 c2 18 6 34 8 37 3 2 36 8 74 12 37 5 71 9 75 10 4 0
19 -4 33 -9z m23 -126 l-3 -29 -95 -7 c-52 -4 -100 -6 -106 -4 -6 3 -9 18 -6
35 4 29 7 31 51 32 25 0 69 4 96 8 59 8 68 3 63 -35z"/>
</g>
</svg>
