<?xml version="1.0" standalone="no"?>
<!DOCTYPE svg PUBLIC "-//W3C//DTD SVG 20010904//EN"
 "http://www.w3.org/TR/2001/REC-SVG-20010904/DTD/svg10.dtd">
<svg version="1.0" xmlns="http://www.w3.org/2000/svg"
 width="90.000000pt" height="92.000000pt" viewBox="0 0 90.000000 92.000000"
 preserveAspectRatio="xMidYMid meet">
<metadata>
Created by potrace 1.16, written by Peter Selinger 2001-2019
</metadata>
<g transform="translate(0.000000,92.000000) scale(0.100000,-0.100000)"
fill="#000000" stroke="none">
<path d="M331 867 c-6 -8 -47 -31 -91 -52 -45 -20 -79 -39 -77 -42 5 -4 82 12
110 23 14 5 17 0 17 -25 0 -17 -1 -31 -2 -32 -2 0 -48 -8 -103 -18 l-100 -17
27 -17 c24 -17 30 -17 88 -2 34 9 64 14 66 13 7 -8 -59 -79 -114 -125 -39 -31
-49 -43 -32 -38 47 14 95 43 132 80 l37 36 -2 -45 c-2 -50 17 -82 33 -56 5 8
10 40 10 70 l0 55 35 -37 c40 -44 55 -48 55 -13 0 25 -41 55 -75 55 -20 0 -20
26 1 34 9 3 31 6 49 6 19 0 36 4 40 9 9 16 -30 31 -66 25 -33 -6 -34 -5 -34
29 0 32 3 36 33 42 36 7 41 21 15 41 -23 17 -38 17 -52 1z"/>
<path d="M530 851 c0 -11 -21 -50 -46 -88 -25 -37 -48 -72 -51 -77 -8 -13 14
2 60 38 26 20 41 26 48 19 18 -18 -2 -62 -54 -119 l-51 -56 39 16 c50 21 71
40 106 96 20 32 25 49 18 61 -9 19 12 29 64 29 24 0 27 -3 27 -35 0 -20 -6
-51 -14 -70 -14 -32 -18 -34 -46 -29 l-31 7 27 -41 c21 -33 30 -39 44 -32 29
16 41 37 59 107 10 37 21 75 25 84 5 11 -1 21 -19 33 -24 16 -31 16 -101 0
-41 -9 -77 -14 -79 -12 -3 2 4 14 15 26 24 26 26 48 4 56 -28 11 -44 6 -44
-13z"/>
<path d="M535 555 c-87 -19 -260 -37 -289 -29 -30 7 -32 2 -12 -29 8 -12 17
-38 21 -57 10 -54 26 -89 38 -85 7 2 38 6 70 9 51 6 57 4 57 -13 0 -16 -10
-20 -65 -26 -36 -3 -65 -10 -65 -15 0 -15 32 -20 81 -14 45 6 49 5 49 -14 0
-23 -5 -24 -140 -39 -69 -8 -73 -9 -51 -22 19 -10 48 -11 153 -2 72 6 166 11
209 11 84 0 103 10 65 35 -20 14 -36 14 -107 5 -46 -5 -85 -10 -86 -10 -2 0
-3 9 -3 19 0 22 19 31 68 31 45 0 72 14 47 24 -9 3 -39 6 -65 6 -45 0 -71 13
-56 28 12 12 126 15 126 3 0 -6 4 -11 10 -11 10 0 90 151 90 169 0 7 -75 44
-83 40 -1 -1 -29 -7 -62 -14z m67 -30 c3 -3 1 -29 -6 -56 l-11 -50 -62 -4 -63
-3 0 54 0 53 53 4 c28 2 59 4 68 5 9 1 18 0 21 -3z m-188 -66 c4 -28 6 -53 4
-54 -2 -2 -28 -6 -59 -10 l-56 -7 -6 39 c-12 70 -11 72 41 76 26 2 52 4 58 5
7 1 14 -20 18 -49z"/>
<path d="M502 469 c-26 -45 -25 -45 23 -22 38 18 45 37 17 52 -14 8 -22 2 -40
-30z"/>
<path d="M319 463 c5 -10 17 -27 25 -38 13 -17 17 -18 26 -5 5 8 10 18 10 22
0 14 -32 38 -51 38 -16 0 -18 -4 -10 -17z"/>
<path d="M156 156 c-30 -55 -31 -89 -4 -94 25 -5 61 71 53 109 -10 44 -18 42
-49 -15z"/>
<path d="M676 160 c29 -53 59 -90 74 -90 12 0 13 70 2 86 -10 16 -74 54 -90
54 -9 0 -5 -16 14 -50z"/>
<path d="M490 187 c0 -7 7 -35 16 -61 20 -58 47 -61 52 -5 3 30 -2 41 -24 58
-31 24 -44 27 -44 8z"/>
<path d="M320 182 c0 -29 33 -112 44 -112 33 0 34 63 1 95 -24 25 -45 32 -45
17z"/>
</g>
</svg>
