<?xml version="1.0" standalone="no"?>
<!DOCTYPE svg PUBLIC "-//W3C//DTD SVG 20010904//EN"
 "http://www.w3.org/TR/2001/REC-SVG-20010904/DTD/svg10.dtd">
<svg version="1.0" xmlns="http://www.w3.org/2000/svg"
 width="90.000000pt" height="92.000000pt" viewBox="0 0 90.000000 92.000000"
 preserveAspectRatio="xMidYMid meet">
<metadata>
Created by potrace 1.16, written by Peter Selinger 2001-2019
</metadata>
<g transform="translate(0.000000,92.000000) scale(0.100000,-0.100000)"
fill="#000000" stroke="none">
<path d="M640 834 c-25 -8 -67 -15 -93 -15 -45 -1 -48 -3 -42 -22 4 -12 9 -68
12 -125 3 -56 8 -104 12 -106 3 -2 29 0 56 4 28 5 67 11 89 14 l38 5 -3 -219
c-3 -155 -8 -223 -16 -231 -10 -10 -21 -10 -50 -1 -20 6 -38 10 -39 9 -1 -1
20 -26 48 -56 l50 -54 26 27 27 26 5 363 c5 344 4 363 -14 380 -21 20 -45 20
-106 1z m68 -69 l3 -40 -38 0 c-21 0 -55 -4 -75 -8 l-38 -8 0 39 c0 39 1 40
48 50 26 6 58 9 72 9 22 -2 25 -7 28 -42z m2 -105 c0 -35 -3 -40 -22 -40 -13
0 -47 -3 -75 -6 l-53 -7 0 35 c0 36 0 36 58 46 95 16 92 17 92 -28z"/>
<path d="M265 793 c-22 -8 -65 -16 -95 -18 -30 -1 -54 -5 -53 -9 29 -106 28
-350 -3 -519 -15 -80 -15 -89 0 -112 37 -57 46 -25 55 210 3 96 10 177 14 181
4 4 38 8 76 8 l69 1 17 95 c10 52 21 102 26 111 9 18 3 29 -31 52 -29 20 -24
20 -75 0z m45 -77 c0 -44 0 -44 -27 -37 -16 5 -37 5 -48 0 -44 -17 -55 -11
-55 30 0 43 4 45 98 49 32 2 32 1 32 -42z m-9 -98 c-5 -34 -10 -43 -26 -44
-11 -1 -37 -5 -57 -9 l-38 -7 0 39 0 40 58 10 c31 6 60 11 63 12 3 0 3 -18 0
-41z"/>
<path d="M398 511 c4 -44 2 -49 -19 -54 -13 -4 -44 -7 -68 -7 -35 0 -41 -3
-33 -13 7 -7 17 -38 23 -68 10 -49 29 -89 29 -62 0 6 18 13 40 15 l40 4 0 -38
c0 -20 -5 -40 -10 -43 -6 -4 -42 -7 -80 -8 -39 -1 -70 -4 -70 -7 0 -10 15 -26
38 -42 21 -14 27 -14 70 2 26 10 79 27 118 38 l71 20 17 -34 c17 -36 30 -43
39 -20 11 27 -10 71 -43 94 -41 27 -54 28 -40 2 9 -17 7 -20 -17 -26 -16 -3
-34 -7 -40 -10 -9 -2 -13 9 -13 35 0 35 3 39 31 45 17 3 43 6 56 6 15 0 23 5
21 12 -3 7 4 33 15 57 l20 45 -24 18 c-14 12 -31 17 -46 14 -13 -3 -35 -9 -50
-12 -25 -7 -26 -6 -20 28 6 40 -6 58 -39 58 -19 0 -21 -4 -16 -49z m122 -100
c0 -37 -2 -39 -35 -43 l-35 -4 0 43 c0 42 0 43 35 43 34 0 35 -1 35 -39z
m-118 -12 c2 -22 2 -42 -1 -45 -2 -2 -19 -4 -38 -4 -28 0 -33 4 -34 25 -1 14
-2 31 -3 38 -1 10 26 22 60 26 7 0 14 -17 16 -40z"/>
</g>
</svg>
