<?xml version="1.0" standalone="no"?>
<!DOCTYPE svg PUBLIC "-//W3C//DTD SVG 20010904//EN"
 "http://www.w3.org/TR/2001/REC-SVG-20010904/DTD/svg10.dtd">
<svg version="1.0" xmlns="http://www.w3.org/2000/svg"
 width="90.000000pt" height="92.000000pt" viewBox="0 0 90.000000 92.000000"
 preserveAspectRatio="xMidYMid meet">
<metadata>
Created by potrace 1.16, written by Peter Selinger 2001-2019
</metadata>
<g transform="translate(0.000000,92.000000) scale(0.100000,-0.100000)"
fill="#000000" stroke="none">
<path d="M505 829 c4 -12 4 -45 0 -74 l-6 -53 -60 -6 c-32 -4 -59 -11 -59 -15
0 -15 51 -31 76 -25 l26 7 -35 -69 c-20 -38 -59 -95 -87 -126 -28 -32 -47 -58
-42 -58 13 0 83 52 108 81 18 21 97 146 106 169 2 4 12 10 23 14 17 5 33 -12
98 -104 76 -107 79 -110 116 -110 47 0 101 10 101 19 0 3 -27 19 -61 34 -35
17 -88 55 -131 95 -66 63 -69 67 -47 73 13 4 50 7 81 8 66 1 79 13 43 37 -24
16 -32 16 -113 1 -48 -8 -89 -13 -91 -11 -2 2 4 25 14 50 l18 47 -24 18 c-34
26 -62 25 -54 -2z"/>
<path d="M163 770 c-13 -71 -77 -206 -128 -273 -53 -69 -38 -80 27 -19 50 47
58 52 82 42 21 -8 26 -16 26 -44 0 -32 -3 -36 -37 -45 -21 -6 -46 -11 -56 -11
-11 0 -17 -5 -14 -12 3 -9 22 -13 56 -12 l51 2 0 -83 c0 -80 -1 -82 -27 -94
-16 -7 -54 -16 -86 -18 -64 -6 -75 -25 -32 -56 25 -18 26 -17 170 53 80 39
145 75 145 80 0 15 -16 12 -71 -11 -27 -12 -52 -19 -55 -16 -3 3 -2 40 3 84
l8 78 38 6 c43 7 52 13 42 29 -4 7 -24 10 -46 8 l-39 -4 2 39 c3 34 6 39 41
49 20 6 37 15 37 20 0 18 -33 20 -96 4 -37 -9 -68 -15 -70 -14 -2 2 18 45 44
96 l48 92 39 -40 c44 -45 60 -50 68 -19 7 26 -21 55 -62 64 -21 4 -31 13 -31
25 0 17 -43 60 -59 60 -4 0 -12 -27 -18 -60z"/>
<path d="M536 553 l6 -50 -47 -7 c-35 -6 -44 -11 -36 -19 6 -6 27 -11 46 -11
34 0 35 -1 35 -37 0 -45 26 -74 34 -37 3 12 7 36 8 53 3 25 8 30 43 37 51 11
63 23 35 38 -15 8 -30 9 -51 1 -29 -10 -29 -10 -29 30 0 21 -4 39 -9 39 -5 0
-17 3 -26 6 -14 6 -15 0 -9 -43z"/>
<path d="M643 382 l6 -50 -57 -7 c-31 -3 -66 -9 -76 -12 -17 -5 -18 -1 -13 30
5 33 3 36 -25 46 -17 6 -32 11 -34 11 -2 0 0 -22 3 -50 l6 -50 -52 0 c-36 0
-51 -4 -51 -13 0 -20 45 -40 74 -33 23 6 24 4 17 -22 -12 -41 -36 -85 -68
-122 -27 -33 -27 -33 -3 -20 57 29 120 115 120 163 0 19 13 24 93 32 l67 7 0
-126 c0 -73 4 -126 10 -126 13 0 30 67 30 125 0 28 3 67 6 88 l7 37 63 0 c50
0 64 3 64 15 0 24 -53 45 -95 38 -38 -6 -38 -6 -32 25 7 33 -2 45 -42 57 -24
7 -24 7 -18 -43z"/>
<path d="M290 376 c0 -7 -11 -30 -25 -50 -13 -20 -22 -36 -19 -36 11 0 94 52
94 59 0 9 -34 41 -43 41 -4 0 -7 -6 -7 -14z"/>
<path d="M71 306 c29 -49 48 -64 60 -45 5 8 9 19 9 26 0 20 -42 53 -67 53
l-22 0 20 -34z"/>
</g>
</svg>
