<?xml version="1.0" standalone="no"?>
<!DOCTYPE svg PUBLIC "-//W3C//DTD SVG 20010904//EN"
 "http://www.w3.org/TR/2001/REC-SVG-20010904/DTD/svg10.dtd">
<svg version="1.0" xmlns="http://www.w3.org/2000/svg"
 width="96.000000pt" height="68.000000pt" viewBox="0 0 96.000000 68.000000"
 preserveAspectRatio="xMidYMid meet">
<metadata>
Created by potrace 1.16, written by Peter Selinger 2001-2019
</metadata>
<g transform="translate(0.000000,68.000000) scale(0.100000,-0.100000)"
fill="#000000" stroke="none">
<path d="M540 561 c0 -61 -7 -70 -61 -77 -54 -7 -57 -24 -3 -24 19 0 34 -3 34
-8 0 -17 -72 -112 -101 -133 -18 -13 -27 -25 -20 -27 24 -8 125 85 158 145 26
49 43 50 82 6 115 -129 108 -123 166 -123 30 0 56 4 59 9 3 5 -16 16 -42 26
-49 19 -149 82 -170 108 -11 13 -3 16 63 22 41 4 75 11 75 15 0 15 -47 19
-106 10 -97 -16 -97 -16 -79 27 8 20 14 37 13 38 -11 8 -49 25 -57 25 -6 0
-11 -18 -11 -39z"/>
</g>
</svg>
