<?xml version="1.0" standalone="no"?>
<!DOCTYPE svg PUBLIC "-//W3C//DTD SVG 20010904//EN"
 "http://www.w3.org/TR/2001/REC-SVG-20010904/DTD/svg10.dtd">
<svg version="1.0" xmlns="http://www.w3.org/2000/svg"
 width="96.000000pt" height="68.000000pt" viewBox="0 0 96.000000 68.000000"
 preserveAspectRatio="xMidYMid meet">
<metadata>
Created by potrace 1.16, written by Peter Selinger 2001-2019
</metadata>
<g transform="translate(0.000000,68.000000) scale(0.100000,-0.100000)"
fill="#000000" stroke="none">
<path d="M526 415 c32 -42 64 -47 64 -10 0 27 -25 45 -65 45 l-26 0 27 -35z"/>
<path d="M765 328 c63 -70 78 -80 89 -52 13 34 -43 84 -95 84 -22 0 -22 -1 6
-32z"/>
<path d="M504 298 c12 -63 49 -119 90 -140 77 -39 235 -31 244 13 2 10 -18 30
-53 53 -49 32 -56 34 -51 17 3 -12 8 -29 11 -40 6 -21 -17 -31 -72 -31 -69 0
-113 35 -140 110 -20 55 -39 68 -29 18z"/>
<path d="M420 270 c-24 -47 -26 -90 -5 -90 20 0 45 52 45 95 0 46 -15 44 -40
-5z"/>
</g>
</svg>
