<?xml version="1.0" standalone="no"?>
<!DOCTYPE svg PUBLIC "-//W3C//DTD SVG 20010904//EN"
 "http://www.w3.org/TR/2001/REC-SVG-20010904/DTD/svg10.dtd">
<svg version="1.0" xmlns="http://www.w3.org/2000/svg"
 width="90.000000pt" height="92.000000pt" viewBox="0 0 90.000000 92.000000"
 preserveAspectRatio="xMidYMid meet">
<metadata>
Created by potrace 1.16, written by Peter Selinger 2001-2019
</metadata>
<g transform="translate(0.000000,92.000000) scale(0.100000,-0.100000)"
fill="#000000" stroke="none">
<path d="M480 866 c0 -8 5 -18 10 -21 6 -3 10 -26 10 -50 0 -48 -9 -55 -72
-55 -60 0 -43 -24 20 -28 52 -3 52 -3 52 -36 l0 -34 -75 -11 c-42 -6 -85 -11
-95 -11 -11 0 -20 -5 -20 -10 0 -16 47 -30 80 -24 27 6 30 3 47 -37 9 -24 16
-46 15 -49 0 -3 -15 -7 -32 -10 -51 -8 -29 -25 33 -25 37 0 57 -4 57 -12 0 -6
2 -18 6 -26 4 -11 -8 -16 -55 -21 -34 -4 -61 -11 -61 -16 0 -15 46 -23 86 -16
34 7 35 6 32 -21 -3 -27 -5 -28 -83 -36 -106 -11 -117 -15 -85 -33 23 -13 101
-12 152 2 15 4 16 -2 11 -50 -4 -36 -2 -61 6 -70 11 -13 4 -13 -51 0 -35 8
-105 28 -156 46 -74 25 -90 33 -81 44 6 7 11 30 12 50 1 29 -5 42 -31 65 -18
16 -32 33 -32 38 0 4 20 27 45 50 25 23 45 45 45 50 0 13 -46 41 -68 41 -10 0
-23 -5 -28 -10 -6 -6 -35 -19 -65 -29 -30 -11 -52 -23 -49 -28 3 -4 31 -7 62
-6 l57 1 -17 -34 c-15 -33 -15 -37 1 -62 30 -45 48 -93 45 -116 -3 -19 -10
-21 -95 -24 -73 -2 -93 -6 -93 -17 0 -8 11 -22 25 -31 20 -13 30 -14 61 -4 74
25 146 10 327 -68 92 -40 180 -75 195 -78 26 -5 214 54 234 74 6 6 -37 12
-104 16 -62 4 -136 9 -165 12 -50 6 -51 7 -42 31 5 13 9 44 9 67 0 42 1 44 38
50 20 3 65 6 99 6 70 0 85 11 48 36 -23 15 -36 16 -103 6 -42 -6 -79 -9 -83
-7 -3 3 -4 15 -2 29 4 21 12 25 64 31 90 11 90 39 0 37 -31 0 -49 5 -58 16
-20 27 -16 29 45 36 31 4 65 9 75 12 30 9 19 23 -23 30 l-40 7 21 33 c11 19
18 38 15 42 -6 9 62 22 117 22 25 0 28 2 17 16 -27 32 -48 35 -131 19 -110
-20 -109 -21 -109 18 0 33 0 33 66 44 72 13 83 18 67 34 -14 14 -47 15 -91 5
l-34 -8 3 47 c3 37 -1 50 -16 61 -25 18 -65 18 -65 0z m120 -266 c0 -11 -7
-36 -14 -55 -11 -27 -21 -35 -40 -35 -13 0 -31 -3 -39 -6 -11 -4 -14 2 -14 22
0 18 -10 36 -26 50 l-26 22 72 10 c40 5 75 10 80 11 4 0 7 -8 7 -19z"/>
<path d="M118 742 c28 -39 79 -82 98 -82 19 0 28 24 20 53 -6 27 -38 44 -98
53 l-42 7 22 -31z"/>
</g>
</svg>
