<?xml version="1.0" standalone="no"?>
<!DOCTYPE svg PUBLIC "-//W3C//DTD SVG 20010904//EN"
 "http://www.w3.org/TR/2001/REC-SVG-20010904/DTD/svg10.dtd">
<svg version="1.0" xmlns="http://www.w3.org/2000/svg"
 width="96.000000pt" height="68.000000pt" viewBox="0 0 96.000000 68.000000"
 preserveAspectRatio="xMidYMid meet">
<metadata>
Created by potrace 1.16, written by Peter Selinger 2001-2019
</metadata>
<g transform="translate(0.000000,68.000000) scale(0.100000,-0.100000)"
fill="#000000" stroke="none">
<path d="M180 522 c0 -14 71 -72 88 -72 22 0 26 31 6 50 -22 21 -94 38 -94 22z"/>
<path d="M187 346 c-68 -26 -65 -39 7 -30 l50 7 -17 -26 c-16 -25 -16 -27 8
-63 14 -20 25 -47 25 -60 0 -23 -3 -24 -80 -24 -44 0 -80 -4 -80 -10 0 -21 39
-28 120 -23 84 6 87 5 245 -51 127 -46 168 -56 200 -52 44 6 179 45 173 51 -2
2 -77 9 -168 15 -128 8 -190 18 -277 41 -110 31 -112 31 -102 56 12 33 13 30
-23 63 l-32 29 27 21 c58 46 61 52 35 66 -30 17 -41 16 -111 -10z"/>
</g>
</svg>
