<?xml version="1.0" standalone="no"?>
<!DOCTYPE svg PUBLIC "-//W3C//DTD SVG 20010904//EN"
 "http://www.w3.org/TR/2001/REC-SVG-20010904/DTD/svg10.dtd">
<svg version="1.0" xmlns="http://www.w3.org/2000/svg"
 width="96.000000pt" height="68.000000pt" viewBox="0 0 96.000000 68.000000"
 preserveAspectRatio="xMidYMid meet">
<metadata>
Created by potrace 1.16, written by Peter Selinger 2001-2019
</metadata>
<g transform="translate(0.000000,68.000000) scale(0.100000,-0.100000)"
fill="#000000" stroke="none">
<path d="M557 519 c12 -39 23 -82 23 -94 0 -24 -4 -25 -112 -41 -27 -3 -48
-10 -48 -15 0 -5 5 -9 11 -9 17 0 5 -159 -15 -198 -20 -39 -20 -48 1 -31 9 8
22 29 30 48 16 37 22 35 38 -12 7 -20 16 -30 25 -28 8 2 32 6 53 9 28 3 37 9
37 22 0 11 5 22 10 25 6 3 10 16 10 27 0 20 -4 20 -75 14 -70 -6 -75 -5 -75
12 0 16 10 21 53 27 28 5 55 7 60 7 4 -1 7 3 7 9 0 11 -58 7 -95 -7 -14 -6
-16 -1 -13 32 3 38 4 39 56 50 51 12 54 11 62 -9 4 -12 22 -58 39 -101 l31
-80 -27 -29 c-16 -17 -41 -43 -58 -58 -16 -16 -25 -29 -19 -29 12 0 93 56 109
76 7 9 20 -1 50 -41 43 -58 75 -81 99 -72 12 5 13 12 6 34 -5 15 -11 43 -14
61 -6 46 -13 49 -21 13 -9 -43 -24 -48 -51 -16 -37 44 -37 58 1 123 39 67 43
87 19 96 -34 13 -44 7 -44 -29 0 -20 -7 -47 -16 -61 l-17 -24 -12 23 c-13 25
-35 107 -35 131 0 11 13 18 40 22 56 9 50 24 -9 24 l-50 0 -6 58 c-9 92 -16
107 -51 110 l-31 3 24 -72z m13 -324 c0 -14 -4 -25 -9 -25 -5 0 -16 -3 -25 -6
-11 -4 -19 2 -25 17 -10 27 1 39 37 39 17 0 22 -6 22 -25z"/>
<path d="M217 554 c-3 -3 -1 -21 5 -40 12 -47 7 -139 -9 -140 -7 -1 -30 -2
-50 -3 l-38 -1 -3 -145 c-2 -137 1 -158 23 -136 6 6 45 13 87 17 74 6 79 6 97
-17 18 -23 20 -23 39 -6 18 16 20 30 19 157 -1 134 -2 139 -24 149 -13 6 -36
8 -53 5 -27 -6 -30 -4 -30 19 0 23 4 26 55 32 51 7 75 19 62 32 -9 8 -49 8
-86 -1 l-34 -8 7 35 c4 20 3 37 -1 40 -16 9 -60 16 -66 11z m47 -201 c8 -26
-9 -78 -25 -77 -8 1 -23 5 -34 9 -15 5 -13 1 7 -16 21 -18 26 -30 22 -46 -4
-13 -10 -23 -14 -23 -4 0 -15 -12 -25 -26 -16 -25 -16 -25 4 -15 10 6 29 23
40 38 l21 26 23 -21 c29 -27 37 -28 37 -2 0 11 -9 25 -20 32 -21 13 -28 48
-10 48 6 0 19 -9 30 -20 15 -15 20 -33 20 -75 0 -64 -11 -70 -56 -29 -28 26
-48 18 -25 -10 9 -11 2 -15 -35 -20 -74 -10 -72 -11 -66 47 5 61 7 64 26 48
10 -8 16 -9 21 -2 3 6 -5 16 -19 22 -22 10 -24 17 -23 61 2 40 6 50 22 53 11
2 29 6 40 8 11 3 23 5 27 6 4 0 9 -7 12 -16z m60 11 c11 -4 16 -19 16 -45 0
-40 -5 -45 -29 -30 -8 5 -11 16 -7 29 4 12 1 26 -9 36 -14 14 -14 16 -2 16 9
0 22 -3 31 -6z"/>
<path d="M208 318 c17 -17 25 -19 34 -10 9 9 5 14 -16 22 -40 15 -43 13 -18
-12z"/>
<path d="M685 490 c33 -34 65 -40 65 -11 0 12 -11 23 -31 30 -56 19 -66 14
-34 -19z"/>
</g>
</svg>
