<?xml version="1.0" standalone="no"?>
<!DOCTYPE svg PUBLIC "-//W3C//DTD SVG 20010904//EN"
 "http://www.w3.org/TR/2001/REC-SVG-20010904/DTD/svg10.dtd">
<svg version="1.0" xmlns="http://www.w3.org/2000/svg"
 width="96.000000pt" height="68.000000pt" viewBox="0 0 96.000000 68.000000"
 preserveAspectRatio="xMidYMid meet">
<metadata>
Created by potrace 1.16, written by Peter Selinger 2001-2019
</metadata>
<g transform="translate(0.000000,68.000000) scale(0.100000,-0.100000)"
fill="#000000" stroke="none">
<path d="M260 385 c-36 -7 -82 -13 -102 -14 l-37 -1 6 -52 c2 -29 0 -87 -5
-128 -10 -85 -1 -135 21 -107 8 12 36 18 92 23 80 6 81 6 93 -20 14 -32 25
-33 45 -3 12 19 15 54 15 159 0 134 -1 136 -25 147 -13 6 -27 10 -31 10 -4 -1
-36 -7 -72 -14z m75 -135 l0 -115 -35 0 c-19 -1 -61 -5 -94 -9 -54 -8 -58 -7
-53 10 4 11 8 61 11 113 3 52 8 96 11 99 9 9 79 20 120 19 l40 -2 0 -115z"/>
</g>
</svg>
