<?xml version="1.0" standalone="no"?>
<!DOCTYPE svg PUBLIC "-//W3C//DTD SVG 20010904//EN"
 "http://www.w3.org/TR/2001/REC-SVG-20010904/DTD/svg10.dtd">
<svg version="1.0" xmlns="http://www.w3.org/2000/svg"
 width="96.000000pt" height="68.000000pt" viewBox="0 0 96.000000 68.000000"
 preserveAspectRatio="xMidYMid meet">
<metadata>
Created by potrace 1.16, written by Peter Selinger 2001-2019
</metadata>
<g transform="translate(0.000000,68.000000) scale(0.100000,-0.100000)"
fill="#000000" stroke="none">
<path d="M560 595 c0 -30 -3 -35 -22 -35 -36 0 -68 -11 -62 -21 3 -5 19 -9 36
-9 27 0 30 -3 24 -22 -3 -13 -6 -26 -6 -30 0 -5 -11 -8 -24 -8 -15 0 -26 7
-29 20 -8 31 -47 27 -47 -5 0 -18 -6 -25 -20 -26 -11 -1 -24 -3 -30 -4 -5 -1
-31 -4 -57 -6 -39 -2 -33 -4 31 -8 92 -7 110 -24 39 -39 l-48 -10 40 -1 c67
-2 175 11 175 21 0 5 -19 8 -42 7 -26 -2 -43 1 -46 9 -2 6 2 12 10 13 7 0 22
2 33 5 11 2 37 4 57 5 20 1 43 6 50 10 19 12 -17 23 -53 15 l-31 -6 29 34 c27
33 31 35 95 35 37 1 69 5 73 10 10 18 -36 33 -77 27 -37 -6 -39 -5 -33 15 8
24 -8 39 -42 39 -20 0 -23 -5 -23 -35z"/>
<path d="M300 610 c-6 -4 -5 -13 5 -26 27 -36 19 -44 -43 -44 -68 0 -79 -6
-55 -32 19 -21 46 -23 93 -6 28 9 35 8 45 -5 18 -24 35 -21 35 7 0 18 7 25 30
30 39 7 40 30 0 24 -25 -4 -30 -1 -35 23 -5 20 -13 28 -35 31 -16 3 -34 2 -40
-2z"/>
<path d="M420 369 c-36 -5 -73 -6 -83 -3 -16 5 -17 4 -1 -30 l17 -35 86 5 c96
6 136 12 127 21 -3 3 2 11 11 18 44 32 -20 42 -157 24z m114 -23 c-4 -9 -28
-17 -68 -21 -70 -8 -97 -5 -97 10 0 11 53 21 123 24 37 1 46 -2 42 -13z"/>
<path d="M545 294 c-11 -2 -85 -8 -164 -14 -108 -7 -148 -7 -158 2 -12 9 -19
6 -38 -18 -32 -39 -33 -77 -2 -72 12 2 27 13 32 26 6 13 19 25 30 27 35 8 448
35 453 30 3 -2 -1 -11 -8 -20 -11 -13 -5 -15 49 -15 33 0 61 4 61 9 0 5 -12
19 -26 30 -23 18 -40 21 -118 20 -50 -1 -100 -3 -111 -5z"/>
<path d="M423 237 c-57 -5 -103 -14 -103 -18 0 -5 16 -9 35 -9 44 0 38 -19
-16 -49 -21 -12 -37 -27 -34 -32 3 -5 33 -6 65 -2 57 5 60 5 60 -16 0 -18 -6
-21 -42 -21 -24 0 -50 -5 -58 -10 -11 -7 2 -10 43 -10 50 0 57 -2 57 -20 0
-19 -7 -20 -115 -20 -64 0 -115 -4 -115 -9 0 -19 43 -22 197 -12 87 6 197 11
245 11 86 0 114 11 61 24 -14 4 -73 4 -130 0 -97 -6 -103 -6 -103 12 0 16 9
20 52 22 29 2 56 6 62 9 17 11 -27 22 -65 16 -33 -5 -37 -3 -41 20 -4 23 -1
25 45 31 31 5 54 3 60 -3 16 -16 34 -13 41 4 6 18 -25 41 -69 50 -27 6 -28 5
-12 -8 9 -8 17 -16 17 -19 0 -3 -30 -8 -67 -12 -38 -4 -84 -9 -103 -12 l-35
-6 35 22 c19 13 37 26 40 31 3 4 30 11 60 14 80 9 100 14 100 25 0 11 -23 11
-167 -3z"/>
</g>
</svg>
