<?xml version="1.0" standalone="no"?>
<!DOCTYPE svg PUBLIC "-//W3C//DTD SVG 20010904//EN"
 "http://www.w3.org/TR/2001/REC-SVG-20010904/DTD/svg10.dtd">
<svg version="1.0" xmlns="http://www.w3.org/2000/svg"
 width="96.000000pt" height="68.000000pt" viewBox="0 0 96.000000 68.000000"
 preserveAspectRatio="xMidYMid meet">
<metadata>
Created by potrace 1.16, written by Peter Selinger 2001-2019
</metadata>
<g transform="translate(0.000000,68.000000) scale(0.100000,-0.100000)"
fill="#000000" stroke="none">
<path d="M260 550 c-7 -17 -30 -48 -52 -70 -39 -38 -34 -55 7 -26 12 8 54 15
105 17 l85 4 -4 -40 c-5 -57 -18 -86 -36 -79 -18 7 -19 0 -5 -27 28 -51 69 -5
89 100 17 87 9 92 -109 77 l-55 -7 28 24 c27 22 27 25 12 41 -25 25 -51 20
-65 -14z"/>
<path d="M535 525 c-10 -30 -33 -78 -52 -106 -34 -52 -37 -73 -7 -49 13 12 17
11 25 -1 11 -16 4 -153 -13 -240 -7 -42 -7 -62 2 -78 16 -31 40 -10 40 36 0
18 6 36 13 38 6 2 73 8 147 12 145 9 182 26 65 31 -38 2 -74 7 -78 11 -4 4 -3
20 2 34 9 23 17 27 48 27 21 0 44 4 52 9 20 13 -20 24 -64 17 -32 -5 -35 -4
-35 19 0 27 4 30 63 40 49 8 38 25 -16 25 -40 0 -43 2 -45 30 -2 32 -2 32 81
45 60 10 45 28 -18 23 -38 -3 -55 -1 -55 7 0 17 -33 45 -53 45 -21 0 -21 -9
-2 -34 23 -30 19 -33 -41 -41 -54 -6 -79 -1 -58 13 5 4 25 31 43 61 31 52 32
55 15 68 -31 22 -42 15 -59 -42z m101 -157 c-1 -32 -3 -33 -47 -36 l-47 -3 0
35 0 36 48 0 c47 0 47 0 46 -32z m4 -88 c0 -28 -2 -30 -40 -30 -22 0 -43 0
-47 -1 -10 0 -16 28 -10 44 2 7 25 13 51 15 45 2 46 2 46 -28z m0 -84 c0 -30
-4 -34 -31 -40 -61 -12 -69 -9 -69 28 0 37 8 41 73 45 24 1 27 -2 27 -33z"/>
<path d="M238 430 c5 -34 -12 -60 -39 -60 -13 0 -19 7 -19 24 0 13 -6 26 -14
29 -10 4 -15 -6 -19 -36 -3 -23 -4 -43 -2 -46 3 -2 18 2 35 9 43 18 51 3 15
-26 -16 -13 -24 -24 -16 -24 7 0 29 16 49 36 42 42 92 57 92 28 0 -29 26 4 33
42 5 26 2 33 -13 37 -17 4 -19 1 -14 -18 4 -17 0 -24 -18 -29 -37 -10 -41 -7
-35 23 4 21 2 31 -9 35 -27 10 -31 7 -26 -24z"/>
<path d="M240 311 c0 -5 -11 -23 -25 -39 -15 -19 -21 -33 -15 -37 5 -3 10 -22
10 -41 0 -31 -2 -34 -31 -34 -26 0 -30 2 -19 15 14 16 6 35 -16 35 -8 0 -14
-10 -14 -23 0 -13 -5 -28 -12 -35 -9 -9 -9 -15 0 -24 9 -9 18 -8 39 2 16 8 31
16 36 18 18 8 5 -39 -19 -67 -14 -17 -22 -31 -17 -31 11 0 54 46 76 83 18 28
61 38 70 15 8 -23 29 7 30 43 2 24 -3 34 -15 37 -14 3 -18 -3 -18 -22 0 -21
-5 -26 -25 -26 -21 0 -25 5 -25 30 0 21 -5 30 -16 30 -12 0 -14 3 -6 13 6 7
40 14 83 16 l72 2 -5 -71 c-6 -83 -25 -113 -58 -92 -27 17 -35 15 -16 -3 9 -9
22 -25 30 -37 14 -20 16 -20 40 -5 25 17 28 24 47 140 17 100 2 110 -131 80
-21 -5 -23 -3 -12 8 18 20 15 29 -13 29 -14 0 -25 -4 -25 -9z"/>
</g>
</svg>
