<?xml version="1.0" standalone="no"?>
<!DOCTYPE svg PUBLIC "-//W3C//DTD SVG 20010904//EN"
 "http://www.w3.org/TR/2001/REC-SVG-20010904/DTD/svg10.dtd">
<svg version="1.0" xmlns="http://www.w3.org/2000/svg"
 width="96.000000pt" height="68.000000pt" viewBox="0 0 96.000000 68.000000"
 preserveAspectRatio="xMidYMid meet">
<metadata>
Created by potrace 1.16, written by Peter Selinger 2001-2019
</metadata>
<g transform="translate(0.000000,68.000000) scale(0.100000,-0.100000)"
fill="#000000" stroke="none">
<path d="M271 586 c-87 -12 -156 -26 -158 -32 -4 -13 43 -28 58 -19 5 4 11 0
13 -7 6 -18 16 -305 10 -292 -5 12 -94 -5 -94 -18 0 -5 11 -13 24 -20 21 -9
43 -4 135 27 61 21 113 36 115 34 2 -2 0 -29 -5 -59 -10 -58 -4 -106 13 -116
16 -10 28 17 28 62 0 39 1 41 43 53 23 7 66 26 95 42 l53 30 48 -51 c37 -39
54 -50 78 -50 49 0 123 12 123 20 0 4 -33 19 -73 34 -40 15 -90 38 -110 51
l-36 25 44 82 c25 46 45 91 45 101 0 34 -19 33 -254 -10 l-28 -5 44 -47 c51
-53 88 -100 88 -112 0 -19 -114 -99 -142 -99 -5 0 -7 76 -6 178 l3 177 43 3
c23 2 42 7 42 12 0 28 -70 30 -239 6z m103 -42 c3 -9 6 -27 6 -40 0 -20 -5
-24 -27 -24 -16 0 -45 -3 -66 -7 l-38 -6 3 39 c2 32 7 40 28 45 48 13 88 10
94 -7z m271 -86 c-20 -70 -40 -118 -51 -118 -13 0 -81 80 -86 101 -3 13 69 36
120 38 20 1 22 -3 17 -21z m-263 -31 c3 -31 2 -33 -27 -33 -16 0 -47 -4 -67
-8 -38 -8 -38 -8 -38 23 0 29 2 31 38 32 29 1 78 11 88 18 1 1 4 -14 6 -32z
m-2 -101 l0 -45 -57 -11 c-32 -7 -63 -15 -70 -17 -10 -4 -13 8 -13 45 l0 51
58 6 c31 4 62 8 67 10 6 2 11 4 13 4 1 1 2 -19 2 -43z"/>
</g>
</svg>
