<?xml version="1.0" standalone="no"?>
<!DOCTYPE svg PUBLIC "-//W3C//DTD SVG 20010904//EN"
 "http://www.w3.org/TR/2001/REC-SVG-20010904/DTD/svg10.dtd">
<svg version="1.0" xmlns="http://www.w3.org/2000/svg"
 width="96.000000pt" height="68.000000pt" viewBox="0 0 96.000000 68.000000"
 preserveAspectRatio="xMidYMid meet">
<metadata>
Created by potrace 1.16, written by Peter Selinger 2001-2019
</metadata>
<g transform="translate(0.000000,68.000000) scale(0.100000,-0.100000)"
fill="#000000" stroke="none">
<path d="M525 609 c4 -13 10 -52 12 -86 l5 -62 -46 -6 c-25 -4 -46 -12 -46
-17 0 -7 17 -8 45 -5 l45 7 0 -65 c0 -58 2 -65 20 -65 18 0 20 7 20 69 l0 69
31 6 c39 7 79 8 79 1 0 -4 -7 -19 -15 -35 -9 -17 -13 -30 -10 -30 17 0 115 56
115 67 0 23 -76 38 -133 26 -29 -6 -55 -8 -58 -5 -4 4 -3 34 2 67 4 33 5 63 1
67 -4 4 -23 11 -41 14 -33 7 -34 6 -26 -17z"/>
</g>
</svg>
