<?xml version="1.0" standalone="no"?>
<!DOCTYPE svg PUBLIC "-//W3C//DTD SVG 20010904//EN"
 "http://www.w3.org/TR/2001/REC-SVG-20010904/DTD/svg10.dtd">
<svg version="1.0" xmlns="http://www.w3.org/2000/svg"
 width="96.000000pt" height="68.000000pt" viewBox="0 0 96.000000 68.000000"
 preserveAspectRatio="xMidYMid meet">
<metadata>
Created by potrace 1.16, written by Peter Selinger 2001-2019
</metadata>
<g transform="translate(0.000000,68.000000) scale(0.100000,-0.100000)"
fill="#000000" stroke="none">
<path d="M399 613 c5 -10 18 -28 29 -39 l21 -22 -37 -6 c-62 -10 -157 -7 -170
6 -14 14 -12 16 -44 -43 -26 -48 -23 -77 6 -66 9 4 24 20 34 37 12 21 25 30
42 30 14 0 86 9 160 20 137 20 230 26 230 13 0 -3 -7 -15 -17 -25 -23 -26 -12
-31 38 -18 75 19 74 18 53 41 -38 42 -48 43 -231 13 -30 -4 -33 -3 -33 21 0
20 -8 29 -35 41 -46 19 -58 18 -46 -3z"/>
</g>
</svg>
