<?xml version="1.0" standalone="no"?>
<!DOCTYPE svg PUBLIC "-//W3C//DTD SVG 20010904//EN"
 "http://www.w3.org/TR/2001/REC-SVG-20010904/DTD/svg10.dtd">
<svg version="1.0" xmlns="http://www.w3.org/2000/svg"
 width="90.000000pt" height="92.000000pt" viewBox="0 0 90.000000 92.000000"
 preserveAspectRatio="xMidYMid meet">
<metadata>
Created by potrace 1.16, written by Peter Selinger 2001-2019
</metadata>
<g transform="translate(0.000000,92.000000) scale(0.100000,-0.100000)"
fill="#000000" stroke="none">
<path d="M486 829 c-3 -17 -18 -58 -33 -91 -27 -60 -27 -60 -64 -55 -46 6 -52
1 -34 -27 7 -11 19 -59 25 -106 12 -85 26 -122 40 -100 5 7 50 13 121 15 l114
3 28 93 c15 51 31 97 36 102 14 14 2 36 -30 52 -35 19 -63 19 -114 1 -22 -8
-58 -18 -80 -22 l-39 -7 59 68 59 67 -23 19 c-35 29 -57 24 -65 -12z m149
-179 c0 -34 -1 -35 -40 -36 -22 -1 -66 -7 -98 -13 -69 -15 -87 -10 -87 23 0
26 -3 25 150 55 68 13 75 11 75 -29z m-6 -82 c-4 -55 -12 -61 -84 -64 -39 -2
-82 -6 -97 -10 -26 -5 -28 -3 -28 29 l0 34 83 10 c120 14 127 14 126 1z"/>
<path d="M195 749 c-31 -13 -61 -18 -80 -15 l-30 6 3 -203 c3 -147 -1 -228
-12 -296 -13 -84 -13 -98 0 -130 14 -33 16 -35 29 -18 13 18 20 103 30 392 3
72 5 149 5 172 0 41 0 41 47 51 26 6 49 9 52 7 2 -2 -7 -29 -19 -59 -23 -54
-23 -55 -5 -93 10 -21 19 -56 19 -78 l1 -40 -40 3 -40 3 53 -36 c52 -36 54
-36 74 -18 27 24 19 77 -21 143 -17 28 -31 57 -31 66 0 8 24 40 52 71 l53 55
-24 19 c-29 24 -53 23 -116 -2z"/>
<path d="M495 402 c-66 -9 -122 -17 -124 -19 -11 -8 15 -18 62 -23 49 -5 52
-6 58 -40 9 -42 0 -50 -59 -50 -64 0 -49 -24 16 -28 52 -3 52 -3 52 -36 0 -41
-4 -42 -152 -52 -60 -4 -108 -11 -108 -16 0 -5 15 -15 33 -23 25 -10 44 -11
82 -3 28 5 146 13 264 16 225 7 254 14 191 47 -28 15 -45 15 -131 6 -137 -15
-129 -16 -129 24 0 40 2 41 83 50 31 4 57 10 57 14 0 17 -52 30 -96 24 l-46
-6 3 29 c2 16 0 34 -4 40 -4 8 16 13 65 18 83 8 98 14 73 33 -22 15 -31 15
-190 -5z"/>
</g>
</svg>
