<?xml version="1.0" standalone="no"?>
<!DOCTYPE svg PUBLIC "-//W3C//DTD SVG 20010904//EN"
 "http://www.w3.org/TR/2001/REC-SVG-20010904/DTD/svg10.dtd">
<svg version="1.0" xmlns="http://www.w3.org/2000/svg"
 width="96.000000pt" height="68.000000pt" viewBox="0 0 96.000000 68.000000"
 preserveAspectRatio="xMidYMid meet">
<metadata>
Created by potrace 1.16, written by Peter Selinger 2001-2019
</metadata>
<g transform="translate(0.000000,68.000000) scale(0.100000,-0.100000)"
fill="#000000" stroke="none">
<path d="M295 379 c-27 -5 -76 -10 -107 -11 -37 -1 -55 -5 -50 -12 4 -6 14
-31 22 -56 17 -52 36 -52 32 2 l-3 36 53 11 c29 6 71 12 93 14 l40 2 0 -40 c0
-36 -2 -40 -23 -38 -23 3 -23 3 -5 -22 10 -13 20 -24 23 -25 18 0 33 24 46 75
21 79 7 86 -121 64z"/>
</g>
</svg>
