<?xml version="1.0" standalone="no"?>
<!DOCTYPE svg PUBLIC "-//W3C//DTD SVG 20010904//EN"
 "http://www.w3.org/TR/2001/REC-SVG-20010904/DTD/svg10.dtd">
<svg version="1.0" xmlns="http://www.w3.org/2000/svg"
 width="96.000000pt" height="68.000000pt" viewBox="0 0 96.000000 68.000000"
 preserveAspectRatio="xMidYMid meet">
<metadata>
Created by potrace 1.16, written by Peter Selinger 2001-2019
</metadata>
<g transform="translate(0.000000,68.000000) scale(0.100000,-0.100000)"
fill="#000000" stroke="none">
<path d="M615 608 c-2 -7 -6 -29 -7 -48 -3 -32 -6 -35 -41 -41 -51 -8 -56 -16
-12 -25 25 -4 35 -11 31 -20 -3 -8 -9 -21 -12 -29 -12 -29 16 -15 38 19 23 35
56 45 142 46 30 1 30 1 11 16 -14 11 -34 14 -63 11 -46 -5 -47 -3 -28 44 5 11
-1 19 -19 27 -32 15 -35 15 -40 0z"/>
<path d="M335 580 c-3 -5 1 -23 9 -39 15 -28 15 -29 -16 -35 -17 -3 -46 -6
-64 -6 -40 0 -44 -11 -9 -30 20 -10 33 -11 64 -2 51 16 50 16 61 -13 14 -36
30 -31 30 9 0 31 3 34 35 40 48 9 44 25 -5 19 -38 -5 -40 -4 -40 21 0 19 -7
29 -26 36 -31 12 -31 12 -39 0z"/>
</g>
</svg>
