<?xml version="1.0" standalone="no"?>
<!DOCTYPE svg PUBLIC "-//W3C//DTD SVG 20010904//EN"
 "http://www.w3.org/TR/2001/REC-SVG-20010904/DTD/svg10.dtd">
<svg version="1.0" xmlns="http://www.w3.org/2000/svg"
 width="96.000000pt" height="68.000000pt" viewBox="0 0 96.000000 68.000000"
 preserveAspectRatio="xMidYMid meet">
<metadata>
Created by potrace 1.16, written by Peter Selinger 2001-2019
</metadata>
<g transform="translate(0.000000,68.000000) scale(0.100000,-0.100000)"
fill="#000000" stroke="none">
<path d="M542 293 l3 -28 -72 -3 c-61 -2 -73 0 -73 13 0 14 -36 35 -60 35 -5
0 -7 -13 -4 -28 6 -28 5 -29 -48 -35 -29 -4 -77 -7 -105 -7 -29 0 -53 -4 -53
-10 0 -17 49 -23 131 -16 68 6 79 4 79 -9 0 -31 -31 -76 -81 -115 -58 -46 -57
-47 3 -21 56 25 96 64 120 118 l19 43 74 0 75 0 0 -100 c0 -93 8 -118 26 -88
4 6 10 53 13 102 l6 91 113 3 c61 1 112 6 112 11 0 22 -62 33 -140 27 -75 -7
-80 -6 -80 12 0 20 -18 32 -47 32 -10 0 -13 -8 -11 -27z"/>
</g>
</svg>
