<?xml version="1.0" standalone="no"?>
<!DOCTYPE svg PUBLIC "-//W3C//DTD SVG 20010904//EN"
 "http://www.w3.org/TR/2001/REC-SVG-20010904/DTD/svg10.dtd">
<svg version="1.0" xmlns="http://www.w3.org/2000/svg"
 width="90.000000pt" height="92.000000pt" viewBox="0 0 90.000000 92.000000"
 preserveAspectRatio="xMidYMid meet">
<metadata>
Created by potrace 1.16, written by Peter Selinger 2001-2019
</metadata>
<g transform="translate(0.000000,92.000000) scale(0.100000,-0.100000)"
fill="#000000" stroke="none">
<path d="M630 814 c-6 -14 -10 -30 -10 -35 0 -5 -13 -37 -30 -71 -16 -34 -27
-64 -25 -66 2 -2 37 29 79 68 83 79 87 97 26 119 -28 9 -32 8 -40 -15z"/>
<path d="M380 756 c0 -25 64 -101 89 -104 20 -3 22 0 19 34 -2 30 -9 42 -33
55 -48 27 -75 33 -75 15z"/>
<path d="M255 689 c-16 -5 -68 -16 -114 -24 -47 -8 -87 -18 -90 -21 -11 -10
25 -24 65 -24 l41 0 -8 -42 c-11 -59 -51 -148 -105 -230 -24 -38 -44 -73 -44
-78 0 -21 21 -8 62 40 24 27 46 50 50 50 3 0 9 -27 13 -59 4 -33 13 -68 20
-77 12 -17 14 -17 29 -1 12 12 34 17 71 17 51 0 77 11 56 24 -10 7 8 87 29
126 11 21 10 26 -10 42 -27 22 -33 22 -85 3 -22 -8 -52 -14 -67 -15 l-27 0 41
87 c31 67 38 91 30 104 -9 14 -5 18 26 24 65 11 112 26 112 34 0 8 -45 32 -58
30 -4 0 -20 -5 -37 -10z m5 -348 l0 -58 -42 -6 c-24 -3 -45 -4 -47 -1 -2 2 -6
28 -9 58 -5 59 -2 62 66 65 l32 1 0 -59z"/>
<path d="M560 610 c-52 -10 -116 -19 -142 -19 -26 -1 -49 -5 -53 -10 -7 -13
27 -31 59 -31 33 0 34 -6 40 -207 l5 -162 -42 -6 c-23 -3 -62 -6 -86 -8 -57
-3 -64 -22 -13 -38 30 -9 55 -9 103 0 35 6 146 14 247 18 100 3 182 9 182 13
0 4 -9 15 -21 26 -23 21 -78 25 -163 11 l-49 -7 7 187 c4 103 9 189 11 192 2
2 25 7 51 12 58 11 64 17 40 35 -24 17 -54 16 -176 -6z m15 -62 c2 -7 5 -90 7
-185 l4 -171 -38 -4 -38 -4 0 188 0 188 30 0 c17 0 32 -6 35 -12z"/>
<path d="M720 455 c0 -9 -16 -47 -36 -86 -21 -42 -29 -67 -20 -62 34 19 126
105 126 118 0 16 -38 45 -57 45 -7 0 -13 -7 -13 -15z"/>
<path d="M357 413 c-7 -7 41 -105 56 -115 18 -11 27 1 27 36 0 19 -7 39 -17
48 -26 22 -59 38 -66 31z"/>
</g>
</svg>
