<?xml version="1.0" standalone="no"?>
<!DOCTYPE svg PUBLIC "-//W3C//DTD SVG 20010904//EN"
 "http://www.w3.org/TR/2001/REC-SVG-20010904/DTD/svg10.dtd">
<svg version="1.0" xmlns="http://www.w3.org/2000/svg"
 width="96.000000pt" height="68.000000pt" viewBox="0 0 96.000000 68.000000"
 preserveAspectRatio="xMidYMid meet">
<metadata>
Created by potrace 1.16, written by Peter Selinger 2001-2019
</metadata>
<g transform="translate(0.000000,68.000000) scale(0.100000,-0.100000)"
fill="#000000" stroke="none">
<path d="M440 564 c-74 -8 -156 -13 -183 -12 -45 3 -61 -4 -34 -15 8 -3 24
-30 37 -61 17 -44 26 -55 39 -51 25 8 207 24 276 25 l60 1 32 52 c19 31 28 56
23 61 -15 15 -108 15 -250 0z m173 -46 c-8 -42 -8 -42 -51 -44 -20 -1 -85 -5
-144 -9 l-108 -8 -14 34 c-8 19 -13 35 -11 37 6 6 165 19 247 21 l88 1 -7 -32z"/>
</g>
</svg>
