<?xml version="1.0" standalone="no"?>
<!DOCTYPE svg PUBLIC "-//W3C//DTD SVG 20010904//EN"
 "http://www.w3.org/TR/2001/REC-SVG-20010904/DTD/svg10.dtd">
<svg version="1.0" xmlns="http://www.w3.org/2000/svg"
 width="96.000000pt" height="68.000000pt" viewBox="0 0 96.000000 68.000000"
 preserveAspectRatio="xMidYMid meet">
<metadata>
Created by potrace 1.16, written by Peter Selinger 2001-2019
</metadata>
<g transform="translate(0.000000,68.000000) scale(0.100000,-0.100000)"
fill="#000000" stroke="none">
<path d="M566 285 c-3 -8 -1 -15 3 -15 5 0 11 7 15 15 3 8 1 15 -3 15 -5 0
-11 -7 -15 -15z"/>
<path d="M581 270 c-13 -11 -29 -20 -37 -20 -8 0 -14 -4 -14 -9 0 -5 7 -8 16
-7 13 1 16 -15 19 -104 4 -125 3 -116 16 -103 5 5 10 30 11 54 0 24 4 53 8 64
4 11 4 29 0 40 -4 11 -3 26 4 34 9 12 8 13 -7 8 -11 -4 -16 -3 -12 3 3 6 13
10 21 10 16 0 19 16 4 25 -6 4 -8 11 -5 16 9 13 3 11 -24 -11z"/>
<path d="M690 260 c0 -5 7 -10 16 -10 8 0 12 5 9 10 -3 6 -10 10 -16 10 -5 0
-9 -4 -9 -10z"/>
<path d="M454 228 c2 -13 -5 -35 -16 -50 -10 -15 -15 -29 -10 -32 10 -6 68 3
96 15 16 7 12 8 -16 4 -25 -4 -38 -2 -38 5 0 6 -4 8 -10 5 -23 -14 -8 12 21
38 17 15 29 27 28 28 -49 11 -59 9 -55 -13z"/>
<path d="M705 178 c-22 -5 -50 -7 -62 -5 -13 2 -23 1 -23 -4 0 -4 36 -7 80 -6
77 2 97 8 64 21 -9 3 -16 6 -17 5 -1 -1 -20 -5 -42 -11z"/>
</g>
</svg>
