<?xml version="1.0" standalone="no"?>
<!DOCTYPE svg PUBLIC "-//W3C//DTD SVG 20010904//EN"
 "http://www.w3.org/TR/2001/REC-SVG-20010904/DTD/svg10.dtd">
<svg version="1.0" xmlns="http://www.w3.org/2000/svg"
 width="96.000000pt" height="68.000000pt" viewBox="0 0 96.000000 68.000000"
 preserveAspectRatio="xMidYMid meet">
<metadata>
Created by potrace 1.16, written by Peter Selinger 2001-2019
</metadata>
<g transform="translate(0.000000,68.000000) scale(0.100000,-0.100000)"
fill="#000000" stroke="none">
<path d="M183 281 c-22 -44 -20 -81 3 -81 27 0 50 78 30 105 -12 16 -14 14
-33 -24z"/>
<path d="M480 311 c0 -12 45 -51 58 -51 16 0 15 25 0 37 -17 13 -58 23 -58 14z"/>
<path d="M397 280 c18 -31 43 -40 43 -17 0 17 -32 47 -49 47 -8 0 -7 -9 6 -30z"/>
<path d="M307 260 c17 -29 43 -41 43 -19 0 23 -22 49 -41 49 -20 0 -20 -1 -2
-30z"/>
</g>
</svg>
