<?xml version="1.0" standalone="no"?>
<!DOCTYPE svg PUBLIC "-//W3C//DTD SVG 20010904//EN"
 "http://www.w3.org/TR/2001/REC-SVG-20010904/DTD/svg10.dtd">
<svg version="1.0" xmlns="http://www.w3.org/2000/svg"
 width="96.000000pt" height="68.000000pt" viewBox="0 0 96.000000 68.000000"
 preserveAspectRatio="xMidYMid meet">
<metadata>
Created by potrace 1.16, written by Peter Selinger 2001-2019
</metadata>
<g transform="translate(0.000000,68.000000) scale(0.100000,-0.100000)"
fill="#000000" stroke="none">
<path d="M497 555 c-3 -30 -8 -59 -12 -64 -3 -6 -28 -13 -55 -17 -62 -8 -65
-24 -5 -24 l46 0 -17 -32 c-21 -41 -44 -71 -96 -125 -45 -48 -43 -52 10 -22
40 23 77 66 123 142 19 30 36 47 49 47 11 0 59 -36 107 -80 79 -72 92 -80 128
-80 50 0 79 15 50 26 -53 18 -145 68 -190 101 -46 35 -48 38 -25 41 102 11
114 14 96 24 -11 6 -49 8 -97 4 l-79 -7 17 45 c14 37 15 47 4 60 -8 9 -21 16
-31 16 -14 0 -18 -12 -23 -55z"/>
</g>
</svg>
