<?xml version="1.0" standalone="no"?>
<!DOCTYPE svg PUBLIC "-//W3C//DTD SVG 20010904//EN"
 "http://www.w3.org/TR/2001/REC-SVG-20010904/DTD/svg10.dtd">
<svg version="1.0" xmlns="http://www.w3.org/2000/svg"
 width="90.000000pt" height="92.000000pt" viewBox="0 0 90.000000 92.000000"
 preserveAspectRatio="xMidYMid meet">
<metadata>
Created by potrace 1.16, written by Peter Selinger 2001-2019
</metadata>
<g transform="translate(0.000000,92.000000) scale(0.100000,-0.100000)"
fill="#000000" stroke="none">
<path d="M340 873 c0 -27 -47 -98 -111 -167 -52 -57 -53 -58 -19 -41 19 9 42
24 52 32 14 13 23 11 72 -14 l57 -29 -79 -52 c-44 -28 -108 -65 -143 -81 -35
-16 -56 -30 -46 -30 36 -2 144 42 225 90 l83 50 75 -41 c41 -23 96 -54 121
-71 56 -35 69 -36 83 -8 9 17 8 25 -7 41 -21 23 -105 67 -180 93 l-51 18 31
39 c18 21 49 50 70 64 41 30 39 42 -15 70 -26 13 -35 13 -94 -6 -83 -25 -92
-25 -69 0 16 18 17 22 4 34 -8 8 -24 17 -36 21 -18 5 -23 2 -23 -12z m160 -92
c0 -4 -18 -29 -40 -54 l-40 -45 -65 21 -65 21 30 29 c16 16 33 27 37 24 4 -2
28 -1 53 3 65 11 90 11 90 1z"/>
<path d="M370 562 c0 -10 81 -62 97 -62 19 0 16 34 -5 53 -19 17 -92 24 -92 9z"/>
<path d="M340 471 c0 -12 94 -81 109 -81 22 0 11 48 -15 69 -27 21 -94 29 -94
12z"/>
<path d="M565 461 c-3 -5 -1 -12 5 -16 5 -3 10 -24 10 -46 l0 -39 -42 -2 c-24
-1 -58 -1 -75 1 -35 2 -42 -9 -19 -28 8 -7 18 -27 21 -44 11 -56 26 -97 36
-97 5 0 9 7 9 15 0 10 10 15 34 15 33 0 34 -1 37 -44 4 -44 4 -44 -31 -50 -19
-3 -54 -6 -77 -6 -49 0 -53 -7 -19 -40 28 -26 25 -26 181 20 102 30 110 31
120 15 5 -10 20 -30 32 -44 19 -22 24 -24 33 -11 13 18 5 68 -14 89 -20 22
-85 56 -92 48 -4 -4 -1 -13 6 -22 17 -20 14 -22 -42 -30 l-48 -7 0 46 0 46 61
0 c51 0 60 3 55 16 -7 17 15 64 38 83 23 19 20 26 -16 45 -27 15 -42 16 -85 8
l-53 -9 6 37 c5 32 3 40 -14 49 -25 13 -49 14 -57 2z m142 -147 c-7 -43 -4
-40 -44 -49 -33 -7 -33 -6 -33 33 0 47 4 52 48 52 34 0 35 0 29 -36z m-127
-19 c0 -45 0 -45 -35 -45 -34 0 -35 1 -35 39 0 36 3 40 28 44 15 2 30 5 35 6
4 0 7 -19 7 -44z"/>
<path d="M175 433 c4 -10 9 -32 12 -49 5 -30 4 -31 -42 -37 -26 -4 -58 -4 -71
-1 -29 7 -29 8 -4 -41 11 -22 20 -48 20 -58 0 -41 17 -55 60 -50 l40 6 0 -41
c0 -37 -2 -41 -32 -47 -17 -4 -53 -7 -80 -7 -26 0 -50 -4 -53 -8 -8 -13 57
-62 74 -56 9 3 67 23 129 45 l112 40 16 -24 c25 -38 46 -32 42 12 -3 32 -9 40
-47 60 -47 24 -62 24 -41 -2 16 -19 11 -25 -34 -35 l-36 -8 0 38 0 39 55 6
c46 6 55 10 50 24 -3 10 7 35 25 59 l29 41 -27 21 c-26 21 -54 22 -116 3 -17
-5 -18 -1 -13 31 6 39 -10 56 -53 56 -17 0 -21 -4 -15 -17z m140 -130 c-9 -50
-11 -53 -46 -53 -27 0 -29 2 -29 39 0 42 8 49 54 50 27 1 28 0 21 -36z m-129
-59 c-3 -8 -17 -14 -31 -14 -19 0 -25 5 -25 23 0 12 -3 32 -6 44 -5 19 -1 22
28 25 31 3 33 1 36 -31 2 -18 1 -39 -2 -47z"/>
</g>
</svg>
