<?xml version="1.0" standalone="no"?>
<!DOCTYPE svg PUBLIC "-//W3C//DTD SVG 20010904//EN"
 "http://www.w3.org/TR/2001/REC-SVG-20010904/DTD/svg10.dtd">
<svg version="1.0" xmlns="http://www.w3.org/2000/svg"
 width="90.000000pt" height="92.000000pt" viewBox="0 0 90.000000 92.000000"
 preserveAspectRatio="xMidYMid meet">
<metadata>
Created by potrace 1.16, written by Peter Selinger 2001-2019
</metadata>
<g transform="translate(0.000000,92.000000) scale(0.100000,-0.100000)"
fill="#000000" stroke="none">
<path d="M525 888 c-2 -7 -6 -29 -7 -48 -3 -32 -6 -35 -48 -43 -41 -8 -43 -10
-25 -23 10 -8 28 -11 38 -8 16 5 19 3 14 -10 -19 -46 -16 -48 17 -13 34 35 41
38 112 44 41 3 77 10 80 15 10 16 -57 36 -90 27 -42 -12 -52 -11 -38 3 20 20
14 37 -18 53 -24 12 -31 13 -35 3z"/>
<path d="M240 865 c0 -2 8 -20 17 -40 9 -19 14 -37 11 -41 -4 -3 -31 -6 -62
-7 -31 -1 -56 -4 -56 -7 0 -4 11 -17 25 -30 24 -22 25 -22 66 -6 23 9 42 16
43 14 1 -2 7 -16 14 -31 15 -36 32 -26 32 19 0 21 5 34 13 34 7 0 22 7 33 16
18 15 17 15 -18 10 -36 -4 -38 -3 -38 23 0 15 -5 32 -12 39 -11 11 -68 17 -68
7z"/>
<path d="M425 689 c-44 -9 -104 -18 -132 -18 -49 -1 -67 -11 -44 -26 5 -3 15
-31 21 -63 15 -79 27 -105 45 -98 10 3 15 -1 15 -12 0 -36 -17 -43 -124 -54
-98 -10 -106 -12 -92 -27 18 -17 78 -21 141 -8 l40 9 -35 -37 c-43 -44 -112
-97 -183 -137 l-52 -29 40 6 c70 12 171 72 234 142 l58 63 74 6 74 7 100 -93
c55 -50 110 -96 123 -101 22 -8 111 4 140 21 9 4 -22 19 -80 39 -52 19 -124
54 -162 80 l-70 46 99 5 c109 6 127 17 69 45 -32 15 -46 16 -104 6 -118 -19
-244 -26 -236 -12 4 6 3 18 -4 26 -9 11 -2 15 42 20 29 4 71 5 93 3 l40 -3 25
72 c14 39 28 75 33 79 14 14 7 30 -22 47 -35 20 -60 20 -166 -4z m115 -45 c0
-21 -4 -25 -20 -21 -11 3 -59 -1 -106 -10 -95 -16 -114 -13 -114 17 0 17 7 20
43 21 23 0 62 4 87 8 25 5 60 9 78 10 28 1 32 -2 32 -25z m-12 -76 c-3 -21
-12 -24 -101 -37 -53 -8 -99 -12 -101 -10 -2 2 -6 14 -10 25 -6 20 -2 22 71
31 134 17 145 16 141 -9z"/>
<path d="M370 351 c0 -58 -8 -71 -44 -72 -17 -1 -42 -4 -56 -8 l-25 -7 24 -13
c13 -7 34 -11 47 -8 13 2 24 1 24 -2 0 -13 -63 -96 -109 -143 -52 -55 -45 -61
20 -19 53 34 76 58 122 132 33 52 39 57 82 63 26 3 52 3 57 0 14 -9 4 -104
-14 -141 -14 -29 -32 -33 -76 -19 -21 7 -20 3 13 -43 29 -40 40 -49 53 -42 36
19 52 50 73 136 11 50 25 95 30 101 17 20 -40 57 -76 49 -80 -17 -100 -18 -87
-4 18 20 14 46 -10 63 -36 26 -48 20 -48 -23z"/>
</g>
</svg>
