<?xml version="1.0" standalone="no"?>
<!DOCTYPE svg PUBLIC "-//W3C//DTD SVG 20010904//EN"
 "http://www.w3.org/TR/2001/REC-SVG-20010904/DTD/svg10.dtd">
<svg version="1.0" xmlns="http://www.w3.org/2000/svg"
 width="96.000000pt" height="68.000000pt" viewBox="0 0 96.000000 68.000000"
 preserveAspectRatio="xMidYMid meet">
<metadata>
Created by potrace 1.16, written by Peter Selinger 2001-2019
</metadata>
<g transform="translate(0.000000,68.000000) scale(0.100000,-0.100000)"
fill="#000000" stroke="none">
<path d="M490 589 c0 -4 12 -21 26 -38 14 -17 21 -31 14 -31 -22 0 -205 -21
-218 -25 -9 -3 -6 -11 9 -26 18 -18 20 -28 14 -72 -16 -122 -51 -199 -137
-292 -27 -30 -45 -55 -40 -55 13 0 100 66 124 94 38 44 76 134 97 231 12 54
23 100 24 102 3 2 186 20 300 29 42 3 77 9 77 14 0 15 -52 21 -120 14 -66 -6
-67 -6 -74 19 -3 14 -15 29 -27 32 -33 11 -69 13 -69 4z"/>
</g>
</svg>
