<?xml version="1.0" standalone="no"?>
<!DOCTYPE svg PUBLIC "-//W3C//DTD SVG 20010904//EN"
 "http://www.w3.org/TR/2001/REC-SVG-20010904/DTD/svg10.dtd">
<svg version="1.0" xmlns="http://www.w3.org/2000/svg"
 width="96.000000pt" height="68.000000pt" viewBox="0 0 96.000000 68.000000"
 preserveAspectRatio="xMidYMid meet">
<metadata>
Created by potrace 1.16, written by Peter Selinger 2001-2019
</metadata>
<g transform="translate(0.000000,68.000000) scale(0.100000,-0.100000)"
fill="#000000" stroke="none">
<path d="M605 449 c-22 -4 -87 -11 -145 -15 l-105 -7 3 -70 c2 -38 -1 -90 -8
-114 -12 -49 -6 -83 14 -83 16 0 26 64 26 159 0 36 4 72 9 79 7 12 132 29 261
35 l45 2 3 -105 c2 -58 0 -120 -3 -138 -6 -33 -7 -34 -43 -27 l-37 6 35 -30
c42 -36 42 -36 66 -10 15 17 18 34 16 112 -1 51 2 114 7 142 6 33 6 54 -1 62
-12 14 -81 15 -143 2z"/>
</g>
</svg>
