<?xml version="1.0" standalone="no"?>
<!DOCTYPE svg PUBLIC "-//W3C//DTD SVG 20010904//EN"
 "http://www.w3.org/TR/2001/REC-SVG-20010904/DTD/svg10.dtd">
<svg version="1.0" xmlns="http://www.w3.org/2000/svg"
 width="96.000000pt" height="68.000000pt" viewBox="0 0 96.000000 68.000000"
 preserveAspectRatio="xMidYMid meet">
<metadata>
Created by potrace 1.16, written by Peter Selinger 2001-2019
</metadata>
<g transform="translate(0.000000,68.000000) scale(0.100000,-0.100000)"
fill="#000000" stroke="none">
<path d="M620 551 c0 -50 -9 -61 -51 -61 -18 0 -23 11 -31 65 -2 12 -12 21
-25 23 -21 3 -22 1 -12 -28 6 -17 9 -44 5 -60 -3 -17 -1 -30 4 -30 6 0 10 -12
10 -27 0 -16 4 -33 8 -39 10 -15 117 -3 118 14 1 6 2 23 3 36 1 22 6 24 73 31
64 7 70 9 53 21 -10 8 -38 14 -62 14 l-44 0 6 34 c6 28 3 36 -13 45 -35 19
-42 13 -42 -38z m-10 -110 c0 -21 -6 -32 -20 -36 -28 -9 -40 2 -40 36 0 26 3
29 30 29 27 0 30 -3 30 -29z"/>
</g>
</svg>
