<?xml version="1.0" standalone="no"?>
<!DOCTYPE svg PUBLIC "-//W3C//DTD SVG 20010904//EN"
 "http://www.w3.org/TR/2001/REC-SVG-20010904/DTD/svg10.dtd">
<svg version="1.0" xmlns="http://www.w3.org/2000/svg"
 width="90.000000pt" height="92.000000pt" viewBox="0 0 90.000000 92.000000"
 preserveAspectRatio="xMidYMid meet">
<metadata>
Created by potrace 1.16, written by Peter Selinger 2001-2019
</metadata>
<g transform="translate(0.000000,92.000000) scale(0.100000,-0.100000)"
fill="#000000" stroke="none">
<path d="M490 832 c-9 -35 -22 -57 -91 -146 -22 -28 -22 -28 -1 -17 11 6 25
11 31 11 16 0 13 -43 -3 -65 -20 -28 -3 -59 24 -45 74 39 88 29 45 -34 -13
-20 -21 -36 -16 -36 15 0 58 49 71 80 7 17 18 30 24 30 6 0 21 3 34 6 16 5 22
2 22 -10 0 -9 6 -16 14 -16 20 0 42 100 24 112 -22 14 -33 2 -30 -30 3 -25 0
-32 -15 -32 -10 0 -28 -3 -40 -6 -21 -6 -22 -4 -13 27 8 28 7 36 -7 47 -28 20
-33 14 -33 -37 0 -47 -1 -49 -32 -54 -18 -2 -34 -4 -36 -2 -1 1 2 14 7 29 9
21 7 28 -7 37 -17 11 -16 14 11 40 16 16 32 27 36 25 4 -3 33 2 65 10 32 8 81
14 109 12 l52 -3 3 -53 c2 -30 -2 -78 -8 -108 -11 -53 -12 -54 -46 -54 l-34 0
26 -40 c15 -22 30 -40 34 -40 20 0 59 63 64 103 5 43 15 143 19 186 1 15 -7
30 -23 42 -24 18 -28 17 -138 -5 l-113 -24 20 22 c28 30 26 50 -4 64 -35 16
-33 17 -45 -26z"/>
<path d="M214 803 c-13 -53 -65 -144 -104 -183 -44 -44 -46 -48 -27 -73 11
-17 15 -16 70 2 69 24 68 17 -17 -74 -31 -33 -56 -63 -56 -67 0 -3 7 -14 16
-23 15 -14 19 -14 47 4 18 10 60 30 93 44 60 24 62 24 78 6 20 -24 33 -24 41
1 8 26 -10 57 -45 75 -39 20 -41 19 -38 -11 3 -24 -3 -29 -60 -50 -35 -14 -62
-20 -60 -15 1 5 43 53 93 106 50 54 91 104 93 111 4 16 -16 54 -28 54 -5 0
-21 -24 -35 -54 -25 -53 -27 -54 -76 -61 -28 -4 -53 -4 -56 -1 -6 5 94 133
122 156 20 17 19 36 -5 60 -27 27 -38 25 -46 -7z"/>
<path d="M440 467 c0 -25 -46 -101 -80 -132 -19 -18 -20 -18 -20 3 0 28 -34
62 -61 62 -20 0 -20 0 3 -42 30 -56 62 -59 121 -14 46 35 134 55 262 59 l60 2
-1 -110 c-1 -124 -19 -190 -51 -182 -10 3 -31 8 -46 11 l-29 7 33 -46 c19 -26
37 -49 41 -51 17 -11 48 8 68 42 21 32 26 63 52 313 2 15 -6 30 -23 43 -26 20
-27 20 -158 -1 -72 -12 -134 -21 -138 -21 -3 0 2 9 13 21 22 24 10 52 -25 57
-16 3 -21 -2 -21 -21z"/>
<path d="M195 310 c24 -48 49 -64 58 -37 8 22 -14 64 -39 76 -42 19 -45 13
-19 -39z"/>
<path d="M515 327 c4 -18 2 -45 -4 -60 -9 -22 -17 -27 -46 -27 -37 0 -39 3
-25 35 5 13 3 26 -8 38 -22 25 -30 21 -30 -17 0 -18 -5 -43 -11 -55 -9 -15 -9
-27 -1 -41 13 -24 17 -24 50 -5 14 8 33 14 43 15 17 0 16 -3 -5 -42 -13 -22
-41 -54 -62 -70 -41 -30 -34 -38 13 -14 36 19 89 79 97 111 6 24 12 27 76 40
11 2 18 -5 20 -19 5 -37 21 -23 39 37 17 57 17 57 -4 72 -31 22 -34 19 -33
-22 1 -33 -2 -38 -32 -46 -18 -6 -35 -7 -38 -4 -4 4 -2 25 4 47 9 35 8 42 -8
50 -33 18 -41 12 -35 -23z"/>
<path d="M65 308 c14 -50 51 -113 65 -113 11 0 15 10 14 37 -1 43 -15 63 -57
84 -28 15 -29 15 -22 -8z"/>
</g>
</svg>
