<?xml version="1.0" standalone="no"?>
<!DOCTYPE svg PUBLIC "-//W3C//DTD SVG 20010904//EN"
 "http://www.w3.org/TR/2001/REC-SVG-20010904/DTD/svg10.dtd">
<svg version="1.0" xmlns="http://www.w3.org/2000/svg"
 width="96.000000pt" height="68.000000pt" viewBox="0 0 96.000000 68.000000"
 preserveAspectRatio="xMidYMid meet">
<metadata>
Created by potrace 1.16, written by Peter Selinger 2001-2019
</metadata>
<g transform="translate(0.000000,68.000000) scale(0.100000,-0.100000)"
fill="#000000" stroke="none">
<path d="M558 463 c-3 -33 -7 -38 -30 -41 -24 -3 -28 0 -28 22 0 38 -23 32
-36 -9 -14 -43 -5 -50 42 -35 44 15 52 8 30 -25 -9 -14 -12 -25 -6 -25 5 0 20
15 32 34 22 33 78 56 86 35 7 -18 20 -8 31 23 9 24 8 34 -1 40 -21 13 -28 9
-28 -16 0 -15 -7 -26 -19 -29 -26 -6 -45 7 -38 27 4 10 -1 20 -13 26 -17 9
-19 6 -22 -27z"/>
</g>
</svg>
