<?xml version="1.0" standalone="no"?>
<!DOCTYPE svg PUBLIC "-//W3C//DTD SVG 20010904//EN"
 "http://www.w3.org/TR/2001/REC-SVG-20010904/DTD/svg10.dtd">
<svg version="1.0" xmlns="http://www.w3.org/2000/svg"
 width="96.000000pt" height="68.000000pt" viewBox="0 0 96.000000 68.000000"
 preserveAspectRatio="xMidYMid meet">
<metadata>
Created by potrace 1.16, written by Peter Selinger 2001-2019
</metadata>
<g transform="translate(0.000000,68.000000) scale(0.100000,-0.100000)"
fill="#000000" stroke="none">
<path d="M337 240 c9 -16 23 -30 30 -30 20 0 15 38 -6 50 -35 18 -43 11 -24
-20z"/>
<path d="M257 205 c17 -35 53 -49 53 -20 0 19 -36 55 -55 55 -13 0 -12 -5 2
-35z"/>
<path d="M162 168 c24 -45 50 -56 56 -25 5 23 -35 67 -60 67 -18 0 -18 -2 4
-42z"/>
</g>
</svg>
