<?xml version="1.0" standalone="no"?>
<!DOCTYPE svg PUBLIC "-//W3C//DTD SVG 20010904//EN"
 "http://www.w3.org/TR/2001/REC-SVG-20010904/DTD/svg10.dtd">
<svg version="1.0" xmlns="http://www.w3.org/2000/svg"
 width="90.000000pt" height="92.000000pt" viewBox="0 0 90.000000 92.000000"
 preserveAspectRatio="xMidYMid meet">
<metadata>
Created by potrace 1.16, written by Peter Selinger 2001-2019
</metadata>
<g transform="translate(0.000000,92.000000) scale(0.100000,-0.100000)"
fill="#000000" stroke="none">
<path d="M567 864 c-3 -4 -3 -27 0 -53 7 -68 -8 -101 -49 -102 -18 0 -42 -4
-53 -9 -19 -7 -19 -8 6 -18 14 -5 37 -8 52 -5 15 3 27 2 27 -1 0 -23 -37 -87
-68 -118 -39 -41 -37 -46 7 -24 29 15 85 74 93 97 3 8 22 -2 57 -30 59 -46 74
-48 79 -10 3 29 -22 45 -89 55 -29 5 -39 11 -35 21 4 8 6 17 6 19 0 2 9 4 19
4 42 0 121 24 121 37 0 18 -41 26 -74 14 -49 -19 -54 -15 -45 32 4 23 8 48 9
54 0 14 -54 45 -63 37z"/>
<path d="M379 802 c-1 -4 0 -17 1 -29 1 -24 -26 -83 -39 -83 -5 0 -14 7 -21
15 -21 25 -71 58 -77 51 -4 -4 13 -26 36 -50 50 -51 48 -62 -23 -115 -25 -19
-44 -36 -41 -39 2 -2 30 10 61 27 59 32 73 30 74 -10 0 -34 -65 -144 -122
-204 -82 -88 -36 -75 55 16 l67 67 0 -73 c0 -79 -15 -174 -30 -189 -5 -5 -25
-5 -49 2 l-41 10 30 -38 c52 -65 59 -68 86 -37 33 39 43 85 50 232 5 99 3 150
-9 214 l-16 83 38 58 c36 54 38 60 23 73 -21 18 -52 29 -53 19z"/>
<path d="M110 771 c0 -17 65 -96 83 -99 22 -4 34 43 16 64 -20 24 -99 52 -99
35z"/>
<path d="M57 569 c41 -70 93 -89 93 -34 0 29 -49 65 -88 65 -23 0 -23 0 -5
-31z"/>
<path d="M635 535 c-71 -13 -152 -26 -179 -30 -44 -6 -47 -8 -33 -22 14 -14
26 -14 94 -4 43 7 90 14 105 17 24 5 28 1 37 -33 13 -46 14 -282 2 -302 -7
-10 -21 -12 -57 -6 l-49 7 50 -55 c28 -30 56 -54 64 -54 8 1 22 13 33 27 17
23 19 47 21 225 l2 200 60 3 c73 4 88 15 47 36 -37 19 -32 19 -197 -9z"/>
<path d="M185 465 c-19 -46 -90 -160 -116 -188 -30 -31 -31 -42 -5 -96 18 -39
34 -36 45 7 6 22 29 88 51 148 23 60 39 118 37 129 -3 20 -3 20 -12 0z"/>
<path d="M510 423 c-19 -8 -47 -12 -62 -9 -31 6 -34 0 -13 -28 8 -10 17 -38
21 -62 3 -25 10 -46 14 -49 4 -3 33 0 64 6 49 10 55 14 51 33 -3 11 3 38 14
59 19 37 19 37 -2 52 -26 18 -42 18 -87 -2z m40 -52 c0 -56 -55 -83 -66 -33
-3 15 -7 32 -9 39 -4 11 16 18 58 22 12 1 17 -7 17 -28z"/>
</g>
</svg>
