<?xml version="1.0" standalone="no"?>
<!DOCTYPE svg PUBLIC "-//W3C//DTD SVG 20010904//EN"
 "http://www.w3.org/TR/2001/REC-SVG-20010904/DTD/svg10.dtd">
<svg version="1.0" xmlns="http://www.w3.org/2000/svg"
 width="96.000000pt" height="68.000000pt" viewBox="0 0 96.000000 68.000000"
 preserveAspectRatio="xMidYMid meet">
<metadata>
Created by potrace 1.16, written by Peter Selinger 2001-2019
</metadata>
<g transform="translate(0.000000,68.000000) scale(0.100000,-0.100000)"
fill="#000000" stroke="none">
<path d="M642 340 c-30 -28 -71 -42 -57 -21 9 16 -12 22 -25 6 -17 -21 -3 -51
31 -65 30 -13 173 -10 186 4 17 17 -17 25 -77 18 -36 -4 -78 -5 -95 -2 l-30 6
35 16 c19 8 52 20 73 27 40 13 47 25 21 35 -23 9 -26 8 -62 -24z"/>
</g>
</svg>
