<?xml version="1.0" standalone="no"?>
<!DOCTYPE svg PUBLIC "-//W3C//DTD SVG 20010904//EN"
 "http://www.w3.org/TR/2001/REC-SVG-20010904/DTD/svg10.dtd">
<svg version="1.0" xmlns="http://www.w3.org/2000/svg"
 width="96.000000pt" height="68.000000pt" viewBox="0 0 96.000000 68.000000"
 preserveAspectRatio="xMidYMid meet">
<metadata>
Created by potrace 1.16, written by Peter Selinger 2001-2019
</metadata>
<g transform="translate(0.000000,68.000000) scale(0.100000,-0.100000)"
fill="#000000" stroke="none">
<path d="M234 572 c-19 -59 -33 -83 -78 -130 -72 -77 -44 -81 49 -7 22 18 53
35 68 39 l28 7 -23 -33 c-41 -57 -53 -67 -83 -66 -51 1 -65 -2 -65 -13 0 -5 5
-7 12 -3 6 4 8 3 5 -3 -4 -5 -1 -37 5 -71 l11 -61 99 2 98 2 11 35 c7 19 20
52 30 72 l19 37 -29 16 c-30 15 -81 12 -111 -8 -8 -5 17 20 55 56 l70 66 -27
10 c-21 8 -38 7 -69 -4 l-41 -15 16 25 c22 34 20 42 -14 54 -26 9 -32 8 -36
-7z m4 -207 c20 -8 14 -45 -8 -47 -52 -4 -54 -3 -61 28 -6 30 -5 31 25 28 17
-2 37 -6 44 -9z m122 -9 c0 -14 -4 -27 -10 -31 -17 -11 -60 7 -60 24 0 24 9
31 42 31 23 0 28 -4 28 -24z m-12 -75 c-3 -17 -31 -26 -53 -17 -18 7 -9 34 13
39 26 5 43 -4 40 -22z m-103 -6 c0 -26 -49 -34 -59 -10 -9 25 3 37 32 33 19
-2 27 -9 27 -23z"/>
<path d="M625 580 c-16 -4 -51 -8 -77 -9 -26 0 -50 -6 -54 -12 -5 -8 18 -9 84
-4 50 4 92 3 95 -2 12 -19 -11 -30 -78 -37 -125 -12 -165 -18 -165 -27 0 -8
104 -5 187 6 44 6 66 -8 36 -23 -10 -5 -48 -13 -85 -17 -37 -3 -71 -11 -74
-17 -5 -8 18 -8 77 -3 46 4 94 7 107 7 17 -1 22 4 22 23 0 30 15 40 60 40 45
0 51 18 8 25 -26 4 -32 9 -30 24 6 34 -40 44 -113 26z"/>
<path d="M676 410 c-21 -4 -47 -5 -58 -3 -10 3 -18 0 -18 -6 0 -6 4 -11 10
-11 5 0 14 -18 20 -41 9 -33 15 -39 28 -33 9 4 36 9 60 12 31 3 42 8 42 21 0
9 5 22 11 28 7 7 9 19 6 27 -7 17 -36 19 -101 6z m54 -31 c0 -22 -6 -26 -45
-30 -25 -3 -31 0 -33 18 -3 17 3 22 25 25 49 6 53 5 53 -13z"/>
<path d="M478 393 c-39 -4 -54 -23 -18 -23 15 0 20 -7 20 -25 0 -20 -6 -25
-35 -31 -19 -3 -35 -10 -35 -14 0 -20 43 -19 102 1 73 24 87 33 41 27 -23 -3
-33 0 -36 11 -7 28 4 41 34 41 18 0 28 4 24 10 -6 10 -24 10 -97 3z"/>
<path d="M665 282 c8 -36 2 -38 -147 -48 -60 -4 -108 -10 -108 -14 0 -14 74
-21 110 -10 19 5 61 10 92 10 l58 0 0 -71 0 -72 -41 6 -41 5 28 -29 c66 -69
94 -48 94 72 0 64 4 89 13 90 6 1 34 3 60 4 86 4 77 29 -11 32 -51 1 -57 4
-62 25 -4 14 -14 24 -29 26 -21 3 -22 1 -16 -26z"/>
<path d="M350 196 c0 -3 9 -21 21 -40 13 -22 26 -33 35 -29 19 7 18 16 -7 47
-17 22 -49 36 -49 22z"/>
<path d="M116 154 c-27 -42 -27 -74 1 -74 21 0 47 68 35 94 -8 19 -11 18 -36
-20z"/>
<path d="M270 184 c0 -12 42 -64 51 -64 18 0 9 39 -13 54 -23 17 -38 20 -38
10z"/>
<path d="M200 169 c0 -20 21 -49 35 -49 21 0 19 30 -2 46 -22 16 -33 17 -33 3z"/>
<path d="M500 173 c0 -18 49 -56 64 -50 32 12 12 40 -37 52 -15 4 -27 3 -27
-2z"/>
</g>
</svg>
