<?xml version="1.0" standalone="no"?>
<!DOCTYPE svg PUBLIC "-//W3C//DTD SVG 20010904//EN"
 "http://www.w3.org/TR/2001/REC-SVG-20010904/DTD/svg10.dtd">
<svg version="1.0" xmlns="http://www.w3.org/2000/svg"
 width="96.000000pt" height="68.000000pt" viewBox="0 0 96.000000 68.000000"
 preserveAspectRatio="xMidYMid meet">
<metadata>
Created by potrace 1.16, written by Peter Selinger 2001-2019
</metadata>
<g transform="translate(0.000000,68.000000) scale(0.100000,-0.100000)"
fill="#000000" stroke="none">
<path d="M388 228 c4 -114 14 -138 65 -165 64 -35 304 -18 338 24 9 10 8 26
-6 68 l-19 54 -12 -35 c-24 -71 -48 -83 -172 -85 -85 -2 -127 8 -144 35 -11
17 -9 91 3 142 6 25 10 46 8 48 -2 2 -18 7 -34 10 l-31 7 4 -103z"/>
</g>
</svg>
