<?xml version="1.0" standalone="no"?>
<!DOCTYPE svg PUBLIC "-//W3C//DTD SVG 20010904//EN"
 "http://www.w3.org/TR/2001/REC-SVG-20010904/DTD/svg10.dtd">
<svg version="1.0" xmlns="http://www.w3.org/2000/svg"
 width="90.000000pt" height="92.000000pt" viewBox="0 0 90.000000 92.000000"
 preserveAspectRatio="xMidYMid meet">
<metadata>
Created by potrace 1.16, written by Peter Selinger 2001-2019
</metadata>
<g transform="translate(0.000000,92.000000) scale(0.100000,-0.100000)"
fill="#000000" stroke="none">
<path d="M516 891 c-3 -4 4 -22 15 -39 10 -18 19 -36 19 -41 0 -4 -42 -14 -92
-21 -109 -14 -122 -20 -84 -35 22 -9 43 -9 90 1 33 7 115 18 181 25 66 6 122
13 125 16 3 3 -4 11 -15 20 -15 11 -34 13 -78 8 -32 -3 -64 -8 -71 -11 -9 -3
-11 4 -8 24 2 16 -1 33 -7 37 -22 13 -71 24 -75 16z"/>
<path d="M125 793 c12 -28 24 -103 24 -154 1 -46 1 -46 -36 -52 -21 -4 -49 -4
-62 0 -22 6 -23 4 -17 -18 4 -13 12 -46 17 -74 19 -100 15 -94 59 -88 l40 6 0
-60 0 -60 -39 -11 c-21 -7 -55 -12 -75 -12 -20 0 -36 -4 -36 -8 0 -10 43 -52
54 -52 4 0 53 23 109 50 56 28 105 50 108 50 3 0 11 -11 17 -25 15 -32 30 -32
38 0 7 29 -14 67 -51 91 -30 20 -41 14 -26 -15 10 -18 7 -22 -18 -36 -17 -8
-32 -15 -36 -15 -3 0 -5 27 -5 59 l0 59 50 7 c30 4 49 12 48 18 -3 13 31 106
44 124 7 8 -2 18 -29 31 -30 15 -44 17 -67 9 -20 -7 -30 -6 -35 2 -8 12 1 101
13 139 8 25 -26 52 -67 52 -24 0 -28 -3 -22 -17z m122 -264 c-7 -59 -5 -54
-34 -63 -22 -7 -23 -5 -23 53 l0 61 31 0 32 0 -6 -51z m-99 -19 c0 -50 -3 -60
-20 -66 -25 -8 -24 -8 -33 53 -6 49 -5 54 17 62 12 6 26 10 29 10 4 1 6 -26 7
-59z"/>
<path d="M550 734 c-36 -7 -83 -13 -104 -14 -37 0 -38 -1 -23 -17 8 -10 19
-31 23 -48 14 -59 19 -64 66 -53 24 5 62 10 86 11 40 2 44 5 72 54 l30 52 -29
16 c-34 17 -34 17 -121 -1z m70 -41 c0 -10 -4 -23 -8 -29 -7 -10 -112 -38
-118 -31 -2 2 -7 17 -10 35 -6 29 -4 31 27 35 84 10 109 8 109 -10z"/>
<path d="M625 584 c-111 -15 -235 -18 -235 -4 0 6 -4 10 -9 10 -12 0 -54 -119
-47 -136 10 -27 35 -14 51 29 l17 44 136 17 c75 10 152 16 171 14 l33 -3 -22
-28 c-12 -15 -20 -30 -18 -33 7 -6 121 17 132 27 5 4 -7 24 -26 44 -40 39 -42
39 -183 19z"/>
<path d="M540 505 c-30 -7 -67 -14 -82 -14 -39 -1 -44 -19 -7 -28 l31 -8 -49
-46 c-26 -25 -57 -50 -68 -56 -11 -7 -17 -14 -14 -17 3 -4 34 8 67 26 34 17
65 29 68 25 10 -10 -52 -82 -106 -123 -27 -21 -48 -40 -45 -42 11 -11 117 52
150 89 25 28 40 38 47 31 24 -24 -64 -118 -192 -206 -35 -24 -46 -35 -30 -31
61 16 151 69 200 117 l53 53 -6 -63 c-9 -89 -20 -106 -63 -99 l-35 6 31 -39
c41 -52 48 -55 71 -34 40 36 63 177 38 240 l-10 28 23 -19 c13 -11 25 -23 28
-26 3 -3 29 -27 58 -52 59 -52 85 -58 152 -31 40 16 45 34 10 34 -43 0 -152
43 -203 81 l-56 41 60 30 c32 16 59 34 59 39 0 4 -12 16 -27 26 -21 14 -27 15
-31 4 -6 -19 -72 -91 -83 -91 -5 0 -27 13 -49 29 l-41 29 31 18 c17 10 28 24
26 30 -3 7 18 16 55 23 38 8 59 17 56 24 -5 16 -51 17 -117 2z"/>
</g>
</svg>
