<?xml version="1.0" standalone="no"?>
<!DOCTYPE svg PUBLIC "-//W3C//DTD SVG 20010904//EN"
 "http://www.w3.org/TR/2001/REC-SVG-20010904/DTD/svg10.dtd">
<svg version="1.0" xmlns="http://www.w3.org/2000/svg"
 width="96.000000pt" height="68.000000pt" viewBox="0 0 96.000000 68.000000"
 preserveAspectRatio="xMidYMid meet">
<metadata>
Created by potrace 1.16, written by Peter Selinger 2001-2019
</metadata>
<g transform="translate(0.000000,68.000000) scale(0.100000,-0.100000)"
fill="#000000" stroke="none">
<path d="M465 355 c-49 -8 -106 -12 -125 -8 -29 4 -33 3 -22 -8 7 -8 12 -41
12 -86 0 -71 0 -72 23 -64 29 11 223 18 233 8 4 -4 17 -7 30 -7 21 0 23 5 26
76 2 42 0 80 -3 86 -10 16 -80 17 -174 3z m119 -31 c13 -35 11 -35 -146 -49
l-68 -6 0 30 c0 29 2 30 53 34 129 9 155 7 161 -9z m4 -76 c-3 -22 -9 -23
-108 -30 -106 -8 -128 -3 -117 26 6 15 20 17 185 24 40 2 43 0 40 -20z"/>
</g>
</svg>
