<?xml version="1.0" standalone="no"?>
<!DOCTYPE svg PUBLIC "-//W3C//DTD SVG 20010904//EN"
 "http://www.w3.org/TR/2001/REC-SVG-20010904/DTD/svg10.dtd">
<svg version="1.0" xmlns="http://www.w3.org/2000/svg"
 width="96.000000pt" height="68.000000pt" viewBox="0 0 96.000000 68.000000"
 preserveAspectRatio="xMidYMid meet">
<metadata>
Created by potrace 1.16, written by Peter Selinger 2001-2019
</metadata>
<g transform="translate(0.000000,68.000000) scale(0.100000,-0.100000)"
fill="#000000" stroke="none">
<path d="M278 506 l5 -94 -77 -7 c-91 -9 -91 -25 0 -25 47 0 64 -4 64 -13 0
-23 -95 -151 -134 -181 -42 -32 -42 -45 1 -23 28 16 81 67 123 122 l23 30 -6
-80 c-4 -44 -9 -98 -13 -120 -4 -29 -1 -46 10 -60 16 -20 16 -20 31 -1 11 15
15 47 15 125 l0 104 23 -21 c28 -26 50 -29 45 -5 -2 10 -18 24 -36 32 -29 13
-32 19 -32 58 0 45 1 46 64 55 32 5 14 23 -24 24 -34 0 -35 1 -32 40 1 21 5
53 8 71 4 25 0 35 -18 47 -42 30 -46 22 -40 -78z"/>
</g>
</svg>
