<?xml version="1.0" standalone="no"?>
<!DOCTYPE svg PUBLIC "-//W3C//DTD SVG 20010904//EN"
 "http://www.w3.org/TR/2001/REC-SVG-20010904/DTD/svg10.dtd">
<svg version="1.0" xmlns="http://www.w3.org/2000/svg"
 width="96.000000pt" height="68.000000pt" viewBox="0 0 96.000000 68.000000"
 preserveAspectRatio="xMidYMid meet">
<metadata>
Created by potrace 1.16, written by Peter Selinger 2001-2019
</metadata>
<g transform="translate(0.000000,68.000000) scale(0.100000,-0.100000)"
fill="#000000" stroke="none">
<path d="M126 234 c-11 -28 -6 -61 10 -75 13 -11 17 -10 25 4 15 26 86 23 110
-5 l19 -23 20 24 c11 13 20 38 20 57 0 29 -3 34 -24 34 -17 0 -26 -7 -30 -23
-5 -20 -12 -24 -56 -26 -48 -2 -50 -1 -50 24 0 18 -5 25 -19 25 -10 0 -22 -7
-25 -16z"/>
</g>
</svg>
