<?xml version="1.0" standalone="no"?>
<!DOCTYPE svg PUBLIC "-//W3C//DTD SVG 20010904//EN"
 "http://www.w3.org/TR/2001/REC-SVG-20010904/DTD/svg10.dtd">
<svg version="1.0" xmlns="http://www.w3.org/2000/svg"
 width="96.000000pt" height="68.000000pt" viewBox="0 0 96.000000 68.000000"
 preserveAspectRatio="xMidYMid meet">
<metadata>
Created by potrace 1.16, written by Peter Selinger 2001-2019
</metadata>
<g transform="translate(0.000000,68.000000) scale(0.100000,-0.100000)"
fill="#000000" stroke="none">
<path d="M235 530 c-16 -4 -50 -8 -74 -9 -37 -1 -42 -3 -35 -18 5 -10 9 -71 9
-135 -1 -107 1 -118 17 -118 11 0 18 7 18 20 0 17 7 20 45 20 25 0 48 1 53 3
4 1 8 -8 10 -20 2 -16 10 -23 25 -23 22 0 22 2 21 132 -1 115 -4 133 -20 145
-19 14 -24 14 -69 3z m29 -26 c11 -4 16 -19 16 -45 0 -35 -3 -39 -24 -39 -14
0 -36 -4 -50 -10 -26 -9 -26 -9 -26 40 0 38 4 50 18 53 27 7 49 8 66 1z m14
-147 c3 -30 0 -37 -15 -37 -10 0 -35 -3 -56 -7 l-38 -6 3 39 c3 36 6 40 38 45
58 11 65 7 68 -34z"/>
</g>
</svg>
