<?xml version="1.0" standalone="no"?>
<!DOCTYPE svg PUBLIC "-//W3C//DTD SVG 20010904//EN"
 "http://www.w3.org/TR/2001/REC-SVG-20010904/DTD/svg10.dtd">
<svg version="1.0" xmlns="http://www.w3.org/2000/svg"
 width="90.000000pt" height="92.000000pt" viewBox="0 0 90.000000 92.000000"
 preserveAspectRatio="xMidYMid meet">
<metadata>
Created by potrace 1.16, written by Peter Selinger 2001-2019
</metadata>
<g transform="translate(0.000000,92.000000) scale(0.100000,-0.100000)"
fill="#000000" stroke="none">
<path d="M200 839 c0 -34 -41 -107 -88 -161 -24 -26 -40 -48 -35 -48 11 0 51
26 83 55 18 16 42 24 83 27 31 3 57 3 57 0 0 -17 -64 -112 -80 -117 -10 -3
-46 -7 -80 -8 -60 -1 -61 -2 -54 -27 38 -131 8 -336 -58 -407 -14 -15 -17 -23
-8 -23 28 0 97 86 110 138 l13 50 54 6 c29 3 78 9 109 12 l56 7 -7 -64 c-11
-108 -12 -109 -82 -82 -11 4 -1 -13 26 -45 24 -29 49 -51 55 -49 6 2 18 17 28
33 14 24 17 63 19 241 3 248 3 249 -74 239 l-49 -7 47 55 c26 31 51 56 56 56
20 0 7 31 -16 42 -20 9 -37 8 -81 -6 -31 -10 -58 -16 -60 -13 -3 2 8 19 23 37
l27 33 -28 23 c-34 30 -46 30 -46 3z m152 -308 l3 -50 -42 2 -43 2 0 48 0 47
39 0 39 0 4 -49z m-125 -20 c5 -39 4 -41 -20 -41 -14 0 -32 -3 -41 -6 -13 -5
-16 2 -16 44 0 48 2 51 28 54 36 5 43 -2 49 -51z m133 -94 l0 -43 -50 -1 c-52
-1 -54 1 -41 47 5 20 15 26 46 31 22 3 41 7 43 8 1 0 2 -18 2 -42z m-130 -17
l0 -40 -40 0 c-39 0 -40 1 -40 34 0 32 3 35 33 39 17 2 35 5 40 5 4 1 7 -16 7
-38z"/>
<path d="M625 789 c-44 -9 -97 -18 -117 -18 -20 -1 -39 -5 -43 -10 -9 -16 31
-31 66 -24 31 6 32 5 25 -23 -9 -35 -71 -130 -100 -150 -26 -18 -3 -18 32 0
57 30 129 138 117 175 -5 16 2 19 45 25 66 9 74 3 66 -48 -11 -63 -32 -89 -67
-82 l-30 6 18 -31 c28 -48 39 -54 68 -35 23 15 55 94 55 136 0 8 7 25 15 37
14 20 13 23 -11 42 -31 24 -32 24 -139 0z"/>
<path d="M606 511 l6 -50 -36 -7 c-44 -8 -53 -2 -31 19 22 22 19 36 -11 47
-33 13 -31 14 -38 -17 -4 -16 -21 -54 -37 -86 -24 -47 -27 -56 -12 -49 10 6
27 20 37 31 15 16 31 21 73 21 l53 0 0 -39 0 -39 -50 -6 c-167 -20 -156 -17
-134 -33 15 -11 37 -13 102 -7 l82 6 0 -125 c0 -69 4 -128 9 -132 15 -9 30 60
37 166 l7 97 103 7 c57 4 106 11 109 16 3 4 -8 15 -25 24 -25 13 -41 14 -92 5
-98 -16 -98 -16 -98 29 l0 39 61 11 c34 6 64 13 68 16 14 14 -29 25 -77 20
l-54 -5 7 30 c8 37 -8 60 -42 60 -23 0 -23 -2 -17 -49z"/>
</g>
</svg>
