<?xml version="1.0" standalone="no"?>
<!DOCTYPE svg PUBLIC "-//W3C//DTD SVG 20010904//EN"
 "http://www.w3.org/TR/2001/REC-SVG-20010904/DTD/svg10.dtd">
<svg version="1.0" xmlns="http://www.w3.org/2000/svg"
 width="96.000000pt" height="68.000000pt" viewBox="0 0 96.000000 68.000000"
 preserveAspectRatio="xMidYMid meet">
<metadata>
Created by potrace 1.16, written by Peter Selinger 2001-2019
</metadata>
<g transform="translate(0.000000,68.000000) scale(0.100000,-0.100000)"
fill="#000000" stroke="none">
<path d="M252 571 c-6 -17 -29 -50 -51 -74 -23 -24 -41 -47 -41 -51 0 -13 28
-5 60 19 24 18 47 25 78 25 l43 0 -28 -39 c-28 -40 -56 -51 -126 -51 -25 0
-27 -3 -20 -22 4 -13 7 -60 6 -104 -1 -85 -15 -127 -56 -172 -27 -29 -12 -28
28 3 18 13 41 44 51 68 l18 44 89 7 c49 4 91 5 93 3 3 -2 1 -28 -4 -58 -8 -53
-8 -54 -40 -51 -18 1 -32 0 -32 -2 0 -2 16 -16 37 -31 l36 -28 19 22 c15 20
18 42 18 148 0 71 5 133 11 145 16 30 -11 53 -62 53 l-41 0 47 42 c32 30 45
48 41 59 -6 17 -27 16 -111 -2 l-30 -7 23 25 c21 24 22 27 7 42 -26 25 -52 20
-63 -13z m138 -190 c0 -11 3 -26 6 -35 5 -13 -2 -16 -35 -16 -40 0 -41 1 -41
35 0 33 2 35 35 35 28 0 35 -4 35 -19z m-112 -27 c3 -28 0 -32 -27 -36 -30 -4
-31 -3 -31 34 0 37 2 39 28 36 22 -2 28 -9 30 -34z m122 -75 c0 -27 -3 -29
-38 -29 -46 0 -51 3 -45 35 4 18 13 25 37 27 42 5 46 2 46 -33z m-116 6 c10
-28 -5 -45 -39 -45 -31 0 -33 2 -30 28 2 15 4 27 4 27 16 9 60 1 65 -10z"/>
<path d="M615 544 c-38 -7 -86 -13 -105 -14 -33 -1 -34 -2 -10 -11 13 -6 35
-7 47 -4 18 4 23 1 23 -13 0 -19 -41 -80 -62 -93 -7 -5 -9 -11 -6 -15 19 -19
124 95 114 123 -4 10 8 13 46 13 l51 0 -6 -36 c-8 -49 -24 -65 -54 -58 -25 7
-25 7 -8 -20 34 -52 76 -24 102 69 23 81 10 86 -132 59z"/>
<path d="M610 350 c0 -39 -1 -40 -37 -40 -33 0 -35 1 -18 13 21 16 13 37 -15
37 -11 0 -20 -10 -25 -27 -3 -16 -16 -38 -27 -50 -27 -29 -18 -39 13 -15 13
10 43 19 67 21 40 2 42 1 42 -28 0 -32 -3 -34 -109 -47 -79 -9 -42 -26 42 -18
l67 7 2 -44 c0 -24 0 -54 -1 -65 -1 -12 4 -35 10 -50 15 -42 27 -15 35 84 l7
82 66 1 c83 2 110 5 118 12 12 13 -52 28 -92 22 -22 -4 -52 -9 -67 -11 -25 -4
-28 -1 -28 25 0 27 4 31 38 36 54 9 64 14 57 25 -4 7 -24 8 -51 4 -45 -6 -45
-6 -38 20 5 22 2 27 -21 36 -36 14 -35 15 -35 -30z"/>
</g>
</svg>
