<?xml version="1.0" standalone="no"?>
<!DOCTYPE svg PUBLIC "-//W3C//DTD SVG 20010904//EN"
 "http://www.w3.org/TR/2001/REC-SVG-20010904/DTD/svg10.dtd">
<svg version="1.0" xmlns="http://www.w3.org/2000/svg"
 width="90.000000pt" height="92.000000pt" viewBox="0 0 90.000000 92.000000"
 preserveAspectRatio="xMidYMid meet">
<metadata>
Created by potrace 1.16, written by Peter Selinger 2001-2019
</metadata>
<g transform="translate(0.000000,92.000000) scale(0.100000,-0.100000)"
fill="#000000" stroke="none">
<path d="M135 788 c20 -67 25 -101 25 -180 l0 -86 -42 -7 c-73 -11 -81 -15
-67 -31 7 -9 30 -14 61 -14 l49 0 -3 -92 -3 -93 -72 -25 c-40 -14 -73 -30 -73
-37 0 -8 14 -22 31 -32 l31 -19 131 85 c73 46 136 88 142 94 17 17 -19 9 -73
-16 -30 -14 -56 -25 -58 -25 -2 0 -4 38 -4 85 0 60 4 87 13 89 6 2 33 10 60
16 26 7 47 18 47 25 0 21 -53 37 -84 25 -15 -5 -28 -10 -30 -10 -5 0 6 139 14
177 6 23 10 46 10 52 0 15 -54 41 -86 41 -23 0 -25 -3 -19 -22z"/>
<path d="M635 761 c-11 -5 -73 -17 -137 -27 -65 -10 -118 -22 -118 -26 0 -24
160 -21 284 5 66 13 79 28 41 45 -30 14 -42 14 -70 3z"/>
<path d="M590 599 c-47 -10 -115 -20 -152 -21 -38 -1 -68 -3 -68 -5 0 -2 6
-16 14 -31 7 -15 19 -74 25 -130 7 -57 15 -110 18 -118 6 -15 33 -20 33 -5 0
15 176 24 199 9 32 -20 46 2 79 132 17 63 33 123 37 132 5 13 -3 22 -34 37
-47 24 -41 24 -151 0z m90 -56 c0 -62 -6 -68 -68 -68 -31 0 -80 -4 -108 -9
l-51 -8 -7 37 c-4 20 -5 40 -1 43 8 8 141 30 193 31 39 1 42 -1 42 -26z m-16
-152 l-7 -51 -36 6 c-20 3 -64 1 -98 -4 -60 -8 -63 -8 -63 12 0 12 -3 30 -6
42 -5 19 1 21 103 35 59 8 109 14 111 13 2 -1 0 -25 -4 -53z"/>
<path d="M730 207 c-5 -5 -202 -23 -384 -36 -100 -7 -117 -20 -58 -44 35 -14
48 -14 123 -1 46 8 167 16 268 19 101 2 186 7 189 10 3 3 -4 15 -15 27 -20 19
-110 38 -123 25z"/>
</g>
</svg>
