<?xml version="1.0" standalone="no"?>
<!DOCTYPE svg PUBLIC "-//W3C//DTD SVG 20010904//EN"
 "http://www.w3.org/TR/2001/REC-SVG-20010904/DTD/svg10.dtd">
<svg version="1.0" xmlns="http://www.w3.org/2000/svg"
 width="96.000000pt" height="68.000000pt" viewBox="0 0 96.000000 68.000000"
 preserveAspectRatio="xMidYMid meet">
<metadata>
Created by potrace 1.16, written by Peter Selinger 2001-2019
</metadata>
<g transform="translate(0.000000,68.000000) scale(0.100000,-0.100000)"
fill="#000000" stroke="none">
<path d="M645 575 c-38 -7 -81 -11 -94 -8 -21 5 -23 3 -16 -13 4 -10 11 -53
14 -94 5 -60 9 -74 21 -70 8 2 43 6 78 8 l62 4 0 -155 c0 -169 -6 -190 -50
-167 -12 6 -24 10 -26 7 -6 -6 27 -41 57 -60 25 -16 27 -16 45 4 17 19 19 43
24 273 5 235 4 252 -14 269 -10 9 -21 16 -25 16 -3 -1 -37 -7 -76 -14z m65
-45 c0 -23 -5 -30 -19 -30 -10 0 -39 -3 -65 -6 l-46 -7 0 31 c0 33 8 36 98 40
29 2 32 0 32 -28z m-15 -102 c-11 -3 -41 -6 -67 -7 -44 -1 -48 1 -48 23 0 21
6 24 63 32 61 9 62 9 67 -16 4 -19 1 -27 -15 -32z"/>
<path d="M315 550 c-11 -5 -44 -9 -73 -9 l-53 -1 8 -52 c12 -80 9 -233 -6
-321 -13 -71 -13 -80 3 -95 26 -27 33 -3 41 137 3 69 8 131 10 137 4 13 82 25
112 18 23 -6 22 -9 54 119 11 43 10 49 -7 62 -21 16 -59 18 -89 5z m35 -47 c0
-22 -5 -28 -22 -28 -13 -1 -36 -4 -51 -8 -27 -7 -28 -6 -25 20 3 25 8 29 48
34 25 3 46 7 48 7 1 1 2 -10 2 -25z m0 -78 c0 -14 -6 -25 -12 -25 -7 0 -30 -3
-50 -6 -36 -6 -38 -5 -38 19 0 23 5 26 43 30 23 2 45 4 50 5 4 1 7 -9 7 -23z"/>
<path d="M438 304 l4 -75 -34 3 c-28 2 -34 7 -36 31 -3 24 0 27 27 27 17 0 31
5 31 11 0 7 -9 9 -22 5 -13 -3 -39 -6 -58 -6 -23 0 -30 -3 -22 -9 7 -4 19 -26
27 -47 11 -33 17 -38 37 -35 50 8 53 7 53 -24 l0 -30 -67 -3 c-70 -3 -84 -13
-47 -32 15 -9 38 -7 92 6 142 33 147 33 160 13 7 -11 17 -19 24 -19 22 0 14
30 -13 55 -30 28 -57 33 -48 10 4 -9 1 -15 -7 -15 -8 0 -24 -3 -36 -6 -20 -6
-23 -3 -23 25 0 27 3 31 28 31 50 0 67 11 84 51 17 40 17 40 -6 49 -13 5 -32
7 -42 5 -11 -2 -25 -4 -31 -4 -23 -2 -14 -18 10 -17 17 1 23 -5 25 -25 3 -22
-2 -27 -25 -32 -38 -7 -42 -3 -36 45 6 60 -3 88 -30 88 -21 0 -22 -3 -19 -76z"/>
</g>
</svg>
