<?xml version="1.0" standalone="no"?>
<!DOCTYPE svg PUBLIC "-//W3C//DTD SVG 20010904//EN"
 "http://www.w3.org/TR/2001/REC-SVG-20010904/DTD/svg10.dtd">
<svg version="1.0" xmlns="http://www.w3.org/2000/svg"
 width="96.000000pt" height="68.000000pt" viewBox="0 0 96.000000 68.000000"
 preserveAspectRatio="xMidYMid meet">
<metadata>
Created by potrace 1.16, written by Peter Selinger 2001-2019
</metadata>
<g transform="translate(0.000000,68.000000) scale(0.100000,-0.100000)"
fill="#000000" stroke="none">
<path d="M280 594 c0 -5 9 -24 20 -42 11 -18 20 -36 20 -41 0 -5 -40 -12 -88
-15 -100 -8 -121 -16 -97 -36 11 -9 35 -11 90 -6 43 4 75 3 75 -2 0 -20 -84
-112 -102 -112 -5 0 -8 -9 -8 -19 0 -22 18 -32 40 -21 27 13 110 22 110 11 0
-12 -148 -144 -182 -162 -12 -7 -18 -14 -12 -16 15 -5 76 29 139 77 52 40 175
172 175 188 0 10 -33 42 -43 42 -3 0 -10 -15 -17 -32 -19 -57 -34 -69 -94 -75
-32 -3 -56 -1 -56 4 0 5 25 31 56 58 50 43 55 50 40 61 -14 10 -7 13 41 18
140 16 154 18 150 30 -3 7 -32 10 -86 9 -78 -1 -81 0 -81 21 0 13 -8 30 -17
39 -21 18 -73 33 -73 21z"/>
<path d="M635 551 c4 -12 4 -49 0 -81 l-7 -58 -59 -7 c-36 -4 -57 -11 -53 -17
4 -6 27 -8 55 -5 27 3 49 4 49 1 0 -18 -45 -132 -64 -163 -13 -21 -52 -63 -87
-94 -34 -32 -55 -57 -47 -57 19 0 118 67 136 91 7 10 19 24 26 32 21 21 53 87
71 149 14 50 20 57 47 63 21 5 35 2 46 -9 13 -13 14 -24 3 -88 -16 -91 -47
-165 -72 -173 -10 -4 -28 -3 -39 0 -11 4 -20 2 -20 -4 0 -6 5 -11 10 -11 6 0
10 -6 10 -13 0 -7 10 -18 21 -26 19 -11 25 -10 48 6 36 27 58 78 82 191 11 53
23 106 26 118 7 30 -38 47 -92 34 -22 -5 -41 -7 -44 -5 -2 3 2 32 9 65 7 33
11 63 8 65 -2 3 -19 8 -37 11 -31 6 -33 5 -26 -15z"/>
<path d="M417 267 c-15 -34 -115 -132 -154 -150 -13 -6 -23 -14 -23 -19 0 -10
50 15 107 53 50 35 56 35 75 7 9 -14 20 -19 31 -15 24 9 21 21 -8 37 -33 18
-32 35 5 62 33 24 38 43 14 52 -27 10 -33 7 -47 -27z"/>
</g>
</svg>
