<?xml version="1.0" standalone="no"?>
<!DOCTYPE svg PUBLIC "-//W3C//DTD SVG 20010904//EN"
 "http://www.w3.org/TR/2001/REC-SVG-20010904/DTD/svg10.dtd">
<svg version="1.0" xmlns="http://www.w3.org/2000/svg"
 width="96.000000pt" height="68.000000pt" viewBox="0 0 96.000000 68.000000"
 preserveAspectRatio="xMidYMid meet">
<metadata>
Created by potrace 1.16, written by Peter Selinger 2001-2019
</metadata>
<g transform="translate(0.000000,68.000000) scale(0.100000,-0.100000)"
fill="#000000" stroke="none">
<path d="M269 603 c-1 -5 -2 -44 -3 -88 l-1 -80 -63 -10 c-76 -12 -71 -25 10
-25 l58 0 0 -45 0 -46 -66 -30 c-37 -16 -77 -32 -91 -35 -32 -8 -26 -35 10
-47 23 -7 35 -4 70 20 71 47 77 48 77 5 0 -20 -3 -48 -7 -60 -5 -21 -10 -23
-39 -18 -18 4 -35 2 -39 -4 -3 -5 -3 -10 2 -10 4 0 25 -16 46 -35 44 -40 48
-41 70 -17 13 15 17 39 17 114 l0 96 38 31 c27 22 32 30 19 31 -10 0 -27 -5
-38 -10 -17 -10 -19 -7 -19 28 0 38 1 40 40 46 26 4 40 11 40 21 0 15 -17 20
-54 16 -16 -1 -18 4 -13 41 3 24 9 53 13 66 5 19 1 24 -30 37 -40 17 -46 18
-47 8z"/>
<path d="M640 336 c0 -255 3 -296 20 -296 10 0 30 89 30 135 0 35 1 35 44 35
57 0 106 10 106 22 0 6 -30 8 -72 6 l-73 -3 -3 43 -3 42 53 0 c60 0 95 14 65
26 -10 4 -41 4 -68 1 l-50 -6 3 40 3 41 60 5 c32 2 62 6 64 9 13 12 -28 24
-64 18 -22 -3 -44 -7 -50 -8 -6 0 -9 26 -7 68 3 72 -4 86 -40 86 -17 0 -18
-19 -18 -264z"/>
<path d="M497 513 c4 -16 7 -41 8 -58 0 -28 -3 -30 -55 -41 -60 -12 -51 -26
15 -22 37 3 40 1 40 -22 0 -22 -6 -26 -52 -35 -73 -14 -79 -28 -10 -23 56 3
57 3 57 -24 0 -25 -6 -29 -55 -43 -30 -9 -64 -14 -75 -10 -22 7 -26 -5 -8 -23
17 -17 43 -15 88 8 34 18 40 18 40 5 0 -25 -29 -77 -64 -114 -17 -19 -26 -32
-21 -30 97 44 144 133 145 274 1 39 5 90 10 115 10 53 0 70 -41 70 -27 0 -29
-2 -22 -27z"/>
</g>
</svg>
