<?xml version="1.0" standalone="no"?>
<!DOCTYPE svg PUBLIC "-//W3C//DTD SVG 20010904//EN"
 "http://www.w3.org/TR/2001/REC-SVG-20010904/DTD/svg10.dtd">
<svg version="1.0" xmlns="http://www.w3.org/2000/svg"
 width="96.000000pt" height="68.000000pt" viewBox="0 0 96.000000 68.000000"
 preserveAspectRatio="xMidYMid meet">
<metadata>
Created by potrace 1.16, written by Peter Selinger 2001-2019
</metadata>
<g transform="translate(0.000000,68.000000) scale(0.100000,-0.100000)"
fill="#000000" stroke="none">
<path d="M254 563 c-13 -44 -42 -90 -77 -126 -60 -60 -40 -85 48 -63 28 8 27
5 -22 -44 -29 -29 -53 -56 -53 -60 0 -18 34 -19 68 -1 64 32 113 44 125 32 15
-15 37 -14 37 2 -1 19 -23 43 -49 52 -20 6 -22 4 -17 -13 6 -17 1 -21 -23 -27
-17 -4 -33 -11 -36 -16 -8 -12 -35 -12 -35 1 0 6 18 27 40 47 31 27 38 38 28
46 -10 6 -8 7 4 3 25 -7 81 50 73 75 -9 28 -34 23 -48 -8 -19 -44 -34 -54 -72
-51 l-36 3 56 58 c30 33 55 64 55 69 0 13 -31 37 -48 38 -7 0 -15 -8 -18 -17z"/>
<path d="M620 570 c-14 -4 -50 -9 -80 -10 -30 -1 -66 -5 -80 -10 -24 -7 -24
-7 10 -17 28 -7 36 -15 38 -36 3 -26 2 -27 -52 -27 -31 0 -56 -4 -56 -9 0 -5
4 -11 8 -13 5 -1 15 -23 23 -48 11 -36 18 -44 34 -42 11 2 74 5 140 7 l120 3
27 43 c14 24 27 49 27 56 1 14 -66 34 -99 31 -18 -3 -23 2 -24 25 -2 24 2 27
32 27 22 0 32 4 30 13 -5 14 -63 19 -98 7z m-12 -61 c3 -23 -1 -27 -27 -31
-28 -4 -31 -2 -31 22 0 33 8 42 35 38 13 -2 21 -12 23 -29z m100 -71 c-3 -30
-6 -33 -42 -36 -36 -3 -38 -2 -32 20 3 13 6 29 6 36 0 7 14 12 36 12 34 0 35
-1 32 -32z m-108 -13 c0 -31 -3 -35 -25 -35 -22 0 -25 4 -25 35 0 31 3 35 25
35 22 0 25 -4 25 -35z m-80 -10 c0 -30 -3 -35 -24 -35 -28 0 -30 3 -40 43 -6
26 -5 27 29 27 33 0 35 -2 35 -35z"/>
<path d="M545 326 l-70 -12 53 -5 c56 -6 169 11 156 24 -10 9 -53 7 -139 -7z"/>
<path d="M660 275 c-8 -2 -62 -9 -120 -15 -139 -16 -172 -31 -60 -27 l85 2 0
-70 c0 -69 0 -70 -27 -73 -34 -4 -35 -12 -4 -41 52 -49 86 -2 86 119 l0 80 86
0 c64 0 85 3 82 13 -4 11 -91 20 -128 12z"/>
<path d="M310 242 c0 -14 39 -46 47 -38 4 4 2 15 -3 24 -12 19 -44 29 -44 14z"/>
<path d="M230 212 c0 -5 10 -18 21 -31 16 -17 24 -20 33 -11 8 9 5 16 -13 31
-24 20 -41 24 -41 11z"/>
<path d="M136 188 c21 -36 46 -68 55 -68 5 0 9 11 9 25 0 17 -9 29 -30 40 -35
18 -43 19 -34 3z"/>
<path d="M449 163 c-6 -15 -22 -40 -36 -55 -39 -41 -23 -43 33 -5 55 38 65 60
35 77 -19 9 -23 7 -32 -17z"/>
<path d="M690 174 c0 -13 81 -84 95 -84 11 0 25 20 25 35 0 2 -15 12 -32 23
-38 24 -88 38 -88 26z"/>
</g>
</svg>
