<?xml version="1.0" standalone="no"?>
<!DOCTYPE svg PUBLIC "-//W3C//DTD SVG 20010904//EN"
 "http://www.w3.org/TR/2001/REC-SVG-20010904/DTD/svg10.dtd">
<svg version="1.0" xmlns="http://www.w3.org/2000/svg"
 width="90.000000pt" height="92.000000pt" viewBox="0 0 90.000000 92.000000"
 preserveAspectRatio="xMidYMid meet">
<metadata>
Created by potrace 1.16, written by Peter Selinger 2001-2019
</metadata>
<g transform="translate(0.000000,92.000000) scale(0.100000,-0.100000)"
fill="#000000" stroke="none">
<path d="M505 764 c-38 -7 -126 -18 -195 -25 -155 -14 -161 -16 -135 -35 15
-11 42 -15 108 -13 102 4 107 0 107 -77 l0 -51 -127 -15 c-76 -9 -135 -12
-145 -7 -23 12 -58 11 -58 -1 0 -6 7 -25 16 -43 12 -23 19 -72 23 -178 4 -102
11 -151 20 -163 13 -15 15 -15 29 5 14 21 13 86 -4 275 l-6 61 104 17 c56 9
113 19 126 22 22 4 22 3 22 -93 -1 -54 -5 -118 -9 -143 -14 -69 23 -154 44
-103 4 10 9 90 12 178 3 88 10 163 16 166 5 4 61 10 125 14 91 6 116 4 123 -6
21 -33 4 -285 -23 -344 -11 -25 -16 -27 -53 -22 -23 4 -49 9 -59 13 -11 4 0
-16 29 -54 27 -34 56 -62 65 -62 22 0 56 37 75 84 10 22 20 92 26 165 5 69 14
145 19 168 15 64 13 71 -28 98 -32 21 -44 24 -65 16 -14 -5 -63 -15 -109 -21
-45 -6 -95 -13 -110 -16 -26 -5 -26 -5 -30 60 -4 75 -17 66 135 86 48 7 89 16
92 20 8 13 -37 40 -65 39 -14 -1 -56 -8 -95 -15z"/>
<path d="M570 489 c-7 -11 -28 -39 -48 -61 -20 -23 -32 -39 -26 -37 79 31 144
65 144 75 0 13 -37 44 -52 44 -4 0 -12 -9 -18 -21z"/>
<path d="M246 435 c39 -49 67 -55 72 -17 3 18 -5 26 -40 42 -66 30 -73 24 -32
-25z"/>
<path d="M285 334 c-27 -13 -60 -24 -72 -24 -13 0 -23 -6 -23 -13 0 -15 31
-47 46 -47 12 0 104 90 104 101 0 5 -1 9 -2 8 -2 0 -25 -11 -53 -25z"/>
<path d="M490 352 c1 -4 23 -31 49 -61 35 -39 53 -52 65 -48 29 11 16 58 -21
79 -36 22 -93 40 -93 30z"/>
</g>
</svg>
