<?xml version="1.0" standalone="no"?>
<!DOCTYPE svg PUBLIC "-//W3C//DTD SVG 20010904//EN"
 "http://www.w3.org/TR/2001/REC-SVG-20010904/DTD/svg10.dtd">
<svg version="1.0" xmlns="http://www.w3.org/2000/svg"
 width="90.000000pt" height="92.000000pt" viewBox="0 0 90.000000 92.000000"
 preserveAspectRatio="xMidYMid meet">
<metadata>
Created by potrace 1.16, written by Peter Selinger 2001-2019
</metadata>
<g transform="translate(0.000000,92.000000) scale(0.100000,-0.100000)"
fill="#000000" stroke="none">
<path d="M386 859 c8 -49 -2 -58 -66 -60 -25 0 -54 -4 -65 -8 -19 -8 -19 -8 4
-20 15 -9 42 -11 82 -6 59 7 59 7 59 -19 0 -22 -4 -26 -32 -27 -18 -1 -44 -4
-58 -8 l-25 -7 23 -12 c17 -10 46 -10 139 3 64 8 119 17 122 20 12 13 -27 25
-72 23 -42 -3 -47 -1 -47 17 0 18 10 22 80 31 86 12 100 18 82 36 -13 13 -49
14 -116 3 l-48 -8 7 31 c5 25 2 33 -14 41 -11 6 -29 11 -40 11 -19 0 -21 -4
-15 -41z"/>
<path d="M440 664 c-41 -7 -96 -13 -121 -13 l-46 -1 20 -60 c13 -40 25 -59 33
-56 7 3 67 10 133 17 77 8 120 17 118 23 -3 6 6 25 19 43 l24 32 -22 15 c-26
18 -55 18 -158 0z m98 -46 c-3 -20 -13 -24 -73 -35 -38 -6 -83 -12 -98 -12
-25 -1 -28 2 -25 27 3 23 9 28 43 33 22 3 66 7 98 8 55 1 58 0 55 -21z"/>
<path d="M595 520 c-33 -5 -145 -13 -248 -20 -176 -11 -189 -11 -201 5 -11 16
-16 10 -44 -49 -25 -54 -30 -72 -21 -87 15 -30 31 -19 60 39 14 29 28 50 31
47 3 -3 75 1 159 9 240 23 379 30 379 18 0 -5 -15 -24 -32 -42 -25 -25 -28
-31 -13 -27 11 4 50 11 88 18 42 7 67 16 67 24 0 7 -16 27 -35 44 -39 34 -65
37 -190 21z"/>
<path d="M365 431 c-126 -17 -156 -34 -67 -39 28 -2 52 -6 52 -10 0 -12 -73
-78 -92 -85 -19 -7 -24 -42 -8 -52 5 -3 35 2 66 11 55 16 58 16 71 -2 28 -38
17 -51 -47 -58 -33 -4 -60 -11 -60 -16 0 -15 46 -23 85 -16 33 7 35 6 35 -22
0 -27 -3 -30 -47 -36 -26 -3 -91 -9 -145 -13 -54 -3 -98 -9 -98 -13 0 -3 15
-13 33 -22 28 -14 42 -14 117 -1 47 7 183 17 303 21 130 4 218 11 220 17 1 6
-14 18 -34 28 -31 15 -47 16 -105 8 -38 -5 -97 -12 -131 -14 l-63 -5 0 33 c0
32 0 32 60 39 96 11 90 41 -7 38 -50 -1 -54 0 -48 19 4 11 2 26 -4 33 -9 11
-5 15 20 20 53 10 70 7 91 -19 24 -30 34 -31 48 -5 8 14 8 26 0 41 -12 22 -82
58 -114 59 -18 0 -18 -1 3 -24 l22 -23 -38 -6 c-21 -4 -69 -9 -108 -13 l-70
-6 47 33 c27 19 46 39 43 46 -5 15 13 20 100 28 39 4 79 9 89 12 19 5 19 6 1
19 -23 17 -64 16 -220 -5z"/>
</g>
</svg>
