<?xml version="1.0" standalone="no"?>
<!DOCTYPE svg PUBLIC "-//W3C//DTD SVG 20010904//EN"
 "http://www.w3.org/TR/2001/REC-SVG-20010904/DTD/svg10.dtd">
<svg version="1.0" xmlns="http://www.w3.org/2000/svg"
 width="96.000000pt" height="68.000000pt" viewBox="0 0 96.000000 68.000000"
 preserveAspectRatio="xMidYMid meet">
<metadata>
Created by potrace 1.16, written by Peter Selinger 2001-2019
</metadata>
<g transform="translate(0.000000,68.000000) scale(0.100000,-0.100000)"
fill="#000000" stroke="none">
<path d="M425 143 c0 -27 -3 -28 -52 -31 -29 -2 -53 -8 -53 -13 0 -7 21 -10
55 -7 51 3 55 1 55 -18 0 -20 -7 -22 -72 -28 -40 -4 -97 -7 -125 -8 -29 0 -53
-4 -53 -9 0 -17 51 -20 156 -10 59 6 181 11 271 11 163 0 196 8 128 30 -26 9
-62 9 -142 1 -58 -6 -110 -11 -115 -11 -4 0 -8 11 -8 24 0 24 28 36 86 36 13
0 24 5 24 10 0 6 -22 10 -49 10 -40 0 -50 3 -54 20 -3 13 -14 20 -29 20 -19 0
-24 -5 -23 -27z"/>
</g>
</svg>
