<?xml version="1.0" standalone="no"?>
<!DOCTYPE svg PUBLIC "-//W3C//DTD SVG 20010904//EN"
 "http://www.w3.org/TR/2001/REC-SVG-20010904/DTD/svg10.dtd">
<svg version="1.0" xmlns="http://www.w3.org/2000/svg"
 width="90.000000pt" height="92.000000pt" viewBox="0 0 90.000000 92.000000"
 preserveAspectRatio="xMidYMid meet">
<metadata>
Created by potrace 1.16, written by Peter Selinger 2001-2019
</metadata>
<g transform="translate(0.000000,92.000000) scale(0.100000,-0.100000)"
fill="#000000" stroke="none">
<path d="M268 851 c-15 -16 -51 -43 -80 -60 -58 -33 -41 -44 26 -16 36 15 36
15 36 -9 0 -13 2 -31 5 -39 5 -10 -12 -17 -67 -26 -104 -18 -118 -22 -118 -32
0 -22 52 -29 103 -14 28 8 53 13 55 10 3 -3 -33 -43 -80 -90 -47 -47 -75 -82
-64 -79 37 12 101 52 131 84 l30 32 5 -59 c4 -43 9 -58 20 -58 11 0 16 15 18
63 2 34 7 62 11 62 4 0 16 -9 26 -20 21 -23 41 -26 48 -7 8 23 -5 37 -44 47
-27 8 -39 16 -39 29 0 15 11 20 56 26 68 8 68 29 0 33 -45 3 -48 5 -43 28 3
16 -1 28 -9 31 -23 9 -16 21 17 28 37 8 48 31 23 50 -26 20 -35 18 -66 -14z"/>
<path d="M507 863 c-4 -3 -7 -15 -7 -25 0 -23 -44 -111 -79 -158 l-26 -35 30
19 c17 11 37 28 46 38 9 10 28 18 43 18 46 0 34 -32 -51 -138 -17 -21 -19 -21
-42 -6 -19 14 -25 14 -32 3 -5 -8 -9 -22 -9 -33 0 -47 -134 -164 -285 -251
-91 -52 -80 -58 25 -16 91 37 160 83 244 161 54 51 68 60 84 51 10 -5 70 -51
132 -100 126 -100 138 -104 250 -80 59 13 64 24 15 33 -83 16 -195 61 -289
117 -111 65 -126 88 -78 113 15 8 51 39 80 69 48 49 52 56 38 70 -14 14 -14
16 0 21 9 3 32 6 51 6 l36 0 -6 -50 c-8 -65 -34 -120 -57 -120 -11 0 -30 4
-45 10 -24 9 -24 7 12 -35 20 -25 41 -45 46 -45 5 0 21 12 36 28 20 20 32 48
45 109 10 46 22 85 27 89 16 10 9 24 -21 43 -27 16 -36 17 -78 6 -67 -17 -124
-25 -120 -17 2 4 12 24 22 44 16 31 17 40 6 53 -13 16 -32 20 -43 8z"/>
<path d="M398 424 c-3 -3 -2 -21 3 -39 5 -19 8 -85 7 -147 l-3 -113 -38 2 -38
2 38 -45 c71 -85 92 -41 87 181 -3 133 -5 150 -21 156 -23 10 -29 10 -35 3z"/>
<path d="M539 338 c-6 -13 -23 -35 -37 -50 l-25 -28 66 23 c71 23 80 36 45 61
-30 21 -35 20 -49 -6z"/>
<path d="M260 323 c0 -14 52 -73 65 -73 16 0 24 18 18 41 -7 24 -83 54 -83 32z"/>
<path d="M305 204 c-38 -19 -78 -34 -87 -34 -23 0 -23 -22 0 -43 27 -25 38
-22 93 30 41 39 79 86 67 82 -2 0 -34 -16 -73 -35z"/>
<path d="M529 189 c108 -88 102 -85 116 -65 31 41 -24 86 -125 102 l-45 7 54
-44z"/>
</g>
</svg>
