<?xml version="1.0" standalone="no"?>
<!DOCTYPE svg PUBLIC "-//W3C//DTD SVG 20010904//EN"
 "http://www.w3.org/TR/2001/REC-SVG-20010904/DTD/svg10.dtd">
<svg version="1.0" xmlns="http://www.w3.org/2000/svg"
 width="90.000000pt" height="92.000000pt" viewBox="0 0 90.000000 92.000000"
 preserveAspectRatio="xMidYMid meet">
<metadata>
Created by potrace 1.16, written by Peter Selinger 2001-2019
</metadata>
<g transform="translate(0.000000,92.000000) scale(0.100000,-0.100000)"
fill="#000000" stroke="none">
<path d="M565 860 c-3 -5 -3 -15 0 -20 4 -6 3 -35 0 -64 l-7 -54 -46 -7 c-43
-6 -45 -8 -27 -21 10 -8 29 -14 41 -14 22 0 22 -1 9 -50 -7 -27 -10 -50 -6
-50 4 0 21 24 36 53 16 28 33 55 39 59 6 4 40 8 76 8 79 0 105 13 75 36 -16
12 -34 14 -83 10 l-63 -7 16 37 c21 50 19 57 -14 77 -34 20 -38 20 -46 7z"/>
<path d="M255 811 c-3 -5 5 -30 17 -55 12 -25 19 -48 16 -51 -3 -4 -40 -9 -82
-12 -42 -3 -76 -10 -76 -14 0 -12 42 -49 56 -49 6 0 31 9 55 20 59 27 64 26
75 -17 5 -20 15 -39 23 -41 11 -4 13 6 9 45 l-5 50 35 9 c20 5 37 15 40 22 3
11 -6 12 -42 7 l-46 -7 0 41 c0 35 -4 43 -26 51 -32 12 -41 12 -49 1z"/>
<path d="M180 573 c0 -19 72 -93 91 -93 31 0 22 61 -11 77 -38 18 -80 26 -80
16z"/>
<path d="M506 533 c-7 -7 21 -63 46 -90 l20 -22 -33 -5 c-44 -7 -188 -26 -200
-26 -5 0 -9 -4 -9 -9 0 -13 57 -34 74 -28 20 8 26 -14 26 -97 0 -65 3 -75 26
-97 24 -23 32 -24 152 -23 130 1 182 12 182 38 0 31 -37 38 -104 22 -71 -18
-168 -21 -197 -6 -22 12 -26 65 -8 134 13 51 14 52 199 62 140 7 147 9 129 30
-24 29 -55 34 -131 20 l-74 -12 4 31 c3 21 -2 36 -16 48 -21 19 -77 39 -86 30z"/>
<path d="M110 432 c0 -14 76 -82 92 -82 16 0 31 37 21 53 -14 23 -113 49 -113
29z"/>
<path d="M237 313 c-26 -32 -65 -70 -87 -83 -22 -14 -40 -31 -40 -37 0 -24 32
-93 44 -93 14 0 140 243 135 259 -3 7 -26 -14 -52 -46z"/>
</g>
</svg>
