<?xml version="1.0" standalone="no"?>
<!DOCTYPE svg PUBLIC "-//W3C//DTD SVG 20010904//EN"
 "http://www.w3.org/TR/2001/REC-SVG-20010904/DTD/svg10.dtd">
<svg version="1.0" xmlns="http://www.w3.org/2000/svg"
 width="96.000000pt" height="68.000000pt" viewBox="0 0 96.000000 68.000000"
 preserveAspectRatio="xMidYMid meet">
<metadata>
Created by potrace 1.16, written by Peter Selinger 2001-2019
</metadata>
<g transform="translate(0.000000,68.000000) scale(0.100000,-0.100000)"
fill="#000000" stroke="none">
<path d="M550 575 c0 -47 -16 -65 -59 -65 -32 0 -25 -20 9 -26 33 -7 35 -11
20 -48 -15 -41 14 -33 41 12 31 50 34 52 112 52 51 0 67 3 67 14 0 21 -34 29
-91 21 l-51 -7 16 30 c14 28 14 32 0 46 -8 9 -26 16 -40 16 -22 0 -24 -4 -24
-45z"/>
<path d="M284 576 c-4 -10 1 -25 12 -37 25 -28 8 -39 -64 -40 -68 -1 -81 -9
-55 -34 17 -17 51 -17 124 1 22 5 27 2 33 -20 10 -40 36 -33 36 9 0 19 4 35 9
35 5 0 22 5 38 12 l28 12 -45 5 c-40 5 -45 9 -48 34 -2 15 -9 27 -17 27 -7 0
-20 3 -29 6 -10 4 -18 0 -22 -10z"/>
<path d="M228 405 c-7 -8 22 -39 51 -55 17 -9 22 -8 28 5 3 9 -1 23 -8 30 -17
16 -62 29 -71 20z"/>
<path d="M510 371 c0 -5 11 -23 25 -39 14 -17 25 -32 25 -35 0 -2 -45 -8 -100
-12 -55 -3 -100 -11 -100 -16 0 -5 8 -10 18 -11 9 0 22 -2 27 -3 6 -2 16 -3
23 -4 8 -1 12 -19 12 -56 0 -71 19 -91 95 -100 91 -12 215 7 215 31 0 12 -22
13 -135 8 -150 -8 -140 -12 -135 60 5 73 4 73 160 81 141 7 141 7 123 27 -15
17 -26 19 -68 13 -27 -3 -60 -9 -72 -12 -18 -4 -23 -1 -23 14 0 11 -8 28 -19
37 -21 19 -71 31 -71 17z"/>
<path d="M160 307 c0 -3 16 -18 36 -33 31 -24 37 -26 50 -12 13 13 13 16 0 27
-15 13 -86 28 -86 18z"/>
<path d="M274 224 c-22 -20 -56 -47 -76 -60 -42 -27 -48 -52 -19 -78 18 -17
21 -15 69 57 53 78 75 117 69 117 -3 0 -22 -16 -43 -36z"/>
</g>
</svg>
