<?xml version="1.0" standalone="no"?>
<!DOCTYPE svg PUBLIC "-//W3C//DTD SVG 20010904//EN"
 "http://www.w3.org/TR/2001/REC-SVG-20010904/DTD/svg10.dtd">
<svg version="1.0" xmlns="http://www.w3.org/2000/svg"
 width="90.000000pt" height="92.000000pt" viewBox="0 0 90.000000 92.000000"
 preserveAspectRatio="xMidYMid meet">
<metadata>
Created by potrace 1.16, written by Peter Selinger 2001-2019
</metadata>
<g transform="translate(0.000000,92.000000) scale(0.100000,-0.100000)"
fill="#000000" stroke="none">
<path d="M590 780 c-30 -13 -57 -17 -80 -13 -32 6 -34 5 -21 -10 10 -13 12
-38 9 -97 -4 -64 -10 -86 -31 -119 -31 -46 -28 -50 15 -20 38 27 54 66 62 151
8 70 15 78 74 78 21 0 22 -3 22 -89 0 -85 1 -91 26 -110 32 -25 119 -29 149
-7 17 12 17 16 6 30 -11 13 -28 16 -75 14 l-61 -3 -3 38 c-2 21 4 59 12 85 21
61 20 67 -9 80 -33 15 -41 15 -95 -8z"/>
<path d="M310 773 c-25 -8 -79 -15 -120 -16 l-75 -2 -1 -130 c-1 -148 -15
-228 -67 -360 -19 -50 -37 -99 -41 -110 -13 -33 51 46 74 93 24 46 23 46 51
32 13 -8 35 -6 76 4 32 9 104 21 161 28 56 6 102 15 102 19 0 17 -45 31 -81
26 l-39 -5 6 41 c8 50 18 65 46 69 34 5 33 27 0 34 -28 6 -29 8 -21 38 8 26 6
34 -12 49 -33 27 -39 21 -39 -42 0 -52 -2 -59 -22 -65 -53 -14 -61 -9 -55 33
5 41 -6 61 -33 61 -14 0 -16 -9 -12 -54 4 -51 3 -55 -19 -58 -31 -4 -27 -22 6
-26 23 -3 25 -7 25 -57 l0 -53 -52 -9 c-29 -5 -54 -9 -56 -8 -1 1 7 40 18 86
11 46 23 111 26 145 l6 61 124 13 c68 7 124 16 124 20 0 3 -5 11 -11 17 -11
11 10 75 30 87 19 12 12 32 -14 44 -32 15 -48 14 -105 -5z m47 -69 c-3 -20 -9
-39 -11 -42 -7 -6 -132 -31 -159 -32 -15 0 -18 7 -15 43 l3 42 55 12 c30 6 72
12 94 12 l39 1 -6 -36z m-32 -311 c-4 -27 -8 -49 -9 -50 0 -1 -14 -3 -29 -5
-27 -3 -29 -1 -32 42 -4 49 4 60 49 60 28 0 28 0 21 -47z"/>
<path d="M620 469 c-36 -10 -84 -18 -107 -18 -55 -1 -62 -16 -25 -49 41 -37
102 -131 95 -149 -7 -18 -80 -68 -144 -97 -28 -13 -46 -27 -39 -31 16 -10 134
33 180 66 l42 31 16 -24 c9 -13 33 -40 54 -62 37 -37 40 -38 87 -32 55 7 111
25 111 34 0 4 -33 19 -73 34 -40 15 -93 41 -118 58 l-46 30 43 82 c24 46 46
89 50 96 8 16 -13 38 -41 44 -11 3 -49 -3 -85 -13z m35 -66 c-4 -21 -15 -53
-24 -72 l-18 -34 -41 54 c-22 29 -39 55 -37 58 4 4 100 28 119 30 4 1 5 -16 1
-36z"/>
<path d="M330 266 c0 -11 72 -106 80 -106 30 0 21 60 -12 82 -27 18 -68 32
-68 24z"/>
<path d="M204 243 c-14 -44 -24 -62 -68 -115 -48 -59 -50 -71 -6 -42 41 28
140 127 140 141 0 8 -12 18 -26 23 -33 13 -34 13 -40 -7z"/>
</g>
</svg>
