<?xml version="1.0" standalone="no"?>
<!DOCTYPE svg PUBLIC "-//W3C//DTD SVG 20010904//EN"
 "http://www.w3.org/TR/2001/REC-SVG-20010904/DTD/svg10.dtd">
<svg version="1.0" xmlns="http://www.w3.org/2000/svg"
 width="96.000000pt" height="68.000000pt" viewBox="0 0 96.000000 68.000000"
 preserveAspectRatio="xMidYMid meet">
<metadata>
Created by potrace 1.16, written by Peter Selinger 2001-2019
</metadata>
<g transform="translate(0.000000,68.000000) scale(0.100000,-0.100000)"
fill="#000000" stroke="none">
<path d="M573 410 c9 -34 -12 -87 -44 -114 -39 -33 -14 -34 35 -1 l36 25 33
-20 c38 -24 67 -26 67 -5 0 9 -17 19 -45 26 -64 16 -57 35 15 43 58 7 77 20
44 33 -9 3 -29 -1 -44 -11 -37 -21 -48 -20 -52 5 -2 12 -14 26 -27 31 -20 7
-23 6 -18 -12z"/>
<path d="M490 366 c0 -7 7 -19 15 -26 13 -10 18 -11 28 -1 9 10 8 15 -7 27
-25 18 -36 18 -36 0z"/>
</g>
</svg>
