<?xml version="1.0" standalone="no"?>
<!DOCTYPE svg PUBLIC "-//W3C//DTD SVG 20010904//EN"
 "http://www.w3.org/TR/2001/REC-SVG-20010904/DTD/svg10.dtd">
<svg version="1.0" xmlns="http://www.w3.org/2000/svg"
 width="96.000000pt" height="68.000000pt" viewBox="0 0 96.000000 68.000000"
 preserveAspectRatio="xMidYMid meet">
<metadata>
Created by potrace 1.16, written by Peter Selinger 2001-2019
</metadata>
<g transform="translate(0.000000,68.000000) scale(0.100000,-0.100000)"
fill="#000000" stroke="none">
<path d="M657 343 c-15 -2 -25 -8 -22 -13 3 -5 12 -7 20 -4 22 9 28 -20 12
-53 -8 -15 -12 -34 -9 -42 3 -9 0 -11 -8 -6 -10 6 -12 4 -7 -8 3 -9 2 -19 -3
-22 -6 -4 -10 -1 -10 6 0 7 -3 9 -7 6 -3 -4 -16 1 -27 10 l-21 18 20 -25 c44
-56 69 -79 78 -73 6 3 7 1 3 -6 -9 -13 12 -44 24 -36 4 3 10 -2 14 -10 8 -21
79 -20 97 1 12 15 11 16 -9 10 -12 -4 -22 -3 -22 2 0 14 -57 32 -78 26 -12 -4
-13 -3 -4 3 9 7 6 13 -13 23 -30 16 -31 60 -2 90 16 18 15 25 -6 21 -5 -1 -6
3 -2 8 3 6 11 8 18 5 7 -2 20 9 30 26 19 31 17 33 -18 31 -17 -2 -17 0 -5 8
17 12 13 12 -43 4z"/>
<path d="M547 323 c-13 -13 -7 -25 7 -14 7 6 22 9 32 5 16 -5 16 -4 4 5 -17
12 -34 14 -43 4z"/>
<path d="M594 161 c5 -8 -23 -39 -30 -34 -5 3 -94 -37 -94 -42 0 -2 20 3 45
12 25 8 45 19 45 25 0 5 5 6 11 3 6 -4 17 2 25 14 9 12 20 18 26 15 7 -4 8 -2
4 4 -4 7 -14 12 -22 12 -8 0 -13 -4 -10 -9z"/>
</g>
</svg>
