<?xml version="1.0" standalone="no"?>
<!DOCTYPE svg PUBLIC "-//W3C//DTD SVG 20010904//EN"
 "http://www.w3.org/TR/2001/REC-SVG-20010904/DTD/svg10.dtd">
<svg version="1.0" xmlns="http://www.w3.org/2000/svg"
 width="96.000000pt" height="68.000000pt" viewBox="0 0 96.000000 68.000000"
 preserveAspectRatio="xMidYMid meet">
<metadata>
Created by potrace 1.16, written by Peter Selinger 2001-2019
</metadata>
<g transform="translate(0.000000,68.000000) scale(0.100000,-0.100000)"
fill="#000000" stroke="none">
<path d="M528 542 c-76 -8 -138 -18 -138 -22 0 -3 13 -10 29 -16 28 -11 28
-12 35 -123 7 -100 10 -111 27 -111 15 0 19 7 19 34 0 34 0 35 55 41 30 4 55
12 55 17 0 7 -20 8 -55 3 l-55 -6 0 29 c0 28 2 30 55 37 30 3 55 11 55 17 0 7
-19 8 -55 3 l-55 -6 0 34 c0 42 6 44 146 53 99 6 113 9 101 20 -12 13 -88 11
-219 -4z"/>
</g>
</svg>
