<?xml version="1.0" standalone="no"?>
<!DOCTYPE svg PUBLIC "-//W3C//DTD SVG 20010904//EN"
 "http://www.w3.org/TR/2001/REC-SVG-20010904/DTD/svg10.dtd">
<svg version="1.0" xmlns="http://www.w3.org/2000/svg"
 width="96.000000pt" height="68.000000pt" viewBox="0 0 96.000000 68.000000"
 preserveAspectRatio="xMidYMid meet">
<metadata>
Created by potrace 1.16, written by Peter Selinger 2001-2019
</metadata>
<g transform="translate(0.000000,68.000000) scale(0.100000,-0.100000)"
fill="#000000" stroke="none">
<path d="M535 598 c2 -13 6 -48 7 -78 l3 -55 -68 0 c-63 0 -80 -6 -58 -20 5
-3 15 -31 21 -63 21 -109 15 -100 65 -94 43 4 45 3 45 -21 0 -30 -18 -36 -123
-38 -43 -1 -80 -5 -83 -10 -9 -16 45 -21 126 -12 44 5 83 7 85 4 3 -2 5 -44 5
-94 0 -66 3 -88 13 -85 16 6 24 47 26 126 l1 62 119 0 c70 0 122 4 126 10 14
23 -55 30 -179 20 -59 -5 -59 -5 -60 22 -2 29 -2 29 68 32 26 1 32 9 63 80 47
106 49 104 -122 93 -25 -2 -30 2 -32 26 -1 15 1 27 5 27 116 9 146 16 118 32
-15 8 -49 6 -98 -8 -13 -4 -17 3 -20 28 -2 28 -7 34 -31 36 -24 3 -27 1 -22
-20z m165 -168 c0 -28 -2 -29 -42 -28 -24 1 -75 -2 -114 -6 l-71 -9 -5 26 c-5
24 -2 27 36 31 23 3 52 7 66 10 14 2 49 4 78 5 51 1 52 1 52 -29z m-15 -68
c-4 -15 -8 -28 -9 -30 -2 -1 -46 -5 -100 -9 l-96 -6 0 25 c0 25 3 26 88 34 48
5 95 10 105 11 16 2 18 -3 12 -25z"/>
<path d="M247 604 c-3 -3 -2 -18 3 -32 5 -15 11 -50 14 -78 l5 -52 -65 -7
c-86 -9 -82 -30 5 -29 l62 1 -6 -41 c-4 -23 -10 -44 -14 -47 -3 -3 -37 -19
-76 -34 -88 -36 -95 -42 -71 -61 29 -21 50 -17 103 16 47 31 48 31 51 9 2 -12
1 -42 -3 -66 l-6 -45 -42 7 -42 7 45 -46 c24 -25 52 -46 60 -46 28 0 40 46 40
149 l0 99 35 21 c46 27 46 46 -1 26 l-35 -14 3 37 c3 33 6 37 33 40 44 5 53
19 21 32 -15 5 -32 8 -37 4 -13 -8 -11 70 3 101 10 22 9 27 -8 40 -19 14 -66
20 -77 9z"/>
</g>
</svg>
