<?xml version="1.0" standalone="no"?>
<!DOCTYPE svg PUBLIC "-//W3C//DTD SVG 20010904//EN"
 "http://www.w3.org/TR/2001/REC-SVG-20010904/DTD/svg10.dtd">
<svg version="1.0" xmlns="http://www.w3.org/2000/svg"
 width="96.000000pt" height="68.000000pt" viewBox="0 0 96.000000 68.000000"
 preserveAspectRatio="xMidYMid meet">
<metadata>
Created by potrace 1.16, written by Peter Selinger 2001-2019
</metadata>
<g transform="translate(0.000000,68.000000) scale(0.100000,-0.100000)"
fill="#000000" stroke="none">
<path d="M559 606 c-2 -2 -73 -11 -158 -20 -85 -9 -157 -19 -160 -22 -15 -15
31 -24 97 -19 82 7 84 4 56 -65 -18 -44 -21 -46 -49 -26 -28 19 -85 30 -85 17
0 -6 4 -11 9 -11 13 0 71 -53 71 -65 0 -5 -22 -26 -50 -45 -64 -46 -64 -59 1
-23 63 34 120 97 157 173 28 61 45 70 126 70 l29 0 -6 -60 c-6 -71 -35 -136
-59 -134 -10 1 -29 5 -43 8 -23 6 -24 5 -13 -19 6 -14 13 -23 16 -20 3 3 11
-4 19 -15 14 -20 49 -26 69 -12 20 14 44 68 63 147 11 44 23 89 26 101 5 15 0
23 -20 32 -25 11 -87 17 -96 8z"/>
<path d="M655 311 c-6 -11 100 -101 119 -101 19 0 22 43 4 58 -21 17 -118 51
-123 43z"/>
<path d="M440 273 c0 -17 54 -73 71 -73 23 0 26 32 5 49 -16 14 -76 32 -76 24z"/>
<path d="M311 250 c-1 -26 35 -94 63 -121 15 -15 50 -35 79 -44 97 -32 296
-19 311 21 4 9 -13 25 -49 45 -30 17 -58 35 -61 40 -3 5 -9 9 -14 9 -6 0 -2
-16 7 -36 23 -47 11 -54 -87 -54 -93 0 -171 32 -198 81 -26 48 -51 77 -51 59z"/>
<path d="M182 194 c-25 -34 -32 -53 -27 -71 9 -38 37 -24 59 29 14 34 17 53
10 68 -9 20 -12 18 -42 -26z"/>
</g>
</svg>
