<?xml version="1.0" standalone="no"?>
<!DOCTYPE svg PUBLIC "-//W3C//DTD SVG 20010904//EN"
 "http://www.w3.org/TR/2001/REC-SVG-20010904/DTD/svg10.dtd">
<svg version="1.0" xmlns="http://www.w3.org/2000/svg"
 width="96.000000pt" height="68.000000pt" viewBox="0 0 96.000000 68.000000"
 preserveAspectRatio="xMidYMid meet">
<metadata>
Created by potrace 1.16, written by Peter Selinger 2001-2019
</metadata>
<g transform="translate(0.000000,68.000000) scale(0.100000,-0.100000)"
fill="#000000" stroke="none">
<path d="M540 274 c-41 -7 -83 -10 -93 -7 -16 4 -18 1 -11 -19 4 -12 6 -45 5
-73 -7 -119 -8 -110 19 -108 14 1 64 5 113 9 77 6 87 5 87 -10 0 -22 27 -20
40 3 5 11 10 60 10 110 0 120 -6 124 -170 95z m111 -21 c1 -5 2 -20 3 -35 2
-26 -1 -28 -39 -29 -22 0 -62 -4 -88 -8 -55 -9 -64 -1 -48 42 8 20 18 27 48
30 71 7 123 7 124 0z m9 -118 l0 -35 -57 0 c-32 0 -75 -3 -95 -6 l-38 -7 0 36
0 36 58 4 c144 9 132 11 132 -28z"/>
</g>
</svg>
