<?xml version="1.0" standalone="no"?>
<!DOCTYPE svg PUBLIC "-//W3C//DTD SVG 20010904//EN"
 "http://www.w3.org/TR/2001/REC-SVG-20010904/DTD/svg10.dtd">
<svg version="1.0" xmlns="http://www.w3.org/2000/svg"
 width="96.000000pt" height="68.000000pt" viewBox="0 0 96.000000 68.000000"
 preserveAspectRatio="xMidYMid meet">
<metadata>
Created by potrace 1.16, written by Peter Selinger 2001-2019
</metadata>
<g transform="translate(0.000000,68.000000) scale(0.100000,-0.100000)"
fill="#000000" stroke="none">
<path d="M635 253 c7 -18 11 -40 14 -78 1 -16 3 -17 10 -6 6 9 9 1 9 -25 0
-32 6 -44 37 -71 48 -41 104 -61 116 -42 7 12 9 12 9 0 0 -8 2 -12 5 -10 7 7
-18 69 -27 69 -8 0 -12 -16 -9 -32 0 -5 -4 -8 -9 -8 -6 0 -10 5 -10 10 0 6 -7
10 -16 10 -14 0 -14 -3 -3 -18 7 -9 -8 6 -34 33 -35 38 -46 58 -47 83 0 17 -5
32 -10 32 -6 0 -5 8 2 19 9 15 9 23 -1 35 -19 22 -45 21 -36 -1z m69 -159 c3
-8 2 -12 -4 -9 -6 3 -10 10 -10 16 0 14 7 11 14 -7z"/>
</g>
</svg>
