<?xml version="1.0" standalone="no"?>
<!DOCTYPE svg PUBLIC "-//W3C//DTD SVG 20010904//EN"
 "http://www.w3.org/TR/2001/REC-SVG-20010904/DTD/svg10.dtd">
<svg version="1.0" xmlns="http://www.w3.org/2000/svg"
 width="96.000000pt" height="68.000000pt" viewBox="0 0 96.000000 68.000000"
 preserveAspectRatio="xMidYMid meet">
<metadata>
Created by potrace 1.16, written by Peter Selinger 2001-2019
</metadata>
<g transform="translate(0.000000,68.000000) scale(0.100000,-0.100000)"
fill="#000000" stroke="none">
<path d="M235 578 c4 -13 9 -51 12 -84 l5 -62 -71 -7 c-39 -4 -71 -11 -71 -16
0 -14 47 -22 95 -15 l45 7 0 -48 c0 -45 -2 -49 -32 -62 -152 -67 -150 -66
-130 -84 27 -25 57 -21 104 13 22 16 45 30 50 30 11 0 0 -110 -12 -123 -3 -4
-19 -3 -35 3 -45 17 -43 1 7 -46 74 -70 98 -41 98 115 l0 98 43 29 c32 22 38
29 24 32 -10 2 -29 -4 -43 -13 l-25 -16 3 38 c3 35 6 38 41 44 43 7 52 13 42
29 -4 7 -24 10 -46 8 -35 -3 -39 -1 -39 20 0 12 7 39 16 60 14 35 14 38 -7 54
-11 10 -35 18 -51 18 -27 0 -30 -3 -23 -22z"/>
<path d="M570 515 c-30 -7 -76 -14 -102 -14 l-47 -1 14 -27 c7 -16 19 -47 26
-71 11 -39 15 -43 37 -37 41 10 52 -10 52 -91 0 -68 -2 -74 -20 -74 -22 0 -80
26 -80 36 0 3 8 19 17 34 14 24 14 31 4 44 -16 19 -41 21 -41 4 0 -34 -24 -92
-55 -133 -19 -25 -35 -48 -35 -50 0 -12 44 19 71 50 l29 33 123 -71 c102 -60
129 -71 167 -71 49 0 130 20 130 32 0 4 -38 13 -84 19 -47 6 -110 19 -140 29
-49 15 -56 21 -56 43 0 63 8 71 66 71 29 0 56 4 59 10 9 15 -38 22 -69 11 -43
-17 -47 -14 -44 32 3 48 11 57 51 57 18 0 27 5 27 16 0 9 11 39 25 67 20 39
23 52 13 58 -18 12 -72 9 -138 -6z m67 -60 c-2 -26 -7 -48 -9 -51 -3 -2 -35
-7 -71 -11 l-65 -6 -12 43 c-6 23 -10 43 -8 45 5 5 111 23 142 24 28 1 29 0
23 -44z"/>
</g>
</svg>
