<?xml version="1.0" standalone="no"?>
<!DOCTYPE svg PUBLIC "-//W3C//DTD SVG 20010904//EN"
 "http://www.w3.org/TR/2001/REC-SVG-20010904/DTD/svg10.dtd">
<svg version="1.0" xmlns="http://www.w3.org/2000/svg"
 width="90.000000pt" height="92.000000pt" viewBox="0 0 90.000000 92.000000"
 preserveAspectRatio="xMidYMid meet">
<metadata>
Created by potrace 1.16, written by Peter Selinger 2001-2019
</metadata>
<g transform="translate(0.000000,92.000000) scale(0.100000,-0.100000)"
fill="#000000" stroke="none">
<path d="M745 813 c11 -40 17 -517 8 -588 -8 -55 -10 -60 -33 -59 -14 0 -38 5
-55 9 -29 8 -29 7 17 -41 26 -27 54 -58 61 -68 17 -24 35 -14 53 30 11 26 14
95 15 296 0 239 4 296 25 380 5 23 1 30 -27 47 -19 12 -42 21 -53 21 -15 0
-17 -5 -11 -27z"/>
<path d="M455 803 c-22 -8 -67 -15 -100 -15 l-60 0 -2 -116 c-1 -141 -32 -271
-91 -392 -22 -44 -36 -80 -32 -80 23 0 98 123 120 198 7 23 17 42 22 42 4 0 8
-37 8 -82 0 -46 5 -90 10 -98 18 -28 30 10 30 101 0 81 1 87 23 93 12 3 25 6
30 6 10 0 9 -175 -3 -248 -9 -52 -8 -67 6 -93 10 -21 19 -28 26 -21 5 5 12 91
15 191 l6 182 36 -3 c33 -3 36 -6 39 -38 2 -19 1 -59 -3 -89 -7 -53 -7 -53
-37 -47 l-30 6 29 -34 c51 -63 83 -27 83 92 0 40 5 83 11 95 10 18 8 24 -16
44 -17 15 -34 22 -44 18 -9 -4 -28 -9 -43 -12 -27 -5 -28 -4 -28 35 0 31 -5
44 -20 52 -27 15 -43 4 -30 -20 5 -10 10 -32 10 -48 0 -32 -17 -42 -74 -42
l-29 0 7 54 c10 85 7 83 116 96 74 9 97 15 94 25 -3 7 6 38 20 68 32 67 32 75
0 87 -33 13 -51 12 -99 -7z m41 -75 c-4 -23 -9 -44 -11 -46 -7 -7 -81 -22
-114 -22 -26 0 -32 3 -27 16 3 9 6 28 6 43 0 26 4 29 53 38 99 19 101 19 93
-29z"/>
<path d="M135 649 c-27 -10 -67 -18 -87 -19 -38 0 -49 -15 -29 -35 5 -6 14
-46 20 -90 6 -44 15 -83 19 -87 4 -4 25 -3 47 2 22 5 56 11 75 15 34 5 35 6
37 54 1 28 11 71 22 97 12 25 21 48 21 50 0 6 -58 34 -67 33 -4 -1 -30 -10
-58 -20z m40 -86 c-10 -86 -13 -92 -51 -99 -19 -3 -36 -5 -38 -3 -2 2 -6 34
-9 71 -6 67 -6 68 21 74 15 3 32 7 37 9 41 14 47 6 40 -52z"/>
<path d="M638 655 c-3 -3 -2 -25 3 -48 4 -23 8 -89 9 -147 0 -100 10 -144 27
-126 4 4 9 75 11 158 3 117 1 153 -10 159 -15 10 -32 11 -40 4z"/>
</g>
</svg>
