<?xml version="1.0" standalone="no"?>
<!DOCTYPE svg PUBLIC "-//W3C//DTD SVG 20010904//EN"
 "http://www.w3.org/TR/2001/REC-SVG-20010904/DTD/svg10.dtd">
<svg version="1.0" xmlns="http://www.w3.org/2000/svg"
 width="96.000000pt" height="68.000000pt" viewBox="0 0 96.000000 68.000000"
 preserveAspectRatio="xMidYMid meet">
<metadata>
Created by potrace 1.16, written by Peter Selinger 2001-2019
</metadata>
<g transform="translate(0.000000,68.000000) scale(0.100000,-0.100000)"
fill="#000000" stroke="none">
<path d="M580 404 c-36 -7 -93 -13 -127 -14 -41 0 -63 -4 -63 -11 0 -12 139
-7 233 7 42 7 43 4 26 -74 -12 -57 -14 -58 -152 -69 -43 -3 -80 -11 -84 -16
-4 -7 37 -8 123 -3 71 5 135 8 142 9 7 0 10 8 7 18 -3 9 6 46 20 81 24 59 24
64 8 75 -20 16 -47 15 -133 -3z"/>
</g>
</svg>
