<?xml version="1.0" standalone="no"?>
<!DOCTYPE svg PUBLIC "-//W3C//DTD SVG 20010904//EN"
 "http://www.w3.org/TR/2001/REC-SVG-20010904/DTD/svg10.dtd">
<svg version="1.0" xmlns="http://www.w3.org/2000/svg"
 width="96.000000pt" height="68.000000pt" viewBox="0 0 96.000000 68.000000"
 preserveAspectRatio="xMidYMid meet">
<metadata>
Created by potrace 1.16, written by Peter Selinger 2001-2019
</metadata>
<g transform="translate(0.000000,68.000000) scale(0.100000,-0.100000)"
fill="#000000" stroke="none">
<path d="M473 416 c-5 -10 -40 -19 -98 -26 -49 -6 -92 -14 -95 -16 -3 -3 38
-4 90 -3 l95 3 3 -32 c2 -18 7 -32 12 -32 10 0 20 25 20 49 0 20 51 31 146 31
31 0 54 5 54 10 0 19 -29 22 -108 13 -62 -8 -79 -7 -85 3 -10 18 -24 18 -34 0z"/>
</g>
</svg>
