<?xml version="1.0" standalone="no"?>
<!DOCTYPE svg PUBLIC "-//W3C//DTD SVG 20010904//EN"
 "http://www.w3.org/TR/2001/REC-SVG-20010904/DTD/svg10.dtd">
<svg version="1.0" xmlns="http://www.w3.org/2000/svg"
 width="96.000000pt" height="68.000000pt" viewBox="0 0 96.000000 68.000000"
 preserveAspectRatio="xMidYMid meet">
<metadata>
Created by potrace 1.16, written by Peter Selinger 2001-2019
</metadata>
<g transform="translate(0.000000,68.000000) scale(0.100000,-0.100000)"
fill="#000000" stroke="none">
<path d="M475 264 c-72 -7 -158 -13 -193 -13 -62 -1 -62 -1 -48 -23 8 -13 20
-45 27 -71 11 -44 31 -68 46 -54 3 3 0 29 -7 57 -7 28 -9 54 -6 57 9 9 107 22
225 29 l104 7 -7 -44 c-4 -24 -9 -54 -13 -66 -9 -38 33 -30 53 10 10 17 27 45
38 60 l21 29 -24 19 c-26 21 -33 21 -216 3z"/>
</g>
</svg>
