<?xml version="1.0" standalone="no"?>
<!DOCTYPE svg PUBLIC "-//W3C//DTD SVG 20010904//EN"
 "http://www.w3.org/TR/2001/REC-SVG-20010904/DTD/svg10.dtd">
<svg version="1.0" xmlns="http://www.w3.org/2000/svg"
 width="90.000000pt" height="92.000000pt" viewBox="0 0 90.000000 92.000000"
 preserveAspectRatio="xMidYMid meet">
<metadata>
Created by potrace 1.16, written by Peter Selinger 2001-2019
</metadata>
<g transform="translate(0.000000,92.000000) scale(0.100000,-0.100000)"
fill="#000000" stroke="none">
<path d="M317 803 c4 -21 8 -81 8 -133 l0 -95 -68 -9 c-84 -11 -83 -30 1 -34
34 -2 62 -5 62 -9 0 -21 -87 -184 -124 -233 -25 -33 -42 -60 -38 -60 19 0 85
67 123 125 23 36 43 65 44 65 4 0 -6 -119 -16 -188 -15 -101 11 -178 41 -123
5 11 10 83 10 160 0 78 2 141 5 141 3 0 19 -16 36 -35 34 -38 49 -38 49 1 0
20 -9 29 -45 45 -45 20 -45 20 -45 69 0 46 2 50 28 56 52 11 62 15 62 24 0 16
-40 31 -62 24 -21 -6 -21 -5 -14 108 l7 115 -26 11 c-41 19 -47 16 -38 -25z"/>
<path d="M111 743 c50 -67 88 -89 104 -62 23 36 -28 79 -93 79 -22 0 -23 -2
-11 -17z"/>
<path d="M580 733 c0 -3 6 -14 14 -22 8 -9 37 -61 66 -116 68 -131 81 -145
139 -145 80 0 81 13 3 63 -69 44 -96 76 -156 180 -17 31 -34 47 -46 47 -11 0
-20 -3 -20 -7z"/>
<path d="M506 593 c-3 -21 -22 -62 -42 -91 -19 -30 -33 -56 -31 -59 11 -10 56
29 102 89 l48 62 -23 18 c-33 27 -47 22 -54 -19z"/>
<path d="M30 553 c1 -21 59 -88 78 -91 21 -3 25 1 25 33 0 32 -4 36 -38 51
-38 15 -65 18 -65 7z"/>
<path d="M576 464 c-3 -9 -6 -24 -6 -34 0 -28 -67 -151 -102 -187 -29 -30 -31
-35 -18 -58 15 -29 21 -30 58 -11 29 14 192 60 197 54 1 -2 10 -18 19 -36 28
-55 55 -27 42 43 -7 34 -69 105 -93 105 -10 0 -9 -9 7 -39 l20 -40 -53 -15
c-75 -22 -137 -30 -137 -19 0 5 29 52 65 104 36 52 65 99 65 106 0 11 -37 43
-51 43 -4 0 -10 -7 -13 -16z"/>
<path d="M136 381 c-15 -33 -45 -80 -68 -106 -35 -40 -39 -50 -34 -80 4 -18
14 -43 24 -55 17 -21 18 -18 64 117 60 179 61 183 50 183 -4 0 -21 -27 -36
-59z"/>
</g>
</svg>
