<?xml version="1.0" standalone="no"?>
<!DOCTYPE svg PUBLIC "-//W3C//DTD SVG 20010904//EN"
 "http://www.w3.org/TR/2001/REC-SVG-20010904/DTD/svg10.dtd">
<svg version="1.0" xmlns="http://www.w3.org/2000/svg"
 width="96.000000pt" height="68.000000pt" viewBox="0 0 96.000000 68.000000"
 preserveAspectRatio="xMidYMid meet">
<metadata>
Created by potrace 1.16, written by Peter Selinger 2001-2019
</metadata>
<g transform="translate(0.000000,68.000000) scale(0.100000,-0.100000)"
fill="#000000" stroke="none">
<path d="M311 552 c-15 -54 -64 -127 -139 -204 -36 -37 -59 -68 -51 -68 17 0
84 44 117 77 13 13 26 23 29 23 9 0 -5 -230 -16 -267 -6 -22 -6 -42 2 -63 12
-31 41 -41 50 -16 3 7 9 90 12 183 6 123 5 172 -4 177 -19 12 -13 30 35 96
l47 64 -23 18 c-33 27 -48 22 -59 -20z"/>
<path d="M673 562 c-10 -15 -28 -38 -40 -52 -12 -13 -21 -26 -18 -28 7 -8 125
61 125 73 0 6 -11 17 -25 23 -22 10 -27 9 -42 -16z"/>
<path d="M450 544 c51 -68 80 -83 80 -40 0 29 -17 44 -61 53 -32 6 -33 5 -19
-13z"/>
<path d="M625 464 c-55 -7 -135 -13 -179 -13 -61 -1 -76 -4 -69 -13 6 -7 20
-46 33 -86 17 -57 25 -71 35 -62 7 6 78 13 158 17 l146 6 40 69 40 69 -34 15
c-39 16 -37 16 -170 -2z m119 -22 c6 -9 -9 -69 -22 -89 -4 -6 -35 -15 -70 -19
-61 -7 -62 -6 -62 18 0 48 12 87 29 91 30 8 120 7 125 -1z m-196 -64 l-3 -53
-49 0 -49 0 -13 45 c-8 25 -14 48 -14 53 0 4 29 7 66 7 l65 0 -3 -52z"/>
<path d="M652 398 c-15 -42 -10 -45 29 -17 30 21 31 23 13 36 -25 18 -28 17
-42 -19z"/>
<path d="M460 392 c0 -10 43 -52 53 -52 12 0 7 31 -7 46 -16 15 -46 19 -46 6z"/>
<path d="M595 254 c-33 -8 -78 -13 -100 -11 l-40 4 0 -103 c1 -107 8 -131 29
-101 11 13 28 17 89 17 66 0 76 -3 82 -19 9 -30 32 -32 49 -6 12 18 16 50 16
119 0 84 -2 97 -19 106 -23 12 -28 12 -106 -6z m79 -40 c4 -15 5 -28 2 -31 -2
-2 -35 -7 -73 -9 -37 -3 -77 -6 -88 -7 -14 -1 -20 4 -21 20 -2 31 13 41 66 46
107 9 107 9 114 -19z m6 -84 c0 -36 -1 -37 -107 -45 l-83 -6 0 29 c0 29 2 30
68 39 118 18 122 17 122 -17z"/>
</g>
</svg>
