<?xml version="1.0" standalone="no"?>
<!DOCTYPE svg PUBLIC "-//W3C//DTD SVG 20010904//EN"
 "http://www.w3.org/TR/2001/REC-SVG-20010904/DTD/svg10.dtd">
<svg version="1.0" xmlns="http://www.w3.org/2000/svg"
 width="96.000000pt" height="68.000000pt" viewBox="0 0 96.000000 68.000000"
 preserveAspectRatio="xMidYMid meet">
<metadata>
Created by potrace 1.16, written by Peter Selinger 2001-2019
</metadata>
<g transform="translate(0.000000,68.000000) scale(0.100000,-0.100000)"
fill="#000000" stroke="none">
<path d="M630 259 c-14 -6 -59 -11 -100 -12 l-75 -2 1 -102 c1 -106 7 -130 28
-101 8 12 31 17 84 19 70 4 73 3 90 -24 17 -24 20 -26 38 -13 16 12 20 31 24
116 3 62 1 105 -5 110 -18 15 -60 19 -85 9z m44 -35 c16 -42 9 -49 -62 -52
-37 -2 -78 -4 -92 -5 -21 -2 -24 2 -22 23 5 32 5 33 55 41 77 12 114 10 121
-7z m4 -99 l-3 -35 -93 -5 -93 -4 3 30 c3 30 5 31 63 36 32 2 61 6 64 8 2 3
17 5 33 5 27 0 29 -2 26 -35z"/>
</g>
</svg>
