<?xml version="1.0" standalone="no"?>
<!DOCTYPE svg PUBLIC "-//W3C//DTD SVG 20010904//EN"
 "http://www.w3.org/TR/2001/REC-SVG-20010904/DTD/svg10.dtd">
<svg version="1.0" xmlns="http://www.w3.org/2000/svg"
 width="96.000000pt" height="68.000000pt" viewBox="0 0 96.000000 68.000000"
 preserveAspectRatio="xMidYMid meet">
<metadata>
Created by potrace 1.16, written by Peter Selinger 2001-2019
</metadata>
<g transform="translate(0.000000,68.000000) scale(0.100000,-0.100000)"
fill="#000000" stroke="none">
<path d="M400 593 c-17 -50 -176 -207 -259 -259 -44 -26 -59 -40 -47 -42 45
-9 205 94 296 191 l58 61 73 -70 c163 -154 163 -154 221 -153 66 2 112 11 110
23 0 5 -32 19 -69 31 -87 28 -99 34 -215 117 -78 56 -95 72 -91 89 4 12 -1 25
-13 34 -31 24 -49 17 -64 -22z"/>
<path d="M413 437 c-77 -14 -67 -31 12 -24 57 5 119 24 90 27 -5 1 -19 3 -30
4 -11 2 -44 -2 -72 -7z"/>
<path d="M504 370 c-11 -4 -47 -11 -80 -14 -98 -11 -124 -16 -124 -26 0 -13
59 -13 136 1 96 17 99 13 54 -53 -52 -78 -27 -76 50 3 33 34 60 64 60 68 0 9
-46 31 -63 30 -7 0 -21 -4 -33 -9z"/>
<path d="M530 219 c-25 -6 -93 -11 -151 -12 l-106 -2 18 -25 c10 -14 23 -51
29 -83 10 -48 15 -57 28 -52 13 6 172 22 239 24 7 1 10 7 7 14 -2 7 9 34 26
60 16 26 30 50 30 52 0 6 -57 35 -67 34 -4 -1 -28 -5 -53 -10z m33 -49 c-8
-74 2 -68 -150 -85 l-52 -6 -10 38 c-6 21 -11 43 -11 49 0 14 107 32 175 30
47 -1 50 -2 48 -26z"/>
</g>
</svg>
