<?xml version="1.0" standalone="no"?>
<!DOCTYPE svg PUBLIC "-//W3C//DTD SVG 20010904//EN"
 "http://www.w3.org/TR/2001/REC-SVG-20010904/DTD/svg10.dtd">
<svg version="1.0" xmlns="http://www.w3.org/2000/svg"
 width="96.000000pt" height="68.000000pt" viewBox="0 0 96.000000 68.000000"
 preserveAspectRatio="xMidYMid meet">
<metadata>
Created by potrace 1.16, written by Peter Selinger 2001-2019
</metadata>
<g transform="translate(0.000000,68.000000) scale(0.100000,-0.100000)"
fill="#000000" stroke="none">
<path d="M660 459 c-25 -5 -105 -15 -179 -22 -132 -12 -133 -12 -112 -31 12
-11 21 -23 21 -29 0 -5 7 -33 16 -63 13 -47 18 -53 37 -49 54 13 252 23 264
13 19 -15 33 -1 60 61 14 31 32 64 41 74 14 15 14 19 1 32 -19 19 -92 26 -149
14z m73 -34 c4 -8 0 -36 -8 -63 l-15 -49 -97 -7 c-54 -4 -114 -10 -134 -13
-36 -5 -36 -5 -47 40 -7 24 -14 51 -17 59 -5 13 11 16 87 22 51 4 111 11 133
16 64 12 92 11 98 -5z"/>
</g>
</svg>
