<?xml version="1.0" standalone="no"?>
<!DOCTYPE svg PUBLIC "-//W3C//DTD SVG 20010904//EN"
 "http://www.w3.org/TR/2001/REC-SVG-20010904/DTD/svg10.dtd">
<svg version="1.0" xmlns="http://www.w3.org/2000/svg"
 width="96.000000pt" height="68.000000pt" viewBox="0 0 96.000000 68.000000"
 preserveAspectRatio="xMidYMid meet">
<metadata>
Created by potrace 1.16, written by Peter Selinger 2001-2019
</metadata>
<g transform="translate(0.000000,68.000000) scale(0.100000,-0.100000)"
fill="#000000" stroke="none">
<path d="M570 447 l-35 -12 48 -3 c42 -3 47 -6 47 -26 0 -20 -6 -25 -45 -31
-28 -4 -43 -10 -39 -17 4 -6 21 -8 40 -5 28 5 34 3 33 -11 -2 -50 -9 -54 -126
-59 -108 -5 -110 -4 -116 18 -8 31 -1 39 34 39 16 0 29 5 29 10 0 6 -18 10
-40 10 -33 0 -40 3 -40 20 0 10 -9 24 -19 30 -34 18 -43 12 -27 -18 8 -15 21
-54 30 -86 14 -54 36 -96 36 -69 0 15 206 28 223 15 20 -17 31 -3 66 83 17 44
34 85 37 91 6 14 -39 34 -74 33 -15 0 -43 -6 -62 -12z"/>
</g>
</svg>
