<?xml version="1.0" standalone="no"?>
<!DOCTYPE svg PUBLIC "-//W3C//DTD SVG 20010904//EN"
 "http://www.w3.org/TR/2001/REC-SVG-20010904/DTD/svg10.dtd">
<svg version="1.0" xmlns="http://www.w3.org/2000/svg"
 width="90.000000pt" height="92.000000pt" viewBox="0 0 90.000000 92.000000"
 preserveAspectRatio="xMidYMid meet">
<metadata>
Created by potrace 1.16, written by Peter Selinger 2001-2019
</metadata>
<g transform="translate(0.000000,92.000000) scale(0.100000,-0.100000)"
fill="#000000" stroke="none">
<path d="M318 771 l4 -79 -53 -9 -54 -8 -5 55 c-5 51 -7 55 -33 58 -27 3 -28
2 -22 -35 3 -21 8 -48 11 -59 4 -24 -11 -34 -52 -34 -13 0 -24 -4 -24 -10 0
-9 18 -15 65 -22 16 -3 21 -12 23 -49 3 -52 6 -51 -116 -65 -42 -4 -62 -11
-62 -20 0 -27 53 -27 189 0 75 15 166 29 204 33 45 4 67 10 67 19 0 18 -36 27
-77 19 l-36 -6 6 38 c4 21 7 44 7 51 0 6 9 12 19 12 11 0 32 5 48 11 27 10 27
11 9 25 -11 8 -31 14 -44 14 -18 0 -22 4 -18 18 19 65 18 90 -5 106 -48 33
-56 24 -51 -63z m-10 -217 c-2 -2 -23 -6 -46 -10 l-43 -7 3 49 c3 49 3 49 43
54 l40 5 3 -44 c2 -24 2 -45 0 -47z"/>
<path d="M568 768 c-7 -62 -45 -176 -87 -263 -20 -41 -34 -75 -30 -75 4 0 20
15 36 34 22 27 38 36 77 41 l49 8 -6 -84 c-7 -120 -10 -124 -56 -77 -21 21
-46 38 -54 38 -21 0 -34 -23 -16 -28 22 -8 89 -78 89 -94 0 -23 -78 -106 -119
-128 -36 -19 -36 -19 -8 -20 43 0 96 26 135 67 l35 37 19 -24 c88 -113 96
-120 151 -120 92 0 125 20 70 41 -73 27 -154 74 -186 107 -34 35 -36 40 -28
72 6 19 15 70 22 113 11 70 10 79 -5 96 -17 19 -15 20 58 36 78 18 90 27 57
45 -30 15 -49 12 -135 -21 -43 -16 -80 -28 -82 -26 -2 2 11 37 29 78 19 41 40
92 47 113 12 37 11 41 -10 58 -35 28 -47 22 -52 -24z"/>
<path d="M275 453 c-30 -8 -68 -11 -94 -7 -40 5 -43 4 -35 -13 5 -10 9 -70 8
-133 -1 -119 -12 -161 -61 -229 -17 -24 -17 -24 3 -13 36 19 83 80 90 117 l6
36 23 -21 22 -21 44 37 c24 20 46 40 47 45 2 5 7 9 11 9 10 0 2 -132 -9 -143
-4 -5 -25 -4 -46 2 l-38 10 45 -47 c24 -25 45 -49 47 -51 1 -3 13 5 25 17 21
21 22 32 24 170 1 81 4 164 7 184 5 30 2 40 -16 52 -26 19 -36 18 -103 -1z
m65 -80 c0 -32 3 -67 6 -79 5 -17 -2 -24 -39 -38 -24 -9 -58 -21 -76 -26 l-31
-9 0 70 0 70 45 -32 c42 -30 47 -32 62 -16 23 23 2 44 -53 53 -34 5 -44 11
-44 25 0 12 9 21 28 25 15 3 32 7 37 9 6 2 22 4 38 4 26 1 27 0 27 -56z"/>
</g>
</svg>
