<?xml version="1.0" standalone="no"?>
<!DOCTYPE svg PUBLIC "-//W3C//DTD SVG 20010904//EN"
 "http://www.w3.org/TR/2001/REC-SVG-20010904/DTD/svg10.dtd">
<svg version="1.0" xmlns="http://www.w3.org/2000/svg"
 width="96.000000pt" height="68.000000pt" viewBox="0 0 96.000000 68.000000"
 preserveAspectRatio="xMidYMid meet">
<metadata>
Created by potrace 1.16, written by Peter Selinger 2001-2019
</metadata>
<g transform="translate(0.000000,68.000000) scale(0.100000,-0.100000)"
fill="#000000" stroke="none">
<path d="M355 320 c-16 -4 -55 -8 -86 -9 l-56 -1 4 -47 c3 -27 -2 -81 -11
-121 -8 -40 -12 -80 -9 -88 10 -26 28 -9 38 35 13 51 22 57 98 64 l58 6 -3
-42 -3 -42 -43 2 -43 2 37 -30 c71 -56 91 -26 96 143 3 114 3 117 -20 128 -13
5 -24 9 -25 9 -1 -1 -15 -5 -32 -9z m30 -44 c0 -15 -12 -22 -55 -32 -78 -19
-82 -18 -78 14 3 23 9 28 43 33 66 11 90 6 90 -15z m5 -70 c0 -19 -6 -24 -37
-29 -21 -3 -53 -9 -70 -12 -30 -7 -33 -5 -33 17 0 21 6 26 53 35 83 16 87 16
87 -11z"/>
</g>
</svg>
