<?xml version="1.0" standalone="no"?>
<!DOCTYPE svg PUBLIC "-//W3C//DTD SVG 20010904//EN"
 "http://www.w3.org/TR/2001/REC-SVG-20010904/DTD/svg10.dtd">
<svg version="1.0" xmlns="http://www.w3.org/2000/svg"
 width="96.000000pt" height="68.000000pt" viewBox="0 0 96.000000 68.000000"
 preserveAspectRatio="xMidYMid meet">
<metadata>
Created by potrace 1.16, written by Peter Selinger 2001-2019
</metadata>
<g transform="translate(0.000000,68.000000) scale(0.100000,-0.100000)"
fill="#000000" stroke="none">
<path d="M540 585 c-12 -25 -47 -67 -78 -95 -31 -27 -53 -50 -48 -50 12 0 99
50 121 70 20 18 135 39 135 25 0 -34 -137 -151 -224 -191 -31 -14 -56 -27 -56
-29 0 -1 15 0 33 5 68 15 178 83 253 156 72 70 74 73 53 85 -21 11 -71 8 -129
-7 l-25 -7 25 27 c24 27 25 28 6 42 -31 22 -43 17 -66 -31z"/>
</g>
</svg>
