<?xml version="1.0" standalone="no"?>
<!DOCTYPE svg PUBLIC "-//W3C//DTD SVG 20010904//EN"
 "http://www.w3.org/TR/2001/REC-SVG-20010904/DTD/svg10.dtd">
<svg version="1.0" xmlns="http://www.w3.org/2000/svg"
 width="90.000000pt" height="92.000000pt" viewBox="0 0 90.000000 92.000000"
 preserveAspectRatio="xMidYMid meet">
<metadata>
Created by potrace 1.16, written by Peter Selinger 2001-2019
</metadata>
<g transform="translate(0.000000,92.000000) scale(0.100000,-0.100000)"
fill="#000000" stroke="none">
<path d="M540 853 c0 -61 -9 -74 -55 -82 -50 -8 -50 -25 -2 -29 32 -3 37 -6
32 -20 -3 -9 -9 -30 -12 -47 l-5 -30 21 25 c11 14 26 37 33 52 13 28 45 38
126 38 30 0 42 4 40 13 -8 23 -48 35 -86 26 -20 -4 -38 -6 -40 -4 -2 2 4 17
12 33 15 30 15 31 -10 51 -42 33 -54 27 -54 -26z"/>
<path d="M248 854 c-4 -3 2 -24 12 -47 l19 -42 -27 -6 c-15 -4 -49 -7 -75 -8
-53 -1 -58 -12 -16 -43 23 -17 26 -17 75 1 l51 20 12 -40 c16 -54 34 -50 29 6
-3 45 -3 46 34 57 50 15 49 32 -1 25 -38 -5 -39 -4 -45 33 -6 35 -20 50 -50
50 -7 0 -15 -3 -18 -6z"/>
<path d="M420 638 c0 -31 -51 -133 -96 -192 l-38 -48 31 15 c17 9 42 30 57 47
28 34 43 34 84 2 l24 -18 -53 -48 c-30 -27 -82 -69 -116 -94 -34 -26 -60 -48
-58 -51 10 -9 138 65 196 114 l62 53 79 -59 c69 -51 86 -59 123 -59 52 0 145
19 145 29 0 4 -33 15 -72 25 -69 16 -180 57 -222 82 -18 11 -19 14 -4 36 9 13
36 45 61 70 41 43 44 48 29 61 -28 23 -50 27 -84 13 -18 -8 -47 -17 -64 -20
-29 -6 -31 -5 -27 17 4 18 -2 26 -22 35 -34 16 -35 16 -35 -10z m120 -113
c-17 -25 -35 -45 -40 -45 -14 0 -80 33 -80 39 0 3 6 14 13 23 12 15 42 22 110
26 l28 2 -31 -45z"/>
<path d="M199 572 c17 -22 37 -45 45 -52 24 -19 46 -5 46 30 0 26 -6 33 -35
46 -19 7 -46 14 -61 14 l-26 0 31 -38z"/>
<path d="M103 476 c4 -10 17 -31 30 -46 38 -49 77 -51 77 -5 0 28 -30 52 -80
61 -29 6 -32 5 -27 -10z"/>
<path d="M234 353 c-49 -81 -90 -137 -111 -150 -27 -18 -30 -51 -7 -95 19 -37
30 -29 55 39 9 26 34 88 54 136 37 89 41 123 9 70z"/>
<path d="M510 274 c-41 -7 -95 -13 -120 -13 -63 1 -64 1 -49 -17 7 -8 20 -50
29 -92 13 -66 18 -77 35 -75 11 2 66 6 123 9 77 5 102 10 98 20 -6 15 27 86
48 104 23 19 20 36 -13 59 -33 24 -45 24 -151 5z m82 -64 c-6 -83 -17 -90
-134 -90 -40 0 -48 3 -48 19 0 10 -3 32 -6 49 -5 25 -2 31 17 37 33 11 120 23
149 21 22 -1 25 -5 22 -36z"/>
</g>
</svg>
