<?xml version="1.0" standalone="no"?>
<!DOCTYPE svg PUBLIC "-//W3C//DTD SVG 20010904//EN"
 "http://www.w3.org/TR/2001/REC-SVG-20010904/DTD/svg10.dtd">
<svg version="1.0" xmlns="http://www.w3.org/2000/svg"
 width="96.000000pt" height="68.000000pt" viewBox="0 0 96.000000 68.000000"
 preserveAspectRatio="xMidYMid meet">
<metadata>
Created by potrace 1.16, written by Peter Selinger 2001-2019
</metadata>
<g transform="translate(0.000000,68.000000) scale(0.100000,-0.100000)"
fill="#000000" stroke="none">
<path d="M536 560 c-6 -37 -9 -40 -46 -46 -22 -4 -37 -11 -34 -16 4 -6 20 -7
36 -4 27 5 29 4 22 -17 -4 -12 -9 -29 -11 -37 -3 -8 10 1 29 21 30 33 40 38
101 44 37 4 67 11 67 16 0 10 -22 12 -83 9 -37 -2 -37 -1 -25 25 10 22 9 28
-3 36 -30 19 -46 10 -53 -31z"/>
<path d="M286 558 c15 -50 12 -53 -56 -58 l-65 -5 28 -19 c24 -16 33 -17 66
-7 53 15 58 14 65 -14 9 -37 26 -30 26 10 0 30 3 35 23 35 12 0 29 5 37 10 11
7 4 10 -27 10 -39 0 -43 2 -43 24 0 23 -16 36 -46 36 -11 0 -13 -6 -8 -22z"/>
</g>
</svg>
