<?xml version="1.0" standalone="no"?>
<!DOCTYPE svg PUBLIC "-//W3C//DTD SVG 20010904//EN"
 "http://www.w3.org/TR/2001/REC-SVG-20010904/DTD/svg10.dtd">
<svg version="1.0" xmlns="http://www.w3.org/2000/svg"
 width="96.000000pt" height="68.000000pt" viewBox="0 0 96.000000 68.000000"
 preserveAspectRatio="xMidYMid meet">
<metadata>
Created by potrace 1.16, written by Peter Selinger 2001-2019
</metadata>
<g transform="translate(0.000000,68.000000) scale(0.100000,-0.100000)"
fill="#000000" stroke="none">
<path d="M346 540 l7 -40 -37 -1 c-20 -1 -42 -2 -48 -3 -7 -1 -14 11 -16 27
-2 15 -9 27 -17 27 -7 0 -21 3 -31 7 -14 5 -16 2 -12 -18 3 -13 8 -31 12 -40
6 -13 -2 -17 -45 -22 -28 -4 -54 -9 -57 -12 -12 -12 12 -19 61 -20 46 0 53 -3
63 -25 6 -14 19 -25 30 -25 22 0 32 -31 9 -33 -8 -1 -41 -3 -72 -3 -32 -1 -52
-4 -45 -6 7 -3 19 -20 27 -39 13 -32 17 -34 59 -34 34 0 46 -4 46 -15 0 -11
-11 -15 -37 -15 -21 0 -45 -5 -53 -10 -11 -7 0 -10 38 -10 45 0 53 -3 50 -17
-3 -17 -15 -21 -131 -37 -26 -4 -45 -11 -42 -17 8 -12 71 -12 113 0 62 18 28
-34 -55 -85 -27 -17 -33 -23 -19 -24 30 0 102 47 127 83 31 43 33 44 109 52
37 4 73 11 80 15 28 17 -19 23 -81 11 -34 -7 -63 -10 -66 -7 -15 14 10 34 51
40 28 5 44 11 40 18 -4 6 -22 8 -45 4 -31 -5 -39 -3 -39 9 0 11 11 15 39 15
32 0 46 6 70 33 28 29 30 33 14 45 -20 14 -52 16 -86 3 -22 -9 -25 -7 -30 15
-4 22 -1 24 29 24 31 0 34 3 34 29 0 32 14 41 66 41 24 0 34 5 34 15 0 11 -11
15 -41 15 -39 0 -41 1 -35 25 7 27 -15 45 -53 45 -19 0 -21 -4 -15 -40z m2
-87 c-4 -24 -88 -32 -88 -9 0 10 13 16 38 19 20 2 41 4 45 5 5 1 7 -6 5 -15z
m46 -101 c8 -14 -8 -29 -37 -34 -32 -6 -50 18 -26 33 18 11 56 12 63 1z m-114
-26 c0 -20 -5 -23 -37 -22 -27 1 -39 6 -41 18 -2 12 5 18 30 21 18 2 36 5 41
5 4 1 7 -9 7 -22z"/>
<path d="M550 538 c-1 -28 -32 -123 -55 -168 -21 -41 -10 -53 18 -19 17 19 38
28 87 37 70 13 88 6 71 -26 -16 -31 -3 -32 50 -5 53 28 54 35 8 59 -26 13 -39
13 -87 3 -31 -6 -62 -14 -69 -16 -21 -8 -15 23 15 77 26 50 27 51 8 65 -28 21
-46 18 -46 -7z"/>
<path d="M560 290 c0 -69 -25 -127 -79 -182 -25 -27 -40 -48 -35 -48 25 0 96
63 122 109 l28 50 58 -80 57 -79 47 0 c74 0 79 12 18 42 -29 15 -81 52 -114
83 -60 56 -62 58 -56 97 5 29 3 42 -7 49 -30 19 -39 10 -39 -41z"/>
<path d="M372 114 c35 -35 58 -38 58 -8 0 14 -55 44 -82 44 -7 0 4 -16 24 -36z"/>
</g>
</svg>
