<?xml version="1.0" standalone="no"?>
<!DOCTYPE svg PUBLIC "-//W3C//DTD SVG 20010904//EN"
 "http://www.w3.org/TR/2001/REC-SVG-20010904/DTD/svg10.dtd">
<svg version="1.0" xmlns="http://www.w3.org/2000/svg"
 width="90.000000pt" height="92.000000pt" viewBox="0 0 90.000000 92.000000"
 preserveAspectRatio="xMidYMid meet">
<metadata>
Created by potrace 1.16, written by Peter Selinger 2001-2019
</metadata>
<g transform="translate(0.000000,92.000000) scale(0.100000,-0.100000)"
fill="#000000" stroke="none">
<path d="M498 757 c-6 -52 -65 -175 -119 -246 -22 -29 -38 -55 -36 -57 2 -2
21 10 43 27 l39 30 7 -28 c10 -34 2 -214 -13 -299 -9 -51 -8 -67 6 -100 15
-37 17 -38 31 -20 8 11 14 42 14 71 l0 52 77 7 c42 3 122 6 178 6 68 0 107 4
119 13 17 13 16 15 -16 30 -19 9 -43 14 -54 12 -10 -2 -40 -6 -66 -9 l-48 -6
0 50 0 50 53 0 c61 0 91 14 67 30 -8 5 -36 10 -62 10 -48 0 -48 0 -48 34 0 34
1 35 48 41 60 8 72 12 72 24 0 13 -63 25 -92 18 -21 -6 -23 -3 -23 32 l0 39
65 6 c81 8 102 19 70 36 -15 8 -41 10 -76 5 l-54 -6 0 29 c0 33 -23 57 -62 67
-37 9 -36 -5 2 -61 17 -26 24 -44 17 -45 -7 0 -44 -3 -84 -7 l-71 -8 26 46
c14 25 37 63 50 84 l25 40 -27 23 c-40 34 -53 29 -58 -20z m113 -235 c8 -39
-3 -46 -84 -54 -44 -5 -48 -4 -44 13 3 10 -1 26 -9 36 -24 32 -16 38 58 38
l72 0 7 -33z m-1 -117 c0 -38 -4 -40 -93 -48 -46 -4 -48 -3 -43 17 3 11 6 29
6 38 0 13 11 18 48 21 26 2 55 4 65 5 13 2 17 -6 17 -33z m0 -121 c0 -49 -8
-54 -86 -54 l-54 0 0 48 0 47 70 1 70 1 0 -43z"/>
<path d="M259 762 c-20 -15 -67 -43 -105 -62 -38 -19 -71 -36 -73 -38 -2 -1
-2 -5 2 -8 3 -3 31 2 62 11 32 9 59 14 62 11 3 -3 8 -34 10 -69 l5 -64 -93
-12 c-113 -15 -122 -18 -114 -32 15 -24 56 -29 115 -14 32 8 61 15 64 15 26 0
-52 -124 -131 -210 -61 -66 -63 -69 -32 -58 33 11 125 95 168 153 l22 30 -5
-75 c-3 -41 -11 -108 -18 -147 -11 -65 -10 -77 6 -110 17 -36 19 -37 32 -18 8
11 14 43 14 79 0 34 3 113 7 175 l6 115 38 -43 c38 -45 69 -51 69 -13 0 24
-25 47 -73 67 -33 13 -38 20 -35 43 3 25 8 28 61 36 31 4 57 12 57 17 0 15
-43 27 -79 21 l-34 -5 6 56 c6 50 5 57 -14 71 -21 14 -20 15 21 26 23 6 54 16
68 21 l25 10 -23 24 c-30 32 -46 31 -91 -3z"/>
</g>
</svg>
