<?xml version="1.0" standalone="no"?>
<!DOCTYPE svg PUBLIC "-//W3C//DTD SVG 20010904//EN"
 "http://www.w3.org/TR/2001/REC-SVG-20010904/DTD/svg10.dtd">
<svg version="1.0" xmlns="http://www.w3.org/2000/svg"
 width="96.000000pt" height="68.000000pt" viewBox="0 0 96.000000 68.000000"
 preserveAspectRatio="xMidYMid meet">
<metadata>
Created by potrace 1.16, written by Peter Selinger 2001-2019
</metadata>
<g transform="translate(0.000000,68.000000) scale(0.100000,-0.100000)"
fill="#000000" stroke="none">
<path d="M310 536 c-31 -19 -64 -35 -135 -62 -18 -7 -17 -8 8 -12 16 -2 42 1
58 7 27 9 31 8 39 -15 6 -14 10 -36 10 -49 0 -22 -6 -24 -91 -36 -79 -11 -88
-15 -73 -26 10 -8 30 -11 44 -8 64 13 100 16 100 7 0 -17 -77 -109 -120 -143
-22 -18 -38 -34 -35 -37 8 -8 91 46 128 84 20 21 39 36 42 33 2 -3 -2 -46 -9
-96 -16 -105 -12 -143 14 -143 26 0 30 19 30 141 0 115 7 130 43 89 19 -23 47
-27 47 -6 0 18 -19 33 -53 41 -19 5 -27 13 -27 30 0 24 22 35 73 35 16 0 26 4
22 10 -3 6 -26 10 -51 10 l-45 0 7 45 c5 35 3 45 -7 45 -23 0 13 20 37 20 11
0 29 7 40 15 19 15 19 15 0 30 -27 20 -54 18 -96 -9z"/>
<path d="M540 546 c0 -24 -59 -129 -101 -178 -43 -52 -43 -59 1 -28 16 11 31
16 34 11 8 -12 -4 -219 -14 -245 -5 -13 -2 -32 7 -49 12 -23 17 -26 29 -16 8
6 14 28 14 49 l0 38 163 8 c174 10 212 25 80 34 -76 5 -78 6 -75 30 2 14 5 26
7 28 5 5 38 10 73 11 53 1 36 21 -18 21 -36 0 -52 4 -56 15 -9 23 15 45 50 45
17 0 38 4 45 9 12 8 9 11 -11 16 -14 4 -36 5 -49 3 -20 -2 -25 2 -27 23 -3 26
-1 27 57 34 101 12 88 32 -16 26 -38 -2 -43 0 -43 19 0 15 -11 25 -36 36 -34
14 -61 11 -38 -4 12 -8 37 -52 32 -57 -7 -6 -128 -16 -128 -10 0 3 18 29 39
58 37 48 39 53 24 69 -19 21 -43 24 -43 4z m90 -186 c0 -25 -4 -30 -24 -30
-13 0 -38 -3 -55 -6 -25 -5 -31 -3 -31 11 0 10 -7 27 -17 37 -15 17 -13 18 55
18 l72 0 0 -30z m5 -84 c0 -22 -4 -24 -59 -30 -33 -3 -61 -4 -64 -1 -2 2 -2
15 2 29 5 22 12 25 59 28 62 4 60 4 62 -26z m-3 -87 c-2 -16 -10 -29 -17 -29
-7 0 -33 -3 -59 -6 l-46 -7 0 35 c0 19 2 37 4 39 2 2 31 3 63 1 59 -4 59 -4
55 -33z"/>
</g>
</svg>
