<?xml version="1.0" standalone="no"?>
<!DOCTYPE svg PUBLIC "-//W3C//DTD SVG 20010904//EN"
 "http://www.w3.org/TR/2001/REC-SVG-20010904/DTD/svg10.dtd">
<svg version="1.0" xmlns="http://www.w3.org/2000/svg"
 width="96.000000pt" height="68.000000pt" viewBox="0 0 96.000000 68.000000"
 preserveAspectRatio="xMidYMid meet">
<metadata>
Created by potrace 1.16, written by Peter Selinger 2001-2019
</metadata>
<g transform="translate(0.000000,68.000000) scale(0.100000,-0.100000)"
fill="#000000" stroke="none">
<path d="M525 510 c-9 -28 -41 -82 -71 -120 -53 -69 -58 -84 -20 -55 43 33 48
22 41 -82 -4 -54 -10 -114 -15 -134 -9 -46 14 -99 35 -78 15 16 26 315 12 337
-5 8 2 26 20 50 70 90 75 99 57 116 -26 27 -42 18 -59 -34z"/>
</g>
</svg>
