<?xml version="1.0" standalone="no"?>
<!DOCTYPE svg PUBLIC "-//W3C//DTD SVG 20010904//EN"
 "http://www.w3.org/TR/2001/REC-SVG-20010904/DTD/svg10.dtd">
<svg version="1.0" xmlns="http://www.w3.org/2000/svg"
 width="96.000000pt" height="68.000000pt" viewBox="0 0 96.000000 68.000000"
 preserveAspectRatio="xMidYMid meet">
<metadata>
Created by potrace 1.16, written by Peter Selinger 2001-2019
</metadata>
<g transform="translate(0.000000,68.000000) scale(0.100000,-0.100000)"
fill="#000000" stroke="none">
<path d="M640 560 c-56 -12 -92 -15 -108 -9 -41 16 -53 12 -48 -18 3 -15 6
-124 6 -243 1 -119 5 -222 10 -230 21 -34 33 48 38 248 5 231 -4 212 106 232
57 11 70 10 77 -1 5 -8 7 -21 4 -29 -2 -8 -7 -39 -10 -69 -9 -67 -32 -93 -77
-85 l-33 6 38 -36 c30 -29 41 -35 56 -27 30 17 48 53 65 134 9 43 21 87 26 98
10 17 7 21 -24 34 -20 8 -37 15 -38 14 -2 -1 -41 -9 -88 -19z"/>
<path d="M295 544 c-30 -9 -69 -12 -96 -9 -25 3 -48 3 -51 -1 -4 -3 2 -20 12
-37 10 -18 21 -57 25 -87 7 -54 19 -80 36 -80 5 0 9 7 9 15 0 10 10 15 34 15
18 0 54 3 79 6 43 6 46 9 41 30 -4 14 4 44 19 77 14 30 22 60 18 66 -12 19
-72 21 -126 5z m45 -48 c0 -46 -13 -85 -29 -90 -9 -2 -30 -7 -47 -11 -32 -6
-32 -6 -39 45 -4 28 -5 54 -2 56 4 4 43 12 110 23 4 0 7 -10 7 -23z"/>
</g>
</svg>
