<?xml version="1.0" standalone="no"?>
<!DOCTYPE svg PUBLIC "-//W3C//DTD SVG 20010904//EN"
 "http://www.w3.org/TR/2001/REC-SVG-20010904/DTD/svg10.dtd">
<svg version="1.0" xmlns="http://www.w3.org/2000/svg"
 width="96.000000pt" height="68.000000pt" viewBox="0 0 96.000000 68.000000"
 preserveAspectRatio="xMidYMid meet">
<metadata>
Created by potrace 1.16, written by Peter Selinger 2001-2019
</metadata>
<g transform="translate(0.000000,68.000000) scale(0.100000,-0.100000)"
fill="#000000" stroke="none">
<path d="M370 331 c0 -5 11 -19 25 -32 28 -27 36 -85 10 -75 -19 7 -19 -8 0
-24 21 -18 33 -5 41 46 5 36 12 48 36 60 16 8 26 19 23 24 -11 17 -32 11 -49
-15 -17 -26 -36 -33 -36 -14 0 12 -29 38 -42 39 -5 0 -8 -4 -8 -9z"/>
<path d="M580 320 c-14 -11 -36 -20 -50 -20 -23 0 -25 -4 -26 -50 0 -28 2 -50
5 -50 3 1 20 12 36 25 29 24 29 25 7 25 -17 0 -23 5 -20 18 6 30 46 25 102
-12 79 -52 99 -60 143 -51 l38 8 -70 22 c-38 12 -88 31 -110 42 l-40 21 28 11
c16 6 25 15 22 21 -10 16 -38 11 -65 -10z"/>
<path d="M298 298 c30 -15 27 -60 -5 -68 -20 -5 -20 -7 -7 -25 20 -28 44 -10
65 48 19 52 14 58 -44 56 -31 0 -31 -1 -9 -11z"/>
<path d="M180 290 c-22 -7 -21 -8 13 -9 20 -1 37 -6 37 -12 0 -6 -17 -29 -39
-50 -45 -46 -43 -48 15 -14 48 28 71 59 53 71 -8 4 -7 9 2 15 18 11 -46 10
-81 -1z"/>
<path d="M560 196 c0 -18 -221 -41 -250 -26 -31 16 -43 12 -36 -13 8 -33 -10
-90 -39 -121 -19 -20 -20 -26 -8 -26 9 0 30 16 48 34 32 35 34 35 155 46 67 5
126 8 130 5 5 -3 5 -16 1 -28 -8 -22 5 -67 20 -67 14 0 19 32 19 115 0 66 -3
84 -16 89 -22 8 -24 8 -24 -8z m10 -55 c0 -21 -10 -23 -182 -37 -73 -5 -78 -4
-78 14 0 18 10 21 103 29 159 15 157 16 157 -6z"/>
</g>
</svg>
