<?xml version="1.0" standalone="no"?>
<!DOCTYPE svg PUBLIC "-//W3C//DTD SVG 20010904//EN"
 "http://www.w3.org/TR/2001/REC-SVG-20010904/DTD/svg10.dtd">
<svg version="1.0" xmlns="http://www.w3.org/2000/svg"
 width="96.000000pt" height="68.000000pt" viewBox="0 0 96.000000 68.000000"
 preserveAspectRatio="xMidYMid meet">
<metadata>
Created by potrace 1.16, written by Peter Selinger 2001-2019
</metadata>
<g transform="translate(0.000000,68.000000) scale(0.100000,-0.100000)"
fill="#000000" stroke="none">
<path d="M529 545 c-3 -2 -65 -13 -138 -24 -73 -11 -136 -22 -139 -26 -13 -12
24 -25 76 -25 58 0 64 -6 66 -68 1 -34 -1 -36 -39 -43 -22 -4 -70 -11 -108
-14 -37 -4 -67 -10 -67 -15 0 -16 55 -21 127 -10 41 7 77 9 79 7 3 -3 -1 -21
-10 -40 -21 -52 -126 -152 -188 -179 -27 -12 -38 -28 -19 -28 18 0 106 44 145
72 43 31 116 121 116 144 0 27 17 14 56 -43 21 -32 63 -84 93 -115 l54 -58 96
0 c56 0 91 4 86 9 -6 5 -39 19 -74 32 -84 30 -164 83 -230 153 -29 31 -52 59
-50 61 3 2 55 7 117 11 61 4 112 11 112 16 0 27 -83 32 -203 12 l-39 -7 5 59
4 59 69 8 c79 10 98 21 70 43 -19 14 -58 19 -67 9z"/>
</g>
</svg>
