<?xml version="1.0" standalone="no"?>
<!DOCTYPE svg PUBLIC "-//W3C//DTD SVG 20010904//EN"
 "http://www.w3.org/TR/2001/REC-SVG-20010904/DTD/svg10.dtd">
<svg version="1.0" xmlns="http://www.w3.org/2000/svg"
 width="90.000000pt" height="92.000000pt" viewBox="0 0 90.000000 92.000000"
 preserveAspectRatio="xMidYMid meet">
<metadata>
Created by potrace 1.16, written by Peter Selinger 2001-2019
</metadata>
<g transform="translate(0.000000,92.000000) scale(0.100000,-0.100000)"
fill="#000000" stroke="none">
<path d="M564 829 c-26 -22 -72 -55 -102 -72 -63 -35 -55 -47 15 -23 26 9 48
16 49 16 1 0 4 -15 6 -34 l4 -35 -85 -15 c-46 -9 -86 -18 -89 -21 -2 -2 7 -10
22 -16 20 -9 38 -10 74 -1 26 5 49 9 51 6 6 -5 -46 -73 -98 -126 -25 -27 -41
-48 -35 -48 16 0 97 55 124 84 l25 28 6 -44 c3 -23 9 -50 13 -59 8 -17 -31
-32 -116 -44 -27 -4 -48 -11 -48 -15 0 -18 32 -32 60 -26 38 7 39 -5 8 -94
-18 -52 -36 -79 -88 -132 -36 -38 -62 -68 -57 -68 12 0 69 30 97 52 62 49 159
240 131 257 -8 5 3 12 31 19 23 6 46 8 50 4 5 -5 -4 -32 -18 -60 -31 -62 -26
-87 14 -78 95 22 92 22 92 -18 0 -43 -23 -102 -51 -133 -20 -20 -23 -21 -62
-7 -22 8 -42 12 -44 10 -10 -10 64 -95 82 -95 48 -2 89 53 120 164 10 33 21
64 26 69 15 16 10 25 -21 45 -26 15 -38 17 -75 8 -25 -6 -48 -8 -51 -4 -3 3
14 31 37 62 l43 57 -24 20 c-23 19 -35 19 -85 3 -19 -6 -20 -2 -17 59 2 37 5
66 7 66 3 0 41 -25 85 -55 89 -61 120 -69 120 -32 0 35 -32 58 -123 89 -118
39 -113 67 13 68 101 1 128 19 65 46 -27 11 -45 12 -73 5 -98 -24 -92 -25 -92
14 0 19 -5 35 -11 35 -24 0 4 18 45 30 56 15 64 33 26 60 l-28 20 -48 -41z"/>
<path d="M195 803 c-14 -90 -92 -245 -173 -347 -12 -16 -22 -33 -22 -37 0 -21
25 -5 85 56 55 56 68 64 84 56 19 -10 33 -54 24 -77 -2 -6 -27 -15 -54 -20
-64 -12 -59 -29 9 -29 l52 0 0 -87 0 -86 -52 -13 c-29 -6 -70 -11 -91 -11 -31
2 -38 -1 -35 -14 2 -10 14 -25 28 -36 26 -19 26 -19 100 15 41 18 110 46 153
61 42 16 80 32 83 38 13 21 -9 21 -69 0 -34 -12 -64 -22 -67 -22 -3 0 -4 38
-2 84 l3 85 32 6 c18 4 41 9 51 12 19 5 19 6 1 19 -10 8 -33 14 -50 14 -29 0
-30 2 -30 39 0 38 1 39 37 45 40 7 48 19 22 34 -11 6 -32 5 -58 -3 -22 -7 -53
-15 -69 -19 l-27 -6 46 91 46 92 42 -42 c43 -42 61 -50 68 -29 11 33 -6 59
-52 80 -28 13 -46 27 -43 34 6 15 -31 54 -52 54 -9 0 -16 -14 -20 -37z"/>
<path d="M310 377 c0 -7 -9 -29 -20 -50 -24 -44 -19 -46 32 -11 40 28 46 42
26 62 -16 16 -38 15 -38 -1z"/>
<path d="M80 342 c0 -17 52 -82 65 -82 24 0 19 56 -7 74 -24 17 -58 21 -58 8z"/>
</g>
</svg>
