<?xml version="1.0" standalone="no"?>
<!DOCTYPE svg PUBLIC "-//W3C//DTD SVG 20010904//EN"
 "http://www.w3.org/TR/2001/REC-SVG-20010904/DTD/svg10.dtd">
<svg version="1.0" xmlns="http://www.w3.org/2000/svg"
 width="90.000000pt" height="92.000000pt" viewBox="0 0 90.000000 92.000000"
 preserveAspectRatio="xMidYMid meet">
<metadata>
Created by potrace 1.16, written by Peter Selinger 2001-2019
</metadata>
<g transform="translate(0.000000,92.000000) scale(0.100000,-0.100000)"
fill="#000000" stroke="none">
<path d="M518 825 l5 -65 -39 -1 c-22 -1 -50 -4 -64 -8 l-25 -7 24 -13 c14 -8
40 -11 62 -8 37 5 39 4 39 -21 0 -15 5 -34 10 -42 9 -13 11 -13 20 0 5 8 10
27 10 42 0 23 5 28 38 34 70 12 96 20 100 32 6 18 -44 25 -89 14 l-41 -10 6
48 c6 42 4 50 -13 59 -43 23 -49 15 -43 -54z"/>
<path d="M115 780 c-3 -5 -1 -19 5 -31 7 -11 14 -63 17 -114 l6 -93 -57 -7
c-71 -9 -70 -29 2 -33 l52 -3 0 -85 c0 -46 1 -87 2 -91 2 -5 -29 -17 -67 -27
-39 -11 -72 -21 -74 -23 -9 -6 43 -53 59 -53 13 0 253 130 269 146 14 14 -14
11 -64 -6 -32 -11 -62 -20 -67 -20 -4 0 -8 38 -8 85 l0 85 45 11 c52 13 61 22
41 38 -17 15 -44 17 -70 6 -18 -8 -19 -5 -13 61 3 38 9 84 13 101 6 31 4 34
-29 48 -43 18 -54 19 -62 5z"/>
<path d="M640 682 l0 -39 -82 -11 c-109 -16 -108 -16 -108 12 0 24 -16 36 -51
36 -23 0 -24 -13 -3 -45 l16 -25 -38 -1 c-22 -1 -50 -4 -64 -8 l-25 -7 23 -13
c15 -8 39 -10 67 -5 44 6 46 5 56 -25 14 -39 35 -35 31 6 -3 29 -2 30 50 36
29 4 68 7 87 7 30 0 33 -2 27 -25 -9 -34 8 -31 34 5 20 29 25 30 94 30 44 0
79 5 90 13 17 13 16 14 -13 27 -18 7 -52 11 -81 8 -43 -4 -48 -3 -38 10 10 12
8 18 -11 33 -13 11 -32 19 -42 19 -15 0 -19 -7 -19 -38z"/>
<path d="M615 524 c-31 -13 -192 -30 -208 -22 -23 12 -42 1 -27 -17 13 -15 15
-105 5 -200 -5 -46 -4 -69 5 -80 16 -19 30 -19 30 0 0 9 6 12 15 9 29 -11 15
-37 -60 -110 -41 -41 -72 -74 -69 -74 15 0 108 54 163 96 l64 48 -23 18 c-13
10 -21 20 -19 22 2 2 41 6 86 9 75 6 84 5 93 -13 29 -55 48 4 52 163 3 118 1
130 -16 143 -19 13 -68 18 -91 8z m43 -66 c3 -25 1 -27 -30 -22 -18 3 -68 -1
-110 -10 -42 -9 -80 -16 -83 -16 -3 0 -5 13 -5 29 0 27 3 29 63 38 34 6 85 10
112 9 46 -1 50 -3 53 -28z m2 -79 c0 -27 -3 -31 -20 -26 -11 3 -55 -1 -98 -9
-110 -19 -112 -19 -112 16 0 26 3 30 23 25 12 -3 56 1 97 9 111 21 110 21 110
-15z m0 -91 l0 -33 -118 -3 -119 -3 5 29 c3 24 8 28 30 25 15 -2 52 0 82 5 30
5 70 10 88 11 30 1 32 -1 32 -31z"/>
<path d="M661 104 c65 -79 91 -91 97 -42 5 41 -13 64 -72 92 -88 42 -92 34
-25 -50z"/>
</g>
</svg>
