<?xml version="1.0" standalone="no"?>
<!DOCTYPE svg PUBLIC "-//W3C//DTD SVG 20010904//EN"
 "http://www.w3.org/TR/2001/REC-SVG-20010904/DTD/svg10.dtd">
<svg version="1.0" xmlns="http://www.w3.org/2000/svg"
 width="96.000000pt" height="68.000000pt" viewBox="0 0 96.000000 68.000000"
 preserveAspectRatio="xMidYMid meet">
<metadata>
Created by potrace 1.16, written by Peter Selinger 2001-2019
</metadata>
<g transform="translate(0.000000,68.000000) scale(0.100000,-0.100000)"
fill="#000000" stroke="none">
<path d="M490 614 c-69 -8 -142 -11 -162 -8 l-37 6 6 -54 c11 -112 -51 -272
-149 -382 -60 -68 -42 -75 34 -13 79 64 130 159 156 291 9 46 20 51 145 59 67
5 77 3 77 -11 -1 -26 -25 -52 -49 -52 -11 0 -21 6 -21 14 0 13 -20 26 -42 26
-6 0 -5 -6 2 -15 13 -15 8 -29 -11 -31 -39 -6 -38 -8 5 -13 54 -7 77 -31 29
-31 -15 0 -35 -5 -43 -10 -11 -7 -3 -10 28 -10 62 0 50 -24 -14 -28 -27 -1
-56 -5 -64 -8 -31 -11 13 -22 67 -17 l53 6 0 -41 c0 -74 23 -61 32 18 3 24 7
25 83 30 69 5 77 7 55 17 -14 6 -49 8 -77 6 -44 -5 -53 -3 -53 11 0 12 10 16
40 16 22 0 40 5 40 10 0 6 -18 10 -40 10 -40 0 -53 13 -24 24 9 3 31 6 51 6
23 0 33 4 30 13 -2 6 -16 11 -31 10 -28 -2 -36 14 -10 24 8 3 13 12 10 19 -4
10 3 14 20 14 16 0 27 7 33 23 5 13 16 29 25 36 9 7 16 17 16 21 0 10 -48 30
-68 29 -9 -1 -73 -8 -142 -15z m130 -33 c0 -16 -14 -20 -131 -36 -140 -18
-129 -19 -129 5 0 14 9 21 33 24 88 15 227 19 227 7z"/>
<path d="M707 280 c-12 -32 -20 -40 -41 -40 -16 0 -26 6 -26 15 0 15 -29 35
-51 35 -7 0 -3 -10 9 -23 25 -27 20 -37 -17 -37 -23 -1 -24 -2 -8 -11 11 -6
32 -8 49 -5 24 5 29 3 26 -12 -2 -11 -16 -19 -38 -22 -41 -6 -25 -23 17 -18
20 2 29 -2 31 -14 3 -15 -5 -18 -52 -18 -30 0 -58 -5 -62 -11 -4 -8 11 -10 50
-7 l56 3 0 -30 c0 -84 32 -99 40 -19 l5 49 68 3 c38 2 67 7 67 13 0 7 -25 9
-65 7 -57 -3 -65 -1 -65 15 0 11 8 17 23 17 12 0 28 4 36 9 11 7 9 10 -7 15
-11 4 -26 5 -33 4 -8 -2 -14 4 -14 12 0 10 12 16 38 18 38 3 53 22 17 22 -18
0 -19 3 -10 21 9 15 8 24 -1 35 -18 22 -25 17 -42 -26z"/>
<path d="M410 267 c-15 -33 -60 -52 -60 -25 0 15 -39 42 -48 34 -3 -3 3 -15
13 -26 18 -19 17 -20 -3 -21 -55 -3 -64 -14 -15 -17 43 -3 53 -8 53 -28 0 -9
-11 -14 -35 -14 -19 0 -35 -5 -35 -11 0 -7 14 -10 35 -7 28 3 35 0 35 -13 0
-19 -28 -29 -87 -29 -24 0 -43 -5 -43 -11 0 -7 21 -8 64 -4 l65 7 3 -43 c4
-56 20 -53 32 5 l9 46 56 0 c40 0 52 3 41 10 -8 5 -36 10 -62 10 -38 0 -46 3
-42 15 4 8 19 15 34 15 16 0 32 5 35 10 4 6 -7 10 -24 10 -24 0 -31 4 -31 20
0 16 7 20 30 20 31 0 43 20 13 20 -17 1 -17 2 1 15 11 8 16 21 13 30 -10 25
-31 17 -47 -18z"/>
</g>
</svg>
