<?xml version="1.0" standalone="no"?>
<!DOCTYPE svg PUBLIC "-//W3C//DTD SVG 20010904//EN"
 "http://www.w3.org/TR/2001/REC-SVG-20010904/DTD/svg10.dtd">
<svg version="1.0" xmlns="http://www.w3.org/2000/svg"
 width="96.000000pt" height="68.000000pt" viewBox="0 0 96.000000 68.000000"
 preserveAspectRatio="xMidYMid meet">
<metadata>
Created by potrace 1.16, written by Peter Selinger 2001-2019
</metadata>
<g transform="translate(0.000000,68.000000) scale(0.100000,-0.100000)"
fill="#000000" stroke="none">
<path d="M236 583 c5 -16 9 -57 9 -93 l0 -65 -62 -8 c-35 -5 -63 -13 -63 -18
0 -5 29 -9 65 -9 l65 0 0 -46 0 -45 -87 -41 -87 -41 23 -18 c32 -26 41 -24 94
16 25 19 48 35 52 35 5 0 -1 -58 -11 -109 -4 -21 -9 -22 -41 -16 l-37 7 35
-40 c38 -45 53 -54 73 -46 25 10 36 55 36 149 0 88 2 95 25 113 14 11 25 23
25 27 0 4 -11 4 -25 1 -23 -6 -25 -4 -25 28 0 31 2 34 41 40 50 8 48 30 -4 34
-33 3 -37 6 -37 30 1 15 7 45 15 67 14 38 14 41 -6 58 -12 9 -35 17 -51 17
-28 0 -30 -2 -22 -27z"/>
<path d="M500 561 c0 -5 12 -24 26 -41 15 -17 25 -33 22 -35 -2 -2 -41 -7 -86
-11 -45 -4 -82 -11 -82 -15 0 -5 14 -9 30 -9 18 0 33 -6 36 -15 9 -22 -32 -99
-76 -141 -45 -44 -45 -56 0 -24 17 12 27 27 24 33 -4 7 1 5 10 -4 16 -15 16
-26 7 -113 -8 -70 -8 -103 0 -118 20 -37 33 -2 37 102 3 65 0 111 -8 129 -11
27 -9 33 24 77 28 36 33 50 25 60 -9 11 -8 14 5 14 56 0 273 24 280 31 16 14
-43 22 -120 15 -64 -6 -73 -5 -68 9 10 25 -20 60 -55 63 -17 1 -31 -2 -31 -7z"/>
<path d="M575 388 c-9 -29 -31 -70 -48 -92 -23 -29 -28 -41 -18 -44 8 -3 30
-20 50 -39 l36 -33 -30 -25 c-16 -14 -45 -32 -62 -40 -18 -9 -33 -18 -33 -21
0 -11 66 8 107 31 l41 23 41 -39 c51 -47 69 -53 137 -44 59 7 70 19 26 28 -40
8 -135 45 -157 61 -15 11 -17 17 -7 28 6 8 26 41 43 74 17 32 38 66 45 75 33
37 2 55 -77 44 -49 -7 -50 -6 -38 13 10 17 10 23 0 36 -23 28 -38 18 -56 -36z
m115 -53 c0 -9 -7 -30 -16 -47 -15 -29 -18 -30 -29 -15 -7 9 -15 17 -18 17 -3
0 -18 5 -33 10 -26 10 -26 11 -9 30 23 26 105 29 105 5z m-86 -67 c38 -25 44
-39 21 -58 -20 -17 -100 46 -84 67 15 18 22 17 63 -9z"/>
</g>
</svg>
