<?xml version="1.0" standalone="no"?>
<!DOCTYPE svg PUBLIC "-//W3C//DTD SVG 20010904//EN"
 "http://www.w3.org/TR/2001/REC-SVG-20010904/DTD/svg10.dtd">
<svg version="1.0" xmlns="http://www.w3.org/2000/svg"
 width="90.000000pt" height="92.000000pt" viewBox="0 0 90.000000 92.000000"
 preserveAspectRatio="xMidYMid meet">
<metadata>
Created by potrace 1.16, written by Peter Selinger 2001-2019
</metadata>
<g transform="translate(0.000000,92.000000) scale(0.100000,-0.100000)"
fill="#000000" stroke="none">
<path d="M446 838 c-2 -7 -9 -42 -15 -78 -7 -36 -34 -116 -61 -179 l-48 -113
35 33 c19 19 41 46 49 61 11 20 21 27 42 26 15 -1 67 8 115 21 49 12 92 20 95
16 4 -3 -3 -32 -14 -64 l-20 -59 73 51 c40 28 73 57 73 64 0 7 -20 24 -45 39
l-45 26 -93 -26 c-159 -44 -157 -44 -137 -8 6 9 24 48 41 87 l30 70 -26 22
c-29 26 -44 29 -49 11z"/>
<path d="M180 598 c-45 -17 -62 -18 -95 -10 -22 6 -42 9 -44 7 -2 -3 3 -19 12
-37 8 -18 19 -67 23 -108 4 -41 11 -86 16 -100 9 -24 10 -24 23 -7 9 13 36 22
87 30 40 6 75 12 77 13 2 2 -1 10 -8 17 -8 11 -5 31 14 88 14 41 28 81 31 90
3 10 -4 19 -21 27 -33 15 -47 14 -115 -10z m60 -53 c0 -13 -5 -47 -11 -74 -10
-46 -14 -51 -47 -61 -20 -5 -42 -10 -48 -10 -12 0 -24 53 -24 112 0 33 3 37
38 46 20 5 49 10 65 11 22 1 27 -3 27 -24z"/>
<path d="M489 548 c0 -2 -2 -39 -3 -83 -1 -65 -7 -90 -30 -137 -37 -73 -94
-128 -181 -174 -70 -36 -70 -37 -27 -30 95 14 207 94 252 179 l24 45 48 -67
c26 -38 69 -92 95 -121 l47 -52 62 5 c34 2 70 9 80 15 17 9 10 15 -50 42 -85
38 -177 102 -234 164 l-42 46 20 52 c12 29 22 57 23 62 3 15 -79 67 -84 54z"/>
</g>
</svg>
