<?xml version="1.0" standalone="no"?>
<!DOCTYPE svg PUBLIC "-//W3C//DTD SVG 20010904//EN"
 "http://www.w3.org/TR/2001/REC-SVG-20010904/DTD/svg10.dtd">
<svg version="1.0" xmlns="http://www.w3.org/2000/svg"
 width="96.000000pt" height="68.000000pt" viewBox="0 0 96.000000 68.000000"
 preserveAspectRatio="xMidYMid meet">
<metadata>
Created by potrace 1.16, written by Peter Selinger 2001-2019
</metadata>
<g transform="translate(0.000000,68.000000) scale(0.100000,-0.100000)"
fill="#000000" stroke="none">
<path d="M459 577 c-14 -59 -65 -174 -86 -195 -8 -8 -11 -17 -8 -20 3 -3 22
12 43 34 35 38 42 41 122 52 47 7 94 14 105 15 21 2 22 -7 9 -51 l-7 -24 56
29 c31 15 57 34 57 41 0 7 -17 20 -37 29 -35 14 -46 14 -138 -4 -55 -11 -102
-18 -105 -16 -2 2 3 18 12 36 53 102 51 95 19 111 l-29 16 -13 -53z"/>
<path d="M250 453 c-26 -11 -52 -13 -98 -9 l-64 7 20 -28 c10 -15 22 -50 26
-78 4 -27 9 -58 12 -67 6 -19 39 -25 48 -9 3 4 33 11 67 15 49 6 60 10 55 23
-4 8 6 42 20 74 16 35 23 63 18 68 -18 17 -70 19 -104 4z m25 -80 c-4 -27 -8
-49 -9 -50 -1 -1 -20 -5 -42 -9 l-41 -6 -10 50 c-11 57 -10 58 71 61 l38 1 -7
-47z"/>
<path d="M507 377 c16 -100 -79 -219 -207 -258 l-25 -7 25 -1 c61 -2 229 110
230 153 0 6 38 -28 83 -76 83 -88 83 -88 133 -87 27 0 58 4 69 8 18 8 18 10
-10 21 -71 30 -159 74 -178 89 -83 67 -83 67 -69 103 25 60 24 64 -3 76 -44
20 -54 16 -48 -21z"/>
</g>
</svg>
