<?xml version="1.0" standalone="no"?>
<!DOCTYPE svg PUBLIC "-//W3C//DTD SVG 20010904//EN"
 "http://www.w3.org/TR/2001/REC-SVG-20010904/DTD/svg10.dtd">
<svg version="1.0" xmlns="http://www.w3.org/2000/svg"
 width="90.000000pt" height="92.000000pt" viewBox="0 0 90.000000 92.000000"
 preserveAspectRatio="xMidYMid meet">
<metadata>
Created by potrace 1.16, written by Peter Selinger 2001-2019
</metadata>
<g transform="translate(0.000000,92.000000) scale(0.100000,-0.100000)"
fill="#000000" stroke="none">
<path d="M495 780 c-123 -27 -240 -35 -286 -20 -22 7 -42 10 -45 7 -4 -3 3
-21 14 -39 13 -21 26 -74 37 -148 22 -158 19 -151 66 -145 21 3 57 7 79 10
l40 5 0 -58 0 -59 -52 -7 c-29 -3 -71 -6 -93 -6 -37 0 -38 -1 -22 -17 14 -14
32 -17 92 -15 l75 2 0 -49 0 -48 -52 -7 c-29 -3 -102 -9 -161 -13 -59 -3 -110
-10 -113 -14 -3 -5 11 -16 30 -26 32 -15 45 -15 133 -3 54 7 208 16 343 19
204 5 245 8 245 20 0 8 -15 23 -32 34 -30 17 -41 18 -145 8 -62 -6 -134 -13
-160 -16 l-48 -4 0 42 c0 23 4 47 8 53 4 6 40 14 81 18 125 11 148 23 92 46
-21 8 -43 9 -87 1 -87 -16 -84 -18 -84 43 l0 53 38 7 c55 9 92 7 92 -4 0 -13
37 -13 45 0 4 6 22 63 41 127 19 64 41 127 50 141 18 27 9 44 -37 68 -35 18
-82 16 -184 -6z m130 -40 c3 -5 3 -31 -1 -57 l-6 -48 -80 -1 -80 -1 7 43 c4
29 2 45 -7 51 -8 5 5 10 37 14 83 10 123 10 130 -1z m-241 -36 c3 -9 6 -30 6
-49 0 -28 -4 -33 -31 -39 -43 -8 -97 -8 -102 2 -3 4 -8 28 -12 55 l-7 47 70 0
c54 0 71 -3 76 -16z m226 -107 c0 -2 -7 -26 -15 -53 l-14 -49 -66 3 -66 4 3
41 3 42 60 6 c33 3 68 6 78 7 9 1 17 1 17 -1z m-210 -62 c0 -40 -2 -43 -31
-49 -17 -3 -47 -6 -65 -6 -32 0 -34 2 -34 34 0 19 -2 40 -5 48 -4 10 11 13 65
14 l70 1 0 -42z"/>
</g>
</svg>
