<?xml version="1.0" standalone="no"?>
<!DOCTYPE svg PUBLIC "-//W3C//DTD SVG 20010904//EN"
 "http://www.w3.org/TR/2001/REC-SVG-20010904/DTD/svg10.dtd">
<svg version="1.0" xmlns="http://www.w3.org/2000/svg"
 width="96.000000pt" height="68.000000pt" viewBox="0 0 96.000000 68.000000"
 preserveAspectRatio="xMidYMid meet">
<metadata>
Created by potrace 1.16, written by Peter Selinger 2001-2019
</metadata>
<g transform="translate(0.000000,68.000000) scale(0.100000,-0.100000)"
fill="#000000" stroke="none">
<path d="M420 275 l0 -45 -70 0 c-40 0 -70 -4 -70 -10 0 -6 30 -10 70 -10 l70
0 0 -39 0 -38 -132 -7 c-73 -4 -135 -10 -137 -12 -3 -2 1 -10 7 -16 9 -9 61
-9 214 0 112 7 256 12 321 12 91 0 118 3 115 13 -9 24 -70 36 -148 27 -41 -5
-101 -9 -132 -10 l-58 0 0 35 c0 38 -2 37 124 50 41 5 55 10 48 17 -13 13 -51
15 -119 5 l-53 -8 0 41 c0 36 -2 40 -25 40 -23 0 -25 -4 -25 -45z"/>
</g>
</svg>
