<?xml version="1.0" standalone="no"?>
<!DOCTYPE svg PUBLIC "-//W3C//DTD SVG 20010904//EN"
 "http://www.w3.org/TR/2001/REC-SVG-20010904/DTD/svg10.dtd">
<svg version="1.0" xmlns="http://www.w3.org/2000/svg"
 width="96.000000pt" height="68.000000pt" viewBox="0 0 96.000000 68.000000"
 preserveAspectRatio="xMidYMid meet">
<metadata>
Created by potrace 1.16, written by Peter Selinger 2001-2019
</metadata>
<g transform="translate(0.000000,68.000000) scale(0.100000,-0.100000)"
fill="#000000" stroke="none">
<path d="M236 532 c3 -27 1 -74 -5 -104 -13 -62 -22 -68 -100 -68 l-44 0 19
-21 c15 -17 27 -20 57 -16 31 4 37 3 33 -10 -21 -53 -19 -61 23 -85 22 -13 41
-26 41 -29 0 -10 -59 -53 -105 -77 -30 -16 -35 -21 -19 -22 22 0 108 42 136
67 16 14 21 13 53 -16 42 -37 65 -40 65 -8 0 14 -13 30 -36 45 -20 13 -33 29
-30 35 3 7 17 41 31 77 15 36 33 70 41 76 18 14 3 29 -39 39 -23 6 -27 4 -27
-14 0 -18 -6 -21 -39 -21 l-40 0 29 85 29 85 -29 15 c-46 24 -51 20 -44 -33z
m94 -194 c-1 -31 -36 -108 -50 -108 -12 0 -70 28 -70 34 0 2 7 20 15 39 11 27
24 39 48 46 50 14 57 13 57 -11z"/>
</g>
</svg>
