<?xml version="1.0" standalone="no"?>
<!DOCTYPE svg PUBLIC "-//W3C//DTD SVG 20010904//EN"
 "http://www.w3.org/TR/2001/REC-SVG-20010904/DTD/svg10.dtd">
<svg version="1.0" xmlns="http://www.w3.org/2000/svg"
 width="96.000000pt" height="68.000000pt" viewBox="0 0 96.000000 68.000000"
 preserveAspectRatio="xMidYMid meet">
<metadata>
Created by potrace 1.16, written by Peter Selinger 2001-2019
</metadata>
<g transform="translate(0.000000,68.000000) scale(0.100000,-0.100000)"
fill="#000000" stroke="none">
<path d="M410 226 l-105 -11 -8 -54 c-5 -35 -4 -58 3 -65 14 -14 30 10 30 46
0 59 5 61 143 73 l67 6 0 -49 c0 -58 -4 -64 -39 -51 -26 10 -26 10 5 -22 26
-26 35 -29 52 -20 15 8 21 25 27 77 10 93 16 90 -175 70z"/>
</g>
</svg>
