<?xml version="1.0" standalone="no"?>
<!DOCTYPE svg PUBLIC "-//W3C//DTD SVG 20010904//EN"
 "http://www.w3.org/TR/2001/REC-SVG-20010904/DTD/svg10.dtd">
<svg version="1.0" xmlns="http://www.w3.org/2000/svg"
 width="90.000000pt" height="92.000000pt" viewBox="0 0 90.000000 92.000000"
 preserveAspectRatio="xMidYMid meet">
<metadata>
Created by potrace 1.16, written by Peter Selinger 2001-2019
</metadata>
<g transform="translate(0.000000,92.000000) scale(0.100000,-0.100000)"
fill="#000000" stroke="none">
<path d="M574 843 c-3 -10 -19 -47 -37 -81 l-32 -64 -39 6 c-37 6 -38 6 -30
-16 5 -13 9 -95 9 -183 0 -184 -12 -169 114 -141 41 9 104 16 140 14 l66 -3
-1 -71 c-2 -82 -16 -134 -45 -160 -17 -15 -24 -16 -51 -6 -18 6 -34 10 -36 7
-2 -2 9 -25 24 -50 35 -55 55 -57 100 -10 33 35 39 55 62 200 6 33 13 70 17
82 6 19 1 25 -29 39 -37 18 -80 16 -273 -12 -41 -6 -43 -5 -43 18 0 24 3 25
92 32 107 8 137 19 97 35 -19 7 -51 6 -108 -3 l-81 -13 0 22 c0 20 7 24 73 33
39 5 83 9 97 9 21 -2 27 6 50 64 14 37 32 74 40 84 13 15 12 19 -9 36 -37 30
-63 32 -129 10 -34 -12 -65 -21 -69 -21 -4 0 19 27 52 61 l60 60 -24 20 c-29
24 -50 24 -57 2z m99 -155 c8 -27 -5 -48 -32 -48 -14 0 -42 -4 -61 -9 -92 -24
-90 -24 -90 7 0 28 3 29 78 44 100 20 100 20 105 6z m-15 -100 c-2 -19 -13
-24 -68 -34 -94 -18 -100 -18 -100 9 0 21 7 25 63 34 103 16 109 16 105 -9z"/>
<path d="M209 833 c0 -5 0 -33 1 -64 1 -61 -6 -69 -73 -69 -49 0 -25 -25 27
-28 38 -3 46 -6 42 -18 -3 -9 -6 -28 -6 -44 0 -26 -3 -29 -50 -35 -31 -4 -55
-3 -63 4 -10 8 -20 -4 -41 -50 -15 -33 -26 -68 -24 -77 6 -33 33 -17 58 34
l24 52 98 16 c53 9 109 16 123 16 25 0 25 -1 10 -30 -8 -16 -15 -31 -15 -34 0
-3 25 6 55 21 30 15 55 33 55 39 0 7 -18 21 -40 32 -38 18 -45 19 -92 6 -29
-7 -54 -12 -55 -10 -2 2 -1 22 3 44 6 39 8 41 55 52 27 7 52 17 55 22 11 17
-19 29 -60 23 -33 -5 -37 -3 -32 11 18 48 17 62 -5 78 -25 17 -48 21 -50 9z"/>
<path d="M210 479 c-30 -10 -65 -18 -77 -18 -13 -1 -23 -5 -23 -10 0 -19 36
-21 82 -4 26 9 51 14 54 10 11 -10 -27 -87 -43 -87 -10 0 -11 -5 -3 -19 5 -11
10 -26 10 -34 0 -20 -81 -47 -137 -47 -49 0 -53 -7 -20 -38 29 -28 30 -28 101
8 33 17 61 28 63 26 3 -2 2 -34 -2 -70 -8 -70 -20 -80 -66 -56 -26 14 -24 5 6
-28 14 -16 31 -37 39 -47 35 -49 71 35 63 148 l-4 68 63 29 c35 16 64 34 64
39 0 15 -12 14 -71 -9 -28 -12 -52 -19 -53 -18 0 2 -6 13 -13 25 -11 19 -9 25
22 51 18 17 42 35 52 40 17 10 17 11 0 30 -26 29 -45 31 -107 11z"/>
<path d="M640 332 c0 -4 11 -24 25 -45 31 -45 55 -49 55 -7 0 23 -7 33 -30 45
-32 16 -50 19 -50 7z"/>
<path d="M550 315 c0 -19 43 -85 55 -85 16 0 20 36 7 56 -12 19 -62 42 -62 29z"/>
<path d="M378 259 c-31 -54 -35 -81 -15 -98 32 -26 75 88 51 132 -7 12 -15 5
-36 -34z"/>
<path d="M460 304 c0 -20 45 -104 54 -101 19 7 9 70 -14 89 -22 18 -40 23 -40
12z"/>
</g>
</svg>
