<?xml version="1.0" standalone="no"?>
<!DOCTYPE svg PUBLIC "-//W3C//DTD SVG 20010904//EN"
 "http://www.w3.org/TR/2001/REC-SVG-20010904/DTD/svg10.dtd">
<svg version="1.0" xmlns="http://www.w3.org/2000/svg"
 width="96.000000pt" height="68.000000pt" viewBox="0 0 96.000000 68.000000"
 preserveAspectRatio="xMidYMid meet">
<metadata>
Created by potrace 1.16, written by Peter Selinger 2001-2019
</metadata>
<g transform="translate(0.000000,68.000000) scale(0.100000,-0.100000)"
fill="#000000" stroke="none">
<path d="M271 229 c16 -31 11 -34 -136 -62 -18 -3 -17 -5 7 -17 23 -11 34 -10
71 4 61 23 67 21 67 -21 0 -55 -10 -66 -46 -53 l-29 11 34 -35 c19 -20 40 -36
47 -36 18 0 34 55 34 116 l0 52 50 17 c28 9 50 21 50 26 0 12 -11 11 -60 -6
-41 -14 -44 -14 -57 5 -8 11 -21 20 -29 20 -12 0 -13 -4 -3 -21z"/>
</g>
</svg>
