<?xml version="1.0" standalone="no"?>
<!DOCTYPE svg PUBLIC "-//W3C//DTD SVG 20010904//EN"
 "http://www.w3.org/TR/2001/REC-SVG-20010904/DTD/svg10.dtd">
<svg version="1.0" xmlns="http://www.w3.org/2000/svg"
 width="96.000000pt" height="68.000000pt" viewBox="0 0 96.000000 68.000000"
 preserveAspectRatio="xMidYMid meet">
<metadata>
Created by potrace 1.16, written by Peter Selinger 2001-2019
</metadata>
<g transform="translate(0.000000,68.000000) scale(0.100000,-0.100000)"
fill="#000000" stroke="none">
<path d="M526 292 c-15 -3 -17 -10 -12 -35 7 -37 26 -53 76 -67 66 -19 206 -8
232 18 7 7 5 23 -3 46 -15 41 -25 45 -34 16 -13 -40 -49 -53 -135 -48 -44 3
-83 8 -87 12 -12 12 20 26 62 26 22 0 47 5 55 11 11 8 -5 9 -57 4 -55 -5 -72
-3 -75 7 -1 8 -11 12 -22 10z"/>
</g>
</svg>
