<?xml version="1.0" standalone="no"?>
<!DOCTYPE svg PUBLIC "-//W3C//DTD SVG 20010904//EN"
 "http://www.w3.org/TR/2001/REC-SVG-20010904/DTD/svg10.dtd">
<svg version="1.0" xmlns="http://www.w3.org/2000/svg"
 width="90.000000pt" height="92.000000pt" viewBox="0 0 90.000000 92.000000"
 preserveAspectRatio="xMidYMid meet">
<metadata>
Created by potrace 1.16, written by Peter Selinger 2001-2019
</metadata>
<g transform="translate(0.000000,92.000000) scale(0.100000,-0.100000)"
fill="#000000" stroke="none">
<path d="M145 808 c15 -47 20 -262 8 -359 -16 -121 -42 -193 -98 -267 -24 -31
-42 -59 -40 -60 7 -8 76 47 105 83 17 21 38 60 47 87 10 26 21 48 24 48 4 0
28 -25 54 -55 25 -30 51 -55 56 -55 14 0 22 47 10 68 -6 11 -36 33 -66 48 -41
20 -54 31 -50 42 3 9 9 50 12 92 l6 76 46 27 c25 14 55 32 66 40 19 15 19 16
1 36 -26 29 -39 26 -60 -14 -10 -19 -28 -42 -39 -52 -19 -18 -19 -17 -13 52 4
39 9 91 12 116 5 41 3 46 -21 57 -14 7 -35 12 -47 12 -17 0 -19 -4 -13 -22z"/>
<path d="M493 772 c-90 -14 -163 -29 -163 -32 0 -15 51 -29 84 -23 l36 6 0
-51 c0 -58 -6 -62 -86 -62 -54 0 -54 0 -40 -22 8 -13 19 -57 25 -98 7 -41 14
-83 17 -92 7 -22 24 -24 24 -2 0 8 4 12 10 9 5 -3 67 -1 137 5 113 10 129 9
139 -5 20 -27 41 -6 68 70 14 40 26 77 26 82 0 4 7 20 14 35 14 26 13 29 -12
49 -28 22 -58 22 -151 3 l-34 -7 8 49 c4 27 12 52 18 56 7 4 40 8 75 8 66 0
76 9 40 34 -28 20 -34 19 -235 -12z m57 -87 c0 -41 -4 -55 -14 -55 -8 0 -22
-3 -32 -7 -15 -6 -17 -1 -11 45 4 37 3 52 -6 53 -13 1 30 16 51 18 8 1 12 -16
12 -54z m160 -93 c0 -16 -5 -53 -11 -83 l-11 -55 -56 0 c-32 0 -99 -3 -149 -8
l-93 -9 0 34 c0 19 -3 50 -6 70 -6 35 -5 37 26 44 17 4 33 5 36 3 2 -3 -2 -24
-10 -46 -9 -23 -12 -42 -7 -42 14 0 49 45 56 71 5 20 14 28 36 31 28 4 29 3
29 -33 0 -44 19 -59 75 -59 23 0 38 5 42 15 8 22 -3 29 -42 27 -38 -3 -46 5
-38 36 6 24 20 29 81 31 40 1 42 0 42 -27z"/>
<path d="M7 574 c-12 -13 57 -104 79 -104 19 0 27 36 14 60 -6 12 -27 28 -45
36 -39 16 -40 16 -48 8z"/>
<path d="M497 394 c-3 -4 -2 -15 4 -26 6 -10 9 -31 7 -46 -3 -25 -7 -27 -60
-32 -31 -3 -60 -9 -64 -13 -16 -16 22 -28 74 -24 33 2 52 0 53 -7 6 -88 17
-81 -143 -92 -60 -4 -108 -11 -108 -16 0 -21 64 -36 110 -27 25 5 143 12 263
16 120 3 220 9 222 13 3 4 -5 16 -16 26 -24 21 -67 24 -198 10 l-83 -8 5 41
c2 23 7 45 11 48 3 3 34 10 68 15 72 10 80 15 53 34 -15 11 -34 13 -74 8 l-54
-7 6 35 c5 31 2 37 -19 47 -28 12 -48 14 -57 5z"/>
</g>
</svg>
