<?xml version="1.0" standalone="no"?>
<!DOCTYPE svg PUBLIC "-//W3C//DTD SVG 20010904//EN"
 "http://www.w3.org/TR/2001/REC-SVG-20010904/DTD/svg10.dtd">
<svg version="1.0" xmlns="http://www.w3.org/2000/svg"
 width="96.000000pt" height="68.000000pt" viewBox="0 0 96.000000 68.000000"
 preserveAspectRatio="xMidYMid meet">
<metadata>
Created by potrace 1.16, written by Peter Selinger 2001-2019
</metadata>
<g transform="translate(0.000000,68.000000) scale(0.100000,-0.100000)"
fill="#000000" stroke="none">
<path d="M654 264 l-29 -37 -32 17 c-61 31 -65 16 -7 -28 33 -24 77 -62 99
-85 36 -37 43 -41 90 -41 58 0 92 15 60 25 -66 22 -126 49 -164 74 l-44 29 38
16 c55 23 68 36 54 52 -18 22 -33 17 -65 -22z"/>
<path d="M464 135 c-1 -114 2 -115 87 -48 63 49 72 69 16 34 -58 -36 -67 -30
-64 42 2 55 0 62 -18 65 -19 3 -20 -3 -21 -93z"/>
</g>
</svg>
