<?xml version="1.0" standalone="no"?>
<!DOCTYPE svg PUBLIC "-//W3C//DTD SVG 20010904//EN"
 "http://www.w3.org/TR/2001/REC-SVG-20010904/DTD/svg10.dtd">
<svg version="1.0" xmlns="http://www.w3.org/2000/svg"
 width="90.000000pt" height="92.000000pt" viewBox="0 0 90.000000 92.000000"
 preserveAspectRatio="xMidYMid meet">
<metadata>
Created by potrace 1.16, written by Peter Selinger 2001-2019
</metadata>
<g transform="translate(0.000000,92.000000) scale(0.100000,-0.100000)"
fill="#000000" stroke="none">
<path d="M436 846 c-4 -18 -25 -59 -47 -90 -22 -31 -36 -56 -32 -56 5 0 27 13
49 29 21 16 55 31 74 34 19 3 46 8 59 13 l25 7 -31 -54 -30 -54 -117 -14 c-64
-8 -116 -18 -116 -22 0 -5 4 -9 10 -9 33 0 17 -211 -26 -339 -23 -70 -68 -159
-112 -221 l-17 -25 32 23 c94 67 146 187 183 423 11 67 20 123 22 124 2 1 20
5 41 9 32 6 37 4 37 -12 0 -10 -13 -38 -28 -63 -15 -24 -32 -50 -36 -58 -17
-28 44 21 78 64 38 46 43 61 24 68 -28 10 4 16 147 27 83 7 152 14 154 15 1 2
0 9 -4 15 -15 24 -54 29 -136 15 -46 -7 -86 -11 -88 -9 -3 2 21 29 52 59 31
31 57 59 57 64 0 5 -13 14 -28 20 -23 10 -36 8 -72 -8 -25 -10 -56 -22 -70
-26 l-25 -7 25 27 25 27 -24 19 c-34 27 -48 24 -55 -15z"/>
<path d="M140 782 c0 -18 73 -92 90 -92 23 0 33 26 19 52 -16 30 -109 64 -109
40z"/>
<path d="M560 591 c0 -61 14 -74 88 -78 63 -4 88 6 78 32 -5 14 -14 16 -49 11
-63 -10 -80 -1 -73 39 5 25 3 34 -10 39 -30 11 -34 6 -34 -43z"/>
<path d="M60 575 c0 -3 19 -26 41 -50 50 -54 79 -59 79 -15 0 23 -7 35 -32 50
-30 18 -88 28 -88 15z"/>
<path d="M480 518 c0 -6 11 -26 24 -43 l25 -32 -90 -13 c-49 -6 -89 -16 -89
-21 0 -21 47 -26 115 -13 39 7 108 16 155 19 47 3 100 8 118 11 34 5 34 6 15
26 -16 18 -26 20 -83 14 -36 -3 -76 -9 -89 -13 -17 -4 -22 -3 -17 6 13 20 -4
49 -36 60 -39 14 -48 14 -48 -1z"/>
<path d="M167 376 c-21 -40 -54 -89 -73 -109 -32 -32 -36 -40 -30 -71 4 -19
15 -45 25 -57 l18 -22 26 74 c14 41 39 112 56 158 17 46 31 88 31 93 0 24 -19
0 -53 -66z"/>
<path d="M510 362 c-87 -18 -87 -19 -72 -34 8 -8 34 -8 101 2 86 12 121 23
110 34 -13 14 -70 13 -139 -2z"/>
<path d="M503 283 c-81 -17 -96 -33 -31 -33 40 0 158 16 188 26 13 4 13 6 0
14 -20 13 -71 11 -157 -7z"/>
<path d="M550 214 c-36 -7 -86 -13 -112 -14 l-47 0 14 -26 c7 -15 16 -49 20
-75 7 -49 21 -71 34 -51 5 8 169 32 218 32 3 0 0 7 -7 15 -10 12 -8 23 15 57
l28 42 -23 18 c-25 21 -49 21 -140 2z m80 -51 c0 -45 -12 -53 -92 -59 -73 -7
-75 -6 -81 17 -4 13 -7 29 -7 36 0 12 79 30 143 32 34 1 37 -1 37 -26z"/>
</g>
</svg>
