<?xml version="1.0" standalone="no"?>
<!DOCTYPE svg PUBLIC "-//W3C//DTD SVG 20010904//EN"
 "http://www.w3.org/TR/2001/REC-SVG-20010904/DTD/svg10.dtd">
<svg version="1.0" xmlns="http://www.w3.org/2000/svg"
 width="96.000000pt" height="68.000000pt" viewBox="0 0 96.000000 68.000000"
 preserveAspectRatio="xMidYMid meet">
<metadata>
Created by potrace 1.16, written by Peter Selinger 2001-2019
</metadata>
<g transform="translate(0.000000,68.000000) scale(0.100000,-0.100000)"
fill="#000000" stroke="none">
<path d="M476 576 c-7 -18 -26 -45 -42 -59 -37 -35 -23 -47 19 -17 29 22 137
46 137 31 0 -4 -9 -17 -20 -31 -46 -58 -10 -53 59 9 53 47 54 49 32 61 -18 9
-32 8 -68 -4 -62 -21 -80 -21 -62 0 11 14 10 18 -6 30 -27 20 -33 18 -49 -20z"/>
</g>
</svg>
