<?xml version="1.0" standalone="no"?>
<!DOCTYPE svg PUBLIC "-//W3C//DTD SVG 20010904//EN"
 "http://www.w3.org/TR/2001/REC-SVG-20010904/DTD/svg10.dtd">
<svg version="1.0" xmlns="http://www.w3.org/2000/svg"
 width="96.000000pt" height="68.000000pt" viewBox="0 0 96.000000 68.000000"
 preserveAspectRatio="xMidYMid meet">
<metadata>
Created by potrace 1.16, written by Peter Selinger 2001-2019
</metadata>
<g transform="translate(0.000000,68.000000) scale(0.100000,-0.100000)"
fill="#000000" stroke="none">
<path d="M282 535 c-16 -59 -70 -149 -132 -217 -28 -32 -48 -58 -43 -58 4 0
29 16 55 35 47 34 110 111 141 172 24 45 31 47 76 21 22 -12 43 -20 47 -16 14
15 -7 37 -44 48 -24 6 -42 17 -45 29 -2 10 -13 20 -24 23 -16 4 -22 -2 -31
-37z"/>
</g>
</svg>
