<?xml version="1.0" standalone="no"?>
<!DOCTYPE svg PUBLIC "-//W3C//DTD SVG 20010904//EN"
 "http://www.w3.org/TR/2001/REC-SVG-20010904/DTD/svg10.dtd">
<svg version="1.0" xmlns="http://www.w3.org/2000/svg"
 width="96.000000pt" height="68.000000pt" viewBox="0 0 96.000000 68.000000"
 preserveAspectRatio="xMidYMid meet">
<metadata>
Created by potrace 1.16, written by Peter Selinger 2001-2019
</metadata>
<g transform="translate(0.000000,68.000000) scale(0.100000,-0.100000)"
fill="#000000" stroke="none">
<path d="M416 460 c6 -26 3 -30 -22 -36 -87 -19 -91 -22 -31 -23 35 -1 57 -5
57 -12 0 -26 36 -38 110 -39 81 0 113 11 93 31 -9 9 -26 9 -73 0 -68 -14 -103
-8 -98 17 2 12 21 20 68 27 76 12 67 29 -13 23 -49 -3 -52 -2 -49 20 3 18 -2
22 -22 22 -23 0 -25 -3 -20 -30z"/>
</g>
</svg>
