<?xml version="1.0" standalone="no"?>
<!DOCTYPE svg PUBLIC "-//W3C//DTD SVG 20010904//EN"
 "http://www.w3.org/TR/2001/REC-SVG-20010904/DTD/svg10.dtd">
<svg version="1.0" xmlns="http://www.w3.org/2000/svg"
 width="90.000000pt" height="92.000000pt" viewBox="0 0 90.000000 92.000000"
 preserveAspectRatio="xMidYMid meet">
<metadata>
Created by potrace 1.16, written by Peter Selinger 2001-2019
</metadata>
<g transform="translate(0.000000,92.000000) scale(0.100000,-0.100000)"
fill="#000000" stroke="none">
<path d="M574 843 c-3 -10 -19 -47 -37 -81 l-32 -64 -39 6 c-37 6 -38 6 -30
-16 5 -13 9 -93 9 -180 0 -86 3 -159 6 -163 4 -3 33 2 65 11 36 11 96 18 154
18 l95 1 -2 -74 c-2 -85 -15 -131 -44 -157 -17 -15 -24 -16 -51 -6 -18 6 -34
9 -37 7 -8 -9 54 -90 72 -93 11 -2 32 11 52 32 34 36 40 55 63 201 6 33 13 70
17 82 6 19 1 25 -29 39 -37 18 -80 16 -273 -12 -41 -6 -43 -5 -43 18 0 24 3
25 92 32 107 8 137 19 97 35 -19 7 -51 6 -108 -3 l-81 -13 0 22 c0 20 7 24 73
33 39 5 83 9 97 9 21 -2 27 6 50 64 14 37 31 74 39 83 18 21 2 41 -45 56 -27
9 -43 9 -77 -4 -23 -8 -55 -18 -72 -21 -26 -6 -23 -1 35 54 l65 61 -24 20
c-29 25 -50 26 -57 3z m99 -155 c8 -27 -5 -48 -32 -48 -14 0 -51 -7 -81 -15
-72 -19 -70 -20 -70 13 0 28 3 29 78 44 100 20 100 20 105 6z m-15 -100 c-2
-19 -13 -24 -68 -34 -94 -18 -100 -18 -100 9 0 21 7 25 63 34 103 16 109 16
105 -9z"/>
<path d="M283 796 c-15 -13 -53 -37 -84 -54 -50 -29 -58 -31 -87 -20 -37 14
-48 7 -33 -20 13 -25 14 -260 1 -317 -5 -22 -12 -51 -15 -65 -4 -15 0 -33 9
-45 14 -20 16 -19 56 20 23 22 56 58 73 80 l32 40 -48 -29 c-27 -15 -51 -25
-55 -21 -5 5 -4 167 1 171 1 1 21 4 44 8 l42 6 11 -42 c21 -80 42 -127 77
-168 66 -77 102 -75 77 3 -8 23 -17 60 -21 82 l-7 40 -5 -38 c-7 -47 -20 -50
-48 -9 -21 32 -50 129 -40 138 3 3 30 8 61 11 31 3 59 10 62 15 9 15 -58 37
-84 27 -41 -16 -45 -12 -38 40 4 30 2 52 -4 56 -20 12 -9 23 38 35 47 13 72
27 72 39 0 4 -13 14 -29 24 -28 17 -30 16 -58 -7z m-79 -118 c9 -34 7 -98 -3
-98 -5 0 -23 -3 -41 -7 l-33 -6 7 54 c4 29 12 59 18 66 17 20 45 15 52 -9z"/>
<path d="M664 298 c28 -46 44 -57 56 -38 18 29 -22 80 -63 80 -16 0 -16 -4 7
-42z"/>
<path d="M570 296 c24 -63 60 -89 60 -43 0 28 -9 41 -37 56 -31 16 -34 14 -23
-13z"/>
<path d="M403 261 c-26 -55 -30 -96 -9 -104 19 -7 31 9 45 58 14 51 14 58 -1
77 -11 14 -16 10 -35 -31z"/>
<path d="M486 288 c26 -87 54 -115 54 -55 0 22 -8 41 -23 55 -30 28 -40 28
-31 0z"/>
<path d="M209 245 c-121 -32 -117 -30 -91 -44 19 -10 36 -9 92 3 38 9 85 16
104 16 20 0 36 4 36 9 0 10 -40 42 -50 40 -3 -1 -44 -11 -91 -24z"/>
</g>
</svg>
