<?xml version="1.0" standalone="no"?>
<!DOCTYPE svg PUBLIC "-//W3C//DTD SVG 20010904//EN"
 "http://www.w3.org/TR/2001/REC-SVG-20010904/DTD/svg10.dtd">
<svg version="1.0" xmlns="http://www.w3.org/2000/svg"
 width="90.000000pt" height="92.000000pt" viewBox="0 0 90.000000 92.000000"
 preserveAspectRatio="xMidYMid meet">
<metadata>
Created by potrace 1.16, written by Peter Selinger 2001-2019
</metadata>
<g transform="translate(0.000000,92.000000) scale(0.100000,-0.100000)"
fill="#000000" stroke="none">
<path d="M210 810 c0 -66 -89 -244 -172 -343 -60 -72 -40 -78 34 -9 51 48 72
62 96 62 28 0 32 -4 38 -36 8 -43 0 -50 -68 -59 -26 -4 -48 -11 -48 -16 0 -14
47 -22 84 -15 l35 7 3 -86 3 -85 -50 -17 c-27 -9 -74 -16 -103 -16 -28 1 -52
-2 -52 -7 0 -4 16 -22 35 -39 l36 -31 52 29 c28 16 88 44 132 61 44 18 86 39
94 46 23 21 4 30 -32 15 -74 -30 -72 -32 -69 62 l3 85 44 7 c73 10 69 38 -5
37 -39 -1 -39 0 -37 37 1 36 3 39 46 50 41 11 43 13 29 28 -15 14 -23 14 -94
-5 -43 -12 -79 -21 -80 -19 -1 1 20 41 45 89 l47 87 44 -44 c53 -54 73 -58 68
-12 -3 27 -10 36 -51 56 -39 19 -46 27 -41 43 4 13 -2 28 -17 44 -31 33 -49
31 -49 -6z"/>
<path d="M480 765 c0 -7 8 -16 18 -20 17 -5 28 -28 47 -101 5 -18 0 -22 -26
-28 -17 -3 -56 -6 -86 -6 -49 0 -54 -2 -47 -17 11 -23 12 -256 1 -348 -7 -56
-6 -74 6 -90 9 -11 19 -16 23 -12 5 4 10 53 12 107 3 74 8 100 17 100 21 0 72
47 107 98 l31 45 19 -62 c21 -68 38 -81 105 -81 l36 0 -5 -71 c-7 -86 -14 -95
-67 -81 -23 5 -41 7 -41 3 0 -4 25 -31 56 -61 l55 -55 25 28 c28 33 28 29 30
267 1 102 3 198 5 214 3 24 -2 33 -28 48 -30 18 -35 18 -91 3 -69 -17 -102
-19 -102 -5 0 5 -9 34 -20 64 -16 43 -27 57 -50 65 -24 8 -30 7 -30 -4z m250
-174 c12 -23 14 -201 2 -201 -26 0 -104 116 -126 187 -6 20 -3 22 41 26 26 2
53 4 60 5 7 1 17 -7 23 -17z m-170 -18 c0 -39 -98 -213 -120 -213 -3 0 -4 47
-2 105 l3 104 42 9 c64 15 77 14 77 -5z"/>
<path d="M311 353 c-7 -21 -15 -44 -18 -51 -3 -8 13 -2 36 13 46 31 48 35 23
58 -25 23 -27 22 -41 -20z"/>
<path d="M90 345 c0 -4 10 -25 22 -46 25 -45 58 -53 58 -15 0 24 -23 56 -40
56 -5 0 -15 3 -24 6 -9 3 -16 3 -16 -1z"/>
</g>
</svg>
