<?xml version="1.0" standalone="no"?>
<!DOCTYPE svg PUBLIC "-//W3C//DTD SVG 20010904//EN"
 "http://www.w3.org/TR/2001/REC-SVG-20010904/DTD/svg10.dtd">
<svg version="1.0" xmlns="http://www.w3.org/2000/svg"
 width="96.000000pt" height="68.000000pt" viewBox="0 0 96.000000 68.000000"
 preserveAspectRatio="xMidYMid meet">
<metadata>
Created by potrace 1.16, written by Peter Selinger 2001-2019
</metadata>
<g transform="translate(0.000000,68.000000) scale(0.100000,-0.100000)"
fill="#000000" stroke="none">
<path d="M388 506 l4 -73 -32 -7 c-38 -7 -36 -15 3 -18 l27 -2 -1 -116 c0 -63
-4 -124 -8 -135 -11 -27 -3 -45 19 -45 19 0 120 85 120 101 0 5 -18 -2 -40
-16 -22 -14 -44 -25 -50 -25 -12 0 -2 206 11 231 5 9 25 20 45 24 44 8 32 29
-16 27 l-31 -1 6 54 c7 53 6 55 -20 65 -14 5 -30 10 -34 10 -4 0 -6 -33 -3
-74z"/>
</g>
</svg>
