<?xml version="1.0" standalone="no"?>
<!DOCTYPE svg PUBLIC "-//W3C//DTD SVG 20010904//EN"
 "http://www.w3.org/TR/2001/REC-SVG-20010904/DTD/svg10.dtd">
<svg version="1.0" xmlns="http://www.w3.org/2000/svg"
 width="96.000000pt" height="68.000000pt" viewBox="0 0 96.000000 68.000000"
 preserveAspectRatio="xMidYMid meet">
<metadata>
Created by potrace 1.16, written by Peter Selinger 2001-2019
</metadata>
<g transform="translate(0.000000,68.000000) scale(0.100000,-0.100000)"
fill="#000000" stroke="none">
<path d="M414 603 c-15 -49 -43 -89 -93 -132 -64 -55 -173 -131 -188 -131 -6
0 -16 -7 -23 -15 -23 -27 18 -17 115 29 61 29 117 65 167 109 l75 65 37 -30
c21 -17 33 -35 29 -41 -3 -7 -2 -9 2 -4 5 4 39 -23 77 -59 l69 -67 76 6 c42 3
80 10 85 15 5 5 -29 23 -89 46 -54 20 -117 51 -140 69 -23 18 -60 45 -83 62
-22 16 -38 35 -36 42 6 14 -39 53 -61 53 -7 0 -16 -8 -19 -17z"/>
<path d="M540 211 c8 -252 46 -238 52 19 l3 135 -30 3 -30 3 5 -160z"/>
<path d="M318 298 c5 -76 -26 -179 -66 -220 -42 -45 -19 -42 30 4 54 51 73 93
87 190 11 77 7 88 -34 88 -19 0 -21 -5 -17 -62z"/>
</g>
</svg>
