<?xml version="1.0" standalone="no"?>
<!DOCTYPE svg PUBLIC "-//W3C//DTD SVG 20010904//EN"
 "http://www.w3.org/TR/2001/REC-SVG-20010904/DTD/svg10.dtd">
<svg version="1.0" xmlns="http://www.w3.org/2000/svg"
 width="90.000000pt" height="92.000000pt" viewBox="0 0 90.000000 92.000000"
 preserveAspectRatio="xMidYMid meet">
<metadata>
Created by potrace 1.16, written by Peter Selinger 2001-2019
</metadata>
<g transform="translate(0.000000,92.000000) scale(0.100000,-0.100000)"
fill="#000000" stroke="none">
<path d="M525 858 c9 -28 14 -119 18 -315 l2 -153 -40 -2 c-22 -1 -50 -2 -62
-3 -39 -2 -38 -14 3 -49 22 -19 57 -54 77 -79 l36 -45 -38 -26 c-21 -15 -69
-40 -107 -56 -58 -25 -64 -30 -38 -30 40 0 141 35 177 61 l29 21 46 -50 c26
-28 59 -54 75 -57 39 -10 177 17 177 34 0 5 -30 16 -66 25 -72 18 -184 70
-184 86 0 5 20 44 45 86 25 43 44 83 41 90 -8 21 -52 27 -98 16 -23 -6 -44
-10 -45 -8 -2 1 1 25 6 52 5 27 11 127 13 222 l3 174 -25 13 c-38 22 -54 19
-45 -7z m97 -530 c-36 -89 -37 -89 -87 -34 -24 28 -43 51 -41 53 5 6 88 21
118 22 l28 1 -18 -42z"/>
<path d="M158 785 c-3 -3 -2 -25 3 -48 7 -40 -4 -174 -20 -234 -7 -27 -10 -28
-74 -31 -72 -3 -83 -14 -47 -47 18 -16 26 -17 61 -8 39 10 40 10 34 -11 -19
-62 -19 -64 29 -97 25 -18 46 -38 46 -44 0 -16 -68 -79 -124 -114 -33 -20 -43
-31 -30 -31 34 1 108 40 150 81 l41 40 33 -38 c45 -52 57 -57 70 -34 15 28 -2
65 -44 93 -29 20 -33 26 -23 43 6 11 21 54 33 95 18 62 26 78 50 90 28 14 28
15 7 18 -13 2 -23 10 -23 17 0 8 -14 22 -31 31 -36 18 -49 8 -41 -32 5 -25 0
-28 -54 -38 l-32 -5 30 112 c45 166 45 153 7 176 -36 22 -43 24 -51 16z m102
-338 c0 -18 -28 -109 -38 -125 -7 -11 -16 -10 -45 4 -38 18 -44 33 -30 83 10
37 113 72 113 38z"/>
<path d="M415 726 c-20 -27 -35 -36 -56 -36 l-28 0 18 -32 c11 -18 24 -72 31
-120 7 -49 18 -92 26 -99 8 -7 14 -7 14 -2 0 6 18 13 40 17 26 4 40 11 40 21
0 17 -18 19 -53 6 -24 -10 -25 -8 -29 40 -3 49 -3 49 28 49 30 0 54 15 54 33
0 6 -19 7 -44 4 -39 -6 -44 -4 -50 16 -12 45 -7 57 34 73 45 18 48 24 21 48
-18 17 -20 16 -46 -18z"/>
<path d="M700 735 c-14 -8 -35 -14 -47 -15 -13 0 -23 -4 -23 -9 0 -15 29 -21
57 -10 38 14 55 5 49 -28 -2 -16 -5 -31 -5 -35 -1 -3 -23 -11 -51 -18 -70 -17
-64 -43 8 -32 26 4 32 1 32 -14 0 -39 -13 -62 -36 -68 -12 -3 -36 -11 -51 -17
-36 -14 -13 -29 34 -22 21 4 33 2 33 -6 0 -6 9 -11 20 -11 16 0 24 16 44 83
14 45 28 94 32 110 3 15 10 30 15 33 20 12 7 41 -26 57 -43 20 -52 21 -85 2z"/>
</g>
</svg>
