<?xml version="1.0" standalone="no"?>
<!DOCTYPE svg PUBLIC "-//W3C//DTD SVG 20010904//EN"
 "http://www.w3.org/TR/2001/REC-SVG-20010904/DTD/svg10.dtd">
<svg version="1.0" xmlns="http://www.w3.org/2000/svg"
 width="96.000000pt" height="68.000000pt" viewBox="0 0 96.000000 68.000000"
 preserveAspectRatio="xMidYMid meet">
<metadata>
Created by potrace 1.16, written by Peter Selinger 2001-2019
</metadata>
<g transform="translate(0.000000,68.000000) scale(0.100000,-0.100000)"
fill="#000000" stroke="none">
<path d="M400 521 c0 -28 -3 -31 -30 -31 -16 0 -30 -4 -30 -10 0 -5 14 -10 31
-10 26 0 29 -3 24 -20 -5 -16 -2 -20 14 -20 15 0 21 6 21 24 0 26 16 36 57 36
22 0 25 -4 21 -25 -4 -17 -1 -25 9 -25 16 0 52 39 53 56 0 18 -42 25 -81 14
-19 -6 -35 -10 -36 -10 -1 0 -3 10 -5 23 -2 14 -11 23 -25 25 -20 3 -23 -1
-23 -27z"/>
</g>
</svg>
