<?xml version="1.0" standalone="no"?>
<!DOCTYPE svg PUBLIC "-//W3C//DTD SVG 20010904//EN"
 "http://www.w3.org/TR/2001/REC-SVG-20010904/DTD/svg10.dtd">
<svg version="1.0" xmlns="http://www.w3.org/2000/svg"
 width="96.000000pt" height="68.000000pt" viewBox="0 0 96.000000 68.000000"
 preserveAspectRatio="xMidYMid meet">
<metadata>
Created by potrace 1.16, written by Peter Selinger 2001-2019
</metadata>
<g transform="translate(0.000000,68.000000) scale(0.100000,-0.100000)"
fill="#000000" stroke="none">
<path d="M600 590 c-30 -4 -134 -11 -231 -15 l-177 -8 10 -36 c12 -41 4 -330
-11 -400 -13 -66 13 -114 43 -77 8 11 58 16 218 21 l208 7 17 -31 c22 -37 37
-39 59 -6 14 21 16 54 13 242 -2 120 -1 232 4 248 6 24 4 32 -12 42 -27 17
-78 22 -141 13z m81 -65 c4 -16 7 -118 8 -225 l1 -195 -87 0 c-49 0 -150 -4
-226 -9 l-139 -9 7 219 c4 120 10 222 14 226 10 11 190 26 306 24 l110 -1 6
-30z"/>
</g>
</svg>
