<?xml version="1.0" standalone="no"?>
<!DOCTYPE svg PUBLIC "-//W3C//DTD SVG 20010904//EN"
 "http://www.w3.org/TR/2001/REC-SVG-20010904/DTD/svg10.dtd">
<svg version="1.0" xmlns="http://www.w3.org/2000/svg"
 width="96.000000pt" height="68.000000pt" viewBox="0 0 96.000000 68.000000"
 preserveAspectRatio="xMidYMid meet">
<metadata>
Created by potrace 1.16, written by Peter Selinger 2001-2019
</metadata>
<g transform="translate(0.000000,68.000000) scale(0.100000,-0.100000)"
fill="#000000" stroke="none">
<path d="M570 204 c0 -3 30 -37 67 -75 65 -68 67 -69 117 -69 83 0 87 15 11
40 -37 12 -96 42 -131 66 -35 24 -64 41 -64 38z"/>
<path d="M372 134 c-34 -35 -60 -64 -57 -64 15 0 83 41 101 62 23 25 41 69 27
67 -4 -1 -36 -30 -71 -65z"/>
</g>
</svg>
