<?xml version="1.0" standalone="no"?>
<!DOCTYPE svg PUBLIC "-//W3C//DTD SVG 20010904//EN"
 "http://www.w3.org/TR/2001/REC-SVG-20010904/DTD/svg10.dtd">
<svg version="1.0" xmlns="http://www.w3.org/2000/svg"
 width="90.000000pt" height="92.000000pt" viewBox="0 0 90.000000 92.000000"
 preserveAspectRatio="xMidYMid meet">
<metadata>
Created by potrace 1.16, written by Peter Selinger 2001-2019
</metadata>
<g transform="translate(0.000000,92.000000) scale(0.100000,-0.100000)"
fill="#000000" stroke="none">
<path d="M174 828 c4 -18 9 -74 13 -124 l5 -92 -71 -12 c-63 -10 -70 -14 -59
-27 9 -12 26 -14 70 -10 l58 5 0 -68 0 -68 -57 -37 c-32 -19 -75 -43 -95 -52
-21 -9 -38 -20 -38 -24 0 -11 51 -49 66 -49 7 0 17 6 21 13 5 6 30 32 56 57
l47 45 -6 -90 c-8 -114 -12 -120 -63 -116 l-41 3 54 -56 c29 -31 56 -56 59
-56 4 0 13 13 22 30 11 22 15 63 15 172 l0 142 42 43 c29 30 37 43 26 43 -9 0
-20 -4 -23 -10 -3 -5 -15 -15 -26 -20 -18 -10 -19 -7 -19 48 l0 58 45 12 c25
7 45 16 45 22 0 16 -39 32 -62 24 -20 -6 -21 -4 -15 62 4 38 9 81 13 96 5 23
1 30 -27 47 -50 30 -63 28 -55 -11z"/>
<path d="M665 804 c-17 -8 -45 -11 -65 -8 l-35 5 -2 -88 c-3 -117 1 -131 42
-149 57 -24 192 -9 202 23 9 26 -34 33 -97 17 -80 -20 -110 -13 -110 25 0 31
1 32 98 46 35 6 41 10 32 21 -9 10 -6 23 11 54 23 41 23 42 4 56 -23 17 -41
17 -80 -2z m26 -36 c-1 -5 -1 -19 -1 -32 0 -21 -6 -25 -41 -31 -22 -4 -43 -5
-46 -2 -12 13 15 62 38 68 29 9 50 7 50 -3z"/>
<path d="M446 784 c-19 -11 -41 -14 -65 -10 l-36 5 0 -147 c0 -114 3 -147 13
-147 15 0 153 97 147 103 -2 3 -22 -3 -45 -12 -66 -26 -80 -22 -80 23 l0 39
65 7 c58 6 65 9 60 25 -3 10 1 35 10 55 20 49 19 50 -10 63 -31 14 -24 15 -59
-4z m18 -71 c-6 -18 -20 -30 -42 -37 -18 -5 -34 -7 -36 -5 -2 2 -1 19 1 37 4
26 11 34 37 41 40 11 53 -1 40 -36z"/>
<path d="M606 490 l7 -50 -30 0 c-17 0 -45 -3 -62 -6 -29 -6 -31 -5 -31 24 0
33 -29 58 -56 48 -11 -4 -12 -10 -3 -30 17 -36 5 -56 -33 -56 -31 -1 -32 -1
-14 -15 11 -8 30 -15 43 -15 20 0 23 -5 23 -39 0 -38 0 -38 -46 -45 -26 -3
-66 -6 -90 -6 -52 0 -57 -16 -11 -35 24 -10 44 -11 77 -4 25 5 141 12 258 16
187 5 213 8 210 22 -6 30 -48 41 -130 34 -72 -5 -78 -4 -78 13 0 48 11 62 53
69 23 4 48 11 56 15 21 12 -24 33 -60 28 -26 -4 -27 -2 -22 23 4 20 -1 30 -18
43 -41 29 -50 22 -43 -34z m-6 -130 l0 -40 -55 0 -55 0 0 40 0 40 55 0 55 0 0
-40z"/>
<path d="M430 231 c0 -11 -31 -48 -71 -85 -39 -36 -65 -66 -57 -66 17 0 116
64 168 108 29 26 32 32 21 46 -19 23 -61 21 -61 -3z"/>
<path d="M610 220 c0 -5 4 -10 8 -10 5 0 22 -19 39 -42 70 -96 103 -113 103
-53 0 40 -25 68 -85 96 -45 21 -65 24 -65 9z"/>
</g>
</svg>
