<?xml version="1.0" standalone="no"?>
<!DOCTYPE svg PUBLIC "-//W3C//DTD SVG 20010904//EN"
 "http://www.w3.org/TR/2001/REC-SVG-20010904/DTD/svg10.dtd">
<svg version="1.0" xmlns="http://www.w3.org/2000/svg"
 width="96.000000pt" height="68.000000pt" viewBox="0 0 96.000000 68.000000"
 preserveAspectRatio="xMidYMid meet">
<metadata>
Created by potrace 1.16, written by Peter Selinger 2001-2019
</metadata>
<g transform="translate(0.000000,68.000000) scale(0.100000,-0.100000)"
fill="#000000" stroke="none">
<path d="M252 578 c-5 -7 -16 -29 -25 -48 -8 -19 -35 -58 -60 -86 -41 -45 -45
-53 -33 -69 11 -16 18 -16 46 -7 18 7 39 12 47 12 16 0 8 -11 -47 -66 -27 -27
-32 -36 -22 -46 10 -10 26 -8 75 10 35 12 74 21 86 20 43 -5 36 33 -8 47 -17
5 -22 4 -19 -6 7 -19 -21 -38 -56 -39 -27 0 -26 3 45 76 76 77 95 119 54 119
-13 0 -21 -8 -23 -22 -4 -30 -48 -63 -83 -63 -16 0 -29 3 -29 8 1 4 25 34 55
67 30 33 54 64 52 69 -2 5 -12 15 -24 23 -16 11 -22 11 -31 1z"/>
<path d="M520 582 c0 -5 7 -17 15 -28 21 -28 19 -31 -22 -38 -78 -14 -93 -18
-93 -27 0 -5 9 -9 19 -9 26 0 68 -70 49 -81 -18 -12 -62 -11 -74 1 -7 7 -16
-3 -28 -31 -14 -31 -15 -43 -6 -52 9 -9 15 -7 26 7 8 11 14 25 14 32 0 6 17
14 38 18 69 11 72 10 72 -32 0 -42 2 -41 -74 -42 -37 -1 -38 -2 -32 -32 3 -17
6 -46 6 -64 0 -22 5 -34 14 -34 16 0 26 30 26 78 0 21 5 32 14 32 8 0 21 2 29
6 12 4 15 -17 20 -121 5 -134 19 -179 32 -103 11 63 14 95 14 171 l1 68 43 -3
c41 -3 42 -4 45 -41 4 -45 -11 -67 -38 -60 -27 7 -25 -5 6 -33 20 -19 29 -22
44 -14 26 14 31 24 35 68 1 20 6 49 10 64 6 24 3 29 -19 38 -16 6 -44 6 -72 1
-49 -9 -63 1 -50 36 4 9 2 20 -5 23 -6 4 18 13 53 19 108 19 121 15 98 -30 -6
-10 -8 -19 -5 -19 13 0 95 43 95 50 0 4 -16 15 -35 24 -30 15 -43 15 -95 5
-33 -6 -64 -8 -68 -4 -4 4 -1 10 6 12 22 8 35 43 21 59 -9 11 -8 14 8 14 10 0
28 6 39 14 18 14 18 15 -9 21 -16 4 -39 3 -53 -4 -33 -14 -34 -14 -34 7 0 11
-11 24 -25 30 -30 14 -55 15 -55 4z m90 -88 c0 -4 -5 -24 -12 -45 -9 -32 -16
-39 -37 -39 -23 0 -45 22 -69 72 -2 4 14 8 35 10 21 2 48 4 61 5 12 2 22 0 22
-3z"/>
<path d="M300 264 c0 -16 23 -44 35 -44 22 0 18 28 -4 40 -22 11 -31 13 -31 4z"/>
<path d="M210 231 c0 -5 9 -19 19 -32 16 -19 22 -21 32 -12 10 10 9 17 -6 33
-19 20 -45 27 -45 11z"/>
<path d="M110 202 c0 -14 44 -75 55 -76 15 -1 17 37 2 55 -14 19 -57 35 -57
21z"/>
</g>
</svg>
