<?xml version="1.0" standalone="no"?>
<!DOCTYPE svg PUBLIC "-//W3C//DTD SVG 20010904//EN"
 "http://www.w3.org/TR/2001/REC-SVG-20010904/DTD/svg10.dtd">
<svg version="1.0" xmlns="http://www.w3.org/2000/svg"
 width="96.000000pt" height="68.000000pt" viewBox="0 0 96.000000 68.000000"
 preserveAspectRatio="xMidYMid meet">
<metadata>
Created by potrace 1.16, written by Peter Selinger 2001-2019
</metadata>
<g transform="translate(0.000000,68.000000) scale(0.100000,-0.100000)"
fill="#000000" stroke="none">
<path d="M275 542 c-9 -55 -56 -131 -126 -207 -62 -65 -66 -75 -26 -54 52 28
102 77 149 148 28 42 52 78 54 80 1 1 18 -9 37 -23 38 -29 57 -33 57 -12 0 18
-19 33 -53 41 -15 4 -27 13 -27 21 0 12 -37 44 -51 44 -4 0 -10 -17 -14 -38z"/>
</g>
</svg>
