<?xml version="1.0" standalone="no"?>
<!DOCTYPE svg PUBLIC "-//W3C//DTD SVG 20010904//EN"
 "http://www.w3.org/TR/2001/REC-SVG-20010904/DTD/svg10.dtd">
<svg version="1.0" xmlns="http://www.w3.org/2000/svg"
 width="90.000000pt" height="92.000000pt" viewBox="0 0 90.000000 92.000000"
 preserveAspectRatio="xMidYMid meet">
<metadata>
Created by potrace 1.16, written by Peter Selinger 2001-2019
</metadata>
<g transform="translate(0.000000,92.000000) scale(0.100000,-0.100000)"
fill="#000000" stroke="none">
<path d="M503 863 c2 -35 0 -38 -28 -41 -87 -8 -98 -32 -14 -32 35 0 49 -4 49
-14 0 -17 -31 -26 -89 -26 -33 0 -41 -3 -34 -12 6 -7 16 -30 23 -51 8 -25 17
-37 25 -33 8 3 30 8 49 12 29 5 36 3 36 -10 0 -17 -17 -22 -107 -30 -52 -5
-62 -3 -68 12 -5 13 -13 4 -35 -38 -32 -60 -36 -85 -18 -96 14 -9 58 40 58 64
0 14 23 22 128 41 158 29 292 39 292 22 0 -7 -7 -25 -14 -40 l-15 -28 62 17
c33 9 63 22 65 29 6 17 -56 71 -82 71 -11 0 -68 -9 -125 -20 -57 -11 -106 -18
-109 -16 -2 3 -2 12 1 20 4 10 24 16 62 18 30 2 55 7 54 11 0 5 11 22 26 37
l27 28 -30 16 c-22 12 -38 13 -63 6 -47 -14 -69 -12 -69 4 0 8 13 17 30 20 17
3 44 9 61 12 53 10 27 29 -36 26 -50 -2 -56 0 -51 14 9 22 -11 44 -40 44 -21
0 -23 -4 -21 -37z m147 -122 c0 -13 -16 -22 -56 -31 -31 -7 -34 -6 -34 16 0
22 4 24 45 24 25 0 45 -4 45 -9z m-139 -14 c-1 -4 -1 -14 -1 -23 0 -22 -74
-15 -78 8 -2 12 5 18 30 21 41 5 50 4 49 -6z"/>
<path d="M148 844 c-4 -3 -3 -18 2 -33 4 -16 9 -66 11 -112 l4 -84 -74 -14
c-67 -13 -72 -15 -55 -28 14 -10 34 -12 77 -8 l58 7 -5 -28 c-2 -16 -5 -46 -5
-67 -1 -37 -2 -38 -81 -75 -85 -40 -100 -63 -56 -84 22 -10 30 -6 74 31 28 22
53 41 56 41 8 0 7 -136 -2 -185 -8 -41 -15 -45 -61 -30 -21 6 -19 1 20 -49 24
-31 47 -56 51 -56 4 0 16 12 25 27 16 24 18 47 15 177 l-4 149 39 34 c37 33
31 39 -19 18 -16 -6 -18 -1 -18 49 l0 55 40 11 c21 6 42 14 44 19 10 16 -23
33 -50 27 l-26 -7 5 63 c4 35 9 77 13 95 5 28 3 33 -24 47 -33 17 -45 19 -54
10z"/>
<path d="M645 590 c-11 -5 -39 -9 -61 -9 l-42 -1 13 -42 c9 -34 17 -43 34 -42
96 3 103 4 98 18 -3 8 3 26 14 40 20 25 20 25 0 35 -23 13 -29 13 -56 1z m15
-39 c0 -21 -19 -31 -56 -31 -17 0 -24 6 -24 19 0 19 9 23 68 30 6 0 12 -8 12
-18z"/>
<path d="M445 564 c-17 -7 -43 -11 -60 -7 -27 5 -28 4 -16 -11 7 -9 17 -31 20
-49 4 -17 9 -31 11 -30 3 1 29 5 57 9 29 3 50 11 47 16 -3 5 0 23 6 39 7 16
11 31 9 33 -14 12 -48 12 -74 0z m25 -43 c0 -20 -46 -36 -56 -19 -11 17 6 38
31 38 18 0 25 -5 25 -19z"/>
<path d="M590 456 c0 -20 -6 -24 -47 -30 -36 -5 -49 -3 -56 9 -4 8 -19 15 -33
15 -21 0 -24 -4 -19 -20 6 -17 2 -20 -29 -20 -49 0 -46 -18 4 -26 48 -8 54
-32 10 -40 -38 -8 -39 -24 -1 -24 24 0 41 -14 41 -35 0 -2 -36 -7 -80 -11 -44
-3 -80 -10 -80 -14 0 -15 55 -26 100 -20 l44 7 -45 -41 c-25 -23 -72 -56 -105
-74 l-59 -33 39 5 c21 3 60 17 87 31 l49 25 1 -27 c1 -16 0 -42 -1 -59 -1 -18
4 -35 9 -39 12 -7 145 104 137 113 -3 2 -21 -5 -41 -17 -52 -30 -62 -27 -67
20 -3 34 0 44 19 56 13 9 23 21 23 28 0 18 26 23 178 31 93 4 132 10 132 19 0
14 -44 36 -62 31 -7 -3 -34 -7 -60 -10 -43 -5 -48 -3 -48 14 0 15 8 19 38 22
46 4 49 22 5 26 -24 2 -33 8 -33 21 0 14 10 20 41 24 22 3 44 8 47 12 10 10
-20 25 -53 25 -16 0 -39 7 -49 15 -28 21 -36 19 -36 -9z m0 -76 c0 -15 -7 -20
-27 -20 -16 0 -38 -3 -50 -6 -18 -5 -23 -2 -23 14 0 17 8 22 38 25 20 2 43 4
50 5 6 1 12 -7 12 -18z m-2 -67 c-4 -24 -98 -32 -98 -9 0 16 19 23 68 25 27 1
33 -3 30 -16z"/>
<path d="M679 233 c-20 -53 -28 -56 -76 -27 -25 14 -47 23 -50 20 -5 -5 23
-32 145 -141 40 -36 45 -37 92 -31 28 4 60 10 72 15 20 7 19 9 -17 21 -59 18
-175 72 -175 80 0 4 18 15 40 24 42 17 45 37 9 56 -26 14 -28 13 -40 -17z"/>
</g>
</svg>
