<?xml version="1.0" standalone="no"?>
<!DOCTYPE svg PUBLIC "-//W3C//DTD SVG 20010904//EN"
 "http://www.w3.org/TR/2001/REC-SVG-20010904/DTD/svg10.dtd">
<svg version="1.0" xmlns="http://www.w3.org/2000/svg"
 width="90.000000pt" height="92.000000pt" viewBox="0 0 90.000000 92.000000"
 preserveAspectRatio="xMidYMid meet">
<metadata>
Created by potrace 1.16, written by Peter Selinger 2001-2019
</metadata>
<g transform="translate(0.000000,92.000000) scale(0.100000,-0.100000)"
fill="#000000" stroke="none">
<path d="M627 840 c-16 -5 -76 -16 -133 -26 -99 -16 -104 -18 -97 -38 12 -32
5 -172 -13 -261 -18 -92 -64 -211 -105 -272 -38 -57 -20 -54 30 4 47 55 92
164 111 268 15 82 21 96 31 69 11 -27 11 -108 0 -137 -12 -31 -3 -67 16 -67
15 0 135 101 129 108 -2 2 -21 -4 -41 -12 -21 -9 -41 -16 -46 -16 -12 0 -11
137 0 145 6 3 57 11 116 17 105 12 122 21 77 44 -15 8 -43 6 -104 -6 -168 -34
-158 -34 -158 -7 0 22 6 24 116 42 63 10 117 22 120 27 3 4 -6 12 -20 18 -18
7 -50 4 -113 -10 -48 -10 -89 -17 -91 -15 -3 2 -2 15 2 28 5 22 15 26 69 36
35 6 77 11 93 11 46 0 104 12 104 21 0 7 -54 40 -62 38 -2 0 -16 -5 -31 -9z"/>
<path d="M170 833 c0 -5 20 -28 44 -52 49 -49 79 -52 84 -9 3 21 -3 30 -25 42
-37 18 -103 31 -103 19z"/>
<path d="M180 650 c-25 -10 -71 -22 -102 -26 -39 -4 -58 -11 -58 -20 0 -26 51
-28 122 -5 38 13 72 20 75 17 8 -7 -97 -164 -161 -239 -31 -37 -56 -69 -56
-72 0 -14 50 23 113 83 l67 65 0 -88 c0 -49 -5 -114 -12 -146 -9 -45 -9 -63 1
-88 29 -69 41 -34 48 147 3 78 8 142 9 142 2 0 19 -17 39 -37 29 -32 36 -35
45 -23 15 23 13 30 -24 65 l-34 32 39 22 c45 26 47 31 18 57 -17 16 -22 16
-29 4 -6 -8 -10 -19 -10 -25 0 -5 -9 -21 -20 -35 -20 -24 -21 -24 -35 -6 -13
17 -11 23 14 60 16 22 38 50 50 60 29 26 26 43 -9 61 -34 18 -33 18 -90 -5z"/>
<path d="M696 593 c-27 -53 -38 -56 -97 -29 -29 14 -55 23 -58 21 -2 -3 -2 -6
0 -8 19 -14 159 -126 179 -144 29 -27 48 -29 57 -7 7 18 -27 56 -76 86 l-34
21 44 17 c49 19 55 35 22 57 -20 14 -23 13 -37 -14z"/>
<path d="M636 413 c-3 -3 -3 -16 0 -28 6 -26 5 -26 -159 -46 -53 -6 -100 -15
-102 -19 -13 -20 54 -27 140 -14 145 22 135 26 135 -60 0 -40 -3 -88 -6 -106
-7 -32 -8 -32 -51 -27 l-45 5 43 -44 c24 -24 47 -44 51 -44 4 0 16 10 28 22
18 20 20 35 20 150 l0 128 75 0 c59 0 75 3 75 15 0 25 -39 37 -97 30 -35 -4
-53 -3 -49 3 9 16 -44 48 -58 35z"/>
<path d="M476 263 c-7 -8 43 -81 62 -88 29 -11 44 42 18 64 -17 15 -73 31 -80
24z"/>
</g>
</svg>
