<?xml version="1.0" standalone="no"?>
<!DOCTYPE svg PUBLIC "-//W3C//DTD SVG 20010904//EN"
 "http://www.w3.org/TR/2001/REC-SVG-20010904/DTD/svg10.dtd">
<svg version="1.0" xmlns="http://www.w3.org/2000/svg"
 width="90.000000pt" height="92.000000pt" viewBox="0 0 90.000000 92.000000"
 preserveAspectRatio="xMidYMid meet">
<metadata>
Created by potrace 1.16, written by Peter Selinger 2001-2019
</metadata>
<g transform="translate(0.000000,92.000000) scale(0.100000,-0.100000)"
fill="#000000" stroke="none">
<path d="M707 843 c-3 -4 2 -39 10 -78 12 -56 14 -116 9 -305 -3 -129 -9 -245
-12 -258 -6 -22 -10 -23 -55 -17 -27 4 -48 3 -48 -2 1 -4 29 -34 64 -66 l62
-58 18 28 c16 24 19 57 21 298 1 148 7 293 13 320 6 28 14 62 17 76 4 20 0 29
-19 42 -32 20 -73 31 -80 20z"/>
<path d="M150 757 c0 -7 16 -32 36 -55 49 -58 93 -56 78 3 -6 26 -37 47 -86
59 -20 4 -28 3 -28 -7z"/>
<path d="M396 712 c-87 -23 -96 -27 -80 -39 10 -7 27 -13 37 -13 17 0 19 -5
13 -32 -9 -44 -61 -154 -92 -195 -24 -32 -19 -48 6 -18 18 22 26 19 51 -22 12
-21 29 -43 37 -50 13 -11 13 -16 -3 -40 -10 -15 -43 -54 -73 -85 -30 -32 -51
-58 -45 -58 23 0 104 65 142 114 52 67 153 254 145 268 -13 20 -49 25 -93 11
-64 -19 -65 -18 -37 32 24 45 26 74 2 76 -6 0 22 9 62 18 85 21 94 28 68 47
-23 17 -16 17 -140 -14z m69 -209 c-3 -15 -18 -51 -32 -80 l-25 -53 -27 28
c-14 16 -36 32 -49 36 -22 7 -22 7 9 46 24 30 40 40 68 43 20 2 42 4 50 5 10
2 11 -5 6 -25z"/>
<path d="M578 624 c-3 -3 -2 -22 3 -42 5 -20 9 -77 9 -127 0 -49 5 -97 10
-105 20 -31 30 14 30 141 0 107 -3 128 -16 133 -19 7 -29 8 -36 0z"/>
<path d="M69 562 c18 -34 72 -82 92 -82 14 0 19 7 19 30 0 35 -26 55 -84 66
-36 6 -38 6 -27 -14z"/>
<path d="M179 389 c-23 -46 -54 -98 -70 -116 -29 -34 -29 -57 0 -112 18 -32
27 -26 40 27 7 26 28 98 48 160 19 62 33 116 30 119 -3 3 -25 -33 -48 -78z"/>
</g>
</svg>
