<?xml version="1.0" standalone="no"?>
<!DOCTYPE svg PUBLIC "-//W3C//DTD SVG 20010904//EN"
 "http://www.w3.org/TR/2001/REC-SVG-20010904/DTD/svg10.dtd">
<svg version="1.0" xmlns="http://www.w3.org/2000/svg"
 width="96.000000pt" height="68.000000pt" viewBox="0 0 96.000000 68.000000"
 preserveAspectRatio="xMidYMid meet">
<metadata>
Created by potrace 1.16, written by Peter Selinger 2001-2019
</metadata>
<g transform="translate(0.000000,68.000000) scale(0.100000,-0.100000)"
fill="#000000" stroke="none">
<path d="M714 603 c-9 -3 -8 -17 3 -51 12 -37 14 -85 10 -231 -3 -101 -10
-188 -15 -193 -6 -6 -24 -6 -48 1 l-39 10 48 -44 c27 -25 55 -45 62 -45 25 0
34 58 38 255 3 135 9 211 18 232 7 18 11 35 8 37 -11 12 -75 33 -85 29z"/>
</g>
</svg>
