<?xml version="1.0" standalone="no"?>
<!DOCTYPE svg PUBLIC "-//W3C//DTD SVG 20010904//EN"
 "http://www.w3.org/TR/2001/REC-SVG-20010904/DTD/svg10.dtd">
<svg version="1.0" xmlns="http://www.w3.org/2000/svg"
 width="96.000000pt" height="68.000000pt" viewBox="0 0 96.000000 68.000000"
 preserveAspectRatio="xMidYMid meet">
<metadata>
Created by potrace 1.16, written by Peter Selinger 2001-2019
</metadata>
<g transform="translate(0.000000,68.000000) scale(0.100000,-0.100000)"
fill="#000000" stroke="none">
<path d="M216 588 c14 -40 16 -250 3 -353 -15 -124 -14 -155 6 -174 35 -36 53
48 54 258 l1 104 23 -21 c29 -27 53 -28 60 -2 6 22 -8 32 -55 44 -31 7 -32 15
-18 86 8 40 7 47 -12 63 -11 9 -31 17 -45 17 -22 0 -24 -3 -17 -22z"/>
<path d="M490 560 c0 -5 6 -10 13 -10 6 0 35 -25 62 -56 134 -151 137 -154
186 -153 24 1 55 4 69 8 22 6 17 10 -45 36 -68 29 -138 77 -220 149 -40 35
-65 45 -65 26z"/>
<path d="M425 433 c-9 -20 -31 -56 -50 -79 -41 -49 -44 -59 -13 -43 34 18 128
110 128 125 0 12 -29 34 -44 34 -3 0 -13 -17 -21 -37z"/>
<path d="M114 366 c-26 -57 -24 -86 7 -86 25 0 51 42 51 84 0 73 -25 74 -58 2z"/>
<path d="M483 291 c-22 -46 -46 -79 -73 -101 -41 -33 -51 -57 -25 -66 8 -3 73
9 145 27 120 30 133 32 141 17 13 -23 39 -48 50 -48 11 0 12 60 1 76 -11 18
-83 64 -100 64 -12 0 -12 -4 2 -25 9 -13 16 -28 16 -33 0 -9 -169 -37 -177
-28 -3 3 12 29 34 58 56 75 57 77 42 104 -7 13 -15 24 -18 24 -4 0 -21 -31
-38 -69z"/>
</g>
</svg>
