<?xml version="1.0" standalone="no"?>
<!DOCTYPE svg PUBLIC "-//W3C//DTD SVG 20010904//EN"
 "http://www.w3.org/TR/2001/REC-SVG-20010904/DTD/svg10.dtd">
<svg version="1.0" xmlns="http://www.w3.org/2000/svg"
 width="90.000000pt" height="92.000000pt" viewBox="0 0 90.000000 92.000000"
 preserveAspectRatio="xMidYMid meet">
<metadata>
Created by potrace 1.16, written by Peter Selinger 2001-2019
</metadata>
<g transform="translate(0.000000,92.000000) scale(0.100000,-0.100000)"
fill="#000000" stroke="none">
<path d="M494 744 c3 -16 9 -124 12 -240 l7 -210 -65 -12 c-95 -17 -90 -20
-83 46 3 31 8 69 11 83 4 20 -1 30 -20 42 -45 30 -49 27 -47 -37 2 -32 -3 -88
-10 -123 -12 -60 -12 -65 7 -84 20 -20 20 -20 66 0 52 24 137 44 261 64 l88
14 -7 -53 c-13 -108 43 -104 65 4 6 31 18 100 26 152 15 90 15 95 -2 108 -26
19 -63 26 -74 15 -6 -6 -6 -20 1 -39 7 -17 9 -53 5 -90 l-7 -61 -81 -10 c-45
-6 -84 -9 -86 -7 -2 2 0 99 5 216 7 148 7 217 -1 225 -6 7 -25 16 -44 19 -33
7 -34 7 -27 -22z"/>
<path d="M150 741 c0 -20 67 -96 87 -99 32 -5 49 32 30 62 -20 29 -117 60
-117 37z"/>
<path d="M50 551 c0 -20 67 -96 87 -99 24 -4 36 19 27 53 -8 32 -114 75 -114
46z"/>
<path d="M195 354 c-20 -30 -56 -75 -80 -99 -49 -47 -52 -58 -31 -110 16 -38
33 -45 43 -17 3 9 29 69 58 132 63 139 67 150 55 150 -5 0 -25 -25 -45 -56z"/>
</g>
</svg>
