<?xml version="1.0" standalone="no"?>
<!DOCTYPE svg PUBLIC "-//W3C//DTD SVG 20010904//EN"
 "http://www.w3.org/TR/2001/REC-SVG-20010904/DTD/svg10.dtd">
<svg version="1.0" xmlns="http://www.w3.org/2000/svg"
 width="96.000000pt" height="68.000000pt" viewBox="0 0 96.000000 68.000000"
 preserveAspectRatio="xMidYMid meet">
<metadata>
Created by potrace 1.16, written by Peter Selinger 2001-2019
</metadata>
<g transform="translate(0.000000,68.000000) scale(0.100000,-0.100000)"
fill="#000000" stroke="none">
<path d="M400 634 c0 -4 9 -21 20 -39 l20 -32 -81 -2 c-48 -1 -86 2 -94 9 -16
13 -35 5 -35 -14 0 -7 -9 -25 -21 -40 -25 -32 -22 -71 6 -71 13 0 28 15 43 43
21 38 27 42 63 42 21 0 39 -4 39 -8 0 -13 -49 -75 -78 -99 -39 -32 -14 -28 39
6 56 36 103 86 95 100 -5 7 7 11 33 11 l41 0 0 -45 c0 -42 1 -45 38 -55 43
-13 137 -10 137 5 0 6 -31 11 -68 13 l-68 3 3 37 c3 44 14 50 86 51 56 1 61
-3 35 -31 -25 -27 -9 -33 54 -19 92 21 90 19 60 49 -27 27 -29 27 -152 25
-123 -2 -125 -1 -125 21 0 16 -9 25 -33 34 -37 13 -57 15 -57 6z"/>
<path d="M429 416 c12 -18 21 -36 21 -40 0 -3 -22 -6 -49 -6 -72 0 -141 -11
-135 -22 4 -5 39 -7 83 -4 42 3 127 8 189 12 61 4 112 10 112 15 0 14 -61 21
-116 14 -53 -6 -54 -6 -54 20 0 18 -7 28 -26 35 -42 16 -47 12 -25 -24z"/>
<path d="M550 326 c0 -7 -12 -25 -27 -40 -32 -32 -24 -45 13 -21 25 16 27 16
55 -4 35 -26 62 -28 57 -3 -2 9 -18 22 -37 28 -20 7 -29 14 -22 18 21 13 12
36 -14 36 -14 0 -25 -6 -25 -14z"/>
<path d="M326 301 c-8 -15 -27 -36 -41 -45 -41 -27 -21 -31 25 -5 39 22 42 22
51 6 11 -18 49 -24 49 -7 0 6 -11 16 -25 22 -23 10 -24 13 -10 28 17 19 11 30
-16 30 -10 0 -25 -13 -33 -29z"/>
<path d="M430 226 c0 -21 -5 -24 -67 -29 -38 -4 -98 -7 -135 -7 -67 0 -89 -12
-47 -25 12 -4 65 -3 118 1 148 13 135 18 132 -48 -3 -60 5 -98 19 -98 14 0 30
60 30 111 l0 49 160 0 c91 0 160 4 160 9 0 22 -72 32 -184 25 -107 -6 -115 -5
-135 15 -28 28 -51 27 -51 -3z"/>
</g>
</svg>
