<?xml version="1.0" standalone="no"?>
<!DOCTYPE svg PUBLIC "-//W3C//DTD SVG 20010904//EN"
 "http://www.w3.org/TR/2001/REC-SVG-20010904/DTD/svg10.dtd">
<svg version="1.0" xmlns="http://www.w3.org/2000/svg"
 width="90.000000pt" height="92.000000pt" viewBox="0 0 90.000000 92.000000"
 preserveAspectRatio="xMidYMid meet">
<metadata>
Created by potrace 1.16, written by Peter Selinger 2001-2019
</metadata>
<g transform="translate(0.000000,92.000000) scale(0.100000,-0.100000)"
fill="#000000" stroke="none">
<path d="M400 885 c0 -8 9 -29 20 -47 11 -18 20 -36 20 -39 0 -3 -48 -12 -107
-19 -126 -14 -147 -22 -113 -40 18 -10 44 -9 135 6 62 9 120 14 129 11 21 -8
20 -30 -1 -56 -17 -19 -20 -20 -78 -6 -90 22 -97 17 -27 -19 l64 -32 -36 -28
c-20 -15 -56 -39 -79 -52 -38 -22 -39 -24 -12 -18 44 10 92 31 126 54 l29 21
59 -29 59 -29 -132 -22 c-72 -11 -158 -24 -191 -27 -85 -8 -89 -10 -65 -34 24
-24 26 -64 5 -144 -21 -79 -56 -136 -122 -196 -60 -55 -61 -60 -3 -30 91 46
152 142 185 289 21 90 14 84 130 96 33 4 68 9 78 12 17 4 17 3 4 -24 -19 -35
-55 -69 -132 -123 -35 -25 -50 -39 -35 -35 88 25 241 135 237 170 -2 18 6 21
93 28 52 5 99 13 104 18 16 15 -60 40 -103 33 -36 -6 -38 -5 -44 25 -5 23 -16
36 -42 48 -19 9 -35 20 -35 24 0 5 11 20 25 35 23 25 24 29 9 45 -15 16 -11
18 60 24 42 4 76 11 76 16 0 5 -11 16 -24 24 -21 14 -32 15 -98 2 l-73 -14 -2
25 c-1 30 -8 37 -55 57 -33 13 -38 13 -38 0z"/>
<path d="M539 418 c0 -2 -2 -12 -4 -23 -5 -27 -110 -125 -176 -163 -30 -17
-47 -32 -38 -32 33 0 175 80 229 130 l55 50 -24 20 c-20 17 -39 25 -42 18z"/>
<path d="M583 263 c-24 -49 -116 -122 -225 -179 -48 -25 -88 -47 -88 -49 0 -9
110 28 175 60 71 34 217 137 224 157 4 12 -37 47 -56 48 -6 0 -20 -17 -30 -37z"/>
</g>
</svg>
