<?xml version="1.0" standalone="no"?>
<!DOCTYPE svg PUBLIC "-//W3C//DTD SVG 20010904//EN"
 "http://www.w3.org/TR/2001/REC-SVG-20010904/DTD/svg10.dtd">
<svg version="1.0" xmlns="http://www.w3.org/2000/svg"
 width="96.000000pt" height="68.000000pt" viewBox="0 0 96.000000 68.000000"
 preserveAspectRatio="xMidYMid meet">
<metadata>
Created by potrace 1.16, written by Peter Selinger 2001-2019
</metadata>
<g transform="translate(0.000000,68.000000) scale(0.100000,-0.100000)"
fill="#000000" stroke="none">
<path d="M217 594 c-3 -3 -1 -19 5 -35 6 -18 9 -82 6 -152 -5 -139 -25 -201
-92 -274 -39 -44 -43 -53 -23 -53 30 0 94 59 123 114 l30 56 38 -40 c40 -43
76 -53 76 -21 0 22 -34 52 -81 71 -29 12 -31 16 -25 49 3 20 6 41 6 48 0 7 27
27 60 45 64 36 75 58 35 76 -22 10 -27 8 -56 -33 -18 -25 -33 -44 -35 -42 -1
1 2 40 6 87 5 54 4 90 -2 98 -11 12 -60 17 -71 6z"/>
<path d="M615 585 c-5 -2 -43 -9 -82 -15 -79 -13 -98 -30 -32 -30 41 0 172 17
199 26 13 4 13 6 0 14 -15 9 -65 12 -85 5z"/>
<path d="M625 453 c-27 -8 -87 -15 -132 -16 -46 -1 -83 -3 -83 -5 0 -1 6 -13
14 -25 7 -12 20 -59 27 -104 8 -56 17 -83 26 -83 7 0 13 5 13 10 0 6 40 9 105
7 l105 -3 29 86 c15 47 31 92 35 101 6 13 -3 20 -40 33 -26 9 -48 15 -48 15
-1 -1 -23 -8 -51 -16z m55 -55 c0 -33 0 -33 -58 -37 -146 -9 -147 -9 -147 24
0 29 1 30 60 36 33 3 79 6 103 7 41 2 42 1 42 -30z m-6 -85 c-10 -42 -16 -45
-102 -50 l-79 -4 -7 27 c-11 43 -14 42 162 52 31 2 32 0 26 -25z"/>
<path d="M100 414 c0 -19 57 -94 72 -94 41 0 31 62 -15 85 -31 16 -57 20 -57
9z"/>
<path d="M665 160 c-33 -5 -113 -12 -177 -15 -65 -4 -118 -11 -118 -15 0 -17
58 -20 228 -11 97 6 190 10 205 9 37 -1 46 10 23 28 -21 15 -66 16 -161 4z"/>
</g>
</svg>
