<?xml version="1.0" standalone="no"?>
<!DOCTYPE svg PUBLIC "-//W3C//DTD SVG 20010904//EN"
 "http://www.w3.org/TR/2001/REC-SVG-20010904/DTD/svg10.dtd">
<svg version="1.0" xmlns="http://www.w3.org/2000/svg"
 width="96.000000pt" height="68.000000pt" viewBox="0 0 96.000000 68.000000"
 preserveAspectRatio="xMidYMid meet">
<metadata>
Created by potrace 1.16, written by Peter Selinger 2001-2019
</metadata>
<g transform="translate(0.000000,68.000000) scale(0.100000,-0.100000)"
fill="#000000" stroke="none">
<path d="M450 190 c-13 -8 -13 -10 2 -10 9 0 20 5 23 10 8 13 -5 13 -25 0z"/>
<path d="M526 187 c6 -17 -37 -61 -62 -65 -11 -1 -33 2 -49 8 -15 6 -30 8 -33
6 -3 -3 7 -10 22 -15 14 -6 26 -15 26 -21 0 -5 5 -10 11 -10 5 0 49 -18 96
-41 76 -36 90 -40 134 -34 48 7 78 25 42 25 -10 0 -54 10 -98 21 -44 12 -90
21 -102 21 -26 0 -21 23 12 51 11 10 14 15 6 11 -9 -5 -12 -3 -7 5 4 6 12 9
17 6 5 -4 18 0 29 8 16 11 18 16 8 24 -19 14 -58 14 -52 0z"/>
<path d="M287 170 c4 -5 21 -12 37 -16 22 -5 28 -4 24 7 -2 7 -19 14 -37 15
-18 1 -29 -2 -24 -6z"/>
<path d="M359 58 c-19 -10 -28 -18 -21 -18 7 0 23 5 35 12 12 7 31 13 41 15
30 5 33 13 4 11 -14 -1 -41 -10 -59 -20z"/>
<path d="M748 23 c7 -3 16 -2 19 1 4 3 -2 6 -13 5 -11 0 -14 -3 -6 -6z"/>
</g>
</svg>
