<?xml version="1.0" standalone="no"?>
<!DOCTYPE svg PUBLIC "-//W3C//DTD SVG 20010904//EN"
 "http://www.w3.org/TR/2001/REC-SVG-20010904/DTD/svg10.dtd">
<svg version="1.0" xmlns="http://www.w3.org/2000/svg"
 width="96.000000pt" height="68.000000pt" viewBox="0 0 96.000000 68.000000"
 preserveAspectRatio="xMidYMid meet">
<metadata>
Created by potrace 1.16, written by Peter Selinger 2001-2019
</metadata>
<g transform="translate(0.000000,68.000000) scale(0.100000,-0.100000)"
fill="#000000" stroke="none">
<path d="M436 318 c-2 -10 -8 -18 -13 -17 -34 6 -123 -3 -123 -12 0 -8 21 -10
70 -6 64 5 70 4 70 -13 0 -16 -11 -20 -70 -26 -38 -3 -70 -11 -70 -17 0 -6 20
-7 53 -3 28 3 104 8 167 11 137 7 163 12 154 27 -5 7 -36 9 -100 4 -77 -5 -94
-4 -94 8 0 18 22 26 75 26 24 0 47 5 50 10 4 6 -18 10 -59 10 -36 0 -66 4 -66
8 0 16 -39 7 -44 -10z"/>
</g>
</svg>
