<?xml version="1.0" standalone="no"?>
<!DOCTYPE svg PUBLIC "-//W3C//DTD SVG 20010904//EN"
 "http://www.w3.org/TR/2001/REC-SVG-20010904/DTD/svg10.dtd">
<svg version="1.0" xmlns="http://www.w3.org/2000/svg"
 width="90.000000pt" height="92.000000pt" viewBox="0 0 90.000000 92.000000"
 preserveAspectRatio="xMidYMid meet">
<metadata>
Created by potrace 1.16, written by Peter Selinger 2001-2019
</metadata>
<g transform="translate(0.000000,92.000000) scale(0.100000,-0.100000)"
fill="#000000" stroke="none">
<path d="M145 803 c28 -68 34 -187 10 -197 -8 -3 -37 -8 -65 -12 -41 -5 -48
-9 -39 -20 7 -9 32 -14 65 -14 l54 0 0 -89 c0 -59 -4 -92 -12 -98 -7 -5 -42
-20 -78 -33 -36 -12 -67 -24 -69 -26 -8 -8 43 -54 59 -54 10 0 28 8 41 19 13
10 73 49 133 86 110 69 127 95 36 56 -27 -12 -51 -21 -54 -21 -3 0 -6 41 -6
90 0 77 2 90 16 90 33 0 94 24 94 36 0 20 -45 28 -81 15 l-32 -11 7 58 c3 31
9 71 12 88 5 25 2 32 -21 42 -14 7 -37 12 -52 12 -20 0 -24 -4 -18 -17z"/>
<path d="M635 769 c-16 -5 -77 -15 -134 -23 -57 -8 -105 -17 -108 -20 -15 -15
17 -26 77 -26 77 0 69 8 85 -97 6 -41 6 -42 -27 -47 -37 -7 -197 -26 -212 -26
-6 0 -3 -8 7 -17 19 -20 64 -22 170 -9 l69 9 -4 -161 c-1 -88 -7 -164 -11
-168 -4 -4 -28 -2 -54 4 -25 7 -47 11 -48 10 -2 -2 22 -30 52 -62 45 -48 58
-57 72 -49 35 22 41 54 41 244 l0 186 46 7 c26 3 77 6 115 6 72 0 92 11 65 38
-19 19 -77 22 -169 8 l-59 -9 3 59 c2 33 0 64 -4 71 -8 13 4 17 68 28 61 9 75
15 75 30 0 25 -56 32 -115 14z"/>
</g>
</svg>
