<?xml version="1.0" standalone="no"?>
<!DOCTYPE svg PUBLIC "-//W3C//DTD SVG 20010904//EN"
 "http://www.w3.org/TR/2001/REC-SVG-20010904/DTD/svg10.dtd">
<svg version="1.0" xmlns="http://www.w3.org/2000/svg"
 width="96.000000pt" height="68.000000pt" viewBox="0 0 96.000000 68.000000"
 preserveAspectRatio="xMidYMid meet">
<metadata>
Created by potrace 1.16, written by Peter Selinger 2001-2019
</metadata>
<g transform="translate(0.000000,68.000000) scale(0.100000,-0.100000)"
fill="#000000" stroke="none">
<path d="M565 280 c-11 -5 -48 -9 -83 -9 -60 -1 -63 -2 -57 -23 10 -29 8 -82
-4 -145 -10 -52 -7 -83 9 -83 10 0 16 18 25 71 l7 37 66 4 c37 3 70 1 73 -4 9
-13 -6 -73 -17 -71 -5 1 -18 5 -28 9 -16 6 -15 1 8 -29 23 -29 32 -35 46 -27
25 13 30 32 30 113 0 40 4 87 9 105 8 27 7 34 -12 47 -24 17 -42 18 -72 5z
m35 -24 c0 -2 2 -11 6 -19 4 -10 -6 -16 -40 -20 -26 -4 -57 -9 -71 -13 -22 -5
-25 -3 -25 19 0 20 6 27 28 30 39 6 102 8 102 3z m3 -62 c15 -16 -9 -33 -56
-39 -29 -3 -60 -9 -69 -11 -13 -4 -18 0 -18 15 0 16 9 21 48 26 26 3 54 8 62
9 8 2 18 4 21 5 3 0 8 -2 12 -5z"/>
</g>
</svg>
