<?xml version="1.0" standalone="no"?>
<!DOCTYPE svg PUBLIC "-//W3C//DTD SVG 20010904//EN"
 "http://www.w3.org/TR/2001/REC-SVG-20010904/DTD/svg10.dtd">
<svg version="1.0" xmlns="http://www.w3.org/2000/svg"
 width="96.000000pt" height="68.000000pt" viewBox="0 0 96.000000 68.000000"
 preserveAspectRatio="xMidYMid meet">
<metadata>
Created by potrace 1.16, written by Peter Selinger 2001-2019
</metadata>
<g transform="translate(0.000000,68.000000) scale(0.100000,-0.100000)"
fill="#000000" stroke="none">
<path d="M630 497 c0 -36 -21 -57 -64 -64 -36 -6 -39 -5 -34 15 7 24 -16 62
-37 62 -12 0 -12 -6 1 -36 8 -20 13 -38 11 -40 -2 -2 -37 -8 -78 -12 -70 -8
-72 -9 -48 -21 21 -11 38 -11 80 -1 30 6 127 14 216 17 143 5 161 8 151 21
-10 12 -29 13 -100 8 -49 -3 -88 -3 -88 0 0 3 9 17 20 31 26 34 25 43 -5 43
-19 0 -25 -5 -25 -23z"/>
</g>
</svg>
