<?xml version="1.0" standalone="no"?>
<!DOCTYPE svg PUBLIC "-//W3C//DTD SVG 20010904//EN"
 "http://www.w3.org/TR/2001/REC-SVG-20010904/DTD/svg10.dtd">
<svg version="1.0" xmlns="http://www.w3.org/2000/svg"
 width="90.000000pt" height="92.000000pt" viewBox="0 0 90.000000 92.000000"
 preserveAspectRatio="xMidYMid meet">
<metadata>
Created by potrace 1.16, written by Peter Selinger 2001-2019
</metadata>
<g transform="translate(0.000000,92.000000) scale(0.100000,-0.100000)"
fill="#000000" stroke="none">
<path d="M194 818 c11 -60 19 -176 12 -201 -5 -23 -14 -26 -98 -39 l-93 -13
28 -19 c26 -17 31 -18 89 -3 34 9 64 14 66 12 2 -2 -3 -39 -13 -82 -21 -98
-72 -207 -131 -279 -25 -31 -43 -58 -40 -61 10 -11 86 47 117 90 50 67 89 159
108 252 9 47 21 89 27 94 5 5 26 13 48 17 35 6 38 5 32 -13 -10 -33 -25 -165
-26 -229 0 -116 50 -199 137 -224 103 -30 264 -20 343 20 58 30 64 41 46 95
-9 25 -16 62 -16 82 0 44 -10 35 -34 -28 -31 -86 -94 -121 -214 -120 -162 2
-215 51 -214 198 1 64 22 147 56 225 5 12 0 21 -19 34 -27 18 -22 18 -127 -12
-16 -5 -18 3 -18 63 0 37 4 82 9 99 11 38 5 49 -32 63 -44 17 -50 14 -43 -21z"/>
<path d="M610 710 c-30 -11 -79 -19 -108 -19 -50 -1 -52 -2 -41 -22 11 -22 14
-199 3 -257 -6 -32 11 -92 27 -92 4 0 10 8 14 19 5 15 17 19 75 20 68 1 70 1
86 -31 l17 -32 23 27 c22 26 23 31 19 199 -3 166 -4 172 -27 190 -13 10 -25
17 -28 17 -3 -1 -30 -9 -60 -19z m53 -39 c4 0 7 -27 7 -58 l0 -58 -47 0 c-27
0 -63 -4 -81 -8 l-33 -9 3 59 4 58 44 11 c38 10 63 11 103 5z m5 -202 l-3 -61
-35 -3 c-19 -1 -54 -5 -77 -9 l-43 -8 0 59 0 59 63 11 c106 17 98 21 95 -48z"/>
</g>
</svg>
