<?xml version="1.0" standalone="no"?>
<!DOCTYPE svg PUBLIC "-//W3C//DTD SVG 20010904//EN"
 "http://www.w3.org/TR/2001/REC-SVG-20010904/DTD/svg10.dtd">
<svg version="1.0" xmlns="http://www.w3.org/2000/svg"
 width="90.000000pt" height="92.000000pt" viewBox="0 0 90.000000 92.000000"
 preserveAspectRatio="xMidYMid meet">
<metadata>
Created by potrace 1.16, written by Peter Selinger 2001-2019
</metadata>
<g transform="translate(0.000000,92.000000) scale(0.100000,-0.100000)"
fill="#000000" stroke="none">
<path d="M510 861 c0 -52 -8 -61 -57 -61 -36 0 -23 -24 15 -28 l31 -3 -14 -45
c-7 -24 -9 -44 -4 -44 5 0 25 25 44 55 34 53 37 55 79 55 56 0 106 10 106 21
0 21 -50 32 -95 22 -49 -11 -50 -11 -35 18 9 16 5 22 -22 39 -18 11 -36 20
-40 20 -5 0 -8 -22 -8 -49z"/>
<path d="M230 865 c0 -9 7 -30 16 -47 21 -40 9 -48 -73 -48 -68 0 -75 -8 -41
-40 26 -24 35 -25 81 -5 52 21 62 19 72 -17 6 -17 16 -34 24 -36 11 -4 13 5 9
41 -5 45 -5 47 28 57 45 15 45 34 0 26 -36 -7 -46 3 -46 45 0 12 -10 23 -26
29 -35 14 -44 13 -44 -5z"/>
<path d="M344 695 c-3 -8 -3 -18 0 -23 6 -10 -12 -83 -22 -94 -4 -4 -55 -12
-114 -19 -60 -6 -108 -15 -108 -20 0 -5 10 -13 21 -20 20 -10 53 -9 148 8 l34
6 -19 -33 c-28 -47 -134 -142 -201 -178 -36 -19 -50 -32 -38 -32 30 0 144 57
192 96 40 33 42 34 53 15 5 -11 10 -36 10 -55 l0 -35 -60 -7 c-33 -4 -63 -10
-66 -15 -9 -15 39 -31 78 -26 l39 5 -7 -31 c-9 -42 -41 -106 -67 -135 -26 -28
-6 -30 32 -3 30 22 75 100 86 148 5 26 12 33 29 33 13 0 51 3 84 6 l61 7 -2
-116 c-1 -77 2 -120 10 -127 17 -18 25 18 32 140 l6 105 63 3 c34 2 62 7 62
12 0 18 -46 40 -84 40 -38 0 -39 0 -33 33 6 39 1 49 -32 66 -32 17 -42 3 -31
-44 17 -71 19 -69 -84 -80 l-68 -8 3 49 c4 47 2 50 -28 63 l-31 14 28 39 c16
22 30 43 32 48 2 5 33 12 69 16 l65 6 70 -73 c152 -161 150 -159 183 -159 40
0 121 20 121 30 0 4 -38 22 -84 40 -60 23 -109 52 -172 101 l-87 69 89 0 c134
0 165 14 103 45 -29 15 -41 15 -176 -5 -80 -11 -147 -19 -148 -18 -2 2 5 21
16 42 24 50 24 49 -10 69 -35 21 -40 21 -47 2z"/>
<path d="M530 693 c0 -14 61 -73 74 -73 16 0 27 24 20 44 -9 24 -94 50 -94 29z"/>
</g>
</svg>
