<?xml version="1.0" standalone="no"?>
<!DOCTYPE svg PUBLIC "-//W3C//DTD SVG 20010904//EN"
 "http://www.w3.org/TR/2001/REC-SVG-20010904/DTD/svg10.dtd">
<svg version="1.0" xmlns="http://www.w3.org/2000/svg"
 width="96.000000pt" height="68.000000pt" viewBox="0 0 96.000000 68.000000"
 preserveAspectRatio="xMidYMid meet">
<metadata>
Created by potrace 1.16, written by Peter Selinger 2001-2019
</metadata>
<g transform="translate(0.000000,68.000000) scale(0.100000,-0.100000)"
fill="#000000" stroke="none">
<path d="M524 319 c-3 -6 -3 -25 0 -43 6 -32 5 -34 -31 -40 -21 -3 -54 -6 -74
-6 -34 0 -35 1 -31 31 5 35 -8 49 -47 49 -20 0 -22 -3 -13 -12 7 -7 12 -27 12
-44 0 -32 -1 -33 -55 -39 -64 -8 -64 -25 1 -25 33 0 44 -4 44 -16 0 -22 -18
-54 -48 -87 -28 -29 -24 -34 11 -15 29 15 44 34 67 84 18 38 24 42 66 48 26 3
60 6 75 6 l29 0 0 -85 c0 -47 4 -85 9 -85 13 0 18 22 26 101 7 64 8 67 37 73
17 3 42 6 56 6 25 0 25 1 6 15 -10 8 -36 15 -57 15 -37 0 -38 1 -32 28 5 24 2
30 -19 40 -17 8 -27 8 -32 1z"/>
</g>
</svg>
