<?xml version="1.0" standalone="no"?>
<!DOCTYPE svg PUBLIC "-//W3C//DTD SVG 20010904//EN"
 "http://www.w3.org/TR/2001/REC-SVG-20010904/DTD/svg10.dtd">
<svg version="1.0" xmlns="http://www.w3.org/2000/svg"
 width="96.000000pt" height="68.000000pt" viewBox="0 0 96.000000 68.000000"
 preserveAspectRatio="xMidYMid meet">
<metadata>
Created by potrace 1.16, written by Peter Selinger 2001-2019
</metadata>
<g transform="translate(0.000000,68.000000) scale(0.100000,-0.100000)"
fill="#000000" stroke="none">
<path d="M245 480 c-11 -5 -38 -9 -61 -9 l-40 -1 4 -90 c3 -49 -1 -110 -7
-134 -14 -59 11 -123 34 -86 12 19 83 12 98 -10 17 -24 43 -18 54 13 4 12 6
85 4 162 -2 115 -5 142 -19 153 -18 14 -38 14 -67 2z m40 -75 c4 -31 6 -57 4
-59 -2 -2 -25 -6 -51 -8 l-48 -6 0 58 c0 63 3 66 62 69 25 1 27 -2 33 -54z
m-1 -138 c0 -25 -3 -49 -6 -53 -12 -11 -83 -23 -91 -15 -4 4 -5 31 -1 59 6 48
8 51 38 55 58 7 61 5 60 -46z"/>
</g>
</svg>
