<?xml version="1.0" standalone="no"?>
<!DOCTYPE svg PUBLIC "-//W3C//DTD SVG 20010904//EN"
 "http://www.w3.org/TR/2001/REC-SVG-20010904/DTD/svg10.dtd">
<svg version="1.0" xmlns="http://www.w3.org/2000/svg"
 width="96.000000pt" height="68.000000pt" viewBox="0 0 96.000000 68.000000"
 preserveAspectRatio="xMidYMid meet">
<metadata>
Created by potrace 1.16, written by Peter Selinger 2001-2019
</metadata>
<g transform="translate(0.000000,68.000000) scale(0.100000,-0.100000)"
fill="#000000" stroke="none">
<path d="M560 210 c0 -6 -8 -10 -17 -11 -14 0 -13 -2 4 -9 20 -8 21 -13 13
-35 -13 -33 -13 -38 0 -30 14 9 13 -8 -2 -23 -6 -6 -11 -26 -11 -44 1 -18 -2
-26 -5 -18 -3 8 -10 18 -16 22 -15 11 -96 10 -96 -1 0 -4 11 -6 25 -3 37 7 72
-5 78 -28 7 -25 37 -16 37 11 0 10 5 19 11 19 5 0 9 8 8 18 -1 9 0 19 1 22 1
3 4 18 6 35 3 16 10 35 16 42 10 12 4 17 -14 14 -5 0 -8 3 -8 8 0 5 -7 11 -15
15 -8 3 -15 1 -15 -4z"/>
<path d="M315 184 c4 -11 9 -32 10 -47 2 -15 9 -34 15 -42 7 -9 8 -15 2 -15
-18 0 -23 -33 -7 -49 8 -8 16 -11 17 -6 6 38 4 72 -4 82 -8 9 -1 11 26 8 19
-3 38 0 41 5 4 7 -3 9 -18 6 -14 -2 -34 2 -44 11 -10 8 -12 12 -5 8 19 -10 14
13 -5 25 -15 9 -14 10 7 4 32 -8 15 11 -19 21 -21 6 -23 5 -16 -11z m26 -137
c-10 -9 -11 -8 -5 6 3 10 9 15 12 12 3 -3 0 -11 -7 -18z"/>
<path d="M438 193 c7 -3 16 -2 19 1 4 3 -2 6 -13 5 -11 0 -14 -3 -6 -6z"/>
<path d="M473 132 c-8 -5 2 -8 24 -9 25 -1 32 2 22 8 -17 11 -30 11 -46 1z"/>
</g>
</svg>
