<?xml version="1.0" standalone="no"?>
<!DOCTYPE svg PUBLIC "-//W3C//DTD SVG 20010904//EN"
 "http://www.w3.org/TR/2001/REC-SVG-20010904/DTD/svg10.dtd">
<svg version="1.0" xmlns="http://www.w3.org/2000/svg"
 width="90.000000pt" height="92.000000pt" viewBox="0 0 90.000000 92.000000"
 preserveAspectRatio="xMidYMid meet">
<metadata>
Created by potrace 1.16, written by Peter Selinger 2001-2019
</metadata>
<g transform="translate(0.000000,92.000000) scale(0.100000,-0.100000)"
fill="#000000" stroke="none">
<path d="M627 821 l6 -59 -44 -7 c-24 -3 -52 -9 -61 -11 -15 -5 -18 1 -18 35
0 43 -18 61 -60 61 -18 0 -19 -3 -9 -21 6 -12 15 -35 19 -50 9 -30 7 -32 -54
-41 -36 -5 -22 -23 21 -26 40 -3 42 -4 48 -45 10 -56 23 -81 38 -69 7 5 41 13
77 16 l65 7 0 42 c1 65 9 77 52 77 21 0 44 4 52 9 24 15 1 31 -45 31 l-44 0
15 36 c19 46 20 41 -15 59 -45 23 -49 20 -43 -44z m-11 -133 c-8 -40 -6 -39
-55 -45 l-41 -6 0 36 c0 34 2 36 38 40 20 2 43 4 51 5 10 2 12 -6 7 -30z"/>
<path d="M185 698 c-44 -11 -91 -22 -105 -25 -25 -5 -25 -5 -5 -19 11 -9 32
-14 48 -11 23 3 27 0 27 -20 0 -38 -46 -140 -100 -221 -28 -41 -49 -80 -47
-86 2 -6 28 13 57 42 29 28 54 52 55 52 2 0 6 -28 10 -62 4 -35 12 -72 17 -82
10 -19 11 -19 24 -2 9 13 32 21 70 25 l56 6 3 43 c2 23 13 59 25 79 l22 37
-22 18 c-27 22 -36 22 -90 3 -23 -8 -53 -15 -66 -15 -24 0 -24 0 15 78 29 58
37 82 30 95 -11 19 -11 19 69 37 55 13 64 23 33 40 -24 12 -26 12 -126 -12z
m75 -290 c0 -60 -10 -77 -47 -84 -18 -3 -37 -4 -40 0 -3 3 -8 28 -11 55 -5 54
-1 57 66 60 30 1 32 -1 32 -31z"/>
<path d="M650 564 c-47 -7 -137 -18 -200 -25 -63 -6 -119 -15 -124 -20 -5 -4
3 -13 17 -20 21 -10 55 -9 164 4 76 9 184 19 241 23 56 3 102 10 102 15 0 17
-46 39 -80 38 -19 -1 -73 -7 -120 -15z"/>
<path d="M610 464 c-41 -8 -110 -15 -152 -16 -43 -2 -78 -4 -78 -6 0 -2 7 -16
15 -31 8 -16 19 -59 25 -96 17 -108 12 -104 127 -88 54 7 114 12 133 11 l35
-3 32 95 c17 52 32 100 32 105 1 14 -53 45 -76 44 -10 -1 -52 -7 -93 -15z m88
-61 l3 -31 -53 0 c-51 1 -54 2 -53 27 0 29 21 41 70 38 26 -2 30 -6 33 -34z
m-162 -7 c9 -36 -2 -46 -47 -46 -32 0 -39 4 -39 19 0 11 -3 26 -6 35 -5 13 2
16 40 16 40 0 46 -3 52 -24z m154 -68 c-1 -43 -11 -53 -56 -54 -42 -1 -44 1
-44 27 0 23 5 28 28 32 54 8 72 7 72 -5z m-146 -34 c4 -15 6 -28 4 -29 -2 -2
-21 -5 -43 -7 -39 -3 -40 -2 -43 30 -3 31 -2 32 36 32 35 0 41 -3 46 -26z"/>
<path d="M640 195 c0 -16 117 -145 130 -143 25 5 24 57 -1 84 -31 33 -129 78
-129 59z"/>
<path d="M470 176 c0 -12 -67 -83 -115 -121 -19 -16 -19 -16 5 -9 47 12 127
58 183 105 5 3 1 14 -8 23 -20 20 -65 21 -65 2z"/>
</g>
</svg>
