<?xml version="1.0" standalone="no"?>
<!DOCTYPE svg PUBLIC "-//W3C//DTD SVG 20010904//EN"
 "http://www.w3.org/TR/2001/REC-SVG-20010904/DTD/svg10.dtd">
<svg version="1.0" xmlns="http://www.w3.org/2000/svg"
 width="96.000000pt" height="68.000000pt" viewBox="0 0 96.000000 68.000000"
 preserveAspectRatio="xMidYMid meet">
<metadata>
Created by potrace 1.16, written by Peter Selinger 2001-2019
</metadata>
<g transform="translate(0.000000,68.000000) scale(0.100000,-0.100000)"
fill="#000000" stroke="none">
<path d="M257 538 c4 -24 8 -61 8 -83 l0 -40 -67 -9 c-38 -5 -68 -13 -68 -18
0 -4 27 -8 60 -8 33 0 60 -3 60 -6 0 -16 -64 -115 -101 -157 -22 -26 -36 -47
-29 -47 19 0 82 53 113 95 l30 40 -8 -90 c-11 -126 -10 -154 4 -168 10 -9 15
-8 27 7 10 15 14 53 14 150 l0 130 28 -27 c33 -32 52 -35 52 -8 0 13 -13 24
-40 35 -22 9 -40 22 -40 29 0 19 21 37 45 37 11 0 27 5 35 10 13 9 13 11 0 20
-8 5 -28 7 -44 4 l-29 -6 7 66 c6 65 6 66 -19 76 -42 16 -46 13 -38 -32z"/>
</g>
</svg>
