<?xml version="1.0" standalone="no"?>
<!DOCTYPE svg PUBLIC "-//W3C//DTD SVG 20010904//EN"
 "http://www.w3.org/TR/2001/REC-SVG-20010904/DTD/svg10.dtd">
<svg version="1.0" xmlns="http://www.w3.org/2000/svg"
 width="96.000000pt" height="68.000000pt" viewBox="0 0 96.000000 68.000000"
 preserveAspectRatio="xMidYMid meet">
<metadata>
Created by potrace 1.16, written by Peter Selinger 2001-2019
</metadata>
<g transform="translate(0.000000,68.000000) scale(0.100000,-0.100000)"
fill="#000000" stroke="none">
<path d="M257 505 c7 -94 11 -88 -84 -100 -29 -4 -53 -11 -53 -15 0 -14 55
-22 96 -14 l38 7 -29 -49 c-27 -48 -46 -74 -101 -143 l-27 -33 24 7 c31 10 80
51 109 93 13 18 25 31 27 28 2 -2 -1 -49 -7 -104 -12 -104 -6 -142 24 -142 21
0 27 25 33 153 l6 118 22 -21 c26 -24 41 -25 49 -4 8 22 -1 34 -40 50 -49 21
-46 50 6 59 22 4 43 11 46 17 10 16 -18 29 -53 24 l-32 -5 5 47 c3 26 7 52 9
59 5 14 -23 39 -52 46 -22 5 -22 4 -16 -78z"/>
<path d="M550 568 c0 -16 51 -68 67 -68 14 0 17 28 5 46 -8 13 -46 34 -61 34
-6 0 -11 -5 -11 -12z"/>
<path d="M581 482 c-81 -13 -106 -13 -109 -4 -5 17 -32 15 -32 -2 0 -7 -7 -27
-15 -42 -20 -38 -19 -54 3 -54 9 0 23 13 30 30 8 17 23 32 35 34 68 14 243 32
249 27 4 -4 1 -19 -7 -34 -7 -15 -13 -27 -11 -27 11 0 106 52 106 58 0 15 -55
32 -99 31 -26 -1 -93 -9 -150 -17z"/>
<path d="M615 380 c-16 -4 -49 -8 -72 -9 -23 0 -45 -6 -49 -13 -5 -8 20 -10
101 -5 60 4 110 9 113 11 2 3 1 9 -3 15 -7 12 -45 13 -90 1z"/>
<path d="M735 304 c-11 -2 -91 -10 -177 -20 -170 -18 -218 -40 -72 -32 71 4
87 2 93 -11 10 -22 13 -88 5 -124 -5 -25 -10 -28 -35 -25 -34 5 -36 -1 -8 -36
25 -31 42 -33 69 -6 17 17 20 33 20 98 0 125 -2 122 94 122 44 0 88 4 95 9 15
9 11 11 -54 25 -5 1 -19 1 -30 0z"/>
<path d="M480 186 c0 -8 -24 -35 -52 -60 -60 -53 -57 -57 19 -19 55 26 90 63
78 83 -9 15 -45 12 -45 -4z"/>
<path d="M736 145 c47 -56 79 -68 79 -30 0 23 -78 85 -107 85 -16 0 -12 -9 28
-55z"/>
</g>
</svg>
