<?xml version="1.0" standalone="no"?>
<!DOCTYPE svg PUBLIC "-//W3C//DTD SVG 20010904//EN"
 "http://www.w3.org/TR/2001/REC-SVG-20010904/DTD/svg10.dtd">
<svg version="1.0" xmlns="http://www.w3.org/2000/svg"
 width="96.000000pt" height="68.000000pt" viewBox="0 0 96.000000 68.000000"
 preserveAspectRatio="xMidYMid meet">
<metadata>
Created by potrace 1.16, written by Peter Selinger 2001-2019
</metadata>
<g transform="translate(0.000000,68.000000) scale(0.100000,-0.100000)"
fill="#000000" stroke="none">
<path d="M578 177 l-27 -32 -40 23 c-22 12 -48 22 -58 22 -13 -1 -9 -6 12 -17
17 -9 66 -42 111 -74 70 -51 87 -59 126 -59 54 0 108 10 108 19 0 4 -32 12
-71 19 -73 13 -169 48 -169 63 0 4 18 14 40 20 44 13 50 23 21 39 -25 13 -21
14 -53 -23z"/>
<path d="M353 148 c-5 -7 -11 -33 -12 -58 -1 -25 -3 -54 -4 -65 -3 -33 28 -28
91 16 34 24 60 44 58 46 -1 2 -19 -4 -39 -12 -60 -25 -70 -21 -64 25 5 43 -12
71 -30 48z"/>
</g>
</svg>
