<?xml version="1.0" standalone="no"?>
<!DOCTYPE svg PUBLIC "-//W3C//DTD SVG 20010904//EN"
 "http://www.w3.org/TR/2001/REC-SVG-20010904/DTD/svg10.dtd">
<svg version="1.0" xmlns="http://www.w3.org/2000/svg"
 width="96.000000pt" height="68.000000pt" viewBox="0 0 96.000000 68.000000"
 preserveAspectRatio="xMidYMid meet">
<metadata>
Created by potrace 1.16, written by Peter Selinger 2001-2019
</metadata>
<g transform="translate(0.000000,68.000000) scale(0.100000,-0.100000)"
fill="#000000" stroke="none">
<path d="M375 500 c-11 -5 -41 -9 -67 -9 l-46 -1 21 -50 c13 -32 24 -46 31
-41 6 5 34 12 61 16 47 6 51 9 62 43 15 49 -8 65 -62 42z m25 -34 c0 -24 -21
-36 -67 -36 -35 0 -31 38 5 46 15 3 32 7 37 9 21 7 25 4 25 -19z"/>
</g>
</svg>
