<?xml version="1.0" standalone="no"?>
<!DOCTYPE svg PUBLIC "-//W3C//DTD SVG 20010904//EN"
 "http://www.w3.org/TR/2001/REC-SVG-20010904/DTD/svg10.dtd">
<svg version="1.0" xmlns="http://www.w3.org/2000/svg"
 width="96.000000pt" height="68.000000pt" viewBox="0 0 96.000000 68.000000"
 preserveAspectRatio="xMidYMid meet">
<metadata>
Created by potrace 1.16, written by Peter Selinger 2001-2019
</metadata>
<g transform="translate(0.000000,68.000000) scale(0.100000,-0.100000)"
fill="#000000" stroke="none">
<path d="M558 588 c-3 -41 -4 -43 -46 -51 -47 -9 -48 -32 0 -25 31 5 32 -2 11
-59 -6 -17 -5 -16 16 2 13 11 29 32 37 47 14 26 19 28 79 28 36 0 65 4 65 10
0 13 -44 23 -80 18 -31 -5 -37 5 -20 32 7 11 3 18 -13 27 -37 21 -46 15 -49
-29z"/>
<path d="M290 590 c0 -6 7 -22 16 -36 9 -13 15 -27 12 -29 -3 -3 -32 -8 -66
-11 -65 -7 -76 -16 -41 -34 15 -9 31 -8 66 4 60 20 60 20 67 -9 9 -35 26 -31
26 5 0 24 6 33 33 45 l32 15 -37 -4 c-34 -4 -38 -2 -38 18 0 12 -5 27 -12 34
-15 15 -58 16 -58 2z"/>
</g>
</svg>
