<?xml version="1.0" standalone="no"?>
<!DOCTYPE svg PUBLIC "-//W3C//DTD SVG 20010904//EN"
 "http://www.w3.org/TR/2001/REC-SVG-20010904/DTD/svg10.dtd">
<svg version="1.0" xmlns="http://www.w3.org/2000/svg"
 width="96.000000pt" height="68.000000pt" viewBox="0 0 96.000000 68.000000"
 preserveAspectRatio="xMidYMid meet">
<metadata>
Created by potrace 1.16, written by Peter Selinger 2001-2019
</metadata>
<g transform="translate(0.000000,68.000000) scale(0.100000,-0.100000)"
fill="#000000" stroke="none">
<path d="M457 578 c-43 -23 -97 -43 -120 -45 l-42 -5 -1 -102 c0 -92 -3 -108
-34 -176 -18 -41 -53 -101 -77 -133 -23 -31 -39 -57 -33 -57 5 0 34 24 63 54
57 57 110 161 123 244 l6 41 62 5 c33 3 104 10 156 14 69 5 94 11 92 20 -1 7
7 27 19 43 12 17 20 31 18 33 -39 29 -52 33 -102 25 -28 -4 -77 -10 -107 -12
l-55 -6 60 20 c33 10 69 19 81 19 11 0 28 6 39 13 17 13 17 15 -6 30 -33 24
-53 20 -142 -25z m156 -92 c-1 -16 -3 -30 -5 -31 -2 -2 -50 -8 -108 -15 -58
-6 -115 -13 -128 -16 -21 -4 -23 -2 -20 32 l3 37 55 4 c30 2 80 8 110 13 85
12 95 10 93 -24z"/>
<path d="M411 329 c-12 -28 -30 -58 -40 -67 -69 -72 -70 -84 -2 -33 l33 25 -5
-79 c-3 -44 -8 -91 -11 -105 -4 -14 -2 -32 4 -40 9 -13 12 -12 25 4 13 18 34
20 201 28 103 4 189 10 191 12 3 3 2 10 -2 17 -6 9 -35 10 -107 6 l-99 -6 3
27 c3 25 7 28 66 35 77 11 72 27 -9 27 -52 0 -60 2 -57 18 2 12 18 19 61 26
74 11 74 28 0 25 -52 -3 -58 -1 -61 18 -3 22 6 26 91 38 50 8 65 25 20 25 -14
0 -77 -7 -140 -16 -63 -9 -116 -14 -119 -11 -3 3 0 14 7 25 10 17 10 23 0 36
-19 23 -24 20 -50 -35z m147 -71 c-2 -19 -11 -24 -45 -29 -50 -6 -78 3 -93 30
-10 20 -8 21 65 21 73 0 76 -1 73 -22z m2 -73 c0 -23 -4 -25 -50 -26 -27 -1
-56 -2 -62 -3 -7 -1 -14 9 -16 21 -3 23 11 27 96 31 28 2 32 -1 32 -23z m0
-69 c0 -27 -21 -36 -91 -36 -44 0 -46 1 -42 24 5 26 21 32 96 35 33 1 37 -2
37 -23z"/>
<path d="M546 355 c17 -26 54 -34 54 -12 0 20 -22 37 -47 37 -23 0 -23 -1 -7
-25z"/>
</g>
</svg>
