<?xml version="1.0" standalone="no"?>
<!DOCTYPE svg PUBLIC "-//W3C//DTD SVG 20010904//EN"
 "http://www.w3.org/TR/2001/REC-SVG-20010904/DTD/svg10.dtd">
<svg version="1.0" xmlns="http://www.w3.org/2000/svg"
 width="90.000000pt" height="92.000000pt" viewBox="0 0 90.000000 92.000000"
 preserveAspectRatio="xMidYMid meet">
<metadata>
Created by potrace 1.16, written by Peter Selinger 2001-2019
</metadata>
<g transform="translate(0.000000,92.000000) scale(0.100000,-0.100000)"
fill="#000000" stroke="none">
<path d="M392 856 c-133 -22 -153 -38 -56 -46 50 -4 59 -8 62 -26 3 -19 -3
-22 -50 -27 -79 -10 -143 -8 -154 3 -15 15 -77 -86 -68 -112 9 -31 46 -18 68
23 19 34 23 37 80 42 34 4 76 9 94 13 l32 7 0 -74 c0 -87 12 -115 35 -85 10
13 15 44 15 92 l0 72 48 6 c186 22 200 20 158 -23 l-26 -27 81 10 c93 10 98
21 33 71 l-41 31 -104 -17 c-139 -24 -144 -24 -144 5 0 22 6 25 73 36 74 12
87 21 53 40 -24 13 -37 12 -189 -14z"/>
<path d="M531 689 c-18 -21 -30 -39 -26 -39 21 0 115 33 115 40 0 9 -40 41
-50 39 -3 0 -20 -18 -39 -40z"/>
<path d="M245 680 c11 -17 66 -42 81 -36 12 4 12 10 4 26 -8 15 -21 20 -51 20
-24 0 -38 -4 -34 -10z"/>
<path d="M276 609 c-80 -22 -83 -24 -66 -44 19 -23 40 -18 98 20 75 51 73 53
-32 24z"/>
<path d="M490 625 c0 -8 87 -55 103 -55 26 0 29 18 7 40 -14 14 -33 20 -65 20
-25 0 -45 -2 -45 -5z"/>
<path d="M329 553 c-1 -5 0 -20 1 -34 1 -25 -2 -27 -42 -30 -39 -4 -44 -2 -44
16 1 15 -6 21 -27 23 -25 3 -26 2 -17 -22 9 -23 7 -25 -28 -28 -48 -4 -48 -22
1 -26 33 -3 37 -6 37 -32 0 -33 -14 -40 -78 -40 -61 0 -83 -13 -53 -30 18 -9
47 -8 134 4 62 8 136 18 165 21 28 4 52 10 52 15 0 10 -26 20 -51 20 -21 0
-22 3 -13 38 4 12 14 22 25 22 27 0 32 17 9 30 -11 6 -18 15 -15 20 3 5 -5 16
-17 24 -25 17 -37 20 -39 9z m1 -123 c0 -19 -5 -30 -14 -30 -7 0 -26 -3 -42
-6 -27 -5 -29 -3 -28 25 1 17 2 33 3 36 0 3 19 5 41 5 38 0 40 -2 40 -30z"/>
<path d="M520 540 c0 -31 -28 -107 -60 -161 -34 -57 -26 -63 21 -17 25 23 44
32 72 33 l37 1 0 -50 c0 -28 -5 -68 -11 -90 l-11 -38 -32 31 c-18 17 -43 31
-56 31 -22 0 -19 -4 25 -44 l50 -44 -30 -32 c-16 -18 -48 -41 -70 -51 -38 -17
-38 -19 -12 -19 35 0 86 22 112 48 l20 20 53 -52 c47 -46 57 -51 95 -50 49 1
117 21 117 35 0 5 -8 9 -17 9 -34 0 -139 37 -180 63 -40 25 -42 29 -32 54 14
36 32 131 31 164 -1 23 4 27 45 35 26 5 48 14 50 21 6 18 -32 25 -75 13 -22
-5 -60 -14 -85 -19 l-46 -8 20 38 c24 47 24 68 2 85 -25 19 -33 17 -33 -6z"/>
<path d="M305 343 c-22 -7 -60 -16 -85 -18 -31 -3 -44 -8 -41 -17 2 -7 6 -44
8 -83 4 -59 1 -77 -20 -117 -13 -27 -21 -48 -17 -48 11 0 70 68 70 81 0 6 6 7
17 0 13 -7 28 -2 59 20 24 16 44 29 47 29 2 0 1 -17 -2 -38 -6 -32 -10 -37
-34 -37 -34 1 -33 -2 4 -45 l30 -35 20 24 c16 19 19 39 19 116 0 52 4 105 9
118 8 19 6 28 -7 39 -29 25 -36 26 -77 11z m35 -81 l6 -52 -45 -15 c-70 -24
-77 -21 -73 25 l4 39 39 -20 c41 -20 59 -18 59 6 0 10 -17 17 -50 21 -62 8
-66 29 -7 42 23 5 47 9 52 8 6 -2 12 -26 15 -54z"/>
</g>
</svg>
