<?xml version="1.0" standalone="no"?>
<!DOCTYPE svg PUBLIC "-//W3C//DTD SVG 20010904//EN"
 "http://www.w3.org/TR/2001/REC-SVG-20010904/DTD/svg10.dtd">
<svg version="1.0" xmlns="http://www.w3.org/2000/svg"
 width="96.000000pt" height="68.000000pt" viewBox="0 0 96.000000 68.000000"
 preserveAspectRatio="xMidYMid meet">
<metadata>
Created by potrace 1.16, written by Peter Selinger 2001-2019
</metadata>
<g transform="translate(0.000000,68.000000) scale(0.100000,-0.100000)"
fill="#000000" stroke="none">
<path d="M174 476 c-60 -11 -61 -12 -52 -36 6 -14 8 -70 5 -127 -5 -85 -3
-103 8 -103 8 0 19 9 24 19 15 27 111 35 111 9 0 -11 8 -18 19 -18 18 0 20 10
23 123 5 159 4 159 -138 133z m94 -57 c3 -35 2 -37 -35 -43 -21 -4 -46 -9 -55
-12 -15 -5 -18 1 -18 39 0 24 3 47 7 51 4 4 28 6 53 4 44 -3 45 -4 48 -39z m2
-98 c0 -37 -2 -39 -37 -45 -21 -4 -46 -9 -55 -12 -15 -5 -18 1 -18 35 0 43 3
45 75 54 17 2 31 5 33 6 1 0 2 -16 2 -38z"/>
</g>
</svg>
