<?xml version="1.0" standalone="no"?>
<!DOCTYPE svg PUBLIC "-//W3C//DTD SVG 20010904//EN"
 "http://www.w3.org/TR/2001/REC-SVG-20010904/DTD/svg10.dtd">
<svg version="1.0" xmlns="http://www.w3.org/2000/svg"
 width="96.000000pt" height="68.000000pt" viewBox="0 0 96.000000 68.000000"
 preserveAspectRatio="xMidYMid meet">
<metadata>
Created by potrace 1.16, written by Peter Selinger 2001-2019
</metadata>
<g transform="translate(0.000000,68.000000) scale(0.100000,-0.100000)"
fill="#000000" stroke="none">
<path d="M695 418 c-33 -5 -121 -10 -195 -11 l-136 -2 -17 -36 c-9 -19 -17
-41 -17 -47 0 -23 30 -12 44 16 14 27 16 28 181 46 91 10 169 15 173 12 3 -4
0 -16 -7 -28 -13 -21 -12 -21 35 -14 27 4 55 8 62 9 6 0 12 4 12 8 0 9 -59 59
-68 58 -4 -1 -34 -6 -67 -11z"/>
</g>
</svg>
