<?xml version="1.0" standalone="no"?>
<!DOCTYPE svg PUBLIC "-//W3C//DTD SVG 20010904//EN"
 "http://www.w3.org/TR/2001/REC-SVG-20010904/DTD/svg10.dtd">
<svg version="1.0" xmlns="http://www.w3.org/2000/svg"
 width="90.000000pt" height="92.000000pt" viewBox="0 0 90.000000 92.000000"
 preserveAspectRatio="xMidYMid meet">
<metadata>
Created by potrace 1.16, written by Peter Selinger 2001-2019
</metadata>
<g transform="translate(0.000000,92.000000) scale(0.100000,-0.100000)"
fill="#000000" stroke="none">
<path d="M623 804 c-24 -7 -78 -18 -120 -25 -110 -16 -112 -17 -88 -35 12 -10
36 -14 62 -12 l41 3 10 -48 c5 -26 6 -50 1 -53 -4 -2 -42 -5 -84 -6 -41 -1
-75 -3 -75 -4 0 -1 7 -17 15 -36 8 -20 17 -66 21 -104 8 -80 20 -112 37 -95 6
6 29 11 50 11 32 0 38 -3 33 -16 -3 -9 -6 -23 -6 -32 0 -9 -4 -23 -9 -31 -7
-11 -14 -10 -39 8 -43 30 -100 53 -106 42 -4 -5 13 -20 36 -34 24 -14 54 -37
67 -51 l24 -25 -37 -45 c-25 -31 -60 -57 -111 -82 -42 -21 -73 -39 -71 -41 2
-2 25 1 52 7 66 15 140 57 175 99 l28 35 69 -66 c38 -37 81 -70 96 -74 28 -7
143 1 171 12 28 11 16 19 -69 46 -96 30 -181 70 -219 101 l-25 22 16 68 16 67
41 0 c23 0 46 -5 52 -11 25 -25 43 2 77 114 20 62 36 116 36 120 0 4 -14 14
-32 23 -26 14 -40 14 -86 5 -85 -17 -85 -17 -79 28 2 22 0 44 -5 49 -6 6 7 12
38 17 73 11 99 23 85 39 -18 21 -42 24 -88 10z m85 -210 l-3 -36 -58 -2 -57
-1 0 32 c0 34 9 38 88 42 32 1 33 0 30 -35z m-168 -6 c0 -36 -14 -49 -59 -55
l-41 -6 0 36 c0 33 3 36 33 40 66 8 67 8 67 -15z m154 -95 c-3 -21 -9 -41 -13
-44 -3 -3 -27 -4 -53 -1 -42 3 -48 7 -48 27 0 29 17 42 60 48 19 2 41 5 48 5
10 2 11 -8 6 -35z m-166 -25 c-3 -30 -6 -33 -40 -36 -37 -3 -38 -3 -38 32 0
35 1 36 41 36 39 0 40 -1 37 -32z"/>
<path d="M272 729 c-13 -5 -64 -16 -113 -25 -94 -18 -114 -37 -43 -42 62 -4
63 -6 53 -54 -13 -55 -86 -208 -133 -277 -20 -29 -36 -60 -36 -69 0 -24 65 42
111 111 42 65 41 66 54 -35 6 -47 21 -70 34 -50 3 5 37 13 74 17 45 5 65 11
59 17 -7 7 -4 31 7 72 24 82 24 79 22 93 -2 20 -63 26 -103 9 -21 -9 -48 -16
-62 -16 l-25 0 35 77 c27 59 33 82 25 94 -9 15 -2 19 53 29 82 15 98 25 72 45
-22 17 -50 18 -84 4z m18 -319 c0 -57 -1 -60 -27 -66 -16 -3 -35 -8 -45 -10
-13 -4 -17 5 -20 55 l-3 60 35 10 c60 16 60 16 60 -49z"/>
</g>
</svg>
