<?xml version="1.0" standalone="no"?>
<!DOCTYPE svg PUBLIC "-//W3C//DTD SVG 20010904//EN"
 "http://www.w3.org/TR/2001/REC-SVG-20010904/DTD/svg10.dtd">
<svg version="1.0" xmlns="http://www.w3.org/2000/svg"
 width="96.000000pt" height="68.000000pt" viewBox="0 0 96.000000 68.000000"
 preserveAspectRatio="xMidYMid meet">
<metadata>
Created by potrace 1.16, written by Peter Selinger 2001-2019
</metadata>
<g transform="translate(0.000000,68.000000) scale(0.100000,-0.100000)"
fill="#000000" stroke="none">
<path d="M634 560 c-11 -4 -47 -11 -80 -15 -90 -10 -107 -19 -49 -25 49 -5 50
-6 53 -41 l3 -37 -53 -6 c-30 -4 -62 -4 -71 0 -18 6 -24 -10 -8 -21 5 -3 15
-31 22 -63 16 -75 27 -98 42 -83 6 6 24 11 39 11 22 0 28 -4 28 -22 0 -50 -15
-55 -71 -24 -29 16 -55 24 -60 19 -4 -4 15 -21 46 -37 30 -16 55 -32 55 -36 0
-20 -41 -53 -105 -85 l-70 -36 45 7 c52 7 85 23 129 60 l32 27 55 -39 c89 -63
99 -67 170 -59 35 3 66 10 69 14 2 5 -33 18 -78 30 -107 30 -200 78 -191 100
3 9 10 30 15 47 11 37 45 50 83 32 15 -6 28 -9 31 -6 3 3 21 42 40 86 42 99
37 106 -65 100 l-70 -4 0 28 c0 15 0 31 0 36 -1 4 20 10 46 14 53 8 65 15 44
28 -18 12 -48 12 -76 0z m81 -149 c0 -21 -4 -24 -50 -25 -41 -1 -50 2 -53 18
-5 26 16 37 63 34 35 -3 40 -6 40 -27z m-150 -16 c0 -16 -8 -21 -41 -23 -34
-3 -42 0 -47 17 -7 28 1 32 48 29 32 -2 40 -7 40 -23z m136 -56 c-3 -16 -9
-30 -14 -30 -4 1 -23 1 -42 1 -30 0 -35 3 -35 24 0 20 6 25 33 29 68 8 65 9
58 -24z m-137 -11 c-8 -28 -6 -26 -24 -28 -38 -6 -50 1 -50 25 0 23 4 25 41
25 37 0 40 -2 33 -22z"/>
<path d="M338 515 c-2 -3 -41 -10 -87 -17 -90 -14 -110 -31 -43 -36 23 -2 42
-7 42 -12 0 -44 -116 -239 -156 -263 -19 -11 -18 -27 1 -27 8 0 42 27 75 60
33 33 62 60 65 60 3 0 5 -9 5 -19 0 -11 5 -32 10 -47 8 -21 14 -24 22 -16 7 7
35 12 62 12 49 0 51 1 53 30 1 16 9 43 17 59 14 26 14 30 1 41 -14 12 -33 11
-117 -5 -16 -3 -28 -3 -28 0 0 3 11 28 25 55 14 27 25 56 25 63 0 10 17 17 52
21 63 9 72 14 57 32 -11 13 -70 20 -81 9z m18 -228 c-3 -16 -6 -36 -6 -43 0
-18 -69 -19 -74 -1 -2 6 -7 26 -13 43 -10 30 -9 30 26 33 19 1 37 4 39 6 2 2
11 1 19 -2 11 -4 13 -14 9 -36z"/>
</g>
</svg>
