<?xml version="1.0" standalone="no"?>
<!DOCTYPE svg PUBLIC "-//W3C//DTD SVG 20010904//EN"
 "http://www.w3.org/TR/2001/REC-SVG-20010904/DTD/svg10.dtd">
<svg version="1.0" xmlns="http://www.w3.org/2000/svg"
 width="96.000000pt" height="68.000000pt" viewBox="0 0 96.000000 68.000000"
 preserveAspectRatio="xMidYMid meet">
<metadata>
Created by potrace 1.16, written by Peter Selinger 2001-2019
</metadata>
<g transform="translate(0.000000,68.000000) scale(0.100000,-0.100000)"
fill="#000000" stroke="none">
<path d="M612 170 c1 -33 5 -60 9 -60 5 0 4 -9 -3 -20 -7 -11 -19 -18 -25 -15
-10 3 -10 0 0 -15 16 -26 44 -25 52 2 12 35 13 108 3 102 -6 -4 -5 3 2 15 9
17 9 26 -1 37 -25 30 -37 16 -37 -46z m36 25 c-3 -3 -9 2 -12 12 -6 14 -5 15
5 6 7 -7 10 -15 7 -18z"/>
<path d="M756 148 c16 -18 38 -41 49 -51 19 -17 20 -17 26 0 7 18 -4 37 -21
39 -6 1 -16 2 -22 3 -10 1 -10 3 0 10 10 6 5 11 -19 20 -45 16 -46 15 -13 -21z"/>
<path d="M506 155 c5 -11 2 -14 -12 -9 -11 4 -16 4 -12 0 4 -5 -5 -19 -20 -32
-15 -13 -24 -24 -20 -24 4 0 13 6 20 13 7 7 25 20 41 30 29 19 36 37 12 37 -9
0 -12 -6 -9 -15z"/>
</g>
</svg>
