<?xml version="1.0" standalone="no"?>
<!DOCTYPE svg PUBLIC "-//W3C//DTD SVG 20010904//EN"
 "http://www.w3.org/TR/2001/REC-SVG-20010904/DTD/svg10.dtd">
<svg version="1.0" xmlns="http://www.w3.org/2000/svg"
 width="90.000000pt" height="92.000000pt" viewBox="0 0 90.000000 92.000000"
 preserveAspectRatio="xMidYMid meet">
<metadata>
Created by potrace 1.16, written by Peter Selinger 2001-2019
</metadata>
<g transform="translate(0.000000,92.000000) scale(0.100000,-0.100000)"
fill="#000000" stroke="none">
<path d="M385 863 c-23 -54 -80 -119 -131 -149 -46 -27 -54 -47 -31 -78 12
-16 17 -17 67 -3 30 9 109 25 175 38 l120 22 35 -32 c33 -29 36 -30 48 -14 13
19 9 58 -10 80 -14 17 -112 63 -134 63 -14 0 -12 -6 11 -30 16 -16 26 -32 23
-35 -5 -5 -181 -24 -228 -25 -21 0 -14 9 48 66 75 68 85 90 54 117 -26 24 -30
22 -47 -20z"/>
<path d="M427 585 c7 -72 9 -70 -71 -79 l-50 -6 22 23 c33 35 26 56 -25 71
-19 6 -23 2 -29 -31 -3 -21 -28 -71 -55 -110 -27 -40 -45 -73 -40 -73 11 0 59
38 91 71 23 25 29 26 93 22 l67 -5 0 -53 0 -52 -77 -8 c-43 -4 -120 -10 -172
-14 -105 -7 -126 -21 -67 -46 33 -14 45 -14 135 5 55 11 118 20 140 20 l41 0
0 -134 c0 -131 4 -166 20 -166 14 0 30 113 30 211 l0 99 168 2 c138 3 167 6
167 17 0 8 -15 23 -33 34 -31 18 -36 18 -141 3 -152 -22 -165 -22 -157 7 3 12
6 36 6 54 0 26 4 32 28 37 15 3 54 10 87 17 l59 11 -24 20 c-18 14 -32 18 -55
13 -16 -3 -45 -9 -64 -12 l-34 -6 7 46 c7 44 6 47 -23 61 -48 25 -51 22 -44
-49z"/>
</g>
</svg>
