<?xml version="1.0" standalone="no"?>
<!DOCTYPE svg PUBLIC "-//W3C//DTD SVG 20010904//EN"
 "http://www.w3.org/TR/2001/REC-SVG-20010904/DTD/svg10.dtd">
<svg version="1.0" xmlns="http://www.w3.org/2000/svg"
 width="96.000000pt" height="68.000000pt" viewBox="0 0 96.000000 68.000000"
 preserveAspectRatio="xMidYMid meet">
<metadata>
Created by potrace 1.16, written by Peter Selinger 2001-2019
</metadata>
<g transform="translate(0.000000,68.000000) scale(0.100000,-0.100000)"
fill="#000000" stroke="none">
<path d="M559 283 c-1 -5 -1 -15 0 -24 2 -18 -52 -29 -140 -29 -27 0 -49 -4
-49 -9 0 -14 58 -19 112 -9 28 5 53 7 56 4 7 -8 -73 -81 -130 -118 -27 -17
-46 -33 -44 -36 9 -8 93 37 144 77 l52 41 0 -72 c0 -75 10 -106 29 -94 7 4 11
39 11 87 0 43 4 79 8 79 4 0 32 -25 60 -55 51 -53 54 -55 106 -55 29 0 56 3
59 7 4 3 -25 19 -65 35 -77 31 -172 94 -162 109 3 5 53 9 112 9 85 0 103 2 93
13 -8 8 -41 11 -107 9 -75 -2 -94 0 -94 12 0 19 -48 37 -51 19z"/>
</g>
</svg>
