<?xml version="1.0" standalone="no"?>
<!DOCTYPE svg PUBLIC "-//W3C//DTD SVG 20010904//EN"
 "http://www.w3.org/TR/2001/REC-SVG-20010904/DTD/svg10.dtd">
<svg version="1.0" xmlns="http://www.w3.org/2000/svg"
 width="96.000000pt" height="68.000000pt" viewBox="0 0 96.000000 68.000000"
 preserveAspectRatio="xMidYMid meet">
<metadata>
Created by potrace 1.16, written by Peter Selinger 2001-2019
</metadata>
<g transform="translate(0.000000,68.000000) scale(0.100000,-0.100000)"
fill="#000000" stroke="none">
<path d="M472 580 c25 -34 68 -42 68 -12 0 20 -38 42 -71 42 -19 0 -19 -1 3
-30z"/>
<path d="M410 525 c-102 -13 -187 -23 -189 -24 -3 -1 4 -7 14 -15 16 -12 18
-23 12 -107 -9 -123 -39 -219 -96 -304 -46 -68 -46 -68 -23 -56 36 19 90 92
116 156 14 35 34 116 45 181 11 64 24 121 28 125 4 4 76 13 158 19 256 19 263
20 240 36 -25 18 -79 16 -305 -11z"/>
</g>
</svg>
