<?xml version="1.0" standalone="no"?>
<!DOCTYPE svg PUBLIC "-//W3C//DTD SVG 20010904//EN"
 "http://www.w3.org/TR/2001/REC-SVG-20010904/DTD/svg10.dtd">
<svg version="1.0" xmlns="http://www.w3.org/2000/svg"
 width="96.000000pt" height="68.000000pt" viewBox="0 0 96.000000 68.000000"
 preserveAspectRatio="xMidYMid meet">
<metadata>
Created by potrace 1.16, written by Peter Selinger 2001-2019
</metadata>
<g transform="translate(0.000000,68.000000) scale(0.100000,-0.100000)"
fill="#000000" stroke="none">
<path d="M216 523 c4 -10 10 -51 12 -90 l4 -73 -46 0 c-24 0 -48 -4 -51 -10
-4 -6 13 -10 43 -10 57 0 62 -6 62 -79 l0 -47 -53 -17 c-30 -9 -62 -17 -71
-17 -26 0 -14 -24 18 -35 23 -8 40 -3 104 30 42 21 91 47 107 58 28 18 28 18
5 13 -14 -3 -35 -9 -47 -12 -22 -6 -23 -4 -23 50 0 61 0 60 63 71 50 8 38 25
-19 25 l-44 0 0 44 c0 25 4 56 10 70 8 21 6 27 -10 36 -10 5 -31 10 -45 10
-22 0 -26 -3 -19 -17z"/>
</g>
</svg>
