<?xml version="1.0" standalone="no"?>
<!DOCTYPE svg PUBLIC "-//W3C//DTD SVG 20010904//EN"
 "http://www.w3.org/TR/2001/REC-SVG-20010904/DTD/svg10.dtd">
<svg version="1.0" xmlns="http://www.w3.org/2000/svg"
 width="96.000000pt" height="68.000000pt" viewBox="0 0 96.000000 68.000000"
 preserveAspectRatio="xMidYMid meet">
<metadata>
Created by potrace 1.16, written by Peter Selinger 2001-2019
</metadata>
<g transform="translate(0.000000,68.000000) scale(0.100000,-0.100000)"
fill="#000000" stroke="none">
<path d="M224 568 c4 -13 10 -66 13 -120 l6 -96 -59 -7 c-84 -9 -104 -14 -104
-27 0 -11 87 -6 138 8 20 6 22 3 22 -29 0 -20 -5 -81 -11 -136 -8 -74 -8 -105
1 -121 9 -17 14 -19 25 -10 11 9 15 48 17 159 l3 146 30 3 c17 2 37 5 45 8 24
8 -7 22 -41 18 -33 -4 -34 -4 -19 116 8 69 8 76 -12 93 -11 9 -29 17 -40 17
-16 0 -19 -4 -14 -22z"/>
<path d="M597 501 l6 -81 -26 0 c-22 0 -25 4 -24 28 3 40 -35 38 -43 -3 -4
-16 -12 -41 -19 -53 -17 -32 -4 -42 19 -14 13 15 29 22 54 22 34 0 36 -2 36
-35 0 -34 -2 -35 -37 -36 -21 -1 -51 -4 -68 -8 -29 -7 -29 -7 -6 -13 13 -4 71
0 130 7 58 8 127 15 154 15 49 0 63 14 26 25 -19 6 -84 1 -136 -12 -20 -4 -23
-1 -23 26 0 28 4 32 45 42 58 15 60 34 2 26 -43 -6 -43 -6 -45 27 -1 19 2 46
8 61 12 32 6 41 -32 50 l-26 7 5 -81z"/>
<path d="M322 458 c-12 -23 -20 -43 -18 -46 8 -7 43 8 71 30 25 19 25 21 9 39
-25 28 -36 24 -62 -23z"/>
<path d="M120 451 c0 -18 42 -61 60 -61 20 0 32 21 21 38 -6 11 -54 32 -72 32
-5 0 -9 -4 -9 -9z"/>
<path d="M379 392 c14 -27 39 -45 51 -37 18 11 10 35 -16 45 -38 15 -46 13
-35 -8z"/>
<path d="M385 290 c-39 -18 -39 -19 -11 -19 26 -1 28 -3 23 -31 -4 -19 -1 -34
8 -44 19 -19 24 -60 8 -62 -7 -1 -27 -2 -44 -3 -56 -2 -19 -21 41 -21 33 0 82
-8 112 -19 77 -28 163 -51 190 -51 23 0 123 31 134 42 3 3 -48 9 -113 13 -65
4 -156 14 -203 24 -76 15 -85 19 -86 39 -1 12 -9 31 -19 42 -17 18 -16 21 9
51 21 24 24 34 15 45 -14 17 -14 17 -64 -6z"/>
<path d="M177 263 c-8 -21 -31 -62 -50 -90 -40 -59 -37 -68 8 -23 37 36 45 46
69 89 16 29 17 35 4 48 -13 13 -17 10 -31 -24z"/>
<path d="M300 275 c0 -15 35 -73 42 -69 13 8 9 30 -11 52 -17 21 -31 28 -31
17z"/>
<path d="M625 269 c-16 -6 -49 -7 -72 -5 -25 3 -43 2 -43 -4 0 -6 5 -10 10
-10 6 0 10 -8 10 -19 0 -10 7 -34 15 -54 15 -36 22 -37 98 -19 4 1 21 2 38 2
20 0 29 4 26 13 -2 6 5 29 15 51 16 31 17 40 6 47 -17 11 -65 10 -103 -2z m45
-49 c0 -23 -6 -33 -25 -40 -24 -9 -60 -9 -68 1 -2 2 -7 16 -11 31 -7 29 3 34
72 37 29 1 32 -2 32 -29z"/>
</g>
</svg>
