<?xml version="1.0" standalone="no"?>
<!DOCTYPE svg PUBLIC "-//W3C//DTD SVG 20010904//EN"
 "http://www.w3.org/TR/2001/REC-SVG-20010904/DTD/svg10.dtd">
<svg version="1.0" xmlns="http://www.w3.org/2000/svg"
 width="96.000000pt" height="68.000000pt" viewBox="0 0 96.000000 68.000000"
 preserveAspectRatio="xMidYMid meet">
<metadata>
Created by potrace 1.16, written by Peter Selinger 2001-2019
</metadata>
<g transform="translate(0.000000,68.000000) scale(0.100000,-0.100000)"
fill="#000000" stroke="none">
<path d="M378 393 c15 -28 39 -46 52 -38 22 14 5 41 -34 51 -26 6 -27 5 -18
-13z"/>
<path d="M380 292 l-45 -17 33 -3 c30 -3 33 -6 28 -26 -3 -13 3 -39 15 -62
l20 -39 -48 -11 c-59 -14 -41 -25 45 -28 32 -1 103 -16 162 -35 114 -36 145
-36 220 -3 l45 19 -120 8 c-66 4 -158 14 -204 23 -75 15 -85 20 -86 39 -1 13
-10 32 -20 43 -18 20 -18 21 8 48 31 32 34 47 11 56 -9 3 -16 6 -17 5 -1 0
-22 -8 -47 -17z"/>
</g>
</svg>
