<?xml version="1.0" standalone="no"?>
<!DOCTYPE svg PUBLIC "-//W3C//DTD SVG 20010904//EN"
 "http://www.w3.org/TR/2001/REC-SVG-20010904/DTD/svg10.dtd">
<svg version="1.0" xmlns="http://www.w3.org/2000/svg"
 width="96.000000pt" height="68.000000pt" viewBox="0 0 96.000000 68.000000"
 preserveAspectRatio="xMidYMid meet">
<metadata>
Created by potrace 1.16, written by Peter Selinger 2001-2019
</metadata>
<g transform="translate(0.000000,68.000000) scale(0.100000,-0.100000)"
fill="#000000" stroke="none">
<path d="M540 586 c0 -53 -19 -76 -62 -76 -40 0 -32 -24 10 -28 l30 -3 -14
-36 c-23 -54 -7 -53 42 1 42 48 45 50 106 54 88 5 99 10 64 29 -20 10 -42 13
-72 8 l-44 -6 17 35 c16 35 16 37 -3 51 -10 8 -31 15 -46 15 -26 0 -28 -3 -28
-44z"/>
<path d="M252 566 c1 -14 5 -23 8 -21 3 2 11 -5 18 -15 16 -26 4 -31 -73 -34
-36 -1 -67 -5 -70 -8 -3 -3 6 -16 22 -28 28 -22 46 -22 111 -2 30 10 33 9 48
-19 20 -40 40 -32 36 13 -3 31 0 36 22 42 36 9 33 26 -4 26 -26 0 -31 5 -36
29 -6 28 -26 41 -66 41 -13 0 -17 -7 -16 -24z"/>
<path d="M507 373 c-4 -3 -7 -19 -7 -34 0 -35 -30 -99 -45 -99 -7 0 -42 23
-79 51 -54 40 -73 50 -99 47 l-32 -3 50 -27 c46 -25 125 -91 125 -104 0 -25
-100 -81 -192 -108 l-83 -25 50 0 c82 -1 159 25 233 77 36 26 33 27 96 -31 45
-42 100 -67 144 -67 58 0 132 12 132 21 0 4 -50 24 -111 44 -100 33 -189 77
-189 94 0 4 6 15 14 26 27 39 56 96 56 110 0 23 -48 44 -63 28z"/>
</g>
</svg>
