<?xml version="1.0" standalone="no"?>
<!DOCTYPE svg PUBLIC "-//W3C//DTD SVG 20010904//EN"
 "http://www.w3.org/TR/2001/REC-SVG-20010904/DTD/svg10.dtd">
<svg version="1.0" xmlns="http://www.w3.org/2000/svg"
 width="96.000000pt" height="68.000000pt" viewBox="0 0 96.000000 68.000000"
 preserveAspectRatio="xMidYMid meet">
<metadata>
Created by potrace 1.16, written by Peter Selinger 2001-2019
</metadata>
<g transform="translate(0.000000,68.000000) scale(0.100000,-0.100000)"
fill="#000000" stroke="none">
<path d="M250 542 c0 -21 -46 -114 -79 -161 -34 -48 -20 -57 27 -17 34 28 47
33 65 27 17 -7 23 -17 25 -53 l3 -44 -83 -14 c-46 -7 -92 -16 -103 -20 -19 -7
-19 -8 5 -19 24 -11 90 -1 153 24 50 20 -19 -114 -81 -157 -57 -39 -46 -48 15
-13 52 31 86 64 109 107 8 16 17 28 21 28 3 0 21 -18 40 -40 37 -43 63 -52 63
-22 0 21 -33 53 -72 70 -16 6 -28 18 -28 26 0 16 12 21 73 32 58 10 46 28 -14
21 l-52 -6 6 44 c5 32 3 45 -6 46 -24 1 29 18 61 18 38 1 42 18 7 31 -17 6
-40 5 -76 -6 -28 -8 -53 -13 -56 -10 -3 3 6 24 21 46 31 47 32 56 7 70 -30 15
-51 12 -51 -8z"/>
<path d="M558 502 c-48 -8 -85 -19 -82 -23 7 -12 84 -11 164 1 84 14 102 19
95 31 -8 12 -72 9 -177 -9z"/>
<path d="M610 394 c-36 -8 -84 -13 -107 -12 -23 1 -45 -1 -49 -5 -4 -4 -2 -7
4 -7 10 0 41 -90 47 -142 2 -15 13 -44 24 -66 11 -22 17 -42 14 -46 -4 -3 -40
-6 -81 -6 -54 0 -73 -3 -69 -13 4 -13 2 -13 280 -1 97 4 177 10 177 15 0 17
-66 29 -117 20 -29 -4 -55 -6 -57 -4 -3 3 10 28 28 56 32 50 33 53 17 77 -9
14 -11 21 -3 16 8 -5 12 -1 12 11 0 10 9 37 20 58 19 38 19 41 3 52 -21 16
-58 15 -143 -3z m79 -31 c-2 -40 -16 -66 -34 -69 -11 -2 -45 -6 -76 -10 -53
-6 -56 -5 -62 17 -14 52 -10 57 56 67 100 15 117 14 116 -5z m-16 -128 c-1
-17 -7 -49 -14 -72 -11 -41 -13 -43 -51 -43 -25 0 -38 4 -37 13 4 35 -4 59
-28 81 -35 33 -24 44 47 49 83 5 85 5 83 -28z"/>
</g>
</svg>
