<?xml version="1.0" standalone="no"?>
<!DOCTYPE svg PUBLIC "-//W3C//DTD SVG 20010904//EN"
 "http://www.w3.org/TR/2001/REC-SVG-20010904/DTD/svg10.dtd">
<svg version="1.0" xmlns="http://www.w3.org/2000/svg"
 width="90.000000pt" height="92.000000pt" viewBox="0 0 90.000000 92.000000"
 preserveAspectRatio="xMidYMid meet">
<metadata>
Created by potrace 1.16, written by Peter Selinger 2001-2019
</metadata>
<g transform="translate(0.000000,92.000000) scale(0.100000,-0.100000)"
fill="#000000" stroke="none">
<path d="M330 841 c0 -6 13 -32 29 -60 16 -27 27 -52 24 -55 -3 -3 -32 -8 -65
-12 -70 -8 -73 -28 -4 -32 54 -4 205 23 220 38 18 18 -15 31 -61 26 -42 -5
-43 -5 -43 23 0 16 -6 34 -13 40 -23 18 -87 42 -87 32z"/>
<path d="M620 777 c0 -57 -34 -187 -66 -248 -29 -59 -17 -63 27 -11 27 32 37
37 62 34 l30 -5 -5 -87 c-7 -116 -12 -122 -59 -71 -39 42 -53 49 -64 31 -3 -5
-2 -10 4 -10 5 0 26 -20 46 -45 29 -35 36 -50 31 -70 -9 -35 -62 -93 -109
-116 -50 -26 -43 -33 19 -18 34 9 60 25 89 54 l41 42 43 -65 43 -65 56 7 c31
4 61 11 65 15 5 5 -19 23 -53 42 -33 18 -78 49 -100 70 l-38 37 13 59 c29 128
32 162 18 183 -13 18 -11 20 14 25 72 16 93 38 51 54 -16 6 -44 1 -90 -15
l-68 -23 14 27 c8 15 24 61 36 102 l22 74 -22 18 c-37 30 -50 23 -50 -25z"/>
<path d="M165 665 c-27 -7 -72 -16 -99 -20 -55 -8 -51 -25 7 -28 20 -2 39 -5
42 -9 10 -10 -44 -159 -81 -221 -43 -74 -43 -90 0 -48 39 37 39 37 51 -54 9
-73 11 -74 79 -61 58 12 59 13 63 50 2 20 11 58 19 84 15 43 15 47 -2 60 -12
8 -31 11 -51 8 -18 -3 -49 -9 -68 -12 l-35 -7 41 88 c33 70 39 92 31 106 -12
19 2 29 38 29 10 0 31 5 47 11 27 10 27 11 9 25 -23 16 -25 16 -91 -1z m25
-335 c0 -56 -2 -61 -26 -70 -40 -15 -41 -14 -47 52 -6 68 -1 78 46 78 26 0 27
-1 27 -60z"/>
<path d="M390 624 c-25 -7 -60 -13 -79 -13 -26 -1 -31 -4 -23 -14 7 -7 17 -38
23 -68 10 -49 29 -89 29 -62 0 6 30 14 71 18 49 5 69 11 66 19 -3 7 6 35 19
62 22 45 23 50 7 62 -20 15 -53 14 -113 -4z m60 -53 c0 -36 -15 -48 -68 -57
-37 -6 -42 -4 -42 12 0 11 -3 29 -6 41 -6 23 7 28 84 32 29 1 32 -2 32 -28z"/>
<path d="M410 436 c-20 -8 -55 -17 -79 -21 -39 -6 -42 -9 -28 -22 13 -14 20
-14 60 2 25 9 52 15 60 13 13 -3 13 -7 0 -41 -10 -25 -20 -36 -29 -33 -18 7
-18 1 2 -30 9 -13 15 -26 13 -28 -2 -2 -41 -16 -86 -30 -46 -15 -83 -31 -83
-36 0 -4 11 -15 25 -24 25 -17 28 -16 83 18 56 34 57 35 60 12 2 -12 -2 -35
-8 -50 -9 -26 -14 -28 -47 -23 l-36 6 43 -44 c33 -34 47 -42 57 -34 21 18 36
89 29 141 -7 47 -7 47 33 68 36 18 61 40 46 40 -3 0 -22 -7 -42 -15 -46 -19
-50 -19 -56 5 -4 14 6 28 39 52 24 18 44 39 44 45 0 10 -51 45 -62 42 -2 0
-19 -6 -38 -13z"/>
</g>
</svg>
