<?xml version="1.0" standalone="no"?>
<!DOCTYPE svg PUBLIC "-//W3C//DTD SVG 20010904//EN"
 "http://www.w3.org/TR/2001/REC-SVG-20010904/DTD/svg10.dtd">
<svg version="1.0" xmlns="http://www.w3.org/2000/svg"
 width="90.000000pt" height="92.000000pt" viewBox="0 0 90.000000 92.000000"
 preserveAspectRatio="xMidYMid meet">
<metadata>
Created by potrace 1.16, written by Peter Selinger 2001-2019
</metadata>
<g transform="translate(0.000000,92.000000) scale(0.100000,-0.100000)"
fill="#000000" stroke="none">
<path d="M225 801 c-13 -80 -96 -225 -182 -321 -25 -28 -43 -53 -40 -57 9 -9
46 18 103 76 39 39 53 48 58 36 8 -22 -2 -229 -16 -307 -12 -71 0 -128 27
-128 18 0 25 47 26 184 1 66 4 148 8 181 6 48 3 66 -11 90 l-17 31 41 69 c22
39 50 83 60 98 24 34 19 51 -21 71 l-29 16 -7 -39z"/>
<path d="M583 804 c-23 -7 -77 -17 -120 -24 -43 -6 -89 -14 -103 -16 -25 -6
-25 -6 -5 -21 14 -10 33 -13 62 -9 45 6 44 7 58 -60 l6 -32 -60 -7 c-33 -4
-74 -4 -92 0 -29 6 -31 5 -24 -11 16 -41 23 -74 30 -145 8 -84 21 -117 38
-100 11 11 97 16 97 5 0 -17 -23 -94 -29 -94 -3 0 -24 12 -45 26 -43 30 -122
46 -114 24 2 -8 18 -18 35 -24 32 -12 103 -57 103 -67 0 -17 -82 -85 -128
-106 -28 -14 -52 -27 -52 -30 0 -9 73 8 115 26 22 10 55 32 72 50 l33 32 67
-54 c97 -78 119 -87 205 -86 147 2 157 24 26 56 -52 13 -131 42 -178 66 -95
48 -93 44 -68 145 l12 54 68 -4 c37 -1 72 2 77 7 6 6 25 53 44 105 19 52 37
102 41 111 5 12 -3 23 -28 39 -37 22 -45 22 -175 -6 -23 -5 -23 -3 -17 35 5
31 2 42 -10 49 -12 7 -2 11 38 15 79 10 121 26 108 42 -17 20 -41 22 -87 9z
m82 -226 c-13 -92 -30 -143 -45 -139 -8 2 -32 4 -52 3 -37 -1 -38 0 -38 37 l0
38 56 6 c31 3 59 8 62 12 14 14 -21 27 -67 24 l-51 -4 0 32 c0 37 7 41 83 42
l59 1 -7 -52z m-185 -2 c0 -33 -1 -34 -51 -40 -28 -4 -53 -5 -55 -3 -2 2 -7
17 -10 34 -7 35 1 39 79 42 36 1 37 0 37 -33z m0 -93 c0 -40 -10 -49 -57 -56
-36 -4 -43 -2 -43 11 0 10 -3 27 -6 39 -6 20 -2 22 42 26 27 2 52 4 57 5 4 1
7 -10 7 -25z"/>
</g>
</svg>
