<?xml version="1.0" standalone="no"?>
<!DOCTYPE svg PUBLIC "-//W3C//DTD SVG 20010904//EN"
 "http://www.w3.org/TR/2001/REC-SVG-20010904/DTD/svg10.dtd">
<svg version="1.0" xmlns="http://www.w3.org/2000/svg"
 width="96.000000pt" height="68.000000pt" viewBox="0 0 96.000000 68.000000"
 preserveAspectRatio="xMidYMid meet">
<metadata>
Created by potrace 1.16, written by Peter Selinger 2001-2019
</metadata>
<g transform="translate(0.000000,68.000000) scale(0.100000,-0.100000)"
fill="#000000" stroke="none">
<path d="M180 522 c0 -18 59 -64 74 -59 23 9 20 33 -6 51 -24 17 -68 22 -68 8z"/>
<path d="M120 404 c0 -16 47 -64 63 -64 37 0 30 45 -8 54 -13 3 -30 9 -39 12
-9 3 -16 2 -16 -2z"/>
<path d="M216 267 c-14 -23 -41 -58 -61 -77 -40 -38 -43 -58 -17 -90 l19 -23
32 69 c50 105 72 164 61 164 -5 0 -20 -19 -34 -43z"/>
</g>
</svg>
