<?xml version="1.0" standalone="no"?>
<!DOCTYPE svg PUBLIC "-//W3C//DTD SVG 20010904//EN"
 "http://www.w3.org/TR/2001/REC-SVG-20010904/DTD/svg10.dtd">
<svg version="1.0" xmlns="http://www.w3.org/2000/svg"
 width="96.000000pt" height="68.000000pt" viewBox="0 0 96.000000 68.000000"
 preserveAspectRatio="xMidYMid meet">
<metadata>
Created by potrace 1.16, written by Peter Selinger 2001-2019
</metadata>
<g transform="translate(0.000000,68.000000) scale(0.100000,-0.100000)"
fill="#000000" stroke="none">
<path d="M560 391 c0 -28 -2 -30 -55 -36 -30 -4 -55 -11 -55 -16 0 -5 25 -9
55 -9 52 0 55 -2 55 -24 0 -23 -5 -25 -67 -32 -91 -9 -92 -9 -99 -17 -7 -7 37
-20 52 -15 10 3 14 -4 14 -26 0 -24 -60 -90 -123 -133 -63 -45 -63 -54 0 -28
72 30 195 157 179 184 -10 15 23 21 151 28 68 3 126 10 129 14 9 15 -46 22
-117 15 l-69 -6 0 30 c0 27 3 30 33 31 17 0 41 4 51 8 19 7 19 8 1 14 -10 4
-33 5 -51 1 -32 -6 -34 -4 -34 20 0 21 -5 26 -25 26 -21 0 -25 -5 -25 -29z"/>
</g>
</svg>
