<?xml version="1.0" standalone="no"?>
<!DOCTYPE svg PUBLIC "-//W3C//DTD SVG 20010904//EN"
 "http://www.w3.org/TR/2001/REC-SVG-20010904/DTD/svg10.dtd">
<svg version="1.0" xmlns="http://www.w3.org/2000/svg"
 width="96.000000pt" height="68.000000pt" viewBox="0 0 96.000000 68.000000"
 preserveAspectRatio="xMidYMid meet">
<metadata>
Created by potrace 1.16, written by Peter Selinger 2001-2019
</metadata>
<g transform="translate(0.000000,68.000000) scale(0.100000,-0.100000)"
fill="#000000" stroke="none">
<path d="M505 529 c-68 -13 -123 -18 -172 -14 -40 2 -73 2 -73 -1 0 -2 9 -14
19 -25 11 -12 25 -50 32 -86 18 -88 24 -94 79 -83 25 5 98 12 162 15 109 6
116 8 106 25 -13 21 11 92 43 126 19 20 19 21 0 38 -28 25 -82 27 -196 5z
m105 -46 c0 -52 -20 -104 -43 -112 -13 -5 -63 -10 -112 -12 l-89 -4 -13 60
c-6 33 -12 63 -13 66 0 7 147 25 223 28 45 1 47 0 47 -26z"/>
</g>
</svg>
