<?xml version="1.0" standalone="no"?>
<!DOCTYPE svg PUBLIC "-//W3C//DTD SVG 20010904//EN"
 "http://www.w3.org/TR/2001/REC-SVG-20010904/DTD/svg10.dtd">
<svg version="1.0" xmlns="http://www.w3.org/2000/svg"
 width="96.000000pt" height="68.000000pt" viewBox="0 0 96.000000 68.000000"
 preserveAspectRatio="xMidYMid meet">
<metadata>
Created by potrace 1.16, written by Peter Selinger 2001-2019
</metadata>
<g transform="translate(0.000000,68.000000) scale(0.100000,-0.100000)"
fill="#000000" stroke="none">
<path d="M545 539 c-57 -10 -141 -18 -195 -17 -62 0 -95 -3 -98 -11 -2 -6 1
-11 7 -11 15 0 32 -36 52 -114 21 -80 29 -92 55 -77 11 6 81 15 157 20 135 8
164 15 139 30 -16 10 1 63 35 109 14 18 22 39 20 46 -4 11 -67 50 -71 45 -1
-1 -46 -10 -101 -20z m60 -39 c9 -15 -14 -107 -30 -120 -8 -6 -56 -14 -108
-17 l-94 -6 -13 51 c-6 28 -10 57 -8 64 3 8 40 17 104 24 137 15 142 15 149 4z"/>
<path d="M329 233 c-9 -25 -109 -114 -141 -126 -7 -2 -10 -8 -6 -12 13 -14
238 114 238 135 0 13 -34 30 -60 30 -14 0 -24 -9 -31 -27z"/>
<path d="M570 257 c0 -7 127 -134 150 -149 32 -23 46 -23 53 1 7 27 -35 85
-75 104 -80 37 -128 54 -128 44z"/>
</g>
</svg>
