<?xml version="1.0" standalone="no"?>
<!DOCTYPE svg PUBLIC "-//W3C//DTD SVG 20010904//EN"
 "http://www.w3.org/TR/2001/REC-SVG-20010904/DTD/svg10.dtd">
<svg version="1.0" xmlns="http://www.w3.org/2000/svg"
 width="96.000000pt" height="68.000000pt" viewBox="0 0 96.000000 68.000000"
 preserveAspectRatio="xMidYMid meet">
<metadata>
Created by potrace 1.16, written by Peter Selinger 2001-2019
</metadata>
<g transform="translate(0.000000,68.000000) scale(0.100000,-0.100000)"
fill="#000000" stroke="none">
<path d="M243 523 l2 -88 -60 -7 c-33 -4 -67 -10 -75 -13 -27 -11 11 -25 68
-25 l53 0 -28 -51 c-15 -28 -50 -76 -77 -105 -39 -44 -44 -54 -28 -54 23 0
108 72 133 115 18 29 19 29 19 6 0 -13 -5 -63 -12 -112 -12 -94 -4 -139 27
-139 19 0 23 20 31 164 l6 118 24 -26 c33 -35 56 -34 52 1 -2 21 -12 32 -40
46 -55 25 -52 53 7 61 24 4 47 11 50 16 9 15 -34 32 -66 25 -33 -7 -34 -2 -19
75 10 51 -7 80 -46 80 -21 0 -22 -3 -21 -87z"/>
<path d="M520 601 c0 -18 42 -61 61 -61 33 0 23 36 -15 54 -39 18 -46 19 -46
7z"/>
<path d="M565 519 c-135 -16 -155 -20 -150 -30 4 -5 31 -9 61 -9 30 0 54 -2
54 -5 0 -12 -37 -61 -64 -86 -37 -33 -31 -65 12 -55 15 3 56 13 92 21 84 18
115 19 130 0 19 -23 40 -18 40 10 0 18 -11 32 -40 51 -39 26 -67 27 -42 2 21
-21 13 -25 -68 -38 -81 -13 -108 -8 -79 13 56 43 72 60 73 79 1 21 7 23 76 26
91 4 111 9 90 22 -18 11 -87 11 -185 -1z"/>
<path d="M680 206 c0 -90 1 -95 26 -115 34 -27 154 -31 154 -6 0 12 -13 15
-59 15 -38 0 -63 5 -70 14 -7 8 -10 45 -9 97 3 80 2 84 -19 87 -22 3 -23 1
-23 -92z"/>
<path d="M436 260 c9 -42 -3 -93 -31 -134 -29 -43 -11 -49 27 -8 34 36 44 58
52 113 6 43 5 47 -16 53 -36 9 -38 8 -32 -24z"/>
<path d="M556 195 c0 -52 4 -98 7 -102 4 -3 14 0 22 7 13 10 15 31 13 99 -3
77 -5 86 -23 89 -19 3 -20 -3 -19 -93z"/>
</g>
</svg>
