<?xml version="1.0" standalone="no"?>
<!DOCTYPE svg PUBLIC "-//W3C//DTD SVG 20010904//EN"
 "http://www.w3.org/TR/2001/REC-SVG-20010904/DTD/svg10.dtd">
<svg version="1.0" xmlns="http://www.w3.org/2000/svg"
 width="96.000000pt" height="68.000000pt" viewBox="0 0 96.000000 68.000000"
 preserveAspectRatio="xMidYMid meet">
<metadata>
Created by potrace 1.16, written by Peter Selinger 2001-2019
</metadata>
<g transform="translate(0.000000,68.000000) scale(0.100000,-0.100000)"
fill="#000000" stroke="none">
<path d="M566 613 c-3 -3 -6 -21 -6 -39 0 -36 -12 -44 -71 -44 -21 0 -39 -4
-39 -10 0 -5 25 -10 55 -10 48 0 55 -2 55 -20 0 -17 -7 -20 -40 -20 -23 0 -40
-5 -40 -11 0 -7 15 -9 43 -6 23 4 72 9 110 13 37 3 67 11 67 16 0 7 -19 8 -50
4 -45 -6 -50 -5 -50 13 0 20 5 22 93 37 65 11 43 27 -28 19 l-66 -7 6 25 c5
19 2 28 -13 36 -11 6 -22 7 -26 4z"/>
<path d="M260 519 c-25 -4 -58 -5 -74 -2 -26 5 -28 3 -20 -13 5 -11 9 -71 9
-134 0 -124 8 -165 31 -156 33 12 7 -42 -44 -96 -56 -59 -32 -53 41 10 42 36
65 63 63 74 -5 22 59 35 81 16 29 -24 43 16 43 128 0 56 3 115 6 131 5 24 2
31 -21 41 -29 13 -48 13 -115 1z m54 -25 c9 -4 16 -18 16 -34 0 -23 -5 -29
-31 -34 -67 -13 -79 -9 -79 28 0 33 2 35 38 39 20 2 38 4 39 5 1 1 8 -1 17 -4z
m26 -124 l0 -30 -60 0 c-57 0 -60 1 -60 24 0 22 5 25 48 29 26 2 53 4 60 5 7
1 12 -10 12 -28z m0 -89 c0 -24 -5 -29 -31 -35 -17 -3 -47 -6 -66 -6 -28 0
-34 3 -29 16 3 9 6 24 6 35 0 17 8 19 60 19 59 0 60 0 60 -29z"/>
<path d="M625 434 c-44 -7 -112 -13 -151 -13 l-71 -1 21 -44 c12 -25 26 -47
31 -49 6 -2 46 0 90 4 44 5 109 9 145 10 64 1 66 2 93 39 33 46 34 56 5 64
-31 8 -68 6 -163 -10z m119 -12 c3 -5 3 -18 0 -29 -4 -16 -17 -22 -51 -27 -26
-3 -48 -4 -50 -2 -5 5 19 49 32 58 14 10 63 10 69 0z m-210 -45 c7 -26 7 -26
-34 -29 -27 -2 -36 2 -46 22 -16 30 -6 37 40 32 24 -3 36 -10 40 -25z m90 11
c-8 -26 -22 -38 -46 -38 -13 0 -18 8 -18 30 0 28 3 30 36 30 32 0 35 -2 28
-22z"/>
<path d="M615 310 c-27 -5 -72 -9 -100 -9 l-50 -1 1 -78 c2 -105 1 -102 24
-102 33 0 23 -28 -25 -62 -58 -43 -57 -54 3 -24 68 34 101 63 84 74 -10 7 -5
11 18 16 49 9 120 7 120 -4 0 -17 28 -11 34 8 3 9 6 50 7 91 2 62 -1 76 -16
87 -20 15 -25 15 -100 4z m65 -34 c0 -11 -21 -16 -82 -22 -98 -8 -92 -9 -96
10 -4 17 22 22 116 25 48 1 62 -2 62 -13z m10 -50 c0 -16 -52 -26 -132 -26
-45 0 -58 3 -58 15 0 11 12 15 48 16 26 0 65 4 87 8 45 8 55 6 55 -13z m0 -50
c0 -16 -23 -22 -122 -32 -64 -6 -68 -5 -68 14 0 18 7 21 53 25 121 8 137 7
137 -7z"/>
<path d="M335 157 c28 -47 42 -56 51 -32 7 18 -28 60 -57 68 -17 5 -17 2 6
-36z"/>
<path d="M684 54 c46 -47 80 -55 69 -16 -5 21 -70 62 -98 62 -12 0 -4 -14 29
-46z"/>
</g>
</svg>
