<?xml version="1.0" standalone="no"?>
<!DOCTYPE svg PUBLIC "-//W3C//DTD SVG 20010904//EN"
 "http://www.w3.org/TR/2001/REC-SVG-20010904/DTD/svg10.dtd">
<svg version="1.0" xmlns="http://www.w3.org/2000/svg"
 width="96.000000pt" height="68.000000pt" viewBox="0 0 96.000000 68.000000"
 preserveAspectRatio="xMidYMid meet">
<metadata>
Created by potrace 1.16, written by Peter Selinger 2001-2019
</metadata>
<g transform="translate(0.000000,68.000000) scale(0.100000,-0.100000)"
fill="#000000" stroke="none">
<path d="M644 475 c-13 -41 -12 -42 28 -13 29 20 30 22 12 35 -25 19 -28 17
-40 -22z"/>
<path d="M537 455 c20 -27 29 -30 38 -15 9 15 -14 40 -37 40 -18 0 -18 -1 -1
-25z"/>
<path d="M580 423 c-52 -8 -97 -16 -99 -19 -14 -13 22 -14 141 -4 151 14 162
16 153 30 -8 13 -79 11 -195 -7z"/>
</g>
</svg>
