<?xml version="1.0" standalone="no"?>
<!DOCTYPE svg PUBLIC "-//W3C//DTD SVG 20010904//EN"
 "http://www.w3.org/TR/2001/REC-SVG-20010904/DTD/svg10.dtd">
<svg version="1.0" xmlns="http://www.w3.org/2000/svg"
 width="96.000000pt" height="68.000000pt" viewBox="0 0 96.000000 68.000000"
 preserveAspectRatio="xMidYMid meet">
<metadata>
Created by potrace 1.16, written by Peter Selinger 2001-2019
</metadata>
<g transform="translate(0.000000,68.000000) scale(0.100000,-0.100000)"
fill="#000000" stroke="none">
<path d="M560 581 c5 -11 15 -23 20 -26 23 -14 6 -23 -57 -29 -38 -4 -81 -9
-97 -13 -25 -4 -27 -7 -13 -15 38 -21 14 -232 -42 -367 -17 -41 -29 -76 -27
-78 8 -8 60 73 78 121 22 58 43 160 53 256 4 36 8 66 9 67 0 1 60 7 131 13 72
6 141 14 155 17 23 4 23 5 6 15 -11 6 -44 8 -82 4 -60 -6 -64 -5 -64 14 0 20
-33 40 -66 40 -11 0 -12 -4 -4 -19z"/>
</g>
</svg>
