<?xml version="1.0" standalone="no"?>
<!DOCTYPE svg PUBLIC "-//W3C//DTD SVG 20010904//EN"
 "http://www.w3.org/TR/2001/REC-SVG-20010904/DTD/svg10.dtd">
<svg version="1.0" xmlns="http://www.w3.org/2000/svg"
 width="96.000000pt" height="68.000000pt" viewBox="0 0 96.000000 68.000000"
 preserveAspectRatio="xMidYMid meet">
<metadata>
Created by potrace 1.16, written by Peter Selinger 2001-2019
</metadata>
<g transform="translate(0.000000,68.000000) scale(0.100000,-0.100000)"
fill="#000000" stroke="none">
<path d="M458 544 c-38 -40 -47 -44 -68 -36 l-25 10 0 -84 c0 -45 3 -86 7 -89
3 -4 31 10 62 31 45 30 58 34 70 24 17 -13 36 -6 36 15 0 16 -38 45 -58 45 -9
0 -11 -7 -7 -20 5 -15 0 -22 -20 -30 -44 -17 -55 -13 -55 19 0 49 10 61 76 91
35 16 64 32 64 37 0 4 -9 14 -19 20 -17 11 -25 7 -63 -33z"/>
<path d="M166 531 c-3 -4 12 -27 32 -50 29 -33 43 -42 62 -40 29 5 39 39 16
58 -21 17 -104 42 -110 32z"/>
<path d="M655 520 c-16 -4 -49 -8 -72 -9 -52 -1 -58 -21 -7 -21 34 0 36 -1 29
-27 -7 -29 -40 -81 -65 -100 -13 -11 -13 -12 0 -13 22 0 33 10 73 63 21 27 37
59 37 71 0 18 6 22 36 24 l37 3 -7 -43 c-8 -51 -23 -70 -47 -63 -11 4 -19 4
-19 0 0 -14 33 -55 45 -55 18 0 49 55 65 113 11 41 11 50 -1 58 -16 10 -61 10
-104 -1z"/>
<path d="M204 380 c-22 -9 -55 -21 -72 -25 -52 -11 -26 -28 34 -22 30 3 54 4
54 3 0 -2 -5 -17 -11 -34 -9 -27 -7 -36 15 -69 14 -21 26 -43 26 -50 0 -13
-36 -21 -109 -25 l-43 -3 19 -24 c19 -23 22 -24 66 -11 60 16 91 11 277 -50
85 -27 168 -50 183 -50 37 0 197 48 197 59 0 12 -54 21 -129 21 -94 0 -220 16
-334 41 l-98 22 6 29 c6 24 1 34 -23 56 l-30 27 41 43 c36 37 39 44 27 56 -25
23 -53 25 -96 6z"/>
<path d="M550 319 c-30 -4 -83 -9 -117 -10 -35 -1 -63 -6 -63 -10 0 -5 4 -9 9
-9 5 0 17 -34 27 -75 17 -73 19 -76 43 -71 14 3 66 8 114 12 85 6 88 6 94 -15
9 -34 36 -21 51 23 7 22 13 66 15 100 l2 61 -60 1 c-33 1 -85 -2 -115 -7z
m128 -42 c3 -27 2 -27 -52 -27 -53 0 -56 1 -56 24 0 21 6 25 38 29 60 6 67 4
70 -26z m-148 -11 c0 -22 -5 -24 -49 -28 -43 -2 -51 0 -55 16 -8 30 1 36 55
36 45 0 49 -2 49 -24z m150 -45 c0 -32 -14 -41 -65 -41 -49 0 -52 1 -48 23 4
21 11 24 59 26 30 1 54 -2 54 -8z m-150 -26 c0 -23 -4 -25 -45 -25 -41 0 -45
2 -45 25 0 23 4 25 45 25 41 0 45 -2 45 -25z"/>
</g>
</svg>
