<?xml version="1.0" standalone="no"?>
<!DOCTYPE svg PUBLIC "-//W3C//DTD SVG 20010904//EN"
 "http://www.w3.org/TR/2001/REC-SVG-20010904/DTD/svg10.dtd">
<svg version="1.0" xmlns="http://www.w3.org/2000/svg"
 width="90.000000pt" height="92.000000pt" viewBox="0 0 90.000000 92.000000"
 preserveAspectRatio="xMidYMid meet">
<metadata>
Created by potrace 1.16, written by Peter Selinger 2001-2019
</metadata>
<g transform="translate(0.000000,92.000000) scale(0.100000,-0.100000)"
fill="#000000" stroke="none">
<path d="M610 821 c0 -34 -20 -111 -45 -176 -7 -18 -6 -18 18 3 14 13 30 36
36 50 7 17 20 28 34 29 138 10 177 26 122 51 -19 9 -34 8 -66 -3 -58 -21 -62
-19 -43 17 16 31 16 32 -6 50 -36 29 -50 23 -50 -21z"/>
<path d="M170 798 c0 -24 61 -99 78 -96 24 5 39 35 26 56 -19 30 -104 63 -104
40z"/>
<path d="M400 800 c0 -6 8 -22 17 -36 20 -32 10 -41 -59 -50 -53 -7 -59 -15
-27 -37 18 -13 25 -13 62 9 23 13 45 24 48 24 3 0 11 -18 18 -40 11 -37 31
-55 31 -29 0 42 -26 146 -38 157 -19 15 -52 16 -52 2z"/>
<path d="M679 635 c-3 -2 -79 -14 -169 -26 -91 -12 -166 -23 -168 -24 -2 -2 3
-14 11 -27 8 -12 18 -41 22 -63 7 -49 22 -75 33 -59 11 15 232 36 248 23 14
-11 16 -8 68 83 14 26 26 50 26 55 0 5 -13 16 -29 26 -31 18 -35 19 -42 12z
m-13 -87 c-9 -53 -13 -57 -54 -51 -28 5 -32 8 -25 27 4 11 7 31 8 44 0 19 5
22 39 22 l39 0 -7 -42z m-108 -10 c-3 -38 -6 -43 -29 -46 -25 -3 -27 0 -31 42
l-3 46 33 0 c33 0 33 0 30 -42z m-94 1 c10 -53 8 -59 -23 -59 -24 0 -29 5 -35
31 -10 53 -8 59 23 59 24 0 29 -5 35 -31z"/>
<path d="M190 609 c-30 -11 -78 -22 -107 -26 -57 -6 -66 -16 -32 -33 16 -9 36
-7 89 9 75 23 90 25 90 13 0 -15 -130 -185 -183 -239 -28 -29 -48 -55 -44 -59
8 -9 98 58 136 101 17 19 33 35 37 35 11 0 -3 -221 -16 -256 -9 -26 -8 -39 5
-70 27 -65 39 -30 46 129 4 78 7 144 8 146 0 3 16 -9 34 -26 43 -40 64 -47 72
-23 9 27 -1 39 -46 59 l-39 18 40 22 c44 25 51 45 19 61 -24 13 -22 15 -38
-27 -16 -39 -41 -64 -41 -40 0 8 -7 20 -15 27 -12 10 -11 17 12 49 15 20 43
53 62 74 l36 38 -24 20 c-28 23 -31 23 -101 -2z"/>
<path d="M700 453 c0 -17 69 -85 82 -81 7 3 14 17 16 31 3 21 -2 29 -23 37
-46 17 -75 22 -75 13z"/>
<path d="M520 430 c6 -11 8 -25 5 -30 -3 -5 -41 -12 -85 -16 -77 -6 -102 -15
-80 -29 5 -3 10 -32 10 -63 0 -67 -27 -132 -73 -179 -17 -18 -26 -33 -19 -33
23 0 90 71 114 121 l24 51 43 -36 c48 -40 66 -42 66 -5 0 20 -8 27 -50 41 -48
16 -50 18 -49 53 1 19 3 37 5 39 2 2 29 7 59 11 l55 6 36 -75 37 -76 -38 -34
c-21 -19 -48 -40 -60 -46 -12 -6 -20 -14 -17 -17 7 -7 104 37 118 53 10 12 20
5 61 -40 47 -53 128 -103 147 -91 7 4 7 15 0 33 -6 15 -14 54 -18 87 l-8 60
-13 -48 c-7 -26 -16 -50 -21 -53 -10 -6 -99 74 -99 89 0 5 16 29 35 53 19 23
35 47 35 53 0 9 -50 41 -65 41 -3 0 -5 -11 -5 -25 0 -27 -19 -75 -31 -75 -8 0
-39 85 -39 107 0 7 6 13 14 13 8 0 27 5 43 11 l28 11 -25 13 c-14 8 -33 12
-42 9 -9 -3 -26 4 -37 15 -12 12 -32 21 -46 21 -23 0 -24 -2 -15 -20z"/>
</g>
</svg>
