<?xml version="1.0" standalone="no"?>
<!DOCTYPE svg PUBLIC "-//W3C//DTD SVG 20010904//EN"
 "http://www.w3.org/TR/2001/REC-SVG-20010904/DTD/svg10.dtd">
<svg version="1.0" xmlns="http://www.w3.org/2000/svg"
 width="96.000000pt" height="68.000000pt" viewBox="0 0 96.000000 68.000000"
 preserveAspectRatio="xMidYMid meet">
<metadata>
Created by potrace 1.16, written by Peter Selinger 2001-2019
</metadata>
<g transform="translate(0.000000,68.000000) scale(0.100000,-0.100000)"
fill="#000000" stroke="none">
<path d="M540 600 c0 -5 -16 -27 -35 -49 -38 -42 -45 -71 -17 -71 9 0 49 9 89
19 66 17 72 17 87 2 15 -14 18 -14 26 -1 15 23 12 28 -20 45 -38 20 -57 20
-41 1 9 -11 7 -15 -11 -20 -29 -7 -78 -8 -78 -1 0 3 10 19 22 36 19 26 20 31
8 39 -19 13 -30 12 -30 0z"/>
</g>
</svg>
