<?xml version="1.0" standalone="no"?>
<!DOCTYPE svg PUBLIC "-//W3C//DTD SVG 20010904//EN"
 "http://www.w3.org/TR/2001/REC-SVG-20010904/DTD/svg10.dtd">
<svg version="1.0" xmlns="http://www.w3.org/2000/svg"
 width="96.000000pt" height="68.000000pt" viewBox="0 0 96.000000 68.000000"
 preserveAspectRatio="xMidYMid meet">
<metadata>
Created by potrace 1.16, written by Peter Selinger 2001-2019
</metadata>
<g transform="translate(0.000000,68.000000) scale(0.100000,-0.100000)"
fill="#000000" stroke="none">
<path d="M620 479 c-19 -4 -78 -11 -131 -15 l-97 -7 5 -86 c3 -47 9 -90 13
-95 13 -13 30 3 30 28 0 22 5 23 87 30 48 3 105 9 126 13 35 5 39 4 35 -13 -2
-11 -13 -20 -26 -22 l-23 -3 25 -20 c48 -38 61 -20 69 98 6 75 4 84 -13 93
-22 12 -50 11 -100 -1z m65 -39 c0 -11 -21 -18 -85 -27 -131 -18 -160 -17
-160 6 0 20 0 20 115 35 67 8 130 1 130 -14z m5 -56 c0 -8 -4 -14 -9 -14 -9 0
-119 -14 -203 -25 -33 -5 -38 -2 -38 14 0 16 9 21 53 26 202 24 197 24 197 -1z"/>
</g>
</svg>
