<?xml version="1.0" standalone="no"?>
<!DOCTYPE svg PUBLIC "-//W3C//DTD SVG 20010904//EN"
 "http://www.w3.org/TR/2001/REC-SVG-20010904/DTD/svg10.dtd">
<svg version="1.0" xmlns="http://www.w3.org/2000/svg"
 width="96.000000pt" height="68.000000pt" viewBox="0 0 96.000000 68.000000"
 preserveAspectRatio="xMidYMid meet">
<metadata>
Created by potrace 1.16, written by Peter Selinger 2001-2019
</metadata>
<g transform="translate(0.000000,68.000000) scale(0.100000,-0.100000)"
fill="#000000" stroke="none">
<path d="M620 584 c-36 -8 -109 -15 -162 -16 -87 -2 -96 -4 -84 -17 14 -17 30
-60 44 -121 8 -32 11 -35 40 -32 137 14 212 16 225 8 21 -13 43 7 58 52 6 20
20 52 30 70 23 40 19 48 -29 62 -43 12 -38 12 -122 -6z m85 -24 c3 -6 3 -19 0
-30 -5 -17 -15 -20 -60 -20 -48 0 -53 2 -57 24 -4 22 -1 25 26 29 61 8 85 7
91 -3z m-167 -37 c3 -18 -3 -23 -32 -29 -48 -8 -66 0 -66 31 0 25 2 26 48 23
40 -3 47 -6 50 -25z m155 -54 c-6 -23 -11 -25 -70 -32 -40 -5 -43 -3 -43 18 0
26 14 32 77 34 37 1 41 -1 36 -20z m-153 -14 c0 -42 -82 -50 -88 -8 -3 19 2
22 35 26 21 2 41 4 46 5 4 1 7 -9 7 -23z"/>
</g>
</svg>
