<?xml version="1.0" standalone="no"?>
<!DOCTYPE svg PUBLIC "-//W3C//DTD SVG 20010904//EN"
 "http://www.w3.org/TR/2001/REC-SVG-20010904/DTD/svg10.dtd">
<svg version="1.0" xmlns="http://www.w3.org/2000/svg"
 width="96.000000pt" height="68.000000pt" viewBox="0 0 96.000000 68.000000"
 preserveAspectRatio="xMidYMid meet">
<metadata>
Created by potrace 1.16, written by Peter Selinger 2001-2019
</metadata>
<g transform="translate(0.000000,68.000000) scale(0.100000,-0.100000)"
fill="#000000" stroke="none">
<path d="M410 612 c0 -51 -119 -179 -247 -264 -75 -49 -44 -50 51 -1 44 24
102 67 153 116 45 44 87 77 92 75 5 -1 55 -45 110 -96 109 -101 126 -109 217
-97 64 8 61 15 -16 40 -79 25 -124 50 -218 117 -71 52 -81 62 -76 83 4 17 0
26 -14 34 -31 16 -52 13 -52 -7z"/>
</g>
</svg>
