<?xml version="1.0" standalone="no"?>
<!DOCTYPE svg PUBLIC "-//W3C//DTD SVG 20010904//EN"
 "http://www.w3.org/TR/2001/REC-SVG-20010904/DTD/svg10.dtd">
<svg version="1.0" xmlns="http://www.w3.org/2000/svg"
 width="96.000000pt" height="68.000000pt" viewBox="0 0 96.000000 68.000000"
 preserveAspectRatio="xMidYMid meet">
<metadata>
Created by potrace 1.16, written by Peter Selinger 2001-2019
</metadata>
<g transform="translate(0.000000,68.000000) scale(0.100000,-0.100000)"
fill="#000000" stroke="none">
<path d="M672 560 c-6 -16 -23 -46 -38 -65 -14 -19 -23 -35 -19 -35 11 0 125
92 125 102 0 7 -41 28 -55 28 -2 0 -8 -13 -13 -30z"/>
<path d="M470 538 c1 -22 37 -58 59 -58 29 0 27 34 -4 54 -29 19 -55 21 -55 4z"/>
<path d="M695 455 c-5 -2 -81 -11 -167 -20 -87 -10 -158 -22 -158 -27 0 -6 25
-8 63 -5 34 2 140 10 235 18 165 12 199 20 150 33 -24 6 -106 7 -123 1z"/>
</g>
</svg>
