<?xml version="1.0" standalone="no"?>
<!DOCTYPE svg PUBLIC "-//W3C//DTD SVG 20010904//EN"
 "http://www.w3.org/TR/2001/REC-SVG-20010904/DTD/svg10.dtd">
<svg version="1.0" xmlns="http://www.w3.org/2000/svg"
 width="96.000000pt" height="68.000000pt" viewBox="0 0 96.000000 68.000000"
 preserveAspectRatio="xMidYMid meet">
<metadata>
Created by potrace 1.16, written by Peter Selinger 2001-2019
</metadata>
<g transform="translate(0.000000,68.000000) scale(0.100000,-0.100000)"
fill="#000000" stroke="none">
<path d="M530 608 c0 -6 -11 -26 -25 -44 -33 -43 -32 -49 4 -23 17 12 39 19
56 17 27 -3 27 -3 9 -26 -16 -19 -30 -23 -86 -25 -37 -1 -68 -3 -68 -5 0 -2 7
-16 15 -32 10 -19 14 -51 12 -99 -2 -39 0 -71 5 -71 5 0 20 7 34 16 35 24 42
9 11 -24 -33 -34 -35 -50 -4 -30 28 19 76 28 83 17 11 -18 -23 -36 -80 -42
-32 -3 -60 -8 -62 -10 -3 -3 5 -21 17 -42 19 -32 26 -36 49 -31 15 3 30 2 34
-1 13 -14 -39 -65 -97 -93 l-62 -31 43 6 c50 6 110 42 140 82 l21 28 1 -51 c0
-49 2 -53 34 -68 45 -21 166 -22 206 -1 34 18 35 21 17 64 -14 32 -27 32 -27
0 0 -31 -39 -49 -107 -49 -76 0 -96 15 -82 62 5 18 6 41 3 50 -5 15 1 18 40
18 29 0 46 4 46 12 0 6 7 20 16 30 14 15 15 20 3 34 -11 13 -25 15 -79 10 -65
-6 -65 -6 -37 11 44 29 35 47 -19 39 -40 -5 -45 -4 -34 9 10 12 9 16 -4 21 -9
3 -13 10 -10 15 3 6 -6 7 -23 3 -44 -10 -47 -10 -51 9 -3 13 3 17 27 17 16 0
33 5 37 11 5 8 -3 10 -24 7 -29 -4 -42 6 -42 30 0 4 35 8 78 10 104 3 152 11
152 25 0 7 9 18 21 25 17 11 18 16 8 29 -11 12 -26 14 -78 9 l-65 -6 37 26
c52 35 48 48 -14 41 -42 -5 -49 -4 -40 7 9 10 8 15 -5 20 -23 9 -34 7 -34 -6z
m144 -106 c12 -20 -17 -32 -104 -42 -73 -8 -95 -8 -101 2 -12 19 -5 21 79 34
97 15 120 16 126 6z m6 -282 c0 -22 -40 -36 -90 -31 -13 1 -13 2 0 11 13 9 13
11 1 19 -11 7 -6 11 20 14 67 8 69 8 69 -13z m-130 -20 c0 -19 -19 -30 -51
-30 -29 0 -26 47 4 52 32 5 47 -2 47 -22z"/>
<path d="M276 568 c-2 -7 -9 -31 -15 -53 -14 -52 -78 -150 -144 -220 -66 -69
-43 -75 38 -10 43 35 55 41 56 28 2 -70 -4 -180 -12 -201 -7 -19 -6 -29 5 -40
12 -13 22 -10 76 23 54 33 65 36 86 26 14 -6 29 -11 34 -11 19 0 9 29 -16 49
-30 24 -56 28 -48 8 5 -15 -72 -51 -87 -41 -11 6 -11 65 -1 81 4 7 32 14 62
15 l55 4 16 44 c9 25 19 53 24 64 13 29 -13 38 -92 31 -40 -3 -73 -2 -73 2 1
24 29 39 75 42 65 3 88 23 25 21 -63 -3 -62 -3 -45 30 17 33 36 38 55 15 14
-17 46 -20 55 -5 10 16 -12 38 -45 45 -20 4 -27 11 -23 21 6 16 -23 43 -45 44
-7 0 -14 -6 -16 -12z m74 -231 c0 -20 -7 -25 -50 -33 -48 -10 -50 -10 -50 12
0 18 8 24 48 32 26 5 48 10 50 11 1 0 2 -9 2 -22z m-8 -72 c-5 -25 0 -22 -52
-26 -39 -4 -45 -2 -45 16 0 15 9 22 35 26 52 10 65 6 62 -16z"/>
<path d="M590 398 c0 -58 29 -78 110 -78 97 0 115 10 90 50 -8 13 -12 12 -25
-7 -13 -18 -25 -23 -58 -22 -23 0 -51 4 -62 9 l-20 8 20 8 c11 4 40 15 64 24
43 17 44 18 22 29 -18 10 -26 10 -39 -2 -9 -8 -27 -20 -39 -26 -21 -11 -23 -9
-20 11 1 17 -4 24 -20 26 -20 3 -23 -1 -23 -30z"/>
<path d="M670 131 c0 -20 37 -54 53 -48 27 10 19 34 -14 46 -38 13 -39 13 -39
2z"/>
</g>
</svg>
