<?xml version="1.0" standalone="no"?>
<!DOCTYPE svg PUBLIC "-//W3C//DTD SVG 20010904//EN"
 "http://www.w3.org/TR/2001/REC-SVG-20010904/DTD/svg10.dtd">
<svg version="1.0" xmlns="http://www.w3.org/2000/svg"
 width="96.000000pt" height="68.000000pt" viewBox="0 0 96.000000 68.000000"
 preserveAspectRatio="xMidYMid meet">
<metadata>
Created by potrace 1.16, written by Peter Selinger 2001-2019
</metadata>
<g transform="translate(0.000000,68.000000) scale(0.100000,-0.100000)"
fill="#000000" stroke="none">
<path d="M570 305 c0 -12 -14 -15 -67 -16 -38 0 -86 -4 -108 -8 l-40 -8 29 -8
c16 -4 64 -5 107 -2 l79 6 0 -119 c0 -111 8 -147 26 -118 4 6 10 63 13 126 l6
115 112 -2 c69 -1 114 2 118 8 13 22 -48 32 -142 25 -67 -5 -93 -4 -93 5 0 6
-9 11 -20 11 -11 0 -20 -7 -20 -15z"/>
</g>
</svg>
