<?xml version="1.0" standalone="no"?>
<!DOCTYPE svg PUBLIC "-//W3C//DTD SVG 20010904//EN"
 "http://www.w3.org/TR/2001/REC-SVG-20010904/DTD/svg10.dtd">
<svg version="1.0" xmlns="http://www.w3.org/2000/svg"
 width="96.000000pt" height="68.000000pt" viewBox="0 0 96.000000 68.000000"
 preserveAspectRatio="xMidYMid meet">
<metadata>
Created by potrace 1.16, written by Peter Selinger 2001-2019
</metadata>
<g transform="translate(0.000000,68.000000) scale(0.100000,-0.100000)"
fill="#000000" stroke="none">
<path d="M350 554 c0 -13 25 -51 52 -81 l30 -31 -68 -7 c-182 -16 -212 -40
-52 -40 l97 0 5 -29 c3 -16 6 -43 6 -61 l0 -32 -72 -2 c-75 -2 -88 -6 -88 -22
0 -7 30 -9 79 -7 l79 3 6 -54 c4 -30 3 -58 -2 -63 -4 -4 -67 -11 -140 -14 -89
-5 -131 -11 -129 -18 5 -16 98 -19 202 -7 50 6 162 11 250 12 161 2 185 4 185
19 0 21 -68 30 -165 20 -158 -15 -145 -19 -145 49 l0 58 38 7 c20 3 55 6 77 7
22 0 49 4 59 8 48 19 -46 30 -149 18 -18 -2 -20 4 -21 59 l-1 61 100 11 c102
11 117 16 101 32 -12 12 -66 14 -146 5 l-67 -7 -3 33 c-3 29 -10 37 -48 56
-45 22 -70 28 -70 17z"/>
</g>
</svg>
