<?xml version="1.0" standalone="no"?>
<!DOCTYPE svg PUBLIC "-//W3C//DTD SVG 20010904//EN"
 "http://www.w3.org/TR/2001/REC-SVG-20010904/DTD/svg10.dtd">
<svg version="1.0" xmlns="http://www.w3.org/2000/svg"
 width="96.000000pt" height="68.000000pt" viewBox="0 0 96.000000 68.000000"
 preserveAspectRatio="xMidYMid meet">
<metadata>
Created by potrace 1.16, written by Peter Selinger 2001-2019
</metadata>
<g transform="translate(0.000000,68.000000) scale(0.100000,-0.100000)"
fill="#000000" stroke="none">
<path d="M665 154 c-14 -56 -45 -68 -185 -72 -65 -2 -127 1 -142 7 -24 9 -28
16 -28 51 0 34 -3 40 -21 40 -19 0 -21 -4 -15 -47 3 -26 11 -53 19 -60 36 -37
291 -42 375 -8 47 19 50 30 23 89 l-17 39 -9 -39z"/>
</g>
</svg>
