<?xml version="1.0" standalone="no"?>
<!DOCTYPE svg PUBLIC "-//W3C//DTD SVG 20010904//EN"
 "http://www.w3.org/TR/2001/REC-SVG-20010904/DTD/svg10.dtd">
<svg version="1.0" xmlns="http://www.w3.org/2000/svg"
 width="96.000000pt" height="68.000000pt" viewBox="0 0 96.000000 68.000000"
 preserveAspectRatio="xMidYMid meet">
<metadata>
Created by potrace 1.16, written by Peter Selinger 2001-2019
</metadata>
<g transform="translate(0.000000,68.000000) scale(0.100000,-0.100000)"
fill="#000000" stroke="none">
<path d="M464 593 c-11 -54 -50 -116 -112 -184 -35 -38 -61 -69 -57 -69 27 0
149 111 190 173 9 15 22 27 27 27 6 0 50 -38 97 -85 81 -79 90 -85 127 -84 21
1 50 4 64 8 25 8 25 8 -11 23 -20 9 -47 19 -60 23 -56 18 -206 130 -201 151 2
12 -34 44 -50 44 -4 0 -10 -12 -14 -27z"/>
</g>
</svg>
