<?xml version="1.0" standalone="no"?>
<!DOCTYPE svg PUBLIC "-//W3C//DTD SVG 20010904//EN"
 "http://www.w3.org/TR/2001/REC-SVG-20010904/DTD/svg10.dtd">
<svg version="1.0" xmlns="http://www.w3.org/2000/svg"
 width="96.000000pt" height="68.000000pt" viewBox="0 0 96.000000 68.000000"
 preserveAspectRatio="xMidYMid meet">
<metadata>
Created by potrace 1.16, written by Peter Selinger 2001-2019
</metadata>
<g transform="translate(0.000000,68.000000) scale(0.100000,-0.100000)"
fill="#000000" stroke="none">
<path d="M521 434 c-12 -20 -20 -38 -18 -41 4 -3 66 29 86 44 7 5 -21 33 -34
33 -7 0 -23 -16 -34 -36z"/>
<path d="M322 418 c17 -26 58 -37 58 -16 0 21 -21 38 -48 38 -23 0 -24 -1 -10
-22z"/>
<path d="M704 393 c-11 -2 -146 -14 -300 -27 -245 -20 -275 -24 -249 -35 25
-10 49 -10 135 4 58 9 201 19 318 22 116 3 212 9 212 14 0 9 -58 29 -79 28 -9
-1 -25 -4 -37 -6z"/>
</g>
</svg>
