<?xml version="1.0" standalone="no"?>
<!DOCTYPE svg PUBLIC "-//W3C//DTD SVG 20010904//EN"
 "http://www.w3.org/TR/2001/REC-SVG-20010904/DTD/svg10.dtd">
<svg version="1.0" xmlns="http://www.w3.org/2000/svg"
 width="96.000000pt" height="68.000000pt" viewBox="0 0 96.000000 68.000000"
 preserveAspectRatio="xMidYMid meet">
<metadata>
Created by potrace 1.16, written by Peter Selinger 2001-2019
</metadata>
<g transform="translate(0.000000,68.000000) scale(0.100000,-0.100000)"
fill="#000000" stroke="none">
<path d="M280 523 c-16 -59 -62 -132 -127 -200 -32 -35 -55 -63 -50 -63 11 0
64 36 97 66 29 26 76 23 85 -7 9 -27 -2 -39 -38 -40 -18 0 -41 -4 -52 -9 -18
-8 -18 -9 5 -10 14 -1 40 -1 58 0 l32 2 0 -61 c0 -33 -5 -63 -11 -66 -5 -4
-37 -8 -70 -8 -47 -1 -59 -5 -57 -17 2 -8 15 -19 29 -24 20 -7 52 -1 143 28
64 21 116 40 116 43 0 3 -25 2 -56 -2 l-55 -7 3 58 3 58 43 9 c23 4 42 12 42
17 0 13 -29 21 -54 14 -19 -4 -24 -1 -28 21 -5 22 -1 27 23 32 30 6 38 18 17
25 -7 3 -39 -2 -71 -9 -33 -8 -61 -12 -63 -10 -2 2 13 29 33 60 l38 56 33 -26
c32 -24 62 -25 62 -3 0 7 -18 19 -40 28 -30 13 -38 21 -34 35 6 20 -12 47 -32
47 -7 0 -18 -17 -24 -37z"/>
<path d="M370 218 c-7 -18 -15 -37 -18 -41 -5 -10 23 4 53 26 16 13 17 17 6
31 -19 23 -25 20 -41 -16z"/>
<path d="M190 206 c0 -7 11 -23 25 -36 19 -18 28 -21 37 -12 9 9 7 16 -6 31
-21 23 -56 34 -56 17z"/>
</g>
</svg>
