<?xml version="1.0" standalone="no"?>
<!DOCTYPE svg PUBLIC "-//W3C//DTD SVG 20010904//EN"
 "http://www.w3.org/TR/2001/REC-SVG-20010904/DTD/svg10.dtd">
<svg version="1.0" xmlns="http://www.w3.org/2000/svg"
 width="96.000000pt" height="68.000000pt" viewBox="0 0 96.000000 68.000000"
 preserveAspectRatio="xMidYMid meet">
<metadata>
Created by potrace 1.16, written by Peter Selinger 2001-2019
</metadata>
<g transform="translate(0.000000,68.000000) scale(0.100000,-0.100000)"
fill="#000000" stroke="none">
<path d="M435 329 c-33 -4 -73 -6 -88 -3 -27 6 -28 4 -21 -17 4 -13 10 -42 14
-64 6 -45 -8 -42 153 -30 52 4 85 11 81 16 -3 6 6 28 20 49 25 38 25 40 7 50
-22 11 -78 11 -166 -1z m107 -44 c-2 -16 -6 -33 -10 -36 -4 -4 -40 -10 -79
-14 l-73 -7 0 36 c0 29 4 37 23 41 38 8 81 12 112 11 27 -1 30 -4 27 -31z"/>
</g>
</svg>
