<?xml version="1.0" standalone="no"?>
<!DOCTYPE svg PUBLIC "-//W3C//DTD SVG 20010904//EN"
 "http://www.w3.org/TR/2001/REC-SVG-20010904/DTD/svg10.dtd">
<svg version="1.0" xmlns="http://www.w3.org/2000/svg"
 width="90.000000pt" height="92.000000pt" viewBox="0 0 90.000000 92.000000"
 preserveAspectRatio="xMidYMid meet">
<metadata>
Created by potrace 1.16, written by Peter Selinger 2001-2019
</metadata>
<g transform="translate(0.000000,92.000000) scale(0.100000,-0.100000)"
fill="#000000" stroke="none">
<path d="M496 828 c-11 -23 -52 -75 -91 -115 -72 -73 -78 -90 -19 -54 l31 19
34 -46 c19 -26 35 -50 37 -53 3 -6 -98 -74 -153 -103 -25 -12 -26 -15 -9 -16
11 0 57 18 103 40 69 34 101 58 192 148 l110 107 -26 23 c-29 24 -47 27 -91
13 -16 -5 -42 -12 -59 -16 l-30 -7 28 29 c32 34 34 49 8 63 -33 17 -45 11 -65
-32z m130 -105 c-16 -30 -94 -119 -98 -112 -2 2 -8 13 -14 24 -6 11 -25 27
-42 35 -39 18 -39 23 -4 49 26 18 59 25 140 29 l33 2 -15 -27z"/>
<path d="M236 838 c-3 -7 -7 -30 -9 -50 -8 -57 -83 -198 -159 -299 -38 -50
-67 -93 -66 -95 8 -8 102 72 137 116 l40 51 7 -37 c6 -32 -6 -198 -22 -320 -4
-28 -1 -52 10 -73 35 -67 54 0 55 199 1 80 4 163 7 186 4 30 2 44 -10 53 -24
20 -21 33 34 131 28 50 50 94 50 99 0 11 -49 51 -62 51 -5 0 -10 -6 -12 -12z"/>
<path d="M587 563 c-4 -3 -7 -14 -7 -24 0 -20 -95 -110 -186 -175 -36 -25 -63
-49 -60 -51 2 -3 32 9 65 26 l60 30 21 -34 c12 -19 34 -45 50 -59 l29 -24 -37
-34 c-51 -46 -120 -93 -184 -125 -61 -30 -49 -42 18 -19 94 32 178 88 269 181
125 126 185 194 185 209 0 7 -15 21 -34 31 -32 17 -37 17 -93 2 -79 -22 -95
-21 -55 4 39 25 41 46 6 59 -30 12 -38 12 -47 3z m123 -120 c-1 -23 -116 -172
-124 -161 -2 1 -8 16 -13 33 -6 19 -23 36 -49 50 l-40 21 39 30 c34 25 50 29
113 32 41 2 74 0 74 -5z"/>
</g>
</svg>
