<?xml version="1.0" standalone="no"?>
<!DOCTYPE svg PUBLIC "-//W3C//DTD SVG 20010904//EN"
 "http://www.w3.org/TR/2001/REC-SVG-20010904/DTD/svg10.dtd">
<svg version="1.0" xmlns="http://www.w3.org/2000/svg"
 width="90.000000pt" height="92.000000pt" viewBox="0 0 90.000000 92.000000"
 preserveAspectRatio="xMidYMid meet">
<metadata>
Created by potrace 1.16, written by Peter Selinger 2001-2019
</metadata>
<g transform="translate(0.000000,92.000000) scale(0.100000,-0.100000)"
fill="#000000" stroke="none">
<path d="M560 810 c0 -56 -2 -61 -26 -70 -14 -6 -36 -10 -50 -10 -13 0 -24 -4
-24 -9 0 -12 25 -21 57 -21 21 0 24 -3 19 -22 -3 -13 -9 -34 -12 -48 l-5 -25
23 26 c13 15 31 40 40 58 17 30 19 31 90 31 86 0 114 12 84 35 -23 17 -45 18
-101 5 -22 -5 -41 -7 -43 -6 -2 2 4 21 13 42 15 38 15 40 -6 56 -11 10 -30 18
-40 18 -17 0 -19 -8 -19 -60z"/>
<path d="M240 833 c0 -4 10 -31 22 -60 12 -29 19 -55 16 -59 -4 -3 -43 -8 -88
-11 -85 -6 -92 -13 -48 -46 24 -18 26 -18 88 2 35 12 64 20 66 19 1 -2 6 -18
11 -37 14 -55 36 -53 32 3 -4 46 -4 47 33 58 50 15 49 32 -1 25 -44 -6 -51 2
-51 59 0 28 -5 36 -26 44 -30 12 -54 13 -54 3z"/>
<path d="M396 583 c4 -10 10 -50 12 -90 l4 -72 -34 -5 c-126 -20 -131 -19
-124 6 20 67 19 95 -5 112 -35 24 -40 20 -33 -23 4 -28 0 -51 -15 -86 -19 -44
-20 -50 -6 -72 18 -28 15 -27 90 -4 33 10 75 21 93 24 l32 7 0 -105 c0 -57 -3
-106 -8 -109 -4 -2 -45 -7 -91 -12 l-84 -7 7 29 c19 77 19 78 -12 97 -17 9
-33 17 -36 17 -3 0 -2 -22 1 -49 4 -40 1 -57 -16 -86 -21 -37 -21 -45 7 -77
13 -16 17 -16 43 -3 38 20 132 41 264 60 61 8 122 17 137 20 25 4 27 2 30 -37
3 -45 21 -60 36 -31 6 10 15 50 21 88 5 39 13 80 17 92 5 17 0 25 -26 38 -48
25 -57 16 -52 -53 l4 -60 -43 -6 c-24 -3 -68 -7 -96 -10 l-53 -5 0 87 c0 129
1 129 73 137 34 3 70 9 79 11 12 4 17 -2 20 -23 6 -52 32 -33 46 32 7 33 16
77 21 98 7 32 6 40 -13 52 -11 8 -31 15 -43 15 -20 0 -21 -3 -13 -26 14 -37
13 -114 -2 -119 -7 -2 -46 -5 -86 -7 l-73 -4 2 79 c2 86 -4 97 -55 97 -23 0
-27 -3 -20 -17z"/>
</g>
</svg>
