<?xml version="1.0" standalone="no"?>
<!DOCTYPE svg PUBLIC "-//W3C//DTD SVG 20010904//EN"
 "http://www.w3.org/TR/2001/REC-SVG-20010904/DTD/svg10.dtd">
<svg version="1.0" xmlns="http://www.w3.org/2000/svg"
 width="96.000000pt" height="68.000000pt" viewBox="0 0 96.000000 68.000000"
 preserveAspectRatio="xMidYMid meet">
<metadata>
Created by potrace 1.16, written by Peter Selinger 2001-2019
</metadata>
<g transform="translate(0.000000,68.000000) scale(0.100000,-0.100000)"
fill="#000000" stroke="none">
<path d="M255 563 c5 -10 10 -47 13 -82 5 -74 3 -77 -80 -86 -32 -4 -60 -11
-63 -16 -9 -13 41 -22 85 -15 25 4 40 2 40 -4 0 -25 -44 -93 -96 -149 -31 -34
-50 -61 -43 -61 25 0 86 44 123 88 l36 44 -6 -49 c-3 -26 -9 -70 -14 -98 -8
-48 7 -105 28 -105 26 0 32 30 32 154 l0 130 20 -22 c28 -29 50 -28 50 2 0 19
-8 27 -36 36 -45 15 -42 40 6 53 19 5 39 12 44 17 12 12 -32 33 -56 27 -18 -5
-19 -2 -13 59 8 74 -2 94 -47 94 -25 0 -29 -3 -23 -17z"/>
<path d="M715 519 c-16 -5 -45 -6 -63 -3 -32 6 -32 6 -22 -21 23 -61 1 -343
-31 -381 -6 -8 -9 -17 -5 -21 15 -15 66 80 73 138 6 40 19 49 79 49 28 0 32
-4 37 -32 3 -18 2 -55 -1 -83 -7 -48 -8 -50 -35 -47 l-29 3 29 -35 c33 -42 47
-45 67 -13 21 32 28 444 8 452 -20 7 -73 5 -107 -6z m65 -62 c0 -43 -3 -53
-17 -54 -10 0 -33 -4 -51 -8 l-34 -8 6 49 c2 27 5 52 5 56 1 8 28 15 64 17 26
1 27 -1 27 -52z m5 -116 c4 -38 2 -41 -19 -41 -13 0 -38 -3 -55 -6 -31 -6 -31
-6 -31 34 0 40 1 41 38 47 20 4 42 8 47 9 14 5 15 3 20 -43z"/>
<path d="M459 493 l-57 -4 10 -41 c18 -82 -3 -239 -40 -296 -8 -12 -12 -26 -8
-29 9 -9 33 23 62 83 22 47 28 52 62 57 20 2 39 3 41 1 6 -5 2 -115 -5 -125
-3 -5 -16 -6 -30 -3 -18 5 -23 3 -19 -7 9 -23 52 -49 69 -43 21 8 25 42 28
242 l3 172 -30 -2 c-16 -1 -55 -3 -86 -5z m79 -69 c3 -41 3 -42 -35 -47 -49
-6 -57 2 -48 53 7 40 8 41 43 38 36 -3 37 -5 40 -44z m0 -101 c-3 -37 -4 -38
-45 -41 -43 -3 -43 -3 -43 31 0 43 5 47 52 47 39 0 39 0 36 -37z"/>
</g>
</svg>
