<?xml version="1.0" standalone="no"?>
<!DOCTYPE svg PUBLIC "-//W3C//DTD SVG 20010904//EN"
 "http://www.w3.org/TR/2001/REC-SVG-20010904/DTD/svg10.dtd">
<svg version="1.0" xmlns="http://www.w3.org/2000/svg"
 width="90.000000pt" height="92.000000pt" viewBox="0 0 90.000000 92.000000"
 preserveAspectRatio="xMidYMid meet">
<metadata>
Created by potrace 1.16, written by Peter Selinger 2001-2019
</metadata>
<g transform="translate(0.000000,92.000000) scale(0.100000,-0.100000)"
fill="#000000" stroke="none">
<path d="M210 777 c0 -8 10 -34 23 -59 l23 -46 -102 -16 c-57 -9 -114 -16
-128 -16 -34 0 -33 -23 0 -39 22 -10 51 -8 163 13 75 14 153 28 174 31 20 3
37 9 37 14 0 14 -44 28 -75 24 -28 -4 -30 -3 -30 28 0 26 -7 38 -34 56 -39 26
-51 29 -51 10z"/>
<path d="M492 748 c26 -22 58 -112 44 -125 -3 -3 -42 -8 -86 -11 -77 -4 -80
-6 -73 -26 13 -35 9 -286 -6 -344 -11 -42 -11 -59 -1 -83 31 -73 45 -9 56 253
l6 157 50 10 c75 17 81 15 74 -15 -12 -45 -44 -107 -86 -161 -22 -29 -37 -53
-34 -53 21 0 72 43 103 86 l37 52 17 -47 c25 -68 30 -73 86 -79 l51 -5 0 -66
c0 -89 -12 -105 -68 -93 -23 6 -42 8 -42 6 0 -11 105 -114 116 -114 6 0 20 12
30 28 17 24 20 54 24 242 3 118 9 222 13 231 5 11 2 22 -8 33 -36 35 -54 38
-126 21 -38 -10 -75 -15 -83 -12 -7 3 -18 25 -24 49 -14 56 -30 75 -67 83
l-30 6 27 -23z m226 -150 c8 -8 12 -47 12 -110 l0 -99 -24 18 c-34 25 -72 82
-95 141 l-20 51 47 4 c26 2 52 4 58 5 5 1 15 -3 22 -10z"/>
<path d="M185 553 c-27 -9 -56 -17 -63 -19 -23 -7 -2 -24 28 -24 36 0 132 21
144 31 5 5 -3 13 -18 19 -32 12 -28 12 -91 -7z"/>
<path d="M182 447 c-67 -20 -73 -37 -14 -37 46 0 123 23 122 36 -1 19 -47 20
-108 1z"/>
<path d="M215 349 c-31 -12 -64 -17 -88 -14 -41 6 -43 4 -23 -28 8 -12 17 -42
21 -67 3 -25 11 -58 17 -74 10 -25 13 -27 24 -12 8 11 33 19 78 23 60 5 83 16
55 25 -7 2 -2 27 16 72 15 37 25 69 23 70 -12 11 -49 26 -60 25 -7 -1 -35 -10
-63 -20z m49 -76 c-3 -27 -8 -50 -10 -52 -2 -2 -23 -5 -46 -5 l-42 -1 -4 47
c-4 51 0 53 76 57 l33 1 -7 -47z"/>
</g>
</svg>
