<?xml version="1.0" standalone="no"?>
<!DOCTYPE svg PUBLIC "-//W3C//DTD SVG 20010904//EN"
 "http://www.w3.org/TR/2001/REC-SVG-20010904/DTD/svg10.dtd">
<svg version="1.0" xmlns="http://www.w3.org/2000/svg"
 width="96.000000pt" height="68.000000pt" viewBox="0 0 96.000000 68.000000"
 preserveAspectRatio="xMidYMid meet">
<metadata>
Created by potrace 1.16, written by Peter Selinger 2001-2019
</metadata>
<g transform="translate(0.000000,68.000000) scale(0.100000,-0.100000)"
fill="#000000" stroke="none">
<path d="M276 565 c-3 -13 -29 -47 -57 -75 -57 -57 -53 -63 12 -21 41 27 129
48 129 32 0 -5 -9 -16 -21 -27 -26 -24 -43 -54 -30 -54 5 0 28 16 52 36 23 19
52 42 63 50 43 30 -18 41 -103 18 -23 -7 -23 -7 -5 20 15 24 15 29 3 37 -24
15 -37 10 -43 -16z"/>
</g>
</svg>
