<?xml version="1.0" standalone="no"?>
<!DOCTYPE svg PUBLIC "-//W3C//DTD SVG 20010904//EN"
 "http://www.w3.org/TR/2001/REC-SVG-20010904/DTD/svg10.dtd">
<svg version="1.0" xmlns="http://www.w3.org/2000/svg"
 width="96.000000pt" height="68.000000pt" viewBox="0 0 96.000000 68.000000"
 preserveAspectRatio="xMidYMid meet">
<metadata>
Created by potrace 1.16, written by Peter Selinger 2001-2019
</metadata>
<g transform="translate(0.000000,68.000000) scale(0.100000,-0.100000)"
fill="#000000" stroke="none">
<path d="M285 330 c-11 -5 -37 -9 -57 -9 l-37 -1 5 -47 c3 -27 -1 -79 -9 -117
-15 -71 -12 -109 6 -103 11 3 20 26 31 79 6 26 10 28 51 28 45 0 45 0 45 -36
0 -34 -2 -36 -26 -30 l-26 7 28 -36 c26 -35 28 -35 45 -18 24 25 32 268 9 283
-18 12 -38 12 -65 0z m35 -43 c0 -17 -9 -25 -37 -34 -43 -13 -53 -10 -53 17 0
23 26 39 63 40 21 0 27 -5 27 -23z m-2 -92 c-2 -2 -23 -7 -47 -11 -41 -7 -43
-6 -39 17 2 20 10 25 43 29 33 4 41 2 43 -13 2 -10 2 -20 0 -22z"/>
</g>
</svg>
