<?xml version="1.0" standalone="no"?>
<!DOCTYPE svg PUBLIC "-//W3C//DTD SVG 20010904//EN"
 "http://www.w3.org/TR/2001/REC-SVG-20010904/DTD/svg10.dtd">
<svg version="1.0" xmlns="http://www.w3.org/2000/svg"
 width="96.000000pt" height="68.000000pt" viewBox="0 0 96.000000 68.000000"
 preserveAspectRatio="xMidYMid meet">
<metadata>
Created by potrace 1.16, written by Peter Selinger 2001-2019
</metadata>
<g transform="translate(0.000000,68.000000) scale(0.100000,-0.100000)"
fill="#000000" stroke="none">
<path d="M588 562 c5 -35 -19 -62 -54 -62 -14 0 -22 -4 -19 -10 3 -5 15 -10
26 -10 10 0 19 -3 19 -6 0 -13 -25 -52 -53 -81 -41 -44 -15 -42 31 2 24 22 47
35 65 35 23 0 27 -4 27 -30 0 -16 -3 -29 -7 -29 -33 5 -83 -3 -77 -12 6 -11
40 -9 191 7 32 4 50 10 47 16 -4 6 -29 8 -59 5 -50 -5 -52 -4 -52 19 0 19 6
25 35 30 26 5 31 9 19 15 -8 5 -39 4 -71 -3 -63 -12 -73 -9 -57 20 8 15 25 22
69 27 32 3 65 10 72 15 25 16 -15 23 -65 12 l-47 -10 6 33 c5 25 3 34 -10 39
-32 12 -41 7 -36 -22z"/>
<path d="M300 570 c-14 -4 -48 -8 -76 -9 -28 -1 -53 -4 -56 -7 -3 -3 -2 -20 2
-37 5 -18 11 -56 15 -84 l7 -53 -36 0 c-30 0 -37 -5 -52 -36 -13 -27 -14 -38
-5 -47 10 -9 16 -8 27 7 8 11 14 28 14 38 0 10 8 18 18 19 9 0 26 2 37 5 11 2
50 8 87 14 37 5 71 10 75 11 20 3 23 -2 13 -21 -7 -14 -7 -20 0 -20 5 0 10 5
10 11 0 5 4 7 10 4 11 -7 50 12 50 24 0 12 -60 32 -73 24 -6 -4 -8 2 -4 18 27
102 30 131 16 140 -17 10 -44 10 -79 -1z m30 -49 c0 -21 -38 -35 -66 -24 -15
6 -16 0 -10 -50 6 -48 5 -57 -8 -57 -13 0 -16 13 -16 69 0 76 1 77 68 80 25 1
32 -3 32 -18z m-4 -107 c-3 -8 -12 -14 -21 -14 -23 0 -21 77 3 82 12 3 18 -4
20 -25 2 -16 1 -35 -2 -43z"/>
<path d="M430 469 c0 -20 21 -49 35 -49 24 0 26 18 3 39 -24 23 -38 27 -38 10z"/>
<path d="M290 329 c-14 -6 -41 -11 -61 -11 l-35 0 4 -57 c2 -31 -3 -81 -11
-114 -16 -59 -13 -101 7 -94 6 2 15 21 20 43 4 21 10 45 12 52 2 7 21 12 49
12 45 0 45 0 45 -35 0 -29 -4 -35 -20 -35 -20 0 -20 -1 -3 -25 43 -58 59 -24
65 131 4 109 2 123 -14 133 -21 13 -25 13 -58 0z m30 -42 c0 -19 -8 -26 -37
-35 -44 -13 -57 -5 -47 32 5 22 11 26 45 26 34 0 39 -3 39 -23z m0 -70 c0 -20
-7 -25 -46 -34 -45 -10 -45 -10 -42 16 3 26 3 26 81 40 4 0 7 -9 7 -22z"/>
<path d="M665 330 c-16 -4 -46 -8 -66 -9 l-36 -1 5 -48 c2 -26 -1 -65 -6 -86
-12 -40 -6 -69 12 -63 6 2 15 20 19 40 8 35 11 37 47 37 21 0 45 3 54 6 12 5
16 0 16 -17 0 -34 -14 -51 -33 -43 -26 10 -20 -14 9 -32 40 -27 51 -6 57 109
4 87 2 99 -14 107 -20 11 -21 11 -64 0z m40 -29 c8 -15 -29 -31 -69 -31 -38 0
-44 8 -24 28 14 14 84 16 93 3z m5 -61 c0 -17 -6 -20 -45 -20 -25 0 -48 0 -52
-1 -4 0 -9 4 -11 10 -4 13 28 26 74 29 28 2 34 -1 34 -18z"/>
<path d="M422 296 c-37 -13 -33 -29 5 -20 23 6 24 5 18 -29 -5 -23 -2 -45 9
-65 25 -49 21 -59 -26 -60 -23 -1 -44 -4 -47 -8 -12 -12 26 -23 61 -17 36 5
58 0 133 -32 110 -47 129 -50 194 -30 34 10 64 22 67 26 2 4 -31 10 -73 13
-96 8 -196 22 -244 36 -32 9 -36 13 -31 35 3 16 -2 33 -13 46 -18 19 -18 21 4
59 33 59 15 73 -57 46z"/>
</g>
</svg>
