<?xml version="1.0" standalone="no"?>
<!DOCTYPE svg PUBLIC "-//W3C//DTD SVG 20010904//EN"
 "http://www.w3.org/TR/2001/REC-SVG-20010904/DTD/svg10.dtd">
<svg version="1.0" xmlns="http://www.w3.org/2000/svg"
 width="96.000000pt" height="68.000000pt" viewBox="0 0 96.000000 68.000000"
 preserveAspectRatio="xMidYMid meet">
<metadata>
Created by potrace 1.16, written by Peter Selinger 2001-2019
</metadata>
<g transform="translate(0.000000,68.000000) scale(0.100000,-0.100000)"
fill="#000000" stroke="none">
<path d="M470 583 c0 -3 11 -21 25 -38 l24 -33 -32 -5 c-18 -3 -66 -9 -108
-12 -94 -9 -113 -18 -81 -40 57 -40 -8 -253 -109 -358 -45 -47 -58 -67 -43
-67 3 0 30 17 59 37 87 61 140 162 166 314 l13 77 45 6 c25 3 109 10 185 16
77 6 142 13 145 16 3 3 -3 12 -14 21 -15 11 -36 14 -92 9 -59 -5 -73 -3 -73 8
0 22 -49 56 -81 56 -16 0 -29 -3 -29 -7z"/>
<path d="M160 423 c0 -24 54 -92 72 -93 13 0 28 38 22 55 -11 27 -94 61 -94
38z"/>
<path d="M596 399 c-10 -6 -55 -14 -101 -16 l-82 -6 8 -41 c4 -22 9 -86 10
-141 l3 -100 -62 -3 c-34 -2 -62 -7 -62 -12 0 -17 60 -21 133 -10 40 6 146 11
235 12 124 1 162 4 162 14 0 18 -60 28 -117 19 l-46 -7 6 139 6 139 -33 12
c-39 14 -36 14 -60 1z m24 -69 c0 -37 -2 -40 -29 -40 -15 0 -49 -3 -75 -6
l-46 -7 0 41 c0 45 3 46 108 50 l42 2 0 -40z m0 -89 c0 -27 -3 -29 -52 -35
-93 -11 -98 -9 -98 23 0 28 2 30 48 34 108 8 102 10 102 -22z m8 -92 c3 -35 2
-36 -35 -42 -102 -17 -132 -5 -119 48 5 21 13 24 59 28 90 6 92 6 95 -34z"/>
<path d="M220 294 c-19 -13 -53 -30 -75 -36 -52 -15 -61 -23 -45 -43 23 -27
56 -17 114 36 74 68 78 94 6 43z"/>
</g>
</svg>
