<?xml version="1.0" standalone="no"?>
<!DOCTYPE svg PUBLIC "-//W3C//DTD SVG 20010904//EN"
 "http://www.w3.org/TR/2001/REC-SVG-20010904/DTD/svg10.dtd">
<svg version="1.0" xmlns="http://www.w3.org/2000/svg"
 width="96.000000pt" height="68.000000pt" viewBox="0 0 96.000000 68.000000"
 preserveAspectRatio="xMidYMid meet">
<metadata>
Created by potrace 1.16, written by Peter Selinger 2001-2019
</metadata>
<g transform="translate(0.000000,68.000000) scale(0.100000,-0.100000)"
fill="#000000" stroke="none">
<path d="M416 338 c10 -33 24 -48 45 -48 30 0 25 44 -6 58 -38 18 -47 15 -39
-10z"/>
<path d="M435 279 c-82 -10 -159 -20 -170 -22 -19 -3 -19 -4 -1 -12 11 -5 63
-3 120 3 56 7 139 15 185 18 74 6 82 8 66 20 -22 16 -9 17 -200 -7z"/>
</g>
</svg>
