<?xml version="1.0" standalone="no"?>
<!DOCTYPE svg PUBLIC "-//W3C//DTD SVG 20010904//EN"
 "http://www.w3.org/TR/2001/REC-SVG-20010904/DTD/svg10.dtd">
<svg version="1.0" xmlns="http://www.w3.org/2000/svg"
 width="96.000000pt" height="68.000000pt" viewBox="0 0 96.000000 68.000000"
 preserveAspectRatio="xMidYMid meet">
<metadata>
Created by potrace 1.16, written by Peter Selinger 2001-2019
</metadata>
<g transform="translate(0.000000,68.000000) scale(0.100000,-0.100000)"
fill="#000000" stroke="none">
<path d="M505 110 c-3 -5 -3 -14 0 -20 3 -6 -1 -7 -9 -4 -9 3 -16 2 -16 -4 0
-5 -15 -19 -32 -31 -50 -32 -25 -25 38 10 35 20 51 35 44 39 -9 6 -9 9 1 13
10 4 9 6 -3 6 -9 1 -20 -3 -23 -9z"/>
<path d="M664 99 c-3 -5 0 -8 8 -7 7 2 12 -3 10 -11 -2 -9 3 -11 13 -7 9 3 14
2 11 -3 -3 -4 4 -18 16 -30 22 -25 43 -16 32 13 -8 21 -82 58 -90 45z"/>
</g>
</svg>
