<?xml version="1.0" standalone="no"?>
<!DOCTYPE svg PUBLIC "-//W3C//DTD SVG 20010904//EN"
 "http://www.w3.org/TR/2001/REC-SVG-20010904/DTD/svg10.dtd">
<svg version="1.0" xmlns="http://www.w3.org/2000/svg"
 width="96.000000pt" height="68.000000pt" viewBox="0 0 96.000000 68.000000"
 preserveAspectRatio="xMidYMid meet">
<metadata>
Created by potrace 1.16, written by Peter Selinger 2001-2019
</metadata>
<g transform="translate(0.000000,68.000000) scale(0.100000,-0.100000)"
fill="#000000" stroke="none">
<path d="M434 496 c5 -22 2 -24 -47 -32 l-52 -8 48 -4 c31 -2 47 -8 47 -16 0
-17 -31 -26 -92 -26 -27 0 -48 -4 -48 -10 0 -6 28 -10 65 -10 36 0 65 -4 65
-8 0 -18 -26 -32 -62 -32 -21 0 -38 -4 -38 -9 0 -12 91 -23 105 -11 6 5 54 12
107 16 96 7 96 7 95 33 -2 29 21 38 108 40 39 1 46 3 36 14 -7 7 -33 11 -67
10 -51 -3 -55 -1 -49 17 10 30 -34 43 -103 30 -31 -5 -57 -10 -59 -10 -2 0 -3
6 -3 14 0 14 -21 26 -47 26 -11 0 -14 -7 -9 -24z m161 -46 c0 -11 -15 -17 -55
-21 -62 -7 -71 -4 -64 16 10 26 119 31 119 5z m-15 -50 c0 -14 -33 -26 -93
-33 -45 -6 -47 -6 -37 13 9 17 28 22 108 28 12 1 22 -3 22 -8z"/>
</g>
</svg>
