<?xml version="1.0" standalone="no"?>
<!DOCTYPE svg PUBLIC "-//W3C//DTD SVG 20010904//EN"
 "http://www.w3.org/TR/2001/REC-SVG-20010904/DTD/svg10.dtd">
<svg version="1.0" xmlns="http://www.w3.org/2000/svg"
 width="96.000000pt" height="68.000000pt" viewBox="0 0 96.000000 68.000000"
 preserveAspectRatio="xMidYMid meet">
<metadata>
Created by potrace 1.16, written by Peter Selinger 2001-2019
</metadata>
<g transform="translate(0.000000,68.000000) scale(0.100000,-0.100000)"
fill="#000000" stroke="none">
<path d="M423 586 l26 -34 -42 -6 c-23 -3 -79 -8 -124 -12 -82 -7 -103 -16
-62 -29 20 -7 21 -12 17 -94 -3 -48 -15 -113 -27 -147 -21 -64 -82 -174 -107
-195 -15 -12 -19 -29 -6 -29 16 0 110 100 126 135 10 20 20 34 23 31 3 -3 31
8 61 25 l55 30 -5 -70 c-6 -76 -3 -87 27 -92 15 -3 9 -12 -34 -47 -66 -52 -51
-54 40 -6 52 28 67 40 59 49 -17 21 107 31 129 11 29 -27 41 -1 41 91 0 46 3
83 8 83 4 0 25 -14 46 -30 32 -24 49 -30 90 -30 71 0 91 15 40 29 -21 6 -44
11 -51 11 -15 0 -173 82 -173 90 0 4 10 6 22 6 17 -1 22 5 23 24 0 28 25 37
110 39 39 1 46 3 36 14 -7 7 -33 11 -67 10 -48 -2 -54 -1 -54 17 0 26 -35 44
-68 35 -58 -16 -92 -16 -92 -1 0 8 -6 16 -12 19 -7 2 38 8 100 12 79 5 112 11
112 20 0 20 -45 27 -121 19 -65 -6 -69 -5 -69 14 0 21 -42 42 -83 42 -18 0
-18 -2 6 -34z m7 -80 c0 -2 3 -11 6 -20 5 -12 -1 -16 -22 -17 -16 -1 -40 -5
-54 -9 -21 -8 -18 -9 17 -7 48 1 72 -13 51 -30 -17 -15 -138 -21 -138 -8 1 41
15 85 29 88 21 6 111 8 111 3z m166 -47 c10 -17 -7 -26 -69 -33 -52 -6 -58 -4
-55 11 5 27 109 46 124 22z m-16 -59 c0 -13 -32 -25 -88 -34 -38 -6 -43 -4
-40 11 2 14 16 19 58 24 30 3 58 6 63 7 4 1 7 -3 7 -8z m-170 -35 c-7 -9 -29
-15 -52 -15 -24 0 -37 -4 -33 -10 3 -5 21 -10 38 -10 l32 -1 -55 -49 c-30 -28
-61 -50 -67 -50 -7 0 -13 -5 -13 -12 0 -6 -3 -8 -6 -5 -4 4 0 32 9 64 8 32 18
70 21 85 6 25 10 27 69 30 65 3 77 -3 57 -27z m158 -35 c17 -11 32 -21 32 -23
0 -2 -15 -3 -32 -3 -18 0 -63 -4 -100 -8 -68 -8 -76 -5 -59 23 8 13 33 19 116
30 6 0 25 -8 43 -19z m1 -119 l-1 -69 -85 -7 c-46 -4 -87 -4 -90 -1 -3 3 -3
12 0 21 4 10 20 15 49 16 63 0 125 13 111 22 -7 4 -42 3 -79 -3 -43 -7 -71 -7
-77 -1 -18 18 4 29 78 36 41 4 77 11 81 16 7 12 -16 11 -91 -1 -44 -7 -61 -7
-67 3 -14 23 17 33 119 36 l52 1 0 -69z"/>
<path d="M520 94 c0 -11 95 -94 107 -94 17 0 25 17 18 40 -4 11 -27 27 -61 39
-60 23 -64 24 -64 15z"/>
</g>
</svg>
