<?xml version="1.0" standalone="no"?>
<!DOCTYPE svg PUBLIC "-//W3C//DTD SVG 20010904//EN"
 "http://www.w3.org/TR/2001/REC-SVG-20010904/DTD/svg10.dtd">
<svg version="1.0" xmlns="http://www.w3.org/2000/svg"
 width="90.000000pt" height="92.000000pt" viewBox="0 0 90.000000 92.000000"
 preserveAspectRatio="xMidYMid meet">
<metadata>
Created by potrace 1.16, written by Peter Selinger 2001-2019
</metadata>
<g transform="translate(0.000000,92.000000) scale(0.100000,-0.100000)"
fill="#000000" stroke="none">
<path d="M505 892 c-3 -16 -21 -52 -40 -80 -18 -28 -37 -56 -40 -63 -12 -18
28 6 65 41 30 28 39 31 119 34 88 4 121 11 121 27 0 18 -50 20 -120 6 l-71
-15 17 26 c16 24 16 26 -2 39 -28 20 -42 16 -49 -15z"/>
<path d="M236 867 c-3 -17 -31 -65 -61 -105 -31 -39 -51 -72 -46 -72 14 0 111
79 118 96 4 11 13 14 29 10 28 -7 127 3 145 15 12 8 11 11 -1 19 -14 11 -68 7
-120 -6 -24 -7 -24 -7 -7 13 22 25 22 40 -2 53 -34 18 -48 12 -55 -23z"/>
<path d="M575 760 c32 -34 53 -38 62 -14 8 22 -22 44 -61 44 l-30 0 29 -30z"/>
<path d="M260 753 c0 -16 58 -65 69 -59 19 12 12 44 -11 51 -13 4 -31 9 -40
11 -10 3 -18 1 -18 -3z"/>
<path d="M475 740 c-3 -5 -3 -20 0 -33 8 -29 0 -32 -78 -42 -32 -4 -57 -11
-57 -15 0 -15 35 -21 87 -14 49 6 53 5 53 -14 0 -16 -9 -22 -42 -28 -24 -4
-62 -7 -86 -6 -37 0 -42 -2 -36 -16 3 -10 9 -63 13 -119 3 -56 10 -105 14
-109 12 -12 27 17 27 54 0 31 2 32 39 32 22 0 46 3 55 6 13 5 16 -1 16 -32 0
-22 4 -46 10 -54 7 -11 11 -9 19 13 6 16 11 36 11 45 0 31 15 40 78 47 49 5
62 4 62 -7 0 -28 -17 -41 -45 -34 l-27 7 34 -40 c18 -23 36 -41 39 -41 3 0 14
9 24 20 14 16 20 44 25 119 4 54 10 103 14 109 3 6 -6 19 -22 30 -26 19 -31
20 -87 6 -81 -19 -87 -18 -83 9 3 19 12 24 63 32 74 13 74 30 1 30 -30 0 -54
2 -54 5 2 20 -6 29 -32 38 -17 6 -32 7 -35 2z m185 -169 c0 -15 -7 -18 -37
-18 -21 1 -50 -2 -65 -6 -24 -6 -28 -4 -28 12 0 24 12 29 78 30 44 1 52 -2 52
-18z m-180 -20 c0 -18 -38 -31 -92 -31 -31 0 -20 29 15 39 54 15 77 13 77 -8z
m180 -43 c0 -21 -5 -23 -65 -25 -50 -1 -65 2 -65 13 0 13 14 19 70 27 54 9 60
7 60 -15z m-180 -23 c0 -15 -16 -21 -77 -28 -28 -3 -33 0 -33 17 0 18 7 21 55
24 43 2 55 -1 55 -13z"/>
<path d="M722 666 c41 -39 65 -45 75 -20 9 24 -19 45 -68 51 l-44 5 37 -36z"/>
<path d="M160 647 c0 -21 53 -87 70 -87 33 0 35 62 2 75 -46 19 -72 23 -72 12z"/>
<path d="M70 504 c0 -3 14 -24 31 -45 38 -48 69 -52 69 -9 0 23 -7 33 -30 45
-29 15 -70 20 -70 9z"/>
<path d="M217 358 c-20 -37 -55 -86 -77 -109 -42 -45 -43 -53 -13 -112 7 -15
18 -27 23 -27 5 0 13 12 16 28 4 15 27 80 51 144 25 65 43 123 41 130 -2 6
-21 -18 -41 -54z"/>
<path d="M550 366 c0 -3 4 -16 9 -29 l9 -24 -146 -13 c-170 -15 -187 -20 -148
-45 25 -16 33 -16 129 -2 56 9 117 18 135 20 l32 4 0 -80 0 -80 -45 5 c-25 3
-45 3 -45 1 0 -3 20 -25 45 -50 71 -73 95 -45 95 113 l0 94 110 0 c90 0 110 3
110 15 0 30 -52 45 -121 35 -91 -13 -99 -13 -99 9 0 10 -7 22 -16 25 -18 7
-54 8 -54 2z"/>
<path d="M350 213 c0 -19 66 -86 78 -79 16 10 15 51 -1 65 -19 15 -77 26 -77
14z"/>
</g>
</svg>
