<?xml version="1.0" standalone="no"?>
<!DOCTYPE svg PUBLIC "-//W3C//DTD SVG 20010904//EN"
 "http://www.w3.org/TR/2001/REC-SVG-20010904/DTD/svg10.dtd">
<svg version="1.0" xmlns="http://www.w3.org/2000/svg"
 width="96.000000pt" height="68.000000pt" viewBox="0 0 96.000000 68.000000"
 preserveAspectRatio="xMidYMid meet">
<metadata>
Created by potrace 1.16, written by Peter Selinger 2001-2019
</metadata>
<g transform="translate(0.000000,68.000000) scale(0.100000,-0.100000)"
fill="#000000" stroke="none">
<path d="M211 542 c51 -68 89 -84 89 -37 0 27 -17 39 -69 49 -31 5 -32 5 -20
-12z"/>
<path d="M152 384 c36 -37 68 -41 68 -10 0 18 -50 46 -82 46 -21 0 -20 -2 14
-36z"/>
<path d="M215 258 c-22 -33 -52 -69 -67 -79 -33 -24 -35 -48 -9 -80 l18 -23
16 30 c23 46 89 206 85 209 -2 2 -21 -24 -43 -57z"/>
</g>
</svg>
