<?xml version="1.0" standalone="no"?>
<!DOCTYPE svg PUBLIC "-//W3C//DTD SVG 20010904//EN"
 "http://www.w3.org/TR/2001/REC-SVG-20010904/DTD/svg10.dtd">
<svg version="1.0" xmlns="http://www.w3.org/2000/svg"
 width="96.000000pt" height="68.000000pt" viewBox="0 0 96.000000 68.000000"
 preserveAspectRatio="xMidYMid meet">
<metadata>
Created by potrace 1.16, written by Peter Selinger 2001-2019
</metadata>
<g transform="translate(0.000000,68.000000) scale(0.100000,-0.100000)"
fill="#000000" stroke="none">
<path d="M441 585 c-11 -40 -40 -85 -90 -137 -44 -47 -27 -49 31 -5 42 32 49
34 153 40 117 7 155 14 155 28 0 19 -53 20 -144 1 -53 -11 -96 -16 -96 -12 0
4 14 24 30 45 35 44 35 44 13 61 -29 21 -41 16 -52 -21z"/>
</g>
</svg>
