<?xml version="1.0" standalone="no"?>
<!DOCTYPE svg PUBLIC "-//W3C//DTD SVG 20010904//EN"
 "http://www.w3.org/TR/2001/REC-SVG-20010904/DTD/svg10.dtd">
<svg version="1.0" xmlns="http://www.w3.org/2000/svg"
 width="96.000000pt" height="68.000000pt" viewBox="0 0 96.000000 68.000000"
 preserveAspectRatio="xMidYMid meet">
<metadata>
Created by potrace 1.16, written by Peter Selinger 2001-2019
</metadata>
<g transform="translate(0.000000,68.000000) scale(0.100000,-0.100000)"
fill="#000000" stroke="none">
<path d="M440 580 c-10 -38 -66 -122 -98 -147 -8 -7 -13 -15 -10 -18 3 -3 25
10 49 28 42 32 49 34 158 41 123 8 168 21 137 38 -12 7 -49 4 -117 -8 -90 -16
-131 -14 -102 4 6 4 20 22 31 41 20 32 20 35 4 47 -28 22 -41 16 -52 -26z"/>
<path d="M200 554 c0 -11 28 -43 57 -68 19 -15 25 -16 38 -6 20 17 19 47 -3
59 -26 14 -92 25 -92 15z"/>
<path d="M520 435 c-47 -8 -94 -12 -105 -9 -19 5 -20 0 -20 -58 l0 -63 -60 -5
c-58 -6 -59 -6 -32 -18 16 -7 39 -9 52 -6 12 3 25 1 29 -4 7 -11 -15 -72 -26
-72 -9 0 -11 -44 -2 -53 4 -3 18 0 33 7 22 12 122 21 184 17 20 -1 22 -20 4
-45 -14 -19 -40 -23 -77 -11 -24 7 -23 6 10 -33 19 -22 42 -41 51 -41 23 -1
68 50 75 87 7 36 17 39 74 16 28 -11 45 -13 51 -7 14 14 -46 63 -77 63 -24 0
-25 3 -22 48 l3 47 73 3 c96 4 94 26 -2 30 -68 3 -68 3 -63 30 2 15 7 34 10
42 18 42 -41 54 -163 35z m100 -64 l0 -48 -46 -7 c-26 -3 -68 -6 -93 -6 l-47
0 6 48 5 47 45 6 c25 3 64 7 88 7 l42 2 0 -49z m-8 -118 c-2 -27 -5 -49 -6
-49 0 -1 -47 -4 -103 -8 l-101 -7 12 48 12 48 65 6 c35 3 78 6 95 7 l32 2 -6
-47z"/>
<path d="M490 380 c0 -16 40 -51 50 -45 16 10 11 34 -9 45 -25 13 -41 13 -41
0z"/>
<path d="M480 260 c0 -5 4 -10 9 -10 5 0 11 -9 14 -20 3 -11 10 -20 16 -20 17
0 13 47 -5 54 -23 9 -34 7 -34 -4z"/>
<path d="M120 416 c0 -19 57 -66 80 -66 19 0 34 25 24 42 -6 10 -33 21 -76 32
-21 5 -28 3 -28 -8z"/>
<path d="M225 282 c-16 -26 -48 -65 -69 -86 -36 -36 -38 -41 -30 -75 16 -64
40 -48 85 59 22 52 44 103 49 112 6 10 10 22 10 28 0 21 -16 8 -45 -38z"/>
</g>
</svg>
