<?xml version="1.0" standalone="no"?>
<!DOCTYPE svg PUBLIC "-//W3C//DTD SVG 20010904//EN"
 "http://www.w3.org/TR/2001/REC-SVG-20010904/DTD/svg10.dtd">
<svg version="1.0" xmlns="http://www.w3.org/2000/svg"
 width="96.000000pt" height="68.000000pt" viewBox="0 0 96.000000 68.000000"
 preserveAspectRatio="xMidYMid meet">
<metadata>
Created by potrace 1.16, written by Peter Selinger 2001-2019
</metadata>
<g transform="translate(0.000000,68.000000) scale(0.100000,-0.100000)"
fill="#000000" stroke="none">
<path d="M401 607 c-5 -13 -30 -47 -55 -77 -25 -29 -44 -55 -42 -58 2 -2 27
13 55 34 42 32 60 38 108 41 l57 4 -34 -38 c-19 -21 -38 -39 -42 -41 -5 -2 -8
-8 -8 -13 0 -17 23 -9 64 24 23 18 58 43 79 56 20 12 37 27 37 31 0 16 -66 22
-106 11 -22 -6 -48 -11 -58 -11 -19 0 -19 0 0 21 16 17 16 22 4 29 -26 16 -50
11 -59 -13z"/>
</g>
</svg>
