<?xml version="1.0" standalone="no"?>
<!DOCTYPE svg PUBLIC "-//W3C//DTD SVG 20010904//EN"
 "http://www.w3.org/TR/2001/REC-SVG-20010904/DTD/svg10.dtd">
<svg version="1.0" xmlns="http://www.w3.org/2000/svg"
 width="96.000000pt" height="68.000000pt" viewBox="0 0 96.000000 68.000000"
 preserveAspectRatio="xMidYMid meet">
<metadata>
Created by potrace 1.16, written by Peter Selinger 2001-2019
</metadata>
<g transform="translate(0.000000,68.000000) scale(0.100000,-0.100000)"
fill="#000000" stroke="none">
<path d="M636 242 c-8 -16 -27 -44 -42 -61 -39 -47 -21 -60 50 -36 53 18 56
18 75 1 19 -17 21 -17 27 -2 4 10 -1 25 -11 36 -21 23 -57 27 -49 6 3 -9 -4
-16 -22 -20 -37 -10 -39 -3 -12 43 17 30 20 43 11 52 -9 9 -15 4 -27 -19z"/>
</g>
</svg>
