<?xml version="1.0" standalone="no"?>
<!DOCTYPE svg PUBLIC "-//W3C//DTD SVG 20010904//EN"
 "http://www.w3.org/TR/2001/REC-SVG-20010904/DTD/svg10.dtd">
<svg version="1.0" xmlns="http://www.w3.org/2000/svg"
 width="96.000000pt" height="68.000000pt" viewBox="0 0 96.000000 68.000000"
 preserveAspectRatio="xMidYMid meet">
<metadata>
Created by potrace 1.16, written by Peter Selinger 2001-2019
</metadata>
<g transform="translate(0.000000,68.000000) scale(0.100000,-0.100000)"
fill="#000000" stroke="none">
<path d="M235 390 c-11 -5 -45 -9 -76 -9 l-57 -1 13 -38 c7 -20 16 -69 20
-109 9 -85 15 -99 41 -85 24 13 86 18 101 9 6 -4 14 -3 18 2 8 15 26 221 20
232 -7 11 -53 11 -80 -1z m30 -60 c0 -34 -1 -35 -45 -41 -53 -8 -63 -1 -58 37
2 23 9 30 33 35 57 13 70 7 70 -31z m0 -97 c-4 -21 -8 -38 -8 -39 -15 -9 -72
-22 -78 -18 -5 3 -9 23 -9 44 0 41 5 44 79 49 22 1 23 -2 16 -36z"/>
</g>
</svg>
