<?xml version="1.0" standalone="no"?>
<!DOCTYPE svg PUBLIC "-//W3C//DTD SVG 20010904//EN"
 "http://www.w3.org/TR/2001/REC-SVG-20010904/DTD/svg10.dtd">
<svg version="1.0" xmlns="http://www.w3.org/2000/svg"
 width="96.000000pt" height="68.000000pt" viewBox="0 0 96.000000 68.000000"
 preserveAspectRatio="xMidYMid meet">
<metadata>
Created by potrace 1.16, written by Peter Selinger 2001-2019
</metadata>
<g transform="translate(0.000000,68.000000) scale(0.100000,-0.100000)"
fill="#000000" stroke="none">
<path d="M470 571 c0 -6 -16 -37 -35 -70 -33 -57 -38 -61 -72 -61 -34 0 -35
-1 -20 -18 9 -10 23 -47 30 -83 12 -56 16 -64 35 -62 27 3 29 -24 6 -73 -17
-36 -102 -128 -125 -136 -8 -3 -11 -8 -8 -12 8 -9 75 29 112 63 44 40 90 118
84 142 -4 15 -1 19 11 17 14 -3 18 -20 22 -95 6 -102 17 -124 78 -144 46 -15
179 -6 220 15 35 18 39 33 17 62 -8 10 -15 27 -15 37 0 30 -16 18 -28 -21 -14
-47 -43 -62 -120 -62 -39 0 -67 6 -89 20 -38 22 -40 39 -19 120 8 29 12 60 9
67 -6 16 33 18 42 3 11 -18 27 1 63 79 20 42 38 79 40 82 1 4 -11 12 -29 19
-26 11 -46 10 -127 -4 -146 -25 -145 -25 -78 43 32 33 55 64 52 70 -9 13 -56
15 -56 2z m158 -156 c2 -16 -2 -46 -9 -67 -11 -35 -15 -38 -51 -38 -34 0 -38
3 -38 25 0 19 5 25 23 25 35 0 67 11 61 21 -3 5 -23 6 -45 3 -38 -6 -39 -6
-39 24 0 28 3 31 38 35 53 5 57 4 60 -28z m-140 -17 c-2 -19 -10 -24 -42 -26
-38 -3 -56 8 -56 36 0 8 17 12 51 12 47 0 50 -2 47 -22z m2 -72 c0 -16 -7 -26
-22 -30 -47 -12 -58 -8 -58 24 0 28 2 30 40 30 35 0 40 -3 40 -24z"/>
<path d="M217 543 c-4 -3 -7 -15 -7 -26 0 -10 -14 -46 -31 -78 -24 -45 -37
-59 -54 -59 -22 0 -22 -1 -9 -40 8 -22 17 -72 20 -110 4 -39 10 -73 14 -75 5
-3 32 0 60 5 37 7 57 7 66 -1 17 -14 30 36 39 148 6 80 6 82 -17 88 -13 3 -44
-1 -70 -9 -47 -14 -50 -11 -26 19 75 95 86 114 75 123 -18 14 -52 23 -60 15z
m48 -213 c0 -33 -2 -35 -45 -42 -51 -9 -63 -1 -58 38 2 23 9 30 33 35 57 13
70 7 70 -31z m5 -69 c0 -5 -3 -23 -6 -40 -5 -25 -13 -33 -42 -40 -45 -13 -52
-8 -52 39 0 41 -4 39 78 47 12 2 22 -1 22 -6z"/>
<path d="M640 256 c0 -8 -16 -36 -36 -61 -47 -62 -35 -76 41 -50 53 18 56 18
75 0 18 -16 20 -16 26 -1 4 10 -1 25 -11 36 -21 23 -57 27 -49 6 3 -9 -4 -16
-22 -20 -38 -10 -41 -1 -11 41 20 28 24 40 15 50 -14 17 -28 17 -28 -1z"/>
</g>
</svg>
