<?xml version="1.0" standalone="no"?>
<!DOCTYPE svg PUBLIC "-//W3C//DTD SVG 20010904//EN"
 "http://www.w3.org/TR/2001/REC-SVG-20010904/DTD/svg10.dtd">
<svg version="1.0" xmlns="http://www.w3.org/2000/svg"
 width="96.000000pt" height="68.000000pt" viewBox="0 0 96.000000 68.000000"
 preserveAspectRatio="xMidYMid meet">
<metadata>
Created by potrace 1.16, written by Peter Selinger 2001-2019
</metadata>
<g transform="translate(0.000000,68.000000) scale(0.100000,-0.100000)"
fill="#000000" stroke="none">
<path d="M660 528 c-79 -25 -79 -25 -54 -42 10 -8 30 -22 42 -33 l24 -19 -49
-27 c-41 -22 -44 -27 -23 -27 14 0 42 9 62 20 l38 20 34 -30 c18 -17 41 -30
50 -30 27 0 18 27 -21 58 l-37 29 32 39 32 38 -23 13 c-27 15 -28 15 -107 -9z
m60 -20 c0 -7 -7 -21 -14 -31 -13 -16 -16 -16 -52 0 l-39 16 50 12 c28 7 51
13 53 14 1 0 2 -5 2 -11z"/>
</g>
</svg>
