<?xml version="1.0" standalone="no"?>
<!DOCTYPE svg PUBLIC "-//W3C//DTD SVG 20010904//EN"
 "http://www.w3.org/TR/2001/REC-SVG-20010904/DTD/svg10.dtd">
<svg version="1.0" xmlns="http://www.w3.org/2000/svg"
 width="96.000000pt" height="68.000000pt" viewBox="0 0 96.000000 68.000000"
 preserveAspectRatio="xMidYMid meet">
<metadata>
Created by potrace 1.16, written by Peter Selinger 2001-2019
</metadata>
<g transform="translate(0.000000,68.000000) scale(0.100000,-0.100000)"
fill="#000000" stroke="none">
<path d="M750 277 c0 -9 4 -19 10 -22 6 -4 4 -17 -5 -36 -14 -26 -14 -29 0
-29 8 0 15 9 15 19 0 11 5 23 11 26 6 4 8 14 5 22 -3 8 -1 11 4 8 6 -3 10 -1
10 4 0 6 -4 11 -9 11 -5 0 -16 3 -25 6 -10 4 -16 1 -16 -9z"/>
<path d="M657 264 c7 -3 9 -12 6 -20 -6 -17 15 -64 29 -64 5 0 2 12 -5 28 -7
15 -12 35 -10 45 3 11 -1 17 -14 16 -10 0 -13 -3 -6 -5z"/>
</g>
</svg>
