<?xml version="1.0" standalone="no"?>
<!DOCTYPE svg PUBLIC "-//W3C//DTD SVG 20010904//EN"
 "http://www.w3.org/TR/2001/REC-SVG-20010904/DTD/svg10.dtd">
<svg version="1.0" xmlns="http://www.w3.org/2000/svg"
 width="96.000000pt" height="68.000000pt" viewBox="0 0 96.000000 68.000000"
 preserveAspectRatio="xMidYMid meet">
<metadata>
Created by potrace 1.16, written by Peter Selinger 2001-2019
</metadata>
<g transform="translate(0.000000,68.000000) scale(0.100000,-0.100000)"
fill="#000000" stroke="none">
<path d="M525 170 c-3 -5 1 -10 9 -10 9 0 16 5 16 10 0 6 -4 10 -9 10 -6 0
-13 -4 -16 -10z"/>
<path d="M807 153 c-11 -10 -8 -35 3 -28 6 3 7 -1 4 -9 -3 -9 -9 -15 -12 -13
-4 1 -19 -7 -34 -17 -40 -26 -179 -27 -208 -1 -13 11 -18 25 -14 37 3 12 0 18
-10 18 -9 0 -16 -6 -16 -14 0 -19 39 -66 55 -66 7 0 15 -4 17 -9 3 -10 61 -14
147 -12 44 1 51 3 42 15 -9 11 -7 12 13 9 35 -7 50 25 33 66 -7 17 -16 28 -20
24z"/>
</g>
</svg>
