<?xml version="1.0" standalone="no"?>
<!DOCTYPE svg PUBLIC "-//W3C//DTD SVG 20010904//EN"
 "http://www.w3.org/TR/2001/REC-SVG-20010904/DTD/svg10.dtd">
<svg version="1.0" xmlns="http://www.w3.org/2000/svg"
 width="96.000000pt" height="68.000000pt" viewBox="0 0 96.000000 68.000000"
 preserveAspectRatio="xMidYMid meet">
<metadata>
Created by potrace 1.16, written by Peter Selinger 2001-2019
</metadata>
<g transform="translate(0.000000,68.000000) scale(0.100000,-0.100000)"
fill="#000000" stroke="none">
<path d="M550 271 l0 -29 -100 -7 c-55 -4 -100 -11 -100 -15 0 -15 55 -20 118
-12 34 5 62 5 62 0 0 -14 -78 -85 -130 -118 -28 -18 -50 -34 -50 -36 0 -17
168 79 185 106 16 25 22 4 21 -67 -1 -72 1 -78 19 -78 18 0 21 8 25 80 l5 80
55 -53 c47 -44 61 -52 95 -52 22 0 51 3 64 7 20 5 13 10 -45 31 -68 24 -174
86 -174 102 0 13 42 20 135 20 82 1 88 2 70 16 -16 12 -38 14 -113 8 -85 -6
-92 -5 -86 11 8 19 -10 35 -38 35 -13 0 -18 -8 -18 -29z"/>
</g>
</svg>
