<?xml version="1.0" standalone="no"?>
<!DOCTYPE svg PUBLIC "-//W3C//DTD SVG 20010904//EN"
 "http://www.w3.org/TR/2001/REC-SVG-20010904/DTD/svg10.dtd">
<svg version="1.0" xmlns="http://www.w3.org/2000/svg"
 width="96.000000pt" height="68.000000pt" viewBox="0 0 96.000000 68.000000"
 preserveAspectRatio="xMidYMid meet">
<metadata>
Created by potrace 1.16, written by Peter Selinger 2001-2019
</metadata>
<g transform="translate(0.000000,68.000000) scale(0.100000,-0.100000)"
fill="#000000" stroke="none">
<path d="M564 184 c-9 -19 -28 -42 -40 -51 -24 -16 -33 -43 -14 -43 6 0 41 8
77 17 49 12 68 13 71 5 2 -7 10 -12 18 -12 17 0 19 31 2 48 -16 16 -49 15 -45
0 1 -8 -11 -14 -32 -16 l-35 -4 26 34 c14 18 23 39 21 46 -8 23 -32 12 -49
-24z"/>
</g>
</svg>
