<?xml version="1.0" standalone="no"?>
<!DOCTYPE svg PUBLIC "-//W3C//DTD SVG 20010904//EN"
 "http://www.w3.org/TR/2001/REC-SVG-20010904/DTD/svg10.dtd">
<svg version="1.0" xmlns="http://www.w3.org/2000/svg"
 width="90.000000pt" height="92.000000pt" viewBox="0 0 90.000000 92.000000"
 preserveAspectRatio="xMidYMid meet">
<metadata>
Created by potrace 1.16, written by Peter Selinger 2001-2019
</metadata>
<g transform="translate(0.000000,92.000000) scale(0.100000,-0.100000)"
fill="#000000" stroke="none">
<path d="M597 830 c-74 -22 -334 -52 -399 -45 -72 7 -74 5 -58 -26 19 -35 31
-235 21 -338 -13 -125 -33 -181 -92 -263 -27 -38 -45 -68 -41 -68 4 0 28 16
54 35 53 39 102 127 118 214 5 29 10 131 10 225 l0 172 98 12 c205 26 312 35
318 29 3 -3 1 -75 -6 -159 -10 -119 -10 -174 -1 -243 24 -180 122 -315 229
-315 39 0 42 5 26 55 -7 25 -16 73 -20 107 l-8 63 -15 -65 c-11 -44 -21 -66
-33 -68 -39 -7 -110 109 -129 213 -17 90 -5 244 25 338 14 43 26 82 26 87 0
13 -61 50 -80 49 -8 0 -28 -5 -43 -9z"/>
<path d="M385 718 c-4 -13 -19 -42 -34 -65 -24 -40 -28 -43 -60 -37 -33 7 -33
6 -18 -17 8 -13 18 -53 22 -89 8 -68 23 -110 34 -93 9 15 138 26 146 13 13
-21 33 10 55 83 12 40 26 77 32 84 13 16 2 32 -34 48 -26 10 -40 9 -90 -6 -85
-27 -89 -24 -35 25 l49 44 -23 16 c-31 21 -36 20 -44 -6z m108 -110 c9 -28 -5
-46 -36 -46 -18 0 -52 -5 -77 -11 -61 -14 -60 -14 -60 13 0 21 8 25 68 39 85
19 99 20 105 5z m-9 -100 c-5 -28 -11 -36 -28 -35 -11 0 -45 -3 -73 -8 l-53
-8 0 30 c0 30 0 30 70 37 38 4 72 12 76 17 10 18 14 4 8 -33z"/>
<path d="M415 384 c-33 -7 -77 -13 -98 -14 -54 0 -43 -24 14 -28 46 -4 59 -14
59 -48 0 -18 -8 -23 -46 -30 -60 -12 -61 -28 -1 -32 44 -3 47 -5 47 -32 0 -31
0 -31 -132 -45 -32 -4 -58 -10 -58 -15 0 -17 58 -28 97 -19 21 6 107 13 191
16 83 3 152 10 152 14 0 5 -11 16 -25 25 -25 16 -46 16 -152 -3 -32 -5 -33 -4
-33 30 0 37 12 47 58 47 15 0 33 4 41 9 20 13 -23 34 -59 29 -25 -4 -29 -1
-32 28 -4 32 -3 32 49 39 59 7 73 19 44 34 -24 13 -39 13 -116 -5z"/>
</g>
</svg>
