<?xml version="1.0" standalone="no"?>
<!DOCTYPE svg PUBLIC "-//W3C//DTD SVG 20010904//EN"
 "http://www.w3.org/TR/2001/REC-SVG-20010904/DTD/svg10.dtd">
<svg version="1.0" xmlns="http://www.w3.org/2000/svg"
 width="96.000000pt" height="68.000000pt" viewBox="0 0 96.000000 68.000000"
 preserveAspectRatio="xMidYMid meet">
<metadata>
Created by potrace 1.16, written by Peter Selinger 2001-2019
</metadata>
<g transform="translate(0.000000,68.000000) scale(0.100000,-0.100000)"
fill="#000000" stroke="none">
<path d="M286 558 c-28 -97 -55 -141 -143 -230 -31 -32 -53 -58 -49 -58 14 0
51 23 93 56 35 29 45 33 67 24 16 -6 26 -17 26 -30 0 -16 -7 -20 -32 -20 -18
0 -40 -5 -48 -10 -11 -7 -2 -10 33 -10 l47 0 0 -50 c0 -27 0 -53 1 -57 0 -11
-89 -33 -133 -33 -44 0 -49 -11 -13 -30 23 -12 39 -9 155 29 72 23 130 45 130
48 0 3 -22 2 -50 -2 -56 -8 -56 -7 -44 67 6 33 10 37 45 43 47 8 42 25 -7 25
-27 0 -34 4 -34 20 0 14 9 21 35 26 19 3 35 10 35 15 0 12 -54 11 -109 -2 -24
-5 -46 -8 -48 -5 -3 3 10 25 29 49 18 25 38 53 44 63 10 17 13 16 50 -14 44
-36 64 -41 64 -13 0 13 -14 25 -45 38 -29 11 -45 24 -45 35 0 10 -9 22 -19 28
-25 13 -31 13 -35 -2z"/>
<path d="M367 253 c-2 -10 -8 -26 -12 -36 -7 -17 -6 -17 29 -1 41 20 44 29 17
44 -26 13 -28 13 -34 -7z"/>
<path d="M180 222 c0 -12 34 -42 48 -42 18 0 14 37 -4 44 -22 9 -44 7 -44 -2z"/>
</g>
</svg>
