<?xml version="1.0" standalone="no"?>
<!DOCTYPE svg PUBLIC "-//W3C//DTD SVG 20010904//EN"
 "http://www.w3.org/TR/2001/REC-SVG-20010904/DTD/svg10.dtd">
<svg version="1.0" xmlns="http://www.w3.org/2000/svg"
 width="96.000000pt" height="68.000000pt" viewBox="0 0 96.000000 68.000000"
 preserveAspectRatio="xMidYMid meet">
<metadata>
Created by potrace 1.16, written by Peter Selinger 2001-2019
</metadata>
<g transform="translate(0.000000,68.000000) scale(0.100000,-0.100000)"
fill="#000000" stroke="none">
<path d="M561 552 c-23 -46 -38 -59 -71 -64 -22 -3 -24 -7 -20 -33 3 -16 5
-60 5 -97 0 -46 4 -68 12 -68 6 0 15 4 18 10 3 5 20 9 38 8 30 -1 33 -4 35
-33 2 -31 1 -32 -44 -39 -26 -3 -62 -6 -80 -6 -18 0 -36 -5 -40 -12 -5 -8 -2
-9 10 -5 11 5 15 3 10 -5 -5 -8 9 -9 55 -5 50 6 60 4 54 -7 -10 -16 -64 -62
-123 -106 -32 -23 -38 -30 -20 -25 34 10 110 54 140 82 14 13 28 23 32 23 5 0
8 -29 8 -64 0 -42 5 -67 14 -75 22 -18 35 8 38 76 l3 61 53 -49 c44 -41 59
-49 90 -48 20 0 46 4 57 9 22 9 25 8 -62 35 -50 16 -143 77 -143 94 0 15 43
20 117 14 62 -5 73 -4 73 9 0 24 -27 30 -112 22 -75 -6 -78 -6 -78 14 0 12 -8
26 -17 31 -14 8 -6 10 34 11 28 0 53 -5 55 -11 2 -5 11 -7 21 -4 14 6 17 20
17 85 0 43 3 85 6 94 11 28 -36 40 -120 29 -42 -5 -76 -8 -76 -7 0 2 21 18 46
36 41 29 44 33 28 45 -29 21 -42 15 -63 -25z m129 -81 c0 -15 -10 -19 -57 -25
-32 -4 -75 -9 -95 -13 -33 -5 -38 -3 -38 14 0 16 10 22 58 30 98 17 132 16
132 -6z m8 -58 c-2 -12 -14 -19 -33 -20 -17 -1 -59 -5 -94 -9 -58 -6 -63 -6
-59 12 3 16 15 20 68 25 121 11 122 11 118 -8z m0 -60 c-4 -24 -188 -33 -188
-9 0 15 23 19 148 24 36 2 43 -1 40 -15z"/>
<path d="M280 552 c0 -41 -64 -145 -130 -212 -37 -38 -66 -71 -63 -74 8 -7 51
17 97 53 44 35 81 38 81 6 0 -16 -8 -21 -38 -25 -52 -7 -47 -24 8 -28 l45 -3
0 -49 c0 -48 -1 -49 -37 -59 -21 -6 -60 -11 -86 -11 -41 0 -48 -3 -45 -17 2
-10 14 -23 28 -29 21 -10 45 -5 153 29 82 27 127 47 127 56 0 14 -31 12 -73
-5 -16 -6 -18 -1 -15 47 2 45 6 54 23 57 75 11 92 32 26 32 -30 0 -40 4 -44
19 -4 15 2 20 34 25 22 3 39 10 39 15 0 18 -41 23 -90 11 -27 -7 -54 -10 -60
-8 -10 3 53 100 69 106 5 2 22 -9 40 -23 17 -15 39 -25 48 -23 32 6 19 33 -27
56 -25 12 -45 27 -45 33 0 13 -34 39 -52 39 -7 0 -13 -8 -13 -18z"/>
<path d="M357 235 c-18 -39 -11 -43 33 -20 33 17 39 39 14 49 -26 10 -30 8
-47 -29z"/>
<path d="M170 231 c0 -15 50 -63 63 -58 24 7 19 43 -8 55 -30 14 -55 16 -55 3z"/>
</g>
</svg>
