<?xml version="1.0" standalone="no"?>
<!DOCTYPE svg PUBLIC "-//W3C//DTD SVG 20010904//EN"
 "http://www.w3.org/TR/2001/REC-SVG-20010904/DTD/svg10.dtd">
<svg version="1.0" xmlns="http://www.w3.org/2000/svg"
 width="96.000000pt" height="68.000000pt" viewBox="0 0 96.000000 68.000000"
 preserveAspectRatio="xMidYMid meet">
<metadata>
Created by potrace 1.16, written by Peter Selinger 2001-2019
</metadata>
<g transform="translate(0.000000,68.000000) scale(0.100000,-0.100000)"
fill="#000000" stroke="none">
<path d="M295 561 c-3 -16 -19 -49 -35 -74 -21 -34 -33 -44 -48 -41 -17 5 -18
0 -14 -80 l5 -86 -47 0 c-25 0 -46 -4 -46 -10 0 -16 41 -32 66 -26 19 5 24 3
24 -14 0 -28 -36 -119 -56 -141 -9 -11 -14 -22 -10 -27 22 -20 106 122 106
179 0 13 13 20 50 28 81 17 80 18 80 -46 0 -32 -3 -75 -7 -97 -6 -37 -7 -38
-41 -32 l-35 5 34 -34 c19 -19 40 -35 47 -35 26 0 42 66 42 170 0 60 4 99 9
95 5 -3 12 -1 16 5 3 5 -1 10 -10 10 -14 0 -16 11 -14 71 3 97 -13 105 -130
61 -9 -3 8 18 37 48 57 59 62 74 33 90 -33 17 -49 11 -56 -19z m75 -195 l0
-63 -37 -7 c-21 -3 -51 -6 -67 -6 l-29 0 6 61 c3 33 7 63 10 65 7 7 100 21
110 17 4 -2 7 -33 7 -67z"/>
<path d="M280 377 c0 -16 32 -47 48 -47 23 0 11 30 -18 45 -25 13 -30 13 -30
2z"/>
<path d="M604 498 c4 -13 9 -56 13 -95 l6 -73 -44 -2 c-24 -1 -63 -1 -86 1
-38 2 -60 -12 -33 -21 6 -2 16 -49 23 -105 8 -57 15 -104 18 -106 2 -2 48 -1
102 2 105 6 110 6 120 -21 18 -50 71 22 83 112 3 30 13 71 21 90 13 32 12 35
-9 53 -19 15 -34 17 -87 12 l-64 -6 5 81 c5 87 -2 100 -53 100 -17 0 -20 -4
-15 -22z m164 -220 c3 -37 2 -38 -30 -39 -18 0 -43 -2 -55 -5 -21 -3 -23 0
-23 34 0 21 3 42 7 46 4 4 28 6 53 4 44 -3 45 -4 48 -40z m-148 -7 c0 -39 0
-40 -45 -47 -25 -3 -48 -4 -51 -1 -3 2 -7 20 -11 40 -5 33 -3 36 23 40 80 12
84 10 84 -32z m135 -93 c-10 -47 -12 -48 -56 -48 -39 0 -39 0 -39 40 l0 40 51
0 51 0 -7 -32z m-139 -3 c5 -30 -7 -41 -47 -49 -36 -6 -37 -6 -41 29 -2 20 -2
38 1 41 3 3 23 4 45 2 30 -2 40 -8 42 -23z"/>
<path d="M270 230 c0 -5 5 -10 12 -10 6 0 9 -3 5 -6 -9 -10 25 -43 39 -37 20
7 17 23 -8 44 -23 21 -48 25 -48 9z"/>
</g>
</svg>
