<?xml version="1.0" standalone="no"?>
<!DOCTYPE svg PUBLIC "-//W3C//DTD SVG 20010904//EN"
 "http://www.w3.org/TR/2001/REC-SVG-20010904/DTD/svg10.dtd">
<svg version="1.0" xmlns="http://www.w3.org/2000/svg"
 width="90.000000pt" height="92.000000pt" viewBox="0 0 90.000000 92.000000"
 preserveAspectRatio="xMidYMid meet">
<metadata>
Created by potrace 1.16, written by Peter Selinger 2001-2019
</metadata>
<g transform="translate(0.000000,92.000000) scale(0.100000,-0.100000)"
fill="#000000" stroke="none">
<path d="M520 884 c0 -4 12 -20 26 -35 l26 -28 -38 -6 c-22 -3 -52 -10 -69
-15 -26 -7 -28 -9 -10 -15 13 -4 28 -27 42 -61 l21 -54 -36 -1 c-21 0 -46 -4
-57 -9 -36 -14 23 -30 76 -19 65 12 69 11 69 -15 0 -22 -5 -25 -55 -31 -30 -4
-55 -11 -55 -16 0 -13 47 -22 80 -15 28 5 30 4 30 -27 0 -17 3 -42 6 -55 10
-37 34 -7 34 43 0 48 11 55 88 55 44 0 52 9 27 30 -10 8 -31 11 -60 7 -42 -6
-45 -5 -45 17 0 21 6 24 53 30 28 3 69 6 90 6 41 0 48 13 16 30 -12 7 -41 9
-76 4 l-56 -7 22 32 c18 26 20 35 11 46 -25 31 -47 18 -53 -30 -6 -54 -5 -53
-45 -61 -29 -6 -32 -4 -32 18 0 27 -16 50 -45 66 -18 10 -17 11 10 12 50 0
198 29 209 40 8 8 6 14 -4 21 -14 9 -23 8 -87 -7 -21 -6 -25 -4 -20 9 3 8 0
20 -6 25 -16 13 -87 26 -87 16z"/>
<path d="M280 844 c-27 -9 -61 -12 -85 -8 l-41 6 4 -70 c6 -111 -32 -218 -111
-310 l-32 -37 30 19 c51 32 82 66 106 117 13 27 27 49 30 49 4 0 13 -28 21
-62 7 -34 19 -63 26 -66 6 -2 12 3 12 12 0 11 10 16 34 16 61 0 94 11 89 29
-2 9 5 33 16 54 l19 38 -23 15 c-21 14 -28 14 -70 0 -25 -9 -63 -16 -84 -16
-35 0 -38 2 -34 24 4 21 13 26 67 35 35 6 77 11 94 11 22 0 32 5 32 15 0 8 -5
15 -11 15 -6 0 1 21 15 46 32 57 32 58 1 72 -32 15 -48 14 -105 -4z m50 -56
c0 -37 -14 -49 -73 -63 l-56 -13 5 32 c11 59 14 61 92 65 27 1 32 -2 32 -21z
m0 -198 c0 -24 -6 -33 -26 -40 -37 -15 -74 -12 -74 4 0 8 -3 21 -6 29 -4 12 5
18 38 25 66 15 68 15 68 -18z"/>
<path d="M432 495 c-30 -19 -76 -39 -103 -46 -27 -7 -49 -16 -49 -21 0 -9 9
-9 72 1 41 7 48 5 53 -11 10 -30 -2 -36 -80 -43 -58 -6 -75 -11 -75 -23 0 -13
13 -14 85 -9 l85 6 0 -27 0 -28 -117 -12 c-65 -7 -139 -12 -165 -12 -58 0 -69
-14 -27 -35 29 -15 38 -15 113 -1 44 8 108 18 140 22 l59 7 -6 -54 c-4 -30 -7
-65 -7 -78 0 -20 -4 -23 -27 -18 -16 3 -38 8 -49 12 -15 4 -4 -11 32 -49 29
-31 55 -56 59 -56 17 0 35 77 35 153 l0 84 38 7 c20 3 93 6 160 6 133 0 149 8
81 42 -27 13 -43 15 -74 8 -22 -5 -77 -12 -122 -16 l-83 -7 0 31 c0 28 3 31
40 36 22 3 58 9 80 12 85 12 25 41 -63 30 -49 -6 -53 -5 -63 18 -11 24 -10 26
37 41 54 18 58 24 31 48 -24 22 -27 21 -90 -18z"/>
</g>
</svg>
