<?xml version="1.0" standalone="no"?>
<!DOCTYPE svg PUBLIC "-//W3C//DTD SVG 20010904//EN"
 "http://www.w3.org/TR/2001/REC-SVG-20010904/DTD/svg10.dtd">
<svg version="1.0" xmlns="http://www.w3.org/2000/svg"
 width="96.000000pt" height="68.000000pt" viewBox="0 0 96.000000 68.000000"
 preserveAspectRatio="xMidYMid meet">
<metadata>
Created by potrace 1.16, written by Peter Selinger 2001-2019
</metadata>
<g transform="translate(0.000000,68.000000) scale(0.100000,-0.100000)"
fill="#000000" stroke="none">
<path d="M297 517 l6 -94 -64 -6 c-108 -12 -103 -42 6 -35 l56 3 -3 -44 -3
-44 -92 -36 c-51 -20 -91 -40 -89 -46 1 -5 14 -17 28 -25 24 -13 30 -12 86 23
33 20 63 37 67 37 9 0 2 -117 -8 -126 -3 -3 -20 -2 -36 4 -48 17 -44 0 11 -48
l51 -44 18 23 c16 19 19 41 19 127 l0 104 39 20 c22 11 42 24 46 30 10 16 -33
12 -61 -7 l-25 -16 3 39 c3 35 6 39 33 42 17 2 36 5 44 8 24 8 -9 34 -44 34
-33 0 -33 0 -28 43 3 23 9 46 14 52 25 26 -14 75 -60 75 -18 0 -19 -5 -14 -93z"/>
<path d="M660 469 c-145 -22 -200 -34 -200 -41 0 -4 27 -8 60 -8 35 0 60 -4
60 -10 0 -31 -52 -104 -122 -173 -43 -42 -76 -77 -73 -77 16 0 105 54 105 64
1 29 28 -30 34 -73 6 -49 30 -85 38 -59 3 9 38 14 119 16 l115 4 -4 27 c-2 15
6 49 18 75 22 46 22 47 4 61 -24 18 -43 18 -124 0 -65 -14 -150 -20 -150 -10
0 3 12 18 26 33 48 50 76 99 69 121 -6 19 -2 21 37 21 24 0 67 3 96 6 42 6 50
9 41 20 -13 15 -64 16 -149 3z m82 -265 c-2 -27 -6 -52 -10 -56 -4 -3 -43 -10
-88 -13 l-81 -7 -7 32 c-14 74 -13 76 67 87 39 6 83 9 97 8 23 -2 25 -5 22
-51z"/>
</g>
</svg>
