<?xml version="1.0" standalone="no"?>
<!DOCTYPE svg PUBLIC "-//W3C//DTD SVG 20010904//EN"
 "http://www.w3.org/TR/2001/REC-SVG-20010904/DTD/svg10.dtd">
<svg version="1.0" xmlns="http://www.w3.org/2000/svg"
 width="96.000000pt" height="68.000000pt" viewBox="0 0 96.000000 68.000000"
 preserveAspectRatio="xMidYMid meet">
<metadata>
Created by potrace 1.16, written by Peter Selinger 2001-2019
</metadata>
<g transform="translate(0.000000,68.000000) scale(0.100000,-0.100000)"
fill="#000000" stroke="none">
<path d="M282 596 c-7 -19 -34 -56 -60 -81 -49 -48 -36 -51 33 -6 32 22 66 30
175 45 74 11 144 22 155 26 18 7 17 9 -10 16 -18 4 -69 0 -137 -12 -106 -20
-127 -17 -97 13 16 16 2 33 -25 33 -16 0 -25 -9 -34 -34z"/>
</g>
</svg>
