<?xml version="1.0" standalone="no"?>
<!DOCTYPE svg PUBLIC "-//W3C//DTD SVG 20010904//EN"
 "http://www.w3.org/TR/2001/REC-SVG-20010904/DTD/svg10.dtd">
<svg version="1.0" xmlns="http://www.w3.org/2000/svg"
 width="96.000000pt" height="68.000000pt" viewBox="0 0 96.000000 68.000000"
 preserveAspectRatio="xMidYMid meet">
<metadata>
Created by potrace 1.16, written by Peter Selinger 2001-2019
</metadata>
<g transform="translate(0.000000,68.000000) scale(0.100000,-0.100000)"
fill="#000000" stroke="none">
<path d="M297 355 c-59 -12 -110 -25 -114 -28 -12 -13 72 -7 140 9 37 9 70 14
74 10 3 -3 0 -18 -8 -33 -7 -16 -15 -31 -17 -35 -2 -5 3 -8 11 -8 16 0 77 70
77 88 0 8 -37 24 -50 21 -3 -1 -53 -12 -113 -24z"/>
</g>
</svg>
