<?xml version="1.0" standalone="no"?>
<!DOCTYPE svg PUBLIC "-//W3C//DTD SVG 20010904//EN"
 "http://www.w3.org/TR/2001/REC-SVG-20010904/DTD/svg10.dtd">
<svg version="1.0" xmlns="http://www.w3.org/2000/svg"
 width="96.000000pt" height="68.000000pt" viewBox="0 0 96.000000 68.000000"
 preserveAspectRatio="xMidYMid meet">
<metadata>
Created by potrace 1.16, written by Peter Selinger 2001-2019
</metadata>
<g transform="translate(0.000000,68.000000) scale(0.100000,-0.100000)"
fill="#000000" stroke="none">
<path d="M440 595 c-63 -7 -143 -13 -177 -14 -66 -1 -75 -7 -45 -35 12 -10 24
-44 31 -87 13 -69 30 -94 53 -71 7 7 5 33 -5 83 -9 41 -15 75 -14 76 1 1 75 7
165 14 106 8 166 9 173 2 6 -6 4 -37 -7 -87 -17 -85 -10 -111 24 -90 15 10 80
161 81 190 1 19 -48 34 -107 33 -31 -1 -109 -8 -172 -14z"/>
<path d="M440 515 c-8 -2 -32 -6 -52 -10 -47 -7 -49 -22 -5 -29 40 -7 172 16
172 29 0 10 -84 17 -115 10z"/>
<path d="M445 445 c-5 -2 -27 -6 -47 -10 -64 -10 -42 -25 35 -24 79 1 117 9
120 24 2 9 -87 18 -108 10z"/>
<path d="M505 349 c-22 -4 -78 -11 -125 -14 -74 -4 -85 -7 -82 -22 5 -28 2
-124 -4 -170 -3 -22 -3 -50 1 -62 6 -21 31 -29 37 -11 5 14 221 15 226 1 7
-21 33 -40 47 -35 23 9 29 43 30 176 0 123 -1 127 -23 138 -26 11 -50 11 -107
-1z m59 -25 c9 -3 16 -16 16 -29 0 -20 -6 -23 -72 -28 -40 -4 -94 -9 -120 -13
l-48 -7 0 31 c0 30 1 31 58 37 31 3 66 7 77 9 38 6 73 6 89 0z m16 -103 l0
-28 -87 -7 c-49 -4 -103 -9 -120 -12 -31 -6 -33 -5 -33 25 0 31 0 31 58 32 46
1 130 9 175 18 4 0 7 -12 7 -28z m-2 -81 l-3 -30 -123 -4 c-121 -4 -123 -4
-116 18 9 30 6 28 86 34 40 2 75 6 77 8 2 2 22 4 43 4 38 0 39 -1 36 -30z"/>
</g>
</svg>
