<?xml version="1.0" standalone="no"?>
<!DOCTYPE svg PUBLIC "-//W3C//DTD SVG 20010904//EN"
 "http://www.w3.org/TR/2001/REC-SVG-20010904/DTD/svg10.dtd">
<svg version="1.0" xmlns="http://www.w3.org/2000/svg"
 width="96.000000pt" height="68.000000pt" viewBox="0 0 96.000000 68.000000"
 preserveAspectRatio="xMidYMid meet">
<metadata>
Created by potrace 1.16, written by Peter Selinger 2001-2019
</metadata>
<g transform="translate(0.000000,68.000000) scale(0.100000,-0.100000)"
fill="#000000" stroke="none">
<path d="M524 318 c1 -31 -1 -33 -44 -40 -25 -3 -75 -7 -112 -7 -67 -1 -88
-13 -47 -26 20 -7 80 -2 172 11 l37 6 0 -109 c0 -184 39 -168 48 20 l4 97 136
0 c126 0 135 1 120 16 -19 19 -71 22 -179 11 l-76 -8 4 24 c4 19 0 26 -19 30
-40 11 -46 8 -44 -25z"/>
</g>
</svg>
