<?xml version="1.0" standalone="no"?>
<!DOCTYPE svg PUBLIC "-//W3C//DTD SVG 20010904//EN"
 "http://www.w3.org/TR/2001/REC-SVG-20010904/DTD/svg10.dtd">
<svg version="1.0" xmlns="http://www.w3.org/2000/svg"
 width="96.000000pt" height="68.000000pt" viewBox="0 0 96.000000 68.000000"
 preserveAspectRatio="xMidYMid meet">
<metadata>
Created by potrace 1.16, written by Peter Selinger 2001-2019
</metadata>
<g transform="translate(0.000000,68.000000) scale(0.100000,-0.100000)"
fill="#000000" stroke="none">
<path d="M504 588 c40 -57 42 -55 -40 -63 -52 -5 -73 -10 -66 -17 13 -13 222
-2 315 18 54 11 14 26 -62 23 -72 -4 -76 -3 -79 18 -2 14 -14 25 -34 32 -45
16 -52 14 -34 -11z"/>
<path d="M630 483 c0 -9 -14 -40 -30 -70 -33 -59 -30 -66 14 -28 16 14 32 25
35 25 3 -1 22 -14 41 -30 40 -35 60 -38 60 -10 0 20 -45 50 -75 50 -19 0 -19
14 1 35 13 12 14 19 4 30 -17 20 -50 19 -50 -2z"/>
<path d="M431 445 c-5 -19 -21 -49 -35 -66 -14 -17 -26 -35 -26 -41 0 -12 39
18 53 40 11 16 27 15 48 -4 23 -21 57 -11 39 11 -7 8 -19 15 -26 15 -17 0 -18
22 -3 37 16 16 3 43 -20 43 -14 0 -23 -10 -30 -35z"/>
<path d="M230 450 c-14 -4 -51 -8 -82 -9 -59 -1 -70 -9 -44 -31 8 -6 20 -35
26 -63 14 -67 24 -84 42 -69 8 6 38 12 68 14 54 3 54 3 65 43 5 22 16 50 23
62 16 29 15 50 -4 57 -20 8 -63 6 -94 -4z m25 -40 c4 -6 4 -29 0 -50 -6 -37
-9 -40 -40 -40 -38 0 -40 2 -49 52 -6 36 -6 37 26 41 18 2 38 5 45 5 6 1 15
-3 18 -8z"/>
<path d="M524 318 c1 -32 0 -33 -49 -40 -27 -3 -78 -7 -112 -7 -35 -1 -63 -5
-63 -11 0 -18 49 -22 131 -11 45 6 86 11 90 11 5 0 10 -50 11 -112 2 -71 7
-113 14 -115 16 -5 24 29 31 138 l6 97 125 1 c70 1 128 4 131 7 3 2 -1 10 -7
16 -14 14 -86 15 -179 4 -62 -7 -63 -7 -63 17 0 25 -16 37 -50 37 -14 0 -18
-7 -16 -32z"/>
</g>
</svg>
