<?xml version="1.0" standalone="no"?>
<!DOCTYPE svg PUBLIC "-//W3C//DTD SVG 20010904//EN"
 "http://www.w3.org/TR/2001/REC-SVG-20010904/DTD/svg10.dtd">
<svg version="1.0" xmlns="http://www.w3.org/2000/svg"
 width="96.000000pt" height="68.000000pt" viewBox="0 0 96.000000 68.000000"
 preserveAspectRatio="xMidYMid meet">
<metadata>
Created by potrace 1.16, written by Peter Selinger 2001-2019
</metadata>
<g transform="translate(0.000000,68.000000) scale(0.100000,-0.100000)"
fill="#000000" stroke="none">
<path d="M410 614 c0 -4 9 -21 20 -39 l20 -32 -81 -7 c-67 -5 -85 -4 -99 9
-19 17 -21 15 -53 -42 -9 -17 -17 -41 -17 -52 0 -33 37 -26 60 12 22 35 9 33
330 63 l74 7 -17 -26 c-9 -14 -17 -30 -17 -36 0 -10 119 17 134 30 12 10 -21
49 -41 49 -8 0 -12 4 -9 8 6 9 -20 9 -136 -3 -65 -6 -78 -5 -78 7 0 21 -43 58
-68 58 -12 0 -22 -3 -22 -6z"/>
<path d="M403 477 c-73 -11 -83 -27 -18 -27 l45 0 0 -40 c0 -25 5 -40 12 -40
30 0 -36 -31 -147 -69 -120 -41 -137 -53 -36 -26 30 8 58 12 62 9 5 -2 6 -41
3 -86 l-5 -80 36 6 c58 11 42 -21 -35 -71 -35 -24 -61 -43 -58 -43 21 0 188
83 188 93 0 4 -10 12 -22 17 -18 7 -10 9 37 10 33 1 75 3 93 5 18 1 35 -1 38
-6 11 -18 42 -9 48 14 9 34 7 185 -3 191 -13 9 -61 9 -131 2 l-65 -7 92 43
c50 24 92 48 93 53 2 6 -7 15 -19 21 -19 10 -26 7 -53 -18 -37 -34 -83 -60
-92 -51 -3 4 -6 24 -6 45 0 33 3 38 24 38 38 0 86 12 86 21 0 11 -86 9 -167
-4z m187 -175 c0 -15 -16 -20 -111 -31 -93 -11 -113 -11 -120 1 -22 34 -16 36
194 46 30 2 37 -2 37 -16z m5 -62 c0 -12 -19 -17 -80 -22 -44 -4 -97 -9 -117
-11 -32 -4 -38 -2 -38 13 0 20 26 26 135 33 81 6 100 3 100 -13z m5 -59 c0
-15 -11 -19 -77 -25 -135 -11 -163 -9 -163 14 0 17 8 20 73 23 175 8 167 8
167 -12z"/>
<path d="M291 379 c-22 -26 -28 -39 -19 -39 23 0 83 44 83 60 0 28 -30 18 -64
-21z"/>
<path d="M544 97 c10 -7 39 -29 63 -49 45 -39 73 -48 73 -25 0 26 -31 56 -77
71 -57 19 -88 21 -59 3z"/>
</g>
</svg>
