<?xml version="1.0" standalone="no"?>
<!DOCTYPE svg PUBLIC "-//W3C//DTD SVG 20010904//EN"
 "http://www.w3.org/TR/2001/REC-SVG-20010904/DTD/svg10.dtd">
<svg version="1.0" xmlns="http://www.w3.org/2000/svg"
 width="96.000000pt" height="68.000000pt" viewBox="0 0 96.000000 68.000000"
 preserveAspectRatio="xMidYMid meet">
<metadata>
Created by potrace 1.16, written by Peter Selinger 2001-2019
</metadata>
<g transform="translate(0.000000,68.000000) scale(0.100000,-0.100000)"
fill="#000000" stroke="none">
<path d="M255 464 c-24 -9 -55 -13 -77 -10 -42 7 -44 5 -24 -27 8 -12 17 -43
21 -68 9 -63 16 -72 46 -60 13 5 44 12 69 16 42 5 45 8 46 35 1 17 9 49 19 71
16 35 17 42 4 50 -20 12 -58 10 -104 -7z m41 -66 c-4 -29 -13 -56 -19 -60 -19
-12 -67 -9 -67 5 0 6 -3 29 -6 49 -6 35 -5 37 27 46 69 20 72 18 65 -40z"/>
</g>
</svg>
