<?xml version="1.0" standalone="no"?>
<!DOCTYPE svg PUBLIC "-//W3C//DTD SVG 20010904//EN"
 "http://www.w3.org/TR/2001/REC-SVG-20010904/DTD/svg10.dtd">
<svg version="1.0" xmlns="http://www.w3.org/2000/svg"
 width="90.000000pt" height="92.000000pt" viewBox="0 0 90.000000 92.000000"
 preserveAspectRatio="xMidYMid meet">
<metadata>
Created by potrace 1.16, written by Peter Selinger 2001-2019
</metadata>
<g transform="translate(0.000000,92.000000) scale(0.100000,-0.100000)"
fill="#000000" stroke="none">
<path d="M155 818 c4 -13 9 -66 12 -119 l5 -97 -71 -12 c-60 -11 -69 -15 -59
-28 10 -11 26 -13 70 -8 l58 6 0 -68 0 -67 -85 -45 c-47 -25 -85 -51 -85 -57
0 -7 11 -20 25 -29 24 -16 26 -15 82 37 l58 52 3 -29 c2 -16 1 -62 -3 -103
l-7 -73 -45 5 -45 5 53 -54 c29 -30 54 -54 56 -54 1 0 9 13 18 30 11 22 15 63
15 169 l0 139 31 27 c34 28 34 44 1 26 -31 -17 -32 -15 -32 42 l0 54 43 17
c40 16 41 17 22 32 -11 8 -29 13 -40 10 -20 -5 -20 -2 -14 62 3 37 10 79 14
94 6 23 3 29 -24 42 -45 24 -65 21 -56 -6z"/>
<path d="M565 813 c14 -35 20 -119 13 -168 -10 -67 4 -82 55 -60 58 24 67 21
67 -24 l0 -40 -54 -6 c-30 -4 -62 -4 -72 -1 -18 5 -19 -3 -19 -167 0 -194 6
-216 70 -243 67 -28 185 -12 224 30 19 20 19 22 2 73 -18 53 -31 60 -31 17 0
-36 -32 -65 -81 -74 -80 -15 -149 13 -149 61 0 13 14 18 68 24 37 4 76 10 87
15 19 7 18 9 -7 19 -17 6 -37 7 -50 2 -13 -4 -40 -11 -60 -15 -37 -7 -38 -6
-38 22 0 29 1 30 68 36 76 8 108 20 79 32 -19 7 -90 0 -120 -12 -14 -5 -17 0
-17 24 0 29 2 30 57 37 69 8 85 14 77 27 -4 6 -29 8 -66 4 l-59 -7 3 28 c3 27
6 28 71 37 37 4 67 12 67 17 0 5 -4 9 -10 9 -5 0 -1 24 10 53 19 49 19 53 3
65 -10 7 -27 10 -38 7 -11 -3 -40 -8 -64 -12 -43 -6 -44 -5 -38 18 4 13 7 31
7 40 0 13 14 18 60 23 63 7 81 19 53 34 -11 7 -30 5 -56 -4 -58 -21 -60 -19
-54 31 6 37 3 46 -13 55 -31 16 -53 13 -45 -7z"/>
<path d="M350 803 c0 -5 11 -27 24 -50 l24 -42 -46 -6 c-26 -4 -53 -8 -60 -11
-19 -6 -5 -24 19 -24 13 0 19 -7 20 -22 0 -13 6 -39 13 -58 l13 -35 -51 -10
c-48 -10 -50 -12 -28 -23 18 -10 38 -10 103 3 45 8 101 15 125 15 24 0 44 4
44 9 0 19 -31 33 -64 29 l-34 -4 22 44 c20 43 20 44 2 58 -19 13 -18 14 12 20
18 4 32 10 32 15 0 12 -46 22 -70 16 -15 -4 -20 0 -20 16 0 28 -9 41 -37 56
-25 13 -43 14 -43 4z m86 -169 c-8 -67 -11 -74 -37 -74 -14 0 -19 7 -19 29 0
16 -9 39 -19 52 l-19 24 41 12 c23 6 46 11 51 12 5 1 6 -24 2 -55z"/>
<path d="M405 483 c-22 -8 -55 -12 -73 -9 -31 5 -32 4 -25 -22 5 -15 8 -71 7
-124 -1 -87 -4 -103 -31 -158 -16 -33 -26 -60 -22 -60 16 0 69 73 79 110 9 34
14 39 28 31 12 -7 26 -2 54 21 l38 30 0 -34 c0 -18 -3 -50 -6 -71 -7 -36 -8
-38 -37 -31 l-31 7 29 -36 c65 -78 81 -51 77 134 -2 80 2 148 8 165 10 25 8
30 -12 46 -27 20 -30 20 -83 1z m45 -40 c0 -10 3 -41 6 -69 l6 -51 -50 -21
c-28 -12 -53 -22 -56 -22 -3 0 -3 21 -1 48 2 26 4 53 5 61 0 10 9 6 28 -12 33
-32 52 -35 52 -7 0 14 -12 26 -37 37 -51 23 -51 23 -29 39 29 20 76 18 76 -3z"/>
</g>
</svg>
