<?xml version="1.0" standalone="no"?>
<!DOCTYPE svg PUBLIC "-//W3C//DTD SVG 20010904//EN"
 "http://www.w3.org/TR/2001/REC-SVG-20010904/DTD/svg10.dtd">
<svg version="1.0" xmlns="http://www.w3.org/2000/svg"
 width="90.000000pt" height="92.000000pt" viewBox="0 0 90.000000 92.000000"
 preserveAspectRatio="xMidYMid meet">
<metadata>
Created by potrace 1.16, written by Peter Selinger 2001-2019
</metadata>
<g transform="translate(0.000000,92.000000) scale(0.100000,-0.100000)"
fill="#000000" stroke="none">
<path d="M405 903 c4 -10 9 -42 12 -71 7 -66 1 -72 -88 -72 -37 0 -80 -3 -97
-6 -30 -6 -31 -8 -17 -27 19 -28 19 -123 0 -250 -17 -117 -53 -226 -105 -326
-22 -41 -38 -76 -36 -78 2 -2 24 19 49 47 50 55 94 154 121 273 12 53 46 286
46 318 0 4 19 10 43 14 23 3 49 9 58 11 11 3 18 -3 21 -20 5 -23 1 -26 -48
-37 -70 -16 -70 -33 0 -27 49 4 55 2 65 -18 13 -29 61 -39 150 -31 77 7 101
14 101 32 0 20 -35 27 -77 16 -48 -14 -140 -14 -148 -1 -7 11 -7 11 79 31 80
19 90 44 15 36 -30 -3 -62 -8 -71 -12 -15 -6 -18 -2 -16 18 2 23 7 25 68 31
36 3 87 6 113 6 l48 0 -22 -31 -22 -32 59 7 c89 11 96 14 84 37 -6 11 -28 30
-48 43 -36 24 -39 24 -112 12 -41 -8 -94 -16 -117 -19 -42 -5 -43 -4 -43 23 0
26 2 27 63 33 69 6 97 15 97 28 0 25 -72 21 -148 -8 -12 -5 -14 -1 -8 20 7 29
-14 47 -54 47 -17 0 -21 -4 -15 -17z"/>
<path d="M555 574 c-44 -7 -119 -16 -167 -20 -89 -7 -100 -12 -74 -33 8 -6 17
-32 21 -58 4 -25 11 -56 17 -68 9 -20 14 -21 56 -13 26 5 87 11 137 13 74 3
92 7 101 22 6 10 24 41 42 70 l31 52 -30 26 c-17 14 -36 24 -42 24 -7 -1 -48
-8 -92 -15z m73 -49 c2 -18 -3 -20 -58 -21 -51 0 -60 2 -60 17 0 13 10 19 38
22 62 7 77 3 80 -18z m-158 -14 c0 -23 -78 -40 -92 -19 -12 20 -10 26 15 31
55 11 77 7 77 -12z m150 -43 c0 -25 -15 -33 -62 -35 -42 -3 -48 0 -48 16 0 20
18 27 78 30 20 0 32 -4 32 -11z m-150 -28 c0 -15 -7 -20 -29 -20 -16 0 -36 -3
-45 -6 -12 -5 -16 0 -16 20 0 24 3 26 45 26 38 0 45 -3 45 -20z"/>
<path d="M560 364 c-25 -8 -85 -17 -133 -21 -61 -4 -85 -9 -77 -17 23 -23 6
-205 -27 -269 -13 -27 -13 -28 5 -18 10 5 29 30 42 54 22 42 25 44 45 31 23
-15 41 -8 143 56 l47 29 3 -31 c2 -17 1 -41 -2 -54 -6 -22 -10 -24 -49 -18
l-42 7 47 -48 c30 -31 52 -46 62 -42 22 9 39 84 32 142 -3 28 -1 77 4 110 10
58 9 61 -15 83 -30 25 -26 25 -85 6z m45 -89 l0 -50 -75 -27 c-41 -15 -88 -27
-104 -27 -27 -1 -28 1 -22 30 3 17 6 40 6 50 0 17 4 16 53 -6 61 -29 80 -31
97 -10 21 25 -1 37 -79 43 -66 4 -85 12 -61 27 18 11 95 23 140 22 l45 -2 0
-50z"/>
</g>
</svg>
