<?xml version="1.0" standalone="no"?>
<!DOCTYPE svg PUBLIC "-//W3C//DTD SVG 20010904//EN"
 "http://www.w3.org/TR/2001/REC-SVG-20010904/DTD/svg10.dtd">
<svg version="1.0" xmlns="http://www.w3.org/2000/svg"
 width="96.000000pt" height="68.000000pt" viewBox="0 0 96.000000 68.000000"
 preserveAspectRatio="xMidYMid meet">
<metadata>
Created by potrace 1.16, written by Peter Selinger 2001-2019
</metadata>
<g transform="translate(0.000000,68.000000) scale(0.100000,-0.100000)"
fill="#000000" stroke="none">
<path d="M450 480 c0 -16 -7 -20 -32 -20 -18 0 -40 -5 -48 -11 -11 -8 -2 -9
35 -5 44 5 52 3 63 -15 12 -19 21 -21 112 -17 54 1 102 7 106 11 11 11 -17 28
-35 22 -8 -3 -40 -8 -72 -12 -108 -11 -118 17 -11 32 29 4 49 11 46 16 -3 6
-26 7 -52 3 -26 -3 -51 -7 -57 -8 -5 0 -9 5 -7 12 1 7 -8 12 -23 12 -18 0 -25
-5 -25 -20z"/>
</g>
</svg>
