<?xml version="1.0" standalone="no"?>
<!DOCTYPE svg PUBLIC "-//W3C//DTD SVG 20010904//EN"
 "http://www.w3.org/TR/2001/REC-SVG-20010904/DTD/svg10.dtd">
<svg version="1.0" xmlns="http://www.w3.org/2000/svg"
 width="96.000000pt" height="68.000000pt" viewBox="0 0 96.000000 68.000000"
 preserveAspectRatio="xMidYMid meet">
<metadata>
Created by potrace 1.16, written by Peter Selinger 2001-2019
</metadata>
<g transform="translate(0.000000,68.000000) scale(0.100000,-0.100000)"
fill="#000000" stroke="none">
<path d="M630 549 c0 -48 -9 -59 -51 -59 -10 0 -19 -4 -19 -10 0 -5 14 -10 30
-10 l30 0 -15 -36 c-18 -43 -18 -44 -6 -44 5 0 22 20 37 44 29 46 52 56 132
56 20 0 31 4 27 10 -3 6 -31 10 -60 10 -54 0 -54 0 -43 24 15 34 5 53 -31 58
-31 5 -31 4 -31 -43z"/>
<path d="M390 552 c0 -5 7 -15 15 -22 8 -7 15 -21 15 -31 0 -16 -8 -19 -45
-19 -47 0 -56 -9 -30 -30 10 -8 29 -10 54 -6 36 5 39 4 51 -24 17 -41 36 -33
32 13 -3 32 0 37 22 43 36 9 33 22 -3 16 -27 -4 -30 -1 -33 29 -3 31 -6 34
-40 37 -21 2 -38 -1 -38 -6z"/>
</g>
</svg>
