<?xml version="1.0" standalone="no"?>
<!DOCTYPE svg PUBLIC "-//W3C//DTD SVG 20010904//EN"
 "http://www.w3.org/TR/2001/REC-SVG-20010904/DTD/svg10.dtd">
<svg version="1.0" xmlns="http://www.w3.org/2000/svg"
 width="96.000000pt" height="68.000000pt" viewBox="0 0 96.000000 68.000000"
 preserveAspectRatio="xMidYMid meet">
<metadata>
Created by potrace 1.16, written by Peter Selinger 2001-2019
</metadata>
<g transform="translate(0.000000,68.000000) scale(0.100000,-0.100000)"
fill="#000000" stroke="none">
<path d="M215 439 c-16 -5 -50 -7 -75 -3 -43 6 -44 5 -28 -13 9 -10 22 -46 28
-81 13 -65 24 -82 43 -63 6 6 25 11 42 11 41 0 76 10 70 20 -3 5 4 34 16 64
11 31 18 60 14 66 -8 12 -69 12 -110 -1z m46 -31 c2 -28 -3 -73 -9 -79 -4 -4
-21 -10 -38 -13 -30 -7 -32 -6 -43 38 -14 57 -14 54 7 59 37 10 82 7 83 -5z"/>
</g>
</svg>
