<?xml version="1.0" standalone="no"?>
<!DOCTYPE svg PUBLIC "-//W3C//DTD SVG 20010904//EN"
 "http://www.w3.org/TR/2001/REC-SVG-20010904/DTD/svg10.dtd">
<svg version="1.0" xmlns="http://www.w3.org/2000/svg"
 width="96.000000pt" height="68.000000pt" viewBox="0 0 96.000000 68.000000"
 preserveAspectRatio="xMidYMid meet">
<metadata>
Created by potrace 1.16, written by Peter Selinger 2001-2019
</metadata>
<g transform="translate(0.000000,68.000000) scale(0.100000,-0.100000)"
fill="#000000" stroke="none">
<path d="M507 603 c-4 -3 -7 -14 -7 -22 0 -22 -35 -87 -76 -140 -19 -24 -32
-47 -29 -49 3 -3 26 13 52 35 47 39 51 40 181 58 72 10 132 21 132 26 0 18
-56 17 -145 -1 -54 -11 -99 -20 -101 -20 -3 0 7 17 21 37 30 45 31 52 8 69
-21 15 -27 17 -36 7z"/>
</g>
</svg>
