<?xml version="1.0" standalone="no"?>
<!DOCTYPE svg PUBLIC "-//W3C//DTD SVG 20010904//EN"
 "http://www.w3.org/TR/2001/REC-SVG-20010904/DTD/svg10.dtd">
<svg version="1.0" xmlns="http://www.w3.org/2000/svg"
 width="96.000000pt" height="68.000000pt" viewBox="0 0 96.000000 68.000000"
 preserveAspectRatio="xMidYMid meet">
<metadata>
Created by potrace 1.16, written by Peter Selinger 2001-2019
</metadata>
<g transform="translate(0.000000,68.000000) scale(0.100000,-0.100000)"
fill="#000000" stroke="none">
<path d="M563 562 c-73 -9 -133 -19 -133 -23 0 -11 51 -18 87 -12 28 5 33 2
33 -13 0 -11 -9 -34 -20 -51 -27 -45 -7 -42 45 6 37 34 41 41 28 54 -12 12 0
15 93 20 111 7 129 12 104 27 -20 13 -77 11 -237 -8z"/>
</g>
</svg>
