<?xml version="1.0" standalone="no"?>
<!DOCTYPE svg PUBLIC "-//W3C//DTD SVG 20010904//EN"
 "http://www.w3.org/TR/2001/REC-SVG-20010904/DTD/svg10.dtd">
<svg version="1.0" xmlns="http://www.w3.org/2000/svg"
 width="96.000000pt" height="68.000000pt" viewBox="0 0 96.000000 68.000000"
 preserveAspectRatio="xMidYMid meet">
<metadata>
Created by potrace 1.16, written by Peter Selinger 2001-2019
</metadata>
<g transform="translate(0.000000,68.000000) scale(0.100000,-0.100000)"
fill="#000000" stroke="none">
<path d="M242 548 l3 -53 -42 -3 c-29 -2 -43 -8 -43 -18 0 -10 12 -14 45 -14
42 0 45 -2 45 -26 0 -24 -2 -25 -52 -24 -71 2 -72 2 -60 -12 6 -7 13 -31 17
-53 13 -75 13 -75 56 -72 38 3 39 2 39 -29 0 -35 2 -34 -114 -50 -38 -5 -45
-9 -32 -16 10 -6 39 -6 69 -2 29 5 56 8 62 9 5 0 9 -34 10 -75 0 -60 3 -75 15
-75 12 0 16 18 20 80 l5 80 50 3 c28 2 52 6 54 8 11 10 -15 19 -55 18 -29 -1
-44 3 -44 12 0 7 -3 20 -7 30 -6 15 -1 16 38 11 l44 -6 18 42 c9 23 17 47 17
53 0 7 7 17 15 24 8 7 15 16 15 20 0 15 -69 32 -100 25 -26 -6 -30 -4 -30 14
0 15 6 21 23 21 38 0 67 12 67 26 0 10 -14 14 -46 14 -46 0 -46 0 -41 29 7 32
-16 61 -47 61 -14 0 -16 -9 -14 -52z m118 -153 c0 -22 -4 -25 -34 -25 -21 0
-36 6 -40 15 -6 17 19 34 52 35 17 0 22 -6 22 -25z m-103 -15 c1 -13 -4 -20
-15 -20 -9 0 -27 -3 -39 -6 -20 -5 -23 -2 -23 20 0 23 4 26 38 26 31 0 38 -4
39 -20z m94 -52 c-9 -25 -47 -36 -63 -20 -20 20 0 42 36 42 32 0 35 -2 27 -22z
m-99 6 c3 -3 4 -14 1 -25 -4 -13 -14 -19 -34 -19 -16 0 -29 4 -29 9 0 5 -3 16
-6 25 -5 13 1 16 28 16 19 0 37 -3 40 -6z"/>
<path d="M553 583 c-7 -3 -13 -16 -13 -31 0 -22 -61 -148 -79 -162 -15 -12
-61 -80 -54 -80 17 0 110 97 133 138 13 23 28 42 33 42 6 0 46 -36 90 -81 l81
-81 44 6 c69 9 69 17 0 45 -62 24 -88 41 -162 101 -42 33 -46 41 -36 61 11 19
-17 49 -37 42z"/>
<path d="M555 355 l-50 -13 65 -1 c68 -1 106 11 75 23 -21 8 -29 7 -90 -9z"/>
<path d="M620 280 c-30 -4 -90 -7 -133 -6 l-78 1 7 -30 c4 -16 10 -59 13 -95
7 -71 24 -84 29 -20 3 37 6 40 32 40 25 0 29 -4 32 -32 2 -18 8 -33 13 -33 6
0 11 15 13 33 3 28 7 32 33 32 27 0 29 -2 29 -42 1 -40 2 -42 15 -24 8 11 15
32 15 48 0 24 4 28 30 30 17 0 36 1 43 2 8 1 11 -11 9 -34 -3 -44 -14 -55 -41
-41 -28 15 -28 -1 0 -40 17 -24 24 -27 40 -19 28 16 49 63 49 114 0 25 4 56
10 70 8 21 6 28 -13 41 -23 16 -56 17 -147 5z m-12 -51 c3 -25 -15 -38 -50
-39 -10 0 -10 54 -1 64 16 16 48 1 51 -25z m120 1 c3 -24 1 -25 -41 -22 -41 4
-44 6 -39 28 4 22 9 25 41 22 30 -3 36 -7 39 -28z m-214 4 c13 -33 6 -44 -24
-44 -27 0 -30 3 -30 30 0 25 4 30 24 30 13 0 27 -7 30 -16z"/>
</g>
</svg>
