<?xml version="1.0" standalone="no"?>
<!DOCTYPE svg PUBLIC "-//W3C//DTD SVG 20010904//EN"
 "http://www.w3.org/TR/2001/REC-SVG-20010904/DTD/svg10.dtd">
<svg version="1.0" xmlns="http://www.w3.org/2000/svg"
 width="96.000000pt" height="68.000000pt" viewBox="0 0 96.000000 68.000000"
 preserveAspectRatio="xMidYMid meet">
<metadata>
Created by potrace 1.16, written by Peter Selinger 2001-2019
</metadata>
<g transform="translate(0.000000,68.000000) scale(0.100000,-0.100000)"
fill="#000000" stroke="none">
<path d="M296 558 c-3 -7 -7 -26 -11 -42 -9 -43 -65 -122 -136 -193 -34 -35
-56 -63 -50 -63 15 0 92 52 110 74 17 21 67 21 75 0 16 -41 7 -53 -44 -60 -27
-4 -50 -10 -50 -15 0 -5 23 -9 50 -9 l50 0 0 -59 0 -58 -57 -12 c-31 -6 -72
-11 -92 -11 l-36 -1 24 -19 c13 -11 30 -20 38 -20 27 0 283 84 283 93 0 5 -10
7 -22 3 -13 -3 -40 -9 -60 -12 l-38 -7 0 49 c0 63 6 70 59 79 36 6 41 9 27 17
-10 6 -31 7 -47 4 -27 -5 -29 -3 -29 25 0 30 3 32 55 44 26 6 27 8 12 16 -10
6 -26 7 -37 4 -10 -3 -42 -10 -70 -14 -59 -9 -59 -8 -4 68 35 50 37 51 58 36
42 -31 66 -39 78 -27 15 15 -5 38 -48 54 -19 6 -34 17 -34 23 0 13 -32 45 -44
45 -3 0 -8 -6 -10 -12z"/>
<path d="M377 215 c-19 -40 -17 -41 23 -20 33 17 36 25 18 43 -18 18 -23 15
-41 -23z"/>
<path d="M180 211 c0 -15 50 -62 60 -56 19 12 10 35 -20 50 -33 17 -40 18 -40
6z"/>
</g>
</svg>
