<?xml version="1.0" standalone="no"?>
<!DOCTYPE svg PUBLIC "-//W3C//DTD SVG 20010904//EN"
 "http://www.w3.org/TR/2001/REC-SVG-20010904/DTD/svg10.dtd">
<svg version="1.0" xmlns="http://www.w3.org/2000/svg"
 width="96.000000pt" height="68.000000pt" viewBox="0 0 96.000000 68.000000"
 preserveAspectRatio="xMidYMid meet">
<metadata>
Created by potrace 1.16, written by Peter Selinger 2001-2019
</metadata>
<g transform="translate(0.000000,68.000000) scale(0.100000,-0.100000)"
fill="#000000" stroke="none">
<path d="M270 530 c0 -35 -58 -137 -115 -205 -31 -36 -53 -65 -50 -65 15 0 53
25 86 57 47 44 83 43 87 -3 3 -31 2 -31 -48 -38 -64 -8 -57 -29 9 -24 l46 3 3
-62 3 -61 -51 -11 c-28 -6 -62 -8 -76 -5 -32 8 -31 -11 2 -33 25 -16 30 -16
140 21 138 47 168 75 42 40 -16 -5 -18 3 -18 59 l0 64 40 7 c48 8 44 26 -5 26
-31 0 -34 2 -33 29 1 26 5 30 32 33 17 2 29 8 26 13 -6 12 -27 11 -92 -2 -31
-7 -48 -7 -48 -1 0 12 63 117 70 118 3 0 18 -11 34 -25 32 -27 66 -33 66 -11
0 19 -22 35 -58 42 -18 4 -32 13 -32 20 0 13 -30 34 -49 34 -6 0 -11 -9 -11
-20z"/>
<path d="M371 209 c-15 -42 -15 -42 18 -24 37 19 47 35 30 46 -25 15 -37 10
-48 -22z"/>
<path d="M190 180 c26 -37 39 -45 51 -33 16 16 0 41 -33 52 -42 15 -42 15 -18
-19z"/>
</g>
</svg>
