<?xml version="1.0" standalone="no"?>
<!DOCTYPE svg PUBLIC "-//W3C//DTD SVG 20010904//EN"
 "http://www.w3.org/TR/2001/REC-SVG-20010904/DTD/svg10.dtd">
<svg version="1.0" xmlns="http://www.w3.org/2000/svg"
 width="96.000000pt" height="68.000000pt" viewBox="0 0 96.000000 68.000000"
 preserveAspectRatio="xMidYMid meet">
<metadata>
Created by potrace 1.16, written by Peter Selinger 2001-2019
</metadata>
<g transform="translate(0.000000,68.000000) scale(0.100000,-0.100000)"
fill="#000000" stroke="none">
<path d="M650 500 c-14 -4 -56 -8 -93 -9 -60 -1 -68 -3 -63 -18 3 -10 7 -40 7
-66 l2 -48 98 3 98 3 17 40 c10 22 24 47 32 56 11 15 10 19 -10 33 -24 17 -48
19 -88 6z m40 -35 c0 -21 -5 -25 -29 -25 -15 0 -50 -3 -76 -6 -42 -6 -47 -5
-43 12 2 14 18 21 68 30 36 6 68 12 73 13 4 0 7 -10 7 -24z m-12 -52 c-4 -19
-64 -36 -115 -31 -48 4 -27 27 33 37 78 13 86 13 82 -6z"/>
</g>
</svg>
