<?xml version="1.0" standalone="no"?>
<!DOCTYPE svg PUBLIC "-//W3C//DTD SVG 20010904//EN"
 "http://www.w3.org/TR/2001/REC-SVG-20010904/DTD/svg10.dtd">
<svg version="1.0" xmlns="http://www.w3.org/2000/svg"
 width="96.000000pt" height="68.000000pt" viewBox="0 0 96.000000 68.000000"
 preserveAspectRatio="xMidYMid meet">
<metadata>
Created by potrace 1.16, written by Peter Selinger 2001-2019
</metadata>
<g transform="translate(0.000000,68.000000) scale(0.100000,-0.100000)"
fill="#000000" stroke="none">
<path d="M590 574 c-19 -50 -50 -84 -76 -84 -20 0 -23 -3 -16 -17 5 -11 5 -62
0 -122 -9 -109 -3 -129 32 -115 54 22 214 34 231 17 14 -14 -7 -142 -27 -165
-15 -15 -26 -18 -59 -13 l-40 7 38 -36 c37 -36 38 -36 66 -20 36 21 58 64 70
139 5 33 12 70 16 82 13 40 -27 48 -156 34 -62 -6 -116 -13 -122 -14 -6 -1
-12 5 -14 15 -4 14 8 17 74 23 43 4 87 9 97 12 17 5 17 7 4 14 -10 5 -47 4
-92 -3 -81 -12 -90 -10 -80 16 6 15 23 18 129 20 25 1 34 9 62 59 l32 57 -25
16 c-16 11 -34 14 -56 9 -18 -3 -53 -9 -78 -12 l-45 -5 45 37 c25 20 47 39 50
42 6 5 -30 33 -42 33 -5 0 -13 -12 -18 -26z m100 -113 c0 -14 -7 -19 -27 -18
-16 0 -49 -3 -75 -7 -41 -7 -48 -6 -48 8 0 15 13 20 70 29 62 10 80 7 80 -12z
m-10 -38 c-1 -21 -21 -32 -77 -40 -62 -10 -63 -10 -63 14 0 13 4 22 9 19 4 -3
28 -2 52 3 59 12 79 13 79 4z"/>
<path d="M205 538 c-10 -43 -26 -75 -69 -131 -42 -56 -34 -68 18 -25 29 24 55
34 118 45 59 10 84 11 92 3 7 -7 11 -56 11 -123 0 -159 -33 -229 -86 -181 -28
25 -30 0 -3 -39 36 -54 79 -46 113 21 24 49 29 84 33 226 2 112 1 120 -19 133
-19 13 -30 13 -91 -2 -39 -10 -75 -16 -81 -14 -7 3 -2 18 14 39 14 18 25 36
25 39 -1 15 -18 30 -42 36 -23 6 -27 3 -33 -27z"/>
<path d="M235 345 c-27 -7 -65 -14 -82 -14 -37 -1 -39 -7 -18 -35 8 -11 15
-31 15 -45 0 -33 17 -60 28 -45 4 7 32 15 62 19 l56 7 13 55 c10 46 10 57 -1
64 -7 5 -15 8 -18 8 -3 -1 -27 -7 -55 -14z m26 -51 c-4 -39 -6 -41 -42 -49
-37 -8 -36 -9 -44 37 -7 37 -7 37 32 41 55 5 58 3 54 -29z"/>
<path d="M675 190 c32 -34 45 -38 45 -14 0 21 -28 43 -54 44 -17 0 -16 -4 9
-30z"/>
<path d="M586 203 c-7 -7 33 -53 46 -53 4 0 8 8 8 18 0 19 -43 46 -54 35z"/>
<path d="M460 187 c0 -8 -4 -17 -10 -19 -5 -1 -12 -18 -16 -35 -5 -26 -3 -33
9 -33 32 0 57 69 32 90 -12 10 -15 10 -15 -3z"/>
<path d="M527 170 c20 -34 33 -39 33 -12 0 21 -19 42 -38 42 -10 0 -9 -7 5
-30z"/>
</g>
</svg>
