<?xml version="1.0" standalone="no"?>
<!DOCTYPE svg PUBLIC "-//W3C//DTD SVG 20010904//EN"
 "http://www.w3.org/TR/2001/REC-SVG-20010904/DTD/svg10.dtd">
<svg version="1.0" xmlns="http://www.w3.org/2000/svg"
 width="90.000000pt" height="92.000000pt" viewBox="0 0 90.000000 92.000000"
 preserveAspectRatio="xMidYMid meet">
<metadata>
Created by potrace 1.16, written by Peter Selinger 2001-2019
</metadata>
<g transform="translate(0.000000,92.000000) scale(0.100000,-0.100000)"
fill="#000000" stroke="none">
<path d="M545 843 c-22 -8 -70 -17 -107 -20 -69 -6 -77 -10 -57 -30 6 -6 17
-55 25 -109 8 -55 19 -103 23 -107 4 -4 19 -3 33 2 39 15 105 16 121 3 11 -10
17 -10 25 0 9 11 62 208 62 230 0 10 -40 35 -65 41 -11 2 -38 -2 -60 -10z m45
-68 c0 -30 -3 -35 -22 -35 -13 0 -46 -6 -75 -14 -57 -15 -63 -11 -63 39 0 19
7 24 48 33 26 5 62 10 80 11 30 1 32 -1 32 -34z m-4 -87 c-3 -13 -6 -30 -6
-39 0 -11 -17 -19 -62 -27 -34 -6 -63 -10 -64 -9 -1 1 -5 18 -9 38 l-7 35 64
11 c95 15 91 16 84 -9z"/>
<path d="M135 823 c30 -70 29 -291 -1 -425 -20 -88 -43 -138 -96 -200 -49 -60
-28 -63 37 -6 47 41 105 141 105 181 0 26 13 21 47 -18 35 -39 49 -43 58 -16
9 30 -4 49 -50 71 -30 14 -42 26 -39 38 2 9 5 43 7 75 3 32 6 59 8 61 2 2 22
13 44 24 22 12 51 31 65 42 l25 20 -24 20 c-13 11 -27 20 -31 20 -4 0 -22 -24
-41 -52 l-34 -53 -3 69 c-2 38 2 82 7 98 8 24 7 32 -9 48 -11 11 -34 20 -51
20 -26 0 -30 -3 -24 -17z"/>
<path d="M16 588 c31 -101 76 -139 82 -70 3 25 -3 39 -27 62 -36 37 -66 41
-55 8z"/>
<path d="M615 540 c-66 -9 -173 -23 -237 -30 -65 -7 -118 -16 -118 -20 0 -16
58 -31 94 -25 20 4 36 4 36 1 0 -18 -37 -77 -82 -128 -27 -32 -47 -58 -43 -58
17 0 64 33 98 68 27 27 45 38 58 35 10 -3 19 -9 19 -13 0 -14 -87 -126 -115
-148 -15 -12 -21 -22 -14 -22 44 0 193 141 183 172 -4 15 1 18 36 18 l40 0
-21 -42 c-33 -66 -116 -174 -168 -218 -60 -52 -32 -53 40 -1 55 39 105 95 172
189 31 43 36 56 26 68 -9 12 -5 14 25 14 25 0 39 -5 43 -17 10 -25 -11 -131
-37 -192 l-23 -53 -48 5 -48 6 35 -50 c39 -53 48 -57 82 -33 34 24 59 82 77
180 9 49 24 104 32 122 13 26 13 35 2 48 -27 33 -47 35 -159 19 -61 -8 -125
-15 -142 -15 -30 0 -31 1 -14 19 10 11 15 24 12 29 -8 13 54 21 226 31 76 4
141 11 145 15 13 12 -37 46 -66 45 -14 -1 -80 -9 -146 -19z"/>
</g>
</svg>
