<?xml version="1.0" standalone="no"?>
<!DOCTYPE svg PUBLIC "-//W3C//DTD SVG 20010904//EN"
 "http://www.w3.org/TR/2001/REC-SVG-20010904/DTD/svg10.dtd">
<svg version="1.0" xmlns="http://www.w3.org/2000/svg"
 width="96.000000pt" height="68.000000pt" viewBox="0 0 96.000000 68.000000"
 preserveAspectRatio="xMidYMid meet">
<metadata>
Created by potrace 1.16, written by Peter Selinger 2001-2019
</metadata>
<g transform="translate(0.000000,68.000000) scale(0.100000,-0.100000)"
fill="#000000" stroke="none">
<path d="M227 543 c12 -42 8 -242 -6 -290 -6 -24 -32 -72 -57 -108 -43 -64
-44 -65 -15 -51 39 21 89 83 103 128 l11 37 39 -31 c27 -23 41 -29 49 -21 17
17 -4 46 -43 59 -18 6 -33 16 -32 22 1 7 2 30 3 52 1 38 3 41 61 70 63 32 68
38 48 58 -19 19 -31 14 -58 -23 -14 -19 -29 -35 -33 -35 -5 0 -7 30 -6 68 4
79 -2 92 -42 92 -27 0 -29 -2 -22 -27z"/>
<path d="M120 398 c0 -23 39 -78 55 -78 25 0 18 46 -11 69 -30 24 -44 27 -44
9z"/>
</g>
</svg>
