<?xml version="1.0" standalone="no"?>
<!DOCTYPE svg PUBLIC "-//W3C//DTD SVG 20010904//EN"
 "http://www.w3.org/TR/2001/REC-SVG-20010904/DTD/svg10.dtd">
<svg version="1.0" xmlns="http://www.w3.org/2000/svg"
 width="96.000000pt" height="68.000000pt" viewBox="0 0 96.000000 68.000000"
 preserveAspectRatio="xMidYMid meet">
<metadata>
Created by potrace 1.16, written by Peter Selinger 2001-2019
</metadata>
<g transform="translate(0.000000,68.000000) scale(0.100000,-0.100000)"
fill="#000000" stroke="none">
<path d="M516 603 c-61 -33 -161 -60 -205 -55 l-44 4 7 -28 c13 -51 36 -188
36 -215 0 -26 -1 -27 -95 -34 -95 -7 -116 -17 -70 -35 16 -6 52 -4 107 5 106
18 331 35 478 35 l115 1 -25 20 c-23 20 -33 21 -144 14 -98 -6 -118 -5 -114 7
33 87 33 87 12 103 -18 14 -17 14 16 15 70 1 105 21 58 34 -19 4 -189 -20
-275 -39 -21 -5 -23 -2 -23 38 l0 43 136 27 c75 14 139 29 142 32 3 3 -3 14
-13 25 -22 24 -59 25 -99 3z m4 -237 l0 -63 -70 -7 c-38 -4 -74 -4 -80 -1 -5
3 -10 30 -10 59 l0 53 53 10 c28 6 64 11 80 12 27 1 27 0 27 -63z"/>
<path d="M304 188 c-9 -17 -37 -53 -61 -80 -25 -26 -43 -48 -39 -48 17 0 76
37 134 84 l64 51 -29 12 c-42 18 -51 16 -69 -19z"/>
<path d="M460 10 c0 -5 5 -10 10 -10 6 0 10 5 10 10 0 6 -4 10 -10 10 -5 0
-10 -4 -10 -10z"/>
</g>
</svg>
