<?xml version="1.0" standalone="no"?>
<!DOCTYPE svg PUBLIC "-//W3C//DTD SVG 20010904//EN"
 "http://www.w3.org/TR/2001/REC-SVG-20010904/DTD/svg10.dtd">
<svg version="1.0" xmlns="http://www.w3.org/2000/svg"
 width="96.000000pt" height="68.000000pt" viewBox="0 0 96.000000 68.000000"
 preserveAspectRatio="xMidYMid meet">
<metadata>
Created by potrace 1.16, written by Peter Selinger 2001-2019
</metadata>
<g transform="translate(0.000000,68.000000) scale(0.100000,-0.100000)"
fill="#000000" stroke="none">
<path d="M595 464 c-38 -8 -91 -13 -116 -10 l-47 5 18 -37 c10 -20 21 -53 25
-72 13 -63 20 -69 65 -59 22 5 70 10 106 12 l66 2 20 55 c11 30 27 62 34 71
20 22 18 26 -17 38 -40 14 -66 13 -154 -5z m103 -36 c-3 -21 -11 -24 -101 -33
-54 -6 -100 -8 -103 -6 -2 2 -4 12 -4 22 0 14 11 19 48 24 26 4 52 8 57 10 6
2 32 4 58 4 45 1 48 -1 45 -21z m-8 -45 c-1 -40 -13 -51 -68 -57 -109 -13
-107 -14 -110 17 -3 26 -1 27 40 28 24 0 61 4 83 8 55 12 55 12 55 4z"/>
</g>
</svg>
