<?xml version="1.0" standalone="no"?>
<!DOCTYPE svg PUBLIC "-//W3C//DTD SVG 20010904//EN"
 "http://www.w3.org/TR/2001/REC-SVG-20010904/DTD/svg10.dtd">
<svg version="1.0" xmlns="http://www.w3.org/2000/svg"
 width="96.000000pt" height="68.000000pt" viewBox="0 0 96.000000 68.000000"
 preserveAspectRatio="xMidYMid meet">
<metadata>
Created by potrace 1.16, written by Peter Selinger 2001-2019
</metadata>
<g transform="translate(0.000000,68.000000) scale(0.100000,-0.100000)"
fill="#000000" stroke="none">
<path d="M371 131 c13 -24 27 -37 35 -34 21 8 17 27 -9 51 -38 36 -51 27 -26
-17z"/>
<path d="M120 128 c-26 -42 -26 -78 -2 -78 21 0 42 38 42 75 0 38 -18 39 -40
3z"/>
<path d="M288 130 c19 -33 42 -40 42 -12 0 23 -19 42 -42 42 -16 0 -16 -2 0
-30z"/>
<path d="M207 133 c14 -42 43 -58 43 -25 0 21 -18 42 -37 42 -7 0 -10 -7 -6
-17z"/>
</g>
</svg>
