<?xml version="1.0" standalone="no"?>
<!DOCTYPE svg PUBLIC "-//W3C//DTD SVG 20010904//EN"
 "http://www.w3.org/TR/2001/REC-SVG-20010904/DTD/svg10.dtd">
<svg version="1.0" xmlns="http://www.w3.org/2000/svg"
 width="96.000000pt" height="68.000000pt" viewBox="0 0 96.000000 68.000000"
 preserveAspectRatio="xMidYMid meet">
<metadata>
Created by potrace 1.16, written by Peter Selinger 2001-2019
</metadata>
<g transform="translate(0.000000,68.000000) scale(0.100000,-0.100000)"
fill="#000000" stroke="none">
<path d="M260 565 c0 -4 12 -27 26 -51 22 -38 31 -45 53 -42 34 4 38 29 9 61
-21 23 -88 48 -88 32z"/>
<path d="M582 518 c-6 -29 -30 -79 -52 -112 -45 -64 -45 -84 -2 -44 25 23 37
26 145 32 120 7 170 17 149 30 -18 11 -72 10 -155 -4 -43 -7 -80 -10 -83 -7
-3 3 11 31 32 62 40 60 39 87 -2 93 -16 2 -21 -7 -32 -50z"/>
<path d="M300 454 c-179 -30 -181 -31 -155 -51 19 -14 98 -13 138 3 44 17 -38
-147 -110 -220 l-48 -48 40 21 c22 11 47 26 55 33 24 20 77 92 91 121 12 27
38 34 73 21 22 -9 20 -62 -5 -129 -22 -60 -44 -79 -73 -63 -27 15 -30 2 -6
-31 25 -36 30 -37 61 -12 27 21 59 86 85 174 16 56 16 58 -2 72 -10 8 -38 15
-61 15 -47 0 -48 2 -33 31 8 14 7 19 -2 19 -10 0 -10 2 1 9 8 5 47 12 87 16
74 7 99 19 73 36 -20 12 -46 10 -209 -17z"/>
<path d="M590 311 c0 -15 73 -72 89 -69 29 6 23 35 -12 57 -35 21 -77 28 -77
12z"/>
<path d="M570 185 c0 -13 92 -103 111 -108 45 -12 35 48 -14 79 -34 22 -97 41
-97 29z"/>
</g>
</svg>
