<?xml version="1.0" standalone="no"?>
<!DOCTYPE svg PUBLIC "-//W3C//DTD SVG 20010904//EN"
 "http://www.w3.org/TR/2001/REC-SVG-20010904/DTD/svg10.dtd">
<svg version="1.0" xmlns="http://www.w3.org/2000/svg"
 width="96.000000pt" height="68.000000pt" viewBox="0 0 96.000000 68.000000"
 preserveAspectRatio="xMidYMid meet">
<metadata>
Created by potrace 1.16, written by Peter Selinger 2001-2019
</metadata>
<g transform="translate(0.000000,68.000000) scale(0.100000,-0.100000)"
fill="#000000" stroke="none">
<path d="M500 584 c-63 -8 -128 -12 -143 -9 -16 3 -27 1 -25 -3 8 -15 35 -78
41 -93 4 -13 16 -15 60 -11 48 4 55 2 59 -16 8 -28 2 -32 -49 -32 -58 0 -55
-18 5 -22 34 -2 47 -7 47 -18 0 -12 -23 -17 -112 -24 -62 -5 -113 -13 -113
-18 0 -5 4 -7 9 -3 5 3 12 1 15 -3 3 -5 30 -7 60 -4 52 4 56 3 67 -22 7 -14
16 -26 21 -26 5 0 6 -4 3 -10 -3 -5 -18 -10 -33 -10 -19 0 -23 -3 -13 -9 7 -5
30 -7 51 -4 30 4 38 2 42 -13 9 -35 -2 -44 -55 -44 -71 0 -128 -11 -121 -22 4
-6 42 -7 95 -2 l89 7 0 -77 c0 -42 4 -76 9 -76 15 0 31 59 31 111 l0 49 88 1
c48 1 98 4 112 9 47 14 -6 23 -100 17 -48 -3 -90 -4 -93 -1 -2 2 -2 15 0 28 4
21 13 25 61 31 44 5 52 9 39 17 -10 5 -28 9 -40 8 -38 -4 -42 0 -19 16 12 8
22 22 22 30 0 11 21 14 110 14 61 0 110 4 110 8 0 21 -70 29 -178 19 -62 -5
-115 -8 -117 -5 -15 15 10 38 40 38 40 0 65 9 65 22 0 7 -20 9 -53 5 -53 -5
-54 -5 -49 19 4 24 8 25 68 22 34 -1 64 0 66 2 3 3 19 25 38 49 32 42 33 44
15 57 -23 17 -72 16 -225 -2z m166 -17 c3 -8 0 -25 -5 -40 -9 -23 -15 -26 -48
-23 -21 2 -37 5 -36 7 1 2 4 16 8 31 4 15 14 29 23 31 33 9 53 7 58 -6z m-116
-26 c0 -30 -11 -43 -41 -48 -23 -4 -32 64 -9 71 40 11 50 6 50 -23z m-94 2
c25 -34 17 -53 -21 -53 -29 0 -37 5 -45 26 -13 33 -13 32 8 37 33 9 45 7 58
-10z m104 -220 c0 -30 -15 -43 -53 -50 -33 -5 -37 -3 -37 16 0 12 -7 24 -15
27 -33 13 -12 24 45 24 51 0 60 -3 60 -17z"/>
<path d="M180 562 c0 -17 71 -73 88 -70 22 4 27 41 7 58 -19 16 -95 26 -95 12z"/>
<path d="M110 431 c0 -15 73 -71 92 -71 47 0 24 55 -30 70 -46 12 -62 13 -62
1z"/>
<path d="M220 264 c-29 -43 -88 -100 -100 -97 -11 3 -6 -37 9 -65 17 -32 40
-27 53 11 6 17 26 61 45 96 32 63 40 91 26 91 -5 0 -19 -16 -33 -36z"/>
</g>
</svg>
