<?xml version="1.0" standalone="no"?>
<!DOCTYPE svg PUBLIC "-//W3C//DTD SVG 20010904//EN"
 "http://www.w3.org/TR/2001/REC-SVG-20010904/DTD/svg10.dtd">
<svg version="1.0" xmlns="http://www.w3.org/2000/svg"
 width="96.000000pt" height="68.000000pt" viewBox="0 0 96.000000 68.000000"
 preserveAspectRatio="xMidYMid meet">
<metadata>
Created by potrace 1.16, written by Peter Selinger 2001-2019
</metadata>
<g transform="translate(0.000000,68.000000) scale(0.100000,-0.100000)"
fill="#000000" stroke="none">
<path d="M410 172 c-24 -9 -42 -31 -34 -43 4 -7 3 -9 -3 -6 -6 4 -23 -5 -37
-18 -15 -14 -31 -25 -36 -25 -5 0 -7 -10 -5 -23 4 -22 4 -22 -11 -2 l-16 20 4
-20 c3 -19 31 -28 53 -16 6 3 19 6 30 7 35 2 196 37 191 41 -3 3 -28 0 -56 -6
-28 -6 -63 -8 -77 -5 -16 4 -24 3 -20 -3 4 -6 -3 -8 -18 -5 -14 2 -25 8 -25
12 0 5 21 26 46 48 43 36 49 57 14 44z"/>
<path d="M605 130 c-4 -6 -4 -14 -1 -19 4 -5 0 -12 -6 -14 -7 -3 -3 -6 9 -6
12 -1 30 -12 41 -26 21 -27 52 -34 52 -11 0 19 -40 67 -51 61 -5 -4 -9 -2 -9
3 0 14 -28 23 -35 12z"/>
</g>
</svg>
