<?xml version="1.0" standalone="no"?>
<!DOCTYPE svg PUBLIC "-//W3C//DTD SVG 20010904//EN"
 "http://www.w3.org/TR/2001/REC-SVG-20010904/DTD/svg10.dtd">
<svg version="1.0" xmlns="http://www.w3.org/2000/svg"
 width="96.000000pt" height="68.000000pt" viewBox="0 0 96.000000 68.000000"
 preserveAspectRatio="xMidYMid meet">
<metadata>
Created by potrace 1.16, written by Peter Selinger 2001-2019
</metadata>
<g transform="translate(0.000000,68.000000) scale(0.100000,-0.100000)"
fill="#000000" stroke="none">
<path d="M438 169 l4 -112 -35 7 -36 7 30 -31 c17 -16 37 -30 44 -30 22 0 32
50 31 160 -1 97 -2 105 -21 108 -20 3 -20 -2 -17 -109z"/>
<path d="M532 199 c-13 -16 -22 -29 -20 -29 3 0 26 7 52 16 38 13 45 19 35 30
-18 22 -42 16 -67 -17z"/>
<path d="M330 185 c26 -28 50 -33 50 -10 0 16 -30 35 -56 35 -15 0 -14 -4 6
-25z"/>
<path d="M355 124 c-27 -13 -60 -24 -72 -24 -29 0 -30 -26 -3 -35 15 -5 36 5
75 34 30 23 55 44 55 46 0 6 4 8 -55 -21z"/>
<path d="M563 100 c57 -41 87 -46 87 -16 0 20 -43 42 -100 51 l-45 7 58 -42z"/>
</g>
</svg>
