<?xml version="1.0" standalone="no"?>
<!DOCTYPE svg PUBLIC "-//W3C//DTD SVG 20010904//EN"
 "http://www.w3.org/TR/2001/REC-SVG-20010904/DTD/svg10.dtd">
<svg version="1.0" xmlns="http://www.w3.org/2000/svg"
 width="96.000000pt" height="68.000000pt" viewBox="0 0 96.000000 68.000000"
 preserveAspectRatio="xMidYMid meet">
<metadata>
Created by potrace 1.16, written by Peter Selinger 2001-2019
</metadata>
<g transform="translate(0.000000,68.000000) scale(0.100000,-0.100000)"
fill="#000000" stroke="none">
<path d="M667 593 c-4 -3 -7 -14 -7 -23 0 -9 -14 -38 -31 -64 -35 -56 -31 -71
9 -34 21 20 47 30 112 41 73 12 81 16 60 24 -15 6 -39 7 -63 1 -47 -10 -53 -7
-35 21 11 18 11 23 -2 31 -18 11 -34 13 -43 3z"/>
<path d="M451 543 c-6 -21 -22 -55 -36 -75 -31 -45 -18 -49 27 -9 24 21 48 30
91 35 35 5 55 11 51 18 -4 6 -24 7 -53 3 l-46 -7 19 21 c21 23 16 34 -21 45
-19 6 -23 2 -32 -31z"/>
<path d="M693 445 c31 -28 57 -32 57 -10 0 18 -31 35 -62 35 -23 -1 -23 -1 5
-25z"/>
<path d="M495 440 c21 -23 45 -26 45 -6 0 15 -21 26 -47 26 -14 0 -14 -3 2
-20z"/>
</g>
</svg>
