<?xml version="1.0" standalone="no"?>
<!DOCTYPE svg PUBLIC "-//W3C//DTD SVG 20010904//EN"
 "http://www.w3.org/TR/2001/REC-SVG-20010904/DTD/svg10.dtd">
<svg version="1.0" xmlns="http://www.w3.org/2000/svg"
 width="96.000000pt" height="68.000000pt" viewBox="0 0 96.000000 68.000000"
 preserveAspectRatio="xMidYMid meet">
<metadata>
Created by potrace 1.16, written by Peter Selinger 2001-2019
</metadata>
<g transform="translate(0.000000,68.000000) scale(0.100000,-0.100000)"
fill="#000000" stroke="none">
<path d="M602 542 c-73 -11 -100 -18 -92 -26 6 -6 31 -9 55 -8 37 1 45 -2 45
-16 0 -10 -7 -28 -16 -40 -12 -18 -12 -22 -2 -22 19 0 82 66 74 78 -3 5 29 12
76 16 88 7 101 12 78 26 -20 13 -94 10 -218 -8z"/>
</g>
</svg>
