<?xml version="1.0" standalone="no"?>
<!DOCTYPE svg PUBLIC "-//W3C//DTD SVG 20010904//EN"
 "http://www.w3.org/TR/2001/REC-SVG-20010904/DTD/svg10.dtd">
<svg version="1.0" xmlns="http://www.w3.org/2000/svg"
 width="96.000000pt" height="68.000000pt" viewBox="0 0 96.000000 68.000000"
 preserveAspectRatio="xMidYMid meet">
<metadata>
Created by potrace 1.16, written by Peter Selinger 2001-2019
</metadata>
<g transform="translate(0.000000,68.000000) scale(0.100000,-0.100000)"
fill="#000000" stroke="none">
<path d="M441 562 c-6 -20 -26 -64 -46 -96 -19 -33 -34 -61 -32 -62 2 -2 23
14 47 36 24 22 53 40 64 40 31 0 226 37 233 43 3 3 -7 9 -22 13 -16 4 -64 -2
-118 -14 -50 -12 -93 -19 -95 -17 -3 2 5 20 16 39 15 25 17 37 9 45 -23 23
-46 12 -56 -27z"/>
</g>
</svg>
