<?xml version="1.0" standalone="no"?>
<!DOCTYPE svg PUBLIC "-//W3C//DTD SVG 20010904//EN"
 "http://www.w3.org/TR/2001/REC-SVG-20010904/DTD/svg10.dtd">
<svg version="1.0" xmlns="http://www.w3.org/2000/svg"
 width="96.000000pt" height="68.000000pt" viewBox="0 0 96.000000 68.000000"
 preserveAspectRatio="xMidYMid meet">
<metadata>
Created by potrace 1.16, written by Peter Selinger 2001-2019
</metadata>
<g transform="translate(0.000000,68.000000) scale(0.100000,-0.100000)"
fill="#000000" stroke="none">
<path d="M170 536 c0 -17 63 -76 82 -76 19 0 30 23 22 45 -4 8 -7 15 -8 15 0
0 -22 7 -48 15 -38 11 -48 11 -48 1z"/>
<path d="M182 385 c-83 -30 -89 -39 -19 -31 60 7 64 3 46 -37 -9 -21 -8 -30 9
-53 12 -16 24 -41 27 -55 8 -31 -10 -39 -92 -39 -54 0 -64 -8 -38 -30 11 -9
29 -9 82 0 l68 12 171 -56 c94 -31 189 -56 212 -56 39 0 169 35 185 49 9 9
-96 21 -193 21 -66 1 -138 12 -287 45 l-81 18 5 32 c4 26 0 36 -27 58 l-32 27
41 39 c23 21 41 43 41 48 0 8 -46 35 -53 32 -1 -1 -30 -11 -65 -24z"/>
</g>
</svg>
