<?xml version="1.0" standalone="no"?>
<!DOCTYPE svg PUBLIC "-//W3C//DTD SVG 20010904//EN"
 "http://www.w3.org/TR/2001/REC-SVG-20010904/DTD/svg10.dtd">
<svg version="1.0" xmlns="http://www.w3.org/2000/svg"
 width="90.000000pt" height="92.000000pt" viewBox="0 0 90.000000 92.000000"
 preserveAspectRatio="xMidYMid meet">
<metadata>
Created by potrace 1.16, written by Peter Selinger 2001-2019
</metadata>
<g transform="translate(0.000000,92.000000) scale(0.100000,-0.100000)"
fill="#000000" stroke="none">
<path d="M530 841 c0 -42 -37 -156 -76 -234 -30 -60 -31 -66 -13 -56 11 6 32
29 47 52 24 40 29 42 73 43 27 0 50 -4 52 -10 5 -12 -16 -103 -26 -112 -3 -3
-23 4 -46 15 -45 23 -51 25 -51 12 0 -5 16 -19 35 -32 19 -13 35 -29 35 -35 0
-17 -51 -60 -105 -87 l-50 -26 38 -1 c48 0 95 20 126 54 14 14 29 26 34 26 6
0 37 -25 69 -56 60 -58 81 -63 86 -25 4 27 -34 71 -88 103 -19 12 -36 22 -37
23 -2 1 8 30 22 65 23 57 23 65 10 81 -19 20 -12 24 59 34 59 9 66 22 22 40
-32 14 -39 13 -98 -9 -35 -13 -75 -26 -90 -30 l-26 -6 35 82 34 83 -21 17
c-33 27 -50 23 -50 -11z"/>
<path d="M317 835 c-27 -7 -71 -16 -98 -20 -63 -9 -60 -29 4 -33 l47 -3 0 -39
c0 -45 2 -44 -114 -59 -37 -6 -70 -12 -73 -15 -10 -9 42 -29 74 -28 l33 1 0
-119 0 -120 -32 -1 c-18 -1 -45 0 -60 1 -34 2 -35 -10 -4 -40 29 -26 40 -25
141 18 116 48 111 49 107 -2 -4 -52 13 -95 31 -77 11 11 17 131 17 334 0 42 2
47 23 47 12 0 28 4 36 9 26 17 -24 32 -79 25 l-50 -7 0 41 c0 40 0 40 50 52
28 7 50 16 50 21 0 8 -46 32 -53 28 -1 0 -24 -7 -50 -14z m27 -181 c10 -26 7
-46 -6 -41 -7 2 -32 -2 -55 -8 l-43 -13 0 33 c0 29 4 34 28 38 55 8 70 7 76
-9z m6 -98 c0 -20 -6 -24 -42 -29 -24 -2 -51 -8 -60 -12 -15 -6 -18 -2 -18 23
0 29 3 31 43 35 23 2 50 4 60 5 12 1 17 -5 17 -22z m0 -81 c0 -21 -8 -26 -52
-40 -69 -20 -68 -20 -68 19 0 34 1 35 43 39 23 2 50 4 60 5 12 1 17 -5 17 -23z"/>
<path d="M435 284 c41 -54 51 -64 69 -64 11 0 16 9 16 30 0 34 -26 56 -81 67
l-34 6 30 -39z"/>
<path d="M713 248 c64 -73 92 -82 92 -28 0 32 -4 37 -54 63 -92 46 -102 36
-38 -35z"/>
<path d="M263 276 c3 -8 11 -31 17 -53 19 -62 61 -115 115 -142 44 -23 61 -26
155 -26 111 0 163 13 181 46 8 15 0 25 -44 58 -30 22 -61 47 -70 56 -21 20
-22 8 -3 -37 9 -21 11 -39 6 -48 -12 -19 -146 -26 -195 -10 -51 17 -102 64
-116 108 -6 20 -16 43 -22 50 -13 16 -30 15 -24 -2z"/>
<path d="M131 217 c-37 -73 -39 -122 -6 -122 27 0 55 58 55 115 0 76 -13 77
-49 7z"/>
</g>
</svg>
