<?xml version="1.0" standalone="no"?>
<!DOCTYPE svg PUBLIC "-//W3C//DTD SVG 20010904//EN"
 "http://www.w3.org/TR/2001/REC-SVG-20010904/DTD/svg10.dtd">
<svg version="1.0" xmlns="http://www.w3.org/2000/svg"
 width="96.000000pt" height="68.000000pt" viewBox="0 0 96.000000 68.000000"
 preserveAspectRatio="xMidYMid meet">
<metadata>
Created by potrace 1.16, written by Peter Selinger 2001-2019
</metadata>
<g transform="translate(0.000000,68.000000) scale(0.100000,-0.100000)"
fill="#000000" stroke="none">
<path d="M280 189 c0 -5 5 -7 10 -4 6 3 10 1 10 -4 0 -6 -4 -11 -10 -11 -5 0
-10 -6 -10 -14 0 -8 -9 -18 -21 -21 -11 -4 -18 -10 -14 -13 3 -3 -5 -12 -17
-19 -13 -7 -18 -12 -12 -13 6 0 22 8 35 18 13 10 32 21 42 25 9 3 17 16 17 27
0 11 6 20 13 21 6 0 3 4 -8 9 -28 12 -35 12 -35 -1z"/>
<path d="M360 120 c0 -11 59 -34 67 -26 3 3 -1 6 -10 6 -9 0 -17 4 -17 9 0 5
-9 11 -20 14 -11 3 -20 2 -20 -3z"/>
<path d="M174 74 c-18 -15 -18 -15 2 -5 12 6 25 7 29 3 5 -4 5 -1 1 6 -9 15
-8 15 -32 -4z"/>
<path d="M460 79 c85 -35 179 -66 184 -61 3 3 6 0 6 -6 0 -7 14 -12 30 -12 17
0 30 4 30 10 0 5 3 9 8 8 15 -4 72 14 72 23 0 14 -28 11 -33 -4 -4 -8 -8 -9
-14 -1 -4 6 -15 11 -23 11 -40 2 -122 14 -185 27 -80 18 -112 20 -75 5z"/>
</g>
</svg>
