<?xml version="1.0" standalone="no"?>
<!DOCTYPE svg PUBLIC "-//W3C//DTD SVG 20010904//EN"
 "http://www.w3.org/TR/2001/REC-SVG-20010904/DTD/svg10.dtd">
<svg version="1.0" xmlns="http://www.w3.org/2000/svg"
 width="90.000000pt" height="92.000000pt" viewBox="0 0 90.000000 92.000000"
 preserveAspectRatio="xMidYMid meet">
<metadata>
Created by potrace 1.16, written by Peter Selinger 2001-2019
</metadata>
<g transform="translate(0.000000,92.000000) scale(0.100000,-0.100000)"
fill="#000000" stroke="none">
<path d="M486 843 c-3 -3 -6 -18 -6 -32 0 -57 -89 -206 -175 -293 -57 -59 -36
-63 35 -7 52 41 127 135 161 201 12 24 24 35 33 32 8 -3 53 -52 101 -110 92
-111 108 -120 178 -110 63 10 78 22 42 36 -91 35 -161 77 -232 141 -43 40 -78
79 -79 89 -1 9 -4 22 -8 29 -10 16 -42 31 -50 24z"/>
<path d="M155 823 c4 -10 12 -56 18 -103 11 -91 -4 -438 -24 -544 -8 -43 -7
-62 5 -90 8 -20 19 -36 25 -36 23 0 31 72 31 279 0 119 3 233 6 253 l7 38 40
-36 c38 -35 41 -36 54 -19 7 11 13 22 13 25 0 13 -36 38 -72 50 -42 13 -44 21
-29 113 7 44 6 50 -17 67 -32 26 -67 27 -57 3z"/>
<path d="M498 622 c-53 -19 -59 -27 -27 -37 33 -11 144 23 128 39 -13 13 -60
12 -101 -2z"/>
<path d="M52 530 c-24 -62 -26 -120 -4 -128 17 -5 42 60 45 118 3 75 -14 79
-41 10z"/>
<path d="M540 539 c-44 -13 -82 -17 -118 -13 -53 6 -54 5 -45 -18 31 -87 -30
-314 -109 -404 -17 -19 -26 -34 -20 -34 20 0 99 87 117 128 25 56 40 41 56
-53 13 -83 24 -108 38 -86 6 9 38 15 97 18 120 6 133 9 127 31 -2 10 5 42 16
72 16 41 18 57 9 67 -23 28 -43 31 -103 17 -62 -15 -199 -23 -209 -13 -3 3 -1
19 5 36 10 30 13 31 84 38 41 4 88 4 104 0 29 -6 29 -6 60 87 17 51 31 96 31
101 0 8 -61 48 -70 46 -3 -1 -34 -10 -70 -20z m70 -63 c0 -34 -1 -35 -33 -29
-17 2 -57 0 -87 -5 -30 -6 -57 -8 -59 -6 -3 2 0 17 5 32 10 28 38 37 137 40
36 2 37 1 37 -32z m-14 -90 c-4 -17 -13 -23 -33 -23 -16 0 -54 -3 -86 -8 l-59
-8 4 29 c3 29 4 29 88 39 47 6 87 6 88 2 2 -4 1 -18 -2 -31z m42 -154 c13 -9
8 -76 -7 -101 -4 -6 -44 -14 -90 -18 l-82 -6 3 54 3 54 70 11 c92 15 88 15
103 6z"/>
</g>
</svg>
