<?xml version="1.0" standalone="no"?>
<!DOCTYPE svg PUBLIC "-//W3C//DTD SVG 20010904//EN"
 "http://www.w3.org/TR/2001/REC-SVG-20010904/DTD/svg10.dtd">
<svg version="1.0" xmlns="http://www.w3.org/2000/svg"
 width="96.000000pt" height="68.000000pt" viewBox="0 0 96.000000 68.000000"
 preserveAspectRatio="xMidYMid meet">
<metadata>
Created by potrace 1.16, written by Peter Selinger 2001-2019
</metadata>
<g transform="translate(0.000000,68.000000) scale(0.100000,-0.100000)"
fill="#000000" stroke="none">
<path d="M217 543 c10 -49 6 -354 -6 -417 -9 -47 1 -106 18 -106 22 0 31 31
31 104 0 45 3 132 7 194 l6 113 28 -27 c26 -25 59 -28 59 -5 0 13 -53 41 -75
41 -14 0 -15 8 -10 55 8 63 -3 85 -42 85 -22 0 -23 -2 -16 -37z"/>
<path d="M116 360 c-19 -47 -20 -76 -5 -86 16 -9 29 8 39 50 8 38 3 76 -10 76
-4 0 -15 -18 -24 -40z"/>
</g>
</svg>
