<?xml version="1.0" standalone="no"?>
<!DOCTYPE svg PUBLIC "-//W3C//DTD SVG 20010904//EN"
 "http://www.w3.org/TR/2001/REC-SVG-20010904/DTD/svg10.dtd">
<svg version="1.0" xmlns="http://www.w3.org/2000/svg"
 width="90.000000pt" height="92.000000pt" viewBox="0 0 90.000000 92.000000"
 preserveAspectRatio="xMidYMid meet">
<metadata>
Created by potrace 1.16, written by Peter Selinger 2001-2019
</metadata>
<g transform="translate(0.000000,92.000000) scale(0.100000,-0.100000)"
fill="#000000" stroke="none">
<path d="M205 838 c-2 -7 -6 -30 -10 -51 -9 -53 -86 -197 -146 -274 -49 -63
-55 -73 -41 -73 10 0 92 77 124 117 l26 32 7 -26 c8 -33 -2 -216 -17 -330 -9
-64 -8 -88 2 -112 7 -17 16 -31 21 -31 20 0 26 54 32 270 6 188 4 229 -8 247
-13 18 -11 27 22 89 20 38 43 77 52 87 15 18 14 21 -12 43 -31 27 -46 30 -52
12z"/>
<path d="M455 803 c10 -16 29 -40 42 -54 l24 -26 -23 -6 c-56 -14 -158 -20
-158 -8 0 25 -19 9 -31 -26 -6 -21 -19 -50 -28 -66 -16 -28 -9 -56 17 -65 12
-4 52 67 52 92 0 9 20 17 63 25 119 20 299 41 308 36 5 -4 2 -22 -6 -42 -8
-19 -15 -37 -15 -38 0 -2 29 11 64 28 40 19 64 38 63 46 -1 8 -22 25 -47 38
-45 23 -47 23 -119 8 -99 -21 -101 -20 -101 15 0 27 -6 34 -42 50 -24 11 -51
20 -62 20 -18 0 -18 -1 -1 -27z"/>
<path d="M540 573 c-55 -11 -80 -12 -92 -4 -10 6 -27 11 -38 11 -17 0 -19 -3
-10 -19 14 -27 13 -266 -2 -367 -9 -65 -9 -87 2 -113 16 -39 30 -29 39 26 l6
38 125 10 c71 6 120 14 113 18 -14 9 2 50 38 96 27 34 24 48 -17 69 -34 17
-39 17 -132 0 -131 -23 -124 -25 -120 24 3 48 7 49 141 63 53 5 66 10 58 19
-8 9 -2 26 20 61 l31 49 -24 18 c-27 21 -39 21 -138 1z m64 -19 c11 -4 14 -14
9 -37 -8 -47 -21 -55 -95 -63 l-66 -7 5 39 c3 22 7 41 9 43 2 3 30 10 62 17
31 7 58 13 59 13 1 1 8 -2 17 -5z m33 -295 c-4 -29 -8 -53 -9 -54 -2 -2 -42
-7 -90 -12 l-88 -9 0 55 c0 30 2 52 5 49 3 -3 29 1 58 8 28 7 70 13 91 13 l39
1 -6 -51z"/>
</g>
</svg>
