<?xml version="1.0" standalone="no"?>
<!DOCTYPE svg PUBLIC "-//W3C//DTD SVG 20010904//EN"
 "http://www.w3.org/TR/2001/REC-SVG-20010904/DTD/svg10.dtd">
<svg version="1.0" xmlns="http://www.w3.org/2000/svg"
 width="90.000000pt" height="92.000000pt" viewBox="0 0 90.000000 92.000000"
 preserveAspectRatio="xMidYMid meet">
<metadata>
Created by potrace 1.16, written by Peter Selinger 2001-2019
</metadata>
<g transform="translate(0.000000,92.000000) scale(0.100000,-0.100000)"
fill="#000000" stroke="none">
<path d="M493 868 c3 -18 0 -57 -6 -87 -13 -59 -12 -59 -109 -75 -21 -4 -38
-11 -38 -15 0 -14 54 -29 83 -24 19 4 27 1 27 -9 0 -18 -54 -105 -88 -140 -31
-34 -23 -47 15 -23 43 29 82 76 114 138 16 31 35 57 43 57 8 0 39 -30 69 -67
30 -38 71 -85 91 -107 36 -38 37 -39 95 -33 33 3 67 10 78 16 17 10 16 11 -7
18 -54 15 -198 96 -243 137 l-48 43 90 7 c50 4 91 12 91 17 0 4 -11 16 -26 25
-22 15 -33 16 -97 4 -40 -7 -77 -15 -84 -17 -8 -3 -5 16 8 59 10 35 19 66 19
70 0 9 -54 38 -71 38 -7 0 -9 -12 -6 -32z"/>
<path d="M211 754 c-18 -8 -62 -18 -96 -21 -62 -6 -63 -6 -50 -27 7 -11 18
-50 24 -85 11 -64 29 -99 38 -73 6 17 40 15 47 -3 6 -17 10 -254 4 -261 -3 -2
-19 -7 -37 -10 l-33 -7 3 94 4 94 -34 3 c-29 3 -33 1 -26 -15 4 -10 9 -38 11
-63 3 -25 6 -62 8 -82 l4 -38 -39 0 c-46 0 -48 -7 -11 -43 28 -27 56 -35 66
-18 3 5 54 28 113 51 121 48 138 59 124 73 -6 6 -24 4 -51 -7 -22 -9 -43 -16
-45 -16 -3 0 -5 29 -5 64 l0 63 42 9 c30 6 44 15 46 28 4 17 0 18 -42 13 l-46
-7 3 49 c2 44 5 50 27 54 21 5 25 12 27 42 1 20 11 55 22 78 l21 42 -21 18
c-25 20 -52 21 -98 1z m39 -51 c0 -10 -3 -34 -6 -55 -6 -33 -10 -37 -50 -47
-23 -6 -47 -11 -52 -11 -11 0 -28 98 -19 107 8 8 67 21 100 22 19 1 27 -4 27
-16z"/>
<path d="M550 551 c-8 -5 -39 -14 -69 -21 -50 -12 -53 -14 -35 -27 20 -15 60
-13 137 8 43 11 47 21 12 37 -30 14 -26 14 -45 3z"/>
<path d="M535 439 c-72 -15 -142 -28 -157 -28 -32 -1 -37 -16 -10 -30 12 -6
33 -6 61 1 23 6 44 8 48 5 3 -4 -6 -31 -21 -60 -42 -87 -43 -86 72 -53 29 8
59 13 67 9 34 -12 4 -156 -34 -168 -10 -3 -34 2 -54 10 -21 8 -37 13 -37 10 0
-9 72 -105 78 -105 4 0 21 9 38 19 32 20 41 39 82 169 l19 63 -25 20 c-27 21
-53 23 -122 9 -25 -4 -47 -7 -49 -4 -2 2 8 19 23 39 15 19 25 39 22 44 -9 14
21 21 95 21 39 0 80 5 91 11 21 11 20 12 -13 30 -19 10 -36 18 -39 17 -3 0
-63 -13 -135 -29z"/>
</g>
</svg>
