<?xml version="1.0" standalone="no"?>
<!DOCTYPE svg PUBLIC "-//W3C//DTD SVG 20010904//EN"
 "http://www.w3.org/TR/2001/REC-SVG-20010904/DTD/svg10.dtd">
<svg version="1.0" xmlns="http://www.w3.org/2000/svg"
 width="96.000000pt" height="68.000000pt" viewBox="0 0 96.000000 68.000000"
 preserveAspectRatio="xMidYMid meet">
<metadata>
Created by potrace 1.16, written by Peter Selinger 2001-2019
</metadata>
<g transform="translate(0.000000,68.000000) scale(0.100000,-0.100000)"
fill="#000000" stroke="none">
<path d="M515 588 c-2 -7 -6 -29 -7 -48 -3 -34 -5 -35 -51 -42 -65 -9 -72 -18
-14 -18 26 0 47 -2 47 -5 0 -20 -45 -87 -85 -127 -26 -27 -43 -48 -37 -48 25
0 110 70 139 115 18 28 37 51 42 53 9 3 48 -29 111 -88 54 -51 70 -60 113 -60
23 0 53 3 66 7 20 5 12 10 -50 32 -78 28 -212 108 -204 122 3 4 30 11 60 14
30 4 55 11 55 15 0 10 -44 21 -62 16 -7 -2 -26 -7 -42 -11 -28 -6 -28 -5 -23
24 5 24 2 34 -16 46 -26 18 -36 19 -42 3z"/>
</g>
</svg>
