<?xml version="1.0" standalone="no"?>
<!DOCTYPE svg PUBLIC "-//W3C//DTD SVG 20010904//EN"
 "http://www.w3.org/TR/2001/REC-SVG-20010904/DTD/svg10.dtd">
<svg version="1.0" xmlns="http://www.w3.org/2000/svg"
 width="90.000000pt" height="92.000000pt" viewBox="0 0 90.000000 92.000000"
 preserveAspectRatio="xMidYMid meet">
<metadata>
Created by potrace 1.16, written by Peter Selinger 2001-2019
</metadata>
<g transform="translate(0.000000,92.000000) scale(0.100000,-0.100000)"
fill="#000000" stroke="none">
<path d="M530 817 c0 -43 -42 -172 -83 -257 -22 -47 -43 -89 -45 -95 -3 -5 14
8 37 30 l41 39 0 -109 c0 -61 -5 -150 -10 -199 -7 -70 -6 -96 5 -122 8 -19 18
-34 23 -34 12 0 22 35 22 81 l0 36 77 7 c42 3 103 6 137 6 99 0 131 16 84 41
-23 13 -73 14 -120 3 -27 -5 -28 -5 -28 40 l0 45 50 7 c83 11 76 49 -7 41
l-43 -5 0 38 0 37 52 6 c28 4 56 11 61 16 13 13 -56 33 -88 25 -25 -6 -26 -5
-23 32 3 36 5 39 43 46 74 14 85 18 85 28 0 18 -47 30 -79 20 -30 -8 -31 -8
-31 23 0 18 -4 37 -8 43 -9 13 -54 44 -64 44 -15 0 -8 -37 15 -82 l23 -46 -49
-6 c-28 -4 -63 -10 -79 -13 l-30 -6 30 59 c16 32 37 83 48 113 l19 53 -24 19
c-31 25 -41 24 -41 -4z m90 -281 c0 -13 3 -31 6 -40 6 -16 -1 -19 -76 -30
l-35 -6 3 44 c4 45 4 45 45 49 23 2 45 4 50 5 4 1 7 -9 7 -22z m10 -135 c0
-38 -1 -39 -42 -46 -24 -3 -51 -9 -60 -11 -15 -5 -18 2 -18 40 l0 45 53 4 c28
2 55 4 60 5 4 1 7 -16 7 -37z m0 -125 l0 -44 -52 -4 c-29 -2 -54 -4 -55 -3 -1
0 -5 19 -9 42 l-6 42 43 4 c24 2 52 4 62 5 14 2 17 -6 17 -42z"/>
<path d="M200 808 c0 -7 11 -32 24 -55 29 -50 38 -44 -107 -68 -32 -5 -36 -9
-27 -21 16 -18 54 -18 159 1 109 19 151 33 151 51 0 19 -40 27 -74 15 -41 -16
-46 -14 -46 18 0 20 -9 36 -26 50 -30 24 -54 27 -54 9z"/>
<path d="M326 654 c-3 -9 -6 -23 -6 -32 0 -9 -11 -41 -25 -71 -14 -30 -23 -56
-21 -59 3 -2 19 11 37 29 17 19 33 29 35 23 10 -26 32 -47 42 -40 19 12 14 33
-14 55 -24 19 -25 21 -9 45 18 27 14 40 -15 56 -13 7 -19 6 -24 -6z"/>
<path d="M140 615 c0 -29 -19 -70 -62 -132 -40 -59 -17 -54 44 9 l50 52 20
-27 c22 -30 43 -35 52 -12 5 13 -17 45 -32 45 -4 0 -13 4 -20 9 -12 7 -12 12
0 30 11 20 11 24 -6 37 -30 21 -46 17 -46 -11z"/>
<path d="M222 439 c6 -16 8 -32 5 -35 -3 -3 -53 -13 -111 -21 -58 -9 -106 -20
-106 -25 0 -5 14 -15 31 -22 27 -11 43 -11 112 5 l80 17 -7 -137 c-6 -115 -4
-140 8 -150 27 -22 36 20 36 162 l0 134 46 7 c26 3 60 6 75 6 19 0 29 5 29 15
0 20 -41 29 -95 21 -40 -6 -44 -5 -38 10 8 20 -21 44 -53 44 -21 0 -22 -2 -12
-31z"/>
<path d="M310 327 c0 -9 54 -103 68 -119 19 -23 32 -14 32 21 0 17 -10 37 -27
53 -27 25 -73 53 -73 45z"/>
<path d="M117 255 c-9 -19 -33 -52 -53 -75 -20 -22 -31 -40 -24 -40 25 0 90
44 119 80 29 36 29 38 12 54 -26 23 -35 20 -54 -19z"/>
</g>
</svg>
