<?xml version="1.0" standalone="no"?>
<!DOCTYPE svg PUBLIC "-//W3C//DTD SVG 20010904//EN"
 "http://www.w3.org/TR/2001/REC-SVG-20010904/DTD/svg10.dtd">
<svg version="1.0" xmlns="http://www.w3.org/2000/svg"
 width="90.000000pt" height="92.000000pt" viewBox="0 0 90.000000 92.000000"
 preserveAspectRatio="xMidYMid meet">
<metadata>
Created by potrace 1.16, written by Peter Selinger 2001-2019
</metadata>
<g transform="translate(0.000000,92.000000) scale(0.100000,-0.100000)"
fill="#000000" stroke="none">
<path d="M505 848 c4 -13 10 -50 12 -84 l5 -61 -91 -12 c-50 -7 -91 -17 -91
-22 0 -20 53 -30 102 -19 78 16 78 16 78 -44 l0 -54 -62 -7 c-82 -9 -98 -18
-61 -34 23 -9 48 -9 123 4 52 8 121 15 152 15 62 0 80 13 52 36 -14 11 -35 13
-84 9 l-65 -6 3 51 c2 27 5 50 5 51 1 0 41 4 90 8 48 4 90 11 95 15 4 4 -4 17
-18 28 -18 15 -33 18 -60 14 -19 -3 -53 -9 -74 -13 l-39 -6 6 66 c7 74 -2 87
-59 87 -23 0 -25 -3 -19 -22z"/>
<path d="M236 789 c-12 -77 -100 -227 -194 -331 -67 -75 0 -37 91 51 l57 55 0
-139 c-1 -77 -7 -168 -14 -202 -11 -49 -11 -68 0 -98 27 -80 45 -54 55 80 16
223 15 340 -4 368 -17 26 -16 28 19 84 20 32 45 71 57 87 l20 29 -32 29 c-17
15 -35 28 -40 28 -5 0 -11 -18 -15 -41z"/>
<path d="M615 475 c7 -41 5 -44 -16 -49 -27 -6 -285 -36 -311 -36 -27 0 -21
-19 10 -31 20 -8 64 -7 167 5 77 9 146 16 154 16 12 0 13 -18 8 -102 -10 -148
-11 -151 -59 -144 -45 7 -45 8 1 -56 34 -46 34 -47 62 -32 40 20 51 71 47 215
-2 92 0 120 10 124 8 3 45 5 82 5 38 0 71 4 74 9 3 4 -4 17 -15 27 -17 15 -35
19 -85 17 l-64 -2 0 33 c0 35 -13 46 -51 46 -18 0 -20 -5 -14 -45z"/>
<path d="M400 298 c1 -25 56 -93 78 -96 19 -3 22 1 22 32 0 30 -6 40 -32 56
-37 23 -68 26 -68 8z"/>
</g>
</svg>
