<?xml version="1.0" standalone="no"?>
<!DOCTYPE svg PUBLIC "-//W3C//DTD SVG 20010904//EN"
 "http://www.w3.org/TR/2001/REC-SVG-20010904/DTD/svg10.dtd">
<svg version="1.0" xmlns="http://www.w3.org/2000/svg"
 width="96.000000pt" height="68.000000pt" viewBox="0 0 96.000000 68.000000"
 preserveAspectRatio="xMidYMid meet">
<metadata>
Created by potrace 1.16, written by Peter Selinger 2001-2019
</metadata>
<g transform="translate(0.000000,68.000000) scale(0.100000,-0.100000)"
fill="#000000" stroke="none">
<path d="M405 488 c3 -29 2 -89 -2 -133 l-8 -80 -60 -12 c-33 -7 -85 -18 -115
-24 -30 -6 -64 -14 -75 -19 -19 -7 -18 -9 9 -21 28 -13 73 -2 233 58 10 4 12
-12 7 -68 -4 -57 -2 -79 9 -93 14 -19 14 -19 25 0 5 10 11 114 14 232 l3 212
-22 0 c-22 0 -23 -3 -18 -52z"/>
</g>
</svg>
