<?xml version="1.0" standalone="no"?>
<!DOCTYPE svg PUBLIC "-//W3C//DTD SVG 20010904//EN"
 "http://www.w3.org/TR/2001/REC-SVG-20010904/DTD/svg10.dtd">
<svg version="1.0" xmlns="http://www.w3.org/2000/svg"
 width="96.000000pt" height="68.000000pt" viewBox="0 0 96.000000 68.000000"
 preserveAspectRatio="xMidYMid meet">
<metadata>
Created by potrace 1.16, written by Peter Selinger 2001-2019
</metadata>
<g transform="translate(0.000000,68.000000) scale(0.100000,-0.100000)"
fill="#000000" stroke="none">
<path d="M534 563 c-21 -43 -40 -80 -41 -82 -2 -3 -58 -9 -126 -15 -97 -9
-122 -14 -122 -26 0 -11 13 -16 45 -18 24 -2 48 -8 51 -14 4 -5 6 -33 5 -61
l-1 -52 -40 -2 c-22 -2 -68 -5 -102 -9 -57 -5 -61 -7 -47 -21 13 -13 27 -14
97 -6 45 6 84 9 86 7 11 -9 -37 -119 -66 -154 -41 -48 -28 -53 22 -8 36 31 77
100 88 149 6 25 9 26 87 28 l80 2 0 -120 c0 -187 34 -170 46 23 4 58 10 105
13 104 3 0 53 0 110 1 90 1 102 3 91 16 -18 22 -67 28 -144 17 l-68 -9 4 66 4
66 52 8 c47 8 50 10 36 24 -13 13 -30 14 -102 9 l-87 -7 40 33 c22 18 44 32
50 30 5 -2 7 -1 3 3 -4 4 6 18 23 32 35 30 37 49 7 57 -47 12 -55 6 -94 -71z
m10 -141 c4 -10 6 -39 5 -64 l-2 -46 -69 -7 c-39 -4 -73 -3 -78 1 -4 5 -4 32
0 59 4 28 6 53 4 57 -3 4 17 9 43 11 27 2 58 4 70 5 13 1 24 -5 27 -16z"/>
<path d="M290 585 c0 -4 14 -25 31 -47 24 -30 37 -38 57 -36 34 4 38 21 10 52
-21 25 -98 49 -98 31z"/>
</g>
</svg>
