<?xml version="1.0" standalone="no"?>
<!DOCTYPE svg PUBLIC "-//W3C//DTD SVG 20010904//EN"
 "http://www.w3.org/TR/2001/REC-SVG-20010904/DTD/svg10.dtd">
<svg version="1.0" xmlns="http://www.w3.org/2000/svg"
 width="90.000000pt" height="92.000000pt" viewBox="0 0 90.000000 92.000000"
 preserveAspectRatio="xMidYMid meet">
<metadata>
Created by potrace 1.16, written by Peter Selinger 2001-2019
</metadata>
<g transform="translate(0.000000,92.000000) scale(0.100000,-0.100000)"
fill="#000000" stroke="none">
<path d="M384 789 c-16 -18 -62 -54 -103 -80 -73 -48 -75 -63 -4 -34 19 8 37
15 39 15 7 0 25 -81 20 -89 -3 -4 -30 -13 -61 -20 -74 -17 -72 -35 5 -29 l59
4 -6 -45 c-3 -25 -6 -47 -7 -48 -1 -1 -32 -8 -69 -15 -71 -13 -86 -30 -39 -46
18 -6 39 -5 65 4 45 16 46 11 17 -75 -22 -66 -50 -118 -93 -174 -36 -47 -23
-48 32 -1 49 42 94 125 117 217 l16 65 60 12 c74 14 74 36 -1 34 l-51 -2 0 48
c0 48 0 48 38 55 57 9 72 22 41 33 -14 6 -36 8 -50 5 -24 -4 -25 -2 -21 28 4
25 0 36 -18 49 -22 16 -22 17 39 43 63 27 76 48 42 67 -29 15 -34 13 -67 -21z"/>
<path d="M635 789 c-33 -10 -79 -21 -103 -25 -23 -3 -45 -10 -47 -14 -8 -14
34 -22 71 -15 32 6 34 5 36 -25 0 -16 1 -36 2 -42 1 -7 -18 -17 -42 -22 -53
-11 -49 -31 7 -30 41 1 41 1 41 -37 0 -36 -1 -37 -42 -44 -24 -4 -47 -10 -52
-12 -15 -10 18 -23 57 -23 l37 0 0 -44 c0 -49 2 -48 -117 -62 -66 -7 -77 -16
-42 -34 15 -8 34 -8 70 -1 96 21 89 35 89 -164 0 -104 4 -175 10 -175 17 0 30
75 37 217 7 163 -1 153 118 153 114 0 142 15 85 45 -30 15 -78 12 -177 -12
-22 -5 -23 -2 -23 45 l0 51 38 6 c56 10 72 15 72 25 0 14 -40 22 -77 15 l-34
-6 3 38 c3 36 5 38 50 48 25 5 50 13 54 17 11 12 -45 29 -73 22 -23 -6 -25 -4
-21 14 4 12 0 26 -9 33 -19 17 -4 25 65 34 55 7 65 18 33 35 -26 13 -45 12
-116 -11z"/>
<path d="M80 782 c0 -19 89 -92 105 -86 25 10 15 57 -15 70 -38 18 -90 27 -90
16z"/>
<path d="M28 584 c6 -11 26 -34 46 -53 30 -29 38 -32 51 -21 37 31 5 72 -69
86 -35 6 -37 5 -28 -12z"/>
<path d="M135 433 c-16 -37 -47 -89 -67 -115 -43 -53 -44 -61 -23 -111 17 -40
33 -55 39 -35 57 185 85 278 90 301 11 48 -8 28 -39 -40z"/>
</g>
</svg>
