<?xml version="1.0" standalone="no"?>
<!DOCTYPE svg PUBLIC "-//W3C//DTD SVG 20010904//EN"
 "http://www.w3.org/TR/2001/REC-SVG-20010904/DTD/svg10.dtd">
<svg version="1.0" xmlns="http://www.w3.org/2000/svg"
 width="96.000000pt" height="68.000000pt" viewBox="0 0 96.000000 68.000000"
 preserveAspectRatio="xMidYMid meet">
<metadata>
Created by potrace 1.16, written by Peter Selinger 2001-2019
</metadata>
<g transform="translate(0.000000,68.000000) scale(0.100000,-0.100000)"
fill="#000000" stroke="none">
<path d="M660 235 c0 -14 45 -65 58 -65 27 0 8 43 -25 57 -18 7 -33 11 -33 8z"/>
<path d="M590 205 c0 -14 34 -55 45 -55 16 0 14 22 -4 44 -13 15 -41 22 -41
11z"/>
<path d="M436 165 c-17 -26 -22 -65 -8 -65 17 0 42 37 42 63 0 34 -13 34 -34
2z"/>
<path d="M525 161 c20 -40 35 -48 35 -19 0 27 -17 48 -37 48 -11 0 -10 -6 2
-29z"/>
</g>
</svg>
