<?xml version="1.0" standalone="no"?>
<!DOCTYPE svg PUBLIC "-//W3C//DTD SVG 20010904//EN"
 "http://www.w3.org/TR/2001/REC-SVG-20010904/DTD/svg10.dtd">
<svg version="1.0" xmlns="http://www.w3.org/2000/svg"
 width="96.000000pt" height="68.000000pt" viewBox="0 0 96.000000 68.000000"
 preserveAspectRatio="xMidYMid meet">
<metadata>
Created by potrace 1.16, written by Peter Selinger 2001-2019
</metadata>
<g transform="translate(0.000000,68.000000) scale(0.100000,-0.100000)"
fill="#000000" stroke="none">
<path d="M543 583 c-3 -10 -15 -30 -25 -45 -11 -16 -15 -28 -10 -28 7 0 80 48
102 67 7 6 -23 23 -43 23 -10 0 -20 -8 -24 -17z"/>
<path d="M390 557 c0 -19 33 -47 53 -47 27 0 19 28 -13 45 -36 18 -40 19 -40
2z"/>
<path d="M500 490 c-19 -4 -57 -11 -85 -15 -45 -7 -47 -8 -23 -15 46 -13 224
12 213 30 -7 12 -55 11 -105 0z"/>
</g>
</svg>
