<?xml version="1.0" standalone="no"?>
<!DOCTYPE svg PUBLIC "-//W3C//DTD SVG 20010904//EN"
 "http://www.w3.org/TR/2001/REC-SVG-20010904/DTD/svg10.dtd">
<svg version="1.0" xmlns="http://www.w3.org/2000/svg"
 width="96.000000pt" height="68.000000pt" viewBox="0 0 96.000000 68.000000"
 preserveAspectRatio="xMidYMid meet">
<metadata>
Created by potrace 1.16, written by Peter Selinger 2001-2019
</metadata>
<g transform="translate(0.000000,68.000000) scale(0.100000,-0.100000)"
fill="#000000" stroke="none">
<path d="M227 578 c11 -32 8 -340 -5 -413 -10 -62 -1 -105 24 -105 19 0 22 20
29 213 4 97 11 177 15 177 4 0 13 -7 20 -15 7 -8 21 -15 32 -15 33 0 16 34
-22 46 -34 12 -35 13 -32 59 4 49 -13 74 -51 75 -15 0 -17 -4 -10 -22z"/>
<path d="M135 383 c-25 -59 -27 -79 -12 -92 23 -19 47 23 47 81 0 57 -14 62
-35 11z"/>
</g>
</svg>
