<?xml version="1.0" standalone="no"?>
<!DOCTYPE svg PUBLIC "-//W3C//DTD SVG 20010904//EN"
 "http://www.w3.org/TR/2001/REC-SVG-20010904/DTD/svg10.dtd">
<svg version="1.0" xmlns="http://www.w3.org/2000/svg"
 width="96.000000pt" height="68.000000pt" viewBox="0 0 96.000000 68.000000"
 preserveAspectRatio="xMidYMid meet">
<metadata>
Created by potrace 1.16, written by Peter Selinger 2001-2019
</metadata>
<g transform="translate(0.000000,68.000000) scale(0.100000,-0.100000)"
fill="#000000" stroke="none">
<path d="M335 514 c-27 -7 -76 -14 -108 -14 l-57 0 16 -25 c9 -13 21 -46 28
-72 12 -46 14 -48 47 -48 l34 0 3 -96 c3 -93 3 -97 -20 -103 -46 -12 -48 -9
-48 64 0 59 -3 71 -20 80 -23 13 -23 16 -20 -82 1 -59 -2 -78 -12 -79 -7 0
-25 -2 -40 -2 -35 -2 -37 -16 -5 -35 24 -15 34 -13 156 28 129 43 170 68 91
55 l-40 -7 0 44 0 45 42 1 c23 1 47 7 53 13 7 7 -4 10 -40 8 l-50 -3 0 42 c0
41 1 42 33 42 28 0 32 3 32 28 0 15 9 42 20 60 11 18 20 36 20 41 0 7 -59 34
-64 30 -1 0 -23 -7 -51 -15z m31 -66 c-8 -41 -12 -45 -62 -53 -40 -6 -42 -5
-53 26 -6 18 -11 36 -11 40 0 8 37 14 99 17 33 2 33 1 27 -30z"/>
<path d="M620 468 c-163 -27 -167 -28 -149 -39 7 -5 31 -9 52 -9 33 0 37 -3
37 -26 0 -28 -59 -154 -72 -154 -5 0 -8 -5 -8 -11 0 -6 -18 -33 -41 -60 -53
-64 -32 -63 36 2 29 27 55 46 58 42 3 -4 10 -35 16 -67 13 -69 14 -71 38 -61
10 4 52 9 93 11 107 6 122 11 115 34 -3 10 4 42 16 69 18 43 19 54 8 67 -14
17 -45 16 -165 -6 -105 -20 -110 -15 -68 65 24 45 34 75 30 90 -6 23 -4 23 92
30 53 3 103 8 110 10 19 7 14 22 -10 29 -32 8 -56 6 -188 -16z m135 -227 c6
-11 -14 -99 -24 -105 -3 -3 -38 -7 -77 -11 l-71 -7 -10 52 c-8 37 -7 52 1 55
76 21 172 29 181 16z"/>
</g>
</svg>
