<?xml version="1.0" standalone="no"?>
<!DOCTYPE svg PUBLIC "-//W3C//DTD SVG 20010904//EN"
 "http://www.w3.org/TR/2001/REC-SVG-20010904/DTD/svg10.dtd">
<svg version="1.0" xmlns="http://www.w3.org/2000/svg"
 width="96.000000pt" height="68.000000pt" viewBox="0 0 96.000000 68.000000"
 preserveAspectRatio="xMidYMid meet">
<metadata>
Created by potrace 1.16, written by Peter Selinger 2001-2019
</metadata>
<g transform="translate(0.000000,68.000000) scale(0.100000,-0.100000)"
fill="#000000" stroke="none">
<path d="M330 577 c0 -38 -73 -159 -139 -229 -61 -65 -68 -76 -44 -67 16 5 52
30 80 54 48 42 52 44 58 25 8 -24 -1 -129 -16 -211 -12 -61 -2 -99 26 -99 20
0 23 21 29 191 5 123 4 149 -9 159 -13 11 -8 21 36 77 28 35 48 70 46 78 -8
18 -67 38 -67 22z"/>
</g>
</svg>
