<?xml version="1.0" standalone="no"?>
<!DOCTYPE svg PUBLIC "-//W3C//DTD SVG 20010904//EN"
 "http://www.w3.org/TR/2001/REC-SVG-20010904/DTD/svg10.dtd">
<svg version="1.0" xmlns="http://www.w3.org/2000/svg"
 width="90.000000pt" height="92.000000pt" viewBox="0 0 90.000000 92.000000"
 preserveAspectRatio="xMidYMid meet">
<metadata>
Created by potrace 1.16, written by Peter Selinger 2001-2019
</metadata>
<g transform="translate(0.000000,92.000000) scale(0.100000,-0.100000)"
fill="#000000" stroke="none">
<path d="M496 788 c-57 -58 -73 -68 -93 -63 -35 8 -43 -1 -32 -35 14 -40 -4
-240 -31 -345 -12 -44 -34 -108 -50 -142 -16 -35 -25 -63 -21 -63 5 0 25 24
45 53 40 57 82 179 92 263 l6 50 117 13 c156 17 171 20 165 36 -6 16 31 92 48
97 16 6 2 26 -33 47 -28 17 -32 17 -94 0 -35 -9 -91 -22 -125 -27 -59 -9 -60
-8 -54 12 8 26 -6 16 97 71 48 26 87 52 87 59 0 15 -33 47 -46 45 -5 -1 -40
-33 -78 -71z m147 -124 c11 -4 13 -13 7 -40 -5 -20 -10 -37 -12 -39 -7 -7
-158 -35 -188 -35 -30 0 -31 1 -24 38 4 20 8 38 9 40 3 3 165 40 182 41 6 1
18 -2 26 -5z"/>
<path d="M174 803 c4 -16 9 -68 13 -117 7 -102 7 -102 -80 -112 -99 -11 -84
-39 20 -36 l63 2 0 -63 0 -64 -95 -44 c-52 -24 -94 -49 -95 -56 0 -13 38 -43
55 -43 5 0 35 20 65 45 30 25 58 45 63 45 7 0 0 -141 -9 -169 -3 -10 -15 -12
-46 -7 l-41 7 49 -53 c27 -29 54 -54 60 -56 23 -6 34 52 34 186 l0 137 40 29
c60 44 53 63 -8 26 l-33 -20 3 57 3 56 44 11 c25 6 46 17 49 24 5 17 -38 31
-65 21 -22 -8 -23 -6 -23 47 0 30 6 70 14 88 8 18 11 38 7 43 -12 18 -56 43
-74 43 -16 0 -18 -5 -13 -27z"/>
<path d="M698 473 c31 -44 60 -66 77 -60 16 7 20 34 7 54 -9 14 -56 33 -83 33
-20 0 -20 0 -1 -27z"/>
<path d="M510 483 c0 -5 4 -13 9 -18 13 -15 21 -59 13 -72 -5 -7 -32 -17 -62
-23 -29 -6 -55 -12 -58 -14 -11 -12 42 -26 78 -20 l40 7 -14 -47 c-19 -64 -58
-113 -146 -186 l-25 -20 30 11 c87 31 161 101 185 176 l12 34 58 -88 c81 -123
88 -128 167 -126 36 0 69 5 74 10 4 4 -29 27 -75 51 -62 32 -100 60 -152 114
l-69 72 30 7 c17 4 54 7 83 8 37 1 52 5 52 15 0 24 -51 38 -101 27 -24 -6 -47
-11 -50 -11 -4 0 -3 16 1 35 5 23 4 38 -5 45 -17 14 -75 24 -75 13z"/>
</g>
</svg>
