<?xml version="1.0" standalone="no"?>
<!DOCTYPE svg PUBLIC "-//W3C//DTD SVG 20010904//EN"
 "http://www.w3.org/TR/2001/REC-SVG-20010904/DTD/svg10.dtd">
<svg version="1.0" xmlns="http://www.w3.org/2000/svg"
 width="96.000000pt" height="68.000000pt" viewBox="0 0 96.000000 68.000000"
 preserveAspectRatio="xMidYMid meet">
<metadata>
Created by potrace 1.16, written by Peter Selinger 2001-2019
</metadata>
<g transform="translate(0.000000,68.000000) scale(0.100000,-0.100000)"
fill="#000000" stroke="none">
<path d="M245 590 c-3 -5 -1 -27 4 -47 6 -21 11 -57 11 -79 0 -45 -12 -54 -72
-54 -33 0 -58 -9 -58 -21 0 -5 29 -9 65 -9 l65 0 0 -39 c0 -38 -2 -40 -57 -66
-32 -14 -70 -29 -85 -32 -32 -6 -36 -20 -10 -39 25 -20 40 -17 94 17 28 16 51
29 52 27 2 -2 0 -28 -3 -58 -6 -57 -12 -62 -53 -45 -10 4 -18 3 -18 -3 0 -14
72 -82 87 -82 23 0 33 39 33 132 l0 93 35 23 c19 12 35 27 35 32 0 13 -6 13
-40 -5 l-30 -16 0 35 c0 33 2 34 52 46 48 12 50 14 32 27 -11 8 -30 12 -46 9
-25 -5 -28 -3 -28 21 0 14 5 43 12 64 6 22 9 41 7 44 -15 14 -79 34 -84 25z"/>
<path d="M563 587 c-21 -33 -89 -77 -121 -77 -29 0 -32 -2 -22 -19 5 -11 8
-39 5 -63 -19 -155 -39 -227 -76 -279 -28 -40 -16 -50 17 -13 38 43 56 82 74
158 16 68 17 69 51 71 130 6 210 19 205 31 -3 7 6 27 21 44 14 17 24 32 22 34
-28 24 -54 26 -143 10 -90 -16 -134 -14 -122 5 6 9 91 52 140 71 23 9 26 13
16 25 -15 18 -56 20 -67 2z m97 -134 c0 -33 -17 -44 -81 -53 -109 -16 -116
-15 -111 20 4 26 9 30 51 35 25 4 53 8 61 9 8 2 30 4 48 5 24 1 32 -3 32 -16z"/>
<path d="M545 341 c-3 -5 -1 -12 5 -16 5 -3 10 -17 10 -30 0 -22 -6 -25 -50
-31 -62 -8 -67 -27 -5 -22 34 2 45 0 45 -11 0 -17 -48 -101 -58 -101 -4 0 -20
-11 -37 -25 l-30 -26 40 16 c48 19 101 68 110 102 3 13 9 23 14 21 4 -2 32
-31 60 -66 61 -73 81 -83 151 -75 56 7 55 14 -5 33 -58 18 -115 53 -159 99
l-38 39 66 7 c36 4 69 11 71 15 8 13 -49 22 -95 15 -42 -6 -42 -6 -38 20 5 21
1 28 -19 36 -30 11 -30 11 -38 0z"/>
<path d="M718 320 c37 -34 50 -37 59 -14 8 22 -22 44 -61 44 l-31 -1 33 -29z"/>
</g>
</svg>
