<?xml version="1.0" standalone="no"?>
<!DOCTYPE svg PUBLIC "-//W3C//DTD SVG 20010904//EN"
 "http://www.w3.org/TR/2001/REC-SVG-20010904/DTD/svg10.dtd">
<svg version="1.0" xmlns="http://www.w3.org/2000/svg"
 width="96.000000pt" height="68.000000pt" viewBox="0 0 96.000000 68.000000"
 preserveAspectRatio="xMidYMid meet">
<metadata>
Created by potrace 1.16, written by Peter Selinger 2001-2019
</metadata>
<g transform="translate(0.000000,68.000000) scale(0.100000,-0.100000)"
fill="#000000" stroke="none">
<path d="M540 519 c7 -13 21 -36 32 -51 10 -15 15 -29 11 -31 -5 -3 -36 -8
-70 -12 -40 -4 -61 -11 -57 -17 9 -14 179 -4 249 14 67 17 59 34 -16 31 -51
-3 -60 0 -55 12 8 22 -34 64 -73 71 -33 7 -33 6 -21 -17z"/>
</g>
</svg>
