<?xml version="1.0" standalone="no"?>
<!DOCTYPE svg PUBLIC "-//W3C//DTD SVG 20010904//EN"
 "http://www.w3.org/TR/2001/REC-SVG-20010904/DTD/svg10.dtd">
<svg version="1.0" xmlns="http://www.w3.org/2000/svg"
 width="90.000000pt" height="92.000000pt" viewBox="0 0 90.000000 92.000000"
 preserveAspectRatio="xMidYMid meet">
<metadata>
Created by potrace 1.16, written by Peter Selinger 2001-2019
</metadata>
<g transform="translate(0.000000,92.000000) scale(0.100000,-0.100000)"
fill="#000000" stroke="none">
<path d="M470 883 c-47 -12 -110 -22 -140 -22 -75 2 -75 2 -56 -20 9 -10 21
-47 28 -82 6 -35 14 -69 19 -75 6 -7 37 -6 106 3 73 10 98 10 104 2 15 -24 35
1 57 69 13 39 27 74 32 77 21 13 9 35 -27 53 -37 18 -39 18 -123 -5z m83 -30
c3 -5 0 -34 -5 -65 l-10 -58 -39 0 c-31 0 -39 4 -39 19 0 14 10 20 40 25 59 9
47 36 -16 36 -29 0 -34 36 -6 43 29 8 71 7 75 0z m-138 -38 c0 -17 -7 -20 -40
-20 -29 0 -41 4 -43 17 -2 11 5 18 20 21 43 9 63 3 63 -18z m5 -64 c0 -28 -14
-41 -46 -41 -30 0 -34 3 -34 25 0 23 4 25 40 25 22 0 40 -4 40 -9z"/>
<path d="M605 668 c-40 -11 -88 -17 -112 -15 -47 5 -48 4 -33 -22 14 -27 40
-160 34 -176 -3 -8 -21 -26 -40 -40 -33 -26 -36 -26 -77 -12 l-42 14 60 29
c33 16 62 30 64 32 3 1 -5 12 -17 24 l-21 21 -39 -39 c-21 -22 -54 -46 -73
-54 -18 -7 -35 -14 -37 -15 -1 -1 0 -10 4 -19 5 -12 20 -16 68 -16 l61 0 -45
-30 c-25 -16 -60 -35 -77 -41 -37 -12 -39 -16 -18 -46 13 -19 17 -20 52 -8 21
7 55 16 76 20 l37 7 0 -92 0 -92 -27 4 c-16 3 -36 9 -46 13 -11 4 3 -15 29
-43 l49 -52 20 20 c16 17 21 39 26 123 3 56 2 106 -3 111 -15 18 -8 25 37 32
40 5 47 3 64 -17 15 -18 22 -21 31 -13 22 22 7 58 -35 81 -42 24 -56 23 -35
-2 7 -9 11 -18 8 -20 -7 -7 -139 -25 -183 -24 -38 1 -35 3 77 58 l118 58 -20
25 -19 25 71 7 c51 6 73 4 78 -5 16 -24 37 1 54 63 10 34 24 73 32 86 14 21
12 23 -18 42 -39 23 -41 23 -133 -2z m85 -48 c0 -28 -2 -30 -40 -30 -45 0 -44
-1 -30 34 7 20 16 26 40 26 27 0 30 -3 30 -30z m-115 -15 c0 -14 -9 -21 -32
-26 -31 -6 -33 -5 -33 23 0 27 2 29 33 26 24 -2 32 -8 32 -23z m101 -68 c-5
-20 -10 -23 -36 -19 -43 6 -42 40 3 44 40 4 41 4 33 -25z m-96 6 c0 -16 -16
-30 -37 -37 -20 -6 -23 -4 -23 18 0 22 4 26 30 26 17 0 30 -3 30 -7z"/>
<path d="M280 644 c-25 -8 -69 -15 -97 -16 -50 -1 -65 -9 -44 -23 6 -3 13 -27
17 -53 13 -91 16 -94 82 -86 31 4 73 8 92 8 32 2 36 5 53 51 9 28 23 61 29 74
11 20 10 26 -11 42 -27 22 -58 23 -121 3z m80 -44 c0 -16 -7 -20 -35 -20 -28
0 -35 4 -35 20 0 16 7 20 35 20 28 0 35 -4 35 -20z m-110 -10 c0 -11 -6 -20
-14 -20 -8 0 -21 -3 -30 -6 -11 -4 -16 0 -16 14 0 19 14 28 48 31 6 0 12 -8
12 -19z m100 -47 c0 -17 -16 -30 -42 -37 -28 -6 -33 -1 -22 28 6 16 64 23 64
9z m-100 -28 c0 -20 -5 -25 -24 -25 -17 0 -25 7 -28 25 -5 22 -2 25 23 25 24
0 29 -4 29 -25z"/>
<path d="M247 192 c-3 -15 -25 -49 -50 -75 -24 -26 -38 -47 -31 -47 21 0 109
66 124 94 14 25 13 28 -4 42 -28 20 -33 18 -39 -14z"/>
<path d="M580 213 c1 -15 86 -128 95 -126 18 3 28 30 21 56 -4 19 -21 34 -56
52 -53 27 -60 29 -60 18z"/>
</g>
</svg>
