<?xml version="1.0" standalone="no"?>
<!DOCTYPE svg PUBLIC "-//W3C//DTD SVG 20010904//EN"
 "http://www.w3.org/TR/2001/REC-SVG-20010904/DTD/svg10.dtd">
<svg version="1.0" xmlns="http://www.w3.org/2000/svg"
 width="96.000000pt" height="68.000000pt" viewBox="0 0 96.000000 68.000000"
 preserveAspectRatio="xMidYMid meet">
<metadata>
Created by potrace 1.16, written by Peter Selinger 2001-2019
</metadata>
<g transform="translate(0.000000,68.000000) scale(0.100000,-0.100000)"
fill="#000000" stroke="none">
<path d="M515 623 c-27 -8 -87 -15 -132 -16 -84 -1 -94 -5 -69 -27 8 -6 22
-33 31 -60 l16 -48 111 3 112 2 29 62 c19 40 27 65 20 72 -21 21 -68 26 -118
12z m55 -44 c0 -15 -4 -19 -16 -15 -9 3 -27 6 -40 6 -30 0 -32 17 -1 23 48 9
57 7 57 -14z m-132 -11 c-3 -7 -17 -13 -33 -13 -16 0 -30 6 -32 13 -3 8 7 12
32 12 25 0 35 -4 33 -12z m120 -40 c-5 -15 -68 -24 -68 -9 0 10 21 18 53 20
11 1 17 -4 15 -11z m-114 -13 c-4 -8 -17 -15 -30 -15 -15 0 -24 6 -24 15 0 10
10 15 30 15 22 0 28 -4 24 -15z"/>
<path d="M663 473 c-31 -6 -29 -23 2 -23 18 0 25 -5 25 -20 0 -16 -7 -20 -30
-20 -26 0 -30 4 -30 26 0 25 -2 26 -37 20 -21 -3 -58 -6 -82 -6 -41 0 -43 -1
-29 -17 8 -10 22 -39 30 -65 15 -47 15 -47 -12 -73 -18 -17 -37 -25 -61 -25
-61 0 -63 14 -7 39 50 22 51 24 33 37 -17 13 -21 12 -35 -4 -19 -23 -65 -52
-84 -52 -7 0 -16 -7 -20 -15 -4 -12 4 -15 44 -15 28 0 50 -4 50 -9 0 -6 -27
-20 -61 -32 -54 -20 -59 -24 -45 -38 14 -13 24 -13 77 -2 34 7 64 9 67 6 4 -3
7 -32 7 -63 0 -55 -1 -57 -29 -60 l-28 -4 23 -24 c27 -29 40 -30 62 -6 13 14
17 38 17 91 0 46 -4 70 -10 66 -5 -3 -10 -2 -10 4 0 18 77 24 103 7 13 -9 27
-13 30 -9 15 15 5 30 -33 52 -22 12 -40 17 -40 12 0 -6 5 -11 12 -11 8 0 9 -3
2 -10 -9 -9 -128 -29 -177 -30 -32 0 -8 18 51 40 56 21 123 50 132 57 2 2 -2
8 -10 13 -24 15 -6 21 71 24 51 2 75 7 80 17 41 80 47 98 36 107 -16 13 -57
20 -84 15z m-73 -53 c0 -16 -7 -20 -30 -20 -16 0 -30 2 -30 4 0 2 -3 11 -6 20
-5 13 1 16 30 16 29 0 36 -4 36 -20z m90 -45 c0 -9 -9 -15 -25 -15 -16 0 -25
6 -25 15 0 9 9 15 25 15 16 0 25 -6 25 -15z m-90 -10 c0 -9 -9 -15 -25 -15
-16 0 -25 6 -25 15 0 9 9 15 25 15 16 0 25 -6 25 -15z"/>
<path d="M300 441 l-95 -16 17 -50 16 -50 80 0 79 0 29 52 c42 78 20 89 -126
64z m98 -25 c3 -14 -2 -17 -29 -14 -38 4 -50 25 -17 31 33 6 43 3 46 -17z
m-98 -11 c0 -10 -10 -15 -30 -15 -29 0 -38 9 -23 23 13 13 53 7 53 -8z m3 -39
c7 -19 -1 -26 -30 -26 -16 0 -23 6 -23 20 0 14 7 20 24 20 13 0 26 -6 29 -14z
m85 2 c-7 -20 -48 -23 -48 -4 0 11 9 16 26 16 16 0 24 -5 22 -12z"/>
<path d="M296 111 c-8 -15 -27 -36 -41 -45 -37 -24 -24 -31 17 -11 53 27 80
56 67 72 -17 20 -27 16 -43 -16z"/>
<path d="M600 132 c0 -14 73 -83 84 -79 6 2 12 13 14 24 2 16 -8 25 -42 42
-51 23 -56 25 -56 13z"/>
</g>
</svg>
