<?xml version="1.0" standalone="no"?>
<!DOCTYPE svg PUBLIC "-//W3C//DTD SVG 20010904//EN"
 "http://www.w3.org/TR/2001/REC-SVG-20010904/DTD/svg10.dtd">
<svg version="1.0" xmlns="http://www.w3.org/2000/svg"
 width="96.000000pt" height="68.000000pt" viewBox="0 0 96.000000 68.000000"
 preserveAspectRatio="xMidYMid meet">
<metadata>
Created by potrace 1.16, written by Peter Selinger 2001-2019
</metadata>
<g transform="translate(0.000000,68.000000) scale(0.100000,-0.100000)"
fill="#000000" stroke="none">
<path d="M464 128 l1 -63 -32 0 -32 0 26 -27 c31 -32 45 -35 68 -12 12 13 15
32 13 88 -3 63 -5 71 -24 74 -20 3 -21 -1 -20 -60z"/>
<path d="M300 125 c0 -8 -16 -30 -37 -50 -20 -19 -33 -35 -29 -35 16 0 82 39
101 60 16 18 17 23 5 30 -22 14 -40 12 -40 -5z"/>
<path d="M609 123 c5 -10 23 -31 40 -47 23 -22 34 -27 42 -19 18 18 4 40 -40
63 -49 25 -54 25 -42 3z"/>
</g>
</svg>
