<?xml version="1.0" standalone="no"?>
<!DOCTYPE svg PUBLIC "-//W3C//DTD SVG 20010904//EN"
 "http://www.w3.org/TR/2001/REC-SVG-20010904/DTD/svg10.dtd">
<svg version="1.0" xmlns="http://www.w3.org/2000/svg"
 width="96.000000pt" height="68.000000pt" viewBox="0 0 96.000000 68.000000"
 preserveAspectRatio="xMidYMid meet">
<metadata>
Created by potrace 1.16, written by Peter Selinger 2001-2019
</metadata>
<g transform="translate(0.000000,68.000000) scale(0.100000,-0.100000)"
fill="#000000" stroke="none">
<path d="M490 615 c-30 -8 -84 -14 -119 -15 -57 0 -62 -2 -50 -16 7 -9 20 -37
29 -63 l15 -46 65 4 c81 6 111 6 130 0 9 -3 25 16 47 56 18 33 33 63 33 66 0
10 -50 29 -73 28 -12 0 -47 -7 -77 -14z m80 -35 c0 -17 -7 -20 -40 -20 -33 0
-40 3 -40 20 0 17 7 20 40 20 33 0 40 -3 40 -20z m-120 -10 c0 -17 -7 -20 -40
-20 -44 0 -58 25 -17 33 48 9 57 7 57 -13z m110 -45 c0 -10 -11 -15 -35 -15
-24 0 -35 5 -35 15 0 10 11 15 35 15 24 0 35 -5 35 -15z m-110 -11 c0 -11 -8
-14 -32 -12 -46 4 -49 28 -4 28 26 0 36 -4 36 -16z"/>
</g>
</svg>
