<?xml version="1.0" standalone="no"?>
<!DOCTYPE svg PUBLIC "-//W3C//DTD SVG 20010904//EN"
 "http://www.w3.org/TR/2001/REC-SVG-20010904/DTD/svg10.dtd">
<svg version="1.0" xmlns="http://www.w3.org/2000/svg"
 width="96.000000pt" height="68.000000pt" viewBox="0 0 96.000000 68.000000"
 preserveAspectRatio="xMidYMid meet">
<metadata>
Created by potrace 1.16, written by Peter Selinger 2001-2019
</metadata>
<g transform="translate(0.000000,68.000000) scale(0.100000,-0.100000)"
fill="#000000" stroke="none">
<path d="M674 221 c4 -5 -2 -7 -11 -5 -10 3 -36 1 -58 -5 l-40 -9 54 1 c65 0
79 -14 74 -74 -4 -56 -26 -81 -59 -69 -24 9 -24 9 -9 -14 17 -26 60 -44 52
-22 -3 7 -1 19 5 27 8 11 9 10 4 -3 -3 -10 -2 -18 3 -18 13 0 31 43 30 75 -1
17 4 43 10 59 6 16 9 31 6 34 -3 3 -5 2 -5 -1 0 -4 -9 2 -20 13 -20 20 -46 28
-36 11z m33 -143 c-3 -8 -6 -5 -6 6 -1 11 2 17 5 13 3 -3 4 -12 1 -19z"/>
<path d="M523 203 c9 -2 23 -2 30 0 6 3 -1 5 -18 5 -16 0 -22 -2 -12 -5z"/>
<path d="M234 185 c3 -8 8 -41 12 -74 3 -34 9 -61 13 -61 3 0 6 31 7 69 0 60
-2 70 -19 75 -13 3 -17 0 -13 -9z m23 -57 c-3 -8 -6 -5 -6 6 -1 11 2 17 5 13
3 -3 4 -12 1 -19z"/>
<path d="M408 193 c6 -2 18 -2 25 0 6 3 1 5 -13 5 -14 0 -19 -2 -12 -5z"/>
<path d="M318 183 c7 -3 16 -2 19 1 4 3 -2 6 -13 5 -11 0 -14 -3 -6 -6z"/>
</g>
</svg>
