<?xml version="1.0" standalone="no"?>
<!DOCTYPE svg PUBLIC "-//W3C//DTD SVG 20010904//EN"
 "http://www.w3.org/TR/2001/REC-SVG-20010904/DTD/svg10.dtd">
<svg version="1.0" xmlns="http://www.w3.org/2000/svg"
 width="96.000000pt" height="68.000000pt" viewBox="0 0 96.000000 68.000000"
 preserveAspectRatio="xMidYMid meet">
<metadata>
Created by potrace 1.16, written by Peter Selinger 2001-2019
</metadata>
<g transform="translate(0.000000,68.000000) scale(0.100000,-0.100000)"
fill="#000000" stroke="none">
<path d="M290 455 c-30 -8 -69 -14 -87 -15 -46 0 -50 -18 -6 -22 36 -3 38 -5
35 -33 -4 -34 -48 -115 -99 -182 -19 -25 -32 -47 -29 -50 3 -3 27 14 55 37 52
44 135 183 129 217 -2 14 7 19 44 24 58 9 76 18 57 30 -18 11 -32 10 -99 -6z"/>
</g>
</svg>
