<?xml version="1.0" standalone="no"?>
<!DOCTYPE svg PUBLIC "-//W3C//DTD SVG 20010904//EN"
 "http://www.w3.org/TR/2001/REC-SVG-20010904/DTD/svg10.dtd">
<svg version="1.0" xmlns="http://www.w3.org/2000/svg"
 width="96.000000pt" height="68.000000pt" viewBox="0 0 96.000000 68.000000"
 preserveAspectRatio="xMidYMid meet">
<metadata>
Created by potrace 1.16, written by Peter Selinger 2001-2019
</metadata>
<g transform="translate(0.000000,68.000000) scale(0.100000,-0.100000)"
fill="#000000" stroke="none">
<path d="M563 623 c-7 -3 -13 -20 -13 -39 0 -30 -3 -34 -27 -34 -16 0 -34 -4
-42 -9 -11 -7 -10 -10 6 -15 11 -4 28 -4 37 0 18 7 20 -4 6 -40 -14 -37 5 -32
29 8 23 37 44 46 109 46 23 0 42 4 42 9 0 12 -63 23 -85 15 -13 -5 -16 -2 -13
16 3 24 -28 51 -49 43z"/>
<path d="M280 596 c0 -8 5 -18 10 -21 6 -3 10 -15 10 -26 0 -17 -7 -19 -62
-19 l-63 -1 25 -20 c24 -20 36 -21 96 -4 15 5 23 0 32 -20 14 -30 32 -25 32
10 0 18 7 27 28 32 l27 7 -35 6 c-28 4 -36 10 -39 30 -1 14 -8 28 -15 32 -19
13 -46 9 -46 -6z"/>
</g>
</svg>
