<?xml version="1.0" standalone="no"?>
<!DOCTYPE svg PUBLIC "-//W3C//DTD SVG 20010904//EN"
 "http://www.w3.org/TR/2001/REC-SVG-20010904/DTD/svg10.dtd">
<svg version="1.0" xmlns="http://www.w3.org/2000/svg"
 width="96.000000pt" height="68.000000pt" viewBox="0 0 96.000000 68.000000"
 preserveAspectRatio="xMidYMid meet">
<metadata>
Created by potrace 1.16, written by Peter Selinger 2001-2019
</metadata>
<g transform="translate(0.000000,68.000000) scale(0.100000,-0.100000)"
fill="#000000" stroke="none">
<path d="M540 574 c-52 -7 -107 -11 -122 -8 -27 5 -40 -10 -17 -18 7 -2 19
-28 28 -58 18 -60 47 -85 37 -31 -3 17 -9 44 -12 60 l-5 29 78 7 c130 12 128
12 127 -10 -1 -11 -5 -40 -9 -64 -7 -38 -6 -43 10 -40 12 3 26 26 41 67 l24
63 -26 9 c-30 12 -31 12 -154 -6z"/>
<path d="M540 523 c-41 -8 -48 -23 -9 -23 45 0 80 10 73 21 -5 9 -20 10 -64 2z"/>
<path d="M543 473 c-18 -2 -33 -9 -33 -15 0 -7 14 -8 38 -4 20 3 44 6 52 6 13
0 13 1 0 10 -8 5 -17 9 -20 8 -3 -1 -20 -3 -37 -5z"/>
</g>
</svg>
