<?xml version="1.0" standalone="no"?>
<!DOCTYPE svg PUBLIC "-//W3C//DTD SVG 20010904//EN"
 "http://www.w3.org/TR/2001/REC-SVG-20010904/DTD/svg10.dtd">
<svg version="1.0" xmlns="http://www.w3.org/2000/svg"
 width="90.000000pt" height="92.000000pt" viewBox="0 0 90.000000 92.000000"
 preserveAspectRatio="xMidYMid meet">
<metadata>
Created by potrace 1.16, written by Peter Selinger 2001-2019
</metadata>
<g transform="translate(0.000000,92.000000) scale(0.100000,-0.100000)"
fill="#000000" stroke="none">
<path d="M165 768 c4 -13 9 -61 12 -107 7 -97 7 -97 -84 -107 -109 -11 -93
-49 17 -40 l65 6 -6 -108 c-4 -59 -10 -116 -13 -127 -9 -25 9 -75 26 -75 16 1
205 176 198 183 -3 3 -33 -12 -67 -34 -92 -58 -93 -58 -93 64 l0 103 77 19
c82 21 100 38 60 56 -20 9 -36 8 -77 -6 -28 -9 -52 -15 -54 -14 -1 2 1 42 5
89 6 78 5 86 -13 103 -11 9 -29 17 -40 17 -16 0 -19 -4 -13 -22z"/>
<path d="M690 679 c-30 -9 -103 -25 -162 -35 -60 -10 -108 -22 -108 -26 0 -16
44 -30 76 -23 45 8 50 -6 30 -87 -34 -133 -107 -249 -209 -329 -53 -43 -45
-51 18 -18 110 59 188 168 255 358 l23 65 -22 17 c-21 17 -21 18 31 29 29 7
67 10 83 8 l30 -3 -2 -75 c-4 -138 -46 -323 -79 -351 -13 -11 -23 -10 -60 4
l-45 17 29 -38 c16 -20 34 -47 41 -59 17 -33 45 -28 79 13 38 45 56 111 82
293 12 79 28 158 37 174 15 30 15 31 -13 53 -38 31 -51 33 -114 13z"/>
</g>
</svg>
