<?xml version="1.0" standalone="no"?>
<!DOCTYPE svg PUBLIC "-//W3C//DTD SVG 20010904//EN"
 "http://www.w3.org/TR/2001/REC-SVG-20010904/DTD/svg10.dtd">
<svg version="1.0" xmlns="http://www.w3.org/2000/svg"
 width="96.000000pt" height="68.000000pt" viewBox="0 0 96.000000 68.000000"
 preserveAspectRatio="xMidYMid meet">
<metadata>
Created by potrace 1.16, written by Peter Selinger 2001-2019
</metadata>
<g transform="translate(0.000000,68.000000) scale(0.100000,-0.100000)"
fill="#000000" stroke="none">
<path d="M500 186 c0 -91 79 -134 225 -123 75 5 136 28 134 50 0 6 -9 30 -19
52 -15 32 -19 36 -19 17 -1 -13 -14 -37 -30 -53 -28 -27 -34 -29 -111 -29 -87
0 -139 18 -141 48 -1 9 0 32 1 50 1 26 -2 32 -19 32 -18 0 -21 -6 -21 -44z"/>
</g>
</svg>
