<?xml version="1.0" standalone="no"?>
<!DOCTYPE svg PUBLIC "-//W3C//DTD SVG 20010904//EN"
 "http://www.w3.org/TR/2001/REC-SVG-20010904/DTD/svg10.dtd">
<svg version="1.0" xmlns="http://www.w3.org/2000/svg"
 width="96.000000pt" height="68.000000pt" viewBox="0 0 96.000000 68.000000"
 preserveAspectRatio="xMidYMid meet">
<metadata>
Created by potrace 1.16, written by Peter Selinger 2001-2019
</metadata>
<g transform="translate(0.000000,68.000000) scale(0.100000,-0.100000)"
fill="#000000" stroke="none">
<path d="M536 583 c-11 -44 -40 -113 -48 -113 -5 0 -8 -5 -8 -11 0 -6 -9 -22
-20 -36 -26 -33 -26 -51 0 -28 13 12 40 19 76 21 l57 3 -5 -70 c-3 -38 -8 -72
-11 -76 -3 -3 -25 9 -49 26 -42 31 -68 39 -68 21 0 -5 6 -10 13 -10 15 0 77
-61 77 -76 0 -25 -83 -83 -150 -105 -19 -7 -13 -8 22 -5 42 3 84 22 151 69 11
8 20 9 25 2 4 -5 33 -34 65 -63 l57 -53 58 6 c31 4 61 11 65 15 4 4 -14 15
-40 25 -61 22 -166 80 -183 100 -10 12 -8 29 9 92 13 51 17 81 11 87 -21 21
-8 33 41 39 58 7 70 14 49 28 -18 11 -54 7 -133 -15 -83 -23 -96 -22 -71 7 11
12 31 44 44 71 24 47 24 48 5 62 -27 20 -32 18 -39 -13z"/>
<path d="M265 578 c-2 -7 -11 -36 -20 -65 -18 -59 -57 -117 -123 -185 -76 -79
-29 -78 61 2 l47 42 0 -80 c0 -44 -5 -103 -12 -131 -13 -56 -1 -101 27 -101
19 0 22 18 34 180 8 113 8 139 -4 157 -14 20 -12 27 25 82 22 33 40 65 40 72
0 29 -66 52 -75 27z"/>
<path d="M346 322 c2 -125 1 -122 19 -122 12 0 15 15 15 79 0 43 3 93 6 110 6
28 4 31 -17 31 -24 0 -24 -1 -23 -98z"/>
</g>
</svg>
