<?xml version="1.0" standalone="no"?>
<!DOCTYPE svg PUBLIC "-//W3C//DTD SVG 20010904//EN"
 "http://www.w3.org/TR/2001/REC-SVG-20010904/DTD/svg10.dtd">
<svg version="1.0" xmlns="http://www.w3.org/2000/svg"
 width="96.000000pt" height="68.000000pt" viewBox="0 0 96.000000 68.000000"
 preserveAspectRatio="xMidYMid meet">
<metadata>
Created by potrace 1.16, written by Peter Selinger 2001-2019
</metadata>
<g transform="translate(0.000000,68.000000) scale(0.100000,-0.100000)"
fill="#000000" stroke="none">
<path d="M610 395 c0 -10 -15 -17 -42 -22 l-43 -8 49 -5 c47 -5 49 -6 32 -22
-10 -10 -31 -18 -47 -18 -16 0 -29 -5 -29 -10 0 -11 158 -6 239 6 59 9 19 28
-54 26 -53 -2 -65 0 -65 13 0 10 10 15 28 16 15 0 36 4 47 9 15 6 8 9 -27 9
-27 1 -48 6 -48 11 0 6 -9 10 -20 10 -11 0 -20 -7 -20 -15z"/>
</g>
</svg>
