<?xml version="1.0" standalone="no"?>
<!DOCTYPE svg PUBLIC "-//W3C//DTD SVG 20010904//EN"
 "http://www.w3.org/TR/2001/REC-SVG-20010904/DTD/svg10.dtd">
<svg version="1.0" xmlns="http://www.w3.org/2000/svg"
 width="96.000000pt" height="68.000000pt" viewBox="0 0 96.000000 68.000000"
 preserveAspectRatio="xMidYMid meet">
<metadata>
Created by potrace 1.16, written by Peter Selinger 2001-2019
</metadata>
<g transform="translate(0.000000,68.000000) scale(0.100000,-0.100000)"
fill="#000000" stroke="none">
<path d="M559 592 c0 -4 0 -48 1 -99 l1 -91 -85 -7 c-47 -4 -92 -5 -101 -1
-11 4 -15 21 -15 64 0 65 -11 82 -52 82 l-27 0 19 -42 c11 -24 20 -59 20 -79
l0 -36 -67 -6 c-38 -4 -87 -7 -110 -7 -50 0 -55 -12 -13 -30 24 -10 43 -10 87
-1 31 6 68 11 83 11 27 0 27 -1 34 -90 4 -50 9 -96 12 -104 4 -10 25 -13 92
-9 48 2 105 6 127 9 l40 5 1 99 c0 55 4 103 8 108 4 4 55 6 112 4 61 -2 104 1
104 6 0 25 -33 34 -121 33 l-90 -2 6 79 c6 60 4 80 -6 88 -17 14 -59 24 -60
16z m-1 -314 l-3 -93 -80 -6 c-44 -3 -83 -3 -87 0 -3 4 -9 45 -13 93 l-7 87
48 4 c27 2 71 4 97 5 l48 2 -3 -92z"/>
</g>
</svg>
