<?xml version="1.0" standalone="no"?>
<!DOCTYPE svg PUBLIC "-//W3C//DTD SVG 20010904//EN"
 "http://www.w3.org/TR/2001/REC-SVG-20010904/DTD/svg10.dtd">
<svg version="1.0" xmlns="http://www.w3.org/2000/svg"
 width="96.000000pt" height="68.000000pt" viewBox="0 0 96.000000 68.000000"
 preserveAspectRatio="xMidYMid meet">
<metadata>
Created by potrace 1.16, written by Peter Selinger 2001-2019
</metadata>
<g transform="translate(0.000000,68.000000) scale(0.100000,-0.100000)"
fill="#000000" stroke="none">
<path d="M490 470 c-52 -10 -128 -19 -168 -19 l-72 -1 15 -23 c8 -13 20 -50
26 -83 14 -70 25 -87 48 -75 27 14 236 22 249 9 20 -20 40 0 68 74 15 40 32
79 37 86 6 7 8 14 6 16 -53 41 -66 42 -209 16z m120 -42 l0 -33 -60 0 c-58 0
-60 1 -60 27 0 25 4 27 48 31 26 2 53 4 60 5 7 1 12 -10 12 -30z m-172 -15
c-3 -27 -6 -28 -60 -31 -33 -2 -58 1 -58 7 0 5 -3 16 -6 25 -4 11 3 16 33 19
94 9 95 9 91 -20z m161 -65 c-5 -18 -9 -34 -9 -35 0 -2 -22 -3 -50 -3 -49 0
-50 1 -50 29 0 28 2 30 48 34 26 2 52 4 59 5 8 2 9 -7 2 -30z m-159 -19 l0
-30 -52 3 c-49 3 -53 5 -56 31 -3 27 -2 27 52 27 56 0 56 0 56 -31z"/>
</g>
</svg>
