<?xml version="1.0" standalone="no"?>
<!DOCTYPE svg PUBLIC "-//W3C//DTD SVG 20010904//EN"
 "http://www.w3.org/TR/2001/REC-SVG-20010904/DTD/svg10.dtd">
<svg version="1.0" xmlns="http://www.w3.org/2000/svg"
 width="96.000000pt" height="68.000000pt" viewBox="0 0 96.000000 68.000000"
 preserveAspectRatio="xMidYMid meet">
<metadata>
Created by potrace 1.16, written by Peter Selinger 2001-2019
</metadata>
<g transform="translate(0.000000,68.000000) scale(0.100000,-0.100000)"
fill="#000000" stroke="none">
<path d="M307 593 c-2 -5 -7 -21 -11 -38 -10 -39 -65 -113 -140 -186 -33 -32
-55 -59 -48 -59 15 0 88 44 121 74 l23 21 -6 -115 c-3 -63 -8 -128 -11 -145
-8 -39 17 -77 37 -57 16 16 29 299 14 324 -11 19 4 46 62 110 l36 40 -23 19
c-24 20 -47 24 -54 12z"/>
</g>
</svg>
