<?xml version="1.0" standalone="no"?>
<!DOCTYPE svg PUBLIC "-//W3C//DTD SVG 20010904//EN"
 "http://www.w3.org/TR/2001/REC-SVG-20010904/DTD/svg10.dtd">
<svg version="1.0" xmlns="http://www.w3.org/2000/svg"
 width="96.000000pt" height="68.000000pt" viewBox="0 0 96.000000 68.000000"
 preserveAspectRatio="xMidYMid meet">
<metadata>
Created by potrace 1.16, written by Peter Selinger 2001-2019
</metadata>
<g transform="translate(0.000000,68.000000) scale(0.100000,-0.100000)"
fill="#000000" stroke="none">
<path d="M480 576 c0 -7 9 -25 20 -39 l20 -25 -37 -6 c-21 -3 -65 -8 -98 -11
-33 -3 -78 -8 -100 -12 -38 -5 -39 -6 -19 -22 30 -25 35 -47 24 -118 -13 -81
-58 -171 -117 -234 -39 -42 -43 -49 -25 -49 13 0 46 24 80 57 66 66 90 119
118 257 9 47 19 86 23 86 38 0 365 30 368 34 3 2 -7 12 -21 21 -20 14 -38 16
-86 10 -57 -7 -60 -6 -60 15 0 15 -10 25 -35 36 -43 18 -55 18 -55 0z"/>
<path d="M470 420 c0 -22 -31 -89 -52 -112 -56 -60 -63 -71 -43 -60 11 5 40
28 65 49 39 34 54 41 107 46 73 8 73 6 8 -84 -40 -56 -87 -97 -179 -157 -38
-24 -45 -32 -28 -32 34 0 119 52 179 109 12 12 28 21 35 21 8 0 42 -30 76 -66
54 -58 68 -67 105 -71 23 -3 58 -1 77 5 30 8 32 10 15 17 -129 46 -255 115
-255 140 0 6 11 24 24 38 14 15 37 42 51 62 l27 35 -28 10 c-20 8 -41 8 -71 1
-23 -6 -51 -11 -63 -11 -19 0 -20 1 -5 24 20 30 10 56 -21 56 -17 0 -24 -6
-24 -20z"/>
<path d="M161 398 c39 -76 113 -95 95 -25 -5 22 -53 47 -90 47 -14 0 -15 -3
-5 -22z"/>
<path d="M210 285 c-14 -8 -49 -22 -77 -31 -29 -8 -53 -19 -53 -24 0 -5 11
-17 25 -26 24 -16 27 -15 79 26 66 50 84 70 65 70 -8 -1 -25 -7 -39 -15z"/>
</g>
</svg>
