<?xml version="1.0" standalone="no"?>
<!DOCTYPE svg PUBLIC "-//W3C//DTD SVG 20010904//EN"
 "http://www.w3.org/TR/2001/REC-SVG-20010904/DTD/svg10.dtd">
<svg version="1.0" xmlns="http://www.w3.org/2000/svg"
 width="96.000000pt" height="68.000000pt" viewBox="0 0 96.000000 68.000000"
 preserveAspectRatio="xMidYMid meet">
<metadata>
Created by potrace 1.16, written by Peter Selinger 2001-2019
</metadata>
<g transform="translate(0.000000,68.000000) scale(0.100000,-0.100000)"
fill="#000000" stroke="none">
<path d="M609 488 c1 -57 7 -111 13 -121 25 -47 147 -62 206 -27 27 17 31 23
22 39 -5 11 -10 29 -10 40 0 32 -15 25 -25 -11 -8 -27 -17 -35 -47 -42 -24 -6
-52 -6 -75 0 -31 7 -38 14 -44 41 -8 41 -3 47 56 67 28 9 61 23 75 31 l25 13
-28 7 c-21 6 -34 2 -50 -13 -22 -20 -60 -42 -73 -42 -3 0 -4 23 -2 50 4 42 2
53 -13 60 -10 6 -21 10 -26 10 -4 0 -6 -46 -4 -102z"/>
<path d="M248 574 c-4 -3 -2 -20 3 -37 5 -18 9 -53 9 -79 0 -51 4 -49 -103
-64 -70 -9 -54 -29 22 -28 33 0 61 -3 61 -8 0 -18 -69 -117 -114 -164 -25 -26
-43 -50 -41 -53 11 -10 76 33 121 81 24 26 47 48 50 48 2 0 2 -10 0 -22 -3
-13 -7 -61 -11 -108 -4 -68 -3 -89 10 -105 15 -20 15 -20 30 -1 11 15 15 50
15 145 l1 126 29 -34 c31 -36 60 -37 60 -2 0 18 -43 55 -65 56 -5 0 -11 12
-13 27 -3 25 0 27 42 33 57 9 80 31 42 41 -15 3 -40 4 -56 0 -26 -5 -30 -3
-30 17 0 12 4 37 9 55 12 41 7 56 -25 71 -28 12 -38 14 -46 5z"/>
<path d="M419 516 c10 -12 12 -41 8 -116 -4 -54 -3 -101 1 -104 9 -6 132 73
132 84 0 10 -39 1 -46 -11 -3 -5 -14 -9 -25 -9 -16 0 -19 7 -19 40 l0 40 50 0
c28 0 50 4 50 9 0 18 -18 21 -59 12 l-40 -9 -3 37 c-3 32 -7 36 -32 39 -26 3
-28 2 -17 -12z"/>
<path d="M543 313 c2 -30 -33 -73 -59 -73 -24 0 -24 -1 -24 -99 0 -80 3 -100
15 -105 9 -3 18 0 21 7 3 8 36 13 104 14 93 3 100 1 100 -17 0 -10 4 -21 9
-24 21 -13 33 29 37 128 3 99 2 105 -17 111 -20 7 -132 -1 -174 -11 -15 -4
-12 2 13 26 37 35 36 60 -2 60 -17 0 -24 -5 -23 -17z m147 -99 c6 -14 10 -29
10 -33 0 -4 -37 -11 -83 -14 -46 -3 -90 -7 -98 -9 -9 -2 -15 7 -17 29 l-3 31
68 7 c37 4 73 8 78 10 25 8 36 3 45 -21z m8 -95 c-4 -30 -4 -30 -75 -34 -39
-3 -75 -5 -80 -6 -31 -5 -43 3 -43 31 l0 29 73 4 c39 1 85 4 100 5 26 2 28 -1
25 -29z"/>
</g>
</svg>
