<?xml version="1.0" standalone="no"?>
<!DOCTYPE svg PUBLIC "-//W3C//DTD SVG 20010904//EN"
 "http://www.w3.org/TR/2001/REC-SVG-20010904/DTD/svg10.dtd">
<svg version="1.0" xmlns="http://www.w3.org/2000/svg"
 width="96.000000pt" height="68.000000pt" viewBox="0 0 96.000000 68.000000"
 preserveAspectRatio="xMidYMid meet">
<metadata>
Created by potrace 1.16, written by Peter Selinger 2001-2019
</metadata>
<g transform="translate(0.000000,68.000000) scale(0.100000,-0.100000)"
fill="#000000" stroke="none">
<path d="M437 600 l6 -50 -54 -1 c-87 -1 -106 -17 -21 -18 64 -1 72 -3 72 -20
0 -22 -19 -31 -65 -31 -19 0 -37 -4 -40 -10 -4 -6 15 -10 48 -10 40 0 56 -4
61 -15 8 -23 46 -19 46 5 0 16 9 21 50 26 70 9 73 24 5 24 -48 0 -56 3 -53 18
2 13 20 20 78 28 93 14 89 13 67 25 -16 10 -72 6 -119 -7 -15 -4 -18 1 -18 31
0 29 -5 37 -26 45 -41 16 -43 13 -37 -40z"/>
</g>
</svg>
