<?xml version="1.0" standalone="no"?>
<!DOCTYPE svg PUBLIC "-//W3C//DTD SVG 20010904//EN"
 "http://www.w3.org/TR/2001/REC-SVG-20010904/DTD/svg10.dtd">
<svg version="1.0" xmlns="http://www.w3.org/2000/svg"
 width="96.000000pt" height="68.000000pt" viewBox="0 0 96.000000 68.000000"
 preserveAspectRatio="xMidYMid meet">
<metadata>
Created by potrace 1.16, written by Peter Selinger 2001-2019
</metadata>
<g transform="translate(0.000000,68.000000) scale(0.100000,-0.100000)"
fill="#000000" stroke="none">
<path d="M425 633 c3 -10 9 -30 12 -44 5 -25 3 -26 -66 -35 -40 -5 -72 -13
-71 -19 0 -6 31 -10 70 -10 57 0 70 -3 68 -15 -2 -10 -22 -18 -56 -24 -68 -12
-67 -26 3 -26 48 0 55 -3 55 -19 0 -17 -10 -20 -77 -26 -132 -10 -159 -16
-139 -27 17 -9 72 -6 321 17 22 2 73 4 113 4 54 1 72 4 72 15 0 21 -47 26
-143 14 -48 -6 -90 -8 -94 -5 -14 14 8 37 36 37 16 0 42 5 58 11 l28 11 -25
10 c-14 5 -40 7 -57 4 -24 -3 -33 -1 -33 9 0 8 15 17 38 20 100 17 117 21 114
30 -1 6 -36 9 -77 8 l-75 -2 0 34 c0 35 -13 45 -57 45 -20 0 -24 -4 -18 -17z"/>
<path d="M460 357 c-36 -4 -84 -6 -108 -4 l-43 5 7 -43 c3 -24 2 -45 -4 -49
-5 -3 -53 -6 -106 -7 -53 -1 -96 -5 -96 -10 0 -16 49 -21 125 -14 69 6 75 5
75 -12 0 -10 -9 -29 -20 -43 -36 -46 -20 -71 29 -45 22 11 60 15 136 15 95 0
105 -2 105 -18 0 -31 -35 -55 -70 -49 l-30 6 27 -29 c14 -17 34 -30 44 -30 23
0 69 60 69 90 0 20 3 22 38 15 20 -3 47 -9 60 -12 12 -3 22 -1 22 6 0 15 -39
38 -77 46 -30 6 -32 9 -26 38 3 18 7 34 9 36 2 2 51 3 109 2 106 -2 128 6 83
30 -14 8 -49 9 -106 5 l-84 -7 6 35 c6 33 4 37 -20 46 -28 11 -49 11 -154 -3z
m120 -44 c0 -33 -1 -33 -45 -33 -27 0 -45 5 -45 11 0 16 -31 38 -54 39 -18 0
-18 -1 2 -23 12 -13 22 -26 22 -30 0 -4 -22 -7 -50 -7 -49 0 -50 1 -50 30 0
32 13 37 115 43 110 6 105 7 105 -30z m0 -98 c0 -35 0 -35 -44 -35 -39 0 -45
3 -48 22 -2 14 -14 26 -30 32 -39 14 -46 0 -14 -28 l28 -23 -61 -7 c-34 -4
-65 -5 -70 -2 -5 4 -5 21 2 41 l10 35 114 0 113 0 0 -35z"/>
</g>
</svg>
