<?xml version="1.0" standalone="no"?>
<!DOCTYPE svg PUBLIC "-//W3C//DTD SVG 20010904//EN"
 "http://www.w3.org/TR/2001/REC-SVG-20010904/DTD/svg10.dtd">
<svg version="1.0" xmlns="http://www.w3.org/2000/svg"
 width="90.000000pt" height="92.000000pt" viewBox="0 0 90.000000 92.000000"
 preserveAspectRatio="xMidYMid meet">
<metadata>
Created by potrace 1.16, written by Peter Selinger 2001-2019
</metadata>
<g transform="translate(0.000000,92.000000) scale(0.100000,-0.100000)"
fill="#000000" stroke="none">
<path d="M578 810 c-58 -15 -393 -40 -428 -33 -31 6 -32 5 -24 -18 15 -39 11
-404 -5 -501 -11 -71 -12 -92 -1 -117 14 -34 25 -39 37 -17 6 11 60 18 228 30
120 8 219 14 220 13 0 -1 13 -21 28 -45 23 -36 30 -41 47 -32 10 5 22 20 27
32 4 13 8 154 8 313 0 160 4 300 8 311 7 17 3 26 -21 43 -37 26 -76 33 -124
21z m52 -55 c26 -31 40 -529 15 -553 -3 -3 -19 -1 -35 5 -21 8 -65 7 -167 -2
-76 -7 -169 -16 -207 -19 l-69 -5 6 43 c4 25 9 148 13 274 l7 230 26 5 c14 3
71 10 126 16 229 25 269 26 285 6z"/>
<path d="M374 723 c3 -10 8 -43 11 -74 l7 -56 -47 -7 c-26 -3 -61 -6 -77 -6
-19 0 -28 -4 -26 -12 3 -8 28 -14 66 -16 42 -2 62 -7 62 -16 0 -21 -62 -108
-117 -163 -28 -29 -50 -53 -47 -53 3 0 21 9 42 19 37 19 85 65 115 111 l17 24
0 -44 c0 -25 -5 -62 -11 -83 -7 -27 -7 -48 1 -73 26 -77 52 -22 51 104 l-1 95
22 -19 c12 -10 41 -36 63 -56 56 -53 95 -49 81 7 -7 27 -52 54 -123 75 -39 12
-43 16 -43 45 0 32 0 33 72 46 39 8 73 19 75 26 6 19 -40 26 -93 15 l-47 -10
6 57 c6 55 5 59 -19 70 -35 16 -46 14 -40 -6z"/>
</g>
</svg>
