<?xml version="1.0" standalone="no"?>
<!DOCTYPE svg PUBLIC "-//W3C//DTD SVG 20010904//EN"
 "http://www.w3.org/TR/2001/REC-SVG-20010904/DTD/svg10.dtd">
<svg version="1.0" xmlns="http://www.w3.org/2000/svg"
 width="90.000000pt" height="92.000000pt" viewBox="0 0 90.000000 92.000000"
 preserveAspectRatio="xMidYMid meet">
<metadata>
Created by potrace 1.16, written by Peter Selinger 2001-2019
</metadata>
<g transform="translate(0.000000,92.000000) scale(0.100000,-0.100000)"
fill="#000000" stroke="none">
<path d="M256 872 c-2 -4 -4 -28 -4 -53 0 -76 -11 -86 -97 -94 -77 -8 -90 -16
-54 -35 15 -8 34 -8 70 -1 28 6 52 11 55 11 17 0 -69 -135 -119 -187 -33 -35
-57 -63 -53 -63 4 0 24 9 45 19 54 28 133 119 162 185 23 54 25 56 59 54 34
-3 35 -4 32 -43 -2 -22 -13 -61 -24 -87 -20 -47 -21 -48 -65 -48 l-44 0 33
-40 c18 -22 39 -40 46 -40 8 0 26 13 42 28 21 21 32 48 45 108 9 43 24 90 33
103 14 23 13 26 -13 49 -23 20 -35 23 -66 18 l-38 -6 15 42 c13 37 13 43 -2
59 -17 18 -52 31 -58 21z"/>
<path d="M625 755 c-27 -7 -79 -14 -114 -14 -61 -1 -63 -2 -48 -19 9 -10 24
-56 33 -103 17 -91 29 -115 45 -87 7 13 30 18 99 24 74 5 88 9 79 20 -13 16
13 107 40 137 15 18 14 20 -8 38 -26 21 -54 22 -126 4z m61 -65 c-20 -102 -10
-92 -102 -104 l-41 -6 -7 46 c-12 90 -14 88 107 92 l49 2 -6 -30z"/>
<path d="M394 503 c3 -10 8 -35 11 -55 6 -33 5 -38 -16 -42 -43 -8 -217 -26
-258 -26 -51 0 -53 -16 -5 -36 32 -13 44 -13 107 0 40 8 96 18 125 21 l54 6
-4 -150 c-2 -114 0 -153 10 -163 11 -11 16 -10 28 6 11 15 14 54 14 162 l0
141 46 7 c26 3 103 6 171 6 135 0 151 8 80 43 -33 16 -46 18 -100 9 -34 -6
-93 -14 -130 -18 l-69 -7 8 48 c7 53 -1 65 -49 65 -22 0 -27 -4 -23 -17z"/>
<path d="M246 272 c-8 -16 -46 -58 -85 -95 -39 -37 -66 -67 -59 -67 32 1 104
44 159 96 56 54 58 58 43 76 -24 25 -41 23 -58 -10z"/>
<path d="M610 226 c74 -76 121 -111 134 -99 10 11 7 43 -9 73 -15 29 -108 82
-170 96 -27 6 -23 0 45 -70z"/>
</g>
</svg>
