<?xml version="1.0" standalone="no"?>
<!DOCTYPE svg PUBLIC "-//W3C//DTD SVG 20010904//EN"
 "http://www.w3.org/TR/2001/REC-SVG-20010904/DTD/svg10.dtd">
<svg version="1.0" xmlns="http://www.w3.org/2000/svg"
 width="96.000000pt" height="68.000000pt" viewBox="0 0 96.000000 68.000000"
 preserveAspectRatio="xMidYMid meet">
<metadata>
Created by potrace 1.16, written by Peter Selinger 2001-2019
</metadata>
<g transform="translate(0.000000,68.000000) scale(0.100000,-0.100000)"
fill="#000000" stroke="none">
<path d="M313 599 c3 -11 1 -33 -4 -49 -10 -26 -15 -29 -80 -35 -43 -4 -67
-11 -63 -17 4 -6 30 -8 65 -5 33 3 59 2 59 -1 0 -19 -44 -75 -94 -117 -31 -27
-54 -50 -52 -52 2 -3 26 7 53 21 50 25 115 93 133 140 7 19 17 26 35 26 15 0
25 6 25 15 0 9 -6 12 -15 9 -18 -7 -19 9 -4 38 9 18 8 24 -7 35 -29 21 -57 17
-51 -8z"/>
</g>
</svg>
