<?xml version="1.0" standalone="no"?>
<!DOCTYPE svg PUBLIC "-//W3C//DTD SVG 20010904//EN"
 "http://www.w3.org/TR/2001/REC-SVG-20010904/DTD/svg10.dtd">
<svg version="1.0" xmlns="http://www.w3.org/2000/svg"
 width="96.000000pt" height="68.000000pt" viewBox="0 0 96.000000 68.000000"
 preserveAspectRatio="xMidYMid meet">
<metadata>
Created by potrace 1.16, written by Peter Selinger 2001-2019
</metadata>
<g transform="translate(0.000000,68.000000) scale(0.100000,-0.100000)"
fill="#000000" stroke="none">
<path d="M559 603 c-1 -5 0 -23 1 -40 l2 -33 -51 0 c-27 0 -53 -4 -56 -10 -4
-6 15 -10 49 -10 56 0 56 0 56 -31 0 -39 23 -34 30 7 3 16 12 30 20 31 8 1 36
5 63 8 66 9 59 26 -10 23 -55 -3 -58 -2 -55 19 2 14 -4 26 -17 32 -23 13 -31
14 -32 4z"/>
<path d="M305 552 c-8 -51 -72 -148 -153 -234 -36 -37 -58 -68 -51 -68 21 0
91 50 132 95 l36 40 1 -90 c0 -50 -7 -116 -15 -148 -17 -64 -6 -107 26 -107
24 0 27 15 34 187 5 119 4 146 -9 164 -14 21 -13 26 29 86 25 35 45 68 45 72
0 12 -21 27 -47 35 -18 6 -22 2 -28 -32z"/>
<path d="M667 472 c-5 -26 -11 -30 -53 -36 -86 -11 -115 -8 -121 14 -4 13 -14
20 -30 20 -20 0 -22 -3 -14 -19 14 -25 5 -31 -46 -31 -24 0 -43 -4 -43 -10 0
-10 22 -13 77 -10 24 1 33 -4 38 -19 9 -29 25 -26 25 4 0 23 3 25 55 27 30 1
63 2 73 2 13 1 16 -6 14 -29 l-2 -30 28 33 c27 30 32 32 95 32 37 0 67 4 67 9
0 11 -36 21 -77 21 -26 0 -33 4 -33 20 0 11 -4 20 -9 20 -5 0 -16 2 -24 6 -10
3 -16 -4 -20 -24z"/>
<path d="M590 348 c-36 -5 -83 -10 -105 -11 l-40 -2 0 -100 0 -100 28 2 c15 1
27 -1 27 -5 -1 -16 -38 -54 -80 -82 -25 -17 -42 -30 -38 -30 17 0 96 36 142
64 43 26 47 31 32 42 -27 19 91 25 123 6 13 -7 27 -10 31 -5 4 4 10 53 12 109
6 132 6 132 -132 112z m80 -37 c0 -15 -11 -19 -61 -25 -107 -11 -129 -8 -129
13 0 21 21 25 138 29 45 2 52 -1 52 -17z m10 -61 c0 -16 -7 -20 -32 -20 -18 0
-63 -3 -100 -7 -64 -6 -68 -5 -68 15 0 18 7 21 58 25 141 9 142 8 142 -13z
m-2 -62 c-3 -22 -8 -23 -100 -26 -93 -3 -98 -2 -98 17 0 18 8 20 68 24 37 2
82 4 100 5 29 2 33 -1 30 -20z"/>
<path d="M630 106 c0 -10 40 -46 93 -85 28 -20 45 1 28 33 -15 26 -121 73
-121 52z"/>
</g>
</svg>
