<?xml version="1.0" standalone="no"?>
<!DOCTYPE svg PUBLIC "-//W3C//DTD SVG 20010904//EN"
 "http://www.w3.org/TR/2001/REC-SVG-20010904/DTD/svg10.dtd">
<svg version="1.0" xmlns="http://www.w3.org/2000/svg"
 width="96.000000pt" height="68.000000pt" viewBox="0 0 96.000000 68.000000"
 preserveAspectRatio="xMidYMid meet">
<metadata>
Created by potrace 1.16, written by Peter Selinger 2001-2019
</metadata>
<g transform="translate(0.000000,68.000000) scale(0.100000,-0.100000)"
fill="#000000" stroke="none">
<path d="M307 544 c-8 -45 -54 -119 -135 -211 -34 -40 -59 -73 -55 -73 14 0
56 31 105 78 l47 45 7 -28 c6 -24 -4 -134 -22 -245 -6 -40 17 -83 35 -65 6 6
14 80 19 165 9 143 8 156 -9 174 -17 18 -16 21 31 91 47 69 48 74 31 89 -29
26 -48 20 -54 -20z"/>
</g>
</svg>
