<?xml version="1.0" standalone="no"?>
<!DOCTYPE svg PUBLIC "-//W3C//DTD SVG 20010904//EN"
 "http://www.w3.org/TR/2001/REC-SVG-20010904/DTD/svg10.dtd">
<svg version="1.0" xmlns="http://www.w3.org/2000/svg"
 width="96.000000pt" height="68.000000pt" viewBox="0 0 96.000000 68.000000"
 preserveAspectRatio="xMidYMid meet">
<metadata>
Created by potrace 1.16, written by Peter Selinger 2001-2019
</metadata>
<g transform="translate(0.000000,68.000000) scale(0.100000,-0.100000)"
fill="#000000" stroke="none">
<path d="M515 543 c-9 -21 -28 -50 -42 -65 -36 -37 -23 -46 20 -14 24 18 46
26 75 26 46 0 50 -8 25 -48 -25 -38 -27 -39 -109 -47 -69 -6 -88 -15 -64 -30
16 -10 11 -88 -10 -158 -12 -39 -37 -86 -60 -116 -49 -62 -39 -66 19 -8 52 50
85 118 102 207 6 36 14 68 18 72 3 4 67 12 141 18 74 7 137 14 140 16 14 15
-34 25 -95 20 l-70 -5 48 44 c26 24 47 48 47 54 0 17 -38 23 -77 12 -21 -6
-46 -11 -56 -11 -17 0 -17 1 -1 26 15 22 15 27 3 35 -26 16 -39 9 -54 -28z"/>
<path d="M280 514 c-25 -8 -69 -14 -98 -12 -36 2 -52 -1 -52 -9 0 -7 4 -13 10
-13 5 0 17 -26 26 -57 20 -71 26 -78 53 -61 32 20 41 -2 41 -104 0 -69 -3 -88
-14 -88 -8 0 -21 -3 -30 -6 -14 -5 -16 4 -16 65 0 69 -1 71 -24 71 -25 0 -25
-1 -19 -70 l6 -70 -32 0 c-38 0 -40 -14 -6 -36 25 -16 30 -15 138 21 141 48
158 58 87 50 l-55 -6 3 46 c2 25 8 46 13 46 5 1 14 3 19 4 6 1 19 3 30 4 11 0
20 6 20 12 0 6 -15 9 -37 7 -37 -3 -38 -2 -38 32 0 29 4 36 25 41 14 3 24 11
22 18 -1 7 7 34 19 59 21 43 22 45 4 58 -23 17 -36 16 -95 -2z m26 -79 c-5
-18 -15 -26 -42 -31 -40 -7 -50 -1 -59 38 -7 28 -6 29 85 41 18 3 24 -16 16
-48z"/>
<path d="M610 314 c-25 -8 -56 -12 -70 -9 l-25 6 3 -106 3 -105 37 -25 c33
-22 47 -25 135 -25 73 0 104 4 122 16 25 17 33 48 15 59 -5 3 -10 15 -10 26 0
10 -4 19 -10 19 -5 0 -10 -8 -10 -18 0 -10 -10 -28 -23 -40 -20 -19 -35 -22
-104 -22 -105 0 -119 13 -116 108 1 37 8 71 15 78 7 7 32 16 56 19 l42 5 0
-46 c0 -44 -1 -46 -25 -42 -32 7 -32 -5 2 -31 24 -20 27 -20 45 -5 10 10 18
27 18 40 0 12 5 35 10 50 8 21 7 31 -6 45 -20 22 -42 22 -104 3z"/>
</g>
</svg>
