<?xml version="1.0" standalone="no"?>
<!DOCTYPE svg PUBLIC "-//W3C//DTD SVG 20010904//EN"
 "http://www.w3.org/TR/2001/REC-SVG-20010904/DTD/svg10.dtd">
<svg version="1.0" xmlns="http://www.w3.org/2000/svg"
 width="96.000000pt" height="68.000000pt" viewBox="0 0 96.000000 68.000000"
 preserveAspectRatio="xMidYMid meet">
<metadata>
Created by potrace 1.16, written by Peter Selinger 2001-2019
</metadata>
<g transform="translate(0.000000,68.000000) scale(0.100000,-0.100000)"
fill="#000000" stroke="none">
<path d="M595 204 c-6 -2 -8 -32 -5 -75 6 -81 16 -93 86 -104 79 -12 174 15
174 48 0 8 -9 31 -20 53 l-19 39 -1 -30 c-1 -53 -22 -69 -98 -73 -88 -5 -99 5
-83 79 9 41 9 54 -1 61 -14 8 -18 9 -33 2z"/>
</g>
</svg>
