<?xml version="1.0" standalone="no"?>
<!DOCTYPE svg PUBLIC "-//W3C//DTD SVG 20010904//EN"
 "http://www.w3.org/TR/2001/REC-SVG-20010904/DTD/svg10.dtd">
<svg version="1.0" xmlns="http://www.w3.org/2000/svg"
 width="96.000000pt" height="68.000000pt" viewBox="0 0 96.000000 68.000000"
 preserveAspectRatio="xMidYMid meet">
<metadata>
Created by potrace 1.16, written by Peter Selinger 2001-2019
</metadata>
<g transform="translate(0.000000,68.000000) scale(0.100000,-0.100000)"
fill="#000000" stroke="none">
<path d="M627 459 c-6 -45 -19 -59 -54 -59 -16 0 -23 8 -28 30 -6 28 -30 50
-55 50 -6 0 -2 -17 10 -40 l20 -40 -22 -4 c-13 -3 -41 -9 -63 -14 l-40 -10 45
-1 c44 -1 262 15 350 25 42 6 43 7 25 21 -12 8 -32 12 -50 9 -16 -3 -52 -8
-79 -12 l-49 -7 22 36 c24 39 21 57 -8 57 -14 0 -20 -10 -24 -41z"/>
</g>
</svg>
