<?xml version="1.0" standalone="no"?>
<!DOCTYPE svg PUBLIC "-//W3C//DTD SVG 20010904//EN"
 "http://www.w3.org/TR/2001/REC-SVG-20010904/DTD/svg10.dtd">
<svg version="1.0" xmlns="http://www.w3.org/2000/svg"
 width="90.000000pt" height="92.000000pt" viewBox="0 0 90.000000 92.000000"
 preserveAspectRatio="xMidYMid meet">
<metadata>
Created by potrace 1.16, written by Peter Selinger 2001-2019
</metadata>
<g transform="translate(0.000000,92.000000) scale(0.100000,-0.100000)"
fill="#000000" stroke="none">
<path d="M175 823 c3 -16 9 -74 12 -129 l5 -102 -70 -16 c-39 -9 -78 -16 -87
-16 -9 0 -15 -6 -12 -12 3 -9 28 -13 80 -13 46 1 77 -3 77 -9 0 -24 -84 -176
-130 -236 -53 -69 -60 -86 -32 -71 32 17 93 85 129 144 20 31 37 56 39 54 2
-1 -2 -50 -8 -107 -17 -157 -16 -216 4 -236 15 -15 17 -15 26 2 5 11 12 93 14
184 3 91 8 166 12 168 5 2 17 -10 27 -27 24 -40 52 -42 47 -4 -2 19 -16 36
-44 55 -38 26 -41 30 -35 64 5 33 11 38 46 48 45 13 58 40 23 49 -12 4 -33 4
-46 0 -24 -6 -24 -4 -19 43 20 167 21 158 -12 177 -42 25 -55 22 -46 -10z"/>
<path d="M509 796 c-2 -3 -51 -14 -109 -26 -58 -12 -107 -24 -110 -26 -7 -8
23 -24 46 -24 19 0 22 -8 28 -61 3 -34 6 -93 6 -130 l0 -69 -37 0 -37 0 29
-30 c16 -16 32 -30 36 -30 3 0 33 16 65 35 l59 36 8 -30 c9 -36 26 -49 38 -30
5 8 9 89 9 182 l0 167 30 0 c32 0 37 9 18 28 -11 11 -70 17 -79 8z m-17 -81
c4 -16 6 -30 5 -31 -1 0 -21 -4 -44 -8 l-43 -6 0 34 c0 30 4 35 28 39 40 6 45
3 54 -28z m8 -96 c0 -23 -4 -29 -22 -29 -13 0 -33 -3 -45 -6 -20 -6 -23 -3
-23 23 0 26 5 31 38 39 46 13 52 10 52 -27z m-8 -88 c-3 -23 -12 -33 -43 -45
-22 -9 -42 -16 -44 -16 -3 0 -5 17 -5 38 0 37 2 39 43 48 23 5 45 9 48 7 3 -1
4 -16 1 -32z"/>
<path d="M685 684 c-27 -7 -67 -14 -88 -14 -37 0 -37 -1 -23 -22 8 -13 19 -52
25 -87 11 -67 26 -95 39 -74 4 6 38 14 75 18 60 7 67 10 62 26 -4 11 5 40 19
69 28 56 26 72 -10 89 -30 13 -35 13 -99 -5z m51 -55 c-3 -17 -6 -42 -6 -55 0
-19 -8 -25 -41 -34 -23 -6 -42 -10 -44 -8 -1 2 -5 26 -9 55 -6 49 -5 52 21 61
16 6 41 11 57 11 27 1 28 -1 22 -30z"/>
<path d="M610 445 c-21 -25 -82 -58 -160 -88 l-75 -28 71 5 c69 4 72 4 76 -19
7 -36 -3 -44 -70 -56 -34 -6 -62 -15 -62 -20 0 -14 47 -22 95 -15 l45 7 0 -39
0 -40 -97 -7 c-135 -8 -136 -9 -140 -22 -8 -22 61 -35 124 -23 32 6 140 14
241 17 194 6 218 14 147 48 -31 14 -46 15 -105 6 -38 -6 -83 -11 -99 -11 -29
0 -31 2 -31 39 0 43 -4 40 93 57 20 3 40 10 43 15 9 15 -48 30 -89 23 -39 -6
-40 -6 -35 21 4 18 1 28 -10 33 -10 3 5 13 44 28 32 12 60 28 62 36 1 7 -11
21 -27 31 -25 15 -30 15 -41 2z"/>
</g>
</svg>
