<?xml version="1.0" standalone="no"?>
<!DOCTYPE svg PUBLIC "-//W3C//DTD SVG 20010904//EN"
 "http://www.w3.org/TR/2001/REC-SVG-20010904/DTD/svg10.dtd">
<svg version="1.0" xmlns="http://www.w3.org/2000/svg"
 width="96.000000pt" height="68.000000pt" viewBox="0 0 96.000000 68.000000"
 preserveAspectRatio="xMidYMid meet">
<metadata>
Created by potrace 1.16, written by Peter Selinger 2001-2019
</metadata>
<g transform="translate(0.000000,68.000000) scale(0.100000,-0.100000)"
fill="#000000" stroke="none">
<path d="M254 563 c4 -16 10 -56 13 -90 l5 -62 -38 -9 c-22 -6 -56 -13 -76
-17 -62 -10 -43 -25 32 -25 39 0 70 -3 70 -7 0 -5 -9 -19 -20 -33 -11 -14 -20
-30 -20 -36 0 -6 -31 -44 -69 -85 -38 -41 -65 -75 -61 -77 17 -6 75 32 121 80
l49 51 -5 -77 c-3 -43 -7 -81 -10 -86 -8 -13 16 -70 31 -70 25 0 34 39 34 155
l0 116 23 -27 c14 -16 29 -24 35 -20 22 13 12 36 -23 57 -51 30 -49 65 5 79
62 17 52 47 -14 40 -18 -2 -19 3 -13 73 6 72 6 74 -19 86 -43 19 -57 15 -50
-16z"/>
<path d="M463 532 c-93 -15 -117 -28 -65 -34 l27 -3 3 -92 3 -93 -32 0 c-26 0
-30 -2 -19 -15 21 -25 48 -27 91 -5 50 23 69 25 69 6 0 -7 6 -19 14 -25 21
-18 26 7 26 135 l0 114 31 0 c27 0 30 2 19 15 -15 18 -45 17 -167 -3z m77 -48
c0 -21 -4 -24 -41 -24 -33 0 -40 3 -35 16 3 9 6 19 6 24 0 11 29 17 53 12 10
-3 17 -14 17 -28z m0 -59 c0 -21 -5 -25 -30 -25 -16 0 -33 -1 -37 -2 -5 -2 -9
7 -11 19 -3 21 2 24 66 32 7 0 12 -10 12 -24z m-7 -85 c-4 -4 -23 -12 -41 -18
l-33 -11 3 32 c3 28 7 33 38 37 29 4 36 2 38 -14 2 -10 0 -22 -5 -26z"/>
<path d="M730 470 c-14 -4 -48 -8 -77 -9 l-52 -1 14 -27 c8 -14 17 -44 20 -65
6 -35 10 -39 29 -34 11 3 42 6 69 6 43 0 48 3 57 28 5 15 16 39 24 54 14 27
14 29 -14 43 -32 16 -34 17 -70 5z m26 -42 c-3 -13 -6 -31 -6 -40 0 -12 -11
-19 -36 -24 -41 -8 -54 4 -54 48 0 29 12 35 69 37 30 1 33 -1 27 -21z"/>
<path d="M615 279 c-16 -10 -52 -26 -80 -35 -68 -22 -72 -29 -17 -29 40 0 47
-3 50 -21 2 -17 -4 -23 -29 -28 -17 -3 -42 -6 -55 -6 -13 0 -24 -4 -24 -10 0
-5 25 -10 55 -10 52 0 55 -2 55 -24 0 -24 -3 -25 -100 -32 -55 -3 -103 -10
-105 -14 -10 -17 54 -20 190 -10 77 5 173 10 213 10 69 0 94 12 52 25 -12 4
-62 5 -113 3 -88 -3 -92 -2 -95 19 -4 25 15 37 71 47 57 11 47 30 -12 22 -48
-6 -49 -6 -53 23 -4 24 0 31 18 35 13 4 35 11 50 16 22 9 24 13 14 25 -17 20
-48 18 -85 -6z"/>
</g>
</svg>
