<?xml version="1.0" standalone="no"?>
<!DOCTYPE svg PUBLIC "-//W3C//DTD SVG 20010904//EN"
 "http://www.w3.org/TR/2001/REC-SVG-20010904/DTD/svg10.dtd">
<svg version="1.0" xmlns="http://www.w3.org/2000/svg"
 width="96.000000pt" height="68.000000pt" viewBox="0 0 96.000000 68.000000"
 preserveAspectRatio="xMidYMid meet">
<metadata>
Created by potrace 1.16, written by Peter Selinger 2001-2019
</metadata>
<g transform="translate(0.000000,68.000000) scale(0.100000,-0.100000)"
fill="#000000" stroke="none">
<path d="M430 300 c0 -5 4 -11 9 -14 15 -9 19 -55 6 -60 -7 -2 -76 -8 -154
-12 -135 -7 -171 -16 -115 -30 24 -6 95 -2 222 13 l53 6 -3 -59 c-3 -64 -9
-68 -68 -49 -20 6 -16 -1 20 -33 25 -23 50 -41 56 -42 24 0 37 33 42 105 4 68
7 75 26 76 11 0 39 1 61 3 22 1 79 3 128 4 92 2 110 13 52 32 -25 8 -64 8
-146 1 -61 -6 -115 -8 -120 -5 -5 3 -9 13 -9 23 0 10 -6 23 -12 28 -20 16 -48
23 -48 13z"/>
</g>
</svg>
