<?xml version="1.0" standalone="no"?>
<!DOCTYPE svg PUBLIC "-//W3C//DTD SVG 20010904//EN"
 "http://www.w3.org/TR/2001/REC-SVG-20010904/DTD/svg10.dtd">
<svg version="1.0" xmlns="http://www.w3.org/2000/svg"
 width="96.000000pt" height="68.000000pt" viewBox="0 0 96.000000 68.000000"
 preserveAspectRatio="xMidYMid meet">
<metadata>
Created by potrace 1.16, written by Peter Selinger 2001-2019
</metadata>
<g transform="translate(0.000000,68.000000) scale(0.100000,-0.100000)"
fill="#000000" stroke="none">
<path d="M520 395 c0 -3 7 -22 15 -42 8 -19 15 -37 15 -39 0 -2 -27 -6 -60
-10 -38 -4 -59 -11 -57 -18 4 -12 31 -13 92 -3 40 7 40 7 75 -49 48 -76 127
-149 179 -165 22 -7 44 -9 47 -6 4 3 1 20 -5 38 -6 18 -11 45 -11 60 0 38 -15
37 -29 -1 -6 -19 -17 -30 -28 -30 -32 0 -143 128 -143 165 0 3 21 6 48 6 26 1
61 4 77 8 l30 7 -24 13 c-22 12 -50 11 -118 -6 -18 -4 -23 -1 -23 16 0 27 -34
61 -60 61 -11 0 -20 -2 -20 -5z"/>
</g>
</svg>
