<?xml version="1.0" standalone="no"?>
<!DOCTYPE svg PUBLIC "-//W3C//DTD SVG 20010904//EN"
 "http://www.w3.org/TR/2001/REC-SVG-20010904/DTD/svg10.dtd">
<svg version="1.0" xmlns="http://www.w3.org/2000/svg"
 width="96.000000pt" height="68.000000pt" viewBox="0 0 96.000000 68.000000"
 preserveAspectRatio="xMidYMid meet">
<metadata>
Created by potrace 1.16, written by Peter Selinger 2001-2019
</metadata>
<g transform="translate(0.000000,68.000000) scale(0.100000,-0.100000)"
fill="#000000" stroke="none">
<path d="M656 541 c-3 -4 -8 -31 -12 -59 -6 -49 -8 -52 -36 -52 -17 0 -27 -4
-23 -10 3 -5 15 -10 26 -10 20 0 26 -15 10 -24 -12 -8 -21 -46 -11 -46 4 0 17
16 29 35 23 40 25 41 104 50 72 8 75 27 5 25 -29 -1 -56 -1 -61 -1 -4 1 0 15
8 32 9 17 14 37 12 44 -6 14 -45 27 -51 16z"/>
<path d="M415 511 c-2 -5 4 -25 15 -47 23 -43 17 -55 -29 -56 -34 -1 -39 -9
-16 -28 12 -10 21 -10 41 -1 33 15 33 15 46 -16 l12 -28 4 33 c2 23 11 36 28
44 33 15 30 25 -6 20 -26 -4 -30 -1 -30 20 0 41 -48 85 -65 59z"/>
<path d="M240 470 c-14 -4 -47 -8 -74 -9 -42 -1 -47 -3 -40 -18 5 -10 9 -84 9
-165 0 -112 3 -150 14 -160 11 -10 14 -10 18 0 3 7 23 12 53 12 38 0 51 -4 63
-23 l15 -22 22 21 c19 19 21 33 25 185 2 103 -1 169 -7 177 -11 13 -59 14 -98
2z m50 -70 c0 -37 -2 -40 -27 -40 -16 0 -38 -3 -50 -6 -21 -6 -23 -3 -23 33 0
22 3 43 7 46 3 4 26 7 50 7 l43 0 0 -40z m0 -102 l0 -33 -56 -2 c-54 -2 -56
-2 -50 20 3 12 6 25 6 29 0 9 27 15 68 17 30 1 32 -1 32 -31z m2 -80 c8 -46
-1 -58 -42 -58 -21 0 -46 -3 -55 -6 -14 -6 -16 0 -13 32 3 36 6 39 38 45 61
11 68 10 72 -13z"/>
<path d="M630 303 c-52 -7 -134 -14 -181 -15 l-86 -3 13 -30 c6 -16 17 -63 23
-104 13 -84 18 -96 34 -82 7 5 59 11 115 13 98 3 105 2 122 -20 10 -12 23 -22
29 -22 18 0 49 59 56 109 4 25 14 65 22 89 25 74 1 84 -147 65z m88 -55 l3
-38 -43 0 c-24 0 -53 -3 -65 -6 -21 -6 -23 -3 -23 34 0 37 3 41 28 45 15 2 43
4 62 3 33 -1 35 -3 38 -38z m-178 -12 c0 -39 -12 -46 -74 -46 -41 0 -42 1 -44
34 -3 39 5 43 76 45 41 1 42 1 42 -33z m174 -54 c2 -4 -2 -22 -9 -40 -13 -31
-16 -32 -69 -32 l-56 0 4 33 c3 31 5 32 57 38 30 3 57 6 61 7 4 1 9 -1 12 -6z
m-166 -41 c5 -30 -12 -41 -65 -41 -43 0 -43 0 -43 36 l0 35 53 -3 c46 -3 52
-6 55 -27z"/>
</g>
</svg>
