<?xml version="1.0" standalone="no"?>
<!DOCTYPE svg PUBLIC "-//W3C//DTD SVG 20010904//EN"
 "http://www.w3.org/TR/2001/REC-SVG-20010904/DTD/svg10.dtd">
<svg version="1.0" xmlns="http://www.w3.org/2000/svg"
 width="96.000000pt" height="68.000000pt" viewBox="0 0 96.000000 68.000000"
 preserveAspectRatio="xMidYMid meet">
<metadata>
Created by potrace 1.16, written by Peter Selinger 2001-2019
</metadata>
<g transform="translate(0.000000,68.000000) scale(0.100000,-0.100000)"
fill="#000000" stroke="none">
<path d="M211 425 c-41 -7 -82 -10 -92 -8 -15 4 -17 -2 -16 -43 1 -27 -1 -62
-5 -79 -5 -16 -4 -37 2 -45 17 -26 32 4 38 75 6 77 16 85 103 85 l50 0 -3 -67
c-3 -66 -4 -68 -28 -65 l-25 4 27 -28 c26 -27 29 -27 45 -11 11 11 20 43 25
94 6 67 5 80 -9 91 -9 6 -22 11 -27 11 -6 -1 -44 -7 -85 -14z"/>
</g>
</svg>
