<?xml version="1.0" standalone="no"?>
<!DOCTYPE svg PUBLIC "-//W3C//DTD SVG 20010904//EN"
 "http://www.w3.org/TR/2001/REC-SVG-20010904/DTD/svg10.dtd">
<svg version="1.0" xmlns="http://www.w3.org/2000/svg"
 width="96.000000pt" height="68.000000pt" viewBox="0 0 96.000000 68.000000"
 preserveAspectRatio="xMidYMid meet">
<metadata>
Created by potrace 1.16, written by Peter Selinger 2001-2019
</metadata>
<g transform="translate(0.000000,68.000000) scale(0.100000,-0.100000)"
fill="#000000" stroke="none">
<path d="M538 566 c4 -46 -4 -53 -68 -57 -16 -1 -10 -4 15 -8 35 -5 40 -9 40
-33 0 -15 3 -28 8 -28 4 0 11 0 16 0 4 0 12 15 17 33 9 29 14 32 51 35 l42 3
-6 -35 c-5 -30 -3 -34 13 -30 11 3 29 21 41 40 22 34 22 34 2 45 -12 6 -41 8
-74 4 l-54 -7 12 31 c13 35 1 51 -38 51 -18 0 -20 -5 -17 -44z"/>
</g>
</svg>
