<?xml version="1.0" standalone="no"?>
<!DOCTYPE svg PUBLIC "-//W3C//DTD SVG 20010904//EN"
 "http://www.w3.org/TR/2001/REC-SVG-20010904/DTD/svg10.dtd">
<svg version="1.0" xmlns="http://www.w3.org/2000/svg"
 width="96.000000pt" height="68.000000pt" viewBox="0 0 96.000000 68.000000"
 preserveAspectRatio="xMidYMid meet">
<metadata>
Created by potrace 1.16, written by Peter Selinger 2001-2019
</metadata>
<g transform="translate(0.000000,68.000000) scale(0.100000,-0.100000)"
fill="#000000" stroke="none">
<path d="M468 243 c4 -132 10 -144 82 -160 44 -10 166 -10 202 0 38 10 62 36
48 52 -6 7 -16 32 -23 56 l-13 44 -12 -48 c-11 -42 -18 -50 -50 -64 -26 -11
-56 -14 -102 -10 -77 6 -100 27 -100 91 l0 42 71 18 c125 32 139 37 139 47 0
5 -11 14 -24 20 -20 9 -30 8 -53 -8 -31 -22 -108 -63 -119 -63 -4 0 -4 18 0
40 6 37 4 41 -20 50 -14 6 -26 10 -27 10 -1 0 -1 -53 1 -117z"/>
</g>
</svg>
