<?xml version="1.0" standalone="no"?>
<!DOCTYPE svg PUBLIC "-//W3C//DTD SVG 20010904//EN"
 "http://www.w3.org/TR/2001/REC-SVG-20010904/DTD/svg10.dtd">
<svg version="1.0" xmlns="http://www.w3.org/2000/svg"
 width="90.000000pt" height="92.000000pt" viewBox="0 0 90.000000 92.000000"
 preserveAspectRatio="xMidYMid meet">
<metadata>
Created by potrace 1.16, written by Peter Selinger 2001-2019
</metadata>
<g transform="translate(0.000000,92.000000) scale(0.100000,-0.100000)"
fill="#000000" stroke="none">
<path d="M246 808 c-3 -7 -7 -26 -11 -42 -3 -15 -13 -39 -22 -52 -14 -22 -18
-23 -32 -10 -22 19 -102 58 -108 53 -2 -3 21 -24 51 -47 31 -23 56 -45 56 -47
0 -3 -35 -41 -77 -84 -42 -44 -73 -79 -69 -79 19 0 93 46 131 81 24 22 45 36
48 32 3 -4 8 -28 12 -53 6 -42 3 -50 -34 -106 -40 -60 -106 -128 -166 -171
-45 -32 -27 -36 35 -7 35 16 76 47 113 86 l57 61 0 -39 c-1 -68 -20 -177 -36
-202 -14 -21 -20 -23 -57 -17 l-42 7 20 -23 c59 -72 68 -78 86 -68 31 16 59
84 70 171 15 110 7 300 -16 355 l-17 42 30 44 c17 24 37 49 46 56 20 16 10 38
-25 56 -34 18 -39 18 -43 3z"/>
<path d="M589 786 c-2 -2 -37 -11 -77 -19 -64 -13 -78 -14 -107 -1 -42 17 -49
8 -34 -50 14 -56 7 -529 -8 -566 -12 -29 -1 -68 22 -76 10 -4 43 20 98 72 45
43 84 82 86 87 2 4 -29 -8 -68 -27 -39 -20 -75 -36 -80 -36 -11 0 -2 291 10
304 4 5 47 10 95 12 65 2 89 6 96 17 4 9 22 69 39 134 l30 118 -21 17 c-20 16
-70 25 -81 14z m21 -70 c0 -52 -7 -63 -39 -58 -15 2 -52 -3 -81 -12 -29 -9
-55 -14 -57 -13 -2 2 0 24 3 50 6 45 7 45 53 55 25 5 63 10 84 11 36 1 37 0
37 -33z m-14 -117 c-3 -17 -6 -39 -6 -49 0 -14 -12 -19 -57 -25 -32 -3 -68 -9
-80 -12 -21 -5 -23 -2 -23 39 l0 44 68 16 c103 24 106 23 98 -13z"/>
<path d="M630 419 c-23 -32 -46 -59 -49 -59 -3 0 -24 14 -45 30 -35 27 -66 38
-66 25 0 -2 26 -30 58 -62 31 -32 83 -90 114 -130 80 -101 90 -106 167 -91 34
7 61 18 60 23 -1 6 -37 25 -80 43 -51 22 -98 53 -139 89 l-61 56 68 39 c83 49
79 44 63 63 -33 40 -45 36 -90 -26z"/>
</g>
</svg>
