<?xml version="1.0" standalone="no"?>
<!DOCTYPE svg PUBLIC "-//W3C//DTD SVG 20010904//EN"
 "http://www.w3.org/TR/2001/REC-SVG-20010904/DTD/svg10.dtd">
<svg version="1.0" xmlns="http://www.w3.org/2000/svg"
 width="96.000000pt" height="68.000000pt" viewBox="0 0 96.000000 68.000000"
 preserveAspectRatio="xMidYMid meet">
<metadata>
Created by potrace 1.16, written by Peter Selinger 2001-2019
</metadata>
<g transform="translate(0.000000,68.000000) scale(0.100000,-0.100000)"
fill="#000000" stroke="none">
<path d="M430 625 c-16 -30 -64 -65 -150 -109 -69 -36 -80 -46 -51 -46 52 0
301 120 301 145 0 18 -7 22 -50 30 -32 6 -37 3 -50 -20z"/>
<path d="M480 547 c0 -27 -70 -93 -134 -127 -102 -54 -80 -77 54 -58 42 6 44
6 25 -9 -11 -8 -55 -32 -98 -52 -75 -37 -77 -38 -58 -55 19 -17 24 -17 84 -2
111 28 107 30 107 -75 l0 -91 -32 7 -33 7 20 -22 c64 -72 88 -46 93 98 l4 108
50 11 c48 10 52 9 80 -18 31 -31 43 -35 53 -19 18 29 -34 80 -100 96 -27 7
-29 6 -16 -10 8 -9 12 -18 10 -20 -5 -5 -243 -36 -247 -32 -3 4 29 19 113 56
28 11 78 33 112 48 66 28 80 52 44 72 -26 14 -22 15 -70 -30 l-42 -40 -82 0
-82 0 45 29 c25 16 73 47 108 69 59 36 62 40 47 56 -20 19 -55 21 -55 3z"/>
<path d="M647 149 c63 -61 83 -67 83 -24 0 24 -29 50 -83 73 -62 27 -62 12 0
-49z"/>
<path d="M264 163 c-16 -21 -37 -46 -47 -56 -30 -30 -12 -32 35 -4 81 47 105
78 72 91 -26 10 -30 8 -60 -31z"/>
</g>
</svg>
