<?xml version="1.0" standalone="no"?>
<!DOCTYPE svg PUBLIC "-//W3C//DTD SVG 20010904//EN"
 "http://www.w3.org/TR/2001/REC-SVG-20010904/DTD/svg10.dtd">
<svg version="1.0" xmlns="http://www.w3.org/2000/svg"
 width="96.000000pt" height="68.000000pt" viewBox="0 0 96.000000 68.000000"
 preserveAspectRatio="xMidYMid meet">
<metadata>
Created by potrace 1.16, written by Peter Selinger 2001-2019
</metadata>
<g transform="translate(0.000000,68.000000) scale(0.100000,-0.100000)"
fill="#000000" stroke="none">
<path d="M264 218 c1 -42 0 -43 -32 -46 -31 -3 -33 -2 -22 18 12 23 6 40 -16
40 -8 0 -14 -9 -14 -20 0 -11 -6 -29 -12 -40 -17 -27 1 -46 30 -31 27 15 55
14 50 -1 -3 -7 -27 -27 -54 -46 -31 -22 -40 -32 -24 -27 47 14 79 35 107 70
27 34 65 46 78 25 15 -24 36 -2 49 51 5 23 2 27 -19 31 -22 5 -25 2 -25 -27 0
-28 -4 -32 -24 -32 -21 0 -25 5 -28 36 -2 28 -8 37 -24 39 -18 3 -21 -2 -20
-40z"/>
</g>
</svg>
