<?xml version="1.0" standalone="no"?>
<!DOCTYPE svg PUBLIC "-//W3C//DTD SVG 20010904//EN"
 "http://www.w3.org/TR/2001/REC-SVG-20010904/DTD/svg10.dtd">
<svg version="1.0" xmlns="http://www.w3.org/2000/svg"
 width="90.000000pt" height="92.000000pt" viewBox="0 0 90.000000 92.000000"
 preserveAspectRatio="xMidYMid meet">
<metadata>
Created by potrace 1.16, written by Peter Selinger 2001-2019
</metadata>
<g transform="translate(0.000000,92.000000) scale(0.100000,-0.100000)"
fill="#000000" stroke="none">
<path d="M495 863 c-72 -18 -131 -25 -211 -26 l-111 -2 19 -25 c10 -14 25 -65
34 -115 16 -94 29 -122 48 -106 6 4 32 11 58 13 l48 6 -18 -30 c-19 -33 -98
-98 -119 -98 -17 0 -17 -25 1 -43 13 -12 22 -12 68 -1 29 8 59 14 68 14 19 -1
-113 -85 -157 -102 -35 -13 -43 -37 -18 -58 12 -10 32 -8 100 9 47 12 90 19
95 16 6 -3 10 -49 10 -102 l0 -95 -40 4 -40 4 47 -48 c26 -27 48 -48 50 -48 1
0 9 12 16 28 19 36 31 262 15 262 -30 0 9 14 69 26 l67 12 33 -29 c19 -16 38
-29 42 -29 18 0 20 32 6 66 -14 35 -76 73 -118 74 -17 0 -17 -2 2 -29 l21 -28
-93 -12 c-50 -7 -121 -14 -157 -17 l-65 -4 148 72 c81 40 147 77 147 84 0 6
-9 22 -20 35 l-20 24 -36 -42 -36 -43 -81 0 -82 0 78 46 c78 47 87 57 65 70
-9 6 -5 10 12 15 42 12 129 10 150 -3 13 -8 23 -9 29 -3 8 8 54 134 82 224 4
16 -66 61 -91 60 -8 -1 -60 -13 -115 -26z m115 -69 c0 -43 -1 -45 -22 -37 -25
8 -78 8 -116 -2 -22 -5 -23 -3 -20 32 3 36 5 38 43 44 22 3 57 7 78 8 l37 1 0
-46z m-210 -13 c0 -37 0 -37 -77 -45 l-63 -7 0 35 c0 38 6 40 103 44 35 2 37
0 37 -27z m196 -83 c-3 -17 -7 -32 -9 -33 -1 -1 -32 -5 -69 -8 l-68 -6 0 34
c0 33 2 34 43 38 113 10 110 10 103 -25z m-196 -22 c0 -33 0 -34 -56 -41 -31
-4 -57 -5 -58 -3 -2 2 -6 17 -9 35 -6 32 -6 32 41 36 26 2 55 4 65 5 13 2 17
-6 17 -32z"/>
<path d="M616 199 c64 -80 82 -98 101 -99 20 0 26 46 11 77 -13 29 -88 75
-142 89 -28 7 -27 4 30 -67z"/>
<path d="M204 208 c-10 -22 -31 -58 -46 -80 -16 -21 -26 -38 -23 -38 22 0 88
46 115 80 31 39 32 42 15 60 -27 29 -40 25 -61 -22z"/>
</g>
</svg>
