<?xml version="1.0" standalone="no"?>
<!DOCTYPE svg PUBLIC "-//W3C//DTD SVG 20010904//EN"
 "http://www.w3.org/TR/2001/REC-SVG-20010904/DTD/svg10.dtd">
<svg version="1.0" xmlns="http://www.w3.org/2000/svg"
 width="96.000000pt" height="68.000000pt" viewBox="0 0 96.000000 68.000000"
 preserveAspectRatio="xMidYMid meet">
<metadata>
Created by potrace 1.16, written by Peter Selinger 2001-2019
</metadata>
<g transform="translate(0.000000,68.000000) scale(0.100000,-0.100000)"
fill="#000000" stroke="none">
<path d="M583 170 c-5 -17 -14 -20 -67 -20 -33 0 -85 -3 -113 -6 -45 -6 -53
-4 -53 10 0 10 -8 16 -21 16 -15 0 -20 -5 -17 -22 3 -23 4 -23 139 -19 96 2
139 0 144 -8 11 -20 35 8 35 40 0 23 -5 29 -21 29 -12 0 -23 -8 -26 -20z"/>
</g>
</svg>
