<?xml version="1.0" standalone="no"?>
<!DOCTYPE svg PUBLIC "-//W3C//DTD SVG 20010904//EN"
 "http://www.w3.org/TR/2001/REC-SVG-20010904/DTD/svg10.dtd">
<svg version="1.0" xmlns="http://www.w3.org/2000/svg"
 width="96.000000pt" height="68.000000pt" viewBox="0 0 96.000000 68.000000"
 preserveAspectRatio="xMidYMid meet">
<metadata>
Created by potrace 1.16, written by Peter Selinger 2001-2019
</metadata>
<g transform="translate(0.000000,68.000000) scale(0.100000,-0.100000)"
fill="#000000" stroke="none">
<path d="M650 345 c0 -18 -5 -25 -19 -25 -10 0 -33 -3 -50 -6 -28 -6 -31 -4
-31 19 0 20 -4 24 -20 20 -13 -3 -20 -14 -20 -29 0 -21 -5 -24 -35 -25 -19 -1
-39 -3 -45 -4 -5 -1 -13 -3 -17 -4 -5 -1 -1 -6 7 -11 8 -6 32 -7 54 -4 l38 6
-7 -33 c-10 -46 -29 -82 -66 -124 -42 -47 -16 -45 32 3 27 27 43 56 56 100 18
61 18 62 56 63 20 1 42 2 49 3 8 1 11 -36 12 -126 1 -118 6 -151 23 -135 4 4
10 64 15 134 4 69 9 128 12 130 2 2 38 7 80 10 42 3 76 9 76 14 0 15 -42 21
-101 14 -55 -7 -59 -6 -59 14 0 14 -6 21 -20 21 -15 0 -20 -7 -20 -25z"/>
</g>
</svg>
