<?xml version="1.0" standalone="no"?>
<!DOCTYPE svg PUBLIC "-//W3C//DTD SVG 20010904//EN"
 "http://www.w3.org/TR/2001/REC-SVG-20010904/DTD/svg10.dtd">
<svg version="1.0" xmlns="http://www.w3.org/2000/svg"
 width="96.000000pt" height="68.000000pt" viewBox="0 0 96.000000 68.000000"
 preserveAspectRatio="xMidYMid meet">
<metadata>
Created by potrace 1.16, written by Peter Selinger 2001-2019
</metadata>
<g transform="translate(0.000000,68.000000) scale(0.100000,-0.100000)"
fill="#000000" stroke="none">
<path d="M600 243 c0 -6 -3 -19 -7 -29 -5 -12 -3 -15 6 -9 10 6 11 3 3 -11
-12 -25 -6 -112 9 -130 7 -8 18 -13 26 -10 8 3 11 1 8 -4 -3 -6 4 -11 17 -11
78 -4 96 -3 92 3 -3 4 9 5 27 1 23 -4 30 -3 25 5 -4 7 -1 12 8 12 23 0 29 19
15 51 -8 21 -14 26 -20 18 -4 -7 -3 -22 3 -32 6 -11 6 -17 0 -13 -11 6 -62
-15 -62 -26 0 -5 -12 -8 -27 -7 -25 0 -26 1 -8 9 15 6 9 9 -25 9 -78 0 -77 -2
-73 44 1 23 5 52 8 64 3 13 5 26 4 29 0 4 4 10 11 14 8 5 6 11 -5 20 -12 10
-15 10 -15 -1 0 -11 -2 -11 -10 1 -6 9 -10 10 -10 3z"/>
</g>
</svg>
