<?xml version="1.0" standalone="no"?>
<!DOCTYPE svg PUBLIC "-//W3C//DTD SVG 20010904//EN"
 "http://www.w3.org/TR/2001/REC-SVG-20010904/DTD/svg10.dtd">
<svg version="1.0" xmlns="http://www.w3.org/2000/svg"
 width="90.000000pt" height="92.000000pt" viewBox="0 0 90.000000 92.000000"
 preserveAspectRatio="xMidYMid meet">
<metadata>
Created by potrace 1.16, written by Peter Selinger 2001-2019
</metadata>
<g transform="translate(0.000000,92.000000) scale(0.100000,-0.100000)"
fill="#000000" stroke="none">
<path d="M591 872 c-25 -14 -83 -41 -130 -59 -73 -27 -81 -32 -52 -33 32 0
291 48 300 56 7 6 -22 35 -48 49 -24 12 -31 10 -70 -13z"/>
<path d="M658 713 l-38 -75 28 18 c15 9 48 36 75 58 l47 41 -21 18 c-37 30
-52 21 -91 -60z"/>
<path d="M145 719 c9 -93 15 -298 8 -302 -5 -3 -23 -8 -42 -12 l-34 -7 5 66
c5 60 4 66 -18 81 -13 8 -27 15 -31 15 -13 0 -10 -207 3 -220 8 -8 20 -6 45 9
29 17 167 61 191 61 5 0 8 -11 8 -24 0 -32 16 -42 29 -18 8 15 25 115 34 197
1 12 -8 24 -26 33 -34 16 -51 8 -37 -18 11 -21 13 -63 4 -109 -5 -25 -12 -32
-41 -37 -19 -4 -36 -4 -38 -2 -3 2 0 71 5 154 4 82 5 152 1 156 -3 4 -21 11
-39 14 l-32 6 5 -43z"/>
<path d="M500 734 c25 -71 80 -99 80 -41 0 28 -25 53 -62 62 -27 7 -27 6 -18
-21z"/>
<path d="M370 712 c0 -20 53 -82 70 -82 41 0 38 59 -5 78 -29 14 -65 16 -65 4z"/>
<path d="M685 631 c-19 -8 -200 -38 -259 -43 -16 -2 -31 -9 -34 -15 -3 -10 13
-13 56 -13 53 0 60 -2 66 -22 14 -53 11 -55 -79 -63 -47 -4 -85 -11 -85 -16 0
-20 52 -30 108 -19 31 5 60 10 64 10 5 0 8 -19 6 -42 l-3 -43 -72 -8 c-40 -5
-73 -13 -73 -18 0 -15 48 -22 101 -15 l49 7 0 -54 c0 -30 -3 -75 -6 -101 l-7
-46 -44 0 -45 0 45 -45 c25 -25 50 -45 56 -45 6 0 19 12 28 27 15 22 18 47 17
143 -1 75 2 118 10 122 6 4 41 8 79 8 60 0 82 9 58 24 -5 4 -4 26 3 53 12 48
13 48 57 51 24 1 55 5 68 8 22 5 23 6 6 24 -12 14 -31 20 -58 20 -36 0 -39 2
-33 24 3 13 9 31 12 40 4 10 -5 22 -28 36 -37 22 -35 22 -63 11z m13 -83 c3
-39 8 -37 -90 -53 l-36 -6 3 43 c3 42 3 43 46 49 69 10 74 8 77 -33z m-25
-123 c-13 -39 -19 -45 -43 -45 -16 0 -35 -3 -44 -6 -13 -5 -16 2 -16 39 l0 46
58 4 c31 2 58 4 59 5 1 1 -5 -18 -14 -43z"/>
</g>
</svg>
