<?xml version="1.0" standalone="no"?>
<!DOCTYPE svg PUBLIC "-//W3C//DTD SVG 20010904//EN"
 "http://www.w3.org/TR/2001/REC-SVG-20010904/DTD/svg10.dtd">
<svg version="1.0" xmlns="http://www.w3.org/2000/svg"
 width="96.000000pt" height="68.000000pt" viewBox="0 0 96.000000 68.000000"
 preserveAspectRatio="xMidYMid meet">
<metadata>
Created by potrace 1.16, written by Peter Selinger 2001-2019
</metadata>
<g transform="translate(0.000000,68.000000) scale(0.100000,-0.100000)"
fill="#000000" stroke="none">
<path d="M547 403 c-14 -4 -17 -11 -12 -32 6 -27 4 -28 -41 -35 -26 -3 -60 -6
-76 -6 -19 0 -27 -4 -22 -11 4 -8 29 -9 75 -5 l69 7 0 -116 0 -117 -35 4 -35
4 32 -33 c39 -41 53 -41 72 -4 12 23 14 54 10 149 l-5 120 130 7 c72 4 131 11
131 16 0 18 -57 22 -135 11 -111 -16 -127 -16 -124 6 2 28 0 42 -8 41 -5 -1
-16 -3 -26 -6z"/>
</g>
</svg>
