<?xml version="1.0" standalone="no"?>
<!DOCTYPE svg PUBLIC "-//W3C//DTD SVG 20010904//EN"
 "http://www.w3.org/TR/2001/REC-SVG-20010904/DTD/svg10.dtd">
<svg version="1.0" xmlns="http://www.w3.org/2000/svg"
 width="96.000000pt" height="68.000000pt" viewBox="0 0 96.000000 68.000000"
 preserveAspectRatio="xMidYMid meet">
<metadata>
Created by potrace 1.16, written by Peter Selinger 2001-2019
</metadata>
<g transform="translate(0.000000,68.000000) scale(0.100000,-0.100000)"
fill="#000000" stroke="none">
<path d="M558 433 c-150 -19 -175 -39 -35 -29 50 3 112 9 136 13 l44 6 -6 -39
c-3 -21 -12 -55 -21 -75 l-15 -36 -120 -13 c-160 -17 -148 -34 18 -25 145 8
162 11 155 30 -3 7 8 46 25 86 17 40 27 77 23 81 -16 16 -78 16 -204 1z"/>
</g>
</svg>
