<?xml version="1.0" standalone="no"?>
<!DOCTYPE svg PUBLIC "-//W3C//DTD SVG 20010904//EN"
 "http://www.w3.org/TR/2001/REC-SVG-20010904/DTD/svg10.dtd">
<svg version="1.0" xmlns="http://www.w3.org/2000/svg"
 width="90.000000pt" height="92.000000pt" viewBox="0 0 90.000000 92.000000"
 preserveAspectRatio="xMidYMid meet">
<metadata>
Created by potrace 1.16, written by Peter Selinger 2001-2019
</metadata>
<g transform="translate(0.000000,92.000000) scale(0.100000,-0.100000)"
fill="#000000" stroke="none">
<path d="M207 803 c4 -21 8 -92 8 -157 l0 -120 -75 -13 c-41 -7 -90 -15 -108
-18 -40 -7 -41 -19 -3 -35 24 -10 43 -8 108 7 64 16 79 17 81 6 2 -8 -2 -69
-9 -136 -18 -170 -18 -223 3 -243 15 -15 17 -15 26 2 7 15 21 247 22 386 0 13
14 18 65 23 44 5 65 12 65 20 0 20 -34 27 -86 19 l-47 -7 7 99 c4 55 10 115
13 136 5 33 2 38 -25 52 -47 24 -54 21 -45 -21z"/>
<path d="M677 833 c-4 -3 -7 -13 -7 -22 0 -9 -16 -42 -35 -73 -19 -32 -31 -58
-26 -58 12 0 136 110 139 124 1 7 -9 18 -23 24 -30 14 -39 15 -48 5z"/>
<path d="M430 778 c0 -7 17 -33 39 -58 34 -40 40 -43 55 -31 23 19 17 50 -14
72 -34 23 -80 33 -80 17z"/>
<path d="M335 703 c-4 -16 -15 -47 -26 -71 -17 -39 -18 -42 -2 -33 10 6 36 26
58 44 35 31 38 36 26 51 -8 10 -22 21 -32 27 -15 8 -19 5 -24 -18z"/>
<path d="M70 662 c0 -5 14 -28 30 -50 29 -41 61 -54 75 -31 12 18 -5 59 -28
68 -42 16 -77 21 -77 13z"/>
<path d="M541 619 c-57 -10 -106 -21 -109 -24 -11 -11 11 -19 56 -20 l47 0 6
-43 c6 -45 5 -46 -59 -54 -42 -5 -28 -23 21 -26 l47 -3 0 -38 c0 -43 -2 -44
-103 -56 -66 -8 -78 -18 -39 -34 21 -9 45 -8 102 3 41 8 121 18 178 22 56 4
102 11 102 15 0 5 -11 16 -25 25 -21 14 -34 15 -88 5 -35 -6 -67 -11 -70 -11
-4 0 -7 17 -7 39 0 41 13 50 70 51 14 0 32 5 40 10 26 17 -9 32 -62 26 l-47
-5 2 42 c2 46 12 55 67 56 41 1 65 14 56 30 -10 15 -62 12 -185 -10z"/>
<path d="M141 393 c-12 -33 -64 -119 -118 -192 l-17 -24 29 16 c44 22 89 73
129 146 28 49 34 67 25 77 -19 23 -34 16 -48 -23z"/>
<path d="M300 390 c37 -46 60 -52 60 -14 0 19 -8 28 -35 40 -54 22 -59 17 -25
-26z"/>
<path d="M710 277 c0 -4 64 -78 97 -114 28 -30 51 -29 59 1 9 36 -10 61 -68
90 -45 22 -88 34 -88 23z"/>
<path d="M338 210 c-28 -62 -27 -100 2 -100 31 0 61 99 44 144 -10 26 -18 19
-46 -44z"/>
<path d="M588 233 c46 -64 92 -81 92 -33 0 24 -53 60 -88 60 l-23 0 19 -27z"/>
<path d="M450 245 c0 -12 40 -84 51 -90 17 -11 32 11 25 39 -7 27 -76 73 -76
51z"/>
</g>
</svg>
