<?xml version="1.0" standalone="no"?>
<!DOCTYPE svg PUBLIC "-//W3C//DTD SVG 20010904//EN"
 "http://www.w3.org/TR/2001/REC-SVG-20010904/DTD/svg10.dtd">
<svg version="1.0" xmlns="http://www.w3.org/2000/svg"
 width="90.000000pt" height="92.000000pt" viewBox="0 0 90.000000 92.000000"
 preserveAspectRatio="xMidYMid meet">
<metadata>
Created by potrace 1.16, written by Peter Selinger 2001-2019
</metadata>
<g transform="translate(0.000000,92.000000) scale(0.100000,-0.100000)"
fill="#000000" stroke="none">
<path d="M252 750 c-1 -87 -22 -179 -42 -190 -9 -5 -47 -12 -84 -16 -36 -4
-66 -10 -66 -14 0 -4 11 -12 23 -19 20 -10 33 -10 77 3 29 9 54 15 56 13 1 -1
-8 -33 -20 -72 -28 -89 -88 -203 -148 -282 -62 -83 -37 -84 43 -3 65 66 135
197 165 308 19 67 31 77 90 70 l29 -3 -2 -68 c-4 -117 -52 -269 -89 -284 -8
-3 -25 2 -39 11 -31 20 -31 19 1 -43 32 -61 50 -64 93 -16 35 40 54 100 76
240 9 55 23 114 32 132 17 37 13 47 -28 68 -28 15 -64 12 -123 -11 -10 -4 -9
13 6 73 34 139 34 130 0 147 -17 9 -35 16 -40 16 -5 0 -10 -27 -10 -60z"/>
<path d="M685 558 c-30 -13 -79 -22 -125 -24 -41 -2 -76 -3 -78 -3 -1 -1 4
-11 12 -23 17 -29 22 -52 36 -163 15 -125 20 -145 36 -145 8 0 14 7 14 15 0
11 12 15 48 15 26 0 70 3 99 6 47 6 50 8 40 25 -9 14 -6 39 12 113 12 52 29
102 36 113 24 31 18 61 -15 78 -37 19 -53 18 -115 -7z m55 -54 c0 -8 -7 -62
-16 -119 -16 -102 -16 -103 -46 -109 -17 -3 -45 -6 -63 -6 l-32 0 -6 83 c-12
150 -15 142 46 154 83 16 117 15 117 -3z"/>
</g>
</svg>
