<?xml version="1.0" standalone="no"?>
<!DOCTYPE svg PUBLIC "-//W3C//DTD SVG 20010904//EN"
 "http://www.w3.org/TR/2001/REC-SVG-20010904/DTD/svg10.dtd">
<svg version="1.0" xmlns="http://www.w3.org/2000/svg"
 width="90.000000pt" height="92.000000pt" viewBox="0 0 90.000000 92.000000"
 preserveAspectRatio="xMidYMid meet">
<metadata>
Created by potrace 1.16, written by Peter Selinger 2001-2019
</metadata>
<g transform="translate(0.000000,92.000000) scale(0.100000,-0.100000)"
fill="#000000" stroke="none">
<path d="M475 833 c3 -21 6 -58 8 -83 l2 -44 -52 -9 c-29 -5 -53 -13 -53 -18
0 -12 45 -22 80 -17 29 4 30 3 30 -37 l0 -42 -52 -7 c-29 -3 -72 -6 -95 -6
-49 0 -63 -14 -32 -31 21 -11 98 -7 134 7 50 20 -33 -94 -85 -116 -30 -13 -37
-33 -20 -60 8 -12 14 -13 46 -1 21 7 84 26 142 42 l104 28 31 -30 c36 -36 52
-25 48 32 -1 17 -88 69 -117 69 -15 0 -15 -3 6 -24 l23 -25 -24 -5 c-85 -18
-133 -26 -157 -26 l-27 1 30 22 c70 52 80 64 67 80 -18 21 11 27 151 27 69 0
117 4 117 10 0 5 -11 17 -25 26 -23 15 -35 15 -95 5 -38 -6 -81 -11 -95 -11
-25 0 -26 3 -23 42 3 42 4 43 48 51 25 5 49 13 55 18 17 17 -18 30 -64 23
l-44 -6 6 66 c7 71 -3 86 -52 86 -19 0 -21 -4 -16 -37z"/>
<path d="M140 633 c-21 -9 -51 -13 -77 -10 -51 5 -56 1 -38 -27 7 -11 19 -59
25 -106 6 -47 18 -92 26 -100 12 -12 14 -12 14 8 0 19 5 22 43 22 60 0 89 10
83 27 -3 8 6 51 21 95 26 78 26 81 8 94 -24 18 -60 17 -105 -3z m39 -93 c-1
-32 -5 -63 -8 -69 -3 -5 -23 -12 -44 -16 -36 -7 -37 -6 -38 21 0 16 -2 48 -5
71 -5 40 -4 42 23 46 77 11 74 13 72 -53z"/>
<path d="M590 338 c-50 -11 -129 -20 -192 -21 -60 -1 -108 -3 -108 -5 0 -2 5
-13 12 -25 6 -12 17 -52 23 -89 l12 -68 -78 0 c-88 0 -108 -13 -55 -35 30 -13
47 -13 104 -4 37 6 179 14 316 18 262 6 291 12 225 47 -25 12 -47 15 -91 10
-69 -7 -71 -3 -33 89 14 33 25 61 25 63 0 4 -65 42 -70 41 -3 -1 -43 -10 -90
-21z m70 -58 c0 -16 -5 -52 -11 -80 l-11 -50 -44 0 c-24 0 -44 4 -44 8 0 5 9
34 20 66 10 31 17 63 13 71 -4 12 4 15 36 15 39 0 41 -2 41 -30z m-120 -2 c0
-13 -3 -47 -6 -75 -6 -47 -9 -53 -30 -53 -26 0 -26 0 -26 85 0 30 1 57 1 60 1
3 15 5 31 5 24 0 30 -4 30 -22z m-110 -19 c4 -13 10 -45 13 -71 l7 -48 -40 0
-39 0 -6 48 c-3 26 -8 57 -11 69 -3 17 1 22 23 26 41 6 46 3 53 -24z"/>
</g>
</svg>
