<?xml version="1.0" standalone="no"?>
<!DOCTYPE svg PUBLIC "-//W3C//DTD SVG 20010904//EN"
 "http://www.w3.org/TR/2001/REC-SVG-20010904/DTD/svg10.dtd">
<svg version="1.0" xmlns="http://www.w3.org/2000/svg"
 width="90.000000pt" height="92.000000pt" viewBox="0 0 90.000000 92.000000"
 preserveAspectRatio="xMidYMid meet">
<metadata>
Created by potrace 1.16, written by Peter Selinger 2001-2019
</metadata>
<g transform="translate(0.000000,92.000000) scale(0.100000,-0.100000)"
fill="#000000" stroke="none">
<path d="M450 822 c0 -25 56 -102 74 -102 20 0 28 32 17 64 -6 14 -12 26 -15
26 -2 0 -20 7 -40 15 -34 14 -36 14 -36 -3z"/>
<path d="M130 782 c0 -6 19 -32 43 -58 50 -54 77 -56 77 -4 0 26 -6 33 -33 45
-52 21 -87 28 -87 17z"/>
<path d="M470 680 c-19 -10 -56 -24 -82 -30 -27 -7 -48 -16 -48 -20 0 -17 38
-20 80 -5 85 30 80 42 79 -192 -1 -115 -4 -221 -8 -238 -6 -29 -8 -30 -61 -28
l-54 3 53 -54 c59 -59 72 -61 99 -12 13 24 17 64 20 178 l4 148 42 -58 c24
-31 62 -76 84 -99 42 -43 42 -43 114 -43 94 0 117 13 63 35 -127 50 -224 113
-275 177 l-19 25 68 32 c37 17 72 31 77 31 6 0 18 6 28 13 16 12 16 14 -4 40
-26 33 -53 35 -72 5 -19 -29 -90 -98 -100 -98 -11 0 -10 113 1 143 11 27 5 39
-26 56 -26 13 -21 14 -63 -9z"/>
<path d="M30 571 c0 -18 88 -103 102 -99 7 3 14 19 16 36 3 25 -2 33 -25 45
-40 21 -93 31 -93 18z"/>
<path d="M311 491 c-65 -15 -72 -18 -57 -31 14 -11 25 -11 67 -1 28 7 53 10
56 7 19 -18 -76 -156 -149 -217 -61 -50 -56 -64 10 -30 47 24 109 89 158 165
22 32 43 65 49 72 14 20 -7 49 -36 50 -13 1 -57 -6 -98 -15z"/>
<path d="M160 352 c-18 -35 -51 -81 -72 -103 -42 -43 -45 -54 -24 -104 15 -35
33 -45 41 -23 2 7 25 69 50 137 53 143 55 186 5 93z"/>
</g>
</svg>
