<?xml version="1.0" standalone="no"?>
<!DOCTYPE svg PUBLIC "-//W3C//DTD SVG 20010904//EN"
 "http://www.w3.org/TR/2001/REC-SVG-20010904/DTD/svg10.dtd">
<svg version="1.0" xmlns="http://www.w3.org/2000/svg"
 width="96.000000pt" height="68.000000pt" viewBox="0 0 96.000000 68.000000"
 preserveAspectRatio="xMidYMid meet">
<metadata>
Created by potrace 1.16, written by Peter Selinger 2001-2019
</metadata>
<g transform="translate(0.000000,68.000000) scale(0.100000,-0.100000)"
fill="#000000" stroke="none">
<path d="M580 581 c0 -43 -10 -61 -34 -61 -11 0 -28 -5 -36 -10 -13 -9 -13
-11 0 -20 8 -5 21 -10 28 -10 9 0 11 -10 7 -37 l-6 -38 25 27 c14 16 29 36 34
45 8 13 27 18 78 21 38 2 73 8 78 12 15 14 -35 32 -80 28 -49 -4 -48 -4 -33
24 9 18 8 24 -7 35 -32 23 -54 16 -54 -16z"/>
<path d="M307 574 c-4 -4 -1 -14 7 -23 8 -9 16 -25 18 -36 3 -18 -3 -20 -64
-23 -75 -3 -88 -18 -37 -41 28 -12 38 -12 81 2 49 15 49 15 60 -9 6 -13 19
-24 30 -24 20 0 21 4 9 35 -7 16 -2 23 23 35 l31 14 -36 4 c-30 2 -37 8 -45
35 -7 26 -15 33 -39 35 -17 2 -34 0 -38 -4z"/>
<path d="M596 418 c-19 -65 -43 -112 -76 -148 -22 -24 -40 -45 -40 -46 0 -9
39 13 65 36 26 24 42 29 110 34 104 9 145 16 145 26 0 17 -58 20 -123 6 -60
-12 -94 -8 -67 9 6 3 17 20 26 36 12 24 13 34 3 45 -14 17 -38 18 -43 2z"/>
<path d="M310 412 c0 -18 33 -52 50 -52 33 0 32 19 -2 40 -35 21 -48 25 -48
12z"/>
<path d="M298 337 c-76 -12 -138 -24 -138 -28 0 -12 36 -16 83 -9 36 5 47 3
52 -8 7 -18 -77 -144 -110 -166 -14 -9 -25 -21 -25 -27 0 -17 60 29 116 87 44
47 56 54 88 54 l38 0 -7 -42 c-4 -24 -14 -59 -23 -78 -15 -30 -22 -35 -49 -34
-38 2 -40 -2 -12 -35 17 -21 24 -23 47 -15 30 11 51 48 80 142 23 76 15 87
-59 84 -44 -2 -49 0 -41 15 5 10 7 23 5 29 -4 13 28 24 74 24 37 0 63 9 63 21
0 12 -21 10 -182 -14z"/>
<path d="M600 231 c0 -18 63 -62 84 -59 29 4 26 30 -4 44 -38 18 -80 25 -80
15z"/>
<path d="M622 66 c49 -49 90 -63 96 -34 4 21 -59 63 -108 73 l-35 6 47 -45z"/>
</g>
</svg>
