<?xml version="1.0" standalone="no"?>
<!DOCTYPE svg PUBLIC "-//W3C//DTD SVG 20010904//EN"
 "http://www.w3.org/TR/2001/REC-SVG-20010904/DTD/svg10.dtd">
<svg version="1.0" xmlns="http://www.w3.org/2000/svg"
 width="96.000000pt" height="68.000000pt" viewBox="0 0 96.000000 68.000000"
 preserveAspectRatio="xMidYMid meet">
<metadata>
Created by potrace 1.16, written by Peter Selinger 2001-2019
</metadata>
<g transform="translate(0.000000,68.000000) scale(0.100000,-0.100000)"
fill="#000000" stroke="none">
<path d="M587 603 c-4 -3 -7 -24 -7 -45 0 -36 -1 -38 -40 -44 -42 -7 -45 -24
-4 -24 27 0 27 0 14 -34 -13 -36 3 -32 33 8 24 31 32 34 98 40 55 6 69 10 60
19 -7 7 -34 11 -62 10 -49 -1 -62 10 -38 34 8 8 4 15 -12 27 -26 18 -32 19
-42 9z"/>
<path d="M316 572 c-3 -5 4 -21 15 -38 10 -16 19 -32 19 -36 0 -4 -31 -10 -70
-14 -69 -7 -80 -17 -34 -34 16 -6 34 -5 58 5 49 21 63 19 70 -10 10 -38 37
-32 34 7 -3 28 1 34 20 36 12 2 22 8 22 13 0 6 -12 8 -29 4 -26 -6 -30 -3 -36
25 -4 20 -15 34 -32 41 -30 11 -31 11 -37 1z"/>
</g>
</svg>
