<?xml version="1.0" standalone="no"?>
<!DOCTYPE svg PUBLIC "-//W3C//DTD SVG 20010904//EN"
 "http://www.w3.org/TR/2001/REC-SVG-20010904/DTD/svg10.dtd">
<svg version="1.0" xmlns="http://www.w3.org/2000/svg"
 width="96.000000pt" height="68.000000pt" viewBox="0 0 96.000000 68.000000"
 preserveAspectRatio="xMidYMid meet">
<metadata>
Created by potrace 1.16, written by Peter Selinger 2001-2019
</metadata>
<g transform="translate(0.000000,68.000000) scale(0.100000,-0.100000)"
fill="#000000" stroke="none">
<path d="M495 614 c-25 -20 -142 -74 -160 -74 -16 0 -30 -18 -21 -27 3 -3 69
9 146 28 109 26 140 37 140 50 0 17 -39 39 -68 39 -9 0 -26 -8 -37 -16z"/>
<path d="M630 521 c0 -5 -23 -35 -51 -65 -28 -31 -46 -56 -41 -56 6 0 47 17
91 37 82 38 96 55 64 79 -21 15 -63 19 -63 5z"/>
<path d="M400 501 c0 -4 10 -23 23 -42 29 -44 70 -48 75 -7 3 21 -3 30 -27 42
-33 17 -71 21 -71 7z"/>
<path d="M260 474 c0 -20 54 -74 74 -74 42 0 30 63 -15 79 -44 15 -59 14 -59
-5z"/>
<path d="M395 411 c-2 -5 -7 -27 -11 -50 -9 -53 -16 -56 -164 -65 -63 -4 -117
-9 -119 -12 -19 -19 82 -25 187 -11 67 10 78 1 46 -34 -25 -28 -10 -47 40 -54
25 -4 46 -13 46 -19 0 -13 -84 -51 -160 -73 l-45 -13 73 4 c54 4 88 13 136 36
l64 32 43 -23 c24 -12 61 -33 81 -45 46 -29 78 -31 78 -6 0 27 -27 48 -95 73
-78 29 -83 34 -58 61 11 13 28 38 39 56 l18 32 123 0 c68 0 123 3 123 8 0 21
-61 32 -142 26 -71 -6 -90 -4 -109 10 -31 21 -49 20 -49 -3 0 -19 -34 -31 -91
-31 -34 0 -34 1 -13 41 8 17 13 37 11 44 -6 14 -45 27 -52 16z m135 -133 c0
-22 -71 -90 -87 -84 -8 3 -30 6 -49 6 -40 0 -42 11 -14 58 19 31 22 32 85 32
45 0 65 -4 65 -12z"/>
</g>
</svg>
