<?xml version="1.0" standalone="no"?>
<!DOCTYPE svg PUBLIC "-//W3C//DTD SVG 20010904//EN"
 "http://www.w3.org/TR/2001/REC-SVG-20010904/DTD/svg10.dtd">
<svg version="1.0" xmlns="http://www.w3.org/2000/svg"
 width="96.000000pt" height="68.000000pt" viewBox="0 0 96.000000 68.000000"
 preserveAspectRatio="xMidYMid meet">
<metadata>
Created by potrace 1.16, written by Peter Selinger 2001-2019
</metadata>
<g transform="translate(0.000000,68.000000) scale(0.100000,-0.100000)"
fill="#000000" stroke="none">
<path d="M405 618 l7 -45 -47 -7 c-27 -3 -61 -6 -76 -6 -19 0 -29 -5 -29 -15
0 -12 14 -15 70 -15 54 0 70 -3 70 -14 0 -20 -13 -27 -67 -34 -63 -9 -69 -32
-9 -32 34 0 46 -4 46 -15 0 -24 -35 -35 -109 -35 -39 0 -71 -4 -71 -9 0 -17
40 -23 97 -16 l55 7 -27 -36 c-31 -40 -96 -90 -167 -126 -26 -14 -45 -26 -43
-28 8 -9 106 31 147 59 24 17 66 54 93 84 45 48 55 54 98 58 38 3 54 -1 75
-17 27 -20 145 -120 170 -143 21 -20 95 -26 132 -11 l33 14 -84 28 c-50 17
-114 49 -159 80 l-75 51 100 5 100 5 -33 18 c-27 15 -41 16 -90 8 -31 -5 -90
-13 -129 -16 -62 -6 -73 -5 -73 9 0 21 25 33 90 40 84 11 110 17 110 26 0 15
-62 21 -117 12 -49 -8 -51 -8 -43 12 6 16 20 23 61 28 106 15 119 18 119 35 0
14 -11 15 -80 10 -80 -6 -80 -6 -74 17 6 26 -8 41 -49 51 l-29 8 7 -45z"/>
<path d="M422 333 l3 -38 -42 -3 c-58 -4 -55 -22 3 -22 44 0 45 -1 42 -27 -3
-27 -6 -28 -83 -38 -74 -9 -78 -11 -52 -22 15 -7 32 -11 39 -9 7 3 32 7 56 10
l42 6 0 -75 c0 -57 3 -75 14 -75 15 0 26 43 26 106 l0 44 85 0 c48 0 85 4 85
10 0 19 -42 31 -102 28 -61 -3 -62 -2 -63 22 0 19 6 26 25 28 50 5 71 13 64
23 -3 6 -25 9 -48 7 -37 -2 -41 0 -38 20 2 16 -4 25 -23 32 -37 14 -37 14 -33
-27z"/>
</g>
</svg>
