<?xml version="1.0" standalone="no"?>
<!DOCTYPE svg PUBLIC "-//W3C//DTD SVG 20010904//EN"
 "http://www.w3.org/TR/2001/REC-SVG-20010904/DTD/svg10.dtd">
<svg version="1.0" xmlns="http://www.w3.org/2000/svg"
 width="96.000000pt" height="68.000000pt" viewBox="0 0 96.000000 68.000000"
 preserveAspectRatio="xMidYMid meet">
<metadata>
Created by potrace 1.16, written by Peter Selinger 2001-2019
</metadata>
<g transform="translate(0.000000,68.000000) scale(0.100000,-0.100000)"
fill="#000000" stroke="none">
<path d="M257 523 c2 -32 -2 -80 -10 -108 l-13 -50 -67 -3 c-37 -2 -67 -7 -67
-12 0 -18 43 -32 81 -27 22 3 39 4 39 2 0 -2 -4 -15 -10 -29 -9 -24 -6 -28 30
-46 22 -11 40 -24 40 -28 0 -13 -54 -62 -97 -88 -21 -13 -32 -24 -25 -24 23 0
83 29 120 60 l36 30 21 -20 c12 -11 29 -20 38 -20 26 0 20 32 -9 55 l-26 21
19 40 c11 21 23 51 26 65 5 19 16 29 39 34 l33 8 -28 4 c-18 3 -27 9 -24 17 8
19 -6 35 -33 38 -22 3 -25 0 -22 -29 3 -30 0 -32 -33 -39 -20 -3 -38 -4 -41
-2 -2 3 9 43 26 89 l30 84 -21 18 c-12 9 -29 17 -38 17 -15 0 -17 -9 -14 -57z
m70 -228 c-13 -35 -18 -40 -42 -38 -40 3 -51 17 -39 50 7 20 20 30 49 39 48
13 52 6 32 -51z"/>
</g>
</svg>
