<?xml version="1.0" standalone="no"?>
<!DOCTYPE svg PUBLIC "-//W3C//DTD SVG 20010904//EN"
 "http://www.w3.org/TR/2001/REC-SVG-20010904/DTD/svg10.dtd">
<svg version="1.0" xmlns="http://www.w3.org/2000/svg"
 width="96.000000pt" height="68.000000pt" viewBox="0 0 96.000000 68.000000"
 preserveAspectRatio="xMidYMid meet">
<metadata>
Created by potrace 1.16, written by Peter Selinger 2001-2019
</metadata>
<g transform="translate(0.000000,68.000000) scale(0.100000,-0.100000)"
fill="#000000" stroke="none">
<path d="M605 270 c-4 -6 7 -10 23 -10 29 0 30 -1 30 -52 -1 -29 0 -57 2 -63
1 -5 2 -20 1 -33 -1 -19 -5 -22 -22 -17 -19 6 -20 5 -8 -16 7 -13 19 -30 27
-39 14 -13 15 -13 10 8 -5 19 -4 21 7 12 11 -9 15 -2 20 34 5 30 3 51 -4 60
-9 11 -9 15 1 19 8 4 9 8 3 14 -14 11 -17 33 -5 33 16 0 11 36 -7 51 -11 10
-14 10 -9 2 4 -7 2 -13 -3 -13 -6 0 -11 4 -11 8 0 11 -48 13 -55 2z"/>
<path d="M479 238 c4 -13 6 -29 3 -37 -2 -7 2 -17 9 -22 8 -5 9 -9 3 -9 -6 0
-12 -10 -13 -22 -1 -13 -3 -36 -4 -53 -1 -21 3 -30 13 -30 12 0 15 16 15 85 0
47 4 91 8 98 6 8 1 12 -17 12 -22 0 -24 -3 -17 -22z"/>
<path d="M618 183 c7 -3 16 -2 19 1 4 3 -2 6 -13 5 -11 0 -14 -3 -6 -6z"/>
<path d="M528 79 c-7 -5 7 -6 32 -3 24 3 46 7 49 9 7 8 -68 2 -81 -6z"/>
</g>
</svg>
