<?xml version="1.0" standalone="no"?>
<!DOCTYPE svg PUBLIC "-//W3C//DTD SVG 20010904//EN"
 "http://www.w3.org/TR/2001/REC-SVG-20010904/DTD/svg10.dtd">
<svg version="1.0" xmlns="http://www.w3.org/2000/svg"
 width="96.000000pt" height="68.000000pt" viewBox="0 0 96.000000 68.000000"
 preserveAspectRatio="xMidYMid meet">
<metadata>
Created by potrace 1.16, written by Peter Selinger 2001-2019
</metadata>
<g transform="translate(0.000000,68.000000) scale(0.100000,-0.100000)"
fill="#000000" stroke="none">
<path d="M605 591 c-6 -35 -10 -41 -31 -41 -13 0 -24 -4 -24 -10 0 -5 9 -10
20 -10 17 0 19 -5 15 -27 l-6 -28 29 33 c24 27 35 32 75 32 25 0 48 4 51 9 8
12 -41 23 -65 16 -16 -6 -18 -2 -13 24 4 19 2 31 -4 31 -6 0 -17 3 -25 6 -11
4 -17 -5 -22 -35z"/>
<path d="M415 571 c15 -30 15 -31 -7 -36 -13 -2 -36 -6 -53 -7 l-30 -3 23 -13
c18 -10 31 -11 55 -2 28 9 33 8 49 -12 l18 -23 0 26 c0 17 8 30 23 37 22 11
22 11 -5 11 -20 1 -27 7 -30 24 -2 16 -11 23 -31 25 l-28 3 16 -30z"/>
</g>
</svg>
