<?xml version="1.0" standalone="no"?>
<!DOCTYPE svg PUBLIC "-//W3C//DTD SVG 20010904//EN"
 "http://www.w3.org/TR/2001/REC-SVG-20010904/DTD/svg10.dtd">
<svg version="1.0" xmlns="http://www.w3.org/2000/svg"
 width="96.000000pt" height="68.000000pt" viewBox="0 0 96.000000 68.000000"
 preserveAspectRatio="xMidYMid meet">
<metadata>
Created by potrace 1.16, written by Peter Selinger 2001-2019
</metadata>
<g transform="translate(0.000000,68.000000) scale(0.100000,-0.100000)"
fill="#000000" stroke="none">
<path d="M191 479 c-14 -5 -36 -7 -50 -4 l-26 5 1 -145 c0 -107 4 -148 13
-158 11 -9 14 -9 18 1 7 18 79 16 87 -3 8 -21 33 -19 45 3 11 20 8 283 -3 301
-9 13 -52 13 -85 0z m53 -41 c3 -13 6 -38 6 -55 0 -28 -4 -33 -22 -33 -13 0
-33 -3 -45 -6 -21 -6 -23 -3 -23 39 0 65 7 77 45 77 25 0 34 -5 39 -22z m4
-137 c2 -13 1 -38 -2 -55 -6 -30 -8 -31 -46 -28 l-40 4 0 48 c0 45 2 49 28 53
45 7 57 3 60 -22z"/>
</g>
</svg>
