<?xml version="1.0" standalone="no"?>
<!DOCTYPE svg PUBLIC "-//W3C//DTD SVG 20010904//EN"
 "http://www.w3.org/TR/2001/REC-SVG-20010904/DTD/svg10.dtd">
<svg version="1.0" xmlns="http://www.w3.org/2000/svg"
 width="96.000000pt" height="68.000000pt" viewBox="0 0 96.000000 68.000000"
 preserveAspectRatio="xMidYMid meet">
<metadata>
Created by potrace 1.16, written by Peter Selinger 2001-2019
</metadata>
<g transform="translate(0.000000,68.000000) scale(0.100000,-0.100000)"
fill="#000000" stroke="none">
<path d="M458 548 c-3 -29 -7 -34 -38 -39 l-35 -6 38 -2 c30 -1 37 -5 37 -21
0 -17 -7 -20 -50 -20 -51 0 -61 -8 -36 -29 7 -6 16 -29 20 -50 5 -35 9 -39 33
-37 48 2 39 -19 -12 -30 -37 -8 -45 -13 -32 -19 9 -4 28 -4 41 -1 20 5 26 1
34 -24 6 -16 8 -32 4 -34 -7 -4 -124 -9 -159 -7 -8 1 -13 15 -13 36 0 31 3 35
35 41 47 8 45 26 -2 22 -35 -3 -38 -1 -41 24 -3 23 1 27 37 33 54 9 53 26 -1
23 -37 -3 -43 0 -46 18 -4 25 25 57 44 50 8 -3 14 -1 14 4 0 6 7 10 15 10 24
0 31 31 10 46 -29 21 -41 17 -65 -21 -15 -25 -29 -35 -46 -35 -20 0 -23 -4
-19 -22 4 -20 35 -225 35 -235 0 -2 -33 -3 -74 -3 -41 0 -77 -4 -81 -9 -11
-19 68 -23 203 -12 75 6 199 11 275 12 163 1 257 9 257 20 0 13 -75 30 -107
23 -17 -3 -33 -2 -35 2 -5 8 42 207 56 245 10 24 -32 39 -85 28 -24 -4 -48 -8
-53 -9 -24 -1 8 -14 37 -14 28 -1 32 -5 35 -30 4 -34 -10 -46 -57 -46 -25 0
-32 4 -28 14 9 24 -19 39 -58 32 -41 -8 -57 -2 -48 19 3 10 19 15 46 15 46 0
44 9 -5 19 -18 4 -33 12 -33 19 0 12 -23 32 -37 32 -4 0 -8 -15 -10 -32z m97
-99 c9 -14 2 -20 -29 -23 -29 -4 -37 20 -8 27 28 8 31 7 37 -4z m-95 -17 c0
-12 -8 -18 -25 -20 -24 -2 -34 16 -18 31 14 14 43 7 43 -11z m218 -27 c2 -2 0
-14 -3 -28 -5 -19 -15 -27 -41 -32 -19 -3 -32 -10 -29 -16 4 -5 18 -6 32 -3
25 7 26 6 20 -31 -3 -21 -8 -40 -11 -42 -2 -3 -40 -7 -84 -10 l-80 -6 5 27 c6
31 42 49 79 40 14 -4 24 -2 24 5 0 13 -45 25 -66 17 -21 -8 -34 1 -27 20 4 12
14 14 39 10 30 -6 33 -4 44 28 11 33 12 34 53 29 23 -3 43 -7 45 -8z m-138
-14 c0 -14 -5 -18 -20 -14 -11 3 -20 12 -20 19 0 8 9 14 20 14 13 0 20 -7 20
-19z m-80 -6 c0 -16 -35 -21 -44 -6 -8 12 4 21 26 21 10 0 18 -7 18 -15z"/>
<path d="M323 153 c-8 -22 -37 -53 -88 -93 -21 -17 -32 -30 -25 -30 22 0 190
98 190 112 0 5 -54 28 -67 28 -2 0 -7 -8 -10 -17z"/>
<path d="M600 167 c0 -1 27 -30 59 -65 60 -62 101 -81 101 -44 -1 29 -42 70
-93 91 -44 19 -67 25 -67 18z"/>
</g>
</svg>
