<?xml version="1.0" standalone="no"?>
<!DOCTYPE svg PUBLIC "-//W3C//DTD SVG 20010904//EN"
 "http://www.w3.org/TR/2001/REC-SVG-20010904/DTD/svg10.dtd">
<svg version="1.0" xmlns="http://www.w3.org/2000/svg"
 width="96.000000pt" height="68.000000pt" viewBox="0 0 96.000000 68.000000"
 preserveAspectRatio="xMidYMid meet">
<metadata>
Created by potrace 1.16, written by Peter Selinger 2001-2019
</metadata>
<g transform="translate(0.000000,68.000000) scale(0.100000,-0.100000)"
fill="#000000" stroke="none">
<path d="M285 233 c-51 -8 -55 -25 -5 -21 l45 3 -2 -39 c-2 -22 -10 -50 -19
-64 -14 -21 -21 -23 -52 -17 l-37 6 33 -33 c31 -32 33 -32 60 -18 20 11 33 32
49 80 12 36 22 70 22 76 1 10 -43 35 -57 33 -4 -1 -20 -4 -37 -6z"/>
</g>
</svg>
