<?xml version="1.0" standalone="no"?>
<!DOCTYPE svg PUBLIC "-//W3C//DTD SVG 20010904//EN"
 "http://www.w3.org/TR/2001/REC-SVG-20010904/DTD/svg10.dtd">
<svg version="1.0" xmlns="http://www.w3.org/2000/svg"
 width="96.000000pt" height="68.000000pt" viewBox="0 0 96.000000 68.000000"
 preserveAspectRatio="xMidYMid meet">
<metadata>
Created by potrace 1.16, written by Peter Selinger 2001-2019
</metadata>
<g transform="translate(0.000000,68.000000) scale(0.100000,-0.100000)"
fill="#000000" stroke="none">
<path d="M440 602 c0 -16 35 -50 55 -53 11 -3 -38 -10 -110 -18 -127 -13 -166
-24 -132 -37 13 -5 17 -19 17 -68 0 -105 -48 -229 -119 -306 -44 -48 -41 -61
8 -36 46 24 99 96 128 175 37 101 75 96 65 -9 -8 -84 -2 -102 26 -83 9 7 41
24 70 38 57 28 64 45 11 26 -52 -18 -69 -14 -69 14 0 14 3 24 8 23 4 -1 27 2
50 6 32 6 41 11 33 19 -8 8 -21 7 -47 -2 -41 -15 -41 -15 -46 19 -3 24 -1 25
75 33 43 5 85 6 93 3 10 -4 14 -22 14 -58 0 -29 4 -58 8 -64 16 -24 55 -34
135 -34 96 0 111 9 92 53 l-12 29 -17 -27 c-16 -24 -21 -26 -89 -23 -98 4
-102 24 -11 58 72 27 89 44 54 55 -16 5 -29 0 -48 -18 -15 -13 -37 -30 -49
-36 -26 -13 -28 -7 -17 48 6 28 10 31 45 31 31 0 39 4 39 18 0 11 9 27 20 37
11 10 20 21 20 26 0 15 -65 29 -112 23 -46 -6 -48 -6 -48 19 0 14 -6 27 -12
30 -7 2 22 6 65 10 85 6 93 9 82 28 -6 8 -32 10 -96 6 -85 -6 -89 -6 -89 13 0
13 -10 24 -26 30 -31 12 -64 13 -64 2z m90 -121 c0 -29 -18 -41 -64 -41 -15 0
-17 6 -14 30 2 16 0 32 -6 34 -6 2 10 5 37 5 45 1 47 0 47 -28z m-122 -13 c-3
-30 -6 -33 -40 -36 -40 -3 -44 2 -28 42 7 20 16 26 40 26 29 0 31 -2 28 -32z
m252 -52 c0 -27 -16 -36 -66 -36 -36 0 -41 9 -24 41 8 14 21 19 50 19 36 0 40
-3 40 -24z m-130 -15 c0 -21 -6 -30 -22 -35 -46 -12 -58 -7 -58 22 0 37 6 42
47 42 30 0 33 -3 33 -29z m-112 -11 c5 -29 -12 -40 -61 -40 -36 0 -38 2 -35
27 2 22 9 29 33 34 46 8 60 4 63 -21z"/>
<path d="M486 170 c6 -39 6 -40 -22 -41 -46 -2 -86 -8 -91 -13 -8 -8 65 -19
92 -14 22 5 25 2 25 -22 0 -36 -12 -40 -126 -40 -55 0 -94 -4 -94 -10 0 -18
49 -22 150 -11 55 6 164 11 240 11 77 0 140 4 140 9 0 20 -58 29 -131 20 -125
-14 -129 -13 -129 20 0 28 3 30 53 36 28 4 59 11 67 15 25 14 -14 24 -66 16
-43 -6 -44 -5 -44 23 0 29 -14 41 -51 41 -17 0 -18 -5 -13 -40z"/>
</g>
</svg>
