<?xml version="1.0" standalone="no"?>
<!DOCTYPE svg PUBLIC "-//W3C//DTD SVG 20010904//EN"
 "http://www.w3.org/TR/2001/REC-SVG-20010904/DTD/svg10.dtd">
<svg version="1.0" xmlns="http://www.w3.org/2000/svg"
 width="96.000000pt" height="68.000000pt" viewBox="0 0 96.000000 68.000000"
 preserveAspectRatio="xMidYMid meet">
<metadata>
Created by potrace 1.16, written by Peter Selinger 2001-2019
</metadata>
<g transform="translate(0.000000,68.000000) scale(0.100000,-0.100000)"
fill="#000000" stroke="none">
<path d="M548 596 c-3 -39 -5 -41 -45 -50 -24 -6 -43 -13 -43 -17 0 -9 49 -21
60 -14 5 3 5 -7 0 -25 -7 -23 -5 -30 5 -30 8 0 19 9 25 19 22 42 40 51 100 51
32 0 61 4 65 9 10 17 -36 33 -76 28 -42 -6 -44 -5 -29 23 11 20 -1 34 -37 42
-20 5 -22 1 -25 -36z"/>
<path d="M294 588 c16 -51 14 -53 -46 -56 -43 -2 -58 -7 -58 -18 0 -24 44 -38
81 -25 47 16 58 14 65 -14 9 -38 34 -32 34 9 0 30 4 35 30 41 58 13 45 30 -17
25 -18 -1 -23 4 -23 23 0 26 -16 37 -52 37 -16 0 -19 -4 -14 -22z"/>
<path d="M548 455 c-8 -8 -126 -20 -200 -20 -38 0 -68 0 -68 -1 0 0 6 -14 14
-30 8 -16 17 -54 21 -86 6 -51 5 -57 -14 -63 -11 -3 -42 -3 -67 1 l-47 7 7
-29 c4 -16 10 -63 13 -104 9 -132 45 -119 41 15 l-2 79 34 7 c56 11 378 32
395 25 24 -9 20 -112 -6 -155 -18 -30 -23 -32 -55 -26 l-36 6 27 -35 c32 -42
55 -45 89 -11 25 25 29 41 40 139 4 27 11 56 18 64 10 12 8 18 -12 34 -20 16
-35 19 -82 15 -31 -2 -59 -3 -61 0 -7 6 21 95 33 107 18 18 11 35 -20 51 -30
15 -53 19 -62 10z m20 -49 c6 -29 -13 -39 -85 -42 -37 -1 -70 -3 -72 -3 -2 -1
1 -7 7 -13 6 -7 12 -29 14 -48 3 -34 2 -35 -38 -38 l-41 -3 -7 47 c-9 71 -7
104 7 104 37 2 123 13 127 16 2 3 22 4 45 2 29 -2 41 -8 43 -22z m-11 -122
c-3 -3 -24 -6 -47 -7 -42 -2 -43 -1 -47 30 -4 32 -4 32 44 35 46 3 48 2 51
-25 2 -16 1 -31 -1 -33z"/>
<path d="M482 209 c-13 -5 -50 -10 -83 -12 -39 -1 -58 -6 -55 -13 3 -7 10 -30
17 -53 11 -38 15 -41 49 -41 21 0 57 3 81 6 40 6 46 11 66 52 16 34 19 50 11
59 -12 15 -52 16 -86 2z m29 -31 c-1 -5 -1 -19 -1 -32 0 -21 -6 -24 -56 -31
-31 -4 -57 -5 -59 -3 -2 2 -5 17 -7 33 -3 29 -1 30 47 36 60 7 76 6 76 -3z"/>
</g>
</svg>
