<?xml version="1.0" standalone="no"?>
<!DOCTYPE svg PUBLIC "-//W3C//DTD SVG 20010904//EN"
 "http://www.w3.org/TR/2001/REC-SVG-20010904/DTD/svg10.dtd">
<svg version="1.0" xmlns="http://www.w3.org/2000/svg"
 width="90.000000pt" height="92.000000pt" viewBox="0 0 90.000000 92.000000"
 preserveAspectRatio="xMidYMid meet">
<metadata>
Created by potrace 1.16, written by Peter Selinger 2001-2019
</metadata>
<g transform="translate(0.000000,92.000000) scale(0.100000,-0.100000)"
fill="#000000" stroke="none">
<path d="M694 823 c22 -94 27 -185 21 -364 -4 -108 -10 -211 -14 -230 -7 -33
-9 -34 -54 -32 l-46 1 51 -61 c28 -34 56 -63 62 -65 6 -1 20 11 30 29 16 28
18 60 21 312 2 231 5 290 19 329 20 56 15 70 -30 91 -52 25 -68 23 -60 -10z"/>
<path d="M305 808 c-52 -14 -87 -18 -139 -13 -62 5 -68 4 -61 -12 10 -27 37
-284 30 -291 -3 -4 -27 -5 -52 -4 -42 2 -45 0 -39 -21 12 -40 26 -185 25 -247
-1 -36 3 -66 10 -73 24 -24 32 17 29 160 l-3 142 60 10 c123 22 247 30 268 19
19 -10 20 -17 14 -127 -8 -146 -12 -161 -44 -161 -13 0 -33 5 -44 10 -10 6
-19 8 -19 5 0 -5 66 -104 76 -114 7 -7 45 32 61 62 8 17 18 81 24 152 5 68 13
134 18 147 11 32 5 44 -35 68 -22 14 -41 19 -55 15 -21 -7 -21 -5 -14 56 8 79
21 158 30 181 5 13 -2 23 -27 38 -18 11 -35 19 -38 19 -3 -1 -36 -10 -75 -21z
m63 -74 l3 -51 -43 -8 c-24 -5 -58 -7 -76 -6 -31 3 -33 1 -23 -17 6 -12 11
-50 11 -86 0 -66 0 -66 -29 -66 l-28 0 -8 121 c-4 66 -4 123 -1 126 9 9 149
42 171 40 17 -2 20 -10 23 -53z m-8 -154 c0 -33 -4 -60 -9 -60 -5 0 -23 -3
-40 -6 l-31 -6 0 60 c0 64 3 68 58 71 20 1 22 -3 22 -59z"/>
<path d="M564 658 c15 -72 18 -137 7 -186 -9 -41 -8 -57 5 -88 12 -28 18 -34
27 -25 12 12 25 128 26 238 1 59 0 63 -29 78 -40 21 -43 19 -36 -17z"/>
<path d="M276 413 c-16 -9 -51 -16 -77 -16 -48 -1 -57 -6 -41 -21 4 -4 14 -35
22 -69 11 -45 20 -61 30 -59 8 2 43 9 76 14 51 9 61 14 57 28 -3 9 3 34 11 55
21 51 20 60 -9 73 -31 14 -32 14 -69 -5z m24 -72 c0 -37 -2 -39 -39 -49 -36
-9 -40 -8 -45 12 -12 43 -7 64 17 69 62 12 67 9 67 -32z"/>
</g>
</svg>
