<?xml version="1.0" standalone="no"?>
<!DOCTYPE svg PUBLIC "-//W3C//DTD SVG 20010904//EN"
 "http://www.w3.org/TR/2001/REC-SVG-20010904/DTD/svg10.dtd">
<svg version="1.0" xmlns="http://www.w3.org/2000/svg"
 width="96.000000pt" height="68.000000pt" viewBox="0 0 96.000000 68.000000"
 preserveAspectRatio="xMidYMid meet">
<metadata>
Created by potrace 1.16, written by Peter Selinger 2001-2019
</metadata>
<g transform="translate(0.000000,68.000000) scale(0.100000,-0.100000)"
fill="#000000" stroke="none">
<path d="M558 190 c4 -30 4 -30 -42 -30 -25 0 -46 -4 -46 -10 0 -5 23 -10 50
-10 48 0 50 -1 50 -29 0 -35 -16 -41 -112 -41 -68 0 -97 -13 -54 -24 13 -3 79
-1 147 4 68 5 162 10 209 10 79 1 84 2 65 16 -16 13 -38 15 -118 10 l-98 -6 3
32 c3 31 6 34 51 42 60 10 61 26 2 26 -38 0 -45 3 -45 20 0 16 -7 20 -33 20
-32 0 -33 -2 -29 -30z"/>
</g>
</svg>
