<?xml version="1.0" standalone="no"?>
<!DOCTYPE svg PUBLIC "-//W3C//DTD SVG 20010904//EN"
 "http://www.w3.org/TR/2001/REC-SVG-20010904/DTD/svg10.dtd">
<svg version="1.0" xmlns="http://www.w3.org/2000/svg"
 width="90.000000pt" height="92.000000pt" viewBox="0 0 90.000000 92.000000"
 preserveAspectRatio="xMidYMid meet">
<metadata>
Created by potrace 1.16, written by Peter Selinger 2001-2019
</metadata>
<g transform="translate(0.000000,92.000000) scale(0.100000,-0.100000)"
fill="#000000" stroke="none">
<path d="M425 864 c-27 -7 -67 -14 -89 -14 -30 0 -37 -3 -32 -16 3 -8 9 -65
12 -126 8 -123 6 -128 -58 -128 -33 0 -38 3 -38 24 0 19 7 26 37 33 20 4 39
15 41 22 4 11 -5 13 -42 8 -41 -6 -46 -4 -46 12 0 13 10 21 35 25 19 4 37 12
41 18 12 19 -19 27 -47 13 -24 -13 -28 -13 -33 1 -14 36 -6 51 34 64 41 14 49
27 28 48 -19 19 -31 14 -55 -22 -18 -28 -26 -33 -48 -28 l-27 5 16 -32 c13
-24 34 -131 36 -183 0 -15 -53 -8 -65 9 -10 14 -15 7 -34 -52 -23 -71 -22 -95
4 -95 9 0 19 16 27 43 l11 43 195 23 c218 25 402 38 402 27 0 -4 -11 -23 -25
-43 -13 -20 -23 -38 -21 -40 1 -2 16 1 32 6 16 6 48 15 72 21 23 6 42 17 42
24 0 8 -16 28 -36 46 -30 26 -44 31 -74 28 l-37 -3 13 60 c8 33 21 80 30 104
16 42 16 45 -2 58 -11 8 -30 12 -44 8 -14 -3 -42 -8 -62 -12 -38 -6 -49 -17
-25 -26 6 -2 27 -2 45 1 29 4 32 2 32 -21 0 -22 -5 -27 -37 -32 -56 -10 -65
-14 -57 -26 4 -7 22 -9 52 -4 39 6 44 5 38 -10 -3 -9 -6 -18 -6 -20 0 -2 -20
-7 -45 -11 -61 -9 -67 -24 -11 -24 42 0 46 -2 46 -24 0 -25 -28 -36 -92 -36
l-29 0 7 68 c3 37 10 92 15 122 8 47 7 57 -8 68 -21 15 -54 14 -118 -4z m73
-43 c3 -16 -1 -22 -9 -19 -7 2 -38 -1 -69 -9 -72 -17 -70 -17 -70 11 0 21 6
24 63 33 77 12 81 12 85 -16z m2 -70 c0 -13 -7 -18 -27 -18 -16 1 -49 -3 -75
-7 -44 -8 -48 -7 -48 12 0 17 8 22 43 25 100 9 107 8 107 -12z m0 -96 c0 -54
0 -55 -30 -55 -28 0 -30 2 -30 39 0 41 20 71 46 71 10 0 14 -14 14 -55z m-96
4 c12 -60 8 -69 -24 -69 -29 0 -30 1 -30 50 0 46 2 50 24 50 18 0 25 -7 30
-31z"/>
<path d="M485 540 c-22 -4 -86 -13 -142 -20 -113 -14 -137 -30 -43 -30 57 0
60 -1 60 -25 0 -24 -2 -25 -65 -25 l-66 0 14 -27 c8 -16 17 -49 21 -75 4 -26
11 -50 17 -53 5 -4 73 -3 150 1 l141 7 19 46 c10 25 25 59 34 74 14 27 13 28
-18 47 -17 11 -39 18 -47 16 -8 -2 -32 -7 -54 -11 -33 -5 -38 -4 -32 10 3 9 6
20 6 25 0 5 29 12 65 15 64 7 81 17 49 29 -19 7 -57 6 -109 -4z m-40 -65 c0
-21 -5 -25 -27 -25 -23 0 -27 4 -26 25 2 20 8 25 28 25 20 0 25 -5 25 -25z
m125 -55 c0 -16 -7 -20 -34 -20 -90 0 -88 36 2 39 26 1 32 -3 32 -19z m-123
-10 c5 -19 55 -40 97 -40 12 0 16 -5 12 -16 -3 -9 -6 -19 -6 -23 0 -5 -55 -11
-121 -15 -96 -6 -124 -5 -130 6 -15 23 -10 36 16 42 14 4 40 20 57 36 36 35
68 39 75 10z m-103 -3 c-6 -18 -43 -39 -54 -32 -6 4 -10 15 -10 26 0 15 7 19
35 19 24 0 33 -4 29 -13z"/>
<path d="M410 363 c-63 -10 -74 -14 -59 -23 13 -9 105 -4 139 6 13 5 13 6 0
14 -15 10 -34 11 -80 3z"/>
<path d="M585 281 c-3 -6 4 -15 17 -22 12 -6 52 -40 89 -75 73 -68 88 -73 147
-48 l37 16 -70 25 c-38 14 -98 45 -133 69 -67 46 -77 50 -87 35z"/>
<path d="M225 260 c-8 -25 -89 -96 -140 -123 -50 -26 -30 -34 32 -13 53 18
163 100 163 121 0 12 -29 35 -44 35 -2 0 -7 -9 -11 -20z"/>
<path d="M475 245 c-33 -8 -88 -17 -123 -20 -54 -6 -61 -9 -50 -22 8 -10 23
-13 45 -10 25 4 33 2 33 -9 0 -22 -100 -117 -144 -138 -47 -22 -42 -29 9 -15
83 23 189 114 182 156 -4 19 1 23 39 29 62 9 78 1 70 -37 -3 -17 -12 -43 -19
-58 -11 -23 -18 -26 -55 -24 l-43 2 26 -30 c14 -17 25 -35 25 -40 0 -5 9 -9
20 -9 31 0 68 42 76 86 4 22 13 57 21 79 13 38 13 41 -8 58 -24 19 -24 19
-104 2z"/>
</g>
</svg>
