<?xml version="1.0" standalone="no"?>
<!DOCTYPE svg PUBLIC "-//W3C//DTD SVG 20010904//EN"
 "http://www.w3.org/TR/2001/REC-SVG-20010904/DTD/svg10.dtd">
<svg version="1.0" xmlns="http://www.w3.org/2000/svg"
 width="96.000000pt" height="68.000000pt" viewBox="0 0 96.000000 68.000000"
 preserveAspectRatio="xMidYMid meet">
<metadata>
Created by potrace 1.16, written by Peter Selinger 2001-2019
</metadata>
<g transform="translate(0.000000,68.000000) scale(0.100000,-0.100000)"
fill="#000000" stroke="none">
<path d="M648 466 l4 -134 -49 -5 c-26 -4 -74 -9 -105 -12 -32 -4 -58 -11 -58
-16 0 -7 27 -13 51 -11 3 1 40 4 82 8 l77 7 0 -131 c0 -72 4 -133 8 -136 25
-15 34 17 39 142 l6 132 46 1 c25 1 60 5 76 9 l30 7 -30 12 c-16 7 -50 11 -75
9 l-45 -3 0 118 c0 122 -5 136 -45 137 -13 0 -14 -20 -12 -134z"/>
<path d="M345 560 c-11 -12 -57 -40 -104 -63 -67 -33 -80 -43 -61 -45 13 -2
42 1 63 8 46 14 57 5 57 -46 0 -35 -4 -37 -117 -50 -66 -7 -81 -19 -38 -30 24
-6 49 -3 109 12 37 9 33 -10 -11 -65 -44 -54 -66 -76 -111 -113 -19 -16 -28
-28 -22 -28 24 0 131 72 156 106 15 19 29 32 31 30 3 -3 0 -46 -7 -96 -13
-103 -8 -143 18 -138 20 4 30 57 31 171 1 42 4 77 7 77 4 0 17 -11 30 -25 27
-30 54 -33 54 -6 0 17 -15 26 -72 45 -11 3 -18 15 -18 30 0 22 5 25 48 31 74
10 82 19 18 23 l-58 3 6 40 c6 35 4 41 -16 48 -20 8 -16 11 35 26 56 16 70 32
45 53 -28 22 -55 22 -73 2z"/>
<path d="M500 506 c0 -12 61 -66 74 -66 8 0 16 7 20 15 6 16 -18 45 -37 45 -7
0 -22 3 -34 6 -13 4 -23 3 -23 0z"/>
<path d="M518 380 c37 -34 50 -37 59 -14 8 22 -22 44 -61 44 l-31 -1 33 -29z"/>
</g>
</svg>
