<?xml version="1.0" standalone="no"?>
<!DOCTYPE svg PUBLIC "-//W3C//DTD SVG 20010904//EN"
 "http://www.w3.org/TR/2001/REC-SVG-20010904/DTD/svg10.dtd">
<svg version="1.0" xmlns="http://www.w3.org/2000/svg"
 width="96.000000pt" height="68.000000pt" viewBox="0 0 96.000000 68.000000"
 preserveAspectRatio="xMidYMid meet">
<metadata>
Created by potrace 1.16, written by Peter Selinger 2001-2019
</metadata>
<g transform="translate(0.000000,68.000000) scale(0.100000,-0.100000)"
fill="#000000" stroke="none">
<path d="M547 564 c-3 -3 -2 -14 3 -23 5 -9 16 -40 26 -70 19 -63 20 -62 -72
-80 -54 -11 -64 -16 -58 -30 10 -24 20 -171 12 -171 -5 0 -8 -22 -8 -50 0 -31
4 -50 11 -50 7 0 37 21 68 47 31 26 58 48 60 50 2 2 2 5 0 8 -3 2 -22 -7 -42
-20 -61 -42 -60 -44 -50 107 l5 78 37 10 c54 15 56 14 76 -32 10 -24 26 -62
36 -85 25 -56 25 -57 -16 -98 -38 -37 -27 -48 15 -15 26 21 50 26 50 11 0 -16
93 -113 118 -122 14 -5 27 -8 29 -5 7 6 -20 156 -28 156 -3 0 -9 -18 -13 -40
-3 -22 -12 -40 -19 -40 -14 0 -67 72 -67 92 0 7 12 30 26 51 29 43 28 71 -2
75 -16 2 -23 -5 -33 -39 l-13 -42 -17 29 c-22 38 -44 112 -36 124 3 6 21 10
38 11 18 1 43 4 57 8 l25 8 -27 13 c-20 9 -37 10 -68 2 -45 -11 -42 -14 -54
73 -7 48 -46 82 -69 59z"/>
<path d="M255 533 c-17 -74 -81 -182 -143 -239 -32 -29 -34 -34 -16 -34 11 0
39 16 61 35 50 43 88 47 95 10 6 -30 6 -31 -54 -39 -65 -10 -61 -26 7 -26 l55
0 0 -54 c0 -52 -1 -54 -31 -60 -17 -3 -53 -6 -80 -6 -56 0 -66 -19 -24 -46 23
-15 31 -14 155 26 135 44 168 67 79 55 l-50 -7 3 53 3 53 43 9 c55 11 54 27
-2 27 -41 0 -44 2 -42 25 0 14 4 25 8 25 4 0 19 5 34 10 20 8 24 14 16 22 -8
8 -27 8 -72 -1 -34 -7 -64 -10 -66 -8 -3 3 12 32 34 66 l38 61 29 -30 c32 -33
53 -38 62 -15 7 19 -21 51 -50 59 -12 3 -26 15 -32 28 -5 13 -20 24 -32 26
-17 3 -24 -3 -28 -25z"/>
<path d="M670 541 c0 -13 50 -51 66 -51 28 0 14 38 -17 49 -39 13 -49 14 -49
2z"/>
<path d="M339 208 c-7 -18 -14 -36 -17 -40 -8 -17 25 -7 53 16 25 20 28 26 16
40 -21 25 -38 19 -52 -16z"/>
<path d="M150 197 c0 -21 47 -60 64 -54 23 9 20 33 -6 51 -27 19 -58 21 -58 3z"/>
</g>
</svg>
