<?xml version="1.0" standalone="no"?>
<!DOCTYPE svg PUBLIC "-//W3C//DTD SVG 20010904//EN"
 "http://www.w3.org/TR/2001/REC-SVG-20010904/DTD/svg10.dtd">
<svg version="1.0" xmlns="http://www.w3.org/2000/svg"
 width="96.000000pt" height="68.000000pt" viewBox="0 0 96.000000 68.000000"
 preserveAspectRatio="xMidYMid meet">
<metadata>
Created by potrace 1.16, written by Peter Selinger 2001-2019
</metadata>
<g transform="translate(0.000000,68.000000) scale(0.100000,-0.100000)"
fill="#000000" stroke="none">
<path d="M276 601 c-3 -4 -1 -25 4 -47 5 -21 10 -60 10 -85 l0 -46 -62 -9 -63
-8 60 -6 60 -5 0 -49 0 -49 -82 -31 c-46 -17 -83 -34 -83 -39 0 -4 11 -12 24
-19 21 -9 33 -6 80 21 l56 31 0 -52 c0 -69 -9 -82 -49 -73 l-31 7 42 -41 c22
-23 45 -41 49 -41 5 0 16 14 25 32 13 25 15 47 9 112 l-6 82 40 22 c50 28 55
48 6 25 -19 -9 -37 -14 -41 -11 -3 3 -2 22 1 42 6 28 13 37 34 42 54 12 58 14
38 26 -10 5 -30 7 -44 3 l-26 -6 7 52 c4 29 12 61 18 72 6 11 6 23 1 28 -14
14 -72 29 -77 20z"/>
</g>
</svg>
