<?xml version="1.0" standalone="no"?>
<!DOCTYPE svg PUBLIC "-//W3C//DTD SVG 20010904//EN"
 "http://www.w3.org/TR/2001/REC-SVG-20010904/DTD/svg10.dtd">
<svg version="1.0" xmlns="http://www.w3.org/2000/svg"
 width="96.000000pt" height="68.000000pt" viewBox="0 0 96.000000 68.000000"
 preserveAspectRatio="xMidYMid meet">
<metadata>
Created by potrace 1.16, written by Peter Selinger 2001-2019
</metadata>
<g transform="translate(0.000000,68.000000) scale(0.100000,-0.100000)"
fill="#000000" stroke="none">
<path d="M244 530 c19 -126 19 -117 -6 -124 -13 -3 -37 -6 -55 -6 -17 0 -35
-4 -38 -10 -4 -6 15 -10 49 -10 55 0 55 0 61 -34 4 -19 2 -42 -3 -52 -6 -11
-49 -39 -96 -63 -68 -35 -84 -47 -75 -58 21 -25 60 -14 115 33 l54 46 0 -69
c0 -78 -10 -96 -47 -82 -23 8 -22 7 8 -31 18 -22 36 -40 40 -40 4 0 15 10 23
22 12 17 16 48 16 125 0 102 0 102 30 125 17 12 30 26 30 30 0 5 -13 2 -30 -7
l-30 -16 0 41 c0 39 1 40 40 46 64 10 48 31 -18 25 -23 -2 -24 0 -17 41 4 24
12 52 17 62 13 23 -12 46 -50 46 -22 0 -23 -3 -18 -40z"/>
</g>
</svg>
