<?xml version="1.0" standalone="no"?>
<!DOCTYPE svg PUBLIC "-//W3C//DTD SVG 20010904//EN"
 "http://www.w3.org/TR/2001/REC-SVG-20010904/DTD/svg10.dtd">
<svg version="1.0" xmlns="http://www.w3.org/2000/svg"
 width="96.000000pt" height="68.000000pt" viewBox="0 0 96.000000 68.000000"
 preserveAspectRatio="xMidYMid meet">
<metadata>
Created by potrace 1.16, written by Peter Selinger 2001-2019
</metadata>
<g transform="translate(0.000000,68.000000) scale(0.100000,-0.100000)"
fill="#000000" stroke="none">
<path d="M560 209 c0 -12 -4 -17 -11 -13 -8 5 -8 1 0 -13 6 -11 7 -23 4 -27
-14 -14 12 -5 28 10 19 17 57 23 172 24 49 1 75 5 71 11 -3 6 -13 8 -21 5 -9
-4 -11 -2 -7 6 5 8 1 9 -12 4 -10 -4 -41 -9 -69 -12 -27 -2 -62 -6 -77 -8 -16
-2 -28 2 -28 7 0 7 -4 7 -12 -1 -7 -7 -16 -12 -22 -12 -5 0 1 9 14 20 l23 20
-26 0 c-21 0 -27 -5 -27 -21z"/>
<path d="M450 180 c-24 -8 -23 -8 8 -9 17 -1 32 4 32 9 0 11 -5 11 -40 0z"/>
<path d="M500 180 c0 -5 7 -7 15 -4 8 4 15 8 15 10 0 2 -7 4 -15 4 -8 0 -15
-4 -15 -10z"/>
<path d="M516 110 c-14 -17 -28 -30 -31 -30 -3 0 -13 -4 -23 -9 -9 -6 -12 -11
-5 -11 6 0 15 5 18 10 4 6 10 8 14 5 10 -6 51 28 51 43 0 6 6 13 13 15 8 4 8
6 0 6 -6 1 -23 -13 -37 -29z"/>
<path d="M670 121 c13 -11 29 -17 34 -14 5 3 6 1 3 -4 -8 -13 51 -63 75 -63
35 0 -12 51 -69 76 -64 29 -76 30 -43 5z"/>
</g>
</svg>
