<?xml version="1.0" standalone="no"?>
<!DOCTYPE svg PUBLIC "-//W3C//DTD SVG 20010904//EN"
 "http://www.w3.org/TR/2001/REC-SVG-20010904/DTD/svg10.dtd">
<svg version="1.0" xmlns="http://www.w3.org/2000/svg"
 width="96.000000pt" height="68.000000pt" viewBox="0 0 96.000000 68.000000"
 preserveAspectRatio="xMidYMid meet">
<metadata>
Created by potrace 1.16, written by Peter Selinger 2001-2019
</metadata>
<g transform="translate(0.000000,68.000000) scale(0.100000,-0.100000)"
fill="#000000" stroke="none">
<path d="M557 523 c-4 -3 -7 -23 -7 -44 0 -42 -37 -116 -91 -184 -64 -81 -84
-80 -115 3 -22 59 -32 72 -54 72 -17 0 -17 -3 2 -52 11 -29 29 -68 40 -86 26
-42 20 -49 -79 -98 -42 -21 -72 -39 -65 -42 14 -4 115 32 161 59 33 20 34 20
92 -1 113 -39 319 -17 319 34 0 8 -33 32 -75 54 -74 39 -90 37 -59 -6 9 -13
13 -26 9 -30 -11 -11 -169 -14 -184 -3 -12 8 -8 18 25 53 22 24 51 59 66 78
30 39 102 170 96 174 -24 21 -69 32 -81 19z"/>
<path d="M320 502 c0 -15 59 -91 78 -101 24 -13 32 -5 32 30 0 21 -9 35 -37
54 -37 25 -73 33 -73 17z"/>
<path d="M160 317 c-35 -66 -36 -97 -2 -97 25 0 37 15 52 67 12 40 8 93 -8 93
-5 0 -23 -28 -42 -63z"/>
<path d="M705 320 c69 -70 105 -80 105 -29 0 17 -6 36 -12 43 -19 18 -95 46
-125 46 -26 0 -25 -3 32 -60z"/>
</g>
</svg>
