<?xml version="1.0" standalone="no"?>
<!DOCTYPE svg PUBLIC "-//W3C//DTD SVG 20010904//EN"
 "http://www.w3.org/TR/2001/REC-SVG-20010904/DTD/svg10.dtd">
<svg version="1.0" xmlns="http://www.w3.org/2000/svg"
 width="96.000000pt" height="68.000000pt" viewBox="0 0 96.000000 68.000000"
 preserveAspectRatio="xMidYMid meet">
<metadata>
Created by potrace 1.16, written by Peter Selinger 2001-2019
</metadata>
<g transform="translate(0.000000,68.000000) scale(0.100000,-0.100000)"
fill="#000000" stroke="none">
<path d="M540 262 c0 -35 -15 -41 -105 -43 -33 -1 -73 -5 -90 -9 l-30 -7 28
-8 c16 -4 66 -3 110 2 45 6 85 8 90 6 4 -2 7 -44 7 -94 0 -49 4 -89 9 -89 14
0 31 59 31 111 0 81 -2 79 127 79 84 0 114 3 111 12 -6 16 -56 29 -93 23 -16
-2 -54 -7 -83 -10 l-54 -6 4 28 c3 25 0 28 -29 31 -31 3 -33 1 -33 -26z"/>
</g>
</svg>
