<?xml version="1.0" standalone="no"?>
<!DOCTYPE svg PUBLIC "-//W3C//DTD SVG 20010904//EN"
 "http://www.w3.org/TR/2001/REC-SVG-20010904/DTD/svg10.dtd">
<svg version="1.0" xmlns="http://www.w3.org/2000/svg"
 width="90.000000pt" height="92.000000pt" viewBox="0 0 90.000000 92.000000"
 preserveAspectRatio="xMidYMid meet">
<metadata>
Created by potrace 1.16, written by Peter Selinger 2001-2019
</metadata>
<g transform="translate(0.000000,92.000000) scale(0.100000,-0.100000)"
fill="#000000" stroke="none">
<path d="M545 783 c-9 -65 -56 -190 -101 -271 l-37 -67 49 46 c40 38 56 47 88
47 l39 1 -6 -85 c-2 -47 -8 -88 -11 -91 -3 -4 -22 12 -42 35 -36 43 -64 54
-64 27 0 -9 7 -18 15 -22 9 -3 29 -25 46 -50 l31 -44 -41 -54 c-29 -39 -57
-61 -102 -84 l-62 -31 38 0 c51 0 119 34 166 82 l37 38 46 -65 c51 -71 70 -85
114 -85 40 0 136 30 126 39 -5 5 -36 17 -68 27 -59 18 -156 75 -190 113 -13
14 -15 24 -8 38 6 10 17 58 26 107 16 80 16 90 1 106 -15 16 -12 18 42 28 32
7 67 13 77 14 27 4 24 21 -8 36 -24 12 -37 10 -119 -17 -51 -17 -95 -31 -99
-31 -4 0 1 15 11 33 11 17 34 67 52 111 l33 78 -25 19 c-37 28 -46 23 -54 -28z"/>
<path d="M167 732 c-3 -4 7 -31 22 -59 33 -60 37 -56 -77 -69 -63 -7 -82 -16
-60 -30 36 -23 368 27 368 55 0 4 -12 13 -26 20 -20 9 -36 8 -77 -4 -28 -8
-52 -15 -54 -15 -2 0 -3 16 -3 35 0 25 -6 38 -22 49 -32 20 -65 28 -71 18z"/>
<path d="M280 546 c0 -17 83 -94 96 -89 22 8 17 51 -9 68 -25 16 -87 31 -87
21z"/>
<path d="M155 513 c-7 -29 -51 -97 -97 -149 -17 -19 -26 -34 -21 -34 30 0 200
161 189 179 -3 5 -19 14 -35 19 -27 9 -30 8 -36 -15z"/>
<path d="M289 438 c0 -2 -1 -22 -3 -46 -1 -23 -10 -50 -18 -59 -15 -14 -20
-14 -63 11 -26 15 -49 26 -51 23 -2 -2 12 -25 32 -51 l36 -48 -33 -35 c-19
-19 -68 -57 -109 -84 -41 -27 -69 -49 -62 -49 27 0 149 63 192 99 l45 38 39
-33 c21 -18 43 -31 47 -28 18 11 8 53 -20 83 l-29 31 34 45 c19 25 34 52 34
60 0 16 -67 57 -71 43z"/>
</g>
</svg>
