<?xml version="1.0" standalone="no"?>
<!DOCTYPE svg PUBLIC "-//W3C//DTD SVG 20010904//EN"
 "http://www.w3.org/TR/2001/REC-SVG-20010904/DTD/svg10.dtd">
<svg version="1.0" xmlns="http://www.w3.org/2000/svg"
 width="96.000000pt" height="68.000000pt" viewBox="0 0 96.000000 68.000000"
 preserveAspectRatio="xMidYMid meet">
<metadata>
Created by potrace 1.16, written by Peter Selinger 2001-2019
</metadata>
<g transform="translate(0.000000,68.000000) scale(0.100000,-0.100000)"
fill="#000000" stroke="none">
<path d="M246 536 c-9 -24 -35 -65 -57 -90 -23 -25 -38 -46 -34 -46 12 0 50
23 75 45 27 24 90 41 90 24 0 -5 -11 -27 -25 -47 -15 -23 -21 -38 -14 -41 14
-4 131 111 121 120 -14 14 -47 14 -80 0 -42 -18 -50 -9 -23 25 20 25 20 27 4
40 -29 22 -39 16 -57 -30z"/>
</g>
</svg>
