<?xml version="1.0" standalone="no"?>
<!DOCTYPE svg PUBLIC "-//W3C//DTD SVG 20010904//EN"
 "http://www.w3.org/TR/2001/REC-SVG-20010904/DTD/svg10.dtd">
<svg version="1.0" xmlns="http://www.w3.org/2000/svg"
 width="96.000000pt" height="68.000000pt" viewBox="0 0 96.000000 68.000000"
 preserveAspectRatio="xMidYMid meet">
<metadata>
Created by potrace 1.16, written by Peter Selinger 2001-2019
</metadata>
<g transform="translate(0.000000,68.000000) scale(0.100000,-0.100000)"
fill="#000000" stroke="none">
<path d="M480 524 c0 -69 1 -68 -63 -79 -34 -5 -38 -4 -34 12 3 10 8 39 12 66
6 45 5 47 -19 47 -25 0 -26 -2 -26 -64 0 -83 8 -89 99 -80 39 3 69 10 66 14
-2 3 2 31 10 61 19 70 20 65 -15 78 l-30 10 0 -65z"/>
</g>
</svg>
