<?xml version="1.0" standalone="no"?>
<!DOCTYPE svg PUBLIC "-//W3C//DTD SVG 20010904//EN"
 "http://www.w3.org/TR/2001/REC-SVG-20010904/DTD/svg10.dtd">
<svg version="1.0" xmlns="http://www.w3.org/2000/svg"
 width="90.000000pt" height="92.000000pt" viewBox="0 0 90.000000 92.000000"
 preserveAspectRatio="xMidYMid meet">
<metadata>
Created by potrace 1.16, written by Peter Selinger 2001-2019
</metadata>
<g transform="translate(0.000000,92.000000) scale(0.100000,-0.100000)"
fill="#000000" stroke="none">
<path d="M510 851 c0 -10 -19 -39 -41 -65 -37 -42 -46 -47 -78 -44 -28 2 -35
0 -31 -12 8 -27 3 -154 -10 -215 -14 -68 -53 -167 -82 -207 -11 -16 -15 -28
-10 -28 13 0 71 66 84 96 18 38 28 18 28 -54 0 -102 27 -129 37 -37 5 43 7 45
39 45 32 0 34 -2 34 -32 0 -18 5 -40 10 -48 9 -13 11 -13 20 0 5 8 10 32 10
53 0 30 4 37 19 37 11 0 25 2 33 5 10 4 12 -7 10 -47 -3 -60 11 -94 28 -68 5
8 10 33 10 55 0 55 9 64 69 74 l52 8 -6 -41 c-11 -73 -14 -76 -51 -76 -19 0
-34 -2 -34 -5 0 -10 53 -85 60 -85 16 0 59 53 64 78 3 15 8 59 11 97 3 39 11
86 17 104 10 33 9 37 -23 63 -18 15 -40 26 -49 23 -25 -8 -289 -45 -320 -45
-19 0 -28 4 -26 13 3 6 7 23 10 37 4 18 12 25 28 25 70 1 238 29 235 39 -5 14
21 76 41 99 14 16 14 19 -1 34 -21 21 -66 21 -142 1 -83 -22 -135 -30 -135
-21 0 5 13 14 29 21 43 19 151 93 151 104 0 9 -60 38 -80 38 -5 0 -10 -8 -10
-19z m116 -173 c-3 -13 -6 -30 -6 -39 0 -12 -22 -20 -87 -32 -123 -24 -123
-24 -123 18 0 24 5 38 17 42 27 10 135 31 172 32 30 1 33 -1 27 -21z m-48
-250 c-3 -39 -6 -43 -30 -46 -26 -3 -28 -1 -28 37 0 40 1 41 53 50 5 0 7 -18
5 -41z m156 26 c3 -9 6 -29 6 -45 0 -26 -2 -29 -19 -19 -11 5 -36 10 -55 10
-34 0 -36 2 -36 35 l0 35 49 0 c35 0 51 -4 55 -16z m-256 -46 l3 -38 -40 0
c-40 0 -41 1 -41 34 0 36 13 46 55 43 16 -2 21 -10 23 -39z"/>
<path d="M100 743 c0 -6 20 -31 44 -57 54 -58 89 -61 94 -8 3 29 0 34 -34 48
-49 21 -104 29 -104 17z"/>
<path d="M120 514 c-30 -12 -64 -26 -75 -29 -19 -6 -19 -7 3 -17 17 -9 34 -9
65 -1 23 7 43 10 45 9 1 -2 -4 -22 -12 -45 -15 -39 -14 -43 9 -77 26 -38 41
-96 30 -113 -3 -7 -42 -11 -91 -11 -67 0 -84 -3 -84 -15 0 -26 44 -47 74 -35
15 5 57 10 94 10 56 -1 88 -9 197 -51 72 -28 162 -62 201 -77 l70 -26 100 32
c54 17 108 38 119 46 19 14 17 15 -25 16 -198 3 -403 32 -532 76 -39 13 -80
24 -90 24 -15 0 -17 3 -8 19 20 37 12 81 -20 113 l-31 31 41 48 c22 26 40 52
40 58 0 12 -40 41 -55 40 -5 -1 -35 -12 -65 -25z"/>
</g>
</svg>
