<?xml version="1.0" standalone="no"?>
<!DOCTYPE svg PUBLIC "-//W3C//DTD SVG 20010904//EN"
 "http://www.w3.org/TR/2001/REC-SVG-20010904/DTD/svg10.dtd">
<svg version="1.0" xmlns="http://www.w3.org/2000/svg"
 width="96.000000pt" height="68.000000pt" viewBox="0 0 96.000000 68.000000"
 preserveAspectRatio="xMidYMid meet">
<metadata>
Created by potrace 1.16, written by Peter Selinger 2001-2019
</metadata>
<g transform="translate(0.000000,68.000000) scale(0.100000,-0.100000)"
fill="#000000" stroke="none">
<path d="M700 554 c0 -29 -5 -36 -32 -48 -28 -12 -30 -14 -10 -15 17 -1 22 -7
22 -28 l1 -28 20 28 c17 22 28 27 64 27 40 0 65 13 51 27 -3 3 -23 5 -46 5
-37 -1 -39 1 -30 19 13 23 7 35 -20 42 -17 4 -20 0 -20 -29z"/>
<path d="M500 541 c0 -6 5 -13 10 -16 23 -14 8 -34 -30 -40 -53 -9 -41 -29 13
-22 31 4 44 2 54 -11 11 -16 12 -15 13 4 0 12 10 26 23 32 l22 11 -22 0 c-16
1 -23 7 -23 20 0 19 -18 31 -46 31 -8 0 -14 -4 -14 -9z"/>
<path d="M290 528 c-30 -5 -71 -7 -90 -5 l-35 4 0 -132 c0 -74 3 -136 7 -140
4 -4 22 -2 40 3 18 6 64 13 102 17 l69 6 -5 -80 c-5 -94 -17 -113 -61 -104
l-32 5 31 -32 c27 -28 34 -31 53 -21 28 15 46 62 54 136 4 33 9 69 13 81 6 24
-28 44 -76 44 -25 0 -30 4 -30 24 0 20 6 25 40 31 23 4 37 11 34 17 -4 5 -21
7 -40 3 -31 -5 -34 -4 -34 19 0 21 6 25 41 31 46 8 45 17 -3 19 -25 1 -34 6
-36 22 -3 19 4 22 47 28 53 7 72 20 45 30 -20 8 -66 6 -134 -6z m-2 -63 c-2
-16 -8 -25 -19 -25 -10 0 -24 -3 -33 -6 -13 -5 -16 1 -16 25 0 29 3 31 35 31
31 0 35 -3 33 -25z m2 -70 c0 -22 -4 -25 -35 -25 -31 0 -35 3 -35 25 0 22 4
25 35 25 31 0 35 -3 35 -25z m3 -64 c5 -21 -10 -31 -49 -31 -19 0 -24 5 -24
25 0 22 4 25 34 25 25 0 35 -5 39 -19z"/>
<path d="M665 424 c-11 -2 -50 -6 -88 -9 -71 -7 -83 -25 -16 -25 30 0 39 -4
40 -17 3 -31 -2 -137 -6 -141 -2 -2 -31 -6 -64 -9 -89 -8 -91 -27 -2 -21 69 5
71 4 71 -18 0 -22 -4 -24 -49 -24 -28 0 -53 -5 -56 -10 -4 -6 15 -10 49 -10
l54 0 7 -65 c4 -36 11 -65 15 -65 11 0 20 38 20 86 l0 41 70 7 c39 4 70 11 70
17 0 5 -32 9 -71 9 -67 0 -70 1 -67 22 3 20 9 22 88 26 47 2 87 6 90 8 14 15
-33 24 -97 19 -83 -8 -76 -15 -77 92 -1 58 1 63 20 63 37 0 84 12 84 21 0 9
-41 10 -85 3z"/>
<path d="M720 361 c0 -25 -5 -32 -26 -37 -18 -5 -22 -9 -13 -15 7 -4 17 -5 23
-2 5 4 7 -3 4 -15 -8 -28 8 -29 24 -2 10 15 24 20 55 20 43 0 64 13 37 24 -9
3 -26 6 -38 6 -17 0 -22 6 -22 23 1 16 -5 23 -21 25 -20 3 -23 -1 -23 -27z"/>
<path d="M480 361 c0 -6 5 -13 10 -16 20 -12 10 -35 -15 -35 -14 0 -25 -4 -25
-10 0 -5 13 -10 30 -10 19 0 33 -7 40 -20 13 -24 30 -18 23 8 -3 12 3 22 19
29 l23 12 -27 0 c-21 1 -29 7 -34 26 -6 24 -44 37 -44 16z"/>
<path d="M312 228 c6 -16 36 -34 44 -25 9 9 -15 37 -33 37 -8 0 -13 -5 -11
-12z"/>
<path d="M240 222 c0 -5 11 -19 24 -31 18 -17 26 -19 32 -10 4 7 -2 19 -16 31
-24 19 -40 23 -40 10z"/>
<path d="M106 185 c-20 -36 -16 -65 8 -65 17 0 26 21 26 60 0 42 -13 44 -34 5z"/>
<path d="M170 213 c0 -4 9 -19 20 -33 19 -25 37 -23 27 4 -6 16 -47 41 -47 29z"/>
</g>
</svg>
