<?xml version="1.0" standalone="no"?>
<!DOCTYPE svg PUBLIC "-//W3C//DTD SVG 20010904//EN"
 "http://www.w3.org/TR/2001/REC-SVG-20010904/DTD/svg10.dtd">
<svg version="1.0" xmlns="http://www.w3.org/2000/svg"
 width="90.000000pt" height="92.000000pt" viewBox="0 0 90.000000 92.000000"
 preserveAspectRatio="xMidYMid meet">
<metadata>
Created by potrace 1.16, written by Peter Selinger 2001-2019
</metadata>
<g transform="translate(0.000000,92.000000) scale(0.100000,-0.100000)"
fill="#000000" stroke="none">
<path d="M500 863 c-12 -27 -38 -65 -58 -86 -37 -38 -26 -42 25 -10 19 12 26
12 54 -3 l33 -17 -25 -20 c-13 -11 -48 -31 -77 -44 -58 -27 -64 -38 -14 -24
19 6 34 6 37 0 4 -5 19 -9 36 -9 22 0 29 -5 29 -20 0 -14 -9 -21 -37 -25 -79
-13 -86 -16 -75 -27 9 -9 32 -9 89 0 43 6 108 14 146 18 58 5 66 8 55 21 -10
12 -26 14 -81 8 -63 -6 -68 -5 -65 12 2 12 14 19 36 21 17 2 32 7 32 12 0 15
-27 19 -66 9 -22 -4 -52 -9 -68 -9 -25 0 -22 3 25 28 l54 28 55 -33 c34 -21
68 -33 90 -33 37 0 115 19 108 25 -2 3 -36 11 -76 20 -40 8 -89 22 -109 31
l-38 16 43 37 c23 20 42 40 42 44 0 13 -62 38 -78 32 -10 -4 -30 -11 -45 -16
-25 -7 -27 -6 -16 7 9 11 8 18 -6 34 -10 11 -22 20 -26 20 -4 0 -17 -21 -29
-47z m110 -64 c-16 -28 -30 -31 -75 -15 l-40 14 35 10 c19 6 48 11 63 11 25 1
27 -1 17 -20z"/>
<path d="M230 879 c0 -6 9 -24 20 -39 l20 -28 -62 -9 c-59 -7 -81 -24 -41 -31
16 -2 48 -70 38 -80 -2 -2 -41 -9 -87 -16 l-83 -12 27 -18 c26 -17 30 -17 121
3 53 11 127 24 166 27 50 5 71 11 71 20 0 15 -17 18 -64 15 l-29 -3 24 33 c15
22 19 34 11 37 -19 6 -14 22 7 22 11 0 22 4 26 9 9 15 -32 32 -60 25 -19 -5
-25 -2 -25 10 0 10 -15 23 -35 32 -41 17 -45 17 -45 3z m81 -142 c-9 -26 -18
-36 -39 -39 -23 -3 -27 0 -29 21 0 14 -9 30 -18 37 -15 11 -12 14 21 19 22 4
44 8 49 10 20 6 27 -14 16 -48z"/>
<path d="M280 634 c-25 -8 -66 -15 -92 -15 -45 -2 -60 -10 -39 -23 5 -4 12
-25 16 -49 11 -62 21 -77 55 -77 23 0 30 -4 30 -20 0 -15 -7 -20 -27 -21 -16
0 -62 -6 -103 -12 l-75 -12 26 -18 c24 -16 31 -16 90 -2 90 21 89 21 89 -27 0
-24 5 -50 10 -58 16 -24 30 6 30 62 l0 47 60 7 c78 9 75 29 -3 29 -48 0 -57 2
-57 17 0 18 5 20 44 22 20 1 23 5 59 84 l24 53 -28 14 c-33 18 -50 18 -109 -1z
m70 -38 c0 -9 -22 -16 -62 -22 -85 -11 -82 -11 -86 7 -2 12 11 18 65 25 74 11
83 9 83 -10z m-12 -58 c-4 -11 -79 -38 -110 -38 -11 0 -18 8 -18 19 0 15 8 21
33 24 69 8 99 7 95 -5z"/>
<path d="M575 565 c-27 -7 -66 -14 -86 -14 l-36 -1 4 -72 c6 -101 11 -121 28
-114 21 8 19 -4 -9 -45 -20 -30 -30 -36 -50 -32 -15 3 -26 1 -26 -4 0 -16 71
-93 85 -93 30 0 26 65 -5 75 -29 9 78 110 124 118 20 3 36 2 36 -4 0 -5 7 -9
15 -9 15 0 22 28 28 123 4 55 2 59 -24 73 -15 8 -29 13 -31 13 -2 -1 -25 -7
-53 -14z m55 -39 c0 -8 -8 -15 -17 -14 -10 0 -42 -4 -70 -8 -45 -6 -53 -4 -53
9 0 17 24 23 98 26 30 1 42 -3 42 -13z m0 -50 c0 -12 -64 -26 -122 -26 -41 0
-14 18 40 28 81 14 82 13 82 -2z m-1 -60 c-2 -2 -34 -7 -71 -11 -58 -6 -68 -4
-68 9 0 8 6 13 13 11 6 -2 37 -1 67 3 46 6 73 0 59 -12z"/>
<path d="M600 353 c1 -18 68 -85 79 -79 19 12 12 45 -11 60 -30 18 -68 29 -68
19z"/>
<path d="M125 213 c-30 -57 -35 -101 -13 -114 18 -12 43 16 57 62 12 39 8 94
-8 103 -3 3 -20 -21 -36 -51z"/>
<path d="M247 264 c-9 -9 44 -118 71 -147 54 -58 96 -72 217 -72 93 0 115 3
145 21 48 28 49 48 3 78 -21 14 -51 35 -67 47 l-28 22 8 -24 c17 -52 11 -72
-26 -82 -55 -14 -152 -3 -202 24 -33 18 -49 37 -68 76 -23 49 -41 68 -53 57z"/>
<path d="M751 203 c52 -70 60 -76 78 -58 23 23 2 66 -44 92 -71 40 -81 30 -34
-34z"/>
</g>
</svg>
