<?xml version="1.0" standalone="no"?>
<!DOCTYPE svg PUBLIC "-//W3C//DTD SVG 20010904//EN"
 "http://www.w3.org/TR/2001/REC-SVG-20010904/DTD/svg10.dtd">
<svg version="1.0" xmlns="http://www.w3.org/2000/svg"
 width="96.000000pt" height="68.000000pt" viewBox="0 0 96.000000 68.000000"
 preserveAspectRatio="xMidYMid meet">
<metadata>
Created by potrace 1.16, written by Peter Selinger 2001-2019
</metadata>
<g transform="translate(0.000000,68.000000) scale(0.100000,-0.100000)"
fill="#000000" stroke="none">
<path d="M678 512 l5 -99 -87 -8 c-49 -4 -86 -11 -86 -17 0 -7 28 -8 85 -4
l85 7 0 -84 c0 -46 -3 -106 -7 -132 l-6 -47 -37 6 -38 6 46 -45 c46 -46 46
-46 66 -26 18 19 20 33 18 173 l-1 153 60 5 c71 6 75 25 4 26 -49 1 -50 1 -53
35 -2 19 2 51 8 73 13 44 4 60 -41 71 l-26 6 5 -99z"/>
<path d="M395 585 c-22 -8 -72 -14 -111 -14 l-72 -1 5 -63 c3 -34 0 -88 -6
-118 -13 -61 -80 -200 -113 -236 -23 -24 -18 -44 5 -25 8 7 18 8 22 4 5 -4 5
-2 2 4 -3 6 7 18 22 27 16 9 41 41 57 71 l28 54 56 -3 c30 -1 58 -3 63 -4 4 0
7 -40 7 -87 l0 -86 -29 4 c-31 5 -31 0 -2 -34 20 -23 34 -23 54 0 13 15 17 39
17 114 l0 96 56 7 c41 5 53 10 45 18 -8 8 -44 7 -132 -2 -66 -7 -123 -11 -125
-8 -2 2 3 33 12 69 l16 66 99 7 c83 5 99 9 99 23 0 9 11 35 25 57 30 50 30 49
0 63 -31 14 -48 14 -100 -3z m35 -64 c0 -38 -5 -40 -85 -48 l-66 -6 3 34 c3
31 6 34 43 40 22 3 55 7 73 8 29 1 32 -2 32 -28z"/>
<path d="M350 393 c-19 -3 -39 -9 -45 -15 -13 -14 134 -3 149 12 10 10 -29 11
-104 3z"/>
<path d="M540 313 c1 -16 50 -63 65 -63 21 0 19 33 -3 53 -19 17 -62 24 -62
10z"/>
<path d="M242 194 c-13 -26 -21 -48 -18 -51 9 -10 89 74 82 86 -15 24 -42 9
-64 -35z"/>
<path d="M472 208 c28 -36 58 -49 58 -24 0 17 -46 56 -68 56 -11 0 -8 -8 10
-32z"/>
</g>
</svg>
