<?xml version="1.0" standalone="no"?>
<!DOCTYPE svg PUBLIC "-//W3C//DTD SVG 20010904//EN"
 "http://www.w3.org/TR/2001/REC-SVG-20010904/DTD/svg10.dtd">
<svg version="1.0" xmlns="http://www.w3.org/2000/svg"
 width="90.000000pt" height="92.000000pt" viewBox="0 0 90.000000 92.000000"
 preserveAspectRatio="xMidYMid meet">
<metadata>
Created by potrace 1.16, written by Peter Selinger 2001-2019
</metadata>
<g transform="translate(0.000000,92.000000) scale(0.100000,-0.100000)"
fill="#000000" stroke="none">
<path d="M257 798 c-32 -31 -73 -63 -92 -69 -19 -7 -35 -17 -35 -21 0 -13 37
-9 80 8 50 20 63 11 58 -42 l-3 -39 -102 -19 c-57 -10 -103 -23 -103 -27 0 -5
11 -14 24 -21 19 -8 39 -7 90 7 37 10 69 16 71 13 10 -10 -72 -103 -133 -153
-34 -27 -59 -51 -57 -53 10 -10 116 56 163 101 l53 52 -6 -45 c-4 -25 -11 -58
-16 -73 -6 -21 -4 -39 7 -65 l15 -37 14 25 c9 16 14 57 15 115 l0 89 44 -43
c46 -45 66 -47 66 -5 0 19 -8 28 -35 40 -19 7 -44 14 -55 14 -15 0 -20 7 -20
29 0 27 3 29 55 37 44 7 53 12 45 24 -6 9 -23 14 -50 13 l-42 -2 7 39 c5 32 3
41 -9 46 -24 9 -19 20 20 44 38 24 41 46 9 64 -17 10 -27 4 -78 -46z"/>
<path d="M535 823 c13 -67 5 -234 -13 -293 -13 -42 -29 -67 -71 -107 -59 -58
-50 -69 20 -25 30 19 53 46 73 83 16 30 31 56 33 58 4 5 3 5 86 -103 48 -63
61 -75 73 -65 8 6 14 20 14 30 0 25 -58 89 -120 130 -27 19 -48 37 -47 40 1 4
39 34 84 68 87 64 93 77 46 102 -20 11 -27 11 -30 2 -7 -20 -80 -130 -91 -137
-7 -4 -9 15 -6 51 2 32 5 86 8 121 4 65 -6 82 -49 82 -14 0 -16 -6 -10 -37z"/>
<path d="M420 665 c0 -2 10 -25 22 -50 25 -51 51 -57 56 -14 2 19 -5 33 -24
48 -24 19 -54 28 -54 16z"/>
<path d="M651 307 c13 -13 41 -43 63 -66 21 -23 44 -40 50 -38 6 2 11 19 11
38 0 31 -5 36 -54 62 -30 15 -63 27 -74 27 -19 0 -18 -2 4 -23z"/>
<path d="M400 313 c0 -17 77 -108 90 -108 17 0 24 27 16 60 -8 31 -106 76
-106 48z"/>
<path d="M265 269 c31 -97 73 -150 144 -182 94 -43 341 -20 341 31 0 10 -30
37 -70 64 -39 26 -70 45 -70 42 0 -3 9 -17 20 -31 44 -56 19 -73 -104 -73
-114 0 -182 38 -223 124 -21 45 -50 64 -38 25z"/>
<path d="M146 208 c-40 -68 -45 -113 -12 -113 39 0 89 149 57 169 -4 3 -25
-22 -45 -56z"/>
</g>
</svg>
