<?xml version="1.0" standalone="no"?>
<!DOCTYPE svg PUBLIC "-//W3C//DTD SVG 20010904//EN"
 "http://www.w3.org/TR/2001/REC-SVG-20010904/DTD/svg10.dtd">
<svg version="1.0" xmlns="http://www.w3.org/2000/svg"
 width="96.000000pt" height="68.000000pt" viewBox="0 0 96.000000 68.000000"
 preserveAspectRatio="xMidYMid meet">
<metadata>
Created by potrace 1.16, written by Peter Selinger 2001-2019
</metadata>
<g transform="translate(0.000000,68.000000) scale(0.100000,-0.100000)"
fill="#000000" stroke="none">
<path d="M250 439 c-25 -4 -65 -8 -89 -8 -40 -1 -43 -2 -37 -25 3 -13 1 -48
-4 -77 -10 -53 -6 -89 10 -89 13 0 30 67 30 118 0 50 9 55 108 66 l63 7 -3
-73 c-3 -69 -4 -73 -26 -71 -23 3 -23 3 -5 -22 22 -29 49 -32 62 -6 16 30 30
164 19 179 -11 13 -58 14 -128 1z"/>
</g>
</svg>
