<?xml version="1.0" standalone="no"?>
<!DOCTYPE svg PUBLIC "-//W3C//DTD SVG 20010904//EN"
 "http://www.w3.org/TR/2001/REC-SVG-20010904/DTD/svg10.dtd">
<svg version="1.0" xmlns="http://www.w3.org/2000/svg"
 width="90.000000pt" height="92.000000pt" viewBox="0 0 90.000000 92.000000"
 preserveAspectRatio="xMidYMid meet">
<metadata>
Created by potrace 1.16, written by Peter Selinger 2001-2019
</metadata>
<g transform="translate(0.000000,92.000000) scale(0.100000,-0.100000)"
fill="#000000" stroke="none">
<path d="M380 867 c0 -8 13 -32 29 -54 l29 -41 -45 -6 c-25 -3 -81 -6 -123 -6
-65 0 -79 3 -85 17 -4 13 -14 -1 -36 -52 -36 -86 -38 -118 -7 -113 17 2 27 16
41 53 17 48 20 50 55 51 20 1 99 8 174 17 136 17 268 22 268 11 0 -3 -12 -22
-27 -42 -20 -26 -23 -34 -11 -29 9 3 45 11 80 17 34 7 66 14 70 16 13 8 -10
41 -47 69 -34 27 -35 27 -127 16 -51 -6 -104 -13 -118 -16 -24 -3 -26 -1 -22
30 3 29 0 36 -24 48 -50 25 -74 30 -74 14z"/>
<path d="M380 708 c0 -16 26 -58 46 -74 11 -8 -12 -14 -91 -24 -58 -6 -105
-16 -105 -21 0 -13 47 -30 63 -23 9 3 21 -14 35 -53 12 -31 20 -59 18 -60 -2
-2 -60 -7 -130 -11 -71 -4 -127 -11 -128 -17 0 -5 12 -16 27 -24 23 -11 42
-11 124 3 161 27 171 24 171 -49 0 -37 0 -37 -157 -51 -40 -4 -73 -10 -73 -13
0 -4 13 -14 28 -23 22 -13 37 -15 63 -9 19 5 58 12 87 15 l52 7 0 -113 c0 -62
4 -119 9 -126 14 -23 32 44 38 145 l6 92 43 7 c23 3 75 4 115 3 81 -4 100 9
50 35 -24 13 -49 15 -122 9 l-91 -6 7 43 c5 31 4 45 -6 51 -8 5 62 9 168 9
100 0 184 4 187 9 7 11 -22 37 -51 45 -12 4 -61 2 -110 -4 -48 -6 -105 -12
-125 -14 l-38 -4 42 49 c32 38 38 52 29 62 -16 20 -4 27 48 27 l46 1 -29 25
c-30 27 -29 27 -129 7 -24 -5 -28 -3 -27 13 5 44 2 47 -67 68 -16 5 -23 3 -23
-6z m120 -125 c0 -4 -7 -33 -16 -65 -17 -58 -17 -58 -55 -58 -37 0 -39 2 -39
30 0 20 -9 39 -26 55 l-26 24 24 5 c67 15 138 20 138 9z"/>
</g>
</svg>
