<?xml version="1.0" standalone="no"?>
<!DOCTYPE svg PUBLIC "-//W3C//DTD SVG 20010904//EN"
 "http://www.w3.org/TR/2001/REC-SVG-20010904/DTD/svg10.dtd">
<svg version="1.0" xmlns="http://www.w3.org/2000/svg"
 width="96.000000pt" height="68.000000pt" viewBox="0 0 96.000000 68.000000"
 preserveAspectRatio="xMidYMid meet">
<metadata>
Created by potrace 1.16, written by Peter Selinger 2001-2019
</metadata>
<g transform="translate(0.000000,68.000000) scale(0.100000,-0.100000)"
fill="#000000" stroke="none">
<path d="M548 148 c-9 -85 24 -117 127 -126 68 -5 153 12 161 33 3 6 -3 29
-12 51 l-17 39 -8 -31 c-11 -39 -43 -54 -118 -54 -43 0 -65 5 -82 19 -21 17
-22 22 -11 56 13 43 9 55 -18 55 -14 0 -19 -10 -22 -42z"/>
</g>
</svg>
