<?xml version="1.0" standalone="no"?>
<!DOCTYPE svg PUBLIC "-//W3C//DTD SVG 20010904//EN"
 "http://www.w3.org/TR/2001/REC-SVG-20010904/DTD/svg10.dtd">
<svg version="1.0" xmlns="http://www.w3.org/2000/svg"
 width="90.000000pt" height="92.000000pt" viewBox="0 0 90.000000 92.000000"
 preserveAspectRatio="xMidYMid meet">
<metadata>
Created by potrace 1.16, written by Peter Selinger 2001-2019
</metadata>
<g transform="translate(0.000000,92.000000) scale(0.100000,-0.100000)"
fill="#000000" stroke="none">
<path d="M140 784 c0 -10 50 -77 68 -91 22 -18 31 -16 41 10 11 27 -3 55 -32
66 -39 14 -77 22 -77 15z"/>
<path d="M645 769 c-46 -14 -239 -39 -299 -39 l-54 0 15 -42 c17 -49 13 -264
-9 -412 -9 -65 -9 -91 0 -110 13 -30 27 -33 37 -8 4 9 12 133 18 274 l11 257
25 5 c49 10 186 25 251 28 l64 3 7 -40 c12 -68 5 -473 -8 -486 -9 -9 -23 -9
-53 -1 -23 5 -40 7 -38 2 2 -4 25 -32 52 -60 54 -58 68 -58 96 -4 12 24 14 70
12 262 -3 160 0 250 9 285 12 49 11 51 -15 74 -29 24 -68 28 -121 12z"/>
<path d="M530 619 c-36 -10 -80 -18 -98 -18 -42 -1 -39 -24 4 -30 34 -4 184
17 203 28 9 6 9 10 -1 18 -24 19 -43 19 -108 2z"/>
<path d="M60 579 c0 -7 20 -31 44 -55 47 -47 76 -51 76 -9 0 31 -22 52 -68 65
-47 13 -52 13 -52 -1z"/>
<path d="M540 494 c-19 -7 -56 -13 -82 -13 l-47 -1 13 -32 c8 -18 17 -54 20
-80 7 -48 19 -67 31 -48 3 5 36 10 73 10 l67 0 1 44 c0 24 8 54 17 67 23 32
21 44 -8 57 -31 14 -39 14 -85 -4z m36 -76 c-8 -48 -18 -58 -62 -58 -27 0 -32
4 -38 31 -12 62 -8 66 68 68 l39 1 -7 -42z"/>
<path d="M204 388 c-21 -40 -59 -93 -83 -117 -42 -42 -43 -45 -32 -80 6 -20
17 -45 25 -56 14 -19 14 -19 25 5 31 77 105 269 112 293 14 48 -7 29 -47 -45z"/>
</g>
</svg>
