<?xml version="1.0" standalone="no"?>
<!DOCTYPE svg PUBLIC "-//W3C//DTD SVG 20010904//EN"
 "http://www.w3.org/TR/2001/REC-SVG-20010904/DTD/svg10.dtd">
<svg version="1.0" xmlns="http://www.w3.org/2000/svg"
 width="96.000000pt" height="68.000000pt" viewBox="0 0 96.000000 68.000000"
 preserveAspectRatio="xMidYMid meet">
<metadata>
Created by potrace 1.16, written by Peter Selinger 2001-2019
</metadata>
<g transform="translate(0.000000,68.000000) scale(0.100000,-0.100000)"
fill="#000000" stroke="none">
<path d="M650 544 c-36 -7 -115 -16 -175 -20 l-110 -7 4 -111 c2 -62 -2 -148
-9 -194 -12 -74 -12 -85 3 -99 9 -9 20 -14 24 -10 8 9 21 188 22 304 1 96 -14
86 156 103 169 16 151 26 159 -90 4 -54 4 -140 0 -191 l-7 -91 -43 6 c-24 3
-44 4 -44 2 0 -2 23 -23 50 -46 41 -35 53 -40 65 -30 26 22 34 80 36 274 l3
188 -24 14 c-29 16 -26 16 -110 -2z"/>
</g>
</svg>
