<?xml version="1.0" standalone="no"?>
<!DOCTYPE svg PUBLIC "-//W3C//DTD SVG 20010904//EN"
 "http://www.w3.org/TR/2001/REC-SVG-20010904/DTD/svg10.dtd">
<svg version="1.0" xmlns="http://www.w3.org/2000/svg"
 width="90.000000pt" height="92.000000pt" viewBox="0 0 90.000000 92.000000"
 preserveAspectRatio="xMidYMid meet">
<metadata>
Created by potrace 1.16, written by Peter Selinger 2001-2019
</metadata>
<g transform="translate(0.000000,92.000000) scale(0.100000,-0.100000)"
fill="#000000" stroke="none">
<path d="M197 864 c-3 -3 -2 -16 2 -28 5 -11 12 -49 16 -83 l7 -62 -61 -12
c-34 -6 -61 -15 -61 -19 0 -15 33 -21 77 -14 l43 6 0 -35 c0 -32 -3 -35 -37
-41 -21 -3 -55 -6 -75 -6 l-36 0 13 -28 c8 -15 17 -55 21 -87 4 -33 11 -70 15
-82 8 -21 10 -21 36 -8 45 24 55 20 51 -22 l-3 -38 -92 -15 c-50 -8 -95 -18
-99 -22 -4 -4 6 -12 21 -18 21 -8 46 -7 97 3 l68 14 0 -26 c0 -14 -5 -45 -10
-68 -8 -33 -6 -51 6 -83 9 -22 19 -40 23 -40 18 0 31 57 31 134 0 96 0 96 85
96 59 0 77 13 49 36 -14 11 -34 13 -77 9 l-58 -6 3 33 c2 26 8 34 26 36 13 2
30 -2 38 -9 21 -18 30 -4 57 86 13 44 27 88 31 97 6 13 -1 22 -26 38 -32 20
-58 21 -100 5 -15 -6 -18 -1 -18 28 0 35 1 35 50 42 27 4 53 11 56 16 8 14
-43 29 -77 22 -28 -5 -30 -4 -25 18 18 88 17 96 -10 118 -27 21 -46 26 -57 15z
m135 -308 c7 -34 -1 -41 -45 -44 -36 -2 -38 -1 -35 25 2 19 10 29 28 34 42 12
47 10 52 -15z m-112 -25 c0 -21 -6 -30 -22 -35 -47 -12 -58 -7 -58 23 0 26 4
30 33 34 17 2 35 5 40 5 4 1 7 -11 7 -27z m104 -68 c-3 -16 -7 -33 -9 -39 -2
-6 -17 -9 -34 -6 -26 4 -31 9 -31 33 0 24 4 28 33 32 17 2 35 5 40 5 4 1 5
-10 1 -25z m-112 -22 c-3 -19 -11 -31 -26 -35 -34 -9 -36 -8 -36 23 0 29 6 33
56 40 6 0 9 -11 6 -28z"/>
<path d="M555 848 c3 -13 9 -55 12 -94 6 -81 11 -76 -97 -90 -77 -9 -93 -19
-55 -34 22 -9 44 -9 84 -1 30 6 58 11 63 11 4 0 8 -22 8 -49 l0 -49 -55 -7
c-30 -3 -64 -3 -76 0 -20 7 -21 5 -14 -16 15 -44 17 -163 5 -257 -10 -84 -10
-96 6 -120 16 -25 18 -25 25 -7 4 11 8 52 8 90 l1 70 50 1 50 1 0 -103 c0
-163 31 -147 45 22 l7 92 56 5 c32 2 59 3 61 1 6 -5 2 -126 -5 -148 -5 -16
-13 -18 -52 -12 l-46 6 49 -50 c27 -27 53 -50 57 -50 4 0 16 12 25 27 15 23
19 58 23 223 3 107 9 202 14 211 5 12 -1 23 -24 39 -32 23 -49 22 -142 -6 -16
-5 -18 2 -18 44 0 49 0 49 38 56 20 3 60 6 89 6 83 0 106 17 57 43 -21 11 -37
11 -92 1 -102 -20 -96 -26 -90 70 6 91 4 96 -49 96 -22 0 -24 -3 -18 -22z
m183 -360 l3 -38 -45 0 c-24 0 -51 -3 -60 -6 -13 -5 -16 2 -16 34 0 38 2 41
33 45 72 9 82 5 85 -35z m-168 -18 c0 -27 -4 -40 -14 -40 -7 0 -28 -3 -45 -6
-31 -6 -31 -6 -31 34 0 37 3 41 28 45 62 9 62 10 62 -33z m170 -85 c0 -35 0
-35 -44 -35 -24 0 -52 -3 -61 -6 -14 -6 -16 -1 -13 27 3 31 6 34 43 40 76 12
75 12 75 -26z m-172 -50 c-2 -1 -24 -5 -50 -8 -45 -6 -48 -5 -48 16 0 35 12
45 55 49 37 3 40 1 43 -25 2 -16 2 -30 0 -32z"/>
<path d="M680 827 c0 -22 67 -80 84 -74 25 10 20 56 -6 66 -52 19 -78 22 -78
8z"/>
</g>
</svg>
