<?xml version="1.0" standalone="no"?>
<!DOCTYPE svg PUBLIC "-//W3C//DTD SVG 20010904//EN"
 "http://www.w3.org/TR/2001/REC-SVG-20010904/DTD/svg10.dtd">
<svg version="1.0" xmlns="http://www.w3.org/2000/svg"
 width="96.000000pt" height="68.000000pt" viewBox="0 0 96.000000 68.000000"
 preserveAspectRatio="xMidYMid meet">
<metadata>
Created by potrace 1.16, written by Peter Selinger 2001-2019
</metadata>
<g transform="translate(0.000000,68.000000) scale(0.100000,-0.100000)"
fill="#000000" stroke="none">
<path d="M598 522 l4 -69 -47 -6 c-26 -4 -61 -7 -76 -7 -16 0 -29 -5 -29 -11
0 -9 22 -10 75 -6 l75 5 0 -193 c0 -192 8 -238 31 -178 6 15 13 108 16 206 4
118 10 177 17 177 47 2 162 13 165 16 2 2 1 7 -2 11 -10 9 -61 9 -127 0 l-55
-8 0 63 c0 61 -1 63 -26 66 l-26 3 5 -69z"/>
</g>
</svg>
