<?xml version="1.0" standalone="no"?>
<!DOCTYPE svg PUBLIC "-//W3C//DTD SVG 20010904//EN"
 "http://www.w3.org/TR/2001/REC-SVG-20010904/DTD/svg10.dtd">
<svg version="1.0" xmlns="http://www.w3.org/2000/svg"
 width="90.000000pt" height="92.000000pt" viewBox="0 0 90.000000 92.000000"
 preserveAspectRatio="xMidYMid meet">
<metadata>
Created by potrace 1.16, written by Peter Selinger 2001-2019
</metadata>
<g transform="translate(0.000000,92.000000) scale(0.100000,-0.100000)"
fill="#000000" stroke="none">
<path d="M190 821 c0 -23 81 -92 103 -89 33 5 31 59 -3 75 -39 18 -100 27
-100 14z"/>
<path d="M605 702 c-22 -8 -74 -16 -115 -17 -67 -3 -75 -5 -71 -22 3 -10 6
-115 8 -234 l4 -216 -71 -7 c-38 -4 -70 -10 -70 -14 0 -4 13 -15 29 -25 24
-14 38 -15 78 -7 79 16 248 30 364 30 89 0 109 3 109 15 0 28 -54 46 -116 39
l-57 -7 8 189 c4 104 11 200 16 213 19 50 -50 88 -116 63z m35 -88 c7 -67 2
-86 -18 -80 -9 3 -42 -1 -72 -9 -30 -8 -59 -15 -63 -15 -4 0 -7 30 -5 68 l3
67 65 11 c36 7 70 11 75 10 6 -2 12 -25 15 -52z m2 -165 c1 -29 -1 -53 -7 -54
-5 -2 -43 -7 -82 -12 l-73 -9 0 52 0 51 63 10 c101 16 95 19 99 -38z m3 -150
c4 -33 6 -62 4 -63 -2 -2 -41 -6 -86 -10 l-83 -6 0 59 0 59 63 10 c101 16 94
19 102 -49z"/>
<path d="M226 633 c-22 -7 -72 -19 -110 -25 -39 -6 -75 -15 -80 -19 -4 -4 5
-14 22 -23 29 -15 36 -15 112 10 45 14 84 23 87 20 13 -12 -150 -230 -214
-285 -25 -23 -43 -41 -39 -41 22 0 98 50 148 98 45 43 58 51 59 36 2 -72 -4
-186 -12 -220 -8 -32 -7 -49 5 -77 31 -76 46 -39 46 119 0 61 3 125 6 143 l6
31 30 -25 c33 -28 63 -32 72 -10 8 23 -28 53 -79 66 -60 15 -59 33 10 107 30
33 55 64 55 69 0 11 -54 43 -72 42 -7 -1 -31 -8 -52 -16z"/>
</g>
</svg>
