<?xml version="1.0" standalone="no"?>
<!DOCTYPE svg PUBLIC "-//W3C//DTD SVG 20010904//EN"
 "http://www.w3.org/TR/2001/REC-SVG-20010904/DTD/svg10.dtd">
<svg version="1.0" xmlns="http://www.w3.org/2000/svg"
 width="96.000000pt" height="68.000000pt" viewBox="0 0 96.000000 68.000000"
 preserveAspectRatio="xMidYMid meet">
<metadata>
Created by potrace 1.16, written by Peter Selinger 2001-2019
</metadata>
<g transform="translate(0.000000,68.000000) scale(0.100000,-0.100000)"
fill="#000000" stroke="none">
<path d="M660 305 c0 -23 -4 -25 -47 -26 -27 0 -60 -2 -75 -4 -22 -3 -28 0
-28 16 0 12 -7 19 -20 19 -15 0 -20 -7 -20 -27 0 -35 17 -63 28 -47 4 6 40 14
81 17 63 5 76 3 88 -11 12 -16 14 -16 28 2 8 11 15 35 15 53 0 29 -3 33 -25
33 -20 0 -25 -5 -25 -25z"/>
</g>
</svg>
