<?xml version="1.0" standalone="no"?>
<!DOCTYPE svg PUBLIC "-//W3C//DTD SVG 20010904//EN"
 "http://www.w3.org/TR/2001/REC-SVG-20010904/DTD/svg10.dtd">
<svg version="1.0" xmlns="http://www.w3.org/2000/svg"
 width="90.000000pt" height="92.000000pt" viewBox="0 0 90.000000 92.000000"
 preserveAspectRatio="xMidYMid meet">
<metadata>
Created by potrace 1.16, written by Peter Selinger 2001-2019
</metadata>
<g transform="translate(0.000000,92.000000) scale(0.100000,-0.100000)"
fill="#000000" stroke="none">
<path d="M485 815 c-106 -24 -259 -37 -290 -25 -35 13 -51 0 -36 -28 14 -26
14 -213 1 -306 -6 -38 -23 -108 -39 -155 -16 -47 -27 -88 -24 -91 14 -15 69
89 93 175 l17 60 74 3 74 3 0 -129 c0 -150 8 -173 69 -198 99 -41 324 -26 397
27 33 23 35 35 14 75 -8 16 -18 46 -21 67 -9 51 -20 46 -28 -13 -8 -57 -31
-85 -85 -100 -54 -15 -226 -12 -265 4 -29 12 -34 20 -40 60 -4 25 -4 83 0 130
l7 85 66 6 c36 3 78 8 94 10 26 4 27 3 27 -44 0 -27 -3 -63 -6 -81 -7 -31 -8
-32 -50 -25 -24 3 -44 2 -44 -2 0 -5 24 -32 53 -61 59 -58 63 -58 92 11 12 29
15 76 13 244 -2 162 0 213 11 232 13 23 11 27 -18 53 -35 32 -61 34 -156 13z
m99 -67 c3 -13 6 -39 6 -58 l0 -35 -62 0 c-35 0 -77 -3 -94 -7 l-31 -7 8 51
c5 28 6 55 4 59 -7 11 22 17 96 18 61 1 67 -1 73 -21z m-226 -113 c-2 -1 -33
-6 -70 -9 l-66 -7 4 57 c2 31 5 59 7 61 2 2 31 7 63 11 l59 7 3 -59 c2 -32 2
-59 0 -61z m232 -65 l0 -60 -37 2 c-21 2 -64 -1 -95 -5 l-58 -8 0 50 c0 56 -9
51 125 70 33 5 61 9 63 10 1 0 2 -26 2 -59z m-230 -30 l0 -48 -71 -7 c-38 -4
-72 -6 -73 -4 -2 2 -1 29 1 59 l5 55 69 -3 69 -4 0 -48z"/>
</g>
</svg>
