<?xml version="1.0" standalone="no"?>
<!DOCTYPE svg PUBLIC "-//W3C//DTD SVG 20010904//EN"
 "http://www.w3.org/TR/2001/REC-SVG-20010904/DTD/svg10.dtd">
<svg version="1.0" xmlns="http://www.w3.org/2000/svg"
 width="96.000000pt" height="68.000000pt" viewBox="0 0 96.000000 68.000000"
 preserveAspectRatio="xMidYMid meet">
<metadata>
Created by potrace 1.16, written by Peter Selinger 2001-2019
</metadata>
<g transform="translate(0.000000,68.000000) scale(0.100000,-0.100000)"
fill="#000000" stroke="none">
<path d="M395 231 c-7 -22 -91 -111 -119 -127 -19 -10 -19 -11 3 -33 16 -16
29 -21 44 -17 12 4 86 19 165 33 l143 27 30 -32 c34 -36 49 -34 49 8 0 31 -36
68 -89 90 -40 16 -49 8 -22 -22 21 -22 21 -22 2 -30 -11 -4 -73 -10 -138 -13
l-118 -6 59 55 c50 47 57 58 46 71 -17 21 -47 19 -55 -4z"/>
</g>
</svg>
