<?xml version="1.0" standalone="no"?>
<!DOCTYPE svg PUBLIC "-//W3C//DTD SVG 20010904//EN"
 "http://www.w3.org/TR/2001/REC-SVG-20010904/DTD/svg10.dtd">
<svg version="1.0" xmlns="http://www.w3.org/2000/svg"
 width="96.000000pt" height="68.000000pt" viewBox="0 0 96.000000 68.000000"
 preserveAspectRatio="xMidYMid meet">
<metadata>
Created by potrace 1.16, written by Peter Selinger 2001-2019
</metadata>
<g transform="translate(0.000000,68.000000) scale(0.100000,-0.100000)"
fill="#000000" stroke="none">
<path d="M519 597 c0 -1 -2 -18 -5 -37 -5 -42 -45 -127 -75 -158 -11 -13 -19
-26 -16 -29 10 -10 55 32 87 80 l31 47 59 0 c67 0 72 -8 45 -60 -16 -30 -53
-47 -80 -36 -14 5 -13 1 2 -25 15 -25 22 -29 43 -24 37 10 46 20 76 91 34 80
28 88 -64 79 l-62 -6 2 32 c2 24 -2 33 -19 40 -13 4 -23 7 -24 6z"/>
<path d="M255 528 c-55 -9 -101 -17 -102 -18 -2 0 -3 -4 -3 -10 0 -5 22 -10
49 -10 l50 0 -11 -32 c-13 -37 -58 -107 -83 -128 -9 -7 -21 -23 -27 -34 -11
-20 -10 -20 16 -3 26 18 27 17 71 -20 l45 -37 -22 -26 c-12 -14 -45 -46 -72
-72 -28 -27 -46 -48 -40 -48 19 0 102 65 135 105 56 71 140 206 133 217 -4 6
-30 8 -70 3 l-64 -7 11 26 c7 14 16 26 20 26 4 0 5 9 2 19 -4 16 3 20 46 26
31 4 51 12 51 20 0 21 -30 22 -135 3z m75 -143 c0 -9 -12 -38 -26 -66 -23 -47
-27 -50 -42 -36 -9 9 -29 20 -45 26 -15 6 -27 14 -27 19 0 19 58 61 90 65 19
2 38 5 43 5 4 1 7 -5 7 -13z"/>
<path d="M565 315 c-27 -7 -70 -14 -95 -14 -70 -2 -76 -13 -26 -45 24 -15 54
-38 65 -50 20 -22 20 -23 4 -39 -21 -19 -57 -33 -138 -58 -53 -16 -56 -18 -25
-18 19 0 67 11 105 25 109 39 105 39 155 -3 40 -34 49 -38 96 -37 66 2 124 12
124 23 0 4 -29 13 -65 20 -36 6 -91 23 -122 36 l-55 25 28 37 c15 21 36 45 46
54 22 20 23 45 2 53 -21 8 -39 6 -99 -9z m35 -36 c0 -17 -33 -69 -44 -69 -13
0 -76 49 -76 60 0 5 12 11 28 13 55 8 92 7 92 -4z"/>
</g>
</svg>
