<?xml version="1.0" standalone="no"?>
<!DOCTYPE svg PUBLIC "-//W3C//DTD SVG 20010904//EN"
 "http://www.w3.org/TR/2001/REC-SVG-20010904/DTD/svg10.dtd">
<svg version="1.0" xmlns="http://www.w3.org/2000/svg"
 width="96.000000pt" height="68.000000pt" viewBox="0 0 96.000000 68.000000"
 preserveAspectRatio="xMidYMid meet">
<metadata>
Created by potrace 1.16, written by Peter Selinger 2001-2019
</metadata>
<g transform="translate(0.000000,68.000000) scale(0.100000,-0.100000)"
fill="#000000" stroke="none">
<path d="M594 598 c-8 -18 -21 -43 -30 -55 -26 -36 -3 -26 51 22 41 37 47 46
35 55 -26 17 -41 11 -56 -22z"/>
<path d="M400 572 c0 -5 9 -21 21 -36 22 -28 59 -35 59 -12 0 16 -26 46 -40
46 -5 0 -15 3 -24 6 -9 3 -16 2 -16 -4z"/>
<path d="M215 550 c-9 -14 56 -69 83 -70 17 0 22 6 22 25 0 17 -7 28 -22 34
-46 16 -77 21 -83 11z"/>
<path d="M600 500 c-25 -4 -87 -13 -137 -20 -51 -7 -93 -17 -93 -21 0 -12 47
-11 87 0 33 10 43 1 43 -39 0 -22 -13 -26 -97 -35 l-61 -7 5 -33 c4 -24 1 -39
-11 -50 -20 -21 -21 -45 -1 -45 8 0 42 7 75 17 33 9 63 13 68 9 10 -11 -71
-80 -143 -122 -44 -25 -52 -33 -30 -28 41 9 103 41 147 76 45 36 47 34 50 -82
2 -68 6 -85 18 -85 12 0 15 22 18 126 l3 126 46 7 c68 9 121 7 128 -4 4 -6 1
-26 -5 -46 -11 -33 -15 -36 -45 -32 -28 3 -32 1 -25 -12 4 -8 18 -24 30 -35
27 -24 48 -13 74 41 10 21 25 52 33 68 11 23 11 31 1 43 -12 15 -46 15 -190
-4 l-48 -6 0 35 c0 32 3 36 31 42 17 3 47 6 65 6 28 0 34 4 34 22 0 12 8 30
17 41 17 18 17 20 -6 38 -13 10 -26 18 -30 18 -3 -1 -26 -5 -51 -9z m28 -43
c5 -27 -17 -47 -54 -47 -30 0 -33 3 -31 28 2 34 14 43 52 40 19 -2 31 -9 33
-21z m-128 -116 c0 -35 -2 -37 -62 -45 l-48 -7 0 35 c0 39 8 44 68 45 40 1 42
0 42 -28z"/>
<path d="M140 405 c6 -8 8 -20 4 -26 -4 -7 -3 -9 3 -6 5 3 17 -3 26 -14 9 -10
28 -19 42 -19 20 0 25 5 25 25 0 28 -42 55 -86 55 -22 0 -24 -2 -14 -15z"/>
<path d="M245 280 c-25 -32 -59 -67 -75 -77 -17 -9 -30 -23 -30 -31 0 -22 30
-72 43 -72 6 0 37 50 67 111 65 132 64 129 51 129 -5 0 -30 -27 -56 -60z"/>
</g>
</svg>
