<?xml version="1.0" standalone="no"?>
<!DOCTYPE svg PUBLIC "-//W3C//DTD SVG 20010904//EN"
 "http://www.w3.org/TR/2001/REC-SVG-20010904/DTD/svg10.dtd">
<svg version="1.0" xmlns="http://www.w3.org/2000/svg"
 width="96.000000pt" height="68.000000pt" viewBox="0 0 96.000000 68.000000"
 preserveAspectRatio="xMidYMid meet">
<metadata>
Created by potrace 1.16, written by Peter Selinger 2001-2019
</metadata>
<g transform="translate(0.000000,68.000000) scale(0.100000,-0.100000)"
fill="#000000" stroke="none">
<path d="M660 292 c0 -5 7 -13 16 -16 10 -4 14 -1 12 6 -5 15 -28 23 -28 10z"/>
<path d="M635 269 c-10 -14 -1 -21 19 -13 9 3 13 10 10 15 -7 12 -21 11 -29
-2z"/>
<path d="M600 214 c20 -23 50 -37 50 -23 0 6 -9 13 -20 16 -11 3 -20 9 -20 14
0 5 -5 9 -11 9 -8 0 -7 -5 1 -16z"/>
<path d="M660 173 c0 -5 17 -19 38 -32 39 -26 105 -32 126 -11 8 8 6 9 -6 5
-10 -4 -18 -3 -18 1 0 5 -10 10 -22 11 -63 7 -80 11 -90 21 -14 14 -28 16 -28
5z"/>
</g>
</svg>
