<?xml version="1.0" standalone="no"?>
<!DOCTYPE svg PUBLIC "-//W3C//DTD SVG 20010904//EN"
 "http://www.w3.org/TR/2001/REC-SVG-20010904/DTD/svg10.dtd">
<svg version="1.0" xmlns="http://www.w3.org/2000/svg"
 width="96.000000pt" height="68.000000pt" viewBox="0 0 96.000000 68.000000"
 preserveAspectRatio="xMidYMid meet">
<metadata>
Created by potrace 1.16, written by Peter Selinger 2001-2019
</metadata>
<g transform="translate(0.000000,68.000000) scale(0.100000,-0.100000)"
fill="#000000" stroke="none">
<path d="M290 231 c0 -27 -3 -30 -42 -35 -148 -20 -163 -23 -144 -31 10 -5 55
-4 98 1 l80 10 -7 -66 c-5 -54 -4 -69 9 -80 9 -7 19 -11 21 -8 3 3 8 39 11 81
7 75 8 77 33 77 47 0 101 12 95 21 -3 5 -32 9 -65 9 -56 0 -59 1 -59 25 0 16
-6 25 -15 25 -10 0 -15 -10 -15 -29z"/>
</g>
</svg>
