<?xml version="1.0" standalone="no"?>
<!DOCTYPE svg PUBLIC "-//W3C//DTD SVG 20010904//EN"
 "http://www.w3.org/TR/2001/REC-SVG-20010904/DTD/svg10.dtd">
<svg version="1.0" xmlns="http://www.w3.org/2000/svg"
 width="96.000000pt" height="68.000000pt" viewBox="0 0 96.000000 68.000000"
 preserveAspectRatio="xMidYMid meet">
<metadata>
Created by potrace 1.16, written by Peter Selinger 2001-2019
</metadata>
<g transform="translate(0.000000,68.000000) scale(0.100000,-0.100000)"
fill="#000000" stroke="none">
<path d="M240 538 c-25 -11 -59 -20 -77 -19 -32 2 -32 1 -21 -30 13 -37 4
-284 -12 -338 -10 -36 4 -83 25 -84 16 -1 23 49 24 188 2 179 9 233 32 240 11
3 28 8 39 11 15 4 20 1 20 -15 0 -11 -4 -23 -10 -26 -17 -11 -11 -45 15 -79
36 -47 34 -70 -7 -64 l-32 5 30 -23 c39 -32 72 -31 80 1 5 19 -2 34 -29 65
-41 49 -40 64 14 116 21 21 39 41 39 44 0 9 -48 30 -68 30 -9 0 -37 -10 -62
-22z"/>
<path d="M560 520 c-14 -4 -55 -8 -92 -9 l-67 -1 4 -32 c2 -18 7 -97 9 -175
l6 -143 -53 -2 c-70 -2 -72 -2 -74 -13 -3 -10 474 -8 510 1 54 16 -31 47 -101
37 l-44 -6 6 134 c4 74 9 145 12 159 2 14 0 31 -5 38 -10 17 -77 24 -111 12z
m48 -65 l3 -41 -76 -10 -75 -9 0 47 0 47 48 4 c94 8 97 7 100 -38z m2 -114 l0
-39 -47 -2 c-27 -1 -61 -2 -78 -3 -28 -2 -30 0 -30 33 0 19 1 38 2 41 1 3 36
7 78 8 l75 2 0 -40z m0 -116 l0 -55 -81 0 -80 0 3 48 3 47 60 6 c33 3 68 6 78
7 14 2 17 -7 17 -53z"/>
</g>
</svg>
