<?xml version="1.0" standalone="no"?>
<!DOCTYPE svg PUBLIC "-//W3C//DTD SVG 20010904//EN"
 "http://www.w3.org/TR/2001/REC-SVG-20010904/DTD/svg10.dtd">
<svg version="1.0" xmlns="http://www.w3.org/2000/svg"
 width="96.000000pt" height="68.000000pt" viewBox="0 0 96.000000 68.000000"
 preserveAspectRatio="xMidYMid meet">
<metadata>
Created by potrace 1.16, written by Peter Selinger 2001-2019
</metadata>
<g transform="translate(0.000000,68.000000) scale(0.100000,-0.100000)"
fill="#000000" stroke="none">
<path d="M234 578 c3 -13 9 -55 12 -94 l7 -71 -59 -7 c-75 -9 -96 -15 -89 -27
4 -5 33 -9 66 -9 32 0 59 -3 59 -7 0 -19 -59 -105 -103 -150 -32 -33 -45 -53
-36 -53 18 0 90 46 101 65 4 6 17 23 28 36 l21 24 -6 -120 c-6 -123 0 -153 29
-142 12 5 16 20 16 59 0 109 13 219 24 208 17 -17 46 -12 46 9 0 12 -11 23
-31 30 -43 15 -38 52 9 62 18 4 36 10 40 13 10 11 -20 26 -51 26 l-28 0 7 74
c6 68 5 75 -14 85 -35 19 -55 14 -48 -11z"/>
<path d="M640 518 c-6 -29 -21 -71 -34 -95 -28 -50 -23 -63 11 -27 19 21 35
27 85 30 33 3 68 9 77 14 30 16 -17 24 -72 11 -27 -6 -52 -10 -54 -7 -2 2 10
26 28 54 33 54 32 72 -6 72 -20 0 -25 -7 -35 -52z"/>
<path d="M457 509 c-21 -3 -50 -4 -64 -1 -23 4 -24 2 -18 -18 8 -27 9 -185 1
-199 -3 -5 1 -14 9 -21 12 -10 25 -10 59 -1 25 6 69 11 98 11 48 1 51 2 34 15
-11 8 -30 12 -47 8 -27 -5 -29 -3 -29 26 0 20 5 31 13 30 26 -3 37 2 37 16 0
8 6 24 13 35 10 17 9 22 -3 30 -8 6 -25 8 -37 5 -20 -5 -23 -1 -23 25 0 27 3
30 29 30 17 0 33 5 36 10 7 12 -39 11 -108 -1z m5 -36 c8 -29 -2 -43 -28 -43
-20 0 -24 5 -24 30 0 25 4 30 24 30 14 0 25 -7 28 -17z m58 -73 c0 -11 -4 -20
-10 -20 -5 0 -13 -1 -17 -2 -5 -1 -25 -5 -45 -8 -35 -7 -38 -5 -38 16 0 24 15
30 78 33 26 1 32 -3 32 -19z m-52 -82 c3 -25 0 -28 -27 -28 -28 0 -31 3 -31
31 0 27 3 30 28 27 21 -2 28 -9 30 -30z"/>
<path d="M675 335 l-50 -13 75 1 c44 1 74 6 73 12 -3 15 -42 15 -98 0z"/>
<path d="M590 233 c-58 -7 -126 -12 -153 -11 -45 3 -58 -6 -39 -28 11 -12 35
-95 29 -100 -3 -3 -22 -6 -43 -7 -64 -5 -39 -22 29 -20 273 8 423 16 430 23
14 13 -52 33 -94 27 -37 -5 -39 -4 -33 16 3 12 12 32 20 44 8 12 14 29 14 37
0 15 -30 37 -47 35 -4 -1 -55 -8 -113 -16z m90 -67 c0 -53 0 -54 -32 -59 -47
-7 -50 -1 -27 43 12 22 19 47 15 55 -4 11 2 15 19 15 24 0 25 -3 25 -54z m-86
-3 c-5 -53 -15 -69 -37 -60 -10 4 -16 24 -18 56 l-4 51 32 0 32 0 -5 -47z
m-89 15 c3 -13 7 -36 8 -53 2 -27 -1 -30 -30 -33 -29 -3 -33 0 -33 21 0 14 -3
39 -6 56 -6 29 -5 31 25 31 23 0 32 -5 36 -22z"/>
</g>
</svg>
