<?xml version="1.0" standalone="no"?>
<!DOCTYPE svg PUBLIC "-//W3C//DTD SVG 20010904//EN"
 "http://www.w3.org/TR/2001/REC-SVG-20010904/DTD/svg10.dtd">
<svg version="1.0" xmlns="http://www.w3.org/2000/svg"
 width="96.000000pt" height="68.000000pt" viewBox="0 0 96.000000 68.000000"
 preserveAspectRatio="xMidYMid meet">
<metadata>
Created by potrace 1.16, written by Peter Selinger 2001-2019
</metadata>
<g transform="translate(0.000000,68.000000) scale(0.100000,-0.100000)"
fill="#000000" stroke="none">
<path d="M246 537 c4 -24 1 -70 -6 -103 -20 -100 -14 -94 -86 -94 -35 0 -64
-4 -64 -10 0 -19 43 -32 83 -26 35 6 39 5 32 -11 -17 -39 -10 -57 27 -78 l38
-21 -33 -31 c-17 -18 -52 -44 -77 -58 l-45 -27 35 6 c19 3 61 24 93 46 l59 40
34 -30 c39 -34 59 -38 69 -13 6 18 -4 30 -54 63 l-24 16 21 39 c11 22 23 55
27 73 5 23 15 37 33 44 22 9 23 12 10 15 -10 3 -18 10 -18 18 0 10 -47 35 -67
35 -2 0 -3 -14 -1 -32 3 -29 0 -32 -32 -39 -19 -4 -36 -6 -38 -4 -4 3 44 170
53 184 7 12 -33 41 -57 41 -15 0 -17 -6 -12 -43z m84 -217 c0 -21 -36 -100
-46 -100 -7 0 -64 30 -64 34 0 24 34 75 52 79 49 9 58 7 58 -13z"/>
</g>
</svg>
