<?xml version="1.0" standalone="no"?>
<!DOCTYPE svg PUBLIC "-//W3C//DTD SVG 20010904//EN"
 "http://www.w3.org/TR/2001/REC-SVG-20010904/DTD/svg10.dtd">
<svg version="1.0" xmlns="http://www.w3.org/2000/svg"
 width="96.000000pt" height="68.000000pt" viewBox="0 0 96.000000 68.000000"
 preserveAspectRatio="xMidYMid meet">
<metadata>
Created by potrace 1.16, written by Peter Selinger 2001-2019
</metadata>
<g transform="translate(0.000000,68.000000) scale(0.100000,-0.100000)"
fill="#000000" stroke="none">
<path d="M550 261 l-85 -16 5 -87 c5 -91 11 -108 32 -90 7 5 41 12 76 14 57 3
65 1 81 -21 12 -16 24 -22 35 -18 21 8 38 54 30 80 -3 11 -6 47 -6 79 0 85
-12 89 -168 59z m120 -41 c0 -26 -4 -30 -27 -30 -16 0 -52 -3 -80 -6 l-53 -7
0 31 c0 34 9 38 108 41 51 1 52 1 52 -29z m0 -82 l0 -33 -80 -3 -80 -2 0 29
c0 28 3 30 43 34 117 10 117 10 117 -25z"/>
</g>
</svg>
