<?xml version="1.0" standalone="no"?>
<!DOCTYPE svg PUBLIC "-//W3C//DTD SVG 20010904//EN"
 "http://www.w3.org/TR/2001/REC-SVG-20010904/DTD/svg10.dtd">
<svg version="1.0" xmlns="http://www.w3.org/2000/svg"
 width="90.000000pt" height="92.000000pt" viewBox="0 0 90.000000 92.000000"
 preserveAspectRatio="xMidYMid meet">
<metadata>
Created by potrace 1.16, written by Peter Selinger 2001-2019
</metadata>
<g transform="translate(0.000000,92.000000) scale(0.100000,-0.100000)"
fill="#000000" stroke="none">
<path d="M565 800 c-49 -11 -112 -22 -140 -25 -47 -7 -48 -8 -30 -22 24 -18
145 -12 259 12 75 16 84 21 70 35 -18 18 -69 18 -159 0z"/>
<path d="M196 747 c-17 -58 -87 -174 -111 -183 -18 -7 -19 -34 -2 -57 11 -16
15 -16 42 -3 17 7 41 17 54 21 23 7 23 6 -9 -38 -18 -25 -45 -58 -61 -73 -34
-33 -36 -45 -10 -68 14 -12 21 -14 26 -6 4 7 39 27 77 46 l71 33 17 -21 c21
-26 40 -16 40 21 0 21 -8 32 -39 49 -50 28 -57 28 -38 -2 16 -23 15 -24 -35
-45 -28 -11 -55 -21 -60 -21 -13 0 21 46 103 142 38 43 69 84 69 89 0 19 -21
49 -33 49 -7 0 -24 -27 -40 -60 -26 -57 -29 -59 -73 -66 -25 -3 -47 -4 -49 -2
-3 3 27 47 65 98 39 51 70 99 70 106 0 12 -37 44 -52 44 -3 0 -14 -24 -22 -53z"/>
<path d="M640 713 c-1 -27 -35 -98 -59 -122 -17 -17 -19 -26 -12 -40 10 -18
12 -18 71 3 51 18 63 19 81 8 14 -9 25 -10 31 -4 17 17 1 58 -27 70 -39 18
-47 15 -30 -12 16 -24 16 -24 -25 -31 -23 -4 -44 -5 -46 -2 -3 3 11 30 32 61
30 46 35 58 24 71 -17 20 -40 19 -40 -2z"/>
<path d="M430 703 c-1 -28 -39 -105 -66 -134 -21 -22 -24 -31 -15 -46 10 -20
11 -19 78 3 59 20 70 21 84 8 19 -17 29 -9 29 22 0 23 -33 54 -58 54 -10 0
-10 -5 -2 -20 9 -17 7 -22 -15 -30 -32 -12 -65 -13 -65 -2 0 5 18 34 40 65 22
30 40 58 40 61 0 8 -31 36 -41 36 -5 0 -9 -8 -9 -17z"/>
<path d="M679 516 c-2 -3 -74 -14 -159 -26 -187 -25 -195 -28 -153 -46 26 -11
44 -11 115 1 45 9 131 18 190 22 121 7 143 14 113 37 -18 14 -95 22 -106 12z"/>
<path d="M580 398 c-39 -11 -84 -17 -113 -15 l-47 4 7 -36 c8 -36 9 -81 3
-179 -4 -58 9 -83 33 -64 7 6 45 14 84 18 l71 7 16 -32 c20 -38 41 -40 59 -4
11 21 14 62 12 158 l-3 130 -29 16 c-26 15 -33 14 -93 -3z m70 -75 c0 -36 -2
-38 -32 -39 -18 0 -57 -5 -85 -11 l-53 -10 0 43 c0 48 2 49 118 52 l52 2 0
-37z m0 -115 l0 -43 -90 -3 c-95 -3 -97 -2 -84 44 5 18 17 24 62 32 110 18
112 18 112 -30z"/>
<path d="M250 349 c0 -21 41 -79 56 -79 9 0 14 11 14 28 0 22 -7 32 -35 45
-22 11 -35 13 -35 6z"/>
<path d="M186 260 c31 -56 54 -65 54 -21 0 31 -38 71 -67 71 -11 0 -7 -13 13
-50z"/>
<path d="M60 274 c0 -19 65 -124 76 -124 19 0 28 44 14 70 -16 29 -90 74 -90
54z"/>
</g>
</svg>
