<?xml version="1.0" standalone="no"?>
<!DOCTYPE svg PUBLIC "-//W3C//DTD SVG 20010904//EN"
 "http://www.w3.org/TR/2001/REC-SVG-20010904/DTD/svg10.dtd">
<svg version="1.0" xmlns="http://www.w3.org/2000/svg"
 width="96.000000pt" height="68.000000pt" viewBox="0 0 96.000000 68.000000"
 preserveAspectRatio="xMidYMid meet">
<metadata>
Created by potrace 1.16, written by Peter Selinger 2001-2019
</metadata>
<g transform="translate(0.000000,68.000000) scale(0.100000,-0.100000)"
fill="#000000" stroke="none">
<path d="M310 232 c0 -10 43 -52 53 -52 16 0 6 40 -12 50 -24 12 -41 13 -41 2z"/>
<path d="M235 199 c13 -23 48 -59 57 -59 13 0 9 36 -4 48 -7 5 -24 13 -37 17
-18 5 -22 4 -16 -6z"/>
<path d="M150 180 c0 -18 45 -80 58 -80 19 0 26 28 11 46 -18 22 -69 47 -69
34z"/>
</g>
</svg>
