<?xml version="1.0" standalone="no"?>
<!DOCTYPE svg PUBLIC "-//W3C//DTD SVG 20010904//EN"
 "http://www.w3.org/TR/2001/REC-SVG-20010904/DTD/svg10.dtd">
<svg version="1.0" xmlns="http://www.w3.org/2000/svg"
 width="96.000000pt" height="68.000000pt" viewBox="0 0 96.000000 68.000000"
 preserveAspectRatio="xMidYMid meet">
<metadata>
Created by potrace 1.16, written by Peter Selinger 2001-2019
</metadata>
<g transform="translate(0.000000,68.000000) scale(0.100000,-0.100000)"
fill="#000000" stroke="none">
<path d="M380 607 c0 -9 12 -27 26 -40 l26 -24 -24 -6 c-12 -3 -59 -9 -103
-13 -44 -4 -89 -10 -100 -14 -18 -7 -17 -8 8 -15 15 -4 58 -5 95 -2 37 3 139
10 227 17 88 6 164 15 169 20 20 20 -39 33 -121 26 -70 -5 -83 -4 -83 9 0 20
-37 42 -82 50 -31 6 -38 4 -38 -8z"/>
<path d="M455 470 c-27 -5 -71 -9 -98 -9 l-47 -1 20 -37 c11 -21 20 -44 20
-51 0 -10 7 -12 24 -8 13 3 62 9 110 12 56 5 86 11 86 19 0 7 9 20 20 30 52
47 -2 65 -135 45z m78 -16 c3 -3 1 -16 -5 -29 -9 -19 -20 -24 -80 -30 -38 -3
-71 -5 -73 -3 -2 2 -5 12 -7 23 -3 17 6 21 57 31 72 14 100 16 108 8z"/>
<path d="M659 356 c-2 -2 -97 -11 -212 -21 -166 -14 -210 -15 -222 -5 -18 15
-15 19 -51 -48 -24 -44 -27 -54 -15 -62 21 -13 47 5 59 40 6 16 15 30 19 30 4
0 51 5 103 10 228 23 322 30 332 24 5 -4 0 -16 -13 -30 -12 -13 -21 -26 -18
-28 8 -9 133 19 136 31 8 24 -98 78 -118 59z"/>
<path d="M492 180 c3 -75 6 -92 23 -105 35 -28 64 -35 138 -35 55 0 80 5 105
20 33 20 33 22 18 45 -9 13 -16 33 -16 44 0 32 -17 33 -23 1 -11 -54 -38 -70
-111 -66 -35 2 -69 7 -76 11 -9 6 -11 28 -7 81 5 65 3 75 -13 84 -37 20 -40
13 -38 -80z"/>
<path d="M357 217 c7 -56 -23 -117 -74 -152 -21 -14 -31 -25 -22 -25 22 0 95
54 115 85 9 14 21 47 25 72 9 49 2 63 -32 63 -14 0 -16 -8 -12 -43z"/>
</g>
</svg>
