<?xml version="1.0" standalone="no"?>
<!DOCTYPE svg PUBLIC "-//W3C//DTD SVG 20010904//EN"
 "http://www.w3.org/TR/2001/REC-SVG-20010904/DTD/svg10.dtd">
<svg version="1.0" xmlns="http://www.w3.org/2000/svg"
 width="96.000000pt" height="68.000000pt" viewBox="0 0 96.000000 68.000000"
 preserveAspectRatio="xMidYMid meet">
<metadata>
Created by potrace 1.16, written by Peter Selinger 2001-2019
</metadata>
<g transform="translate(0.000000,68.000000) scale(0.100000,-0.100000)"
fill="#000000" stroke="none">
<path d="M625 560 c-5 -30 -11 -40 -25 -40 -10 0 -22 -4 -25 -10 -3 -5 3 -10
15 -10 17 0 20 -4 15 -20 -9 -28 9 -25 25 5 11 21 20 25 61 25 26 0 51 5 54
10 7 11 -13 14 -57 11 -31 -3 -33 1 -17 31 9 16 8 23 -2 29 -26 17 -37 9 -44
-31z"/>
<path d="M434 545 c3 -8 9 -21 12 -29 4 -10 -6 -16 -37 -21 -30 -5 -38 -10
-28 -16 8 -5 30 -7 50 -3 31 4 37 2 42 -15 3 -12 11 -21 17 -21 8 0 10 9 6 24
-5 20 -1 26 22 34 l27 10 -32 1 c-28 1 -33 5 -33 26 0 20 -5 25 -26 25 -19 0
-25 -4 -20 -15z"/>
</g>
</svg>
