<?xml version="1.0" standalone="no"?>
<!DOCTYPE svg PUBLIC "-//W3C//DTD SVG 20010904//EN"
 "http://www.w3.org/TR/2001/REC-SVG-20010904/DTD/svg10.dtd">
<svg version="1.0" xmlns="http://www.w3.org/2000/svg"
 width="96.000000pt" height="68.000000pt" viewBox="0 0 96.000000 68.000000"
 preserveAspectRatio="xMidYMid meet">
<metadata>
Created by potrace 1.16, written by Peter Selinger 2001-2019
</metadata>
<g transform="translate(0.000000,68.000000) scale(0.100000,-0.100000)"
fill="#000000" stroke="none">
<path d="M665 519 c-16 -5 -67 -12 -112 -15 -57 -5 -80 -10 -77 -19 3 -7 10
-48 17 -91 9 -60 16 -80 29 -82 15 -3 17 5 11 81 -7 97 -11 92 97 103 l71 7
-7 -88 c-6 -81 -6 -87 12 -83 14 2 22 21 36 78 22 97 22 95 -7 108 -29 14 -29
14 -70 1z"/>
</g>
</svg>
