<?xml version="1.0" standalone="no"?>
<!DOCTYPE svg PUBLIC "-//W3C//DTD SVG 20010904//EN"
 "http://www.w3.org/TR/2001/REC-SVG-20010904/DTD/svg10.dtd">
<svg version="1.0" xmlns="http://www.w3.org/2000/svg"
 width="96.000000pt" height="68.000000pt" viewBox="0 0 96.000000 68.000000"
 preserveAspectRatio="xMidYMid meet">
<metadata>
Created by potrace 1.16, written by Peter Selinger 2001-2019
</metadata>
<g transform="translate(0.000000,68.000000) scale(0.100000,-0.100000)"
fill="#000000" stroke="none">
<path d="M540 188 c0 -4 5 -8 10 -8 13 0 -9 -39 -35 -62 -14 -12 -16 -17 -6
-18 8 0 12 -3 9 -6 -4 -3 -20 2 -38 11 -31 16 -31 16 -20 -4 6 -12 7 -21 3
-21 -4 0 -1 -4 6 -9 9 -6 22 -6 33 0 21 11 48 1 28 -11 -8 -5 -7 -9 4 -13 11
-5 16 -1 16 13 0 11 -4 20 -10 20 -5 0 -10 9 -10 20 0 11 4 19 8 18 13 -4 71
61 61 68 -5 3 -9 0 -9 -6 0 -6 -5 -8 -10 -5 -6 4 -8 10 -5 15 3 5 -4 8 -15 7
-11 -1 -20 -5 -20 -9z m23 -43 c-3 -9 -8 -14 -10 -11 -3 3 -2 9 2 15 9 16 15
13 8 -4z"/>
<path d="M478 183 c7 -3 16 -2 19 1 4 3 -2 6 -13 5 -11 0 -14 -3 -6 -6z"/>
<path d="M428 173 c7 -3 16 -2 19 1 4 3 -2 6 -13 5 -11 0 -14 -3 -6 -6z"/>
<path d="M447 59 c7 -7 15 -10 18 -7 3 3 -2 9 -12 12 -14 6 -15 5 -6 -5z"/>
<path d="M560 50 c0 -11 14 -21 38 -28 40 -13 112 -12 112 1 0 4 17 5 38 1 20
-4 34 -4 31 0 -4 4 -54 15 -113 24 -98 17 -106 17 -106 2z"/>
<path d="M420 50 c0 -6 -4 -9 -8 -6 -4 2 -14 0 -22 -5 -11 -7 -7 -8 14 -5 34
6 41 12 27 21 -6 3 -11 1 -11 -5z"/>
</g>
</svg>
