<?xml version="1.0" standalone="no"?>
<!DOCTYPE svg PUBLIC "-//W3C//DTD SVG 20010904//EN"
 "http://www.w3.org/TR/2001/REC-SVG-20010904/DTD/svg10.dtd">
<svg version="1.0" xmlns="http://www.w3.org/2000/svg"
 width="96.000000pt" height="68.000000pt" viewBox="0 0 96.000000 68.000000"
 preserveAspectRatio="xMidYMid meet">
<metadata>
Created by potrace 1.16, written by Peter Selinger 2001-2019
</metadata>
<g transform="translate(0.000000,68.000000) scale(0.100000,-0.100000)"
fill="#000000" stroke="none">
<path d="M506 561 c-3 -4 8 -23 24 -42 16 -19 29 -37 30 -40 0 -4 -35 -10 -77
-13 -43 -4 -90 -9 -105 -12 -26 -5 -28 -3 -28 25 0 43 -34 59 -89 43 -21 -7
-60 -12 -86 -12 l-47 0 8 -32 c9 -37 11 -136 4 -248 -5 -84 10 -128 32 -99 7
9 32 19 55 22 37 6 43 4 61 -20 20 -27 20 -27 41 -9 19 18 21 30 21 165 l0
146 72 -1 c40 0 74 -4 76 -7 8 -22 -3 -44 -47 -90 -66 -70 -59 -85 33 -67 37
7 69 10 72 7 6 -6 -127 -122 -147 -129 -8 -3 -10 -11 -6 -22 8 -21 20 -20 184
15 l113 24 29 -35 c33 -40 57 -33 45 14 -10 42 -114 122 -114 87 0 -5 7 -14
15 -21 8 -7 15 -16 15 -20 0 -8 -133 -30 -183 -30 l-32 1 31 27 c17 15 68 56
113 91 82 65 91 77 69 99 -20 20 -43 13 -55 -17 -6 -16 -21 -36 -34 -44 -25
-16 -120 -26 -129 -14 -3 4 17 29 43 56 29 29 47 56 45 67 -2 14 5 18 32 20
19 2 74 6 123 9 48 4 87 10 87 15 0 20 -56 30 -115 20 -82 -14 -85 -13 -85 14
0 13 -6 29 -14 35 -19 16 -75 31 -80 22z m-215 -116 c4 -22 6 -41 5 -41 0 -1
-25 -5 -53 -9 l-53 -7 0 41 c0 46 18 62 65 58 26 -2 31 -7 36 -42z m9 -110 c0
-27 -4 -35 -17 -35 -10 0 -35 -3 -55 -6 -38 -7 -38 -7 -38 29 0 36 0 36 48 40
26 2 50 4 55 5 4 1 7 -14 7 -33z m-3 -112 l1 -41 -56 -4 c-32 -2 -58 -3 -60
-2 -1 1 0 20 4 42 6 39 8 41 48 45 60 5 61 4 63 -40z"/>
</g>
</svg>
