<?xml version="1.0" standalone="no"?>
<!DOCTYPE svg PUBLIC "-//W3C//DTD SVG 20010904//EN"
 "http://www.w3.org/TR/2001/REC-SVG-20010904/DTD/svg10.dtd">
<svg version="1.0" xmlns="http://www.w3.org/2000/svg"
 width="96.000000pt" height="68.000000pt" viewBox="0 0 96.000000 68.000000"
 preserveAspectRatio="xMidYMid meet">
<metadata>
Created by potrace 1.16, written by Peter Selinger 2001-2019
</metadata>
<g transform="translate(0.000000,68.000000) scale(0.100000,-0.100000)"
fill="#000000" stroke="none">
<path d="M620 246 c0 -19 -260 -39 -275 -22 -5 7 -18 15 -28 19 -13 5 -17 1
-17 -14 0 -33 19 -62 34 -50 6 5 72 13 145 17 122 7 135 6 147 -11 21 -29 44
-11 44 35 0 36 -2 40 -25 40 -14 0 -25 -6 -25 -14z"/>
</g>
</svg>
