<?xml version="1.0" standalone="no"?>
<!DOCTYPE svg PUBLIC "-//W3C//DTD SVG 20010904//EN"
 "http://www.w3.org/TR/2001/REC-SVG-20010904/DTD/svg10.dtd">
<svg version="1.0" xmlns="http://www.w3.org/2000/svg"
 width="96.000000pt" height="68.000000pt" viewBox="0 0 96.000000 68.000000"
 preserveAspectRatio="xMidYMid meet">
<metadata>
Created by potrace 1.16, written by Peter Selinger 2001-2019
</metadata>
<g transform="translate(0.000000,68.000000) scale(0.100000,-0.100000)"
fill="#000000" stroke="none">
<path d="M536 588 c-2 -7 -9 -32 -15 -56 -15 -55 -68 -144 -121 -204 -23 -27
-38 -48 -33 -48 25 0 94 67 138 134 28 41 53 76 56 76 3 0 29 -30 56 -67 82
-110 98 -123 152 -122 25 0 55 4 66 9 19 7 19 8 -5 18 -82 34 -121 57 -187
113 -40 34 -73 66 -73 71 0 5 5 18 11 29 8 16 7 25 -7 40 -20 22 -33 24 -38 7z"/>
<path d="M203 483 l2 -68 -57 2 c-59 2 -70 -5 -43 -27 7 -6 17 -31 21 -55 6
-46 33 -82 41 -57 3 6 13 12 23 12 14 0 19 -9 22 -45 l3 -44 -48 -11 c-26 -5
-55 -10 -62 -10 -23 0 -18 -15 10 -30 23 -12 33 -10 98 18 39 18 86 36 103 41
28 8 33 6 43 -17 11 -23 14 -24 27 -10 21 21 5 52 -37 74 -30 15 -31 15 -24
-4 7 -23 3 -26 -38 -36 -28 -7 -28 -6 -25 36 3 43 3 43 47 48 37 4 45 9 48 29
2 13 12 39 23 56 l20 32 -25 13 c-15 8 -39 10 -66 6 l-42 -7 7 52 c8 58 0 69
-46 69 -26 0 -26 -1 -25 -67z m107 -118 c0 -31 -3 -35 -25 -35 -18 0 -25 5
-25 19 0 33 11 51 31 51 15 0 19 -7 19 -35z m-100 -10 c0 -28 -4 -35 -19 -35
-20 0 -31 18 -31 51 0 14 7 19 25 19 22 0 25 -4 25 -35z"/>
<path d="M517 321 c-58 -7 -68 -27 -12 -23 85 5 135 14 129 23 -6 10 -39 10
-117 0z"/>
<path d="M533 231 c-51 -8 -93 -18 -93 -22 0 -15 42 -16 104 -2 37 9 69 13 72
10 8 -8 -21 -59 -44 -80 -16 -14 -28 -17 -53 -12 l-33 8 44 -47 c45 -47 80
-60 80 -29 0 9 -7 24 -16 34 -21 23 -16 30 55 77 32 21 56 43 52 48 -10 14
-49 34 -63 32 -7 0 -55 -8 -105 -17z"/>
</g>
</svg>
