<?xml version="1.0" standalone="no"?>
<!DOCTYPE svg PUBLIC "-//W3C//DTD SVG 20010904//EN"
 "http://www.w3.org/TR/2001/REC-SVG-20010904/DTD/svg10.dtd">
<svg version="1.0" xmlns="http://www.w3.org/2000/svg"
 width="96.000000pt" height="68.000000pt" viewBox="0 0 96.000000 68.000000"
 preserveAspectRatio="xMidYMid meet">
<metadata>
Created by potrace 1.16, written by Peter Selinger 2001-2019
</metadata>
<g transform="translate(0.000000,68.000000) scale(0.100000,-0.100000)"
fill="#000000" stroke="none">
<path d="M610 598 c0 -48 -12 -68 -39 -69 -14 0 -35 -4 -46 -9 -18 -7 -19 -8
-2 -15 9 -4 29 -5 43 -2 22 4 25 2 20 -14 -19 -62 -18 -65 13 -29 17 19 31 38
31 42 0 4 18 8 39 8 22 0 47 3 56 6 24 10 -1 24 -42 24 -31 0 -32 1 -21 25 8
19 8 28 -2 40 -19 23 -50 19 -50 -7z"/>
<path d="M300 595 c0 -8 5 -26 12 -40 6 -14 9 -28 5 -31 -3 -3 -30 -9 -59 -13
l-53 -7 28 -18 c23 -16 34 -17 63 -8 30 9 36 8 44 -9 15 -26 30 -24 30 5 0 17
8 26 33 34 l32 10 -31 1 c-33 1 -44 15 -44 56 0 15 -7 25 -22 29 -33 9 -38 8
-38 -9z"/>
</g>
</svg>
