<?xml version="1.0" standalone="no"?>
<!DOCTYPE svg PUBLIC "-//W3C//DTD SVG 20010904//EN"
 "http://www.w3.org/TR/2001/REC-SVG-20010904/DTD/svg10.dtd">
<svg version="1.0" xmlns="http://www.w3.org/2000/svg"
 width="96.000000pt" height="68.000000pt" viewBox="0 0 96.000000 68.000000"
 preserveAspectRatio="xMidYMid meet">
<metadata>
Created by potrace 1.16, written by Peter Selinger 2001-2019
</metadata>
<g transform="translate(0.000000,68.000000) scale(0.100000,-0.100000)"
fill="#000000" stroke="none">
<path d="M256 591 c-3 -5 -1 -22 5 -39 5 -16 9 -54 7 -83 l-3 -54 -70 -11
c-83 -13 -66 -30 21 -21 l54 6 0 -43 0 -43 -87 -37 c-49 -21 -90 -40 -92 -42
-8 -7 22 -34 38 -34 9 0 43 18 76 40 32 21 60 38 62 36 1 -1 0 -33 -4 -70 l-6
-68 -36 6 -35 5 42 -42 43 -42 20 24 c16 20 19 39 19 123 0 95 1 101 26 120
29 23 26 35 -5 18 -19 -10 -21 -8 -21 23 0 32 2 35 40 41 48 8 44 26 -6 26
-29 0 -34 3 -34 24 0 13 7 43 15 66 8 23 15 44 15 47 0 4 -65 33 -74 33 -3 0
-7 -4 -10 -9z"/>
</g>
</svg>
