<?xml version="1.0" standalone="no"?>
<!DOCTYPE svg PUBLIC "-//W3C//DTD SVG 20010904//EN"
 "http://www.w3.org/TR/2001/REC-SVG-20010904/DTD/svg10.dtd">
<svg version="1.0" xmlns="http://www.w3.org/2000/svg"
 width="90.000000pt" height="92.000000pt" viewBox="0 0 90.000000 92.000000"
 preserveAspectRatio="xMidYMid meet">
<metadata>
Created by potrace 1.16, written by Peter Selinger 2001-2019
</metadata>
<g transform="translate(0.000000,92.000000) scale(0.100000,-0.100000)"
fill="#000000" stroke="none">
<path d="M515 810 c-4 -6 -1 -18 6 -27 9 -10 15 -59 17 -148 l4 -133 -58 -7
c-33 -4 -65 -11 -73 -15 -26 -14 28 -33 80 -28 l49 5 0 -103 0 -103 -52 -5
c-29 -3 -68 -7 -87 -9 -44 -3 -51 -23 -14 -38 21 -9 46 -8 98 1 39 7 136 14
218 17 81 3 150 9 152 13 2 4 -5 16 -16 26 -23 21 -71 24 -181 10 l-68 -9 0
69 c0 38 3 86 6 107 l7 37 56 0 c100 0 126 17 71 45 -24 13 -41 14 -82 7 l-51
-10 5 107 c3 59 10 116 15 127 14 26 6 42 -27 59 -34 17 -66 19 -75 5z"/>
<path d="M255 764 c-28 -11 -57 -13 -98 -8 l-59 6 13 -23 c18 -34 24 -235 9
-327 -17 -105 -35 -157 -81 -225 -22 -31 -36 -57 -33 -57 3 0 24 14 45 31 48
38 85 98 100 167 11 47 14 51 29 37 24 -22 29 -20 78 28 l44 42 -5 -109 c-3
-60 -10 -113 -16 -119 -6 -6 -21 -6 -42 2 -18 6 -34 10 -35 8 -2 -2 17 -27 42
-55 39 -45 48 -51 62 -40 39 33 44 71 37 302 -6 162 -4 233 5 266 11 43 11 45
-15 67 -30 26 -27 26 -80 7z m39 -71 c3 -21 6 -83 6 -139 l0 -100 -37 -18
c-21 -10 -51 -22 -67 -27 l-29 -8 7 67 c3 37 6 80 6 96 l0 28 36 -32 c38 -32
67 -36 72 -9 5 25 -23 46 -68 54 -39 7 -40 8 -40 48 0 61 14 75 76 76 29 1 32
-2 38 -36z"/>
</g>
</svg>
