<?xml version="1.0" standalone="no"?>
<!DOCTYPE svg PUBLIC "-//W3C//DTD SVG 20010904//EN"
 "http://www.w3.org/TR/2001/REC-SVG-20010904/DTD/svg10.dtd">
<svg version="1.0" xmlns="http://www.w3.org/2000/svg"
 width="96.000000pt" height="68.000000pt" viewBox="0 0 96.000000 68.000000"
 preserveAspectRatio="xMidYMid meet">
<metadata>
Created by potrace 1.16, written by Peter Selinger 2001-2019
</metadata>
<g transform="translate(0.000000,68.000000) scale(0.100000,-0.100000)"
fill="#000000" stroke="none">
<path d="M251 544 c18 -22 68 -46 79 -39 30 19 -18 55 -73 55 -16 0 -18 -2 -6
-16z"/>
<path d="M200 473 c0 -17 46 -53 68 -53 24 0 29 22 10 38 -18 14 -78 25 -78
15z"/>
<path d="M295 382 c-28 -26 -59 -52 -69 -57 -15 -9 -16 -14 -5 -38 7 -15 17
-27 23 -27 10 1 109 160 103 166 -1 1 -25 -19 -52 -44z"/>
</g>
</svg>
