<?xml version="1.0" standalone="no"?>
<!DOCTYPE svg PUBLIC "-//W3C//DTD SVG 20010904//EN"
 "http://www.w3.org/TR/2001/REC-SVG-20010904/DTD/svg10.dtd">
<svg version="1.0" xmlns="http://www.w3.org/2000/svg"
 width="90.000000pt" height="92.000000pt" viewBox="0 0 90.000000 92.000000"
 preserveAspectRatio="xMidYMid meet">
<metadata>
Created by potrace 1.16, written by Peter Selinger 2001-2019
</metadata>
<g transform="translate(0.000000,92.000000) scale(0.100000,-0.100000)"
fill="#000000" stroke="none">
<path d="M168 776 c5 -79 -4 -193 -17 -214 -5 -8 -34 -14 -79 -15 -61 -2 -72
-5 -72 -19 0 -10 11 -25 25 -34 22 -14 32 -15 66 -5 23 7 43 10 46 7 3 -2 -2
-27 -10 -55 l-15 -51 42 -32 c22 -17 42 -33 44 -34 12 -8 -29 -51 -90 -94 -39
-27 -64 -50 -54 -50 30 0 90 30 137 70 l47 39 42 -45 c38 -41 44 -44 58 -31
23 24 7 63 -37 93 l-39 26 18 31 c11 18 26 59 35 92 24 92 24 93 56 104 33 11
31 36 -2 26 -14 -5 -17 -2 -13 9 4 10 -5 20 -25 30 -45 24 -54 21 -49 -18 4
-33 2 -34 -35 -40 -22 -4 -42 -5 -44 -2 -3 3 6 53 18 113 13 59 24 112 24 118
0 9 -62 55 -75 55 -4 0 -5 -33 -2 -74z m92 -337 c-11 -38 -27 -72 -35 -75 -22
-9 -77 25 -71 44 3 9 10 38 16 63 11 44 13 46 58 55 59 11 61 6 32 -87z"/>
<path d="M678 755 c-4 -5 -257 -45 -282 -45 -5 0 -3 -7 4 -15 7 -8 20 -15 30
-15 25 0 40 -43 40 -119 0 -76 -5 -81 -77 -81 -17 0 -34 -4 -38 -9 -9 -15 29
-31 74 -31 48 0 49 -5 25 -95 -19 -74 -54 -135 -106 -186 -48 -46 -39 -50 25
-9 81 51 133 147 139 257 2 37 5 42 31 47 16 3 47 6 68 6 l39 0 0 -192 c0
-179 7 -237 24 -209 12 19 26 174 26 294 l0 117 74 0 c41 0 78 4 81 10 3 5 -8
18 -25 28 -23 15 -43 18 -82 14 l-51 -5 6 86 c6 74 5 87 -9 95 -13 7 -6 11 30
16 25 4 46 11 46 16 0 21 -76 41 -92 25z m-34 -77 c3 -13 6 -56 6 -95 0 -81 5
-76 -89 -87 l-44 -4 6 89 c4 62 2 89 -5 89 -6 0 -8 3 -4 7 6 6 48 14 112 22 7
0 14 -9 18 -21z"/>
</g>
</svg>
