<?xml version="1.0" standalone="no"?>
<!DOCTYPE svg PUBLIC "-//W3C//DTD SVG 20010904//EN"
 "http://www.w3.org/TR/2001/REC-SVG-20010904/DTD/svg10.dtd">
<svg version="1.0" xmlns="http://www.w3.org/2000/svg"
 width="96.000000pt" height="68.000000pt" viewBox="0 0 96.000000 68.000000"
 preserveAspectRatio="xMidYMid meet">
<metadata>
Created by potrace 1.16, written by Peter Selinger 2001-2019
</metadata>
<g transform="translate(0.000000,68.000000) scale(0.100000,-0.100000)"
fill="#000000" stroke="none">
<path d="M596 159 c-6 -55 -9 -60 -29 -57 -18 2 -23 10 -25 48 -3 41 -17 64
-33 55 -3 -3 -2 -27 4 -55 5 -28 8 -53 5 -55 -2 -3 -41 -5 -86 -6 -45 -1 -85
-5 -87 -10 -11 -17 50 -22 141 -10 51 6 154 11 228 11 136 0 166 9 104 29 -22
7 -62 8 -123 1 -49 -5 -91 -8 -92 -6 -2 2 6 24 18 51 17 39 19 49 8 56 -24 15
-26 11 -33 -52z"/>
</g>
</svg>
