<?xml version="1.0" standalone="no"?>
<!DOCTYPE svg PUBLIC "-//W3C//DTD SVG 20010904//EN"
 "http://www.w3.org/TR/2001/REC-SVG-20010904/DTD/svg10.dtd">
<svg version="1.0" xmlns="http://www.w3.org/2000/svg"
 width="96.000000pt" height="68.000000pt" viewBox="0 0 96.000000 68.000000"
 preserveAspectRatio="xMidYMid meet">
<metadata>
Created by potrace 1.16, written by Peter Selinger 2001-2019
</metadata>
<g transform="translate(0.000000,68.000000) scale(0.100000,-0.100000)"
fill="#000000" stroke="none">
<path d="M665 250 c-3 -5 -3 -10 2 -10 4 -1 -3 -7 -16 -14 -15 -8 -20 -16 -12
-20 6 -4 11 -3 11 1 0 5 10 9 21 10 27 2 33 8 26 28 -7 17 -23 20 -32 5z"/>
<path d="M575 188 c16 -13 34 -23 40 -23 5 0 10 -6 10 -12 0 -19 78 -84 93
-78 7 3 11 1 8 -4 -3 -5 12 -8 34 -7 40 1 58 16 19 16 -11 0 -27 7 -36 16 -11
11 -19 12 -26 5 -6 -6 -16 -11 -21 -11 -6 0 -6 4 1 8 9 5 -5 21 -43 47 -31 22
-61 45 -68 50 -6 6 -18 11 -26 13 -8 1 -2 -8 15 -20z"/>
<path d="M437 118 c-7 -81 1 -95 35 -63 15 14 32 25 38 25 5 0 10 5 10 10 0 7
-7 7 -20 0 -26 -14 -43 -4 -35 20 7 21 -4 70 -15 70 -4 0 -10 -28 -13 -62z"/>
</g>
</svg>
