<?xml version="1.0" standalone="no"?>
<!DOCTYPE svg PUBLIC "-//W3C//DTD SVG 20010904//EN"
 "http://www.w3.org/TR/2001/REC-SVG-20010904/DTD/svg10.dtd">
<svg version="1.0" xmlns="http://www.w3.org/2000/svg"
 width="96.000000pt" height="68.000000pt" viewBox="0 0 96.000000 68.000000"
 preserveAspectRatio="xMidYMid meet">
<metadata>
Created by potrace 1.16, written by Peter Selinger 2001-2019
</metadata>
<g transform="translate(0.000000,68.000000) scale(0.100000,-0.100000)"
fill="#000000" stroke="none">
<path d="M560 574 c-41 -7 -101 -13 -133 -13 l-58 -1 16 -22 c8 -13 20 -40 26
-61 5 -21 14 -35 20 -32 14 9 73 16 158 19 l74 2 21 40 c12 21 24 40 29 42 14
7 7 19 -18 30 -30 14 -36 14 -135 -4z m86 -60 c-5 -19 -13 -24 -37 -24 -26 0
-30 3 -24 18 4 9 9 25 12 34 6 21 47 28 51 10 2 -8 1 -24 -2 -38z m-85 33 c-1
-4 -1 -20 -1 -37 0 -25 -4 -30 -24 -30 -19 0 -25 6 -28 31 -4 24 0 33 16 39
23 10 38 8 37 -3z m-81 -23 c16 -40 12 -54 -14 -54 -18 0 -27 8 -35 31 -13 36
-7 49 20 49 12 0 23 -10 29 -26z"/>
<path d="M225 515 c-14 -32 -43 -74 -65 -94 -65 -59 -37 -87 55 -56 11 4 -3
-15 -32 -45 -83 -81 -69 -95 49 -50 52 20 84 28 86 21 5 -16 29 -13 36 4 3 8
-4 21 -17 30 -26 19 -48 20 -41 2 3 -9 -9 -18 -37 -26 -22 -7 -48 -15 -58 -18
-9 -3 19 30 62 74 54 55 76 84 72 95 -12 30 -32 27 -49 -8 -15 -33 -55 -58
-83 -52 -12 3 15 40 85 116 12 14 22 28 22 31 -1 14 -16 26 -37 29 -19 3 -27
-6 -48 -53z"/>
<path d="M530 424 c-206 -20 -189 -17 -164 -31 16 -9 31 -10 55 -2 19 5 100
13 182 16 140 6 175 13 125 27 -28 7 -28 7 -198 -10z"/>
<path d="M550 370 c-14 -4 -49 -8 -77 -9 -49 -1 -67 -11 -43 -26 6 -3 10 -15
10 -26 0 -10 6 -29 13 -40 11 -18 8 -24 -26 -54 -21 -18 -52 -40 -70 -49 -41
-20 -18 -21 30 -1 19 8 38 15 40 15 3 0 3 -33 2 -72 -5 -101 8 -101 120 0 l26
23 -42 -21 c-60 -29 -65 -27 -62 26 2 30 -1 48 -11 54 -10 6 -5 14 23 30 29
17 36 27 32 41 -5 16 -1 19 27 20 18 1 38 2 43 4 6 1 18 3 28 3 9 1 17 8 17
16 0 8 7 22 16 31 37 37 -23 59 -96 35z m50 -40 c0 -11 -3 -20 -7 -21 -5 0
-16 -2 -25 -4 -100 -19 -99 -19 -102 17 -1 15 35 26 92 27 36 1 42 -2 42 -19z"/>
<path d="M280 252 c0 -13 30 -52 41 -52 17 0 9 39 -10 50 -23 12 -31 13 -31 2z"/>
<path d="M642 230 c-25 -34 -47 -37 -80 -14 -13 9 -26 13 -30 9 -4 -4 7 -16
23 -28 17 -12 48 -40 70 -62 71 -72 97 -86 149 -79 25 4 46 10 46 15 0 4 -22
15 -48 23 -27 9 -75 33 -107 53 l-59 37 35 14 c18 8 45 19 59 24 24 9 24 10 6
24 -28 20 -40 18 -64 -16z"/>
<path d="M200 225 c0 -18 33 -65 45 -65 23 0 18 37 -7 54 -23 16 -38 20 -38
11z"/>
<path d="M126 178 c7 -26 33 -58 46 -58 16 0 7 40 -14 60 -29 26 -41 25 -32
-2z"/>
</g>
</svg>
