<?xml version="1.0" standalone="no"?>
<!DOCTYPE svg PUBLIC "-//W3C//DTD SVG 20010904//EN"
 "http://www.w3.org/TR/2001/REC-SVG-20010904/DTD/svg10.dtd">
<svg version="1.0" xmlns="http://www.w3.org/2000/svg"
 width="96.000000pt" height="68.000000pt" viewBox="0 0 96.000000 68.000000"
 preserveAspectRatio="xMidYMid meet">
<metadata>
Created by potrace 1.16, written by Peter Selinger 2001-2019
</metadata>
<g transform="translate(0.000000,68.000000) scale(0.100000,-0.100000)"
fill="#000000" stroke="none">
<path d="M700 584 c-19 -7 -50 -13 -67 -13 l-33 -1 14 -32 c8 -18 17 -41 20
-52 4 -10 12 -16 20 -13 7 3 34 8 59 12 43 7 45 9 57 51 7 25 11 46 9 48 -13
12 -49 12 -79 0z m26 -28 c3 -8 1 -24 -6 -35 -13 -25 -69 -30 -71 -6 -1 8 -2
21 -3 27 -1 11 23 20 67 27 4 0 10 -5 13 -13z"/>
<path d="M218 474 c-5 -110 -8 -114 -85 -114 -58 0 -66 -9 -28 -34 20 -13 33
-15 59 -7 l34 9 -10 -30 c-11 -32 3 -53 52 -74 l24 -11 -26 -26 c-14 -14 -47
-36 -72 -48 -49 -22 -59 -39 -26 -39 26 0 112 43 129 64 17 21 28 20 58 -4 53
-41 82 -6 34 39 l-29 28 25 70 c18 52 31 73 47 77 20 6 20 7 -9 31 -16 13 -41
24 -54 25 -19 0 -23 -4 -19 -24 4 -22 1 -25 -32 -28 l-38 -3 15 50 c8 27 18
63 24 79 11 35 -11 66 -46 66 -22 0 -23 -5 -27 -96z m102 -144 c0 -10 -7 -35
-16 -54 -16 -32 -19 -33 -45 -24 -38 13 -41 20 -28 56 10 29 24 37 72 41 11 1
17 -6 17 -19z"/>
<path d="M455 557 c-27 -6 -51 -11 -52 -12 -2 -1 26 -82 32 -92 1 -2 27 2 58
8 44 9 57 16 59 30 0 11 1 25 2 32 1 6 5 15 10 18 16 12 -5 29 -32 28 -15 -1
-49 -6 -77 -12z m58 -15 c3 -4 3 -19 0 -34 -7 -35 -59 -46 -67 -14 -10 36 -7
44 17 49 38 7 46 7 50 -1z"/>
<path d="M600 435 c-47 -7 -110 -14 -140 -14 -53 -2 -54 -2 -34 -19 11 -9 20
-19 21 -22 0 -3 3 -14 6 -25 3 -11 11 -39 16 -61 l11 -42 45 6 c42 4 45 3 45
-19 0 -23 -4 -24 -73 -27 -82 -3 -110 -9 -102 -23 8 -11 88 -11 137 0 l36 9 7
-84 c4 -46 11 -84 15 -84 11 0 20 54 20 116 l0 54 120 0 c66 0 120 4 120 9 0
19 -63 30 -145 24 -81 -6 -85 -5 -85 14 0 22 41 36 77 27 23 -6 43 20 74 98
19 50 20 53 3 65 -21 16 -61 15 -174 -2z m120 -38 c0 -21 -5 -23 -50 -24 -27
0 -50 3 -50 7 0 5 -3 15 -6 24 -5 13 3 16 50 16 52 0 56 -2 56 -23z m-152 -13
c3 -19 -3 -22 -40 -26 -24 -3 -46 0 -50 6 -15 21 -8 35 20 39 49 8 67 3 70
-19z m142 -38 c0 -35 -13 -46 -50 -46 -22 0 -41 4 -44 9 -13 20 7 40 42 44 21
2 40 4 45 5 4 1 7 -4 7 -12z m-137 -13 c10 -18 -11 -46 -36 -49 -28 -3 -54 26
-42 46 7 12 72 14 78 3z"/>
</g>
</svg>
