<?xml version="1.0" standalone="no"?>
<!DOCTYPE svg PUBLIC "-//W3C//DTD SVG 20010904//EN"
 "http://www.w3.org/TR/2001/REC-SVG-20010904/DTD/svg10.dtd">
<svg version="1.0" xmlns="http://www.w3.org/2000/svg"
 width="90.000000pt" height="92.000000pt" viewBox="0 0 90.000000 92.000000"
 preserveAspectRatio="xMidYMid meet">
<metadata>
Created by potrace 1.16, written by Peter Selinger 2001-2019
</metadata>
<g transform="translate(0.000000,92.000000) scale(0.100000,-0.100000)"
fill="#000000" stroke="none">
<path d="M376 872 c-3 -3 5 -25 19 -48 l25 -43 -32 -5 c-41 -7 -269 -36 -282
-36 -5 0 0 -10 12 -23 18 -19 22 -35 22 -88 0 -148 -43 -336 -106 -462 -40
-80 -41 -87 -13 -61 78 70 129 211 159 439 12 88 22 161 23 161 1 1 28 5 59 9
l57 7 6 -36 c10 -53 2 -64 -55 -72 -27 -4 -50 -10 -50 -15 0 -13 39 -21 72
-14 l31 7 -8 -38 c-4 -22 -8 -41 -10 -43 -2 -2 -24 -6 -50 -8 -43 -5 -56 -15
-36 -27 5 -4 15 -38 21 -76 6 -38 16 -72 21 -76 5 -3 9 0 9 6 0 6 10 10 23 8
16 -2 23 -11 25 -31 2 -15 2 -27 0 -27 -16 0 -172 -31 -176 -35 -3 -2 10 -11
28 -19 28 -11 41 -11 84 0 28 8 54 14 59 14 9 0 8 -79 -2 -105 -9 -21 7 -85
21 -85 19 0 28 55 22 125 -6 70 -6 72 17 78 13 4 38 7 56 7 37 0 49 13 28 30
-9 8 -28 9 -53 5 -35 -6 -40 -4 -45 16 -8 29 -7 29 38 32 36 3 37 4 66 77 16
41 27 81 24 88 -8 23 -55 34 -92 21 -42 -14 -47 -9 -39 34 6 33 9 35 56 41 28
4 50 11 50 16 0 13 -45 24 -70 17 -22 -6 -25 5 -10 32 10 19 -8 43 -40 53 -19
6 198 28 277 28 97 0 119 16 61 46 -31 16 -63 16 -170 -2 -36 -6 -38 -5 -38
18 0 14 -6 31 -14 37 -18 15 -73 31 -80 23z m52 -397 c-2 -13 -14 -19 -38 -20
-19 -1 -56 -6 -82 -10 -44 -7 -48 -6 -48 13 0 17 9 22 53 31 108 21 122 19
115 -14z m-9 -52 c-3 -37 -17 -45 -82 -49 -61 -4 -67 -3 -67 14 0 15 11 21 53
29 67 13 97 15 96 6z"/>
<path d="M620 654 c-22 -8 -53 -11 -83 -8 -49 6 -49 6 -36 -17 7 -13 14 -69
17 -124 5 -129 -17 -259 -57 -337 -16 -32 -26 -58 -21 -58 4 0 24 18 43 39 33
37 67 119 67 163 0 14 8 18 38 18 20 0 47 3 60 6 22 6 22 5 22 -77 0 -103 -7
-116 -49 -101 -17 6 -31 8 -31 4 1 -4 21 -29 45 -56 l44 -49 20 34 c20 32 21
49 21 261 0 125 4 238 10 252 8 21 5 28 -17 46 -29 23 -43 23 -93 4z m48 -96
c3 -67 3 -68 -20 -59 -13 4 -36 4 -52 0 -16 -5 -30 -8 -31 -6 0 1 1 28 3 59 4
55 5 58 35 67 57 17 62 12 65 -61z m2 -140 l0 -53 -55 -1 -55 -2 0 49 c0 52 4
55 78 58 l32 1 0 -52z"/>
</g>
</svg>
