<?xml version="1.0" standalone="no"?>
<!DOCTYPE svg PUBLIC "-//W3C//DTD SVG 20010904//EN"
 "http://www.w3.org/TR/2001/REC-SVG-20010904/DTD/svg10.dtd">
<svg version="1.0" xmlns="http://www.w3.org/2000/svg"
 width="90.000000pt" height="92.000000pt" viewBox="0 0 90.000000 92.000000"
 preserveAspectRatio="xMidYMid meet">
<metadata>
Created by potrace 1.16, written by Peter Selinger 2001-2019
</metadata>
<g transform="translate(0.000000,92.000000) scale(0.100000,-0.100000)"
fill="#000000" stroke="none">
<path d="M480 884 c0 -3 6 -32 14 -63 8 -31 17 -85 21 -121 4 -36 16 -112 25
-170 12 -69 15 -107 8 -111 -5 -3 -57 -12 -114 -19 -58 -7 -107 -17 -110 -21
-7 -11 30 -29 60 -29 14 0 26 -1 26 -2 0 -2 -7 -24 -14 -50 -16 -50 -33 -80
-79 -141 -16 -20 -25 -37 -22 -37 23 0 78 47 105 90 18 28 34 50 37 50 3 0 23
-18 44 -41 41 -43 59 -44 59 -3 0 21 -9 29 -50 47 -38 16 -49 25 -44 37 4 8 7
24 8 35 1 26 11 32 67 40 l47 7 22 -69 c12 -37 27 -74 33 -82 9 -11 -3 -28
-63 -83 -70 -66 -72 -69 -34 -54 21 9 58 31 82 48 l43 30 16 -22 c54 -77 133
-135 154 -113 9 10 -1 184 -11 178 -4 -3 -11 -20 -14 -39 -7 -37 -29 -62 -46
-51 -6 4 -24 25 -40 47 -32 44 -34 36 29 132 l25 38 -23 19 c-32 26 -51 24
-51 -5 0 -29 -19 -86 -30 -86 -4 0 -17 26 -28 57 -15 41 -18 59 -10 64 6 4 42
10 80 14 37 4 68 11 68 16 0 19 -46 27 -103 17 -32 -6 -60 -8 -63 -5 -17 16
-44 281 -44 424 0 6 -14 16 -31 22 -36 12 -49 14 -49 5z"/>
<path d="M177 798 c-7 -66 -42 -147 -112 -264 -36 -59 -62 -110 -59 -113 3 -3
26 16 50 42 25 26 48 47 51 47 12 0 -2 -317 -15 -332 -15 -19 0 -68 21 -68 7
0 39 27 72 60 61 62 79 71 89 45 10 -27 36 -17 36 13 0 35 -8 46 -48 66 -41
21 -50 15 -29 -17 15 -23 14 -25 -23 -46 -56 -31 -60 -29 -60 43 l0 63 50 10
c28 6 50 6 50 2 0 -5 6 -9 14 -9 14 0 75 169 68 190 -2 6 -16 17 -31 24 -24
13 -34 12 -85 -5 -32 -11 -66 -17 -77 -14 -17 6 -17 8 -4 29 12 18 28 25 72
29 61 6 84 20 66 38 -8 8 -24 7 -59 -5 -26 -9 -48 -15 -49 -13 -1 1 11 30 28
65 l30 64 42 -42 c45 -45 65 -46 65 -4 0 21 -9 29 -49 46 -38 17 -47 25 -43
40 5 20 -23 58 -43 58 -7 0 -15 -19 -18 -42z m93 -308 c0 -27 -2 -29 -29 -24
-16 3 -38 1 -51 -6 -27 -15 -33 -9 -25 23 7 26 22 33 78 36 24 1 27 -3 27 -29z
m-12 -77 c-2 -18 -10 -27 -23 -29 -11 -1 -35 -5 -53 -9 -33 -8 -33 -7 -30 21
2 24 9 30 38 35 68 12 72 11 68 -18z"/>
<path d="M661 755 c-7 -25 -27 -64 -43 -87 -23 -32 -28 -45 -20 -57 11 -17 23
-18 62 -6 l24 8 -29 -39 c-16 -22 -33 -40 -37 -42 -12 -5 -10 -26 3 -39 8 -8
25 -5 61 10 40 16 54 18 69 9 28 -18 39 -15 39 12 0 14 -10 32 -22 40 -31 22
-51 21 -43 -3 4 -15 -1 -20 -26 -25 -18 -3 -34 -5 -35 -3 -2 2 24 33 58 71 55
61 60 69 50 92 -16 33 -24 30 -44 -16 -14 -34 -21 -40 -47 -40 -17 0 -31 3
-31 6 0 4 16 32 37 62 27 42 34 59 26 71 -20 31 -38 23 -52 -24z"/>
<path d="M406 735 c-4 -19 -20 -60 -36 -91 -42 -80 -38 -104 14 -84 35 13 33
1 -10 -49 -33 -38 -35 -44 -21 -58 14 -14 21 -13 71 7 52 22 57 22 74 7 22
-20 32 -13 32 19 0 16 -10 29 -30 39 -40 21 -53 20 -41 -4 12 -21 -2 -31 -41
-31 -17 0 -12 10 31 65 44 55 50 68 41 85 -15 28 -26 25 -40 -10 -9 -22 -19
-30 -37 -30 l-25 0 36 64 c20 35 36 67 36 69 0 9 -31 37 -40 37 -4 0 -11 -16
-14 -35z"/>
<path d="M776 451 c38 -64 74 -77 74 -27 0 29 -17 44 -60 52 l-33 7 19 -32z"/>
</g>
</svg>
