<?xml version="1.0" standalone="no"?>
<!DOCTYPE svg PUBLIC "-//W3C//DTD SVG 20010904//EN"
 "http://www.w3.org/TR/2001/REC-SVG-20010904/DTD/svg10.dtd">
<svg version="1.0" xmlns="http://www.w3.org/2000/svg"
 width="96.000000pt" height="68.000000pt" viewBox="0 0 96.000000 68.000000"
 preserveAspectRatio="xMidYMid meet">
<metadata>
Created by potrace 1.16, written by Peter Selinger 2001-2019
</metadata>
<g transform="translate(0.000000,68.000000) scale(0.100000,-0.100000)"
fill="#000000" stroke="none">
<path d="M510 604 c-36 -8 -104 -15 -151 -16 l-87 -1 5 -59 c11 -116 -48 -280
-137 -385 -53 -62 -51 -80 6 -41 33 22 108 111 120 143 7 16 38 15 56 -3 13
-13 17 -114 5 -152 -13 -44 5 -55 49 -31 72 37 131 81 109 81 -11 -1 -31 -7
-45 -15 -50 -29 -58 -22 -62 56 -2 39 0 73 3 75 3 2 87 9 187 15 152 10 180
15 170 26 -8 10 -28 12 -84 7 -73 -7 -74 -7 -74 17 0 35 11 45 53 53 43 8 40
26 -5 26 -27 0 -30 3 -24 24 5 20 1 26 -26 35 -17 6 -33 11 -35 11 -2 0 -1
-15 2 -34 8 -39 4 -43 -53 -49 -41 -5 -42 -4 -42 24 0 18 -5 29 -14 29 -8 0
-22 3 -31 7 -15 5 -16 1 -10 -35 7 -42 7 -42 -25 -42 -18 0 -29 -4 -25 -10 3
-5 19 -10 36 -10 27 0 29 -3 29 -35 0 -29 -4 -35 -22 -36 -13 0 -42 -2 -65 -5
-48 -6 -48 -6 -29 40 8 19 19 59 26 89 l11 55 47 6 c26 3 96 9 155 12 90 6
108 10 106 23 -3 30 1 41 22 62 19 19 19 22 5 38 -20 22 -71 23 -156 5z m72
-49 c-5 -32 -27 -42 -105 -49 -39 -4 -87 -9 -105 -13 -33 -5 -33 -5 -30 28 l3
34 95 11 c128 16 146 14 142 -11z m-42 -224 l0 -39 -45 -4 -45 -3 0 37 c0 34
2 37 33 41 17 2 38 5 45 5 8 1 12 -12 12 -37z"/>
<path d="M615 230 c-32 -34 -46 -36 -78 -16 -29 19 -67 29 -67 19 0 -4 17 -18
38 -30 20 -11 71 -48 112 -82 73 -59 76 -60 135 -60 90 1 110 12 49 28 -71 19
-123 39 -173 68 l-44 26 24 13 c13 7 31 14 39 14 8 0 21 4 29 9 12 8 12 12 2
25 -19 23 -34 20 -66 -14z"/>
</g>
</svg>
