<?xml version="1.0" standalone="no"?>
<!DOCTYPE svg PUBLIC "-//W3C//DTD SVG 20010904//EN"
 "http://www.w3.org/TR/2001/REC-SVG-20010904/DTD/svg10.dtd">
<svg version="1.0" xmlns="http://www.w3.org/2000/svg"
 width="96.000000pt" height="68.000000pt" viewBox="0 0 96.000000 68.000000"
 preserveAspectRatio="xMidYMid meet">
<metadata>
Created by potrace 1.16, written by Peter Selinger 2001-2019
</metadata>
<g transform="translate(0.000000,68.000000) scale(0.100000,-0.100000)"
fill="#000000" stroke="none">
<path d="M668 405 c-7 -7 -250 -37 -262 -32 -13 5 -16 -167 -3 -179 15 -15 27
21 27 83 0 34 5 65 11 68 8 6 211 35 242 35 4 0 7 -37 7 -81 l0 -82 -39 6 -39
5 38 -34 c21 -19 44 -34 52 -34 22 0 39 46 48 135 8 74 7 81 -12 98 -19 16
-59 23 -70 12z"/>
</g>
</svg>
