<?xml version="1.0" standalone="no"?>
<!DOCTYPE svg PUBLIC "-//W3C//DTD SVG 20010904//EN"
 "http://www.w3.org/TR/2001/REC-SVG-20010904/DTD/svg10.dtd">
<svg version="1.0" xmlns="http://www.w3.org/2000/svg"
 width="96.000000pt" height="68.000000pt" viewBox="0 0 96.000000 68.000000"
 preserveAspectRatio="xMidYMid meet">
<metadata>
Created by potrace 1.16, written by Peter Selinger 2001-2019
</metadata>
<g transform="translate(0.000000,68.000000) scale(0.100000,-0.100000)"
fill="#000000" stroke="none">
<path d="M556 558 c-14 -29 -37 -68 -53 -86 -24 -30 -25 -33 -7 -30 10 1 21 5
24 8 45 47 71 57 157 64 101 8 122 16 98 36 -15 12 -91 8 -131 -7 -13 -5 -15
-2 -9 16 8 26 -9 51 -35 51 -12 0 -27 -18 -44 -52z"/>
<path d="M316 547 c-10 -23 -37 -61 -59 -84 -52 -54 -27 -59 42 -9 39 28 58
34 121 40 78 7 106 20 80 37 -14 9 -48 6 -110 -8 l-25 -6 20 22 c19 22 19 23
0 37 -31 23 -49 16 -69 -29z"/>
<path d="M600 482 c0 -17 47 -52 68 -52 32 0 29 38 -4 50 -31 12 -64 13 -64 2z"/>
<path d="M350 464 c0 -13 52 -55 64 -51 17 6 20 38 4 48 -15 10 -68 12 -68 3z"/>
<path d="M563 409 c-132 -27 -133 -28 -43 -26 l85 2 -3 -30 c-2 -16 -4 -31 -5
-32 -2 -2 -44 -7 -150 -19 -59 -7 -62 -24 -4 -24 25 0 27 -2 16 -22 -6 -13
-21 -33 -32 -45 -28 -31 -15 -40 19 -14 43 34 94 23 94 -20 0 -23 -20 -29 -96
-29 -35 0 -64 -4 -64 -9 0 -16 33 -22 93 -15 l60 7 -22 -31 c-22 -32 -61 -62
-96 -77 -17 -7 -18 -9 -3 -12 37 -9 130 56 148 103 11 27 82 39 169 29 36 -4
61 -3 65 3 11 19 -49 30 -124 22 -41 -4 -75 -7 -76 -6 -1 1 -4 13 -7 27 -7 29
9 39 65 39 26 0 46 16 34 27 -3 4 -48 -1 -99 -10 -114 -21 -112 -21 -93 -1 9
8 16 21 16 29 0 16 34 22 168 31 69 4 102 10 99 18 -2 6 -28 11 -63 11 -32 0
-61 2 -62 5 -2 3 2 18 9 33 21 45 -6 55 -98 36z"/>
<path d="M315 378 c-11 -46 -45 -96 -104 -152 -29 -26 -50 -50 -47 -53 6 -6
53 28 93 66 12 12 25 21 28 21 8 0 0 -169 -9 -195 -8 -22 17 -65 30 -52 4 4
11 60 15 125 6 95 5 120 -7 133 -12 14 -12 18 6 34 34 31 60 81 47 94 -22 22
-45 12 -52 -21z"/>
<path d="M600 117 c0 -2 29 -27 64 -55 70 -57 99 -66 94 -29 -2 16 -19 30 -58
48 -57 28 -100 43 -100 36z"/>
</g>
</svg>
