<?xml version="1.0" standalone="no"?>
<!DOCTYPE svg PUBLIC "-//W3C//DTD SVG 20010904//EN"
 "http://www.w3.org/TR/2001/REC-SVG-20010904/DTD/svg10.dtd">
<svg version="1.0" xmlns="http://www.w3.org/2000/svg"
 width="96.000000pt" height="68.000000pt" viewBox="0 0 96.000000 68.000000"
 preserveAspectRatio="xMidYMid meet">
<metadata>
Created by potrace 1.16, written by Peter Selinger 2001-2019
</metadata>
<g transform="translate(0.000000,68.000000) scale(0.100000,-0.100000)"
fill="#000000" stroke="none">
<path d="M359 92 c-13 -15 -37 -38 -53 -50 -36 -28 -28 -28 20 -1 80 44 106
66 89 73 -26 10 -31 8 -56 -22z"/>
<path d="M571 60 c37 -33 79 -52 79 -36 0 19 -14 34 -27 29 -11 -4 -14 -2 -9
5 7 12 -29 36 -44 27 -5 -3 -11 -1 -15 5 -3 5 -11 10 -17 10 -6 0 9 -18 33
-40z"/>
</g>
</svg>
