<?xml version="1.0" standalone="no"?>
<!DOCTYPE svg PUBLIC "-//W3C//DTD SVG 20010904//EN"
 "http://www.w3.org/TR/2001/REC-SVG-20010904/DTD/svg10.dtd">
<svg version="1.0" xmlns="http://www.w3.org/2000/svg"
 width="90.000000pt" height="92.000000pt" viewBox="0 0 90.000000 92.000000"
 preserveAspectRatio="xMidYMid meet">
<metadata>
Created by potrace 1.16, written by Peter Selinger 2001-2019
</metadata>
<g transform="translate(0.000000,92.000000) scale(0.100000,-0.100000)"
fill="#000000" stroke="none">
<path d="M442 795 c22 -41 26 -56 16 -59 -7 -3 -69 -12 -137 -20 -68 -9 -126
-18 -129 -21 -3 -3 3 -12 14 -19 16 -13 19 -26 17 -98 -3 -160 -55 -333 -133
-450 -21 -32 -35 -58 -31 -58 4 0 28 21 53 48 84 85 133 215 162 431 9 63 18
116 20 119 9 8 193 32 296 37 144 8 170 13 164 29 -14 37 -80 40 -222 10 -20
-4 -23 -2 -17 16 3 11 3 29 0 40 -7 22 -53 50 -84 50 -18 0 -17 -4 11 -55z"/>
<path d="M60 561 c44 -78 90 -94 90 -32 0 35 -26 57 -80 67 l-33 7 23 -42z"/>
<path d="M513 542 c-101 -15 -183 -30 -183 -34 0 -22 49 -30 116 -19 47 7 72
7 79 0 6 -6 11 -78 13 -167 4 -186 1 -195 -65 -183 -24 5 -43 7 -43 5 0 -1 23
-27 51 -56 41 -43 53 -50 67 -42 36 22 41 56 43 261 l1 200 67 7 c36 3 85 6
109 6 46 0 58 21 23 40 -27 14 -68 11 -278 -18z"/>
<path d="M132 421 c-23 -16 -62 -37 -87 -48 -50 -20 -59 -45 -24 -64 19 -10
28 -4 81 48 50 49 86 93 76 93 -2 0 -22 -13 -46 -29z"/>
</g>
</svg>
