<?xml version="1.0" standalone="no"?>
<!DOCTYPE svg PUBLIC "-//W3C//DTD SVG 20010904//EN"
 "http://www.w3.org/TR/2001/REC-SVG-20010904/DTD/svg10.dtd">
<svg version="1.0" xmlns="http://www.w3.org/2000/svg"
 width="90.000000pt" height="92.000000pt" viewBox="0 0 90.000000 92.000000"
 preserveAspectRatio="xMidYMid meet">
<metadata>
Created by potrace 1.16, written by Peter Selinger 2001-2019
</metadata>
<g transform="translate(0.000000,92.000000) scale(0.100000,-0.100000)"
fill="#000000" stroke="none">
<path d="M437 893 c-3 -3 5 -27 18 -53 l24 -48 -22 -5 c-12 -3 -73 -11 -134
-18 -62 -6 -113 -14 -113 -17 0 -3 8 -14 18 -25 14 -16 17 -35 14 -100 -5
-161 -71 -352 -162 -466 l-43 -54 33 19 c108 63 189 244 221 494 6 48 14 92
18 98 8 13 249 42 348 42 76 0 96 11 70 38 -18 18 -56 20 -139 8 -57 -8 -58
-8 -58 15 0 13 -4 29 -8 36 -10 15 -77 44 -85 36z"/>
<path d="M450 715 c0 -25 -38 -92 -55 -98 -8 -4 -29 -4 -45 0 -30 6 -30 6 -16
-22 8 -16 18 -58 22 -94 9 -85 21 -118 36 -103 7 7 24 12 39 12 33 0 31 -19
-10 -69 -26 -32 -34 -35 -95 -39 -73 -5 -83 -16 -33 -37 27 -11 42 -11 92 0
33 7 84 16 113 19 l52 7 1 -113 c1 -62 4 -124 9 -138 l7 -25 13 30 c7 17 15
78 18 137 l4 107 111 3 c121 3 144 15 83 44 -30 15 -44 16 -105 6 -102 -17
-98 -20 -74 45 3 6 -8 18 -24 27 l-28 15 32 1 c17 0 33 -5 35 -12 10 -28 35 6
57 75 12 41 29 87 37 103 14 26 14 29 -8 46 -32 24 -69 31 -104 18 -26 -10
-155 -40 -172 -40 -4 0 13 18 38 40 43 38 44 40 26 55 -26 19 -56 19 -56 0z
m205 -95 c4 -6 4 -23 0 -38 -5 -25 -9 -27 -60 -27 -43 0 -55 3 -55 16 0 8 -5
20 -11 26 -8 8 1 13 37 18 27 4 54 8 59 10 18 6 24 5 30 -5z m-173 -49 c4 -28
2 -29 -41 -34 -25 -3 -47 -4 -48 -4 -1 1 -4 14 -8 29 -6 25 -5 27 32 31 21 2
43 4 49 5 7 1 14 -11 16 -27z m159 -73 c-7 -32 -8 -33 -64 -35 -48 -2 -57 1
-57 15 0 36 20 46 101 51 25 1 26 -1 20 -31z m-161 -5 c0 -32 -16 -45 -51 -41
-26 2 -35 8 -37 25 -2 16 3 23 20 26 51 10 68 7 68 -10z m66 -97 c3 -13 4 -35
2 -47 -3 -21 -10 -25 -59 -29 l-57 -5 28 32 c16 17 31 41 35 52 9 29 43 27 51
-3z"/>
<path d="M81 618 c23 -47 47 -78 60 -78 5 0 13 9 19 19 16 30 -4 70 -45 86
-52 23 -57 19 -34 -27z"/>
<path d="M130 474 c-25 -18 -62 -41 -82 -50 -21 -9 -38 -22 -38 -29 0 -14 32
-45 47 -45 17 0 132 145 122 154 -2 2 -24 -12 -49 -30z"/>
</g>
</svg>
