<?xml version="1.0" standalone="no"?>
<!DOCTYPE svg PUBLIC "-//W3C//DTD SVG 20010904//EN"
 "http://www.w3.org/TR/2001/REC-SVG-20010904/DTD/svg10.dtd">
<svg version="1.0" xmlns="http://www.w3.org/2000/svg"
 width="90.000000pt" height="92.000000pt" viewBox="0 0 90.000000 92.000000"
 preserveAspectRatio="xMidYMid meet">
<metadata>
Created by potrace 1.16, written by Peter Selinger 2001-2019
</metadata>
<g transform="translate(0.000000,92.000000) scale(0.100000,-0.100000)"
fill="#000000" stroke="none">
<path d="M540 853 c0 -61 -6 -69 -57 -78 -24 -4 -43 -11 -43 -16 0 -12 46 -23
66 -15 13 5 15 0 9 -27 l-6 -32 33 38 c31 35 36 37 93 37 77 0 97 12 63 34
-19 12 -37 15 -67 10 -44 -7 -49 -1 -26 33 14 20 13 23 -11 42 -42 33 -54 27
-54 -26z"/>
<path d="M240 851 c0 -5 7 -22 15 -37 8 -16 15 -34 15 -40 0 -12 -53 -24 -107
-24 -40 0 -42 -12 -7 -35 26 -17 51 -15 118 11 8 3 20 -13 30 -38 12 -31 19
-39 25 -29 5 8 5 27 0 45 -5 17 -9 32 -9 33 0 1 14 6 30 10 40 11 38 28 -3 28
-28 0 -32 3 -35 30 -2 17 -11 36 -20 43 -18 14 -52 16 -52 3z"/>
<path d="M400 650 c-25 -16 -65 -37 -90 -46 -52 -19 -72 -34 -47 -34 16 0 209
44 247 57 12 3 9 10 -13 29 -35 30 -41 30 -97 -6z"/>
<path d="M566 566 c-14 -24 -41 -57 -61 -75 -48 -42 -31 -39 53 9 38 22 74 40
81 40 17 0 13 41 -6 56 -29 21 -40 17 -67 -30z"/>
<path d="M373 528 c31 -54 57 -62 57 -19 0 32 -30 61 -63 61 -18 0 -17 -3 6
-42z"/>
<path d="M190 532 c0 -19 62 -103 73 -99 6 2 13 18 15 35 3 27 -2 35 -30 52
-34 21 -58 26 -58 12z"/>
<path d="M385 427 c8 -40 14 -38 -167 -58 -65 -7 -118 -16 -118 -20 0 -4 17
-14 39 -22 33 -14 45 -14 92 -2 83 21 139 28 139 17 0 -21 -145 -153 -222
-201 -69 -44 -77 -51 -48 -46 69 14 161 66 232 133 l71 67 -8 -126 c-6 -109
-5 -127 10 -139 33 -27 40 2 37 146 -2 73 0 134 5 134 5 0 51 -43 103 -95 51
-52 106 -99 121 -106 21 -8 45 -8 98 1 39 6 71 16 71 20 0 5 -30 18 -67 31
-98 32 -156 63 -251 135 l-83 64 150 0 c82 0 152 4 156 9 3 5 -7 19 -22 31
-30 24 -41 24 -210 2 l-62 -8 -3 30 c-3 27 -7 31 -36 34 -33 3 -33 3 -27 -31z"/>
</g>
</svg>
