<?xml version="1.0" standalone="no"?>
<!DOCTYPE svg PUBLIC "-//W3C//DTD SVG 20010904//EN"
 "http://www.w3.org/TR/2001/REC-SVG-20010904/DTD/svg10.dtd">
<svg version="1.0" xmlns="http://www.w3.org/2000/svg"
 width="96.000000pt" height="68.000000pt" viewBox="0 0 96.000000 68.000000"
 preserveAspectRatio="xMidYMid meet">
<metadata>
Created by potrace 1.16, written by Peter Selinger 2001-2019
</metadata>
<g transform="translate(0.000000,68.000000) scale(0.100000,-0.100000)"
fill="#000000" stroke="none">
<path d="M550 591 c0 -41 -11 -51 -55 -51 -13 0 -26 -4 -29 -9 -7 -10 17 -21
45 -21 10 0 19 -4 19 -10 0 -5 -5 -10 -11 -10 -5 0 -7 -4 -4 -10 10 -16 22
-12 49 15 20 20 35 25 78 25 29 0 59 4 67 9 25 16 1 31 -50 31 -46 0 -62 11
-39 25 17 10 11 21 -15 33 -45 21 -55 16 -55 -27z"/>
<path d="M293 583 c2 -10 8 -26 12 -35 7 -19 0 -21 -79 -22 -39 -1 -43 -20 -7
-35 21 -9 39 -10 67 -2 33 9 41 8 52 -6 6 -9 12 -20 12 -25 0 -4 7 -8 16 -8
12 0 14 7 9 30 -6 28 -4 31 24 36 42 9 39 24 -3 24 -30 0 -35 3 -38 28 -3 23
-8 28 -37 30 -29 3 -33 1 -28 -15z"/>
<path d="M398 436 c-43 -17 -78 -35 -78 -39 0 -5 3 -6 8 -4 4 2 51 12 105 22
53 10 97 22 97 27 0 7 -47 31 -53 27 -1 -1 -37 -16 -79 -33z"/>
<path d="M586 395 c-9 -13 -28 -35 -43 -50 -35 -31 -29 -31 41 1 63 29 73 39
56 59 -18 22 -36 18 -54 -10z"/>
<path d="M410 360 c22 -32 50 -40 50 -16 0 17 -37 46 -58 46 -9 0 -7 -9 8 -30z"/>
<path d="M257 362 c-9 -13 43 -64 58 -58 26 9 15 35 -22 55 -26 13 -30 14 -36
3z"/>
<path d="M423 291 c9 -34 -3 -38 -145 -48 -54 -3 -98 -10 -98 -14 0 -15 64
-20 110 -10 57 13 110 14 110 1 0 -17 -112 -99 -179 -131 -72 -34 -76 -48 -6
-25 65 23 103 43 152 82 23 19 46 34 52 34 6 0 11 -35 13 -87 2 -70 6 -88 18
-88 12 0 16 20 20 104 l5 104 30 -25 c127 -105 166 -128 213 -128 89 0 123 22
55 34 -21 4 -58 14 -83 23 -47 17 -197 100 -206 115 -3 4 51 8 120 8 126 0
160 10 111 32 -19 8 -52 9 -128 2 -56 -6 -103 -9 -105 -8 -2 1 -5 10 -6 21 -2
11 -13 19 -31 21 -24 3 -27 1 -22 -17z"/>
</g>
</svg>
