<?xml version="1.0" standalone="no"?>
<!DOCTYPE svg PUBLIC "-//W3C//DTD SVG 20010904//EN"
 "http://www.w3.org/TR/2001/REC-SVG-20010904/DTD/svg10.dtd">
<svg version="1.0" xmlns="http://www.w3.org/2000/svg"
 width="90.000000pt" height="92.000000pt" viewBox="0 0 90.000000 92.000000"
 preserveAspectRatio="xMidYMid meet">
<metadata>
Created by potrace 1.16, written by Peter Selinger 2001-2019
</metadata>
<g transform="translate(0.000000,92.000000) scale(0.100000,-0.100000)"
fill="#000000" stroke="none">
<path d="M515 838 c3 -13 9 -57 12 -99 l5 -76 -96 -13 c-53 -7 -96 -17 -96
-22 0 -21 48 -30 99 -19 84 18 91 16 91 -23 0 -30 -4 -34 -31 -40 -17 -3 -53
-6 -80 -6 -46 0 -62 -11 -39 -25 13 -8 13 -196 0 -264 -8 -41 -7 -60 5 -88 21
-49 33 -33 41 53 l7 70 48 1 49 1 0 -77 c0 -136 35 -127 46 12 l7 75 69 9 69
9 -3 -70 c-3 -78 -3 -78 -78 -63 l-35 7 55 -55 c30 -30 60 -55 67 -55 7 0 21
12 30 27 15 23 18 54 20 208 1 99 3 193 5 209 2 24 -3 33 -27 47 -27 16 -35
16 -90 4 -33 -8 -66 -15 -72 -15 -18 0 -17 66 1 73 8 3 63 9 122 13 60 3 113
9 117 11 11 7 -13 33 -38 43 -12 4 -60 0 -115 -11 -52 -10 -96 -16 -98 -14 -2
2 0 40 5 84 l9 80 -30 11 c-47 16 -59 13 -51 -12z m205 -353 c0 -43 -1 -45
-21 -35 -13 7 -40 9 -70 5 l-49 -7 0 41 0 41 70 0 70 0 0 -45z m-190 -10 c0
-37 -3 -45 -19 -45 -10 0 -33 -3 -50 -6 -31 -6 -31 -6 -31 35 0 34 4 41 23 45
49 11 62 14 70 15 4 0 7 -19 7 -44z m190 -87 l0 -43 -71 -1 -70 -1 3 31 c3 29
6 31 68 42 36 6 66 12 68 13 1 0 2 -18 2 -41z m-190 -28 c0 -29 -18 -40 -72
-40 -26 0 -28 3 -28 38 l0 37 50 -3 c47 -4 50 -5 50 -32z"/>
<path d="M688 770 c46 -44 75 -49 80 -13 4 26 -19 40 -79 49 l-44 6 43 -42z"/>
<path d="M215 753 c-32 -11 -48 -12 -78 -3 -47 14 -61 6 -45 -23 17 -33 22
-216 8 -320 -15 -110 -32 -165 -71 -230 -24 -40 -26 -46 -10 -38 39 22 82 87
103 158 21 69 22 71 43 57 21 -14 25 -12 59 26 20 22 39 40 42 40 8 0 -3 -182
-13 -205 -4 -11 -13 -15 -27 -11 -11 3 -32 9 -46 13 -21 5 -18 -1 25 -48 28
-30 54 -54 59 -54 5 0 18 13 30 28 20 27 21 40 21 280 0 139 4 266 9 284 7 29
6 33 -22 47 -36 18 -34 18 -87 -1z m51 -112 l7 -73 -24 7 c-13 5 -39 11 -57
16 -19 4 -36 10 -39 12 -3 3 -2 29 2 56 7 53 6 52 70 64 30 5 34 -2 41 -82z
m-69 -97 c21 -14 45 -23 55 -21 15 4 18 -1 18 -33 0 -33 -5 -41 -34 -59 -18
-12 -46 -24 -62 -27 l-29 -6 3 86 c2 47 5 86 7 86 2 0 21 -12 42 -26z"/>
</g>
</svg>
