<?xml version="1.0" standalone="no"?>
<!DOCTYPE svg PUBLIC "-//W3C//DTD SVG 20010904//EN"
 "http://www.w3.org/TR/2001/REC-SVG-20010904/DTD/svg10.dtd">
<svg version="1.0" xmlns="http://www.w3.org/2000/svg"
 width="96.000000pt" height="68.000000pt" viewBox="0 0 96.000000 68.000000"
 preserveAspectRatio="xMidYMid meet">
<metadata>
Created by potrace 1.16, written by Peter Selinger 2001-2019
</metadata>
<g transform="translate(0.000000,68.000000) scale(0.100000,-0.100000)"
fill="#000000" stroke="none">
<path d="M520 631 c-5 -11 -23 -29 -39 -41 -29 -20 -31 -20 -101 -4 -39 9 -74
13 -77 10 -3 -3 21 -17 52 -31 32 -14 56 -27 53 -30 -2 -3 -40 -21 -84 -41
l-79 -35 55 4 c32 2 78 15 111 31 60 29 59 29 166 -21 38 -18 63 -12 63 15 0
19 -36 39 -105 60 l-30 9 43 24 c44 25 50 37 30 57 -18 18 -46 14 -58 -7z"/>
<path d="M415 455 c-3 -8 -7 -21 -9 -28 -5 -15 -95 -27 -208 -27 -74 0 -88
-12 -34 -30 26 -8 53 -8 118 4 45 8 87 11 91 6 10 -9 -96 -105 -177 -160 -32
-22 -52 -40 -45 -40 18 0 147 75 177 103 20 18 24 19 33 7 12 -18 2 -109 -18
-168 -11 -34 -12 -47 -2 -58 19 -23 28 -16 42 33 13 44 17 49 53 55 21 4 60 7
87 7 l47 1 0 -41 0 -42 -37 6 -38 6 33 -29 c71 -65 90 -31 88 155 l-1 120 -50
0 c-27 0 -78 -3 -112 -7 -70 -8 -75 -3 -40 38 l23 27 190 4 c104 3 191 7 193
9 2 2 -2 11 -10 20 -14 17 -63 17 -277 -2 -66 -6 -72 -5 -66 11 4 10 1 21 -7
26 -21 13 -39 11 -44 -6z m153 -165 c2 -19 -2 -26 -15 -27 -10 0 -48 -4 -85
-8 -63 -7 -68 -6 -68 11 0 33 14 43 70 47 89 6 95 5 98 -23z m2 -74 c0 -22 -6
-24 -75 -35 -99 -15 -95 -15 -95 18 0 29 2 30 53 34 123 8 117 9 117 -17z"/>
</g>
</svg>
