<?xml version="1.0" standalone="no"?>
<!DOCTYPE svg PUBLIC "-//W3C//DTD SVG 20010904//EN"
 "http://www.w3.org/TR/2001/REC-SVG-20010904/DTD/svg10.dtd">
<svg version="1.0" xmlns="http://www.w3.org/2000/svg"
 width="96.000000pt" height="68.000000pt" viewBox="0 0 96.000000 68.000000"
 preserveAspectRatio="xMidYMid meet">
<metadata>
Created by potrace 1.16, written by Peter Selinger 2001-2019
</metadata>
<g transform="translate(0.000000,68.000000) scale(0.100000,-0.100000)"
fill="#000000" stroke="none">
<path d="M408 443 c-3 -26 -7 -28 -63 -34 -33 -4 -95 -7 -137 -8 -86 -1 -108
-15 -49 -31 29 -8 61 -7 128 4 48 8 90 12 93 9 9 -9 -111 -113 -190 -166 -53
-35 -66 -48 -46 -43 56 14 171 89 234 154 l62 64 190 6 c105 3 190 9 190 14 0
4 -11 14 -25 20 -19 8 -60 8 -163 0 -169 -15 -175 -15 -167 -2 9 15 -14 40
-36 40 -12 0 -19 -9 -21 -27z"/>
</g>
</svg>
