<?xml version="1.0" standalone="no"?>
<!DOCTYPE svg PUBLIC "-//W3C//DTD SVG 20010904//EN"
 "http://www.w3.org/TR/2001/REC-SVG-20010904/DTD/svg10.dtd">
<svg version="1.0" xmlns="http://www.w3.org/2000/svg"
 width="96.000000pt" height="68.000000pt" viewBox="0 0 96.000000 68.000000"
 preserveAspectRatio="xMidYMid meet">
<metadata>
Created by potrace 1.16, written by Peter Selinger 2001-2019
</metadata>
<g transform="translate(0.000000,68.000000) scale(0.100000,-0.100000)"
fill="#000000" stroke="none">
<path d="M582 470 c4 -28 3 -29 -46 -38 l-51 -10 48 -1 c32 -1 49 -6 53 -16 9
-23 44 -19 44 5 0 16 7 20 33 21 17 0 41 4 52 9 17 6 17 9 4 14 -8 4 -30 5
-49 4 -24 -2 -35 1 -35 11 0 13 -26 28 -49 30 -4 1 -6 -12 -4 -29z"/>
</g>
</svg>
