<?xml version="1.0" standalone="no"?>
<!DOCTYPE svg PUBLIC "-//W3C//DTD SVG 20010904//EN"
 "http://www.w3.org/TR/2001/REC-SVG-20010904/DTD/svg10.dtd">
<svg version="1.0" xmlns="http://www.w3.org/2000/svg"
 width="90.000000pt" height="92.000000pt" viewBox="0 0 90.000000 92.000000"
 preserveAspectRatio="xMidYMid meet">
<metadata>
Created by potrace 1.16, written by Peter Selinger 2001-2019
</metadata>
<g transform="translate(0.000000,92.000000) scale(0.100000,-0.100000)"
fill="#000000" stroke="none">
<path d="M405 742 c1 -134 7 -161 31 -141 16 13 22 47 27 161 3 83 2 87 -20
97 -13 6 -27 11 -31 11 -4 0 -7 -57 -7 -128z"/>
<path d="M580 782 c14 -9 41 -31 60 -48 83 -72 120 -83 120 -36 0 16 -9 37
-19 46 -21 20 -131 56 -164 55 -21 0 -21 -1 3 -17z"/>
<path d="M240 731 c0 -11 -21 -50 -46 -88 -25 -37 -48 -71 -50 -75 -3 -4 10
-2 28 4 36 13 138 111 138 133 0 15 -37 45 -57 45 -7 0 -13 -9 -13 -19z"/>
<path d="M550 675 c0 -55 -304 -247 -483 -305 -21 -6 -36 -14 -33 -17 8 -8
137 25 206 53 33 13 62 24 65 24 3 0 4 -76 1 -169 -3 -132 -1 -174 9 -188 13
-17 14 -17 27 0 10 14 36 20 108 27 52 5 102 10 111 10 8 0 23 -16 32 -36 20
-42 35 -40 60 7 14 26 17 46 12 84 -8 61 -7 248 1 279 4 18 -1 27 -26 43 -30
19 -33 19 -113 2 -169 -35 -169 -35 -70 28 48 31 107 68 130 82 50 30 52 42
17 70 -31 25 -54 27 -54 6z m60 -262 l0 -38 -62 -1 c-35 0 -91 -4 -125 -8
l-63 -9 0 36 c0 38 2 40 70 50 14 3 60 5 103 6 l77 1 0 -37z m0 -104 c0 -38
-2 -41 -24 -37 -14 3 -64 -1 -113 -8 -118 -18 -113 -19 -113 20 l0 33 118 15
c64 9 120 16 125 17 4 0 7 -18 7 -40z m0 -113 l0 -43 -107 -7 c-60 -4 -118 -9
-130 -13 -21 -5 -23 -2 -23 39 l0 45 123 10 c67 5 125 10 130 11 4 1 7 -18 7
-42z"/>
</g>
</svg>
