<?xml version="1.0" standalone="no"?>
<!DOCTYPE svg PUBLIC "-//W3C//DTD SVG 20010904//EN"
 "http://www.w3.org/TR/2001/REC-SVG-20010904/DTD/svg10.dtd">
<svg version="1.0" xmlns="http://www.w3.org/2000/svg"
 width="96.000000pt" height="68.000000pt" viewBox="0 0 96.000000 68.000000"
 preserveAspectRatio="xMidYMid meet">
<metadata>
Created by potrace 1.16, written by Peter Selinger 2001-2019
</metadata>
<g transform="translate(0.000000,68.000000) scale(0.100000,-0.100000)"
fill="#000000" stroke="none">
<path d="M465 622 c-2 -3 0 -11 6 -19 8 -8 10 -39 7 -83 -6 -76 6 -108 36 -97
12 5 16 22 18 77 1 38 2 80 2 92 1 17 -6 24 -31 29 -18 3 -35 4 -38 1z"/>
<path d="M610 572 c1 -7 82 -61 113 -74 9 -4 17 -10 17 -13 0 -4 -6 -3 -12 1
-7 4 -10 4 -6 -1 5 -5 21 -10 37 -11 23 -3 31 1 36 17 4 11 1 27 -5 35 -18 21
-180 63 -180 46z"/>
<path d="M327 513 c-9 -15 -31 -46 -51 -68 -19 -21 -33 -41 -31 -43 11 -12 83
26 116 60 33 35 42 68 19 68 -5 0 -15 3 -24 6 -9 4 -20 -4 -29 -23z"/>
<path d="M582 454 c-18 -18 -49 -42 -70 -53 -141 -71 -190 -93 -245 -112 -34
-11 -64 -23 -67 -26 -9 -10 73 8 129 28 30 10 57 16 60 13 3 -3 5 -59 3 -125
-3 -104 -1 -120 13 -126 10 -3 20 -1 24 4 3 6 50 13 103 17 91 6 98 5 108 -14
13 -25 46 -26 59 -2 6 10 9 77 8 149 -2 160 -1 159 -135 137 -48 -8 -95 -14
-105 -14 -11 0 32 26 95 57 62 32 115 59 118 61 8 5 -40 42 -54 41 -6 0 -26
-16 -44 -35z m62 -130 c9 -3 16 -16 16 -29 0 -20 -6 -23 -67 -28 -38 -4 -87
-10 -110 -13 -43 -7 -43 -6 -43 24 0 30 0 30 68 37 37 3 74 8 82 9 27 6 38 6
54 0z m16 -103 l0 -28 -105 -7 c-58 -4 -109 -5 -114 -2 -5 4 -8 14 -7 24 2 14
20 19 97 28 138 17 129 18 129 -15z m-2 -81 l-3 -31 -80 -5 c-153 -11 -140
-13 -140 21 l0 30 80 6 c160 11 147 13 143 -21z"/>
</g>
</svg>
