<?xml version="1.0" standalone="no"?>
<!DOCTYPE svg PUBLIC "-//W3C//DTD SVG 20010904//EN"
 "http://www.w3.org/TR/2001/REC-SVG-20010904/DTD/svg10.dtd">
<svg version="1.0" xmlns="http://www.w3.org/2000/svg"
 width="90.000000pt" height="92.000000pt" viewBox="0 0 90.000000 92.000000"
 preserveAspectRatio="xMidYMid meet">
<metadata>
Created by potrace 1.16, written by Peter Selinger 2001-2019
</metadata>
<g transform="translate(0.000000,92.000000) scale(0.100000,-0.100000)"
fill="#000000" stroke="none">
<path d="M480 816 c0 -10 4 -26 10 -36 5 -10 13 -106 16 -214 l7 -196 -44 -2
c-44 -1 -77 -4 -92 -7 -4 0 -1 -11 7 -23 8 -13 19 -62 25 -111 7 -48 14 -94
17 -102 8 -19 24 -20 24 -1 0 10 26 15 103 20 56 4 120 9 142 12 39 6 40 7 41
47 1 23 9 62 19 87 9 25 19 52 21 61 4 11 -6 25 -26 39 -31 22 -35 23 -99 10
-36 -7 -72 -15 -78 -18 -10 -3 -13 18 -13 86 l0 89 73 7 c122 11 165 30 115
53 -17 7 -43 5 -98 -8 -41 -10 -78 -18 -82 -19 -16 0 -4 133 17 182 8 20 -25
45 -73 54 -26 5 -32 3 -32 -10z m205 -513 c-13 -113 -5 -107 -154 -119 l-78
-7 -7 73 c-4 39 -5 74 -2 78 10 9 138 30 195 31 l53 1 -7 -57z"/>
<path d="M225 704 c-27 -7 -76 -16 -108 -20 -31 -4 -60 -10 -63 -15 -7 -13 31
-29 69 -29 42 0 47 -10 47 -90 l0 -58 -52 -9 c-68 -11 -68 -27 0 -31 l53 -3
-3 -77 -3 -76 -75 -24 c-41 -12 -76 -25 -79 -27 -7 -7 29 -44 49 -50 15 -5 81
29 249 130 58 34 46 42 -24 16 -31 -12 -58 -21 -60 -21 -7 0 -6 116 1 134 3 9
24 18 50 22 24 3 47 10 49 15 9 14 -35 31 -67 27 l-30 -5 3 61 c2 34 0 66 -4
72 -4 8 9 13 39 18 24 3 54 11 66 17 21 11 21 12 3 25 -23 17 -44 16 -110 -2z"/>
</g>
</svg>
