<?xml version="1.0" standalone="no"?>
<!DOCTYPE svg PUBLIC "-//W3C//DTD SVG 20010904//EN"
 "http://www.w3.org/TR/2001/REC-SVG-20010904/DTD/svg10.dtd">
<svg version="1.0" xmlns="http://www.w3.org/2000/svg"
 width="96.000000pt" height="68.000000pt" viewBox="0 0 96.000000 68.000000"
 preserveAspectRatio="xMidYMid meet">
<metadata>
Created by potrace 1.16, written by Peter Selinger 2001-2019
</metadata>
<g transform="translate(0.000000,68.000000) scale(0.100000,-0.100000)"
fill="#000000" stroke="none">
<path d="M602 590 c-30 -4 -118 -11 -198 -15 -110 -6 -148 -4 -159 5 -18 15
-16 17 -44 -43 -13 -26 -20 -54 -17 -62 10 -27 37 -16 54 23 l16 39 193 18
c106 10 196 15 200 12 3 -4 -2 -18 -12 -33 l-17 -27 33 7 c19 4 49 10 67 13
38 7 39 13 10 41 -29 26 -60 32 -126 22z"/>
</g>
</svg>
