<?xml version="1.0" standalone="no"?>
<!DOCTYPE svg PUBLIC "-//W3C//DTD SVG 20010904//EN"
 "http://www.w3.org/TR/2001/REC-SVG-20010904/DTD/svg10.dtd">
<svg version="1.0" xmlns="http://www.w3.org/2000/svg"
 width="96.000000pt" height="68.000000pt" viewBox="0 0 96.000000 68.000000"
 preserveAspectRatio="xMidYMid meet">
<metadata>
Created by potrace 1.16, written by Peter Selinger 2001-2019
</metadata>
<g transform="translate(0.000000,68.000000) scale(0.100000,-0.100000)"
fill="#000000" stroke="none">
<path d="M675 580 c-16 -4 -56 -8 -89 -9 -51 -1 -57 -3 -51 -18 5 -10 11 -52
14 -93 5 -68 8 -75 26 -72 11 1 46 5 78 9 l58 6 -2 -152 c-2 -171 -9 -193 -53
-173 -14 6 -26 8 -26 3 0 -10 67 -71 78 -71 4 0 15 12 24 28 14 23 17 68 19
280 3 291 6 283 -76 262z m31 -45 c4 -14 5 -27 3 -29 -2 -2 -32 -7 -66 -11
l-63 -7 0 30 c0 33 9 37 87 41 27 1 34 -3 39 -24z m4 -80 c0 -25 -19 -33 -95
-38 -26 -2 -30 2 -33 25 -3 23 1 27 30 31 87 10 98 9 98 -18z"/>
<path d="M315 550 c-11 -5 -46 -9 -78 -9 l-59 -1 7 -40 c13 -79 8 -292 -8
-339 -17 -49 -6 -94 22 -89 19 4 28 56 31 176 3 103 13 117 82 109 29 -4 50
-2 54 5 8 12 44 147 44 165 0 6 -14 16 -31 22 -36 13 -37 13 -64 1z m23 -47
c-3 -23 -8 -27 -45 -30 -38 -4 -43 -2 -43 16 0 14 9 22 28 27 15 3 32 7 37 9
22 8 26 4 23 -22z m-5 -93 c-4 -5 -26 -10 -48 -12 -34 -3 -40 0 -40 17 0 16 8
21 45 25 33 4 46 1 48 -9 2 -7 0 -17 -5 -21z"/>
<path d="M406 342 c-16 -28 -51 -65 -82 -87 -30 -22 -50 -41 -45 -43 11 -4 99
52 145 93 30 26 56 33 56 15 0 -5 4 -10 10 -10 5 0 38 -20 73 -45 66 -46 97
-56 97 -32 0 22 -30 43 -100 73 -65 27 -106 54 -82 54 6 0 9 7 6 15 -13 32
-49 16 -78 -33z"/>
<path d="M428 263 c-16 -2 -28 -9 -28 -15 0 -7 16 -9 46 -4 26 3 53 6 61 6 8
0 11 5 8 10 -6 10 -35 11 -87 3z"/>
<path d="M445 200 c-22 -4 -52 -6 -67 -4 -27 3 -38 -9 -19 -20 4 -3 11 -24 15
-46 5 -33 10 -40 24 -36 9 3 50 8 89 12 40 3 71 10 69 13 -3 4 3 22 11 40 14
28 14 34 2 42 -16 10 -67 10 -124 -1z m75 -40 c0 -24 -4 -30 -22 -30 -13 0
-39 -3 -59 -6 -33 -6 -37 -4 -41 21 -7 32 14 43 80 44 40 1 42 0 42 -29z"/>
</g>
</svg>
