<?xml version="1.0" standalone="no"?>
<!DOCTYPE svg PUBLIC "-//W3C//DTD SVG 20010904//EN"
 "http://www.w3.org/TR/2001/REC-SVG-20010904/DTD/svg10.dtd">
<svg version="1.0" xmlns="http://www.w3.org/2000/svg"
 width="96.000000pt" height="68.000000pt" viewBox="0 0 96.000000 68.000000"
 preserveAspectRatio="xMidYMid meet">
<metadata>
Created by potrace 1.16, written by Peter Selinger 2001-2019
</metadata>
<g transform="translate(0.000000,68.000000) scale(0.100000,-0.100000)"
fill="#000000" stroke="none">
<path d="M536 547 c-3 -13 -21 -43 -40 -67 -36 -45 -40 -66 -9 -38 10 9 44 19
76 22 63 8 68 2 45 -49 -9 -20 -17 -25 -32 -20 -12 4 -32 9 -46 11 -21 5 -20
3 7 -12 42 -21 31 -40 -51 -86 -24 -13 -27 -17 -12 -18 11 0 44 14 73 30 l54
31 47 -33 c42 -30 53 -33 111 -31 86 3 100 19 25 29 -76 9 -160 39 -156 56 2
7 16 27 31 43 30 31 31 54 3 56 -9 1 0 5 21 8 21 3 39 11 40 16 4 17 -41 17
-107 1 -84 -21 -85 -21 -46 19 29 30 32 37 20 45 -26 16 -48 11 -54 -13z"/>
<path d="M175 540 c-5 -9 31 -43 63 -60 42 -21 72 11 37 40 -18 15 -94 30
-100 20z"/>
<path d="M351 508 c-15 -49 -31 -76 -84 -140 -41 -50 -38 -62 7 -27 14 11 31
17 37 14 12 -8 4 -140 -12 -217 -11 -46 -5 -88 11 -88 15 0 22 35 32 174 9
115 8 140 -3 147 -10 6 -11 13 -4 23 82 118 86 127 75 141 -23 28 -46 17 -59
-27z"/>
<path d="M115 359 c43 -51 80 -64 92 -33 9 24 -19 45 -68 51 l-44 6 20 -24z"/>
<path d="M393 288 c-2 -88 1 -100 21 -92 20 8 16 168 -4 172 -12 2 -15 -13
-17 -80z"/>
<path d="M565 271 c5 -24 2 -29 -17 -35 -13 -3 -35 -6 -50 -6 -15 0 -30 -4
-33 -10 -4 -6 14 -10 46 -10 l52 0 -24 -21 c-13 -11 -34 -29 -46 -39 -12 -11
-41 -31 -63 -46 -22 -15 -39 -29 -37 -31 8 -7 93 36 132 67 l40 32 3 -66 c3
-58 5 -66 22 -66 18 0 20 7 20 70 0 39 2 70 4 70 2 0 25 -20 50 -45 43 -41 51
-45 96 -45 67 0 71 15 8 34 -61 18 -148 70 -148 88 0 9 18 14 51 15 28 1 59 5
68 8 30 13 -20 24 -78 18 -48 -5 -54 -4 -48 10 4 11 -1 20 -13 27 -32 17 -42
12 -35 -19z"/>
<path d="M217 251 c-10 -17 -40 -54 -67 -84 -47 -51 -49 -56 -39 -85 12 -35
33 -47 48 -28 12 14 91 204 91 218 0 17 -16 7 -33 -21z"/>
</g>
</svg>
