<?xml version="1.0" standalone="no"?>
<!DOCTYPE svg PUBLIC "-//W3C//DTD SVG 20010904//EN"
 "http://www.w3.org/TR/2001/REC-SVG-20010904/DTD/svg10.dtd">
<svg version="1.0" xmlns="http://www.w3.org/2000/svg"
 width="96.000000pt" height="68.000000pt" viewBox="0 0 96.000000 68.000000"
 preserveAspectRatio="xMidYMid meet">
<metadata>
Created by potrace 1.16, written by Peter Selinger 2001-2019
</metadata>
<g transform="translate(0.000000,68.000000) scale(0.100000,-0.100000)"
fill="#000000" stroke="none">
<path d="M208 510 c37 -35 72 -40 72 -11 0 20 -44 41 -84 41 -19 -1 -18 -4 12
-30z"/>
<path d="M110 372 c0 -5 10 -18 23 -30 30 -28 67 -29 67 -2 0 14 -11 22 -37
29 -46 13 -53 13 -53 3z"/>
<path d="M210 232 c-14 -20 -43 -56 -64 -80 -35 -38 -38 -46 -30 -70 19 -54
38 -38 83 73 24 58 42 108 40 110 -3 2 -16 -13 -29 -33z"/>
</g>
</svg>
