<?xml version="1.0" standalone="no"?>
<!DOCTYPE svg PUBLIC "-//W3C//DTD SVG 20010904//EN"
 "http://www.w3.org/TR/2001/REC-SVG-20010904/DTD/svg10.dtd">
<svg version="1.0" xmlns="http://www.w3.org/2000/svg"
 width="96.000000pt" height="68.000000pt" viewBox="0 0 96.000000 68.000000"
 preserveAspectRatio="xMidYMid meet">
<metadata>
Created by potrace 1.16, written by Peter Selinger 2001-2019
</metadata>
<g transform="translate(0.000000,68.000000) scale(0.100000,-0.100000)"
fill="#000000" stroke="none">
<path d="M240 548 c0 -23 43 -78 60 -78 27 0 34 18 16 44 -17 26 -76 53 -76
34z"/>
<path d="M242 440 c-139 -23 -144 -24 -110 -40 23 -11 44 -10 135 9 59 11 118
21 131 21 12 0 22 4 22 9 0 9 -36 22 -55 20 -5 -1 -61 -10 -123 -19z"/>
</g>
</svg>
