<?xml version="1.0" standalone="no"?>
<!DOCTYPE svg PUBLIC "-//W3C//DTD SVG 20010904//EN"
 "http://www.w3.org/TR/2001/REC-SVG-20010904/DTD/svg10.dtd">
<svg version="1.0" xmlns="http://www.w3.org/2000/svg"
 width="90.000000pt" height="92.000000pt" viewBox="0 0 90.000000 92.000000"
 preserveAspectRatio="xMidYMid meet">
<metadata>
Created by potrace 1.16, written by Peter Selinger 2001-2019
</metadata>
<g transform="translate(0.000000,92.000000) scale(0.100000,-0.100000)"
fill="#000000" stroke="none">
<path d="M205 848 c-2 -7 -6 -31 -10 -52 -9 -55 -84 -201 -145 -281 -28 -37
-49 -69 -47 -71 7 -7 70 48 110 94 30 35 38 40 44 27 10 -28 -6 -283 -22 -346
-15 -55 -14 -62 3 -102 18 -41 19 -42 31 -19 13 25 28 188 33 363 2 83 -1 111
-13 130 -16 23 -14 28 37 122 l53 99 -26 24 c-29 27 -42 30 -48 12z"/>
<path d="M645 783 l0 -68 -52 -8 c-51 -8 -53 -10 -53 -41 0 -17 -8 -48 -19
-68 -17 -34 -17 -38 -2 -51 10 -10 23 -12 36 -7 11 5 37 9 58 9 l37 1 0 -47
c0 -52 12 -83 24 -64 4 6 10 36 13 67 l6 55 53 -7 c45 -5 55 -4 60 11 10 26
-15 37 -70 31 -46 -5 -48 -4 -42 17 3 12 6 34 6 50 0 21 5 27 21 27 11 0 30 5
41 11 17 9 18 13 7 20 -8 5 -27 9 -43 9 -28 0 -29 0 -24 50 4 42 2 53 -13 60
-38 21 -44 13 -44 -57z m5 -147 c0 -48 -9 -56 -62 -56 -23 0 -29 4 -24 16 3 9
9 27 12 41 6 23 32 41 62 42 8 1 12 -14 12 -43z"/>
<path d="M351 769 c-7 -28 -33 -81 -58 -117 -25 -37 -47 -71 -51 -76 -15 -25
63 41 95 80 30 36 43 44 70 44 40 0 41 -8 9 -76 -24 -52 -46 -76 -46 -51 0 13
-39 37 -61 37 -10 0 27 -59 45 -72 11 -8 0 -24 -63 -90 -54 -57 -41 -62 24
-12 65 49 88 77 142 167 25 43 50 80 55 83 35 22 -34 71 -77 54 -42 -16 -49
-12 -30 17 17 26 17 27 -5 45 -12 10 -25 18 -29 18 -4 0 -13 -23 -20 -51z"/>
<path d="M483 486 c3 -7 8 -34 12 -58 l7 -45 -63 -6 c-34 -4 -79 -7 -100 -7
-71 0 -90 -19 -39 -40 24 -10 43 -10 87 -1 31 6 69 11 85 11 l29 0 -7 -124
c-7 -131 -2 -176 20 -176 22 0 26 24 26 171 l0 139 124 0 c69 0 127 4 130 9 3
4 -4 17 -15 27 -23 21 -64 23 -170 10 l-67 -9 5 46 c5 43 4 47 -21 57 -37 14
-49 13 -43 -4z"/>
<path d="M610 283 c1 -19 147 -166 158 -159 21 12 14 65 -12 91 -36 36 -146
88 -146 68z"/>
<path d="M360 263 c0 -10 -30 -48 -67 -86 l-68 -69 40 16 c36 15 103 57 160
102 20 15 20 15 -4 35 -29 24 -61 25 -61 2z"/>
</g>
</svg>
