<?xml version="1.0" standalone="no"?>
<!DOCTYPE svg PUBLIC "-//W3C//DTD SVG 20010904//EN"
 "http://www.w3.org/TR/2001/REC-SVG-20010904/DTD/svg10.dtd">
<svg version="1.0" xmlns="http://www.w3.org/2000/svg"
 width="90.000000pt" height="92.000000pt" viewBox="0 0 90.000000 92.000000"
 preserveAspectRatio="xMidYMid meet">
<metadata>
Created by potrace 1.16, written by Peter Selinger 2001-2019
</metadata>
<g transform="translate(0.000000,92.000000) scale(0.100000,-0.100000)"
fill="#000000" stroke="none">
<path d="M535 770 c-22 -5 -118 -19 -212 -31 -95 -13 -173 -26 -173 -31 0 -22
51 -31 120 -21 83 11 82 13 45 -104 -24 -76 -63 -150 -107 -205 -20 -26 -20
-28 -4 -53 13 -20 24 -26 39 -22 12 3 65 15 117 26 52 12 105 23 118 26 14 3
22 1 22 -7 0 -12 -56 -137 -62 -139 -2 -1 -93 -9 -203 -18 -118 -9 -200 -20
-199 -26 1 -5 15 -18 33 -29 28 -16 39 -17 109 -7 128 18 338 31 510 31 148 0
163 2 160 17 -2 9 -18 25 -35 36 -30 17 -43 18 -160 9 -71 -6 -129 -9 -131 -7
-5 5 69 237 89 279 26 54 24 69 -11 90 -29 17 -33 17 -112 -3 -123 -31 -124
-31 -92 31 22 43 24 55 14 71 -6 10 -10 21 -7 23 2 2 62 7 135 10 149 8 169
15 133 44 -25 21 -65 24 -136 10z m10 -239 c3 -6 -2 -39 -11 -75 -18 -74 -7
-67 -162 -86 -51 -7 -96 -10 -98 -7 -3 3 12 39 32 80 l38 76 60 9 c84 13 134
14 141 3z"/>
</g>
</svg>
