<?xml version="1.0" standalone="no"?>
<!DOCTYPE svg PUBLIC "-//W3C//DTD SVG 20010904//EN"
 "http://www.w3.org/TR/2001/REC-SVG-20010904/DTD/svg10.dtd">
<svg version="1.0" xmlns="http://www.w3.org/2000/svg"
 width="90.000000pt" height="92.000000pt" viewBox="0 0 90.000000 92.000000"
 preserveAspectRatio="xMidYMid meet">
<metadata>
Created by potrace 1.16, written by Peter Selinger 2001-2019
</metadata>
<g transform="translate(0.000000,92.000000) scale(0.100000,-0.100000)"
fill="#000000" stroke="none">
<path d="M600 829 c-38 -8 -310 -45 -475 -65 l-49 -6 23 -19 c28 -23 60 -24
170 -4 67 12 87 12 93 2 7 -10 9 -64 12 -249 1 -31 -1 -33 -44 -40 -25 -4 -60
-10 -78 -13 l-33 -6 2 77 c2 82 -9 104 -54 104 -16 0 -18 -4 -11 -27 5 -16 9
-65 9 -110 0 -46 5 -87 11 -93 8 -8 27 -6 70 9 73 24 228 44 314 39 l65 -3 -1
-87 c-2 -100 -15 -146 -50 -179 -22 -21 -28 -22 -67 -12 -23 6 -43 10 -45 8
-7 -7 81 -115 94 -115 24 0 81 59 98 100 9 22 20 81 26 131 6 50 17 106 25
126 18 42 14 50 -36 72 -30 14 -51 16 -96 10 -32 -4 -80 -9 -106 -12 l-48 -5
5 42 c2 22 5 50 5 61 1 17 8 20 54 21 110 2 203 21 185 39 -17 18 -81 21 -144
9 -102 -20 -96 -22 -93 44 2 31 0 62 -3 68 -8 11 95 23 217 25 33 0 68 4 79 8
18 7 18 8 1 25 -18 17 -59 37 -73 35 -4 -1 -27 -5 -52 -10z"/>
</g>
</svg>
