<?xml version="1.0" standalone="no"?>
<!DOCTYPE svg PUBLIC "-//W3C//DTD SVG 20010904//EN"
 "http://www.w3.org/TR/2001/REC-SVG-20010904/DTD/svg10.dtd">
<svg version="1.0" xmlns="http://www.w3.org/2000/svg"
 width="96.000000pt" height="68.000000pt" viewBox="0 0 96.000000 68.000000"
 preserveAspectRatio="xMidYMid meet">
<metadata>
Created by potrace 1.16, written by Peter Selinger 2001-2019
</metadata>
<g transform="translate(0.000000,68.000000) scale(0.100000,-0.100000)"
fill="#000000" stroke="none">
<path d="M703 393 c7 -39 -2 -53 -34 -53 -24 0 -29 4 -29 25 0 20 -5 25 -25
25 -22 0 -24 -3 -19 -30 6 -25 3 -30 -20 -36 -32 -8 -35 -25 -3 -21 19 2 22
-3 25 -36 3 -32 0 -39 -17 -44 -12 -3 -21 -11 -21 -18 0 -13 96 -12 230 1 50
6 53 7 35 20 -10 8 -40 14 -66 14 l-48 0 13 38 c11 31 18 38 44 40 38 4 42 19
8 28 -19 4 -24 12 -23 31 2 21 -4 28 -27 34 -26 7 -28 6 -23 -18z m-13 -100
c0 -42 -13 -63 -36 -63 -21 0 -24 5 -24 40 0 38 2 40 30 40 22 0 30 -5 30 -17z"/>
</g>
</svg>
