<?xml version="1.0" standalone="no"?>
<!DOCTYPE svg PUBLIC "-//W3C//DTD SVG 20010904//EN"
 "http://www.w3.org/TR/2001/REC-SVG-20010904/DTD/svg10.dtd">
<svg version="1.0" xmlns="http://www.w3.org/2000/svg"
 width="96.000000pt" height="68.000000pt" viewBox="0 0 96.000000 68.000000"
 preserveAspectRatio="xMidYMid meet">
<metadata>
Created by potrace 1.16, written by Peter Selinger 2001-2019
</metadata>
<g transform="translate(0.000000,68.000000) scale(0.100000,-0.100000)"
fill="#000000" stroke="none">
<path d="M382 607 c2 -60 -14 -75 -89 -82 -88 -8 -100 -12 -85 -27 7 -7 38
-11 72 -10 l60 2 -15 -30 c-17 -33 -107 -108 -164 -137 -20 -10 -42 -24 -51
-32 -44 -42 138 29 192 74 16 14 34 23 39 19 5 -3 9 -45 9 -93 l0 -88 -92 -2
c-96 -2 -108 -5 -92 -21 13 -13 67 -15 138 -6 55 8 58 8 48 -10 -14 -26 -52
-66 -80 -84 -30 -19 -21 -55 12 -45 53 15 182 47 223 54 43 8 47 7 70 -20 33
-39 55 -38 51 2 -3 27 -11 36 -60 63 -59 31 -84 31 -52 -1 17 -17 14 -19 -72
-35 -130 -25 -135 -24 -80 18 34 28 45 42 41 55 -6 18 3 19 154 19 130 0 161
3 161 14 0 19 -66 33 -120 25 -25 -3 -82 -9 -127 -13 -78 -7 -83 -6 -83 12 0
17 11 21 77 31 42 6 79 13 81 16 13 12 -34 16 -85 7 -62 -11 -78 -6 -67 21 4
12 19 17 53 18 25 1 60 5 76 9 l30 7 -26 7 c-14 4 -49 3 -78 -2 -50 -9 -51 -9
-51 14 0 21 5 24 38 25 57 2 95 13 100 28 4 11 -4 12 -39 6 -24 -4 -68 -9 -97
-10 l-53 -3 17 26 c63 97 70 96 204 -19 57 -49 115 -92 129 -96 32 -8 137 9
132 22 -2 6 -42 24 -90 40 -66 24 -187 92 -229 129 -1 2 26 4 60 5 75 2 100 9
95 24 -7 21 -62 27 -141 16 -43 -5 -80 -8 -83 -5 -3 3 2 17 11 30 22 34 20 41
-9 54 -47 22 -65 16 -63 -21z"/>
</g>
</svg>
