<?xml version="1.0" standalone="no"?>
<!DOCTYPE svg PUBLIC "-//W3C//DTD SVG 20010904//EN"
 "http://www.w3.org/TR/2001/REC-SVG-20010904/DTD/svg10.dtd">
<svg version="1.0" xmlns="http://www.w3.org/2000/svg"
 width="96.000000pt" height="68.000000pt" viewBox="0 0 96.000000 68.000000"
 preserveAspectRatio="xMidYMid meet">
<metadata>
Created by potrace 1.16, written by Peter Selinger 2001-2019
</metadata>
<g transform="translate(0.000000,68.000000) scale(0.100000,-0.100000)"
fill="#000000" stroke="none">
<path d="M565 588 c-10 -6 -47 -12 -80 -12 l-61 -1 13 -25 c7 -14 16 -42 19
-63 6 -33 10 -38 28 -32 12 3 39 8 61 11 69 9 86 14 80 25 -4 5 3 26 15 46 11
20 17 40 13 44 -15 15 -68 20 -88 7z m23 -55 c-3 -37 -5 -38 -51 -47 -26 -4
-50 -7 -52 -5 -2 2 -6 21 -10 41 -7 37 -7 37 32 41 89 9 85 11 81 -30z"/>
</g>
</svg>
