<?xml version="1.0" standalone="no"?>
<!DOCTYPE svg PUBLIC "-//W3C//DTD SVG 20010904//EN"
 "http://www.w3.org/TR/2001/REC-SVG-20010904/DTD/svg10.dtd">
<svg version="1.0" xmlns="http://www.w3.org/2000/svg"
 width="96.000000pt" height="68.000000pt" viewBox="0 0 96.000000 68.000000"
 preserveAspectRatio="xMidYMid meet">
<metadata>
Created by potrace 1.16, written by Peter Selinger 2001-2019
</metadata>
<g transform="translate(0.000000,68.000000) scale(0.100000,-0.100000)"
fill="#000000" stroke="none">
<path d="M568 589 c-10 -5 -45 -11 -78 -12 -49 -2 -59 -5 -54 -17 4 -8 12 -35
19 -60 8 -30 17 -44 26 -42 8 2 43 7 79 10 36 4 63 9 62 12 -2 3 4 25 14 49
17 42 17 44 -1 57 -22 16 -43 17 -67 3z m24 -37 c10 -36 -9 -60 -52 -67 -48
-8 -57 -2 -66 42 -6 31 -5 32 32 36 78 8 82 7 86 -11z"/>
<path d="M210 454 c-28 -9 -61 -13 -87 -9 -48 7 -51 2 -23 -40 11 -16 22 -49
26 -72 3 -24 10 -45 14 -48 7 -4 47 2 138 21 17 3 22 9 17 23 -3 10 2 40 11
66 8 26 12 51 7 55 -16 17 -59 18 -103 4z m37 -65 c-6 -48 -12 -55 -49 -64
-24 -6 -27 -3 -37 32 -16 58 -15 62 32 66 23 2 46 4 51 5 5 1 6 -17 3 -39z"/>
<path d="M655 441 c-16 -4 -45 -5 -62 -3 l-33 4 15 -29 c8 -15 15 -37 15 -48
0 -38 12 -43 79 -36 64 6 65 7 74 41 5 19 14 41 20 48 22 27 -35 39 -108 23z
m53 -46 c0 -29 -13 -40 -51 -47 -30 -6 -47 13 -47 51 0 18 6 21 49 21 45 0 49
-2 49 -25z"/>
<path d="M425 421 c-16 -4 -45 -5 -63 -3 l-33 5 20 -34 c12 -19 21 -45 21 -58
0 -22 2 -23 46 -17 26 3 54 6 63 6 11 0 17 9 19 26 1 14 7 34 12 45 20 37 -10
47 -85 30z m43 -48 c-2 -21 -10 -29 -36 -37 -38 -11 -40 -9 -48 32 l-6 32 46
0 c46 0 47 -1 44 -27z"/>
<path d="M527 286 c4 -19 0 -24 -27 -30 -18 -3 -56 -6 -84 -7 -28 0 -69 -4
-91 -8 l-40 -8 26 -12 c21 -10 38 -11 78 -2 53 11 111 15 111 7 0 -13 -72 -79
-125 -116 -34 -24 -49 -39 -35 -35 40 12 73 31 128 74 28 23 54 41 58 41 3 0
3 -29 -1 -65 -7 -71 -1 -105 20 -105 19 0 25 24 25 108 0 42 4 73 8 67 4 -5
37 -38 74 -72 58 -56 71 -63 105 -62 21 1 49 4 63 9 24 7 24 8 5 15 -105 40
-138 57 -192 96 -34 24 -62 47 -62 52 -1 4 55 7 124 7 126 0 154 9 92 29 -24
8 -55 8 -111 0 -73 -10 -117 -7 -103 8 10 10 -13 33 -33 33 -13 0 -16 -6 -13
-24z"/>
</g>
</svg>
