<?xml version="1.0" standalone="no"?>
<!DOCTYPE svg PUBLIC "-//W3C//DTD SVG 20010904//EN"
 "http://www.w3.org/TR/2001/REC-SVG-20010904/DTD/svg10.dtd">
<svg version="1.0" xmlns="http://www.w3.org/2000/svg"
 width="96.000000pt" height="68.000000pt" viewBox="0 0 96.000000 68.000000"
 preserveAspectRatio="xMidYMid meet">
<metadata>
Created by potrace 1.16, written by Peter Selinger 2001-2019
</metadata>
<g transform="translate(0.000000,68.000000) scale(0.100000,-0.100000)"
fill="#000000" stroke="none">
<path d="M519 568 c-6 -24 -31 -74 -56 -112 -42 -65 -43 -68 -17 -51 16 10 37
27 48 37 11 10 35 18 53 18 58 0 223 23 223 31 0 18 -63 18 -146 0 -48 -11
-90 -18 -93 -15 -2 2 11 25 29 51 l33 46 -22 19 c-33 26 -39 23 -52 -24z"/>
</g>
</svg>
