<?xml version="1.0" standalone="no"?>
<!DOCTYPE svg PUBLIC "-//W3C//DTD SVG 20010904//EN"
 "http://www.w3.org/TR/2001/REC-SVG-20010904/DTD/svg10.dtd">
<svg version="1.0" xmlns="http://www.w3.org/2000/svg"
 width="90.000000pt" height="92.000000pt" viewBox="0 0 90.000000 92.000000"
 preserveAspectRatio="xMidYMid meet">
<metadata>
Created by potrace 1.16, written by Peter Selinger 2001-2019
</metadata>
<g transform="translate(0.000000,92.000000) scale(0.100000,-0.100000)"
fill="#000000" stroke="none">
<path d="M498 716 l4 -163 -39 -6 c-21 -4 -50 -7 -65 -7 -15 0 -30 -5 -34 -11
-12 -20 20 -30 79 -25 l57 4 0 -48 c0 -57 7 -54 -137 -70 -57 -7 -103 -16
-103 -20 0 -4 12 -12 26 -19 19 -8 42 -9 88 -1 33 6 76 13 94 16 l32 5 0 -153
c0 -138 8 -193 25 -177 12 13 25 129 25 230 l0 106 83 6 c45 4 109 7 142 7 73
0 93 10 68 32 -32 27 -56 29 -165 12 -60 -9 -110 -15 -113 -13 -2 2 -5 24 -6
49 l-4 45 45 8 c95 18 111 22 113 32 4 19 -52 29 -104 18 l-51 -10 3 144 c4
134 2 146 -16 159 -10 8 -26 14 -34 14 -14 0 -16 -21 -13 -164z"/>
<path d="M227 780 c-10 -79 -95 -231 -184 -330 -69 -77 -26 -62 62 21 74 70
74 71 81 44 8 -33 -3 -200 -18 -277 -10 -50 -10 -63 5 -93 37 -77 55 -6 58
225 2 130 -1 180 -10 196 -12 18 -9 28 26 90 22 38 46 79 54 92 13 21 12 25
-14 48 -40 34 -53 31 -60 -16z"/>
<path d="M700 771 c0 -5 -20 -39 -45 -75 -25 -37 -45 -68 -45 -71 0 -8 158 73
165 85 4 6 2 16 -3 23 -17 19 -72 49 -72 38z"/>
<path d="M340 707 c1 -21 71 -108 83 -104 21 6 20 61 -1 80 -26 24 -82 40 -82
24z"/>
</g>
</svg>
