<?xml version="1.0" standalone="no"?>
<!DOCTYPE svg PUBLIC "-//W3C//DTD SVG 20010904//EN"
 "http://www.w3.org/TR/2001/REC-SVG-20010904/DTD/svg10.dtd">
<svg version="1.0" xmlns="http://www.w3.org/2000/svg"
 width="90.000000pt" height="92.000000pt" viewBox="0 0 90.000000 92.000000"
 preserveAspectRatio="xMidYMid meet">
<metadata>
Created by potrace 1.16, written by Peter Selinger 2001-2019
</metadata>
<g transform="translate(0.000000,92.000000) scale(0.100000,-0.100000)"
fill="#000000" stroke="none">
<path d="M676 823 c11 -47 12 -598 1 -637 -8 -29 -12 -30 -76 -10 -19 6 -13
-6 34 -64 32 -40 61 -69 66 -66 34 20 39 62 42 361 3 250 7 306 21 346 20 56
13 71 -41 94 -51 21 -57 18 -47 -24z"/>
<path d="M320 790 c-30 -19 -161 -43 -173 -31 -6 6 -20 11 -30 11 -15 0 -17
-4 -11 -17 14 -29 16 -233 4 -311 -9 -57 -9 -80 0 -103 14 -34 30 -38 37 -9 3
12 14 20 25 20 40 0 3 -78 -90 -187 -29 -35 -50 -63 -46 -63 32 0 224 186 224
218 0 7 -9 16 -20 19 -34 9 -11 23 39 23 45 0 50 -3 61 -30 15 -37 25 -38 46
-4 15 22 17 55 17 232 0 201 -1 206 -23 224 -25 20 -38 22 -60 8z m30 -100 c0
-48 -1 -50 -23 -45 -13 4 -51 -1 -84 -9 -34 -9 -66 -16 -72 -16 -7 0 -11 20
-11 49 l0 48 43 10 c23 6 66 11 95 12 l52 1 0 -50z m10 -116 c0 -45 -1 -46
-28 -41 -15 3 -54 -1 -87 -9 -85 -20 -85 -20 -85 26 0 38 1 40 33 40 17 1 59
7 92 14 33 8 63 14 68 15 4 1 7 -20 7 -45z m-8 -85 c2 -5 2 -27 0 -48 l-4 -38
-95 -7 c-52 -4 -96 -6 -97 -4 -2 2 -1 21 2 44 l4 41 66 10 c94 14 120 15 124
2z"/>
<path d="M524 663 c3 -16 9 -89 12 -163 6 -131 17 -177 35 -148 5 7 9 83 9
169 0 165 -1 169 -47 169 -12 0 -14 -7 -9 -27z"/>
<path d="M300 276 c0 -7 100 -155 109 -161 15 -9 31 29 24 56 -7 29 -49 76
-85 95 -26 13 -48 18 -48 10z"/>
</g>
</svg>
