<?xml version="1.0" standalone="no"?>
<!DOCTYPE svg PUBLIC "-//W3C//DTD SVG 20010904//EN"
 "http://www.w3.org/TR/2001/REC-SVG-20010904/DTD/svg10.dtd">
<svg version="1.0" xmlns="http://www.w3.org/2000/svg"
 width="96.000000pt" height="68.000000pt" viewBox="0 0 96.000000 68.000000"
 preserveAspectRatio="xMidYMid meet">
<metadata>
Created by potrace 1.16, written by Peter Selinger 2001-2019
</metadata>
<g transform="translate(0.000000,68.000000) scale(0.100000,-0.100000)"
fill="#000000" stroke="none">
<path d="M686 209 c34 -36 80 -62 94 -54 6 3 10 15 10 26 0 22 -67 58 -109 59
l-25 0 30 -31z"/>
<path d="M436 218 c16 -30 49 -58 66 -58 26 0 22 25 -8 49 -30 23 -70 29 -58
9z"/>
<path d="M176 177 c-33 -50 -39 -90 -13 -95 30 -6 75 116 49 132 -5 3 -21 -14
-36 -37z"/>
<path d="M315 160 c18 -36 38 -57 72 -77 46 -27 54 -28 173 -28 119 0 170 10
170 34 0 4 -27 24 -60 44 -33 19 -60 31 -60 27 0 -5 5 -12 10 -15 6 -3 10 -15
10 -25 0 -26 -34 -34 -129 -28 -90 5 -128 24 -162 79 -36 58 -55 49 -24 -11z"/>
</g>
</svg>
