<?xml version="1.0" standalone="no"?>
<!DOCTYPE svg PUBLIC "-//W3C//DTD SVG 20010904//EN"
 "http://www.w3.org/TR/2001/REC-SVG-20010904/DTD/svg10.dtd">
<svg version="1.0" xmlns="http://www.w3.org/2000/svg"
 width="96.000000pt" height="68.000000pt" viewBox="0 0 96.000000 68.000000"
 preserveAspectRatio="xMidYMid meet">
<metadata>
Created by potrace 1.16, written by Peter Selinger 2001-2019
</metadata>
<g transform="translate(0.000000,68.000000) scale(0.100000,-0.100000)"
fill="#000000" stroke="none">
<path d="M430 624 c-36 -7 -85 -14 -110 -14 -25 -1 -54 -5 -65 -9 -19 -8 -18
-9 7 -21 23 -11 47 -10 139 4 61 10 113 15 116 13 10 -11 -71 -62 -93 -59 -18
3 -22 0 -18 -12 3 -8 13 -18 22 -22 26 -10 -20 -22 -93 -23 l-61 -1 4 -65 c2
-35 -1 -78 -7 -96 -7 -21 -7 -37 0 -50 17 -32 37 -23 41 19 l3 37 58 3 57 3 0
-36 c0 -23 5 -35 14 -35 16 0 26 21 26 54 0 18 6 22 38 24 20 2 49 5 64 7 31
6 39 -3 31 -34 -5 -19 -11 -22 -35 -17 l-29 6 35 -38 c33 -35 36 -36 52 -20
22 22 39 235 21 257 -11 13 -51 12 -144 -5 -83 -15 -2 51 110 89 25 9 21 24
-13 42 -34 18 -81 18 -170 -1z m170 -169 c0 -21 -5 -25 -29 -25 -16 0 -42 -3
-58 -6 -27 -5 -31 -3 -35 20 -3 14 -3 28 0 31 3 3 32 5 64 5 55 0 58 -1 58
-25z m-170 -15 c0 -30 -1 -30 -55 -30 -52 0 -55 2 -55 24 0 26 14 32 78 35 29
1 32 -2 32 -29z m180 -54 c0 -22 -3 -23 -70 -23 -60 0 -70 2 -68 16 2 11 18
18 48 22 86 12 90 11 90 -15z m-180 -16 c0 -16 -7 -20 -32 -20 -18 0 -43 -3
-55 -6 -20 -5 -23 -2 -23 20 0 25 2 26 55 26 48 0 55 -2 55 -20z"/>
<path d="M660 231 c0 -6 3 -11 8 -11 4 0 19 -11 33 -24 40 -37 68 -49 84 -36
29 24 -14 61 -88 75 -25 5 -37 4 -37 -4z"/>
<path d="M440 222 c0 -19 42 -62 61 -62 24 0 24 12 2 38 -20 22 -63 39 -63 24z"/>
<path d="M188 198 c-47 -71 -56 -118 -23 -118 29 0 65 94 47 125 -8 15 -11 14
-24 -7z"/>
<path d="M314 163 c26 -51 71 -87 127 -103 77 -22 276 -4 286 26 2 7 -21 26
-51 43 -58 33 -78 39 -58 19 7 -7 12 -20 12 -30 0 -22 -48 -32 -133 -26 -79 5
-136 33 -162 81 -31 57 -50 47 -21 -10z"/>
</g>
</svg>
