<?xml version="1.0" standalone="no"?>
<!DOCTYPE svg PUBLIC "-//W3C//DTD SVG 20010904//EN"
 "http://www.w3.org/TR/2001/REC-SVG-20010904/DTD/svg10.dtd">
<svg version="1.0" xmlns="http://www.w3.org/2000/svg"
 width="90.000000pt" height="92.000000pt" viewBox="0 0 90.000000 92.000000"
 preserveAspectRatio="xMidYMid meet">
<metadata>
Created by potrace 1.16, written by Peter Selinger 2001-2019
</metadata>
<g transform="translate(0.000000,92.000000) scale(0.100000,-0.100000)"
fill="#000000" stroke="none">
<path d="M560 888 c6 -72 4 -75 -56 -83 -46 -5 -53 -9 -43 -21 6 -8 27 -14 46
-14 35 0 35 -1 30 -32 l-6 -33 33 38 c33 37 34 37 109 37 44 0 79 5 83 11 13
21 -18 34 -81 34 l-64 0 16 24 c15 23 15 26 -7 43 -32 26 -62 24 -60 -4z"/>
<path d="M253 868 c3 -7 12 -30 21 -50 l16 -38 -80 0 c-44 0 -80 -4 -80 -8 0
-9 36 -44 56 -55 7 -4 28 0 48 8 51 21 63 19 75 -15 14 -42 31 -37 31 9 0 34
3 39 31 47 40 12 34 30 -8 26 -32 -3 -33 -3 -33 36 0 42 -11 52 -57 52 -16 0
-23 -4 -20 -12z"/>
<path d="M415 679 c-66 -10 -130 -17 -142 -14 -12 3 -25 1 -28 -5 -3 -5 -2
-10 3 -10 12 0 32 -45 32 -71 0 -32 19 -62 33 -51 7 5 53 12 102 16 142 11
163 16 158 35 -2 9 7 27 21 40 14 14 26 28 26 33 0 10 -61 48 -75 47 -5 -1
-64 -10 -130 -20z m115 -52 l0 -34 -82 -11 c-120 -17 -125 -17 -131 16 -3 15
-4 28 -2 30 6 6 149 30 183 31 30 1 32 -1 32 -32z"/>
<path d="M560 518 c-30 -5 -126 -17 -213 -27 -87 -11 -161 -22 -164 -25 -8 -8
60 -36 71 -29 17 11 24 -21 25 -122 l2 -103 -96 -7 c-52 -4 -95 -11 -95 -15 0
-4 12 -15 26 -25 24 -15 34 -16 137 -1 62 8 149 18 195 22 l82 7 0 -81 c0 -45
4 -83 9 -86 11 -7 31 71 31 123 l0 41 106 0 c94 0 105 2 102 17 -6 32 -47 44
-129 38 l-76 -6 4 83 c7 145 7 146 56 150 50 4 57 26 12 43 -20 8 -48 9 -85 3z
m-40 -72 c0 -8 3 -21 6 -30 5 -12 -1 -14 -30 -9 -20 3 -63 0 -97 -6 -33 -7
-63 -10 -65 -8 -3 3 -2 16 1 30 7 28 23 32 128 35 43 2 57 -1 57 -12z m10 -94
c0 -26 -2 -27 -47 -27 -27 0 -72 -4 -100 -8 -52 -9 -53 -8 -53 16 0 23 4 25
83 34 45 6 90 11 100 12 12 1 17 -6 17 -27z m0 -82 c0 -34 -4 -36 -129 -45
-75 -6 -83 -5 -77 10 3 9 6 22 6 29 0 9 30 16 93 23 50 5 95 10 100 11 4 1 7
-11 7 -28z"/>
</g>
</svg>
