<?xml version="1.0" standalone="no"?>
<!DOCTYPE svg PUBLIC "-//W3C//DTD SVG 20010904//EN"
 "http://www.w3.org/TR/2001/REC-SVG-20010904/DTD/svg10.dtd">
<svg version="1.0" xmlns="http://www.w3.org/2000/svg"
 width="96.000000pt" height="68.000000pt" viewBox="0 0 96.000000 68.000000"
 preserveAspectRatio="xMidYMid meet">
<metadata>
Created by potrace 1.16, written by Peter Selinger 2001-2019
</metadata>
<g transform="translate(0.000000,68.000000) scale(0.100000,-0.100000)"
fill="#000000" stroke="none">
<path d="M430 468 c-36 -5 -81 -7 -101 -4 l-37 4 14 -27 c8 -14 19 -38 24 -54
8 -22 14 -26 32 -22 13 3 64 9 115 14 83 7 94 11 117 37 31 35 31 40 7 54 -23
12 -79 11 -171 -2z m120 -31 c0 -22 -6 -24 -92 -36 -74 -9 -93 -9 -100 1 -21
34 -14 37 132 51 19 2 41 5 48 5 6 1 12 -8 12 -21z"/>
</g>
</svg>
