<?xml version="1.0" standalone="no"?>
<!DOCTYPE svg PUBLIC "-//W3C//DTD SVG 20010904//EN"
 "http://www.w3.org/TR/2001/REC-SVG-20010904/DTD/svg10.dtd">
<svg version="1.0" xmlns="http://www.w3.org/2000/svg"
 width="96.000000pt" height="68.000000pt" viewBox="0 0 96.000000 68.000000"
 preserveAspectRatio="xMidYMid meet">
<metadata>
Created by potrace 1.16, written by Peter Selinger 2001-2019
</metadata>
<g transform="translate(0.000000,68.000000) scale(0.100000,-0.100000)"
fill="#000000" stroke="none">
<path d="M540 237 l0 -83 -142 -12 c-79 -7 -164 -12 -190 -12 -54 0 -62 -12
-20 -29 20 -8 42 -9 73 -2 24 5 80 12 124 15 44 4 97 9 118 12 l37 6 0 -45 c0
-94 24 -103 41 -17 l12 60 91 0 c84 1 89 2 71 16 -15 12 -38 15 -93 12 l-74
-3 4 82 3 83 -27 0 -28 0 0 -83z"/>
</g>
</svg>
