<?xml version="1.0" standalone="no"?>
<!DOCTYPE svg PUBLIC "-//W3C//DTD SVG 20010904//EN"
 "http://www.w3.org/TR/2001/REC-SVG-20010904/DTD/svg10.dtd">
<svg version="1.0" xmlns="http://www.w3.org/2000/svg"
 width="96.000000pt" height="68.000000pt" viewBox="0 0 96.000000 68.000000"
 preserveAspectRatio="xMidYMid meet">
<metadata>
Created by potrace 1.16, written by Peter Selinger 2001-2019
</metadata>
<g transform="translate(0.000000,68.000000) scale(0.100000,-0.100000)"
fill="#000000" stroke="none">
<path d="M280 441 c18 -35 12 -41 -47 -42 -32 -1 -69 -4 -83 -8 l-24 -7 29
-12 c22 -9 44 -10 84 -2 30 5 56 10 59 10 3 0 2 -25 -1 -56 -7 -65 5 -75 60
-55 22 8 90 13 179 14 108 0 144 3 144 12 0 21 -42 25 -146 15 -55 -5 -120
-10 -146 -10 l-48 0 0 45 c0 38 3 45 20 45 11 0 20 5 20 10 0 6 -9 10 -20 10
-11 0 -20 7 -20 15 0 16 -30 35 -55 35 -12 0 -14 -4 -5 -19z"/>
</g>
</svg>
