<?xml version="1.0" standalone="no"?>
<!DOCTYPE svg PUBLIC "-//W3C//DTD SVG 20010904//EN"
 "http://www.w3.org/TR/2001/REC-SVG-20010904/DTD/svg10.dtd">
<svg version="1.0" xmlns="http://www.w3.org/2000/svg"
 width="96.000000pt" height="68.000000pt" viewBox="0 0 96.000000 68.000000"
 preserveAspectRatio="xMidYMid meet">
<metadata>
Created by potrace 1.16, written by Peter Selinger 2001-2019
</metadata>
<g transform="translate(0.000000,68.000000) scale(0.100000,-0.100000)"
fill="#000000" stroke="none">
<path d="M545 593 c0 -30 -4 -38 -20 -41 -11 -1 -31 -6 -45 -9 -22 -6 -20 -7
15 -12 36 -5 40 -9 37 -31 -3 -24 -2 -24 23 8 22 26 34 32 68 33 62 2 105 13
89 23 -16 10 -97 10 -113 1 -8 -5 -9 -1 -4 14 8 25 -9 51 -34 51 -12 0 -16 -9
-16 -37z"/>
<path d="M293 576 c27 -41 22 -46 -50 -46 l-68 -1 25 -20 c18 -16 32 -19 55
-14 16 4 40 9 52 12 15 4 23 -1 28 -17 9 -27 31 -20 28 9 -2 17 4 23 27 28 40
8 38 25 -2 21 -27 -3 -33 1 -38 22 -4 20 -13 26 -40 28 l-33 4 16 -26z"/>
</g>
</svg>
