<?xml version="1.0" standalone="no"?>
<!DOCTYPE svg PUBLIC "-//W3C//DTD SVG 20010904//EN"
 "http://www.w3.org/TR/2001/REC-SVG-20010904/DTD/svg10.dtd">
<svg version="1.0" xmlns="http://www.w3.org/2000/svg"
 width="90.000000pt" height="92.000000pt" viewBox="0 0 90.000000 92.000000"
 preserveAspectRatio="xMidYMid meet">
<metadata>
Created by potrace 1.16, written by Peter Selinger 2001-2019
</metadata>
<g transform="translate(0.000000,92.000000) scale(0.100000,-0.100000)"
fill="#000000" stroke="none">
<path d="M600 753 c-25 -63 -68 -132 -108 -175 -24 -26 -24 -28 -8 -53 9 -14
18 -25 20 -25 2 0 57 18 123 40 l118 39 23 -25 c27 -29 46 -27 50 5 6 41 -18
79 -65 102 -24 12 -46 19 -49 16 -3 -3 2 -19 10 -36 9 -16 16 -34 16 -39 0 -6
-30 -15 -67 -22 -38 -6 -76 -14 -85 -17 -28 -7 -22 11 33 98 28 45 53 87 56
95 5 14 -22 54 -37 54 -3 0 -17 -26 -30 -57z"/>
<path d="M275 763 c-50 -14 -119 -26 -155 -28 -36 -2 -67 -4 -69 -4 -2 -1 2
-8 10 -17 8 -10 14 -55 17 -127 5 -134 -17 -278 -53 -351 -33 -65 -31 -76 4
-42 38 36 66 103 81 189 13 72 25 79 36 19 11 -60 23 -84 36 -76 7 5 21 9 30
9 15 1 18 -7 18 -51 l0 -52 -43 -6 c-24 -4 -51 -4 -60 0 -28 10 -20 -23 11
-44 l28 -20 79 39 c44 21 85 39 91 39 6 0 17 -11 24 -25 19 -35 40 -32 40 6 0
41 -15 66 -50 84 -39 20 -43 19 -29 -7 10 -18 8 -24 -7 -35 -33 -24 -44 -16
-44 31 0 47 9 56 56 56 20 0 24 4 20 18 -3 9 4 33 16 52 l22 35 7 -67 c15
-145 63 -225 169 -280 38 -20 63 -23 165 -26 94 -3 124 0 140 11 18 14 18 16
2 53 -10 22 -21 59 -25 84 l-7 45 -18 -62 c-19 -71 -30 -78 -125 -76 -117 3
-206 65 -244 171 -18 50 -17 319 1 391 13 53 13 55 -9 73 -28 23 -54 22 -165
-9z m115 -163 l0 -140 -25 16 c-16 11 -36 14 -55 11 -29 -6 -30 -6 -28 38 2
38 6 45 23 45 28 0 49 15 41 29 -4 6 -19 11 -34 10 -41 0 -163 -34 -163 -45 0
-5 17 -11 38 -14 35 -5 38 -8 41 -41 3 -35 2 -36 -35 -42 -76 -13 -73 -17 -72
81 2 147 0 143 99 169 47 11 104 22 128 22 l42 1 0 -140z m-74 -162 c-3 -13
-6 -31 -6 -40 0 -10 -7 -18 -15 -18 -11 0 -15 11 -15 40 0 34 3 40 21 40 17 0
20 -4 15 -22z m-88 -30 c-2 -35 -7 -44 -24 -46 -19 -3 -22 3 -26 37 -4 41 2
49 35 50 15 1 18 -6 15 -41z"/>
<path d="M692 459 c-43 -17 -136 -27 -161 -18 -30 12 -36 6 -21 -21 6 -11 16
-49 21 -83 6 -34 17 -69 25 -77 8 -8 14 -10 14 -3 0 7 38 14 100 18 l99 7 -5
27 c-3 15 3 50 15 81 11 29 20 55 18 56 -31 24 -68 28 -105 13z m30 -46 c3
-10 3 -35 0 -55 l-4 -37 -70 -11 c-38 -7 -71 -10 -72 -9 -2 2 -6 27 -8 56 l-5
51 66 10 c36 5 71 10 77 11 7 0 14 -7 16 -16z"/>
</g>
</svg>
