<?xml version="1.0" standalone="no"?>
<!DOCTYPE svg PUBLIC "-//W3C//DTD SVG 20010904//EN"
 "http://www.w3.org/TR/2001/REC-SVG-20010904/DTD/svg10.dtd">
<svg version="1.0" xmlns="http://www.w3.org/2000/svg"
 width="90.000000pt" height="92.000000pt" viewBox="0 0 90.000000 92.000000"
 preserveAspectRatio="xMidYMid meet">
<metadata>
Created by potrace 1.16, written by Peter Selinger 2001-2019
</metadata>
<g transform="translate(0.000000,92.000000) scale(0.100000,-0.100000)"
fill="#000000" stroke="none">
<path d="M178 834 c-4 -3 -3 -18 1 -32 4 -15 6 -33 5 -39 -1 -7 -2 -19 -3 -27
-1 -9 -21 -16 -61 -21 -87 -10 -76 -35 16 -35 40 0 44 -2 44 -24 0 -21 -5 -25
-37 -28 -20 -2 -39 -9 -41 -17 -4 -12 11 -13 91 -7 53 3 106 10 119 15 l22 8
-23 12 c-14 8 -37 10 -57 6 -24 -4 -34 -2 -34 7 0 27 17 37 78 47 80 13 92 20
59 38 -20 10 -37 11 -69 3 -62 -14 -61 -14 -55 35 6 37 3 46 -13 55 -21 11
-34 13 -42 4z"/>
<path d="M571 757 c-6 -29 -27 -83 -45 -120 -19 -37 -30 -67 -26 -67 5 0 24
18 42 39 27 31 46 42 95 55 33 9 66 16 72 16 16 0 14 -26 -5 -62 l-17 -32 28
18 c16 10 43 28 62 39 41 24 39 36 -10 60 -35 18 -38 18 -103 -2 -36 -12 -68
-21 -71 -21 -3 0 7 20 21 45 l25 45 -21 20 c-12 11 -25 20 -28 20 -4 0 -12
-24 -19 -53z"/>
<path d="M417 672 c-55 -15 -53 -32 3 -32 45 0 94 16 86 29 -10 16 -41 17 -89
3z"/>
<path d="M587 572 c8 -60 -27 -129 -89 -174 -57 -43 -42 -51 29 -17 29 14 52
35 69 65 30 51 19 54 127 -40 54 -47 71 -57 78 -45 22 35 0 60 -102 114 -38
20 -69 40 -69 45 0 5 5 21 11 37 8 23 7 30 -7 40 -10 7 -26 13 -35 13 -14 0
-16 -7 -12 -38z"/>
<path d="M225 569 c-96 -21 -165 -24 -165 -7 0 22 -16 -6 -39 -66 -19 -52 -20
-61 -7 -74 13 -13 17 -11 35 19 12 19 21 43 21 55 0 19 10 23 125 39 69 10
128 15 132 12 3 -4 2 -23 -4 -42 -6 -19 -9 -35 -7 -35 6 0 104 71 104 76 0 2
-15 13 -32 24 -38 23 -56 23 -163 -1z"/>
<path d="M428 498 c-51 -11 -61 -23 -28 -33 22 -7 120 14 120 26 0 7 -27 20
-38 18 -4 -1 -28 -6 -54 -11z"/>
<path d="M163 482 c-105 -26 -72 -50 40 -28 74 14 89 22 67 36 -19 12 -31 11
-107 -8z"/>
<path d="M215 415 c-16 -8 -56 -14 -88 -15 -57 0 -57 0 -43 -22 7 -13 17 -39
20 -58 10 -59 14 -74 30 -117 l15 -41 -70 -12 c-69 -12 -79 -23 -34 -40 15 -6
42 -3 81 10 33 10 94 24 137 31 81 14 98 32 34 37 -42 4 -44 8 -17 42 17 23
17 26 3 42 -14 16 -15 18 0 18 10 0 13 6 10 20 -3 11 5 36 17 57 21 35 21 38
4 50 -22 16 -60 15 -99 -2z m38 -33 c3 -4 3 -19 0 -34 -4 -23 -11 -27 -55 -33
-56 -8 -54 -9 -63 26 -6 24 -3 26 42 36 64 14 71 14 76 5z m-16 -144 c-7 -52
-18 -68 -50 -68 -13 0 -17 5 -12 19 4 12 -4 30 -21 50 -28 34 -25 37 36 44 19
2 39 5 44 5 5 1 6 -21 3 -50z"/>
<path d="M556 328 c22 -38 68 -88 80 -88 9 0 14 11 14 30 0 23 -7 35 -32 50
-38 23 -73 27 -62 8z"/>
<path d="M726 329 c83 -109 105 -126 118 -93 15 38 -23 74 -104 99 -20 6 -23
5 -14 -6z"/>
<path d="M470 305 c0 -4 7 -31 16 -61 29 -101 104 -154 214 -154 51 0 130 32
130 53 0 7 -27 32 -59 55 l-60 42 15 -36 c18 -44 12 -52 -47 -60 -67 -9 -131
21 -158 75 -12 22 -21 47 -21 54 0 8 -7 20 -15 27 -8 7 -15 9 -15 5z"/>
<path d="M386 232 c-28 -55 -33 -96 -14 -108 30 -19 73 102 50 142 -8 15 -14
10 -36 -34z"/>
</g>
</svg>
