<?xml version="1.0" standalone="no"?>
<!DOCTYPE svg PUBLIC "-//W3C//DTD SVG 20010904//EN"
 "http://www.w3.org/TR/2001/REC-SVG-20010904/DTD/svg10.dtd">
<svg version="1.0" xmlns="http://www.w3.org/2000/svg"
 width="96.000000pt" height="68.000000pt" viewBox="0 0 96.000000 68.000000"
 preserveAspectRatio="xMidYMid meet">
<metadata>
Created by potrace 1.16, written by Peter Selinger 2001-2019
</metadata>
<g transform="translate(0.000000,68.000000) scale(0.100000,-0.100000)"
fill="#000000" stroke="none">
<path d="M580 214 c-47 -8 -104 -13 -127 -12 -40 3 -58 -5 -32 -14 6 -2 18
-32 27 -67 16 -59 42 -95 42 -57 0 13 12 16 64 16 83 0 157 10 150 21 -6 10
26 69 38 69 13 0 9 27 -5 39 -23 18 -68 20 -157 5z m86 -56 c-4 -23 -8 -43 -9
-44 -1 -1 -39 -5 -83 -9 l-82 -7 -12 37 c-7 20 -10 38 -8 40 5 6 120 22 162
24 l39 1 -7 -42z"/>
</g>
</svg>
