<?xml version="1.0" standalone="no"?>
<!DOCTYPE svg PUBLIC "-//W3C//DTD SVG 20010904//EN"
 "http://www.w3.org/TR/2001/REC-SVG-20010904/DTD/svg10.dtd">
<svg version="1.0" xmlns="http://www.w3.org/2000/svg"
 width="96.000000pt" height="68.000000pt" viewBox="0 0 96.000000 68.000000"
 preserveAspectRatio="xMidYMid meet">
<metadata>
Created by potrace 1.16, written by Peter Selinger 2001-2019
</metadata>
<g transform="translate(0.000000,68.000000) scale(0.100000,-0.100000)"
fill="#000000" stroke="none">
<path d="M470 524 c-96 -12 -177 -23 -180 -23 -3 -1 2 -6 10 -11 21 -13 17
-142 -8 -217 -19 -57 -61 -143 -83 -170 -7 -7 -10 -16 -7 -19 10 -9 81 79 104
131 13 28 32 101 42 161 l19 109 99 12 c54 6 143 15 197 18 86 6 96 9 80 21
-24 18 -63 16 -273 -12z"/>
<path d="M635 441 c-4 -22 -15 -57 -26 -77 -21 -42 -18 -55 8 -32 22 19 109
33 117 19 4 -5 2 -12 -4 -16 -5 -3 -10 -13 -10 -20 0 -12 8 -10 40 6 53 28 56
35 25 55 -24 15 -32 16 -76 5 -28 -7 -53 -10 -56 -7 -4 3 4 25 16 47 19 34 21
43 10 50 -26 16 -37 9 -44 -30z"/>
<path d="M500 420 c-15 -55 -33 -70 -86 -70 -24 0 -44 -4 -44 -10 0 -5 16 -10
35 -10 38 0 50 -20 43 -76 -2 -24 -8 -30 -32 -32 -24 -3 -28 -1 -21 15 13 32
11 47 -7 51 -13 2 -18 -3 -18 -17 0 -11 -5 -32 -12 -46 -17 -38 0 -49 47 -30
35 15 37 15 31 0 -3 -9 -6 -21 -6 -25 0 -5 -19 -28 -42 -51 l-43 -42 43 24
c30 16 51 38 69 71 20 36 32 48 50 48 12 0 23 -4 23 -10 0 -5 6 -10 14 -10 8
0 17 15 20 36 4 19 10 42 13 50 3 10 -2 14 -19 14 -22 0 -24 -4 -20 -30 4 -27
1 -30 -22 -30 -25 0 -26 3 -26 50 0 48 1 50 28 51 15 0 36 4 46 8 31 12 0 24
-42 16 l-36 -7 37 45 c20 25 37 48 37 51 0 3 -11 6 -25 6 -20 0 -26 -7 -35
-40z"/>
<path d="M175 434 c-22 -8 -52 -13 -67 -11 -32 4 -33 2 -13 -46 8 -20 15 -47
15 -60 0 -13 6 -32 14 -43 12 -15 17 -17 27 -6 7 6 24 12 39 12 48 0 68 11 68
35 0 13 7 38 16 55 9 18 16 41 16 50 0 33 -49 38 -115 14z m44 -46 c-2 -47
-15 -72 -41 -79 -23 -6 -27 -3 -32 23 -10 52 -7 66 17 71 49 10 57 7 56 -15z"/>
<path d="M390 422 c0 -13 30 -52 41 -52 17 0 9 39 -10 50 -23 12 -31 13 -31 2z"/>
<path d="M640 270 c0 -23 -7 -55 -17 -73 -23 -45 -66 -97 -80 -97 -6 0 -15 -4
-18 -10 -3 -6 3 -10 14 -10 25 0 87 53 107 91 8 16 18 29 22 29 4 0 22 -28 41
-61 38 -65 61 -78 114 -62 l31 9 -46 27 c-53 31 -128 116 -128 145 0 31 -11
52 -26 52 -10 0 -14 -13 -14 -40z"/>
</g>
</svg>
