<?xml version="1.0" standalone="no"?>
<!DOCTYPE svg PUBLIC "-//W3C//DTD SVG 20010904//EN"
 "http://www.w3.org/TR/2001/REC-SVG-20010904/DTD/svg10.dtd">
<svg version="1.0" xmlns="http://www.w3.org/2000/svg"
 width="90.000000pt" height="92.000000pt" viewBox="0 0 90.000000 92.000000"
 preserveAspectRatio="xMidYMid meet">
<metadata>
Created by potrace 1.16, written by Peter Selinger 2001-2019
</metadata>
<g transform="translate(0.000000,92.000000) scale(0.100000,-0.100000)"
fill="#000000" stroke="none">
<path d="M495 704 c-89 -18 -126 -22 -143 -14 -13 5 -26 10 -30 10 -4 0 -8
-98 -9 -218 -3 -255 1 -275 64 -310 110 -61 399 -48 479 21 l26 22 -21 62
c-12 34 -21 72 -21 83 0 41 -18 18 -24 -31 -13 -95 -78 -129 -246 -129 -99 0
-173 15 -196 41 -14 16 -19 42 -22 118 l-4 97 157 14 c152 13 156 14 151 35
-3 13 9 51 34 101 22 43 40 80 40 81 0 2 -15 12 -32 23 -40 24 -52 24 -203 -6z
m130 -26 c2 -7 -1 -42 -8 -78 l-12 -65 -50 -12 c-27 -7 -51 -11 -53 -9 -2 2 1
35 6 72 6 43 6 73 0 81 -7 8 -1 13 19 16 58 9 94 7 98 -5z m-170 -50 c3 -18 4
-54 3 -80 -3 -44 -5 -48 -28 -48 -14 0 -35 -3 -47 -6 -22 -6 -23 -4 -23 69 0
73 1 76 28 85 48 18 61 14 67 -20z"/>
<path d="M161 638 c-7 -8 -38 -13 -82 -12 -68 1 -79 -2 -59 -22 6 -6 17 -59
25 -119 14 -108 30 -151 41 -109 5 18 16 23 75 28 65 7 83 16 59 31 -12 7 -10
13 22 119 21 67 21 69 3 82 -24 17 -67 18 -84 2z m19 -82 c0 -83 -9 -105 -48
-116 -20 -5 -38 -8 -40 -6 -2 3 -6 38 -9 79 l-6 75 29 5 c74 11 74 11 74 -37z"/>
</g>
</svg>
