<?xml version="1.0" standalone="no"?>
<!DOCTYPE svg PUBLIC "-//W3C//DTD SVG 20010904//EN"
 "http://www.w3.org/TR/2001/REC-SVG-20010904/DTD/svg10.dtd">
<svg version="1.0" xmlns="http://www.w3.org/2000/svg"
 width="96.000000pt" height="68.000000pt" viewBox="0 0 96.000000 68.000000"
 preserveAspectRatio="xMidYMid meet">
<metadata>
Created by potrace 1.16, written by Peter Selinger 2001-2019
</metadata>
<g transform="translate(0.000000,68.000000) scale(0.100000,-0.100000)"
fill="#000000" stroke="none">
<path d="M570 593 c0 -39 -10 -49 -54 -57 -29 -6 -36 -10 -25 -17 8 -5 25 -9
38 -9 17 0 21 -4 17 -15 -3 -8 -9 -22 -12 -30 -5 -11 -2 -13 10 -9 9 3 16 9
16 13 0 3 11 19 25 34 23 24 33 27 85 27 60 0 79 13 39 25 -11 4 -36 4 -55 0
-34 -6 -34 -5 -28 21 7 28 -6 44 -38 44 -13 0 -18 -8 -18 -27z"/>
<path d="M300 595 c0 -4 7 -19 15 -34 8 -16 11 -31 8 -35 -4 -3 -33 -6 -65 -6
-62 0 -72 -9 -35 -29 19 -10 33 -10 67 -1 39 10 45 10 57 -6 7 -10 13 -21 13
-26 0 -4 5 -8 10 -8 6 0 10 15 10 34 0 29 4 35 33 44 l32 10 -37 1 c-33 1 -38
4 -38 25 0 13 -7 27 -16 30 -20 8 -54 8 -54 1z"/>
</g>
</svg>
