<?xml version="1.0" standalone="no"?>
<!DOCTYPE svg PUBLIC "-//W3C//DTD SVG 20010904//EN"
 "http://www.w3.org/TR/2001/REC-SVG-20010904/DTD/svg10.dtd">
<svg version="1.0" xmlns="http://www.w3.org/2000/svg"
 width="96.000000pt" height="68.000000pt" viewBox="0 0 96.000000 68.000000"
 preserveAspectRatio="xMidYMid meet">
<metadata>
Created by potrace 1.16, written by Peter Selinger 2001-2019
</metadata>
<g transform="translate(0.000000,68.000000) scale(0.100000,-0.100000)"
fill="#000000" stroke="none">
<path d="M577 573 c-2 -2 0 -24 4 -51 4 -26 8 -82 8 -124 1 -69 3 -78 20 -78
15 0 19 11 24 68 4 37 7 92 7 123 0 55 -1 57 -30 61 -17 3 -32 3 -33 1z"/>
<path d="M740 490 c0 -4 -15 -31 -34 -59 -19 -28 -31 -51 -27 -51 14 0 116 81
116 92 0 6 -12 15 -27 19 -16 4 -28 4 -28 -1z"/>
<path d="M465 413 c34 -54 65 -68 65 -29 0 27 -33 56 -63 56 -19 0 -19 -1 -2
-27z"/>
</g>
</svg>
