<?xml version="1.0" standalone="no"?>
<!DOCTYPE svg PUBLIC "-//W3C//DTD SVG 20010904//EN"
 "http://www.w3.org/TR/2001/REC-SVG-20010904/DTD/svg10.dtd">
<svg version="1.0" xmlns="http://www.w3.org/2000/svg"
 width="90.000000pt" height="92.000000pt" viewBox="0 0 90.000000 92.000000"
 preserveAspectRatio="xMidYMid meet">
<metadata>
Created by potrace 1.16, written by Peter Selinger 2001-2019
</metadata>
<g transform="translate(0.000000,92.000000) scale(0.100000,-0.100000)"
fill="#000000" stroke="none">
<path d="M590 809 c-63 -10 -141 -19 -172 -20 -32 -2 -58 -5 -58 -8 0 -3 7
-14 15 -25 8 -10 17 -38 21 -62 3 -24 12 -51 19 -61 16 -21 1 -54 -53 -120
-41 -51 -32 -55 26 -12 23 17 49 28 57 25 8 -3 52 1 97 9 46 8 107 15 135 15
49 0 53 -2 60 -27 7 -29 -11 -321 -23 -361 -7 -25 -43 -30 -89 -12 -31 12 -28
6 24 -57 42 -51 65 -54 91 -11 30 50 38 89 49 253 6 83 13 166 17 186 5 32 3
38 -24 58 l-30 21 -124 -20 c-67 -11 -136 -22 -152 -25 l-30 -5 23 24 c23 25
21 46 -4 46 -26 0 -23 15 3 16 15 1 76 4 137 7 93 4 111 8 120 23 7 11 25 43
43 71 l31 52 -26 21 c-30 23 -30 23 -183 -1z m120 -30 c0 -5 -5 -30 -11 -55
-9 -33 -16 -44 -26 -40 -8 3 -25 6 -38 6 -23 0 -23 1 -11 33 7 17 16 40 19 50
7 19 67 25 67 6z m-120 -49 c0 -36 -4 -50 -14 -50 -8 0 -21 -3 -30 -6 -13 -5
-16 2 -16 44 0 50 6 60 43 61 14 1 17 -8 17 -49z m-92 -7 c6 -26 10 -48 9 -49
-1 -1 -16 -4 -33 -7 -27 -5 -33 -3 -38 16 -11 43 -7 75 12 80 36 10 41 6 50
-40z"/>
<path d="M220 746 c-36 -20 -123 -36 -150 -29 -20 5 -22 3 -16 -13 17 -41 25
-71 31 -116 3 -25 13 -52 20 -58 11 -9 15 -9 15 -1 0 6 9 11 20 11 24 0 27
-14 34 -158 l5 -113 -25 -10 c-44 -16 -45 -13 -43 79 2 83 1 88 -22 99 -33 17
-38 7 -29 -57 5 -30 9 -74 9 -97 1 -43 1 -43 -34 -43 -41 0 -46 -17 -12 -48
30 -28 36 -28 105 6 31 16 90 42 130 57 40 16 72 34 72 42 0 17 -17 17 -69 -2
l-42 -14 3 67 c3 58 6 67 23 70 51 7 65 13 65 27 0 17 -27 19 -64 6 -24 -10
-24 -9 -19 36 3 29 0 48 -7 53 -7 4 3 10 24 14 31 6 35 10 30 30 -3 12 4 47
15 77 27 69 26 73 -4 87 -32 15 -34 15 -65 -2z m20 -58 c0 -13 -3 -40 -6 -60
-6 -34 -10 -37 -56 -48 -27 -7 -50 -11 -52 -9 -2 2 -6 29 -9 60 l-5 57 41 10
c71 17 87 15 87 -10z"/>
<path d="M440 491 c19 -37 12 -58 -21 -65 -17 -3 -45 -6 -61 -6 -26 0 -29 -2
-18 -15 6 -8 18 -36 25 -62 6 -26 16 -47 21 -47 5 1 21 4 37 8 24 6 27 3 28
-19 1 -14 2 -31 3 -37 2 -17 -28 -26 -92 -27 -49 -1 -52 -2 -42 -21 22 -42 42
-42 159 -3 l109 37 20 -24 c16 -19 23 -22 33 -13 22 21 1 61 -43 84 l-41 21 6
-21 c6 -24 4 -26 -40 -36 -32 -6 -33 -6 -33 28 0 35 0 36 53 42 47 6 52 9 54
32 0 14 11 38 22 54 l21 28 -25 17 c-24 16 -41 16 -103 -2 -21 -6 -23 -4 -21
17 5 33 -8 49 -37 49 -21 0 -23 -3 -14 -19z m122 -111 c-4 -27 -8 -30 -38 -30
-31 0 -34 3 -34 30 0 28 2 30 38 30 37 0 38 -1 34 -30z m-112 -9 c0 -24 -5
-29 -30 -33 -17 -3 -30 0 -30 6 0 6 -3 21 -6 34 -6 20 -3 22 30 22 33 0 36 -2
36 -29z"/>
</g>
</svg>
