<?xml version="1.0" standalone="no"?>
<!DOCTYPE svg PUBLIC "-//W3C//DTD SVG 20010904//EN"
 "http://www.w3.org/TR/2001/REC-SVG-20010904/DTD/svg10.dtd">
<svg version="1.0" xmlns="http://www.w3.org/2000/svg"
 width="90.000000pt" height="92.000000pt" viewBox="0 0 90.000000 92.000000"
 preserveAspectRatio="xMidYMid meet">
<metadata>
Created by potrace 1.16, written by Peter Selinger 2001-2019
</metadata>
<g transform="translate(0.000000,92.000000) scale(0.100000,-0.100000)"
fill="#000000" stroke="none">
<path d="M494 863 c4 -9 10 -36 13 -60 6 -47 6 -47 -60 -58 -50 -8 -38 -25 19
-25 43 0 44 0 44 -34 0 -34 0 -34 -58 -41 -75 -8 -91 -18 -57 -33 20 -9 41 -8
96 3 100 21 125 20 133 -7 12 -47 7 -55 -34 -62 -48 -8 -44 -26 6 -26 23 0 34
-5 34 -14 0 -8 3 -21 6 -29 4 -11 -7 -16 -50 -21 -31 -4 -56 -11 -56 -16 0
-17 39 -21 102 -10 34 5 83 10 108 10 62 0 80 13 48 34 -14 9 -31 14 -39 12
-8 -2 -26 -7 -41 -10 -26 -6 -28 -4 -28 23 0 26 4 30 40 36 47 8 58 20 31 34
-14 8 -28 8 -46 1 -26 -10 -27 -9 -21 14 5 21 1 28 -21 40 l-28 15 40 1 39 0
-22 22 c-20 20 -26 21 -82 12 l-60 -10 0 28 c0 30 1 31 68 48 58 15 50 36 -12
33 l-47 -1 2 42 c3 54 -5 66 -43 66 -24 0 -29 -3 -24 -17z"/>
<path d="M184 826 c-3 -7 0 -33 5 -57 13 -55 14 -146 2 -153 -5 -3 -43 -11
-85 -18 -101 -16 -94 -33 12 -32 l82 1 0 -62 0 -62 -84 -59 c-46 -33 -92 -64
-102 -70 -15 -10 -17 -16 -8 -30 27 -46 40 -42 114 31 38 38 71 67 73 64 8 -8
-10 -190 -19 -199 -5 -5 -24 -6 -47 -1 -20 5 -37 8 -37 7 0 -1 23 -26 51 -55
l51 -53 22 21 c19 20 21 33 23 178 l2 157 43 43 c49 50 45 67 -6 28 l-36 -27
0 50 0 50 44 11 c25 6 47 15 51 20 9 16 -35 34 -67 27 l-30 -6 7 53 c3 28 11
65 17 81 10 25 9 30 -13 47 -32 24 -59 30 -65 15z"/>
<path d="M387 547 c5 -33 4 -35 -31 -41 -42 -8 -39 -26 5 -26 27 0 29 -3 29
-35 0 -40 -13 -49 -72 -50 -42 0 -49 -16 -18 -38 18 -13 30 -10 115 26 107 46
133 80 31 41 -13 -5 -16 1 -16 30 0 31 4 36 28 42 54 12 58 14 42 24 -8 6 -25
10 -37 10 -15 0 -23 7 -25 23 -2 15 -11 23 -30 25 -26 3 -27 1 -21 -31z"/>
<path d="M498 352 c-76 -14 -138 -29 -138 -32 0 -13 48 -29 70 -23 20 5 21 3
15 -18 -15 -50 -36 -77 -101 -138 -69 -65 -62 -74 21 -26 74 43 147 143 127
175 -9 16 -6 19 25 25 19 3 38 4 41 0 4 -3 9 -48 12 -99 6 -105 17 -127 78
-147 48 -16 148 -6 180 18 44 33 47 46 24 95 -12 24 -22 51 -23 59 0 8 -7 -8
-14 -36 -20 -71 -44 -88 -123 -83 -41 3 -67 9 -73 19 -12 19 -11 89 2 128 8
24 8 35 -1 46 -11 13 -5 15 44 15 42 0 56 4 56 15 0 18 -32 35 -62 34 -13 -1
-85 -13 -160 -27z"/>
</g>
</svg>
