<?xml version="1.0" standalone="no"?>
<!DOCTYPE svg PUBLIC "-//W3C//DTD SVG 20010904//EN"
 "http://www.w3.org/TR/2001/REC-SVG-20010904/DTD/svg10.dtd">
<svg version="1.0" xmlns="http://www.w3.org/2000/svg"
 width="90.000000pt" height="92.000000pt" viewBox="0 0 90.000000 92.000000"
 preserveAspectRatio="xMidYMid meet">
<metadata>
Created by potrace 1.16, written by Peter Selinger 2001-2019
</metadata>
<g transform="translate(0.000000,92.000000) scale(0.100000,-0.100000)"
fill="#000000" stroke="none">
<path d="M545 860 c-38 -10 -90 -19 -115 -20 -25 -1 -56 -5 -70 -9 l-25 -7 30
-16 c28 -14 38 -14 132 5 56 12 105 18 109 14 4 -4 -7 -23 -25 -41 -30 -31
-35 -33 -68 -24 -48 13 -52 3 -14 -36 19 -20 28 -36 22 -40 -5 -4 -47 -9 -91
-13 -77 -6 -81 -7 -76 -28 3 -12 8 -55 11 -96 9 -115 14 -139 30 -139 10 0 15
11 15 34 0 31 3 34 38 40 66 11 72 9 72 -24 0 -39 17 -39 25 1 8 33 25 43 96
52 43 6 47 5 42 -13 -4 -14 -14 -20 -35 -20 l-29 0 28 -35 c15 -19 34 -35 40
-35 28 0 47 53 54 149 3 53 8 102 10 109 2 8 -8 23 -22 34 -24 18 -31 19 -83
7 -61 -13 -62 -13 -68 15 -2 14 13 27 62 53 36 19 66 41 68 48 3 13 -67 57
-85 54 -4 -1 -39 -9 -78 -19z m145 -220 c0 -27 -2 -29 -24 -20 -13 5 -26 7
-27 6 -2 -2 -20 -6 -41 -10 -33 -6 -36 -5 -31 14 3 13 0 20 -8 21 -30 2 39 17
84 18 46 1 47 0 47 -29z m-177 -12 c8 -28 9 -27 -52 -37 -49 -8 -51 -7 -51 15
0 18 8 26 33 33 51 15 64 13 70 -11z m177 -57 c0 -28 -2 -29 -42 -29 -24 1
-53 -2 -65 -6 -20 -6 -23 -4 -23 18 0 22 5 25 48 31 26 4 52 8 57 10 21 7 25
4 25 -24z m-170 -25 c0 -19 -6 -24 -37 -30 -65 -10 -73 -8 -73 18 0 22 5 25
43 29 23 2 48 4 55 5 6 1 12 -8 12 -22z"/>
<path d="M150 783 c0 -5 16 -28 36 -52 44 -51 79 -54 79 -6 0 22 -7 33 -26 42
-38 18 -89 27 -89 16z"/>
<path d="M60 581 c0 -4 16 -29 36 -55 41 -54 77 -61 82 -15 3 29 -18 51 -67
68 -41 13 -51 14 -51 2z"/>
<path d="M207 381 c-27 -46 -67 -103 -89 -127 -40 -43 -41 -46 -30 -82 15 -50
38 -80 50 -67 6 6 23 48 40 95 16 47 42 118 56 159 39 107 28 117 -27 22z"/>
<path d="M482 407 c3 -14 2 -31 -2 -37 -3 -6 -45 -16 -93 -22 -48 -6 -87 -15
-87 -19 0 -3 13 -12 30 -19 23 -9 40 -10 74 -1 25 6 50 11 56 11 23 0 -48
-107 -117 -177 -40 -40 -70 -73 -67 -73 10 0 100 51 119 67 36 31 99 117 119
160 l18 42 73 6 c41 4 79 4 85 0 25 -16 -15 -162 -53 -194 -17 -13 -48 -11
-92 5 -16 6 -14 1 10 -27 17 -19 37 -45 45 -58 15 -23 17 -23 47 -8 43 23 68
68 88 162 10 44 24 91 33 104 14 23 13 26 -12 48 -30 26 -46 27 -131 9 -56
-12 -60 -11 -80 10 -11 12 -31 25 -44 29 -21 7 -23 5 -19 -18z"/>
</g>
</svg>
