<?xml version="1.0" standalone="no"?>
<!DOCTYPE svg PUBLIC "-//W3C//DTD SVG 20010904//EN"
 "http://www.w3.org/TR/2001/REC-SVG-20010904/DTD/svg10.dtd">
<svg version="1.0" xmlns="http://www.w3.org/2000/svg"
 width="90.000000pt" height="92.000000pt" viewBox="0 0 90.000000 92.000000"
 preserveAspectRatio="xMidYMid meet">
<metadata>
Created by potrace 1.16, written by Peter Selinger 2001-2019
</metadata>
<g transform="translate(0.000000,92.000000) scale(0.100000,-0.100000)"
fill="#000000" stroke="none">
<path d="M383 793 c3 -16 1 -60 -5 -100 l-10 -72 -54 -7 c-30 -3 -54 -10 -54
-14 0 -15 45 -27 69 -18 13 4 26 6 29 4 10 -11 -50 -175 -87 -238 -44 -75 -40
-86 13 -34 41 42 89 137 114 226 18 62 20 65 52 68 l33 3 -6 -83 c-8 -103 -32
-188 -53 -188 -8 0 -25 5 -36 11 -23 12 -22 10 12 -48 29 -50 41 -53 69 -17
25 32 35 68 56 194 8 52 18 107 21 122 5 22 1 29 -24 42 -24 12 -37 14 -58 6
-15 -6 -29 -8 -32 -6 -3 3 0 31 7 62 16 80 14 89 -14 102 -40 18 -48 15 -42
-15z"/>
<path d="M95 779 c58 -98 141 -134 121 -54 -8 30 -39 51 -90 61 -32 5 -37 4
-31 -7z"/>
<path d="M710 634 c-25 -7 -65 -13 -89 -13 -40 -1 -43 -3 -36 -23 4 -13 11
-54 16 -93 20 -149 24 -169 37 -173 6 -2 12 3 12 12 0 12 10 16 38 16 20 0 53
3 73 6 31 5 35 9 31 30 -5 27 12 129 31 182 11 31 10 36 -12 53 -26 21 -37 22
-101 3z m46 -71 c-3 -27 -8 -73 -12 -104 l-6 -57 -40 -6 c-23 -4 -42 -5 -43
-4 -1 2 -5 49 -9 105 l-7 102 28 4 c15 2 43 5 61 6 l34 1 -6 -47z"/>
<path d="M101 574 c-24 -13 -52 -24 -63 -24 -10 0 -18 -5 -18 -10 0 -18 32
-24 72 -13 43 12 47 6 24 -47 -13 -32 -12 -35 20 -77 25 -33 34 -55 34 -82 0
-38 0 -38 -46 -45 -26 -3 -62 -6 -80 -6 -37 0 -45 -18 -19 -40 13 -11 26 -11
66 -2 28 7 66 12 84 12 37 0 154 -41 330 -115 91 -38 118 -45 155 -41 53 5
220 64 220 77 0 5 -28 9 -62 9 -103 0 -295 19 -366 35 -37 9 -111 30 -164 47
-94 30 -96 31 -87 55 16 43 10 65 -31 104 l-39 38 44 49 c25 28 45 54 45 60 0
12 -45 42 -62 41 -7 0 -33 -11 -57 -25z"/>
</g>
</svg>
