<?xml version="1.0" standalone="no"?>
<!DOCTYPE svg PUBLIC "-//W3C//DTD SVG 20010904//EN"
 "http://www.w3.org/TR/2001/REC-SVG-20010904/DTD/svg10.dtd">
<svg version="1.0" xmlns="http://www.w3.org/2000/svg"
 width="96.000000pt" height="68.000000pt" viewBox="0 0 96.000000 68.000000"
 preserveAspectRatio="xMidYMid meet">
<metadata>
Created by potrace 1.16, written by Peter Selinger 2001-2019
</metadata>
<g transform="translate(0.000000,68.000000) scale(0.100000,-0.100000)"
fill="#000000" stroke="none">
<path d="M630 549 c-74 -10 -139 -18 -145 -19 -5 0 -4 -5 2 -11 7 -7 34 -11
62 -11 28 1 51 -1 51 -4 0 -2 -7 -21 -15 -41 -8 -20 -14 -38 -12 -40 5 -4 47
35 75 71 20 26 29 29 98 34 46 3 73 9 71 15 -7 22 -55 23 -187 6z"/>
</g>
</svg>
