<?xml version="1.0" standalone="no"?>
<!DOCTYPE svg PUBLIC "-//W3C//DTD SVG 20010904//EN"
 "http://www.w3.org/TR/2001/REC-SVG-20010904/DTD/svg10.dtd">
<svg version="1.0" xmlns="http://www.w3.org/2000/svg"
 width="96.000000pt" height="68.000000pt" viewBox="0 0 96.000000 68.000000"
 preserveAspectRatio="xMidYMid meet">
<metadata>
Created by potrace 1.16, written by Peter Selinger 2001-2019
</metadata>
<g transform="translate(0.000000,68.000000) scale(0.100000,-0.100000)"
fill="#000000" stroke="none">
<path d="M580 515 c-41 -8 -105 -14 -143 -14 l-67 -1 16 -25 c9 -13 20 -44 25
-67 24 -108 29 -119 49 -113 10 3 69 8 131 9 l112 4 38 98 c24 62 35 102 29
108 -15 15 -109 16 -190 1z m118 -54 c-2 -20 -6 -35 -10 -33 -5 1 -28 2 -52 2
-44 0 -44 0 -43 35 1 33 3 34 41 37 61 5 67 0 64 -41z m-164 -7 c9 -33 6 -35
-47 -41 -40 -5 -45 -3 -50 18 -12 45 -9 49 42 49 44 0 49 -2 55 -26z m150 -71
c-10 -42 -12 -43 -55 -43 -37 0 -39 2 -39 29 0 31 10 37 73 40 25 1 27 -1 21
-26z m-144 -23 c0 -28 -2 -30 -39 -30 -35 0 -39 3 -43 30 -4 29 -4 30 39 30
41 0 43 -1 43 -30z"/>
</g>
</svg>
