<?xml version="1.0" standalone="no"?>
<!DOCTYPE svg PUBLIC "-//W3C//DTD SVG 20010904//EN"
 "http://www.w3.org/TR/2001/REC-SVG-20010904/DTD/svg10.dtd">
<svg version="1.0" xmlns="http://www.w3.org/2000/svg"
 width="96.000000pt" height="68.000000pt" viewBox="0 0 96.000000 68.000000"
 preserveAspectRatio="xMidYMid meet">
<metadata>
Created by potrace 1.16, written by Peter Selinger 2001-2019
</metadata>
<g transform="translate(0.000000,68.000000) scale(0.100000,-0.100000)"
fill="#000000" stroke="none">
<path d="M261 433 c29 -38 59 -45 59 -14 0 20 -18 31 -52 31 -18 0 -19 -2 -7
-17z"/>
<path d="M190 392 c0 -17 49 -54 64 -49 24 9 19 32 -9 45 -30 14 -55 15 -55 4z"/>
<path d="M304 338 c-10 -11 -37 -33 -60 -47 -35 -23 -40 -30 -33 -49 5 -12 12
-22 17 -22 8 0 112 126 112 135 0 12 -19 3 -36 -17z"/>
</g>
</svg>
