<?xml version="1.0" standalone="no"?>
<!DOCTYPE svg PUBLIC "-//W3C//DTD SVG 20010904//EN"
 "http://www.w3.org/TR/2001/REC-SVG-20010904/DTD/svg10.dtd">
<svg version="1.0" xmlns="http://www.w3.org/2000/svg"
 width="96.000000pt" height="68.000000pt" viewBox="0 0 96.000000 68.000000"
 preserveAspectRatio="xMidYMid meet">
<metadata>
Created by potrace 1.16, written by Peter Selinger 2001-2019
</metadata>
<g transform="translate(0.000000,68.000000) scale(0.100000,-0.100000)"
fill="#000000" stroke="none">
<path d="M449 383 c0 -5 0 -60 0 -123 1 -63 -3 -121 -8 -129 -5 -8 -19 -12
-35 -9 -32 6 -33 -2 -1 -36 28 -31 36 -32 63 -8 18 15 21 32 24 159 4 115 2
143 -10 148 -19 7 -32 6 -33 -2z"/>
<path d="M275 279 c-4 -12 -29 -46 -57 -76 -27 -30 -47 -57 -45 -60 16 -15
167 96 167 123 0 8 -12 19 -26 24 -33 13 -32 13 -39 -11z"/>
<path d="M661 235 c39 -36 77 -64 83 -62 19 6 18 52 -2 70 -16 15 -122 57
-144 57 -4 0 24 -29 63 -65z"/>
</g>
</svg>
