<?xml version="1.0" standalone="no"?>
<!DOCTYPE svg PUBLIC "-//W3C//DTD SVG 20010904//EN"
 "http://www.w3.org/TR/2001/REC-SVG-20010904/DTD/svg10.dtd">
<svg version="1.0" xmlns="http://www.w3.org/2000/svg"
 width="96.000000pt" height="68.000000pt" viewBox="0 0 96.000000 68.000000"
 preserveAspectRatio="xMidYMid meet">
<metadata>
Created by potrace 1.16, written by Peter Selinger 2001-2019
</metadata>
<g transform="translate(0.000000,68.000000) scale(0.100000,-0.100000)"
fill="#000000" stroke="none">
<path d="M279 612 c-25 -3 -26 -5 -18 -40 5 -20 9 -56 9 -79 0 -46 -1 -47 -84
-59 -46 -6 -48 -8 -30 -21 13 -10 33 -12 67 -8 l47 7 0 -47 0 -46 -74 -35
c-41 -19 -79 -34 -85 -34 -17 0 -23 -20 -11 -35 19 -23 50 -17 110 20 54 33
55 34 58 12 1 -12 -1 -42 -6 -67 -8 -45 -8 -45 -47 -43 l-40 3 47 -46 c74 -75
98 -47 98 116 l0 98 35 21 c58 34 44 49 -22 24 -9 -4 -13 6 -13 30 0 32 3 35
35 41 58 11 61 37 3 40 -30 2 -33 4 -30 31 2 17 8 43 14 59 9 23 9 31 0 34 -7
2 -18 9 -25 15 -6 7 -24 11 -38 9z"/>
<path d="M530 594 c0 -4 9 -22 20 -40 l21 -33 -33 -6 c-18 -3 -50 -6 -70 -8
-36 -2 -55 -17 -23 -17 9 0 20 -12 26 -27 6 -16 17 -41 25 -57 21 -42 18 -46
-28 -46 -24 0 -50 -5 -58 -10 -11 -7 2 -10 44 -10 l58 0 -7 -37 c-9 -52 -11
-53 -59 -53 -59 0 -107 -10 -100 -22 3 -5 31 -8 63 -7 55 2 64 -3 53 -30 -6
-17 11 -27 62 -36 l41 -6 -24 -20 c-13 -10 -49 -26 -80 -35 -57 -16 -88 -34
-60 -34 32 0 134 32 166 51 l33 21 77 -42 c72 -39 103 -45 103 -20 0 26 -90
79 -133 80 -10 0 -17 3 -15 8 2 4 12 24 23 44 l19 38 82 0 c46 0 86 5 89 10
11 17 -47 32 -101 25 -39 -5 -54 -3 -64 9 -18 22 -50 20 -50 -2 0 -15 -8 -19
-40 -20 l-41 -2 7 35 c5 30 3 35 -12 35 -16 0 -17 2 -4 10 8 5 42 10 75 11 33
0 85 4 115 8 50 6 53 7 33 19 -15 8 -41 10 -78 6 -30 -4 -55 -4 -55 0 0 4 14
27 30 51 18 26 26 46 20 50 -18 11 -10 25 14 25 14 0 27 4 30 9 8 13 -28 20
-74 14 -35 -5 -40 -3 -40 15 0 11 -11 27 -25 36 -24 16 -55 21 -55 10z m95
-104 c4 -6 -1 -35 -10 -65 -14 -51 -18 -55 -45 -55 -26 0 -30 4 -30 26 0 15
-12 38 -30 56 -16 16 -30 31 -30 33 0 2 26 6 58 8 31 2 62 4 69 5 6 1 15 -3
18 -8z m-5 -269 c0 -11 -11 -28 -25 -39 -21 -17 -31 -18 -65 -10 -38 10 -39
11 -24 33 15 24 35 31 87 34 20 1 27 -4 27 -18z"/>
</g>
</svg>
