<?xml version="1.0" standalone="no"?>
<!DOCTYPE svg PUBLIC "-//W3C//DTD SVG 20010904//EN"
 "http://www.w3.org/TR/2001/REC-SVG-20010904/DTD/svg10.dtd">
<svg version="1.0" xmlns="http://www.w3.org/2000/svg"
 width="96.000000pt" height="68.000000pt" viewBox="0 0 96.000000 68.000000"
 preserveAspectRatio="xMidYMid meet">
<metadata>
Created by potrace 1.16, written by Peter Selinger 2001-2019
</metadata>
<g transform="translate(0.000000,68.000000) scale(0.100000,-0.100000)"
fill="#000000" stroke="none">
<path d="M572 524 c-90 -12 -166 -24 -169 -27 -2 -3 5 -8 16 -12 15 -4 22 -18
27 -52 9 -60 -1 -250 -15 -285 -21 -54 7 -76 66 -51 27 11 84 17 196 21 86 3
157 9 157 14 0 4 -11 14 -25 20 -20 9 -60 8 -176 -5 -83 -9 -156 -14 -161 -11
-10 7 -3 282 9 330 5 25 30 31 181 41 107 6 131 15 84 30 -18 6 -79 2 -190
-13z"/>
</g>
</svg>
