<?xml version="1.0" standalone="no"?>
<!DOCTYPE svg PUBLIC "-//W3C//DTD SVG 20010904//EN"
 "http://www.w3.org/TR/2001/REC-SVG-20010904/DTD/svg10.dtd">
<svg version="1.0" xmlns="http://www.w3.org/2000/svg"
 width="96.000000pt" height="68.000000pt" viewBox="0 0 96.000000 68.000000"
 preserveAspectRatio="xMidYMid meet">
<metadata>
Created by potrace 1.16, written by Peter Selinger 2001-2019
</metadata>
<g transform="translate(0.000000,68.000000) scale(0.100000,-0.100000)"
fill="#000000" stroke="none">
<path d="M404 613 c-18 -55 -31 -79 -64 -119 -41 -50 -133 -130 -199 -175 -51
-33 -37 -38 27 -9 60 27 146 96 225 180 38 39 70 70 72 68 2 -1 53 -51 113
-110 l109 -108 59 1 c32 0 68 4 79 8 22 9 14 13 -96 55 -54 21 -222 144 -262
192 -31 37 -55 44 -63 17z"/>
</g>
</svg>
