<?xml version="1.0" standalone="no"?>
<!DOCTYPE svg PUBLIC "-//W3C//DTD SVG 20010904//EN"
 "http://www.w3.org/TR/2001/REC-SVG-20010904/DTD/svg10.dtd">
<svg version="1.0" xmlns="http://www.w3.org/2000/svg"
 width="96.000000pt" height="68.000000pt" viewBox="0 0 96.000000 68.000000"
 preserveAspectRatio="xMidYMid meet">
<metadata>
Created by potrace 1.16, written by Peter Selinger 2001-2019
</metadata>
<g transform="translate(0.000000,68.000000) scale(0.100000,-0.100000)"
fill="#000000" stroke="none">
<path d="M387 580 c-22 -62 -98 -145 -206 -225 -61 -45 -76 -61 -62 -63 44 -7
210 111 291 207 24 28 47 51 52 51 5 0 59 -50 121 -111 l112 -111 60 5 c63 6
95 15 95 26 0 3 -30 17 -67 30 -83 28 -219 117 -289 188 -66 68 -84 68 -107 3z"/>
<path d="M455 389 c-16 -5 -51 -9 -77 -10 -61 -3 -51 -19 11 -19 93 0 171 12
171 26 0 16 -57 18 -105 3z"/>
<path d="M585 304 c-11 -1 -89 -8 -172 -15 -84 -7 -158 -16 -165 -20 -22 -14
2 -24 45 -21 23 2 62 5 87 5 l45 2 1 -103 c1 -106 12 -138 37 -114 7 8 14 54
17 120 l5 107 98 3 c95 3 116 11 78 32 -19 10 -34 11 -76 4z"/>
<path d="M270 155 c-17 -25 -41 -50 -53 -57 -14 -7 -17 -13 -9 -16 13 -4 74
30 106 60 11 10 23 18 28 18 17 0 7 17 -17 28 -23 10 -27 8 -55 -33z"/>
<path d="M591 163 c83 -90 102 -101 112 -64 6 23 -30 60 -82 85 -58 27 -69 20
-30 -21z"/>
</g>
</svg>
