<?xml version="1.0" standalone="no"?>
<!DOCTYPE svg PUBLIC "-//W3C//DTD SVG 20010904//EN"
 "http://www.w3.org/TR/2001/REC-SVG-20010904/DTD/svg10.dtd">
<svg version="1.0" xmlns="http://www.w3.org/2000/svg"
 width="96.000000pt" height="68.000000pt" viewBox="0 0 96.000000 68.000000"
 preserveAspectRatio="xMidYMid meet">
<metadata>
Created by potrace 1.16, written by Peter Selinger 2001-2019
</metadata>
<g transform="translate(0.000000,68.000000) scale(0.100000,-0.100000)"
fill="#000000" stroke="none">
<path d="M450 554 c-19 -7 -49 -13 -67 -13 -17 -1 -35 -6 -39 -13 -5 -8 10 -9
59 -4 65 6 67 6 67 -16 -1 -64 -32 -88 -117 -88 -32 0 -43 -12 -23 -25 15 -9
12 -51 -5 -65 -17 -14 -20 -36 -5 -45 5 -3 37 0 70 7 78 16 84 10 71 -72 -13
-82 -33 -104 -86 -95 l-40 6 30 -31 c64 -67 115 -21 134 120 7 50 11 94 8 97
-9 8 -47 8 -101 -1 l-48 -8 7 44 c4 24 9 45 11 47 2 2 29 6 59 9 46 4 55 8 55
23 0 11 11 37 25 59 14 22 25 44 25 50 0 8 -46 33 -53 29 -1 -1 -18 -7 -37
-15z"/>
<path d="M180 549 c0 -18 69 -79 90 -79 19 0 32 30 21 48 -13 22 -111 49 -111
31z"/>
<path d="M667 503 c-4 -3 -7 -15 -7 -27 0 -26 -59 -186 -77 -207 -7 -8 -13
-20 -13 -25 0 -6 -9 -20 -19 -31 -12 -13 -18 -29 -14 -42 6 -25 39 -27 100 -6
23 8 61 18 84 21 37 6 43 4 63 -21 25 -32 46 -27 46 10 0 29 -39 76 -85 104
-26 15 -35 17 -35 7 0 -8 6 -19 14 -25 8 -6 16 -20 19 -31 4 -16 -3 -21 -45
-29 -52 -12 -98 -14 -98 -6 0 3 16 40 36 82 20 43 47 101 60 130 29 63 30 79
5 93 -23 12 -26 12 -34 3z"/>
<path d="M110 423 c0 -19 78 -85 96 -81 29 5 29 44 1 63 -29 19 -97 32 -97 18z"/>
<path d="M231 285 c-18 -27 -51 -66 -73 -86 -34 -30 -40 -41 -34 -62 7 -31 36
-62 46 -50 4 4 28 54 54 110 55 119 59 166 7 88z"/>
</g>
</svg>
