<?xml version="1.0" standalone="no"?>
<!DOCTYPE svg PUBLIC "-//W3C//DTD SVG 20010904//EN"
 "http://www.w3.org/TR/2001/REC-SVG-20010904/DTD/svg10.dtd">
<svg version="1.0" xmlns="http://www.w3.org/2000/svg"
 width="96.000000pt" height="68.000000pt" viewBox="0 0 96.000000 68.000000"
 preserveAspectRatio="xMidYMid meet">
<metadata>
Created by potrace 1.16, written by Peter Selinger 2001-2019
</metadata>
<g transform="translate(0.000000,68.000000) scale(0.100000,-0.100000)"
fill="#000000" stroke="none">
<path d="M495 247 c0 -138 4 -148 63 -169 54 -18 208 -16 254 4 l37 17 -18 50
c-10 28 -20 53 -23 56 -3 3 -10 -13 -17 -35 -16 -53 -40 -64 -137 -65 -96 0
-124 16 -124 71 0 31 5 35 103 87 103 54 120 73 80 88 -17 6 -26 2 -47 -25
-25 -33 -123 -103 -132 -94 -2 3 1 29 8 58 11 48 10 54 -7 66 -37 27 -40 18
-40 -109z"/>
</g>
</svg>
