<?xml version="1.0" standalone="no"?>
<!DOCTYPE svg PUBLIC "-//W3C//DTD SVG 20010904//EN"
 "http://www.w3.org/TR/2001/REC-SVG-20010904/DTD/svg10.dtd">
<svg version="1.0" xmlns="http://www.w3.org/2000/svg"
 width="96.000000pt" height="68.000000pt" viewBox="0 0 96.000000 68.000000"
 preserveAspectRatio="xMidYMid meet">
<metadata>
Created by potrace 1.16, written by Peter Selinger 2001-2019
</metadata>
<g transform="translate(0.000000,68.000000) scale(0.100000,-0.100000)"
fill="#000000" stroke="none">
<path d="M595 459 c-82 -10 -168 -15 -189 -12 -36 6 -39 4 -32 -13 16 -39 25
-81 36 -182 7 -56 15 -104 19 -106 3 -2 62 3 131 10 132 14 150 13 150 -9 0
-20 25 -38 42 -32 32 12 57 80 68 181 6 54 13 113 16 130 5 25 2 32 -21 42
-31 14 -28 14 -220 -9z m173 -69 l3 -55 -79 -2 -78 -2 1 52 c0 29 5 55 10 60
6 4 39 6 75 5 l65 -3 3 -55z m-208 -20 l0 -48 -57 -4 c-32 -2 -59 -3 -61 -2
-1 1 -5 24 -9 52 -6 56 -5 57 72 65 43 4 55 -9 55 -63z m205 -102 c-12 -77 -8
-74 -85 -74 l-71 1 3 50 3 50 45 6 c25 3 60 7 78 7 l34 2 -7 -42z m-200 -24
c8 -56 0 -64 -67 -64 -47 0 -48 0 -48 33 0 17 -3 42 -6 55 -6 21 -4 22 54 22
l60 0 7 -46z"/>
</g>
</svg>
