<?xml version="1.0" standalone="no"?>
<!DOCTYPE svg PUBLIC "-//W3C//DTD SVG 20010904//EN"
 "http://www.w3.org/TR/2001/REC-SVG-20010904/DTD/svg10.dtd">
<svg version="1.0" xmlns="http://www.w3.org/2000/svg"
 width="90.000000pt" height="92.000000pt" viewBox="0 0 90.000000 92.000000"
 preserveAspectRatio="xMidYMid meet">
<metadata>
Created by potrace 1.16, written by Peter Selinger 2001-2019
</metadata>
<g transform="translate(0.000000,92.000000) scale(0.100000,-0.100000)"
fill="#000000" stroke="none">
<path d="M165 851 c-3 -6 -1 -29 5 -53 6 -24 10 -79 8 -123 l-3 -80 -73 -14
c-95 -18 -91 -37 7 -35 l72 2 -3 -67 -3 -66 -87 -43 c-94 -46 -109 -67 -64
-91 22 -12 29 -9 88 40 l63 52 3 -39 c1 -21 -1 -66 -5 -99 l-8 -60 -43 0 c-23
0 -42 -1 -42 -2 0 -2 24 -28 54 -59 l53 -56 22 44 c19 40 20 54 14 172 l-6
127 36 30 c44 37 48 55 7 34 -16 -8 -32 -15 -35 -15 -3 0 -5 23 -3 51 3 54 6
57 66 79 17 7 32 16 32 20 0 13 -48 29 -69 23 -19 -5 -21 -1 -21 48 1 30 7 71
15 93 17 48 13 59 -31 79 -41 20 -41 20 -49 8z"/>
<path d="M510 818 c-25 -22 -67 -53 -95 -69 -44 -25 -47 -29 -24 -29 15 0 42
7 62 15 19 8 37 11 41 8 3 -4 6 -39 6 -80 0 -60 -3 -73 -16 -73 -9 0 -57 -7
-107 -17 -80 -14 -88 -18 -72 -30 24 -17 56 -16 123 1 28 8 52 10 52 5 0 -18
-71 -87 -144 -139 -42 -30 -74 -55 -72 -57 6 -6 88 27 125 49 20 13 52 37 72
55 l36 33 -1 -55 c-1 -52 15 -88 31 -71 5 4 10 43 13 87 l5 79 68 -43 c37 -23
91 -57 120 -74 61 -39 67 -40 67 -9 0 44 -81 92 -217 129 -62 16 -54 34 20 41
172 18 183 22 129 50 -25 13 -38 13 -111 -4 l-83 -18 6 69 c7 66 6 70 -16 78
l-23 9 28 11 c15 6 39 14 53 17 37 9 40 25 10 51 -15 12 -30 23 -34 23 -4 -1
-27 -19 -52 -42z"/>
<path d="M613 693 l-43 -63 70 35 c39 19 70 39 70 44 0 8 -27 34 -45 43 -5 3
-29 -24 -52 -59z"/>
<path d="M340 682 c0 -14 61 -82 75 -82 18 0 24 20 14 46 -9 26 -89 58 -89 36z"/>
<path d="M550 359 c-64 -11 -137 -16 -164 -13 -44 5 -48 3 -41 -13 16 -40 23
-72 30 -148 8 -91 22 -129 36 -102 6 10 29 18 67 22 31 3 76 8 100 11 41 5 43
4 58 -31 17 -42 37 -43 65 -5 13 17 22 56 29 120 5 52 13 105 16 116 4 17 -2
26 -29 43 -19 11 -38 20 -43 20 -5 -1 -61 -10 -124 -20z m122 -61 l3 -33 -63
-1 c-59 -1 -63 0 -58 20 3 11 0 26 -6 33 -8 10 2 13 55 13 l65 0 4 -32z m-171
-15 c7 -34 -6 -43 -63 -43 -25 0 -28 4 -28 34 0 30 4 35 28 39 47 7 56 3 63
-30z m169 -86 l0 -43 -60 0 -60 1 0 32 c0 30 2 32 48 38 26 4 52 8 57 10 6 2
11 4 13 4 1 1 2 -18 2 -42z m-160 -16 c0 -31 -14 -41 -61 -41 -22 0 -29 5 -29
19 0 11 -3 26 -6 35 -5 13 2 16 45 16 50 0 51 -1 51 -29z"/>
</g>
</svg>
