<?xml version="1.0" standalone="no"?>
<!DOCTYPE svg PUBLIC "-//W3C//DTD SVG 20010904//EN"
 "http://www.w3.org/TR/2001/REC-SVG-20010904/DTD/svg10.dtd">
<svg version="1.0" xmlns="http://www.w3.org/2000/svg"
 width="90.000000pt" height="92.000000pt" viewBox="0 0 90.000000 92.000000"
 preserveAspectRatio="xMidYMid meet">
<metadata>
Created by potrace 1.16, written by Peter Selinger 2001-2019
</metadata>
<g transform="translate(0.000000,92.000000) scale(0.100000,-0.100000)"
fill="#000000" stroke="none">
<path d="M655 834 c-22 -9 -66 -16 -98 -16 -50 0 -57 -2 -51 -16 4 -10 10 -67
13 -129 3 -61 9 -115 13 -119 6 -6 81 5 156 23 l23 5 -3 -215 c-2 -139 -7
-220 -14 -227 -7 -7 -24 -8 -52 -1 -23 5 -41 6 -41 2 1 -3 27 -30 59 -59 l58
-54 17 26 c30 46 34 97 28 377 -5 203 -3 289 6 325 12 47 12 49 -14 71 -30 26
-45 27 -100 7z m49 -50 c3 -9 6 -28 6 -42 0 -25 -3 -27 -42 -27 -24 0 -58 -4
-75 -8 l-33 -9 0 41 c0 36 3 41 28 47 15 3 32 7 37 9 29 10 73 4 79 -11z m6
-127 c0 -31 -2 -33 -52 -45 -29 -7 -63 -15 -75 -18 -21 -6 -23 -3 -23 33 l0
40 53 10 c92 18 97 17 97 -20z"/>
<path d="M250 788 c-39 -10 -81 -15 -104 -11 l-39 5 9 -28 c5 -16 9 -117 9
-224 0 -154 -4 -211 -19 -271 -17 -72 -17 -78 -1 -113 9 -20 21 -36 26 -36 17
0 29 80 35 237 l7 162 61 14 c40 9 65 10 74 4 8 -6 16 -7 22 -1 8 9 54 244 48
249 -2 1 -16 9 -33 17 -26 12 -38 12 -95 -4z m65 -27 c3 -6 3 -28 -1 -50 -6
-37 -8 -39 -30 -31 -16 6 -34 5 -58 -5 -20 -8 -38 -15 -41 -15 -3 0 -5 20 -5
45 0 43 1 44 38 50 20 4 42 8 47 10 20 7 44 5 50 -4z m-5 -136 c0 -33 -4 -37
-46 -55 -25 -11 -57 -23 -70 -26 -23 -6 -24 -4 -20 37 l4 44 63 16 c35 10 65
18 67 18 1 1 2 -15 2 -34z"/>
<path d="M396 473 c-49 -7 -92 -16 -95 -18 -9 -9 8 -17 51 -22 46 -6 58 -16
58 -49 0 -18 -8 -22 -51 -27 -29 -4 -54 -9 -57 -12 -12 -12 13 -20 59 -19 l49
0 0 -37 0 -37 -77 -7 c-99 -9 -113 -16 -79 -39 22 -14 33 -15 64 -6 20 6 93
13 162 16 154 7 163 9 131 35 -21 17 -33 19 -93 13 l-69 -7 3 39 c3 38 4 39
50 44 26 3 50 9 53 12 12 11 -37 30 -66 26 -27 -4 -29 -2 -29 29 0 27 4 34 25
38 14 3 37 7 51 10 21 5 24 8 14 20 -14 17 -34 17 -154 -2z"/>
</g>
</svg>
