<?xml version="1.0" standalone="no"?>
<!DOCTYPE svg PUBLIC "-//W3C//DTD SVG 20010904//EN"
 "http://www.w3.org/TR/2001/REC-SVG-20010904/DTD/svg10.dtd">
<svg version="1.0" xmlns="http://www.w3.org/2000/svg"
 width="96.000000pt" height="68.000000pt" viewBox="0 0 96.000000 68.000000"
 preserveAspectRatio="xMidYMid meet">
<metadata>
Created by potrace 1.16, written by Peter Selinger 2001-2019
</metadata>
<g transform="translate(0.000000,68.000000) scale(0.100000,-0.100000)"
fill="#000000" stroke="none">
<path d="M247 514 c7 -85 2 -94 -54 -94 -17 0 -38 -3 -47 -6 -30 -12 -5 -24
49 -24 57 0 66 -9 57 -57 -4 -23 -63 -66 -88 -66 -8 0 -14 -4 -14 -8 0 -4 -16
-13 -35 -20 -40 -15 -41 -24 -3 -46 25 -16 27 -15 79 26 l54 43 3 -43 c2 -24
1 -59 -3 -77 -6 -33 -8 -34 -42 -27 l-36 6 39 -45 c44 -51 56 -55 78 -24 12
17 16 49 16 133 0 111 0 111 30 140 17 16 30 33 30 37 0 5 -13 2 -30 -7 l-30
-16 0 31 c0 27 4 30 40 36 23 4 40 12 40 20 0 16 -34 27 -61 19 -19 -6 -20 -4
-13 32 3 21 10 42 15 48 16 17 9 34 -21 50 -56 29 -60 24 -53 -61z"/>
<path d="M520 569 c0 -38 -61 -139 -116 -194 -31 -30 -51 -55 -46 -55 6 0 15
7 20 16 5 9 12 15 15 15 17 -2 24 1 52 27 24 22 60 64 112 131 2 3 43 -34 91
-82 91 -91 100 -95 172 -81 32 7 32 7 -39 40 -109 52 -207 127 -213 164 -1 13
-13 27 -25 31 -19 7 -23 5 -23 -12z"/>
<path d="M523 391 c-61 -10 -65 -21 -7 -21 64 0 124 10 124 21 0 10 -55 10
-117 0z"/>
<path d="M631 318 c-19 -5 -43 -7 -53 -4 -15 3 -18 1 -13 -12 4 -9 9 -31 12
-49 4 -26 11 -32 34 -35 l28 -3 -20 -45 c-11 -25 -32 -57 -46 -72 -42 -44 -21
-42 28 2 24 22 46 40 49 40 3 0 26 -20 50 -45 52 -53 76 -59 65 -18 -4 16 -7
28 -8 29 -1 0 -22 12 -47 25 -25 13 -47 25 -49 26 -2 2 3 11 13 21 9 11 14 26
10 36 -4 12 -1 16 15 16 15 0 21 6 21 23 0 12 7 31 15 41 12 16 12 22 2 28
-16 10 -63 9 -106 -4z m47 -44 c-4 -24 -57 -41 -69 -23 -18 29 -10 48 24 51
38 4 50 -3 45 -28z"/>
<path d="M422 303 c-46 -4 -53 -7 -47 -21 4 -9 11 -32 17 -50 7 -26 14 -32 31
-30 38 5 22 -41 -34 -95 -28 -27 -49 -50 -47 -52 2 -2 27 14 55 36 55 41 77
48 90 25 4 -7 18 -17 31 -20 34 -11 28 21 -8 42 -30 17 -39 32 -20 32 6 0 10
7 10 15 0 8 -6 15 -12 15 -9 0 -8 3 2 9 8 6 17 8 21 5 6 -3 12 17 21 71 3 22
-13 25 -110 18z m66 -40 c-5 -46 -78 -53 -78 -8 0 23 13 30 63 34 14 1 18 -5
15 -26z"/>
</g>
</svg>
