<?xml version="1.0" standalone="no"?>
<!DOCTYPE svg PUBLIC "-//W3C//DTD SVG 20010904//EN"
 "http://www.w3.org/TR/2001/REC-SVG-20010904/DTD/svg10.dtd">
<svg version="1.0" xmlns="http://www.w3.org/2000/svg"
 width="96.000000pt" height="68.000000pt" viewBox="0 0 96.000000 68.000000"
 preserveAspectRatio="xMidYMid meet">
<metadata>
Created by potrace 1.16, written by Peter Selinger 2001-2019
</metadata>
<g transform="translate(0.000000,68.000000) scale(0.100000,-0.100000)"
fill="#000000" stroke="none">
<path d="M440 479 c-107 -10 -212 -16 -232 -13 -44 7 -45 3 -17 -35 14 -19 27
-66 41 -152 22 -131 32 -157 54 -138 7 6 68 15 136 19 190 14 193 14 207 -16
6 -15 18 -24 28 -22 34 7 54 54 74 174 10 65 24 127 29 136 15 26 13 32 -19
51 -34 20 -48 20 -301 -4z m238 -71 l3 -58 -49 0 c-27 0 -70 -3 -95 -6 l-45
-6 -4 60 -3 61 55 4 c30 2 73 3 95 3 l40 -1 3 -57z m-250 -19 l3 -56 -53 -6
c-96 -12 -105 -10 -117 24 -6 18 -11 45 -11 60 0 25 4 28 38 32 20 2 60 4 87
3 l50 -1 3 -56z m252 -71 c-1 -2 -7 -28 -14 -58 l-12 -55 -82 -3 -82 -3 0 55
0 55 58 4 c99 6 132 7 132 5z m-246 -40 c3 -13 6 -37 6 -54 l0 -31 -71 -7
c-39 -4 -72 -6 -74 -4 -7 7 -22 108 -17 113 3 3 38 5 78 5 66 0 72 -2 78 -22z"/>
</g>
</svg>
