<?xml version="1.0" standalone="no"?>
<!DOCTYPE svg PUBLIC "-//W3C//DTD SVG 20010904//EN"
 "http://www.w3.org/TR/2001/REC-SVG-20010904/DTD/svg10.dtd">
<svg version="1.0" xmlns="http://www.w3.org/2000/svg"
 width="96.000000pt" height="68.000000pt" viewBox="0 0 96.000000 68.000000"
 preserveAspectRatio="xMidYMid meet">
<metadata>
Created by potrace 1.16, written by Peter Selinger 2001-2019
</metadata>
<g transform="translate(0.000000,68.000000) scale(0.100000,-0.100000)"
fill="#000000" stroke="none">
<path d="M406 611 c-4 -6 -2 -19 4 -30 5 -11 10 -49 10 -84 l0 -64 -37 -7
c-60 -9 -163 -7 -163 4 0 23 -18 7 -38 -35 -41 -86 -15 -122 29 -40 23 44 25
45 74 45 27 0 79 5 115 10 36 5 113 12 173 16 92 6 107 5 107 -8 0 -9 -7 -21
-15 -28 -28 -23 -5 -28 57 -12 35 8 65 17 67 18 8 7 -31 42 -60 54 -23 10 -49
10 -122 1 -51 -7 -100 -15 -109 -17 -16 -5 -18 4 -18 85 0 66 -3 91 -12 91 -7
0 -23 3 -34 6 -12 3 -25 1 -28 -5z"/>
<path d="M577 558 c-8 -13 -26 -36 -41 -53 -14 -16 -21 -31 -16 -33 5 -2 42
11 81 29 l71 33 -26 23 c-34 29 -50 29 -69 1z"/>
<path d="M296 495 c17 -23 35 -35 50 -35 41 0 28 42 -19 59 -52 20 -60 14 -31
-24z"/>
<path d="M445 369 c-22 -4 -59 -8 -82 -8 -24 -1 -43 -5 -43 -11 0 -5 4 -10 9
-10 5 0 12 -12 16 -27 11 -44 21 -51 73 -46 103 9 132 15 126 24 -3 6 4 21 16
34 44 47 -8 67 -115 44z m67 -39 c-3 -33 -5 -33 -72 -38 -62 -5 -60 -6 -64 41
-1 8 20 14 59 18 77 7 81 6 77 -21z"/>
<path d="M475 230 c-33 -4 -97 -8 -143 -9 l-83 -1 20 -27 c10 -16 25 -59 32
-96 12 -62 15 -68 33 -62 12 4 67 9 123 12 95 5 102 4 112 -16 26 -48 59 -11
80 87 6 30 16 62 21 72 8 15 5 22 -12 34 -24 17 -78 19 -183 6z m120 -18 c6
-4 10 -18 10 -32 0 -23 -4 -25 -62 -28 l-63 -3 0 30 c0 20 6 31 18 34 28 8 86
7 97 -1z m-165 -42 c0 -30 -1 -30 -54 -30 -47 0 -54 3 -59 22 -8 29 7 38 66
38 46 0 47 -1 47 -30z m170 -42 c-1 -46 -10 -53 -65 -50 -50 4 -55 6 -55 27 0
21 6 24 43 28 23 2 50 4 60 5 9 1 17 -4 17 -10z m-160 -34 c0 -24 -2 -25 -52
-22 -46 3 -53 6 -56 26 -3 21 0 22 52 22 53 0 56 -1 56 -26z"/>
</g>
</svg>
