<?xml version="1.0" standalone="no"?>
<!DOCTYPE svg PUBLIC "-//W3C//DTD SVG 20010904//EN"
 "http://www.w3.org/TR/2001/REC-SVG-20010904/DTD/svg10.dtd">
<svg version="1.0" xmlns="http://www.w3.org/2000/svg"
 width="96.000000pt" height="68.000000pt" viewBox="0 0 96.000000 68.000000"
 preserveAspectRatio="xMidYMid meet">
<metadata>
Created by potrace 1.16, written by Peter Selinger 2001-2019
</metadata>
<g transform="translate(0.000000,68.000000) scale(0.100000,-0.100000)"
fill="#000000" stroke="none">
<path d="M560 611 c5 -11 10 -38 10 -60 l0 -40 -55 -6 c-64 -8 -74 -25 -15
-25 22 0 40 -4 40 -10 0 -5 -25 -34 -55 -65 -31 -30 -51 -55 -45 -55 15 0 59
28 94 59 l28 26 -7 -42 c-8 -48 0 -83 20 -83 18 0 25 23 25 81 0 46 11 62 26
38 3 -6 31 -26 61 -46 40 -25 58 -32 66 -24 17 17 -28 57 -94 81 -65 25 -76
45 -29 54 17 3 44 9 60 12 17 3 30 10 30 16 0 7 -21 9 -60 5 l-61 -5 7 45 c7
48 -2 63 -39 63 -14 0 -16 -4 -7 -19z"/>
</g>
</svg>
