<?xml version="1.0" standalone="no"?>
<!DOCTYPE svg PUBLIC "-//W3C//DTD SVG 20010904//EN"
 "http://www.w3.org/TR/2001/REC-SVG-20010904/DTD/svg10.dtd">
<svg version="1.0" xmlns="http://www.w3.org/2000/svg"
 width="96.000000pt" height="68.000000pt" viewBox="0 0 96.000000 68.000000"
 preserveAspectRatio="xMidYMid meet">
<metadata>
Created by potrace 1.16, written by Peter Selinger 2001-2019
</metadata>
<g transform="translate(0.000000,68.000000) scale(0.100000,-0.100000)"
fill="#000000" stroke="none">
<path d="M261 558 c5 -18 9 -56 9 -84 l0 -52 -75 -7 c-97 -9 -107 -25 -16 -25
39 0 71 -2 71 -5 0 -20 -47 -90 -100 -148 -62 -67 -65 -86 -7 -45 33 23 49 39
98 98 34 41 34 39 18 -93 -12 -95 -7 -137 15 -137 23 0 28 29 26 153 0 64 3
117 7 117 4 0 19 -12 32 -25 25 -27 36 -31 46 -14 9 14 -21 46 -51 53 -19 5
-24 13 -24 36 0 25 4 30 24 30 37 0 78 18 70 31 -4 7 -23 9 -50 5 -49 -6 -47
-9 -35 67 7 42 6 50 -13 62 -11 8 -28 15 -38 15 -14 0 -15 -5 -7 -32z"/>
</g>
</svg>
