<?xml version="1.0" standalone="no"?>
<!DOCTYPE svg PUBLIC "-//W3C//DTD SVG 20010904//EN"
 "http://www.w3.org/TR/2001/REC-SVG-20010904/DTD/svg10.dtd">
<svg version="1.0" xmlns="http://www.w3.org/2000/svg"
 width="90.000000pt" height="92.000000pt" viewBox="0 0 90.000000 92.000000"
 preserveAspectRatio="xMidYMid meet">
<metadata>
Created by potrace 1.16, written by Peter Selinger 2001-2019
</metadata>
<g transform="translate(0.000000,92.000000) scale(0.100000,-0.100000)"
fill="#000000" stroke="none">
<path d="M226 828 c10 -33 35 -82 46 -89 4 -3 -43 -14 -107 -24 -63 -10 -115
-23 -115 -27 0 -5 11 -13 24 -19 17 -8 42 -7 98 4 41 9 123 21 183 27 61 7
112 14 115 17 3 3 -6 14 -20 25 -25 20 -61 21 -128 2 -18 -5 -21 -3 -16 10 12
30 -5 63 -40 80 -44 21 -49 20 -40 -6z"/>
<path d="M645 764 c-40 -15 -72 -22 -95 -18 l-35 5 2 -323 c3 -326 7 -398 23
-382 19 19 30 149 31 364 0 124 3 243 7 265 7 38 9 40 64 54 32 8 61 12 64 8
4 -4 -4 -42 -19 -84 -22 -69 -24 -80 -11 -98 51 -72 63 -94 66 -125 l3 -35
-59 1 -60 2 30 -22 c16 -11 46 -36 67 -55 l38 -34 22 22 c51 51 12 203 -63
248 -17 9 -30 21 -30 26 0 12 75 120 94 136 24 20 19 46 -9 59 -35 16 -60 14
-130 -14z"/>
<path d="M285 640 c-38 -10 -89 -19 -112 -19 -24 -1 -43 -5 -43 -11 0 -5 4
-10 8 -10 5 0 16 -25 26 -56 14 -44 21 -54 34 -49 17 6 143 24 176 25 11 0 16
5 13 14 -3 7 6 31 20 51 l26 38 -23 19 c-26 21 -34 21 -125 -2z m75 -29 c0 -5
-4 -21 -9 -34 -8 -21 -19 -26 -67 -32 -31 -4 -63 -9 -69 -12 -8 -2 -14 8 -17
26 -4 29 -2 32 31 40 78 21 131 25 131 12z"/>
<path d="M275 460 c-33 -10 -76 -19 -95 -20 -19 -1 -44 -5 -55 -9 -19 -8 -18
-9 7 -21 22 -10 40 -9 112 10 48 13 89 20 93 17 3 -4 -6 -22 -21 -42 -22 -28
-32 -34 -51 -29 -23 6 -24 5 -12 -25 7 -20 8 -34 2 -40 -6 -5 -56 -18 -113
-29 -57 -11 -106 -23 -110 -27 -9 -9 39 -44 59 -45 9 0 47 11 83 25 37 14 71
25 76 25 12 0 13 -70 1 -89 -6 -10 -19 -12 -41 -8 l-31 7 37 -45 c59 -73 74
-60 83 74 l6 83 70 25 c113 40 110 59 -5 28 -30 -8 -56 -15 -56 -15 -1 0 -4 9
-7 20 -4 16 7 27 59 56 35 20 64 41 64 48 0 15 -53 46 -77 45 -10 -1 -45 -9
-78 -19z"/>
</g>
</svg>
