<?xml version="1.0" standalone="no"?>
<!DOCTYPE svg PUBLIC "-//W3C//DTD SVG 20010904//EN"
 "http://www.w3.org/TR/2001/REC-SVG-20010904/DTD/svg10.dtd">
<svg version="1.0" xmlns="http://www.w3.org/2000/svg"
 width="96.000000pt" height="68.000000pt" viewBox="0 0 96.000000 68.000000"
 preserveAspectRatio="xMidYMid meet">
<metadata>
Created by potrace 1.16, written by Peter Selinger 2001-2019
</metadata>
<g transform="translate(0.000000,68.000000) scale(0.100000,-0.100000)"
fill="#000000" stroke="none">
<path d="M336 237 c5 -23 2 -25 -100 -42 -103 -18 -118 -27 -70 -45 17 -7 42
-4 86 10 80 25 88 25 88 -2 0 -38 -15 -51 -46 -44 l-29 7 37 -38 c47 -47 61
-37 68 50 l5 62 73 24 c40 12 72 24 70 26 -3 4 -92 -12 -120 -21 -13 -4 -18 0
-18 15 0 16 -6 21 -25 21 -22 0 -25 -3 -19 -23z"/>
</g>
</svg>
