<?xml version="1.0" standalone="no"?>
<!DOCTYPE svg PUBLIC "-//W3C//DTD SVG 20010904//EN"
 "http://www.w3.org/TR/2001/REC-SVG-20010904/DTD/svg10.dtd">
<svg version="1.0" xmlns="http://www.w3.org/2000/svg"
 width="96.000000pt" height="68.000000pt" viewBox="0 0 96.000000 68.000000"
 preserveAspectRatio="xMidYMid meet">
<metadata>
Created by potrace 1.16, written by Peter Selinger 2001-2019
</metadata>
<g transform="translate(0.000000,68.000000) scale(0.100000,-0.100000)"
fill="#000000" stroke="none">
<path d="M273 597 c-6 -14 -24 -34 -40 -45 -28 -20 -33 -22 -55 -22 -10 0 -10
-2 -1 -8 6 -4 16 -36 22 -70 5 -34 12 -66 15 -71 3 -5 27 -4 53 1 27 5 63 8
80 6 40 -3 46 3 68 76 17 58 17 60 -1 73 -18 14 -75 13 -144 -3 -15 -3 -7 5
23 22 52 30 59 57 16 62 -19 2 -28 -3 -36 -21z m97 -81 c0 -14 -49 -26 -112
-26 -41 0 -52 17 -15 24 78 17 127 18 127 2z m0 -51 c0 -15 -5 -15 -122 -19
-39 -2 -31 22 9 27 89 9 113 7 113 -8z m0 -40 c0 -9 -9 -15 -24 -15 -13 0 -44
-3 -70 -6 -39 -6 -46 -4 -46 10 0 10 3 15 8 13 4 -3 27 -1 52 3 70 12 80 11
80 -5z"/>
<path d="M670 468 c-25 -4 -71 -10 -102 -13 -71 -8 -76 -25 -8 -25 l50 0 0
-58 0 -59 -52 -2 c-65 -2 -86 -5 -93 -13 -13 -12 39 -20 91 -13 l54 6 0 -88
c0 -103 10 -193 20 -193 14 0 20 43 27 168 l6 122 88 0 c84 0 114 9 87 26 -7
5 -50 7 -95 6 l-82 -2 2 54 2 54 48 6 c26 4 47 11 47 15 0 13 -40 17 -90 9z"/>
<path d="M325 360 c-22 -5 -73 -9 -112 -9 -42 -1 -73 -5 -73 -11 0 -5 4 -10 9
-10 5 0 17 -27 27 -60 14 -47 21 -59 33 -54 9 3 59 8 111 10 63 2 97 8 102 16
29 51 47 103 39 111 -13 13 -89 17 -136 7z m79 -18 c9 -15 -9 -29 -46 -36 -33
-6 -38 -4 -38 12 0 10 3 22 7 25 9 10 71 9 77 -1z m-124 -21 c0 -13 -8 -21
-22 -23 -36 -5 -68 3 -68 17 0 17 16 23 58 24 25 1 32 -3 32 -18z m118 -48
c-2 -13 -14 -19 -41 -21 -32 -3 -37 0 -37 17 0 18 6 21 41 21 33 0 40 -3 37
-17z m-112 -10 c-3 -22 -65 -31 -77 -12 -12 21 -1 29 41 29 31 0 38 -3 36 -17z"/>
<path d="M335 189 c-33 -4 -100 -11 -149 -14 -62 -5 -85 -10 -77 -18 5 -5 29
-11 53 -11 39 -1 43 -4 46 -28 3 -29 -22 -88 -38 -88 -6 0 -10 -4 -10 -10 0
-40 75 35 91 92 7 24 13 44 13 45 1 0 22 4 49 8 l47 7 0 -73 c0 -131 37 -137
41 -7 l3 77 38 6 c21 4 38 11 38 16 0 10 -50 9 -145 -2z"/>
</g>
</svg>
