<?xml version="1.0" standalone="no"?>
<!DOCTYPE svg PUBLIC "-//W3C//DTD SVG 20010904//EN"
 "http://www.w3.org/TR/2001/REC-SVG-20010904/DTD/svg10.dtd">
<svg version="1.0" xmlns="http://www.w3.org/2000/svg"
 width="96.000000pt" height="68.000000pt" viewBox="0 0 96.000000 68.000000"
 preserveAspectRatio="xMidYMid meet">
<metadata>
Created by potrace 1.16, written by Peter Selinger 2001-2019
</metadata>
<g transform="translate(0.000000,68.000000) scale(0.100000,-0.100000)"
fill="#000000" stroke="none">
<path d="M332 559 c25 -45 43 -58 60 -41 16 16 -1 51 -32 67 -46 24 -53 18
-28 -26z"/>
<path d="M365 499 c-75 -14 -115 -17 -126 -10 -14 8 -21 1 -42 -39 -26 -50
-26 -60 4 -60 11 0 22 13 30 35 11 29 18 35 44 35 16 0 71 7 120 14 50 8 92
12 94 10 2 -2 -1 -15 -7 -29 -6 -14 -11 -25 -9 -25 14 0 102 40 105 48 4 12
-59 42 -85 41 -10 -1 -67 -10 -128 -20z"/>
</g>
</svg>
