<?xml version="1.0" standalone="no"?>
<!DOCTYPE svg PUBLIC "-//W3C//DTD SVG 20010904//EN"
 "http://www.w3.org/TR/2001/REC-SVG-20010904/DTD/svg10.dtd">
<svg version="1.0" xmlns="http://www.w3.org/2000/svg"
 width="96.000000pt" height="68.000000pt" viewBox="0 0 96.000000 68.000000"
 preserveAspectRatio="xMidYMid meet">
<metadata>
Created by potrace 1.16, written by Peter Selinger 2001-2019
</metadata>
<g transform="translate(0.000000,68.000000) scale(0.100000,-0.100000)"
fill="#000000" stroke="none">
<path d="M280 366 c0 -10 -27 -17 -95 -27 -52 -7 -95 -16 -95 -20 0 -17 45
-20 111 -8 38 7 71 10 74 8 2 -3 0 -47 -6 -97 -14 -128 -10 -177 16 -177 19 0
20 8 23 141 3 159 0 154 85 154 27 0 37 4 34 13 -3 8 -22 12 -56 11 -28 -1
-51 2 -51 7 0 5 -9 9 -20 9 -11 0 -20 -6 -20 -14z"/>
<path d="M211 257 c-5 -13 -32 -50 -59 -82 -28 -33 -49 -61 -47 -64 3 -2 23 8
44 22 41 28 114 124 105 139 -10 16 -35 8 -43 -15z"/>
<path d="M350 255 c13 -14 29 -25 37 -25 23 0 14 26 -12 38 -41 19 -50 14 -25
-13z"/>
</g>
</svg>
