<?xml version="1.0" standalone="no"?>
<!DOCTYPE svg PUBLIC "-//W3C//DTD SVG 20010904//EN"
 "http://www.w3.org/TR/2001/REC-SVG-20010904/DTD/svg10.dtd">
<svg version="1.0" xmlns="http://www.w3.org/2000/svg"
 width="96.000000pt" height="68.000000pt" viewBox="0 0 96.000000 68.000000"
 preserveAspectRatio="xMidYMid meet">
<metadata>
Created by potrace 1.16, written by Peter Selinger 2001-2019
</metadata>
<g transform="translate(0.000000,68.000000) scale(0.100000,-0.100000)"
fill="#000000" stroke="none">
<path d="M719 425 c-9 -8 -246 -34 -267 -28 -20 5 -21 3 -15 -46 4 -32 -1 -83
-12 -139 -17 -85 -16 -122 3 -122 17 0 34 76 39 177 5 84 9 103 22 108 18 5
199 24 239 25 22 0 22 -1 22 -145 0 -157 -4 -169 -51 -145 -18 10 -16 5 11
-29 38 -47 52 -50 74 -19 13 18 16 51 16 155 0 72 4 143 10 157 8 21 6 28 -13
41 -20 14 -68 21 -78 10z"/>
</g>
</svg>
