<?xml version="1.0" standalone="no"?>
<!DOCTYPE svg PUBLIC "-//W3C//DTD SVG 20010904//EN"
 "http://www.w3.org/TR/2001/REC-SVG-20010904/DTD/svg10.dtd">
<svg version="1.0" xmlns="http://www.w3.org/2000/svg"
 width="96.000000pt" height="68.000000pt" viewBox="0 0 96.000000 68.000000"
 preserveAspectRatio="xMidYMid meet">
<metadata>
Created by potrace 1.16, written by Peter Selinger 2001-2019
</metadata>
<g transform="translate(0.000000,68.000000) scale(0.100000,-0.100000)"
fill="#000000" stroke="none">
<path d="M425 472 c-5 -4 -17 -20 -25 -37 -20 -39 -109 -110 -213 -169 -50
-29 -70 -45 -52 -41 64 14 173 74 244 133 40 34 78 62 83 62 5 0 58 -34 118
-75 106 -73 110 -75 167 -74 32 1 69 4 83 9 l25 7 -30 7 c-132 30 -364 134
-350 156 3 5 -3 14 -14 19 -23 13 -23 13 -36 3z"/>
</g>
</svg>
