<?xml version="1.0" standalone="no"?>
<!DOCTYPE svg PUBLIC "-//W3C//DTD SVG 20010904//EN"
 "http://www.w3.org/TR/2001/REC-SVG-20010904/DTD/svg10.dtd">
<svg version="1.0" xmlns="http://www.w3.org/2000/svg"
 width="90.000000pt" height="92.000000pt" viewBox="0 0 90.000000 92.000000"
 preserveAspectRatio="xMidYMid meet">
<metadata>
Created by potrace 1.16, written by Peter Selinger 2001-2019
</metadata>
<g transform="translate(0.000000,92.000000) scale(0.100000,-0.100000)"
fill="#000000" stroke="none">
<path d="M605 793 c-66 -16 -133 -25 -197 -26 -54 -1 -98 -3 -98 -4 0 -1 9
-17 19 -35 13 -22 24 -70 32 -143 6 -60 18 -125 25 -144 12 -30 16 -32 27 -19
6 9 31 18 55 21 l42 5 0 -171 c0 -170 5 -217 20 -217 15 0 29 93 36 242 6 137
8 147 28 152 38 10 74 6 80 -9 8 -22 33 -18 50 8 7 12 28 74 46 137 17 63 38
125 47 138 20 32 12 45 -41 70 -54 26 -44 26 -171 -5z m115 -70 c0 -75 -3 -78
-81 -78 l-69 0 6 48 c5 36 3 47 -7 48 -30 3 49 17 99 18 l52 1 0 -37z m-212
-40 l3 -52 -46 -7 c-26 -3 -50 -3 -55 2 -4 5 -10 30 -12 56 l-5 47 41 4 c71 6
71 6 74 -50z m186 -120 c-7 -32 -13 -60 -14 -63 0 -3 -25 -5 -55 -5 l-55 0 0
52 0 52 48 6 c26 3 54 8 62 9 8 2 18 4 22 5 3 0 0 -25 -8 -56z m-184 -28 l0
-55 -44 0 c-42 0 -44 1 -50 38 -11 66 -10 67 44 69 l50 3 0 -55z"/>
<path d="M195 721 c-18 -18 -118 -39 -143 -30 -33 13 -44 2 -27 -25 9 -13 21
-66 27 -117 13 -109 22 -129 49 -100 12 12 38 21 76 26 l59 7 1 35 c1 19 11
66 24 105 19 59 20 71 8 83 -19 19 -62 28 -74 16z m5 -90 c0 -84 -9 -109 -43
-120 -49 -18 -62 -14 -64 17 -1 15 -5 50 -8 78 l-6 50 48 11 c76 16 73 18 73
-36z"/>
</g>
</svg>
