<?xml version="1.0" standalone="no"?>
<!DOCTYPE svg PUBLIC "-//W3C//DTD SVG 20010904//EN"
 "http://www.w3.org/TR/2001/REC-SVG-20010904/DTD/svg10.dtd">
<svg version="1.0" xmlns="http://www.w3.org/2000/svg"
 width="90.000000pt" height="92.000000pt" viewBox="0 0 90.000000 92.000000"
 preserveAspectRatio="xMidYMid meet">
<metadata>
Created by potrace 1.16, written by Peter Selinger 2001-2019
</metadata>
<g transform="translate(0.000000,92.000000) scale(0.100000,-0.100000)"
fill="#000000" stroke="none">
<path d="M525 793 c-16 -96 -27 -140 -59 -224 -18 -49 -29 -88 -23 -86 6 2 26
26 45 53 18 27 41 50 50 52 9 2 45 10 80 19 34 9 65 13 69 9 4 -3 -3 -29 -15
-57 l-21 -51 22 16 c12 8 46 29 75 46 28 18 52 36 52 41 0 5 -22 20 -49 33
l-48 25 -78 -25 c-43 -13 -79 -23 -81 -21 -3 2 10 39 27 82 l32 78 -27 24
c-37 31 -44 29 -51 -14z"/>
<path d="M200 729 c-85 -15 -159 -28 -165 -28 -5 -1 -1 -8 9 -16 18 -14 19
-25 12 -233 -8 -244 -5 -261 49 -287 57 -26 325 -15 325 15 0 4 -7 13 -16 21
-13 10 -29 11 -85 1 -100 -17 -190 -15 -218 4 l-24 17 6 181 c3 100 11 202 17
227 l11 46 87 11 c48 6 115 14 150 18 60 6 62 7 47 24 -9 10 -24 20 -33 22 -9
2 -87 -9 -172 -23z"/>
<path d="M270 630 c-30 -11 -70 -19 -87 -19 -33 -1 -33 -1 -14 -20 11 -11 23
-39 26 -64 9 -58 20 -76 37 -59 7 7 37 12 71 12 48 0 58 3 53 15 -3 8 5 42 17
75 18 53 19 62 7 70 -21 13 -46 11 -110 -10z m57 -61 c-6 -47 -18 -59 -63 -59
-28 0 -33 4 -42 39 l-10 40 37 9 c20 6 47 10 60 11 22 1 23 -2 18 -40z"/>
<path d="M551 470 c1 -125 -35 -233 -103 -306 -38 -41 -40 -46 -18 -39 58 18
116 92 146 183 9 28 18 52 20 52 2 0 10 -16 19 -36 8 -19 39 -73 69 -120 l56
-84 57 0 c90 0 95 12 20 53 -69 39 -151 121 -193 193 -24 40 -25 49 -15 87 10
38 9 44 -10 60 -38 31 -48 22 -48 -43z"/>
<path d="M375 424 c-22 -8 -52 -12 -68 -8 -28 6 -28 5 -14 -18 8 -12 18 -41
22 -63 9 -59 16 -68 49 -55 15 5 41 10 59 10 23 0 28 3 20 11 -9 9 -7 25 8 63
18 48 18 52 2 64 -21 15 -27 14 -78 -4z m35 -64 c0 -34 -4 -41 -25 -46 -31 -8
-35 -5 -45 40 -8 37 -3 42 48 45 19 1 22 -4 22 -39z"/>
<path d="M180 395 c-19 -8 -46 -11 -58 -8 -23 5 -24 5 -9 -23 8 -16 18 -48 22
-71 7 -43 19 -61 29 -44 3 5 26 12 50 15 31 5 43 11 40 20 -3 7 2 33 10 57 23
67 -3 84 -84 54z m40 -55 c0 -34 -4 -41 -25 -46 -31 -8 -30 -8 -38 33 -5 28
-3 33 21 42 41 15 42 14 42 -29z"/>
</g>
</svg>
