<?xml version="1.0" standalone="no"?>
<!DOCTYPE svg PUBLIC "-//W3C//DTD SVG 20010904//EN"
 "http://www.w3.org/TR/2001/REC-SVG-20010904/DTD/svg10.dtd">
<svg version="1.0" xmlns="http://www.w3.org/2000/svg"
 width="90.000000pt" height="92.000000pt" viewBox="0 0 90.000000 92.000000"
 preserveAspectRatio="xMidYMid meet">
<metadata>
Created by potrace 1.16, written by Peter Selinger 2001-2019
</metadata>
<g transform="translate(0.000000,92.000000) scale(0.100000,-0.100000)"
fill="#000000" stroke="none">
<path d="M408 802 c5 -67 -2 -76 -65 -87 -40 -6 -42 -5 -48 22 -11 50 -14 53
-39 53 -24 0 -24 -1 -10 -27 23 -45 18 -61 -21 -69 -46 -8 -45 -22 3 -30 35
-6 39 -9 48 -48 5 -24 15 -41 23 -41 7 0 17 -10 22 -22 7 -20 4 -22 -57 -28
-60 -7 -77 -16 -55 -30 6 -3 13 -26 17 -50 3 -25 9 -47 13 -49 3 -2 25 -1 49
4 39 7 42 6 42 -15 0 -24 -22 -35 -72 -35 -15 0 -30 -4 -33 -10 -8 -12 37 -23
73 -18 25 4 28 1 24 -19 -3 -18 -13 -23 -51 -29 -25 -3 -64 -9 -86 -13 l-40
-7 26 -17 c23 -16 33 -16 73 -6 26 6 50 9 53 5 14 -14 -34 -82 -90 -125 -31
-24 -55 -46 -53 -48 7 -7 78 26 111 51 17 13 46 51 63 84 l32 60 66 7 c85 10
82 31 -5 28 -66 -2 -66 -1 -51 28 7 13 21 19 45 19 35 0 54 14 35 25 -6 4 -27
7 -46 7 -26 0 -34 4 -34 18 0 21 19 30 65 30 34 0 54 14 35 25 -10 6 13 52 35
68 6 5 3 13 -10 23 -17 13 -18 16 -5 25 41 27 48 29 54 13 10 -27 7 -295 -5
-381 -9 -64 -9 -88 1 -112 22 -55 37 -36 47 60 l6 57 111 11 c61 6 124 12 140
14 16 1 31 7 33 13 6 19 -47 35 -93 28 l-44 -6 0 46 c0 45 1 46 33 46 17 0 39
5 47 10 13 9 13 11 0 20 -8 5 -30 10 -47 10 -31 0 -33 2 -33 34 0 36 12 46 55
46 13 0 27 5 30 10 8 13 -42 32 -66 25 -16 -5 -18 -1 -16 39 2 43 3 45 37 51
48 8 68 21 54 35 -14 14 -42 16 -71 6 -21 -7 -23 -4 -23 23 0 25 -7 36 -32 51
-18 11 -37 20 -42 20 -13 0 2 -51 24 -82 l19 -26 -42 -7 c-23 -4 -49 -8 -57
-11 -8 -2 -22 1 -30 6 -12 8 -10 14 12 37 29 32 98 137 98 151 0 11 -44 42
-60 42 -5 0 -10 -11 -10 -24 0 -36 -64 -155 -112 -208 -32 -36 -54 -50 -85
-57 -33 -7 -40 -6 -36 5 3 8 -3 17 -13 21 -15 6 -12 9 16 13 32 5 34 8 37 45
3 46 23 65 70 65 18 0 33 4 33 10 0 13 -34 30 -59 30 -23 0 -26 15 -10 57 9
24 7 30 -11 45 -39 31 -47 23 -42 -40z m-13 -139 c-8 -36 -14 -41 -51 -49 -28
-5 -32 -3 -38 21 -8 33 -6 35 36 45 57 14 61 13 53 -17z m289 -99 c3 -9 6 -28
6 -44 0 -29 -18 -40 -72 -40 -23 0 -26 3 -23 28 2 15 4 35 4 44 1 15 11 19 67
27 7 0 15 -6 18 -15z m-244 -69 c0 -18 -7 -28 -26 -35 -35 -14 -34 -14 -34 25
0 32 2 35 30 35 25 0 30 -4 30 -25z m-112 -22 c-3 -34 -6 -38 -34 -41 -26 -3
-33 1 -38 20 -12 46 -10 48 62 57 9 1 12 -10 10 -36z m362 -62 c0 -35 -3 -39
-31 -45 -64 -13 -69 -10 -69 39 l0 45 50 0 50 0 0 -39z m2 -121 c3 -39 3 -40
-32 -46 -19 -3 -43 -8 -52 -11 -15 -4 -18 3 -18 46 l0 51 49 0 49 0 4 -40z"/>
<path d="M70 793 c0 -19 78 -85 96 -81 30 5 30 52 0 66 -36 16 -96 26 -96 15z"/>
<path d="M20 587 c0 -19 73 -87 92 -87 23 0 31 16 24 45 -5 19 -18 28 -58 40
-62 18 -58 18 -58 2z"/>
<path d="M123 373 c-23 -38 -61 -89 -84 -112 l-43 -43 15 -41 c8 -23 20 -42
27 -42 7 0 28 36 46 80 18 44 45 109 60 144 38 89 27 96 -21 14z"/>
<path d="M416 180 c40 -55 54 -62 54 -26 0 26 -50 76 -76 76 -9 0 -2 -17 22
-50z"/>
</g>
</svg>
