<?xml version="1.0" standalone="no"?>
<!DOCTYPE svg PUBLIC "-//W3C//DTD SVG 20010904//EN"
 "http://www.w3.org/TR/2001/REC-SVG-20010904/DTD/svg10.dtd">
<svg version="1.0" xmlns="http://www.w3.org/2000/svg"
 width="96.000000pt" height="68.000000pt" viewBox="0 0 96.000000 68.000000"
 preserveAspectRatio="xMidYMid meet">
<metadata>
Created by potrace 1.16, written by Peter Selinger 2001-2019
</metadata>
<g transform="translate(0.000000,68.000000) scale(0.100000,-0.100000)"
fill="#000000" stroke="none">
<path d="M438 253 c3 -103 4 -109 30 -130 47 -39 250 -46 304 -11 l26 17 -21
50 c-22 55 -31 57 -40 12 -9 -43 -50 -61 -137 -61 -69 0 -107 11 -122 34 -12
18 -9 71 5 88 6 8 56 25 110 37 94 22 121 40 81 55 -27 11 -40 7 -100 -29 -74
-45 -92 -46 -86 -4 5 32 -8 49 -38 49 -13 0 -15 -17 -12 -107z"/>
</g>
</svg>
