<?xml version="1.0" standalone="no"?>
<!DOCTYPE svg PUBLIC "-//W3C//DTD SVG 20010904//EN"
 "http://www.w3.org/TR/2001/REC-SVG-20010904/DTD/svg10.dtd">
<svg version="1.0" xmlns="http://www.w3.org/2000/svg"
 width="96.000000pt" height="68.000000pt" viewBox="0 0 96.000000 68.000000"
 preserveAspectRatio="xMidYMid meet">
<metadata>
Created by potrace 1.16, written by Peter Selinger 2001-2019
</metadata>
<g transform="translate(0.000000,68.000000) scale(0.100000,-0.100000)"
fill="#000000" stroke="none">
<path d="M617 380 c7 -25 -5 -120 -17 -140 -8 -12 -16 -8 -48 23 -33 33 -62
47 -62 32 0 -3 16 -20 35 -37 56 -49 59 -60 22 -98 -18 -18 -45 -39 -62 -47
l-30 -14 42 4 c25 3 56 16 78 33 l37 28 17 -22 c33 -44 70 -61 124 -56 80 8
85 18 20 38 -66 21 -129 51 -138 66 -4 6 3 49 15 96 22 91 18 114 -20 114 -13
0 -17 -6 -13 -20z"/>
</g>
</svg>
