<?xml version="1.0" standalone="no"?>
<!DOCTYPE svg PUBLIC "-//W3C//DTD SVG 20010904//EN"
 "http://www.w3.org/TR/2001/REC-SVG-20010904/DTD/svg10.dtd">
<svg version="1.0" xmlns="http://www.w3.org/2000/svg"
 width="90.000000pt" height="92.000000pt" viewBox="0 0 90.000000 92.000000"
 preserveAspectRatio="xMidYMid meet">
<metadata>
Created by potrace 1.16, written by Peter Selinger 2001-2019
</metadata>
<g transform="translate(0.000000,92.000000) scale(0.100000,-0.100000)"
fill="#000000" stroke="none">
<path d="M600 819 c-62 -15 -394 -41 -438 -34 -43 6 -44 6 -35 -17 13 -36 9
-434 -5 -510 -11 -57 -10 -73 2 -103 16 -38 32 -45 40 -17 4 13 17 17 53 17
27 0 130 4 230 8 l182 8 21 -42 22 -42 26 27 27 26 -2 323 -2 322 -23 17 c-32
23 -57 27 -98 17z m46 -76 c3 -16 8 -34 10 -41 6 -19 6 -493 0 -499 -3 -3 -18
-1 -34 5 -19 6 -73 7 -153 1 -68 -4 -161 -9 -207 -11 l-83 -3 7 270 c4 148 7
271 8 272 6 7 259 31 343 32 l103 1 6 -27z"/>
<path d="M385 670 c0 -68 -9 -79 -65 -81 -19 0 -44 -4 -55 -8 -19 -8 -19 -8 4
-20 15 -8 39 -11 66 -6 l43 6 -5 -43 c-7 -67 -8 -68 -59 -68 -38 0 -44 -2 -35
-14 6 -7 16 -40 22 -72 15 -87 19 -97 33 -85 6 5 51 13 99 17 69 5 87 10 83
21 -3 7 4 38 15 69 20 54 20 56 2 70 -13 11 -33 13 -72 9 l-53 -5 7 47 c4 27
9 51 11 54 2 4 30 9 61 13 32 4 65 11 73 16 13 9 12 12 -5 26 -11 8 -29 12
-40 9 -60 -17 -75 -17 -75 -2 0 9 5 28 12 43 11 23 10 28 -11 45 -44 36 -57
26 -56 -41z m90 -282 c-4 -24 -10 -46 -14 -50 -3 -3 -32 -8 -63 -10 -62 -3
-68 2 -68 64 0 33 9 36 88 37 l64 1 -7 -42z"/>
</g>
</svg>
