<?xml version="1.0" standalone="no"?>
<!DOCTYPE svg PUBLIC "-//W3C//DTD SVG 20010904//EN"
 "http://www.w3.org/TR/2001/REC-SVG-20010904/DTD/svg10.dtd">
<svg version="1.0" xmlns="http://www.w3.org/2000/svg"
 width="96.000000pt" height="68.000000pt" viewBox="0 0 96.000000 68.000000"
 preserveAspectRatio="xMidYMid meet">
<metadata>
Created by potrace 1.16, written by Peter Selinger 2001-2019
</metadata>
<g transform="translate(0.000000,68.000000) scale(0.100000,-0.100000)"
fill="#000000" stroke="none">
<path d="M653 302 c-1 -38 -9 -73 -22 -97 l-20 -39 32 -19 c18 -11 36 -26 40
-33 5 -8 13 -12 18 -8 5 3 8 0 7 -8 -2 -7 3 -12 10 -11 6 2 12 -1 12 -5 0 -4
16 -9 37 -9 21 -1 31 2 23 7 -10 6 -9 9 1 13 8 3 3 6 -10 6 -13 1 -39 10 -57
22 -19 11 -34 17 -34 13 0 -5 -7 2 -16 14 -8 12 -19 20 -24 17 -5 -3 -12 -1
-15 5 -4 6 -1 9 7 8 7 -2 14 8 16 22 2 14 8 30 12 35 15 19 22 96 9 111 -20
24 -24 16 -26 -44z"/>
<path d="M560 256 c0 -2 8 -10 18 -17 15 -13 16 -12 3 4 -13 16 -21 21 -21 13z"/>
<path d="M605 140 c-4 -6 -9 -9 -13 -6 -4 2 -16 -5 -26 -15 -11 -11 -16 -19
-12 -19 15 0 66 31 66 40 0 13 -7 13 -15 0z"/>
</g>
</svg>
