<?xml version="1.0" standalone="no"?>
<!DOCTYPE svg PUBLIC "-//W3C//DTD SVG 20010904//EN"
 "http://www.w3.org/TR/2001/REC-SVG-20010904/DTD/svg10.dtd">
<svg version="1.0" xmlns="http://www.w3.org/2000/svg"
 width="96.000000pt" height="68.000000pt" viewBox="0 0 96.000000 68.000000"
 preserveAspectRatio="xMidYMid meet">
<metadata>
Created by potrace 1.16, written by Peter Selinger 2001-2019
</metadata>
<g transform="translate(0.000000,68.000000) scale(0.100000,-0.100000)"
fill="#000000" stroke="none">
<path d="M517 515 c3 -53 2 -95 -3 -96 -22 -1 -102 -10 -132 -15 -20 -3 -30
-9 -26 -16 4 -7 32 -8 81 -4 l75 7 -30 -43 c-37 -53 -105 -119 -152 -147 -29
-17 -31 -21 -14 -21 29 0 136 73 175 118 l31 37 -6 -70 c-3 -38 -8 -97 -12
-130 -4 -45 -2 -65 9 -80 31 -40 42 -5 45 150 l3 144 72 -80 c40 -44 82 -82
95 -85 12 -4 48 -3 80 1 52 7 55 8 32 18 -99 41 -173 82 -222 124 -83 71 -77
83 43 83 38 0 69 4 69 9 0 17 -41 23 -107 16 -60 -6 -65 -5 -60 12 3 10 8 43
12 74 6 59 1 70 -42 83 -21 7 -21 6 -16 -89z"/>
</g>
</svg>
