<?xml version="1.0" standalone="no"?>
<!DOCTYPE svg PUBLIC "-//W3C//DTD SVG 20010904//EN"
 "http://www.w3.org/TR/2001/REC-SVG-20010904/DTD/svg10.dtd">
<svg version="1.0" xmlns="http://www.w3.org/2000/svg"
 width="96.000000pt" height="68.000000pt" viewBox="0 0 96.000000 68.000000"
 preserveAspectRatio="xMidYMid meet">
<metadata>
Created by potrace 1.16, written by Peter Selinger 2001-2019
</metadata>
<g transform="translate(0.000000,68.000000) scale(0.100000,-0.100000)"
fill="#000000" stroke="none">
<path d="M513 190 c5 -28 8 -52 6 -54 -2 -2 -23 -6 -46 -9 -47 -6 -54 5 -30
43 10 17 9 22 -3 30 -26 17 -43 12 -37 -11 3 -12 -2 -36 -11 -55 -23 -49 -9
-57 63 -35 33 10 84 22 113 26 45 6 55 4 66 -11 18 -24 32 -12 45 41 13 51 9
65 -20 65 -15 0 -19 -7 -19 -34 0 -31 -3 -34 -37 -39 -20 -4 -39 -5 -41 -2 -2
2 -5 23 -6 47 -1 39 -4 43 -27 46 l-26 3 10 -51z"/>
</g>
</svg>
