<?xml version="1.0" standalone="no"?>
<!DOCTYPE svg PUBLIC "-//W3C//DTD SVG 20010904//EN"
 "http://www.w3.org/TR/2001/REC-SVG-20010904/DTD/svg10.dtd">
<svg version="1.0" xmlns="http://www.w3.org/2000/svg"
 width="96.000000pt" height="68.000000pt" viewBox="0 0 96.000000 68.000000"
 preserveAspectRatio="xMidYMid meet">
<metadata>
Created by potrace 1.16, written by Peter Selinger 2001-2019
</metadata>
<g transform="translate(0.000000,68.000000) scale(0.100000,-0.100000)"
fill="#000000" stroke="none">
<path d="M316 608 c-24 -92 -50 -137 -138 -239 -54 -63 -57 -70 -29 -53 18 10
51 36 72 57 22 20 42 37 46 37 6 0 -4 -216 -12 -270 -8 -44 16 -83 37 -62 20
20 30 321 10 344 -16 19 -12 28 47 117 34 51 35 54 16 67 -23 17 -45 18 -49 2z"/>
</g>
</svg>
