<?xml version="1.0" standalone="no"?>
<!DOCTYPE svg PUBLIC "-//W3C//DTD SVG 20010904//EN"
 "http://www.w3.org/TR/2001/REC-SVG-20010904/DTD/svg10.dtd">
<svg version="1.0" xmlns="http://www.w3.org/2000/svg"
 width="90.000000pt" height="92.000000pt" viewBox="0 0 90.000000 92.000000"
 preserveAspectRatio="xMidYMid meet">
<metadata>
Created by potrace 1.16, written by Peter Selinger 2001-2019
</metadata>
<g transform="translate(0.000000,92.000000) scale(0.100000,-0.100000)"
fill="#000000" stroke="none">
<path d="M500 872 c0 -5 13 -34 29 -65 l29 -56 -32 -6 c-17 -3 -58 -9 -91 -13
-32 -4 -59 -11 -60 -17 0 -18 138 -16 253 4 63 10 117 22 120 26 14 14 -33 36
-63 30 -94 -20 -92 -20 -87 17 2 21 -2 38 -10 46 -22 18 -88 43 -88 34z"/>
<path d="M256 833 c-3 -4 -6 -16 -6 -27 0 -17 -31 -89 -46 -105 -1 -2 -26 11
-55 28 -28 18 -54 30 -57 26 -3 -3 16 -25 42 -48 l49 -42 -73 -73 c-40 -39
-69 -72 -66 -72 16 0 75 36 119 72 l47 39 14 -32 c8 -18 11 -40 8 -48 -21 -57
-121 -173 -202 -233 -52 -38 -32 -42 38 -8 38 20 81 53 116 90 30 33 58 60 61
60 9 0 -3 -163 -16 -222 -12 -52 -26 -61 -78 -52 l-35 7 43 -51 c23 -29 47
-52 51 -52 17 0 60 62 70 101 15 55 15 304 0 359 -6 25 -19 59 -27 77 -15 32
-14 33 32 93 26 33 44 67 41 75 -6 17 -61 47 -70 38z"/>
<path d="M657 682 c-3 -4 -7 -24 -11 -44 -4 -20 -22 -60 -41 -88 -38 -57 -32
-64 20 -19 37 33 40 33 83 -9 29 -26 54 -35 63 -21 21 33 3 54 -61 73 l-41 12
20 26 c12 14 21 33 21 40 0 16 -47 42 -53 30z"/>
<path d="M430 638 c0 -22 -36 -90 -77 -145 -32 -44 -13 -42 38 4 l41 37 25
-32 c31 -41 53 -42 53 -2 0 23 -7 33 -30 45 -16 9 -30 17 -30 18 0 2 11 19 25
37 24 32 24 36 8 47 -27 20 -53 16 -53 -9z"/>
<path d="M535 436 c7 -43 7 -43 -27 -50 -18 -4 -68 -10 -110 -13 -43 -3 -78
-10 -78 -14 0 -5 14 -16 32 -25 32 -17 41 -16 166 13 l22 5 0 -153 c0 -85 4
-161 10 -169 8 -13 9 -13 14 0 2 8 9 30 15 49 6 19 11 87 11 151 l0 118 31 6
c17 3 81 6 141 6 119 0 131 8 69 44 -29 17 -39 18 -101 7 -38 -6 -83 -11 -101
-11 -28 0 -31 2 -25 24 7 27 -23 56 -57 56 -16 0 -17 -6 -12 -44z"/>
</g>
</svg>
