<?xml version="1.0" standalone="no"?>
<!DOCTYPE svg PUBLIC "-//W3C//DTD SVG 20010904//EN"
 "http://www.w3.org/TR/2001/REC-SVG-20010904/DTD/svg10.dtd">
<svg version="1.0" xmlns="http://www.w3.org/2000/svg"
 width="96.000000pt" height="68.000000pt" viewBox="0 0 96.000000 68.000000"
 preserveAspectRatio="xMidYMid meet">
<metadata>
Created by potrace 1.16, written by Peter Selinger 2001-2019
</metadata>
<g transform="translate(0.000000,68.000000) scale(0.100000,-0.100000)"
fill="#000000" stroke="none">
<path d="M637 565 c7 -43 -5 -55 -55 -55 -20 0 -31 -4 -27 -10 3 -5 24 -10 46
-10 l40 0 -3 -72 c-2 -60 0 -73 12 -73 12 0 16 16 18 77 l3 76 39 7 c51 9 52
25 1 25 -38 0 -39 1 -37 33 1 26 -3 33 -21 35 -20 3 -21 0 -16 -33z"/>
<path d="M414 556 c9 -37 -2 -53 -40 -60 -46 -9 -43 -26 4 -23 34 2 37 0 37
-23 -1 -14 -4 -39 -7 -56 -7 -33 13 -76 29 -61 7 7 9 31 13 145 0 6 10 12 23
12 12 0 28 4 36 9 20 13 -5 24 -36 16 -24 -6 -25 -5 -19 30 7 33 5 35 -20 35
-23 0 -25 -3 -20 -24z"/>
<path d="M190 541 c0 -15 73 -71 91 -71 19 0 31 23 23 44 -11 27 -114 52 -114
27z"/>
<path d="M700 441 c0 -67 37 -101 95 -87 39 10 29 26 -16 26 l-41 0 4 43 c2
37 0 42 -20 45 -19 3 -22 -1 -22 -27z"/>
<path d="M571 448 c5 -44 -1 -53 -37 -53 -33 0 -35 2 -31 28 3 21 0 27 -15 27
-14 0 -18 -8 -18 -35 0 -28 4 -36 24 -41 14 -3 29 -3 35 0 5 4 12 2 16 -3 3
-5 -3 -14 -12 -20 -14 -8 -15 -10 -3 -10 32 0 80 58 80 96 0 16 -6 23 -20 23
-12 0 -20 -6 -19 -12z"/>
<path d="M350 420 c0 -17 -9 -39 -20 -50 -26 -26 -25 -32 3 -19 47 21 72 99
32 99 -10 0 -15 -10 -15 -30z"/>
<path d="M130 403 c0 -5 16 -21 35 -36 41 -33 78 -33 83 -1 2 17 -5 24 -29 33
-36 13 -89 15 -89 4z"/>
<path d="M575 310 c-16 -4 -63 -8 -102 -9 l-73 -1 12 -25 c16 -35 -6 -149 -38
-198 -18 -27 -21 -37 -10 -37 8 0 29 23 47 50 22 34 36 47 43 40 16 -16 42
-12 106 19 33 16 62 25 66 20 3 -5 2 -29 -2 -54 -6 -41 -8 -44 -30 -39 -32 8
-30 -3 7 -38 l30 -29 19 23 c15 20 19 45 21 144 1 67 -1 126 -5 132 -8 13 -44
14 -91 2z m46 -52 c0 -18 2 -41 4 -50 3 -19 -51 -39 -143 -53 l-43 -7 7 39 c3
21 9 41 13 45 3 4 29 -3 56 -16 27 -14 53 -22 57 -20 16 10 7 34 -14 38 -70
13 -100 22 -101 31 -2 10 55 21 126 23 35 2 37 1 38 -30z"/>
<path d="M241 262 c-17 -27 -47 -65 -67 -85 l-37 -37 18 -40 c10 -22 23 -40
30 -40 11 0 105 216 105 240 0 23 -20 7 -49 -38z"/>
</g>
</svg>
