<?xml version="1.0" standalone="no"?>
<!DOCTYPE svg PUBLIC "-//W3C//DTD SVG 20010904//EN"
 "http://www.w3.org/TR/2001/REC-SVG-20010904/DTD/svg10.dtd">
<svg version="1.0" xmlns="http://www.w3.org/2000/svg"
 width="96.000000pt" height="68.000000pt" viewBox="0 0 96.000000 68.000000"
 preserveAspectRatio="xMidYMid meet">
<metadata>
Created by potrace 1.16, written by Peter Selinger 2001-2019
</metadata>
<g transform="translate(0.000000,68.000000) scale(0.100000,-0.100000)"
fill="#000000" stroke="none">
<path d="M700 441 c0 -69 35 -102 95 -87 39 10 29 26 -16 26 l-41 0 4 43 c2
37 0 42 -20 45 -19 3 -22 -1 -22 -27z"/>
<path d="M571 448 c5 -27 -14 -79 -34 -93 -27 -19 -15 -19 22 -1 47 25 71 106
31 106 -12 0 -20 -6 -19 -12z"/>
</g>
</svg>
