<?xml version="1.0" standalone="no"?>
<!DOCTYPE svg PUBLIC "-//W3C//DTD SVG 20010904//EN"
 "http://www.w3.org/TR/2001/REC-SVG-20010904/DTD/svg10.dtd">
<svg version="1.0" xmlns="http://www.w3.org/2000/svg"
 width="90.000000pt" height="92.000000pt" viewBox="0 0 90.000000 92.000000"
 preserveAspectRatio="xMidYMid meet">
<metadata>
Created by potrace 1.16, written by Peter Selinger 2001-2019
</metadata>
<g transform="translate(0.000000,92.000000) scale(0.100000,-0.100000)"
fill="#000000" stroke="none">
<path d="M540 794 c-63 -20 -222 -51 -303 -59 -37 -4 -67 -11 -67 -16 0 -5 15
-17 34 -25 31 -16 39 -15 147 11 121 29 219 42 219 30 0 -4 -30 -38 -67 -76
-47 -49 -72 -68 -84 -64 -28 9 -30 -8 -6 -56 19 -39 22 -60 22 -184 0 -77 -4
-153 -8 -169 -7 -26 -11 -28 -43 -21 -20 3 -43 9 -52 12 -10 4 -2 -11 18 -33
19 -22 45 -53 58 -68 19 -23 26 -25 38 -15 41 33 48 70 48 219 0 80 -4 181 -8
226 l-7 81 63 40 c35 22 87 52 116 67 28 14 52 30 52 34 0 15 -45 51 -82 67
-21 8 -39 15 -40 14 -2 -1 -23 -7 -48 -15z"/>
</g>
</svg>
