<?xml version="1.0" standalone="no"?>
<!DOCTYPE svg PUBLIC "-//W3C//DTD SVG 20010904//EN"
 "http://www.w3.org/TR/2001/REC-SVG-20010904/DTD/svg10.dtd">
<svg version="1.0" xmlns="http://www.w3.org/2000/svg"
 width="96.000000pt" height="68.000000pt" viewBox="0 0 96.000000 68.000000"
 preserveAspectRatio="xMidYMid meet">
<metadata>
Created by potrace 1.16, written by Peter Selinger 2001-2019
</metadata>
<g transform="translate(0.000000,68.000000) scale(0.100000,-0.100000)"
fill="#000000" stroke="none">
<path d="M530 618 c0 -7 -13 -33 -30 -58 -16 -24 -27 -46 -25 -49 6 -6 135 81
135 91 0 11 -36 28 -59 28 -12 0 -21 -6 -21 -12z"/>
<path d="M300 588 c0 -20 62 -78 83 -78 23 0 23 52 -1 66 -32 20 -82 27 -82
12z"/>
<path d="M578 515 c-1 -1 -69 -11 -151 -21 -158 -19 -190 -37 -75 -42 61 -3
66 -5 71 -27 4 -24 2 -25 -47 -25 -28 0 -58 -5 -66 -10 -11 -7 5 -10 53 -10
67 0 67 0 67 -28 0 -22 -5 -28 -22 -29 -86 -6 -148 -16 -148 -25 0 -7 25 -8
74 -3 70 6 75 5 81 -15 4 -12 3 -26 -2 -30 -8 -8 -234 -33 -250 -28 -4 2 -9
-1 -10 -7 -4 -18 51 -26 112 -16 119 19 135 20 135 7 0 -28 -80 -89 -161 -122
-82 -34 -83 -35 -34 -28 103 14 170 52 219 123 l27 38 171 7 c95 4 174 9 177
12 2 2 -4 11 -15 19 -20 16 -34 16 -241 -2 -66 -5 -76 -4 -70 9 3 9 1 20 -5
26 -16 16 2 20 109 24 90 4 114 10 99 25 -9 9 -124 7 -167 -2 -27 -6 -29 -4
-29 23 0 28 2 29 62 36 34 3 66 10 71 15 16 16 -30 23 -73 11 -46 -12 -59 -8
-57 20 1 15 11 21 37 26 74 11 102 19 102 29 -1 9 -37 27 -44 20z"/>
<path d="M530 173 c0 -4 15 -18 33 -31 17 -12 57 -40 87 -62 68 -48 103 -53
98 -13 -4 34 -52 68 -127 89 -31 9 -64 18 -73 20 -10 3 -18 2 -18 -3z"/>
</g>
</svg>
