<?xml version="1.0" standalone="no"?>
<!DOCTYPE svg PUBLIC "-//W3C//DTD SVG 20010904//EN"
 "http://www.w3.org/TR/2001/REC-SVG-20010904/DTD/svg10.dtd">
<svg version="1.0" xmlns="http://www.w3.org/2000/svg"
 width="96.000000pt" height="68.000000pt" viewBox="0 0 96.000000 68.000000"
 preserveAspectRatio="xMidYMid meet">
<metadata>
Created by potrace 1.16, written by Peter Selinger 2001-2019
</metadata>
<g transform="translate(0.000000,68.000000) scale(0.100000,-0.100000)"
fill="#000000" stroke="none">
<path d="M530 614 c0 -8 -11 -31 -25 -51 -13 -20 -22 -39 -20 -41 6 -7 115 69
115 80 0 8 -42 28 -61 28 -5 0 -9 -7 -9 -16z"/>
<path d="M300 594 c0 -13 64 -84 76 -84 18 0 26 17 19 39 -6 21 -95 63 -95 45z"/>
<path d="M505 500 c-22 -4 -77 -11 -123 -15 -45 -4 -85 -11 -88 -16 -7 -13
146 -10 239 4 43 7 79 17 80 22 3 13 -56 16 -108 5z"/>
</g>
</svg>
