<?xml version="1.0" standalone="no"?>
<!DOCTYPE svg PUBLIC "-//W3C//DTD SVG 20010904//EN"
 "http://www.w3.org/TR/2001/REC-SVG-20010904/DTD/svg10.dtd">
<svg version="1.0" xmlns="http://www.w3.org/2000/svg"
 width="96.000000pt" height="68.000000pt" viewBox="0 0 96.000000 68.000000"
 preserveAspectRatio="xMidYMid meet">
<metadata>
Created by potrace 1.16, written by Peter Selinger 2001-2019
</metadata>
<g transform="translate(0.000000,68.000000) scale(0.100000,-0.100000)"
fill="#000000" stroke="none">
<path d="M460 573 c-42 -8 -98 -12 -127 -8 -53 5 -65 -2 -39 -24 8 -7 20 -35
26 -64 17 -72 23 -77 68 -65 20 6 74 8 120 5 l83 -5 31 62 c17 33 34 63 39 64
18 7 8 29 -16 40 -32 15 -89 13 -185 -5z m120 -35 c0 -21 -5 -23 -50 -23 -27
0 -50 3 -50 7 0 18 35 38 66 38 29 0 34 -4 34 -22z m-152 -15 c-5 -25 -71 -25
-76 0 -3 14 4 17 38 17 34 0 41 -3 38 -17z m142 -43 c0 -14 -38 -32 -62 -28
-32 5 -33 26 -1 31 51 8 63 7 63 -3z m-135 -20 c0 -9 -11 -16 -31 -18 -25 -2
-33 1 -37 18 -5 19 -2 21 31 18 25 -2 37 -8 37 -18z"/>
<path d="M637 398 c3 -6 -94 -13 -154 -11 -16 1 -16 -2 -3 -25 6 -9 16 -39 23
-67 l12 -50 108 1 109 1 32 67 c27 54 30 69 19 78 -15 12 -154 17 -146 6z m83
-44 c0 -23 -3 -25 -42 -22 -35 3 -42 7 -43 26 -1 20 3 22 42 22 39 0 43 -2 43
-26z m-132 -6 c-2 -18 -10 -23 -33 -23 -24 0 -31 5 -33 23 -3 19 1 22 33 22
32 0 36 -3 33 -22z m126 -53 c-6 -14 -61 -28 -75 -19 -21 12 -7 33 24 36 42 4
57 -1 51 -17z m-125 6 c21 -13 5 -41 -23 -41 -22 0 -36 16 -36 41 0 11 41 12
59 0z"/>
<path d="M320 385 c-30 -8 -84 -14 -120 -15 -39 0 -60 -4 -52 -9 7 -4 21 -34
32 -67 20 -65 12 -62 130 -54 25 1 51 1 58 -1 15 -4 21 3 55 78 l24 53 -30 15
c-17 8 -33 15 -36 14 -3 0 -31 -7 -61 -14z m58 -49 c-2 -2 -18 -6 -36 -9 -30
-6 -33 -5 -30 16 4 30 61 42 66 14 2 -10 2 -20 0 -21z m-108 1 c0 -19 -6 -23
-34 -25 -23 -2 -36 2 -40 14 -9 23 -2 29 38 31 32 3 36 0 36 -20z m100 -42 c0
-16 -30 -35 -54 -35 -19 0 -22 36 -3 43 26 11 57 7 57 -8z m-97 -16 c3 -12 0
-22 -8 -25 -25 -10 -50 1 -53 24 -3 18 1 22 26 22 22 0 31 -6 35 -21z"/>
<path d="M438 234 c-4 -3 -4 -21 -1 -39 l5 -33 -66 -7 c-80 -9 -77 -25 5 -25
l59 0 0 -33 0 -33 -62 -2 c-35 -1 -99 -4 -143 -8 -66 -5 -76 -8 -55 -16 14 -6
71 -7 135 -4 61 4 193 9 295 13 102 3 187 7 189 9 16 14 -30 19 -160 17 l-149
-1 0 33 0 33 75 7 c97 9 97 30 0 30 -64 0 -68 2 -70 22 -1 13 -4 25 -6 27 -9
8 -46 16 -51 10z"/>
</g>
</svg>
