<?xml version="1.0" standalone="no"?>
<!DOCTYPE svg PUBLIC "-//W3C//DTD SVG 20010904//EN"
 "http://www.w3.org/TR/2001/REC-SVG-20010904/DTD/svg10.dtd">
<svg version="1.0" xmlns="http://www.w3.org/2000/svg"
 width="90.000000pt" height="92.000000pt" viewBox="0 0 90.000000 92.000000"
 preserveAspectRatio="xMidYMid meet">
<metadata>
Created by potrace 1.16, written by Peter Selinger 2001-2019
</metadata>
<g transform="translate(0.000000,92.000000) scale(0.100000,-0.100000)"
fill="#000000" stroke="none">
<path d="M408 835 c-5 -44 -56 -159 -99 -224 -21 -32 -21 -33 -3 -23 11 6 38
30 60 54 43 46 40 45 236 85 92 19 109 34 59 51 -25 9 -46 5 -121 -20 -50 -17
-93 -28 -96 -25 -3 3 6 28 20 55 l26 51 -26 20 c-40 31 -51 26 -56 -24z"/>
<path d="M135 770 c-6 -9 61 -87 87 -101 44 -23 68 47 26 75 -28 18 -106 37
-113 26z"/>
<path d="M485 625 c-38 -13 -80 -24 -92 -24 -13 -1 -23 -5 -23 -11 0 -21 54
-22 128 -2 43 11 90 23 107 27 29 6 29 7 11 21 -26 18 -47 17 -131 -11z"/>
<path d="M65 553 c54 -86 107 -107 113 -45 3 30 0 34 -40 52 -24 11 -54 20
-67 20 -23 0 -23 0 -6 -27z"/>
<path d="M541 525 c-25 -8 -89 -22 -143 -32 -98 -18 -115 -30 -65 -47 19 -7
51 -3 114 12 49 12 94 22 100 22 6 0 10 -42 9 -122 -1 -113 1 -128 25 -178 40
-86 145 -142 233 -126 50 10 62 28 43 68 -8 18 -18 51 -21 73 -12 69 -22 69
-35 1 -15 -73 -25 -81 -82 -66 -47 13 -93 58 -109 106 -19 55 -7 150 24 213
23 45 25 56 14 67 -21 21 -60 24 -107 9z"/>
<path d="M209 398 c-19 -48 -76 -138 -111 -175 -30 -31 -31 -33 -18 -77 11
-41 35 -75 44 -65 5 5 116 335 116 343 0 18 -19 2 -31 -26z"/>
</g>
</svg>
