<?xml version="1.0" standalone="no"?>
<!DOCTYPE svg PUBLIC "-//W3C//DTD SVG 20010904//EN"
 "http://www.w3.org/TR/2001/REC-SVG-20010904/DTD/svg10.dtd">
<svg version="1.0" xmlns="http://www.w3.org/2000/svg"
 width="96.000000pt" height="68.000000pt" viewBox="0 0 96.000000 68.000000"
 preserveAspectRatio="xMidYMid meet">
<metadata>
Created by potrace 1.16, written by Peter Selinger 2001-2019
</metadata>
<g transform="translate(0.000000,68.000000) scale(0.100000,-0.100000)"
fill="#000000" stroke="none">
<path d="M186 536 c9 -23 72 -68 92 -64 9 2 18 11 20 20 4 19 -33 41 -85 53
-27 5 -32 4 -27 -9z"/>
<path d="M110 404 c0 -2 14 -19 31 -39 35 -39 79 -49 79 -16 0 26 -23 42 -70
51 -22 4 -40 6 -40 4z"/>
<path d="M230 244 c-19 -27 -51 -66 -72 -87 l-39 -39 19 -31 c10 -18 22 -31
27 -31 12 2 106 215 102 228 -2 6 -19 -12 -37 -40z"/>
</g>
</svg>
