<?xml version="1.0" standalone="no"?>
<!DOCTYPE svg PUBLIC "-//W3C//DTD SVG 20010904//EN"
 "http://www.w3.org/TR/2001/REC-SVG-20010904/DTD/svg10.dtd">
<svg version="1.0" xmlns="http://www.w3.org/2000/svg"
 width="96.000000pt" height="68.000000pt" viewBox="0 0 96.000000 68.000000"
 preserveAspectRatio="xMidYMid meet">
<metadata>
Created by potrace 1.16, written by Peter Selinger 2001-2019
</metadata>
<g transform="translate(0.000000,68.000000) scale(0.100000,-0.100000)"
fill="#000000" stroke="none">
<path d="M490 354 c-36 -7 -86 -15 -113 -19 -26 -3 -45 -10 -42 -16 8 -13 78
-10 150 5 33 7 64 11 69 8 5 -2 6 -30 3 -60 -16 -154 59 -242 205 -242 58 0
75 17 55 57 -8 15 -18 44 -23 63 l-8 35 -11 -50 c-10 -46 -13 -50 -43 -53 -80
-8 -148 67 -136 150 3 24 17 60 31 82 20 31 22 40 11 47 -17 12 -69 9 -148 -7z"/>
</g>
</svg>
