<?xml version="1.0" standalone="no"?>
<!DOCTYPE svg PUBLIC "-//W3C//DTD SVG 20010904//EN"
 "http://www.w3.org/TR/2001/REC-SVG-20010904/DTD/svg10.dtd">
<svg version="1.0" xmlns="http://www.w3.org/2000/svg"
 width="96.000000pt" height="68.000000pt" viewBox="0 0 96.000000 68.000000"
 preserveAspectRatio="xMidYMid meet">
<metadata>
Created by potrace 1.16, written by Peter Selinger 2001-2019
</metadata>
<g transform="translate(0.000000,68.000000) scale(0.100000,-0.100000)"
fill="#000000" stroke="none">
<path d="M306 561 l7 -51 -29 0 c-41 0 -75 -11 -68 -21 3 -5 25 -9 50 -9 36 0
44 -3 44 -19 0 -14 -10 -20 -40 -25 -22 -3 -52 -3 -67 0 l-27 7 21 -27 c12
-14 27 -49 34 -76 7 -28 16 -50 21 -50 4 0 8 5 8 10 0 6 11 10 25 10 20 0 25
-5 25 -26 0 -14 -4 -23 -8 -20 -4 3 -26 1 -48 -4 -21 -4 -60 -11 -87 -15 -30
-4 -45 -10 -41 -17 6 -10 58 -7 142 8 30 6 32 4 32 -21 0 -14 5 -35 11 -46 16
-30 39 -6 39 41 0 34 3 38 31 44 17 3 44 6 60 6 15 0 30 4 33 9 9 14 -35 20
-81 12 -47 -9 -53 -6 -53 21 0 17 23 23 72 19 21 -2 71 94 63 120 -5 15 -15
17 -66 14 -53 -4 -60 -3 -57 12 2 12 17 20 47 25 50 8 56 12 46 28 -4 7 -24
10 -46 8 -38 -3 -38 -3 -41 37 -3 36 -6 40 -31 43 l-28 3 7 -50z m114 -131 c0
-5 1 -13 1 -17 1 -5 -14 -11 -35 -14 -20 -3 -36 -5 -36 -3 0 1 -3 9 -6 17 -4
11 2 17 18 20 42 8 58 7 58 -3z m-110 -22 c0 -19 -6 -23 -34 -25 -42 -3 -58
23 -23 37 39 16 57 12 57 -12z m108 -45 c-4 -22 -78 -32 -78 -10 0 21 10 27
47 27 27 0 34 -4 31 -17z m-105 1 c12 -12 -6 -34 -28 -34 -14 0 -25 7 -28 20
-4 16 0 20 22 20 15 0 30 -3 34 -6z"/>
<path d="M611 514 c-28 -39 -37 -44 -60 -39 l-26 5 -1 -77 c0 -49 -7 -92 -17
-117 -10 -22 -15 -41 -12 -44 9 -9 38 38 57 87 14 40 21 47 54 55 52 12 62 -5
62 -106 1 -83 5 -99 23 -81 14 14 30 177 18 181 -25 9 8 22 56 22 54 0 79 12
49 24 -25 10 -64 7 -139 -9 -97 -20 -105 -20 -105 10 0 19 10 30 43 46 23 12
44 25 47 29 3 4 16 13 29 20 24 12 24 13 6 26 -31 23 -50 16 -84 -32z"/>
<path d="M457 224 c-3 -4 -2 -15 4 -26 13 -25 8 -53 -11 -54 -8 -1 -34 -2 -57
-2 -66 -3 -51 -22 17 -22 l60 0 0 -34 0 -34 -117 -7 c-141 -8 -144 -8 -116
-23 17 -9 55 -10 155 -2 73 5 190 10 261 10 101 0 127 3 127 14 0 21 -36 26
-142 19 -116 -7 -126 -4 -121 34 4 21 11 29 26 30 59 4 107 15 107 25 0 7 -23
9 -65 6 l-65 -4 0 32 c0 24 -5 33 -22 38 -29 7 -33 7 -41 0z"/>
</g>
</svg>
