<?xml version="1.0" standalone="no"?>
<!DOCTYPE svg PUBLIC "-//W3C//DTD SVG 20010904//EN"
 "http://www.w3.org/TR/2001/REC-SVG-20010904/DTD/svg10.dtd">
<svg version="1.0" xmlns="http://www.w3.org/2000/svg"
 width="90.000000pt" height="92.000000pt" viewBox="0 0 90.000000 92.000000"
 preserveAspectRatio="xMidYMid meet">
<metadata>
Created by potrace 1.16, written by Peter Selinger 2001-2019
</metadata>
<g transform="translate(0.000000,92.000000) scale(0.100000,-0.100000)"
fill="#000000" stroke="none">
<path d="M500 812 c0 -4 14 -29 30 -55 17 -26 30 -49 30 -52 0 -2 -29 -7 -65
-10 -65 -7 -93 -22 -58 -31 12 -3 27 -29 44 -78 l26 -74 -45 -6 c-25 -3 -58
-6 -73 -6 -35 0 -38 -17 -4 -32 18 -8 40 -8 87 2 35 7 133 15 218 19 93 3 155
10 155 16 0 6 -14 17 -31 26 -26 13 -43 14 -93 5 -33 -5 -63 -7 -66 -4 -4 3 8
29 26 58 l33 53 -21 17 c-20 16 -20 17 24 28 26 7 41 16 38 23 -12 18 -54 29
-77 20 -55 -20 -78 -22 -72 -6 12 29 -5 61 -41 78 -38 18 -65 22 -65 9z m140
-172 c0 -16 -5 -50 -12 -75 -12 -43 -14 -45 -50 -45 -38 0 -38 0 -38 40 0 31
-6 47 -26 65 l-26 24 24 5 c20 5 53 9 111 14 13 2 17 -5 17 -28z"/>
<path d="M249 750 c-36 -10 -100 -21 -142 -25 -43 -4 -77 -9 -77 -10 0 -1 6
-18 14 -36 8 -19 17 -61 21 -94 9 -72 21 -100 38 -87 7 5 29 12 50 14 36 4 37
3 37 -28 0 -31 -2 -32 -50 -39 -60 -8 -57 -25 6 -25 42 0 44 -1 44 -29 0 -28
-2 -29 -72 -41 -103 -16 -108 -19 -75 -36 24 -13 36 -13 100 0 39 8 109 18
155 22 45 3 82 10 82 15 0 5 -11 16 -25 25 -21 14 -32 15 -69 5 -59 -14 -56
-15 -56 18 0 26 4 29 45 35 24 4 47 11 50 17 9 14 -37 28 -63 18 -33 -13 -34
-12 -30 24 3 32 4 32 62 37 59 5 59 5 72 45 6 22 20 65 29 95 l17 54 -27 23
c-31 27 -47 27 -136 3z m89 -53 c4 -31 -4 -34 -29 -11 -17 15 -18 13 -25 -23
-4 -21 -11 -47 -17 -58 -7 -14 -1 -12 22 9 36 34 46 30 37 -16 -6 -32 -7 -33
-48 -30 l-43 4 0 71 0 72 35 6 c54 10 65 6 68 -24z m-148 -78 l0 -67 -36 -7
c-20 -3 -38 -5 -40 -2 -2 2 -7 38 -12 80 l-8 76 40 3 c23 2 44 -1 48 -7 4 -5
8 -40 8 -76z"/>
<path d="M110 645 c0 -17 36 -75 47 -75 22 0 15 48 -9 64 -22 16 -38 20 -38
11z"/>
<path d="M605 420 c-33 -10 -84 -19 -114 -19 -47 -1 -52 -3 -45 -18 4 -10 8
-71 8 -135 1 -81 5 -121 14 -130 10 -10 14 -9 18 8 5 19 14 21 77 23 39 1 74
4 79 7 4 3 15 -12 25 -32 22 -45 33 -46 57 -5 17 29 17 39 6 111 -12 75 -10
112 5 151 4 12 -4 23 -28 38 -19 11 -36 20 -38 20 -2 -1 -31 -9 -64 -19z m73
-78 c3 -41 2 -43 -18 -37 -12 4 -45 2 -73 -5 -107 -23 -97 -25 -97 24 l0 44
58 10 c31 5 73 9 92 8 34 -1 35 -2 38 -44z m2 -112 c0 -39 -1 -40 -34 -40 -18
0 -61 -3 -95 -6 l-61 -7 0 35 0 35 63 10 c34 6 77 11 95 12 31 1 32 0 32 -39z"/>
<path d="M320 313 c2 -23 47 -98 60 -98 27 0 24 52 -4 80 -24 24 -56 34 -56
18z"/>
<path d="M230 285 c0 -10 34 -91 43 -103 14 -18 37 4 37 35 0 27 -41 73 -65
73 -8 0 -15 -2 -15 -5z"/>
<path d="M140 257 c0 -29 33 -107 45 -107 29 0 27 70 -2 102 -19 21 -43 24
-43 5z"/>
<path d="M35 210 c-29 -58 -28 -100 4 -100 23 0 45 50 44 98 -2 59 -19 60 -48
2z"/>
</g>
</svg>
