<?xml version="1.0" standalone="no"?>
<!DOCTYPE svg PUBLIC "-//W3C//DTD SVG 20010904//EN"
 "http://www.w3.org/TR/2001/REC-SVG-20010904/DTD/svg10.dtd">
<svg version="1.0" xmlns="http://www.w3.org/2000/svg"
 width="96.000000pt" height="68.000000pt" viewBox="0 0 96.000000 68.000000"
 preserveAspectRatio="xMidYMid meet">
<metadata>
Created by potrace 1.16, written by Peter Selinger 2001-2019
</metadata>
<g transform="translate(0.000000,68.000000) scale(0.100000,-0.100000)"
fill="#000000" stroke="none">
<path d="M612 183 c2 -15 -7 -19 -49 -23 -73 -8 -78 -20 -6 -20 56 0 60 -1 58
-22 -1 -21 -8 -23 -58 -26 -33 -2 -57 -8 -57 -14 0 -8 48 -9 163 -4 89 4 164
10 166 12 13 13 -21 19 -95 17 -83 -2 -84 -2 -84 23 0 21 5 24 35 25 19 1 40
3 45 4 6 1 20 3 33 4 20 1 21 2 4 12 -11 7 -37 8 -63 4 -36 -5 -44 -3 -44 9 0
10 -9 16 -25 16 -19 0 -25 -5 -23 -17z"/>
</g>
</svg>
