<?xml version="1.0" standalone="no"?>
<!DOCTYPE svg PUBLIC "-//W3C//DTD SVG 20010904//EN"
 "http://www.w3.org/TR/2001/REC-SVG-20010904/DTD/svg10.dtd">
<svg version="1.0" xmlns="http://www.w3.org/2000/svg"
 width="96.000000pt" height="68.000000pt" viewBox="0 0 96.000000 68.000000"
 preserveAspectRatio="xMidYMid meet">
<metadata>
Created by potrace 1.16, written by Peter Selinger 2001-2019
</metadata>
<g transform="translate(0.000000,68.000000) scale(0.100000,-0.100000)"
fill="#000000" stroke="none">
<path d="M287 543 c4 -21 8 -60 8 -88 l0 -50 -72 -9 c-40 -5 -73 -13 -73 -17
0 -5 29 -9 65 -9 36 0 65 -2 65 -5 0 -17 -79 -125 -121 -166 -49 -47 -49 -48
-17 -37 18 6 60 40 94 75 l60 64 -12 -113 c-12 -114 -6 -164 19 -156 8 3 14
42 18 124 4 65 7 127 8 137 1 17 3 17 23 3 29 -21 50 -20 46 1 -2 9 -18 21
-36 25 -25 7 -32 14 -32 33 0 19 7 26 28 31 15 4 31 9 36 12 12 7 -15 22 -40
22 -20 0 -21 4 -16 65 5 70 -5 95 -40 95 -17 0 -18 -4 -11 -37z"/>
</g>
</svg>
