<?xml version="1.0" standalone="no"?>
<!DOCTYPE svg PUBLIC "-//W3C//DTD SVG 20010904//EN"
 "http://www.w3.org/TR/2001/REC-SVG-20010904/DTD/svg10.dtd">
<svg version="1.0" xmlns="http://www.w3.org/2000/svg"
 width="96.000000pt" height="68.000000pt" viewBox="0 0 96.000000 68.000000"
 preserveAspectRatio="xMidYMid meet">
<metadata>
Created by potrace 1.16, written by Peter Selinger 2001-2019
</metadata>
<g transform="translate(0.000000,68.000000) scale(0.100000,-0.100000)"
fill="#000000" stroke="none">
<path d="M657 553 c-4 -26 -9 -59 -13 -73 -5 -24 -4 -23 23 8 25 29 34 32 80
32 28 0 54 4 57 9 9 14 -30 20 -69 11 -34 -8 -35 -7 -32 24 2 25 -2 32 -19 34
-18 3 -22 -3 -27 -45z"/>
<path d="M476 561 c14 -36 9 -45 -33 -54 -64 -13 -55 -31 12 -22 46 5 55 4 55
-9 0 -9 5 -16 10 -16 6 0 10 24 10 54 0 52 -1 54 -30 58 -25 4 -30 2 -24 -11z"/>
</g>
</svg>
