<?xml version="1.0" standalone="no"?>
<!DOCTYPE svg PUBLIC "-//W3C//DTD SVG 20010904//EN"
 "http://www.w3.org/TR/2001/REC-SVG-20010904/DTD/svg10.dtd">
<svg version="1.0" xmlns="http://www.w3.org/2000/svg"
 width="96.000000pt" height="68.000000pt" viewBox="0 0 96.000000 68.000000"
 preserveAspectRatio="xMidYMid meet">
<metadata>
Created by potrace 1.16, written by Peter Selinger 2001-2019
</metadata>
<g transform="translate(0.000000,68.000000) scale(0.100000,-0.100000)"
fill="#000000" stroke="none">
<path d="M610 496 c0 -66 -7 -78 -46 -72 -16 3 -19 12 -19 52 0 48 -1 49 -33
52 -31 3 -33 2 -23 -17 6 -11 11 -38 11 -60 l0 -41 -61 0 c-50 0 -59 -2 -50
-13 9 -12 41 -141 41 -168 0 -5 -16 -9 -35 -9 -19 0 -35 -4 -35 -10 0 -12 65
-24 81 -14 14 8 8 8 242 19 97 4 177 11 177 15 0 12 -28 20 -71 20 -21 0 -39
3 -39 8 0 4 11 43 25 86 14 44 24 80 22 81 -40 19 -65 24 -93 19 l-34 -6 0 51
c0 39 -4 53 -19 61 -36 19 -41 12 -41 -54z m110 -111 c0 -32 -2 -35 -30 -35
-28 0 -30 3 -30 35 0 32 2 35 30 35 28 0 30 -3 30 -35z m-110 -13 c0 -36 -2
-39 -30 -40 -28 -1 -30 1 -30 39 0 37 2 39 30 39 28 0 30 -2 30 -38z m-105
-12 c0 -30 -3 -35 -27 -38 -22 -3 -27 2 -33 27 -8 40 1 53 33 49 24 -3 27 -8
27 -38z m203 -67 c-3 -33 -7 -38 -30 -41 -26 -3 -28 -1 -28 32 0 24 5 36 18
39 40 11 43 8 40 -30z m-98 -18 c0 -32 -2 -35 -30 -35 -28 0 -30 3 -30 35 0
32 2 35 30 35 28 0 30 -3 30 -35z m-94 1 c8 -32 -2 -46 -32 -46 -21 0 -24 5
-24 35 0 31 3 35 25 35 18 0 26 -7 31 -24z"/>
<path d="M250 454 c-41 -8 -90 -17 -108 -20 -44 -7 -31 -24 20 -24 l41 0 -6
-35 c-6 -36 -58 -130 -96 -174 -12 -13 -21 -28 -21 -33 0 -10 56 17 65 32 4 6
11 8 16 4 5 -3 8 -2 7 3 -2 4 1 10 7 13 5 3 13 -15 18 -40 11 -53 13 -56 29
-42 8 6 33 12 57 14 42 3 43 4 62 58 10 30 19 57 19 61 0 16 -44 20 -86 9 -53
-15 -58 -28 -9 -22 33 4 35 3 35 -26 0 -50 -9 -62 -46 -62 -20 0 -35 5 -35 13
-9 79 -5 104 22 146 16 25 29 54 29 67 0 19 7 23 50 29 33 5 50 12 50 21 0 8
-4 14 -9 14 -5 0 -15 2 -23 4 -7 2 -47 -3 -88 -10z"/>
<path d="M472 145 c-6 -13 -34 -41 -62 -61 -28 -20 -49 -38 -47 -41 6 -6 94
38 140 69 21 15 43 29 50 32 18 7 -13 26 -44 26 -18 0 -29 -8 -37 -25z"/>
<path d="M651 163 c0 -11 121 -111 142 -119 13 -5 17 0 17 21 0 33 -31 62 -95
86 -55 21 -65 23 -64 12z"/>
</g>
</svg>
