<?xml version="1.0" standalone="no"?>
<!DOCTYPE svg PUBLIC "-//W3C//DTD SVG 20010904//EN"
 "http://www.w3.org/TR/2001/REC-SVG-20010904/DTD/svg10.dtd">
<svg version="1.0" xmlns="http://www.w3.org/2000/svg"
 width="96.000000pt" height="68.000000pt" viewBox="0 0 96.000000 68.000000"
 preserveAspectRatio="xMidYMid meet">
<metadata>
Created by potrace 1.16, written by Peter Selinger 2001-2019
</metadata>
<g transform="translate(0.000000,68.000000) scale(0.100000,-0.100000)"
fill="#000000" stroke="none">
<path d="M709 446 c-7 -7 -238 -36 -286 -36 -43 0 -43 0 -29 -22 7 -13 19 -53
26 -90 9 -49 17 -68 27 -68 13 0 14 9 8 53 -5 28 -9 65 -9 82 l-1 30 105 13
c58 7 121 11 140 10 35 -3 35 -3 32 -48 -2 -25 -7 -62 -12 -82 -7 -35 -6 -38
14 -38 19 0 25 11 43 73 12 39 24 79 28 87 4 11 -4 19 -28 28 -35 13 -51 15
-58 8z"/>
</g>
</svg>
