<?xml version="1.0" standalone="no"?>
<!DOCTYPE svg PUBLIC "-//W3C//DTD SVG 20010904//EN"
 "http://www.w3.org/TR/2001/REC-SVG-20010904/DTD/svg10.dtd">
<svg version="1.0" xmlns="http://www.w3.org/2000/svg"
 width="90.000000pt" height="92.000000pt" viewBox="0 0 90.000000 92.000000"
 preserveAspectRatio="xMidYMid meet">
<metadata>
Created by potrace 1.16, written by Peter Selinger 2001-2019
</metadata>
<g transform="translate(0.000000,92.000000) scale(0.100000,-0.100000)"
fill="#000000" stroke="none">
<path d="M580 839 c-25 -6 -134 -23 -244 -39 -109 -16 -201 -31 -203 -34 -3
-3 2 -12 11 -21 34 -34 10 -276 -41 -420 -29 -81 -69 -162 -91 -187 -8 -10
-10 -18 -4 -18 6 0 31 24 56 53 75 84 122 225 146 436 17 143 9 135 141 154
63 10 159 20 214 23 154 8 176 17 115 49 -32 17 -36 17 -100 4z"/>
<path d="M594 752 c-7 -10 -38 -32 -70 -50 -59 -31 -58 -40 4 -23 l32 10 0
-39 0 -39 -55 -6 c-30 -4 -55 -11 -55 -15 0 -14 32 -21 68 -14 l35 7 -34 -48
c-19 -26 -51 -61 -72 -77 -21 -17 -36 -32 -34 -35 9 -8 74 25 110 56 l36 32
-2 -50 c-1 -30 3 -55 11 -63 20 -20 32 8 32 80 0 34 3 62 7 62 3 0 30 -23 60
-51 55 -52 91 -62 85 -24 -4 29 -45 62 -102 82 -34 12 -50 23 -50 35 0 15 9
18 59 18 59 0 83 12 64 31 -12 12 -38 14 -83 5 l-35 -7 0 40 c-1 23 2 41 6 41
4 0 20 5 35 10 24 9 25 13 13 24 -25 24 -53 27 -65 8z"/>
<path d="M364 722 c-6 -10 -38 -32 -70 -50 l-59 -33 43 6 c26 4 42 3 42 -3 0
-6 3 -17 6 -26 5 -12 -5 -17 -45 -22 -28 -4 -54 -10 -57 -15 -6 -11 41 -23 66
-16 11 3 20 2 20 -1 0 -16 -40 -70 -80 -110 -24 -24 -35 -40 -24 -36 25 9 87
54 97 71 15 25 25 13 20 -26 -6 -44 2 -91 16 -91 15 0 31 59 31 112 l0 49 29
-22 c28 -20 51 -19 51 2 0 6 -18 18 -40 26 -49 20 -51 40 -5 49 19 3 35 10 35
14 0 11 -49 22 -62 14 -8 -5 -9 -1 -5 11 4 9 2 24 -4 31 -9 11 -3 17 25 31 38
18 46 37 20 47 -26 10 -39 7 -50 -12z"/>
<path d="M460 359 c-53 -12 -102 -17 -129 -13 -40 5 -43 4 -36 -13 14 -32 18
-140 6 -175 -8 -25 -8 -43 0 -66 12 -36 25 -41 34 -13 4 14 19 20 67 25 123
12 136 10 152 -29 17 -39 26 -43 48 -17 25 28 29 56 19 123 -5 35 -6 86 -2
112 7 45 6 49 -20 67 -31 23 -28 23 -139 -1z m110 -66 l0 -38 -52 0 c-29 0
-79 -4 -110 -9 l-58 -8 0 36 c0 29 4 37 23 40 12 3 31 7 42 9 11 3 50 5 88 6
l67 1 0 -37z m-2 -103 l-3 -41 -111 -5 -110 -5 4 35 c4 35 5 36 51 37 25 0 69
4 96 9 28 4 56 8 63 9 9 1 12 -11 10 -39z"/>
</g>
</svg>
