<?xml version="1.0" standalone="no"?>
<!DOCTYPE svg PUBLIC "-//W3C//DTD SVG 20010904//EN"
 "http://www.w3.org/TR/2001/REC-SVG-20010904/DTD/svg10.dtd">
<svg version="1.0" xmlns="http://www.w3.org/2000/svg"
 width="96.000000pt" height="68.000000pt" viewBox="0 0 96.000000 68.000000"
 preserveAspectRatio="xMidYMid meet">
<metadata>
Created by potrace 1.16, written by Peter Selinger 2001-2019
</metadata>
<g transform="translate(0.000000,68.000000) scale(0.100000,-0.100000)"
fill="#000000" stroke="none">
<path d="M525 475 c-49 -8 -147 -15 -217 -17 -71 -2 -128 -6 -128 -10 0 -4 8
-22 19 -40 10 -18 24 -62 30 -98 7 -36 14 -73 17 -82 4 -15 -5 -18 -73 -20
-74 -3 -77 -4 -51 -17 23 -12 50 -12 160 -3 73 7 227 15 343 18 116 3 212 8
214 10 2 2 -2 10 -9 19 -9 11 -32 15 -86 15 -41 0 -74 1 -74 3 0 15 52 150 66
171 16 25 16 29 1 43 -22 22 -101 25 -212 8z m121 -39 c6 -16 -31 -175 -44
-187 -4 -4 -26 -10 -49 -14 -52 -7 -52 -8 -18 100 14 44 25 88 25 98 0 13 9
17 40 17 26 0 43 -5 46 -14z m-148 -98 l-3 -103 -37 -3 -36 -3 -7 58 c-4 32
-11 77 -15 100 -8 46 -6 47 73 52 l28 1 -3 -102z m-134 30 c9 -29 17 -73 18
-98 l3 -45 -42 -3 c-41 -3 -42 -3 -48 35 -4 21 -13 66 -19 101 l-13 62 43 0
43 0 15 -52z"/>
</g>
</svg>
