<?xml version="1.0" standalone="no"?>
<!DOCTYPE svg PUBLIC "-//W3C//DTD SVG 20010904//EN"
 "http://www.w3.org/TR/2001/REC-SVG-20010904/DTD/svg10.dtd">
<svg version="1.0" xmlns="http://www.w3.org/2000/svg"
 width="90.000000pt" height="92.000000pt" viewBox="0 0 90.000000 92.000000"
 preserveAspectRatio="xMidYMid meet">
<metadata>
Created by potrace 1.16, written by Peter Selinger 2001-2019
</metadata>
<g transform="translate(0.000000,92.000000) scale(0.100000,-0.100000)"
fill="#000000" stroke="none">
<path d="M423 828 l27 -46 -23 -5 c-12 -3 -69 -11 -127 -18 -58 -7 -106 -13
-108 -15 -2 -1 4 -14 14 -29 23 -35 14 -173 -20 -308 -29 -114 -58 -180 -114
-266 -23 -33 -38 -61 -33 -61 21 0 106 103 134 162 24 51 39 70 60 77 16 6 48
24 73 41 55 37 59 31 51 -87 -4 -73 -11 -97 -40 -155 -19 -37 -32 -68 -28 -68
11 0 67 62 80 88 7 13 20 59 29 103 l18 79 34 -25 c44 -33 83 -34 78 -3 -2 19
-14 26 -60 38 -90 22 -72 51 42 66 l50 7 0 -77 c0 -86 1 -85 -105 -109 -63
-13 -62 -13 -40 -37 24 -26 27 -26 88 15 l52 35 3 -46 c5 -68 -1 -76 -45 -68
l-37 7 44 -52 c24 -28 45 -51 47 -51 2 0 12 15 23 33 17 28 20 50 20 164 0 72
5 144 11 159 9 24 7 31 -13 46 -24 20 -36 19 -153 -6 -75 -16 -93 -11 -67 18
11 11 34 45 52 74 17 28 35 52 40 52 7 0 100 -81 175 -153 17 -15 40 -32 52
-37 24 -10 131 5 146 20 5 4 -31 20 -80 36 -64 20 -114 45 -180 91 -51 35 -97
63 -103 63 -13 0 -13 1 10 55 25 59 25 59 -5 73 -40 18 -45 15 -45 -28 0 -48
-33 -141 -70 -195 -30 -43 -114 -126 -147 -143 l-20 -11 18 77 c10 42 25 126
32 185 8 60 18 112 23 117 11 11 258 40 341 40 69 0 82 9 53 35 -22 20 -50 22
-127 10 -52 -7 -53 -7 -53 17 0 32 -18 47 -66 55 l-38 6 27 -45z"/>
<path d="M570 674 c-17 -26 -25 -44 -17 -41 8 3 33 11 56 18 23 7 41 18 41 24
0 12 -31 45 -43 45 -3 0 -20 -21 -37 -46z"/>
<path d="M321 661 c-10 -7 -8 -12 10 -25 29 -20 69 -21 69 -1 0 27 -51 44 -79
26z"/>
<path d="M53 614 c22 -40 67 -86 80 -81 7 2 13 18 15 35 4 35 -21 57 -77 68
l-33 7 15 -29z"/>
<path d="M578 577 c13 -14 37 -31 54 -38 25 -10 32 -9 46 5 15 15 15 17 0 32
-9 10 -39 19 -70 22 l-53 5 23 -26z"/>
<path d="M345 559 c-22 -10 -48 -19 -57 -19 -10 0 -18 -4 -18 -9 0 -11 28 -41
38 -41 8 1 61 48 81 73 17 21 7 20 -44 -4z"/>
<path d="M120 464 c-14 -14 -46 -35 -72 -47 -26 -12 -47 -27 -48 -33 0 -18 38
-47 54 -41 13 5 106 128 106 141 0 12 -15 4 -40 -20z"/>
</g>
</svg>
