<?xml version="1.0" standalone="no"?>
<!DOCTYPE svg PUBLIC "-//W3C//DTD SVG 20010904//EN"
 "http://www.w3.org/TR/2001/REC-SVG-20010904/DTD/svg10.dtd">
<svg version="1.0" xmlns="http://www.w3.org/2000/svg"
 width="90.000000pt" height="92.000000pt" viewBox="0 0 90.000000 92.000000"
 preserveAspectRatio="xMidYMid meet">
<metadata>
Created by potrace 1.16, written by Peter Selinger 2001-2019
</metadata>
<g transform="translate(0.000000,92.000000) scale(0.100000,-0.100000)"
fill="#000000" stroke="none">
<path d="M174 843 c4 -16 9 -71 13 -124 l6 -97 -52 -11 c-29 -6 -63 -11 -76
-11 -14 0 -25 -5 -25 -10 0 -19 51 -31 102 -24 l49 7 -3 -64 -3 -64 -92 -45
c-98 -48 -111 -67 -67 -97 20 -13 26 -10 80 33 33 26 65 52 72 57 10 8 11 -5
7 -64 -3 -41 -8 -89 -11 -108 l-5 -33 -47 7 -47 7 50 -54 c28 -29 55 -54 62
-56 6 -2 19 10 27 27 12 23 16 63 16 173 l0 144 28 16 c32 19 80 68 66 68 -5
0 -24 -9 -42 -20 -18 -11 -37 -20 -42 -20 -6 0 -10 22 -10 49 l0 50 47 13 c25
7 48 18 50 24 5 15 -41 34 -67 27 -23 -6 -23 -5 -17 68 3 41 9 86 13 101 5 22
1 29 -24 42 -48 25 -66 21 -58 -11z"/>
<path d="M527 843 c-4 -3 -7 -14 -7 -23 0 -33 -60 -136 -106 -183 -44 -44 -46
-49 -34 -72 15 -29 25 -30 71 -11 19 7 81 24 138 36 l104 23 27 -33 c35 -43
54 -33 47 24 -6 43 -35 74 -90 97 -37 16 -44 6 -18 -27 12 -15 20 -29 18 -31
-5 -5 -203 -43 -223 -43 -23 0 -17 10 70 111 l80 92 -28 23 c-28 25 -38 28
-49 17z"/>
<path d="M617 554 c-3 -4 -4 -19 -2 -35 3 -16 7 -42 10 -59 4 -27 2 -30 -30
-35 -19 -3 -51 -8 -71 -11 l-36 -5 4 43 c3 38 1 43 -24 52 -36 13 -42 5 -29
-39 13 -48 5 -65 -29 -65 -47 0 -120 -12 -120 -20 0 -16 63 -29 107 -23 l46 6
-7 -39 c-9 -51 -48 -130 -85 -174 -38 -44 -32 -51 14 -15 54 40 91 97 110 169
19 71 26 76 105 76 l45 0 -3 -142 c-4 -144 2 -208 18 -208 17 0 30 102 30 230
l0 130 34 0 c78 0 154 13 150 25 -10 25 -56 36 -121 29 l-64 -6 6 28 c4 16 9
36 11 45 7 24 -52 60 -69 43z"/>
</g>
</svg>
