<?xml version="1.0" standalone="no"?>
<!DOCTYPE svg PUBLIC "-//W3C//DTD SVG 20010904//EN"
 "http://www.w3.org/TR/2001/REC-SVG-20010904/DTD/svg10.dtd">
<svg version="1.0" xmlns="http://www.w3.org/2000/svg"
 width="96.000000pt" height="68.000000pt" viewBox="0 0 96.000000 68.000000"
 preserveAspectRatio="xMidYMid meet">
<metadata>
Created by potrace 1.16, written by Peter Selinger 2001-2019
</metadata>
<g transform="translate(0.000000,68.000000) scale(0.100000,-0.100000)"
fill="#000000" stroke="none">
<path d="M490 460 c0 -56 2 -61 26 -70 39 -15 167 -13 162 3 -3 7 -29 13 -70
15 -78 3 -92 14 -78 62 11 38 6 50 -21 50 -17 0 -19 -7 -19 -60z"/>
<path d="M360 486 c0 -20 -46 -73 -95 -109 l-40 -30 33 6 c89 17 197 147 122
147 -11 0 -20 -6 -20 -14z"/>
</g>
</svg>
