<?xml version="1.0" standalone="no"?>
<!DOCTYPE svg PUBLIC "-//W3C//DTD SVG 20010904//EN"
 "http://www.w3.org/TR/2001/REC-SVG-20010904/DTD/svg10.dtd">
<svg version="1.0" xmlns="http://www.w3.org/2000/svg"
 width="96.000000pt" height="68.000000pt" viewBox="0 0 96.000000 68.000000"
 preserveAspectRatio="xMidYMid meet">
<metadata>
Created by potrace 1.16, written by Peter Selinger 2001-2019
</metadata>
<g transform="translate(0.000000,68.000000) scale(0.100000,-0.100000)"
fill="#000000" stroke="none">
<path d="M570 534 c-41 -8 -86 -12 -100 -9 l-25 6 0 -111 c0 -98 2 -110 18
-110 9 0 17 6 17 14 0 9 19 15 60 19 33 4 71 9 84 13 18 4 25 1 29 -15 5 -21
23 -27 44 -13 7 5 12 42 14 102 2 91 1 95 -22 107 -28 15 -22 15 -119 -3z m80
-43 c0 -26 -3 -29 -47 -34 -27 -3 -63 -9 -80 -13 -32 -6 -33 -5 -33 25 0 24 5
32 23 35 12 3 31 7 42 9 11 3 37 5 58 6 34 1 37 -1 37 -28z m0 -80 c0 -27 -2
-29 -57 -35 -31 -4 -67 -9 -80 -12 -20 -5 -23 -2 -23 24 0 28 2 30 63 39 99
16 97 16 97 -16z"/>
</g>
</svg>
