<?xml version="1.0" standalone="no"?>
<!DOCTYPE svg PUBLIC "-//W3C//DTD SVG 20010904//EN"
 "http://www.w3.org/TR/2001/REC-SVG-20010904/DTD/svg10.dtd">
<svg version="1.0" xmlns="http://www.w3.org/2000/svg"
 width="96.000000pt" height="68.000000pt" viewBox="0 0 96.000000 68.000000"
 preserveAspectRatio="xMidYMid meet">
<metadata>
Created by potrace 1.16, written by Peter Selinger 2001-2019
</metadata>
<g transform="translate(0.000000,68.000000) scale(0.100000,-0.100000)"
fill="#000000" stroke="none">
<path d="M223 549 c4 -13 10 -47 13 -75 6 -47 4 -52 -15 -59 -12 -3 -38 -6
-59 -5 -53 3 -54 2 -38 -22 8 -13 17 -42 21 -65 7 -42 25 -67 33 -45 2 7 17
12 33 12 28 0 29 -1 29 -51 0 -43 3 -50 16 -45 9 3 18 6 20 6 2 0 4 20 4 44
l0 44 45 6 c24 4 44 10 44 14 -3 19 3 33 26 60 l26 31 -23 15 c-12 9 -42 16
-65 16 -41 0 -43 1 -43 29 0 16 4 41 9 55 12 29 -1 43 -49 53 -31 6 -33 5 -27
-18z m117 -166 c0 -42 -13 -63 -36 -63 -21 0 -24 5 -24 33 0 40 6 47 37 47 15
0 23 -6 23 -17z m-100 -33 c0 -37 -2 -40 -29 -40 -24 0 -29 5 -35 31 -8 40 -1
49 35 49 27 0 29 -2 29 -40z"/>
</g>
</svg>
