<?xml version="1.0" standalone="no"?>
<!DOCTYPE svg PUBLIC "-//W3C//DTD SVG 20010904//EN"
 "http://www.w3.org/TR/2001/REC-SVG-20010904/DTD/svg10.dtd">
<svg version="1.0" xmlns="http://www.w3.org/2000/svg"
 width="96.000000pt" height="68.000000pt" viewBox="0 0 96.000000 68.000000"
 preserveAspectRatio="xMidYMid meet">
<metadata>
Created by potrace 1.16, written by Peter Selinger 2001-2019
</metadata>
<g transform="translate(0.000000,68.000000) scale(0.100000,-0.100000)"
fill="#000000" stroke="none">
<path d="M557 597 c4 -30 2 -35 -18 -40 -13 -4 -39 -7 -56 -7 -18 0 -33 -4
-33 -10 0 -5 25 -10 55 -10 48 0 55 -2 55 -20 0 -15 -9 -21 -41 -26 -34 -6
-38 -9 -24 -17 11 -6 36 -5 73 2 30 6 73 11 94 11 21 0 38 5 38 10 0 12 -11
14 -63 10 -33 -2 -38 1 -35 16 2 14 17 21 58 27 30 4 62 10 70 13 32 11 -15
23 -67 17 -51 -6 -51 -5 -55 23 -2 23 -9 30 -30 32 -25 3 -27 1 -21 -31z"/>
</g>
</svg>
