<?xml version="1.0" standalone="no"?>
<!DOCTYPE svg PUBLIC "-//W3C//DTD SVG 20010904//EN"
 "http://www.w3.org/TR/2001/REC-SVG-20010904/DTD/svg10.dtd">
<svg version="1.0" xmlns="http://www.w3.org/2000/svg"
 width="90.000000pt" height="92.000000pt" viewBox="0 0 90.000000 92.000000"
 preserveAspectRatio="xMidYMid meet">
<metadata>
Created by potrace 1.16, written by Peter Selinger 2001-2019
</metadata>
<g transform="translate(0.000000,92.000000) scale(0.100000,-0.100000)"
fill="#000000" stroke="none">
<path d="M546 891 c-3 -5 -1 -22 4 -37 5 -16 16 -82 23 -146 l13 -117 -86 -20
c-47 -11 -115 -25 -152 -32 -38 -7 -68 -16 -68 -20 0 -10 57 -32 68 -25 11 6
21 -22 15 -41 -2 -6 -26 -17 -53 -24 -60 -15 -55 -29 11 -29 48 0 49 -1 49
-30 0 -26 -4 -30 -27 -30 -38 0 -73 -10 -73 -21 0 -5 23 -9 50 -9 49 0 50 -1
50 -31 0 -16 -4 -28 -9 -25 -12 8 -111 -15 -111 -26 0 -4 27 -8 60 -8 57 0 60
-1 60 -24 0 -21 -6 -25 -58 -34 -31 -6 -70 -8 -85 -5 -34 7 -35 -6 -3 -37 29
-26 24 -27 200 33 72 24 132 49 134 57 4 10 -4 11 -32 6 -33 -6 -36 -5 -36 18
0 22 6 26 56 36 34 7 54 16 51 23 -4 13 -62 15 -89 3 -15 -7 -18 -3 -18 21 0
27 4 30 46 39 56 11 54 29 -3 28 -38 0 -43 2 -43 22 0 17 9 24 45 34 25 7 45
16 45 21 0 15 -47 21 -69 10 -20 -11 -21 -9 -19 28 1 38 2 39 46 46 24 4 46 4
48 2 3 -3 16 -51 29 -108 13 -57 28 -115 33 -129 10 -27 -11 -62 -87 -142 -19
-21 -32 -38 -27 -38 15 0 93 50 116 75 13 14 26 25 30 25 3 0 14 -16 23 -36
23 -48 115 -144 138 -144 17 0 19 9 18 95 0 52 -2 95 -4 95 -2 0 -11 -23 -20
-50 -9 -28 -20 -50 -25 -50 -13 0 -70 69 -87 106 -16 32 -15 34 25 114 23 44
39 87 36 94 -5 13 -46 36 -64 36 -6 0 -10 -17 -10 -39 0 -42 -17 -101 -30
-101 -7 0 -34 92 -54 181 -6 26 -5 27 60 34 69 7 79 20 32 42 -17 9 -35 10
-58 3 -19 -5 -36 -7 -39 -4 -3 3 -6 65 -7 137 l0 131 -32 13 c-17 7 -33 9 -36
4z m-102 -387 c3 -9 6 -83 6 -165 0 -140 -1 -149 -19 -149 -26 0 -27 7 -23
181 2 117 6 149 16 149 8 0 17 -7 20 -16z"/>
<path d="M467 775 c-4 -24 -15 -69 -26 -100 -20 -58 -13 -73 15 -30 l16 25 22
-25 c23 -26 41 -32 51 -15 8 14 -13 50 -30 50 -25 0 -26 18 -3 65 22 46 23 47
4 61 -32 23 -43 16 -49 -31z"/>
<path d="M350 780 c0 -27 -47 -167 -66 -197 -23 -36 2 -27 27 10 12 17 24 34
26 36 2 3 17 -9 34 -25 24 -23 32 -26 39 -14 12 20 -6 49 -35 56 l-24 6 30 60
c31 62 30 71 -8 83 -19 5 -23 2 -23 -15z"/>
<path d="M690 726 c44 -45 74 -58 83 -33 12 36 -17 60 -90 73 l-38 6 45 -46z"/>
<path d="M160 719 c-36 -10 -80 -18 -98 -18 -52 -1 -34 -25 21 -29 42 -3 47
-6 47 -27 0 -26 -58 -141 -96 -192 -31 -41 -31 -53 0 -24 l24 22 33 -46 c19
-26 38 -44 46 -41 7 3 13 3 13 0 0 -17 -76 -148 -107 -184 -38 -44 -39 -62 -2
-37 36 26 99 108 131 172 34 67 98 215 98 227 0 4 -11 14 -23 23 -21 13 -29
14 -65 1 -49 -17 -51 -12 -17 38 29 43 31 52 9 64 -12 7 -5 10 28 15 24 3 57
11 72 17 23 9 26 13 16 25 -15 19 -47 17 -130 -6z m40 -197 c0 -10 -10 -47
-22 -82 -20 -59 -22 -63 -30 -39 -5 15 -23 33 -44 43 l-36 17 25 32 c21 28 49
42 95 46 6 0 12 -7 12 -17z"/>
</g>
</svg>
