<?xml version="1.0" standalone="no"?>
<!DOCTYPE svg PUBLIC "-//W3C//DTD SVG 20010904//EN"
 "http://www.w3.org/TR/2001/REC-SVG-20010904/DTD/svg10.dtd">
<svg version="1.0" xmlns="http://www.w3.org/2000/svg"
 width="90.000000pt" height="92.000000pt" viewBox="0 0 90.000000 92.000000"
 preserveAspectRatio="xMidYMid meet">
<metadata>
Created by potrace 1.16, written by Peter Selinger 2001-2019
</metadata>
<g transform="translate(0.000000,92.000000) scale(0.100000,-0.100000)"
fill="#000000" stroke="none">
<path d="M405 793 c-20 -101 -68 -210 -136 -311 -36 -53 -10 -43 44 17 20 22
38 35 40 28 7 -21 -3 -250 -14 -309 -8 -46 -7 -64 6 -94 30 -72 40 -30 46 199
4 172 3 215 -8 228 -12 15 -7 31 39 124 l53 107 -24 19 c-31 26 -40 24 -46 -8z"/>
<path d="M626 773 c-15 -8 -55 -20 -87 -26 -33 -7 -59 -15 -59 -19 0 -15 48
-19 86 -9 22 6 50 11 63 11 22 0 23 -3 17 -42 -4 -23 -12 -45 -18 -49 -6 -4
-53 -12 -105 -19 -100 -13 -120 -24 -77 -40 19 -8 49 -6 108 5 44 9 123 18
174 22 51 3 95 10 98 14 2 5 -7 16 -21 25 -19 12 -36 15 -70 10 -25 -4 -45 -5
-45 -1 0 17 30 75 39 75 23 0 10 30 -19 45 -35 18 -46 18 -84 -2z"/>
<path d="M114 759 c13 -39 21 -121 18 -171 l-3 -47 -50 -7 c-62 -8 -60 -28 5
-32 l47 -3 -3 -82 -3 -82 -60 -19 c-33 -11 -62 -21 -65 -23 -9 -8 52 -54 64
-50 30 12 218 139 213 144 -4 3 -24 -2 -47 -11 -22 -9 -43 -16 -46 -16 -2 0
-4 35 -2 77 l3 76 45 11 c61 15 62 41 3 40 l-43 -1 0 51 c0 28 5 68 11 90 13
47 1 64 -56 73 -37 6 -38 5 -31 -18z"/>
<path d="M502 526 c-6 -24 -27 -64 -47 -90 -19 -25 -35 -49 -35 -52 0 -9 53
27 65 43 7 9 25 13 50 11 39 -3 40 -4 43 -42 4 -47 -3 -52 -77 -61 -31 -3 -65
-9 -75 -12 -18 -5 -17 -7 7 -19 20 -11 36 -12 77 -3 28 6 53 9 55 7 2 -2 -6
-27 -19 -55 -23 -48 -72 -102 -119 -131 -21 -12 -20 -13 8 -7 69 14 157 104
172 176 6 30 35 39 138 39 78 0 97 12 61 35 -27 18 -54 17 -145 -1 l-33 -7 7
42 c5 31 3 41 -7 42 -7 1 16 7 52 15 77 17 92 29 59 44 -20 9 -44 6 -122 -13
-86 -22 -96 -23 -87 -8 5 10 16 23 24 31 22 17 20 37 -3 50 -31 16 -36 13 -49
-34z"/>
<path d="M669 253 c17 -21 49 -62 71 -90 48 -62 70 -68 70 -19 0 43 -29 79
-94 116 -69 40 -84 38 -47 -7z"/>
</g>
</svg>
