<?xml version="1.0" standalone="no"?>
<!DOCTYPE svg PUBLIC "-//W3C//DTD SVG 20010904//EN"
 "http://www.w3.org/TR/2001/REC-SVG-20010904/DTD/svg10.dtd">
<svg version="1.0" xmlns="http://www.w3.org/2000/svg"
 width="90.000000pt" height="92.000000pt" viewBox="0 0 90.000000 92.000000"
 preserveAspectRatio="xMidYMid meet">
<metadata>
Created by potrace 1.16, written by Peter Selinger 2001-2019
</metadata>
<g transform="translate(0.000000,92.000000) scale(0.100000,-0.100000)"
fill="#000000" stroke="none">
<path d="M460 808 c0 -89 -5 -96 -66 -104 -65 -8 -68 -27 -6 -32 49 -4 52 -14
21 -73 -17 -35 -22 -39 -32 -25 -14 17 -67 39 -75 31 -9 -9 24 -59 47 -71 19
-10 19 -12 -17 -57 -39 -48 -52 -57 -52 -33 0 16 -37 46 -57 46 -7 0 -12 -10
-10 -22 1 -17 -6 -25 -36 -36 -20 -8 -40 -12 -43 -9 -6 6 46 72 129 165 l38
42 -18 30 c-22 38 -32 35 -49 -15 -7 -22 -23 -48 -35 -57 -24 -20 -79 -24 -79
-6 0 6 27 48 60 94 33 45 60 87 60 92 0 12 -34 42 -48 42 -6 0 -18 -24 -26
-54 -16 -54 -90 -176 -107 -176 -12 0 -12 -27 1 -50 9 -17 13 -18 45 -4 62 25
70 19 34 -28 -17 -24 -46 -55 -63 -71 l-30 -27 21 -21 21 -21 73 35 c73 36 73
36 88 15 12 -18 16 -19 25 -7 17 23 88 61 97 52 4 -4 13 -39 19 -78 6 -38 13
-72 16 -75 3 -3 22 -5 42 -5 l37 0 3 -89 3 -88 -38 7 -38 7 40 -41 c46 -48 59
-51 73 -14 13 34 20 203 9 221 -11 16 44 17 61 0 13 -13 18 -3 52 110 20 68
20 75 6 98 -20 29 -25 29 -146 4 -126 -26 -126 -26 -95 14 14 18 36 60 49 92
14 33 31 60 40 62 18 4 49 -26 160 -152 l70 -78 62 5 c104 8 108 19 17 56 -44
18 -97 43 -118 58 l-37 25 53 29 c65 36 65 35 49 54 -32 39 -47 37 -74 -10
-15 -24 -31 -47 -37 -50 -5 -4 -30 12 -54 34 -25 23 -39 41 -32 41 27 0 117
31 117 41 0 22 -52 30 -98 14 -65 -22 -75 -20 -68 11 19 75 19 80 -9 92 -41
19 -45 15 -45 -40z m140 -351 c0 -32 -1 -33 -42 -33 -24 1 -65 -3 -91 -8 l-49
-9 4 29 c3 27 8 30 63 40 106 20 115 19 115 -19z m-8 -87 c-3 -23 -9 -29 -26
-29 -11 1 -47 -2 -78 -6 -57 -8 -58 -7 -58 17 0 23 5 26 63 35 105 17 104 17
99 -17z"/>
<path d="M220 364 c0 -17 44 -74 54 -71 19 6 19 50 0 64 -18 13 -54 18 -54 7z"/>
<path d="M142 288 c29 -53 58 -63 58 -19 0 32 -30 61 -63 61 -17 0 -17 -3 5
-42z"/>
<path d="M7 293 c-8 -7 49 -106 68 -118 11 -7 18 -6 25 5 15 23 12 45 -10 73
-19 24 -73 51 -83 40z"/>
<path d="M330 236 c-6 -18 -26 -55 -45 -82 -19 -26 -32 -50 -30 -52 10 -10 82
47 109 86 29 42 28 55 -4 72 -16 8 -20 5 -30 -24z"/>
<path d="M610 262 c0 -4 28 -40 61 -80 67 -81 92 -89 97 -34 2 18 -2 40 -9 48
-23 28 -149 83 -149 66z"/>
</g>
</svg>
