<?xml version="1.0" standalone="no"?>
<!DOCTYPE svg PUBLIC "-//W3C//DTD SVG 20010904//EN"
 "http://www.w3.org/TR/2001/REC-SVG-20010904/DTD/svg10.dtd">
<svg version="1.0" xmlns="http://www.w3.org/2000/svg"
 width="90.000000pt" height="92.000000pt" viewBox="0 0 90.000000 92.000000"
 preserveAspectRatio="xMidYMid meet">
<metadata>
Created by potrace 1.16, written by Peter Selinger 2001-2019
</metadata>
<g transform="translate(0.000000,92.000000) scale(0.100000,-0.100000)"
fill="#000000" stroke="none">
<path d="M535 863 c3 -10 9 -46 12 -80 l6 -62 -62 -7 c-73 -8 -78 -27 -8 -32
l46 -3 -21 -37 c-31 -57 -87 -129 -115 -152 -17 -13 -20 -20 -11 -20 23 0 93
55 124 97 15 21 30 41 33 45 4 4 5 -30 3 -75 -3 -88 7 -122 30 -99 8 8 15 50
18 104 l5 91 70 -75 c39 -41 76 -73 83 -71 18 7 15 58 -5 76 -10 8 -47 33 -83
55 -36 21 -66 46 -68 55 -3 15 10 21 101 41 31 7 35 21 9 35 -13 7 -34 6 -67
-4 l-48 -15 7 65 c6 64 6 66 -19 75 -38 14 -48 12 -40 -7z"/>
<path d="M251 828 c5 -18 9 -56 9 -84 l0 -52 -80 -12 c-44 -7 -80 -16 -80 -21
0 -14 48 -22 91 -15 l41 6 -28 -51 c-16 -28 -54 -78 -85 -110 -31 -33 -54 -59
-50 -59 30 0 141 96 169 147 17 29 20 12 12 -50 -8 -58 2 -117 21 -117 13 0
31 77 29 129 -1 25 -1 49 -1 53 1 4 16 -9 34 -29 34 -37 57 -38 57 -4 0 24
-19 39 -58 47 -25 5 -32 12 -32 30 0 20 8 26 45 35 47 12 59 33 26 44 -11 3
-32 3 -47 -1 l-27 -7 6 63 c8 70 -1 90 -39 90 -21 0 -22 -3 -13 -32z"/>
<path d="M498 415 c-2 -3 -38 -13 -78 -24 -66 -16 -77 -17 -108 -4 -42 17 -48
12 -32 -26 7 -19 9 -46 5 -73 -15 -89 -48 -139 -129 -199 -42 -31 -35 -37 18
-15 53 22 112 81 135 137 l22 50 51 -46 c56 -51 78 -57 78 -21 0 29 -15 42
-77 66 -39 15 -49 23 -51 45 -2 15 0 31 5 36 4 4 44 11 88 15 l80 7 -3 -99
c-4 -126 7 -165 56 -196 70 -44 272 -22 272 29 0 8 -6 35 -14 61 -8 26 -18 61
-22 77 l-7 30 -8 -41 c-15 -81 -34 -112 -74 -120 -51 -9 -124 1 -144 20 -22
23 -21 169 2 216 22 43 21 57 -2 70 -21 11 -54 13 -63 5z"/>
</g>
</svg>
