<?xml version="1.0" standalone="no"?>
<!DOCTYPE svg PUBLIC "-//W3C//DTD SVG 20010904//EN"
 "http://www.w3.org/TR/2001/REC-SVG-20010904/DTD/svg10.dtd">
<svg version="1.0" xmlns="http://www.w3.org/2000/svg"
 width="90.000000pt" height="92.000000pt" viewBox="0 0 90.000000 92.000000"
 preserveAspectRatio="xMidYMid meet">
<metadata>
Created by potrace 1.16, written by Peter Selinger 2001-2019
</metadata>
<g transform="translate(0.000000,92.000000) scale(0.100000,-0.100000)"
fill="#000000" stroke="none">
<path d="M546 783 c-7 -48 -57 -153 -100 -213 -52 -72 -52 -75 -16 -54 18 10
49 40 69 65 l36 46 89 7 c49 4 91 4 94 1 10 -10 -27 -97 -76 -178 -46 -77 -47
-78 -56 -50 -5 15 -18 38 -29 50 -22 25 -105 68 -113 60 -6 -6 60 -99 99 -140
l28 -29 -57 -69 c-54 -66 -125 -132 -208 -194 -55 -40 -28 -44 47 -7 123 61
261 212 372 407 31 55 68 111 81 126 31 33 30 43 -5 68 -34 25 -55 26 -124 7
-29 -8 -67 -17 -85 -20 l-32 -6 27 53 c16 28 29 55 31 59 4 9 -39 48 -54 48
-6 0 -14 -17 -18 -37z"/>
<path d="M245 710 c-44 -10 -102 -21 -128 -25 -40 -5 -46 -9 -36 -21 7 -9 30
-14 60 -14 27 0 49 -2 49 -3 0 -2 -9 -29 -19 -60 -24 -68 -60 -132 -123 -214
-27 -34 -48 -65 -48 -68 0 -15 24 0 75 46 30 29 57 50 59 48 2 -2 9 -38 15
-79 12 -78 26 -105 40 -82 7 11 103 30 158 32 6 0 9 8 6 19 -2 10 7 47 21 83
14 36 26 69 26 75 0 6 -14 16 -30 23 -25 10 -40 10 -88 -4 -32 -9 -73 -16 -90
-16 l-32 0 24 38 c52 83 78 143 66 157 -9 10 -4 15 22 20 97 18 128 28 128 40
0 29 -39 31 -155 5z m72 -336 c-3 -31 -9 -60 -14 -65 -4 -4 -32 -11 -60 -15
-49 -6 -53 -5 -53 13 0 11 -3 41 -6 66 l-7 46 39 4 c22 2 54 4 73 5 l34 2 -6
-56z"/>
</g>
</svg>
