<?xml version="1.0" standalone="no"?>
<!DOCTYPE svg PUBLIC "-//W3C//DTD SVG 20010904//EN"
 "http://www.w3.org/TR/2001/REC-SVG-20010904/DTD/svg10.dtd">
<svg version="1.0" xmlns="http://www.w3.org/2000/svg"
 width="96.000000pt" height="68.000000pt" viewBox="0 0 96.000000 68.000000"
 preserveAspectRatio="xMidYMid meet">
<metadata>
Created by potrace 1.16, written by Peter Selinger 2001-2019
</metadata>
<g transform="translate(0.000000,68.000000) scale(0.100000,-0.100000)"
fill="#000000" stroke="none">
<path d="M587 530 c-10 -28 -38 -75 -62 -105 -25 -30 -45 -57 -45 -60 0 -10
41 16 78 49 33 29 46 34 115 39 94 8 96 4 34 -91 -64 -99 -128 -164 -240 -248
-108 -81 -106 -95 7 -37 88 47 196 148 280 262 35 47 70 92 79 100 25 20 21
30 -17 46 -29 12 -43 12 -102 0 -107 -23 -109 -22 -78 25 22 33 24 43 14 55
-24 29 -45 17 -63 -35z"/>
</g>
</svg>
