<?xml version="1.0" standalone="no"?>
<!DOCTYPE svg PUBLIC "-//W3C//DTD SVG 20010904//EN"
 "http://www.w3.org/TR/2001/REC-SVG-20010904/DTD/svg10.dtd">
<svg version="1.0" xmlns="http://www.w3.org/2000/svg"
 width="90.000000pt" height="92.000000pt" viewBox="0 0 90.000000 92.000000"
 preserveAspectRatio="xMidYMid meet">
<metadata>
Created by potrace 1.16, written by Peter Selinger 2001-2019
</metadata>
<g transform="translate(0.000000,92.000000) scale(0.100000,-0.100000)"
fill="#000000" stroke="none">
<path d="M184 828 c10 -32 25 -155 26 -205 l0 -41 -90 -13 c-111 -16 -115 -34
-7 -34 43 0 77 -1 77 -2 0 -1 -11 -28 -25 -59 -30 -67 -103 -179 -139 -213
-34 -32 -33 -45 2 -27 38 20 109 93 139 144 14 23 27 42 30 42 7 0 -4 -119
-19 -218 -9 -64 -9 -77 7 -113 17 -36 20 -38 34 -24 13 13 17 49 19 202 l3
187 45 -48 c48 -53 68 -53 62 0 -2 24 -11 32 -53 48 -27 11 -52 21 -54 23 -2
1 -1 17 3 36 6 31 9 34 66 45 68 14 82 27 46 43 -18 8 -36 9 -65 1 l-41 -10 0
32 c1 17 5 65 10 106 9 73 8 76 -16 98 -14 12 -34 22 -46 22 -16 0 -19 -4 -14
-22z"/>
<path d="M553 678 c-2 -72 -4 -132 -6 -134 -1 -2 -34 -8 -72 -13 -122 -19
-135 -22 -135 -30 0 -22 63 -31 126 -19 35 6 66 10 68 7 2 -2 2 -34 -1 -70
l-6 -67 -38 -6 c-22 -3 -57 -3 -79 0 -45 7 -49 2 -21 -27 13 -14 23 -49 32
-105 7 -47 18 -92 25 -102 12 -16 14 -16 26 1 10 13 37 19 113 27 55 5 111 10
125 10 23 0 25 4 26 48 0 28 10 67 23 95 25 51 23 60 -19 82 -26 13 -36 13
-96 -1 -36 -8 -68 -13 -70 -11 -4 4 15 130 22 136 2 2 54 9 114 14 116 10 128
18 74 49 -26 15 -35 15 -94 3 -97 -21 -93 -23 -85 41 4 31 13 79 20 108 14 50
14 51 -11 74 -14 12 -33 22 -42 22 -15 0 -17 -16 -19 -132z m132 -349 c4 -6 2
-39 -5 -74 -13 -71 -8 -68 -140 -81 l-66 -6 -10 70 -10 71 71 11 c38 6 75 13
80 15 23 8 74 4 80 -6z"/>
</g>
</svg>
