<?xml version="1.0" standalone="no"?>
<!DOCTYPE svg PUBLIC "-//W3C//DTD SVG 20010904//EN"
 "http://www.w3.org/TR/2001/REC-SVG-20010904/DTD/svg10.dtd">
<svg version="1.0" xmlns="http://www.w3.org/2000/svg"
 width="96.000000pt" height="68.000000pt" viewBox="0 0 96.000000 68.000000"
 preserveAspectRatio="xMidYMid meet">
<metadata>
Created by potrace 1.16, written by Peter Selinger 2001-2019
</metadata>
<g transform="translate(0.000000,68.000000) scale(0.100000,-0.100000)"
fill="#000000" stroke="none">
<path d="M170 541 c0 -12 63 -61 77 -61 9 0 23 22 23 36 0 7 -67 34 -85 34 -8
0 -15 -4 -15 -9z"/>
<path d="M120 413 c0 -20 56 -63 82 -63 39 0 36 25 -4 50 -32 19 -78 27 -78
13z"/>
<path d="M225 253 c-16 -21 -48 -57 -73 -79 l-44 -41 16 -32 c9 -17 20 -31 25
-31 9 0 114 211 108 217 -2 2 -17 -13 -32 -34z"/>
</g>
</svg>
