<?xml version="1.0" standalone="no"?>
<!DOCTYPE svg PUBLIC "-//W3C//DTD SVG 20010904//EN"
 "http://www.w3.org/TR/2001/REC-SVG-20010904/DTD/svg10.dtd">
<svg version="1.0" xmlns="http://www.w3.org/2000/svg"
 width="90.000000pt" height="92.000000pt" viewBox="0 0 90.000000 92.000000"
 preserveAspectRatio="xMidYMid meet">
<metadata>
Created by potrace 1.16, written by Peter Selinger 2001-2019
</metadata>
<g transform="translate(0.000000,92.000000) scale(0.100000,-0.100000)"
fill="#000000" stroke="none">
<path d="M600 815 c-36 -8 -115 -19 -177 -26 l-112 -12 16 -31 c12 -24 14 -49
10 -116 -11 -174 -66 -352 -143 -468 -37 -56 -22 -59 27 -5 84 91 133 227 159
438 6 50 13 104 15 121 l5 30 123 13 c198 20 246 35 198 61 -24 12 -37 12
-121 -5z"/>
<path d="M125 770 c-3 -4 14 -30 38 -56 31 -34 48 -46 60 -41 23 9 23 63 0 76
-32 16 -93 30 -98 21z"/>
<path d="M534 723 c-3 -16 -13 -50 -23 -78 l-18 -50 -52 -3 c-28 -2 -51 -7
-51 -13 0 -5 4 -9 9 -9 12 0 28 -50 37 -115 10 -72 22 -101 36 -87 7 7 24 12
40 12 23 0 28 -5 33 -32 3 -18 5 -69 3 -113 l-3 -80 -48 3 -47 4 49 -51 c27
-28 54 -51 60 -51 6 0 18 11 26 24 13 19 16 56 18 165 1 128 3 142 20 147 11
4 23 -1 31 -12 23 -31 42 -8 79 98 36 103 36 103 16 120 -31 27 -80 31 -139
14 -91 -27 -98 -23 -54 32 21 26 42 49 46 50 16 7 7 22 -22 37 -38 20 -39 20
-46 -12z m138 -145 c2 -6 2 -23 0 -38 -3 -25 -7 -27 -30 -21 -15 4 -55 1 -90
-7 -73 -16 -92 -12 -92 22 0 22 5 25 93 39 119 19 115 19 119 5z m-8 -115 c-4
-16 -8 -29 -9 -31 -2 -2 -33 -5 -69 -7 -37 -2 -76 -7 -86 -10 -14 -4 -20 -2
-20 9 0 8 -2 21 -5 28 -5 11 11 17 67 25 128 17 129 17 122 -14z"/>
<path d="M56 593 c-7 -7 54 -93 75 -103 40 -22 54 50 15 75 -28 19 -82 35 -90
28z"/>
<path d="M180 408 c-19 -34 -57 -83 -84 -110 -43 -44 -47 -52 -42 -82 8 -42
31 -74 44 -61 11 12 132 292 132 306 0 23 -18 4 -50 -53z"/>
<path d="M390 295 c-6 -20 -27 -59 -46 -87 -19 -28 -33 -53 -30 -55 6 -7 81
63 118 109 31 40 30 51 -9 62 -18 6 -23 1 -33 -29z"/>
<path d="M660 325 c0 -3 35 -42 79 -87 84 -87 111 -96 111 -38 0 39 -26 64
-103 101 -59 28 -87 35 -87 24z"/>
</g>
</svg>
