<?xml version="1.0" standalone="no"?>
<!DOCTYPE svg PUBLIC "-//W3C//DTD SVG 20010904//EN"
 "http://www.w3.org/TR/2001/REC-SVG-20010904/DTD/svg10.dtd">
<svg version="1.0" xmlns="http://www.w3.org/2000/svg"
 width="90.000000pt" height="92.000000pt" viewBox="0 0 90.000000 92.000000"
 preserveAspectRatio="xMidYMid meet">
<metadata>
Created by potrace 1.16, written by Peter Selinger 2001-2019
</metadata>
<g transform="translate(0.000000,92.000000) scale(0.100000,-0.100000)"
fill="#000000" stroke="none">
<path d="M446 862 c-3 -5 1 -27 9 -49 8 -23 19 -72 25 -110 5 -37 12 -78 15
-89 5 -23 -2 -25 -132 -40 l-63 -7 0 41 c0 40 0 40 46 47 80 12 93 23 49 43
-17 8 -33 8 -51 2 -14 -6 -28 -10 -30 -10 -3 0 -4 25 -3 56 3 60 -12 84 -53
84 -18 0 -18 -21 -3 -121 5 -30 -12 -39 -73 -39 -56 0 -32 -25 26 -28 l52 -3
0 -38 0 -39 -52 -6 c-29 -3 -81 -9 -116 -12 -34 -4 -62 -11 -62 -16 0 -15 54
-30 95 -25 22 3 94 12 160 20 66 9 143 18 171 21 l50 5 13 -62 c7 -34 24 -96
37 -137 l24 -75 -84 -82 c-47 -46 -83 -83 -80 -83 17 0 111 57 145 87 22 20
41 34 43 32 1 -2 17 -25 34 -50 16 -25 49 -62 72 -83 73 -66 151 -85 136 -33
-4 12 -13 54 -20 92 -14 73 -14 73 -32 -12 -2 -13 -9 -23 -15 -23 -17 0 -104
87 -124 124 l-19 35 29 53 c15 29 36 65 47 80 25 37 23 55 -12 73 -42 22 -48
19 -46 -23 1 -38 -30 -122 -45 -122 -8 0 -30 63 -52 151 l-14 56 60 7 c33 3
82 6 108 6 59 0 66 20 15 44 -30 14 -44 15 -106 5 -45 -8 -74 -9 -80 -3 -6 6
-11 61 -13 123 l-3 113 -33 14 c-39 16 -38 16 -45 6z"/>
<path d="M589 783 c5 -10 22 -30 38 -44 54 -51 93 -57 93 -16 0 35 -13 47 -65
62 -65 20 -78 20 -66 -2z"/>
<path d="M269 471 l20 -39 -22 -5 c-12 -3 -44 -8 -72 -12 -75 -9 -95 -14 -95
-24 0 -17 54 -28 88 -19 71 20 70 5 -4 -69 -39 -39 -88 -80 -110 -91 -21 -12
-31 -21 -22 -22 9 0 47 16 83 35 l67 35 -2 -83 c-3 -103 -3 -107 13 -107 11 0
127 106 127 116 0 3 -12 -2 -27 -9 -16 -8 -39 -18 -51 -22 -23 -7 -24 -6 -21
52 2 32 0 63 -3 69 -4 6 11 28 32 49 26 25 38 45 35 56 -4 13 4 17 41 23 26 3
59 6 75 6 15 0 31 5 35 11 12 20 -19 29 -73 23 -49 -6 -53 -5 -53 14 0 23 -35
52 -62 52 -17 0 -17 -2 1 -39z"/>
<path d="M385 334 c-18 -30 -32 -44 -41 -40 -8 3 -22 9 -31 13 -11 4 -2 -13
22 -43 67 -85 98 -115 106 -103 12 20 -10 73 -42 99 l-30 26 46 23 46 23 -22
24 c-12 13 -24 24 -25 24 -1 0 -14 -21 -29 -46z"/>
</g>
</svg>
