<?xml version="1.0" standalone="no"?>
<!DOCTYPE svg PUBLIC "-//W3C//DTD SVG 20010904//EN"
 "http://www.w3.org/TR/2001/REC-SVG-20010904/DTD/svg10.dtd">
<svg version="1.0" xmlns="http://www.w3.org/2000/svg"
 width="96.000000pt" height="68.000000pt" viewBox="0 0 96.000000 68.000000"
 preserveAspectRatio="xMidYMid meet">
<metadata>
Created by potrace 1.16, written by Peter Selinger 2001-2019
</metadata>
<g transform="translate(0.000000,68.000000) scale(0.100000,-0.100000)"
fill="#000000" stroke="none">
<path d="M456 223 c4 -54 13 -110 20 -124 21 -42 70 -59 168 -59 88 0 137 13
168 44 15 15 16 19 1 54 -8 20 -20 48 -25 62 -10 24 -11 23 -23 -23 -20 -77
-35 -87 -130 -87 -67 0 -87 4 -106 19 -25 20 -26 35 -16 171 2 33 0 35 -31 38
l-32 3 6 -98z"/>
</g>
</svg>
