<?xml version="1.0" standalone="no"?>
<!DOCTYPE svg PUBLIC "-//W3C//DTD SVG 20010904//EN"
 "http://www.w3.org/TR/2001/REC-SVG-20010904/DTD/svg10.dtd">
<svg version="1.0" xmlns="http://www.w3.org/2000/svg"
 width="96.000000pt" height="68.000000pt" viewBox="0 0 96.000000 68.000000"
 preserveAspectRatio="xMidYMid meet">
<metadata>
Created by potrace 1.16, written by Peter Selinger 2001-2019
</metadata>
<g transform="translate(0.000000,68.000000) scale(0.100000,-0.100000)"
fill="#000000" stroke="none">
<path d="M570 591 c0 -41 -11 -51 -55 -51 -13 0 -26 -4 -29 -9 -7 -10 17 -21
46 -21 20 0 21 -9 3 -52 -8 -21 9 -24 24 -5 6 6 22 27 37 45 24 30 30 32 89
32 35 0 66 4 70 9 10 18 -37 34 -82 27 -43 -6 -43 -5 -37 20 7 29 -7 44 -43
44 -20 0 -23 -5 -23 -39z"/>
<path d="M290 588 c0 -7 7 -22 15 -32 20 -27 4 -36 -62 -36 -38 0 -53 -4 -53
-14 0 -22 52 -39 84 -26 44 16 65 12 78 -15 18 -39 42 -33 35 10 -5 29 -3 35
13 35 25 0 50 10 50 21 0 5 -18 9 -40 9 -36 0 -40 3 -40 24 0 13 -7 27 -16 30
-27 10 -64 7 -64 -6z"/>
<path d="M420 436 c-14 -38 -87 -106 -137 -128 -44 -19 -53 -37 -29 -57 10 -8
28 -8 72 3 69 16 167 33 241 42 44 5 56 3 79 -15 36 -29 54 -27 54 5 0 30 -14
43 -83 80 -56 29 -71 25 -37 -11 13 -14 22 -27 19 -29 -7 -7 -204 -28 -235
-24 -28 3 -27 5 44 57 40 30 71 59 69 65 -2 5 -13 16 -25 24 -20 13 -22 12
-32 -12z"/>
<path d="M470 214 c-52 -8 -114 -13 -138 -11 -34 2 -41 -1 -36 -13 4 -8 15
-44 25 -79 20 -68 29 -84 36 -63 3 8 26 12 66 12 34 0 99 3 145 7 l82 6 0 31
c0 17 9 45 20 63 17 29 18 34 4 48 -18 18 -70 18 -204 -1z m130 -51 c0 -21 -4
-43 -8 -49 -4 -7 -45 -15 -92 -19 -47 -4 -97 -8 -112 -10 -24 -3 -28 1 -35 33
-4 20 -8 42 -8 47 0 10 134 31 213 34 l42 1 0 -37z"/>
</g>
</svg>
