<?xml version="1.0" standalone="no"?>
<!DOCTYPE svg PUBLIC "-//W3C//DTD SVG 20010904//EN"
 "http://www.w3.org/TR/2001/REC-SVG-20010904/DTD/svg10.dtd">
<svg version="1.0" xmlns="http://www.w3.org/2000/svg"
 width="96.000000pt" height="68.000000pt" viewBox="0 0 96.000000 68.000000"
 preserveAspectRatio="xMidYMid meet">
<metadata>
Created by potrace 1.16, written by Peter Selinger 2001-2019
</metadata>
<g transform="translate(0.000000,68.000000) scale(0.100000,-0.100000)"
fill="#000000" stroke="none">
<path d="M555 590 c-60 -11 -84 -20 -72 -25 21 -9 22 -23 0 -47 -24 -26 -4
-46 31 -30 41 18 39 -3 -4 -42 -22 -20 -40 -38 -40 -41 0 -12 56 25 84 54 33
34 46 33 39 -3 -7 -36 29 -56 103 -56 45 0 67 5 82 18 20 17 20 18 2 46 l-18
28 -7 -31 c-7 -32 -7 -32 -63 -29 l-57 3 -2 38 -1 37 61 0 c44 0 58 3 50 11
-6 6 -35 9 -67 7 -55 -3 -57 -2 -54 22 2 16 10 26 23 28 42 7 51 14 30 22 -11
5 -22 8 -25 8 -3 0 -45 -8 -95 -18z m15 -50 c0 -25 -4 -30 -25 -30 -28 0 -31
11 -13 40 19 30 38 25 38 -10z"/>
<path d="M292 575 c-78 -13 -95 -21 -72 -35 12 -8 13 -13 3 -30 -22 -35 -16
-43 27 -36 22 3 40 2 40 -3 0 -16 -40 -60 -76 -81 -19 -12 -33 -24 -30 -27 8
-9 61 26 101 66 22 22 44 41 48 41 5 0 6 -18 2 -40 -4 -22 -5 -40 -3 -40 1 0
26 9 53 20 48 18 48 19 18 20 -30 0 -33 3 -33 30 0 28 2 30 41 30 24 0 38 4
34 10 -3 6 -23 10 -43 10 -30 0 -38 4 -39 19 -1 14 7 21 35 26 47 9 57 15 41
26 -18 11 -56 10 -147 -6z m18 -54 c0 -11 -9 -21 -22 -25 -30 -7 -45 8 -28 29
18 21 50 19 50 -4z"/>
<path d="M405 381 c-66 -9 -115 -20 -108 -24 7 -4 18 -27 24 -50 12 -47 29
-73 38 -59 8 12 170 22 177 11 14 -22 36 -4 65 53 30 58 30 62 13 75 -22 16
-54 15 -209 -6z m153 -22 c2 -13 -12 -17 -80 -23 -46 -4 -93 -9 -105 -13 -18
-4 -23 -1 -23 15 0 21 2 22 140 36 53 5 64 2 68 -15z m-4 -53 c-10 -26 -194
-37 -194 -12 0 9 26 16 93 22 101 11 109 10 101 -10z"/>
<path d="M592 236 c6 -30 -6 -36 -72 -36 l-48 0 26 -49 c25 -47 27 -48 64 -43
37 4 38 4 38 -27 l0 -31 -60 0 c-61 0 -76 -11 -41 -30 15 -7 49 -4 130 12
l111 21 23 -21 c31 -29 37 -28 37 7 0 24 -6 31 -40 45 -49 20 -54 20 -47 2 4
-9 -3 -16 -16 -20 -46 -12 -57 -7 -57 24 0 30 0 30 56 30 37 0 53 4 49 11 -4
6 4 22 16 36 24 24 24 25 4 40 -14 10 -33 13 -67 8 -43 -5 -47 -4 -50 17 -2
17 -11 24 -32 26 -26 3 -28 1 -24 -22z m113 -66 c0 -21 -5 -25 -30 -25 -33 0
-48 30 -23 46 25 17 53 6 53 -21z m-110 -10 c0 -31 -34 -39 -59 -15 -22 22
-20 33 7 38 40 8 52 3 52 -23z"/>
<path d="M282 222 c3 -26 2 -27 -56 -30 -56 -3 -58 -4 -41 -22 9 -10 17 -24
19 -32 4 -29 17 -37 52 -31 34 6 35 5 32 -23 -3 -29 -4 -29 -75 -32 -77 -3
-91 -12 -45 -31 22 -9 45 -7 126 14 106 27 141 31 131 15 -7 -12 20 -24 34
-16 15 9 3 32 -25 51 -22 14 -26 14 -40 0 -22 -22 -61 -19 -67 5 -4 15 0 20
14 21 10 1 24 3 29 4 6 1 19 3 31 4 11 0 18 5 15 9 -3 5 4 19 16 31 28 31 11
46 -52 44 -43 -2 -49 0 -52 19 -2 13 -12 22 -26 25 -20 3 -22 -1 -20 -25z m8
-67 c0 -20 -5 -25 -25 -25 -14 0 -25 2 -25 4 0 2 -3 11 -6 19 -5 14 -1 17 49
26 4 0 7 -10 7 -24z m100 6 c0 -13 -9 -20 -30 -23 -36 -5 -39 -3 -33 23 7 27
63 27 63 0z"/>
</g>
</svg>
