<?xml version="1.0" standalone="no"?>
<!DOCTYPE svg PUBLIC "-//W3C//DTD SVG 20010904//EN"
 "http://www.w3.org/TR/2001/REC-SVG-20010904/DTD/svg10.dtd">
<svg version="1.0" xmlns="http://www.w3.org/2000/svg"
 width="90.000000pt" height="92.000000pt" viewBox="0 0 90.000000 92.000000"
 preserveAspectRatio="xMidYMid meet">
<metadata>
Created by potrace 1.16, written by Peter Selinger 2001-2019
</metadata>
<g transform="translate(0.000000,92.000000) scale(0.100000,-0.100000)"
fill="#000000" stroke="none">
<path d="M455 813 c-8 -45 -55 -152 -86 -194 -35 -50 -13 -45 40 10 27 28 58
51 68 51 31 1 262 45 268 52 4 4 -8 14 -25 23 -31 16 -36 16 -131 -11 -54 -15
-102 -25 -105 -21 -4 3 3 21 15 40 26 42 26 56 4 73 -29 22 -40 16 -48 -23z"/>
<path d="M160 797 c0 -8 13 -39 30 -70 21 -39 26 -57 17 -60 -7 -3 -54 -11
-105 -18 -98 -14 -115 -27 -62 -49 25 -10 40 -10 88 3 31 9 97 23 146 32 49 8
91 17 93 19 11 11 -35 30 -68 29 -38 -2 -39 -1 -39 31 0 41 -16 61 -62 81 -31
13 -38 13 -38 2z"/>
<path d="M575 619 c-44 -11 -98 -17 -121 -15 l-40 5 4 -89 4 -89 -48 -3 c-26
-2 -49 -8 -51 -13 -4 -13 63 -39 77 -30 15 9 11 -24 -10 -85 -22 -63 -23 -70
-11 -89 7 -11 13 -10 35 4 20 13 55 19 127 23 54 3 99 1 99 -3 0 -10 -33 -65
-40 -65 -3 0 -22 4 -42 9 -21 5 -38 6 -38 2 1 -3 21 -28 45 -54 38 -41 47 -47
64 -38 19 11 71 104 71 128 0 16 -1 16 50 -2 55 -19 60 -19 60 4 0 26 -37 51
-73 51 -28 0 -28 0 -26 58 4 92 3 91 77 94 42 2 67 8 70 16 6 19 -60 42 -101
35 l-35 -5 5 43 c3 24 10 53 16 63 8 16 4 24 -17 43 -32 27 -44 27 -151 2z
m95 -88 c0 -81 6 -76 -121 -86 l-86 -7 5 59 c2 32 7 62 11 66 8 8 130 34 169
36 21 1 22 -3 22 -68z m-5 -148 c-3 -21 -8 -52 -11 -69 -4 -31 -6 -31 -72 -38
-37 -3 -84 -6 -106 -6 l-38 0 6 38 c15 85 18 92 39 97 36 8 79 12 135 14 l53
1 -6 -37z"/>
<path d="M520 544 c0 -16 43 -74 55 -74 16 0 26 25 18 46 -8 21 -73 46 -73 28z"/>
<path d="M520 378 c0 -16 40 -78 50 -78 15 0 22 20 16 45 -6 24 -66 55 -66 33z"/>
<path d="M185 543 c-27 -9 -57 -18 -65 -20 -11 -4 -10 -8 8 -16 16 -7 42 -6
93 3 72 14 92 26 68 41 -19 12 -45 10 -104 -8z"/>
<path d="M218 455 c-3 -3 -25 -9 -48 -13 -60 -10 -65 -32 -8 -32 50 1 126 14
136 24 3 4 0 11 -8 16 -16 10 -63 13 -72 5z"/>
<path d="M215 344 c-22 -9 -61 -15 -86 -15 l-46 0 18 -37 c11 -20 19 -44 19
-54 0 -30 30 -94 38 -81 4 6 25 14 47 18 95 15 97 16 85 31 -9 10 -6 27 15 71
24 54 25 58 9 70 -23 16 -49 15 -99 -3z m37 -36 c2 -7 2 -29 -2 -48 -4 -29
-11 -37 -40 -46 -40 -13 -44 -10 -53 48 -5 35 -4 37 31 46 52 14 59 14 64 0z"/>
</g>
</svg>
