<?xml version="1.0" standalone="no"?>
<!DOCTYPE svg PUBLIC "-//W3C//DTD SVG 20010904//EN"
 "http://www.w3.org/TR/2001/REC-SVG-20010904/DTD/svg10.dtd">
<svg version="1.0" xmlns="http://www.w3.org/2000/svg"
 width="96.000000pt" height="68.000000pt" viewBox="0 0 96.000000 68.000000"
 preserveAspectRatio="xMidYMid meet">
<metadata>
Created by potrace 1.16, written by Peter Selinger 2001-2019
</metadata>
<g transform="translate(0.000000,68.000000) scale(0.100000,-0.100000)"
fill="#000000" stroke="none">
<path d="M260 215 c-25 -8 -61 -11 -80 -8 -26 3 -31 2 -20 -6 8 -5 22 -32 31
-58 9 -26 20 -48 25 -48 5 1 37 4 71 9 45 6 60 11 57 21 -3 7 2 28 11 45 30
59 2 72 -95 45z m50 -37 c0 -33 -12 -47 -47 -54 -24 -5 -31 -2 -35 13 -3 10
-9 26 -13 35 -5 13 0 17 22 21 65 10 73 8 73 -15z"/>
</g>
</svg>
