<?xml version="1.0" standalone="no"?>
<!DOCTYPE svg PUBLIC "-//W3C//DTD SVG 20010904//EN"
 "http://www.w3.org/TR/2001/REC-SVG-20010904/DTD/svg10.dtd">
<svg version="1.0" xmlns="http://www.w3.org/2000/svg"
 width="96.000000pt" height="68.000000pt" viewBox="0 0 96.000000 68.000000"
 preserveAspectRatio="xMidYMid meet">
<metadata>
Created by potrace 1.16, written by Peter Selinger 2001-2019
</metadata>
<g transform="translate(0.000000,68.000000) scale(0.100000,-0.100000)"
fill="#000000" stroke="none">
<path d="M440 357 c0 -80 17 -97 95 -97 35 0 67 5 70 10 10 17 -36 28 -71 17
-37 -11 -64 -4 -64 17 0 9 16 16 48 21 26 3 54 10 62 15 25 15 -15 24 -51 11
-52 -18 -58 -15 -52 24 5 31 3 35 -16 35 -19 0 -21 -6 -21 -53z"/>
</g>
</svg>
