<?xml version="1.0" standalone="no"?>
<!DOCTYPE svg PUBLIC "-//W3C//DTD SVG 20010904//EN"
 "http://www.w3.org/TR/2001/REC-SVG-20010904/DTD/svg10.dtd">
<svg version="1.0" xmlns="http://www.w3.org/2000/svg"
 width="90.000000pt" height="92.000000pt" viewBox="0 0 90.000000 92.000000"
 preserveAspectRatio="xMidYMid meet">
<metadata>
Created by potrace 1.16, written by Peter Selinger 2001-2019
</metadata>
<g transform="translate(0.000000,92.000000) scale(0.100000,-0.100000)"
fill="#000000" stroke="none">
<path d="M395 813 c4 -16 9 -69 12 -119 l5 -90 -119 -18 c-192 -28 -202 -31
-143 -56 30 -13 44 -11 234 26 l29 6 -7 -58 c-10 -79 -25 -134 -36 -134 -6 0
-27 16 -48 35 -44 39 -87 58 -113 50 -30 -10 -22 -21 34 -48 29 -15 65 -40 81
-56 l28 -29 -28 -36 c-37 -46 -92 -86 -191 -137 l-78 -41 53 6 c73 7 176 59
235 118 l50 50 88 -91 c114 -116 132 -126 234 -124 78 1 135 14 135 31 0 4
-39 21 -87 36 -128 41 -199 76 -279 136 l-71 54 19 43 c10 23 24 78 30 121
l12 80 59 6 c33 3 81 6 106 6 65 0 77 11 47 39 -27 26 -64 29 -136 12 -77 -18
-74 -23 -67 89 6 112 1 120 -64 120 -29 0 -31 -2 -24 -27z"/>
</g>
</svg>
