<?xml version="1.0" standalone="no"?>
<!DOCTYPE svg PUBLIC "-//W3C//DTD SVG 20010904//EN"
 "http://www.w3.org/TR/2001/REC-SVG-20010904/DTD/svg10.dtd">
<svg version="1.0" xmlns="http://www.w3.org/2000/svg"
 width="96.000000pt" height="68.000000pt" viewBox="0 0 96.000000 68.000000"
 preserveAspectRatio="xMidYMid meet">
<metadata>
Created by potrace 1.16, written by Peter Selinger 2001-2019
</metadata>
<g transform="translate(0.000000,68.000000) scale(0.100000,-0.100000)"
fill="#000000" stroke="none">
<path d="M470 578 c0 -9 9 -27 20 -40 l19 -25 -47 -7 c-26 -3 -80 -9 -120 -12
-73 -7 -98 -19 -69 -35 37 -21 28 -156 -17 -255 -14 -29 -47 -76 -75 -104 -65
-65 -36 -70 41 -7 77 63 117 145 125 260 3 48 11 91 17 96 15 11 146 29 284
37 83 5 112 10 112 20 0 20 -60 32 -116 23 -75 -12 -84 -11 -84 10 0 24 -19
39 -58 47 -25 5 -32 3 -32 -8z"/>
<path d="M167 390 c29 -44 60 -60 74 -39 13 21 11 28 -16 54 -15 16 -36 25
-54 25 l-30 0 26 -40z"/>
<path d="M520 394 c-47 -8 -97 -13 -112 -11 l-27 3 0 -114 c-1 -62 3 -121 9
-131 38 -71 294 -92 416 -34 36 18 40 28 25 65 -5 13 -13 32 -16 43 -6 17 -9
13 -19 -20 -19 -66 -56 -80 -206 -79 -158 0 -170 6 -170 78 l0 54 78 6 c163
14 181 17 175 33 -3 8 4 27 16 43 24 33 26 51 9 68 -15 15 -69 14 -178 -4z
m122 -49 c-4 -48 -7 -51 -55 -58 l-38 -6 3 47 c3 50 17 62 68 59 23 -2 25 -6
22 -42z m-134 -22 l-3 -48 -42 -3 -43 -3 0 41 c0 43 17 58 68 59 21 1 23 -3
20 -46z"/>
<path d="M256 322 c-9 -16 -120 -72 -141 -72 -8 0 -15 -9 -15 -19 0 -19 18
-31 46 -31 21 0 128 104 122 120 -3 11 -6 11 -12 2z"/>
</g>
</svg>
