<?xml version="1.0" standalone="no"?>
<!DOCTYPE svg PUBLIC "-//W3C//DTD SVG 20010904//EN"
 "http://www.w3.org/TR/2001/REC-SVG-20010904/DTD/svg10.dtd">
<svg version="1.0" xmlns="http://www.w3.org/2000/svg"
 width="90.000000pt" height="92.000000pt" viewBox="0 0 90.000000 92.000000"
 preserveAspectRatio="xMidYMid meet">
<metadata>
Created by potrace 1.16, written by Peter Selinger 2001-2019
</metadata>
<g transform="translate(0.000000,92.000000) scale(0.100000,-0.100000)"
fill="#000000" stroke="none">
<path d="M515 843 c-8 -44 -56 -145 -91 -190 -40 -53 -5 -38 53 22 38 39 61
55 81 56 51 0 213 34 213 44 1 5 -12 15 -28 21 -23 10 -42 8 -107 -12 -44 -13
-84 -24 -88 -24 -5 0 2 18 14 41 l23 40 -24 20 c-32 27 -38 24 -46 -18z"/>
<path d="M210 843 c-1 -41 -41 -132 -89 -203 l-43 -62 33 18 c17 11 48 40 67
67 20 26 43 47 52 47 39 -1 200 36 197 45 -2 6 -15 16 -29 22 -22 11 -35 9
-92 -12 -37 -14 -68 -25 -71 -25 -2 0 8 20 22 45 24 44 25 47 8 65 -27 30 -55
26 -55 -7z"/>
<path d="M579 693 c16 -31 60 -73 75 -73 42 0 30 63 -15 79 -49 17 -72 15 -60
-6z"/>
<path d="M255 681 c-2 -5 10 -25 28 -46 23 -27 39 -37 50 -32 21 8 22 40 3 56
-20 16 -75 31 -81 22z"/>
<path d="M561 584 c-104 -23 -333 -44 -354 -32 -10 5 -25 7 -32 4 -12 -4 -11
-10 2 -37 13 -26 15 -53 10 -149 -3 -64 -13 -136 -21 -161 -9 -24 -16 -56 -16
-70 0 -28 34 -79 45 -67 16 15 25 94 32 259 l6 177 36 5 c20 4 86 11 146 17
61 5 133 12 162 15 44 4 54 2 63 -14 11 -22 14 -318 4 -371 l-7 -32 -51 6 -51
7 59 -60 c55 -55 61 -59 77 -45 31 28 40 92 37 264 -2 91 1 186 5 212 8 46 7
48 -25 68 -38 23 -41 23 -127 4z"/>
<path d="M498 474 c-4 -3 -50 -13 -105 -23 -89 -16 -96 -19 -75 -30 19 -10 42
-10 108 -1 47 6 97 16 112 21 l27 11 -25 13 c-28 16 -34 17 -42 9z"/>
<path d="M465 373 c-22 -8 -66 -16 -97 -16 -32 -1 -58 -3 -58 -3 0 -1 7 -18
15 -37 8 -20 15 -45 15 -56 0 -11 5 -32 10 -47 8 -21 14 -24 22 -16 7 7 42 12
83 12 l71 0 1 34 c1 18 8 47 17 64 23 44 20 59 -11 70 -20 6 -39 5 -68 -5z
m25 -73 c0 -47 -21 -63 -78 -58 -36 3 -37 4 -37 43 0 38 2 40 35 46 77 14 80
13 80 -31z"/>
</g>
</svg>
