<?xml version="1.0" standalone="no"?>
<!DOCTYPE svg PUBLIC "-//W3C//DTD SVG 20010904//EN"
 "http://www.w3.org/TR/2001/REC-SVG-20010904/DTD/svg10.dtd">
<svg version="1.0" xmlns="http://www.w3.org/2000/svg"
 width="96.000000pt" height="68.000000pt" viewBox="0 0 96.000000 68.000000"
 preserveAspectRatio="xMidYMid meet">
<metadata>
Created by potrace 1.16, written by Peter Selinger 2001-2019
</metadata>
<g transform="translate(0.000000,68.000000) scale(0.100000,-0.100000)"
fill="#000000" stroke="none">
<path d="M535 548 c4 -13 10 -59 12 -104 6 -91 3 -94 -79 -94 -20 0 -40 -4
-43 -10 -4 -6 18 -10 60 -10 l66 0 -3 -87 -3 -88 -93 -9 c-70 -6 -91 -11 -82
-20 6 -6 34 -10 63 -9 250 8 393 16 401 24 6 5 -5 15 -26 24 -29 12 -51 13
-110 5 -40 -5 -79 -10 -85 -10 -10 0 -13 23 -13 84 0 95 -9 86 103 102 28 4
46 11 44 17 -5 17 -48 25 -82 15 -60 -16 -65 -13 -59 45 3 28 11 67 16 86 9
29 8 36 -8 48 -10 7 -33 13 -52 13 -31 0 -34 -2 -27 -22z"/>
</g>
</svg>
