<?xml version="1.0" standalone="no"?>
<!DOCTYPE svg PUBLIC "-//W3C//DTD SVG 20010904//EN"
 "http://www.w3.org/TR/2001/REC-SVG-20010904/DTD/svg10.dtd">
<svg version="1.0" xmlns="http://www.w3.org/2000/svg"
 width="96.000000pt" height="68.000000pt" viewBox="0 0 96.000000 68.000000"
 preserveAspectRatio="xMidYMid meet">
<metadata>
Created by potrace 1.16, written by Peter Selinger 2001-2019
</metadata>
<g transform="translate(0.000000,68.000000) scale(0.100000,-0.100000)"
fill="#000000" stroke="none">
<path d="M590 328 c-25 -5 -82 -10 -127 -11 -79 -2 -81 -3 -65 -20 9 -10 22
-37 28 -60 8 -33 15 -41 30 -39 10 2 63 6 117 9 83 5 97 8 97 23 0 10 9 29 20
43 26 33 25 46 -6 57 -29 11 -32 11 -94 -2z m40 -48 c0 -36 -16 -44 -106 -54
-65 -7 -74 -2 -74 44 0 15 12 20 63 28 111 17 117 16 117 -18z"/>
</g>
</svg>
