<?xml version="1.0" standalone="no"?>
<!DOCTYPE svg PUBLIC "-//W3C//DTD SVG 20010904//EN"
 "http://www.w3.org/TR/2001/REC-SVG-20010904/DTD/svg10.dtd">
<svg version="1.0" xmlns="http://www.w3.org/2000/svg"
 width="96.000000pt" height="68.000000pt" viewBox="0 0 96.000000 68.000000"
 preserveAspectRatio="xMidYMid meet">
<metadata>
Created by potrace 1.16, written by Peter Selinger 2001-2019
</metadata>
<g transform="translate(0.000000,68.000000) scale(0.100000,-0.100000)"
fill="#000000" stroke="none">
<path d="M489 541 l20 -39 -37 -5 c-20 -3 -70 -9 -110 -13 -71 -7 -98 -18 -68
-30 12 -5 16 -22 16 -75 0 -93 -35 -192 -100 -281 -56 -77 -46 -89 23 -27 72
63 108 149 141 340 6 35 9 37 54 44 26 4 107 13 181 19 86 7 136 15 138 23 6
17 -58 27 -118 19 -45 -6 -49 -5 -49 13 0 24 -46 51 -85 51 l-25 0 19 -39z"/>
<path d="M150 406 c0 -15 55 -76 69 -76 20 0 33 28 21 50 -18 33 -90 55 -90
26z"/>
<path d="M510 408 c-124 -15 -112 -32 17 -24 118 7 146 12 137 27 -6 11 -52
10 -154 -3z"/>
<path d="M560 323 c-47 -7 -107 -11 -134 -8 l-48 6 21 -27 c11 -15 21 -33 21
-41 0 -8 14 -46 30 -85 17 -38 30 -74 30 -78 0 -5 -38 -11 -85 -15 -47 -4 -85
-11 -85 -15 0 -14 56 -19 125 -10 39 5 138 9 222 10 85 0 154 4 158 9 13 21
-39 34 -117 28 -43 -3 -78 -4 -78 -3 0 1 11 17 25 36 27 36 33 70 13 70 -9 0
-9 3 0 12 7 7 12 19 12 27 0 8 12 27 27 43 l26 28 -36 15 c-20 8 -38 14 -39
14 -2 -1 -41 -8 -88 -16z m72 -25 c3 -7 2 -23 0 -35 -5 -25 -15 -29 -109 -37
l-62 -6 -6 31 c-4 17 -5 32 -2 35 5 5 109 21 149 23 14 0 28 -4 30 -11z m-22
-125 c0 -74 -7 -83 -60 -83 -44 0 -47 2 -43 23 3 15 -4 32 -21 50 -14 16 -26
30 -26 32 0 5 48 12 103 14 l47 1 0 -37z"/>
<path d="M220 284 c-19 -13 -52 -30 -72 -36 -39 -12 -47 -25 -26 -46 21 -21
42 -13 96 39 70 69 72 92 2 43z"/>
</g>
</svg>
