<?xml version="1.0" standalone="no"?>
<!DOCTYPE svg PUBLIC "-//W3C//DTD SVG 20010904//EN"
 "http://www.w3.org/TR/2001/REC-SVG-20010904/DTD/svg10.dtd">
<svg version="1.0" xmlns="http://www.w3.org/2000/svg"
 width="96.000000pt" height="68.000000pt" viewBox="0 0 96.000000 68.000000"
 preserveAspectRatio="xMidYMid meet">
<metadata>
Created by potrace 1.16, written by Peter Selinger 2001-2019
</metadata>
<g transform="translate(0.000000,68.000000) scale(0.100000,-0.100000)"
fill="#000000" stroke="none">
<path d="M585 499 c-71 -10 -142 -16 -157 -13 -17 3 -28 1 -28 -5 0 -6 4 -11
9 -11 12 0 27 -43 42 -115 13 -64 28 -93 39 -76 3 6 57 12 121 15 l114 3 36
99 37 99 -22 12 c-26 15 -30 15 -191 -8z m135 -43 c0 -34 0 -34 -51 -38 -48
-3 -50 -2 -46 20 3 14 -1 26 -9 29 -28 11 -1 23 52 23 l54 0 0 -34z m-160 -33
c0 -21 -5 -23 -44 -23 -37 0 -45 4 -50 23 -10 40 -7 46 32 49 42 3 62 -12 62
-49z m150 -37 c0 -43 -18 -62 -59 -64 -41 -3 -41 -2 -41 32 0 32 3 35 33 39
62 7 67 7 67 -7z m-144 -30 c8 -35 -2 -46 -42 -46 -27 0 -34 4 -34 19 0 11 -3
26 -6 35 -5 13 2 16 35 16 35 0 41 -4 47 -24z"/>
</g>
</svg>
