<?xml version="1.0" standalone="no"?>
<!DOCTYPE svg PUBLIC "-//W3C//DTD SVG 20010904//EN"
 "http://www.w3.org/TR/2001/REC-SVG-20010904/DTD/svg10.dtd">
<svg version="1.0" xmlns="http://www.w3.org/2000/svg"
 width="96.000000pt" height="68.000000pt" viewBox="0 0 96.000000 68.000000"
 preserveAspectRatio="xMidYMid meet">
<metadata>
Created by potrace 1.16, written by Peter Selinger 2001-2019
</metadata>
<g transform="translate(0.000000,68.000000) scale(0.100000,-0.100000)"
fill="#000000" stroke="none">
<path d="M529 604 c0 -5 0 -33 1 -63 2 -60 -7 -71 -55 -71 -23 0 -27 -3 -15
-10 8 -5 30 -10 48 -10 29 0 32 -3 32 -30 0 -23 5 -30 19 -30 15 0 21 8 23 32
3 30 7 33 53 43 37 8 45 12 32 18 -10 4 -32 7 -48 7 -29 0 -29 1 -29 55 0 41
-4 55 -14 55 -8 0 -21 3 -30 6 -9 3 -16 2 -17 -2z"/>
</g>
</svg>
