<?xml version="1.0" standalone="no"?>
<!DOCTYPE svg PUBLIC "-//W3C//DTD SVG 20010904//EN"
 "http://www.w3.org/TR/2001/REC-SVG-20010904/DTD/svg10.dtd">
<svg version="1.0" xmlns="http://www.w3.org/2000/svg"
 width="96.000000pt" height="68.000000pt" viewBox="0 0 96.000000 68.000000"
 preserveAspectRatio="xMidYMid meet">
<metadata>
Created by potrace 1.16, written by Peter Selinger 2001-2019
</metadata>
<g transform="translate(0.000000,68.000000) scale(0.100000,-0.100000)"
fill="#000000" stroke="none">
<path d="M558 427 l4 -134 -42 -7 -42 -7 39 -37 c21 -21 44 -50 52 -65 13 -25
13 -29 -5 -42 -10 -8 -35 -20 -54 -26 -19 -6 -39 -16 -45 -21 -15 -15 59 0
102 20 34 16 35 16 57 -8 41 -48 71 -60 146 -60 40 0 70 4 70 10 0 6 -5 10
-12 10 -25 0 -178 81 -178 95 0 7 16 41 36 74 20 33 33 65 29 71 -4 7 -27 10
-57 8 l-50 -3 -2 47 -2 47 68 11 c64 11 84 23 56 33 -7 2 -35 -2 -63 -9 -27
-8 -51 -14 -52 -14 -1 0 -3 30 -5 68 -3 63 -4 67 -28 70 l-26 3 4 -134z m92
-157 c0 -20 -29 -80 -39 -80 -5 0 -23 17 -41 38 l-31 37 28 6 c45 11 83 10 83
-1z"/>
<path d="M220 541 c0 -4 9 -20 20 -34 11 -14 20 -27 20 -30 0 -3 -38 -11 -85
-18 -52 -7 -84 -17 -82 -23 6 -18 56 -19 141 -2 45 9 112 18 149 22 43 3 67
10 64 17 -5 17 -59 27 -94 18 -35 -10 -43 -6 -43 21 0 11 -11 23 -26 28 -31
12 -64 13 -64 1z"/>
<path d="M285 410 c-16 -4 -52 -8 -80 -9 -27 -1 -45 -5 -39 -9 7 -4 19 -24 27
-44 17 -41 25 -43 111 -32 32 5 46 11 46 22 0 9 7 23 16 33 36 40 -4 59 -81
39z m38 -33 c8 -22 -6 -34 -50 -42 -35 -5 -43 -4 -52 14 -15 27 -14 29 12 34
48 9 85 7 90 -6z"/>
<path d="M275 274 c-44 -8 -98 -14 -120 -13 -57 1 -59 1 -45 -16 7 -8 15 -49
19 -92 4 -47 11 -78 19 -81 9 -3 12 18 12 81 l0 86 53 10 c28 6 84 12 122 13
l70 3 2 -45 c1 -25 -2 -61 -6 -80 -6 -30 -11 -35 -34 -33 -32 2 -32 0 -11 -32
20 -31 49 -32 68 -2 21 31 39 186 25 204 -14 16 -69 15 -174 -3z"/>
<path d="M245 220 c-33 -4 -55 -7 -49 -8 6 -1 17 -22 24 -45 l12 -44 50 12
c43 9 52 16 64 44 22 53 20 54 -101 41z m65 -35 c0 -18 -7 -26 -24 -31 -31 -7
-46 1 -46 26 0 17 14 24 58 29 7 0 12 -10 12 -24z"/>
</g>
</svg>
