<?xml version="1.0" standalone="no"?>
<!DOCTYPE svg PUBLIC "-//W3C//DTD SVG 20010904//EN"
 "http://www.w3.org/TR/2001/REC-SVG-20010904/DTD/svg10.dtd">
<svg version="1.0" xmlns="http://www.w3.org/2000/svg"
 width="96.000000pt" height="68.000000pt" viewBox="0 0 96.000000 68.000000"
 preserveAspectRatio="xMidYMid meet">
<metadata>
Created by potrace 1.16, written by Peter Selinger 2001-2019
</metadata>
<g transform="translate(0.000000,68.000000) scale(0.100000,-0.100000)"
fill="#000000" stroke="none">
<path d="M335 284 c-38 -8 -107 -15 -153 -17 -69 -2 -81 -4 -76 -17 16 -40 25
-85 23 -119 -3 -53 -1 -61 16 -61 12 0 15 16 15 84 l0 84 63 11 c185 32 194
28 183 -70 -7 -76 -11 -82 -48 -74 l-30 7 23 -31 c47 -64 84 -28 100 100 10
80 9 85 -11 101 -12 10 -25 17 -29 17 -3 -1 -37 -8 -76 -15z"/>
</g>
</svg>
