<?xml version="1.0" standalone="no"?>
<!DOCTYPE svg PUBLIC "-//W3C//DTD SVG 20010904//EN"
 "http://www.w3.org/TR/2001/REC-SVG-20010904/DTD/svg10.dtd">
<svg version="1.0" xmlns="http://www.w3.org/2000/svg"
 width="90.000000pt" height="92.000000pt" viewBox="0 0 90.000000 92.000000"
 preserveAspectRatio="xMidYMid meet">
<metadata>
Created by potrace 1.16, written by Peter Selinger 2001-2019
</metadata>
<g transform="translate(0.000000,92.000000) scale(0.100000,-0.100000)"
fill="#000000" stroke="none">
<path d="M525 800 c-26 -8 -151 -27 -304 -46 -40 -5 -42 -7 -28 -21 11 -12 34
-16 81 -15 38 1 66 -3 66 -9 0 -15 -40 -90 -68 -126 -13 -18 -39 -42 -58 -54
-36 -22 -42 -44 -21 -73 12 -17 16 -17 58 -3 24 8 61 18 81 22 41 8 45 2 51
-82 l3 -42 -88 -12 c-48 -6 -88 -16 -88 -21 0 -18 51 -27 115 -21 l65 6 0 -56
c0 -66 14 -60 -203 -78 -81 -7 -147 -16 -147 -21 0 -5 17 -16 37 -25 34 -14
46 -14 133 1 121 21 316 35 493 36 75 0 137 4 137 8 0 16 -36 42 -68 48 -18 4
-74 2 -125 -4 -50 -7 -118 -14 -149 -17 l-58 -6 0 60 c0 68 -13 59 119 78 58
9 77 27 39 39 -28 9 -99 8 -128 -1 -20 -6 -21 -4 -19 45 2 42 -1 55 -16 66
-10 8 -17 15 -14 18 2 2 36 10 74 19 l70 15 29 -29 c22 -23 32 -27 42 -18 23
19 17 66 -13 95 -28 28 -130 80 -140 71 -3 -3 11 -26 31 -50 l37 -45 -63 -10
c-35 -6 -88 -13 -118 -17 -30 -4 -63 -9 -72 -11 -30 -9 -20 11 43 87 51 61 60
77 55 101 -5 27 -4 28 32 28 44 1 191 26 200 35 9 9 -21 33 -48 39 -14 2 -38
1 -55 -4z"/>
</g>
</svg>
