<?xml version="1.0" standalone="no"?>
<!DOCTYPE svg PUBLIC "-//W3C//DTD SVG 20010904//EN"
 "http://www.w3.org/TR/2001/REC-SVG-20010904/DTD/svg10.dtd">
<svg version="1.0" xmlns="http://www.w3.org/2000/svg"
 width="96.000000pt" height="68.000000pt" viewBox="0 0 96.000000 68.000000"
 preserveAspectRatio="xMidYMid meet">
<metadata>
Created by potrace 1.16, written by Peter Selinger 2001-2019
</metadata>
<g transform="translate(0.000000,68.000000) scale(0.100000,-0.100000)"
fill="#000000" stroke="none">
<path d="M410 326 l0 -35 -57 -6 c-153 -16 -157 -17 -138 -27 10 -6 52 -8 104
-4 l87 7 -4 -35 c-7 -56 29 -42 43 17 6 24 12 27 49 27 22 0 71 3 109 7 58 5
65 8 55 21 -10 12 -30 13 -105 8 l-92 -7 2 28 c2 24 -2 28 -25 31 -26 3 -28 1
-28 -32z"/>
</g>
</svg>
