<?xml version="1.0" standalone="no"?>
<!DOCTYPE svg PUBLIC "-//W3C//DTD SVG 20010904//EN"
 "http://www.w3.org/TR/2001/REC-SVG-20010904/DTD/svg10.dtd">
<svg version="1.0" xmlns="http://www.w3.org/2000/svg"
 width="96.000000pt" height="68.000000pt" viewBox="0 0 96.000000 68.000000"
 preserveAspectRatio="xMidYMid meet">
<metadata>
Created by potrace 1.16, written by Peter Selinger 2001-2019
</metadata>
<g transform="translate(0.000000,68.000000) scale(0.100000,-0.100000)"
fill="#000000" stroke="none">
<path d="M407 613 c-4 -3 -7 -15 -7 -25 0 -11 -6 -31 -14 -46 -29 -56 -217
-219 -238 -206 -6 4 -8 3 -5 -3 4 -5 -5 -16 -18 -23 -35 -19 -31 -29 8 -20 66
15 149 70 244 163 l72 70 78 -69 c43 -38 94 -84 113 -101 31 -29 42 -33 91
-33 62 0 119 9 119 19 0 3 -39 20 -87 36 -133 46 -293 153 -293 196 0 32 -44
61 -63 42z"/>
<path d="M498 405 c-3 -3 -42 -12 -88 -20 -97 -17 -112 -25 -47 -25 47 0 47 0
47 -34 l0 -35 -57 -6 c-126 -13 -143 -16 -137 -27 4 -7 38 -8 98 -3 l92 7 -4
-36 -4 -36 -59 0 c-32 0 -59 -2 -59 -5 0 -2 6 -19 14 -37 8 -18 18 -50 21 -71
6 -36 7 -37 43 -32 20 2 81 7 135 11 80 5 97 9 93 20 -3 8 4 36 16 61 21 45
21 46 2 60 -15 11 -37 13 -96 8 l-77 -6 10 33 c5 18 9 33 9 34 0 1 50 5 110 9
97 6 109 9 99 22 -11 12 -29 13 -104 8 l-91 -7 0 35 c0 33 2 35 39 40 37 5 55
13 46 21 -9 8 -46 16 -51 11z m42 -265 c0 -23 -5 -43 -12 -45 -21 -8 -142 -21
-160 -17 -14 3 -32 44 -33 77 0 10 69 20 158 23 l47 2 0 -40z"/>
</g>
</svg>
