<?xml version="1.0" standalone="no"?>
<!DOCTYPE svg PUBLIC "-//W3C//DTD SVG 20010904//EN"
 "http://www.w3.org/TR/2001/REC-SVG-20010904/DTD/svg10.dtd">
<svg version="1.0" xmlns="http://www.w3.org/2000/svg"
 width="96.000000pt" height="68.000000pt" viewBox="0 0 96.000000 68.000000"
 preserveAspectRatio="xMidYMid meet">
<metadata>
Created by potrace 1.16, written by Peter Selinger 2001-2019
</metadata>
<g transform="translate(0.000000,68.000000) scale(0.100000,-0.100000)"
fill="#000000" stroke="none">
<path d="M401 568 c-16 -52 -139 -177 -231 -234 -33 -20 -60 -39 -60 -42 0 -2
12 -1 27 3 54 13 165 89 236 161 l71 72 36 -28 c19 -15 73 -62 119 -104 90
-82 94 -83 195 -70 44 6 65 24 29 24 -39 1 -199 78 -278 135 -71 50 -83 63
-79 81 4 16 0 26 -14 33 -32 17 -38 14 -51 -31z"/>
</g>
</svg>
