<?xml version="1.0" standalone="no"?>
<!DOCTYPE svg PUBLIC "-//W3C//DTD SVG 20010904//EN"
 "http://www.w3.org/TR/2001/REC-SVG-20010904/DTD/svg10.dtd">
<svg version="1.0" xmlns="http://www.w3.org/2000/svg"
 width="96.000000pt" height="68.000000pt" viewBox="0 0 96.000000 68.000000"
 preserveAspectRatio="xMidYMid meet">
<metadata>
Created by potrace 1.16, written by Peter Selinger 2001-2019
</metadata>
<g transform="translate(0.000000,68.000000) scale(0.100000,-0.100000)"
fill="#000000" stroke="none">
<path d="M652 434 c-24 -7 -70 -16 -103 -20 -33 -4 -62 -10 -64 -14 -3 -5 7
-19 23 -32 15 -12 42 -46 59 -75 37 -59 38 -58 -61 -117 -53 -32 -57 -36 -32
-36 16 0 55 14 88 30 l60 31 36 -41 37 -41 85 3 85 3 -75 37 c-41 20 -87 47
-103 60 l-27 23 46 88 c25 49 42 92 38 97 -18 16 -50 17 -92 4z m-2 -111 l-21
-47 -39 44 c-22 25 -39 50 -40 56 0 5 26 17 58 25 57 15 57 15 60 -8 2 -12 -6
-44 -18 -70z"/>
</g>
</svg>
