<?xml version="1.0" standalone="no"?>
<!DOCTYPE svg PUBLIC "-//W3C//DTD SVG 20010904//EN"
 "http://www.w3.org/TR/2001/REC-SVG-20010904/DTD/svg10.dtd">
<svg version="1.0" xmlns="http://www.w3.org/2000/svg"
 width="90.000000pt" height="92.000000pt" viewBox="0 0 90.000000 92.000000"
 preserveAspectRatio="xMidYMid meet">
<metadata>
Created by potrace 1.16, written by Peter Selinger 2001-2019
</metadata>
<g transform="translate(0.000000,92.000000) scale(0.100000,-0.100000)"
fill="#000000" stroke="none">
<path d="M337 781 c-7 -57 -55 -156 -114 -238 -29 -40 -49 -73 -46 -73 19 0
98 80 138 140 26 39 49 70 53 70 3 0 32 -20 63 -45 62 -49 89 -56 89 -25 0 30
-33 57 -94 76 l-56 18 21 35 21 35 -27 23 c-36 31 -42 29 -48 -16z"/>
<path d="M601 733 c-7 -43 -28 -123 -46 -178 l-33 -100 27 33 c23 27 34 32 70
32 29 0 43 -5 48 -16 7 -19 -14 -175 -25 -186 -5 -5 -23 12 -42 37 -33 44 -50
56 -50 35 0 -6 16 -35 36 -64 29 -44 34 -58 25 -74 -15 -29 -80 -82 -120 -100
-31 -14 -33 -17 -14 -20 33 -5 120 37 150 72 24 29 27 30 37 12 6 -10 26 -38
44 -62 32 -42 35 -44 85 -43 29 0 61 4 72 8 17 7 14 11 -25 31 -52 26 -115 69
-147 99 -18 17 -20 26 -13 48 23 68 41 204 30 218 -14 16 -7 21 47 30 55 9 63
22 22 39 -29 12 -39 11 -96 -10 -90 -34 -98 -33 -74 14 10 20 29 70 42 111
l24 73 -24 19 c-13 10 -26 19 -30 19 -4 0 -13 -35 -20 -77z"/>
<path d="M116 773 c-8 -8 44 -72 67 -85 16 -8 23 -7 33 6 15 21 8 52 -14 61
-30 13 -81 23 -86 18z"/>
<path d="M30 573 c0 -19 78 -85 96 -81 29 5 25 50 -6 64 -36 17 -90 27 -90 17z"/>
<path d="M333 541 c-66 -17 -76 -25 -43 -36 21 -7 129 12 151 26 12 8 12 11
-1 19 -18 12 -29 11 -107 -9z"/>
<path d="M426 458 c-11 -6 -32 -11 -47 -10 -25 1 -26 -2 -18 -26 5 -15 11 -44
14 -65 5 -30 10 -37 22 -33 23 9 11 -42 -33 -134 -34 -73 -35 -74 -9 -50 15
14 34 37 43 52 l16 28 33 -32 c26 -25 36 -29 45 -20 15 15 1 42 -31 58 -33 17
-34 20 -16 55 16 31 16 33 -1 46 -16 12 -15 13 10 13 21 0 27 4 22 15 -3 9 2
34 11 56 14 35 14 42 2 50 -19 12 -40 11 -63 -3z m24 -46 c0 -32 -16 -52 -42
-52 -25 0 -26 66 0 73 36 10 42 7 42 -21z"/>
<path d="M280 430 c-8 -5 -30 -10 -49 -10 -25 0 -31 -3 -23 -12 5 -7 13 -33
17 -58 9 -55 15 -66 26 -49 6 10 9 7 9 -11 0 -24 -32 -89 -75 -154 -29 -44 3
-22 48 32 l35 42 26 -32 c20 -26 28 -30 38 -20 15 15 3 40 -28 56 -10 6 -21
12 -23 13 -2 1 4 14 13 28 10 15 15 33 12 41 -3 8 0 14 8 14 7 0 13 12 13 30
0 17 6 42 13 56 12 22 12 27 0 34 -19 12 -41 12 -60 0z m20 -54 c0 -26 -5 -35
-22 -39 -26 -7 -24 -10 -31 30 -5 25 -2 33 11 36 37 10 42 7 42 -27z"/>
<path d="M130 359 c-19 -38 -47 -82 -62 -97 -31 -31 -34 -57 -14 -107 20 -46
33 -44 46 8 6 23 27 90 46 149 38 119 37 118 26 118 -5 0 -23 -32 -42 -71z"/>
</g>
</svg>
