<?xml version="1.0" standalone="no"?>
<!DOCTYPE svg PUBLIC "-//W3C//DTD SVG 20010904//EN"
 "http://www.w3.org/TR/2001/REC-SVG-20010904/DTD/svg10.dtd">
<svg version="1.0" xmlns="http://www.w3.org/2000/svg"
 width="96.000000pt" height="68.000000pt" viewBox="0 0 96.000000 68.000000"
 preserveAspectRatio="xMidYMid meet">
<metadata>
Created by potrace 1.16, written by Peter Selinger 2001-2019
</metadata>
<g transform="translate(0.000000,68.000000) scale(0.100000,-0.100000)"
fill="#000000" stroke="none">
<path d="M535 579 c-44 -5 -144 -10 -222 -11 l-142 -3 7 -25 c9 -32 9 -207 0
-335 -6 -82 -4 -104 8 -120 14 -19 16 -19 25 -2 9 15 31 17 238 17 215 0 229
-1 246 -20 23 -26 41 -25 56 2 9 16 10 73 5 210 -5 135 -4 199 4 224 10 30 10
39 -4 52 -19 20 -107 24 -221 11z m156 -46 c13 -33 25 -315 15 -364 l-6 -34
-240 -3 -240 -4 1 89 c1 48 4 140 8 203 l6 115 150 11 c83 6 183 12 223 12 70
2 73 1 83 -25z"/>
</g>
</svg>
