<?xml version="1.0" standalone="no"?>
<!DOCTYPE svg PUBLIC "-//W3C//DTD SVG 20010904//EN"
 "http://www.w3.org/TR/2001/REC-SVG-20010904/DTD/svg10.dtd">
<svg version="1.0" xmlns="http://www.w3.org/2000/svg"
 width="90.000000pt" height="92.000000pt" viewBox="0 0 90.000000 92.000000"
 preserveAspectRatio="xMidYMid meet">
<metadata>
Created by potrace 1.16, written by Peter Selinger 2001-2019
</metadata>
<g transform="translate(0.000000,92.000000) scale(0.100000,-0.100000)"
fill="#000000" stroke="none">
<path d="M544 795 c-4 -8 0 -22 7 -31 9 -11 14 -70 17 -203 l5 -188 -47 -7
c-25 -4 -50 -4 -56 -1 -20 12 -30 -6 -16 -28 8 -12 19 -62 25 -110 6 -48 13
-92 16 -97 9 -15 25 -12 25 4 0 11 29 15 130 21 72 4 130 10 130 14 0 4 -5 12
-11 18 -12 12 2 74 29 132 15 33 15 34 -13 59 -29 25 -60 26 -140 6 l-25 -6 0
85 0 84 78 7 c93 8 116 19 88 41 -24 18 -28 18 -96 0 -30 -8 -59 -15 -64 -15
-9 0 -2 123 9 171 6 23 2 28 -34 43 -50 20 -50 20 -57 1z m164 -443 c15 -10 5
-127 -12 -142 -7 -5 -49 -12 -94 -16 l-82 -7 -2 47 c-4 112 -13 100 77 112 44
6 85 12 90 13 6 0 16 -3 23 -7z"/>
<path d="M295 754 c-33 -7 -99 -16 -147 -20 l-87 -7 14 -26 c7 -15 20 -66 28
-115 17 -96 20 -104 39 -89 7 6 29 13 49 17 34 6 37 5 42 -21 6 -31 -6 -43
-43 -43 -38 0 -70 -11 -64 -21 3 -5 30 -9 60 -9 53 0 54 0 54 -30 0 -16 -1
-30 -2 -30 -16 0 -172 -31 -176 -34 -2 -3 7 -11 22 -17 21 -10 45 -9 119 4 51
10 113 17 138 18 24 0 52 4 62 8 17 6 17 8 -2 25 -17 15 -30 18 -74 13 l-54
-7 5 29 c3 25 10 31 43 36 21 4 42 11 45 17 10 17 -18 29 -53 23 -31 -6 -33
-4 -33 25 0 28 2 30 39 30 22 0 43 -5 46 -10 12 -20 33 10 56 78 11 37 30 82
40 100 l19 33 -33 19 c-37 23 -67 24 -152 4z m94 -66 c0 -24 -6 -61 -13 -83
-11 -38 -13 -40 -54 -40 l-43 0 2 75 c2 83 6 88 72 89 l37 1 -1 -42z m-161
-59 l3 -76 -42 -7 c-23 -4 -43 -5 -44 -4 -2 2 -6 40 -10 86 l-7 83 48 -3 49
-3 3 -76z"/>
<path d="M309 641 l-15 -50 38 31 c43 34 46 43 19 58 -26 14 -24 16 -42 -39z"/>
<path d="M150 650 c0 -22 32 -71 43 -67 17 6 10 50 -10 65 -21 15 -33 16 -33
2z"/>
<path d="M355 261 c29 -58 38 -66 55 -46 19 22 4 63 -30 80 -47 24 -52 18 -25
-34z"/>
<path d="M256 268 c13 -42 34 -87 43 -92 5 -3 14 1 21 9 16 20 3 71 -23 90
-32 22 -50 19 -41 -7z"/>
<path d="M47 206 c-31 -65 -33 -79 -12 -96 36 -30 76 63 53 120 l-13 32 -28
-56z"/>
<path d="M161 238 c1 -38 25 -93 40 -93 24 0 24 70 0 94 -27 27 -41 27 -40 -1z"/>
</g>
</svg>
