<?xml version="1.0" standalone="no"?>
<!DOCTYPE svg PUBLIC "-//W3C//DTD SVG 20010904//EN"
 "http://www.w3.org/TR/2001/REC-SVG-20010904/DTD/svg10.dtd">
<svg version="1.0" xmlns="http://www.w3.org/2000/svg"
 width="96.000000pt" height="68.000000pt" viewBox="0 0 96.000000 68.000000"
 preserveAspectRatio="xMidYMid meet">
<metadata>
Created by potrace 1.16, written by Peter Selinger 2001-2019
</metadata>
<g transform="translate(0.000000,68.000000) scale(0.100000,-0.100000)"
fill="#000000" stroke="none">
<path d="M574 608 c-8 -40 -11 -43 -46 -46 -45 -4 -51 -22 -7 -22 29 0 30 -2
24 -32 l-6 -33 34 38 c30 33 40 37 83 38 27 1 60 4 74 8 39 11 7 24 -56 23
-51 0 -53 1 -43 20 12 22 12 21 -18 37 -30 15 -28 16 -39 -31z"/>
<path d="M324 591 c9 -16 16 -32 16 -35 0 -3 -31 -8 -70 -12 -38 -3 -70 -10
-70 -15 0 -16 54 -22 103 -12 46 9 49 9 58 -14 12 -32 29 -29 29 6 0 24 5 30
33 37 l32 8 -37 3 c-31 4 -37 8 -40 31 -2 22 -9 28 -36 30 l-33 3 15 -30z"/>
</g>
</svg>
