<?xml version="1.0" standalone="no"?>
<!DOCTYPE svg PUBLIC "-//W3C//DTD SVG 20010904//EN"
 "http://www.w3.org/TR/2001/REC-SVG-20010904/DTD/svg10.dtd">
<svg version="1.0" xmlns="http://www.w3.org/2000/svg"
 width="96.000000pt" height="68.000000pt" viewBox="0 0 96.000000 68.000000"
 preserveAspectRatio="xMidYMid meet">
<metadata>
Created by potrace 1.16, written by Peter Selinger 2001-2019
</metadata>
<g transform="translate(0.000000,68.000000) scale(0.100000,-0.100000)"
fill="#000000" stroke="none">
<path d="M568 613 c-3 -35 -6 -38 -46 -48 -34 -8 -41 -12 -31 -22 7 -7 24 -13
36 -13 20 0 22 -3 13 -19 -13 -26 -13 -31 4 -31 8 0 25 14 39 31 21 27 31 31
92 37 38 4 70 12 72 19 5 14 -68 27 -98 18 -18 -6 -20 -4 -14 14 8 28 -10 51
-41 51 -19 0 -23 -6 -26 -37z"/>
<path d="M314 608 c4 -13 10 -31 13 -40 5 -16 -2 -18 -60 -18 -73 0 -86 -8
-57 -35 19 -18 31 -17 112 1 23 5 29 2 38 -21 13 -33 36 -27 32 8 -2 22 2 28
25 33 47 11 50 19 8 24 -33 4 -41 9 -44 30 -4 29 -17 40 -50 40 -20 0 -22 -4
-17 -22z"/>
<path d="M379 437 c-15 -30 -101 -109 -130 -119 -8 -3 -11 -8 -8 -12 7 -7 50
13 101 48 20 13 52 19 120 22 51 2 110 6 132 9 61 9 66 -2 66 -131 0 -66 -5
-124 -12 -139 -11 -24 -15 -26 -52 -20 l-41 7 42 -43 c36 -37 44 -41 58 -29
35 29 48 74 55 195 4 66 8 125 10 130 7 27 -3 44 -33 58 -28 14 -40 14 -97 2
-82 -17 -180 -28 -180 -19 0 3 10 14 22 24 19 15 20 20 9 34 -21 25 -44 19
-62 -17z"/>
<path d="M342 293 c-52 -3 -63 -7 -58 -19 3 -9 6 -48 6 -88 l0 -72 86 4 c64 3
88 1 94 -9 7 -10 11 -10 24 0 13 11 16 31 14 100 l-3 86 -50 1 c-27 0 -79 -1
-113 -3z m118 -43 c0 -27 -3 -30 -32 -30 -18 0 -50 -3 -71 -7 -38 -6 -39 -5
-35 23 3 32 25 41 96 43 40 1 42 0 42 -29z m8 -75 c0 -19 -6 -25 -22 -25 -11
0 -45 -3 -73 -6 -52 -7 -53 -6 -53 19 0 28 13 32 106 35 38 2 42 0 42 -23z"/>
</g>
</svg>
