<?xml version="1.0" standalone="no"?>
<!DOCTYPE svg PUBLIC "-//W3C//DTD SVG 20010904//EN"
 "http://www.w3.org/TR/2001/REC-SVG-20010904/DTD/svg10.dtd">
<svg version="1.0" xmlns="http://www.w3.org/2000/svg"
 width="96.000000pt" height="68.000000pt" viewBox="0 0 96.000000 68.000000"
 preserveAspectRatio="xMidYMid meet">
<metadata>
Created by potrace 1.16, written by Peter Selinger 2001-2019
</metadata>
<g transform="translate(0.000000,68.000000) scale(0.100000,-0.100000)"
fill="#000000" stroke="none">
<path d="M550 281 c0 -6 4 -11 8 -11 5 0 9 -7 9 -15 0 -8 -3 -12 -7 -10 -4 3
-15 -4 -25 -15 -16 -18 -16 -20 -2 -20 10 0 17 -5 17 -11 0 -5 -5 -7 -11 -4
-5 4 -34 -16 -64 -44 -30 -28 -50 -51 -45 -51 5 0 15 7 23 15 8 8 18 11 22 7
5 -4 5 -1 1 6 -4 7 -1 12 8 12 8 0 20 8 25 18 5 10 18 18 28 19 18 1 19 -5 16
-72 -3 -73 8 -104 28 -74 10 15 6 121 -6 154 -6 16 -5 17 5 5 9 -13 10 -12 8
5 -1 11 1 26 5 33 5 6 4 12 -1 12 -5 0 -9 10 -8 22 1 14 -6 24 -16 26 -10 2
-18 -1 -18 -7z"/>
<path d="M663 242 c-18 -2 -33 -8 -33 -13 0 -6 5 -7 11 -4 5 4 51 7 100 7 49
0 87 3 84 7 -7 6 -107 8 -162 3z"/>
<path d="M393 223 c-23 -9 -14 -20 15 -18 78 5 79 6 57 15 -22 10 -54 11 -72
3z"/>
<path d="M490 220 c0 -5 5 -10 10 -10 6 0 10 5 10 10 0 6 -4 10 -10 10 -5 0
-10 -4 -10 -10z"/>
<path d="M662 127 c58 -59 84 -68 133 -47 l20 9 -20 1 c-11 0 -31 7 -45 15
-18 9 -29 10 -38 3 -9 -8 -11 -7 -6 6 4 12 0 16 -15 16 -12 0 -21 5 -21 10 0
6 -5 10 -12 10 -6 0 -21 8 -32 17 -12 9 4 -9 36 -40z"/>
</g>
</svg>
