<?xml version="1.0" standalone="no"?>
<!DOCTYPE svg PUBLIC "-//W3C//DTD SVG 20010904//EN"
 "http://www.w3.org/TR/2001/REC-SVG-20010904/DTD/svg10.dtd">
<svg version="1.0" xmlns="http://www.w3.org/2000/svg"
 width="96.000000pt" height="68.000000pt" viewBox="0 0 96.000000 68.000000"
 preserveAspectRatio="xMidYMid meet">
<metadata>
Created by potrace 1.16, written by Peter Selinger 2001-2019
</metadata>
<g transform="translate(0.000000,68.000000) scale(0.100000,-0.100000)"
fill="#000000" stroke="none">
<path d="M572 256 c-79 -8 -110 -14 -103 -21 6 -6 16 -38 22 -70 12 -67 28
-103 38 -87 3 5 57 13 119 17 61 4 112 11 112 16 0 5 -5 9 -10 9 -12 0 14 67
35 90 21 23 19 35 -10 48 -29 13 -44 13 -203 -2z m148 -21 c0 -2 -5 -26 -11
-54 l-10 -50 -55 -7 c-65 -8 -103 -8 -110 -2 -2 3 -7 28 -11 56 l-6 51 39 4
c59 6 164 8 164 2z"/>
</g>
</svg>
