<?xml version="1.0" standalone="no"?>
<!DOCTYPE svg PUBLIC "-//W3C//DTD SVG 20010904//EN"
 "http://www.w3.org/TR/2001/REC-SVG-20010904/DTD/svg10.dtd">
<svg version="1.0" xmlns="http://www.w3.org/2000/svg"
 width="96.000000pt" height="68.000000pt" viewBox="0 0 96.000000 68.000000"
 preserveAspectRatio="xMidYMid meet">
<metadata>
Created by potrace 1.16, written by Peter Selinger 2001-2019
</metadata>
<g transform="translate(0.000000,68.000000) scale(0.100000,-0.100000)"
fill="#000000" stroke="none">
<path d="M735 110 c-4 -6 5 -22 20 -36 14 -13 22 -24 18 -24 -4 0 -1 -4 7 -10
22 -13 32 11 12 28 -9 7 -11 10 -3 6 10 -5 12 -3 7 5 -5 7 -15 10 -23 7 -8 -3
-12 -2 -9 3 3 5 -1 14 -8 20 -10 9 -16 9 -21 1z"/>
<path d="M628 103 c6 -2 10 -9 6 -14 -3 -5 2 -9 10 -9 9 0 16 -5 16 -11 0 -5
-5 -7 -12 -3 -7 4 -8 3 -4 -4 11 -17 26 -15 26 4 0 18 -28 44 -45 43 -5 0 -4
-3 3 -6z"/>
<path d="M417 71 c-12 -21 -14 -32 -6 -36 15 -10 31 9 34 39 4 34 -7 33 -28
-3z"/>
<path d="M533 75 c14 -30 27 -33 27 -6 0 10 -7 22 -16 25 -23 9 -23 8 -11 -19z"/>
</g>
</svg>
