<?xml version="1.0" standalone="no"?>
<!DOCTYPE svg PUBLIC "-//W3C//DTD SVG 20010904//EN"
 "http://www.w3.org/TR/2001/REC-SVG-20010904/DTD/svg10.dtd">
<svg version="1.0" xmlns="http://www.w3.org/2000/svg"
 width="96.000000pt" height="68.000000pt" viewBox="0 0 96.000000 68.000000"
 preserveAspectRatio="xMidYMid meet">
<metadata>
Created by potrace 1.16, written by Peter Selinger 2001-2019
</metadata>
<g transform="translate(0.000000,68.000000) scale(0.100000,-0.100000)"
fill="#000000" stroke="none">
<path d="M700 488 c-6 -18 -30 -54 -53 -80 l-42 -48 -99 -15 c-54 -8 -101 -17
-104 -19 -12 -12 55 -18 108 -9 50 8 58 7 48 -4 -14 -17 -157 -118 -178 -126
-13 -5 -13 -6 0 -6 28 -2 142 59 204 108 61 48 61 48 155 55 52 3 97 9 100 12
15 15 -31 25 -91 19 -38 -3 -68 -3 -68 0 0 3 21 29 47 56 l48 51 -24 19 c-32
26 -38 24 -51 -13z"/>
</g>
</svg>
