<?xml version="1.0" standalone="no"?>
<!DOCTYPE svg PUBLIC "-//W3C//DTD SVG 20010904//EN"
 "http://www.w3.org/TR/2001/REC-SVG-20010904/DTD/svg10.dtd">
<svg version="1.0" xmlns="http://www.w3.org/2000/svg"
 width="96.000000pt" height="68.000000pt" viewBox="0 0 96.000000 68.000000"
 preserveAspectRatio="xMidYMid meet">
<metadata>
Created by potrace 1.16, written by Peter Selinger 2001-2019
</metadata>
<g transform="translate(0.000000,68.000000) scale(0.100000,-0.100000)"
fill="#000000" stroke="none">
<path d="M580 604 c-25 -14 -65 -34 -90 -44 -25 -11 -40 -19 -35 -20 18 -1
225 55 225 61 0 5 -45 29 -53 29 -1 0 -22 -12 -47 -26z"/>
<path d="M301 558 c-6 -17 -18 -40 -27 -49 -16 -17 -18 -17 -55 4 -49 28 -60
16 -18 -21 l33 -29 -63 -47 c-72 -53 -56 -62 28 -16 30 17 57 30 61 30 4 0 13
-13 20 -29 9 -23 9 -34 0 -53 -17 -32 -87 -95 -135 -120 -22 -12 -35 -23 -29
-25 18 -6 96 32 134 65 l35 31 3 -49 c2 -26 -1 -63 -6 -82 -8 -32 -10 -33 -53
-30 l-44 3 42 -42 c41 -42 42 -42 67 -26 43 29 51 54 51 172 -1 109 -11 160
-42 196 -12 14 -7 22 34 63 l48 47 -24 19 c-33 28 -47 25 -60 -12z"/>
<path d="M670 540 c0 -6 -11 -28 -25 -50 -14 -22 -22 -40 -19 -40 3 0 28 17
55 39 36 29 45 41 36 50 -14 14 -47 15 -47 1z"/>
<path d="M520 520 c0 -19 32 -60 46 -60 23 0 16 37 -11 54 -28 19 -35 20 -35
6z"/>
<path d="M410 505 c0 -16 43 -65 56 -65 17 0 19 34 2 48 -17 13 -58 25 -58 17z"/>
<path d="M565 424 c-147 -18 -160 -21 -93 -23 52 -1 57 -3 66 -30 l10 -28 -51
-7 c-29 -3 -69 -6 -89 -6 -22 0 -38 -5 -38 -11 0 -9 24 -10 84 -6 78 5 85 4
91 -13 9 -29 -2 -40 -43 -41 -41 -1 -96 -16 -72 -19 8 -1 38 -3 65 -4 l50 -1
3 -52 c4 -67 -11 -97 -44 -89 -30 8 -30 3 0 -27 62 -62 80 -44 84 83 l4 100
62 0 63 0 1 36 c1 20 3 38 5 40 2 2 31 7 65 10 90 10 83 26 -13 28 -30 1 -32
6 -20 38 5 13 0 20 -20 28 -30 11 -24 12 -170 -6z m132 -30 c7 -22 -28 -44
-71 -44 -40 0 -42 2 -40 28 1 15 2 28 3 30 3 9 105 -5 108 -14z m-17 -84 c0
-22 -34 -40 -74 -40 -19 0 -22 4 -18 30 4 28 7 30 48 30 38 0 44 -3 44 -20z"/>
</g>
</svg>
