<?xml version="1.0" standalone="no"?>
<!DOCTYPE svg PUBLIC "-//W3C//DTD SVG 20010904//EN"
 "http://www.w3.org/TR/2001/REC-SVG-20010904/DTD/svg10.dtd">
<svg version="1.0" xmlns="http://www.w3.org/2000/svg"
 width="96.000000pt" height="68.000000pt" viewBox="0 0 96.000000 68.000000"
 preserveAspectRatio="xMidYMid meet">
<metadata>
Created by potrace 1.16, written by Peter Selinger 2001-2019
</metadata>
<g transform="translate(0.000000,68.000000) scale(0.100000,-0.100000)"
fill="#000000" stroke="none">
<path d="M363 584 c34 -105 54 -196 44 -199 -7 -2 -50 -8 -97 -15 -119 -15
-141 -20 -134 -31 8 -14 83 -11 169 7 42 9 78 14 79 12 1 -1 15 -36 30 -75 15
-40 44 -95 64 -122 54 -72 165 -148 222 -150 35 -1 38 12 21 82 -16 61 -31 79
-31 37 0 -9 -6 -24 -13 -34 -13 -18 -16 -18 -59 8 -63 36 -129 110 -161 178
-41 86 -42 85 71 93 107 7 132 12 132 25 0 21 -64 25 -151 11 -48 -8 -91 -12
-95 -9 -3 4 -9 45 -11 93 -3 47 -9 87 -12 89 -3 2 -21 7 -40 11 -30 6 -33 5
-28 -11z"/>
</g>
</svg>
