<?xml version="1.0" standalone="no"?>
<!DOCTYPE svg PUBLIC "-//W3C//DTD SVG 20010904//EN"
 "http://www.w3.org/TR/2001/REC-SVG-20010904/DTD/svg10.dtd">
<svg version="1.0" xmlns="http://www.w3.org/2000/svg"
 width="90.000000pt" height="92.000000pt" viewBox="0 0 90.000000 92.000000"
 preserveAspectRatio="xMidYMid meet">
<metadata>
Created by potrace 1.16, written by Peter Selinger 2001-2019
</metadata>
<g transform="translate(0.000000,92.000000) scale(0.100000,-0.100000)"
fill="#000000" stroke="none">
<path d="M669 873 c-1 -5 -1 -12 0 -17 1 -5 -1 -27 -4 -48 -6 -31 -11 -38 -30
-38 -34 0 -41 -18 -10 -26 29 -7 28 -5 15 -38 -13 -35 1 -33 25 5 23 35 51 49
100 49 19 0 36 4 40 9 9 16 -35 34 -66 27 -32 -6 -34 -4 -18 26 10 18 8 25
-11 40 -23 19 -39 23 -41 11z"/>
<path d="M250 807 c-30 -11 -77 -19 -103 -19 -42 1 -48 -1 -42 -16 7 -18 25
-162 25 -201 0 -21 -4 -23 -40 -19 l-39 3 -22 -57 c-17 -47 -19 -61 -9 -73 18
-21 35 -4 50 50 7 25 15 45 19 45 3 0 50 9 104 20 55 11 112 20 128 20 29 0
29 0 14 -30 -8 -16 -15 -32 -15 -35 0 -6 86 41 104 56 12 10 -53 49 -82 49
-18 0 -22 4 -18 18 6 21 36 164 36 174 0 4 -12 13 -27 21 -24 11 -35 10 -83
-6z m50 -56 c0 -26 -4 -30 -38 -36 -21 -3 -45 -5 -53 -3 -8 2 -13 -1 -13 -7
15 -112 14 -133 -2 -139 -9 -4 -18 -5 -19 -4 -6 8 -13 175 -7 184 9 13 68 32
105 33 23 1 27 -3 27 -28z m-12 -113 c-3 -46 -6 -53 -25 -56 -22 -3 -23 0 -23
52 0 53 1 56 26 56 24 0 25 -2 22 -52z"/>
<path d="M447 823 c-4 -3 0 -17 9 -31 24 -36 12 -52 -41 -52 -50 0 -57 -10
-23 -32 19 -13 27 -13 55 -1 32 13 34 12 43 -12 13 -34 30 -32 30 5 0 24 6 33
28 42 l27 12 -32 4 c-27 3 -33 8 -33 27 0 31 -44 57 -63 38z"/>
<path d="M605 660 c-16 -4 -63 -14 -102 -20 -76 -12 -95 -26 -42 -32 l30 -3
-51 -63 c-28 -35 -42 -58 -31 -53 27 15 29 15 46 -18 14 -28 14 -30 -13 -53
-15 -13 -39 -31 -52 -41 l-25 -18 25 7 c14 3 34 12 46 19 19 12 22 11 32 -19
17 -46 17 -46 -30 -46 -56 0 -79 -14 -50 -29 11 -6 34 -11 51 -11 21 0 31 -5
31 -15 0 -32 -33 -92 -73 -133 -44 -45 -43 -51 2 -28 44 23 90 83 104 133 13
51 24 58 104 65 l53 5 -6 -97 c-7 -99 0 -170 16 -170 12 0 18 38 25 162 l7
108 33 0 c53 0 125 12 125 21 0 16 -60 39 -85 34 -14 -3 -36 -7 -49 -10 -20
-4 -23 -2 -19 14 4 14 -3 24 -26 35 -33 18 -35 16 -31 -36 1 -24 -2 -28 -27
-28 -15 0 -46 -3 -67 -7 -38 -6 -39 -5 -33 19 6 23 3 28 -26 38 l-32 11 26 19
c15 11 48 45 75 76 46 54 47 57 28 71 -12 9 -32 12 -52 9 l-34 -5 24 23 c12
13 38 25 56 28 l32 5 0 -66 c0 -86 14 -112 69 -130 52 -16 138 -2 166 29 16
17 15 20 -8 55 l-25 37 -7 -31 c-4 -17 -15 -36 -25 -41 -29 -16 -106 -12 -124
6 -21 20 -20 44 0 44 34 0 124 32 118 42 -6 10 -41 7 -108 -8 -26 -6 -27 -5
-17 14 6 11 11 30 11 41 0 15 8 20 33 23 17 2 32 8 32 13 0 13 -90 16 -130 5z
m-65 -122 c0 -7 -10 -25 -23 -40 l-22 -27 -24 19 c-29 25 -16 47 32 53 18 2
33 5 35 5 1 1 2 -4 2 -10z"/>
<path d="M240 485 c-19 -7 -53 -14 -76 -14 l-41 -1 5 -79 c5 -94 -17 -205 -53
-268 -26 -47 -20 -56 12 -20 24 26 48 70 64 112 9 26 12 28 20 12 15 -26 33
-21 74 24 20 22 38 39 41 37 2 -3 1 -32 -2 -66 -6 -58 -8 -61 -35 -64 l-28 -3
34 -40 c32 -38 34 -39 52 -22 16 15 19 41 24 195 5 165 4 178 -14 195 -22 20
-30 20 -77 2z m42 -61 c5 -42 -1 -48 -37 -34 -14 5 -37 10 -51 10 -27 0 -30 8
-11 32 12 17 35 25 73 27 18 1 23 -6 26 -35z m-72 -65 c17 -13 37 -20 49 -16
23 6 39 -22 19 -35 -65 -44 -125 -61 -114 -32 3 9 6 36 6 60 0 24 2 44 5 44 3
0 19 -10 35 -21z"/>
</g>
</svg>
