<?xml version="1.0" standalone="no"?>
<!DOCTYPE svg PUBLIC "-//W3C//DTD SVG 20010904//EN"
 "http://www.w3.org/TR/2001/REC-SVG-20010904/DTD/svg10.dtd">
<svg version="1.0" xmlns="http://www.w3.org/2000/svg"
 width="96.000000pt" height="68.000000pt" viewBox="0 0 96.000000 68.000000"
 preserveAspectRatio="xMidYMid meet">
<metadata>
Created by potrace 1.16, written by Peter Selinger 2001-2019
</metadata>
<g transform="translate(0.000000,68.000000) scale(0.100000,-0.100000)"
fill="#000000" stroke="none">
<path d="M670 565 c0 -29 -4 -36 -27 -41 -26 -7 -26 -7 -5 -15 14 -5 20 -14
16 -24 -9 -22 11 -18 27 6 10 15 29 23 62 26 58 7 62 23 6 23 -37 0 -40 2 -34
21 5 14 2 25 -6 30 -27 17 -39 9 -39 -26z"/>
<path d="M295 554 c-27 -7 -67 -14 -87 -14 -21 0 -38 -3 -38 -7 0 -5 6 -42 14
-83 8 -41 13 -77 10 -79 -3 -3 -19 -5 -38 -4 -28 1 -34 -4 -44 -31 -16 -43
-15 -56 4 -56 8 0 21 15 29 34 15 35 8 33 145 52 8 1 35 5 59 9 l43 8 -16 -31
c-10 -19 -24 -30 -38 -31 -13 -1 -50 -4 -83 -7 l-60 -5 3 -57 c2 -32 -3 -85
-11 -119 -13 -58 -9 -93 13 -93 5 0 14 24 20 54 l11 54 47 5 c56 6 64 1 56
-41 -5 -23 -12 -32 -25 -32 -18 0 -19 -1 -3 -25 39 -60 67 -14 66 107 -1 48 3
100 9 114 7 20 7 29 -3 35 -15 10 -14 11 41 39 l44 22 -29 13 c-16 7 -36 15
-45 18 -15 5 -15 11 1 71 19 69 17 78 -25 89 -11 3 -42 -1 -70 -9z m45 -43 c0
-21 -19 -31 -60 -31 -28 0 -28 0 -18 -41 8 -29 8 -43 -1 -52 -18 -18 -31 10
-31 70 0 51 1 53 33 62 54 16 77 13 77 -8z m-4 -57 c-3 -9 -6 -27 -6 -40 0
-17 -6 -24 -20 -24 -21 0 -25 16 -14 58 4 13 14 22 26 22 14 0 18 -5 14 -16z
m2 -176 c2 -12 -8 -20 -35 -27 -55 -16 -63 -14 -63 13 0 29 13 36 60 33 24 -1
36 -7 38 -19z m2 -73 c0 -17 -6 -25 -17 -25 -10 0 -35 -3 -55 -6 -36 -6 -38
-5 -38 19 0 27 12 32 83 36 23 1 27 -3 27 -24z"/>
<path d="M490 536 c11 -30 5 -36 -37 -36 -18 0 -33 -4 -33 -9 0 -14 31 -18 63
-10 20 6 30 4 34 -7 8 -21 23 -17 23 6 0 11 5 20 10 20 6 0 10 5 10 10 0 6 -7
10 -15 10 -8 0 -15 9 -15 20 0 15 -7 20 -25 20 -22 0 -23 -3 -15 -24z"/>
<path d="M555 434 c-90 -16 -110 -22 -77 -23 31 -1 28 -19 -10 -59 -27 -28
-29 -33 -12 -28 15 5 23 0 31 -17 9 -20 7 -25 -19 -40 -17 -10 -28 -20 -25
-23 8 -8 85 40 137 86 37 33 42 42 30 50 -8 6 -28 8 -43 5 -44 -8 -28 18 17
28 20 5 39 7 42 4 3 -2 7 -26 10 -53 8 -71 31 -87 115 -82 37 2 74 9 82 17 15
12 15 15 0 37 -19 30 -26 30 -38 2 -9 -20 -18 -23 -65 -23 -78 0 -80 23 -4 50
59 21 74 38 37 43 -12 2 -27 -5 -35 -16 -7 -11 -23 -22 -35 -26 -20 -7 -22 -4
-21 28 1 30 5 36 24 36 13 0 26 5 29 10 9 14 -73 11 -170 -6z m-1 -89 c-10
-26 -37 -35 -59 -19 -17 13 -18 16 -5 24 8 5 27 10 42 10 20 0 26 -4 22 -15z"/>
<path d="M649 262 c-1 -4 -2 -16 -3 -27 -1 -17 -9 -21 -50 -23 -40 -3 -48 0
-43 12 6 14 -11 26 -37 26 -9 0 -12 -9 -8 -25 4 -23 2 -25 -36 -25 -23 0 -44
-4 -47 -10 -4 -6 10 -10 35 -10 27 0 43 -5 46 -15 8 -19 -19 -62 -60 -97 -38
-33 -22 -37 25 -5 20 13 44 43 59 74 24 50 26 51 72 55 l48 3 0 -92 c0 -51 5
-95 10 -98 17 -10 30 42 30 121 l0 74 70 0 c39 0 70 4 70 10 0 13 -64 24 -99
17 -22 -5 -30 -2 -34 12 -4 17 -46 37 -48 23z"/>
</g>
</svg>
