<?xml version="1.0" standalone="no"?>
<!DOCTYPE svg PUBLIC "-//W3C//DTD SVG 20010904//EN"
 "http://www.w3.org/TR/2001/REC-SVG-20010904/DTD/svg10.dtd">
<svg version="1.0" xmlns="http://www.w3.org/2000/svg"
 width="96.000000pt" height="68.000000pt" viewBox="0 0 96.000000 68.000000"
 preserveAspectRatio="xMidYMid meet">
<metadata>
Created by potrace 1.16, written by Peter Selinger 2001-2019
</metadata>
<g transform="translate(0.000000,68.000000) scale(0.100000,-0.100000)"
fill="#000000" stroke="none">
<path d="M608 500 c5 -98 8 -93 -63 -105 -38 -7 -39 -8 -15 -17 13 -5 35 -6
47 -3 13 3 23 3 23 1 0 -19 -46 -102 -85 -156 -47 -63 -48 -64 -14 -39 19 14
50 47 69 73 l35 46 3 -31 c2 -18 -2 -70 -8 -115 -8 -61 -8 -89 0 -105 9 -16
14 -18 25 -9 11 9 15 48 17 159 l3 146 39 -70 c56 -101 61 -105 118 -105 26 0
48 3 48 8 0 4 -25 22 -56 41 -53 33 -139 121 -146 150 -2 10 14 18 57 26 57
11 59 12 33 23 -18 7 -37 8 -59 2 l-32 -9 5 75 c5 68 3 76 -16 89 -11 8 -23
15 -27 15 -4 0 -4 -40 -1 -90z"/>
</g>
</svg>
