<?xml version="1.0" standalone="no"?>
<!DOCTYPE svg PUBLIC "-//W3C//DTD SVG 20010904//EN"
 "http://www.w3.org/TR/2001/REC-SVG-20010904/DTD/svg10.dtd">
<svg version="1.0" xmlns="http://www.w3.org/2000/svg"
 width="96.000000pt" height="68.000000pt" viewBox="0 0 96.000000 68.000000"
 preserveAspectRatio="xMidYMid meet">
<metadata>
Created by potrace 1.16, written by Peter Selinger 2001-2019
</metadata>
<g transform="translate(0.000000,68.000000) scale(0.100000,-0.100000)"
fill="#000000" stroke="none">
<path d="M260 213 c-19 -8 -53 -13 -77 -11 -46 3 -52 -2 -28 -22 9 -7 20 -33
27 -57 8 -32 15 -43 25 -39 8 4 39 9 69 12 43 5 54 10 49 22 -3 8 3 30 14 48
15 24 17 35 8 42 -23 18 -52 20 -87 5z m30 -47 c0 -38 -2 -40 -42 -50 -23 -5
-27 -2 -37 26 -13 37 -7 45 34 51 17 2 33 5 38 6 4 0 7 -14 7 -33z"/>
</g>
</svg>
