<?xml version="1.0" standalone="no"?>
<!DOCTYPE svg PUBLIC "-//W3C//DTD SVG 20010904//EN"
 "http://www.w3.org/TR/2001/REC-SVG-20010904/DTD/svg10.dtd">
<svg version="1.0" xmlns="http://www.w3.org/2000/svg"
 width="96.000000pt" height="68.000000pt" viewBox="0 0 96.000000 68.000000"
 preserveAspectRatio="xMidYMid meet">
<metadata>
Created by potrace 1.16, written by Peter Selinger 2001-2019
</metadata>
<g transform="translate(0.000000,68.000000) scale(0.100000,-0.100000)"
fill="#000000" stroke="none">
<path d="M200 553 c1 -23 48 -88 66 -91 43 -6 35 71 -8 83 -13 4 -31 9 -40 11
-10 3 -18 2 -18 -3z"/>
<path d="M516 498 c-27 -60 -30 -62 -67 -39 -49 30 -57 26 -18 -8 l34 -30 -24
-25 c-13 -14 -33 -28 -43 -32 -10 -3 -16 -10 -13 -15 3 -5 24 3 46 18 43 28
43 28 53 -3 7 -22 -23 -74 -76 -133 -16 -17 -28 -33 -28 -36 0 -12 63 31 86
58 25 30 27 27 25 -38 -3 -83 -9 -95 -47 -95 l-35 0 23 -30 c27 -37 47 -38 79
-4 23 24 24 32 24 147 -1 95 -5 129 -18 153 -16 31 -16 32 12 55 15 13 35 36
45 50 16 26 16 27 -6 33 -35 9 -37 8 -52 -26z"/>
<path d="M197 440 c-115 -19 -130 -25 -107 -40 21 -14 76 -12 146 5 34 8 84
16 110 18 33 3 49 9 49 18 0 21 -73 20 -198 -1z"/>
<path d="M645 422 c-66 -14 -74 -17 -45 -20 19 -2 39 -7 43 -11 14 -14 17 -92
4 -96 -7 -2 -25 -7 -42 -11 l-30 -8 40 -5 40 -6 3 -52 3 -53 -50 0 c-40 0 -51
-3 -51 -16 0 -13 8 -15 48 -10 26 3 91 9 145 12 53 4 97 10 97 14 0 14 -57 22
-105 15 l-45 -7 0 50 c0 49 1 51 33 57 54 11 67 16 67 27 0 6 -19 8 -47 6 -44
-3 -47 -1 -46 20 0 12 1 35 2 51 1 25 5 29 42 34 23 3 46 10 52 16 16 16 -61
12 -158 -7z"/>
<path d="M248 356 c-71 -17 -71 -30 0 -22 55 5 119 25 85 26 -6 0 -17 2 -25 4
-7 2 -34 -2 -60 -8z"/>
<path d="M243 287 c-75 -14 -67 -30 10 -22 54 6 113 24 80 25 -6 0 -17 2 -25
4 -7 2 -37 -1 -65 -7z"/>
<path d="M260 210 c-14 -4 -47 -9 -75 -9 -30 -1 -45 -5 -37 -9 7 -5 21 -31 32
-58 11 -30 24 -48 32 -45 7 2 34 6 61 9 35 3 47 9 47 21 0 9 7 29 15 45 9 16
13 36 11 43 -6 14 -46 16 -86 3z m30 -44 c0 -38 -2 -40 -41 -49 -21 -5 -28 -2
-37 19 -20 42 -15 52 26 57 20 2 40 4 45 5 4 1 7 -13 7 -32z"/>
</g>
</svg>
