<?xml version="1.0" standalone="no"?>
<!DOCTYPE svg PUBLIC "-//W3C//DTD SVG 20010904//EN"
 "http://www.w3.org/TR/2001/REC-SVG-20010904/DTD/svg10.dtd">
<svg version="1.0" xmlns="http://www.w3.org/2000/svg"
 width="96.000000pt" height="68.000000pt" viewBox="0 0 96.000000 68.000000"
 preserveAspectRatio="xMidYMid meet">
<metadata>
Created by potrace 1.16, written by Peter Selinger 2001-2019
</metadata>
<g transform="translate(0.000000,68.000000) scale(0.100000,-0.100000)"
fill="#000000" stroke="none">
<path d="M493 603 c-7 -3 -13 -15 -13 -27 0 -13 -13 -41 -28 -62 -35 -47 -119
-135 -147 -153 -18 -11 -17 -11 10 -6 42 7 51 -2 70 -68 14 -50 19 -56 38 -52
64 15 201 24 213 14 18 -15 26 -8 59 55 27 51 28 57 13 72 -19 20 -41 20 -143
6 -129 -18 -194 -22 -200 -12 -3 6 -2 10 3 10 9 0 90 80 136 134 l24 29 30
-24 c16 -13 54 -45 83 -70 76 -66 92 -72 155 -64 30 3 54 10 54 14 0 4 -33 17
-72 30 -75 24 -238 118 -238 137 0 16 -33 42 -47 37z m157 -265 c0 -47 -9 -56
-60 -59 -48 -4 -46 -7 -42 55 2 25 16 32 75 35 24 1 27 -2 27 -31z m-140 -28
c0 -31 -4 -39 -22 -44 -52 -14 -67 -8 -77 32 -15 52 -16 51 32 54 61 4 67 0
67 -42z"/>
<path d="M592 329 c-7 -11 -11 -23 -9 -26 9 -8 48 18 44 30 -6 19 -22 18 -35
-4z"/>
<path d="M430 323 c1 -14 27 -43 39 -43 18 0 13 28 -8 40 -23 12 -31 13 -31 3z"/>
<path d="M255 528 c-20 -61 -65 -132 -129 -203 -24 -27 -40 -51 -36 -53 13 -5
96 54 104 73 3 9 10 13 16 10 12 -7 3 -189 -11 -247 -7 -29 -6 -45 6 -68 36
-69 53 -12 56 182 2 98 -1 151 -9 160 -9 11 -3 26 27 69 60 87 63 95 45 113
-30 30 -51 20 -69 -36z"/>
<path d="M500 443 c-32 -6 -51 -23 -24 -23 47 0 124 14 124 21 0 9 -55 10
-100 2z"/>
<path d="M467 203 l-59 -4 7 -87 c4 -48 8 -88 9 -89 0 0 41 3 90 8 79 8 90 7
102 -8 22 -31 38 1 45 90 3 45 4 84 2 87 -6 6 -125 8 -196 3z m141 -40 c2 -13
2 -23 0 -23 -2 -1 -38 -3 -80 -6 l-78 -6 0 25 c0 29 20 35 105 33 44 -1 50 -4
53 -23z m0 -73 c-1 -25 -5 -30 -27 -30 -14 0 -50 -3 -78 -6 l-53 -7 0 31 c0
31 1 31 58 35 31 2 67 4 79 5 18 2 22 -3 21 -28z"/>
</g>
</svg>
