<?xml version="1.0" standalone="no"?>
<!DOCTYPE svg PUBLIC "-//W3C//DTD SVG 20010904//EN"
 "http://www.w3.org/TR/2001/REC-SVG-20010904/DTD/svg10.dtd">
<svg version="1.0" xmlns="http://www.w3.org/2000/svg"
 width="96.000000pt" height="68.000000pt" viewBox="0 0 96.000000 68.000000"
 preserveAspectRatio="xMidYMid meet">
<metadata>
Created by potrace 1.16, written by Peter Selinger 2001-2019
</metadata>
<g transform="translate(0.000000,68.000000) scale(0.100000,-0.100000)"
fill="#000000" stroke="none">
<path d="M487 603 c-3 -5 -8 -23 -12 -42 -5 -25 -33 -61 -100 -128 -50 -51
-90 -93 -88 -93 2 0 25 11 51 24 50 25 94 64 154 134 l36 44 91 -76 c50 -42
103 -79 116 -82 30 -8 115 4 115 15 0 5 -21 14 -47 20 -83 21 -263 126 -263
153 0 23 -43 48 -53 31z"/>
</g>
</svg>
