<?xml version="1.0" standalone="no"?>
<!DOCTYPE svg PUBLIC "-//W3C//DTD SVG 20010904//EN"
 "http://www.w3.org/TR/2001/REC-SVG-20010904/DTD/svg10.dtd">
<svg version="1.0" xmlns="http://www.w3.org/2000/svg"
 width="90.000000pt" height="92.000000pt" viewBox="0 0 90.000000 92.000000"
 preserveAspectRatio="xMidYMid meet">
<metadata>
Created by potrace 1.16, written by Peter Selinger 2001-2019
</metadata>
<g transform="translate(0.000000,92.000000) scale(0.100000,-0.100000)"
fill="#000000" stroke="none">
<path d="M300 878 c0 -42 -55 -131 -129 -210 -40 -43 -68 -78 -63 -78 6 0 40
20 76 44 l65 44 3 -52 c2 -28 -1 -73 -5 -101 -14 -79 -12 -114 6 -133 16 -15
18 -14 29 14 10 27 16 31 52 32 22 1 48 4 57 7 19 6 29 -19 29 -76 l0 -37
-112 -11 c-62 -6 -135 -13 -163 -14 -56 -2 -64 -15 -20 -36 26 -12 43 -12 135
3 58 9 117 16 133 16 l27 0 0 -129 c0 -76 4 -132 10 -136 19 -12 33 50 38 163
l4 112 173 0 c96 0 176 4 179 9 7 10 -22 37 -52 48 -14 5 -57 4 -105 -4 -45
-6 -106 -12 -136 -12 l-54 -1 6 50 c4 31 2 50 -4 50 -6 0 -7 5 -4 10 3 6 28
10 54 10 26 0 83 3 125 6 80 7 92 18 44 42 -21 10 -43 10 -112 -1 l-86 -14 0
27 c0 30 18 39 75 40 44 0 76 11 72 23 -6 18 -57 26 -103 18 -42 -8 -44 -7
-44 15 0 25 8 29 88 38 24 2 46 7 50 10 15 15 -22 29 -73 28 -49 -1 -55 1 -55
18 0 11 1 20 3 20 9 0 124 22 140 26 24 7 21 19 -7 32 -17 7 -35 8 -58 1 -51
-14 -68 -11 -68 11 0 25 -42 52 -75 48 l-25 -3 25 -37 c14 -20 22 -39 17 -41
-4 -3 -40 -8 -81 -12 l-74 -7 21 33 c47 74 48 80 23 100 -31 25 -51 24 -51 -3z
m150 -181 c0 -21 -6 -25 -46 -31 -88 -12 -101 -9 -106 22 l-4 27 78 3 c77 3
78 3 78 -21z m7 -83 c9 -25 -8 -33 -85 -40 l-72 -7 0 26 c0 23 4 26 43 30 94
8 108 7 114 -9z m-7 -98 c0 -28 -9 -32 -98 -41 l-64 -7 4 28 c3 25 8 30 43 35
22 3 57 7 78 8 33 1 37 -2 37 -23z"/>
</g>
</svg>
