<?xml version="1.0" standalone="no"?>
<!DOCTYPE svg PUBLIC "-//W3C//DTD SVG 20010904//EN"
 "http://www.w3.org/TR/2001/REC-SVG-20010904/DTD/svg10.dtd">
<svg version="1.0" xmlns="http://www.w3.org/2000/svg"
 width="96.000000pt" height="68.000000pt" viewBox="0 0 96.000000 68.000000"
 preserveAspectRatio="xMidYMid meet">
<metadata>
Created by potrace 1.16, written by Peter Selinger 2001-2019
</metadata>
<g transform="translate(0.000000,68.000000) scale(0.100000,-0.100000)"
fill="#000000" stroke="none">
<path d="M696 473 c-8 -16 -40 -54 -71 -87 -70 -72 -64 -87 25 -63 49 14 64
15 80 5 16 -10 22 -10 32 0 11 11 9 17 -11 33 -27 22 -63 26 -55 5 3 -8 -4
-16 -18 -20 -51 -13 -50 -3 11 58 58 59 61 64 46 80 -21 21 -22 21 -39 -11z"/>
</g>
</svg>
