<?xml version="1.0" standalone="no"?>
<!DOCTYPE svg PUBLIC "-//W3C//DTD SVG 20010904//EN"
 "http://www.w3.org/TR/2001/REC-SVG-20010904/DTD/svg10.dtd">
<svg version="1.0" xmlns="http://www.w3.org/2000/svg"
 width="96.000000pt" height="68.000000pt" viewBox="0 0 96.000000 68.000000"
 preserveAspectRatio="xMidYMid meet">
<metadata>
Created by potrace 1.16, written by Peter Selinger 2001-2019
</metadata>
<g transform="translate(0.000000,68.000000) scale(0.100000,-0.100000)"
fill="#000000" stroke="none">
<path d="M477 455 c-65 -12 -121 -25 -124 -29 -16 -15 12 -18 78 -7 43 7 76 8
81 3 5 -5 8 -33 6 -63 l-3 -54 -55 -7 c-30 -4 -121 -12 -202 -19 -82 -6 -148
-15 -148 -20 0 -19 67 -30 116 -19 72 17 362 40 497 40 64 0 117 4 117 9 0 22
-71 32 -176 25 -90 -6 -106 -5 -102 7 33 88 33 88 12 104 -18 13 -16 14 21 16
22 0 51 4 65 9 l25 7 -28 12 c-35 14 -36 14 -180 -14z"/>
</g>
</svg>
