<?xml version="1.0" standalone="no"?>
<!DOCTYPE svg PUBLIC "-//W3C//DTD SVG 20010904//EN"
 "http://www.w3.org/TR/2001/REC-SVG-20010904/DTD/svg10.dtd">
<svg version="1.0" xmlns="http://www.w3.org/2000/svg"
 width="96.000000pt" height="68.000000pt" viewBox="0 0 96.000000 68.000000"
 preserveAspectRatio="xMidYMid meet">
<metadata>
Created by potrace 1.16, written by Peter Selinger 2001-2019
</metadata>
<g transform="translate(0.000000,68.000000) scale(0.100000,-0.100000)"
fill="#000000" stroke="none">
<path d="M516 575 c-10 -25 -29 -61 -42 -80 -15 -22 -19 -35 -11 -35 17 0 58
29 80 57 16 20 27 23 96 23 51 0 84 5 97 14 18 14 18 15 1 22 -19 7 -112 -1
-144 -13 -16 -6 -16 -5 -4 10 17 21 -1 47 -33 47 -16 0 -26 -12 -40 -45z"/>
<path d="M276 558 c-10 -24 -39 -64 -64 -90 -33 -35 -41 -48 -29 -48 23 0 87
43 111 75 17 22 26 25 85 25 36 0 72 4 80 9 24 15 -23 32 -68 25 -36 -6 -40
-4 -43 17 -2 17 -10 25 -28 27 -22 2 -29 -4 -44 -40z"/>
<path d="M598 490 c34 -32 56 -38 68 -18 11 17 -34 48 -70 48 l-31 -1 33 -29z"/>
<path d="M320 492 c0 -13 45 -42 65 -42 11 0 15 7 13 23 -2 18 -10 23 -40 25
-21 2 -38 -1 -38 -6z"/>
<path d="M537 425 c6 -34 5 -35 -29 -35 -19 0 -56 -3 -82 -6 -42 -6 -46 -5
-46 15 0 14 -9 25 -26 31 -36 14 -36 13 -29 -19 6 -28 4 -30 -32 -36 -59 -10
-62 -13 -11 -14 l47 -1 5 -52 c3 -29 7 -71 8 -93 l3 -40 -105 -6 c-124 -8
-119 -7 -100 -19 19 -13 89 -13 165 0 44 7 428 23 509 20 5 0 2 7 -5 16 -12
15 -29 16 -125 11 l-110 -6 9 72 c13 104 20 117 59 117 18 0 39 4 46 9 20 12
-11 22 -48 14 -26 -5 -30 -2 -30 15 0 24 -12 34 -51 38 -26 3 -27 2 -22 -31z
m3 -80 c0 -21 -5 -25 -27 -25 -16 0 -52 -3 -80 -6 -52 -7 -53 -6 -53 19 0 28
-8 26 133 35 23 2 27 -2 27 -23z m-2 -67 c-2 -15 -10 -23 -23 -24 -11 -1 -46
-4 -77 -8 -57 -7 -58 -7 -58 18 0 23 4 25 53 29 116 8 109 9 105 -15z m0 -65
c2 -16 -4 -21 -35 -26 -21 -4 -57 -7 -80 -7 -38 0 -43 3 -43 23 0 22 4 24 62
26 35 1 65 4 67 7 10 9 26 -3 29 -23z"/>
<path d="M530 133 c0 -11 76 -85 107 -104 36 -22 53 -18 53 11 0 19 -47 60
-85 75 -41 15 -75 23 -75 18z"/>
<path d="M331 107 c-7 -12 -34 -38 -62 -56 -27 -19 -47 -36 -45 -38 6 -6 107
41 157 73 32 20 39 28 28 35 -27 17 -65 10 -78 -14z"/>
</g>
</svg>
