<?xml version="1.0" standalone="no"?>
<!DOCTYPE svg PUBLIC "-//W3C//DTD SVG 20010904//EN"
 "http://www.w3.org/TR/2001/REC-SVG-20010904/DTD/svg10.dtd">
<svg version="1.0" xmlns="http://www.w3.org/2000/svg"
 width="90.000000pt" height="92.000000pt" viewBox="0 0 90.000000 92.000000"
 preserveAspectRatio="xMidYMid meet">
<metadata>
Created by potrace 1.16, written by Peter Selinger 2001-2019
</metadata>
<g transform="translate(0.000000,92.000000) scale(0.100000,-0.100000)"
fill="#000000" stroke="none">
<path d="M184 828 c13 -90 19 -215 9 -221 -5 -3 -41 -11 -79 -17 -37 -6 -71
-13 -73 -16 -15 -14 32 -25 92 -21 l68 4 -3 -60 -3 -61 -95 -49 c-52 -27 -96
-55 -98 -62 -2 -8 8 -21 22 -30 25 -17 27 -16 90 34 35 28 67 51 70 51 8 0 6
-136 -3 -175 -6 -28 -9 -30 -54 -28 l-47 1 53 -59 52 -59 28 30 c27 30 27 31
27 182 l0 151 40 35 c48 41 46 53 -5 24 l-35 -21 0 54 c0 47 3 55 19 55 25 0
81 20 81 29 0 14 -51 31 -76 25 l-24 -6 6 73 c4 41 11 82 15 91 16 31 9 48
-31 68 -21 11 -42 20 -46 20 -4 0 -4 -19 0 -42z"/>
<path d="M526 778 c-24 -87 -81 -191 -133 -245 -42 -43 -44 -47 -32 -74 16
-39 23 -42 58 -25 16 9 88 31 161 50 l132 35 35 -37 c33 -35 35 -36 49 -18 29
41 -8 101 -88 142 -71 36 -86 32 -49 -13 22 -27 27 -39 18 -44 -11 -7 -217
-59 -231 -59 -21 0 6 51 84 160 50 69 90 130 90 136 0 15 -44 54 -62 54 -10 0
-21 -21 -32 -62z"/>
<path d="M585 373 c-41 -8 -96 -12 -132 -9 -67 6 -68 5 -53 -24 5 -10 15 -62
21 -116 12 -106 24 -135 43 -110 9 13 171 36 248 36 15 0 16 3 6 19 -9 15 -8
32 6 83 10 34 24 70 32 79 13 15 12 19 -12 38 -31 24 -59 25 -159 4z m95 -39
c0 -9 -5 -45 -11 -79 l-12 -62 -81 -12 c-127 -17 -117 -23 -114 67 l3 77 70
11 c108 18 145 17 145 -2z"/>
</g>
</svg>
