<?xml version="1.0" standalone="no"?>
<!DOCTYPE svg PUBLIC "-//W3C//DTD SVG 20010904//EN"
 "http://www.w3.org/TR/2001/REC-SVG-20010904/DTD/svg10.dtd">
<svg version="1.0" xmlns="http://www.w3.org/2000/svg"
 width="96.000000pt" height="68.000000pt" viewBox="0 0 96.000000 68.000000"
 preserveAspectRatio="xMidYMid meet">
<metadata>
Created by potrace 1.16, written by Peter Selinger 2001-2019
</metadata>
<g transform="translate(0.000000,68.000000) scale(0.100000,-0.100000)"
fill="#000000" stroke="none">
<path d="M604 583 c-21 -62 -64 -133 -115 -188 -55 -58 -58 -64 -44 -79 19
-19 31 -20 74 -5 17 6 77 21 134 34 101 23 102 23 123 4 28 -27 54 -25 54 4 0
29 -31 57 -88 82 -50 22 -64 14 -33 -19 l23 -24 -59 -17 c-70 -20 -163 -31
-163 -19 1 5 37 50 80 99 44 50 80 95 80 102 0 12 -38 43 -53 43 -4 0 -10 -8
-13 -17z"/>
</g>
</svg>
