<?xml version="1.0" standalone="no"?>
<!DOCTYPE svg PUBLIC "-//W3C//DTD SVG 20010904//EN"
 "http://www.w3.org/TR/2001/REC-SVG-20010904/DTD/svg10.dtd">
<svg version="1.0" xmlns="http://www.w3.org/2000/svg"
 width="96.000000pt" height="68.000000pt" viewBox="0 0 96.000000 68.000000"
 preserveAspectRatio="xMidYMid meet">
<metadata>
Created by potrace 1.16, written by Peter Selinger 2001-2019
</metadata>
<g transform="translate(0.000000,68.000000) scale(0.100000,-0.100000)"
fill="#000000" stroke="none">
<path d="M540 565 c0 -16 52 -85 64 -85 15 0 25 27 18 48 -6 20 -82 54 -82 37z"/>
<path d="M316 553 c-4 -4 -37 -8 -74 -8 -54 -1 -66 -4 -63 -15 11 -40 12 -168
1 -244 -9 -63 -20 -97 -41 -131 -34 -54 -34 -54 -10 -52 11 0 17 5 15 9 -3 4
-1 8 5 8 12 0 51 62 67 109 10 29 17 35 36 33 14 -2 31 5 43 18 10 11 22 20
28 20 11 0 5 -135 -6 -147 -4 -4 -21 -2 -37 4 -39 15 -38 6 5 -39 39 -44 57
-47 79 -16 13 18 16 54 16 188 0 91 5 181 10 200 9 31 8 37 -11 53 -22 18 -50
22 -63 10z m14 -89 c0 -50 -2 -55 -17 -49 -10 4 -30 10 -45 13 -24 4 -28 9
-28 36 0 41 16 56 57 56 l33 0 0 -56z m-15 -94 c8 0 15 -7 15 -15 0 -17 -50
-45 -81 -45 -19 0 -21 4 -15 31 3 17 6 38 6 46 0 11 5 11 30 -2 16 -8 36 -15
45 -15z"/>
<path d="M568 467 c-164 -21 -217 -43 -83 -35 l75 5 0 -26 c0 -46 -84 -204
-136 -256 -9 -9 -13 -19 -10 -23 10 -9 110 99 141 152 24 41 29 44 81 51 31 4
58 4 61 1 11 -10 -20 -155 -39 -187 -17 -28 -23 -31 -58 -27 -22 2 -40 1 -40
-1 0 -13 56 -61 71 -61 39 0 73 54 100 156 14 54 29 107 33 116 12 28 -35 41
-106 30 -52 -8 -58 -7 -58 9 0 10 5 21 10 24 6 4 8 15 5 26 -4 10 -3 19 2 19
95 6 205 18 210 24 13 12 -21 26 -62 25 -22 -1 -111 -11 -197 -22z"/>
</g>
</svg>
