<?xml version="1.0" standalone="no"?>
<!DOCTYPE svg PUBLIC "-//W3C//DTD SVG 20010904//EN"
 "http://www.w3.org/TR/2001/REC-SVG-20010904/DTD/svg10.dtd">
<svg version="1.0" xmlns="http://www.w3.org/2000/svg"
 width="96.000000pt" height="68.000000pt" viewBox="0 0 96.000000 68.000000"
 preserveAspectRatio="xMidYMid meet">
<metadata>
Created by potrace 1.16, written by Peter Selinger 2001-2019
</metadata>
<g transform="translate(0.000000,68.000000) scale(0.100000,-0.100000)"
fill="#000000" stroke="none">
<path d="M245 543 l-60 -4 3 -119 c4 -140 -8 -211 -48 -274 -33 -52 -27 -60
13 -19 28 30 66 107 67 136 0 20 11 22 27 6 8 -8 21 -4 47 16 l36 27 0 -73 c0
-91 -8 -108 -45 -91 -41 19 -42 15 0 -28 78 -80 92 -49 96 211 2 107 -1 200
-5 207 -4 7 -22 11 -39 10 -18 -1 -59 -3 -92 -5z m85 -84 c0 -53 -2 -58 -17
-50 -10 6 -31 12 -46 16 -26 5 -28 9 -25 48 3 40 5 42 38 48 19 3 38 3 43 1 4
-2 7 -30 7 -63z m-27 -79 c22 0 27 -5 27 -24 0 -19 -9 -27 -40 -40 -22 -9 -45
-16 -50 -16 -11 0 -14 93 -3 103 3 4 14 0 23 -8 9 -8 29 -15 43 -15z"/>
</g>
</svg>
