<?xml version="1.0" standalone="no"?>
<!DOCTYPE svg PUBLIC "-//W3C//DTD SVG 20010904//EN"
 "http://www.w3.org/TR/2001/REC-SVG-20010904/DTD/svg10.dtd">
<svg version="1.0" xmlns="http://www.w3.org/2000/svg"
 width="96.000000pt" height="68.000000pt" viewBox="0 0 96.000000 68.000000"
 preserveAspectRatio="xMidYMid meet">
<metadata>
Created by potrace 1.16, written by Peter Selinger 2001-2019
</metadata>
<g transform="translate(0.000000,68.000000) scale(0.100000,-0.100000)"
fill="#000000" stroke="none">
<path d="M678 463 c-25 -6 -22 -21 5 -25 19 -3 22 -8 20 -41 -4 -55 -21 -112
-42 -138 -16 -20 -22 -22 -44 -12 l-26 12 21 -35 c22 -37 29 -40 59 -24 25 14
46 56 69 138 10 37 21 76 25 88 10 30 -37 50 -87 37z"/>
</g>
</svg>
