<?xml version="1.0" standalone="no"?>
<!DOCTYPE svg PUBLIC "-//W3C//DTD SVG 20010904//EN"
 "http://www.w3.org/TR/2001/REC-SVG-20010904/DTD/svg10.dtd">
<svg version="1.0" xmlns="http://www.w3.org/2000/svg"
 width="96.000000pt" height="68.000000pt" viewBox="0 0 96.000000 68.000000"
 preserveAspectRatio="xMidYMid meet">
<metadata>
Created by potrace 1.16, written by Peter Selinger 2001-2019
</metadata>
<g transform="translate(0.000000,68.000000) scale(0.100000,-0.100000)"
fill="#000000" stroke="none">
<path d="M448 174 c26 -49 82 -70 82 -31 0 20 -21 36 -60 43 -29 6 -31 5 -22
-12z"/>
<path d="M725 126 c50 -48 80 -56 80 -22 0 26 -43 55 -90 62 l-40 6 50 -46z"/>
<path d="M311 130 c17 -48 59 -85 124 -109 49 -19 73 -22 135 -18 75 5 150 28
150 45 0 6 -29 28 -65 51 -36 22 -65 39 -65 37 0 -2 5 -18 11 -36 15 -42 3
-50 -76 -50 -92 0 -129 14 -171 65 -42 52 -57 57 -43 15z"/>
<path d="M186 106 c-31 -53 -33 -76 -7 -76 24 0 51 41 51 79 0 46 -16 45 -44
-3z"/>
</g>
</svg>
