<?xml version="1.0" standalone="no"?>
<!DOCTYPE svg PUBLIC "-//W3C//DTD SVG 20010904//EN"
 "http://www.w3.org/TR/2001/REC-SVG-20010904/DTD/svg10.dtd">
<svg version="1.0" xmlns="http://www.w3.org/2000/svg"
 width="96.000000pt" height="68.000000pt" viewBox="0 0 96.000000 68.000000"
 preserveAspectRatio="xMidYMid meet">
<metadata>
Created by potrace 1.16, written by Peter Selinger 2001-2019
</metadata>
<g transform="translate(0.000000,68.000000) scale(0.100000,-0.100000)"
fill="#000000" stroke="none">
<path d="M373 584 c2 -39 2 -39 -38 -42 -34 -2 -42 1 -50 20 -6 14 -20 24 -37
26 -32 4 -36 -11 -11 -36 16 -16 15 -17 -18 -20 -19 -1 -45 -5 -59 -8 l-25 -6
25 -13 c14 -8 41 -14 61 -15 29 0 38 -5 48 -26 7 -17 17 -24 26 -20 9 3 15 0
15 -9 0 -14 -47 -21 -102 -16 -15 2 -15 -2 3 -39 19 -40 22 -41 62 -38 32 2
42 -1 42 -12 0 -10 -13 -16 -42 -18 -24 -2 -43 -8 -43 -14 0 -7 16 -9 45 -5
36 5 45 4 45 -8 0 -10 -11 -15 -32 -15 -18 0 -40 -5 -48 -10 -11 -7 -2 -10 33
-10 33 0 47 -4 47 -14 0 -16 -43 -26 -111 -26 -52 0 -64 -14 -26 -31 17 -7 53
-2 157 25 99 26 136 32 142 24 12 -21 91 73 112 133 10 30 23 60 29 67 12 15
73 16 83 1 10 -16 -15 -123 -38 -159 -16 -27 -23 -31 -44 -26 l-26 7 18 -31
c37 -62 81 -21 121 114 14 44 27 88 30 97 7 25 -46 43 -91 31 -20 -6 -38 -7
-40 -3 -3 4 0 26 6 49 12 49 6 72 -21 72 -15 0 -20 -10 -26 -57 -10 -78 -13
-83 -51 -83 -19 0 -34 -4 -34 -10 0 -5 14 -10 30 -10 34 0 35 -3 16 -58 -23
-64 -64 -122 -81 -116 -9 4 -36 1 -62 -5 -32 -8 -49 -9 -56 -2 -15 15 -6 20
44 30 43 9 30 15 -23 11 -46 -3 -31 18 17 26 51 7 51 28 -1 22 -43 -5 -54 18
-12 26 17 3 41 6 54 6 13 0 24 5 24 12 0 6 7 19 16 29 14 16 14 18 -6 29 -14
7 -39 9 -66 5 -29 -4 -44 -2 -44 4 0 6 11 11 24 11 19 0 25 7 30 35 7 33 9 35
46 35 29 0 40 4 40 15 0 11 -11 15 -35 15 -32 0 -35 2 -26 19 12 22 0 36 -41
46 -27 7 -28 6 -25 -31z m-3 -89 c0 -10 -11 -15 -35 -15 -33 0 -43 8 -28 23
13 14 63 7 63 -8z m54 -83 c8 -14 -8 -30 -37 -37 -23 -6 -27 -4 -27 13 0 24
52 44 64 24z m-114 -32 c0 -16 -7 -20 -30 -20 -23 0 -30 4 -30 20 0 16 7 20
30 20 23 0 30 -4 30 -20z"/>
<path d="M462 158 c32 -42 58 -48 58 -15 0 24 -33 47 -67 47 -12 0 -10 -7 9
-32z"/>
<path d="M686 173 c-8 -8 84 -93 101 -93 23 0 27 30 7 49 -22 21 -99 52 -108
44z"/>
<path d="M312 130 c16 -47 60 -85 128 -110 50 -19 73 -22 128 -17 37 3 87 13
110 22 36 15 40 20 31 36 -5 10 -14 19 -20 19 -5 0 -27 12 -49 26 -39 26 -67
27 -42 2 21 -21 14 -47 -14 -54 -41 -10 -156 1 -191 20 -18 9 -40 32 -49 51
-21 45 -48 49 -32 5z"/>
<path d="M186 106 c-28 -48 -33 -76 -13 -76 29 1 57 41 57 84 0 41 -17 38 -44
-8z"/>
</g>
</svg>
