<?xml version="1.0" standalone="no"?>
<!DOCTYPE svg PUBLIC "-//W3C//DTD SVG 20010904//EN"
 "http://www.w3.org/TR/2001/REC-SVG-20010904/DTD/svg10.dtd">
<svg version="1.0" xmlns="http://www.w3.org/2000/svg"
 width="96.000000pt" height="68.000000pt" viewBox="0 0 96.000000 68.000000"
 preserveAspectRatio="xMidYMid meet">
<metadata>
Created by potrace 1.16, written by Peter Selinger 2001-2019
</metadata>
<g transform="translate(0.000000,68.000000) scale(0.100000,-0.100000)"
fill="#000000" stroke="none">
<path d="M322 568 c3 -7 19 -14 36 -16 18 -2 32 -7 32 -12 0 -33 -161 -174
-257 -224 -48 -25 -48 -25 -16 -26 53 0 183 74 256 147 75 75 67 76 162 -12
28 -26 69 -60 92 -76 40 -28 48 -30 125 -27 46 2 83 8 85 14 2 5 -30 20 -71
33 -66 20 -125 46 -196 86 -14 7 -54 39 -89 69 -59 52 -68 56 -114 56 -34 0
-47 -4 -45 -12z"/>
<path d="M378 337 c-54 -6 -98 -14 -98 -18 0 -4 26 -9 58 -11 57 -3 57 -3 60
-37 4 -41 -8 -51 -65 -51 -24 0 -43 -4 -43 -10 0 -5 25 -10 55 -10 l55 0 0
-44 c0 -52 -6 -56 -93 -57 -34 -1 -75 -4 -92 -8 l-30 -7 36 -12 c26 -9 54 -10
105 -2 38 5 132 10 209 10 141 0 185 9 155 31 -10 6 -56 8 -128 5 l-113 -5 3
47 3 47 55 5 c70 6 67 24 -5 28 l-55 3 2 39 c1 39 2 40 37 40 47 0 82 10 75
21 -6 11 -53 9 -186 -4z"/>
</g>
</svg>
