<?xml version="1.0" standalone="no"?>
<!DOCTYPE svg PUBLIC "-//W3C//DTD SVG 20010904//EN"
 "http://www.w3.org/TR/2001/REC-SVG-20010904/DTD/svg10.dtd">
<svg version="1.0" xmlns="http://www.w3.org/2000/svg"
 width="96.000000pt" height="68.000000pt" viewBox="0 0 96.000000 68.000000"
 preserveAspectRatio="xMidYMid meet">
<metadata>
Created by potrace 1.16, written by Peter Selinger 2001-2019
</metadata>
<g transform="translate(0.000000,68.000000) scale(0.100000,-0.100000)"
fill="#000000" stroke="none">
<path d="M553 403 c-8 -3 -13 -25 -13 -59 0 -51 1 -54 25 -54 20 0 25 5 25 25
0 23 3 25 53 26 28 0 70 3 91 7 35 6 37 8 22 21 -14 12 -28 12 -80 3 -85 -16
-86 -16 -86 13 0 24 -11 29 -37 18z"/>
</g>
</svg>
