<?xml version="1.0" standalone="no"?>
<!DOCTYPE svg PUBLIC "-//W3C//DTD SVG 20010904//EN"
 "http://www.w3.org/TR/2001/REC-SVG-20010904/DTD/svg10.dtd">
<svg version="1.0" xmlns="http://www.w3.org/2000/svg"
 width="96.000000pt" height="68.000000pt" viewBox="0 0 96.000000 68.000000"
 preserveAspectRatio="xMidYMid meet">
<metadata>
Created by potrace 1.16, written by Peter Selinger 2001-2019
</metadata>
<g transform="translate(0.000000,68.000000) scale(0.100000,-0.100000)"
fill="#000000" stroke="none">
<path d="M230 609 c0 -5 13 -23 28 -41 19 -21 34 -29 45 -25 19 7 23 42 6 53
-20 12 -79 22 -79 13z"/>
<path d="M421 577 c-10 -24 -26 -51 -36 -61 -29 -28 -8 -30 25 -2 18 14 35 24
40 21 4 -2 42 2 85 10 42 8 79 15 82 15 3 0 3 -11 1 -25 -6 -30 -9 -29 43 -8
l42 16 -23 19 c-26 21 -62 22 -148 4 -57 -12 -88 -7 -62 9 16 10 12 23 -10 35
-18 10 -22 6 -39 -33z"/>
<path d="M285 492 c-23 -20 -54 -46 -69 -57 -27 -19 -28 -22 -15 -43 20 -32
31 -28 57 21 12 23 33 55 47 71 21 25 32 47 23 46 -2 0 -21 -17 -43 -38z"/>
<path d="M480 506 c0 -22 -49 -75 -89 -96 -20 -10 -30 -19 -23 -20 21 0 80 27
104 49 12 12 28 21 36 21 8 0 48 -18 89 -41 66 -37 79 -40 118 -34 45 6 72 25
38 25 -25 0 -127 27 -181 47 -28 10 -47 25 -53 40 -9 25 -39 32 -39 9z"/>
<path d="M421 365 c-51 -7 -106 -11 -122 -8 -28 4 -40 -9 -19 -22 12 -7 13
-85 2 -135 -4 -19 -6 -45 -4 -58 3 -20 7 -22 40 -16 l36 7 -15 -24 c-9 -13
-39 -39 -68 -58 -28 -19 -50 -36 -48 -38 5 -4 80 29 141 63 43 24 47 29 32 39
-14 11 -12 13 15 19 52 10 144 7 157 -6 6 -6 15 -8 19 -4 10 10 22 229 12 239
-12 15 -82 16 -178 2z m129 -39 c0 -21 -5 -24 -62 -30 -35 -3 -87 -9 -115 -12
l-53 -6 0 30 c0 30 1 31 53 35 28 2 80 4 115 5 59 2 62 1 62 -22z m0 -69 c0
-15 -6 -23 -17 -23 -10 0 -62 -4 -115 -8 -94 -7 -98 -6 -98 13 0 27 32 34 183
39 43 2 47 0 47 -21z m0 -61 c0 -23 -5 -25 -64 -31 -35 -4 -88 -8 -117 -9 -48
-1 -54 1 -57 21 -3 20 2 21 95 28 54 3 105 8 113 9 8 2 18 4 23 5 4 0 7 -10 7
-23z"/>
<path d="M539 73 c62 -58 69 -63 81 -63 6 0 10 12 8 27 -2 20 -14 32 -48 49
-72 37 -90 31 -41 -13z"/>
</g>
</svg>
