<?xml version="1.0" standalone="no"?>
<!DOCTYPE svg PUBLIC "-//W3C//DTD SVG 20010904//EN"
 "http://www.w3.org/TR/2001/REC-SVG-20010904/DTD/svg10.dtd">
<svg version="1.0" xmlns="http://www.w3.org/2000/svg"
 width="96.000000pt" height="68.000000pt" viewBox="0 0 96.000000 68.000000"
 preserveAspectRatio="xMidYMid meet">
<metadata>
Created by potrace 1.16, written by Peter Selinger 2001-2019
</metadata>
<g transform="translate(0.000000,68.000000) scale(0.100000,-0.100000)"
fill="#000000" stroke="none">
<path d="M560 406 c0 -16 -30 -26 -80 -26 -26 0 -31 -3 -20 -10 8 -5 34 -10
58 -10 l43 0 -3 -37 -3 -38 -78 -5 c-104 -7 -100 -25 6 -25 l82 0 3 -122 c1
-68 7 -123 12 -123 19 0 30 41 30 112 0 40 3 90 6 111 l7 37 113 0 c63 0 114
4 114 8 0 5 -12 14 -26 21 -24 11 -53 10 -166 -4 l-38 -5 0 39 c0 39 1 40 38
46 81 14 92 17 86 27 -4 6 -29 8 -65 4 -39 -5 -59 -3 -59 4 0 5 -13 10 -30 10
-19 0 -30 -5 -30 -14z"/>
</g>
</svg>
