<?xml version="1.0" standalone="no"?>
<!DOCTYPE svg PUBLIC "-//W3C//DTD SVG 20010904//EN"
 "http://www.w3.org/TR/2001/REC-SVG-20010904/DTD/svg10.dtd">
<svg version="1.0" xmlns="http://www.w3.org/2000/svg"
 width="96.000000pt" height="68.000000pt" viewBox="0 0 96.000000 68.000000"
 preserveAspectRatio="xMidYMid meet">
<metadata>
Created by potrace 1.16, written by Peter Selinger 2001-2019
</metadata>
<g transform="translate(0.000000,68.000000) scale(0.100000,-0.100000)"
fill="#000000" stroke="none">
<path d="M230 551 c0 -5 16 -23 35 -40 40 -35 85 -42 85 -13 0 28 -13 39 -55
51 -49 13 -65 14 -65 2z"/>
<path d="M605 459 c-67 -11 -139 -16 -164 -13 l-43 6 6 -39 c3 -21 9 -84 12
-141 7 -102 14 -122 37 -104 7 5 50 13 97 16 47 4 93 9 102 12 12 3 22 -5 33
-26 9 -17 22 -30 28 -27 22 7 46 71 61 167 8 52 17 104 21 116 5 17 0 24 -28
37 -19 10 -37 16 -39 16 -1 -1 -57 -10 -123 -20z m103 -18 c9 -5 12 -23 10
-51 l-3 -42 -55 -3 c-30 -1 -86 -5 -123 -10 -78 -9 -85 -5 -79 49 4 34 5 35
61 42 31 4 76 10 101 14 63 11 73 11 88 1z m8 -133 c-3 -13 -6 -37 -6 -54 0
-31 0 -31 -57 -32 -32 -1 -88 -5 -125 -10 l-68 -8 0 53 0 53 63 1 c34 1 87 4
117 9 30 4 61 8 69 9 9 1 11 -6 7 -21z"/>
<path d="M146 402 c-9 -15 61 -72 89 -72 37 0 35 47 -2 61 -46 17 -80 22 -87
11z"/>
<path d="M313 303 c-10 -15 -45 -55 -79 -89 l-61 -62 15 -36 c24 -61 42 -47
105 83 31 65 57 122 57 125 0 15 -21 3 -37 -21z"/>
</g>
</svg>
