<?xml version="1.0" standalone="no"?>
<!DOCTYPE svg PUBLIC "-//W3C//DTD SVG 20010904//EN"
 "http://www.w3.org/TR/2001/REC-SVG-20010904/DTD/svg10.dtd">
<svg version="1.0" xmlns="http://www.w3.org/2000/svg"
 width="96.000000pt" height="68.000000pt" viewBox="0 0 96.000000 68.000000"
 preserveAspectRatio="xMidYMid meet">
<metadata>
Created by potrace 1.16, written by Peter Selinger 2001-2019
</metadata>
<g transform="translate(0.000000,68.000000) scale(0.100000,-0.100000)"
fill="#000000" stroke="none">
<path d="M565 394 c-44 -8 -135 -16 -202 -17 -118 -2 -122 -3 -115 -22 12 -34
4 -173 -13 -225 -17 -52 -9 -90 20 -90 18 0 23 18 30 110 3 41 8 103 11 136
l5 62 127 12 c70 6 150 10 177 8 l50 -3 0 -145 c0 -160 2 -156 -65 -136 -21 7
-17 0 22 -38 26 -25 52 -46 57 -46 26 0 41 60 41 163 0 57 5 128 10 158 16 84
-15 99 -155 73z"/>
</g>
</svg>
