<?xml version="1.0" standalone="no"?>
<!DOCTYPE svg PUBLIC "-//W3C//DTD SVG 20010904//EN"
 "http://www.w3.org/TR/2001/REC-SVG-20010904/DTD/svg10.dtd">
<svg version="1.0" xmlns="http://www.w3.org/2000/svg"
 width="96.000000pt" height="68.000000pt" viewBox="0 0 96.000000 68.000000"
 preserveAspectRatio="xMidYMid meet">
<metadata>
Created by potrace 1.16, written by Peter Selinger 2001-2019
</metadata>
<g transform="translate(0.000000,68.000000) scale(0.100000,-0.100000)"
fill="#000000" stroke="none">
<path d="M434 236 l-61 -11 16 -50 c9 -27 19 -49 24 -49 4 1 39 5 77 8 42 4
68 11 64 17 -3 5 3 27 15 48 11 22 17 42 14 45 -9 9 -78 5 -149 -8z m86 -40
c0 -32 -2 -34 -47 -40 -50 -7 -63 1 -63 41 0 18 7 22 43 26 23 2 48 4 55 5 7
1 12 -10 12 -32z"/>
</g>
</svg>
