<?xml version="1.0" standalone="no"?>
<!DOCTYPE svg PUBLIC "-//W3C//DTD SVG 20010904//EN"
 "http://www.w3.org/TR/2001/REC-SVG-20010904/DTD/svg10.dtd">
<svg version="1.0" xmlns="http://www.w3.org/2000/svg"
 width="96.000000pt" height="68.000000pt" viewBox="0 0 96.000000 68.000000"
 preserveAspectRatio="xMidYMid meet">
<metadata>
Created by potrace 1.16, written by Peter Selinger 2001-2019
</metadata>
<g transform="translate(0.000000,68.000000) scale(0.100000,-0.100000)"
fill="#000000" stroke="none">
<path d="M604 568 c3 -13 6 -60 6 -105 0 -75 2 -83 19 -83 16 0 19 11 26 95 4
51 4 99 0 105 -3 5 -18 10 -32 10 -21 0 -24 -3 -19 -22z"/>
<path d="M738 480 c-16 -28 -26 -50 -24 -50 16 0 96 55 96 66 0 11 -29 34 -42
34 -2 0 -15 -23 -30 -50z"/>
<path d="M496 458 c15 -27 38 -48 51 -48 20 0 16 38 -6 50 -28 14 -54 13 -45
-2z"/>
</g>
</svg>
