<?xml version="1.0" standalone="no"?>
<!DOCTYPE svg PUBLIC "-//W3C//DTD SVG 20010904//EN"
 "http://www.w3.org/TR/2001/REC-SVG-20010904/DTD/svg10.dtd">
<svg version="1.0" xmlns="http://www.w3.org/2000/svg"
 width="96.000000pt" height="68.000000pt" viewBox="0 0 96.000000 68.000000"
 preserveAspectRatio="xMidYMid meet">
<metadata>
Created by potrace 1.16, written by Peter Selinger 2001-2019
</metadata>
<g transform="translate(0.000000,68.000000) scale(0.100000,-0.100000)"
fill="#000000" stroke="none">
<path d="M495 355 c-44 -8 -108 -14 -142 -14 -58 -1 -81 -12 -50 -24 7 -3 19
-30 26 -62 7 -31 19 -59 27 -62 7 -3 51 -1 96 5 46 5 90 5 99 1 22 -11 34 4
64 82 14 34 25 64 25 65 0 2 -62 25 -64 23 -1 -1 -37 -7 -81 -14z m70 -40 c0
-13 -6 -19 -16 -17 -9 1 -55 -4 -103 -11 -47 -8 -88 -12 -91 -9 -3 3 -5 13 -5
23 0 14 15 19 83 27 113 13 132 11 132 -13z m-5 -52 c-1 -23 -23 -32 -99 -38
-66 -6 -85 -5 -92 6 -15 24 -10 28 39 32 92 7 152 7 152 0z"/>
</g>
</svg>
