<?xml version="1.0" standalone="no"?>
<!DOCTYPE svg PUBLIC "-//W3C//DTD SVG 20010904//EN"
 "http://www.w3.org/TR/2001/REC-SVG-20010904/DTD/svg10.dtd">
<svg version="1.0" xmlns="http://www.w3.org/2000/svg"
 width="96.000000pt" height="68.000000pt" viewBox="0 0 96.000000 68.000000"
 preserveAspectRatio="xMidYMid meet">
<metadata>
Created by potrace 1.16, written by Peter Selinger 2001-2019
</metadata>
<g transform="translate(0.000000,68.000000) scale(0.100000,-0.100000)"
fill="#000000" stroke="none">
<path d="M504 463 c-9 -46 -10 -48 -46 -51 -33 -3 -38 0 -44 23 -6 24 -60 72
-70 62 -3 -3 4 -23 15 -46 12 -22 21 -42 21 -45 0 -2 -47 -7 -105 -11 -58 -4
-108 -11 -111 -16 -11 -19 54 -20 208 -5 90 8 216 18 281 22 64 3 117 9 117
14 0 4 -7 13 -15 20 -12 10 -36 10 -117 1 -55 -6 -103 -9 -106 -7 -2 3 5 18
16 34 23 31 15 52 -19 52 -12 0 -19 -13 -25 -47z"/>
</g>
</svg>
