<?xml version="1.0" standalone="no"?>
<!DOCTYPE svg PUBLIC "-//W3C//DTD SVG 20010904//EN"
 "http://www.w3.org/TR/2001/REC-SVG-20010904/DTD/svg10.dtd">
<svg version="1.0" xmlns="http://www.w3.org/2000/svg"
 width="96.000000pt" height="68.000000pt" viewBox="0 0 96.000000 68.000000"
 preserveAspectRatio="xMidYMid meet">
<metadata>
Created by potrace 1.16, written by Peter Selinger 2001-2019
</metadata>
<g transform="translate(0.000000,68.000000) scale(0.100000,-0.100000)"
fill="#000000" stroke="none">
<path d="M280 623 c0 -5 5 -41 10 -80 5 -40 7 -79 4 -87 -3 -9 -33 -19 -76
-26 -85 -15 -74 -34 13 -24 65 7 73 -2 63 -66 l-6 -38 -99 -31 c-54 -18 -99
-34 -99 -36 0 -3 13 -11 29 -20 33 -17 46 -14 112 27 25 15 49 28 53 28 8 0 8
-77 0 -107 -5 -18 -11 -21 -42 -17 l-37 5 44 -41 c42 -38 45 -39 63 -24 15 14
18 32 18 113 l0 96 38 23 37 23 -38 -6 -38 -6 3 43 c3 40 6 43 40 53 45 12 45
30 -1 29 l-33 -1 5 51 c3 28 8 61 12 73 6 17 1 25 -24 37 -33 17 -51 20 -51 9z"/>
</g>
</svg>
