<?xml version="1.0" standalone="no"?>
<!DOCTYPE svg PUBLIC "-//W3C//DTD SVG 20010904//EN"
 "http://www.w3.org/TR/2001/REC-SVG-20010904/DTD/svg10.dtd">
<svg version="1.0" xmlns="http://www.w3.org/2000/svg"
 width="90.000000pt" height="92.000000pt" viewBox="0 0 90.000000 92.000000"
 preserveAspectRatio="xMidYMid meet">
<metadata>
Created by potrace 1.16, written by Peter Selinger 2001-2019
</metadata>
<g transform="translate(0.000000,92.000000) scale(0.100000,-0.100000)"
fill="#000000" stroke="none">
<path d="M474 813 c-8 -48 -62 -164 -102 -223 -17 -24 -29 -46 -27 -49 3 -2
24 13 49 33 24 20 54 36 65 36 12 0 62 7 112 16 50 8 97 13 105 10 24 -9 13
-145 -18 -219 -10 -25 -16 -28 -45 -25 -18 2 -32 2 -31 -1 20 -40 56 -91 65
-91 22 0 62 61 73 112 51 245 51 238 15 259 -29 16 -34 16 -120 -2 -49 -10
-105 -19 -123 -19 l-33 0 19 28 c10 15 32 51 47 80 l29 54 -24 19 c-36 27 -48
23 -56 -18z"/>
<path d="M224 749 c-42 -15 -58 -16 -88 -7 -43 13 -52 8 -36 -22 9 -16 11 -76
8 -204 -5 -200 -20 -266 -79 -355 -17 -24 -28 -45 -26 -48 3 -2 21 10 41 27
41 36 82 116 92 178 7 47 7 47 34 30 21 -14 20 -15 87 71 10 13 12 -5 12 -89
-1 -108 -9 -156 -25 -153 -5 1 -27 5 -49 9 l-40 7 49 -51 c28 -29 56 -52 64
-52 7 0 22 19 32 42 17 38 19 75 21 332 2 277 2 290 -17 297 -23 9 -19 10 -80
-12z m47 -56 c1 -16 3 -51 5 -79 l3 -51 -36 18 c-21 11 -48 19 -60 19 -20 0
-23 5 -23 38 0 60 13 70 98 81 7 0 13 -11 13 -26z m-14 -170 c24 4 25 3 19
-31 -3 -21 -15 -44 -28 -54 -29 -22 -88 -51 -94 -46 -2 3 -1 46 2 96 l7 91 35
-30 c25 -22 42 -29 59 -26z"/>
<path d="M471 525 c-24 -8 -54 -12 -65 -9 -22 5 -22 4 -18 -163 3 -116 9 -176
18 -195 8 -15 36 -37 69 -53 51 -26 61 -27 162 -23 85 3 117 8 149 25 68 36
70 42 42 130 l-25 78 -8 -54 c-12 -90 -63 -121 -200 -121 -79 0 -137 13 -155
35 -7 9 -15 46 -18 84 -5 77 -10 72 91 86 26 4 47 11 47 16 0 5 -4 9 -10 9
-17 0 -11 32 15 89 14 30 22 58 18 62 -16 16 -68 18 -112 4z m37 -80 c-3 -30
-7 -57 -10 -60 -2 -3 -19 -8 -37 -11 l-32 -7 3 59 c3 52 5 59 28 65 51 14 53
13 48 -46z"/>
</g>
</svg>
