<?xml version="1.0" standalone="no"?>
<!DOCTYPE svg PUBLIC "-//W3C//DTD SVG 20010904//EN"
 "http://www.w3.org/TR/2001/REC-SVG-20010904/DTD/svg10.dtd">
<svg version="1.0" xmlns="http://www.w3.org/2000/svg"
 width="90.000000pt" height="92.000000pt" viewBox="0 0 90.000000 92.000000"
 preserveAspectRatio="xMidYMid meet">
<metadata>
Created by potrace 1.16, written by Peter Selinger 2001-2019
</metadata>
<g transform="translate(0.000000,92.000000) scale(0.100000,-0.100000)"
fill="#000000" stroke="none">
<path d="M577 802 c5 -66 5 -69 -18 -75 -13 -4 -44 -7 -68 -7 -42 0 -43 -1
-27 -19 9 -10 19 -35 23 -55 5 -34 33 -73 33 -47 0 6 14 11 30 11 25 0 30 -4
30 -24 0 -26 -9 -30 -103 -41 -31 -4 -59 -11 -62 -15 -9 -14 49 -27 85 -19 62
15 259 39 311 39 55 0 63 15 18 37 -18 9 -40 8 -94 -3 -102 -20 -115 -19 -115
10 0 22 5 24 63 30 l62 7 20 47 c11 25 21 49 23 53 1 3 -11 13 -29 21 -27 13
-38 14 -80 3 l-49 -13 0 54 c0 49 -2 55 -26 64 -14 6 -27 10 -29 10 -2 0 -1
-31 2 -68z m131 -104 c-3 -29 -8 -34 -40 -42 -46 -11 -52 -7 -43 33 6 30 19
38 63 40 20 1 23 -3 20 -31z m-140 -59 c-27 -17 -46 -9 -50 21 -4 27 -1 31 26
38 29 8 31 7 34 -21 2 -17 -2 -34 -10 -38z"/>
<path d="M140 788 c0 -7 14 -37 30 -67 17 -30 30 -57 30 -61 0 -4 -35 -13 -77
-19 -135 -22 -148 -28 -94 -50 23 -10 42 -9 107 8 44 11 105 23 137 27 38 4
57 11 57 20 0 17 -42 28 -74 20 -20 -5 -23 -3 -18 19 8 43 -6 70 -47 93 -45
25 -51 27 -51 10z"/>
<path d="M365 621 c24 -47 45 -64 61 -50 8 6 14 17 14 24 0 18 -48 55 -72 55
-17 0 -18 -2 -3 -29z"/>
<path d="M158 532 c-101 -28 -55 -53 51 -28 70 16 76 20 66 35 -8 14 -47 12
-117 -7z"/>
<path d="M630 494 c-25 -7 -67 -13 -94 -13 -42 -1 -47 -3 -40 -18 13 -29 16
-114 6 -173 -8 -56 1 -110 19 -110 5 0 9 4 9 9 0 10 32 16 137 27 35 3 61 10
58 15 -3 4 4 27 16 50 20 41 20 43 3 56 -23 16 -30 16 -101 -2 -83 -22 -103
-20 -103 9 0 23 4 25 85 31 79 7 85 9 85 30 0 12 10 35 22 50 21 27 21 28 3
41 -22 16 -44 16 -105 -2z m48 -51 c-3 -28 -14 -34 -95 -47 -43 -6 -43 -6 -43
24 0 23 5 31 23 34 12 3 31 7 42 9 11 3 33 5 48 6 25 1 28 -2 25 -26z m14
-138 c3 -3 3 -16 1 -30 -4 -19 -13 -25 -47 -30 -22 -3 -56 -9 -73 -12 -32 -5
-33 -4 -33 30 l0 36 53 4 c28 2 61 4 73 5 11 1 23 0 26 -3z"/>
<path d="M180 450 c-14 -4 -38 -11 -53 -14 -17 -4 -25 -11 -21 -18 7 -11 122
-6 157 8 51 19 -29 43 -83 24z"/>
<path d="M347 435 c-53 -25 -48 -41 10 -30 32 6 35 4 28 -12 -17 -41 -17 -56
-2 -91 8 -20 18 -51 21 -69 6 -36 -4 -43 -65 -43 -40 0 -48 -7 -27 -28 7 -7
31 -9 68 -5 60 6 97 -4 242 -68 36 -16 79 -29 95 -29 16 0 60 15 98 33 l70 34
-120 7 c-72 4 -163 17 -228 33 -104 25 -108 27 -106 52 4 48 -1 67 -22 90
l-22 23 22 26 c55 69 57 73 36 88 -25 19 -41 17 -98 -11z"/>
<path d="M190 343 c-19 -8 -54 -15 -77 -16 -45 0 -52 -7 -29 -26 8 -7 18 -31
21 -54 11 -66 23 -91 38 -79 6 5 38 13 70 17 31 3 55 10 52 15 -3 5 4 37 16
72 20 59 20 63 3 75 -23 16 -50 15 -94 -4z m40 -73 c0 -48 -1 -49 -35 -56 -43
-8 -45 -6 -52 45 -5 38 -4 40 28 49 57 17 59 16 59 -38z"/>
</g>
</svg>
