<?xml version="1.0" standalone="no"?>
<!DOCTYPE svg PUBLIC "-//W3C//DTD SVG 20010904//EN"
 "http://www.w3.org/TR/2001/REC-SVG-20010904/DTD/svg10.dtd">
<svg version="1.0" xmlns="http://www.w3.org/2000/svg"
 width="96.000000pt" height="68.000000pt" viewBox="0 0 96.000000 68.000000"
 preserveAspectRatio="xMidYMid meet">
<metadata>
Created by potrace 1.16, written by Peter Selinger 2001-2019
</metadata>
<g transform="translate(0.000000,68.000000) scale(0.100000,-0.100000)"
fill="#000000" stroke="none">
<path d="M255 220 c-11 -5 -42 -9 -69 -9 -46 -1 -48 -2 -34 -18 9 -10 21 -35
27 -55 13 -40 32 -59 39 -40 2 7 24 12 53 12 38 0 49 4 49 16 0 9 7 32 17 51
14 30 14 36 2 44 -17 11 -57 10 -84 -1z m31 -52 c-8 -38 -5 -36 -40 -40 -24
-2 -30 2 -39 26 -11 34 1 46 52 46 32 0 33 -1 27 -32z"/>
</g>
</svg>
