<?xml version="1.0" standalone="no"?>
<!DOCTYPE svg PUBLIC "-//W3C//DTD SVG 20010904//EN"
 "http://www.w3.org/TR/2001/REC-SVG-20010904/DTD/svg10.dtd">
<svg version="1.0" xmlns="http://www.w3.org/2000/svg"
 width="90.000000pt" height="92.000000pt" viewBox="0 0 90.000000 92.000000"
 preserveAspectRatio="xMidYMid meet">
<metadata>
Created by potrace 1.16, written by Peter Selinger 2001-2019
</metadata>
<g transform="translate(0.000000,92.000000) scale(0.100000,-0.100000)"
fill="#000000" stroke="none">
<path d="M385 893 c3 -10 8 -32 11 -49 l4 -32 -79 -7 c-44 -4 -89 -4 -100 0
-24 7 -27 -2 -7 -24 7 -9 21 -40 30 -68 16 -49 36 -78 36 -54 0 7 24 11 60 11
59 0 60 0 60 -28 l0 -28 -117 -12 c-65 -7 -141 -12 -170 -12 -64 0 -75 -14
-29 -37 33 -15 41 -15 123 0 131 25 269 36 451 37 150 0 163 1 160 17 -2 10
-16 24 -32 32 -25 12 -47 11 -160 -3 -169 -21 -186 -21 -186 2 0 33 15 40 98
47 65 6 80 10 72 20 -8 10 -3 22 20 48 37 42 37 50 4 72 -26 17 -46 17 -153
-2 l-34 -6 7 36 c6 30 3 38 -13 46 -11 6 -29 11 -41 11 -17 0 -21 -4 -15 -17z
m191 -125 c-8 -42 -12 -44 -73 -51 l-53 -6 0 39 c0 44 6 48 79 49 l54 1 -7
-32z m-178 -20 l-3 -43 -57 -3 -57 -3 -3 33 c-3 33 -2 33 52 44 30 7 59 12 63
13 5 1 7 -18 5 -41z"/>
<path d="M435 519 c-55 -11 -120 -17 -144 -14 -38 4 -42 3 -36 -13 15 -34 17
-82 6 -161 -14 -104 -5 -133 39 -125 60 13 25 -48 -70 -116 -34 -24 -57 -46
-52 -48 23 -7 230 113 231 135 1 6 -8 15 -19 18 -46 15 -14 25 80 25 84 0 101
-3 109 -17 10 -17 12 -17 26 1 11 15 15 48 15 132 0 62 4 124 10 139 9 23 6
28 -23 45 -37 23 -40 23 -172 -1z m123 -58 c3 -27 0 -33 -12 -28 -9 4 -60 0
-114 -8 -133 -20 -132 -21 -132 15 0 17 5 30 13 31 6 0 48 6 92 14 44 7 96 12
115 12 32 -2 35 -5 38 -36z m6 -77 c4 -15 6 -27 4 -29 -5 -3 -211 -25 -240
-25 -24 0 -28 4 -28 28 0 28 2 29 53 31 28 1 81 6 117 10 36 5 70 9 76 10 7 0
15 -11 18 -25z m2 -86 c-3 -13 -6 -27 -6 -33 0 -6 -53 -11 -130 -13 l-130 -4
0 25 c0 24 3 25 93 35 50 5 112 10 136 11 40 1 43 -1 37 -21z"/>
<path d="M552 114 c53 -54 81 -75 92 -71 43 17 -2 87 -78 123 -93 43 -96 31
-14 -52z"/>
</g>
</svg>
