<?xml version="1.0" standalone="no"?>
<!DOCTYPE svg PUBLIC "-//W3C//DTD SVG 20010904//EN"
 "http://www.w3.org/TR/2001/REC-SVG-20010904/DTD/svg10.dtd">
<svg version="1.0" xmlns="http://www.w3.org/2000/svg"
 width="96.000000pt" height="68.000000pt" viewBox="0 0 96.000000 68.000000"
 preserveAspectRatio="xMidYMid meet">
<metadata>
Created by potrace 1.16, written by Peter Selinger 2001-2019
</metadata>
<g transform="translate(0.000000,68.000000) scale(0.100000,-0.100000)"
fill="#000000" stroke="none">
<path d="M545 483 c-82 -14 -152 -27 -154 -28 -2 -2 4 -11 13 -20 13 -14 16
-41 16 -160 0 -79 3 -151 6 -160 14 -35 58 -45 207 -45 160 0 207 6 207 26 0
11 -33 12 -178 7 -157 -5 -179 -4 -191 11 -10 12 -13 49 -9 166 2 82 7 152 11
156 3 4 57 13 119 21 175 22 181 24 171 34 -18 18 -72 17 -218 -8z"/>
</g>
</svg>
