<?xml version="1.0" standalone="no"?>
<!DOCTYPE svg PUBLIC "-//W3C//DTD SVG 20010904//EN"
 "http://www.w3.org/TR/2001/REC-SVG-20010904/DTD/svg10.dtd">
<svg version="1.0" xmlns="http://www.w3.org/2000/svg"
 width="96.000000pt" height="68.000000pt" viewBox="0 0 96.000000 68.000000"
 preserveAspectRatio="xMidYMid meet">
<metadata>
Created by potrace 1.16, written by Peter Selinger 2001-2019
</metadata>
<g transform="translate(0.000000,68.000000) scale(0.100000,-0.100000)"
fill="#000000" stroke="none">
<path d="M338 570 c-14 -4 -54 -11 -87 -15 -55 -6 -60 -9 -51 -25 6 -10 10
-50 10 -89 l0 -71 88 4 87 4 17 63 c9 35 22 72 28 81 5 10 10 20 10 23 0 6
-66 36 -72 34 -2 0 -15 -4 -30 -9z m32 -49 c0 -25 -4 -29 -37 -35 -74 -12 -85
-9 -81 22 2 22 9 28 38 33 73 13 80 11 80 -20z m-10 -68 c0 -27 -12 -39 -45
-46 -16 -3 -38 -9 -47 -12 -15 -6 -18 -1 -18 27 0 33 1 34 42 37 23 1 44 4 47
7 10 10 21 3 21 -13z"/>
</g>
</svg>
