<?xml version="1.0" standalone="no"?>
<!DOCTYPE svg PUBLIC "-//W3C//DTD SVG 20010904//EN"
 "http://www.w3.org/TR/2001/REC-SVG-20010904/DTD/svg10.dtd">
<svg version="1.0" xmlns="http://www.w3.org/2000/svg"
 width="96.000000pt" height="68.000000pt" viewBox="0 0 96.000000 68.000000"
 preserveAspectRatio="xMidYMid meet">
<metadata>
Created by potrace 1.16, written by Peter Selinger 2001-2019
</metadata>
<g transform="translate(0.000000,68.000000) scale(0.100000,-0.100000)"
fill="#000000" stroke="none">
<path d="M564 447 c3 -16 6 -47 6 -67 0 -33 3 -37 20 -33 15 4 20 14 20 42 0
20 3 46 6 57 5 18 1 22 -26 26 -31 5 -32 4 -26 -25z"/>
<path d="M697 425 l-38 -45 58 22 c32 12 60 23 62 25 5 4 -30 43 -38 43 -4 0
-24 -20 -44 -45z"/>
<path d="M440 421 c0 -13 50 -51 66 -51 21 0 17 38 -5 50 -24 13 -61 13 -61 1z"/>
</g>
</svg>
