<?xml version="1.0" standalone="no"?>
<!DOCTYPE svg PUBLIC "-//W3C//DTD SVG 20010904//EN"
 "http://www.w3.org/TR/2001/REC-SVG-20010904/DTD/svg10.dtd">
<svg version="1.0" xmlns="http://www.w3.org/2000/svg"
 width="96.000000pt" height="68.000000pt" viewBox="0 0 96.000000 68.000000"
 preserveAspectRatio="xMidYMid meet">
<metadata>
Created by potrace 1.16, written by Peter Selinger 2001-2019
</metadata>
<g transform="translate(0.000000,68.000000) scale(0.100000,-0.100000)"
fill="#000000" stroke="none">
<path d="M288 597 c4 -33 3 -34 -38 -41 -49 -8 -44 -26 6 -26 24 0 34 -4 32
-12 -3 -8 -36 -17 -82 -22 -87 -10 -99 -29 -20 -34 72 -5 98 -32 47 -50 -26
-10 -24 -10 20 -11 39 -1 47 -4 47 -20 0 -16 -10 -20 -60 -26 -33 -4 -60 -11
-60 -16 0 -11 34 -11 83 0 34 8 37 7 38 -13 1 -11 2 -25 4 -31 1 -5 3 -18 3
-28 3 -29 22 -9 22 23 0 49 9 60 49 60 47 0 72 15 40 23 -13 4 -33 4 -45 1
-16 -4 -26 0 -34 15 -10 20 -8 21 30 21 22 0 40 5 40 10 0 6 -7 10 -15 10 -17
0 -20 16 -4 25 6 4 8 13 5 21 -4 10 3 14 25 14 53 0 27 25 -29 28 -62 4 -68
17 -11 25 22 3 44 8 47 12 12 11 -23 26 -50 21 -23 -5 -27 -2 -30 22 -2 22 -9
28 -34 30 -29 3 -30 2 -26 -31z m72 -137 c0 -20 -27 -40 -54 -40 -9 0 -16 6
-16 14 0 8 -8 17 -17 21 -16 7 -15 9 7 15 49 15 80 12 80 -10z"/>
<path d="M535 566 l7 -44 -42 -7 c-30 -5 -39 -10 -29 -16 8 -5 24 -9 37 -9 23
0 28 -15 13 -38 -5 -9 -17 -11 -37 -6 l-29 7 24 -20 24 -20 -22 -32 c-12 -17
-27 -31 -32 -31 -5 0 -9 -4 -9 -10 0 -17 18 -11 42 13 47 45 55 49 77 38 30
-16 39 8 12 29 -22 16 -22 18 -7 53 12 29 21 37 40 37 23 0 26 -4 26 -37 0
-99 40 -153 117 -160 70 -6 81 5 55 57 -20 42 -21 42 -27 17 -11 -43 -59 -45
-94 -3 -18 22 -16 72 5 111 26 48 12 56 -73 41 l-43 -8 7 32 c6 32 -6 50 -35
50 -10 0 -12 -11 -7 -44z"/>
<path d="M495 322 c-16 -10 -48 -26 -70 -35 l-40 -16 31 0 c36 -1 45 -7 37
-27 -4 -10 -23 -14 -64 -14 -33 0 -59 -4 -59 -10 0 -6 28 -10 65 -10 57 0 65
-2 65 -19 0 -15 -11 -19 -77 -25 -42 -3 -110 -6 -152 -6 -71 -1 -75 -2 -56
-16 15 -12 34 -14 80 -10 33 4 93 9 133 13 l72 6 0 -53 0 -52 -30 6 c-37 7
-38 2 -2 -29 50 -45 65 -31 72 65 l5 65 129 2 c70 1 131 5 134 8 19 19 -33 26
-145 20 -118 -6 -123 -6 -123 13 0 17 9 21 58 27 32 3 64 10 71 15 23 14 -20
21 -70 12 -48 -9 -72 -6 -63 9 3 5 0 9 -5 9 -28 0 -7 19 27 25 47 8 67 19 58
34 -11 16 -47 13 -81 -7z"/>
</g>
</svg>
