<?xml version="1.0" standalone="no"?>
<!DOCTYPE svg PUBLIC "-//W3C//DTD SVG 20010904//EN"
 "http://www.w3.org/TR/2001/REC-SVG-20010904/DTD/svg10.dtd">
<svg version="1.0" xmlns="http://www.w3.org/2000/svg"
 width="96.000000pt" height="68.000000pt" viewBox="0 0 96.000000 68.000000"
 preserveAspectRatio="xMidYMid meet">
<metadata>
Created by potrace 1.16, written by Peter Selinger 2001-2019
</metadata>
<g transform="translate(0.000000,68.000000) scale(0.100000,-0.100000)"
fill="#000000" stroke="none">
<path d="M435 585 c-49 -7 -111 -14 -137 -14 -50 -1 -61 -14 -31 -36 9 -7 26
-48 38 -91 19 -74 22 -79 45 -76 14 1 65 7 115 13 63 7 91 7 93 0 6 -19 31
-12 46 12 28 44 69 178 57 190 -16 16 -124 17 -226 2z m145 -52 c0 -27 -2 -28
-47 -28 -27 -1 -80 -4 -119 -9 -69 -8 -72 -7 -79 14 -4 12 -5 24 -2 26 7 7
124 21 190 23 56 1 57 0 57 -26z m-12 -80 c-3 -28 -4 -28 -101 -37 -53 -5 -99
-7 -101 -5 -2 2 -6 13 -10 25 -6 20 -1 22 81 31 142 16 135 17 131 -14z"/>
<path d="M630 344 c-8 -2 -89 -12 -180 -23 -116 -13 -173 -15 -193 -9 -35 13
-45 4 -24 -20 9 -9 25 -60 37 -112 23 -104 33 -123 52 -98 10 12 41 17 143 23
l130 6 17 -30 c34 -62 81 -10 98 109 6 40 13 83 16 95 9 38 -45 72 -96 59z m3
-42 c14 -2 17 -12 17 -64 0 -104 1 -103 -88 -103 -42 0 -114 -4 -159 -9 -69
-7 -83 -6 -83 5 0 8 -3 23 -6 35 -5 20 0 21 133 33 160 15 193 20 193 32 0 12
-103 10 -229 -5 l-103 -12 -9 24 c-12 32 -11 42 4 43 6 0 68 6 137 13 116 11
145 12 193 8z"/>
</g>
</svg>
