<?xml version="1.0" standalone="no"?>
<!DOCTYPE svg PUBLIC "-//W3C//DTD SVG 20010904//EN"
 "http://www.w3.org/TR/2001/REC-SVG-20010904/DTD/svg10.dtd">
<svg version="1.0" xmlns="http://www.w3.org/2000/svg"
 width="90.000000pt" height="92.000000pt" viewBox="0 0 90.000000 92.000000"
 preserveAspectRatio="xMidYMid meet">
<metadata>
Created by potrace 1.16, written by Peter Selinger 2001-2019
</metadata>
<g transform="translate(0.000000,92.000000) scale(0.100000,-0.100000)"
fill="#000000" stroke="none">
<path d="M500 754 c-35 -8 -118 -21 -184 -29 -65 -8 -122 -17 -124 -20 -17
-16 26 -30 93 -30 45 0 79 -5 86 -12 7 -7 14 -49 17 -96 l4 -84 -83 -7 c-46
-4 -85 -9 -88 -12 -3 -2 1 -10 8 -17 8 -8 39 -11 87 -10 l74 1 1 -46 c1 -26 3
-73 5 -104 3 -67 9 -64 -126 -72 -153 -10 -220 -18 -220 -26 0 -4 18 -15 40
-25 34 -15 47 -16 97 -6 94 18 286 31 471 31 160 0 173 1 170 17 -2 10 -19 26
-38 35 -32 16 -44 16 -155 3 -66 -8 -135 -15 -152 -15 l-33 0 0 109 0 108 72
7 c120 11 145 24 93 48 -17 8 -45 8 -95 1 l-70 -9 0 32 c0 18 5 57 11 85 10
46 9 54 -5 65 -14 10 -7 13 41 19 145 17 185 37 128 63 -31 14 -42 14 -125 -4z"/>
<path d="M610 406 c0 -21 80 -106 100 -106 39 0 33 67 -8 89 -9 5 -34 13 -54
19 -30 8 -38 8 -38 -2z"/>
</g>
</svg>
