<?xml version="1.0" standalone="no"?>
<!DOCTYPE svg PUBLIC "-//W3C//DTD SVG 20010904//EN"
 "http://www.w3.org/TR/2001/REC-SVG-20010904/DTD/svg10.dtd">
<svg version="1.0" xmlns="http://www.w3.org/2000/svg"
 width="96.000000pt" height="68.000000pt" viewBox="0 0 96.000000 68.000000"
 preserveAspectRatio="xMidYMid meet">
<metadata>
Created by potrace 1.16, written by Peter Selinger 2001-2019
</metadata>
<g transform="translate(0.000000,68.000000) scale(0.100000,-0.100000)"
fill="#000000" stroke="none">
<path d="M540 560 c-19 -4 -95 -14 -167 -21 -73 -7 -133 -16 -133 -20 0 -20
46 -31 105 -25 72 7 72 7 81 -79 l6 -52 -47 -7 c-26 -3 -61 -6 -76 -6 -16 0
-29 -4 -29 -10 0 -6 32 -10 75 -10 l76 0 -3 -76 -3 -76 -50 -3 c-200 -13 -245
-18 -245 -25 0 -18 75 -22 184 -11 62 6 196 11 298 11 184 0 216 6 189 33 -13
13 -94 15 -223 4 l-98 -8 0 79 0 79 76 6 c42 3 79 8 82 12 16 16 -28 25 -92
19 l-69 -6 6 62 c4 34 9 65 12 70 3 4 36 11 73 15 85 8 105 19 78 40 -21 16
-51 18 -106 5z"/>
<path d="M650 270 c51 -46 70 -50 70 -14 0 19 -8 28 -35 40 -19 7 -44 14 -57
14 -19 0 -17 -5 22 -40z"/>
</g>
</svg>
