<?xml version="1.0" standalone="no"?>
<!DOCTYPE svg PUBLIC "-//W3C//DTD SVG 20010904//EN"
 "http://www.w3.org/TR/2001/REC-SVG-20010904/DTD/svg10.dtd">
<svg version="1.0" xmlns="http://www.w3.org/2000/svg"
 width="96.000000pt" height="68.000000pt" viewBox="0 0 96.000000 68.000000"
 preserveAspectRatio="xMidYMid meet">
<metadata>
Created by potrace 1.16, written by Peter Selinger 2001-2019
</metadata>
<g transform="translate(0.000000,68.000000) scale(0.100000,-0.100000)"
fill="#000000" stroke="none">
<path d="M565 574 c-8 -19 -24 -48 -35 -64 -26 -36 -25 -44 3 -29 34 19 127
90 127 99 0 9 -46 30 -65 30 -8 0 -21 -16 -30 -36z"/>
<path d="M300 575 c0 -18 75 -95 92 -95 32 0 20 50 -17 71 -36 20 -75 33 -75
24z"/>
<path d="M414 450 c-94 -10 -180 -20 -190 -22 -19 -5 -19 -5 0 -13 11 -5 83
-3 160 3 78 6 187 15 244 18 85 6 100 9 91 20 -15 18 -85 16 -305 -6z"/>
</g>
</svg>
