<?xml version="1.0" standalone="no"?>
<!DOCTYPE svg PUBLIC "-//W3C//DTD SVG 20010904//EN"
 "http://www.w3.org/TR/2001/REC-SVG-20010904/DTD/svg10.dtd">
<svg version="1.0" xmlns="http://www.w3.org/2000/svg"
 width="96.000000pt" height="68.000000pt" viewBox="0 0 96.000000 68.000000"
 preserveAspectRatio="xMidYMid meet">
<metadata>
Created by potrace 1.16, written by Peter Selinger 2001-2019
</metadata>
<g transform="translate(0.000000,68.000000) scale(0.100000,-0.100000)"
fill="#000000" stroke="none">
<path d="M590 264 c-52 -8 -111 -12 -131 -9 l-35 5 0 -78 c0 -42 -1 -94 -4
-115 -4 -45 13 -69 32 -45 10 12 40 17 122 21 107 6 109 6 128 -18 11 -14 23
-25 28 -25 21 0 34 51 41 150 9 142 10 142 -181 114z m130 -103 l0 -88 -112
-7 c-62 -4 -121 -9 -130 -12 -16 -5 -18 4 -18 85 l0 90 33 5 c50 9 96 13 165
14 l62 2 0 -89z"/>
</g>
</svg>
