<?xml version="1.0" standalone="no"?>
<!DOCTYPE svg PUBLIC "-//W3C//DTD SVG 20010904//EN"
 "http://www.w3.org/TR/2001/REC-SVG-20010904/DTD/svg10.dtd">
<svg version="1.0" xmlns="http://www.w3.org/2000/svg"
 width="96.000000pt" height="68.000000pt" viewBox="0 0 96.000000 68.000000"
 preserveAspectRatio="xMidYMid meet">
<metadata>
Created by potrace 1.16, written by Peter Selinger 2001-2019
</metadata>
<g transform="translate(0.000000,68.000000) scale(0.100000,-0.100000)"
fill="#000000" stroke="none">
<path d="M562 577 c-17 -13 -49 -32 -71 -42 -71 -32 -34 -34 66 -4 53 16 99
31 101 34 10 9 -21 35 -42 35 -12 0 -36 -11 -54 -23z"/>
<path d="M653 503 c-3 -10 -17 -33 -31 -52 l-25 -33 24 13 c54 28 99 63 92 69
-4 4 -18 11 -31 15 -16 5 -24 2 -29 -12z"/>
<path d="M520 485 c0 -15 34 -55 46 -55 17 0 18 32 2 48 -12 12 -48 17 -48 7z"/>
<path d="M429 452 c20 -38 61 -53 61 -22 0 16 -31 40 -51 40 -16 0 -18 -3 -10
-18z"/>
</g>
</svg>
