<?xml version="1.0" standalone="no"?>
<!DOCTYPE svg PUBLIC "-//W3C//DTD SVG 20010904//EN"
 "http://www.w3.org/TR/2001/REC-SVG-20010904/DTD/svg10.dtd">
<svg version="1.0" xmlns="http://www.w3.org/2000/svg"
 width="96.000000pt" height="68.000000pt" viewBox="0 0 96.000000 68.000000"
 preserveAspectRatio="xMidYMid meet">
<metadata>
Created by potrace 1.16, written by Peter Selinger 2001-2019
</metadata>
<g transform="translate(0.000000,68.000000) scale(0.100000,-0.100000)"
fill="#000000" stroke="none">
<path d="M255 555 c6 -51 7 -50 -70 -60 -40 -6 -46 -9 -31 -17 10 -6 38 -8 62
-4 41 5 44 4 44 -18 0 -21 -6 -24 -52 -32 l-53 -8 53 -4 c48 -3 52 -5 52 -28
0 -17 5 -24 20 -24 15 0 20 7 20 25 0 26 3 29 54 40 37 8 26 19 -19 17 -28 -1
-35 2 -35 18 0 13 9 21 25 25 84 17 81 16 62 26 -10 6 -32 9 -50 7 -30 -3 -32
-2 -29 29 3 31 -8 45 -41 50 -15 3 -16 -3 -12 -42z"/>
</g>
</svg>
