<?xml version="1.0" standalone="no"?>
<!DOCTYPE svg PUBLIC "-//W3C//DTD SVG 20010904//EN"
 "http://www.w3.org/TR/2001/REC-SVG-20010904/DTD/svg10.dtd">
<svg version="1.0" xmlns="http://www.w3.org/2000/svg"
 width="96.000000pt" height="68.000000pt" viewBox="0 0 96.000000 68.000000"
 preserveAspectRatio="xMidYMid meet">
<metadata>
Created by potrace 1.16, written by Peter Selinger 2001-2019
</metadata>
<g transform="translate(0.000000,68.000000) scale(0.100000,-0.100000)"
fill="#000000" stroke="none">
<path d="M525 248 c-38 -10 -82 -16 -97 -14 -35 7 -36 -6 -2 -24 14 -8 39 -32
56 -53 29 -36 30 -39 13 -57 -10 -11 -44 -30 -77 -41 -32 -12 -58 -24 -58 -27
0 -11 73 8 130 34 l60 27 46 -43 46 -43 76 6 c87 7 112 21 55 32 -53 9 -151
43 -178 61 l-23 15 39 58 c43 65 46 76 23 85 -20 8 -25 7 -109 -16z m40 -62
c-21 -44 -33 -45 -70 -6 -30 32 -31 31 35 48 47 12 55 1 35 -42z"/>
</g>
</svg>
