<?xml version="1.0" standalone="no"?>
<!DOCTYPE svg PUBLIC "-//W3C//DTD SVG 20010904//EN"
 "http://www.w3.org/TR/2001/REC-SVG-20010904/DTD/svg10.dtd">
<svg version="1.0" xmlns="http://www.w3.org/2000/svg"
 width="96.000000pt" height="68.000000pt" viewBox="0 0 96.000000 68.000000"
 preserveAspectRatio="xMidYMid meet">
<metadata>
Created by potrace 1.16, written by Peter Selinger 2001-2019
</metadata>
<g transform="translate(0.000000,68.000000) scale(0.100000,-0.100000)"
fill="#000000" stroke="none">
<path d="M448 139 l5 -92 -34 7 -33 6 29 -30 c16 -16 35 -30 42 -30 23 0 34
50 31 139 -3 78 -5 86 -24 89 -19 3 -20 -1 -16 -89z"/>
<path d="M331 169 c13 -25 46 -42 54 -29 9 15 -11 37 -40 42 -21 4 -23 3 -14
-13z"/>
<path d="M546 169 c-8 -13 -14 -24 -13 -26 8 -7 67 23 64 32 -7 19 -35 16 -51
-6z"/>
<path d="M345 99 c-27 -10 -61 -18 -74 -19 -20 0 -21 -2 -11 -15 18 -22 36
-19 96 16 77 44 74 49 -11 18z"/>
<path d="M566 89 c57 -45 83 -56 94 -38 13 20 -10 40 -62 56 -67 20 -74 16
-32 -18z"/>
</g>
</svg>
