<?xml version="1.0" standalone="no"?>
<!DOCTYPE svg PUBLIC "-//W3C//DTD SVG 20010904//EN"
 "http://www.w3.org/TR/2001/REC-SVG-20010904/DTD/svg10.dtd">
<svg version="1.0" xmlns="http://www.w3.org/2000/svg"
 width="90.000000pt" height="92.000000pt" viewBox="0 0 90.000000 92.000000"
 preserveAspectRatio="xMidYMid meet">
<metadata>
Created by potrace 1.16, written by Peter Selinger 2001-2019
</metadata>
<g transform="translate(0.000000,92.000000) scale(0.100000,-0.100000)"
fill="#000000" stroke="none">
<path d="M579 774 c-37 -19 -108 -45 -158 -58 -50 -12 -94 -26 -99 -30 -4 -5
32 -5 81 -1 l87 7 0 -60 c0 -34 -5 -64 -11 -68 -6 -3 -58 -11 -115 -17 -57 -6
-104 -15 -104 -19 0 -4 11 -15 25 -24 20 -13 33 -14 72 -6 27 6 65 14 86 17
l37 6 -6 -73 c-4 -40 -9 -75 -11 -78 -3 -3 -34 -5 -69 -4 -35 0 -64 -1 -64 -3
0 -2 6 -14 14 -26 8 -12 20 -56 26 -97 15 -88 26 -116 43 -101 7 5 70 14 141
20 128 10 153 15 124 26 -13 5 -13 13 4 62 10 32 25 67 33 80 21 32 19 39 -19
62 -33 21 -35 21 -105 4 -39 -9 -73 -14 -77 -11 -3 3 1 37 8 75 l14 68 147 3
c120 2 147 5 147 17 0 8 -13 21 -28 29 -23 12 -46 12 -140 3 -61 -6 -114 -9
-117 -6 -3 3 2 30 11 59 15 50 15 55 -1 66 -13 10 -4 15 62 30 98 22 106 29
70 60 -15 13 -31 23 -35 23 -4 -1 -37 -17 -73 -35z m56 -424 c6 -10 -12 -119
-24 -138 -3 -5 -47 -13 -97 -17 l-91 -7 -8 67 c-4 36 -5 68 -3 70 5 6 158 33
190 34 15 1 30 -3 33 -9z"/>
<path d="M160 787 c0 -16 83 -97 99 -97 15 0 32 36 25 55 -13 32 -124 70 -124
42z"/>
<path d="M85 560 c58 -59 90 -64 90 -15 0 24 -7 33 -35 47 -19 10 -51 18 -70
18 l-34 0 49 -50z"/>
<path d="M195 389 c-22 -35 -59 -85 -84 -112 -43 -47 -44 -48 -32 -86 12 -40
35 -68 45 -53 3 5 16 38 30 73 13 35 38 99 56 142 17 44 29 84 27 90 -2 6 -21
-18 -42 -54z"/>
</g>
</svg>
