<?xml version="1.0" standalone="no"?>
<!DOCTYPE svg PUBLIC "-//W3C//DTD SVG 20010904//EN"
 "http://www.w3.org/TR/2001/REC-SVG-20010904/DTD/svg10.dtd">
<svg version="1.0" xmlns="http://www.w3.org/2000/svg"
 width="96.000000pt" height="68.000000pt" viewBox="0 0 96.000000 68.000000"
 preserveAspectRatio="xMidYMid meet">
<metadata>
Created by potrace 1.16, written by Peter Selinger 2001-2019
</metadata>
<g transform="translate(0.000000,68.000000) scale(0.100000,-0.100000)"
fill="#000000" stroke="none">
<path d="M525 389 c-22 -4 -58 -8 -81 -8 -22 -1 -45 -6 -52 -13 -7 -7 -12 -39
-12 -73 0 -33 -7 -89 -16 -125 -15 -65 -12 -110 7 -110 13 0 39 62 39 95 0 31
3 32 108 39 l83 5 -3 -47 -3 -47 -43 -5 -43 -5 42 -33 c52 -39 63 -40 86 -5
15 22 18 50 18 153 0 69 4 134 8 146 15 37 -47 52 -138 33z m75 -49 c0 -26 -3
-30 -29 -30 -15 0 -56 -3 -90 -7 l-63 -6 4 29 c3 33 25 41 121 43 57 1 57 1
57 -29z m0 -85 c0 -30 -3 -35 -22 -34 -13 1 -53 -2 -90 -6 l-68 -8 0 31 c0 33
6 36 100 45 83 9 80 10 80 -28z"/>
</g>
</svg>
