<?xml version="1.0" standalone="no"?>
<!DOCTYPE svg PUBLIC "-//W3C//DTD SVG 20010904//EN"
 "http://www.w3.org/TR/2001/REC-SVG-20010904/DTD/svg10.dtd">
<svg version="1.0" xmlns="http://www.w3.org/2000/svg"
 width="96.000000pt" height="68.000000pt" viewBox="0 0 96.000000 68.000000"
 preserveAspectRatio="xMidYMid meet">
<metadata>
Created by potrace 1.16, written by Peter Selinger 2001-2019
</metadata>
<g transform="translate(0.000000,68.000000) scale(0.100000,-0.100000)"
fill="#000000" stroke="none">
<path d="M244 558 c4 -13 10 -50 13 -84 6 -69 10 -66 -94 -80 -74 -9 -56 -28
19 -20 58 6 59 5 52 -17 -10 -32 -67 -116 -108 -160 -61 -65 -10 -42 61 27
l66 65 -8 -82 c-11 -114 -10 -146 4 -160 10 -9 15 -8 27 7 10 15 14 51 14 138
0 65 3 118 8 118 4 0 15 -9 25 -20 21 -25 50 -27 45 -3 -2 10 -20 26 -41 37
-29 14 -37 23 -35 40 2 16 13 23 51 30 26 4 47 12 47 16 0 14 -36 21 -66 14
l-27 -7 7 70 c7 68 6 70 -19 81 -38 18 -48 15 -41 -10z"/>
</g>
</svg>
