<?xml version="1.0" standalone="no"?>
<!DOCTYPE svg PUBLIC "-//W3C//DTD SVG 20010904//EN"
 "http://www.w3.org/TR/2001/REC-SVG-20010904/DTD/svg10.dtd">
<svg version="1.0" xmlns="http://www.w3.org/2000/svg"
 width="96.000000pt" height="68.000000pt" viewBox="0 0 96.000000 68.000000"
 preserveAspectRatio="xMidYMid meet">
<metadata>
Created by potrace 1.16, written by Peter Selinger 2001-2019
</metadata>
<g transform="translate(0.000000,68.000000) scale(0.100000,-0.100000)"
fill="#000000" stroke="none">
<path d="M247 497 l6 -84 -77 -12 c-89 -15 -91 -31 -5 -31 58 0 60 -1 53 -22
-8 -29 -85 -137 -113 -160 -12 -10 -21 -22 -21 -27 0 -21 47 6 101 59 l58 57
-7 -66 c-12 -112 -9 -152 11 -165 28 -18 37 8 38 114 0 52 4 106 8 118 l6 24
19 -21 c23 -25 42 -27 50 -5 8 21 2 29 -39 48 -22 11 -35 24 -35 36 0 19 8 23
68 35 17 4 32 11 32 16 0 12 -45 22 -74 17 -25 -5 -25 -5 -19 64 6 75 0 88
-43 88 -21 0 -22 -3 -17 -83z"/>
<path d="M600 534 c-52 -7 -123 -14 -158 -15 -61 -1 -63 -2 -47 -19 9 -10 18
-24 19 -32 13 -66 31 -102 47 -93 4 3 65 7 136 9 l128 4 32 59 c39 71 39 77 8
91 -30 14 -40 14 -165 -4z m0 -68 c0 -45 -3 -54 -20 -59 -25 -6 -26 -4 -35 55
-7 45 -6 47 21 51 16 2 30 5 32 6 1 0 2 -23 2 -53z m110 22 c-1 -39 -16 -62
-46 -70 -36 -9 -47 5 -29 38 8 16 15 37 15 47 0 12 8 17 30 17 27 0 30 -3 30
-32z m-200 0 c0 -7 3 -30 6 -50 6 -36 5 -38 -20 -38 -17 0 -29 7 -32 18 -3 9
-10 27 -16 39 -6 11 -7 26 -4 32 10 15 66 14 66 -1z"/>
<path d="M550 367 c0 -2 9 -15 21 -28 l21 -24 -24 -6 c-13 -4 -48 -8 -78 -9
-30 -1 -66 -5 -80 -9 -46 -13 7 -23 82 -15 50 5 68 3 68 -5 0 -7 -38 -50 -83
-96 -57 -57 -76 -80 -58 -73 27 10 108 69 148 107 24 23 48 26 87 11 32 -12
33 -39 4 -91 -24 -44 -55 -57 -88 -39 -31 17 -32 9 -4 -28 42 -53 96 -35 133
45 7 15 21 45 31 65 17 35 17 38 1 52 -10 9 -35 16 -57 16 -44 0 -58 7 -62 31
-3 19 57 29 171 29 37 0 67 4 67 9 0 17 -53 22 -142 15 -77 -6 -88 -5 -88 9 0
18 -29 37 -54 37 -9 0 -16 -2 -16 -3z"/>
</g>
</svg>
