<?xml version="1.0" standalone="no"?>
<!DOCTYPE svg PUBLIC "-//W3C//DTD SVG 20010904//EN"
 "http://www.w3.org/TR/2001/REC-SVG-20010904/DTD/svg10.dtd">
<svg version="1.0" xmlns="http://www.w3.org/2000/svg"
 width="96.000000pt" height="68.000000pt" viewBox="0 0 96.000000 68.000000"
 preserveAspectRatio="xMidYMid meet">
<metadata>
Created by potrace 1.16, written by Peter Selinger 2001-2019
</metadata>
<g transform="translate(0.000000,68.000000) scale(0.100000,-0.100000)"
fill="#000000" stroke="none">
<path d="M600 312 c0 -100 14 -116 100 -117 32 0 62 4 66 8 14 14 -19 26 -63
24 -63 -2 -76 15 -63 86 12 63 8 77 -21 77 -17 0 -19 -7 -19 -78z"/>
<path d="M393 321 c1 -38 -6 -59 -28 -92 -27 -42 -28 -43 -5 -28 36 24 60 61
71 109 8 33 7 45 -3 51 -28 18 -36 9 -35 -40z"/>
</g>
</svg>
