<?xml version="1.0" standalone="no"?>
<!DOCTYPE svg PUBLIC "-//W3C//DTD SVG 20010904//EN"
 "http://www.w3.org/TR/2001/REC-SVG-20010904/DTD/svg10.dtd">
<svg version="1.0" xmlns="http://www.w3.org/2000/svg"
 width="90.000000pt" height="92.000000pt" viewBox="0 0 90.000000 92.000000"
 preserveAspectRatio="xMidYMid meet">
<metadata>
Created by potrace 1.16, written by Peter Selinger 2001-2019
</metadata>
<g transform="translate(0.000000,92.000000) scale(0.100000,-0.100000)"
fill="#000000" stroke="none">
<path d="M224 807 c-3 -17 -16 -50 -27 -73 l-20 -41 -51 33 c-71 48 -78 42
-21 -16 l49 -49 -19 -23 c-11 -13 -40 -44 -64 -70 -25 -27 -41 -48 -35 -48 13
0 82 47 116 78 l27 25 11 -28 c8 -20 7 -37 0 -61 -16 -48 -103 -167 -149 -203
-49 -39 -53 -54 -9 -39 32 11 127 99 162 148 16 24 17 22 11 -70 -6 -104 -18
-159 -37 -172 -7 -4 -28 -5 -47 -1 l-33 6 38 -51 c22 -28 42 -51 45 -51 15 -2
60 55 69 88 30 109 19 358 -20 432 -11 23 -15 41 -10 44 20 12 91 126 85 135
-4 6 -19 17 -35 25 -28 15 -29 14 -36 -18z"/>
<path d="M635 760 c-38 -10 -82 -19 -97 -19 -16 -1 -28 -5 -28 -11 0 -13 44
-23 68 -15 29 8 34 -6 40 -105 l4 -88 -86 -7 c-76 -7 -86 -10 -79 -24 12 -24
7 -201 -7 -259 -8 -37 -9 -56 0 -71 13 -26 27 -27 34 -3 8 25 17 165 16 249
l-1 71 30 6 c17 3 44 8 60 12 l29 5 0 -148 c1 -211 1 -207 10 -199 4 4 12 23
17 43 6 20 21 41 37 51 26 15 28 15 51 -6 21 -20 25 -21 30 -8 4 9 -3 24 -15
36 -20 18 -20 21 -5 38 13 14 14 21 5 30 -18 18 -25 15 -32 -13 -6 -23 -9 -24
-29 -14 -21 12 -21 11 -5 -8 17 -19 17 -21 -7 -43 l-25 -23 0 75 c0 41 3 102
6 136 l7 60 54 4 c30 1 59 0 64 -3 6 -3 8 -85 7 -190 l-3 -184 -44 2 -44 2 43
-44 c24 -25 48 -45 52 -45 4 0 15 12 25 27 15 23 18 53 19 217 0 105 4 200 8
212 6 16 2 25 -19 38 -24 16 -31 16 -95 2 -84 -20 -80 -20 -75 2 10 54 9 151
-3 165 -11 13 -4 16 63 22 80 8 98 17 66 34 -26 15 -62 12 -146 -9z"/>
<path d="M380 729 c-19 -10 -47 -18 -62 -19 -16 0 -28 -4 -28 -9 0 -17 33 -22
67 -10 19 6 37 9 40 5 3 -3 2 -25 -1 -49 -7 -45 -31 -67 -76 -67 -25 0 -35
-17 -19 -36 10 -13 9 -25 -6 -70 -10 -30 -15 -57 -11 -61 3 -4 21 -1 39 5 60
22 60 22 54 -85 -6 -114 -20 -153 -54 -153 -28 0 -28 -3 -6 -41 20 -33 34 -36
55 -11 31 35 40 66 49 166 5 55 11 113 14 127 8 34 -30 53 -75 37 -17 -5 -33
-8 -36 -6 -2 3 3 22 11 43 9 20 14 43 11 50 -3 9 10 15 46 20 33 5 47 10 40
17 -12 12 10 82 33 108 17 19 8 35 -25 48 -19 7 -34 5 -60 -9z"/>
<path d="M740 646 c57 -62 120 -81 120 -37 0 28 -37 50 -96 57 l-49 7 25 -27z"/>
<path d="M520 641 c0 -5 -16 -33 -35 -61 -34 -51 -34 -52 -9 -35 15 10 42 26
61 37 35 21 41 36 21 56 -14 14 -38 16 -38 3z"/>
<path d="M716 456 c-5 -19 -11 -23 -28 -19 -21 4 -22 3 -6 -10 15 -12 16 -16
3 -33 -22 -30 -17 -40 8 -16 21 20 25 20 44 7 28 -20 45 2 17 22 -15 11 -16
17 -7 32 9 14 9 21 0 30 -17 17 -24 14 -31 -13z"/>
<path d="M563 440 c-4 -16 -8 -18 -27 -8 -21 11 -21 11 -2 -11 19 -21 19 -21
-4 -46 -13 -14 -19 -25 -13 -25 5 0 18 9 28 20 17 18 20 19 35 5 15 -14 18
-14 23 -2 3 8 0 20 -6 26 -8 8 -8 14 1 23 8 8 9 15 1 25 -16 19 -30 16 -36 -7z"/>
<path d="M570 333 c0 -5 -4 -14 -9 -22 -7 -11 -13 -11 -32 -1 -24 13 -24 13
-5 -9 19 -21 19 -21 -4 -46 -26 -27 -16 -34 16 -11 17 13 21 13 35 -6 24 -31
45 -14 24 19 -15 22 -15 26 -1 42 12 13 13 20 4 29 -14 14 -28 16 -28 5z"/>
</g>
</svg>
