<?xml version="1.0" standalone="no"?>
<!DOCTYPE svg PUBLIC "-//W3C//DTD SVG 20010904//EN"
 "http://www.w3.org/TR/2001/REC-SVG-20010904/DTD/svg10.dtd">
<svg version="1.0" xmlns="http://www.w3.org/2000/svg"
 width="96.000000pt" height="68.000000pt" viewBox="0 0 96.000000 68.000000"
 preserveAspectRatio="xMidYMid meet">
<metadata>
Created by potrace 1.16, written by Peter Selinger 2001-2019
</metadata>
<g transform="translate(0.000000,68.000000) scale(0.100000,-0.100000)"
fill="#000000" stroke="none">
<path d="M774 361 c18 -7 20 -17 18 -130 -2 -75 1 -120 7 -117 5 4 3 -7 -6
-24 -12 -24 -19 -30 -36 -25 -21 6 -21 6 -2 -6 11 -7 23 -17 28 -23 5 -7 13
-4 25 10 14 17 18 43 21 133 2 84 -1 111 -9 106 -9 -6 -9 -2 -1 13 25 46 9 73
-42 71 -21 0 -21 -1 -3 -8z"/>
<path d="M511 315 c5 -16 9 -31 9 -33 0 -2 5 0 11 4 8 4 7 9 -2 15 -12 7 -12
9 0 9 8 0 11 3 7 7 -3 4 4 13 16 19 22 12 21 13 -13 11 -35 -2 -36 -3 -28 -32z"/>
<path d="M510 259 c0 -5 5 -7 10 -4 6 3 10 8 10 11 0 2 -4 4 -10 4 -5 0 -10
-5 -10 -11z"/>
<path d="M510 206 c0 -19 -4 -46 -10 -60 -11 -29 -3 -59 12 -50 6 4 5 10 -3
15 -11 7 -11 9 1 9 12 0 15 14 15 60 1 33 -3 60 -7 60 -4 0 -8 -15 -8 -34z"/>
</g>
</svg>
