<?xml version="1.0" standalone="no"?>
<!DOCTYPE svg PUBLIC "-//W3C//DTD SVG 20010904//EN"
 "http://www.w3.org/TR/2001/REC-SVG-20010904/DTD/svg10.dtd">
<svg version="1.0" xmlns="http://www.w3.org/2000/svg"
 width="96.000000pt" height="68.000000pt" viewBox="0 0 96.000000 68.000000"
 preserveAspectRatio="xMidYMid meet">
<metadata>
Created by potrace 1.16, written by Peter Selinger 2001-2019
</metadata>
<g transform="translate(0.000000,68.000000) scale(0.100000,-0.100000)"
fill="#000000" stroke="none">
<path d="M407 593 c3 -10 13 -24 22 -31 14 -11 14 -14 1 -22 -20 -13 -190 -13
-190 0 0 6 -6 10 -12 10 -18 0 -69 -96 -62 -115 10 -26 47 -13 64 21 l15 30
175 17 c167 17 250 21 250 14 0 -2 -7 -17 -15 -33 -13 -26 -19 -30 -49 -26
-23 3 -36 10 -39 23 -3 11 -14 19 -26 19 -16 0 -21 -6 -21 -29 0 -24 -5 -30
-32 -36 l-33 -8 28 -4 c20 -3 27 -9 23 -19 -3 -8 1 -14 9 -14 7 0 17 9 20 20
5 16 15 20 53 20 35 0 50 5 59 19 8 13 29 20 72 25 71 8 77 21 29 61 -30 26
-37 27 -98 21 -36 -3 -81 -9 -101 -12 -33 -6 -37 -4 -43 19 -4 16 -17 29 -37
36 -48 17 -70 14 -62 -6z"/>
<path d="M320 471 c0 -6 5 -13 10 -16 6 -3 10 -13 10 -21 0 -10 -12 -14 -40
-14 -22 0 -40 -4 -40 -10 0 -5 23 -10 50 -10 36 0 52 -4 56 -15 9 -24 24 -17
24 10 0 17 6 25 18 26 12 0 11 3 -6 10 -13 5 -26 18 -29 29 -5 20 -53 30 -53
11z"/>
<path d="M385 355 c-65 -7 -103 -14 -93 -19 9 -4 19 -23 23 -43 12 -68 24 -82
61 -76 26 4 35 2 40 -11 11 -30 -11 -37 -127 -43 -63 -3 -116 -7 -118 -9 -1
-1 0 -8 4 -15 6 -9 35 -10 111 -6 57 4 104 4 104 1 0 -19 -123 -94 -155 -94
-11 0 -27 -5 -35 -10 -11 -7 -6 -10 22 -10 61 0 146 38 194 87 l44 45 157 4
c85 2 158 6 161 8 3 3 -8 10 -23 16 -18 7 -68 8 -144 3 -146 -10 -136 -10
-136 2 0 6 -4 15 -8 21 -8 14 70 28 96 18 18 -6 49 36 68 95 9 27 9 35 -2 42
-18 11 -105 9 -244 -6z m195 -23 c0 -16 -14 -20 -112 -29 -99 -10 -115 -9
-125 5 -7 8 -11 17 -9 20 6 5 136 19 199 21 39 1 47 -2 47 -17z m-12 -59 c-2
-13 -17 -20 -53 -25 -77 -10 -155 -9 -155 2 0 6 0 13 0 18 0 7 81 17 168 20
37 2 43 -1 40 -15z"/>
<path d="M530 105 c0 -2 17 -14 38 -25 20 -12 55 -32 77 -45 47 -29 63 -31 72
-10 8 22 -21 41 -96 65 -62 20 -91 25 -91 15z"/>
</g>
</svg>
