<?xml version="1.0" standalone="no"?>
<!DOCTYPE svg PUBLIC "-//W3C//DTD SVG 20010904//EN"
 "http://www.w3.org/TR/2001/REC-SVG-20010904/DTD/svg10.dtd">
<svg version="1.0" xmlns="http://www.w3.org/2000/svg"
 width="96.000000pt" height="68.000000pt" viewBox="0 0 96.000000 68.000000"
 preserveAspectRatio="xMidYMid meet">
<metadata>
Created by potrace 1.16, written by Peter Selinger 2001-2019
</metadata>
<g transform="translate(0.000000,68.000000) scale(0.100000,-0.100000)"
fill="#000000" stroke="none">
<path d="M540 585 c-41 -8 -97 -14 -125 -15 -27 0 -45 -4 -39 -8 17 -11 31
-43 45 -105 12 -58 12 -58 43 -51 17 4 67 8 111 8 l80 2 29 77 c20 54 26 81
19 88 -17 17 -83 18 -163 4z m100 -32 c0 -27 -15 -44 -31 -38 -8 3 -46 -1 -84
-9 -64 -14 -71 -14 -82 1 -23 30 -15 42 35 48 26 3 54 8 62 9 8 2 34 4 58 5
34 1 42 -2 42 -16z m-19 -86 c-7 -19 -18 -23 -82 -29 -73 -8 -88 -3 -89 28 0
10 155 34 172 27 4 -2 3 -14 -1 -26z"/>
</g>
</svg>
