<?xml version="1.0" standalone="no"?>
<!DOCTYPE svg PUBLIC "-//W3C//DTD SVG 20010904//EN"
 "http://www.w3.org/TR/2001/REC-SVG-20010904/DTD/svg10.dtd">
<svg version="1.0" xmlns="http://www.w3.org/2000/svg"
 width="96.000000pt" height="68.000000pt" viewBox="0 0 96.000000 68.000000"
 preserveAspectRatio="xMidYMid meet">
<metadata>
Created by potrace 1.16, written by Peter Selinger 2001-2019
</metadata>
<g transform="translate(0.000000,68.000000) scale(0.100000,-0.100000)"
fill="#000000" stroke="none">
<path d="M546 623 c-3 -4 -6 -21 -6 -39 0 -47 -9 -64 -35 -64 -13 0 -30 -3
-39 -6 -28 -11 -17 -24 20 -24 31 0 35 -3 29 -17 -29 -70 -8 -78 37 -14 26 37
31 39 98 45 87 9 91 30 7 34 -61 3 -62 4 -48 31 5 9 6 22 3 28 -9 15 -58 34
-66 26z"/>
<path d="M250 583 c0 -5 7 -18 15 -29 28 -36 19 -44 -50 -44 -69 0 -77 -6 -45
-35 18 -16 27 -17 75 -8 54 9 54 9 66 -19 16 -40 39 -36 39 7 0 31 3 35 35 41
42 8 36 24 -9 24 -29 0 -34 4 -42 33 -8 28 -14 32 -47 35 -20 2 -37 -1 -37 -5z"/>
<path d="M255 373 c-11 -21 -40 -62 -64 -91 -40 -48 -42 -53 -20 -48 18 5 33
-3 63 -30 l39 -37 -34 -31 c-19 -17 -54 -46 -79 -65 -33 -24 -38 -31 -20 -26
43 13 80 35 122 73 45 40 158 185 158 201 0 21 -40 33 -72 22 -17 -6 -40 -11
-51 -11 -20 0 -19 1 4 26 24 25 24 26 5 40 -27 19 -29 19 -51 -23z m95 -69 c0
-20 -49 -104 -61 -104 -5 0 -12 6 -15 14 -3 8 -19 18 -35 21 -16 4 -31 10 -34
14 -8 15 44 54 82 61 58 12 63 11 63 -6z"/>
<path d="M565 370 c-22 -4 -57 -7 -77 -5 l-38 2 0 -119 c0 -66 5 -128 10 -139
6 -10 30 -29 53 -41 35 -18 58 -21 142 -21 55 1 112 6 128 12 32 13 44 37 30
60 -6 9 -14 31 -18 49 -8 38 -20 35 -29 -9 -11 -56 -37 -69 -138 -69 -125 0
-138 10 -138 102 0 39 5 88 11 109 13 40 28 49 93 49 l38 0 -7 -47 c-9 -60
-20 -75 -52 -67 -23 6 -24 5 -14 -14 36 -67 83 -39 112 63 18 66 18 71 2 83
-18 13 -47 14 -108 2z"/>
</g>
</svg>
