<?xml version="1.0" standalone="no"?>
<!DOCTYPE svg PUBLIC "-//W3C//DTD SVG 20010904//EN"
 "http://www.w3.org/TR/2001/REC-SVG-20010904/DTD/svg10.dtd">
<svg version="1.0" xmlns="http://www.w3.org/2000/svg"
 width="96.000000pt" height="68.000000pt" viewBox="0 0 96.000000 68.000000"
 preserveAspectRatio="xMidYMid meet">
<metadata>
Created by potrace 1.16, written by Peter Selinger 2001-2019
</metadata>
<g transform="translate(0.000000,68.000000) scale(0.100000,-0.100000)"
fill="#000000" stroke="none">
<path d="M668 525 c-9 -9 -440 -42 -480 -37 -41 5 -46 -2 -22 -33 20 -27 31
-74 44 -185 18 -151 34 -196 57 -155 6 11 46 16 173 24 179 10 171 12 206 -45
10 -15 16 -17 30 -8 33 18 53 75 73 212 12 73 25 141 31 152 16 29 12 39 -22
60 -31 19 -78 26 -90 15z m25 -123 c-1 -76 -19 -217 -30 -234 -2 -4 -15 -3
-29 2 -17 7 -82 6 -190 -1 -91 -7 -167 -9 -170 -6 -4 4 -38 202 -47 272 -2 19
9 21 188 36 105 9 210 16 235 15 l45 -1 -2 -83z"/>
</g>
</svg>
