<?xml version="1.0" standalone="no"?>
<!DOCTYPE svg PUBLIC "-//W3C//DTD SVG 20010904//EN"
 "http://www.w3.org/TR/2001/REC-SVG-20010904/DTD/svg10.dtd">
<svg version="1.0" xmlns="http://www.w3.org/2000/svg"
 width="96.000000pt" height="68.000000pt" viewBox="0 0 96.000000 68.000000"
 preserveAspectRatio="xMidYMid meet">
<metadata>
Created by potrace 1.16, written by Peter Selinger 2001-2019
</metadata>
<g transform="translate(0.000000,68.000000) scale(0.100000,-0.100000)"
fill="#000000" stroke="none">
<path d="M685 409 c-22 -5 -99 -11 -170 -15 l-131 -7 4 -92 c3 -62 0 -109 -10
-142 -15 -50 -9 -93 12 -93 17 0 20 18 28 158 5 73 12 136 18 141 11 11 269
32 290 24 11 -4 14 -32 14 -137 0 -72 -4 -137 -9 -145 -6 -10 -19 -12 -42 -7
l-33 6 34 -35 c67 -69 83 -44 91 144 3 80 9 154 13 163 6 12 0 21 -23 32 -16
9 -34 15 -38 15 -4 -1 -26 -5 -48 -10z"/>
</g>
</svg>
