<?xml version="1.0" standalone="no"?>
<!DOCTYPE svg PUBLIC "-//W3C//DTD SVG 20010904//EN"
 "http://www.w3.org/TR/2001/REC-SVG-20010904/DTD/svg10.dtd">
<svg version="1.0" xmlns="http://www.w3.org/2000/svg"
 width="90.000000pt" height="92.000000pt" viewBox="0 0 90.000000 92.000000"
 preserveAspectRatio="xMidYMid meet">
<metadata>
Created by potrace 1.16, written by Peter Selinger 2001-2019
</metadata>
<g transform="translate(0.000000,92.000000) scale(0.100000,-0.100000)"
fill="#000000" stroke="none">
<path d="M470 803 c0 -5 13 -30 29 -55 l30 -46 -77 -4 c-59 -2 -80 0 -89 12
-10 13 -13 11 -21 -10 -5 -14 -17 -42 -26 -64 -19 -45 -20 -72 -5 -82 16 -9
38 17 54 62 12 37 16 39 62 46 26 3 88 13 137 22 88 16 166 21 166 11 0 -3 -9
-23 -19 -43 l-19 -38 61 20 c34 11 64 21 65 22 10 7 -13 46 -38 64 -29 20 -32
20 -111 5 -104 -19 -99 -20 -99 13 0 16 -8 36 -18 45 -21 19 -82 34 -82 20z"/>
<path d="M165 693 c-22 -8 -57 -14 -78 -15 -35 0 -38 -3 -32 -22 14 -46 17
-182 6 -299 -8 -85 -8 -132 -2 -150 11 -29 31 -37 31 -12 0 10 10 15 29 15 16
0 43 3 60 6 23 5 31 3 31 -8 0 -8 7 -23 15 -34 15 -19 15 -19 33 2 17 20 18
42 16 264 -3 218 -5 244 -21 256 -22 16 -36 16 -88 -3z m58 -50 c3 -10 5 -36
6 -58 l2 -41 -65 -10 -65 -9 2 60 c2 66 8 72 79 74 27 1 38 -4 41 -16z m7
-188 c0 -53 -1 -55 -27 -55 -16 0 -45 -3 -65 -6 l-38 -7 0 56 0 56 43 4 c96 8
87 13 87 -48z m-1 -122 c-2 -71 -8 -78 -71 -81 l-58 -3 0 55 0 55 43 4 c94 8
87 11 86 -30z"/>
<path d="M485 650 c-3 -5 -1 -18 5 -29 22 -42 13 -59 -42 -79 -29 -11 -60 -22
-68 -26 -18 -7 84 2 104 10 10 4 16 -3 18 -23 3 -27 1 -28 -52 -38 -30 -5 -54
-14 -53 -20 2 -5 28 -11 58 -13 53 -3 55 -4 55 -31 0 -33 -8 -35 -134 -47 -42
-4 -79 -10 -81 -14 -2 -4 10 -15 28 -24 30 -16 36 -16 97 -1 39 9 132 18 233
22 92 3 167 9 167 13 0 4 -9 15 -21 26 -23 20 -46 21 -176 6 l-73 -8 0 32 c0
35 4 38 77 49 24 4 45 10 48 15 8 14 -52 29 -90 23 -34 -5 -35 -4 -35 25 0 28
3 31 43 37 86 13 95 23 51 51 -23 16 -28 16 -58 1 -32 -15 -33 -15 -29 8 4 18
-1 25 -28 34 -39 13 -36 13 -44 1z"/>
<path d="M580 284 c-30 -8 -89 -17 -130 -19 -41 -2 -76 -4 -78 -4 -1 -1 4 -11
12 -23 8 -13 20 -52 26 -89 13 -76 25 -101 39 -81 5 9 47 17 122 23 108 10
138 17 113 26 -15 5 9 89 34 116 16 18 16 20 -13 43 -34 27 -47 28 -125 8z
m53 -83 c-2 -30 -5 -56 -7 -58 -6 -7 -166 -27 -170 -22 -2 2 -6 27 -10 56 l-6
51 77 15 c117 23 118 22 116 -42z"/>
</g>
</svg>
