<?xml version="1.0" standalone="no"?>
<!DOCTYPE svg PUBLIC "-//W3C//DTD SVG 20010904//EN"
 "http://www.w3.org/TR/2001/REC-SVG-20010904/DTD/svg10.dtd">
<svg version="1.0" xmlns="http://www.w3.org/2000/svg"
 width="96.000000pt" height="68.000000pt" viewBox="0 0 96.000000 68.000000"
 preserveAspectRatio="xMidYMid meet">
<metadata>
Created by potrace 1.16, written by Peter Selinger 2001-2019
</metadata>
<g transform="translate(0.000000,68.000000) scale(0.100000,-0.100000)"
fill="#000000" stroke="none">
<path d="M495 598 c-29 -96 -40 -122 -63 -159 -49 -77 -48 -76 -26 -59 10 8
27 23 36 34 11 14 30 21 55 22 21 0 76 5 122 9 l84 8 -6 -67 c-8 -82 -37 -132
-68 -116 -27 15 -24 -3 6 -37 l25 -28 30 34 c21 25 34 58 49 123 26 110 26
103 -1 115 -16 7 -45 6 -98 -3 -80 -14 -150 -18 -150 -8 0 3 8 18 18 32 10 15
24 40 32 56 13 25 13 29 -5 42 -23 17 -34 18 -40 2z"/>
<path d="M268 511 l5 -89 -62 -8 c-34 -5 -63 -13 -64 -19 -1 -6 26 -11 61 -13
l62 -3 0 -38 c0 -37 -2 -39 -65 -70 -36 -17 -77 -34 -91 -37 -30 -8 -27 -24 8
-44 25 -13 29 -12 82 23 31 20 59 37 62 37 8 0 -2 -109 -11 -118 -3 -3 -20 -1
-37 6 -18 6 -34 10 -36 7 -2 -2 16 -25 41 -50 34 -36 49 -46 65 -41 26 9 32
33 32 141 l0 90 37 32 c29 24 34 32 20 33 -10 0 -27 -5 -38 -10 -17 -10 -19
-7 -19 19 0 26 4 31 35 37 19 3 38 10 40 15 8 13 -34 31 -56 24 -18 -6 -19 -3
-13 37 4 24 10 47 15 53 19 20 8 46 -26 61 -19 7 -38 14 -43 14 -6 0 -7 -39
-4 -89z"/>
<path d="M520 359 c-14 -6 -41 -9 -61 -7 l-35 3 -2 -94 c-1 -51 -5 -97 -7
-101 -11 -17 18 -58 53 -74 54 -26 222 -33 292 -13 30 9 63 22 73 30 18 12 18
16 4 63 l-15 49 -17 -41 c-10 -25 -28 -47 -44 -54 -14 -7 -75 -15 -136 -17
-92 -4 -116 -1 -145 14 -32 17 -35 22 -36 66 -1 53 -2 52 69 62 31 4 47 11 47
20 0 8 8 30 17 50 9 19 15 36 12 39 -12 11 -47 13 -69 5z m20 -44 c0 -27 -34
-55 -67 -55 -39 0 -22 56 23 75 35 15 44 11 44 -20z"/>
</g>
</svg>
