<?xml version="1.0" standalone="no"?>
<!DOCTYPE svg PUBLIC "-//W3C//DTD SVG 20010904//EN"
 "http://www.w3.org/TR/2001/REC-SVG-20010904/DTD/svg10.dtd">
<svg version="1.0" xmlns="http://www.w3.org/2000/svg"
 width="96.000000pt" height="68.000000pt" viewBox="0 0 96.000000 68.000000"
 preserveAspectRatio="xMidYMid meet">
<metadata>
Created by potrace 1.16, written by Peter Selinger 2001-2019
</metadata>
<g transform="translate(0.000000,68.000000) scale(0.100000,-0.100000)"
fill="#000000" stroke="none">
<path d="M531 523 c0 -32 -4 -77 -7 -100 l-6 -42 -67 -6 c-36 -3 -75 -7 -86
-8 -11 -1 -19 -6 -17 -12 1 -6 36 -9 83 -8 l80 1 -6 -41 c-4 -23 -9 -45 -12
-49 -2 -5 -31 -8 -64 -8 l-60 0 20 -26 c11 -14 25 -50 31 -80 11 -52 22 -65
35 -44 3 5 39 10 79 10 107 0 166 10 159 26 -3 7 7 35 21 61 24 41 25 48 12
62 -17 17 -57 19 -135 6 -51 -8 -54 -7 -46 11 4 10 10 33 14 49 l7 30 109 7
c133 9 136 10 102 32 -25 17 -34 17 -106 6 -44 -7 -84 -9 -89 -6 -11 7 6 85
27 124 15 28 -3 49 -47 58 l-29 6 -2 -59z m118 -282 c14 -9 10 -62 -7 -88 -4
-6 -46 -15 -94 -19 -95 -7 -98 -6 -112 62 l-7 31 98 10 c54 6 100 11 103 11 3
1 11 -2 19 -7z"/>
<path d="M226 541 c-6 -8 47 -67 73 -81 12 -6 26 -8 31 -5 14 9 12 51 -3 63
-16 14 -96 32 -101 23z"/>
<path d="M140 402 c0 -5 7 -15 15 -22 9 -7 14 -19 11 -26 -3 -8 0 -11 8 -8 8
3 17 1 21 -5 3 -6 17 -11 31 -11 18 0 24 5 24 23 0 12 -8 27 -19 34 -26 17
-91 27 -91 15z"/>
<path d="M277 277 c-21 -32 -101 -113 -117 -119 -27 -9 14 -88 45 -88 5 0 105
211 105 221 0 17 -18 9 -33 -14z"/>
</g>
</svg>
