<?xml version="1.0" standalone="no"?>
<!DOCTYPE svg PUBLIC "-//W3C//DTD SVG 20010904//EN"
 "http://www.w3.org/TR/2001/REC-SVG-20010904/DTD/svg10.dtd">
<svg version="1.0" xmlns="http://www.w3.org/2000/svg"
 width="90.000000pt" height="92.000000pt" viewBox="0 0 90.000000 92.000000"
 preserveAspectRatio="xMidYMid meet">
<metadata>
Created by potrace 1.16, written by Peter Selinger 2001-2019
</metadata>
<g transform="translate(0.000000,92.000000) scale(0.100000,-0.100000)"
fill="#000000" stroke="none">
<path d="M450 839 c-58 -10 -138 -19 -177 -20 -40 0 -73 -3 -73 -6 0 -3 9 -17
20 -33 12 -17 26 -67 36 -129 18 -105 36 -148 52 -123 6 8 24 12 48 10 39 -3
39 -3 42 -49 l3 -47 -43 -6 c-35 -5 -262 -25 -290 -26 -22 0 -4 -23 29 -36 32
-14 44 -14 117 0 45 8 105 18 134 21 l52 7 0 -135 c0 -144 8 -227 21 -227 17
0 30 80 36 217 l6 141 30 6 c16 3 96 6 178 6 128 0 149 2 149 16 0 8 -19 23
-42 34 -36 15 -52 17 -96 9 -28 -6 -90 -13 -137 -17 -79 -7 -85 -6 -85 11 0
10 5 27 10 37 8 15 5 22 -12 34 -22 15 -21 16 24 16 26 0 50 -5 53 -10 4 -7
12 -7 25 0 12 6 33 54 60 132 23 68 44 128 46 135 6 14 -66 54 -93 52 -10 -1
-65 -10 -123 -20z m120 -56 c0 -58 -9 -72 -43 -66 -18 2 -72 -2 -122 -11 -49
-9 -95 -16 -102 -16 -13 0 -29 77 -18 88 8 9 165 29 233 31 50 1 52 0 52 -26z
m-21 -135 c-13 -55 -13 -55 -56 -56 -21 0 -69 -5 -108 -10 -38 -5 -70 -9 -71
-8 -1 0 -4 20 -8 44 l-6 42 42 1 c35 1 209 23 214 28 1 0 -2 -18 -7 -41z"/>
</g>
</svg>
