<?xml version="1.0" standalone="no"?>
<!DOCTYPE svg PUBLIC "-//W3C//DTD SVG 20010904//EN"
 "http://www.w3.org/TR/2001/REC-SVG-20010904/DTD/svg10.dtd">
<svg version="1.0" xmlns="http://www.w3.org/2000/svg"
 width="96.000000pt" height="68.000000pt" viewBox="0 0 96.000000 68.000000"
 preserveAspectRatio="xMidYMid meet">
<metadata>
Created by potrace 1.16, written by Peter Selinger 2001-2019
</metadata>
<g transform="translate(0.000000,68.000000) scale(0.100000,-0.100000)"
fill="#000000" stroke="none">
<path d="M626 208 c-71 -8 -84 -13 -73 -25 4 -3 18 -1 32 5 30 14 84 15 103 3
9 -5 11 -17 5 -37 -4 -16 -7 -33 -8 -38 0 -11 -41 -23 -102 -30 -67 -7 -61
-13 14 -15 56 -1 160 15 114 18 -10 1 -8 8 8 25 13 14 20 29 17 35 -4 5 -1 13
5 17 8 5 9 3 4 -7 -8 -12 -6 -12 8 0 19 15 23 26 5 15 -8 -5 -9 -2 -5 9 3 10
5 17 4 17 -1 0 -16 4 -32 8 -17 4 -61 4 -99 0z m114 -23 c0 -12 -19 -12 -23 0
-4 9 -1 12 9 8 7 -3 14 -7 14 -8z"/>
<path d="M446 192 c6 -4 16 -17 23 -29 6 -13 17 -23 24 -23 8 0 8 3 -1 9 -11
7 -11 9 2 14 23 9 20 30 -4 24 -11 -3 -20 -1 -20 4 0 5 -8 9 -17 9 -11 0 -14
-3 -7 -8z"/>
<path d="M490 99 c10 -35 17 -45 25 -37 10 10 -8 68 -21 68 -9 0 -10 -8 -4
-31z"/>
</g>
</svg>
