<?xml version="1.0" standalone="no"?>
<!DOCTYPE svg PUBLIC "-//W3C//DTD SVG 20010904//EN"
 "http://www.w3.org/TR/2001/REC-SVG-20010904/DTD/svg10.dtd">
<svg version="1.0" xmlns="http://www.w3.org/2000/svg"
 width="96.000000pt" height="68.000000pt" viewBox="0 0 96.000000 68.000000"
 preserveAspectRatio="xMidYMid meet">
<metadata>
Created by potrace 1.16, written by Peter Selinger 2001-2019
</metadata>
<g transform="translate(0.000000,68.000000) scale(0.100000,-0.100000)"
fill="#000000" stroke="none">
<path d="M290 473 c-102 -20 -128 -31 -72 -32 38 -1 42 -3 42 -26 0 -37 -35
-102 -94 -170 -28 -33 -55 -63 -61 -67 -17 -13 5 -9 34 6 61 32 188 207 178
245 -4 16 3 20 44 25 27 4 49 11 49 16 0 6 -4 10 -9 10 -5 0 -15 2 -23 4 -7 1
-47 -3 -88 -11z"/>
</g>
</svg>
