<?xml version="1.0" standalone="no"?>
<!DOCTYPE svg PUBLIC "-//W3C//DTD SVG 20010904//EN"
 "http://www.w3.org/TR/2001/REC-SVG-20010904/DTD/svg10.dtd">
<svg version="1.0" xmlns="http://www.w3.org/2000/svg"
 width="96.000000pt" height="68.000000pt" viewBox="0 0 96.000000 68.000000"
 preserveAspectRatio="xMidYMid meet">
<metadata>
Created by potrace 1.16, written by Peter Selinger 2001-2019
</metadata>
<g transform="translate(0.000000,68.000000) scale(0.100000,-0.100000)"
fill="#000000" stroke="none">
<path d="M234 558 c4 -13 10 -51 13 -85 l6 -62 -62 -7 c-42 -4 -61 -11 -61
-20 0 -10 15 -14 56 -14 l55 0 -32 -57 c-18 -32 -55 -84 -82 -116 -27 -31 -43
-57 -36 -57 16 0 78 47 104 79 11 14 26 32 33 40 11 13 12 -4 7 -100 -6 -101
-5 -117 10 -129 33 -27 45 11 45 143 0 116 1 119 18 104 25 -23 52 -22 52 2 0
12 -13 25 -36 36 -29 14 -35 21 -32 43 2 22 9 28 38 32 48 7 48 34 -1 38 l-35
3 4 60 c5 67 -6 89 -45 89 -22 0 -24 -3 -19 -22z"/>
<path d="M630 529 c-30 -5 -95 -13 -145 -20 -102 -13 -110 -16 -95 -34 33 -40
-17 -308 -72 -387 -30 -43 -21 -45 22 -3 33 32 46 56 65 120 14 45 25 91 25
102 0 12 5 25 10 28 6 3 10 35 10 70 0 51 4 66 18 73 20 11 190 32 256 32 46
0 61 12 30 24 -19 7 -52 6 -124 -5z"/>
<path d="M714 467 c-5 -7 -21 -20 -35 -29 l-24 -17 23 0 c39 -1 23 -34 -23
-46 l-30 -8 30 -6 30 -6 -44 -48 c-46 -50 -42 -64 7 -22 41 34 48 32 44 -14
-2 -22 1 -42 8 -46 17 -10 22 -1 27 50 3 25 8 45 10 45 3 0 23 -14 45 -31 27
-22 42 -29 50 -21 15 15 3 29 -52 54 -56 25 -60 41 -12 46 40 4 42 22 3 22
-17 0 -31 6 -35 16 -10 25 -7 31 17 38 22 6 22 7 3 21 -23 18 -28 18 -42 2z"/>
<path d="M515 429 c-25 -24 -27 -29 -12 -29 30 0 16 -35 -16 -38 -31 -4 -37
-22 -7 -22 27 0 25 -9 -11 -53 -37 -45 -27 -49 18 -5 l32 31 -2 -44 c-2 -33 2
-44 13 -44 10 0 17 14 20 45 3 28 8 40 13 33 10 -15 37 -17 37 -3 0 5 -11 12
-26 16 -31 8 -29 38 4 42 25 4 30 22 6 22 -15 0 -44 23 -44 34 0 3 8 6 19 6
21 0 45 23 34 33 -14 15 -50 4 -78 -24z"/>
<path d="M598 235 c-2 -3 -1 -33 4 -67 5 -35 6 -68 3 -75 -2 -7 -20 -13 -39
-13 l-34 0 1 47 c0 42 -2 48 -21 51 -21 3 -22 1 -16 -40 4 -24 7 -47 8 -53 0
-5 -26 -12 -59 -15 -58 -5 -59 -6 -33 -19 22 -11 41 -11 103 -2 42 6 134 11
205 11 72 0 130 3 130 8 0 4 -10 13 -21 21 -16 9 -42 11 -100 6 l-79 -7 0 30
c0 25 5 30 31 36 17 3 44 6 60 6 22 0 27 4 22 16 -4 12 -13 14 -37 9 -86 -19
-79 -20 -74 9 5 22 1 29 -19 37 -28 11 -28 11 -35 4z"/>
</g>
</svg>
