<?xml version="1.0" standalone="no"?>
<!DOCTYPE svg PUBLIC "-//W3C//DTD SVG 20010904//EN"
 "http://www.w3.org/TR/2001/REC-SVG-20010904/DTD/svg10.dtd">
<svg version="1.0" xmlns="http://www.w3.org/2000/svg"
 width="96.000000pt" height="68.000000pt" viewBox="0 0 96.000000 68.000000"
 preserveAspectRatio="xMidYMid meet">
<metadata>
Created by potrace 1.16, written by Peter Selinger 2001-2019
</metadata>
<g transform="translate(0.000000,68.000000) scale(0.100000,-0.100000)"
fill="#000000" stroke="none">
<path d="M577 556 c5 -42 4 -43 -27 -50 -18 -3 -49 -6 -69 -6 -20 0 -31 -4
-24 -8 6 -4 15 -23 20 -42 9 -34 10 -35 56 -32 38 3 47 0 47 -12 0 -9 8 -16
20 -16 13 0 20 7 20 20 0 18 7 20 55 20 39 0 55 4 55 13 0 8 9 22 20 32 31 28
9 45 -61 45 l-59 0 0 34 c0 22 -6 36 -16 40 -35 14 -42 7 -37 -38z m123 -75
c0 -11 -9 -21 -22 -25 -41 -10 -58 -7 -58 12 0 26 9 32 47 32 26 0 33 -4 33
-19z m-120 -16 c0 -22 -4 -25 -34 -25 -25 0 -35 5 -39 20 -5 21 5 28 46 29 22
1 27 -3 27 -24z"/>
</g>
</svg>
