<?xml version="1.0" standalone="no"?>
<!DOCTYPE svg PUBLIC "-//W3C//DTD SVG 20010904//EN"
 "http://www.w3.org/TR/2001/REC-SVG-20010904/DTD/svg10.dtd">
<svg version="1.0" xmlns="http://www.w3.org/2000/svg"
 width="96.000000pt" height="68.000000pt" viewBox="0 0 96.000000 68.000000"
 preserveAspectRatio="xMidYMid meet">
<metadata>
Created by potrace 1.16, written by Peter Selinger 2001-2019
</metadata>
<g transform="translate(0.000000,68.000000) scale(0.100000,-0.100000)"
fill="#000000" stroke="none">
<path d="M318 271 c-59 -9 -110 -19 -114 -23 -4 -5 20 -8 53 -8 66 0 73 -6 73
-60 0 -32 -11 -37 -128 -49 l-67 -7 35 -22 c19 -12 42 -20 50 -18 8 3 80 23
159 46 80 22 149 44 155 50 14 14 -17 13 -89 -5 -33 -8 -63 -14 -67 -15 -4 0
-6 20 -5 44 l2 44 45 7 c63 9 81 15 75 26 -8 12 -46 10 -177 -10z"/>
</g>
</svg>
