<?xml version="1.0" standalone="no"?>
<!DOCTYPE svg PUBLIC "-//W3C//DTD SVG 20010904//EN"
 "http://www.w3.org/TR/2001/REC-SVG-20010904/DTD/svg10.dtd">
<svg version="1.0" xmlns="http://www.w3.org/2000/svg"
 width="96.000000pt" height="68.000000pt" viewBox="0 0 96.000000 68.000000"
 preserveAspectRatio="xMidYMid meet">
<metadata>
Created by potrace 1.16, written by Peter Selinger 2001-2019
</metadata>
<g transform="translate(0.000000,68.000000) scale(0.100000,-0.100000)"
fill="#000000" stroke="none">
<path d="M308 345 c-25 -7 -71 -16 -102 -19 -31 -4 -54 -11 -51 -16 3 -5 34
-25 70 -45 36 -20 65 -40 65 -44 0 -22 -71 -63 -160 -93 l-55 -19 54 6 c62 7
110 25 163 61 l36 25 79 -49 c99 -62 169 -98 209 -106 30 -7 191 9 224 21 8 3
-55 19 -140 35 -126 24 -172 37 -252 75 -54 25 -98 49 -98 52 0 3 18 29 39 57
55 73 31 90 -81 59z m42 -33 c0 -23 -28 -62 -45 -62 -24 0 -100 49 -85 54 84
29 130 32 130 8z"/>
</g>
</svg>
