<?xml version="1.0" standalone="no"?>
<!DOCTYPE svg PUBLIC "-//W3C//DTD SVG 20010904//EN"
 "http://www.w3.org/TR/2001/REC-SVG-20010904/DTD/svg10.dtd">
<svg version="1.0" xmlns="http://www.w3.org/2000/svg"
 width="96.000000pt" height="68.000000pt" viewBox="0 0 96.000000 68.000000"
 preserveAspectRatio="xMidYMid meet">
<metadata>
Created by potrace 1.16, written by Peter Selinger 2001-2019
</metadata>
<g transform="translate(0.000000,68.000000) scale(0.100000,-0.100000)"
fill="#000000" stroke="none">
<path d="M427 556 c3 -37 2 -66 -3 -66 -5 -1 -46 -3 -91 -5 -48 -3 -85 -1 -88
5 -12 19 -22 10 -45 -39 -21 -46 -21 -71 1 -71 11 0 50 61 44 70 -5 8 433 45
441 37 3 -3 -2 -18 -12 -33 l-18 -27 48 7 c63 10 76 15 76 32 0 21 -56 52 -88
48 -15 -2 -69 -6 -120 -10 l-92 -7 2 59 3 59 -31 3 -32 3 5 -65z"/>
<path d="M562 565 c-23 -24 -39 -46 -35 -48 10 -6 143 53 143 63 0 6 -60 33
-64 29 -1 -1 -20 -20 -44 -44z"/>
<path d="M290 569 c0 -17 59 -71 73 -67 20 7 20 46 0 56 -33 17 -73 23 -73 11z"/>
<path d="M401 437 c-46 -5 -80 -12 -75 -16 5 -3 16 -19 24 -36 17 -33 17 -33
153 -19 40 4 57 10 57 20 0 8 7 17 15 20 8 4 15 12 15 19 0 27 -41 30 -189 12z
m129 -26 c0 -16 -10 -21 -53 -26 -70 -9 -101 -4 -105 17 -3 14 7 18 55 21 32
2 68 4 81 5 16 1 22 -3 22 -17z"/>
<path d="M450 324 c-52 -7 -106 -11 -120 -8 l-25 4 0 -102 0 -103 38 3 c36 3
38 2 27 -18 -6 -12 -39 -40 -73 -62 -34 -22 -51 -37 -37 -33 38 10 180 78 180
86 0 3 -10 10 -22 16 -18 8 -5 11 62 16 67 5 87 4 100 -8 15 -14 19 -13 35 5
14 16 17 30 12 73 -4 29 -3 67 2 85 16 55 -31 67 -179 46z m123 -34 c4 -14 0
-20 -11 -20 -10 0 -60 -5 -112 -10 -98 -9 -115 -5 -104 23 6 16 15 17 180 25
34 2 43 -2 47 -18z m7 -58 c0 -16 -14 -20 -112 -30 -114 -11 -136 -7 -125 22
4 11 25 16 74 19 166 8 163 8 163 -11z m0 -61 c0 -15 -11 -19 -77 -25 -135
-11 -163 -9 -163 14 0 20 19 23 178 28 54 2 62 0 62 -17z"/>
<path d="M552 68 c21 -18 51 -41 68 -51 27 -16 31 -17 36 -2 11 28 -39 64
-111 80 l-30 7 37 -34z"/>
</g>
</svg>
