<?xml version="1.0" standalone="no"?>
<!DOCTYPE svg PUBLIC "-//W3C//DTD SVG 20010904//EN"
 "http://www.w3.org/TR/2001/REC-SVG-20010904/DTD/svg10.dtd">
<svg version="1.0" xmlns="http://www.w3.org/2000/svg"
 width="96.000000pt" height="68.000000pt" viewBox="0 0 96.000000 68.000000"
 preserveAspectRatio="xMidYMid meet">
<metadata>
Created by potrace 1.16, written by Peter Selinger 2001-2019
</metadata>
<g transform="translate(0.000000,68.000000) scale(0.100000,-0.100000)"
fill="#000000" stroke="none">
<path d="M532 588 c-7 -18 -23 -46 -37 -62 l-24 -30 -66 33 c-77 37 -106 38
-45 1 23 -14 51 -33 63 -42 l22 -17 -25 -23 c-14 -13 -44 -35 -67 -51 -69 -44
-55 -45 30 -2 l38 19 24 -29 c29 -38 24 -41 -92 -49 l-93 -7 0 70 c0 72 -6 81
-52 81 -15 0 -18 -4 -13 -17 19 -46 24 -90 14 -127 -8 -31 -8 -42 4 -53 13
-13 22 -13 70 1 41 12 304 45 368 46 4 0 9 -9 12 -20 5 -21 15 -24 35 -12 16
11 56 192 44 204 -5 5 -21 10 -36 11 -27 2 -27 2 -29 -70 -1 -39 -4 -73 -7
-76 -3 -2 -43 -7 -89 -11 -70 -6 -83 -4 -78 8 7 17 -22 46 -46 46 -27 0 -29
19 -4 31 22 10 31 6 82 -31 56 -41 90 -47 83 -14 -2 10 -25 33 -53 51 -27 19
-50 39 -50 44 0 5 20 29 44 54 42 44 43 46 25 60 -29 22 -39 18 -52 -17z"/>
<path d="M400 604 c0 -12 54 -53 62 -48 17 11 7 35 -18 44 -29 12 -44 13 -44
4z"/>
<path d="M580 510 c0 -6 12 -23 26 -37 20 -20 28 -23 37 -13 9 9 5 17 -18 36
-33 26 -45 30 -45 14z"/>
<path d="M300 486 c0 -18 33 -46 55 -46 16 0 16 2 3 22 -18 26 -58 43 -58 24z"/>
<path d="M303 198 c7 -103 10 -111 53 -131 59 -28 335 -20 366 11 10 10 -36
92 -52 92 -4 0 -13 -13 -19 -29 -7 -15 -24 -33 -37 -40 -31 -14 -187 -14 -237
0 -35 9 -38 13 -35 42 3 31 4 32 73 43 39 5 101 19 138 29 l68 18 -20 21 -21
20 -67 -32 c-67 -31 -163 -52 -163 -36 0 5 5 16 10 24 11 18 -15 50 -42 50
-18 0 -19 -6 -15 -82z"/>
</g>
</svg>
