<?xml version="1.0" standalone="no"?>
<!DOCTYPE svg PUBLIC "-//W3C//DTD SVG 20010904//EN"
 "http://www.w3.org/TR/2001/REC-SVG-20010904/DTD/svg10.dtd">
<svg version="1.0" xmlns="http://www.w3.org/2000/svg"
 width="96.000000pt" height="68.000000pt" viewBox="0 0 96.000000 68.000000"
 preserveAspectRatio="xMidYMid meet">
<metadata>
Created by potrace 1.16, written by Peter Selinger 2001-2019
</metadata>
<g transform="translate(0.000000,68.000000) scale(0.100000,-0.100000)"
fill="#000000" stroke="none">
<path d="M598 546 l4 -64 -65 -7 c-36 -4 -71 -4 -77 0 -8 5 -10 22 -7 47 5 35
2 40 -20 49 -13 5 -26 9 -29 9 -2 0 -3 -26 -2 -57 l3 -58 -32 -3 c-43 -4 -42
-22 1 -22 l33 0 5 -102 c3 -60 2 -108 -4 -115 -6 -7 -41 -13 -81 -15 -69 -3
-71 -4 -42 -16 24 -11 45 -11 105 -2 41 6 155 14 253 17 97 3 177 9 177 13 0
19 -56 30 -117 24 l-65 -7 8 109 c4 61 12 112 18 116 6 4 21 8 34 8 34 0 26
18 -10 22 -33 3 -33 3 -33 58 0 54 -1 55 -30 58 l-30 3 3 -65z m2 -160 l0 -63
-61 -7 c-33 -4 -67 -10 -75 -13 -10 -4 -14 3 -14 25 0 26 4 30 38 36 20 3 52
6 70 6 17 0 32 5 32 11 0 8 -21 10 -70 5 l-70 -7 0 30 c0 32 -7 29 110 44 14
2 28 1 33 -1 4 -2 7 -32 7 -66z m0 -120 l0 -33 -67 -6 c-38 -3 -71 -3 -75 0
-5 2 -8 17 -8 33 0 27 3 29 48 33 110 8 102 10 102 -27z"/>
<path d="M189 522 c15 -28 60 -62 81 -62 10 0 21 8 24 17 10 25 -25 54 -74 60
-40 6 -42 5 -31 -15z"/>
<path d="M120 403 c0 -5 14 -23 31 -40 43 -47 90 -42 74 7 -8 24 -105 55 -105
33z"/>
<path d="M215 259 c-26 -33 -58 -65 -71 -71 -12 -6 -25 -16 -27 -22 -7 -18 22
-76 38 -76 9 0 37 44 70 110 30 60 55 112 55 115 0 17 -23 -3 -65 -56z"/>
<path d="M391 130 c-14 -22 -41 -51 -60 -65 -20 -14 -32 -25 -28 -25 12 0 107
50 142 74 16 11 32 22 35 24 8 6 -33 32 -49 32 -9 0 -27 -18 -40 -40z"/>
<path d="M660 105 c61 -62 80 -68 80 -27 0 24 -8 33 -49 55 -81 45 -93 35 -31
-28z"/>
</g>
</svg>
