<?xml version="1.0" standalone="no"?>
<!DOCTYPE svg PUBLIC "-//W3C//DTD SVG 20010904//EN"
 "http://www.w3.org/TR/2001/REC-SVG-20010904/DTD/svg10.dtd">
<svg version="1.0" xmlns="http://www.w3.org/2000/svg"
 width="96.000000pt" height="68.000000pt" viewBox="0 0 96.000000 68.000000"
 preserveAspectRatio="xMidYMid meet">
<metadata>
Created by potrace 1.16, written by Peter Selinger 2001-2019
</metadata>
<g transform="translate(0.000000,68.000000) scale(0.100000,-0.100000)"
fill="#000000" stroke="none">
<path d="M633 243 c0 -10 5 -24 11 -32 8 -11 8 -13 -1 -7 -17 9 -17 -16 -1
-32 9 -9 9 -12 -1 -12 -10 0 -11 -8 -6 -27 4 -16 7 -36 7 -45 0 -11 9 -20 24
-24 13 -3 24 -9 24 -13 0 -10 110 -7 133 3 19 9 24 36 6 36 -6 0 -8 7 -5 17 4
10 -7 1 -24 -20 -17 -20 -37 -37 -43 -37 -7 0 -6 4 3 10 11 7 4 8 -23 5 -31
-4 -42 -1 -61 20 -22 24 -26 44 -12 75 7 18 3 71 -8 88 -11 18 -23 15 -23 -5z"/>
<path d="M743 206 c-35 -17 -27 -24 11 -12 19 6 32 14 30 18 -6 10 -12 9 -41
-6z"/>
</g>
</svg>
