<?xml version="1.0" standalone="no"?>
<!DOCTYPE svg PUBLIC "-//W3C//DTD SVG 20010904//EN"
 "http://www.w3.org/TR/2001/REC-SVG-20010904/DTD/svg10.dtd">
<svg version="1.0" xmlns="http://www.w3.org/2000/svg"
 width="96.000000pt" height="68.000000pt" viewBox="0 0 96.000000 68.000000"
 preserveAspectRatio="xMidYMid meet">
<metadata>
Created by potrace 1.16, written by Peter Selinger 2001-2019
</metadata>
<g transform="translate(0.000000,68.000000) scale(0.100000,-0.100000)"
fill="#000000" stroke="none">
<path d="M480 592 c0 -12 -5 -33 -12 -48 -11 -24 -16 -26 -53 -21 -23 4 -50 9
-60 12 -19 6 -19 6 0 -10 11 -9 29 -22 40 -29 20 -14 20 -14 0 -36 -11 -12
-32 -29 -47 -38 -16 -9 -28 -20 -28 -24 0 -11 64 16 100 42 l30 21 33 -25 c19
-14 41 -26 50 -26 35 0 12 47 -38 75 -17 10 -16 14 14 47 28 33 34 68 11 68
-5 0 -15 3 -24 6 -11 4 -16 0 -16 -14z"/>
<path d="M606 523 c10 -22 7 -134 -5 -146 -8 -8 -238 -37 -298 -37 l-33 0 0
68 c0 73 -10 92 -46 92 -28 0 -39 -16 -24 -35 16 -20 25 -118 12 -142 -9 -15
-8 -25 2 -39 13 -18 16 -18 68 -1 76 24 79 23 66 -15 -15 -42 -123 -150 -185
-183 -45 -25 -46 -26 -15 -21 38 7 127 49 156 74 10 9 40 46 67 81 40 52 47
67 38 82 -9 17 -6 19 25 19 l34 0 4 -108 c3 -116 6 -123 62 -152 43 -22 210
-20 253 3 17 9 35 22 39 28 6 11 -35 108 -47 109 -4 0 -9 -16 -12 -36 -10 -57
-37 -74 -124 -74 -41 0 -83 5 -94 11 -32 17 -41 54 -28 118 6 31 12 67 13 81
1 28 13 40 39 40 10 0 17 -8 17 -20 0 -27 27 -37 47 -18 8 9 23 51 33 94 10
44 22 89 25 101 6 19 2 23 -32 32 -55 16 -67 14 -57 -6z"/>
</g>
</svg>
