<?xml version="1.0" standalone="no"?>
<!DOCTYPE svg PUBLIC "-//W3C//DTD SVG 20010904//EN"
 "http://www.w3.org/TR/2001/REC-SVG-20010904/DTD/svg10.dtd">
<svg version="1.0" xmlns="http://www.w3.org/2000/svg"
 width="96.000000pt" height="68.000000pt" viewBox="0 0 96.000000 68.000000"
 preserveAspectRatio="xMidYMid meet">
<metadata>
Created by potrace 1.16, written by Peter Selinger 2001-2019
</metadata>
<g transform="translate(0.000000,68.000000) scale(0.100000,-0.100000)"
fill="#000000" stroke="none">
<path d="M490 267 c-58 -5 -142 -10 -187 -11 l-82 -1 20 -21 c12 -13 28 -56
39 -104 19 -84 35 -115 48 -93 4 7 51 14 117 18 191 10 213 14 208 33 -2 9 10
44 26 77 37 73 38 78 6 99 -27 18 -41 18 -195 3z m118 -26 c11 -6 11 -21 2
-74 -14 -76 -3 -71 -181 -83 l-96 -6 -13 66 c-7 36 -12 69 -11 73 0 5 63 13
138 19 76 6 140 11 143 12 3 1 11 -2 18 -7z"/>
</g>
</svg>
