<?xml version="1.0" standalone="no"?>
<!DOCTYPE svg PUBLIC "-//W3C//DTD SVG 20010904//EN"
 "http://www.w3.org/TR/2001/REC-SVG-20010904/DTD/svg10.dtd">
<svg version="1.0" xmlns="http://www.w3.org/2000/svg"
 width="96.000000pt" height="68.000000pt" viewBox="0 0 96.000000 68.000000"
 preserveAspectRatio="xMidYMid meet">
<metadata>
Created by potrace 1.16, written by Peter Selinger 2001-2019
</metadata>
<g transform="translate(0.000000,68.000000) scale(0.100000,-0.100000)"
fill="#000000" stroke="none">
<path d="M300 564 c-6 -14 -10 -29 -10 -33 0 -21 -26 -30 -51 -17 -41 21 -89
35 -89 26 0 -4 20 -21 45 -37 25 -15 45 -31 45 -34 0 -3 -29 -27 -65 -54 -67
-51 -82 -72 -42 -59 35 11 115 53 122 64 14 23 25 7 25 -35 0 -40 -5 -49 -55
-99 -30 -30 -76 -66 -102 -80 -26 -14 -41 -25 -33 -25 26 -1 102 38 147 75
l43 35 0 -48 c0 -26 -5 -65 -11 -87 l-11 -38 -46 6 -47 6 42 -42 c39 -39 44
-41 66 -29 42 22 59 75 65 193 3 83 1 119 -12 158 l-17 52 36 39 c41 46 42 53
13 73 -32 22 -47 20 -58 -10z"/>
<path d="M535 546 c-39 -8 -70 -9 -88 -3 -37 12 -41 6 -27 -39 13 -37 8 -314
-6 -406 -9 -56 14 -59 77 -9 28 23 55 41 59 41 4 0 10 7 13 15 5 12 -4 11 -44
-5 -27 -11 -52 -20 -54 -20 -3 0 -5 47 -5 105 0 104 0 106 26 115 14 6 54 10
89 10 l63 0 30 92 c22 66 27 97 20 105 -13 15 -71 15 -153 -1z m88 -18 c-2 -5
-3 -19 -3 -32 0 -19 -6 -24 -37 -29 -21 -3 -53 -9 -70 -12 -32 -7 -33 -7 -33
28 0 34 2 36 38 42 20 4 44 8 52 10 24 5 55 1 53 -7z m-7 -110 c-3 -17 -7 -33
-9 -34 -1 -1 -33 -7 -70 -12 l-68 -9 3 31 c3 29 7 32 58 43 90 18 93 18 86
-19z"/>
<path d="M645 294 l-40 -46 -25 19 c-26 21 -70 36 -70 24 0 -3 11 -13 24 -21
14 -8 63 -53 110 -99 l86 -83 66 7 c36 4 62 10 58 14 -5 4 -36 18 -69 31 -70
27 -123 56 -148 82 -24 24 -11 41 42 57 49 14 59 28 35 46 -11 8 -21 14 -24
15 -3 0 -23 -21 -45 -46z"/>
</g>
</svg>
