<?xml version="1.0" standalone="no"?>
<!DOCTYPE svg PUBLIC "-//W3C//DTD SVG 20010904//EN"
 "http://www.w3.org/TR/2001/REC-SVG-20010904/DTD/svg10.dtd">
<svg version="1.0" xmlns="http://www.w3.org/2000/svg"
 width="96.000000pt" height="68.000000pt" viewBox="0 0 96.000000 68.000000"
 preserveAspectRatio="xMidYMid meet">
<metadata>
Created by potrace 1.16, written by Peter Selinger 2001-2019
</metadata>
<g transform="translate(0.000000,68.000000) scale(0.100000,-0.100000)"
fill="#000000" stroke="none">
<path d="M291 578 c5 -18 9 -47 9 -65 0 -31 -3 -33 -55 -48 -30 -9 -55 -18
-55 -20 0 -2 25 -1 55 2 51 5 55 4 55 -15 0 -16 -9 -24 -37 -31 -21 -6 -44
-11 -51 -11 -7 0 -10 -5 -6 -11 3 -6 22 -9 43 -7 20 3 44 0 54 -6 14 -9 21 -7
30 5 7 9 31 20 55 24 56 9 54 25 -3 25 -41 0 -45 2 -45 24 0 20 8 27 50 41 61
20 69 31 36 47 -21 9 -29 8 -44 -5 -27 -25 -32 -21 -32 23 0 40 -18 60 -54 60
-12 0 -13 -6 -5 -32z"/>
</g>
</svg>
