<?xml version="1.0" standalone="no"?>
<!DOCTYPE svg PUBLIC "-//W3C//DTD SVG 20010904//EN"
 "http://www.w3.org/TR/2001/REC-SVG-20010904/DTD/svg10.dtd">
<svg version="1.0" xmlns="http://www.w3.org/2000/svg"
 width="96.000000pt" height="68.000000pt" viewBox="0 0 96.000000 68.000000"
 preserveAspectRatio="xMidYMid meet">
<metadata>
Created by potrace 1.16, written by Peter Selinger 2001-2019
</metadata>
<g transform="translate(0.000000,68.000000) scale(0.100000,-0.100000)"
fill="#000000" stroke="none">
<path d="M630 505 c-30 -7 -76 -16 -102 -20 -27 -3 -48 -10 -48 -16 0 -13 50
-11 125 6 37 9 71 15 76 13 5 -2 -6 -25 -23 -51 -33 -52 -31 -72 5 -40 12 11
44 35 70 53 42 28 47 34 35 46 -21 21 -75 25 -138 9z"/>
</g>
</svg>
