<?xml version="1.0" standalone="no"?>
<!DOCTYPE svg PUBLIC "-//W3C//DTD SVG 20010904//EN"
 "http://www.w3.org/TR/2001/REC-SVG-20010904/DTD/svg10.dtd">
<svg version="1.0" xmlns="http://www.w3.org/2000/svg"
 width="96.000000pt" height="68.000000pt" viewBox="0 0 96.000000 68.000000"
 preserveAspectRatio="xMidYMid meet">
<metadata>
Created by potrace 1.16, written by Peter Selinger 2001-2019
</metadata>
<g transform="translate(0.000000,68.000000) scale(0.100000,-0.100000)"
fill="#000000" stroke="none">
<path d="M351 155 c-11 -18 -42 -51 -70 -72 -97 -74 -48 -62 82 20 42 27 77
53 77 58 0 5 -1 9 -3 9 -1 0 -17 4 -34 9 -30 9 -33 7 -52 -24z"/>
<path d="M595 95 c82 -70 105 -79 105 -42 0 31 -34 61 -98 86 -86 34 -87 25
-7 -44z"/>
</g>
</svg>
