<?xml version="1.0" standalone="no"?>
<!DOCTYPE svg PUBLIC "-//W3C//DTD SVG 20010904//EN"
 "http://www.w3.org/TR/2001/REC-SVG-20010904/DTD/svg10.dtd">
<svg version="1.0" xmlns="http://www.w3.org/2000/svg"
 width="96.000000pt" height="68.000000pt" viewBox="0 0 96.000000 68.000000"
 preserveAspectRatio="xMidYMid meet">
<metadata>
Created by potrace 1.16, written by Peter Selinger 2001-2019
</metadata>
<g transform="translate(0.000000,68.000000) scale(0.100000,-0.100000)"
fill="#000000" stroke="none">
<path d="M440 599 c-25 -5 -89 -13 -144 -17 l-98 -7 26 -28 c14 -15 26 -37 26
-47 0 -24 21 -70 32 -70 4 0 16 5 26 10 9 6 64 13 122 18 83 5 105 10 106 22
0 23 16 54 31 63 23 14 14 38 -22 53 -38 16 -41 16 -105 3z m40 -63 c0 -41 -8
-44 -106 -53 -71 -6 -74 -5 -75 16 -1 11 -2 27 -3 33 -1 15 79 36 142 37 41 1
42 0 42 -33z"/>
<path d="M380 399 c-74 -11 -150 -16 -169 -13 -31 5 -33 4 -27 -18 3 -13 6
-69 6 -126 0 -94 2 -105 23 -126 50 -50 196 -73 360 -57 108 11 192 37 202 63
3 7 -3 38 -14 68 -15 44 -20 51 -26 35 -23 -65 -31 -77 -58 -92 -47 -24 -219
-38 -321 -26 -111 14 -136 29 -136 87 l0 44 83 7 c45 4 125 10 177 14 79 5 95
9 92 22 -1 9 11 36 28 60 l30 44 -21 18 c-25 21 -51 20 -229 -4z m156 -56 c-3
-25 -7 -47 -9 -49 -7 -6 -116 -8 -117 -1 0 4 0 27 0 52 l0 45 66 0 67 0 -7
-47z m-181 -19 l0 -49 -66 -3 -65 -3 5 47 6 46 44 4 c25 3 47 7 50 9 14 15 26
-7 26 -51z"/>
</g>
</svg>
