<?xml version="1.0" standalone="no"?>
<!DOCTYPE svg PUBLIC "-//W3C//DTD SVG 20010904//EN"
 "http://www.w3.org/TR/2001/REC-SVG-20010904/DTD/svg10.dtd">
<svg version="1.0" xmlns="http://www.w3.org/2000/svg"
 width="96.000000pt" height="68.000000pt" viewBox="0 0 96.000000 68.000000"
 preserveAspectRatio="xMidYMid meet">
<metadata>
Created by potrace 1.16, written by Peter Selinger 2001-2019
</metadata>
<g transform="translate(0.000000,68.000000) scale(0.100000,-0.100000)"
fill="#000000" stroke="none">
<path d="M630 244 c0 -5 6 -16 13 -23 10 -10 9 -11 -4 -6 -8 3 -26 -3 -39 -15
-13 -11 -18 -20 -12 -20 6 0 17 6 24 13 7 8 18 12 25 10 19 -7 26 18 9 35 -9
9 -16 12 -16 6z"/>
<path d="M480 213 c1 -9 75 -58 103 -69 9 -3 15 -10 12 -14 -3 -5 -1 -11 4
-14 5 -3 11 0 14 8 4 9 -5 19 -24 26 -16 7 -26 17 -22 22 3 6 0 9 -7 6 -7 -2
-24 6 -38 19 -25 23 -42 30 -42 16z"/>
<path d="M355 160 c-3 -5 -1 -19 6 -31 6 -12 7 -19 1 -15 -6 3 -10 -14 -10
-44 0 -31 5 -50 12 -50 6 0 36 16 66 36 30 20 46 33 35 29 -81 -29 -92 -25
-83 35 3 17 0 30 -6 30 -6 0 -4 5 4 10 13 8 13 10 -2 10 -9 0 -20 -4 -23 -10z"/>
<path d="M626 115 c-5 -14 31 -45 65 -58 9 -3 41 0 70 7 l54 13 -50 8 c-27 5
-58 8 -69 6 -10 -1 -15 2 -12 7 3 6 -7 15 -23 20 -23 8 -31 7 -35 -3z"/>
</g>
</svg>
