<?xml version="1.0" standalone="no"?>
<!DOCTYPE svg PUBLIC "-//W3C//DTD SVG 20010904//EN"
 "http://www.w3.org/TR/2001/REC-SVG-20010904/DTD/svg10.dtd">
<svg version="1.0" xmlns="http://www.w3.org/2000/svg"
 width="96.000000pt" height="68.000000pt" viewBox="0 0 96.000000 68.000000"
 preserveAspectRatio="xMidYMid meet">
<metadata>
Created by potrace 1.16, written by Peter Selinger 2001-2019
</metadata>
<g transform="translate(0.000000,68.000000) scale(0.100000,-0.100000)"
fill="#000000" stroke="none">
<path d="M545 593 c5 -10 10 -33 13 -50 5 -37 2 -38 -71 -48 -67 -9 -50 -29
20 -23 l54 5 -3 -36 c-3 -31 -7 -36 -36 -42 -18 -4 -36 -10 -40 -14 -8 -9 208
2 217 11 12 12 -26 24 -61 19 l-38 -5 0 39 0 40 68 3 c83 4 81 23 -3 23 l-60
1 0 34 c0 45 -10 60 -42 60 -20 0 -24 -3 -18 -17z"/>
</g>
</svg>
