<?xml version="1.0" standalone="no"?>
<!DOCTYPE svg PUBLIC "-//W3C//DTD SVG 20010904//EN"
 "http://www.w3.org/TR/2001/REC-SVG-20010904/DTD/svg10.dtd">
<svg version="1.0" xmlns="http://www.w3.org/2000/svg"
 width="90.000000pt" height="92.000000pt" viewBox="0 0 90.000000 92.000000"
 preserveAspectRatio="xMidYMid meet">
<metadata>
Created by potrace 1.16, written by Peter Selinger 2001-2019
</metadata>
<g transform="translate(0.000000,92.000000) scale(0.100000,-0.100000)"
fill="#000000" stroke="none">
<path d="M174 813 c4 -16 10 -69 13 -119 l5 -92 -63 -7 c-35 -4 -71 -11 -79
-15 -26 -15 37 -31 91 -24 l49 7 0 -60 0 -59 -95 -49 c-76 -39 -95 -53 -95
-71 0 -19 17 -34 39 -34 4 0 39 25 77 55 l69 56 3 -28 c1 -15 -1 -64 -5 -108
l-8 -80 -42 1 c-24 0 -43 -1 -43 -2 0 -8 99 -104 107 -104 24 0 33 56 33 203
l0 152 32 27 c37 30 32 49 -7 24 l-25 -16 0 49 c0 50 0 50 38 57 20 4 46 11
56 17 19 10 19 10 0 24 -12 9 -31 12 -51 8 l-33 -6 0 51 c0 28 6 65 13 83 17
40 13 54 -23 72 -46 24 -64 20 -56 -12z"/>
<path d="M466 743 c-8 -64 -82 -211 -151 -300 -30 -40 -51 -73 -47 -73 17 0
90 64 129 112 21 26 56 81 79 123 l40 75 67 -98 c102 -148 117 -162 181 -162
59 0 116 9 116 19 0 3 -44 28 -97 55 -76 39 -113 66 -176 129 -62 62 -78 83
-73 100 6 23 -27 67 -49 67 -7 0 -15 -21 -19 -47z"/>
<path d="M510 469 c-36 -10 -75 -18 -87 -18 -26 -1 -30 -16 -7 -25 42 -16 203
7 211 30 8 24 -50 30 -117 13z"/>
<path d="M575 328 c-38 -10 -104 -20 -147 -21 l-76 -2 14 -27 c7 -14 17 -53
20 -85 4 -32 11 -68 15 -80 9 -25 29 -31 29 -9 0 11 27 15 118 21 l117 7 1 36
c0 21 10 58 23 84 25 52 23 62 -17 82 -23 11 -37 10 -97 -6z m49 -37 c3 -5 1
-34 -5 -64 l-11 -56 -67 -6 c-36 -3 -76 -8 -87 -10 -19 -4 -22 1 -28 52 -4 31
-5 57 -3 59 7 7 132 32 164 33 17 1 34 -3 37 -8z"/>
</g>
</svg>
