<?xml version="1.0" standalone="no"?>
<!DOCTYPE svg PUBLIC "-//W3C//DTD SVG 20010904//EN"
 "http://www.w3.org/TR/2001/REC-SVG-20010904/DTD/svg10.dtd">
<svg version="1.0" xmlns="http://www.w3.org/2000/svg"
 width="90.000000pt" height="92.000000pt" viewBox="0 0 90.000000 92.000000"
 preserveAspectRatio="xMidYMid meet">
<metadata>
Created by potrace 1.16, written by Peter Selinger 2001-2019
</metadata>
<g transform="translate(0.000000,92.000000) scale(0.100000,-0.100000)"
fill="#000000" stroke="none">
<path d="M496 834 c-3 -9 -6 -25 -6 -36 0 -28 -55 -155 -90 -208 -16 -24 -27
-46 -24 -49 2 -3 24 15 49 39 32 31 53 43 77 45 54 3 268 49 268 58 0 4 -14
14 -31 21 -27 11 -42 9 -137 -20 -59 -18 -108 -31 -110 -30 -1 2 16 36 38 76
22 40 40 74 40 76 0 8 -45 44 -56 44 -6 0 -15 -7 -18 -16z"/>
<path d="M180 767 c0 -8 11 -36 25 -62 13 -27 22 -51 19 -55 -3 -3 -41 -12
-85 -20 -44 -9 -81 -20 -82 -25 -1 -6 10 -16 25 -22 21 -11 33 -10 68 2 23 8
45 15 48 15 2 0 2 -19 -2 -42 -10 -65 -78 -195 -141 -270 -31 -38 -54 -68 -51
-68 4 0 24 11 45 24 54 34 107 99 148 181 19 39 36 71 38 73 1 1 16 -3 34 -9
32 -11 33 -12 26 -63 -9 -65 -40 -165 -59 -191 -12 -17 -19 -18 -54 -9 l-40
11 26 -48 c16 -29 34 -49 45 -49 40 0 80 70 112 195 9 39 23 85 31 103 22 55
-2 82 -72 82 -35 0 -44 16 -22 38 10 10 10 17 0 32 -15 24 -6 29 58 37 28 3
53 10 57 16 10 17 -21 28 -66 22 -30 -5 -41 -3 -36 4 3 7 3 25 0 42 -10 43
-95 93 -95 56z"/>
<path d="M480 557 c-7 -23 -27 -65 -46 -94 -39 -61 -32 -68 20 -18 47 44 92
48 102 9 4 -14 2 -40 -3 -57 -8 -31 -11 -32 -86 -44 -104 -16 -107 -17 -69
-37 26 -14 40 -15 70 -6 74 20 79 10 27 -61 -20 -26 -63 -66 -97 -88 -55 -37
-58 -41 -32 -41 73 1 163 74 200 163 22 53 23 54 157 63 54 4 100 10 102 14 6
9 -25 37 -45 41 -8 2 -50 -3 -93 -10 -42 -8 -80 -12 -82 -9 -3 2 0 20 5 38 6
19 8 42 5 51 -5 14 4 18 43 24 66 9 83 21 57 40 -11 9 -26 13 -35 9 -34 -13
-151 -36 -157 -30 -3 3 2 15 12 26 20 22 10 44 -24 53 -15 3 -21 -4 -31 -36z"/>
<path d="M630 284 c0 -4 15 -23 33 -44 17 -20 49 -58 70 -83 21 -26 45 -47 52
-47 23 0 19 63 -6 94 -33 41 -149 104 -149 80z"/>
</g>
</svg>
