<?xml version="1.0" standalone="no"?>
<!DOCTYPE svg PUBLIC "-//W3C//DTD SVG 20010904//EN"
 "http://www.w3.org/TR/2001/REC-SVG-20010904/DTD/svg10.dtd">
<svg version="1.0" xmlns="http://www.w3.org/2000/svg"
 width="96.000000pt" height="68.000000pt" viewBox="0 0 96.000000 68.000000"
 preserveAspectRatio="xMidYMid meet">
<metadata>
Created by potrace 1.16, written by Peter Selinger 2001-2019
</metadata>
<g transform="translate(0.000000,68.000000) scale(0.100000,-0.100000)"
fill="#000000" stroke="none">
<path d="M575 628 c-2 -7 -6 -29 -7 -48 -3 -31 -7 -36 -36 -40 -41 -6 -47 -24
-9 -28 17 -2 27 -8 24 -15 -15 -41 -17 -57 -8 -57 11 0 18 8 58 58 15 19 31
24 91 29 39 3 72 10 72 15 0 16 -47 27 -90 21 -42 -6 -42 -6 -30 17 11 21 10
26 -10 42 -26 21 -49 23 -55 6z"/>
<path d="M296 591 c-3 -5 3 -20 14 -34 25 -31 19 -35 -59 -43 -66 -7 -76 -18
-36 -36 20 -9 38 -9 77 2 34 8 53 9 55 3 17 -50 59 -53 48 -3 -6 25 -3 29 24
35 42 9 39 25 -4 25 -24 0 -35 5 -35 14 0 34 -68 63 -84 37z"/>
<path d="M430 427 c0 -7 7 -23 16 -35 8 -12 13 -26 10 -31 -3 -4 -70 -11 -148
-15 -79 -4 -145 -10 -148 -12 -2 -3 2 -10 10 -15 15 -10 117 -6 200 7 39 6 40
6 40 -22 0 -36 -114 -150 -185 -183 -28 -13 -44 -26 -37 -28 25 -9 138 56 202
115 60 57 68 61 100 55 99 -17 104 -25 64 -108 -32 -64 -54 -81 -85 -65 -33
18 -38 7 -13 -33 14 -21 32 -37 43 -37 35 0 77 56 120 160 6 14 17 33 23 43
11 16 9 21 -11 38 -18 14 -39 19 -87 19 l-65 0 4 28 4 27 148 3 c82 2 151 5
154 8 3 2 -1 10 -8 17 -14 14 -94 16 -198 4 -73 -8 -73 -8 -73 16 0 18 -9 29
-34 41 -41 19 -46 20 -46 3z"/>
</g>
</svg>
