<?xml version="1.0" standalone="no"?>
<!DOCTYPE svg PUBLIC "-//W3C//DTD SVG 20010904//EN"
 "http://www.w3.org/TR/2001/REC-SVG-20010904/DTD/svg10.dtd">
<svg version="1.0" xmlns="http://www.w3.org/2000/svg"
 width="96.000000pt" height="68.000000pt" viewBox="0 0 96.000000 68.000000"
 preserveAspectRatio="xMidYMid meet">
<metadata>
Created by potrace 1.16, written by Peter Selinger 2001-2019
</metadata>
<g transform="translate(0.000000,68.000000) scale(0.100000,-0.100000)"
fill="#000000" stroke="none">
<path d="M455 278 c-22 -5 -59 -7 -82 -5 l-42 4 6 -66 c3 -36 6 -66 7 -67 1 0
43 2 95 5 l93 6 20 53 c11 29 17 60 14 67 -6 17 -50 18 -111 3z m65 -26 c0
-15 -13 -20 -70 -28 -64 -9 -70 -8 -70 8 0 17 15 24 75 31 61 8 65 7 65 -11z
m-9 -61 c-8 -14 -25 -20 -68 -23 -37 -3 -61 -1 -65 6 -14 21 18 32 100 35 39
1 42 -1 33 -18z"/>
</g>
</svg>
