<?xml version="1.0" standalone="no"?>
<!DOCTYPE svg PUBLIC "-//W3C//DTD SVG 20010904//EN"
 "http://www.w3.org/TR/2001/REC-SVG-20010904/DTD/svg10.dtd">
<svg version="1.0" xmlns="http://www.w3.org/2000/svg"
 width="96.000000pt" height="68.000000pt" viewBox="0 0 96.000000 68.000000"
 preserveAspectRatio="xMidYMid meet">
<metadata>
Created by potrace 1.16, written by Peter Selinger 2001-2019
</metadata>
<g transform="translate(0.000000,68.000000) scale(0.100000,-0.100000)"
fill="#000000" stroke="none">
<path d="M605 504 c-55 -7 -117 -10 -139 -7 l-38 6 16 -26 c10 -14 23 -47 29
-74 10 -39 16 -48 32 -45 11 1 66 5 123 9 85 5 102 9 97 21 -3 8 6 34 19 58
13 24 21 46 17 49 -29 18 -67 20 -156 9z m78 -59 c-2 -21 -4 -40 -6 -42 -8 -8
-162 -22 -168 -16 -4 5 -10 24 -14 45 l-7 36 79 7 c43 3 83 8 88 10 22 7 30
-4 28 -40z"/>
</g>
</svg>
