<?xml version="1.0" standalone="no"?>
<!DOCTYPE svg PUBLIC "-//W3C//DTD SVG 20010904//EN"
 "http://www.w3.org/TR/2001/REC-SVG-20010904/DTD/svg10.dtd">
<svg version="1.0" xmlns="http://www.w3.org/2000/svg"
 width="96.000000pt" height="68.000000pt" viewBox="0 0 96.000000 68.000000"
 preserveAspectRatio="xMidYMid meet">
<metadata>
Created by potrace 1.16, written by Peter Selinger 2001-2019
</metadata>
<g transform="translate(0.000000,68.000000) scale(0.100000,-0.100000)"
fill="#000000" stroke="none">
<path d="M295 540 c33 -34 65 -40 65 -12 0 20 -38 42 -72 42 -21 0 -20 -2 7
-30z"/>
<path d="M270 444 c-30 -8 -72 -16 -94 -20 -28 -4 -36 -8 -27 -17 8 -8 32 -7
91 2 45 8 83 12 85 9 7 -7 -97 -122 -148 -163 -27 -22 -44 -41 -38 -43 11 -4
47 17 102 60 32 24 38 26 43 11 8 -19 -3 -127 -15 -161 -6 -16 -4 -33 7 -54
16 -30 17 -31 30 -13 10 13 14 48 14 110 0 51 3 95 6 98 4 4 20 -5 36 -18 34
-29 44 -31 52 -10 5 15 -28 45 -51 45 -24 0 -13 16 23 33 30 15 34 20 24 32
-19 23 -34 18 -54 -16 -17 -29 -45 -36 -53 -12 -2 6 19 34 46 61 l51 51 -22
15 c-26 18 -33 18 -108 0z"/>
</g>
</svg>
