<?xml version="1.0" standalone="no"?>
<!DOCTYPE svg PUBLIC "-//W3C//DTD SVG 20010904//EN"
 "http://www.w3.org/TR/2001/REC-SVG-20010904/DTD/svg10.dtd">
<svg version="1.0" xmlns="http://www.w3.org/2000/svg"
 width="96.000000pt" height="68.000000pt" viewBox="0 0 96.000000 68.000000"
 preserveAspectRatio="xMidYMid meet">
<metadata>
Created by potrace 1.16, written by Peter Selinger 2001-2019
</metadata>
<g transform="translate(0.000000,68.000000) scale(0.100000,-0.100000)"
fill="#000000" stroke="none">
<path d="M250 241 c0 -28 -3 -30 -47 -36 -27 -4 -64 -11 -83 -15 -61 -13 -5
-25 63 -13 l60 9 -6 -71 c-5 -55 -3 -76 8 -91 23 -30 35 -1 35 87 l0 76 60 7
c33 4 60 11 60 15 0 16 -33 22 -77 15 -41 -6 -43 -5 -43 20 0 16 -5 26 -15 26
-10 0 -15 -10 -15 -29z"/>
</g>
</svg>
