<?xml version="1.0" standalone="no"?>
<!DOCTYPE svg PUBLIC "-//W3C//DTD SVG 20010904//EN"
 "http://www.w3.org/TR/2001/REC-SVG-20010904/DTD/svg10.dtd">
<svg version="1.0" xmlns="http://www.w3.org/2000/svg"
 width="96.000000pt" height="68.000000pt" viewBox="0 0 96.000000 68.000000"
 preserveAspectRatio="xMidYMid meet">
<metadata>
Created by potrace 1.16, written by Peter Selinger 2001-2019
</metadata>
<g transform="translate(0.000000,68.000000) scale(0.100000,-0.100000)"
fill="#000000" stroke="none">
<path d="M235 568 c4 -18 9 -43 12 -55 4 -19 0 -22 -39 -25 -56 -4 -56 -22 0
-26 40 -3 43 -5 40 -30 -3 -25 -7 -27 -63 -32 -33 -3 -55 -8 -48 -13 6 -4 14
-26 18 -50 11 -65 19 -74 59 -69 34 4 36 3 36 -26 0 -33 -3 -34 -109 -48 -43
-5 -51 -8 -37 -16 17 -9 89 -4 124 9 13 6 14 -4 10 -68 -6 -81 -3 -99 17 -99
19 0 25 24 25 100 l0 68 60 7 c33 4 60 10 60 15 0 13 -37 18 -81 13 -40 -6
-41 -5 -37 23 3 26 6 29 41 29 38 0 39 1 65 64 25 62 25 64 6 78 -13 10 -33
13 -62 9 -41 -5 -43 -4 -40 17 2 18 12 24 51 31 57 11 57 30 -1 34 -40 3 -42
5 -42 36 0 38 -15 56 -48 56 -21 0 -23 -3 -17 -32z m115 -181 c0 -20 -5 -24
-30 -25 -23 0 -30 4 -30 18 0 17 15 26 48 29 6 0 12 -10 12 -22z m-100 -12 c0
-22 -4 -25 -35 -25 -28 0 -35 4 -35 19 0 15 8 21 33 24 17 2 33 5 35 5 1 1 2
-9 2 -23z m100 -31 c0 -20 -24 -44 -45 -44 -33 0 -35 37 -2 43 36 7 47 7 47 1z
m-100 -35 c0 -16 -6 -20 -27 -17 -36 4 -44 35 -11 40 31 5 38 1 38 -23z"/>
<path d="M600 571 c-14 -10 -47 -27 -75 -37 l-50 -19 33 -3 c28 -3 33 -7 30
-25 -3 -21 -17 -29 -83 -43 -29 -6 -29 -6 -7 -15 12 -4 29 -6 37 -3 34 14 4
-45 -59 -115 -33 -36 -22 -34 32 6 30 22 33 23 38 6 19 -60 21 -62 56 -52 18
5 46 9 63 9 23 0 34 7 48 31 9 17 17 34 17 39 0 15 -42 18 -106 8 -35 -6 -67
-8 -70 -5 -11 11 59 87 80 87 12 0 52 -29 91 -65 71 -66 88 -73 145 -55 l25 7
-30 12 c-16 6 -43 17 -60 23 -16 6 -52 28 -80 47 l-50 36 64 7 c81 9 90 12 66
25 -14 8 -43 7 -97 -2 -77 -12 -78 -12 -78 9 0 12 -5 27 -11 33 -7 7 8 14 55
24 69 13 74 17 54 37 -17 17 -49 14 -78 -7z m30 -246 c0 -18 -5 -25 -19 -25
-10 0 -33 -3 -51 -6 -29 -6 -31 -5 -28 17 3 23 28 36 76 38 17 1 22 -4 22 -24z"/>
<path d="M630 234 c-124 -17 -160 -19 -188 -10 -22 7 -23 6 -16 -31 10 -49 12
-71 13 -110 1 -22 6 -33 16 -33 12 0 15 15 15 74 l0 74 63 7 c34 4 94 7 132 8
l70 2 0 -55 c1 -69 -8 -90 -35 -83 -24 6 -25 -5 -4 -35 17 -25 46 -29 64 -7 6
8 16 45 20 82 5 38 12 76 15 85 4 10 -2 22 -17 32 -26 18 -20 18 -148 0z"/>
<path d="M620 179 c-14 -4 -44 -7 -68 -8 -24 -1 -42 -4 -40 -8 3 -5 11 -23 19
-41 12 -30 17 -33 43 -28 16 3 38 6 50 6 13 0 28 12 39 31 10 18 16 32 15 33
-2 1 -10 6 -18 12 -9 6 -26 8 -40 3z m16 -36 c-4 -23 -66 -40 -77 -21 -17 26
-5 34 53 37 19 1 26 -3 24 -16z"/>
</g>
</svg>
