<?xml version="1.0" standalone="no"?>
<!DOCTYPE svg PUBLIC "-//W3C//DTD SVG 20010904//EN"
 "http://www.w3.org/TR/2001/REC-SVG-20010904/DTD/svg10.dtd">
<svg version="1.0" xmlns="http://www.w3.org/2000/svg"
 width="96.000000pt" height="68.000000pt" viewBox="0 0 96.000000 68.000000"
 preserveAspectRatio="xMidYMid meet">
<metadata>
Created by potrace 1.16, written by Peter Selinger 2001-2019
</metadata>
<g transform="translate(0.000000,68.000000) scale(0.100000,-0.100000)"
fill="#000000" stroke="none">
<path d="M285 548 c-22 -5 -55 -8 -73 -6 -33 4 -33 4 -27 -31 4 -20 8 -63 10
-96 3 -57 4 -60 26 -57 13 1 53 4 89 6 l65 3 12 54 c7 30 17 68 23 84 17 51
-28 67 -125 43z m70 -42 c0 -25 -4 -29 -30 -31 -16 -1 -42 -5 -57 -9 -27 -8
-28 -7 -28 27 0 34 2 36 38 40 69 7 77 5 77 -27z m-5 -75 c0 -26 -5 -30 -44
-40 -63 -15 -66 -15 -66 18 0 26 4 30 48 39 26 5 50 10 55 11 4 0 7 -12 7 -28z"/>
</g>
</svg>
