<?xml version="1.0" standalone="no"?>
<!DOCTYPE svg PUBLIC "-//W3C//DTD SVG 20010904//EN"
 "http://www.w3.org/TR/2001/REC-SVG-20010904/DTD/svg10.dtd">
<svg version="1.0" xmlns="http://www.w3.org/2000/svg"
 width="96.000000pt" height="68.000000pt" viewBox="0 0 96.000000 68.000000"
 preserveAspectRatio="xMidYMid meet">
<metadata>
Created by potrace 1.16, written by Peter Selinger 2001-2019
</metadata>
<g transform="translate(0.000000,68.000000) scale(0.100000,-0.100000)"
fill="#000000" stroke="none">
<path d="M300 391 c0 -22 -16 -26 -122 -37 -37 -3 -66 -10 -63 -14 9 -14 69
-20 110 -10 22 5 41 7 43 5 9 -9 -74 -119 -114 -152 -25 -20 -43 -38 -40 -40
11 -11 89 42 131 89 l47 53 -6 -55 c-3 -30 -9 -75 -12 -100 -4 -33 -1 -50 10
-65 16 -20 16 -20 31 -1 11 15 15 48 15 130 l1 111 30 -37 c33 -41 59 -49 59
-20 0 27 -26 58 -59 72 -41 16 -32 26 31 34 59 8 50 26 -14 26 -27 0 -38 4
-38 15 0 8 -9 15 -20 15 -13 0 -20 -7 -20 -19z"/>
</g>
</svg>
