<?xml version="1.0" standalone="no"?>
<!DOCTYPE svg PUBLIC "-//W3C//DTD SVG 20010904//EN"
 "http://www.w3.org/TR/2001/REC-SVG-20010904/DTD/svg10.dtd">
<svg version="1.0" xmlns="http://www.w3.org/2000/svg"
 width="96.000000pt" height="68.000000pt" viewBox="0 0 96.000000 68.000000"
 preserveAspectRatio="xMidYMid meet">
<metadata>
Created by potrace 1.16, written by Peter Selinger 2001-2019
</metadata>
<g transform="translate(0.000000,68.000000) scale(0.100000,-0.100000)"
fill="#000000" stroke="none">
<path d="M301 529 c-18 -59 -50 -107 -129 -191 -55 -58 -61 -68 -33 -52 18 10
53 36 76 57 28 24 46 33 50 26 9 -13 -3 -170 -16 -221 -6 -25 -6 -44 2 -62 14
-30 25 -33 38 -8 14 27 17 297 3 314 -9 12 -2 27 35 78 48 66 50 91 6 98 -15
2 -22 -6 -32 -39z"/>
</g>
</svg>
