<?xml version="1.0" standalone="no"?>
<!DOCTYPE svg PUBLIC "-//W3C//DTD SVG 20010904//EN"
 "http://www.w3.org/TR/2001/REC-SVG-20010904/DTD/svg10.dtd">
<svg version="1.0" xmlns="http://www.w3.org/2000/svg"
 width="96.000000pt" height="68.000000pt" viewBox="0 0 96.000000 68.000000"
 preserveAspectRatio="xMidYMid meet">
<metadata>
Created by potrace 1.16, written by Peter Selinger 2001-2019
</metadata>
<g transform="translate(0.000000,68.000000) scale(0.100000,-0.100000)"
fill="#000000" stroke="none">
<path d="M558 573 c-3 -33 -7 -37 -43 -48 -30 -8 -36 -12 -22 -18 9 -3 24 -4
34 0 13 5 15 2 11 -15 -8 -28 -1 -28 21 -1 14 17 32 22 89 27 40 2 72 8 72 13
0 14 -47 22 -85 15 -36 -7 -44 1 -22 23 10 10 8 15 -7 27 -32 23 -45 17 -48
-23z"/>
<path d="M300 585 c0 -4 7 -19 15 -34 14 -27 13 -29 -8 -35 -12 -3 -42 -6 -66
-6 -39 0 -42 -2 -30 -16 11 -13 25 -15 71 -10 56 7 58 6 68 -20 12 -31 25 -24
25 14 0 21 5 28 25 30 14 2 30 8 35 14 7 7 -2 9 -28 5 -35 -5 -38 -4 -43 23
-4 18 -14 30 -28 34 -27 7 -36 7 -36 1z"/>
</g>
</svg>
