<?xml version="1.0" standalone="no"?>
<!DOCTYPE svg PUBLIC "-//W3C//DTD SVG 20010904//EN"
 "http://www.w3.org/TR/2001/REC-SVG-20010904/DTD/svg10.dtd">
<svg version="1.0" xmlns="http://www.w3.org/2000/svg"
 width="96.000000pt" height="68.000000pt" viewBox="0 0 96.000000 68.000000"
 preserveAspectRatio="xMidYMid meet">
<metadata>
Created by potrace 1.16, written by Peter Selinger 2001-2019
</metadata>
<g transform="translate(0.000000,68.000000) scale(0.100000,-0.100000)"
fill="#000000" stroke="none">
<path d="M440 391 c0 -21 -29 -27 -193 -40 -86 -7 -90 -8 -62 -20 22 -9 44
-10 85 -2 30 5 83 13 118 16 62 7 62 7 62 -19 0 -19 5 -26 20 -26 14 0 20 7
20 24 0 13 7 27 16 30 9 3 77 6 151 6 124 0 134 1 122 16 -12 15 -30 16 -146
10 -117 -6 -133 -5 -133 8 0 11 -10 16 -30 16 -23 0 -30 -5 -30 -19z"/>
</g>
</svg>
