<?xml version="1.0" standalone="no"?>
<!DOCTYPE svg PUBLIC "-//W3C//DTD SVG 20010904//EN"
 "http://www.w3.org/TR/2001/REC-SVG-20010904/DTD/svg10.dtd">
<svg version="1.0" xmlns="http://www.w3.org/2000/svg"
 width="96.000000pt" height="68.000000pt" viewBox="0 0 96.000000 68.000000"
 preserveAspectRatio="xMidYMid meet">
<metadata>
Created by potrace 1.16, written by Peter Selinger 2001-2019
</metadata>
<g transform="translate(0.000000,68.000000) scale(0.100000,-0.100000)"
fill="#000000" stroke="none">
<path d="M470 573 c0 -3 12 -21 26 -40 14 -19 24 -37 21 -39 -3 -3 -36 -7 -73
-9 l-68 -3 -20 -41 c-15 -30 -17 -44 -9 -52 15 -15 32 -3 49 36 13 31 18 34
71 40 32 3 85 10 119 15 88 14 87 14 81 -20 -4 -16 -4 -30 0 -30 12 0 93 44
93 51 0 4 -18 14 -40 23 -31 12 -50 14 -91 6 -69 -13 -69 -13 -69 13 0 14 -10
29 -29 40 -29 17 -61 23 -61 10z"/>
<path d="M220 545 c-14 -8 -41 -14 -60 -15 l-35 0 3 -147 c2 -83 -1 -173 -7
-204 -12 -61 -1 -114 22 -107 16 6 24 87 29 280 l3 156 35 5 c19 2 37 3 39 1
2 -2 -2 -17 -8 -35 -9 -27 -8 -37 9 -64 11 -18 20 -45 20 -60 0 -23 -3 -26
-21 -22 -29 8 -18 -16 13 -27 59 -21 76 21 33 78 -34 45 -32 72 10 110 19 18
35 37 35 43 0 26 -80 31 -120 8z"/>
<path d="M493 398 c-83 -15 -66 -32 23 -25 83 7 104 15 83 28 -17 10 -37 10
-106 -3z"/>
<path d="M565 321 c-27 -5 -81 -11 -120 -15 -38 -4 -81 -10 -95 -13 -23 -5
-24 -6 -5 -13 11 -5 37 -9 58 -9 42 -1 42 0 23 -44 -17 -39 -50 -78 -95 -112
-19 -14 -28 -25 -20 -25 24 0 117 68 135 100 10 16 21 30 25 30 14 0 19 33 8
46 -9 11 -5 14 24 14 41 0 45 -7 46 -95 1 -79 6 -90 45 -109 61 -29 207 -15
230 22 3 5 -4 32 -16 58 l-21 49 -11 -40 c-17 -58 -61 -76 -146 -59 -46 10
-57 40 -40 110 11 44 11 57 1 63 -7 5 14 11 50 15 34 3 65 8 67 11 18 18 -66
27 -143 16z"/>
</g>
</svg>
