<?xml version="1.0" standalone="no"?>
<!DOCTYPE svg PUBLIC "-//W3C//DTD SVG 20010904//EN"
 "http://www.w3.org/TR/2001/REC-SVG-20010904/DTD/svg10.dtd">
<svg version="1.0" xmlns="http://www.w3.org/2000/svg"
 width="90.000000pt" height="92.000000pt" viewBox="0 0 90.000000 92.000000"
 preserveAspectRatio="xMidYMid meet">
<metadata>
Created by potrace 1.16, written by Peter Selinger 2001-2019
</metadata>
<g transform="translate(0.000000,92.000000) scale(0.100000,-0.100000)"
fill="#000000" stroke="none">
<path d="M485 848 c-2 -7 -6 -31 -10 -52 -7 -44 -62 -158 -107 -223 -40 -59
-17 -54 46 10 50 51 55 54 116 60 36 3 85 9 110 12 76 10 75 13 75 -227 -1
-179 -3 -219 -18 -251 -12 -29 -21 -37 -34 -33 -44 13 -73 18 -73 12 0 -3 21
-33 46 -66 45 -60 47 -61 66 -43 58 52 78 150 78 384 0 92 5 170 12 189 11 32
10 35 -23 62 -40 33 -44 34 -151 8 -46 -11 -95 -20 -110 -20 l-26 0 39 72 39
71 -22 24 c-24 25 -46 30 -53 11z"/>
<path d="M190 720 c-41 -10 -92 -19 -113 -19 -57 -1 -42 -25 19 -29 27 -2 52
-6 56 -10 3 -4 9 -39 13 -79 l7 -72 -51 -7 c-84 -11 -84 -38 -1 -36 l50 1 0
-83 0 -83 -42 -16 c-24 -8 -60 -20 -81 -27 -20 -6 -37 -15 -37 -20 0 -10 49
-50 60 -50 15 0 243 145 247 157 3 7 -15 4 -48 -8 -28 -11 -53 -18 -56 -16 -2
2 0 40 4 83 l8 78 44 8 c24 4 46 10 50 13 10 11 -24 25 -62 25 l-37 0 2 75 3
75 35 6 c19 4 46 11 59 16 19 7 21 11 11 23 -15 19 -44 17 -140 -5z"/>
<path d="M485 524 c-27 -8 -64 -12 -81 -9 l-31 5 5 -117 c4 -115 16 -169 31
-144 4 6 36 14 71 18 54 5 65 4 77 -12 25 -35 38 -2 40 106 1 55 5 109 8 119
4 14 -2 23 -24 34 -35 18 -31 18 -96 0z m59 -46 c12 -45 7 -55 -21 -54 -16 0
-45 -3 -65 -7 l-38 -8 0 40 c0 36 3 40 28 44 71 11 90 8 96 -15z m6 -125 l0
-38 -65 -2 -65 -2 0 37 0 37 65 3 65 3 0 -38z"/>
</g>
</svg>
