<?xml version="1.0" standalone="no"?>
<!DOCTYPE svg PUBLIC "-//W3C//DTD SVG 20010904//EN"
 "http://www.w3.org/TR/2001/REC-SVG-20010904/DTD/svg10.dtd">
<svg version="1.0" xmlns="http://www.w3.org/2000/svg"
 width="96.000000pt" height="68.000000pt" viewBox="0 0 96.000000 68.000000"
 preserveAspectRatio="xMidYMid meet">
<metadata>
Created by potrace 1.16, written by Peter Selinger 2001-2019
</metadata>
<g transform="translate(0.000000,68.000000) scale(0.100000,-0.100000)"
fill="#000000" stroke="none">
<path d="M296 569 c-10 -51 -65 -137 -134 -211 -35 -37 -61 -68 -57 -68 11 0
72 46 112 83 l32 30 7 -38 c8 -46 -1 -168 -16 -212 -9 -25 -9 -38 2 -59 31
-64 44 -28 55 154 8 126 4 157 -19 173 -5 3 12 37 38 74 l46 69 -22 18 c-30
25 -37 23 -44 -13z"/>
</g>
</svg>
