<?xml version="1.0" standalone="no"?>
<!DOCTYPE svg PUBLIC "-//W3C//DTD SVG 20010904//EN"
 "http://www.w3.org/TR/2001/REC-SVG-20010904/DTD/svg10.dtd">
<svg version="1.0" xmlns="http://www.w3.org/2000/svg"
 width="96.000000pt" height="68.000000pt" viewBox="0 0 96.000000 68.000000"
 preserveAspectRatio="xMidYMid meet">
<metadata>
Created by potrace 1.16, written by Peter Selinger 2001-2019
</metadata>
<g transform="translate(0.000000,68.000000) scale(0.100000,-0.100000)"
fill="#000000" stroke="none">
<path d="M510 386 c0 -51 -62 -77 -74 -31 -4 15 -16 27 -32 31 -34 9 -41 -2
-19 -27 17 -17 17 -22 5 -29 -8 -6 -34 -10 -58 -10 -26 0 -41 -4 -37 -10 13
-21 346 3 345 25 0 6 -23 11 -51 13 -49 3 -50 4 -34 22 21 23 12 40 -21 40
-19 0 -24 -5 -24 -24z"/>
</g>
</svg>
