<?xml version="1.0" standalone="no"?>
<!DOCTYPE svg PUBLIC "-//W3C//DTD SVG 20010904//EN"
 "http://www.w3.org/TR/2001/REC-SVG-20010904/DTD/svg10.dtd">
<svg version="1.0" xmlns="http://www.w3.org/2000/svg"
 width="96.000000pt" height="68.000000pt" viewBox="0 0 96.000000 68.000000"
 preserveAspectRatio="xMidYMid meet">
<metadata>
Created by potrace 1.16, written by Peter Selinger 2001-2019
</metadata>
<g transform="translate(0.000000,68.000000) scale(0.100000,-0.100000)"
fill="#000000" stroke="none">
<path d="M270 504 c-19 -7 -57 -13 -83 -13 -35 -1 -46 -4 -41 -13 4 -7 13 -35
19 -63 13 -55 9 -53 105 -40 44 5 46 7 65 58 11 28 20 56 20 61 0 17 -49 23
-85 10z m22 -55 c-3 -41 -8 -46 -54 -54 -36 -7 -37 -6 -44 29 -8 44 -5 47 43
56 53 10 58 7 55 -31z"/>
</g>
</svg>
