<?xml version="1.0" standalone="no"?>
<!DOCTYPE svg PUBLIC "-//W3C//DTD SVG 20010904//EN"
 "http://www.w3.org/TR/2001/REC-SVG-20010904/DTD/svg10.dtd">
<svg version="1.0" xmlns="http://www.w3.org/2000/svg"
 width="96.000000pt" height="68.000000pt" viewBox="0 0 96.000000 68.000000"
 preserveAspectRatio="xMidYMid meet">
<metadata>
Created by potrace 1.16, written by Peter Selinger 2001-2019
</metadata>
<g transform="translate(0.000000,68.000000) scale(0.100000,-0.100000)"
fill="#000000" stroke="none">
<path d="M723 393 c-22 -8 -14 -23 13 -23 27 0 27 0 20 -57 -9 -76 -42 -176
-66 -198 -14 -13 -28 -16 -50 -11 l-31 6 27 -35 c30 -39 40 -42 72 -19 33 23
50 62 78 181 14 60 29 112 35 118 14 14 11 21 -16 33 -27 12 -60 14 -82 5z"/>
</g>
</svg>
