<?xml version="1.0" standalone="no"?>
<!DOCTYPE svg PUBLIC "-//W3C//DTD SVG 20010904//EN"
 "http://www.w3.org/TR/2001/REC-SVG-20010904/DTD/svg10.dtd">
<svg version="1.0" xmlns="http://www.w3.org/2000/svg"
 width="96.000000pt" height="68.000000pt" viewBox="0 0 96.000000 68.000000"
 preserveAspectRatio="xMidYMid meet">
<metadata>
Created by potrace 1.16, written by Peter Selinger 2001-2019
</metadata>
<g transform="translate(0.000000,68.000000) scale(0.100000,-0.100000)"
fill="#000000" stroke="none">
<path d="M410 564 c-41 -8 -109 -13 -150 -11 -43 1 -77 -2 -79 -8 -9 -24 11
-320 24 -344 41 -79 129 -106 315 -98 126 6 190 18 223 41 17 13 16 17 -7 87
-14 41 -25 72 -26 69 -1 -3 -3 -12 -5 -20 -2 -8 -8 -26 -14 -40 -31 -74 -73
-90 -233 -90 -191 1 -228 25 -228 149 l0 59 63 6 c34 3 101 8 149 12 85 6 88
7 82 29 -6 23 32 115 47 115 24 0 5 33 -26 46 -39 16 -35 16 -135 -2z m54 -30
c20 -8 20 -31 1 -77 -16 -38 -23 -41 -153 -53 l-72 -7 6 34 c15 77 21 83 114
95 47 6 86 12 87 13 1 0 8 -2 17 -5z"/>
</g>
</svg>
