<?xml version="1.0" standalone="no"?>
<!DOCTYPE svg PUBLIC "-//W3C//DTD SVG 20010904//EN"
 "http://www.w3.org/TR/2001/REC-SVG-20010904/DTD/svg10.dtd">
<svg version="1.0" xmlns="http://www.w3.org/2000/svg"
 width="96.000000pt" height="68.000000pt" viewBox="0 0 96.000000 68.000000"
 preserveAspectRatio="xMidYMid meet">
<metadata>
Created by potrace 1.16, written by Peter Selinger 2001-2019
</metadata>
<g transform="translate(0.000000,68.000000) scale(0.100000,-0.100000)"
fill="#000000" stroke="none">
<path d="M480 349 c-14 -6 -37 -8 -52 -5 l-28 6 0 -67 0 -66 61 7 c71 8 91 15
83 27 -3 6 4 28 15 50 12 22 19 45 16 50 -8 12 -63 11 -95 -2z m30 -47 c0 -34
-16 -52 -47 -52 -18 0 -23 6 -23 24 0 42 11 56 41 56 25 0 29 -4 29 -28z"/>
</g>
</svg>
