<?xml version="1.0" standalone="no"?>
<!DOCTYPE svg PUBLIC "-//W3C//DTD SVG 20010904//EN"
 "http://www.w3.org/TR/2001/REC-SVG-20010904/DTD/svg10.dtd">
<svg version="1.0" xmlns="http://www.w3.org/2000/svg"
 width="90.000000pt" height="92.000000pt" viewBox="0 0 90.000000 92.000000"
 preserveAspectRatio="xMidYMid meet">
<metadata>
Created by potrace 1.16, written by Peter Selinger 2001-2019
</metadata>
<g transform="translate(0.000000,92.000000) scale(0.100000,-0.100000)"
fill="#000000" stroke="none">
<path d="M426 863 c4 -10 10 -51 12 -91 4 -73 3 -73 -18 -62 -12 6 -23 10 -24
8 -1 -2 -10 -21 -20 -43 -10 -21 -31 -56 -48 -77 -33 -42 -26 -50 16 -17 l26
20 25 -28 c13 -15 25 -33 25 -39 0 -11 -46 -56 -94 -92 -16 -12 -22 -22 -14
-22 23 0 100 54 144 101 46 50 114 144 114 159 0 16 -41 32 -66 26 -22 -6 -24
-4 -24 33 0 38 0 38 45 44 52 5 64 12 47 29 -8 8 -21 9 -46 1 l-35 -11 -3 37
c-3 33 -6 36 -37 39 -30 3 -33 1 -25 -15z m74 -204 c0 -9 -29 -64 -46 -87 -1
-2 -12 6 -23 17 -12 12 -28 21 -37 21 -12 0 -11 6 8 29 18 23 31 30 61 30 21
1 37 -4 37 -10z"/>
<path d="M690 765 c-14 -8 -46 -19 -72 -25 -27 -7 -48 -16 -48 -20 0 -4 21
-26 48 -48 55 -47 53 -50 -38 -102 l-55 -32 45 7 c25 3 65 18 89 32 l43 25 47
-46 c53 -52 71 -57 71 -21 0 26 -24 56 -68 87 l-24 16 26 40 c14 22 30 43 36
47 18 11 11 31 -15 43 -33 15 -54 15 -85 -3z m30 -47 c0 -13 -7 -31 -14 -41
-14 -18 -16 -18 -54 4 l-40 24 51 16 c29 9 53 17 55 18 1 1 2 -9 2 -21z"/>
<path d="M242 724 c-24 -7 -79 -19 -123 -25 -43 -7 -79 -16 -79 -20 0 -11 29
-19 70 -19 21 0 41 -3 43 -7 2 -5 7 -40 11 -80 l7 -71 -56 -7 c-70 -9 -68 -29
3 -33 l52 -3 0 -83 0 -83 -65 -22 c-36 -11 -72 -21 -80 -21 -34 0 -5 -48 37
-63 11 -4 44 12 90 42 40 26 92 59 115 72 41 23 42 23 62 5 20 -18 27 -19 99
-8 42 7 83 12 90 12 10 0 13 -25 11 -113 -2 -127 10 -172 39 -143 13 13 15 37
13 141 l-2 125 120 0 c66 0 122 4 126 10 3 5 -5 16 -19 25 -21 14 -40 15 -126
8 l-102 -9 7 70 c7 74 1 86 -41 86 -20 0 -20 -4 -16 -79 l4 -78 -29 -6 c-17
-3 -64 -9 -107 -13 -69 -6 -76 -5 -70 10 5 14 1 14 -41 -4 -72 -31 -74 -30
-69 48 6 87 8 92 41 92 15 0 34 4 42 9 23 15 2 31 -40 31 l-40 0 4 78 c4 65 8
77 23 80 49 9 94 24 94 31 0 6 -47 33 -53 30 -1 -1 -22 -7 -45 -15z"/>
<path d="M669 479 c-7 -18 -23 -45 -37 -60 -13 -16 -20 -29 -15 -29 16 0 123
61 123 70 0 11 -40 50 -51 50 -3 0 -12 -14 -20 -31z"/>
<path d="M410 455 c0 -13 30 -62 45 -75 14 -12 18 -12 26 1 14 22 11 37 -11
59 -18 18 -60 28 -60 15z"/>
<path d="M701 200 c40 -44 77 -79 83 -77 17 6 10 66 -10 88 -18 19 -114 69
-134 69 -6 0 21 -36 61 -80z"/>
<path d="M410 255 c0 -9 -26 -43 -57 -76 -47 -49 -52 -58 -30 -50 51 20 82 39
112 70 24 26 27 35 19 49 -15 23 -44 28 -44 7z"/>
</g>
</svg>
