<?xml version="1.0" standalone="no"?>
<!DOCTYPE svg PUBLIC "-//W3C//DTD SVG 20010904//EN"
 "http://www.w3.org/TR/2001/REC-SVG-20010904/DTD/svg10.dtd">
<svg version="1.0" xmlns="http://www.w3.org/2000/svg"
 width="90.000000pt" height="92.000000pt" viewBox="0 0 90.000000 92.000000"
 preserveAspectRatio="xMidYMid meet">
<metadata>
Created by potrace 1.16, written by Peter Selinger 2001-2019
</metadata>
<g transform="translate(0.000000,92.000000) scale(0.100000,-0.100000)"
fill="#000000" stroke="none">
<path d="M331 836 c-18 -18 -59 -49 -91 -67 -60 -35 -78 -55 -37 -44 12 4 58
21 102 39 44 18 88 36 98 39 25 9 21 30 -11 49 -28 17 -29 17 -61 -16z"/>
<path d="M697 823 c-4 -3 -7 -15 -7 -25 0 -31 -48 -104 -109 -169 -31 -32 -54
-59 -51 -59 3 0 28 13 55 29 45 26 96 74 163 155 l24 28 -23 24 c-23 24 -40
30 -52 17z"/>
<path d="M440 718 c-7 -18 -24 -48 -37 -65 -13 -18 -21 -33 -18 -33 16 0 125
74 125 85 0 14 -32 45 -47 45 -6 0 -16 -15 -23 -32z"/>
<path d="M250 703 c0 -19 61 -94 73 -90 15 5 12 57 -5 73 -17 17 -68 29 -68
17z"/>
<path d="M142 623 c40 -56 62 -61 66 -16 3 27 -2 34 -27 47 -16 9 -40 16 -51
16 -21 0 -20 -3 12 -47z"/>
<path d="M700 595 c0 -33 -45 -100 -110 -166 -38 -38 -67 -69 -64 -69 11 0 91
44 121 67 17 14 53 49 79 79 l46 55 -23 25 c-26 27 -49 32 -49 9z"/>
<path d="M289 583 c-1 -5 -2 -28 -3 -53 -1 -51 5 -48 -170 -73 -49 -7 -91 -18
-93 -24 -2 -5 9 -16 26 -22 24 -11 44 -9 120 10 50 12 94 19 98 16 14 -15 -80
-128 -180 -216 -31 -28 -55 -51 -52 -51 3 0 31 13 63 29 60 31 117 80 168 145
l31 39 1 -71 c1 -39 -3 -93 -7 -121 -8 -51 7 -111 28 -111 23 0 31 45 31 172
l0 133 44 -49 c48 -51 66 -53 66 -5 0 27 -6 33 -55 55 -44 20 -55 30 -55 49 0
21 6 24 58 30 73 8 85 12 79 28 -3 8 -25 12 -71 10 l-67 -1 7 34 c5 30 3 35
-21 44 -31 12 -45 13 -46 3z"/>
<path d="M745 383 c-9 -51 -191 -232 -293 -293 -40 -23 -71 -45 -68 -47 3 -3
28 3 56 12 76 25 184 102 296 210 l99 96 -33 29 c-18 17 -36 30 -41 30 -5 0
-12 -17 -16 -37z"/>
</g>
</svg>
