<?xml version="1.0" standalone="no"?>
<!DOCTYPE svg PUBLIC "-//W3C//DTD SVG 20010904//EN"
 "http://www.w3.org/TR/2001/REC-SVG-20010904/DTD/svg10.dtd">
<svg version="1.0" xmlns="http://www.w3.org/2000/svg"
 width="96.000000pt" height="68.000000pt" viewBox="0 0 96.000000 68.000000"
 preserveAspectRatio="xMidYMid meet">
<metadata>
Created by potrace 1.16, written by Peter Selinger 2001-2019
</metadata>
<g transform="translate(0.000000,68.000000) scale(0.100000,-0.100000)"
fill="#000000" stroke="none">
<path d="M432 446 c4 -20 0 -25 -25 -30 -16 -3 -45 -6 -64 -6 -21 0 -32 -4
-28 -10 4 -7 29 -8 67 -4 55 6 60 5 56 -12 -3 -17 -18 -20 -143 -29 -129 -10
-138 -12 -110 -24 25 -11 47 -11 135 3 59 8 109 11 114 6 16 -16 -5 -30 -47
-31 -73 -1 -90 -18 -19 -18 46 -1 64 -5 68 -16 9 -22 31 -18 37 5 4 17 14 20
65 20 60 0 61 0 59 28 l-2 27 103 3 c98 3 130 14 76 28 -14 4 -54 4 -89 1 -58
-6 -62 -5 -58 12 7 26 -11 34 -77 32 -50 -1 -58 2 -63 19 -4 14 -14 20 -32 20
-23 0 -27 -3 -23 -24z m136 -53 c-4 -23 -88 -32 -88 -10 0 22 10 27 52 27 32
0 39 -3 36 -17z m-8 -41 c0 -17 -25 -32 -52 -32 -40 0 -37 28 5 33 17 2 35 5
40 5 4 1 7 -2 7 -6z"/>
</g>
</svg>
