<?xml version="1.0" standalone="no"?>
<!DOCTYPE svg PUBLIC "-//W3C//DTD SVG 20010904//EN"
 "http://www.w3.org/TR/2001/REC-SVG-20010904/DTD/svg10.dtd">
<svg version="1.0" xmlns="http://www.w3.org/2000/svg"
 width="90.000000pt" height="92.000000pt" viewBox="0 0 90.000000 92.000000"
 preserveAspectRatio="xMidYMid meet">
<metadata>
Created by potrace 1.16, written by Peter Selinger 2001-2019
</metadata>
<g transform="translate(0.000000,92.000000) scale(0.100000,-0.100000)"
fill="#000000" stroke="none">
<path d="M587 483 c3 -358 7 -443 22 -443 14 0 21 40 28 151 l6 107 45 6 c25
3 66 6 91 6 26 0 55 6 65 13 17 13 16 14 -13 27 -26 10 -45 10 -107 0 -41 -7
-77 -10 -80 -7 -3 3 -3 33 1 66 l7 61 51 0 c57 0 97 8 97 20 0 17 -49 28 -86
19 -63 -14 -64 -14 -64 45 l0 53 65 6 c78 7 91 13 73 34 -12 15 -60 14 -117
-3 l-24 -7 6 86 c6 91 3 100 -43 112 l-25 6 2 -358z"/>
<path d="M200 795 c0 -33 -59 -127 -118 -187 -25 -27 -42 -48 -37 -48 27 0
116 73 172 140 l62 74 -21 23 c-30 32 -58 30 -58 -2z"/>
<path d="M414 748 c3 -18 8 -51 12 -74 l6 -40 -56 -14 c-31 -7 -56 -17 -56
-21 0 -15 39 -20 75 -10 l35 9 0 -47 0 -47 -56 -15 c-66 -17 -67 -34 -1 -34
l47 1 0 -43 c0 -47 -3 -49 -122 -92 -50 -18 -51 -26 -6 -60 15 -11 24 -8 65
29 26 23 49 37 51 30 8 -22 -21 -109 -54 -164 -39 -65 -39 -66 -20 -66 23 0
72 64 94 122 28 74 42 175 51 373 9 185 7 195 -47 195 -22 0 -24 -3 -18 -32z"/>
<path d="M220 612 c0 -41 -64 -143 -141 -226 -44 -47 -78 -86 -74 -86 17 0 73
37 116 77 l48 45 7 -27 c8 -32 -2 -152 -17 -215 -10 -37 -9 -52 5 -84 12 -29
19 -37 28 -28 6 6 16 84 23 174 10 138 10 167 -2 186 -15 25 -15 25 40 101
l40 54 -27 24 c-33 28 -46 29 -46 5z"/>
</g>
</svg>
