<?xml version="1.0" standalone="no"?>
<!DOCTYPE svg PUBLIC "-//W3C//DTD SVG 20010904//EN"
 "http://www.w3.org/TR/2001/REC-SVG-20010904/DTD/svg10.dtd">
<svg version="1.0" xmlns="http://www.w3.org/2000/svg"
 width="96.000000pt" height="68.000000pt" viewBox="0 0 96.000000 68.000000"
 preserveAspectRatio="xMidYMid meet">
<metadata>
Created by potrace 1.16, written by Peter Selinger 2001-2019
</metadata>
<g transform="translate(0.000000,68.000000) scale(0.100000,-0.100000)"
fill="#000000" stroke="none">
<path d="M604 342 c-6 -4 -13 -15 -17 -24 -4 -13 -17 -18 -42 -18 -19 0 -35
-4 -35 -10 0 -5 18 -10 40 -10 27 0 40 -4 40 -14 0 -8 -16 -16 -40 -20 -59 -9
-52 -30 8 -23 26 4 80 9 120 13 91 8 97 28 7 22 -56 -3 -65 -2 -65 13 0 12 12
19 43 24 39 6 40 7 18 16 -14 5 -31 7 -38 5 -8 -3 -17 3 -21 14 -4 11 -12 16
-18 12z"/>
</g>
</svg>
