<?xml version="1.0" standalone="no"?>
<!DOCTYPE svg PUBLIC "-//W3C//DTD SVG 20010904//EN"
 "http://www.w3.org/TR/2001/REC-SVG-20010904/DTD/svg10.dtd">
<svg version="1.0" xmlns="http://www.w3.org/2000/svg"
 width="96.000000pt" height="68.000000pt" viewBox="0 0 96.000000 68.000000"
 preserveAspectRatio="xMidYMid meet">
<metadata>
Created by potrace 1.16, written by Peter Selinger 2001-2019
</metadata>
<g transform="translate(0.000000,68.000000) scale(0.100000,-0.100000)"
fill="#000000" stroke="none">
<path d="M426 631 c-3 -4 0 -22 6 -39 16 -41 5 -52 -63 -60 -79 -10 -76 -32 5
-32 l66 0 0 -29 0 -29 -82 -7 c-46 -4 -96 -9 -113 -11 -16 -1 -40 -3 -52 -3
-14 -1 -23 -7 -23 -16 0 -19 77 -20 181 -4 39 6 73 9 75 6 3 -3 -2 -12 -11
-21 -9 -9 -13 -16 -9 -16 8 0 -51 -40 -88 -59 -28 -14 -36 -35 -18 -46 5 -3
70 7 144 21 120 25 138 26 163 14 15 -8 31 -16 36 -18 4 -2 7 7 7 21 0 28 -33
54 -83 64 -32 6 -32 6 -14 -14 18 -21 18 -21 -20 -27 -103 -14 -153 -17 -153
-7 0 5 9 13 20 16 28 9 81 55 75 65 -6 10 45 17 179 24 54 3 101 8 104 11 3 2
-1 12 -9 21 -14 17 -69 16 -202 -2 l-49 -7 4 29 c3 27 7 30 68 40 36 7 67 12
70 13 3 1 -4 8 -14 16 -14 11 -34 13 -74 8 l-54 -6 3 38 c3 31 0 40 -16 46
-27 10 -53 11 -59 0z"/>
<path d="M610 254 c-41 -10 -319 -31 -347 -27 -32 5 -47 -10 -20 -20 14 -5 37
-71 37 -105 0 -20 -6 -21 -82 -24 -79 -3 -82 -4 -53 -16 24 -11 48 -12 125 -3
52 6 198 14 324 16 127 3 232 7 234 9 13 13 -52 28 -115 27 l-73 -2 12 28 c7
15 18 37 25 48 18 27 16 52 -4 58 -10 2 -25 7 -33 10 -8 2 -22 3 -30 1z m-3
-36 c7 -9 6 -31 -1 -63 l-11 -50 -48 -3 -47 -3 20 51 c11 28 18 55 15 60 -12
19 57 27 72 8z m-118 -58 l-2 -60 -32 0 c-31 0 -32 2 -38 51 -4 29 -4 56 -1
60 3 5 21 9 40 9 l35 0 -2 -60z m-105 -7 c22 -63 21 -63 -23 -63 -35 0 -39 2
-44 33 -4 17 -9 42 -13 55 -6 20 -3 22 29 22 33 0 36 -3 51 -47z"/>
</g>
</svg>
