<?xml version="1.0" standalone="no"?>
<!DOCTYPE svg PUBLIC "-//W3C//DTD SVG 20010904//EN"
 "http://www.w3.org/TR/2001/REC-SVG-20010904/DTD/svg10.dtd">
<svg version="1.0" xmlns="http://www.w3.org/2000/svg"
 width="90.000000pt" height="92.000000pt" viewBox="0 0 90.000000 92.000000"
 preserveAspectRatio="xMidYMid meet">
<metadata>
Created by potrace 1.16, written by Peter Selinger 2001-2019
</metadata>
<g transform="translate(0.000000,92.000000) scale(0.100000,-0.100000)"
fill="#000000" stroke="none">
<path d="M187 844 c-3 -3 -2 -17 3 -30 5 -13 12 -64 16 -115 8 -105 8 -105
-77 -115 -31 -3 -63 -10 -70 -15 -28 -18 13 -30 78 -24 l63 7 -13 -29 c-42
-95 -115 -205 -163 -249 -13 -12 -24 -24 -24 -28 0 -31 112 71 163 149 l39 60
-6 -109 c-4 -60 -11 -130 -17 -156 -8 -38 -7 -55 5 -84 8 -20 20 -36 26 -36
22 0 30 57 31 228 0 141 3 173 12 158 7 -10 25 -37 41 -59 29 -41 29 -41 40
-18 14 32 -9 70 -57 96 -31 17 -37 25 -37 52 0 33 3 35 67 48 41 8 51 24 27
42 -19 14 -29 13 -68 -3 -18 -7 -19 -3 -13 78 4 48 10 93 13 102 4 10 -5 22
-28 36 -36 22 -41 23 -51 14z"/>
<path d="M495 788 c4 -13 18 -43 31 -67 13 -24 24 -45 24 -47 0 -2 -27 -8
-142 -30 -36 -7 -36 -19 1 -32 21 -7 48 -5 107 9 43 10 118 22 166 25 96 7
115 24 57 48 -27 11 -40 11 -83 0 -67 -18 -64 -19 -64 21 0 40 -13 60 -53 81
-40 20 -52 18 -44 -8z"/>
<path d="M619 572 c15 -28 94 -92 112 -92 9 0 20 7 23 16 11 29 -21 62 -76 79
-66 19 -71 19 -59 -3z"/>
<path d="M442 536 c-7 -18 -28 -51 -48 -74 -19 -23 -32 -42 -27 -42 26 1 143
96 143 116 0 7 -13 16 -28 22 -27 9 -30 8 -40 -22z"/>
<path d="M592 435 c0 -24 -8 -65 -18 -90 l-17 -45 -58 55 c-31 30 -62 55 -68
55 -21 0 -11 -21 24 -51 19 -17 45 -45 57 -62 l22 -30 -47 -43 c-26 -23 -74
-53 -107 -66 -69 -26 -59 -45 15 -28 59 13 113 41 144 74 l24 25 41 -47 c75
-86 84 -92 138 -92 55 0 138 18 138 30 0 5 -33 18 -72 30 -82 25 -138 51 -185
87 l-33 24 24 47 c13 26 30 67 37 91 12 41 12 45 -10 62 -37 30 -48 24 -49
-26z"/>
</g>
</svg>
