<?xml version="1.0" standalone="no"?>
<!DOCTYPE svg PUBLIC "-//W3C//DTD SVG 20010904//EN"
 "http://www.w3.org/TR/2001/REC-SVG-20010904/DTD/svg10.dtd">
<svg version="1.0" xmlns="http://www.w3.org/2000/svg"
 width="90.000000pt" height="92.000000pt" viewBox="0 0 90.000000 92.000000"
 preserveAspectRatio="xMidYMid meet">
<metadata>
Created by potrace 1.16, written by Peter Selinger 2001-2019
</metadata>
<g transform="translate(0.000000,92.000000) scale(0.100000,-0.100000)"
fill="#000000" stroke="none">
<path d="M510 819 c0 -7 11 -31 25 -55 29 -49 29 -49 -68 -59 -37 -4 -69 -11
-72 -15 -3 -4 13 -15 34 -23 32 -13 42 -24 57 -64 9 -26 21 -53 26 -59 12 -16
-51 -27 -99 -18 -33 6 -35 5 -27 -12 5 -10 9 -99 9 -196 0 -119 4 -181 11
-188 7 -7 14 -8 17 -3 3 5 9 85 12 178 4 94 10 173 14 177 3 4 30 10 59 14
l52 7 0 -41 c0 -40 0 -40 -45 -47 -51 -7 -52 -25 -1 -25 41 0 43 -2 38 -45 -4
-33 -6 -35 -43 -35 l-38 0 15 -27 c7 -16 14 -36 14 -46 0 -27 19 -57 33 -52 6
2 38 9 70 15 31 6 55 15 52 20 -2 4 7 24 21 45 24 35 24 38 7 51 -12 10 -32
13 -62 9 -41 -5 -43 -4 -37 18 3 12 6 29 6 38 0 11 16 18 52 25 53 9 73 28 41
38 -10 3 -33 2 -50 -3 l-32 -9 2 36 c2 44 13 50 90 51 l57 1 0 -167 c0 -212
-1 -216 -51 -211 -22 2 -39 1 -39 -2 2 -15 89 -92 99 -86 33 21 39 62 42 275
l3 214 -24 19 c-23 16 -29 17 -80 3 -30 -8 -55 -13 -56 -12 -2 1 12 27 31 57
23 37 31 58 24 66 -13 16 11 24 67 24 52 0 56 13 13 35 -25 13 -39 14 -80 6
-80 -17 -89 -15 -89 19 0 22 -7 33 -27 43 -47 24 -73 30 -73 16z m126 -144 c6
-15 -11 -101 -24 -121 -4 -6 -23 -14 -42 -18 l-36 -6 4 38 c3 34 -1 42 -31 69
l-35 31 66 10 c37 5 73 10 80 11 7 0 15 -6 18 -14z m-4 -404 c-3 -22 -12 -32
-35 -40 -40 -15 -67 -14 -67 2 0 6 -3 22 -6 34 -5 19 -1 22 33 26 84 8 80 10
75 -22z"/>
<path d="M150 773 c0 -5 14 -30 30 -58 16 -27 30 -53 30 -56 0 -4 -43 -12 -95
-19 -52 -7 -95 -17 -95 -22 0 -5 15 -15 33 -23 28 -12 43 -11 115 6 45 11 108
23 140 27 41 5 57 11 57 22 0 12 -13 15 -56 15 -51 0 -55 1 -51 21 2 12 -1 32
-8 44 -15 29 -100 65 -100 43z"/>
<path d="M178 532 c-32 -9 -58 -20 -58 -24 0 -17 52 -19 115 -5 75 17 86 24
65 37 -20 13 -54 10 -122 -8z"/>
<path d="M178 436 c-100 -23 -40 -47 67 -26 71 14 82 19 64 31 -18 11 -72 9
-131 -5z"/>
<path d="M245 343 c-19 -11 -54 -17 -92 -18 -35 0 -63 -4 -63 -8 0 -4 6 -18
14 -30 8 -12 19 -48 26 -79 11 -57 26 -80 39 -60 3 6 35 16 71 22 64 11 65 12
66 43 0 18 8 48 17 66 22 45 22 48 -13 66 -35 18 -28 18 -65 -2z m25 -45 c0
-7 -3 -30 -6 -50 -6 -34 -11 -39 -46 -49 -22 -6 -41 -9 -43 -7 -1 2 -5 24 -8
50 -6 47 -6 48 26 57 46 13 77 13 77 -1z"/>
</g>
</svg>
