<?xml version="1.0" standalone="no"?>
<!DOCTYPE svg PUBLIC "-//W3C//DTD SVG 20010904//EN"
 "http://www.w3.org/TR/2001/REC-SVG-20010904/DTD/svg10.dtd">
<svg version="1.0" xmlns="http://www.w3.org/2000/svg"
 width="96.000000pt" height="68.000000pt" viewBox="0 0 96.000000 68.000000"
 preserveAspectRatio="xMidYMid meet">
<metadata>
Created by potrace 1.16, written by Peter Selinger 2001-2019
</metadata>
<g transform="translate(0.000000,68.000000) scale(0.100000,-0.100000)"
fill="#000000" stroke="none">
<path d="M703 383 c-37 -7 -26 -23 11 -18 20 3 38 0 42 -7 9 -14 7 -265 -2
-279 -3 -6 -16 -8 -27 -5 -19 5 -18 3 5 -21 31 -30 52 -23 44 16 -5 17 -4 21
2 12 16 -23 20 1 20 122 0 65 2 121 6 124 18 18 3 41 -33 51 -21 7 -40 11 -42
11 -2 -1 -14 -4 -26 -6z m84 -240 c-3 -10 -5 -4 -5 12 0 17 2 24 5 18 2 -7 2
-21 0 -30z"/>
<path d="M638 363 c6 -2 18 -2 25 0 6 3 1 5 -13 5 -14 0 -19 -2 -12 -5z"/>
<path d="M448 338 c10 -28 9 -175 -2 -205 -4 -14 -3 -23 3 -23 14 0 22 36 24
109 1 35 -2 61 -8 61 -5 0 -4 4 4 9 8 5 10 14 6 21 -4 7 -2 16 6 21 16 9 12
14 -19 23 -20 7 -21 5 -14 -16z"/>
<path d="M530 349 c0 -5 5 -7 10 -4 6 3 10 8 10 11 0 2 -4 4 -10 4 -5 0 -10
-5 -10 -11z"/>
</g>
</svg>
