<?xml version="1.0" standalone="no"?>
<!DOCTYPE svg PUBLIC "-//W3C//DTD SVG 20010904//EN"
 "http://www.w3.org/TR/2001/REC-SVG-20010904/DTD/svg10.dtd">
<svg version="1.0" xmlns="http://www.w3.org/2000/svg"
 width="96.000000pt" height="68.000000pt" viewBox="0 0 96.000000 68.000000"
 preserveAspectRatio="xMidYMid meet">
<metadata>
Created by potrace 1.16, written by Peter Selinger 2001-2019
</metadata>
<g transform="translate(0.000000,68.000000) scale(0.100000,-0.100000)"
fill="#000000" stroke="none">
<path d="M350 575 c0 -21 69 -87 88 -83 10 2 18 15 20 30 3 22 -3 32 -30 48
-39 24 -78 26 -78 5z"/>
<path d="M620 506 c-3 -2 -88 -14 -190 -25 -267 -31 -263 -30 -248 -48 10 -13
28 -14 101 -9 85 7 88 6 78 -12 -6 -11 -33 -40 -61 -65 -36 -32 -48 -50 -44
-62 6 -14 15 -16 45 -11 31 5 39 3 39 -9 0 -35 -53 -104 -124 -162 -82 -67
-81 -79 1 -38 42 21 107 81 141 130 32 46 39 63 32 76 -11 17 6 29 43 29 l27
0 0 -105 c0 -121 8 -135 82 -156 57 -15 202 -5 235 16 36 24 37 38 9 97 -21
45 -25 49 -25 26 -1 -40 -20 -74 -48 -89 -34 -18 -175 -18 -197 0 -20 17 -21
77 -2 150 12 46 12 53 -1 58 -12 5 -12 7 -1 14 21 14 48 10 78 -11 30 -22 40
-18 40 16 0 27 -50 69 -94 80 l-30 7 22 -28 c12 -15 20 -30 17 -33 -7 -7 -165
-32 -205 -32 l-35 1 31 27 c17 15 46 38 63 51 17 13 31 29 31 37 0 8 1 14 3
14 1 1 62 5 135 9 73 5 136 12 140 15 10 10 -21 34 -53 40 -17 4 -33 5 -35 2z"/>
</g>
</svg>
