<?xml version="1.0" standalone="no"?>
<!DOCTYPE svg PUBLIC "-//W3C//DTD SVG 20010904//EN"
 "http://www.w3.org/TR/2001/REC-SVG-20010904/DTD/svg10.dtd">
<svg version="1.0" xmlns="http://www.w3.org/2000/svg"
 width="96.000000pt" height="68.000000pt" viewBox="0 0 96.000000 68.000000"
 preserveAspectRatio="xMidYMid meet">
<metadata>
Created by potrace 1.16, written by Peter Selinger 2001-2019
</metadata>
<g transform="translate(0.000000,68.000000) scale(0.100000,-0.100000)"
fill="#000000" stroke="none">
<path d="M365 421 c-7 -22 -99 -111 -115 -111 -7 0 -7 -6 1 -21 9 -17 17 -20
42 -16 267 48 267 48 294 27 29 -22 43 -18 43 12 0 27 -49 71 -94 85 l-35 11
25 -33 25 -33 -53 -11 c-69 -13 -188 -25 -188 -18 0 3 29 29 65 57 36 28 63
56 59 61 -10 17 -62 10 -69 -10z"/>
</g>
</svg>
