<?xml version="1.0" standalone="no"?>
<!DOCTYPE svg PUBLIC "-//W3C//DTD SVG 20010904//EN"
 "http://www.w3.org/TR/2001/REC-SVG-20010904/DTD/svg10.dtd">
<svg version="1.0" xmlns="http://www.w3.org/2000/svg"
 width="96.000000pt" height="68.000000pt" viewBox="0 0 96.000000 68.000000"
 preserveAspectRatio="xMidYMid meet">
<metadata>
Created by potrace 1.16, written by Peter Selinger 2001-2019
</metadata>
<g transform="translate(0.000000,68.000000) scale(0.100000,-0.100000)"
fill="#000000" stroke="none">
<path d="M473 303 c-9 -3 -13 -35 -13 -109 0 -120 8 -135 82 -155 84 -23 249
5 264 45 2 6 -5 34 -18 62 l-22 49 -6 -30 c-11 -51 -28 -73 -66 -85 -44 -15
-157 -8 -179 10 -18 15 -20 79 -3 150 10 43 9 53 -3 61 -15 10 -18 10 -36 2z"/>
</g>
</svg>
