<?xml version="1.0" standalone="no"?>
<!DOCTYPE svg PUBLIC "-//W3C//DTD SVG 20010904//EN"
 "http://www.w3.org/TR/2001/REC-SVG-20010904/DTD/svg10.dtd">
<svg version="1.0" xmlns="http://www.w3.org/2000/svg"
 width="96.000000pt" height="68.000000pt" viewBox="0 0 96.000000 68.000000"
 preserveAspectRatio="xMidYMid meet">
<metadata>
Created by potrace 1.16, written by Peter Selinger 2001-2019
</metadata>
<g transform="translate(0.000000,68.000000) scale(0.100000,-0.100000)"
fill="#000000" stroke="none">
<path d="M284 563 c3 -16 8 -57 12 -92 7 -68 0 -81 -42 -81 -11 0 -29 -7 -40
-16 -18 -14 -16 -15 29 -11 26 3 50 0 53 -5 3 -5 3 -27 -1 -48 -6 -38 -10 -41
-82 -75 -41 -19 -81 -35 -89 -35 -17 0 -18 -12 -2 -28 20 -20 46 -14 103 25
31 20 58 33 62 30 3 -4 1 -38 -6 -77 -9 -55 -8 -76 2 -101 12 -30 14 -31 30
-15 14 14 17 37 17 124 l0 107 36 25 c20 13 31 26 24 28 -6 2 -17 -1 -23 -7
-23 -23 -38 -12 -35 26 3 34 6 38 41 46 20 5 37 13 37 18 0 12 -46 22 -61 13
-9 -5 -11 12 -6 75 4 72 3 82 -13 91 -35 19 -52 13 -46 -17z"/>
</g>
</svg>
