<?xml version="1.0" standalone="no"?>
<!DOCTYPE svg PUBLIC "-//W3C//DTD SVG 20010904//EN"
 "http://www.w3.org/TR/2001/REC-SVG-20010904/DTD/svg10.dtd">
<svg version="1.0" xmlns="http://www.w3.org/2000/svg"
 width="96.000000pt" height="68.000000pt" viewBox="0 0 96.000000 68.000000"
 preserveAspectRatio="xMidYMid meet">
<metadata>
Created by potrace 1.16, written by Peter Selinger 2001-2019
</metadata>
<g transform="translate(0.000000,68.000000) scale(0.100000,-0.100000)"
fill="#000000" stroke="none">
<path d="M255 384 c-38 -7 -87 -13 -108 -13 -36 -1 -37 -2 -26 -23 8 -15 9
-51 5 -117 -10 -132 -10 -141 3 -154 9 -9 14 -9 19 0 4 6 47 15 96 19 86 7 89
6 107 -17 33 -44 43 -13 49 149 6 189 9 186 -145 156z m100 -138 l0 -118 -97
-4 -98 -5 1 115 2 115 41 10 c22 5 66 9 96 8 l55 -2 0 -119z"/>
</g>
</svg>
