<?xml version="1.0" standalone="no"?>
<!DOCTYPE svg PUBLIC "-//W3C//DTD SVG 20010904//EN"
 "http://www.w3.org/TR/2001/REC-SVG-20010904/DTD/svg10.dtd">
<svg version="1.0" xmlns="http://www.w3.org/2000/svg"
 width="96.000000pt" height="68.000000pt" viewBox="0 0 96.000000 68.000000"
 preserveAspectRatio="xMidYMid meet">
<metadata>
Created by potrace 1.16, written by Peter Selinger 2001-2019
</metadata>
<g transform="translate(0.000000,68.000000) scale(0.100000,-0.100000)"
fill="#000000" stroke="none">
<path d="M584 543 c3 -10 6 -49 7 -88 l3 -70 -37 -3 c-39 -3 -47 7 -22 28 22
18 18 48 -6 55 -24 8 -32 2 -36 -26 -2 -12 -14 -44 -28 -72 -26 -55 -24 -75 4
-41 13 16 31 23 69 25 56 4 60 1 54 -42 -4 -27 -6 -28 -83 -35 -74 -6 -96 -15
-66 -27 8 -3 67 1 133 9 65 7 149 16 187 20 37 3 67 9 67 14 0 16 -59 21 -116
11 -78 -15 -76 -16 -72 27 3 37 3 37 56 43 29 4 56 10 60 14 14 14 -26 24 -72
18 l-49 -6 7 73 c8 79 3 90 -42 90 -18 0 -22 -4 -18 -17z"/>
<path d="M255 505 c-38 -8 -85 -14 -103 -14 -47 -1 -36 -25 15 -31 39 -5 39
-6 39 -45 -1 -39 -2 -40 -42 -43 l-40 -3 4 -87 c2 -48 0 -105 -6 -127 -11 -51
1 -93 22 -76 8 7 53 15 101 18 82 6 89 5 104 -16 16 -21 17 -21 33 -4 14 15
17 43 18 153 1 74 -1 143 -5 153 -5 12 -19 17 -51 17 -46 0 -49 5 -38 48 5 17
16 24 48 29 22 4 45 6 49 5 5 -1 7 5 5 15 -4 23 -58 26 -153 8z m13 -82 c-4
-52 -28 -56 -28 -4 0 30 4 41 16 41 11 0 14 -9 12 -37z m2 -95 c0 -50 22 -78
62 -78 28 0 28 0 28 -62 l0 -63 -100 -2 -100 -3 0 53 c0 44 4 56 29 79 16 16
33 46 40 73 15 60 41 62 41 3z m90 -7 c0 -50 -1 -51 -52 -42 -5 0 -8 21 -8 46
0 43 1 45 30 45 29 0 30 -1 30 -49z m-156 12 c-21 -87 -44 -105 -44 -34 0 48
7 58 38 60 9 1 10 -7 6 -26z"/>
<path d="M232 190 c-47 -11 -51 -20 -10 -20 49 0 98 11 98 21 0 11 -42 10 -88
-1z"/>
<path d="M610 200 c-30 -4 -75 -5 -99 -4 -41 3 -43 2 -28 -14 8 -9 21 -39 29
-67 l14 -50 69 3 c137 6 138 6 158 69 16 46 17 57 5 64 -15 10 -67 9 -148 -1z
m97 -51 c-3 -22 -7 -42 -9 -45 -2 -2 -35 -6 -74 -10 l-69 -6 -13 37 c-8 20
-11 39 -9 42 7 6 99 20 146 22 l34 1 -6 -41z"/>
</g>
</svg>
