<?xml version="1.0" standalone="no"?>
<!DOCTYPE svg PUBLIC "-//W3C//DTD SVG 20010904//EN"
 "http://www.w3.org/TR/2001/REC-SVG-20010904/DTD/svg10.dtd">
<svg version="1.0" xmlns="http://www.w3.org/2000/svg"
 width="96.000000pt" height="68.000000pt" viewBox="0 0 96.000000 68.000000"
 preserveAspectRatio="xMidYMid meet">
<metadata>
Created by potrace 1.16, written by Peter Selinger 2001-2019
</metadata>
<g transform="translate(0.000000,68.000000) scale(0.100000,-0.100000)"
fill="#000000" stroke="none">
<path d="M721 201 c-9 -6 -10 -11 -2 -15 6 -4 11 -12 11 -17 0 -6 -4 -8 -9 -4
-6 3 -9 -11 -8 -33 2 -39 2 -39 -33 -37 -19 1 -44 -1 -55 -6 -13 -6 3 -8 47
-7 48 1 65 4 61 14 -2 6 0 15 6 19 6 3 11 12 11 18 0 7 -4 6 -10 -3 -8 -13
-10 -12 -10 3 0 9 7 17 15 17 18 0 20 16 3 23 -8 3 -5 6 6 6 15 1 16 4 6 16
-14 17 -20 18 -39 6z"/>
<path d="M585 190 l-30 -8 27 -1 c15 0 30 4 33 9 3 6 5 9 3 9 -2 -1 -16 -5
-33 -9z"/>
<path d="M505 159 c19 -36 29 -33 19 5 -3 14 -13 26 -20 26 -12 0 -12 -5 1
-31z"/>
<path d="M520 102 c0 -24 25 -48 35 -32 3 5 1 10 -4 10 -6 0 -11 6 -11 14 0 8
-4 18 -10 21 -5 3 -10 -3 -10 -13z"/>
</g>
</svg>
