<?xml version="1.0" standalone="no"?>
<!DOCTYPE svg PUBLIC "-//W3C//DTD SVG 20010904//EN"
 "http://www.w3.org/TR/2001/REC-SVG-20010904/DTD/svg10.dtd">
<svg version="1.0" xmlns="http://www.w3.org/2000/svg"
 width="96.000000pt" height="68.000000pt" viewBox="0 0 96.000000 68.000000"
 preserveAspectRatio="xMidYMid meet">
<metadata>
Created by potrace 1.16, written by Peter Selinger 2001-2019
</metadata>
<g transform="translate(0.000000,68.000000) scale(0.100000,-0.100000)"
fill="#000000" stroke="none">
<path d="M464 302 c-7 -4 -13 -16 -15 -27 -4 -16 -14 -21 -61 -25 -80 -7 -84
-20 -5 -20 65 0 67 -1 67 -25 0 -14 -1 -25 -2 -25 -2 0 -48 -3 -103 -6 -103
-7 -113 -9 -101 -21 9 -9 33 -9 294 2 184 7 202 10 187 24 -12 12 -34 15 -108
13 -50 -2 -100 -5 -109 -8 -14 -4 -18 1 -18 20 0 27 7 31 89 41 24 2 46 7 48
9 10 10 -43 17 -83 11 -42 -6 -44 -5 -44 19 0 26 -14 33 -36 18z"/>
</g>
</svg>
