<?xml version="1.0" standalone="no"?>
<!DOCTYPE svg PUBLIC "-//W3C//DTD SVG 20010904//EN"
 "http://www.w3.org/TR/2001/REC-SVG-20010904/DTD/svg10.dtd">
<svg version="1.0" xmlns="http://www.w3.org/2000/svg"
 width="96.000000pt" height="68.000000pt" viewBox="0 0 96.000000 68.000000"
 preserveAspectRatio="xMidYMid meet">
<metadata>
Created by potrace 1.16, written by Peter Selinger 2001-2019
</metadata>
<g transform="translate(0.000000,68.000000) scale(0.100000,-0.100000)"
fill="#000000" stroke="none">
<path d="M705 486 c-5 -3 -23 -8 -40 -12 -29 -8 -29 -8 15 -13 40 -5 45 -9 45
-31 0 -20 -7 -27 -32 -35 -42 -12 -42 -25 -2 -25 26 0 30 -3 27 -22 -2 -15
-14 -25 -38 -32 l-35 -10 33 -4 c28 -3 32 -7 32 -33 0 -21 5 -29 18 -29 14 0
21 20 40 117 12 64 20 118 18 120 -6 6 -70 13 -81 9z"/>
<path d="M370 458 c0 -2 9 -55 20 -118 11 -63 20 -116 20 -117 0 -2 7 -3 15
-3 10 0 15 10 15 30 0 25 4 30 35 36 50 9 45 27 -5 19 -38 -6 -40 -5 -40 19 0
21 6 26 35 32 19 3 35 11 35 16 0 6 -14 8 -35 4 -31 -6 -35 -4 -41 18 -3 14
-3 29 0 35 4 5 -2 15 -13 20 -18 10 -41 15 -41 9z"/>
</g>
</svg>
