<?xml version="1.0" standalone="no"?>
<!DOCTYPE svg PUBLIC "-//W3C//DTD SVG 20010904//EN"
 "http://www.w3.org/TR/2001/REC-SVG-20010904/DTD/svg10.dtd">
<svg version="1.0" xmlns="http://www.w3.org/2000/svg"
 width="96.000000pt" height="68.000000pt" viewBox="0 0 96.000000 68.000000"
 preserveAspectRatio="xMidYMid meet">
<metadata>
Created by potrace 1.16, written by Peter Selinger 2001-2019
</metadata>
<g transform="translate(0.000000,68.000000) scale(0.100000,-0.100000)"
fill="#000000" stroke="none">
<path d="M393 593 c-11 -21 -48 -62 -82 -90 -70 -60 -57 -70 25 -18 37 24 71
37 109 41 30 4 55 3 55 -1 0 -4 -14 -25 -31 -46 -24 -31 -27 -39 -14 -39 16 0
137 93 143 111 8 21 -50 29 -101 14 -65 -19 -74 -19 -54 3 21 23 21 27 1 46
-23 23 -30 20 -51 -21z"/>
</g>
</svg>
