<?xml version="1.0" standalone="no"?>
<!DOCTYPE svg PUBLIC "-//W3C//DTD SVG 20010904//EN"
 "http://www.w3.org/TR/2001/REC-SVG-20010904/DTD/svg10.dtd">
<svg version="1.0" xmlns="http://www.w3.org/2000/svg"
 width="96.000000pt" height="68.000000pt" viewBox="0 0 96.000000 68.000000"
 preserveAspectRatio="xMidYMid meet">
<metadata>
Created by potrace 1.16, written by Peter Selinger 2001-2019
</metadata>
<g transform="translate(0.000000,68.000000) scale(0.100000,-0.100000)"
fill="#000000" stroke="none">
<path d="M638 602 c-1 -4 -2 -22 -2 -41 -1 -36 -26 -58 -26 -23 0 22 -29 39
-34 19 -2 -6 -8 -27 -14 -46 -11 -32 -10 -33 7 -17 26 24 71 21 71 -4 0 -14
-7 -20 -22 -20 -13 0 -30 -5 -38 -10 -12 -8 -11 -10 8 -10 26 0 27 -8 6 -38
-9 -13 -13 -26 -10 -29 10 -10 56 39 56 59 0 10 5 18 10 18 6 0 10 -13 10 -29
0 -41 24 -61 73 -61 56 0 70 10 61 43 -7 29 -24 37 -24 12 0 -18 -36 -34 -62
-27 -13 3 -18 14 -18 38 0 31 2 34 31 34 19 0 28 4 23 11 -4 7 -21 9 -40 6
-29 -5 -34 -3 -34 14 0 12 7 19 19 19 11 0 23 5 26 10 3 6 -5 10 -19 10 -23 0
-25 3 -20 29 5 23 2 29 -15 34 -12 3 -22 2 -23 -1z"/>
<path d="M243 517 l2 -62 -39 -5 c-58 -7 -59 -30 -1 -30 45 0 46 -1 43 -27 -3
-27 -6 -28 -86 -40 -90 -12 -105 -18 -82 -34 14 -10 96 -6 152 7 l26 6 4 -72
c1 -39 1 -73 0 -75 -2 -2 -15 1 -29 8 -15 7 -22 17 -19 26 19 60 19 61 -5 70
-31 11 -39 6 -39 -27 0 -34 -31 -100 -59 -129 -19 -20 -19 -23 -5 -23 9 0 34
18 55 41 l37 40 74 -34 c40 -19 83 -38 96 -42 13 -4 54 -21 90 -39 101 -50
150 -60 245 -52 76 7 167 23 140 25 -37 3 -246 33 -296 43 -68 13 -77 21 -38
38 41 17 69 49 52 59 -8 5 5 10 35 14 27 3 55 0 65 -6 10 -6 20 -9 23 -7 7 8
10 156 3 168 -7 10 -23 10 -142 -3 l-70 -7 1 -72 c1 -101 1 -98 24 -86 32 17
25 -11 -10 -45 l-30 -29 -77 24 c-43 14 -80 28 -84 32 -3 4 -3 24 -1 43 4 30
8 35 31 35 37 0 71 11 71 22 0 5 -22 6 -50 2 l-50 -7 2 37 c3 38 -2 36 92 51
32 5 76 41 76 62 0 7 5 13 10 13 7 0 8 -13 4 -35 -7 -40 11 -48 39 -17 21 23
22 33 2 26 -11 -5 -15 1 -15 20 0 17 5 26 16 26 8 0 13 4 9 10 -3 5 -12 7 -20
3 -10 -3 -15 1 -15 11 0 9 10 21 23 26 l22 9 -22 0 c-19 1 -23 7 -23 36 0 24
-5 35 -15 35 -11 0 -15 -11 -15 -40 0 -29 -4 -40 -15 -40 -9 0 -12 6 -9 15 4
10 0 15 -15 15 -12 0 -20 -3 -19 -7 1 -5 -3 -19 -9 -33 -10 -23 -15 -25 -58
-22 l-47 4 6 44 c6 46 5 48 -36 58 l-26 6 1 -63z m227 -47 c0 -15 -7 -20 -29
-20 -37 0 -50 -18 -16 -22 l25 -3 -22 -35 c-12 -20 -23 -30 -25 -22 -3 7 -23
12 -54 12 -45 0 -49 2 -49 25 0 20 6 25 38 31 20 4 48 15 62 24 14 10 34 20
45 23 11 2 21 5 23 6 1 0 2 -8 2 -19z m180 -139 c0 -5 -25 -12 -57 -16 -31 -4
-62 -9 -70 -12 -7 -3 -13 1 -13 10 0 9 8 18 18 20 32 9 122 7 122 -2z m0 -40
c0 -12 -20 -18 -87 -26 -44 -6 -53 -4 -53 8 0 11 12 17 38 20 73 7 102 7 102
-2z m0 -45 c0 -14 -49 -26 -112 -26 -59 0 -44 16 25 27 88 14 87 14 87 -1z"/>
<path d="M645 146 c45 -40 65 -45 65 -16 0 22 -19 35 -70 45 l-35 7 40 -36z"/>
</g>
</svg>
