<?xml version="1.0" standalone="no"?>
<!DOCTYPE svg PUBLIC "-//W3C//DTD SVG 20010904//EN"
 "http://www.w3.org/TR/2001/REC-SVG-20010904/DTD/svg10.dtd">
<svg version="1.0" xmlns="http://www.w3.org/2000/svg"
 width="96.000000pt" height="68.000000pt" viewBox="0 0 96.000000 68.000000"
 preserveAspectRatio="xMidYMid meet">
<metadata>
Created by potrace 1.16, written by Peter Selinger 2001-2019
</metadata>
<g transform="translate(0.000000,68.000000) scale(0.100000,-0.100000)"
fill="#000000" stroke="none">
<path d="M650 403 c-41 -7 -95 -12 -120 -11 l-45 3 -1 -100 c-1 -65 -7 -115
-17 -143 -12 -30 -14 -50 -7 -67 18 -47 36 -31 54 49 l11 51 80 7 c44 4 90 10
103 13 22 5 23 4 20 -52 -3 -57 -4 -58 -31 -56 -29 2 -29 -3 7 -44 11 -13 25
-23 32 -23 31 0 39 34 44 179 3 80 9 154 14 163 6 13 0 20 -23 32 -16 9 -34
15 -38 15 -4 -1 -42 -8 -83 -16z m80 -51 c0 -27 -2 -28 -78 -40 -119 -19 -124
-18 -120 21 3 29 7 33 43 38 22 3 66 7 98 8 56 1 57 1 57 -27z m0 -86 l0 -33
-62 -6 c-35 -4 -80 -10 -100 -13 -37 -6 -38 -6 -38 23 l0 30 98 15 c53 9 98
16 100 17 1 0 2 -14 2 -33z"/>
</g>
</svg>
