<?xml version="1.0" standalone="no"?>
<!DOCTYPE svg PUBLIC "-//W3C//DTD SVG 20010904//EN"
 "http://www.w3.org/TR/2001/REC-SVG-20010904/DTD/svg10.dtd">
<svg version="1.0" xmlns="http://www.w3.org/2000/svg"
 width="96.000000pt" height="68.000000pt" viewBox="0 0 96.000000 68.000000"
 preserveAspectRatio="xMidYMid meet">
<metadata>
Created by potrace 1.16, written by Peter Selinger 2001-2019
</metadata>
<g transform="translate(0.000000,68.000000) scale(0.100000,-0.100000)"
fill="#000000" stroke="none">
<path d="M558 84 c4 -35 3 -37 -21 -30 l-26 6 25 -26 c33 -32 54 -25 56 21 0
19 1 41 2 48 1 6 -8 13 -20 15 -18 3 -20 -1 -16 -34z"/>
<path d="M432 60 c-31 -41 4 -37 58 7 4 4 -20 23 -31 23 -3 0 -15 -13 -27 -30z"/>
<path d="M660 62 c36 -32 55 -39 65 -23 6 11 -21 41 -38 41 -7 0 -23 3 -37 6
-23 6 -22 4 10 -24z"/>
</g>
</svg>
