<?xml version="1.0" standalone="no"?>
<!DOCTYPE svg PUBLIC "-//W3C//DTD SVG 20010904//EN"
 "http://www.w3.org/TR/2001/REC-SVG-20010904/DTD/svg10.dtd">
<svg version="1.0" xmlns="http://www.w3.org/2000/svg"
 width="90.000000pt" height="92.000000pt" viewBox="0 0 90.000000 92.000000"
 preserveAspectRatio="xMidYMid meet">
<metadata>
Created by potrace 1.16, written by Peter Selinger 2001-2019
</metadata>
<g transform="translate(0.000000,92.000000) scale(0.100000,-0.100000)"
fill="#000000" stroke="none">
<path d="M657 840 c-10 -27 -29 -63 -43 -79 -20 -24 -23 -34 -15 -50 10 -18
13 -19 42 -4 45 23 45 10 0 -38 -45 -46 -47 -52 -28 -67 9 -8 28 -3 72 19 53
26 61 28 71 14 17 -23 34 -18 34 9 0 14 -10 32 -22 40 -29 21 -37 20 -31 -2 3
-14 -4 -21 -33 -30 -21 -6 -40 -9 -42 -7 -2 2 21 31 52 63 31 32 56 63 56 68
0 5 -7 17 -15 28 -13 18 -15 17 -31 -17 -16 -32 -37 -47 -72 -47 -9 0 0 20 22
50 39 54 43 69 24 88 -19 19 -22 15 -41 -38z"/>
<path d="M460 875 c0 -4 7 -20 16 -37 18 -35 12 -45 -31 -50 -16 -2 -30 -7
-30 -13 0 -16 55 -17 117 -3 64 15 78 32 31 36 -24 2 -33 8 -33 21 0 22 -31
51 -53 51 -9 0 -17 -2 -17 -5z"/>
<path d="M290 815 c-7 -25 -25 -63 -41 -84 -23 -33 -26 -42 -15 -56 11 -15 16
-16 35 -5 13 6 24 10 27 8 5 -6 -48 -78 -58 -78 -13 0 -9 -26 6 -39 11 -9 25
-5 65 20 49 31 52 31 65 14 14 -19 36 -13 36 11 0 16 -35 54 -50 54 -5 0 -7
-7 -4 -15 4 -10 -4 -20 -27 -29 -19 -8 -36 -13 -38 -10 -2 2 22 33 53 69 46
55 54 70 46 85 -17 33 -28 31 -40 -5 -12 -36 -40 -59 -66 -53 -11 2 -6 16 21
58 38 59 41 70 23 88 -19 19 -25 15 -38 -33z"/>
<path d="M90 813 c1 -22 72 -103 90 -103 50 0 31 72 -25 96 -38 15 -65 18 -65
7z"/>
<path d="M493 727 c-58 -16 -64 -27 -15 -27 49 0 96 16 87 30 -7 12 -17 12
-72 -3z"/>
<path d="M483 668 c-65 -14 -55 -32 13 -24 63 7 77 13 69 27 -7 11 -25 10 -82
-3z"/>
<path d="M500 609 c-13 -6 -35 -7 -48 -4 -20 5 -22 3 -16 -22 17 -67 21 -78
27 -75 4 1 30 2 59 2 39 0 49 3 41 11 -9 9 -8 19 3 41 27 52 -2 72 -66 47z
m30 -44 c0 -15 -6 -25 -14 -25 -8 0 -21 -3 -30 -6 -12 -5 -16 0 -16 19 0 26
11 35 43 36 12 1 17 -7 17 -24z"/>
<path d="M40 604 c0 -15 65 -94 83 -100 53 -17 46 63 -9 89 -34 17 -74 23 -74
11z"/>
<path d="M750 603 c0 -5 9 -23 20 -40 21 -35 50 -44 50 -15 0 23 -10 37 -37
51 -25 13 -33 14 -33 4z"/>
<path d="M690 550 c12 -23 25 -38 30 -35 17 11 11 54 -9 65 -36 19 -42 11 -21
-30z"/>
<path d="M617 538 c20 -34 36 -41 41 -16 4 19 -24 48 -45 48 -13 0 -12 -5 4
-32z"/>
<path d="M350 549 c0 -20 21 -49 35 -49 22 0 18 38 -4 50 -25 13 -31 13 -31
-1z"/>
<path d="M280 529 c0 -5 7 -24 16 -40 22 -44 43 -32 35 19 -2 13 -51 34 -51
21z"/>
<path d="M222 478 c14 -41 28 -59 39 -52 16 9 10 43 -11 64 -30 30 -41 25 -28
-12z"/>
<path d="M505 469 c-44 -9 -95 -18 -112 -18 -35 -1 -44 -15 -17 -25 8 -3 60 1
115 9 54 8 101 15 104 15 3 0 5 -9 5 -20 0 -28 -28 -37 -157 -51 -59 -7 -110
-14 -112 -15 -1 -1 4 -12 12 -24 16 -23 12 -64 -9 -81 -17 -14 -18 -31 -3 -46
9 -9 21 -5 48 13 28 18 59 26 128 33 50 5 100 7 111 4 39 -10 37 -85 -4 -124
-23 -22 -28 -22 -109 -3 l-30 7 26 -29 c15 -16 34 -41 44 -57 20 -32 40 -30
92 10 25 18 37 38 48 81 9 31 22 70 30 85 18 34 14 42 -26 63 -27 14 -41 14
-142 0 -136 -19 -144 -20 -150 -2 -13 33 16 45 136 58 95 9 117 15 112 26 -3
8 4 29 15 47 l20 33 -25 16 c-29 19 -45 19 -150 -5z"/>
<path d="M162 406 c-29 -61 -90 -144 -114 -157 -16 -9 -19 -18 -15 -46 7 -40
34 -86 46 -78 5 2 12 17 15 32 4 16 26 78 50 138 24 61 47 120 51 133 11 38
-10 24 -33 -22z"/>
</g>
</svg>
