<?xml version="1.0" standalone="no"?>
<!DOCTYPE svg PUBLIC "-//W3C//DTD SVG 20010904//EN"
 "http://www.w3.org/TR/2001/REC-SVG-20010904/DTD/svg10.dtd">
<svg version="1.0" xmlns="http://www.w3.org/2000/svg"
 width="90.000000pt" height="92.000000pt" viewBox="0 0 90.000000 92.000000"
 preserveAspectRatio="xMidYMid meet">
<metadata>
Created by potrace 1.16, written by Peter Selinger 2001-2019
</metadata>
<g transform="translate(0.000000,92.000000) scale(0.100000,-0.100000)"
fill="#000000" stroke="none">
<path d="M154 813 c4 -16 9 -69 13 -119 l6 -91 -58 -11 c-32 -7 -69 -12 -83
-12 -14 0 -22 -5 -19 -12 3 -9 28 -13 80 -13 l77 1 0 -56 0 -55 -85 -58 c-84
-57 -99 -79 -73 -105 21 -21 35 -14 91 45 31 32 57 56 60 53 7 -9 -10 -201
-19 -210 -6 -6 -23 -6 -44 0 -18 5 -35 9 -36 7 -1 -1 20 -27 47 -57 l49 -54
23 22 c21 21 22 32 24 183 l3 161 36 40 c41 46 38 62 -6 29 l-30 -22 0 44 c0
42 1 44 40 56 22 6 40 16 40 21 0 16 -40 31 -62 24 -20 -6 -20 -4 -13 62 4 38
12 78 17 88 9 16 6 24 -16 43 -15 13 -36 23 -48 23 -17 0 -19 -4 -14 -27z"/>
<path d="M602 765 c-20 -41 -24 -44 -52 -39 -16 4 -30 4 -30 0 0 -4 17 -24 38
-44 20 -21 65 -70 100 -110 35 -40 74 -75 87 -78 29 -7 117 17 123 34 2 6 -4
12 -12 12 -47 0 -206 76 -206 98 0 4 29 19 65 32 36 13 65 29 65 35 0 5 -12
18 -26 29 l-26 18 -46 -52 -47 -52 -28 30 -28 29 45 29 c51 32 54 40 29 60
-26 19 -27 19 -51 -31z"/>
<path d="M405 760 c-11 -5 -32 -9 -47 -9 -50 -2 -29 -21 22 -21 57 0 59 -4 30
-68 l-19 -43 -21 21 c-11 11 -32 20 -46 20 l-25 0 21 -30 c12 -16 28 -34 37
-38 20 -12 9 -33 -63 -118 -30 -35 -52 -64 -49 -64 14 0 52 25 82 53 20 19 46
32 68 34 34 3 35 2 35 -30 0 -34 -1 -35 -59 -48 -59 -13 -59 -13 -54 -44 3
-18 0 -42 -7 -54 -8 -17 -9 -26 0 -36 9 -11 17 -11 45 1 57 23 65 20 65 -31 0
-25 -7 -61 -14 -80 -13 -29 -20 -35 -46 -35 l-31 0 16 -29 c19 -38 30 -44 55
-31 30 16 50 62 57 132 3 35 10 70 14 79 15 29 -15 42 -72 35 l-51 -7 7 33 c4
18 8 34 10 36 1 1 24 5 52 8 48 6 49 7 49 40 0 18 8 42 18 53 20 22 14 38 -18
50 -13 6 -28 4 -41 -5 -34 -24 -49 -17 -27 14 10 15 39 65 63 110 42 81 43 84
24 98 -21 16 -50 17 -80 4z"/>
<path d="M610 520 c-8 -6 -31 -9 -50 -8 -19 2 -34 1 -33 -2 1 -3 5 -13 8 -23
9 -23 -12 -107 -32 -129 -11 -12 -12 -18 -4 -18 20 0 60 46 66 77 12 56 24 73
50 73 23 0 25 -4 25 -46 0 -71 11 -84 76 -84 41 0 56 4 61 16 9 23 -16 34 -64
27 -49 -7 -53 3 -28 64 8 20 14 37 13 38 -2 1 -13 7 -25 14 -27 14 -43 14 -63
1z"/>
<path d="M620 325 c-19 -8 -54 -19 -78 -25 l-43 -11 50 -39 c27 -22 52 -44 56
-50 8 -13 -26 -43 -87 -75 -27 -14 -48 -28 -48 -31 0 -18 110 21 162 58 15 11
24 6 61 -30 46 -45 61 -51 71 -26 7 19 -4 37 -53 81 l-36 32 33 47 c28 39 31
49 20 60 -20 21 -69 24 -108 9z m40 -54 c0 -34 -25 -45 -60 -25 -37 23 -38 31
-2 37 56 8 62 7 62 -12z"/>
</g>
</svg>
