<?xml version="1.0" standalone="no"?>
<!DOCTYPE svg PUBLIC "-//W3C//DTD SVG 20010904//EN"
 "http://www.w3.org/TR/2001/REC-SVG-20010904/DTD/svg10.dtd">
<svg version="1.0" xmlns="http://www.w3.org/2000/svg"
 width="96.000000pt" height="68.000000pt" viewBox="0 0 96.000000 68.000000"
 preserveAspectRatio="xMidYMid meet">
<metadata>
Created by potrace 1.16, written by Peter Selinger 2001-2019
</metadata>
<g transform="translate(0.000000,68.000000) scale(0.100000,-0.100000)"
fill="#000000" stroke="none">
<path d="M220 592 c0 -5 14 -28 30 -50 17 -23 30 -43 30 -45 0 -1 -12 -4 -26
-5 -47 -4 -158 -23 -163 -28 -11 -10 26 -24 64 -24 47 1 254 35 263 45 14 13
-25 25 -66 20 -42 -6 -43 -6 -36 19 5 19 0 31 -21 51 -27 24 -75 35 -75 17z"/>
<path d="M490 543 c-26 -71 -37 -91 -77 -140 -45 -55 -45 -68 0 -33 14 11 28
20 32 20 4 0 4 -46 1 -102 -4 -57 -7 -116 -8 -132 -1 -31 21 -51 37 -35 15 15
23 258 8 279 -10 14 -5 26 28 73 41 58 42 69 8 87 -16 9 -21 7 -29 -17z"/>
<path d="M581 370 c-1 -89 3 -169 8 -179 24 -44 109 -62 196 -40 60 15 69 27
53 78 -13 43 -28 54 -28 22 0 -10 -8 -29 -19 -42 -16 -20 -28 -23 -79 -24 -42
0 -66 5 -76 15 -17 18 -28 89 -20 129 6 27 11 31 83 46 99 22 111 29 81 45
-19 10 -29 9 -64 -9 -58 -29 -92 -32 -88 -6 1 11 5 41 8 66 6 42 5 47 -17 52
-13 4 -27 7 -31 7 -3 0 -7 -72 -7 -160z"/>
<path d="M245 403 c-16 -3 -34 -9 -40 -15 -12 -13 111 -1 135 12 16 10 -36 11
-95 3z"/>
<path d="M258 336 c-82 -13 -74 -30 10 -22 68 7 99 20 65 27 -10 3 -44 0 -75
-5z"/>
<path d="M275 263 c-27 -7 -65 -12 -82 -10 -18 1 -33 -1 -33 -5 0 -4 4 -8 10
-8 5 0 17 -23 27 -50 16 -45 21 -50 43 -46 14 3 44 8 68 11 23 4 40 11 37 16
-3 4 3 26 15 48 20 40 20 40 1 51 -23 12 -21 12 -86 -7z m45 -25 c-1 -40 -14
-58 -47 -64 -40 -8 -41 -7 -49 33 -6 29 -4 32 22 36 56 8 74 7 74 -5z"/>
</g>
</svg>
