<?xml version="1.0" standalone="no"?>
<!DOCTYPE svg PUBLIC "-//W3C//DTD SVG 20010904//EN"
 "http://www.w3.org/TR/2001/REC-SVG-20010904/DTD/svg10.dtd">
<svg version="1.0" xmlns="http://www.w3.org/2000/svg"
 width="96.000000pt" height="68.000000pt" viewBox="0 0 96.000000 68.000000"
 preserveAspectRatio="xMidYMid meet">
<metadata>
Created by potrace 1.16, written by Peter Selinger 2001-2019
</metadata>
<g transform="translate(0.000000,68.000000) scale(0.100000,-0.100000)"
fill="#000000" stroke="none">
<path d="M637 554 c-21 -14 -64 -39 -95 -54 -76 -39 -42 -38 80 2 98 32 116
48 79 68 -25 13 -20 14 -64 -16z"/>
<path d="M735 459 c-4 -12 -23 -39 -42 -60 -20 -22 -34 -41 -31 -44 5 -5 158
87 158 96 0 8 -47 29 -65 29 -7 0 -17 -9 -20 -21z"/>
<path d="M575 438 c15 -49 65 -80 65 -40 0 25 -20 49 -48 57 -22 6 -23 5 -17
-17z"/>
<path d="M460 416 c0 -24 36 -60 53 -53 24 9 21 33 -5 51 -28 20 -48 20 -48 2z"/>
</g>
</svg>
