<?xml version="1.0" standalone="no"?>
<!DOCTYPE svg PUBLIC "-//W3C//DTD SVG 20010904//EN"
 "http://www.w3.org/TR/2001/REC-SVG-20010904/DTD/svg10.dtd">
<svg version="1.0" xmlns="http://www.w3.org/2000/svg"
 width="96.000000pt" height="68.000000pt" viewBox="0 0 96.000000 68.000000"
 preserveAspectRatio="xMidYMid meet">
<metadata>
Created by potrace 1.16, written by Peter Selinger 2001-2019
</metadata>
<g transform="translate(0.000000,68.000000) scale(0.100000,-0.100000)"
fill="#000000" stroke="none">
<path d="M630 549 c-24 -18 -66 -42 -94 -55 -28 -12 -43 -23 -33 -23 26 -1
205 58 213 70 5 9 -22 38 -37 39 -3 0 -25 -14 -49 -31z"/>
<path d="M280 514 c-25 -8 -69 -15 -98 -15 l-53 0 24 -29 c13 -15 29 -49 36
-74 11 -46 12 -47 45 -40 l34 6 4 -94 c2 -51 2 -96 -2 -100 -3 -4 -17 -9 -30
-10 -24 -3 -25 -1 -28 62 -3 62 -12 80 -40 80 -8 0 -11 -7 -8 -17 2 -10 8 -46
11 -80 l7 -63 -41 0 c-48 0 -52 -9 -14 -32 27 -15 32 -14 115 18 48 18 103 36
122 39 19 4 41 14 48 23 11 13 10 14 -16 8 -87 -22 -86 -22 -86 17 0 41 21 67
55 67 23 0 42 16 32 26 -3 3 -21 1 -41 -4 l-36 -10 0 39 c0 36 3 40 29 45 22
5 27 10 24 26 -3 10 2 37 12 58 30 67 -6 85 -105 54z m50 -41 c0 -46 -13 -63
-52 -74 -46 -12 -43 -14 -63 34 -15 36 -14 37 7 41 84 19 108 18 108 -1z"/>
<path d="M735 459 c-4 -12 -23 -39 -42 -60 -20 -21 -30 -39 -24 -39 6 0 43 20
82 44 70 44 70 44 47 60 -31 22 -55 20 -63 -5z"/>
<path d="M576 452 c-8 -13 32 -72 49 -72 28 0 18 48 -14 65 -17 8 -32 11 -35
7z"/>
<path d="M460 425 c0 -22 33 -65 50 -65 23 0 28 32 8 48 -17 13 -58 25 -58 17z"/>
<path d="M508 308 c-22 -24 -33 -29 -53 -24 -27 7 -35 -10 -14 -31 6 -6 19
-51 28 -100 15 -78 19 -88 36 -84 11 2 63 5 116 8 90 4 98 3 111 -16 l15 -21
25 20 c20 15 30 38 43 97 9 43 20 90 25 105 7 23 5 30 -13 43 -26 18 -40 18
-107 4 -61 -13 -57 -24 8 -24 37 0 47 -4 50 -19 5 -25 -7 -34 -53 -41 -22 -4
-49 -9 -59 -12 -37 -10 11 -25 61 -18 l45 6 -7 -38 c-9 -49 -14 -56 -33 -48
-8 3 -60 1 -115 -5 -54 -6 -101 -10 -103 -8 -2 2 -6 23 -10 46 l-7 42 39 1
c22 0 48 4 58 8 18 7 18 8 3 14 -10 4 -38 4 -62 0 l-45 -6 0 36 c0 31 3 35 33
41 50 10 63 21 48 40 -19 23 -32 19 -63 -16z"/>
</g>
</svg>
