<?xml version="1.0" standalone="no"?>
<!DOCTYPE svg PUBLIC "-//W3C//DTD SVG 20010904//EN"
 "http://www.w3.org/TR/2001/REC-SVG-20010904/DTD/svg10.dtd">
<svg version="1.0" xmlns="http://www.w3.org/2000/svg"
 width="96.000000pt" height="68.000000pt" viewBox="0 0 96.000000 68.000000"
 preserveAspectRatio="xMidYMid meet">
<metadata>
Created by potrace 1.16, written by Peter Selinger 2001-2019
</metadata>
<g transform="translate(0.000000,68.000000) scale(0.100000,-0.100000)"
fill="#000000" stroke="none">
<path d="M442 229 c4 -54 9 -66 35 -90 20 -17 52 -32 89 -39 84 -18 233 0 279
34 18 13 18 15 -5 65 -14 28 -28 51 -31 51 -4 0 -9 -18 -13 -40 -9 -58 -45
-74 -166 -74 -92 0 -134 10 -152 38 -4 6 -8 35 -8 64 0 41 -3 52 -16 52 -14 0
-16 -10 -12 -61z"/>
</g>
</svg>
