<?xml version="1.0" standalone="no"?>
<!DOCTYPE svg PUBLIC "-//W3C//DTD SVG 20010904//EN"
 "http://www.w3.org/TR/2001/REC-SVG-20010904/DTD/svg10.dtd">
<svg version="1.0" xmlns="http://www.w3.org/2000/svg"
 width="96.000000pt" height="68.000000pt" viewBox="0 0 96.000000 68.000000"
 preserveAspectRatio="xMidYMid meet">
<metadata>
Created by potrace 1.16, written by Peter Selinger 2001-2019
</metadata>
<g transform="translate(0.000000,68.000000) scale(0.100000,-0.100000)"
fill="#000000" stroke="none">
<path d="M256 583 c4 -16 8 -46 8 -68 l1 -40 -60 -16 c-33 -8 -59 -20 -57 -25
3 -10 38 -8 90 6 29 8 32 6 32 -15 0 -20 -6 -24 -50 -30 -33 -5 -50 -12 -50
-21 0 -10 14 -14 50 -14 43 0 50 -3 50 -19 0 -23 -12 -27 -97 -36 -35 -4 -63
-11 -63 -15 0 -15 38 -21 85 -14 26 3 45 2 45 -3 0 -10 -63 -71 -115 -112 -29
-22 -29 -23 -5 -16 40 11 109 54 123 76 6 10 15 19 19 19 4 0 6 -46 5 -102 -2
-86 1 -103 13 -103 12 0 16 19 18 102 1 58 7 103 12 103 6 0 19 -9 30 -20 23
-23 50 -26 50 -6 0 18 -18 32 -51 40 -15 3 -29 15 -32 25 -4 17 2 21 47 28 61
10 60 29 -1 25 -37 -3 -43 0 -43 17 0 15 10 23 40 31 64 17 51 47 -18 41 -18
-2 -23 2 -20 16 2 11 23 26 55 38 56 21 66 38 33 55 -16 8 -26 7 -42 -5 -33
-22 -41 -19 -34 17 7 38 -15 68 -52 68 -22 0 -23 -3 -16 -27z"/>
<path d="M590 457 c-36 -5 -84 -10 -107 -11 l-41 -1 -1 -113 c-2 -151 7 -182
61 -213 38 -21 55 -24 143 -24 104 0 201 23 211 50 3 7 -4 30 -15 51 -12 21
-21 44 -21 51 0 7 -4 13 -10 13 -5 0 -10 -11 -10 -25 0 -43 -21 -74 -59 -86
-50 -17 -189 -17 -229 0 -36 15 -45 37 -40 102 3 39 6 44 28 46 14 1 65 5 114
8 60 5 85 10 78 17 -12 12 1 48 31 88 18 24 18 25 -3 42 -24 20 -35 20 -130 5z
m65 -54 c-12 -68 -15 -73 -46 -73 -32 0 -34 6 -23 73 6 34 9 37 41 37 34 0 34
0 28 -37z m-107 -33 l1 -50 -35 0 c-34 0 -34 1 -34 43 0 51 4 57 41 57 26 0
27 -2 27 -50z"/>
</g>
</svg>
