<?xml version="1.0" standalone="no"?>
<!DOCTYPE svg PUBLIC "-//W3C//DTD SVG 20010904//EN"
 "http://www.w3.org/TR/2001/REC-SVG-20010904/DTD/svg10.dtd">
<svg version="1.0" xmlns="http://www.w3.org/2000/svg"
 width="96.000000pt" height="68.000000pt" viewBox="0 0 96.000000 68.000000"
 preserveAspectRatio="xMidYMid meet">
<metadata>
Created by potrace 1.16, written by Peter Selinger 2001-2019
</metadata>
<g transform="translate(0.000000,68.000000) scale(0.100000,-0.100000)"
fill="#000000" stroke="none">
<path d="M646 536 l7 -85 -29 -6 c-69 -15 -64 -18 -64 45 0 51 -2 58 -22 64
-13 3 -26 6 -29 6 -4 0 -4 -28 -2 -63 l5 -63 -33 -10 -34 -11 33 -7 c22 -5 32
-13 32 -27 0 -28 38 -25 42 3 2 18 12 24 43 29 47 8 55 5 55 -22 0 -12 7 -19
20 -19 15 0 20 7 20 25 0 26 3 29 53 39 37 9 25 26 -18 26 l-33 0 5 70 c4 68
4 70 -22 80 -14 5 -28 10 -31 10 -3 0 -2 -38 2 -84z"/>
</g>
</svg>
