<?xml version="1.0" standalone="no"?>
<!DOCTYPE svg PUBLIC "-//W3C//DTD SVG 20010904//EN"
 "http://www.w3.org/TR/2001/REC-SVG-20010904/DTD/svg10.dtd">
<svg version="1.0" xmlns="http://www.w3.org/2000/svg"
 width="96.000000pt" height="68.000000pt" viewBox="0 0 96.000000 68.000000"
 preserveAspectRatio="xMidYMid meet">
<metadata>
Created by potrace 1.16, written by Peter Selinger 2001-2019
</metadata>
<g transform="translate(0.000000,68.000000) scale(0.100000,-0.100000)"
fill="#000000" stroke="none">
<path d="M270 231 c0 -4 11 -18 25 -31 26 -25 46 -20 29 7 -11 18 -54 37 -54
24z"/>
<path d="M200 197 c0 -19 39 -59 51 -52 14 10 11 30 -9 48 -22 20 -42 22 -42
4z"/>
<path d="M110 175 c0 -18 45 -85 57 -85 17 0 17 41 1 62 -14 17 -58 34 -58 23z"/>
</g>
</svg>
