<?xml version="1.0" standalone="no"?>
<!DOCTYPE svg PUBLIC "-//W3C//DTD SVG 20010904//EN"
 "http://www.w3.org/TR/2001/REC-SVG-20010904/DTD/svg10.dtd">
<svg version="1.0" xmlns="http://www.w3.org/2000/svg"
 width="96.000000pt" height="68.000000pt" viewBox="0 0 96.000000 68.000000"
 preserveAspectRatio="xMidYMid meet">
<metadata>
Created by potrace 1.16, written by Peter Selinger 2001-2019
</metadata>
<g transform="translate(0.000000,68.000000) scale(0.100000,-0.100000)"
fill="#000000" stroke="none">
<path d="M675 560 c-22 -5 -77 -9 -122 -9 -46 -1 -83 -4 -83 -7 0 -4 14 -31
31 -60 30 -53 31 -54 67 -48 20 3 71 6 113 7 l76 2 38 49 c25 33 33 52 26 59
-14 14 -97 18 -146 7z m78 -44 c-1 -16 -6 -32 -10 -36 -4 -4 -52 -10 -105 -13
l-97 -6 -6 30 c-4 17 -5 32 -3 34 4 4 189 23 208 21 10 -1 14 -11 13 -30z"/>
</g>
</svg>
