<?xml version="1.0" standalone="no"?>
<!DOCTYPE svg PUBLIC "-//W3C//DTD SVG 20010904//EN"
 "http://www.w3.org/TR/2001/REC-SVG-20010904/DTD/svg10.dtd">
<svg version="1.0" xmlns="http://www.w3.org/2000/svg"
 width="96.000000pt" height="68.000000pt" viewBox="0 0 96.000000 68.000000"
 preserveAspectRatio="xMidYMid meet">
<metadata>
Created by potrace 1.16, written by Peter Selinger 2001-2019
</metadata>
<g transform="translate(0.000000,68.000000) scale(0.100000,-0.100000)"
fill="#000000" stroke="none">
<path d="M480 595 c0 -4 7 -20 16 -36 8 -17 14 -33 12 -35 -10 -9 -109 -6
-121 4 -11 9 -18 2 -36 -35 -15 -31 -19 -49 -12 -56 14 -14 37 6 45 38 5 20
13 25 36 25 37 0 38 -13 4 -57 -33 -43 -20 -42 33 3 25 21 40 41 36 50 -4 10
3 14 25 14 27 0 30 -3 35 -42 8 -58 -14 -108 -47 -108 -19 0 -23 4 -19 19 3
13 -2 20 -18 24 -31 8 -36 1 -16 -21 25 -27 21 -32 -22 -32 -22 0 -43 -5 -47
-11 -4 -8 10 -10 49 -7 30 1 53 0 50 -5 -2 -4 -28 -21 -56 -38 -50 -29 -31
-31 26 -2 15 7 27 11 27 7 0 -4 6 -1 13 5 8 6 17 8 20 5 8 -8 -25 -35 -85 -70
-60 -36 14 -11 105 34 4 2 7 -2 7 -9 0 -16 -25 -35 -92 -68 -32 -16 -55 -31
-52 -34 5 -5 45 9 112 40 40 19 47 14 30 -21 -8 -19 -17 -26 -31 -22 -17 4
-17 3 -2 -21 9 -13 15 -26 13 -28 -2 -2 -57 10 -123 27 l-121 30 4 33 c3 26
-2 38 -22 56 l-25 22 39 41 c22 22 40 44 40 49 0 4 -14 14 -32 21 -28 12 -37
11 -73 -4 -22 -10 -55 -21 -73 -25 -51 -11 -26 -28 35 -23 46 4 53 2 47 -11
-16 -39 -15 -52 5 -84 12 -19 21 -44 21 -56 0 -19 -5 -21 -70 -21 -38 0 -70
-3 -70 -6 0 -3 5 -14 10 -25 10 -18 18 -19 89 -13 77 7 83 5 249 -50 93 -31
179 -56 191 -56 11 0 64 14 117 31 106 34 110 49 14 49 -30 0 -92 3 -137 7
-81 6 -82 6 -68 27 8 11 15 37 15 57 0 19 3 38 6 42 4 3 29 -12 58 -33 44 -34
53 -37 65 -25 20 20 1 40 -57 61 -68 25 -70 30 -18 54 51 24 57 35 25 43 -15
4 -28 -2 -46 -24 -30 -35 -43 -36 -64 -6 -28 38 -4 57 81 64 60 5 70 8 56 18
-11 9 -30 10 -63 4 -51 -10 -67 -4 -40 15 9 7 17 18 17 24 0 6 19 12 42 14 66
5 61 28 -7 28 -48 0 -56 3 -51 16 3 9 6 22 6 30 0 10 14 14 51 14 46 0 51 -2
46 -20 -4 -15 0 -20 13 -20 11 0 22 5 25 10 3 6 15 10 26 10 29 0 23 17 -12
35 -26 14 -41 15 -99 6 -90 -14 -88 -14 -92 11 -2 13 -15 27 -35 35 -18 7 -33
11 -33 8z"/>
<path d="M169 514 c39 -50 67 -74 88 -74 19 0 23 5 23 30 0 34 -17 46 -81 56
-42 7 -43 6 -30 -12z"/>
</g>
</svg>
