<?xml version="1.0" standalone="no"?>
<!DOCTYPE svg PUBLIC "-//W3C//DTD SVG 20010904//EN"
 "http://www.w3.org/TR/2001/REC-SVG-20010904/DTD/svg10.dtd">
<svg version="1.0" xmlns="http://www.w3.org/2000/svg"
 width="96.000000pt" height="68.000000pt" viewBox="0 0 96.000000 68.000000"
 preserveAspectRatio="xMidYMid meet">
<metadata>
Created by potrace 1.16, written by Peter Selinger 2001-2019
</metadata>
<g transform="translate(0.000000,68.000000) scale(0.100000,-0.100000)"
fill="#000000" stroke="none">
<path d="M550 480 c0 -38 26 -52 87 -48 70 5 69 28 -1 28 -55 0 -56 1 -50 25
5 21 3 25 -15 25 -17 0 -21 -6 -21 -30z"/>
<path d="M450 489 c0 -6 -12 -27 -27 -46 l-28 -36 25 13 c35 18 80 61 74 72
-8 12 -44 10 -44 -3z"/>
</g>
</svg>
