<?xml version="1.0" standalone="no"?>
<!DOCTYPE svg PUBLIC "-//W3C//DTD SVG 20010904//EN"
 "http://www.w3.org/TR/2001/REC-SVG-20010904/DTD/svg10.dtd">
<svg version="1.0" xmlns="http://www.w3.org/2000/svg"
 width="90.000000pt" height="92.000000pt" viewBox="0 0 90.000000 92.000000"
 preserveAspectRatio="xMidYMid meet">
<metadata>
Created by potrace 1.16, written by Peter Selinger 2001-2019
</metadata>
<g transform="translate(0.000000,92.000000) scale(0.100000,-0.100000)"
fill="#000000" stroke="none">
<path d="M126 802 c-8 -14 90 -102 113 -102 24 0 33 23 21 55 -6 17 -21 27
-52 35 -24 6 -50 13 -60 16 -9 3 -19 1 -22 -4z"/>
<path d="M745 730 c-22 -5 -121 -20 -220 -34 -242 -35 -245 -36 -245 -45 0 -5
12 -14 28 -20 22 -9 52 -7 146 9 174 30 173 30 183 -27 10 -61 11 -399 0 -436
-7 -27 -8 -27 -65 -20 l-57 6 59 -54 c32 -30 62 -55 66 -57 19 -7 53 37 59 79
8 50 5 515 -3 528 -6 9 65 21 130 21 47 0 54 8 27 33 -24 21 -60 27 -108 17z"/>
<path d="M50 613 c0 -16 93 -103 111 -103 22 0 34 33 20 59 -15 27 -131 66
-131 44z"/>
<path d="M425 534 c-33 -7 -75 -13 -94 -14 -32 0 -33 -1 -18 -18 9 -10 23 -51
30 -90 16 -81 21 -90 40 -73 8 6 42 14 76 18 53 5 62 9 58 24 -3 9 8 42 23 73
l28 56 -25 20 c-29 23 -36 23 -118 4z m55 -66 c0 -57 -8 -66 -58 -74 l-42 -7
0 36 c0 19 -3 42 -6 51 -7 19 25 34 74 35 31 1 32 0 32 -41z"/>
<path d="M190 373 c-19 -36 -56 -88 -82 -115 -27 -27 -48 -53 -48 -58 0 -24
34 -90 45 -90 8 0 19 17 25 38 7 20 32 82 56 137 47 110 61 155 48 155 -5 0
-25 -30 -44 -67z"/>
</g>
</svg>
