<?xml version="1.0" standalone="no"?>
<!DOCTYPE svg PUBLIC "-//W3C//DTD SVG 20010904//EN"
 "http://www.w3.org/TR/2001/REC-SVG-20010904/DTD/svg10.dtd">
<svg version="1.0" xmlns="http://www.w3.org/2000/svg"
 width="96.000000pt" height="68.000000pt" viewBox="0 0 96.000000 68.000000"
 preserveAspectRatio="xMidYMid meet">
<metadata>
Created by potrace 1.16, written by Peter Selinger 2001-2019
</metadata>
<g transform="translate(0.000000,68.000000) scale(0.100000,-0.100000)"
fill="#000000" stroke="none">
<path d="M215 535 c42 -37 77 -43 83 -13 4 22 -46 48 -90 48 l-33 0 40 -35z"/>
<path d="M120 435 c0 -9 34 -40 67 -62 38 -26 60 8 26 40 -19 16 -93 34 -93
22z"/>
<path d="M226 251 c-25 -33 -57 -68 -71 -79 -14 -11 -25 -27 -25 -37 0 -24 19
-55 33 -54 12 0 121 218 113 226 -2 2 -25 -23 -50 -56z"/>
</g>
</svg>
