<?xml version="1.0" standalone="no"?>
<!DOCTYPE svg PUBLIC "-//W3C//DTD SVG 20010904//EN"
 "http://www.w3.org/TR/2001/REC-SVG-20010904/DTD/svg10.dtd">
<svg version="1.0" xmlns="http://www.w3.org/2000/svg"
 width="96.000000pt" height="68.000000pt" viewBox="0 0 96.000000 68.000000"
 preserveAspectRatio="xMidYMid meet">
<metadata>
Created by potrace 1.16, written by Peter Selinger 2001-2019
</metadata>
<g transform="translate(0.000000,68.000000) scale(0.100000,-0.100000)"
fill="#000000" stroke="none">
<path d="M510 586 c0 -3 9 -21 21 -40 15 -27 17 -36 7 -36 -34 -1 -220 -29
-225 -34 -3 -3 2 -8 11 -12 12 -5 16 -19 16 -58 0 -106 -49 -223 -126 -298
-24 -23 -41 -44 -39 -46 9 -9 67 32 108 78 51 57 79 122 105 244 l17 81 50 7
c28 3 111 11 185 18 74 6 137 14 140 16 15 15 -34 24 -102 19 -64 -4 -78 -3
-78 9 0 19 -47 56 -71 56 -11 0 -19 -2 -19 -4z"/>
<path d="M190 423 c0 -11 50 -73 59 -73 18 0 21 34 6 56 -14 22 -65 35 -65 17z"/>
<path d="M245 293 c-22 -13 -57 -28 -77 -35 -21 -6 -38 -14 -38 -18 0 -15 30
-31 47 -26 22 8 120 92 113 98 -3 3 -23 -6 -45 -19z"/>
</g>
</svg>
