<?xml version="1.0" standalone="no"?>
<!DOCTYPE svg PUBLIC "-//W3C//DTD SVG 20010904//EN"
 "http://www.w3.org/TR/2001/REC-SVG-20010904/DTD/svg10.dtd">
<svg version="1.0" xmlns="http://www.w3.org/2000/svg"
 width="96.000000pt" height="68.000000pt" viewBox="0 0 96.000000 68.000000"
 preserveAspectRatio="xMidYMid meet">
<metadata>
Created by potrace 1.16, written by Peter Selinger 2001-2019
</metadata>
<g transform="translate(0.000000,68.000000) scale(0.100000,-0.100000)"
fill="#000000" stroke="none">
<path d="M600 479 c-19 -5 -65 -10 -102 -11 -58 -3 -65 -5 -57 -20 5 -9 9 -35
9 -57 0 -45 12 -58 32 -37 15 14 134 26 153 14 18 -11 55 11 55 32 0 12 4 30
10 40 17 33 -37 54 -100 39z m40 -34 c0 -12 -13 -15 -59 -15 -33 0 -66 -3 -75
-6 -10 -4 -16 -1 -16 9 0 16 26 22 108 25 31 2 42 -2 42 -13z m0 -40 c0 -9 -9
-15 -22 -15 -13 0 -47 -3 -75 -6 -44 -6 -53 -4 -53 9 0 11 12 17 43 20 95 8
107 7 107 -8z"/>
</g>
</svg>
