<?xml version="1.0" standalone="no"?>
<!DOCTYPE svg PUBLIC "-//W3C//DTD SVG 20010904//EN"
 "http://www.w3.org/TR/2001/REC-SVG-20010904/DTD/svg10.dtd">
<svg version="1.0" xmlns="http://www.w3.org/2000/svg"
 width="96.000000pt" height="68.000000pt" viewBox="0 0 96.000000 68.000000"
 preserveAspectRatio="xMidYMid meet">
<metadata>
Created by potrace 1.16, written by Peter Selinger 2001-2019
</metadata>
<g transform="translate(0.000000,68.000000) scale(0.100000,-0.100000)"
fill="#000000" stroke="none">
<path d="M440 531 c0 -48 -17 -63 -66 -59 -28 2 -40 8 -44 23 -5 21 -40 34
-40 15 0 -5 5 -10 10 -10 6 0 10 -9 10 -20 0 -18 -16 -25 -42 -21 -5 0 -8 -3
-8 -9 0 -5 13 -10 29 -10 24 0 30 -5 35 -30 3 -16 12 -30 20 -30 13 0 31 -28
23 -37 -2 -2 -25 -4 -50 -5 -51 -3 -52 -4 -36 -58 11 -37 12 -38 51 -32 35 4
40 3 36 -14 -2 -14 -13 -20 -41 -22 -49 -4 -48 -22 3 -22 30 0 38 -3 34 -15
-5 -13 -54 -25 -118 -29 -14 0 -26 -4 -26 -7 0 -14 31 -18 81 -12 49 6 51 5
41 -14 -13 -23 -73 -78 -94 -85 -7 -3 -10 -9 -6 -13 12 -13 91 39 115 75 36
56 42 60 81 61 39 0 89 16 62 19 -8 1 -34 1 -57 0 -58 -2 -60 25 -3 35 43 7
45 28 2 23 -19 -2 -28 2 -30 15 -3 12 3 17 20 17 37 0 68 11 62 22 -3 5 2 18
11 28 14 16 15 23 6 34 -10 12 -8 17 8 25 44 24 44 21 38 -168 -3 -98 -1 -184
4 -192 13 -21 27 0 31 45 4 48 16 52 156 62 104 8 121 26 31 34 -35 3 -54 9
-53 18 1 6 2 18 3 26 0 9 14 16 34 18 39 4 34 24 -6 21 -26 -1 -28 2 -25 30 3
28 7 32 36 35 43 4 41 22 -2 22 -32 0 -35 2 -34 30 1 24 6 32 27 36 46 10 52
14 46 25 -5 6 -22 8 -48 4 -34 -6 -39 -5 -34 9 4 10 -1 24 -13 36 -37 37 -62
18 -30 -23 11 -14 20 -28 20 -30 0 -9 -88 -20 -106 -13 -12 5 -5 18 35 63 28
31 51 62 51 68 0 7 -11 17 -25 23 -23 11 -26 9 -35 -16 -18 -49 -33 -71 -79
-122 -35 -39 -55 -52 -83 -57 -34 -5 -38 -3 -38 16 0 14 6 21 19 21 10 0 19 6
18 13 -2 52 2 57 44 57 36 0 40 2 29 15 -7 8 -21 15 -32 15 -18 0 -19 5 -14
34 5 26 3 35 -10 40 -29 11 -34 6 -34 -33z m-10 -94 c0 -21 -22 -37 -51 -37
-33 0 -45 15 -29 35 16 19 80 20 80 2z m250 -97 c0 -16 -4 -30 -9 -30 -5 0
-23 -3 -40 -6 -30 -6 -31 -6 -31 30 0 35 1 36 40 36 38 0 40 -2 40 -30z m-310
-40 c0 -26 -3 -30 -29 -30 -26 0 -41 14 -41 40 0 5 15 11 33 13 17 2 33 5 35
5 1 1 2 -11 2 -28z m100 16 c0 -17 -16 -29 -42 -33 -13 -2 -18 4 -18 22 0 21
5 25 30 25 19 0 30 -5 30 -14z m210 -60 c0 -32 -2 -34 -40 -38 -39 -3 -40 -3
-40 29 0 29 3 32 38 36 20 2 38 4 40 5 1 1 2 -13 2 -32z m5 -91 c0 -28 -3 -30
-42 -33 l-43 -3 0 36 0 36 43 -3 c39 -3 42 -5 42 -33z"/>
<path d="M150 522 c0 -18 48 -52 73 -52 33 0 38 33 8 50 -23 12 -81 13 -81 2z"/>
<path d="M100 383 c0 -19 68 -75 86 -71 26 4 30 44 7 56 -28 15 -93 26 -93 15z"/>
<path d="M209 255 c-13 -16 -34 -39 -45 -51 -12 -13 -20 -25 -17 -27 2 -3 -12
-15 -31 -27 -20 -12 -36 -28 -36 -35 0 -26 24 -66 37 -63 17 4 126 204 120
221 -2 6 -14 -1 -28 -18z"/>
<path d="M429 111 c14 -25 49 -53 61 -49 16 5 -24 54 -50 61 -16 4 -18 2 -11
-12z"/>
</g>
</svg>
