<?xml version="1.0" standalone="no"?>
<!DOCTYPE svg PUBLIC "-//W3C//DTD SVG 20010904//EN"
 "http://www.w3.org/TR/2001/REC-SVG-20010904/DTD/svg10.dtd">
<svg version="1.0" xmlns="http://www.w3.org/2000/svg"
 width="96.000000pt" height="68.000000pt" viewBox="0 0 96.000000 68.000000"
 preserveAspectRatio="xMidYMid meet">
<metadata>
Created by potrace 1.16, written by Peter Selinger 2001-2019
</metadata>
<g transform="translate(0.000000,68.000000) scale(0.100000,-0.100000)"
fill="#000000" stroke="none">
<path d="M175 500 c30 -31 59 -39 71 -18 11 17 -34 48 -69 48 l-31 0 29 -30z"/>
<path d="M125 350 c33 -35 75 -41 75 -10 0 24 -28 40 -71 40 l-33 0 29 -30z"/>
<path d="M191 227 c-17 -25 -48 -60 -70 -78 -39 -34 -40 -34 -26 -66 8 -18 18
-33 22 -33 11 0 119 208 111 215 -3 4 -20 -14 -37 -38z"/>
</g>
</svg>
