<?xml version="1.0" standalone="no"?>
<!DOCTYPE svg PUBLIC "-//W3C//DTD SVG 20010904//EN"
 "http://www.w3.org/TR/2001/REC-SVG-20010904/DTD/svg10.dtd">
<svg version="1.0" xmlns="http://www.w3.org/2000/svg"
 width="96.000000pt" height="68.000000pt" viewBox="0 0 96.000000 68.000000"
 preserveAspectRatio="xMidYMid meet">
<metadata>
Created by potrace 1.16, written by Peter Selinger 2001-2019
</metadata>
<g transform="translate(0.000000,68.000000) scale(0.100000,-0.100000)"
fill="#000000" stroke="none">
<path d="M230 545 c0 -14 65 -75 80 -75 49 0 27 54 -28 70 -41 11 -52 12 -52
5z"/>
<path d="M150 401 c0 -22 57 -74 73 -68 24 9 21 42 -5 55 -38 18 -68 24 -68
13z"/>
<path d="M270 268 c-25 -31 -60 -65 -77 -77 -35 -22 -40 -39 -23 -72 17 -30
38 -22 61 23 12 24 37 69 56 100 48 77 37 93 -17 26z"/>
</g>
</svg>
