<?xml version="1.0" standalone="no"?>
<!DOCTYPE svg PUBLIC "-//W3C//DTD SVG 20010904//EN"
 "http://www.w3.org/TR/2001/REC-SVG-20010904/DTD/svg10.dtd">
<svg version="1.0" xmlns="http://www.w3.org/2000/svg"
 width="96.000000pt" height="68.000000pt" viewBox="0 0 96.000000 68.000000"
 preserveAspectRatio="xMidYMid meet">
<metadata>
Created by potrace 1.16, written by Peter Selinger 2001-2019
</metadata>
<g transform="translate(0.000000,68.000000) scale(0.100000,-0.100000)"
fill="#000000" stroke="none">
<path d="M532 551 c-15 -49 -97 -159 -134 -180 -32 -18 -35 -33 -12 -56 11
-11 24 -14 38 -10 12 4 84 20 160 36 l139 29 22 -20 c49 -46 78 -2 30 46 -27
27 -83 54 -112 54 -13 0 -12 -5 11 -28 l27 -29 -78 -17 c-110 -23 -173 -30
-173 -20 0 5 37 52 82 103 66 75 79 97 71 110 -5 9 -21 17 -35 19 -21 3 -26
-3 -36 -37z"/>
</g>
</svg>
