<?xml version="1.0" standalone="no"?>
<!DOCTYPE svg PUBLIC "-//W3C//DTD SVG 20010904//EN"
 "http://www.w3.org/TR/2001/REC-SVG-20010904/DTD/svg10.dtd">
<svg version="1.0" xmlns="http://www.w3.org/2000/svg"
 width="96.000000pt" height="68.000000pt" viewBox="0 0 96.000000 68.000000"
 preserveAspectRatio="xMidYMid meet">
<metadata>
Created by potrace 1.16, written by Peter Selinger 2001-2019
</metadata>
<g transform="translate(0.000000,68.000000) scale(0.100000,-0.100000)"
fill="#000000" stroke="none">
<path d="M538 517 l4 -84 -47 -6 c-26 -4 -59 -4 -73 0 -24 5 -25 4 -14 -9 10
-12 42 -114 42 -133 0 -2 -24 -5 -52 -7 l-53 -3 30 -14 c24 -10 41 -10 83 -1
30 6 56 9 59 7 20 -20 -87 -145 -144 -169 -22 -9 -24 -12 -11 -15 51 -12 181
100 195 168 6 32 -3 31 216 30 37 0 67 5 67 10 0 17 -53 31 -97 26 -52 -6 -56
9 -18 65 24 35 24 36 5 53 -15 14 -32 17 -81 13 l-62 -4 6 66 c6 72 -2 90 -38
90 -20 0 -21 -4 -17 -83z m106 -93 c12 -4 14 -16 9 -57 -6 -55 -15 -67 -50
-67 -21 0 -23 5 -23 46 0 71 20 95 64 78z m-104 -51 c0 -60 -10 -83 -34 -83
-17 0 -23 9 -34 52 -13 58 -8 68 41 68 25 0 27 -3 27 -37z"/>
<path d="M270 505 c-30 -7 -69 -14 -87 -14 -65 -2 -44 -31 23 -31 20 0 34 -5
34 -12 0 -23 -54 -118 -88 -155 -36 -40 -36 -54 0 -29 32 23 40 20 67 -21 l23
-36 -67 -63 c-36 -35 -62 -64 -57 -64 15 0 128 86 147 112 9 13 41 57 70 98
50 69 53 76 37 88 -11 9 -32 12 -64 7 -27 -3 -48 -3 -48 1 0 3 9 17 20 31 14
18 17 29 10 38 -8 9 4 15 50 24 60 12 74 23 44 35 -21 8 -48 6 -114 -9z m24
-215 c-30 -54 -39 -60 -49 -31 -3 11 -15 23 -26 26 -25 8 -24 27 4 53 25 24
90 34 95 15 2 -7 -9 -35 -24 -63z"/>
<path d="M620 215 c0 -4 62 -75 117 -132 25 -26 53 -30 53 -8 0 45 -52 99
-125 129 -41 17 -45 18 -45 11z"/>
</g>
</svg>
