<?xml version="1.0" standalone="no"?>
<!DOCTYPE svg PUBLIC "-//W3C//DTD SVG 20010904//EN"
 "http://www.w3.org/TR/2001/REC-SVG-20010904/DTD/svg10.dtd">
<svg version="1.0" xmlns="http://www.w3.org/2000/svg"
 width="96.000000pt" height="68.000000pt" viewBox="0 0 96.000000 68.000000"
 preserveAspectRatio="xMidYMid meet">
<metadata>
Created by potrace 1.16, written by Peter Selinger 2001-2019
</metadata>
<g transform="translate(0.000000,68.000000) scale(0.100000,-0.100000)"
fill="#000000" stroke="none">
<path d="M540 434 c-41 -7 -89 -11 -107 -8 l-32 6 20 -38 c10 -21 19 -46 19
-55 0 -29 11 -49 27 -49 12 0 14 8 9 38 -4 20 -9 44 -12 53 -4 13 7 20 45 29
27 6 71 12 98 13 l48 2 -3 -57 c-3 -51 -1 -58 15 -58 12 0 28 19 47 56 29 55
29 57 11 70 -23 17 -86 17 -185 -2z"/>
</g>
</svg>
