<?xml version="1.0" standalone="no"?>
<!DOCTYPE svg PUBLIC "-//W3C//DTD SVG 20010904//EN"
 "http://www.w3.org/TR/2001/REC-SVG-20010904/DTD/svg10.dtd">
<svg version="1.0" xmlns="http://www.w3.org/2000/svg"
 width="96.000000pt" height="68.000000pt" viewBox="0 0 96.000000 68.000000"
 preserveAspectRatio="xMidYMid meet">
<metadata>
Created by potrace 1.16, written by Peter Selinger 2001-2019
</metadata>
<g transform="translate(0.000000,68.000000) scale(0.100000,-0.100000)"
fill="#000000" stroke="none">
<path d="M265 439 c-22 -4 -60 -8 -85 -8 l-45 -1 0 -89 c0 -49 3 -93 8 -97 16
-16 29 16 34 89 7 86 4 84 113 90 l45 2 3 -49 c5 -73 -4 -99 -30 -90 -20 6
-20 6 -2 -20 36 -49 74 -24 74 51 0 21 4 55 9 76 8 31 6 39 -9 47 -21 11 -58
11 -115 -1z"/>
</g>
</svg>
