<?xml version="1.0" standalone="no"?>
<!DOCTYPE svg PUBLIC "-//W3C//DTD SVG 20010904//EN"
 "http://www.w3.org/TR/2001/REC-SVG-20010904/DTD/svg10.dtd">
<svg version="1.0" xmlns="http://www.w3.org/2000/svg"
 width="96.000000pt" height="68.000000pt" viewBox="0 0 96.000000 68.000000"
 preserveAspectRatio="xMidYMid meet">
<metadata>
Created by potrace 1.16, written by Peter Selinger 2001-2019
</metadata>
<g transform="translate(0.000000,68.000000) scale(0.100000,-0.100000)"
fill="#000000" stroke="none">
<path d="M250 559 c37 -31 63 -34 68 -8 3 18 -37 39 -76 39 l-27 -1 35 -30z"/>
<path d="M150 492 c0 -12 45 -42 64 -42 19 0 31 19 19 31 -14 14 -83 24 -83
11z"/>
<path d="M244 387 c-16 -17 -44 -43 -62 -57 -29 -23 -31 -27 -20 -49 17 -31
29 -30 48 5 8 16 28 51 44 77 34 58 30 69 -10 24z"/>
</g>
</svg>
