<?xml version="1.0" standalone="no"?>
<!DOCTYPE svg PUBLIC "-//W3C//DTD SVG 20010904//EN"
 "http://www.w3.org/TR/2001/REC-SVG-20010904/DTD/svg10.dtd">
<svg version="1.0" xmlns="http://www.w3.org/2000/svg"
 width="96.000000pt" height="68.000000pt" viewBox="0 0 96.000000 68.000000"
 preserveAspectRatio="xMidYMid meet">
<metadata>
Created by potrace 1.16, written by Peter Selinger 2001-2019
</metadata>
<g transform="translate(0.000000,68.000000) scale(0.100000,-0.100000)"
fill="#000000" stroke="none">
<path d="M360 566 c-19 -12 -62 -31 -94 -41 l-59 -20 51 -3 c36 -2 52 -7 52
-17 0 -9 -24 -15 -85 -20 -47 -4 -88 -12 -92 -18 -4 -7 25 -8 90 -3 92 6 97 5
97 -13 0 -16 -9 -21 -45 -27 -25 -3 -58 -4 -75 -2 -16 3 -30 4 -30 3 0 0 9
-18 20 -40 11 -22 20 -44 20 -51 0 -6 7 -17 15 -24 10 -9 15 -9 15 -1 0 6 17
11 40 11 33 0 40 -3 40 -20 0 -14 -9 -21 -37 -25 -59 -10 -62 -13 -11 -14 26
-1 49 -5 52 -9 12 -20 -16 -32 -92 -38 -70 -6 -80 -9 -70 -21 8 -10 25 -13 52
-10 59 7 280 47 285 53 11 10 -8 11 -68 3 -35 -5 -66 -7 -69 -5 -12 13 10 36
35 36 15 0 34 4 41 9 20 12 -11 22 -48 14 -26 -5 -30 -3 -30 17 0 22 3 23 60
17 l59 -5 27 55 c34 69 27 76 -77 69 -72 -5 -77 -4 -72 14 4 16 19 20 104 26
95 6 124 17 77 29 -13 3 -54 1 -92 -4 -61 -9 -71 -8 -82 7 -11 15 -8 18 24 29
20 6 47 12 59 12 29 1 37 16 17 35 -21 22 -62 19 -104 -8z m110 -170 c0 -8 -4
-26 -10 -40 -8 -23 -15 -26 -55 -26 -45 0 -45 0 -45 34 0 38 8 43 73 45 26 1
37 -3 37 -13z m-150 -41 c0 -36 -9 -41 -65 -35 -25 3 -24 1 -31 38 l-6 32 51
0 51 0 0 -35z"/>
<path d="M391 368 c-11 -18 -11 -20 4 -14 9 3 21 6 26 6 14 0 11 17 -4 23 -7
3 -19 -4 -26 -15z"/>
<path d="M270 355 c7 -8 16 -12 21 -9 13 8 1 24 -18 24 -13 0 -13 -3 -3 -15z"/>
<path d="M648 503 c0 -10 -2 -22 -3 -28 -17 -114 -18 -115 -87 -115 -16 0 -28
-4 -28 -10 0 -5 21 -10 46 -10 33 0 45 -4 41 -12 -3 -7 -17 -42 -32 -77 -15
-35 -44 -91 -66 -124 -42 -63 -47 -86 -13 -58 54 44 121 154 153 254 12 36 14
37 58 37 l46 0 -7 -66 c-7 -71 -38 -165 -63 -189 -10 -11 -26 -14 -50 -10
l-34 5 27 -35 c28 -37 35 -40 63 -26 37 20 68 86 91 191 12 58 26 109 31 114
15 17 10 27 -22 40 -23 10 -42 11 -71 3 -21 -5 -41 -7 -44 -4 -4 3 1 20 10 38
21 42 20 69 -1 85 -25 19 -43 17 -45 -3z"/>
<path d="M430 176 c0 -3 12 -17 26 -31 21 -21 29 -24 35 -13 5 8 3 18 -4 24
-13 13 -57 28 -57 20z"/>
<path d="M340 152 c0 -4 12 -20 26 -35 19 -21 29 -26 37 -18 16 16 -3 43 -36
52 -15 4 -27 4 -27 1z"/>
<path d="M168 107 c-27 -40 -31 -66 -12 -74 22 -8 44 21 44 58 0 37 -14 44
-32 16z"/>
<path d="M250 122 c0 -16 32 -52 46 -52 21 0 17 38 -5 50 -23 12 -41 13 -41 2z"/>
</g>
</svg>
