<?xml version="1.0" standalone="no"?>
<!DOCTYPE svg PUBLIC "-//W3C//DTD SVG 20010904//EN"
 "http://www.w3.org/TR/2001/REC-SVG-20010904/DTD/svg10.dtd">
<svg version="1.0" xmlns="http://www.w3.org/2000/svg"
 width="96.000000pt" height="68.000000pt" viewBox="0 0 96.000000 68.000000"
 preserveAspectRatio="xMidYMid meet">
<metadata>
Created by potrace 1.16, written by Peter Selinger 2001-2019
</metadata>
<g transform="translate(0.000000,68.000000) scale(0.100000,-0.100000)"
fill="#000000" stroke="none">
<path d="M446 613 c4 -10 10 -57 12 -104 4 -95 1 -99 -70 -99 -28 0 -28 1 -28
65 0 60 -2 65 -24 71 -33 8 -49 -2 -37 -24 5 -9 10 -39 12 -67 l4 -50 -87 -3
c-49 -1 -88 -7 -88 -12 0 -18 48 -22 137 -11 48 6 109 11 135 11 43 0 48 -3
54 -25 3 -14 3 -50 0 -79 -8 -58 5 -80 29 -55 15 15 23 138 11 157 -7 11 127
17 260 12 46 -2 62 11 39 30 -16 13 -209 6 -264 -10 -30 -8 -28 -13 -23 66 2
18 11 22 80 30 58 7 77 13 77 24 0 17 -66 20 -122 7 -32 -8 -32 -8 -35 35 -3
42 -4 43 -42 46 -34 3 -38 1 -30 -15z"/>
<path d="M624 333 c-21 -72 -108 -141 -299 -238 -143 -73 -122 -78 41 -10 103
44 214 113 294 185 l45 40 -24 20 c-29 25 -50 25 -57 3z"/>
<path d="M310 329 c0 -6 -16 -33 -35 -59 -43 -58 -44 -66 -5 -43 45 26 92 87
77 102 -14 14 -37 14 -37 0z"/>
</g>
</svg>
