<?xml version="1.0" standalone="no"?>
<!DOCTYPE svg PUBLIC "-//W3C//DTD SVG 20010904//EN"
 "http://www.w3.org/TR/2001/REC-SVG-20010904/DTD/svg10.dtd">
<svg version="1.0" xmlns="http://www.w3.org/2000/svg"
 width="90.000000pt" height="92.000000pt" viewBox="0 0 90.000000 92.000000"
 preserveAspectRatio="xMidYMid meet">
<metadata>
Created by potrace 1.16, written by Peter Selinger 2001-2019
</metadata>
<g transform="translate(0.000000,92.000000) scale(0.100000,-0.100000)"
fill="#000000" stroke="none">
<path d="M398 840 c2 -32 2 -70 -2 -84 -10 -41 -57 -87 -121 -118 -37 -18 -49
-28 -32 -25 30 5 32 -1 28 -83 -3 -57 -38 -113 -88 -139 -26 -14 -32 -20 -19
-21 37 0 103 40 121 75 l19 34 34 -30 c31 -28 36 -29 50 -15 20 20 4 41 -44
56 -19 6 -34 15 -34 20 0 4 27 18 60 30 60 22 75 42 43 54 -11 5 -29 -6 -56
-31 l-40 -38 6 29 c3 19 -1 34 -14 47 -18 18 -17 19 32 40 27 12 59 33 70 47
l20 26 93 -47 c95 -49 111 -53 120 -38 20 31 -29 63 -124 82 -36 7 -69 16 -74
20 -4 4 34 21 85 37 101 33 116 48 73 77 -26 17 -26 17 -68 -23 -35 -34 -75
-62 -89 -62 -6 0 8 84 16 97 8 13 -29 43 -53 43 -14 0 -16 -10 -12 -60z"/>
<path d="M256 812 c-7 -12 49 -87 64 -87 19 0 25 41 10 60 -14 17 -68 36 -74
27z"/>
<path d="M561 577 c3 -100 -53 -172 -130 -169 -40 2 -40 1 -30 -24 5 -15 8
-28 6 -30 -2 -2 -78 -9 -170 -16 -92 -7 -167 -16 -167 -21 0 -19 65 -35 110
-27 25 5 87 12 139 16 l94 7 -6 -120 c-7 -133 -2 -165 21 -161 23 4 32 52 32
158 -1 52 -1 103 -1 113 1 16 17 17 187 17 198 0 217 6 143 43 -31 15 -47 16
-115 7 -43 -5 -108 -11 -144 -13 -62 -4 -65 -3 -65 19 0 18 7 24 32 29 18 3
46 19 62 35 16 17 33 30 36 30 4 0 24 -13 45 -30 43 -34 70 -39 70 -12 0 28
-29 49 -79 59 -41 8 -43 10 -28 25 9 9 42 19 77 23 33 4 62 10 65 15 2 4 -5
16 -16 26 -16 15 -23 16 -37 6 -9 -6 -34 -21 -54 -32 l-37 -20 9 29 c6 23 4
33 -8 44 -39 32 -42 30 -41 -26z"/>
<path d="M167 539 c33 -56 63 -63 63 -15 0 23 -33 46 -66 46 -13 0 -12 -5 3
-31z"/>
<path d="M460 550 c0 -6 7 -25 16 -41 12 -25 18 -28 30 -18 20 17 17 35 -8 53
-26 19 -38 20 -38 6z"/>
<path d="M235 222 c-3 -11 -31 -44 -62 -75 -32 -32 -52 -57 -46 -57 25 0 102
40 137 70 40 36 45 54 17 70 -28 14 -39 13 -46 -8z"/>
<path d="M626 178 c94 -89 117 -97 117 -43 0 36 -27 61 -90 85 -95 36 -101 27
-27 -42z"/>
</g>
</svg>
