<?xml version="1.0" standalone="no"?>
<!DOCTYPE svg PUBLIC "-//W3C//DTD SVG 20010904//EN"
 "http://www.w3.org/TR/2001/REC-SVG-20010904/DTD/svg10.dtd">
<svg version="1.0" xmlns="http://www.w3.org/2000/svg"
 width="96.000000pt" height="68.000000pt" viewBox="0 0 96.000000 68.000000"
 preserveAspectRatio="xMidYMid meet">
<metadata>
Created by potrace 1.16, written by Peter Selinger 2001-2019
</metadata>
<g transform="translate(0.000000,68.000000) scale(0.100000,-0.100000)"
fill="#000000" stroke="none">
<path d="M234 568 c4 -13 10 -52 13 -87 7 -74 4 -77 -77 -87 -81 -10 -84 -18
-7 -24 l68 -5 -28 -54 c-15 -30 -48 -76 -72 -103 -24 -27 -42 -51 -39 -53 9
-9 79 47 114 93 l37 47 -8 -85 c-11 -119 -10 -149 4 -163 10 -9 15 -8 27 7 10
15 14 51 14 140 l0 119 25 -23 c20 -19 28 -21 38 -11 9 10 7 16 -12 32 -13 10
-29 19 -37 19 -8 0 -14 10 -14 25 0 20 7 26 41 35 50 14 47 36 -4 32 l-36 -3
5 38 c3 21 7 51 10 67 5 34 -19 66 -49 66 -15 0 -18 -5 -13 -22z"/>
</g>
</svg>
