<?xml version="1.0" standalone="no"?>
<!DOCTYPE svg PUBLIC "-//W3C//DTD SVG 20010904//EN"
 "http://www.w3.org/TR/2001/REC-SVG-20010904/DTD/svg10.dtd">
<svg version="1.0" xmlns="http://www.w3.org/2000/svg"
 width="96.000000pt" height="68.000000pt" viewBox="0 0 96.000000 68.000000"
 preserveAspectRatio="xMidYMid meet">
<metadata>
Created by potrace 1.16, written by Peter Selinger 2001-2019
</metadata>
<g transform="translate(0.000000,68.000000) scale(0.100000,-0.100000)"
fill="#000000" stroke="none">
<path d="M350 358 c-74 -10 -152 -16 -174 -13 l-38 6 6 -33 c3 -18 9 -75 12
-125 5 -68 11 -93 20 -93 11 0 14 24 14 108 l0 108 89 12 c48 7 116 12 150 12
l61 0 0 -84 c0 -47 -4 -96 -10 -110 -8 -23 -12 -24 -41 -16 -18 5 -34 9 -35 7
-1 -1 10 -17 25 -36 55 -67 102 -16 115 124 3 33 8 74 12 92 5 28 3 33 -24 47
-17 9 -35 15 -39 15 -4 -1 -69 -10 -143 -21z"/>
</g>
</svg>
