<?xml version="1.0" standalone="no"?>
<!DOCTYPE svg PUBLIC "-//W3C//DTD SVG 20010904//EN"
 "http://www.w3.org/TR/2001/REC-SVG-20010904/DTD/svg10.dtd">
<svg version="1.0" xmlns="http://www.w3.org/2000/svg"
 width="96.000000pt" height="68.000000pt" viewBox="0 0 96.000000 68.000000"
 preserveAspectRatio="xMidYMid meet">
<metadata>
Created by potrace 1.16, written by Peter Selinger 2001-2019
</metadata>
<g transform="translate(0.000000,68.000000) scale(0.100000,-0.100000)"
fill="#000000" stroke="none">
<path d="M590 534 c6 -14 10 -39 10 -55 0 -25 -4 -29 -27 -30 -16 0 -37 -4
-48 -9 -15 -6 -8 -9 28 -9 44 -1 48 -3 45 -23 -3 -20 -11 -24 -56 -29 -29 -4
-56 -10 -59 -13 -9 -8 52 -6 202 8 114 10 127 13 107 24 -21 12 -82 10 -134
-5 -14 -3 -18 2 -18 20 0 22 6 26 45 32 28 4 43 10 39 17 -4 6 -23 8 -46 5
l-39 -5 3 40 c2 41 -11 58 -44 58 -15 0 -16 -4 -8 -26z"/>
</g>
</svg>
