<?xml version="1.0" standalone="no"?>
<!DOCTYPE svg PUBLIC "-//W3C//DTD SVG 20010904//EN"
 "http://www.w3.org/TR/2001/REC-SVG-20010904/DTD/svg10.dtd">
<svg version="1.0" xmlns="http://www.w3.org/2000/svg"
 width="96.000000pt" height="68.000000pt" viewBox="0 0 96.000000 68.000000"
 preserveAspectRatio="xMidYMid meet">
<metadata>
Created by potrace 1.16, written by Peter Selinger 2001-2019
</metadata>
<g transform="translate(0.000000,68.000000) scale(0.100000,-0.100000)"
fill="#000000" stroke="none">
<path d="M610 255 c0 -8 -8 -15 -17 -16 -15 0 -15 -2 2 -8 11 -5 25 -6 30 -3
6 3 4 -2 -4 -11 -7 -9 -10 -17 -5 -17 4 0 3 -5 -4 -12 -8 -8 -8 -17 -1 -30 5
-10 7 -23 4 -28 -3 -5 -1 -11 4 -14 12 -7 25 30 16 44 -6 9 22 15 53 11 6 -1
12 3 12 8 0 15 -18 23 -25 11 -3 -5 -15 -10 -25 -10 -16 0 -17 4 -8 36 7 28 7
39 -4 45 -19 13 -28 11 -28 -6z"/>
<path d="M665 240 c-7 -12 2 -12 30 0 19 8 19 9 -2 9 -12 1 -25 -3 -28 -9z"/>
<path d="M725 190 c11 -5 27 -9 35 -9 9 0 8 4 -5 9 -11 5 -27 9 -35 9 -9 0 -8
-4 5 -9z"/>
<path d="M530 170 c8 -5 22 -9 30 -9 10 0 8 3 -5 9 -27 12 -43 12 -25 0z"/>
</g>
</svg>
