<?xml version="1.0" standalone="no"?>
<!DOCTYPE svg PUBLIC "-//W3C//DTD SVG 20010904//EN"
 "http://www.w3.org/TR/2001/REC-SVG-20010904/DTD/svg10.dtd">
<svg version="1.0" xmlns="http://www.w3.org/2000/svg"
 width="96.000000pt" height="68.000000pt" viewBox="0 0 96.000000 68.000000"
 preserveAspectRatio="xMidYMid meet">
<metadata>
Created by potrace 1.16, written by Peter Selinger 2001-2019
</metadata>
<g transform="translate(0.000000,68.000000) scale(0.100000,-0.100000)"
fill="#000000" stroke="none">
<path d="M490 583 c0 -5 9 -22 19 -39 l19 -32 -116 -12 c-144 -14 -151 -16
-127 -34 16 -11 17 -23 12 -87 -8 -115 -50 -214 -134 -318 l-28 -35 34 20 c81
46 148 178 173 342 10 63 15 75 35 83 13 5 85 13 160 19 76 6 158 13 183 16
44 6 44 6 20 19 -18 9 -41 10 -80 4 -92 -13 -100 -12 -100 14 0 13 -5 28 -12
35 -13 13 -58 17 -58 5z"/>
<path d="M156 398 c42 -51 74 -63 74 -29 0 24 -36 51 -69 51 -24 0 -24 0 -5
-22z"/>
<path d="M237 313 c-3 -5 -31 -22 -62 -37 -56 -29 -63 -41 -32 -60 12 -8 22
-5 43 14 34 32 68 80 61 86 -3 3 -7 1 -10 -3z"/>
</g>
</svg>
