<?xml version="1.0" standalone="no"?>
<!DOCTYPE svg PUBLIC "-//W3C//DTD SVG 20010904//EN"
 "http://www.w3.org/TR/2001/REC-SVG-20010904/DTD/svg10.dtd">
<svg version="1.0" xmlns="http://www.w3.org/2000/svg"
 width="96.000000pt" height="68.000000pt" viewBox="0 0 96.000000 68.000000"
 preserveAspectRatio="xMidYMid meet">
<metadata>
Created by potrace 1.16, written by Peter Selinger 2001-2019
</metadata>
<g transform="translate(0.000000,68.000000) scale(0.100000,-0.100000)"
fill="#000000" stroke="none">
<path d="M650 412 c0 -25 -5 -30 -31 -36 -46 -9 -47 -8 -51 17 -2 14 -11 23
-25 25 -20 3 -23 -1 -23 -27 0 -25 -4 -31 -22 -32 -21 -1 -21 -2 5 -12 22 -9
27 -17 27 -44 0 -33 0 -33 -50 -33 -27 0 -50 -4 -50 -10 0 -5 17 -10 38 -10
57 0 346 22 352 27 14 13 -33 23 -88 18 l-63 -6 7 28 c9 39 10 40 44 47 33 6
33 26 0 26 -12 0 -20 8 -22 23 -2 14 -11 23 -25 25 -19 3 -23 -1 -23 -26z m-6
-100 c-6 -28 -10 -32 -40 -32 -32 0 -34 2 -34 34 0 32 3 35 33 38 42 4 49 -2
41 -40z"/>
</g>
</svg>
