<?xml version="1.0" standalone="no"?>
<!DOCTYPE svg PUBLIC "-//W3C//DTD SVG 20010904//EN"
 "http://www.w3.org/TR/2001/REC-SVG-20010904/DTD/svg10.dtd">
<svg version="1.0" xmlns="http://www.w3.org/2000/svg"
 width="96.000000pt" height="68.000000pt" viewBox="0 0 96.000000 68.000000"
 preserveAspectRatio="xMidYMid meet">
<metadata>
Created by potrace 1.16, written by Peter Selinger 2001-2019
</metadata>
<g transform="translate(0.000000,68.000000) scale(0.100000,-0.100000)"
fill="#000000" stroke="none">
<path d="M475 464 c-44 -7 -119 -14 -167 -16 -83 -3 -105 -9 -75 -21 7 -3 23
-39 35 -81 13 -42 25 -76 27 -76 3 0 13 4 23 9 24 13 225 29 237 19 22 -19 38
-4 71 68 19 41 34 79 34 83 0 13 -49 31 -78 30 -15 -1 -63 -8 -107 -15z m105
-38 c0 -22 -4 -24 -50 -24 -28 -1 -55 -4 -60 -7 -13 -8 -24 20 -16 40 4 11 21
15 66 15 57 0 60 -1 60 -24z m-170 -16 l0 -31 -57 3 c-50 3 -58 6 -58 23 0 17
9 21 50 26 28 3 53 7 58 7 4 1 7 -12 7 -28z m156 -55 c-6 -23 -11 -25 -61 -25
-48 0 -55 3 -55 19 0 16 9 21 48 26 26 4 52 8 57 9 16 5 18 -1 11 -29z m-156
-14 c0 -15 -10 -21 -40 -26 -45 -8 -60 -2 -60 26 0 16 7 19 50 19 43 0 50 -3
50 -19z"/>
</g>
</svg>
