<?xml version="1.0" standalone="no"?>
<!DOCTYPE svg PUBLIC "-//W3C//DTD SVG 20010904//EN"
 "http://www.w3.org/TR/2001/REC-SVG-20010904/DTD/svg10.dtd">
<svg version="1.0" xmlns="http://www.w3.org/2000/svg"
 width="96.000000pt" height="68.000000pt" viewBox="0 0 96.000000 68.000000"
 preserveAspectRatio="xMidYMid meet">
<metadata>
Created by potrace 1.16, written by Peter Selinger 2001-2019
</metadata>
<g transform="translate(0.000000,68.000000) scale(0.100000,-0.100000)"
fill="#000000" stroke="none">
<path d="M445 548 c11 -33 23 -194 24 -320 1 -101 2 -108 21 -108 19 0 20 7
20 105 l0 105 64 0 c81 0 126 9 126 26 0 19 -37 21 -100 7 -75 -17 -79 -16
-86 11 -5 22 7 112 21 148 7 19 -38 48 -76 48 -18 0 -20 -4 -14 -22z"/>
</g>
</svg>
