<?xml version="1.0" standalone="no"?>
<!DOCTYPE svg PUBLIC "-//W3C//DTD SVG 20010904//EN"
 "http://www.w3.org/TR/2001/REC-SVG-20010904/DTD/svg10.dtd">
<svg version="1.0" xmlns="http://www.w3.org/2000/svg"
 width="90.000000pt" height="92.000000pt" viewBox="0 0 90.000000 92.000000"
 preserveAspectRatio="xMidYMid meet">
<metadata>
Created by potrace 1.16, written by Peter Selinger 2001-2019
</metadata>
<g transform="translate(0.000000,92.000000) scale(0.100000,-0.100000)"
fill="#000000" stroke="none">
<path d="M559 868 c0 -2 -2 -26 -4 -55 -5 -81 -10 -90 -56 -96 -22 -3 -44 -8
-47 -12 -10 -10 20 -25 50 -25 l27 0 -20 -57 -19 -57 24 23 c13 12 31 39 41
61 20 43 35 50 121 50 34 0 68 6 78 13 17 13 16 15 -14 27 -24 10 -47 11 -90
4 l-57 -10 20 49 21 49 -25 19 c-21 16 -47 25 -50 17z"/>
<path d="M240 812 c0 -4 9 -25 20 -47 11 -22 20 -44 20 -51 0 -15 -47 -24
-121 -24 -33 0 -59 -4 -59 -8 0 -9 36 -44 56 -55 6 -4 34 3 63 13 71 27 77 26
93 -21 17 -53 33 -47 32 13 -2 45 0 48 32 58 48 16 44 33 -6 25 -39 -7 -40 -6
-41 22 -1 45 -7 65 -21 74 -17 11 -68 12 -68 1z"/>
<path d="M552 538 c-13 -51 -63 -135 -98 -164 -23 -19 -24 -23 -13 -48 8 -18
18 -26 28 -22 9 2 40 11 69 19 l52 15 -19 -27 c-11 -15 -47 -56 -80 -90 -50
-52 -59 -66 -51 -81 13 -24 31 -30 55 -17 20 10 209 68 210 64 10 -26 59 -87
68 -84 7 2 13 23 15 46 3 37 -1 46 -31 75 -40 37 -100 69 -105 56 -2 -6 6 -22
17 -36 12 -15 20 -29 18 -31 -7 -6 -171 -33 -175 -28 -3 3 46 57 109 120 l114
116 -16 27 c-15 27 -49 43 -49 23 0 -6 -9 -31 -21 -56 -19 -40 -25 -45 -63
-50 -24 -4 -53 -5 -66 -3 -22 3 -19 8 39 85 33 44 61 86 61 91 0 15 -29 42
-45 42 -7 0 -17 -19 -23 -42z"/>
<path d="M234 543 c-14 -47 -61 -127 -95 -163 -42 -43 -47 -61 -25 -79 11 -9
27 -8 70 4 31 9 61 15 67 13 13 -4 -79 -124 -116 -151 -30 -23 -31 -27 -5 -55
19 -20 23 -21 43 -7 22 14 151 65 166 65 4 0 13 -11 19 -25 12 -26 41 -34 43
-12 5 50 -10 85 -47 107 -40 26 -52 21 -36 -15 6 -13 8 -26 4 -29 -13 -8 -126
-35 -130 -31 -4 4 109 137 177 208 45 47 45 47 29 75 -25 41 -45 40 -59 -6 -6
-22 -21 -52 -33 -66 -19 -25 -26 -27 -83 -24 l-63 3 70 77 c39 42 70 80 70 86
0 12 -34 42 -49 42 -6 0 -14 -8 -17 -17z"/>
</g>
</svg>
