<?xml version="1.0" standalone="no"?>
<!DOCTYPE svg PUBLIC "-//W3C//DTD SVG 20010904//EN"
 "http://www.w3.org/TR/2001/REC-SVG-20010904/DTD/svg10.dtd">
<svg version="1.0" xmlns="http://www.w3.org/2000/svg"
 width="96.000000pt" height="68.000000pt" viewBox="0 0 96.000000 68.000000"
 preserveAspectRatio="xMidYMid meet">
<metadata>
Created by potrace 1.16, written by Peter Selinger 2001-2019
</metadata>
<g transform="translate(0.000000,68.000000) scale(0.100000,-0.100000)"
fill="#000000" stroke="none">
<path d="M661 307 c-21 -35 -140 -152 -181 -179 -24 -15 -24 -17 -8 -34 16
-16 20 -16 70 -1 29 9 77 22 106 28 l54 11 27 -33 c30 -35 51 -33 51 6 0 28
-19 49 -71 75 -52 27 -67 25 -40 -4 12 -13 19 -26 14 -29 -4 -3 -42 -8 -83
-11 -62 -6 -72 -5 -59 6 105 86 179 153 179 163 0 12 -20 35 -31 35 -4 0 -17
-15 -28 -33z"/>
</g>
</svg>
