<?xml version="1.0" standalone="no"?>
<!DOCTYPE svg PUBLIC "-//W3C//DTD SVG 20010904//EN"
 "http://www.w3.org/TR/2001/REC-SVG-20010904/DTD/svg10.dtd">
<svg version="1.0" xmlns="http://www.w3.org/2000/svg"
 width="90.000000pt" height="92.000000pt" viewBox="0 0 90.000000 92.000000"
 preserveAspectRatio="xMidYMid meet">
<metadata>
Created by potrace 1.16, written by Peter Selinger 2001-2019
</metadata>
<g transform="translate(0.000000,92.000000) scale(0.100000,-0.100000)"
fill="#000000" stroke="none">
<path d="M490 859 c0 -6 13 -33 29 -60 33 -53 33 -53 -43 -64 -50 -8 -60 -21
-21 -31 18 -4 29 -19 44 -58 20 -55 16 -65 -29 -67 -14 0 -34 -4 -45 -8 -19
-8 -19 -8 3 -20 17 -9 41 -8 119 8 54 11 135 22 181 26 45 4 84 11 87 16 3 4
-8 15 -25 24 -26 14 -37 14 -90 2 -33 -8 -60 -13 -60 -10 0 2 11 22 25 44 15
23 24 48 20 58 -4 14 1 20 20 25 30 8 32 21 6 36 -14 7 -31 6 -61 -5 -58 -20
-60 -20 -60 20 0 28 -5 37 -27 48 -46 24 -73 30 -73 16z m140 -163 c0 -35 -28
-96 -44 -96 -8 0 -21 -3 -29 -6 -11 -4 -13 1 -10 19 3 16 -4 34 -22 55 l-26
31 38 6 c21 4 43 8 48 10 30 10 45 4 45 -19z"/>
<path d="M180 829 c0 -6 13 -33 30 -60 l29 -48 -47 -7 c-26 -4 -56 -10 -67
-14 -19 -7 -18 -9 7 -19 17 -6 33 -25 43 -48 28 -67 26 -76 -25 -85 -102 -17
-110 -19 -104 -29 16 -27 55 -28 146 -4 50 13 117 27 149 31 33 4 59 10 59 15
0 16 -42 30 -71 24 l-29 -7 29 50 c21 35 26 53 18 61 -7 7 -3 13 16 20 15 6
27 15 27 21 0 16 -43 22 -74 11 -35 -14 -49 -14 -41 0 11 17 -4 58 -28 73 -34
22 -67 29 -67 15z m120 -154 c0 -8 -5 -35 -12 -59 -9 -34 -17 -45 -35 -49 -20
-4 -23 0 -23 24 0 15 -11 41 -25 58 l-26 30 38 4 c77 8 83 7 83 -8z"/>
<path d="M615 523 c-22 -8 -70 -17 -107 -20 -61 -5 -86 -15 -58 -25 6 -2 17
-28 25 -58 8 -30 21 -60 29 -65 29 -22 -34 -140 -114 -212 -41 -38 -24 -43 34
-9 46 27 93 81 126 145 18 35 20 49 11 67 -9 21 -8 24 8 24 26 0 31 -19 31
-115 0 -96 10 -125 50 -148 40 -24 136 -23 177 3 48 29 53 47 28 115 l-22 59
-7 -48 c-10 -66 -33 -86 -100 -86 -36 0 -60 5 -70 16 -20 20 -21 97 -2 152 11
29 11 43 3 51 -8 8 -4 11 17 11 20 0 27 4 23 14 -3 8 6 38 20 67 25 50 26 52
8 65 -23 17 -58 16 -110 -3z m46 -65 c-5 -25 -14 -34 -46 -45 -22 -8 -53 -12
-70 -11 -25 2 -31 8 -35 33 -5 29 -3 31 40 41 25 7 61 12 81 13 36 1 36 0 30
-31z"/>
<path d="M302 493 c-18 -7 -66 -19 -107 -25 -67 -10 -73 -13 -61 -27 8 -9 19
-35 25 -58 7 -23 19 -46 27 -51 34 -19 -44 -141 -130 -204 -42 -30 -35 -36 18
-14 47 20 104 73 144 135 29 45 33 58 23 73 -10 16 -8 18 13 18 30 0 36 -31
24 -131 -7 -57 -6 -75 5 -86 11 -12 23 -2 75 62 34 41 59 75 56 75 -3 0 -24
-14 -45 -31 l-39 -31 0 76 c0 63 3 76 16 76 10 0 14 5 10 15 -6 17 10 60 32
87 17 21 10 33 -25 45 -20 7 -38 6 -61 -4z m18 -68 c0 -31 -3 -35 -37 -44 -81
-20 -81 -20 -87 3 -12 44 -7 53 37 63 79 19 87 17 87 -22z"/>
</g>
</svg>
