<?xml version="1.0" standalone="no"?>
<!DOCTYPE svg PUBLIC "-//W3C//DTD SVG 20010904//EN"
 "http://www.w3.org/TR/2001/REC-SVG-20010904/DTD/svg10.dtd">
<svg version="1.0" xmlns="http://www.w3.org/2000/svg"
 width="96.000000pt" height="68.000000pt" viewBox="0 0 96.000000 68.000000"
 preserveAspectRatio="xMidYMid meet">
<metadata>
Created by potrace 1.16, written by Peter Selinger 2001-2019
</metadata>
<g transform="translate(0.000000,68.000000) scale(0.100000,-0.100000)"
fill="#000000" stroke="none">
<path d="M295 550 c-16 -4 -50 -8 -74 -9 -37 -1 -42 -3 -35 -18 4 -10 10 -47
13 -83 l6 -65 75 3 c49 2 79 8 86 18 6 7 19 43 29 80 15 56 16 67 4 75 -16 10
-62 10 -104 -1z m58 -31 c9 -35 -1 -44 -59 -46 -55 -3 -55 -2 -52 25 3 27 10
30 94 41 7 0 14 -8 17 -20z m-3 -76 c0 -30 -13 -38 -62 -41 -46 -3 -48 -2 -48
22 0 22 5 25 43 29 23 2 48 4 55 5 6 1 12 -6 12 -15z"/>
</g>
</svg>
