<?xml version="1.0" standalone="no"?>
<!DOCTYPE svg PUBLIC "-//W3C//DTD SVG 20010904//EN"
 "http://www.w3.org/TR/2001/REC-SVG-20010904/DTD/svg10.dtd">
<svg version="1.0" xmlns="http://www.w3.org/2000/svg"
 width="90.000000pt" height="92.000000pt" viewBox="0 0 90.000000 92.000000"
 preserveAspectRatio="xMidYMid meet">
<metadata>
Created by potrace 1.16, written by Peter Selinger 2001-2019
</metadata>
<g transform="translate(0.000000,92.000000) scale(0.100000,-0.100000)"
fill="#000000" stroke="none">
<path d="M466 809 c-12 -73 -91 -214 -164 -291 -46 -49 -22 -51 39 -4 49 39
106 109 139 174 12 23 28 42 35 42 7 0 53 -43 101 -96 109 -119 124 -127 201
-113 75 14 84 24 36 39 -85 28 -162 70 -243 134 -47 38 -84 71 -83 74 1 4 4
15 8 24 4 10 -1 24 -14 37 -32 32 -48 26 -55 -20z"/>
<path d="M137 804 c-3 -4 -2 -15 3 -25 6 -10 13 -58 16 -107 l7 -90 -52 -11
c-29 -6 -63 -11 -76 -11 -13 0 -26 -4 -30 -9 -11 -19 34 -32 85 -25 27 4 50 5
50 2 0 -28 -75 -178 -118 -235 -13 -18 -22 -38 -20 -44 5 -15 74 58 116 124
l33 52 -6 -100 c-3 -55 -10 -117 -14 -138 -10 -40 2 -101 20 -113 27 -16 34
21 39 194 l5 177 25 -37 c30 -45 53 -50 48 -10 -2 19 -13 32 -40 47 -29 15
-38 26 -38 45 0 38 15 54 61 65 49 12 59 29 29 45 -16 8 -30 9 -52 1 l-31 -11
7 68 c3 37 9 77 12 89 5 17 -1 26 -27 42 -37 23 -42 24 -52 15z"/>
<path d="M520 564 c-25 -7 -60 -13 -78 -13 -39 -1 -39 -21 -1 -32 23 -6 137 5
167 16 19 7 14 21 -13 33 -14 7 -27 11 -28 11 -1 -1 -22 -7 -47 -15z"/>
<path d="M656 463 c5 -16 9 -95 9 -178 l0 -150 -38 2 -38 3 38 -50 c73 -95 91
-58 94 189 2 169 1 185 -16 197 -10 8 -27 14 -38 14 -16 0 -18 -4 -11 -27z"/>
<path d="M425 454 c-16 -7 -49 -13 -73 -14 -41 0 -42 -1 -35 -27 5 -16 8 -68
7 -118 0 -78 -4 -97 -28 -145 -28 -54 -28 -54 -5 -38 20 13 61 70 72 101 1 5
22 12 45 17 l43 7 -3 -46 c-3 -45 -3 -46 -36 -43 l-34 2 38 -45 37 -46 21 21
c19 19 22 36 26 183 4 97 2 167 -4 175 -18 24 -40 29 -71 16z m25 -67 c0 -30
-4 -34 -40 -44 l-40 -10 0 38 c0 39 8 47 53 48 24 1 27 -2 27 -32z m0 -90 c0
-19 -8 -26 -41 -36 -48 -14 -52 -12 -44 22 5 20 15 27 38 30 18 2 35 5 40 5 4
1 7 -9 7 -21z"/>
<path d="M566 308 c2 -56 7 -104 9 -107 13 -13 23 22 29 101 6 80 4 88 -13 98
-11 5 -22 10 -25 10 -3 0 -3 -46 0 -102z"/>
</g>
</svg>
