<?xml version="1.0" standalone="no"?>
<!DOCTYPE svg PUBLIC "-//W3C//DTD SVG 20010904//EN"
 "http://www.w3.org/TR/2001/REC-SVG-20010904/DTD/svg10.dtd">
<svg version="1.0" xmlns="http://www.w3.org/2000/svg"
 width="96.000000pt" height="68.000000pt" viewBox="0 0 96.000000 68.000000"
 preserveAspectRatio="xMidYMid meet">
<metadata>
Created by potrace 1.16, written by Peter Selinger 2001-2019
</metadata>
<g transform="translate(0.000000,68.000000) scale(0.100000,-0.100000)"
fill="#000000" stroke="none">
<path d="M298 535 l4 -64 -51 -7 c-68 -9 -65 -24 5 -24 l55 0 -3 -32 -3 -33
-102 -14 c-57 -8 -103 -18 -103 -23 0 -19 56 -19 147 1 54 11 123 23 153 26
76 9 90 14 69 25 -9 5 -38 6 -68 1 l-52 -8 3 36 c2 27 8 37 23 39 46 7 65 13
65 21 0 15 -28 20 -59 11 l-31 -9 0 60 c0 58 -1 59 -27 59 l-28 0 3 -65z"/>
</g>
</svg>
