<?xml version="1.0" standalone="no"?>
<!DOCTYPE svg PUBLIC "-//W3C//DTD SVG 20010904//EN"
 "http://www.w3.org/TR/2001/REC-SVG-20010904/DTD/svg10.dtd">
<svg version="1.0" xmlns="http://www.w3.org/2000/svg"
 width="96.000000pt" height="68.000000pt" viewBox="0 0 96.000000 68.000000"
 preserveAspectRatio="xMidYMid meet">
<metadata>
Created by potrace 1.16, written by Peter Selinger 2001-2019
</metadata>
<g transform="translate(0.000000,68.000000) scale(0.100000,-0.100000)"
fill="#000000" stroke="none">
<path d="M670 330 c-17 -5 -19 -8 -7 -9 9 -1 17 -8 17 -16 0 -8 7 -15 16 -15
9 0 12 -5 8 -12 -4 -7 -3 -8 5 -4 6 4 9 12 6 17 -4 5 1 12 10 15 13 5 14 9 4
15 -7 4 -19 3 -26 -3 -10 -8 -12 -7 -7 6 3 9 5 16 3 15 -2 -1 -15 -5 -29 -9z"/>
<path d="M665 249 c-23 -45 -22 -44 -42 -28 -15 13 -15 12 -5 -6 9 -17 6 -25
-16 -47 -14 -16 -20 -28 -14 -28 7 0 15 6 18 13 8 22 65 19 71 -3 7 -27 68
-54 101 -44 15 4 34 6 42 5 23 -4 6 9 -18 14 -12 2 -42 13 -67 24 -25 11 -45
17 -45 13 0 -3 -5 -1 -12 6 -13 13 -21 65 -8 57 15 -9 32 23 22 41 -8 15 -12
13 -27 -17z"/>
</g>
</svg>
