<?xml version="1.0" standalone="no"?>
<!DOCTYPE svg PUBLIC "-//W3C//DTD SVG 20010904//EN"
 "http://www.w3.org/TR/2001/REC-SVG-20010904/DTD/svg10.dtd">
<svg version="1.0" xmlns="http://www.w3.org/2000/svg"
 width="96.000000pt" height="68.000000pt" viewBox="0 0 96.000000 68.000000"
 preserveAspectRatio="xMidYMid meet">
<metadata>
Created by potrace 1.16, written by Peter Selinger 2001-2019
</metadata>
<g transform="translate(0.000000,68.000000) scale(0.100000,-0.100000)"
fill="#000000" stroke="none">
<path d="M533 553 c-17 -53 -54 -125 -87 -171 -42 -58 -38 -68 9 -22 l31 30
37 -25 c20 -14 37 -31 37 -38 -1 -13 -69 -67 -140 -109 -25 -15 -38 -28 -30
-28 24 0 99 38 150 75 26 19 51 35 55 35 5 0 32 -18 61 -40 54 -40 93 -49 152
-34 36 10 26 19 -45 38 -38 10 -82 26 -99 37 -17 10 -34 16 -37 12 -4 -3 -7 1
-7 10 0 9 23 43 50 77 l51 60 -25 11 c-19 9 -40 9 -82 0 -32 -6 -60 -9 -63 -6
-3 3 3 21 13 40 16 28 17 37 6 50 -16 20 -29 19 -37 -2z m103 -130 c-9 -16
-24 -39 -34 -52 l-19 -23 -41 26 c-23 14 -42 30 -42 35 0 23 40 36 118 40 l33
1 -15 -27z"/>
<path d="M270 509 c-25 -6 -61 -8 -80 -7 l-35 3 2 -120 c2 -66 3 -129 3 -140
0 -11 5 -27 10 -35 8 -12 11 -13 19 -1 12 19 24 -4 15 -31 -4 -13 -24 -41 -45
-63 -50 -51 -50 -65 -1 -28 103 76 129 111 84 115 -9 0 3 4 28 7 32 5 50 2 63
-8 12 -10 21 -11 28 -4 5 5 14 73 18 149 8 132 8 140 -11 157 -22 19 -31 19
-98 6z m50 -64 c0 -33 -2 -35 -32 -35 -18 0 -43 -3 -55 -6 -21 -6 -23 -3 -23
29 0 39 8 44 73 46 36 1 37 0 37 -34z m0 -90 c0 -17 -6 -25 -17 -25 -10 0 -35
-3 -55 -6 -36 -6 -38 -5 -38 19 0 27 12 32 83 36 23 1 27 -3 27 -24z m4 -80
c10 -39 0 -45 -68 -45 l-63 0 5 29 c4 27 8 30 46 34 22 2 48 4 57 5 10 1 19
-8 23 -23z"/>
<path d="M590 194 c-47 -8 -100 -12 -117 -9 -18 3 -33 5 -33 3 5 -28 50 -143
56 -143 5 0 53 4 107 9 74 6 97 11 97 22 0 8 9 34 20 57 l21 42 -22 18 c-12 9
-26 16 -33 16 -6 -1 -49 -8 -96 -15z m76 -56 c-4 -24 -11 -47 -16 -52 -5 -5
-39 -10 -76 -10 l-66 -1 -13 43 c-12 40 -12 42 9 47 22 5 78 11 135 13 l34 2
-7 -42z"/>
<path d="M307 167 c37 -63 56 -87 68 -87 24 0 17 39 -10 64 -28 26 -70 42 -58
23z"/>
</g>
</svg>
