<?xml version="1.0" standalone="no"?>
<!DOCTYPE svg PUBLIC "-//W3C//DTD SVG 20010904//EN"
 "http://www.w3.org/TR/2001/REC-SVG-20010904/DTD/svg10.dtd">
<svg version="1.0" xmlns="http://www.w3.org/2000/svg"
 width="96.000000pt" height="68.000000pt" viewBox="0 0 96.000000 68.000000"
 preserveAspectRatio="xMidYMid meet">
<metadata>
Created by potrace 1.16, written by Peter Selinger 2001-2019
</metadata>
<g transform="translate(0.000000,68.000000) scale(0.100000,-0.100000)"
fill="#000000" stroke="none">
<path d="M220 405 c0 -12 61 -65 75 -65 26 0 18 45 -10 58 -26 12 -65 16 -65
7z"/>
<path d="M188 280 c38 -35 62 -39 62 -10 0 22 -34 40 -73 40 -20 -1 -19 -3 11
-30z"/>
<path d="M261 216 c-24 -25 -57 -50 -73 -57 -34 -14 -38 -47 -8 -74 11 -10 22
-16 23 -14 9 10 96 148 106 168 19 34 -1 24 -48 -23z"/>
</g>
</svg>
