<?xml version="1.0" standalone="no"?>
<!DOCTYPE svg PUBLIC "-//W3C//DTD SVG 20010904//EN"
 "http://www.w3.org/TR/2001/REC-SVG-20010904/DTD/svg10.dtd">
<svg version="1.0" xmlns="http://www.w3.org/2000/svg"
 width="90.000000pt" height="92.000000pt" viewBox="0 0 90.000000 92.000000"
 preserveAspectRatio="xMidYMid meet">
<metadata>
Created by potrace 1.16, written by Peter Selinger 2001-2019
</metadata>
<g transform="translate(0.000000,92.000000) scale(0.100000,-0.100000)"
fill="#000000" stroke="none">
<path d="M660 837 c0 -15 -36 -88 -65 -131 -19 -29 -19 -29 0 -18 24 12 139
111 143 123 3 8 -50 39 -68 39 -5 0 -10 -6 -10 -13z"/>
<path d="M376 788 c15 -48 75 -115 93 -103 17 10 13 62 -6 81 -15 15 -73 44
-88 44 -4 0 -3 -10 1 -22z"/>
<path d="M145 778 c8 -27 23 -200 18 -210 -2 -4 -31 -10 -64 -14 -78 -9 -72
-28 9 -32 l62 -3 0 -93 0 -94 -71 -26 c-38 -14 -77 -26 -85 -26 -25 0 -11 -32
22 -52 l31 -18 126 85 c129 87 159 113 116 100 -13 -4 -36 -14 -51 -21 -15 -8
-30 -14 -33 -14 -3 0 -4 39 -3 87 l3 87 31 7 c59 12 68 17 53 35 -10 12 -24
15 -52 11 l-40 -5 6 71 c3 40 9 82 12 94 6 17 1 25 -24 37 -16 9 -40 16 -52
16 -18 0 -20 -4 -14 -22z"/>
<path d="M636 675 c-79 -22 -222 -38 -276 -32 -27 3 -50 4 -50 2 0 -2 9 -19
19 -37 11 -18 25 -68 32 -110 12 -79 32 -122 46 -102 12 15 272 38 287 24 19
-15 38 12 76 108 18 45 36 85 41 88 34 21 -33 74 -91 73 -19 0 -57 -7 -84 -14z
m90 -77 c-4 -24 -13 -63 -21 -88 l-15 -45 -66 0 -66 -1 6 36 c3 19 6 56 6 82
0 45 1 47 33 51 17 2 54 5 81 5 l49 2 -7 -42z m-208 -66 l3 -82 -33 0 c-18 0
-42 -3 -54 -6 -19 -5 -22 1 -33 58 -7 35 -15 73 -18 85 -4 20 -1 22 49 26 88
6 83 11 86 -81z"/>
<path d="M615 563 c-11 -26 -22 -51 -24 -56 -6 -16 54 21 79 48 24 26 25 27 6
41 -31 22 -40 17 -61 -33z"/>
<path d="M421 553 c23 -63 59 -80 59 -28 0 23 -32 55 -57 55 -9 0 -9 -7 -2
-27z"/>
<path d="M576 349 c-76 -20 -123 -25 -146 -15 -13 5 -15 -11 -13 -121 2 -149
1 -134 13 -153 8 -13 11 -13 22 2 9 12 36 19 95 24 l81 6 17 -31 c20 -39 34
-36 58 10 13 24 16 45 11 74 -11 64 -12 115 -4 152 8 31 6 36 -23 54 -18 10
-34 18 -37 18 -3 -1 -36 -10 -74 -20z m84 -70 c0 -38 -2 -41 -23 -35 -13 3
-55 -1 -93 -9 -38 -8 -72 -15 -76 -15 -5 0 -8 18 -8 39 0 38 1 39 48 49 26 5
71 10 100 11 l52 1 0 -41z m0 -103 c0 -19 -3 -37 -7 -39 -5 -3 -50 -8 -100
-11 l-93 -8 0 35 0 34 68 10 c37 5 82 11 100 11 30 2 32 0 32 -32z"/>
</g>
</svg>
