<?xml version="1.0" standalone="no"?>
<!DOCTYPE svg PUBLIC "-//W3C//DTD SVG 20010904//EN"
 "http://www.w3.org/TR/2001/REC-SVG-20010904/DTD/svg10.dtd">
<svg version="1.0" xmlns="http://www.w3.org/2000/svg"
 width="96.000000pt" height="68.000000pt" viewBox="0 0 96.000000 68.000000"
 preserveAspectRatio="xMidYMid meet">
<metadata>
Created by potrace 1.16, written by Peter Selinger 2001-2019
</metadata>
<g transform="translate(0.000000,68.000000) scale(0.100000,-0.100000)"
fill="#000000" stroke="none">
<path d="M690 584 c0 -8 -11 -30 -24 -47 -35 -48 -42 -62 -25 -52 12 7 104 71
119 83 8 6 -33 32 -52 32 -10 0 -18 -7 -18 -16z"/>
<path d="M235 560 c-3 -5 -1 -18 5 -29 5 -11 10 -45 10 -75 l0 -55 -37 -6
c-21 -4 -45 -7 -53 -8 -36 -5 -10 -22 36 -25 49 -3 52 -5 58 -34 3 -17 6 -45
6 -62 0 -30 -2 -32 -75 -55 -81 -25 -94 -42 -44 -60 29 -10 41 -6 145 50 63
33 114 65 114 70 0 13 -12 11 -54 -6 l-36 -15 0 59 c0 61 7 71 50 71 10 0 22
5 26 11 10 17 -17 30 -50 24 l-29 -5 6 47 c3 27 9 58 12 70 6 19 2 23 -32 32
-47 13 -50 13 -58 1z"/>
<path d="M445 560 c-9 -15 50 -70 74 -70 43 0 14 48 -41 69 -18 7 -29 7 -33 1z"/>
<path d="M680 475 c-81 -19 -146 -27 -229 -26 l-74 1 20 -23 c11 -12 26 -49
33 -82 15 -75 17 -77 41 -65 10 6 79 12 151 15 l133 3 37 74 c21 40 38 77 38
81 0 9 -63 37 -82 36 -7 0 -38 -7 -68 -14z m70 -50 c0 -14 -7 -41 -14 -60 -13
-30 -20 -35 -48 -35 -18 0 -43 -3 -55 -6 -22 -6 -23 -4 -23 54 0 68 -1 67 98
71 39 1 42 -1 42 -24z m-180 -55 l0 -60 -50 0 c-48 0 -49 1 -56 35 -3 19 -10
38 -15 41 -5 3 -9 14 -9 25 0 17 7 19 65 19 l65 0 0 -60z"/>
<path d="M659 403 c-7 -16 -15 -31 -17 -35 -5 -12 17 -10 31 2 7 6 21 17 32
25 17 13 18 16 5 25 -24 16 -36 12 -51 -17z"/>
<path d="M480 400 c0 -18 38 -53 50 -45 8 5 8 11 -1 21 -18 22 -49 37 -49 24z"/>
<path d="M620 239 c-19 -5 -57 -10 -85 -11 l-50 -1 0 -95 c0 -67 4 -97 13 -99
6 -3 12 1 12 9 0 9 21 14 76 16 68 2 78 0 96 -20 15 -18 23 -20 36 -12 14 9
18 30 20 104 2 59 -1 97 -9 106 -13 15 -55 17 -109 3z m72 -39 c10 -28 6 -33
-29 -35 -16 -1 -54 -6 -86 -10 l-59 -8 4 29 c3 27 7 30 63 39 81 15 97 12 107
-15z m8 -74 c0 -34 -13 -40 -102 -44 l-78 -4 0 26 c0 23 4 26 38 27 20 1 51 5
67 9 59 15 75 12 75 -14z"/>
</g>
</svg>
