<?xml version="1.0" standalone="no"?>
<!DOCTYPE svg PUBLIC "-//W3C//DTD SVG 20010904//EN"
 "http://www.w3.org/TR/2001/REC-SVG-20010904/DTD/svg10.dtd">
<svg version="1.0" xmlns="http://www.w3.org/2000/svg"
 width="96.000000pt" height="68.000000pt" viewBox="0 0 96.000000 68.000000"
 preserveAspectRatio="xMidYMid meet">
<metadata>
Created by potrace 1.16, written by Peter Selinger 2001-2019
</metadata>
<g transform="translate(0.000000,68.000000) scale(0.100000,-0.100000)"
fill="#000000" stroke="none">
<path d="M585 575 c-44 -8 -102 -14 -129 -14 l-49 -1 20 -22 c12 -13 24 -44
28 -70 11 -75 17 -79 108 -69 43 5 86 7 96 4 14 -4 24 9 46 64 16 37 32 73 37
79 11 15 -12 33 -48 38 -16 2 -65 -2 -109 -9z m85 -44 c0 -27 -2 -28 -42 -27
-24 0 -67 -3 -95 -7 -52 -8 -53 -7 -53 17 0 18 6 27 23 30 12 3 31 7 42 9 11
3 44 5 73 6 51 1 52 0 52 -28z m-10 -58 c0 -35 -15 -43 -90 -45 -70 -3 -75 -2
-78 18 -3 20 4 22 75 31 43 6 81 11 86 12 4 0 7 -7 7 -16z"/>
</g>
</svg>
