<?xml version="1.0" standalone="no"?>
<!DOCTYPE svg PUBLIC "-//W3C//DTD SVG 20010904//EN"
 "http://www.w3.org/TR/2001/REC-SVG-20010904/DTD/svg10.dtd">
<svg version="1.0" xmlns="http://www.w3.org/2000/svg"
 width="90.000000pt" height="92.000000pt" viewBox="0 0 90.000000 92.000000"
 preserveAspectRatio="xMidYMid meet">
<metadata>
Created by potrace 1.16, written by Peter Selinger 2001-2019
</metadata>
<g transform="translate(0.000000,92.000000) scale(0.100000,-0.100000)"
fill="#000000" stroke="none">
<path d="M535 779 c-34 -10 -282 -54 -363 -64 -55 -7 -65 -17 -32 -35 14 -8
44 -6 110 6 64 12 94 14 102 6 18 -18 27 -93 28 -235 l0 -138 -47 27 c-90 52
-86 44 -58 97 14 25 25 51 25 56 0 12 -35 36 -66 45 -20 6 -22 2 -26 -53 -6
-82 -62 -193 -140 -276 -33 -36 -57 -65 -54 -65 4 0 25 9 48 21 49 25 125 101
153 152 11 20 24 37 30 37 5 0 63 -40 128 -89 169 -126 231 -161 287 -161 43
0 185 32 198 44 9 10 3 11 -133 38 -78 15 -162 39 -210 59 l-80 34 -3 91 -3
90 92 15 c95 14 117 29 78 49 -17 10 -34 8 -82 -5 -34 -9 -67 -19 -74 -22 -18
-7 -17 47 2 117 13 52 13 56 -6 72 -26 22 -18 25 76 34 l78 7 -7 -28 c-4 -16
-17 -42 -28 -58 -20 -28 -18 -28 63 17 46 25 85 51 87 59 3 17 -87 67 -119 66
-13 0 -37 -5 -54 -10z"/>
</g>
</svg>
