<?xml version="1.0" standalone="no"?>
<!DOCTYPE svg PUBLIC "-//W3C//DTD SVG 20010904//EN"
 "http://www.w3.org/TR/2001/REC-SVG-20010904/DTD/svg10.dtd">
<svg version="1.0" xmlns="http://www.w3.org/2000/svg"
 width="96.000000pt" height="68.000000pt" viewBox="0 0 96.000000 68.000000"
 preserveAspectRatio="xMidYMid meet">
<metadata>
Created by potrace 1.16, written by Peter Selinger 2001-2019
</metadata>
<g transform="translate(0.000000,68.000000) scale(0.100000,-0.100000)"
fill="#000000" stroke="none">
<path d="M395 528 c-110 -17 -202 -32 -204 -33 -1 -2 0 -9 4 -16 6 -8 28 -10
84 -4 42 4 87 8 101 9 l25 1 5 -116 c7 -156 8 -152 -41 -130 -62 28 -66 35
-41 79 l21 38 -33 12 c-45 17 -46 16 -46 -19 0 -50 -39 -118 -107 -186 -33
-35 -58 -63 -54 -63 18 0 110 67 148 109 36 38 45 44 60 35 120 -74 294 -167
320 -171 37 -6 191 15 198 28 3 4 -16 11 -42 14 -116 15 -219 38 -269 58 l-54
22 0 117 c0 64 4 128 10 142 7 20 6 27 -7 35 -12 6 1 11 50 16 38 4 71 5 74 1
4 -3 -3 -20 -16 -36 -14 -20 -17 -30 -9 -30 25 0 138 55 138 67 0 15 -72 53
-97 52 -10 -1 -108 -15 -218 -31z"/>
<path d="M516 361 c-16 -3 -31 -12 -34 -20 -4 -12 6 -13 55 -8 70 7 95 16 87
28 -6 10 -63 10 -108 0z"/>
</g>
</svg>
