<?xml version="1.0" standalone="no"?>
<!DOCTYPE svg PUBLIC "-//W3C//DTD SVG 20010904//EN"
 "http://www.w3.org/TR/2001/REC-SVG-20010904/DTD/svg10.dtd">
<svg version="1.0" xmlns="http://www.w3.org/2000/svg"
 width="96.000000pt" height="68.000000pt" viewBox="0 0 96.000000 68.000000"
 preserveAspectRatio="xMidYMid meet">
<metadata>
Created by potrace 1.16, written by Peter Selinger 2001-2019
</metadata>
<g transform="translate(0.000000,68.000000) scale(0.100000,-0.100000)"
fill="#000000" stroke="none">
<path d="M705 570 c-11 -5 -39 -9 -61 -9 l-42 -1 19 -37 c10 -21 19 -46 19
-56 0 -14 5 -17 18 -12 9 3 38 9 64 12 26 3 45 10 42 15 -3 5 4 25 16 45 17
29 18 38 8 44 -16 11 -57 10 -83 -1z m27 -22 c10 -29 -5 -57 -34 -63 -34 -8
-34 -8 -43 27 -6 24 -3 28 27 37 45 13 46 13 50 -1z"/>
</g>
</svg>
