<?xml version="1.0" standalone="no"?>
<!DOCTYPE svg PUBLIC "-//W3C//DTD SVG 20010904//EN"
 "http://www.w3.org/TR/2001/REC-SVG-20010904/DTD/svg10.dtd">
<svg version="1.0" xmlns="http://www.w3.org/2000/svg"
 width="96.000000pt" height="68.000000pt" viewBox="0 0 96.000000 68.000000"
 preserveAspectRatio="xMidYMid meet">
<metadata>
Created by potrace 1.16, written by Peter Selinger 2001-2019
</metadata>
<g transform="translate(0.000000,68.000000) scale(0.100000,-0.100000)"
fill="#000000" stroke="none">
<path d="M772 181 c-8 -5 -2 -15 17 -32 29 -26 51 -27 51 -3 0 17 -52 45 -68
35z"/>
<path d="M580 161 c14 -28 30 -35 43 -21 9 9 7 15 -7 26 -30 21 -49 19 -36 -5z"/>
<path d="M390 135 c-14 -17 -22 -75 -10 -75 20 0 43 59 30 79 -5 9 -11 7 -20
-4z"/>
<path d="M480 140 c0 -5 5 -10 11 -10 5 0 7 5 4 10 -3 6 -8 10 -11 10 -2 0 -4
-4 -4 -10z"/>
<path d="M501 108 c-1 -11 17 -27 49 -43 28 -14 50 -23 50 -20 0 3 10 1 21 -6
17 -9 20 -8 17 3 -3 7 -15 15 -29 16 -13 2 -28 8 -33 13 -6 5 -18 9 -27 9 -9
0 -24 10 -32 23 -13 18 -16 19 -16 5z"/>
<path d="M717 114 c7 -3 10 -11 7 -19 -4 -10 1 -12 17 -8 21 6 21 7 4 20 -11
7 -24 13 -29 12 -6 0 -6 -3 1 -5z"/>
<path d="M745 80 c-11 -5 -34 -9 -51 -9 -18 -1 -34 -7 -37 -15 -11 -27 86 -30
137 -3 19 9 19 10 1 23 -21 16 -22 16 -50 4z m-48 -26 c-3 -3 -12 -4 -19 -1
-8 3 -5 6 6 6 11 1 17 -2 13 -5z"/>
</g>
</svg>
