<?xml version="1.0" standalone="no"?>
<!DOCTYPE svg PUBLIC "-//W3C//DTD SVG 20010904//EN"
 "http://www.w3.org/TR/2001/REC-SVG-20010904/DTD/svg10.dtd">
<svg version="1.0" xmlns="http://www.w3.org/2000/svg"
 width="96.000000pt" height="68.000000pt" viewBox="0 0 96.000000 68.000000"
 preserveAspectRatio="xMidYMid meet">
<metadata>
Created by potrace 1.16, written by Peter Selinger 2001-2019
</metadata>
<g transform="translate(0.000000,68.000000) scale(0.100000,-0.100000)"
fill="#000000" stroke="none">
<path d="M455 572 c-5 -4 -10 -13 -11 -19 -4 -45 10 -41 -193 -59 -57 -5 -70
-9 -56 -16 16 -10 175 -3 214 9 46 14 -67 -66 -154 -109 -65 -32 -88 -47 -65
-42 56 10 132 41 193 78 l56 34 3 -47 c2 -33 7 -46 18 -46 11 0 16 14 18 53 2
28 5 52 8 52 3 0 55 -25 115 -56 101 -51 139 -61 139 -35 0 19 -47 42 -150 75
-55 18 -103 35 -106 38 -10 11 100 19 170 12 48 -4 76 -3 80 4 15 24 -35 33
-140 26 l-104 -7 0 32 c0 30 -13 39 -35 23z"/>
</g>
</svg>
