<?xml version="1.0" standalone="no"?>
<!DOCTYPE svg PUBLIC "-//W3C//DTD SVG 20010904//EN"
 "http://www.w3.org/TR/2001/REC-SVG-20010904/DTD/svg10.dtd">
<svg version="1.0" xmlns="http://www.w3.org/2000/svg"
 width="96.000000pt" height="68.000000pt" viewBox="0 0 96.000000 68.000000"
 preserveAspectRatio="xMidYMid meet">
<metadata>
Created by potrace 1.16, written by Peter Selinger 2001-2019
</metadata>
<g transform="translate(0.000000,68.000000) scale(0.100000,-0.100000)"
fill="#000000" stroke="none">
<path d="M320 544 c-36 -8 -84 -11 -107 -8 l-42 5 11 -32 c7 -20 9 -67 4 -132
l-6 -100 42 7 c24 3 73 9 111 13 99 9 84 26 -20 22 -86 -4 -88 -3 -87 19 0 12
1 55 2 96 l2 74 58 5 c112 11 153 20 149 31 -5 16 -43 16 -117 0z"/>
</g>
</svg>
