<?xml version="1.0" standalone="no"?>
<!DOCTYPE svg PUBLIC "-//W3C//DTD SVG 20010904//EN"
 "http://www.w3.org/TR/2001/REC-SVG-20010904/DTD/svg10.dtd">
<svg version="1.0" xmlns="http://www.w3.org/2000/svg"
 width="96.000000pt" height="68.000000pt" viewBox="0 0 96.000000 68.000000"
 preserveAspectRatio="xMidYMid meet">
<metadata>
Created by potrace 1.16, written by Peter Selinger 2001-2019
</metadata>
<g transform="translate(0.000000,68.000000) scale(0.100000,-0.100000)"
fill="#000000" stroke="none">
<path d="M548 418 c-2 -19 -13 -25 -58 -34 l-55 -12 58 -1 c49 -1 57 -4 57
-20 0 -22 -19 -31 -66 -31 -25 0 -34 -4 -34 -16 0 -10 5 -14 15 -10 9 3 75 10
147 16 73 6 134 13 136 15 14 13 -55 24 -105 16 -42 -6 -56 -5 -60 5 -8 22 5
31 57 38 27 4 50 12 50 18 0 7 -16 8 -50 4 -46 -6 -50 -5 -50 14 0 29 -38 27
-42 -2z"/>
</g>
</svg>
