<?xml version="1.0" standalone="no"?>
<!DOCTYPE svg PUBLIC "-//W3C//DTD SVG 20010904//EN"
 "http://www.w3.org/TR/2001/REC-SVG-20010904/DTD/svg10.dtd">
<svg version="1.0" xmlns="http://www.w3.org/2000/svg"
 width="96.000000pt" height="68.000000pt" viewBox="0 0 96.000000 68.000000"
 preserveAspectRatio="xMidYMid meet">
<metadata>
Created by potrace 1.16, written by Peter Selinger 2001-2019
</metadata>
<g transform="translate(0.000000,68.000000) scale(0.100000,-0.100000)"
fill="#000000" stroke="none">
<path d="M550 142 c0 -80 15 -107 68 -122 75 -21 195 -6 215 27 4 6 -2 32 -12
59 l-19 49 -7 -37 c-10 -54 -42 -71 -121 -66 -35 2 -66 7 -70 10 -13 14 -20
74 -11 102 7 21 6 30 -4 37 -32 20 -39 10 -39 -59z"/>
</g>
</svg>
