<?xml version="1.0" standalone="no"?>
<!DOCTYPE svg PUBLIC "-//W3C//DTD SVG 20010904//EN"
 "http://www.w3.org/TR/2001/REC-SVG-20010904/DTD/svg10.dtd">
<svg version="1.0" xmlns="http://www.w3.org/2000/svg"
 width="90.000000pt" height="92.000000pt" viewBox="0 0 90.000000 92.000000"
 preserveAspectRatio="xMidYMid meet">
<metadata>
Created by potrace 1.16, written by Peter Selinger 2001-2019
</metadata>
<g transform="translate(0.000000,92.000000) scale(0.100000,-0.100000)"
fill="#000000" stroke="none">
<path d="M385 770 c0 -90 -6 -100 -63 -100 -48 0 -36 -24 14 -28 39 -3 40 -4
36 -37 -4 -32 -7 -34 -56 -43 -40 -7 -53 -6 -63 6 -10 12 -15 8 -28 -24 -9
-22 -18 -52 -18 -69 -3 -44 24 -38 43 10 8 22 22 41 30 42 8 1 51 9 95 17 44
8 94 16 110 18 28 3 30 1 27 -29 l-3 -33 50 27 c57 29 56 39 -4 67 -32 15 -39
15 -87 1 -28 -8 -53 -13 -55 -12 -2 2 0 18 3 35 5 27 12 32 55 42 27 7 52 17
55 22 11 17 -19 29 -59 22 -28 -4 -36 -3 -33 8 27 90 29 109 10 123 -10 8 -28
15 -39 15 -18 0 -20 -7 -20 -80z"/>
<path d="M120 752 c0 -16 77 -92 93 -92 20 0 31 34 18 59 -16 28 -111 57 -111
33z"/>
<path d="M652 678 c0 -40 -4 -98 -7 -130 -7 -60 -16 -68 -77 -68 -34 0 -36
-12 -4 -29 18 -10 29 -10 45 -2 11 7 21 10 21 9 0 -2 -9 -36 -20 -77 -26 -93
-57 -153 -115 -224 -49 -61 -50 -65 -7 -43 77 41 157 182 187 332 5 26 12 33
38 37 18 2 38 2 45 0 17 -7 15 -73 -7 -178 -32 -153 -46 -171 -106 -142 l-33
16 36 -55 c19 -30 39 -54 44 -54 5 0 22 13 38 29 34 33 56 105 75 235 7 51 18
102 24 114 17 32 13 48 -15 67 -26 17 -51 15 -118 -11 -12 -5 -6 52 19 187 6
31 4 36 -20 47 -14 7 -30 12 -34 12 -4 0 -8 -33 -9 -72z"/>
<path d="M40 568 c0 -7 17 -33 39 -58 34 -40 40 -43 55 -31 23 19 17 50 -14
72 -34 23 -80 33 -80 17z"/>
<path d="M398 485 c-20 -8 -58 -17 -83 -20 -49 -8 -58 -21 -23 -34 14 -5 35
-3 55 5 33 14 73 19 73 9 0 -3 -9 -19 -21 -34 -14 -19 -27 -27 -40 -24 -19 5
-28 -12 -9 -19 5 -1 12 -17 16 -34 l6 -31 -86 -18 c-47 -10 -86 -21 -86 -25 0
-12 36 -40 52 -40 9 0 37 9 63 20 26 11 49 20 51 20 8 0 4 -59 -6 -85 -8 -21
-14 -25 -31 -20 -12 4 -20 3 -18 -1 9 -22 55 -84 61 -84 18 0 33 52 38 129 l5
84 60 25 c68 29 70 30 64 37 -3 2 -31 -3 -62 -12 -32 -9 -59 -14 -61 -12 -2 2
-6 16 -10 31 -6 26 -2 30 55 58 52 27 59 33 48 46 -11 14 -63 45 -71 43 -2 0
-20 -7 -40 -14z"/>
<path d="M132 336 c-18 -36 -44 -75 -57 -88 -14 -13 -25 -33 -25 -46 0 -26 26
-82 38 -82 10 0 85 256 80 270 -2 6 -18 -19 -36 -54z"/>
</g>
</svg>
