<?xml version="1.0" standalone="no"?>
<!DOCTYPE svg PUBLIC "-//W3C//DTD SVG 20010904//EN"
 "http://www.w3.org/TR/2001/REC-SVG-20010904/DTD/svg10.dtd">
<svg version="1.0" xmlns="http://www.w3.org/2000/svg"
 width="96.000000pt" height="68.000000pt" viewBox="0 0 96.000000 68.000000"
 preserveAspectRatio="xMidYMid meet">
<metadata>
Created by potrace 1.16, written by Peter Selinger 2001-2019
</metadata>
<g transform="translate(0.000000,68.000000) scale(0.100000,-0.100000)"
fill="#000000" stroke="none">
<path d="M628 472 c-15 -3 -18 -14 -18 -65 0 -34 4 -67 8 -74 17 -27 113 -43
156 -27 32 12 15 24 -35 24 -69 0 -92 13 -85 51 3 16 8 42 12 58 5 30 -6 41
-38 33z"/>
<path d="M507 420 c-3 -23 -20 -61 -41 -90 -20 -27 -33 -50 -30 -50 19 0 71
50 101 98 34 52 35 56 17 69 -30 22 -41 15 -47 -27z"/>
</g>
</svg>
