<?xml version="1.0" standalone="no"?>
<!DOCTYPE svg PUBLIC "-//W3C//DTD SVG 20010904//EN"
 "http://www.w3.org/TR/2001/REC-SVG-20010904/DTD/svg10.dtd">
<svg version="1.0" xmlns="http://www.w3.org/2000/svg"
 width="96.000000pt" height="68.000000pt" viewBox="0 0 96.000000 68.000000"
 preserveAspectRatio="xMidYMid meet">
<metadata>
Created by potrace 1.16, written by Peter Selinger 2001-2019
</metadata>
<g transform="translate(0.000000,68.000000) scale(0.100000,-0.100000)"
fill="#000000" stroke="none">
<path d="M649 228 c-1 -13 0 -32 1 -42 1 -11 -1 -39 -5 -63 -5 -35 -10 -43
-27 -43 -17 0 -18 -2 -8 -15 11 -13 15 -13 21 -3 7 10 9 9 9 -4 0 -22 16 -23
24 -2 9 23 7 36 -4 29 -5 -3 -10 1 -10 9 0 8 5 18 10 21 14 9 12 82 -2 88 -10
4 -10 6 0 6 14 1 16 27 2 36 -5 3 -11 -4 -11 -17z"/>
<path d="M542 173 c-6 -2 -10 -9 -6 -14 3 -5 0 -9 -7 -9 -7 0 -9 -3 -6 -7 4
-3 -1 -12 -11 -19 -9 -7 -12 -14 -7 -14 6 0 25 16 44 35 30 32 27 42 -7 28z"/>
<path d="M761 167 c8 -8 19 -14 24 -14 6 1 9 -7 7 -18 -2 -17 -1 -18 8 -5 10
12 11 11 7 -7 -3 -13 -1 -23 4 -23 13 0 11 32 -4 51 -7 9 -23 20 -36 24 -21 6
-22 5 -10 -8z"/>
</g>
</svg>
