<?xml version="1.0" standalone="no"?>
<!DOCTYPE svg PUBLIC "-//W3C//DTD SVG 20010904//EN"
 "http://www.w3.org/TR/2001/REC-SVG-20010904/DTD/svg10.dtd">
<svg version="1.0" xmlns="http://www.w3.org/2000/svg"
 width="96.000000pt" height="68.000000pt" viewBox="0 0 96.000000 68.000000"
 preserveAspectRatio="xMidYMid meet">
<metadata>
Created by potrace 1.16, written by Peter Selinger 2001-2019
</metadata>
<g transform="translate(0.000000,68.000000) scale(0.100000,-0.100000)"
fill="#000000" stroke="none">
<path d="M554 578 c-8 -37 -13 -43 -37 -46 -31 -4 -27 -22 5 -22 14 0 18 -5
14 -15 -3 -8 -9 -22 -12 -30 -12 -29 17 -15 36 19 19 31 24 34 92 40 40 3 74
9 77 11 12 13 -16 20 -70 17 -58 -2 -59 -1 -49 19 13 24 -2 49 -29 49 -12 0
-20 -13 -27 -42z"/>
<path d="M309 557 c11 -19 21 -37 21 -41 0 -3 -34 -6 -75 -6 -76 0 -93 -10
-53 -31 16 -9 34 -9 77 1 52 12 56 11 69 -9 20 -29 34 -26 30 7 -2 22 1 28 20
30 32 5 27 23 -5 20 -23 -3 -28 1 -33 27 -4 25 -10 30 -39 33 l-34 3 22 -34z"/>
</g>
</svg>
