<?xml version="1.0" standalone="no"?>
<!DOCTYPE svg PUBLIC "-//W3C//DTD SVG 20010904//EN"
 "http://www.w3.org/TR/2001/REC-SVG-20010904/DTD/svg10.dtd">
<svg version="1.0" xmlns="http://www.w3.org/2000/svg"
 width="96.000000pt" height="68.000000pt" viewBox="0 0 96.000000 68.000000"
 preserveAspectRatio="xMidYMid meet">
<metadata>
Created by potrace 1.16, written by Peter Selinger 2001-2019
</metadata>
<g transform="translate(0.000000,68.000000) scale(0.100000,-0.100000)"
fill="#000000" stroke="none">
<path d="M246 541 l6 -59 -51 -7 c-28 -4 -51 -11 -51 -16 0 -13 46 -22 75 -15
20 5 25 3 25 -13 0 -24 -19 -31 -81 -31 -49 0 -49 0 -35 -22 8 -13 19 -49 26
-81 10 -48 15 -57 28 -51 10 3 27 9 40 12 21 4 23 1 20 -24 -3 -30 -8 -32
-123 -49 -48 -8 -49 -8 -20 -16 19 -6 48 -5 78 2 26 6 51 8 54 5 4 -3 5 -36 4
-72 -1 -39 2 -71 10 -80 22 -26 38 14 39 94 l0 72 45 0 c45 0 60 12 29 24 -9
3 -29 6 -45 6 -25 0 -29 4 -29 26 0 25 2 26 40 20 22 -3 40 -5 40 -4 0 2 11
35 25 73 13 39 20 74 15 79 -10 10 -85 10 -101 1 -7 -5 -9 1 -7 16 2 19 12 25
46 32 55 11 50 32 -7 31 l-43 -1 7 43 c5 36 3 44 -14 53 -44 24 -53 16 -45
-48z m116 -147 c16 -15 -5 -39 -35 -39 -26 0 -33 5 -35 23 -3 19 1 22 31 22
18 0 36 -3 39 -6z m-104 -26 c-2 -18 -10 -24 -39 -26 -27 -2 -38 1 -43 14 -8
22 10 34 52 34 29 0 33 -3 30 -22z m90 -50 c-2 -18 -11 -24 -35 -26 -18 -2
-33 0 -33 5 0 13 14 30 30 36 31 11 41 7 38 -15z m-90 -15 c3 -20 -1 -23 -32
-23 -31 0 -36 3 -36 23 0 20 5 23 33 23 25 -1 33 -6 35 -23z"/>
<path d="M543 527 l-93 -10 0 -62 c0 -125 -51 -307 -107 -383 -29 -39 -16 -43
18 -5 34 39 53 71 73 124 13 38 21 46 36 42 25 -7 35 -56 26 -139 -4 -36 -4
-69 0 -75 6 -10 51 20 104 68 27 25 15 32 -16 8 -37 -28 -44 -19 -44 59 0 87
-6 83 153 92 56 4 104 8 107 11 12 12 -30 23 -72 20 -39 -3 -48 -1 -47 12 1
23 13 53 22 52 29 -3 47 1 42 9 -3 6 -15 10 -25 10 -13 0 -20 8 -22 28 -2 19
-9 28 -25 30 -20 3 -23 -1 -23 -31 0 -31 -3 -35 -32 -40 -38 -5 -37 -6 -41 19
-4 29 -16 44 -35 44 -13 0 -17 -9 -17 -37 0 -25 -4 -37 -12 -36 -21 5 -15 -15
7 -22 14 -4 20 -15 20 -36 0 -27 -2 -29 -40 -29 -46 0 -47 3 -29 106 12 71 5
67 171 80 69 5 85 10 81 21 -3 8 0 26 8 39 24 46 -5 51 -188 31z m135 -34 c-3
-26 -7 -28 -88 -40 -47 -7 -88 -12 -92 -13 -5 0 -8 13 -8 30 0 26 4 30 38 35
20 4 44 8 52 10 8 1 34 3 58 4 41 1 43 0 40 -26z m-28 -188 c0 -24 -25 -45
-54 -45 -23 0 -22 57 2 63 41 11 52 7 52 -18z"/>
<path d="M690 199 c-24 -30 -26 -30 -55 -15 -16 9 -39 16 -49 16 -14 0 -9 -8
20 -29 21 -16 62 -49 89 -74 52 -48 61 -51 114 -41 41 9 39 20 -6 34 -45 15
-133 61 -133 70 0 3 20 14 45 24 36 15 43 22 34 32 -17 21 -32 17 -59 -17z"/>
</g>
</svg>
