<?xml version="1.0" standalone="no"?>
<!DOCTYPE svg PUBLIC "-//W3C//DTD SVG 20010904//EN"
 "http://www.w3.org/TR/2001/REC-SVG-20010904/DTD/svg10.dtd">
<svg version="1.0" xmlns="http://www.w3.org/2000/svg"
 width="96.000000pt" height="68.000000pt" viewBox="0 0 96.000000 68.000000"
 preserveAspectRatio="xMidYMid meet">
<metadata>
Created by potrace 1.16, written by Peter Selinger 2001-2019
</metadata>
<g transform="translate(0.000000,68.000000) scale(0.100000,-0.100000)"
fill="#000000" stroke="none">
<path d="M521 575 c-7 -19 -28 -58 -47 -86 -19 -29 -32 -54 -29 -57 3 -3 22
11 43 31 30 29 48 37 91 43 l53 7 -24 -39 c-40 -64 -39 -63 -19 -57 27 7 125
109 117 122 -10 15 -45 14 -100 -5 -26 -9 -49 -14 -52 -11 -3 3 5 20 17 37 20
26 21 32 9 40 -28 18 -46 10 -59 -25z"/>
</g>
</svg>
