<?xml version="1.0" standalone="no"?>
<!DOCTYPE svg PUBLIC "-//W3C//DTD SVG 20010904//EN"
 "http://www.w3.org/TR/2001/REC-SVG-20010904/DTD/svg10.dtd">
<svg version="1.0" xmlns="http://www.w3.org/2000/svg"
 width="90.000000pt" height="92.000000pt" viewBox="0 0 90.000000 92.000000"
 preserveAspectRatio="xMidYMid meet">
<metadata>
Created by potrace 1.16, written by Peter Selinger 2001-2019
</metadata>
<g transform="translate(0.000000,92.000000) scale(0.100000,-0.100000)"
fill="#000000" stroke="none">
<path d="M160 782 c0 -5 15 -33 34 -64 l34 -56 -62 -11 c-33 -6 -82 -14 -109
-17 -55 -8 -60 -20 -14 -39 29 -12 44 -11 132 10 55 13 121 26 148 30 26 3 47
10 47 15 0 18 -41 31 -77 24 -34 -6 -36 -5 -30 16 9 33 -8 67 -42 85 -33 16
-61 20 -61 7z"/>
<path d="M455 723 c-9 -50 -66 -166 -111 -226 -29 -40 -40 -48 -57 -43 -25 7
-167 -23 -167 -35 0 -25 164 -11 185 16 6 7 32 29 58 49 40 30 49 34 54 20 8
-21 -5 -219 -18 -266 -7 -28 -6 -46 5 -73 8 -19 19 -35 24 -35 19 0 25 38 32
205 6 148 4 173 -10 195 -16 23 -15 26 10 65 15 22 38 60 51 83 l24 44 -24 19
c-34 28 -48 23 -56 -18z"/>
<path d="M555 710 c-3 -6 -3 -16 1 -22 5 -7 7 -104 5 -215 -3 -224 5 -260 60
-288 35 -19 139 -19 182 -2 55 24 61 38 46 111 -14 71 -23 77 -32 18 -4 -20
-13 -46 -20 -56 -18 -24 -92 -37 -140 -25 -49 13 -57 35 -57 150 l0 89 33 0
c28 0 58 6 145 25 29 7 28 33 -3 45 -18 7 -42 3 -96 -15 l-72 -25 8 68 c14
122 13 124 -22 138 -20 9 -34 10 -38 4z"/>
<path d="M191 539 c-78 -19 -92 -39 -29 -39 54 0 139 22 138 35 -1 19 -45 21
-109 4z"/>
<path d="M220 344 c-19 -9 -58 -16 -87 -15 l-53 0 19 -27 c11 -15 25 -51 31
-80 12 -51 30 -77 38 -54 2 7 18 12 37 12 69 0 92 10 92 40 0 15 9 46 20 68
11 23 17 46 13 52 -11 18 -73 20 -110 4z m40 -61 c0 -50 -10 -63 -53 -70 -34
-5 -37 -4 -37 18 0 13 -3 34 -6 45 -5 18 0 23 33 32 61 16 63 15 63 -25z"/>
</g>
</svg>
