<?xml version="1.0" standalone="no"?>
<!DOCTYPE svg PUBLIC "-//W3C//DTD SVG 20010904//EN"
 "http://www.w3.org/TR/2001/REC-SVG-20010904/DTD/svg10.dtd">
<svg version="1.0" xmlns="http://www.w3.org/2000/svg"
 width="96.000000pt" height="68.000000pt" viewBox="0 0 96.000000 68.000000"
 preserveAspectRatio="xMidYMid meet">
<metadata>
Created by potrace 1.16, written by Peter Selinger 2001-2019
</metadata>
<g transform="translate(0.000000,68.000000) scale(0.100000,-0.100000)"
fill="#000000" stroke="none">
<path d="M588 358 c-4 -50 -13 -54 -161 -61 l-98 -4 1 36 c3 56 1 61 -19 61
-14 0 -18 -5 -14 -20 3 -11 -2 -37 -10 -59 -21 -51 -6 -68 45 -53 18 6 56 13
83 16 28 3 72 9 98 12 31 4 53 2 62 -6 22 -18 40 1 54 56 13 50 9 64 -19 64
-15 0 -19 -9 -22 -42z"/>
</g>
</svg>
