<?xml version="1.0" standalone="no"?>
<!DOCTYPE svg PUBLIC "-//W3C//DTD SVG 20010904//EN"
 "http://www.w3.org/TR/2001/REC-SVG-20010904/DTD/svg10.dtd">
<svg version="1.0" xmlns="http://www.w3.org/2000/svg"
 width="96.000000pt" height="68.000000pt" viewBox="0 0 96.000000 68.000000"
 preserveAspectRatio="xMidYMid meet">
<metadata>
Created by potrace 1.16, written by Peter Selinger 2001-2019
</metadata>
<g transform="translate(0.000000,68.000000) scale(0.100000,-0.100000)"
fill="#000000" stroke="none">
<path d="M405 630 c9 -14 -21 -78 -56 -118 -51 -58 -157 -144 -169 -137 -6 4
-9 1 -8 -6 2 -7 -17 -24 -42 -38 -34 -19 -40 -26 -27 -29 20 -4 139 50 169 76
16 13 18 13 25 -3 3 -10 0 -38 -9 -62 -19 -53 -6 -72 39 -55 16 6 43 13 61 16
31 5 32 4 32 -28 l0 -34 -62 -4 c-45 -4 -68 -1 -79 8 -21 19 -50 18 -43 -1 5
-11 -1 -15 -25 -15 -41 0 -40 -18 2 -22 l32 -3 5 -69 c7 -94 26 -97 32 -6 3
39 8 73 10 76 6 5 111 23 116 20 1 -2 -3 -17 -9 -34 -9 -27 -16 -32 -42 -32
-29 0 -30 -1 -15 -16 21 -21 49 -21 131 2 65 18 69 18 81 1 7 -9 18 -17 25
-17 19 0 12 41 -11 61 -27 22 -50 25 -42 5 4 -11 -6 -16 -41 -21 -54 -9 -58
-6 -49 29 5 23 11 26 48 27 22 0 60 2 84 5 24 3 54 3 67 0 23 -6 25 -11 25
-59 0 -70 -8 -80 -56 -71 -37 7 -38 6 -24 -12 46 -60 65 -66 99 -30 20 21 27
46 43 160 2 10 -8 27 -23 38 -22 17 -32 18 -65 10 -21 -6 -69 -13 -106 -17
-58 -6 -68 -4 -68 9 0 9 5 16 10 16 6 0 10 6 10 14 0 8 7 17 16 20 27 11 82 6
87 -6 7 -21 35 9 43 45 3 18 11 37 16 44 6 7 2 16 -13 27 -30 20 -39 12 -39
-34 0 -27 -5 -42 -17 -49 -25 -13 -248 -18 -247 -6 1 6 4 25 8 43 4 27 2 34
-14 40 -16 6 -9 18 59 92 l78 84 72 -59 c39 -33 92 -77 118 -99 l48 -38 75 6
c41 4 79 11 83 15 5 5 -24 19 -65 31 -88 27 -126 46 -223 110 -40 28 -78 50
-84 50 -6 0 -11 7 -11 16 0 9 -8 23 -17 30 -21 15 -57 19 -48 4z"/>
<path d="M430 502 c0 -4 7 -18 16 -30 9 -13 14 -25 13 -27 -2 -1 -25 -5 -52
-7 -76 -8 -69 -20 11 -16 39 1 72 0 72 -4 0 -19 -33 -36 -63 -34 -17 2 -24 1
-14 -1 24 -6 21 -18 -9 -42 -32 -25 -26 -27 20 -4 34 16 37 15 70 -2 44 -24
60 -11 24 20 l-26 23 24 12 c26 14 32 30 12 31 -7 0 0 6 16 13 32 15 17 27
-28 22 -19 -3 -26 1 -26 14 0 11 -12 22 -30 29 -16 5 -30 7 -30 3z"/>
</g>
</svg>
