<?xml version="1.0" standalone="no"?>
<!DOCTYPE svg PUBLIC "-//W3C//DTD SVG 20010904//EN"
 "http://www.w3.org/TR/2001/REC-SVG-20010904/DTD/svg10.dtd">
<svg version="1.0" xmlns="http://www.w3.org/2000/svg"
 width="90.000000pt" height="92.000000pt" viewBox="0 0 90.000000 92.000000"
 preserveAspectRatio="xMidYMid meet">
<metadata>
Created by potrace 1.16, written by Peter Selinger 2001-2019
</metadata>
<g transform="translate(0.000000,92.000000) scale(0.100000,-0.100000)"
fill="#000000" stroke="none">
<path d="M622 844 c-19 -8 -69 -20 -113 -26 -43 -6 -79 -15 -79 -19 0 -16 46
-20 110 -10 102 17 110 15 110 -17 l0 -28 -152 -19 c-84 -10 -157 -22 -162
-26 -21 -19 41 -27 114 -14 41 7 101 15 134 19 51 6 58 4 52 -10 -3 -8 -6 -19
-6 -24 0 -4 -43 -16 -95 -25 -52 -10 -95 -21 -95 -26 0 -15 45 -20 90 -10 25
6 65 11 90 11 48 0 80 13 61 24 -12 8 3 56 22 68 7 4 40 8 75 8 34 0 62 4 62
9 0 21 -35 35 -82 33 l-50 -2 16 24 c20 32 12 52 -26 65 -37 13 -34 13 -76 -5z"/>
<path d="M164 753 c1 -43 -3 -104 -7 -135 -8 -53 -10 -57 -40 -64 -18 -4 -51
-7 -74 -6 -48 0 -55 -14 -23 -43 18 -17 26 -17 63 -8 23 6 44 10 46 8 2 -3 -3
-25 -12 -51 l-15 -46 44 -31 c24 -17 44 -34 44 -39 0 -13 -71 -79 -119 -110
-41 -27 -43 -29 -16 -23 50 11 92 35 127 71 18 18 38 34 43 33 6 0 24 -17 40
-39 34 -45 55 -56 67 -38 20 32 6 59 -56 104 -26 19 -27 23 -15 45 7 13 23 60
34 104 19 72 25 82 53 94 39 18 41 31 5 31 -16 0 -37 7 -47 15 -29 22 -46 18
-46 -9 0 -28 -3 -31 -47 -40 l-31 -7 29 108 29 108 -26 23 c-44 39 -51 30 -50
-55z m96 -226 c0 -33 -40 -147 -51 -147 -14 0 -69 29 -69 36 0 3 7 30 15 59
13 45 20 54 48 63 49 15 57 14 57 -11z"/>
<path d="M670 574 c-41 -8 -119 -17 -173 -22 -84 -7 -100 -5 -107 8 -10 18 -9
19 -45 -53 -26 -53 -27 -59 -12 -74 20 -21 41 -6 58 42 7 19 19 33 28 33 9 -1
37 2 64 7 l47 7 0 -41 c0 -44 3 -43 -85 -45 -21 -1 -29 -5 -26 -16 12 -51 11
-90 -1 -120 -15 -35 -7 -90 12 -90 12 0 28 55 36 125 7 62 15 75 49 75 19 0
20 -6 17 -147 -3 -152 3 -233 18 -233 17 0 30 105 30 245 l0 143 41 7 c30 5
44 3 50 -6 10 -17 11 -64 3 -109 -6 -29 -9 -31 -36 -26 l-30 6 33 -43 c18 -23
35 -44 37 -47 2 -3 15 8 28 23 19 23 24 39 24 87 0 32 5 71 11 87 9 25 7 31
-17 51 -26 23 -60 24 -126 6 -15 -5 -16 -2 -6 27 8 24 8 33 -2 39 -17 11 8 17
98 26 79 7 83 4 57 -46 -17 -33 -16 -34 35 -21 19 5 47 12 63 15 36 8 34 22
-9 62 -40 38 -50 39 -164 18z"/>
</g>
</svg>
