<?xml version="1.0" standalone="no"?>
<!DOCTYPE svg PUBLIC "-//W3C//DTD SVG 20010904//EN"
 "http://www.w3.org/TR/2001/REC-SVG-20010904/DTD/svg10.dtd">
<svg version="1.0" xmlns="http://www.w3.org/2000/svg"
 width="90.000000pt" height="92.000000pt" viewBox="0 0 90.000000 92.000000"
 preserveAspectRatio="xMidYMid meet">
<metadata>
Created by potrace 1.16, written by Peter Selinger 2001-2019
</metadata>
<g transform="translate(0.000000,92.000000) scale(0.100000,-0.100000)"
fill="#000000" stroke="none">
<path d="M632 833 c-11 -27 -27 -56 -34 -67 -11 -15 -10 -20 6 -30 11 -6 34
-23 51 -38 35 -30 50 -34 60 -18 11 18 -23 58 -55 65 -39 9 -38 25 5 54 19 13
35 29 35 36 0 11 -31 45 -41 45 -3 0 -15 -21 -27 -47z"/>
<path d="M505 838 c-4 -13 -16 -42 -28 -65 l-20 -42 44 -40 c50 -45 54 -47 63
-25 9 24 -10 51 -46 63 l-32 11 39 40 c38 39 38 40 20 60 -23 26 -32 25 -40
-2z"/>
<path d="M374 823 c-3 -10 -17 -42 -30 -72 -14 -30 -22 -57 -17 -61 66 -55 93
-71 99 -56 10 25 -4 47 -36 59 -17 6 -30 16 -30 21 0 6 17 27 37 48 36 37 36
38 18 58 -22 25 -34 25 -41 3z"/>
<path d="M220 795 c0 -16 -34 -90 -52 -112 -6 -8 -23 -2 -60 23 -28 19 -54 32
-57 28 -3 -3 15 -25 42 -48 l47 -42 -65 -63 c-36 -34 -65 -65 -65 -67 0 -7 60
25 107 57 23 16 44 29 47 29 2 0 10 -16 16 -35 17 -51 -13 -109 -104 -202 -42
-42 -73 -79 -70 -82 12 -12 99 47 146 98 l50 56 -7 -95 c-11 -165 -23 -187
-94 -174 l-36 7 45 -49 c24 -27 47 -50 50 -52 14 -6 57 49 68 85 31 110 21
362 -19 440 l-19 37 43 53 c66 85 65 82 38 104 -28 23 -51 25 -51 4z"/>
<path d="M658 645 c-9 -9 -262 -45 -317 -45 -52 0 -53 -1 -37 -19 9 -10 21
-47 27 -82 6 -35 17 -71 25 -79 8 -8 14 -9 14 -4 0 7 55 16 141 24 125 11 142
15 153 34 7 12 27 45 44 74 18 29 32 55 32 58 0 5 -62 44 -71 44 -3 0 -8 -2
-11 -5z m2 -48 c0 -10 -34 -103 -40 -110 -4 -5 -18 3 -31 16 -13 14 -35 27
-49 29 -19 2 -24 8 -22 26 2 13 -2 22 -10 23 -7 1 -2 5 12 9 24 8 140 13 140
7z m-199 -38 c-11 -28 -77 -106 -84 -99 -2 3 -7 28 -10 57 l-6 52 52 8 c29 5
53 8 55 8 1 -1 -2 -13 -7 -26z m60 -58 l31 -19 -44 -6 c-23 -4 -56 -10 -73
-13 -30 -5 -30 -5 10 25 22 17 41 31 42 31 2 1 17 -8 34 -18z"/>
<path d="M467 262 c2 -204 1 -192 14 -192 13 0 139 112 139 123 0 5 -15 0 -32
-11 -18 -11 -43 -23 -55 -27 -22 -6 -23 -3 -23 39 0 44 1 45 38 51 56 10 72
15 72 25 0 15 -36 21 -64 10 -41 -15 -46 -13 -46 25 0 33 2 35 33 36 17 0 40
4 50 8 17 6 17 8 3 20 -12 10 -23 11 -46 3 -26 -10 -30 -9 -30 8 0 16 -34 50
-50 50 -3 0 -4 -75 -3 -168z"/>
<path d="M625 373 c21 -189 89 -296 194 -310 47 -6 61 10 40 49 -7 13 -18 46
-24 73 l-12 50 -8 -48 c-4 -26 -11 -49 -15 -52 -16 -10 -76 42 -98 85 -20 38
-23 56 -19 113 4 60 2 69 -17 82 -40 29 -48 20 -41 -42z"/>
<path d="M300 382 c0 -4 4 -21 9 -39 5 -18 6 -76 0 -139 -11 -144 -4 -153 67
-77 59 64 69 84 27 55 -53 -36 -53 -36 -53 11 l0 45 45 6 c25 4 45 11 45 16 0
15 -36 21 -64 11 -24 -10 -26 -9 -26 18 0 26 4 29 41 34 22 3 44 8 47 12 11
11 -22 25 -45 20 -15 -3 -30 2 -43 15 -20 20 -50 27 -50 12z"/>
</g>
</svg>
