<?xml version="1.0" standalone="no"?>
<!DOCTYPE svg PUBLIC "-//W3C//DTD SVG 20010904//EN"
 "http://www.w3.org/TR/2001/REC-SVG-20010904/DTD/svg10.dtd">
<svg version="1.0" xmlns="http://www.w3.org/2000/svg"
 width="96.000000pt" height="68.000000pt" viewBox="0 0 96.000000 68.000000"
 preserveAspectRatio="xMidYMid meet">
<metadata>
Created by potrace 1.16, written by Peter Selinger 2001-2019
</metadata>
<g transform="translate(0.000000,68.000000) scale(0.100000,-0.100000)"
fill="#000000" stroke="none">
<path d="M652 588 c-7 -7 -12 -16 -12 -22 0 -5 -9 -20 -21 -32 l-21 -23 48
-30 c30 -18 53 -26 58 -21 12 12 -11 40 -33 40 -40 1 -43 17 -7 39 41 25 44
36 18 50 -13 7 -23 6 -30 -1z"/>
<path d="M521 555 c-7 -19 -17 -35 -22 -35 -20 0 -7 -29 25 -54 35 -26 56 -33
56 -18 0 12 -34 42 -48 42 -20 0 -13 22 15 46 22 19 25 25 14 38 -19 23 -26
20 -40 -19z"/>
<path d="M413 558 c-10 -14 -43 -83 -43 -91 0 -3 16 -15 36 -27 25 -14 40 -18
47 -11 7 7 0 16 -21 28 -39 22 -39 29 -6 58 17 15 25 29 21 39 -8 19 -21 21
-34 4z"/>
<path d="M265 533 c-7 -30 -34 -73 -45 -73 -5 0 -15 6 -22 13 -14 12 -24 16
-68 25 -21 4 -18 -1 18 -29 23 -18 42 -36 42 -40 0 -4 -19 -22 -42 -40 -64
-48 -67 -52 -35 -45 16 4 47 18 69 32 22 14 42 23 45 21 2 -3 7 -23 10 -44 5
-37 2 -41 -56 -95 -33 -31 -70 -59 -81 -63 -33 -10 -23 -24 11 -15 35 10 59
26 103 64 16 14 31 26 33 26 7 0 -9 -144 -19 -162 -7 -14 -17 -17 -48 -13 -22
3 -40 3 -40 1 0 -10 73 -76 84 -76 20 0 56 44 66 81 18 63 12 212 -11 274
l-21 56 42 42 c46 45 46 65 -2 78 -22 6 -27 3 -33 -18z"/>
<path d="M530 414 c-63 -8 -132 -13 -152 -11 -40 3 -45 -2 -27 -20 6 -6 16
-32 23 -59 l12 -49 51 3 c62 4 63 2 58 -143 -4 -122 -2 -124 73 -73 59 39 56
37 50 43 -3 3 -18 -1 -34 -10 -44 -23 -54 -19 -54 19 0 33 2 35 40 38 22 2 39
8 38 13 -2 6 -20 8 -40 7 -33 -3 -38 -1 -38 17 0 16 8 22 40 27 22 4 40 11 40
17 0 5 -14 7 -35 4 -28 -5 -35 -2 -40 14 -4 10 -13 19 -21 19 -8 0 -14 5 -14
10 0 8 107 16 142 11 8 -1 88 98 88 110 0 13 -36 29 -62 28 -13 -1 -75 -8
-138 -15z m130 -28 c0 -8 -4 -18 -10 -21 -5 -3 -10 -15 -10 -26 0 -23 -38 -27
-46 -4 -4 9 -19 15 -35 15 -28 0 -31 9 -20 48 1 1 28 2 61 2 46 0 60 -3 60
-14z m-160 -1 c0 -9 -72 -85 -80 -85 -5 0 -11 9 -14 20 -3 11 -8 29 -11 39 -5
15 0 20 22 24 44 6 83 7 83 2z m38 -51 c36 -10 25 -22 -25 -26 -57 -5 -63 -3
-37 17 21 16 29 17 62 9z"/>
<path d="M635 228 c17 -129 86 -208 180 -208 38 0 42 6 20 34 -8 11 -15 30
-15 43 0 13 -4 23 -10 23 -5 0 -10 -9 -10 -20 0 -53 -80 -20 -105 42 -8 21
-15 56 -15 78 0 29 -5 42 -19 50 -31 16 -33 13 -26 -42z"/>
<path d="M355 173 c0 -43 -2 -91 -5 -108 -4 -26 -2 -30 16 -28 12 1 38 18 58
38 36 35 37 48 0 20 -30 -23 -34 -19 -34 44 l0 59 35 6 c19 4 35 12 35 17 0 6
-11 8 -28 4 -20 -4 -33 -1 -42 10 -26 32 -35 16 -35 -62z"/>
<path d="M410 160 c-11 -7 -7 -10 18 -10 17 0 32 5 32 10 0 13 -30 13 -50 0z"/>
</g>
</svg>
