<?xml version="1.0" standalone="no"?>
<!DOCTYPE svg PUBLIC "-//W3C//DTD SVG 20010904//EN"
 "http://www.w3.org/TR/2001/REC-SVG-20010904/DTD/svg10.dtd">
<svg version="1.0" xmlns="http://www.w3.org/2000/svg"
 width="96.000000pt" height="68.000000pt" viewBox="0 0 96.000000 68.000000"
 preserveAspectRatio="xMidYMid meet">
<metadata>
Created by potrace 1.16, written by Peter Selinger 2001-2019
</metadata>
<g transform="translate(0.000000,68.000000) scale(0.100000,-0.100000)"
fill="#000000" stroke="none">
<path d="M679 576 c-2 -2 -64 -9 -138 -16 -106 -9 -135 -9 -141 1 -5 8 -17 -2
-35 -30 -35 -56 -39 -68 -25 -76 14 -9 49 22 61 53 8 21 14 23 61 20 49 -3 53
-5 56 -30 3 -26 1 -28 -50 -34 -39 -5 -48 -9 -33 -15 11 -4 35 -5 53 -2 27 4
32 2 32 -15 0 -23 -25 -32 -93 -32 -35 0 -47 -4 -43 -12 3 -7 13 -39 23 -70
l18 -57 48 5 c46 5 48 4 45 -18 -2 -14 -10 -24 -23 -25 -11 -1 -56 -5 -100 -9
-54 -4 -73 -9 -60 -14 11 -4 54 -6 96 -3 l77 6 3 -47 4 -46 -35 6 c-19 4 -73
19 -120 33 -85 26 -85 26 -82 57 2 24 -3 36 -23 52 l-25 20 42 37 c42 35 42
37 23 51 -21 16 -49 15 -128 -8 -62 -18 -60 -34 3 -30 53 3 59 -2 36 -33 -12
-17 -11 -23 10 -48 13 -16 24 -39 24 -53 0 -23 -2 -24 -75 -24 -56 0 -75 -3
-75 -13 0 -24 44 -37 87 -25 58 16 114 5 282 -56 84 -31 166 -56 182 -56 15 0
54 7 86 15 120 31 147 54 66 56 -27 1 -93 4 -148 8 -82 5 -99 9 -96 21 2 8 6
32 9 53 l4 37 77 2 c143 2 167 9 115 28 -25 10 -93 7 -166 -6 -23 -5 -28 -2
-28 14 0 23 45 38 79 27 17 -5 25 4 51 61 28 63 29 68 13 81 -13 10 -36 12
-86 8 -67 -6 -68 -6 -57 14 6 12 14 20 18 20 36 -6 72 3 72 17 0 12 -9 15 -42
12 -37 -3 -43 0 -40 15 2 12 -5 21 -20 25 -20 5 -17 7 17 14 48 8 135 10 135
2 0 -3 -5 -14 -11 -26 -16 -29 -7 -31 47 -7 l49 21 -28 24 c-25 21 -66 32 -78
20z m-25 -199 c-2 -7 -25 -13 -49 -13 -37 -1 -45 2 -45 17 0 13 9 19 38 21 40
3 63 -7 56 -25z m-134 -6 c0 -15 -9 -20 -41 -23 -29 -3 -43 0 -47 10 -7 19 16
32 56 32 25 0 32 -4 32 -19z m120 -51 c0 -17 -7 -20 -40 -20 -33 0 -40 3 -40
20 0 17 7 20 40 20 33 0 40 -3 40 -20z m-120 -10 c0 -17 -7 -20 -40 -20 -27 0
-40 4 -40 13 0 21 11 27 47 27 26 0 33 -4 33 -20z"/>
<path d="M160 526 c0 -21 47 -66 68 -66 22 0 34 22 26 44 -11 29 -94 49 -94
22z"/>
</g>
</svg>
