<?xml version="1.0" standalone="no"?>
<!DOCTYPE svg PUBLIC "-//W3C//DTD SVG 20010904//EN"
 "http://www.w3.org/TR/2001/REC-SVG-20010904/DTD/svg10.dtd">
<svg version="1.0" xmlns="http://www.w3.org/2000/svg"
 width="90.000000pt" height="92.000000pt" viewBox="0 0 90.000000 92.000000"
 preserveAspectRatio="xMidYMid meet">
<metadata>
Created by potrace 1.16, written by Peter Selinger 2001-2019
</metadata>
<g transform="translate(0.000000,92.000000) scale(0.100000,-0.100000)"
fill="#000000" stroke="none">
<path d="M379 884 c-1 -5 0 -13 2 -19 2 -5 5 -51 8 -102 l6 -91 -35 -6 c-19
-3 -72 -6 -118 -6 -82 0 -83 0 -75 -22 14 -39 4 -225 -18 -331 -11 -56 -36
-140 -54 -187 l-34 -85 34 38 c18 21 43 59 54 83 l21 44 31 -16 c21 -11 43
-13 70 -9 37 6 39 6 39 -20 0 -14 -4 -35 -10 -45 -7 -13 -5 -24 8 -40 18 -22
21 -22 70 -10 29 6 112 13 185 14 108 1 131 4 129 16 -9 41 -68 48 -239 29
-107 -12 -119 -7 -108 39 8 38 17 40 260 48 107 4 195 11 195 15 0 14 -48 41
-72 42 -13 0 -70 -5 -128 -11 -58 -6 -138 -14 -177 -17 l-73 -6 0 28 c0 41 9
48 65 51 88 5 210 23 219 32 5 5 -2 14 -17 21 -20 9 -48 8 -131 -5 -58 -9
-125 -16 -149 -16 -53 0 -61 -6 -42 -34 8 -11 15 -35 15 -53 l0 -33 -66 0 -66
0 6 28 c11 46 45 254 51 313 l6 57 65 7 c36 4 67 5 68 3 2 -1 6 -22 9 -45 l5
-42 -59 -12 c-32 -6 -59 -15 -59 -19 0 -15 33 -21 76 -14 40 6 44 4 49 -19 4
-14 18 -36 32 -49 21 -20 34 -23 101 -23 82 1 155 19 149 38 -8 27 -48 36 -90
21 -60 -21 -134 -19 -147 5 -20 39 -12 48 53 61 87 18 99 26 62 40 -22 9 -40
8 -73 -1 -23 -6 -45 -10 -48 -7 -2 3 0 18 6 33 8 22 8 30 -2 36 -23 14 -2 20
101 26 111 7 113 5 85 -49 -16 -31 -16 -31 8 -24 12 3 44 11 71 17 53 12 59
27 25 60 -52 49 -57 50 -149 34 -113 -20 -139 -20 -139 3 1 52 8 58 98 73 64
10 87 18 87 29 0 22 -45 24 -106 6 -71 -21 -72 -21 -66 18 3 21 1 39 -6 45
-17 14 -67 25 -68 15z"/>
</g>
</svg>
