<?xml version="1.0" standalone="no"?>
<!DOCTYPE svg PUBLIC "-//W3C//DTD SVG 20010904//EN"
 "http://www.w3.org/TR/2001/REC-SVG-20010904/DTD/svg10.dtd">
<svg version="1.0" xmlns="http://www.w3.org/2000/svg"
 width="96.000000pt" height="68.000000pt" viewBox="0 0 96.000000 68.000000"
 preserveAspectRatio="xMidYMid meet">
<metadata>
Created by potrace 1.16, written by Peter Selinger 2001-2019
</metadata>
<g transform="translate(0.000000,68.000000) scale(0.100000,-0.100000)"
fill="#000000" stroke="none">
<path d="M424 614 c4 -10 9 -44 13 -76 4 -45 10 -58 22 -58 10 0 21 13 26 33
10 31 12 32 79 40 38 4 72 10 75 13 10 9 -23 24 -44 20 -11 -3 -39 -8 -62 -12
-40 -6 -42 -5 -45 22 -3 25 -8 29 -37 32 -29 3 -33 1 -27 -14z"/>
</g>
</svg>
