<?xml version="1.0" standalone="no"?>
<!DOCTYPE svg PUBLIC "-//W3C//DTD SVG 20010904//EN"
 "http://www.w3.org/TR/2001/REC-SVG-20010904/DTD/svg10.dtd">
<svg version="1.0" xmlns="http://www.w3.org/2000/svg"
 width="90.000000pt" height="92.000000pt" viewBox="0 0 90.000000 92.000000"
 preserveAspectRatio="xMidYMid meet">
<metadata>
Created by potrace 1.16, written by Peter Selinger 2001-2019
</metadata>
<g transform="translate(0.000000,92.000000) scale(0.100000,-0.100000)"
fill="#000000" stroke="none">
<path d="M630 820 c-19 -5 -86 -16 -149 -25 -111 -16 -115 -16 -128 1 -12 16
-15 17 -23 4 -5 -8 -10 -18 -10 -23 0 -4 -9 -27 -21 -52 -12 -25 -18 -52 -15
-61 10 -25 40 -12 58 26 9 19 21 40 26 46 11 12 309 50 319 41 3 -4 -4 -22
-15 -42 -12 -19 -20 -35 -19 -35 14 0 142 61 145 69 4 12 -90 61 -115 60 -10
-1 -34 -5 -53 -9z"/>
<path d="M110 803 c0 -10 68 -95 83 -105 7 -4 20 -8 30 -8 15 0 18 7 15 38 -3
33 -8 40 -48 60 -44 22 -80 29 -80 15z"/>
<path d="M540 664 c-25 -8 -69 -15 -98 -16 -50 -1 -53 -2 -47 -22 3 -11 12
-63 19 -113 12 -93 21 -117 34 -96 10 16 172 29 172 14 0 -21 30 -11 34 12 8
33 36 193 36 200 0 11 -58 37 -82 36 -13 -1 -43 -7 -68 -15z m78 -60 l3 -30
-86 -10 -85 -9 0 31 c0 31 2 32 58 42 90 16 106 12 110 -24z m-8 -97 c0 -31
-2 -32 -37 -33 -21 0 -57 -3 -80 -7 l-43 -7 0 34 0 35 58 4 c31 2 67 4 80 5
19 2 22 -3 22 -31z"/>
<path d="M30 602 c0 -15 90 -112 105 -112 7 0 18 6 24 14 18 22 -4 65 -42 81
-51 21 -87 28 -87 17z"/>
<path d="M205 415 c-54 -96 -84 -141 -115 -170 -16 -16 -30 -37 -30 -47 0 -22
31 -88 42 -88 10 0 8 -4 83 188 59 151 68 200 20 117z"/>
<path d="M496 411 c-3 -4 1 -20 9 -35 11 -20 11 -28 2 -30 -21 -6 -193 -26
-226 -26 -42 0 -39 -13 7 -34 36 -16 42 -16 98 -1 40 11 120 18 247 22 103 3
190 10 193 15 16 26 -69 61 -114 49 -16 -5 -56 -12 -90 -16 -61 -7 -62 -7 -62
18 0 19 -7 28 -30 35 -16 6 -32 7 -34 3z"/>
<path d="M405 214 c-10 -20 -44 -58 -74 -86 -42 -38 -50 -49 -31 -43 55 16
190 109 190 130 0 11 -41 35 -58 35 -4 0 -16 -16 -27 -36z"/>
<path d="M663 168 c67 -88 99 -105 105 -57 4 32 -28 73 -87 110 -83 53 -89 38
-18 -53z"/>
</g>
</svg>
