<?xml version="1.0" standalone="no"?>
<!DOCTYPE svg PUBLIC "-//W3C//DTD SVG 20010904//EN"
 "http://www.w3.org/TR/2001/REC-SVG-20010904/DTD/svg10.dtd">
<svg version="1.0" xmlns="http://www.w3.org/2000/svg"
 width="96.000000pt" height="68.000000pt" viewBox="0 0 96.000000 68.000000"
 preserveAspectRatio="xMidYMid meet">
<metadata>
Created by potrace 1.16, written by Peter Selinger 2001-2019
</metadata>
<g transform="translate(0.000000,68.000000) scale(0.100000,-0.100000)"
fill="#000000" stroke="none">
<path d="M190 556 c1 -30 80 -92 105 -82 20 7 19 39 -3 59 -23 21 -102 39
-102 23z"/>
<path d="M530 553 c-81 -12 -108 -13 -123 -3 -10 6 -20 10 -22 8 -14 -16 -44
-91 -40 -98 12 -19 32 -10 50 23 l17 33 140 13 c77 7 142 10 145 7 3 -3 0 -12
-7 -21 -7 -9 -11 -18 -8 -20 4 -4 108 32 117 40 2 2 -14 11 -34 19 -44 19 -94
19 -235 -1z"/>
<path d="M585 460 c-16 -6 -58 -11 -92 -12 -35 -2 -63 -3 -63 -3 6 0 29 -91
30 -117 0 -35 13 -57 23 -40 8 12 137 14 152 2 18 -15 30 4 49 80 13 52 13 67
3 77 -17 18 -67 24 -102 13z m45 -45 c0 -21 -5 -25 -29 -25 -15 0 -49 -3 -75
-6 -44 -7 -46 -6 -46 19 0 23 4 26 43 30 105 9 107 9 107 -18z m0 -70 c0 -22
-4 -25 -39 -25 -21 0 -53 -3 -70 -6 -28 -6 -31 -4 -31 19 0 22 5 26 38 30 96
10 102 9 102 -18z"/>
<path d="M120 412 c0 -17 60 -72 85 -78 32 -8 45 31 19 56 -22 21 -104 38
-104 22z"/>
<path d="M255 266 c-20 -30 -54 -71 -75 -90 -22 -20 -40 -44 -40 -55 0 -27 36
-69 49 -56 12 12 121 232 121 246 0 23 -22 5 -55 -45z"/>
<path d="M530 271 c0 -6 5 -13 11 -16 12 -8 7 -30 -7 -31 -5 0 -55 -4 -111 -9
-57 -4 -103 -11 -103 -15 0 -14 55 -19 120 -9 75 10 179 17 298 18 86 1 102
10 53 30 -21 9 -48 10 -105 2 -99 -14 -96 -14 -96 8 0 19 -18 31 -46 31 -8 0
-14 -4 -14 -9z"/>
<path d="M450 135 c-11 -19 -37 -44 -57 -56 -53 -33 -24 -35 33 -3 27 15 51
30 54 33 3 4 16 11 30 17 l25 11 -32 16 -32 17 -21 -35z"/>
<path d="M630 163 c0 -13 108 -123 120 -123 7 0 10 13 8 33 -3 28 -11 36 -65
65 -35 18 -63 29 -63 25z"/>
</g>
</svg>
