<?xml version="1.0" standalone="no"?>
<!DOCTYPE svg PUBLIC "-//W3C//DTD SVG 20010904//EN"
 "http://www.w3.org/TR/2001/REC-SVG-20010904/DTD/svg10.dtd">
<svg version="1.0" xmlns="http://www.w3.org/2000/svg"
 width="90.000000pt" height="92.000000pt" viewBox="0 0 90.000000 92.000000"
 preserveAspectRatio="xMidYMid meet">
<metadata>
Created by potrace 1.16, written by Peter Selinger 2001-2019
</metadata>
<g transform="translate(0.000000,92.000000) scale(0.100000,-0.100000)"
fill="#000000" stroke="none">
<path d="M395 878 c3 -13 9 -49 12 -80 l5 -56 -49 -7 c-90 -12 -96 -14 -82
-32 11 -12 26 -14 71 -10 l58 5 0 -48 c0 -45 -2 -49 -27 -54 -45 -8 -204 -26
-257 -29 -63 -3 -69 -21 -15 -39 38 -13 51 -12 118 4 41 9 102 20 136 23 l60
6 -40 -36 c-60 -53 -199 -146 -298 -200 -48 -26 -86 -49 -84 -51 2 -2 29 3 60
11 63 16 153 59 236 112 38 24 61 33 77 29 13 -4 56 3 96 14 40 11 74 20 75
20 10 0 -1 -27 -23 -56 -19 -24 -32 -33 -45 -29 -21 7 -35 -11 -15 -18 8 -3
16 -16 18 -29 3 -22 -1 -24 -87 -35 -49 -7 -111 -12 -137 -12 -57 -1 -62 -16
-12 -37 32 -14 43 -13 105 0 37 9 84 16 103 16 34 0 36 -2 36 -32 0 -18 -3
-50 -7 -72 l-6 -38 -46 6 -46 6 52 -52 c50 -50 54 -52 70 -35 14 14 19 39 21
122 l4 105 128 0 c71 0 131 4 134 9 7 10 -22 37 -52 48 -14 6 -52 4 -95 -4
-106 -18 -116 -17 -123 13 -7 29 3 39 83 79 59 28 60 42 9 70 -31 17 -36 17
-123 -4 -50 -11 -94 -21 -98 -21 -4 0 15 17 42 38 26 21 54 46 62 55 11 15 36
17 165 17 159 0 190 7 167 34 -27 32 -80 39 -170 22 -46 -9 -87 -16 -93 -16
-5 0 25 33 67 74 79 79 83 92 38 121 -28 18 -53 14 -53 -10 0 -33 -126 -195
-151 -195 -5 0 -9 24 -9 54 l0 54 48 7 c26 3 54 11 62 16 13 8 12 12 -4 24
-23 18 -30 18 -75 5 l-33 -9 7 64 c6 64 6 65 -20 75 -44 17 -58 13 -50 -12z"/>
</g>
</svg>
