<?xml version="1.0" standalone="no"?>
<!DOCTYPE svg PUBLIC "-//W3C//DTD SVG 20010904//EN"
 "http://www.w3.org/TR/2001/REC-SVG-20010904/DTD/svg10.dtd">
<svg version="1.0" xmlns="http://www.w3.org/2000/svg"
 width="96.000000pt" height="68.000000pt" viewBox="0 0 96.000000 68.000000"
 preserveAspectRatio="xMidYMid meet">
<metadata>
Created by potrace 1.16, written by Peter Selinger 2001-2019
</metadata>
<g transform="translate(0.000000,68.000000) scale(0.100000,-0.100000)"
fill="#000000" stroke="none">
<path d="M537 633 c-4 -3 -7 -15 -7 -25 0 -25 -35 -94 -72 -140 -15 -20 -25
-39 -20 -42 11 -7 65 32 91 66 17 22 31 26 100 32 96 8 111 13 111 36 0 16 -7
18 -42 15 -24 -2 -60 -8 -80 -13 l-37 -10 17 25 c15 24 15 26 -7 44 -24 20
-43 24 -54 12z"/>
<path d="M274 593 c-9 -36 -45 -93 -91 -144 -64 -71 -17 -60 64 14 25 23 52
42 61 43 9 1 47 5 84 9 69 7 92 20 67 36 -13 9 -62 6 -119 -8 l-25 -6 20 22
c24 27 11 54 -28 59 -22 3 -28 -2 -33 -25z"/>
<path d="M591 479 c38 -56 99 -75 99 -31 0 28 -23 43 -72 50 l-43 5 16 -24z"/>
<path d="M310 485 c0 -17 46 -65 62 -65 27 0 33 27 13 50 -16 18 -75 29 -75
15z"/>
<path d="M482 414 c-13 -8 -60 -29 -105 -45 l-82 -29 56 6 c54 5 57 4 61 -20
3 -13 2 -30 -2 -36 -4 -7 -53 -16 -115 -20 -59 -5 -110 -12 -113 -15 -19 -19
72 -25 166 -10 30 4 52 4 52 -1 -1 -19 -63 -90 -101 -116 -22 -15 -61 -35 -87
-44 -103 -38 -63 -42 56 -7 53 16 132 82 173 143 l16 24 101 -99 102 -98 56 2
c66 2 101 16 69 26 -123 41 -198 84 -285 163 l-25 22 100 1 c55 0 120 4 145 8
l45 8 -40 17 c-34 16 -48 17 -107 7 -37 -6 -83 -11 -104 -11 -34 0 -36 2 -30
25 5 18 2 27 -9 31 -29 12 -14 22 50 34 68 13 78 22 46 40 -28 15 -63 12 -89
-6z"/>
</g>
</svg>
