<?xml version="1.0" standalone="no"?>
<!DOCTYPE svg PUBLIC "-//W3C//DTD SVG 20010904//EN"
 "http://www.w3.org/TR/2001/REC-SVG-20010904/DTD/svg10.dtd">
<svg version="1.0" xmlns="http://www.w3.org/2000/svg"
 width="96.000000pt" height="68.000000pt" viewBox="0 0 96.000000 68.000000"
 preserveAspectRatio="xMidYMid meet">
<metadata>
Created by potrace 1.16, written by Peter Selinger 2001-2019
</metadata>
<g transform="translate(0.000000,68.000000) scale(0.100000,-0.100000)"
fill="#000000" stroke="none">
<path d="M653 241 c2 -10 9 -27 17 -37 9 -11 10 -15 3 -10 -7 4 -13 3 -13 -3
0 -5 5 -13 10 -16 6 -3 10 -17 10 -31 0 -31 27 -74 47 -74 8 0 12 -4 9 -8 -3
-5 11 -16 30 -25 57 -28 97 -19 59 13 -8 7 -13 15 -11 19 2 3 0 15 -5 26 -6
16 -8 14 -8 -13 l-1 -34 -36 21 c-19 12 -39 19 -44 16 -4 -3 -6 3 -3 14 3 10
0 22 -6 25 -6 4 -11 27 -11 52 0 27 -4 43 -10 39 -6 -4 -7 1 -3 10 3 10 0 21
-8 26 -22 14 -29 11 -26 -10z"/>
</g>
</svg>
