<?xml version="1.0" standalone="no"?>
<!DOCTYPE svg PUBLIC "-//W3C//DTD SVG 20010904//EN"
 "http://www.w3.org/TR/2001/REC-SVG-20010904/DTD/svg10.dtd">
<svg version="1.0" xmlns="http://www.w3.org/2000/svg"
 width="96.000000pt" height="68.000000pt" viewBox="0 0 96.000000 68.000000"
 preserveAspectRatio="xMidYMid meet">
<metadata>
Created by potrace 1.16, written by Peter Selinger 2001-2019
</metadata>
<g transform="translate(0.000000,68.000000) scale(0.100000,-0.100000)"
fill="#000000" stroke="none">
<path d="M315 534 c-49 -7 -107 -13 -127 -13 -41 -1 -52 -18 -15 -23 21 -3 22
-7 25 -135 2 -125 4 -133 22 -133 15 0 20 7 20 28 0 40 10 49 60 57 58 9 85
24 50 26 -34 2 -31 2 -67 -6 -32 -6 -33 -6 -33 28 l0 35 60 7 c33 4 60 12 60
17 0 7 -22 9 -60 5 -66 -6 -72 1 -51 56 9 22 16 25 98 30 98 6 133 15 111 28
-16 11 -38 10 -153 -7z"/>
</g>
</svg>
