<?xml version="1.0" standalone="no"?>
<!DOCTYPE svg PUBLIC "-//W3C//DTD SVG 20010904//EN"
 "http://www.w3.org/TR/2001/REC-SVG-20010904/DTD/svg10.dtd">
<svg version="1.0" xmlns="http://www.w3.org/2000/svg"
 width="96.000000pt" height="68.000000pt" viewBox="0 0 96.000000 68.000000"
 preserveAspectRatio="xMidYMid meet">
<metadata>
Created by potrace 1.16, written by Peter Selinger 2001-2019
</metadata>
<g transform="translate(0.000000,68.000000) scale(0.100000,-0.100000)"
fill="#000000" stroke="none">
<path d="M235 470 c-16 -4 -49 -8 -73 -9 -40 -1 -43 -3 -36 -23 4 -13 7 -69 6
-125 -1 -95 0 -103 18 -103 10 0 20 4 22 9 2 4 27 11 56 15 40 5 52 4 52 -7 0
-7 8 -13 18 -14 15 -1 17 11 17 123 0 148 -3 154 -80 134z m29 -26 c11 -4 16
-19 16 -45 0 -34 -3 -39 -24 -39 -13 0 -38 -3 -55 -6 l-31 -6 0 45 c0 42 2 46
28 50 47 7 50 7 66 1z m14 -147 c3 -33 1 -37 -21 -37 -14 0 -39 -3 -56 -6 -31
-6 -31 -6 -31 34 0 40 1 41 38 45 63 7 67 5 70 -36z"/>
</g>
</svg>
