<?xml version="1.0" standalone="no"?>
<!DOCTYPE svg PUBLIC "-//W3C//DTD SVG 20010904//EN"
 "http://www.w3.org/TR/2001/REC-SVG-20010904/DTD/svg10.dtd">
<svg version="1.0" xmlns="http://www.w3.org/2000/svg"
 width="96.000000pt" height="68.000000pt" viewBox="0 0 96.000000 68.000000"
 preserveAspectRatio="xMidYMid meet">
<metadata>
Created by potrace 1.16, written by Peter Selinger 2001-2019
</metadata>
<g transform="translate(0.000000,68.000000) scale(0.100000,-0.100000)"
fill="#000000" stroke="none">
<path d="M515 563 c3 -10 9 -48 12 -85 5 -56 9 -68 24 -68 15 0 18 11 21 76 3
81 -2 94 -40 94 -19 0 -23 -4 -17 -17z"/>
<path d="M674 528 c-23 -33 -44 -78 -37 -78 5 0 31 14 58 31 l49 31 -24 14
c-31 17 -35 17 -46 2z"/>
<path d="M396 488 c16 -29 38 -48 56 -48 27 0 22 35 -7 48 -34 16 -58 15 -49
0z"/>
</g>
</svg>
