<?xml version="1.0" standalone="no"?>
<!DOCTYPE svg PUBLIC "-//W3C//DTD SVG 20010904//EN"
 "http://www.w3.org/TR/2001/REC-SVG-20010904/DTD/svg10.dtd">
<svg version="1.0" xmlns="http://www.w3.org/2000/svg"
 width="96.000000pt" height="68.000000pt" viewBox="0 0 96.000000 68.000000"
 preserveAspectRatio="xMidYMid meet">
<metadata>
Created by potrace 1.16, written by Peter Selinger 2001-2019
</metadata>
<g transform="translate(0.000000,68.000000) scale(0.100000,-0.100000)"
fill="#000000" stroke="none">
<path d="M560 616 c0 -8 -16 -37 -35 -66 -19 -29 -35 -54 -35 -56 0 -23 142
73 148 101 2 7 -11 18 -29 24 -42 14 -49 14 -49 -3z"/>
<path d="M296 591 c-8 -12 65 -91 84 -91 25 0 33 28 16 55 -14 22 -92 50 -100
36z"/>
<path d="M690 497 c-7 -7 -447 -47 -516 -47 -60 0 -78 -14 -40 -32 20 -8 49
-8 123 1 54 6 108 14 121 17 29 8 29 -17 1 -63 -20 -32 -25 -34 -57 -28 -31 6
-34 4 -27 -12 14 -34 17 -98 7 -158 -10 -60 -2 -105 18 -105 5 0 10 7 10 15 0
12 13 15 59 15 32 0 78 3 103 6 40 6 48 3 71 -22 25 -27 27 -27 46 -10 18 16
19 30 18 150 -1 133 -1 133 -27 144 -17 8 -37 9 -60 3 -53 -14 -140 -24 -140
-16 0 4 14 20 31 36 17 16 28 32 25 37 -7 12 116 22 260 22 114 0 137 7 108
31 -16 13 -124 26 -134 16z m-115 -182 c0 -21 -11 -24 -171 -41 l-61 -6 5 30
c4 29 7 31 56 35 28 2 78 3 111 3 53 -1 60 -3 60 -21z m3 -71 c-3 -24 -8 -27
-48 -30 -25 -3 -78 -8 -118 -12 l-73 -8 3 25 c3 25 8 27 88 37 145 19 152 18
148 -12z m2 -79 l0 -35 -52 0 c-29 0 -83 -3 -120 -7 l-68 -6 0 30 c0 30 0 30
63 32 34 2 82 6 107 11 25 4 51 8 58 9 7 1 12 -12 12 -34z"/>
</g>
</svg>
