<?xml version="1.0" standalone="no"?>
<!DOCTYPE svg PUBLIC "-//W3C//DTD SVG 20010904//EN"
 "http://www.w3.org/TR/2001/REC-SVG-20010904/DTD/svg10.dtd">
<svg version="1.0" xmlns="http://www.w3.org/2000/svg"
 width="96.000000pt" height="68.000000pt" viewBox="0 0 96.000000 68.000000"
 preserveAspectRatio="xMidYMid meet">
<metadata>
Created by potrace 1.16, written by Peter Selinger 2001-2019
</metadata>
<g transform="translate(0.000000,68.000000) scale(0.100000,-0.100000)"
fill="#000000" stroke="none">
<path d="M617 483 c3 -27 1 -64 -4 -83 l-9 -35 -164 -18 c-89 -9 -165 -15
-169 -12 -3 3 -7 38 -9 76 -4 63 -7 72 -28 81 -33 15 -38 6 -24 -38 8 -22 10
-63 7 -101 -6 -76 7 -89 63 -67 76 30 323 67 319 48 -4 -23 3 -34 21 -34 20 0
20 0 55 144 19 76 15 86 -36 86 -25 0 -26 -2 -22 -47z"/>
</g>
</svg>
