<?xml version="1.0" standalone="no"?>
<!DOCTYPE svg PUBLIC "-//W3C//DTD SVG 20010904//EN"
 "http://www.w3.org/TR/2001/REC-SVG-20010904/DTD/svg10.dtd">
<svg version="1.0" xmlns="http://www.w3.org/2000/svg"
 width="96.000000pt" height="68.000000pt" viewBox="0 0 96.000000 68.000000"
 preserveAspectRatio="xMidYMid meet">
<metadata>
Created by potrace 1.16, written by Peter Selinger 2001-2019
</metadata>
<g transform="translate(0.000000,68.000000) scale(0.100000,-0.100000)"
fill="#000000" stroke="none">
<path d="M515 548 c-22 -5 -79 -10 -127 -11 l-87 -2 5 -50 c12 -104 -41 -235
-135 -333 -60 -63 -42 -68 31 -9 60 49 107 120 132 202 l18 55 47 0 c27 0 89
3 139 6 69 5 90 10 82 19 -7 8 0 27 21 60 29 46 30 50 13 62 -20 15 -80 15
-139 1z m70 -51 c-4 -18 -13 -38 -20 -46 -13 -13 -191 -38 -202 -28 -3 3 -2
24 2 46 l6 39 67 11 c82 13 134 18 145 13 5 -2 5 -18 2 -35z"/>
</g>
</svg>
