<?xml version="1.0" standalone="no"?>
<!DOCTYPE svg PUBLIC "-//W3C//DTD SVG 20010904//EN"
 "http://www.w3.org/TR/2001/REC-SVG-20010904/DTD/svg10.dtd">
<svg version="1.0" xmlns="http://www.w3.org/2000/svg"
 width="96.000000pt" height="68.000000pt" viewBox="0 0 96.000000 68.000000"
 preserveAspectRatio="xMidYMid meet">
<metadata>
Created by potrace 1.16, written by Peter Selinger 2001-2019
</metadata>
<g transform="translate(0.000000,68.000000) scale(0.100000,-0.100000)"
fill="#000000" stroke="none">
<path d="M566 608 c-3 -13 -6 -33 -6 -45 0 -18 -6 -23 -27 -23 -16 0 -39 -3
-51 -7 -30 -7 -10 -23 31 -23 31 0 33 -9 11 -52 -24 -46 4 -31 39 20 l28 42
70 0 c38 0 69 4 69 9 0 14 -27 21 -76 21 -45 0 -53 10 -34 40 5 9 5 19 -2 27
-17 20 -45 15 -52 -9z"/>
<path d="M270 605 c0 -3 7 -19 15 -36 9 -16 13 -34 10 -39 -3 -6 -36 -10 -72
-10 l-66 0 19 -21 c15 -17 27 -20 59 -15 23 3 48 8 56 11 10 4 20 -5 30 -27
17 -40 35 -35 31 9 -2 28 1 33 35 44 l38 14 -40 5 c-35 4 -41 9 -45 35 -4 25
-10 30 -38 33 -17 2 -32 1 -32 -3z"/>
</g>
</svg>
