<?xml version="1.0" standalone="no"?>
<!DOCTYPE svg PUBLIC "-//W3C//DTD SVG 20010904//EN"
 "http://www.w3.org/TR/2001/REC-SVG-20010904/DTD/svg10.dtd">
<svg version="1.0" xmlns="http://www.w3.org/2000/svg"
 width="96.000000pt" height="68.000000pt" viewBox="0 0 96.000000 68.000000"
 preserveAspectRatio="xMidYMid meet">
<metadata>
Created by potrace 1.16, written by Peter Selinger 2001-2019
</metadata>
<g transform="translate(0.000000,68.000000) scale(0.100000,-0.100000)"
fill="#000000" stroke="none">
<path d="M622 576 c-15 -34 -88 -81 -126 -81 -22 -1 -30 -5 -26 -15 2 -8 3
-48 1 -88 -3 -78 -33 -184 -75 -258 -14 -24 -21 -44 -17 -44 14 0 68 65 81 97
20 53 30 39 30 -43 0 -66 2 -75 18 -72 16 3 19 11 21 71 1 22 6 27 26 27 22 0
25 -4 25 -35 0 -50 28 -48 32 2 3 33 6 38 28 38 23 0 25 -3 25 -49 0 -27 5
-51 11 -53 12 -4 24 40 24 88 0 26 3 29 35 29 32 0 35 -3 35 -27 0 -56 -11
-75 -36 -69 -23 6 -23 5 -12 -21 17 -40 24 -46 45 -39 27 9 41 44 53 128 6 39
13 81 16 94 4 17 -1 27 -20 39 -25 16 -35 16 -167 1 -78 -10 -143 -15 -146
-13 -2 3 -1 21 2 40 l7 35 81 6 c130 11 156 16 151 31 -3 7 4 32 15 55 11 24
18 46 16 50 -8 12 -57 19 -79 10 -12 -4 -48 -10 -81 -14 l-60 -7 65 37 c36 20
67 38 69 40 7 6 -12 21 -35 28 -16 5 -23 0 -32 -18z m84 -130 c-3 -22 -5 -42
-5 -43 -1 0 -29 -4 -63 -8 -35 -4 -75 -9 -90 -11 -24 -4 -28 -1 -28 18 0 53
11 68 49 69 20 1 50 5 66 8 17 4 40 8 53 8 22 0 23 -3 18 -41z m-38 -209 c3
-37 2 -38 -25 -35 -23 2 -28 8 -28 33 -1 40 3 47 28 43 18 -2 23 -11 25 -41z
m102 8 c0 -32 -2 -35 -30 -35 -28 0 -30 2 -27 35 2 31 5 35 30 35 24 0 27 -3
27 -35z m-198 -3 c6 -39 0 -52 -23 -52 -15 0 -19 7 -19 34 0 30 9 42 31 45 4
1 9 -12 11 -27z"/>
<path d="M305 515 c-22 -8 -64 -14 -94 -14 -53 -1 -53 -1 -39 -23 8 -13 21
-47 27 -75 12 -50 33 -69 44 -40 11 31 26 -15 33 -104 6 -95 6 -96 -17 -102
-47 -13 -49 -11 -49 67 0 72 -6 86 -38 86 -4 0 -5 -40 -4 -88 l4 -89 -32 5
c-39 6 -38 -15 2 -37 22 -13 30 -12 69 6 24 11 72 31 107 44 64 25 84 45 33
34 -36 -8 -42 1 -34 48 5 35 7 37 45 37 27 0 38 4 36 12 -3 8 -19 12 -42 10
l-37 -4 3 39 c3 34 6 38 34 41 27 3 31 7 31 33 0 16 9 43 21 59 29 39 28 46
-9 59 -38 13 -42 13 -94 -4z m41 -47 c-3 -7 -7 -25 -10 -40 -6 -26 -10 -28
-51 -28 -45 0 -45 0 -45 34 0 38 8 43 72 45 26 1 36 -3 34 -11z"/>
</g>
</svg>
