<?xml version="1.0" standalone="no"?>
<!DOCTYPE svg PUBLIC "-//W3C//DTD SVG 20010904//EN"
 "http://www.w3.org/TR/2001/REC-SVG-20010904/DTD/svg10.dtd">
<svg version="1.0" xmlns="http://www.w3.org/2000/svg"
 width="96.000000pt" height="68.000000pt" viewBox="0 0 96.000000 68.000000"
 preserveAspectRatio="xMidYMid meet">
<metadata>
Created by potrace 1.16, written by Peter Selinger 2001-2019
</metadata>
<g transform="translate(0.000000,68.000000) scale(0.100000,-0.100000)"
fill="#000000" stroke="none">
<path d="M510 211 c0 -27 -6 -30 -88 -32 -40 -1 -75 -5 -77 -9 -8 -12 60 -21
104 -14 39 6 56 -5 31 -21 -20 -12 -9 -23 30 -30 22 -4 40 -10 40 -15 0 -8
-52 -30 -120 -50 -32 -9 -30 -10 22 -6 31 3 77 14 103 25 l46 21 69 -35 c81
-41 92 -43 88 -13 -2 16 -18 28 -60 44 -31 12 -59 19 -62 16 -3 -3 -6 -2 -6 2
0 5 14 26 32 48 l32 41 72 -7 c68 -5 98 3 79 22 -9 10 -225 9 -225 0 0 -5 -13
-8 -29 -8 -24 0 -28 3 -24 20 5 17 0 20 -26 20 -24 0 -31 -4 -31 -19z m110
-48 c-1 -5 -9 -18 -19 -30 -19 -22 -53 -29 -85 -17 -14 5 -14 9 2 30 13 18 27
23 60 24 23 0 42 -3 42 -7z"/>
</g>
</svg>
