<?xml version="1.0" standalone="no"?>
<!DOCTYPE svg PUBLIC "-//W3C//DTD SVG 20010904//EN"
 "http://www.w3.org/TR/2001/REC-SVG-20010904/DTD/svg10.dtd">
<svg version="1.0" xmlns="http://www.w3.org/2000/svg"
 width="96.000000pt" height="68.000000pt" viewBox="0 0 96.000000 68.000000"
 preserveAspectRatio="xMidYMid meet">
<metadata>
Created by potrace 1.16, written by Peter Selinger 2001-2019
</metadata>
<g transform="translate(0.000000,68.000000) scale(0.100000,-0.100000)"
fill="#000000" stroke="none">
<path d="M523 586 c3 -8 9 -30 12 -49 6 -33 5 -35 -24 -42 -17 -3 -43 -6 -58
-5 -43 3 -46 1 -29 -16 24 -24 20 -44 -10 -44 -14 0 -23 -4 -19 -10 3 -5 16
-10 28 -10 16 0 26 -9 33 -28 10 -25 15 -28 47 -24 32 4 37 1 37 -16 0 -16 -9
-21 -50 -26 -28 -4 -56 -4 -62 0 -12 7 -7 -22 12 -71 8 -21 13 -24 28 -16 23
12 45 -1 40 -25 -3 -16 -14 -19 -78 -22 -41 -2 -77 -6 -79 -8 -12 -12 18 -19
74 -18 58 1 63 -1 55 -17 -14 -26 -13 -27 25 -35 62 -11 38 -34 -62 -58 -54
-13 -56 -14 -20 -15 43 -1 127 17 142 30 17 16 49 10 112 -22 63 -31 98 -33
87 -5 -7 17 -81 56 -107 56 -26 0 -20 28 14 62 29 30 32 31 99 25 44 -4 72 -2
76 5 13 20 -22 29 -97 23 -43 -3 -87 -2 -102 4 -22 9 -27 8 -27 -4 0 -10 -10
-15 -27 -15 -23 0 -28 4 -28 24 0 23 4 25 73 31 49 5 72 11 69 18 -2 7 5 20
17 30 34 30 -1 43 -102 37 -38 -2 -43 1 -40 17 3 14 13 18 49 17 43 0 46 2 64
38 18 37 20 38 73 38 47 0 53 2 42 15 -7 8 -28 15 -47 15 -27 0 -34 3 -29 15
11 29 -47 44 -117 30 -37 -7 -37 -7 -27 20 16 43 11 50 -49 61 -18 4 -22 1
-18 -10z m147 -105 c0 -19 -25 -31 -67 -31 -28 0 -32 36 -5 43 44 12 72 7 72
-12z m-132 -18 c-2 -13 -14 -19 -41 -21 -32 -3 -37 0 -37 17 0 18 6 21 41 21
33 0 40 -3 37 -17z m122 -37 c0 -23 -17 -36 -46 -36 -27 0 -34 4 -34 20 0 17
7 20 40 20 22 0 40 -2 40 -4z m-120 -26 c0 -16 -7 -20 -30 -20 -18 0 -30 5
-30 13 0 20 10 27 37 27 16 0 23 -6 23 -20z m127 -94 c12 -12 -8 -36 -31 -36
-13 0 -31 -3 -40 -6 -12 -5 -16 0 -16 19 0 16 6 27 18 29 21 5 62 1 69 -6z
m-127 -29 c0 -19 -6 -23 -34 -25 -26 -2 -38 3 -45 17 -12 21 -1 28 52 30 22 1
27 -3 27 -22z m80 -115 c0 -18 -42 -52 -63 -52 -38 0 -51 14 -36 39 11 16 24
21 56 21 24 0 43 -4 43 -8z"/>
<path d="M267 496 l6 -83 -49 -7 c-67 -10 -85 -16 -79 -27 4 -5 33 -9 66 -9
l59 0 0 -39 c0 -42 -6 -47 -137 -116 -58 -29 -63 -39 -34 -55 33 -17 49 -12
107 36 31 25 58 43 60 41 2 -2 1 -32 -3 -66 l-6 -63 -34 5 c-18 3 -33 2 -33
-2 0 -11 75 -81 87 -81 31 0 43 44 43 151 0 106 0 106 31 133 36 32 32 47 -6
22 l-26 -17 3 32 c2 26 9 35 27 39 34 8 38 28 7 36 -29 7 -35 40 -15 90 9 24
7 30 -13 46 -13 10 -33 18 -45 18 -21 0 -22 -2 -16 -84z"/>
</g>
</svg>
