<?xml version="1.0" standalone="no"?>
<!DOCTYPE svg PUBLIC "-//W3C//DTD SVG 20010904//EN"
 "http://www.w3.org/TR/2001/REC-SVG-20010904/DTD/svg10.dtd">
<svg version="1.0" xmlns="http://www.w3.org/2000/svg"
 width="96.000000pt" height="68.000000pt" viewBox="0 0 96.000000 68.000000"
 preserveAspectRatio="xMidYMid meet">
<metadata>
Created by potrace 1.16, written by Peter Selinger 2001-2019
</metadata>
<g transform="translate(0.000000,68.000000) scale(0.100000,-0.100000)"
fill="#000000" stroke="none">
<path d="M640 480 c-25 -5 -72 -9 -104 -9 -56 -1 -58 -2 -43 -18 8 -10 20 -36
26 -58 14 -50 30 -75 38 -57 3 8 29 12 79 12 52 0 74 4 74 13 0 6 14 30 30 51
25 33 28 42 18 53 -18 18 -65 23 -118 13z m45 -52 c-4 -18 -14 -39 -23 -45
-18 -15 -102 -18 -102 -4 0 5 -3 22 -6 39 -6 29 -4 31 27 35 19 2 51 5 72 5
38 2 39 2 32 -30z"/>
</g>
</svg>
