<?xml version="1.0" standalone="no"?>
<!DOCTYPE svg PUBLIC "-//W3C//DTD SVG 20010904//EN"
 "http://www.w3.org/TR/2001/REC-SVG-20010904/DTD/svg10.dtd">
<svg version="1.0" xmlns="http://www.w3.org/2000/svg"
 width="96.000000pt" height="68.000000pt" viewBox="0 0 96.000000 68.000000"
 preserveAspectRatio="xMidYMid meet">
<metadata>
Created by potrace 1.16, written by Peter Selinger 2001-2019
</metadata>
<g transform="translate(0.000000,68.000000) scale(0.100000,-0.100000)"
fill="#000000" stroke="none">
<path d="M380 455 c0 -3 7 -16 15 -28 19 -30 29 -122 18 -172 -9 -38 -11 -40
-46 -40 l-36 0 31 -33 c40 -40 63 -41 84 0 12 24 15 50 12 110 -3 43 -1 78 3
78 5 0 54 -40 111 -90 l103 -90 55 1 c30 1 66 4 80 9 28 8 32 6 -80 46 -41 15
-102 45 -135 67 l-60 41 83 19 c45 10 82 23 82 27 0 5 -14 17 -30 25 -30 15
-32 15 -86 -24 l-56 -40 -39 22 c-21 12 -39 29 -39 38 0 22 -20 39 -47 39 -13
0 -23 -2 -23 -5z"/>
<path d="M250 385 c-25 -7 -66 -16 -93 -20 -26 -3 -45 -10 -42 -16 8 -13 66
-11 120 3 24 7 47 9 51 6 9 -10 -98 -129 -145 -161 -14 -9 -22 -19 -18 -23 12
-12 99 48 173 119 59 57 72 73 62 83 -21 20 -60 23 -108 9z"/>
</g>
</svg>
