<?xml version="1.0" standalone="no"?>
<!DOCTYPE svg PUBLIC "-//W3C//DTD SVG 20010904//EN"
 "http://www.w3.org/TR/2001/REC-SVG-20010904/DTD/svg10.dtd">
<svg version="1.0" xmlns="http://www.w3.org/2000/svg"
 width="96.000000pt" height="68.000000pt" viewBox="0 0 96.000000 68.000000"
 preserveAspectRatio="xMidYMid meet">
<metadata>
Created by potrace 1.16, written by Peter Selinger 2001-2019
</metadata>
<g transform="translate(0.000000,68.000000) scale(0.100000,-0.100000)"
fill="#000000" stroke="none">
<path d="M547 386 l5 -53 -38 -6 c-22 -4 -65 -7 -98 -7 l-58 0 6 35 c6 31 4
36 -19 45 -42 16 -44 13 -38 -38 l5 -49 -47 -6 c-26 -4 -74 -7 -106 -7 -61 0
-79 -15 -33 -26 14 -4 62 -4 105 0 50 4 79 3 79 -3 0 -30 -54 -124 -90 -160
-50 -48 -42 -52 23 -11 51 32 90 86 106 147 10 38 13 41 57 47 26 3 69 6 95 6
l48 0 3 -132 c2 -86 7 -133 14 -135 20 -7 27 28 33 152 l6 120 118 3 c64 1
117 7 117 12 0 21 -74 32 -150 21 -43 -6 -79 -6 -84 -1 -5 5 -4 22 2 39 12 33
9 38 -38 51 l-28 8 5 -52z"/>
</g>
</svg>
