<?xml version="1.0" standalone="no"?>
<!DOCTYPE svg PUBLIC "-//W3C//DTD SVG 20010904//EN"
 "http://www.w3.org/TR/2001/REC-SVG-20010904/DTD/svg10.dtd">
<svg version="1.0" xmlns="http://www.w3.org/2000/svg"
 width="96.000000pt" height="68.000000pt" viewBox="0 0 96.000000 68.000000"
 preserveAspectRatio="xMidYMid meet">
<metadata>
Created by potrace 1.16, written by Peter Selinger 2001-2019
</metadata>
<g transform="translate(0.000000,68.000000) scale(0.100000,-0.100000)"
fill="#000000" stroke="none">
<path d="M535 278 c-2 -7 -6 -29 -7 -48 -3 -31 -6 -35 -35 -38 -29 -3 -32 -1
-30 25 2 22 -3 29 -20 31 -17 3 -20 -1 -16 -16 2 -11 -1 -30 -7 -42 -20 -37 1
-46 62 -28 29 9 79 19 111 23 53 6 58 5 55 -12 -6 -34 26 -19 34 17 15 60 14
65 -9 68 -19 3 -23 -1 -23 -21 0 -19 -6 -26 -31 -31 -48 -9 -49 -9 -49 39 0
34 -4 45 -15 45 -9 0 -18 -6 -20 -12z"/>
</g>
</svg>
