<?xml version="1.0" standalone="no"?>
<!DOCTYPE svg PUBLIC "-//W3C//DTD SVG 20010904//EN"
 "http://www.w3.org/TR/2001/REC-SVG-20010904/DTD/svg10.dtd">
<svg version="1.0" xmlns="http://www.w3.org/2000/svg"
 width="90.000000pt" height="92.000000pt" viewBox="0 0 90.000000 92.000000"
 preserveAspectRatio="xMidYMid meet">
<metadata>
Created by potrace 1.16, written by Peter Selinger 2001-2019
</metadata>
<g transform="translate(0.000000,92.000000) scale(0.100000,-0.100000)"
fill="#000000" stroke="none">
<path d="M317 863 c-4 -3 -7 -17 -7 -30 0 -53 -67 -207 -131 -300 -17 -24 -29
-47 -26 -49 8 -8 78 57 112 105 28 38 37 44 76 47 24 2 94 11 155 20 61 10
118 15 126 11 9 -3 18 -25 22 -53 9 -70 7 -241 -4 -309 -11 -70 -49 -149 -73
-153 -9 -2 -42 8 -72 22 -31 14 -52 20 -48 13 29 -45 108 -137 119 -137 24 0
82 60 105 107 20 41 23 69 30 252 4 113 11 220 14 237 6 27 2 34 -30 58 l-37
29 -126 -31 c-70 -17 -145 -32 -167 -35 l-41 -5 38 76 c21 42 38 79 38 84 0
11 -42 48 -55 48 -7 0 -15 -3 -18 -7z"/>
<path d="M280 483 c1 -19 137 -156 148 -149 21 13 14 71 -10 94 -38 35 -139
75 -138 55z"/>
</g>
</svg>
