<?xml version="1.0" standalone="no"?>
<!DOCTYPE svg PUBLIC "-//W3C//DTD SVG 20010904//EN"
 "http://www.w3.org/TR/2001/REC-SVG-20010904/DTD/svg10.dtd">
<svg version="1.0" xmlns="http://www.w3.org/2000/svg"
 width="96.000000pt" height="68.000000pt" viewBox="0 0 96.000000 68.000000"
 preserveAspectRatio="xMidYMid meet">
<metadata>
Created by potrace 1.16, written by Peter Selinger 2001-2019
</metadata>
<g transform="translate(0.000000,68.000000) scale(0.100000,-0.100000)"
fill="#000000" stroke="none">
<path d="M530 573 c0 -39 -10 -49 -53 -57 -43 -8 -40 -26 4 -26 29 0 30 -1 23
-35 -8 -45 0 -44 32 5 26 39 28 40 88 40 33 0 67 4 75 9 24 15 -26 34 -76 28
-43 -5 -44 -4 -29 17 13 20 12 24 -5 34 -34 22 -59 15 -59 -15z"/>
<path d="M270 575 c0 -4 7 -19 15 -35 l15 -29 -43 -5 c-23 -3 -53 -7 -66 -8
-24 -3 -24 -3 -6 -22 19 -18 63 -19 107 -1 13 5 20 0 28 -19 13 -35 40 -34 40
2 0 22 7 31 33 42 l32 14 -37 3 c-30 3 -38 9 -47 34 -8 23 -16 29 -40 29 -17
0 -31 -2 -31 -5z"/>
<path d="M246 372 c-14 -28 -44 -66 -68 -86 -32 -27 -39 -39 -30 -48 9 -9 21
-9 50 0 64 19 68 14 27 -28 -21 -22 -45 -40 -53 -40 -7 0 -12 -8 -10 -17 5
-23 26 -21 105 9 53 19 66 21 83 10 18 -11 20 -10 20 11 0 26 -17 47 -37 47
-8 0 -13 -7 -11 -17 2 -12 -10 -20 -47 -29 -27 -7 -51 -12 -52 -10 -2 2 35 33
82 71 47 37 85 69 85 70 0 7 -31 35 -38 35 -4 0 -16 -16 -26 -34 -16 -29 -27
-37 -69 -46 -27 -6 -52 -8 -55 -5 -3 3 23 35 58 70 35 35 62 66 59 68 -2 3
-14 8 -26 11 -19 6 -26 0 -47 -42z"/>
<path d="M564 405 c-34 -6 -84 -11 -113 -10 -55 2 -58 0 -38 -19 7 -7 19 -43
26 -79 l13 -65 98 1 99 2 28 75 c15 41 29 78 31 82 3 6 -65 30 -78 27 -3 -1
-32 -7 -66 -14z m72 -77 c-4 -35 -8 -63 -9 -64 -1 -1 -36 -4 -78 -7 l-76 -7
-12 57 c-6 31 -9 59 -6 62 11 10 65 9 66 -2 3 -24 -4 -42 -23 -70 l-21 -29 21
11 c12 6 26 19 31 29 9 16 11 15 33 -6 14 -12 30 -22 37 -22 20 0 7 24 -20 37
-13 7 -24 17 -23 23 1 5 2 19 3 30 1 17 8 20 42 20 l42 0 -7 -62z"/>
<path d="M649 196 c-6 -6 -157 -21 -211 -21 -27 0 -48 -1 -48 -3 0 -1 7 -13
14 -25 8 -12 18 -41 22 -64 l7 -43 -52 0 c-28 0 -51 -4 -51 -9 0 -16 44 -20
110 -11 36 5 136 13 223 16 86 4 157 10 157 14 0 12 -28 20 -71 20 -45 0 -48
9 -19 65 19 38 19 41 3 52 -16 12 -75 18 -84 9z m31 -39 c0 -12 -5 -39 -11
-59 -9 -35 -13 -38 -44 -38 -39 0 -41 4 -20 40 8 14 14 35 15 47 0 22 8 28 41
30 13 1 19 -5 19 -20z m-100 -41 c0 -53 -10 -68 -37 -59 -14 5 -19 94 -6 106
3 4 15 7 25 7 15 0 18 -8 18 -54z m-86 27 c3 -10 8 -35 12 -55 6 -36 5 -38
-19 -38 -21 0 -26 7 -36 47 -10 37 -9 48 1 54 21 14 36 10 42 -8z"/>
<path d="M310 122 c0 -14 39 -46 47 -38 4 4 2 15 -3 24 -12 19 -44 29 -44 14z"/>
<path d="M231 91 c14 -40 37 -59 45 -37 8 20 -21 66 -41 66 -11 0 -12 -6 -4
-29z"/>
<path d="M130 90 c0 -21 35 -80 47 -80 20 0 15 48 -7 70 -21 21 -40 26 -40 10z"/>
</g>
</svg>
