<?xml version="1.0" standalone="no"?>
<!DOCTYPE svg PUBLIC "-//W3C//DTD SVG 20010904//EN"
 "http://www.w3.org/TR/2001/REC-SVG-20010904/DTD/svg10.dtd">
<svg version="1.0" xmlns="http://www.w3.org/2000/svg"
 width="96.000000pt" height="68.000000pt" viewBox="0 0 96.000000 68.000000"
 preserveAspectRatio="xMidYMid meet">
<metadata>
Created by potrace 1.16, written by Peter Selinger 2001-2019
</metadata>
<g transform="translate(0.000000,68.000000) scale(0.100000,-0.100000)"
fill="#000000" stroke="none">
<path d="M600 538 c0 -24 -3 -60 -6 -80 -6 -35 -5 -38 17 -38 13 1 35 7 49 15
14 8 35 14 48 15 12 0 22 3 22 8 0 4 -21 5 -47 3 l-46 -3 6 50 c6 50 -3 72
-30 72 -9 0 -13 -14 -13 -42z"/>
<path d="M468 498 l-3 -63 -33 -3 c-20 -2 -32 -8 -29 -15 2 -8 22 -11 58 -8
54 3 74 10 53 18 -8 3 -10 25 -6 68 4 61 3 65 -16 65 -19 0 -21 -7 -24 -62z"/>
<path d="M518 366 c-145 -15 -151 -30 -8 -22 151 8 220 17 220 27 0 11 -76 9
-212 -5z"/>
<path d="M433 287 c-54 -14 -57 -29 -4 -21 48 8 54 -2 41 -62 -8 -33 -8 -50 0
-58 20 -20 38 17 42 84 3 74 0 77 -79 57z"/>
<path d="M595 210 c0 -69 3 -85 15 -85 11 0 17 18 23 70 8 75 15 85 65 85 17
0 32 4 32 10 0 6 -28 9 -67 8 l-68 -2 0 -86z"/>
</g>
</svg>
