<?xml version="1.0" standalone="no"?>
<!DOCTYPE svg PUBLIC "-//W3C//DTD SVG 20010904//EN"
 "http://www.w3.org/TR/2001/REC-SVG-20010904/DTD/svg10.dtd">
<svg version="1.0" xmlns="http://www.w3.org/2000/svg"
 width="96.000000pt" height="68.000000pt" viewBox="0 0 96.000000 68.000000"
 preserveAspectRatio="xMidYMid meet">
<metadata>
Created by potrace 1.16, written by Peter Selinger 2001-2019
</metadata>
<g transform="translate(0.000000,68.000000) scale(0.100000,-0.100000)"
fill="#000000" stroke="none">
<path d="M514 588 c3 -13 9 -42 12 -64 7 -47 7 -47 -98 -59 -58 -7 -72 -17
-42 -29 30 -12 -3 -210 -51 -306 -14 -27 -22 -50 -17 -50 25 0 89 112 99 174
3 20 9 38 13 41 9 6 72 -47 103 -89 l27 -35 -42 -29 c-24 -16 -63 -36 -88 -45
-44 -15 -44 -15 -13 -16 18 -1 62 13 96 29 35 17 69 30 75 30 5 0 21 -13 34
-29 36 -43 57 -50 128 -44 109 8 116 20 25 43 -65 16 -155 60 -155 75 0 7 6
18 13 24 8 6 22 29 32 51 10 22 22 40 27 40 4 0 8 9 8 19 0 25 -42 35 -87 20
-45 -14 -50 -7 -43 68 l5 58 48 3 c36 2 47 0 47 -12 0 -8 -5 -18 -10 -21 -6
-4 -8 -10 -5 -15 3 -4 28 3 57 17 l52 25 -25 19 c-21 17 -34 19 -96 13 l-73
-6 0 26 c0 13 5 28 10 31 21 13 9 36 -25 51 -45 19 -48 18 -41 -8z m11 -198
l0 -65 -47 -3 c-40 -3 -46 -1 -43 15 2 10 7 39 10 65 6 48 17 58 60 55 18 -2
20 -9 20 -67z m105 -86 c0 -17 -42 -94 -52 -94 -13 0 -88 69 -88 81 0 8 40 14
108 17 17 1 32 0 32 -4z"/>
<path d="M265 548 c-10 -24 -40 -64 -67 -90 -26 -26 -48 -49 -48 -51 0 -2 12
-2 26 1 15 3 60 37 101 76 l75 70 -22 18 c-33 27 -44 22 -65 -24z"/>
<path d="M290 422 c0 -16 -40 -83 -64 -108 -6 -5 -37 -31 -69 -57 -32 -26 -55
-47 -52 -47 7 0 95 47 117 62 28 20 32 2 20 -75 -16 -93 -15 -118 3 -136 12
-13 15 -11 24 10 11 31 17 208 7 230 -4 10 6 28 34 56 22 23 40 46 40 51 0 7
-42 32 -55 32 -3 0 -5 -8 -5 -18z"/>
</g>
</svg>
