<?xml version="1.0" standalone="no"?>
<!DOCTYPE svg PUBLIC "-//W3C//DTD SVG 20010904//EN"
 "http://www.w3.org/TR/2001/REC-SVG-20010904/DTD/svg10.dtd">
<svg version="1.0" xmlns="http://www.w3.org/2000/svg"
 width="96.000000pt" height="68.000000pt" viewBox="0 0 96.000000 68.000000"
 preserveAspectRatio="xMidYMid meet">
<metadata>
Created by potrace 1.16, written by Peter Selinger 2001-2019
</metadata>
<g transform="translate(0.000000,68.000000) scale(0.100000,-0.100000)"
fill="#000000" stroke="none">
<path d="M410 370 c-19 -5 -77 -12 -128 -16 -79 -6 -90 -9 -80 -21 6 -8 19
-49 27 -91 9 -42 21 -77 26 -77 6 1 52 4 104 9 72 6 95 5 101 -4 16 -25 39 0
55 57 8 32 22 71 31 87 13 26 13 31 1 44 -18 18 -90 24 -137 12z m70 -49 c0
-37 -6 -41 -50 -32 -30 5 -35 10 -35 34 -1 25 2 27 42 27 41 0 43 -1 43 -29z
m-136 -7 c9 -33 7 -34 -42 -41 -36 -5 -40 -3 -46 21 -9 37 -1 46 44 46 33 0
39 -4 44 -26z m124 -76 c-3 -31 -5 -33 -47 -36 -37 -3 -43 -1 -37 13 3 9 6 23
6 30 0 12 17 18 68 24 9 1 12 -9 10 -31z m-120 -15 c-3 -25 -7 -28 -38 -28
-31 0 -35 3 -38 28 -3 26 -1 27 38 27 39 0 41 -1 38 -27z"/>
</g>
</svg>
