<?xml version="1.0" standalone="no"?>
<!DOCTYPE svg PUBLIC "-//W3C//DTD SVG 20010904//EN"
 "http://www.w3.org/TR/2001/REC-SVG-20010904/DTD/svg10.dtd">
<svg version="1.0" xmlns="http://www.w3.org/2000/svg"
 width="96.000000pt" height="68.000000pt" viewBox="0 0 96.000000 68.000000"
 preserveAspectRatio="xMidYMid meet">
<metadata>
Created by potrace 1.16, written by Peter Selinger 2001-2019
</metadata>
<g transform="translate(0.000000,68.000000) scale(0.100000,-0.100000)"
fill="#000000" stroke="none">
<path d="M286 536 c4 -25 1 -74 -6 -109 -14 -74 -18 -77 -109 -77 l-54 0 19
-21 c16 -18 27 -20 67 -16 41 5 47 4 47 -13 0 -10 -4 -22 -10 -25 -18 -11 -10
-24 30 -46 22 -13 40 -26 40 -29 0 -13 -47 -50 -100 -79 -30 -17 -49 -31 -43
-31 25 0 115 39 148 64 l34 26 46 -40 c50 -43 68 -46 73 -13 3 17 -27 44 -86
79 -2 1 5 19 16 41 11 21 25 57 32 80 11 35 18 43 44 49 17 4 25 9 19 11 -7 3
-14 3 -15 1 -2 -2 -14 7 -28 20 -13 12 -34 22 -48 22 -19 0 -22 -4 -17 -21 9
-26 -8 -39 -51 -39 l-32 0 23 73 c13 39 26 80 30 89 5 12 -2 21 -24 32 -46 24
-51 21 -45 -28z m99 -208 c-4 -18 -16 -50 -26 -70 l-19 -38 -35 17 c-38 18
-40 25 -24 71 9 25 18 32 57 40 26 5 48 10 50 11 2 0 0 -14 -3 -31z"/>
</g>
</svg>
