<?xml version="1.0" standalone="no"?>
<!DOCTYPE svg PUBLIC "-//W3C//DTD SVG 20010904//EN"
 "http://www.w3.org/TR/2001/REC-SVG-20010904/DTD/svg10.dtd">
<svg version="1.0" xmlns="http://www.w3.org/2000/svg"
 width="96.000000pt" height="68.000000pt" viewBox="0 0 96.000000 68.000000"
 preserveAspectRatio="xMidYMid meet">
<metadata>
Created by potrace 1.16, written by Peter Selinger 2001-2019
</metadata>
<g transform="translate(0.000000,68.000000) scale(0.100000,-0.100000)"
fill="#000000" stroke="none">
<path d="M582 548 c-13 -57 -56 -152 -80 -181 -30 -34 -1 -30 36 5 29 28 48
38 87 43 28 3 62 8 76 11 46 9 59 -16 59 -115 0 -110 -6 -141 -34 -176 -20
-25 -24 -26 -61 -16 -21 6 -40 9 -42 8 -3 -4 76 -87 83 -87 3 0 19 9 35 21 51
36 62 70 69 229 4 80 7 145 6 145 -52 24 -58 24 -136 8 -44 -9 -83 -13 -87
-10 -3 4 9 36 28 73 33 64 33 66 15 80 -32 23 -41 17 -54 -38z"/>
<path d="M278 479 c-3 -55 -10 -105 -16 -111 -5 -5 -40 -13 -76 -15 -36 -3
-66 -10 -66 -14 0 -5 11 -16 26 -25 21 -14 31 -15 62 -6 42 13 47 11 33 -16
-18 -34 -13 -46 29 -70 22 -13 38 -27 35 -32 -3 -5 -37 -28 -75 -51 -39 -23
-70 -44 -70 -46 0 -14 82 13 133 43 l57 35 42 -35 c50 -43 78 -47 78 -12 0 24
-53 76 -77 76 -6 0 5 37 23 83 25 62 39 83 55 87 27 7 38 30 14 30 -9 0 -29
10 -45 21 -34 26 -60 19 -60 -14 0 -19 -7 -26 -32 -31 -17 -3 -33 -4 -35 -2
-2 2 8 40 22 86 25 78 26 83 9 101 -9 10 -27 19 -39 19 -21 0 -23 -5 -27 -101z
m102 -146 c0 -21 -36 -103 -45 -103 -3 0 -20 7 -36 16 -22 11 -29 20 -24 32 4
9 10 25 12 35 3 9 19 21 37 26 47 14 56 13 56 -6z"/>
<path d="M551 293 c7 -10 24 -29 37 -42 22 -22 25 -22 40 -7 16 16 15 19 -11
42 -15 13 -40 24 -54 24 -23 0 -24 -2 -12 -17z"/>
</g>
</svg>
