<?xml version="1.0" standalone="no"?>
<!DOCTYPE svg PUBLIC "-//W3C//DTD SVG 20010904//EN"
 "http://www.w3.org/TR/2001/REC-SVG-20010904/DTD/svg10.dtd">
<svg version="1.0" xmlns="http://www.w3.org/2000/svg"
 width="90.000000pt" height="92.000000pt" viewBox="0 0 90.000000 92.000000"
 preserveAspectRatio="xMidYMid meet">
<metadata>
Created by potrace 1.16, written by Peter Selinger 2001-2019
</metadata>
<g transform="translate(0.000000,92.000000) scale(0.100000,-0.100000)"
fill="#000000" stroke="none">
<path d="M665 828 c-4 -18 -21 -59 -37 -92 -16 -32 -27 -61 -23 -64 3 -3 37
28 75 69 65 69 68 75 52 90 -9 10 -27 20 -39 23 -18 6 -22 2 -28 -26z"/>
<path d="M241 764 c-40 -17 -85 -20 -125 -9 -28 8 -29 7 -20 -16 14 -38 11
-346 -5 -409 -7 -30 -29 -84 -48 -119 -18 -35 -32 -65 -30 -67 2 -2 18 11 37
29 37 35 75 111 85 170 8 39 11 42 35 27 12 -7 26 3 63 43 l48 52 -4 -128 c-2
-76 -9 -133 -15 -139 -8 -8 -24 -9 -58 -1 l-47 11 57 -57 c47 -47 59 -54 74
-45 37 24 44 77 39 318 -2 126 0 248 5 270 8 37 7 43 -17 63 -30 27 -30 27
-74 7z m33 -56 c3 -13 6 -67 6 -120 0 -96 0 -97 -29 -118 -17 -11 -47 -28 -67
-36 l-37 -16 6 63 c4 34 7 76 7 92 l0 31 38 -37 c34 -33 40 -36 51 -23 23 27
9 50 -41 66 -46 14 -48 17 -48 51 0 38 11 53 45 62 45 11 63 7 69 -15z"/>
<path d="M420 773 c0 -16 59 -93 76 -100 41 -16 42 55 1 81 -29 19 -77 31 -77
19z"/>
<path d="M670 654 c-30 -7 -95 -18 -145 -24 -123 -16 -137 -19 -130 -30 3 -5
21 -12 39 -16 39 -7 46 -22 46 -100 0 -50 -1 -52 -31 -58 -17 -3 -47 -6 -65
-6 -42 0 -44 -15 -4 -35 23 -12 39 -13 64 -7 l34 10 -14 -60 c-16 -68 -33
-104 -80 -171 -40 -56 -29 -61 26 -11 43 39 82 112 101 190 6 27 14 52 18 55
3 4 27 9 54 12 l47 5 0 -123 c0 -136 9 -245 20 -245 17 0 30 98 30 229 l0 141
80 0 c64 0 80 3 80 15 0 24 -39 38 -97 33 l-55 -5 4 65 c3 54 1 66 -14 76 -15
9 -10 12 34 21 34 6 53 15 53 24 0 23 -36 28 -95 15z m-40 -131 c6 -80 3 -83
-68 -83 l-34 0 4 65 c2 49 -1 68 -11 75 -11 6 -4 10 25 13 80 8 78 10 84 -70z"/>
</g>
</svg>
