<?xml version="1.0" standalone="no"?>
<!DOCTYPE svg PUBLIC "-//W3C//DTD SVG 20010904//EN"
 "http://www.w3.org/TR/2001/REC-SVG-20010904/DTD/svg10.dtd">
<svg version="1.0" xmlns="http://www.w3.org/2000/svg"
 width="96.000000pt" height="68.000000pt" viewBox="0 0 96.000000 68.000000"
 preserveAspectRatio="xMidYMid meet">
<metadata>
Created by potrace 1.16, written by Peter Selinger 2001-2019
</metadata>
<g transform="translate(0.000000,68.000000) scale(0.100000,-0.100000)"
fill="#000000" stroke="none">
<path d="M410 383 c0 -39 -9 -48 -60 -60 l-45 -11 38 -1 c20 0 37 -5 37 -9 0
-12 -49 -56 -90 -82 -27 -17 -30 -20 -10 -15 45 13 76 33 108 69 17 20 36 36
41 36 6 0 49 -25 96 -55 87 -56 115 -66 115 -41 0 21 -32 41 -106 67 -70 25
-82 39 -31 39 17 0 38 4 46 9 23 15 -5 22 -61 15 -44 -5 -51 -4 -40 7 17 18
15 46 -4 53 -28 11 -34 7 -34 -21z"/>
</g>
</svg>
