<?xml version="1.0" standalone="no"?>
<!DOCTYPE svg PUBLIC "-//W3C//DTD SVG 20010904//EN"
 "http://www.w3.org/TR/2001/REC-SVG-20010904/DTD/svg10.dtd">
<svg version="1.0" xmlns="http://www.w3.org/2000/svg"
 width="96.000000pt" height="68.000000pt" viewBox="0 0 96.000000 68.000000"
 preserveAspectRatio="xMidYMid meet">
<metadata>
Created by potrace 1.16, written by Peter Selinger 2001-2019
</metadata>
<g transform="translate(0.000000,68.000000) scale(0.100000,-0.100000)"
fill="#000000" stroke="none">
<path d="M416 612 c-2 -4 -1 -14 5 -22 5 -8 9 -38 9 -66 l0 -52 -77 -6 c-113
-10 -153 -17 -153 -27 0 -16 50 -22 128 -15 l76 7 -19 -21 c-37 -41 -122 -97
-235 -157 l-25 -13 30 0 c58 0 134 33 213 92 30 22 56 38 58 35 3 -3 1 -30 -5
-61 -11 -61 0 -116 25 -116 23 0 34 36 34 114 l0 76 58 -30 c31 -17 84 -46
117 -65 75 -43 98 -45 93 -7 -4 34 -62 67 -182 102 -66 19 -86 29 -86 42 0 14
9 18 38 20 20 0 63 2 95 4 93 4 114 20 53 42 -26 10 -50 10 -98 2 -94 -15 -89
-18 -81 50 6 58 5 60 -21 70 -33 12 -43 13 -50 2z"/>
<path d="M196 130 c-40 -55 -47 -90 -18 -90 31 0 64 45 69 94 7 60 -6 59 -51
-4z"/>
<path d="M670 173 c1 -19 108 -126 118 -119 36 22 -5 83 -74 112 -38 16 -44
17 -44 7z"/>
<path d="M350 154 c0 -19 52 -94 65 -94 21 0 19 53 -2 72 -21 18 -63 33 -63
22z"/>
<path d="M510 152 c0 -21 62 -92 80 -92 31 0 27 53 -6 79 -27 21 -74 29 -74
13z"/>
</g>
</svg>
