<?xml version="1.0" standalone="no"?>
<!DOCTYPE svg PUBLIC "-//W3C//DTD SVG 20010904//EN"
 "http://www.w3.org/TR/2001/REC-SVG-20010904/DTD/svg10.dtd">
<svg version="1.0" xmlns="http://www.w3.org/2000/svg"
 width="96.000000pt" height="68.000000pt" viewBox="0 0 96.000000 68.000000"
 preserveAspectRatio="xMidYMid meet">
<metadata>
Created by potrace 1.16, written by Peter Selinger 2001-2019
</metadata>
<g transform="translate(0.000000,68.000000) scale(0.100000,-0.100000)"
fill="#000000" stroke="none">
<path d="M540 621 c0 -5 -12 -23 -26 -40 -14 -17 -23 -31 -20 -31 3 0 31 12
61 26 47 21 54 28 44 40 -13 15 -59 19 -59 5z"/>
<path d="M310 602 c0 -15 45 -52 63 -52 26 0 21 37 -5 45 -13 4 -31 9 -40 11
-10 3 -18 1 -18 -4z"/>
<path d="M385 530 c-110 -10 -202 -19 -205 -20 -3 -1 5 -5 18 -10 14 -6 84 -4
190 5 92 8 202 15 244 15 73 0 106 11 72 24 -23 9 -96 6 -319 -14z"/>
</g>
</svg>
