<?xml version="1.0" standalone="no"?>
<!DOCTYPE svg PUBLIC "-//W3C//DTD SVG 20010904//EN"
 "http://www.w3.org/TR/2001/REC-SVG-20010904/DTD/svg10.dtd">
<svg version="1.0" xmlns="http://www.w3.org/2000/svg"
 width="96.000000pt" height="68.000000pt" viewBox="0 0 96.000000 68.000000"
 preserveAspectRatio="xMidYMid meet">
<metadata>
Created by potrace 1.16, written by Peter Selinger 2001-2019
</metadata>
<g transform="translate(0.000000,68.000000) scale(0.100000,-0.100000)"
fill="#000000" stroke="none">
<path d="M530 617 c0 -8 -9 -22 -20 -32 -45 -41 -18 -45 59 -10 51 24 53 26
35 40 -24 18 -74 20 -74 2z"/>
<path d="M300 601 c0 -12 63 -61 77 -61 23 0 24 35 3 52 -23 19 -80 25 -80 9z"/>
<path d="M425 538 c-253 -21 -270 -24 -241 -40 12 -7 55 -8 123 -4 l104 7 -3
-28 c-2 -21 -9 -29 -26 -31 -19 -3 -23 -8 -18 -25 3 -12 8 -44 12 -72 3 -27 8
-52 11 -55 2 -3 35 -5 73 -6 l68 0 7 55 c4 31 11 64 17 74 7 14 5 22 -9 33
-17 14 -36 13 -99 -2 l-29 -7 23 20 c25 23 28 39 10 46 -7 2 49 6 125 10 138
5 159 9 141 26 -19 18 -66 18 -289 -1z m75 -138 c0 -39 -1 -40 -34 -40 -19 0
-41 -3 -50 -6 -11 -4 -16 -1 -16 10 0 10 9 16 23 16 31 0 67 11 67 20 0 4 -21
5 -46 2 -37 -4 -46 -2 -42 9 2 8 22 17 44 20 21 3 42 7 47 8 4 0 7 -17 7 -39z
m0 -70 c0 -17 -7 -20 -50 -20 -39 0 -48 3 -44 14 3 9 23 17 47 19 23 2 43 4
45 5 1 1 2 -7 2 -18z"/>
<path d="M586 463 c1 -16 3 -58 3 -94 1 -63 2 -67 29 -77 48 -19 149 -18 176
1 16 12 17 16 5 35 -17 27 -25 28 -32 2 -4 -17 -14 -20 -70 -20 -71 0 -90 12
-84 51 4 25 6 26 62 28 22 1 35 6 35 15 0 7 9 25 20 39 11 14 20 27 20 30 0
13 -63 17 -96 7 -26 -9 -39 -9 -47 -1 -17 17 -23 13 -21 -16z m104 -22 c0 -22
-4 -26 -42 -35 -25 -6 -28 -3 -28 17 0 31 7 37 42 37 21 0 28 -5 28 -19z"/>
<path d="M234 451 c3 -14 8 -55 12 -89 6 -63 6 -64 -17 -60 -20 2 -25 10 -29
48 -3 30 -10 46 -21 48 -13 2 -15 -6 -11 -52 4 -45 1 -57 -12 -62 -9 -3 -13
-10 -10 -15 10 -16 49 -10 130 21 55 21 67 29 41 25 l-38 -6 3 38 c3 33 7 38
31 41 37 4 35 22 -3 22 -26 0 -30 3 -30 29 0 23 -5 30 -26 34 -22 4 -25 2 -20
-22z"/>
<path d="M311 249 c-18 -21 -39 -39 -47 -39 -7 0 -16 -5 -20 -11 -12 -20 46 0
85 29 45 34 53 45 38 54 -17 11 -19 10 -56 -33z"/>
<path d="M550 276 c0 -10 109 -86 123 -86 22 0 22 23 -1 43 -25 22 -122 57
-122 43z"/>
<path d="M377 206 c-20 -25 -62 -59 -92 -76 -60 -34 -82 -57 -45 -45 33 10 82
33 102 47 14 10 26 8 63 -10 25 -12 43 -27 40 -32 -9 -15 -71 -39 -140 -56
l-60 -14 59 5 c32 2 87 14 121 26 l63 22 58 -32 c60 -32 92 -36 191 -25 51 6
65 24 20 24 -12 0 -67 11 -121 25 -54 14 -100 25 -102 25 -15 0 2 32 31 60 19
19 35 39 35 46 0 18 -42 25 -81 14 -56 -16 -76 -13 -75 12 2 37 -27 30 -67
-16z m135 -61 c-6 -14 -18 -25 -27 -25 -27 0 -96 32 -92 44 4 13 108 25 121
14 6 -5 5 -18 -2 -33z"/>
</g>
</svg>
