<?xml version="1.0" standalone="no"?>
<!DOCTYPE svg PUBLIC "-//W3C//DTD SVG 20010904//EN"
 "http://www.w3.org/TR/2001/REC-SVG-20010904/DTD/svg10.dtd">
<svg version="1.0" xmlns="http://www.w3.org/2000/svg"
 width="96.000000pt" height="68.000000pt" viewBox="0 0 96.000000 68.000000"
 preserveAspectRatio="xMidYMid meet">
<metadata>
Created by potrace 1.16, written by Peter Selinger 2001-2019
</metadata>
<g transform="translate(0.000000,68.000000) scale(0.100000,-0.100000)"
fill="#000000" stroke="none">
<path d="M358 555 c-3 -4 -197 -33 -237 -35 -3 -1 9 -7 27 -15 l32 -14 0 -131
c0 -109 2 -130 15 -130 10 0 15 10 15 28 0 40 10 48 64 56 35 6 45 10 35 17
-8 5 -31 7 -51 3 l-38 -6 0 41 0 41 50 0 c29 0 50 4 50 11 0 7 -18 10 -47 7
-48 -3 -48 -3 -51 31 -2 18 0 37 5 42 5 5 40 12 78 15 85 7 126 21 105 34 -16
11 -44 13 -52 5z"/>
</g>
</svg>
