<?xml version="1.0" standalone="no"?>
<!DOCTYPE svg PUBLIC "-//W3C//DTD SVG 20010904//EN"
 "http://www.w3.org/TR/2001/REC-SVG-20010904/DTD/svg10.dtd">
<svg version="1.0" xmlns="http://www.w3.org/2000/svg"
 width="96.000000pt" height="68.000000pt" viewBox="0 0 96.000000 68.000000"
 preserveAspectRatio="xMidYMid meet">
<metadata>
Created by potrace 1.16, written by Peter Selinger 2001-2019
</metadata>
<g transform="translate(0.000000,68.000000) scale(0.100000,-0.100000)"
fill="#000000" stroke="none">
<path d="M600 616 c0 -51 -17 -76 -52 -76 -47 0 -67 -15 -40 -29 11 -6 30 -11
41 -11 24 0 25 -6 6 -40 -8 -14 -14 -33 -15 -43 0 -28 33 -1 60 48 23 42 23
42 94 49 39 4 74 10 79 15 13 13 -49 30 -88 24 -39 -6 -40 -5 -23 33 11 23 10
28 -7 40 -30 22 -55 18 -55 -10z"/>
<path d="M300 606 c0 -7 7 -30 15 -50 l15 -36 -70 0 c-72 0 -87 -10 -52 -36
20 -16 61 -18 97 -4 24 9 27 7 41 -26 19 -44 37 -39 44 11 4 34 9 40 38 47 40
11 32 30 -11 26 -29 -3 -32 0 -35 27 -2 17 -11 36 -20 43 -21 16 -62 15 -62
-2z"/>
<path d="M620 353 c0 -78 -86 -214 -166 -264 -20 -12 -33 -23 -31 -26 9 -8
107 47 146 82 21 19 42 35 47 35 5 0 36 -27 68 -60 66 -66 106 -80 106 -36 0
30 -57 79 -117 102 -24 9 -43 21 -43 26 0 4 16 41 36 80 34 68 35 72 18 85
-10 7 -28 13 -41 13 -20 0 -23 -5 -23 -37z"/>
<path d="M240 353 c0 -5 4 -13 9 -18 5 -6 11 -50 13 -100 3 -99 7 -93 -74
-110 -35 -7 -35 -20 -3 -41 25 -16 28 -15 128 36 102 53 130 70 124 76 -2 2
-27 -5 -55 -16 -29 -11 -57 -20 -63 -20 -7 0 -10 32 -7 98 l3 97 -37 3 c-21 2
-38 -1 -38 -5z"/>
<path d="M410 326 c0 -13 73 -86 86 -86 23 0 17 48 -8 64 -26 17 -78 31 -78
22z"/>
</g>
</svg>
