<?xml version="1.0" standalone="no"?>
<!DOCTYPE svg PUBLIC "-//W3C//DTD SVG 20010904//EN"
 "http://www.w3.org/TR/2001/REC-SVG-20010904/DTD/svg10.dtd">
<svg version="1.0" xmlns="http://www.w3.org/2000/svg"
 width="96.000000pt" height="68.000000pt" viewBox="0 0 96.000000 68.000000"
 preserveAspectRatio="xMidYMid meet">
<metadata>
Created by potrace 1.16, written by Peter Selinger 2001-2019
</metadata>
<g transform="translate(0.000000,68.000000) scale(0.100000,-0.100000)"
fill="#000000" stroke="none">
<path d="M669 568 c-7 -13 -23 -36 -35 -51 -38 -45 -28 -48 33 -11 74 44 79
50 63 69 -18 22 -47 19 -61 -7z"/>
<path d="M440 554 c0 -9 42 -68 54 -76 14 -10 26 0 26 22 0 20 -44 60 -66 60
-8 0 -14 -3 -14 -6z"/>
<path d="M689 466 c-7 -7 -203 -21 -272 -20 -38 1 -64 -2 -59 -5 10 -6 35 -75
47 -129 5 -24 11 -31 23 -28 10 3 85 8 167 10 109 4 152 9 156 18 4 7 13 27
20 43 8 17 22 39 32 49 22 25 22 32 -5 50 -20 14 -97 23 -109 12z m61 -33 c0
-5 -6 -28 -14 -53 l-13 -45 -63 -8 c-34 -4 -65 -6 -68 -3 -2 3 -1 30 3 61 l6
55 75 0 c41 0 74 -3 74 -7z m-200 -63 l0 -60 -59 0 c-56 0 -59 1 -64 29 -3 16
-9 40 -12 54 -7 24 -4 26 37 29 23 2 55 4 71 6 27 2 27 2 27 -58z"/>
<path d="M650 388 c-26 -43 -25 -51 3 -36 46 26 58 40 46 55 -17 20 -27 16
-49 -19z"/>
<path d="M460 388 c0 -21 29 -58 46 -58 29 0 14 39 -23 59 -18 9 -23 9 -23 -1z"/>
<path d="M235 430 c-11 -5 -41 -9 -67 -9 -52 -1 -53 -2 -36 -34 6 -12 16 -46
22 -77 10 -46 14 -55 31 -52 11 2 46 6 78 9 54 5 69 14 47 28 -6 3 -1 28 11
61 12 30 18 61 15 69 -6 17 -68 19 -101 5z m35 -42 c0 -7 -3 -30 -6 -50 -6
-35 -9 -38 -39 -38 -30 0 -33 3 -39 41 -4 22 -4 44 -1 50 9 14 85 11 85 -3z"/>
<path d="M615 249 c-22 -4 -67 -9 -100 -10 l-60 -2 0 -101 c0 -95 1 -101 20
-98 11 1 58 5 104 9 73 5 86 4 97 -12 7 -10 20 -15 29 -12 11 5 15 22 15 74 0
37 3 84 6 104 6 34 4 37 -26 48 -18 6 -36 10 -39 10 -3 -1 -24 -5 -46 -10z
m53 -56 c3 -29 0 -33 -20 -33 -13 0 -53 -3 -90 -7 -67 -6 -68 -5 -68 18 0 13
4 29 8 36 7 12 69 21 132 19 32 -1 35 -4 38 -33z m2 -81 l0 -39 -90 -2 -90 -2
0 31 c0 29 2 30 43 31 34 0 124 12 135 18 1 0 2 -16 2 -37z"/>
</g>
</svg>
