<?xml version="1.0" standalone="no"?>
<!DOCTYPE svg PUBLIC "-//W3C//DTD SVG 20010904//EN"
 "http://www.w3.org/TR/2001/REC-SVG-20010904/DTD/svg10.dtd">
<svg version="1.0" xmlns="http://www.w3.org/2000/svg"
 width="90.000000pt" height="92.000000pt" viewBox="0 0 90.000000 92.000000"
 preserveAspectRatio="xMidYMid meet">
<metadata>
Created by potrace 1.16, written by Peter Selinger 2001-2019
</metadata>
<g transform="translate(0.000000,92.000000) scale(0.100000,-0.100000)"
fill="#000000" stroke="none">
<path d="M694 745 c-23 -7 -91 -21 -150 -30 -60 -9 -125 -20 -144 -24 l-35 -7
26 -17 c26 -17 30 -17 110 3 46 12 117 24 157 27 l72 6 0 -54 c0 -131 -50
-363 -89 -410 l-19 -23 -49 26 -50 25 46 -68 c25 -37 53 -68 62 -69 21 0 65
48 84 93 20 49 40 146 59 290 9 65 23 134 32 153 13 28 14 37 3 50 -11 14 -64
45 -71 43 -2 -1 -22 -7 -44 -14z"/>
<path d="M207 659 c-51 -20 -83 -23 -136 -13 -31 6 -33 5 -27 -12 18 -43 24
-76 31 -158 8 -89 29 -142 41 -100 4 17 16 23 57 28 29 3 67 6 86 6 26 0 31 3
23 13 -12 14 20 163 38 181 21 21 10 46 -26 61 -20 8 -37 15 -38 14 0 -1 -22
-10 -49 -20z m30 -120 c-3 -44 -7 -82 -9 -84 -2 -2 -27 -7 -56 -11 l-52 -7 0
81 0 81 33 10 c17 5 45 10 61 10 l29 1 -6 -81z"/>
<path d="M484 469 c-60 -50 -131 -105 -157 -122 -54 -35 -57 -52 -10 -80 l33
-19 27 33 c16 18 70 81 121 139 151 171 148 184 -14 49z"/>
</g>
</svg>
