<?xml version="1.0" standalone="no"?>
<!DOCTYPE svg PUBLIC "-//W3C//DTD SVG 20010904//EN"
 "http://www.w3.org/TR/2001/REC-SVG-20010904/DTD/svg10.dtd">
<svg version="1.0" xmlns="http://www.w3.org/2000/svg"
 width="96.000000pt" height="68.000000pt" viewBox="0 0 96.000000 68.000000"
 preserveAspectRatio="xMidYMid meet">
<metadata>
Created by potrace 1.16, written by Peter Selinger 2001-2019
</metadata>
<g transform="translate(0.000000,68.000000) scale(0.100000,-0.100000)"
fill="#000000" stroke="none">
<path d="M550 585 c0 -43 -1 -45 -29 -45 -17 0 -33 -4 -36 -10 -4 -6 5 -10 19
-10 29 0 31 -6 16 -44 -8 -23 -8 -25 8 -15 10 6 25 24 35 40 14 25 22 29 64
30 26 0 57 4 68 9 18 7 19 8 3 15 -10 4 -36 5 -58 3 -41 -4 -48 4 -30 32 12
19 -6 40 -36 40 -22 0 -24 -4 -24 -45z"/>
<path d="M294 571 c25 -47 21 -51 -44 -51 -61 0 -72 -8 -45 -30 14 -12 48 -10
102 6 18 5 25 1 33 -20 14 -37 34 -34 26 4 -5 28 -3 31 25 37 35 7 30 17 -9
18 -22 0 -28 6 -32 30 -4 25 -10 30 -38 33 l-33 3 15 -30z"/>
</g>
</svg>
