<?xml version="1.0" standalone="no"?>
<!DOCTYPE svg PUBLIC "-//W3C//DTD SVG 20010904//EN"
 "http://www.w3.org/TR/2001/REC-SVG-20010904/DTD/svg10.dtd">
<svg version="1.0" xmlns="http://www.w3.org/2000/svg"
 width="96.000000pt" height="68.000000pt" viewBox="0 0 96.000000 68.000000"
 preserveAspectRatio="xMidYMid meet">
<metadata>
Created by potrace 1.16, written by Peter Selinger 2001-2019
</metadata>
<g transform="translate(0.000000,68.000000) scale(0.100000,-0.100000)"
fill="#000000" stroke="none">
<path d="M385 468 l0 -92 -120 -17 c-66 -10 -122 -18 -124 -18 -2 -1 3 -8 10
-17 11 -14 27 -16 89 -11 41 3 92 9 112 13 l36 6 7 -48 c10 -73 24 -102 62
-125 31 -19 45 -21 151 -17 70 2 127 10 141 17 24 13 24 14 5 28 -12 9 -31 12
-54 8 -89 -15 -196 -24 -217 -18 -14 3 -29 17 -34 30 -14 36 -11 133 4 138 6
3 87 11 180 18 92 8 170 17 174 21 5 4 0 13 -9 20 -10 7 -15 15 -13 18 3 3
-30 5 -75 4 -44 0 -80 -3 -80 -6 0 -6 -128 -30 -160 -30 -17 0 -20 7 -20 44 0
25 5 57 10 72 14 35 -2 54 -44 54 l-31 0 0 -92z"/>
</g>
</svg>
