<?xml version="1.0" standalone="no"?>
<!DOCTYPE svg PUBLIC "-//W3C//DTD SVG 20010904//EN"
 "http://www.w3.org/TR/2001/REC-SVG-20010904/DTD/svg10.dtd">
<svg version="1.0" xmlns="http://www.w3.org/2000/svg"
 width="96.000000pt" height="68.000000pt" viewBox="0 0 96.000000 68.000000"
 preserveAspectRatio="xMidYMid meet">
<metadata>
Created by potrace 1.16, written by Peter Selinger 2001-2019
</metadata>
<g transform="translate(0.000000,68.000000) scale(0.100000,-0.100000)"
fill="#000000" stroke="none">
<path d="M541 513 c-7 -31 -31 -89 -52 -130 -42 -79 -41 -92 3 -41 24 29 37
34 105 45 43 6 80 10 82 7 3 -3 0 -19 -7 -36 -6 -18 -10 -33 -8 -35 2 -2 19 6
39 19 19 13 43 28 52 34 17 9 16 12 -13 32 -30 22 -33 22 -111 9 -45 -8 -82
-12 -85 -10 -2 2 11 33 30 68 31 58 32 65 18 79 -27 28 -40 18 -53 -41z"/>
<path d="M279 508 c-14 -54 -57 -116 -138 -202 -52 -54 -61 -67 -41 -61 14 4
50 26 80 49 47 36 59 41 78 33 13 -6 22 -19 22 -33 0 -19 -7 -23 -50 -29 -60
-8 -57 -25 6 -25 l44 0 0 -59 0 -59 -50 -11 c-28 -6 -65 -11 -81 -11 -36 0
-35 -18 2 -39 22 -12 30 -12 59 2 19 9 79 30 133 47 53 17 97 36 97 42 0 11
-59 7 -92 -7 -16 -6 -18 -1 -18 43 0 56 9 66 63 76 64 12 44 32 -25 27 -24 -2
-28 2 -28 23 0 20 5 26 23 26 34 0 55 16 40 31 -10 10 -26 10 -78 0 -36 -7
-68 -11 -70 -9 -2 2 7 16 20 31 14 14 25 30 25 34 0 4 7 16 14 25 12 16 16 15
54 -13 46 -33 77 -35 77 -4 0 15 -12 24 -50 37 -36 12 -50 21 -50 35 0 26 -13
43 -35 43 -14 0 -22 -11 -31 -42z"/>
<path d="M545 330 c-3 -5 -4 -14 -1 -18 10 -17 -21 -120 -47 -154 -15 -19 -50
-47 -78 -62 -63 -35 -57 -45 10 -16 48 21 96 65 131 119 l16 23 29 -38 c16
-21 50 -58 74 -81 42 -40 48 -43 102 -43 32 0 60 4 63 8 3 5 -24 19 -59 32
-38 14 -87 44 -122 73 -79 68 -88 82 -73 115 10 22 9 28 -6 39 -21 16 -31 16
-39 3z"/>
<path d="M370 211 c-11 -17 -18 -36 -14 -42 4 -7 9 -7 13 -1 3 5 21 17 39 26
36 19 38 39 5 44 -14 2 -28 -7 -43 -27z"/>
<path d="M170 201 c0 -18 42 -61 61 -61 31 0 26 48 -7 60 -31 12 -54 13 -54 1z"/>
</g>
</svg>
