<?xml version="1.0" standalone="no"?>
<!DOCTYPE svg PUBLIC "-//W3C//DTD SVG 20010904//EN"
 "http://www.w3.org/TR/2001/REC-SVG-20010904/DTD/svg10.dtd">
<svg version="1.0" xmlns="http://www.w3.org/2000/svg"
 width="96.000000pt" height="68.000000pt" viewBox="0 0 96.000000 68.000000"
 preserveAspectRatio="xMidYMid meet">
<metadata>
Created by potrace 1.16, written by Peter Selinger 2001-2019
</metadata>
<g transform="translate(0.000000,68.000000) scale(0.100000,-0.100000)"
fill="#000000" stroke="none">
<path d="M617 523 c-4 -3 -7 -14 -7 -22 0 -9 -7 -27 -16 -39 -14 -20 -17 -21
-37 -7 -12 8 -31 15 -42 14 l-20 0 20 -9 c12 -4 26 -14 33 -23 15 -18 2 -31
-54 -51 l-39 -15 33 0 c18 -1 49 6 69 14 36 15 38 15 88 -20 42 -28 61 -35
101 -35 71 0 83 13 26 28 -66 17 -152 53 -152 63 0 4 12 25 26 46 24 35 24 38
8 50 -20 15 -28 16 -37 6z"/>
</g>
</svg>
