<?xml version="1.0" standalone="no"?>
<!DOCTYPE svg PUBLIC "-//W3C//DTD SVG 20010904//EN"
 "http://www.w3.org/TR/2001/REC-SVG-20010904/DTD/svg10.dtd">
<svg version="1.0" xmlns="http://www.w3.org/2000/svg"
 width="96.000000pt" height="68.000000pt" viewBox="0 0 96.000000 68.000000"
 preserveAspectRatio="xMidYMid meet">
<metadata>
Created by potrace 1.16, written by Peter Selinger 2001-2019
</metadata>
<g transform="translate(0.000000,68.000000) scale(0.100000,-0.100000)"
fill="#000000" stroke="none">
<path d="M661 336 c-11 -19 -11 -28 0 -47 12 -23 11 -23 -6 -9 -10 8 -16 10
-12 3 4 -6 2 -15 -4 -18 -5 -4 -8 -14 -4 -23 3 -9 3 -13 -1 -9 -4 4 -14 -3
-22 -14 -12 -17 -16 -18 -23 -8 -6 10 -9 10 -9 2 0 -6 4 -14 10 -18 5 -3 7
-13 4 -23 -5 -14 -4 -15 5 -2 5 8 12 12 14 10 2 -3 10 -15 18 -27 10 -14 19
-19 28 -13 17 10 4 33 -15 26 -8 -3 -14 -2 -15 2 0 4 -2 17 -3 29 -1 12 2 21
7 20 5 -1 21 21 37 48 20 37 25 56 19 73 -10 28 -13 28 -28 -2z"/>
<path d="M510 277 c0 -2 14 -16 32 -33 30 -28 30 -18 -1 18 -13 16 -31 24 -31
15z"/>
<path d="M544 146 c-11 -12 -33 -31 -50 -44 -29 -22 -29 -22 11 1 22 13 48 26
58 30 9 3 17 11 17 16 0 19 -15 17 -36 -3z"/>
<path d="M670 135 c-10 -12 -8 -18 11 -35 13 -10 27 -20 32 -21 12 -2 57 -1
65 2 13 4 27 7 47 9 l20 1 -20 8 c-11 5 -23 7 -27 4 -5 -2 -18 3 -30 11 -12 9
-33 16 -45 16 -13 0 -23 5 -23 10 0 15 -16 12 -30 -5z"/>
</g>
</svg>
