<?xml version="1.0" standalone="no"?>
<!DOCTYPE svg PUBLIC "-//W3C//DTD SVG 20010904//EN"
 "http://www.w3.org/TR/2001/REC-SVG-20010904/DTD/svg10.dtd">
<svg version="1.0" xmlns="http://www.w3.org/2000/svg"
 width="96.000000pt" height="68.000000pt" viewBox="0 0 96.000000 68.000000"
 preserveAspectRatio="xMidYMid meet">
<metadata>
Created by potrace 1.16, written by Peter Selinger 2001-2019
</metadata>
<g transform="translate(0.000000,68.000000) scale(0.100000,-0.100000)"
fill="#000000" stroke="none">
<path d="M287 548 c5 -35 -11 -176 -22 -186 -4 -4 -41 -9 -83 -12 -74 -5 -75
-5 -57 -24 16 -15 28 -17 73 -12 l54 6 -7 -29 c-5 -25 -2 -31 31 -51 l36 -23
-23 -19 c-13 -10 -44 -30 -69 -43 -40 -21 -42 -24 -19 -25 14 0 53 13 85 30
l59 29 25 -24 c29 -28 60 -33 60 -11 0 16 -21 40 -48 55 -15 9 -15 12 -3 33 8
13 22 43 32 68 13 34 24 47 50 56 l34 12 -32 1 c-30 1 -32 3 -23 25 10 28 5
36 -27 36 -19 0 -23 -5 -23 -34 0 -32 -2 -34 -42 -39 -24 -3 -44 -4 -46 -3 -2
2 9 45 24 97 25 89 26 93 8 106 -10 7 -26 13 -35 13 -14 0 -17 -6 -12 -32z
m93 -208 c0 -15 -38 -87 -49 -94 -5 -4 -21 -1 -36 6 -22 10 -25 16 -19 42 8
38 6 37 46 46 48 11 58 11 58 0z"/>
</g>
</svg>
