<?xml version="1.0" standalone="no"?>
<!DOCTYPE svg PUBLIC "-//W3C//DTD SVG 20010904//EN"
 "http://www.w3.org/TR/2001/REC-SVG-20010904/DTD/svg10.dtd">
<svg version="1.0" xmlns="http://www.w3.org/2000/svg"
 width="96.000000pt" height="68.000000pt" viewBox="0 0 96.000000 68.000000"
 preserveAspectRatio="xMidYMid meet">
<metadata>
Created by potrace 1.16, written by Peter Selinger 2001-2019
</metadata>
<g transform="translate(0.000000,68.000000) scale(0.100000,-0.100000)"
fill="#000000" stroke="none">
<path d="M399 604 c-13 -15 -46 -42 -74 -60 -59 -40 -55 -42 17 -11 30 13 83
27 118 31 l65 6 -40 -36 c-22 -20 -71 -53 -110 -75 -38 -21 -65 -39 -59 -39
28 0 147 58 222 108 75 51 82 57 66 69 -24 17 -63 16 -107 -2 -45 -19 -53 -19
-37 0 6 8 9 19 5 25 -11 18 -41 11 -66 -16z"/>
</g>
</svg>
