<?xml version="1.0" standalone="no"?>
<!DOCTYPE svg PUBLIC "-//W3C//DTD SVG 20010904//EN"
 "http://www.w3.org/TR/2001/REC-SVG-20010904/DTD/svg10.dtd">
<svg version="1.0" xmlns="http://www.w3.org/2000/svg"
 width="96.000000pt" height="68.000000pt" viewBox="0 0 96.000000 68.000000"
 preserveAspectRatio="xMidYMid meet">
<metadata>
Created by potrace 1.16, written by Peter Selinger 2001-2019
</metadata>
<g transform="translate(0.000000,68.000000) scale(0.100000,-0.100000)"
fill="#000000" stroke="none">
<path d="M216 533 c4 -10 10 -50 12 -89 l3 -72 -55 -6 c-68 -9 -64 -26 5 -26
l49 0 0 -65 0 -64 -72 -22 c-64 -20 -69 -23 -53 -35 33 -24 68 -15 173 47 108
64 127 83 48 50 l-46 -20 0 59 0 59 38 10 c20 6 43 11 50 11 18 0 14 18 -5 22
-10 2 -33 1 -50 -3 -33 -7 -33 -6 -33 30 0 20 5 52 10 71 12 41 -5 60 -53 60
-24 0 -28 -3 -21 -17z"/>
</g>
</svg>
