<?xml version="1.0" standalone="no"?>
<!DOCTYPE svg PUBLIC "-//W3C//DTD SVG 20010904//EN"
 "http://www.w3.org/TR/2001/REC-SVG-20010904/DTD/svg10.dtd">
<svg version="1.0" xmlns="http://www.w3.org/2000/svg"
 width="96.000000pt" height="68.000000pt" viewBox="0 0 96.000000 68.000000"
 preserveAspectRatio="xMidYMid meet">
<metadata>
Created by potrace 1.16, written by Peter Selinger 2001-2019
</metadata>
<g transform="translate(0.000000,68.000000) scale(0.100000,-0.100000)"
fill="#000000" stroke="none">
<path d="M283 310 c-35 -9 -67 -20 -73 -26 -7 -7 -5 -27 4 -62 14 -56 26 -75
33 -54 3 6 19 12 36 13 49 2 72 12 75 34 2 11 12 35 23 53 10 18 19 35 19 37
0 1 -12 7 -27 12 -19 6 -48 4 -90 -7z m43 -65 c-5 -27 -12 -35 -37 -40 -17 -4
-32 -5 -34 -3 -2 2 -7 22 -11 45 l-6 42 43 3 c50 3 53 0 45 -47z"/>
</g>
</svg>
