<?xml version="1.0" standalone="no"?>
<!DOCTYPE svg PUBLIC "-//W3C//DTD SVG 20010904//EN"
 "http://www.w3.org/TR/2001/REC-SVG-20010904/DTD/svg10.dtd">
<svg version="1.0" xmlns="http://www.w3.org/2000/svg"
 width="90.000000pt" height="92.000000pt" viewBox="0 0 90.000000 92.000000"
 preserveAspectRatio="xMidYMid meet">
<metadata>
Created by potrace 1.16, written by Peter Selinger 2001-2019
</metadata>
<g transform="translate(0.000000,92.000000) scale(0.100000,-0.100000)"
fill="#000000" stroke="none">
<path d="M261 835 c-18 -26 -31 -35 -52 -35 -34 0 -33 2 -15 -41 7 -19 17 -65
21 -103 4 -38 9 -75 12 -83 4 -9 -5 -13 -30 -13 -22 0 -37 6 -41 15 -6 17 -26
20 -26 4 0 -6 -11 -33 -25 -61 -26 -53 -32 -92 -14 -103 16 -10 48 24 60 65
l11 37 79 7 c43 3 92 9 109 12 46 10 38 -16 -26 -85 -31 -34 -52 -61 -47 -61
5 0 30 14 56 30 32 20 60 30 87 30 46 0 49 -8 15 -40 -21 -19 -38 -23 -119
-28 l-95 -5 15 -22 c8 -12 19 -51 25 -85 16 -102 8 -98 150 -82 89 10 124 10
129 2 15 -25 41 7 76 98 l37 95 -23 19 c-25 20 -55 22 -115 8 -22 -5 -41 -7
-43 -5 -2 2 14 16 37 32 47 33 49 40 17 54 -19 9 -35 8 -72 -5 -51 -17 -70
-15 -34 4 16 9 20 18 16 35 -6 23 -5 23 117 30 67 4 132 5 145 4 l22 -4 -26
-39 -27 -39 24 6 c13 3 44 9 69 13 92 14 97 36 22 88 -35 24 -45 26 -91 20
-41 -5 -50 -4 -47 7 3 8 17 63 31 122 25 105 26 109 8 123 -24 18 -43 17 -110
-2 -65 -19 -55 -38 15 -28 40 6 42 5 42 -18 0 -22 -7 -27 -52 -39 -61 -16 -62
-35 0 -31 39 3 42 2 42 -22 0 -21 -5 -26 -24 -26 -38 0 -86 -12 -86 -21 0 -5
22 -9 50 -9 l50 0 -7 -32 c-3 -18 -6 -34 -7 -35 -1 -1 -86 -9 -293 -27 -43 -4
-43 -3 -43 30 0 30 3 34 26 34 30 0 64 16 64 32 0 11 -47 7 -82 -7 -14 -6 -18
-2 -18 18 0 21 6 25 39 31 22 3 43 11 47 17 12 20 -19 28 -53 14 -32 -14 -33
-13 -33 11 0 13 -1 27 -1 32 -1 4 19 13 45 20 51 14 58 32 24 56 -30 21 -29
21 -57 -19z m309 -483 c0 -27 -1 -28 -60 -29 -56 -2 -59 -1 -57 20 3 27 20 35
75 36 39 1 42 -1 42 -27z m-170 -16 c0 -27 -16 -36 -66 -36 -29 0 -34 3 -34
24 0 25 13 32 73 35 22 1 27 -3 27 -23z m156 -62 c-3 -9 -6 -21 -6 -28 0 -8
-17 -13 -50 -14 -46 -1 -50 1 -50 23 0 26 13 32 74 34 31 1 37 -2 32 -15z
m-146 -28 c0 -19 -6 -24 -37 -30 -60 -9 -63 -8 -63 24 0 29 1 30 50 30 46 0
50 -2 50 -24z"/>
<path d="M443 850 c-4 -16 -11 -19 -27 -14 -11 4 -28 9 -36 11 -8 3 -2 -7 15
-21 l30 -25 -35 -36 c-25 -26 -29 -34 -15 -29 11 4 30 16 41 26 19 17 25 18
43 6 30 -19 52 4 28 30 -13 14 -14 21 -5 30 8 8 8 15 -2 27 -17 21 -31 19 -37
-5z"/>
<path d="M438 713 c-3 -29 -14 -32 -53 -18 -19 8 -18 6 2 -17 l23 -24 -30 -29
c-40 -38 -30 -44 19 -12 38 25 39 26 56 7 10 -11 22 -17 26 -14 15 9 10 36 -8
49 -17 13 -17 14 0 32 21 24 22 39 1 47 -27 10 -33 7 -36 -21z"/>
<path d="M167 133 c-30 -49 -32 -86 -5 -91 32 -6 67 103 41 129 -4 4 -21 -13
-36 -38z"/>
<path d="M300 156 c0 -15 40 -94 53 -105 31 -25 50 16 27 60 -13 22 -80 61
-80 45z"/>
<path d="M461 123 c32 -55 55 -77 73 -70 17 7 21 44 8 63 -10 15 -67 44 -87
44 -14 0 -13 -5 6 -37z"/>
<path d="M621 133 c14 -16 37 -45 53 -65 31 -43 41 -46 56 -19 17 34 -3 66
-58 89 -68 29 -81 28 -51 -5z"/>
</g>
</svg>
