<?xml version="1.0" standalone="no"?>
<!DOCTYPE svg PUBLIC "-//W3C//DTD SVG 20010904//EN"
 "http://www.w3.org/TR/2001/REC-SVG-20010904/DTD/svg10.dtd">
<svg version="1.0" xmlns="http://www.w3.org/2000/svg"
 width="96.000000pt" height="68.000000pt" viewBox="0 0 96.000000 68.000000"
 preserveAspectRatio="xMidYMid meet">
<metadata>
Created by potrace 1.16, written by Peter Selinger 2001-2019
</metadata>
<g transform="translate(0.000000,68.000000) scale(0.100000,-0.100000)"
fill="#000000" stroke="none">
<path d="M570 606 c0 -44 -10 -56 -47 -56 -20 0 -32 -4 -28 -10 3 -5 18 -10
32 -10 20 0 24 -4 20 -20 -7 -27 5 -25 33 5 20 22 32 25 88 25 46 0 63 3 59
13 -2 7 -23 12 -55 12 -49 0 -51 1 -45 24 6 25 -9 41 -39 41 -12 0 -18 -8 -18
-24z"/>
<path d="M325 593 c21 -48 13 -58 -50 -63 l-60 -5 27 -18 c23 -16 31 -17 68
-6 38 12 43 11 53 -7 10 -18 11 -18 17 6 3 14 14 26 25 28 36 7 41 22 7 22
-27 0 -32 4 -32 24 0 23 -16 36 -47 36 -11 0 -13 -5 -8 -17z"/>
</g>
</svg>
