<?xml version="1.0" standalone="no"?>
<!DOCTYPE svg PUBLIC "-//W3C//DTD SVG 20010904//EN"
 "http://www.w3.org/TR/2001/REC-SVG-20010904/DTD/svg10.dtd">
<svg version="1.0" xmlns="http://www.w3.org/2000/svg"
 width="90.000000pt" height="92.000000pt" viewBox="0 0 90.000000 92.000000"
 preserveAspectRatio="xMidYMid meet">
<metadata>
Created by potrace 1.16, written by Peter Selinger 2001-2019
</metadata>
<g transform="translate(0.000000,92.000000) scale(0.100000,-0.100000)"
fill="#000000" stroke="none">
<path d="M650 834 c-19 -7 -52 -13 -74 -13 -31 -1 -36 -4 -27 -15 6 -7 16 -40
22 -72 9 -52 29 -97 29 -67 0 6 26 14 59 18 53 6 59 9 59 30 0 13 9 42 20 64
l21 40 -22 16 c-25 18 -39 17 -87 -1z m30 -69 c0 -29 -5 -37 -26 -45 -46 -18
-54 -13 -54 29 0 42 8 49 53 50 24 1 27 -2 27 -34z"/>
<path d="M430 815 c-14 -8 -44 -14 -68 -15 -43 0 -43 0 -28 -22 9 -12 19 -43
22 -69 9 -69 11 -70 79 -51 69 18 74 21 58 30 -8 5 -7 21 6 60 13 37 15 55 7
61 -22 17 -52 20 -76 6z m20 -70 c0 -40 -3 -47 -26 -56 -15 -5 -29 -8 -31 -5
-2 2 -5 23 -6 47 -2 42 7 52 56 58 4 1 7 -19 7 -44z"/>
<path d="M190 804 c-14 -7 -49 -19 -79 -25 -47 -10 -52 -13 -38 -26 12 -12 22
-13 53 -4 67 19 84 15 84 -18 0 -71 -10 -89 -58 -105 -25 -9 -56 -16 -68 -16
-27 0 -41 -17 -25 -33 15 -15 14 -57 -4 -91 -33 -63 -17 -73 69 -45 79 26 96
18 96 -45 0 -51 -25 -173 -42 -204 -10 -19 -18 -23 -43 -19 -16 3 -39 9 -49
13 -16 6 -12 -3 15 -40 19 -27 40 -51 48 -54 21 -8 78 60 89 105 5 21 17 79
27 128 9 50 19 100 22 112 4 17 -3 27 -28 43 -19 11 -43 18 -54 16 -11 -3 -40
-8 -64 -12 l-43 -7 17 33 c13 25 15 38 7 50 -9 15 -2 19 57 29 66 12 67 12 68
45 1 18 13 58 27 88 14 30 26 58 26 61 0 9 -56 37 -72 36 -7 -1 -24 -7 -38
-15z"/>
<path d="M584 630 c-40 -10 -113 -21 -163 -25 -84 -7 -91 -9 -78 -24 20 -23
28 -46 43 -130 13 -72 31 -110 41 -83 3 7 22 12 44 12 34 0 39 -3 39 -24 0
-29 -11 -32 -137 -42 -51 -3 -93 -11 -93 -16 0 -23 51 -31 140 -22 l90 10 0
-116 c0 -106 9 -156 23 -133 10 17 27 136 27 196 l0 57 138 0 c152 0 174 6
141 36 -24 21 -66 24 -196 11 l-83 -8 0 29 c0 18 6 32 16 36 26 10 69 7 82 -6
8 -8 15 -8 21 -3 9 9 81 205 81 219 0 9 -78 46 -92 45 -7 -1 -45 -9 -84 -19z
m91 -40 c3 -5 3 -19 0 -32 -5 -20 -12 -23 -56 -23 -34 0 -48 4 -44 12 2 7 -5
19 -17 27 -20 14 -20 15 8 19 55 8 103 7 109 -3z m-169 -35 c4 -14 5 -28 3
-29 -2 -2 -24 -6 -49 -7 -44 -4 -45 -3 -48 29 -3 32 -3 32 42 32 41 0 46 -3
52 -25z m158 -72 c-9 -38 -13 -40 -61 -45 -42 -3 -43 -3 -43 29 0 34 -4 32 93
41 14 2 16 -3 11 -25z m-154 -27 c0 -31 -3 -34 -36 -41 -20 -3 -37 -5 -39 -3
-1 2 -5 20 -9 41 l-7 37 46 0 c45 0 45 0 45 -34z"/>
</g>
</svg>
