<?xml version="1.0" standalone="no"?>
<!DOCTYPE svg PUBLIC "-//W3C//DTD SVG 20010904//EN"
 "http://www.w3.org/TR/2001/REC-SVG-20010904/DTD/svg10.dtd">
<svg version="1.0" xmlns="http://www.w3.org/2000/svg"
 width="96.000000pt" height="68.000000pt" viewBox="0 0 96.000000 68.000000"
 preserveAspectRatio="xMidYMid meet">
<metadata>
Created by potrace 1.16, written by Peter Selinger 2001-2019
</metadata>
<g transform="translate(0.000000,68.000000) scale(0.100000,-0.100000)"
fill="#000000" stroke="none">
<path d="M520 352 c6 -239 10 -253 82 -273 78 -21 248 3 248 35 0 14 -35 114
-42 121 -3 3 -8 -12 -11 -33 -11 -63 -37 -82 -112 -82 -81 0 -112 14 -121 53
-7 35 3 215 18 306 12 70 6 81 -42 81 l-25 0 5 -208z"/>
</g>
</svg>
