<?xml version="1.0" standalone="no"?>
<!DOCTYPE svg PUBLIC "-//W3C//DTD SVG 20010904//EN"
 "http://www.w3.org/TR/2001/REC-SVG-20010904/DTD/svg10.dtd">
<svg version="1.0" xmlns="http://www.w3.org/2000/svg"
 width="96.000000pt" height="68.000000pt" viewBox="0 0 96.000000 68.000000"
 preserveAspectRatio="xMidYMid meet">
<metadata>
Created by potrace 1.16, written by Peter Selinger 2001-2019
</metadata>
<g transform="translate(0.000000,68.000000) scale(0.100000,-0.100000)"
fill="#000000" stroke="none">
<path d="M520 362 c0 -184 2 -210 19 -238 30 -50 127 -67 240 -43 69 14 76 26
55 88 -21 64 -30 70 -38 25 -11 -57 -36 -74 -111 -74 -84 0 -113 14 -121 57
-7 37 2 197 16 303 5 35 8 66 6 67 -2 2 -17 8 -35 13 l-31 9 0 -207z"/>
<path d="M280 523 c-41 -7 -93 -17 -115 -22 l-40 -8 29 -12 c23 -9 46 -8 114
4 46 9 86 14 88 12 10 -10 -58 -87 -76 -87 -24 0 -25 -8 -5 -34 8 -11 15 -32
15 -46 0 -25 -5 -28 -82 -48 -46 -12 -92 -22 -102 -24 -19 -3 -19 -4 -2 -21
24 -23 53 -21 121 8 32 14 60 24 62 21 3 -3 2 -37 -2 -77 l-7 -71 -38 6 -38 6
35 -35 c64 -64 86 -42 91 97 l4 100 62 28 c68 32 64 38 -9 15 -27 -8 -50 -13
-51 -12 -1 1 -4 19 -5 40 -3 36 -1 39 64 82 37 25 67 50 67 55 0 14 -55 40
-82 39 -13 -1 -57 -8 -98 -16z"/>
</g>
</svg>
