<?xml version="1.0" standalone="no"?>
<!DOCTYPE svg PUBLIC "-//W3C//DTD SVG 20010904//EN"
 "http://www.w3.org/TR/2001/REC-SVG-20010904/DTD/svg10.dtd">
<svg version="1.0" xmlns="http://www.w3.org/2000/svg"
 width="96.000000pt" height="68.000000pt" viewBox="0 0 96.000000 68.000000"
 preserveAspectRatio="xMidYMid meet">
<metadata>
Created by potrace 1.16, written by Peter Selinger 2001-2019
</metadata>
<g transform="translate(0.000000,68.000000) scale(0.100000,-0.100000)"
fill="#000000" stroke="none">
<path d="M560 231 c0 -20 -13 -24 -128 -34 -23 -3 -45 -7 -48 -10 -12 -11 54
-16 111 -8 33 5 61 8 62 7 1 -1 3 -39 4 -84 1 -45 6 -85 10 -88 13 -8 29 41
29 89 0 88 -1 87 116 87 103 0 133 9 93 30 -19 11 -53 10 -163 -7 -36 -5 -38
-4 -33 16 4 18 1 21 -24 21 -22 0 -29 -5 -29 -19z"/>
</g>
</svg>
