<?xml version="1.0" standalone="no"?>
<!DOCTYPE svg PUBLIC "-//W3C//DTD SVG 20010904//EN"
 "http://www.w3.org/TR/2001/REC-SVG-20010904/DTD/svg10.dtd">
<svg version="1.0" xmlns="http://www.w3.org/2000/svg"
 width="96.000000pt" height="68.000000pt" viewBox="0 0 96.000000 68.000000"
 preserveAspectRatio="xMidYMid meet">
<metadata>
Created by potrace 1.16, written by Peter Selinger 2001-2019
</metadata>
<g transform="translate(0.000000,68.000000) scale(0.100000,-0.100000)"
fill="#000000" stroke="none">
<path d="M625 499 c-16 -5 -56 -10 -87 -10 -32 -1 -56 -5 -53 -9 3 -4 5 -38 6
-74 l2 -67 66 7 c36 4 84 7 106 8 39 2 41 4 72 66 20 39 29 68 23 74 -13 13
-101 17 -135 5z m75 -33 c0 -20 -6 -24 -47 -29 -27 -4 -65 -9 -85 -13 -29 -5
-38 -3 -38 7 0 28 17 39 70 48 92 15 100 14 100 -13z m-12 -63 c-3 -17 -11
-19 -120 -36 -35 -5 -38 -4 -38 18 0 21 5 24 48 28 110 8 114 8 110 -10z"/>
</g>
</svg>
