<?xml version="1.0" standalone="no"?>
<!DOCTYPE svg PUBLIC "-//W3C//DTD SVG 20010904//EN"
 "http://www.w3.org/TR/2001/REC-SVG-20010904/DTD/svg10.dtd">
<svg version="1.0" xmlns="http://www.w3.org/2000/svg"
 width="96.000000pt" height="68.000000pt" viewBox="0 0 96.000000 68.000000"
 preserveAspectRatio="xMidYMid meet">
<metadata>
Created by potrace 1.16, written by Peter Selinger 2001-2019
</metadata>
<g transform="translate(0.000000,68.000000) scale(0.100000,-0.100000)"
fill="#000000" stroke="none">
<path d="M313 240 c-12 -5 -45 -11 -74 -14 -28 -3 -52 -6 -53 -8 -9 -13 -25
-129 -20 -142 10 -26 34 -18 40 14 6 28 9 29 74 36 l69 6 24 50 c23 46 23 49
6 58 -21 12 -37 12 -66 0z m17 -45 c0 -27 -18 -40 -72 -48 -42 -6 -53 3 -44
38 5 18 14 25 39 28 74 9 77 8 77 -18z"/>
</g>
</svg>
