<?xml version="1.0" standalone="no"?>
<!DOCTYPE svg PUBLIC "-//W3C//DTD SVG 20010904//EN"
 "http://www.w3.org/TR/2001/REC-SVG-20010904/DTD/svg10.dtd">
<svg version="1.0" xmlns="http://www.w3.org/2000/svg"
 width="96.000000pt" height="68.000000pt" viewBox="0 0 96.000000 68.000000"
 preserveAspectRatio="xMidYMid meet">
<metadata>
Created by potrace 1.16, written by Peter Selinger 2001-2019
</metadata>
<g transform="translate(0.000000,68.000000) scale(0.100000,-0.100000)"
fill="#000000" stroke="none">
<path d="M550 554 c-36 -8 -93 -14 -127 -12 l-61 3 5 -50 c10 -101 -52 -289
-125 -384 -62 -79 -38 -77 35 2 54 58 78 108 107 215 l23 87 134 11 c154 13
148 12 130 23 -12 8 -10 16 12 50 l27 41 -30 15 c-34 18 -44 18 -130 -1z m68
-28 c2 -3 0 -17 -5 -32 -11 -32 -27 -38 -130 -48 l-73 -7 0 30 c0 16 6 33 13
38 36 22 177 36 195 19z"/>
</g>
</svg>
