<?xml version="1.0" standalone="no"?>
<!DOCTYPE svg PUBLIC "-//W3C//DTD SVG 20010904//EN"
 "http://www.w3.org/TR/2001/REC-SVG-20010904/DTD/svg10.dtd">
<svg version="1.0" xmlns="http://www.w3.org/2000/svg"
 width="96.000000pt" height="68.000000pt" viewBox="0 0 96.000000 68.000000"
 preserveAspectRatio="xMidYMid meet">
<metadata>
Created by potrace 1.16, written by Peter Selinger 2001-2019
</metadata>
<g transform="translate(0.000000,68.000000) scale(0.100000,-0.100000)"
fill="#000000" stroke="none">
<path d="M650 388 c-41 -5 -100 -10 -130 -10 l-55 -1 2 -90 c1 -78 12 -121 27
-106 3 2 6 41 7 86 1 65 5 83 18 88 9 4 62 9 119 12 l102 6 0 -84 c0 -113 -6
-120 -75 -94 -14 6 -10 -2 14 -28 19 -21 43 -37 52 -37 20 0 49 57 49 97 0 16
5 55 11 87 9 52 8 59 -8 72 -20 15 -27 15 -133 2z"/>
</g>
</svg>
