<?xml version="1.0" standalone="no"?>
<!DOCTYPE svg PUBLIC "-//W3C//DTD SVG 20010904//EN"
 "http://www.w3.org/TR/2001/REC-SVG-20010904/DTD/svg10.dtd">
<svg version="1.0" xmlns="http://www.w3.org/2000/svg"
 width="96.000000pt" height="68.000000pt" viewBox="0 0 96.000000 68.000000"
 preserveAspectRatio="xMidYMid meet">
<metadata>
Created by potrace 1.16, written by Peter Selinger 2001-2019
</metadata>
<g transform="translate(0.000000,68.000000) scale(0.100000,-0.100000)"
fill="#000000" stroke="none">
<path d="M565 553 c-7 -30 -50 -93 -72 -106 -7 -4 -18 -18 -24 -30 l-12 -21
29 18 c16 11 45 32 65 48 26 19 48 28 74 28 l37 0 -42 -50 c-23 -27 -37 -50
-30 -50 19 0 151 111 147 123 -4 13 -50 13 -105 2 -32 -7 -33 -7 -20 20 10 22
9 28 -3 36 -24 15 -37 10 -44 -18z"/>
</g>
</svg>
