<?xml version="1.0" standalone="no"?>
<!DOCTYPE svg PUBLIC "-//W3C//DTD SVG 20010904//EN"
 "http://www.w3.org/TR/2001/REC-SVG-20010904/DTD/svg10.dtd">
<svg version="1.0" xmlns="http://www.w3.org/2000/svg"
 width="96.000000pt" height="68.000000pt" viewBox="0 0 96.000000 68.000000"
 preserveAspectRatio="xMidYMid meet">
<metadata>
Created by potrace 1.16, written by Peter Selinger 2001-2019
</metadata>
<g transform="translate(0.000000,68.000000) scale(0.100000,-0.100000)"
fill="#000000" stroke="none">
<path d="M620 355 c0 -34 5 -47 20 -55 24 -13 145 -18 156 -7 15 14 -17 24
-60 20 -24 -3 -53 0 -65 6 -22 12 -29 45 -11 56 15 9 2 25 -21 25 -16 0 -19
-7 -19 -45z"/>
<path d="M508 382 c-9 -2 -19 -15 -23 -29 -3 -14 -20 -39 -37 -55 -35 -33 -15
-39 25 -8 57 45 79 102 35 92z"/>
</g>
</svg>
