<?xml version="1.0" standalone="no"?>
<!DOCTYPE svg PUBLIC "-//W3C//DTD SVG 20010904//EN"
 "http://www.w3.org/TR/2001/REC-SVG-20010904/DTD/svg10.dtd">
<svg version="1.0" xmlns="http://www.w3.org/2000/svg"
 width="90.000000pt" height="92.000000pt" viewBox="0 0 90.000000 92.000000"
 preserveAspectRatio="xMidYMid meet">
<metadata>
Created by potrace 1.16, written by Peter Selinger 2001-2019
</metadata>
<g transform="translate(0.000000,92.000000) scale(0.100000,-0.100000)"
fill="#000000" stroke="none">
<path d="M497 863 c-4 -3 -7 -17 -7 -30 0 -27 -49 -127 -88 -182 -36 -50 -108
-131 -116 -131 -3 0 -6 10 -6 23 0 12 -10 43 -23 67 l-22 45 49 64 50 64 -28
23 c-35 31 -44 30 -52 -3 -8 -39 -23 -75 -38 -96 -13 -17 -17 -16 -65 14 -28
18 -55 29 -59 25 -4 -4 0 -13 9 -19 8 -7 31 -25 49 -40 l33 -28 -74 -76 -74
-75 45 22 c25 13 64 39 87 58 l43 34 14 -33 c12 -29 12 -37 -1 -64 -29 -58
-96 -136 -161 -187 -36 -29 -60 -54 -54 -56 25 -8 112 46 174 111 65 65 68 67
68 40 -1 -74 -21 -227 -32 -240 -8 -10 -27 -14 -59 -11 l-47 3 46 -50 c26 -27
52 -49 57 -47 25 7 54 56 65 108 7 31 12 114 11 184 0 123 1 129 23 143 21 14
23 13 36 -6 7 -12 18 -51 24 -87 10 -56 14 -65 31 -63 11 1 68 7 127 13 59 6
116 9 126 6 16 -6 24 6 50 71 l32 78 -23 23 -23 22 -118 -20 c-65 -11 -142
-20 -171 -20 l-53 0 53 54 c29 30 69 82 90 115 20 34 41 61 46 61 4 0 48 -45
96 -100 48 -56 97 -103 111 -107 29 -7 113 4 126 17 6 6 2 12 -10 16 -125 44
-325 184 -302 211 7 9 2 19 -18 38 -28 26 -36 29 -47 18z m171 -345 c2 -9 -1
-34 -7 -55 -10 -37 -11 -38 -64 -41 l-53 -2 1 52 0 53 45 6 c62 8 74 6 78 -13z
m-160 -54 l3 -52 -46 -7 c-26 -3 -48 -5 -50 -3 -1 2 -5 26 -9 55 l-7 52 33 4
c69 9 73 7 76 -49z"/>
<path d="M588 475 c-8 -19 -14 -35 -11 -35 3 0 46 25 62 37 5 3 -20 33 -28 33
-4 0 -14 -16 -23 -35z"/>
<path d="M430 473 c1 -19 30 -45 45 -40 21 9 19 24 -4 37 -23 12 -41 13 -41 3z"/>
<path d="M510 639 c-61 -16 -63 -18 -39 -27 30 -12 145 7 142 23 -3 19 -40 20
-103 4z"/>
<path d="M590 349 c-43 -18 -158 -37 -187 -31 -25 5 -26 3 -15 -11 9 -11 12
-44 11 -112 -2 -78 1 -99 14 -113 16 -15 17 -15 17 1 0 14 10 17 54 17 29 0
67 3 83 6 26 5 31 2 43 -25 7 -17 19 -31 26 -31 30 0 43 43 45 159 3 109 2
114 -22 132 -27 21 -34 22 -69 8z m40 -75 c0 -27 -4 -35 -14 -31 -8 3 -51 0
-95 -7 l-81 -13 0 32 c0 32 1 33 58 43 31 5 74 10 95 11 36 1 37 0 37 -35z m0
-98 c0 -33 0 -33 -47 -32 -27 1 -69 -3 -95 -7 l-48 -8 0 35 0 35 58 4 c143 9
132 11 132 -27z"/>
</g>
</svg>
