<?xml version="1.0" standalone="no"?>
<!DOCTYPE svg PUBLIC "-//W3C//DTD SVG 20010904//EN"
 "http://www.w3.org/TR/2001/REC-SVG-20010904/DTD/svg10.dtd">
<svg version="1.0" xmlns="http://www.w3.org/2000/svg"
 width="96.000000pt" height="68.000000pt" viewBox="0 0 96.000000 68.000000"
 preserveAspectRatio="xMidYMid meet">
<metadata>
Created by potrace 1.16, written by Peter Selinger 2001-2019
</metadata>
<g transform="translate(0.000000,68.000000) scale(0.100000,-0.100000)"
fill="#000000" stroke="none">
<path d="M650 516 c-6 -19 -20 -47 -32 -61 -11 -14 -18 -29 -14 -32 5 -6 111
71 122 89 8 13 -6 25 -37 33 -24 6 -28 3 -39 -29z"/>
<path d="M440 492 c0 -16 68 -74 79 -68 22 14 11 44 -23 60 -37 18 -56 20 -56
8z"/>
<path d="M347 454 c-3 -4 -50 -11 -103 -18 -60 -7 -99 -16 -102 -23 -2 -9 10
-13 42 -13 35 0 46 -4 46 -16 0 -29 -52 -123 -106 -190 -30 -37 -52 -70 -49
-72 6 -6 95 56 112 77 9 13 14 7 26 -34 11 -39 19 -49 33 -47 11 2 43 6 72 9
42 4 52 9 47 21 -3 8 2 35 11 59 25 64 5 76 -84 54 -29 -7 -56 -11 -59 -8 -8
9 23 48 32 39 5 -4 5 -2 1 5 -3 6 3 27 14 45 11 18 20 40 20 49 0 13 14 18 55
24 59 7 70 20 29 35 -30 12 -29 12 -37 4z m-19 -251 c-3 -46 -4 -48 -37 -51
-40 -4 -47 2 -56 48 -6 36 -6 36 31 38 21 2 40 5 43 7 15 15 22 -1 19 -42z"/>
<path d="M625 395 c-38 -7 -101 -16 -139 -20 -46 -5 -64 -10 -55 -16 8 -5 26
-9 40 -9 35 0 39 -17 39 -156 l0 -111 -37 -7 c-21 -3 -55 -6 -75 -6 -21 0 -38
-4 -38 -9 0 -18 51 -21 192 -11 78 5 180 10 226 10 85 0 99 7 58 30 -18 9 -47
11 -104 6 l-79 -7 5 98 c2 54 7 116 11 138 6 37 9 40 44 46 20 3 40 9 43 12 6
6 -40 28 -54 26 -4 0 -38 -7 -77 -14z m-11 -51 c3 -9 6 -69 6 -135 0 -111 -1
-119 -19 -119 -11 0 -26 -3 -35 -6 -14 -5 -16 10 -16 135 l0 141 29 0 c17 0
31 -6 35 -16z"/>
<path d="M724 249 c-10 -23 -25 -48 -32 -56 -32 -32 0 -22 52 16 61 45 66 55
37 71 -31 16 -37 13 -57 -31z"/>
<path d="M420 244 c0 -16 43 -75 53 -71 19 6 18 23 -3 50 -19 24 -50 37 -50
21z"/>
</g>
</svg>
