<?xml version="1.0" standalone="no"?>
<!DOCTYPE svg PUBLIC "-//W3C//DTD SVG 20010904//EN"
 "http://www.w3.org/TR/2001/REC-SVG-20010904/DTD/svg10.dtd">
<svg version="1.0" xmlns="http://www.w3.org/2000/svg"
 width="96.000000pt" height="68.000000pt" viewBox="0 0 96.000000 68.000000"
 preserveAspectRatio="xMidYMid meet">
<metadata>
Created by potrace 1.16, written by Peter Selinger 2001-2019
</metadata>
<g transform="translate(0.000000,68.000000) scale(0.100000,-0.100000)"
fill="#000000" stroke="none">
<path d="M475 579 c-72 -9 -148 -15 -170 -12 l-41 5 0 -69 c-1 -131 -47 -252
-136 -355 -55 -64 -52 -73 9 -29 73 53 115 123 148 246 l22 80 94 11 c52 7
124 15 162 19 51 5 67 10 67 22 0 9 9 30 20 48 l20 33 -31 11 c-18 6 -32 10
-33 10 -1 -1 -59 -10 -131 -20z m117 -39 c-1 -13 -5 -26 -7 -28 -7 -7 -184
-31 -231 -32 -39 0 -40 1 -36 30 3 22 10 30 26 31 11 0 66 7 121 14 125 16
131 15 127 -15z"/>
</g>
</svg>
