<?xml version="1.0" standalone="no"?>
<!DOCTYPE svg PUBLIC "-//W3C//DTD SVG 20010904//EN"
 "http://www.w3.org/TR/2001/REC-SVG-20010904/DTD/svg10.dtd">
<svg version="1.0" xmlns="http://www.w3.org/2000/svg"
 width="96.000000pt" height="68.000000pt" viewBox="0 0 96.000000 68.000000"
 preserveAspectRatio="xMidYMid meet">
<metadata>
Created by potrace 1.16, written by Peter Selinger 2001-2019
</metadata>
<g transform="translate(0.000000,68.000000) scale(0.100000,-0.100000)"
fill="#000000" stroke="none">
<path d="M560 603 c-14 -2 -62 -8 -107 -14 -78 -10 -106 -29 -43 -29 29 0 44
-18 31 -39 -4 -6 -34 -12 -70 -12 -62 -1 -62 -1 -42 -20 12 -11 21 -26 21 -34
0 -29 23 -65 35 -55 6 5 76 12 154 14 l143 5 35 46 c33 44 34 47 16 61 -13 11
-33 13 -74 9 -55 -6 -56 -5 -56 19 0 21 5 26 38 31 22 4 39 11 39 16 0 9 -69
10 -120 2z m-10 -58 c0 -22 -4 -25 -35 -25 -31 0 -35 3 -35 25 0 22 4 25 35
25 31 0 35 -3 35 -25z m130 -40 c0 -1 -5 -16 -11 -33 -10 -28 -13 -30 -47 -25
-46 7 -44 6 -37 36 5 20 14 27 38 29 29 3 57 0 57 -7z m-130 -35 c0 -28 -3
-30 -35 -30 -32 0 -35 2 -35 30 0 28 3 30 35 30 32 0 35 -2 35 -30z m-100 -10
c0 -28 -3 -30 -35 -30 -32 0 -35 2 -35 30 0 28 3 30 35 30 32 0 35 -2 35 -30z"/>
<path d="M188 543 c16 -28 35 -42 69 -49 23 -5 32 -2 37 12 10 26 -13 43 -68
50 -46 7 -48 6 -38 -13z"/>
<path d="M110 432 c0 -17 67 -72 88 -72 17 0 22 6 22 25 0 13 -8 28 -17 33
-27 14 -93 24 -93 14z"/>
<path d="M457 366 c-81 -9 -96 -13 -85 -24 7 -7 18 -34 23 -60 l10 -47 45 0
c39 0 45 -2 42 -20 -2 -11 -5 -21 -6 -22 -1 -1 -50 -5 -109 -9 -59 -4 -107
-11 -107 -15 0 -15 71 -21 145 -12 42 5 78 7 80 4 3 -2 5 -37 5 -78 0 -57 3
-73 15 -73 15 0 23 30 29 110 4 44 5 45 42 52 22 4 75 4 120 1 94 -7 141 7 90
27 -20 7 -67 9 -139 4 -84 -5 -108 -4 -103 5 4 6 2 19 -6 28 -12 15 -8 16 40
9 45 -6 52 -4 52 10 0 10 11 37 25 60 25 42 25 43 6 54 -23 12 -81 11 -214 -4z
m163 -20 c0 -21 -6 -23 -108 -31 -88 -7 -94 -6 -90 11 3 20 45 30 146 32 39 2
52 -2 52 -12z m-12 -58 c-5 -14 -66 -26 -135 -27 -53 -1 -61 25 -10 32 78 10
149 7 145 -5z"/>
<path d="M222 295 c-18 -30 -49 -70 -68 -89 -34 -33 -34 -34 -20 -72 23 -69
44 -53 93 71 42 107 51 145 35 145 -4 0 -22 -25 -40 -55z"/>
</g>
</svg>
