<?xml version="1.0" standalone="no"?>
<!DOCTYPE svg PUBLIC "-//W3C//DTD SVG 20010904//EN"
 "http://www.w3.org/TR/2001/REC-SVG-20010904/DTD/svg10.dtd">
<svg version="1.0" xmlns="http://www.w3.org/2000/svg"
 width="90.000000pt" height="92.000000pt" viewBox="0 0 90.000000 92.000000"
 preserveAspectRatio="xMidYMid meet">
<metadata>
Created by potrace 1.16, written by Peter Selinger 2001-2019
</metadata>
<g transform="translate(0.000000,92.000000) scale(0.100000,-0.100000)"
fill="#000000" stroke="none">
<path d="M399 877 c12 -20 20 -41 17 -45 -3 -5 -66 -15 -141 -22 -75 -7 -138
-17 -141 -22 -3 -4 6 -13 20 -19 19 -9 55 -8 153 5 70 9 178 18 238 21 61 3
130 8 155 11 l45 6 -28 24 c-35 30 -40 30 -225 -2 -30 -5 -32 -3 -27 19 8 28
-9 44 -55 54 l-34 6 23 -36z"/>
<path d="M470 754 c-30 -8 -92 -16 -138 -18 -45 -2 -85 -6 -89 -10 -3 -3 -2
-6 4 -6 14 0 30 -43 39 -100 7 -52 23 -87 33 -73 3 6 25 14 49 18 40 6 42 6
42 -18 0 -25 -1 -25 -107 -32 -133 -8 -145 -11 -118 -32 20 -15 65 -14 155 2
l35 6 -35 -31 c-19 -17 -66 -49 -105 -71 -59 -34 -65 -39 -35 -34 44 9 133 48
167 75 35 27 40 25 35 -12 -2 -19 3 -42 12 -53 14 -20 15 -19 25 8 6 16 11 51
11 78 l0 49 131 0 c100 0 130 3 127 13 -10 29 -56 39 -128 28 -38 -6 -83 -11
-100 -11 -27 0 -31 3 -28 23 2 18 10 23 42 25 21 2 43 -1 49 -7 19 -19 36 1
58 67 12 37 25 71 30 77 15 15 10 24 -21 40 -35 18 -66 18 -140 -1z m90 -47
c0 -21 -4 -23 -54 -23 -41 0 -53 4 -52 16 2 23 16 30 64 30 37 0 42 -3 42 -23z
m-152 -18 c2 -12 -8 -18 -39 -23 -43 -7 -58 2 -59 32 0 21 94 12 98 -9z m142
-43 c0 -34 -10 -41 -55 -38 -36 3 -45 8 -45 22 0 13 9 20 28 23 56 8 72 7 72
-7z m-140 -25 c0 -14 -10 -21 -35 -25 -42 -8 -55 -2 -55 25 0 16 7 19 45 19
37 0 45 -3 45 -19z"/>
<path d="M490 477 c0 -9 146 -105 166 -109 25 -4 30 28 8 53 -19 21 -174 71
-174 56z"/>
<path d="M274 306 c-48 -48 -98 -85 -153 -115 -45 -23 -80 -45 -78 -47 2 -3
26 0 53 6 44 10 112 44 172 87 l23 16 -2 -102 c-2 -65 1 -105 9 -113 8 -8 32
8 92 62 44 40 79 75 77 77 -3 2 -31 -12 -63 -31 -32 -20 -59 -34 -61 -32 -2 2
-4 32 -5 67 -1 35 -7 71 -14 79 -10 13 -6 20 27 44 41 31 47 44 27 64 -19 19
-28 13 -104 -62z"/>
<path d="M540 331 c-26 -52 -35 -56 -69 -32 -30 22 -71 28 -71 11 0 -5 4 -10
9 -10 4 0 54 -40 109 -90 117 -103 129 -110 175 -110 40 0 137 27 137 39 0 5
-28 14 -62 21 -79 15 -161 46 -217 80 l-43 27 56 23 c60 25 67 37 38 63 -28
25 -40 21 -62 -22z"/>
</g>
</svg>
