<?xml version="1.0" standalone="no"?>
<!DOCTYPE svg PUBLIC "-//W3C//DTD SVG 20010904//EN"
 "http://www.w3.org/TR/2001/REC-SVG-20010904/DTD/svg10.dtd">
<svg version="1.0" xmlns="http://www.w3.org/2000/svg"
 width="96.000000pt" height="68.000000pt" viewBox="0 0 96.000000 68.000000"
 preserveAspectRatio="xMidYMid meet">
<metadata>
Created by potrace 1.16, written by Peter Selinger 2001-2019
</metadata>
<g transform="translate(0.000000,68.000000) scale(0.100000,-0.100000)"
fill="#000000" stroke="none">
<path d="M497 300 c11 -91 -35 -166 -137 -224 -63 -36 -26 -32 48 5 34 17 76
48 95 69 l33 39 54 -53 c86 -81 109 -96 150 -96 46 0 100 10 100 19 0 3 -26
14 -58 24 -81 26 -172 72 -206 103 -27 25 -28 31 -23 86 5 56 4 60 -20 69 -39
15 -42 12 -36 -41z"/>
<path d="M649 283 c-8 -9 -32 -29 -53 -45 -46 -33 -46 -34 46 -8 83 23 97 33
78 55 -17 20 -54 19 -71 -2z"/>
<path d="M350 247 c0 -21 47 -60 64 -54 27 11 17 37 -19 53 -42 17 -45 17 -45
1z"/>
</g>
</svg>
