<?xml version="1.0" standalone="no"?>
<!DOCTYPE svg PUBLIC "-//W3C//DTD SVG 20010904//EN"
 "http://www.w3.org/TR/2001/REC-SVG-20010904/DTD/svg10.dtd">
<svg version="1.0" xmlns="http://www.w3.org/2000/svg"
 width="96.000000pt" height="68.000000pt" viewBox="0 0 96.000000 68.000000"
 preserveAspectRatio="xMidYMid meet">
<metadata>
Created by potrace 1.16, written by Peter Selinger 2001-2019
</metadata>
<g transform="translate(0.000000,68.000000) scale(0.100000,-0.100000)"
fill="#000000" stroke="none">
<path d="M566 644 c-3 -9 -6 -26 -6 -39 0 -19 -7 -24 -40 -30 -49 -8 -53 -25
-5 -25 39 0 39 1 25 -34 -5 -14 -5 -28 -1 -31 9 -5 61 50 61 64 0 5 32 11 70
13 39 3 74 8 77 12 16 15 -21 30 -68 28 -40 -2 -50 1 -46 11 6 16 -26 47 -47
47 -8 0 -17 -7 -20 -16z"/>
<path d="M303 613 c2 -10 8 -26 12 -35 7 -19 0 -20 -99 -22 -38 -1 -43 -19
-11 -36 20 -11 35 -11 76 -2 65 15 66 15 72 -7 3 -15 0 -19 -13 -16 -13 2 -19
-4 -23 -24 -3 -15 -26 -48 -51 -74 -51 -54 -35 -64 21 -13 37 33 40 34 178 45
181 16 207 20 200 32 -8 13 -115 10 -208 -5 -67 -11 -80 -11 -84 1 -3 8 -1 19
6 26 6 6 11 23 11 38 0 22 6 29 30 34 38 8 28 29 -11 21 -24 -5 -29 -2 -29 14
0 22 -28 40 -61 40 -16 0 -20 -5 -16 -17z"/>
<path d="M535 388 c-38 -5 -103 -10 -143 -11 l-73 -2 6 -37 c12 -71 5 -78 -91
-78 -46 0 -84 -4 -84 -9 0 -17 34 -22 102 -15 37 4 68 3 68 -1 0 -5 -13 -32
-30 -61 -17 -30 -25 -56 -20 -59 5 -3 33 1 62 10 56 16 233 21 242 6 3 -5 -3
-19 -13 -32 -17 -21 -21 -22 -46 -11 -40 19 -39 10 4 -32 35 -34 41 -36 60
-24 11 7 29 31 38 54 17 40 17 41 57 33 23 -5 52 -8 66 -8 l25 0 -28 24 c-18
16 -40 25 -63 25 -30 0 -34 3 -34 28 0 68 6 72 86 72 41 0 74 4 74 8 0 18 -51
31 -100 25 -47 -5 -50 -4 -50 16 0 12 5 31 10 41 9 16 5 22 -19 35 -17 8 -31
14 -33 14 -2 -1 -34 -6 -73 -11z m65 -63 l0 -45 -43 0 c-24 0 -78 -3 -119 -6
l-75 -7 6 44 6 44 55 6 c30 3 81 6 113 7 l57 2 0 -45z m-2 -91 c2 -11 -1 -31
-6 -45 -9 -22 -15 -24 -50 -21 -28 3 -39 8 -36 17 7 17 -34 55 -58 55 -15 0
-17 -3 -8 -19 5 -11 20 -27 32 -35 l21 -15 -24 -5 c-13 -3 -52 -8 -86 -11
l-61 -6 16 50 16 50 85 4 c145 6 156 5 159 -19z"/>
<path d="M445 341 c-8 -14 43 -54 61 -47 16 6 16 8 0 25 -19 21 -53 33 -61 22z"/>
</g>
</svg>
