<?xml version="1.0" standalone="no"?>
<!DOCTYPE svg PUBLIC "-//W3C//DTD SVG 20010904//EN"
 "http://www.w3.org/TR/2001/REC-SVG-20010904/DTD/svg10.dtd">
<svg version="1.0" xmlns="http://www.w3.org/2000/svg"
 width="90.000000pt" height="92.000000pt" viewBox="0 0 90.000000 92.000000"
 preserveAspectRatio="xMidYMid meet">
<metadata>
Created by potrace 1.16, written by Peter Selinger 2001-2019
</metadata>
<g transform="translate(0.000000,92.000000) scale(0.100000,-0.100000)"
fill="#000000" stroke="none">
<path d="M123 799 c-8 -8 -7 -18 3 -37 9 -17 14 -60 14 -119 l0 -92 -55 -11
c-30 -6 -55 -16 -55 -21 0 -12 45 -22 80 -17 l30 5 0 -86 0 -86 -55 -23 c-31
-12 -62 -22 -70 -22 -8 0 -15 -6 -15 -14 0 -16 37 -46 57 -46 12 0 219 146
229 161 9 15 -15 10 -56 -11 l-40 -20 0 79 0 79 44 11 c48 12 64 27 49 42 -13
13 -42 15 -70 5 -21 -7 -23 -4 -23 27 0 36 14 121 25 149 11 27 -70 69 -92 47z"/>
<path d="M404 753 c-17 -78 -50 -159 -80 -199 -37 -48 -42 -75 -20 -93 11 -10
21 -9 43 2 76 39 79 34 23 -47 -29 -43 -62 -83 -73 -91 -14 -10 -18 -20 -13
-39 7 -29 26 -33 59 -12 12 8 45 24 74 35 43 17 52 18 57 6 3 -8 12 -15 21
-15 10 0 15 10 15 35 0 28 -5 37 -30 50 -39 20 -43 19 -36 -10 7 -27 -5 -35
-72 -52 l-26 -6 18 29 c11 16 53 71 94 123 72 91 75 96 61 119 -23 41 -36 36
-53 -16 -17 -50 -35 -62 -92 -62 -23 0 -16 21 41 120 30 52 55 98 55 103 0 10
-38 47 -50 47 -5 0 -12 -12 -16 -27z"/>
<path d="M654 745 c6 -22 -7 -134 -20 -177 -3 -11 -20 -19 -50 -24 -36 -5 -42
-9 -33 -20 6 -8 24 -14 40 -14 16 0 29 -2 29 -3 0 -2 -9 -32 -21 -68 -35 -106
-90 -203 -166 -293 -18 -22 -31 -42 -28 -44 9 -9 83 47 118 90 49 61 100 159
131 254 27 82 45 101 82 87 40 -15 -15 -302 -61 -319 -8 -4 -26 1 -40 10 -14
9 -25 14 -25 11 0 -10 62 -105 69 -105 13 0 50 40 66 70 8 16 24 85 35 152 11
68 27 137 35 155 14 31 13 33 -13 53 -22 18 -35 20 -69 15 -33 -5 -42 -3 -38
7 2 7 12 44 21 82 17 70 17 70 -6 88 -12 10 -31 18 -42 18 -17 0 -19 -5 -14
-25z"/>
</g>
</svg>
