<?xml version="1.0" standalone="no"?>
<!DOCTYPE svg PUBLIC "-//W3C//DTD SVG 20010904//EN"
 "http://www.w3.org/TR/2001/REC-SVG-20010904/DTD/svg10.dtd">
<svg version="1.0" xmlns="http://www.w3.org/2000/svg"
 width="96.000000pt" height="68.000000pt" viewBox="0 0 96.000000 68.000000"
 preserveAspectRatio="xMidYMid meet">
<metadata>
Created by potrace 1.16, written by Peter Selinger 2001-2019
</metadata>
<g transform="translate(0.000000,68.000000) scale(0.100000,-0.100000)"
fill="#000000" stroke="none">
<path d="M540 117 c0 -4 -21 -29 -47 -55 -27 -25 -38 -38 -25 -28 12 11 22 16
22 12 0 -4 11 5 25 19 14 14 30 25 36 25 6 0 7 4 4 10 -3 6 1 7 9 4 10 -4 16
-1 16 9 0 10 -8 15 -20 14 -11 -1 -20 -5 -20 -10z"/>
<path d="M719 66 c44 -45 90 -61 70 -24 -6 10 -14 16 -20 13 -5 -4 -8 -1 -7 5
2 7 -17 21 -42 32 l-45 19 44 -45z"/>
</g>
</svg>
