<?xml version="1.0" standalone="no"?>
<!DOCTYPE svg PUBLIC "-//W3C//DTD SVG 20010904//EN"
 "http://www.w3.org/TR/2001/REC-SVG-20010904/DTD/svg10.dtd">
<svg version="1.0" xmlns="http://www.w3.org/2000/svg"
 width="96.000000pt" height="68.000000pt" viewBox="0 0 96.000000 68.000000"
 preserveAspectRatio="xMidYMid meet">
<metadata>
Created by potrace 1.16, written by Peter Selinger 2001-2019
</metadata>
<g transform="translate(0.000000,68.000000) scale(0.100000,-0.100000)"
fill="#000000" stroke="none">
<path d="M569 591 c6 -11 11 -31 11 -45 0 -21 -5 -26 -27 -27 -90 -4 -113 -19
-30 -19 50 0 57 -2 57 -19 0 -16 -9 -21 -45 -27 -54 -8 -50 -24 6 -24 28 0 39
-4 39 -15 0 -8 9 -15 20 -15 13 0 20 7 20 19 0 20 25 31 73 31 15 0 27 5 27
10 0 6 -22 10 -50 10 -37 0 -50 4 -50 14 0 14 11 18 93 32 20 3 37 10 37 14 0
15 -34 20 -75 10 -47 -11 -50 -8 -50 33 0 29 -3 32 -33 35 -31 3 -33 2 -23
-17z"/>
</g>
</svg>
