<?xml version="1.0" standalone="no"?>
<!DOCTYPE svg PUBLIC "-//W3C//DTD SVG 20010904//EN"
 "http://www.w3.org/TR/2001/REC-SVG-20010904/DTD/svg10.dtd">
<svg version="1.0" xmlns="http://www.w3.org/2000/svg"
 width="96.000000pt" height="68.000000pt" viewBox="0 0 96.000000 68.000000"
 preserveAspectRatio="xMidYMid meet">
<metadata>
Created by potrace 1.16, written by Peter Selinger 2001-2019
</metadata>
<g transform="translate(0.000000,68.000000) scale(0.100000,-0.100000)"
fill="#000000" stroke="none">
<path d="M490 590 c-69 -9 -143 -15 -165 -12 l-40 4 0 -88 c-1 -97 -18 -161
-66 -254 -16 -31 -40 -67 -52 -80 -31 -34 -70 -90 -62 -90 18 0 71 36 103 71
50 55 88 130 108 214 9 39 19 73 23 77 4 4 63 12 131 18 215 17 232 20 226 36
-3 9 3 33 14 54 l20 39 -22 15 c-27 19 -55 19 -218 -4z m150 -42 c0 -13 -4
-28 -8 -35 -7 -11 -267 -48 -281 -39 -6 4 -4 62 3 67 1 1 230 25 269 28 11 1
17 -6 17 -21z"/>
<path d="M440 404 c-15 -9 -39 -13 -60 -10 l-35 5 1 -162 c1 -201 1 -197 19
-173 11 14 15 48 16 110 1 50 4 116 7 146 6 51 9 55 35 58 31 4 34 -8 11 -43
-15 -23 -15 -27 0 -50 20 -31 12 -48 -17 -40 -20 6 -20 5 3 -14 14 -12 32 -20
40 -18 21 3 25 51 6 67 -24 19 -19 45 17 80 31 30 31 32 13 46 -23 16 -23 16
-56 -2z"/>
<path d="M620 373 c-122 -19 -130 -22 -110 -33 9 -5 49 -3 92 3 43 6 81 7 85
3 11 -11 16 -238 5 -254 -6 -9 -15 -10 -35 -3 -15 6 -27 9 -27 8 0 -2 13 -18
28 -35 66 -74 91 -25 84 164 l-4 133 43 3 c24 2 43 8 42 13 -4 16 -99 15 -203
-2z"/>
<path d="M585 290 c-11 -5 -33 -9 -49 -9 -23 -1 -27 -4 -21 -18 4 -10 10 -27
13 -38 7 -28 15 -31 60 -27 36 4 41 8 56 45 12 32 13 43 3 49 -15 10 -36 9
-62 -2z m23 -43 c3 -24 0 -27 -27 -27 -26 0 -31 4 -31 24 0 15 7 26 18 29 28
7 37 2 40 -26z"/>
</g>
</svg>
