<?xml version="1.0" standalone="no"?>
<!DOCTYPE svg PUBLIC "-//W3C//DTD SVG 20010904//EN"
 "http://www.w3.org/TR/2001/REC-SVG-20010904/DTD/svg10.dtd">
<svg version="1.0" xmlns="http://www.w3.org/2000/svg"
 width="90.000000pt" height="92.000000pt" viewBox="0 0 90.000000 92.000000"
 preserveAspectRatio="xMidYMid meet">
<metadata>
Created by potrace 1.16, written by Peter Selinger 2001-2019
</metadata>
<g transform="translate(0.000000,92.000000) scale(0.100000,-0.100000)"
fill="#000000" stroke="none">
<path d="M255 784 c-33 -8 -91 -15 -128 -16 -57 -2 -66 -4 -60 -18 12 -25 15
-244 5 -283 -15 -53 4 -76 50 -60 45 16 167 35 179 28 12 -8 11 -148 -2 -205
-12 -53 -22 -61 -62 -49 -17 5 -33 7 -35 4 -10 -10 64 -84 82 -82 31 3 54 65
70 187 8 63 17 123 21 132 11 26 -37 52 -85 45 l-40 -5 0 38 c0 38 1 39 45 46
25 3 48 10 51 15 8 13 -38 28 -70 22 -25 -5 -27 -3 -24 23 3 25 8 30 48 37 25
5 47 11 50 14 9 9 -26 23 -57 23 -31 0 -33 2 -33 34 0 33 1 34 50 40 55 7 70
20 41 35 -22 12 -17 13 -96 -5z m-45 -84 c0 -22 -4 -40 -9 -40 -5 0 -23 -3
-40 -6 -31 -6 -31 -6 -31 37 l0 44 40 3 40 2 0 -40z m-2 -107 c-3 -25 -8 -29
-45 -34 l-43 -5 0 33 c0 33 1 33 46 33 44 0 45 -1 42 -27z m2 -97 c0 -37 -12
-46 -61 -46 -27 0 -29 2 -29 40 l0 40 45 0 c44 0 45 0 45 -34z"/>
<path d="M597 785 c-27 -7 -71 -16 -98 -20 -48 -7 -62 -18 -35 -28 7 -3 50 1
96 9 87 15 105 11 98 -22 -3 -16 -22 -22 -123 -36 -66 -9 -123 -17 -127 -17
-5 -1 -8 -5 -8 -10 0 -19 53 -21 146 -6 53 9 99 14 101 11 3 -2 2 -14 -2 -25
-7 -23 -47 -36 -137 -47 -39 -5 -58 -11 -58 -20 0 -17 17 -17 148 -2 95 11
116 18 93 32 -13 8 -2 48 17 64 9 6 37 12 64 12 26 0 48 4 48 10 0 15 -35 30
-70 30 -28 0 -30 2 -24 26 13 49 -37 64 -129 39z"/>
<path d="M700 530 c-19 -5 -84 -17 -143 -26 -92 -14 -110 -15 -117 -3 -11 17
-12 16 -34 -53 -19 -57 -16 -93 7 -86 6 2 18 25 26 49 l13 45 138 18 c76 10
143 17 149 15 7 -3 6 -13 -4 -32 -8 -16 -11 -27 -7 -25 4 2 31 12 60 23 56 21
59 29 21 56 -32 24 -66 29 -109 19z"/>
<path d="M590 409 c-36 -10 -80 -18 -97 -18 -39 -1 -42 -13 -10 -38 28 -23 87
-98 87 -111 0 -26 -104 -96 -189 -127 l-36 -14 32 0 c43 -1 131 33 182 70 l42
30 58 -62 c59 -61 60 -62 103 -55 63 10 118 26 118 34 0 4 -33 18 -73 30 -41
13 -97 39 -125 58 l-52 35 30 59 c16 32 34 61 40 65 5 3 10 14 10 25 0 31 -46
38 -120 19z m36 -54 c-3 -13 -11 -37 -17 -52 l-10 -28 -36 38 c-19 21 -32 41
-29 44 5 6 62 20 85 22 9 1 11 -6 7 -24z"/>
<path d="M226 368 c30 -52 47 -68 59 -58 19 16 6 50 -22 61 -33 12 -46 11 -37
-3z"/>
<path d="M150 354 c0 -17 43 -74 56 -74 23 0 17 47 -8 64 -23 16 -48 21 -48
10z"/>
<path d="M12 325 c-15 -32 -16 -125 -2 -125 24 0 41 108 22 138 -6 9 -12 5
-20 -13z"/>
<path d="M70 340 c0 -23 42 -91 53 -87 25 8 19 54 -9 76 -29 23 -44 27 -44 11z"/>
</g>
</svg>
