<?xml version="1.0" standalone="no"?>
<!DOCTYPE svg PUBLIC "-//W3C//DTD SVG 20010904//EN"
 "http://www.w3.org/TR/2001/REC-SVG-20010904/DTD/svg10.dtd">
<svg version="1.0" xmlns="http://www.w3.org/2000/svg"
 width="96.000000pt" height="68.000000pt" viewBox="0 0 96.000000 68.000000"
 preserveAspectRatio="xMidYMid meet">
<metadata>
Created by potrace 1.16, written by Peter Selinger 2001-2019
</metadata>
<g transform="translate(0.000000,68.000000) scale(0.100000,-0.100000)"
fill="#000000" stroke="none">
<path d="M432 608 c3 -21 -2 -24 -69 -32 -40 -5 -73 -12 -73 -16 0 -14 47 -20
95 -13 43 5 47 4 43 -13 -3 -16 -12 -19 -51 -17 -40 1 -47 -1 -43 -15 3 -10 6
-48 8 -87 l3 -69 -55 -3 c-30 -2 -66 -6 -80 -9 -23 -6 -24 -7 -5 -14 11 -5 32
-9 48 -9 17 -1 27 -6 27 -16 0 -19 -40 -35 -86 -35 -19 0 -34 -4 -34 -10 0 -5
25 -10 55 -10 40 0 55 -4 55 -14 0 -19 -24 -27 -62 -19 l-31 6 8 -64 c15 -117
16 -114 -33 -117 -23 -2 -42 -8 -42 -14 0 -7 32 -8 98 -4 53 3 214 8 357 12
143 3 264 8 269 11 15 10 -19 23 -61 23 -24 0 -43 3 -43 8 0 17 19 118 25 133
9 24 -36 40 -77 28 -18 -5 -34 -9 -35 -9 -2 0 -3 9 -3 20 0 17 7 20 48 20 54
0 88 15 59 26 -9 3 -32 3 -51 0 -30 -6 -34 -4 -38 19 -6 31 -2 35 40 35 30 0
33 2 21 16 -9 11 -29 15 -78 13 -38 -1 -66 2 -68 8 -2 6 2 40 10 77 8 37 11
69 7 71 -17 10 -63 13 -91 5 -26 -8 -30 -6 -27 8 3 14 17 18 78 20 41 2 79 7
84 12 15 15 -33 31 -82 28 -34 -2 -52 2 -64 15 -27 26 -60 23 -56 -5z m106
-110 c-2 -6 -28 -13 -58 -16 -29 -2 -62 -8 -74 -13 -14 -6 4 -8 57 -4 47 4 77
2 77 -4 0 -15 -10 -18 -86 -26 l-71 -7 -5 31 c-4 26 -1 32 16 36 80 17 149 19
144 3z m-3 -77 c8 -14 -4 -18 -82 -26 -60 -6 -73 -4 -73 7 0 10 15 15 52 17
29 1 55 4 57 7 8 8 40 4 46 -5z m-3 -46 c1 -11 -58 -24 -114 -24 -27 -1 -38 3
-38 14 0 10 17 15 68 17 83 5 83 5 84 -7z m71 -62 c7 -38 2 -43 -48 -43 -24 0
-47 -4 -50 -10 -4 -6 13 -10 45 -10 44 0 51 -3 48 -17 -2 -13 -15 -19 -44 -21
l-40 -3 7 -52 c4 -29 8 -67 8 -86 l1 -34 -66 6 c-37 4 -69 9 -72 12 -3 2 0 37
5 77 12 84 10 88 -59 88 -67 0 -54 26 18 35 70 8 80 25 15 25 -39 0 -51 4 -51
15 0 8 -5 15 -12 15 -6 0 -8 3 -4 7 6 6 73 12 262 21 27 2 32 -2 37 -25z
m-243 -142 l0 -39 -66 -7 c-36 -4 -68 -4 -71 -2 -13 14 12 27 50 28 23 0 51 5
62 10 13 6 -4 7 -49 3 -56 -5 -68 -4 -64 7 3 8 27 19 54 26 81 19 84 18 84
-26z m340 25 c0 -14 -49 -26 -108 -26 -47 0 -36 23 14 31 70 11 94 10 94 -5z
m0 -45 c0 -9 -19 -14 -97 -26 -35 -6 -43 -4 -43 9 0 10 12 16 38 19 73 7 102
7 102 -2z m-342 -56 c-3 -4 -31 -9 -62 -12 -31 -3 -56 -10 -56 -15 0 -5 26 -6
60 -2 53 6 60 5 54 -10 -5 -12 -20 -16 -65 -16 -52 0 -59 2 -60 20 -1 11 -2
25 -3 31 -1 7 21 13 54 16 30 2 57 6 59 9 3 2 9 0 15 -6 5 -5 7 -12 4 -15z
m342 16 c0 -15 -10 -18 -77 -26 -53 -6 -63 -5 -63 8 0 12 13 17 53 20 28 2 60
4 70 5 9 1 17 -2 17 -7z m0 -46 c0 -12 -14 -15 -70 -15 -81 0 -95 17 -17 23
28 2 60 4 70 5 9 1 17 -5 17 -13z"/>
</g>
</svg>
