<?xml version="1.0" standalone="no"?>
<!DOCTYPE svg PUBLIC "-//W3C//DTD SVG 20010904//EN"
 "http://www.w3.org/TR/2001/REC-SVG-20010904/DTD/svg10.dtd">
<svg version="1.0" xmlns="http://www.w3.org/2000/svg"
 width="96.000000pt" height="68.000000pt" viewBox="0 0 96.000000 68.000000"
 preserveAspectRatio="xMidYMid meet">
<metadata>
Created by potrace 1.16, written by Peter Selinger 2001-2019
</metadata>
<g transform="translate(0.000000,68.000000) scale(0.100000,-0.100000)"
fill="#000000" stroke="none">
<path d="M547 173 c-4 -3 -7 -28 -7 -55 0 -44 -2 -48 -24 -48 -21 0 -24 6 -30
50 -5 35 -11 50 -22 50 -12 0 -13 -8 -8 -35 13 -69 16 -66 -71 -70 -114 -7
-150 -14 -137 -27 8 -8 51 -8 159 0 82 7 210 12 286 12 137 0 167 8 104 29
-24 8 -62 8 -136 1 -57 -6 -105 -9 -107 -7 -2 2 3 20 11 40 8 20 15 43 15 52
0 15 -21 21 -33 8z"/>
</g>
</svg>
