<?xml version="1.0" standalone="no"?>
<!DOCTYPE svg PUBLIC "-//W3C//DTD SVG 20010904//EN"
 "http://www.w3.org/TR/2001/REC-SVG-20010904/DTD/svg10.dtd">
<svg version="1.0" xmlns="http://www.w3.org/2000/svg"
 width="96.000000pt" height="68.000000pt" viewBox="0 0 96.000000 68.000000"
 preserveAspectRatio="xMidYMid meet">
<metadata>
Created by potrace 1.16, written by Peter Selinger 2001-2019
</metadata>
<g transform="translate(0.000000,68.000000) scale(0.100000,-0.100000)"
fill="#000000" stroke="none">
<path d="M478 515 l5 -65 -42 0 c-22 0 -41 -4 -41 -10 0 -5 20 -10 45 -10 43
0 45 -1 45 -29 l0 -29 -90 -7 c-57 -5 -88 -11 -84 -17 4 -7 34 -8 80 -4 44 4
74 3 74 -3 0 -13 -65 -68 -89 -76 -24 -7 -28 -33 -7 -41 7 -3 59 6 114 20 117
30 135 31 152 11 17 -21 40 -19 40 4 0 21 -56 61 -85 61 -14 0 -15 -3 -5 -15
14 -17 13 -18 -74 -34 -75 -14 -88 -5 -37 26 31 18 40 29 36 42 -5 16 6 19
116 24 67 3 124 9 127 12 16 16 -28 25 -88 18 -36 -4 -83 -8 -105 -8 -34 0
-39 3 -38 23 2 40 3 43 13 37 15 -9 100 6 100 17 0 6 -23 8 -55 6 l-55 -3 0
51 c0 45 -3 52 -22 58 -13 3 -26 6 -29 6 -4 0 -4 -29 -1 -65z"/>
<path d="M180 491 c0 -14 75 -71 93 -71 18 0 29 24 21 45 -9 23 -114 47 -114
26z"/>
<path d="M120 363 c0 -17 55 -62 80 -65 19 -2 26 2 28 18 2 11 -3 26 -11 32
-17 15 -97 27 -97 15z"/>
<path d="M231 218 c-23 -28 -59 -64 -81 -81 -22 -16 -40 -35 -40 -43 0 -21 30
-64 44 -64 7 0 26 26 42 57 16 31 44 82 62 112 17 30 32 58 32 63 0 20 -21 4
-59 -44z"/>
<path d="M505 193 c-66 -7 -137 -12 -158 -11 -29 3 -35 1 -24 -7 17 -12 41
-91 33 -110 -3 -8 -18 -11 -43 -8 -21 2 -49 0 -63 -5 -25 -10 -24 -10 10 -17
20 -3 91 -2 159 3 67 6 184 11 259 11 75 1 141 6 145 10 15 15 -63 34 -109 27
-51 -7 -55 2 -23 54 l21 34 -22 18 c-25 21 -24 21 -185 1z m33 -65 c-3 -45 -6
-53 -24 -56 -18 -3 -22 3 -28 44 -7 55 -3 64 30 64 24 0 25 -2 22 -52z m102
23 c0 -55 -16 -81 -51 -81 -29 0 -31 2 -25 28 4 15 10 39 13 55 4 22 11 27 34
27 25 0 29 -4 29 -29z m-183 -28 c13 -53 7 -63 -35 -60 -21 2 -27 10 -37 49
-13 51 -16 47 51 57 6 0 16 -20 21 -46z"/>
</g>
</svg>
