<?xml version="1.0" standalone="no"?>
<!DOCTYPE svg PUBLIC "-//W3C//DTD SVG 20010904//EN"
 "http://www.w3.org/TR/2001/REC-SVG-20010904/DTD/svg10.dtd">
<svg version="1.0" xmlns="http://www.w3.org/2000/svg"
 width="90.000000pt" height="92.000000pt" viewBox="0 0 90.000000 92.000000"
 preserveAspectRatio="xMidYMid meet">
<metadata>
Created by potrace 1.16, written by Peter Selinger 2001-2019
</metadata>
<g transform="translate(0.000000,92.000000) scale(0.100000,-0.100000)"
fill="#000000" stroke="none">
<path d="M225 805 c-9 -66 -96 -232 -166 -320 -32 -41 -59 -77 -59 -80 0 -18
31 5 97 73 l76 77 -5 -145 c-3 -80 -11 -166 -18 -191 -10 -38 -9 -52 4 -82 16
-40 30 -47 41 -19 4 9 11 107 15 217 7 184 6 202 -11 226 -15 22 -16 30 -5 45
7 11 34 61 61 111 47 90 48 93 30 113 -31 35 -52 26 -60 -25z"/>
<path d="M595 780 c-11 -4 -63 -16 -115 -25 -130 -24 -129 -23 -105 -42 15
-11 36 -13 89 -9 98 9 206 35 206 50 0 10 -43 39 -53 35 -1 0 -11 -4 -22 -9z"/>
<path d="M650 630 c-19 -5 -102 -18 -185 -30 -82 -11 -161 -23 -175 -26 -25
-6 -25 -6 -5 -21 16 -11 35 -13 89 -8 l69 7 -6 -58 c-3 -31 -10 -61 -16 -67
-6 -6 -51 -13 -101 -16 -50 -3 -91 -10 -93 -16 -1 -5 11 -16 27 -23 23 -12 39
-12 87 -2 33 7 62 11 64 8 3 -2 -4 -22 -15 -43 -11 -22 -20 -45 -20 -51 0 -7
24 -20 53 -28 28 -9 57 -19 64 -24 17 -11 -77 -71 -144 -92 -29 -9 -50 -19
-47 -23 22 -22 164 15 219 58 l35 26 64 -46 c35 -25 69 -52 76 -60 7 -8 23
-15 36 -15 20 0 24 5 24 28 0 32 -54 89 -110 117 -19 10 -36 19 -38 20 -2 2
14 40 35 85 l38 82 75 -5 c92 -7 117 4 80 34 -22 19 -33 21 -95 15 -55 -5 -75
-3 -90 8 -27 21 -45 20 -45 -3 0 -19 -34 -31 -91 -31 -35 0 -35 2 -7 58 20 42
20 46 4 58 -9 6 -14 14 -9 17 4 3 71 11 148 17 77 7 142 14 145 17 3 3 -6 13
-19 24 -24 20 -62 23 -121 9z m-56 -252 c-10 -35 -43 -96 -54 -103 -14 -8
-120 16 -120 27 0 21 41 87 57 91 10 3 42 5 71 6 51 1 53 0 46 -21z"/>
</g>
</svg>
