<?xml version="1.0" standalone="no"?>
<!DOCTYPE svg PUBLIC "-//W3C//DTD SVG 20010904//EN"
 "http://www.w3.org/TR/2001/REC-SVG-20010904/DTD/svg10.dtd">
<svg version="1.0" xmlns="http://www.w3.org/2000/svg"
 width="90.000000pt" height="92.000000pt" viewBox="0 0 90.000000 92.000000"
 preserveAspectRatio="xMidYMid meet">
<metadata>
Created by potrace 1.16, written by Peter Selinger 2001-2019
</metadata>
<g transform="translate(0.000000,92.000000) scale(0.100000,-0.100000)"
fill="#000000" stroke="none">
<path d="M485 819 c-49 -11 -130 -20 -178 -20 l-89 -1 9 -27 c21 -70 -10 -265
-61 -378 -30 -64 -84 -146 -126 -191 -38 -40 -26 -41 26 -4 92 67 155 175 194
330 l21 89 179 18 c179 18 179 19 174 41 -4 15 3 40 20 70 14 26 26 49 26 53
0 13 -58 41 -82 40 -12 -1 -63 -10 -113 -20z m105 -48 c0 -24 -20 -81 -28 -81
-4 0 -45 -6 -92 -14 -47 -8 -107 -17 -134 -20 l-49 -6 6 51 c4 29 8 53 10 55
7 8 176 32 230 33 49 1 57 -2 57 -18z"/>
<path d="M530 584 c-30 -7 -94 -18 -142 -25 -112 -15 -116 -33 -10 -41 l34 -3
-31 -42 c-17 -23 -49 -52 -71 -63 -45 -23 -43 -20 -30 -55 7 -19 15 -26 28
-22 106 34 122 36 132 17 16 -30 12 -68 -7 -74 -10 -2 -44 -7 -76 -11 -50 -6
-56 -9 -46 -22 10 -11 29 -14 75 -11 l62 3 4 -41 3 -42 -50 -6 c-27 -3 -89 -9
-137 -12 -91 -7 -108 -17 -60 -35 19 -8 55 -8 130 0 56 7 186 15 287 18 194 6
212 12 144 45 -27 13 -45 15 -89 8 -30 -4 -84 -11 -119 -14 l-64 -6 7 42 c4
23 9 44 11 46 2 3 32 10 66 16 34 6 64 16 66 22 6 19 -43 34 -79 23 -55 -15
-61 -13 -54 25 5 27 3 37 -10 44 -21 12 -13 16 65 32 l63 13 25 -31 c28 -37
49 -41 58 -12 9 30 -24 78 -70 100 -57 27 -69 26 -49 -5 13 -20 14 -26 3 -29
-21 -8 -166 -26 -202 -26 -32 0 -32 0 21 36 52 34 53 36 38 58 -15 23 -14 23
41 30 71 8 143 26 143 36 0 6 -47 32 -53 29 -1 -1 -27 -7 -57 -15z"/>
</g>
</svg>
