<?xml version="1.0" standalone="no"?>
<!DOCTYPE svg PUBLIC "-//W3C//DTD SVG 20010904//EN"
 "http://www.w3.org/TR/2001/REC-SVG-20010904/DTD/svg10.dtd">
<svg version="1.0" xmlns="http://www.w3.org/2000/svg"
 width="96.000000pt" height="68.000000pt" viewBox="0 0 96.000000 68.000000"
 preserveAspectRatio="xMidYMid meet">
<metadata>
Created by potrace 1.16, written by Peter Selinger 2001-2019
</metadata>
<g transform="translate(0.000000,68.000000) scale(0.100000,-0.100000)"
fill="#000000" stroke="none">
<path d="M270 550 l0 -50 -37 -1 c-21 -1 -49 -4 -63 -8 l-25 -7 23 -8 c13 -4
40 -5 59 -1 36 6 36 6 30 -24 -6 -26 -3 -31 14 -31 14 0 21 9 25 30 7 31 13
35 82 45 41 7 55 19 30 27 -7 3 -30 1 -51 -3 -41 -7 -42 -5 -23 42 6 12 -1 19
-25 28 -18 6 -34 11 -35 11 -2 0 -4 -22 -4 -50z"/>
</g>
</svg>
