<?xml version="1.0" standalone="no"?>
<!DOCTYPE svg PUBLIC "-//W3C//DTD SVG 20010904//EN"
 "http://www.w3.org/TR/2001/REC-SVG-20010904/DTD/svg10.dtd">
<svg version="1.0" xmlns="http://www.w3.org/2000/svg"
 width="96.000000pt" height="68.000000pt" viewBox="0 0 96.000000 68.000000"
 preserveAspectRatio="xMidYMid meet">
<metadata>
Created by potrace 1.16, written by Peter Selinger 2001-2019
</metadata>
<g transform="translate(0.000000,68.000000) scale(0.100000,-0.100000)"
fill="#000000" stroke="none">
<path d="M319 573 c-18 -47 -63 -112 -79 -113 -12 0 -14 -15 -11 -85 l3 -85
-56 0 c-31 0 -56 -4 -56 -10 0 -16 37 -30 72 -28 48 4 47 -23 -1 -117 -32 -61
-36 -74 -19 -59 62 53 71 71 92 175 3 14 11 26 18 26 7 0 36 3 63 7 l50 7 -3
-90 c-4 -102 -13 -118 -58 -101 l-29 11 34 -35 c65 -67 84 -43 91 113 5 113 6
115 30 122 l25 6 -25 4 c-24 4 -25 7 -25 79 l0 75 -35 -1 c-47 -1 -91 -11
-104 -24 -12 -12 14 -13 64 -1 l35 8 -3 -72 -3 -73 -37 -6 c-80 -13 -82 -12
-82 48 0 75 9 94 77 159 56 55 57 58 39 72 -30 23 -55 18 -67 -12z"/>
<path d="M608 553 c4 -21 7 -69 7 -108 l0 -70 -55 -3 -56 -3 4 -69 c3 -44 -2
-95 -13 -139 -16 -67 -14 -111 5 -111 15 0 40 57 40 92 0 18 4 38 8 44 4 5 44
11 90 13 l82 3 0 -62 0 -63 -42 6 -43 6 43 -39 c38 -34 46 -38 63 -27 29 18
32 38 33 204 1 147 1 152 -21 162 -12 5 -38 7 -58 4 l-36 -6 7 93 c6 99 2 110
-43 110 -20 0 -21 -3 -15 -37z m112 -216 c0 -22 -6 -24 -81 -33 -44 -5 -83 -6
-85 -2 -3 5 -3 17 1 27 6 21 30 26 118 29 43 2 47 0 47 -21z m6 -85 c-5 -15
-19 -21 -68 -26 -101 -10 -108 -9 -108 18 0 23 5 25 68 31 37 3 74 7 82 9 22
4 33 -9 26 -32z"/>
<path d="M760 520 c0 -6 -12 -29 -26 -51 l-26 -41 42 23 c50 28 64 44 56 64
-6 17 -46 21 -46 5z"/>
<path d="M499 474 c31 -55 71 -74 71 -35 0 23 -16 37 -54 47 -26 6 -27 5 -17
-12z"/>
<path d="M300 387 c0 -19 39 -59 51 -52 16 10 10 33 -13 49 -27 19 -38 20 -38
3z"/>
<path d="M306 228 c13 -23 37 -48 46 -48 16 0 8 40 -11 50 -27 14 -44 13 -35
-2z"/>
</g>
</svg>
