<?xml version="1.0" standalone="no"?>
<!DOCTYPE svg PUBLIC "-//W3C//DTD SVG 20010904//EN"
 "http://www.w3.org/TR/2001/REC-SVG-20010904/DTD/svg10.dtd">
<svg version="1.0" xmlns="http://www.w3.org/2000/svg"
 width="96.000000pt" height="68.000000pt" viewBox="0 0 96.000000 68.000000"
 preserveAspectRatio="xMidYMid meet">
<metadata>
Created by potrace 1.16, written by Peter Selinger 2001-2019
</metadata>
<g transform="translate(0.000000,68.000000) scale(0.100000,-0.100000)"
fill="#000000" stroke="none">
<path d="M791 186 c-6 -15 -11 -32 -11 -37 0 -5 -15 -18 -32 -29 -26 -16 -51
-20 -114 -20 -101 0 -138 12 -154 51 -14 32 -40 40 -40 12 0 -39 38 -82 82
-94 90 -24 300 1 321 38 2 5 -6 30 -19 58 l-23 49 -10 -28z"/>
</g>
</svg>
