<?xml version="1.0" standalone="no"?>
<!DOCTYPE svg PUBLIC "-//W3C//DTD SVG 20010904//EN"
 "http://www.w3.org/TR/2001/REC-SVG-20010904/DTD/svg10.dtd">
<svg version="1.0" xmlns="http://www.w3.org/2000/svg"
 width="90.000000pt" height="92.000000pt" viewBox="0 0 90.000000 92.000000"
 preserveAspectRatio="xMidYMid meet">
<metadata>
Created by potrace 1.16, written by Peter Selinger 2001-2019
</metadata>
<g transform="translate(0.000000,92.000000) scale(0.100000,-0.100000)"
fill="#000000" stroke="none">
<path d="M660 872 c0 -20 -60 -81 -133 -136 -27 -20 -42 -36 -34 -36 29 0 134
63 247 148 3 2 -6 12 -19 23 -30 24 -61 25 -61 1z"/>
<path d="M330 859 c-40 -10 -82 -15 -108 -12 -42 6 -42 5 -33 -19 5 -13 12
-70 16 -125 l7 -101 -64 -11 c-36 -6 -74 -11 -86 -11 -32 0 -36 -18 -7 -32 20
-9 40 -9 87 1 33 7 62 10 65 7 8 -7 -24 -55 -55 -81 -21 -18 -23 -24 -13 -43
7 -13 17 -20 24 -15 6 4 59 21 117 39 l105 32 23 -21 c16 -15 25 -18 33 -10
21 21 1 62 -41 83 -53 27 -66 26 -46 -5 9 -13 16 -26 16 -28 0 -7 -140 -30
-145 -25 -3 3 6 19 20 36 17 21 22 33 14 38 -20 12 10 22 113 35 64 8 98 17
98 24 0 21 -41 25 -119 10 -99 -19 -101 -19 -101 9 0 22 5 24 74 31 79 7 126
28 94 40 -15 6 -67 -2 -145 -21 -20 -5 -23 -2 -23 23 0 30 1 30 69 37 74 6
101 13 101 26 0 16 -29 18 -86 4 -79 -18 -84 -18 -84 10 0 22 6 24 74 35 86
12 133 28 120 40 -18 17 -51 18 -114 0z"/>
<path d="M670 741 c0 -21 -71 -91 -143 -140 -27 -18 -46 -35 -43 -38 8 -9 130
54 180 92 24 18 53 38 65 44 30 17 26 30 -14 47 -44 18 -45 18 -45 -5z"/>
<path d="M697 601 c-5 -22 -66 -68 -155 -118 -66 -38 -49 -43 35 -12 69 26
203 97 203 109 0 12 -23 28 -51 35 -21 5 -27 2 -32 -14z"/>
<path d="M478 293 c3 -156 12 -187 56 -210 71 -37 247 -22 289 25 15 16 14 22
-7 81 l-23 64 -11 -44 c-16 -63 -31 -78 -87 -88 -50 -9 -139 -2 -163 12 -8 5
-12 33 -12 76 l0 68 68 6 c78 7 142 24 142 37 0 5 -9 14 -21 20 -16 9 -35 7
-87 -10 -37 -12 -73 -24 -81 -26 -11 -4 -12 5 -7 45 6 44 4 51 -16 65 -12 9
-27 16 -33 16 -6 0 -9 -48 -7 -137z"/>
<path d="M256 411 c-3 -4 -1 -25 4 -47 15 -61 13 -224 -2 -224 -7 0 -23 -3
-36 -6 -23 -7 -23 -6 -21 82 2 85 1 90 -22 101 -33 17 -39 6 -29 -52 5 -27 11
-71 14 -97 l6 -48 -55 0 c-30 0 -55 -4 -55 -8 0 -5 13 -21 29 -36 l29 -28 64
25 c34 14 104 37 153 52 91 28 140 55 100 55 -11 0 -44 -7 -72 -14 l-53 -14 0
61 0 62 61 1 c68 2 89 13 64 34 -13 11 -25 11 -61 2 -65 -18 -66 -17 -62 40 3
48 2 52 -24 59 -16 4 -30 4 -32 0z"/>
</g>
</svg>
