<?xml version="1.0" standalone="no"?>
<!DOCTYPE svg PUBLIC "-//W3C//DTD SVG 20010904//EN"
 "http://www.w3.org/TR/2001/REC-SVG-20010904/DTD/svg10.dtd">
<svg version="1.0" xmlns="http://www.w3.org/2000/svg"
 width="96.000000pt" height="68.000000pt" viewBox="0 0 96.000000 68.000000"
 preserveAspectRatio="xMidYMid meet">
<metadata>
Created by potrace 1.16, written by Peter Selinger 2001-2019
</metadata>
<g transform="translate(0.000000,68.000000) scale(0.100000,-0.100000)"
fill="#000000" stroke="none">
<path d="M368 586 c-31 -7 -70 -11 -88 -8 l-31 4 7 -58 c5 -33 8 -75 8 -94 1
-32 -2 -35 -29 -38 -78 -6 -115 -14 -115 -24 0 -7 24 -9 75 -5 85 8 92 1 45
-43 -31 -29 -39 -50 -17 -50 7 0 55 11 107 24 58 15 99 21 104 15 15 -14 46
-11 46 5 0 17 -17 32 -54 45 -25 10 -27 9 -21 -8 6 -20 0 -23 -97 -45 -33 -7
-36 4 -9 28 11 10 17 24 15 31 -6 14 18 20 124 31 34 4 62 11 62 17 0 9 -61 7
-165 -6 -11 -1 -21 5 -23 16 -3 14 5 17 50 18 63 1 99 10 98 24 -1 12 -48 12
-107 1 -35 -6 -43 -5 -43 7 0 16 29 27 75 27 39 0 75 10 75 20 0 15 -34 16
-92 4 -53 -10 -58 -10 -58 6 0 14 13 18 76 23 80 6 111 20 84 37 -18 12 -30
11 -102 -4z"/>
<path d="M664 575 c-10 -15 -48 -44 -84 -66 -84 -52 -40 -40 68 18 80 43 97
65 55 71 -12 2 -27 -7 -39 -23z"/>
<path d="M653 466 c-24 -23 -61 -51 -83 -62 -43 -21 -55 -39 -15 -24 57 22
185 95 185 106 0 11 -22 25 -38 24 -4 -1 -26 -20 -49 -44z"/>
<path d="M687 382 c-15 -16 -54 -41 -87 -57 -33 -16 -58 -30 -56 -32 3 -4 211
73 230 84 9 6 -31 32 -50 33 -5 0 -22 -13 -37 -28z"/>
<path d="M509 263 c0 -5 0 -50 1 -102 1 -89 3 -96 27 -117 41 -35 117 -44 213
-23 68 15 83 30 64 67 -7 15 -14 33 -14 40 0 24 -19 11 -25 -18 -10 -46 -39
-60 -121 -60 -95 0 -118 17 -108 78 6 39 9 42 38 42 17 0 47 4 66 9 19 5 47
12 63 15 33 8 35 19 5 33 -18 8 -31 6 -63 -12 -22 -12 -52 -26 -67 -29 -27 -6
-28 -5 -28 33 0 26 -5 41 -16 45 -21 8 -34 8 -35 -1z"/>
<path d="M315 228 c2 -18 7 -61 9 -94 5 -60 5 -62 -20 -68 -38 -10 -44 0 -44
70 0 62 -1 64 -26 64 -19 0 -25 -4 -21 -14 3 -8 9 -42 13 -75 l7 -61 -49 0
-49 -1 25 -20 c14 -12 32 -18 45 -15 11 3 77 19 148 37 70 18 127 35 127 40 0
4 -17 3 -37 -2 -74 -17 -83 -13 -83 30 l0 39 60 7 c33 4 60 10 60 15 0 13 -41
19 -67 9 -45 -17 -53 -12 -53 31 0 36 -3 40 -24 40 -22 0 -24 -4 -21 -32z"/>
</g>
</svg>
