<?xml version="1.0" standalone="no"?>
<!DOCTYPE svg PUBLIC "-//W3C//DTD SVG 20010904//EN"
 "http://www.w3.org/TR/2001/REC-SVG-20010904/DTD/svg10.dtd">
<svg version="1.0" xmlns="http://www.w3.org/2000/svg"
 width="96.000000pt" height="68.000000pt" viewBox="0 0 96.000000 68.000000"
 preserveAspectRatio="xMidYMid meet">
<metadata>
Created by potrace 1.16, written by Peter Selinger 2001-2019
</metadata>
<g transform="translate(0.000000,68.000000) scale(0.100000,-0.100000)"
fill="#000000" stroke="none">
<path d="M380 583 c-36 -8 -80 -11 -98 -8 -29 5 -33 4 -29 -12 3 -10 8 -38 12
-63 11 -84 17 -100 31 -100 8 0 14 8 14 19 0 16 11 20 68 26 73 8 90 14 72 25
-6 4 -41 2 -76 -5 -63 -12 -64 -12 -64 10 0 20 6 23 66 28 36 2 71 10 77 17
10 10 1 11 -42 6 -30 -4 -67 -10 -82 -13 -25 -5 -29 -2 -29 16 0 16 6 21 27
21 43 0 153 21 153 30 0 15 -36 16 -100 3z"/>
</g>
</svg>
