<?xml version="1.0" standalone="no"?>
<!DOCTYPE svg PUBLIC "-//W3C//DTD SVG 20010904//EN"
 "http://www.w3.org/TR/2001/REC-SVG-20010904/DTD/svg10.dtd">
<svg version="1.0" xmlns="http://www.w3.org/2000/svg"
 width="96.000000pt" height="68.000000pt" viewBox="0 0 96.000000 68.000000"
 preserveAspectRatio="xMidYMid meet">
<metadata>
Created by potrace 1.16, written by Peter Selinger 2001-2019
</metadata>
<g transform="translate(0.000000,68.000000) scale(0.100000,-0.100000)"
fill="#000000" stroke="none">
<path d="M530 581 c0 -5 5 -13 10 -16 6 -3 10 -37 10 -75 0 -74 -5 -80 -62
-80 -29 0 -30 1 -23 39 5 33 3 41 -14 50 -29 16 -31 14 -31 -23 0 -19 -5 -47
-10 -62 -8 -21 -8 -31 4 -42 12 -13 20 -12 58 2 23 8 81 22 127 31 77 14 85
14 96 -1 18 -26 32 -10 46 52 11 47 10 57 -2 65 -29 18 -39 10 -39 -35 0 -49
-8 -56 -72 -56 l-40 0 3 78 4 77 -32 3 c-18 2 -33 -1 -33 -7z"/>
</g>
</svg>
