<?xml version="1.0" standalone="no"?>
<!DOCTYPE svg PUBLIC "-//W3C//DTD SVG 20010904//EN"
 "http://www.w3.org/TR/2001/REC-SVG-20010904/DTD/svg10.dtd">
<svg version="1.0" xmlns="http://www.w3.org/2000/svg"
 width="96.000000pt" height="68.000000pt" viewBox="0 0 96.000000 68.000000"
 preserveAspectRatio="xMidYMid meet">
<metadata>
Created by potrace 1.16, written by Peter Selinger 2001-2019
</metadata>
<g transform="translate(0.000000,68.000000) scale(0.100000,-0.100000)"
fill="#000000" stroke="none">
<path d="M625 570 c4 -11 3 -50 0 -85 -7 -63 -8 -65 -36 -65 -29 0 -29 0 -29
65 0 62 -1 65 -24 65 -23 0 -23 -2 -18 -70 4 -66 4 -70 -17 -70 -11 0 -21 -4
-21 -10 0 -5 9 -10 21 -10 12 0 23 -8 26 -20 7 -26 23 -26 30 0 6 21 36 35 54
25 6 -4 8 -13 5 -21 -6 -16 -4 -17 18 -8 9 3 16 12 16 20 0 8 10 14 23 14 12
0 29 5 37 10 12 7 8 11 -17 16 -38 7 -38 10 -19 84 14 50 13 56 -1 68 -9 6
-25 12 -36 12 -14 0 -17 -5 -12 -20z"/>
</g>
</svg>
