<?xml version="1.0" standalone="no"?>
<!DOCTYPE svg PUBLIC "-//W3C//DTD SVG 20010904//EN"
 "http://www.w3.org/TR/2001/REC-SVG-20010904/DTD/svg10.dtd">
<svg version="1.0" xmlns="http://www.w3.org/2000/svg"
 width="96.000000pt" height="68.000000pt" viewBox="0 0 96.000000 68.000000"
 preserveAspectRatio="xMidYMid meet">
<metadata>
Created by potrace 1.16, written by Peter Selinger 2001-2019
</metadata>
<g transform="translate(0.000000,68.000000) scale(0.100000,-0.100000)"
fill="#000000" stroke="none">
<path d="M578 522 c5 -92 -1 -99 -73 -104 l-50 -3 -3 68 -3 67 -31 0 c-23 0
-29 -4 -24 -16 3 -9 9 -40 12 -69 l7 -54 -37 -6 c-48 -9 -46 -25 3 -25 l38 0
6 -52 c4 -28 5 -53 4 -55 -2 -1 -36 -6 -75 -9 -40 -4 -72 -10 -72 -14 0 -16
54 -20 133 -10 45 5 152 15 237 20 85 6 156 13 159 16 10 9 -16 25 -45 26 -16
1 -60 -2 -98 -6 l-69 -8 7 39 c14 77 11 75 89 88 20 3 37 10 37 14 0 15 -27
20 -64 14 -32 -5 -36 -3 -36 16 0 12 5 43 12 68 10 41 9 47 -7 59 -11 8 -28
14 -39 14 -20 0 -21 -5 -18 -78z m-13 -179 c-4 -32 -8 -59 -8 -59 -1 -1 -22
-4 -47 -5 l-45 -4 -3 57 -3 57 48 4 c26 2 52 4 57 5 4 1 5 -24 1 -55z"/>
</g>
</svg>
