<?xml version="1.0" standalone="no"?>
<!DOCTYPE svg PUBLIC "-//W3C//DTD SVG 20010904//EN"
 "http://www.w3.org/TR/2001/REC-SVG-20010904/DTD/svg10.dtd">
<svg version="1.0" xmlns="http://www.w3.org/2000/svg"
 width="96.000000pt" height="68.000000pt" viewBox="0 0 96.000000 68.000000"
 preserveAspectRatio="xMidYMid meet">
<metadata>
Created by potrace 1.16, written by Peter Selinger 2001-2019
</metadata>
<g transform="translate(0.000000,68.000000) scale(0.100000,-0.100000)"
fill="#000000" stroke="none">
<path d="M310 578 c-19 -5 -59 -8 -88 -6 -58 5 -68 -1 -52 -32 15 -28 17 -297
2 -312 -19 -19 -14 -56 8 -63 14 -4 32 1 53 18 18 13 56 40 84 60 l53 37 27
-30 c33 -37 43 -38 43 -2 0 28 -18 45 -72 69 -29 13 -37 6 -16 -15 9 -9 -4
-19 -55 -42 -37 -16 -69 -30 -72 -30 -3 0 -5 32 -5 70 l0 70 53 2 c28 1 68 1
89 0 l36 -2 23 67 c12 38 28 81 36 96 14 27 13 28 -21 42 -40 17 -75 18 -126
3z m70 -53 c0 -20 -5 -25 -24 -25 -13 0 -44 -3 -70 -6 -44 -7 -46 -6 -46 19 0
22 5 26 38 30 96 10 102 9 102 -18z m-15 -82 c-4 -16 -7 -29 -8 -29 -1 -1 -30
-5 -64 -9 -59 -7 -63 -6 -63 13 0 25 8 31 62 41 76 15 81 14 73 -16z"/>
<path d="M658 495 c-3 -3 -37 -6 -76 -6 l-71 -1 5 -216 c6 -235 8 -252 26
-234 8 8 15 81 19 208 6 142 11 201 21 210 7 7 40 15 73 16 l60 3 -3 -40 c-3
-44 -20 -96 -36 -107 -6 -4 -24 -4 -41 -1 l-30 6 32 -33 c43 -44 73 -37 102
25 11 25 21 52 21 61 0 9 5 34 12 56 10 33 9 41 -3 49 -15 9 -102 13 -111 4z"/>
</g>
</svg>
