<?xml version="1.0" standalone="no"?>
<!DOCTYPE svg PUBLIC "-//W3C//DTD SVG 20010904//EN"
 "http://www.w3.org/TR/2001/REC-SVG-20010904/DTD/svg10.dtd">
<svg version="1.0" xmlns="http://www.w3.org/2000/svg"
 width="96.000000pt" height="68.000000pt" viewBox="0 0 96.000000 68.000000"
 preserveAspectRatio="xMidYMid meet">
<metadata>
Created by potrace 1.16, written by Peter Selinger 2001-2019
</metadata>
<g transform="translate(0.000000,68.000000) scale(0.100000,-0.100000)"
fill="#000000" stroke="none">
<path d="M288 565 c-3 -3 -2 -25 3 -48 15 -79 11 -117 -13 -126 -33 -13 -38
-6 -38 55 0 51 -1 54 -26 54 -19 0 -24 -4 -20 -17 2 -10 7 -37 11 -59 l6 -42
-60 -7 c-84 -10 -69 -30 15 -22 72 7 75 3 42 -52 l-23 -36 28 18 c16 11 36 15
47 12 19 -6 29 10 12 17 -5 2 -12 15 -15 29 -6 25 -4 27 33 31 46 4 52 -11 25
-62 -18 -34 -5 -41 17 -8 14 20 15 20 40 4 17 -11 28 -13 33 -7 3 6 -5 16 -19
22 -17 8 -25 19 -23 33 2 24 25 34 80 35 20 1 37 6 37 12 0 7 -23 10 -65 7
l-65 -3 0 28 c0 23 4 27 28 27 37 0 72 10 72 21 0 15 -45 21 -74 9 -29 -11
-29 -11 -23 25 5 28 2 37 -13 45 -20 11 -44 13 -52 5z"/>
<path d="M595 513 c-8 -39 -65 -151 -93 -185 -21 -25 -25 -26 -39 -13 -31 32
-38 18 -38 -77 l0 -93 -100 -12 c-55 -6 -115 -12 -132 -12 l-33 -1 0 80 c0 74
-2 81 -22 89 -30 11 -40 4 -28 -19 5 -10 10 -55 10 -99 0 -92 11 -108 64 -86
17 7 67 18 111 25 44 7 88 14 97 15 10 2 22 -4 28 -13 14 -25 28 0 35 68 9 78
16 110 24 110 14 0 89 76 120 123 l32 47 62 -77 c64 -79 80 -90 123 -79 36 9
30 20 -26 46 -52 24 -156 131 -146 149 10 16 -5 41 -25 41 -12 0 -21 -9 -24
-27z"/>
<path d="M587 310 c-53 -10 -58 -20 -10 -20 53 0 103 10 103 21 0 10 -38 10
-93 -1z"/>
<path d="M295 260 c-16 -4 -47 -8 -68 -9 -23 -1 -36 -5 -32 -11 9 -15 205 5
205 21 0 10 -61 10 -105 -1z"/>
<path d="M598 221 c-43 -9 -78 -19 -78 -23 0 -11 44 -10 95 3 63 16 68 11 43
-40 -21 -42 -22 -43 -62 -38 l-40 6 47 -45 c46 -43 87 -58 87 -31 0 8 -9 22
-20 32 l-20 18 21 23 c12 13 37 34 55 46 41 28 42 41 9 56 -30 14 -36 14 -137
-7z"/>
<path d="M337 213 c-2 -10 -8 -26 -12 -36 -7 -17 -6 -18 13 -6 17 10 23 10 36
-1 9 -7 20 -10 24 -6 4 4 -1 13 -11 20 -9 7 -17 21 -17 30 0 22 -26 21 -33 -1z"/>
<path d="M213 179 c-21 -38 -16 -41 19 -12 11 10 18 11 23 4 8 -14 35 -14 35
-1 0 6 -7 10 -15 10 -8 0 -15 6 -15 14 0 31 -27 22 -47 -15z"/>
</g>
</svg>
