<?xml version="1.0" standalone="no"?>
<!DOCTYPE svg PUBLIC "-//W3C//DTD SVG 20010904//EN"
 "http://www.w3.org/TR/2001/REC-SVG-20010904/DTD/svg10.dtd">
<svg version="1.0" xmlns="http://www.w3.org/2000/svg"
 width="96.000000pt" height="68.000000pt" viewBox="0 0 96.000000 68.000000"
 preserveAspectRatio="xMidYMid meet">
<metadata>
Created by potrace 1.16, written by Peter Selinger 2001-2019
</metadata>
<g transform="translate(0.000000,68.000000) scale(0.100000,-0.100000)"
fill="#000000" stroke="none">
<path d="M460 344 c-52 -8 -111 -13 -130 -12 l-35 3 0 -102 c0 -100 1 -103 23
-103 12 0 22 4 22 8 0 7 174 32 223 32 10 0 17 -8 17 -20 0 -15 7 -20 28 -20
l27 0 0 105 c0 99 -1 105 -23 115 -27 12 -27 12 -152 -6z m104 -20 c9 -3 16
-16 16 -29 0 -20 -6 -23 -72 -28 -40 -4 -94 -9 -120 -13 l-48 -7 0 31 c0 30 0
30 68 37 37 3 76 7 87 9 38 6 53 6 69 0z m16 -103 l0 -28 -87 -6 c-49 -4 -103
-9 -120 -13 -32 -6 -33 -5 -33 25 0 31 1 31 53 32 28 1 77 4 107 9 30 4 61 8
68 9 7 0 12 -11 12 -28z"/>
</g>
</svg>
