<?xml version="1.0" standalone="no"?>
<!DOCTYPE svg PUBLIC "-//W3C//DTD SVG 20010904//EN"
 "http://www.w3.org/TR/2001/REC-SVG-20010904/DTD/svg10.dtd">
<svg version="1.0" xmlns="http://www.w3.org/2000/svg"
 width="96.000000pt" height="68.000000pt" viewBox="0 0 96.000000 68.000000"
 preserveAspectRatio="xMidYMid meet">
<metadata>
Created by potrace 1.16, written by Peter Selinger 2001-2019
</metadata>
<g transform="translate(0.000000,68.000000) scale(0.100000,-0.100000)"
fill="#000000" stroke="none">
<path d="M485 594 c-66 -7 -155 -15 -197 -16 -80 -3 -89 -7 -64 -27 7 -6 19
-39 26 -74 13 -68 25 -97 40 -97 13 0 13 47 -1 110 -6 28 -8 54 -5 57 11 11
330 33 340 23 6 -6 5 -32 -2 -72 -19 -104 -19 -103 4 -106 18 -3 25 5 38 40 8
24 24 67 35 96 l20 54 -34 14 c-40 16 -41 16 -200 -2z"/>
<path d="M423 507 c-92 -15 -80 -31 17 -24 45 4 88 11 98 16 14 8 14 10 2 11
-8 0 -24 2 -35 4 -11 2 -48 -1 -82 -7z"/>
<path d="M428 438 c-89 -16 -72 -32 23 -23 97 8 122 15 93 26 -24 10 -44 9
-116 -3z"/>
</g>
</svg>
