<?xml version="1.0" standalone="no"?>
<!DOCTYPE svg PUBLIC "-//W3C//DTD SVG 20010904//EN"
 "http://www.w3.org/TR/2001/REC-SVG-20010904/DTD/svg10.dtd">
<svg version="1.0" xmlns="http://www.w3.org/2000/svg"
 width="96.000000pt" height="68.000000pt" viewBox="0 0 96.000000 68.000000"
 preserveAspectRatio="xMidYMid meet">
<metadata>
Created by potrace 1.16, written by Peter Selinger 2001-2019
</metadata>
<g transform="translate(0.000000,68.000000) scale(0.100000,-0.100000)"
fill="#000000" stroke="none">
<path d="M560 566 c0 -8 29 -55 47 -77 8 -9 22 -15 32 -12 22 6 17 44 -8 67
-17 16 -71 32 -71 22z"/>
<path d="M240 541 c0 -6 9 -26 21 -45 15 -25 28 -36 45 -36 31 0 33 37 4 68
-21 22 -70 31 -70 13z"/>
<path d="M685 465 c-44 -8 -105 -19 -136 -24 -30 -6 -65 -11 -77 -11 -12 0
-22 -4 -22 -10 0 -14 46 -23 80 -16 21 4 30 2 30 -7 0 -18 -38 -67 -80 -104
-28 -25 -32 -34 -23 -44 10 -10 26 -10 79 0 37 6 69 10 71 7 5 -5 -82 -89
-120 -115 -38 -27 -61 -51 -48 -51 37 0 143 78 221 164 25 28 54 59 64 69 14
15 16 24 9 36 -18 29 -41 24 -58 -13 -9 -19 -24 -41 -33 -49 -18 -16 -132 -35
-132 -21 0 4 26 31 57 60 46 43 54 55 45 67 -15 18 11 24 135 34 84 6 99 14
64 33 -23 12 -24 12 -126 -5z"/>
<path d="M238 437 c-71 -11 -128 -24 -128 -29 0 -5 11 -13 25 -20 19 -9 47 -6
132 11 59 11 120 21 136 21 15 0 27 5 27 10 0 10 -43 31 -58 29 -4 -1 -64 -10
-134 -22z"/>
<path d="M260 346 c-39 -9 -50 -14 -36 -19 21 -8 146 13 146 25 0 10 -41 8
-110 -6z"/>
<path d="M261 279 c-59 -11 -63 -19 -10 -19 60 0 119 11 119 21 0 11 -49 10
-109 -2z"/>
<path d="M711 220 c-32 -49 -103 -115 -171 -159 -33 -21 -34 -22 -7 -17 15 4
57 26 95 50 l67 45 52 -51 c50 -49 73 -55 73 -19 0 25 -37 61 -71 68 -38 7
-37 22 8 59 37 31 38 45 4 64 -15 8 -23 1 -50 -40z"/>
<path d="M305 210 c-11 -5 -44 -9 -74 -9 -46 -1 -52 -3 -41 -16 6 -8 18 -34
25 -57 10 -33 17 -42 31 -40 11 1 40 5 67 8 39 6 47 10 47 28 0 12 7 32 16 44
9 13 13 29 10 37 -6 16 -49 19 -81 5z m18 -80 c-4 -4 -22 -11 -39 -14 -29 -6
-33 -4 -42 23 -12 35 -6 42 48 51 33 5 35 4 38 -24 2 -15 0 -32 -5 -36z"/>
</g>
</svg>
