<?xml version="1.0" standalone="no"?>
<!DOCTYPE svg PUBLIC "-//W3C//DTD SVG 20010904//EN"
 "http://www.w3.org/TR/2001/REC-SVG-20010904/DTD/svg10.dtd">
<svg version="1.0" xmlns="http://www.w3.org/2000/svg"
 width="96.000000pt" height="68.000000pt" viewBox="0 0 96.000000 68.000000"
 preserveAspectRatio="xMidYMid meet">
<metadata>
Created by potrace 1.16, written by Peter Selinger 2001-2019
</metadata>
<g transform="translate(0.000000,68.000000) scale(0.100000,-0.100000)"
fill="#000000" stroke="none">
<path d="M438 601 c-139 -16 -202 -31 -126 -31 34 0 35 -1 42 -46 3 -26 6 -60
6 -75 0 -34 29 -41 37 -10 4 15 17 21 56 26 82 11 93 27 15 20 -64 -6 -68 -5
-68 14 0 18 6 21 43 22 23 1 53 5 67 10 18 6 5 8 -42 5 -60 -3 -68 -2 -68 14
0 20 36 30 109 30 25 0 70 3 100 7 48 5 52 8 36 20 -22 15 -16 15 -207 -6z"/>
</g>
</svg>
