<?xml version="1.0" standalone="no"?>
<!DOCTYPE svg PUBLIC "-//W3C//DTD SVG 20010904//EN"
 "http://www.w3.org/TR/2001/REC-SVG-20010904/DTD/svg10.dtd">
<svg version="1.0" xmlns="http://www.w3.org/2000/svg"
 width="96.000000pt" height="68.000000pt" viewBox="0 0 96.000000 68.000000"
 preserveAspectRatio="xMidYMid meet">
<metadata>
Created by potrace 1.16, written by Peter Selinger 2001-2019
</metadata>
<g transform="translate(0.000000,68.000000) scale(0.100000,-0.100000)"
fill="#000000" stroke="none">
<path d="M615 320 c-11 -5 -42 -9 -68 -9 -35 -1 -46 -4 -41 -13 4 -7 13 -34
19 -61 6 -26 14 -48 18 -49 4 0 36 3 72 7 48 5 63 10 59 20 -3 8 5 33 17 55
20 35 21 43 9 50 -18 12 -58 12 -85 0z m25 -46 c0 -44 -17 -64 -55 -64 -34 0
-35 1 -35 39 0 42 7 48 63 50 23 1 27 -3 27 -25z"/>
</g>
</svg>
