<?xml version="1.0" standalone="no"?>
<!DOCTYPE svg PUBLIC "-//W3C//DTD SVG 20010904//EN"
 "http://www.w3.org/TR/2001/REC-SVG-20010904/DTD/svg10.dtd">
<svg version="1.0" xmlns="http://www.w3.org/2000/svg"
 width="96.000000pt" height="68.000000pt" viewBox="0 0 96.000000 68.000000"
 preserveAspectRatio="xMidYMid meet">
<metadata>
Created by potrace 1.16, written by Peter Selinger 2001-2019
</metadata>
<g transform="translate(0.000000,68.000000) scale(0.100000,-0.100000)"
fill="#000000" stroke="none">
<path d="M197 563 c11 -37 6 -376 -5 -436 -15 -77 19 -140 48 -88 5 11 11 77
11 148 1 70 4 141 8 157 l6 28 19 -21 c21 -23 52 -28 59 -8 8 22 -12 45 -49
57 l-36 12 6 79 c7 79 7 79 -19 89 -46 17 -56 13 -48 -17z"/>
<path d="M630 559 c-30 -5 -113 -16 -185 -23 -82 -9 -122 -16 -108 -21 21 -7
22 -12 25 -195 3 -164 5 -190 21 -208 30 -32 122 -46 270 -39 143 7 180 13
174 31 -4 12 -19 12 -247 5 -172 -5 -180 -1 -180 81 0 33 4 60 9 60 5 0 17
-23 26 -50 13 -39 21 -50 33 -46 10 3 33 8 54 11 31 6 37 11 40 38 3 18 8 39
12 49 10 23 -24 32 -71 19 -21 -6 -53 -11 -70 -11 -31 0 -33 2 -33 37 0 20 5
76 11 124 l11 87 87 6 c47 4 123 9 169 12 45 4 82 10 82 14 0 9 -47 30 -63 29
-7 -1 -37 -5 -67 -10z m-100 -334 c0 -45 -59 -56 -71 -13 -7 28 0 34 49 37 17
1 22 -4 22 -24z"/>
<path d="M610 465 c-19 -7 -62 -14 -95 -14 -37 -1 -55 -5 -47 -10 8 -5 22 -33
32 -62 14 -42 22 -53 36 -52 11 2 47 6 82 9 49 5 62 10 58 21 -3 8 3 33 14 56
11 22 17 44 13 48 -16 16 -59 17 -93 4z m28 -56 c-3 -38 -16 -49 -63 -52 -36
-2 -39 0 -47 32 -12 42 -1 51 65 51 47 0 47 0 45 -31z"/>
<path d="M120 384 c-31 -71 -25 -113 13 -98 21 8 40 99 27 125 -6 10 -13 19
-15 19 -2 0 -13 -21 -25 -46z"/>
<path d="M706 289 c-10 -6 -37 -9 -60 -7 l-42 5 20 -61 c25 -73 25 -73 34 -59
4 7 32 13 62 15 40 2 54 7 52 17 -1 7 6 28 17 46 14 24 16 36 8 44 -14 14 -66
14 -91 0z m30 -33 c10 -26 -15 -56 -46 -56 -24 0 -31 5 -36 26 -8 30 2 39 46
42 19 1 33 -3 36 -12z"/>
</g>
</svg>
