<?xml version="1.0" standalone="no"?>
<!DOCTYPE svg PUBLIC "-//W3C//DTD SVG 20010904//EN"
 "http://www.w3.org/TR/2001/REC-SVG-20010904/DTD/svg10.dtd">
<svg version="1.0" xmlns="http://www.w3.org/2000/svg"
 width="96.000000pt" height="68.000000pt" viewBox="0 0 96.000000 68.000000"
 preserveAspectRatio="xMidYMid meet">
<metadata>
Created by potrace 1.16, written by Peter Selinger 2001-2019
</metadata>
<g transform="translate(0.000000,68.000000) scale(0.100000,-0.100000)"
fill="#000000" stroke="none">
<path d="M395 574 c17 -40 22 -124 17 -267 l-5 -147 25 0 c24 0 25 4 31 68 4
37 7 83 7 104 0 40 -14 35 153 53 38 4 57 11 54 18 -4 14 -66 15 -151 3 l-59
-9 6 62 c4 34 11 70 17 80 13 25 -7 41 -61 48 -39 6 -42 4 -34 -13z"/>
</g>
</svg>
