<?xml version="1.0" standalone="no"?>
<!DOCTYPE svg PUBLIC "-//W3C//DTD SVG 20010904//EN"
 "http://www.w3.org/TR/2001/REC-SVG-20010904/DTD/svg10.dtd">
<svg version="1.0" xmlns="http://www.w3.org/2000/svg"
 width="96.000000pt" height="68.000000pt" viewBox="0 0 96.000000 68.000000"
 preserveAspectRatio="xMidYMid meet">
<metadata>
Created by potrace 1.16, written by Peter Selinger 2001-2019
</metadata>
<g transform="translate(0.000000,68.000000) scale(0.100000,-0.100000)"
fill="#000000" stroke="none">
<path d="M406 273 c2 -149 10 -172 70 -203 44 -23 244 -21 307 3 52 20 57 35
32 83 -8 16 -15 36 -15 45 0 35 -14 26 -29 -18 -24 -71 -52 -86 -158 -87 -99
-1 -138 13 -162 56 -14 24 -14 37 2 129 9 56 15 104 13 106 -2 2 -16 7 -32 12
l-29 8 1 -134z"/>
</g>
</svg>
