<?xml version="1.0" standalone="no"?>
<!DOCTYPE svg PUBLIC "-//W3C//DTD SVG 20010904//EN"
 "http://www.w3.org/TR/2001/REC-SVG-20010904/DTD/svg10.dtd">
<svg version="1.0" xmlns="http://www.w3.org/2000/svg"
 width="96.000000pt" height="68.000000pt" viewBox="0 0 96.000000 68.000000"
 preserveAspectRatio="xMidYMid meet">
<metadata>
Created by potrace 1.16, written by Peter Selinger 2001-2019
</metadata>
<g transform="translate(0.000000,68.000000) scale(0.100000,-0.100000)"
fill="#000000" stroke="none">
<path d="M287 507 c5 -61 4 -64 -18 -70 -13 -4 -36 -7 -51 -7 -16 0 -28 -4
-28 -10 0 -5 23 -10 50 -10 48 0 50 -1 50 -29 0 -29 -1 -29 -87 -41 -49 -7
-92 -17 -97 -21 -19 -17 44 -20 115 -5 41 8 109 20 152 27 92 14 105 34 17 26
l-60 -5 0 28 c0 24 5 28 42 36 23 5 43 15 46 23 4 11 -5 13 -42 9 l-46 -6 6
54 c6 45 4 54 -9 54 -8 0 -22 3 -30 6 -12 4 -14 -5 -10 -59z"/>
</g>
</svg>
