<?xml version="1.0" standalone="no"?>
<!DOCTYPE svg PUBLIC "-//W3C//DTD SVG 20010904//EN"
 "http://www.w3.org/TR/2001/REC-SVG-20010904/DTD/svg10.dtd">
<svg version="1.0" xmlns="http://www.w3.org/2000/svg"
 width="96.000000pt" height="68.000000pt" viewBox="0 0 96.000000 68.000000"
 preserveAspectRatio="xMidYMid meet">
<metadata>
Created by potrace 1.16, written by Peter Selinger 2001-2019
</metadata>
<g transform="translate(0.000000,68.000000) scale(0.100000,-0.100000)"
fill="#000000" stroke="none">
<path d="M255 540 c-11 -5 -46 -9 -78 -9 -57 -1 -57 -1 -43 -23 8 -13 20 -45
27 -71 10 -42 15 -48 33 -43 12 3 47 8 78 12 49 6 56 9 56 29 0 12 7 38 17 58
9 20 14 41 10 46 -7 13 -71 13 -100 1z m40 -57 c-8 -46 -5 -43 -52 -53 -44
-10 -48 -7 -57 42 -7 41 -2 45 73 47 l43 1 -7 -37z"/>
</g>
</svg>
