<?xml version="1.0" standalone="no"?>
<!DOCTYPE svg PUBLIC "-//W3C//DTD SVG 20010904//EN"
 "http://www.w3.org/TR/2001/REC-SVG-20010904/DTD/svg10.dtd">
<svg version="1.0" xmlns="http://www.w3.org/2000/svg"
 width="96.000000pt" height="68.000000pt" viewBox="0 0 96.000000 68.000000"
 preserveAspectRatio="xMidYMid meet">
<metadata>
Created by potrace 1.16, written by Peter Selinger 2001-2019
</metadata>
<g transform="translate(0.000000,68.000000) scale(0.100000,-0.100000)"
fill="#000000" stroke="none">
<path d="M516 570 c19 -31 39 -44 55 -34 26 16 -14 64 -54 64 -17 0 -17 -1 -1
-30z"/>
<path d="M520 510 c-69 -10 -126 -19 -128 -19 -2 -1 0 -6 3 -12 4 -6 30 -9 58
-8 40 2 53 0 55 -12 3 -15 -64 -89 -80 -89 -4 0 -8 -8 -8 -19 0 -21 29 -33 51
-21 8 4 48 13 89 19 41 7 83 14 92 17 9 3 25 -5 38 -18 16 -18 23 -20 29 -9
13 21 1 49 -29 71 -31 22 -73 29 -52 8 23 -23 12 -35 -35 -41 -27 -4 -65 -9
-85 -12 -47 -7 -43 8 12 50 26 19 38 36 36 47 -6 25 -1 26 84 29 86 2 96 5 79
25 -14 17 -49 16 -209 -6z"/>
<path d="M250 493 c-41 -7 -90 -16 -108 -19 -41 -6 -32 -24 13 -24 57 0 65 -7
65 -60 l0 -47 -40 -7 c-48 -8 -44 -26 6 -26 l34 0 0 -54 0 -53 -60 -13 c-64
-14 -73 -28 -27 -44 23 -8 43 -2 127 40 99 48 115 65 46 45 l-36 -9 0 54 c0
41 4 54 15 55 8 1 20 3 25 4 6 1 17 3 26 4 31 2 2 21 -33 21 l-35 0 6 45 c6
34 4 45 -6 46 -7 0 9 6 36 12 51 12 70 31 39 39 -10 2 -52 -2 -93 -9z"/>
<path d="M666 292 c-10 -9 -7 -159 3 -185 6 -14 23 -29 42 -36 39 -14 109 -14
129 -1 23 15 -7 32 -46 25 -17 -3 -43 -1 -58 5 -25 9 -26 12 -26 99 0 79 -2
89 -19 94 -11 3 -22 2 -25 -1z"/>
<path d="M546 283 c-3 -3 -6 -48 -6 -99 0 -73 3 -93 15 -98 20 -7 23 2 28 102
3 71 1 84 -13 92 -10 5 -20 6 -24 3z"/>
<path d="M417 246 c8 -51 -4 -101 -34 -136 -27 -32 -29 -47 -3 -27 45 35 77
87 84 132 6 51 -1 65 -36 65 -14 0 -16 -7 -11 -34z"/>
</g>
</svg>
