<?xml version="1.0" standalone="no"?>
<!DOCTYPE svg PUBLIC "-//W3C//DTD SVG 20010904//EN"
 "http://www.w3.org/TR/2001/REC-SVG-20010904/DTD/svg10.dtd">
<svg version="1.0" xmlns="http://www.w3.org/2000/svg"
 width="96.000000pt" height="68.000000pt" viewBox="0 0 96.000000 68.000000"
 preserveAspectRatio="xMidYMid meet">
<metadata>
Created by potrace 1.16, written by Peter Selinger 2001-2019
</metadata>
<g transform="translate(0.000000,68.000000) scale(0.100000,-0.100000)"
fill="#000000" stroke="none">
<path d="M639 526 c-2 -3 -91 -10 -197 -16 -152 -10 -196 -9 -208 0 -17 15
-16 16 -43 -37 -26 -52 -26 -63 -2 -63 11 0 28 15 41 35 19 31 26 35 65 35 25
0 88 4 142 9 260 26 277 24 236 -22 -20 -22 -28 -21 77 -1 38 7 38 25 1 47
-26 15 -101 24 -112 13z"/>
</g>
</svg>
