<?xml version="1.0" standalone="no"?>
<!DOCTYPE svg PUBLIC "-//W3C//DTD SVG 20010904//EN"
 "http://www.w3.org/TR/2001/REC-SVG-20010904/DTD/svg10.dtd">
<svg version="1.0" xmlns="http://www.w3.org/2000/svg"
 width="96.000000pt" height="68.000000pt" viewBox="0 0 96.000000 68.000000"
 preserveAspectRatio="xMidYMid meet">
<metadata>
Created by potrace 1.16, written by Peter Selinger 2001-2019
</metadata>
<g transform="translate(0.000000,68.000000) scale(0.100000,-0.100000)"
fill="#000000" stroke="none">
<path d="M230 545 c0 -27 -70 -95 -98 -95 -23 0 -24 -1 -9 -18 9 -9 21 -40 28
-67 19 -80 28 -100 41 -87 7 7 24 12 39 12 22 0 28 -6 33 -31 3 -17 4 -35 1
-39 -3 -5 -28 -11 -57 -15 -40 -6 -48 -9 -34 -17 9 -5 34 -8 54 -6 37 3 37 3
40 -39 l3 -41 -42 -7 c-23 -4 -60 -7 -81 -7 -44 1 -47 -6 -12 -31 24 -18 26
-18 127 17 56 19 121 40 145 46 23 6 42 15 42 20 0 13 -8 13 -66 -5 -71 -21
-74 -20 -74 25 0 35 3 40 23 40 38 0 67 12 67 26 0 16 -55 20 -65 4 -10 -16
-25 -1 -25 26 0 18 -6 24 -22 25 -22 0 -22 1 -3 9 30 13 73 12 78 -2 8 -23 33
14 52 77 10 33 21 64 26 69 15 16 10 25 -21 41 -23 12 -39 13 -71 6 -59 -13
-66 -27 -13 -22 45 3 45 3 42 -25 -2 -25 -8 -29 -35 -32 -18 -2 -33 -8 -33
-13 0 -5 14 -7 30 -4 28 5 30 3 30 -25 0 -35 -14 -40 -111 -43 -63 -2 -64 -2
-67 26 -3 22 0 27 20 27 13 0 30 5 38 11 11 7 3 9 -30 7 -42 -3 -45 -1 -48 24
-3 22 3 30 30 44 18 9 50 30 71 46 30 24 35 33 26 44 -16 19 -69 18 -69 -1z"/>
<path d="M575 524 c-17 -8 -44 -11 -62 -8 -30 4 -45 -7 -25 -20 5 -3 5 -35 1
-72 -5 -53 -12 -72 -29 -86 -15 -12 -17 -18 -8 -18 19 0 57 37 69 67 5 13 9
42 9 64 0 33 4 41 26 49 54 21 60 16 62 -57 2 -87 19 -103 103 -103 58 0 84
14 58 31 -8 5 -39 8 -69 7 -50 -3 -55 -1 -58 20 -2 12 4 45 13 73 15 43 15 53
4 60 -20 12 -59 10 -94 -7z"/>
<path d="M628 305 c-4 -4 -159 -35 -176 -35 -1 0 22 -24 53 -52 30 -29 55 -58
55 -65 0 -16 -35 -39 -107 -70 l-58 -24 43 4 c24 3 68 17 98 32 l55 27 50 -47
51 -48 60 7 c33 3 67 10 76 15 14 8 12 11 -13 16 -69 16 -168 57 -193 80 -2 2
17 34 41 71 25 38 42 74 40 81 -5 13 -64 18 -75 8z m2 -44 c0 -25 -32 -81 -46
-81 -5 0 -25 16 -44 35 -36 37 -36 36 30 54 52 14 60 13 60 -8z"/>
</g>
</svg>
