<?xml version="1.0" standalone="no"?>
<!DOCTYPE svg PUBLIC "-//W3C//DTD SVG 20010904//EN"
 "http://www.w3.org/TR/2001/REC-SVG-20010904/DTD/svg10.dtd">
<svg version="1.0" xmlns="http://www.w3.org/2000/svg"
 width="96.000000pt" height="68.000000pt" viewBox="0 0 96.000000 68.000000"
 preserveAspectRatio="xMidYMid meet">
<metadata>
Created by potrace 1.16, written by Peter Selinger 2001-2019
</metadata>
<g transform="translate(0.000000,68.000000) scale(0.100000,-0.100000)"
fill="#000000" stroke="none">
<path d="M229 418 c4 -170 -11 -232 -79 -316 -33 -41 -42 -58 -30 -55 36 10
98 73 116 118 9 25 20 45 24 45 5 0 20 -13 33 -30 31 -36 60 -40 55 -8 -2 14
-18 29 -45 42 -41 21 -41 21 -36 66 5 48 24 70 84 103 l34 19 -24 19 c-30 25
-38 24 -47 -3 -4 -13 -13 -32 -21 -43 -14 -18 -15 -11 -10 68 5 87 4 88 -20
98 -13 5 -27 9 -31 9 -4 0 -5 -59 -3 -132z"/>
<path d="M110 371 c0 -19 44 -91 54 -88 6 2 12 15 14 29 2 18 -5 32 -24 47
-28 22 -44 27 -44 12z"/>
</g>
</svg>
