<?xml version="1.0" standalone="no"?>
<!DOCTYPE svg PUBLIC "-//W3C//DTD SVG 20010904//EN"
 "http://www.w3.org/TR/2001/REC-SVG-20010904/DTD/svg10.dtd">
<svg version="1.0" xmlns="http://www.w3.org/2000/svg"
 width="96.000000pt" height="68.000000pt" viewBox="0 0 96.000000 68.000000"
 preserveAspectRatio="xMidYMid meet">
<metadata>
Created by potrace 1.16, written by Peter Selinger 2001-2019
</metadata>
<g transform="translate(0.000000,68.000000) scale(0.100000,-0.100000)"
fill="#000000" stroke="none">
<path d="M517 530 c3 -34 2 -60 -3 -59 -31 5 -84 -2 -79 -12 4 -6 22 -8 46 -4
35 6 39 4 39 -13 0 -18 -9 -21 -65 -27 -52 -6 -70 -4 -90 9 -35 23 -42 21 -62
-21 l-18 -38 -3 49 c-2 26 1 61 7 77 12 36 -7 59 -49 59 -27 0 -28 -1 -19 -37
12 -53 11 -178 -2 -248 -14 -76 -41 -129 -92 -183 -42 -43 -38 -53 11 -28 40
21 89 76 107 120 l16 39 30 -37 c32 -38 53 -45 63 -21 9 25 -3 41 -45 61 -39
19 -40 20 -36 62 8 75 63 111 181 117 69 4 74 3 69 -15 -4 -15 -14 -20 -42
-20 -20 0 -43 -5 -51 -10 -11 -7 0 -10 38 -10 45 0 52 -3 52 -20 0 -16 -7 -20
-32 -21 -18 -1 -44 -5 -58 -9 -22 -7 -20 -8 15 -9 66 -2 255 22 249 31 -3 4
-34 8 -70 8 -48 0 -64 3 -64 14 0 10 19 16 60 21 36 4 60 12 59 19 -4 35 2 46
29 46 47 0 102 12 96 21 -3 5 -28 9 -55 9 -47 0 -49 1 -43 25 5 20 2 25 -22
31 -15 4 -41 2 -59 -5 -52 -19 -58 -15 -52 28 5 44 -6 61 -39 61 -21 0 -22 -3
-17 -60z m127 -58 c10 -16 -11 -33 -48 -39 -33 -5 -36 -4 -29 13 3 11 11 22
17 26 15 10 54 10 60 0z m-9 -81 c-6 -5 -23 -11 -40 -13 -22 -2 -31 2 -33 14
-2 12 5 17 30 20 37 4 58 -7 43 -21z"/>
<path d="M103 373 c2 -5 11 -25 21 -46 19 -42 43 -57 57 -36 12 19 2 50 -23
72 -20 17 -63 24 -55 10z"/>
<path d="M680 235 c34 -35 70 -46 70 -22 0 20 -14 35 -43 46 -55 21 -63 13
-27 -24z"/>
<path d="M383 249 c-6 -8 -14 -26 -18 -42 -6 -21 -4 -27 9 -27 20 0 29 19 24
56 -2 22 -5 25 -15 13z"/>
<path d="M560 253 c1 -18 38 -55 49 -49 15 10 14 22 -5 40 -16 16 -44 22 -44
9z"/>
<path d="M460 242 c0 -13 30 -52 41 -52 13 0 11 34 -3 48 -13 13 -38 16 -38 4z"/>
<path d="M520 176 c-52 -7 -106 -10 -120 -8 -15 2 -20 0 -14 -5 13 -10 34 -68
34 -94 0 -16 -8 -19 -50 -19 -27 0 -50 -4 -50 -9 0 -16 68 -22 127 -12 55 10
209 19 338 21 55 1 58 2 41 15 -11 9 -41 15 -68 15 -26 0 -48 3 -48 8 0 4 9
22 20 40 39 64 -3 74 -210 48z m156 -48 c-9 -54 -12 -58 -47 -58 -34 0 -34 2
-11 57 13 34 22 43 41 43 22 0 23 -3 17 -42z m-90 1 c-3 -17 -6 -37 -6 -44 0
-17 -40 -27 -45 -12 -2 7 -6 29 -9 50 -5 37 -5 37 31 37 34 0 35 -1 29 -31z
m-87 -16 c15 -52 15 -53 -18 -53 -25 0 -30 5 -39 40 -11 44 -8 50 24 50 18 0
25 -8 33 -37z"/>
</g>
</svg>
