<?xml version="1.0" standalone="no"?>
<!DOCTYPE svg PUBLIC "-//W3C//DTD SVG 20010904//EN"
 "http://www.w3.org/TR/2001/REC-SVG-20010904/DTD/svg10.dtd">
<svg version="1.0" xmlns="http://www.w3.org/2000/svg"
 width="96.000000pt" height="68.000000pt" viewBox="0 0 96.000000 68.000000"
 preserveAspectRatio="xMidYMid meet">
<metadata>
Created by potrace 1.16, written by Peter Selinger 2001-2019
</metadata>
<g transform="translate(0.000000,68.000000) scale(0.100000,-0.100000)"
fill="#000000" stroke="none">
<path d="M510 317 c0 -88 2 -87 -111 -87 -45 0 -79 -4 -79 -10 0 -17 50 -23
120 -13 l68 9 6 -36 c3 -19 6 -68 6 -107 0 -40 4 -73 9 -73 13 0 31 91 31 160
l0 60 114 0 c63 0 117 4 120 9 11 18 -50 28 -143 23 l-93 -5 3 69 c4 69 4 69
-23 72 l-28 3 0 -74z"/>
</g>
</svg>
