<?xml version="1.0" standalone="no"?>
<!DOCTYPE svg PUBLIC "-//W3C//DTD SVG 20010904//EN"
 "http://www.w3.org/TR/2001/REC-SVG-20010904/DTD/svg10.dtd">
<svg version="1.0" xmlns="http://www.w3.org/2000/svg"
 width="96.000000pt" height="68.000000pt" viewBox="0 0 96.000000 68.000000"
 preserveAspectRatio="xMidYMid meet">
<metadata>
Created by potrace 1.16, written by Peter Selinger 2001-2019
</metadata>
<g transform="translate(0.000000,68.000000) scale(0.100000,-0.100000)"
fill="#000000" stroke="none">
<path d="M555 608 c-2 -7 -5 -24 -7 -38 -3 -21 -9 -25 -41 -28 -43 -4 -40 -22
4 -22 27 0 29 -2 23 -27 l-6 -28 29 32 c24 27 37 32 91 38 34 4 62 11 62 16 0
10 -19 13 -73 10 -30 -2 -36 0 -31 13 7 19 -12 46 -33 46 -7 0 -16 -6 -18 -12z"/>
<path d="M303 593 c-10 -4 -9 -10 2 -26 24 -35 19 -47 -22 -48 -21 -1 -51 -4
-67 -8 l-29 -6 26 -14 c22 -11 34 -12 66 -3 52 16 58 15 64 -8 7 -28 29 -25
25 3 -3 17 5 26 32 39 l35 17 -37 0 c-29 1 -37 5 -40 22 -3 22 -33 39 -55 32z"/>
</g>
</svg>
