<?xml version="1.0" standalone="no"?>
<!DOCTYPE svg PUBLIC "-//W3C//DTD SVG 20010904//EN"
 "http://www.w3.org/TR/2001/REC-SVG-20010904/DTD/svg10.dtd">
<svg version="1.0" xmlns="http://www.w3.org/2000/svg"
 width="96.000000pt" height="68.000000pt" viewBox="0 0 96.000000 68.000000"
 preserveAspectRatio="xMidYMid meet">
<metadata>
Created by potrace 1.16, written by Peter Selinger 2001-2019
</metadata>
<g transform="translate(0.000000,68.000000) scale(0.100000,-0.100000)"
fill="#000000" stroke="none">
<path d="M709 565 c-3 -2 -55 -9 -117 -15 -83 -9 -117 -9 -126 -1 -22 18 -70
-72 -50 -92 11 -10 35 5 48 32 13 24 23 28 98 39 205 30 206 30 171 -25 -17
-26 -17 -27 1 -20 10 4 38 12 62 18 24 6 44 15 44 19 0 20 -55 50 -90 50 -20
0 -39 -2 -41 -5z"/>
</g>
</svg>
