<?xml version="1.0" standalone="no"?>
<!DOCTYPE svg PUBLIC "-//W3C//DTD SVG 20010904//EN"
 "http://www.w3.org/TR/2001/REC-SVG-20010904/DTD/svg10.dtd">
<svg version="1.0" xmlns="http://www.w3.org/2000/svg"
 width="90.000000pt" height="92.000000pt" viewBox="0 0 90.000000 92.000000"
 preserveAspectRatio="xMidYMid meet">
<metadata>
Created by potrace 1.16, written by Peter Selinger 2001-2019
</metadata>
<g transform="translate(0.000000,92.000000) scale(0.100000,-0.100000)"
fill="#000000" stroke="none">
<path d="M390 870 c0 -6 7 -24 15 -40 l15 -29 -45 -7 c-25 -3 -47 -10 -50 -14
-11 -18 34 -19 112 -3 82 17 103 35 50 41 -15 2 -27 9 -27 17 0 7 -7 21 -16
29 -17 18 -54 22 -54 6z"/>
<path d="M617 835 c-10 -24 -34 -58 -53 -75 -26 -22 -34 -36 -29 -50 7 -22 21
-25 61 -10 15 6 29 8 32 6 5 -6 -69 -75 -80 -76 -13 0 -9 -27 5 -38 9 -8 33
-4 85 15 69 25 73 25 92 8 21 -19 40 -13 40 14 0 20 -24 44 -54 55 -15 5 -17
2 -13 -13 4 -17 -2 -21 -40 -27 -24 -3 -46 -4 -49 -1 -3 2 29 30 71 62 72 54
75 58 62 78 -21 32 -31 30 -51 -7 -15 -29 -25 -35 -60 -38 -22 -3 -43 -3 -45
-1 -3 2 16 25 42 51 52 53 56 66 28 82 -26 14 -24 16 -44 -35z"/>
<path d="M168 822 c-9 -26 -33 -65 -53 -86 -24 -26 -34 -45 -30 -57 7 -22 11
-23 54 -8 49 17 49 3 1 -46 -41 -42 -43 -45 -27 -63 16 -18 19 -17 84 14 60
29 69 31 84 19 20 -19 25 -19 33 1 8 22 -17 60 -44 67 -17 4 -20 1 -18 -15 2
-16 -6 -24 -36 -35 -22 -7 -44 -12 -49 -10 -4 1 21 31 57 66 36 34 66 69 66
76 0 8 -7 21 -16 30 -15 15 -18 13 -34 -23 -16 -34 -23 -40 -56 -44 -49 -6
-52 -3 -28 26 84 105 78 95 59 116 -10 11 -21 20 -24 20 -4 0 -14 -21 -23 -48z"/>
<path d="M388 727 c-60 -17 -46 -31 23 -23 69 7 88 14 68 27 -17 11 -43 10
-91 -4z"/>
<path d="M400 664 c-25 -7 -47 -13 -50 -13 -3 -1 3 -6 13 -12 20 -12 127 6
127 22 0 5 -4 9 -9 9 -5 0 -15 2 -23 4 -7 2 -33 -2 -58 -10z"/>
<path d="M440 600 c-8 -5 -34 -10 -56 -10 l-42 0 16 -47 c8 -27 16 -53 18 -59
1 -7 19 -7 58 0 41 8 55 14 51 24 -3 8 2 30 12 49 14 30 14 36 2 44 -18 11
-40 11 -59 -1z m20 -43 c0 -29 -18 -47 -47 -47 -19 0 -23 5 -23 29 0 23 5 31
23 34 43 8 47 7 47 -16z"/>
<path d="M700 583 c1 -4 16 -26 35 -48 29 -33 37 -37 45 -25 15 24 12 38 -12
54 -30 18 -68 29 -68 19z"/>
<path d="M620 575 c0 -3 9 -24 21 -46 22 -44 42 -47 47 -6 3 20 -3 29 -27 41
-32 17 -41 19 -41 11z"/>
<path d="M261 513 c12 -21 24 -40 26 -43 5 -5 23 21 23 33 0 13 -40 47 -56 47
-13 0 -12 -6 7 -37z"/>
<path d="M550 540 c0 -22 32 -71 43 -67 19 6 20 43 2 61 -18 18 -45 21 -45 6z"/>
<path d="M175 494 c8 -20 15 -38 15 -40 0 -2 7 -4 15 -4 23 0 20 57 -4 70 -36
18 -42 12 -26 -26z"/>
<path d="M70 510 c0 -6 9 -29 21 -51 17 -33 23 -38 35 -29 22 19 17 46 -12 69
-29 23 -44 27 -44 11z"/>
<path d="M445 450 c-33 -9 -91 -20 -128 -24 -37 -4 -65 -12 -62 -17 9 -13 68
-11 165 6 47 8 86 15 88 15 2 0 2 -12 0 -27 -3 -27 -6 -28 -103 -45 -55 -9
-117 -17 -139 -18 -32 0 -37 -3 -31 -17 16 -38 16 -60 1 -76 -20 -20 -21 -57
-2 -57 8 0 30 9 48 19 38 23 137 41 221 41 52 0 59 -3 69 -25 8 -19 8 -35 -1
-65 -15 -52 -47 -69 -95 -52 -55 20 -59 14 -22 -30 20 -23 36 -45 36 -50 0
-20 53 -5 86 25 27 25 38 46 50 97 8 36 19 69 24 74 19 19 10 36 -25 53 -33
16 -44 16 -181 -1 -80 -10 -147 -16 -150 -13 -3 3 -3 14 0 25 7 21 29 27 136
37 116 11 132 15 126 32 -4 9 2 31 13 49 l20 34 -22 15 c-26 18 -45 18 -122
-5z"/>
</g>
</svg>
