<?xml version="1.0" standalone="no"?>
<!DOCTYPE svg PUBLIC "-//W3C//DTD SVG 20010904//EN"
 "http://www.w3.org/TR/2001/REC-SVG-20010904/DTD/svg10.dtd">
<svg version="1.0" xmlns="http://www.w3.org/2000/svg"
 width="96.000000pt" height="68.000000pt" viewBox="0 0 96.000000 68.000000"
 preserveAspectRatio="xMidYMid meet">
<metadata>
Created by potrace 1.16, written by Peter Selinger 2001-2019
</metadata>
<g transform="translate(0.000000,68.000000) scale(0.100000,-0.100000)"
fill="#000000" stroke="none">
<path d="M600 295 c0 -19 -5 -25 -22 -25 -13 0 -30 -5 -38 -10 -11 -7 -5 -10
23 -10 30 0 37 -4 37 -20 0 -14 -7 -20 -24 -20 -13 0 -38 -3 -57 -7 -28 -5
-30 -7 -14 -14 11 -4 37 -5 58 -2 l37 6 0 -42 c0 -30 4 -41 15 -41 10 0 15 11
16 30 1 17 2 36 3 43 1 8 26 13 79 15 56 2 77 6 74 15 -3 8 -27 11 -76 10 -64
-2 -71 0 -71 17 0 15 7 20 28 21 15 0 36 4 46 8 31 12 1 24 -40 17 -30 -6 -34
-4 -34 14 0 13 -7 20 -20 20 -15 0 -20 -7 -20 -25z"/>
</g>
</svg>
