<?xml version="1.0" standalone="no"?>
<!DOCTYPE svg PUBLIC "-//W3C//DTD SVG 20010904//EN"
 "http://www.w3.org/TR/2001/REC-SVG-20010904/DTD/svg10.dtd">
<svg version="1.0" xmlns="http://www.w3.org/2000/svg"
 width="96.000000pt" height="68.000000pt" viewBox="0 0 96.000000 68.000000"
 preserveAspectRatio="xMidYMid meet">
<metadata>
Created by potrace 1.16, written by Peter Selinger 2001-2019
</metadata>
<g transform="translate(0.000000,68.000000) scale(0.100000,-0.100000)"
fill="#000000" stroke="none">
<path d="M475 243 c-181 -26 -171 -24 -152 -35 13 -7 47 -5 111 6 52 9 117 16
145 16 l51 0 0 -33 c0 -18 -10 -53 -22 -77 -21 -42 -26 -45 -61 -44 l-38 1 25
-31 c30 -39 45 -42 79 -16 34 27 96 208 75 221 -18 12 -95 9 -213 -8z"/>
</g>
</svg>
