<?xml version="1.0" standalone="no"?>
<!DOCTYPE svg PUBLIC "-//W3C//DTD SVG 20010904//EN"
 "http://www.w3.org/TR/2001/REC-SVG-20010904/DTD/svg10.dtd">
<svg version="1.0" xmlns="http://www.w3.org/2000/svg"
 width="90.000000pt" height="92.000000pt" viewBox="0 0 90.000000 92.000000"
 preserveAspectRatio="xMidYMid meet">
<metadata>
Created by potrace 1.16, written by Peter Selinger 2001-2019
</metadata>
<g transform="translate(0.000000,92.000000) scale(0.100000,-0.100000)"
fill="#000000" stroke="none">
<path d="M514 849 c4 -13 19 -71 32 -128 18 -77 21 -107 12 -112 -6 -4 -49
-15 -95 -25 -45 -9 -83 -18 -83 -19 0 -2 7 -19 15 -39 13 -29 13 -51 5 -123
-12 -104 -38 -192 -52 -172 -5 8 -8 88 -6 178 l2 163 -28 15 c-25 13 -49 13
-88 -2 -10 -4 -12 5 -10 37 l4 43 43 1 c86 3 123 24 73 43 -15 5 -37 3 -62 -5
-56 -20 -58 -19 -55 37 3 54 -7 69 -50 69 -18 0 -22 -4 -16 -17 4 -10 9 -63
12 -119 l6 -101 -33 -6 c-18 -4 -47 -7 -64 -7 l-32 0 4 -104 c2 -57 -1 -141
-7 -185 -8 -60 -8 -88 1 -106 14 -30 28 -33 28 -5 0 17 7 20 39 20 21 0 65 3
98 6 l60 7 11 -32 c6 -17 15 -31 20 -31 10 0 42 33 42 44 0 4 16 26 35 49 19
22 40 59 46 81 13 46 18 40 39 -41 6 -24 15 -43 20 -43 6 0 10 5 10 10 0 6 11
10 24 10 13 0 38 3 55 6 25 5 29 9 20 20 -8 10 -6 22 10 49 27 46 26 49 -5 64
-20 9 -35 8 -70 -4 -69 -23 -84 -20 -84 15 0 27 3 30 31 30 39 0 119 20 119
30 0 16 -43 18 -82 4 -22 -8 -44 -14 -49 -14 -11 0 -11 71 0 88 9 16 113 44
122 34 3 -4 14 -38 23 -75 9 -37 25 -91 36 -120 11 -29 20 -58 20 -65 0 -17
-53 -94 -98 -144 -19 -21 -31 -38 -27 -38 18 0 78 45 113 85 l38 44 30 -57
c37 -71 94 -132 124 -132 20 0 22 3 16 32 -4 18 -13 67 -20 108 l-13 75 -11
-40 c-7 -22 -12 -46 -12 -52 0 -31 -30 -8 -59 46 l-31 59 40 87 c22 48 40 93
40 101 0 11 -47 44 -65 44 -3 0 -5 -21 -5 -47 0 -27 -9 -66 -18 -88 l-18 -39
-26 94 c-14 52 -28 105 -31 117 -5 23 9 33 47 33 12 0 30 6 41 13 17 13 16 15
-13 25 -20 7 -43 8 -62 2 -21 -6 -30 -5 -30 3 -4 83 -19 210 -26 216 -5 5 -24
12 -43 16 -32 7 -34 6 -27 -16z m-314 -346 c0 -27 -3 -58 -6 -70 -6 -21 -6
-21 -55 9 -36 22 -49 36 -49 53 0 27 10 35 54 46 55 13 56 12 56 -38z m90 -12
c0 -54 -2 -59 -20 -54 -28 7 -31 15 -20 52 7 26 5 33 -13 46 -21 15 -20 15 16
15 l37 0 0 -59z m-141 -85 c29 -31 24 -57 -24 -120 -19 -25 -31 -46 -25 -46
13 0 86 71 92 90 4 12 13 8 40 -18 19 -18 37 -29 41 -26 15 16 5 47 -23 76
-23 23 -29 35 -24 55 l7 25 28 -32 c26 -28 29 -38 29 -104 0 -40 -2 -75 -5
-78 -13 -12 -55 5 -55 23 0 16 -26 39 -44 39 -13 0 -5 -25 15 -46 l21 -22 -67
-7 c-36 -4 -68 -5 -71 -3 -2 3 -1 37 2 77 7 70 7 71 26 54 16 -14 21 -15 28
-4 12 21 2 38 -26 45 -19 5 -24 13 -24 37 0 25 3 28 18 20 9 -5 28 -21 41 -35z
m401 -91 c0 -29 -4 -36 -25 -41 -31 -8 -30 -8 -38 33 -5 27 -3 32 16 36 45 9
47 7 47 -28z"/>
<path d="M132 488 c20 -30 58 -37 58 -10 0 21 -18 32 -52 32 -19 0 -19 -2 -6
-22z"/>
<path d="M650 764 c0 -19 70 -84 89 -84 17 0 21 6 21 30 0 24 -6 33 -27 41
-43 16 -83 22 -83 13z"/>
</g>
</svg>
