<?xml version="1.0" standalone="no"?>
<!DOCTYPE svg PUBLIC "-//W3C//DTD SVG 20010904//EN"
 "http://www.w3.org/TR/2001/REC-SVG-20010904/DTD/svg10.dtd">
<svg version="1.0" xmlns="http://www.w3.org/2000/svg"
 width="96.000000pt" height="68.000000pt" viewBox="0 0 96.000000 68.000000"
 preserveAspectRatio="xMidYMid meet">
<metadata>
Created by potrace 1.16, written by Peter Selinger 2001-2019
</metadata>
<g transform="translate(0.000000,68.000000) scale(0.100000,-0.100000)"
fill="#000000" stroke="none">
<path d="M685 466 c-44 -6 -75 -15 -68 -19 6 -4 15 -27 18 -51 10 -66 13 -68
86 -59 62 8 64 9 61 35 -2 15 4 40 12 57 15 28 15 31 -3 41 -11 5 -21 9 -23 9
-2 -1 -39 -7 -83 -13z m60 -16 c3 -5 3 -25 -1 -44 -4 -27 -13 -37 -35 -45 -27
-9 -31 -8 -40 16 -15 40 -7 66 21 74 37 10 48 10 55 -1z"/>
</g>
</svg>
