<?xml version="1.0" standalone="no"?>
<!DOCTYPE svg PUBLIC "-//W3C//DTD SVG 20010904//EN"
 "http://www.w3.org/TR/2001/REC-SVG-20010904/DTD/svg10.dtd">
<svg version="1.0" xmlns="http://www.w3.org/2000/svg"
 width="90.000000pt" height="92.000000pt" viewBox="0 0 90.000000 92.000000"
 preserveAspectRatio="xMidYMid meet">
<metadata>
Created by potrace 1.16, written by Peter Selinger 2001-2019
</metadata>
<g transform="translate(0.000000,92.000000) scale(0.100000,-0.100000)"
fill="#000000" stroke="none">
<path d="M227 856 c-2 -6 -1 -18 3 -26 4 -8 10 -41 14 -72 7 -64 9 -61 -78
-74 -46 -6 -48 -8 -30 -21 13 -10 33 -13 67 -8 l47 6 0 -34 c0 -40 -14 -47
-96 -47 -62 0 -69 -6 -45 -36 11 -14 22 -50 26 -87 10 -82 22 -114 37 -99 7 7
25 12 40 12 25 0 28 -3 28 -34 0 -19 -6 -36 -13 -39 -7 -2 -55 -10 -107 -17
-105 -14 -126 -23 -88 -40 18 -9 44 -8 108 4 46 9 85 14 88 11 3 -3 1 -35 -5
-72 -7 -50 -7 -77 2 -102 27 -79 55 -29 55 99 l0 90 64 0 c97 0 123 16 69 43
-18 8 -39 11 -58 6 -66 -15 -75 -12 -75 26 0 37 1 38 75 39 28 1 31 5 53 76
13 41 27 83 33 92 15 28 11 36 -23 54 -30 15 -69 15 -110 -1 -15 -6 -18 -1
-18 28 0 33 2 36 39 42 22 3 47 12 57 20 18 13 17 14 -7 25 -20 9 -32 9 -47 1
-31 -17 -43 -13 -38 12 16 77 15 87 -5 106 -26 24 -57 33 -62 17z m147 -284
c3 -5 2 -20 -2 -33 -6 -20 -14 -24 -49 -26 -46 -2 -53 9 -33 48 11 20 73 28
84 11z m-124 -41 c0 -21 -6 -30 -22 -35 -42 -11 -56 -6 -62 21 -8 31 5 43 52
43 29 0 32 -3 32 -29z m116 -57 c-3 -9 -6 -24 -6 -35 0 -16 -7 -19 -40 -19
-38 0 -40 2 -40 29 0 30 10 36 69 40 17 1 22 -3 17 -15z m-124 -40 c-4 -30 -8
-34 -33 -34 -22 0 -29 5 -29 19 0 11 -2 25 -5 33 -4 10 5 14 33 14 37 1 38 1
34 -32z"/>
<path d="M556 843 c-3 -3 -6 -19 -6 -34 0 -39 -46 -192 -76 -251 -14 -27 -23
-52 -21 -54 2 -3 21 14 41 36 20 22 40 38 45 36 5 -3 30 1 57 8 101 29 104 29
104 4 -1 -13 -7 -40 -14 -60 -8 -21 -12 -38 -10 -38 4 0 88 63 122 91 17 14 1
34 -48 59 -37 19 -37 19 -115 -6 -43 -13 -79 -23 -81 -21 -4 3 49 138 66 169
7 12 5 22 -6 33 -22 21 -50 35 -58 28z"/>
<path d="M538 436 c-6 -113 -47 -200 -119 -254 -58 -43 -48 -54 19 -20 51 26
114 100 129 151 l8 30 52 -79 c80 -122 105 -144 161 -144 53 0 92 9 92 20 0 4
-35 24 -77 45 -57 28 -96 57 -145 107 -72 74 -77 86 -54 151 13 36 13 38 -11
57 -44 34 -50 27 -55 -64z"/>
</g>
</svg>
