<?xml version="1.0" standalone="no"?>
<!DOCTYPE svg PUBLIC "-//W3C//DTD SVG 20010904//EN"
 "http://www.w3.org/TR/2001/REC-SVG-20010904/DTD/svg10.dtd">
<svg version="1.0" xmlns="http://www.w3.org/2000/svg"
 width="96.000000pt" height="68.000000pt" viewBox="0 0 96.000000 68.000000"
 preserveAspectRatio="xMidYMid meet">
<metadata>
Created by potrace 1.16, written by Peter Selinger 2001-2019
</metadata>
<g transform="translate(0.000000,68.000000) scale(0.100000,-0.100000)"
fill="#000000" stroke="none">
<path d="M548 535 l5 -75 -47 0 c-25 0 -46 -4 -46 -10 0 -5 20 -10 45 -10 l45
0 0 -39 0 -40 -47 -6 c-27 -3 -54 -7 -61 -8 -7 -1 -13 -6 -12 -12 0 -6 23 -9
50 -8 32 2 50 -2 50 -9 0 -19 -57 -89 -106 -131 -21 -17 -23 -17 -57 6 -31 21
-33 25 -21 42 7 10 20 42 29 71 12 43 21 55 40 60 24 6 36 34 15 34 -5 0 -19
9 -30 20 -11 11 -31 20 -45 20 -22 0 -25 -4 -23 -26 2 -22 -3 -29 -25 -36 -16
-6 -31 -8 -33 -5 -3 3 4 38 16 79 12 40 23 81 26 90 3 11 -5 22 -25 32 -47 25
-54 21 -47 -23 3 -22 1 -73 -5 -115 -13 -84 -15 -86 -106 -86 -59 0 -66 -11
-27 -37 21 -13 33 -15 64 -7 l38 11 -5 -36 c-4 -33 -1 -38 33 -57 l37 -21 -61
-43 c-34 -24 -60 -46 -58 -48 10 -9 64 10 106 38 l44 29 33 -30 c19 -16 36
-29 39 -29 6 0 40 30 126 113 21 20 41 37 44 37 4 0 3 -37 -1 -83 -11 -110
-10 -136 4 -150 8 -8 15 -7 28 6 15 15 17 35 15 137 -2 73 1 120 7 120 5 0 11
-4 13 -9 6 -15 62 -85 92 -113 24 -24 36 -28 87 -28 85 0 79 11 -31 58 -51 21
-159 116 -147 128 4 5 44 7 88 6 49 -1 79 2 79 8 0 20 -49 29 -119 23 l-71 -6
0 36 c0 38 3 40 73 53 57 10 46 27 -14 22 l-52 -5 6 62 c4 58 3 64 -17 69 -42
11 -43 9 -38 -69z m-233 -251 c-17 -44 -34 -54 -64 -35 -10 6 -12 19 -7 45 5
28 12 37 34 42 15 3 32 7 37 8 18 5 18 -14 0 -60z"/>
</g>
</svg>
