<?xml version="1.0" standalone="no"?>
<!DOCTYPE svg PUBLIC "-//W3C//DTD SVG 20010904//EN"
 "http://www.w3.org/TR/2001/REC-SVG-20010904/DTD/svg10.dtd">
<svg version="1.0" xmlns="http://www.w3.org/2000/svg"
 width="96.000000pt" height="68.000000pt" viewBox="0 0 96.000000 68.000000"
 preserveAspectRatio="xMidYMid meet">
<metadata>
Created by potrace 1.16, written by Peter Selinger 2001-2019
</metadata>
<g transform="translate(0.000000,68.000000) scale(0.100000,-0.100000)"
fill="#000000" stroke="none">
<path d="M548 535 l5 -75 -47 0 c-25 0 -46 -4 -46 -10 0 -5 20 -10 45 -10 33
0 45 -4 45 -15 0 -8 9 -15 20 -15 11 0 20 6 20 14 0 15 12 20 73 31 56 9 46
28 -14 23 l-51 -3 5 62 c6 64 1 73 -42 73 -16 0 -17 -8 -13 -75z"/>
</g>
</svg>
