<?xml version="1.0" standalone="no"?>
<!DOCTYPE svg PUBLIC "-//W3C//DTD SVG 20010904//EN"
 "http://www.w3.org/TR/2001/REC-SVG-20010904/DTD/svg10.dtd">
<svg version="1.0" xmlns="http://www.w3.org/2000/svg"
 width="96.000000pt" height="68.000000pt" viewBox="0 0 96.000000 68.000000"
 preserveAspectRatio="xMidYMid meet">
<metadata>
Created by potrace 1.16, written by Peter Selinger 2001-2019
</metadata>
<g transform="translate(0.000000,68.000000) scale(0.100000,-0.100000)"
fill="#000000" stroke="none">
<path d="M500 616 c50 -48 168 -136 183 -136 31 0 22 55 -14 81 -39 27 -137
68 -164 69 -17 0 -17 -2 -5 -14z"/>
<path d="M309 577 c-8 -17 -44 -53 -79 -79 -54 -41 -59 -48 -38 -48 41 0 208
98 208 122 0 8 -54 38 -67 38 -4 0 -15 -15 -24 -33z"/>
<path d="M465 459 c-60 -10 -132 -18 -160 -18 -69 1 -72 0 -54 -14 9 -7 24
-37 32 -67 22 -72 34 -91 43 -67 8 23 34 22 34 -1 0 -42 -95 -133 -195 -186
l-50 -27 37 6 c83 13 156 60 223 142 34 41 43 59 35 68 -8 9 -4 14 14 17 14 3
29 2 34 -1 5 -3 11 -47 14 -98 3 -59 9 -97 19 -109 24 -30 75 -44 156 -44 83
0 137 11 168 34 19 14 19 15 -3 59 -12 24 -22 49 -22 56 0 6 -4 11 -10 11 -5
0 -10 -14 -10 -31 0 -20 -10 -40 -29 -60 -27 -27 -35 -29 -104 -29 -102 0
-123 16 -120 94 1 30 7 64 12 75 7 13 8 22 1 26 -21 13 -9 25 25 25 27 0 35 4
35 18 0 11 14 38 30 60 17 23 30 45 30 49 0 10 -50 34 -64 32 -6 -1 -60 -10
-121 -20z m105 -15 c0 -3 -5 -25 -11 -49 -13 -50 -10 -49 -150 -60 l-75 -6
-13 41 c-7 23 -10 44 -8 46 13 14 257 41 257 28z"/>
</g>
</svg>
