<?xml version="1.0" standalone="no"?>
<!DOCTYPE svg PUBLIC "-//W3C//DTD SVG 20010904//EN"
 "http://www.w3.org/TR/2001/REC-SVG-20010904/DTD/svg10.dtd">
<svg version="1.0" xmlns="http://www.w3.org/2000/svg"
 width="90.000000pt" height="92.000000pt" viewBox="0 0 90.000000 92.000000"
 preserveAspectRatio="xMidYMid meet">
<metadata>
Created by potrace 1.16, written by Peter Selinger 2001-2019
</metadata>
<g transform="translate(0.000000,92.000000) scale(0.100000,-0.100000)"
fill="#000000" stroke="none">
<path d="M555 632 c0 -194 4 -232 24 -232 21 0 30 69 33 239 3 176 2 184 -17
192 -11 4 -24 8 -30 8 -6 1 -10 -74 -10 -207z"/>
<path d="M175 803 c16 -40 26 -164 20 -248 -12 -175 -49 -277 -132 -366 -50
-53 -44 -63 16 -25 56 36 109 103 128 163 9 29 20 53 24 53 4 0 25 -29 48 -64
36 -55 66 -84 76 -74 5 5 7 31 6 56 -1 28 -46 72 -94 95 -33 16 -34 17 -27 63
4 25 13 50 21 55 53 33 129 94 129 105 0 16 -50 55 -61 48 -5 -3 -9 -11 -9
-18 0 -6 -16 -36 -35 -66 l-34 -55 -1 90 c0 50 5 108 11 130 10 35 9 41 -11
57 -12 10 -36 18 -52 18 -25 0 -29 -3 -23 -17z"/>
<path d="M680 652 c0 -4 31 -41 69 -82 54 -58 72 -72 81 -63 16 15 16 59 -1
79 -21 26 -149 83 -149 66z"/>
<path d="M430 593 c-7 -21 -24 -60 -37 -86 -13 -27 -22 -51 -20 -54 18 -18
121 104 115 135 -2 8 -13 21 -25 29 -20 13 -22 12 -33 -24z"/>
<path d="M40 585 c0 -19 36 -93 58 -117 18 -21 42 -7 42 24 0 44 -26 74 -92
106 -5 2 -8 -4 -8 -13z"/>
<path d="M686 498 c-3 -7 -7 -28 -10 -46 -8 -47 -58 -115 -151 -206 -71 -69
-196 -167 -228 -179 -7 -2 -9 -8 -4 -12 4 -5 49 13 101 38 109 54 211 143 313
274 57 74 63 86 52 101 -32 40 -66 54 -73 30z"/>
</g>
</svg>
