<?xml version="1.0" standalone="no"?>
<!DOCTYPE svg PUBLIC "-//W3C//DTD SVG 20010904//EN"
 "http://www.w3.org/TR/2001/REC-SVG-20010904/DTD/svg10.dtd">
<svg version="1.0" xmlns="http://www.w3.org/2000/svg"
 width="96.000000pt" height="68.000000pt" viewBox="0 0 96.000000 68.000000"
 preserveAspectRatio="xMidYMid meet">
<metadata>
Created by potrace 1.16, written by Peter Selinger 2001-2019
</metadata>
<g transform="translate(0.000000,68.000000) scale(0.100000,-0.100000)"
fill="#000000" stroke="none">
<path d="M247 557 c4 -17 8 -77 8 -132 -1 -138 -21 -201 -87 -271 -53 -56 -54
-67 -3 -35 43 26 84 70 107 114 l19 38 49 -52 c39 -41 53 -50 62 -41 28 28
-23 85 -101 114 -5 1 -7 15 -4 30 4 20 22 38 69 68 67 42 72 48 52 68 -22 22
-43 12 -73 -36 l-30 -47 -3 64 c-2 35 1 76 7 92 11 33 2 43 -47 52 l-34 7 9
-33z"/>
<path d="M120 415 c0 -19 56 -85 71 -85 29 0 24 44 -7 69 -24 19 -64 29 -64
16z"/>
</g>
</svg>
