<?xml version="1.0" standalone="no"?>
<!DOCTYPE svg PUBLIC "-//W3C//DTD SVG 20010904//EN"
 "http://www.w3.org/TR/2001/REC-SVG-20010904/DTD/svg10.dtd">
<svg version="1.0" xmlns="http://www.w3.org/2000/svg"
 width="96.000000pt" height="68.000000pt" viewBox="0 0 96.000000 68.000000"
 preserveAspectRatio="xMidYMid meet">
<metadata>
Created by potrace 1.16, written by Peter Selinger 2001-2019
</metadata>
<g transform="translate(0.000000,68.000000) scale(0.100000,-0.100000)"
fill="#000000" stroke="none">
<path d="M552 566 c-69 -15 -67 -30 5 -27 l56 3 -18 -29 c-54 -83 -53 -83 -96
-52 -16 11 -37 19 -47 17 -13 -2 -8 -9 21 -26 20 -13 37 -28 37 -33 0 -17 -65
-71 -134 -112 -38 -23 -64 -43 -57 -45 18 -6 140 55 186 93 l42 34 61 -50 c75
-61 100 -70 160 -62 76 9 79 18 15 38 -83 25 -203 83 -203 99 0 7 26 41 57 76
54 59 56 63 38 76 -22 16 -48 16 -123 0z"/>
</g>
</svg>
