<?xml version="1.0" standalone="no"?>
<!DOCTYPE svg PUBLIC "-//W3C//DTD SVG 20010904//EN"
 "http://www.w3.org/TR/2001/REC-SVG-20010904/DTD/svg10.dtd">
<svg version="1.0" xmlns="http://www.w3.org/2000/svg"
 width="96.000000pt" height="68.000000pt" viewBox="0 0 96.000000 68.000000"
 preserveAspectRatio="xMidYMid meet">
<metadata>
Created by potrace 1.16, written by Peter Selinger 2001-2019
</metadata>
<g transform="translate(0.000000,68.000000) scale(0.100000,-0.100000)"
fill="#000000" stroke="none">
<path d="M656 288 c11 -18 12 -181 1 -196 -5 -7 -18 -10 -28 -7 -15 5 -13 0 8
-22 16 -15 30 -25 31 -20 2 4 8 4 14 1 6 -4 8 2 3 16 -4 13 -3 20 2 17 6 -4 9
30 9 81 -1 86 -1 87 24 88 55 2 89 9 82 16 -4 4 -24 3 -44 -1 -32 -8 -41 -5
-63 15 -27 25 -52 33 -39 12z"/>
<path d="M630 229 c0 -5 5 -7 10 -4 6 3 10 8 10 11 0 2 -4 4 -10 4 -5 0 -10
-5 -10 -11z"/>
</g>
</svg>
