<?xml version="1.0" standalone="no"?>
<!DOCTYPE svg PUBLIC "-//W3C//DTD SVG 20010904//EN"
 "http://www.w3.org/TR/2001/REC-SVG-20010904/DTD/svg10.dtd">
<svg version="1.0" xmlns="http://www.w3.org/2000/svg"
 width="96.000000pt" height="68.000000pt" viewBox="0 0 96.000000 68.000000"
 preserveAspectRatio="xMidYMid meet">
<metadata>
Created by potrace 1.16, written by Peter Selinger 2001-2019
</metadata>
<g transform="translate(0.000000,68.000000) scale(0.100000,-0.100000)"
fill="#000000" stroke="none">
<path d="M390 161 c0 -5 9 -7 20 -4 11 3 20 7 20 9 0 2 -9 4 -20 4 -11 0 -20
-4 -20 -9z"/>
<path d="M313 149 c-18 -5 -33 -15 -33 -22 0 -9 -2 -9 -8 1 -10 16 -44 4 -35
-12 4 -8 3 -8 -6 0 -13 12 -71 6 -71 -7 0 -5 -8 -6 -17 -3 -15 5 -16 4 -3 -5
22 -15 65 -13 127 6 37 11 49 19 41 26 -8 5 -3 6 15 2 20 -4 27 -2 22 6 -5 8
0 9 16 4 19 -5 21 -4 9 4 -17 12 -15 12 -57 0z"/>
</g>
</svg>
