<?xml version="1.0" standalone="no"?>
<!DOCTYPE svg PUBLIC "-//W3C//DTD SVG 20010904//EN"
 "http://www.w3.org/TR/2001/REC-SVG-20010904/DTD/svg10.dtd">
<svg version="1.0" xmlns="http://www.w3.org/2000/svg"
 width="96.000000pt" height="68.000000pt" viewBox="0 0 96.000000 68.000000"
 preserveAspectRatio="xMidYMid meet">
<metadata>
Created by potrace 1.16, written by Peter Selinger 2001-2019
</metadata>
<g transform="translate(0.000000,68.000000) scale(0.100000,-0.100000)"
fill="#000000" stroke="none">
<path d="M230 434 c-25 -7 -64 -13 -88 -13 l-43 -1 20 -27 c12 -14 24 -43 27
-64 7 -43 32 -82 40 -62 3 7 22 15 42 18 75 12 81 15 75 30 -3 9 2 36 12 61
24 64 -2 82 -85 58z m35 -66 c-9 -51 -5 -47 -44 -58 -34 -10 -38 -5 -55 62 -7
30 2 35 67 37 l39 1 -7 -42z"/>
</g>
</svg>
