<?xml version="1.0" standalone="no"?>
<!DOCTYPE svg PUBLIC "-//W3C//DTD SVG 20010904//EN"
 "http://www.w3.org/TR/2001/REC-SVG-20010904/DTD/svg10.dtd">
<svg version="1.0" xmlns="http://www.w3.org/2000/svg"
 width="96.000000pt" height="68.000000pt" viewBox="0 0 96.000000 68.000000"
 preserveAspectRatio="xMidYMid meet">
<metadata>
Created by potrace 1.16, written by Peter Selinger 2001-2019
</metadata>
<g transform="translate(0.000000,68.000000) scale(0.100000,-0.100000)"
fill="#000000" stroke="none">
<path d="M230 490 c-14 -4 -40 -8 -59 -9 -26 -1 -32 -4 -27 -17 3 -9 6 -63 6
-120 0 -104 7 -123 34 -90 6 7 35 16 64 19 42 5 52 3 52 -9 0 -9 7 -14 18 -12
15 3 18 19 22 112 4 83 2 113 -8 123 -15 14 -62 16 -102 3z m68 -61 c3 -34 3
-35 -53 -45 l-56 -10 3 45 c3 42 5 46 33 52 48 9 70 -4 73 -42z m0 -97 c2 -23
-1 -32 -11 -32 -8 0 -34 -3 -59 -6 l-44 -6 4 35 c4 34 6 36 46 40 59 5 61 4
64 -31z"/>
</g>
</svg>
