<?xml version="1.0" standalone="no"?>
<!DOCTYPE svg PUBLIC "-//W3C//DTD SVG 20010904//EN"
 "http://www.w3.org/TR/2001/REC-SVG-20010904/DTD/svg10.dtd">
<svg version="1.0" xmlns="http://www.w3.org/2000/svg"
 width="96.000000pt" height="68.000000pt" viewBox="0 0 96.000000 68.000000"
 preserveAspectRatio="xMidYMid meet">
<metadata>
Created by potrace 1.16, written by Peter Selinger 2001-2019
</metadata>
<g transform="translate(0.000000,68.000000) scale(0.100000,-0.100000)"
fill="#000000" stroke="none">
<path d="M615 579 c-22 -4 -73 -8 -112 -8 -40 -1 -73 -4 -73 -8 0 -3 7 -14 15
-23 8 -9 19 -41 25 -70 6 -30 14 -57 18 -60 4 -3 53 -4 109 -2 l101 4 37 76
c34 71 35 77 19 89 -20 14 -77 15 -139 2z m73 -42 c3 -25 1 -27 -36 -27 -22 0
-63 -5 -92 -10 -41 -8 -56 -7 -62 2 -20 32 -3 43 82 54 47 6 90 11 95 9 6 -1
11 -14 13 -28z m-8 -54 c-1 -5 -6 -17 -13 -28 -10 -16 -25 -21 -84 -23 -68 -4
-73 -2 -73 16 0 17 10 22 63 30 82 12 107 14 107 5z"/>
</g>
</svg>
