<?xml version="1.0" standalone="no"?>
<!DOCTYPE svg PUBLIC "-//W3C//DTD SVG 20010904//EN"
 "http://www.w3.org/TR/2001/REC-SVG-20010904/DTD/svg10.dtd">
<svg version="1.0" xmlns="http://www.w3.org/2000/svg"
 width="96.000000pt" height="68.000000pt" viewBox="0 0 96.000000 68.000000"
 preserveAspectRatio="xMidYMid meet">
<metadata>
Created by potrace 1.16, written by Peter Selinger 2001-2019
</metadata>
<g transform="translate(0.000000,68.000000) scale(0.100000,-0.100000)"
fill="#000000" stroke="none">
<path d="M525 593 c-11 -53 -43 -109 -105 -187 -34 -43 -56 -75 -49 -71 49 28
109 83 138 125 19 28 38 50 42 50 4 0 40 -38 80 -85 l73 -85 68 0 c37 0 68 3
68 8 0 4 -40 26 -88 49 -109 52 -197 126 -182 153 14 26 13 36 -6 54 -22 23
-33 20 -39 -11z"/>
</g>
</svg>
