<?xml version="1.0" standalone="no"?>
<!DOCTYPE svg PUBLIC "-//W3C//DTD SVG 20010904//EN"
 "http://www.w3.org/TR/2001/REC-SVG-20010904/DTD/svg10.dtd">
<svg version="1.0" xmlns="http://www.w3.org/2000/svg"
 width="90.000000pt" height="92.000000pt" viewBox="0 0 90.000000 92.000000"
 preserveAspectRatio="xMidYMid meet">
<metadata>
Created by potrace 1.16, written by Peter Selinger 2001-2019
</metadata>
<g transform="translate(0.000000,92.000000) scale(0.100000,-0.100000)"
fill="#000000" stroke="none">
<path d="M447 864 c-4 -4 -7 -19 -7 -33 0 -14 -11 -50 -25 -80 -27 -56 -150
-221 -166 -221 -5 0 -9 -5 -9 -10 0 -7 6 -7 19 0 40 21 62 -9 77 -106 3 -23 9
-46 13 -51 4 -6 54 -4 135 5 99 11 134 12 148 3 17 -10 21 -5 43 46 14 32 32
71 40 86 14 27 13 30 -11 54 -22 22 -31 24 -67 19 -156 -26 -239 -36 -284 -36
l-51 0 56 58 c31 31 73 85 92 119 19 34 39 63 45 63 5 0 51 -42 101 -94 127
-130 129 -131 209 -116 36 7 67 16 70 20 3 4 -30 20 -73 35 -42 15 -93 36
-112 48 -72 43 -173 129 -189 160 -16 31 -40 45 -54 31z m203 -339 c0 -7 -5
-36 -10 -62 l-11 -49 -54 -1 -53 -1 -4 58 c-3 59 -3 59 27 63 73 9 105 7 105
-8z m-180 -24 c5 -11 10 -37 10 -59 0 -40 0 -40 -46 -47 -26 -3 -50 -3 -54 2
-4 4 -10 31 -13 60 -6 50 -5 52 21 56 58 9 72 7 82 -12z"/>
<path d="M563 474 c-12 -24 -20 -44 -17 -44 9 0 74 52 74 59 0 3 -8 11 -18 17
-16 10 -21 6 -39 -32z"/>
<path d="M390 484 c0 -14 32 -64 41 -64 20 0 4 53 -18 61 -13 5 -23 6 -23 3z"/>
<path d="M143 639 c-23 -11 -61 -21 -85 -23 -24 -2 -44 -4 -46 -5 -1 -1 4 -11
12 -23 8 -13 17 -48 21 -78 3 -30 11 -67 16 -81 10 -26 12 -26 37 -13 15 8 36
14 47 14 37 0 64 12 59 25 -3 7 6 47 20 89 14 42 26 78 26 81 0 5 -56 36 -62
34 -2 0 -22 -9 -45 -20z m27 -68 c0 -75 -10 -99 -42 -106 -16 -4 -31 -5 -33
-3 -2 2 -7 31 -10 64 l-7 61 38 11 c22 5 42 10 47 11 4 1 7 -16 7 -38z"/>
<path d="M467 642 c-55 -16 -70 -33 -32 -41 22 -4 127 17 146 30 12 8 12 11
-1 19 -19 13 -42 11 -113 -8z"/>
<path d="M525 324 c-33 -8 -83 -14 -111 -15 l-51 -1 5 -122 c2 -66 7 -124 11
-128 3 -3 29 -2 56 2 88 15 166 12 180 -7 11 -15 14 -14 28 8 11 17 16 55 18
133 3 103 2 110 -20 127 -26 21 -33 22 -116 3z m75 -72 c0 -37 -1 -38 -32 -38
-18 0 -61 -4 -95 -8 l-63 -9 0 41 c0 46 3 47 128 50 l62 2 0 -38z m6 -107 l-1
-36 -96 -5 -97 -5 -4 35 -4 35 51 4 c27 2 73 4 101 5 l51 2 -1 -35z"/>
</g>
</svg>
