<?xml version="1.0" standalone="no"?>
<!DOCTYPE svg PUBLIC "-//W3C//DTD SVG 20010904//EN"
 "http://www.w3.org/TR/2001/REC-SVG-20010904/DTD/svg10.dtd">
<svg version="1.0" xmlns="http://www.w3.org/2000/svg"
 width="96.000000pt" height="68.000000pt" viewBox="0 0 96.000000 68.000000"
 preserveAspectRatio="xMidYMid meet">
<metadata>
Created by potrace 1.16, written by Peter Selinger 2001-2019
</metadata>
<g transform="translate(0.000000,68.000000) scale(0.100000,-0.100000)"
fill="#000000" stroke="none">
<path d="M450 191 c0 -92 53 -125 205 -126 91 0 155 13 190 39 19 14 19 16 3
48 -9 18 -19 42 -23 53 -7 19 -8 19 -17 -5 -34 -88 -65 -104 -194 -98 -111 6
-134 21 -134 88 0 38 -4 50 -15 50 -11 0 -15 -12 -15 -49z"/>
</g>
</svg>
