<?xml version="1.0" standalone="no"?>
<!DOCTYPE svg PUBLIC "-//W3C//DTD SVG 20010904//EN"
 "http://www.w3.org/TR/2001/REC-SVG-20010904/DTD/svg10.dtd">
<svg version="1.0" xmlns="http://www.w3.org/2000/svg"
 width="90.000000pt" height="92.000000pt" viewBox="0 0 90.000000 92.000000"
 preserveAspectRatio="xMidYMid meet">
<metadata>
Created by potrace 1.16, written by Peter Selinger 2001-2019
</metadata>
<g transform="translate(0.000000,92.000000) scale(0.100000,-0.100000)"
fill="#000000" stroke="none">
<path d="M447 864 c-3 -4 5 -30 18 -59 l23 -53 -132 -16 c-166 -22 -167 -22
-137 -45 23 -18 24 -21 18 -117 -10 -169 -66 -337 -150 -447 -44 -56 -33 -61
23 -11 85 77 144 230 175 450 9 65 17 120 18 121 4 3 275 33 362 39 l80 6 -30
25 c-29 26 -54 27 -156 6 -27 -5 -29 -3 -29 23 0 16 -4 34 -8 40 -10 16 -68
44 -75 38z"/>
<path d="M559 683 c-3 -47 3 -604 8 -621 3 -12 9 -22 13 -22 13 0 30 94 30
160 l0 58 68 7 c128 11 153 16 149 28 -7 24 -52 37 -88 27 -20 -6 -57 -14 -83
-19 l-48 -9 6 37 c3 20 6 43 6 52 0 12 14 18 53 23 76 10 98 17 94 29 -6 20
-50 24 -102 10 -27 -7 -50 -13 -50 -13 0 0 2 25 3 55 4 53 5 55 32 55 44 0
130 20 130 31 0 21 -69 23 -138 3 -21 -6 -22 -4 -20 41 3 46 1 49 -29 62 -18
7 -33 10 -34 6z"/>
<path d="M403 626 c3 -8 9 -31 13 -50 6 -33 4 -36 -16 -36 -32 0 -100 -22
-100 -32 0 -16 32 -21 76 -11 l44 10 0 -38 c0 -32 -4 -39 -20 -39 -10 0 -29
-4 -42 -9 -13 -5 -36 -12 -51 -16 -17 -3 -25 -10 -21 -17 4 -7 29 -9 71 -5
l65 6 -7 -37 c-3 -20 -10 -40 -13 -43 -15 -13 -107 -39 -141 -39 l-36 -1 33
-29 32 -30 56 31 55 31 -7 -27 c-9 -36 -47 -102 -79 -139 -32 -37 -31 -40 3
-22 45 23 98 89 116 142 21 64 36 171 36 261 0 39 4 83 10 97 8 21 6 28 -13
41 -28 20 -71 20 -64 1z"/>
<path d="M70 600 c0 -18 50 -91 66 -97 23 -8 37 12 30 41 -4 17 -21 33 -46 46
-45 23 -50 24 -50 10z"/>
<path d="M126 414 c-33 -25 -73 -48 -88 -51 -15 -3 -28 -11 -28 -18 0 -14 32
-45 47 -45 13 0 104 103 122 138 15 28 17 29 -53 -24z"/>
</g>
</svg>
