<?xml version="1.0" standalone="no"?>
<!DOCTYPE svg PUBLIC "-//W3C//DTD SVG 20010904//EN"
 "http://www.w3.org/TR/2001/REC-SVG-20010904/DTD/svg10.dtd">
<svg version="1.0" xmlns="http://www.w3.org/2000/svg"
 width="96.000000pt" height="68.000000pt" viewBox="0 0 96.000000 68.000000"
 preserveAspectRatio="xMidYMid meet">
<metadata>
Created by potrace 1.16, written by Peter Selinger 2001-2019
</metadata>
<g transform="translate(0.000000,68.000000) scale(0.100000,-0.100000)"
fill="#000000" stroke="none">
<path d="M480 596 c0 -8 12 -27 28 -43 l27 -30 -132 -13 c-73 -7 -133 -16
-133 -21 0 -4 9 -13 20 -19 56 -30 -15 -275 -112 -385 -46 -53 -36 -65 20 -24
66 49 110 125 138 242 14 56 28 115 32 132 9 37 26 41 226 55 82 5 152 13 155
16 3 3 -3 12 -14 21 -16 12 -37 13 -102 8 -79 -6 -81 -5 -76 15 3 12 -2 29
-12 40 -21 23 -65 27 -65 6z"/>
<path d="M590 263 c0 -202 4 -253 20 -253 10 0 30 81 30 124 l0 34 90 8 c50 3
93 10 95 15 10 15 -61 21 -120 10 -32 -6 -60 -11 -62 -11 -2 0 -3 17 -3 39 l0
38 71 7 c49 5 68 11 61 18 -13 13 -47 14 -90 4 l-33 -8 3 38 c2 25 8 40 18 41
8 1 36 5 63 8 76 10 59 29 -19 21 l-66 -7 5 28 c5 29 -14 52 -45 53 -17 0 -18
-16 -18 -207z"/>
<path d="M457 407 l5 -34 -51 -13 c-61 -14 -59 -24 6 -25 39 0 46 -3 49 -21 3
-19 -4 -23 -56 -34 -71 -15 -71 -30 1 -23 l50 4 -3 -32 c-3 -36 -24 -46 -105
-51 -47 -2 -54 -11 -22 -28 16 -9 30 -8 60 4 49 20 49 20 49 -3 0 -11 -16 -38
-35 -61 -19 -23 -35 -44 -35 -46 0 -30 101 75 118 123 11 33 35 253 28 260 -1
2 -17 6 -34 9 -31 6 -31 6 -25 -29z"/>
<path d="M150 414 c0 -5 15 -27 34 -49 29 -34 36 -38 50 -26 22 19 20 38 -6
55 -29 19 -78 31 -78 20z"/>
<path d="M215 285 c-22 -14 -57 -30 -77 -37 -44 -13 -49 -33 -13 -50 23 -10
30 -7 82 38 82 72 86 97 8 49z"/>
</g>
</svg>
