<?xml version="1.0" standalone="no"?>
<!DOCTYPE svg PUBLIC "-//W3C//DTD SVG 20010904//EN"
 "http://www.w3.org/TR/2001/REC-SVG-20010904/DTD/svg10.dtd">
<svg version="1.0" xmlns="http://www.w3.org/2000/svg"
 width="96.000000pt" height="68.000000pt" viewBox="0 0 96.000000 68.000000"
 preserveAspectRatio="xMidYMid meet">
<metadata>
Created by potrace 1.16, written by Peter Selinger 2001-2019
</metadata>
<g transform="translate(0.000000,68.000000) scale(0.100000,-0.100000)"
fill="#000000" stroke="none">
<path d="M539 583 c-16 -14 -56 -37 -87 -50 l-57 -24 42 5 c24 4 57 13 75 21
18 8 52 19 76 25 35 9 41 14 32 25 -21 25 -49 24 -81 -2z"/>
<path d="M629 494 l-34 -37 29 7 c17 4 46 14 65 22 33 14 33 15 15 29 -28 21
-37 19 -75 -21z"/>
<path d="M480 505 c0 -9 44 -55 52 -55 19 0 20 32 2 45 -18 14 -54 20 -54 10z"/>
<path d="M390 482 c0 -12 34 -42 48 -42 23 0 12 31 -14 40 -31 12 -34 12 -34
2z"/>
<path d="M200 434 c-25 -8 -60 -12 -77 -9 -39 7 -39 6 -14 -37 11 -18 22 -52
26 -76 7 -42 34 -70 43 -44 2 7 18 12 35 13 57 2 72 11 75 48 1 19 6 39 11 45
18 24 18 53 0 64 -23 15 -42 14 -99 -4z m40 -62 c0 -41 -14 -62 -41 -62 -22 0
-25 6 -34 52 -6 33 -5 37 17 41 55 10 58 9 58 -31z"/>
<path d="M665 439 c-65 -14 -279 -26 -291 -17 -16 12 -70 -80 -55 -95 12 -12
40 7 51 37 6 18 25 23 136 38 141 19 224 22 224 10 0 -4 -5 -13 -12 -20 -9 -9
-3 -12 28 -11 21 1 50 4 63 8 l24 6 -32 28 c-34 29 -63 32 -136 16z"/>
<path d="M500 370 c0 -10 32 -30 49 -30 21 0 11 28 -11 34 -32 8 -38 7 -38 -4z"/>
<path d="M625 363 c25 -24 63 -35 71 -21 9 15 -6 25 -51 33 -40 7 -40 6 -20
-12z"/>
<path d="M385 325 c-16 -28 -17 -37 -7 -47 25 -24 54 38 34 70 -6 9 -14 2 -27
-23z"/>
<path d="M460 326 c0 -29 61 -60 125 -64 90 -6 151 25 93 47 -62 23 -69 23
-66 4 6 -35 -95 -30 -132 7 -15 15 -20 16 -20 6z"/>
<path d="M447 220 c-11 -24 -41 -58 -73 -83 -65 -51 -54 -61 18 -17 50 31 52
32 85 16 18 -9 33 -19 33 -24 0 -12 -77 -49 -140 -67 l-55 -15 63 4 c42 3 79
13 113 31 33 17 55 23 62 17 7 -5 38 -23 69 -41 47 -25 67 -31 115 -30 50 1
133 14 110 18 -38 6 -182 47 -220 64 l-48 20 47 48 c44 45 45 48 26 58 -13 7
-44 8 -81 5 -51 -6 -61 -4 -61 9 0 13 -20 27 -38 27 -4 0 -15 -18 -25 -40z
m153 -19 c0 -17 -42 -61 -59 -61 -21 0 -71 22 -71 32 0 12 23 22 65 29 60 10
65 10 65 0z"/>
</g>
</svg>
