<?xml version="1.0" standalone="no"?>
<!DOCTYPE svg PUBLIC "-//W3C//DTD SVG 20010904//EN"
 "http://www.w3.org/TR/2001/REC-SVG-20010904/DTD/svg10.dtd">
<svg version="1.0" xmlns="http://www.w3.org/2000/svg"
 width="96.000000pt" height="68.000000pt" viewBox="0 0 96.000000 68.000000"
 preserveAspectRatio="xMidYMid meet">
<metadata>
Created by potrace 1.16, written by Peter Selinger 2001-2019
</metadata>
<g transform="translate(0.000000,68.000000) scale(0.100000,-0.100000)"
fill="#000000" stroke="none">
<path d="M407 551 c-12 -56 -152 -193 -263 -257 -47 -27 -54 -33 -34 -33 62
-1 177 73 275 176 l71 73 94 -81 c103 -88 127 -115 87 -100 -13 5 -30 5 -39 0
-9 -5 -43 -12 -76 -15 l-59 -7 13 -36 c7 -20 13 -44 14 -53 0 -12 8 -18 25
-18 15 0 25 -6 25 -14 0 -13 -56 -93 -87 -125 -8 -7 -12 -16 -9 -18 5 -5 57
29 90 59 20 18 26 17 61 -13 11 -10 31 -27 44 -38 29 -25 49 -27 58 -6 8 23
-24 54 -71 67 -56 16 -61 22 -41 51 9 15 14 31 10 37 -4 6 5 10 20 10 21 0 26
4 21 16 -3 8 4 33 16 54 20 34 26 37 54 33 33 -5 144 14 144 25 0 4 -40 20
-89 35 -91 30 -177 77 -164 92 5 4 3 5 -4 1 -12 -7 -113 59 -113 74 0 15 -31
40 -49 40 -12 0 -20 -10 -24 -29z m193 -273 c0 -35 -13 -47 -49 -50 -29 -3
-35 1 -44 26 -12 35 1 46 56 46 32 0 37 -3 37 -22z"/>
<path d="M443 381 c-88 -16 -99 -36 -15 -27 102 12 132 18 127 26 -9 15 -41
15 -112 1z"/>
<path d="M358 305 c-5 -5 -52 -12 -97 -14 -17 -1 -21 -4 -13 -13 5 -7 15 -32
21 -55 9 -34 15 -40 31 -36 39 10 21 -31 -41 -89 -33 -32 -58 -58 -54 -58 12
0 50 23 88 53 l38 30 29 -28 c16 -15 36 -25 47 -23 16 3 16 6 -8 29 -14 14
-32 28 -40 31 -11 4 -12 8 -1 20 7 9 11 22 10 29 -2 8 6 15 17 17 15 2 23 15
32 50 6 26 9 50 6 55 -5 8 -57 10 -65 2z m22 -49 c0 -37 -12 -46 -61 -46 -22
0 -29 5 -29 19 0 11 -3 26 -6 35 -4 11 4 16 38 19 23 2 46 4 51 5 4 1 7 -13 7
-32z"/>
</g>
</svg>
