<?xml version="1.0" standalone="no"?>
<!DOCTYPE svg PUBLIC "-//W3C//DTD SVG 20010904//EN"
 "http://www.w3.org/TR/2001/REC-SVG-20010904/DTD/svg10.dtd">
<svg version="1.0" xmlns="http://www.w3.org/2000/svg"
 width="96.000000pt" height="68.000000pt" viewBox="0 0 96.000000 68.000000"
 preserveAspectRatio="xMidYMid meet">
<metadata>
Created by potrace 1.16, written by Peter Selinger 2001-2019
</metadata>
<g transform="translate(0.000000,68.000000) scale(0.100000,-0.100000)"
fill="#000000" stroke="none">
<path d="M410 560 c0 -12 -7 -34 -15 -49 -21 -42 -163 -170 -237 -215 -46 -28
-55 -36 -33 -31 63 14 161 79 244 162 46 46 88 82 95 79 6 -3 58 -46 116 -95
l105 -91 55 1 c30 1 66 4 80 8 l24 7 -29 12 c-17 6 -60 22 -97 36 -77 28 -248
139 -248 161 0 14 -29 35 -49 35 -6 0 -11 -9 -11 -20z"/>
</g>
</svg>
