<?xml version="1.0" standalone="no"?>
<!DOCTYPE svg PUBLIC "-//W3C//DTD SVG 20010904//EN"
 "http://www.w3.org/TR/2001/REC-SVG-20010904/DTD/svg10.dtd">
<svg version="1.0" xmlns="http://www.w3.org/2000/svg"
 width="96.000000pt" height="68.000000pt" viewBox="0 0 96.000000 68.000000"
 preserveAspectRatio="xMidYMid meet">
<metadata>
Created by potrace 1.16, written by Peter Selinger 2001-2019
</metadata>
<g transform="translate(0.000000,68.000000) scale(0.100000,-0.100000)"
fill="#000000" stroke="none">
<path d="M558 203 c-9 -2 -19 -15 -22 -28 -3 -13 -32 -52 -63 -86 l-58 -62 42
22 c23 11 54 32 68 47 l25 25 61 -45 c66 -50 77 -54 86 -31 9 25 -25 53 -84
70 l-54 16 21 29 c12 17 18 34 15 40 -6 10 -9 11 -37 3z"/>
</g>
</svg>
