<?xml version="1.0" standalone="no"?>
<!DOCTYPE svg PUBLIC "-//W3C//DTD SVG 20010904//EN"
 "http://www.w3.org/TR/2001/REC-SVG-20010904/DTD/svg10.dtd">
<svg version="1.0" xmlns="http://www.w3.org/2000/svg"
 width="96.000000pt" height="68.000000pt" viewBox="0 0 96.000000 68.000000"
 preserveAspectRatio="xMidYMid meet">
<metadata>
Created by potrace 1.16, written by Peter Selinger 2001-2019
</metadata>
<g transform="translate(0.000000,68.000000) scale(0.100000,-0.100000)"
fill="#000000" stroke="none">
<path d="M495 589 c-31 -9 -110 -23 -199 -34 -35 -5 -45 -9 -35 -16 22 -13 85
-10 182 10 54 11 90 15 93 9 4 -5 -11 -27 -32 -49 -21 -21 -35 -41 -32 -44 7
-7 178 84 178 96 0 15 -57 39 -92 38 -18 0 -46 -5 -63 -10z"/>
</g>
</svg>
