<?xml version="1.0" standalone="no"?>
<!DOCTYPE svg PUBLIC "-//W3C//DTD SVG 20010904//EN"
 "http://www.w3.org/TR/2001/REC-SVG-20010904/DTD/svg10.dtd">
<svg version="1.0" xmlns="http://www.w3.org/2000/svg"
 width="96.000000pt" height="68.000000pt" viewBox="0 0 96.000000 68.000000"
 preserveAspectRatio="xMidYMid meet">
<metadata>
Created by potrace 1.16, written by Peter Selinger 2001-2019
</metadata>
<g transform="translate(0.000000,68.000000) scale(0.100000,-0.100000)"
fill="#000000" stroke="none">
<path d="M475 229 c9 -28 -9 -39 -67 -39 -28 0 -48 -5 -48 -11 0 -6 22 -9 57
-8 47 2 59 0 61 -14 4 -18 -4 -21 -118 -37 -41 -6 -76 -12 -78 -14 -11 -12 66
-16 113 -6 30 6 69 9 85 5 18 -4 30 -2 30 3 0 6 45 14 100 18 55 3 103 10 105
14 3 5 -8 13 -24 18 -26 9 -43 8 -153 -12 -23 -5 -28 -2 -28 14 0 20 12 26 83
36 70 10 60 28 -12 21 -53 -6 -59 -4 -64 13 -3 12 -14 20 -27 20 -17 0 -20 -4
-15 -21z"/>
</g>
</svg>
