<?xml version="1.0" standalone="no"?>
<!DOCTYPE svg PUBLIC "-//W3C//DTD SVG 20010904//EN"
 "http://www.w3.org/TR/2001/REC-SVG-20010904/DTD/svg10.dtd">
<svg version="1.0" xmlns="http://www.w3.org/2000/svg"
 width="96.000000pt" height="68.000000pt" viewBox="0 0 96.000000 68.000000"
 preserveAspectRatio="xMidYMid meet">
<metadata>
Created by potrace 1.16, written by Peter Selinger 2001-2019
</metadata>
<g transform="translate(0.000000,68.000000) scale(0.100000,-0.100000)"
fill="#000000" stroke="none">
<path d="M310 184 c-19 -7 -52 -13 -72 -13 l-37 -1 15 -27 c8 -16 19 -41 24
-57 9 -25 14 -28 41 -22 18 3 44 6 60 6 24 0 29 4 29 24 0 13 9 35 20 49 l20
26 -22 15 c-26 18 -31 18 -78 0z m30 -42 c0 -34 -16 -52 -47 -52 -23 0 -54 43
-40 56 5 5 55 20 80 23 4 1 7 -12 7 -27z"/>
</g>
</svg>
