<?xml version="1.0" standalone="no"?>
<!DOCTYPE svg PUBLIC "-//W3C//DTD SVG 20010904//EN"
 "http://www.w3.org/TR/2001/REC-SVG-20010904/DTD/svg10.dtd">
<svg version="1.0" xmlns="http://www.w3.org/2000/svg"
 width="96.000000pt" height="68.000000pt" viewBox="0 0 96.000000 68.000000"
 preserveAspectRatio="xMidYMid meet">
<metadata>
Created by potrace 1.16, written by Peter Selinger 2001-2019
</metadata>
<g transform="translate(0.000000,68.000000) scale(0.100000,-0.100000)"
fill="#000000" stroke="none">
<path d="M280 441 c0 -4 9 -20 20 -34 11 -14 20 -27 20 -30 0 -3 -35 -8 -77
-12 -42 -4 -86 -11 -97 -15 -20 -7 -19 -8 6 -15 23 -6 266 29 277 41 8 8 -30
16 -54 12 -19 -4 -25 -1 -25 12 0 9 -8 24 -18 33 -20 18 -52 23 -52 8z"/>
</g>
</svg>
