<?xml version="1.0" standalone="no"?>
<!DOCTYPE svg PUBLIC "-//W3C//DTD SVG 20010904//EN"
 "http://www.w3.org/TR/2001/REC-SVG-20010904/DTD/svg10.dtd">
<svg version="1.0" xmlns="http://www.w3.org/2000/svg"
 width="96.000000pt" height="68.000000pt" viewBox="0 0 96.000000 68.000000"
 preserveAspectRatio="xMidYMid meet">
<metadata>
Created by potrace 1.16, written by Peter Selinger 2001-2019
</metadata>
<g transform="translate(0.000000,68.000000) scale(0.100000,-0.100000)"
fill="#000000" stroke="none">
<path d="M561 185 c-51 -7 -103 -10 -115 -7 -20 5 -20 4 -4 -14 10 -11 23 -43
29 -72 7 -31 18 -52 26 -52 7 0 13 4 13 9 0 5 45 12 100 16 61 4 98 10 94 16
-3 6 6 28 21 50 14 23 25 42 23 44 -15 12 -51 25 -70 24 -13 -1 -65 -7 -117
-14z m109 -37 c0 -18 -4 -38 -8 -44 -4 -6 -41 -14 -83 -18 l-77 -7 -6 37 c-4
20 -6 37 -4 39 2 2 111 18 166 24 7 0 12 -11 12 -31z"/>
</g>
</svg>
