<?xml version="1.0" standalone="no"?>
<!DOCTYPE svg PUBLIC "-//W3C//DTD SVG 20010904//EN"
 "http://www.w3.org/TR/2001/REC-SVG-20010904/DTD/svg10.dtd">
<svg version="1.0" xmlns="http://www.w3.org/2000/svg"
 width="96.000000pt" height="68.000000pt" viewBox="0 0 96.000000 68.000000"
 preserveAspectRatio="xMidYMid meet">
<metadata>
Created by potrace 1.16, written by Peter Selinger 2001-2019
</metadata>
<g transform="translate(0.000000,68.000000) scale(0.100000,-0.100000)"
fill="#000000" stroke="none">
<path d="M203 526 c3 -8 9 -45 12 -84 7 -67 7 -69 -16 -75 -13 -4 -34 -7 -46
-7 -13 0 -23 -4 -23 -10 0 -5 20 -10 45 -10 l45 0 0 -69 0 -69 -65 -13 c-36
-7 -65 -16 -65 -19 0 -8 46 -30 62 -30 13 0 229 102 225 106 -2 2 -26 -3 -55
-10 l-52 -14 0 63 0 64 35 7 c19 3 35 10 35 14 0 12 -26 19 -49 13 -19 -5 -21
-1 -21 48 0 30 5 61 10 69 7 11 3 18 -13 27 -31 17 -71 17 -64 -1z"/>
</g>
</svg>
