<?xml version="1.0" standalone="no"?>
<!DOCTYPE svg PUBLIC "-//W3C//DTD SVG 20010904//EN"
 "http://www.w3.org/TR/2001/REC-SVG-20010904/DTD/svg10.dtd">
<svg version="1.0" xmlns="http://www.w3.org/2000/svg"
 width="96.000000pt" height="68.000000pt" viewBox="0 0 96.000000 68.000000"
 preserveAspectRatio="xMidYMid meet">
<metadata>
Created by potrace 1.16, written by Peter Selinger 2001-2019
</metadata>
<g transform="translate(0.000000,68.000000) scale(0.100000,-0.100000)"
fill="#000000" stroke="none">
<path d="M610 555 c-19 -20 -57 -47 -85 -60 -40 -19 -45 -24 -25 -25 28 0 116
39 161 71 24 17 27 24 18 35 -18 22 -32 17 -69 -21z"/>
<path d="M270 547 c0 -14 -21 -47 -55 -84 -30 -34 -55 -64 -55 -67 0 -10 54
14 85 38 32 25 95 44 95 29 0 -15 -58 -72 -66 -65 -4 4 -4 2 0 -5 10 -18 -7
-23 -73 -24 l-60 -1 16 -25 c9 -13 22 -48 28 -76 10 -42 16 -51 31 -49 82 13
161 18 171 10 14 -11 23 4 54 87 21 57 21 59 3 72 -12 9 -33 12 -59 9 -22 -3
-43 -5 -47 -5 -5 -1 -8 -5 -8 -11 0 -5 13 -8 30 -6 33 4 53 -13 44 -38 -4 -11
-18 -16 -43 -16 -35 0 -37 1 -37 34 0 31 7 40 62 83 35 26 62 52 60 57 -6 23
-36 30 -78 19 -49 -13 -57 -10 -37 13 11 14 11 18 -6 30 -30 22 -55 18 -55 -9z
m20 -211 c0 -19 -6 -25 -35 -30 -41 -8 -55 -2 -55 24 0 21 9 25 57 28 29 2 33
0 33 -22z m110 -43 c0 -17 -16 -30 -42 -36 -29 -8 -43 5 -34 28 6 15 76 22 76
8z m-112 -25 c-4 -29 -62 -39 -72 -13 -9 25 2 35 40 35 31 0 35 -3 32 -22z"/>
<path d="M611 470 c-17 -21 -51 -53 -76 -71 -37 -27 -43 -35 -33 -45 10 -10
24 -11 53 -4 22 5 46 10 54 10 18 0 -53 -57 -96 -78 -18 -9 -33 -22 -33 -29 0
-18 41 -26 74 -14 63 24 67 20 64 -71 l-3 -83 -35 3 -35 4 25 -27 c71 -76 90
-57 90 90 l0 113 35 6 c26 5 40 3 51 -9 21 -21 44 -19 44 4 0 22 -49 61 -75
61 -14 0 -15 -3 -6 -14 9 -11 8 -15 -4 -20 -28 -10 -150 -19 -142 -10 5 5 45
30 90 55 83 47 96 63 65 83 -15 9 -23 6 -43 -17 -18 -19 -36 -27 -60 -27 -18
0 -40 -3 -49 -6 -38 -15 -11 17 49 57 36 24 65 46 65 49 0 3 -8 10 -19 17 -16
10 -23 7 -50 -27z"/>
<path d="M506 175 c-3 -13 -22 -40 -41 -60 -40 -39 -24 -48 21 -13 60 47 77
66 71 82 -10 25 -44 19 -51 -9z"/>
<path d="M720 182 c0 -4 17 -26 39 -50 43 -47 77 -57 67 -19 -3 12 -6 25 -6
29 0 3 -16 15 -36 27 -36 21 -64 27 -64 13z"/>
<path d="M380 174 c0 -15 42 -64 51 -59 18 12 9 42 -16 53 -29 14 -35 14 -35
6z"/>
<path d="M138 139 c-21 -35 -23 -65 -6 -75 17 -11 38 26 38 68 0 46 -9 48 -32
7z"/>
<path d="M310 159 c0 -20 21 -49 35 -49 21 0 19 24 -3 43 -21 20 -32 22 -32 6z"/>
<path d="M220 151 c0 -5 9 -19 19 -32 15 -18 22 -21 31 -12 9 8 7 16 -9 32
-22 22 -41 27 -41 12z"/>
</g>
</svg>
