<?xml version="1.0" standalone="no"?>
<!DOCTYPE svg PUBLIC "-//W3C//DTD SVG 20010904//EN"
 "http://www.w3.org/TR/2001/REC-SVG-20010904/DTD/svg10.dtd">
<svg version="1.0" xmlns="http://www.w3.org/2000/svg"
 width="90.000000pt" height="92.000000pt" viewBox="0 0 90.000000 92.000000"
 preserveAspectRatio="xMidYMid meet">
<metadata>
Created by potrace 1.16, written by Peter Selinger 2001-2019
</metadata>
<g transform="translate(0.000000,92.000000) scale(0.100000,-0.100000)"
fill="#000000" stroke="none">
<path d="M505 763 c0 -49 -4 -105 -8 -125 -8 -36 -10 -38 -47 -38 -21 0 -42
-5 -45 -10 -8 -12 43 -33 63 -25 11 4 12 -2 7 -28 -10 -44 -14 -47 -79 -54
-33 -3 -56 -11 -56 -18 0 -19 46 -38 75 -31 22 6 26 4 22 -8 -12 -30 -56 -93
-102 -144 -26 -28 -44 -52 -40 -52 18 0 75 37 113 73 l42 41 0 -93 c0 -145 24
-171 158 -171 56 0 87 5 112 18 51 28 55 40 27 102 l-24 55 -7 -42 c-4 -23
-16 -49 -27 -59 -25 -23 -127 -31 -169 -14 -29 12 -30 14 -30 79 0 88 15 115
63 119 l38 3 -3 -43 c-3 -39 -6 -43 -30 -46 l-28 -3 22 -30 c37 -49 63 -33 78
48 4 26 11 58 15 70 11 34 -30 50 -89 33 -25 -7 -57 -10 -70 -6 l-26 6 22 45
c19 38 27 45 61 51 l41 6 84 -91 c77 -83 87 -91 120 -91 21 1 50 7 66 13 l30
13 -63 24 c-61 22 -160 87 -190 124 -14 17 -10 18 74 15 96 -4 116 7 71 36
-23 16 -34 16 -138 1 -62 -8 -114 -13 -116 -11 -2 2 -1 17 3 34 4 21 14 32 28
35 144 28 158 34 117 56 -14 7 -33 7 -65 -1 -25 -6 -48 -9 -51 -6 -5 5 6 96
22 173 5 26 2 32 -21 42 -47 22 -50 18 -50 -75z"/>
<path d="M124 783 c3 -16 9 -61 13 -101 7 -87 3 -92 -75 -92 l-53 0 15 -27 c7
-16 17 -56 21 -90 7 -63 27 -98 39 -68 3 8 17 15 31 15 24 0 25 -3 25 -59 l0
-58 -45 -13 c-24 -7 -56 -10 -70 -8 -22 5 -26 2 -23 -15 2 -12 14 -28 28 -35
24 -13 33 -11 134 38 l109 53 18 -24 c13 -18 21 -21 29 -13 22 22 7 67 -29 91
-47 32 -67 31 -45 -2 16 -25 16 -25 -20 -40 -19 -8 -38 -15 -41 -15 -3 0 -5
24 -5 54 l0 55 55 6 c32 4 55 12 54 19 -3 27 3 46 27 82 l26 38 -27 23 c-23
20 -33 23 -76 17 l-49 -7 0 39 c1 22 5 59 10 84 8 40 7 47 -12 63 -11 9 -31
17 -45 17 -22 0 -25 -3 -19 -27z m126 -235 c0 -54 -10 -76 -36 -81 -23 -4 -24
-2 -24 54 0 59 0 59 30 59 27 0 30 -3 30 -32z m-110 -38 c0 -57 -1 -60 -24
-60 -26 0 -36 21 -36 77 0 31 1 32 53 42 4 0 7 -26 7 -59z"/>
<path d="M651 768 c-7 -18 -23 -50 -37 -71 l-25 -38 31 16 c17 9 51 31 75 50
40 30 43 34 27 48 -9 8 -27 18 -38 21 -18 6 -24 1 -33 -26z"/>
<path d="M370 755 c0 -23 56 -105 71 -105 14 0 20 39 9 60 -13 25 -80 62 -80
45z"/>
</g>
</svg>
