<?xml version="1.0" standalone="no"?>
<!DOCTYPE svg PUBLIC "-//W3C//DTD SVG 20010904//EN"
 "http://www.w3.org/TR/2001/REC-SVG-20010904/DTD/svg10.dtd">
<svg version="1.0" xmlns="http://www.w3.org/2000/svg"
 width="96.000000pt" height="68.000000pt" viewBox="0 0 96.000000 68.000000"
 preserveAspectRatio="xMidYMid meet">
<metadata>
Created by potrace 1.16, written by Peter Selinger 2001-2019
</metadata>
<g transform="translate(0.000000,68.000000) scale(0.100000,-0.100000)"
fill="#000000" stroke="none">
<path d="M592 518 c-7 -7 -12 -22 -12 -35 0 -13 -1 -23 -3 -23 -1 0 -17 4 -35
9 -17 5 -32 6 -32 1 0 -4 12 -11 26 -14 35 -9 26 -26 -32 -59 -40 -23 -44 -27
-19 -22 17 3 47 15 69 26 l38 20 52 -36 c52 -35 84 -41 136 -25 29 8 27 10
-75 40 -98 29 -101 31 -85 69 19 46 1 78 -28 49z"/>
</g>
</svg>
