<?xml version="1.0" standalone="no"?>
<!DOCTYPE svg PUBLIC "-//W3C//DTD SVG 20010904//EN"
 "http://www.w3.org/TR/2001/REC-SVG-20010904/DTD/svg10.dtd">
<svg version="1.0" xmlns="http://www.w3.org/2000/svg"
 width="96.000000pt" height="68.000000pt" viewBox="0 0 96.000000 68.000000"
 preserveAspectRatio="xMidYMid meet">
<metadata>
Created by potrace 1.16, written by Peter Selinger 2001-2019
</metadata>
<g transform="translate(0.000000,68.000000) scale(0.100000,-0.100000)"
fill="#000000" stroke="none">
<path d="M480 618 c0 -7 7 -23 15 -35 14 -20 13 -21 -28 -27 -23 -3 -81 -8
-129 -12 -49 -4 -88 -10 -88 -13 0 -3 10 -12 21 -20 20 -12 21 -19 16 -94 -8
-118 -55 -236 -124 -316 -61 -71 -17 -63 55 10 49 50 89 146 113 273 11 61 24
114 28 119 9 10 190 31 198 24 3 -3 3 -18 -1 -32 -5 -21 -12 -25 -43 -25 -20
0 -33 3 -30 7 11 10 -13 33 -35 33 -15 0 -17 -3 -8 -19 15 -28 13 -31 -19 -31
-17 0 -33 -5 -37 -11 -5 -9 9 -10 50 -7 49 4 56 2 56 -14 0 -15 -8 -18 -45
-18 -25 0 -45 -4 -45 -10 0 -5 22 -10 50 -10 39 0 48 -3 44 -14 -4 -10 -29
-17 -75 -22 -38 -4 -69 -11 -69 -17 0 -6 24 -7 65 -3 36 4 65 3 65 -2 0 -19
-135 -122 -159 -122 -5 0 -12 -4 -16 -9 -6 -11 41 1 74 18 18 10 22 9 30 -13
10 -26 8 -98 -4 -159 -11 -53 9 -50 125 22 21 13 6 25 -17 13 -10 -5 -31 -12
-46 -16 -27 -6 -28 -5 -25 26 l3 33 77 3 78 3 20 44 c11 24 20 49 20 54 0 14
-47 14 -128 1 -35 -6 -73 -8 -85 -4 -20 6 -20 7 4 24 13 10 27 16 32 13 14 -9
107 8 101 19 -4 5 -23 7 -47 2 -37 -6 -40 -5 -28 9 28 34 48 29 137 -33 73
-50 94 -60 128 -59 23 0 50 4 61 8 17 7 12 10 -25 20 -25 7 -54 15 -65 18 -23
6 -176 82 -188 93 -5 4 33 8 84 9 96 2 114 5 103 23 -5 7 -38 9 -100 4 -77 -5
-94 -4 -94 8 0 16 30 26 83 26 21 0 37 5 37 11 0 8 -19 10 -60 6 -45 -4 -60
-2 -60 8 0 15 31 25 80 25 40 0 68 14 51 24 -6 4 -26 4 -46 0 -41 -7 -43 -3
-11 30 20 22 32 26 80 26 31 0 56 4 56 10 0 11 -63 30 -87 25 -73 -15 -93 -14
-93 4 0 23 -17 37 -53 46 -20 5 -27 3 -27 -7z m110 -408 c0 -10 -120 -31 -132
-24 -18 11 11 28 60 34 49 6 72 3 72 -10z m0 -40 c0 -12 8 -10 -75 -17 -48 -3
-67 -2 -60 5 17 17 135 28 135 12z"/>
<path d="M145 420 c-9 -14 46 -59 73 -60 37 0 29 38 -13 56 -41 17 -52 17 -60
4z"/>
<path d="M205 315 c-22 -14 -57 -30 -77 -37 -21 -6 -38 -14 -38 -18 0 -10 35
-40 47 -40 10 0 113 104 113 114 0 8 -1 8 -45 -19z"/>
<path d="M628 138 c-26 -32 -22 -39 15 -23 33 14 43 38 17 42 -8 2 -23 -7 -32
-19z"/>
<path d="M560 103 c1 -13 134 -90 147 -86 27 9 -8 41 -72 67 -72 29 -75 29
-75 19z"/>
</g>
</svg>
