<?xml version="1.0" standalone="no"?>
<!DOCTYPE svg PUBLIC "-//W3C//DTD SVG 20010904//EN"
 "http://www.w3.org/TR/2001/REC-SVG-20010904/DTD/svg10.dtd">
<svg version="1.0" xmlns="http://www.w3.org/2000/svg"
 width="90.000000pt" height="92.000000pt" viewBox="0 0 90.000000 92.000000"
 preserveAspectRatio="xMidYMid meet">
<metadata>
Created by potrace 1.16, written by Peter Selinger 2001-2019
</metadata>
<g transform="translate(0.000000,92.000000) scale(0.100000,-0.100000)"
fill="#000000" stroke="none">
<path d="M181 788 c-6 -17 -26 -51 -44 -74 -27 -36 -38 -43 -66 -44 -32 0 -33
-1 -19 -17 20 -24 27 -45 43 -137 13 -77 32 -116 42 -88 3 6 17 12 33 12 22 0
30 -6 39 -31 21 -60 16 -67 -49 -80 -51 -10 -58 -14 -48 -26 9 -11 25 -14 59
-10 l47 6 4 -50 c1 -28 -1 -54 -7 -59 -17 -14 -88 -30 -132 -30 -24 0 -43 -4
-43 -8 0 -5 13 -21 30 -37 l29 -28 68 31 c38 17 109 45 158 63 50 17 96 38
104 45 28 25 -11 25 -87 0 l-72 -25 0 53 0 53 53 14 c33 9 52 20 52 29 0 19
-38 25 -77 11 l-31 -11 6 35 c5 31 2 37 -21 50 -27 14 -26 14 25 15 32 0 53
-5 56 -12 10 -28 36 19 62 112 38 131 37 141 -4 161 -29 13 -39 14 -70 3 -20
-7 -44 -13 -53 -14 -10 0 -18 -4 -18 -10 0 -5 23 -10 50 -10 50 0 50 0 50 -33
0 -31 -3 -34 -50 -46 -60 -15 -56 -35 5 -29 l42 5 -7 -39 c-4 -21 -9 -40 -11
-42 -7 -5 -180 -28 -183 -25 -2 2 -6 21 -9 41 -5 36 -5 37 34 43 21 4 41 10
44 15 8 13 -25 21 -60 14 -32 -6 -33 -5 -37 35 -3 38 -1 43 37 71 22 16 57 45
79 63 l39 34 -24 17 c-35 24 -56 20 -68 -16z"/>
<path d="M575 779 c-27 -13 -51 -17 -74 -13 -30 5 -33 3 -26 -13 15 -32 17
-113 5 -161 -6 -26 -25 -64 -42 -85 l-30 -39 28 15 c66 34 94 89 94 183 0 59
11 72 64 81 l36 6 -6 -75 c-12 -135 20 -175 131 -166 71 6 89 22 56 49 -18 15
-32 18 -50 13 -14 -4 -39 -8 -56 -8 -28 -1 -30 1 -33 43 -2 24 4 66 12 92 21
64 20 74 -9 87 -34 16 -52 14 -100 -9z"/>
<path d="M620 458 c-30 -10 -80 -21 -112 -25 -81 -8 -90 -17 -50 -49 18 -14
50 -51 71 -83 l39 -57 -57 -42 c-31 -23 -78 -50 -106 -59 -45 -16 -47 -18 -22
-21 36 -4 113 21 170 58 l45 28 26 -37 c15 -21 40 -50 56 -66 27 -26 33 -28
87 -22 68 7 128 26 116 37 -4 4 -33 15 -63 25 -61 20 -133 55 -167 82 l-23 18
41 80 c23 44 48 87 55 95 16 19 7 36 -26 48 -18 7 -40 4 -80 -10z m20 -60 c-1
-29 -36 -108 -49 -108 -17 0 -85 90 -75 100 11 10 71 28 102 29 16 1 22 -5 22
-21z"/>
</g>
</svg>
