<?xml version="1.0" standalone="no"?>
<!DOCTYPE svg PUBLIC "-//W3C//DTD SVG 20010904//EN"
 "http://www.w3.org/TR/2001/REC-SVG-20010904/DTD/svg10.dtd">
<svg version="1.0" xmlns="http://www.w3.org/2000/svg"
 width="96.000000pt" height="68.000000pt" viewBox="0 0 96.000000 68.000000"
 preserveAspectRatio="xMidYMid meet">
<metadata>
Created by potrace 1.16, written by Peter Selinger 2001-2019
</metadata>
<g transform="translate(0.000000,68.000000) scale(0.100000,-0.100000)"
fill="#000000" stroke="none">
<path d="M530 506 c0 -34 -1 -35 -42 -38 -53 -4 -52 -24 1 -21 34 1 40 -2 44
-23 4 -22 0 -24 -44 -30 -64 -9 -63 -24 1 -24 43 0 50 -3 50 -20 0 -28 28 -25
32 3 2 18 12 24 60 32 79 14 83 25 9 25 -59 0 -62 1 -59 23 3 19 12 23 61 31
76 12 74 30 -3 24 l-60 -4 0 28 c0 23 -4 28 -25 28 -22 0 -25 -4 -25 -34z"/>
</g>
</svg>
