<?xml version="1.0" standalone="no"?>
<!DOCTYPE svg PUBLIC "-//W3C//DTD SVG 20010904//EN"
 "http://www.w3.org/TR/2001/REC-SVG-20010904/DTD/svg10.dtd">
<svg version="1.0" xmlns="http://www.w3.org/2000/svg"
 width="96.000000pt" height="68.000000pt" viewBox="0 0 96.000000 68.000000"
 preserveAspectRatio="xMidYMid meet">
<metadata>
Created by potrace 1.16, written by Peter Selinger 2001-2019
</metadata>
<g transform="translate(0.000000,68.000000) scale(0.100000,-0.100000)"
fill="#000000" stroke="none">
<path d="M630 429 c-19 -4 -77 -11 -127 -15 -91 -7 -102 -11 -84 -30 5 -5 16
-45 25 -89 18 -89 28 -104 50 -85 11 8 44 11 112 9 l97 -4 28 90 c16 50 29 95
29 102 0 12 -53 34 -79 32 -9 -1 -32 -5 -51 -10z m48 -56 c3 -32 2 -33 -35
-33 -21 0 -68 -3 -105 -7 l-68 -6 0 26 c0 29 9 33 103 47 88 13 102 10 105
-27z m-8 -70 c-1 -54 -6 -58 -93 -60 -86 -2 -97 3 -97 44 0 21 5 22 88 26 48
1 90 4 95 5 4 1 7 -6 7 -15z"/>
</g>
</svg>
