<?xml version="1.0" standalone="no"?>
<!DOCTYPE svg PUBLIC "-//W3C//DTD SVG 20010904//EN"
 "http://www.w3.org/TR/2001/REC-SVG-20010904/DTD/svg10.dtd">
<svg version="1.0" xmlns="http://www.w3.org/2000/svg"
 width="90.000000pt" height="92.000000pt" viewBox="0 0 90.000000 92.000000"
 preserveAspectRatio="xMidYMid meet">
<metadata>
Created by potrace 1.16, written by Peter Selinger 2001-2019
</metadata>
<g transform="translate(0.000000,92.000000) scale(0.100000,-0.100000)"
fill="#000000" stroke="none">
<path d="M484 813 c4 -16 9 -58 13 -94 l5 -66 -33 -6 c-19 -3 -60 -9 -91 -13
-106 -12 -56 -39 59 -32 l66 4 -7 -87 c-15 -201 -55 -279 -207 -401 l-34 -28
30 6 c82 17 159 88 207 191 17 35 31 63 33 63 2 0 15 -24 30 -52 36 -69 129
-194 154 -207 33 -18 171 -11 171 8 0 4 -30 20 -66 35 -83 37 -164 100 -232
184 -50 61 -52 67 -47 107 4 23 10 75 13 115 l7 74 73 12 c85 14 102 20 102
33 0 25 -39 31 -102 16 -35 -8 -65 -15 -68 -15 -3 0 -2 35 1 78 8 86 0 102
-54 102 -27 0 -29 -2 -23 -27z"/>
<path d="M250 793 c0 -50 -86 -206 -169 -304 -43 -52 -77 -96 -75 -98 6 -7
104 71 139 112 40 47 37 56 36 -103 0 -52 -6 -132 -12 -177 -10 -65 -9 -88 1
-112 13 -33 24 -39 37 -18 4 6 11 109 15 227 5 168 4 219 -6 235 -11 18 -6 31
45 115 32 52 58 98 58 102 1 12 -42 48 -56 48 -8 0 -13 -11 -13 -27z"/>
<path d="M648 522 c-10 -26 -33 -67 -53 -90 -41 -47 -35 -54 16 -19 l34 23 43
-33 c52 -39 72 -42 72 -9 0 29 -17 44 -58 52 -39 8 -39 14 -7 44 32 30 32 54
0 68 -14 7 -27 12 -28 12 -1 0 -10 -21 -19 -48z"/>
<path d="M366 513 c-3 -23 -23 -60 -51 -95 -25 -32 -41 -58 -37 -58 5 0 28 13
50 30 l41 30 27 -25 c28 -26 49 -32 59 -15 13 20 -7 51 -36 57 -34 6 -37 23
-9 48 25 23 25 41 1 55 -31 16 -38 12 -45 -27z"/>
</g>
</svg>
