<?xml version="1.0" standalone="no"?>
<!DOCTYPE svg PUBLIC "-//W3C//DTD SVG 20010904//EN"
 "http://www.w3.org/TR/2001/REC-SVG-20010904/DTD/svg10.dtd">
<svg version="1.0" xmlns="http://www.w3.org/2000/svg"
 width="96.000000pt" height="68.000000pt" viewBox="0 0 96.000000 68.000000"
 preserveAspectRatio="xMidYMid meet">
<metadata>
Created by potrace 1.16, written by Peter Selinger 2001-2019
</metadata>
<g transform="translate(0.000000,68.000000) scale(0.100000,-0.100000)"
fill="#000000" stroke="none">
<path d="M514 578 c4 -13 9 -44 13 -70 l6 -46 -82 -7 c-98 -9 -97 -25 1 -25
l71 0 -6 -78 c-7 -114 -48 -185 -140 -247 -39 -27 -47 -35 -30 -35 57 0 140
64 177 138 l23 44 37 -52 c20 -28 56 -72 78 -96 l41 -44 74 0 c42 0 72 4 69 9
-4 5 -38 22 -78 37 -58 22 -85 41 -144 98 l-73 71 11 81 12 81 74 11 c40 6 76
13 79 16 20 19 -44 26 -109 12 l-38 -8 0 60 c0 63 -7 72 -52 72 -16 0 -19 -4
-14 -22z"/>
</g>
</svg>
