<?xml version="1.0" standalone="no"?>
<!DOCTYPE svg PUBLIC "-//W3C//DTD SVG 20010904//EN"
 "http://www.w3.org/TR/2001/REC-SVG-20010904/DTD/svg10.dtd">
<svg version="1.0" xmlns="http://www.w3.org/2000/svg"
 width="96.000000pt" height="68.000000pt" viewBox="0 0 96.000000 68.000000"
 preserveAspectRatio="xMidYMid meet">
<metadata>
Created by potrace 1.16, written by Peter Selinger 2001-2019
</metadata>
<g transform="translate(0.000000,68.000000) scale(0.100000,-0.100000)"
fill="#000000" stroke="none">
<path d="M530 580 c0 -27 -4 -30 -40 -36 -44 -7 -45 -24 0 -24 23 0 27 -3 23
-20 -7 -27 5 -25 28 4 14 18 32 24 75 29 31 3 59 8 62 11 11 12 -11 21 -49 20
-31 -1 -39 2 -39 16 0 18 -19 30 -46 30 -9 0 -14 -11 -14 -30z"/>
<path d="M270 578 c0 -8 5 -19 12 -26 17 -17 5 -24 -52 -30 -27 -2 -50 -8 -50
-13 0 -16 53 -22 84 -10 31 11 47 3 59 -32 7 -21 27 5 21 27 -4 19 0 24 28 33
l33 11 -37 1 c-30 1 -37 5 -40 24 -2 16 -11 23 -30 25 -19 2 -28 -1 -28 -10z"/>
</g>
</svg>
