<?xml version="1.0" standalone="no"?>
<!DOCTYPE svg PUBLIC "-//W3C//DTD SVG 20010904//EN"
 "http://www.w3.org/TR/2001/REC-SVG-20010904/DTD/svg10.dtd">
<svg version="1.0" xmlns="http://www.w3.org/2000/svg"
 width="90.000000pt" height="92.000000pt" viewBox="0 0 90.000000 92.000000"
 preserveAspectRatio="xMidYMid meet">
<metadata>
Created by potrace 1.16, written by Peter Selinger 2001-2019
</metadata>
<g transform="translate(0.000000,92.000000) scale(0.100000,-0.100000)"
fill="#000000" stroke="none">
<path d="M550 855 c-30 -7 -72 -14 -92 -14 -41 -1 -51 -16 -18 -26 25 -8 25
-21 0 -63 -27 -44 -14 -66 30 -50 58 20 55 2 -7 -60 -34 -34 -59 -62 -56 -62
21 0 96 56 120 90 17 22 33 37 36 33 4 -3 7 -26 7 -49 0 -34 5 -47 23 -58 51
-33 166 -25 189 14 6 10 4 29 -8 55 l-17 40 -9 -32 c-10 -37 -31 -46 -99 -41
-47 3 -47 5 -37 76 1 8 20 12 59 12 61 0 78 10 54 30 -10 8 -37 11 -79 8 -60
-4 -64 -3 -55 14 5 10 9 26 7 35 -2 12 7 19 30 24 39 8 46 14 37 28 -8 14 -43
12 -115 -4z m-6 -72 c-7 -38 -12 -43 -43 -43 l-28 0 16 34 c24 52 64 58 55 9z"/>
<path d="M288 835 c-25 -7 -72 -16 -104 -20 -53 -6 -57 -8 -40 -21 18 -13 18
-16 3 -55 -9 -23 -14 -46 -11 -51 3 -5 24 -6 45 -3 21 4 39 4 39 0 0 -20 -47
-80 -98 -125 l-57 -51 51 25 c47 23 89 62 141 132 l22 29 0 -27 c1 -15 -3 -37
-8 -51 -17 -45 1 -50 70 -17 l64 31 -47 -5 -48 -6 0 35 c0 33 1 34 43 37 29 2
42 8 42 18 0 11 -14 16 -53 18 -48 3 -51 5 -42 22 7 13 7 21 0 25 -18 11 -10
25 14 25 35 0 81 19 70 29 -18 17 -50 19 -96 6z m-48 -80 c0 -32 -2 -35 -30
-35 -35 0 -35 1 -15 40 22 42 45 39 45 -5z"/>
<path d="M430 570 c-52 -10 -121 -19 -152 -19 -58 -1 -70 -9 -44 -30 8 -6 19
-40 26 -75 13 -70 26 -97 38 -80 11 17 195 35 204 20 4 -6 17 -11 29 -11 16 0
25 -8 30 -29 5 -17 7 -31 6 -33 -2 -1 -36 -6 -75 -9 -71 -7 -72 -7 -53 -25 10
-10 22 -35 26 -56 9 -53 21 -71 37 -55 16 16 68 16 69 0 1 -7 3 -25 4 -40 4
-28 6 -28 -130 -41 -18 -2 -18 -4 8 -31 18 -17 34 -26 45 -22 9 3 64 19 121
36 l105 30 26 -32 c30 -36 50 -31 50 11 0 32 -21 54 -73 76 -48 20 -50 19 -31
-10 14 -21 14 -25 1 -25 -8 0 -29 -3 -46 -6 -31 -6 -31 -6 -31 35 l0 41 60 0
c33 0 60 4 60 9 0 5 -5 11 -10 13 -6 2 3 19 19 38 17 19 30 41 31 47 0 20 -57
44 -87 38 -79 -17 -76 -17 -70 5 7 26 -17 50 -49 50 -13 0 -24 2 -24 4 0 2 14
36 30 76 17 40 30 74 30 77 0 7 -65 43 -75 42 -5 -1 -53 -10 -105 -19z m95
-45 c0 -17 -9 -21 -60 -26 -33 -4 -84 -10 -113 -14 -53 -8 -54 -7 -50 16 3 22
10 25 93 35 116 15 130 14 130 -11z m-6 -57 c-1 -31 -16 -43 -49 -44 -19 0
-63 -4 -97 -8 -54 -7 -64 -6 -69 8 -4 9 -5 18 -3 20 3 3 133 24 212 35 4 1 7
-5 6 -11z m172 -203 c-4 -41 -8 -45 -42 -45 -26 0 -29 3 -29 34 0 36 13 46 55
43 16 -2 19 -8 16 -32z m-121 -20 c0 -33 -2 -35 -34 -35 -29 0 -34 4 -39 27
-7 37 -2 43 39 43 32 0 34 -2 34 -35z"/>
<path d="M205 353 c18 -45 17 -52 -10 -59 -14 -3 -44 -4 -66 -1 -37 5 -51 -4
-29 -18 5 -3 17 -30 25 -60 l16 -53 39 5 c39 5 40 5 40 -25 0 -36 -11 -41
-102 -49 -72 -6 -79 -17 -31 -48 23 -16 28 -16 62 -1 20 9 74 27 121 41 l84
25 22 -27 c25 -31 34 -28 37 13 2 21 -6 33 -32 51 -41 28 -51 29 -44 4 4 -14
-3 -20 -27 -25 -48 -9 -50 -8 -50 24 0 30 0 30 56 30 48 0 55 2 50 16 -4 10 4
30 19 50 14 18 25 35 25 38 0 16 -60 34 -97 29 -40 -5 -42 -4 -45 23 -3 25 -8
29 -37 32 -29 3 -33 1 -26 -15z m125 -98 c0 -18 -7 -28 -26 -35 -39 -15 -44
-13 -44 25 0 33 2 35 35 35 31 0 35 -3 35 -25z m-110 -14 c0 -21 -6 -32 -21
-36 -23 -8 -39 7 -39 36 0 22 9 29 37 29 19 0 23 -5 23 -29z"/>
</g>
</svg>
