<?xml version="1.0" standalone="no"?>
<!DOCTYPE svg PUBLIC "-//W3C//DTD SVG 20010904//EN"
 "http://www.w3.org/TR/2001/REC-SVG-20010904/DTD/svg10.dtd">
<svg version="1.0" xmlns="http://www.w3.org/2000/svg"
 width="96.000000pt" height="68.000000pt" viewBox="0 0 96.000000 68.000000"
 preserveAspectRatio="xMidYMid meet">
<metadata>
Created by potrace 1.16, written by Peter Selinger 2001-2019
</metadata>
<g transform="translate(0.000000,68.000000) scale(0.100000,-0.100000)"
fill="#000000" stroke="none">
<path d="M470 389 c-25 -5 -75 -10 -112 -12 -68 -2 -76 -5 -59 -23 5 -5 14
-27 21 -49 15 -46 31 -70 39 -57 8 12 181 22 181 11 0 -5 7 -9 15 -9 8 0 29
28 46 62 30 58 30 62 13 75 -20 15 -77 15 -144 2z m90 -33 c0 -9 -22 -15 -77
-20 -42 -4 -89 -10 -105 -13 -23 -5 -28 -2 -28 15 0 24 19 28 138 30 55 2 72
-1 72 -12z m-10 -50 c0 -14 -67 -26 -147 -26 -31 0 -43 4 -43 14 0 11 15 16
53 19 120 8 137 7 137 -7z"/>
</g>
</svg>
