<?xml version="1.0" standalone="no"?>
<!DOCTYPE svg PUBLIC "-//W3C//DTD SVG 20010904//EN"
 "http://www.w3.org/TR/2001/REC-SVG-20010904/DTD/svg10.dtd">
<svg version="1.0" xmlns="http://www.w3.org/2000/svg"
 width="90.000000pt" height="92.000000pt" viewBox="0 0 90.000000 92.000000"
 preserveAspectRatio="xMidYMid meet">
<metadata>
Created by potrace 1.16, written by Peter Selinger 2001-2019
</metadata>
<g transform="translate(0.000000,92.000000) scale(0.100000,-0.100000)"
fill="#000000" stroke="none">
<path d="M509 843 c-1 -4 0 -40 1 -79 2 -80 7 -76 -96 -90 -64 -8 -86 -20 -64
-34 19 -12 63 -12 114 -1 l38 9 -6 -30 c-3 -17 -6 -42 -6 -56 0 -24 -1 -25
-53 -18 -56 6 -73 1 -58 -18 5 -6 12 -98 16 -203 l7 -193 -66 0 c-75 0 -85
-13 -29 -36 31 -14 46 -14 97 -3 34 7 150 15 258 18 108 3 199 9 203 13 11 11
-2 24 -38 41 -26 13 -46 14 -86 8 l-53 -8 6 141 c4 77 12 163 18 190 10 46 9
51 -12 68 -27 22 -50 22 -114 3 -27 -8 -51 -13 -53 -12 -2 2 2 27 8 55 l12 51
71 5 c39 4 87 7 106 9 43 3 47 26 8 44 -21 11 -39 10 -98 -2 -39 -8 -73 -15
-75 -15 -3 0 7 45 20 85 4 14 0 26 -12 37 -22 19 -63 33 -64 21z m135 -319 c3
-9 6 -28 6 -42 0 -26 -3 -27 -47 -27 -27 0 -74 -4 -105 -9 -57 -8 -58 -8 -58
15 0 40 12 47 95 62 105 19 102 19 109 1z m6 -131 l0 -38 -57 0 c-32 0 -79 -3
-105 -7 l-48 -8 0 35 c0 35 0 35 48 36 26 0 67 4 92 8 25 5 51 9 58 10 8 1 12
-12 12 -36z m-5 -73 c3 -5 3 -20 0 -33 -6 -22 -13 -25 -74 -31 -37 -3 -82 -9
-99 -12 -31 -6 -32 -5 -32 29 l0 35 83 10 c115 13 115 13 122 2z m-5 -124 c0
-38 6 -36 -142 -51 l-58 -5 0 33 0 34 88 10 c48 5 93 11 100 11 7 1 12 -11 12
-32z"/>
<path d="M175 798 c3 -13 9 -66 12 -119 l6 -96 -82 -13 c-103 -16 -104 -35 -3
-35 40 0 72 -1 72 -2 0 -2 -8 -22 -17 -45 -25 -64 -80 -157 -125 -211 -22 -27
-38 -51 -35 -54 11 -10 75 48 118 108 75 104 70 102 64 29 -3 -36 -11 -102
-16 -147 -12 -87 -6 -134 16 -153 25 -21 32 20 39 209 3 101 7 186 9 188 2 2
16 -15 31 -37 33 -50 59 -54 54 -8 -2 27 -11 37 -45 56 -35 19 -43 29 -43 51
0 26 5 29 55 40 57 13 74 26 58 42 -12 12 -38 13 -82 4 l-33 -8 5 39 c21 140
20 148 -12 167 -40 24 -55 22 -46 -5z"/>
</g>
</svg>
