<?xml version="1.0" standalone="no"?>
<!DOCTYPE svg PUBLIC "-//W3C//DTD SVG 20010904//EN"
 "http://www.w3.org/TR/2001/REC-SVG-20010904/DTD/svg10.dtd">
<svg version="1.0" xmlns="http://www.w3.org/2000/svg"
 width="96.000000pt" height="68.000000pt" viewBox="0 0 96.000000 68.000000"
 preserveAspectRatio="xMidYMid meet">
<metadata>
Created by potrace 1.16, written by Peter Selinger 2001-2019
</metadata>
<g transform="translate(0.000000,68.000000) scale(0.100000,-0.100000)"
fill="#000000" stroke="none">
<path d="M235 553 c5 -10 10 -48 13 -85 l4 -66 -58 -7 c-88 -10 -97 -19 -21
-23 37 -2 67 -6 67 -10 0 -18 -62 -112 -105 -160 -71 -79 -27 -67 52 14 l64
67 -7 -69 c-3 -38 -10 -84 -14 -102 -11 -43 4 -85 28 -80 15 3 17 19 20 141 1
75 6 137 10 137 5 0 18 -12 31 -26 23 -27 44 -28 49 -2 2 10 -12 23 -37 34
-53 25 -57 59 -8 69 55 11 67 16 67 27 0 7 -19 9 -50 6 l-51 -5 6 46 c4 25 9
53 11 63 5 19 -31 48 -59 48 -14 0 -17 -4 -12 -17z"/>
</g>
</svg>
