<?xml version="1.0" standalone="no"?>
<!DOCTYPE svg PUBLIC "-//W3C//DTD SVG 20010904//EN"
 "http://www.w3.org/TR/2001/REC-SVG-20010904/DTD/svg10.dtd">
<svg version="1.0" xmlns="http://www.w3.org/2000/svg"
 width="96.000000pt" height="68.000000pt" viewBox="0 0 96.000000 68.000000"
 preserveAspectRatio="xMidYMid meet">
<metadata>
Created by potrace 1.16, written by Peter Selinger 2001-2019
</metadata>
<g transform="translate(0.000000,68.000000) scale(0.100000,-0.100000)"
fill="#000000" stroke="none">
<path d="M533 539 c1 -60 -4 -65 -91 -74 -53 -6 -62 -9 -48 -17 11 -6 43 -8
74 -5 l54 6 -5 -35 c-5 -32 -4 -35 16 -32 15 2 24 13 30 39 l9 37 101 7 c91 7
99 9 81 22 -15 11 -36 13 -96 8 -43 -3 -78 -4 -78 0 0 3 7 19 15 35 14 27 14
30 -7 44 -42 30 -56 21 -55 -35z"/>
</g>
</svg>
