<?xml version="1.0" standalone="no"?>
<!DOCTYPE svg PUBLIC "-//W3C//DTD SVG 20010904//EN"
 "http://www.w3.org/TR/2001/REC-SVG-20010904/DTD/svg10.dtd">
<svg version="1.0" xmlns="http://www.w3.org/2000/svg"
 width="96.000000pt" height="68.000000pt" viewBox="0 0 96.000000 68.000000"
 preserveAspectRatio="xMidYMid meet">
<metadata>
Created by potrace 1.16, written by Peter Selinger 2001-2019
</metadata>
<g transform="translate(0.000000,68.000000) scale(0.100000,-0.100000)"
fill="#000000" stroke="none">
<path d="M330 559 c50 -40 70 -51 85 -45 44 17 -18 66 -82 66 l-28 0 25 -21z"/>
<path d="M385 453 c-22 -8 -75 -19 -118 -26 -43 -7 -79 -17 -80 -22 -4 -19 62
-16 133 5 40 12 74 19 77 16 13 -13 -161 -193 -232 -240 -22 -14 -34 -26 -27
-26 24 0 110 50 159 91 l48 42 3 -39 c2 -21 -1 -65 -8 -96 -8 -42 -8 -63 0
-78 26 -49 40 -11 40 108 l0 84 39 -31 c44 -35 71 -40 71 -12 0 12 -14 25 -37
36 l-37 18 42 24 c47 28 52 39 21 48 -15 5 -25 2 -31 -9 -5 -9 -19 -28 -32
-43 l-23 -27 -13 24 c-12 23 -10 27 45 77 47 43 56 55 46 67 -18 22 -43 24
-86 9z"/>
</g>
</svg>
