<?xml version="1.0" standalone="no"?>
<!DOCTYPE svg PUBLIC "-//W3C//DTD SVG 20010904//EN"
 "http://www.w3.org/TR/2001/REC-SVG-20010904/DTD/svg10.dtd">
<svg version="1.0" xmlns="http://www.w3.org/2000/svg"
 width="96.000000pt" height="68.000000pt" viewBox="0 0 96.000000 68.000000"
 preserveAspectRatio="xMidYMid meet">
<metadata>
Created by potrace 1.16, written by Peter Selinger 2001-2019
</metadata>
<g transform="translate(0.000000,68.000000) scale(0.100000,-0.100000)"
fill="#000000" stroke="none">
<path d="M660 449 c-19 -4 -78 -11 -130 -15 l-95 -7 3 -81 c2 -44 -1 -106 -8
-136 -14 -68 -14 -90 -1 -103 24 -24 33 14 40 154 l6 143 35 8 c19 4 79 10
133 14 l97 7 0 -146 c0 -85 -4 -148 -10 -152 -5 -3 -27 -1 -47 4 l-38 10 48
-46 49 -46 21 22 c20 19 23 36 29 169 3 81 9 156 13 168 12 37 -60 54 -145 33z"/>
</g>
</svg>
