<?xml version="1.0" standalone="no"?>
<!DOCTYPE svg PUBLIC "-//W3C//DTD SVG 20010904//EN"
 "http://www.w3.org/TR/2001/REC-SVG-20010904/DTD/svg10.dtd">
<svg version="1.0" xmlns="http://www.w3.org/2000/svg"
 width="96.000000pt" height="68.000000pt" viewBox="0 0 96.000000 68.000000"
 preserveAspectRatio="xMidYMid meet">
<metadata>
Created by potrace 1.16, written by Peter Selinger 2001-2019
</metadata>
<g transform="translate(0.000000,68.000000) scale(0.100000,-0.100000)"
fill="#000000" stroke="none">
<path d="M330 242 c0 -9 43 -52 52 -52 16 0 16 34 1 46 -20 15 -53 19 -53 6z"/>
<path d="M240 213 c0 -15 40 -53 55 -53 18 0 20 24 3 38 -19 14 -58 25 -58 15z"/>
<path d="M130 183 c0 -19 55 -83 71 -83 19 0 25 25 11 46 -19 28 -82 56 -82
37z"/>
</g>
</svg>
