<?xml version="1.0" standalone="no"?>
<!DOCTYPE svg PUBLIC "-//W3C//DTD SVG 20010904//EN"
 "http://www.w3.org/TR/2001/REC-SVG-20010904/DTD/svg10.dtd">
<svg version="1.0" xmlns="http://www.w3.org/2000/svg"
 width="90.000000pt" height="92.000000pt" viewBox="0 0 90.000000 92.000000"
 preserveAspectRatio="xMidYMid meet">
<metadata>
Created by potrace 1.16, written by Peter Selinger 2001-2019
</metadata>
<g transform="translate(0.000000,92.000000) scale(0.100000,-0.100000)"
fill="#000000" stroke="none">
<path d="M397 836 c6 -53 5 -55 -22 -62 -14 -4 -56 -4 -91 -1 -35 2 -64 2 -64
-1 0 -3 7 -13 16 -23 8 -9 22 -46 30 -80 16 -70 30 -92 43 -70 5 7 29 16 55
18 l46 6 0 -42 c0 -36 -3 -41 -27 -48 -16 -3 -58 -7 -95 -7 -45 -1 -68 -5 -68
-13 0 -19 52 -54 69 -47 9 3 82 23 163 44 l146 38 28 -29 c33 -35 40 -36 47
-7 9 32 -10 57 -56 79 -56 25 -76 25 -53 0 21 -24 16 -27 -56 -36 l-58 -7 0
41 c0 41 0 41 38 41 20 0 54 3 75 6 30 5 36 10 32 24 -3 11 6 29 25 50 16 18
30 36 30 40 0 5 -15 18 -33 29 -33 20 -44 21 -140 6 -28 -5 -29 -4 -22 35 8
47 -6 70 -41 70 -21 0 -22 -3 -17 -54z m158 -113 c-10 -41 -21 -51 -65 -55
l-40 -4 0 43 0 43 56 0 56 0 -7 -27z m-157 -25 c-3 -43 -3 -43 -45 -46 -24 -2
-43 1 -43 6 0 5 -3 23 -6 40 -7 33 2 39 64 41 33 1 33 1 30 -41z"/>
<path d="M566 482 c-2 -4 -1 -14 5 -22 5 -8 9 -29 9 -46 0 -36 -16 -44 -93
-44 -47 0 -47 0 -33 -22 8 -13 17 -43 21 -68 10 -60 23 -86 38 -71 6 6 26 11
44 11 32 0 33 -1 33 -39 0 -22 -5 -43 -11 -47 -6 -3 -44 -7 -85 -7 -41 -1 -74
-4 -74 -7 0 -4 13 -19 29 -34 l30 -29 83 26 c115 36 191 57 193 54 0 -1 14
-22 29 -46 27 -42 29 -44 43 -25 26 36 1 85 -64 125 -39 24 -50 20 -33 -10 8
-16 8 -21 -2 -21 -7 -1 -32 -5 -55 -9 l-43 -8 0 43 c0 41 2 44 28 44 15 0 44
3 65 6 30 6 36 10 32 25 -4 10 5 35 20 58 32 51 31 57 -3 75 -21 11 -38 12
-68 6 -69 -16 -73 -15 -67 30 5 36 3 40 -21 50 -33 12 -43 13 -50 2z m148
-164 c-4 -24 -7 -43 -8 -44 -1 -1 -18 -4 -38 -7 l-38 -6 0 50 0 49 45 0 45 0
-6 -42z m-126 -18 l3 -50 -35 0 c-33 0 -34 2 -38 43 -5 46 3 57 42 57 23 0 25
-4 28 -50z"/>
<path d="M165 443 c4 -10 10 -30 12 -44 4 -24 1 -27 -36 -33 -23 -3 -53 -3
-68 0 -23 6 -25 5 -18 -12 14 -36 25 -69 35 -110 l10 -42 45 6 45 5 0 -41 0
-41 -55 -11 c-31 -6 -69 -9 -85 -5 -38 8 -39 -7 -3 -41 32 -29 33 -29 158 19
134 52 128 51 148 17 22 -37 35 -38 43 -3 8 32 -3 51 -46 80 -45 31 -66 31
-45 -1 15 -23 15 -24 -12 -30 -15 -4 -36 -9 -45 -12 -15 -4 -18 1 -18 34 0 44
12 52 81 52 42 0 53 8 38 27 -9 10 -5 23 15 53 33 50 33 56 -4 75 -23 12 -39
13 -72 5 -60 -14 -60 -13 -53 21 8 36 -4 49 -49 49 -23 0 -27 -3 -21 -17z
m145 -115 c0 -44 -10 -56 -48 -64 l-32 -6 0 45 c0 39 3 46 23 50 53 10 57 8
57 -25z m-130 -32 c0 -36 -4 -46 -21 -51 -27 -9 -28 -7 -35 48 l-7 47 32 0
c30 0 31 -1 31 -44z"/>
</g>
</svg>
