<?xml version="1.0" standalone="no"?>
<!DOCTYPE svg PUBLIC "-//W3C//DTD SVG 20010904//EN"
 "http://www.w3.org/TR/2001/REC-SVG-20010904/DTD/svg10.dtd">
<svg version="1.0" xmlns="http://www.w3.org/2000/svg"
 width="96.000000pt" height="68.000000pt" viewBox="0 0 96.000000 68.000000"
 preserveAspectRatio="xMidYMid meet">
<metadata>
Created by potrace 1.16, written by Peter Selinger 2001-2019
</metadata>
<g transform="translate(0.000000,68.000000) scale(0.100000,-0.100000)"
fill="#000000" stroke="none">
<path d="M492 266 c-45 -7 -86 -13 -90 -15 -9 -3 -5 -52 8 -87 8 -21 14 -24
22 -16 7 7 45 12 96 12 63 0 83 3 79 13 -2 6 7 27 20 45 41 55 2 68 -135 48z
m88 -28 c0 -38 -14 -48 -78 -54 -60 -7 -62 -6 -72 21 -6 15 -9 29 -8 31 5 5
101 22 131 23 22 1 27 -3 27 -21z"/>
</g>
</svg>
