<?xml version="1.0" standalone="no"?>
<!DOCTYPE svg PUBLIC "-//W3C//DTD SVG 20010904//EN"
 "http://www.w3.org/TR/2001/REC-SVG-20010904/DTD/svg10.dtd">
<svg version="1.0" xmlns="http://www.w3.org/2000/svg"
 width="96.000000pt" height="68.000000pt" viewBox="0 0 96.000000 68.000000"
 preserveAspectRatio="xMidYMid meet">
<metadata>
Created by potrace 1.16, written by Peter Selinger 2001-2019
</metadata>
<g transform="translate(0.000000,68.000000) scale(0.100000,-0.100000)"
fill="#000000" stroke="none">
<path d="M397 584 c-131 -12 -241 -24 -244 -28 -3 -3 2 -8 11 -12 14 -5 16
-30 16 -204 l0 -198 30 -26 c52 -43 96 -49 325 -43 116 3 221 9 233 14 22 8
22 10 7 23 -14 12 -36 12 -138 2 -149 -15 -299 -15 -349 -2 -69 19 -71 26 -65
184 6 169 21 244 51 251 12 3 111 9 221 15 191 10 215 13 203 25 -19 19 -88
19 -301 -1z"/>
</g>
</svg>
