<?xml version="1.0" standalone="no"?>
<!DOCTYPE svg PUBLIC "-//W3C//DTD SVG 20010904//EN"
 "http://www.w3.org/TR/2001/REC-SVG-20010904/DTD/svg10.dtd">
<svg version="1.0" xmlns="http://www.w3.org/2000/svg"
 width="90.000000pt" height="92.000000pt" viewBox="0 0 90.000000 92.000000"
 preserveAspectRatio="xMidYMid meet">
<metadata>
Created by potrace 1.16, written by Peter Selinger 2001-2019
</metadata>
<g transform="translate(0.000000,92.000000) scale(0.100000,-0.100000)"
fill="#000000" stroke="none">
<path d="M354 729 c0 -136 1 -134 -81 -144 -29 -3 -53 -11 -53 -16 0 -13 44
-22 91 -17 40 4 41 3 35 -25 -3 -16 -6 -45 -6 -63 l0 -34 -55 0 c-55 0 -55 0
-41 -22 8 -13 20 -54 26 -93 12 -72 25 -100 38 -78 4 7 39 15 77 19 l70 6 1
43 c0 25 10 59 23 81 l23 38 -23 19 c-17 14 -33 17 -60 13 l-36 -6 7 45 c4 25
8 48 8 50 1 3 2 10 2 15 0 6 8 10 18 10 29 0 92 20 92 30 0 20 -41 32 -71 21
-29 -10 -29 -10 -29 27 0 33 12 98 26 144 7 22 -30 58 -58 58 -23 0 -23 -2
-24 -121z m62 -350 c-3 -17 -6 -42 -6 -54 0 -19 -8 -24 -50 -32 l-50 -10 0 27
c0 15 -3 41 -6 58 -6 29 -4 31 27 35 90 11 92 10 85 -24z"/>
<path d="M157 743 c21 -36 64 -83 75 -83 13 0 27 36 22 57 -6 21 -62 53 -95
53 -19 0 -19 -1 -2 -27z"/>
<path d="M676 743 c-39 -12 -58 -13 -85 -4 -45 13 -52 6 -41 -44 15 -63 12
-248 -6 -332 -19 -95 -52 -161 -111 -224 -53 -56 -46 -62 20 -19 56 38 100
105 123 188 16 57 19 61 34 47 9 -8 20 -15 24 -15 4 0 32 21 62 46 l54 46 -1
-73 c-1 -86 -12 -185 -22 -195 -3 -4 -25 -2 -47 4 -23 5 -40 7 -38 2 2 -4 25
-32 52 -60 54 -58 68 -58 96 -4 11 23 14 82 15 294 0 146 4 279 8 295 8 27 5
32 -21 48 -35 20 -50 20 -116 0z m64 -71 c0 -22 3 -80 6 -130 l7 -91 -44 -19
c-25 -11 -59 -23 -77 -27 l-32 -7 0 86 c0 47 3 86 8 86 4 0 27 -16 51 -35 51
-41 71 -44 71 -11 0 30 -15 42 -73 58 -46 12 -47 13 -47 54 0 55 20 70 98 73
31 1 32 0 32 -37z"/>
<path d="M68 548 c16 -24 37 -50 46 -57 24 -20 46 -6 46 28 0 36 -29 59 -85
68 l-38 6 31 -45z"/>
<path d="M167 384 c-20 -34 -55 -78 -77 -98 -46 -41 -50 -65 -19 -116 l22 -35
13 30 c103 231 132 335 61 219z"/>
</g>
</svg>
