<?xml version="1.0" standalone="no"?>
<!DOCTYPE svg PUBLIC "-//W3C//DTD SVG 20010904//EN"
 "http://www.w3.org/TR/2001/REC-SVG-20010904/DTD/svg10.dtd">
<svg version="1.0" xmlns="http://www.w3.org/2000/svg"
 width="96.000000pt" height="68.000000pt" viewBox="0 0 96.000000 68.000000"
 preserveAspectRatio="xMidYMid meet">
<metadata>
Created by potrace 1.16, written by Peter Selinger 2001-2019
</metadata>
<g transform="translate(0.000000,68.000000) scale(0.100000,-0.100000)"
fill="#000000" stroke="none">
<path d="M550 419 c-80 -10 -155 -17 -167 -14 -27 6 -29 -2 -8 -25 8 -9 19
-40 25 -69 12 -64 18 -75 33 -63 18 15 257 26 257 13 0 -24 29 -9 43 22 55
114 59 131 41 144 -22 16 -45 15 -224 -8z m170 -25 c0 -8 -5 -34 -11 -58 l-11
-43 -86 -1 c-48 -1 -106 -5 -128 -8 -48 -7 -49 -5 -58 57 l-7 46 93 10 c153
16 208 16 208 -3z"/>
</g>
</svg>
