<?xml version="1.0" standalone="no"?>
<!DOCTYPE svg PUBLIC "-//W3C//DTD SVG 20010904//EN"
 "http://www.w3.org/TR/2001/REC-SVG-20010904/DTD/svg10.dtd">
<svg version="1.0" xmlns="http://www.w3.org/2000/svg"
 width="96.000000pt" height="68.000000pt" viewBox="0 0 96.000000 68.000000"
 preserveAspectRatio="xMidYMid meet">
<metadata>
Created by potrace 1.16, written by Peter Selinger 2001-2019
</metadata>
<g transform="translate(0.000000,68.000000) scale(0.100000,-0.100000)"
fill="#000000" stroke="none">
<path d="M244 543 c3 -16 9 -51 12 -79 7 -58 9 -57 -79 -69 -68 -9 -50 -29 20
-22 61 6 69 -1 59 -57 -6 -30 -14 -37 -88 -71 -76 -34 -81 -38 -63 -51 28 -21
43 -18 96 22 l49 36 0 -54 c0 -87 -7 -101 -47 -96 l-34 4 41 -40 c33 -34 43
-39 58 -30 14 9 17 30 20 128 l3 117 36 21 c37 22 31 39 -6 19 -30 -16 -32
-14 -29 27 3 33 6 37 36 42 43 7 46 24 5 28 -28 3 -33 7 -33 29 0 15 6 42 12
61 11 30 11 35 -7 48 -10 8 -30 14 -43 14 -21 0 -24 -3 -18 -27z"/>
</g>
</svg>
