<?xml version="1.0" standalone="no"?>
<!DOCTYPE svg PUBLIC "-//W3C//DTD SVG 20010904//EN"
 "http://www.w3.org/TR/2001/REC-SVG-20010904/DTD/svg10.dtd">
<svg version="1.0" xmlns="http://www.w3.org/2000/svg"
 width="90.000000pt" height="92.000000pt" viewBox="0 0 90.000000 92.000000"
 preserveAspectRatio="xMidYMid meet">
<metadata>
Created by potrace 1.16, written by Peter Selinger 2001-2019
</metadata>
<g transform="translate(0.000000,92.000000) scale(0.100000,-0.100000)"
fill="#000000" stroke="none">
<path d="M240 818 c1 -20 37 -95 50 -103 22 -13 -8 -23 -132 -42 -123 -18
-143 -30 -88 -53 26 -11 47 -9 148 13 64 15 143 29 175 33 63 7 75 15 51 35
-17 14 -55 16 -97 5 -25 -6 -26 -5 -16 12 7 11 9 31 5 46 -10 39 -96 88 -96
54z"/>
<path d="M647 778 c-58 -21 -83 -25 -97 -18 -10 6 -22 10 -27 10 -9 0 -7 -645
3 -699 3 -20 9 -30 14 -25 19 19 30 155 30 374 1 283 4 299 50 316 43 15 90
17 90 4 0 -6 -11 -42 -25 -81 -26 -75 -24 -88 14 -123 12 -11 29 -44 37 -74
22 -73 8 -82 -91 -55 -24 6 -19 0 57 -61 32 -25 63 -46 68 -46 20 0 42 72 36
117 -8 58 -31 101 -79 144 l-40 37 33 48 c18 27 44 61 57 76 32 34 26 58 -17
73 -31 10 -45 7 -113 -17z"/>
<path d="M371 568 c65 -79 89 -89 89 -39 0 21 -8 35 -27 49 -24 16 -85 42
-100 42 -3 0 15 -24 38 -52z"/>
<path d="M180 572 c0 -22 -47 -91 -98 -144 -75 -79 22 -23 124 71 l58 53 -23
19 c-30 25 -61 25 -61 1z"/>
<path d="M320 478 c0 -40 -21 -98 -35 -98 -5 0 -30 12 -54 25 -59 34 -66 22
-13 -21 23 -20 42 -42 42 -49 0 -20 -87 -92 -165 -137 -48 -27 -60 -38 -40
-33 57 12 160 66 201 106 l41 40 57 -56 c47 -46 60 -54 72 -45 26 22 15 48
-40 97 l-55 48 30 51 c16 28 29 56 29 62 0 10 -50 42 -65 42 -3 0 -5 -14 -5
-32z"/>
</g>
</svg>
