<?xml version="1.0" standalone="no"?>
<!DOCTYPE svg PUBLIC "-//W3C//DTD SVG 20010904//EN"
 "http://www.w3.org/TR/2001/REC-SVG-20010904/DTD/svg10.dtd">
<svg version="1.0" xmlns="http://www.w3.org/2000/svg"
 width="96.000000pt" height="68.000000pt" viewBox="0 0 96.000000 68.000000"
 preserveAspectRatio="xMidYMid meet">
<metadata>
Created by potrace 1.16, written by Peter Selinger 2001-2019
</metadata>
<g transform="translate(0.000000,68.000000) scale(0.100000,-0.100000)"
fill="#000000" stroke="none">
<path d="M380 332 c0 -16 -6 -37 -14 -47 -14 -19 -15 -19 -50 -2 -54 25 -66
21 -23 -10 20 -14 37 -30 37 -34 0 -15 -67 -63 -125 -90 -33 -16 -52 -28 -43
-29 32 0 120 39 160 71 43 34 37 35 107 -24 29 -25 36 -27 48 -15 20 21 9 40
-43 71 l-45 27 30 39 c29 37 30 39 12 55 -28 26 -51 20 -51 -12z"/>
</g>
</svg>
