<?xml version="1.0" standalone="no"?>
<!DOCTYPE svg PUBLIC "-//W3C//DTD SVG 20010904//EN"
 "http://www.w3.org/TR/2001/REC-SVG-20010904/DTD/svg10.dtd">
<svg version="1.0" xmlns="http://www.w3.org/2000/svg"
 width="96.000000pt" height="68.000000pt" viewBox="0 0 96.000000 68.000000"
 preserveAspectRatio="xMidYMid meet">
<metadata>
Created by potrace 1.16, written by Peter Selinger 2001-2019
</metadata>
<g transform="translate(0.000000,68.000000) scale(0.100000,-0.100000)"
fill="#000000" stroke="none">
<path d="M584 456 c-3 -8 -4 -29 -2 -47 4 -44 36 -60 111 -57 76 4 73 22 -5
28 l-63 5 2 43 c2 36 -1 42 -18 42 -11 0 -22 -6 -25 -14z"/>
<path d="M496 434 c-9 -8 -16 -20 -16 -25 0 -5 -16 -27 -36 -49 -26 -28 -32
-40 -20 -40 21 0 106 82 106 103 0 24 -16 29 -34 11z"/>
</g>
</svg>
