<?xml version="1.0" standalone="no"?>
<!DOCTYPE svg PUBLIC "-//W3C//DTD SVG 20010904//EN"
 "http://www.w3.org/TR/2001/REC-SVG-20010904/DTD/svg10.dtd">
<svg version="1.0" xmlns="http://www.w3.org/2000/svg"
 width="96.000000pt" height="68.000000pt" viewBox="0 0 96.000000 68.000000"
 preserveAspectRatio="xMidYMid meet">
<metadata>
Created by potrace 1.16, written by Peter Selinger 2001-2019
</metadata>
<g transform="translate(0.000000,68.000000) scale(0.100000,-0.100000)"
fill="#000000" stroke="none">
<path d="M550 606 c0 -42 -11 -56 -41 -56 -16 0 -29 -4 -29 -10 0 -5 13 -10
29 -10 24 0 28 -3 24 -20 -7 -26 4 -25 27 3 14 17 36 25 92 33 70 10 72 11 44
23 -16 6 -43 9 -64 5 -30 -6 -34 -4 -29 9 7 18 -17 47 -39 47 -8 0 -14 -10
-14 -24z"/>
<path d="M293 576 c27 -41 22 -46 -50 -46 l-68 -1 24 -20 c17 -14 33 -18 49
-14 72 18 80 18 87 -5 9 -28 30 -20 30 11 0 19 6 25 28 27 15 2 27 8 27 13 0
6 -14 9 -32 7 -27 -3 -33 1 -38 22 -4 20 -13 26 -40 28 l-33 4 16 -26z"/>
</g>
</svg>
