<?xml version="1.0" standalone="no"?>
<!DOCTYPE svg PUBLIC "-//W3C//DTD SVG 20010904//EN"
 "http://www.w3.org/TR/2001/REC-SVG-20010904/DTD/svg10.dtd">
<svg version="1.0" xmlns="http://www.w3.org/2000/svg"
 width="96.000000pt" height="68.000000pt" viewBox="0 0 96.000000 68.000000"
 preserveAspectRatio="xMidYMid meet">
<metadata>
Created by potrace 1.16, written by Peter Selinger 2001-2019
</metadata>
<g transform="translate(0.000000,68.000000) scale(0.100000,-0.100000)"
fill="#000000" stroke="none">
<path d="M421 253 c6 -16 6 -30 1 -35 -7 -7 -189 -26 -270 -28 -7 0 -11 -4 -8
-9 10 -16 69 -21 131 -10 35 6 73 9 86 7 20 -3 18 -6 -22 -32 -24 -16 -78 -44
-119 -63 -41 -18 -69 -33 -62 -33 29 0 130 34 194 66 37 19 69 34 71 34 3 0 2
-31 -1 -70 -4 -66 -4 -70 16 -70 25 0 31 18 34 103 l3 59 85 -56 85 -56 84 0
c46 0 82 2 79 5 -2 3 -51 18 -107 35 -57 17 -127 43 -155 58 l-51 27 128 3
c70 1 127 7 127 12 0 24 -44 31 -148 23 -59 -4 -111 -8 -117 -8 -5 0 -9 11 -7
24 3 27 -12 41 -45 41 -20 0 -21 -3 -12 -27z"/>
</g>
</svg>
