<?xml version="1.0" standalone="no"?>
<!DOCTYPE svg PUBLIC "-//W3C//DTD SVG 20010904//EN"
 "http://www.w3.org/TR/2001/REC-SVG-20010904/DTD/svg10.dtd">
<svg version="1.0" xmlns="http://www.w3.org/2000/svg"
 width="90.000000pt" height="92.000000pt" viewBox="0 0 90.000000 92.000000"
 preserveAspectRatio="xMidYMid meet">
<metadata>
Created by potrace 1.16, written by Peter Selinger 2001-2019
</metadata>
<g transform="translate(0.000000,92.000000) scale(0.100000,-0.100000)"
fill="#000000" stroke="none">
<path d="M639 831 c-37 -12 -316 -34 -437 -35 -99 -1 -103 -2 -95 -21 12 -34
15 -444 3 -527 -9 -62 -8 -84 2 -105 14 -29 38 -43 38 -21 0 10 19 13 72 13
40 0 159 3 264 8 l191 7 19 -35 c23 -43 39 -44 59 -4 14 26 16 71 13 317 -2
158 1 303 5 324 7 33 5 38 -22 57 -35 25 -76 33 -112 22z m39 -50 c9 -5 17
-44 22 -107 10 -111 13 -454 4 -477 -4 -13 -11 -13 -36 -5 -20 7 -84 7 -211
-1 -100 -6 -208 -11 -240 -11 l-58 0 7 283 c4 155 7 283 8 284 3 3 289 32 356
36 112 7 135 7 148 -2z"/>
<path d="M379 743 c-1 -5 -1 -17 0 -29 1 -11 -3 -32 -8 -47 -9 -24 -16 -27
-58 -28 -27 -1 -59 -4 -73 -8 l-25 -7 24 -13 c13 -7 43 -11 67 -9 24 2 44 2
44 0 0 -21 -64 -102 -106 -135 -30 -23 -50 -43 -45 -45 13 -4 84 33 100 52 24
29 31 17 31 -53 0 -78 -12 -122 -48 -169 l-24 -34 30 16 c32 16 72 72 72 100
0 12 9 16 34 16 18 0 54 3 80 6 l46 7 0 -37 c0 -35 -1 -36 -37 -36 l-37 0 39
-40 c21 -22 43 -40 48 -40 21 0 35 72 38 199 3 126 2 134 -18 151 -20 16 -25
16 -98 -2 -42 -11 -79 -18 -82 -15 -2 3 3 19 11 36 12 22 25 31 49 35 17 3 66
10 107 16 80 12 105 24 80 40 -19 12 -39 12 -127 -4 l-72 -13 14 27 c15 29 10
41 -22 59 -25 13 -33 14 -34 4z m141 -243 c0 -26 -3 -29 -27 -28 -16 1 -49 -2
-75 -6 -39 -7 -48 -5 -48 6 0 37 31 53 118 57 29 1 32 -2 32 -29z m5 -80 c4
-12 5 -23 3 -24 -1 -2 -38 -6 -80 -10 l-78 -7 0 28 c0 28 1 28 74 31 68 3 75
1 81 -18z"/>
</g>
</svg>
