<?xml version="1.0" standalone="no"?>
<!DOCTYPE svg PUBLIC "-//W3C//DTD SVG 20010904//EN"
 "http://www.w3.org/TR/2001/REC-SVG-20010904/DTD/svg10.dtd">
<svg version="1.0" xmlns="http://www.w3.org/2000/svg"
 width="96.000000pt" height="68.000000pt" viewBox="0 0 96.000000 68.000000"
 preserveAspectRatio="xMidYMid meet">
<metadata>
Created by potrace 1.16, written by Peter Selinger 2001-2019
</metadata>
<g transform="translate(0.000000,68.000000) scale(0.100000,-0.100000)"
fill="#000000" stroke="none">
<path d="M419 532 c-1 -4 -1 -10 0 -14 0 -4 -4 -19 -9 -33 -8 -21 -16 -25 -52
-26 -71 -1 -93 -17 -25 -18 31 -1 57 -5 57 -10 0 -10 -83 -88 -120 -113 l-25
-17 30 8 c50 14 101 50 130 91 31 45 34 46 135 55 42 3 82 10 90 15 25 16 -33
22 -96 11 -77 -15 -75 -15 -72 15 2 20 -3 28 -19 35 -13 5 -24 5 -24 1z"/>
</g>
</svg>
