<?xml version="1.0" standalone="no"?>
<!DOCTYPE svg PUBLIC "-//W3C//DTD SVG 20010904//EN"
 "http://www.w3.org/TR/2001/REC-SVG-20010904/DTD/svg10.dtd">
<svg version="1.0" xmlns="http://www.w3.org/2000/svg"
 width="96.000000pt" height="68.000000pt" viewBox="0 0 96.000000 68.000000"
 preserveAspectRatio="xMidYMid meet">
<metadata>
Created by potrace 1.16, written by Peter Selinger 2001-2019
</metadata>
<g transform="translate(0.000000,68.000000) scale(0.100000,-0.100000)"
fill="#000000" stroke="none">
<path d="M428 594 c-4 -3 -2 -20 3 -37 5 -18 9 -62 9 -98 l0 -66 -67 -6 c-99
-10 -108 -30 -10 -25 l77 3 0 -57 0 -57 -62 -3 c-38 -2 -63 -8 -66 -15 -3 -10
14 -13 62 -13 l65 0 3 -53 c3 -45 6 -52 26 -55 21 -3 22 0 22 56 l0 60 75 7
c41 4 75 11 75 16 0 11 -58 21 -105 17 l-40 -3 -3 51 c-3 58 -10 54 116 70 29
4 55 11 58 15 10 16 -42 28 -82 18 -22 -4 -52 -9 -68 -9 -24 0 -27 3 -23 23 3
12 9 50 13 83 l6 61 -32 12 c-37 13 -44 13 -52 5z"/>
</g>
</svg>
