<?xml version="1.0" standalone="no"?>
<!DOCTYPE svg PUBLIC "-//W3C//DTD SVG 20010904//EN"
 "http://www.w3.org/TR/2001/REC-SVG-20010904/DTD/svg10.dtd">
<svg version="1.0" xmlns="http://www.w3.org/2000/svg"
 width="96.000000pt" height="68.000000pt" viewBox="0 0 96.000000 68.000000"
 preserveAspectRatio="xMidYMid meet">
<metadata>
Created by potrace 1.16, written by Peter Selinger 2001-2019
</metadata>
<g transform="translate(0.000000,68.000000) scale(0.100000,-0.100000)"
fill="#000000" stroke="none">
<path d="M527 576 l5 -43 -38 -6 c-22 -4 -55 -7 -74 -7 -31 0 -36 3 -38 27 -3
32 -17 43 -56 43 l-29 0 21 -23 c42 -45 31 -57 -53 -57 -42 0 -75 -4 -75 -10
0 -21 44 -32 100 -27 l57 6 9 -37 c8 -31 13 -37 36 -37 29 0 56 -20 44 -32 -4
-5 -50 -10 -101 -11 l-94 -4 19 -21 c11 -11 20 -28 20 -37 0 -36 22 -48 75
-41 69 9 85 4 85 -25 0 -23 -3 -24 -57 -25 -32 0 -67 -4 -78 -9 -19 -7 -19 -8
-2 -15 10 -4 45 -5 78 -2 53 6 59 5 59 -12 0 -22 -26 -31 -97 -31 -29 0 -53
-4 -53 -10 0 -6 32 -10 75 -10 66 0 75 -2 75 -19 0 -16 -11 -19 -92 -25 -50
-3 -114 -6 -142 -6 -47 0 -49 -1 -34 -17 15 -15 31 -15 170 -5 84 7 220 12
303 12 138 0 148 1 133 16 -18 18 -88 23 -218 14 -70 -5 -75 -4 -75 15 0 15 8
21 30 23 95 8 135 14 135 23 0 5 -38 9 -85 9 -67 0 -85 3 -85 14 0 14 10 17
123 31 29 4 45 10 41 17 -4 6 -33 8 -80 3 l-74 -7 0 26 c0 26 1 26 75 26 70 0
76 2 84 24 5 13 22 33 38 44 l28 21 -38 16 c-30 12 -49 14 -88 7 -68 -13 -92
-10 -95 11 -2 12 5 17 24 18 37 1 69 14 54 22 -8 5 -8 16 0 37 l10 30 89 0
c50 0 89 4 89 10 0 18 -39 30 -99 30 -65 0 -67 1 -51 30 8 15 5 22 -12 34 -12
9 -34 16 -49 16 -25 0 -26 -2 -22 -44z m-1 -88 c12 -20 -35 -48 -81 -48 -37 0
-43 3 -47 25 -5 23 -2 24 51 28 31 2 59 4 63 5 4 1 10 -3 14 -10z m96 -153
c-5 -31 -15 -36 -76 -42 l-56 -6 0 31 c0 35 14 41 90 38 39 -1 45 -4 42 -21z
m-182 -26 l0 -30 -62 3 c-60 3 -63 4 -66 30 -3 26 -2 27 55 30 32 2 61 2 66 0
4 -2 7 -17 7 -33z"/>
</g>
</svg>
