<?xml version="1.0" standalone="no"?>
<!DOCTYPE svg PUBLIC "-//W3C//DTD SVG 20010904//EN"
 "http://www.w3.org/TR/2001/REC-SVG-20010904/DTD/svg10.dtd">
<svg version="1.0" xmlns="http://www.w3.org/2000/svg"
 width="96.000000pt" height="68.000000pt" viewBox="0 0 96.000000 68.000000"
 preserveAspectRatio="xMidYMid meet">
<metadata>
Created by potrace 1.16, written by Peter Selinger 2001-2019
</metadata>
<g transform="translate(0.000000,68.000000) scale(0.100000,-0.100000)"
fill="#000000" stroke="none">
<path d="M326 611 c-3 -5 -2 -21 4 -36 5 -14 10 -57 10 -95 l0 -69 -57 -6
c-103 -11 -124 -16 -120 -28 4 -14 96 -16 140 -4 37 10 35 -4 -13 -101 -30
-59 -57 -96 -105 -141 -72 -67 -64 -83 16 -33 42 27 139 127 139 144 0 16 20
7 50 -22 31 -31 54 -38 65 -20 7 12 -30 50 -50 50 -8 0 -15 4 -15 10 0 5 -3 9
-7 9 -29 -5 -30 4 -11 60 19 57 22 59 67 71 25 7 54 14 64 17 22 6 22 -11 1
-91 -9 -33 -17 -87 -17 -118 -2 -50 2 -61 28 -88 16 -16 45 -35 64 -40 47 -13
146 -13 194 1 l39 10 -7 62 c-8 75 -21 93 -30 43 -5 -23 -19 -46 -38 -62 -29
-24 -37 -26 -96 -20 -38 3 -71 12 -82 22 -39 36 -33 124 18 237 37 82 25 87
-136 61 l-44 -7 5 86 c6 94 11 85 -54 103 -9 3 -19 1 -22 -5z"/>
</g>
</svg>
