<?xml version="1.0" standalone="no"?>
<!DOCTYPE svg PUBLIC "-//W3C//DTD SVG 20010904//EN"
 "http://www.w3.org/TR/2001/REC-SVG-20010904/DTD/svg10.dtd">
<svg version="1.0" xmlns="http://www.w3.org/2000/svg"
 width="96.000000pt" height="68.000000pt" viewBox="0 0 96.000000 68.000000"
 preserveAspectRatio="xMidYMid meet">
<metadata>
Created by potrace 1.16, written by Peter Selinger 2001-2019
</metadata>
<g transform="translate(0.000000,68.000000) scale(0.100000,-0.100000)"
fill="#000000" stroke="none">
<path d="M480 550 c0 -48 -1 -50 -27 -50 -48 0 -103 -12 -97 -21 3 -5 27 -9
55 -9 27 0 49 -5 49 -10 0 -9 -20 -45 -37 -69 -2 -2 -11 3 -20 12 -20 17 -73
33 -73 21 0 -4 14 -20 31 -35 l31 -27 -24 -15 c-12 -8 -36 -22 -53 -31 -34
-17 -20 -21 21 -6 36 14 51 -1 60 -55 7 -47 25 -71 47 -62 29 11 41 -11 42
-70 0 -57 0 -58 -27 -55 -36 4 -35 0 8 -33 50 -38 62 -23 66 83 l3 84 33 -6
c28 -4 34 -1 42 20 6 14 19 44 29 67 17 36 18 44 6 56 -16 16 -41 17 -154 1
-46 -6 -85 -9 -87 -7 -2 2 15 24 38 48 24 24 48 53 53 63 11 19 12 19 40 0 17
-10 57 -40 90 -65 33 -26 71 -50 83 -54 28 -8 112 2 112 14 0 5 -30 16 -67 25
-36 9 -75 23 -86 31 -19 13 -18 15 17 31 20 10 36 23 36 30 0 19 -41 29 -51
13 -31 -55 -33 -55 -82 -29 -25 14 -46 30 -46 35 -1 6 22 14 51 18 83 14 86
31 4 24 l-68 -6 6 34 c5 27 3 36 -13 44 -35 19 -41 13 -41 -39z m110 -244 c0
-19 -5 -23 -27 -23 -16 1 -54 -3 -85 -7 -49 -7 -59 -6 -64 8 -9 24 1 30 64 37
109 12 112 11 112 -15z m-10 -65 c0 -16 -9 -20 -52 -23 -70 -4 -98 1 -98 17 0
14 30 20 108 23 35 2 42 -1 42 -17z"/>
<path d="M185 530 c-9 -15 48 -70 73 -70 19 0 23 4 20 27 -2 22 -10 29 -45 39
-24 7 -45 9 -48 4z"/>
<path d="M113 378 c-8 -14 52 -68 76 -68 24 0 36 30 19 46 -20 19 -87 34 -95
22z"/>
<path d="M200 213 c-36 -38 -74 -73 -84 -79 -20 -10 -20 -11 0 -44 10 -18 24
-35 30 -37 12 -4 127 203 122 218 -2 5 -32 -21 -68 -58z"/>
<path d="M350 148 c-5 -13 -22 -39 -37 -58 l-28 -34 31 19 c79 51 99 77 68 89
-23 9 -24 8 -34 -16z"/>
<path d="M636 128 c62 -69 77 -79 93 -63 12 12 13 18 2 38 -14 27 -69 57 -103
57 -21 0 -20 -2 8 -32z"/>
</g>
</svg>
