<?xml version="1.0" standalone="no"?>
<!DOCTYPE svg PUBLIC "-//W3C//DTD SVG 20010904//EN"
 "http://www.w3.org/TR/2001/REC-SVG-20010904/DTD/svg10.dtd">
<svg version="1.0" xmlns="http://www.w3.org/2000/svg"
 width="96.000000pt" height="68.000000pt" viewBox="0 0 96.000000 68.000000"
 preserveAspectRatio="xMidYMid meet">
<metadata>
Created by potrace 1.16, written by Peter Selinger 2001-2019
</metadata>
<g transform="translate(0.000000,68.000000) scale(0.100000,-0.100000)"
fill="#000000" stroke="none">
<path d="M488 124 l4 -66 -31 7 c-17 4 -31 5 -31 2 0 -3 16 -17 36 -32 49 -37
61 -23 66 75 3 74 3 75 -23 78 -25 3 -25 3 -21 -64z"/>
<path d="M331 120 c-18 -27 -37 -50 -43 -50 -6 0 -9 -3 -6 -6 8 -8 38 9 86 49
30 26 38 37 29 46 -20 20 -33 12 -66 -39z"/>
<path d="M655 110 c51 -52 85 -64 85 -31 0 25 -25 50 -67 67 -64 27 -70 17
-18 -36z"/>
</g>
</svg>
