<?xml version="1.0" standalone="no"?>
<!DOCTYPE svg PUBLIC "-//W3C//DTD SVG 20010904//EN"
 "http://www.w3.org/TR/2001/REC-SVG-20010904/DTD/svg10.dtd">
<svg version="1.0" xmlns="http://www.w3.org/2000/svg"
 width="90.000000pt" height="92.000000pt" viewBox="0 0 90.000000 92.000000"
 preserveAspectRatio="xMidYMid meet">
<metadata>
Created by potrace 1.16, written by Peter Selinger 2001-2019
</metadata>
<g transform="translate(0.000000,92.000000) scale(0.100000,-0.100000)"
fill="#000000" stroke="none">
<path d="M480 859 c-19 -4 -79 -13 -132 -20 -82 -10 -96 -14 -86 -26 8 -10 30
-14 72 -12 l61 3 3 -31 c3 -30 3 -30 -59 -37 -105 -11 -151 -8 -164 11 -11 14
-14 12 -25 -22 -7 -21 -21 -53 -32 -71 -22 -38 -16 -77 10 -72 10 2 28 26 41
54 l25 51 90 12 c50 8 97 16 104 19 12 4 14 -9 10 -79 -3 -46 -1 -95 4 -109 9
-24 10 -24 24 -6 10 14 14 47 14 107 0 48 4 90 9 94 15 9 231 19 231 11 0 -5
-9 -21 -21 -37 -11 -16 -16 -29 -11 -29 21 0 128 23 135 30 13 12 -3 37 -41
64 l-37 25 -110 -19 c-151 -27 -152 -27 -147 10 4 31 11 35 84 45 54 7 68 19
39 34 -22 12 -41 12 -91 0z"/>
<path d="M527 675 l-37 -44 60 21 c62 21 69 31 34 54 -17 11 -23 8 -57 -31z"/>
<path d="M250 662 c0 -11 55 -42 74 -42 19 0 21 21 4 38 -13 13 -78 17 -78 4z"/>
<path d="M500 602 c0 -11 74 -52 94 -52 23 0 20 26 -6 44 -23 17 -88 22 -88 8z"/>
<path d="M310 589 c-14 -6 -42 -14 -64 -17 l-38 -7 20 -25 c18 -22 22 -23 43
-12 13 7 40 26 59 42 35 30 27 38 -20 19z"/>
<path d="M507 543 c-4 -3 -3 -11 2 -17 5 -6 11 -29 13 -50 3 -39 2 -40 -37
-48 -77 -15 -86 -19 -79 -29 4 -7 28 -10 60 -7 l53 5 -22 -41 c-12 -22 -54
-73 -94 -113 -40 -40 -69 -73 -65 -73 29 2 109 64 155 118 l27 34 0 -44 c0
-24 -6 -70 -13 -104 -10 -45 -10 -70 -3 -92 29 -83 50 -30 56 142 l5 138 47
-68 c78 -114 91 -124 151 -123 98 1 101 12 13 53 -62 28 -94 52 -150 109 l-71
72 65 8 c92 11 101 15 66 34 -20 11 -43 13 -73 9 l-45 -6 7 29 c5 23 1 33 -21
50 -28 22 -37 25 -47 14z"/>
<path d="M226 488 c4 -6 10 -28 14 -49 l7 -37 -62 -11 c-34 -6 -70 -11 -81
-11 -18 -1 -18 -1 1 -16 15 -12 33 -14 72 -10 l53 6 -30 -49 c-17 -27 -62 -79
-100 -115 -39 -36 -68 -66 -65 -66 26 0 104 52 149 100 63 66 67 62 42 -45
-13 -52 -12 -64 0 -95 15 -33 16 -34 30 -16 8 11 14 41 14 66 0 26 3 74 6 108
l7 61 34 -35 c36 -37 53 -37 53 1 0 19 -9 27 -45 41 -59 22 -62 49 -5 59 22 4
42 11 45 15 9 14 -33 32 -56 25 -19 -6 -20 -4 -15 23 6 24 3 32 -18 46 -29 19
-61 22 -50 4z"/>
</g>
</svg>
