<?xml version="1.0" standalone="no"?>
<!DOCTYPE svg PUBLIC "-//W3C//DTD SVG 20010904//EN"
 "http://www.w3.org/TR/2001/REC-SVG-20010904/DTD/svg10.dtd">
<svg version="1.0" xmlns="http://www.w3.org/2000/svg"
 width="96.000000pt" height="68.000000pt" viewBox="0 0 96.000000 68.000000"
 preserveAspectRatio="xMidYMid meet">
<metadata>
Created by potrace 1.16, written by Peter Selinger 2001-2019
</metadata>
<g transform="translate(0.000000,68.000000) scale(0.100000,-0.100000)"
fill="#000000" stroke="none">
<path d="M425 592 c-66 -8 -122 -17 -125 -19 -12 -10 30 -23 78 -23 38 0 54
-4 59 -15 3 -9 4 -18 1 -20 -2 -2 -46 -7 -97 -11 -69 -5 -95 -4 -101 5 -8 14
-60 -66 -60 -93 0 -37 50 -5 64 40 6 19 17 22 93 28 47 3 88 4 91 2 2 -3 5
-33 6 -68 1 -49 4 -63 16 -63 12 0 16 16 18 72 l3 72 42 5 c114 14 146 16 161
10 15 -6 15 -9 -6 -31 l-23 -25 50 7 c97 13 105 24 47 58 -29 17 -40 18 -114
8 -45 -6 -98 -11 -119 -11 -32 0 -36 3 -32 19 4 15 18 21 64 26 32 4 62 11 65
16 5 8 -39 31 -54 27 -4 0 -61 -8 -127 -16z"/>
<path d="M549 464 l-24 -26 35 7 c46 10 66 25 48 36 -21 14 -33 10 -59 -17z"/>
<path d="M312 448 c5 -13 53 -29 62 -20 3 3 1 11 -5 19 -14 16 -62 18 -57 1z"/>
<path d="M530 412 c0 -12 72 -42 83 -35 5 3 3 11 -5 19 -17 17 -78 30 -78 16z"/>
<path d="M318 393 c-25 -3 -38 -9 -38 -19 0 -20 38 -17 80 6 36 20 34 21 -42
13z"/>
<path d="M530 360 c0 -6 6 -19 12 -30 17 -26 2 -40 -51 -47 -58 -8 -62 -23 -7
-23 25 0 46 -3 46 -7 0 -15 -54 -75 -95 -104 -25 -18 -45 -36 -45 -41 0 -14
72 27 107 61 18 17 36 31 39 31 4 0 3 -37 -1 -83 -5 -69 -4 -86 9 -96 13 -11
16 -9 21 11 4 14 7 64 8 111 1 48 4 87 6 87 2 0 33 -29 69 -65 58 -59 68 -65
105 -65 67 0 75 14 20 35 -60 22 -130 66 -166 103 l-28 29 32 7 c17 3 44 6 60
6 16 0 29 4 29 10 0 14 -46 23 -80 16 -27 -5 -30 -3 -30 19 0 14 -8 29 -19 35
-25 13 -41 13 -41 0z"/>
<path d="M287 333 c-3 -3 -2 -16 4 -30 15 -39 12 -42 -51 -49 -71 -8 -81 -27
-12 -23 36 2 46 -1 44 -12 -5 -19 -58 -73 -104 -105 -21 -15 -36 -29 -34 -31
10 -10 50 11 101 52 29 24 55 42 58 39 2 -2 1 -24 -4 -47 -11 -56 -11 -69 1
-87 20 -29 40 17 40 93 l0 68 26 -20 c33 -26 57 -27 52 -3 -2 10 -18 21 -41
26 -48 12 -47 40 1 44 39 4 38 25 -1 30 -18 2 -27 9 -27 21 0 17 -43 45 -53
34z"/>
</g>
</svg>
