<?xml version="1.0" standalone="no"?>
<!DOCTYPE svg PUBLIC "-//W3C//DTD SVG 20010904//EN"
 "http://www.w3.org/TR/2001/REC-SVG-20010904/DTD/svg10.dtd">
<svg version="1.0" xmlns="http://www.w3.org/2000/svg"
 width="96.000000pt" height="68.000000pt" viewBox="0 0 96.000000 68.000000"
 preserveAspectRatio="xMidYMid meet">
<metadata>
Created by potrace 1.16, written by Peter Selinger 2001-2019
</metadata>
<g transform="translate(0.000000,68.000000) scale(0.100000,-0.100000)"
fill="#000000" stroke="none">
<path d="M320 413 c-36 -8 -92 -15 -125 -16 l-60 -2 0 -147 c0 -140 6 -178 24
-149 6 9 39 15 105 19 90 4 97 3 114 -17 17 -22 18 -22 34 -4 14 15 17 43 19
160 0 78 -2 146 -5 151 -10 17 -40 19 -106 5z m70 -144 l0 -119 -42 0 c-24 0
-74 -3 -112 -7 l-68 -6 7 114 c4 63 9 116 12 119 7 8 157 26 181 22 21 -4 22
-8 22 -123z"/>
</g>
</svg>
