<?xml version="1.0" standalone="no"?>
<!DOCTYPE svg PUBLIC "-//W3C//DTD SVG 20010904//EN"
 "http://www.w3.org/TR/2001/REC-SVG-20010904/DTD/svg10.dtd">
<svg version="1.0" xmlns="http://www.w3.org/2000/svg"
 width="90.000000pt" height="92.000000pt" viewBox="0 0 90.000000 92.000000"
 preserveAspectRatio="xMidYMid meet">
<metadata>
Created by potrace 1.16, written by Peter Selinger 2001-2019
</metadata>
<g transform="translate(0.000000,92.000000) scale(0.100000,-0.100000)"
fill="#000000" stroke="none">
<path d="M736 788 c11 -53 12 -542 1 -582 -7 -25 -12 -28 -42 -24 -19 2 -35 3
-35 1 0 -8 84 -113 91 -113 5 0 16 12 26 26 15 23 17 61 20 304 2 218 5 286
18 322 19 56 14 70 -31 91 -53 26 -58 23 -48 -25z"/>
<path d="M177 760 c-10 -79 -100 -270 -160 -337 -10 -12 -17 -27 -15 -34 4
-13 70 46 104 93 14 21 24 26 42 22 19 -6 23 -12 20 -42 -3 -34 -5 -37 -53
-47 -47 -10 -49 -11 -27 -23 13 -8 36 -10 57 -6 l35 6 0 -76 c0 -74 -1 -77
-28 -87 -15 -6 -51 -11 -79 -12 -29 0 -53 -4 -53 -8 0 -10 52 -59 63 -59 5 0
27 11 50 24 23 13 72 36 110 51 37 15 67 34 67 42 0 17 -12 17 -55 -1 l-35
-15 0 74 c0 73 1 75 28 81 52 11 62 15 62 24 0 12 -45 24 -69 17 -16 -4 -18 1
-17 34 0 30 5 39 18 39 23 0 48 10 48 20 0 17 -50 19 -96 5 -27 -8 -50 -15
-51 -15 -3 0 75 162 81 167 2 3 20 -12 39 -33 34 -37 57 -40 57 -5 0 22 -25
46 -63 60 -16 6 -25 16 -22 21 11 17 -4 46 -29 58 -22 10 -24 9 -29 -38z"/>
<path d="M465 705 c-27 -7 -70 -14 -94 -14 -38 -1 -42 -3 -31 -16 9 -11 11
-56 8 -174 -5 -162 1 -202 27 -181 24 20 -4 -59 -42 -118 -19 -30 -32 -56 -29
-59 8 -9 59 36 108 95 47 57 50 80 9 83 -9 1 9 5 39 10 50 7 57 6 72 -14 30
-37 38 -4 38 149 0 78 3 161 6 186 6 40 4 45 -20 56 -15 7 -30 11 -34 11 -4
-1 -29 -7 -57 -14z m53 -70 l3 -50 -66 -2 -65 -1 0 43 0 43 48 10 c73 15 77
13 80 -43z m10 -117 c3 -36 2 -37 -30 -36 -18 0 -50 -3 -70 -7 l-38 -8 0 41
c0 41 0 41 43 45 85 8 92 6 95 -35z m2 -103 c0 -42 -1 -44 -27 -43 -16 1 -49
-2 -75 -6 l-48 -8 0 46 c0 44 1 45 28 40 15 -3 45 -1 67 4 22 6 43 10 48 11 4
1 7 -19 7 -44z"/>
<path d="M644 498 c5 -128 16 -173 33 -132 4 10 8 70 8 133 0 109 -1 114 -23
122 l-22 9 4 -132z"/>
<path d="M261 334 c-12 -26 -21 -49 -21 -51 0 -3 18 10 40 27 45 36 48 45 21
60 -18 9 -22 5 -40 -36z"/>
<path d="M80 328 c0 -23 40 -80 53 -75 7 2 13 15 15 30 3 20 -3 29 -27 41 -36
19 -41 20 -41 4z"/>
<path d="M500 298 c1 -25 65 -133 80 -133 23 0 24 57 2 86 -27 32 -82 65 -82
47z"/>
</g>
</svg>
