<?xml version="1.0" standalone="no"?>
<!DOCTYPE svg PUBLIC "-//W3C//DTD SVG 20010904//EN"
 "http://www.w3.org/TR/2001/REC-SVG-20010904/DTD/svg10.dtd">
<svg version="1.0" xmlns="http://www.w3.org/2000/svg"
 width="96.000000pt" height="68.000000pt" viewBox="0 0 96.000000 68.000000"
 preserveAspectRatio="xMidYMid meet">
<metadata>
Created by potrace 1.16, written by Peter Selinger 2001-2019
</metadata>
<g transform="translate(0.000000,68.000000) scale(0.100000,-0.100000)"
fill="#000000" stroke="none">
<path d="M299 243 c31 -53 61 -70 61 -34 0 21 -35 51 -58 51 -9 0 -10 -5 -3
-17z"/>
<path d="M220 213 c1 -13 38 -53 49 -53 17 0 13 47 -5 54 -22 8 -44 8 -44 -1z"/>
<path d="M134 172 c8 -16 22 -34 30 -41 16 -13 36 -7 36 10 0 16 -48 59 -65
59 -14 0 -14 -3 -1 -28z"/>
</g>
</svg>
