<?xml version="1.0" standalone="no"?>
<!DOCTYPE svg PUBLIC "-//W3C//DTD SVG 20010904//EN"
 "http://www.w3.org/TR/2001/REC-SVG-20010904/DTD/svg10.dtd">
<svg version="1.0" xmlns="http://www.w3.org/2000/svg"
 width="96.000000pt" height="68.000000pt" viewBox="0 0 96.000000 68.000000"
 preserveAspectRatio="xMidYMid meet">
<metadata>
Created by potrace 1.16, written by Peter Selinger 2001-2019
</metadata>
<g transform="translate(0.000000,68.000000) scale(0.100000,-0.100000)"
fill="#000000" stroke="none">
<path d="M540 572 c0 -36 -60 -138 -115 -194 -30 -32 -49 -58 -41 -58 25 0
110 75 146 128 19 28 40 52 46 52 6 0 47 -38 91 -85 84 -90 90 -93 168 -76 29
6 28 8 -39 39 -38 18 -101 58 -139 88 -55 45 -68 60 -63 77 6 25 -10 47 -35
47 -12 0 -19 -7 -19 -18z"/>
</g>
</svg>
