<?xml version="1.0" standalone="no"?>
<!DOCTYPE svg PUBLIC "-//W3C//DTD SVG 20010904//EN"
 "http://www.w3.org/TR/2001/REC-SVG-20010904/DTD/svg10.dtd">
<svg version="1.0" xmlns="http://www.w3.org/2000/svg"
 width="96.000000pt" height="68.000000pt" viewBox="0 0 96.000000 68.000000"
 preserveAspectRatio="xMidYMid meet">
<metadata>
Created by potrace 1.16, written by Peter Selinger 2001-2019
</metadata>
<g transform="translate(0.000000,68.000000) scale(0.100000,-0.100000)"
fill="#000000" stroke="none">
<path d="M217 568 c10 -42 7 -343 -5 -428 -10 -72 0 -110 29 -110 24 0 29 20
29 118 0 48 3 130 6 183 l7 96 36 -24 c33 -22 36 -23 48 -7 17 23 2 41 -48 54
-42 12 -47 26 -30 86 10 37 -7 57 -52 62 -28 4 -29 3 -20 -30z"/>
<path d="M585 571 c-16 -5 -66 -9 -110 -10 -44 -1 -75 -5 -69 -9 17 -11 31
-43 39 -89 7 -44 22 -64 34 -45 7 12 146 20 157 9 18 -17 33 -3 59 59 19 46
25 68 17 76 -14 14 -89 19 -127 9z m67 -26 c0 -8 1 -20 2 -25 1 -7 -38 -13
-97 -16 -98 -5 -99 -5 -95 18 3 20 9 23 73 26 39 2 72 6 74 8 11 10 41 2 43
-11z m-7 -54 c3 -5 -2 -17 -11 -26 -22 -22 -159 -18 -159 5 0 11 16 16 65 21
36 3 73 6 82 7 9 1 19 -2 23 -7z"/>
<path d="M132 388 c-28 -54 -29 -88 -2 -88 28 0 52 42 48 86 -4 51 -19 52 -46
2z"/>
<path d="M520 415 c0 -3 7 -16 15 -29 l16 -24 -68 -6 c-147 -14 -167 -18 -149
-28 11 -6 72 -4 175 6 87 9 195 16 240 16 80 0 106 12 55 24 -25 7 -142 0
-192 -10 -17 -3 -25 1 -31 19 -5 14 -17 27 -26 31 -20 7 -35 8 -35 1z"/>
<path d="M610 309 c-19 -5 -70 -10 -112 -11 -43 -2 -78 -6 -78 -10 0 -5 4 -8
9 -8 5 0 15 -19 23 -42 12 -41 15 -43 47 -40 42 4 51 -8 51 -77 l0 -54 -37 6
-36 6 34 -29 c39 -34 45 -35 65 -16 10 10 14 38 14 89 0 80 5 86 68 87 14 0
22 6 22 18 0 10 7 28 17 41 15 23 15 25 -2 37 -21 16 -34 16 -85 3z m35 -46
c-4 -16 -7 -29 -9 -30 -1 -1 -36 -5 -79 -9 -66 -6 -77 -5 -77 9 0 8 -3 22 -6
31 -6 15 17 19 135 24 42 2 43 2 36 -25z"/>
<path d="M401 137 c-5 -13 -16 -29 -25 -36 -9 -7 -16 -18 -16 -23 0 -10 40 12
81 43 20 16 22 20 9 29 -24 16 -40 12 -49 -13z"/>
<path d="M713 114 c46 -48 77 -54 77 -15 0 13 -14 26 -43 40 -74 36 -85 27
-34 -25z"/>
</g>
</svg>
