<?xml version="1.0" standalone="no"?>
<!DOCTYPE svg PUBLIC "-//W3C//DTD SVG 20010904//EN"
 "http://www.w3.org/TR/2001/REC-SVG-20010904/DTD/svg10.dtd">
<svg version="1.0" xmlns="http://www.w3.org/2000/svg"
 width="90.000000pt" height="92.000000pt" viewBox="0 0 90.000000 92.000000"
 preserveAspectRatio="xMidYMid meet">
<metadata>
Created by potrace 1.16, written by Peter Selinger 2001-2019
</metadata>
<g transform="translate(0.000000,92.000000) scale(0.100000,-0.100000)"
fill="#000000" stroke="none">
<path d="M466 882 c-2 -4 -1 -14 5 -22 5 -8 9 -32 9 -52 0 -40 -6 -44 -73 -50
-48 -5 -34 -23 20 -26 47 -3 54 -6 59 -28 4 -14 4 -27 2 -29 -2 -3 -39 -10
-81 -16 -42 -6 -77 -15 -77 -20 0 -18 47 -20 163 -5 67 9 148 19 180 22 61 6
72 18 32 36 -19 9 -41 9 -89 0 -86 -16 -86 -16 -86 17 0 27 3 29 60 40 38 8
60 17 60 25 0 19 -43 28 -75 16 -44 -17 -48 -13 -41 35 7 42 6 46 -19 55 -32
12 -42 13 -49 2z"/>
<path d="M230 786 c0 -60 -103 -234 -196 -329 -20 -21 -34 -41 -30 -44 7 -7
110 72 136 104 l18 23 7 -27 c8 -32 -1 -199 -17 -304 -12 -81 -1 -139 27 -139
20 0 24 31 26 207 1 89 5 182 9 205 4 29 2 51 -8 69 -13 23 -11 30 34 105 26
43 54 87 63 97 15 18 14 21 -12 43 -40 34 -57 31 -57 -10z"/>
<path d="M597 599 c7 -46 -4 -59 -50 -59 -19 0 -27 -4 -24 -12 2 -8 20 -12 44
-11 37 1 40 0 41 -27 1 -30 -16 -40 -70 -40 -29 0 -45 -15 -27 -26 11 -6 247
13 279 23 12 4 11 7 -5 19 -15 12 -35 14 -81 9 l-61 -6 5 29 c4 27 9 31 48 37
24 3 44 10 44 15 0 14 -36 21 -66 14 -26 -7 -27 -6 -21 23 7 35 -7 53 -39 53
-20 0 -22 -4 -17 -41z"/>
<path d="M336 573 c3 -16 7 -34 9 -40 5 -15 -25 -33 -54 -33 -12 0 -21 -4 -21
-10 0 -10 18 -14 58 -10 18 1 22 -4 22 -30 0 -35 -15 -44 -72 -44 -21 0 -38
-3 -38 -7 0 -9 35 -39 46 -39 14 0 193 75 201 85 9 8 -51 1 -79 -10 -15 -6
-18 -2 -18 24 0 28 3 31 40 37 22 4 43 10 46 15 7 11 -41 23 -67 16 -19 -5
-21 -2 -16 22 7 33 -8 51 -40 51 -20 0 -23 -4 -17 -27z"/>
<path d="M485 362 c-188 -30 -186 -30 -155 -48 16 -9 39 -12 62 -8 l38 6 -12
-34 c-17 -50 -61 -110 -119 -162 -55 -49 -52 -58 10 -26 61 30 98 67 137 133
29 50 34 65 25 79 -10 16 -7 18 24 18 l35 0 0 -82 c0 -100 19 -145 70 -170 73
-37 221 -12 250 41 8 17 7 32 -7 71 -18 52 -33 65 -33 30 0 -43 -28 -79 -72
-90 -49 -14 -121 -5 -143 16 -20 20 -20 100 0 138 11 20 12 32 5 41 -13 15 16
25 78 25 23 0 42 4 42 10 0 12 -54 41 -72 38 -7 0 -80 -12 -163 -26z"/>
</g>
</svg>
