<?xml version="1.0" standalone="no"?>
<!DOCTYPE svg PUBLIC "-//W3C//DTD SVG 20010904//EN"
 "http://www.w3.org/TR/2001/REC-SVG-20010904/DTD/svg10.dtd">
<svg version="1.0" xmlns="http://www.w3.org/2000/svg"
 width="96.000000pt" height="68.000000pt" viewBox="0 0 96.000000 68.000000"
 preserveAspectRatio="xMidYMid meet">
<metadata>
Created by potrace 1.16, written by Peter Selinger 2001-2019
</metadata>
<g transform="translate(0.000000,68.000000) scale(0.100000,-0.100000)"
fill="#000000" stroke="none">
<path d="M470 569 c0 -44 -17 -69 -45 -69 -14 0 -25 -4 -25 -10 0 -5 11 -10
25 -10 28 0 30 -6 15 -44 -15 -40 4 -31 29 14 22 39 24 40 77 40 30 0 54 4 54
9 0 12 -26 21 -62 21 -23 0 -29 4 -24 15 3 8 9 21 12 29 3 9 -5 17 -25 24 -30
11 -31 10 -31 -19z"/>
<path d="M250 565 c0 -4 7 -20 16 -36 8 -17 14 -32 12 -34 -2 -2 -28 -7 -58
-12 -55 -10 -55 -10 -27 -23 20 -10 36 -11 61 -3 31 10 35 8 45 -13 14 -32 35
-31 28 2 -3 19 1 28 17 34 21 9 21 9 -1 9 -16 1 -23 7 -23 22 0 34 -19 59 -45
59 -14 0 -25 -2 -25 -5z"/>
</g>
</svg>
