<?xml version="1.0" standalone="no"?>
<!DOCTYPE svg PUBLIC "-//W3C//DTD SVG 20010904//EN"
 "http://www.w3.org/TR/2001/REC-SVG-20010904/DTD/svg10.dtd">
<svg version="1.0" xmlns="http://www.w3.org/2000/svg"
 width="96.000000pt" height="68.000000pt" viewBox="0 0 96.000000 68.000000"
 preserveAspectRatio="xMidYMid meet">
<metadata>
Created by potrace 1.16, written by Peter Selinger 2001-2019
</metadata>
<g transform="translate(0.000000,68.000000) scale(0.100000,-0.100000)"
fill="#000000" stroke="none">
<path d="M668 605 c-10 -11 -413 -36 -462 -29 l-49 6 9 -28 c10 -31 12 -247 4
-381 -4 -70 -2 -85 13 -100 12 -13 20 -15 25 -6 5 7 84 15 232 22 l225 10 20
-24 c22 -26 41 -31 65 -15 13 8 15 46 15 242 0 128 4 240 8 249 6 13 -1 21
-36 38 -44 22 -60 25 -69 16z m11 -54 c21 -13 37 -243 25 -342 l-9 -74 -234
-8 c-128 -5 -235 -6 -238 -3 -3 3 -2 97 2 209 l7 204 147 10 c202 13 283 14
300 4z"/>
<path d="M410 512 c0 -27 -52 -92 -104 -131 -25 -19 -44 -36 -42 -38 9 -10 87
40 139 87 l57 52 27 -20 c45 -32 133 -82 144 -82 6 0 9 10 7 22 -2 18 -20 29
-80 53 -44 17 -85 40 -94 53 -18 27 -54 30 -54 4z"/>
<path d="M430 387 c-51 -11 -53 -12 -20 -15 47 -5 122 7 115 19 -7 11 -22 10
-95 -4z"/>
<path d="M569 346 c-10 -10 -241 -36 -265 -30 -24 6 -26 5 -19 -12 5 -10 11
-46 14 -78 7 -68 25 -84 35 -31 6 30 11 35 35 35 22 0 27 -4 27 -21 -1 -33 22
-35 26 -2 2 22 9 29 31 31 25 3 27 1 27 -33 0 -42 15 -39 23 3 6 29 27 42 70
42 13 0 18 -6 15 -22 -2 -18 -9 -23 -30 -23 -33 1 -34 -2 -8 -33 40 -48 73
-12 85 94 6 58 6 61 -20 72 -27 13 -39 15 -46 8z m19 -53 c3 -21 -1 -23 -37
-23 -41 0 -46 5 -35 35 10 26 68 16 72 -12z m-108 -8 c0 -21 -5 -25 -28 -25
-24 0 -28 4 -26 23 1 12 3 23 3 25 1 1 12 2 26 2 20 0 25 -5 25 -25z m-90 -10
c0 -21 -5 -25 -30 -25 -23 0 -30 5 -30 19 0 20 12 29 43 30 12 1 17 -7 17 -24z"/>
</g>
</svg>
