<?xml version="1.0" standalone="no"?>
<!DOCTYPE svg PUBLIC "-//W3C//DTD SVG 20010904//EN"
 "http://www.w3.org/TR/2001/REC-SVG-20010904/DTD/svg10.dtd">
<svg version="1.0" xmlns="http://www.w3.org/2000/svg"
 width="96.000000pt" height="68.000000pt" viewBox="0 0 96.000000 68.000000"
 preserveAspectRatio="xMidYMid meet">
<metadata>
Created by potrace 1.16, written by Peter Selinger 2001-2019
</metadata>
<g transform="translate(0.000000,68.000000) scale(0.100000,-0.100000)"
fill="#000000" stroke="none">
<path d="M285 570 c-16 -4 -56 -8 -87 -9 -55 -1 -80 -12 -57 -26 7 -5 9 -52 8
-139 -2 -72 0 -137 5 -144 4 -7 16 -10 27 -7 10 4 19 3 19 0 0 -8 -21 -48 -29
-55 -22 -19 -63 -72 -51 -65 37 20 90 68 85 76 -4 5 0 6 8 4 18 -8 53 30 37
40 -9 6 -9 10 1 16 24 15 71 10 85 -8 11 -16 14 -16 28 -3 11 11 15 49 18 158
3 133 1 145 -16 158 -21 15 -35 16 -81 4z m37 -59 c4 -28 2 -29 -51 -40 -73
-15 -71 -16 -71 23 0 38 8 42 81 45 33 1 37 -2 41 -28z m8 -90 c0 -27 -3 -29
-47 -35 -27 -4 -56 -9 -65 -12 -14 -4 -18 1 -18 25 0 28 3 30 48 36 26 4 52 8
57 10 21 7 25 4 25 -24z m0 -90 c0 -37 -1 -37 -77 -46 -61 -7 -63 -6 -63 17 0
37 12 46 65 51 28 2 56 4 63 5 7 1 12 -10 12 -27z"/>
<path d="M545 558 c-125 -21 -137 -24 -119 -36 33 -21 19 -195 -24 -285 -16
-34 -35 -69 -43 -77 -8 -8 -21 -24 -29 -34 -14 -18 -14 -19 6 -8 12 6 31 21
42 34 61 65 71 84 92 166 10 38 13 41 29 30 25 -18 91 -97 91 -110 0 -17 -42
-48 -108 -80 -35 -17 -61 -32 -59 -35 11 -11 82 12 133 43 31 19 60 34 64 34
5 0 23 -18 41 -40 37 -45 63 -53 134 -42 l50 7 -88 44 c-48 25 -92 50 -97 56
-7 8 4 38 32 93 53 103 49 111 -52 94 -39 -7 -90 -12 -113 -12 l-43 0 4 58 c2
31 5 58 7 60 2 2 58 9 126 17 68 8 126 15 129 15 3 0 -4 7 -14 15 -24 18 -40
18 -191 -7z m115 -182 c0 -18 -37 -106 -45 -106 -6 0 -109 100 -103 100 39 5
84 13 87 16 12 11 61 3 61 -10z"/>
<path d="M290 231 c0 -6 4 -11 8 -11 5 0 15 -11 22 -25 7 -14 17 -25 21 -25
13 0 16 35 4 47 -18 16 -55 26 -55 14z"/>
</g>
</svg>
