<?xml version="1.0" standalone="no"?>
<!DOCTYPE svg PUBLIC "-//W3C//DTD SVG 20010904//EN"
 "http://www.w3.org/TR/2001/REC-SVG-20010904/DTD/svg10.dtd">
<svg version="1.0" xmlns="http://www.w3.org/2000/svg"
 width="96.000000pt" height="68.000000pt" viewBox="0 0 96.000000 68.000000"
 preserveAspectRatio="xMidYMid meet">
<metadata>
Created by potrace 1.16, written by Peter Selinger 2001-2019
</metadata>
<g transform="translate(0.000000,68.000000) scale(0.100000,-0.100000)"
fill="#000000" stroke="none">
<path d="M390 279 c-14 -6 -37 -9 -53 -6 -17 2 -26 0 -23 -7 3 -6 10 -28 17
-49 8 -26 17 -36 27 -32 7 3 29 5 48 5 22 0 33 4 29 11 -4 5 -1 24 6 41 10 25
10 31 -2 39 -17 10 -17 10 -49 -2z m12 -55 c-15 -31 -36 -27 -40 8 -2 19 2 28
15 30 28 7 38 -8 25 -38z"/>
</g>
</svg>
