<?xml version="1.0" standalone="no"?>
<!DOCTYPE svg PUBLIC "-//W3C//DTD SVG 20010904//EN"
 "http://www.w3.org/TR/2001/REC-SVG-20010904/DTD/svg10.dtd">
<svg version="1.0" xmlns="http://www.w3.org/2000/svg"
 width="96.000000pt" height="68.000000pt" viewBox="0 0 96.000000 68.000000"
 preserveAspectRatio="xMidYMid meet">
<metadata>
Created by potrace 1.16, written by Peter Selinger 2001-2019
</metadata>
<g transform="translate(0.000000,68.000000) scale(0.100000,-0.100000)"
fill="#000000" stroke="none">
<path d="M547 593 c4 -15 8 -46 8 -68 l0 -40 -68 -10 c-81 -12 -78 -25 4 -25
63 0 69 -6 69 -67 0 -27 4 -34 18 -31 13 2 18 16 22 58 l5 55 70 3 c39 2 74 7
79 12 13 13 -38 23 -94 18 l-49 -5 -3 61 c-3 61 -3 61 -36 64 -31 3 -32 2 -25
-25z"/>
</g>
</svg>
