<?xml version="1.0" standalone="no"?>
<!DOCTYPE svg PUBLIC "-//W3C//DTD SVG 20010904//EN"
 "http://www.w3.org/TR/2001/REC-SVG-20010904/DTD/svg10.dtd">
<svg version="1.0" xmlns="http://www.w3.org/2000/svg"
 width="96.000000pt" height="68.000000pt" viewBox="0 0 96.000000 68.000000"
 preserveAspectRatio="xMidYMid meet">
<metadata>
Created by potrace 1.16, written by Peter Selinger 2001-2019
</metadata>
<g transform="translate(0.000000,68.000000) scale(0.100000,-0.100000)"
fill="#000000" stroke="none">
<path d="M510 619 c0 -7 12 -25 26 -40 l26 -27 -64 -6 c-102 -11 -124 -17
-105 -27 10 -6 66 -4 149 6 197 22 218 26 212 37 -4 7 -36 8 -85 3 -66 -5 -78
-4 -73 8 6 16 -21 47 -41 47 -7 0 -20 3 -29 6 -10 4 -16 1 -16 -7z"/>
</g>
</svg>
