<?xml version="1.0" standalone="no"?>
<!DOCTYPE svg PUBLIC "-//W3C//DTD SVG 20010904//EN"
 "http://www.w3.org/TR/2001/REC-SVG-20010904/DTD/svg10.dtd">
<svg version="1.0" xmlns="http://www.w3.org/2000/svg"
 width="96.000000pt" height="68.000000pt" viewBox="0 0 96.000000 68.000000"
 preserveAspectRatio="xMidYMid meet">
<metadata>
Created by potrace 1.16, written by Peter Selinger 2001-2019
</metadata>
<g transform="translate(0.000000,68.000000) scale(0.100000,-0.100000)"
fill="#000000" stroke="none">
<path d="M278 473 c-1 -5 -2 -28 -2 -53 l-1 -45 -82 -14 c-46 -8 -83 -18 -83
-22 0 -16 52 -22 90 -10 20 6 45 11 54 11 28 0 -5 -51 -85 -130 -39 -38 -66
-70 -60 -70 23 0 75 33 124 79 44 41 49 43 44 21 -3 -14 -9 -67 -13 -117 -6
-82 -5 -93 11 -99 28 -11 35 15 35 145 l0 125 30 -29 c25 -24 30 -26 36 -11 7
19 -10 43 -37 51 -29 9 -26 55 4 55 35 0 67 11 61 21 -3 5 -23 9 -44 9 -39 0
-39 1 -34 30 4 18 1 36 -6 45 -13 16 -39 20 -42 8z"/>
</g>
</svg>
