<?xml version="1.0" standalone="no"?>
<!DOCTYPE svg PUBLIC "-//W3C//DTD SVG 20010904//EN"
 "http://www.w3.org/TR/2001/REC-SVG-20010904/DTD/svg10.dtd">
<svg version="1.0" xmlns="http://www.w3.org/2000/svg"
 width="96.000000pt" height="68.000000pt" viewBox="0 0 96.000000 68.000000"
 preserveAspectRatio="xMidYMid meet">
<metadata>
Created by potrace 1.16, written by Peter Selinger 2001-2019
</metadata>
<g transform="translate(0.000000,68.000000) scale(0.100000,-0.100000)"
fill="#000000" stroke="none">
<path d="M609 578 c-19 -12 -56 -29 -84 -39 l-50 -18 39 0 c43 -1 176 35 176
48 0 4 -11 13 -24 19 -19 8 -30 6 -57 -10z"/>
<path d="M671 499 c-37 -44 -32 -47 33 -19 52 22 57 32 23 47 -20 9 -27 6 -56
-28z"/>
<path d="M540 497 c0 -17 21 -37 38 -37 21 0 9 32 -15 41 -16 6 -23 5 -23 -4z"/>
<path d="M450 465 c26 -28 50 -33 50 -10 0 16 -30 35 -56 35 -15 0 -14 -4 6
-25z"/>
</g>
</svg>
