<?xml version="1.0" standalone="no"?>
<!DOCTYPE svg PUBLIC "-//W3C//DTD SVG 20010904//EN"
 "http://www.w3.org/TR/2001/REC-SVG-20010904/DTD/svg10.dtd">
<svg version="1.0" xmlns="http://www.w3.org/2000/svg"
 width="96.000000pt" height="68.000000pt" viewBox="0 0 96.000000 68.000000"
 preserveAspectRatio="xMidYMid meet">
<metadata>
Created by potrace 1.16, written by Peter Selinger 2001-2019
</metadata>
<g transform="translate(0.000000,68.000000) scale(0.100000,-0.100000)"
fill="#000000" stroke="none">
<path d="M524 548 c24 -87 13 -275 -21 -346 -9 -20 -41 -61 -71 -89 -53 -53
-54 -65 -3 -39 35 18 87 77 109 122 8 19 19 34 23 34 4 0 21 -21 38 -47 16
-27 49 -67 72 -91 40 -41 43 -42 105 -42 36 0 64 4 64 10 0 6 -5 10 -12 10
-33 0 -149 70 -200 121 -66 65 -64 55 -48 254 9 117 6 125 -39 125 -19 0 -22
-4 -17 -22z"/>
</g>
</svg>
