<?xml version="1.0" standalone="no"?>
<!DOCTYPE svg PUBLIC "-//W3C//DTD SVG 20010904//EN"
 "http://www.w3.org/TR/2001/REC-SVG-20010904/DTD/svg10.dtd">
<svg version="1.0" xmlns="http://www.w3.org/2000/svg"
 width="96.000000pt" height="68.000000pt" viewBox="0 0 96.000000 68.000000"
 preserveAspectRatio="xMidYMid meet">
<metadata>
Created by potrace 1.16, written by Peter Selinger 2001-2019
</metadata>
<g transform="translate(0.000000,68.000000) scale(0.100000,-0.100000)"
fill="#000000" stroke="none">
<path d="M377 568 c15 -72 11 -83 -29 -86 -51 -4 -49 -22 2 -22 33 0 40 -3 40
-20 0 -11 7 -20 15 -20 9 0 15 9 15 24 0 20 6 25 45 30 57 9 60 30 4 24 l-40
-4 2 41 c3 50 -5 65 -36 65 -22 0 -24 -3 -18 -32z"/>
</g>
</svg>
