<?xml version="1.0" standalone="no"?>
<!DOCTYPE svg PUBLIC "-//W3C//DTD SVG 20010904//EN"
 "http://www.w3.org/TR/2001/REC-SVG-20010904/DTD/svg10.dtd">
<svg version="1.0" xmlns="http://www.w3.org/2000/svg"
 width="90.000000pt" height="92.000000pt" viewBox="0 0 90.000000 92.000000"
 preserveAspectRatio="xMidYMid meet">
<metadata>
Created by potrace 1.16, written by Peter Selinger 2001-2019
</metadata>
<g transform="translate(0.000000,92.000000) scale(0.100000,-0.100000)"
fill="#000000" stroke="none">
<path d="M197 760 c-19 -72 -85 -191 -158 -287 -23 -29 -39 -56 -36 -60 4 -3
41 29 83 71 l77 76 -6 -162 c-3 -90 -10 -179 -16 -199 -9 -29 -8 -44 4 -73 37
-87 53 -20 56 224 2 138 -1 202 -10 221 -11 23 -8 34 38 119 28 51 51 94 51
96 0 8 -45 44 -55 44 -6 0 -19 -31 -28 -70z"/>
<path d="M420 796 c0 -8 -18 -37 -40 -65 -36 -45 -43 -50 -70 -44 -35 7 -35 7
-11 -40 10 -20 24 -77 31 -125 7 -48 17 -96 23 -106 9 -18 11 -18 22 -3 7 9
20 17 29 17 14 0 16 -6 11 -32 -13 -63 -56 -137 -123 -208 -51 -56 -61 -71
-42 -65 40 12 115 71 143 112 14 21 38 64 53 96 23 47 26 61 17 76 -10 16 -8
19 19 25 17 3 34 3 37 0 3 -3 8 -60 11 -127 3 -69 11 -133 19 -148 21 -43 66
-62 145 -63 83 0 134 15 165 48 l23 24 -25 68 -24 67 -7 -37 c-17 -90 -47
-111 -151 -104 -86 5 -100 19 -99 98 1 33 7 80 14 105 9 34 10 48 1 59 -9 11
-8 15 6 20 11 5 23 -1 35 -16 24 -33 34 -19 72 108 18 60 38 119 45 132 11 20
10 27 -5 43 -22 24 -74 34 -116 21 -18 -6 -45 -13 -60 -16 -16 -4 -28 -11 -28
-17 0 -8 20 -9 65 -4 l65 7 0 -45 0 -44 -55 -6 c-64 -6 -84 -15 -64 -28 8 -5
35 -7 62 -3 26 3 47 3 47 -1 0 -3 -5 -26 -11 -50 -11 -42 -13 -45 -43 -43 -17
1 -73 -4 -124 -11 -51 -7 -95 -11 -97 -9 -1 1 -6 22 -10 45 l-6 41 55 12 c31
6 56 15 56 20 0 16 -40 21 -76 10 -19 -7 -37 -10 -39 -8 -2 2 -5 22 -8 46 -4
40 -2 44 27 59 17 9 52 31 79 49 l47 32 -26 21 c-31 24 -64 28 -64 7z"/>
</g>
</svg>
