<?xml version="1.0" standalone="no"?>
<!DOCTYPE svg PUBLIC "-//W3C//DTD SVG 20010904//EN"
 "http://www.w3.org/TR/2001/REC-SVG-20010904/DTD/svg10.dtd">
<svg version="1.0" xmlns="http://www.w3.org/2000/svg"
 width="90.000000pt" height="92.000000pt" viewBox="0 0 90.000000 92.000000"
 preserveAspectRatio="xMidYMid meet">
<metadata>
Created by potrace 1.16, written by Peter Selinger 2001-2019
</metadata>
<g transform="translate(0.000000,92.000000) scale(0.100000,-0.100000)"
fill="#000000" stroke="none">
<path d="M559 908 c-1 -2 -3 -23 -5 -47 -2 -24 -6 -46 -8 -49 -3 -2 -25 -7
-51 -9 -25 -3 -45 -9 -45 -13 0 -13 48 -29 71 -23 20 6 21 3 15 -18 -4 -13
-10 -35 -13 -49 -6 -25 -6 -25 15 -7 11 10 25 31 32 47 13 31 40 40 121 40 59
0 70 14 28 35 -21 12 -43 14 -70 10 l-39 -7 12 27 c11 24 10 29 -11 46 -20 16
-49 25 -52 17z"/>
<path d="M260 883 c0 -4 7 -27 16 -50 9 -24 14 -46 11 -49 -3 -3 -38 -9 -77
-12 l-71 -7 30 -29 30 -29 52 22 c29 11 53 20 54 19 1 -2 7 -16 12 -33 14 -43
27 -37 31 13 2 25 8 42 16 42 7 0 21 7 32 16 18 14 17 15 -18 12 -38 -4 -38
-4 -38 32 0 30 -5 39 -25 48 -29 13 -55 16 -55 5z"/>
<path d="M550 674 c-41 -8 -89 -17 -107 -19 -30 -5 -32 -7 -22 -33 20 -52 -13
-205 -62 -286 -17 -26 -24 -46 -17 -44 24 8 77 88 94 143 18 56 43 73 46 33 4
-56 3 -74 -5 -90 -4 -11 -3 -27 4 -39 11 -21 13 -19 65 32 55 54 64 74 20 45
-39 -25 -46 -20 -46 33 l0 48 69 12 c39 6 81 11 95 11 32 0 34 17 3 31 -17 8
-39 7 -83 -4 -32 -9 -78 -18 -101 -22 -38 -6 -43 -5 -43 12 0 17 13 21 94 32
103 14 133 25 101 37 -10 4 -49 2 -87 -4 -90 -16 -98 -15 -98 6 0 15 15 19 98
29 110 13 135 20 129 37 -5 16 -61 16 -147 0z"/>
<path d="M200 620 c0 -27 -5 -72 -11 -99 -12 -57 -21 -62 -104 -63 -30 0 -55
-4 -55 -8 0 -13 47 -50 64 -50 9 0 26 5 38 11 29 16 33 5 14 -44 -23 -62 -21
-74 18 -87 19 -6 39 -17 45 -24 15 -18 -32 -70 -99 -105 -40 -22 -50 -32 -38
-36 30 -12 99 16 144 57 l44 40 36 -27 c19 -15 38 -33 41 -41 9 -23 43 -17 43
7 0 22 -36 89 -48 89 -4 0 -15 7 -25 14 -17 13 -16 16 2 59 11 25 30 82 42
128 l22 82 -23 19 c-31 25 -40 23 -40 -12 0 -26 -5 -30 -41 -40 -23 -6 -43 -9
-46 -6 -3 3 4 33 16 67 26 78 26 95 2 109 -34 18 -41 12 -41 -40z m110 -159
c0 -19 -40 -137 -52 -154 -11 -14 -19 -15 -50 -6 -43 11 -44 14 -21 85 15 48
19 53 62 67 55 19 61 20 61 8z"/>
<path d="M715 511 c-3 -10 -14 -26 -25 -36 -19 -17 -23 -17 -60 -2 -50 19 -51
10 -2 -23 20 -14 59 -42 86 -63 31 -24 53 -34 58 -29 18 18 3 47 -35 67 -20
11 -37 23 -37 27 0 3 16 12 35 18 40 13 43 20 17 43 -24 22 -29 21 -37 -2z"/>
<path d="M605 373 c24 -57 22 -60 -57 -67 -40 -4 -93 -9 -117 -13 -41 -5 -43
-7 -25 -20 18 -14 116 -12 197 3 27 6 27 5 27 -50 0 -30 -5 -67 -10 -81 -9
-24 -15 -27 -45 -23 -38 4 -37 2 14 -54 30 -34 35 -34 61 -6 17 19 20 35 20
120 l0 98 63 0 c76 0 102 13 72 36 -15 11 -36 14 -78 12 -53 -4 -58 -3 -54 14
7 24 -18 48 -50 48 -20 0 -24 -4 -18 -17z"/>
<path d="M450 233 c0 -5 14 -25 31 -46 25 -30 34 -35 45 -26 20 17 17 37 -8
53 -31 19 -68 29 -68 19z"/>
</g>
</svg>
