<?xml version="1.0" standalone="no"?>
<!DOCTYPE svg PUBLIC "-//W3C//DTD SVG 20010904//EN"
 "http://www.w3.org/TR/2001/REC-SVG-20010904/DTD/svg10.dtd">
<svg version="1.0" xmlns="http://www.w3.org/2000/svg"
 width="96.000000pt" height="68.000000pt" viewBox="0 0 96.000000 68.000000"
 preserveAspectRatio="xMidYMid meet">
<metadata>
Created by potrace 1.16, written by Peter Selinger 2001-2019
</metadata>
<g transform="translate(0.000000,68.000000) scale(0.100000,-0.100000)"
fill="#000000" stroke="none">
<path d="M277 443 c-4 -3 -7 -23 -7 -43 0 -20 -5 -51 -11 -69 -10 -28 -16 -31
-52 -33 -73 -3 -77 -3 -76 -13 1 -20 42 -33 71 -23 38 13 44 6 22 -30 -19 -34
-13 -62 14 -62 10 0 26 -6 36 -13 16 -12 15 -15 -14 -41 -17 -15 -50 -36 -73
-46 -41 -18 -41 -19 -12 -19 35 -1 104 29 124 52 19 23 27 22 71 -13 44 -35
60 -38 60 -11 0 18 -45 64 -71 73 -8 3 -5 16 8 43 11 22 28 64 38 94 17 52 17
55 -1 68 -25 18 -34 16 -34 -7 0 -14 -10 -22 -37 -29 -20 -6 -38 -9 -40 -7 -2
1 7 27 19 56 21 51 21 53 3 66 -21 16 -29 17 -38 7z m72 -196 c-27 -67 -34
-75 -65 -69 -34 6 -39 24 -21 69 11 29 22 39 53 48 22 7 42 10 46 8 4 -2 -2
-27 -13 -56z"/>
</g>
</svg>
