<?xml version="1.0" standalone="no"?>
<!DOCTYPE svg PUBLIC "-//W3C//DTD SVG 20010904//EN"
 "http://www.w3.org/TR/2001/REC-SVG-20010904/DTD/svg10.dtd">
<svg version="1.0" xmlns="http://www.w3.org/2000/svg"
 width="96.000000pt" height="68.000000pt" viewBox="0 0 96.000000 68.000000"
 preserveAspectRatio="xMidYMid meet">
<metadata>
Created by potrace 1.16, written by Peter Selinger 2001-2019
</metadata>
<g transform="translate(0.000000,68.000000) scale(0.100000,-0.100000)"
fill="#000000" stroke="none">
<path d="M570 190 c0 -22 -6 -33 -22 -41 l-23 -10 23 5 c12 2 23 0 23 -5 5
-34 4 -55 -2 -64 -5 -7 39 -10 127 -11 74 0 134 2 134 6 0 13 -23 17 -65 14
-22 -2 -65 -5 -95 -6 l-55 -1 -1 55 c-1 66 -8 88 -29 88 -10 0 -15 -10 -15
-30z m30 6 c0 -3 -4 -8 -10 -11 -5 -3 -10 -1 -10 4 0 6 5 11 10 11 6 0 10 -2
10 -4z"/>
<path d="M648 173 c-10 -2 -18 -9 -18 -14 0 -6 7 -6 19 1 25 13 34 13 26 0 -3
-5 -1 -10 4 -10 6 0 11 7 11 15 0 15 -9 17 -42 8z"/>
<path d="M452 62 c-18 -2 -30 -8 -27 -13 8 -12 55 -12 55 1 0 5 14 7 33 3 17
-3 30 -4 27 -1 -9 9 -54 14 -88 10z"/>
</g>
</svg>
