<?xml version="1.0" standalone="no"?>
<!DOCTYPE svg PUBLIC "-//W3C//DTD SVG 20010904//EN"
 "http://www.w3.org/TR/2001/REC-SVG-20010904/DTD/svg10.dtd">
<svg version="1.0" xmlns="http://www.w3.org/2000/svg"
 width="90.000000pt" height="92.000000pt" viewBox="0 0 90.000000 92.000000"
 preserveAspectRatio="xMidYMid meet">
<metadata>
Created by potrace 1.16, written by Peter Selinger 2001-2019
</metadata>
<g transform="translate(0.000000,92.000000) scale(0.100000,-0.100000)"
fill="#000000" stroke="none">
<path d="M424 874 c3 -16 9 -54 12 -85 l7 -56 -48 -7 c-26 -4 -48 -6 -50 -4
-2 2 0 20 5 41 7 35 6 39 -20 52 -43 22 -64 20 -56 -7 3 -13 9 -40 12 -60 l7
-38 -49 -1 c-27 0 -58 -4 -69 -8 -19 -8 -19 -8 4 -20 13 -7 43 -11 67 -9 l44
3 0 -51 0 -51 -46 -7 c-26 -3 -62 -6 -80 -6 -37 0 -39 -5 -24 -46 14 -36 4
-77 -26 -113 -23 -28 -23 -29 -6 -51 l18 -22 61 22 c91 33 95 30 72 -60 -17
-68 -35 -103 -94 -194 -19 -29 -19 -29 1 -18 62 33 126 138 145 238 7 32 15
62 18 65 3 4 30 9 59 13 l52 7 1 -178 c0 -98 4 -187 8 -198 7 -19 9 -18 21 5
10 17 15 80 18 203 l4 177 106 0 105 0 -6 -50 c-10 -80 -21 -94 -74 -86 l-44
6 47 -55 c26 -31 52 -54 58 -52 23 7 53 67 66 129 7 35 19 73 27 86 19 30 12
47 -28 68 -28 14 -42 15 -100 5 -37 -6 -89 -11 -114 -11 l-46 0 3 53 3 52 78
3 c78 3 79 3 73 27 -7 26 25 105 50 126 23 19 17 29 -32 50 -43 19 -48 20 -91
5 -26 -9 -55 -16 -65 -16 -19 0 -20 13 -3 96 6 26 -9 39 -54 49 -33 7 -34 7
-27 -21z m182 -181 c-2 -10 -7 -33 -11 -50 -5 -23 -12 -33 -25 -33 -9 0 -32
-3 -49 -6 l-31 -6 0 56 0 56 61 0 c53 0 60 -2 55 -17z m-170 -100 c-3 -3 -25
-8 -51 -10 l-45 -6 0 52 c0 54 2 56 70 63 23 3 25 0 28 -46 2 -26 1 -50 -2
-53z m4 -97 c0 -52 -1 -54 -31 -60 -17 -3 -43 -6 -57 -6 -23 0 -24 2 -18 38 3
20 6 45 6 54 0 12 11 18 38 21 20 2 43 4 50 5 8 1 12 -15 12 -52z m-150 -20
c0 -52 -1 -54 -31 -60 -62 -12 -79 -8 -79 19 0 14 7 41 14 60 14 32 19 35 55
35 l41 0 0 -54z"/>
</g>
</svg>
