<?xml version="1.0" standalone="no"?>
<!DOCTYPE svg PUBLIC "-//W3C//DTD SVG 20010904//EN"
 "http://www.w3.org/TR/2001/REC-SVG-20010904/DTD/svg10.dtd">
<svg version="1.0" xmlns="http://www.w3.org/2000/svg"
 width="90.000000pt" height="92.000000pt" viewBox="0 0 90.000000 92.000000"
 preserveAspectRatio="xMidYMid meet">
<metadata>
Created by potrace 1.16, written by Peter Selinger 2001-2019
</metadata>
<g transform="translate(0.000000,92.000000) scale(0.100000,-0.100000)"
fill="#000000" stroke="none">
<path d="M207 813 c-4 -3 -7 -21 -7 -39 0 -19 -11 -59 -25 -90 -29 -65 -122
-209 -154 -238 -12 -11 -21 -25 -21 -33 0 -20 28 -3 86 54 37 35 55 47 74 44
31 -4 40 -17 40 -58 0 -31 -2 -33 -50 -39 -48 -6 -69 -18 -56 -31 3 -4 31 -6
61 -5 l55 1 0 -88 0 -89 -44 -11 c-25 -6 -65 -11 -90 -11 -25 0 -46 -4 -46 -9
0 -11 58 -61 70 -61 4 0 34 13 66 29 33 15 98 43 147 61 51 19 87 38 87 46 0
19 -16 18 -79 -6 -29 -12 -56 -19 -58 -16 -6 6 -4 168 1 174 3 2 23 6 45 9 74
10 61 46 -14 41 -39 -2 -40 -2 -37 26 2 16 -1 32 -7 36 -7 4 13 12 44 19 57
13 67 24 37 40 -12 7 -39 4 -87 -10 -90 -25 -103 -25 -83 -1 8 9 32 47 53 85
l37 67 50 -45 c54 -49 71 -52 76 -16 5 30 -12 47 -66 67 -59 22 -57 21 -42 39
11 13 9 20 -10 40 -23 25 -41 31 -53 18z"/>
<path d="M500 765 c0 -3 15 -30 34 -60 l35 -53 -85 -13 c-47 -7 -87 -16 -89
-20 -3 -3 9 -12 25 -19 24 -10 45 -9 115 5 47 9 125 20 172 23 49 4 88 12 90
18 7 21 -60 44 -98 35 -87 -22 -92 -23 -86 -6 12 29 -10 62 -52 79 -43 17 -61
20 -61 11z"/>
<path d="M446 526 c-3 -13 -22 -47 -41 -76 -38 -57 -39 -72 -3 -48 26 17 118
110 118 119 0 6 -46 29 -59 29 -5 0 -12 -11 -15 -24z"/>
<path d="M672 496 c57 -57 91 -70 102 -40 17 44 -28 80 -111 90 l-48 6 57 -56z"/>
<path d="M630 427 c0 -25 -47 -127 -58 -126 -4 0 -24 22 -45 50 -22 30 -45 49
-57 49 -26 0 -25 -12 1 -36 12 -10 35 -37 52 -58 l31 -39 -50 -45 c-27 -24
-76 -62 -108 -83 -47 -31 -54 -39 -35 -39 35 1 106 35 167 83 l54 41 22 -29
c11 -17 38 -49 60 -72 34 -38 43 -43 83 -43 56 0 135 20 130 33 -1 5 -27 17
-57 27 -66 20 -144 60 -184 93 l-30 24 42 67 c23 37 42 71 42 76 0 11 -41 50
-52 50 -4 0 -8 -10 -8 -23z"/>
<path d="M302 308 c-12 -28 -21 -53 -19 -54 1 -2 23 14 47 36 44 37 44 39 25
54 -11 8 -22 15 -25 15 -3 0 -15 -23 -28 -51z"/>
<path d="M80 317 c0 -7 14 -33 30 -59 20 -33 34 -46 45 -42 19 8 19 43 0 71
-18 25 -75 48 -75 30z"/>
</g>
</svg>
