<?xml version="1.0" standalone="no"?>
<!DOCTYPE svg PUBLIC "-//W3C//DTD SVG 20010904//EN"
 "http://www.w3.org/TR/2001/REC-SVG-20010904/DTD/svg10.dtd">
<svg version="1.0" xmlns="http://www.w3.org/2000/svg"
 width="90.000000pt" height="92.000000pt" viewBox="0 0 90.000000 92.000000"
 preserveAspectRatio="xMidYMid meet">
<metadata>
Created by potrace 1.16, written by Peter Selinger 2001-2019
</metadata>
<g transform="translate(0.000000,92.000000) scale(0.100000,-0.100000)"
fill="#000000" stroke="none">
<path d="M666 798 c1 -29 0 -65 -3 -80 -5 -24 -10 -28 -39 -28 -34 0 -34 1
-34 45 0 39 -4 47 -25 57 -30 13 -40 7 -27 -19 5 -10 12 -35 16 -55 6 -33 4
-38 -13 -38 -11 0 -27 -3 -36 -7 -15 -5 -16 -1 -10 35 5 34 3 42 -14 51 -32
17 -54 14 -46 -6 30 -73 23 -93 -31 -93 -13 0 -24 -5 -24 -10 0 -15 47 -31 66
-23 15 6 17 -2 12 -74 -7 -101 -2 -110 50 -95 75 23 92 14 92 -47 0 -27 -2
-28 -61 -35 -34 -3 -79 -6 -100 -6 -27 0 -39 -4 -39 -14 0 -15 64 -41 78 -32
5 3 35 9 67 14 l58 9 -5 -121 c-6 -132 2 -177 27 -156 12 10 15 40 15 146 l0
134 99 0 c55 0 102 4 106 10 8 12 -39 42 -67 43 -13 0 -47 -3 -77 -8 l-54 -8
7 26 c4 17 1 31 -10 41 -14 15 -8 16 70 16 69 0 86 3 86 15 0 29 -34 34 -164
24 -71 -6 -130 -9 -132 -6 -2 2 -5 33 -6 68 l-3 64 32 3 c31 3 32 2 38 -43 7
-44 25 -70 33 -47 2 7 14 12 27 12 12 0 37 3 54 6 23 5 29 10 21 19 -5 7 -7
26 -4 44 6 30 8 31 63 31 31 0 63 5 71 10 27 19 -18 42 -73 38 -26 -2 -47 0
-47 4 0 4 5 31 11 59 10 47 9 54 -7 66 -38 28 -52 17 -48 -39z m-6 -165 c0
-25 -12 -39 -37 -45 -21 -6 -23 -2 -23 28 0 31 3 34 30 34 22 0 30 -5 30 -17z"/>
<path d="M205 813 c-10 -49 -54 -126 -99 -175 -24 -27 -40 -48 -35 -48 15 0
61 31 99 66 23 21 50 34 79 39 l45 7 -19 -28 c-70 -110 -75 -114 -162 -114
-53 0 -63 -6 -42 -27 5 -5 16 -51 24 -101 15 -104 21 -118 39 -102 7 5 50 15
95 22 70 9 84 9 91 -3 15 -23 29 1 56 97 13 49 27 96 30 105 4 11 -6 23 -29
38 -33 20 -37 20 -77 6 -24 -8 -45 -14 -47 -12 -2 2 30 36 71 74 40 39 71 75
67 81 -17 27 -55 29 -105 6 -28 -13 -52 -21 -54 -19 -2 2 6 17 19 34 24 32 18
50 -22 72 -15 8 -19 5 -24 -18z m135 -285 c0 -32 -1 -33 -45 -33 -42 0 -45 2
-45 27 0 29 10 36 58 37 30 1 32 -1 32 -31z m-130 -18 c0 -16 -4 -30 -9 -30
-5 0 -22 -3 -38 -6 -25 -5 -31 -2 -36 15 -7 28 17 51 54 51 26 0 29 -3 29 -30z
m126 -52 c-3 -7 -7 -24 -10 -38 -4 -20 -12 -25 -41 -27 -33 -2 -35 0 -35 32 0
32 2 34 38 38 20 2 40 4 44 5 4 1 6 -4 4 -10z m-126 -43 c0 -29 -4 -34 -31
-40 -36 -8 -35 -9 -42 35 -5 35 -5 35 34 36 38 1 39 0 39 -31z"/>
<path d="M340 250 c17 -33 34 -60 39 -60 10 0 21 24 21 47 0 19 -54 73 -74 73
-13 0 -11 -11 14 -60z"/>
<path d="M230 288 c0 -20 43 -91 58 -96 10 -3 12 6 10 34 -2 31 -9 42 -35 57
-25 14 -33 15 -33 5z"/>
<path d="M42 234 c-31 -62 -30 -104 3 -104 31 0 58 114 36 149 -7 11 -17 -1
-39 -45z"/>
<path d="M751 223 c58 -73 67 -83 87 -83 21 0 13 47 -14 80 -26 31 -58 51
-102 65 -20 6 -15 -4 29 -62z"/>
<path d="M146 258 c22 -75 56 -99 62 -45 4 28 -27 67 -54 67 -11 0 -14 -6 -8
-22z"/>
<path d="M457 248 c-8 -18 -30 -54 -50 -80 -20 -27 -33 -48 -29 -48 22 0 102
62 121 94 19 29 21 39 11 51 -20 24 -39 17 -53 -17z"/>
</g>
</svg>
