<?xml version="1.0" standalone="no"?>
<!DOCTYPE svg PUBLIC "-//W3C//DTD SVG 20010904//EN"
 "http://www.w3.org/TR/2001/REC-SVG-20010904/DTD/svg10.dtd">
<svg version="1.0" xmlns="http://www.w3.org/2000/svg"
 width="96.000000pt" height="68.000000pt" viewBox="0 0 96.000000 68.000000"
 preserveAspectRatio="xMidYMid meet">
<metadata>
Created by potrace 1.16, written by Peter Selinger 2001-2019
</metadata>
<g transform="translate(0.000000,68.000000) scale(0.100000,-0.100000)"
fill="#000000" stroke="none">
<path d="M600 289 c0 -5 6 -7 13 -3 8 5 8 2 -2 -9 -12 -15 -11 -17 5 -18 16 0
17 -1 3 -7 -18 -8 -17 -41 3 -53 10 -7 10 -9 0 -9 -7 0 -15 6 -18 14 -4 11
-21 14 -72 11 -86 -4 -84 -4 -78 -14 5 -8 50 -7 107 3 23 4 26 2 21 -20 -3
-14 -8 -21 -11 -15 -4 6 -11 3 -19 -9 -8 -14 -9 -21 0 -26 6 -4 8 -3 5 3 -4 6
5 14 19 17 19 5 24 11 19 24 -4 12 1 10 19 -7 13 -13 29 -21 34 -17 5 3 21 -8
37 -24 35 -37 77 -54 112 -45 25 6 26 8 10 17 -10 5 -27 8 -38 5 -10 -3 -17
-1 -14 3 5 8 -28 24 -51 25 -6 0 -19 8 -28 18 -10 9 -25 17 -34 17 -10 0 -13
3 -7 8 16 11 11 102 -6 113 -19 12 -29 11 -29 -2z"/>
<path d="M718 226 c3 -5 -2 -7 -11 -3 -10 3 -17 3 -17 -1 0 -5 23 -8 50 -8 31
0 49 4 47 10 -2 6 -20 11 -39 11 -20 0 -34 -4 -30 -9z"/>
<path d="M601 90 c-1 -55 2 -70 13 -70 21 0 31 21 15 31 -11 7 -11 9 -1 9 9 0
13 12 11 38 -3 32 -18 62 -32 62 -2 0 -5 -31 -6 -70z"/>
<path d="M473 96 c-24 -16 -41 -32 -38 -34 3 -3 13 2 23 11 10 10 24 17 31 17
6 0 14 7 17 15 4 8 10 13 14 10 5 -3 11 -2 14 3 11 18 -21 7 -61 -22z"/>
</g>
</svg>
