<?xml version="1.0" standalone="no"?>
<!DOCTYPE svg PUBLIC "-//W3C//DTD SVG 20010904//EN"
 "http://www.w3.org/TR/2001/REC-SVG-20010904/DTD/svg10.dtd">
<svg version="1.0" xmlns="http://www.w3.org/2000/svg"
 width="96.000000pt" height="68.000000pt" viewBox="0 0 96.000000 68.000000"
 preserveAspectRatio="xMidYMid meet">
<metadata>
Created by potrace 1.16, written by Peter Selinger 2001-2019
</metadata>
<g transform="translate(0.000000,68.000000) scale(0.100000,-0.100000)"
fill="#000000" stroke="none">
<path d="M195 563 c15 -61 17 -186 5 -341 -9 -130 -9 -166 1 -178 11 -13 14
-13 27 0 12 12 16 53 20 195 l5 180 24 -16 c21 -14 26 -14 34 -2 10 16 -14 39
-41 39 -14 0 -16 10 -12 61 5 66 1 73 -42 83 -27 7 -28 6 -21 -21z"/>
<path d="M406 548 c3 -18 8 -39 10 -47 7 -21 -16 -41 -47 -41 -15 0 -31 -4
-34 -10 -4 -6 12 -10 39 -10 44 0 46 -1 46 -28 0 -25 -4 -28 -37 -32 -21 -2
-50 -3 -65 -3 -25 0 -26 -1 -13 -21 8 -12 19 -42 26 -69 11 -47 12 -47 45 -41
31 6 34 4 34 -19 0 -26 -27 -37 -91 -37 -16 0 -29 -4 -29 -9 0 -15 36 -23 75
-15 l35 6 -2 -56 c-2 -56 10 -84 31 -72 6 4 11 36 11 70 0 69 6 76 73 76 15 0
27 5 27 10 0 6 -22 10 -50 10 -46 0 -50 2 -46 23 3 19 9 22 44 21 l40 -1 22
69 c12 38 19 72 16 75 -8 8 -64 8 -93 0 -15 -4 -22 0 -26 13 -6 23 8 36 51 45
45 9 40 25 -8 25 l-40 0 6 39 c5 33 3 41 -14 50 -34 18 -42 13 -36 -21z m114
-189 c0 -14 -7 -19 -30 -19 -16 0 -33 -1 -37 -2 -5 -2 -9 7 -11 19 -3 18 2 22
30 25 42 4 48 1 48 -23z m-100 -8 c0 -20 -18 -31 -51 -31 -28 0 -25 37 4 43
42 8 47 7 47 -12z m90 -51 c0 -15 -7 -20 -29 -20 -34 0 -51 18 -30 31 26 17
59 10 59 -11z m-95 -10 c0 -9 -11 -16 -27 -18 -23 -3 -28 1 -28 18 0 17 5 21
28 18 16 -2 27 -9 27 -18z"/>
<path d="M681 499 c-34 -39 -49 -49 -70 -47 -19 2 -25 -1 -22 -12 19 -82 -2
-208 -48 -282 -27 -43 -28 -46 -8 -37 36 16 76 83 94 153 15 64 17 66 48 66
21 0 35 -6 39 -16 3 -9 6 -81 6 -161 0 -108 3 -144 12 -141 20 7 27 53 29 194
l3 134 33 0 c33 0 45 16 19 26 -8 3 -49 -1 -91 -10 -43 -9 -79 -16 -81 -16 -2
0 -4 16 -4 36 0 42 34 79 99 109 23 10 41 21 41 25 0 6 -46 31 -53 30 -1 -1
-22 -23 -46 -51z"/>
<path d="M121 350 c-24 -51 -23 -80 3 -80 25 0 48 45 44 86 -4 53 -20 52 -47
-6z"/>
</g>
</svg>
