<?xml version="1.0" standalone="no"?>
<!DOCTYPE svg PUBLIC "-//W3C//DTD SVG 20010904//EN"
 "http://www.w3.org/TR/2001/REC-SVG-20010904/DTD/svg10.dtd">
<svg version="1.0" xmlns="http://www.w3.org/2000/svg"
 width="90.000000pt" height="92.000000pt" viewBox="0 0 90.000000 92.000000"
 preserveAspectRatio="xMidYMid meet">
<metadata>
Created by potrace 1.16, written by Peter Selinger 2001-2019
</metadata>
<g transform="translate(0.000000,92.000000) scale(0.100000,-0.100000)"
fill="#000000" stroke="none">
<path d="M490 856 c0 -29 -29 -99 -64 -155 -35 -55 -15 -52 42 7 l47 49 91 6
c110 8 129 14 113 33 -14 17 -46 17 -126 0 -35 -7 -63 -11 -63 -8 0 3 8 14 17
25 17 18 17 20 -10 43 -35 30 -47 30 -47 0z"/>
<path d="M237 843 c-3 -5 -8 -22 -12 -40 -7 -34 -67 -132 -104 -170 -12 -13
-18 -23 -13 -23 14 0 86 55 112 86 21 24 33 29 70 30 67 0 122 13 117 27 -4
14 -66 15 -116 3 l-34 -8 23 32 23 33 -24 18 c-26 20 -36 23 -42 12z"/>
<path d="M549 692 c38 -54 81 -65 81 -23 0 25 -21 41 -66 48 l-38 6 23 -31z"/>
<path d="M250 680 c0 -5 14 -25 32 -45 27 -32 33 -34 46 -22 20 20 1 52 -39
66 -39 13 -39 13 -39 1z"/>
<path d="M418 635 c-3 -4 0 -22 8 -41 8 -19 11 -34 7 -34 -5 0 -66 -9 -138
-20 -72 -11 -137 -20 -145 -20 -10 0 -5 -9 14 -27 28 -26 29 -28 24 -113 -6
-104 -35 -175 -98 -244 -24 -25 -40 -46 -36 -46 21 0 69 35 105 76 42 48 81
146 81 205 0 27 2 28 27 18 20 -7 45 -5 100 7 40 10 73 21 73 26 0 18 -57 20
-122 3 -38 -10 -71 -15 -74 -12 -3 3 -3 23 1 45 l6 39 77 11 c126 20 126 20
145 -40 9 -29 35 -89 56 -133 l39 -80 -67 -67 c-37 -38 -64 -68 -59 -68 17 0
88 41 122 70 l34 30 40 -53 c46 -61 133 -125 177 -129 33 -3 31 -15 27 120
l-2 67 -30 -48 c-18 -28 -37 -47 -48 -47 -20 0 -132 110 -132 129 0 6 18 41
40 77 22 36 40 70 40 74 0 13 -42 40 -62 40 -14 0 -18 -8 -18 -35 0 -34 -23
-105 -34 -105 -15 0 -86 176 -86 211 0 4 32 11 70 15 74 7 84 18 39 41 -22 12
-52 11 -101 -3 -13 -4 -18 0 -18 14 0 11 -6 24 -13 30 -16 14 -61 25 -69 17z"/>
<path d="M648 603 c18 -33 65 -74 81 -71 9 2 17 15 19 31 4 29 -8 37 -76 52
-31 6 -33 5 -24 -12z"/>
<path d="M366 328 c-11 -6 -43 -11 -73 -12 -29 0 -53 -1 -53 -2 0 -1 7 -18 15
-37 8 -20 15 -48 15 -62 0 -15 5 -35 10 -45 9 -17 13 -17 38 -4 15 7 48 14 75
14 44 0 60 11 37 25 -9 6 -1 37 22 84 11 20 10 25 -7 37 -22 17 -53 18 -79 2z
m27 -70 c-3 -24 -6 -44 -7 -45 -1 -1 -19 -3 -41 -5 l-40 -3 -3 42 c-3 44 2 48
70 52 25 1 26 -1 21 -41z"/>
</g>
</svg>
