<?xml version="1.0" standalone="no"?>
<!DOCTYPE svg PUBLIC "-//W3C//DTD SVG 20010904//EN"
 "http://www.w3.org/TR/2001/REC-SVG-20010904/DTD/svg10.dtd">
<svg version="1.0" xmlns="http://www.w3.org/2000/svg"
 width="96.000000pt" height="68.000000pt" viewBox="0 0 96.000000 68.000000"
 preserveAspectRatio="xMidYMid meet">
<metadata>
Created by potrace 1.16, written by Peter Selinger 2001-2019
</metadata>
<g transform="translate(0.000000,68.000000) scale(0.100000,-0.100000)"
fill="#000000" stroke="none">
<path d="M588 566 c2 -18 -1 -44 -8 -56 -10 -19 -18 -21 -71 -18 -55 3 -59 1
-69 -22 -27 -68 -4 -109 26 -47 16 34 37 47 77 47 9 0 17 -7 17 -15 0 -35 -75
-159 -138 -227 -25 -27 -16 -40 10 -15 7 7 26 21 42 31 l29 19 -5 -109 c-3
-60 -3 -115 -1 -121 9 -23 31 -13 38 16 l6 29 107 6 c165 10 206 16 193 29 -7
7 -42 10 -87 9 -73 -2 -75 -1 -72 20 2 19 10 23 48 26 66 5 75 22 12 22 -49 0
-52 2 -52 25 0 23 4 25 40 25 22 0 40 5 40 10 0 10 -20 14 -52 12 -13 -1 -18
5 -18 22 0 20 6 25 45 30 65 10 56 28 -12 25 -50 -3 -57 0 -64 19 -5 12 -13
22 -18 22 -5 0 -16 3 -25 6 -20 8 -21 -10 0 -30 8 -9 12 -20 9 -26 -6 -10 -85
-15 -85 -5 0 13 74 151 84 157 13 9 106 11 106 2 0 -3 -5 -14 -11 -26 -6 -11
-9 -21 -7 -23 8 -8 103 24 103 35 0 7 -12 22 -27 33 -26 19 -32 20 -94 8 -36
-6 -68 -10 -70 -8 -2 2 1 18 7 36 15 42 6 61 -29 61 -26 0 -28 -2 -24 -34z
m52 -291 c0 -23 -3 -25 -50 -25 -27 0 -50 4 -50 9 0 5 -3 16 -6 25 -5 13 3 16
50 16 53 0 56 -1 56 -25z m0 -69 c0 -22 -5 -24 -50 -28 -49 -3 -50 -2 -50 25
0 26 2 27 50 27 46 0 50 -2 50 -24z m0 -70 c0 -25 -21 -36 -72 -36 -24 0 -28
4 -28 30 0 29 1 30 50 30 46 0 50 -2 50 -24z"/>
<path d="M349 485 c-3 -3 -43 -10 -89 -16 -46 -5 -88 -13 -93 -16 -15 -9 15
-23 51 -23 37 0 41 -14 16 -63 -14 -27 -66 -99 -84 -117 -85 -84 -80 -107 8
-40 29 22 54 40 57 40 3 0 10 -21 16 -46 9 -36 15 -44 28 -38 9 4 40 10 69 12
40 3 52 8 52 21 0 9 9 34 21 55 26 48 15 59 -54 53 -60 -5 -88 -26 -31 -24 26
1 39 -2 38 -10 -1 -7 -2 -26 -2 -43 -2 -29 -4 -30 -46 -30 -42 0 -44 1 -51 36
-4 24 -2 39 5 44 9 6 9 9 -1 12 -9 3 -1 22 25 65 21 34 35 66 32 72 -4 6 9 13
31 16 60 10 76 16 67 25 -12 12 -58 22 -65 15z"/>
</g>
</svg>
