<?xml version="1.0" standalone="no"?>
<!DOCTYPE svg PUBLIC "-//W3C//DTD SVG 20010904//EN"
 "http://www.w3.org/TR/2001/REC-SVG-20010904/DTD/svg10.dtd">
<svg version="1.0" xmlns="http://www.w3.org/2000/svg"
 width="96.000000pt" height="68.000000pt" viewBox="0 0 96.000000 68.000000"
 preserveAspectRatio="xMidYMid meet">
<metadata>
Created by potrace 1.16, written by Peter Selinger 2001-2019
</metadata>
<g transform="translate(0.000000,68.000000) scale(0.100000,-0.100000)"
fill="#000000" stroke="none">
<path d="M650 503 c-52 -7 -118 -12 -147 -10 l-52 4 -16 -43 c-16 -43 -14 -64
6 -64 6 0 18 18 26 40 9 22 19 37 24 35 4 -3 29 0 56 5 77 17 193 27 193 17 0
-4 -5 -17 -11 -29 -6 -11 -9 -21 -7 -23 7 -7 108 26 108 35 0 14 -51 50 -69
49 -9 -1 -59 -8 -111 -16z"/>
</g>
</svg>
