<?xml version="1.0" standalone="no"?>
<!DOCTYPE svg PUBLIC "-//W3C//DTD SVG 20010904//EN"
 "http://www.w3.org/TR/2001/REC-SVG-20010904/DTD/svg10.dtd">
<svg version="1.0" xmlns="http://www.w3.org/2000/svg"
 width="96.000000pt" height="68.000000pt" viewBox="0 0 96.000000 68.000000"
 preserveAspectRatio="xMidYMid meet">
<metadata>
Created by potrace 1.16, written by Peter Selinger 2001-2019
</metadata>
<g transform="translate(0.000000,68.000000) scale(0.100000,-0.100000)"
fill="#000000" stroke="none">
<path d="M273 558 l2 -42 -54 -8 c-30 -5 -57 -11 -60 -13 -11 -12 15 -20 65
-19 44 0 54 -3 52 -15 -2 -9 -14 -17 -28 -19 -47 -6 -57 -12 -37 -23 24 -14
199 9 194 25 -2 6 -20 12 -40 14 -20 2 -37 8 -37 13 0 10 1 11 72 29 35 9 45
16 41 27 -5 12 -16 14 -54 9 l-48 -7 -3 33 c-3 29 -7 33 -35 36 -32 3 -32 3
-30 -40z"/>
<path d="M608 524 c-4 -3 -28 -6 -53 -6 -43 1 -45 0 -39 -24 7 -26 -12 -110
-30 -133 -8 -10 -6 -12 8 -10 21 4 55 64 65 112 5 25 12 33 34 35 26 3 27 2
27 -51 0 -43 5 -58 23 -75 36 -34 143 -27 122 8 -4 7 -25 10 -54 8 -42 -3 -46
-1 -49 21 -2 14 2 42 9 63 7 21 10 40 7 43 -9 9 -63 17 -70 9z"/>
<path d="M355 400 c-61 -15 -186 -31 -204 -25 -14 4 -21 -3 -35 -38 -20 -52
-20 -57 -1 -57 8 0 22 15 31 33 9 17 18 33 19 35 4 4 194 31 224 32 18 0 22
-4 18 -20 -6 -24 -6 -24 38 -6 42 18 44 29 10 44 -29 13 -56 14 -100 2z"/>
<path d="M261 339 c-24 -5 -47 -11 -50 -15 -10 -11 133 6 144 17 11 11 -32 10
-94 -2z"/>
<path d="M550 311 c-41 -9 -74 -20 -73 -24 2 -4 19 -21 38 -38 19 -17 38 -42
41 -56 8 -29 -7 -42 -91 -84 -45 -21 -54 -29 -35 -29 14 0 57 16 95 35 l70 34
44 -45 c25 -24 55 -47 67 -50 30 -8 128 9 127 21 -1 6 -21 15 -45 21 -47 12
-122 46 -152 69 -18 13 -18 15 6 57 13 24 31 53 38 65 8 12 12 24 9 27 -14 14
-71 13 -139 -3z m70 -23 c0 -18 -23 -78 -30 -78 -15 0 -63 61 -54 69 20 19 84
26 84 9z"/>
<path d="M330 300 c-8 -5 -28 -10 -45 -11 -16 0 -39 -5 -50 -10 -13 -6 3 -7
48 -3 37 4 67 2 67 -2 -1 -22 -20 -32 -83 -44 -52 -9 -67 -16 -63 -27 3 -7 0
-22 -6 -33 -19 -29 -5 -33 67 -19 84 17 99 6 70 -49 -18 -32 -25 -37 -53 -34
l-33 2 18 -25 c34 -47 83 -21 114 61 18 46 18 50 2 62 -12 8 -36 10 -78 6 -57
-6 -61 -5 -61 14 0 19 8 22 69 28 51 5 67 10 63 20 -3 7 1 20 9 28 21 21 19
33 -7 40 -30 7 -30 7 -48 -4z"/>
</g>
</svg>
