<?xml version="1.0" standalone="no"?>
<!DOCTYPE svg PUBLIC "-//W3C//DTD SVG 20010904//EN"
 "http://www.w3.org/TR/2001/REC-SVG-20010904/DTD/svg10.dtd">
<svg version="1.0" xmlns="http://www.w3.org/2000/svg"
 width="96.000000pt" height="68.000000pt" viewBox="0 0 96.000000 68.000000"
 preserveAspectRatio="xMidYMid meet">
<metadata>
Created by potrace 1.16, written by Peter Selinger 2001-2019
</metadata>
<g transform="translate(0.000000,68.000000) scale(0.100000,-0.100000)"
fill="#000000" stroke="none">
<path d="M278 594 c-3 -3 -2 -22 3 -42 4 -20 6 -38 5 -40 -2 -2 -29 -6 -60 -9
-74 -8 -72 -23 4 -23 53 0 60 -2 60 -20 0 -14 -7 -20 -22 -21 -13 0 -32 -5
-43 -10 -13 -6 13 -7 75 -3 52 3 97 8 100 10 10 10 -26 24 -47 19 -18 -4 -23
-1 -23 13 0 15 12 22 55 31 67 15 74 32 15 33 -3 1 -20 -2 -39 -6 -33 -6 -33
-5 -27 24 5 26 2 32 -20 40 -30 12 -29 12 -36 4z"/>
</g>
</svg>
