<?xml version="1.0" standalone="no"?>
<!DOCTYPE svg PUBLIC "-//W3C//DTD SVG 20010904//EN"
 "http://www.w3.org/TR/2001/REC-SVG-20010904/DTD/svg10.dtd">
<svg version="1.0" xmlns="http://www.w3.org/2000/svg"
 width="96.000000pt" height="68.000000pt" viewBox="0 0 96.000000 68.000000"
 preserveAspectRatio="xMidYMid meet">
<metadata>
Created by potrace 1.16, written by Peter Selinger 2001-2019
</metadata>
<g transform="translate(0.000000,68.000000) scale(0.100000,-0.100000)"
fill="#000000" stroke="none">
<path d="M577 613 c-4 -3 -7 -16 -7 -27 0 -29 -50 -132 -95 -195 -20 -29 -34
-55 -32 -57 2 -3 28 17 57 43 29 26 58 48 64 48 15 0 20 -244 6 -309 -9 -41
-8 -53 6 -74 24 -36 35 -16 41 78 3 45 11 84 17 86 6 2 49 7 96 11 48 5 84 12
82 18 -3 12 -78 12 -144 1 l-48 -8 0 41 c0 48 1 49 98 59 40 4 72 12 72 17 0
10 -65 12 -130 4 -34 -4 -35 -3 -36 33 -1 20 2 41 5 46 3 5 49 14 101 21 52 7
99 16 103 20 19 19 -60 19 -149 1 -53 -11 -100 -20 -105 -20 -5 0 8 32 28 70
37 69 38 71 19 85 -21 16 -39 19 -49 8z"/>
<path d="M234 553 c3 -16 8 -47 11 -70 l7 -43 -66 0 c-62 0 -87 -13 -52 -26 8
-3 20 -28 26 -56 12 -50 32 -70 52 -50 20 20 38 1 38 -38 0 -22 -4 -41 -9 -44
-5 -4 -37 -9 -70 -13 -60 -6 -61 -6 -44 -25 20 -22 22 -22 148 21 107 37 112
37 136 9 15 -19 20 -21 28 -9 13 20 -1 44 -40 71 -32 24 -50 21 -29 -5 10 -12
9 -16 -6 -21 -11 -3 -29 -10 -41 -15 -22 -8 -23 -6 -23 35 l0 44 51 7 c35 5
49 11 45 20 -2 7 9 28 24 46 16 19 29 37 30 41 1 20 -57 36 -99 28 l-43 -8 6
54 c5 46 4 55 -13 64 -11 5 -32 10 -46 10 -24 0 -26 -3 -21 -27z m129 -129 c3
-3 1 -19 -5 -35 -13 -39 -58 -42 -58 -4 0 30 44 58 63 39z m-113 -49 c0 -28
-4 -35 -20 -35 -11 0 -20 1 -20 3 0 1 -4 17 -9 35 -9 31 -9 32 20 32 27 0 29
-3 29 -35z"/>
</g>
</svg>
