<?xml version="1.0" standalone="no"?>
<!DOCTYPE svg PUBLIC "-//W3C//DTD SVG 20010904//EN"
 "http://www.w3.org/TR/2001/REC-SVG-20010904/DTD/svg10.dtd">
<svg version="1.0" xmlns="http://www.w3.org/2000/svg"
 width="96.000000pt" height="68.000000pt" viewBox="0 0 96.000000 68.000000"
 preserveAspectRatio="xMidYMid meet">
<metadata>
Created by potrace 1.16, written by Peter Selinger 2001-2019
</metadata>
<g transform="translate(0.000000,68.000000) scale(0.100000,-0.100000)"
fill="#000000" stroke="none">
<path d="M330 539 c-25 -4 -67 -8 -93 -8 -46 -1 -48 -2 -40 -23 9 -25 10 -166
3 -238 -5 -45 -5 -45 25 -42 17 2 70 6 118 9 62 3 87 8 84 16 -4 12 -71 15
-152 6 l-40 -4 4 125 c2 69 4 126 5 127 1 2 31 5 67 8 94 8 125 15 108 26 -16
10 -26 10 -89 -2z"/>
</g>
</svg>
