<?xml version="1.0" standalone="no"?>
<!DOCTYPE svg PUBLIC "-//W3C//DTD SVG 20010904//EN"
 "http://www.w3.org/TR/2001/REC-SVG-20010904/DTD/svg10.dtd">
<svg version="1.0" xmlns="http://www.w3.org/2000/svg"
 width="96.000000pt" height="68.000000pt" viewBox="0 0 96.000000 68.000000"
 preserveAspectRatio="xMidYMid meet">
<metadata>
Created by potrace 1.16, written by Peter Selinger 2001-2019
</metadata>
<g transform="translate(0.000000,68.000000) scale(0.100000,-0.100000)"
fill="#000000" stroke="none">
<path d="M550 556 c0 -45 -10 -57 -42 -48 -10 2 -18 16 -20 35 -2 20 -9 31
-21 33 -16 2 -18 -3 -12 -37 6 -35 5 -39 -14 -39 -15 0 -21 6 -21 24 0 21 -16
36 -40 36 -5 0 -6 -16 -3 -35 6 -36 1 -40 -54 -38 -7 1 -10 -3 -7 -8 3 -5 16
-9 30 -9 29 0 33 -33 7 -62 -14 -16 -14 -18 0 -18 17 0 57 45 57 65 0 13 21
25 46 25 9 0 14 -11 14 -32 0 -48 9 -55 63 -50 l47 4 0 43 c0 35 4 44 22 48
28 8 38 1 38 -27 0 -40 31 -57 94 -54 73 4 72 22 -1 28 -54 5 -58 7 -61 33 -3
27 -2 27 52 27 31 0 56 4 56 10 0 10 -57 23 -80 18 -10 -2 -16 7 -18 27 -4 31
-16 45 -41 45 -9 0 -12 -11 -9 -40 3 -36 1 -40 -19 -40 -20 0 -23 5 -21 31 2
24 -2 33 -19 40 -22 8 -23 6 -23 -35z m-2 -98 c-2 -25 -8 -34 -25 -36 -20 -3
-23 1 -23 32 0 32 3 36 26 36 23 0 25 -3 22 -32z"/>
<path d="M210 516 c36 -38 72 -45 77 -16 5 28 -14 42 -63 47 l-49 5 35 -36z"/>
<path d="M110 413 c0 -18 66 -73 88 -73 17 0 22 6 22 25 0 13 -8 29 -18 34
-27 14 -92 24 -92 14z"/>
<path d="M685 369 c-44 -4 -127 -10 -185 -14 -58 -4 -106 -8 -108 -10 -2 -1
-18 1 -37 5 -33 8 -34 7 -50 -38 -9 -28 -12 -49 -6 -55 14 -14 28 -1 34 33 5
25 11 30 34 30 16 0 52 3 81 6 l52 7 0 -32 c0 -29 -3 -31 -37 -33 -21 -1 -51
-1 -67 0 -22 2 -27 -1 -22 -14 3 -8 6 -42 6 -75 0 -52 2 -59 20 -59 18 0 20 6
19 60 -1 34 0 62 2 64 2 2 22 6 44 7 46 4 42 15 44 -138 1 -89 11 -118 25 -70
4 12 10 65 13 118 l6 97 35 6 c19 3 39 3 44 0 4 -3 8 -30 8 -60 l0 -54 -32 0
-33 0 27 -25 c53 -49 82 -21 91 87 6 66 6 68 -19 74 -14 4 -45 4 -70 0 -43 -5
-44 -5 -44 23 l0 28 91 7 c94 7 111 4 91 -16 -21 -21 -13 -29 26 -23 57 10 72
15 72 26 0 9 -60 50 -70 48 -3 -1 -41 -5 -85 -10z"/>
<path d="M203 245 c-22 -33 -50 -69 -62 -79 -11 -11 -21 -28 -21 -38 0 -36 34
-83 51 -72 11 7 81 223 77 236 -3 7 -23 -15 -45 -47z"/>
</g>
</svg>
