<?xml version="1.0" standalone="no"?>
<!DOCTYPE svg PUBLIC "-//W3C//DTD SVG 20010904//EN"
 "http://www.w3.org/TR/2001/REC-SVG-20010904/DTD/svg10.dtd">
<svg version="1.0" xmlns="http://www.w3.org/2000/svg"
 width="96.000000pt" height="68.000000pt" viewBox="0 0 96.000000 68.000000"
 preserveAspectRatio="xMidYMid meet">
<metadata>
Created by potrace 1.16, written by Peter Selinger 2001-2019
</metadata>
<g transform="translate(0.000000,68.000000) scale(0.100000,-0.100000)"
fill="#000000" stroke="none">
<path d="M340 549 c-19 -5 -65 -10 -102 -10 -63 -1 -83 -9 -58 -24 12 -8 13
-126 0 -180 -5 -23 -5 -44 0 -49 5 -5 35 -4 72 3 35 6 84 12 110 14 32 1 48 6
48 15 0 10 -11 12 -42 8 -24 -3 -65 -7 -92 -8 l-49 -3 2 95 c1 52 4 97 7 99 2
2 25 6 51 7 78 5 144 18 146 29 3 13 -49 16 -93 4z"/>
</g>
</svg>
