<?xml version="1.0" standalone="no"?>
<!DOCTYPE svg PUBLIC "-//W3C//DTD SVG 20010904//EN"
 "http://www.w3.org/TR/2001/REC-SVG-20010904/DTD/svg10.dtd">
<svg version="1.0" xmlns="http://www.w3.org/2000/svg"
 width="90.000000pt" height="92.000000pt" viewBox="0 0 90.000000 92.000000"
 preserveAspectRatio="xMidYMid meet">
<metadata>
Created by potrace 1.16, written by Peter Selinger 2001-2019
</metadata>
<g transform="translate(0.000000,92.000000) scale(0.100000,-0.100000)"
fill="#000000" stroke="none">
<path d="M440 783 c0 -11 68 -105 81 -114 6 -3 -11 -9 -38 -13 -196 -26 -205
-28 -190 -44 18 -17 52 -19 121 -8 l49 9 -7 -29 c-11 -44 -74 -134 -107 -152
-16 -10 -29 -24 -29 -33 0 -30 23 -39 105 -39 l80 -1 -65 -60 c-36 -33 -84
-71 -107 -85 -46 -28 -47 -40 -5 -77 17 -16 24 -17 44 -6 13 7 88 32 168 55
l145 42 22 -37 c36 -61 49 -75 61 -67 21 13 14 79 -14 119 -28 41 -117 104
-122 87 -2 -5 6 -22 17 -36 12 -15 21 -32 21 -38 0 -7 -43 -19 -107 -30 -60
-10 -120 -20 -135 -23 -16 -3 -28 -1 -28 4 0 10 242 225 260 231 18 6 10 38
-13 60 -32 30 -41 28 -55 -11 -7 -19 -27 -51 -45 -72 l-33 -39 -50 14 c-27 7
-53 16 -57 20 -9 8 61 103 100 136 21 18 23 25 14 43 -7 11 -17 21 -24 22 -38
3 59 18 146 24 157 9 178 18 117 50 -27 14 -38 14 -111 0 -45 -8 -83 -15 -86
-15 -2 0 -2 12 1 28 3 15 3 32 -2 38 -15 24 -122 64 -122 47z"/>
<path d="M150 742 c0 -22 67 -97 86 -97 15 0 19 7 19 35 0 27 -5 37 -25 47
-40 19 -80 26 -80 15z"/>
<path d="M60 561 c0 -17 80 -101 97 -101 38 0 26 72 -14 88 -50 20 -83 25 -83
13z"/>
<path d="M187 361 c-25 -43 -64 -94 -86 -113 -47 -40 -48 -47 -21 -105 20 -45
37 -54 46 -25 4 9 30 78 59 152 65 167 66 170 56 170 -5 0 -29 -35 -54 -79z"/>
</g>
</svg>
