<?xml version="1.0" standalone="no"?>
<!DOCTYPE svg PUBLIC "-//W3C//DTD SVG 20010904//EN"
 "http://www.w3.org/TR/2001/REC-SVG-20010904/DTD/svg10.dtd">
<svg version="1.0" xmlns="http://www.w3.org/2000/svg"
 width="96.000000pt" height="68.000000pt" viewBox="0 0 96.000000 68.000000"
 preserveAspectRatio="xMidYMid meet">
<metadata>
Created by potrace 1.16, written by Peter Selinger 2001-2019
</metadata>
<g transform="translate(0.000000,68.000000) scale(0.100000,-0.100000)"
fill="#000000" stroke="none">
<path d="M514 519 c37 -44 37 -44 13 -50 -13 -3 -58 -10 -100 -14 -42 -3 -77
-11 -77 -16 0 -12 94 -12 178 1 37 5 111 12 165 16 53 3 97 10 97 15 0 18 -66
25 -132 14 l-68 -12 0 29 c0 30 -12 38 -79 53 l-35 7 38 -43z"/>
</g>
</svg>
