<?xml version="1.0" standalone="no"?>
<!DOCTYPE svg PUBLIC "-//W3C//DTD SVG 20010904//EN"
 "http://www.w3.org/TR/2001/REC-SVG-20010904/DTD/svg10.dtd">
<svg version="1.0" xmlns="http://www.w3.org/2000/svg"
 width="90.000000pt" height="92.000000pt" viewBox="0 0 90.000000 92.000000"
 preserveAspectRatio="xMidYMid meet">
<metadata>
Created by potrace 1.16, written by Peter Selinger 2001-2019
</metadata>
<g transform="translate(0.000000,92.000000) scale(0.100000,-0.100000)"
fill="#000000" stroke="none">
<path d="M516 828 c-3 -7 -7 -31 -10 -52 -7 -51 -65 -173 -121 -252 -24 -35
-39 -64 -33 -64 25 0 134 127 172 199 l39 74 19 -24 c10 -13 43 -58 73 -99 65
-91 91 -120 110 -120 25 0 115 23 115 30 0 3 -33 22 -72 41 -96 45 -235 179
-230 221 4 36 -53 78 -62 46z"/>
<path d="M195 755 c-33 -7 -73 -11 -89 -8 -26 6 -28 4 -20 -18 10 -26 11 -166
4 -296 -4 -69 -2 -85 13 -100 10 -11 17 -13 17 -5 0 7 4 12 9 12 24 0 -26
-103 -87 -179 l-27 -35 34 20 c18 10 61 52 94 93 l61 74 -23 18 -23 19 60 0
c48 0 63 -4 71 -17 8 -15 12 -16 23 -5 9 9 15 67 19 210 5 187 5 198 -14 215
-22 20 -39 20 -122 2z m79 -76 c4 -28 6 -53 4 -54 -2 -2 -36 -6 -77 -10 l-74
-7 6 23 c4 13 7 36 7 51 0 22 6 29 33 37 17 5 46 10 63 10 30 1 32 -1 38 -50z
m6 -132 l0 -43 -56 -2 c-31 -1 -65 -4 -75 -7 -17 -6 -19 -1 -19 39 l0 45 53 4
c28 2 62 4 75 5 20 2 22 -3 22 -41z m0 -119 l0 -43 -75 -2 -75 -3 0 45 0 45
75 0 75 0 0 -42z"/>
<path d="M570 524 c-25 -7 -56 -13 -70 -13 -14 -1 -32 -5 -40 -11 -11 -7 -9
-11 13 -19 20 -8 50 -7 108 4 45 7 84 17 88 20 7 8 -28 36 -43 34 -6 -1 -31
-7 -56 -15z"/>
<path d="M660 425 c-97 -18 -232 -35 -268 -35 -38 0 -42 -16 -6 -32 19 -9 39
-9 86 1 50 10 63 10 70 -1 5 -7 7 -68 6 -135 -2 -89 1 -126 10 -135 10 -10 15
-10 22 2 8 12 14 142 13 273 0 15 12 17 98 17 96 0 121 7 96 28 -28 24 -63 28
-127 17z"/>
<path d="M260 263 c37 -68 49 -85 61 -77 11 6 12 55 1 72 -10 15 -73 62 -84
62 -5 0 5 -25 22 -57z"/>
<path d="M650 306 c0 -16 108 -161 120 -161 21 0 25 51 5 81 -19 30 -125 97
-125 80z"/>
<path d="M428 263 c-9 -21 -33 -57 -54 -80 -44 -51 -33 -55 32 -10 63 42 92
82 78 105 -19 29 -38 24 -56 -15z"/>
</g>
</svg>
