<?xml version="1.0" standalone="no"?>
<!DOCTYPE svg PUBLIC "-//W3C//DTD SVG 20010904//EN"
 "http://www.w3.org/TR/2001/REC-SVG-20010904/DTD/svg10.dtd">
<svg version="1.0" xmlns="http://www.w3.org/2000/svg"
 width="96.000000pt" height="68.000000pt" viewBox="0 0 96.000000 68.000000"
 preserveAspectRatio="xMidYMid meet">
<metadata>
Created by potrace 1.16, written by Peter Selinger 2001-2019
</metadata>
<g transform="translate(0.000000,68.000000) scale(0.100000,-0.100000)"
fill="#000000" stroke="none">
<path d="M246 543 c5 -10 10 -70 12 -134 l3 -116 -42 -7 c-23 -4 -44 -5 -46
-2 -2 2 0 21 6 43 16 56 14 69 -15 82 -25 11 -26 11 -21 -15 2 -15 -2 -51 -11
-81 -21 -75 -12 -82 75 -55 37 12 89 24 116 28 43 6 47 4 47 -14 0 -20 17 -39
26 -29 9 8 32 182 25 188 -3 4 -16 10 -28 14 -22 6 -23 4 -23 -65 l0 -71 -32
3 -33 3 4 114 c4 122 0 131 -48 131 -19 0 -22 -3 -15 -17z"/>
</g>
</svg>
