<?xml version="1.0" standalone="no"?>
<!DOCTYPE svg PUBLIC "-//W3C//DTD SVG 20010904//EN"
 "http://www.w3.org/TR/2001/REC-SVG-20010904/DTD/svg10.dtd">
<svg version="1.0" xmlns="http://www.w3.org/2000/svg"
 width="96.000000pt" height="68.000000pt" viewBox="0 0 96.000000 68.000000"
 preserveAspectRatio="xMidYMid meet">
<metadata>
Created by potrace 1.16, written by Peter Selinger 2001-2019
</metadata>
<g transform="translate(0.000000,68.000000) scale(0.100000,-0.100000)"
fill="#000000" stroke="none">
<path d="M250 555 c0 -29 -42 -98 -82 -137 -34 -33 -38 -40 -28 -59 7 -13 18
-19 28 -16 10 3 32 10 51 16 l34 10 -24 -27 c-33 -37 -59 -60 -72 -65 -8 -3
-7 -10 5 -22 15 -17 19 -17 50 -2 67 31 116 41 133 27 21 -18 31 -5 17 24 -12
26 -58 45 -48 20 6 -15 -11 -24 -66 -38 -16 -3 -28 -2 -28 3 0 5 34 42 76 82
56 55 73 79 69 92 -11 28 -32 20 -56 -22 -15 -28 -30 -41 -52 -45 -57 -11 -61
-5 -21 40 78 89 85 101 68 118 -20 20 -54 21 -54 1z"/>
<path d="M575 554 c-44 -7 -97 -13 -117 -13 -21 -1 -38 -5 -38 -11 0 -5 20
-10 45 -10 25 0 45 -2 45 -5 0 -15 -52 -85 -80 -109 -41 -34 -32 -46 12 -15
65 46 119 103 115 121 -4 14 4 18 38 24 24 3 48 3 54 -1 14 -8 14 -38 -1 -70
-10 -23 -17 -26 -50 -23 l-37 3 26 -27 c15 -16 33 -28 40 -28 24 0 52 39 69
96 16 55 16 58 -2 71 -10 7 -23 12 -28 12 -6 -1 -47 -8 -91 -15z"/>
<path d="M625 369 c-27 -4 -86 -11 -130 -14 -44 -4 -81 -8 -82 -9 -1 -1 1 -54
4 -119 6 -118 6 -118 37 -140 27 -19 46 -22 151 -25 94 -2 131 2 170 15 58 21
65 38 39 98 l-17 40 -12 -34 c-22 -64 -50 -76 -187 -76 -137 0 -145 5 -144 77
l1 43 85 8 c144 13 171 18 168 30 -3 18 12 57 23 57 5 0 9 8 9 18 0 17 -40 44
-58 41 -4 -1 -29 -5 -57 -10z m47 -54 c-5 -39 -9 -43 -60 -51 l-42 -7 6 34
c10 59 11 60 56 57 41 -3 43 -4 40 -33z m-137 -21 c0 -38 -1 -39 -37 -39 -21
0 -38 3 -38 8 0 4 0 20 0 36 0 25 5 30 28 34 43 6 47 3 47 -39z"/>
<path d="M316 228 c8 -25 34 -49 46 -42 15 10 8 33 -14 48 -31 22 -41 20 -32
-6z"/>
<path d="M220 201 c15 -29 41 -52 51 -46 18 12 9 42 -16 53 -38 17 -47 15 -35
-7z"/>
<path d="M110 193 c0 -13 51 -93 60 -93 15 0 22 20 16 45 -7 27 -76 71 -76 48z"/>
</g>
</svg>
