<?xml version="1.0" standalone="no"?>
<!DOCTYPE svg PUBLIC "-//W3C//DTD SVG 20010904//EN"
 "http://www.w3.org/TR/2001/REC-SVG-20010904/DTD/svg10.dtd">
<svg version="1.0" xmlns="http://www.w3.org/2000/svg"
 width="96.000000pt" height="68.000000pt" viewBox="0 0 96.000000 68.000000"
 preserveAspectRatio="xMidYMid meet">
<metadata>
Created by potrace 1.16, written by Peter Selinger 2001-2019
</metadata>
<g transform="translate(0.000000,68.000000) scale(0.100000,-0.100000)"
fill="#000000" stroke="none">
<path d="M555 235 c-83 -15 -172 -24 -237 -25 l-48 0 20 -32 c11 -18 22 -52
26 -75 3 -24 9 -45 13 -47 3 -2 35 0 71 5 36 4 109 9 163 10 89 1 113 8 88 24
-11 6 13 71 35 96 8 8 14 19 14 23 0 6 -65 38 -72 35 -2 -1 -34 -7 -73 -14z
m65 -37 c0 -5 -5 -29 -11 -53 l-11 -43 -76 -6 c-175 -13 -166 -15 -179 24 -16
46 -16 70 0 71 6 0 64 6 127 13 117 12 150 11 150 -6z"/>
</g>
</svg>
