<?xml version="1.0" standalone="no"?>
<!DOCTYPE svg PUBLIC "-//W3C//DTD SVG 20010904//EN"
 "http://www.w3.org/TR/2001/REC-SVG-20010904/DTD/svg10.dtd">
<svg version="1.0" xmlns="http://www.w3.org/2000/svg"
 width="96.000000pt" height="68.000000pt" viewBox="0 0 96.000000 68.000000"
 preserveAspectRatio="xMidYMid meet">
<metadata>
Created by potrace 1.16, written by Peter Selinger 2001-2019
</metadata>
<g transform="translate(0.000000,68.000000) scale(0.100000,-0.100000)"
fill="#000000" stroke="none">
<path d="M310 255 c-30 -7 -69 -14 -86 -14 l-31 -1 16 -57 c20 -72 29 -87 45
-74 6 5 46 13 89 17 66 6 75 9 65 21 -9 12 -7 24 13 59 21 39 22 46 9 54 -19
12 -50 11 -120 -5z m60 -47 c0 -48 -11 -58 -67 -64 -49 -6 -50 -6 -57 22 -4
16 -9 37 -12 46 -4 14 4 18 43 21 26 2 58 4 71 5 19 2 22 -3 22 -30z"/>
</g>
</svg>
