<?xml version="1.0" standalone="no"?>
<!DOCTYPE svg PUBLIC "-//W3C//DTD SVG 20010904//EN"
 "http://www.w3.org/TR/2001/REC-SVG-20010904/DTD/svg10.dtd">
<svg version="1.0" xmlns="http://www.w3.org/2000/svg"
 width="90.000000pt" height="92.000000pt" viewBox="0 0 90.000000 92.000000"
 preserveAspectRatio="xMidYMid meet">
<metadata>
Created by potrace 1.16, written by Peter Selinger 2001-2019
</metadata>
<g transform="translate(0.000000,92.000000) scale(0.100000,-0.100000)"
fill="#000000" stroke="none">
<path d="M175 838 c3 -13 9 -69 12 -125 l6 -101 -54 -11 c-30 -5 -63 -11 -73
-13 -11 -2 -21 -8 -23 -14 -5 -16 40 -25 87 -18 27 5 40 3 40 -5 0 -24 -71
-151 -120 -216 -29 -36 -49 -69 -47 -72 11 -11 110 93 144 152 19 33 37 62 40
65 7 6 -4 -137 -19 -252 -8 -68 -8 -94 2 -118 28 -69 50 -21 51 117 1 59 4
137 8 173 l6 65 24 -32 c30 -41 61 -44 61 -7 0 20 -9 29 -45 45 -43 19 -45 22
-45 63 0 43 1 44 39 50 22 3 43 11 47 18 11 18 -27 39 -59 32 l-28 -6 6 54 c3
29 8 71 10 93 5 44 0 57 -32 74 -34 17 -46 14 -38 -11z"/>
<path d="M510 722 c-216 -42 -210 -40 -185 -54 11 -6 22 -12 23 -14 2 -1 6
-103 9 -226 3 -123 10 -231 15 -240 5 -10 23 -26 41 -35 59 -33 427 -17 427
17 0 5 -10 16 -23 25 -21 13 -31 13 -93 0 -99 -21 -272 -20 -303 2 l-24 16 8
201 c4 111 8 211 9 223 1 19 10 24 51 33 91 18 179 30 222 30 46 0 73 8 73 21
0 9 -54 40 -67 37 -4 0 -87 -17 -183 -36z"/>
<path d="M605 623 c-22 -8 -64 -16 -92 -16 -29 -1 -53 -5 -53 -9 0 -4 4 -8 8
-8 10 0 32 -45 32 -65 0 -7 4 -25 9 -38 9 -23 11 -24 73 -15 99 14 108 17 102
33 -4 8 4 34 16 56 17 35 19 44 8 55 -21 20 -60 23 -103 7z m35 -67 c0 -30 -4
-36 -32 -44 -73 -22 -78 -22 -80 4 -4 60 -4 59 37 65 76 12 75 12 75 -25z"/>
<path d="M700 434 c-19 -7 -47 -13 -62 -13 -26 -1 -26 -2 -13 -28 8 -15 17
-47 21 -70 3 -24 10 -45 14 -48 7 -4 120 14 129 21 2 2 -1 9 -7 16 -8 10 -5
27 11 62 20 47 20 49 2 62 -23 17 -48 16 -95 -2z m38 -66 c-2 -36 -8 -45 -31
-56 -16 -8 -30 -12 -31 -10 -2 1 -6 24 -8 50 -6 50 -7 49 60 57 9 1 12 -11 10
-41z"/>
<path d="M506 404 c-21 -7 -49 -11 -62 -8 -27 7 -32 -7 -10 -25 8 -7 17 -34
21 -61 4 -28 10 -52 13 -54 7 -4 113 14 121 20 2 2 -1 10 -8 18 -9 11 -8 24 4
57 13 40 13 45 -2 57 -20 15 -28 14 -77 -4z m34 -63 c0 -31 -4 -41 -21 -46
-26 -8 -29 -5 -39 39 -8 37 -3 44 38 45 19 1 22 -4 22 -38z"/>
</g>
</svg>
