<?xml version="1.0" standalone="no"?>
<!DOCTYPE svg PUBLIC "-//W3C//DTD SVG 20010904//EN"
 "http://www.w3.org/TR/2001/REC-SVG-20010904/DTD/svg10.dtd">
<svg version="1.0" xmlns="http://www.w3.org/2000/svg"
 width="96.000000pt" height="68.000000pt" viewBox="0 0 96.000000 68.000000"
 preserveAspectRatio="xMidYMid meet">
<metadata>
Created by potrace 1.16, written by Peter Selinger 2001-2019
</metadata>
<g transform="translate(0.000000,68.000000) scale(0.100000,-0.100000)"
fill="#000000" stroke="none">
<path d="M536 555 c9 -61 0 -73 -64 -80 -31 -3 -68 -9 -82 -12 -46 -10 9 -22
76 -16 l60 5 -4 -36 c-4 -36 -4 -36 -53 -36 l-48 0 0 -141 c0 -77 -2 -143 -4
-146 -3 -2 -36 -8 -74 -12 -66 -7 -67 -8 -38 -20 20 -8 47 -10 80 -6 28 4 140
10 249 14 135 4 201 10 203 17 6 18 -54 34 -103 27 l-45 -6 5 59 c3 32 8 96
12 141 l7 83 -29 10 c-20 8 -41 8 -71 1 -55 -14 -53 -15 -53 12 0 46 19 56
108 58 88 2 111 12 65 30 -25 9 -58 7 -122 -8 -23 -6 -24 -4 -17 35 5 35 3 43
-13 52 -39 20 -51 13 -45 -25z m112 -206 c3 -25 0 -26 -55 -32 -32 -4 -73 -9
-90 -13 -31 -6 -33 -5 -33 24 0 30 1 30 73 40 95 13 101 11 105 -19z m2 -73
c0 -21 -5 -24 -67 -30 -120 -13 -118 -13 -121 10 -3 19 4 22 70 31 117 16 118
16 118 -11z m0 -70 c0 -21 -6 -24 -57 -29 -32 -4 -75 -10 -95 -13 -36 -6 -38
-5 -38 19 0 24 4 26 68 32 37 4 72 8 77 10 30 10 45 4 45 -19z m0 -71 c0 -31
-3 -32 -107 -40 l-83 -6 0 31 c0 25 4 30 18 27 9 -3 37 -2 62 3 25 4 60 8 78
9 28 1 32 -2 32 -24z"/>
<path d="M215 508 c4 -13 10 -51 12 -85 l5 -61 -57 -7 c-70 -9 -68 -29 3 -33
l52 -3 0 -54 0 -54 -62 -19 c-69 -21 -80 -40 -34 -57 25 -8 41 -3 133 45 57
30 107 59 110 64 6 9 -36 4 -68 -9 -12 -5 -18 2 -23 25 -11 56 1 77 46 84 49
8 46 30 -5 34 -33 3 -37 6 -37 30 0 15 4 44 9 65 8 35 7 39 -16 48 -13 5 -36
9 -50 9 -22 0 -24 -3 -18 -22z"/>
</g>
</svg>
