<?xml version="1.0" standalone="no"?>
<!DOCTYPE svg PUBLIC "-//W3C//DTD SVG 20010904//EN"
 "http://www.w3.org/TR/2001/REC-SVG-20010904/DTD/svg10.dtd">
<svg version="1.0" xmlns="http://www.w3.org/2000/svg"
 width="90.000000pt" height="92.000000pt" viewBox="0 0 90.000000 92.000000"
 preserveAspectRatio="xMidYMid meet">
<metadata>
Created by potrace 1.16, written by Peter Selinger 2001-2019
</metadata>
<g transform="translate(0.000000,92.000000) scale(0.100000,-0.100000)"
fill="#000000" stroke="none">
<path d="M154 813 c15 -63 18 -295 5 -448 -17 -203 -17 -271 -2 -287 32 -31
38 8 44 267 3 140 8 258 12 261 3 3 20 -10 37 -30 37 -41 45 -44 60 -17 16 31
2 49 -51 66 -54 18 -54 18 -39 108 11 68 7 80 -26 96 -39 17 -47 14 -40 -16z"/>
<path d="M669 776 c-2 -3 -85 -17 -184 -31 -99 -15 -182 -29 -185 -32 -2 -2 0
-7 6 -11 27 -17 37 -62 41 -181 5 -121 -8 -349 -21 -382 -4 -9 1 -26 12 -39
19 -23 21 -24 78 -10 37 9 130 15 249 16 202 2 217 6 164 46 -26 19 -30 19
-229 3 -116 -9 -207 -12 -212 -7 -10 10 4 527 14 538 7 7 181 30 301 40 42 3
77 10 77 15 0 21 -95 51 -111 35z"/>
<path d="M564 668 c19 -68 19 -75 -6 -81 -12 -4 -40 -7 -61 -7 -64 0 -40 -25
28 -28 l57 -3 -7 -80 c-11 -130 -41 -195 -118 -250 -46 -33 -27 -40 31 -10 44
22 63 43 89 94 l19 38 67 -71 c73 -76 97 -86 97 -43 0 33 -73 106 -123 122
-34 12 -34 12 -26 54 4 23 8 67 9 98 l0 57 55 7 c30 3 58 11 61 17 11 18 -19
29 -63 24 l-43 -6 0 39 c0 32 -4 40 -22 45 -42 11 -51 8 -44 -16z"/>
<path d="M52 520 c-28 -71 -27 -125 3 -125 14 0 24 11 32 35 19 55 15 150 -6
150 -3 0 -17 -27 -29 -60z"/>
<path d="M685 507 c-4 -17 -18 -53 -31 -79 -28 -56 -22 -60 22 -17 l33 32 31
-32 c35 -35 45 -38 54 -16 6 18 -27 55 -48 55 -21 0 -30 19 -16 35 13 16 7 31
-20 45 -16 8 -19 5 -25 -23z"/>
<path d="M476 498 c-13 -51 -32 -97 -48 -121 -30 -43 -13 -45 25 -3 33 36 34
36 52 16 10 -11 24 -20 32 -20 22 0 15 38 -9 51 -31 16 -31 15 -17 37 10 17
10 23 0 36 -16 19 -30 21 -35 4z"/>
</g>
</svg>
