<?xml version="1.0" standalone="no"?>
<!DOCTYPE svg PUBLIC "-//W3C//DTD SVG 20010904//EN"
 "http://www.w3.org/TR/2001/REC-SVG-20010904/DTD/svg10.dtd">
<svg version="1.0" xmlns="http://www.w3.org/2000/svg"
 width="96.000000pt" height="68.000000pt" viewBox="0 0 96.000000 68.000000"
 preserveAspectRatio="xMidYMid meet">
<metadata>
Created by potrace 1.16, written by Peter Selinger 2001-2019
</metadata>
<g transform="translate(0.000000,68.000000) scale(0.100000,-0.100000)"
fill="#000000" stroke="none">
<path d="M265 523 c-22 -8 -57 -12 -77 -10 -37 4 -46 -1 -30 -17 4 -4 14 -31
23 -59 17 -58 9 -55 122 -42 33 4 55 11 51 16 -3 5 2 32 12 60 16 44 16 51 4
59 -20 13 -57 11 -105 -7z m55 -45 c0 -46 -10 -56 -57 -64 -46 -7 -40 -14 -57
73 -1 9 44 20 87 22 24 1 27 -2 27 -31z"/>
</g>
</svg>
