<?xml version="1.0" standalone="no"?>
<!DOCTYPE svg PUBLIC "-//W3C//DTD SVG 20010904//EN"
 "http://www.w3.org/TR/2001/REC-SVG-20010904/DTD/svg10.dtd">
<svg version="1.0" xmlns="http://www.w3.org/2000/svg"
 width="96.000000pt" height="68.000000pt" viewBox="0 0 96.000000 68.000000"
 preserveAspectRatio="xMidYMid meet">
<metadata>
Created by potrace 1.16, written by Peter Selinger 2001-2019
</metadata>
<g transform="translate(0.000000,68.000000) scale(0.100000,-0.100000)"
fill="#000000" stroke="none">
<path d="M607 580 c-15 -5 -57 -12 -93 -15 -47 -6 -62 -11 -55 -18 8 -8 33 -7
89 5 44 9 81 12 86 7 14 -12 -32 -49 -61 -49 -27 0 -30 -15 -6 -29 27 -15 13
-20 -83 -34 l-89 -12 73 -3 c39 -2 72 -6 72 -10 -1 -4 -21 -23 -45 -42 -60
-47 -38 -52 25 -6 57 41 70 44 70 17 0 -32 -11 -50 -26 -44 -20 8 -17 -11 6
-32 33 -30 50 -5 50 71 l0 64 51 0 c47 0 51 -2 46 -21 -5 -18 -2 -20 16 -14
12 4 32 9 45 12 34 8 26 29 -17 41 -27 9 -53 9 -92 2 -40 -8 -55 -7 -60 2 -11
17 3 31 61 58 27 13 50 26 50 30 0 10 -48 30 -68 29 -9 0 -30 -4 -45 -9z"/>
<path d="M290 535 c-19 -7 -61 -14 -92 -14 -59 -1 -68 -7 -46 -29 7 -7 19 -36
28 -65 15 -49 17 -52 47 -49 l31 3 4 -98 c3 -54 4 -99 4 -99 -1 -1 -16 -5 -33
-9 l-33 -7 0 60 c0 73 -6 92 -31 92 -20 0 -20 -16 -4 -127 3 -21 0 -23 -36
-23 -45 0 -48 -13 -8 -37 26 -16 47 -12 243 52 39 12 35 32 -4 21 -11 -3 -29
-9 -40 -12 -18 -5 -20 -1 -20 35 0 57 8 71 40 71 16 0 32 5 36 11 5 8 -4 10
-30 7 l-37 -4 3 38 c1 31 7 40 25 44 13 4 20 10 18 15 -3 5 4 31 16 59 13 30
18 55 13 60 -17 16 -59 19 -94 5z m25 -62 c-9 -51 -11 -53 -54 -53 -35 0 -39
3 -45 32 -7 38 -6 39 41 48 67 13 66 14 58 -27z"/>
<path d="M556 266 c5 -21 2 -24 -42 -30 -26 -3 -62 -6 -80 -6 -19 0 -34 -5
-34 -11 0 -8 22 -10 70 -7 39 3 70 2 70 -2 0 -10 -89 -90 -131 -117 -18 -13
-27 -23 -19 -23 21 0 111 53 134 79 33 36 41 26 41 -51 0 -58 3 -73 15 -73 12
0 16 16 18 73 2 39 7 72 12 72 4 0 32 -22 61 -50 54 -51 79 -59 137 -44 34 10
27 19 -32 37 -61 20 -166 85 -166 104 0 9 27 13 93 15 118 4 115 23 -5 23 -75
0 -88 2 -92 17 -2 12 -14 18 -30 18 -23 0 -26 -3 -20 -24z"/>
</g>
</svg>
