<?xml version="1.0" standalone="no"?>
<!DOCTYPE svg PUBLIC "-//W3C//DTD SVG 20010904//EN"
 "http://www.w3.org/TR/2001/REC-SVG-20010904/DTD/svg10.dtd">
<svg version="1.0" xmlns="http://www.w3.org/2000/svg"
 width="96.000000pt" height="68.000000pt" viewBox="0 0 96.000000 68.000000"
 preserveAspectRatio="xMidYMid meet">
<metadata>
Created by potrace 1.16, written by Peter Selinger 2001-2019
</metadata>
<g transform="translate(0.000000,68.000000) scale(0.100000,-0.100000)"
fill="#000000" stroke="none">
<path d="M474 573 c-14 -56 -44 -101 -125 -182 -77 -78 -80 -82 -40 -62 52 27
109 78 157 142 21 27 43 49 49 49 5 0 49 -40 96 -90 l87 -90 65 0 c67 0 96 13
54 24 -93 23 -287 151 -287 189 0 20 -22 47 -39 47 -6 0 -14 -12 -17 -27z"/>
<path d="M198 443 c3 -76 0 -185 -8 -252 -6 -66 -9 -129 -5 -140 7 -24 40 -28
49 -6 3 8 8 98 12 200 l7 184 29 -20 c16 -12 36 -18 44 -15 26 10 11 40 -26
52 -33 11 -35 14 -38 63 -2 28 -4 51 -5 51 -1 0 -16 4 -33 9 l-31 9 5 -135z"/>
<path d="M480 395 c-45 -10 -50 -13 -25 -15 39 -3 129 1 134 6 18 18 -49 23
-109 9z"/>
<path d="M110 344 c-24 -55 -25 -68 -5 -84 20 -16 32 -6 46 40 12 39 6 90 -11
90 -5 0 -18 -21 -30 -46z"/>
<path d="M631 302 c5 -16 8 -73 7 -128 l-3 -99 -35 3 -35 3 37 -38 c38 -37 38
-37 57 -18 17 17 20 37 22 150 2 72 0 136 -5 143 -4 6 -18 12 -31 12 -22 0
-23 -2 -14 -28z"/>
<path d="M400 300 c-14 -4 -35 -5 -47 -3 -20 4 -21 2 -16 -35 3 -22 0 -69 -6
-105 -6 -36 -8 -73 -4 -82 6 -17 7 -17 20 1 7 10 13 30 13 45 0 33 4 36 55 40
40 4 40 4 40 -31 0 -29 -4 -36 -23 -38 l-24 -4 23 -24 c12 -13 28 -24 35 -24
19 0 31 48 33 138 1 46 5 90 8 99 11 29 -46 42 -107 23z m60 -29 c0 -19 -25
-31 -67 -31 -14 0 -23 6 -23 15 0 17 32 33 68 34 15 1 22 -5 22 -18z m0 -65
c0 -21 -5 -24 -45 -28 -41 -3 -45 -1 -45 19 0 22 15 28 68 32 17 1 22 -4 22
-23z"/>
<path d="M556 283 c-11 -11 -6 -132 5 -138 16 -10 17 -5 25 66 5 54 4 67 -9
72 -8 3 -18 3 -21 0z"/>
</g>
</svg>
