<?xml version="1.0" standalone="no"?>
<!DOCTYPE svg PUBLIC "-//W3C//DTD SVG 20010904//EN"
 "http://www.w3.org/TR/2001/REC-SVG-20010904/DTD/svg10.dtd">
<svg version="1.0" xmlns="http://www.w3.org/2000/svg"
 width="96.000000pt" height="68.000000pt" viewBox="0 0 96.000000 68.000000"
 preserveAspectRatio="xMidYMid meet">
<metadata>
Created by potrace 1.16, written by Peter Selinger 2001-2019
</metadata>
<g transform="translate(0.000000,68.000000) scale(0.100000,-0.100000)"
fill="#000000" stroke="none">
<path d="M215 357 c0 -219 3 -230 78 -269 80 -42 395 -34 441 12 5 5 3 26 -7
52 -10 24 -17 56 -17 71 0 36 -18 34 -34 -3 -7 -17 -16 -27 -20 -23 -4 4 -5 1
-2 -7 3 -8 0 -22 -7 -31 -27 -35 -60 -42 -182 -42 -142 0 -176 12 -195 69 -12
35 -10 128 3 140 5 6 308 64 329 64 21 0 4 22 -28 37 -29 14 -37 15 -43 4 -13
-20 -202 -81 -252 -81 -13 0 -11 38 6 105 18 66 12 78 -40 89 l-30 6 0 -193z"/>
</g>
</svg>
