<?xml version="1.0" standalone="no"?>
<!DOCTYPE svg PUBLIC "-//W3C//DTD SVG 20010904//EN"
 "http://www.w3.org/TR/2001/REC-SVG-20010904/DTD/svg10.dtd">
<svg version="1.0" xmlns="http://www.w3.org/2000/svg"
 width="96.000000pt" height="68.000000pt" viewBox="0 0 96.000000 68.000000"
 preserveAspectRatio="xMidYMid meet">
<metadata>
Created by potrace 1.16, written by Peter Selinger 2001-2019
</metadata>
<g transform="translate(0.000000,68.000000) scale(0.100000,-0.100000)"
fill="#000000" stroke="none">
<path d="M450 175 c38 -40 70 -46 70 -14 0 13 -11 25 -35 35 -61 25 -73 18
-35 -21z"/>
<path d="M320 149 c24 -66 43 -86 105 -115 40 -19 66 -24 130 -23 132 0 192
35 128 75 -15 10 -45 31 -66 47 l-38 29 17 -42 c20 -50 13 -60 -48 -67 -90
-10 -184 40 -208 112 -6 19 -18 35 -26 35 -11 0 -10 -9 6 -51z"/>
<path d="M198 140 c-29 -52 -28 -80 2 -80 24 0 56 82 44 114 -10 25 -17 20
-46 -34z"/>
<path d="M660 175 c18 -22 90 -75 102 -75 4 0 8 11 8 25 0 30 -33 53 -86 62
-37 6 -38 5 -24 -12z"/>
</g>
</svg>
