<?xml version="1.0" standalone="no"?>
<!DOCTYPE svg PUBLIC "-//W3C//DTD SVG 20010904//EN"
 "http://www.w3.org/TR/2001/REC-SVG-20010904/DTD/svg10.dtd">
<svg version="1.0" xmlns="http://www.w3.org/2000/svg"
 width="96.000000pt" height="68.000000pt" viewBox="0 0 96.000000 68.000000"
 preserveAspectRatio="xMidYMid meet">
<metadata>
Created by potrace 1.16, written by Peter Selinger 2001-2019
</metadata>
<g transform="translate(0.000000,68.000000) scale(0.100000,-0.100000)"
fill="#000000" stroke="none">
<path d="M585 304 c-49 -8 -102 -13 -117 -11 -19 2 -25 0 -19 -7 5 -6 14 -30
20 -53 12 -42 13 -43 54 -42 23 0 65 4 92 9 29 4 55 4 61 -1 14 -12 26 3 48
59 26 69 21 70 -139 46z m115 -13 c0 -17 -22 -70 -28 -69 -4 1 -42 -2 -86 -7
-84 -8 -96 -3 -96 42 0 19 7 22 68 28 37 4 72 8 77 10 21 7 65 5 65 -4z"/>
</g>
</svg>
