<?xml version="1.0" standalone="no"?>
<!DOCTYPE svg PUBLIC "-//W3C//DTD SVG 20010904//EN"
 "http://www.w3.org/TR/2001/REC-SVG-20010904/DTD/svg10.dtd">
<svg version="1.0" xmlns="http://www.w3.org/2000/svg"
 width="96.000000pt" height="68.000000pt" viewBox="0 0 96.000000 68.000000"
 preserveAspectRatio="xMidYMid meet">
<metadata>
Created by potrace 1.16, written by Peter Selinger 2001-2019
</metadata>
<g transform="translate(0.000000,68.000000) scale(0.100000,-0.100000)"
fill="#000000" stroke="none">
<path d="M532 593 c4 -18 -17 -61 -51 -102 -33 -42 -29 -47 11 -13 14 11 23
12 52 2 42 -13 36 -25 -28 -55 -22 -11 -34 -21 -28 -23 6 -2 34 9 62 23 l52
26 48 -20 c50 -22 173 -30 184 -12 3 4 -20 11 -51 15 -82 10 -143 27 -143 40
0 6 16 22 34 36 49 36 31 54 -45 45 l-57 -7 5 26 c5 23 2 26 -21 26 -14 0 -25
-3 -24 -7z m108 -71 c0 -9 -8 -22 -18 -29 -24 -15 -87 -2 -87 17 0 13 25 21
93 29 6 0 12 -7 12 -17z"/>
<path d="M260 582 c0 -4 7 -18 16 -30 20 -29 11 -42 -31 -42 -39 0 -65 -8 -65
-21 0 -5 10 -9 23 -9 17 0 28 -10 40 -35 20 -42 19 -43 -74 -53 -37 -4 -62
-11 -59 -17 7 -13 41 -12 197 11 123 17 166 34 87 34 -37 0 -43 10 -19 30 8 7
15 20 15 30 0 10 10 20 22 24 34 8 7 30 -37 28 -29 -1 -35 2 -35 19 0 12 -10
23 -26 29 -31 12 -54 13 -54 2z m90 -107 c0 -4 -7 -19 -15 -35 -21 -40 -46
-37 -66 5 l-16 35 48 0 c27 0 49 -2 49 -5z"/>
<path d="M570 397 c-58 -10 -62 -11 -31 -16 22 -4 35 -12 37 -23 2 -15 -6 -18
-44 -20 -26 0 -51 -2 -57 -3 -5 -2 -14 -3 -20 -4 -5 -1 0 -6 12 -11 12 -5 63
-5 120 1 54 5 115 10 136 11 24 0 36 5 34 12 -3 7 -29 10 -76 8 -66 -3 -72 -1
-69 15 2 11 14 19 31 21 15 2 25 8 22 13 -7 10 -7 10 -95 -4z"/>
<path d="M305 349 c-16 -5 -51 -10 -77 -10 -52 -2 -55 -4 -33 -33 8 -11 15
-31 15 -44 0 -33 20 -68 30 -52 6 9 12 9 29 1 28 -15 27 -41 -1 -41 -45 0
-148 -23 -148 -32 0 -11 92 -5 146 8 l25 6 -7 -61 c-5 -51 -4 -61 9 -61 11 0
16 17 22 64 l6 65 55 7 c32 4 51 10 48 16 -4 6 -26 8 -54 4 -42 -6 -48 -4 -53
13 -4 17 1 20 32 23 33 3 37 7 51 48 8 25 19 50 23 57 17 27 -56 41 -118 22z
m65 -28 c0 -26 -4 -27 -76 -35 -52 -6 -63 -4 -68 10 -9 23 -3 27 52 35 84 11
92 11 92 -10z m-6 -49 c11 -18 -12 -30 -66 -37 -49 -6 -58 -5 -58 9 0 8 10 18
23 20 12 3 31 7 42 9 35 8 54 7 59 -1z"/>
<path d="M585 295 c-38 -8 -78 -11 -88 -9 -15 5 -17 -2 -16 -54 1 -33 -1 -64
-5 -70 -11 -18 6 -42 30 -42 14 0 24 -6 24 -14 0 -17 -51 -62 -80 -71 -11 -3
-20 -11 -20 -17 0 -12 0 -12 83 32 37 19 67 38 67 43 0 6 -8 16 -17 24 -10 8
-13 12 -6 9 6 -4 37 -3 67 2 43 7 56 6 60 -5 8 -21 33 -15 40 10 3 12 6 52 6
89 0 93 -9 98 -145 73z m86 -15 c5 0 9 -6 9 -14 0 -15 -42 -24 -125 -29 -29
-1 -40 2 -43 14 -2 13 11 18 60 26 35 6 69 9 76 7 8 -2 18 -4 23 -4z m9 -64
c0 -14 -60 -26 -132 -26 -60 0 -42 24 23 31 96 10 109 10 109 -5z m-2 -61 c-1
-1 -40 -6 -85 -10 -70 -6 -83 -5 -83 8 0 20 163 39 168 19 2 -8 2 -15 0 -17z"/>
<path d="M650 100 c0 -13 81 -80 97 -80 19 0 16 24 -4 42 -24 21 -93 49 -93
38z"/>
</g>
</svg>
