<?xml version="1.0" standalone="no"?>
<!DOCTYPE svg PUBLIC "-//W3C//DTD SVG 20010904//EN"
 "http://www.w3.org/TR/2001/REC-SVG-20010904/DTD/svg10.dtd">
<svg version="1.0" xmlns="http://www.w3.org/2000/svg"
 width="90.000000pt" height="92.000000pt" viewBox="0 0 90.000000 92.000000"
 preserveAspectRatio="xMidYMid meet">
<metadata>
Created by potrace 1.16, written by Peter Selinger 2001-2019
</metadata>
<g transform="translate(0.000000,92.000000) scale(0.100000,-0.100000)"
fill="#000000" stroke="none">
<path d="M626 793 c9 -21 16 -217 8 -238 -3 -8 -28 -17 -60 -21 -52 -6 -74
-18 -60 -32 4 -3 32 -6 63 -5 l56 2 -6 -110 c-7 -120 2 -170 28 -149 12 10 15
39 15 140 0 143 -4 135 79 146 101 13 94 40 -10 38 -80 -2 -75 -12 -58 130 10
82 9 91 -7 103 -10 7 -26 13 -37 13 -15 0 -17 -4 -11 -17z"/>
<path d="M245 781 c-11 -5 -54 -14 -95 -21 -41 -7 -81 -14 -89 -16 -25 -8 4
-26 42 -27 33 -1 36 -3 42 -42 9 -67 0 -78 -57 -73 -49 5 -49 5 -43 -21 8 -30
8 -172 0 -281 -6 -82 5 -118 28 -89 9 11 38 18 108 22 95 7 96 7 107 -18 15
-32 27 -32 48 0 l17 26 19 -21 c21 -23 34 -25 44 -9 13 22 85 0 186 -56 57
-32 113 -58 126 -58 29 0 134 53 140 71 3 9 -14 12 -65 12 -94 0 -175 15 -260
47 -70 26 -71 27 -66 58 4 27 0 36 -26 56 l-31 25 35 41 c41 48 42 54 14 71
-17 11 -28 10 -65 -4 -51 -19 -57 -34 -14 -34 33 0 35 -5 20 -45 -9 -23 -6
-32 15 -57 28 -33 33 -73 9 -82 -9 -3 -31 -6 -49 -6 l-33 0 -7 87 c-4 48 -5
129 -2 179 6 82 4 93 -13 109 -14 13 -28 16 -50 11 l-31 -6 2 54 c2 53 3 55
36 61 37 7 42 19 14 35 -23 12 -29 12 -56 1z m-39 -157 c-3 -8 -10 -14 -16
-14 -15 0 -13 107 3 113 13 4 23 -73 13 -99z m82 -33 c19 -12 24 -108 5 -115
-44 -17 -53 -8 -53 52 0 71 12 87 48 63z m-78 -65 c0 -79 16 -101 68 -92 l34
5 -6 -82 c-3 -45 -6 -86 -6 -90 0 -4 -10 -3 -21 4 -20 10 -117 6 -178 -8 -23
-6 -23 -5 -19 66 3 61 7 73 27 87 29 20 60 88 61 130 0 34 6 44 27 44 9 0 13
-17 13 -64z m-70 32 c0 -34 -18 -91 -35 -113 -13 -18 -14 -14 -15 52 0 60 3
72 18 76 30 8 32 7 32 -15z"/>
<path d="M163 357 c-48 -11 -55 -22 -20 -30 24 -6 113 6 123 16 7 6 -40 28
-54 26 -4 -1 -26 -6 -49 -12z"/>
<path d="M751 703 c-8 -21 -22 -50 -33 -65 -26 -37 -15 -35 49 9 56 38 64 57
36 79 -28 21 -38 17 -52 -23z"/>
<path d="M533 638 c29 -65 57 -77 57 -24 0 30 -6 40 -32 56 -18 11 -36 20 -40
20 -4 0 3 -24 15 -52z"/>
<path d="M380 612 c0 -16 51 -82 64 -82 36 0 20 65 -19 80 -32 12 -45 13 -45
2z"/>
<path d="M710 464 c0 -18 74 -144 85 -144 31 0 26 60 -9 98 -22 25 -76 57 -76
46z"/>
<path d="M553 439 c-4 -12 -19 -46 -35 -76 -15 -29 -26 -53 -23 -53 25 0 105
91 105 119 0 6 -9 15 -21 21 -17 10 -21 8 -26 -11z"/>
</g>
</svg>
