<?xml version="1.0" standalone="no"?>
<!DOCTYPE svg PUBLIC "-//W3C//DTD SVG 20010904//EN"
 "http://www.w3.org/TR/2001/REC-SVG-20010904/DTD/svg10.dtd">
<svg version="1.0" xmlns="http://www.w3.org/2000/svg"
 width="90.000000pt" height="92.000000pt" viewBox="0 0 90.000000 92.000000"
 preserveAspectRatio="xMidYMid meet">
<metadata>
Created by potrace 1.16, written by Peter Selinger 2001-2019
</metadata>
<g transform="translate(0.000000,92.000000) scale(0.100000,-0.100000)"
fill="#000000" stroke="none">
<path d="M360 862 c0 -4 14 -27 30 -52 l30 -45 -23 -6 c-12 -3 -78 -11 -147
-19 -69 -7 -128 -14 -132 -17 -5 -2 -1 -17 7 -33 42 -82 -7 -355 -94 -529 -18
-34 -30 -65 -28 -67 3 -3 21 14 42 38 43 49 84 135 108 223 17 63 47 254 47
298 0 14 4 29 10 32 16 10 226 35 364 43 77 4 131 11 133 18 2 6 -11 19 -30
28 -29 16 -41 17 -104 7 -106 -16 -114 -15 -108 12 4 15 0 28 -12 39 -19 17
-93 41 -93 30z"/>
<path d="M556 673 c5 -10 8 -45 9 -78 0 -57 -1 -60 -25 -63 -14 -1 -36 -5 -50
-8 -24 -5 -24 -6 -6 -20 11 -8 36 -14 55 -14 l36 0 -7 -142 c-4 -79 -11 -162
-16 -186 -11 -45 -7 -76 14 -105 12 -18 13 -18 22 0 5 10 13 113 17 230 l8
212 28 5 c16 4 43 9 59 12 61 12 15 48 -48 38 l-39 -6 8 53 c8 49 7 56 -12 72
-12 9 -30 17 -41 17 -16 0 -18 -4 -12 -17z"/>
<path d="M277 664 c-3 -4 -2 -15 4 -26 5 -10 9 -42 7 -71 l-3 -52 -38 -3 c-48
-4 -44 -26 6 -30 28 -2 36 -8 39 -25 3 -23 -5 -155 -17 -272 -5 -55 -3 -74 8
-90 9 -11 19 -16 24 -12 4 5 11 97 14 205 4 108 7 198 8 198 0 1 24 4 51 8 28
4 50 11 50 17 0 15 -43 28 -74 22 l-29 -6 7 56 c7 50 5 56 -16 71 -25 18 -32
19 -41 10z"/>
<path d="M658 333 c4 -139 13 -164 62 -176 72 -17 153 35 100 63 -17 9 -29 8
-55 -4 -57 -27 -65 -23 -65 37 0 29 5 80 11 112 10 53 9 60 -7 72 -10 7 -25
13 -33 13 -14 0 -16 -16 -13 -117z"/>
<path d="M460 432 c0 -4 5 -13 10 -18 6 -6 10 -42 8 -84 l-3 -72 -38 -3 c-21
-1 -40 2 -43 7 -3 5 0 41 6 80 8 57 8 73 -2 80 -33 20 -38 9 -38 -86 0 -106
10 -126 61 -126 36 0 36 -6 2 -42 -34 -36 -12 -37 35 -2 43 34 58 70 67 165 5
64 4 79 -10 93 -17 16 -55 22 -55 8z"/>
<path d="M206 414 c13 -29 6 -121 -12 -160 -10 -20 -32 -51 -49 -70 -38 -40
-32 -43 16 -11 47 31 79 95 89 175 5 37 8 68 7 69 -1 1 -15 5 -31 9 -26 6 -28
5 -20 -12z"/>
</g>
</svg>
