<?xml version="1.0" standalone="no"?>
<!DOCTYPE svg PUBLIC "-//W3C//DTD SVG 20010904//EN"
 "http://www.w3.org/TR/2001/REC-SVG-20010904/DTD/svg10.dtd">
<svg version="1.0" xmlns="http://www.w3.org/2000/svg"
 width="96.000000pt" height="68.000000pt" viewBox="0 0 96.000000 68.000000"
 preserveAspectRatio="xMidYMid meet">
<metadata>
Created by potrace 1.16, written by Peter Selinger 2001-2019
</metadata>
<g transform="translate(0.000000,68.000000) scale(0.100000,-0.100000)"
fill="#000000" stroke="none">
<path d="M335 524 c-33 -7 -95 -13 -137 -14 -75 0 -77 -1 -60 -18 10 -10 24
-48 32 -85 8 -39 19 -67 26 -67 7 0 14 4 16 10 2 5 45 11 97 13 l94 3 13 37
c7 20 20 52 30 72 9 20 14 38 12 41 -16 16 -70 19 -123 8z m60 -26 c3 -7 -1
-33 -8 -58 l-13 -44 -79 -12 c-44 -6 -83 -10 -86 -8 -4 2 -10 21 -13 41 -4 21
-9 45 -12 54 -4 14 9 18 73 26 112 14 133 15 138 1z"/>
</g>
</svg>
