<?xml version="1.0" standalone="no"?>
<!DOCTYPE svg PUBLIC "-//W3C//DTD SVG 20010904//EN"
 "http://www.w3.org/TR/2001/REC-SVG-20010904/DTD/svg10.dtd">
<svg version="1.0" xmlns="http://www.w3.org/2000/svg"
 width="96.000000pt" height="68.000000pt" viewBox="0 0 96.000000 68.000000"
 preserveAspectRatio="xMidYMid meet">
<metadata>
Created by potrace 1.16, written by Peter Selinger 2001-2019
</metadata>
<g transform="translate(0.000000,68.000000) scale(0.100000,-0.100000)"
fill="#000000" stroke="none">
<path d="M275 225 c-22 -8 -57 -14 -78 -14 -37 -1 -38 -1 -23 -23 9 -12 16
-30 16 -40 0 -9 5 -29 10 -43 8 -20 14 -24 23 -17 6 6 38 13 69 17 32 4 55 11
52 16 -3 5 2 30 12 55 15 39 15 47 3 55 -18 11 -35 10 -84 -6z m35 -50 c0 -24
-6 -37 -19 -45 -31 -16 -61 -12 -61 8 0 9 -3 27 -6 39 -5 19 -1 22 28 26 18 2
39 5 46 5 7 1 12 -11 12 -33z"/>
</g>
</svg>
