<?xml version="1.0" standalone="no"?>
<!DOCTYPE svg PUBLIC "-//W3C//DTD SVG 20010904//EN"
 "http://www.w3.org/TR/2001/REC-SVG-20010904/DTD/svg10.dtd">
<svg version="1.0" xmlns="http://www.w3.org/2000/svg"
 width="96.000000pt" height="68.000000pt" viewBox="0 0 96.000000 68.000000"
 preserveAspectRatio="xMidYMid meet">
<metadata>
Created by potrace 1.16, written by Peter Selinger 2001-2019
</metadata>
<g transform="translate(0.000000,68.000000) scale(0.100000,-0.100000)"
fill="#000000" stroke="none">
<path d="M595 590 c-27 -5 -84 -9 -125 -9 l-75 -1 -1 -64 c-2 -94 -21 -160
-71 -256 l-45 -85 41 39 c49 48 78 106 98 201 l16 72 96 7 c145 10 191 17 191
31 0 6 9 20 20 30 19 17 19 19 2 31 -19 15 -69 16 -147 4z m90 -35 c0 -18 -11
-21 -118 -34 -82 -10 -120 -12 -128 -4 -22 22 18 41 98 48 43 3 85 8 93 10 34
7 55 0 55 -20z"/>
<path d="M150 515 c0 -3 17 -21 38 -40 44 -41 72 -42 83 -1 4 15 5 26 2 22 -3
-3 -15 1 -27 9 -19 14 -96 22 -96 10z"/>
<path d="M667 464 l-19 -25 29 7 c35 8 47 19 39 33 -11 18 -30 12 -49 -15z"/>
<path d="M570 431 c0 -51 15 -75 31 -50 5 8 9 33 9 57 0 35 -3 42 -20 42 -17
0 -20 -7 -20 -49z"/>
<path d="M480 461 c0 -12 23 -31 37 -31 24 0 13 28 -12 32 -14 3 -25 2 -25 -1z"/>
<path d="M660 411 c0 -12 40 -41 56 -41 29 0 10 34 -24 41 -17 3 -32 4 -32 0z"/>
<path d="M471 395 c-34 -12 -34 -13 -13 -24 14 -8 22 -8 22 -1 0 5 6 10 13 10
6 0 21 7 31 15 20 15 20 15 0 14 -10 -1 -34 -7 -53 -14z"/>
<path d="M195 370 c-3 -6 -26 -15 -51 -21 -24 -6 -44 -15 -44 -19 0 -14 32
-21 66 -14 l33 6 -12 -31 c-10 -26 -8 -34 10 -60 12 -16 25 -40 28 -54 6 -21
2 -25 -26 -31 -17 -3 -49 -6 -70 -6 -40 0 -48 -7 -28 -27 8 -8 39 -10 93 -6
76 5 91 2 252 -46 174 -52 210 -58 260 -42 16 5 55 17 87 26 31 8 57 19 57 24
0 5 -59 12 -131 16 -96 5 -128 10 -120 18 6 6 11 30 11 53 0 40 1 42 38 48 20
3 58 6 85 6 26 0 47 4 47 9 0 15 -45 21 -109 15 -60 -7 -61 -7 -61 18 0 23 5
27 48 33 26 4 51 9 56 12 17 11 -20 22 -55 17 -31 -5 -37 -3 -42 15 -8 32 -45
28 -49 -6 -2 -23 -8 -29 -35 -31 -29 -3 -33 -1 -30 20 1 17 -4 24 -20 26 -15
2 -23 -2 -23 -12 0 -8 -12 -29 -26 -46 -30 -35 -26 -50 8 -26 14 10 43 16 75
16 49 0 53 -2 53 -24 0 -21 -6 -24 -53 -30 -28 -3 -68 -6 -87 -6 -25 0 -31 -3
-23 -11 7 -7 40 -10 87 -7 l76 3 -1 -51 -2 -51 -51 5 c-28 2 -96 14 -151 27
l-100 22 3 35 c3 30 -2 40 -28 60 l-32 25 41 35 c23 19 41 38 41 41 0 9 -56
37 -74 37 -8 0 -18 -5 -21 -10z"/>
</g>
</svg>
