<?xml version="1.0" standalone="no"?>
<!DOCTYPE svg PUBLIC "-//W3C//DTD SVG 20010904//EN"
 "http://www.w3.org/TR/2001/REC-SVG-20010904/DTD/svg10.dtd">
<svg version="1.0" xmlns="http://www.w3.org/2000/svg"
 width="90.000000pt" height="92.000000pt" viewBox="0 0 90.000000 92.000000"
 preserveAspectRatio="xMidYMid meet">
<metadata>
Created by potrace 1.16, written by Peter Selinger 2001-2019
</metadata>
<g transform="translate(0.000000,92.000000) scale(0.100000,-0.100000)"
fill="#000000" stroke="none">
<path d="M507 893 c-4 -3 -7 -17 -7 -30 0 -27 -41 -113 -78 -160 -13 -18 -21
-33 -17 -33 15 0 85 63 102 91 16 26 22 29 71 29 60 0 142 18 142 31 0 23 -41
29 -92 14 -70 -20 -77 -19 -75 11 2 26 -32 61 -46 47z"/>
<path d="M240 831 c-11 -42 -33 -75 -94 -138 -22 -24 -35 -43 -30 -43 20 0
104 62 125 92 18 25 27 29 50 24 33 -6 129 10 143 24 6 6 -1 13 -18 20 -21 8
-41 6 -79 -5 -63 -19 -60 -19 -47 4 13 25 13 27 -6 45 -24 24 -32 20 -44 -23z"/>
<path d="M569 716 c38 -39 65 -46 75 -19 10 24 -15 44 -65 50 l-44 6 34 -37z"/>
<path d="M275 729 c15 -27 49 -59 61 -59 18 0 26 32 12 47 -7 7 -29 16 -47 19
-28 6 -33 4 -26 -7z"/>
<path d="M240 646 c0 -30 -72 -111 -170 -191 -74 -61 -84 -78 -28 -49 51 26
97 62 169 132 l66 64 71 -36 c77 -39 102 -44 102 -22 0 26 -27 43 -88 56 -50
10 -59 15 -55 31 4 13 -2 22 -22 29 -39 15 -45 13 -45 -14z"/>
<path d="M595 645 c-49 -13 -102 -24 -117 -24 -16 -1 -28 -5 -28 -10 0 -15 39
-23 76 -16 39 7 44 -7 19 -55 -13 -26 -19 -29 -46 -23 -30 6 -31 5 -19 -18 9
-16 11 -54 7 -135 -5 -88 -3 -115 8 -130 13 -16 16 -17 24 -4 6 8 13 11 17 8
10 -11 -15 -66 -54 -116 -18 -24 -32 -46 -29 -48 12 -13 147 115 147 140 0 4
-10 10 -22 15 -16 6 -6 9 43 15 57 6 65 4 78 -14 33 -49 49 -1 52 155 3 166
-2 171 -161 139 l-35 -7 29 31 c16 18 26 37 23 46 -7 19 13 26 76 27 29 0 61
4 71 8 18 7 18 8 -5 24 -29 21 -42 20 -154 -8z m95 -173 c0 -26 -3 -28 -32
-28 -18 0 -54 -4 -80 -8 l-48 -8 0 30 c0 34 9 37 113 40 45 2 47 1 47 -26z m4
-68 c13 -34 7 -44 -26 -42 -18 1 -57 -2 -85 -7 l-53 -8 0 31 c0 21 4 30 13 27
6 -3 32 -1 57 4 68 13 87 12 94 -5z m6 -81 c0 -34 -16 -42 -98 -49 l-82 -7 0
25 c0 26 7 28 168 47 6 0 12 -7 12 -16z"/>
<path d="M263 522 c-52 -22 -59 -29 -36 -36 21 -7 124 26 124 40 -1 15 -44 13
-88 -4z"/>
<path d="M395 480 c-3 -5 -23 -10 -43 -10 -28 0 -33 -3 -24 -12 7 -7 12 -23
12 -37 0 -15 4 -31 8 -37 8 -13 94 -6 86 7 -3 5 0 25 5 46 8 28 7 39 -2 45
-17 11 -35 10 -42 -2z m15 -44 c0 -27 -29 -44 -42 -24 -11 19 -10 36 5 41 26
11 37 6 37 -17z"/>
<path d="M267 449 c-10 -6 -29 -8 -43 -5 -23 6 -34 -7 -15 -18 5 -4 12 -25 16
-47 5 -30 10 -38 18 -30 6 6 23 11 38 11 23 0 27 5 32 42 7 53 -8 69 -46 47z
m13 -44 c0 -18 -5 -25 -20 -25 -20 0 -28 28 -13 43 15 16 33 6 33 -18z"/>
<path d="M130 424 c-14 -7 -33 -14 -43 -14 -13 0 -15 -4 -7 -17 5 -10 14 -30
19 -44 9 -25 11 -26 49 -16 30 8 38 15 35 28 -3 9 0 26 6 38 9 17 8 22 -8 31
-23 12 -19 12 -51 -6z m20 -39 c0 -18 -5 -25 -20 -25 -35 0 -24 45 13 49 4 1
7 -10 7 -24z"/>
<path d="M388 344 c-8 -8 -216 -44 -255 -44 -36 0 -38 -2 -22 -31 6 -11 11
-49 11 -83 0 -71 11 -101 28 -76 5 8 10 32 10 53 0 33 3 37 25 37 21 0 25 -5
25 -29 0 -17 5 -33 10 -36 6 -3 10 5 10 19 0 40 11 56 36 56 22 0 24 -4 24
-44 0 -25 4 -47 9 -50 11 -7 21 27 21 70 0 27 4 32 31 38 49 10 50 9 47 -36
-3 -42 -4 -43 -37 -40 -32 4 -33 3 -18 -13 10 -9 22 -25 27 -36 13 -23 33 -25
50 -5 6 8 18 59 25 113 l13 98 -25 23 c-25 22 -35 26 -45 16z m12 -63 c0 -27
-2 -28 -40 -27 -37 1 -40 3 -40 28 0 26 3 28 40 28 37 0 40 -2 40 -29z m-110
-11 c0 -25 -4 -30 -25 -30 -21 0 -25 5 -25 30 0 25 4 30 25 30 21 0 25 -5 25
-30z m-80 -10 c0 -27 -3 -30 -30 -30 -23 0 -30 5 -30 19 0 16 15 27 58 40 1 1
2 -12 2 -29z"/>
<path d="M651 203 c1 -13 95 -128 104 -128 4 0 13 8 19 18 17 26 -11 66 -64
93 -48 25 -60 28 -59 17z"/>
</g>
</svg>
