<?xml version="1.0" standalone="no"?>
<!DOCTYPE svg PUBLIC "-//W3C//DTD SVG 20010904//EN"
 "http://www.w3.org/TR/2001/REC-SVG-20010904/DTD/svg10.dtd">
<svg version="1.0" xmlns="http://www.w3.org/2000/svg"
 width="90.000000pt" height="92.000000pt" viewBox="0 0 90.000000 92.000000"
 preserveAspectRatio="xMidYMid meet">
<metadata>
Created by potrace 1.16, written by Peter Selinger 2001-2019
</metadata>
<g transform="translate(0.000000,92.000000) scale(0.100000,-0.100000)"
fill="#000000" stroke="none">
<path d="M115 808 c15 -43 17 -349 4 -482 -18 -183 -17 -232 3 -252 15 -15 17
-15 26 2 6 11 13 135 17 278 l8 259 33 -39 c27 -32 34 -36 39 -22 11 29 1 52
-30 68 -17 8 -32 16 -34 17 -5 3 -4 46 3 107 7 54 7 55 -23 70 -42 22 -55 21
-46 -6z"/>
<path d="M360 794 c0 -25 -50 -137 -71 -158 -5 -6 -9 -15 -9 -20 0 -6 17 6 38
26 33 32 112 62 112 42 0 -4 -16 -36 -35 -71 -38 -66 -44 -70 -119 -64 -24 2
-28 0 -22 -16 22 -55 -3 -291 -39 -377 -6 -14 -5 -17 3 -12 17 10 48 72 61
122 l11 41 73 7 c39 4 81 10 93 12 19 5 20 2 16 -63 -2 -37 -7 -72 -11 -76 -4
-4 -20 -3 -34 2 -37 14 -34 2 12 -43 l39 -38 19 28 c16 25 18 46 15 194 -2 95
1 176 7 192 8 21 6 29 -10 44 -17 15 -26 16 -67 6 -26 -5 -48 -9 -50 -8 -1 2
25 35 59 75 33 40 59 74 57 75 -24 20 -44 22 -79 8 -47 -18 -57 -11 -35 22 21
33 20 53 -3 66 -28 15 -31 13 -31 -16z m108 -292 c3 -42 3 -42 -27 -40 -26 2
-30 6 -33 40 -4 39 3 48 37 45 16 -2 21 -10 23 -45z m-100 -15 c3 -36 3 -37
-32 -37 -33 0 -36 2 -36 30 0 17 7 33 18 39 30 19 47 8 50 -32z m-17 -67 c15
0 19 -7 19 -34 0 -36 -12 -46 -57 -46 -19 0 -24 4 -19 16 3 9 6 29 6 46 0 23
4 29 16 24 9 -3 24 -6 35 -6z m119 -9 c0 -11 3 -26 6 -35 5 -13 -2 -16 -36
-16 -34 0 -41 3 -36 16 3 9 6 24 6 35 0 14 7 19 30 19 23 0 30 -5 30 -19z"/>
<path d="M680 779 c-36 -10 -82 -18 -103 -18 -50 -1 -45 -25 6 -29 20 -2 37
-5 37 -8 0 -15 -33 -79 -57 -110 l-28 -37 32 17 c31 16 69 58 92 104 9 17 9
27 1 37 -9 10 -3 15 31 20 47 8 62 -4 52 -45 -13 -57 -27 -75 -60 -74 l-32 2
22 -34 c12 -19 30 -34 40 -34 22 0 53 50 62 99 3 20 11 49 17 65 10 26 9 31
-11 47 -13 11 -26 18 -30 18 -3 -1 -35 -10 -71 -20z"/>
<path d="M31 540 c-26 -72 -25 -115 3 -115 28 0 49 85 35 138 -5 20 -11 37
-13 37 -2 0 -13 -27 -25 -60z"/>
<path d="M667 510 c5 -46 4 -50 -15 -50 -11 0 -29 -3 -39 -7 -17 -7 -17 -6 0
20 23 35 22 42 -7 55 -23 10 -25 9 -31 -21 -4 -18 -17 -51 -30 -74 -26 -47
-22 -52 15 -26 13 9 44 18 67 20 43 2 43 2 43 -31 0 -38 -5 -41 -83 -51 -32
-4 -57 -11 -57 -16 0 -14 48 -22 95 -15 l45 7 0 -135 c0 -74 4 -137 9 -141 17
-10 31 68 31 176 l0 107 81 7 c79 7 80 7 62 27 -15 17 -26 19 -75 14 l-58 -7
0 34 c0 31 3 35 33 41 17 3 39 11 47 16 24 16 -8 31 -49 23 -32 -5 -34 -5 -27
20 5 20 1 29 -16 41 -39 28 -48 21 -41 -34z"/>
</g>
</svg>
