<?xml version="1.0" standalone="no"?>
<!DOCTYPE svg PUBLIC "-//W3C//DTD SVG 20010904//EN"
 "http://www.w3.org/TR/2001/REC-SVG-20010904/DTD/svg10.dtd">
<svg version="1.0" xmlns="http://www.w3.org/2000/svg"
 width="96.000000pt" height="68.000000pt" viewBox="0 0 96.000000 68.000000"
 preserveAspectRatio="xMidYMid meet">
<metadata>
Created by potrace 1.16, written by Peter Selinger 2001-2019
</metadata>
<g transform="translate(0.000000,68.000000) scale(0.100000,-0.100000)"
fill="#000000" stroke="none">
<path d="M581 530 c-18 -27 -40 -50 -49 -50 -15 0 -17 -14 -17 -114 0 -117 5
-137 27 -118 7 6 41 14 76 18 55 6 65 4 76 -12 11 -15 17 -16 29 -6 11 10 15
39 16 126 2 133 3 132 -102 122 -59 -6 -61 -6 -40 10 38 28 66 54 62 58 -2 2
-13 6 -25 10 -17 5 -27 -3 -53 -44z m109 -74 c0 -26 -3 -27 -98 -41 -43 -7
-43 -7 -39 22 4 29 26 39 105 42 28 1 32 -2 32 -23z m3 -65 c4 -16 -3 -20 -37
-25 -22 -4 -56 -9 -73 -12 -30 -6 -33 -4 -33 19 0 24 3 26 58 30 31 2 62 4 68
5 7 1 14 -7 17 -17z m-3 -71 c0 -29 -1 -30 -47 -30 -27 0 -58 -3 -70 -6 -20
-6 -23 -3 -23 24 0 31 0 31 63 35 34 2 65 4 70 5 4 1 7 -11 7 -28z"/>
<path d="M320 539 c-108 -17 -120 -20 -115 -30 4 -5 31 -9 61 -9 l54 0 0 -34
0 -34 -82 -8 c-47 -5 -82 -13 -80 -19 3 -12 72 -12 125 -1 33 7 37 6 37 -12 0
-44 -10 -52 -62 -52 -39 0 -48 -3 -41 -12 6 -7 16 -31 23 -53 15 -48 28 -65
38 -48 4 7 35 13 69 14 34 1 66 5 70 8 16 12 53 94 46 103 -3 6 -28 8 -59 5
-51 -5 -54 -4 -54 16 0 36 12 45 73 52 78 10 75 29 -4 22 -51 -4 -60 -3 -55
10 3 8 6 23 6 34 0 15 7 19 34 19 50 0 69 9 55 26 -13 15 -55 16 -139 3z m80
-233 c0 -37 -15 -46 -82 -46 -32 0 -39 4 -44 24 -8 34 -1 41 42 44 21 2 40 5
43 7 2 3 13 5 23 5 14 0 18 -8 18 -34z"/>
<path d="M467 223 c-8 -12 41 -73 58 -73 8 0 17 4 20 10 9 15 -14 50 -33 50
-10 0 -23 5 -29 11 -6 6 -13 7 -16 2z"/>
<path d="M684 206 c10 -8 34 -29 53 -46 35 -33 67 -34 61 -3 -4 21 -51 49 -98
57 -32 6 -34 6 -16 -8z"/>
<path d="M320 190 c0 -15 44 -82 67 -102 36 -33 101 -48 202 -47 92 0 162 15
168 35 1 5 -24 24 -57 41 -38 21 -60 28 -60 20 0 -7 6 -19 12 -25 24 -24 -13
-33 -114 -29 -87 3 -101 7 -133 31 -19 15 -42 40 -50 57 -15 28 -35 39 -35 19z"/>
<path d="M206 132 c-29 -42 -27 -72 6 -72 23 0 52 61 43 91 -9 28 -19 24 -49
-19z"/>
</g>
</svg>
