<?xml version="1.0" standalone="no"?>
<!DOCTYPE svg PUBLIC "-//W3C//DTD SVG 20010904//EN"
 "http://www.w3.org/TR/2001/REC-SVG-20010904/DTD/svg10.dtd">
<svg version="1.0" xmlns="http://www.w3.org/2000/svg"
 width="96.000000pt" height="68.000000pt" viewBox="0 0 96.000000 68.000000"
 preserveAspectRatio="xMidYMid meet">
<metadata>
Created by potrace 1.16, written by Peter Selinger 2001-2019
</metadata>
<g transform="translate(0.000000,68.000000) scale(0.100000,-0.100000)"
fill="#000000" stroke="none">
<path d="M265 583 c4 -10 10 -50 12 -89 l5 -72 -72 -8 c-46 -6 -75 -14 -78
-22 -3 -11 10 -13 62 -10 36 1 66 2 66 0 0 -1 -11 -25 -25 -51 -26 -52 -26
-52 -95 -124 -40 -43 -42 -47 -21 -47 15 0 46 23 91 68 l69 68 -7 -70 c-12
-123 -9 -167 11 -180 28 -18 37 8 37 110 0 50 3 106 7 124 l6 33 21 -25 c30
-37 60 -40 64 -7 2 21 -3 29 -31 43 -19 9 -40 16 -46 16 -6 0 -11 11 -11 24 0
25 6 29 68 41 48 10 34 30 -22 30 l-47 0 6 45 c3 25 8 55 11 67 5 26 -28 53
-64 53 -19 0 -23 -4 -17 -17z"/>
<path d="M570 592 c0 -6 3 -13 8 -15 4 -3 6 -39 4 -80 l-4 -76 -36 -5 c-20 -3
-59 -8 -87 -12 -44 -6 -47 -8 -25 -16 14 -5 53 -7 88 -3 l62 7 0 -46 0 -46
-37 -1 c-21 0 -47 -4 -58 -8 -37 -15 35 -22 110 -11 39 5 96 10 128 10 31 0
57 4 57 9 0 17 -38 23 -95 16 l-55 -7 0 46 c0 25 3 46 8 47 4 0 46 4 95 8 91
8 111 15 87 32 -14 9 -70 6 -148 -8 l-33 -5 2 76 c1 42 0 79 -3 81 -11 11 -68
17 -68 7z"/>
<path d="M620 223 c-47 -7 -104 -11 -128 -8 -42 5 -42 4 -28 -18 7 -12 20 -46
27 -75 12 -49 15 -52 38 -48 15 3 72 8 129 12 91 5 102 8 97 23 -3 10 6 34 20
55 31 46 31 50 0 64 -31 14 -43 14 -155 -5z m100 -35 c0 -46 -12 -67 -39 -72
-25 -5 -123 -10 -147 -7 -14 1 -24 70 -12 77 9 6 118 21 166 23 27 1 32 -2 32
-21z"/>
</g>
</svg>
