<?xml version="1.0" standalone="no"?>
<!DOCTYPE svg PUBLIC "-//W3C//DTD SVG 20010904//EN"
 "http://www.w3.org/TR/2001/REC-SVG-20010904/DTD/svg10.dtd">
<svg version="1.0" xmlns="http://www.w3.org/2000/svg"
 width="96.000000pt" height="68.000000pt" viewBox="0 0 96.000000 68.000000"
 preserveAspectRatio="xMidYMid meet">
<metadata>
Created by potrace 1.16, written by Peter Selinger 2001-2019
</metadata>
<g transform="translate(0.000000,68.000000) scale(0.100000,-0.100000)"
fill="#000000" stroke="none">
<path d="M729 378 c1 -114 0 -220 -3 -234 -6 -24 -10 -25 -43 -19 l-35 6 46
-47 c44 -44 48 -46 64 -30 14 14 18 48 23 224 3 117 11 219 18 235 16 40 14
43 -16 55 -63 23 -58 39 -54 -190z"/>
<path d="M428 517 c-76 -9 -107 -27 -49 -27 58 0 51 -30 -31 -137 -26 -35 -48
-65 -48 -68 0 -4 13 3 28 14 l29 20 42 -44 43 -45 -32 -39 c-17 -22 -45 -52
-62 -66 -17 -14 -28 -28 -25 -31 7 -8 85 46 119 83 27 29 138 199 138 212 0
18 -49 30 -85 20 -59 -16 -72 -9 -41 24 27 30 33 47 15 47 -5 0 -7 5 -4 10 3
6 23 10 43 10 48 0 83 10 76 21 -6 11 -52 10 -156 -4z m82 -140 c0 -16 -48
-117 -55 -117 -3 0 -10 11 -15 24 -5 15 -20 27 -39 31 -17 4 -31 10 -31 14 0
18 48 50 80 54 19 2 41 5 48 5 6 1 12 -4 12 -11z"/>
<path d="M170 511 c0 -16 74 -81 92 -81 10 0 19 3 19 8 8 45 5 51 -33 66 -43
18 -78 21 -78 7z"/>
<path d="M621 344 c3 -86 10 -116 26 -100 9 8 31 169 25 184 -2 6 -15 12 -29
12 -24 0 -24 0 -22 -96z"/>
<path d="M242 308 c-17 -24 -49 -61 -72 -82 -39 -35 -41 -39 -30 -66 15 -37
37 -45 46 -17 3 12 26 62 50 111 25 49 43 91 40 93 -2 2 -18 -15 -34 -39z"/>
</g>
</svg>
