<?xml version="1.0" standalone="no"?>
<!DOCTYPE svg PUBLIC "-//W3C//DTD SVG 20010904//EN"
 "http://www.w3.org/TR/2001/REC-SVG-20010904/DTD/svg10.dtd">
<svg version="1.0" xmlns="http://www.w3.org/2000/svg"
 width="90.000000pt" height="92.000000pt" viewBox="0 0 90.000000 92.000000"
 preserveAspectRatio="xMidYMid meet">
<metadata>
Created by potrace 1.16, written by Peter Selinger 2001-2019
</metadata>
<g transform="translate(0.000000,92.000000) scale(0.100000,-0.100000)"
fill="#000000" stroke="none">
<path d="M239 818 c5 -13 12 -67 16 -120 l7 -98 -31 0 -31 0 0 64 c0 66 -6 76
-51 76 -15 0 -17 -4 -10 -22 4 -13 11 -46 15 -75 7 -58 13 -54 -101 -68 -34
-5 -53 -12 -53 -20 0 -20 50 -27 101 -16 24 6 47 11 51 11 10 0 -9 -58 -27
-87 -23 -35 -13 -38 24 -7 27 22 34 24 47 13 28 -23 54 -20 80 8 l24 26 25
-23 c23 -21 25 -22 31 -5 5 12 0 23 -16 35 -13 10 -20 22 -16 29 4 7 3 18 -4
26 -9 11 1 15 59 21 39 3 71 11 71 16 0 17 -46 26 -91 17 -24 -4 -47 -8 -51
-9 -5 0 -8 20 -8 44 l0 43 56 6 c67 7 89 22 53 35 -16 6 -37 5 -63 -4 -21 -8
-41 -14 -43 -14 -3 0 -2 23 2 51 8 57 0 69 -47 69 -24 0 -27 -3 -19 -22z m41
-260 c0 -7 -10 -33 -21 -58 -20 -42 -22 -43 -30 -22 -4 12 -16 22 -25 22 -13
0 -14 3 -5 14 9 10 7 17 -5 27 -16 13 -14 15 12 20 49 11 74 10 74 -3z"/>
<path d="M680 728 c-53 -23 -150 -36 -180 -25 -37 14 -46 5 -26 -25 8 -12 20
-54 27 -93 6 -38 16 -79 21 -89 10 -17 11 -18 20 -3 5 10 20 17 33 17 24 0 25
-3 26 -72 1 -40 3 -94 5 -120 l3 -48 -38 26 c-37 24 -38 26 -28 59 8 26 7 38
-3 50 -15 19 -54 21 -47 2 10 -26 -15 -122 -49 -189 -27 -54 -31 -67 -17 -59
26 13 48 40 72 89 12 23 24 42 27 42 3 0 42 -35 87 -78 120 -115 125 -117 198
-102 33 7 62 16 64 21 3 4 -25 17 -62 29 -38 13 -89 34 -115 49 l-48 26 0 73
0 72 53 0 c59 0 97 8 97 21 0 16 -52 22 -96 12 l-44 -10 0 57 c0 63 6 70 61
70 29 0 38 13 18 26 -13 8 -5 44 23 102 17 37 19 46 7 57 -20 20 -60 26 -89
13z m16 -95 c-4 -32 -10 -61 -14 -65 -9 -8 -124 -30 -130 -24 -2 3 -6 31 -9
63 l-5 59 58 11 c112 19 108 21 100 -44z"/>
<path d="M389 429 c4 -127 -4 -178 -32 -183 -39 -8 -261 -35 -263 -33 -1 1 -4
54 -7 117 -4 111 -5 116 -30 130 -35 19 -42 9 -26 -37 8 -23 14 -82 14 -150 0
-133 6 -143 63 -114 29 15 232 61 269 61 2 0 3 -9 3 -20 0 -25 27 -27 34 -2 3
9 12 80 21 157 14 131 14 141 -2 153 -9 6 -24 12 -32 12 -14 0 -15 -14 -12
-91z"/>
<path d="M215 423 c-109 -21 -111 -21 -97 -35 9 -9 39 -7 124 7 125 20 136 24
117 36 -18 11 -47 10 -144 -8z"/>
<path d="M275 348 c-4 -18 -14 -42 -21 -53 -24 -34 -15 -40 16 -10 l30 29 25
-24 c23 -21 25 -22 31 -5 5 12 1 23 -12 32 -10 8 -18 21 -16 30 4 16 -14 33
-35 33 -6 0 -15 -15 -18 -32z"/>
<path d="M154 343 c-3 -10 -13 -34 -22 -53 -9 -19 -18 -39 -21 -45 -2 -5 12 3
33 19 34 26 39 27 55 12 23 -21 31 -20 31 3 0 11 -9 23 -21 26 -14 5 -17 10
-10 19 7 9 7 16 -1 24 -17 17 -38 15 -44 -5z"/>
</g>
</svg>
