<?xml version="1.0" standalone="no"?>
<!DOCTYPE svg PUBLIC "-//W3C//DTD SVG 20010904//EN"
 "http://www.w3.org/TR/2001/REC-SVG-20010904/DTD/svg10.dtd">
<svg version="1.0" xmlns="http://www.w3.org/2000/svg"
 width="96.000000pt" height="68.000000pt" viewBox="0 0 96.000000 68.000000"
 preserveAspectRatio="xMidYMid meet">
<metadata>
Created by potrace 1.16, written by Peter Selinger 2001-2019
</metadata>
<g transform="translate(0.000000,68.000000) scale(0.100000,-0.100000)"
fill="#000000" stroke="none">
<path d="M283 548 c-15 -56 -77 -151 -141 -216 -28 -29 -47 -52 -41 -52 13 0
91 53 108 74 22 26 60 20 72 -11 11 -30 0 -42 -41 -44 -14 0 -34 -4 -45 -9
-14 -6 -4 -9 38 -9 l57 -1 0 -64 c0 -73 -4 -76 -97 -76 -58 0 -66 -11 -29 -35
23 -15 32 -14 155 25 72 23 131 45 131 47 0 7 -79 -3 -103 -13 -15 -5 -17 2
-17 60 l0 66 40 6 c49 8 53 24 6 24 -30 0 -34 4 -38 29 -4 27 -1 30 29 36 18
3 33 10 33 15 0 13 -43 12 -99 -1 -24 -5 -45 -8 -47 -6 -3 3 60 102 77 121 5
6 21 -1 38 -18 18 -17 36 -26 45 -23 27 11 18 28 -24 45 -22 9 -40 23 -40 31
0 15 -28 40 -45 41 -6 0 -16 -19 -22 -42z"/>
<path d="M380 233 c-8 -15 -16 -32 -18 -36 -2 -5 12 2 32 15 36 23 42 41 14
46 -8 1 -21 -10 -28 -25z"/>
<path d="M196 218 c15 -27 38 -48 51 -48 18 0 17 25 -3 44 -19 19 -59 22 -48
4z"/>
</g>
</svg>
