<?xml version="1.0" standalone="no"?>
<!DOCTYPE svg PUBLIC "-//W3C//DTD SVG 20010904//EN"
 "http://www.w3.org/TR/2001/REC-SVG-20010904/DTD/svg10.dtd">
<svg version="1.0" xmlns="http://www.w3.org/2000/svg"
 width="96.000000pt" height="68.000000pt" viewBox="0 0 96.000000 68.000000"
 preserveAspectRatio="xMidYMid meet">
<metadata>
Created by potrace 1.16, written by Peter Selinger 2001-2019
</metadata>
<g transform="translate(0.000000,68.000000) scale(0.100000,-0.100000)"
fill="#000000" stroke="none">
<path d="M381 312 c-13 -32 -59 -83 -116 -130 -34 -28 -36 -32 -13 -23 16 6
40 18 54 28 l27 17 -5 -77 c-4 -55 -1 -82 8 -95 12 -15 15 -15 24 -2 14 21 13
153 -2 168 -9 9 -3 22 30 55 47 48 51 62 23 76 -16 9 -21 6 -30 -17z"/>
</g>
</svg>
