<?xml version="1.0" standalone="no"?>
<!DOCTYPE svg PUBLIC "-//W3C//DTD SVG 20010904//EN"
 "http://www.w3.org/TR/2001/REC-SVG-20010904/DTD/svg10.dtd">
<svg version="1.0" xmlns="http://www.w3.org/2000/svg"
 width="96.000000pt" height="68.000000pt" viewBox="0 0 96.000000 68.000000"
 preserveAspectRatio="xMidYMid meet">
<metadata>
Created by potrace 1.16, written by Peter Selinger 2001-2019
</metadata>
<g transform="translate(0.000000,68.000000) scale(0.100000,-0.100000)"
fill="#000000" stroke="none">
<path d="M471 208 c-5 -13 -25 -45 -46 -72 -37 -49 -34 -51 23 -9 l33 24 107
-62 c98 -58 112 -63 167 -63 33 -1 69 3 80 8 16 7 0 13 -71 27 -85 16 -258 80
-270 100 -3 5 2 16 11 25 19 19 15 38 -8 42 -10 2 -20 -6 -26 -20z"/>
</g>
</svg>
