<?xml version="1.0" standalone="no"?>
<!DOCTYPE svg PUBLIC "-//W3C//DTD SVG 20010904//EN"
 "http://www.w3.org/TR/2001/REC-SVG-20010904/DTD/svg10.dtd">
<svg version="1.0" xmlns="http://www.w3.org/2000/svg"
 width="96.000000pt" height="68.000000pt" viewBox="0 0 96.000000 68.000000"
 preserveAspectRatio="xMidYMid meet">
<metadata>
Created by potrace 1.16, written by Peter Selinger 2001-2019
</metadata>
<g transform="translate(0.000000,68.000000) scale(0.100000,-0.100000)"
fill="#000000" stroke="none">
<path d="M500 300 c-25 -26 -51 -49 -59 -51 -9 -3 -11 -12 -7 -26 7 -20 7 -20
126 9 110 28 120 29 135 14 20 -20 45 -21 45 -2 0 22 -32 53 -67 64 -36 12
-41 7 -18 -19 15 -15 13 -17 -17 -22 -18 -4 -58 -9 -88 -12 -60 -7 -60 -7 9
44 16 12 22 24 18 35 -10 25 -28 17 -77 -34z"/>
</g>
</svg>
