<?xml version="1.0" standalone="no"?>
<!DOCTYPE svg PUBLIC "-//W3C//DTD SVG 20010904//EN"
 "http://www.w3.org/TR/2001/REC-SVG-20010904/DTD/svg10.dtd">
<svg version="1.0" xmlns="http://www.w3.org/2000/svg"
 width="96.000000pt" height="68.000000pt" viewBox="0 0 96.000000 68.000000"
 preserveAspectRatio="xMidYMid meet">
<metadata>
Created by potrace 1.16, written by Peter Selinger 2001-2019
</metadata>
<g transform="translate(0.000000,68.000000) scale(0.100000,-0.100000)"
fill="#000000" stroke="none">
<path d="M295 280 c-11 -5 -37 -9 -57 -9 -20 -1 -39 -5 -42 -10 -3 -4 4 -36
15 -70 17 -49 24 -59 34 -51 8 6 38 14 68 17 40 4 54 9 50 19 -2 7 4 33 15 58
17 38 18 45 5 50 -21 8 -64 6 -88 -4z m35 -42 c0 -45 -9 -55 -49 -60 -33 -3
-35 -1 -42 32 -4 19 -6 37 -3 39 3 3 52 15 87 20 4 0 7 -14 7 -31z"/>
</g>
</svg>
