<?xml version="1.0" standalone="no"?>
<!DOCTYPE svg PUBLIC "-//W3C//DTD SVG 20010904//EN"
 "http://www.w3.org/TR/2001/REC-SVG-20010904/DTD/svg10.dtd">
<svg version="1.0" xmlns="http://www.w3.org/2000/svg"
 width="90.000000pt" height="92.000000pt" viewBox="0 0 90.000000 92.000000"
 preserveAspectRatio="xMidYMid meet">
<metadata>
Created by potrace 1.16, written by Peter Selinger 2001-2019
</metadata>
<g transform="translate(0.000000,92.000000) scale(0.100000,-0.100000)"
fill="#000000" stroke="none">
<path d="M455 855 c-38 -7 -96 -16 -128 -20 -49 -5 -56 -9 -46 -21 7 -9 31
-14 65 -14 49 0 54 -2 60 -25 4 -14 4 -28 1 -31 -2 -3 -53 -8 -112 -11 -95 -5
-109 -4 -121 11 -11 16 -16 10 -45 -48 -31 -62 -32 -67 -16 -83 20 -21 41 -6
58 42 11 31 15 33 73 38 34 4 85 10 115 13 l54 7 -7 -80 c-5 -64 -3 -83 8 -92
23 -19 36 17 36 102 l0 75 83 7 c45 4 101 5 125 3 l42 -3 -24 -36 -24 -35 70
17 c38 10 73 20 76 24 4 4 -10 23 -32 42 l-38 36 -72 -7 c-39 -4 -101 -11
-138 -15 l-66 -7 1 32 c2 32 3 32 62 39 69 7 95 19 80 34 -18 18 -67 20 -140
6z"/>
<path d="M521 664 c-37 -37 -33 -40 37 -23 59 15 59 15 37 39 -24 27 -34 25
-74 -16z"/>
<path d="M252 662 c-8 -6 -1 -13 23 -25 62 -30 101 -17 53 17 -24 17 -56 20
-76 8z"/>
<path d="M490 595 c0 -10 103 -54 112 -49 15 9 8 33 -11 44 -20 10 -101 14
-101 5z"/>
<path d="M268 583 c-27 -2 -48 -8 -48 -12 0 -4 10 -17 23 -29 l23 -22 42 31
c46 34 50 40 25 37 -10 -1 -39 -3 -65 -5z"/>
<path d="M525 510 c-16 -11 -63 -32 -104 -47 -41 -15 -69 -29 -63 -31 9 -3
209 40 252 54 12 4 10 9 -9 25 -29 24 -39 24 -76 -1z"/>
<path d="M180 483 c0 -5 15 -27 33 -48 23 -27 39 -37 50 -32 24 9 21 44 -5 61
-30 19 -78 31 -78 19z"/>
<path d="M660 470 c0 -5 -17 -29 -37 -51 -42 -46 -36 -47 53 -8 49 22 52 29
26 52 -21 19 -42 22 -42 7z"/>
<path d="M460 423 c0 -18 48 -66 58 -59 19 11 14 33 -10 50 -24 17 -48 21 -48
9z"/>
<path d="M340 400 c0 -20 40 -70 56 -70 17 0 19 44 2 58 -22 17 -58 24 -58 12z"/>
<path d="M115 369 c4 -8 19 -29 32 -47 29 -38 66 -41 71 -5 4 25 -26 47 -77
58 -27 6 -32 4 -26 -6z"/>
<path d="M555 335 c-22 -13 -70 -31 -107 -41 -38 -9 -68 -18 -68 -21 0 -3 26
-3 58 -1 l57 3 3 -31 3 -32 -70 -7 c-39 -4 -74 -11 -77 -16 -10 -16 42 -28 82
-18 62 14 66 12 62 -23 l-3 -33 -102 -9 c-57 -5 -103 -12 -103 -17 0 -5 13
-15 30 -24 24 -12 38 -13 72 -5 24 6 125 14 226 17 142 5 182 9 182 19 0 7
-13 20 -30 29 -25 13 -44 14 -126 4 -53 -5 -98 -8 -101 -5 -3 2 -2 18 2 34 6
30 7 30 91 37 85 7 96 13 69 35 -11 9 -35 11 -84 6 l-68 -7 1 30 c1 28 5 31
54 42 28 7 52 15 52 19 0 12 -36 40 -51 39 -8 0 -32 -11 -54 -24z"/>
<path d="M217 233 c-25 -32 -61 -75 -81 -97 -38 -41 -37 -54 6 -77 16 -9 25 3
74 107 30 64 54 118 51 120 -2 2 -24 -22 -50 -53z"/>
</g>
</svg>
