<?xml version="1.0" standalone="no"?>
<!DOCTYPE svg PUBLIC "-//W3C//DTD SVG 20010904//EN"
 "http://www.w3.org/TR/2001/REC-SVG-20010904/DTD/svg10.dtd">
<svg version="1.0" xmlns="http://www.w3.org/2000/svg"
 width="96.000000pt" height="68.000000pt" viewBox="0 0 96.000000 68.000000"
 preserveAspectRatio="xMidYMid meet">
<metadata>
Created by potrace 1.16, written by Peter Selinger 2001-2019
</metadata>
<g transform="translate(0.000000,68.000000) scale(0.100000,-0.100000)"
fill="#000000" stroke="none">
<path d="M310 544 c-19 -13 -61 -34 -92 -47 -68 -26 -76 -42 -15 -31 74 12 72
13 72 -36 l0 -45 -77 -11 c-43 -5 -81 -13 -84 -17 -14 -14 32 -20 88 -11 86
15 79 -6 -46 -128 -32 -32 -55 -58 -51 -58 16 0 82 45 122 83 24 23 45 38 48
36 3 -3 0 -42 -5 -86 -10 -79 -3 -133 18 -133 21 0 29 50 24 148 -5 114 0 123
49 76 15 -14 32 -23 39 -19 22 14 4 38 -40 54 -49 18 -60 44 -20 49 14 1 40 5
59 8 51 8 23 27 -34 22 l-47 -3 5 47 c4 32 2 48 -6 51 -7 2 6 7 28 11 22 4 48
12 59 18 19 10 19 11 -3 29 -30 25 -49 23 -91 -7z"/>
<path d="M620 488 c-14 -5 -55 -10 -93 -11 -64 0 -67 -1 -60 -21 7 -18 5 -297
-1 -304 -2 -1 -26 -3 -54 -3 -29 -1 -52 -6 -52 -11 0 -18 47 -25 115 -17 39 4
138 10 220 13 173 5 155 4 155 15 0 17 -67 32 -106 25 -35 -6 -37 -6 -31 17 3
13 9 72 13 132 4 59 11 110 15 113 16 10 9 43 -10 54 -25 13 -78 12 -111 -2z
m51 -30 c1 -16 -2 -82 -4 -84 -1 -1 -35 -5 -76 -9 l-74 -7 8 38 c9 50 19 62
58 67 66 8 87 7 88 -5z m-1 -137 l0 -39 -75 -7 c-42 -4 -78 -5 -81 -3 -2 3 -1
18 2 35 5 28 9 30 55 32 26 1 58 5 71 11 13 5 24 9 26 9 1 1 2 -17 2 -38z m0
-111 c0 -21 -4 -41 -8 -44 -4 -2 -39 -6 -77 -7 l-70 -3 0 45 0 44 70 5 c39 3
73 4 78 2 4 -2 7 -21 7 -42z"/>
</g>
</svg>
