<?xml version="1.0" standalone="no"?>
<!DOCTYPE svg PUBLIC "-//W3C//DTD SVG 20010904//EN"
 "http://www.w3.org/TR/2001/REC-SVG-20010904/DTD/svg10.dtd">
<svg version="1.0" xmlns="http://www.w3.org/2000/svg"
 width="96.000000pt" height="68.000000pt" viewBox="0 0 96.000000 68.000000"
 preserveAspectRatio="xMidYMid meet">
<metadata>
Created by potrace 1.16, written by Peter Selinger 2001-2019
</metadata>
<g transform="translate(0.000000,68.000000) scale(0.100000,-0.100000)"
fill="#000000" stroke="none">
<path d="M555 582 c-66 -9 -122 -17 -124 -18 -2 -2 1 -9 6 -16 6 -7 14 -29 18
-48 11 -52 24 -73 38 -61 7 5 46 12 87 16 107 9 145 16 132 24 -12 7 23 71 39
71 5 0 9 5 9 11 0 10 -62 40 -77 38 -4 -1 -62 -9 -128 -17z m112 -48 c-3 -20
-8 -38 -10 -41 -7 -6 -151 -21 -159 -16 -5 2 -8 19 -8 38 0 31 3 35 33 39 69
12 83 13 116 15 33 1 34 1 28 -35z"/>
</g>
</svg>
