<?xml version="1.0" standalone="no"?>
<!DOCTYPE svg PUBLIC "-//W3C//DTD SVG 20010904//EN"
 "http://www.w3.org/TR/2001/REC-SVG-20010904/DTD/svg10.dtd">
<svg version="1.0" xmlns="http://www.w3.org/2000/svg"
 width="96.000000pt" height="68.000000pt" viewBox="0 0 96.000000 68.000000"
 preserveAspectRatio="xMidYMid meet">
<metadata>
Created by potrace 1.16, written by Peter Selinger 2001-2019
</metadata>
<g transform="translate(0.000000,68.000000) scale(0.100000,-0.100000)"
fill="#000000" stroke="none">
<path d="M520 282 c0 -42 -11 -52 -56 -52 -37 0 -44 3 -44 20 0 10 -9 24 -21
30 -26 15 -34 7 -20 -18 20 -37 13 -42 -56 -43 -38 -1 -95 -4 -128 -8 -56 -7
-58 -11 -12 -25 8 -2 63 2 123 9 60 8 198 15 307 15 108 1 197 5 197 9 0 4
-12 13 -27 20 -23 11 -143 8 -223 -4 -25 -4 -31 5 -15 22 19 18 15 37 -8 41
-11 2 -17 -3 -17 -16z"/>
</g>
</svg>
