<?xml version="1.0" standalone="no"?>
<!DOCTYPE svg PUBLIC "-//W3C//DTD SVG 20010904//EN"
 "http://www.w3.org/TR/2001/REC-SVG-20010904/DTD/svg10.dtd">
<svg version="1.0" xmlns="http://www.w3.org/2000/svg"
 width="96.000000pt" height="68.000000pt" viewBox="0 0 96.000000 68.000000"
 preserveAspectRatio="xMidYMid meet">
<metadata>
Created by potrace 1.16, written by Peter Selinger 2001-2019
</metadata>
<g transform="translate(0.000000,68.000000) scale(0.100000,-0.100000)"
fill="#000000" stroke="none">
<path d="M236 586 c-14 -24 -39 -55 -56 -69 -51 -43 -33 -75 32 -56 18 5 35 9
38 9 2 0 -16 -20 -40 -45 -36 -37 -41 -45 -27 -51 17 -6 37 -3 86 12 42 13 19
-18 -48 -63 -71 -49 -62 -57 14 -14 72 41 161 141 126 141 -5 0 -16 3 -25 6
-11 4 -16 0 -16 -14 0 -12 -5 -24 -12 -28 -18 -11 -68 -15 -68 -5 0 5 23 30
50 57 28 27 50 54 50 61 0 21 -38 15 -45 -7 -4 -14 -15 -20 -36 -20 -16 0 -29
2 -29 5 0 2 21 24 46 47 l46 42 -22 18 c-31 25 -35 24 -64 -26z"/>
<path d="M444 605 c3 -8 9 -22 12 -30 5 -12 -2 -15 -32 -15 l-39 0 -1 -105 c0
-101 0 -105 21 -105 12 0 40 13 62 29 l40 29 21 -21 c24 -23 42 -16 26 10 -17
27 -43 40 -52 26 -8 -13 -55 -33 -78 -33 -11 0 -14 8 -12 28 3 29 3 29 76 31
l48 1 13 50 c15 58 10 70 -30 70 -19 0 -29 5 -29 15 0 8 -9 19 -19 25 -27 14
-34 13 -27 -5z m66 -69 c0 -14 -29 -26 -67 -26 -22 0 -31 19 -16 33 13 14 83
8 83 -7z m0 -50 c0 -14 -29 -26 -67 -26 -22 0 -31 19 -16 33 13 14 83 8 83 -7z"/>
<path d="M690 580 c-14 -4 -38 -8 -55 -9 l-30 -1 0 -114 c0 -108 6 -139 22
-122 4 4 9 53 11 109 3 61 9 105 16 109 6 4 24 8 40 8 l28 0 -25 -33 -25 -33
24 -27 c32 -38 31 -57 -3 -57 l-28 0 30 -25 c36 -29 44 -30 61 -7 21 27 17 42
-23 80 l-37 35 44 39 c35 31 41 41 30 49 -18 10 -45 10 -80 -1z"/>
<path d="M459 341 c15 -27 5 -31 -71 -31 -39 0 -68 -4 -68 -10 0 -5 11 -10 23
-10 22 0 47 -32 47 -60 0 -6 -30 -10 -67 -11 -38 -1 -95 -4 -128 -8 -88 -11
-44 -25 53 -17 42 3 186 9 320 12 134 4 242 10 242 15 0 23 -57 31 -158 22
-95 -8 -128 -4 -102 12 5 3 10 15 10 26 0 12 7 19 19 19 11 0 23 5 26 10 6 10
-33 14 -82 10 -14 -1 -23 4 -23 13 0 8 -7 18 -16 21 -28 11 -35 7 -25 -13z
m56 -76 c0 -29 -2 -30 -47 -33 -43 -3 -48 -1 -48 18 0 11 -8 24 -17 28 -12 5
-2 9 32 13 75 9 80 7 80 -26z"/>
<path d="M479 175 c-3 -2 -31 -6 -64 -8 l-60 -5 -3 -63 c-3 -71 9 -102 30 -81
15 15 168 17 168 1 0 -6 8 -9 18 -7 26 5 35 146 10 159 -17 9 -91 13 -99 4z
m63 -33 c4 -15 -6 -20 -70 -30 -41 -6 -78 -9 -83 -6 -17 10 -9 34 14 38 12 3
31 7 42 9 53 12 93 7 97 -11z m6 -69 c3 -22 0 -23 -62 -25 -36 -1 -74 -2 -83
-2 -12 -1 -18 6 -18 19 0 17 9 21 60 26 89 9 100 7 103 -18z"/>
</g>
</svg>
