<?xml version="1.0" standalone="no"?>
<!DOCTYPE svg PUBLIC "-//W3C//DTD SVG 20010904//EN"
 "http://www.w3.org/TR/2001/REC-SVG-20010904/DTD/svg10.dtd">
<svg version="1.0" xmlns="http://www.w3.org/2000/svg"
 width="96.000000pt" height="68.000000pt" viewBox="0 0 96.000000 68.000000"
 preserveAspectRatio="xMidYMid meet">
<metadata>
Created by potrace 1.16, written by Peter Selinger 2001-2019
</metadata>
<g transform="translate(0.000000,68.000000) scale(0.100000,-0.100000)"
fill="#000000" stroke="none">
<path d="M635 200 c-4 -6 -1 -9 7 -8 18 4 19 -69 2 -103 -13 -26 -13 -27 10
-16 12 6 28 25 35 42 7 16 16 37 20 45 9 17 -14 45 -29 35 -6 -3 -10 -1 -10 4
0 14 -27 14 -35 1z m42 -52 c-3 -8 -6 -5 -6 6 -1 11 2 17 5 13 3 -3 4 -12 1
-19z"/>
<path d="M536 191 c-3 -5 11 -7 32 -4 49 7 54 13 9 13 -20 0 -38 -4 -41 -9z"/>
<path d="M445 180 c-4 -6 -2 -10 4 -10 6 0 8 -7 5 -15 -4 -8 -2 -15 4 -15 6 0
9 -12 7 -27 -3 -32 3 -53 16 -53 5 0 6 12 2 28 -3 15 -7 42 -7 59 -1 32 -20
52 -31 33z"/>
<path d="M565 70 c-3 -5 3 -10 14 -10 12 0 21 5 21 10 0 6 -6 10 -14 10 -8 0
-18 -4 -21 -10z"/>
</g>
</svg>
