<?xml version="1.0" standalone="no"?>
<!DOCTYPE svg PUBLIC "-//W3C//DTD SVG 20010904//EN"
 "http://www.w3.org/TR/2001/REC-SVG-20010904/DTD/svg10.dtd">
<svg version="1.0" xmlns="http://www.w3.org/2000/svg"
 width="90.000000pt" height="92.000000pt" viewBox="0 0 90.000000 92.000000"
 preserveAspectRatio="xMidYMid meet">
<metadata>
Created by potrace 1.16, written by Peter Selinger 2001-2019
</metadata>
<g transform="translate(0.000000,92.000000) scale(0.100000,-0.100000)"
fill="#000000" stroke="none">
<path d="M167 784 c-17 -55 -70 -148 -111 -193 l-21 -24 23 12 c12 6 37 27 55
45 25 24 46 35 82 40 l48 8 -33 -59 c-44 -80 -53 -86 -122 -79 -61 6 -63 5
-49 -23 6 -10 15 -55 20 -101 11 -83 24 -116 39 -94 11 18 153 28 163 12 13
-21 27 2 55 92 34 113 34 111 -2 132 -26 15 -36 16 -63 7 -18 -6 -34 -9 -36
-7 -3 2 20 34 50 71 30 37 55 71 55 77 0 19 -50 22 -90 6 -60 -24 -62 -21 -29
35 32 54 32 71 1 88 -16 9 -20 3 -35 -45z m113 -288 c0 -33 -1 -35 -35 -33
-29 2 -35 6 -35 25 0 12 -6 23 -12 23 -12 2 41 15 70 18 7 1 12 -12 12 -33z
m-122 -19 c3 -24 0 -27 -27 -27 -26 0 -31 4 -31 24 0 44 53 47 58 3z m112 -54
c0 -46 -11 -59 -41 -55 -24 4 -29 9 -29 32 0 22 6 30 23 33 42 8 47 7 47 -10z
m-105 -35 c1 -25 -3 -28 -32 -28 -30 0 -33 3 -33 31 0 28 2 30 32 27 26 -3 32
-7 33 -30z"/>
<path d="M530 788 c-139 -27 -136 -26 -121 -41 7 -7 32 -11 57 -10 57 2 60 -6
65 -157 l4 -114 -82 -11 c-45 -6 -85 -14 -89 -18 -4 -3 6 -11 22 -17 26 -10
49 -9 127 6 l27 6 0 -130 0 -129 -52 -7 c-29 -3 -78 -6 -108 -6 -67 0 -88 -11
-64 -31 20 -16 64 -17 209 -1 61 7 163 12 228 12 99 0 117 2 117 16 0 29 -63
46 -133 34 -34 -5 -81 -10 -104 -10 l-43 0 0 129 0 128 68 6 c37 4 88 7 115 7
55 0 64 20 17 40 -23 10 -46 9 -115 -2 l-85 -15 0 67 c0 36 5 93 11 125 9 51
9 61 -6 71 -21 16 -12 21 56 29 68 8 91 20 69 35 -21 14 -69 11 -190 -12z"/>
<path d="M711 674 c-19 -9 -45 -13 -58 -9 -22 5 -32 -8 -14 -19 5 -3 12 -25
15 -48 9 -61 18 -71 47 -59 13 5 41 13 62 16 31 5 36 9 27 20 -8 10 -7 23 5
51 15 36 15 39 -1 51 -22 16 -40 15 -83 -3z m39 -46 c0 -30 -10 -44 -37 -50
-18 -5 -22 -1 -25 28 -4 34 2 40 45 43 11 1 17 -6 17 -21z"/>
<path d="M430 644 c-14 -8 -43 -14 -64 -14 -36 0 -38 -1 -24 -17 9 -10 19 -34
23 -53 13 -69 14 -70 41 -60 14 6 41 10 60 10 31 0 33 2 22 19 -9 16 -8 27 7
61 11 24 15 44 9 49 -17 17 -49 19 -74 5z m20 -63 c0 -31 -4 -41 -21 -46 -26
-9 -29 -6 -36 38 -4 29 -2 36 13 40 40 10 44 7 44 -32z"/>
<path d="M730 385 c-14 -8 -44 -14 -68 -15 -42 0 -42 0 -28 -22 7 -13 17 -41
21 -63 9 -54 11 -56 43 -39 15 7 42 14 61 14 26 0 32 3 27 16 -3 8 1 31 9 51
20 46 19 48 -10 61 -31 14 -24 15 -55 -3z m20 -64 c0 -21 -6 -30 -22 -35 -34
-9 -35 -8 -41 21 -7 36 -2 43 34 43 25 0 29 -4 29 -29z"/>
<path d="M447 359 c-9 -6 -36 -11 -58 -11 -33 0 -39 -3 -33 -17 3 -9 12 -38
18 -66 6 -27 14 -49 16 -49 3 1 31 5 63 9 53 7 72 18 45 27 -8 3 -6 16 8 46
12 22 18 45 15 51 -10 15 -54 22 -74 10z m18 -61 c-12 -56 -57 -65 -63 -14 -4
32 10 46 46 46 21 0 23 -3 17 -32z"/>
<path d="M170 294 c0 -17 42 -84 50 -79 14 9 12 51 -2 62 -17 13 -48 24 -48
17z"/>
<path d="M267 269 c25 -42 41 -55 54 -42 16 16 2 48 -27 61 -40 19 -46 14 -27
-19z"/>
<path d="M40 288 c0 -2 -9 -30 -20 -62 -21 -59 -19 -96 5 -96 27 0 50 139 25
155 -5 3 -10 5 -10 3z"/>
<path d="M111 253 c13 -36 29 -54 40 -47 25 15 -4 74 -36 74 -12 0 -12 -6 -4
-27z"/>
</g>
</svg>
