<?xml version="1.0" standalone="no"?>
<!DOCTYPE svg PUBLIC "-//W3C//DTD SVG 20010904//EN"
 "http://www.w3.org/TR/2001/REC-SVG-20010904/DTD/svg10.dtd">
<svg version="1.0" xmlns="http://www.w3.org/2000/svg"
 width="96.000000pt" height="68.000000pt" viewBox="0 0 96.000000 68.000000"
 preserveAspectRatio="xMidYMid meet">
<metadata>
Created by potrace 1.16, written by Peter Selinger 2001-2019
</metadata>
<g transform="translate(0.000000,68.000000) scale(0.100000,-0.100000)"
fill="#000000" stroke="none">
<path d="M340 540 c-14 -4 -54 -8 -89 -9 -60 -1 -63 -2 -49 -18 9 -10 22 -40
30 -68 l14 -50 54 2 c84 4 120 12 114 26 -2 7 6 34 20 59 18 34 21 49 13 57
-12 12 -69 13 -107 1z m40 -52 c0 -48 -12 -60 -63 -65 l-45 -5 -11 38 c-12 44
-8 51 34 57 80 11 85 9 85 -25z"/>
</g>
</svg>
