<?xml version="1.0" standalone="no"?>
<!DOCTYPE svg PUBLIC "-//W3C//DTD SVG 20010904//EN"
 "http://www.w3.org/TR/2001/REC-SVG-20010904/DTD/svg10.dtd">
<svg version="1.0" xmlns="http://www.w3.org/2000/svg"
 width="90.000000pt" height="92.000000pt" viewBox="0 0 90.000000 92.000000"
 preserveAspectRatio="xMidYMid meet">
<metadata>
Created by potrace 1.16, written by Peter Selinger 2001-2019
</metadata>
<g transform="translate(0.000000,92.000000) scale(0.100000,-0.100000)"
fill="#000000" stroke="none">
<path d="M510 858 c-1 -2 -2 -47 -4 -100 -1 -54 -4 -100 -7 -102 -2 -2 -25 -7
-51 -11 l-48 -7 6 46 c6 39 4 49 -12 61 -32 25 -43 18 -37 -21 3 -19 0 -53 -7
-75 -10 -30 -11 -45 -3 -57 13 -20 22 -19 85 5 26 9 50 15 53 11 3 -3 -1 -24
-10 -46 -18 -43 -11 -41 -157 -58 -64 -7 -71 -15 -31 -33 20 -9 42 -9 99 0 40
6 79 9 87 6 15 -6 28 -75 16 -83 -6 -3 -52 -7 -158 -14 -2 0 3 -8 12 -17 8
-10 22 -43 30 -73 13 -54 14 -55 48 -52 19 1 44 5 57 7 20 5 22 2 22 -44 l0
-49 -62 -7 c-35 -4 -87 -7 -115 -7 -29 0 -53 -3 -53 -8 0 -4 14 -20 32 -35 21
-18 38 -25 52 -20 51 15 313 75 327 75 8 0 25 -18 37 -39 34 -60 72 -66 72
-11 0 37 -47 91 -102 119 -23 11 -44 19 -46 17 -2 -3 4 -16 13 -30 19 -28 21
-27 -66 -41 l-37 -6 -4 46 c-3 43 -2 45 27 50 16 3 50 6 75 7 38 3 45 6 43 23
-1 11 12 37 28 58 33 40 31 50 -9 71 -23 12 -38 12 -94 1 -70 -13 -77 -10 -57
27 9 17 8 24 -5 34 -25 18 -5 22 141 29 153 8 160 9 142 31 -24 29 -55 34
-136 20 -43 -8 -108 -17 -145 -21 l-68 -7 27 48 c14 27 27 50 27 51 1 1 25 5
54 9 48 6 52 5 52 -14 0 -12 5 -24 10 -27 20 -12 39 16 53 78 8 34 16 68 18
76 5 18 -43 46 -65 38 -14 -6 -15 -10 -6 -28 7 -12 9 -36 5 -55 -5 -27 -11
-34 -29 -34 -13 0 -38 -3 -56 -7 -33 -6 -33 -6 -27 28 4 19 9 57 13 85 5 46 3
53 -17 68 -21 14 -38 20 -39 14z m144 -515 c-4 -21 -7 -39 -8 -39 0 -1 -25 -5
-53 -9 l-53 -7 0 40 c0 45 6 49 78 51 l43 1 -7 -37z m-156 -59 c-2 -2 -22 -6
-44 -10 l-41 -6 -6 38 c-4 21 -4 40 -2 43 3 3 24 7 48 10 l42 6 3 -39 c2 -21
2 -40 0 -42z"/>
<path d="M175 632 c-18 -10 -55 -16 -92 -17 -35 0 -63 -1 -63 -3 0 -2 6 -15
14 -30 7 -15 19 -64 25 -110 6 -46 13 -88 16 -93 9 -14 25 -11 25 5 0 11 19
17 70 22 56 5 68 9 59 20 -8 9 -5 32 11 86 30 103 30 109 -5 124 -25 10 -35 9
-60 -4z m14 -84 c-3 -85 -11 -102 -50 -109 l-37 -5 -6 44 c-14 102 -10 108 62
111 31 1 32 0 31 -41z"/>
</g>
</svg>
