<?xml version="1.0" standalone="no"?>
<!DOCTYPE svg PUBLIC "-//W3C//DTD SVG 20010904//EN"
 "http://www.w3.org/TR/2001/REC-SVG-20010904/DTD/svg10.dtd">
<svg version="1.0" xmlns="http://www.w3.org/2000/svg"
 width="96.000000pt" height="68.000000pt" viewBox="0 0 96.000000 68.000000"
 preserveAspectRatio="xMidYMid meet">
<metadata>
Created by potrace 1.16, written by Peter Selinger 2001-2019
</metadata>
<g transform="translate(0.000000,68.000000) scale(0.100000,-0.100000)"
fill="#000000" stroke="none">
<path d="M580 611 c0 -49 -9 -60 -56 -67 -53 -8 -57 -21 -9 -30 39 -7 39 -7
25 -34 -18 -34 7 -31 37 4 26 31 33 34 95 38 37 2 70 7 74 10 15 16 -11 28
-61 28 l-55 0 10 26 c9 21 7 29 -7 40 -31 24 -53 17 -53 -15z"/>
<path d="M297 614 c-3 -4 0 -19 8 -35 24 -45 20 -49 -50 -49 -70 0 -80 -10
-39 -37 23 -14 32 -15 72 -4 47 12 61 6 62 -26 0 -7 7 -13 15 -13 13 0 20 24
16 52 0 3 13 9 29 13 41 9 38 25 -5 25 -32 0 -35 2 -35 30 0 37 -50 67 -73 44z"/>
<path d="M528 445 c-2 -2 -37 -6 -78 -9 -149 -12 -190 -18 -184 -27 3 -5 29
-9 59 -9 47 0 53 -2 48 -19 -8 -30 -59 -87 -108 -119 -59 -39 -43 -49 23 -16
83 41 160 143 120 157 -7 2 29 7 79 11 51 4 98 4 104 0 14 -9 5 -68 -16 -100
-11 -16 -25 -24 -45 -24 -35 0 -36 -3 -13 -30 40 -46 92 -10 113 80 7 28 16
53 21 56 11 7 11 15 -1 34 -6 10 -28 15 -64 16 -30 1 -56 1 -58 -1z"/>
<path d="M520 214 c-36 -7 -109 -14 -162 -15 -91 -1 -95 -2 -79 -18 9 -9 23
-42 30 -74 13 -60 24 -75 44 -59 7 5 55 10 107 12 156 5 155 4 156 27 1 12 13
42 27 67 l26 46 -29 15 c-33 17 -33 17 -120 -1z m64 -32 c3 -5 0 -26 -5 -49
l-11 -40 -66 -7 c-37 -3 -86 -6 -109 -6 -41 0 -41 1 -48 41 -4 22 -4 43 -1 46
5 5 67 11 213 21 12 1 24 -2 27 -6z"/>
</g>
</svg>
