<?xml version="1.0" standalone="no"?>
<!DOCTYPE svg PUBLIC "-//W3C//DTD SVG 20010904//EN"
 "http://www.w3.org/TR/2001/REC-SVG-20010904/DTD/svg10.dtd">
<svg version="1.0" xmlns="http://www.w3.org/2000/svg"
 width="90.000000pt" height="92.000000pt" viewBox="0 0 90.000000 92.000000"
 preserveAspectRatio="xMidYMid meet">
<metadata>
Created by potrace 1.16, written by Peter Selinger 2001-2019
</metadata>
<g transform="translate(0.000000,92.000000) scale(0.100000,-0.100000)"
fill="#000000" stroke="none">
<path d="M553 859 c-1 -58 -11 -69 -65 -69 -21 0 -38 -4 -38 -8 0 -14 51 -33
71 -27 11 4 19 5 19 3 0 -2 -7 -28 -15 -58 -8 -30 -12 -56 -10 -58 2 -2 17 16
32 41 15 25 33 52 38 61 7 12 32 18 88 23 42 3 77 10 77 14 0 19 -57 37 -98
32 -46 -6 -46 -6 -32 33 13 32 -10 64 -45 64 -19 0 -21 -6 -22 -51z"/>
<path d="M250 878 c0 -7 7 -32 16 -55 9 -24 14 -47 10 -50 -4 -4 -36 -9 -71
-11 -36 -2 -65 -8 -65 -11 0 -4 11 -18 25 -31 24 -23 25 -23 70 -5 51 19 55
18 70 -28 14 -45 30 -35 28 18 -1 42 1 45 33 55 52 17 55 34 6 26 -44 -7 -48
-1 -43 56 2 19 -35 48 -61 48 -10 0 -18 -5 -18 -12z"/>
<path d="M555 630 c-4 -6 -2 -17 4 -23 13 -13 14 -98 4 -315 l-6 -152 -33 0
-34 0 5 158 c3 86 7 185 10 220 4 59 3 63 -20 74 -34 15 -59 4 -45 -21 5 -11
10 -31 10 -44 0 -22 -7 -27 -50 -38 -62 -16 -60 -35 4 -32 l46 1 0 -44 c0 -30
-4 -44 -12 -43 -22 4 -88 -13 -88 -22 0 -13 46 -22 75 -15 23 6 25 4 25 -31 0
-32 -3 -38 -22 -40 -113 -7 -145 -39 -39 -37 l62 1 -3 -46 -3 -46 -70 -3
c-117 -4 -144 -17 -85 -42 24 -10 49 -10 118 -1 49 7 160 14 247 16 88 2 166
4 173 5 22 0 12 19 -20 36 -25 13 -47 15 -115 9 l-83 -7 0 45 0 45 68 7 c84 8
104 18 72 35 -20 11 -51 9 -115 -6 -18 -5 -20 -1 -17 40 l4 45 54 7 c30 3 57
10 59 15 8 12 -33 31 -55 25 -11 -4 -29 -9 -41 -12 -18 -5 -20 -2 -17 38 l3
43 60 8 c33 5 64 12 69 17 16 16 -39 30 -76 19 -50 -14 -51 -13 -46 41 3 30 1
54 -6 59 -20 17 -63 23 -71 11z"/>
<path d="M263 570 c-11 -5 -58 -14 -102 -21 -88 -14 -104 -32 -32 -37 41 -3
43 -4 36 -30 -9 -39 -47 -100 -95 -154 -46 -52 -43 -59 9 -27 l35 21 20 -28
c12 -16 29 -36 38 -46 15 -15 15 -19 -8 -50 -13 -18 -47 -55 -76 -81 -42 -38
-48 -47 -28 -42 69 20 159 113 234 242 20 34 41 65 46 68 19 12 10 35 -18 49
-25 13 -35 13 -77 0 -27 -8 -50 -12 -52 -10 -2 2 8 18 23 35 20 25 24 35 15
44 -9 9 4 15 55 24 37 7 69 15 72 18 19 19 -59 40 -95 25z m7 -182 c0 -6 -12
-36 -27 -66 -23 -48 -28 -52 -34 -33 -5 11 -10 21 -11 21 -2 0 -20 6 -40 13
l-37 13 25 32 c23 28 31 32 75 32 30 0 49 -4 49 -12z"/>
</g>
</svg>
