<?xml version="1.0" standalone="no"?>
<!DOCTYPE svg PUBLIC "-//W3C//DTD SVG 20010904//EN"
 "http://www.w3.org/TR/2001/REC-SVG-20010904/DTD/svg10.dtd">
<svg version="1.0" xmlns="http://www.w3.org/2000/svg"
 width="90.000000pt" height="92.000000pt" viewBox="0 0 90.000000 92.000000"
 preserveAspectRatio="xMidYMid meet">
<metadata>
Created by potrace 1.16, written by Peter Selinger 2001-2019
</metadata>
<g transform="translate(0.000000,92.000000) scale(0.100000,-0.100000)"
fill="#000000" stroke="none">
<path d="M686 853 c-16 -8 -48 -15 -73 -16 -36 0 -43 -3 -38 -16 4 -9 10 -36
15 -61 13 -69 20 -82 35 -70 8 6 39 14 69 17 40 4 53 9 47 17 -6 8 -3 27 10
55 25 57 24 67 -9 79 -21 7 -35 6 -56 -5z m14 -73 c0 -25 -5 -40 -12 -40 -7 0
-23 -3 -35 -6 -21 -6 -23 -3 -23 34 0 41 7 48 53 51 13 1 17 -7 17 -39z"/>
<path d="M184 823 c4 -16 10 -63 13 -107 7 -90 6 -91 -74 -101 -47 -6 -52 -9
-41 -22 9 -11 26 -14 66 -11 l53 5 -3 -71 -3 -71 -98 -50 c-103 -53 -113 -67
-66 -94 25 -14 28 -13 95 44 l69 58 3 -39 c1 -21 -1 -70 -5 -109 l-8 -70 -44
3 -44 3 47 -47 c25 -26 46 -51 46 -56 0 -17 20 -7 37 19 15 23 17 47 15 177
l-3 151 45 38 c59 49 59 67 0 32 l-45 -26 3 57 3 57 50 14 c47 14 48 16 30 30
-11 8 -33 12 -49 10 l-29 -4 6 65 c4 35 12 71 19 79 10 13 7 19 -17 39 -17 13
-41 24 -54 24 -20 0 -23 -3 -17 -27z"/>
<path d="M455 820 c-11 -5 -40 -9 -64 -9 -37 -1 -42 -3 -36 -18 4 -10 13 -43
19 -73 10 -45 16 -55 32 -52 113 14 115 15 109 30 -3 9 2 38 12 64 15 43 15
50 3 58 -18 12 -48 12 -75 0z m25 -57 c0 -37 -10 -50 -43 -58 -26 -7 -27 -6
-27 32 0 47 5 53 42 53 24 0 28 -4 28 -27z"/>
<path d="M595 639 c-38 -11 -107 -22 -152 -25 -80 -7 -81 -7 -68 -28 8 -12 19
-55 25 -96 12 -83 28 -130 38 -113 4 5 26 13 50 17 l42 6 0 -38 0 -39 -61 -7
c-34 -3 -84 -6 -110 -6 -56 0 -62 -13 -19 -35 25 -13 41 -14 87 -5 110 20 103
27 103 -110 0 -177 27 -156 39 30 l6 95 138 3 c107 2 137 5 137 16 0 8 -16 21
-35 30 -28 14 -45 15 -97 6 -35 -5 -82 -10 -105 -10 -42 0 -43 1 -43 34 0 31
3 34 36 40 22 5 41 3 50 -5 25 -21 40 -2 64 78 12 43 28 90 36 104 15 30 9 41
-33 63 -38 19 -37 19 -128 -5z m90 -39 c4 -6 4 -23 1 -38 -6 -26 -9 -27 -57
-24 -43 3 -49 7 -44 22 3 10 0 22 -6 26 -9 5 -7 10 7 15 28 11 92 10 99 -1z
m-160 -41 c4 -17 5 -32 3 -33 -1 -2 -22 -6 -44 -10 -40 -6 -42 -5 -48 26 -7
37 4 48 51 48 27 0 32 -4 38 -31z m143 -90 c-8 -29 -15 -39 -25 -35 -8 4 -28
6 -44 6 -25 0 -29 4 -29 29 0 26 4 30 33 34 79 10 76 11 65 -34z m-138 -9 c0
-29 -2 -30 -43 -30 -38 0 -43 3 -45 24 -1 22 3 25 36 29 20 2 40 4 45 5 4 1 7
-11 7 -28z"/>
</g>
</svg>
