<?xml version="1.0" standalone="no"?>
<!DOCTYPE svg PUBLIC "-//W3C//DTD SVG 20010904//EN"
 "http://www.w3.org/TR/2001/REC-SVG-20010904/DTD/svg10.dtd">
<svg version="1.0" xmlns="http://www.w3.org/2000/svg"
 width="96.000000pt" height="68.000000pt" viewBox="0 0 96.000000 68.000000"
 preserveAspectRatio="xMidYMid meet">
<metadata>
Created by potrace 1.16, written by Peter Selinger 2001-2019
</metadata>
<g transform="translate(0.000000,68.000000) scale(0.100000,-0.100000)"
fill="#000000" stroke="none">
<path d="M495 569 c-16 -5 -44 -8 -61 -5 l-30 4 19 -56 c22 -67 24 -69 39 -54
7 7 27 12 45 12 28 0 35 5 51 43 11 23 17 45 13 48 -12 13 -47 17 -76 8z m25
-50 c0 -28 -2 -30 -32 -27 -25 2 -34 8 -36 25 -3 21 10 29 51 32 13 1 17 -7
17 -30z"/>
</g>
</svg>
