<?xml version="1.0" standalone="no"?>
<!DOCTYPE svg PUBLIC "-//W3C//DTD SVG 20010904//EN"
 "http://www.w3.org/TR/2001/REC-SVG-20010904/DTD/svg10.dtd">
<svg version="1.0" xmlns="http://www.w3.org/2000/svg"
 width="96.000000pt" height="68.000000pt" viewBox="0 0 96.000000 68.000000"
 preserveAspectRatio="xMidYMid meet">
<metadata>
Created by potrace 1.16, written by Peter Selinger 2001-2019
</metadata>
<g transform="translate(0.000000,68.000000) scale(0.100000,-0.100000)"
fill="#000000" stroke="none">
<path d="M445 186 c6 -29 4 -34 -17 -39 -12 -4 -40 -7 -60 -7 -21 0 -38 -4
-38 -10 0 -6 27 -10 60 -10 l60 0 0 -34 0 -33 -132 -7 c-73 -4 -135 -9 -137
-12 -12 -12 18 -19 77 -18 248 5 522 18 522 26 0 22 -59 29 -172 23 l-118 -7
0 30 c0 32 14 42 58 42 39 0 73 11 66 21 -3 5 -30 9 -60 9 -50 0 -54 2 -54 24
0 23 -16 36 -46 36 -11 0 -13 -8 -9 -34z"/>
</g>
</svg>
