<?xml version="1.0" standalone="no"?>
<!DOCTYPE svg PUBLIC "-//W3C//DTD SVG 20010904//EN"
 "http://www.w3.org/TR/2001/REC-SVG-20010904/DTD/svg10.dtd">
<svg version="1.0" xmlns="http://www.w3.org/2000/svg"
 width="90.000000pt" height="92.000000pt" viewBox="0 0 90.000000 92.000000"
 preserveAspectRatio="xMidYMid meet">
<metadata>
Created by potrace 1.16, written by Peter Selinger 2001-2019
</metadata>
<g transform="translate(0.000000,92.000000) scale(0.100000,-0.100000)"
fill="#000000" stroke="none">
<path d="M243 791 c-23 -20 -70 -53 -105 -72 -89 -48 -46 -51 69 -5 48 19 98
37 110 41 41 11 47 31 14 54 -16 12 -33 21 -38 21 -4 -1 -27 -18 -50 -39z"/>
<path d="M555 790 c-3 -5 -2 -18 4 -27 5 -10 12 -59 16 -109 l7 -92 -53 -7
c-30 -4 -71 -7 -91 -6 -21 0 -38 0 -38 -2 0 -1 6 -22 14 -47 8 -25 17 -100 21
-165 4 -66 12 -131 17 -145 9 -23 11 -24 22 -8 10 13 34 19 97 23 46 3 96 8
111 10 23 4 31 -1 43 -25 35 -69 71 8 89 195 7 73 16 137 20 143 21 35 -44 74
-103 62 -20 -4 -51 -11 -70 -14 l-34 -6 6 68 c4 38 10 83 13 100 6 29 4 33
-29 47 -43 18 -54 19 -62 5z m205 -307 l0 -68 -65 0 -65 0 0 62 c0 70 2 71 78
72 l52 1 0 -67z m-180 -18 c0 -55 -3 -65 -17 -65 -10 0 -35 -3 -56 -7 l-38 -6
3 64 c3 62 4 64 33 70 74 16 75 16 75 -56z m176 -112 c-2 -16 -7 -44 -10 -63
l-6 -35 -60 0 -60 0 0 35 c0 78 7 84 108 88 31 2 33 0 28 -25z m-176 -47 c0
-52 -1 -54 -31 -60 -67 -13 -69 -11 -69 52 l0 58 50 2 50 2 0 -54z"/>
<path d="M335 647 c-16 -34 -31 -66 -33 -70 -7 -15 40 13 87 51 l44 36 -29 23
c-16 12 -31 23 -34 23 -3 -1 -18 -29 -35 -63z"/>
<path d="M190 658 c0 -23 40 -80 53 -75 21 7 19 44 -4 66 -25 23 -49 28 -49 9z"/>
<path d="M70 620 c0 -15 49 -90 58 -90 14 0 32 23 32 41 0 10 -12 27 -26 38
-28 22 -64 28 -64 11z"/>
<path d="M205 521 l6 -39 -88 -16 c-48 -9 -96 -16 -105 -16 -28 0 -21 -16 15
-33 30 -15 39 -15 91 -1 32 8 60 13 63 10 10 -9 -71 -123 -130 -183 -33 -34
-59 -65 -56 -67 3 -3 24 4 48 16 37 18 111 95 148 154 10 16 12 7 12 -51 0
-38 -4 -90 -9 -115 -6 -33 -4 -54 7 -80 14 -33 15 -34 29 -16 8 11 14 42 14
70 0 28 3 89 7 135 l6 84 42 -48 c29 -35 46 -47 58 -42 37 14 1 74 -64 107
-69 36 -43 70 52 70 31 0 47 16 30 33 -12 12 -53 14 -94 3 -24 -6 -27 -3 -27
17 0 16 -9 28 -25 35 -37 17 -37 16 -30 -27z"/>
</g>
</svg>
