<?xml version="1.0" standalone="no"?>
<!DOCTYPE svg PUBLIC "-//W3C//DTD SVG 20010904//EN"
 "http://www.w3.org/TR/2001/REC-SVG-20010904/DTD/svg10.dtd">
<svg version="1.0" xmlns="http://www.w3.org/2000/svg"
 width="96.000000pt" height="68.000000pt" viewBox="0 0 96.000000 68.000000"
 preserveAspectRatio="xMidYMid meet">
<metadata>
Created by potrace 1.16, written by Peter Selinger 2001-2019
</metadata>
<g transform="translate(0.000000,68.000000) scale(0.100000,-0.100000)"
fill="#000000" stroke="none">
<path d="M360 525 c0 -4 14 -24 30 -45 17 -21 27 -41 22 -44 -4 -2 -32 -8 -60
-12 -29 -3 -52 -10 -52 -15 0 -13 42 -11 123 6 40 9 83 18 96 21 39 8 3 25
-36 18 -28 -5 -33 -3 -33 13 0 11 -8 27 -17 36 -20 17 -73 33 -73 22z"/>
</g>
</svg>
