<?xml version="1.0" standalone="no"?>
<!DOCTYPE svg PUBLIC "-//W3C//DTD SVG 20010904//EN"
 "http://www.w3.org/TR/2001/REC-SVG-20010904/DTD/svg10.dtd">
<svg version="1.0" xmlns="http://www.w3.org/2000/svg"
 width="96.000000pt" height="68.000000pt" viewBox="0 0 96.000000 68.000000"
 preserveAspectRatio="xMidYMid meet">
<metadata>
Created by potrace 1.16, written by Peter Selinger 2001-2019
</metadata>
<g transform="translate(0.000000,68.000000) scale(0.100000,-0.100000)"
fill="#000000" stroke="none">
<path d="M440 625 c0 -22 -55 -80 -110 -115 -28 -18 -50 -34 -50 -36 0 -7 80
26 117 49 23 15 64 28 97 32 55 7 57 7 48 -11 -22 -41 -121 -118 -248 -192
-61 -35 -3 -18 91 28 69 34 264 174 265 191 0 3 -11 12 -25 19 -25 13 -53 10
-145 -17 -8 -3 -4 5 10 17 24 21 24 22 5 36 -25 18 -55 18 -55 -1z"/>
</g>
</svg>
