<?xml version="1.0" standalone="no"?>
<!DOCTYPE svg PUBLIC "-//W3C//DTD SVG 20010904//EN"
 "http://www.w3.org/TR/2001/REC-SVG-20010904/DTD/svg10.dtd">
<svg version="1.0" xmlns="http://www.w3.org/2000/svg"
 width="96.000000pt" height="68.000000pt" viewBox="0 0 96.000000 68.000000"
 preserveAspectRatio="xMidYMid meet">
<metadata>
Created by potrace 1.16, written by Peter Selinger 2001-2019
</metadata>
<g transform="translate(0.000000,68.000000) scale(0.100000,-0.100000)"
fill="#000000" stroke="none">
<path d="M431 611 c-14 -27 -43 -55 -90 -88 -39 -26 -68 -49 -66 -51 2 -2 20
1 41 7 31 9 39 8 51 -7 38 -48 38 -49 -42 -94 -73 -42 -97 -66 -52 -52 94 28
225 109 347 212 28 25 32 32 22 45 -17 20 -58 30 -80 19 -9 -5 -29 -12 -45
-16 -26 -6 -27 -5 -15 13 14 23 6 35 -29 45 -18 6 -25 1 -42 -33z m61 -111
c-48 -45 -83 -66 -68 -41 4 5 -6 18 -20 28 l-26 20 33 21 c23 15 50 22 84 21
l50 0 -53 -49z"/>
<path d="M500 407 c0 -24 -70 -96 -131 -133 -62 -38 -72 -52 -25 -34 25 9 31
6 71 -34 31 -32 40 -48 32 -55 -18 -14 -198 -103 -227 -112 -23 -7 -23 -7 -3
-8 28 -1 118 31 201 71 61 29 191 122 222 158 8 9 32 30 54 45 l38 29 -22 18
c-26 21 -70 22 -124 3 -45 -16 -66 -10 -39 11 17 13 17 15 -6 34 -27 23 -41
25 -41 7z m120 -91 c0 -7 -30 -42 -67 -77 l-68 -63 -9 26 c-5 15 -24 33 -44
42 l-35 17 34 25 c37 27 52 32 114 37 22 2 48 4 58 5 9 1 17 -4 17 -12z"/>
</g>
</svg>
