<?xml version="1.0" standalone="no"?>
<!DOCTYPE svg PUBLIC "-//W3C//DTD SVG 20010904//EN"
 "http://www.w3.org/TR/2001/REC-SVG-20010904/DTD/svg10.dtd">
<svg version="1.0" xmlns="http://www.w3.org/2000/svg"
 width="96.000000pt" height="68.000000pt" viewBox="0 0 96.000000 68.000000"
 preserveAspectRatio="xMidYMid meet">
<metadata>
Created by potrace 1.16, written by Peter Selinger 2001-2019
</metadata>
<g transform="translate(0.000000,68.000000) scale(0.100000,-0.100000)"
fill="#000000" stroke="none">
<path d="M580 540 c-19 -5 -71 -12 -116 -16 l-81 -6 19 -36 c10 -20 18 -46 18
-58 0 -32 18 -76 29 -70 5 3 57 7 116 9 l108 4 29 79 c27 74 28 79 12 91 -20
14 -80 15 -134 3z m78 -46 c-3 -23 -8 -27 -45 -28 -41 -2 -43 -1 -43 26 0 27
2 28 46 28 43 0 45 -1 42 -26z m-154 10 c9 -3 16 -17 16 -31 0 -22 -4 -24 -37
-21 -30 2 -39 8 -41 25 -2 16 3 23 20 26 13 2 24 5 25 6 1 0 8 -2 17 -5z m146
-68 c0 -33 -13 -46 -46 -46 -29 0 -34 3 -34 24 0 20 6 25 33 29 17 2 35 5 40
5 4 1 7 -4 7 -12z m-130 -31 c0 -21 -5 -25 -30 -25 -16 0 -30 4 -30 9 0 5 -3
16 -6 25 -5 13 1 16 30 16 32 0 36 -3 36 -25z"/>
</g>
</svg>
