<?xml version="1.0" standalone="no"?>
<!DOCTYPE svg PUBLIC "-//W3C//DTD SVG 20010904//EN"
 "http://www.w3.org/TR/2001/REC-SVG-20010904/DTD/svg10.dtd">
<svg version="1.0" xmlns="http://www.w3.org/2000/svg"
 width="96.000000pt" height="68.000000pt" viewBox="0 0 96.000000 68.000000"
 preserveAspectRatio="xMidYMid meet">
<metadata>
Created by potrace 1.16, written by Peter Selinger 2001-2019
</metadata>
<g transform="translate(0.000000,68.000000) scale(0.100000,-0.100000)"
fill="#000000" stroke="none">
<path d="M615 203 c-49 -8 -107 -13 -127 -11 -42 4 -44 2 -24 -21 8 -9 20 -38
28 -66 l14 -50 57 3 c32 2 66 5 75 7 9 2 37 4 61 4 24 1 42 4 38 7 -7 7 28 80
43 89 17 11 11 24 -20 40 -33 17 -26 17 -145 -2z m91 -55 c-4 -23 -12 -45 -17
-49 -17 -10 -143 -20 -150 -11 -4 4 -10 23 -14 43 l-7 36 59 10 c32 6 75 11
97 12 l39 1 -7 -42z"/>
</g>
</svg>
