<?xml version="1.0" standalone="no"?>
<!DOCTYPE svg PUBLIC "-//W3C//DTD SVG 20010904//EN"
 "http://www.w3.org/TR/2001/REC-SVG-20010904/DTD/svg10.dtd">
<svg version="1.0" xmlns="http://www.w3.org/2000/svg"
 width="96.000000pt" height="68.000000pt" viewBox="0 0 96.000000 68.000000"
 preserveAspectRatio="xMidYMid meet">
<metadata>
Created by potrace 1.16, written by Peter Selinger 2001-2019
</metadata>
<g transform="translate(0.000000,68.000000) scale(0.100000,-0.100000)"
fill="#000000" stroke="none">
<path d="M555 580 c4 -11 4 -33 0 -49 -5 -25 -12 -30 -53 -36 -26 -3 -55 -9
-66 -12 -35 -10 6 -23 52 -17 56 8 55 -7 -4 -63 -26 -24 -40 -43 -32 -43 13 0
32 12 112 73 7 6 32 -5 65 -27 62 -42 71 -44 71 -13 0 26 -25 41 -84 52 -20 4
-36 13 -36 20 0 16 31 24 90 26 25 0 54 4 65 8 19 8 19 8 -2 20 -16 8 -34 8
-65 1 -73 -16 -79 -15 -66 20 13 40 4 60 -27 60 -22 0 -25 -3 -20 -20z"/>
</g>
</svg>
