<?xml version="1.0" standalone="no"?>
<!DOCTYPE svg PUBLIC "-//W3C//DTD SVG 20010904//EN"
 "http://www.w3.org/TR/2001/REC-SVG-20010904/DTD/svg10.dtd">
<svg version="1.0" xmlns="http://www.w3.org/2000/svg"
 width="96.000000pt" height="68.000000pt" viewBox="0 0 96.000000 68.000000"
 preserveAspectRatio="xMidYMid meet">
<metadata>
Created by potrace 1.16, written by Peter Selinger 2001-2019
</metadata>
<g transform="translate(0.000000,68.000000) scale(0.100000,-0.100000)"
fill="#000000" stroke="none">
<path d="M395 541 c8 -82 9 -81 -119 -86 -44 -2 -83 -3 -85 -4 -3 -1 5 -11 17
-24 12 -13 29 -46 37 -75 9 -28 20 -54 26 -57 5 -4 33 -1 61 5 58 14 67 8 60
-41 -6 -41 -21 -44 -73 -15 -44 26 -137 37 -124 16 3 -5 21 -10 39 -10 33 0
116 -46 116 -65 0 -22 -94 -86 -152 -105 -54 -16 -56 -29 -3 -19 61 11 110 33
157 70 l39 32 87 -59 c47 -33 99 -65 115 -72 32 -13 171 -15 202 -2 24 10 27
8 -120 46 -94 23 -209 72 -252 106 -8 7 -7 21 6 58 27 76 33 80 123 80 71 0
79 2 76 18 -3 9 11 38 29 63 18 26 33 49 33 53 0 3 -14 13 -30 21 -25 13 -48
15 -117 9 l-86 -7 6 56 c7 55 7 55 -25 66 -50 17 -51 16 -43 -58z m180 -128
c-9 -49 -14 -54 -69 -60 l-46 -6 0 46 c0 51 5 55 74 56 l48 1 -7 -37z m-175
-23 l0 -50 -49 0 c-48 0 -49 0 -56 36 -3 20 -5 37 -3 39 3 3 80 21 101 24 4 1
7 -21 7 -49z"/>
</g>
</svg>
