<?xml version="1.0" standalone="no"?>
<!DOCTYPE svg PUBLIC "-//W3C//DTD SVG 20010904//EN"
 "http://www.w3.org/TR/2001/REC-SVG-20010904/DTD/svg10.dtd">
<svg version="1.0" xmlns="http://www.w3.org/2000/svg"
 width="96.000000pt" height="68.000000pt" viewBox="0 0 96.000000 68.000000"
 preserveAspectRatio="xMidYMid meet">
<metadata>
Created by potrace 1.16, written by Peter Selinger 2001-2019
</metadata>
<g transform="translate(0.000000,68.000000) scale(0.100000,-0.100000)"
fill="#000000" stroke="none">
<path d="M555 400 c5 -24 3 -28 -26 -34 -17 -3 -42 -6 -55 -6 -13 0 -24 -4
-24 -10 0 -5 25 -10 56 -10 52 0 55 -1 52 -22 -3 -21 -11 -24 -85 -31 -84 -9
-105 -27 -32 -27 56 0 51 -19 -30 -100 -48 -48 -61 -66 -44 -59 46 17 173 131
173 154 0 9 30 15 103 19 119 8 157 14 157 26 0 22 -93 23 -177 3 -19 -4 -23
-1 -23 20 0 28 8 32 82 43 67 9 50 28 -18 20 -50 -6 -54 -4 -54 14 0 11 -3 21
-7 21 -49 9 -54 7 -48 -21z"/>
</g>
</svg>
