<?xml version="1.0" standalone="no"?>
<!DOCTYPE svg PUBLIC "-//W3C//DTD SVG 20010904//EN"
 "http://www.w3.org/TR/2001/REC-SVG-20010904/DTD/svg10.dtd">
<svg version="1.0" xmlns="http://www.w3.org/2000/svg"
 width="96.000000pt" height="68.000000pt" viewBox="0 0 96.000000 68.000000"
 preserveAspectRatio="xMidYMid meet">
<metadata>
Created by potrace 1.16, written by Peter Selinger 2001-2019
</metadata>
<g transform="translate(0.000000,68.000000) scale(0.100000,-0.100000)"
fill="#000000" stroke="none">
<path d="M620 350 c-14 -4 -57 -8 -95 -9 l-71 -1 4 -62 c2 -39 -3 -84 -13
-118 -24 -81 -27 -103 -15 -120 9 -13 13 -12 29 8 11 12 22 40 26 62 6 35 10
40 33 40 15 0 57 3 95 7 l67 6 0 -43 c0 -42 0 -42 -34 -38 l-34 4 19 -25 c11
-14 29 -31 41 -39 19 -14 23 -13 40 7 10 13 18 33 19 45 0 11 2 66 3 121 1 55
5 109 10 121 13 35 -58 55 -124 34z m60 -49 c0 -27 -2 -28 -61 -35 -108 -11
-119 -9 -119 19 0 25 9 30 75 38 17 2 47 5 68 6 34 1 37 -1 37 -28z m0 -85 c0
-22 -5 -24 -72 -31 -40 -3 -81 -9 -90 -11 -14 -4 -18 1 -18 24 0 16 3 32 7 35
3 4 44 7 90 7 81 0 83 -1 83 -24z"/>
</g>
</svg>
