<?xml version="1.0" standalone="no"?>
<!DOCTYPE svg PUBLIC "-//W3C//DTD SVG 20010904//EN"
 "http://www.w3.org/TR/2001/REC-SVG-20010904/DTD/svg10.dtd">
<svg version="1.0" xmlns="http://www.w3.org/2000/svg"
 width="96.000000pt" height="68.000000pt" viewBox="0 0 96.000000 68.000000"
 preserveAspectRatio="xMidYMid meet">
<metadata>
Created by potrace 1.16, written by Peter Selinger 2001-2019
</metadata>
<g transform="translate(0.000000,68.000000) scale(0.100000,-0.100000)"
fill="#000000" stroke="none">
<path d="M280 474 c-19 -7 -59 -13 -87 -13 -29 -1 -53 -3 -53 -5 0 -2 7 -17
15 -32 8 -16 18 -50 21 -77 6 -46 24 -73 32 -49 2 7 18 12 37 12 48 0 95 11
89 21 -3 5 6 37 20 71 14 34 24 64 22 65 -14 14 -66 18 -96 7z m24 -71 c-8
-58 -11 -62 -56 -69 -33 -6 -35 -4 -42 26 -15 78 -9 85 71 89 l33 1 -6 -47z"/>
</g>
</svg>
