<?xml version="1.0" standalone="no"?>
<!DOCTYPE svg PUBLIC "-//W3C//DTD SVG 20010904//EN"
 "http://www.w3.org/TR/2001/REC-SVG-20010904/DTD/svg10.dtd">
<svg version="1.0" xmlns="http://www.w3.org/2000/svg"
 width="96.000000pt" height="68.000000pt" viewBox="0 0 96.000000 68.000000"
 preserveAspectRatio="xMidYMid meet">
<metadata>
Created by potrace 1.16, written by Peter Selinger 2001-2019
</metadata>
<g transform="translate(0.000000,68.000000) scale(0.100000,-0.100000)"
fill="#000000" stroke="none">
<path d="M229 483 c-12 -3 -15 -15 -11 -57 l4 -54 -41 -7 c-47 -8 -45 -28 2
-23 l32 3 3 -57 3 -57 -58 -17 c-75 -21 -80 -24 -58 -41 29 -20 42 -17 158 43
111 57 133 76 57 49 -23 -8 -46 -15 -51 -15 -14 0 -11 100 4 104 6 3 26 8 42
12 l30 7 -41 11 c-39 11 -40 12 -32 46 12 55 3 66 -43 53z"/>
</g>
</svg>
