<?xml version="1.0" standalone="no"?>
<!DOCTYPE svg PUBLIC "-//W3C//DTD SVG 20010904//EN"
 "http://www.w3.org/TR/2001/REC-SVG-20010904/DTD/svg10.dtd">
<svg version="1.0" xmlns="http://www.w3.org/2000/svg"
 width="96.000000pt" height="68.000000pt" viewBox="0 0 96.000000 68.000000"
 preserveAspectRatio="xMidYMid meet">
<metadata>
Created by potrace 1.16, written by Peter Selinger 2001-2019
</metadata>
<g transform="translate(0.000000,68.000000) scale(0.100000,-0.100000)"
fill="#000000" stroke="none">
<path d="M555 533 c-44 -6 -116 -12 -159 -12 l-80 -1 26 -27 c16 -17 30 -49
37 -81 14 -69 29 -96 44 -84 16 13 177 23 177 11 0 -5 9 -9 19 -9 15 0 26 17
47 73 15 39 34 80 42 90 34 39 -37 58 -153 40z m83 -37 c2 -11 -4 -45 -13 -75
l-17 -56 -87 -3 -87 -3 -22 68 c-12 37 -20 68 -18 70 6 6 152 21 196 19 36 -1
46 -5 48 -20z"/>
</g>
</svg>
