<?xml version="1.0" standalone="no"?>
<!DOCTYPE svg PUBLIC "-//W3C//DTD SVG 20010904//EN"
 "http://www.w3.org/TR/2001/REC-SVG-20010904/DTD/svg10.dtd">
<svg version="1.0" xmlns="http://www.w3.org/2000/svg"
 width="96.000000pt" height="68.000000pt" viewBox="0 0 96.000000 68.000000"
 preserveAspectRatio="xMidYMid meet">
<metadata>
Created by potrace 1.16, written by Peter Selinger 2001-2019
</metadata>
<g transform="translate(0.000000,68.000000) scale(0.100000,-0.100000)"
fill="#000000" stroke="none">
<path d="M203 582 c-8 -5 -9 -13 -3 -22 6 -8 10 -39 10 -67 l0 -53 -54 0 -54
0 19 -37 c10 -21 21 -50 24 -65 5 -24 9 -27 35 -21 29 5 30 5 30 -36 0 -34 3
-41 20 -41 17 0 20 7 20 45 0 42 2 45 28 45 39 0 73 11 67 21 -3 4 3 26 15 48
l20 40 -21 12 c-12 6 -39 9 -60 6 -37 -5 -39 -4 -39 23 0 16 4 40 9 54 7 17 6
27 -2 34 -19 15 -51 22 -64 14z m109 -154 c9 -26 -8 -63 -30 -66 -20 -3 -22 1
-22 37 0 37 3 41 24 41 13 0 26 -6 28 -12z m-102 -38 c0 -32 -4 -40 -19 -40
-23 0 -39 59 -19 72 27 17 38 8 38 -32z"/>
</g>
</svg>
