<?xml version="1.0" standalone="no"?>
<!DOCTYPE svg PUBLIC "-//W3C//DTD SVG 20010904//EN"
 "http://www.w3.org/TR/2001/REC-SVG-20010904/DTD/svg10.dtd">
<svg version="1.0" xmlns="http://www.w3.org/2000/svg"
 width="90.000000pt" height="92.000000pt" viewBox="0 0 90.000000 92.000000"
 preserveAspectRatio="xMidYMid meet">
<metadata>
Created by potrace 1.16, written by Peter Selinger 2001-2019
</metadata>
<g transform="translate(0.000000,92.000000) scale(0.100000,-0.100000)"
fill="#000000" stroke="none">
<path d="M215 708 c0 -62 -6 -136 -13 -164 -13 -48 -16 -52 -50 -58 -20 -3
-63 -6 -94 -6 -32 0 -58 -4 -58 -8 0 -9 36 -44 56 -55 7 -4 31 0 54 8 56 20
64 19 56 -5 -3 -11 -9 -28 -12 -39 -4 -14 7 -28 50 -58 l56 -40 -35 -35 c-19
-19 -64 -52 -100 -73 -36 -21 -63 -40 -61 -42 8 -8 109 28 141 50 17 11 42 32
57 45 l28 26 37 -45 c83 -97 103 -107 103 -49 0 44 -8 57 -61 96 l-49 35 25
49 c13 26 32 75 41 109 13 46 22 61 37 63 25 4 35 28 12 28 -11 0 -15 5 -12
15 7 17 -37 55 -65 55 -18 0 -20 -5 -14 -44 l7 -44 -58 -10 c-32 -5 -59 -9
-61 -7 -2 1 11 56 29 121 17 66 32 125 32 133 2 13 -56 61 -72 61 -3 0 -6 -51
-6 -112z m125 -233 c0 -15 -45 -143 -53 -151 -6 -7 -83 32 -92 46 -3 5 -1 27
6 48 10 36 15 40 68 54 72 21 71 21 71 3z"/>
<path d="M630 559 c-42 -12 -81 -16 -112 -13 -27 3 -48 4 -48 1 0 -2 6 -20 14
-38 8 -19 19 -80 25 -135 6 -56 13 -109 17 -118 7 -17 24 -22 24 -7 0 5 28 12
63 15 135 14 137 15 137 46 0 39 26 161 42 195 11 25 10 29 -15 51 -33 28 -57
28 -147 3z m68 -28 c11 -7 12 -26 2 -107 -7 -54 -13 -100 -15 -102 -5 -5 -118
-21 -124 -18 -3 2 -7 33 -9 68 -1 34 -5 80 -8 100 -6 41 -13 36 81 57 53 12
58 12 73 2z"/>
</g>
</svg>
