<?xml version="1.0" standalone="no"?>
<!DOCTYPE svg PUBLIC "-//W3C//DTD SVG 20010904//EN"
 "http://www.w3.org/TR/2001/REC-SVG-20010904/DTD/svg10.dtd">
<svg version="1.0" xmlns="http://www.w3.org/2000/svg"
 width="96.000000pt" height="68.000000pt" viewBox="0 0 96.000000 68.000000"
 preserveAspectRatio="xMidYMid meet">
<metadata>
Created by potrace 1.16, written by Peter Selinger 2001-2019
</metadata>
<g transform="translate(0.000000,68.000000) scale(0.100000,-0.100000)"
fill="#000000" stroke="none">
<path d="M460 186 c0 -95 7 -109 68 -126 66 -18 221 -12 271 10 34 16 42 24
36 37 -4 10 -13 38 -19 63 -13 47 -17 46 -35 -13 -16 -48 -36 -58 -131 -64
-137 -10 -173 17 -149 113 10 38 9 48 -2 55 -34 21 -39 10 -39 -75z"/>
</g>
</svg>
