<?xml version="1.0" standalone="no"?>
<!DOCTYPE svg PUBLIC "-//W3C//DTD SVG 20010904//EN"
 "http://www.w3.org/TR/2001/REC-SVG-20010904/DTD/svg10.dtd">
<svg version="1.0" xmlns="http://www.w3.org/2000/svg"
 width="96.000000pt" height="68.000000pt" viewBox="0 0 96.000000 68.000000"
 preserveAspectRatio="xMidYMid meet">
<metadata>
Created by potrace 1.16, written by Peter Selinger 2001-2019
</metadata>
<g transform="translate(0.000000,68.000000) scale(0.100000,-0.100000)"
fill="#000000" stroke="none">
<path d="M743 413 c-25 -5 -32 -23 -9 -23 18 0 28 -42 20 -88 -9 -57 -35 -144
-51 -175 -12 -24 -18 -27 -44 -22 -33 8 -36 -1 -10 -32 24 -29 52 -29 78 0 30
33 31 36 58 162 14 65 30 126 35 136 9 15 5 21 -19 34 -17 8 -31 14 -33 14 -2
-1 -13 -4 -25 -6z"/>
</g>
</svg>
