<?xml version="1.0" standalone="no"?>
<!DOCTYPE svg PUBLIC "-//W3C//DTD SVG 20010904//EN"
 "http://www.w3.org/TR/2001/REC-SVG-20010904/DTD/svg10.dtd">
<svg version="1.0" xmlns="http://www.w3.org/2000/svg"
 width="96.000000pt" height="68.000000pt" viewBox="0 0 96.000000 68.000000"
 preserveAspectRatio="xMidYMid meet">
<metadata>
Created by potrace 1.16, written by Peter Selinger 2001-2019
</metadata>
<g transform="translate(0.000000,68.000000) scale(0.100000,-0.100000)"
fill="#000000" stroke="none">
<path d="M390 495 c-7 -9 -30 -15 -54 -16 -69 -1 -90 -17 -23 -18 61 -1 62 -2
47 -31 -8 -14 -27 -20 -96 -25 -96 -8 -97 -25 0 -25 51 0 57 -2 46 -15 -11
-13 -9 -15 13 -15 14 0 31 9 39 22 14 20 26 22 191 32 97 5 177 13 177 17 0
21 -72 25 -190 12 -68 -7 -128 -12 -132 -11 -5 2 -3 11 5 21 9 13 35 21 87 28
41 5 88 12 104 15 26 6 27 8 12 16 -12 7 -43 6 -94 -1 -52 -8 -78 -8 -80 -1
-5 15 -38 12 -52 -5z"/>
</g>
</svg>
