<?xml version="1.0" standalone="no"?>
<!DOCTYPE svg PUBLIC "-//W3C//DTD SVG 20010904//EN"
 "http://www.w3.org/TR/2001/REC-SVG-20010904/DTD/svg10.dtd">
<svg version="1.0" xmlns="http://www.w3.org/2000/svg"
 width="96.000000pt" height="68.000000pt" viewBox="0 0 96.000000 68.000000"
 preserveAspectRatio="xMidYMid meet">
<metadata>
Created by potrace 1.16, written by Peter Selinger 2001-2019
</metadata>
<g transform="translate(0.000000,68.000000) scale(0.100000,-0.100000)"
fill="#000000" stroke="none">
<path d="M446 563 c4 -10 9 -71 12 -136 4 -114 3 -119 -17 -124 -27 -7 -26
-14 2 -41 33 -31 47 -12 47 60 0 32 3 58 8 58 4 0 25 -14 46 -30 22 -17 44
-26 48 -22 17 17 -5 41 -53 57 -27 9 -49 21 -49 27 0 5 23 19 50 31 54 23 60
31 32 46 -15 8 -23 4 -41 -20 -31 -42 -45 -28 -37 41 6 48 4 59 -9 64 -32 12
-48 7 -39 -11z"/>
<path d="M262 490 c-22 -27 -41 -40 -58 -40 l-25 0 20 -27 c11 -16 25 -55 31
-88 14 -71 27 -98 42 -89 6 4 25 9 42 10 42 5 58 12 52 23 -3 5 -23 7 -45 4
-38 -5 -38 -5 -45 32 -8 41 2 55 42 55 12 0 22 5 22 11 0 6 -17 9 -42 7 -41
-3 -43 -2 -46 28 -3 28 0 31 45 45 55 17 66 40 28 57 -14 7 -27 12 -28 12 -1
0 -17 -18 -35 -40z"/>
<path d="M633 509 c-18 -5 -33 -14 -33 -19 0 -9 28 -7 68 6 8 2 12 -10 12 -40
0 -29 -4 -44 -12 -43 -47 1 -88 -5 -88 -13 0 -5 20 -10 45 -10 40 0 45 -2 45
-22 0 -55 -9 -65 -63 -73 -60 -7 -49 -20 25 -27 30 -4 51 -1 57 6 5 6 17 45
26 86 9 41 21 88 27 104 10 24 9 31 -7 42 -21 16 -55 17 -102 3z"/>
<path d="M360 440 l-25 -9 27 2 c15 1 27 -1 28 -5 1 -22 -2 -29 -26 -58 -15
-17 -23 -34 -19 -38 9 -9 96 89 92 103 -5 13 -45 16 -77 5z"/>
<path d="M485 224 c-60 -7 -140 -14 -178 -15 -76 -1 -76 -1 -53 -86 8 -28 11
-54 8 -57 -3 -3 -36 -6 -74 -6 -69 0 -90 -12 -41 -24 14 -4 85 -3 157 3 72 6
219 13 326 16 106 3 196 8 199 11 4 3 -3 12 -14 21 -15 11 -36 14 -87 10 -79
-7 -83 -2 -39 64 l30 43 -27 18 c-31 20 -53 21 -207 2z m141 -59 c-9 -73 -20
-85 -71 -85 l-45 0 21 55 c11 30 18 59 14 65 -4 6 12 10 41 10 l47 0 -7 -45z
m-126 13 c0 -13 -3 -40 -6 -60 -6 -33 -10 -38 -34 -38 -32 0 -40 14 -40 76 l0
44 40 0 c35 0 40 -3 40 -22z m-120 -12 c5 -13 12 -40 15 -60 l7 -36 -45 0
c-53 0 -55 2 -63 63 -7 49 -9 47 64 56 7 0 17 -10 22 -23z"/>
</g>
</svg>
