<?xml version="1.0" standalone="no"?>
<!DOCTYPE svg PUBLIC "-//W3C//DTD SVG 20010904//EN"
 "http://www.w3.org/TR/2001/REC-SVG-20010904/DTD/svg10.dtd">
<svg version="1.0" xmlns="http://www.w3.org/2000/svg"
 width="96.000000pt" height="68.000000pt" viewBox="0 0 96.000000 68.000000"
 preserveAspectRatio="xMidYMid meet">
<metadata>
Created by potrace 1.16, written by Peter Selinger 2001-2019
</metadata>
<g transform="translate(0.000000,68.000000) scale(0.100000,-0.100000)"
fill="#000000" stroke="none">
<path d="M540 551 c-63 -9 -110 -20 -103 -24 6 -4 19 -30 28 -57 22 -67 39
-65 31 4 l-7 53 47 7 c26 3 67 6 92 6 l45 0 -7 -56 c-6 -48 -4 -55 10 -52 21
4 61 105 48 118 -18 18 -69 18 -184 1z"/>
<path d="M540 490 c-19 -13 46 -13 75 0 16 7 11 9 -20 9 -22 0 -47 -4 -55 -9z"/>
<path d="M545 440 c-16 -7 -11 -9 20 -9 22 0 47 4 55 9 19 13 -46 13 -75 0z"/>
</g>
</svg>
