<?xml version="1.0" standalone="no"?>
<!DOCTYPE svg PUBLIC "-//W3C//DTD SVG 20010904//EN"
 "http://www.w3.org/TR/2001/REC-SVG-20010904/DTD/svg10.dtd">
<svg version="1.0" xmlns="http://www.w3.org/2000/svg"
 width="96.000000pt" height="68.000000pt" viewBox="0 0 96.000000 68.000000"
 preserveAspectRatio="xMidYMid meet">
<metadata>
Created by potrace 1.16, written by Peter Selinger 2001-2019
</metadata>
<g transform="translate(0.000000,68.000000) scale(0.100000,-0.100000)"
fill="#000000" stroke="none">
<path d="M370 170 c26 -37 39 -45 51 -33 16 16 0 41 -33 52 -42 15 -42 15 -18
-19z"/>
<path d="M287 158 c23 -40 43 -47 43 -16 0 29 -17 48 -43 48 -18 0 -18 -1 0
-32z"/>
<path d="M117 145 c-21 -45 -22 -75 -1 -75 19 0 47 65 39 91 -9 28 -19 24 -38
-16z"/>
<path d="M190 174 c0 -15 36 -64 45 -61 17 6 17 34 0 51 -16 15 -45 22 -45 10z"/>
</g>
</svg>
