<?xml version="1.0" standalone="no"?>
<!DOCTYPE svg PUBLIC "-//W3C//DTD SVG 20010904//EN"
 "http://www.w3.org/TR/2001/REC-SVG-20010904/DTD/svg10.dtd">
<svg version="1.0" xmlns="http://www.w3.org/2000/svg"
 width="96.000000pt" height="68.000000pt" viewBox="0 0 96.000000 68.000000"
 preserveAspectRatio="xMidYMid meet">
<metadata>
Created by potrace 1.16, written by Peter Selinger 2001-2019
</metadata>
<g transform="translate(0.000000,68.000000) scale(0.100000,-0.100000)"
fill="#000000" stroke="none">
<path d="M553 548 c-6 -24 -30 -71 -52 -106 -23 -34 -41 -65 -41 -68 0 -2 10
2 23 11 13 8 27 12 30 8 12 -11 7 -185 -6 -249 -13 -61 -8 -104 13 -104 21 0
28 49 35 219 5 125 4 171 -4 171 -7 0 7 27 31 60 34 49 40 64 32 78 -6 9 -20
18 -30 20 -15 2 -22 -6 -31 -40z"/>
</g>
</svg>
