<?xml version="1.0" standalone="no"?>
<!DOCTYPE svg PUBLIC "-//W3C//DTD SVG 20010904//EN"
 "http://www.w3.org/TR/2001/REC-SVG-20010904/DTD/svg10.dtd">
<svg version="1.0" xmlns="http://www.w3.org/2000/svg"
 width="96.000000pt" height="68.000000pt" viewBox="0 0 96.000000 68.000000"
 preserveAspectRatio="xMidYMid meet">
<metadata>
Created by potrace 1.16, written by Peter Selinger 2001-2019
</metadata>
<g transform="translate(0.000000,68.000000) scale(0.100000,-0.100000)"
fill="#000000" stroke="none">
<path d="M410 439 c-30 -5 -70 -6 -89 -3 -30 5 -33 3 -27 -13 4 -10 10 -40 13
-66 5 -44 8 -48 27 -42 12 3 73 9 138 12 l116 6 4 51 c2 28 3 53 1 56 -7 8
-129 8 -183 -1z m125 -27 c0 -10 -21 -15 -75 -19 -41 -2 -84 -5 -95 -6 -12 -1
-20 4 -20 13 0 11 16 17 60 21 90 9 130 6 130 -9z m3 -48 c-2 -12 -23 -16
-102 -20 -79 -5 -97 -3 -94 8 4 12 64 22 161 26 30 2 38 -1 35 -14z"/>
</g>
</svg>
