<?xml version="1.0" standalone="no"?>
<!DOCTYPE svg PUBLIC "-//W3C//DTD SVG 20010904//EN"
 "http://www.w3.org/TR/2001/REC-SVG-20010904/DTD/svg10.dtd">
<svg version="1.0" xmlns="http://www.w3.org/2000/svg"
 width="90.000000pt" height="92.000000pt" viewBox="0 0 90.000000 92.000000"
 preserveAspectRatio="xMidYMid meet">
<metadata>
Created by potrace 1.16, written by Peter Selinger 2001-2019
</metadata>
<g transform="translate(0.000000,92.000000) scale(0.100000,-0.100000)"
fill="#000000" stroke="none">
<path d="M594 823 c3 -21 9 -81 12 -134 l7 -96 -89 -12 c-168 -23 -179 -27
-127 -50 20 -9 42 -9 98 0 40 6 78 10 85 7 28 -9 -161 -229 -243 -283 -40 -25
-25 -31 25 -10 72 31 134 82 190 156 l53 70 3 -35 c4 -43 -14 -275 -22 -283
-3 -3 -24 -1 -48 5 -23 6 -43 10 -45 8 -3 -3 114 -126 121 -126 3 0 13 15 23
33 15 28 17 58 14 254 l-3 222 24 6 c12 2 52 6 87 7 72 3 87 17 46 44 -23 15
-36 16 -86 8 l-59 -10 0 51 c0 29 7 74 15 100 16 54 11 66 -36 91 -44 22 -52
18 -45 -23z"/>
<path d="M185 833 c12 -31 26 -152 23 -201 l-3 -47 -92 -15 c-51 -8 -93 -18
-93 -22 0 -14 51 -21 111 -15 32 3 59 4 59 2 0 -1 -12 -29 -26 -61 -31 -69
-102 -179 -138 -213 -34 -32 -33 -45 2 -27 38 20 109 93 139 144 14 23 27 42
30 42 8 0 -6 -186 -18 -240 -8 -35 -7 -53 7 -88 15 -41 18 -43 33 -28 13 14
17 47 19 202 l3 185 29 -33 c17 -18 30 -36 30 -40 0 -4 9 -12 20 -18 17 -9 22
-7 32 15 14 32 -7 57 -68 81 -41 16 -44 19 -44 55 0 37 1 38 45 44 24 4 52 13
62 21 16 12 16 15 3 24 -8 6 -34 9 -57 6 l-43 -6 0 58 c1 31 5 77 10 102 8 41
7 47 -16 68 -31 27 -70 31 -59 5z"/>
</g>
</svg>
