<?xml version="1.0" standalone="no"?>
<!DOCTYPE svg PUBLIC "-//W3C//DTD SVG 20010904//EN"
 "http://www.w3.org/TR/2001/REC-SVG-20010904/DTD/svg10.dtd">
<svg version="1.0" xmlns="http://www.w3.org/2000/svg"
 width="90.000000pt" height="92.000000pt" viewBox="0 0 90.000000 92.000000"
 preserveAspectRatio="xMidYMid meet">
<metadata>
Created by potrace 1.16, written by Peter Selinger 2001-2019
</metadata>
<g transform="translate(0.000000,92.000000) scale(0.100000,-0.100000)"
fill="#000000" stroke="none">
<path d="M496 872 c-2 -4 -1 -14 5 -22 5 -8 9 -43 9 -77 l0 -61 -75 -7 c-41
-4 -75 -11 -75 -16 0 -16 25 -22 87 -21 l63 2 0 -92 c0 -86 -2 -95 -36 -157
-43 -79 -58 -98 -136 -178 -65 -68 -65 -75 -3 -42 53 28 99 72 138 134 l32 50
3 -50 c2 -27 -2 -87 -8 -133 -11 -82 -2 -152 20 -152 27 0 35 38 37 174 1 78
2 157 2 176 1 34 2 33 57 -50 31 -47 70 -100 87 -118 28 -29 36 -32 91 -31
108 1 112 11 21 57 -91 45 -150 91 -212 164 l-43 50 0 103 0 103 43 7 c66 10
117 25 117 34 0 21 -51 30 -100 19 -27 -6 -53 -9 -56 -5 -4 4 -2 30 4 59 10
49 9 54 -10 71 -21 18 -53 23 -62 9z"/>
<path d="M175 728 c-27 -10 -67 -20 -88 -20 -39 0 -39 -1 -31 -32 11 -44 12
-213 2 -324 -8 -80 -7 -97 7 -119 14 -21 18 -23 28 -10 7 8 33 17 60 21 47 6
48 5 64 -29 18 -37 21 -39 39 -27 28 18 31 54 28 287 -3 236 -3 239 -26 257
-27 21 -20 21 -83 -4z m55 -103 c0 -64 0 -64 -27 -63 -16 0 -43 -3 -60 -7
l-33 -7 0 65 c0 73 1 74 78 76 l42 1 0 -65z m10 -145 c0 -49 -1 -50 -27 -49
-16 1 -48 -2 -72 -6 l-44 -8 6 33 c4 18 7 41 7 51 0 18 20 24 98 27 l32 2 0
-50z m-10 -137 l0 -58 -65 -2 -65 -3 0 55 0 54 43 4 c96 8 87 13 87 -50z"/>
<path d="M670 638 c0 -23 -15 -58 -44 -106 -25 -40 -42 -72 -38 -72 4 0 24 14
45 31 41 34 38 35 109 -22 30 -24 48 -18 48 16 0 19 -9 27 -47 41 -27 10 -50
19 -52 20 -2 2 10 21 27 42 35 44 30 65 -20 78 -26 6 -28 4 -28 -28z"/>
<path d="M380 608 c0 -19 -17 -64 -40 -105 -22 -40 -37 -73 -35 -73 3 0 23 16
44 36 l40 35 30 -33 c22 -25 33 -30 41 -22 19 19 7 47 -25 64 -17 8 -32 16
-34 17 -2 1 6 15 18 31 28 39 27 56 -4 70 -35 16 -35 16 -35 -20z"/>
</g>
</svg>
