<?xml version="1.0" standalone="no"?>
<!DOCTYPE svg PUBLIC "-//W3C//DTD SVG 20010904//EN"
 "http://www.w3.org/TR/2001/REC-SVG-20010904/DTD/svg10.dtd">
<svg version="1.0" xmlns="http://www.w3.org/2000/svg"
 width="96.000000pt" height="68.000000pt" viewBox="0 0 96.000000 68.000000"
 preserveAspectRatio="xMidYMid meet">
<metadata>
Created by potrace 1.16, written by Peter Selinger 2001-2019
</metadata>
<g transform="translate(0.000000,68.000000) scale(0.100000,-0.100000)"
fill="#000000" stroke="none">
<path d="M507 540 l6 -60 -29 0 c-51 0 -104 -12 -98 -22 3 -5 31 -8 63 -7 l56
3 3 -68 c3 -65 2 -69 -41 -129 -43 -60 -58 -75 -122 -126 -29 -22 -29 -23 -5
-16 37 11 98 54 131 94 15 19 32 32 35 28 4 -4 2 -45 -5 -91 -9 -65 -9 -90 0
-110 15 -32 25 -33 40 -4 8 15 10 55 6 129 -4 58 -4 109 -1 112 3 3 37 -30 75
-74 l70 -79 65 0 c35 0 64 4 64 8 0 9 -44 32 -62 32 -20 0 -126 70 -170 113
l-44 42 4 72 4 71 36 6 c78 14 92 18 92 28 0 7 -22 9 -66 4 l-66 -7 7 47 c7
49 -1 64 -37 64 -14 0 -15 -9 -11 -60z"/>
<path d="M205 495 c-22 -8 -54 -14 -72 -14 -31 -1 -32 -2 -21 -32 7 -21 9 -79
5 -165 -6 -126 -5 -134 13 -144 14 -7 20 -7 20 0 0 5 22 10 49 10 41 0 51 -4
56 -20 7 -22 22 -25 45 -10 12 7 16 43 20 182 5 164 4 174 -15 190 -23 20 -45
21 -100 3z m49 -41 c9 -8 16 -29 16 -45 0 -26 -3 -29 -34 -29 -19 0 -41 -3
-50 -6 -13 -5 -16 2 -16 39 0 42 2 46 28 50 15 2 30 5 34 6 4 0 14 -6 22 -15z
m16 -133 c0 -27 -3 -30 -51 -36 -27 -4 -52 -5 -54 -4 -2 2 -1 16 2 31 5 27 17
32 81 37 18 1 22 -4 22 -28z m0 -101 c0 -38 -1 -40 -32 -40 -18 0 -43 -3 -55
-6 -21 -6 -23 -3 -23 34 0 44 -6 41 93 50 14 2 17 -6 17 -38z"/>
<path d="M650 437 c0 -7 -15 -37 -34 -67 -36 -57 -39 -74 -9 -48 32 27 40 28
73 3 40 -30 60 -32 60 -7 0 18 -37 42 -65 42 -21 0 -19 14 5 35 24 22 26 41 4
49 -24 9 -34 7 -34 -7z"/>
<path d="M394 396 c-3 -17 -17 -46 -31 -64 -30 -40 -23 -54 12 -22 l25 23 23
-21 c13 -12 29 -22 36 -22 20 0 8 34 -17 46 -27 13 -28 22 -7 47 18 21 14 32
-14 40 -16 4 -21 -2 -27 -27z"/>
</g>
</svg>
