<?xml version="1.0" standalone="no"?>
<!DOCTYPE svg PUBLIC "-//W3C//DTD SVG 20010904//EN"
 "http://www.w3.org/TR/2001/REC-SVG-20010904/DTD/svg10.dtd">
<svg version="1.0" xmlns="http://www.w3.org/2000/svg"
 width="96.000000pt" height="68.000000pt" viewBox="0 0 96.000000 68.000000"
 preserveAspectRatio="xMidYMid meet">
<metadata>
Created by potrace 1.16, written by Peter Selinger 2001-2019
</metadata>
<g transform="translate(0.000000,68.000000) scale(0.100000,-0.100000)"
fill="#000000" stroke="none">
<path d="M550 356 c0 -32 -2 -34 -46 -40 -26 -3 -63 -6 -83 -6 -34 -1 -35 -1
-16 -16 19 -14 80 -13 121 3 30 11 11 -17 -55 -81 -37 -37 -81 -76 -97 -87
-16 -10 -23 -19 -16 -19 23 0 96 48 145 95 l47 45 0 -99 c0 -74 4 -102 15
-111 29 -24 36 -1 34 106 -2 57 0 106 3 109 2 3 29 -23 58 -57 78 -92 88 -99
135 -92 22 3 43 9 48 13 4 4 -20 20 -52 35 -52 24 -180 124 -189 148 -2 4 39
8 92 8 56 0 96 4 96 10 0 16 -48 23 -121 16 -68 -7 -69 -7 -69 17 0 22 -16 37
-41 37 -5 0 -9 -15 -9 -34z"/>
</g>
</svg>
