<?xml version="1.0" standalone="no"?>
<!DOCTYPE svg PUBLIC "-//W3C//DTD SVG 20010904//EN"
 "http://www.w3.org/TR/2001/REC-SVG-20010904/DTD/svg10.dtd">
<svg version="1.0" xmlns="http://www.w3.org/2000/svg"
 width="96.000000pt" height="68.000000pt" viewBox="0 0 96.000000 68.000000"
 preserveAspectRatio="xMidYMid meet">
<metadata>
Created by potrace 1.16, written by Peter Selinger 2001-2019
</metadata>
<g transform="translate(0.000000,68.000000) scale(0.100000,-0.100000)"
fill="#000000" stroke="none">
<path d="M410 469 c0 -6 9 -23 20 -38 l19 -28 -102 -6 c-88 -6 -104 -4 -114
10 -7 9 -14 15 -16 12 -19 -24 -47 -84 -47 -100 0 -36 47 -13 62 31 4 12 49
19 217 34 117 10 215 16 218 12 3 -3 -2 -17 -12 -32 -17 -27 -17 -27 6 -20 13
3 43 9 67 12 51 8 54 25 7 54 -33 20 -40 21 -122 11 -119 -15 -134 -14 -127 4
4 9 -6 22 -28 35 -38 23 -48 25 -48 9z"/>
</g>
</svg>
