<?xml version="1.0" standalone="no"?>
<!DOCTYPE svg PUBLIC "-//W3C//DTD SVG 20010904//EN"
 "http://www.w3.org/TR/2001/REC-SVG-20010904/DTD/svg10.dtd">
<svg version="1.0" xmlns="http://www.w3.org/2000/svg"
 width="96.000000pt" height="68.000000pt" viewBox="0 0 96.000000 68.000000"
 preserveAspectRatio="xMidYMid meet">
<metadata>
Created by potrace 1.16, written by Peter Selinger 2001-2019
</metadata>
<g transform="translate(0.000000,68.000000) scale(0.100000,-0.100000)"
fill="#000000" stroke="none">
<path d="M310 563 c-63 -8 -117 -17 -120 -20 -3 -2 3 -9 13 -14 22 -13 21 -44
-3 -98 -11 -24 -20 -50 -20 -58 0 -16 -1 -16 117 8 35 7 66 10 69 7 15 -16
-115 -162 -188 -211 -20 -13 -35 -27 -31 -30 12 -12 121 59 176 115 l58 59 -3
-98 c-3 -107 -4 -108 -68 -89 -21 7 -19 2 15 -28 87 -77 107 -47 98 152 l-6
132 56 0 c44 0 57 3 57 15 0 17 -31 26 -75 23 -27 -3 -30 0 -33 31 -5 55 5 81
32 81 35 0 56 10 56 26 0 17 -43 17 -200 -3z m64 -64 c3 -17 6 -44 6 -59 0
-25 -3 -27 -67 -37 -38 -6 -70 -9 -72 -7 -2 2 1 29 8 60 14 60 28 72 87 73 27
1 32 -3 38 -30z"/>
<path d="M685 564 c-22 -8 -58 -14 -80 -12 l-40 3 3 -260 c2 -143 5 -262 8
-264 22 -23 37 133 43 465 1 28 5 31 49 42 26 6 50 8 54 4 3 -4 0 -25 -8 -47
-9 -22 -18 -47 -20 -56 -3 -9 8 -30 26 -50 33 -37 46 -70 36 -95 -5 -13 -15
-15 -49 -10 l-42 7 53 -36 c30 -19 60 -35 68 -35 36 0 30 123 -8 153 -13 10
-33 27 -45 38 -26 21 -28 14 40 94 33 40 34 61 5 69 -32 8 -48 7 -93 -10z"/>
</g>
</svg>
