<?xml version="1.0" standalone="no"?>
<!DOCTYPE svg PUBLIC "-//W3C//DTD SVG 20010904//EN"
 "http://www.w3.org/TR/2001/REC-SVG-20010904/DTD/svg10.dtd">
<svg version="1.0" xmlns="http://www.w3.org/2000/svg"
 width="96.000000pt" height="68.000000pt" viewBox="0 0 96.000000 68.000000"
 preserveAspectRatio="xMidYMid meet">
<metadata>
Created by potrace 1.16, written by Peter Selinger 2001-2019
</metadata>
<g transform="translate(0.000000,68.000000) scale(0.100000,-0.100000)"
fill="#000000" stroke="none">
<path d="M216 538 c16 -30 49 -58 66 -58 26 0 23 35 -4 54 -27 20 -72 22 -62
4z"/>
<path d="M150 401 c0 -14 71 -72 83 -68 25 8 18 37 -15 57 -34 21 -68 26 -68
11z"/>
<path d="M265 258 c-16 -24 -48 -61 -72 -84 -48 -45 -52 -61 -24 -95 l19 -24
58 118 c59 122 67 158 19 85z"/>
</g>
</svg>
