<?xml version="1.0" standalone="no"?>
<!DOCTYPE svg PUBLIC "-//W3C//DTD SVG 20010904//EN"
 "http://www.w3.org/TR/2001/REC-SVG-20010904/DTD/svg10.dtd">
<svg version="1.0" xmlns="http://www.w3.org/2000/svg"
 width="96.000000pt" height="68.000000pt" viewBox="0 0 96.000000 68.000000"
 preserveAspectRatio="xMidYMid meet">
<metadata>
Created by potrace 1.16, written by Peter Selinger 2001-2019
</metadata>
<g transform="translate(0.000000,68.000000) scale(0.100000,-0.100000)"
fill="#000000" stroke="none">
<path d="M506 588 c4 -7 16 -23 26 -34 l19 -21 -73 -7 c-62 -7 -74 -5 -85 10
-15 20 -13 21 -36 -29 -32 -71 -10 -110 26 -44 l18 33 150 17 c82 10 154 15
159 12 6 -4 2 -17 -8 -33 -15 -23 -15 -25 -1 -20 9 4 37 10 63 13 57 9 59 26
6 53 -31 15 -49 18 -78 12 -20 -4 -56 -10 -78 -13 -36 -4 -41 -2 -37 13 3 9
-3 24 -12 34 -20 19 -70 23 -59 4z"/>
</g>
</svg>
