<?xml version="1.0" standalone="no"?>
<!DOCTYPE svg PUBLIC "-//W3C//DTD SVG 20010904//EN"
 "http://www.w3.org/TR/2001/REC-SVG-20010904/DTD/svg10.dtd">
<svg version="1.0" xmlns="http://www.w3.org/2000/svg"
 width="96.000000pt" height="68.000000pt" viewBox="0 0 96.000000 68.000000"
 preserveAspectRatio="xMidYMid meet">
<metadata>
Created by potrace 1.16, written by Peter Selinger 2001-2019
</metadata>
<g transform="translate(0.000000,68.000000) scale(0.100000,-0.100000)"
fill="#000000" stroke="none">
<path d="M669 226 c-7 -7 -202 -29 -251 -28 -47 1 -48 1 -33 -22 8 -12 18 -45
21 -72 9 -65 21 -89 39 -74 7 6 52 13 100 17 84 5 89 4 106 -18 32 -42 58 3
74 127 6 47 5 51 -20 62 -29 13 -30 14 -36 8z m1 -48 c0 -21 -5 -23 -55 -25
-55 -2 -60 2 -49 31 4 12 20 16 55 16 44 0 49 -2 49 -22z m-145 -9 c8 -26 9
-25 -47 -33 -46 -7 -48 -6 -48 18 0 18 6 26 23 29 50 10 66 7 72 -14z m145
-63 l0 -33 -56 -1 c-54 0 -55 0 -52 26 3 27 13 31 96 41 7 0 12 -12 12 -33z
m-140 -11 c0 -14 -6 -25 -12 -26 -7 0 -26 -2 -41 -4 -18 -2 -30 1 -34 11 -10
26 4 39 46 42 38 2 41 1 41 -23z"/>
</g>
</svg>
