<?xml version="1.0" standalone="no"?>
<!DOCTYPE svg PUBLIC "-//W3C//DTD SVG 20010904//EN"
 "http://www.w3.org/TR/2001/REC-SVG-20010904/DTD/svg10.dtd">
<svg version="1.0" xmlns="http://www.w3.org/2000/svg"
 width="90.000000pt" height="92.000000pt" viewBox="0 0 90.000000 92.000000"
 preserveAspectRatio="xMidYMid meet">
<metadata>
Created by potrace 1.16, written by Peter Selinger 2001-2019
</metadata>
<g transform="translate(0.000000,92.000000) scale(0.100000,-0.100000)"
fill="#000000" stroke="none">
<path d="M580 790 c-19 -5 -120 -21 -225 -35 -104 -15 -201 -29 -215 -32 -24
-4 -24 -5 -6 -19 24 -17 59 -18 142 -2 35 6 67 9 70 5 6 -6 -35 -97 -58 -129
-10 -14 -10 -20 2 -32 13 -14 20 -13 61 1 77 28 83 20 75 -105 -7 -109 -20
-177 -35 -186 -4 -3 -22 -1 -40 4 -39 11 -39 4 1 -37 17 -18 28 -36 24 -40 -9
-10 -125 -22 -213 -22 -110 -1 -131 -15 -65 -45 35 -16 43 -16 132 0 61 10
184 19 340 23 208 5 245 8 245 21 0 8 -16 23 -36 33 -34 16 -44 16 -165 2 -71
-8 -142 -15 -157 -15 -27 0 -28 1 -13 22 9 12 16 33 16 45 0 18 6 23 24 23 30
0 104 32 141 62 l28 22 37 -43 c62 -72 85 -26 26 52 l-33 44 28 57 c31 62 30
72 -6 86 -17 6 -33 4 -60 -10 -20 -10 -54 -21 -76 -25 -42 -7 -48 -15 -24 -35
9 -7 29 -30 45 -51 l30 -37 -24 -29 c-13 -16 -48 -42 -77 -57 l-52 -29 7 114
c4 66 13 125 21 143 25 50 -19 84 -86 66 -23 -6 -44 -9 -47 -6 -3 3 9 29 27
57 17 28 29 55 26 60 -8 12 24 18 154 26 69 5 116 12 118 19 3 9 -56 47 -69
43 -1 -1 -19 -5 -38 -9z m74 -307 c-10 -42 -20 -48 -49 -25 l-26 21 28 15 c43
23 54 20 47 -11z"/>
<path d="M245 493 c-17 -9 -51 -16 -78 -16 -41 1 -47 -2 -41 -16 6 -15 17 -60
33 -140 6 -34 31 -56 31 -28 0 10 18 16 61 21 42 5 58 11 51 18 -7 7 -2 29 14
71 30 76 30 85 -2 97 -32 13 -33 12 -69 -7z m23 -83 c-6 -59 -5 -58 -46 -66
l-32 -6 0 55 c0 59 4 63 59 66 22 1 23 -1 19 -49z"/>
</g>
</svg>
