<?xml version="1.0" standalone="no"?>
<!DOCTYPE svg PUBLIC "-//W3C//DTD SVG 20010904//EN"
 "http://www.w3.org/TR/2001/REC-SVG-20010904/DTD/svg10.dtd">
<svg version="1.0" xmlns="http://www.w3.org/2000/svg"
 width="90.000000pt" height="92.000000pt" viewBox="0 0 90.000000 92.000000"
 preserveAspectRatio="xMidYMid meet">
<metadata>
Created by potrace 1.16, written by Peter Selinger 2001-2019
</metadata>
<g transform="translate(0.000000,92.000000) scale(0.100000,-0.100000)"
fill="#000000" stroke="none">
<path d="M160 763 c0 -20 99 -103 115 -97 27 11 15 66 -18 82 -38 18 -97 27
-97 15z"/>
<path d="M625 694 c-22 -8 -82 -23 -133 -34 -72 -14 -99 -16 -118 -8 -32 15
-37 7 -25 -39 12 -44 13 -222 2 -303 -11 -78 16 -154 42 -119 9 11 37 18 97
23 47 4 101 9 120 12 33 5 37 3 59 -36 22 -39 24 -40 44 -27 38 25 47 74 37
194 -9 99 -8 156 6 269 5 39 3 43 -29 63 -40 24 -48 25 -102 5z m63 -136 l3
-87 -32 9 c-24 7 -53 5 -108 -9 -42 -10 -91 -21 -108 -25 l-33 -5 0 83 0 83
88 21 c48 11 110 20 137 19 l50 -2 3 -87z m0 -195 l-3 -88 -50 0 c-27 -1 -89
-7 -138 -14 -48 -8 -89 -12 -92 -9 -3 2 -2 39 1 81 l7 77 41 1 c23 0 82 9 131
19 50 10 94 19 98 19 4 1 6 -38 5 -86z"/>
<path d="M60 561 c0 -5 22 -32 48 -60 56 -59 85 -62 80 -7 -2 24 -11 35 -38
47 -46 22 -90 32 -90 20z"/>
<path d="M257 423 c-13 -21 -32 -53 -41 -71 -9 -18 -40 -57 -67 -85 -44 -46
-50 -56 -44 -84 7 -40 40 -82 53 -68 5 6 15 28 22 50 7 22 31 85 55 140 61
146 71 195 22 118z"/>
</g>
</svg>
