<?xml version="1.0" standalone="no"?>
<!DOCTYPE svg PUBLIC "-//W3C//DTD SVG 20010904//EN"
 "http://www.w3.org/TR/2001/REC-SVG-20010904/DTD/svg10.dtd">
<svg version="1.0" xmlns="http://www.w3.org/2000/svg"
 width="96.000000pt" height="68.000000pt" viewBox="0 0 96.000000 68.000000"
 preserveAspectRatio="xMidYMid meet">
<metadata>
Created by potrace 1.16, written by Peter Selinger 2001-2019
</metadata>
<g transform="translate(0.000000,68.000000) scale(0.100000,-0.100000)"
fill="#000000" stroke="none">
<path d="M593 403 c-8 -3 -13 -26 -13 -63 l0 -58 -67 -7 c-38 -4 -86 -11 -108
-15 l-40 -7 27 -13 c20 -10 40 -10 90 -1 105 18 98 25 98 -88 0 -55 3 -106 6
-115 20 -52 44 26 44 142 l0 82 110 0 c108 0 132 8 90 30 -13 7 -52 8 -110 4
l-90 -7 1 29 c0 16 4 38 8 49 14 32 -11 53 -46 38z"/>
</g>
</svg>
