<?xml version="1.0" standalone="no"?>
<!DOCTYPE svg PUBLIC "-//W3C//DTD SVG 20010904//EN"
 "http://www.w3.org/TR/2001/REC-SVG-20010904/DTD/svg10.dtd">
<svg version="1.0" xmlns="http://www.w3.org/2000/svg"
 width="90.000000pt" height="92.000000pt" viewBox="0 0 90.000000 92.000000"
 preserveAspectRatio="xMidYMid meet">
<metadata>
Created by potrace 1.16, written by Peter Selinger 2001-2019
</metadata>
<g transform="translate(0.000000,92.000000) scale(0.100000,-0.100000)"
fill="#000000" stroke="none">
<path d="M535 805 c-33 -8 -90 -17 -127 -21 -38 -3 -68 -10 -68 -15 0 -14 37
-29 74 -29 l36 0 0 -47 c0 -27 -4 -53 -8 -60 -4 -6 -31 -15 -60 -19 -56 -7
-64 -17 -31 -34 15 -8 29 -8 51 -1 17 6 32 11 33 11 2 0 -5 -30 -14 -67 -19
-76 -25 -79 -123 -82 -55 -1 -60 -10 -20 -32 24 -14 37 -15 112 -3 47 7 167
16 268 20 133 5 182 10 182 19 0 25 -57 38 -130 31 -39 -4 -70 -5 -70 -1 0 13
43 95 55 105 19 16 9 36 -29 59 -26 16 -39 19 -67 12 -19 -5 -50 -11 -71 -14
l-36 -5 9 30 c4 17 11 33 14 36 3 3 -1 15 -9 27 -15 22 -14 23 62 35 42 7 88
17 102 22 24 9 24 10 6 24 -24 17 -61 17 -141 -1z m71 -209 c3 -8 0 -40 -6
-70 -13 -62 -15 -63 -106 -68 l-51 -3 18 65 c11 36 19 68 19 72 0 7 37 13 93
16 16 1 30 -4 33 -12z"/>
<path d="M170 687 c-30 -10 -81 -19 -112 -19 -57 0 -57 0 -42 -22 8 -13 20
-66 28 -120 7 -53 15 -99 18 -101 3 -3 18 1 34 10 16 8 40 15 54 15 14 0 41 3
61 6 30 5 36 10 32 25 -6 22 12 100 34 146 19 40 13 58 -24 70 -21 7 -41 5
-83 -10z m36 -104 c-4 -38 -11 -72 -15 -76 -13 -13 -93 -29 -102 -20 -4 4 -9
39 -11 78 l-3 70 30 6 c17 4 47 7 69 8 l39 1 -7 -67z"/>
<path d="M605 348 c-81 -23 -203 -38 -229 -28 -37 14 -49 4 -31 -24 9 -13 20
-61 26 -108 13 -99 21 -117 41 -100 8 6 68 17 134 23 65 7 121 14 123 15 2 2
-2 10 -8 18 -10 12 -9 26 4 68 10 29 24 61 33 70 12 15 13 20 2 33 -24 29 -63
43 -95 33z m-1 -88 c-1 -93 -3 -95 -100 -109 -47 -7 -87 -11 -89 -9 -1 2 -5
33 -7 70 l-6 67 72 11 c39 6 76 13 81 15 6 2 19 3 30 2 17 -2 20 -9 19 -47z"/>
</g>
</svg>
