<?xml version="1.0" standalone="no"?>
<!DOCTYPE svg PUBLIC "-//W3C//DTD SVG 20010904//EN"
 "http://www.w3.org/TR/2001/REC-SVG-20010904/DTD/svg10.dtd">
<svg version="1.0" xmlns="http://www.w3.org/2000/svg"
 width="90.000000pt" height="92.000000pt" viewBox="0 0 90.000000 92.000000"
 preserveAspectRatio="xMidYMid meet">
<metadata>
Created by potrace 1.16, written by Peter Selinger 2001-2019
</metadata>
<g transform="translate(0.000000,92.000000) scale(0.100000,-0.100000)"
fill="#000000" stroke="none">
<path d="M466 888 c-3 -7 -6 -37 -9 -66 -2 -29 -9 -58 -14 -63 -6 -6 -36 -13
-67 -16 -71 -7 -69 -26 3 -33 l52 -5 -32 -65 c-22 -43 -57 -89 -105 -137 -78
-77 -78 -92 -1 -43 25 16 49 25 52 21 2 -5 10 -44 16 -87 14 -95 21 -107 55
-92 16 8 28 8 35 1 14 -14 23 -104 15 -148 -7 -36 -8 -37 -44 -30 l-36 7 39
-44 c21 -24 42 -44 46 -46 36 -15 73 223 41 261 -14 16 -12 17 19 17 19 0 40
-5 47 -12 19 -19 36 6 62 87 13 39 28 76 34 84 8 10 5 18 -13 32 -36 29 -66
33 -129 16 -75 -21 -148 -31 -162 -22 -7 4 1 19 21 43 17 19 46 65 63 102 18
36 37 65 44 62 6 -2 55 -53 107 -113 53 -59 105 -114 116 -120 16 -8 38 -8 85
1 35 7 64 16 64 20 0 4 -36 22 -79 40 -44 17 -93 42 -111 55 l-31 23 50 17
c28 9 51 21 51 26 0 5 -12 16 -26 26 -27 17 -27 17 -58 -20 l-32 -38 -47 41
c-26 23 -45 45 -42 50 2 4 26 10 52 14 27 3 55 11 63 16 13 9 13 11 0 20 -19
12 -53 12 -105 0 -22 -5 -41 -7 -44 -5 -2 3 3 23 12 46 19 48 17 53 -24 74
-23 12 -30 13 -33 3z m124 -420 c0 -18 -3 -49 -6 -69 -6 -35 -7 -36 -73 -48
-36 -7 -75 -14 -86 -16 -18 -4 -21 1 -23 29 l-2 33 67 7 c83 8 113 16 113 26
0 18 -44 21 -106 9 -55 -11 -67 -11 -74 1 -16 26 2 37 73 47 121 17 117 17
117 -19z"/>
<path d="M205 828 c-2 -7 -6 -31 -10 -53 -8 -54 -94 -226 -150 -300 -25 -33
-45 -63 -45 -68 0 -15 73 48 112 96 l38 49 0 -129 c0 -70 -5 -162 -12 -205 -9
-60 -9 -83 2 -107 7 -17 16 -31 21 -31 20 0 26 53 32 260 4 163 2 219 -7 232
-11 15 -6 31 31 105 25 48 49 93 54 99 6 7 2 20 -12 38 -22 28 -47 34 -54 14z"/>
<path d="M270 655 c0 -19 56 -85 69 -83 27 5 25 44 -5 67 -24 19 -64 29 -64
16z"/>
<path d="M320 236 c0 -13 -18 -48 -40 -77 -22 -29 -38 -55 -36 -57 12 -12 146
99 146 121 0 14 -32 36 -52 37 -12 0 -18 -8 -18 -24z"/>
<path d="M590 252 c0 -5 30 -37 66 -72 63 -60 67 -63 80 -45 19 26 18 41 -6
65 -30 30 -140 71 -140 52z"/>
</g>
</svg>
