<?xml version="1.0" standalone="no"?>
<!DOCTYPE svg PUBLIC "-//W3C//DTD SVG 20010904//EN"
 "http://www.w3.org/TR/2001/REC-SVG-20010904/DTD/svg10.dtd">
<svg version="1.0" xmlns="http://www.w3.org/2000/svg"
 width="96.000000pt" height="68.000000pt" viewBox="0 0 96.000000 68.000000"
 preserveAspectRatio="xMidYMid meet">
<metadata>
Created by potrace 1.16, written by Peter Selinger 2001-2019
</metadata>
<g transform="translate(0.000000,68.000000) scale(0.100000,-0.100000)"
fill="#000000" stroke="none">
<path d="M490 579 c0 -47 -16 -69 -53 -70 -18 0 -41 -4 -52 -9 -15 -6 -8 -9
28 -9 56 -1 59 -12 17 -67 -42 -55 -81 -93 -112 -110 -44 -23 -32 -37 12 -14
52 27 57 26 65 -12 4 -18 11 -47 16 -64 9 -30 11 -31 54 -26 l45 5 0 -66 c0
-55 -3 -65 -19 -70 -11 -2 -24 0 -30 6 -23 23 -10 -5 16 -33 31 -36 47 -38 67
-8 23 33 22 153 -1 168 -14 9 -8 10 29 6 l47 -5 31 62 31 62 -23 18 c-16 14
-32 17 -58 13 -19 -3 -73 -9 -120 -12 l-85 -7 33 32 c18 18 44 53 58 77 14 24
30 44 34 44 5 0 50 -38 100 -85 l91 -85 57 0 c84 0 96 14 31 35 -82 28 -140
55 -134 64 2 5 21 12 41 15 36 7 40 22 11 40 -13 8 -22 5 -45 -17 -15 -15 -32
-27 -38 -27 -5 0 -27 15 -48 34 l-40 33 54 6 c29 4 55 9 59 12 14 15 -24 21
-70 12 -56 -11 -69 -5 -51 23 16 27 15 47 -4 54 -33 13 -44 6 -44 -25z m120
-275 c0 -10 -11 -14 -37 -12 -21 1 -62 -2 -90 -6 -44 -7 -54 -5 -59 8 -4 9 -5
19 -2 21 2 2 40 8 83 13 81 8 105 3 105 -24z m-10 -39 c0 -19 -35 -33 -104
-41 -48 -6 -54 -4 -58 14 -6 20 18 27 150 41 6 0 12 -6 12 -14z"/>
<path d="M251 538 c-19 -61 -55 -122 -117 -201 -32 -38 -49 -67 -41 -67 17 0
63 34 94 70 l23 25 0 -92 c0 -50 -5 -114 -12 -141 -10 -45 -9 -54 9 -83 20
-31 21 -31 32 -11 18 33 31 333 16 352 -11 12 -5 27 33 84 49 74 49 98 0 104
-21 3 -26 -3 -37 -40z"/>
<path d="M342 420 c23 -31 58 -41 58 -16 0 18 -38 46 -63 46 -16 0 -16 -3 5
-30z"/>
<path d="M366 115 c-15 -25 -31 -45 -36 -45 -6 0 -10 -5 -10 -10 0 -14 47 11
90 49 29 25 33 32 20 41 -26 17 -37 11 -64 -35z"/>
<path d="M674 114 c50 -46 81 -54 81 -19 0 22 -45 50 -95 59 l-35 6 49 -46z"/>
</g>
</svg>
