<?xml version="1.0" standalone="no"?>
<!DOCTYPE svg PUBLIC "-//W3C//DTD SVG 20010904//EN"
 "http://www.w3.org/TR/2001/REC-SVG-20010904/DTD/svg10.dtd">
<svg version="1.0" xmlns="http://www.w3.org/2000/svg"
 width="90.000000pt" height="92.000000pt" viewBox="0 0 90.000000 92.000000"
 preserveAspectRatio="xMidYMid meet">
<metadata>
Created by potrace 1.16, written by Peter Selinger 2001-2019
</metadata>
<g transform="translate(0.000000,92.000000) scale(0.100000,-0.100000)"
fill="#000000" stroke="none">
<path d="M574 804 c-28 -19 -82 -46 -120 -60 l-69 -24 57 3 c51 2 58 0 68 -21
23 -52 17 -57 -101 -67 -93 -9 -111 -17 -70 -35 24 -9 45 -9 101 0 39 7 73 10
75 9 2 -2 6 -20 10 -40 l7 -37 -51 -7 c-27 -4 -64 -4 -81 0 -31 7 -42 -9 -20
-31 6 -6 17 -47 25 -92 16 -95 21 -105 43 -98 10 2 32 7 50 11 31 6 32 5 32
-24 0 -32 -9 -37 -74 -43 -16 -2 -31 -8 -33 -15 -5 -14 57 -28 86 -20 14 3 20
-2 24 -22 3 -14 0 -29 -5 -32 -6 -4 -64 -10 -129 -14 -66 -4 -119 -10 -119
-14 0 -4 13 -14 28 -23 24 -14 38 -16 83 -8 30 6 147 13 262 16 114 4 207 10
207 14 0 14 -40 42 -62 43 -13 1 -67 -2 -120 -7 l-98 -7 0 29 c0 25 5 30 31
36 17 3 42 6 55 6 28 0 42 19 23 31 -8 5 -36 9 -62 9 -47 0 -48 1 -45 28 3 26
5 27 60 27 31 0 60 4 64 7 3 4 18 42 33 85 15 43 31 86 35 95 6 13 -2 21 -33
38 -39 20 -44 20 -100 5 -32 -8 -61 -15 -63 -15 -2 0 -2 17 0 39 l4 38 66 7
c37 3 91 6 120 6 60 0 71 20 22 40 -24 10 -46 10 -100 1 -95 -15 -103 -15 -97
8 5 22 -1 34 -26 48 -16 8 -9 13 45 32 81 30 87 36 57 60 -31 26 -35 26 -95
-15z m124 -311 c-3 -25 -6 -26 -60 -28 -32 -1 -58 2 -58 6 0 4 -3 14 -6 22 -7
18 12 24 79 26 47 1 48 0 45 -26z m-168 -17 c0 -21 -6 -24 -42 -28 -24 -3 -44
-4 -45 -4 -1 1 -4 13 -8 29 -7 27 -7 27 44 27 47 0 51 -2 51 -24z m154 -73
c-6 -29 -10 -32 -53 -35 -25 -3 -47 -3 -49 -2 -2 1 -5 14 -6 28 -3 27 0 28 84
39 32 4 31 5 24 -30z m-154 -17 c0 -31 -3 -34 -37 -39 -20 -4 -38 -5 -39 -4 0
1 -4 16 -7 34 -6 31 -5 32 31 36 20 2 40 4 45 5 4 1 7 -13 7 -32z"/>
<path d="M205 749 c-27 -10 -76 -18 -108 -19 -57 0 -57 0 -43 -23 9 -12 20
-47 26 -77 6 -30 15 -65 20 -78 9 -19 12 -21 30 -10 36 23 45 -2 48 -137 l4
-125 -27 -10 c-46 -18 -47 -16 -44 88 l4 97 -34 3 c-29 3 -33 1 -26 -15 4 -10
11 -58 14 -107 7 -96 3 -104 -44 -92 -20 5 -25 3 -25 -13 0 -11 12 -29 26 -40
l26 -21 42 24 c22 13 81 41 131 62 102 42 113 50 99 64 -7 7 -22 6 -47 -5 -20
-8 -39 -15 -42 -15 -3 0 -5 27 -5 60 0 57 1 60 28 66 43 9 72 23 72 34 0 13
-41 13 -75 0 l-26 -10 2 60 c2 57 3 60 28 60 24 0 26 4 27 43 0 23 11 61 23
84 l21 42 -29 16 c-35 17 -31 18 -96 -6z m44 -61 c-2 -69 -11 -82 -67 -94 -58
-13 -55 -16 -67 63 l-7 42 44 9 c24 6 55 10 71 11 24 1 27 -2 26 -31z"/>
</g>
</svg>
