<?xml version="1.0" standalone="no"?>
<!DOCTYPE svg PUBLIC "-//W3C//DTD SVG 20010904//EN"
 "http://www.w3.org/TR/2001/REC-SVG-20010904/DTD/svg10.dtd">
<svg version="1.0" xmlns="http://www.w3.org/2000/svg"
 width="96.000000pt" height="68.000000pt" viewBox="0 0 96.000000 68.000000"
 preserveAspectRatio="xMidYMid meet">
<metadata>
Created by potrace 1.16, written by Peter Selinger 2001-2019
</metadata>
<g transform="translate(0.000000,68.000000) scale(0.100000,-0.100000)"
fill="#000000" stroke="none">
<path d="M558 493 c-14 -3 -15 -9 -8 -28 12 -32 6 -34 -89 -42 -45 -3 -81 -10
-81 -16 0 -6 32 -7 90 -3 l90 7 0 -32 c0 -24 3 -30 16 -25 9 3 20 6 25 6 5 0
9 14 9 30 l0 30 63 1 c34 0 82 4 107 8 74 13 21 25 -76 17 l-84 -6 0 25 c0 14
-4 25 -9 25 -5 0 -15 2 -23 4 -7 2 -21 2 -30 -1z"/>
</g>
</svg>
