<?xml version="1.0" standalone="no"?>
<!DOCTYPE svg PUBLIC "-//W3C//DTD SVG 20010904//EN"
 "http://www.w3.org/TR/2001/REC-SVG-20010904/DTD/svg10.dtd">
<svg version="1.0" xmlns="http://www.w3.org/2000/svg"
 width="96.000000pt" height="68.000000pt" viewBox="0 0 96.000000 68.000000"
 preserveAspectRatio="xMidYMid meet">
<metadata>
Created by potrace 1.16, written by Peter Selinger 2001-2019
</metadata>
<g transform="translate(0.000000,68.000000) scale(0.100000,-0.100000)"
fill="#000000" stroke="none">
<path d="M413 566 c-84 -12 -155 -25 -159 -28 -3 -4 4 -12 16 -18 14 -8 46 -9
96 -5 l74 7 0 -40 c0 -38 -1 -40 -37 -46 -21 -3 -53 -6 -70 -6 -18 0 -33 -4
-33 -9 0 -17 40 -23 97 -16 l54 7 -3 -44 -3 -43 -120 -8 c-173 -11 -225 -17
-225 -27 0 -17 64 -21 173 -10 61 6 124 13 140 16 19 4 27 1 27 -8 0 -17 -105
-120 -147 -144 -38 -21 -39 -25 -14 -48 19 -17 27 -16 179 15 l159 33 31 -32
c17 -18 38 -32 47 -32 23 0 18 44 -9 73 -27 29 -97 67 -123 67 -14 0 -12 -5
12 -26 37 -32 27 -39 -69 -48 -39 -4 -93 -10 -120 -13 -62 -8 -58 0 39 73 41
31 75 59 75 63 0 4 -5 12 -10 17 -13 13 98 24 247 24 106 0 126 8 73 30 -23
10 -58 10 -166 0 -74 -6 -138 -10 -140 -7 -7 7 -8 76 -1 83 3 3 38 8 79 11 40
3 75 7 78 10 14 13 -34 23 -92 19 l-68 -5 0 38 c0 44 12 51 95 51 92 1 122 19
64 39 -41 14 -63 13 -246 -13z"/>
</g>
</svg>
