<?xml version="1.0" standalone="no"?>
<!DOCTYPE svg PUBLIC "-//W3C//DTD SVG 20010904//EN"
 "http://www.w3.org/TR/2001/REC-SVG-20010904/DTD/svg10.dtd">
<svg version="1.0" xmlns="http://www.w3.org/2000/svg"
 width="90.000000pt" height="92.000000pt" viewBox="0 0 90.000000 92.000000"
 preserveAspectRatio="xMidYMid meet">
<metadata>
Created by potrace 1.16, written by Peter Selinger 2001-2019
</metadata>
<g transform="translate(0.000000,92.000000) scale(0.100000,-0.100000)"
fill="#000000" stroke="none">
<path d="M644 803 c3 -16 9 -51 12 -79 l7 -52 -64 -9 c-35 -4 -66 -5 -67 0 -2
4 1 22 7 40 10 28 9 34 -10 50 -12 9 -32 17 -46 17 -23 0 -24 -3 -17 -27 4
-16 8 -44 8 -63 1 -33 -1 -35 -36 -38 -21 -2 -38 -7 -38 -12 0 -13 34 -30 59
-30 20 0 21 -5 21 -139 0 -153 1 -151 -66 -151 -42 0 -44 -14 -3 -30 25 -11
43 -11 92 -1 34 7 128 15 210 18 81 3 147 9 147 13 0 11 -33 37 -56 44 -12 4
-40 2 -63 -3 l-42 -9 2 118 c1 65 4 132 7 149 4 30 6 31 53 31 26 0 51 5 54
11 11 17 -27 38 -68 39 -32 0 -38 3 -34 18 3 9 8 34 11 54 6 34 4 38 -23 53
-47 24 -64 20 -57 -12z m16 -211 c0 -37 -1 -38 -37 -38 -21 0 -52 -4 -69 -8
-31 -8 -32 -8 -29 25 2 19 4 37 4 41 1 7 41 14 99 16 31 2 32 1 32 -36z m0
-100 c0 -38 0 -38 -42 -38 -24 0 -55 -3 -70 -8 -27 -8 -28 -7 -28 28 0 35 1
36 38 37 29 1 85 11 100 18 1 0 2 -16 2 -37z m-10 -107 c0 -48 3 -46 -97 -58
-33 -3 -33 -3 -33 38 l0 42 58 10 c31 6 60 11 65 12 4 0 7 -19 7 -44z"/>
<path d="M275 784 c-33 -8 -93 -15 -133 -16 -61 -2 -71 -5 -66 -18 19 -46 24
-113 14 -219 -7 -75 -7 -118 -1 -124 7 -7 30 -4 68 6 32 9 83 17 113 19 l55 3
3 -63 c3 -70 -12 -160 -31 -186 -10 -13 -18 -14 -46 -6 -19 5 -37 8 -39 5 -2
-2 14 -23 36 -46 67 -71 96 -37 122 144 10 67 21 130 25 139 11 28 -37 52 -90
45 l-45 -7 0 39 0 39 50 7 c81 11 76 38 -7 37 -42 -1 -44 0 -41 26 3 23 9 28
46 34 23 4 47 10 53 14 18 11 -11 24 -53 24 -36 0 -38 1 -38 34 0 33 1 34 55
41 61 7 76 19 46 34 -23 13 -19 13 -96 -5z m-55 -83 c0 -32 -4 -40 -22 -45
-51 -13 -58 -9 -58 37 0 42 0 42 40 45 l40 2 0 -39z m-2 -108 c-3 -24 -8 -28
-39 -31 -34 -3 -37 -1 -41 27 -4 31 -4 31 39 31 42 0 44 -1 41 -27z m2 -97 c0
-37 -12 -46 -61 -46 -27 0 -29 2 -29 40 l0 40 45 0 c44 0 45 0 45 -34z"/>
<path d="M236 358 c20 -35 46 -68 54 -68 11 0 20 27 14 44 -5 13 -46 36 -65
36 -6 0 -7 -6 -3 -12z"/>
<path d="M160 344 c0 -17 43 -74 56 -74 23 0 17 47 -8 64 -23 16 -48 21 -48
10z"/>
<path d="M16 306 c-27 -66 -17 -149 13 -112 17 20 25 110 13 132 -9 16 -12 14
-26 -20z"/>
<path d="M95 289 c28 -53 48 -60 53 -16 3 21 -4 31 -30 47 -18 11 -36 20 -41
20 -4 0 4 -23 18 -51z"/>
<path d="M496 226 c-3 -13 -28 -49 -56 -79 -27 -30 -50 -58 -50 -61 0 -20 178
106 180 126 0 7 -52 38 -63 38 -3 0 -8 -11 -11 -24z"/>
<path d="M650 246 c0 -8 101 -140 117 -153 9 -7 20 -10 24 -7 10 6 12 55 3 78
-10 25 -144 102 -144 82z"/>
</g>
</svg>
