<?xml version="1.0" standalone="no"?>
<!DOCTYPE svg PUBLIC "-//W3C//DTD SVG 20010904//EN"
 "http://www.w3.org/TR/2001/REC-SVG-20010904/DTD/svg10.dtd">
<svg version="1.0" xmlns="http://www.w3.org/2000/svg"
 width="90.000000pt" height="92.000000pt" viewBox="0 0 90.000000 92.000000"
 preserveAspectRatio="xMidYMid meet">
<metadata>
Created by potrace 1.16, written by Peter Selinger 2001-2019
</metadata>
<g transform="translate(0.000000,92.000000) scale(0.100000,-0.100000)"
fill="#000000" stroke="none">
<path d="M538 850 c-3 -28 -8 -53 -11 -56 -3 -3 -24 -8 -46 -11 -23 -3 -41 -9
-41 -13 0 -11 26 -20 56 -20 21 0 23 -2 14 -27 -10 -28 -10 -28 21 5 28 32 36
34 110 39 44 3 82 10 85 14 2 4 -8 15 -24 23 -22 11 -38 12 -72 5 -23 -5 -44
-8 -46 -6 -2 1 3 16 12 31 13 26 13 31 -2 48 -32 34 -51 23 -56 -32z"/>
<path d="M248 864 c-4 -3 2 -24 12 -47 l19 -42 -47 -8 c-26 -4 -59 -5 -74 -2
-35 6 -35 -5 -3 -35 23 -21 29 -23 58 -13 76 26 74 26 87 -12 15 -46 30 -45
30 4 0 36 3 40 35 51 48 16 45 34 -4 25 l-38 -6 -7 39 c-4 30 -11 41 -28 46
-29 7 -33 7 -40 0z"/>
<path d="M510 681 c0 -5 9 -20 20 -33 l19 -25 -77 -13 c-42 -7 -81 -15 -87
-18 -19 -12 48 -30 79 -21 52 14 146 26 146 19 0 -3 -10 -16 -23 -28 -19 -18
-28 -20 -62 -12 -57 13 -75 11 -38 -6 17 -7 34 -18 37 -23 4 -5 -22 -23 -56
-40 -53 -27 -57 -31 -32 -31 16 0 53 11 82 25 51 23 54 24 87 8 19 -9 35 -20
35 -23 0 -4 -70 -15 -155 -25 -134 -16 -155 -21 -148 -34 4 -9 8 -47 7 -86 0
-83 -31 -157 -92 -223 -47 -50 -39 -54 19 -9 48 37 93 110 110 182 7 28 16 67
21 87 9 39 20 45 107 51 32 2 35 -1 42 -33 9 -43 -3 -60 -43 -60 -27 0 -29 2
-17 16 11 14 10 18 -6 30 -27 20 -45 17 -45 -6 0 -10 -9 -43 -20 -71 -12 -28
-19 -53 -17 -55 2 -2 16 10 32 26 23 24 37 30 72 30 41 0 43 -1 43 -30 0 -30
-7 -35 -68 -42 -42 -5 -28 -23 21 -26 44 -3 47 -5 47 -32 0 -32 -6 -35 -128
-46 -58 -5 -71 -9 -62 -19 18 -21 58 -26 120 -15 32 6 121 12 197 15 76 2 143
4 150 4 23 2 1 30 -31 41 -23 7 -54 7 -102 0 -105 -15 -104 -15 -104 24 l0 34
60 7 c57 7 80 18 66 33 -4 3 -31 6 -61 5 -54 -1 -55 -1 -55 26 0 27 3 29 58
35 67 8 92 20 76 36 -13 13 -36 15 -91 5 l-42 -7 9 31 c5 18 6 39 3 47 -4 11
10 14 80 14 47 0 88 4 92 10 3 5 -6 16 -19 25 -19 13 -36 15 -67 10 -29 -5
-40 -4 -35 4 4 6 -5 23 -20 38 l-26 26 23 18 c20 15 21 19 10 33 -12 14 -9 16
27 16 47 0 63 17 36 37 -18 13 -44 13 -111 -4 -18 -4 -23 -1 -23 16 0 12 -1
21 -3 21 -1 0 -17 4 -35 9 -17 5 -32 6 -32 2z"/>
<path d="M225 630 c-30 -11 -63 -16 -84 -13 -31 5 -33 4 -25 -18 5 -13 9 -98
9 -189 -1 -127 -5 -181 -19 -233 -15 -56 -16 -73 -6 -98 7 -16 16 -29 21 -29
23 0 31 60 41 290 l11 250 41 8 c23 5 45 5 50 1 5 -4 -3 -28 -18 -54 l-27 -46
21 -45 c27 -56 21 -78 -21 -72 l-30 5 43 -44 43 -44 18 22 c32 40 20 106 -29
160 l-25 26 57 53 57 54 -23 18 c-26 21 -39 21 -105 -2z"/>
</g>
</svg>
