<?xml version="1.0" standalone="no"?>
<!DOCTYPE svg PUBLIC "-//W3C//DTD SVG 20010904//EN"
 "http://www.w3.org/TR/2001/REC-SVG-20010904/DTD/svg10.dtd">
<svg version="1.0" xmlns="http://www.w3.org/2000/svg"
 width="96.000000pt" height="68.000000pt" viewBox="0 0 96.000000 68.000000"
 preserveAspectRatio="xMidYMid meet">
<metadata>
Created by potrace 1.16, written by Peter Selinger 2001-2019
</metadata>
<g transform="translate(0.000000,68.000000) scale(0.100000,-0.100000)"
fill="#000000" stroke="none">
<path d="M180 523 c0 -15 55 -63 72 -63 26 0 23 35 -4 54 -23 16 -68 22 -68 9z"/>
<path d="M110 384 c0 -18 56 -64 77 -64 34 0 30 35 -4 48 -48 18 -73 24 -73
16z"/>
<path d="M230 228 c-18 -24 -51 -59 -73 -80 -39 -35 -40 -37 -27 -67 15 -38
37 -40 51 -3 6 15 17 41 26 57 44 84 64 128 60 132 -3 2 -19 -15 -37 -39z"/>
</g>
</svg>
