<?xml version="1.0" standalone="no"?>
<!DOCTYPE svg PUBLIC "-//W3C//DTD SVG 20010904//EN"
 "http://www.w3.org/TR/2001/REC-SVG-20010904/DTD/svg10.dtd">
<svg version="1.0" xmlns="http://www.w3.org/2000/svg"
 width="90.000000pt" height="92.000000pt" viewBox="0 0 90.000000 92.000000"
 preserveAspectRatio="xMidYMid meet">
<metadata>
Created by potrace 1.16, written by Peter Selinger 2001-2019
</metadata>
<g transform="translate(0.000000,92.000000) scale(0.100000,-0.100000)"
fill="#000000" stroke="none">
<path d="M703 846 c4 -11 -3 -13 -32 -9 -40 6 -191 -24 -191 -37 0 -11 45 -21
64 -14 11 4 19 -2 26 -21 15 -40 14 -42 -35 -49 -25 -4 -45 -11 -45 -16 0 -13
39 -23 66 -16 22 6 24 4 24 -33 l0 -39 -50 -7 c-27 -4 -50 -11 -50 -15 0 -17
39 -21 102 -10 34 5 80 10 101 10 l37 0 0 -212 c0 -117 -4 -219 -8 -225 -6 -9
-17 -10 -40 -4 l-31 9 40 -53 c42 -56 59 -60 77 -21 6 14 11 164 13 385 l3
363 -24 14 c-33 17 -54 18 -47 0z m16 -155 c1 -73 -1 -82 -14 -71 -9 8 -29 10
-50 7 -35 -6 -35 -6 -35 32 0 38 1 39 45 45 25 4 45 11 45 16 0 10 -26 20 -55
20 -18 0 -24 7 -27 30 -4 28 -2 30 36 38 50 10 54 3 55 -117z"/>
<path d="M255 804 c-31 -9 -69 -12 -99 -9 l-49 6 9 -33 c14 -53 11 -412 -5
-509 -12 -73 -12 -90 0 -114 18 -37 35 -42 43 -13 4 13 10 112 13 221 6 189 7
197 25 191 11 -3 52 2 91 11 40 9 83 19 97 21 24 6 25 6 5 20 -12 9 -30 12
-47 8 -27 -5 -28 -4 -28 35 0 39 2 41 29 41 17 0 33 5 36 10 8 12 -42 33 -57
24 -7 -5 -9 1 -5 16 3 13 2 29 -4 36 -7 8 2 13 32 17 48 6 59 14 39 27 -21 13
-66 11 -125 -6z m6 -70 c5 -15 8 -28 6 -30 -1 -2 -22 -7 -45 -12 l-42 -10 0
39 c0 38 1 39 35 39 29 0 37 -5 46 -26z m-20 -74 c27 0 29 -3 29 -35 0 -19 -3
-35 -7 -35 -5 -1 -26 -4 -49 -9 -37 -7 -40 -6 -38 13 1 12 3 34 3 50 1 21 5
27 17 22 9 -3 29 -6 45 -6z"/>
<path d="M370 532 c0 -4 -13 -22 -29 -39 -22 -24 -34 -30 -52 -26 -19 5 -21 3
-15 -13 4 -10 12 -44 17 -74 16 -89 17 -91 46 -84 23 6 25 5 18 -17 -12 -36
-45 -76 -87 -105 -48 -33 -43 -40 11 -18 49 19 124 100 118 125 -5 18 18 33
34 23 5 -3 8 -30 7 -61 -2 -47 1 -58 21 -74 32 -26 139 -27 171 -1 l23 19 -19
48 -18 49 -9 -37 c-11 -46 -37 -61 -90 -54 -43 6 -60 22 -51 50 3 9 7 29 8 45
3 30 33 43 47 21 13 -21 27 0 48 72 10 35 22 72 26 81 4 11 -1 22 -20 34 -23
15 -32 16 -80 4 -61 -15 -64 -36 -4 -26 34 5 39 4 39 -14 0 -15 -10 -22 -45
-31 -58 -15 -58 -29 1 -29 38 0 45 -3 40 -16 -3 -9 -6 -19 -6 -23 0 -4 -33
-13 -72 -20 -40 -6 -83 -14 -95 -17 -20 -4 -23 0 -23 31 0 31 3 35 28 35 15 0
34 4 42 10 12 8 12 10 -3 16 -9 3 -28 3 -42 0 -21 -5 -25 -3 -25 17 0 19 9 28
45 41 46 18 55 32 33 54 -13 13 -38 16 -38 4z"/>
</g>
</svg>
