<?xml version="1.0" standalone="no"?>
<!DOCTYPE svg PUBLIC "-//W3C//DTD SVG 20010904//EN"
 "http://www.w3.org/TR/2001/REC-SVG-20010904/DTD/svg10.dtd">
<svg version="1.0" xmlns="http://www.w3.org/2000/svg"
 width="96.000000pt" height="68.000000pt" viewBox="0 0 96.000000 68.000000"
 preserveAspectRatio="xMidYMid meet">
<metadata>
Created by potrace 1.16, written by Peter Selinger 2001-2019
</metadata>
<g transform="translate(0.000000,68.000000) scale(0.100000,-0.100000)"
fill="#000000" stroke="none">
<path d="M616 575 c-96 -14 -135 -25 -83 -25 41 0 57 -10 57 -36 0 -21 -5 -24
-35 -24 -19 0 -35 -4 -35 -10 0 -5 16 -10 36 -10 33 0 35 -2 32 -27 -3 -24 -8
-28 -40 -31 -21 -2 -38 -8 -38 -13 0 -10 132 -5 188 7 l23 5 -3 -163 -3 -163
-27 2 c-35 2 -35 -6 1 -41 26 -24 31 -26 50 -14 20 12 21 20 22 248 1 129 3
245 4 258 2 25 -19 53 -38 51 -7 -1 -56 -7 -111 -14z m98 -42 c3 -21 6 -54 6
-74 l0 -37 -45 3 c-25 2 -45 6 -45 9 0 3 0 15 0 26 0 14 9 21 35 26 41 7 37
24 -6 24 -19 0 -29 5 -29 15 0 8 0 18 0 23 -1 4 14 10 32 13 18 4 36 7 39 8 4
0 9 -16 13 -36z"/>
<path d="M290 550 c-25 -4 -62 -5 -84 -2 -37 5 -38 4 -30 -19 13 -34 8 -326
-5 -376 -13 -48 1 -93 29 -93 21 0 30 37 30 125 0 34 3 89 6 122 l7 61 46 7
c25 3 63 9 84 12 49 7 58 23 12 23 -34 0 -36 2 -33 28 2 21 9 28 31 30 15 2
27 8 27 13 0 5 -12 9 -27 9 -22 0 -28 5 -29 24 -1 18 5 25 35 33 l36 10 -45 0
c-25 0 -65 -3 -90 -7z m19 -42 c9 -25 -5 -36 -46 -37 -18 -1 -23 5 -23 23 0
23 12 32 48 35 7 0 16 -9 21 -21z m9 -79 c2 -20 -2 -28 -20 -33 -49 -13 -58
-8 -58 30 0 35 1 35 38 32 32 -3 37 -7 40 -29z"/>
<path d="M381 335 c-13 -14 -32 -25 -43 -25 -15 0 -18 -5 -14 -16 4 -9 11 -36
17 -61 9 -35 15 -42 29 -38 10 3 21 2 24 -3 8 -13 -34 -67 -67 -86 -16 -9 -27
-19 -24 -22 16 -16 127 74 127 103 0 7 9 13 20 13 17 0 20 -7 20 -45 0 -57 18
-67 108 -63 58 3 67 6 70 23 1 11 -4 29 -12 40 -14 20 -15 19 -25 -8 -10 -24
-15 -27 -60 -27 -27 0 -52 4 -55 8 -3 5 -3 26 1 46 6 36 7 37 37 32 30 -6 31
-5 53 56 16 47 19 65 10 70 -15 10 -64 9 -97 -2 -22 -7 -21 -8 13 -9 52 -1 48
-25 -5 -38 l-43 -11 38 -1 c29 -1 37 -5 37 -20 0 -21 -13 -25 -112 -36 -57 -6
-58 -6 -58 19 0 21 5 26 24 26 14 0 28 5 32 11 5 9 -4 10 -30 5 -33 -6 -37 -5
-34 11 2 11 20 24 46 33 43 15 51 33 16 38 -10 1 -30 -9 -43 -23z"/>
</g>
</svg>
