<?xml version="1.0" standalone="no"?>
<!DOCTYPE svg PUBLIC "-//W3C//DTD SVG 20010904//EN"
 "http://www.w3.org/TR/2001/REC-SVG-20010904/DTD/svg10.dtd">
<svg version="1.0" xmlns="http://www.w3.org/2000/svg"
 width="90.000000pt" height="92.000000pt" viewBox="0 0 90.000000 92.000000"
 preserveAspectRatio="xMidYMid meet">
<metadata>
Created by potrace 1.16, written by Peter Selinger 2001-2019
</metadata>
<g transform="translate(0.000000,92.000000) scale(0.100000,-0.100000)"
fill="#000000" stroke="none">
<path d="M478 875 c-11 -14 -54 -37 -113 -60 -78 -31 -102 -36 -136 -30 -41 7
-42 7 -34 -16 4 -13 10 -60 12 -105 10 -170 -45 -333 -152 -452 -31 -34 -53
-62 -48 -62 5 0 29 13 54 28 95 61 166 191 194 355 3 21 9 36 13 33 4 -2 77 4
162 15 85 10 165 18 178 19 19 0 21 3 13 18 -7 14 -2 29 20 65 16 26 29 49 29
52 0 3 -14 14 -31 24 -23 14 -38 17 -58 11 -22 -8 -104 -23 -292 -55 -23 -3
-25 -1 -21 21 3 16 13 26 31 30 22 5 92 24 244 67 43 13 46 21 15 41 -43 26
-62 27 -80 1z m102 -167 c0 -46 -12 -68 -36 -68 -12 0 -53 -6 -91 -14 -37 -8
-96 -17 -130 -21 l-63 -7 0 40 c0 46 -5 44 160 72 147 25 160 25 160 -2z"/>
<path d="M538 303 c2 -142 5 -265 8 -273 10 -29 25 18 31 94 l6 72 98 10 c54
6 102 13 106 17 3 4 -2 14 -13 22 -19 16 -54 15 -146 -1 l-38 -7 0 40 0 40 75
12 c77 13 90 22 55 41 -15 8 -35 7 -75 -4 l-55 -14 0 42 0 43 76 11 c82 11 96
18 74 33 -15 10 -53 8 -118 -7 l-33 -7 6 36 c6 29 3 37 -13 46 -48 25 -47 27
-44 -246z"/>
<path d="M375 533 c4 -10 10 -30 12 -44 5 -24 2 -26 -66 -39 -91 -17 -89 -36
3 -33 l66 2 0 -29 c0 -25 -4 -30 -24 -30 -36 0 -126 -22 -126 -31 0 -21 68
-22 133 -3 16 5 18 1 15 -28 -3 -30 -7 -35 -58 -52 -30 -10 -79 -19 -107 -20
-61 -1 -68 -14 -23 -46 27 -19 31 -20 52 -6 13 8 47 24 76 35 l53 21 -27 -50
c-15 -28 -47 -69 -72 -91 -33 -31 -38 -39 -20 -34 48 15 104 64 131 113 27 50
37 104 51 284 5 67 5 68 -24 83 -39 20 -54 19 -45 -2z"/>
</g>
</svg>
