<?xml version="1.0" standalone="no"?>
<!DOCTYPE svg PUBLIC "-//W3C//DTD SVG 20010904//EN"
 "http://www.w3.org/TR/2001/REC-SVG-20010904/DTD/svg10.dtd">
<svg version="1.0" xmlns="http://www.w3.org/2000/svg"
 width="90.000000pt" height="92.000000pt" viewBox="0 0 90.000000 92.000000"
 preserveAspectRatio="xMidYMid meet">
<metadata>
Created by potrace 1.16, written by Peter Selinger 2001-2019
</metadata>
<g transform="translate(0.000000,92.000000) scale(0.100000,-0.100000)"
fill="#000000" stroke="none">
<path d="M511 850 c-7 -26 -32 -83 -57 -126 -24 -42 -42 -80 -39 -83 3 -3 34
24 68 60 l62 66 91 6 c123 9 151 22 104 47 -14 7 -42 5 -104 -9 l-86 -19 21
29 c25 36 20 53 -19 67 -28 10 -29 9 -41 -38z"/>
<path d="M216 838 c-7 -37 -66 -139 -104 -180 -14 -15 -23 -30 -20 -33 8 -9
84 51 114 90 20 27 33 35 48 31 23 -6 144 9 154 19 23 23 -89 29 -145 8 -13
-5 -11 2 11 27 l28 34 -22 18 c-35 28 -57 23 -64 -14z"/>
<path d="M558 713 c15 -28 74 -83 88 -83 19 0 28 39 13 57 -13 15 -40 28 -86
39 -23 6 -24 5 -15 -13z"/>
<path d="M240 692 c0 -12 64 -72 78 -72 19 0 14 48 -5 58 -28 15 -73 23 -73
14z"/>
<path d="M290 579 c-39 -13 -71 -17 -109 -13 -50 5 -53 4 -45 -13 14 -29 17
-262 4 -336 -9 -53 -9 -71 0 -82 19 -23 30 -19 110 45 41 33 77 60 80 60 3 0
14 -14 25 -30 27 -40 55 -40 55 1 0 44 -14 63 -59 84 -46 20 -58 16 -42 -14
10 -18 7 -22 -26 -36 -21 -9 -50 -19 -65 -22 -28 -5 -28 -5 -28 51 0 64 0 64
105 69 67 4 59 -8 103 137 22 71 19 81 -27 104 -22 11 -35 10 -81 -5z m54 -38
c3 -5 3 -22 0 -37 -6 -28 -7 -29 -75 -31 -66 -1 -69 0 -69 22 0 29 7 33 62 44
60 12 76 12 82 2z m-12 -122 c-8 -33 -11 -34 -70 -43 -35 -5 -64 -7 -66 -5 -2
2 -1 19 1 37 5 29 9 32 42 33 20 1 50 4 66 8 17 4 31 6 33 5 2 -1 -1 -17 -6
-35z"/>
<path d="M615 558 c-41 -13 -74 -18 -105 -14 l-45 6 3 -252 c3 -256 6 -289 21
-272 19 20 31 122 32 267 2 200 4 208 54 223 22 7 52 13 68 13 l27 1 0 -102
c0 -57 -4 -109 -9 -116 -6 -10 -19 -11 -46 -6 l-38 7 42 -42 c22 -22 48 -41
56 -41 28 0 46 58 55 183 l9 122 -25 23 c-29 26 -22 26 -99 0z"/>
</g>
</svg>
