<?xml version="1.0" standalone="no"?>
<!DOCTYPE svg PUBLIC "-//W3C//DTD SVG 20010904//EN"
 "http://www.w3.org/TR/2001/REC-SVG-20010904/DTD/svg10.dtd">
<svg version="1.0" xmlns="http://www.w3.org/2000/svg"
 width="96.000000pt" height="68.000000pt" viewBox="0 0 96.000000 68.000000"
 preserveAspectRatio="xMidYMid meet">
<metadata>
Created by potrace 1.16, written by Peter Selinger 2001-2019
</metadata>
<g transform="translate(0.000000,68.000000) scale(0.100000,-0.100000)"
fill="#000000" stroke="none">
<path d="M254 518 c4 -29 1 -80 -6 -113 l-13 -60 -67 -3 c-69 -3 -80 -10 -53
-32 10 -8 30 -10 59 -6 l45 7 -6 -34 c-5 -31 -2 -34 37 -52 l41 -19 -23 -22
c-13 -12 -50 -36 -83 -53 -33 -17 -53 -31 -44 -31 29 0 83 23 128 53 l45 30
39 -22 c27 -16 42 -20 49 -13 17 17 1 42 -32 53 l-29 11 18 36 c10 21 24 54
30 75 9 26 18 37 32 37 10 0 19 5 19 10 0 6 -5 10 -11 10 -7 0 -17 6 -23 14
-6 8 -21 17 -33 21 -20 6 -23 3 -23 -23 0 -27 -4 -30 -37 -34 -21 -3 -40 -4
-42 -2 -1 1 9 38 23 81 32 97 32 107 1 121 -43 20 -47 16 -41 -40z m96 -190
c0 -15 -37 -98 -43 -98 -20 0 -67 25 -67 35 0 35 20 64 47 68 53 8 63 7 63 -5z"/>
</g>
</svg>
