<?xml version="1.0" standalone="no"?>
<!DOCTYPE svg PUBLIC "-//W3C//DTD SVG 20010904//EN"
 "http://www.w3.org/TR/2001/REC-SVG-20010904/DTD/svg10.dtd">
<svg version="1.0" xmlns="http://www.w3.org/2000/svg"
 width="96.000000pt" height="68.000000pt" viewBox="0 0 96.000000 68.000000"
 preserveAspectRatio="xMidYMid meet">
<metadata>
Created by potrace 1.16, written by Peter Selinger 2001-2019
</metadata>
<g transform="translate(0.000000,68.000000) scale(0.100000,-0.100000)"
fill="#000000" stroke="none">
<path d="M250 507 c0 -70 -12 -142 -25 -155 -3 -3 -35 -8 -70 -10 -70 -5 -79
-13 -41 -37 18 -12 33 -14 65 -6 37 8 40 7 31 -9 -18 -33 -11 -48 30 -66 40
-18 40 -18 20 -39 -10 -11 -44 -33 -75 -48 -30 -16 -55 -31 -55 -34 0 -17 89
10 136 42 l55 36 26 -21 c32 -25 59 -26 66 0 5 19 -28 50 -53 50 -7 0 -10 3
-8 8 2 4 14 35 27 70 18 47 30 64 47 68 23 6 34 24 14 24 -5 0 -19 9 -30 20
-31 31 -95 25 -68 -7 14 -18 8 -23 -35 -30 l-36 -6 31 93 c34 102 33 103 -29
122 -22 6 -23 4 -23 -65z m90 -196 c-19 -69 -45 -87 -84 -58 -25 19 -6 64 31
73 15 3 33 7 38 9 21 7 23 4 15 -24z"/>
<path d="M610 500 c-14 -4 -50 -8 -80 -9 l-55 -1 3 -180 c2 -99 0 -180 -5
-181 -4 -1 -25 -3 -46 -4 -50 -4 -56 -12 -21 -26 21 -8 44 -8 84 1 30 6 121
14 203 17 81 3 147 10 147 15 0 16 -46 26 -94 21 l-48 -6 5 49 c4 27 9 97 13
157 3 59 10 110 16 113 5 3 2 14 -8 25 -18 20 -67 24 -114 9z m60 -125 l0
-102 -52 -7 c-99 -11 -98 -11 -98 38 l0 44 70 7 c39 4 70 12 70 17 0 7 -23 9
-65 5 -35 -3 -67 -2 -70 3 -3 5 -3 27 1 49 6 38 9 41 38 42 17 1 42 4 56 8 46
14 50 6 50 -104z m-8 -177 c-2 -29 -5 -54 -6 -54 0 -1 -30 -3 -66 -5 l-65 -4
0 50 0 50 50 6 c100 12 93 15 87 -43z"/>
</g>
</svg>
