<?xml version="1.0" standalone="no"?>
<!DOCTYPE svg PUBLIC "-//W3C//DTD SVG 20010904//EN"
 "http://www.w3.org/TR/2001/REC-SVG-20010904/DTD/svg10.dtd">
<svg version="1.0" xmlns="http://www.w3.org/2000/svg"
 width="96.000000pt" height="68.000000pt" viewBox="0 0 96.000000 68.000000"
 preserveAspectRatio="xMidYMid meet">
<metadata>
Created by potrace 1.16, written by Peter Selinger 2001-2019
</metadata>
<g transform="translate(0.000000,68.000000) scale(0.100000,-0.100000)"
fill="#000000" stroke="none">
<path d="M590 598 c0 -52 -11 -66 -53 -73 -33 -6 -37 -9 -23 -17 10 -6 26 -8
37 -5 20 5 20 -1 2 -51 -9 -23 23 -2 40 27 18 30 49 41 118 41 22 0 39 4 39 9
0 14 -56 24 -90 16 -30 -7 -30 -6 -18 19 13 29 6 40 -29 51 -19 5 -23 3 -23
-17z"/>
<path d="M320 585 c0 -4 7 -19 15 -34 8 -16 11 -31 8 -35 -4 -3 -33 -6 -65 -6
-59 0 -73 -11 -38 -30 13 -7 33 -7 62 0 57 13 53 13 66 -15 15 -33 34 -33 26
1 -7 29 7 44 44 44 12 0 22 5 22 10 0 7 -13 8 -34 5 -32 -6 -34 -5 -40 29 -6
32 -10 36 -36 36 -17 0 -30 -2 -30 -5z"/>
</g>
</svg>
