<?xml version="1.0" standalone="no"?>
<!DOCTYPE svg PUBLIC "-//W3C//DTD SVG 20010904//EN"
 "http://www.w3.org/TR/2001/REC-SVG-20010904/DTD/svg10.dtd">
<svg version="1.0" xmlns="http://www.w3.org/2000/svg"
 width="96.000000pt" height="68.000000pt" viewBox="0 0 96.000000 68.000000"
 preserveAspectRatio="xMidYMid meet">
<metadata>
Created by potrace 1.16, written by Peter Selinger 2001-2019
</metadata>
<g transform="translate(0.000000,68.000000) scale(0.100000,-0.100000)"
fill="#000000" stroke="none">
<path d="M520 370 c-14 -4 -41 -9 -60 -9 -57 -2 -66 -12 -51 -61 10 -33 16
-40 29 -35 9 4 51 10 92 12 l76 5 11 37 c10 31 10 38 -4 49 -19 13 -55 14 -93
2z m46 -25 c12 -29 -16 -45 -77 -45 -51 0 -59 3 -59 19 0 18 8 21 123 40 4 0
10 -6 13 -14z"/>
</g>
</svg>
