<?xml version="1.0" standalone="no"?>
<!DOCTYPE svg PUBLIC "-//W3C//DTD SVG 20010904//EN"
 "http://www.w3.org/TR/2001/REC-SVG-20010904/DTD/svg10.dtd">
<svg version="1.0" xmlns="http://www.w3.org/2000/svg"
 width="90.000000pt" height="92.000000pt" viewBox="0 0 90.000000 92.000000"
 preserveAspectRatio="xMidYMid meet">
<metadata>
Created by potrace 1.16, written by Peter Selinger 2001-2019
</metadata>
<g transform="translate(0.000000,92.000000) scale(0.100000,-0.100000)"
fill="#000000" stroke="none">
<path d="M315 824 c-32 -27 -142 -84 -162 -84 -6 0 -15 -5 -19 -12 -5 -8 8 -9
48 -5 59 7 68 1 68 -43 0 -20 -3 -21 -147 -46 -57 -10 -103 -21 -103 -25 0 -3
13 -12 28 -18 22 -9 44 -8 116 9 49 12 94 19 102 16 11 -4 14 -32 14 -125 0
-135 9 -121 -98 -142 -71 -13 -84 -24 -49 -40 18 -8 36 -7 77 5 30 9 57 16 62
16 4 0 8 -20 8 -44 0 -43 0 -44 -44 -55 -25 -6 -72 -11 -105 -11 -34 0 -61 -3
-61 -7 0 -14 54 -63 71 -63 9 0 34 7 55 16 22 9 99 35 173 58 76 23 136 47
139 55 5 15 -15 13 -120 -12 l-56 -14 -4 34 c-6 46 2 55 58 60 27 2 60 6 73 9
23 5 23 5 5 26 -16 16 -27 19 -64 15 -25 -3 -52 -8 -60 -11 -13 -5 -15 11 -15
114 0 91 3 123 14 129 7 5 53 12 102 16 49 3 89 10 89 15 0 4 -12 15 -26 25
-27 17 -50 17 -133 -1 -32 -7 -34 -6 -28 17 4 14 1 29 -8 39 -13 15 -9 18 35
34 61 22 66 29 38 55 -28 27 -36 26 -73 -5z"/>
<path d="M670 764 c-40 -18 -66 -23 -95 -19 l-40 5 3 -332 c2 -332 5 -383 21
-374 18 11 22 69 29 358 4 163 9 299 12 302 11 10 100 30 107 23 4 -4 -3 -39
-16 -77 -21 -65 -21 -110 -1 -110 13 0 60 -101 60 -128 0 -24 -2 -25 -60 -19
l-60 5 58 -44 c31 -25 58 -49 60 -55 2 -5 10 -9 18 -9 21 0 44 54 44 101 0 72
-39 133 -119 186 -5 3 84 126 103 142 22 18 20 28 -6 45 -39 24 -61 24 -118 0z"/>
<path d="M400 585 c0 -43 -1 -44 -42 -55 -31 -9 -38 -14 -27 -21 8 -5 25 -9
37 -9 22 0 23 -3 17 -40 -9 -52 1 -51 26 4 16 37 25 45 57 53 44 10 50 36 9
41 -15 2 -27 9 -26 15 3 26 -2 34 -26 45 -25 11 -25 11 -25 -33z"/>
<path d="M100 571 c0 -7 7 -26 16 -42 8 -17 13 -33 10 -36 -3 -3 -25 -8 -51
-10 -50 -6 -54 -12 -24 -38 17 -16 24 -17 51 -7 38 14 44 11 51 -28 10 -48 29
-36 26 16 -3 41 0 48 24 60 36 19 34 28 -3 21 -26 -6 -30 -4 -30 16 0 31 -11
44 -43 52 -18 5 -27 3 -27 -4z"/>
</g>
</svg>
