<?xml version="1.0" standalone="no"?>
<!DOCTYPE svg PUBLIC "-//W3C//DTD SVG 20010904//EN"
 "http://www.w3.org/TR/2001/REC-SVG-20010904/DTD/svg10.dtd">
<svg version="1.0" xmlns="http://www.w3.org/2000/svg"
 width="96.000000pt" height="68.000000pt" viewBox="0 0 96.000000 68.000000"
 preserveAspectRatio="xMidYMid meet">
<metadata>
Created by potrace 1.16, written by Peter Selinger 2001-2019
</metadata>
<g transform="translate(0.000000,68.000000) scale(0.100000,-0.100000)"
fill="#000000" stroke="none">
<path d="M535 553 c16 -106 16 -110 -8 -117 -53 -14 -66 -8 -69 31 -2 25 -8
39 -19 41 -13 2 -17 -9 -22 -50 -8 -63 0 -74 45 -60 59 19 202 35 206 23 2 -6
12 -11 22 -11 13 0 21 13 30 50 13 54 8 70 -21 70 -16 0 -19 -7 -19 -42 l0
-43 -48 0 -47 0 3 59 c4 61 -4 76 -40 76 -13 0 -16 -6 -13 -27z"/>
<path d="M245 463 c-50 -8 -96 -17 -103 -19 -26 -8 0 -24 39 -24 30 0 39 -4
39 -17 0 -28 -40 -87 -99 -148 -29 -30 -51 -55 -47 -55 9 0 76 36 103 56 16
11 23 12 29 3 5 -8 3 -9 -6 -4 -9 6 -10 2 -5 -16 20 -64 24 -70 47 -64 13 3
41 9 62 13 37 7 40 10 53 61 7 30 11 56 8 59 -7 7 -53 6 -103 -3 l-43 -8 32
51 c25 41 29 55 20 66 -10 12 -2 15 49 21 68 8 84 20 45 35 -14 6 -27 9 -28 9
-1 -1 -42 -8 -92 -16z m75 -212 c0 -32 -4 -40 -22 -45 -41 -10 -57 -6 -64 17
-18 50 -6 67 47 67 39 0 39 0 39 -39z"/>
<path d="M540 354 c-52 -7 -106 -13 -119 -13 -20 -1 -21 -3 -11 -16 27 -32
-25 -173 -80 -216 -16 -13 -30 -27 -30 -31 0 -18 21 -5 68 42 52 51 102 138
102 176 0 18 9 23 57 33 31 6 87 11 124 11 65 0 96 11 63 24 -22 8 -63 6 -174
-10z"/>
<path d="M567 246 c-3 -29 -15 -72 -26 -94 -20 -40 -97 -112 -120 -112 -6 0
-11 -4 -11 -10 0 -27 79 8 124 56 20 21 36 41 36 44 0 3 4 11 8 17 6 9 28 -7
75 -52 l68 -65 59 0 c32 0 61 4 64 8 3 5 -25 19 -62 32 -68 24 -152 69 -152
82 0 4 20 17 45 29 60 30 71 44 52 64 -22 22 -34 19 -52 -12 -48 -89 -87 -92
-68 -6 8 33 8 52 1 60 -22 27 -35 13 -41 -41z"/>
<path d="M470 215 c0 -15 27 -45 41 -45 20 0 8 37 -16 48 -20 9 -25 9 -25 -3z"/>
</g>
</svg>
