<?xml version="1.0" standalone="no"?>
<!DOCTYPE svg PUBLIC "-//W3C//DTD SVG 20010904//EN"
 "http://www.w3.org/TR/2001/REC-SVG-20010904/DTD/svg10.dtd">
<svg version="1.0" xmlns="http://www.w3.org/2000/svg"
 width="96.000000pt" height="68.000000pt" viewBox="0 0 96.000000 68.000000"
 preserveAspectRatio="xMidYMid meet">
<metadata>
Created by potrace 1.16, written by Peter Selinger 2001-2019
</metadata>
<g transform="translate(0.000000,68.000000) scale(0.100000,-0.100000)"
fill="#000000" stroke="none">
<path d="M576 278 c-8 -32 -7 -40 3 -34 17 11 -3 -40 -43 -107 -22 -37 -43
-67 -47 -67 -5 0 -23 -9 -41 -21 -18 -12 -24 -18 -13 -14 11 4 25 8 32 8 7 0
10 4 7 9 -3 4 1 8 9 8 18 0 57 34 57 49 0 7 5 9 12 5 6 -4 8 -3 5 3 -4 6 2 18
13 28 21 19 28 41 10 30 -16 -10 -11 7 6 19 18 14 23 81 7 97 -7 7 -12 4 -17
-13z"/>
<path d="M700 240 c13 -8 12 -10 -2 -10 -11 0 -18 -8 -18 -20 0 -11 5 -20 10
-20 6 0 9 6 8 12 -2 7 7 14 20 16 26 4 29 17 6 26 -25 9 -41 7 -24 -4z"/>
<path d="M490 198 c11 -12 23 -18 27 -14 5 4 -1 14 -11 22 -30 21 -39 17 -16
-8z"/>
<path d="M645 110 c28 -27 56 -50 63 -50 7 0 11 -4 8 -9 -8 -13 33 -21 79 -15
52 6 55 11 9 20 -22 3 -44 11 -51 16 -7 5 -18 6 -24 2 -7 -4 -9 -3 -5 4 3 6
-8 15 -29 22 -19 6 -35 16 -35 22 0 6 -3 8 -7 5 -3 -4 -12 2 -20 13 -8 11 -19
20 -26 20 -7 0 11 -22 38 -50z"/>
</g>
</svg>
