<?xml version="1.0" standalone="no"?>
<!DOCTYPE svg PUBLIC "-//W3C//DTD SVG 20010904//EN"
 "http://www.w3.org/TR/2001/REC-SVG-20010904/DTD/svg10.dtd">
<svg version="1.0" xmlns="http://www.w3.org/2000/svg"
 width="96.000000pt" height="68.000000pt" viewBox="0 0 96.000000 68.000000"
 preserveAspectRatio="xMidYMid meet">
<metadata>
Created by potrace 1.16, written by Peter Selinger 2001-2019
</metadata>
<g transform="translate(0.000000,68.000000) scale(0.100000,-0.100000)"
fill="#000000" stroke="none">
<path d="M540 533 c5 -41 -1 -50 -37 -60 l-38 -10 38 -2 c30 -1 37 -5 37 -21
0 -30 47 -28 52 2 2 14 11 24 23 26 51 7 65 13 59 23 -4 7 -21 9 -40 6 -30 -5
-33 -3 -36 21 -2 21 -9 28 -31 30 -23 3 -28 0 -27 -15z"/>
</g>
</svg>
