<?xml version="1.0" standalone="no"?>
<!DOCTYPE svg PUBLIC "-//W3C//DTD SVG 20010904//EN"
 "http://www.w3.org/TR/2001/REC-SVG-20010904/DTD/svg10.dtd">
<svg version="1.0" xmlns="http://www.w3.org/2000/svg"
 width="96.000000pt" height="68.000000pt" viewBox="0 0 96.000000 68.000000"
 preserveAspectRatio="xMidYMid meet">
<metadata>
Created by potrace 1.16, written by Peter Selinger 2001-2019
</metadata>
<g transform="translate(0.000000,68.000000) scale(0.100000,-0.100000)"
fill="#000000" stroke="none">
<path d="M550 575 c-69 -9 -109 -10 -117 -3 -8 7 -18 -2 -32 -33 -12 -24 -21
-49 -21 -57 0 -24 35 -8 50 24 14 30 18 32 107 43 50 6 115 11 144 11 50 0 51
-1 46 -25 -3 -17 0 -24 7 -21 6 3 28 10 49 17 45 15 48 33 6 48 -39 13 -101
12 -239 -4z"/>
</g>
</svg>
