<?xml version="1.0" standalone="no"?>
<!DOCTYPE svg PUBLIC "-//W3C//DTD SVG 20010904//EN"
 "http://www.w3.org/TR/2001/REC-SVG-20010904/DTD/svg10.dtd">
<svg version="1.0" xmlns="http://www.w3.org/2000/svg"
 width="96.000000pt" height="68.000000pt" viewBox="0 0 96.000000 68.000000"
 preserveAspectRatio="xMidYMid meet">
<metadata>
Created by potrace 1.16, written by Peter Selinger 2001-2019
</metadata>
<g transform="translate(0.000000,68.000000) scale(0.100000,-0.100000)"
fill="#000000" stroke="none">
<path d="M563 363 c-7 -2 -13 -15 -13 -28 0 -21 -5 -23 -97 -31 l-98 -9 31
-17 c27 -15 40 -16 93 -6 33 6 64 8 68 5 4 -4 9 -59 11 -122 3 -63 8 -115 12
-115 16 0 23 37 28 141 l4 107 38 5 c21 3 77 2 124 0 59 -4 86 -2 86 5 0 26
-44 35 -147 28 l-103 -7 0 26 c0 24 -11 29 -37 18z"/>
</g>
</svg>
