<?xml version="1.0" standalone="no"?>
<!DOCTYPE svg PUBLIC "-//W3C//DTD SVG 20010904//EN"
 "http://www.w3.org/TR/2001/REC-SVG-20010904/DTD/svg10.dtd">
<svg version="1.0" xmlns="http://www.w3.org/2000/svg"
 width="96.000000pt" height="68.000000pt" viewBox="0 0 96.000000 68.000000"
 preserveAspectRatio="xMidYMid meet">
<metadata>
Created by potrace 1.16, written by Peter Selinger 2001-2019
</metadata>
<g transform="translate(0.000000,68.000000) scale(0.100000,-0.100000)"
fill="#000000" stroke="none">
<path d="M479 633 c-1 -5 -1 -32 1 -60 l2 -53 -34 -1 c-18 0 -42 -4 -53 -9
-15 -6 -6 -9 33 -9 50 -1 52 -2 52 -30 0 -27 -2 -28 -61 -35 -34 -3 -77 -6
-95 -6 -19 0 -34 -5 -34 -11 0 -9 26 -10 95 -5 l95 6 0 -30 c0 -30 0 -30 -55
-30 -30 0 -55 -4 -55 -10 0 -5 25 -10 55 -10 30 0 55 -4 55 -10 0 -16 38 -12
48 6 5 9 29 17 64 21 38 4 55 10 52 18 -3 6 0 24 5 38 9 23 17 27 48 27 57 0
113 11 107 21 -3 5 -34 9 -69 9 l-65 0 12 26 c11 23 10 28 -7 41 -14 10 -31
12 -55 8 -19 -4 -48 -9 -63 -12 l-29 -6 7 47 c7 43 6 46 -20 56 -32 12 -35 12
-36 3z m137 -151 c-6 -19 -33 -32 -68 -32 -13 0 -18 8 -18 29 0 27 3 30 38 33
45 4 56 -3 48 -30z m-6 -59 c0 -28 -12 -39 -47 -46 -31 -6 -33 -5 -33 23 0 25
4 29 33 33 17 2 35 5 40 5 4 1 7 -6 7 -15z"/>
</g>
</svg>
