<?xml version="1.0" standalone="no"?>
<!DOCTYPE svg PUBLIC "-//W3C//DTD SVG 20010904//EN"
 "http://www.w3.org/TR/2001/REC-SVG-20010904/DTD/svg10.dtd">
<svg version="1.0" xmlns="http://www.w3.org/2000/svg"
 width="96.000000pt" height="68.000000pt" viewBox="0 0 96.000000 68.000000"
 preserveAspectRatio="xMidYMid meet">
<metadata>
Created by potrace 1.16, written by Peter Selinger 2001-2019
</metadata>
<g transform="translate(0.000000,68.000000) scale(0.100000,-0.100000)"
fill="#000000" stroke="none">
<path d="M479 623 c-1 -5 0 -23 1 -40 1 -18 -2 -33 -7 -34 -4 0 -20 -3 -35 -5
-25 -4 -28 -2 -28 26 0 24 -6 33 -26 40 -37 14 -37 14 -30 -30 4 -24 2 -40 -4
-41 -5 -1 -14 -3 -20 -4 -5 -1 -29 -3 -51 -4 -35 -1 -40 -3 -29 -16 6 -8 20
-40 29 -72 9 -32 23 -58 29 -57 7 1 23 2 37 3 32 1 33 21 1 21 -23 0 -41 22
-29 34 4 3 19 6 35 6 25 0 28 -4 28 -31 0 -16 4 -28 9 -25 5 4 58 8 117 10
l108 3 35 68 c35 66 36 67 16 81 -13 10 -37 14 -73 12 -48 -3 -52 -1 -52 19 0
28 -58 61 -61 36z m134 -102 c4 -17 -1 -19 -39 -18 -36 0 -44 4 -44 19 0 27
76 26 83 -1z m-133 -11 c0 -15 -7 -20 -29 -20 -31 0 -47 13 -36 30 3 6 19 10
36 10 22 0 29 -5 29 -20z m-112 -12 c3 -15 -4 -18 -37 -18 -39 0 -53 14 -34
34 14 14 68 1 71 -16z m232 -30 c0 -25 -16 -37 -45 -34 -43 5 -46 33 -3 39 18
2 36 5 41 5 4 1 7 -4 7 -10z m-120 -12 c0 -20 -16 -36 -36 -36 -17 0 -24 6
-24 20 0 16 7 20 30 20 17 0 30 -2 30 -4z"/>
<path d="M559 376 c-2 -2 -33 -6 -69 -10 -36 -3 -97 -8 -136 -12 l-71 -7 0
-52 c0 -70 -40 -154 -99 -211 -26 -24 -44 -44 -40 -44 22 0 103 69 129 111 45
74 59 66 57 -33 -2 -110 -2 -108 14 -108 17 0 148 81 141 88 -2 2 -22 -3 -45
-12 -66 -26 -69 -25 -67 53 l2 69 50 6 c28 3 96 9 153 13 56 3 102 10 102 14
0 19 -58 21 -179 5 -169 -21 -181 -21 -181 4 0 16 7 20 37 20 63 0 218 22 228
33 10 10 -85 5 -202 -9 -49 -6 -53 -5 -53 14 0 22 17 26 185 38 97 7 115 12
94 25 -15 9 -43 12 -50 5z"/>
<path d="M598 177 l-27 -32 -40 23 c-41 22 -87 30 -76 12 3 -5 13 -10 22 -10
9 0 47 -26 85 -57 103 -86 116 -93 178 -93 93 0 89 14 -17 49 -54 18 -109 41
-122 51 l-23 20 47 20 c27 12 45 25 43 33 -8 24 -43 16 -70 -16z"/>
</g>
</svg>
