<?xml version="1.0" standalone="no"?>
<!DOCTYPE svg PUBLIC "-//W3C//DTD SVG 20010904//EN"
 "http://www.w3.org/TR/2001/REC-SVG-20010904/DTD/svg10.dtd">
<svg version="1.0" xmlns="http://www.w3.org/2000/svg"
 width="96.000000pt" height="68.000000pt" viewBox="0 0 96.000000 68.000000"
 preserveAspectRatio="xMidYMid meet">
<metadata>
Created by potrace 1.16, written by Peter Selinger 2001-2019
</metadata>
<g transform="translate(0.000000,68.000000) scale(0.100000,-0.100000)"
fill="#000000" stroke="none">
<path d="M480 561 l0 -69 -31 -4 c-35 -5 -38 -1 -41 62 -3 47 -11 60 -41 60
-13 0 -17 -5 -14 -17 3 -10 8 -39 12 -66 6 -47 6 -47 -24 -53 -17 -4 -31 -11
-31 -16 0 -5 16 -6 35 -2 31 5 35 4 35 -15 0 -14 6 -21 20 -21 13 0 20 7 20
19 0 11 9 21 23 25 34 9 37 8 37 -14 0 -11 7 -20 15 -20 8 0 15 7 15 15 0 18
31 35 64 35 14 0 26 5 26 10 0 6 -18 10 -40 10 -22 0 -40 3 -40 8 1 4 5 26 9
49 9 44 4 53 -31 66 -16 6 -18 -1 -18 -62z"/>
</g>
</svg>
