<?xml version="1.0" standalone="no"?>
<!DOCTYPE svg PUBLIC "-//W3C//DTD SVG 20010904//EN"
 "http://www.w3.org/TR/2001/REC-SVG-20010904/DTD/svg10.dtd">
<svg version="1.0" xmlns="http://www.w3.org/2000/svg"
 width="90.000000pt" height="92.000000pt" viewBox="0 0 90.000000 92.000000"
 preserveAspectRatio="xMidYMid meet">
<metadata>
Created by potrace 1.16, written by Peter Selinger 2001-2019
</metadata>
<g transform="translate(0.000000,92.000000) scale(0.100000,-0.100000)"
fill="#000000" stroke="none">
<path d="M360 903 c0 -9 -12 -34 -26 -55 -23 -33 -32 -38 -65 -38 -40 0 -48
-7 -29 -26 6 -6 16 -54 22 -106 6 -53 13 -100 17 -105 4 -6 52 -4 123 5 104
14 118 14 132 0 13 -14 7 -17 -67 -32 -45 -9 -124 -19 -175 -22 -84 -6 -91 -8
-78 -23 8 -9 20 -49 27 -88 15 -93 16 -94 64 -82 22 5 101 11 175 13 l134 5
23 68 c12 37 27 76 33 85 5 10 10 20 10 23 0 12 -67 45 -93 45 -16 0 -26 4
-23 8 2 4 14 53 25 107 11 55 23 108 26 117 5 12 -2 23 -27 38 -36 23 -45 22
-162 -9 -44 -11 -81 -20 -83 -18 -1 2 18 19 43 38 l45 34 -21 17 c-28 23 -50
23 -50 1z m178 -117 c3 -25 1 -28 -19 -23 -12 3 -54 0 -93 -8 -142 -27 -136
-27 -136 -1 0 21 8 24 108 43 59 12 114 21 122 20 9 -1 16 -15 18 -31z m-6
-72 c-3 -18 -10 -24 -22 -21 -9 2 -48 -2 -86 -9 -100 -19 -124 -18 -124 6 0
16 7 20 33 21 17 0 64 6 102 13 103 20 103 20 97 -10z m-2 -68 c0 -21 -5 -24
-37 -24 -21 -1 -62 -6 -92 -12 -79 -15 -101 -13 -101 8 0 15 16 21 103 34 56
8 108 16 115 17 6 0 12 -10 12 -23z m65 -127 c4 -5 4 -20 1 -32 -5 -20 -12
-22 -76 -23 -67 -1 -70 0 -70 22 0 25 12 30 80 37 19 2 40 5 47 5 6 1 15 -3
18 -9z m-195 -43 c0 -21 -6 -24 -56 -30 -62 -7 -74 -3 -74 24 0 23 13 28 78
29 48 1 52 -1 52 -23z m190 -43 c-1 -42 -11 -48 -76 -48 -59 0 -64 1 -64 22 0
18 6 22 43 26 81 7 97 7 97 0z m-190 -38 c0 -23 -3 -25 -50 -25 -27 0 -53 0
-57 0 -5 0 -9 10 -11 22 -3 22 1 23 58 25 58 2 60 2 60 -22z"/>
<path d="M704 329 c-22 -4 -92 -12 -155 -18 -62 -5 -201 -18 -307 -28 -105 -9
-192 -21 -192 -26 0 -4 16 -15 35 -22 30 -13 43 -13 107 0 92 20 99 17 87 -33
-14 -65 -29 -95 -61 -129 -42 -44 -32 -49 24 -14 36 23 53 44 82 102 20 40 35
78 32 85 -6 14 124 28 138 14 5 -5 10 -59 11 -120 2 -105 13 -148 30 -120 14
22 33 224 22 238 -7 9 19 12 126 12 87 0 138 4 143 11 16 27 -65 59 -122 48z"/>
</g>
</svg>
