<?xml version="1.0" standalone="no"?>
<!DOCTYPE svg PUBLIC "-//W3C//DTD SVG 20010904//EN"
 "http://www.w3.org/TR/2001/REC-SVG-20010904/DTD/svg10.dtd">
<svg version="1.0" xmlns="http://www.w3.org/2000/svg"
 width="96.000000pt" height="68.000000pt" viewBox="0 0 96.000000 68.000000"
 preserveAspectRatio="xMidYMid meet">
<metadata>
Created by potrace 1.16, written by Peter Selinger 2001-2019
</metadata>
<g transform="translate(0.000000,68.000000) scale(0.100000,-0.100000)"
fill="#000000" stroke="none">
<path d="M620 464 c-47 -7 -125 -13 -174 -13 -74 -1 -87 -3 -74 -13 9 -7 24
-40 33 -73 25 -92 24 -89 39 -76 7 6 78 14 159 17 l147 7 40 69 39 68 -29 15
c-34 17 -63 17 -180 -1z m122 -44 c-1 -14 -7 -37 -13 -52 -12 -30 -25 -33
-181 -43 l-97 -7 -15 53 c-9 29 -16 54 -16 56 0 2 30 3 68 4 37 0 87 4 112 9
25 4 68 7 95 6 47 -1 50 -2 47 -26z"/>
</g>
</svg>
