<?xml version="1.0" standalone="no"?>
<!DOCTYPE svg PUBLIC "-//W3C//DTD SVG 20010904//EN"
 "http://www.w3.org/TR/2001/REC-SVG-20010904/DTD/svg10.dtd">
<svg version="1.0" xmlns="http://www.w3.org/2000/svg"
 width="90.000000pt" height="92.000000pt" viewBox="0 0 90.000000 92.000000"
 preserveAspectRatio="xMidYMid meet">
<metadata>
Created by potrace 1.16, written by Peter Selinger 2001-2019
</metadata>
<g transform="translate(0.000000,92.000000) scale(0.100000,-0.100000)"
fill="#000000" stroke="none">
<path d="M177 737 c6 -63 -11 -222 -27 -246 -5 -8 -36 -16 -79 -19 -39 -2 -71
-8 -71 -12 0 -3 11 -17 25 -30 25 -24 26 -24 69 -8 l44 16 -10 -31 c-5 -18
-12 -39 -14 -48 -4 -10 10 -25 40 -44 25 -16 46 -34 46 -40 0 -16 -68 -79
-124 -114 -34 -21 -44 -31 -30 -31 32 0 117 47 154 85 l35 36 36 -42 c25 -30
41 -40 52 -36 31 12 20 53 -23 90 -39 33 -40 35 -26 61 8 15 22 58 31 95 16
59 22 69 49 81 l31 13 -27 4 c-16 3 -28 8 -28 12 0 7 -43 31 -55 31 -3 0 -5
-13 -5 -29 0 -25 -4 -29 -37 -34 -20 -4 -39 -5 -41 -2 -2 2 11 57 30 122 18
65 33 122 33 128 0 10 -62 55 -76 55 -5 0 -6 -28 -2 -63z m93 -279 c0 -29 -34
-130 -46 -135 -12 -4 -74 23 -74 33 0 3 5 25 11 48 9 36 16 45 42 54 44 14 67
14 67 0z"/>
<path d="M470 788 c0 -7 14 -33 30 -58 l30 -45 -80 -15 c-55 -10 -80 -19 -80
-28 0 -11 14 -13 68 -9 76 5 272 45 286 58 18 17 -46 31 -91 20 -56 -15 -59
-14 -60 10 -2 28 -22 50 -60 66 -40 16 -43 16 -43 1z"/>
<path d="M436 566 c-4 -18 -25 -59 -47 -90 -22 -31 -37 -56 -33 -56 16 0 71
45 113 93 l44 51 -23 18 c-33 26 -47 22 -54 -16z"/>
<path d="M610 571 c29 -42 94 -91 119 -91 16 0 21 6 21 28 0 36 -21 55 -83 76
-72 24 -83 22 -57 -13z"/>
<path d="M600 457 c0 -24 -7 -65 -16 -92 l-17 -48 -49 57 c-28 31 -58 56 -69
56 -10 0 -19 -2 -19 -4 0 -3 22 -27 49 -55 72 -74 74 -87 15 -138 -27 -24 -68
-50 -91 -59 -56 -22 -56 -39 -1 -30 54 9 101 31 141 68 l32 30 35 -43 c67 -84
86 -99 122 -98 49 1 131 22 135 35 2 5 -23 18 -54 28 -74 23 -139 57 -182 93
-33 28 -33 29 -18 59 8 16 24 55 35 86 l20 56 -22 21 c-34 32 -46 26 -46 -22z"/>
</g>
</svg>
