<?xml version="1.0" standalone="no"?>
<!DOCTYPE svg PUBLIC "-//W3C//DTD SVG 20010904//EN"
 "http://www.w3.org/TR/2001/REC-SVG-20010904/DTD/svg10.dtd">
<svg version="1.0" xmlns="http://www.w3.org/2000/svg"
 width="90.000000pt" height="92.000000pt" viewBox="0 0 90.000000 92.000000"
 preserveAspectRatio="xMidYMid meet">
<metadata>
Created by potrace 1.16, written by Peter Selinger 2001-2019
</metadata>
<g transform="translate(0.000000,92.000000) scale(0.100000,-0.100000)"
fill="#000000" stroke="none">
<path d="M460 825 c0 -67 -84 -235 -158 -317 -45 -50 -20 -50 39 -1 64 55 86
84 167 222 6 11 33 -16 105 -106 99 -123 110 -133 153 -133 33 0 114 21 114
29 0 3 -39 24 -86 45 -104 48 -258 176 -260 217 -2 45 -4 48 -34 64 -39 20
-40 20 -40 -20z"/>
<path d="M170 730 c-41 -10 -90 -19 -108 -19 -55 -2 -33 -26 26 -29 60 -3 65
-13 60 -98 l-3 -49 -50 -11 c-63 -13 -61 -28 5 -32 l50 -3 2 -65 c1 -35 2 -71
2 -81 1 -17 -77 -51 -122 -52 -33 -1 -25 -30 13 -52 l30 -17 125 73 c68 40
126 78 128 84 2 6 -23 1 -57 -11 -33 -12 -63 -19 -67 -15 -4 3 -3 40 1 82 l7
75 39 6 c67 11 60 44 -9 44 l-33 0 3 65 3 65 35 10 c19 5 40 10 47 10 19 0 27
21 12 31 -19 12 -52 9 -139 -11z"/>
<path d="M490 572 c0 -23 -47 -98 -95 -151 -39 -43 -37 -53 5 -25 40 27 160
147 160 161 0 14 -31 33 -54 33 -9 0 -16 -8 -16 -18z"/>
<path d="M540 449 c0 -15 -30 -52 -89 -111 -50 -48 -88 -88 -85 -88 25 0 114
61 194 133 57 51 57 65 3 82 -19 5 -23 3 -23 -16z"/>
<path d="M600 325 c-15 -46 -149 -171 -253 -236 -68 -42 -76 -50 -47 -44 82
17 210 96 320 198 l63 58 -29 30 c-15 16 -31 29 -35 29 -4 0 -13 -16 -19 -35z"/>
</g>
</svg>
