<?xml version="1.0" standalone="no"?>
<!DOCTYPE svg PUBLIC "-//W3C//DTD SVG 20010904//EN"
 "http://www.w3.org/TR/2001/REC-SVG-20010904/DTD/svg10.dtd">
<svg version="1.0" xmlns="http://www.w3.org/2000/svg"
 width="96.000000pt" height="68.000000pt" viewBox="0 0 96.000000 68.000000"
 preserveAspectRatio="xMidYMid meet">
<metadata>
Created by potrace 1.16, written by Peter Selinger 2001-2019
</metadata>
<g transform="translate(0.000000,68.000000) scale(0.100000,-0.100000)"
fill="#000000" stroke="none">
<path d="M620 231 c0 -5 -13 -22 -29 -37 -17 -15 -27 -33 -24 -38 4 -6 3 -8
-2 -4 -4 4 -27 -8 -50 -27 -23 -19 -46 -31 -50 -27 -5 4 -5 1 -1 -5 4 -8 2
-13 -5 -13 -7 0 -10 -3 -6 -6 6 -6 59 25 167 99 25 17 47 32 49 33 2 2 -2 10
-9 19 -14 16 -40 20 -40 6z m35 -19 c-3 -3 -11 0 -18 7 -9 10 -8 11 6 5 10 -3
15 -9 12 -12z"/>
</g>
</svg>
