<?xml version="1.0" standalone="no"?>
<!DOCTYPE svg PUBLIC "-//W3C//DTD SVG 20010904//EN"
 "http://www.w3.org/TR/2001/REC-SVG-20010904/DTD/svg10.dtd">
<svg version="1.0" xmlns="http://www.w3.org/2000/svg"
 width="96.000000pt" height="68.000000pt" viewBox="0 0 96.000000 68.000000"
 preserveAspectRatio="xMidYMid meet">
<metadata>
Created by potrace 1.16, written by Peter Selinger 2001-2019
</metadata>
<g transform="translate(0.000000,68.000000) scale(0.100000,-0.100000)"
fill="#000000" stroke="none">
<path d="M430 590 c-85 -11 -162 -19 -170 -20 -29 -2 22 -30 54 -30 l30 0 -48
-46 c-36 -34 -46 -48 -36 -54 10 -6 11 -22 5 -67 -13 -96 -12 -127 6 -131 13
-2 18 9 22 50 4 29 7 74 7 100 l0 46 65 7 c36 4 63 11 60 15 -3 5 -13 7 -23 5
-49 -10 -112 -14 -112 -7 0 5 16 14 35 22 19 8 35 17 35 22 0 4 8 8 18 8 14 0
13 4 -7 19 l-24 19 46 3 c26 2 48 0 51 -6 2 -6 3 -72 3 -148 0 -89 4 -142 11
-149 21 -21 27 2 28 103 0 54 3 101 6 105 3 3 21 4 39 2 29 -3 31 -5 18 -18
-8 -8 -20 -23 -28 -33 -12 -16 -11 -16 18 -11 33 7 39 -3 21 -36 -6 -11 -16
-17 -25 -14 -11 5 -13 2 -9 -10 3 -9 1 -16 -5 -16 -6 0 -11 -5 -11 -10 0 -7 7
-7 21 0 21 12 51 -2 46 -20 -4 -13 54 -71 66 -67 23 7 35 53 40 155 4 83 3
102 -9 102 -8 0 -14 10 -14 26 0 19 -8 28 -35 40 -57 23 -67 18 -34 -18 l30
-33 -48 -12 c-79 -19 -81 -18 -84 31 l-4 44 59 6 c32 3 74 6 92 6 40 0 45 16
8 30 -30 12 -20 12 -214 -10z m209 -201 c3 -75 -6 -109 -31 -109 -14 0 -18 5
-14 16 4 10 -1 22 -11 29 -16 12 -15 13 4 25 21 13 21 14 2 47 -11 19 -14 33
-8 33 6 0 9 6 6 14 -8 19 24 27 39 10 6 -7 11 -36 13 -65z"/>
<path d="M376 425 c-3 -8 -11 -15 -19 -15 -7 0 -13 -8 -13 -18 0 -14 8 -19 28
-19 22 0 27 4 23 18 -3 9 -1 20 5 24 15 9 12 25 -4 25 -8 0 -16 -7 -20 -15z"/>
<path d="M370 345 c0 -8 -6 -15 -12 -15 -7 0 -18 -11 -25 -25 -12 -26 -5 -33
15 -13 8 8 15 8 27 -2 19 -16 32 -6 16 13 -9 11 -8 17 4 27 21 17 19 30 -5 30
-11 0 -20 -7 -20 -15z"/>
<path d="M490 228 c-41 -4 -104 -12 -140 -17 l-65 -8 72 -2 c68 -1 73 -3 79
-25 9 -36 -2 -46 -51 -46 -24 0 -47 -5 -50 -10 -4 -6 15 -10 49 -10 55 0 56 0
56 -29 l0 -29 -107 -7 c-153 -9 -154 -9 -118 -24 23 -9 52 -10 128 -2 54 6
172 11 262 11 90 0 166 4 169 9 3 4 -7 14 -21 20 -19 9 -61 10 -150 5 l-123
-7 0 27 c0 29 7 33 59 39 54 5 51 27 -4 27 -45 0 -46 1 -43 28 3 25 7 27 52
32 27 3 51 11 54 18 4 13 1 13 -108 0z"/>
<path d="M626 118 c10 -13 19 -24 19 -24 0 -1 10 -5 23 -8 17 -6 22 -3 22 10
0 22 -29 43 -59 44 -24 0 -24 0 -5 -22z"/>
</g>
</svg>
