<?xml version="1.0" standalone="no"?>
<!DOCTYPE svg PUBLIC "-//W3C//DTD SVG 20010904//EN"
 "http://www.w3.org/TR/2001/REC-SVG-20010904/DTD/svg10.dtd">
<svg version="1.0" xmlns="http://www.w3.org/2000/svg"
 width="96.000000pt" height="68.000000pt" viewBox="0 0 96.000000 68.000000"
 preserveAspectRatio="xMidYMid meet">
<metadata>
Created by potrace 1.16, written by Peter Selinger 2001-2019
</metadata>
<g transform="translate(0.000000,68.000000) scale(0.100000,-0.100000)"
fill="#000000" stroke="none">
<path d="M599 582 c-1 -4 0 -35 1 -69 2 -76 -6 -103 -31 -103 -17 0 -19 7 -19
60 0 49 -3 61 -20 70 -30 16 -39 5 -29 -37 5 -21 9 -53 9 -70 0 -30 -3 -33
-32 -34 -18 -1 -44 -5 -58 -9 -21 -7 -22 -8 -5 -10 11 -1 31 -1 45 -1 21 2 29
-6 43 -35 10 -20 17 -37 15 -39 -2 -1 -19 -6 -38 -12 l-35 -11 53 -1 c44 -1
52 -4 52 -20 0 -13 -11 -21 -42 -28 l-43 -11 43 -1 c27 -1 42 -6 42 -14 0 -26
-25 -37 -87 -37 -52 0 -63 -3 -63 -16 0 -15 9 -16 65 -10 36 4 65 3 65 -2 0
-16 -55 -67 -90 -84 -30 -14 -32 -17 -12 -17 42 -2 132 56 132 85 0 26 32 36
134 39 59 2 105 7 104 12 -2 4 -49 8 -106 8 -88 0 -102 2 -102 16 0 18 28 29
77 29 17 0 35 5 38 10 4 6 -15 10 -50 10 -48 0 -56 3 -53 18 2 12 14 18 38 20
53 4 80 11 80 22 0 6 -18 10 -40 10 -42 0 -50 9 -24 31 8 7 13 21 11 31 -4 15
2 18 41 19 26 1 58 4 72 8 l25 7 -23 8 c-13 4 -51 6 -85 4 l-61 -3 3 45 c8 98
7 102 -16 111 -13 5 -24 5 -24 1z m18 -219 c-7 -42 -14 -50 -45 -55 -20 -2
-26 4 -38 37 -7 22 -14 41 -14 42 0 1 19 4 43 6 23 2 46 4 51 5 5 1 6 -14 3
-35z"/>
<path d="M190 539 c0 -5 14 -24 31 -44 21 -24 39 -35 53 -33 26 4 33 40 11 58
-18 15 -95 31 -95 19z"/>
<path d="M370 529 c0 -39 -85 -184 -124 -211 -6 -4 -8 -10 -4 -13 3 -3 22 8
41 24 19 17 37 31 41 31 10 0 7 -202 -4 -242 -8 -27 -8 -44 0 -58 25 -47 35
-14 43 139 6 130 5 154 -8 167 -17 17 -18 15 39 98 38 56 39 59 21 72 -27 20
-45 17 -45 -7z"/>
<path d="M699 508 c-7 -13 -17 -26 -23 -30 -22 -14 5 -21 32 -8 47 24 53 31
41 46 -17 20 -37 17 -50 -8z"/>
<path d="M430 471 c0 -12 29 -41 41 -41 13 0 11 24 -3 38 -14 14 -38 16 -38 3z"/>
<path d="M116 396 c8 -20 69 -66 88 -66 42 0 29 51 -17 68 -47 17 -78 16 -71
-2z"/>
<path d="M245 251 c-3 -10 -28 -42 -55 -69 -55 -56 -63 -87 -30 -117 11 -10
22 -16 24 -14 10 10 86 191 86 204 0 22 -18 18 -25 -4z"/>
<path d="M675 87 c71 -65 104 -74 92 -24 -7 25 -49 49 -107 62 l-35 8 50 -46z"/>
</g>
</svg>
