<?xml version="1.0" standalone="no"?>
<!DOCTYPE svg PUBLIC "-//W3C//DTD SVG 20010904//EN"
 "http://www.w3.org/TR/2001/REC-SVG-20010904/DTD/svg10.dtd">
<svg version="1.0" xmlns="http://www.w3.org/2000/svg"
 width="96.000000pt" height="68.000000pt" viewBox="0 0 96.000000 68.000000"
 preserveAspectRatio="xMidYMid meet">
<metadata>
Created by potrace 1.16, written by Peter Selinger 2001-2019
</metadata>
<g transform="translate(0.000000,68.000000) scale(0.100000,-0.100000)"
fill="#000000" stroke="none">
<path d="M260 550 c-63 -10 -121 -19 -128 -19 -8 -1 -6 -10 9 -30 19 -26 21
-39 18 -153 -3 -78 -9 -130 -16 -139 -16 -19 -6 -57 16 -61 9 -2 32 2 51 9 19
7 83 12 143 13 81 0 107 3 107 13 0 25 -24 37 -72 37 -48 0 -48 0 -41 27 4 16
7 36 7 46 0 11 8 17 23 17 14 0 23 6 23 15 0 8 8 30 17 50 9 19 14 38 10 42
-4 3 -25 6 -48 5 l-41 -2 7 48 c8 52 17 62 58 62 34 0 35 17 1 30 -14 6 -26 9
-27 9 -1 -1 -54 -9 -117 -19z m42 -85 l3 -55 -36 0 c-40 0 -53 -8 -40 -24 5
-6 13 -27 18 -46 7 -27 15 -36 35 -38 19 -2 27 -10 30 -30 8 -58 -7 -72 -81
-72 l-33 0 7 128 c8 165 11 180 38 185 54 11 55 10 59 -48z m72 -94 c-9 -37
-15 -41 -60 -44 -38 -2 -39 -1 -39 33 0 33 2 35 40 40 56 8 66 3 59 -29z"/>
<path d="M575 551 c-80 -10 -123 -19 -112 -24 10 -4 36 -7 58 -7 43 0 46 -7
28 -59 -9 -27 -16 -31 -45 -31 -31 0 -34 -2 -24 -20 6 -11 9 -65 8 -127 -3
-107 -3 -108 20 -106 35 4 26 -15 -35 -75 -32 -30 -49 -52 -38 -48 32 11 125
69 125 78 0 4 6 8 14 8 18 0 27 25 15 37 -7 7 10 12 48 17 52 6 59 5 75 -16
31 -41 42 -10 48 129 l5 125 -26 14 c-21 10 -40 11 -85 4 -94 -16 -99 -14 -69
16 17 17 24 32 20 45 -6 18 0 19 82 19 99 0 128 10 88 28 -31 14 -34 14 -200
-7z m127 -150 c4 -28 4 -28 -61 -35 -113 -10 -121 -9 -121 19 0 20 6 25 38 30
20 4 42 8 47 10 6 2 29 4 51 4 39 1 42 -1 46 -28z m8 -75 c0 -21 -5 -24 -62
-30 -35 -4 -78 -9 -96 -13 -32 -5 -33 -4 -30 23 3 27 6 29 58 35 119 13 130
11 130 -15z m0 -71 c0 -31 -3 -32 -108 -40 l-83 -7 3 29 c3 26 6 28 63 34 124
12 125 12 125 -16z"/>
<path d="M660 155 c0 -16 106 -115 123 -115 35 0 17 51 -28 81 -42 28 -95 47
-95 34z"/>
</g>
</svg>
