<?xml version="1.0" standalone="no"?>
<!DOCTYPE svg PUBLIC "-//W3C//DTD SVG 20010904//EN"
 "http://www.w3.org/TR/2001/REC-SVG-20010904/DTD/svg10.dtd">
<svg version="1.0" xmlns="http://www.w3.org/2000/svg"
 width="96.000000pt" height="68.000000pt" viewBox="0 0 96.000000 68.000000"
 preserveAspectRatio="xMidYMid meet">
<metadata>
Created by potrace 1.16, written by Peter Selinger 2001-2019
</metadata>
<g transform="translate(0.000000,68.000000) scale(0.100000,-0.100000)"
fill="#000000" stroke="none">
<path d="M488 612 c-7 -15 -28 -44 -47 -64 -36 -39 -33 -50 6 -23 19 13 27 14
54 2 l33 -13 -35 -21 c-19 -12 -48 -29 -64 -37 l-30 -16 31 0 c27 0 32 -5 42
-37 14 -45 9 -53 -31 -53 l-32 0 25 20 c21 17 23 21 10 30 -26 17 -38 11 -50
-25 -11 -33 -14 -35 -53 -35 l-42 0 0 -94 c0 -52 3 -98 7 -101 3 -4 23 -1 45
5 21 6 95 14 166 17 l127 6 0 -42 c0 -65 -14 -84 -56 -76 l-35 6 27 -30 c15
-17 35 -31 44 -31 27 0 58 42 70 95 6 28 13 57 15 65 4 11 -5 20 -27 28 -26 9
-67 8 -183 -2 -82 -8 -153 -12 -158 -9 -20 12 11 22 93 28 50 4 93 12 97 17 6
11 -143 3 -173 -9 -8 -3 -14 1 -14 10 0 12 20 17 93 22 l93 7 22 41 c25 45 17
67 -24 67 -13 0 -24 5 -24 10 0 6 26 10 58 10 55 0 58 1 69 31 7 18 10 36 7
41 -3 5 -42 7 -87 3 l-82 -6 40 25 c48 31 45 31 98 7 60 -27 93 -33 145 -25
56 8 42 15 -69 34 -105 17 -112 24 -70 59 47 41 34 55 -43 48 -33 -3 -55 -3
-48 0 19 8 14 30 -9 36 -15 4 -23 -1 -31 -21z m78 -67 c-17 -17 -70 -13 -81 5
-5 9 6 13 60 23 29 5 40 -9 21 -28z m27 -111 c3 -3 3 -12 0 -20 -7 -20 -93
-19 -93 0 0 18 78 35 93 20z m-73 -109 c0 -11 -11 -15 -43 -15 -23 0 -58 -4
-77 -10 -22 -6 -38 -6 -44 0 -15 15 -4 20 60 29 90 13 104 13 104 -4z m-10
-39 c0 -14 -60 -26 -133 -26 -58 0 -37 13 41 26 93 16 92 16 92 0z"/>
<path d="M295 599 c-16 -5 -47 -7 -68 -4 -22 3 -37 2 -35 -2 2 -5 14 -30 26
-57 20 -43 25 -47 47 -42 24 6 25 5 25 -48 0 -40 -4 -55 -16 -60 -23 -9 -23
-9 -26 32 -2 30 -7 38 -26 40 -20 3 -21 1 -12 -23 19 -49 13 -65 -22 -65 -30
0 -31 -1 -15 -17 15 -16 20 -16 74 2 32 10 66 20 75 22 10 1 32 10 50 18 l33
15 -40 -6 c-38 -5 -40 -3 -40 21 0 19 5 25 22 25 30 0 54 10 48 21 -3 4 -17 4
-31 -1 -33 -13 -31 -14 -36 15 -5 22 -2 25 24 25 17 0 27 4 23 10 -3 5 2 24
12 40 16 27 16 32 3 40 -18 12 -55 11 -95 -1z m45 -37 c0 -17 -25 -32 -52 -32
-21 0 -28 5 -28 20 0 17 7 20 40 20 22 0 40 -4 40 -8z"/>
<path d="M530 132 c0 -12 30 -52 39 -52 19 0 21 33 4 46 -20 15 -43 18 -43 6z"/>
<path d="M241 102 c-23 -33 -27 -57 -11 -67 16 -10 38 13 45 47 10 45 -8 55
-34 20z"/>
<path d="M447 100 c18 -31 28 -36 37 -22 8 13 -23 52 -40 52 -13 0 -12 -5 3
-30z"/>
<path d="M351 85 c12 -19 25 -32 30 -29 14 9 10 30 -9 47 -32 29 -43 19 -21
-18z"/>
</g>
</svg>
