<?xml version="1.0" standalone="no"?>
<!DOCTYPE svg PUBLIC "-//W3C//DTD SVG 20010904//EN"
 "http://www.w3.org/TR/2001/REC-SVG-20010904/DTD/svg10.dtd">
<svg version="1.0" xmlns="http://www.w3.org/2000/svg"
 width="90.000000pt" height="92.000000pt" viewBox="0 0 90.000000 92.000000"
 preserveAspectRatio="xMidYMid meet">
<metadata>
Created by potrace 1.16, written by Peter Selinger 2001-2019
</metadata>
<g transform="translate(0.000000,92.000000) scale(0.100000,-0.100000)"
fill="#000000" stroke="none">
<path d="M520 883 c-1 -28 -34 -93 -74 -146 -30 -40 -33 -46 -14 -36 13 6 40
27 60 47 35 33 41 35 100 34 78 -2 140 9 145 25 9 27 -81 25 -180 -4 -18 -5
-18 -4 -2 21 20 30 15 50 -14 66 -18 9 -21 8 -21 -7z"/>
<path d="M240 863 c-1 -29 -38 -104 -81 -160 -22 -29 -36 -53 -31 -53 13 0 75
48 97 76 19 23 29 26 97 29 41 1 84 7 93 13 17 9 16 11 -5 22 -18 10 -35 10
-77 0 -30 -6 -57 -10 -59 -7 -2 2 5 15 15 29 l20 25 -23 22 c-27 26 -46 27
-46 4z"/>
<path d="M568 720 c40 -37 72 -40 72 -6 0 26 -22 36 -75 36 l-30 -1 33 -29z"/>
<path d="M260 713 c0 -19 59 -66 74 -60 27 11 19 46 -11 53 -16 3 -36 8 -45
11 -10 2 -18 0 -18 -4z"/>
<path d="M646 669 c-15 -4 -71 -13 -123 -20 -85 -11 -93 -14 -77 -27 12 -8 32
-11 51 -8 l33 5 -19 -37 c-11 -20 -33 -52 -50 -69 -16 -18 -28 -33 -25 -33 17
0 65 35 103 74 36 37 42 48 32 59 -10 13 -4 16 34 19 62 5 74 -4 54 -39 -12
-22 -22 -28 -47 -27 -18 1 -32 -1 -32 -5 0 -11 55 -61 67 -61 16 0 53 49 53
69 0 9 6 28 14 43 12 23 12 28 -2 41 -27 23 -35 25 -66 16z"/>
<path d="M228 655 c-3 -3 -3 -26 0 -50 l4 -44 -51 -7 c-63 -8 -63 -29 0 -29
48 0 59 -7 52 -36 -5 -19 -38 -25 -110 -20 -36 2 -40 -4 -18 -32 7 -11 16 -36
20 -57 6 -36 35 -78 35 -51 0 6 12 11 26 11 14 0 24 -4 22 -10 -8 -26 -79
-102 -131 -141 -31 -24 -53 -45 -48 -47 20 -7 109 45 154 90 l47 47 0 -103 c0
-78 4 -107 14 -115 27 -23 39 23 33 126 -3 51 -3 93 0 93 2 0 18 -14 35 -30
36 -36 58 -39 58 -6 0 28 -13 39 -62 55 -26 9 -38 18 -38 31 0 16 10 20 60 26
56 6 76 17 49 26 -8 3 -4 18 10 46 12 24 19 47 15 53 -13 22 -53 28 -94 14
l-40 -14 0 28 c0 25 4 29 38 35 20 3 44 10 52 16 23 16 -7 32 -47 25 -31 -6
-33 -4 -33 24 0 33 -35 63 -52 46z m112 -218 c0 -29 -18 -47 -47 -47 -19 0
-23 5 -23 28 0 36 6 42 42 42 23 0 28 -4 28 -23z m-105 -19 c0 -38 -9 -48 -47
-48 -25 0 -28 4 -28 34 0 32 3 35 33 39 17 2 34 5 37 5 3 1 5 -13 5 -30z"/>
<path d="M600 474 c-36 -7 -89 -13 -119 -14 -47 0 -52 -2 -45 -17 5 -10 8 -62
6 -115 -3 -102 7 -142 33 -132 37 15 -10 -61 -72 -116 -26 -23 -39 -40 -30
-40 25 0 187 117 187 136 0 4 -7 12 -17 19 -13 10 -3 13 58 18 57 4 77 2 85
-9 6 -8 14 -14 16 -14 15 0 27 67 30 163 3 107 2 109 -22 123 -29 16 -26 16
-110 -2z m68 -52 c3 -20 0 -23 -16 -18 -10 4 -46 0 -78 -9 -81 -21 -94 -20
-94 9 0 22 6 26 48 31 26 3 54 8 62 10 8 2 29 2 45 2 23 -2 31 -7 33 -25z m12
-71 c0 -24 -3 -28 -23 -24 -12 3 -57 -2 -100 -10 l-77 -15 0 28 c0 25 3 28 43
29 23 1 60 6 82 10 70 15 75 14 75 -18z m-3 -85 c-4 -9 -33 -16 -84 -20 -43
-4 -86 -10 -95 -12 -14 -4 -18 1 -18 18 0 22 6 25 98 38 100 15 113 12 99 -24z"/>
<path d="M620 176 c0 -3 29 -35 63 -72 39 -41 68 -64 75 -60 13 8 16 55 4 73
-14 22 -142 75 -142 59z"/>
</g>
</svg>
