<?xml version="1.0" standalone="no"?>
<!DOCTYPE svg PUBLIC "-//W3C//DTD SVG 20010904//EN"
 "http://www.w3.org/TR/2001/REC-SVG-20010904/DTD/svg10.dtd">
<svg version="1.0" xmlns="http://www.w3.org/2000/svg"
 width="96.000000pt" height="68.000000pt" viewBox="0 0 96.000000 68.000000"
 preserveAspectRatio="xMidYMid meet">
<metadata>
Created by potrace 1.16, written by Peter Selinger 2001-2019
</metadata>
<g transform="translate(0.000000,68.000000) scale(0.100000,-0.100000)"
fill="#000000" stroke="none">
<path d="M315 419 c8 -37 -4 -49 -53 -49 -22 0 -31 -4 -26 -11 4 -7 21 -9 45
-5 l39 6 0 -58 c0 -76 -31 -118 -144 -195 -39 -26 -39 -28 -11 -21 43 10 79
30 121 67 l37 32 -5 -73 c-4 -52 -2 -75 8 -83 24 -20 34 1 34 72 0 69 7 82 30
54 7 -8 21 -15 32 -15 32 0 17 32 -22 45 l-35 12 0 84 0 84 33 5 c42 6 37 26
-6 23 -29 -2 -32 0 -26 21 4 18 1 25 -18 30 -37 10 -40 8 -33 -25z"/>
</g>
</svg>
