<?xml version="1.0" standalone="no"?>
<!DOCTYPE svg PUBLIC "-//W3C//DTD SVG 20010904//EN"
 "http://www.w3.org/TR/2001/REC-SVG-20010904/DTD/svg10.dtd">
<svg version="1.0" xmlns="http://www.w3.org/2000/svg"
 width="96.000000pt" height="68.000000pt" viewBox="0 0 96.000000 68.000000"
 preserveAspectRatio="xMidYMid meet">
<metadata>
Created by potrace 1.16, written by Peter Selinger 2001-2019
</metadata>
<g transform="translate(0.000000,68.000000) scale(0.100000,-0.100000)"
fill="#000000" stroke="none">
<path d="M445 505 c-55 -13 -102 -24 -105 -25 -3 -1 6 -5 20 -9 25 -7 25 -8
28 -134 2 -99 6 -127 16 -127 9 0 16 17 20 44 7 44 8 45 48 48 23 2 43 8 45
14 3 8 -10 10 -42 7 -45 -6 -45 -5 -45 25 0 28 3 30 45 36 25 4 45 12 45 18 0
7 -16 8 -44 4 l-45 -7 6 38 c3 21 7 39 8 40 0 2 37 8 81 14 88 13 95 16 74 29
-21 13 -40 11 -155 -15z"/>
</g>
</svg>
