<?xml version="1.0" standalone="no"?>
<!DOCTYPE svg PUBLIC "-//W3C//DTD SVG 20010904//EN"
 "http://www.w3.org/TR/2001/REC-SVG-20010904/DTD/svg10.dtd">
<svg version="1.0" xmlns="http://www.w3.org/2000/svg"
 width="96.000000pt" height="68.000000pt" viewBox="0 0 96.000000 68.000000"
 preserveAspectRatio="xMidYMid meet">
<metadata>
Created by potrace 1.16, written by Peter Selinger 2001-2019
</metadata>
<g transform="translate(0.000000,68.000000) scale(0.100000,-0.100000)"
fill="#000000" stroke="none">
<path d="M225 573 c5 -10 10 -48 13 -84 l4 -67 -28 -6 c-16 -3 -46 -8 -66 -12
-21 -3 -38 -10 -38 -14 0 -13 50 -22 81 -15 20 5 29 3 29 -6 0 -19 -48 -99
-92 -152 -22 -27 -38 -51 -35 -54 11 -10 79 40 108 80 l29 40 0 -54 c0 -30 -4
-69 -9 -87 -11 -37 3 -92 23 -92 30 0 36 25 36 149 l0 124 24 -22 c26 -25 46
-21 46 9 0 12 -12 22 -36 30 -45 15 -42 41 6 56 45 15 46 38 2 42 l-33 3 6 64
c6 57 5 64 -13 74 -12 6 -30 11 -42 11 -17 0 -20 -4 -15 -17z"/>
<path d="M447 506 c-101 -24 -130 -36 -84 -36 l27 0 0 -134 0 -134 -39 -7
c-29 -5 -38 -11 -34 -21 9 -24 62 -15 129 22 35 20 64 32 65 27 0 -4 0 -35 -1
-69 -1 -44 3 -64 14 -73 13 -11 17 -11 20 0 7 20 16 198 16 317 l0 102 25 0
c28 0 34 15 9 24 -23 9 -38 7 -147 -18z m71 -54 c3 -27 -1 -34 -23 -42 -45
-17 -65 -13 -61 13 3 12 5 30 5 39 1 17 23 27 56 25 15 -2 21 -10 23 -35z m0
-94 c-3 -31 -6 -33 -45 -36 -42 -3 -43 -2 -43 27 0 25 5 30 28 34 63 9 63 9
60 -25z m2 -83 c0 -26 -15 -36 -75 -51 -22 -5 -25 -3 -25 19 0 48 9 57 56 57
40 0 44 -2 44 -25z"/>
<path d="M725 484 c-22 -9 -53 -13 -70 -11 l-30 5 3 -217 c1 -119 5 -223 8
-231 14 -40 25 34 30 212 4 123 10 197 18 204 6 6 26 14 44 17 39 8 41 -5 12
-63 -11 -22 -20 -43 -20 -49 0 -5 16 -25 35 -44 22 -22 35 -45 35 -60 0 -22
-5 -26 -36 -29 l-37 -3 44 -28 c55 -36 73 -28 77 35 3 41 0 48 -36 79 -21 19
-46 39 -56 44 -14 9 -9 18 40 69 42 44 53 61 43 67 -8 5 -19 9 -26 9 -6 0 -17
2 -25 4 -7 3 -31 -2 -53 -10z"/>
</g>
</svg>
