<?xml version="1.0" standalone="no"?>
<!DOCTYPE svg PUBLIC "-//W3C//DTD SVG 20010904//EN"
 "http://www.w3.org/TR/2001/REC-SVG-20010904/DTD/svg10.dtd">
<svg version="1.0" xmlns="http://www.w3.org/2000/svg"
 width="96.000000pt" height="68.000000pt" viewBox="0 0 96.000000 68.000000"
 preserveAspectRatio="xMidYMid meet">
<metadata>
Created by potrace 1.16, written by Peter Selinger 2001-2019
</metadata>
<g transform="translate(0.000000,68.000000) scale(0.100000,-0.100000)"
fill="#000000" stroke="none">
<path d="M266 558 c-2 -7 -9 -32 -15 -55 -13 -46 -70 -136 -132 -206 -23 -27
-39 -50 -36 -53 9 -9 49 16 88 53 41 39 84 43 84 8 0 -16 -8 -21 -39 -25 -58
-7 -59 -30 -2 -30 l46 0 0 -49 c0 -28 -4 -52 -9 -55 -5 -3 -41 -9 -80 -12 -75
-7 -83 -15 -39 -42 25 -15 32 -14 125 17 140 47 153 52 153 64 0 6 -15 7 -37
4 l-38 -6 24 20 c13 11 31 24 40 29 14 9 14 12 -3 25 -11 8 -23 15 -26 15 -3
0 -18 -24 -33 -52 l-26 -53 2 55 c2 46 5 55 22 58 49 7 65 13 60 22 -3 6 -24
10 -46 10 -32 0 -39 3 -39 20 0 15 9 22 30 27 17 3 29 11 27 17 -4 12 -55 13
-105 1 l-33 -8 33 56 c18 31 36 57 39 57 3 0 19 -11 35 -25 33 -29 59 -29 59
0 0 13 -13 26 -38 38 -30 15 -36 23 -31 39 4 13 -1 24 -13 33 -23 18 -43 19
-47 3z"/>
<path d="M486 562 c-3 -3 -6 -25 -6 -49 0 -43 0 -43 -35 -43 -19 0 -35 -4 -35
-10 0 -5 16 -10 35 -10 31 0 35 -3 35 -25 0 -22 -3 -25 -24 -19 -13 3 -26 1
-30 -4 -3 -5 8 -12 25 -16 25 -5 30 -10 27 -28 -3 -20 -11 -24 -52 -28 -48 -5
-49 -5 -25 -18 18 -9 32 -10 51 -3 23 9 27 7 32 -15 9 -33 23 -30 31 6 4 19
13 30 24 30 9 0 26 7 37 15 18 14 16 15 -18 9 -33 -5 -38 -4 -38 14 0 20 25
37 40 27 5 -3 11 -1 15 5 4 6 -7 13 -23 16 -23 5 -28 10 -25 25 3 10 14 19 24
19 10 0 21 5 24 10 4 6 -5 10 -20 10 -21 0 -26 4 -25 23 4 43 0 55 -19 60 -11
3 -22 2 -25 -1z"/>
<path d="M673 477 c-66 -11 -85 -27 -33 -27 28 0 30 -2 24 -27 -7 -28 -48 -91
-68 -105 -7 -5 -5 -8 4 -8 20 0 64 41 97 91 22 33 24 42 13 49 -10 6 -7 10 13
15 57 15 64 -7 35 -103 -9 -29 -13 -33 -35 -27 -21 5 -23 4 -13 -14 14 -27 27
-33 49 -26 20 6 31 28 56 119 23 81 9 87 -142 63z"/>
<path d="M574 260 c4 -20 1 -32 -7 -35 -11 -3 -110 -13 -145 -15 -7 0 -10 -5
-6 -11 5 -8 30 -10 81 -5 l73 6 -15 -29 c-15 -31 -81 -87 -127 -111 -42 -21
-25 -24 29 -6 58 20 90 46 132 109 l32 48 110 -2 c61 0 113 2 116 5 16 16 -17
21 -117 19 -103 -3 -108 -2 -103 17 4 15 -2 22 -22 30 -37 14 -38 14 -31 -20z"/>
<path d="M170 212 c0 -17 49 -54 64 -49 22 9 20 23 -6 41 -24 17 -58 21 -58 8z"/>
<path d="M707 100 c37 -33 75 -60 85 -60 23 0 23 28 0 55 -21 26 -101 65 -131
65 -18 0 -9 -11 46 -60z"/>
</g>
</svg>
