<?xml version="1.0" standalone="no"?>
<!DOCTYPE svg PUBLIC "-//W3C//DTD SVG 20010904//EN"
 "http://www.w3.org/TR/2001/REC-SVG-20010904/DTD/svg10.dtd">
<svg version="1.0" xmlns="http://www.w3.org/2000/svg"
 width="96.000000pt" height="68.000000pt" viewBox="0 0 96.000000 68.000000"
 preserveAspectRatio="xMidYMid meet">
<metadata>
Created by potrace 1.16, written by Peter Selinger 2001-2019
</metadata>
<g transform="translate(0.000000,68.000000) scale(0.100000,-0.100000)"
fill="#000000" stroke="none">
<path d="M746 558 c10 -42 9 -372 -1 -416 -6 -30 -10 -33 -34 -29 -14 2 -35 8
-46 12 -11 4 3 -13 30 -38 28 -25 55 -46 62 -47 26 0 33 44 36 241 3 138 8
216 17 241 13 35 12 39 -6 53 -10 8 -29 15 -42 15 -21 0 -23 -3 -16 -32z"/>
</g>
</svg>
