<?xml version="1.0" standalone="no"?>
<!DOCTYPE svg PUBLIC "-//W3C//DTD SVG 20010904//EN"
 "http://www.w3.org/TR/2001/REC-SVG-20010904/DTD/svg10.dtd">
<svg version="1.0" xmlns="http://www.w3.org/2000/svg"
 width="90.000000pt" height="92.000000pt" viewBox="0 0 90.000000 92.000000"
 preserveAspectRatio="xMidYMid meet">
<metadata>
Created by potrace 1.16, written by Peter Selinger 2001-2019
</metadata>
<g transform="translate(0.000000,92.000000) scale(0.100000,-0.100000)"
fill="#000000" stroke="none">
<path d="M437 828 c4 -13 8 -48 8 -78 l0 -54 -45 -8 c-72 -12 -79 -17 -47 -34
20 -11 36 -12 62 -5 34 9 34 9 37 -27 3 -36 2 -37 -47 -53 -48 -15 -49 -16
-27 -28 18 -10 31 -10 60 0 20 7 61 15 91 18 30 3 56 11 58 17 5 15 -39 32
-62 24 -28 -10 -32 -6 -27 33 l4 34 65 6 c75 7 83 11 61 33 -18 18 -48 21 -96
10 l-34 -8 3 58 c4 71 -3 84 -42 84 -27 0 -29 -2 -22 -22z"/>
<path d="M124 767 c3 -13 8 -48 12 -79 l7 -57 -37 -6 c-20 -4 -50 -5 -66 -1
-33 6 -35 4 -19 -25 5 -11 15 -48 20 -82 10 -61 27 -96 38 -79 3 5 18 12 34
16 l27 6 0 -74 0 -74 -31 -11 c-18 -6 -50 -11 -72 -11 -32 0 -38 -3 -33 -16 3
-9 6 -17 6 -20 0 -2 13 -10 29 -19 21 -11 32 -12 37 -4 5 9 186 99 198 99 2 0
9 -14 16 -30 16 -39 34 -33 38 12 3 37 -29 87 -71 109 -21 12 -21 3 -2 -44 6
-13 -1 -20 -29 -32 -19 -8 -38 -15 -41 -15 -3 0 -5 27 -5 60 0 67 12 80 75 80
29 0 36 3 31 15 -3 8 6 40 20 70 13 31 22 61 19 66 -15 24 -63 38 -96 29 -18
-5 -35 -7 -38 -5 -3 3 0 29 6 58 11 48 10 53 -9 70 -11 9 -31 17 -45 17 -21 0
-24 -4 -19 -23z m126 -174 c0 -10 -5 -35 -11 -55 -7 -27 -15 -38 -29 -38 -17
0 -20 7 -20 55 0 54 0 55 30 55 22 0 30 -5 30 -17z m-110 -48 c0 -41 -4 -55
-14 -55 -8 0 -21 -3 -30 -6 -13 -5 -16 3 -16 49 0 56 6 65 43 66 14 1 17 -8
17 -54z"/>
<path d="M760 763 c0 -32 -38 -101 -92 -165 -45 -54 -39 -60 19 -20 45 31 101
91 129 140 l19 34 -24 19 c-33 27 -51 24 -51 -8z"/>
<path d="M747 540 c-8 -38 -49 -105 -95 -152 -43 -45 -32 -48 29 -10 49 32
141 131 136 147 -2 5 -17 18 -34 28 l-30 17 -6 -30z"/>
<path d="M450 494 c-36 -8 -75 -12 -87 -9 -22 5 -43 -10 -22 -17 10 -3 40
-105 41 -138 0 -8 9 -39 19 -69 11 -29 17 -56 14 -59 -3 -3 -33 -8 -66 -10
-64 -5 -69 -13 -27 -45 26 -19 26 -19 79 5 30 14 91 40 137 58 79 31 103 50
63 50 -10 0 -35 -7 -55 -15 l-37 -16 26 52 c21 40 24 54 14 65 -9 11 -8 14 6
14 14 0 15 3 5 15 -10 12 -7 23 13 60 l26 45 -22 15 c-25 18 -41 18 -127 -1z
m75 -49 c1 -15 -5 -33 -12 -40 -13 -14 -91 -31 -99 -22 -3 2 -7 20 -11 40 l-5
35 53 10 c69 12 74 11 74 -23z m-25 -117 c-1 -40 -18 -101 -32 -109 -23 -15
-28 -10 -22 21 5 24 1 35 -24 58 l-31 29 22 11 c12 6 37 11 55 11 27 1 32 -3
32 -21z"/>
<path d="M782 364 c-18 -65 -82 -156 -179 -252 -46 -45 -81 -82 -78 -82 3 0
29 12 58 26 60 31 159 123 225 209 26 33 50 62 54 63 20 9 5 44 -24 62 -18 11
-35 20 -38 20 -3 0 -11 -21 -18 -46z"/>
</g>
</svg>
