<?xml version="1.0" standalone="no"?>
<!DOCTYPE svg PUBLIC "-//W3C//DTD SVG 20010904//EN"
 "http://www.w3.org/TR/2001/REC-SVG-20010904/DTD/svg10.dtd">
<svg version="1.0" xmlns="http://www.w3.org/2000/svg"
 width="96.000000pt" height="68.000000pt" viewBox="0 0 96.000000 68.000000"
 preserveAspectRatio="xMidYMid meet">
<metadata>
Created by potrace 1.16, written by Peter Selinger 2001-2019
</metadata>
<g transform="translate(0.000000,68.000000) scale(0.100000,-0.100000)"
fill="#000000" stroke="none">
<path d="M580 616 c0 -52 -9 -66 -40 -66 -16 0 -31 -4 -34 -9 -8 -12 20 -22
40 -14 13 5 14 0 9 -31 -4 -20 -5 -36 -2 -36 2 0 16 18 31 40 24 37 30 40 74
41 26 0 56 4 66 8 30 11 2 24 -51 23 l-44 0 7 33 c5 28 3 33 -18 38 -36 10
-38 9 -38 -27z"/>
<path d="M300 614 c0 -3 9 -17 20 -31 11 -14 20 -30 20 -34 0 -5 -31 -9 -70
-9 -76 0 -92 -15 -45 -40 20 -10 33 -11 64 -2 54 17 69 15 76 -8 10 -31 36
-25 33 8 -2 21 2 28 20 30 33 5 27 22 -8 22 -23 0 -30 5 -30 19 0 27 -27 51
-56 51 -13 0 -24 -3 -24 -6z"/>
</g>
</svg>
