<?xml version="1.0" standalone="no"?>
<!DOCTYPE svg PUBLIC "-//W3C//DTD SVG 20010904//EN"
 "http://www.w3.org/TR/2001/REC-SVG-20010904/DTD/svg10.dtd">
<svg version="1.0" xmlns="http://www.w3.org/2000/svg"
 width="96.000000pt" height="68.000000pt" viewBox="0 0 96.000000 68.000000"
 preserveAspectRatio="xMidYMid meet">
<metadata>
Created by potrace 1.16, written by Peter Selinger 2001-2019
</metadata>
<g transform="translate(0.000000,68.000000) scale(0.100000,-0.100000)"
fill="#000000" stroke="none">
<path d="M280 587 c0 -16 57 -50 70 -42 19 12 10 35 -17 41 -16 3 -34 7 -40
10 -7 2 -13 -2 -13 -9z"/>
<path d="M240 495 c26 -28 45 -32 53 -11 8 20 -13 36 -47 36 l-29 0 23 -25z"/>
<path d="M319 441 c-19 -15 -49 -36 -66 -45 -37 -18 -39 -24 -20 -50 12 -16
18 -12 71 49 64 72 70 91 15 46z"/>
</g>
</svg>
