<?xml version="1.0" standalone="no"?>
<!DOCTYPE svg PUBLIC "-//W3C//DTD SVG 20010904//EN"
 "http://www.w3.org/TR/2001/REC-SVG-20010904/DTD/svg10.dtd">
<svg version="1.0" xmlns="http://www.w3.org/2000/svg"
 width="96.000000pt" height="68.000000pt" viewBox="0 0 96.000000 68.000000"
 preserveAspectRatio="xMidYMid meet">
<metadata>
Created by potrace 1.16, written by Peter Selinger 2001-2019
</metadata>
<g transform="translate(0.000000,68.000000) scale(0.100000,-0.100000)"
fill="#000000" stroke="none">
<path d="M500 235 c-30 -7 -74 -14 -97 -14 -52 -1 -55 -13 -8 -30 36 -13 95
-57 95 -71 0 -11 -90 -48 -157 -64 -32 -8 -48 -15 -35 -15 33 -1 162 29 195
46 28 14 31 13 89 -26 50 -34 70 -41 108 -41 60 0 140 11 140 19 0 3 -42 14
-92 24 -51 10 -115 28 -141 40 l-48 22 45 49 c25 27 46 52 46 56 0 22 -56 24
-140 5z m60 -26 c0 -6 -9 -24 -20 -39 l-20 -29 -40 26 c-22 15 -38 29 -35 31
5 6 69 19 98 21 9 0 17 -4 17 -10z"/>
</g>
</svg>
