<?xml version="1.0" standalone="no"?>
<!DOCTYPE svg PUBLIC "-//W3C//DTD SVG 20010904//EN"
 "http://www.w3.org/TR/2001/REC-SVG-20010904/DTD/svg10.dtd">
<svg version="1.0" xmlns="http://www.w3.org/2000/svg"
 width="96.000000pt" height="68.000000pt" viewBox="0 0 96.000000 68.000000"
 preserveAspectRatio="xMidYMid meet">
<metadata>
Created by potrace 1.16, written by Peter Selinger 2001-2019
</metadata>
<g transform="translate(0.000000,68.000000) scale(0.100000,-0.100000)"
fill="#000000" stroke="none">
<path d="M314 563 c-15 -51 -61 -127 -95 -158 -22 -19 -37 -35 -33 -35 3 0
-16 -19 -43 -41 -26 -23 -50 -43 -52 -45 -2 -2 5 -4 17 -4 11 0 50 20 86 45
37 25 68 45 70 45 6 0 -4 -166 -14 -213 -8 -37 -7 -55 2 -75 17 -34 36 -39 46
-10 14 36 24 316 12 323 -17 10 -12 21 35 78 48 60 52 69 33 85 -28 21 -58 24
-64 5z"/>
<path d="M585 459 c-77 -10 -153 -23 -170 -27 -55 -16 0 -26 87 -16 72 9 81 8
89 -8 5 -10 8 -82 7 -160 l-3 -143 -25 1 c-14 1 -35 5 -48 9 -18 6 -11 -4 24
-39 27 -25 51 -46 54 -46 4 0 17 12 31 26 24 25 24 28 22 204 l-3 178 87 1
c96 2 115 8 88 28 -24 16 -65 15 -240 -8z"/>
</g>
</svg>
