<?xml version="1.0" standalone="no"?>
<!DOCTYPE svg PUBLIC "-//W3C//DTD SVG 20010904//EN"
 "http://www.w3.org/TR/2001/REC-SVG-20010904/DTD/svg10.dtd">
<svg version="1.0" xmlns="http://www.w3.org/2000/svg"
 width="90.000000pt" height="92.000000pt" viewBox="0 0 90.000000 92.000000"
 preserveAspectRatio="xMidYMid meet">
<metadata>
Created by potrace 1.16, written by Peter Selinger 2001-2019
</metadata>
<g transform="translate(0.000000,92.000000) scale(0.100000,-0.100000)"
fill="#000000" stroke="none">
<path d="M426 876 l6 -36 -38 0 c-58 0 -114 -11 -108 -21 3 -5 36 -9 75 -9 55
0 69 -3 69 -15 0 -10 -10 -15 -29 -15 -45 0 -91 -12 -85 -21 3 -5 30 -9 60 -9
40 0 54 -4 54 -14 0 -10 -28 -17 -105 -26 -58 -7 -105 -16 -105 -20 0 -19 47
-26 99 -14 70 17 271 36 324 32 45 -3 60 13 25 29 -15 7 -42 7 -73 2 -81 -13
-125 -11 -125 5 0 10 16 17 48 21 71 10 81 14 58 27 -10 6 -38 8 -63 4 -33 -4
-44 -3 -41 6 4 12 20 16 113 33 38 6 39 8 20 21 -19 14 -54 13 -107 -2 -12 -4
-17 2 -20 23 -2 22 -9 29 -31 31 -27 3 -28 2 -21 -32z"/>
<path d="M465 675 c-27 -7 -71 -14 -97 -14 -46 -1 -48 -2 -48 -30 0 -17 -5
-33 -10 -36 -6 -3 -53 -11 -105 -17 -52 -6 -95 -14 -95 -18 0 -4 11 -13 24
-20 24 -12 44 -11 124 6 31 6 32 6 26 -24 -8 -37 3 -44 51 -31 29 8 40 8 46
-2 6 -10 12 -10 27 4 26 24 74 22 90 -4 l14 -21 18 20 c10 11 25 22 32 25 10
4 11 7 1 18 -7 7 -13 21 -13 31 0 16 11 18 110 18 85 0 110 3 110 13 0 26 -47
37 -126 30 -75 -6 -76 -6 -69 16 8 27 -10 51 -39 50 -11 -1 -43 -7 -71 -14z
m63 -43 c3 -19 -1 -22 -30 -22 -22 0 -37 7 -45 19 -11 18 -9 20 20 24 46 5 52
3 55 -21z m-108 -12 c0 -13 -7 -20 -19 -20 -11 0 -26 -3 -35 -6 -19 -7 -22 16
-4 34 20 20 58 15 58 -8z m93 -60 c-4 -15 -14 -20 -39 -20 -45 0 -47 27 -1 33
17 2 35 5 39 5 3 1 4 -7 1 -18z m-103 3 c-1 -18 -17 -31 -47 -38 -29 -6 -33
-4 -33 14 0 16 8 21 38 24 20 2 38 4 40 5 1 1 2 -1 2 -5z"/>
<path d="M533 464 c-34 -35 -57 -64 -52 -64 15 0 159 81 159 89 0 9 -34 42
-41 40 -2 -1 -32 -30 -66 -65z"/>
<path d="M300 464 c-30 -8 -67 -11 -82 -8 -27 5 -28 5 -23 -38 2 -24 7 -75 10
-114 5 -81 3 -84 -82 -84 -47 0 -63 -14 -35 -29 13 -7 45 -6 101 3 l82 13 -2
-84 c-1 -79 9 -118 28 -99 4 4 11 46 14 93 4 55 12 89 20 94 8 5 36 9 62 9 34
0 47 4 45 13 -3 6 -14 13 -26 15 -19 3 -22 10 -21 50 0 26 4 70 9 97 8 44 6
52 -12 68 -11 9 -23 17 -27 16 -3 -1 -31 -7 -61 -15z m50 -39 c0 -8 -8 -15
-17 -15 -10 0 -35 -3 -56 -6 -31 -6 -36 -4 -31 9 10 28 104 39 104 12z m4 -60
c4 -12 -3 -15 -38 -15 -25 0 -51 -3 -60 -6 -11 -4 -16 0 -16 13 0 17 8 20 54
22 40 1 55 -2 60 -14z m0 -50 c4 -11 -1 -15 -17 -15 -12 0 -39 -3 -59 -6 -31
-5 -38 -3 -38 9 0 11 12 17 38 20 20 2 44 4 53 5 9 1 19 -5 23 -13z m-6 -69
c-1 -2 -27 -6 -55 -9 -47 -5 -53 -4 -53 13 0 16 9 19 53 22 37 2 53 -1 55 -10
2 -8 2 -15 0 -16z"/>
<path d="M550 391 c-25 -27 -51 -50 -58 -52 -8 -3 -11 -11 -6 -23 5 -14 14
-17 43 -12 l36 7 -35 -30 c-19 -17 -41 -31 -47 -31 -17 0 -16 -25 0 -39 10 -8
25 -6 56 6 53 21 61 12 61 -69 l0 -58 -32 0 -32 0 29 -30 c35 -37 48 -38 63
-5 16 34 15 158 0 173 -12 12 -11 12 37 27 9 2 20 -6 29 -22 l13 -27 12 22
c14 26 2 56 -29 72 -27 14 -32 13 -25 -9 5 -16 -3 -19 -64 -28 -38 -5 -68 -6
-65 -1 3 4 36 24 74 45 72 39 81 51 54 74 -13 11 -19 8 -37 -15 -19 -23 -29
-27 -60 -24 l-38 3 51 33 c49 32 60 55 29 59 -8 1 -34 -20 -59 -46z"/>
<path d="M180 166 c0 -7 -11 -35 -25 -62 -14 -27 -25 -50 -25 -52 0 -8 41 21
68 49 24 24 29 36 22 49 -12 22 -40 34 -40 16z"/>
<path d="M487 151 c-3 -15 -18 -42 -32 -60 -15 -17 -24 -31 -20 -31 15 0 62
30 84 53 24 27 22 40 -8 57 -16 8 -20 5 -24 -19z"/>
<path d="M680 174 c0 -3 5 -10 11 -17 5 -7 19 -27 30 -45 20 -35 42 -38 47 -8
5 23 -22 52 -59 65 -16 5 -29 8 -29 5z"/>
<path d="M380 120 c11 -22 22 -40 25 -40 2 0 9 9 15 20 8 15 6 24 -10 40 -11
11 -27 20 -35 20 -13 0 -12 -6 5 -40z"/>
</g>
</svg>
