<?xml version="1.0" standalone="no"?>
<!DOCTYPE svg PUBLIC "-//W3C//DTD SVG 20010904//EN"
 "http://www.w3.org/TR/2001/REC-SVG-20010904/DTD/svg10.dtd">
<svg version="1.0" xmlns="http://www.w3.org/2000/svg"
 width="96.000000pt" height="68.000000pt" viewBox="0 0 96.000000 68.000000"
 preserveAspectRatio="xMidYMid meet">
<metadata>
Created by potrace 1.16, written by Peter Selinger 2001-2019
</metadata>
<g transform="translate(0.000000,68.000000) scale(0.100000,-0.100000)"
fill="#000000" stroke="none">
<path d="M455 640 c-3 -6 -3 -19 0 -30 6 -19 2 -20 -58 -20 -48 0 -66 -4 -71
-15 -3 -8 -2 -14 2 -14 4 1 36 0 72 -1 66 -2 65 -4 -2 -15 -52 -8 -48 -25 6
-25 25 0 47 -4 50 -9 6 -9 -64 -21 -125 -21 -22 0 -39 -4 -39 -10 0 -12 19
-13 112 -1 127 17 161 20 228 20 49 1 61 4 52 13 -8 8 -34 9 -97 2 -67 -7 -85
-7 -85 3 0 7 11 13 24 13 38 0 86 12 86 21 0 5 -24 9 -52 10 -42 1 -48 3 -28
9 14 4 42 8 63 9 26 1 37 5 34 14 -3 8 -22 11 -56 10 -39 -2 -51 1 -51 13 0 8
-12 19 -26 24 -31 12 -31 12 -39 0z"/>
<path d="M505 468 c-22 -4 -61 -8 -87 -9 -39 -1 -48 -5 -48 -20 0 -27 -31 -39
-97 -39 -32 0 -65 -4 -73 -10 -27 -17 19 -24 84 -13 66 11 76 9 58 -9 -7 -7
-12 -16 -12 -20 0 -9 105 -3 153 8 21 5 31 2 41 -12 13 -17 14 -17 39 3 18 14
23 23 15 31 -23 23 4 33 88 31 47 -1 88 1 91 5 17 17 -27 25 -95 20 -61 -6
-72 -5 -67 8 7 17 -12 36 -35 35 -8 -1 -33 -4 -55 -9z m43 -25 c-4 -22 -47
-30 -59 -11 -15 23 -10 28 27 28 28 0 35 -3 32 -17z m-99 -2 c19 -12 5 -31
-24 -31 -31 0 -40 16 -18 29 22 13 25 13 42 2z m-10 -67 c-16 -19 -70 -19 -63
0 5 14 50 26 67 18 4 -2 3 -10 -4 -18z m101 16 c0 -5 -6 -10 -14 -10 -8 0 -21
-3 -30 -6 -11 -4 -16 -1 -16 10 0 11 9 16 30 16 17 0 30 -4 30 -10z"/>
<path d="M560 320 c-25 -22 -40 -40 -33 -40 22 0 113 53 113 66 0 25 -35 14
-80 -26z"/>
<path d="M365 320 c-16 -4 -47 -8 -68 -9 l-38 -1 6 -79 7 -78 -56 -7 c-81 -11
-71 -28 12 -20 37 4 74 8 82 8 11 1 15 -10 15 -44 0 -42 -2 -45 -25 -42 l-25
4 28 -22 c40 -31 54 -21 59 44 3 31 7 59 10 62 3 3 28 9 55 14 41 7 45 9 24
15 -23 8 -23 10 -17 81 4 45 3 74 -3 74 -5 0 -15 2 -23 4 -7 2 -26 0 -43 -4z
m35 -25 c0 -8 -8 -15 -19 -15 -10 0 -33 -3 -51 -7 -25 -5 -32 -3 -28 8 4 12
37 23 86 28 6 0 12 -6 12 -14z m0 -40 c0 -14 -7 -16 -77 -19 -9 -1 -18 4 -20
11 -3 7 10 13 34 16 21 2 44 4 51 5 6 1 12 -5 12 -13z m0 -40 c0 -10 -10 -15
-27 -15 -16 0 -38 -3 -50 -6 -17 -5 -23 -2 -23 9 0 15 15 19 83 25 9 1 17 -5
17 -13z m0 -40 c0 -11 -12 -15 -50 -15 -53 0 -69 16 -22 23 57 9 72 7 72 -8z"/>
<path d="M600 299 c0 -12 -60 -69 -72 -69 -5 0 -8 -7 -8 -16 0 -12 7 -14 33
-9 32 6 31 6 -11 -20 -53 -33 -46 -49 19 -40 l49 7 0 -52 c0 -47 -2 -52 -20
-47 -26 7 -26 -4 0 -26 26 -22 37 -21 50 2 13 26 13 121 -1 121 -5 0 -7 5 -4
10 3 6 17 10 30 10 13 0 27 -4 30 -10 10 -17 25 -11 25 10 0 10 -9 24 -19 30
-26 13 -31 13 -31 -4 0 -13 -96 -33 -107 -22 -3 3 25 19 62 35 57 26 66 33 55
46 -13 15 -22 13 -52 -12 -9 -8 -29 -13 -45 -11 l-28 3 38 19 c47 23 53 32 27
46 -15 8 -20 8 -20 -1z"/>
<path d="M240 92 c0 -10 -5 -23 -12 -30 -6 -6 -8 -15 -5 -19 11 -10 61 43 53
56 -11 18 -36 13 -36 -7z"/>
<path d="M502 75 c-14 -23 -18 -35 -10 -35 21 1 71 47 64 59 -13 20 -30 12
-54 -24z"/>
<path d="M717 80 c17 -30 37 -38 48 -21 5 10 -41 51 -57 51 -5 0 -1 -13 9 -30z"/>
<path d="M426 74 c11 -17 20 -22 27 -15 12 12 -8 41 -29 41 -12 0 -11 -5 2
-26z"/>
</g>
</svg>
