<?xml version="1.0" standalone="no"?>
<!DOCTYPE svg PUBLIC "-//W3C//DTD SVG 20010904//EN"
 "http://www.w3.org/TR/2001/REC-SVG-20010904/DTD/svg10.dtd">
<svg version="1.0" xmlns="http://www.w3.org/2000/svg"
 width="90.000000pt" height="92.000000pt" viewBox="0 0 90.000000 92.000000"
 preserveAspectRatio="xMidYMid meet">
<metadata>
Created by potrace 1.16, written by Peter Selinger 2001-2019
</metadata>
<g transform="translate(0.000000,92.000000) scale(0.100000,-0.100000)"
fill="#000000" stroke="none">
<path d="M155 840 c-3 -5 -2 -18 4 -27 5 -10 12 -64 16 -120 l7 -102 -38 -10
c-22 -5 -61 -13 -87 -17 -74 -10 -53 -29 31 -28 40 0 72 -4 72 -9 0 -19 -86
-172 -123 -219 -21 -27 -37 -53 -35 -59 6 -17 79 53 125 120 l45 66 -7 -95
c-4 -52 -11 -116 -16 -141 -15 -71 23 -152 47 -101 5 9 11 98 14 197 l5 180
29 -42 c34 -51 56 -56 56 -13 0 26 -6 33 -45 52 -36 18 -45 27 -45 48 0 23 7
29 47 41 25 8 48 20 51 27 5 17 -38 31 -65 21 -22 -8 -23 -7 -23 49 0 31 5 74
9 96 12 48 8 58 -28 79 -34 20 -38 20 -46 7z"/>
<path d="M685 723 c-22 -8 -61 -17 -87 -20 -54 -6 -59 -15 -25 -38 22 -14 28
-14 61 0 21 9 50 15 65 13 24 -3 27 -8 33 -58 13 -117 3 -428 -15 -446 -7 -7
-20 -4 -81 22 -12 5 -1 -15 30 -54 27 -33 55 -60 63 -59 8 1 23 15 35 30 20
27 21 40 21 285 1 141 4 263 9 270 9 16 -8 39 -43 56 -21 10 -33 10 -66 -1z"/>
<path d="M395 672 c-33 -8 -66 -16 -74 -19 -11 -3 -9 -8 8 -19 19 -13 29 -14
71 -3 27 7 53 9 57 5 13 -13 10 -433 -3 -446 -9 -9 -20 -7 -44 5 -42 22 -48
14 -17 -22 14 -15 35 -39 46 -53 l21 -25 25 28 c29 33 29 28 26 272 -2 126 1
200 9 220 10 27 9 32 -17 52 -32 26 -27 26 -108 5z"/>
<path d="M570 562 c0 -5 15 -26 33 -47 38 -43 67 -43 67 0 0 20 -8 29 -35 41
-38 16 -65 18 -65 6z"/>
<path d="M320 523 c0 -19 66 -86 78 -79 16 10 15 51 -1 65 -19 15 -77 26 -77
14z"/>
<path d="M655 413 c-22 -19 -55 -42 -72 -49 -18 -8 -33 -20 -33 -28 0 -15 31
-46 46 -46 11 0 104 136 104 151 0 13 0 12 -45 -28z"/>
<path d="M375 369 c-27 -21 -62 -41 -77 -45 -16 -3 -28 -10 -28 -15 0 -12 37
-49 49 -49 15 0 119 136 110 144 -2 2 -26 -14 -54 -35z"/>
</g>
</svg>
