<?xml version="1.0" standalone="no"?>
<!DOCTYPE svg PUBLIC "-//W3C//DTD SVG 20010904//EN"
 "http://www.w3.org/TR/2001/REC-SVG-20010904/DTD/svg10.dtd">
<svg version="1.0" xmlns="http://www.w3.org/2000/svg"
 width="96.000000pt" height="68.000000pt" viewBox="0 0 96.000000 68.000000"
 preserveAspectRatio="xMidYMid meet">
<metadata>
Created by potrace 1.16, written by Peter Selinger 2001-2019
</metadata>
<g transform="translate(0.000000,68.000000) scale(0.100000,-0.100000)"
fill="#000000" stroke="none">
<path d="M275 544 c-23 -9 -55 -12 -75 -9 l-35 6 3 -118 c4 -136 -9 -220 -46
-282 -24 -42 -25 -43 -4 -32 29 15 52 52 73 115 15 42 21 50 39 48 12 -2 37 8
56 23 l34 26 0 -58 c0 -32 -3 -75 -6 -96 -6 -36 -8 -37 -40 -31 -19 3 -34 4
-34 2 0 -3 19 -20 42 -38 l41 -33 19 22 c16 21 18 43 18 190 0 91 5 184 10
206 14 62 -23 85 -95 59z m29 -20 c12 -4 16 -20 16 -55 0 -27 -1 -49 -2 -49
-2 0 -23 6 -48 14 -39 11 -45 17 -48 43 -3 26 1 31 30 40 18 6 34 11 35 12 1
1 8 -2 17 -5z m-50 -119 c20 -15 40 -23 50 -19 12 5 16 0 16 -19 0 -20 -9 -28
-49 -46 -27 -11 -52 -21 -55 -21 -3 0 -6 29 -6 65 0 36 3 65 6 65 3 0 20 -11
38 -25z"/>
</g>
</svg>
