<?xml version="1.0" standalone="no"?>
<!DOCTYPE svg PUBLIC "-//W3C//DTD SVG 20010904//EN"
 "http://www.w3.org/TR/2001/REC-SVG-20010904/DTD/svg10.dtd">
<svg version="1.0" xmlns="http://www.w3.org/2000/svg"
 width="96.000000pt" height="68.000000pt" viewBox="0 0 96.000000 68.000000"
 preserveAspectRatio="xMidYMid meet">
<metadata>
Created by potrace 1.16, written by Peter Selinger 2001-2019
</metadata>
<g transform="translate(0.000000,68.000000) scale(0.100000,-0.100000)"
fill="#000000" stroke="none">
<path d="M636 242 c-3 -9 -20 -33 -37 -51 -43 -48 -27 -59 51 -36 58 18 61 18
81 -1 17 -16 22 -16 30 -4 6 11 2 21 -17 38 -29 25 -44 28 -44 8 0 -12 -58
-32 -67 -22 -2 2 8 17 22 35 26 30 26 51 0 51 -7 0 -16 -8 -19 -18z"/>
</g>
</svg>
