<?xml version="1.0" standalone="no"?>
<!DOCTYPE svg PUBLIC "-//W3C//DTD SVG 20010904//EN"
 "http://www.w3.org/TR/2001/REC-SVG-20010904/DTD/svg10.dtd">
<svg version="1.0" xmlns="http://www.w3.org/2000/svg"
 width="90.000000pt" height="92.000000pt" viewBox="0 0 90.000000 92.000000"
 preserveAspectRatio="xMidYMid meet">
<metadata>
Created by potrace 1.16, written by Peter Selinger 2001-2019
</metadata>
<g transform="translate(0.000000,92.000000) scale(0.100000,-0.100000)"
fill="#000000" stroke="none">
<path d="M236 848 c-27 -97 -44 -138 -89 -205 -76 -114 -74 -111 -51 -93 10 8
29 23 42 34 l23 20 40 -40 40 -40 -40 -51 c-22 -27 -56 -61 -76 -74 -42 -29
-45 -42 -7 -28 75 26 168 122 238 247 20 34 43 69 51 78 19 19 10 41 -22 56
-25 11 -33 10 -112 -19 -19 -8 -15 15 8 48 17 24 19 32 8 45 -21 25 -49 37
-53 22z m98 -150 c-3 -13 -20 -50 -37 -83 -28 -55 -31 -58 -40 -38 -5 12 -25
27 -43 33 l-34 12 31 43 c18 25 35 42 39 40 4 -2 20 0 36 5 49 14 56 12 48
-12z"/>
<path d="M580 783 c-25 -8 -65 -12 -90 -9 l-45 4 3 -126 c2 -70 7 -140 11
-157 19 -79 186 -111 280 -54 38 23 38 30 4 129 -3 9 -10 0 -19 -25 -20 -56
-37 -65 -121 -65 -62 0 -75 3 -94 23 -19 20 -21 29 -15 106 9 124 11 129 59
139 63 13 70 7 62 -47 -9 -59 -10 -61 -46 -61 l-30 0 28 -35 c15 -19 34 -35
40 -35 19 0 40 40 52 100 7 30 14 65 17 77 5 17 -1 25 -23 36 -24 12 -34 12
-73 0z"/>
<path d="M377 393 c-17 -16 66 -125 88 -116 18 6 20 53 3 76 -15 19 -83 49
-91 40z"/>
<path d="M705 309 c79 -80 92 -87 106 -55 17 38 -9 70 -76 95 -90 34 -95 27
-30 -40z"/>
<path d="M240 337 c0 -7 10 -42 21 -77 30 -86 93 -152 168 -174 102 -30 254
-13 296 34 21 23 11 41 -37 66 -16 8 -47 31 -69 51 -21 19 -39 33 -39 30 0 -2
9 -26 21 -52 27 -62 19 -69 -83 -74 -131 -6 -197 36 -233 147 -15 46 -45 79
-45 49z"/>
<path d="M122 247 c-35 -67 -40 -98 -18 -116 35 -29 89 95 67 152 -6 15 -12
27 -13 27 -2 0 -18 -28 -36 -63z"/>
</g>
</svg>
