<?xml version="1.0" standalone="no"?>
<!DOCTYPE svg PUBLIC "-//W3C//DTD SVG 20010904//EN"
 "http://www.w3.org/TR/2001/REC-SVG-20010904/DTD/svg10.dtd">
<svg version="1.0" xmlns="http://www.w3.org/2000/svg"
 width="96.000000pt" height="68.000000pt" viewBox="0 0 96.000000 68.000000"
 preserveAspectRatio="xMidYMid meet">
<metadata>
Created by potrace 1.16, written by Peter Selinger 2001-2019
</metadata>
<g transform="translate(0.000000,68.000000) scale(0.100000,-0.100000)"
fill="#000000" stroke="none">
<path d="M550 591 c0 -30 -4 -40 -20 -44 -25 -7 -26 -27 -1 -27 13 0 20 -10
25 -32 10 -51 22 -58 95 -58 73 0 107 13 81 30 -8 6 -26 8 -40 5 -14 -3 -42
-8 -62 -12 -38 -6 -38 -6 -38 30 l0 35 73 9 c70 9 71 10 42 22 -18 8 -47 10
-73 6 l-42 -6 6 40 c6 39 5 41 -20 41 -24 0 -26 -4 -26 -39z"/>
</g>
</svg>
