<?xml version="1.0" standalone="no"?>
<!DOCTYPE svg PUBLIC "-//W3C//DTD SVG 20010904//EN"
 "http://www.w3.org/TR/2001/REC-SVG-20010904/DTD/svg10.dtd">
<svg version="1.0" xmlns="http://www.w3.org/2000/svg"
 width="96.000000pt" height="68.000000pt" viewBox="0 0 96.000000 68.000000"
 preserveAspectRatio="xMidYMid meet">
<metadata>
Created by potrace 1.16, written by Peter Selinger 2001-2019
</metadata>
<g transform="translate(0.000000,68.000000) scale(0.100000,-0.100000)"
fill="#000000" stroke="none">
<path d="M556 484 c-9 -11 -30 -36 -48 -57 -17 -21 -50 -49 -74 -63 -38 -23
-42 -28 -33 -46 8 -15 17 -18 37 -13 66 17 238 55 250 55 8 0 27 -11 44 -25
16 -14 34 -25 39 -25 11 0 12 50 1 66 -11 17 -84 54 -106 54 -18 0 -19 -1 -1
-20 10 -11 16 -22 14 -24 -4 -5 -177 -36 -194 -36 -5 1 19 27 55 60 60 55 64
60 49 75 -16 16 -18 16 -33 -1z"/>
</g>
</svg>
