<?xml version="1.0" standalone="no"?>
<!DOCTYPE svg PUBLIC "-//W3C//DTD SVG 20010904//EN"
 "http://www.w3.org/TR/2001/REC-SVG-20010904/DTD/svg10.dtd">
<svg version="1.0" xmlns="http://www.w3.org/2000/svg"
 width="96.000000pt" height="68.000000pt" viewBox="0 0 96.000000 68.000000"
 preserveAspectRatio="xMidYMid meet">
<metadata>
Created by potrace 1.16, written by Peter Selinger 2001-2019
</metadata>
<g transform="translate(0.000000,68.000000) scale(0.100000,-0.100000)"
fill="#000000" stroke="none">
<path d="M343 168 c2 -7 13 -11 23 -9 60 11 124 2 212 -33 109 -43 148 -47
192 -19 l32 20 -76 8 c-41 3 -90 4 -108 0 -26 -5 -30 -4 -18 5 12 9 9 10 -13
5 -21 -4 -27 -3 -21 6 5 9 1 10 -14 7 -12 -4 -22 -2 -22 2 0 5 -34 12 -76 15
-60 6 -78 5 -85 -6 -6 -10 -9 -11 -9 -1 0 6 -5 12 -11 12 -6 0 -9 -6 -6 -12z
m397 -62 c0 -2 -7 -7 -16 -10 -8 -3 -12 -2 -9 4 6 10 25 14 25 6z"/>
</g>
</svg>
