<?xml version="1.0" standalone="no"?>
<!DOCTYPE svg PUBLIC "-//W3C//DTD SVG 20010904//EN"
 "http://www.w3.org/TR/2001/REC-SVG-20010904/DTD/svg10.dtd">
<svg version="1.0" xmlns="http://www.w3.org/2000/svg"
 width="96.000000pt" height="68.000000pt" viewBox="0 0 96.000000 68.000000"
 preserveAspectRatio="xMidYMid meet">
<metadata>
Created by potrace 1.16, written by Peter Selinger 2001-2019
</metadata>
<g transform="translate(0.000000,68.000000) scale(0.100000,-0.100000)"
fill="#000000" stroke="none">
<path d="M670 410 c0 -24 5 -31 28 -36 15 -3 34 -8 44 -10 21 -6 68 6 68 17 0
4 -24 9 -52 11 -48 3 -53 5 -51 26 2 16 -2 22 -17 22 -16 0 -20 -7 -20 -30z"/>
<path d="M568 423 c-10 -2 -18 -11 -18 -20 0 -8 -13 -28 -29 -44 -31 -31 -29
-36 5 -16 40 23 85 67 79 77 -6 10 -9 11 -37 3z"/>
</g>
</svg>
