<?xml version="1.0" standalone="no"?>
<!DOCTYPE svg PUBLIC "-//W3C//DTD SVG 20010904//EN"
 "http://www.w3.org/TR/2001/REC-SVG-20010904/DTD/svg10.dtd">
<svg version="1.0" xmlns="http://www.w3.org/2000/svg"
 width="96.000000pt" height="68.000000pt" viewBox="0 0 96.000000 68.000000"
 preserveAspectRatio="xMidYMid meet">
<metadata>
Created by potrace 1.16, written by Peter Selinger 2001-2019
</metadata>
<g transform="translate(0.000000,68.000000) scale(0.100000,-0.100000)"
fill="#000000" stroke="none">
<path d="M270 241 c0 -33 -8 -36 -113 -47 -103 -10 -84 -28 21 -20 l89 6 -9
-61 c-12 -73 2 -120 27 -99 11 9 15 34 15 91 l0 79 38 1 c20 0 55 4 77 8 l40
8 -29 12 c-19 8 -44 9 -77 3 l-49 -9 0 28 c0 19 -5 29 -15 29 -10 0 -15 -10
-15 -29z"/>
</g>
</svg>
