<?xml version="1.0" standalone="no"?>
<!DOCTYPE svg PUBLIC "-//W3C//DTD SVG 20010904//EN"
 "http://www.w3.org/TR/2001/REC-SVG-20010904/DTD/svg10.dtd">
<svg version="1.0" xmlns="http://www.w3.org/2000/svg"
 width="96.000000pt" height="68.000000pt" viewBox="0 0 96.000000 68.000000"
 preserveAspectRatio="xMidYMid meet">
<metadata>
Created by potrace 1.16, written by Peter Selinger 2001-2019
</metadata>
<g transform="translate(0.000000,68.000000) scale(0.100000,-0.100000)"
fill="#000000" stroke="none">
<path d="M729 226 c10 -12 9 -14 -7 -10 -10 3 -24 -2 -31 -10 -9 -11 -10 -16
-2 -16 6 0 11 4 11 9 0 6 8 8 18 6 10 -2 25 1 33 6 11 7 11 9 1 9 -7 0 -10 5
-7 10 3 6 -1 10 -11 10 -13 0 -14 -3 -5 -14z"/>
<path d="M625 171 c11 -13 28 -27 39 -33 29 -16 11 7 -27 33 l-32 23 20 -23z"/>
<path d="M523 152 c-13 -8 -15 -132 -2 -132 4 0 20 11 35 25 15 14 32 25 37
25 6 0 8 3 5 6 -4 3 -16 1 -27 -6 -20 -10 -21 -8 -21 34 0 46 -8 60 -27 48z"/>
<path d="M685 120 c-6 -10 1 -14 18 -11 5 1 6 -2 3 -7 -12 -19 39 -48 82 -46
42 1 71 13 39 15 -30 2 -35 4 -43 12 -4 4 -15 7 -24 7 -9 0 -27 9 -40 20 -27
23 -27 23 -35 10z m95 -50 c8 -5 11 -10 5 -10 -5 0 -17 5 -25 10 -8 5 -10 10
-5 10 6 0 17 -5 25 -10z"/>
</g>
</svg>
