<?xml version="1.0" standalone="no"?>
<!DOCTYPE svg PUBLIC "-//W3C//DTD SVG 20010904//EN"
 "http://www.w3.org/TR/2001/REC-SVG-20010904/DTD/svg10.dtd">
<svg version="1.0" xmlns="http://www.w3.org/2000/svg"
 width="96.000000pt" height="68.000000pt" viewBox="0 0 96.000000 68.000000"
 preserveAspectRatio="xMidYMid meet">
<metadata>
Created by potrace 1.16, written by Peter Selinger 2001-2019
</metadata>
<g transform="translate(0.000000,68.000000) scale(0.100000,-0.100000)"
fill="#000000" stroke="none">
<path d="M410 581 c5 -11 10 -36 10 -55 l0 -36 -47 -1 c-27 -1 -61 -5 -78 -9
l-30 -7 27 -7 c15 -5 50 -6 78 -4 l50 3 0 -42 0 -41 -110 -7 c-60 -4 -110 -11
-110 -15 0 -17 57 -20 178 -11 70 6 176 13 235 17 71 4 107 10 104 17 -6 20
-54 25 -138 16 -96 -11 -109 -8 -109 23 0 39 15 49 84 58 74 9 88 16 66 31
-15 10 -74 6 -117 -7 -22 -6 -23 -3 -23 39 0 48 -9 57 -56 57 -21 0 -23 -3
-14 -19z"/>
</g>
</svg>
