<?xml version="1.0" standalone="no"?>
<!DOCTYPE svg PUBLIC "-//W3C//DTD SVG 20010904//EN"
 "http://www.w3.org/TR/2001/REC-SVG-20010904/DTD/svg10.dtd">
<svg version="1.0" xmlns="http://www.w3.org/2000/svg"
 width="96.000000pt" height="68.000000pt" viewBox="0 0 96.000000 68.000000"
 preserveAspectRatio="xMidYMid meet">
<metadata>
Created by potrace 1.16, written by Peter Selinger 2001-2019
</metadata>
<g transform="translate(0.000000,68.000000) scale(0.100000,-0.100000)"
fill="#000000" stroke="none">
<path d="M463 271 c-54 -7 -98 -31 -55 -31 11 0 44 5 72 11 28 6 54 9 57 6 6
-7 -31 -69 -50 -86 -10 -8 -26 -2 -65 24 -34 24 -53 31 -58 23 -7 -10 51 -67
69 -68 4 0 7 -4 7 -9 0 -15 -56 -51 -113 -72 l-52 -20 58 5 c36 3 75 14 104
31 l47 26 26 -20 c14 -11 49 -35 78 -52 51 -30 58 -31 120 -25 37 4 71 11 75
15 4 4 -25 16 -65 26 -73 17 -198 68 -198 80 0 4 21 34 47 67 62 79 49 87
-104 69z"/>
</g>
</svg>
