<?xml version="1.0" standalone="no"?>
<!DOCTYPE svg PUBLIC "-//W3C//DTD SVG 20010904//EN"
 "http://www.w3.org/TR/2001/REC-SVG-20010904/DTD/svg10.dtd">
<svg version="1.0" xmlns="http://www.w3.org/2000/svg"
 width="96.000000pt" height="68.000000pt" viewBox="0 0 96.000000 68.000000"
 preserveAspectRatio="xMidYMid meet">
<metadata>
Created by potrace 1.16, written by Peter Selinger 2001-2019
</metadata>
<g transform="translate(0.000000,68.000000) scale(0.100000,-0.100000)"
fill="#000000" stroke="none">
<path d="M690 316 c0 -9 3 -16 8 -16 9 0 6 -175 -3 -207 -5 -15 -14 -20 -32
-18 l-25 2 28 -22 29 -23 7 21 c6 21 6 21 8 2 l1 -20 9 20 c4 11 7 76 6 145
-1 110 -3 125 -18 128 -11 2 -18 -3 -18 -12z"/>
</g>
</svg>
