<?xml version="1.0" standalone="no"?>
<!DOCTYPE svg PUBLIC "-//W3C//DTD SVG 20010904//EN"
 "http://www.w3.org/TR/2001/REC-SVG-20010904/DTD/svg10.dtd">
<svg version="1.0" xmlns="http://www.w3.org/2000/svg"
 width="96.000000pt" height="68.000000pt" viewBox="0 0 96.000000 68.000000"
 preserveAspectRatio="xMidYMid meet">
<metadata>
Created by potrace 1.16, written by Peter Selinger 2001-2019
</metadata>
<g transform="translate(0.000000,68.000000) scale(0.100000,-0.100000)"
fill="#000000" stroke="none">
<path d="M331 571 c-6 -11 -32 -36 -58 -56 -39 -30 -51 -34 -81 -29 -33 6 -34
6 -22 -17 9 -16 11 -53 7 -126 -6 -100 -5 -103 15 -103 12 0 45 13 75 30 69
39 77 39 68 -7 -13 -69 -37 -113 -89 -159 -39 -36 -45 -45 -26 -39 29 9 77 40
103 67 36 37 59 109 67 207 8 106 3 121 -41 121 -29 0 -38 -13 -19 -25 6 -3
10 -30 10 -59 l0 -53 -55 -10 c-30 -5 -57 -7 -60 -5 -8 8 -6 126 3 138 7 11
138 75 181 89 23 7 23 8 5 25 -31 30 -70 35 -83 11z"/>
<path d="M678 515 c-10 -10 -133 -23 -142 -14 -6 5 -19 9 -30 9 -21 0 -21 -4
-18 -222 2 -227 6 -268 21 -268 19 0 24 42 29 238 l5 203 24 10 c13 5 47 9 75
9 l51 0 -7 -69 c-3 -39 -11 -82 -16 -96 -9 -23 -14 -26 -41 -20 l-31 7 18 -26
c49 -76 93 -41 119 97 7 40 16 82 20 94 6 17 1 25 -24 37 -31 17 -44 19 -53
11z"/>
</g>
</svg>
