<?xml version="1.0" standalone="no"?>
<!DOCTYPE svg PUBLIC "-//W3C//DTD SVG 20010904//EN"
 "http://www.w3.org/TR/2001/REC-SVG-20010904/DTD/svg10.dtd">
<svg version="1.0" xmlns="http://www.w3.org/2000/svg"
 width="90.000000pt" height="92.000000pt" viewBox="0 0 90.000000 92.000000"
 preserveAspectRatio="xMidYMid meet">
<metadata>
Created by potrace 1.16, written by Peter Selinger 2001-2019
</metadata>
<g transform="translate(0.000000,92.000000) scale(0.100000,-0.100000)"
fill="#000000" stroke="none">
<path d="M490 861 c0 -6 5 -13 10 -16 6 -3 10 -19 10 -35 0 -28 -2 -29 -67
-36 -61 -6 -65 -8 -47 -21 13 -10 34 -13 67 -9 45 5 47 4 47 -19 0 -21 -5 -25
-29 -25 -34 0 -50 -17 -25 -27 18 -7 183 12 193 22 11 12 -25 26 -57 22 -28
-3 -32 0 -30 17 2 17 13 22 58 29 61 8 83 22 60 38 -15 9 -71 6 -105 -7 -13
-5 -15 -2 -9 20 4 16 1 32 -6 41 -14 16 -70 21 -70 6z"/>
<path d="M165 833 c3 -16 9 -71 12 -124 6 -110 15 -99 -94 -120 -35 -6 -63
-15 -63 -20 0 -15 49 -22 101 -15 27 4 49 3 49 -2 0 -38 -78 -183 -156 -290
-28 -38 -10 -35 37 7 24 21 60 66 79 99 19 34 39 62 43 62 4 0 5 -21 3 -47 -3
-27 -11 -94 -17 -150 -11 -102 -8 -146 14 -171 8 -11 13 -9 23 10 10 16 13 76
14 203 l0 180 34 -40 c31 -37 34 -38 40 -17 9 27 -5 54 -37 71 -27 15 -36 42
-27 80 4 18 16 27 40 34 49 12 59 25 35 43 -12 9 -30 12 -48 8 l-29 -6 7 59
c3 32 8 75 11 95 5 34 3 39 -28 58 -44 27 -52 25 -43 -7z"/>
<path d="M570 645 c-30 -7 -79 -14 -108 -14 -47 -1 -51 -3 -42 -18 5 -10 13
-34 18 -53 5 -19 12 -35 18 -35 5 1 53 5 107 9 86 7 97 11 92 26 -3 9 3 24 15
35 11 10 20 22 20 26 0 8 -55 41 -62 38 -2 -1 -28 -7 -58 -14z m38 -47 c-3
-20 -12 -24 -68 -33 -60 -10 -65 -9 -68 8 -5 26 2 30 56 38 82 11 84 11 80
-13z"/>
<path d="M645 505 c-140 -23 -273 -29 -290 -15 -19 16 -18 17 -39 -45 -25 -71
-26 -100 -2 -100 16 0 38 39 51 92 0 1 67 11 148 22 144 21 247 27 247 15 0
-3 -9 -17 -20 -31 -11 -15 -19 -28 -17 -29 5 -5 125 21 133 29 4 4 -8 23 -26
42 -38 40 -50 41 -185 20z"/>
<path d="M490 417 c-52 -10 -97 -21 -100 -24 -8 -7 24 -23 48 -23 32 0 27 -14
-17 -52 -31 -27 -37 -37 -30 -55 7 -20 9 -21 50 -7 53 19 72 15 74 -13 1 -19
-5 -24 -34 -29 -53 -8 -63 -13 -56 -24 3 -5 26 -10 51 -10 40 0 44 -2 44 -24
0 -28 -17 -33 -147 -43 -46 -3 -86 -10 -89 -15 -3 -5 10 -15 29 -23 31 -13 44
-13 103 0 38 8 147 18 242 22 181 6 198 12 131 45 -26 13 -44 15 -79 9 -25 -5
-69 -12 -97 -15 l-53 -7 0 30 c0 32 -2 31 78 47 12 2 22 9 22 14 0 13 -45 23
-73 16 -20 -5 -23 -2 -22 22 0 22 6 29 35 38 31 10 36 8 54 -13 17 -22 20 -23
34 -10 23 24 8 61 -33 80 -20 9 -42 17 -51 17 -13 0 -12 -3 1 -24 16 -24 16
-24 -32 -30 -26 -4 -64 -10 -83 -13 l-35 -6 28 30 c15 16 27 34 27 40 0 14 16
19 99 32 69 11 76 14 66 30 -9 16 -75 11 -185 -12z"/>
</g>
</svg>
