<?xml version="1.0" standalone="no"?>
<!DOCTYPE svg PUBLIC "-//W3C//DTD SVG 20010904//EN"
 "http://www.w3.org/TR/2001/REC-SVG-20010904/DTD/svg10.dtd">
<svg version="1.0" xmlns="http://www.w3.org/2000/svg"
 width="96.000000pt" height="68.000000pt" viewBox="0 0 96.000000 68.000000"
 preserveAspectRatio="xMidYMid meet">
<metadata>
Created by potrace 1.16, written by Peter Selinger 2001-2019
</metadata>
<g transform="translate(0.000000,68.000000) scale(0.100000,-0.100000)"
fill="#000000" stroke="none">
<path d="M536 564 c8 -33 -7 -44 -64 -44 -26 0 -41 -4 -37 -10 3 -5 28 -10 56
-10 37 0 49 -4 49 -15 0 -10 -10 -15 -30 -15 -16 0 -30 -5 -30 -11 0 -9 24
-10 87 -5 92 7 140 26 65 26 -62 0 -56 26 8 35 27 4 52 10 55 15 8 14 -25 20
-67 13 -37 -5 -41 -4 -34 12 8 21 -8 35 -42 35 -19 0 -21 -4 -16 -26z"/>
</g>
</svg>
