<?xml version="1.0" standalone="no"?>
<!DOCTYPE svg PUBLIC "-//W3C//DTD SVG 20010904//EN"
 "http://www.w3.org/TR/2001/REC-SVG-20010904/DTD/svg10.dtd">
<svg version="1.0" xmlns="http://www.w3.org/2000/svg"
 width="96.000000pt" height="68.000000pt" viewBox="0 0 96.000000 68.000000"
 preserveAspectRatio="xMidYMid meet">
<metadata>
Created by potrace 1.16, written by Peter Selinger 2001-2019
</metadata>
<g transform="translate(0.000000,68.000000) scale(0.100000,-0.100000)"
fill="#000000" stroke="none">
<path d="M523 586 c15 -40 67 -262 67 -288 0 -11 -17 -17 -62 -22 -35 -4 -85
-12 -113 -18 -39 -8 -46 -12 -30 -18 11 -4 25 -5 32 -3 43 16 24 -60 -28 -108
-16 -15 -29 -30 -29 -33 0 -16 22 -2 65 40 l47 46 32 -31 c33 -32 46 -32 46 0
0 11 -13 22 -35 30 -30 11 -34 16 -28 38 8 35 11 38 64 43 l46 5 26 -61 27
-61 -22 -17 c-13 -10 -35 -23 -50 -29 -16 -6 -28 -15 -28 -20 0 -8 62 11 99
30 16 9 24 5 48 -22 16 -18 45 -43 66 -56 40 -24 84 -25 78 -1 -2 8 -6 32 -8
53 -6 41 -23 51 -23 12 0 -37 -39 -33 -79 9 -27 28 -30 35 -18 42 8 5 32 24
53 43 35 32 36 35 19 48 -25 17 -45 17 -45 -1 0 -14 -42 -66 -53 -66 -8 0 -42
62 -49 88 -6 21 -3 22 45 22 63 0 89 13 60 28 -13 7 -33 8 -63 1 -23 -5 -48
-8 -53 -6 -14 4 -46 167 -46 240 l-1 57 -31 0 c-23 0 -30 -4 -26 -14z"/>
<path d="M655 530 c-10 -22 -26 -47 -36 -56 -11 -10 -19 -24 -19 -32 0 -14 15
-13 73 4 27 8 20 -12 -18 -49 -29 -29 -33 -36 -21 -46 11 -9 25 -7 64 8 34 14
53 16 60 9 20 -20 33 -4 17 20 -18 25 -48 31 -39 7 5 -11 -2 -15 -26 -15 -36
0 -36 1 28 69 35 38 38 46 20 57 -6 4 -19 -4 -30 -19 -14 -19 -29 -27 -49 -27
-16 0 -29 2 -29 5 0 2 11 21 25 41 28 41 32 64 12 64 -8 0 -22 -18 -32 -40z"/>
<path d="M434 491 c-8 -21 -26 -48 -40 -60 -39 -34 -31 -44 29 -36 l52 7 -42
-41 c-24 -23 -43 -46 -43 -52 0 -18 28 -20 66 -4 21 9 50 15 64 13 32 -4 33
19 3 40 -21 13 -23 13 -23 -6 0 -14 -8 -21 -27 -25 -40 -8 -41 -1 -2 41 70 75
75 82 59 92 -22 14 -30 12 -30 -9 0 -20 -18 -31 -51 -31 -25 0 -24 10 6 54 29
42 31 56 10 56 -8 0 -22 -17 -31 -39z"/>
<path d="M203 482 c-80 -16 -96 -32 -33 -32 39 0 40 -1 34 -27 -11 -49 -40
-106 -87 -175 -53 -77 -42 -91 21 -28 39 40 41 40 47 18 16 -58 28 -78 39 -69
6 5 31 11 56 13 42 3 45 5 55 39 5 20 16 43 23 52 10 12 10 18 -3 31 -9 9 -24
16 -33 16 -24 -1 -104 -23 -120 -34 -8 -4 5 26 28 68 23 41 39 80 35 85 -3 6
7 13 22 17 55 12 63 16 63 30 0 18 -48 17 -147 -4z m97 -237 l0 -45 -40 0
c-37 0 -39 2 -46 34 -8 46 0 56 47 56 l39 0 0 -45z"/>
<path d="M790 305 c38 -28 60 -32 60 -10 0 18 -31 35 -66 35 l-28 0 34 -25z"/>
</g>
</svg>
