<?xml version="1.0" standalone="no"?>
<!DOCTYPE svg PUBLIC "-//W3C//DTD SVG 20010904//EN"
 "http://www.w3.org/TR/2001/REC-SVG-20010904/DTD/svg10.dtd">
<svg version="1.0" xmlns="http://www.w3.org/2000/svg"
 width="96.000000pt" height="68.000000pt" viewBox="0 0 96.000000 68.000000"
 preserveAspectRatio="xMidYMid meet">
<metadata>
Created by potrace 1.16, written by Peter Selinger 2001-2019
</metadata>
<g transform="translate(0.000000,68.000000) scale(0.100000,-0.100000)"
fill="#000000" stroke="none">
<path d="M180 545 c0 -12 74 -85 86 -85 20 0 28 25 15 49 -12 22 -101 54 -101
36z"/>
<path d="M100 422 c0 -16 73 -73 90 -70 24 5 23 36 -2 52 -31 20 -88 32 -88
18z"/>
<path d="M226 259 c-21 -32 -51 -70 -67 -83 -16 -14 -29 -32 -29 -41 0 -24 19
-55 33 -55 13 0 114 226 106 235 -2 2 -22 -23 -43 -56z"/>
</g>
</svg>
