<?xml version="1.0" standalone="no"?>
<!DOCTYPE svg PUBLIC "-//W3C//DTD SVG 20010904//EN"
 "http://www.w3.org/TR/2001/REC-SVG-20010904/DTD/svg10.dtd">
<svg version="1.0" xmlns="http://www.w3.org/2000/svg"
 width="96.000000pt" height="68.000000pt" viewBox="0 0 96.000000 68.000000"
 preserveAspectRatio="xMidYMid meet">
<metadata>
Created by potrace 1.16, written by Peter Selinger 2001-2019
</metadata>
<g transform="translate(0.000000,68.000000) scale(0.100000,-0.100000)"
fill="#000000" stroke="none">
<path d="M567 603 c-2 -5 -7 -20 -11 -35 -3 -14 -22 -47 -41 -73 -30 -39 -32
-44 -13 -34 13 6 32 20 44 30 13 13 41 20 82 23 82 6 132 16 132 26 0 16 -39
21 -77 11 -21 -6 -48 -11 -61 -11 -19 0 -21 2 -10 19 9 15 9 23 -1 35 -14 17
-37 21 -44 9z"/>
<path d="M320 564 c-6 -14 -10 -28 -10 -31 0 -3 -21 -30 -47 -61 -42 -49 -44
-53 -17 -39 16 9 44 27 63 41 27 20 47 26 90 27 31 1 67 4 81 9 22 6 23 8 7
15 -17 7 -92 0 -126 -13 -14 -5 -14 -3 2 15 22 25 22 40 -2 53 -28 14 -30 13
-41 -16z"/>
<path d="M600 475 c0 -16 30 -35 54 -35 26 0 18 30 -10 40 -35 14 -44 13 -44
-5z"/>
<path d="M352 448 c19 -28 58 -37 58 -13 0 8 -12 20 -26 25 -40 15 -48 12 -32
-12z"/>
</g>
</svg>
