<?xml version="1.0" standalone="no"?>
<!DOCTYPE svg PUBLIC "-//W3C//DTD SVG 20010904//EN"
 "http://www.w3.org/TR/2001/REC-SVG-20010904/DTD/svg10.dtd">
<svg version="1.0" xmlns="http://www.w3.org/2000/svg"
 width="96.000000pt" height="68.000000pt" viewBox="0 0 96.000000 68.000000"
 preserveAspectRatio="xMidYMid meet">
<metadata>
Created by potrace 1.16, written by Peter Selinger 2001-2019
</metadata>
<g transform="translate(0.000000,68.000000) scale(0.100000,-0.100000)"
fill="#000000" stroke="none">
<path d="M535 460 c-33 -5 -113 -11 -177 -15 -65 -4 -118 -11 -118 -16 0 -5
12 -9 26 -9 53 0 64 -15 64 -89 0 -96 8 -131 31 -131 14 0 19 7 19 29 0 28 1
28 72 35 39 3 74 9 77 12 10 9 -24 24 -44 20 -11 -3 -39 -8 -63 -12 -43 -7
-44 -7 -40 22 3 25 8 29 38 32 78 5 120 14 120 24 0 7 -24 9 -74 5 l-74 -7 -4
29 -4 28 137 11 c150 13 179 19 157 33 -15 10 -59 10 -143 -1z"/>
</g>
</svg>
