<?xml version="1.0" standalone="no"?>
<!DOCTYPE svg PUBLIC "-//W3C//DTD SVG 20010904//EN"
 "http://www.w3.org/TR/2001/REC-SVG-20010904/DTD/svg10.dtd">
<svg version="1.0" xmlns="http://www.w3.org/2000/svg"
 width="90.000000pt" height="92.000000pt" viewBox="0 0 90.000000 92.000000"
 preserveAspectRatio="xMidYMid meet">
<metadata>
Created by potrace 1.16, written by Peter Selinger 2001-2019
</metadata>
<g transform="translate(0.000000,92.000000) scale(0.100000,-0.100000)"
fill="#000000" stroke="none">
<path d="M558 810 c-49 -15 -255 -41 -342 -44 -48 -2 -86 -7 -85 -12 1 -5 6
-20 12 -34 17 -42 13 -286 -6 -359 -19 -69 -55 -143 -90 -182 -12 -13 -29 -33
-37 -43 -14 -18 -14 -19 10 -6 140 72 190 200 190 486 l0 102 107 16 c177 26
283 37 295 30 6 -4 8 -24 4 -53 -13 -98 -7 -344 9 -406 29 -110 113 -206 193
-221 49 -9 56 5 38 78 -9 35 -16 82 -16 104 -1 48 -14 29 -25 -33 -11 -67 -28
-73 -74 -25 -64 67 -85 135 -84 277 0 100 4 134 26 205 l26 85 -25 23 c-26 23
-74 28 -126 12z"/>
<path d="M346 620 c-44 -9 -81 -21 -83 -27 -4 -12 29 -23 69 -23 23 0 28 -5
34 -35 3 -20 4 -38 1 -41 -3 -3 -30 -8 -61 -11 -53 -5 -68 -14 -47 -28 6 -3
13 -27 17 -53 10 -69 22 -96 37 -85 6 6 22 13 34 15 25 7 33 -7 33 -57 0 -29
-4 -34 -31 -40 -17 -4 -57 -7 -90 -7 -32 0 -59 -3 -59 -7 0 -4 13 -20 29 -35
l28 -27 119 36 c65 19 124 37 131 40 7 2 22 -12 34 -31 24 -40 43 -40 47 0 4
33 -18 61 -70 87 -38 20 -46 17 -28 -11 10 -17 -8 -28 -47 -29 -21 -1 -23 4
-23 43 0 48 11 56 78 56 27 0 32 3 28 18 -3 9 6 41 19 70 14 30 25 56 25 58 0
3 -14 11 -32 18 -27 12 -38 12 -71 0 -52 -18 -50 -19 -44 21 4 26 2 37 -10 44
-12 6 1 11 45 16 63 7 85 20 61 36 -20 12 -82 9 -173 -11z m146 -185 c-2 -22
-5 -41 -5 -41 -1 -1 -17 -5 -34 -9 l-33 -7 0 45 c0 48 8 57 50 54 23 -2 25 -5
22 -42z m-122 -21 c0 -44 -1 -45 -27 -42 -25 3 -28 7 -31 46 -3 41 -2 42 27
42 30 0 31 -1 31 -46z"/>
</g>
</svg>
