<?xml version="1.0" standalone="no"?>
<!DOCTYPE svg PUBLIC "-//W3C//DTD SVG 20010904//EN"
 "http://www.w3.org/TR/2001/REC-SVG-20010904/DTD/svg10.dtd">
<svg version="1.0" xmlns="http://www.w3.org/2000/svg"
 width="96.000000pt" height="68.000000pt" viewBox="0 0 96.000000 68.000000"
 preserveAspectRatio="xMidYMid meet">
<metadata>
Created by potrace 1.16, written by Peter Selinger 2001-2019
</metadata>
<g transform="translate(0.000000,68.000000) scale(0.100000,-0.100000)"
fill="#000000" stroke="none">
<path d="M413 414 c-7 -3 -9 -18 -6 -40 l6 -34 -58 0 c-45 0 -55 -3 -47 -12 5
-7 15 -32 22 -54 12 -41 13 -42 51 -37 l39 6 0 -37 c0 -20 3 -36 8 -36 19 1
30 18 28 45 -1 29 1 30 47 33 26 2 45 7 42 12 -3 5 4 28 16 51 26 52 15 62
-53 53 -46 -6 -48 -5 -48 19 0 19 -21 42 -33 36 -1 0 -7 -3 -14 -5z m107 -93
c0 -35 -12 -51 -39 -51 -23 0 -26 4 -24 32 1 18 2 34 2 36 1 1 15 2 31 2 23 0
30 -5 30 -19z m-108 -8 c8 -33 -3 -53 -27 -53 -21 0 -34 21 -35 58 0 20 57 15
62 -5z"/>
</g>
</svg>
