<?xml version="1.0" standalone="no"?>
<!DOCTYPE svg PUBLIC "-//W3C//DTD SVG 20010904//EN"
 "http://www.w3.org/TR/2001/REC-SVG-20010904/DTD/svg10.dtd">
<svg version="1.0" xmlns="http://www.w3.org/2000/svg"
 width="96.000000pt" height="68.000000pt" viewBox="0 0 96.000000 68.000000"
 preserveAspectRatio="xMidYMid meet">
<metadata>
Created by potrace 1.16, written by Peter Selinger 2001-2019
</metadata>
<g transform="translate(0.000000,68.000000) scale(0.100000,-0.100000)"
fill="#000000" stroke="none">
<path d="M130 228 c0 -44 15 -67 32 -50 6 6 31 12 54 12 34 0 46 -5 62 -27
l19 -26 21 21 c15 15 22 34 22 62 0 36 -2 40 -25 40 -18 0 -25 -5 -25 -20 0
-17 -7 -20 -45 -21 -25 -1 -51 -2 -57 -3 -7 -1 -14 9 -16 22 -2 14 -10 22 -23
22 -15 0 -19 -7 -19 -32z"/>
</g>
</svg>
