<?xml version="1.0" standalone="no"?>
<!DOCTYPE svg PUBLIC "-//W3C//DTD SVG 20010904//EN"
 "http://www.w3.org/TR/2001/REC-SVG-20010904/DTD/svg10.dtd">
<svg version="1.0" xmlns="http://www.w3.org/2000/svg"
 width="96.000000pt" height="68.000000pt" viewBox="0 0 96.000000 68.000000"
 preserveAspectRatio="xMidYMid meet">
<metadata>
Created by potrace 1.16, written by Peter Selinger 2001-2019
</metadata>
<g transform="translate(0.000000,68.000000) scale(0.100000,-0.100000)"
fill="#000000" stroke="none">
<path d="M630 210 c0 -6 -4 -9 -9 -5 -8 4 -4 -62 3 -72 1 -1 7 16 13 38 6 22
6 42 2 45 -5 3 -9 0 -9 -6z"/>
<path d="M530 180 c0 -18 4 -29 10 -25 6 3 10 15 10 25 0 10 -4 22 -10 25 -6
4 -10 -7 -10 -25z"/>
<path d="M540 131 c0 -6 4 -13 10 -16 6 -3 7 1 4 9 -7 18 -14 21 -14 7z"/>
<path d="M720 102 c0 -4 -25 -6 -55 -4 -34 2 -55 -1 -55 -7 0 -7 25 -11 60
-11 47 0 60 3 60 15 0 8 -2 15 -5 15 -3 0 -5 -4 -5 -8z"/>
<path d="M746 95 c-5 -13 2 -15 43 -13 39 2 47 6 39 16 -9 11 -13 11 -19 0 -7
-10 -9 -10 -9 0 0 18 -47 15 -54 -3z"/>
<path d="M513 93 c-18 -2 -33 -8 -33 -12 0 -5 21 -5 46 0 25 5 50 6 55 3 5 -3
9 0 9 5 0 11 -15 12 -77 4z"/>
<path d="M377 68 c6 -11 55 -9 73 2 11 8 2 10 -32 8 -25 -2 -44 -6 -41 -10z"/>
</g>
</svg>
