<?xml version="1.0" standalone="no"?>
<!DOCTYPE svg PUBLIC "-//W3C//DTD SVG 20010904//EN"
 "http://www.w3.org/TR/2001/REC-SVG-20010904/DTD/svg10.dtd">
<svg version="1.0" xmlns="http://www.w3.org/2000/svg"
 width="96.000000pt" height="68.000000pt" viewBox="0 0 96.000000 68.000000"
 preserveAspectRatio="xMidYMid meet">
<metadata>
Created by potrace 1.16, written by Peter Selinger 2001-2019
</metadata>
<g transform="translate(0.000000,68.000000) scale(0.100000,-0.100000)"
fill="#000000" stroke="none">
<path d="M508 114 l5 -57 -34 7 -34 6 35 -29 c19 -17 38 -30 41 -31 16 -1 30
52 27 100 -3 47 -6 55 -24 58 -19 3 -20 -1 -16 -54z"/>
<path d="M348 113 c-10 -16 -25 -38 -34 -51 -24 -32 -2 -27 48 11 46 35 55 60
23 65 -13 1 -26 -7 -37 -25z"/>
<path d="M675 96 c50 -47 68 -52 73 -24 4 18 -49 53 -93 63 -29 6 -28 4 20
-39z"/>
</g>
</svg>
