<?xml version="1.0" standalone="no"?>
<!DOCTYPE svg PUBLIC "-//W3C//DTD SVG 20010904//EN"
 "http://www.w3.org/TR/2001/REC-SVG-20010904/DTD/svg10.dtd">
<svg version="1.0" xmlns="http://www.w3.org/2000/svg"
 width="96.000000pt" height="68.000000pt" viewBox="0 0 96.000000 68.000000"
 preserveAspectRatio="xMidYMid meet">
<metadata>
Created by potrace 1.16, written by Peter Selinger 2001-2019
</metadata>
<g transform="translate(0.000000,68.000000) scale(0.100000,-0.100000)"
fill="#000000" stroke="none">
<path d="M460 590 c0 -6 7 -21 15 -34 15 -23 15 -23 -32 -29 -26 -4 -79 -9
-116 -13 -70 -7 -92 -18 -57 -29 17 -5 20 -15 20 -57 0 -108 -54 -245 -133
-334 -22 -25 -37 -48 -33 -51 9 -9 85 47 111 82 45 59 76 136 99 247 l23 113
54 7 c68 9 78 6 72 -25 -5 -26 -27 -37 -75 -37 -42 0 -34 -16 9 -18 21 -2 39
-4 40 -6 2 -2 -2 -16 -9 -30 -9 -21 -16 -26 -32 -21 -12 4 -32 9 -46 12 l-25
4 28 -25 c15 -14 27 -27 27 -30 0 -3 -19 -19 -42 -36 -44 -32 -37 -40 13 -15
23 12 30 13 33 3 3 -7 10 -33 18 -58 12 -42 15 -45 44 -42 36 4 41 -5 40 -63
-1 -35 -4 -40 -23 -39 -13 0 -23 -1 -23 -3 0 -9 50 -53 59 -53 21 0 33 44 29
107 l-4 64 40 -3 c39 -3 40 -3 62 51 20 52 21 55 4 73 -17 18 -21 19 -93 4
-42 -9 -91 -16 -108 -16 l-33 0 25 28 c14 15 36 44 50 64 13 21 28 38 33 38 9
0 85 -59 116 -90 50 -50 88 -70 131 -69 84 1 88 13 13 39 -38 12 -80 30 -92
38 l-24 16 24 18 c12 9 29 18 36 18 20 0 14 18 -10 26 -16 5 -26 0 -41 -20
-23 -32 -30 -32 -67 -4 -40 29 -38 38 11 38 28 0 39 4 36 13 -4 13 -44 15 -96
4 -32 -7 -33 -6 -26 21 4 15 9 29 12 32 2 3 41 7 86 10 64 4 82 8 82 20 0 12
-15 15 -87 13 -70 -2 -88 1 -88 12 0 17 -38 45 -62 45 -10 0 -18 -5 -18 -10z
m146 -317 c-2 -10 -11 -19 -22 -19 -10 -1 -49 -5 -87 -9 -59 -6 -67 -5 -61 8
3 10 24 18 52 22 26 4 54 8 62 9 41 9 58 6 56 -11z m-6 -47 c0 -21 -9 -24 -83
-32 -63 -6 -67 -6 -67 14 0 18 7 21 58 25 31 2 65 4 75 5 9 1 17 -4 17 -12z"/>
<path d="M130 422 c0 -18 58 -72 78 -72 43 0 27 56 -19 69 -42 11 -59 12 -59
3z"/>
<path d="M175 294 c-27 -13 -58 -24 -67 -24 -24 0 -23 -27 2 -40 16 -9 27 -7
53 11 44 30 77 61 77 71 0 12 -9 9 -65 -18z"/>
<path d="M337 93 c-20 -27 -34 -50 -31 -52 4 -5 79 46 95 65 12 15 4 34 -16
34 -7 0 -29 -21 -48 -47z"/>
<path d="M675 96 c51 -48 70 -53 70 -21 0 21 -44 50 -90 60 -29 6 -28 4 20
-39z"/>
</g>
</svg>
