<?xml version="1.0" standalone="no"?>
<!DOCTYPE svg PUBLIC "-//W3C//DTD SVG 20010904//EN"
 "http://www.w3.org/TR/2001/REC-SVG-20010904/DTD/svg10.dtd">
<svg version="1.0" xmlns="http://www.w3.org/2000/svg"
 width="96.000000pt" height="68.000000pt" viewBox="0 0 96.000000 68.000000"
 preserveAspectRatio="xMidYMid meet">
<metadata>
Created by potrace 1.16, written by Peter Selinger 2001-2019
</metadata>
<g transform="translate(0.000000,68.000000) scale(0.100000,-0.100000)"
fill="#000000" stroke="none">
<path d="M608 252 c-10 -2 -18 -7 -18 -12 0 -9 26 -8 36 2 3 4 11 5 18 2 7 -3
23 0 37 5 21 9 19 10 -16 8 -22 0 -48 -3 -57 -5z"/>
<path d="M535 239 c-4 -5 -2 -9 2 -9 5 0 18 -7 29 -15 18 -14 18 -15 0 -9 -15
6 -17 4 -9 -12 14 -28 1 -67 -27 -82 -24 -13 -23 -13 15 -8 22 3 99 6 170 7
120 2 128 3 97 16 -25 10 -47 11 -95 4 -34 -5 -81 -9 -104 -9 -35 1 -41 4 -34
17 14 25 20 81 10 81 -5 0 -9 6 -9 13 0 15 -37 20 -45 6z"/>
<path d="M465 230 c-17 -7 -15 -9 12 -9 17 -1 35 4 38 9 7 12 -22 12 -50 0z"/>
<path d="M382 96 c10 -7 31 -11 48 -8 40 6 35 10 -20 16 -39 5 -43 4 -28 -8z"/>
</g>
</svg>
