<?xml version="1.0" standalone="no"?>
<!DOCTYPE svg PUBLIC "-//W3C//DTD SVG 20010904//EN"
 "http://www.w3.org/TR/2001/REC-SVG-20010904/DTD/svg10.dtd">
<svg version="1.0" xmlns="http://www.w3.org/2000/svg"
 width="90.000000pt" height="92.000000pt" viewBox="0 0 90.000000 92.000000"
 preserveAspectRatio="xMidYMid meet">
<metadata>
Created by potrace 1.16, written by Peter Selinger 2001-2019
</metadata>
<g transform="translate(0.000000,92.000000) scale(0.100000,-0.100000)"
fill="#000000" stroke="none">
<path d="M243 839 c13 -54 19 -109 13 -132 -5 -22 -14 -26 -73 -33 -38 -5 -68
-13 -68 -19 0 -5 28 -11 62 -13 l62 -3 -12 -27 c-20 -48 -85 -138 -132 -186
-26 -25 -40 -46 -32 -46 30 0 115 75 170 150 18 25 18 25 11 -30 -11 -85 -9
-126 6 -145 12 -15 15 -15 29 0 15 15 17 33 21 204 0 8 17 -2 41 -23 43 -40
62 -42 67 -8 3 22 -27 43 -80 56 -23 5 -28 12 -28 36 0 30 4 32 68 45 17 4 32
11 32 15 0 17 -41 31 -71 25 -27 -6 -29 -4 -29 22 0 15 4 44 10 63 11 40 2 55
-44 66 -27 6 -28 5 -23 -17z"/>
<path d="M570 769 c-38 -10 -79 -15 -99 -12 -29 5 -33 3 -28 -11 15 -37 18
-125 9 -226 -6 -70 -6 -112 1 -127 10 -22 27 -31 27 -15 0 5 24 10 53 10 28 1
64 5 79 8 21 4 29 0 38 -17 11 -20 13 -20 28 -5 14 14 17 42 18 174 0 86 4
167 8 179 6 19 1 26 -26 43 -18 11 -35 19 -38 19 -3 -1 -34 -10 -70 -20z m64
-35 c3 -9 6 -32 6 -52 0 -37 0 -37 -42 -37 -24 0 -58 -4 -76 -9 l-33 -8 3 48
c3 48 3 48 48 60 63 17 87 16 94 -2z m6 -154 c0 -38 -1 -39 -27 -34 -16 3 -49
1 -75 -4 l-48 -9 0 38 0 38 53 4 c28 2 62 4 75 5 19 2 22 -3 22 -38z m0 -107
l0 -48 -75 -2 -75 -2 0 44 0 44 53 4 c28 2 62 4 75 5 20 2 22 -2 22 -45z"/>
<path d="M420 294 c37 -62 77 -101 91 -87 18 18 -1 72 -31 94 -14 10 -38 21
-54 25 l-30 7 24 -39z"/>
<path d="M702 257 c71 -86 85 -94 100 -63 9 20 8 30 -5 50 -15 22 -111 76
-137 76 -6 0 13 -29 42 -63z"/>
<path d="M285 239 c30 -83 67 -126 134 -157 76 -35 211 -37 284 -5 55 26 60
47 16 71 -17 9 -51 32 -76 51 -25 19 -44 30 -42 25 3 -5 13 -26 24 -46 10 -21
15 -41 11 -45 -4 -5 -49 -9 -99 -11 -79 -2 -98 1 -137 21 -38 19 -50 33 -78
90 -43 88 -68 92 -37 6z"/>
<path d="M142 211 c-35 -71 -39 -114 -10 -119 35 -7 76 113 55 160 l-12 27
-33 -68z"/>
</g>
</svg>
