<?xml version="1.0" standalone="no"?>
<!DOCTYPE svg PUBLIC "-//W3C//DTD SVG 20010904//EN"
 "http://www.w3.org/TR/2001/REC-SVG-20010904/DTD/svg10.dtd">
<svg version="1.0" xmlns="http://www.w3.org/2000/svg"
 width="90.000000pt" height="92.000000pt" viewBox="0 0 90.000000 92.000000"
 preserveAspectRatio="xMidYMid meet">
<metadata>
Created by potrace 1.16, written by Peter Selinger 2001-2019
</metadata>
<g transform="translate(0.000000,92.000000) scale(0.100000,-0.100000)"
fill="#000000" stroke="none">
<path d="M147 783 c4 -27 8 -82 8 -123 l0 -75 -63 -10 c-35 -5 -63 -14 -63
-20 0 -14 40 -23 79 -17 23 3 32 1 32 -9 0 -23 -74 -163 -109 -208 -19 -23
-30 -45 -26 -49 10 -9 110 101 125 139 27 65 29 32 9 -181 -10 -113 -4 -170
20 -170 20 0 26 42 31 214 l5 180 28 -43 c16 -23 34 -41 40 -38 16 5 22 46 8
60 -7 7 3 18 33 37 47 30 93 89 154 198 l41 72 -24 16 c-21 14 -32 14 -80 3
-70 -16 -80 -29 -21 -29 50 0 53 -5 35 -55 l-12 -31 -35 18 c-69 35 -83 17
-28 -38 l34 -34 -28 -42 c-16 -24 -42 -55 -57 -71 -27 -25 -32 -26 -61 -16
-29 10 -32 15 -32 50 0 38 1 39 45 50 25 6 45 15 45 20 0 14 -40 31 -57 24
-26 -9 -29 9 -20 106 7 82 6 92 -10 105 -10 7 -26 14 -36 14 -16 0 -17 -5 -10
-47z"/>
<path d="M592 779 c-18 -30 -28 -39 -42 -34 -28 9 -33 -11 -6 -29 14 -8 63
-70 111 -136 58 -81 94 -122 110 -126 26 -6 125 13 125 24 0 4 -34 24 -75 46
-42 21 -96 57 -121 80 l-46 41 66 25 c36 14 66 30 66 37 0 6 -12 21 -26 32
l-27 21 -31 -45 c-17 -24 -36 -47 -42 -49 -7 -2 -26 10 -44 29 l-32 33 41 23
c43 24 49 37 29 57 -20 20 -32 14 -56 -29z"/>
<path d="M477 551 c-42 -9 -75 -20 -74 -26 5 -14 127 -10 173 5 35 12 36 14
19 26 -10 8 -24 13 -29 12 -6 0 -46 -8 -89 -17z"/>
<path d="M520 449 c-52 -10 -112 -18 -132 -18 -42 -1 -45 -5 -24 -27 8 -8 18
-34 22 -59 3 -25 10 -48 15 -51 5 -3 7 -9 4 -14 -3 -5 5 -36 19 -68 l24 -60
-52 -6 c-28 -3 -70 -6 -93 -6 -52 0 -55 -16 -8 -36 29 -12 43 -12 78 -3 23 7
130 15 237 18 162 5 195 8 195 21 0 28 -46 41 -120 35 -38 -3 -78 -8 -88 -11
-15 -5 -12 3 12 37 35 48 38 66 14 85 -13 9 -14 13 -4 14 8 0 11 6 7 15 -3 9
7 37 23 62 33 52 32 57 -7 76 -23 11 -42 10 -122 -4z m76 -61 c-4 -23 -8 -44
-10 -46 -2 -1 -36 -6 -76 -9 -79 -7 -90 -1 -90 49 0 25 3 27 58 33 31 3 64 8
72 9 49 11 53 8 46 -36z m-20 -137 c-5 -70 -19 -91 -61 -91 -32 0 -35 2 -35
31 0 21 -10 40 -30 61 -16 16 -30 31 -30 33 0 4 58 10 122 13 l37 2 -3 -49z"/>
</g>
</svg>
