<?xml version="1.0" standalone="no"?>
<!DOCTYPE svg PUBLIC "-//W3C//DTD SVG 20010904//EN"
 "http://www.w3.org/TR/2001/REC-SVG-20010904/DTD/svg10.dtd">
<svg version="1.0" xmlns="http://www.w3.org/2000/svg"
 width="96.000000pt" height="68.000000pt" viewBox="0 0 96.000000 68.000000"
 preserveAspectRatio="xMidYMid meet">
<metadata>
Created by potrace 1.16, written by Peter Selinger 2001-2019
</metadata>
<g transform="translate(0.000000,68.000000) scale(0.100000,-0.100000)"
fill="#000000" stroke="none">
<path d="M214 558 c4 -18 9 -59 13 -90 l6 -56 -49 -7 c-65 -9 -76 -13 -69 -25
3 -5 26 -10 51 -10 24 0 44 -2 44 -5 0 -25 -75 -132 -120 -172 -14 -13 -19
-23 -12 -23 25 0 71 30 107 72 l36 43 -7 -120 c-6 -103 -4 -122 9 -133 25 -21
37 15 37 115 0 48 3 98 6 110 6 21 8 21 30 7 25 -17 44 -12 44 13 0 19 -28 42
-52 43 -13 0 -18 8 -18 30 0 17 4 30 9 30 5 0 22 5 38 11 26 10 27 11 10 24
-10 7 -27 10 -38 8 -20 -6 -21 -3 -14 70 7 69 6 76 -13 86 -11 6 -28 11 -38
11 -13 0 -15 -6 -10 -32z"/>
<path d="M614 551 c-12 -21 -26 -31 -42 -31 -22 0 -19 -4 25 -48 26 -26 68
-70 92 -99 25 -29 51 -55 59 -58 18 -7 112 5 112 14 0 3 -15 12 -32 19 -75 30
-95 41 -126 67 -18 15 -32 30 -32 35 0 4 20 14 45 21 48 14 57 32 26 48 -15 8
-23 4 -47 -24 -33 -40 -40 -42 -71 -16 -25 21 -30 41 -10 41 6 0 21 7 32 15
17 14 18 17 3 31 -14 15 -17 13 -34 -15z"/>
<path d="M430 524 l-45 -12 38 -1 c39 -1 47 -14 24 -45 -10 -14 -17 -15 -40
-7 -55 21 -66 3 -17 -27 l29 -18 -32 -40 c-17 -21 -38 -44 -47 -51 -8 -7 -10
-13 -4 -13 29 0 167 157 177 202 4 18 -37 25 -83 12z"/>
<path d="M550 384 c-8 -1 -36 -6 -63 -9 -29 -4 -45 -10 -41 -17 11 -17 164 5
164 23 0 9 -28 10 -60 3z"/>
<path d="M515 304 c-49 -8 -99 -12 -110 -10 -17 4 -18 3 -5 -7 18 -13 81 -183
72 -191 -3 -3 -36 -6 -74 -6 -51 0 -69 -3 -65 -12 4 -14 1 -14 285 -3 159 7
180 10 170 23 -10 11 -31 13 -95 10 -64 -3 -83 -1 -83 9 0 7 3 13 8 13 4 0 13
10 21 22 12 19 11 24 -9 40 -14 11 -17 18 -9 18 13 1 49 64 49 87 0 10 -34 24
-55 22 -5 -1 -50 -7 -100 -15z m95 -43 c0 -29 -1 -29 -71 -36 -38 -4 -72 -6
-74 -4 -2 2 -6 16 -10 31 -6 24 -4 27 27 31 18 2 54 5 81 5 46 2 47 1 47 -27z
m-20 -95 c0 -56 -8 -66 -51 -66 -36 0 -39 2 -39 28 0 17 -8 32 -20 40 -33 20
-14 32 51 32 l59 0 0 -34z"/>
</g>
</svg>
