<?xml version="1.0" standalone="no"?>
<!DOCTYPE svg PUBLIC "-//W3C//DTD SVG 20010904//EN"
 "http://www.w3.org/TR/2001/REC-SVG-20010904/DTD/svg10.dtd">
<svg version="1.0" xmlns="http://www.w3.org/2000/svg"
 width="90.000000pt" height="92.000000pt" viewBox="0 0 90.000000 92.000000"
 preserveAspectRatio="xMidYMid meet">
<metadata>
Created by potrace 1.16, written by Peter Selinger 2001-2019
</metadata>
<g transform="translate(0.000000,92.000000) scale(0.100000,-0.100000)"
fill="#000000" stroke="none">
<path d="M456 892 c-4 -3 -3 -21 0 -39 3 -18 3 -53 0 -77 l-7 -44 -75 -7 c-92
-9 -95 -29 -6 -33 34 -2 62 -7 62 -13 0 -14 -48 -107 -59 -113 -5 -3 -11 3
-14 14 -5 20 -65 53 -80 43 -11 -7 46 -83 62 -83 25 0 -39 -59 -112 -102 -37
-22 -66 -43 -63 -45 8 -8 78 17 133 48 l52 29 10 -38 c5 -20 12 -60 16 -87 9
-70 14 -77 53 -66 31 9 32 9 43 -32 6 -22 8 -60 4 -84 -6 -41 -8 -43 -41 -43
l-35 0 38 -46 38 -45 23 26 c20 24 22 36 22 136 0 109 0 109 24 109 13 0 26
-6 29 -12 7 -21 17 -3 52 92 l33 92 -24 25 c-16 16 -31 22 -42 18 -28 -11
-204 -35 -214 -29 -4 3 7 25 27 48 19 23 44 64 56 91 l21 48 97 -101 c53 -56
110 -106 126 -112 36 -14 175 2 175 19 0 4 -24 15 -52 24 -29 9 -89 34 -133
55 l-80 39 43 22 c49 25 52 34 17 57 -29 19 -27 20 -49 -23 -9 -18 -22 -33
-29 -33 -6 0 -32 18 -56 39 l-45 38 40 7 c110 19 144 28 138 37 -12 21 -48 25
-107 13 -34 -7 -62 -12 -63 -11 -2 1 6 27 16 57 12 37 15 59 9 67 -13 15 -65
33 -73 25z m130 -445 c1 -26 -2 -28 -25 -24 -14 3 -55 -1 -90 -9 -36 -7 -66
-12 -67 -11 -1 1 -4 14 -7 28 -7 26 -6 26 66 36 109 16 122 13 123 -20z m-13
-79 c-5 -24 -12 -29 -74 -42 -89 -21 -86 -21 -91 19 -4 35 -4 35 37 36 22 0
60 4 85 8 25 4 46 7 47 7 1 -1 -1 -13 -4 -28z"/>
<path d="M155 673 c-18 -10 -52 -16 -87 -16 l-57 1 13 -27 c7 -14 18 -59 24
-100 11 -76 26 -107 41 -83 4 7 38 18 75 24 41 7 63 15 58 20 -10 10 13 116
29 133 17 17 9 42 -16 53 -33 15 -44 15 -80 -5z m35 -52 c0 -10 -3 -39 -6 -64
-6 -43 -8 -46 -47 -56 -23 -5 -42 -9 -44 -8 -1 2 -5 33 -9 69 l-7 66 29 5 c68
10 84 8 84 -12z"/>
<path d="M317 243 c-4 -3 -7 -16 -7 -28 0 -12 -13 -40 -28 -61 -41 -57 -44
-64 -32 -64 16 0 130 110 130 126 0 22 -48 42 -63 27z"/>
<path d="M656 181 c55 -69 77 -86 95 -75 17 10 9 60 -13 82 -24 22 -104 61
-125 62 -7 0 12 -31 43 -69z"/>
</g>
</svg>
