<?xml version="1.0" standalone="no"?>
<!DOCTYPE svg PUBLIC "-//W3C//DTD SVG 20010904//EN"
 "http://www.w3.org/TR/2001/REC-SVG-20010904/DTD/svg10.dtd">
<svg version="1.0" xmlns="http://www.w3.org/2000/svg"
 width="96.000000pt" height="68.000000pt" viewBox="0 0 96.000000 68.000000"
 preserveAspectRatio="xMidYMid meet">
<metadata>
Created by potrace 1.16, written by Peter Selinger 2001-2019
</metadata>
<g transform="translate(0.000000,68.000000) scale(0.100000,-0.100000)"
fill="#000000" stroke="none">
<path d="M483 559 c0 -27 -3 -52 -6 -55 -3 -3 -33 -8 -66 -11 -76 -7 -80 -23
-6 -23 38 0 55 -4 55 -13 0 -41 -113 -148 -193 -182 -30 -13 -30 -14 -7 -14
62 -1 176 76 217 147 14 23 28 42 32 42 4 0 30 -21 57 -47 109 -103 139 -115
249 -95 l40 8 -90 28 c-91 28 -165 65 -220 110 l-30 24 70 7 c79 8 93 14 74
26 -8 5 -40 6 -71 3 -62 -7 -65 -4 -47 43 8 23 7 30 -7 40 -37 27 -50 17 -51
-38z"/>
</g>
</svg>
