<?xml version="1.0" standalone="no"?>
<!DOCTYPE svg PUBLIC "-//W3C//DTD SVG 20010904//EN"
 "http://www.w3.org/TR/2001/REC-SVG-20010904/DTD/svg10.dtd">
<svg version="1.0" xmlns="http://www.w3.org/2000/svg"
 width="96.000000pt" height="68.000000pt" viewBox="0 0 96.000000 68.000000"
 preserveAspectRatio="xMidYMid meet">
<metadata>
Created by potrace 1.16, written by Peter Selinger 2001-2019
</metadata>
<g transform="translate(0.000000,68.000000) scale(0.100000,-0.100000)"
fill="#000000" stroke="none">
<path d="M556 622 c-3 -3 -6 -18 -6 -33 0 -31 -23 -49 -64 -49 -14 0 -26 -4
-26 -9 0 -11 25 -21 52 -21 15 0 19 -5 15 -20 -7 -26 3 -25 34 4 19 17 42 25
92 30 37 4 67 12 67 17 0 15 -49 30 -80 24 -26 -5 -29 -3 -27 21 2 22 -4 29
-25 34 -15 5 -29 5 -32 2z"/>
<path d="M290 592 c0 -5 7 -17 15 -28 8 -10 15 -22 15 -26 0 -5 -30 -8 -66 -8
-70 0 -82 -13 -33 -37 20 -10 34 -10 63 -1 35 11 40 10 56 -10 25 -30 42 -28
38 5 -3 24 1 28 26 33 38 6 37 26 -1 22 -24 -3 -30 2 -40 27 -9 25 -17 31 -42
31 -17 0 -31 -4 -31 -8z"/>
<path d="M413 442 c-73 -8 -133 -19 -133 -23 0 -5 33 -9 74 -9 64 0 74 -2 79
-19 6 -25 -37 -34 -150 -30 l-83 3 -22 -43 c-15 -30 -18 -45 -10 -53 14 -14
36 3 52 41 11 28 13 28 108 34 53 2 100 3 103 1 4 -2 2 -24 -3 -48 -6 -31 -6
-51 2 -66 18 -33 28 -15 36 60 l7 70 56 0 c31 0 80 3 109 6 43 6 52 4 52 -8 0
-9 -7 -21 -15 -28 -18 -15 -20 -31 -2 -26 6 2 33 10 60 16 53 14 58 27 21 54
-23 16 -38 17 -155 11 -71 -4 -129 -3 -129 1 1 22 19 32 75 38 74 9 95 15 95
27 0 12 -65 9 -227 -9z"/>
<path d="M556 325 c-10 -8 -24 -16 -30 -18 -6 -2 -8 -7 -4 -11 3 -4 24 -2 47
5 32 10 39 15 30 26 -14 16 -19 16 -43 -2z"/>
<path d="M305 310 c-9 -14 55 -34 67 -22 7 7 9 14 6 17 -9 10 -68 14 -73 5z"/>
<path d="M530 262 c0 -4 16 -14 35 -21 42 -15 67 -5 40 16 -20 14 -75 18 -75
5z"/>
<path d="M316 251 c-22 -3 -41 -11 -43 -17 -6 -20 27 -25 57 -9 28 14 50 36
33 34 -4 -1 -26 -5 -47 -8z"/>
<path d="M475 194 c-66 -8 -146 -12 -177 -9 -32 2 -58 1 -58 -4 0 -5 4 -11 10
-13 5 -1 16 -36 25 -77 17 -84 19 -88 37 -74 7 6 70 13 140 15 118 5 128 3
133 -14 16 -49 70 5 79 80 4 29 9 58 11 65 16 42 -37 50 -200 31z m-60 -76
c-11 -3 -41 -6 -67 -7 -44 -1 -48 1 -48 23 0 21 6 24 63 32 61 9 62 9 67 -16
4 -19 1 -27 -15 -32z m203 35 c3 -20 -2 -22 -69 -25 -74 -3 -88 4 -75 37 5 13
20 15 73 13 61 -3 68 -5 71 -25z m-2 -58 c-3 -9 -6 -20 -6 -25 0 -5 -32 -10
-70 -12 -69 -3 -70 -3 -70 22 0 24 3 25 76 28 68 3 76 1 70 -13z m-182 -28
c-5 -13 -19 -17 -65 -17 -52 0 -59 2 -59 20 0 16 8 19 58 22 64 3 76 -1 66
-25z"/>
</g>
</svg>
