<?xml version="1.0" standalone="no"?>
<!DOCTYPE svg PUBLIC "-//W3C//DTD SVG 20010904//EN"
 "http://www.w3.org/TR/2001/REC-SVG-20010904/DTD/svg10.dtd">
<svg version="1.0" xmlns="http://www.w3.org/2000/svg"
 width="96.000000pt" height="68.000000pt" viewBox="0 0 96.000000 68.000000"
 preserveAspectRatio="xMidYMid meet">
<metadata>
Created by potrace 1.16, written by Peter Selinger 2001-2019
</metadata>
<g transform="translate(0.000000,68.000000) scale(0.100000,-0.100000)"
fill="#000000" stroke="none">
<path d="M288 486 l5 -104 -52 -7 c-66 -9 -66 -25 0 -25 l50 0 -3 -51 -3 -52
-92 -36 c-51 -20 -93 -39 -93 -42 0 -3 11 -11 25 -17 27 -13 57 -3 117 39 14
11 29 19 33 19 4 0 4 -33 1 -72 -7 -77 2 -105 28 -95 13 5 16 23 16 94 0 48 4
93 8 99 4 5 24 20 45 33 46 28 42 38 -7 17 l-36 -15 0 44 c0 46 -1 45 63 59
45 10 32 28 -18 24 l-45 -3 1 35 c0 19 4 58 9 85 9 53 -3 75 -40 75 -15 0 -16
-12 -12 -104z"/>
</g>
</svg>
