<?xml version="1.0" standalone="no"?>
<!DOCTYPE svg PUBLIC "-//W3C//DTD SVG 20010904//EN"
 "http://www.w3.org/TR/2001/REC-SVG-20010904/DTD/svg10.dtd">
<svg version="1.0" xmlns="http://www.w3.org/2000/svg"
 width="96.000000pt" height="68.000000pt" viewBox="0 0 96.000000 68.000000"
 preserveAspectRatio="xMidYMid meet">
<metadata>
Created by potrace 1.16, written by Peter Selinger 2001-2019
</metadata>
<g transform="translate(0.000000,68.000000) scale(0.100000,-0.100000)"
fill="#000000" stroke="none">
<path d="M591 332 c0 -52 -13 -112 -25 -112 -2 0 -18 14 -36 30 -18 17 -39 30
-48 30 -9 0 2 -16 29 -41 l44 -41 -42 -37 c-23 -21 -64 -45 -90 -54 l-48 -16
39 0 c27 -1 60 10 104 35 l65 35 41 -40 c23 -22 52 -44 66 -49 24 -9 136 0
147 12 6 6 7 6 -92 35 -87 25 -149 66 -139 89 3 10 16 47 27 84 21 72 15 98
-23 98 -16 0 -18 -9 -19 -58z"/>
</g>
</svg>
