<?xml version="1.0" standalone="no"?>
<!DOCTYPE svg PUBLIC "-//W3C//DTD SVG 20010904//EN"
 "http://www.w3.org/TR/2001/REC-SVG-20010904/DTD/svg10.dtd">
<svg version="1.0" xmlns="http://www.w3.org/2000/svg"
 width="96.000000pt" height="68.000000pt" viewBox="0 0 96.000000 68.000000"
 preserveAspectRatio="xMidYMid meet">
<metadata>
Created by potrace 1.16, written by Peter Selinger 2001-2019
</metadata>
<g transform="translate(0.000000,68.000000) scale(0.100000,-0.100000)"
fill="#000000" stroke="none">
<path d="M261 533 c-15 -58 -63 -133 -131 -204 -27 -29 -50 -54 -50 -56 0 -2
9 -3 20 -3 10 0 35 14 53 30 57 49 60 44 54 -77 -3 -60 -9 -120 -13 -135 -11
-46 17 -44 91 6 57 38 70 43 86 33 23 -15 24 -33 3 -41 -9 -4 -14 -9 -11 -13
7 -6 49 19 79 46 11 11 34 16 65 16 45 -1 48 -3 45 -26 -5 -32 -3 -31 -74 -39
-115 -12 -34 -23 95 -12 67 5 152 8 189 6 37 -2 70 1 73 6 10 17 -47 32 -92
25 -40 -6 -53 1 -36 19 5 4 8 13 8 19 0 8 23 13 63 15 88 4 80 32 -9 32 -42 0
-44 2 -29 30 18 34 -10 43 -112 35 -82 -7 -91 -6 -80 8 10 12 10 16 0 20 -36
12 51 26 175 27 55 0 67 3 67 16 0 15 -10 16 -90 10 -84 -6 -90 -5 -90 12 0
16 10 21 50 26 32 4 48 11 44 18 -4 6 -23 8 -45 5 -33 -4 -39 -2 -39 13 0 14
10 21 38 25 68 11 82 15 82 25 0 13 -42 13 -111 0 -30 -5 -76 -12 -103 -16
-55 -6 -46 -24 12 -24 25 0 32 -4 32 -20 0 -16 -7 -20 -32 -20 -18 0 -40 -5
-48 -10 -11 -7 -2 -10 33 -10 39 0 47 -3 47 -19 0 -19 -39 -31 -107 -31 -50 0
-49 -19 2 -22 l45 -3 -21 -40 c-12 -22 -32 -55 -46 -74 l-26 -33 -21 25 c-25
31 -62 40 -58 15 3 -17 -27 -37 -75 -52 -22 -7 -23 -5 -23 43 l0 50 44 6 c24
4 53 4 64 1 17 -6 23 3 46 65 25 68 26 72 9 86 -18 13 -35 13 -135 -3 -21 -3
-38 -2 -38 2 1 20 39 53 57 50 32 -7 118 15 102 25 -14 8 -84 3 -100 -7 -14
-8 -11 2 12 41 24 40 14 41 95 -11 19 -13 28 -14 37 -5 18 18 -4 44 -51 59
-23 8 -42 19 -42 24 0 14 -31 37 -50 38 -10 0 -20 -17 -29 -47z m99 -198 c0
-19 -5 -25 -22 -25 -13 0 -40 -3 -61 -6 -36 -6 -37 -6 -29 17 9 23 26 29 100
38 7 0 12 -10 12 -24z m0 -57 c0 -26 -16 -35 -67 -41 -51 -6 -53 -5 -53 18 0
20 6 24 38 28 73 7 82 7 82 -5z m328 -75 c-3 -25 -8 -28 -42 -31 -34 -3 -38
-1 -27 11 8 11 9 17 1 22 -19 12 0 25 36 25 33 0 35 -2 32 -27z m-123 -3 c10
-30 -2 -40 -46 -40 l-41 0 24 29 c27 35 54 39 63 11z m110 -72 c-9 -31 -33
-48 -67 -48 -33 0 -33 1 -13 40 13 25 22 30 51 30 32 0 35 -2 29 -22z"/>
<path d="M646 527 c-11 -23 -24 -45 -30 -49 -7 -5 -6 -8 3 -8 11 0 66 37 106
72 12 11 -12 28 -40 28 -14 0 -26 -14 -39 -43z"/>
<path d="M491 513 c34 -44 65 -54 76 -27 8 22 -22 44 -60 44 -27 0 -28 -2 -16
-17z"/>
</g>
</svg>
