<?xml version="1.0" standalone="no"?>
<!DOCTYPE svg PUBLIC "-//W3C//DTD SVG 20010904//EN"
 "http://www.w3.org/TR/2001/REC-SVG-20010904/DTD/svg10.dtd">
<svg version="1.0" xmlns="http://www.w3.org/2000/svg"
 width="90.000000pt" height="92.000000pt" viewBox="0 0 90.000000 92.000000"
 preserveAspectRatio="xMidYMid meet">
<metadata>
Created by potrace 1.16, written by Peter Selinger 2001-2019
</metadata>
<g transform="translate(0.000000,92.000000) scale(0.100000,-0.100000)"
fill="#000000" stroke="none">
<path d="M494 776 c0 -43 -5 -81 -12 -89 -8 -9 -50 -19 -108 -27 -97 -13 -114
-26 -61 -44 17 -6 49 -6 87 0 33 6 60 9 60 7 0 -2 -12 -27 -26 -56 -39 -77
-81 -134 -148 -204 -32 -35 -55 -63 -50 -63 22 0 102 60 147 109 l47 53 0 -58
c0 -101 -22 -204 -65 -309 l-8 -20 22 20 c25 22 64 94 74 136 7 26 11 27 99
35 l93 9 3 -52 c2 -29 -2 -61 -7 -72 -9 -17 -16 -18 -43 -10 -61 17 -62 9 -7
-46 30 -30 60 -55 66 -55 7 0 20 15 30 33 14 26 17 65 19 217 1 102 3 196 5
209 3 16 -4 29 -22 43 -26 20 -27 20 -110 -1 -124 -31 -123 -32 -91 38 27 58
27 59 77 65 28 3 94 9 148 12 54 4 101 12 104 17 10 16 -36 47 -69 47 -16 0
-67 -7 -114 -17 -46 -9 -87 -14 -90 -11 -2 3 4 30 16 59 l20 54 -25 23 c-48
41 -60 31 -61 -52z m154 -316 l3 -45 -48 0 c-26 0 -65 -4 -86 -8 l-38 -8 3 43
c3 43 3 43 53 55 28 6 64 11 80 10 28 -2 30 -5 33 -47z m2 -117 l0 -38 -90 -2
-90 -3 0 35 0 34 58 4 c136 8 122 11 122 -30z"/>
<path d="M217 765 c-11 -79 -103 -239 -190 -332 -17 -18 -28 -36 -24 -39 8 -8
74 44 120 95 33 36 36 37 41 18 8 -30 -1 -208 -15 -297 -10 -67 -10 -79 5
-109 32 -61 40 -26 48 206 7 190 6 219 -8 234 -14 16 -11 25 40 114 31 53 56
102 56 109 0 17 -33 46 -52 46 -11 0 -17 -14 -21 -45z"/>
</g>
</svg>
