<?xml version="1.0" standalone="no"?>
<!DOCTYPE svg PUBLIC "-//W3C//DTD SVG 20010904//EN"
 "http://www.w3.org/TR/2001/REC-SVG-20010904/DTD/svg10.dtd">
<svg version="1.0" xmlns="http://www.w3.org/2000/svg"
 width="90.000000pt" height="92.000000pt" viewBox="0 0 90.000000 92.000000"
 preserveAspectRatio="xMidYMid meet">
<metadata>
Created by potrace 1.16, written by Peter Selinger 2001-2019
</metadata>
<g transform="translate(0.000000,92.000000) scale(0.100000,-0.100000)"
fill="#000000" stroke="none">
<path d="M517 854 c-3 -4 -1 -16 5 -27 9 -17 37 -192 38 -239 0 -12 -14 -19
-50 -27 -28 -6 -52 -11 -53 -11 -1 0 -1 19 1 43 3 37 1 45 -20 54 -22 10 -21
11 20 23 46 14 52 28 24 53 -26 24 -33 22 -77 -24 -22 -22 -53 -48 -70 -56
-36 -19 -18 -29 25 -15 32 12 32 12 45 -55 6 -31 6 -32 -39 -38 -25 -4 -46
-11 -46 -15 0 -12 58 -33 75 -26 12 4 15 -6 15 -64 l0 -70 -60 -30 c-33 -16
-66 -30 -75 -30 -21 0 -3 -35 26 -50 17 -10 27 -6 66 26 l46 38 -6 -63 c-6
-75 -14 -85 -50 -72 -15 6 -27 8 -27 5 0 -4 16 -29 36 -56 l37 -50 26 26 c24
24 26 34 29 136 l4 109 45 37 c24 20 42 38 40 41 -3 2 -23 -5 -46 -16 -22 -12
-42 -21 -43 -21 -2 0 -4 27 -4 60 l-2 59 55 11 c30 7 56 10 58 8 1 -1 14 -48
28 -103 l26 -100 -60 -58 c-67 -64 -59 -73 21 -23 l55 35 30 -57 c41 -77 137
-175 167 -170 18 2 22 9 20 28 -17 162 -19 174 -26 155 -4 -11 -12 -32 -18
-47 -15 -40 -31 -35 -71 20 -48 66 -69 109 -57 117 6 4 29 31 51 62 l41 55
-23 24 c-31 33 -46 30 -53 -8 -3 -18 -15 -46 -25 -62 l-19 -29 -21 68 c-29 92
-28 105 8 105 51 0 121 12 121 22 0 4 -15 16 -34 25 -28 13 -42 14 -77 5 -24
-6 -44 -10 -45 -9 -7 7 -8 160 -1 199 8 45 7 47 -22 62 -32 17 -54 20 -64 10z"/>
<path d="M115 741 c-3 -6 -1 -20 5 -31 7 -12 9 -82 8 -187 l-3 -168 -33 -3
-34 -3 7 76 c6 65 5 79 -10 95 -32 35 -41 24 -41 -47 0 -38 -4 -91 -8 -118
-10 -64 5 -83 50 -61 31 16 138 46 162 46 8 0 21 -8 28 -17 12 -17 13 -16 22
7 5 14 15 65 21 114 13 95 10 105 -32 106 -15 0 -17 -6 -11 -35 3 -19 3 -59 0
-89 -7 -53 -8 -54 -43 -58 l-35 -4 6 55 c9 89 9 302 0 311 -16 14 -52 21 -59
11z"/>
<path d="M657 736 c49 -83 113 -115 113 -56 0 27 -6 34 -42 50 -52 23 -83 26
-71 6z"/>
</g>
</svg>
