<?xml version="1.0" standalone="no"?>
<!DOCTYPE svg PUBLIC "-//W3C//DTD SVG 20010904//EN"
 "http://www.w3.org/TR/2001/REC-SVG-20010904/DTD/svg10.dtd">
<svg version="1.0" xmlns="http://www.w3.org/2000/svg"
 width="90.000000pt" height="92.000000pt" viewBox="0 0 90.000000 92.000000"
 preserveAspectRatio="xMidYMid meet">
<metadata>
Created by potrace 1.16, written by Peter Selinger 2001-2019
</metadata>
<g transform="translate(0.000000,92.000000) scale(0.100000,-0.100000)"
fill="#000000" stroke="none">
<path d="M440 839 c-68 -12 -128 -17 -169 -14 l-63 6 8 -28 c5 -15 7 -57 6
-93 -7 -162 -72 -318 -186 -440 -21 -23 -36 -43 -34 -46 3 -2 30 14 60 36 88
62 147 165 188 325 l18 70 103 12 c57 6 135 12 173 12 65 1 68 2 63 22 -4 13
4 42 19 70 13 27 24 51 24 53 0 11 -60 36 -82 35 -13 -1 -70 -10 -128 -20z
m125 -29 c3 -5 1 -27 -4 -48 l-11 -38 -107 -13 c-60 -7 -123 -15 -141 -18
l-33 -5 7 43 c4 24 10 48 15 53 8 9 166 33 231 35 20 1 40 -3 43 -9z"/>
<path d="M417 654 c-2 -3 -2 -25 1 -49 l4 -44 -51 -7 c-76 -10 -62 -34 20 -34
38 0 39 -1 39 -34 0 -38 -3 -39 -147 -52 -77 -7 -90 -17 -47 -36 23 -11 121
-2 199 18 47 13 -148 -127 -260 -186 -76 -40 -79 -44 -30 -36 22 4 80 27 128
51 l89 44 -2 -87 c-2 -108 -2 -113 10 -132 8 -13 11 -13 22 3 10 13 33 19 84
24 l70 6 13 -32 c16 -37 22 -38 47 -10 13 14 18 33 17 62 -1 23 -4 79 -6 125
-3 71 -6 85 -25 98 -20 14 -30 13 -104 -5 -45 -12 -82 -20 -84 -18 -1 1 28 25
64 52 l66 50 143 3 c153 4 169 11 102 44 -26 13 -43 15 -74 9 -22 -5 -62 -11
-90 -15 l-50 -6 74 72 74 71 -32 29 c-36 32 -46 31 -54 -9 -3 -16 -12 -36 -19
-46 -12 -16 -16 -17 -42 -4 -19 10 -37 12 -56 7 -28 -8 -29 -7 -32 28 -2 29
-8 37 -30 43 -15 4 -29 5 -31 3z m154 -123 c-25 -45 -101 -90 -101 -58 1 40
14 57 54 66 58 13 58 13 47 -8z m-11 -250 c0 -26 -4 -29 -42 -34 -24 -3 -60
-9 -80 -13 l-38 -7 0 36 c0 41 6 43 103 46 56 1 57 1 57 -28z m6 -83 c-3 -13
-6 -31 -6 -40 0 -12 -8 -17 -27 -16 -16 1 -52 -2 -80 -6 l-53 -8 0 34 0 35 68
10 c107 16 105 16 98 -9z"/>
</g>
</svg>
