<?xml version="1.0" standalone="no"?>
<!DOCTYPE svg PUBLIC "-//W3C//DTD SVG 20010904//EN"
 "http://www.w3.org/TR/2001/REC-SVG-20010904/DTD/svg10.dtd">
<svg version="1.0" xmlns="http://www.w3.org/2000/svg"
 width="96.000000pt" height="68.000000pt" viewBox="0 0 96.000000 68.000000"
 preserveAspectRatio="xMidYMid meet">
<metadata>
Created by potrace 1.16, written by Peter Selinger 2001-2019
</metadata>
<g transform="translate(0.000000,68.000000) scale(0.100000,-0.100000)"
fill="#000000" stroke="none">
<path d="M327 531 c7 -80 -6 -128 -48 -172 -16 -17 -27 -34 -25 -37 8 -7 79
37 94 59 13 18 14 18 43 -3 21 -16 32 -19 40 -11 18 18 2 43 -31 50 -26 5 -31
10 -28 32 2 21 13 29 53 44 61 22 61 23 45 42 -18 21 -47 19 -60 -5 -16 -30
-33 -24 -28 10 5 32 -4 44 -39 52 -21 6 -21 4 -16 -61z"/>
<path d="M549 593 c0 -5 0 -38 1 -75 1 -71 -7 -97 -48 -140 -14 -16 -22 -28
-16 -28 15 0 67 37 84 60 l16 22 44 -37 c39 -32 45 -34 53 -19 11 20 -21 49
-65 58 -27 5 -27 5 -21 72 5 58 4 69 -12 80 -21 16 -35 18 -36 7z"/>
<path d="M640 520 c-40 -34 -34 -37 30 -13 56 21 58 22 40 33 -23 15 -33 12
-70 -20z"/>
<path d="M224 498 c-9 -15 43 -60 65 -56 28 6 24 36 -8 52 -36 19 -47 20 -57
4z"/>
<path d="M460 484 c0 -16 23 -44 35 -44 18 0 20 21 3 38 -12 12 -38 17 -38 6z"/>
<path d="M521 335 c-240 -25 -291 -27 -297 -10 -4 8 -9 15 -13 15 -11 0 -51
-88 -51 -110 0 -39 38 -15 60 38 9 20 43 30 83 23 8 -1 269 25 350 35 50 7 57
0 36 -38 -15 -28 -8 -30 47 -16 67 16 72 23 40 53 -32 29 -57 30 -255 10z"/>
<path d="M505 265 c-5 -2 -49 -7 -97 -10 -97 -7 -120 -25 -34 -25 44 0 55 -3
58 -17 9 -39 -3 -53 -43 -53 -56 0 -58 -18 -2 -22 l48 -3 3 -40 3 -40 -103 -3
c-57 -2 -107 -6 -112 -9 -27 -17 44 -22 244 -17 237 6 270 8 270 24 0 13 -69
30 -100 26 -14 -3 -55 -7 -92 -11 l-68 -7 0 40 c0 36 3 40 31 46 17 3 42 6 55
6 13 0 24 4 24 9 0 15 -36 23 -75 15 -34 -6 -35 -5 -35 25 0 35 3 37 73 46 26
3 45 10 42 16 -6 8 -68 11 -90 4z"/>
<path d="M590 134 c0 -10 26 -31 48 -38 18 -6 22 -3 22 12 0 11 -7 23 -16 26
-20 8 -54 8 -54 0z"/>
</g>
</svg>
