<?xml version="1.0" standalone="no"?>
<!DOCTYPE svg PUBLIC "-//W3C//DTD SVG 20010904//EN"
 "http://www.w3.org/TR/2001/REC-SVG-20010904/DTD/svg10.dtd">
<svg version="1.0" xmlns="http://www.w3.org/2000/svg"
 width="96.000000pt" height="68.000000pt" viewBox="0 0 96.000000 68.000000"
 preserveAspectRatio="xMidYMid meet">
<metadata>
Created by potrace 1.16, written by Peter Selinger 2001-2019
</metadata>
<g transform="translate(0.000000,68.000000) scale(0.100000,-0.100000)"
fill="#000000" stroke="none">
<path d="M470 330 c-232 -23 -226 -23 -244 -5 -8 8 -17 15 -20 15 -8 0 -46
-91 -46 -112 0 -32 31 -17 53 25 17 34 22 37 61 37 24 0 123 9 222 20 98 11
185 20 192 20 15 0 16 -32 0 -48 -6 -6 -9 -14 -6 -17 8 -8 112 21 115 32 2 6
-8 20 -23 32 -32 25 -50 25 -304 1z"/>
</g>
</svg>
