<?xml version="1.0" standalone="no"?>
<!DOCTYPE svg PUBLIC "-//W3C//DTD SVG 20010904//EN"
 "http://www.w3.org/TR/2001/REC-SVG-20010904/DTD/svg10.dtd">
<svg version="1.0" xmlns="http://www.w3.org/2000/svg"
 width="96.000000pt" height="68.000000pt" viewBox="0 0 96.000000 68.000000"
 preserveAspectRatio="xMidYMid meet">
<metadata>
Created by potrace 1.16, written by Peter Selinger 2001-2019
</metadata>
<g transform="translate(0.000000,68.000000) scale(0.100000,-0.100000)"
fill="#000000" stroke="none">
<path d="M328 520 c5 -88 -1 -111 -39 -155 -45 -50 -10 -46 41 5 22 22 40 36
40 32 0 -13 47 -35 59 -28 17 11 1 34 -30 41 -24 5 -29 12 -29 35 0 25 6 31
48 46 62 23 69 30 42 44 -19 10 -26 8 -49 -14 -37 -35 -44 -33 -36 10 7 38 -3
54 -35 54 -13 0 -15 -12 -12 -70z"/>
<path d="M230 492 c0 -5 11 -19 25 -32 24 -23 26 -23 43 -6 16 16 16 18 -2 32
-21 15 -66 19 -66 6z"/>
</g>
</svg>
