<?xml version="1.0" standalone="no"?>
<!DOCTYPE svg PUBLIC "-//W3C//DTD SVG 20010904//EN"
 "http://www.w3.org/TR/2001/REC-SVG-20010904/DTD/svg10.dtd">
<svg version="1.0" xmlns="http://www.w3.org/2000/svg"
 width="96.000000pt" height="68.000000pt" viewBox="0 0 96.000000 68.000000"
 preserveAspectRatio="xMidYMid meet">
<metadata>
Created by potrace 1.16, written by Peter Selinger 2001-2019
</metadata>
<g transform="translate(0.000000,68.000000) scale(0.100000,-0.100000)"
fill="#000000" stroke="none">
<path d="M270 551 c0 -20 48 -76 68 -79 33 -5 30 40 -4 67 -27 21 -64 28 -64
12z"/>
<path d="M308 451 c-87 -15 -161 -31 -164 -34 -4 -4 5 -11 19 -16 20 -8 55 -4
139 14 62 13 134 27 161 30 26 3 47 10 47 16 0 5 -4 9 -9 9 -5 0 -15 2 -23 4
-7 2 -84 -8 -170 -23z"/>
</g>
</svg>
